<?xml version="1.0" encoding="utf-8"?>
<svg id="EdithAnim09" image-rendering="inherit" baseProfile="basic" version="1.1" x="0px" y="0px" width="800" height="600" xmlns="http://www.w3.org/2000/svg" xmlns:xlink="http://www.w3.org/1999/xlink">
  <g id="11_GrammarPolice" overflow="visible">
    <g id="Text-You're-not-Your">
      <path id="Layer1_0_1_STROKES" stroke="#FFF" stroke-width="2" stroke-linejoin="round" stroke-linecap="round" fill="none" d="M616.65,172.65 Q615.85,172.3 612.8,172 610.35,171.75 609.7,171.75 605.25,171.75 604.55,173.9 604.55,173.95 604.55,179.2 604.55,186.45 605.95,193.35 607.65,201.65 610.5,203.4 L621.9,203.4 621.9,202.7 621.6,202.7 M607.95,188.75 Q610.65,188.25 613.3,187.55 615.5,187 615.75,186.9 M585.95,214.5 Q586.25,213.3 586.25,210.95 586.25,208.8 585.15,202.65 584.35,198.25 583.8,195.9 582.3,188.6 582.3,182.6 582.3,179.4 585.05,177.35 587.9,175.2 592.8,175.2 595.5,175.2 596.55,176.4 597.45,177.5 597.45,180.25 597.45,184.75 592.2,189.6 590.5,191.2 586.25,194.1 593.7,198.4 597.75,201.65 602.2,205.25 604.85,209.25 M570.15,168.3 L574.5,168.3 Q576.2,169.7 577.8,170.65 578.55,171.25 578.55,172.65 578.55,173.8 576.65,175.25 574.6,176.65 574.2,177 M552.45,180.45 Q552.7,196.9 553.5,200.15 555.05,206.45 561.75,206.45 564.7,206.45 567.65,204.3 571.7,201.35 571.7,196.2 571.7,192.25 570.4,187.15 568.1,177.9 567.95,177.3 M571.6,243.1 Q561.9,259.55 578.95,256.1 581.85,253.6 582.3,248.95 582.75,244.3 572.85,242.75 M602.35,243.75 Q601.45,243.75 595.45,244.65 595,244.7 594.6,244.8 596,249.65 596.5,250.5 598.1,253.2 600.55,256.7 M587.5,245.55 Q589.35,245.55 594.6,244.8 594.1,243.2 593.55,241.15 591,232 590.95,231.9 M607.7,324.9 Q605.95,315.25 605.5,312.7 604.85,309.05 604.85,305.2 604.85,298.9 608.35,294.8 612.3,290.15 619.6,290.15 623.05,290.15 624.45,291.15 626,292.25 626,295.15 620.35,305.2 615.4,306.9 608.9,309.3 608.3,309.05 612.85,314.7 623.25,319.3 627.45,321.15 628.7,322.2 630.75,323.85 630.35,326.15 M547.9,269.4 Q552.7,268.7 571.7,266.9 587.45,265.4 592.8,265.15 594.05,265.05 594.7,265.05 M574.55,299.45 Q574.15,301.05 574.15,305.05 574.15,316.05 576.35,320.85 579.25,327.05 586.9,327.05 589.65,327.05 592.15,324.3 594.95,321.15 594.95,316.7 594.95,313.5 592.8,307.6 590.6,301.75 590.6,300.15 M538.8,182.55 Q537.25,181.85 537,181.75 536.8,181.65 534.95,181.65 530.1,181.65 526.4,187.2 522.75,192.75 522.75,199.8 522.75,204.95 526.4,207.05 528.7,208.35 532.15,208.35 536.25,208.35 539.15,204.9 542.85,200.5 542.85,191.7 542.85,186.45 541.9,185 540.7,183.15 535.7,182.25 M501.6,176.1 Q501.6,177.3 501.3,179.15 501.3,181.45 502.55,183.2 504.15,185.4 507.05,185.4 509.95,185.4 512.5,182.8 514.65,180.65 514.95,178.7 514.95,178.65 514.95,178.55 L514.95,178.25 M514.95,178.7 Q514.6,186 513.75,195.1 513.15,201.85 513.15,210.15 513.15,213.75 513.8,215.25 513.9,215.55 514.05,215.75 M538.5,245.25 Q539.7,248.9 542.25,253.75 544.7,258.45 544.75,258.6 544.75,258.2 543.8,254.25 542.85,250.25 542.85,248.65 542.85,244.4 545.65,242.45 548.3,240.6 553.7,240.6 558.65,240.6 560.8,248.3 561.9,252.2 562.05,256.4 M506.6,298.55 Q509.7,301.6 512.4,305.75 514.7,308.45 519.45,308.45 523.7,308.45 526.8,304.3 528,302.65 530.15,297.9 L530.45,297.9 Q530.45,306.9 531.05,334.2 531.05,334.65 531.05,335.1 M558.05,308.15 Q557.55,307.45 557,307.15 556.9,307.1 556.75,307.05 556.45,306.95 555.95,306.9 555.95,306.95 555.95,307.05 555.853,306.903 555.7,306.9 555.805,306.9 555.95,306.9 554.95,305.9 553.5,306.1 550.7,306.5 548.75,312.5 548.5,313.4 548.1,315.2 547.55,317.8 547.55,319.05 L547.55,321.6 Q547.55,327.45 548.8,330.15 551,335.1 557.6,335.1 561.1,335.1 564.25,332.7 568.6,329.35 568.6,322.9 568.6,316.2 564.85,311.25 561.6,306.9 558.35,306.9 557.75,306.95 557,307.15" test="Text You're not Your"/>
    </g>
    <g id="GrammarPoliceMan">
      <path id="Layer2_0_1_STROKES" stroke="#00F" stroke-width="2" stroke-linejoin="round" stroke-linecap="round" fill="none" d="M338.1,91.55 Q344.5,93.75 351,97.25 384.2,114.95 392.25,149.75 400.3,184.25 401.3,219.75 401.45,225.3 401.8,230.9 M223.15,211.7 Q237.25,221.6 254.55,222.1 271.25,222.6 287.9,224.4 305.4,226.45 321.85,225.65 338.25,224.85 354.35,222.75 370.45,220.6 380.95,216.9 391.45,213.2 398.35,210.75 M225.3,209.85 Q225,174.35 239.6,141.65 254.15,108.95 285.95,94.25 288.2,93.2 290.45,92.3 M224.4,214.2 Q224.3,221 224.8,226.75 L225.3,232.8 M224.4,234 Q239.05,236.45 253.6,239.65 266.8,242.65 280.35,242.8 294.6,242.95 309.6,243.55 324.6,244.1 337.35,242.95 349.65,242.6 362,239.95 366.1,239.1 370.2,238.15 378.95,236.15 387.65,233.9 389.25,233.5 390.8,233.2 399.75,231.55 408.3,233.8 411.25,234.65 413.25,237.1 419.25,244.45 420.4,253.55 409.15,255.7 395.6,257.4 382,259.15 369.15,260.25 356.3,261.35 346.15,262.15 327.7,263.75 309.3,264.85 297.35,265.45 285.55,264.7 275.7,264.3 265.85,264.25 240.7,264.1 217.45,255.55 212.1,253.7 206.7,252 L224.05,234" test="GrammarPoliceMan"/>
      <path id="Layer2_0_2_STROKES" stroke="#FFF" stroke-width="2" stroke-linejoin="round" stroke-linecap="round" fill="none" d="M338.1,91.55 L338.65,92.3 Q315.5,107.15 289.5,93.4 M290.45,92.3 Q294.35,78.8 303.75,73.25 313.15,67.65 314.15,68.2 328.4,71.55 338.1,91.55 M329,157.15 Q309.3,153.25 299.7,171.2 290.4,188.5 300.7,205.2 312.05,223.6 329.05,215.9 336.5,212.6 339.55,205.15 346.35,188.5 341,171 338,161.35 329,157.15Z M323.85,172.5 Q305.4,173.95 314.25,194.4 318.25,203.65 327.35,198.65 331.3,196.45 332.05,191.65 334.1,178.65 323.85,172.5Z M260.05,275.9 Q264.85,278.7 269.95,280.7 272,281.5 274.05,282.05 275.6,282.4 276.85,282.45 M224.05,234 L223.45,234 M268.15,292.65 L269.05,292.7 267.65,291.2 Q264.5,290.6 264.15,293.75 263.95,295.2 265.05,296.1 265.9,296.9 266.9,296.95 267.85,297.05 268.85,296.85 269.55,296.6 269.9,295.75 270.45,294.3 270.25,292.95 L269.05,292.7 M269.35,360.2 Q267.9,357.35 265.35,355.35 263.25,353.7 261.2,355.05 260.65,355.5 260.35,356.2 259.9,357.3 260.25,358.5 261.05,361.05 263.5,362.05 265.35,362.8 267.2,362.7 267.75,362.7 268.2,362.55 L268.45,360.2 M335.4,286.1 Q340.8,287.35 346.4,286.5 349.55,286.2 352.15,284.8 354.5,283.55 356.45,281.5 359.75,277.9 363.9,275.2 366.7,273.5 369.55,271.85 369.55,271.7 369.5,271.7 369.05,271.55 368.55,271.55 M362.35,293.85 L363,293.9 Q361.65,292.5 359.65,293.35 359.15,293.5 358.8,293.9 358.45,294.35 358.25,294.95 357.3,297.8 359.45,299.5 359.95,299.9 360.65,300.05 362.75,300.35 364.2,298.85 366.25,296.75 365.15,294.15 L363,293.9 M412.05,334.5 Q412.25,334.6 412.4,334.65 413,334.9 413.55,335.15" test="GrammarPoliceMan"/>
      <path id="Layer2_0_3_STROKES" stroke="#FEB7AE" stroke-width="2" stroke-linejoin="round" stroke-linecap="round" fill="none" d="M405.75,261.95 Q404.7,278.3 402.3,294.45 399.65,312.1 394.9,329.05 390.55,344.6 385.5,359.95 379.9,376.95 365.55,387.35 352.1,397.2 334.9,397.85 317.2,398.85 299.55,397.15 283.1,395.7 267.85,389.1 251.25,381.85 242.7,366.25 234.35,351.15 230.85,334 227.35,316.95 225.9,299.55 224.6,284.2 225.7,268.7 225.95,265 226.3,261.3" test="GrammarPoliceMan"/>
    </g>
    <g id="GrammarPoliceSpeechBubble">
      <path id="Layer3_0_1_STROKES" stroke="#FFF" stroke-width="2" stroke-linejoin="round" stroke-linecap="round" fill="none" d="M413.55,335.15 Q435.05,344.65 450.55,349.45 466.25,354.4 482.5,356.75 498.95,359.4 515.75,359.95 532.5,360.9 549.25,359.8 565.85,359.25 582.4,357.45 598.95,355.4 615.3,352.7 626.65,351.1 637.5,347.45 642.35,345.85 647.1,343.8 650.9,342.2 654.5,340.25 665.5,334.25 674.5,325.2 686.3,313.3 694.1,298.45 702.45,282.5 705.1,264.45 707.6,247.35 706.45,230.1 705.25,212.7 697.85,197 690.05,180.55 675.05,170.15 665,163.25 654.5,156.9 651.2,154.9 647.85,152.95 646.65,152.25 645.5,151.6 630.85,143.2 614.7,137.35 598.75,131.55 581.85,129.95 564.8,128.8 548.3,133 532.35,137.15 517.95,145.05 511.55,148.6 505.85,152.95 498.45,158.55 492.2,165.55 480.85,178.2 474.25,193.95 467.65,209.7 464.75,226.35 461.75,243.55 465.2,260.65 468.75,278 478.55,292.85 488.35,307.65 486.05,325.25 484.7,335.85 473.85,339.8 464.6,343.2 455,343.5 447.55,343.7 439.9,342.05 426.55,339.1 413.55,335.15Z" test="GrammarPoliceSpeechBubble"/>
    </g>
  </g>
</svg>