<?xml version="1.0" encoding="utf-8"?>
<svg id="EdithAnim08" image-rendering="inherit" baseProfile="basic" version="1.1" x="0px" y="0px" width="800" height="600" xmlns="http://www.w3.org/2000/svg" xmlns:xlink="http://www.w3.org/1999/xlink">
  <g id="German-Puddingf3r1" overflow="visible">
    <g id="German">
      <path id="Layer4_0_1_STROKES" stroke="#F60" stroke-width="2.456" stroke-linejoin="round" stroke-linecap="round" fill="none" d="M479.423,89.128 Q479.116,85.137 479.116,84.4 479.116,78.199 483.66,72.919 486.914,69.173 494.528,64.138 505.395,56.955 507.422,55.358 514.544,49.894 518.105,43 L518.412,43 Q514.176,59.165 512.334,64.323 508.158,75.743 503.676,78.997 500.238,81.576 488.756,85.874 480.283,89.005 480.037,92.505 L480.037,92.751 480.037,92.812 M480.037,92.751 Q477.888,88.269 489.861,78.015 495.94,72.796 503.185,66.901 M294.916,167.106 Q311.371,173.185 328.993,172.387 345.51,171.159 361.904,170.422 379.403,169.931 397.086,171.65 412.988,173.185 429.014,174.474 447.495,174.904 465.056,169.746 475.494,166.676 485.195,161.949 M488.94,189.517 Q472.792,193.078 456.214,193 441.171,194.92 426.312,194.982 415.506,195.043 404.515,194.982 L400.217,194.736 Q383.025,194.92 366.079,194.859 348.58,193.631 331.081,191.421 314.81,189.21 298.539,187.491 295.223,187.123 291.908,186.754" test="German"/>
      <path id="Layer4_0_2_STROKES" stroke="#0FF" stroke-width="2.456" stroke-linejoin="round" stroke-linecap="round" fill="none" d="M480.037,92.812 Q481.756,96.312 481.941,99.014 482.248,103.557 483.967,123.267 485.747,143.59 486.239,147.52 486.239,147.642 487.835,158.817 488.326,158.633 492.993,158.572 501.527,158.449 508.957,159.8 512.088,160.352 519.824,159.554 527.07,158.756 529.526,159.493 532.166,160.291 532.657,162.194 533.701,166.308 535.973,169.931 539.718,175.886 540.823,183.316 541.867,190.07 540.885,199.403 539.35,213.647 527.07,221.2 523.14,223.594 508.22,225.006 498.764,225.866 478.257,226.726 471.196,227.033 421.953,226.726 377.008,226.48 364.053,227.647 349.931,228.936 310.143,231.453 271.216,233.848 267.041,234.094 261.208,234.462 255.804,232.006 251.015,229.857 248.928,226.726 247.024,223.901 247.024,222.796 246.963,221.691 248.621,218.744 250.033,216.288 254.945,214.077 257.769,212.849 263.357,210.762 265.874,209.718 271.953,207.016 277.356,204.744 279.628,204.008 280.794,203.639 284.171,202.657 286.32,202.043 287.61,201.552 M288.838,211.99 Q288.96,201.859 291.969,176.93 295.837,144.45 300.811,133.091 305.538,122.284 305.661,116.82 305.109,110.373 305.723,103.312 306.582,93.917 309.161,88.269 310.266,85.69 315.547,77.831 319.906,71.322 321.441,69.971 323.59,68.068 327.52,68.314 330.344,68.498 334.642,68.559 338.203,68.866 341.335,70.463 342.747,71.199 347.229,72.98 350.176,74.208 352.694,75.989 355.272,77.831 356.439,80.041 357.667,82.251 358.158,82.62 358.465,82.067 358.834,81.515 L362.211,77.217 Q366.447,72.55 370.5,71.077 374.736,69.542 377.99,69.296 380.569,69.173 390.762,68.928 402.059,68.498 407.831,68.989 414.953,69.603 419.313,71.998 425.453,75.375 427.356,76.848 431.163,79.734 434.663,84.892 L441.417,94.654 444.057,92.567 Q447.434,90.049 450.934,87.962 453.083,86.672 456.828,82.681 459.407,79.918 461.986,79.98 467.819,80.041 468.064,80.102 471.011,80.532 473.038,82.743 476.108,86.12 478.502,90.049 479.362,91.461 480.037,92.751 M441.417,94.654 Q445.469,100.487 447.864,103.312 450.565,106.504 451.425,107.978 452.591,110.004 453.083,112.829 454.004,118.355 454.311,118.662 M487.835,158.817 Q488.081,160.475 488.326,162.378 489.861,173.615 489.923,176.071 L490.291,180.123 Q490.721,184.544 491.151,186.509 M525.78,172.816 Q519.272,189.272 500.422,194.061 483.414,198.543 465.915,200.569 449.828,202.78 434.294,207.139 418.392,211.744 402.059,213.893 385.113,216.533 367.982,218.805 351.588,220.954 334.765,222.059 317.634,223.103 300.872,225.805 282.759,228.629 264.646,226.848 259.673,226.48 254.761,225.498 M338.879,114.978 Q340.659,110.864 342.133,107.794 344.896,102.022 348.396,96.865 350.115,94.347 354.167,88.514 356.132,85.69 358.158,82.62" test="German"/>
      <path id="Layer4_0_3_STROKES" stroke="#FEB7AE" stroke-width="2.456" stroke-linejoin="round" stroke-linecap="round" fill="none" d="M384.867,401.961 Q384.929,402.207 385.051,402.514 407.34,404.479 422.505,403.926 445.162,403.128 458.854,396.497 472.301,389.988 482.186,374.086 490.659,360.455 498.15,336.939 504.29,317.782 506.808,303.169 507.913,296.906 510.43,274.925 512.088,260.557 512.211,252.391 512.272,248.277 511.658,238.085 M423.856,404.417 Q420.234,406.935 419.865,413.197 419.681,416.452 420.172,420.688 419.804,430.512 419.558,432.661 M275.268,234.401 Q273.917,253.128 280.426,294.818 286.873,336.447 292.706,344.736 298.477,353.025 305.416,364.876 313.336,373.963 320.581,380.103 341.396,397.663 368.596,400.795 377.254,401.777 385.051,402.514 386.586,408.224 387.262,411.601 387.937,415.531 387.937,419.767 387.937,422.407 387.262,425.293 386.586,428.24 385.788,428.67 L385.788,428.056" test="German"/>
      <path id="Layer4_0_4_STROKES" stroke="#FFF" stroke-width="2.456" stroke-linejoin="round" stroke-linecap="round" fill="none" d="M481.572,314.221 L325.985,332.763 Q326.66,338.289 328.072,345.535 329.546,352.903 337.466,363.279 345.448,373.717 355.027,380.594 L376.087,379.734 Q400.094,378.322 414.646,375.621 435.522,371.752 446.636,369.235 461.617,365.858 466.222,363.341 471.073,360.7 472.424,359.657 472.561,359.296 472.7,358.951 474.089,355.152 474.818,351.675 477.888,341.114 479.73,334.667 483.169,322.571 482.8,316.677 482.493,311.642 483.353,306.3 484.028,302.186 483.414,300.099 482.677,297.52 481.634,297.827 473.099,300.099 472.976,300.099 459.652,302.555 450.872,304.09 434.724,306.914 425.084,308.081 408.69,310.23 400.279,311.335 385.297,313.238 377.806,313.607 371.85,313.914 361.904,315.387 353.062,316.677 348.334,316.677 340.536,316.37 337.896,316.308 333.782,316.185 331.142,317.291 328.441,318.457 327.09,319.194 L326.23,319.747 Q325.186,324.966 325.985,332.763 M443.197,260.127 Q442.583,257.057 442.583,256.627 442.583,249.075 449.03,246.005 453.635,243.856 461.924,243.856 466.959,243.856 470.336,249.505 471.994,252.391 472.976,255.522 M355.027,380.594 Q360.369,384.339 364.912,386.059 375.719,390.234 391.376,390.234 402.796,390.234 418.33,387.901 435.338,385.383 444.794,383.296 459.284,380.103 462.538,376.849 466.161,373.226 469.845,365.674 471.318,362.604 472.424,359.657 M386.095,420.688 Q380,422.162 378.175,425.048 375.964,427.197 375.964,428.854 375.964,434.81 408.506,438.801 415.874,438.801 420.97,437.819 426.005,436.775 441.048,427.749 440.987,426.214 437.241,424.434 433.496,422.592 430.549,421.916 427.602,421.179 421.4,422.223 M441.355,428.67 Q442.522,430.942 444.18,435.731 446.267,441.933 446.267,444.941 446.574,444.941 446.881,444.327 M328.686,255.829 Q329.73,248.83 335.01,244.532 340.045,240.479 346.676,240.479 350.422,240.479 352.694,244.347 354.658,247.724 355.088,252.759 L354.474,252.452 M375.964,427.442 Q375.596,430.082 374.675,435.547 373.631,442.178 373.201,443.406 L373.201,445.862 373.508,445.862" test="German"/>
    </g>
    <g id="German-Pudding">
      <path fill="#000" stroke="none" d="M-37.079,402.515 Q-42.977,390.551 -51.334,380.239 -59.961,369.253 -70.139,359.817 -80.485,350.145 -91.302,340.742 -101.075,331.643 -110.646,322.477 -120.116,313.951 -130.327,306.368 -141.212,298.314 -153.445,292.754 -165.308,287.227 -177.911,284.463 -191.391,281.498 -205.242,279.712 L-205.882,279.745 Q-205.95,279.88 -206.354,280.285 -206.691,280.756 -206.388,281.262 -204.871,283.789 -170.666,327.768 -167.095,332.355 -157.86,342.798 -155.788,345.145 -153.445,347.752 -146.067,356.036 -135.921,367.163 -108.489,397.224 -101.952,403.222 -95.818,408.884 -89.247,414.579 -85.304,417.983 -81.226,421.454 -67.443,433.013 -60.164,437.596 -59.287,438.135 -58.479,438.607 -49.851,443.595 -41.292,447.774 -32.327,452.222 -28.149,453.435 -25.284,454.278 -22.116,455.087 -20.263,455.727 -19.387,457.479 L-17.331,456.097 Q-14.332,441.91 -22.318,429.609 -24.037,426.88 -25.722,424.184 L-26.093,423.543 Q-31.822,413.096 -37.079,402.515Z" test="German Pudding" vector-effect="non-scaling-stroke" stroke-width="1"/>
      <path id="Layer3_0_1_STROKES" stroke="#FFF" stroke-width="1.906" stroke-linejoin="round" stroke-linecap="round" fill="none" d="M-205.242,279.712 Q-191.391,281.498 -177.911,284.463 -165.308,287.227 -153.445,292.754 -141.212,298.314 -130.327,306.368 -120.116,313.951 -110.646,322.477 -101.075,331.643 -91.302,340.742 -80.485,350.145 -70.139,359.817 -59.961,369.253 -51.334,380.239 -42.977,390.551 -37.079,402.515 -31.822,413.096 -26.093,423.543 M-25.722,424.184 Q-24.037,426.88 -22.318,429.609 -14.332,441.91 -17.331,456.097" test="German Pudding"/>
      <path id="Layer2_0_1_STROKES" stroke="#FFF" stroke-width="1.906" stroke-linejoin="round" stroke-linecap="round" fill="none" d="M-60.804,403.593 Q-56.322,401.739 -54.536,401.706 -51.907,401.638 -45.133,403.761 -38.798,405.649 -37.854,406.053 -34.956,407.199 -32.9,409.254 -28.519,413.636 -30.002,424.015 -30.725,429.202 -32.243,435.119 -32.287,435.282 -32.327,435.439 M-193.683,288.238 Q-184.078,284.227 -173.463,285.137 -168.678,285.542 -164.718,287.918 -164.396,288.121 -164.583,288.052 -160.891,292.231 -160.758,298.988 -160.59,305.694 -166.521,309.536 -167.565,314.76 -163.757,318.298 L-163.521,318.399 Q-156.343,322.949 -147.244,321.331 -144.885,320.927 -142.392,321.264 -129.821,322.713 -124.059,333.531 -119.88,341.551 -117.454,349.976 -103.67,345.225 -89.718,347.92 -85.641,348.696 -83.956,352.47 -81.563,357.963 -82.507,363.894 -83.417,369.59 -85.034,375.049 -86.348,379.329 -89.348,382.8 -77.755,379.497 -69.296,388.293 -66.263,391.461 -64.073,395.673 -59.018,405.446 -62.219,415.86 -63.365,419.567 -64.342,423.307 L-64.511,422.802 M-89.348,382.8 L-96.964,392.169 -96.694,391.292 M-164.583,288.052 Q-164.667,288.038 -164.836,287.968 -164.802,287.934 -164.718,287.918 M-163.757,318.298 Q-163.69,318.366 -163.589,318.467 -163.555,318.433 -163.521,318.399" test="German Pudding"/>
      <path fill="#000" stroke="none" d="M-116.78,542.74 Q-113.14,545.234 -107.714,547.357 -101.749,549.615 -98.919,549.143 -96.897,548.806 -94.605,546.11 -91.505,542.403 -87.798,540.044 -84.259,537.786 -73.441,527.845 -78.53,525.789 -85.439,522.857 -116.207,509.815 -160.488,472.274 -174.339,460.512 -187.853,447.74 L-198.637,437.293 Q-222.665,414.613 -242.144,383.339 -251.984,367.568 -267.756,336.092 -270.249,339.192 -271.429,340.911 -273.788,344.281 -280.696,353.481 -286.358,361.704 -285.92,365.512 -285.145,372.757 -283.527,380.643 -281.134,392.405 -277.832,400.56 -274.597,408.581 -268.665,417.006 -265.026,422.128 -255.927,433.923 -248.782,443.494 -231.326,461.557 -214.442,478.98 -202.715,489.157 -192.537,497.987 -176.9,509.512 -163.96,519.015 -156.883,523.531 -152.973,526.025 -135.719,533.776 -118.802,541.325 -116.78,542.74 M-206.388,281.262 Q-206.691,280.756 -206.354,280.285 -205.95,279.88 -205.882,279.745 -205.781,279.442 -210.432,279.24 -214.476,279.24 -216.498,280.318 -218.52,281.464 -222.564,285.98 -224.35,287.968 -233.415,296.359 -241.571,303.841 -245.817,309.233 -248.445,312.603 -259.634,326.083 -264.689,332.216 -267.756,336.092 -251.984,367.568 -242.144,383.339 -222.665,414.613 -198.637,437.293 L-187.853,447.74 Q-174.339,460.512 -160.488,472.274 -116.207,509.815 -85.439,522.857 -78.53,525.789 -73.441,527.845 -71.655,526.194 -69.667,524.407 L-69.937,524.205 -69.667,524.407 Q-68.791,523.531 -67.847,522.655 -45.268,501.424 -43.651,499.941 -35.158,492.325 -28.351,481.474 -24.239,474.868 -21.409,468.263 -19.589,464.017 -19.117,462.13 -18.477,459.333 -19.387,457.479 -20.263,455.727 -22.116,455.087 -25.284,454.278 -28.149,453.435 -32.327,452.222 -41.292,447.774 -49.851,443.595 -58.479,438.607 -59.287,438.135 -60.164,437.596 -67.443,433.013 -81.226,421.454 -85.304,417.983 -89.247,414.579 -95.818,408.884 -101.952,403.222 -108.489,397.224 -135.921,367.163 -146.067,356.036 -153.445,347.752 -155.788,345.145 -157.86,342.798 -167.095,332.355 -170.666,327.768 -204.871,283.789 -206.388,281.262 M-96.627,477.564 Q-71.554,492.797 -46.313,501.929 -71.554,492.797 -96.627,477.564 -121.7,462.332 -139.864,446.122 -158.028,429.913 -196.244,386.237 -225.968,346.134 -226.608,345.225 -231.494,338.653 -238.133,326.15 -245.648,311.963 -244.806,308.828 -245.648,311.963 -238.133,326.15 -231.494,338.653 -226.608,345.225 -225.968,346.134 -196.244,386.237 -158.028,429.913 -139.864,446.122 -121.7,462.332 -96.627,477.564Z" test="German Pudding" vector-effect="non-scaling-stroke" stroke-width="1"/>
      <path id="Layer1_0_1_STROKES" stroke="#F60" stroke-width="1.906" stroke-linejoin="round" stroke-linecap="round" fill="none" d="M-69.667,524.407 Q-71.655,526.194 -73.441,527.845 -84.259,537.786 -87.798,540.044 -91.505,542.403 -94.605,546.11 -96.897,548.806 -98.919,549.143 -101.749,549.615 -107.714,547.357 -113.14,545.234 -116.78,542.74 -118.802,541.325 -135.719,533.776 -152.973,526.025 -156.883,523.531 -163.96,519.015 -176.9,509.512 -192.537,497.987 -202.715,489.157 -214.442,478.98 -231.326,461.557 -248.782,443.494 -255.927,433.923 -265.026,422.128 -268.665,417.006 -274.597,408.581 -277.832,400.56 -281.134,392.405 -283.527,380.643 -285.145,372.757 -285.92,365.512 -286.358,361.704 -280.696,353.481 -273.788,344.281 -271.429,340.911 -270.249,339.192 -267.756,336.092 -264.689,332.216 -259.634,326.083 -248.445,312.603 -245.817,309.233 -241.571,303.841 -233.415,296.359 -224.35,287.968 -222.564,285.98 -218.52,281.464 -216.498,280.318 -214.476,279.24 -210.432,279.24 -205.781,279.442 -205.882,279.745 -205.95,279.88 -206.354,280.285 -206.691,280.756 -206.388,281.262 -204.871,283.789 -170.666,327.768 -167.095,332.355 -157.86,342.798 -155.788,345.145 -153.445,347.786 -146.067,356.036 -135.921,367.163 -108.489,397.224 -101.952,403.222 -95.818,408.884 -89.247,414.579 -85.304,417.983 -81.226,421.454 -67.443,433.013 -60.164,437.596 -59.287,438.135 -58.479,438.607 -49.851,443.595 -41.292,447.774 -32.327,452.222 -28.149,453.435 -25.284,454.278 -22.116,455.087 -20.263,455.727 -19.387,457.479 -18.477,459.333 -19.117,462.13 -19.589,464.017 -21.409,468.263 -24.239,474.868 -28.351,481.474 -35.158,492.325 -43.651,499.941 -45.268,501.424 -67.847,522.655 -68.791,523.531 -69.667,524.407 L-69.937,524.205" test="German Pudding"/>
      <path id="Layer1_0_2_STROKES" stroke="#F00" stroke-width="1.906" stroke-linejoin="round" stroke-linecap="round" fill="none" d="M-267.756,336.092 Q-251.984,367.568 -242.144,383.339 -222.665,414.613 -198.637,437.293 L-187.853,447.74 Q-174.339,460.512 -160.488,472.274 -116.207,509.815 -85.439,522.857 -78.53,525.789 -73.441,527.845 M-244.806,308.828 Q-245.648,311.963 -238.133,326.15 -231.494,338.653 -226.608,345.225 -225.968,346.134 -196.244,386.237 -158.028,429.913 -139.864,446.122 -121.7,462.332 -96.627,477.564 -71.554,492.797 -46.313,501.929" test="German Pudding"/>
      <g id="Cherry1">
        <path fill="#000" stroke="none" d="M-163.762,299.013 Q-158.437,299.013 -154.663,295.238 -150.889,291.464 -150.889,286.139 -150.889,280.815 -154.663,277.04 -158.437,273.266 -163.762,273.266 -169.087,273.266 -172.861,277.04 -176.635,280.815 -176.635,286.139 -176.635,291.464 -172.861,295.238 -169.087,299.013 -163.762,299.013Z" test="Cherry1" vector-effect="non-scaling-stroke" stroke-width="1"/>
        <path id="Layer5_0_1_STROKES" stroke="#0F0" stroke-width="1.906" stroke-linejoin="round" stroke-linecap="round" fill="none" d="M-151.293,281.691 Q-145.8,277.816 -136.802,279.197 -136.701,279.231 -136.633,279.231 -130.365,280.242 -128.411,281.725 -128.208,281.86 -128.04,282.028" test="Cherry1"/>
        <path id="Layer5_0_2_STROKES" stroke="#F00" stroke-width="1.906" stroke-linejoin="round" stroke-linecap="round" fill="none" d="M-154.663,295.238 Q-158.437,299.013 -163.762,299.013 -169.087,299.013 -172.861,295.238 -176.635,291.464 -176.635,286.139 -176.635,280.815 -172.861,277.04 -169.087,273.266 -163.762,273.266 -158.437,273.266 -154.663,277.04 -150.889,280.815 -150.889,286.139 -150.889,291.464 -154.663,295.238Z" test="Cherry1"/>
      </g>
      <g id="Cherry2">
        <path fill="#000" stroke="none" d="M-118.747,318.993 Q-119.792,317.275 -121.308,315.758 -126.262,310.804 -133.272,310.804 -140.281,310.804 -145.235,315.758 -150.189,320.712 -150.189,327.722 -150.189,334.731 -145.235,339.685 -140.281,344.639 -133.272,344.639 -126.262,344.639 -121.308,339.685 -116.354,334.731 -116.354,327.722 -116.354,322.869 -118.747,318.993 -118.916,319.095 -119.118,319.229 -118.916,319.095 -118.747,318.993Z" test="Cherry2" vector-effect="non-scaling-stroke" stroke-width="1"/>
        <path id="Layer6_0_1_STROKES" stroke="#F00" stroke-width="1.906" stroke-linejoin="round" stroke-linecap="round" fill="none" d="M-118.747,318.993 Q-116.354,322.869 -116.354,327.722 -116.354,334.731 -121.308,339.685 -126.262,344.639 -133.272,344.639 -140.281,344.639 -145.235,339.685 -150.189,334.731 -150.189,327.722 -150.189,320.712 -145.235,315.758 -140.281,310.804 -133.272,310.804 -126.262,310.804 -121.308,315.758 -119.792,317.275 -118.747,318.993 -118.916,319.095 -119.118,319.229" test="Cherry2"/>
        <path id="Layer6_0_2_STROKES" stroke="#0F0" stroke-width="1.906" stroke-linejoin="round" stroke-linecap="round" fill="none" d="M-118.747,318.993 Q-108.401,312.22 -102.032,310.771 -96.808,310.467 -94.854,309.793" test="Cherry2"/>
      </g>
      <g id="Cherry3">
        <path fill="#000" stroke="none" d="M-70.177,348.603 Q-70.177,341.93 -74.929,337.179 -75.266,336.842 -75.636,336.538 -75.636,336.606 -75.67,336.707 -76.243,338.223 -77.625,339.133 -76.243,338.223 -75.67,336.707 -75.636,336.606 -75.636,336.538 -80.152,332.427 -86.387,332.393 -93.093,332.427 -97.845,337.179 -102.596,341.93 -102.596,348.603 -102.596,355.343 -97.845,360.095 -93.093,364.846 -86.387,364.813 -79.68,364.846 -74.929,360.095 -70.177,355.343 -70.177,348.603Z" test="Cherry3" vector-effect="non-scaling-stroke" stroke-width="1"/>
        <path id="Layer7_0_1_STROKES" stroke="#0F0" stroke-width="1.906" stroke-linejoin="round" stroke-linecap="round" fill="none" d="M-75.636,336.538 Q-75.198,335.022 -74.828,334.314 -73.412,331.753 -65.493,331.719 -62.123,331.719 -57.54,332.393 -55.248,332.73 -53.361,333.067 M-77.625,339.133 Q-76.243,338.223 -75.67,336.707 -75.636,336.606 -75.636,336.538" test="Cherry3"/>
        <path id="Layer7_0_2_STROKES" stroke="#F00" stroke-width="1.906" stroke-linejoin="round" stroke-linecap="round" fill="none" d="M-75.636,336.538 Q-75.266,336.842 -74.929,337.179 -70.177,341.93 -70.177,348.603 -70.177,355.343 -74.929,360.095 -79.68,364.846 -86.387,364.813 -93.093,364.846 -97.845,360.095 -102.596,355.343 -102.596,348.603 -102.596,341.93 -97.845,337.179 -93.093,332.427 -86.387,332.393 -80.152,332.427 -75.636,336.538Z" test="Cherry3"/>
      </g>
      <g id="Cherry4">
        <path fill="#000" stroke="none" d="M-51.263,391.087 Q-51.263,386.167 -53.891,382.325 -56.655,384.414 -58.104,384.987 -56.655,384.414 -53.891,382.325 -54.768,380.977 -55.947,379.797 -60.631,375.113 -67.237,375.113 -73.842,375.113 -78.526,379.797 -83.21,384.482 -83.21,391.087 -83.21,397.692 -78.526,402.376 -73.842,407.061 -67.237,407.061 -60.631,407.061 -55.947,402.376 -51.263,397.692 -51.263,391.087Z" test="Cherry4" vector-effect="non-scaling-stroke" stroke-width="1"/>
        <path id="Layer8_0_1_STROKES" stroke="#0F0" stroke-width="1.906" stroke-linejoin="round" stroke-linecap="round" fill="none" d="M-53.891,382.325 Q-53.521,382.021 -53.15,381.718 -49.814,379.056 -45.972,377.573 -43.31,376.528 -39.367,376.427 -35.963,376.326 -33.166,376.899 M-58.104,384.987 Q-56.655,384.414 -53.891,382.325" test="Cherry4"/>
        <path id="Layer8_0_2_STROKES" stroke="#F00" stroke-width="1.906" stroke-linejoin="round" stroke-linecap="round" fill="none" d="M-53.891,382.325 Q-51.263,386.167 -51.263,391.087 -51.263,397.692 -55.947,402.376 -60.631,407.061 -67.237,407.061 -73.842,407.061 -78.526,402.376 -83.21,397.692 -83.21,391.087 -83.21,384.482 -78.526,379.797 -73.842,375.113 -67.237,375.113 -60.631,375.113 -55.947,379.797 -54.768,380.977 -53.891,382.325Z" test="Cherry4"/>
      </g>
      <g id="Cherry5">
        <path fill="#000" stroke="none" d="M-16.343,404.21 Q-16.343,399.492 -19.039,395.988 -19.848,396.257 -20.354,396.426 -19.848,396.257 -19.039,395.988 -19.646,395.179 -20.387,394.437 -24.431,390.393 -30.16,390.393 -35.889,390.393 -39.933,394.437 -43.977,398.481 -43.977,404.21 -43.977,409.939 -39.933,413.983 -35.889,418.027 -30.16,418.027 -24.431,418.027 -20.387,413.983 -16.343,409.939 -16.343,404.21Z" test="Cherry5" vector-effect="non-scaling-stroke" stroke-width="1"/>
        <path id="Layer9_0_1_STROKES" stroke="#0F0" stroke-width="1.906" stroke-linejoin="round" stroke-linecap="round" fill="none" d="M-19.039,395.988 Q-16.613,395.044 -11.558,393.022 -5.627,391.472 -3.504,395.752 M-20.354,396.426 Q-19.848,396.257 -19.039,395.988" test="Cherry5"/>
        <path id="Layer9_0_2_STROKES" stroke="#F00" stroke-width="1.906" stroke-linejoin="round" stroke-linecap="round" fill="none" d="M-19.039,395.988 Q-16.343,399.492 -16.343,404.21 -16.343,409.939 -20.387,413.983 -24.431,418.027 -30.16,418.027 -35.889,418.027 -39.933,413.983 -43.977,409.939 -43.977,404.21 -43.977,398.481 -39.933,394.437 -35.889,390.393 -30.16,390.393 -24.431,390.393 -20.387,394.437 -19.646,395.179 -19.039,395.988Z" test="Cherry5"/>
      </g>
    </g>
  </g>
</svg>