<?xml version="1.0" encoding="utf-8"?>
<svg id="EdithAnim08" image-rendering="inherit" baseProfile="basic" version="1.1" x="0px" y="0px" width="800" height="600" xmlns="http://www.w3.org/2000/svg" xmlns:xlink="http://www.w3.org/1999/xlink">
  <g id="German-Puddingf61r1" overflow="visible">
    <g id="German">
      <path id="Layer4_0_1_STROKES" stroke="#F60" stroke-width="2.456" stroke-linejoin="round" stroke-linecap="round" fill="none" d="M479.423,89.128 Q479.116,85.137 479.116,84.4 479.116,78.199 483.66,72.919 486.914,69.173 494.528,64.138 505.395,56.955 507.422,55.358 514.544,49.894 518.105,43 L518.412,43 Q514.176,59.165 512.334,64.323 508.158,75.743 503.676,78.997 500.238,81.576 488.756,85.874 480.283,89.005 480.037,92.505 L480.037,92.751 480.037,92.812 M480.037,92.751 Q477.888,88.269 489.861,78.015 495.94,72.796 503.185,66.901 M294.916,167.106 Q311.371,173.185 328.993,172.387 345.51,171.159 361.904,170.422 379.403,169.931 397.086,171.65 412.988,173.185 429.014,174.474 447.495,174.904 465.056,169.746 475.494,166.676 485.195,161.949 M488.94,189.517 Q472.792,193.078 456.214,193 441.171,194.92 426.312,194.982 415.506,195.043 404.515,194.982 L400.217,194.736 Q383.025,194.92 366.079,194.859 348.58,193.631 331.081,191.421 314.81,189.21 298.539,187.491 295.223,187.123 291.908,186.754" test="German"/>
      <path id="Layer4_0_2_STROKES" stroke="#0FF" stroke-width="2.456" stroke-linejoin="round" stroke-linecap="round" fill="none" d="M480.037,92.812 Q481.756,96.312 481.941,99.014 482.248,103.557 483.967,123.267 485.747,143.59 486.239,147.52 486.239,147.642 487.835,158.817 488.326,158.633 492.993,158.572 501.527,158.449 508.957,159.8 512.088,160.352 519.824,159.554 527.07,158.756 529.526,159.493 532.166,160.291 532.657,162.194 533.701,166.308 535.973,169.931 539.718,175.886 540.823,183.316 541.867,190.07 540.885,199.403 539.35,213.647 527.07,221.2 523.14,223.594 508.22,225.006 498.764,225.866 478.257,226.726 471.196,227.033 421.953,226.726 377.008,226.48 364.053,227.647 349.931,228.936 310.143,231.453 271.216,233.848 267.041,234.094 261.208,234.462 255.804,232.006 251.015,229.857 248.928,226.726 247.024,223.901 247.024,222.796 246.963,221.691 248.621,218.744 250.033,216.288 254.945,214.077 257.769,212.849 263.357,210.762 265.874,209.718 271.953,207.016 277.356,204.744 279.628,204.008 280.794,203.639 284.171,202.657 286.32,202.043 287.61,201.552 M288.838,211.99 Q288.96,201.859 291.969,176.93 295.837,144.45 300.811,133.091 305.538,122.284 305.661,116.82 305.109,110.373 305.723,103.312 306.582,93.917 309.161,88.269 310.266,85.69 315.547,77.831 319.906,71.322 321.441,69.971 323.59,68.068 327.52,68.314 330.344,68.498 334.642,68.559 338.203,68.866 341.335,70.463 342.747,71.199 347.229,72.98 350.176,74.208 352.694,75.989 355.272,77.831 356.439,80.041 357.667,82.251 358.158,82.62 358.465,82.067 358.834,81.515 L362.211,77.217 Q366.447,72.55 370.5,71.077 374.736,69.542 377.99,69.296 380.569,69.173 390.762,68.928 402.059,68.498 407.831,68.989 414.953,69.603 419.313,71.998 425.453,75.375 427.356,76.848 431.163,79.734 434.663,84.892 L441.417,94.654 444.057,92.567 Q447.434,90.049 450.934,87.962 453.083,86.672 456.828,82.681 459.407,79.918 461.986,79.98 467.819,80.041 468.064,80.102 471.011,80.532 473.038,82.743 476.108,86.12 478.502,90.049 479.362,91.461 480.037,92.751 M441.417,94.654 Q445.469,100.487 447.864,103.312 450.565,106.504 451.425,107.978 452.591,110.004 453.083,112.829 454.004,118.355 454.311,118.662 M487.835,158.817 Q488.081,160.475 488.326,162.378 489.861,173.615 489.923,176.071 L490.291,180.123 Q490.721,184.544 491.151,186.509 M525.78,172.816 Q519.272,189.272 500.422,194.061 483.414,198.543 465.915,200.569 449.828,202.78 434.294,207.139 418.392,211.744 402.059,213.893 385.113,216.533 367.982,218.805 351.588,220.954 334.765,222.059 317.634,223.103 300.872,225.805 282.759,228.629 264.646,226.848 259.673,226.48 254.761,225.498 M338.879,114.978 Q340.659,110.864 342.133,107.794 344.896,102.022 348.396,96.865 350.115,94.347 354.167,88.514 356.132,85.69 358.158,82.62" test="German"/>
      <path id="Layer4_0_3_STROKES" stroke="#FEB7AE" stroke-width="2.456" stroke-linejoin="round" stroke-linecap="round" fill="none" d="M384.867,401.961 Q384.929,402.207 385.051,402.514 407.34,404.479 422.505,403.926 445.162,403.128 458.854,396.497 472.301,389.988 482.186,374.086 490.659,360.455 498.15,336.939 504.29,317.782 506.808,303.169 507.913,296.906 510.43,274.925 512.088,260.557 512.211,252.391 512.272,248.277 511.658,238.085 M423.856,404.417 Q420.234,406.935 419.865,413.197 419.681,416.452 420.172,420.688 419.804,430.512 419.558,432.661 M275.268,234.401 Q273.917,253.128 280.426,294.818 286.873,336.447 292.706,344.736 298.477,353.025 305.416,364.876 313.336,373.963 320.581,380.103 341.396,397.663 368.596,400.795 377.254,401.777 385.051,402.514 386.586,408.224 387.262,411.601 387.937,415.531 387.937,419.767 387.937,422.407 387.262,425.293 386.586,428.24 385.788,428.67 L385.788,428.056" test="German"/>
      <path id="Layer4_0_4_STROKES" stroke="#FFF" stroke-width="2.456" stroke-linejoin="round" stroke-linecap="round" fill="none" d="M481.572,314.221 L325.985,332.763 Q326.66,338.289 328.072,345.535 329.546,352.903 337.466,363.279 345.448,373.717 355.027,380.594 L376.087,379.734 Q400.094,378.322 414.646,375.621 435.522,371.752 446.636,369.235 461.617,365.858 466.222,363.341 471.073,360.7 472.424,359.657 472.561,359.296 472.7,358.951 474.089,355.152 474.818,351.675 477.888,341.114 479.73,334.667 483.169,322.571 482.8,316.677 482.493,311.642 483.353,306.3 484.028,302.186 483.414,300.099 482.677,297.52 481.634,297.827 473.099,300.099 472.976,300.099 459.652,302.555 450.872,304.09 434.724,306.914 425.084,308.081 408.69,310.23 400.279,311.335 385.297,313.238 377.806,313.607 371.85,313.914 361.904,315.387 353.062,316.677 348.334,316.677 340.536,316.37 337.896,316.308 333.782,316.185 331.142,317.291 328.441,318.457 327.09,319.194 L326.23,319.747 Q325.186,324.966 325.985,332.763 M443.197,260.127 Q442.583,257.057 442.583,256.627 442.583,249.075 449.03,246.005 453.635,243.856 461.924,243.856 466.959,243.856 470.336,249.505 471.994,252.391 472.976,255.522 M355.027,380.594 Q360.369,384.339 364.912,386.059 375.719,390.234 391.376,390.234 402.796,390.234 418.33,387.901 435.338,385.383 444.794,383.296 459.284,380.103 462.538,376.849 466.161,373.226 469.845,365.674 471.318,362.604 472.424,359.657 M386.095,420.688 Q380,422.162 378.175,425.048 375.964,427.197 375.964,428.854 375.964,434.81 408.506,438.801 415.874,438.801 420.97,437.819 426.005,436.775 441.048,427.749 440.987,426.214 437.241,424.434 433.496,422.592 430.549,421.916 427.602,421.179 421.4,422.223 M441.355,428.67 Q442.522,430.942 444.18,435.731 446.267,441.933 446.267,444.941 446.574,444.941 446.881,444.327 M328.686,255.829 Q329.73,248.83 335.01,244.532 340.045,240.479 346.676,240.479 350.422,240.479 352.694,244.347 354.658,247.724 355.088,252.759 L354.474,252.452 M375.964,427.442 Q375.596,430.082 374.675,435.547 373.631,442.178 373.201,443.406 L373.201,445.862 373.508,445.862" test="German"/>
    </g>
    <g id="German-Pudding">
      <path fill="#000" stroke="none" d="M158.924,370.867 Q155.577,357.966 149.487,346.183 143.271,333.686 135.223,322.392 127.059,310.833 118.378,299.442 110.658,288.56 103.149,277.652 95.61,267.392 87.154,257.904 78.135,247.819 67.291,239.901 56.803,232.09 45.03,226.834 32.441,221.202 19.249,216.649 L18.616,216.553 Q18.523,216.671 18.045,216.985 17.62,217.378 17.814,217.934 18.786,220.714 43.349,270.674 45.914,275.886 52.836,287.974 54.388,290.69 56.152,293.716 61.694,303.316 69.368,316.258 90.122,351.228 95.304,358.421 100.159,365.203 105.436,372.107 108.605,376.236 111.892,380.458 123.037,394.56 129.232,400.519 129.98,401.224 130.676,401.849 138.107,408.477 145.637,414.299 153.507,420.467 157.35,422.501 159.983,423.905 162.918,425.338 164.602,426.34 165.105,428.232 L167.396,427.297 Q173.204,414.022 167.88,400.368 166.751,397.349 165.649,394.37 L165.416,393.668 Q161.926,382.286 158.924,370.867Z" test="German Pudding" vector-effect="non-scaling-stroke" stroke-width="1"/>
      <path id="Layer3_0_1_STROKES" stroke="#FFF" stroke-width="1.905" stroke-linejoin="round" stroke-linecap="round" fill="none" d="M19.249,216.649 Q32.441,221.202 45.03,226.834 56.803,232.09 67.291,239.901 78.135,247.819 87.154,257.904 95.61,267.392 103.149,277.652 110.658,288.56 118.378,299.442 127.059,310.833 135.223,322.392 143.271,333.686 149.487,346.183 155.577,357.966 158.924,370.867 161.926,382.286 165.416,393.668 M165.649,394.37 Q166.751,397.349 167.88,400.368 173.204,414.022 167.396,427.297" test="German Pudding"/>
      <path id="Layer2_0_1_STROKES" stroke="#FFF" stroke-width="1.905" stroke-linejoin="round" stroke-linecap="round" fill="none" d="M135.492,367.117 Q140.253,366.211 142.007,366.54 144.593,367.007 150.791,370.456 156.608,373.585 157.449,374.172 160.053,375.88 161.648,378.308 165.048,383.482 161.495,393.338 159.737,398.267 157.053,403.75 156.977,403.9 156.906,404.046 M28.833,227.333 Q39.043,225.354 49.246,228.394 53.847,229.759 57.24,232.886 57.514,233.149 57.345,233.045 60.111,237.882 58.873,244.52 57.679,251.116 51.098,253.674 49.018,258.574 52.027,262.807 L52.237,262.954 Q58.34,268.859 67.571,269.119 69.961,269.201 72.333,270.036 84.339,274 87.787,285.752 90.251,294.446 90.919,303.181 105.368,301.323 118.474,306.787 122.307,308.371 123.191,312.405 124.42,318.265 122.296,323.877 120.252,329.266 117.563,334.28 115.411,338.202 111.773,340.991 123.785,340.107 130.281,350.427 132.607,354.141 133.897,358.706 136.864,369.293 131.622,378.834 129.75,382.229 128.037,385.691 L127.974,385.162 M111.773,340.991 L102.423,348.616 102.864,347.813 M57.345,233.045 Q57.265,233.014 57.114,232.911 57.154,232.885 57.24,232.886 M52.027,262.807 Q52.079,262.887 52.158,263.006 52.198,262.98 52.237,262.954" test="German Pudding"/>
      <path fill="#000" stroke="none" d="M52.54,491.935 Q55.596,495.112 60.475,498.288 65.854,501.706 68.72,501.817 70.767,501.897 73.555,499.723 77.339,496.724 81.444,495.166 85.364,493.674 97.962,486.137 93.399,483.095 87.233,478.827 59.768,459.834 24.042,414.132 12.871,399.819 2.235,384.584 L-6.201,372.178 Q-25.119,345.12 -37.845,310.574 -44.28,293.149 -53.337,259.156 -56.405,261.685 -57.908,263.128 -60.898,265.947 -69.521,273.55 -76.727,280.45 -77.069,284.265 -77.778,291.511 -77.792,299.555 -77.833,311.548 -76.253,320.197 -74.712,328.7 -70.614,338.145 -68.091,343.894 -61.576,357.278 -56.524,368.09 -43.101,389.3 -30.109,409.767 -20.695,422.101 -12.524,432.801 .442,447.246 11.18,459.165 17.19,465.017 20.51,468.249 35.823,479.328 50.848,490.14 52.54,491.935 M17.814,217.934 Q17.62,217.378 18.045,216.985 18.523,216.671 18.616,216.553 18.777,216.276 14.267,215.137 10.31,214.318 8.113,214.963 5.902,215.675 1.031,219.275 -1.119,220.858 -11.689,227.233 -21.184,232.902 -26.431,237.318 -29.686,240.083 -43.363,251.007 -49.552,255.985 -53.337,259.156 -44.28,293.149 -37.845,310.574 -25.119,345.12 -6.201,372.178 L2.235,384.584 Q12.871,399.819 24.042,414.132 59.768,459.834 87.233,478.827 93.399,483.095 97.962,486.137 100.044,484.883 102.352,483.538 L102.129,483.285 102.352,483.538 Q103.386,482.858 104.487,482.192 130.88,465.99 132.763,464.867 142.615,459.134 151.474,449.895 156.835,444.265 160.942,438.375 163.583,434.588 164.427,432.837 165.62,430.23 165.105,428.232 164.602,426.34 162.918,425.338 159.983,423.905 157.35,422.501 153.507,420.467 145.637,414.299 138.107,408.477 130.676,401.849 129.98,401.224 129.232,400.519 123.037,394.56 111.892,380.458 108.605,376.236 105.436,372.107 100.159,365.203 95.304,358.421 90.122,351.228 69.368,316.258 61.694,303.316 56.152,293.716 54.388,290.69 52.836,287.974 45.914,275.886 43.349,270.674 18.786,220.714 17.814,217.934 M85.458,432.242 Q106.907,452.225 129.756,466.273 106.907,452.225 85.458,432.242 64.01,412.26 49.519,392.72 35.028,373.181 6.48,322.706 -14.482,277.446 -14.924,276.426 -18.375,269.006 -22.339,255.428 -26.819,240.023 -25.36,237.127 -26.819,240.023 -22.339,255.428 -18.375,269.006 -14.924,276.426 -14.482,277.446 6.48,322.706 35.028,373.181 49.519,392.72 64.01,412.26 85.458,432.242Z" test="German Pudding" vector-effect="non-scaling-stroke" stroke-width="1"/>
      <path id="Layer1_0_1_STROKES" stroke="#F60" stroke-width="1.905" stroke-linejoin="round" stroke-linecap="round" fill="none" d="M102.352,483.538 Q100.044,484.883 97.962,486.137 85.364,493.674 81.444,495.166 77.339,496.724 73.555,499.723 70.767,501.897 68.72,501.817 65.854,501.706 60.475,498.288 55.596,495.112 52.54,491.935 50.848,490.14 35.823,479.328 20.51,468.249 17.19,465.017 11.18,459.165 .442,447.246 -12.524,432.801 -20.695,422.101 -30.109,409.767 -43.101,389.3 -56.524,368.09 -61.576,357.278 -68.091,343.894 -70.614,338.145 -74.712,328.7 -76.253,320.197 -77.833,311.548 -77.792,299.555 -77.778,291.511 -77.069,284.265 -76.727,280.45 -69.521,273.55 -60.898,265.947 -57.908,263.128 -56.405,261.685 -53.337,259.156 -49.552,255.985 -43.363,251.007 -29.686,240.083 -26.431,237.318 -21.184,232.902 -11.689,227.233 -1.119,220.858 1.031,219.275 5.902,215.675 8.113,214.963 10.31,214.318 14.267,215.137 18.777,216.276 18.616,216.553 18.523,216.671 18.045,216.985 17.62,217.378 17.814,217.934 18.786,220.714 43.349,270.674 45.914,275.886 52.836,287.974 54.388,290.69 56.146,293.749 61.694,303.316 69.368,316.258 90.122,351.228 95.304,358.421 100.159,365.203 105.436,372.107 108.605,376.236 111.892,380.458 123.037,394.56 129.232,400.519 129.98,401.224 130.676,401.849 138.107,408.477 145.637,414.299 153.507,420.467 157.35,422.501 159.983,423.905 162.918,425.338 164.602,426.34 165.105,428.232 165.62,430.23 164.427,432.837 163.583,434.588 160.942,438.375 156.835,444.265 151.474,449.895 142.615,459.134 132.763,464.867 130.88,465.99 104.487,482.192 103.386,482.858 102.352,483.538 L102.129,483.285" test="German Pudding"/>
      <path id="Layer1_0_2_STROKES" stroke="#F00" stroke-width="1.905" stroke-linejoin="round" stroke-linecap="round" fill="none" d="M-53.337,259.156 Q-44.28,293.149 -37.845,310.574 -25.119,345.12 -6.201,372.178 L2.235,384.584 Q12.871,399.819 24.042,414.132 59.768,459.834 87.233,478.827 93.399,483.095 97.962,486.137 M-25.36,237.127 Q-26.819,240.023 -22.339,255.428 -18.375,269.006 -14.924,276.426 -14.482,277.446 6.48,322.706 35.028,373.181 49.519,392.72 64.01,412.26 85.458,432.242 106.907,452.225 129.756,466.273" test="German Pudding"/>
      <g id="Cherry1">
        <path fill="#000" stroke="none" d="M55.846,243.966 Q61.056,245.045 65.514,242.116 69.971,239.187 71.05,233.977 72.128,228.767 69.199,224.309 66.271,219.852 61.061,218.773 55.85,217.695 51.393,220.624 46.935,223.553 45.857,228.763 44.779,233.973 47.707,238.43 50.636,242.888 55.846,243.966Z" test="Cherry1" vector-effect="non-scaling-stroke" stroke-width="1"/>
        <path id="Layer5_0_1_STROKES" stroke="#0F0" stroke-width="1.905" stroke-linejoin="round" stroke-linecap="round" fill="none" d="M71.555,229.543 Q77.715,226.863 86.239,230.037 86.331,230.091 86.397,230.104 92.326,232.363 93.938,234.21 94.109,234.383 94.24,234.582" test="Cherry1"/>
        <path id="Layer5_0_2_STROKES" stroke="#F00" stroke-width="1.905" stroke-linejoin="round" stroke-linecap="round" fill="none" d="M65.514,242.116 Q61.056,245.045 55.846,243.966 50.636,242.888 47.707,238.43 44.779,233.973 45.857,228.763 46.935,223.553 51.393,220.624 55.85,217.695 61.061,218.773 66.271,219.852 69.199,224.309 72.128,228.767 71.05,233.977 69.971,239.187 65.514,242.116Z" test="Cherry1"/>
      </g>
      <g id="Cherry2">
        <path fill="#000" stroke="none" d="M95.888,272.603 Q95.214,270.71 94.037,268.919 90.193,263.068 83.334,261.649 76.476,260.229 70.625,264.073 64.774,267.917 63.355,274.776 61.935,281.635 65.779,287.485 69.623,293.336 76.482,294.756 83.341,296.175 89.191,292.331 95.042,288.487 96.462,281.628 97.444,276.88 95.888,272.603 95.703,272.668 95.478,272.759 95.703,272.668 95.888,272.603Z" test="Cherry2" vector-effect="non-scaling-stroke" stroke-width="1"/>
        <path id="Layer6_0_1_STROKES" stroke="#F00" stroke-width="1.905" stroke-linejoin="round" stroke-linecap="round" fill="none" d="M95.888,272.603 Q97.444,276.88 96.462,281.628 95.042,288.487 89.191,292.331 83.341,296.175 76.482,294.756 69.623,293.336 65.779,287.485 61.935,281.635 63.355,274.776 64.774,267.917 70.625,264.073 76.476,260.229 83.334,261.649 90.193,263.068 94.037,268.919 95.214,270.71 95.888,272.603 95.703,272.668 95.478,272.759" test="Cherry2"/>
        <path id="Layer6_0_2_STROKES" stroke="#0F0" stroke-width="1.905" stroke-linejoin="round" stroke-linecap="round" fill="none" d="M95.888,272.603 Q107.383,268.071 113.909,267.943 119.082,268.704 121.131,268.44" test="Cherry2"/>
      </g>
      <g id="Cherry3">
        <path fill="#000" stroke="none" d="M137.416,311.395 Q138.767,304.865 135.08,299.254 134.819,298.856 134.517,298.484 134.504,298.55 134.45,298.642 133.583,300.01 132.046,300.62 133.583,300.01 134.45,298.642 134.504,298.55 134.517,298.484 130.931,293.546 124.838,292.251 118.269,290.926 112.657,294.613 107.045,298.3 105.694,304.829 104.329,311.424 108.016,317.036 111.703,322.647 118.272,323.973 124.827,325.364 130.439,321.677 136.051,317.989 137.416,311.395Z" test="Cherry3" vector-effect="non-scaling-stroke" stroke-width="1"/>
        <path id="Layer7_0_1_STROKES" stroke="#0F0" stroke-width="1.905" stroke-linejoin="round" stroke-linecap="round" fill="none" d="M134.517,298.484 Q135.253,297.089 135.759,296.471 137.663,294.252 145.419,295.823 148.716,296.505 153.064,298.093 155.239,298.887 157.017,299.599 M132.046,300.62 Q133.583,300.01 134.45,298.642 134.504,298.55 134.517,298.484" test="Cherry3"/>
        <path id="Layer7_0_2_STROKES" stroke="#F00" stroke-width="1.905" stroke-linejoin="round" stroke-linecap="round" fill="none" d="M134.517,298.484 Q134.819,298.856 135.08,299.254 138.767,304.865 137.416,311.395 136.051,317.989 130.439,321.677 124.827,325.364 118.272,323.973 111.703,322.647 108.016,317.036 104.329,311.424 105.694,304.829 107.045,298.3 112.657,294.613 118.269,290.926 124.838,292.251 130.931,293.546 134.517,298.484Z" test="Cherry3"/>
      </g>
      <g id="Cherry4">
        <path fill="#000" stroke="none" d="M147.278,356.83 Q148.275,352.015 146.481,347.724 143.354,349.209 141.82,349.476 143.354,349.209 146.481,347.724 145.896,346.227 144.981,344.834 141.346,339.302 134.883,337.965 128.42,336.627 122.888,340.262 117.356,343.897 116.018,350.36 114.68,356.823 118.315,362.355 121.95,367.887 128.413,369.225 134.876,370.563 140.408,366.928 145.941,363.293 147.278,356.83Z" test="Cherry4" vector-effect="non-scaling-stroke" stroke-width="1"/>
        <path id="Layer8_0_1_STROKES" stroke="#0F0" stroke-width="1.905" stroke-linejoin="round" stroke-linecap="round" fill="none" d="M146.481,347.724 Q146.905,347.502 147.329,347.28 151.133,345.351 155.192,344.678 158.009,344.195 161.887,344.895 165.238,345.485 167.859,346.612 M141.82,349.476 Q143.354,349.209 146.481,347.724" test="Cherry4"/>
        <path id="Layer8_0_2_STROKES" stroke="#F00" stroke-width="1.905" stroke-linejoin="round" stroke-linecap="round" fill="none" d="M146.481,347.724 Q148.275,352.015 147.278,356.83 145.941,363.293 140.408,366.928 134.876,370.563 128.413,369.225 121.95,367.887 118.315,362.355 114.68,356.823 116.018,350.36 117.356,343.897 122.888,340.262 128.42,336.627 134.883,337.965 141.346,339.302 144.981,344.834 145.896,346.227 146.481,347.724Z" test="Cherry4"/>
      </g>
      <g id="Cherry5">
        <path fill="#000" stroke="none" d="M178.834,376.71 Q179.789,372.094 177.861,368.118 177.015,368.218 176.486,368.281 177.015,368.218 177.861,368.118 177.431,367.204 176.856,366.328 173.718,361.552 168.112,360.392 162.506,359.232 157.73,362.37 152.954,365.508 151.794,371.114 150.634,376.719 153.772,381.495 156.91,386.271 162.516,387.432 168.121,388.592 172.897,385.454 177.673,382.316 178.834,376.71Z" test="Cherry5" vector-effect="non-scaling-stroke" stroke-width="1"/>
        <path id="Layer9_0_1_STROKES" stroke="#0F0" stroke-width="1.905" stroke-linejoin="round" stroke-linecap="round" fill="none" d="M177.861,368.118 Q180.426,367.686 185.782,366.732 191.899,366.416 193.11,371.034 M176.486,368.281 Q177.015,368.218 177.861,368.118" test="Cherry5"/>
        <path id="Layer9_0_2_STROKES" stroke="#F00" stroke-width="1.905" stroke-linejoin="round" stroke-linecap="round" fill="none" d="M177.861,368.118 Q179.789,372.094 178.834,376.71 177.673,382.316 172.897,385.454 168.121,388.592 162.516,387.432 156.91,386.271 153.772,381.495 150.634,376.719 151.794,371.114 152.954,365.508 157.73,362.37 162.506,359.232 168.112,360.392 173.718,361.552 176.856,366.328 177.431,367.204 177.861,368.118Z" test="Cherry5"/>
      </g>
    </g>
  </g>
</svg>