<?xml version="1.0" encoding="utf-8"?>
<svg id="EdithAnim08" image-rendering="inherit" baseProfile="basic" version="1.1" x="0px" y="0px" width="800" height="600" xmlns="http://www.w3.org/2000/svg" xmlns:xlink="http://www.w3.org/1999/xlink">
  <g id="German-Puddingf62r1" overflow="visible">
    <g id="German">
      <path id="Layer4_0_1_STROKES" stroke="#F60" stroke-width="2.456" stroke-linejoin="round" stroke-linecap="round" fill="none" d="M479.423,89.128 Q479.116,85.137 479.116,84.4 479.116,78.199 483.66,72.919 486.914,69.173 494.528,64.138 505.395,56.955 507.422,55.358 514.544,49.894 518.105,43 L518.412,43 Q514.176,59.165 512.334,64.323 508.158,75.743 503.676,78.997 500.238,81.576 488.756,85.874 480.283,89.005 480.037,92.505 L480.037,92.751 480.037,92.812 M480.037,92.751 Q477.888,88.269 489.861,78.015 495.94,72.796 503.185,66.901 M294.916,167.106 Q311.371,173.185 328.993,172.387 345.51,171.159 361.904,170.422 379.403,169.931 397.086,171.65 412.988,173.185 429.014,174.474 447.495,174.904 465.056,169.746 475.494,166.676 485.195,161.949 M488.94,189.517 Q472.792,193.078 456.214,193 441.171,194.92 426.312,194.982 415.506,195.043 404.515,194.982 L400.217,194.736 Q383.025,194.92 366.079,194.859 348.58,193.631 331.081,191.421 314.81,189.21 298.539,187.491 295.223,187.123 291.908,186.754" test="German"/>
      <path id="Layer4_0_2_STROKES" stroke="#0FF" stroke-width="2.456" stroke-linejoin="round" stroke-linecap="round" fill="none" d="M480.037,92.812 Q481.756,96.312 481.941,99.014 482.248,103.557 483.967,123.267 485.747,143.59 486.239,147.52 486.239,147.642 487.835,158.817 488.326,158.633 492.993,158.572 501.527,158.449 508.957,159.8 512.088,160.352 519.824,159.554 527.07,158.756 529.526,159.493 532.166,160.291 532.657,162.194 533.701,166.308 535.973,169.931 539.718,175.886 540.823,183.316 541.867,190.07 540.885,199.403 539.35,213.647 527.07,221.2 523.14,223.594 508.22,225.006 498.764,225.866 478.257,226.726 471.196,227.033 421.953,226.726 377.008,226.48 364.053,227.647 349.931,228.936 310.143,231.453 271.216,233.848 267.041,234.094 261.208,234.462 255.804,232.006 251.015,229.857 248.928,226.726 247.024,223.901 247.024,222.796 246.963,221.691 248.621,218.744 250.033,216.288 254.945,214.077 257.769,212.849 263.357,210.762 265.874,209.718 271.953,207.016 277.356,204.744 279.628,204.008 280.794,203.639 284.171,202.657 286.32,202.043 287.61,201.552 M288.838,211.99 Q288.96,201.859 291.969,176.93 295.837,144.45 300.811,133.091 305.538,122.284 305.661,116.82 305.109,110.373 305.723,103.312 306.582,93.917 309.161,88.269 310.266,85.69 315.547,77.831 319.906,71.322 321.441,69.971 323.59,68.068 327.52,68.314 330.344,68.498 334.642,68.559 338.203,68.866 341.335,70.463 342.747,71.199 347.229,72.98 350.176,74.208 352.694,75.989 355.272,77.831 356.439,80.041 357.667,82.251 358.158,82.62 358.465,82.067 358.834,81.515 L362.211,77.217 Q366.447,72.55 370.5,71.077 374.736,69.542 377.99,69.296 380.569,69.173 390.762,68.928 402.059,68.498 407.831,68.989 414.953,69.603 419.313,71.998 425.453,75.375 427.356,76.848 431.163,79.734 434.663,84.892 L441.417,94.654 444.057,92.567 Q447.434,90.049 450.934,87.962 453.083,86.672 456.828,82.681 459.407,79.918 461.986,79.98 467.819,80.041 468.064,80.102 471.011,80.532 473.038,82.743 476.108,86.12 478.502,90.049 479.362,91.461 480.037,92.751 M441.417,94.654 Q445.469,100.487 447.864,103.312 450.565,106.504 451.425,107.978 452.591,110.004 453.083,112.829 454.004,118.355 454.311,118.662 M487.835,158.817 Q488.081,160.475 488.326,162.378 489.861,173.615 489.923,176.071 L490.291,180.123 Q490.721,184.544 491.151,186.509 M525.78,172.816 Q519.272,189.272 500.422,194.061 483.414,198.543 465.915,200.569 449.828,202.78 434.294,207.139 418.392,211.744 402.059,213.893 385.113,216.533 367.982,218.805 351.588,220.954 334.765,222.059 317.634,223.103 300.872,225.805 282.759,228.629 264.646,226.848 259.673,226.48 254.761,225.498 M338.879,114.978 Q340.659,110.864 342.133,107.794 344.896,102.022 348.396,96.865 350.115,94.347 354.167,88.514 356.132,85.69 358.158,82.62" test="German"/>
      <path id="Layer4_0_3_STROKES" stroke="#FEB7AE" stroke-width="2.456" stroke-linejoin="round" stroke-linecap="round" fill="none" d="M384.867,401.961 Q384.929,402.207 385.051,402.514 407.34,404.479 422.505,403.926 445.162,403.128 458.854,396.497 472.301,389.988 482.186,374.086 490.659,360.455 498.15,336.939 504.29,317.782 506.808,303.169 507.913,296.906 510.43,274.925 512.088,260.557 512.211,252.391 512.272,248.277 511.658,238.085 M423.856,404.417 Q420.234,406.935 419.865,413.197 419.681,416.452 420.172,420.688 419.804,430.512 419.558,432.661 M275.268,234.401 Q273.917,253.128 280.426,294.818 286.873,336.447 292.706,344.736 298.477,353.025 305.416,364.876 313.336,373.963 320.581,380.103 341.396,397.663 368.596,400.795 377.254,401.777 385.051,402.514 386.586,408.224 387.262,411.601 387.937,415.531 387.937,419.767 387.937,422.407 387.262,425.293 386.586,428.24 385.788,428.67 L385.788,428.056" test="German"/>
      <path id="Layer4_0_4_STROKES" stroke="#FFF" stroke-width="2.456" stroke-linejoin="round" stroke-linecap="round" fill="none" d="M481.572,314.221 L325.985,332.763 Q326.66,338.289 328.072,345.535 329.546,352.903 337.466,363.279 345.448,373.717 355.027,380.594 L376.087,379.734 Q400.094,378.322 414.646,375.621 435.522,371.752 446.636,369.235 461.617,365.858 466.222,363.341 471.073,360.7 472.424,359.657 472.561,359.296 472.7,358.951 474.089,355.152 474.818,351.675 477.888,341.114 479.73,334.667 483.169,322.571 482.8,316.677 482.493,311.642 483.353,306.3 484.028,302.186 483.414,300.099 482.677,297.52 481.634,297.827 473.099,300.099 472.976,300.099 459.652,302.555 450.872,304.09 434.724,306.914 425.084,308.081 408.69,310.23 400.279,311.335 385.297,313.238 377.806,313.607 371.85,313.914 361.904,315.387 353.062,316.677 348.334,316.677 340.536,316.37 337.896,316.308 333.782,316.185 331.142,317.291 328.441,318.457 327.09,319.194 L326.23,319.747 Q325.186,324.966 325.985,332.763 M443.197,260.127 Q442.583,257.057 442.583,256.627 442.583,249.075 449.03,246.005 453.635,243.856 461.924,243.856 466.959,243.856 470.336,249.505 471.994,252.391 472.976,255.522 M355.027,380.594 Q360.369,384.339 364.912,386.059 375.719,390.234 391.376,390.234 402.796,390.234 418.33,387.901 435.338,385.383 444.794,383.296 459.284,380.103 462.538,376.849 466.161,373.226 469.845,365.674 471.318,362.604 472.424,359.657 M386.095,420.688 Q380,422.162 378.175,425.048 375.964,427.197 375.964,428.854 375.964,434.81 408.506,438.801 415.874,438.801 420.97,437.819 426.005,436.775 441.048,427.749 440.987,426.214 437.241,424.434 433.496,422.592 430.549,421.916 427.602,421.179 421.4,422.223 M441.355,428.67 Q442.522,430.942 444.18,435.731 446.267,441.933 446.267,444.941 446.574,444.941 446.881,444.327 M328.686,255.829 Q329.73,248.83 335.01,244.532 340.045,240.479 346.676,240.479 350.422,240.479 352.694,244.347 354.658,247.724 355.088,252.759 L354.474,252.452 M375.964,427.442 Q375.596,430.082 374.675,435.547 373.631,442.178 373.201,443.406 L373.201,445.862 373.508,445.862" test="German"/>
    </g>
    <g id="German-Pudding">
      <path fill="#000" stroke="none" d="M186.554,366.328 Q183.592,353.337 177.856,341.381 172.015,328.708 164.309,317.182 156.493,305.388 148.156,293.747 140.765,282.643 133.586,271.52 126.356,261.042 118.188,251.31 109.474,240.963 98.873,232.728 88.624,224.612 77.015,219.009 64.601,213.007 51.554,208.065 L50.924,207.95 Q50.828,208.065 50.341,208.365 49.904,208.745 50.082,209.307 50.971,212.114 74.033,262.77 76.442,268.054 82,280.34 84.47,283.1 86.143,286.176 91.396,295.935 98.68,309.096 118.381,344.658 123.346,352.001 127.996,358.923 133.064,365.978 136.108,370.199 139.268,374.516 149.987,388.939 156,395.078 156.727,395.805 157.404,396.451 164.633,403.294 171.985,409.337 179.666,415.734 183.447,417.881 186.035,419.362 188.927,420.882 190.58,421.933 191.026,423.839 L193.343,422.972 Q199.542,409.878 194.627,396.076 193.589,393.025 192.575,390.015 L192.363,389.307 Q189.214,377.829 186.554,366.328Z" test="German Pudding" vector-effect="non-scaling-stroke" stroke-width="1"/>
      <path id="Layer3_0_1_STROKES" stroke="#FFF" stroke-width="1.904" stroke-linejoin="round" stroke-linecap="round" fill="none" d="M51.554,208.065 Q64.601,213.007 77.015,219.009 88.624,224.612 98.873,232.728 109.474,240.963 118.188,251.31 126.356,261.042 133.586,271.52 140.765,282.643 148.156,293.747 156.493,305.388 164.309,317.182 172.015,328.708 177.856,341.381 183.592,353.337 186.554,366.328 189.214,377.829 192.363,389.307 M192.575,390.015 Q193.589,393.025 194.627,396.076 199.542,409.878 193.343,422.972" test="German Pudding"/>
      <path id="Layer2_0_1_STROKES" stroke="#FFF" stroke-width="1.904" stroke-linejoin="round" stroke-linecap="round" fill="none" d="M163.248,361.885 Q168.033,361.121 169.776,361.502 172.347,362.045 178.438,365.676 184.158,368.976 184.981,369.588 187.533,371.372 189.055,373.846 192.298,379.117 188.455,388.861 186.552,393.734 183.707,399.133 183.627,399.281 183.551,399.425 M60.814,219.027 Q71.076,217.352 81.182,220.693 85.739,222.194 89.037,225.419 89.303,225.691 89.137,225.582 91.758,230.497 90.323,237.094 88.934,243.651 82.281,246.011 80.057,250.846 82.939,255.166 L83.145,255.319 Q89.067,261.401 98.284,261.935 100.67,262.088 103.016,262.993 114.896,267.311 117.993,279.157 120.197,287.919 120.605,296.668 135.1,295.241 148.034,301.09 151.818,302.787 152.582,306.845 153.635,312.737 151.346,318.282 149.143,323.607 146.308,328.538 144.04,332.393 140.322,335.072 152.352,334.546 158.536,345.051 160.751,348.832 161.904,353.432 164.555,364.1 159.033,373.479 157.062,376.816 155.246,380.225 L155.2,379.695 M140.322,335.072 L130.752,342.414 131.216,341.624 M89.137,225.582 Q89.058,225.548 88.911,225.441 88.951,225.416 89.037,225.419 M82.939,255.166 Q82.989,255.247 83.063,255.369 83.104,255.344 83.145,255.319" test="German Pudding"/>
      <path fill="#000" stroke="none" d="M76.644,484.154 Q79.604,487.42 84.385,490.739 89.659,494.314 92.52,494.511 94.563,494.651 97.414,492.562 101.285,489.677 105.433,488.242 109.395,486.867 122.208,479.709 117.739,476.534 111.704,472.086 84.822,452.29 50.477,405.557 39.739,390.922 29.563,375.382 L21.501,362.733 Q3.399,335.131 -8.292,300.231 -14.204,282.626 -22.246,248.387 -25.387,250.823 -26.931,252.22 -30.004,254.949 -38.847,262.291 -46.252,268.972 -46.708,272.774 -47.632,279.994 -47.885,288.032 -48.282,300.016 -46.96,308.706 -45.672,317.249 -41.858,326.809 -39.507,332.63 -33.394,346.198 -28.667,357.153 -15.883,378.747 -3.508,399.587 5.534,412.192 13.381,423.128 25.909,437.947 36.285,450.178 42.118,456.205 45.339,459.533 60.313,471.059 75.007,482.311 76.644,484.154 M50.082,209.307 Q49.904,208.745 50.341,208.365 50.828,208.065 50.924,207.95 51.093,207.679 46.62,206.406 42.69,205.47 40.476,206.05 38.245,206.695 33.27,210.148 31.074,211.666 20.322,217.723 10.665,223.106 5.291,227.363 1.956,230.03 -12.037,240.54 -18.369,245.331 -22.246,248.387 -14.204,282.626 -8.292,300.231 3.399,335.131 21.501,362.733 L29.563,375.382 Q39.739,390.922 50.477,405.557 84.822,452.29 111.704,472.086 117.739,476.534 122.208,479.709 124.326,478.518 126.672,477.243 L126.457,476.984 126.672,477.243 Q127.726,476.594 128.846,475.961 155.703,460.554 157.618,459.488 167.633,454.052 176.761,445.082 182.285,439.614 186.565,433.851 189.316,430.145 190.211,428.421 191.481,425.85 191.026,423.839 190.58,421.933 188.927,420.882 186.035,419.362 183.447,417.881 179.666,415.734 171.985,409.337 164.633,403.294 157.404,396.451 156.727,395.805 156,395.078 149.987,388.939 139.268,374.516 136.108,370.199 133.064,365.978 127.996,358.923 123.346,352.001 118.381,344.658 98.68,309.096 91.396,295.935 86.143,286.176 84.47,283.1 82,280.34 76.442,268.054 74.033,262.77 50.971,212.114 50.082,209.307 M111.314,425.48 Q132.154,446.086 154.57,460.804 132.154,446.086 111.314,425.48 90.473,404.874 76.573,384.917 62.673,364.96 35.643,313.671 16.039,267.819 15.628,266.786 12.4,259.269 8.842,245.582 4.823,230.055 6.367,227.204 4.823,230.055 8.842,245.582 12.4,259.269 15.628,266.786 16.039,267.819 35.643,313.671 62.673,364.96 76.573,384.917 90.473,404.874 111.314,425.48Z" test="German Pudding" vector-effect="non-scaling-stroke" stroke-width="1"/>
      <path id="Layer1_0_1_STROKES" stroke="#F60" stroke-width="1.904" stroke-linejoin="round" stroke-linecap="round" fill="none" d="M126.672,477.243 Q124.326,478.518 122.208,479.709 109.395,486.867 105.433,488.242 101.285,489.677 97.414,492.562 94.563,494.651 92.52,494.511 89.659,494.314 84.385,490.739 79.604,487.42 76.644,484.154 75.007,482.311 60.313,471.059 45.339,459.533 42.118,456.205 36.285,450.178 25.909,437.947 13.381,423.128 5.534,412.192 -3.508,399.587 -15.883,378.747 -28.667,357.153 -33.394,346.198 -39.507,332.63 -41.858,326.809 -45.672,317.249 -46.96,308.706 -48.282,300.016 -47.885,288.032 -47.632,279.994 -46.708,272.774 -46.252,268.972 -38.847,262.291 -30.004,254.949 -26.931,252.22 -25.387,250.823 -22.246,248.387 -18.369,245.331 -12.037,240.54 1.956,230.03 5.291,227.363 10.665,223.106 20.322,217.723 31.074,211.666 33.27,210.148 38.245,206.695 40.476,206.05 42.69,205.47 46.62,206.406 51.093,207.679 50.924,207.95 50.828,208.065 50.341,208.365 49.904,208.745 50.082,209.307 50.971,212.114 74.033,262.77 76.442,268.054 82,280.34 84.47,283.1 86.135,286.209 91.396,295.935 98.68,309.096 118.381,344.658 123.346,352.001 127.996,358.923 133.064,365.978 136.108,370.199 139.268,374.516 149.987,388.939 156,395.078 156.727,395.805 157.404,396.451 164.633,403.294 171.985,409.337 179.666,415.734 183.447,417.881 186.035,419.362 188.927,420.882 190.58,421.933 191.026,423.839 191.481,425.85 190.211,428.421 189.316,430.145 186.565,433.851 182.285,439.614 176.761,445.082 167.633,454.052 157.618,459.488 155.703,460.554 128.846,475.961 127.726,476.594 126.672,477.243 L126.457,476.984" test="German Pudding"/>
      <path id="Layer1_0_2_STROKES" stroke="#F00" stroke-width="1.904" stroke-linejoin="round" stroke-linecap="round" fill="none" d="M-22.246,248.387 Q-14.204,282.626 -8.292,300.231 3.399,335.131 21.501,362.733 L29.563,375.382 Q39.739,390.922 50.477,405.557 84.822,452.29 111.704,472.086 117.739,476.534 122.208,479.709 M6.367,227.204 Q4.823,230.055 8.842,245.582 12.4,259.269 15.628,266.786 16.039,267.819 35.643,313.671 62.673,364.96 76.573,384.917 90.473,404.874 111.314,425.48 132.154,446.086 154.57,460.804" test="German Pudding"/>
      <g id="Cherry1">
        <path fill="#000" stroke="none" d="M87.322,236.413 Q92.496,237.645 97.038,234.851 101.58,232.057 102.812,226.882 104.044,221.708 101.25,217.166 98.456,212.624 93.281,211.392 88.107,210.16 83.565,212.954 79.023,215.748 77.791,220.923 76.559,226.097 79.353,230.639 82.147,235.181 87.322,236.413Z" test="Cherry1" vector-effect="non-scaling-stroke" stroke-width="1"/>
        <path id="Layer5_0_1_STROKES" stroke="#0F0" stroke-width="1.904" stroke-linejoin="round" stroke-linecap="round" fill="none" d="M103.449,222.466 Q109.684,219.971 118.108,223.396 118.199,223.452 118.264,223.468 124.122,225.901 125.678,227.794 125.843,227.972 125.968,228.175" test="Cherry1"/>
        <path id="Layer5_0_2_STROKES" stroke="#F00" stroke-width="1.904" stroke-linejoin="round" stroke-linecap="round" fill="none" d="M97.038,234.851 Q92.496,237.645 87.322,236.413 82.147,235.181 79.353,230.639 76.559,226.097 77.791,220.923 79.023,215.748 83.565,212.954 88.107,210.16 93.281,211.392 98.456,212.624 101.25,217.166 104.044,221.708 102.812,226.882 101.58,232.057 97.038,234.851Z" test="Cherry1"/>
      </g>
      <g id="Cherry2">
        <path fill="#000" stroke="none" d="M126.463,266.243 Q125.845,264.33 124.723,262.506 121.055,256.545 114.243,254.922 107.431,253.3 101.47,256.968 95.509,260.635 93.887,267.447 92.265,274.259 95.932,280.22 99.6,286.181 106.412,287.803 113.224,289.426 119.185,285.758 125.146,282.091 126.768,275.279 127.891,270.563 126.463,266.243 126.276,266.302 126.048,266.386 126.276,266.302 126.463,266.243Z" test="Cherry2" vector-effect="non-scaling-stroke" stroke-width="1"/>
        <path id="Layer6_0_1_STROKES" stroke="#F00" stroke-width="1.904" stroke-linejoin="round" stroke-linecap="round" fill="none" d="M126.463,266.243 Q127.891,270.563 126.768,275.279 125.146,282.091 119.185,285.758 113.224,289.426 106.412,287.803 99.6,286.181 95.932,280.22 92.265,274.259 93.887,267.447 95.509,260.635 101.47,256.968 107.431,253.3 114.243,254.922 121.055,256.545 124.723,262.506 125.845,264.33 126.463,266.243 126.276,266.302 126.048,266.386" test="Cherry2"/>
        <path id="Layer6_0_2_STROKES" stroke="#0F0" stroke-width="1.904" stroke-linejoin="round" stroke-linecap="round" fill="none" d="M126.463,266.243 Q138.085,262.054 144.61,262.12 149.757,263.035 151.812,262.832" test="Cherry2"/>
      </g>
      <g id="Cherry3">
        <path fill="#000" stroke="none" d="M166.816,306.285 Q168.36,299.8 164.842,294.082 164.592,293.677 164.302,293.296 164.287,293.362 164.231,293.452 163.323,294.794 161.77,295.358 163.323,294.794 164.231,293.452 164.287,293.362 164.302,293.296 160.866,288.256 154.815,286.78 148.29,285.261 142.572,288.778 136.854,292.296 135.31,298.781 133.75,305.331 137.268,311.048 140.786,316.766 147.311,318.285 153.82,319.87 159.538,316.352 165.256,312.835 166.816,306.285Z" test="Cherry3" vector-effect="non-scaling-stroke" stroke-width="1"/>
        <path id="Layer7_0_1_STROKES" stroke="#0F0" stroke-width="1.904" stroke-linejoin="round" stroke-linecap="round" fill="none" d="M164.302,293.296 Q165.079,291.924 165.603,291.322 167.572,289.161 175.276,290.961 178.551,291.741 182.849,293.457 184.998,294.315 186.754,295.079 M161.77,295.358 Q163.323,294.794 164.231,293.452 164.287,293.362 164.302,293.296" test="Cherry3"/>
        <path id="Layer7_0_2_STROKES" stroke="#F00" stroke-width="1.904" stroke-linejoin="round" stroke-linecap="round" fill="none" d="M164.302,293.296 Q164.592,293.677 164.842,294.082 168.36,299.8 166.816,306.285 165.256,312.835 159.538,316.352 153.82,319.87 147.311,318.285 140.786,316.766 137.268,311.048 133.75,305.331 135.31,298.781 136.854,292.296 142.572,288.778 148.29,285.261 154.815,286.78 160.866,288.256 164.302,293.296Z" test="Cherry3"/>
      </g>
      <g id="Cherry4">
        <path fill="#000" stroke="none" d="M175.328,351.963 Q176.467,347.181 174.802,342.839 171.633,344.23 170.092,344.452 171.633,344.23 174.802,342.839 174.262,341.326 173.389,339.907 169.921,334.271 163.502,332.742 157.083,331.213 151.447,334.681 145.81,338.149 144.281,344.568 142.753,350.987 146.221,356.624 149.689,362.26 156.108,363.789 162.527,365.318 168.163,361.85 173.8,358.382 175.328,351.963Z" test="Cherry4" vector-effect="non-scaling-stroke" stroke-width="1"/>
        <path id="Layer8_0_1_STROKES" stroke="#0F0" stroke-width="1.904" stroke-linejoin="round" stroke-linecap="round" fill="none" d="M174.802,342.839 Q175.232,342.63 175.663,342.421 179.521,340.606 183.598,340.055 186.427,339.655 190.282,340.47 193.613,341.159 196.199,342.364 M170.092,344.452 Q171.633,344.23 174.802,342.839" test="Cherry4"/>
        <path id="Layer8_0_2_STROKES" stroke="#F00" stroke-width="1.904" stroke-linejoin="round" stroke-linecap="round" fill="none" d="M174.802,342.839 Q176.467,347.181 175.328,351.963 173.8,358.382 168.163,361.85 162.527,365.318 156.108,363.789 149.689,362.26 146.221,356.624 142.753,350.987 144.281,344.568 145.81,338.149 151.447,334.681 157.083,331.213 163.502,332.742 169.921,334.271 173.389,339.907 174.262,341.326 174.802,342.839Z" test="Cherry4"/>
      </g>
      <g id="Cherry5">
        <path fill="#000" stroke="none" d="M206.252,372.767 Q207.344,368.182 205.535,364.152 204.687,364.227 204.157,364.274 204.687,364.227 205.535,364.152 205.133,363.226 204.584,362.334 201.59,357.468 196.023,356.142 190.455,354.816 185.589,357.81 180.723,360.804 179.397,366.371 178.071,371.939 181.065,376.805 184.059,381.671 189.627,382.997 195.194,384.323 200.06,381.329 204.926,378.335 206.252,372.767Z" test="Cherry5" vector-effect="non-scaling-stroke" stroke-width="1"/>
        <path id="Layer9_0_1_STROKES" stroke="#0F0" stroke-width="1.904" stroke-linejoin="round" stroke-linecap="round" fill="none" d="M205.535,364.152 Q208.112,363.797 213.492,363.002 219.615,362.868 220.688,367.519 M204.157,364.274 Q204.687,364.227 205.535,364.152" test="Cherry5"/>
        <path id="Layer9_0_2_STROKES" stroke="#F00" stroke-width="1.904" stroke-linejoin="round" stroke-linecap="round" fill="none" d="M205.535,364.152 Q207.344,368.182 206.252,372.767 204.926,378.335 200.06,381.329 195.194,384.323 189.627,382.997 184.059,381.671 181.065,376.805 178.071,371.939 179.397,366.371 180.723,360.804 185.589,357.81 190.455,354.816 196.023,356.142 201.59,357.468 204.584,362.334 205.133,363.226 205.535,364.152Z" test="Cherry5"/>
      </g>
    </g>
  </g>
</svg>