<?xml version="1.0" encoding="utf-8"?>
<svg id="EdithAnim08" image-rendering="inherit" baseProfile="basic" version="1.1" x="0px" y="0px" width="800" height="600" xmlns="http://www.w3.org/2000/svg" xmlns:xlink="http://www.w3.org/1999/xlink">
  <g id="German-Puddingf64r1" overflow="visible">
    <g id="German">
      <path id="Layer4_0_1_STROKES" stroke="#F60" stroke-width="2.456" stroke-linejoin="round" stroke-linecap="round" fill="none" d="M479.423,89.128 Q479.116,85.137 479.116,84.4 479.116,78.199 483.66,72.919 486.914,69.173 494.528,64.138 505.395,56.955 507.422,55.358 514.544,49.894 518.105,43 L518.412,43 Q514.176,59.165 512.334,64.323 508.158,75.743 503.676,78.997 500.238,81.576 488.756,85.874 480.283,89.005 480.037,92.505 L480.037,92.751 480.037,92.812 M480.037,92.751 Q477.888,88.269 489.861,78.015 495.94,72.796 503.185,66.901 M294.916,167.106 Q311.371,173.185 328.993,172.387 345.51,171.159 361.904,170.422 379.403,169.931 397.086,171.65 412.988,173.185 429.014,174.474 447.495,174.904 465.056,169.746 475.494,166.676 485.195,161.949 M488.94,189.517 Q472.792,193.078 456.214,193 441.171,194.92 426.312,194.982 415.506,195.043 404.515,194.982 L400.217,194.736 Q383.025,194.92 366.079,194.859 348.58,193.631 331.081,191.421 314.81,189.21 298.539,187.491 295.223,187.123 291.908,186.754" test="German"/>
      <path id="Layer4_0_2_STROKES" stroke="#0FF" stroke-width="2.456" stroke-linejoin="round" stroke-linecap="round" fill="none" d="M480.037,92.812 Q481.756,96.312 481.941,99.014 482.248,103.557 483.967,123.267 485.747,143.59 486.239,147.52 486.239,147.642 487.835,158.817 488.326,158.633 492.993,158.572 501.527,158.449 508.957,159.8 512.088,160.352 519.824,159.554 527.07,158.756 529.526,159.493 532.166,160.291 532.657,162.194 533.701,166.308 535.973,169.931 539.718,175.886 540.823,183.316 541.867,190.07 540.885,199.403 539.35,213.647 527.07,221.2 523.14,223.594 508.22,225.006 498.764,225.866 478.257,226.726 471.196,227.033 421.953,226.726 377.008,226.48 364.053,227.647 349.931,228.936 310.143,231.453 271.216,233.848 267.041,234.094 261.208,234.462 255.804,232.006 251.015,229.857 248.928,226.726 247.024,223.901 247.024,222.796 246.963,221.691 248.621,218.744 250.033,216.288 254.945,214.077 257.769,212.849 263.357,210.762 265.874,209.718 271.953,207.016 277.356,204.744 279.628,204.008 280.794,203.639 284.171,202.657 286.32,202.043 287.61,201.552 M288.838,211.99 Q288.96,201.859 291.969,176.93 295.837,144.45 300.811,133.091 305.538,122.284 305.661,116.82 305.109,110.373 305.723,103.312 306.582,93.917 309.161,88.269 310.266,85.69 315.547,77.831 319.906,71.322 321.441,69.971 323.59,68.068 327.52,68.314 330.344,68.498 334.642,68.559 338.203,68.866 341.335,70.463 342.747,71.199 347.229,72.98 350.176,74.208 352.694,75.989 355.272,77.831 356.439,80.041 357.667,82.251 358.158,82.62 358.465,82.067 358.834,81.515 L362.211,77.217 Q366.447,72.55 370.5,71.077 374.736,69.542 377.99,69.296 380.569,69.173 390.762,68.928 402.059,68.498 407.831,68.989 414.953,69.603 419.313,71.998 425.453,75.375 427.356,76.848 431.163,79.734 434.663,84.892 L441.417,94.654 444.057,92.567 Q447.434,90.049 450.934,87.962 453.083,86.672 456.828,82.681 459.407,79.918 461.986,79.98 467.819,80.041 468.064,80.102 471.011,80.532 473.038,82.743 476.108,86.12 478.502,90.049 479.362,91.461 480.037,92.751 M441.417,94.654 Q445.469,100.487 447.864,103.312 450.565,106.504 451.425,107.978 452.591,110.004 453.083,112.829 454.004,118.355 454.311,118.662 M487.835,158.817 Q488.081,160.475 488.326,162.378 489.861,173.615 489.923,176.071 L490.291,180.123 Q490.721,184.544 491.151,186.509 M525.78,172.816 Q519.272,189.272 500.422,194.061 483.414,198.543 465.915,200.569 449.828,202.78 434.294,207.139 418.392,211.744 402.059,213.893 385.113,216.533 367.982,218.805 351.588,220.954 334.765,222.059 317.634,223.103 300.872,225.805 282.759,228.629 264.646,226.848 259.673,226.48 254.761,225.498 M338.879,114.978 Q340.659,110.864 342.133,107.794 344.896,102.022 348.396,96.865 350.115,94.347 354.167,88.514 356.132,85.69 358.158,82.62" test="German"/>
      <path id="Layer4_0_3_STROKES" stroke="#FEB7AE" stroke-width="2.456" stroke-linejoin="round" stroke-linecap="round" fill="none" d="M384.867,401.961 Q384.929,402.207 385.051,402.514 407.34,404.479 422.505,403.926 445.162,403.128 458.854,396.497 472.301,389.988 482.186,374.086 490.659,360.455 498.15,336.939 504.29,317.782 506.808,303.169 507.913,296.906 510.43,274.925 512.088,260.557 512.211,252.391 512.272,248.277 511.658,238.085 M423.856,404.417 Q420.234,406.935 419.865,413.197 419.681,416.452 420.172,420.688 419.804,430.512 419.558,432.661 M275.268,234.401 Q273.917,253.128 280.426,294.818 286.873,336.447 292.706,344.736 298.477,353.025 305.416,364.876 313.336,373.963 320.581,380.103 341.396,397.663 368.596,400.795 377.254,401.777 385.051,402.514 386.586,408.224 387.262,411.601 387.937,415.531 387.937,419.767 387.937,422.407 387.262,425.293 386.586,428.24 385.788,428.67 L385.788,428.056" test="German"/>
      <path id="Layer4_0_4_STROKES" stroke="#FFF" stroke-width="2.456" stroke-linejoin="round" stroke-linecap="round" fill="none" d="M481.572,314.221 L325.985,332.763 Q326.66,338.289 328.072,345.535 329.546,352.903 337.466,363.279 345.448,373.717 355.027,380.594 L376.087,379.734 Q400.094,378.322 414.646,375.621 435.522,371.752 446.636,369.235 461.617,365.858 466.222,363.341 471.073,360.7 472.424,359.657 472.561,359.296 472.7,358.951 474.089,355.152 474.818,351.675 477.888,341.114 479.73,334.667 483.169,322.571 482.8,316.677 482.493,311.642 483.353,306.3 484.028,302.186 483.414,300.099 482.677,297.52 481.634,297.827 473.099,300.099 472.976,300.099 459.652,302.555 450.872,304.09 434.724,306.914 425.084,308.081 408.69,310.23 400.279,311.335 385.297,313.238 377.806,313.607 371.85,313.914 361.904,315.387 353.062,316.677 348.334,316.677 340.536,316.37 337.896,316.308 333.782,316.185 331.142,317.291 328.441,318.457 327.09,319.194 L326.23,319.747 Q325.186,324.966 325.985,332.763 M443.197,260.127 Q442.583,257.057 442.583,256.627 442.583,249.075 449.03,246.005 453.635,243.856 461.924,243.856 466.959,243.856 470.336,249.505 471.994,252.391 472.976,255.522 M355.027,380.594 Q360.369,384.339 364.912,386.059 375.719,390.234 391.376,390.234 402.796,390.234 418.33,387.901 435.338,385.383 444.794,383.296 459.284,380.103 462.538,376.849 466.161,373.226 469.845,365.674 471.318,362.604 472.424,359.657 M386.095,420.688 Q380,422.162 378.175,425.048 375.964,427.197 375.964,428.854 375.964,434.81 408.506,438.801 415.874,438.801 420.97,437.819 426.005,436.775 441.048,427.749 440.987,426.214 437.241,424.434 433.496,422.592 430.549,421.916 427.602,421.179 421.4,422.223 M441.355,428.67 Q442.522,430.942 444.18,435.731 446.267,441.933 446.267,444.941 446.574,444.941 446.881,444.327 M328.686,255.829 Q329.73,248.83 335.01,244.532 340.045,240.479 346.676,240.479 350.422,240.479 352.694,244.347 354.658,247.724 355.088,252.759 L354.474,252.452 M375.964,427.442 Q375.596,430.082 374.675,435.547 373.631,442.178 373.201,443.406 L373.201,445.862 373.508,445.862" test="German"/>
    </g>
    <g id="German-Pudding">
      <path fill="#000" stroke="none" d="M241.718,356.941 Q239.5,343.804 234.455,331.542 229.345,318.558 222.307,306.614 215.176,294.396 207.516,282.3 200.769,270.794 194.235,259.282 187.614,248.411 180.014,238.231 171.903,227.406 161.789,218.582 152.019,209.896 140.749,203.642 128.698,196.944 115.955,191.269 L115.333,191.118 Q115.23,191.227 114.727,191.499 114.269,191.854 114.415,192.424 115.142,195.277 135.283,247.158 137.386,252.571 143.234,265.209 144.545,268.048 146.04,271.214 150.729,281.254 157.252,294.808 174.895,331.43 179.434,339.042 183.682,346.217 188.34,353.549 191.139,357.935 194.047,362.424 203.928,377.433 209.581,383.903 210.265,384.67 210.904,385.353 217.732,392.597 224.727,399.047 232.032,405.871 235.683,408.228 238.183,409.855 240.983,411.536 242.573,412.679 242.91,414.607 L245.273,413.874 Q252.206,401.155 248.085,387.097 247.222,383.993 246.381,380.93 L246.21,380.211 Q243.719,368.573 241.718,356.941Z" test="German Pudding" vector-effect="non-scaling-stroke" stroke-width="1"/>
      <path id="Layer3_0_1_STROKES" stroke="#FFF" stroke-width="1.904" stroke-linejoin="round" stroke-linecap="round" fill="none" d="M115.955,191.269 Q128.698,196.944 140.749,203.642 152.019,209.896 161.789,218.582 171.903,227.406 180.014,238.231 187.614,248.411 194.235,259.282 200.769,270.794 207.516,282.3 215.176,294.396 222.307,306.614 229.345,318.558 234.455,331.542 239.5,343.804 241.718,356.941 243.719,368.573 246.21,380.211 M246.381,380.93 Q247.222,383.993 248.085,387.097 252.206,401.155 245.273,413.874" test="German Pudding"/>
      <path id="Layer2_0_1_STROKES" stroke="#FFF" stroke-width="1.904" stroke-linejoin="round" stroke-linecap="round" fill="none" d="M218.705,351.18 Q223.525,350.689 225.244,351.169 227.779,351.857 233.653,355.828 239.176,359.448 239.963,360.106 242.408,362.032 243.787,364.588 246.725,370.035 242.334,379.543 240.157,384.299 237.01,389.528 236.921,389.671 236.837,389.81 M124.575,202.738 Q134.915,201.651 144.813,205.561 149.277,207.318 152.386,210.726 152.636,211.012 152.476,210.893 154.813,215.95 153.005,222.454 151.246,228.92 144.47,230.898 141.975,235.598 144.606,240.074 L144.802,240.239 Q150.369,246.648 159.54,247.705 161.913,247.994 164.203,249.03 175.817,254.016 178.234,266.019 179.937,274.891 179.846,283.648 194.397,283.048 206.977,289.623 210.657,291.532 211.188,295.627 211.905,301.569 209.304,306.975 206.802,312.164 203.691,316.926 201.208,320.645 197.344,323.108 209.383,323.267 214.959,334.106 216.955,338.006 217.845,342.665 219.884,353.465 213.838,362.513 211.68,365.733 209.674,369.033 L209.657,368.501 M197.344,323.108 L187.372,329.893 187.881,329.131 M152.476,210.893 Q152.4,210.856 152.259,210.74 152.3,210.718 152.386,210.726 M144.606,240.074 Q144.651,240.158 144.719,240.284 144.76,240.261 144.802,240.239" test="German Pudding"/>
      <path fill="#000" stroke="none" d="M125.293,468.311 Q128.062,471.74 132.646,475.325 137.708,479.194 140.552,479.553 142.584,479.81 145.549,477.886 149.577,475.226 153.8,474.03 157.833,472.883 171.032,466.467 166.751,463.042 160.979,458.258 135.269,436.967 103.643,388.361 93.756,373.139 84.481,357.047 L77.153,343.961 Q60.653,315.376 50.968,279.871 46.067,261.96 39.987,227.322 36.713,229.575 35.092,230.882 31.869,233.432 22.623,240.258 14.851,246.505 14.18,250.275 12.847,257.431 12.137,265.441 11.058,277.381 11.884,286.131 12.683,294.733 15.946,304.494 17.963,310.438 23.293,324.331 27.389,335.536 38.922,357.821 50.09,379.329 58.399,392.426 65.61,403.79 77.274,419.297 86.937,432.097 92.416,438.445 95.443,441.951 109.735,454.309 123.763,466.378 125.293,468.311 M114.415,192.424 Q114.269,191.854 114.727,191.499 115.23,191.227 115.333,191.118 115.516,190.856 111.124,189.331 107.254,188.173 105.01,188.626 102.747,189.144 97.584,192.307 95.305,193.699 84.227,199.133 74.28,203.957 68.673,207.901 65.192,210.373 50.625,220.07 44.031,224.492 39.987,227.322 46.067,261.96 50.968,279.871 60.653,315.376 77.153,343.961 L84.481,357.047 Q93.756,373.139 103.643,388.361 135.269,436.967 160.979,458.258 166.751,463.042 171.032,466.467 173.214,465.398 175.628,464.258 L175.428,463.987 175.628,464.258 Q176.718,463.67 177.872,463.102 205.558,449.25 207.531,448.294 217.839,443.438 227.461,435.002 233.287,429.859 237.887,424.348 240.844,420.806 241.836,419.135 243.25,416.642 242.91,414.607 242.573,412.679 240.983,411.536 238.183,409.855 235.683,408.228 232.032,405.871 224.727,399.047 217.732,392.597 210.904,385.353 210.265,384.67 209.581,383.903 203.928,377.433 194.047,362.424 191.139,357.935 188.34,353.549 183.682,346.217 179.434,339.042 174.895,331.43 157.252,294.808 150.729,281.254 146.04,271.214 144.545,268.048 143.234,265.209 137.386,252.571 135.283,247.158 115.142,195.277 114.415,192.424 M163.242,411.711 Q182.874,433.467 204.414,449.435 182.874,433.467 163.242,411.711 143.61,389.954 130.868,369.24 118.127,348.527 94.062,295.788 77.101,248.899 76.749,247.845 73.955,240.157 71.181,226.291 68.052,210.562 69.756,207.804 68.052,210.562 71.181,226.291 73.955,240.157 76.749,247.845 77.101,248.899 94.062,295.788 118.127,348.527 130.868,369.24 143.61,389.954 163.242,411.711Z" test="German Pudding" vector-effect="non-scaling-stroke" stroke-width="1"/>
      <path id="Layer1_0_1_STROKES" stroke="#F60" stroke-width="1.904" stroke-linejoin="round" stroke-linecap="round" fill="none" d="M175.628,464.258 Q173.214,465.398 171.032,466.467 157.833,472.883 153.8,474.03 149.577,475.226 145.549,477.886 142.584,479.81 140.552,479.553 137.708,479.194 132.646,475.325 128.062,471.74 125.293,468.311 123.763,466.378 109.735,454.309 95.443,441.951 92.416,438.445 86.937,432.097 77.274,419.297 65.61,403.79 58.399,392.426 50.09,379.329 38.922,357.821 27.389,335.536 23.293,324.331 17.963,310.438 15.946,304.494 12.683,294.733 11.884,286.131 11.058,277.381 12.137,265.441 12.847,257.431 14.18,250.275 14.851,246.505 22.623,240.258 31.869,233.432 35.092,230.882 36.713,229.575 39.987,227.322 44.031,224.492 50.625,220.07 65.192,210.373 68.673,207.901 74.28,203.957 84.227,199.133 95.305,193.699 97.584,192.307 102.747,189.144 105.01,188.626 107.254,188.173 111.124,189.331 115.516,190.856 115.333,191.118 115.23,191.227 114.727,191.499 114.269,191.854 114.415,192.424 115.142,195.277 135.283,247.158 137.386,252.571 143.234,265.209 144.545,268.048 146.03,271.246 150.729,281.254 157.252,294.808 174.895,331.43 179.434,339.042 183.682,346.217 188.34,353.549 191.139,357.935 194.047,362.424 203.928,377.433 209.581,383.903 210.265,384.67 210.904,385.353 217.732,392.597 224.727,399.047 232.032,405.871 235.683,408.228 238.183,409.855 240.983,411.536 242.573,412.679 242.91,414.607 243.25,416.642 241.836,419.135 240.844,420.806 237.887,424.348 233.287,429.859 227.461,435.002 217.839,443.438 207.531,448.294 205.558,449.25 177.872,463.102 176.718,463.67 175.628,464.258 L175.428,463.987" test="German Pudding"/>
      <path id="Layer1_0_2_STROKES" stroke="#F00" stroke-width="1.904" stroke-linejoin="round" stroke-linecap="round" fill="none" d="M39.987,227.322 Q46.067,261.96 50.968,279.871 60.653,315.376 77.153,343.961 L84.481,357.047 Q93.756,373.139 103.643,388.361 135.269,436.967 160.979,458.258 166.751,463.042 171.032,466.467 M69.756,207.804 Q68.052,210.562 71.181,226.291 73.955,240.157 76.749,247.845 77.101,248.899 94.062,295.788 118.127,348.527 130.868,369.24 143.61,389.954 163.242,411.711 182.874,433.467 204.414,449.435" test="German Pudding"/>
      <g id="Cherry1">
        <path fill="#000" stroke="none" d="M150.08,221.61 Q155.176,223.135 159.869,220.604 164.562,218.072 166.086,212.977 167.611,207.881 165.08,203.189 162.549,198.496 157.453,196.971 152.358,195.446 147.665,197.978 142.972,200.509 141.447,205.604 139.923,210.7 142.454,215.393 144.985,220.085 150.08,221.61Z" test="Cherry1" vector-effect="non-scaling-stroke" stroke-width="1"/>
        <path id="Layer5_0_1_STROKES" stroke="#0F0" stroke-width="1.904" stroke-linejoin="round" stroke-linecap="round" fill="none" d="M166.973,208.604 Q173.34,206.468 181.555,210.367 181.642,210.428 181.706,210.448 187.415,213.21 188.861,215.189 189.016,215.376 189.129,215.585" test="Cherry1"/>
        <path id="Layer5_0_2_STROKES" stroke="#F00" stroke-width="1.904" stroke-linejoin="round" stroke-linecap="round" fill="none" d="M159.869,220.604 Q155.176,223.135 150.08,221.61 144.985,220.085 142.454,215.393 139.923,210.7 141.447,205.604 142.972,200.509 147.665,197.978 152.358,195.446 157.453,196.971 162.549,198.496 165.08,203.189 167.611,207.881 166.086,212.977 164.562,218.072 159.869,220.604Z" test="Cherry1"/>
      </g>
      <g id="Cherry2">
        <path fill="#000" stroke="none" d="M187.451,253.603 Q186.944,251.659 185.927,249.774 182.604,243.614 175.896,241.607 169.188,239.6 163.029,242.922 156.87,246.244 154.863,252.952 152.855,259.66 156.178,265.82 159.5,271.979 166.208,273.986 172.916,275.993 179.075,272.671 185.234,269.349 187.242,262.641 188.631,257.997 187.451,253.603 187.261,253.652 187.029,253.723 187.261,253.652 187.451,253.603Z" test="Cherry2" vector-effect="non-scaling-stroke" stroke-width="1"/>
        <path id="Layer6_0_1_STROKES" stroke="#F00" stroke-width="1.904" stroke-linejoin="round" stroke-linecap="round" fill="none" d="M187.451,253.603 Q188.631,257.997 187.242,262.641 185.234,269.349 179.075,272.671 172.916,275.993 166.208,273.986 159.5,271.979 156.178,265.82 152.855,259.66 154.863,252.952 156.87,246.244 163.029,242.922 169.188,239.6 175.896,241.607 182.604,243.614 185.927,249.774 186.944,251.659 187.451,253.603 187.261,253.652 187.029,253.723" test="Cherry2"/>
        <path id="Layer6_0_2_STROKES" stroke="#0F0" stroke-width="1.904" stroke-linejoin="round" stroke-linecap="round" fill="none" d="M187.451,253.603 Q199.292,250.083 205.802,250.52 210.887,251.726 212.951,251.641" test="Cherry2"/>
      </g>
      <g id="Cherry3">
        <path fill="#000" stroke="none" d="M225.419,295.876 Q227.33,289.491 224.143,283.583 223.917,283.164 223.649,282.767 223.63,282.832 223.569,282.919 222.586,284.206 221.003,284.681 222.586,284.206 223.569,282.919 223.63,282.832 223.649,282.767 220.505,277.54 214.548,275.722 208.121,273.834 202.213,277.021 196.305,280.207 194.395,286.593 192.465,293.043 195.651,298.951 198.838,304.859 205.265,306.747 211.673,308.699 217.581,305.513 223.489,302.326 225.419,295.876Z" test="Cherry3" vector-effect="non-scaling-stroke" stroke-width="1"/>
        <path id="Layer7_0_1_STROKES" stroke="#0F0" stroke-width="1.904" stroke-linejoin="round" stroke-linecap="round" fill="none" d="M223.649,282.767 Q224.503,281.441 225.06,280.87 227.148,278.825 234.736,281.06 237.961,282.025 242.154,283.983 244.251,284.961 245.96,285.824 M221.003,284.681 Q222.586,284.206 223.569,282.919 223.63,282.832 223.649,282.767" test="Cherry3"/>
        <path id="Layer7_0_2_STROKES" stroke="#F00" stroke-width="1.904" stroke-linejoin="round" stroke-linecap="round" fill="none" d="M223.649,282.767 Q223.917,283.164 224.143,283.583 227.33,289.491 225.419,295.876 223.489,302.326 217.581,305.513 211.673,308.699 205.265,306.747 198.838,304.859 195.651,298.951 192.465,293.043 194.395,286.593 196.305,280.207 202.213,277.021 208.121,273.834 214.548,275.722 220.505,277.54 223.649,282.767Z" test="Cherry3"/>
      </g>
      <g id="Cherry4">
        <path fill="#000" stroke="none" d="M231.334,341.941 Q232.743,337.232 231.327,332.803 228.084,334.011 226.534,334.145 228.084,334.011 231.327,332.803 230.875,331.262 230.084,329.796 226.942,323.972 220.621,322.08 214.3,320.189 208.476,323.33 202.652,326.472 200.761,332.793 198.869,339.114 202.011,344.938 205.152,350.762 211.473,352.653 217.794,354.545 223.618,351.403 229.442,348.262 231.334,341.941Z" test="Cherry4" vector-effect="non-scaling-stroke" stroke-width="1"/>
        <path id="Layer8_0_1_STROKES" stroke="#0F0" stroke-width="1.904" stroke-linejoin="round" stroke-linecap="round" fill="none" d="M231.327,332.803 Q231.769,332.619 232.21,332.435 236.165,330.842 240.267,330.524 243.113,330.286 246.916,331.318 250.202,332.196 252.715,333.546 M226.534,334.145 Q228.084,334.011 231.327,332.803" test="Cherry4"/>
        <path id="Layer8_0_2_STROKES" stroke="#F00" stroke-width="1.904" stroke-linejoin="round" stroke-linecap="round" fill="none" d="M231.327,332.803 Q232.743,337.232 231.334,341.941 229.442,348.262 223.618,351.403 217.794,354.545 211.473,352.653 205.152,350.762 202.011,344.938 198.869,339.114 200.761,332.793 202.652,326.472 208.476,323.33 214.3,320.189 220.621,322.08 226.942,323.972 230.084,329.796 230.875,331.262 231.327,332.803Z" test="Cherry4"/>
      </g>
      <g id="Cherry5">
        <path fill="#000" stroke="none" d="M261.036,364.496 Q262.387,359.981 260.811,355.855 259.96,355.881 259.428,355.898 259.96,355.881 260.811,355.855 260.462,354.907 259.965,353.985 257.253,348.957 251.77,347.317 246.288,345.676 241.26,348.388 236.232,351.1 234.591,356.583 232.951,362.065 235.663,367.093 238.375,372.121 243.857,373.762 249.34,375.402 254.368,372.69 259.396,369.978 261.036,364.496Z" test="Cherry5" vector-effect="non-scaling-stroke" stroke-width="1"/>
        <path id="Layer9_0_1_STROKES" stroke="#0F0" stroke-width="1.904" stroke-linejoin="round" stroke-linecap="round" fill="none" d="M260.811,355.855 Q263.403,355.647 268.82,355.159 274.94,355.374 275.746,360.078 M259.428,355.898 Q259.96,355.881 260.811,355.855" test="Cherry5"/>
        <path id="Layer9_0_2_STROKES" stroke="#F00" stroke-width="1.904" stroke-linejoin="round" stroke-linecap="round" fill="none" d="M260.811,355.855 Q262.387,359.981 261.036,364.496 259.396,369.978 254.368,372.69 249.34,375.402 243.857,373.762 238.375,372.121 235.663,367.093 232.951,362.065 234.591,356.583 236.232,351.1 241.26,348.388 246.288,345.676 251.77,347.317 257.253,348.957 259.965,353.985 260.462,354.907 260.811,355.855Z" test="Cherry5"/>
      </g>
    </g>
  </g>
</svg>