<?xml version="1.0" encoding="utf-8"?>
<svg id="EdithAnim08" image-rendering="inherit" baseProfile="basic" version="1.1" x="0px" y="0px" width="800" height="600" xmlns="http://www.w3.org/2000/svg" xmlns:xlink="http://www.w3.org/1999/xlink">
  <g id="German-Puddingf66r1" overflow="visible">
    <g id="German">
      <path id="Layer4_0_1_STROKES" stroke="#F60" stroke-width="2.456" stroke-linejoin="round" stroke-linecap="round" fill="none" d="M479.423,89.128 Q479.116,85.137 479.116,84.4 479.116,78.199 483.66,72.919 486.914,69.173 494.528,64.138 505.395,56.955 507.422,55.358 514.544,49.894 518.105,43 L518.412,43 Q514.176,59.165 512.334,64.323 508.158,75.743 503.676,78.997 500.238,81.576 488.756,85.874 480.283,89.005 480.037,92.505 L480.037,92.751 480.037,92.812 M480.037,92.751 Q477.888,88.269 489.861,78.015 495.94,72.796 503.185,66.901 M294.916,167.106 Q311.371,173.185 328.993,172.387 345.51,171.159 361.904,170.422 379.403,169.931 397.086,171.65 412.988,173.185 429.014,174.474 447.495,174.904 465.056,169.746 475.494,166.676 485.195,161.949 M488.94,189.517 Q472.792,193.078 456.214,193 441.171,194.92 426.312,194.982 415.506,195.043 404.515,194.982 L400.217,194.736 Q383.025,194.92 366.079,194.859 348.58,193.631 331.081,191.421 314.81,189.21 298.539,187.491 295.223,187.123 291.908,186.754" test="German"/>
      <path id="Layer4_0_2_STROKES" stroke="#0FF" stroke-width="2.456" stroke-linejoin="round" stroke-linecap="round" fill="none" d="M480.037,92.812 Q481.756,96.312 481.941,99.014 482.248,103.557 483.967,123.267 485.747,143.59 486.239,147.52 486.239,147.642 487.835,158.817 488.326,158.633 492.993,158.572 501.527,158.449 508.957,159.8 512.088,160.352 519.824,159.554 527.07,158.756 529.526,159.493 532.166,160.291 532.657,162.194 533.701,166.308 535.973,169.931 539.718,175.886 540.823,183.316 541.867,190.07 540.885,199.403 539.35,213.647 527.07,221.2 523.14,223.594 508.22,225.006 498.764,225.866 478.257,226.726 471.196,227.033 421.953,226.726 377.008,226.48 364.053,227.647 349.931,228.936 310.143,231.453 271.216,233.848 267.041,234.094 261.208,234.462 255.804,232.006 251.015,229.857 248.928,226.726 247.024,223.901 247.024,222.796 246.963,221.691 248.621,218.744 250.033,216.288 254.945,214.077 257.769,212.849 263.357,210.762 265.874,209.718 271.953,207.016 277.356,204.744 279.628,204.008 280.794,203.639 284.171,202.657 286.32,202.043 287.61,201.552 M288.838,211.99 Q288.96,201.859 291.969,176.93 295.837,144.45 300.811,133.091 305.538,122.284 305.661,116.82 305.109,110.373 305.723,103.312 306.582,93.917 309.161,88.269 310.266,85.69 315.547,77.831 319.906,71.322 321.441,69.971 323.59,68.068 327.52,68.314 330.344,68.498 334.642,68.559 338.203,68.866 341.335,70.463 342.747,71.199 347.229,72.98 350.176,74.208 352.694,75.989 355.272,77.831 356.439,80.041 357.667,82.251 358.158,82.62 358.465,82.067 358.834,81.515 L362.211,77.217 Q366.447,72.55 370.5,71.077 374.736,69.542 377.99,69.296 380.569,69.173 390.762,68.928 402.059,68.498 407.831,68.989 414.953,69.603 419.313,71.998 425.453,75.375 427.356,76.848 431.163,79.734 434.663,84.892 L441.417,94.654 444.057,92.567 Q447.434,90.049 450.934,87.962 453.083,86.672 456.828,82.681 459.407,79.918 461.986,79.98 467.819,80.041 468.064,80.102 471.011,80.532 473.038,82.743 476.108,86.12 478.502,90.049 479.362,91.461 480.037,92.751 M441.417,94.654 Q445.469,100.487 447.864,103.312 450.565,106.504 451.425,107.978 452.591,110.004 453.083,112.829 454.004,118.355 454.311,118.662 M487.835,158.817 Q488.081,160.475 488.326,162.378 489.861,173.615 489.923,176.071 L490.291,180.123 Q490.721,184.544 491.151,186.509 M525.78,172.816 Q519.272,189.272 500.422,194.061 483.414,198.543 465.915,200.569 449.828,202.78 434.294,207.139 418.392,211.744 402.059,213.893 385.113,216.533 367.982,218.805 351.588,220.954 334.765,222.059 317.634,223.103 300.872,225.805 282.759,228.629 264.646,226.848 259.673,226.48 254.761,225.498 M338.879,114.978 Q340.659,110.864 342.133,107.794 344.896,102.022 348.396,96.865 350.115,94.347 354.167,88.514 356.132,85.69 358.158,82.62" test="German"/>
      <path id="Layer4_0_3_STROKES" stroke="#FEB7AE" stroke-width="2.456" stroke-linejoin="round" stroke-linecap="round" fill="none" d="M384.867,401.961 Q384.929,402.207 385.051,402.514 407.34,404.479 422.505,403.926 445.162,403.128 458.854,396.497 472.301,389.988 482.186,374.086 490.659,360.455 498.15,336.939 504.29,317.782 506.808,303.169 507.913,296.906 510.43,274.925 512.088,260.557 512.211,252.391 512.272,248.277 511.658,238.085 M423.856,404.417 Q420.234,406.935 419.865,413.197 419.681,416.452 420.172,420.688 419.804,430.512 419.558,432.661 M275.268,234.401 Q273.917,253.128 280.426,294.818 286.873,336.447 292.706,344.736 298.477,353.025 305.416,364.876 313.336,373.963 320.581,380.103 341.396,397.663 368.596,400.795 377.254,401.777 385.051,402.514 386.586,408.224 387.262,411.601 387.937,415.531 387.937,419.767 387.937,422.407 387.262,425.293 386.586,428.24 385.788,428.67 L385.788,428.056" test="German"/>
      <path id="Layer4_0_4_STROKES" stroke="#FFF" stroke-width="2.456" stroke-linejoin="round" stroke-linecap="round" fill="none" d="M481.572,314.221 L325.985,332.763 Q326.66,338.289 328.072,345.535 329.546,352.903 337.466,363.279 345.448,373.717 355.027,380.594 L376.087,379.734 Q400.094,378.322 414.646,375.621 435.522,371.752 446.636,369.235 461.617,365.858 466.222,363.341 471.073,360.7 472.424,359.657 472.561,359.296 472.7,358.951 474.089,355.152 474.818,351.675 477.888,341.114 479.73,334.667 483.169,322.571 482.8,316.677 482.493,311.642 483.353,306.3 484.028,302.186 483.414,300.099 482.677,297.52 481.634,297.827 473.099,300.099 472.976,300.099 459.652,302.555 450.872,304.09 434.724,306.914 425.084,308.081 408.69,310.23 400.279,311.335 385.297,313.238 377.806,313.607 371.85,313.914 361.904,315.387 353.062,316.677 348.334,316.677 340.536,316.37 337.896,316.308 333.782,316.185 331.142,317.291 328.441,318.457 327.09,319.194 L326.23,319.747 Q325.186,324.966 325.985,332.763 M443.197,260.127 Q442.583,257.057 442.583,256.627 442.583,249.075 449.03,246.005 453.635,243.856 461.924,243.856 466.959,243.856 470.336,249.505 471.994,252.391 472.976,255.522 M355.027,380.594 Q360.369,384.339 364.912,386.059 375.719,390.234 391.376,390.234 402.796,390.234 418.33,387.901 435.338,385.383 444.794,383.296 459.284,380.103 462.538,376.849 466.161,373.226 469.845,365.674 471.318,362.604 472.424,359.657 M386.095,420.688 Q380,422.162 378.175,425.048 375.964,427.197 375.964,428.854 375.964,434.81 408.506,438.801 415.874,438.801 420.97,437.819 426.005,436.775 441.048,427.749 440.987,426.214 437.241,424.434 433.496,422.592 430.549,421.916 427.602,421.179 421.4,422.223 M441.355,428.67 Q442.522,430.942 444.18,435.731 446.267,441.933 446.267,444.941 446.574,444.941 446.881,444.327 M328.686,255.829 Q329.73,248.83 335.01,244.532 340.045,240.479 346.676,240.479 350.422,240.479 352.694,244.347 354.658,247.724 355.088,252.759 L354.474,252.452 M375.964,427.442 Q375.596,430.082 374.675,435.547 373.631,442.178 373.201,443.406 L373.201,445.862 373.508,445.862" test="German"/>
    </g>
    <g id="German-Pudding">
      <path fill="#000" stroke="none" d="M296.415,347.847 Q295.003,334.599 290.716,322.053 286.408,308.782 280.113,296.43 273.741,283.8 266.834,271.26 260.802,259.364 254.982,247.474 249.038,236.22 242.073,225.595 234.638,214.296 225.082,204.871 215.861,195.606 204.994,188.676 193.374,181.255 181.002,174.813 L180.39,174.624 Q180.28,174.727 179.762,174.967 179.283,175.294 179.394,175.872 179.946,178.764 196.882,231.776 198.651,237.307 203.716,250.278 204.851,253.191 206.15,256.442 210.217,266.75 215.901,280.676 231.276,318.306 235.342,326.181 239.144,333.601 243.346,341.203 245.871,345.752 248.5,350.41 257.446,365.994 262.694,372.797 263.33,373.604 263.926,374.325 270.298,381.971 276.886,388.836 283.761,396.093 287.262,398.669 289.658,400.445 292.35,402.294 293.867,403.532 294.086,405.477 L296.489,404.889 Q304.185,392.618 300.93,378.334 300.258,375.183 299.606,372.075 L299.478,371.347 Q297.702,359.579 296.415,347.847Z" test="German Pudding" vector-effect="non-scaling-stroke" stroke-width="1"/>
      <path id="Layer3_0_1_STROKES" stroke="#FFF" stroke-width="1.904" stroke-linejoin="round" stroke-linecap="round" fill="none" d="M181.002,174.813 Q193.374,181.255 204.994,188.676 215.861,195.606 225.082,204.871 234.638,214.296 242.073,225.595 249.038,236.22 254.982,247.474 260.802,259.364 266.834,271.26 273.741,283.8 280.113,296.43 286.408,308.782 290.716,322.053 295.003,334.599 296.415,347.847 297.702,359.579 299.478,371.347 M299.606,372.075 Q300.258,375.183 300.93,378.334 304.185,392.618 296.489,404.889" test="German Pudding"/>
      <path id="Layer2_0_1_STROKES" stroke="#FFF" stroke-width="1.904" stroke-linejoin="round" stroke-linecap="round" fill="none" d="M273.798,340.692 Q278.638,340.497 280.325,341.08 282.813,341.922 288.434,346.244 293.725,350.194 294.47,350.898 296.794,352.97 298.014,355.606 300.614,361.222 295.65,370.444 293.187,375.058 289.727,380.085 289.63,380.222 289.538,380.356 M188.906,186.786 Q199.292,186.332 208.933,190.839 213.281,192.866 216.176,196.456 216.408,196.757 216.256,196.629 218.28,201.818 216.078,208.2 213.928,214.546 207.044,216.107 204.266,220.646 206.619,225.274 L206.806,225.45 Q211.97,232.187 221.059,233.802 223.41,234.235 225.633,235.41 236.921,241.095 238.601,253.222 239.758,262.182 239.134,270.917 253.694,271.206 265.848,278.536 269.405,280.666 269.686,284.786 270.038,290.76 267.112,295.997 264.298,301.024 260.902,305.586 258.197,309.147 254.19,311.37 266.197,312.263 271.101,323.422 272.854,327.437 273.458,332.141 274.834,343.045 268.248,351.707 265.898,354.789 263.694,357.96 L263.71,357.428 M254.19,311.37 L243.823,317.533 244.378,316.804 M216.256,196.629 Q216.182,196.587 216.048,196.463 216.091,196.443 216.176,196.456 M206.619,225.274 Q206.659,225.361 206.719,225.49 206.762,225.47 206.806,225.45" test="German Pudding"/>
      <path fill="#000" stroke="none" d="M173.414,451.901 Q175.968,455.492 180.325,459.35 185.141,463.521 187.958,464.053 189.97,464.433 193.046,462.694 197.23,460.285 201.518,459.349 205.613,458.45 219.178,452.851 215.114,449.172 209.646,444.045 185.284,421.225 156.684,370.78 147.745,354.984 139.47,338.356 L132.954,324.848 Q118.23,295.31 110.73,259.281 106.931,241.105 102.977,206.162 99.571,208.21 97.874,209.416 94.502,211.764 84.857,218.013 76.718,223.774 75.818,227.496 74.05,234.557 72.853,242.508 71.048,254.36 71.338,263.144 71.61,271.778 74.272,281.72 75.922,287.776 80.394,301.968 83.798,313.402 93.95,336.348 103.784,358.497 111.278,372.077 117.782,383.859 128.477,400.049 137.34,413.414 142.422,420.085 145.229,423.769 158.74,436.976 172.005,449.878 173.414,451.901 M179.394,175.872 Q179.283,175.294 179.762,174.967 180.28,174.727 180.39,174.624 180.589,174.374 176.298,172.584 172.506,171.192 170.238,171.507 167.948,171.886 162.602,174.728 160.242,175.978 148.854,180.726 138.631,184.934 132.794,188.528 129.169,190.783 114.038,199.572 107.186,203.583 102.977,206.162 106.931,241.105 110.73,259.281 118.23,295.31 132.954,324.848 L139.47,338.356 Q147.745,354.984 156.684,370.78 185.284,421.225 209.646,444.045 215.114,449.172 219.178,452.851 221.422,451.918 223.901,450.927 L223.718,450.645 223.901,450.927 Q225.024,450.407 226.21,449.91 254.69,437.774 256.718,436.941 267.302,432.722 277.421,424.89 283.55,420.112 288.478,414.893 291.646,411.538 292.738,409.93 294.301,407.528 294.086,405.477 293.867,403.532 292.35,402.294 289.658,400.445 287.262,398.669 283.761,396.093 276.886,388.836 270.298,381.971 263.926,374.325 263.33,373.604 262.694,372.797 257.446,365.994 248.5,350.41 245.871,345.752 243.346,341.203 239.144,333.601 235.342,326.181 231.276,318.306 215.901,280.676 210.217,266.75 206.15,256.442 204.851,253.191 203.716,250.278 198.651,237.307 196.882,231.776 179.946,178.764 179.394,175.872 M214.745,397.723 Q233.012,420.637 253.537,437.889 233.012,420.637 214.745,397.723 196.478,374.81 185.025,353.358 173.572,331.906 152.771,277.798 138.704,229.962 138.417,228.889 136.097,221.045 134.175,207.036 132.012,191.146 133.881,188.497 132.012,191.146 134.175,207.036 136.097,221.045 138.417,228.889 138.704,229.962 152.771,277.798 173.572,331.906 185.025,353.358 196.478,374.81 214.745,397.723Z" test="German Pudding" vector-effect="non-scaling-stroke" stroke-width="1"/>
      <path id="Layer1_0_1_STROKES" stroke="#F60" stroke-width="1.904" stroke-linejoin="round" stroke-linecap="round" fill="none" d="M223.901,450.927 Q221.422,451.918 219.178,452.851 205.613,458.45 201.518,459.349 197.23,460.285 193.046,462.694 189.97,464.433 187.958,464.053 185.141,463.521 180.325,459.35 175.968,455.492 173.414,451.901 172.005,449.878 158.74,436.976 145.229,423.769 142.422,420.085 137.34,413.414 128.477,400.049 117.782,383.859 111.278,372.077 103.784,358.497 93.95,336.348 83.798,313.402 80.394,301.968 75.922,287.776 74.272,281.72 71.61,271.778 71.338,263.144 71.048,254.36 72.853,242.508 74.05,234.557 75.818,227.496 76.718,223.774 84.857,218.013 94.502,211.764 97.874,209.416 99.571,208.21 102.977,206.162 107.186,203.583 114.038,199.572 129.169,190.783 132.794,188.528 138.631,184.934 148.854,180.726 160.242,175.978 162.602,174.728 167.948,171.886 170.238,171.507 172.506,171.192 176.298,172.584 180.589,174.374 180.39,174.624 180.28,174.727 179.762,174.967 179.283,175.294 179.394,175.872 179.946,178.764 196.882,231.776 198.651,237.307 203.716,250.278 204.851,253.191 206.139,256.474 210.217,266.75 215.901,280.676 231.276,318.306 235.342,326.181 239.144,333.601 243.346,341.203 245.871,345.752 248.5,350.41 257.446,365.994 262.694,372.797 263.33,373.604 263.926,374.325 270.298,381.971 276.886,388.836 283.761,396.093 287.262,398.669 289.658,400.445 292.35,402.294 293.867,403.532 294.086,405.477 294.301,407.528 292.738,409.93 291.646,411.538 288.478,414.893 283.55,420.112 277.421,424.89 267.302,432.722 256.718,436.941 254.69,437.774 226.21,449.91 225.024,450.407 223.901,450.927 L223.718,450.645" test="German Pudding"/>
      <path id="Layer1_0_2_STROKES" stroke="#F00" stroke-width="1.904" stroke-linejoin="round" stroke-linecap="round" fill="none" d="M102.977,206.162 Q106.931,241.105 110.73,259.281 118.23,295.31 132.954,324.848 L139.47,338.356 Q147.745,354.984 156.684,370.78 185.284,421.225 209.646,444.045 215.114,449.172 219.178,452.851 M133.881,188.497 Q132.012,191.146 134.175,207.036 136.097,221.045 138.417,228.889 138.704,229.962 152.771,277.798 173.572,331.906 185.025,353.358 196.478,374.81 214.745,397.723 233.012,420.637 253.537,437.889" test="German Pudding"/>
      <g id="Cherry1">
        <path fill="#000" stroke="none" d="M213.184,207.214 Q218.176,209.047 223.015,206.807 227.853,204.567 229.686,199.574 231.519,194.582 229.279,189.743 227.039,184.905 222.046,183.072 217.053,181.239 212.215,183.479 207.376,185.719 205.544,190.712 203.711,195.705 205.951,200.543 208.191,205.382 213.184,207.214Z" test="Cherry1" vector-effect="non-scaling-stroke" stroke-width="1"/>
        <path id="Layer5_0_1_STROKES" stroke="#0F0" stroke-width="1.904" stroke-linejoin="round" stroke-linecap="round" fill="none" d="M230.838,195.264 Q237.323,193.521 245.284,197.914 245.368,197.98 245.431,198.003 250.96,201.109 252.283,203.172 252.426,203.368 252.526,203.584" test="Cherry1"/>
        <path id="Layer5_0_2_STROKES" stroke="#F00" stroke-width="1.904" stroke-linejoin="round" stroke-linecap="round" fill="none" d="M223.015,206.807 Q218.176,209.047 213.184,207.214 208.191,205.382 205.951,200.543 203.711,195.705 205.544,190.712 207.376,185.719 212.215,183.479 217.053,181.239 222.046,183.072 227.039,184.905 229.279,189.743 231.519,194.582 229.686,199.574 227.853,204.567 223.015,206.807Z" test="Cherry1"/>
      </g>
      <g id="Cherry2">
        <path fill="#000" stroke="none" d="M248.513,241.385 Q248.125,239.414 247.225,237.47 244.285,231.12 237.712,228.707 231.139,226.294 224.789,229.234 218.438,232.174 216.026,238.747 213.613,245.32 216.553,251.67 219.493,258.02 226.066,260.433 232.638,262.846 238.989,259.906 245.339,256.966 247.752,250.393 249.422,245.843 248.513,241.385 248.32,241.422 248.084,241.479 248.32,241.422 248.513,241.385Z" test="Cherry2" vector-effect="non-scaling-stroke" stroke-width="1"/>
        <path id="Layer6_0_1_STROKES" stroke="#F00" stroke-width="1.904" stroke-linejoin="round" stroke-linecap="round" fill="none" d="M248.513,241.385 Q249.422,245.843 247.752,250.393 245.339,256.966 238.989,259.906 232.638,262.846 226.066,260.433 219.493,258.02 216.553,251.67 213.613,245.32 216.026,238.747 218.438,232.174 224.789,229.234 231.139,226.294 237.712,228.707 244.285,231.12 247.225,237.47 248.125,239.414 248.513,241.385 248.32,241.422 248.084,241.479" test="Cherry2"/>
        <path id="Layer6_0_2_STROKES" stroke="#0F0" stroke-width="1.904" stroke-linejoin="round" stroke-linecap="round" fill="none" d="M248.513,241.385 Q260.546,238.595 267.017,239.428 272.019,240.942 274.084,240.983" test="Cherry2"/>
      </g>
      <g id="Cherry3">
        <path fill="#000" stroke="none" d="M283.86,285.868 Q286.157,279.611 283.337,273.52 283.137,273.088 282.894,272.676 282.87,272.739 282.804,272.822 281.745,274.047 280.136,274.425 281.745,274.047 282.804,272.822 282.87,272.739 282.894,272.676 280.074,267.266 274.24,265.089 267.94,262.812 261.849,265.632 255.758,268.452 253.461,274.709 251.141,281.029 253.961,287.12 256.781,293.211 263.081,295.488 269.358,297.828 275.449,295.008 281.54,292.188 283.86,285.868Z" test="Cherry3" vector-effect="non-scaling-stroke" stroke-width="1"/>
        <path id="Layer7_0_1_STROKES" stroke="#0F0" stroke-width="1.904" stroke-linejoin="round" stroke-linecap="round" fill="none" d="M282.894,272.676 Q283.826,271.405 284.418,270.869 286.626,268.954 294.064,271.649 297.224,272.809 301.29,275.018 303.322,276.123 304.976,277.089 M280.136,274.425 Q281.745,274.047 282.804,272.822 282.87,272.739 282.894,272.676" test="Cherry3"/>
        <path id="Layer7_0_2_STROKES" stroke="#F00" stroke-width="1.904" stroke-linejoin="round" stroke-linecap="round" fill="none" d="M282.894,272.676 Q283.137,273.088 283.337,273.52 286.157,279.611 283.86,285.868 281.54,292.188 275.449,295.008 269.358,297.828 263.081,295.488 256.781,293.211 253.961,287.12 251.141,281.029 253.461,274.709 255.758,268.452 261.849,265.632 267.94,262.812 274.24,265.089 280.074,267.266 282.894,272.676Z" test="Cherry3"/>
      </g>
      <g id="Cherry4">
        <path fill="#000" stroke="none" d="M286.977,332.268 Q288.671,327.655 287.528,323.148 284.218,324.156 282.662,324.194 284.218,324.156 287.528,323.148 287.171,321.582 286.471,320.07 283.691,314.065 277.497,311.792 271.304,309.518 265.299,312.298 259.294,315.078 257.02,321.272 254.747,327.465 257.527,333.47 260.307,339.475 266.5,341.748 272.694,344.022 278.699,341.242 284.704,338.462 286.977,332.268Z" test="Cherry4" vector-effect="non-scaling-stroke" stroke-width="1"/>
        <path id="Layer8_0_1_STROKES" stroke="#0F0" stroke-width="1.904" stroke-linejoin="round" stroke-linecap="round" fill="none" d="M287.528,323.148 Q287.98,322.991 288.432,322.834 292.477,321.486 296.59,321.418 299.446,321.355 303.178,322.617 306.404,323.694 308.83,325.194 M282.662,324.194 Q284.218,324.156 287.528,323.148" test="Cherry4"/>
        <path id="Layer8_0_2_STROKES" stroke="#F00" stroke-width="1.904" stroke-linejoin="round" stroke-linecap="round" fill="none" d="M287.528,323.148 Q288.671,327.655 286.977,332.268 284.704,338.462 278.699,341.242 272.694,344.022 266.5,341.748 260.307,339.475 257.527,333.47 254.747,327.465 257.02,321.272 259.294,315.078 265.299,312.298 271.304,309.518 277.497,311.792 283.691,314.065 286.471,320.07 287.171,321.582 287.528,323.148Z" test="Cherry4"/>
      </g>
      <g id="Cherry5">
        <path fill="#000" stroke="none" d="M315.215,356.586 Q316.839,352.162 315.518,347.948 314.666,347.922 314.134,347.906 314.666,347.922 315.518,347.948 315.227,346.98 314.787,346.03 312.387,340.846 307.015,338.874 301.643,336.902 296.459,339.302 291.275,341.702 289.303,347.074 287.331,352.446 289.731,357.63 292.131,362.814 297.503,364.786 302.875,366.758 308.059,364.358 313.243,361.958 315.215,356.586Z" test="Cherry5" vector-effect="non-scaling-stroke" stroke-width="1"/>
        <path id="Layer9_0_1_STROKES" stroke="#0F0" stroke-width="1.904" stroke-linejoin="round" stroke-linecap="round" fill="none" d="M315.518,347.948 Q318.118,347.898 323.554,347.742 329.649,348.33 330.166,353.074 M314.134,347.906 Q314.666,347.922 315.518,347.948" test="Cherry5"/>
        <path id="Layer9_0_2_STROKES" stroke="#F00" stroke-width="1.904" stroke-linejoin="round" stroke-linecap="round" fill="none" d="M315.518,347.948 Q316.839,352.162 315.215,356.586 313.243,361.958 308.059,364.358 302.875,366.758 297.503,364.786 292.131,362.814 289.731,357.63 287.331,352.446 289.303,347.074 291.275,341.702 296.459,339.302 301.643,336.902 307.015,338.874 312.387,340.846 314.787,346.03 315.227,346.98 315.518,347.948Z" test="Cherry5"/>
      </g>
    </g>
  </g>
</svg>