<?xml version="1.0" encoding="utf-8"?>
<svg id="EdithAnim08" image-rendering="inherit" baseProfile="basic" version="1.1" x="0px" y="0px" width="800" height="600" xmlns="http://www.w3.org/2000/svg" xmlns:xlink="http://www.w3.org/1999/xlink">
  <g id="German-Puddingf67r1" overflow="visible">
    <g id="German">
      <path id="Layer4_0_1_STROKES" stroke="#F60" stroke-width="2.456" stroke-linejoin="round" stroke-linecap="round" fill="none" d="M479.423,89.128 Q479.116,85.137 479.116,84.4 479.116,78.199 483.66,72.919 486.914,69.173 494.528,64.138 505.395,56.955 507.422,55.358 514.544,49.894 518.105,43 L518.412,43 Q514.176,59.165 512.334,64.323 508.158,75.743 503.676,78.997 500.238,81.576 488.756,85.874 480.283,89.005 480.037,92.505 L480.037,92.751 480.037,92.812 M480.037,92.751 Q477.888,88.269 489.861,78.015 495.94,72.796 503.185,66.901 M294.916,167.106 Q311.371,173.185 328.993,172.387 345.51,171.159 361.904,170.422 379.403,169.931 397.086,171.65 412.988,173.185 429.014,174.474 447.495,174.904 465.056,169.746 475.494,166.676 485.195,161.949 M488.94,189.517 Q472.792,193.078 456.214,193 441.171,194.92 426.312,194.982 415.506,195.043 404.515,194.982 L400.217,194.736 Q383.025,194.92 366.079,194.859 348.58,193.631 331.081,191.421 314.81,189.21 298.539,187.491 295.223,187.123 291.908,186.754" test="German"/>
      <path id="Layer4_0_2_STROKES" stroke="#0FF" stroke-width="2.456" stroke-linejoin="round" stroke-linecap="round" fill="none" d="M480.037,92.812 Q481.756,96.312 481.941,99.014 482.248,103.557 483.967,123.267 485.747,143.59 486.239,147.52 486.239,147.642 487.835,158.817 488.326,158.633 492.993,158.572 501.527,158.449 508.957,159.8 512.088,160.352 519.824,159.554 527.07,158.756 529.526,159.493 532.166,160.291 532.657,162.194 533.701,166.308 535.973,169.931 539.718,175.886 540.823,183.316 541.867,190.07 540.885,199.403 539.35,213.647 527.07,221.2 523.14,223.594 508.22,225.006 498.764,225.866 478.257,226.726 471.196,227.033 421.953,226.726 377.008,226.48 364.053,227.647 349.931,228.936 310.143,231.453 271.216,233.848 267.041,234.094 261.208,234.462 255.804,232.006 251.015,229.857 248.928,226.726 247.024,223.901 247.024,222.796 246.963,221.691 248.621,218.744 250.033,216.288 254.945,214.077 257.769,212.849 263.357,210.762 265.874,209.718 271.953,207.016 277.356,204.744 279.628,204.008 280.794,203.639 284.171,202.657 286.32,202.043 287.61,201.552 M288.838,211.99 Q288.96,201.859 291.969,176.93 295.837,144.45 300.811,133.091 305.538,122.284 305.661,116.82 305.109,110.373 305.723,103.312 306.582,93.917 309.161,88.269 310.266,85.69 315.547,77.831 319.906,71.322 321.441,69.971 323.59,68.068 327.52,68.314 330.344,68.498 334.642,68.559 338.203,68.866 341.335,70.463 342.747,71.199 347.229,72.98 350.176,74.208 352.694,75.989 355.272,77.831 356.439,80.041 357.667,82.251 358.158,82.62 358.465,82.067 358.834,81.515 L362.211,77.217 Q366.447,72.55 370.5,71.077 374.736,69.542 377.99,69.296 380.569,69.173 390.762,68.928 402.059,68.498 407.831,68.989 414.953,69.603 419.313,71.998 425.453,75.375 427.356,76.848 431.163,79.734 434.663,84.892 L441.417,94.654 444.057,92.567 Q447.434,90.049 450.934,87.962 453.083,86.672 456.828,82.681 459.407,79.918 461.986,79.98 467.819,80.041 468.064,80.102 471.011,80.532 473.038,82.743 476.108,86.12 478.502,90.049 479.362,91.461 480.037,92.751 M441.417,94.654 Q445.469,100.487 447.864,103.312 450.565,106.504 451.425,107.978 452.591,110.004 453.083,112.829 454.004,118.355 454.311,118.662 M487.835,158.817 Q488.081,160.475 488.326,162.378 489.861,173.615 489.923,176.071 L490.291,180.123 Q490.721,184.544 491.151,186.509 M525.78,172.816 Q519.272,189.272 500.422,194.061 483.414,198.543 465.915,200.569 449.828,202.78 434.294,207.139 418.392,211.744 402.059,213.893 385.113,216.533 367.982,218.805 351.588,220.954 334.765,222.059 317.634,223.103 300.872,225.805 282.759,228.629 264.646,226.848 259.673,226.48 254.761,225.498 M338.879,114.978 Q340.659,110.864 342.133,107.794 344.896,102.022 348.396,96.865 350.115,94.347 354.167,88.514 356.132,85.69 358.158,82.62" test="German"/>
      <path id="Layer4_0_3_STROKES" stroke="#FEB7AE" stroke-width="2.456" stroke-linejoin="round" stroke-linecap="round" fill="none" d="M384.867,401.961 Q384.929,402.207 385.051,402.514 407.34,404.479 422.505,403.926 445.162,403.128 458.854,396.497 472.301,389.988 482.186,374.086 490.659,360.455 498.15,336.939 504.29,317.782 506.808,303.169 507.913,296.906 510.43,274.925 512.088,260.557 512.211,252.391 512.272,248.277 511.658,238.085 M423.856,404.417 Q420.234,406.935 419.865,413.197 419.681,416.452 420.172,420.688 419.804,430.512 419.558,432.661 M275.268,234.401 Q273.917,253.128 280.426,294.818 286.873,336.447 292.706,344.736 298.477,353.025 305.416,364.876 313.336,373.963 320.581,380.103 341.396,397.663 368.596,400.795 377.254,401.777 385.051,402.514 386.586,408.224 387.262,411.601 387.937,415.531 387.937,419.767 387.937,422.407 387.262,425.293 386.586,428.24 385.788,428.67 L385.788,428.056" test="German"/>
      <path id="Layer4_0_4_STROKES" stroke="#FFF" stroke-width="2.456" stroke-linejoin="round" stroke-linecap="round" fill="none" d="M481.572,314.221 L325.985,332.763 Q326.66,338.289 328.072,345.535 329.546,352.903 337.466,363.279 345.448,373.717 355.027,380.594 L376.087,379.734 Q400.094,378.322 414.646,375.621 435.522,371.752 446.636,369.235 461.617,365.858 466.222,363.341 471.073,360.7 472.424,359.657 472.561,359.296 472.7,358.951 474.089,355.152 474.818,351.675 477.888,341.114 479.73,334.667 483.169,322.571 482.8,316.677 482.493,311.642 483.353,306.3 484.028,302.186 483.414,300.099 482.677,297.52 481.634,297.827 473.099,300.099 472.976,300.099 459.652,302.555 450.872,304.09 434.724,306.914 425.084,308.081 408.69,310.23 400.279,311.335 385.297,313.238 377.806,313.607 371.85,313.914 361.904,315.387 353.062,316.677 348.334,316.677 340.536,316.37 337.896,316.308 333.782,316.185 331.142,317.291 328.441,318.457 327.09,319.194 L326.23,319.747 Q325.186,324.966 325.985,332.763 M443.197,260.127 Q442.583,257.057 442.583,256.627 442.583,249.075 449.03,246.005 453.635,243.856 461.924,243.856 466.959,243.856 470.336,249.505 471.994,252.391 472.976,255.522 M355.027,380.594 Q360.369,384.339 364.912,386.059 375.719,390.234 391.376,390.234 402.796,390.234 418.33,387.901 435.338,385.383 444.794,383.296 459.284,380.103 462.538,376.849 466.161,373.226 469.845,365.674 471.318,362.604 472.424,359.657 M386.095,420.688 Q380,422.162 378.175,425.048 375.964,427.197 375.964,428.854 375.964,434.81 408.506,438.801 415.874,438.801 420.97,437.819 426.005,436.775 441.048,427.749 440.987,426.214 437.241,424.434 433.496,422.592 430.549,421.916 427.602,421.179 421.4,422.223 M441.355,428.67 Q442.522,430.942 444.18,435.731 446.267,441.933 446.267,444.941 446.574,444.941 446.881,444.327 M328.686,255.829 Q329.73,248.83 335.01,244.532 340.045,240.479 346.676,240.479 350.422,240.479 352.694,244.347 354.658,247.724 355.088,252.759 L354.474,252.452 M375.964,427.442 Q375.596,430.082 374.675,435.547 373.631,442.178 373.201,443.406 L373.201,445.862 373.508,445.862" test="German"/>
    </g>
    <g id="German-Pudding">
      <path fill="#000" stroke="none" d="M323.826,342.87 Q322.768,329.58 318.815,316.915 314.861,303.523 308.895,291 302.859,278.194 296.285,265.465 290.57,253.404 285.067,241.354 279.421,229.937 272.739,219.122 265.604,207.62 256.297,197.936 247.321,188.421 236.635,181.198 225.211,173.463 213.007,166.687 L212.4,166.482 Q212.287,166.582 211.762,166.809 211.275,167.122 211.37,167.704 211.844,170.612 227.367,224.095 228.989,229.675 233.708,242.786 234.765,245.731 235.978,249.018 239.771,259.438 245.083,273.521 259.456,311.575 263.312,319.561 266.917,327.085 270.916,334.803 273.321,339.421 275.826,344.151 284.357,359.979 289.425,366.925 290.04,367.75 290.616,368.487 296.787,376.306 303.193,383.35 309.875,390.793 313.308,393.464 315.658,395.304 318.301,397.226 319.786,398.505 319.952,400.457 L322.372,399.933 Q330.399,387.864 327.525,373.488 326.938,370.318 326.369,367.192 L326.261,366.46 Q324.799,354.641 323.826,342.87Z" test="German Pudding" vector-effect="non-scaling-stroke" stroke-width="1"/>
      <path id="Layer3_0_1_STROKES" stroke="#FFF" stroke-width="1.906" stroke-linejoin="round" stroke-linecap="round" fill="none" d="M213.007,166.687 Q225.211,173.463 236.635,181.198 247.321,188.421 256.297,197.936 265.604,207.62 272.739,219.122 279.421,229.937 285.067,241.354 290.57,253.404 296.285,265.465 302.859,278.194 308.895,291 314.861,303.523 318.815,316.915 322.768,329.58 323.826,342.87 324.799,354.641 326.261,366.46 M326.369,367.192 Q326.938,370.318 327.525,373.488 330.399,387.864 322.372,399.933" test="German Pudding"/>
      <path id="Layer2_0_1_STROKES" stroke="#FFF" stroke-width="1.906" stroke-linejoin="round" stroke-linecap="round" fill="none" d="M301.392,335.107 Q306.24,335.041 307.911,335.67 310.378,336.578 315.885,341.053 321.072,345.146 321.799,345.87 324.067,348.005 325.217,350.674 327.668,356.361 322.456,365.454 319.868,370.004 316.272,374.939 316.171,375.074 316.076,375.206 M220.593,178.877 Q230.995,178.7 240.518,183.467 244.813,185.611 247.613,189.28 247.837,189.587 247.689,189.455 249.574,194.7 247.201,201.025 244.88,207.316 237.952,208.693 235.052,213.159 237.282,217.852 L237.463,218.033 Q242.45,224.91 251.498,226.769 253.839,227.265 256.03,228.5 267.17,234.489 268.526,246.666 269.444,255.659 268.585,264.38 283.142,265.059 295.104,272.717 298.605,274.944 298.776,279.072 298.969,285.058 295.901,290.218 292.952,295.171 289.433,299.644 286.631,303.134 282.563,305.25 294.55,306.465 299.157,317.759 300.804,321.822 301.282,326.544 302.366,337.488 295.546,345.977 293.112,348.997 290.823,352.11 L290.853,351.578 M282.563,305.25 L272.028,311.137 272.602,310.423 M247.689,189.455 Q247.616,189.411 247.485,189.283 247.529,189.265 247.613,189.28 M237.282,217.852 Q237.319,217.939 237.376,218.071 237.42,218.052 237.463,218.033" test="German Pudding"/>
      <path fill="#000" stroke="none" d="M197.997,443.665 Q200.456,447.326 204.711,451.302 209.417,455.603 212.22,456.211 214.223,456.645 217.347,454.987 221.596,452.69 225.911,451.868 230.032,451.078 243.752,445.841 239.785,442.052 234.451,436.777 210.693,413.297 183.434,362.069 174.914,346.029 167.082,329.173 L160.925,315.486 Q146.987,285.545 140.449,249.302 137.136,231.018 134.116,195.958 130.655,197.916 128.924,199.076 125.488,201.335 115.673,207.328 107.377,212.873 106.377,216.572 104.42,223.588 103.009,231.51 100.886,243.317 100.941,252.112 100.982,260.757 103.379,270.773 104.867,276.875 108.96,291.191 112.06,302.72 121.6,325.946 130.845,348.366 137.977,362.151 144.168,374.111 154.433,390.593 162.942,404.2 167.846,411.009 170.556,414.769 183.718,428.343 196.642,441.604 197.997,443.665 M211.37,167.704 Q211.275,167.122 211.762,166.809 212.287,166.582 212.4,166.482 212.605,166.238 208.361,164.332 204.605,162.838 202.328,163.093 200.027,163.41 194.603,166.11 192.209,167.297 180.69,171.741 170.351,175.677 164.415,179.116 160.729,181.275 145.357,189.662 138.396,193.491 134.116,195.958 137.136,231.018 140.449,249.302 146.987,285.545 160.925,315.486 L167.082,329.173 Q174.914,346.029 183.434,362.069 210.693,413.297 234.451,436.777 239.785,442.052 243.752,445.841 246.021,444.967 248.527,444.043 L248.351,443.756 248.527,444.043 Q249.665,443.553 250.865,443.088 279.679,431.71 281.729,430.931 292.431,426.994 302.762,419.431 309.021,414.815 314.09,409.726 317.349,406.454 318.485,404.876 320.113,402.514 319.952,400.457 319.786,398.505 318.301,397.226 315.658,395.304 313.308,393.464 309.875,390.793 303.193,383.35 296.787,376.306 290.616,368.487 290.04,367.75 289.425,366.925 284.357,359.979 275.826,344.151 273.321,339.421 270.916,334.803 266.917,327.085 263.312,319.561 259.456,311.575 245.083,273.521 239.771,259.438 235.978,249.018 234.765,245.731 233.708,242.786 228.989,229.675 227.367,224.095 211.844,170.612 211.37,167.704 M240.793,390.576 Q258.452,413.987 278.522,431.794 258.452,413.987 240.793,390.576 223.133,367.166 212.251,345.4 201.368,323.634 182.009,268.951 169.218,220.723 168.96,219.641 166.849,211.733 165.302,197.668 163.563,181.714 165.504,179.114 163.563,181.714 165.302,197.668 166.849,211.733 168.96,219.641 169.218,220.723 182.009,268.951 201.368,323.634 212.251,345.4 223.133,367.166 240.793,390.576Z" test="German Pudding" vector-effect="non-scaling-stroke" stroke-width="1"/>
      <path id="Layer1_0_1_STROKES" stroke="#F60" stroke-width="1.906" stroke-linejoin="round" stroke-linecap="round" fill="none" d="M248.527,444.043 Q246.021,444.967 243.752,445.841 230.032,451.078 225.911,451.868 221.596,452.69 217.347,454.987 214.223,456.645 212.22,456.211 209.417,455.603 204.711,451.302 200.456,447.326 197.997,443.665 196.642,441.604 183.718,428.343 170.556,414.769 167.846,411.009 162.942,404.2 154.433,390.593 144.168,374.111 137.977,362.151 130.845,348.366 121.6,325.946 112.06,302.72 108.96,291.191 104.867,276.875 103.379,270.773 100.982,260.757 100.941,252.112 100.886,243.317 103.009,231.51 104.42,223.588 106.377,216.572 107.377,212.873 115.673,207.328 125.488,201.335 128.924,199.076 130.655,197.916 134.116,195.958 138.396,193.491 145.357,189.662 160.729,181.275 164.415,179.116 170.351,175.677 180.69,171.741 192.209,167.297 194.603,166.11 200.027,163.41 202.328,163.093 204.605,162.838 208.361,164.332 212.605,166.238 212.4,166.482 212.287,166.582 211.762,166.809 211.275,167.122 211.37,167.704 211.844,170.612 227.367,224.095 228.989,229.675 233.708,242.786 234.765,245.731 235.966,249.049 239.771,259.438 245.083,273.521 259.456,311.575 263.312,319.561 266.917,327.085 270.916,334.803 273.321,339.421 275.826,344.151 284.357,359.979 289.425,366.925 290.04,367.75 290.616,368.487 296.787,376.306 303.193,383.35 309.875,390.793 313.308,393.464 315.658,395.304 318.301,397.226 319.786,398.505 319.952,400.457 320.113,402.514 318.485,404.876 317.349,406.454 314.09,409.726 309.021,414.815 302.762,419.431 292.431,426.994 281.729,430.931 279.679,431.71 250.865,443.088 249.665,443.553 248.527,444.043 L248.351,443.756" test="German Pudding"/>
      <path id="Layer1_0_2_STROKES" stroke="#F00" stroke-width="1.906" stroke-linejoin="round" stroke-linecap="round" fill="none" d="M134.116,195.958 Q137.136,231.018 140.449,249.302 146.987,285.545 160.925,315.486 L167.082,329.173 Q174.914,346.029 183.434,362.069 210.693,413.297 234.451,436.777 239.785,442.052 243.752,445.841 M165.504,179.114 Q163.563,181.714 165.302,197.668 166.849,211.733 168.96,219.641 169.218,220.723 182.009,268.951 201.368,323.634 212.251,345.4 223.133,367.166 240.793,390.576 258.452,413.987 278.522,431.794" test="German Pudding"/>
      <g id="Cherry1">
        <path fill="#000" stroke="none" d="M244.334,199.96 Q249.28,201.927 254.18,199.816 259.08,197.705 261.047,192.76 263.014,187.814 260.903,182.914 258.791,178.014 253.846,176.047 248.901,174.08 244.001,176.191 239.101,178.302 237.134,183.248 235.166,188.193 237.278,193.093 239.389,197.993 244.334,199.96Z" test="Cherry1" vector-effect="non-scaling-stroke" stroke-width="1"/>
        <path id="Layer5_0_1_STROKES" stroke="#0F0" stroke-width="1.906" stroke-linejoin="round" stroke-linecap="round" fill="none" d="M262.315,188.479 Q268.848,186.908 276.695,191.516 276.776,191.584 276.839,191.609 282.287,194.864 283.555,196.963 283.693,197.163 283.787,197.382" test="Cherry1"/>
        <path id="Layer5_0_2_STROKES" stroke="#F00" stroke-width="1.906" stroke-linejoin="round" stroke-linecap="round" fill="none" d="M254.18,199.816 Q249.28,201.927 244.334,199.96 239.389,197.993 237.278,193.093 235.166,188.193 237.134,183.248 239.101,178.302 244.001,176.191 248.901,174.08 253.846,176.047 258.791,178.014 260.903,182.914 263.014,187.814 261.047,192.76 259.08,197.705 254.18,199.816Z" test="Cherry1"/>
      </g>
      <g id="Cherry2">
        <path fill="#000" stroke="none" d="M278.771,235.102 Q278.436,233.12 277.588,231.151 274.817,224.72 268.306,222.13 261.796,219.541 255.365,222.312 248.933,225.083 246.344,231.593 243.754,238.103 246.525,244.535 249.296,250.966 255.806,253.555 262.317,256.145 268.748,253.374 275.179,250.603 277.769,244.093 279.562,239.586 278.771,235.102 278.577,235.134 278.34,235.184 278.577,235.134 278.771,235.102Z" test="Cherry2" vector-effect="non-scaling-stroke" stroke-width="1"/>
        <path id="Layer6_0_1_STROKES" stroke="#F00" stroke-width="1.906" stroke-linejoin="round" stroke-linecap="round" fill="none" d="M278.771,235.102 Q279.562,239.586 277.769,244.093 275.179,250.603 268.748,253.374 262.317,256.145 255.806,253.555 249.296,250.966 246.525,244.535 243.754,238.103 246.344,231.593 248.933,225.083 255.365,222.312 261.796,219.541 268.306,222.13 274.817,224.72 277.588,231.151 278.436,233.12 278.771,235.102 278.577,235.134 278.34,235.184" test="Cherry2"/>
        <path id="Layer6_0_2_STROKES" stroke="#0F0" stroke-width="1.906" stroke-linejoin="round" stroke-linecap="round" fill="none" d="M278.771,235.102 Q290.883,232.633 297.334,233.64 302.297,235.288 304.362,235.384" test="Cherry2"/>
      </g>
      <g id="Cherry3">
        <path fill="#000" stroke="none" d="M312.962,280.558 Q315.427,274.36 312.769,268.191 312.58,267.754 312.348,267.335 312.323,267.398 312.254,267.479 311.162,268.676 309.543,269.011 311.162,268.676 312.254,267.479 312.323,267.398 312.348,267.335 309.673,261.848 303.895,259.514 297.654,257.068 291.485,259.725 285.316,262.383 282.851,268.581 280.361,274.841 283.019,281.009 285.677,287.178 291.918,289.624 298.134,292.133 304.303,289.475 310.472,286.818 312.962,280.558Z" test="Cherry3" vector-effect="non-scaling-stroke" stroke-width="1"/>
        <path id="Layer7_0_1_STROKES" stroke="#0F0" stroke-width="1.906" stroke-linejoin="round" stroke-linecap="round" fill="none" d="M312.348,267.335 Q313.315,266.089 313.921,265.568 316.182,263.712 323.55,266.607 326.68,267.852 330.687,270.171 332.691,271.331 334.32,272.341 M309.543,269.011 Q311.162,268.676 312.254,267.479 312.323,267.398 312.348,267.335" test="Cherry3"/>
        <path id="Layer7_0_2_STROKES" stroke="#F00" stroke-width="1.906" stroke-linejoin="round" stroke-linecap="round" fill="none" d="M312.348,267.335 Q312.58,267.754 312.769,268.191 315.427,274.36 312.962,280.558 310.472,286.818 304.303,289.475 298.134,292.133 291.918,289.624 285.677,287.178 283.019,281.009 280.361,274.841 282.851,268.581 285.316,262.383 291.485,259.725 297.654,257.068 303.895,259.514 309.673,261.848 312.348,267.335Z" test="Cherry3"/>
      </g>
      <g id="Cherry4">
        <path fill="#000" stroke="none" d="M314.78,327.002 Q316.598,322.432 315.576,317.893 312.237,318.812 310.68,318.809 312.237,318.812 315.576,317.893 315.26,316.317 314.6,314.786 311.98,308.704 305.845,306.264 299.71,303.824 293.629,306.444 287.548,309.064 285.108,315.199 282.667,321.334 285.288,327.415 287.908,333.496 294.042,335.937 300.177,338.377 306.259,335.757 312.34,333.136 314.78,327.002Z" test="Cherry4" vector-effect="non-scaling-stroke" stroke-width="1"/>
        <path id="Layer8_0_1_STROKES" stroke="#0F0" stroke-width="1.906" stroke-linejoin="round" stroke-linecap="round" fill="none" d="M315.576,317.893 Q316.032,317.748 316.488,317.603 320.571,316.363 324.687,316.405 327.545,316.418 331.245,317.781 334.443,318.945 336.83,320.51 M310.68,318.809 Q312.237,318.812 315.576,317.893" test="Cherry4"/>
        <path id="Layer8_0_2_STROKES" stroke="#F00" stroke-width="1.906" stroke-linejoin="round" stroke-linecap="round" fill="none" d="M315.576,317.893 Q316.598,322.432 314.78,327.002 312.34,333.136 306.259,335.757 300.177,338.377 294.042,335.937 287.908,333.496 285.288,327.415 282.667,321.334 285.108,315.199 287.548,309.064 293.629,306.444 299.71,303.824 305.845,306.264 311.98,308.704 314.6,314.786 315.26,316.317 315.576,317.893Z" test="Cherry4"/>
      </g>
      <g id="Cherry5">
        <path fill="#000" stroke="none" d="M342.427,352.098 Q344.17,347.716 342.961,343.464 342.11,343.416 341.578,343.386 342.11,343.416 342.961,343.464 342.696,342.489 342.281,341.527 340.019,336.277 334.698,334.16 329.377,332.044 324.127,334.306 318.877,336.568 316.761,341.889 314.644,347.21 316.906,352.46 319.168,357.71 324.489,359.826 329.81,361.943 335.06,359.681 340.31,357.419 342.427,352.098Z" test="Cherry5" vector-effect="non-scaling-stroke" stroke-width="1"/>
        <path id="Layer9_0_1_STROKES" stroke="#0F0" stroke-width="1.906" stroke-linejoin="round" stroke-linecap="round" fill="none" d="M342.961,343.464 Q345.563,343.484 351.005,343.474 357.086,344.225 357.477,348.985 M341.578,343.386 Q342.11,343.416 342.961,343.464" test="Cherry5"/>
        <path id="Layer9_0_2_STROKES" stroke="#F00" stroke-width="1.906" stroke-linejoin="round" stroke-linecap="round" fill="none" d="M342.961,343.464 Q344.17,347.716 342.427,352.098 340.31,357.419 335.06,359.681 329.81,361.943 324.489,359.826 319.168,357.71 316.906,352.46 314.644,347.21 316.761,341.889 318.877,336.568 324.127,334.306 329.377,332.044 334.698,334.16 340.019,336.277 342.281,341.527 342.696,342.489 342.961,343.464Z" test="Cherry5"/>
      </g>
    </g>
  </g>
</svg>