<?xml version="1.0" encoding="utf-8"?>
<svg id="EdithAnim08" image-rendering="inherit" baseProfile="basic" version="1.1" x="0px" y="0px" width="800" height="600" xmlns="http://www.w3.org/2000/svg" xmlns:xlink="http://www.w3.org/1999/xlink">
  <g id="German-Puddingf68r1" overflow="visible">
    <g id="German">
      <path id="Layer4_0_1_STROKES" stroke="#F60" stroke-width="2.456" stroke-linejoin="round" stroke-linecap="round" fill="none" d="M479.423,89.128 Q479.116,85.137 479.116,84.4 479.116,78.199 483.66,72.919 486.914,69.173 494.528,64.138 505.395,56.955 507.422,55.358 514.544,49.894 518.105,43 L518.412,43 Q514.176,59.165 512.334,64.323 508.158,75.743 503.676,78.997 500.238,81.576 488.756,85.874 480.283,89.005 480.037,92.505 L480.037,92.751 480.037,92.812 M480.037,92.751 Q477.888,88.269 489.861,78.015 495.94,72.796 503.185,66.901 M294.916,167.106 Q311.371,173.185 328.993,172.387 345.51,171.159 361.904,170.422 379.403,169.931 397.086,171.65 412.988,173.185 429.014,174.474 447.495,174.904 465.056,169.746 475.494,166.676 485.195,161.949 M488.94,189.517 Q472.792,193.078 456.214,193 441.171,194.92 426.312,194.982 415.506,195.043 404.515,194.982 L400.217,194.736 Q383.025,194.92 366.079,194.859 348.58,193.631 331.081,191.421 314.81,189.21 298.539,187.491 295.223,187.123 291.908,186.754" test="German"/>
      <path id="Layer4_0_2_STROKES" stroke="#0FF" stroke-width="2.456" stroke-linejoin="round" stroke-linecap="round" fill="none" d="M480.037,92.812 Q481.756,96.312 481.941,99.014 482.248,103.557 483.967,123.267 485.747,143.59 486.239,147.52 486.239,147.642 487.835,158.817 488.326,158.633 492.993,158.572 501.527,158.449 508.957,159.8 512.088,160.352 519.824,159.554 527.07,158.756 529.526,159.493 532.166,160.291 532.657,162.194 533.701,166.308 535.973,169.931 539.718,175.886 540.823,183.316 541.867,190.07 540.885,199.403 539.35,213.647 527.07,221.2 523.14,223.594 508.22,225.006 498.764,225.866 478.257,226.726 471.196,227.033 421.953,226.726 377.008,226.48 364.053,227.647 349.931,228.936 310.143,231.453 271.216,233.848 267.041,234.094 261.208,234.462 255.804,232.006 251.015,229.857 248.928,226.726 247.024,223.901 247.024,222.796 246.963,221.691 248.621,218.744 250.033,216.288 254.945,214.077 257.769,212.849 263.357,210.762 265.874,209.718 271.953,207.016 277.356,204.744 279.628,204.008 280.794,203.639 284.171,202.657 286.32,202.043 287.61,201.552 M288.838,211.99 Q288.96,201.859 291.969,176.93 295.837,144.45 300.811,133.091 305.538,122.284 305.661,116.82 305.109,110.373 305.723,103.312 306.582,93.917 309.161,88.269 310.266,85.69 315.547,77.831 319.906,71.322 321.441,69.971 323.59,68.068 327.52,68.314 330.344,68.498 334.642,68.559 338.203,68.866 341.335,70.463 342.747,71.199 347.229,72.98 350.176,74.208 352.694,75.989 355.272,77.831 356.439,80.041 357.667,82.251 358.158,82.62 358.465,82.067 358.834,81.515 L362.211,77.217 Q366.447,72.55 370.5,71.077 374.736,69.542 377.99,69.296 380.569,69.173 390.762,68.928 402.059,68.498 407.831,68.989 414.953,69.603 419.313,71.998 425.453,75.375 427.356,76.848 431.163,79.734 434.663,84.892 L441.417,94.654 444.057,92.567 Q447.434,90.049 450.934,87.962 453.083,86.672 456.828,82.681 459.407,79.918 461.986,79.98 467.819,80.041 468.064,80.102 471.011,80.532 473.038,82.743 476.108,86.12 478.502,90.049 479.362,91.461 480.037,92.751 M441.417,94.654 Q445.469,100.487 447.864,103.312 450.565,106.504 451.425,107.978 452.591,110.004 453.083,112.829 454.004,118.355 454.311,118.662 M487.835,158.817 Q488.081,160.475 488.326,162.378 489.861,173.615 489.923,176.071 L490.291,180.123 Q490.721,184.544 491.151,186.509 M525.78,172.816 Q519.272,189.272 500.422,194.061 483.414,198.543 465.915,200.569 449.828,202.78 434.294,207.139 418.392,211.744 402.059,213.893 385.113,216.533 367.982,218.805 351.588,220.954 334.765,222.059 317.634,223.103 300.872,225.805 282.759,228.629 264.646,226.848 259.673,226.48 254.761,225.498 M338.879,114.978 Q340.659,110.864 342.133,107.794 344.896,102.022 348.396,96.865 350.115,94.347 354.167,88.514 356.132,85.69 358.158,82.62" test="German"/>
      <path id="Layer4_0_3_STROKES" stroke="#FEB7AE" stroke-width="2.456" stroke-linejoin="round" stroke-linecap="round" fill="none" d="M384.867,401.961 Q384.929,402.207 385.051,402.514 407.34,404.479 422.505,403.926 445.162,403.128 458.854,396.497 472.301,389.988 482.186,374.086 490.659,360.455 498.15,336.939 504.29,317.782 506.808,303.169 507.913,296.906 510.43,274.925 512.088,260.557 512.211,252.391 512.272,248.277 511.658,238.085 M423.856,404.417 Q420.234,406.935 419.865,413.197 419.681,416.452 420.172,420.688 419.804,430.512 419.558,432.661 M275.268,234.401 Q273.917,253.128 280.426,294.818 286.873,336.447 292.706,344.736 298.477,353.025 305.416,364.876 313.336,373.963 320.581,380.103 341.396,397.663 368.596,400.795 377.254,401.777 385.051,402.514 386.586,408.224 387.262,411.601 387.937,415.531 387.937,419.767 387.937,422.407 387.262,425.293 386.586,428.24 385.788,428.67 L385.788,428.056" test="German"/>
      <path id="Layer4_0_4_STROKES" stroke="#FFF" stroke-width="2.456" stroke-linejoin="round" stroke-linecap="round" fill="none" d="M481.572,314.221 L325.985,332.763 Q326.66,338.289 328.072,345.535 329.546,352.903 337.466,363.279 345.448,373.717 355.027,380.594 L376.087,379.734 Q400.094,378.322 414.646,375.621 435.522,371.752 446.636,369.235 461.617,365.858 466.222,363.341 471.073,360.7 472.424,359.657 472.561,359.296 472.7,358.951 474.089,355.152 474.818,351.675 477.888,341.114 479.73,334.667 483.169,322.571 482.8,316.677 482.493,311.642 483.353,306.3 484.028,302.186 483.414,300.099 482.677,297.52 481.634,297.827 473.099,300.099 472.976,300.099 459.652,302.555 450.872,304.09 434.724,306.914 425.084,308.081 408.69,310.23 400.279,311.335 385.297,313.238 377.806,313.607 371.85,313.914 361.904,315.387 353.062,316.677 348.334,316.677 340.536,316.37 337.896,316.308 333.782,316.185 331.142,317.291 328.441,318.457 327.09,319.194 L326.23,319.747 Q325.186,324.966 325.985,332.763 M443.197,260.127 Q442.583,257.057 442.583,256.627 442.583,249.075 449.03,246.005 453.635,243.856 461.924,243.856 466.959,243.856 470.336,249.505 471.994,252.391 472.976,255.522 M355.027,380.594 Q360.369,384.339 364.912,386.059 375.719,390.234 391.376,390.234 402.796,390.234 418.33,387.901 435.338,385.383 444.794,383.296 459.284,380.103 462.538,376.849 466.161,373.226 469.845,365.674 471.318,362.604 472.424,359.657 M386.095,420.688 Q380,422.162 378.175,425.048 375.964,427.197 375.964,428.854 375.964,434.81 408.506,438.801 415.874,438.801 420.97,437.819 426.005,436.775 441.048,427.749 440.987,426.214 437.241,424.434 433.496,422.592 430.549,421.916 427.602,421.179 421.4,422.223 M441.355,428.67 Q442.522,430.942 444.18,435.731 446.267,441.933 446.267,444.941 446.574,444.941 446.881,444.327 M328.686,255.829 Q329.73,248.83 335.01,244.532 340.045,240.479 346.676,240.479 350.422,240.479 352.694,244.347 354.658,247.724 355.088,252.759 L354.474,252.452 M375.964,427.442 Q375.596,430.082 374.675,435.547 373.631,442.178 373.201,443.406 L373.201,445.862 373.508,445.862" test="German"/>
    </g>
    <g id="German-Pudding">
      <path fill="#000" stroke="none" d="M350.922,338.24 Q350.272,324.926 346.709,312.147 343.167,298.643 337.587,285.945 331.947,272.963 325.766,260.04 320.423,247.811 315.293,235.601 310,224.017 303.652,213.005 296.874,201.291 287.868,191.329 279.189,181.544 268.731,173 257.551,165.92 245.561,158.775 L244.96,158.551 Q244.845,158.648 244.313,158.858 243.817,159.156 243.894,159.74 244.279,162.661 258.156,216.586 259.606,222.212 263.922,235.46 264.888,238.436 266,241.758 269.471,252.287 274.349,266.524 287.549,304.994 291.158,313.094 294.531,320.724 298.292,328.559 300.554,333.248 302.913,338.052 310.954,354.131 315.806,361.228 316.395,362.071 316.949,362.825 322.877,370.829 329.064,378.064 335.514,385.707 338.863,388.481 341.155,390.393 343.738,392.394 345.183,393.718 345.289,395.673 L347.724,395.224 Q356.115,383.407 353.683,368.953 353.192,365.767 352.719,362.625 L352.634,361.89 Q351.535,350.033 350.922,338.24Z" test="German Pudding" vector-effect="non-scaling-stroke" stroke-width="1"/>
      <path id="Layer3_0_1_STROKES" stroke="#FFF" stroke-width="1.905" stroke-linejoin="round" stroke-linecap="round" fill="none" d="M245.561,158.775 Q257.551,165.92 268.731,173 279.189,181.544 287.868,191.329 296.874,201.291 303.652,213.005 310,224.017 315.293,235.601 320.423,247.811 325.766,260.04 331.947,272.963 337.587,285.945 343.167,298.643 346.709,312.147 350.272,324.926 350.922,338.24 351.535,350.033 352.634,361.89 M352.719,362.625 Q353.192,365.767 353.683,368.953 356.115,383.407 347.724,395.224" test="German Pudding"/>
      <path id="Layer2_0_1_STROKES" stroke="#FFF" stroke-width="1.905" stroke-linejoin="round" stroke-linecap="round" fill="none" d="M328.74,329.796 Q333.587,329.878 335.238,330.558 337.675,331.541 343.041,336.181 348.1,340.431 348.805,341.177 351.006,343.38 352.074,346.082 354.349,351.841 348.862,360.769 346.137,365.236 342.392,370.059 342.287,370.19 342.187,370.319 M252.769,171.189 Q263.171,171.33 272.542,176.386 276.769,178.659 279.455,182.412 279.669,182.726 279.525,182.59 281.249,187.889 278.684,194.138 276.172,200.354 269.206,201.518 266.171,205.892 268.256,210.651 L268.432,210.837 Q273.205,217.863 282.191,219.998 284.515,220.565 286.667,221.865 297.617,228.192 298.599,240.403 299.242,249.418 298.116,258.108 312.644,259.232 324.365,267.251 327.795,269.584 327.839,273.714 327.849,279.703 324.626,284.766 321.527,289.626 317.873,293.989 314.966,297.39 310.835,299.38 322.778,300.962 327.037,312.39 328.558,316.501 328.892,321.234 329.641,332.205 322.565,340.48 320.04,343.424 317.656,346.465 L317.703,345.934 M310.835,299.38 L300.127,304.942 300.722,304.246 M279.525,182.59 Q279.454,182.543 279.327,182.412 279.371,182.394 279.455,182.412 M268.256,210.651 Q268.291,210.739 268.343,210.872 268.388,210.855 268.432,210.837" test="German Pudding"/>
      <path fill="#000" stroke="none" d="M222.086,435.124 Q224.432,438.858 228.563,442.962 233.134,447.404 235.917,448.097 237.905,448.592 241.079,447.031 245.395,444.865 249.732,444.176 253.875,443.513 267.747,438.699 263.898,434.79 258.729,429.355 235.704,405.163 210.029,353.133 202.005,336.841 194.693,319.756 L188.959,305.89 Q175.945,275.54 170.52,239.119 167.769,220.745 165.823,185.613 162.304,187.465 160.539,188.571 157.036,190.723 147.043,196.412 138.582,201.701 137.47,205.366 135.3,212.318 133.647,220.192 131.165,231.927 130.95,240.718 130.727,249.359 132.816,259.443 134.116,265.587 137.769,280.02 140.514,291.636 149.338,315.14 157.891,337.828 164.597,351.823 170.418,363.966 180.173,380.751 188.26,394.611 192.953,401.565 195.546,405.406 208.285,419.374 220.795,433.022 222.086,435.124 M243.894,159.74 Q243.817,159.156 244.313,158.858 244.845,158.648 244.96,158.551 245.174,158.313 240.99,156.278 237.282,154.67 234,154.855 232.69,155.102 227.186,157.634 224.758,158.747 213.109,162.837 202.656,166.454 196.619,169.709 192.869,171.754 177.25,179.665 170.176,183.279 165.823,185.613 167.769,220.745 170.52,239.119 175.945,275.54 188.959,305.89 L194.693,319.756 Q202.005,336.841 210.029,353.133 235.704,405.163 258.729,429.355 263.898,434.79 267.747,438.699 270.041,437.895 272.574,437.048 L272.407,436.755 272.574,437.048 Q273.726,436.593 274.94,436.165 304.085,425.676 306.157,424.959 316.973,421.353 327.529,414.11 333.925,409.688 339.147,404.757 342.504,401.587 343.687,400.045 345.387,397.734 345.289,395.673 345.183,393.718 343.738,392.394 341.155,390.393 338.863,388.481 335.514,385.707 329.064,378.064 322.877,370.829 316.949,362.825 316.395,362.071 315.806,361.228 310.954,354.131 302.913,338.052 300.554,333.248 298.292,328.559 294.531,320.724 291.158,313.094 287.549,304.994 274.349,266.524 269.471,252.287 266,241.758 264.888,238.436 263.922,235.46 259.606,222.212 258.156,216.586 244.279,162.661 243.894,159.74 M266.48,383.377 Q283.413,407.313 302.926,425.724 283.413,407.313 266.48,383.377 249.547,359.44 239.338,337.355 229.128,315.269 211.454,260.027 200.146,211.438 199.921,210.349 198.053,202.38 196.937,188.277 195.688,172.279 197.707,169.741 195.688,172.279 196.937,188.277 198.053,202.38 199.921,210.349 200.146,211.438 211.454,260.027 229.128,315.269 239.338,337.355 249.547,359.44 266.48,383.377Z" test="German Pudding" vector-effect="non-scaling-stroke" stroke-width="1"/>
      <path id="Layer1_0_1_STROKES" stroke="#F60" stroke-width="1.905" stroke-linejoin="round" stroke-linecap="round" fill="none" d="M272.574,437.048 Q270.041,437.895 267.747,438.699 253.875,443.513 249.732,444.176 245.395,444.865 241.079,447.031 237.905,448.592 235.917,448.097 233.134,447.404 228.563,442.962 224.432,438.858 222.086,435.124 220.795,433.022 208.285,419.374 195.546,405.406 192.953,401.565 188.26,394.611 180.173,380.751 170.418,363.966 164.597,351.823 157.891,337.828 149.338,315.14 140.514,291.636 137.769,280.02 134.116,265.587 132.816,259.443 130.727,249.359 130.95,240.718 131.165,231.927 133.647,220.192 135.3,212.318 137.47,205.366 138.582,201.701 147.043,196.412 157.036,190.723 160.539,188.571 162.304,187.465 165.823,185.613 170.176,183.279 177.25,179.665 192.869,171.754 196.619,169.709 202.656,166.454 213.109,162.837 224.758,158.747 227.186,157.634 232.69,155.102 234,154.855 237.282,154.67 240.99,156.278 245.174,158.313 244.96,158.551 244.845,158.648 244.313,158.858 243.817,159.156 243.894,159.74 244.279,162.661 258.156,216.586 259.606,222.212 263.922,235.46 264.888,238.436 265.986,241.788 269.471,252.287 274.349,266.524 287.549,304.994 291.158,313.094 294.531,320.724 298.292,328.559 300.554,333.248 302.913,338.052 310.954,354.131 315.806,361.228 316.395,362.071 316.949,362.825 322.877,370.829 329.064,378.064 335.514,385.707 338.863,388.481 341.155,390.393 343.738,392.394 345.183,393.718 345.289,395.673 345.387,397.734 343.687,400.045 342.504,401.587 339.147,404.757 333.925,409.688 327.529,414.11 316.973,421.353 306.157,424.959 304.085,425.676 274.94,436.165 273.726,436.593 272.574,437.048 L272.407,436.755" test="German Pudding"/>
      <path id="Layer1_0_2_STROKES" stroke="#F00" stroke-width="1.905" stroke-linejoin="round" stroke-linecap="round" fill="none" d="M165.823,185.613 Q167.769,220.745 170.52,239.119 175.945,275.54 188.959,305.89 L194.693,319.756 Q202.005,336.841 210.029,353.133 235.704,405.163 258.729,429.355 263.898,434.79 267.747,438.699 M197.707,169.741 Q195.688,172.279 196.937,188.277 198.053,202.38 199.921,210.349 200.146,211.438 211.454,260.027 229.128,315.269 239.338,337.355 249.547,359.44 266.48,383.377 283.413,407.313 302.926,425.724" test="German Pudding"/>
      <g id="Cherry1">
        <path fill="#000" stroke="none" d="M275.866,192.986 Q280.749,195.103 285.71,193.143 290.672,191.183 292.789,186.301 294.906,181.418 292.946,176.457 290.986,171.495 286.104,169.378 281.222,167.261 276.26,169.221 271.299,171.181 269.181,176.063 267.064,180.945 269.024,185.907 270.984,190.868 275.866,192.986Z" test="Cherry1" vector-effect="non-scaling-stroke" stroke-width="1"/>
        <path id="Layer5_0_1_STROKES" stroke="#0F0" stroke-width="1.905" stroke-linejoin="round" stroke-linecap="round" fill="none" d="M294.187,182.061 Q300.765,180.692 308.466,185.536 308.545,185.608 308.607,185.634 313.952,189.054 315.155,191.191 315.287,191.395 315.374,191.616" test="Cherry1"/>
        <path id="Layer5_0_2_STROKES" stroke="#F00" stroke-width="1.905" stroke-linejoin="round" stroke-linecap="round" fill="none" d="M285.71,193.143 Q280.749,195.103 275.866,192.986 270.984,190.868 269.024,185.907 267.064,180.945 269.181,176.063 271.299,171.181 276.26,169.221 281.222,167.261 286.104,169.378 290.986,171.495 292.946,176.457 294.906,181.418 292.789,186.301 290.672,191.183 285.71,193.143Z" test="Cherry1"/>
      </g>
      <g id="Cherry2">
        <path fill="#000" stroke="none" d="M309.212,229.19 Q308.938,227.199 308.15,225.205 305.578,218.693 299.151,215.906 292.723,213.118 286.211,215.691 279.699,218.264 276.912,224.691 274.125,231.118 276.697,237.63 279.27,244.142 285.697,246.929 292.124,249.717 298.636,247.144 305.148,244.572 307.936,238.144 309.865,233.695 309.212,229.19 309.018,229.216 308.779,229.259 309.018,229.216 309.212,229.19Z" test="Cherry2" vector-effect="non-scaling-stroke" stroke-width="1"/>
        <path id="Layer6_0_1_STROKES" stroke="#F00" stroke-width="1.905" stroke-linejoin="round" stroke-linecap="round" fill="none" d="M309.212,229.19 Q309.865,233.695 307.936,238.144 305.148,244.572 298.636,247.144 292.124,249.717 285.697,246.929 279.27,244.142 276.697,237.63 274.125,231.118 276.912,224.691 279.699,218.264 286.211,215.691 292.723,213.118 299.151,215.906 305.578,218.693 308.15,225.205 308.938,227.199 309.212,229.19 309.018,229.216 308.779,229.259" test="Cherry2"/>
        <path id="Layer6_0_2_STROKES" stroke="#0F0" stroke-width="1.905" stroke-linejoin="round" stroke-linecap="round" fill="none" d="M309.212,229.19 Q321.392,227.093 327.808,228.297 332.718,230.096 334.779,230.255" test="Cherry2"/>
      </g>
      <g id="Cherry3">
        <path fill="#000" stroke="none" d="M341.965,275.657 Q344.618,269.539 342.151,263.292 341.976,262.85 341.756,262.424 341.73,262.486 341.659,262.565 340.53,263.728 338.902,264.013 340.53,263.728 341.659,262.565 341.73,262.486 341.756,262.424 339.251,256.859 333.548,254.349 327.385,251.713 321.139,254.18 314.892,256.648 312.239,262.766 309.559,268.946 312.027,275.193 314.494,281.439 320.657,284.075 326.792,286.772 333.039,284.304 339.285,281.837 341.965,275.657Z" test="Cherry3" vector-effect="non-scaling-stroke" stroke-width="1"/>
        <path id="Layer7_0_1_STROKES" stroke="#0F0" stroke-width="1.905" stroke-linejoin="round" stroke-linecap="round" fill="none" d="M341.756,262.424 Q342.761,261.208 343.382,260.706 345.699,258.921 352.974,262.039 356.064,263.379 359.998,265.819 361.965,267.039 363.562,268.099 M338.902,264.013 Q340.53,263.728 341.659,262.565 341.73,262.486 341.756,262.424" test="Cherry3"/>
        <path id="Layer7_0_2_STROKES" stroke="#F00" stroke-width="1.905" stroke-linejoin="round" stroke-linecap="round" fill="none" d="M341.756,262.424 Q341.976,262.85 342.151,263.292 344.618,269.539 341.965,275.657 339.285,281.837 333.039,284.304 326.792,286.772 320.657,284.075 314.494,281.439 312.027,275.193 309.559,268.946 312.239,262.766 314.892,256.648 321.139,254.18 327.385,251.713 333.548,254.349 339.251,256.859 341.756,262.424Z" test="Cherry3"/>
      </g>
      <g id="Cherry4">
        <path fill="#000" stroke="none" d="M342.385,322.094 Q344.342,317.583 343.459,313.015 340.095,313.832 338.538,313.781 340.095,313.832 343.459,313.015 343.192,311.431 342.579,309.88 340.147,303.722 334.09,301.096 328.034,298.47 321.876,300.902 315.719,303.335 313.092,309.391 310.466,315.447 312.898,321.605 315.331,327.763 321.387,330.389 327.444,333.016 333.601,330.583 339.759,328.15 342.385,322.094Z" test="Cherry4" vector-effect="non-scaling-stroke" stroke-width="1"/>
        <path id="Layer8_0_1_STROKES" stroke="#0F0" stroke-width="1.905" stroke-linejoin="round" stroke-linecap="round" fill="none" d="M343.459,313.015 Q343.92,312.884 344.38,312.754 348.498,311.639 352.61,311.807 355.467,311.908 359.122,313.383 362.283,314.643 364.62,316.281 M338.538,313.781 Q340.095,313.832 343.459,313.015" test="Cherry4"/>
        <path id="Layer8_0_2_STROKES" stroke="#F00" stroke-width="1.905" stroke-linejoin="round" stroke-linecap="round" fill="none" d="M343.459,313.015 Q344.342,317.583 342.385,322.094 339.759,328.15 333.601,330.583 327.444,333.016 321.387,330.389 315.331,327.763 312.898,321.605 310.466,315.447 313.092,309.391 315.719,303.335 321.876,300.902 328.034,298.47 334.09,301.096 340.147,303.722 342.579,309.88 343.192,311.431 343.459,313.015Z" test="Cherry4"/>
      </g>
      <g id="Cherry5">
        <path fill="#000" stroke="none" d="M369.197,348.027 Q371.073,343.701 369.995,339.415 369.146,339.34 368.616,339.294 369.146,339.34 369.995,339.415 369.76,338.432 369.375,337.458 367.275,332.142 362.022,329.864 356.769,327.585 351.453,329.686 346.137,331.786 343.859,337.039 341.581,342.292 343.681,347.607 345.781,352.924 351.034,355.202 356.287,357.48 361.603,355.38 366.919,353.28 369.197,348.027Z" test="Cherry5" vector-effect="non-scaling-stroke" stroke-width="1"/>
        <path id="Layer9_0_1_STROKES" stroke="#0F0" stroke-width="1.905" stroke-linejoin="round" stroke-linecap="round" fill="none" d="M369.995,339.415 Q372.595,339.515 378.034,339.671 384.089,340.608 384.334,345.376 M368.616,339.294 Q369.146,339.34 369.995,339.415" test="Cherry5"/>
        <path id="Layer9_0_2_STROKES" stroke="#F00" stroke-width="1.905" stroke-linejoin="round" stroke-linecap="round" fill="none" d="M369.995,339.415 Q371.073,343.701 369.197,348.027 366.919,353.28 361.603,355.38 356.287,357.48 351.034,355.202 345.781,352.924 343.681,347.607 341.581,342.292 343.859,337.039 346.137,331.786 351.453,329.686 356.769,327.585 362.022,329.864 367.275,332.142 369.375,337.458 369.76,338.432 369.995,339.415Z" test="Cherry5"/>
      </g>
    </g>
  </g>
</svg>