<?xml version="1.0" encoding="utf-8"?>
<svg id="EdithAnim08" image-rendering="inherit" baseProfile="basic" version="1.1" x="0px" y="0px" width="800" height="600" xmlns="http://www.w3.org/2000/svg" xmlns:xlink="http://www.w3.org/1999/xlink">
  <g id="German-Puddingf69r1" overflow="visible">
    <g id="German">
      <path id="Layer4_0_1_STROKES" stroke="#F60" stroke-width="2.456" stroke-linejoin="round" stroke-linecap="round" fill="none" d="M479.423,89.128 Q479.116,85.137 479.116,84.4 479.116,78.199 483.66,72.919 486.914,69.173 494.528,64.138 505.395,56.955 507.422,55.358 514.544,49.894 518.105,43 L518.412,43 Q514.176,59.165 512.334,64.323 508.158,75.743 503.676,78.997 500.238,81.576 488.756,85.874 480.283,89.005 480.037,92.505 L480.037,92.751 480.037,92.812 M480.037,92.751 Q477.888,88.269 489.861,78.015 495.94,72.796 503.185,66.901 M294.916,167.106 Q311.371,173.185 328.993,172.387 345.51,171.159 361.904,170.422 379.403,169.931 397.086,171.65 412.988,173.185 429.014,174.474 447.495,174.904 465.056,169.746 475.494,166.676 485.195,161.949 M488.94,189.517 Q472.792,193.078 456.214,193 441.171,194.92 426.312,194.982 415.506,195.043 404.515,194.982 L400.217,194.736 Q383.025,194.92 366.079,194.859 348.58,193.631 331.081,191.421 314.81,189.21 298.539,187.491 295.223,187.123 291.908,186.754" test="German"/>
      <path id="Layer4_0_2_STROKES" stroke="#0FF" stroke-width="2.456" stroke-linejoin="round" stroke-linecap="round" fill="none" d="M480.037,92.812 Q481.756,96.312 481.941,99.014 482.248,103.557 483.967,123.267 485.747,143.59 486.239,147.52 486.239,147.642 487.835,158.817 488.326,158.633 492.993,158.572 501.527,158.449 508.957,159.8 512.088,160.352 519.824,159.554 527.07,158.756 529.526,159.493 532.166,160.291 532.657,162.194 533.701,166.308 535.973,169.931 539.718,175.886 540.823,183.316 541.867,190.07 540.885,199.403 539.35,213.647 527.07,221.2 523.14,223.594 508.22,225.006 498.764,225.866 478.257,226.726 471.196,227.033 421.953,226.726 377.008,226.48 364.053,227.647 349.931,228.936 310.143,231.453 271.216,233.848 267.041,234.094 261.208,234.462 255.804,232.006 251.015,229.857 248.928,226.726 247.024,223.901 247.024,222.796 246.963,221.691 248.621,218.744 250.033,216.288 254.945,214.077 257.769,212.849 263.357,210.762 265.874,209.718 271.953,207.016 277.356,204.744 279.628,204.008 280.794,203.639 284.171,202.657 286.32,202.043 287.61,201.552 M288.838,211.99 Q288.96,201.859 291.969,176.93 295.837,144.45 300.811,133.091 305.538,122.284 305.661,116.82 305.109,110.373 305.723,103.312 306.582,93.917 309.161,88.269 310.266,85.69 315.547,77.831 319.906,71.322 321.441,69.971 323.59,68.068 327.52,68.314 330.344,68.498 334.642,68.559 338.203,68.866 341.335,70.463 342.747,71.199 347.229,72.98 350.176,74.208 352.694,75.989 355.272,77.831 356.439,80.041 357.667,82.251 358.158,82.62 358.465,82.067 358.834,81.515 L362.211,77.217 Q366.447,72.55 370.5,71.077 374.736,69.542 377.99,69.296 380.569,69.173 390.762,68.928 402.059,68.498 407.831,68.989 414.953,69.603 419.313,71.998 425.453,75.375 427.356,76.848 431.163,79.734 434.663,84.892 L441.417,94.654 444.057,92.567 Q447.434,90.049 450.934,87.962 453.083,86.672 456.828,82.681 459.407,79.918 461.986,79.98 467.819,80.041 468.064,80.102 471.011,80.532 473.038,82.743 476.108,86.12 478.502,90.049 479.362,91.461 480.037,92.751 M441.417,94.654 Q445.469,100.487 447.864,103.312 450.565,106.504 451.425,107.978 452.591,110.004 453.083,112.829 454.004,118.355 454.311,118.662 M487.835,158.817 Q488.081,160.475 488.326,162.378 489.861,173.615 489.923,176.071 L490.291,180.123 Q490.721,184.544 491.151,186.509 M525.78,172.816 Q519.272,189.272 500.422,194.061 483.414,198.543 465.915,200.569 449.828,202.78 434.294,207.139 418.392,211.744 402.059,213.893 385.113,216.533 367.982,218.805 351.588,220.954 334.765,222.059 317.634,223.103 300.872,225.805 282.759,228.629 264.646,226.848 259.673,226.48 254.761,225.498 M338.879,114.978 Q340.659,110.864 342.133,107.794 344.896,102.022 348.396,96.865 350.115,94.347 354.167,88.514 356.132,85.69 358.158,82.62" test="German"/>
      <path id="Layer4_0_3_STROKES" stroke="#FEB7AE" stroke-width="2.456" stroke-linejoin="round" stroke-linecap="round" fill="none" d="M384.867,401.961 Q384.929,402.207 385.051,402.514 407.34,404.479 422.505,403.926 445.162,403.128 458.854,396.497 472.301,389.988 482.186,374.086 490.659,360.455 498.15,336.939 504.29,317.782 506.808,303.169 507.913,296.906 510.43,274.925 512.088,260.557 512.211,252.391 512.272,248.277 511.658,238.085 M423.856,404.417 Q420.234,406.935 419.865,413.197 419.681,416.452 420.172,420.688 419.804,430.512 419.558,432.661 M275.268,234.401 Q273.917,253.128 280.426,294.818 286.873,336.447 292.706,344.736 298.477,353.025 305.416,364.876 313.336,373.963 320.581,380.103 341.396,397.663 368.596,400.795 377.254,401.777 385.051,402.514 386.586,408.224 387.262,411.601 387.937,415.531 387.937,419.767 387.937,422.407 387.262,425.293 386.586,428.24 385.788,428.67 L385.788,428.056" test="German"/>
      <path id="Layer4_0_4_STROKES" stroke="#FFF" stroke-width="2.456" stroke-linejoin="round" stroke-linecap="round" fill="none" d="M481.572,314.221 L325.985,332.763 Q326.66,338.289 328.072,345.535 329.546,352.903 337.466,363.279 345.448,373.717 355.027,380.594 L376.087,379.734 Q400.094,378.322 414.646,375.621 435.522,371.752 446.636,369.235 461.617,365.858 466.222,363.341 471.073,360.7 472.424,359.657 472.561,359.296 472.7,358.951 474.089,355.152 474.818,351.675 477.888,341.114 479.73,334.667 483.169,322.571 482.8,316.677 482.493,311.642 483.353,306.3 484.028,302.186 483.414,300.099 482.677,297.52 481.634,297.827 473.099,300.099 472.976,300.099 459.652,302.555 450.872,304.09 434.724,306.914 425.084,308.081 408.69,310.23 400.279,311.335 385.297,313.238 377.806,313.607 371.85,313.914 361.904,315.387 353.062,316.677 348.334,316.677 340.536,316.37 337.896,316.308 333.782,316.185 331.142,317.291 328.441,318.457 327.09,319.194 L326.23,319.747 Q325.186,324.966 325.985,332.763 M443.197,260.127 Q442.583,257.057 442.583,256.627 442.583,249.075 449.03,246.005 453.635,243.856 461.924,243.856 466.959,243.856 470.336,249.505 471.994,252.391 472.976,255.522 M355.027,380.594 Q360.369,384.339 364.912,386.059 375.719,390.234 391.376,390.234 402.796,390.234 418.33,387.901 435.338,385.383 444.794,383.296 459.284,380.103 462.538,376.849 466.161,373.226 469.845,365.674 471.318,362.604 472.424,359.657 M386.095,420.688 Q380,422.162 378.175,425.048 375.964,427.197 375.964,428.854 375.964,434.81 408.506,438.801 415.874,438.801 420.97,437.819 426.005,436.775 441.048,427.749 440.987,426.214 437.241,424.434 433.496,422.592 430.549,421.916 427.602,421.179 421.4,422.223 M441.355,428.67 Q442.522,430.942 444.18,435.731 446.267,441.933 446.267,444.941 446.574,444.941 446.881,444.327 M328.686,255.829 Q329.73,248.83 335.01,244.532 340.045,240.479 346.676,240.479 350.422,240.479 352.694,244.347 354.658,247.724 355.088,252.759 L354.474,252.452 M375.964,427.442 Q375.596,430.082 374.675,435.547 373.631,442.178 373.201,443.406 L373.201,445.862 373.508,445.862" test="German"/>
    </g>
    <g id="German-Pudding">
      <path fill="#000" stroke="none" d="M377.944,333.532 Q377.697,320.206 374.522,307.328 371.391,293.726 366.198,280.867 360.954,267.723 355.168,254.622 350.198,242.24 345.439,229.882 340.5,218.147 334.489,206.949 328.07,195.039 319.371,184.811 310.993,174.77 300.77,166.914 289.841,158.502 278.075,150 L277.481,150.758 Q277.363,150.851 276.825,151.045 276.32,151.328 276.379,151.914 276.676,154.844 288.914,209.154 290.194,214.82 294.106,228.189 294.982,231.192 295.992,234.546 299.143,245.173 303.588,259.548 315.617,298.393 318.979,306.596 322.119,314.323 325.641,322.267 327.76,327.021 329.972,331.893 337.522,348.205 342.157,355.444 342.72,356.304 343.251,357.074 348.932,365.252 354.897,372.669 361.112,380.502 364.375,383.376 366.608,385.355 369.128,387.433 370.532,388.8 370.58,390.757 L373.026,390.382 Q381.769,378.827 379.775,364.308 379.381,361.109 379.004,357.955 L378.941,357.218 Q378.201,345.336 377.944,333.532Z" test="German Pudding" vector-effect="non-scaling-stroke" stroke-width="1"/>
      <path id="Layer3_0_1_STROKES" stroke="#FFF" stroke-width="1.905" stroke-linejoin="round" stroke-linecap="round" fill="none" d="M278.075,150 Q289.841,158.502 300.77,166.914 310.993,174.77 319.371,184.811 328.07,195.039 334.489,206.949 340.5,218.147 345.439,229.882 350.198,242.24 355.168,254.622 360.954,267.723 366.198,280.867 371.391,293.726 374.522,307.328 377.697,320.206 377.944,333.532 378.201,345.336 378.941,357.218 M379.004,357.955 Q379.381,361.109 379.775,364.308 381.769,378.827 373.026,390.382" test="German Pudding"/>
      <path id="Layer2_0_1_STROKES" stroke="#FFF" stroke-width="1.905" stroke-linejoin="round" stroke-linecap="round" fill="none" d="M356.032,324.422 Q360.873,324.651 362.502,325.38 364.908,326.437 370.131,331.236 375.058,335.636 375.739,336.402 377.873,338.67 378.858,341.403 380.958,347.227 375.205,355.983 372.346,360.366 368.458,365.072 368.35,365.2 368.246,365.326 M284.903,163.623 Q295.293,164.079 304.506,169.414 308.662,171.814 311.233,175.646 311.437,175.966 311.297,175.825 312.86,181.173 310.108,187.34 307.409,193.476 300.413,194.429 297.248,198.709 299.187,203.527 L299.357,203.719 Q303.915,210.884 312.831,213.289 315.136,213.926 317.248,215.291 327,221.945 328.612,234.177 328.981,243.206 327.594,251.856 342.078,253.418 353.549,261.787 356.907,264.221 356.826,268.35 356.655,274.335 353.281,279.297 350.037,284.061 346.253,288.31 343.246,291.622 339.058,293.486 350.945,295.427 354.856,306.977 356.252,311.131 356.442,315.871 356.859,326.858 349.537,334.914 346.926,337.779 344.452,340.746 L344.514,340.217 M339.058,293.486 L328.188,298.721 328.804,298.043 M311.297,175.825 Q311.227,175.776 311.104,175.641 311.149,175.625 311.233,175.646 M299.187,203.527 Q299.219,203.617 299.268,203.751 299.313,203.735 299.357,203.719" test="German Pudding"/>
      <path fill="#000" stroke="none" d="M246.265,426.46 Q248.496,430.262 252.5,434.488 256.934,439.066 259.695,439.842 261.666,440.397 264.885,438.933 269.264,436.899 273.619,436.341 277.779,435.804 291.787,431.412 288.059,427.39 283.058,421.802 260.778,396.929 236.692,344.157 229.166,327.634 222.375,310.339 L217.064,296.308 Q204.976,265.585 200.655,229.024 198.46,210.579 197.578,175.411 194.005,177.155 192.207,178.208 188.642,180.252 178.484,185.635 169.868,190.665 168.646,194.295 166.267,201.176 164.378,208.995 161.542,220.648 161.062,229.427 160.578,238.055 162.361,248.195 163.474,254.374 166.689,268.908 169.081,280.6 177.189,304.355 185.051,327.287 191.33,341.476 196.781,353.786 206.022,370.856 213.685,384.95 218.165,392.042 220.64,395.959 232.948,410.303 245.038,424.32 246.265,426.46 M276.379,151.914 Q276.32,151.328 276.825,151.045 277.363,150.851 277.481,150.758 277.702,150.526 273.582,148.367 269.925,146.648 267.638,146.763 265.322,146.94 259.746,149.305 257.286,150.343 245.521,154.078 234.966,157.377 228.834,160.448 225.024,162.378 209.177,169.812 201.998,173.21 197.578,175.411 198.46,210.579 200.655,229.024 204.976,265.585 217.064,296.308 L222.375,310.339 Q229.166,327.634 236.692,344.157 260.778,396.929 283.058,421.802 288.059,427.39 291.787,431.412 294.104,430.678 296.662,429.908 L296.504,429.61 296.662,429.908 Q297.826,429.488 299.052,429.097 328.495,419.495 330.588,418.842 341.505,415.564 352.274,408.645 358.8,404.42 364.167,399.65 367.618,396.583 368.847,395.077 370.615,392.82 370.58,390.757 370.532,388.8 369.128,387.433 366.608,385.355 364.375,383.376 361.112,380.502 354.897,372.669 348.932,365.252 343.251,357.074 342.72,356.304 342.157,355.444 337.522,348.205 329.972,331.893 327.76,327.021 325.641,322.267 322.119,314.323 318.979,306.596 315.617,298.393 303.588,259.548 299.143,245.173 295.992,234.546 294.982,231.192 294.106,228.189 290.194,214.82 288.914,209.154 276.676,154.844 276.379,151.914 M292.193,376.087 Q308.392,400.52 327.336,419.508 308.392,400.52 292.193,376.087 275.995,351.655 266.459,329.275 256.923,306.896 240.93,251.155 231.098,202.256 230.906,201.161 229.28,193.141 228.591,179.013 227.826,162.988 229.92,160.512 227.826,162.988 228.591,179.013 229.28,193.141 230.906,201.161 231.098,202.256 240.93,251.155 256.923,306.896 266.459,329.275 275.995,351.655 292.193,376.087Z" test="German Pudding" vector-effect="non-scaling-stroke" stroke-width="1"/>
      <path id="Layer1_0_1_STROKES" stroke="#F60" stroke-width="1.905" stroke-linejoin="round" stroke-linecap="round" fill="none" d="M296.662,429.908 Q294.104,430.678 291.787,431.412 277.779,435.804 273.619,436.341 269.264,436.899 264.885,438.933 261.666,440.397 259.695,439.842 256.934,439.066 252.5,434.488 248.496,430.262 246.265,426.46 245.038,424.32 232.948,410.303 220.64,395.959 218.165,392.042 213.685,384.95 206.022,370.856 196.781,353.786 191.33,341.476 185.051,327.287 177.189,304.355 169.081,280.6 166.689,268.908 163.474,254.374 162.361,248.195 160.578,238.055 161.062,229.427 161.542,220.648 164.378,208.995 166.267,201.176 168.646,194.295 169.868,190.665 178.484,185.635 188.642,180.252 192.207,178.208 194.005,177.155 197.578,175.411 201.998,173.21 209.177,169.812 225.024,162.378 228.834,160.448 234.966,157.377 245.521,154.078 257.286,150.343 259.746,149.305 265.322,146.94 267.638,146.763 269.925,146.648 273.582,148.367 277.702,150.526 277.481,150.758 277.363,150.851 276.825,151.045 276.32,151.328 276.379,151.914 276.676,154.844 288.914,209.154 290.194,214.82 294.106,228.189 294.982,231.192 295.978,234.576 299.143,245.173 303.588,259.548 315.617,298.393 318.979,306.596 322.119,314.323 325.641,322.267 327.76,327.021 329.972,331.893 337.522,348.205 342.157,355.444 342.72,356.304 343.251,357.074 348.932,365.252 354.897,372.669 361.112,380.502 364.375,383.376 366.608,385.355 369.128,387.433 370.532,388.8 370.58,390.757 370.615,392.82 368.847,395.077 367.618,396.583 364.167,399.65 358.8,404.42 352.274,408.645 341.505,415.564 330.588,418.842 328.495,419.495 299.052,429.097 297.826,429.488 296.662,429.908 L296.504,429.61" test="German Pudding"/>
      <path id="Layer1_0_2_STROKES" stroke="#F00" stroke-width="1.905" stroke-linejoin="round" stroke-linecap="round" fill="none" d="M197.578,175.411 Q198.46,210.579 200.655,229.024 204.976,265.585 217.064,296.308 L222.375,310.339 Q229.166,327.634 236.692,344.157 260.778,396.929 283.058,421.802 288.059,427.39 291.787,431.412 M229.92,160.512 Q227.826,162.988 228.591,179.013 229.28,193.141 230.906,201.161 231.098,202.256 240.93,251.155 256.923,306.896 266.459,329.275 275.995,351.655 292.193,376.087 308.392,400.52 327.336,419.508" test="German Pudding"/>
      <g id="Cherry1">
        <path fill="#000" stroke="none" d="M307.316,186.106 Q312.131,188.37 317.149,186.561 322.166,184.752 324.43,179.937 326.693,175.122 324.884,170.104 323.076,165.087 318.261,162.824 313.445,160.56 308.428,162.369 303.41,164.178 301.147,168.993 298.884,173.808 300.692,178.825 302.501,183.843 307.316,186.106Z" test="Cherry1" vector-effect="non-scaling-stroke" stroke-width="1"/>
        <path id="Layer5_0_1_STROKES" stroke="#0F0" stroke-width="1.905" stroke-linejoin="round" stroke-linecap="round" fill="none" d="M325.955,175.743 Q332.57,174.573 340.119,179.647 340.196,179.721 340.257,179.749 345.496,183.328 346.633,185.5 346.759,185.708 346.84,185.932" test="Cherry1"/>
        <path id="Layer5_0_2_STROKES" stroke="#F00" stroke-width="1.905" stroke-linejoin="round" stroke-linecap="round" fill="none" d="M317.149,186.561 Q312.131,188.37 307.316,186.106 302.501,183.843 300.692,178.825 298.884,173.808 301.147,168.993 303.41,164.178 308.428,162.369 313.445,160.56 318.261,162.824 323.076,165.087 324.884,170.104 326.693,175.122 324.43,179.937 322.166,184.752 317.149,186.561Z" test="Cherry1"/>
      </g>
      <g id="Cherry2">
        <path fill="#000" stroke="none" d="M339.548,223.273 Q339.334,221.275 338.607,219.259 336.233,212.673 329.894,209.694 323.556,206.714 316.97,209.088 310.384,211.462 307.405,217.801 304.425,224.14 306.799,230.725 309.173,237.311 315.512,240.291 321.851,243.27 328.436,240.896 335.022,238.522 338.002,232.183 340.064,227.795 339.548,223.273 339.353,223.293 339.113,223.329 339.353,223.293 339.548,223.273Z" test="Cherry2" vector-effect="non-scaling-stroke" stroke-width="1"/>
        <path id="Layer6_0_1_STROKES" stroke="#F00" stroke-width="1.905" stroke-linejoin="round" stroke-linecap="round" fill="none" d="M339.548,223.273 Q340.064,227.795 338.002,232.183 335.022,238.522 328.436,240.896 321.851,243.27 315.512,240.291 309.173,237.311 306.799,230.725 304.425,224.14 307.405,217.801 310.384,211.462 316.97,209.088 323.556,206.714 329.894,209.694 336.233,212.673 338.607,219.259 339.334,221.275 339.548,223.273 339.353,223.293 339.113,223.329" test="Cherry2"/>
        <path id="Layer6_0_2_STROKES" stroke="#0F0" stroke-width="1.905" stroke-linejoin="round" stroke-linecap="round" fill="none" d="M339.548,223.273 Q351.783,221.546 358.159,222.943 363.012,224.889 365.066,225.11" test="Cherry2"/>
      </g>
      <g id="Cherry3">
        <path fill="#000" stroke="none" d="M370.866,270.695 Q373.702,264.66 371.425,258.344 371.264,257.896 371.057,257.464 371.029,257.525 370.955,257.602 369.793,258.73 368.156,258.965 369.793,258.73 370.955,257.602 371.029,257.525 371.057,257.464 368.721,251.826 363.098,249.146 357.019,246.326 350.702,248.603 344.385,250.88 341.549,256.914 338.684,263.009 340.961,269.326 343.238,275.642 349.317,278.463 355.367,281.344 361.684,279.067 368.001,276.79 370.866,270.695Z" test="Cherry3" vector-effect="non-scaling-stroke" stroke-width="1"/>
        <path id="Layer7_0_1_STROKES" stroke="#0F0" stroke-width="1.905" stroke-linejoin="round" stroke-linecap="round" fill="none" d="M371.057,257.464 Q372.098,256.279 372.734,255.796 375.103,254.082 382.279,257.418 385.326,258.85 389.184,261.408 391.114,262.687 392.677,263.794 M368.156,258.965 Q369.793,258.73 370.955,257.602 371.029,257.525 371.057,257.464" test="Cherry3"/>
        <path id="Layer7_0_2_STROKES" stroke="#F00" stroke-width="1.905" stroke-linejoin="round" stroke-linecap="round" fill="none" d="M371.057,257.464 Q371.264,257.896 371.425,258.344 373.702,264.66 370.866,270.695 368.001,276.79 361.684,279.067 355.367,281.344 349.317,278.463 343.238,275.642 340.961,269.326 338.684,263.009 341.549,256.914 344.385,250.88 350.702,248.603 357.019,246.326 363.098,249.146 368.721,251.826 371.057,257.464Z" test="Cherry3"/>
      </g>
      <g id="Cherry4">
        <path fill="#000" stroke="none" d="M369.888,317.175 Q371.98,312.725 371.236,308.134 367.849,308.849 366.295,308.751 367.849,308.849 371.236,308.134 371.016,306.542 370.451,304.974 368.206,298.747 362.233,295.94 356.26,293.132 350.033,295.377 343.806,297.622 340.998,303.595 338.19,309.568 340.435,315.795 342.68,322.022 348.653,324.83 354.626,327.638 360.853,325.393 367.081,323.148 369.888,317.175Z" test="Cherry4" vector-effect="non-scaling-stroke" stroke-width="1"/>
        <path id="Layer8_0_1_STROKES" stroke="#0F0" stroke-width="1.905" stroke-linejoin="round" stroke-linecap="round" fill="none" d="M371.236,308.134 Q371.7,308.017 372.164,307.9 376.313,306.911 380.417,307.203 383.269,307.39 386.877,308.975 389.998,310.33 392.284,312.037 M366.295,308.751 Q367.849,308.849 371.236,308.134" test="Cherry4"/>
        <path id="Layer8_0_2_STROKES" stroke="#F00" stroke-width="1.905" stroke-linejoin="round" stroke-linecap="round" fill="none" d="M371.236,308.134 Q371.98,312.725 369.888,317.175 367.081,323.148 360.853,325.393 354.626,327.638 348.653,324.83 342.68,322.022 340.435,315.795 338.19,309.568 340.998,303.595 343.806,297.622 350.033,295.377 356.26,293.132 362.233,295.94 368.206,298.747 370.451,304.974 371.016,306.542 371.236,308.134Z" test="Cherry4"/>
      </g>
      <g id="Cherry5">
        <path fill="#000" stroke="none" d="M395.914,343.895 Q397.919,339.629 396.971,335.313 396.125,335.213 395.596,335.151 396.125,335.213 396.971,335.313 396.766,334.324 396.411,333.338 394.473,327.962 389.292,325.527 384.111,323.092 378.735,325.03 373.359,326.968 370.924,332.149 368.489,337.329 370.427,342.705 372.365,348.081 377.546,350.517 382.726,352.952 388.102,351.014 393.478,349.076 395.914,343.895Z" test="Cherry5" vector-effect="non-scaling-stroke" stroke-width="1"/>
        <path id="Layer9_0_1_STROKES" stroke="#0F0" stroke-width="1.905" stroke-linejoin="round" stroke-linecap="round" fill="none" d="M396.971,335.313 Q399.566,335.491 404.997,335.812 411.019,336.931 411.12,341.704 M395.596,335.151 Q396.125,335.213 396.971,335.313" test="Cherry5"/>
        <path id="Layer9_0_2_STROKES" stroke="#F00" stroke-width="1.905" stroke-linejoin="round" stroke-linecap="round" fill="none" d="M396.971,335.313 Q397.919,339.629 395.914,343.895 393.478,349.076 388.102,351.014 382.726,352.952 377.546,350.517 372.365,348.081 370.427,342.705 368.489,337.329 370.924,332.149 373.359,326.968 378.735,325.03 384.111,323.092 389.292,325.527 394.473,327.962 396.411,333.338 396.766,334.324 396.971,335.313Z" test="Cherry5"/>
      </g>
    </g>
  </g>
</svg>