<?xml version="1.0" encoding="utf-8"?>
<svg id="EdithAnim08" image-rendering="inherit" baseProfile="basic" version="1.1" x="0px" y="0px" width="800" height="600" xmlns="http://www.w3.org/2000/svg" xmlns:xlink="http://www.w3.org/1999/xlink">
  <g id="German-Puddingf79r1" overflow="visible">
    <g id="German">
      <path id="Layer4_0_1_STROKES" stroke="#F60" stroke-width="2.456" stroke-linejoin="round" stroke-linecap="round" fill="none" d="M479.423,89.128 Q479.116,85.137 479.116,84.4 479.116,78.199 483.66,72.919 486.914,69.173 494.528,64.138 505.395,56.955 507.422,55.358 514.544,49.894 518.105,43 L518.412,43 Q514.176,59.165 512.334,64.323 508.158,75.743 503.676,78.997 500.238,81.576 488.756,85.874 480.283,89.005 480.037,92.505 L480.037,92.751 480.037,92.812 M480.037,92.751 Q477.888,88.269 489.861,78.015 495.94,72.796 503.185,66.901 M294.916,167.106 Q311.371,173.185 328.993,172.387 345.51,171.159 361.904,170.422 379.403,169.931 397.086,171.65 412.988,173.185 429.014,174.474 447.495,174.904 465.056,169.746 475.494,166.676 485.195,161.949 M488.94,189.517 Q472.792,193.078 456.214,193 441.171,194.92 426.312,194.982 415.506,195.043 404.515,194.982 L400.217,194.736 Q383.025,194.92 366.079,194.859 348.58,193.631 331.081,191.421 314.81,189.21 298.539,187.491 295.223,187.123 291.908,186.754" test="German"/>
      <path id="Layer4_0_2_STROKES" stroke="#0FF" stroke-width="2.456" stroke-linejoin="round" stroke-linecap="round" fill="none" d="M480.037,92.812 Q481.756,96.312 481.941,99.014 482.248,103.557 483.967,123.267 485.747,143.59 486.239,147.52 486.239,147.642 487.835,158.817 488.326,158.633 492.993,158.572 501.527,158.449 508.957,159.8 512.088,160.352 519.824,159.554 527.07,158.756 529.526,159.493 532.166,160.291 532.657,162.194 533.701,166.308 535.973,169.931 539.718,175.886 540.823,183.316 541.867,190.07 540.885,199.403 539.35,213.647 527.07,221.2 523.14,223.594 508.22,225.006 498.764,225.866 478.257,226.726 471.196,227.033 421.953,226.726 377.008,226.48 364.053,227.647 349.931,228.936 310.143,231.453 271.216,233.848 267.041,234.094 261.208,234.462 255.804,232.006 251.015,229.857 248.928,226.726 247.024,223.901 247.024,222.796 246.963,221.691 248.621,218.744 250.033,216.288 254.945,214.077 257.769,212.849 263.357,210.762 265.874,209.718 271.953,207.016 277.356,204.744 279.628,204.008 280.794,203.639 284.171,202.657 286.32,202.043 287.61,201.552 M288.838,211.99 Q288.96,201.859 291.969,176.93 295.837,144.45 300.811,133.091 305.538,122.284 305.661,116.82 305.109,110.373 305.723,103.312 306.582,93.917 309.161,88.269 310.266,85.69 315.547,77.831 319.906,71.322 321.441,69.971 323.59,68.068 327.52,68.314 330.344,68.498 334.642,68.559 338.203,68.866 341.335,70.463 342.747,71.199 347.229,72.98 350.176,74.208 352.694,75.989 355.272,77.831 356.439,80.041 357.667,82.251 358.158,82.62 358.465,82.067 358.834,81.515 L362.211,77.217 Q366.447,72.55 370.5,71.077 374.736,69.542 377.99,69.296 380.569,69.173 390.762,68.928 402.059,68.498 407.831,68.989 414.953,69.603 419.313,71.998 425.453,75.375 427.356,76.848 431.163,79.734 434.663,84.892 L441.417,94.654 444.057,92.567 Q447.434,90.049 450.934,87.962 453.083,86.672 456.828,82.681 459.407,79.918 461.986,79.98 467.819,80.041 468.064,80.102 471.011,80.532 473.038,82.743 476.108,86.12 478.502,90.049 479.362,91.461 480.037,92.751 M441.417,94.654 Q445.469,100.487 447.864,103.312 450.565,106.504 451.425,107.978 452.591,110.004 453.083,112.829 454.004,118.355 454.311,118.662 M487.835,158.817 Q488.081,160.475 488.326,162.378 489.861,173.615 489.923,176.071 L490.291,180.123 Q490.721,184.544 491.151,186.509 M525.78,172.816 Q519.272,189.272 500.422,194.061 483.414,198.543 465.915,200.569 449.828,202.78 434.294,207.139 418.392,211.744 402.059,213.893 385.113,216.533 367.982,218.805 351.588,220.954 334.765,222.059 317.634,223.103 300.872,225.805 282.759,228.629 264.646,226.848 259.673,226.48 254.761,225.498 M338.879,114.978 Q340.659,110.864 342.133,107.794 344.896,102.022 348.396,96.865 350.115,94.347 354.167,88.514 356.132,85.69 358.158,82.62" test="German"/>
      <path id="Layer4_0_3_STROKES" stroke="#FEB7AE" stroke-width="2.456" stroke-linejoin="round" stroke-linecap="round" fill="none" d="M384.867,401.961 Q384.929,402.207 385.051,402.514 407.34,404.479 422.505,403.926 445.162,403.128 458.854,396.497 472.301,389.988 482.186,374.086 490.659,360.455 498.15,336.939 504.29,317.782 506.808,303.169 507.913,296.906 510.43,274.925 512.088,260.557 512.211,252.391 512.272,248.277 511.658,238.085 M423.856,404.417 Q420.234,406.935 419.865,413.197 419.681,416.452 420.172,420.688 419.804,430.512 419.558,432.661 M275.268,234.401 Q273.917,253.128 280.426,294.818 286.873,336.447 292.706,344.736 298.477,353.025 305.416,364.876 313.336,373.963 320.581,380.103 341.396,397.663 368.596,400.795 377.254,401.777 385.051,402.514 386.586,408.224 387.262,411.601 387.937,415.531 387.937,419.767 387.937,422.407 387.262,425.293 386.586,428.24 385.788,428.67 L385.788,428.056" test="German"/>
      <path id="Layer4_0_4_STROKES" stroke="#FFF" stroke-width="2.456" stroke-linejoin="round" stroke-linecap="round" fill="none" d="M481.572,314.221 L325.985,332.763 Q326.66,338.289 328.072,345.535 329.546,352.903 337.466,363.279 345.448,373.717 355.027,380.594 L376.087,379.734 Q400.094,378.322 414.646,375.621 435.522,371.752 446.636,369.235 461.617,365.858 466.222,363.341 471.073,360.7 472.424,359.657 472.561,359.296 472.7,358.951 474.089,355.152 474.818,351.675 477.888,341.114 479.73,334.667 483.169,322.571 482.8,316.677 482.493,311.642 483.353,306.3 484.028,302.186 483.414,300.099 482.677,297.52 481.634,297.827 473.099,300.099 472.976,300.099 459.652,302.555 450.872,304.09 434.724,306.914 425.084,308.081 408.69,310.23 400.279,311.335 385.297,313.238 377.806,313.607 371.85,313.914 361.904,315.387 353.062,316.677 348.334,316.677 340.536,316.37 337.896,316.308 333.782,316.185 331.142,317.291 328.441,318.457 327.09,319.194 L326.23,319.747 Q325.186,324.966 325.985,332.763 M443.197,260.127 Q442.583,257.057 442.583,256.627 442.583,249.075 449.03,246.005 453.635,243.856 461.924,243.856 466.959,243.856 470.336,249.505 471.994,252.391 472.976,255.522 M355.027,380.594 Q360.369,384.339 364.912,386.059 375.719,390.234 391.376,390.234 402.796,390.234 418.33,387.901 435.338,385.383 444.794,383.296 459.284,380.103 462.538,376.849 466.161,373.226 469.845,365.674 471.318,362.604 472.424,359.657 M386.095,420.688 Q380,422.162 378.175,425.048 375.964,427.197 375.964,428.854 375.964,434.81 408.506,438.801 415.874,438.801 420.97,437.819 426.005,436.775 441.048,427.749 440.987,426.214 437.241,424.434 433.496,422.592 430.549,421.916 427.602,421.179 421.4,422.223 M441.355,428.67 Q442.522,430.942 444.18,435.731 446.267,441.933 446.267,444.941 446.574,444.941 446.881,444.327 M328.686,255.829 Q329.73,248.83 335.01,244.532 340.045,240.479 346.676,240.479 350.422,240.479 352.694,244.347 354.658,247.724 355.088,252.759 L354.474,252.452 M375.964,427.442 Q375.596,430.082 374.675,435.547 373.631,442.178 373.201,443.406 L373.201,445.862 373.508,445.862" test="German"/>
    </g>
    <g id="German-Pudding">
      <path fill="#000" stroke="none" d="M405.252,328.551 Q405.367,315.201 402.54,302.219 399.775,288.513 394.926,275.496 390.033,262.191 384.597,248.915 379.958,236.38 375.53,223.877 370.904,211.991 365.191,200.615 359.087,188.513 350.656,178.034 342.54,167.752 332.518,159.606 321.803,150.885 310.226,143.052 L309.639,142.794 Q309.518,142.884 308.974,143.063 308.46,143.333 308.504,143.922 308.721,146.864 319.495,201.58 320.621,207.288 324.174,220.782 324.97,223.813 325.89,227.198 328.755,237.926 332.814,252.441 343.8,291.665 346.943,299.971 349.876,307.794 353.186,315.844 355.178,320.663 357.26,325.602 364.376,342.141 368.819,349.516 369.36,350.392 369.87,351.178 375.337,359.522 381.107,367.112 387.117,375.125 390.306,378.091 392.487,380.134 394.955,382.283 396.323,383.69 396.317,385.651 L398.777,385.342 Q407.847,374.01 406.246,359.418 405.939,356.204 405.647,353.035 L405.604,352.296 Q405.187,340.377 405.252,328.551Z" test="German Pudding" vector-effect="non-scaling-stroke" stroke-width="1"/>
      <path id="Layer3_0_1_STROKES" stroke="#FFF" stroke-width="1.908" stroke-linejoin="round" stroke-linecap="round" fill="none" d="M310.226,143.052 Q321.803,150.885 332.518,159.606 342.54,167.752 350.656,178.034 359.087,188.513 365.191,200.615 370.904,211.991 375.53,223.877 379.958,236.38 384.597,248.915 390.033,262.191 394.926,275.496 399.775,288.513 402.54,302.219 405.367,315.201 405.252,328.551 405.187,340.377 405.604,352.296 M405.647,353.035 Q405.939,356.204 406.246,359.418 407.847,374.01 398.777,385.342" test="German Pudding"/>
      <path id="Layer2_0_1_STROKES" stroke="#FFF" stroke-width="1.908" stroke-linejoin="round" stroke-linecap="round" fill="none" d="M383.559,318.831 Q388.4,319.193 390.012,319.967 392.392,321.09 397.491,326.038 402.305,330.578 402.966,331.365 405.041,333.694 405.953,336.457 407.896,342.346 401.897,350.957 398.915,355.268 394.893,359.874 394.781,360 394.674,360.122 M316.72,155.879 Q327.111,156.619 336.191,162.212 340.287,164.728 342.756,168.635 342.952,168.961 342.816,168.816 344.235,174.214 341.311,180.314 338.442,186.385 331.41,187.149 328.124,191.348 329.935,196.225 L330.1,196.422 Q334.468,203.721 343.33,206.372 345.621,207.073 347.699,208.497 358.283,215.453 358.563,227.718 358.687,236.77 357.062,245.393 371.523,247.352 382.78,256.045 386.077,258.574 385.883,262.707 385.549,268.694 382.034,273.571 378.656,278.253 374.752,282.405 371.65,285.639 367.406,287.391 379.256,289.659 382.857,301.331 384.141,305.528 384.203,310.28 384.321,321.293 376.77,329.16 374.076,331.957 371.518,334.861 L371.595,334.333 M367.406,287.391 L356.379,292.336 357.014,291.674 M342.816,168.816 Q342.747,168.766 342.628,168.627 342.674,168.612 342.756,168.635 M329.935,196.225 Q329.965,196.316 330.009,196.452 330.055,196.437 330.1,196.422" test="German Pudding"/>
      <path fill="#000" stroke="none" d="M270.863,418.012 Q272.994,421.88 276.888,426.221 281.203,430.925 283.946,431.778 285.906,432.388 289.168,431.01 293.609,429.092 297.985,428.652 302.165,428.227 316.312,424.212 312.688,420.083 307.833,414.351 286.202,388.838 263.522,335.339 256.437,318.588 250.108,301.085 L245.172,286.891 Q233.906,255.797 230.576,219.07 228.882,200.54 228.957,165.301 225.331,166.95 223.503,167.955 219.877,169.905 209.558,175.019 200.795,179.82 199.471,183.421 196.902,190.247 194.797,198.025 191.64,209.616 190.919,218.393 190.2,227.02 191.708,237.222 192.655,243.44 195.477,258.081 197.554,269.853 205.025,293.861 212.272,317.038 218.173,331.417 223.295,343.892 232.083,361.236 239.372,375.559 243.664,382.782 246.036,386.772 257.97,401.47 269.693,415.836 270.863,418.012 M308.504,143.922 Q308.46,143.333 308.974,143.063 309.518,142.884 309.639,142.794 309.866,142.568 305.799,140.293 302.184,138.472 299.891,138.526 297.568,138.639 291.919,140.855 289.427,141.828 277.545,145.247 266.886,148.263 260.662,151.171 256.795,153 240.724,160.011 233.443,163.218 228.957,165.301 228.882,200.54 230.576,219.07 233.906,255.797 245.172,286.891 L250.108,301.085 Q256.437,318.588 263.522,335.339 286.202,388.838 307.833,414.351 312.688,420.083 316.312,424.212 318.652,423.54 321.233,422.839 L321.083,422.536 321.233,422.839 Q322.411,422.45 323.649,422.091 353.393,413.28 355.507,412.683 366.528,409.699 377.5,403.064 384.149,399.011 389.654,394.381 393.193,391.405 394.464,389.93 396.296,387.718 396.317,385.651 396.323,383.69 394.955,382.283 392.487,380.134 390.306,378.091 387.117,375.125 381.107,367.112 375.337,359.522 369.87,351.178 369.36,350.392 368.819,349.516 364.376,342.141 357.26,325.602 355.178,320.663 353.186,315.844 349.876,307.794 346.943,299.971 343.8,291.665 332.814,252.441 328.755,237.926 325.89,227.198 324.97,223.813 324.174,220.782 320.621,207.288 319.495,201.58 308.721,146.864 308.504,143.922 M318.227,368.825 Q333.781,393.731 352.232,413.261 333.781,393.731 318.227,368.825 302.673,343.918 293.735,321.249 284.796,298.579 270.301,242.329 261.789,193.096 261.627,191.994 260.218,183.919 259.913,169.753 259.584,153.687 261.748,151.264 259.584,153.687 259.913,169.753 260.218,183.919 261.627,191.994 261.789,193.096 270.301,242.329 284.796,298.579 293.735,321.249 302.673,343.918 318.227,368.825Z" test="German Pudding" vector-effect="non-scaling-stroke" stroke-width="1"/>
      <path id="Layer1_0_1_STROKES" stroke="#F60" stroke-width="1.908" stroke-linejoin="round" stroke-linecap="round" fill="none" d="M321.233,422.839 Q318.652,423.54 316.312,424.212 302.165,428.227 297.985,428.652 293.609,429.092 289.168,431.01 285.906,432.388 283.946,431.778 281.203,430.925 276.888,426.221 272.994,421.88 270.863,418.012 269.693,415.836 257.97,401.47 246.036,386.772 243.664,382.782 239.372,375.559 232.083,361.236 223.295,343.892 218.173,331.417 212.272,317.038 205.025,293.861 197.554,269.853 195.477,258.081 192.655,243.44 191.708,237.222 190.2,227.02 190.919,218.393 191.64,209.616 194.797,198.025 196.902,190.247 199.471,183.421 200.795,179.82 209.558,175.019 219.877,169.905 223.503,167.955 225.331,166.95 228.957,165.301 233.443,163.218 240.724,160.011 256.795,153 260.662,151.171 266.886,148.263 277.545,145.247 289.427,141.828 291.919,140.855 297.568,138.639 299.891,138.526 302.184,138.472 305.799,140.293 309.866,142.568 309.639,142.794 309.518,142.884 308.974,143.063 308.46,143.333 308.504,143.922 308.721,146.864 319.495,201.58 320.621,207.288 324.174,220.782 324.97,223.813 325.875,227.228 328.755,237.926 332.814,252.441 343.8,291.665 346.943,299.971 349.876,307.794 353.186,315.844 355.178,320.663 357.26,325.602 364.376,342.141 368.819,349.516 369.36,350.392 369.87,351.178 375.337,359.522 381.107,367.112 387.117,375.125 390.306,378.091 392.487,380.134 394.955,382.283 396.323,383.69 396.317,385.651 396.296,387.718 394.464,389.93 393.193,391.405 389.654,394.381 384.149,399.011 377.5,403.064 366.528,409.699 355.507,412.683 353.393,413.28 323.649,422.091 322.411,422.45 321.233,422.839 L321.083,422.536" test="German Pudding"/>
      <path id="Layer1_0_2_STROKES" stroke="#F00" stroke-width="1.908" stroke-linejoin="round" stroke-linecap="round" fill="none" d="M228.957,165.301 Q228.882,200.54 230.576,219.07 233.906,255.797 245.172,286.891 L250.108,301.085 Q256.437,318.588 263.522,335.339 286.202,388.838 307.833,414.351 312.688,420.083 316.312,424.212 M261.748,151.264 Q259.584,153.687 259.913,169.753 260.218,183.919 261.627,191.994 261.789,193.096 270.301,242.329 284.796,298.579 293.735,321.249 302.673,343.918 318.227,368.825 333.781,393.731 352.232,413.261" test="German Pudding"/>
      <g id="Cherry1">
        <path fill="#000" stroke="none" d="M338.53,178.98 Q343.29,181.378 348.363,179.703 353.437,178.029 355.834,173.269 358.232,168.509 356.558,163.436 354.883,158.362 350.124,155.965 345.364,153.567 340.29,155.241 335.217,156.916 332.819,161.675 330.421,166.435 332.096,171.509 333.77,176.582 338.53,178.98Z" test="Cherry1" vector-effect="non-scaling-stroke" stroke-width="1"/>
        <path id="Layer5_0_1_STROKES" stroke="#0F0" stroke-width="1.908" stroke-linejoin="round" stroke-linecap="round" fill="none" d="M357.476,169.111 Q364.132,168.12 371.553,173.407 371.628,173.482 371.688,173.513 376.836,177.239 377.916,179.444 378.036,179.656 378.111,179.883" test="Cherry1"/>
        <path id="Layer5_0_2_STROKES" stroke="#F00" stroke-width="1.908" stroke-linejoin="round" stroke-linecap="round" fill="none" d="M348.363,179.703 Q343.29,181.378 338.53,178.98 333.77,176.582 332.096,171.509 330.421,166.435 332.819,161.675 335.217,156.916 340.29,155.241 345.364,153.567 350.124,155.965 354.883,158.362 356.558,163.436 358.232,168.509 355.834,173.269 353.437,178.029 348.363,179.703Z" test="Cherry1"/>
      </g>
      <g id="Cherry2">
        <path fill="#000" stroke="none" d="M369.797,217.091 Q369.637,215.084 368.964,213.046 366.767,206.387 360.501,203.23 354.235,200.074 347.575,202.271 340.916,204.469 337.76,210.735 334.604,217.001 336.801,223.66 338,230.319 345.265,233.476 351.531,236.632 358.19,234.434 364.849,232.237 368.005,225.971 370.191,221.633 369.797,217.091 369.601,217.106 369.359,217.135 369.601,217.106 369.797,217.091Z" test="Cherry2" vector-effect="non-scaling-stroke" stroke-width="1"/>
        <path id="Layer6_0_1_STROKES" stroke="#F00" stroke-width="1.908" stroke-linejoin="round" stroke-linecap="round" fill="none" d="M369.797,217.091 Q370.191,221.633 368.005,225.971 364.849,232.237 358.19,234.434 351.531,236.632 345.265,233.476 338,230.319 336.801,223.66 334.604,217.001 337.76,210.735 340.916,204.469 347.575,202.271 354.235,200.074 360.501,203.23 366.767,206.387 368.964,213.046 369.637,215.084 369.797,217.091 369.601,217.106 369.359,217.135" test="Cherry2"/>
        <path id="Layer6_0_2_STROKES" stroke="#0F0" stroke-width="1.908" stroke-linejoin="round" stroke-linecap="round" fill="none" d="M369.797,217.091 Q382.095,215.695 388.442,217.267 393.248,219.348 395.298,219.626" test="Cherry2"/>
      </g>
      <g id="Cherry3">
        <path fill="#000" stroke="none" d="M399.903,265.425 Q402.908,259.46 400.8,253.072 400.65,252.619 400.455,252.181 400.425,252.242 400.349,252.317 399.154,253.415 397.51,253.606 399.154,253.415 400.349,252.317 400.425,252.242 400.455,252.181 398.27,246.473 392.712,243.635 386.702,240.646 380.315,242.753 373.927,244.861 370.923,250.826 367.888,256.851 369.996,263.238 372.104,269.626 378.114,272.615 384.093,275.665 390.481,273.557 396.868,271.45 399.903,265.425Z" test="Cherry3" vector-effect="non-scaling-stroke" stroke-width="1"/>
        <path id="Layer7_0_1_STROKES" stroke="#0F0" stroke-width="1.908" stroke-linejoin="round" stroke-linecap="round" fill="none" d="M400.455,252.181 Q401.53,251.023 402.18,250.557 404.599,248.905 411.693,252.441 414.706,253.959 418.499,256.625 420.396,257.958 421.931,259.109 M397.51,253.606 Q399.154,253.415 400.349,252.317 400.425,252.242 400.455,252.181" test="Cherry3"/>
        <path id="Layer7_0_2_STROKES" stroke="#F00" stroke-width="1.908" stroke-linejoin="round" stroke-linecap="round" fill="none" d="M400.455,252.181 Q400.65,252.619 400.8,253.072 402.908,259.46 399.903,265.425 396.868,271.45 390.481,273.557 384.093,275.665 378.114,272.615 372.104,269.626 369.996,263.238 367.888,256.851 370.923,250.826 373.927,244.861 380.315,242.753 386.702,240.646 392.712,243.635 398.27,246.473 400.455,252.181Z" test="Cherry3"/>
      </g>
      <g id="Cherry4">
        <path fill="#000" stroke="none" d="M397.627,311.948 Q399.843,307.55 399.223,302.932 395.812,303.556 394.258,303.415 395.812,303.556 399.223,302.932 399.046,301.333 398.523,299.747 396.445,293.451 390.541,290.476 384.636,287.502 378.339,289.58 372.043,291.658 369.068,297.563 366.094,303.467 368.172,309.764 370.25,316.06 376.155,319.035 382.059,322.009 388.356,319.931 394.653,317.853 397.627,311.948Z" test="Cherry4" vector-effect="non-scaling-stroke" stroke-width="1"/>
        <path id="Layer8_0_1_STROKES" stroke="#0F0" stroke-width="1.908" stroke-linejoin="round" stroke-linecap="round" fill="none" d="M399.223,302.932 Q399.691,302.828 400.159,302.724 404.34,301.846 408.442,302.251 411.292,302.516 414.862,304.201 417.95,305.643 420.193,307.415 M394.258,303.415 Q395.812,303.556 399.223,302.932" test="Cherry4"/>
        <path id="Layer8_0_2_STROKES" stroke="#F00" stroke-width="1.908" stroke-linejoin="round" stroke-linecap="round" fill="none" d="M399.223,302.932 Q399.843,307.55 397.627,311.948 394.653,317.853 388.356,319.931 382.059,322.009 376.155,319.035 370.25,316.06 368.172,309.764 366.094,303.467 369.068,297.563 372.043,291.658 378.339,289.58 384.636,287.502 390.541,290.476 396.445,293.451 398.523,299.747 399.046,301.333 399.223,302.932Z" test="Cherry4"/>
      </g>
      <g id="Cherry5">
        <path fill="#000" stroke="none" d="M422.961,339.401 Q425.085,335.183 424.253,330.836 423.409,330.713 422.881,330.636 423.409,330.713 424.253,330.836 424.075,329.84 423.746,328.844 421.952,323.408 416.831,320.828 411.71,318.248 406.274,320.042 400.838,321.836 398.258,326.957 395.678,332.079 397.472,337.515 399.266,342.951 404.388,345.53 409.509,348.11 414.945,346.316 420.381,344.522 422.961,339.401Z" test="Cherry5" vector-effect="non-scaling-stroke" stroke-width="1"/>
        <path id="Layer9_0_1_STROKES" stroke="#0F0" stroke-width="1.908" stroke-linejoin="round" stroke-linecap="round" fill="none" d="M424.253,330.836 Q426.847,331.085 432.276,331.554 438.276,332.839 438.247,337.621 M422.881,330.636 Q423.409,330.713 424.253,330.836" test="Cherry5"/>
        <path id="Layer9_0_2_STROKES" stroke="#F00" stroke-width="1.908" stroke-linejoin="round" stroke-linecap="round" fill="none" d="M424.253,330.836 Q425.085,335.183 422.961,339.401 420.381,344.522 414.945,346.316 409.509,348.11 404.388,345.53 399.266,342.951 397.472,337.515 395.678,332.079 398.258,326.957 400.838,321.836 406.274,320.042 411.71,318.248 416.831,320.828 421.952,323.408 423.746,328.844 424.075,329.84 424.253,330.836Z" test="Cherry5"/>
      </g>
    </g>
  </g>
</svg>