<?xml version="1.0" encoding="utf-8"?>
<svg id="EdithAnim07" image-rendering="inherit" baseProfile="basic" version="1.1" x="0px" y="0px" width="800" height="600" xmlns="http://www.w3.org/2000/svg" xmlns:xlink="http://www.w3.org/1999/xlink">
  <defs>
    <g id="LinePerspective" overflow="visible">
      <path id="Layer4_0_1_STROKES" stroke="#FFF" stroke-width="2" stroke-linejoin="round" stroke-linecap="round" fill="none" d="M-59.65 54.85L59.7 -54.85" test="LinePerspective"/>
    </g>
  </defs>
  <g id="Need-a-mallf0r1" overflow="visible">
    <g id="MallBackAndSide">
      <g id="MallBack">
        <path id="Layer5_0_1_STROKES" stroke="#FFF" stroke-width="2" stroke-linejoin="round" stroke-linecap="round" fill="none" d="M-332.35,182.45 Q-326.5,182.15 -167.75,182.8 -10.75,183.5 -8.3,183.15" test="MallBack"/>
      </g>
      <g id="Mall-Back-right">
        <path id="Layer6_0_1_STROKES" stroke="#FFF" stroke-width="2" stroke-linejoin="round" stroke-linecap="round" fill="none" d="M-8.95,183.15 L-4.8,472.55" test="Mall Back right"/>
      </g>
    </g>
    <use xlink:href="#LinePerspective" transform="matrix(1.271 0 0 .609 -80.65 512.2)"/>
    <use xlink:href="#LinePerspective" transform="matrix(1.278 0 0 .392 -87.6 206.85)"/>
    <use xlink:href="#LinePerspective" transform="matrix(1.61 0 0 .392 -431.4 206.85)"/>
    <g id="Mall-Front">
      <path id="Layer1_0_1_STROKES" stroke="#FFF" stroke-width="2" stroke-linejoin="round" stroke-linecap="round" fill="none" d="M-524.25,228.35 Q-503.8,226.2 -478.3,223.9 -427.25,219.3 -401.95,218.8 -373.9,218.25 -311,217.7 -253.4,217.2 -229.55,217.2 -210.65,217.2 -186.1,219.8 -164.05,222.05 -161.2,223.55 -159.1,224.65 -158.15,271.7 -157.3,314.55 -158.05,334.75 -158.45,345.65 -157.25,389.3 -156.05,432.65 -156.45,442 -157.25,461.1 -157.25,515.9 -157.25,523.45 -157.2,535.05 -157.35,543.2 -158.85,545.3 -160.2,547.05 -218.45,545.6 -221.55,545.55 -224.8,545.45 -227.05,545.4 -229.3,545.35 -230.2,545.35 -231.05,545.3 -303.1,542.95 -312.95,542.95 -323.6,542.95 -404,542.15 -434.2,541.85 -453.95,541.65 -486.8,541.35 -490.9,541.35 -497.7,541.35 -509.6,543.8 -518.95,545.7 -521.85,544.5 -525.1,543.1 -525.85,489 -526.85,424.05 -527.45,417.4 -529.05,401.05 -527.35,318.1 -525.7,238.25 -524.25,228.35Z" test="Mall Front"/>
      <path id="Layer1_0_2_STROKES" stroke="#F0F" stroke-width="2" stroke-linejoin="round" stroke-linecap="round" fill="none" d="M-270.5,284.05 Q-268.3,282.05 -266.2,279.95 -264.65,278.55 -263.4,276.9 -261.05,274.1 -259.15,270.95 -257.5,268.25 -256.35,265.35 -254.85,261.8 -255.8,258 -255.9,257.35 -256.1,256.8 -257,256.85 -257.9,256.95 -258.65,257.2 -259.35,257.55 -260.85,258.7 -262.05,260.15 -263.5,262 -264.6,264.2 -266,266.95 -267.05,269.9 -269.5,276.75 -270.5,284.05 -270.8,287.2 -270.65,290.2 -270.6,291.65 -270.15,292.9 -269.45,295 -267.7,296.75 -267,297.5 -266,298 -262.75,299.7 -259.35,297.8 -256.35,296.05 -253.95,293.5 -253.65,293.25 -253.4,292.9 -251.5,290.85 -249.8,288.5 -249.45,281.8 -247.2,275.45 -245.95,272 -244.3,268.75 -243.15,266.5 -241.55,264.6 -240.15,262.95 -238.45,261.6 -236.1,259.7 -233.15,259.5 -233.35,260.8 -233.65,262 -234,263.7 -234.45,265.35 -235.5,268.75 -237.35,271.65 -239.4,274.75 -241.5,277.6 -243.3,280.1 -245.15,282.55 -247.4,285.6 -249.8,288.5 -250,290.7 -249.75,292.9 -249.55,294.4 -249.1,295.8 -248.05,299.5 -244.25,300.5 -242.4,301 -240.45,301.25 -237.2,301.6 -234.45,299.65 -232.5,298.35 -230.55,297.05 -229.5,296.5 -228.8,295.7 -227.55,294.35 -226.3,292.9 -225.85,292.35 -225.4,291.8 M-344.1,299.95 Q-343.35,296.8 -342.6,293.7 -342.5,293.3 -342.4,292.9 -341.6,289.55 -340.8,286.15 -339.1,278.8 -335.45,272.25 -331.85,265.65 -326.55,260.25 -322.65,256.3 -317.75,254 -317.45,261.45 -319.8,268.45 -321.4,273.1 -323.2,277.9 -322.1,275.35 -320.8,272.8 -319.4,269.8 -317.3,266.65 -315.8,264.3 -313.85,262.5 -313.7,262.3 -313.5,262.15 -312.1,260.95 -310.6,259.65 -307.85,257.35 -305.2,255.4 -302.9,253.55 -299.85,253.65 -299.9,254.9 -300.15,256.1 -300.2,257.05 -300.5,257.95 -301.35,260.85 -302.2,263.3 -303.65,267.65 -305.15,271.65 -307.7,279.05 -310.3,286.4 -311.35,289.55 -312.1,292.9 -312.3,293.9 -312.5,294.85 -313,297.3 -313.1,299.95 -311.5,298.2 -310.05,296.35 -308.6,294.65 -307.3,292.9 -306.85,292.3 -306.45,291.7 -304.6,289.15 -302.85,286.55 -300.7,283.35 -298.25,280.25 -295.75,277.05 -292.55,274.55 -290.4,273.1 -288.15,272.25 -287.45,272.05 -283.75,270.8 M-324.9,282.35 L-323.2,277.9 M-292.55,274.55 Q-294.9,276.7 -296.35,279.65 -297.4,281.7 -298.5,283.75 -300,286.7 -300.8,289.8 -301.05,290.85 -301.25,291.95 -301.3,292.4 -301.3,292.9 -301.3,293.1 -301.3,293.3 -300.75,294.4 -299.6,294.8 -298.4,295.2 -297.2,294.65 -296.05,294.1 -295.2,293.15 -295.1,293.05 -294.95,292.9 -293.05,291 -291.45,288.9 -288.45,285.1 -285.7,280.9 -285.45,280.25 -285.3,279.7 -284.25,276.4 -283.2,273 L-283.2,272.85 Q-282.9,271.85 -282.95,270.8 M-285.7,280.9 Q-284.1,278.55 -283.75,276.2 -283.45,274.6 -283.2,273 M-285.7,280.9 Q-286.75,284.25 -287.2,287.85 -287.4,289.2 -286.95,290.55 -286.4,292.3 -284.85,292.9 -284.45,293.05 -284.05,293.15 -283.8,293.05 -283.6,292.9 -280.05,291.15 -276.95,289 -273.5,286.55 -270.5,284.05 M-382.45,322.4 Q-379.7,322.7 -377.2,322.55 -373.9,322.4 -370.65,322.35 -368.7,322.1 -366.75,322 -364.6,321.85 -362.4,321.7 -358.85,321.35 -355.3,321.05 -352.75,320.75 -350.1,320.55 -347.3,320.2 -344.5,319.9 -341.5,319.65 -338.5,319.4 -335.3,319.15 -332.15,318.95 -328.75,318.75 -325.4,318.55 -321.8,318.4 -318.25,318.2 -314.45,318.05 -310.65,318 -308.8,317.95 -306.8,317.9 -304.8,317.9 -302.8,317.9 -300.75,317.85 -298.65,317.75 -296.55,317.75 -294.5,317.75 -291.25,317.75 -287.9,317.75 -284.9,317.75 -281.95,317.9 -278.95,317.9 -275.95,317.9 -254.75,318 -233.65,318 M-299.1,540.15 L-294.75,400.7 -224.4,400.7 -228.4,542.55 M-379.75,540.55 L-375.35,402.7 -319.35,402.7 -322.1,538.5 M-465.25,303.7 Q-464.45,300.4 -463.65,297.15 -462.7,293.15 -461.85,289.2 -460,281.55 -456.2,274.7 -452.45,267.8 -446.9,262.15 -442.75,258 -437.7,255.6 -437.35,263.35 -439.85,270.7 -441.5,275.6 -443.4,280.6 -442.2,277.95 -440.9,275.3 -439.4,272.1 -437.2,268.85 -435.65,266.35 -433.6,264.45 -433.45,264.3 -433.25,264.15 -431.75,262.85 -430.2,261.55 -427.35,259.1 -424.6,257.05 -422.15,255.1 -419,255.25 -419.05,256.55 -419.25,257.8 -419.35,258.8 -419.65,259.75 -420.55,262.75 -421.4,265.35 -422.95,269.9 -424.5,274.1 -427.2,281.8 -429.9,289.5 -431.25,293.65 -432.2,298.3 -432.5,299.9 -432.7,301.55 -430,300.9 -427.85,300.45 -425.3,299.65 -422.95,298.45 -420.6,297.3 -418.3,295.95 -419.25,288.35 -416.65,283.75 -414.1,279.1 -412.55,277.3 -411,275.45 -409.85,274.95 -409.55,274.75 -409.2,274.75 -406,276.55 -406.55,280.2 -407.2,283.85 -409.2,286.9 -411,289.85 -413.4,291.85 -415.85,293.9 -418.3,295.95 -418.3,298.15 -417.45,300.25 -416.65,302.15 -414.8,302.75 -413.4,303.1 -412,302.25 -408.6,300.5 -406.4,297.45 -406.1,297.1 -405.9,296.7 -404.6,294.85 -403.4,292.9 -403.2,292.5 -402.9,292.05 -402.05,290.55 -401.05,289.05 L-401,289 Q-399.7,285.05 -397.15,281.75 -394.45,278.4 -390.6,276.1 -389.5,275.6 -385.3,275.3 M-401.05,289.05 Q-401.65,291 -401.95,292.9 -402.15,294.05 -402.2,295.15 -402.35,297.3 -400.8,298.95 -400.05,299.8 -399.1,300.5 -397.75,301.5 -396.3,300.85 -395.05,300.45 -394.1,299.45 -392.8,298.15 -391.95,296.5 -391,294.75 -390.2,292.9 -390.05,292.45 -389.85,292 -388.8,289.15 -387.95,286.25 -386.95,282.9 -385.85,279.6 -385.35,278 -384.65,276.2 -384.6,276.05 -384.5,275.9 -384.6,277.1 -384.85,278 -386.25,282.25 -387,286.35 -387.55,289.65 -387.65,292.9 -387.7,294.4 -387.6,295.85 -386.5,294.4 -385.4,292.9 -385.05,292.4 -384.65,291.95 -382.65,289.05 -380.5,286.55 -379.2,285.05 -377.8,283.75 -375.15,281.4 -371.9,279.6 -369.35,276.55 -365.6,275.6 -365.5,275.65 -363.9,276.35 M-371.9,279.6 Q-374.15,282.1 -375.8,284.65 -377.45,287.15 -378.8,290.05 -379.4,291.5 -379.75,292.9 -379.8,293.05 -379.85,293.25 -381.25,300.5 -374.4,299.45 -372.7,299.2 -371.1,298.1 -370.05,297.25 -369,296.45 -368,295.65 -367.4,294.6 -366.9,293.8 -366.5,292.9 -366.4,292.65 -366.25,292.3 -365,288.9 -364.25,285.6 L-364.05,284.4 Q-363.75,281.75 -363.45,278.9 -363.4,278.05 -363.1,277.3 -362.95,276.9 -362.7,276.7 L-362.7,276.8 -364.05,284.4 M-467.55,339.3 Q-465.15,337.15 -462.6,335.65 -460.45,334.35 -458.15,333.3 -455.5,331.85 -452.7,330.8 -449.8,329.5 -446.85,328.4 -444.2,327.5 -441.55,326.7 -438.25,325.7 -434.95,325.1 -433.25,324.9 -431.45,324.7 M-387.6,295.85 Q-387.6,298 -387.65,300.15 -387.85,303.8 -388.15,307.5 -388.35,309.3 -388.8,311.25 -389.55,314.55 -390.5,317.9 -391.25,320.55 -392.1,323.15 -393.15,326.8 -394.6,330.15 -395.45,332.15 -396.4,334.1 -398.05,337.45 -399.8,340.8 -400.45,342.05 -401.25,343.2 -402.2,344.45 -403.25,345.6 -405.85,348.15 -409.05,349.65 -411.4,350.6 -413.85,351.2 -416.65,351.9 -419.45,352.3 -422.35,352.25 -425.15,351.9 -427.75,351.2 -430,349.85 -432.25,348.6 -434.2,346.95 -436.75,344.75 -436.1,341.45 -435.45,338.8 -433.55,336.65 -432.05,334.95 -430.5,333.15 -429.3,331.8 -428.1,330.5 -427,329.35 -425.9,328.45 -423.5,326.55 -421.3,324.9 -418.55,323.05 -415.85,321.05 -414.2,319.9 -412.55,318.75 -409.5,316.6 -406.45,314.45 -406.15,314.25 -405.9,314.1 -403.5,312.3 -401.2,310.4 -398.95,308.65 -396.8,306.75 -394.3,304.5 -392,301.65 -389.65,298.85 -387.6,295.85Z M-364.25,285.6 Q-364.85,289 -364.75,292.55 -364.75,292.75 -364.7,292.9 -364.6,295.5 -363.25,297.65 -362.1,298 -361,297.85 -357.95,297 -357.4,293.95 -357.3,293.45 -357.4,292.95 M-408.4,323.9 L-399.4,323.4 M-461.9,537.3 L-461.9,401.9 -400.75,403.6 -400.75,535.1" test="Mall Front"/>
      <g test="Mall Front">
        <path id="Layer2_0_1_STROKES" stroke="#FFF" stroke-width="1.482" stroke-linejoin="round" stroke-linecap="round" fill="none" d="M-483.307,385.407 L-486.57,385.407 -486.112,379.021 -198.66,379.324 -205.472,385.407"/>
      </g>
      <g test="Mall Front">
        <path id="Layer3_0_1_STROKES" stroke="#FFF" stroke-width="1.482" stroke-linejoin="round" stroke-linecap="round" fill="none" d="M-487.486,385.272 L-204.556,385.306"/>
      </g>
    </g>
  </g>
</svg>