<?xml version="1.0" encoding="utf-8"?>
<svg id="EdithAnim07" image-rendering="inherit" baseProfile="basic" version="1.1" x="0px" y="0px" width="800" height="600" xmlns="http://www.w3.org/2000/svg" xmlns:xlink="http://www.w3.org/1999/xlink">
  <defs>
    <g id="LinePerspective" overflow="visible">
      <path id="Layer4_0_1_STROKES" stroke="#FFF" stroke-width="2" stroke-linejoin="round" stroke-linecap="round" fill="none" d="M-59.65 54.85L59.7 -54.85" test="LinePerspective"/>
    </g>
  </defs>
  <g id="Need-a-mallf11r1" overflow="visible">
    <g id="MallBackAndSide">
      <g id="MallBack">
        <path id="Layer5_0_1_STROKES" stroke="#FFF" stroke-width="2" stroke-linejoin="round" stroke-linecap="round" fill="none" d="M-33.45,182.45 Q-27.6,182.15 131.15,182.8 288.15,183.5 290.6,183.15" test="MallBack"/>
      </g>
      <g id="Mall-Back-right">
        <path id="Layer6_0_1_STROKES" stroke="#FFF" stroke-width="2" stroke-linejoin="round" stroke-linecap="round" fill="none" d="M289.95,183.15 L294.1,472.55" test="Mall Back right"/>
      </g>
    </g>
    <use xlink:href="#LinePerspective" transform="matrix(.782 0 0 .644 248.85 510.25)"/>
    <use xlink:href="#LinePerspective" transform="matrix(.785 0 0 .408 241.7 206)"/>
    <use xlink:href="#LinePerspective" transform="matrix(1.114 0 0 .408 -102.35 206)"/>
    <g id="Mall-Front">
      <path id="Layer1_0_1_STROKES" stroke="#FFF" stroke-width="2" stroke-linejoin="round" stroke-linecap="round" fill="none" d="M-165.55,228.35 Q-145.1,226.2 -119.6,223.9 -68.55,219.3 -43.25,218.8 -15.2,218.25 47.7,217.7 105.3,217.2 129.15,217.2 148.05,217.2 172.6,219.8 194.65,222.05 197.5,223.55 199.6,224.65 200.55,271.7 201.4,314.55 200.65,334.75 200.25,345.65 201.45,389.3 202.65,432.65 202.25,442 201.45,461.1 201.45,515.9 201.45,523.45 201.5,535.05 201.35,543.2 199.85,545.3 198.5,547.05 140.25,545.6 137.15,545.55 133.9,545.45 131.65,545.4 129.4,545.35 128.5,545.35 127.65,545.3 55.6,542.95 45.75,542.95 35.1,542.95 -45.3,542.15 -75.5,541.85 -95.25,541.65 -128.1,541.35 -132.2,541.35 -139,541.35 -150.9,543.8 -160.25,545.7 -163.15,544.5 -166.4,543.1 -167.15,489 -168.15,424.05 -168.75,417.4 -170.35,401.05 -168.65,318.1 -167,238.25 -165.55,228.35Z" test="Mall Front"/>
      <path id="Layer1_0_2_STROKES" stroke="#F0F" stroke-width="2" stroke-linejoin="round" stroke-linecap="round" fill="none" d="M88.2,284.05 Q90.4,282.05 92.5,279.95 94.05,278.55 95.3,276.9 97.65,274.1 99.55,270.95 101.2,268.25 102.35,265.35 103.85,261.8 102.9,258 102.8,257.35 102.6,256.8 101.7,256.85 100.8,256.95 100.05,257.2 99.35,257.55 97.85,258.7 96.65,260.15 95.2,262 94.1,264.2 92.7,266.95 91.65,269.9 89.2,276.75 88.2,284.05 87.9,287.2 88.05,290.2 88.1,291.65 88.55,292.9 89.25,295 91,296.75 91.7,297.5 92.7,298 95.95,299.7 99.35,297.8 102.35,296.05 104.75,293.5 105.05,293.25 105.3,292.9 107.2,290.85 108.9,288.5 109.25,281.8 111.5,275.45 112.75,272 114.4,268.75 115.55,266.5 117.15,264.6 118.55,262.95 120.25,261.6 122.6,259.7 125.55,259.5 125.35,260.8 125.05,262 124.7,263.7 124.25,265.35 123.2,268.75 121.35,271.65 119.3,274.75 117.2,277.6 115.4,280.1 113.55,282.55 111.3,285.6 108.9,288.5 108.7,290.7 108.95,292.9 109.15,294.4 109.6,295.8 110.65,299.5 114.45,300.5 116.3,301 118.25,301.25 121.5,301.6 124.25,299.65 126.2,298.35 128.15,297.05 129.2,296.5 129.9,295.7 131.15,294.35 132.4,292.9 132.85,292.35 133.3,291.8 M14.6,299.95 Q15.35,296.8 16.1,293.7 16.2,293.3 16.3,292.9 17.1,289.55 17.9,286.15 19.6,278.8 23.25,272.25 26.85,265.65 32.15,260.25 36.05,256.3 40.95,254 41.25,261.45 38.9,268.45 37.3,273.1 35.5,277.9 36.6,275.35 37.9,272.8 39.3,269.8 41.4,266.65 42.9,264.3 44.85,262.5 45,262.3 45.2,262.15 46.6,260.95 48.1,259.65 50.85,257.35 53.5,255.4 55.8,253.55 58.85,253.65 58.8,254.9 58.55,256.1 58.5,257.05 58.2,257.95 57.35,260.85 56.5,263.3 55.05,267.65 53.55,271.65 51,279.05 48.4,286.4 47.35,289.55 46.6,292.9 46.4,293.9 46.2,294.85 45.7,297.3 45.6,299.95 47.2,298.2 48.65,296.35 50.1,294.65 51.4,292.9 51.85,292.3 52.25,291.7 54.1,289.15 55.85,286.55 58,283.35 60.45,280.25 62.95,277.05 66.15,274.55 68.3,273.1 70.55,272.25 71.25,272.05 74.95,270.8 M33.8,282.35 L35.5,277.9 M66.15,274.55 Q63.8,276.7 62.35,279.65 61.3,281.7 60.2,283.75 58.7,286.7 57.9,289.8 57.65,290.85 57.45,291.95 57.4,292.4 57.4,292.9 57.4,293.1 57.4,293.3 57.95,294.4 59.1,294.8 60.3,295.2 61.5,294.65 62.65,294.1 63.5,293.15 63.6,293.05 63.75,292.9 65.65,291 67.25,288.9 70.25,285.1 73,280.9 73.25,280.25 73.4,279.7 74.45,276.4 75.5,273 L75.5,272.85 Q75.8,271.85 75.75,270.8 M73,280.9 Q74.6,278.55 74.95,276.2 75.25,274.6 75.5,273 M73,280.9 Q71.95,284.25 71.5,287.85 71.3,289.2 71.75,290.55 72.3,292.3 73.85,292.9 74.25,293.05 74.65,293.15 74.9,293.05 75.1,292.9 78.65,291.15 81.75,289 85.2,286.55 88.2,284.05 M-23.75,322.4 Q-21,322.7 -18.5,322.55 -15.2,322.4 -11.95,322.35 -10,322.1 -8.05,322 -5.9,321.85 -3.7,321.7 -.15,321.35 3.4,321.05 5.95,320.75 8.6,320.55 11.4,320.2 14.2,319.9 17.2,319.65 20.2,319.4 23.4,319.15 26.55,318.95 29.95,318.75 33.3,318.55 36.9,318.4 40.45,318.2 44.25,318.05 48.05,318 49.9,317.95 51.9,317.9 53.9,317.9 55.9,317.9 57.95,317.85 60.05,317.75 62.15,317.75 64.2,317.75 67.45,317.75 70.8,317.75 73.8,317.75 76.75,317.9 79.75,317.9 82.75,317.9 103.95,318 125.05,318 M59.6,540.15 L63.95,400.7 134.3,400.7 130.3,542.55 M-21.05,540.55 L-16.65,402.7 39.35,402.7 36.6,538.5 M-106.55,303.7 Q-105.75,300.4 -104.95,297.15 -104,293.15 -103.15,289.2 -101.3,281.55 -97.5,274.7 -93.75,267.8 -88.2,262.15 -84.05,258 -79,255.6 -78.65,263.35 -81.15,270.7 -82.8,275.6 -84.7,280.6 -83.5,277.95 -82.2,275.3 -80.7,272.1 -78.5,268.85 -76.95,266.35 -74.9,264.45 -74.75,264.3 -74.55,264.15 -73.05,262.85 -71.5,261.55 -68.65,259.1 -65.9,257.05 -63.45,255.1 -60.3,255.25 -60.35,256.55 -60.55,257.8 -60.65,258.8 -60.95,259.75 -61.85,262.75 -62.7,265.35 -64.25,269.9 -65.8,274.1 -68.5,281.8 -71.2,289.5 -72.55,293.65 -73.5,298.3 -73.8,299.9 -74,301.55 -71.3,300.9 -69.15,300.45 -66.6,299.65 -64.25,298.45 -61.9,297.3 -59.6,295.95 -60.55,288.35 -57.95,283.75 -55.4,279.1 -53.85,277.3 -52.3,275.45 -51.15,274.95 -50.85,274.75 -50.5,274.75 -47.3,276.55 -47.85,280.2 -48.5,283.85 -50.5,286.9 -52.3,289.85 -54.7,291.85 -57.15,293.9 -59.6,295.95 -59.6,298.15 -58.75,300.25 -57.95,302.15 -56.1,302.75 -54.7,303.1 -53.3,302.25 -49.9,300.5 -47.7,297.45 -47.4,297.1 -47.2,296.7 -45.9,294.85 -44.7,292.9 -44.5,292.5 -44.2,292.05 -43.35,290.55 -42.35,289.05 L-42.3,289 Q-41,285.05 -38.45,281.75 -35.75,278.4 -31.9,276.1 -30.8,275.6 -26.6,275.3 M-42.35,289.05 Q-42.95,291 -43.25,292.9 -43.45,294.05 -43.5,295.15 -43.65,297.3 -42.1,298.95 -41.35,299.8 -40.4,300.5 -39.05,301.5 -37.6,300.85 -36.35,300.45 -35.4,299.45 -34.1,298.15 -33.25,296.5 -32.3,294.75 -31.5,292.9 -31.35,292.45 -31.15,292 -30.1,289.15 -29.25,286.25 -28.25,282.9 -27.15,279.6 -26.65,278 -25.95,276.2 -25.9,276.05 -25.8,275.9 -25.9,277.1 -26.15,278 -27.55,282.25 -28.3,286.35 -28.85,289.65 -28.95,292.9 -29,294.4 -28.9,295.85 -27.8,294.4 -26.7,292.9 -26.35,292.4 -25.95,291.95 -23.95,289.05 -21.8,286.55 -20.5,285.05 -19.1,283.75 -16.45,281.4 -13.2,279.6 -10.65,276.55 -6.9,275.6 -6.8,275.65 -5.2,276.35 M-13.2,279.6 Q-15.45,282.1 -17.1,284.65 -18.75,287.15 -20.1,290.05 -20.7,291.5 -21.05,292.9 -21.1,293.05 -21.15,293.25 -22.55,300.5 -15.7,299.45 -14,299.2 -12.4,298.1 -11.35,297.25 -10.3,296.45 -9.3,295.65 -8.7,294.6 -8.2,293.8 -7.8,292.9 -7.7,292.65 -7.55,292.3 -6.3,288.9 -5.55,285.6 L-5.35,284.4 Q-5.05,281.75 -4.75,278.9 -4.7,278.05 -4.4,277.3 -4.25,276.9 -4,276.7 L-4,276.8 -5.35,284.4 M-108.85,339.3 Q-106.45,337.15 -103.9,335.65 -101.75,334.35 -99.45,333.3 -96.8,331.85 -94,330.8 -91.1,329.5 -88.15,328.4 -85.5,327.5 -82.85,326.7 -79.55,325.7 -76.25,325.1 -74.55,324.9 -72.75,324.7 M-28.9,295.85 Q-28.9,298 -28.95,300.15 -29.15,303.8 -29.45,307.5 -29.65,309.3 -30.1,311.25 -30.85,314.55 -31.8,317.9 -32.55,320.55 -33.4,323.15 -34.45,326.8 -35.9,330.15 -36.75,332.15 -37.7,334.1 -39.35,337.45 -41.1,340.8 -41.75,342.05 -42.55,343.2 -43.5,344.45 -44.55,345.6 -47.15,348.15 -50.35,349.65 -52.7,350.6 -55.15,351.2 -57.95,351.9 -60.75,352.3 -63.65,352.25 -66.45,351.9 -69.05,351.2 -71.3,349.85 -73.55,348.6 -75.5,346.95 -78.05,344.75 -77.4,341.45 -76.75,338.8 -74.85,336.65 -73.35,334.95 -71.8,333.15 -70.6,331.8 -69.4,330.5 -68.3,329.35 -67.2,328.45 -64.8,326.55 -62.6,324.9 -59.85,323.05 -57.15,321.05 -55.5,319.9 -53.85,318.75 -50.8,316.6 -47.75,314.45 -47.45,314.25 -47.2,314.1 -44.8,312.3 -42.5,310.4 -40.25,308.65 -38.1,306.75 -35.6,304.5 -33.3,301.65 -30.95,298.85 -28.9,295.85Z M-5.55,285.6 Q-6.15,289 -6.05,292.55 -6.05,292.75 -6,292.9 -5.9,295.5 -4.55,297.65 -3.4,298 -2.3,297.85 .75,297 1.3,293.95 1.4,293.45 1.3,292.95 M-49.7,323.9 L-40.7,323.4 M-103.2,537.3 L-103.2,401.9 -42.05,403.6 -42.05,535.1" test="Mall Front"/>
      <g test="Mall Front">
        <path id="Layer2_0_1_STROKES" stroke="#FFF" stroke-width="1.482" stroke-linejoin="round" stroke-linecap="round" fill="none" d="M-124.607,385.407 L-127.87,385.407 -127.412,379.021 160.04,379.324 153.228,385.407"/>
      </g>
      <g test="Mall Front">
        <path id="Layer3_0_1_STROKES" stroke="#FFF" stroke-width="1.482" stroke-linejoin="round" stroke-linecap="round" fill="none" d="M-128.786,385.272 L154.144,385.306"/>
      </g>
    </g>
  </g>
</svg>