<?xml version="1.0" encoding="utf-8"?>
<svg id="EdithAnim07" image-rendering="inherit" baseProfile="basic" version="1.1" x="0px" y="0px" width="800" height="600" xmlns="http://www.w3.org/2000/svg" xmlns:xlink="http://www.w3.org/1999/xlink">
  <defs>
    <g id="LinePerspective" overflow="visible">
      <path id="Layer4_0_1_STROKES" stroke="#FFF" stroke-width="2" stroke-linejoin="round" stroke-linecap="round" fill="none" d="M-59.65 54.85L59.7 -54.85" test="LinePerspective"/>
    </g>
  </defs>
  <g id="Need-a-mallf12r1" overflow="visible">
    <g id="MallBackAndSide">
      <g id="MallBack">
        <path id="Layer5_0_1_STROKES" stroke="#FFF" stroke-width="2" stroke-linejoin="round" stroke-linecap="round" fill="none" d="M-13.1,182.45 Q-7.25,182.15 151.5,182.8 308.5,183.5 310.95,183.15" test="MallBack"/>
      </g>
      <g id="Mall-Back-right">
        <path id="Layer6_0_1_STROKES" stroke="#FFF" stroke-width="2" stroke-linejoin="round" stroke-linecap="round" fill="none" d="M310.3,183.15 L314.45,472.55" test="Mall Back right"/>
      </g>
    </g>
    <use xlink:href="#LinePerspective" transform="matrix(.749 0 0 .646 271.25 510.15)"/>
    <use xlink:href="#LinePerspective" transform="matrix(.752 0 0 .409 264.1 205.95)"/>
    <use xlink:href="#LinePerspective" transform="matrix(1.08 0 0 .409 -79.95 205.95)"/>
    <g id="Mall-Front">
      <path id="Layer1_0_1_STROKES" stroke="#FFF" stroke-width="2" stroke-linejoin="round" stroke-linecap="round" fill="none" d="M-141.15,228.35 Q-120.7,226.2 -95.2,223.9 -44.15,219.3 -18.85,218.8 9.2,218.25 72.1,217.7 129.7,217.2 153.55,217.2 172.45,217.2 197,219.8 219.05,222.05 221.9,223.55 224,224.65 224.95,271.7 225.8,314.55 225.05,334.75 224.65,345.65 225.85,389.3 227.05,432.65 226.65,442 225.85,461.1 225.85,515.9 225.85,523.45 225.9,535.05 225.75,543.2 224.25,545.3 222.9,547.05 164.65,545.6 161.55,545.55 158.3,545.45 156.05,545.4 153.8,545.35 152.9,545.35 152.05,545.3 80,542.95 70.15,542.95 59.5,542.95 -20.9,542.15 -51.1,541.85 -70.85,541.65 -103.7,541.35 -107.8,541.35 -114.6,541.35 -126.5,543.8 -135.85,545.7 -138.75,544.5 -142,543.1 -142.75,489 -143.75,424.05 -144.35,417.4 -145.95,401.05 -144.25,318.1 -142.6,238.25 -141.15,228.35Z" test="Mall Front"/>
      <path id="Layer1_0_2_STROKES" stroke="#F0F" stroke-width="2" stroke-linejoin="round" stroke-linecap="round" fill="none" d="M112.6,284.05 Q114.8,282.05 116.9,279.95 118.45,278.55 119.7,276.9 122.05,274.1 123.95,270.95 125.6,268.25 126.75,265.35 128.25,261.8 127.3,258 127.2,257.35 127,256.8 126.1,256.85 125.2,256.95 124.45,257.2 123.75,257.55 122.25,258.7 121.05,260.15 119.6,262 118.5,264.2 117.1,266.95 116.05,269.9 113.6,276.75 112.6,284.05 112.3,287.2 112.45,290.2 112.5,291.65 112.95,292.9 113.65,295 115.4,296.75 116.1,297.5 117.1,298 120.35,299.7 123.75,297.8 126.75,296.05 129.15,293.5 129.45,293.25 129.7,292.9 131.6,290.85 133.3,288.5 133.65,281.8 135.9,275.45 137.15,272 138.8,268.75 139.95,266.5 141.55,264.6 142.95,262.95 144.65,261.6 147,259.7 149.95,259.5 149.75,260.8 149.45,262 149.1,263.7 148.65,265.35 147.6,268.75 145.75,271.65 143.7,274.75 141.6,277.6 139.8,280.1 137.95,282.55 135.7,285.6 133.3,288.5 133.1,290.7 133.35,292.9 133.55,294.4 134,295.8 135.05,299.5 138.85,300.5 140.7,301 142.65,301.25 145.9,301.6 148.65,299.65 150.6,298.35 152.55,297.05 153.6,296.5 154.3,295.7 155.55,294.35 156.8,292.9 157.25,292.35 157.7,291.8 M39,299.95 Q39.75,296.8 40.5,293.7 40.6,293.3 40.7,292.9 41.5,289.55 42.3,286.15 44,278.8 47.65,272.25 51.25,265.65 56.55,260.25 60.45,256.3 65.35,254 65.65,261.45 63.3,268.45 61.7,273.1 59.9,277.9 61,275.35 62.3,272.8 63.7,269.8 65.8,266.65 67.3,264.3 69.25,262.5 69.4,262.3 69.6,262.15 71,260.95 72.5,259.65 75.25,257.35 77.9,255.4 80.2,253.55 83.25,253.65 83.2,254.9 82.95,256.1 82.9,257.05 82.6,257.95 81.75,260.85 80.9,263.3 79.45,267.65 77.95,271.65 75.4,279.05 72.8,286.4 71.75,289.55 71,292.9 70.8,293.9 70.6,294.85 70.1,297.3 70,299.95 71.6,298.2 73.05,296.35 74.5,294.65 75.8,292.9 76.25,292.3 76.65,291.7 78.5,289.15 80.25,286.55 82.4,283.35 84.85,280.25 87.35,277.05 90.55,274.55 92.7,273.1 94.95,272.25 95.65,272.05 99.35,270.8 M58.2,282.35 L59.9,277.9 M90.55,274.55 Q88.2,276.7 86.75,279.65 85.7,281.7 84.6,283.75 83.1,286.7 82.3,289.8 82.05,290.85 81.85,291.95 81.8,292.4 81.8,292.9 81.8,293.1 81.8,293.3 82.35,294.4 83.5,294.8 84.7,295.2 85.9,294.65 87.05,294.1 87.9,293.15 88,293.05 88.15,292.9 90.05,291 91.65,288.9 94.65,285.1 97.4,280.9 97.65,280.25 97.8,279.7 98.85,276.4 99.9,273 L99.9,272.85 Q100.2,271.85 100.15,270.8 M97.4,280.9 Q99,278.55 99.35,276.2 99.65,274.6 99.9,273 M97.4,280.9 Q96.35,284.25 95.9,287.85 95.7,289.2 96.15,290.55 96.7,292.3 98.25,292.9 98.65,293.05 99.05,293.15 99.3,293.05 99.5,292.9 103.05,291.15 106.15,289 109.6,286.55 112.6,284.05 M0.65,322.4 Q3.4,322.7 5.9,322.55 9.2,322.4 12.45,322.35 14.4,322.1 16.35,322 18.5,321.85 20.7,321.7 24.25,321.35 27.8,321.05 30.35,320.75 33,320.55 35.8,320.2 38.6,319.9 41.6,319.65 44.6,319.4 47.8,319.15 50.95,318.95 54.35,318.75 57.7,318.55 61.3,318.4 64.85,318.2 68.65,318.05 72.45,318 74.3,317.95 76.3,317.9 78.3,317.9 80.3,317.9 82.35,317.85 84.45,317.75 86.55,317.75 88.6,317.75 91.85,317.75 95.2,317.75 98.2,317.75 101.15,317.9 104.15,317.9 107.15,317.9 128.35,318 149.45,318 M84,540.15 L88.35,400.7 158.7,400.7 154.7,542.55 M3.35,540.55 L7.75,402.7 63.75,402.7 61,538.5 M-82.15,303.7 Q-81.35,300.4 -80.55,297.15 -79.6,293.15 -78.75,289.2 -76.9,281.55 -73.1,274.7 -69.35,267.8 -63.8,262.15 -59.65,258 -54.6,255.6 -54.25,263.35 -56.75,270.7 -58.4,275.6 -60.3,280.6 -59.1,277.95 -57.8,275.3 -56.3,272.1 -54.1,268.85 -52.55,266.35 -50.5,264.45 -50.35,264.3 -50.15,264.15 -48.65,262.85 -47.1,261.55 -44.25,259.1 -41.5,257.05 -39.05,255.1 -35.9,255.25 -35.95,256.55 -36.15,257.8 -36.25,258.8 -36.55,259.75 -37.45,262.75 -38.3,265.35 -39.85,269.9 -41.4,274.1 -44.1,281.8 -46.8,289.5 -48.15,293.65 -49.1,298.3 -49.4,299.9 -49.6,301.55 -46.9,300.9 -44.75,300.45 -42.2,299.65 -39.85,298.45 -37.5,297.3 -35.2,295.95 -36.15,288.35 -33.55,283.75 -31,279.1 -29.45,277.3 -27.9,275.45 -26.75,274.95 -26.45,274.75 -26.1,274.75 -22.9,276.55 -23.45,280.2 -24.1,283.85 -26.1,286.9 -27.9,289.85 -30.3,291.85 -32.75,293.9 -35.2,295.95 -35.2,298.15 -34.35,300.25 -33.55,302.15 -31.7,302.75 -30.3,303.1 -28.9,302.25 -25.5,300.5 -23.3,297.45 -23,297.1 -22.8,296.7 -21.5,294.85 -20.3,292.9 -20.1,292.5 -19.8,292.05 -18.95,290.55 -17.95,289.05 L-17.9,289 Q-16.6,285.05 -14.05,281.75 -11.35,278.4 -7.5,276.1 -6.4,275.6 -2.2,275.3 M-17.95,289.05 Q-18.55,291 -18.85,292.9 -19.05,294.05 -19.1,295.15 -19.25,297.3 -17.7,298.95 -16.95,299.8 -16,300.5 -14.65,301.5 -13.2,300.85 -11.95,300.45 -11,299.45 -9.7,298.15 -8.85,296.5 -7.9,294.75 -7.1,292.9 -6.95,292.45 -6.75,292 -5.7,289.15 -4.85,286.25 -3.85,282.9 -2.75,279.6 -2.25,278 -1.55,276.2 -1.5,276.05 -1.4,275.9 -1.5,277.1 -1.75,278 -3.15,282.25 -3.9,286.35 -4.45,289.65 -4.55,292.9 -4.6,294.4 -4.5,295.85 -3.4,294.4 -2.3,292.9 -1.95,292.4 -1.55,291.95 .45,289.05 2.6,286.55 3.9,285.05 5.3,283.75 7.95,281.4 11.2,279.6 13.75,276.55 17.5,275.6 17.6,275.65 19.2,276.35 M11.2,279.6 Q8.95,282.1 7.3,284.65 5.65,287.15 4.3,290.05 3.7,291.5 3.35,292.9 3.3,293.05 3.25,293.25 1.85,300.5 8.7,299.45 10.4,299.2 12,298.1 13.05,297.25 14.1,296.45 15.1,295.65 15.7,294.6 16.2,293.8 16.6,292.9 16.7,292.65 16.85,292.3 18.1,288.9 18.85,285.6 L19.05,284.4 Q19.35,281.75 19.65,278.9 19.7,278.05 20,277.3 20.15,276.9 20.4,276.7 L20.4,276.8 19.05,284.4 M-84.45,339.3 Q-82.05,337.15 -79.5,335.65 -77.35,334.35 -75.05,333.3 -72.4,331.85 -69.6,330.8 -66.7,329.5 -63.75,328.4 -61.1,327.5 -58.45,326.7 -55.15,325.7 -51.85,325.1 -50.15,324.9 -48.35,324.7 M-4.5,295.85 Q-4.5,298 -4.55,300.15 -4.75,303.8 -5.05,307.5 -5.25,309.3 -5.7,311.25 -6.45,314.55 -7.4,317.9 -8.15,320.55 -9,323.15 -10.05,326.8 -11.5,330.15 -12.35,332.15 -13.3,334.1 -14.95,337.45 -16.7,340.8 -17.35,342.05 -18.15,343.2 -19.1,344.45 -20.15,345.6 -22.75,348.15 -25.95,349.65 -28.3,350.6 -30.75,351.2 -33.55,351.9 -36.35,352.3 -39.25,352.25 -42.05,351.9 -44.65,351.2 -46.9,349.85 -49.15,348.6 -51.1,346.95 -53.65,344.75 -53,341.45 -52.35,338.8 -50.45,336.65 -48.95,334.95 -47.4,333.15 -46.2,331.8 -45,330.5 -43.9,329.35 -42.8,328.45 -40.4,326.55 -38.2,324.9 -35.45,323.05 -32.75,321.05 -31.1,319.9 -29.45,318.75 -26.4,316.6 -23.35,314.45 -23.05,314.25 -22.8,314.1 -20.4,312.3 -18.1,310.4 -15.85,308.65 -13.7,306.75 -11.2,304.5 -8.9,301.65 -6.55,298.85 -4.5,295.85Z M18.85,285.6 Q18.25,289 18.35,292.55 18.35,292.75 18.4,292.9 18.5,295.5 19.85,297.65 21,298 22.1,297.85 25.15,297 25.7,293.95 25.8,293.45 25.7,292.95 M-25.3,323.9 L-16.3,323.4 M-78.8,537.3 L-78.8,401.9 -17.65,403.6 -17.65,535.1" test="Mall Front"/>
      <g test="Mall Front">
        <path id="Layer2_0_1_STROKES" stroke="#FFF" stroke-width="1.482" stroke-linejoin="round" stroke-linecap="round" fill="none" d="M-100.207,385.407 L-103.47,385.407 -103.012,379.021 184.44,379.324 177.628,385.407"/>
      </g>
      <g test="Mall Front">
        <path id="Layer3_0_1_STROKES" stroke="#FFF" stroke-width="1.482" stroke-linejoin="round" stroke-linecap="round" fill="none" d="M-104.386,385.272 L178.544,385.306"/>
      </g>
    </g>
  </g>
</svg>