<?xml version="1.0" encoding="utf-8"?>
<svg id="EdithAnim07" image-rendering="inherit" baseProfile="basic" version="1.1" x="0px" y="0px" width="800" height="600" xmlns="http://www.w3.org/2000/svg" xmlns:xlink="http://www.w3.org/1999/xlink">
  <defs>
    <g id="LinePerspective" overflow="visible">
      <path id="Layer4_0_1_STROKES" stroke="#FFF" stroke-width="2" stroke-linejoin="round" stroke-linecap="round" fill="none" d="M-59.65 54.85L59.7 -54.85" test="LinePerspective"/>
    </g>
  </defs>
  <g id="Need-a-mallf13r1" overflow="visible">
    <g id="MallBackAndSide">
      <g id="MallBack">
        <path id="Layer5_0_1_STROKES" stroke="#FFF" stroke-width="2" stroke-linejoin="round" stroke-linecap="round" fill="none" d="M6.05,182.45 Q11.9,182.15 170.65,182.8 327.65,183.5 330.1,183.15" test="MallBack"/>
      </g>
      <g id="Mall-Back-right">
        <path id="Layer6_0_1_STROKES" stroke="#FFF" stroke-width="2" stroke-linejoin="round" stroke-linecap="round" fill="none" d="M329.45,183.15 L333.6,472.55" test="Mall Back right"/>
      </g>
    </g>
    <use xlink:href="#LinePerspective" transform="matrix(.718 0 0 .649 292.45 510)"/>
    <use xlink:href="#LinePerspective" transform="matrix(.72 0 0 .41 285.25 205.9)"/>
    <use xlink:href="#LinePerspective" transform="matrix(1.048 0 0 .41 -58.8 205.9)"/>
    <g id="Mall-Front">
      <path id="Layer1_0_1_STROKES" stroke="#FFF" stroke-width="2" stroke-linejoin="round" stroke-linecap="round" fill="none" d="M-118.15,228.35 Q-97.7,226.2 -72.2,223.9 -21.15,219.3 4.15,218.8 32.2,218.25 95.1,217.7 152.7,217.2 176.55,217.2 195.45,217.2 220,219.8 242.05,222.05 244.9,223.55 247,224.65 247.95,271.7 248.8,314.55 248.05,334.75 247.65,345.65 248.85,389.3 250.05,432.65 249.65,442 248.85,461.1 248.85,515.9 248.85,523.45 248.9,535.05 248.75,543.2 247.25,545.3 245.9,547.05 187.65,545.6 184.55,545.55 181.3,545.45 179.05,545.4 176.8,545.35 175.9,545.35 175.05,545.3 103,542.95 93.15,542.95 82.5,542.95 2.1,542.15 -28.1,541.85 -47.85,541.65 -80.7,541.35 -84.8,541.35 -91.6,541.35 -103.5,543.8 -112.85,545.7 -115.75,544.5 -119,543.1 -119.75,489 -120.75,424.05 -121.35,417.4 -122.95,401.05 -121.25,318.1 -119.6,238.25 -118.15,228.35Z" test="Mall Front"/>
      <path id="Layer1_0_2_STROKES" stroke="#F0F" stroke-width="2" stroke-linejoin="round" stroke-linecap="round" fill="none" d="M135.6,284.05 Q137.8,282.05 139.9,279.95 141.45,278.55 142.7,276.9 145.05,274.1 146.95,270.95 148.6,268.25 149.75,265.35 151.25,261.8 150.3,258 150.2,257.35 150,256.8 149.1,256.85 148.2,256.95 147.45,257.2 146.75,257.55 145.25,258.7 144.05,260.15 142.6,262 141.5,264.2 140.1,266.95 139.05,269.9 136.6,276.75 135.6,284.05 135.3,287.2 135.45,290.2 135.5,291.65 135.95,292.9 136.65,295 138.4,296.75 139.1,297.5 140.1,298 143.35,299.7 146.75,297.8 149.75,296.05 152.15,293.5 152.45,293.25 152.7,292.9 154.6,290.85 156.3,288.5 156.65,281.8 158.9,275.45 160.15,272 161.8,268.75 162.95,266.5 164.55,264.6 165.95,262.95 167.65,261.6 170,259.7 172.95,259.5 172.75,260.8 172.45,262 172.1,263.7 171.65,265.35 170.6,268.75 168.75,271.65 166.7,274.75 164.6,277.6 162.8,280.1 160.95,282.55 158.7,285.6 156.3,288.5 156.1,290.7 156.35,292.9 156.55,294.4 157,295.8 158.05,299.5 161.85,300.5 163.7,301 165.65,301.25 168.9,301.6 171.65,299.65 173.6,298.35 175.55,297.05 176.6,296.5 177.3,295.7 178.55,294.35 179.8,292.9 180.25,292.35 180.7,291.8 M62,299.95 Q62.75,296.8 63.5,293.7 63.6,293.3 63.7,292.9 64.5,289.55 65.3,286.15 67,278.8 70.65,272.25 74.25,265.65 79.55,260.25 83.45,256.3 88.35,254 88.65,261.45 86.3,268.45 84.7,273.1 82.9,277.9 84,275.35 85.3,272.8 86.7,269.8 88.8,266.65 90.3,264.3 92.25,262.5 92.4,262.3 92.6,262.15 94,260.95 95.5,259.65 98.25,257.35 100.9,255.4 103.2,253.55 106.25,253.65 106.2,254.9 105.95,256.1 105.9,257.05 105.6,257.95 104.75,260.85 103.9,263.3 102.45,267.65 100.95,271.65 98.4,279.05 95.8,286.4 94.75,289.55 94,292.9 93.8,293.9 93.6,294.85 93.1,297.3 93,299.95 94.6,298.2 96.05,296.35 97.5,294.65 98.8,292.9 99.25,292.3 99.65,291.7 101.5,289.15 103.25,286.55 105.4,283.35 107.85,280.25 110.35,277.05 113.55,274.55 115.7,273.1 117.95,272.25 118.65,272.05 122.35,270.8 M81.2,282.35 L82.9,277.9 M113.55,274.55 Q111.2,276.7 109.75,279.65 108.7,281.7 107.6,283.75 106.1,286.7 105.3,289.8 105.05,290.85 104.85,291.95 104.8,292.4 104.8,292.9 104.8,293.1 104.8,293.3 105.35,294.4 106.5,294.8 107.7,295.2 108.9,294.65 110.05,294.1 110.9,293.15 111,293.05 111.15,292.9 113.05,291 114.65,288.9 117.65,285.1 120.4,280.9 120.65,280.25 120.8,279.7 121.85,276.4 122.9,273 L122.9,272.85 Q123.2,271.85 123.15,270.8 M120.4,280.9 Q122,278.55 122.35,276.2 122.65,274.6 122.9,273 M120.4,280.9 Q119.35,284.25 118.9,287.85 118.7,289.2 119.15,290.55 119.7,292.3 121.25,292.9 121.65,293.05 122.05,293.15 122.3,293.05 122.5,292.9 126.05,291.15 129.15,289 132.6,286.55 135.6,284.05 M23.65,322.4 Q26.4,322.7 28.9,322.55 32.2,322.4 35.45,322.35 37.4,322.1 39.35,322 41.5,321.85 43.7,321.7 47.25,321.35 50.8,321.05 53.35,320.75 56,320.55 58.8,320.2 61.6,319.9 64.6,319.65 67.6,319.4 70.8,319.15 73.95,318.95 77.35,318.75 80.7,318.55 84.3,318.4 87.85,318.2 91.65,318.05 95.45,318 97.3,317.95 99.3,317.9 101.3,317.9 103.3,317.9 105.35,317.85 107.45,317.75 109.55,317.75 111.6,317.75 114.85,317.75 118.2,317.75 121.2,317.75 124.15,317.9 127.15,317.9 130.15,317.9 151.35,318 172.45,318 M107,540.15 L111.35,400.7 181.7,400.7 177.7,542.55 M26.35,540.55 L30.75,402.7 86.75,402.7 84,538.5 M-59.15,303.7 Q-58.35,300.4 -57.55,297.15 -56.6,293.15 -55.75,289.2 -53.9,281.55 -50.1,274.7 -46.35,267.8 -40.8,262.15 -36.65,258 -31.6,255.6 -31.25,263.35 -33.75,270.7 -35.4,275.6 -37.3,280.6 -36.1,277.95 -34.8,275.3 -33.3,272.1 -31.1,268.85 -29.55,266.35 -27.5,264.45 -27.35,264.3 -27.15,264.15 -25.65,262.85 -24.1,261.55 -21.25,259.1 -18.5,257.05 -16.05,255.1 -12.9,255.25 -12.95,256.55 -13.15,257.8 -13.25,258.8 -13.55,259.75 -14.45,262.75 -15.3,265.35 -16.85,269.9 -18.4,274.1 -21.1,281.8 -23.8,289.5 -25.15,293.65 -26.1,298.3 -26.4,299.9 -26.6,301.55 -23.9,300.9 -21.75,300.45 -19.2,299.65 -16.85,298.45 -14.5,297.3 -12.2,295.95 -13.15,288.35 -10.55,283.75 -8,279.1 -6.45,277.3 -4.9,275.45 -3.75,274.95 -3.45,274.75 -3.1,274.75 .1,276.55 -.45,280.2 -1.1,283.85 -3.1,286.9 -4.9,289.85 -7.3,291.85 -9.75,293.9 -12.2,295.95 -12.2,298.15 -11.35,300.25 -10.55,302.15 -8.7,302.75 -7.3,303.1 -5.9,302.25 -2.5,300.5 -.3,297.45 0,297.1 .2,296.7 1.5,294.85 2.7,292.9 2.9,292.5 3.2,292.05 4.05,290.55 5.05,289.05 L5.1,289 Q6.4,285.05 8.95,281.75 11.65,278.4 15.5,276.1 16.6,275.6 20.8,275.3 M5.05,289.05 Q4.45,291 4.15,292.9 3.95,294.05 3.9,295.15 3.75,297.3 5.3,298.95 6.05,299.8 7,300.5 8.35,301.5 9.8,300.85 11.05,300.45 12,299.45 13.3,298.15 14.15,296.5 15.1,294.75 15.9,292.9 16.05,292.45 16.25,292 17.3,289.15 18.15,286.25 19.15,282.9 20.25,279.6 20.75,278 21.45,276.2 21.5,276.05 21.6,275.9 21.5,277.1 21.25,278 19.85,282.25 19.1,286.35 18.55,289.65 18.45,292.9 18.4,294.4 18.5,295.85 19.6,294.4 20.7,292.9 21.05,292.4 21.45,291.95 23.45,289.05 25.6,286.55 26.9,285.05 28.3,283.75 30.95,281.4 34.2,279.6 36.75,276.55 40.5,275.6 40.6,275.65 42.2,276.35 M34.2,279.6 Q31.95,282.1 30.3,284.65 28.65,287.15 27.3,290.05 26.7,291.5 26.35,292.9 26.3,293.05 26.25,293.25 24.85,300.5 31.7,299.45 33.4,299.2 35,298.1 36.05,297.25 37.1,296.45 38.1,295.65 38.7,294.6 39.2,293.8 39.6,292.9 39.7,292.65 39.85,292.3 41.1,288.9 41.85,285.6 L42.05,284.4 Q42.35,281.75 42.65,278.9 42.7,278.05 43,277.3 43.15,276.9 43.4,276.7 L43.4,276.8 42.05,284.4 M-61.45,339.3 Q-59.05,337.15 -56.5,335.65 -54.35,334.35 -52.05,333.3 -49.4,331.85 -46.6,330.8 -43.7,329.5 -40.75,328.4 -38.1,327.5 -35.45,326.7 -32.15,325.7 -28.85,325.1 -27.15,324.9 -25.35,324.7 M18.5,295.85 Q18.5,298 18.45,300.15 18.25,303.8 17.95,307.5 17.75,309.3 17.3,311.25 16.55,314.55 15.6,317.9 14.85,320.55 14,323.15 12.95,326.8 11.5,330.15 10.65,332.15 9.7,334.1 8.05,337.45 6.3,340.8 5.65,342.05 4.85,343.2 3.9,344.45 2.85,345.6 .25,348.15 -2.95,349.65 -5.3,350.6 -7.75,351.2 -10.55,351.9 -13.35,352.3 -16.25,352.25 -19.05,351.9 -21.65,351.2 -23.9,349.85 -26.15,348.6 -28.1,346.95 -30.65,344.75 -30,341.45 -29.35,338.8 -27.45,336.65 -25.95,334.95 -24.4,333.15 -23.2,331.8 -22,330.5 -20.9,329.35 -19.8,328.45 -17.4,326.55 -15.2,324.9 -12.45,323.05 -9.75,321.05 -8.1,319.9 -6.45,318.75 -3.4,316.6 -.35,314.45 -.05,314.25 .2,314.1 2.6,312.3 4.9,310.4 7.15,308.65 9.3,306.75 11.8,304.5 14.1,301.65 16.45,298.85 18.5,295.85Z M41.85,285.6 Q41.25,289 41.35,292.55 41.35,292.75 41.4,292.9 41.5,295.5 42.85,297.65 44,298 45.1,297.85 48.15,297 48.7,293.95 48.8,293.45 48.7,292.95 M-2.3,323.9 L6.7,323.4 M-55.8,537.3 L-55.8,401.9 5.35,403.6 5.35,535.1" test="Mall Front"/>
      <g test="Mall Front">
        <path id="Layer2_0_1_STROKES" stroke="#FFF" stroke-width="1.482" stroke-linejoin="round" stroke-linecap="round" fill="none" d="M-77.207,385.407 L-80.47,385.407 -80.012,379.021 207.44,379.324 200.628,385.407"/>
      </g>
      <g test="Mall Front">
        <path id="Layer3_0_1_STROKES" stroke="#FFF" stroke-width="1.482" stroke-linejoin="round" stroke-linecap="round" fill="none" d="M-81.386,385.272 L201.544,385.306"/>
      </g>
    </g>
  </g>
</svg>