<?xml version="1.0" encoding="utf-8"?>
<svg id="EdithAnim07" image-rendering="inherit" baseProfile="basic" version="1.1" x="0px" y="0px" width="800" height="600" xmlns="http://www.w3.org/2000/svg" xmlns:xlink="http://www.w3.org/1999/xlink">
  <defs>
    <g id="LinePerspective" overflow="visible">
      <path id="Layer4_0_1_STROKES" stroke="#FFF" stroke-width="2" stroke-linejoin="round" stroke-linecap="round" fill="none" d="M-59.65 54.85L59.7 -54.85" test="LinePerspective"/>
    </g>
  </defs>
  <g id="Need-a-mallf16r1" overflow="visible">
    <g id="MallBackAndSide">
      <g id="MallBack">
        <path id="Layer5_0_1_STROKES" stroke="#FFF" stroke-width="2" stroke-linejoin="round" stroke-linecap="round" fill="none" d="M56.75,182.45 Q62.6,182.15 221.35,182.8 378.35,183.5 380.8,183.15" test="MallBack"/>
      </g>
      <g id="Mall-Back-right">
        <path id="Layer6_0_1_STROKES" stroke="#FFF" stroke-width="2" stroke-linejoin="round" stroke-linecap="round" fill="none" d="M380.15,183.15 L384.3,472.55" test="Mall Back right"/>
      </g>
    </g>
    <use xlink:href="#LinePerspective" transform="matrix(.635 0 0 .655 348.35 509.7)"/>
    <use xlink:href="#LinePerspective" transform="matrix(.637 0 0 .413 341.1 205.75)"/>
    <use xlink:href="#LinePerspective" transform="matrix(.964 0 0 .413 -3 205.75)"/>
    <g id="Mall-Front">
      <path id="Layer1_0_1_STROKES" stroke="#FFF" stroke-width="2" stroke-linejoin="round" stroke-linecap="round" fill="none" d="M-57.3,228.35 Q-36.85,226.2 -11.35,223.9 39.7,219.3 65,218.8 93.05,218.25 155.95,217.7 213.55,217.2 237.4,217.2 256.3,217.2 280.85,219.8 302.9,222.05 305.75,223.55 307.85,224.65 308.8,271.7 309.65,314.55 308.9,334.75 308.5,345.65 309.7,389.3 310.9,432.65 310.5,442 309.7,461.1 309.7,515.9 309.7,523.45 309.75,535.05 309.6,543.2 308.1,545.3 306.75,547.05 248.5,545.6 245.4,545.55 242.15,545.45 239.9,545.4 237.65,545.35 236.75,545.35 235.9,545.3 163.85,542.95 154,542.95 143.35,542.95 62.95,542.15 32.75,541.85 13,541.65 -19.85,541.35 -23.95,541.35 -30.75,541.35 -42.65,543.8 -52,545.7 -54.9,544.5 -58.15,543.1 -58.9,489 -59.9,424.05 -60.5,417.4 -62.1,401.05 -60.4,318.1 -58.75,238.25 -57.3,228.35Z" test="Mall Front"/>
      <path id="Layer1_0_2_STROKES" stroke="#F0F" stroke-width="2" stroke-linejoin="round" stroke-linecap="round" fill="none" d="M196.45,284.05 Q198.65,282.05 200.75,279.95 202.3,278.55 203.55,276.9 205.9,274.1 207.8,270.95 209.45,268.25 210.6,265.35 212.1,261.8 211.15,258 211.05,257.35 210.85,256.8 209.95,256.85 209.05,256.95 208.3,257.2 207.6,257.55 206.1,258.7 204.9,260.15 203.45,262 202.35,264.2 200.95,266.95 199.9,269.9 197.45,276.75 196.45,284.05 196.15,287.2 196.3,290.2 196.35,291.65 196.8,292.9 197.5,295 199.25,296.75 199.95,297.5 200.95,298 204.2,299.7 207.6,297.8 210.6,296.05 213,293.5 213.3,293.25 213.55,292.9 215.45,290.85 217.15,288.5 217.5,281.8 219.75,275.45 221,272 222.65,268.75 223.8,266.5 225.4,264.6 226.8,262.95 228.5,261.6 230.85,259.7 233.8,259.5 233.6,260.8 233.3,262 232.95,263.7 232.5,265.35 231.45,268.75 229.6,271.65 227.55,274.75 225.45,277.6 223.65,280.1 221.8,282.55 219.55,285.6 217.15,288.5 216.95,290.7 217.2,292.9 217.4,294.4 217.85,295.8 218.9,299.5 222.7,300.5 224.55,301 226.5,301.25 229.75,301.6 232.5,299.65 234.45,298.35 236.4,297.05 237.45,296.5 238.15,295.7 239.4,294.35 240.65,292.9 241.1,292.35 241.55,291.8 M122.85,299.95 Q123.6,296.8 124.35,293.7 124.45,293.3 124.55,292.9 125.35,289.55 126.15,286.15 127.85,278.8 131.5,272.25 135.1,265.65 140.4,260.25 144.3,256.3 149.2,254 149.5,261.45 147.15,268.45 145.55,273.1 143.75,277.9 144.85,275.35 146.15,272.8 147.55,269.8 149.65,266.65 151.15,264.3 153.1,262.5 153.25,262.3 153.45,262.15 154.85,260.95 156.35,259.65 159.1,257.35 161.75,255.4 164.05,253.55 167.1,253.65 167.05,254.9 166.8,256.1 166.75,257.05 166.45,257.95 165.6,260.85 164.75,263.3 163.3,267.65 161.8,271.65 159.25,279.05 156.65,286.4 155.6,289.55 154.85,292.9 154.65,293.9 154.45,294.85 153.95,297.3 153.85,299.95 155.45,298.2 156.9,296.35 158.35,294.65 159.65,292.9 160.1,292.3 160.5,291.7 162.35,289.15 164.1,286.55 166.25,283.35 168.7,280.25 171.2,277.05 174.4,274.55 176.55,273.1 178.8,272.25 179.5,272.05 183.2,270.8 M142.05,282.35 L143.75,277.9 M174.4,274.55 Q172.05,276.7 170.6,279.65 169.55,281.7 168.45,283.75 166.95,286.7 166.15,289.8 165.9,290.85 165.7,291.95 165.65,292.4 165.65,292.9 165.65,293.1 165.65,293.3 166.2,294.4 167.35,294.8 168.55,295.2 169.75,294.65 170.9,294.1 171.75,293.15 171.85,293.05 172,292.9 173.9,291 175.5,288.9 178.5,285.1 181.25,280.9 181.5,280.25 181.65,279.7 182.7,276.4 183.75,273 L183.75,272.85 Q184.05,271.85 184,270.8 M181.25,280.9 Q182.85,278.55 183.2,276.2 183.5,274.6 183.75,273 M181.25,280.9 Q180.2,284.25 179.75,287.85 179.55,289.2 180,290.55 180.55,292.3 182.1,292.9 182.5,293.05 182.9,293.15 183.15,293.05 183.35,292.9 186.9,291.15 190,289 193.45,286.55 196.45,284.05 M84.5,322.4 Q87.25,322.7 89.75,322.55 93.05,322.4 96.3,322.35 98.25,322.1 100.2,322 102.35,321.85 104.55,321.7 108.1,321.35 111.65,321.05 114.2,320.75 116.85,320.55 119.65,320.2 122.45,319.9 125.45,319.65 128.45,319.4 131.65,319.15 134.8,318.95 138.2,318.75 141.55,318.55 145.15,318.4 148.7,318.2 152.5,318.05 156.3,318 158.15,317.95 160.15,317.9 162.15,317.9 164.15,317.9 166.2,317.85 168.3,317.75 170.4,317.75 172.45,317.75 175.7,317.75 179.05,317.75 182.05,317.75 185,317.9 188,317.9 191,317.9 212.2,318 233.3,318 M167.85,540.15 L172.2,400.7 242.55,400.7 238.55,542.55 M87.2,540.55 L91.6,402.7 147.6,402.7 144.85,538.5 M1.7,303.7 Q2.5,300.4 3.3,297.15 4.25,293.15 5.1,289.2 6.95,281.55 10.75,274.7 14.5,267.8 20.05,262.15 24.2,258 29.25,255.6 29.6,263.35 27.1,270.7 25.45,275.6 23.55,280.6 24.75,277.95 26.05,275.3 27.55,272.1 29.75,268.85 31.3,266.35 33.35,264.45 33.5,264.3 33.7,264.15 35.2,262.85 36.75,261.55 39.6,259.1 42.35,257.05 44.8,255.1 47.95,255.25 47.9,256.55 47.7,257.8 47.6,258.8 47.3,259.75 46.4,262.75 45.55,265.35 44,269.9 42.45,274.1 39.75,281.8 37.05,289.5 35.7,293.65 34.75,298.3 34.45,299.9 34.25,301.55 36.95,300.9 39.1,300.45 41.65,299.65 44,298.45 46.35,297.3 48.65,295.95 47.7,288.35 50.3,283.75 52.85,279.1 54.4,277.3 55.95,275.45 57.1,274.95 57.4,274.75 57.75,274.75 60.95,276.55 60.4,280.2 59.75,283.85 57.75,286.9 55.95,289.85 53.55,291.85 51.1,293.9 48.65,295.95 48.65,298.15 49.5,300.25 50.3,302.15 52.15,302.75 53.55,303.1 54.95,302.25 58.35,300.5 60.55,297.45 60.85,297.1 61.05,296.7 62.35,294.85 63.55,292.9 63.75,292.5 64.05,292.05 64.9,290.55 65.9,289.05 L65.95,289 Q67.25,285.05 69.8,281.75 72.5,278.4 76.35,276.1 77.45,275.6 81.65,275.3 M65.9,289.05 Q65.3,291 65,292.9 64.8,294.05 64.75,295.15 64.6,297.3 66.15,298.95 66.9,299.8 67.85,300.5 69.2,301.5 70.65,300.85 71.9,300.45 72.85,299.45 74.15,298.15 75,296.5 75.95,294.75 76.75,292.9 76.9,292.45 77.1,292 78.15,289.15 79,286.25 80,282.9 81.1,279.6 81.6,278 82.3,276.2 82.35,276.05 82.45,275.9 82.35,277.1 82.1,278 80.7,282.25 79.95,286.35 79.4,289.65 79.3,292.9 79.25,294.4 79.35,295.85 80.45,294.4 81.55,292.9 81.9,292.4 82.3,291.95 84.3,289.05 86.45,286.55 87.75,285.05 89.15,283.75 91.8,281.4 95.05,279.6 97.6,276.55 101.35,275.6 101.45,275.65 103.05,276.35 M95.05,279.6 Q92.8,282.1 91.15,284.65 89.5,287.15 88.15,290.05 87.55,291.5 87.2,292.9 87.15,293.05 87.1,293.25 85.7,300.5 92.55,299.45 94.25,299.2 95.85,298.1 96.9,297.25 97.95,296.45 98.95,295.65 99.55,294.6 100.05,293.8 100.45,292.9 100.55,292.65 100.7,292.3 101.95,288.9 102.7,285.6 L102.9,284.4 Q103.2,281.75 103.5,278.9 103.55,278.05 103.85,277.3 104,276.9 104.25,276.7 L104.25,276.8 102.9,284.4 M-.6,339.3 Q1.8,337.15 4.35,335.65 6.5,334.35 8.8,333.3 11.45,331.85 14.25,330.8 17.15,329.5 20.1,328.4 22.75,327.5 25.4,326.7 28.7,325.7 32,325.1 33.7,324.9 35.5,324.7 M79.35,295.85 Q79.35,298 79.3,300.15 79.1,303.8 78.8,307.5 78.6,309.3 78.15,311.25 77.4,314.55 76.45,317.9 75.7,320.55 74.85,323.15 73.8,326.8 72.35,330.15 71.5,332.15 70.55,334.1 68.9,337.45 67.15,340.8 66.5,342.05 65.7,343.2 64.75,344.45 63.7,345.6 61.1,348.15 57.9,349.65 55.55,350.6 53.1,351.2 50.3,351.9 47.5,352.3 44.6,352.25 41.8,351.9 39.2,351.2 36.95,349.85 34.7,348.6 32.75,346.95 30.2,344.75 30.85,341.45 31.5,338.8 33.4,336.65 34.9,334.95 36.45,333.15 37.65,331.8 38.85,330.5 39.95,329.35 41.05,328.45 43.45,326.55 45.65,324.9 48.4,323.05 51.1,321.05 52.75,319.9 54.4,318.75 57.45,316.6 60.5,314.45 60.8,314.25 61.05,314.1 63.45,312.3 65.75,310.4 68,308.65 70.15,306.75 72.65,304.5 74.95,301.65 77.3,298.85 79.35,295.85Z M102.7,285.6 Q102.1,289 102.2,292.55 102.2,292.75 102.25,292.9 102.35,295.5 103.7,297.65 104.85,298 105.95,297.85 109,297 109.55,293.95 109.65,293.45 109.55,292.95 M58.55,323.9 L67.55,323.4 M5.05,537.3 L5.05,401.9 66.2,403.6 66.2,535.1" test="Mall Front"/>
      <g test="Mall Front">
        <path id="Layer2_0_1_STROKES" stroke="#FFF" stroke-width="1.482" stroke-linejoin="round" stroke-linecap="round" fill="none" d="M-16.357,385.407 L-19.62,385.407 -19.162,379.021 268.29,379.324 261.478,385.407"/>
      </g>
      <g test="Mall Front">
        <path id="Layer3_0_1_STROKES" stroke="#FFF" stroke-width="1.482" stroke-linejoin="round" stroke-linecap="round" fill="none" d="M-20.536,385.272 L262.394,385.306"/>
      </g>
    </g>
  </g>
</svg>