<?xml version="1.0" encoding="utf-8"?>
<svg id="EdithAnim07" image-rendering="inherit" baseProfile="basic" version="1.1" x="0px" y="0px" width="800" height="600" xmlns="http://www.w3.org/2000/svg" xmlns:xlink="http://www.w3.org/1999/xlink">
  <defs>
    <g id="LinePerspective" overflow="visible">
      <path id="Layer4_0_1_STROKES" stroke="#FFF" stroke-width="2" stroke-linejoin="round" stroke-linecap="round" fill="none" d="M-59.65 54.85L59.7 -54.85" test="LinePerspective"/>
    </g>
  </defs>
  <g id="Need-a-mallf17r1" overflow="visible">
    <g id="MallBackAndSide">
      <g id="MallBack">
        <path id="Layer5_0_1_STROKES" stroke="#FFF" stroke-width="2" stroke-linejoin="round" stroke-linecap="round" fill="none" d="M71.35,182.45 Q77.2,182.15 235.95,182.8 392.95,183.5 395.4,183.15" test="MallBack"/>
      </g>
      <g id="Mall-Back-right">
        <path id="Layer6_0_1_STROKES" stroke="#FFF" stroke-width="2" stroke-linejoin="round" stroke-linecap="round" fill="none" d="M394.75,183.15 L398.9,472.55" test="Mall Back right"/>
      </g>
    </g>
    <use xlink:href="#LinePerspective" transform="matrix(.611 0 0 .656 364.45 509.6)"/>
    <use xlink:href="#LinePerspective" transform="matrix(.613 0 0 .413 357.2 205.65)"/>
    <use xlink:href="#LinePerspective" transform="matrix(.94 0 0 .413 13.05 205.65)"/>
    <g id="Mall-Front">
      <path id="Layer1_0_1_STROKES" stroke="#FFF" stroke-width="2" stroke-linejoin="round" stroke-linecap="round" fill="none" d="M-39.8,228.35 Q-19.35,226.2 6.15,223.9 57.2,219.3 82.5,218.8 110.55,218.25 173.45,217.7 231.05,217.2 254.9,217.2 273.8,217.2 298.35,219.8 320.4,222.05 323.25,223.55 325.35,224.65 326.3,271.7 327.15,314.55 326.4,334.75 326,345.65 327.2,389.3 328.4,432.65 328,442 327.2,461.1 327.2,515.9 327.2,523.45 327.25,535.05 327.1,543.2 325.6,545.3 324.25,547.05 266,545.6 262.9,545.55 259.65,545.45 257.4,545.4 255.15,545.35 254.25,545.35 253.4,545.3 181.35,542.95 171.5,542.95 160.85,542.95 80.45,542.15 50.25,541.85 30.5,541.65 -2.35,541.35 -6.45,541.35 -13.25,541.35 -25.15,543.8 -34.5,545.7 -37.4,544.5 -40.65,543.1 -41.4,489 -42.4,424.05 -43,417.4 -44.6,401.05 -42.9,318.1 -41.25,238.25 -39.8,228.35Z" test="Mall Front"/>
      <path id="Layer1_0_2_STROKES" stroke="#F0F" stroke-width="2" stroke-linejoin="round" stroke-linecap="round" fill="none" d="M213.95,284.05 Q216.15,282.05 218.25,279.95 219.8,278.55 221.05,276.9 223.4,274.1 225.3,270.95 226.95,268.25 228.1,265.35 229.6,261.8 228.65,258 228.55,257.35 228.35,256.8 227.45,256.85 226.55,256.95 225.8,257.2 225.1,257.55 223.6,258.7 222.4,260.15 220.95,262 219.85,264.2 218.45,266.95 217.4,269.9 214.95,276.75 213.95,284.05 213.65,287.2 213.8,290.2 213.85,291.65 214.3,292.9 215,295 216.75,296.75 217.45,297.5 218.45,298 221.7,299.7 225.1,297.8 228.1,296.05 230.5,293.5 230.8,293.25 231.05,292.9 232.95,290.85 234.65,288.5 235,281.8 237.25,275.45 238.5,272 240.15,268.75 241.3,266.5 242.9,264.6 244.3,262.95 246,261.6 248.35,259.7 251.3,259.5 251.1,260.8 250.8,262 250.45,263.7 250,265.35 248.95,268.75 247.1,271.65 245.05,274.75 242.95,277.6 241.15,280.1 239.3,282.55 237.05,285.6 234.65,288.5 234.45,290.7 234.7,292.9 234.9,294.4 235.35,295.8 236.4,299.5 240.2,300.5 242.05,301 244,301.25 247.25,301.6 250,299.65 251.95,298.35 253.9,297.05 254.95,296.5 255.65,295.7 256.9,294.35 258.15,292.9 258.6,292.35 259.05,291.8 M140.35,299.95 Q141.1,296.8 141.85,293.7 141.95,293.3 142.05,292.9 142.85,289.55 143.65,286.15 145.35,278.8 149,272.25 152.6,265.65 157.9,260.25 161.8,256.3 166.7,254 167,261.45 164.65,268.45 163.05,273.1 161.25,277.9 162.35,275.35 163.65,272.8 165.05,269.8 167.15,266.65 168.65,264.3 170.6,262.5 170.75,262.3 170.95,262.15 172.35,260.95 173.85,259.65 176.6,257.35 179.25,255.4 181.55,253.55 184.6,253.65 184.55,254.9 184.3,256.1 184.25,257.05 183.95,257.95 183.1,260.85 182.25,263.3 180.8,267.65 179.3,271.65 176.75,279.05 174.15,286.4 173.1,289.55 172.35,292.9 172.15,293.9 171.95,294.85 171.45,297.3 171.35,299.95 172.95,298.2 174.4,296.35 175.85,294.65 177.15,292.9 177.6,292.3 178,291.7 179.85,289.15 181.6,286.55 183.75,283.35 186.2,280.25 188.7,277.05 191.9,274.55 194.05,273.1 196.3,272.25 197,272.05 200.7,270.8 M159.55,282.35 L161.25,277.9 M191.9,274.55 Q189.55,276.7 188.1,279.65 187.05,281.7 185.95,283.75 184.45,286.7 183.65,289.8 183.4,290.85 183.2,291.95 183.15,292.4 183.15,292.9 183.15,293.1 183.15,293.3 183.7,294.4 184.85,294.8 186.05,295.2 187.25,294.65 188.4,294.1 189.25,293.15 189.35,293.05 189.5,292.9 191.4,291 193,288.9 196,285.1 198.75,280.9 199,280.25 199.15,279.7 200.2,276.4 201.25,273 L201.25,272.85 Q201.55,271.85 201.5,270.8 M198.75,280.9 Q200.35,278.55 200.7,276.2 201,274.6 201.25,273 M198.75,280.9 Q197.7,284.25 197.25,287.85 197.05,289.2 197.5,290.55 198.05,292.3 199.6,292.9 200,293.05 200.4,293.15 200.65,293.05 200.85,292.9 204.4,291.15 207.5,289 210.95,286.55 213.95,284.05 M102,322.4 Q104.75,322.7 107.25,322.55 110.55,322.4 113.8,322.35 115.75,322.1 117.7,322 119.85,321.85 122.05,321.7 125.6,321.35 129.15,321.05 131.7,320.75 134.35,320.55 137.15,320.2 139.95,319.9 142.95,319.65 145.95,319.4 149.15,319.15 152.3,318.95 155.7,318.75 159.05,318.55 162.65,318.4 166.2,318.2 170,318.05 173.8,318 175.65,317.95 177.65,317.9 179.65,317.9 181.65,317.9 183.7,317.85 185.8,317.75 187.9,317.75 189.95,317.75 193.2,317.75 196.55,317.75 199.55,317.75 202.5,317.9 205.5,317.9 208.5,317.9 229.7,318 250.8,318 M185.35,540.15 L189.7,400.7 260.05,400.7 256.05,542.55 M104.7,540.55 L109.1,402.7 165.1,402.7 162.35,538.5 M19.2,303.7 Q20,300.4 20.8,297.15 21.75,293.15 22.6,289.2 24.45,281.55 28.25,274.7 32,267.8 37.55,262.15 41.7,258 46.75,255.6 47.1,263.35 44.6,270.7 42.95,275.6 41.05,280.6 42.25,277.95 43.55,275.3 45.05,272.1 47.25,268.85 48.8,266.35 50.85,264.45 51,264.3 51.2,264.15 52.7,262.85 54.25,261.55 57.1,259.1 59.85,257.05 62.3,255.1 65.45,255.25 65.4,256.55 65.2,257.8 65.1,258.8 64.8,259.75 63.9,262.75 63.05,265.35 61.5,269.9 59.95,274.1 57.25,281.8 54.55,289.5 53.2,293.65 52.25,298.3 51.95,299.9 51.75,301.55 54.45,300.9 56.6,300.45 59.15,299.65 61.5,298.45 63.85,297.3 66.15,295.95 65.2,288.35 67.8,283.75 70.35,279.1 71.9,277.3 73.45,275.45 74.6,274.95 74.9,274.75 75.25,274.75 78.45,276.55 77.9,280.2 77.25,283.85 75.25,286.9 73.45,289.85 71.05,291.85 68.6,293.9 66.15,295.95 66.15,298.15 67,300.25 67.8,302.15 69.65,302.75 71.05,303.1 72.45,302.25 75.85,300.5 78.05,297.45 78.35,297.1 78.55,296.7 79.85,294.85 81.05,292.9 81.25,292.5 81.55,292.05 82.4,290.55 83.4,289.05 L83.45,289 Q84.75,285.05 87.3,281.75 90,278.4 93.85,276.1 94.95,275.6 99.15,275.3 M83.4,289.05 Q82.8,291 82.5,292.9 82.3,294.05 82.25,295.15 82.1,297.3 83.65,298.95 84.4,299.8 85.35,300.5 86.7,301.5 88.15,300.85 89.4,300.45 90.35,299.45 91.65,298.15 92.5,296.5 93.45,294.75 94.25,292.9 94.4,292.45 94.6,292 95.65,289.15 96.5,286.25 97.5,282.9 98.6,279.6 99.1,278 99.8,276.2 99.85,276.05 99.95,275.9 99.85,277.1 99.6,278 98.2,282.25 97.45,286.35 96.9,289.65 96.8,292.9 96.75,294.4 96.85,295.85 97.95,294.4 99.05,292.9 99.4,292.4 99.8,291.95 101.8,289.05 103.95,286.55 105.25,285.05 106.65,283.75 109.3,281.4 112.55,279.6 115.1,276.55 118.85,275.6 118.95,275.65 120.55,276.35 M112.55,279.6 Q110.3,282.1 108.65,284.65 107,287.15 105.65,290.05 105.05,291.5 104.7,292.9 104.65,293.05 104.6,293.25 103.2,300.5 110.05,299.45 111.75,299.2 113.35,298.1 114.4,297.25 115.45,296.45 116.45,295.65 117.05,294.6 117.55,293.8 117.95,292.9 118.05,292.65 118.2,292.3 119.45,288.9 120.2,285.6 L120.4,284.4 Q120.7,281.75 121,278.9 121.05,278.05 121.35,277.3 121.5,276.9 121.75,276.7 L121.75,276.8 120.4,284.4 M16.9,339.3 Q19.3,337.15 21.85,335.65 24,334.35 26.3,333.3 28.95,331.85 31.75,330.8 34.65,329.5 37.6,328.4 40.25,327.5 42.9,326.7 46.2,325.7 49.5,325.1 51.2,324.9 53,324.7 M96.85,295.85 Q96.85,298 96.8,300.15 96.6,303.8 96.3,307.5 96.1,309.3 95.65,311.25 94.9,314.55 93.95,317.9 93.2,320.55 92.35,323.15 91.3,326.8 89.85,330.15 89,332.15 88.05,334.1 86.4,337.45 84.65,340.8 84,342.05 83.2,343.2 82.25,344.45 81.2,345.6 78.6,348.15 75.4,349.65 73.05,350.6 70.6,351.2 67.8,351.9 65,352.3 62.1,352.25 59.3,351.9 56.7,351.2 54.45,349.85 52.2,348.6 50.25,346.95 47.7,344.75 48.35,341.45 49,338.8 50.9,336.65 52.4,334.95 53.95,333.15 55.15,331.8 56.35,330.5 57.45,329.35 58.55,328.45 60.95,326.55 63.15,324.9 65.9,323.05 68.6,321.05 70.25,319.9 71.9,318.75 74.95,316.6 78,314.45 78.3,314.25 78.55,314.1 80.95,312.3 83.25,310.4 85.5,308.65 87.65,306.75 90.15,304.5 92.45,301.65 94.8,298.85 96.85,295.85Z M120.2,285.6 Q119.6,289 119.7,292.55 119.7,292.75 119.75,292.9 119.85,295.5 121.2,297.65 122.35,298 123.45,297.85 126.5,297 127.05,293.95 127.15,293.45 127.05,292.95 M76.05,323.9 L85.05,323.4 M22.55,537.3 L22.55,401.9 83.7,403.6 83.7,535.1" test="Mall Front"/>
      <g test="Mall Front">
        <path id="Layer2_0_1_STROKES" stroke="#FFF" stroke-width="1.482" stroke-linejoin="round" stroke-linecap="round" fill="none" d="M1.143,385.407 L-2.12,385.407 -1.662,379.021 285.79,379.324 278.978,385.407"/>
      </g>
      <g test="Mall Front">
        <path id="Layer3_0_1_STROKES" stroke="#FFF" stroke-width="1.482" stroke-linejoin="round" stroke-linecap="round" fill="none" d="M-3.036,385.272 L279.894,385.306"/>
      </g>
    </g>
  </g>
</svg>