<?xml version="1.0" encoding="utf-8"?>
<svg id="EdithAnim07" image-rendering="inherit" baseProfile="basic" version="1.1" x="0px" y="0px" width="800" height="600" xmlns="http://www.w3.org/2000/svg" xmlns:xlink="http://www.w3.org/1999/xlink">
  <defs>
    <g id="LinePerspective" overflow="visible">
      <path id="Layer4_0_1_STROKES" stroke="#FFF" stroke-width="2" stroke-linejoin="round" stroke-linecap="round" fill="none" d="M-59.65 54.85L59.7 -54.85" test="LinePerspective"/>
    </g>
  </defs>
  <g id="Need-a-mallf19r1" overflow="visible">
    <g id="MallBackAndSide">
      <g id="MallBack">
        <path id="Layer5_0_1_STROKES" stroke="#FFF" stroke-width="2" stroke-linejoin="round" stroke-linecap="round" fill="none" d="M97.15,182.45 Q103,182.15 261.75,182.8 418.75,183.5 421.2,183.15" test="MallBack"/>
      </g>
      <g id="Mall-Back-right">
        <path id="Layer6_0_1_STROKES" stroke="#FFF" stroke-width="2" stroke-linejoin="round" stroke-linecap="round" fill="none" d="M420.55,183.15 L424.7,472.55" test="Mall Back right"/>
      </g>
    </g>
    <use xlink:href="#LinePerspective" transform="matrix(.569 0 0 .659 392.9 509.45)"/>
    <use xlink:href="#LinePerspective" transform="matrix(.57 0 0 .415 385.6 205.6)"/>
    <use xlink:href="#LinePerspective" transform="matrix(.897 0 0 .415 41.45 205.6)"/>
    <g id="Mall-Front">
      <path id="Layer1_0_1_STROKES" stroke="#FFF" stroke-width="2" stroke-linejoin="round" stroke-linecap="round" fill="none" d="M-8.85,228.35 Q11.6,226.2 37.1,223.9 88.15,219.3 113.45,218.8 141.5,218.25 204.4,217.7 262,217.2 285.85,217.2 304.75,217.2 329.3,219.8 351.35,222.05 354.2,223.55 356.3,224.65 357.25,271.7 358.1,314.55 357.35,334.75 356.95,345.65 358.15,389.3 359.35,432.65 358.95,442 358.15,461.1 358.15,515.9 358.15,523.45 358.2,535.05 358.05,543.2 356.55,545.3 355.2,547.05 296.95,545.6 293.85,545.55 290.6,545.45 288.35,545.4 286.1,545.35 285.2,545.35 284.35,545.3 212.3,542.95 202.45,542.95 191.8,542.95 111.4,542.15 81.2,541.85 61.45,541.65 28.6,541.35 24.5,541.35 17.7,541.35 5.8,543.8 -3.55,545.7 -6.45,544.5 -9.7,543.1 -10.45,489 -11.45,424.05 -12.05,417.4 -13.65,401.05 -11.95,318.1 -10.3,238.25 -8.85,228.35Z" test="Mall Front"/>
      <path id="Layer1_0_2_STROKES" stroke="#F0F" stroke-width="2" stroke-linejoin="round" stroke-linecap="round" fill="none" d="M244.9,284.05 Q247.1,282.05 249.2,279.95 250.75,278.55 252,276.9 254.35,274.1 256.25,270.95 257.9,268.25 259.05,265.35 260.55,261.8 259.6,258 259.5,257.35 259.3,256.8 258.4,256.85 257.5,256.95 256.75,257.2 256.05,257.55 254.55,258.7 253.35,260.15 251.9,262 250.8,264.2 249.4,266.95 248.35,269.9 245.9,276.75 244.9,284.05 244.6,287.2 244.75,290.2 244.8,291.65 245.25,292.9 245.95,295 247.7,296.75 248.4,297.5 249.4,298 252.65,299.7 256.05,297.8 259.05,296.05 261.45,293.5 261.75,293.25 262,292.9 263.9,290.85 265.6,288.5 265.95,281.8 268.2,275.45 269.45,272 271.1,268.75 272.25,266.5 273.85,264.6 275.25,262.95 276.95,261.6 279.3,259.7 282.25,259.5 282.05,260.8 281.75,262 281.4,263.7 280.95,265.35 279.9,268.75 278.05,271.65 276,274.75 273.9,277.6 272.1,280.1 270.25,282.55 268,285.6 265.6,288.5 265.4,290.7 265.65,292.9 265.85,294.4 266.3,295.8 267.35,299.5 271.15,300.5 273,301 274.95,301.25 278.2,301.6 280.95,299.65 282.9,298.35 284.85,297.05 285.9,296.5 286.6,295.7 287.85,294.35 289.1,292.9 289.55,292.35 290,291.8 M171.3,299.95 Q172.05,296.8 172.8,293.7 172.9,293.3 173,292.9 173.8,289.55 174.6,286.15 176.3,278.8 179.95,272.25 183.55,265.65 188.85,260.25 192.75,256.3 197.65,254 197.95,261.45 195.6,268.45 194,273.1 192.2,277.9 193.3,275.35 194.6,272.8 196,269.8 198.1,266.65 199.6,264.3 201.55,262.5 201.7,262.3 201.9,262.15 203.3,260.95 204.8,259.65 207.55,257.35 210.2,255.4 212.5,253.55 215.55,253.65 215.5,254.9 215.25,256.1 215.2,257.05 214.9,257.95 214.05,260.85 213.2,263.3 211.75,267.65 210.25,271.65 207.7,279.05 205.1,286.4 204.05,289.55 203.3,292.9 203.1,293.9 202.9,294.85 202.4,297.3 202.3,299.95 203.9,298.2 205.35,296.35 206.8,294.65 208.1,292.9 208.55,292.3 208.95,291.7 210.8,289.15 212.55,286.55 214.7,283.35 217.15,280.25 219.65,277.05 222.85,274.55 225,273.1 227.25,272.25 227.95,272.05 231.65,270.8 M190.5,282.35 L192.2,277.9 M222.85,274.55 Q220.5,276.7 219.05,279.65 218,281.7 216.9,283.75 215.4,286.7 214.6,289.8 214.35,290.85 214.15,291.95 214.1,292.4 214.1,292.9 214.1,293.1 214.1,293.3 214.65,294.4 215.8,294.8 217,295.2 218.2,294.65 219.35,294.1 220.2,293.15 220.3,293.05 220.45,292.9 222.35,291 223.95,288.9 226.95,285.1 229.7,280.9 229.95,280.25 230.1,279.7 231.15,276.4 232.2,273 L232.2,272.85 Q232.5,271.85 232.45,270.8 M229.7,280.9 Q231.3,278.55 231.65,276.2 231.95,274.6 232.2,273 M229.7,280.9 Q228.65,284.25 228.2,287.85 228,289.2 228.45,290.55 229,292.3 230.55,292.9 230.95,293.05 231.35,293.15 231.6,293.05 231.8,292.9 235.35,291.15 238.45,289 241.9,286.55 244.9,284.05 M132.95,322.4 Q135.7,322.7 138.2,322.55 141.5,322.4 144.75,322.35 146.7,322.1 148.65,322 150.8,321.85 153,321.7 156.55,321.35 160.1,321.05 162.65,320.75 165.3,320.55 168.1,320.2 170.9,319.9 173.9,319.65 176.9,319.4 180.1,319.15 183.25,318.95 186.65,318.75 190,318.55 193.6,318.4 197.15,318.2 200.95,318.05 204.75,318 206.6,317.95 208.6,317.9 210.6,317.9 212.6,317.9 214.65,317.85 216.75,317.75 218.85,317.75 220.9,317.75 224.15,317.75 227.5,317.75 230.5,317.75 233.45,317.9 236.45,317.9 239.45,317.9 260.65,318 281.75,318 M216.3,540.15 L220.65,400.7 291,400.7 287,542.55 M135.65,540.55 L140.05,402.7 196.05,402.7 193.3,538.5 M50.15,303.7 Q50.95,300.4 51.75,297.15 52.7,293.15 53.55,289.2 55.4,281.55 59.2,274.7 62.95,267.8 68.5,262.15 72.65,258 77.7,255.6 78.05,263.35 75.55,270.7 73.9,275.6 72,280.6 73.2,277.95 74.5,275.3 76,272.1 78.2,268.85 79.75,266.35 81.8,264.45 81.95,264.3 82.15,264.15 83.65,262.85 85.2,261.55 88.05,259.1 90.8,257.05 93.25,255.1 96.4,255.25 96.35,256.55 96.15,257.8 96.05,258.8 95.75,259.75 94.85,262.75 94,265.35 92.45,269.9 90.9,274.1 88.2,281.8 85.5,289.5 84.15,293.65 83.2,298.3 82.9,299.9 82.7,301.55 85.4,300.9 87.55,300.45 90.1,299.65 92.45,298.45 94.8,297.3 97.1,295.95 96.15,288.35 98.75,283.75 101.3,279.1 102.85,277.3 104.4,275.45 105.55,274.95 105.85,274.75 106.2,274.75 109.4,276.55 108.85,280.2 108.2,283.85 106.2,286.9 104.4,289.85 102,291.85 99.55,293.9 97.1,295.95 97.1,298.15 97.95,300.25 98.75,302.15 100.6,302.75 102,303.1 103.4,302.25 106.8,300.5 109,297.45 109.3,297.1 109.5,296.7 110.8,294.85 112,292.9 112.2,292.5 112.5,292.05 113.35,290.55 114.35,289.05 L114.4,289 Q115.7,285.05 118.25,281.75 120.95,278.4 124.8,276.1 125.9,275.6 130.1,275.3 M114.35,289.05 Q113.75,291 113.45,292.9 113.25,294.05 113.2,295.15 113.05,297.3 114.6,298.95 115.35,299.8 116.3,300.5 117.65,301.5 119.1,300.85 120.35,300.45 121.3,299.45 122.6,298.15 123.45,296.5 124.4,294.75 125.2,292.9 125.35,292.45 125.55,292 126.6,289.15 127.45,286.25 128.45,282.9 129.55,279.6 130.05,278 130.75,276.2 130.8,276.05 130.9,275.9 130.8,277.1 130.55,278 129.15,282.25 128.4,286.35 127.85,289.65 127.75,292.9 127.7,294.4 127.8,295.85 128.9,294.4 130,292.9 130.35,292.4 130.75,291.95 132.75,289.05 134.9,286.55 136.2,285.05 137.6,283.75 140.25,281.4 143.5,279.6 146.05,276.55 149.8,275.6 149.9,275.65 151.5,276.35 M143.5,279.6 Q141.25,282.1 139.6,284.65 137.95,287.15 136.6,290.05 136,291.5 135.65,292.9 135.6,293.05 135.55,293.25 134.15,300.5 141,299.45 142.7,299.2 144.3,298.1 145.35,297.25 146.4,296.45 147.4,295.65 148,294.6 148.5,293.8 148.9,292.9 149,292.65 149.15,292.3 150.4,288.9 151.15,285.6 L151.35,284.4 Q151.65,281.75 151.95,278.9 152,278.05 152.3,277.3 152.45,276.9 152.7,276.7 L152.7,276.8 151.35,284.4 M47.85,339.3 Q50.25,337.15 52.8,335.65 54.95,334.35 57.25,333.3 59.9,331.85 62.7,330.8 65.6,329.5 68.55,328.4 71.2,327.5 73.85,326.7 77.15,325.7 80.45,325.1 82.15,324.9 83.95,324.7 M127.8,295.85 Q127.8,298 127.75,300.15 127.55,303.8 127.25,307.5 127.05,309.3 126.6,311.25 125.85,314.55 124.9,317.9 124.15,320.55 123.3,323.15 122.25,326.8 120.8,330.15 119.95,332.15 119,334.1 117.35,337.45 115.6,340.8 114.95,342.05 114.15,343.2 113.2,344.45 112.15,345.6 109.55,348.15 106.35,349.65 104,350.6 101.55,351.2 98.75,351.9 95.95,352.3 93.05,352.25 90.25,351.9 87.65,351.2 85.4,349.85 83.15,348.6 81.2,346.95 78.65,344.75 79.3,341.45 79.95,338.8 81.85,336.65 83.35,334.95 84.9,333.15 86.1,331.8 87.3,330.5 88.4,329.35 89.5,328.45 91.9,326.55 94.1,324.9 96.85,323.05 99.55,321.05 101.2,319.9 102.85,318.75 105.9,316.6 108.95,314.45 109.25,314.25 109.5,314.1 111.9,312.3 114.2,310.4 116.45,308.65 118.6,306.75 121.1,304.5 123.4,301.65 125.75,298.85 127.8,295.85Z M151.15,285.6 Q150.55,289 150.65,292.55 150.65,292.75 150.7,292.9 150.8,295.5 152.15,297.65 153.3,298 154.4,297.85 157.45,297 158,293.95 158.1,293.45 158,292.95 M107,323.9 L116,323.4 M53.5,537.3 L53.5,401.9 114.65,403.6 114.65,535.1" test="Mall Front"/>
      <g test="Mall Front">
        <path id="Layer2_0_1_STROKES" stroke="#FFF" stroke-width="1.482" stroke-linejoin="round" stroke-linecap="round" fill="none" d="M32.093,385.407 L28.83,385.407 29.288,379.021 316.74,379.324 309.928,385.407"/>
      </g>
      <g test="Mall Front">
        <path id="Layer3_0_1_STROKES" stroke="#FFF" stroke-width="1.482" stroke-linejoin="round" stroke-linecap="round" fill="none" d="M27.914,385.272 L310.844,385.306"/>
      </g>
    </g>
  </g>
</svg>