<?xml version="1.0" encoding="utf-8"?>
<svg id="EdithAnim07" image-rendering="inherit" baseProfile="basic" version="1.1" x="0px" y="0px" width="800" height="600" xmlns="http://www.w3.org/2000/svg" xmlns:xlink="http://www.w3.org/1999/xlink">
  <defs>
    <g id="LinePerspective" overflow="visible">
      <path id="Layer4_0_1_STROKES" stroke="#FFF" stroke-width="2" stroke-linejoin="round" stroke-linecap="round" fill="none" d="M-59.65 54.85L59.7 -54.85" test="LinePerspective"/>
    </g>
  </defs>
  <g id="Need-a-mallf20r1" overflow="visible">
    <g id="MallBackAndSide">
      <g id="MallBack">
        <path id="Layer5_0_1_STROKES" stroke="#FFF" stroke-width="2" stroke-linejoin="round" stroke-linecap="round" fill="none" d="M108.35,182.45 Q114.2,182.15 272.95,182.8 429.95,183.5 432.4,183.15" test="MallBack"/>
      </g>
      <g id="Mall-Back-right">
        <path id="Layer6_0_1_STROKES" stroke="#FFF" stroke-width="2" stroke-linejoin="round" stroke-linecap="round" fill="none" d="M431.75,183.15 L435.9,472.55" test="Mall Back right"/>
      </g>
    </g>
    <use xlink:href="#LinePerspective" transform="matrix(.551 0 0 .661 405.25 509.3)"/>
    <use xlink:href="#LinePerspective" transform="matrix(.552 0 0 .415 397.9 205.6)"/>
    <use xlink:href="#LinePerspective" transform="matrix(.878 0 0 .415 53.75 205.6)"/>
    <g id="Mall-Front">
      <path id="Layer1_0_1_STROKES" stroke="#FFF" stroke-width="2" stroke-linejoin="round" stroke-linecap="round" fill="none" d="M4.6,228.35 Q25.05,226.2 50.55,223.9 101.6,219.3 126.9,218.8 154.95,218.25 217.85,217.7 275.45,217.2 299.3,217.2 318.2,217.2 342.75,219.8 364.8,222.05 367.65,223.55 369.75,224.65 370.7,271.7 371.55,314.55 370.8,334.75 370.4,345.65 371.6,389.3 372.8,432.65 372.4,442 371.6,461.1 371.6,515.9 371.6,523.45 371.65,535.05 371.5,543.2 370,545.3 368.65,547.05 310.4,545.6 307.3,545.55 304.05,545.45 301.8,545.4 299.55,545.35 298.65,545.35 297.8,545.3 225.75,542.95 215.9,542.95 205.25,542.95 124.85,542.15 94.65,541.85 74.9,541.65 42.05,541.35 37.95,541.35 31.15,541.35 19.25,543.8 9.9,545.7 7,544.5 3.75,543.1 3,489 2,424.05 1.4,417.4 -.2,401.05 1.5,318.1 3.15,238.25 4.6,228.35Z" test="Mall Front"/>
      <path id="Layer1_0_2_STROKES" stroke="#F0F" stroke-width="2" stroke-linejoin="round" stroke-linecap="round" fill="none" d="M258.35,284.05 Q260.55,282.05 262.65,279.95 264.2,278.55 265.45,276.9 267.8,274.1 269.7,270.95 271.35,268.25 272.5,265.35 274,261.8 273.05,258 272.95,257.35 272.75,256.8 271.85,256.85 270.95,256.95 270.2,257.2 269.5,257.55 268,258.7 266.8,260.15 265.35,262 264.25,264.2 262.85,266.95 261.8,269.9 259.35,276.75 258.35,284.05 258.05,287.2 258.2,290.2 258.25,291.65 258.7,292.9 259.4,295 261.15,296.75 261.85,297.5 262.85,298 266.1,299.7 269.5,297.8 272.5,296.05 274.9,293.5 275.2,293.25 275.45,292.9 277.35,290.85 279.05,288.5 279.4,281.8 281.65,275.45 282.9,272 284.55,268.75 285.7,266.5 287.3,264.6 288.7,262.95 290.4,261.6 292.75,259.7 295.7,259.5 295.5,260.8 295.2,262 294.85,263.7 294.4,265.35 293.35,268.75 291.5,271.65 289.45,274.75 287.35,277.6 285.55,280.1 283.7,282.55 281.45,285.6 279.05,288.5 278.85,290.7 279.1,292.9 279.3,294.4 279.75,295.8 280.8,299.5 284.6,300.5 286.45,301 288.4,301.25 291.65,301.6 294.4,299.65 296.35,298.35 298.3,297.05 299.35,296.5 300.05,295.7 301.3,294.35 302.55,292.9 303,292.35 303.45,291.8 M184.75,299.95 Q185.5,296.8 186.25,293.7 186.35,293.3 186.45,292.9 187.25,289.55 188.05,286.15 189.75,278.8 193.4,272.25 197,265.65 202.3,260.25 206.2,256.3 211.1,254 211.4,261.45 209.05,268.45 207.45,273.1 205.65,277.9 206.75,275.35 208.05,272.8 209.45,269.8 211.55,266.65 213.05,264.3 215,262.5 215.15,262.3 215.35,262.15 216.75,260.95 218.25,259.65 221,257.35 223.65,255.4 225.95,253.55 229,253.65 228.95,254.9 228.7,256.1 228.65,257.05 228.35,257.95 227.5,260.85 226.65,263.3 225.2,267.65 223.7,271.65 221.15,279.05 218.55,286.4 217.5,289.55 216.75,292.9 216.55,293.9 216.35,294.85 215.85,297.3 215.75,299.95 217.35,298.2 218.8,296.35 220.25,294.65 221.55,292.9 222,292.3 222.4,291.7 224.25,289.15 226,286.55 228.15,283.35 230.6,280.25 233.1,277.05 236.3,274.55 238.45,273.1 240.7,272.25 241.4,272.05 245.1,270.8 M203.95,282.35 L205.65,277.9 M236.3,274.55 Q233.95,276.7 232.5,279.65 231.45,281.7 230.35,283.75 228.85,286.7 228.05,289.8 227.8,290.85 227.6,291.95 227.55,292.4 227.55,292.9 227.55,293.1 227.55,293.3 228.1,294.4 229.25,294.8 230.45,295.2 231.65,294.65 232.8,294.1 233.65,293.15 233.75,293.05 233.9,292.9 235.8,291 237.4,288.9 240.4,285.1 243.15,280.9 243.4,280.25 243.55,279.7 244.6,276.4 245.65,273 L245.65,272.85 Q245.95,271.85 245.9,270.8 M243.15,280.9 Q244.75,278.55 245.1,276.2 245.4,274.6 245.65,273 M243.15,280.9 Q242.1,284.25 241.65,287.85 241.45,289.2 241.9,290.55 242.45,292.3 244,292.9 244.4,293.05 244.8,293.15 245.05,293.05 245.25,292.9 248.8,291.15 251.9,289 255.35,286.55 258.35,284.05 M146.4,322.4 Q149.15,322.7 151.65,322.55 154.95,322.4 158.2,322.35 160.15,322.1 162.1,322 164.25,321.85 166.45,321.7 170,321.35 173.55,321.05 176.1,320.75 178.75,320.55 181.55,320.2 184.35,319.9 187.35,319.65 190.35,319.4 193.55,319.15 196.7,318.95 200.1,318.75 203.45,318.55 207.05,318.4 210.6,318.2 214.4,318.05 218.2,318 220.05,317.95 222.05,317.9 224.05,317.9 226.05,317.9 228.1,317.85 230.2,317.75 232.3,317.75 234.35,317.75 237.6,317.75 240.95,317.75 243.95,317.75 246.9,317.9 249.9,317.9 252.9,317.9 274.1,318 295.2,318 M229.75,540.15 L234.1,400.7 304.45,400.7 300.45,542.55 M149.1,540.55 L153.5,402.7 209.5,402.7 206.75,538.5 M63.6,303.7 Q64.4,300.4 65.2,297.15 66.15,293.15 67,289.2 68.85,281.55 72.65,274.7 76.4,267.8 81.95,262.15 86.1,258 91.15,255.6 91.5,263.35 89,270.7 87.35,275.6 85.45,280.6 86.65,277.95 87.95,275.3 89.45,272.1 91.65,268.85 93.2,266.35 95.25,264.45 95.4,264.3 95.6,264.15 97.1,262.85 98.65,261.55 101.5,259.1 104.25,257.05 106.7,255.1 109.85,255.25 109.8,256.55 109.6,257.8 109.5,258.8 109.2,259.75 108.3,262.75 107.45,265.35 105.9,269.9 104.35,274.1 101.65,281.8 98.95,289.5 97.6,293.65 96.65,298.3 96.35,299.9 96.15,301.55 98.85,300.9 101,300.45 103.55,299.65 105.9,298.45 108.25,297.3 110.55,295.95 109.6,288.35 112.2,283.75 114.75,279.1 116.3,277.3 117.85,275.45 119,274.95 119.3,274.75 119.65,274.75 122.85,276.55 122.3,280.2 121.65,283.85 119.65,286.9 117.85,289.85 115.45,291.85 113,293.9 110.55,295.95 110.55,298.15 111.4,300.25 112.2,302.15 114.05,302.75 115.45,303.1 116.85,302.25 120.25,300.5 122.45,297.45 122.75,297.1 122.95,296.7 124.25,294.85 125.45,292.9 125.65,292.5 125.95,292.05 126.8,290.55 127.8,289.05 L127.85,289 Q129.15,285.05 131.7,281.75 134.4,278.4 138.25,276.1 139.35,275.6 143.55,275.3 M127.8,289.05 Q127.2,291 126.9,292.9 126.7,294.05 126.65,295.15 126.5,297.3 128.05,298.95 128.8,299.8 129.75,300.5 131.1,301.5 132.55,300.85 133.8,300.45 134.75,299.45 136.05,298.15 136.9,296.5 137.85,294.75 138.65,292.9 138.8,292.45 139,292 140.05,289.15 140.9,286.25 141.9,282.9 143,279.6 143.5,278 144.2,276.2 144.25,276.05 144.35,275.9 144.25,277.1 144,278 142.6,282.25 141.85,286.35 141.3,289.65 141.2,292.9 141.15,294.4 141.25,295.85 142.35,294.4 143.45,292.9 143.8,292.4 144.2,291.95 146.2,289.05 148.35,286.55 149.65,285.05 151.05,283.75 153.7,281.4 156.95,279.6 159.5,276.55 163.25,275.6 163.35,275.65 164.95,276.35 M156.95,279.6 Q154.7,282.1 153.05,284.65 151.4,287.15 150.05,290.05 149.45,291.5 149.1,292.9 149.05,293.05 149,293.25 147.6,300.5 154.45,299.45 156.15,299.2 157.75,298.1 158.8,297.25 159.85,296.45 160.85,295.65 161.45,294.6 161.95,293.8 162.35,292.9 162.45,292.65 162.6,292.3 163.85,288.9 164.6,285.6 L164.8,284.4 Q165.1,281.75 165.4,278.9 165.45,278.05 165.75,277.3 165.9,276.9 166.15,276.7 L166.15,276.8 164.8,284.4 M61.3,339.3 Q63.7,337.15 66.25,335.65 68.4,334.35 70.7,333.3 73.35,331.85 76.15,330.8 79.05,329.5 82,328.4 84.65,327.5 87.3,326.7 90.6,325.7 93.9,325.1 95.6,324.9 97.4,324.7 M141.25,295.85 Q141.25,298 141.2,300.15 141,303.8 140.7,307.5 140.5,309.3 140.05,311.25 139.3,314.55 138.35,317.9 137.6,320.55 136.75,323.15 135.7,326.8 134.25,330.15 133.4,332.15 132.45,334.1 130.8,337.45 129.05,340.8 128.4,342.05 127.6,343.2 126.65,344.45 125.6,345.6 123,348.15 119.8,349.65 117.45,350.6 115,351.2 112.2,351.9 109.4,352.3 106.5,352.25 103.7,351.9 101.1,351.2 98.85,349.85 96.6,348.6 94.65,346.95 92.1,344.75 92.75,341.45 93.4,338.8 95.3,336.65 96.8,334.95 98.35,333.15 99.55,331.8 100.75,330.5 101.85,329.35 102.95,328.45 105.35,326.55 107.55,324.9 110.3,323.05 113,321.05 114.65,319.9 116.3,318.75 119.35,316.6 122.4,314.45 122.7,314.25 122.95,314.1 125.35,312.3 127.65,310.4 129.9,308.65 132.05,306.75 134.55,304.5 136.85,301.65 139.2,298.85 141.25,295.85Z M164.6,285.6 Q164,289 164.1,292.55 164.1,292.75 164.15,292.9 164.25,295.5 165.6,297.65 166.75,298 167.85,297.85 170.9,297 171.45,293.95 171.55,293.45 171.45,292.95 M120.45,323.9 L129.45,323.4 M66.95,537.3 L66.95,401.9 128.1,403.6 128.1,535.1" test="Mall Front"/>
      <g test="Mall Front">
        <path id="Layer2_0_1_STROKES" stroke="#FFF" stroke-width="1.482" stroke-linejoin="round" stroke-linecap="round" fill="none" d="M45.543,385.407 L42.28,385.407 42.738,379.021 330.19,379.324 323.378,385.407"/>
      </g>
      <g test="Mall Front">
        <path id="Layer3_0_1_STROKES" stroke="#FFF" stroke-width="1.482" stroke-linejoin="round" stroke-linecap="round" fill="none" d="M41.364,385.272 L324.294,385.306"/>
      </g>
    </g>
  </g>
</svg>