<?xml version="1.0" encoding="utf-8"?>
<svg id="EdithAnim07" image-rendering="inherit" baseProfile="basic" version="1.1" x="0px" y="0px" width="800" height="600" xmlns="http://www.w3.org/2000/svg" xmlns:xlink="http://www.w3.org/1999/xlink">
  <defs>
    <g id="LinePerspective" overflow="visible">
      <path id="Layer4_0_1_STROKES" stroke="#FFF" stroke-width="2" stroke-linejoin="round" stroke-linecap="round" fill="none" d="M-59.65 54.85L59.7 -54.85" test="LinePerspective"/>
    </g>
  </defs>
  <g id="Need-a-mallf22r1" overflow="visible">
    <g id="MallBackAndSide">
      <g id="MallBack">
        <path id="Layer5_0_1_STROKES" stroke="#FFF" stroke-width="2" stroke-linejoin="round" stroke-linecap="round" fill="none" d="M127.3,182.45 Q133.15,182.15 291.9,182.8 448.9,183.5 451.35,183.15" test="MallBack"/>
      </g>
      <g id="Mall-Back-right">
        <path id="Layer6_0_1_STROKES" stroke="#FFF" stroke-width="2" stroke-linejoin="round" stroke-linecap="round" fill="none" d="M450.7,183.15 L454.85,472.55" test="Mall Back right"/>
      </g>
    </g>
    <use xlink:href="#LinePerspective" transform="matrix(.52 0 0 .663 426.1 509.2)"/>
    <use xlink:href="#LinePerspective" transform="matrix(.52 0 0 .416 418.8 205.55)"/>
    <use xlink:href="#LinePerspective" transform="matrix(.847 0 0 .416 74.65 205.55)"/>
    <g id="Mall-Front">
      <path id="Layer1_0_1_STROKES" stroke="#FFF" stroke-width="2" stroke-linejoin="round" stroke-linecap="round" fill="none" d="M27.35,228.35 Q47.8,226.2 73.3,223.9 124.35,219.3 149.65,218.8 177.7,218.25 240.6,217.7 298.2,217.2 322.05,217.2 340.95,217.2 365.5,219.8 387.55,222.05 390.4,223.55 392.5,224.65 393.45,271.7 394.3,314.55 393.55,334.75 393.15,345.65 394.35,389.3 395.55,432.65 395.15,442 394.35,461.1 394.35,515.9 394.35,523.45 394.4,535.05 394.25,543.2 392.75,545.3 391.4,547.05 333.15,545.6 330.05,545.55 326.8,545.45 324.55,545.4 322.3,545.35 321.4,545.35 320.55,545.3 248.5,542.95 238.65,542.95 228,542.95 147.6,542.15 117.4,541.85 97.65,541.65 64.8,541.35 60.7,541.35 53.9,541.35 42,543.8 32.65,545.7 29.75,544.5 26.5,543.1 25.75,489 24.75,424.05 24.15,417.4 22.55,401.05 24.25,318.1 25.9,238.25 27.35,228.35Z" test="Mall Front"/>
      <path id="Layer1_0_2_STROKES" stroke="#F0F" stroke-width="2" stroke-linejoin="round" stroke-linecap="round" fill="none" d="M281.1,284.05 Q283.3,282.05 285.4,279.95 286.95,278.55 288.2,276.9 290.55,274.1 292.45,270.95 294.1,268.25 295.25,265.35 296.75,261.8 295.8,258 295.7,257.35 295.5,256.8 294.6,256.85 293.7,256.95 292.95,257.2 292.25,257.55 290.75,258.7 289.55,260.15 288.1,262 287,264.2 285.6,266.95 284.55,269.9 282.1,276.75 281.1,284.05 280.8,287.2 280.95,290.2 281,291.65 281.45,292.9 282.15,295 283.9,296.75 284.6,297.5 285.6,298 288.85,299.7 292.25,297.8 295.25,296.05 297.65,293.5 297.95,293.25 298.2,292.9 300.1,290.85 301.8,288.5 302.15,281.8 304.4,275.45 305.65,272 307.3,268.75 308.45,266.5 310.05,264.6 311.45,262.95 313.15,261.6 315.5,259.7 318.45,259.5 318.25,260.8 317.95,262 317.6,263.7 317.15,265.35 316.1,268.75 314.25,271.65 312.2,274.75 310.1,277.6 308.3,280.1 306.45,282.55 304.2,285.6 301.8,288.5 301.6,290.7 301.85,292.9 302.05,294.4 302.5,295.8 303.55,299.5 307.35,300.5 309.2,301 311.15,301.25 314.4,301.6 317.15,299.65 319.1,298.35 321.05,297.05 322.1,296.5 322.8,295.7 324.05,294.35 325.3,292.9 325.75,292.35 326.2,291.8 M207.5,299.95 Q208.25,296.8 209,293.7 209.1,293.3 209.2,292.9 210,289.55 210.8,286.15 212.5,278.8 216.15,272.25 219.75,265.65 225.05,260.25 228.95,256.3 233.85,254 234.15,261.45 231.8,268.45 230.2,273.1 228.4,277.9 229.5,275.35 230.8,272.8 232.2,269.8 234.3,266.65 235.8,264.3 237.75,262.5 237.9,262.3 238.1,262.15 239.5,260.95 241,259.65 243.75,257.35 246.4,255.4 248.7,253.55 251.75,253.65 251.7,254.9 251.45,256.1 251.4,257.05 251.1,257.95 250.25,260.85 249.4,263.3 247.95,267.65 246.45,271.65 243.9,279.05 241.3,286.4 240.25,289.55 239.5,292.9 239.3,293.9 239.1,294.85 238.6,297.3 238.5,299.95 240.1,298.2 241.55,296.35 243,294.65 244.3,292.9 244.75,292.3 245.15,291.7 247,289.15 248.75,286.55 250.9,283.35 253.35,280.25 255.85,277.05 259.05,274.55 261.2,273.1 263.45,272.25 264.15,272.05 267.85,270.8 M226.7,282.35 L228.4,277.9 M259.05,274.55 Q256.7,276.7 255.25,279.65 254.2,281.7 253.1,283.75 251.6,286.7 250.8,289.8 250.55,290.85 250.35,291.95 250.3,292.4 250.3,292.9 250.3,293.1 250.3,293.3 250.85,294.4 252,294.8 253.2,295.2 254.4,294.65 255.55,294.1 256.4,293.15 256.5,293.05 256.65,292.9 258.55,291 260.15,288.9 263.15,285.1 265.9,280.9 266.15,280.25 266.3,279.7 267.35,276.4 268.4,273 L268.4,272.85 Q268.7,271.85 268.65,270.8 M265.9,280.9 Q267.5,278.55 267.85,276.2 268.15,274.6 268.4,273 M265.9,280.9 Q264.85,284.25 264.4,287.85 264.2,289.2 264.65,290.55 265.2,292.3 266.75,292.9 267.15,293.05 267.55,293.15 267.8,293.05 268,292.9 271.55,291.15 274.65,289 278.1,286.55 281.1,284.05 M169.15,322.4 Q171.9,322.7 174.4,322.55 177.7,322.4 180.95,322.35 182.9,322.1 184.85,322 187,321.85 189.2,321.7 192.75,321.35 196.3,321.05 198.85,320.75 201.5,320.55 204.3,320.2 207.1,319.9 210.1,319.65 213.1,319.4 216.3,319.15 219.45,318.95 222.85,318.75 226.2,318.55 229.8,318.4 233.35,318.2 237.15,318.05 240.95,318 242.8,317.95 244.8,317.9 246.8,317.9 248.8,317.9 250.85,317.85 252.95,317.75 255.05,317.75 257.1,317.75 260.35,317.75 263.7,317.75 266.7,317.75 269.65,317.9 272.65,317.9 275.65,317.9 296.85,318 317.95,318 M252.5,540.15 L256.85,400.7 327.2,400.7 323.2,542.55 M171.85,540.55 L176.25,402.7 232.25,402.7 229.5,538.5 M86.35,303.7 Q87.15,300.4 87.95,297.15 88.9,293.15 89.75,289.2 91.6,281.55 95.4,274.7 99.15,267.8 104.7,262.15 108.85,258 113.9,255.6 114.25,263.35 111.75,270.7 110.1,275.6 108.2,280.6 109.4,277.95 110.7,275.3 112.2,272.1 114.4,268.85 115.95,266.35 118,264.45 118.15,264.3 118.35,264.15 119.85,262.85 121.4,261.55 124.25,259.1 127,257.05 129.45,255.1 132.6,255.25 132.55,256.55 132.35,257.8 132.25,258.8 131.95,259.75 131.05,262.75 130.2,265.35 128.65,269.9 127.1,274.1 124.4,281.8 121.7,289.5 120.35,293.65 119.4,298.3 119.1,299.9 118.9,301.55 121.6,300.9 123.75,300.45 126.3,299.65 128.65,298.45 131,297.3 133.3,295.95 132.35,288.35 134.95,283.75 137.5,279.1 139.05,277.3 140.6,275.45 141.75,274.95 142.05,274.75 142.4,274.75 145.6,276.55 145.05,280.2 144.4,283.85 142.4,286.9 140.6,289.85 138.2,291.85 135.75,293.9 133.3,295.95 133.3,298.15 134.15,300.25 134.95,302.15 136.8,302.75 138.2,303.1 139.6,302.25 143,300.5 145.2,297.45 145.5,297.1 145.7,296.7 147,294.85 148.2,292.9 148.4,292.5 148.7,292.05 149.55,290.55 150.55,289.05 L150.6,289 Q151.9,285.05 154.45,281.75 157.15,278.4 161,276.1 162.1,275.6 166.3,275.3 M150.55,289.05 Q149.95,291 149.65,292.9 149.45,294.05 149.4,295.15 149.25,297.3 150.8,298.95 151.55,299.8 152.5,300.5 153.85,301.5 155.3,300.85 156.55,300.45 157.5,299.45 158.8,298.15 159.65,296.5 160.6,294.75 161.4,292.9 161.55,292.45 161.75,292 162.8,289.15 163.65,286.25 164.65,282.9 165.75,279.6 166.25,278 166.95,276.2 167,276.05 167.1,275.9 167,277.1 166.75,278 165.35,282.25 164.6,286.35 164.05,289.65 163.95,292.9 163.9,294.4 164,295.85 165.1,294.4 166.2,292.9 166.55,292.4 166.95,291.95 168.95,289.05 171.1,286.55 172.4,285.05 173.8,283.75 176.45,281.4 179.7,279.6 182.25,276.55 186,275.6 186.1,275.65 187.7,276.35 M179.7,279.6 Q177.45,282.1 175.8,284.65 174.15,287.15 172.8,290.05 172.2,291.5 171.85,292.9 171.8,293.05 171.75,293.25 170.35,300.5 177.2,299.45 178.9,299.2 180.5,298.1 181.55,297.25 182.6,296.45 183.6,295.65 184.2,294.6 184.7,293.8 185.1,292.9 185.2,292.65 185.35,292.3 186.6,288.9 187.35,285.6 L187.55,284.4 Q187.85,281.75 188.15,278.9 188.2,278.05 188.5,277.3 188.65,276.9 188.9,276.7 L188.9,276.8 187.55,284.4 M84.05,339.3 Q86.45,337.15 89,335.65 91.15,334.35 93.45,333.3 96.1,331.85 98.9,330.8 101.8,329.5 104.75,328.4 107.4,327.5 110.05,326.7 113.35,325.7 116.65,325.1 118.35,324.9 120.15,324.7 M164,295.85 Q164,298 163.95,300.15 163.75,303.8 163.45,307.5 163.25,309.3 162.8,311.25 162.05,314.55 161.1,317.9 160.35,320.55 159.5,323.15 158.45,326.8 157,330.15 156.15,332.15 155.2,334.1 153.55,337.45 151.8,340.8 151.15,342.05 150.35,343.2 149.4,344.45 148.35,345.6 145.75,348.15 142.55,349.65 140.2,350.6 137.75,351.2 134.95,351.9 132.15,352.3 129.25,352.25 126.45,351.9 123.85,351.2 121.6,349.85 119.35,348.6 117.4,346.95 114.85,344.75 115.5,341.45 116.15,338.8 118.05,336.65 119.55,334.95 121.1,333.15 122.3,331.8 123.5,330.5 124.6,329.35 125.7,328.45 128.1,326.55 130.3,324.9 133.05,323.05 135.75,321.05 137.4,319.9 139.05,318.75 142.1,316.6 145.15,314.45 145.45,314.25 145.7,314.1 148.1,312.3 150.4,310.4 152.65,308.65 154.8,306.75 157.3,304.5 159.6,301.65 161.95,298.85 164,295.85Z M187.35,285.6 Q186.75,289 186.85,292.55 186.85,292.75 186.9,292.9 187,295.5 188.35,297.65 189.5,298 190.6,297.85 193.65,297 194.2,293.95 194.3,293.45 194.2,292.95 M143.2,323.9 L152.2,323.4 M89.7,537.3 L89.7,401.9 150.85,403.6 150.85,535.1" test="Mall Front"/>
      <g test="Mall Front">
        <path id="Layer2_0_1_STROKES" stroke="#FFF" stroke-width="1.482" stroke-linejoin="round" stroke-linecap="round" fill="none" d="M68.293,385.407 L65.03,385.407 65.488,379.021 352.94,379.324 346.128,385.407"/>
      </g>
      <g test="Mall Front">
        <path id="Layer3_0_1_STROKES" stroke="#FFF" stroke-width="1.482" stroke-linejoin="round" stroke-linecap="round" fill="none" d="M64.114,385.272 L347.044,385.306"/>
      </g>
    </g>
  </g>
</svg>