<?xml version="1.0" encoding="utf-8"?>
<svg id="EdithAnim07" image-rendering="inherit" baseProfile="basic" version="1.1" x="0px" y="0px" width="800" height="600" xmlns="http://www.w3.org/2000/svg" xmlns:xlink="http://www.w3.org/1999/xlink">
  <defs>
    <g id="LinePerspective" overflow="visible">
      <path id="Layer4_0_1_STROKES" stroke="#FFF" stroke-width="2" stroke-linejoin="round" stroke-linecap="round" fill="none" d="M-59.65 54.85L59.7 -54.85" test="LinePerspective"/>
    </g>
  </defs>
  <g id="Need-a-mallf23r1" overflow="visible">
    <g id="MallBackAndSide">
      <g id="MallBack">
        <path id="Layer5_0_1_STROKES" stroke="#FFF" stroke-width="2" stroke-linejoin="round" stroke-linecap="round" fill="none" d="M135.05,182.45 Q140.9,182.15 299.65,182.8 456.65,183.5 459.1,183.15" test="MallBack"/>
      </g>
      <g id="Mall-Back-right">
        <path id="Layer6_0_1_STROKES" stroke="#FFF" stroke-width="2" stroke-linejoin="round" stroke-linecap="round" fill="none" d="M458.45,183.15 L462.6,472.55" test="Mall Back right"/>
      </g>
    </g>
    <use xlink:href="#LinePerspective" transform="matrix(.507 0 0 .664 434.7 509.2)"/>
    <use xlink:href="#LinePerspective" transform="matrix(.508 0 0 .417 427.35 205.5)"/>
    <use xlink:href="#LinePerspective" transform="matrix(.834 0 0 .417 83.2 205.5)"/>
    <g id="Mall-Front">
      <path id="Layer1_0_1_STROKES" stroke="#FFF" stroke-width="2" stroke-linejoin="round" stroke-linecap="round" fill="none" d="M36.65,228.35 Q57.1,226.2 82.6,223.9 133.65,219.3 158.95,218.8 187,218.25 249.9,217.7 307.5,217.2 331.35,217.2 350.25,217.2 374.8,219.8 396.85,222.05 399.7,223.55 401.8,224.65 402.75,271.7 403.6,314.55 402.85,334.75 402.45,345.65 403.65,389.3 404.85,432.65 404.45,442 403.65,461.1 403.65,515.9 403.65,523.45 403.7,535.05 403.55,543.2 402.05,545.3 400.7,547.05 342.45,545.6 339.35,545.55 336.1,545.45 333.85,545.4 331.6,545.35 330.7,545.35 329.85,545.3 257.8,542.95 247.95,542.95 237.3,542.95 156.9,542.15 126.7,541.85 106.95,541.65 74.1,541.35 70,541.35 63.2,541.35 51.3,543.8 41.95,545.7 39.05,544.5 35.8,543.1 35.05,489 34.05,424.05 33.45,417.4 31.85,401.05 33.55,318.1 35.2,238.25 36.65,228.35Z" test="Mall Front"/>
      <path id="Layer1_0_2_STROKES" stroke="#F0F" stroke-width="2" stroke-linejoin="round" stroke-linecap="round" fill="none" d="M290.4,284.05 Q292.6,282.05 294.7,279.95 296.25,278.55 297.5,276.9 299.85,274.1 301.75,270.95 303.4,268.25 304.55,265.35 306.05,261.8 305.1,258 305,257.35 304.8,256.8 303.9,256.85 303,256.95 302.25,257.2 301.55,257.55 300.05,258.7 298.85,260.15 297.4,262 296.3,264.2 294.9,266.95 293.85,269.9 291.4,276.75 290.4,284.05 290.1,287.2 290.25,290.2 290.3,291.65 290.75,292.9 291.45,295 293.2,296.75 293.9,297.5 294.9,298 298.15,299.7 301.55,297.8 304.55,296.05 306.95,293.5 307.25,293.25 307.5,292.9 309.4,290.85 311.1,288.5 311.45,281.8 313.7,275.45 314.95,272 316.6,268.75 317.75,266.5 319.35,264.6 320.75,262.95 322.45,261.6 324.8,259.7 327.75,259.5 327.55,260.8 327.25,262 326.9,263.7 326.45,265.35 325.4,268.75 323.55,271.65 321.5,274.75 319.4,277.6 317.6,280.1 315.75,282.55 313.5,285.6 311.1,288.5 310.9,290.7 311.15,292.9 311.35,294.4 311.8,295.8 312.85,299.5 316.65,300.5 318.5,301 320.45,301.25 323.7,301.6 326.45,299.65 328.4,298.35 330.35,297.05 331.4,296.5 332.1,295.7 333.35,294.35 334.6,292.9 335.05,292.35 335.5,291.8 M216.8,299.95 Q217.55,296.8 218.3,293.7 218.4,293.3 218.5,292.9 219.3,289.55 220.1,286.15 221.8,278.8 225.45,272.25 229.05,265.65 234.35,260.25 238.25,256.3 243.15,254 243.45,261.45 241.1,268.45 239.5,273.1 237.7,277.9 238.8,275.35 240.1,272.8 241.5,269.8 243.6,266.65 245.1,264.3 247.05,262.5 247.2,262.3 247.4,262.15 248.8,260.95 250.3,259.65 253.05,257.35 255.7,255.4 258,253.55 261.05,253.65 261,254.9 260.75,256.1 260.7,257.05 260.4,257.95 259.55,260.85 258.7,263.3 257.25,267.65 255.75,271.65 253.2,279.05 250.6,286.4 249.55,289.55 248.8,292.9 248.6,293.9 248.4,294.85 247.9,297.3 247.8,299.95 249.4,298.2 250.85,296.35 252.3,294.65 253.6,292.9 254.05,292.3 254.45,291.7 256.3,289.15 258.05,286.55 260.2,283.35 262.65,280.25 265.15,277.05 268.35,274.55 270.5,273.1 272.75,272.25 273.45,272.05 277.15,270.8 M236,282.35 L237.7,277.9 M268.35,274.55 Q266,276.7 264.55,279.65 263.5,281.7 262.4,283.75 260.9,286.7 260.1,289.8 259.85,290.85 259.65,291.95 259.6,292.4 259.6,292.9 259.6,293.1 259.6,293.3 260.15,294.4 261.3,294.8 262.5,295.2 263.7,294.65 264.85,294.1 265.7,293.15 265.8,293.05 265.95,292.9 267.85,291 269.45,288.9 272.45,285.1 275.2,280.9 275.45,280.25 275.6,279.7 276.65,276.4 277.7,273 L277.7,272.85 Q278,271.85 277.95,270.8 M275.2,280.9 Q276.8,278.55 277.15,276.2 277.45,274.6 277.7,273 M275.2,280.9 Q274.15,284.25 273.7,287.85 273.5,289.2 273.95,290.55 274.5,292.3 276.05,292.9 276.45,293.05 276.85,293.15 277.1,293.05 277.3,292.9 280.85,291.15 283.95,289 287.4,286.55 290.4,284.05 M178.45,322.4 Q181.2,322.7 183.7,322.55 187,322.4 190.25,322.35 192.2,322.1 194.15,322 196.3,321.85 198.5,321.7 202.05,321.35 205.6,321.05 208.15,320.75 210.8,320.55 213.6,320.2 216.4,319.9 219.4,319.65 222.4,319.4 225.6,319.15 228.75,318.95 232.15,318.75 235.5,318.55 239.1,318.4 242.65,318.2 246.45,318.05 250.25,318 252.1,317.95 254.1,317.9 256.1,317.9 258.1,317.9 260.15,317.85 262.25,317.75 264.35,317.75 266.4,317.75 269.65,317.75 273,317.75 276,317.75 278.95,317.9 281.95,317.9 284.95,317.9 306.15,318 327.25,318 M261.8,540.15 L266.15,400.7 336.5,400.7 332.5,542.55 M181.15,540.55 L185.55,402.7 241.55,402.7 238.8,538.5 M95.65,303.7 Q96.45,300.4 97.25,297.15 98.2,293.15 99.05,289.2 100.9,281.55 104.7,274.7 108.45,267.8 114,262.15 118.15,258 123.2,255.6 123.55,263.35 121.05,270.7 119.4,275.6 117.5,280.6 118.7,277.95 120,275.3 121.5,272.1 123.7,268.85 125.25,266.35 127.3,264.45 127.45,264.3 127.65,264.15 129.15,262.85 130.7,261.55 133.55,259.1 136.3,257.05 138.75,255.1 141.9,255.25 141.85,256.55 141.65,257.8 141.55,258.8 141.25,259.75 140.35,262.75 139.5,265.35 137.95,269.9 136.4,274.1 133.7,281.8 131,289.5 129.65,293.65 128.7,298.3 128.4,299.9 128.2,301.55 130.9,300.9 133.05,300.45 135.6,299.65 137.95,298.45 140.3,297.3 142.6,295.95 141.65,288.35 144.25,283.75 146.8,279.1 148.35,277.3 149.9,275.45 151.05,274.95 151.35,274.75 151.7,274.75 154.9,276.55 154.35,280.2 153.7,283.85 151.7,286.9 149.9,289.85 147.5,291.85 145.05,293.9 142.6,295.95 142.6,298.15 143.45,300.25 144.25,302.15 146.1,302.75 147.5,303.1 148.9,302.25 152.3,300.5 154.5,297.45 154.8,297.1 155,296.7 156.3,294.85 157.5,292.9 157.7,292.5 158,292.05 158.85,290.55 159.85,289.05 L159.9,289 Q161.2,285.05 163.75,281.75 166.45,278.4 170.3,276.1 171.4,275.6 175.6,275.3 M159.85,289.05 Q159.25,291 158.95,292.9 158.75,294.05 158.7,295.15 158.55,297.3 160.1,298.95 160.85,299.8 161.8,300.5 163.15,301.5 164.6,300.85 165.85,300.45 166.8,299.45 168.1,298.15 168.95,296.5 169.9,294.75 170.7,292.9 170.85,292.45 171.05,292 172.1,289.15 172.95,286.25 173.95,282.9 175.05,279.6 175.55,278 176.25,276.2 176.3,276.05 176.4,275.9 176.3,277.1 176.05,278 174.65,282.25 173.9,286.35 173.35,289.65 173.25,292.9 173.2,294.4 173.3,295.85 174.4,294.4 175.5,292.9 175.85,292.4 176.25,291.95 178.25,289.05 180.4,286.55 181.7,285.05 183.1,283.75 185.75,281.4 189,279.6 191.55,276.55 195.3,275.6 195.4,275.65 197,276.35 M189,279.6 Q186.75,282.1 185.1,284.65 183.45,287.15 182.1,290.05 181.5,291.5 181.15,292.9 181.1,293.05 181.05,293.25 179.65,300.5 186.5,299.45 188.2,299.2 189.8,298.1 190.85,297.25 191.9,296.45 192.9,295.65 193.5,294.6 194,293.8 194.4,292.9 194.5,292.65 194.65,292.3 195.9,288.9 196.65,285.6 L196.85,284.4 Q197.15,281.75 197.45,278.9 197.5,278.05 197.8,277.3 197.95,276.9 198.2,276.7 L198.2,276.8 196.85,284.4 M93.35,339.3 Q95.75,337.15 98.3,335.65 100.45,334.35 102.75,333.3 105.4,331.85 108.2,330.8 111.1,329.5 114.05,328.4 116.7,327.5 119.35,326.7 122.65,325.7 125.95,325.1 127.65,324.9 129.45,324.7 M173.3,295.85 Q173.3,298 173.25,300.15 173.05,303.8 172.75,307.5 172.55,309.3 172.1,311.25 171.35,314.55 170.4,317.9 169.65,320.55 168.8,323.15 167.75,326.8 166.3,330.15 165.45,332.15 164.5,334.1 162.85,337.45 161.1,340.8 160.45,342.05 159.65,343.2 158.7,344.45 157.65,345.6 155.05,348.15 151.85,349.65 149.5,350.6 147.05,351.2 144.25,351.9 141.45,352.3 138.55,352.25 135.75,351.9 133.15,351.2 130.9,349.85 128.65,348.6 126.7,346.95 124.15,344.75 124.8,341.45 125.45,338.8 127.35,336.65 128.85,334.95 130.4,333.15 131.6,331.8 132.8,330.5 133.9,329.35 135,328.45 137.4,326.55 139.6,324.9 142.35,323.05 145.05,321.05 146.7,319.9 148.35,318.75 151.4,316.6 154.45,314.45 154.75,314.25 155,314.1 157.4,312.3 159.7,310.4 161.95,308.65 164.1,306.75 166.6,304.5 168.9,301.65 171.25,298.85 173.3,295.85Z M196.65,285.6 Q196.05,289 196.15,292.55 196.15,292.75 196.2,292.9 196.3,295.5 197.65,297.65 198.8,298 199.9,297.85 202.95,297 203.5,293.95 203.6,293.45 203.5,292.95 M152.5,323.9 L161.5,323.4 M99,537.3 L99,401.9 160.15,403.6 160.15,535.1" test="Mall Front"/>
      <g test="Mall Front">
        <path id="Layer2_0_1_STROKES" stroke="#FFF" stroke-width="1.482" stroke-linejoin="round" stroke-linecap="round" fill="none" d="M77.593,385.407 L74.33,385.407 74.788,379.021 362.24,379.324 355.428,385.407"/>
      </g>
      <g test="Mall Front">
        <path id="Layer3_0_1_STROKES" stroke="#FFF" stroke-width="1.482" stroke-linejoin="round" stroke-linecap="round" fill="none" d="M73.414,385.272 L356.344,385.306"/>
      </g>
    </g>
  </g>
</svg>