<?xml version="1.0" encoding="utf-8"?>
<svg id="EdithAnim07" image-rendering="inherit" baseProfile="basic" version="1.1" x="0px" y="0px" width="800" height="600" xmlns="http://www.w3.org/2000/svg" xmlns:xlink="http://www.w3.org/1999/xlink">
  <defs>
    <g id="LinePerspective" overflow="visible">
      <path id="Layer4_0_1_STROKES" stroke="#FFF" stroke-width="2" stroke-linejoin="round" stroke-linecap="round" fill="none" d="M-59.65 54.85L59.7 -54.85" test="LinePerspective"/>
    </g>
  </defs>
  <g id="Need-a-mallf24r1" overflow="visible">
    <g id="MallBackAndSide">
      <g id="MallBack">
        <path id="Layer5_0_1_STROKES" stroke="#FFF" stroke-width="2" stroke-linejoin="round" stroke-linecap="round" fill="none" d="M141.7,182.45 Q147.55,182.15 306.3,182.8 463.3,183.5 465.75,183.15" test="MallBack"/>
      </g>
      <g id="Mall-Back-right">
        <path id="Layer6_0_1_STROKES" stroke="#FFF" stroke-width="2" stroke-linejoin="round" stroke-linecap="round" fill="none" d="M465.1,183.15 L469.25,472.55" test="Mall Back right"/>
      </g>
    </g>
    <use xlink:href="#LinePerspective" transform="matrix(.496 0 0 .664 442 509.15)"/>
    <use xlink:href="#LinePerspective" transform="matrix(.497 0 0 .417 434.65 205.5)"/>
    <use xlink:href="#LinePerspective" transform="matrix(.823 0 0 .417 90.45 205.5)"/>
    <g id="Mall-Front">
      <path id="Layer1_0_1_STROKES" stroke="#FFF" stroke-width="2" stroke-linejoin="round" stroke-linecap="round" fill="none" d="M44.6,228.35 Q65.05,226.2 90.55,223.9 141.6,219.3 166.9,218.8 194.95,218.25 257.85,217.7 315.45,217.2 339.3,217.2 358.2,217.2 382.75,219.8 404.8,222.05 407.65,223.55 409.75,224.65 410.7,271.7 411.55,314.55 410.8,334.75 410.4,345.65 411.6,389.3 412.8,432.65 412.4,442 411.6,461.1 411.6,515.9 411.6,523.45 411.65,535.05 411.5,543.2 410,545.3 408.65,547.05 350.4,545.6 347.3,545.55 344.05,545.45 341.8,545.4 339.55,545.35 338.65,545.35 337.8,545.3 265.75,542.95 255.9,542.95 245.25,542.95 164.85,542.15 134.65,541.85 114.9,541.65 82.05,541.35 77.95,541.35 71.15,541.35 59.25,543.8 49.9,545.7 47,544.5 43.75,543.1 43,489 42,424.05 41.4,417.4 39.8,401.05 41.5,318.1 43.15,238.25 44.6,228.35Z" test="Mall Front"/>
      <path id="Layer1_0_2_STROKES" stroke="#F0F" stroke-width="2" stroke-linejoin="round" stroke-linecap="round" fill="none" d="M298.35,284.05 Q300.55,282.05 302.65,279.95 304.2,278.55 305.45,276.9 307.8,274.1 309.7,270.95 311.35,268.25 312.5,265.35 314,261.8 313.05,258 312.95,257.35 312.75,256.8 311.85,256.85 310.95,256.95 310.2,257.2 309.5,257.55 308,258.7 306.8,260.15 305.35,262 304.25,264.2 302.85,266.95 301.8,269.9 299.35,276.75 298.35,284.05 298.05,287.2 298.2,290.2 298.25,291.65 298.7,292.9 299.4,295 301.15,296.75 301.85,297.5 302.85,298 306.1,299.7 309.5,297.8 312.5,296.05 314.9,293.5 315.2,293.25 315.45,292.9 317.35,290.85 319.05,288.5 319.4,281.8 321.65,275.45 322.9,272 324.55,268.75 325.7,266.5 327.3,264.6 328.7,262.95 330.4,261.6 332.75,259.7 335.7,259.5 335.5,260.8 335.2,262 334.85,263.7 334.4,265.35 333.35,268.75 331.5,271.65 329.45,274.75 327.35,277.6 325.55,280.1 323.7,282.55 321.45,285.6 319.05,288.5 318.85,290.7 319.1,292.9 319.3,294.4 319.75,295.8 320.8,299.5 324.6,300.5 326.45,301 328.4,301.25 331.65,301.6 334.4,299.65 336.35,298.35 338.3,297.05 339.35,296.5 340.05,295.7 341.3,294.35 342.55,292.9 343,292.35 343.45,291.8 M224.75,299.95 Q225.5,296.8 226.25,293.7 226.35,293.3 226.45,292.9 227.25,289.55 228.05,286.15 229.75,278.8 233.4,272.25 237,265.65 242.3,260.25 246.2,256.3 251.1,254 251.4,261.45 249.05,268.45 247.45,273.1 245.65,277.9 246.75,275.35 248.05,272.8 249.45,269.8 251.55,266.65 253.05,264.3 255,262.5 255.15,262.3 255.35,262.15 256.75,260.95 258.25,259.65 261,257.35 263.65,255.4 265.95,253.55 269,253.65 268.95,254.9 268.7,256.1 268.65,257.05 268.35,257.95 267.5,260.85 266.65,263.3 265.2,267.65 263.7,271.65 261.15,279.05 258.55,286.4 257.5,289.55 256.75,292.9 256.55,293.9 256.35,294.85 255.85,297.3 255.75,299.95 257.35,298.2 258.8,296.35 260.25,294.65 261.55,292.9 262,292.3 262.4,291.7 264.25,289.15 266,286.55 268.15,283.35 270.6,280.25 273.1,277.05 276.3,274.55 278.45,273.1 280.7,272.25 281.4,272.05 285.1,270.8 M243.95,282.35 L245.65,277.9 M276.3,274.55 Q273.95,276.7 272.5,279.65 271.45,281.7 270.35,283.75 268.85,286.7 268.05,289.8 267.8,290.85 267.6,291.95 267.55,292.4 267.55,292.9 267.55,293.1 267.55,293.3 268.1,294.4 269.25,294.8 270.45,295.2 271.65,294.65 272.8,294.1 273.65,293.15 273.75,293.05 273.9,292.9 275.8,291 277.4,288.9 280.4,285.1 283.15,280.9 283.4,280.25 283.55,279.7 284.6,276.4 285.65,273 L285.65,272.85 Q285.95,271.85 285.9,270.8 M283.15,280.9 Q284.75,278.55 285.1,276.2 285.4,274.6 285.65,273 M283.15,280.9 Q282.1,284.25 281.65,287.85 281.45,289.2 281.9,290.55 282.45,292.3 284,292.9 284.4,293.05 284.8,293.15 285.05,293.05 285.25,292.9 288.8,291.15 291.9,289 295.35,286.55 298.35,284.05 M186.4,322.4 Q189.15,322.7 191.65,322.55 194.95,322.4 198.2,322.35 200.15,322.1 202.1,322 204.25,321.85 206.45,321.7 210,321.35 213.55,321.05 216.1,320.75 218.75,320.55 221.55,320.2 224.35,319.9 227.35,319.65 230.35,319.4 233.55,319.15 236.7,318.95 240.1,318.75 243.45,318.55 247.05,318.4 250.6,318.2 254.4,318.05 258.2,318 260.05,317.95 262.05,317.9 264.05,317.9 266.05,317.9 268.1,317.85 270.2,317.75 272.3,317.75 274.35,317.75 277.6,317.75 280.95,317.75 283.95,317.75 286.9,317.9 289.9,317.9 292.9,317.9 314.1,318 335.2,318 M269.75,540.15 L274.1,400.7 344.45,400.7 340.45,542.55 M189.1,540.55 L193.5,402.7 249.5,402.7 246.75,538.5 M103.6,303.7 Q104.4,300.4 105.2,297.15 106.15,293.15 107,289.2 108.85,281.55 112.65,274.7 116.4,267.8 121.95,262.15 126.1,258 131.15,255.6 131.5,263.35 129,270.7 127.35,275.6 125.45,280.6 126.65,277.95 127.95,275.3 129.45,272.1 131.65,268.85 133.2,266.35 135.25,264.45 135.4,264.3 135.6,264.15 137.1,262.85 138.65,261.55 141.5,259.1 144.25,257.05 146.7,255.1 149.85,255.25 149.8,256.55 149.6,257.8 149.5,258.8 149.2,259.75 148.3,262.75 147.45,265.35 145.9,269.9 144.35,274.1 141.65,281.8 138.95,289.5 137.6,293.65 136.65,298.3 136.35,299.9 136.15,301.55 138.85,300.9 141,300.45 143.55,299.65 145.9,298.45 148.25,297.3 150.55,295.95 149.6,288.35 152.2,283.75 154.75,279.1 156.3,277.3 157.85,275.45 159,274.95 159.3,274.75 159.65,274.75 162.85,276.55 162.3,280.2 161.65,283.85 159.65,286.9 157.85,289.85 155.45,291.85 153,293.9 150.55,295.95 150.55,298.15 151.4,300.25 152.2,302.15 154.05,302.75 155.45,303.1 156.85,302.25 160.25,300.5 162.45,297.45 162.75,297.1 162.95,296.7 164.25,294.85 165.45,292.9 165.65,292.5 165.95,292.05 166.8,290.55 167.8,289.05 L167.85,289 Q169.15,285.05 171.7,281.75 174.4,278.4 178.25,276.1 179.35,275.6 183.55,275.3 M167.8,289.05 Q167.2,291 166.9,292.9 166.7,294.05 166.65,295.15 166.5,297.3 168.05,298.95 168.8,299.8 169.75,300.5 171.1,301.5 172.55,300.85 173.8,300.45 174.75,299.45 176.05,298.15 176.9,296.5 177.85,294.75 178.65,292.9 178.8,292.45 179,292 180.05,289.15 180.9,286.25 181.9,282.9 183,279.6 183.5,278 184.2,276.2 184.25,276.05 184.35,275.9 184.25,277.1 184,278 182.6,282.25 181.85,286.35 181.3,289.65 181.2,292.9 181.15,294.4 181.25,295.85 182.35,294.4 183.45,292.9 183.8,292.4 184.2,291.95 186.2,289.05 188.35,286.55 189.65,285.05 191.05,283.75 193.7,281.4 196.95,279.6 199.5,276.55 203.25,275.6 203.35,275.65 204.95,276.35 M196.95,279.6 Q194.7,282.1 193.05,284.65 191.4,287.15 190.05,290.05 189.45,291.5 189.1,292.9 189.05,293.05 189,293.25 187.6,300.5 194.45,299.45 196.15,299.2 197.75,298.1 198.8,297.25 199.85,296.45 200.85,295.65 201.45,294.6 201.95,293.8 202.35,292.9 202.45,292.65 202.6,292.3 203.85,288.9 204.6,285.6 L204.8,284.4 Q205.1,281.75 205.4,278.9 205.45,278.05 205.75,277.3 205.9,276.9 206.15,276.7 L206.15,276.8 204.8,284.4 M101.3,339.3 Q103.7,337.15 106.25,335.65 108.4,334.35 110.7,333.3 113.35,331.85 116.15,330.8 119.05,329.5 122,328.4 124.65,327.5 127.3,326.7 130.6,325.7 133.9,325.1 135.6,324.9 137.4,324.7 M181.25,295.85 Q181.25,298 181.2,300.15 181,303.8 180.7,307.5 180.5,309.3 180.05,311.25 179.3,314.55 178.35,317.9 177.6,320.55 176.75,323.15 175.7,326.8 174.25,330.15 173.4,332.15 172.45,334.1 170.8,337.45 169.05,340.8 168.4,342.05 167.6,343.2 166.65,344.45 165.6,345.6 163,348.15 159.8,349.65 157.45,350.6 155,351.2 152.2,351.9 149.4,352.3 146.5,352.25 143.7,351.9 141.1,351.2 138.85,349.85 136.6,348.6 134.65,346.95 132.1,344.75 132.75,341.45 133.4,338.8 135.3,336.65 136.8,334.95 138.35,333.15 139.55,331.8 140.75,330.5 141.85,329.35 142.95,328.45 145.35,326.55 147.55,324.9 150.3,323.05 153,321.05 154.65,319.9 156.3,318.75 159.35,316.6 162.4,314.45 162.7,314.25 162.95,314.1 165.35,312.3 167.65,310.4 169.9,308.65 172.05,306.75 174.55,304.5 176.85,301.65 179.2,298.85 181.25,295.85Z M204.6,285.6 Q204,289 204.1,292.55 204.1,292.75 204.15,292.9 204.25,295.5 205.6,297.65 206.75,298 207.85,297.85 210.9,297 211.45,293.95 211.55,293.45 211.45,292.95 M160.45,323.9 L169.45,323.4 M106.95,537.3 L106.95,401.9 168.1,403.6 168.1,535.1" test="Mall Front"/>
      <g test="Mall Front">
        <path id="Layer2_0_1_STROKES" stroke="#FFF" stroke-width="1.482" stroke-linejoin="round" stroke-linecap="round" fill="none" d="M85.543,385.407 L82.28,385.407 82.738,379.021 370.19,379.324 363.378,385.407"/>
      </g>
      <g test="Mall Front">
        <path id="Layer3_0_1_STROKES" stroke="#FFF" stroke-width="1.482" stroke-linejoin="round" stroke-linecap="round" fill="none" d="M81.364,385.272 L364.294,385.306"/>
      </g>
    </g>
  </g>
</svg>