<?xml version="1.0" encoding="utf-8"?>
<svg id="EdithAnim07" image-rendering="inherit" baseProfile="basic" version="1.1" x="0px" y="0px" width="800" height="600" xmlns="http://www.w3.org/2000/svg" xmlns:xlink="http://www.w3.org/1999/xlink">
  <defs>
    <g id="LinePerspective" overflow="visible">
      <path id="Layer4_0_1_STROKES" stroke="#FFF" stroke-width="2" stroke-linejoin="round" stroke-linecap="round" fill="none" d="M-59.65 54.85L59.7 -54.85" test="LinePerspective"/>
    </g>
  </defs>
  <g id="Need-a-mallf25r1" overflow="visible">
    <g id="MallBackAndSide">
      <g id="MallBack">
        <path id="Layer5_0_1_STROKES" stroke="#FFF" stroke-width="2" stroke-linejoin="round" stroke-linecap="round" fill="none" d="M147.15,182.45 Q153,182.15 311.75,182.8 468.75,183.5 471.2,183.15" test="MallBack"/>
      </g>
      <g id="Mall-Back-right">
        <path id="Layer6_0_1_STROKES" stroke="#FFF" stroke-width="2" stroke-linejoin="round" stroke-linecap="round" fill="none" d="M470.55,183.15 L474.7,472.55" test="Mall Back right"/>
      </g>
    </g>
    <use xlink:href="#LinePerspective" transform="matrix(.488 0 0 .665 448.05 509.1)"/>
    <use xlink:href="#LinePerspective" transform="matrix(.488 0 0 .417 440.7 205.5)"/>
    <use xlink:href="#LinePerspective" transform="matrix(.814 0 0 .417 96.5 205.5)"/>
    <g id="Mall-Front">
      <path id="Layer1_0_1_STROKES" stroke="#FFF" stroke-width="2" stroke-linejoin="round" stroke-linecap="round" fill="none" d="M51.15,228.35 Q71.6,226.2 97.1,223.9 148.15,219.3 173.45,218.8 201.5,218.25 264.4,217.7 322,217.2 345.85,217.2 364.75,217.2 389.3,219.8 411.35,222.05 414.2,223.55 416.3,224.65 417.25,271.7 418.1,314.55 417.35,334.75 416.95,345.65 418.15,389.3 419.35,432.65 418.95,442 418.15,461.1 418.15,515.9 418.15,523.45 418.2,535.05 418.05,543.2 416.55,545.3 415.2,547.05 356.95,545.6 353.85,545.55 350.6,545.45 348.35,545.4 346.1,545.35 345.2,545.35 344.35,545.3 272.3,542.95 262.45,542.95 251.8,542.95 171.4,542.15 141.2,541.85 121.45,541.65 88.6,541.35 84.5,541.35 77.7,541.35 65.8,543.8 56.45,545.7 53.55,544.5 50.3,543.1 49.55,489 48.55,424.05 47.95,417.4 46.35,401.05 48.05,318.1 49.7,238.25 51.15,228.35Z" test="Mall Front"/>
      <path id="Layer1_0_2_STROKES" stroke="#F0F" stroke-width="2" stroke-linejoin="round" stroke-linecap="round" fill="none" d="M304.9,284.05 Q307.1,282.05 309.2,279.95 310.75,278.55 312,276.9 314.35,274.1 316.25,270.95 317.9,268.25 319.05,265.35 320.55,261.8 319.6,258 319.5,257.35 319.3,256.8 318.4,256.85 317.5,256.95 316.75,257.2 316.05,257.55 314.55,258.7 313.35,260.15 311.9,262 310.8,264.2 309.4,266.95 308.35,269.9 305.9,276.75 304.9,284.05 304.6,287.2 304.75,290.2 304.8,291.65 305.25,292.9 305.95,295 307.7,296.75 308.4,297.5 309.4,298 312.65,299.7 316.05,297.8 319.05,296.05 321.45,293.5 321.75,293.25 322,292.9 323.9,290.85 325.6,288.5 325.95,281.8 328.2,275.45 329.45,272 331.1,268.75 332.25,266.5 333.85,264.6 335.25,262.95 336.95,261.6 339.3,259.7 342.25,259.5 342.05,260.8 341.75,262 341.4,263.7 340.95,265.35 339.9,268.75 338.05,271.65 336,274.75 333.9,277.6 332.1,280.1 330.25,282.55 328,285.6 325.6,288.5 325.4,290.7 325.65,292.9 325.85,294.4 326.3,295.8 327.35,299.5 331.15,300.5 333,301 334.95,301.25 338.2,301.6 340.95,299.65 342.9,298.35 344.85,297.05 345.9,296.5 346.6,295.7 347.85,294.35 349.1,292.9 349.55,292.35 350,291.8 M231.3,299.95 Q232.05,296.8 232.8,293.7 232.9,293.3 233,292.9 233.8,289.55 234.6,286.15 236.3,278.8 239.95,272.25 243.55,265.65 248.85,260.25 252.75,256.3 257.65,254 257.95,261.45 255.6,268.45 254,273.1 252.2,277.9 253.3,275.35 254.6,272.8 256,269.8 258.1,266.65 259.6,264.3 261.55,262.5 261.7,262.3 261.9,262.15 263.3,260.95 264.8,259.65 267.55,257.35 270.2,255.4 272.5,253.55 275.55,253.65 275.5,254.9 275.25,256.1 275.2,257.05 274.9,257.95 274.05,260.85 273.2,263.3 271.75,267.65 270.25,271.65 267.7,279.05 265.1,286.4 264.05,289.55 263.3,292.9 263.1,293.9 262.9,294.85 262.4,297.3 262.3,299.95 263.9,298.2 265.35,296.35 266.8,294.65 268.1,292.9 268.55,292.3 268.95,291.7 270.8,289.15 272.55,286.55 274.7,283.35 277.15,280.25 279.65,277.05 282.85,274.55 285,273.1 287.25,272.25 287.95,272.05 291.65,270.8 M250.5,282.35 L252.2,277.9 M282.85,274.55 Q280.5,276.7 279.05,279.65 278,281.7 276.9,283.75 275.4,286.7 274.6,289.8 274.35,290.85 274.15,291.95 274.1,292.4 274.1,292.9 274.1,293.1 274.1,293.3 274.65,294.4 275.8,294.8 277,295.2 278.2,294.65 279.35,294.1 280.2,293.15 280.3,293.05 280.45,292.9 282.35,291 283.95,288.9 286.95,285.1 289.7,280.9 289.95,280.25 290.1,279.7 291.15,276.4 292.2,273 L292.2,272.85 Q292.5,271.85 292.45,270.8 M289.7,280.9 Q291.3,278.55 291.65,276.2 291.95,274.6 292.2,273 M289.7,280.9 Q288.65,284.25 288.2,287.85 288,289.2 288.45,290.55 289,292.3 290.55,292.9 290.95,293.05 291.35,293.15 291.6,293.05 291.8,292.9 295.35,291.15 298.45,289 301.9,286.55 304.9,284.05 M192.95,322.4 Q195.7,322.7 198.2,322.55 201.5,322.4 204.75,322.35 206.7,322.1 208.65,322 210.8,321.85 213,321.7 216.55,321.35 220.1,321.05 222.65,320.75 225.3,320.55 228.1,320.2 230.9,319.9 233.9,319.65 236.9,319.4 240.1,319.15 243.25,318.95 246.65,318.75 250,318.55 253.6,318.4 257.15,318.2 260.95,318.05 264.75,318 266.6,317.95 268.6,317.9 270.6,317.9 272.6,317.9 274.65,317.85 276.75,317.75 278.85,317.75 280.9,317.75 284.15,317.75 287.5,317.75 290.5,317.75 293.45,317.9 296.45,317.9 299.45,317.9 320.65,318 341.75,318 M276.3,540.15 L280.65,400.7 351,400.7 347,542.55 M195.65,540.55 L200.05,402.7 256.05,402.7 253.3,538.5 M110.15,303.7 Q110.95,300.4 111.75,297.15 112.7,293.15 113.55,289.2 115.4,281.55 119.2,274.7 122.95,267.8 128.5,262.15 132.65,258 137.7,255.6 138.05,263.35 135.55,270.7 133.9,275.6 132,280.6 133.2,277.95 134.5,275.3 136,272.1 138.2,268.85 139.75,266.35 141.8,264.45 141.95,264.3 142.15,264.15 143.65,262.85 145.2,261.55 148.05,259.1 150.8,257.05 153.25,255.1 156.4,255.25 156.35,256.55 156.15,257.8 156.05,258.8 155.75,259.75 154.85,262.75 154,265.35 152.45,269.9 150.9,274.1 148.2,281.8 145.5,289.5 144.15,293.65 143.2,298.3 142.9,299.9 142.7,301.55 145.4,300.9 147.55,300.45 150.1,299.65 152.45,298.45 154.8,297.3 157.1,295.95 156.15,288.35 158.75,283.75 161.3,279.1 162.85,277.3 164.4,275.45 165.55,274.95 165.85,274.75 166.2,274.75 169.4,276.55 168.85,280.2 168.2,283.85 166.2,286.9 164.4,289.85 162,291.85 159.55,293.9 157.1,295.95 157.1,298.15 157.95,300.25 158.75,302.15 160.6,302.75 162,303.1 163.4,302.25 166.8,300.5 169,297.45 169.3,297.1 169.5,296.7 170.8,294.85 172,292.9 172.2,292.5 172.5,292.05 173.35,290.55 174.35,289.05 L174.4,289 Q175.7,285.05 178.25,281.75 180.95,278.4 184.8,276.1 185.9,275.6 190.1,275.3 M174.35,289.05 Q173.75,291 173.45,292.9 173.25,294.05 173.2,295.15 173.05,297.3 174.6,298.95 175.35,299.8 176.3,300.5 177.65,301.5 179.1,300.85 180.35,300.45 181.3,299.45 182.6,298.15 183.45,296.5 184.4,294.75 185.2,292.9 185.35,292.45 185.55,292 186.6,289.15 187.45,286.25 188.45,282.9 189.55,279.6 190.05,278 190.75,276.2 190.8,276.05 190.9,275.9 190.8,277.1 190.55,278 189.15,282.25 188.4,286.35 187.85,289.65 187.75,292.9 187.7,294.4 187.8,295.85 188.9,294.4 190,292.9 190.35,292.4 190.75,291.95 192.75,289.05 194.9,286.55 196.2,285.05 197.6,283.75 200.25,281.4 203.5,279.6 206.05,276.55 209.8,275.6 209.9,275.65 211.5,276.35 M203.5,279.6 Q201.25,282.1 199.6,284.65 197.95,287.15 196.6,290.05 196,291.5 195.65,292.9 195.6,293.05 195.55,293.25 194.15,300.5 201,299.45 202.7,299.2 204.3,298.1 205.35,297.25 206.4,296.45 207.4,295.65 208,294.6 208.5,293.8 208.9,292.9 209,292.65 209.15,292.3 210.4,288.9 211.15,285.6 L211.35,284.4 Q211.65,281.75 211.95,278.9 212,278.05 212.3,277.3 212.45,276.9 212.7,276.7 L212.7,276.8 211.35,284.4 M107.85,339.3 Q110.25,337.15 112.8,335.65 114.95,334.35 117.25,333.3 119.9,331.85 122.7,330.8 125.6,329.5 128.55,328.4 131.2,327.5 133.85,326.7 137.15,325.7 140.45,325.1 142.15,324.9 143.95,324.7 M187.8,295.85 Q187.8,298 187.75,300.15 187.55,303.8 187.25,307.5 187.05,309.3 186.6,311.25 185.85,314.55 184.9,317.9 184.15,320.55 183.3,323.15 182.25,326.8 180.8,330.15 179.95,332.15 179,334.1 177.35,337.45 175.6,340.8 174.95,342.05 174.15,343.2 173.2,344.45 172.15,345.6 169.55,348.15 166.35,349.65 164,350.6 161.55,351.2 158.75,351.9 155.95,352.3 153.05,352.25 150.25,351.9 147.65,351.2 145.4,349.85 143.15,348.6 141.2,346.95 138.65,344.75 139.3,341.45 139.95,338.8 141.85,336.65 143.35,334.95 144.9,333.15 146.1,331.8 147.3,330.5 148.4,329.35 149.5,328.45 151.9,326.55 154.1,324.9 156.85,323.05 159.55,321.05 161.2,319.9 162.85,318.75 165.9,316.6 168.95,314.45 169.25,314.25 169.5,314.1 171.9,312.3 174.2,310.4 176.45,308.65 178.6,306.75 181.1,304.5 183.4,301.65 185.75,298.85 187.8,295.85Z M211.15,285.6 Q210.55,289 210.65,292.55 210.65,292.75 210.7,292.9 210.8,295.5 212.15,297.65 213.3,298 214.4,297.85 217.45,297 218,293.95 218.1,293.45 218,292.95 M167,323.9 L176,323.4 M113.5,537.3 L113.5,401.9 174.65,403.6 174.65,535.1" test="Mall Front"/>
      <g test="Mall Front">
        <path id="Layer2_0_1_STROKES" stroke="#FFF" stroke-width="1.482" stroke-linejoin="round" stroke-linecap="round" fill="none" d="M92.093,385.407 L88.83,385.407 89.288,379.021 376.74,379.324 369.928,385.407"/>
      </g>
      <g test="Mall Front">
        <path id="Layer3_0_1_STROKES" stroke="#FFF" stroke-width="1.482" stroke-linejoin="round" stroke-linecap="round" fill="none" d="M87.914,385.272 L370.844,385.306"/>
      </g>
    </g>
  </g>
</svg>