<?xml version="1.0" encoding="utf-8"?>
<svg id="EdithAnim07" image-rendering="inherit" baseProfile="basic" version="1.1" x="0px" y="0px" width="800" height="600" xmlns="http://www.w3.org/2000/svg" xmlns:xlink="http://www.w3.org/1999/xlink">
  <defs>
    <g id="LinePerspective" overflow="visible">
      <path id="Layer4_0_1_STROKES" stroke="#FFF" stroke-width="2" stroke-linejoin="round" stroke-linecap="round" fill="none" d="M-59.65 54.85L59.7 -54.85" test="LinePerspective"/>
    </g>
  </defs>
  <g id="Need-a-mallf27r1" overflow="visible">
    <g id="MallBackAndSide">
      <g id="MallBack">
        <path id="Layer5_0_1_STROKES" stroke="#FFF" stroke-width="2" stroke-linejoin="round" stroke-linecap="round" fill="none" d="M154.7,182.45 Q160.55,182.15 319.3,182.8 476.3,183.5 478.75,183.15" test="MallBack"/>
      </g>
      <g id="Mall-Back-right">
        <path id="Layer6_0_1_STROKES" stroke="#FFF" stroke-width="2" stroke-linejoin="round" stroke-linecap="round" fill="none" d="M478.1,183.15 L482.25,472.55" test="Mall Back right"/>
      </g>
    </g>
    <use xlink:href="#LinePerspective" transform="matrix(.475 0 0 .666 456.35 509.05)"/>
    <use xlink:href="#LinePerspective" transform="matrix(.475 0 0 .418 449 205.45)"/>
    <use xlink:href="#LinePerspective" transform="matrix(.801 0 0 .418 104.8 205.45)"/>
    <g id="Mall-Front">
      <path id="Layer1_0_1_STROKES" stroke="#FFF" stroke-width="2" stroke-linejoin="round" stroke-linecap="round" fill="none" d="M60.2,228.35 Q80.65,226.2 106.15,223.9 157.2,219.3 182.5,218.8 210.55,218.25 273.45,217.7 331.05,217.2 354.9,217.2 373.8,217.2 398.35,219.8 420.4,222.05 423.25,223.55 425.35,224.65 426.3,271.7 427.15,314.55 426.4,334.75 426,345.65 427.2,389.3 428.4,432.65 428,442 427.2,461.1 427.2,515.9 427.2,523.45 427.25,535.05 427.1,543.2 425.6,545.3 424.25,547.05 366,545.6 362.9,545.55 359.65,545.45 357.4,545.4 355.15,545.35 354.25,545.35 353.4,545.3 281.35,542.95 271.5,542.95 260.85,542.95 180.45,542.15 150.25,541.85 130.5,541.65 97.65,541.35 93.55,541.35 86.75,541.35 74.85,543.8 65.5,545.7 62.6,544.5 59.35,543.1 58.6,489 57.6,424.05 57,417.4 55.4,401.05 57.1,318.1 58.75,238.25 60.2,228.35Z" test="Mall Front"/>
      <path id="Layer1_0_2_STROKES" stroke="#F0F" stroke-width="2" stroke-linejoin="round" stroke-linecap="round" fill="none" d="M313.95,284.05 Q316.15,282.05 318.25,279.95 319.8,278.55 321.05,276.9 323.4,274.1 325.3,270.95 326.95,268.25 328.1,265.35 329.6,261.8 328.65,258 328.55,257.35 328.35,256.8 327.45,256.85 326.55,256.95 325.8,257.2 325.1,257.55 323.6,258.7 322.4,260.15 320.95,262 319.85,264.2 318.45,266.95 317.4,269.9 314.95,276.75 313.95,284.05 313.65,287.2 313.8,290.2 313.85,291.65 314.3,292.9 315,295 316.75,296.75 317.45,297.5 318.45,298 321.7,299.7 325.1,297.8 328.1,296.05 330.5,293.5 330.8,293.25 331.05,292.9 332.95,290.85 334.65,288.5 335,281.8 337.25,275.45 338.5,272 340.15,268.75 341.3,266.5 342.9,264.6 344.3,262.95 346,261.6 348.35,259.7 351.3,259.5 351.1,260.8 350.8,262 350.45,263.7 350,265.35 348.95,268.75 347.1,271.65 345.05,274.75 342.95,277.6 341.15,280.1 339.3,282.55 337.05,285.6 334.65,288.5 334.45,290.7 334.7,292.9 334.9,294.4 335.35,295.8 336.4,299.5 340.2,300.5 342.05,301 344,301.25 347.25,301.6 350,299.65 351.95,298.35 353.9,297.05 354.95,296.5 355.65,295.7 356.9,294.35 358.15,292.9 358.6,292.35 359.05,291.8 M240.35,299.95 Q241.1,296.8 241.85,293.7 241.95,293.3 242.05,292.9 242.85,289.55 243.65,286.15 245.35,278.8 249,272.25 252.6,265.65 257.9,260.25 261.8,256.3 266.7,254 267,261.45 264.65,268.45 263.05,273.1 261.25,277.9 262.35,275.35 263.65,272.8 265.05,269.8 267.15,266.65 268.65,264.3 270.6,262.5 270.75,262.3 270.95,262.15 272.35,260.95 273.85,259.65 276.6,257.35 279.25,255.4 281.55,253.55 284.6,253.65 284.55,254.9 284.3,256.1 284.25,257.05 283.95,257.95 283.1,260.85 282.25,263.3 280.8,267.65 279.3,271.65 276.75,279.05 274.15,286.4 273.1,289.55 272.35,292.9 272.15,293.9 271.95,294.85 271.45,297.3 271.35,299.95 272.95,298.2 274.4,296.35 275.85,294.65 277.15,292.9 277.6,292.3 278,291.7 279.85,289.15 281.6,286.55 283.75,283.35 286.2,280.25 288.7,277.05 291.9,274.55 294.05,273.1 296.3,272.25 297,272.05 300.7,270.8 M259.55,282.35 L261.25,277.9 M291.9,274.55 Q289.55,276.7 288.1,279.65 287.05,281.7 285.95,283.75 284.45,286.7 283.65,289.8 283.4,290.85 283.2,291.95 283.15,292.4 283.15,292.9 283.15,293.1 283.15,293.3 283.7,294.4 284.85,294.8 286.05,295.2 287.25,294.65 288.4,294.1 289.25,293.15 289.35,293.05 289.5,292.9 291.4,291 293,288.9 296,285.1 298.75,280.9 299,280.25 299.15,279.7 300.2,276.4 301.25,273 L301.25,272.85 Q301.55,271.85 301.5,270.8 M298.75,280.9 Q300.35,278.55 300.7,276.2 301,274.6 301.25,273 M298.75,280.9 Q297.7,284.25 297.25,287.85 297.05,289.2 297.5,290.55 298.05,292.3 299.6,292.9 300,293.05 300.4,293.15 300.65,293.05 300.85,292.9 304.4,291.15 307.5,289 310.95,286.55 313.95,284.05 M202,322.4 Q204.75,322.7 207.25,322.55 210.55,322.4 213.8,322.35 215.75,322.1 217.7,322 219.85,321.85 222.05,321.7 225.6,321.35 229.15,321.05 231.7,320.75 234.35,320.55 237.15,320.2 239.95,319.9 242.95,319.65 245.95,319.4 249.15,319.15 252.3,318.95 255.7,318.75 259.05,318.55 262.65,318.4 266.2,318.2 270,318.05 273.8,318 275.65,317.95 277.65,317.9 279.65,317.9 281.65,317.9 283.7,317.85 285.8,317.75 287.9,317.75 289.95,317.75 293.2,317.75 296.55,317.75 299.55,317.75 302.5,317.9 305.5,317.9 308.5,317.9 329.7,318 350.8,318 M285.35,540.15 L289.7,400.7 360.05,400.7 356.05,542.55 M204.7,540.55 L209.1,402.7 265.1,402.7 262.35,538.5 M119.2,303.7 Q120,300.4 120.8,297.15 121.75,293.15 122.6,289.2 124.45,281.55 128.25,274.7 132,267.8 137.55,262.15 141.7,258 146.75,255.6 147.1,263.35 144.6,270.7 142.95,275.6 141.05,280.6 142.25,277.95 143.55,275.3 145.05,272.1 147.25,268.85 148.8,266.35 150.85,264.45 151,264.3 151.2,264.15 152.7,262.85 154.25,261.55 157.1,259.1 159.85,257.05 162.3,255.1 165.45,255.25 165.4,256.55 165.2,257.8 165.1,258.8 164.8,259.75 163.9,262.75 163.05,265.35 161.5,269.9 159.95,274.1 157.25,281.8 154.55,289.5 153.2,293.65 152.25,298.3 151.95,299.9 151.75,301.55 154.45,300.9 156.6,300.45 159.15,299.65 161.5,298.45 163.85,297.3 166.15,295.95 165.2,288.35 167.8,283.75 170.35,279.1 171.9,277.3 173.45,275.45 174.6,274.95 174.9,274.75 175.25,274.75 178.45,276.55 177.9,280.2 177.25,283.85 175.25,286.9 173.45,289.85 171.05,291.85 168.6,293.9 166.15,295.95 166.15,298.15 167,300.25 167.8,302.15 169.65,302.75 171.05,303.1 172.45,302.25 175.85,300.5 178.05,297.45 178.35,297.1 178.55,296.7 179.85,294.85 181.05,292.9 181.25,292.5 181.55,292.05 182.4,290.55 183.4,289.05 L183.45,289 Q184.75,285.05 187.3,281.75 190,278.4 193.85,276.1 194.95,275.6 199.15,275.3 M183.4,289.05 Q182.8,291 182.5,292.9 182.3,294.05 182.25,295.15 182.1,297.3 183.65,298.95 184.4,299.8 185.35,300.5 186.7,301.5 188.15,300.85 189.4,300.45 190.35,299.45 191.65,298.15 192.5,296.5 193.45,294.75 194.25,292.9 194.4,292.45 194.6,292 195.65,289.15 196.5,286.25 197.5,282.9 198.6,279.6 199.1,278 199.8,276.2 199.85,276.05 199.95,275.9 199.85,277.1 199.6,278 198.2,282.25 197.45,286.35 196.9,289.65 196.8,292.9 196.75,294.4 196.85,295.85 197.95,294.4 199.05,292.9 199.4,292.4 199.8,291.95 201.8,289.05 203.95,286.55 205.25,285.05 206.65,283.75 209.3,281.4 212.55,279.6 215.1,276.55 218.85,275.6 218.95,275.65 220.55,276.35 M212.55,279.6 Q210.3,282.1 208.65,284.65 207,287.15 205.65,290.05 205.05,291.5 204.7,292.9 204.65,293.05 204.6,293.25 203.2,300.5 210.05,299.45 211.75,299.2 213.35,298.1 214.4,297.25 215.45,296.45 216.45,295.65 217.05,294.6 217.55,293.8 217.95,292.9 218.05,292.65 218.2,292.3 219.45,288.9 220.2,285.6 L220.4,284.4 Q220.7,281.75 221,278.9 221.05,278.05 221.35,277.3 221.5,276.9 221.75,276.7 L221.75,276.8 220.4,284.4 M116.9,339.3 Q119.3,337.15 121.85,335.65 124,334.35 126.3,333.3 128.95,331.85 131.75,330.8 134.65,329.5 137.6,328.4 140.25,327.5 142.9,326.7 146.2,325.7 149.5,325.1 151.2,324.9 153,324.7 M196.85,295.85 Q196.85,298 196.8,300.15 196.6,303.8 196.3,307.5 196.1,309.3 195.65,311.25 194.9,314.55 193.95,317.9 193.2,320.55 192.35,323.15 191.3,326.8 189.85,330.15 189,332.15 188.05,334.1 186.4,337.45 184.65,340.8 184,342.05 183.2,343.2 182.25,344.45 181.2,345.6 178.6,348.15 175.4,349.65 173.05,350.6 170.6,351.2 167.8,351.9 165,352.3 162.1,352.25 159.3,351.9 156.7,351.2 154.45,349.85 152.2,348.6 150.25,346.95 147.7,344.75 148.35,341.45 149,338.8 150.9,336.65 152.4,334.95 153.95,333.15 155.15,331.8 156.35,330.5 157.45,329.35 158.55,328.45 160.95,326.55 163.15,324.9 165.9,323.05 168.6,321.05 170.25,319.9 171.9,318.75 174.95,316.6 178,314.45 178.3,314.25 178.55,314.1 180.95,312.3 183.25,310.4 185.5,308.65 187.65,306.75 190.15,304.5 192.45,301.65 194.8,298.85 196.85,295.85Z M220.2,285.6 Q219.6,289 219.7,292.55 219.7,292.75 219.75,292.9 219.85,295.5 221.2,297.65 222.35,298 223.45,297.85 226.5,297 227.05,293.95 227.15,293.45 227.05,292.95 M176.05,323.9 L185.05,323.4 M122.55,537.3 L122.55,401.9 183.7,403.6 183.7,535.1" test="Mall Front"/>
      <g test="Mall Front">
        <path id="Layer2_0_1_STROKES" stroke="#FFF" stroke-width="1.482" stroke-linejoin="round" stroke-linecap="round" fill="none" d="M101.143,385.407 L97.88,385.407 98.338,379.021 385.79,379.324 378.978,385.407"/>
      </g>
      <g test="Mall Front">
        <path id="Layer3_0_1_STROKES" stroke="#FFF" stroke-width="1.482" stroke-linejoin="round" stroke-linecap="round" fill="none" d="M96.964,385.272 L379.894,385.306"/>
      </g>
    </g>
  </g>
</svg>