<?xml version="1.0" encoding="utf-8"?>
<svg id="EdithAnim07" image-rendering="inherit" baseProfile="basic" version="1.1" x="0px" y="0px" width="800" height="600" xmlns="http://www.w3.org/2000/svg" xmlns:xlink="http://www.w3.org/1999/xlink">
  <defs>
    <g id="LinePerspective" overflow="visible">
      <path id="Layer4_0_1_STROKES" stroke="#FFF" stroke-width="2" stroke-linejoin="round" stroke-linecap="round" fill="none" d="M-59.65 54.85L59.7 -54.85" test="LinePerspective"/>
    </g>
  </defs>
  <g id="Need-a-mallf3r1" overflow="visible">
    <g id="MallBackAndSide">
      <g id="MallBack">
        <path id="Layer5_0_1_STROKES" stroke="#FFF" stroke-width="2" stroke-linejoin="round" stroke-linecap="round" fill="none" d="M-237.1,182.45 Q-231.25,182.15 -72.5,182.8 84.5,183.5 86.95,183.15" test="MallBack"/>
      </g>
      <g id="Mall-Back-right">
        <path id="Layer6_0_1_STROKES" stroke="#FFF" stroke-width="2" stroke-linejoin="round" stroke-linecap="round" fill="none" d="M86.3,183.15 L90.45,472.55" test="Mall Back right"/>
      </g>
    </g>
    <use xlink:href="#LinePerspective" transform="matrix(1.115 0 0 .62 24.3 511.6)"/>
    <use xlink:href="#LinePerspective" transform="matrix(1.121 0 0 .397 17.35 206.6)"/>
    <use xlink:href="#LinePerspective" transform="matrix(1.452 0 0 .397 -326.6 206.6)"/>
    <g id="Mall-Front">
      <path id="Layer1_0_1_STROKES" stroke="#FFF" stroke-width="2" stroke-linejoin="round" stroke-linecap="round" fill="none" d="M-409.95,228.35 Q-389.5,226.2 -364,223.9 -312.95,219.3 -287.65,218.8 -259.6,218.25 -196.7,217.7 -139.1,217.2 -115.25,217.2 -96.35,217.2 -71.8,219.8 -49.75,222.05 -46.9,223.55 -44.8,224.65 -43.85,271.7 -43,314.55 -43.75,334.75 -44.15,345.65 -42.95,389.3 -41.75,432.65 -42.15,442 -42.95,461.1 -42.95,515.9 -42.95,523.45 -42.9,535.05 -43.05,543.2 -44.55,545.3 -45.9,547.05 -104.15,545.6 -107.25,545.55 -110.5,545.45 -112.75,545.4 -115,545.35 -115.9,545.35 -116.75,545.3 -188.8,542.95 -198.65,542.95 -209.3,542.95 -289.7,542.15 -319.9,541.85 -339.65,541.65 -372.5,541.35 -376.6,541.35 -383.4,541.35 -395.3,543.8 -404.65,545.7 -407.55,544.5 -410.8,543.1 -411.55,489 -412.55,424.05 -413.15,417.4 -414.75,401.05 -413.05,318.1 -411.4,238.25 -409.95,228.35Z" test="Mall Front"/>
      <path id="Layer1_0_2_STROKES" stroke="#F0F" stroke-width="2" stroke-linejoin="round" stroke-linecap="round" fill="none" d="M-156.2,284.05 Q-154,282.05 -151.9,279.95 -150.35,278.55 -149.1,276.9 -146.75,274.1 -144.85,270.95 -143.2,268.25 -142.05,265.35 -140.55,261.8 -141.5,258 -141.6,257.35 -141.8,256.8 -142.7,256.85 -143.6,256.95 -144.35,257.2 -145.05,257.55 -146.55,258.7 -147.75,260.15 -149.2,262 -150.3,264.2 -151.7,266.95 -152.75,269.9 -155.2,276.75 -156.2,284.05 -156.5,287.2 -156.35,290.2 -156.3,291.65 -155.85,292.9 -155.15,295 -153.4,296.75 -152.7,297.5 -151.7,298 -148.45,299.7 -145.05,297.8 -142.05,296.05 -139.65,293.5 -139.35,293.25 -139.1,292.9 -137.2,290.85 -135.5,288.5 -135.15,281.8 -132.9,275.45 -131.65,272 -130,268.75 -128.85,266.5 -127.25,264.6 -125.85,262.95 -124.15,261.6 -121.8,259.7 -118.85,259.5 -119.05,260.8 -119.35,262 -119.7,263.7 -120.15,265.35 -121.2,268.75 -123.05,271.65 -125.1,274.75 -127.2,277.6 -129,280.1 -130.85,282.55 -133.1,285.6 -135.5,288.5 -135.7,290.7 -135.45,292.9 -135.25,294.4 -134.8,295.8 -133.75,299.5 -129.95,300.5 -128.1,301 -126.15,301.25 -122.9,301.6 -120.15,299.65 -118.2,298.35 -116.25,297.05 -115.2,296.5 -114.5,295.7 -113.25,294.35 -112,292.9 -111.55,292.35 -111.1,291.8 M-229.8,299.95 Q-229.05,296.8 -228.3,293.7 -228.2,293.3 -228.1,292.9 -227.3,289.55 -226.5,286.15 -224.8,278.8 -221.15,272.25 -217.55,265.65 -212.25,260.25 -208.35,256.3 -203.45,254 -203.15,261.45 -205.5,268.45 -207.1,273.1 -208.9,277.9 -207.8,275.35 -206.5,272.8 -205.1,269.8 -203,266.65 -201.5,264.3 -199.55,262.5 -199.4,262.3 -199.2,262.15 -197.8,260.95 -196.3,259.65 -193.55,257.35 -190.9,255.4 -188.6,253.55 -185.55,253.65 -185.6,254.9 -185.85,256.1 -185.9,257.05 -186.2,257.95 -187.05,260.85 -187.9,263.3 -189.35,267.65 -190.85,271.65 -193.4,279.05 -196,286.4 -197.05,289.55 -197.8,292.9 -198,293.9 -198.2,294.85 -198.7,297.3 -198.8,299.95 -197.2,298.2 -195.75,296.35 -194.3,294.65 -193,292.9 -192.55,292.3 -192.15,291.7 -190.3,289.15 -188.55,286.55 -186.4,283.35 -183.95,280.25 -181.45,277.05 -178.25,274.55 -176.1,273.1 -173.85,272.25 -173.15,272.05 -169.45,270.8 M-210.6,282.35 L-208.9,277.9 M-178.25,274.55 Q-180.6,276.7 -182.05,279.65 -183.1,281.7 -184.2,283.75 -185.7,286.7 -186.5,289.8 -186.75,290.85 -186.95,291.95 -187,292.4 -187,292.9 -187,293.1 -187,293.3 -186.45,294.4 -185.3,294.8 -184.1,295.2 -182.9,294.65 -181.75,294.1 -180.9,293.15 -180.8,293.05 -180.65,292.9 -178.75,291 -177.15,288.9 -174.15,285.1 -171.4,280.9 -171.15,280.25 -171,279.7 -169.95,276.4 -168.9,273 L-168.9,272.85 Q-168.6,271.85 -168.65,270.8 M-171.4,280.9 Q-169.8,278.55 -169.45,276.2 -169.15,274.6 -168.9,273 M-171.4,280.9 Q-172.45,284.25 -172.9,287.85 -173.1,289.2 -172.65,290.55 -172.1,292.3 -170.55,292.9 -170.15,293.05 -169.75,293.15 -169.5,293.05 -169.3,292.9 -165.75,291.15 -162.65,289 -159.2,286.55 -156.2,284.05 M-268.15,322.4 Q-265.4,322.7 -262.9,322.55 -259.6,322.4 -256.35,322.35 -254.4,322.1 -252.45,322 -250.3,321.85 -248.1,321.7 -244.55,321.35 -241,321.05 -238.45,320.75 -235.8,320.55 -233,320.2 -230.2,319.9 -227.2,319.65 -224.2,319.4 -221,319.15 -217.85,318.95 -214.45,318.75 -211.1,318.55 -207.5,318.4 -203.95,318.2 -200.15,318.05 -196.35,318 -194.5,317.95 -192.5,317.9 -190.5,317.9 -188.5,317.9 -186.45,317.85 -184.35,317.75 -182.25,317.75 -180.2,317.75 -176.95,317.75 -173.6,317.75 -170.6,317.75 -167.65,317.9 -164.65,317.9 -161.65,317.9 -140.45,318 -119.35,318 M-184.8,540.15 L-180.45,400.7 -110.1,400.7 -114.1,542.55 M-265.45,540.55 L-261.05,402.7 -205.05,402.7 -207.8,538.5 M-350.95,303.7 Q-350.15,300.4 -349.35,297.15 -348.4,293.15 -347.55,289.2 -345.7,281.55 -341.9,274.7 -338.15,267.8 -332.6,262.15 -328.45,258 -323.4,255.6 -323.05,263.35 -325.55,270.7 -327.2,275.6 -329.1,280.6 -327.9,277.95 -326.6,275.3 -325.1,272.1 -322.9,268.85 -321.35,266.35 -319.3,264.45 -319.15,264.3 -318.95,264.15 -317.45,262.85 -315.9,261.55 -313.05,259.1 -310.3,257.05 -307.85,255.1 -304.7,255.25 -304.75,256.55 -304.95,257.8 -305.05,258.8 -305.35,259.75 -306.25,262.75 -307.1,265.35 -308.65,269.9 -310.2,274.1 -312.9,281.8 -315.6,289.5 -316.95,293.65 -317.9,298.3 -318.2,299.9 -318.4,301.55 -315.7,300.9 -313.55,300.45 -311,299.65 -308.65,298.45 -306.3,297.3 -304,295.95 -304.95,288.35 -302.35,283.75 -299.8,279.1 -298.25,277.3 -296.7,275.45 -295.55,274.95 -295.25,274.75 -294.9,274.75 -291.7,276.55 -292.25,280.2 -292.9,283.85 -294.9,286.9 -296.7,289.85 -299.1,291.85 -301.55,293.9 -304,295.95 -304,298.15 -303.15,300.25 -302.35,302.15 -300.5,302.75 -299.1,303.1 -297.7,302.25 -294.3,300.5 -292.1,297.45 -291.8,297.1 -291.6,296.7 -290.3,294.85 -289.1,292.9 -288.9,292.5 -288.6,292.05 -287.75,290.55 -286.75,289.05 L-286.7,289 Q-285.4,285.05 -282.85,281.75 -280.15,278.4 -276.3,276.1 -275.2,275.6 -271,275.3 M-286.75,289.05 Q-287.35,291 -287.65,292.9 -287.85,294.05 -287.9,295.15 -288.05,297.3 -286.5,298.95 -285.75,299.8 -284.8,300.5 -283.45,301.5 -282,300.85 -280.75,300.45 -279.8,299.45 -278.5,298.15 -277.65,296.5 -276.7,294.75 -275.9,292.9 -275.75,292.45 -275.55,292 -274.5,289.15 -273.65,286.25 -272.65,282.9 -271.55,279.6 -271.05,278 -270.35,276.2 -270.3,276.05 -270.2,275.9 -270.3,277.1 -270.55,278 -271.95,282.25 -272.7,286.35 -273.25,289.65 -273.35,292.9 -273.4,294.4 -273.3,295.85 -272.2,294.4 -271.1,292.9 -270.75,292.4 -270.35,291.95 -268.35,289.05 -266.2,286.55 -264.9,285.05 -263.5,283.75 -260.85,281.4 -257.6,279.6 -255.05,276.55 -251.3,275.6 -251.2,275.65 -249.6,276.35 M-257.6,279.6 Q-259.85,282.1 -261.5,284.65 -263.15,287.15 -264.5,290.05 -265.1,291.5 -265.45,292.9 -265.5,293.05 -265.55,293.25 -266.95,300.5 -260.1,299.45 -258.4,299.2 -256.8,298.1 -255.75,297.25 -254.7,296.45 -253.7,295.65 -253.1,294.6 -252.6,293.8 -252.2,292.9 -252.1,292.65 -251.95,292.3 -250.7,288.9 -249.95,285.6 L-249.75,284.4 Q-249.45,281.75 -249.15,278.9 -249.1,278.05 -248.8,277.3 -248.65,276.9 -248.4,276.7 L-248.4,276.8 -249.75,284.4 M-353.25,339.3 Q-350.85,337.15 -348.3,335.65 -346.15,334.35 -343.85,333.3 -341.2,331.85 -338.4,330.8 -335.5,329.5 -332.55,328.4 -329.9,327.5 -327.25,326.7 -323.95,325.7 -320.65,325.1 -318.95,324.9 -317.15,324.7 M-273.3,295.85 Q-273.3,298 -273.35,300.15 -273.55,303.8 -273.85,307.5 -274.05,309.3 -274.5,311.25 -275.25,314.55 -276.2,317.9 -276.95,320.55 -277.8,323.15 -278.85,326.8 -280.3,330.15 -281.15,332.15 -282.1,334.1 -283.75,337.45 -285.5,340.8 -286.15,342.05 -286.95,343.2 -287.9,344.45 -288.95,345.6 -291.55,348.15 -294.75,349.65 -297.1,350.6 -299.55,351.2 -302.35,351.9 -305.15,352.3 -308.05,352.25 -310.85,351.9 -313.45,351.2 -315.7,349.85 -317.95,348.6 -319.9,346.95 -322.45,344.75 -321.8,341.45 -321.15,338.8 -319.25,336.65 -317.75,334.95 -316.2,333.15 -315,331.8 -313.8,330.5 -312.7,329.35 -311.6,328.45 -309.2,326.55 -307,324.9 -304.25,323.05 -301.55,321.05 -299.9,319.9 -298.25,318.75 -295.2,316.6 -292.15,314.45 -291.85,314.25 -291.6,314.1 -289.2,312.3 -286.9,310.4 -284.65,308.65 -282.5,306.75 -280,304.5 -277.7,301.65 -275.35,298.85 -273.3,295.85Z M-249.95,285.6 Q-250.55,289 -250.45,292.55 -250.45,292.75 -250.4,292.9 -250.3,295.5 -248.95,297.65 -247.8,298 -246.7,297.85 -243.65,297 -243.1,293.95 -243,293.45 -243.1,292.95 M-294.1,323.9 L-285.1,323.4 M-347.6,537.3 L-347.6,401.9 -286.45,403.6 -286.45,535.1" test="Mall Front"/>
      <g test="Mall Front">
        <path id="Layer2_0_1_STROKES" stroke="#FFF" stroke-width="1.482" stroke-linejoin="round" stroke-linecap="round" fill="none" d="M-369.007,385.407 L-372.27,385.407 -371.812,379.021 -84.36,379.324 -91.172,385.407"/>
      </g>
      <g test="Mall Front">
        <path id="Layer3_0_1_STROKES" stroke="#FFF" stroke-width="1.482" stroke-linejoin="round" stroke-linecap="round" fill="none" d="M-373.186,385.272 L-90.256,385.306"/>
      </g>
    </g>
  </g>
</svg>