<?xml version="1.0" encoding="utf-8"?>
<svg id="EdithAnim07" image-rendering="inherit" baseProfile="basic" version="1.1" x="0px" y="0px" width="800" height="600" xmlns="http://www.w3.org/2000/svg" xmlns:xlink="http://www.w3.org/1999/xlink">
  <defs>
    <g id="LinePerspective" overflow="visible">
      <path id="Layer4_0_1_STROKES" stroke="#FFF" stroke-width="2" stroke-linejoin="round" stroke-linecap="round" fill="none" d="M-59.65 54.85L59.7 -54.85" test="LinePerspective"/>
    </g>
  </defs>
  <g id="Need-a-mallf4r1" overflow="visible">
    <g id="MallBackAndSide">
      <g id="MallBack">
        <path id="Layer5_0_1_STROKES" stroke="#FFF" stroke-width="2" stroke-linejoin="round" stroke-linecap="round" fill="none" d="M-207.7,182.45 Q-201.85,182.15 -43.1,182.8 113.9,183.5 116.35,183.15" test="MallBack"/>
      </g>
      <g id="Mall-Back-right">
        <path id="Layer6_0_1_STROKES" stroke="#FFF" stroke-width="2" stroke-linejoin="round" stroke-linecap="round" fill="none" d="M115.7,183.15 L119.85,472.55" test="Mall Back right"/>
      </g>
    </g>
    <use xlink:href="#LinePerspective" transform="matrix(1.067 0 0 .624 56.75 511.4)"/>
    <use xlink:href="#LinePerspective" transform="matrix(1.073 0 0 .399 49.7 206.5)"/>
    <use xlink:href="#LinePerspective" transform="matrix(1.403 0 0 .399 -294.2 206.5)"/>
    <g id="Mall-Front">
      <path id="Layer1_0_1_STROKES" stroke="#FFF" stroke-width="2" stroke-linejoin="round" stroke-linecap="round" fill="none" d="M-374.65,228.35 Q-354.2,226.2 -328.7,223.9 -277.65,219.3 -252.35,218.8 -224.3,218.25 -161.4,217.7 -103.8,217.2 -79.95,217.2 -61.05,217.2 -36.5,219.8 -14.45,222.05 -11.6,223.55 -9.5,224.65 -8.55,271.7 -7.7,314.55 -8.45,334.75 -8.85,345.65 -7.65,389.3 -6.45,432.65 -6.85,442 -7.65,461.1 -7.65,515.9 -7.65,523.45 -7.6,535.05 -7.75,543.2 -9.25,545.3 -10.6,547.05 -68.85,545.6 -71.95,545.55 -75.2,545.45 -77.45,545.4 -79.7,545.35 -80.6,545.35 -81.45,545.3 -153.5,542.95 -163.35,542.95 -174,542.95 -254.4,542.15 -284.6,541.85 -304.35,541.65 -337.2,541.35 -341.3,541.35 -348.1,541.35 -360,543.8 -369.35,545.7 -372.25,544.5 -375.5,543.1 -376.25,489 -377.25,424.05 -377.85,417.4 -379.45,401.05 -377.75,318.1 -376.1,238.25 -374.65,228.35Z" test="Mall Front"/>
      <path id="Layer1_0_2_STROKES" stroke="#F0F" stroke-width="2" stroke-linejoin="round" stroke-linecap="round" fill="none" d="M-120.9,284.05 Q-118.7,282.05 -116.6,279.95 -115.05,278.55 -113.8,276.9 -111.45,274.1 -109.55,270.95 -107.9,268.25 -106.75,265.35 -105.25,261.8 -106.2,258 -106.3,257.35 -106.5,256.8 -107.4,256.85 -108.3,256.95 -109.05,257.2 -109.75,257.55 -111.25,258.7 -112.45,260.15 -113.9,262 -115,264.2 -116.4,266.95 -117.45,269.9 -119.9,276.75 -120.9,284.05 -121.2,287.2 -121.05,290.2 -121,291.65 -120.55,292.9 -119.85,295 -118.1,296.75 -117.4,297.5 -116.4,298 -113.15,299.7 -109.75,297.8 -106.75,296.05 -104.35,293.5 -104.05,293.25 -103.8,292.9 -101.9,290.85 -100.2,288.5 -99.85,281.8 -97.6,275.45 -96.35,272 -94.7,268.75 -93.55,266.5 -91.95,264.6 -90.55,262.95 -88.85,261.6 -86.5,259.7 -83.55,259.5 -83.75,260.8 -84.05,262 -84.4,263.7 -84.85,265.35 -85.9,268.75 -87.75,271.65 -89.8,274.75 -91.9,277.6 -93.7,280.1 -95.55,282.55 -97.8,285.6 -100.2,288.5 -100.4,290.7 -100.15,292.9 -99.95,294.4 -99.5,295.8 -98.45,299.5 -94.65,300.5 -92.8,301 -90.85,301.25 -87.6,301.6 -84.85,299.65 -82.9,298.35 -80.95,297.05 -79.9,296.5 -79.2,295.7 -77.95,294.35 -76.7,292.9 -76.25,292.35 -75.8,291.8 M-194.5,299.95 Q-193.75,296.8 -193,293.7 -192.9,293.3 -192.8,292.9 -192,289.55 -191.2,286.15 -189.5,278.8 -185.85,272.25 -182.25,265.65 -176.95,260.25 -173.05,256.3 -168.15,254 -167.85,261.45 -170.2,268.45 -171.8,273.1 -173.6,277.9 -172.5,275.35 -171.2,272.8 -169.8,269.8 -167.7,266.65 -166.2,264.3 -164.25,262.5 -164.1,262.3 -163.9,262.15 -162.5,260.95 -161,259.65 -158.25,257.35 -155.6,255.4 -153.3,253.55 -150.25,253.65 -150.3,254.9 -150.55,256.1 -150.6,257.05 -150.9,257.95 -151.75,260.85 -152.6,263.3 -154.05,267.65 -155.55,271.65 -158.1,279.05 -160.7,286.4 -161.75,289.55 -162.5,292.9 -162.7,293.9 -162.9,294.85 -163.4,297.3 -163.5,299.95 -161.9,298.2 -160.45,296.35 -159,294.65 -157.7,292.9 -157.25,292.3 -156.85,291.7 -155,289.15 -153.25,286.55 -151.1,283.35 -148.65,280.25 -146.15,277.05 -142.95,274.55 -140.8,273.1 -138.55,272.25 -137.85,272.05 -134.15,270.8 M-175.3,282.35 L-173.6,277.9 M-142.95,274.55 Q-145.3,276.7 -146.75,279.65 -147.8,281.7 -148.9,283.75 -150.4,286.7 -151.2,289.8 -151.45,290.85 -151.65,291.95 -151.7,292.4 -151.7,292.9 -151.7,293.1 -151.7,293.3 -151.15,294.4 -150,294.8 -148.8,295.2 -147.6,294.65 -146.45,294.1 -145.6,293.15 -145.5,293.05 -145.35,292.9 -143.45,291 -141.85,288.9 -138.85,285.1 -136.1,280.9 -135.85,280.25 -135.7,279.7 -134.65,276.4 -133.6,273 L-133.6,272.85 Q-133.3,271.85 -133.35,270.8 M-136.1,280.9 Q-134.5,278.55 -134.15,276.2 -133.85,274.6 -133.6,273 M-136.1,280.9 Q-137.15,284.25 -137.6,287.85 -137.8,289.2 -137.35,290.55 -136.8,292.3 -135.25,292.9 -134.85,293.05 -134.45,293.15 -134.2,293.05 -134,292.9 -130.45,291.15 -127.35,289 -123.9,286.55 -120.9,284.05 M-232.85,322.4 Q-230.1,322.7 -227.6,322.55 -224.3,322.4 -221.05,322.35 -219.1,322.1 -217.15,322 -215,321.85 -212.8,321.7 -209.25,321.35 -205.7,321.05 -203.15,320.75 -200.5,320.55 -197.7,320.2 -194.9,319.9 -191.9,319.65 -188.9,319.4 -185.7,319.15 -182.55,318.95 -179.15,318.75 -175.8,318.55 -172.2,318.4 -168.65,318.2 -164.85,318.05 -161.05,318 -159.2,317.95 -157.2,317.9 -155.2,317.9 -153.2,317.9 -151.15,317.85 -149.05,317.75 -146.95,317.75 -144.9,317.75 -141.65,317.75 -138.3,317.75 -135.3,317.75 -132.35,317.9 -129.35,317.9 -126.35,317.9 -105.15,318 -84.05,318 M-149.5,540.15 L-145.15,400.7 -74.8,400.7 -78.8,542.55 M-230.15,540.55 L-225.75,402.7 -169.75,402.7 -172.5,538.5 M-315.65,303.7 Q-314.85,300.4 -314.05,297.15 -313.1,293.15 -312.25,289.2 -310.4,281.55 -306.6,274.7 -302.85,267.8 -297.3,262.15 -293.15,258 -288.1,255.6 -287.75,263.35 -290.25,270.7 -291.9,275.6 -293.8,280.6 -292.6,277.95 -291.3,275.3 -289.8,272.1 -287.6,268.85 -286.05,266.35 -284,264.45 -283.85,264.3 -283.65,264.15 -282.15,262.85 -280.6,261.55 -277.75,259.1 -275,257.05 -272.55,255.1 -269.4,255.25 -269.45,256.55 -269.65,257.8 -269.75,258.8 -270.05,259.75 -270.95,262.75 -271.8,265.35 -273.35,269.9 -274.9,274.1 -277.6,281.8 -280.3,289.5 -281.65,293.65 -282.6,298.3 -282.9,299.9 -283.1,301.55 -280.4,300.9 -278.25,300.45 -275.7,299.65 -273.35,298.45 -271,297.3 -268.7,295.95 -269.65,288.35 -267.05,283.75 -264.5,279.1 -262.95,277.3 -261.4,275.45 -260.25,274.95 -259.95,274.75 -259.6,274.75 -256.4,276.55 -256.95,280.2 -257.6,283.85 -259.6,286.9 -261.4,289.85 -263.8,291.85 -266.25,293.9 -268.7,295.95 -268.7,298.15 -267.85,300.25 -267.05,302.15 -265.2,302.75 -263.8,303.1 -262.4,302.25 -259,300.5 -256.8,297.45 -256.5,297.1 -256.3,296.7 -255,294.85 -253.8,292.9 -253.6,292.5 -253.3,292.05 -252.45,290.55 -251.45,289.05 L-251.4,289 Q-250.1,285.05 -247.55,281.75 -244.85,278.4 -241,276.1 -239.9,275.6 -235.7,275.3 M-251.45,289.05 Q-252.05,291 -252.35,292.9 -252.55,294.05 -252.6,295.15 -252.75,297.3 -251.2,298.95 -250.45,299.8 -249.5,300.5 -248.15,301.5 -246.7,300.85 -245.45,300.45 -244.5,299.45 -243.2,298.15 -242.35,296.5 -241.4,294.75 -240.6,292.9 -240.45,292.45 -240.25,292 -239.2,289.15 -238.35,286.25 -237.35,282.9 -236.25,279.6 -235.75,278 -235.05,276.2 -235,276.05 -234.9,275.9 -235,277.1 -235.25,278 -236.65,282.25 -237.4,286.35 -237.95,289.65 -238.05,292.9 -238.1,294.4 -238,295.85 -236.9,294.4 -235.8,292.9 -235.45,292.4 -235.05,291.95 -233.05,289.05 -230.9,286.55 -229.6,285.05 -228.2,283.75 -225.55,281.4 -222.3,279.6 -219.75,276.55 -216,275.6 -215.9,275.65 -214.3,276.35 M-222.3,279.6 Q-224.55,282.1 -226.2,284.65 -227.85,287.15 -229.2,290.05 -229.8,291.5 -230.15,292.9 -230.2,293.05 -230.25,293.25 -231.65,300.5 -224.8,299.45 -223.1,299.2 -221.5,298.1 -220.45,297.25 -219.4,296.45 -218.4,295.65 -217.8,294.6 -217.3,293.8 -216.9,292.9 -216.8,292.65 -216.65,292.3 -215.4,288.9 -214.65,285.6 L-214.45,284.4 Q-214.15,281.75 -213.85,278.9 -213.8,278.05 -213.5,277.3 -213.35,276.9 -213.1,276.7 L-213.1,276.8 -214.45,284.4 M-317.95,339.3 Q-315.55,337.15 -313,335.65 -310.85,334.35 -308.55,333.3 -305.9,331.85 -303.1,330.8 -300.2,329.5 -297.25,328.4 -294.6,327.5 -291.95,326.7 -288.65,325.7 -285.35,325.1 -283.65,324.9 -281.85,324.7 M-238,295.85 Q-238,298 -238.05,300.15 -238.25,303.8 -238.55,307.5 -238.75,309.3 -239.2,311.25 -239.95,314.55 -240.9,317.9 -241.65,320.55 -242.5,323.15 -243.55,326.8 -245,330.15 -245.85,332.15 -246.8,334.1 -248.45,337.45 -250.2,340.8 -250.85,342.05 -251.65,343.2 -252.6,344.45 -253.65,345.6 -256.25,348.15 -259.45,349.65 -261.8,350.6 -264.25,351.2 -267.05,351.9 -269.85,352.3 -272.75,352.25 -275.55,351.9 -278.15,351.2 -280.4,349.85 -282.65,348.6 -284.6,346.95 -287.15,344.75 -286.5,341.45 -285.85,338.8 -283.95,336.65 -282.45,334.95 -280.9,333.15 -279.7,331.8 -278.5,330.5 -277.4,329.35 -276.3,328.45 -273.9,326.55 -271.7,324.9 -268.95,323.05 -266.25,321.05 -264.6,319.9 -262.95,318.75 -259.9,316.6 -256.85,314.45 -256.55,314.25 -256.3,314.1 -253.9,312.3 -251.6,310.4 -249.35,308.65 -247.2,306.75 -244.7,304.5 -242.4,301.65 -240.05,298.85 -238,295.85Z M-214.65,285.6 Q-215.25,289 -215.15,292.55 -215.15,292.75 -215.1,292.9 -215,295.5 -213.65,297.65 -212.5,298 -211.4,297.85 -208.35,297 -207.8,293.95 -207.7,293.45 -207.8,292.95 M-258.8,323.9 L-249.8,323.4 M-312.3,537.3 L-312.3,401.9 -251.15,403.6 -251.15,535.1" test="Mall Front"/>
      <g test="Mall Front">
        <path id="Layer2_0_1_STROKES" stroke="#FFF" stroke-width="1.482" stroke-linejoin="round" stroke-linecap="round" fill="none" d="M-333.707,385.407 L-336.97,385.407 -336.512,379.021 -49.06,379.324 -55.872,385.407"/>
      </g>
      <g test="Mall Front">
        <path id="Layer3_0_1_STROKES" stroke="#FFF" stroke-width="1.482" stroke-linejoin="round" stroke-linecap="round" fill="none" d="M-337.886,385.272 L-54.956,385.306"/>
      </g>
    </g>
  </g>
</svg>