<?xml version="1.0" encoding="utf-8"?>
<svg id="EdithAnim07" image-rendering="inherit" baseProfile="basic" version="1.1" x="0px" y="0px" width="800" height="600" xmlns="http://www.w3.org/2000/svg" xmlns:xlink="http://www.w3.org/1999/xlink">
  <defs>
    <g id="LinePerspective" overflow="visible">
      <path id="Layer4_0_1_STROKES" stroke="#FFF" stroke-width="2" stroke-linejoin="round" stroke-linecap="round" fill="none" d="M-59.65 54.85L59.7 -54.85" test="LinePerspective"/>
    </g>
  </defs>
  <g id="Need-a-mallf5r1" overflow="visible">
    <g id="MallBackAndSide">
      <g id="MallBack">
        <path id="Layer5_0_1_STROKES" stroke="#FFF" stroke-width="2" stroke-linejoin="round" stroke-linecap="round" fill="none" d="M-179.35,182.45 Q-173.5,182.15 -14.75,182.8 142.25,183.5 144.7,183.15" test="MallBack"/>
      </g>
      <g id="Mall-Back-right">
        <path id="Layer6_0_1_STROKES" stroke="#FFF" stroke-width="2" stroke-linejoin="round" stroke-linecap="round" fill="none" d="M144.05,183.15 L148.2,472.55" test="Mall Back right"/>
      </g>
    </g>
    <use xlink:href="#LinePerspective" transform="matrix(1.021 0 0 .627 88 511.15)"/>
    <use xlink:href="#LinePerspective" transform="matrix(1.026 0 0 .4 80.95 206.4)"/>
    <use xlink:href="#LinePerspective" transform="matrix(1.356 0 0 .4 -263 206.4)"/>
    <g id="Mall-Front">
      <path id="Layer1_0_1_STROKES" stroke="#FFF" stroke-width="2" stroke-linejoin="round" stroke-linecap="round" fill="none" d="M-340.65,228.35 Q-320.2,226.2 -294.7,223.9 -243.65,219.3 -218.35,218.8 -190.3,218.25 -127.4,217.7 -69.8,217.2 -45.95,217.2 -27.05,217.2 -2.5,219.8 19.55,222.05 22.4,223.55 24.5,224.65 25.45,271.7 26.3,314.55 25.55,334.75 25.15,345.65 26.35,389.3 27.55,432.65 27.15,442 26.35,461.1 26.35,515.9 26.35,523.45 26.4,535.05 26.25,543.2 24.75,545.3 23.4,547.05 -34.85,545.6 -37.95,545.55 -41.2,545.45 -43.45,545.4 -45.7,545.35 -46.6,545.35 -47.45,545.3 -119.5,542.95 -129.35,542.95 -140,542.95 -220.4,542.15 -250.6,541.85 -270.35,541.65 -303.2,541.35 -307.3,541.35 -314.1,541.35 -326,543.8 -335.35,545.7 -338.25,544.5 -341.5,543.1 -342.25,489 -343.25,424.05 -343.85,417.4 -345.45,401.05 -343.75,318.1 -342.1,238.25 -340.65,228.35Z" test="Mall Front"/>
      <path id="Layer1_0_2_STROKES" stroke="#F0F" stroke-width="2" stroke-linejoin="round" stroke-linecap="round" fill="none" d="M-86.9,284.05 Q-84.7,282.05 -82.6,279.95 -81.05,278.55 -79.8,276.9 -77.45,274.1 -75.55,270.95 -73.9,268.25 -72.75,265.35 -71.25,261.8 -72.2,258 -72.3,257.35 -72.5,256.8 -73.4,256.85 -74.3,256.95 -75.05,257.2 -75.75,257.55 -77.25,258.7 -78.45,260.15 -79.9,262 -81,264.2 -82.4,266.95 -83.45,269.9 -85.9,276.75 -86.9,284.05 -87.2,287.2 -87.05,290.2 -87,291.65 -86.55,292.9 -85.85,295 -84.1,296.75 -83.4,297.5 -82.4,298 -79.15,299.7 -75.75,297.8 -72.75,296.05 -70.35,293.5 -70.05,293.25 -69.8,292.9 -67.9,290.85 -66.2,288.5 -65.85,281.8 -63.6,275.45 -62.35,272 -60.7,268.75 -59.55,266.5 -57.95,264.6 -56.55,262.95 -54.85,261.6 -52.5,259.7 -49.55,259.5 -49.75,260.8 -50.05,262 -50.4,263.7 -50.85,265.35 -51.9,268.75 -53.75,271.65 -55.8,274.75 -57.9,277.6 -59.7,280.1 -61.55,282.55 -63.8,285.6 -66.2,288.5 -66.4,290.7 -66.15,292.9 -65.95,294.4 -65.5,295.8 -64.45,299.5 -60.65,300.5 -58.8,301 -56.85,301.25 -53.6,301.6 -50.85,299.65 -48.9,298.35 -46.95,297.05 -45.9,296.5 -45.2,295.7 -43.95,294.35 -42.7,292.9 -42.25,292.35 -41.8,291.8 M-160.5,299.95 Q-159.75,296.8 -159,293.7 -158.9,293.3 -158.8,292.9 -158,289.55 -157.2,286.15 -155.5,278.8 -151.85,272.25 -148.25,265.65 -142.95,260.25 -139.05,256.3 -134.15,254 -133.85,261.45 -136.2,268.45 -137.8,273.1 -139.6,277.9 -138.5,275.35 -137.2,272.8 -135.8,269.8 -133.7,266.65 -132.2,264.3 -130.25,262.5 -130.1,262.3 -129.9,262.15 -128.5,260.95 -127,259.65 -124.25,257.35 -121.6,255.4 -119.3,253.55 -116.25,253.65 -116.3,254.9 -116.55,256.1 -116.6,257.05 -116.9,257.95 -117.75,260.85 -118.6,263.3 -120.05,267.65 -121.55,271.65 -124.1,279.05 -126.7,286.4 -127.75,289.55 -128.5,292.9 -128.7,293.9 -128.9,294.85 -129.4,297.3 -129.5,299.95 -127.9,298.2 -126.45,296.35 -125,294.65 -123.7,292.9 -123.25,292.3 -122.85,291.7 -121,289.15 -119.25,286.55 -117.1,283.35 -114.65,280.25 -112.15,277.05 -108.95,274.55 -106.8,273.1 -104.55,272.25 -103.85,272.05 -100.15,270.8 M-141.3,282.35 L-139.6,277.9 M-108.95,274.55 Q-111.3,276.7 -112.75,279.65 -113.8,281.7 -114.9,283.75 -116.4,286.7 -117.2,289.8 -117.45,290.85 -117.65,291.95 -117.7,292.4 -117.7,292.9 -117.7,293.1 -117.7,293.3 -117.15,294.4 -116,294.8 -114.8,295.2 -113.6,294.65 -112.45,294.1 -111.6,293.15 -111.5,293.05 -111.35,292.9 -109.45,291 -107.85,288.9 -104.85,285.1 -102.1,280.9 -101.85,280.25 -101.7,279.7 -100.65,276.4 -99.6,273 L-99.6,272.85 Q-99.3,271.85 -99.35,270.8 M-102.1,280.9 Q-100.5,278.55 -100.15,276.2 -99.85,274.6 -99.6,273 M-102.1,280.9 Q-103.15,284.25 -103.6,287.85 -103.8,289.2 -103.35,290.55 -102.8,292.3 -101.25,292.9 -100.85,293.05 -100.45,293.15 -100.2,293.05 -100,292.9 -96.45,291.15 -93.35,289 -89.9,286.55 -86.9,284.05 M-198.85,322.4 Q-196.1,322.7 -193.6,322.55 -190.3,322.4 -187.05,322.35 -185.1,322.1 -183.15,322 -181,321.85 -178.8,321.7 -175.25,321.35 -171.7,321.05 -169.15,320.75 -166.5,320.55 -163.7,320.2 -160.9,319.9 -157.9,319.65 -154.9,319.4 -151.7,319.15 -148.55,318.95 -145.15,318.75 -141.8,318.55 -138.2,318.4 -134.65,318.2 -130.85,318.05 -127.05,318 -125.2,317.95 -123.2,317.9 -121.2,317.9 -119.2,317.9 -117.15,317.85 -115.05,317.75 -112.95,317.75 -110.9,317.75 -107.65,317.75 -104.3,317.75 -101.3,317.75 -98.35,317.9 -95.35,317.9 -92.35,317.9 -71.15,318 -50.05,318 M-115.5,540.15 L-111.15,400.7 -40.8,400.7 -44.8,542.55 M-196.15,540.55 L-191.75,402.7 -135.75,402.7 -138.5,538.5 M-281.65,303.7 Q-280.85,300.4 -280.05,297.15 -279.1,293.15 -278.25,289.2 -276.4,281.55 -272.6,274.7 -268.85,267.8 -263.3,262.15 -259.15,258 -254.1,255.6 -253.75,263.35 -256.25,270.7 -257.9,275.6 -259.8,280.6 -258.6,277.95 -257.3,275.3 -255.8,272.1 -253.6,268.85 -252.05,266.35 -250,264.45 -249.85,264.3 -249.65,264.15 -248.15,262.85 -246.6,261.55 -243.75,259.1 -241,257.05 -238.55,255.1 -235.4,255.25 -235.45,256.55 -235.65,257.8 -235.75,258.8 -236.05,259.75 -236.95,262.75 -237.8,265.35 -239.35,269.9 -240.9,274.1 -243.6,281.8 -246.3,289.5 -247.65,293.65 -248.6,298.3 -248.9,299.9 -249.1,301.55 -246.4,300.9 -244.25,300.45 -241.7,299.65 -239.35,298.45 -237,297.3 -234.7,295.95 -235.65,288.35 -233.05,283.75 -230.5,279.1 -228.95,277.3 -227.4,275.45 -226.25,274.95 -225.95,274.75 -225.6,274.75 -222.4,276.55 -222.95,280.2 -223.6,283.85 -225.6,286.9 -227.4,289.85 -229.8,291.85 -232.25,293.9 -234.7,295.95 -234.7,298.15 -233.85,300.25 -233.05,302.15 -231.2,302.75 -229.8,303.1 -228.4,302.25 -225,300.5 -222.8,297.45 -222.5,297.1 -222.3,296.7 -221,294.85 -219.8,292.9 -219.6,292.5 -219.3,292.05 -218.45,290.55 -217.45,289.05 L-217.4,289 Q-216.1,285.05 -213.55,281.75 -210.85,278.4 -207,276.1 -205.9,275.6 -201.7,275.3 M-217.45,289.05 Q-218.05,291 -218.35,292.9 -218.55,294.05 -218.6,295.15 -218.75,297.3 -217.2,298.95 -216.45,299.8 -215.5,300.5 -214.15,301.5 -212.7,300.85 -211.45,300.45 -210.5,299.45 -209.2,298.15 -208.35,296.5 -207.4,294.75 -206.6,292.9 -206.45,292.45 -206.25,292 -205.2,289.15 -204.35,286.25 -203.35,282.9 -202.25,279.6 -201.75,278 -201.05,276.2 -201,276.05 -200.9,275.9 -201,277.1 -201.25,278 -202.65,282.25 -203.4,286.35 -203.95,289.65 -204.05,292.9 -204.1,294.4 -204,295.85 -202.9,294.4 -201.8,292.9 -201.45,292.4 -201.05,291.95 -199.05,289.05 -196.9,286.55 -195.6,285.05 -194.2,283.75 -191.55,281.4 -188.3,279.6 -185.75,276.55 -182,275.6 -181.9,275.65 -180.3,276.35 M-188.3,279.6 Q-190.55,282.1 -192.2,284.65 -193.85,287.15 -195.2,290.05 -195.8,291.5 -196.15,292.9 -196.2,293.05 -196.25,293.25 -197.65,300.5 -190.8,299.45 -189.1,299.2 -187.5,298.1 -186.45,297.25 -185.4,296.45 -184.4,295.65 -183.8,294.6 -183.3,293.8 -182.9,292.9 -182.8,292.65 -182.65,292.3 -181.4,288.9 -180.65,285.6 L-180.45,284.4 Q-180.15,281.75 -179.85,278.9 -179.8,278.05 -179.5,277.3 -179.35,276.9 -179.1,276.7 L-179.1,276.8 -180.45,284.4 M-283.95,339.3 Q-281.55,337.15 -279,335.65 -276.85,334.35 -274.55,333.3 -271.9,331.85 -269.1,330.8 -266.2,329.5 -263.25,328.4 -260.6,327.5 -257.95,326.7 -254.65,325.7 -251.35,325.1 -249.65,324.9 -247.85,324.7 M-204,295.85 Q-204,298 -204.05,300.15 -204.25,303.8 -204.55,307.5 -204.75,309.3 -205.2,311.25 -205.95,314.55 -206.9,317.9 -207.65,320.55 -208.5,323.15 -209.55,326.8 -211,330.15 -211.85,332.15 -212.8,334.1 -214.45,337.45 -216.2,340.8 -216.85,342.05 -217.65,343.2 -218.6,344.45 -219.65,345.6 -222.25,348.15 -225.45,349.65 -227.8,350.6 -230.25,351.2 -233.05,351.9 -235.85,352.3 -238.75,352.25 -241.55,351.9 -244.15,351.2 -246.4,349.85 -248.65,348.6 -250.6,346.95 -253.15,344.75 -252.5,341.45 -251.85,338.8 -249.95,336.65 -248.45,334.95 -246.9,333.15 -245.7,331.8 -244.5,330.5 -243.4,329.35 -242.3,328.45 -239.9,326.55 -237.7,324.9 -234.95,323.05 -232.25,321.05 -230.6,319.9 -228.95,318.75 -225.9,316.6 -222.85,314.45 -222.55,314.25 -222.3,314.1 -219.9,312.3 -217.6,310.4 -215.35,308.65 -213.2,306.75 -210.7,304.5 -208.4,301.65 -206.05,298.85 -204,295.85Z M-180.65,285.6 Q-181.25,289 -181.15,292.55 -181.15,292.75 -181.1,292.9 -181,295.5 -179.65,297.65 -178.5,298 -177.4,297.85 -174.35,297 -173.8,293.95 -173.7,293.45 -173.8,292.95 M-224.8,323.9 L-215.8,323.4 M-278.3,537.3 L-278.3,401.9 -217.15,403.6 -217.15,535.1" test="Mall Front"/>
      <g test="Mall Front">
        <path id="Layer2_0_1_STROKES" stroke="#FFF" stroke-width="1.482" stroke-linejoin="round" stroke-linecap="round" fill="none" d="M-299.707,385.407 L-302.97,385.407 -302.512,379.021 -15.06,379.324 -21.872,385.407"/>
      </g>
      <g test="Mall Front">
        <path id="Layer3_0_1_STROKES" stroke="#FFF" stroke-width="1.482" stroke-linejoin="round" stroke-linecap="round" fill="none" d="M-303.886,385.272 L-20.956,385.306"/>
      </g>
    </g>
  </g>
</svg>