<?xml version="1.0" encoding="utf-8"?>
<svg id="EdithAnim07" image-rendering="inherit" baseProfile="basic" version="1.1" x="0px" y="0px" width="800" height="600" xmlns="http://www.w3.org/2000/svg" xmlns:xlink="http://www.w3.org/1999/xlink">
  <defs>
    <g id="LinePerspective" overflow="visible">
      <path id="Layer4_0_1_STROKES" stroke="#FFF" stroke-width="2" stroke-linejoin="round" stroke-linecap="round" fill="none" d="M-59.65 54.85L59.7 -54.85" test="LinePerspective"/>
    </g>
  </defs>
  <g id="Need-a-mallf7r1" overflow="visible">
    <g id="MallBackAndSide">
      <g id="MallBack">
        <path id="Layer5_0_1_STROKES" stroke="#FFF" stroke-width="2" stroke-linejoin="round" stroke-linecap="round" fill="none" d="M-126.15,182.45 Q-120.3,182.15 38.45,182.8 195.45,183.5 197.9,183.15" test="MallBack"/>
      </g>
      <g id="Mall-Back-right">
        <path id="Layer6_0_1_STROKES" stroke="#FFF" stroke-width="2" stroke-linejoin="round" stroke-linecap="round" fill="none" d="M197.25,183.15 L201.4,472.55" test="Mall Back right"/>
      </g>
    </g>
    <use xlink:href="#LinePerspective" transform="matrix(.934 0 0 .633 146.7 510.85)"/>
    <use xlink:href="#LinePerspective" transform="matrix(.938 0 0 .403 139.55 206.25)"/>
    <use xlink:href="#LinePerspective" transform="matrix(1.268 0 0 .403 -204.4 206.25)"/>
    <g id="Mall-Front">
      <path id="Layer1_0_1_STROKES" stroke="#FFF" stroke-width="2" stroke-linejoin="round" stroke-linecap="round" fill="none" d="M-276.8,228.35 Q-256.35,226.2 -230.85,223.9 -179.8,219.3 -154.5,218.8 -126.45,218.25 -63.55,217.7 -5.95,217.2 17.9,217.2 36.8,217.2 61.35,219.8 83.4,222.05 86.25,223.55 88.35,224.65 89.3,271.7 90.15,314.55 89.4,334.75 89,345.65 90.2,389.3 91.4,432.65 91,442 90.2,461.1 90.2,515.9 90.2,523.45 90.25,535.05 90.1,543.2 88.6,545.3 87.25,547.05 29,545.6 25.9,545.55 22.65,545.45 20.4,545.4 18.15,545.35 17.25,545.35 16.4,545.3 -55.65,542.95 -65.5,542.95 -76.15,542.95 -156.55,542.15 -186.75,541.85 -206.5,541.65 -239.35,541.35 -243.45,541.35 -250.25,541.35 -262.15,543.8 -271.5,545.7 -274.4,544.5 -277.65,543.1 -278.4,489 -279.4,424.05 -280,417.4 -281.6,401.05 -279.9,318.1 -278.25,238.25 -276.8,228.35Z" test="Mall Front"/>
      <path id="Layer1_0_2_STROKES" stroke="#F0F" stroke-width="2" stroke-linejoin="round" stroke-linecap="round" fill="none" d="M-23.05,284.05 Q-20.85,282.05 -18.75,279.95 -17.2,278.55 -15.95,276.9 -13.6,274.1 -11.7,270.95 -10.05,268.25 -8.9,265.35 -7.4,261.8 -8.35,258 -8.45,257.35 -8.65,256.8 -9.55,256.85 -10.45,256.95 -11.2,257.2 -11.9,257.55 -13.4,258.7 -14.6,260.15 -16.05,262 -17.15,264.2 -18.55,266.95 -19.6,269.9 -22.05,276.75 -23.05,284.05 -23.35,287.2 -23.2,290.2 -23.15,291.65 -22.7,292.9 -22,295 -20.25,296.75 -19.55,297.5 -18.55,298 -15.3,299.7 -11.9,297.8 -8.9,296.05 -6.5,293.5 -6.2,293.25 -5.95,292.9 -4.05,290.85 -2.35,288.5 -2,281.8 .25,275.45 1.5,272 3.15,268.75 4.3,266.5 5.9,264.6 7.3,262.95 9,261.6 11.35,259.7 14.3,259.5 14.1,260.8 13.8,262 13.45,263.7 13,265.35 11.95,268.75 10.1,271.65 8.05,274.75 5.95,277.6 4.15,280.1 2.3,282.55 .05,285.6 -2.35,288.5 -2.55,290.7 -2.3,292.9 -2.1,294.4 -1.65,295.8 -.6,299.5 3.2,300.5 5.05,301 7,301.25 10.25,301.6 13,299.65 14.95,298.35 16.9,297.05 17.95,296.5 18.65,295.7 19.9,294.35 21.15,292.9 21.6,292.35 22.05,291.8 M-96.65,299.95 Q-95.9,296.8 -95.15,293.7 -95.05,293.3 -94.95,292.9 -94.15,289.55 -93.35,286.15 -91.65,278.8 -88,272.25 -84.4,265.65 -79.1,260.25 -75.2,256.3 -70.3,254 -70,261.45 -72.35,268.45 -73.95,273.1 -75.75,277.9 -74.65,275.35 -73.35,272.8 -71.95,269.8 -69.85,266.65 -68.35,264.3 -66.4,262.5 -66.25,262.3 -66.05,262.15 -64.65,260.95 -63.15,259.65 -60.4,257.35 -57.75,255.4 -55.45,253.55 -52.4,253.65 -52.45,254.9 -52.7,256.1 -52.75,257.05 -53.05,257.95 -53.9,260.85 -54.75,263.3 -56.2,267.65 -57.7,271.65 -60.25,279.05 -62.85,286.4 -63.9,289.55 -64.65,292.9 -64.85,293.9 -65.05,294.85 -65.55,297.3 -65.65,299.95 -64.05,298.2 -62.6,296.35 -61.15,294.65 -59.85,292.9 -59.4,292.3 -59,291.7 -57.15,289.15 -55.4,286.55 -53.25,283.35 -50.8,280.25 -48.3,277.05 -45.1,274.55 -42.95,273.1 -40.7,272.25 -40,272.05 -36.3,270.8 M-77.45,282.35 L-75.75,277.9 M-45.1,274.55 Q-47.45,276.7 -48.9,279.65 -49.95,281.7 -51.05,283.75 -52.55,286.7 -53.35,289.8 -53.6,290.85 -53.8,291.95 -53.85,292.4 -53.85,292.9 -53.85,293.1 -53.85,293.3 -53.3,294.4 -52.15,294.8 -50.95,295.2 -49.75,294.65 -48.6,294.1 -47.75,293.15 -47.65,293.05 -47.5,292.9 -45.6,291 -44,288.9 -41,285.1 -38.25,280.9 -38,280.25 -37.85,279.7 -36.8,276.4 -35.75,273 L-35.75,272.85 Q-35.45,271.85 -35.5,270.8 M-38.25,280.9 Q-36.65,278.55 -36.3,276.2 -36,274.6 -35.75,273 M-38.25,280.9 Q-39.3,284.25 -39.75,287.85 -39.95,289.2 -39.5,290.55 -38.95,292.3 -37.4,292.9 -37,293.05 -36.6,293.15 -36.35,293.05 -36.15,292.9 -32.6,291.15 -29.5,289 -26.05,286.55 -23.05,284.05 M-135,322.4 Q-132.25,322.7 -129.75,322.55 -126.45,322.4 -123.2,322.35 -121.25,322.1 -119.3,322 -117.15,321.85 -114.95,321.7 -111.4,321.35 -107.85,321.05 -105.3,320.75 -102.65,320.55 -99.85,320.2 -97.05,319.9 -94.05,319.65 -91.05,319.4 -87.85,319.15 -84.7,318.95 -81.3,318.75 -77.95,318.55 -74.35,318.4 -70.8,318.2 -67,318.05 -63.2,318 -61.35,317.95 -59.35,317.9 -57.35,317.9 -55.35,317.9 -53.3,317.85 -51.2,317.75 -49.1,317.75 -47.05,317.75 -43.8,317.75 -40.45,317.75 -37.45,317.75 -34.5,317.9 -31.5,317.9 -28.5,317.9 -7.3,318 13.8,318 M-51.65,540.15 L-47.3,400.7 23.05,400.7 19.05,542.55 M-132.3,540.55 L-127.9,402.7 -71.9,402.7 -74.65,538.5 M-217.8,303.7 Q-217,300.4 -216.2,297.15 -215.25,293.15 -214.4,289.2 -212.55,281.55 -208.75,274.7 -205,267.8 -199.45,262.15 -195.3,258 -190.25,255.6 -189.9,263.35 -192.4,270.7 -194.05,275.6 -195.95,280.6 -194.75,277.95 -193.45,275.3 -191.95,272.1 -189.75,268.85 -188.2,266.35 -186.15,264.45 -186,264.3 -185.8,264.15 -184.3,262.85 -182.75,261.55 -179.9,259.1 -177.15,257.05 -174.7,255.1 -171.55,255.25 -171.6,256.55 -171.8,257.8 -171.9,258.8 -172.2,259.75 -173.1,262.75 -173.95,265.35 -175.5,269.9 -177.05,274.1 -179.75,281.8 -182.45,289.5 -183.8,293.65 -184.75,298.3 -185.05,299.9 -185.25,301.55 -182.55,300.9 -180.4,300.45 -177.85,299.65 -175.5,298.45 -173.15,297.3 -170.85,295.95 -171.8,288.35 -169.2,283.75 -166.65,279.1 -165.1,277.3 -163.55,275.45 -162.4,274.95 -162.1,274.75 -161.75,274.75 -158.55,276.55 -159.1,280.2 -159.75,283.85 -161.75,286.9 -163.55,289.85 -165.95,291.85 -168.4,293.9 -170.85,295.95 -170.85,298.15 -170,300.25 -169.2,302.15 -167.35,302.75 -165.95,303.1 -164.55,302.25 -161.15,300.5 -158.95,297.45 -158.65,297.1 -158.45,296.7 -157.15,294.85 -155.95,292.9 -155.75,292.5 -155.45,292.05 -154.6,290.55 -153.6,289.05 L-153.55,289 Q-152.25,285.05 -149.7,281.75 -147,278.4 -143.15,276.1 -142.05,275.6 -137.85,275.3 M-153.6,289.05 Q-154.2,291 -154.5,292.9 -154.7,294.05 -154.75,295.15 -154.9,297.3 -153.35,298.95 -152.6,299.8 -151.65,300.5 -150.3,301.5 -148.85,300.85 -147.6,300.45 -146.65,299.45 -145.35,298.15 -144.5,296.5 -143.55,294.75 -142.75,292.9 -142.6,292.45 -142.4,292 -141.35,289.15 -140.5,286.25 -139.5,282.9 -138.4,279.6 -137.9,278 -137.2,276.2 -137.15,276.05 -137.05,275.9 -137.15,277.1 -137.4,278 -138.8,282.25 -139.55,286.35 -140.1,289.65 -140.2,292.9 -140.25,294.4 -140.15,295.85 -139.05,294.4 -137.95,292.9 -137.6,292.4 -137.2,291.95 -135.2,289.05 -133.05,286.55 -131.75,285.05 -130.35,283.75 -127.7,281.4 -124.45,279.6 -121.9,276.55 -118.15,275.6 -118.05,275.65 -116.45,276.35 M-124.45,279.6 Q-126.7,282.1 -128.35,284.65 -130,287.15 -131.35,290.05 -131.95,291.5 -132.3,292.9 -132.35,293.05 -132.4,293.25 -133.8,300.5 -126.95,299.45 -125.25,299.2 -123.65,298.1 -122.6,297.25 -121.55,296.45 -120.55,295.65 -119.95,294.6 -119.45,293.8 -119.05,292.9 -118.95,292.65 -118.8,292.3 -117.55,288.9 -116.8,285.6 L-116.6,284.4 Q-116.3,281.75 -116,278.9 -115.95,278.05 -115.65,277.3 -115.5,276.9 -115.25,276.7 L-115.25,276.8 -116.6,284.4 M-220.1,339.3 Q-217.7,337.15 -215.15,335.65 -213,334.35 -210.7,333.3 -208.05,331.85 -205.25,330.8 -202.35,329.5 -199.4,328.4 -196.75,327.5 -194.1,326.7 -190.8,325.7 -187.5,325.1 -185.8,324.9 -184,324.7 M-140.15,295.85 Q-140.15,298 -140.2,300.15 -140.4,303.8 -140.7,307.5 -140.9,309.3 -141.35,311.25 -142.1,314.55 -143.05,317.9 -143.8,320.55 -144.65,323.15 -145.7,326.8 -147.15,330.15 -148,332.15 -148.95,334.1 -150.6,337.45 -152.35,340.8 -153,342.05 -153.8,343.2 -154.75,344.45 -155.8,345.6 -158.4,348.15 -161.6,349.65 -163.95,350.6 -166.4,351.2 -169.2,351.9 -172,352.3 -174.9,352.25 -177.7,351.9 -180.3,351.2 -182.55,349.85 -184.8,348.6 -186.75,346.95 -189.3,344.75 -188.65,341.45 -188,338.8 -186.1,336.65 -184.6,334.95 -183.05,333.15 -181.85,331.8 -180.65,330.5 -179.55,329.35 -178.45,328.45 -176.05,326.55 -173.85,324.9 -171.1,323.05 -168.4,321.05 -166.75,319.9 -165.1,318.75 -162.05,316.6 -159,314.45 -158.7,314.25 -158.45,314.1 -156.05,312.3 -153.75,310.4 -151.5,308.65 -149.35,306.75 -146.85,304.5 -144.55,301.65 -142.2,298.85 -140.15,295.85Z M-116.8,285.6 Q-117.4,289 -117.3,292.55 -117.3,292.75 -117.25,292.9 -117.15,295.5 -115.8,297.65 -114.65,298 -113.55,297.85 -110.5,297 -109.95,293.95 -109.85,293.45 -109.95,292.95 M-160.95,323.9 L-151.95,323.4 M-214.45,537.3 L-214.45,401.9 -153.3,403.6 -153.3,535.1" test="Mall Front"/>
      <g test="Mall Front">
        <path id="Layer2_0_1_STROKES" stroke="#FFF" stroke-width="1.482" stroke-linejoin="round" stroke-linecap="round" fill="none" d="M-235.857,385.407 L-239.12,385.407 -238.662,379.021 48.79,379.324 41.978,385.407"/>
      </g>
      <g test="Mall Front">
        <path id="Layer3_0_1_STROKES" stroke="#FFF" stroke-width="1.482" stroke-linejoin="round" stroke-linecap="round" fill="none" d="M-240.036,385.272 L42.894,385.306"/>
      </g>
    </g>
  </g>
</svg>