<?xml version="1.0" encoding="utf-8"?>
<svg id="EdithAnim07" image-rendering="inherit" baseProfile="basic" version="1.1" x="0px" y="0px" width="800" height="600" xmlns="http://www.w3.org/2000/svg" xmlns:xlink="http://www.w3.org/1999/xlink">
  <defs>
    <g id="LinePerspective" overflow="visible">
      <path id="Layer4_0_1_STROKES" stroke="#FFF" stroke-width="2" stroke-linejoin="round" stroke-linecap="round" fill="none" d="M-59.65 54.85L59.7 -54.85" test="LinePerspective"/>
    </g>
  </defs>
  <g id="Need-a-mallf8r1" overflow="visible">
    <g id="MallBackAndSide">
      <g id="MallBack">
        <path id="Layer5_0_1_STROKES" stroke="#FFF" stroke-width="2" stroke-linejoin="round" stroke-linecap="round" fill="none" d="M-101.25,182.45 Q-95.4,182.15 63.35,182.8 220.35,183.5 222.8,183.15" test="MallBack"/>
      </g>
      <g id="Mall-Back-right">
        <path id="Layer6_0_1_STROKES" stroke="#FFF" stroke-width="2" stroke-linejoin="round" stroke-linecap="round" fill="none" d="M222.15,183.15 L226.3,472.55" test="Mall Back right"/>
      </g>
    </g>
    <use xlink:href="#LinePerspective" transform="matrix(.893 0 0 .636 174.1 510.65)"/>
    <use xlink:href="#LinePerspective" transform="matrix(.897 0 0 .404 167 206.2)"/>
    <use xlink:href="#LinePerspective" transform="matrix(1.226 0 0 .404 -176.95 206.2)"/>
    <g id="Mall-Front">
      <path id="Layer1_0_1_STROKES" stroke="#FFF" stroke-width="2" stroke-linejoin="round" stroke-linecap="round" fill="none" d="M-246.95,228.35 Q-226.5,226.2 -201,223.9 -149.95,219.3 -124.65,218.8 -96.6,218.25 -33.7,217.7 23.9,217.2 47.75,217.2 66.65,217.2 91.2,219.8 113.25,222.05 116.1,223.55 118.2,224.65 119.15,271.7 120,314.55 119.25,334.75 118.85,345.65 120.05,389.3 121.25,432.65 120.85,442 120.05,461.1 120.05,515.9 120.05,523.45 120.1,535.05 119.95,543.2 118.45,545.3 117.1,547.05 58.85,545.6 55.75,545.55 52.5,545.45 50.25,545.4 48,545.35 47.1,545.35 46.25,545.3 -25.8,542.95 -35.65,542.95 -46.3,542.95 -126.7,542.15 -156.9,541.85 -176.65,541.65 -209.5,541.35 -213.6,541.35 -220.4,541.35 -232.3,543.8 -241.65,545.7 -244.55,544.5 -247.8,543.1 -248.55,489 -249.55,424.05 -250.15,417.4 -251.75,401.05 -250.05,318.1 -248.4,238.25 -246.95,228.35Z" test="Mall Front"/>
      <path id="Layer1_0_2_STROKES" stroke="#F0F" stroke-width="2" stroke-linejoin="round" stroke-linecap="round" fill="none" d="M6.8,284.05 Q9,282.05 11.1,279.95 12.65,278.55 13.9,276.9 16.25,274.1 18.15,270.95 19.8,268.25 20.95,265.35 22.45,261.8 21.5,258 21.4,257.35 21.2,256.8 20.3,256.85 19.4,256.95 18.65,257.2 17.95,257.55 16.45,258.7 15.25,260.15 13.8,262 12.7,264.2 11.3,266.95 10.25,269.9 7.8,276.75 6.8,284.05 6.5,287.2 6.65,290.2 6.7,291.65 7.15,292.9 7.85,295 9.6,296.75 10.3,297.5 11.3,298 14.55,299.7 17.95,297.8 20.95,296.05 23.35,293.5 23.65,293.25 23.9,292.9 25.8,290.85 27.5,288.5 27.85,281.8 30.1,275.45 31.35,272 33,268.75 34.15,266.5 35.75,264.6 37.15,262.95 38.85,261.6 41.2,259.7 44.15,259.5 43.95,260.8 43.65,262 43.3,263.7 42.85,265.35 41.8,268.75 39.95,271.65 37.9,274.75 35.8,277.6 34,280.1 32.15,282.55 29.9,285.6 27.5,288.5 27.3,290.7 27.55,292.9 27.75,294.4 28.2,295.8 29.25,299.5 33.05,300.5 34.9,301 36.85,301.25 40.1,301.6 42.85,299.65 44.8,298.35 46.75,297.05 47.8,296.5 48.5,295.7 49.75,294.35 51,292.9 51.45,292.35 51.9,291.8 M-66.8,299.95 Q-66.05,296.8 -65.3,293.7 -65.2,293.3 -65.1,292.9 -64.3,289.55 -63.5,286.15 -61.8,278.8 -58.15,272.25 -54.55,265.65 -49.25,260.25 -45.35,256.3 -40.45,254 -40.15,261.45 -42.5,268.45 -44.1,273.1 -45.9,277.9 -44.8,275.35 -43.5,272.8 -42.1,269.8 -40,266.65 -38.5,264.3 -36.55,262.5 -36.4,262.3 -36.2,262.15 -34.8,260.95 -33.3,259.65 -30.55,257.35 -27.9,255.4 -25.6,253.55 -22.55,253.65 -22.6,254.9 -22.85,256.1 -22.9,257.05 -23.2,257.95 -24.05,260.85 -24.9,263.3 -26.35,267.65 -27.85,271.65 -30.4,279.05 -33,286.4 -34.05,289.55 -34.8,292.9 -35,293.9 -35.2,294.85 -35.7,297.3 -35.8,299.95 -34.2,298.2 -32.75,296.35 -31.3,294.65 -30,292.9 -29.55,292.3 -29.15,291.7 -27.3,289.15 -25.55,286.55 -23.4,283.35 -20.95,280.25 -18.45,277.05 -15.25,274.55 -13.1,273.1 -10.85,272.25 -10.15,272.05 -6.45,270.8 M-47.6,282.35 L-45.9,277.9 M-15.25,274.55 Q-17.6,276.7 -19.05,279.65 -20.1,281.7 -21.2,283.75 -22.7,286.7 -23.5,289.8 -23.75,290.85 -23.95,291.95 -24,292.4 -24,292.9 -24,293.1 -24,293.3 -23.45,294.4 -22.3,294.8 -21.1,295.2 -19.9,294.65 -18.75,294.1 -17.9,293.15 -17.8,293.05 -17.65,292.9 -15.75,291 -14.15,288.9 -11.15,285.1 -8.4,280.9 -8.15,280.25 -8,279.7 -6.95,276.4 -5.9,273 L-5.9,272.85 Q-5.6,271.85 -5.65,270.8 M-8.4,280.9 Q-6.8,278.55 -6.45,276.2 -6.15,274.6 -5.9,273 M-8.4,280.9 Q-9.45,284.25 -9.9,287.85 -10.1,289.2 -9.65,290.55 -9.1,292.3 -7.55,292.9 -7.15,293.05 -6.75,293.15 -6.5,293.05 -6.3,292.9 -2.75,291.15 .35,289 3.8,286.55 6.8,284.05 M-105.15,322.4 Q-102.4,322.7 -99.9,322.55 -96.6,322.4 -93.35,322.35 -91.4,322.1 -89.45,322 -87.3,321.85 -85.1,321.7 -81.55,321.35 -78,321.05 -75.45,320.75 -72.8,320.55 -70,320.2 -67.2,319.9 -64.2,319.65 -61.2,319.4 -58,319.15 -54.85,318.95 -51.45,318.75 -48.1,318.55 -44.5,318.4 -40.95,318.2 -37.15,318.05 -33.35,318 -31.5,317.95 -29.5,317.9 -27.5,317.9 -25.5,317.9 -23.45,317.85 -21.35,317.75 -19.25,317.75 -17.2,317.75 -13.95,317.75 -10.6,317.75 -7.6,317.75 -4.65,317.9 -1.65,317.9 1.35,317.9 22.55,318 43.65,318 M-21.8,540.15 L-17.45,400.7 52.9,400.7 48.9,542.55 M-102.45,540.55 L-98.05,402.7 -42.05,402.7 -44.8,538.5 M-187.95,303.7 Q-187.15,300.4 -186.35,297.15 -185.4,293.15 -184.55,289.2 -182.7,281.55 -178.9,274.7 -175.15,267.8 -169.6,262.15 -165.45,258 -160.4,255.6 -160.05,263.35 -162.55,270.7 -164.2,275.6 -166.1,280.6 -164.9,277.95 -163.6,275.3 -162.1,272.1 -159.9,268.85 -158.35,266.35 -156.3,264.45 -156.15,264.3 -155.95,264.15 -154.45,262.85 -152.9,261.55 -150.05,259.1 -147.3,257.05 -144.85,255.1 -141.7,255.25 -141.75,256.55 -141.95,257.8 -142.05,258.8 -142.35,259.75 -143.25,262.75 -144.1,265.35 -145.65,269.9 -147.2,274.1 -149.9,281.8 -152.6,289.5 -153.95,293.65 -154.9,298.3 -155.2,299.9 -155.4,301.55 -152.7,300.9 -150.55,300.45 -148,299.65 -145.65,298.45 -143.3,297.3 -141,295.95 -141.95,288.35 -139.35,283.75 -136.8,279.1 -135.25,277.3 -133.7,275.45 -132.55,274.95 -132.25,274.75 -131.9,274.75 -128.7,276.55 -129.25,280.2 -129.9,283.85 -131.9,286.9 -133.7,289.85 -136.1,291.85 -138.55,293.9 -141,295.95 -141,298.15 -140.15,300.25 -139.35,302.15 -137.5,302.75 -136.1,303.1 -134.7,302.25 -131.3,300.5 -129.1,297.45 -128.8,297.1 -128.6,296.7 -127.3,294.85 -126.1,292.9 -125.9,292.5 -125.6,292.05 -124.75,290.55 -123.75,289.05 L-123.7,289 Q-122.4,285.05 -119.85,281.75 -117.15,278.4 -113.3,276.1 -112.2,275.6 -108,275.3 M-123.75,289.05 Q-124.35,291 -124.65,292.9 -124.85,294.05 -124.9,295.15 -125.05,297.3 -123.5,298.95 -122.75,299.8 -121.8,300.5 -120.45,301.5 -119,300.85 -117.75,300.45 -116.8,299.45 -115.5,298.15 -114.65,296.5 -113.7,294.75 -112.9,292.9 -112.75,292.45 -112.55,292 -111.5,289.15 -110.65,286.25 -109.65,282.9 -108.55,279.6 -108.05,278 -107.35,276.2 -107.3,276.05 -107.2,275.9 -107.3,277.1 -107.55,278 -108.95,282.25 -109.7,286.35 -110.25,289.65 -110.35,292.9 -110.4,294.4 -110.3,295.85 -109.2,294.4 -108.1,292.9 -107.75,292.4 -107.35,291.95 -105.35,289.05 -103.2,286.55 -101.9,285.05 -100.5,283.75 -97.85,281.4 -94.6,279.6 -92.05,276.55 -88.3,275.6 -88.2,275.65 -86.6,276.35 M-94.6,279.6 Q-96.85,282.1 -98.5,284.65 -100.15,287.15 -101.5,290.05 -102.1,291.5 -102.45,292.9 -102.5,293.05 -102.55,293.25 -103.95,300.5 -97.1,299.45 -95.4,299.2 -93.8,298.1 -92.75,297.25 -91.7,296.45 -90.7,295.65 -90.1,294.6 -89.6,293.8 -89.2,292.9 -89.1,292.65 -88.95,292.3 -87.7,288.9 -86.95,285.6 L-86.75,284.4 Q-86.45,281.75 -86.15,278.9 -86.1,278.05 -85.8,277.3 -85.65,276.9 -85.4,276.7 L-85.4,276.8 -86.75,284.4 M-190.25,339.3 Q-187.85,337.15 -185.3,335.65 -183.15,334.35 -180.85,333.3 -178.2,331.85 -175.4,330.8 -172.5,329.5 -169.55,328.4 -166.9,327.5 -164.25,326.7 -160.95,325.7 -157.65,325.1 -155.95,324.9 -154.15,324.7 M-110.3,295.85 Q-110.3,298 -110.35,300.15 -110.55,303.8 -110.85,307.5 -111.05,309.3 -111.5,311.25 -112.25,314.55 -113.2,317.9 -113.95,320.55 -114.8,323.15 -115.85,326.8 -117.3,330.15 -118.15,332.15 -119.1,334.1 -120.75,337.45 -122.5,340.8 -123.15,342.05 -123.95,343.2 -124.9,344.45 -125.95,345.6 -128.55,348.15 -131.75,349.65 -134.1,350.6 -136.55,351.2 -139.35,351.9 -142.15,352.3 -145.05,352.25 -147.85,351.9 -150.45,351.2 -152.7,349.85 -154.95,348.6 -156.9,346.95 -159.45,344.75 -158.8,341.45 -158.15,338.8 -156.25,336.65 -154.75,334.95 -153.2,333.15 -152,331.8 -150.8,330.5 -149.7,329.35 -148.6,328.45 -146.2,326.55 -144,324.9 -141.25,323.05 -138.55,321.05 -136.9,319.9 -135.25,318.75 -132.2,316.6 -129.15,314.45 -128.85,314.25 -128.6,314.1 -126.2,312.3 -123.9,310.4 -121.65,308.65 -119.5,306.75 -117,304.5 -114.7,301.65 -112.35,298.85 -110.3,295.85Z M-86.95,285.6 Q-87.55,289 -87.45,292.55 -87.45,292.75 -87.4,292.9 -87.3,295.5 -85.95,297.65 -84.8,298 -83.7,297.85 -80.65,297 -80.1,293.95 -80,293.45 -80.1,292.95 M-131.1,323.9 L-122.1,323.4 M-184.6,537.3 L-184.6,401.9 -123.45,403.6 -123.45,535.1" test="Mall Front"/>
      <g test="Mall Front">
        <path id="Layer2_0_1_STROKES" stroke="#FFF" stroke-width="1.482" stroke-linejoin="round" stroke-linecap="round" fill="none" d="M-206.007,385.407 L-209.27,385.407 -208.812,379.021 78.64,379.324 71.828,385.407"/>
      </g>
      <g test="Mall Front">
        <path id="Layer3_0_1_STROKES" stroke="#FFF" stroke-width="1.482" stroke-linejoin="round" stroke-linecap="round" fill="none" d="M-210.186,385.272 L72.744,385.306"/>
      </g>
    </g>
  </g>
</svg>