<?xml version="1.0" encoding="utf-8"?>
<svg id="EdithAnim07" image-rendering="inherit" baseProfile="basic" version="1.1" x="0px" y="0px" width="800" height="600" xmlns="http://www.w3.org/2000/svg" xmlns:xlink="http://www.w3.org/1999/xlink">
  <defs>
    <g id="LinePerspective" overflow="visible">
      <path id="Layer4_0_1_STROKES" stroke="#FFF" stroke-width="2" stroke-linejoin="round" stroke-linecap="round" fill="none" d="M-59.65 54.85L59.7 -54.85" test="LinePerspective"/>
    </g>
  </defs>
  <g id="Need-a-mallf9r1" overflow="visible">
    <g id="MallBackAndSide">
      <g id="MallBack">
        <path id="Layer5_0_1_STROKES" stroke="#FFF" stroke-width="2" stroke-linejoin="round" stroke-linecap="round" fill="none" d="M-77.5,182.45 Q-71.65,182.15 87.1,182.8 244.1,183.5 246.55,183.15" test="MallBack"/>
      </g>
      <g id="Mall-Back-right">
        <path id="Layer6_0_1_STROKES" stroke="#FFF" stroke-width="2" stroke-linejoin="round" stroke-linecap="round" fill="none" d="M245.9,183.15 L250.05,472.55" test="Mall Back right"/>
      </g>
    </g>
    <use xlink:href="#LinePerspective" transform="matrix(.854 0 0 .639 200.3 510.55)"/>
    <use xlink:href="#LinePerspective" transform="matrix(.858 0 0 .406 193.15 206.1)"/>
    <use xlink:href="#LinePerspective" transform="matrix(1.187 0 0 .406 -150.8 206.1)"/>
    <g id="Mall-Front">
      <path id="Layer1_0_1_STROKES" stroke="#FFF" stroke-width="2" stroke-linejoin="round" stroke-linecap="round" fill="none" d="M-218.45,228.35 Q-198,226.2 -172.5,223.9 -121.45,219.3 -96.15,218.8 -68.1,218.25 -5.2,217.7 52.4,217.2 76.25,217.2 95.15,217.2 119.7,219.8 141.75,222.05 144.6,223.55 146.7,224.65 147.65,271.7 148.5,314.55 147.75,334.75 147.35,345.65 148.55,389.3 149.75,432.65 149.35,442 148.55,461.1 148.55,515.9 148.55,523.45 148.6,535.05 148.45,543.2 146.95,545.3 145.6,547.05 87.35,545.6 84.25,545.55 81,545.45 78.75,545.4 76.5,545.35 75.6,545.35 74.75,545.3 2.7,542.95 -7.15,542.95 -17.8,542.95 -98.2,542.15 -128.4,541.85 -148.15,541.65 -181,541.35 -185.1,541.35 -191.9,541.35 -203.8,543.8 -213.15,545.7 -216.05,544.5 -219.3,543.1 -220.05,489 -221.05,424.05 -221.65,417.4 -223.25,401.05 -221.55,318.1 -219.9,238.25 -218.45,228.35Z" test="Mall Front"/>
      <path id="Layer1_0_2_STROKES" stroke="#F0F" stroke-width="2" stroke-linejoin="round" stroke-linecap="round" fill="none" d="M35.3,284.05 Q37.5,282.05 39.6,279.95 41.15,278.55 42.4,276.9 44.75,274.1 46.65,270.95 48.3,268.25 49.45,265.35 50.95,261.8 50,258 49.9,257.35 49.7,256.8 48.8,256.85 47.9,256.95 47.15,257.2 46.45,257.55 44.95,258.7 43.75,260.15 42.3,262 41.2,264.2 39.8,266.95 38.75,269.9 36.3,276.75 35.3,284.05 35,287.2 35.15,290.2 35.2,291.65 35.65,292.9 36.35,295 38.1,296.75 38.8,297.5 39.8,298 43.05,299.7 46.45,297.8 49.45,296.05 51.85,293.5 52.15,293.25 52.4,292.9 54.3,290.85 56,288.5 56.35,281.8 58.6,275.45 59.85,272 61.5,268.75 62.65,266.5 64.25,264.6 65.65,262.95 67.35,261.6 69.7,259.7 72.65,259.5 72.45,260.8 72.15,262 71.8,263.7 71.35,265.35 70.3,268.75 68.45,271.65 66.4,274.75 64.3,277.6 62.5,280.1 60.65,282.55 58.4,285.6 56,288.5 55.8,290.7 56.05,292.9 56.25,294.4 56.7,295.8 57.75,299.5 61.55,300.5 63.4,301 65.35,301.25 68.6,301.6 71.35,299.65 73.3,298.35 75.25,297.05 76.3,296.5 77,295.7 78.25,294.35 79.5,292.9 79.95,292.35 80.4,291.8 M-38.3,299.95 Q-37.55,296.8 -36.8,293.7 -36.7,293.3 -36.6,292.9 -35.8,289.55 -35,286.15 -33.3,278.8 -29.65,272.25 -26.05,265.65 -20.75,260.25 -16.85,256.3 -11.95,254 -11.65,261.45 -14,268.45 -15.6,273.1 -17.4,277.9 -16.3,275.35 -15,272.8 -13.6,269.8 -11.5,266.65 -10,264.3 -8.05,262.5 -7.9,262.3 -7.7,262.15 -6.3,260.95 -4.8,259.65 -2.05,257.35 .6,255.4 2.9,253.55 5.95,253.65 5.9,254.9 5.65,256.1 5.6,257.05 5.3,257.95 4.45,260.85 3.6,263.3 2.15,267.65 .65,271.65 -1.9,279.05 -4.5,286.4 -5.55,289.55 -6.3,292.9 -6.5,293.9 -6.7,294.85 -7.2,297.3 -7.3,299.95 -5.7,298.2 -4.25,296.35 -2.8,294.65 -1.5,292.9 -1.05,292.3 -.65,291.7 1.2,289.15 2.95,286.55 5.1,283.35 7.55,280.25 10.05,277.05 13.25,274.55 15.4,273.1 17.65,272.25 18.35,272.05 22.05,270.8 M-19.1,282.35 L-17.4,277.9 M13.25,274.55 Q10.9,276.7 9.45,279.65 8.4,281.7 7.3,283.75 5.8,286.7 5,289.8 4.75,290.85 4.55,291.95 4.5,292.4 4.5,292.9 4.5,293.1 4.5,293.3 5.05,294.4 6.2,294.8 7.4,295.2 8.6,294.65 9.75,294.1 10.6,293.15 10.7,293.05 10.85,292.9 12.75,291 14.35,288.9 17.35,285.1 20.1,280.9 20.35,280.25 20.5,279.7 21.55,276.4 22.6,273 L22.6,272.85 Q22.9,271.85 22.85,270.8 M20.1,280.9 Q21.7,278.55 22.05,276.2 22.35,274.6 22.6,273 M20.1,280.9 Q19.05,284.25 18.6,287.85 18.4,289.2 18.85,290.55 19.4,292.3 20.95,292.9 21.35,293.05 21.75,293.15 22,293.05 22.2,292.9 25.75,291.15 28.85,289 32.3,286.55 35.3,284.05 M-76.65,322.4 Q-73.9,322.7 -71.4,322.55 -68.1,322.4 -64.85,322.35 -62.9,322.1 -60.95,322 -58.8,321.85 -56.6,321.7 -53.05,321.35 -49.5,321.05 -46.95,320.75 -44.3,320.55 -41.5,320.2 -38.7,319.9 -35.7,319.65 -32.7,319.4 -29.5,319.15 -26.35,318.95 -22.95,318.75 -19.6,318.55 -16,318.4 -12.45,318.2 -8.65,318.05 -4.85,318 -3,317.95 -1,317.9 1,317.9 3,317.9 5.05,317.85 7.15,317.75 9.25,317.75 11.3,317.75 14.55,317.75 17.9,317.75 20.9,317.75 23.85,317.9 26.85,317.9 29.85,317.9 51.05,318 72.15,318 M6.7,540.15 L11.05,400.7 81.4,400.7 77.4,542.55 M-73.95,540.55 L-69.55,402.7 -13.55,402.7 -16.3,538.5 M-159.45,303.7 Q-158.65,300.4 -157.85,297.15 -156.9,293.15 -156.05,289.2 -154.2,281.55 -150.4,274.7 -146.65,267.8 -141.1,262.15 -136.95,258 -131.9,255.6 -131.55,263.35 -134.05,270.7 -135.7,275.6 -137.6,280.6 -136.4,277.95 -135.1,275.3 -133.6,272.1 -131.4,268.85 -129.85,266.35 -127.8,264.45 -127.65,264.3 -127.45,264.15 -125.95,262.85 -124.4,261.55 -121.55,259.1 -118.8,257.05 -116.35,255.1 -113.2,255.25 -113.25,256.55 -113.45,257.8 -113.55,258.8 -113.85,259.75 -114.75,262.75 -115.6,265.35 -117.15,269.9 -118.7,274.1 -121.4,281.8 -124.1,289.5 -125.45,293.65 -126.4,298.3 -126.7,299.9 -126.9,301.55 -124.2,300.9 -122.05,300.45 -119.5,299.65 -117.15,298.45 -114.8,297.3 -112.5,295.95 -113.45,288.35 -110.85,283.75 -108.3,279.1 -106.75,277.3 -105.2,275.45 -104.05,274.95 -103.75,274.75 -103.4,274.75 -100.2,276.55 -100.75,280.2 -101.4,283.85 -103.4,286.9 -105.2,289.85 -107.6,291.85 -110.05,293.9 -112.5,295.95 -112.5,298.15 -111.65,300.25 -110.85,302.15 -109,302.75 -107.6,303.1 -106.2,302.25 -102.8,300.5 -100.6,297.45 -100.3,297.1 -100.1,296.7 -98.8,294.85 -97.6,292.9 -97.4,292.5 -97.1,292.05 -96.25,290.55 -95.25,289.05 L-95.2,289 Q-93.9,285.05 -91.35,281.75 -88.65,278.4 -84.8,276.1 -83.7,275.6 -79.5,275.3 M-95.25,289.05 Q-95.85,291 -96.15,292.9 -96.35,294.05 -96.4,295.15 -96.55,297.3 -95,298.95 -94.25,299.8 -93.3,300.5 -91.95,301.5 -90.5,300.85 -89.25,300.45 -88.3,299.45 -87,298.15 -86.15,296.5 -85.2,294.75 -84.4,292.9 -84.25,292.45 -84.05,292 -83,289.15 -82.15,286.25 -81.15,282.9 -80.05,279.6 -79.55,278 -78.85,276.2 -78.8,276.05 -78.7,275.9 -78.8,277.1 -79.05,278 -80.45,282.25 -81.2,286.35 -81.75,289.65 -81.85,292.9 -81.9,294.4 -81.8,295.85 -80.7,294.4 -79.6,292.9 -79.25,292.4 -78.85,291.95 -76.85,289.05 -74.7,286.55 -73.4,285.05 -72,283.75 -69.35,281.4 -66.1,279.6 -63.55,276.55 -59.8,275.6 -59.7,275.65 -58.1,276.35 M-66.1,279.6 Q-68.35,282.1 -70,284.65 -71.65,287.15 -73,290.05 -73.6,291.5 -73.95,292.9 -74,293.05 -74.05,293.25 -75.45,300.5 -68.6,299.45 -66.9,299.2 -65.3,298.1 -64.25,297.25 -63.2,296.45 -62.2,295.65 -61.6,294.6 -61.1,293.8 -60.7,292.9 -60.6,292.65 -60.45,292.3 -59.2,288.9 -58.45,285.6 L-58.25,284.4 Q-57.95,281.75 -57.65,278.9 -57.6,278.05 -57.3,277.3 -57.15,276.9 -56.9,276.7 L-56.9,276.8 -58.25,284.4 M-161.75,339.3 Q-159.35,337.15 -156.8,335.65 -154.65,334.35 -152.35,333.3 -149.7,331.85 -146.9,330.8 -144,329.5 -141.05,328.4 -138.4,327.5 -135.75,326.7 -132.45,325.7 -129.15,325.1 -127.45,324.9 -125.65,324.7 M-81.8,295.85 Q-81.8,298 -81.85,300.15 -82.05,303.8 -82.35,307.5 -82.55,309.3 -83,311.25 -83.75,314.55 -84.7,317.9 -85.45,320.55 -86.3,323.15 -87.35,326.8 -88.8,330.15 -89.65,332.15 -90.6,334.1 -92.25,337.45 -94,340.8 -94.65,342.05 -95.45,343.2 -96.4,344.45 -97.45,345.6 -100.05,348.15 -103.25,349.65 -105.6,350.6 -108.05,351.2 -110.85,351.9 -113.65,352.3 -116.55,352.25 -119.35,351.9 -121.95,351.2 -124.2,349.85 -126.45,348.6 -128.4,346.95 -130.95,344.75 -130.3,341.45 -129.65,338.8 -127.75,336.65 -126.25,334.95 -124.7,333.15 -123.5,331.8 -122.3,330.5 -121.2,329.35 -120.1,328.45 -117.7,326.55 -115.5,324.9 -112.75,323.05 -110.05,321.05 -108.4,319.9 -106.75,318.75 -103.7,316.6 -100.65,314.45 -100.35,314.25 -100.1,314.1 -97.7,312.3 -95.4,310.4 -93.15,308.65 -91,306.75 -88.5,304.5 -86.2,301.65 -83.85,298.85 -81.8,295.85Z M-58.45,285.6 Q-59.05,289 -58.95,292.55 -58.95,292.75 -58.9,292.9 -58.8,295.5 -57.45,297.65 -56.3,298 -55.2,297.85 -52.15,297 -51.6,293.95 -51.5,293.45 -51.6,292.95 M-102.6,323.9 L-93.6,323.4 M-156.1,537.3 L-156.1,401.9 -94.95,403.6 -94.95,535.1" test="Mall Front"/>
      <g test="Mall Front">
        <path id="Layer2_0_1_STROKES" stroke="#FFF" stroke-width="1.482" stroke-linejoin="round" stroke-linecap="round" fill="none" d="M-177.507,385.407 L-180.77,385.407 -180.312,379.021 107.14,379.324 100.328,385.407"/>
      </g>
      <g test="Mall Front">
        <path id="Layer3_0_1_STROKES" stroke="#FFF" stroke-width="1.482" stroke-linejoin="round" stroke-linecap="round" fill="none" d="M-181.686,385.272 L101.244,385.306"/>
      </g>
    </g>
  </g>
</svg>