<?xml version="1.0" encoding="utf-8"?>
<svg id="EdithAnim08" image-rendering="inherit" baseProfile="basic" version="1.1" x="0px" y="0px" width="800" height="600" xmlns="http://www.w3.org/2000/svg" xmlns:xlink="http://www.w3.org/1999/xlink">
  <g id="Ronaldf0r1" overflow="visible">
    <g id="Ronaldf0r2">
      <g id="RonaldFacef0r1">
        <path id="Layer2_0_1_STROKES" stroke="#F00" stroke-width="3.566" stroke-linejoin="round" stroke-linecap="round" fill="none" d="M-223.284,279.949 Q-221.322,285.387 -214.101,287.972 -206.88,290.647 -192.794,290.647 -173.092,290.647 -169.526,288.685 -168.367,288.061 -165.96,286.189 -162.929,284.317 -157.134,282.623 -151.964,281.108 -150.002,275.759 -148.219,270.677 -148.219,258 -148.219,257.216 -152.231,252.758 -156.243,248.211 -156.243,246.963 -156.243,242.952 -152.231,236.889 -148.219,230.827 -148.219,224.23 -148.219,221.199 -153.123,212.016 -158.026,202.923 -158.026,202.388 -158.026,197.307 -151.34,191.155 -144.653,185.004 -144.653,181.438 -144.653,177.426 -152.677,166.461 -160.7,155.585 -160.7,155.139 -156.243,130.801 -156.243,126.611 -156.243,118.587 -159.452,114.486 -160.611,113.06 -166.495,108.959 -176.747,101.738 -176.747,81.144 -176.747,76.063 -181.026,70.981 -185.751,65.365 -193.686,62.423 -197.43,61.175 -198.5,60.907 -199.926,60.372 -200.372,59.213 -200.996,53.419 -202.601,42.81 -204.562,29.348 -215.706,22.305 -225.512,16.065 -240.044,16.065 -240.579,16.065 -249.761,18.294 -258.944,20.522 -260.103,20.522 -265.451,20.522 -274.901,16.065 -284.44,11.607 -296.743,11.607 -299.418,11.607 -305.747,15.619 -312.077,19.631 -313.236,19.631 -320.903,19.631 -334.186,11.607 -347.559,3.584 -354.691,3.584 -362.714,3.584 -367.885,5.813 -372.966,8.041 -376.532,8.041 -376.711,8.041 -391.242,4.03 -405.684,.018 -413.975,.018 -415.848,.018 -431.36,14.371 -448.031,29.705 -457.659,33.003 -489.842,43.88 -495.458,59.392 -497.509,64.919 -496.974,73.745 -496.707,78.648 -495.993,89.168 -495.993,91.397 -500.718,94.428 -507.315,98.172 -511.149,100.579 -526.304,110.207 -526.304,123.045 -526.304,124.204 -525.413,128.215 -524.521,132.227 -524.521,133.297 -524.521,136.15 -529.514,141.231 -532.545,144.352 -540.568,151.573 -556.615,166.728 -556.615,178.318 -556.615,186.876 -546.363,191.958 -540.568,194.721 -539.32,195.702 -536.111,198.109 -536.111,201.497 -536.111,202.388 -541.46,212.373 -546.809,222.269 -546.809,227.796 -546.809,233.858 -541.46,239.118 -536.111,244.378 -536.111,247.409 -536.111,252.045 -538.785,258.285 -541.46,264.437 -541.46,267.022 -541.46,272.014 -538.785,273.708 -537.181,274.689 -532.991,275.759 -524.521,279.236 -524.521,299.562 M-523.63,295.104 Q-513.734,299.027 -512.397,299.473 -509.188,300.453 -504.908,300.453 -487.881,300.453 -484.582,288.953 -483.423,284.941 -482.977,276.204 -482.353,264.972 -481.729,260.336 -481.819,254.898 -481.64,251.153 -481.373,244.2 -479.055,242.506 -473.617,238.494 -467.109,227.261 -461.581,217.9 -460.333,213.086 -457.659,202.745 -454.984,197.752 -449.903,188.124 -439.829,181.884 -433.588,177.961 -431.181,169.938 -429.309,164.054 -430.022,158.705 -426.1,149.255 -424.317,146.402 -420.751,141.053 -413.975,137.309 -408.716,134.367 -404.169,127.235 -400.335,121.262 -398.374,121.262 -398.196,121.262 -390.886,125.719 -383.04,130.177 -380.098,130.177 -372.699,130.177 -365.924,127.948 -359.148,125.719 -350.233,125.719 -343.279,125.719 -334.364,128.84 -325.539,131.96 -322.597,131.96 -315.465,131.96 -302.181,127.057 -288.898,122.153 -280.25,122.153 -269.285,122.153 -265.808,124.739 -263.579,126.432 -263.134,131.514 -262.688,137.665 -260.816,140.964 -260.548,141.41 -260.281,141.766 -260.103,142.034 -259.924,142.212 -256.18,147.383 -247.176,151.573 -251.366,155.05 -252.346,156.565 -253.416,158.081 -253.416,160.934 -253.416,167.085 -245.749,171.275 -241.024,173.949 -227.563,179.209 -232.823,184.469 -241.559,190.888 -245.393,193.652 -245.393,197.485 -245.393,210.412 -228.633,219.238 -220.252,223.606 -211.516,225.567 L-213.745,238.761 Q-215.973,252.223 -215.973,254.095 -215.973,263.278 -219.985,268.181 -223.997,273.084 -223.997,275.491 -223.997,277.898 -223.284,279.949 M-401.494,311.151 Q-410.499,312.578 -412.282,315.787 -413.084,317.124 -413.084,325.415 -413.084,333.617 -406.041,352.071 -396.769,376.766 -396.145,378.994 -391.42,395.844 -376.176,402.53 -364.765,407.522 -344.438,407.522 -323.666,407.522 -303.519,403.689 -276.863,398.518 -268.661,388.801 -265.184,384.7 -263.579,369.277 -262.42,351.893 -261.44,345.92 -260.103,338.609 -256.091,323.9 -253.416,314.182 -253.416,305.357 -253.416,300.364 -260.548,298.67 -264.293,297.779 -271.781,297.779 -278.824,297.779 -286.937,300.275 -287.828,300.542 -302.181,305.802 -324.112,313.826 -347.113,313.826 -359.326,313.826 -375.908,311.597 -392.401,309.368 -398.82,309.368 M-172.736,493.641 Q-186.821,486.866 -213.745,486.866 -238.528,486.866 -257.874,501.13 -281.142,518.336 -281.142,548.379 -281.142,577.175 -248.959,586.714 -233.803,591.171 -205.275,591.171 -177.46,591.171 -161.592,582.256 -142.87,571.737 -142.87,549.717 -142.87,535.809 -148.754,524.487 -151.696,518.782 -155.173,515.84 -158.204,500.684 -172.736,493.641Z" test="RonaldFace"/>
        <path id="Layer2_0_2_STROKES" stroke="#FFF" stroke-width="3.566" stroke-linejoin="round" stroke-linecap="round" fill="none" d="M-223.284,279.949 L-223.016,279.146 M-266.165,142.836 Q-271.068,144.262 -282.033,147.739 -301.201,153.891 -302.538,154.247 -312.879,157.546 -317.872,166.728 -322.597,175.554 -321.259,187.233 M-341.675,232.878 Q-347.648,235.82 -352.105,241.703 -356.028,246.785 -362.268,247.855 -368.955,248.925 -371.629,254.541 -373.858,259.266 -373.858,268.805 -373.858,280.84 -361.823,280.84 -356.384,280.84 -353.443,278.701 -349.966,276.204 -342.655,275.491 -335.613,274.778 -320.814,276.383 -310.383,276.383 -305.212,274.6 -298.08,272.282 -298.08,266.131 -298.08,258.018 -314.751,245.537 -329.996,234.037 -341.675,232.878Z M-482.532,294.302 Q-452.934,315.52 -442.058,347.703 -439.74,354.478 -440.453,361.967 -442.682,386.126 -430.825,404.937 L-411.212,418.31 Q-393.382,435.605 -367.528,437.299 -301.201,441.667 -248.959,406.096 -241.114,400.747 -238.261,391.297 -230.237,364.73 -233.447,336.292 -235.586,317.035 -231.129,299.651 -230.326,296.62 -228.365,294.302 L-223.284,279.949 M-363.16,187.233 Q-366.904,177.605 -371.54,171.721 -376.176,165.837 -382.773,162.271 -390.618,157.902 -392.134,157.457 -393.917,156.922 -401.494,156.922 -416.472,156.922 -425.476,168.155 -432.519,176.891 -435.371,191.69 M-375.641,437.833 Q-369.133,446.214 -368.152,458.427 -367.707,464.668 -368.509,469.927 M-285.599,428.918 Q-286.491,434.267 -286.491,440.954 -286.491,450.225 -283.906,453.167 -278.289,459.675 -276.684,462.795" test="RonaldFace"/>
        <path id="Layer2_0_3_STROKES" stroke="#F0C" stroke-width="3.566" stroke-linejoin="round" stroke-linecap="round" fill="none" d="M-266.165,142.836 Q-262.777,141.766 -262.42,141.766 L-260.281,141.766 M-259.924,142.212 Q-260.637,142.39 -261.618,142.658 -265.006,143.549 -266.165,142.836" test="RonaldFace"/>
        <path id="Layer2_0_4_STROKES" stroke="#F0F" stroke-width="3.566" stroke-linejoin="round" stroke-linecap="round" fill="none" d="M-276.684,462.795 L-276.684,461.012" test="RonaldFace"/>
        <path id="Layer2_0_5_STROKES" stroke="#FF0" stroke-width="3.566" stroke-linejoin="round" stroke-linecap="round" fill="none" d="M-64.329,528.499 Q-77.167,521.545 -92.055,514.413 -156.243,483.478 -234.695,459.229 L-241.024,459.229 Q-240.935,460.477 -240.935,461.904 -240.935,470.997 -258.052,475.811 -283.103,481.16 -298.972,485.974 -305.391,487.847 -328.213,490.878 -352.016,493.998 -362.268,493.998 -382.149,493.998 -391.688,489.54 -401.494,484.994 -401.494,475.276 -401.494,466.183 -388.746,460.656 -374.66,456.377 -372.075,454.772 M-427.348,473.493 Q-464.88,484.994 -480.749,491.056 -509.633,502.2 -525.413,514.502 -535.754,522.526 -554.208,541.693 -563.302,551.143 -571.771,559.969 M-284.708,446.748 L-255.199,446.748 Q-242.094,445.055 -241.024,459.229 L-242.718,459.229 M-253.416,561.752 Q-253.327,561.306 -253.327,560.86 -250.474,536.344 -243.431,520.654 -234.338,500.238 -219.985,500.238 -213.566,500.238 -211.872,516.196 -211.248,521.813 -211.337,526.716 -209.822,519.495 -206.256,513.433 -199.57,502.021 -189.228,502.021 -178.441,502.021 -175.856,515.483 -174.964,520.297 -174.964,542.585 -174.964,553.372 -176.301,565.853 -177.015,572.896 -177.371,576.105 -177.639,578.601 -177.639,578.69 M-211.337,526.716 Q-211.337,532.867 -212.407,537.681 L-212.407,538.573" test="RonaldFace"/>
        <path id="Layer1_0_1_STROKES" stroke="#FFF" stroke-width="3.566" stroke-linejoin="round" stroke-linecap="round" fill="none" d="M-283.906,188.57 Q-281.499,196.861 -283.371,205.063 -284.173,208.361 -284.797,211.749 M-406.933,207.292 Q-402.475,218.435 -405.417,230.114 -405.952,232.343 -406.398,234.571 M-329.372,349.753 Q-336.95,352.428 -343.903,357.509 -344.528,357.777 -344.973,358.222" test="RonaldFace"/>
      </g>
    </g>
  </g>
</svg>