<?xml version="1.0" encoding="utf-8"?>
<svg id="EdithAnim08" image-rendering="inherit" baseProfile="basic" version="1.1" x="0px" y="0px" width="800" height="600" xmlns="http://www.w3.org/2000/svg" xmlns:xlink="http://www.w3.org/1999/xlink">
  <g id="Ronaldf10r1" overflow="visible">
    <g id="Ronaldf0r1">
      <g id="RonaldFacef0r1">
        <path id="Layer2_0_1_STROKES" stroke="#F00" stroke-width="2.87" stroke-linejoin="round" stroke-linecap="round" fill="none" d="M0.12,272.144 Q1.699,276.52 7.51,278.601 13.322,280.754 24.659,280.754 40.515,280.754 43.385,279.175 44.318,278.673 46.256,277.166 48.695,275.66 53.359,274.296 57.52,273.077 59.099,268.772 60.534,264.682 60.534,255.283 60.534,253.848 57.305,250.26 54.076,246.601 54.076,245.596 54.076,242.367 57.305,237.489 60.534,232.61 60.534,227.3 60.534,224.86 56.588,217.47 52.641,210.152 52.641,209.721 52.641,205.632 58.023,200.681 63.404,195.73 63.404,192.86 63.404,189.631 56.946,180.806 50.489,172.052 50.489,171.694 54.076,152.106 54.076,148.734 54.076,142.276 51.493,138.976 50.56,137.828 45.825,134.527 37.574,128.715 37.574,112.141 37.574,108.052 34.13,103.962 30.327,99.441 23.941,97.074 20.928,96.069 20.067,95.854 18.919,95.423 18.56,94.491 18.058,89.827 16.766,81.289 15.188,70.454 6.219,64.786 -1.674,59.764 -13.369,59.764 -13.799,59.764 -21.19,61.557 -28.58,63.351 -29.513,63.351 -33.817,63.351 -41.423,59.764 -49.1,56.176 -59.002,56.176 -61.154,56.176 -66.248,59.405 -71.343,62.634 -72.276,62.634 -78.446,62.634 -89.137,56.176 -99.899,49.719 -105.639,49.719 -112.097,49.719 -116.258,51.512 -120.348,53.306 -123.218,53.306 -123.361,53.306 -135.057,50.077 -146.68,46.849 -153.353,46.849 -154.86,46.849 -167.344,58.4 -180.761,70.742 -188.51,73.396 -214.412,82.15 -218.932,94.634 -220.583,99.083 -220.152,106.186 -219.937,110.132 -219.363,118.599 -219.363,120.392 -223.166,122.832 -228.475,125.845 -231.561,127.783 -243.758,135.532 -243.758,145.864 -243.758,146.796 -243.04,150.025 -242.323,153.254 -242.323,154.115 -242.323,156.411 -246.341,160.501 -248.781,163.012 -255.238,168.824 -268.153,181.021 -268.153,190.349 -268.153,197.237 -259.902,201.326 -255.238,203.551 -254.233,204.34 -251.651,206.277 -251.651,209.004 -251.651,209.721 -255.955,217.757 -260.261,225.722 -260.261,230.17 -260.261,235.049 -255.955,239.282 -251.651,243.515 -251.651,245.955 -251.651,249.686 -253.803,254.709 -255.955,259.659 -255.955,261.74 -255.955,265.758 -253.803,267.121 -252.511,267.911 -249.139,268.772 -242.323,271.57 -242.323,287.929 M-241.605,284.341 Q-233.641,287.498 -232.565,287.857 -229.982,288.646 -226.538,288.646 -212.834,288.646 -210.179,279.391 -209.246,276.162 -208.888,269.13 -208.385,260.09 -207.883,256.359 -207.955,251.982 -207.811,248.969 -207.596,243.372 -205.73,242.009 -201.354,238.78 -196.116,229.74 -191.668,222.206 -190.663,218.331 -188.51,210.008 -186.358,205.99 -182.268,198.241 -174.16,193.219 -169.138,190.062 -167.201,183.604 -165.694,178.869 -166.268,174.564 -163.111,166.958 -161.676,164.662 -158.806,160.357 -153.353,157.344 -149.12,154.976 -145.461,149.236 -142.375,144.429 -140.797,144.429 -140.653,144.429 -134.77,148.016 -128.456,151.604 -126.088,151.604 -120.133,151.604 -114.68,149.81 -109.227,148.016 -102.052,148.016 -96.455,148.016 -89.28,150.527 -82.177,153.039 -79.809,153.039 -74.069,153.039 -63.378,149.092 -52.688,145.146 -45.728,145.146 -36.903,145.146 -34.104,147.227 -32.311,148.59 -31.952,152.68 -31.593,157.631 -30.086,160.285 -29.871,160.644 -29.656,160.931 -29.513,161.147 -29.369,161.29 -26.355,165.452 -19.109,168.824 -22.481,171.622 -23.27,172.842 -24.131,174.062 -24.131,176.358 -24.131,181.308 -17.961,184.681 -14.158,186.833 -3.324,191.066 -7.557,195.3 -14.589,200.465 -17.674,202.69 -17.674,205.775 -17.674,216.179 -4.185,223.282 2.56,226.798 9.591,228.376 L7.797,238.995 Q6.004,249.83 6.004,251.336 6.004,258.727 2.775,262.673 -.454,266.619 -.454,268.556 -.454,270.494 .12,272.144 M-143.308,297.256 Q-150.555,298.404 -151.99,300.987 -152.635,302.064 -152.635,308.736 -152.635,315.337 -146.967,330.19 -139.505,350.064 -139.003,351.858 -135.2,365.419 -122.931,370.8 -113.747,374.818 -97.388,374.818 -80.67,374.818 -64.455,371.733 -43.001,367.571 -36.401,359.751 -33.602,356.45 -32.311,344.037 -31.378,330.046 -30.589,325.239 -29.513,319.355 -26.284,307.517 -24.131,299.696 -24.131,292.593 -24.131,288.575 -29.871,287.211 -32.885,286.494 -38.912,286.494 -44.58,286.494 -51.109,288.503 -51.827,288.718 -63.378,292.951 -81.029,299.409 -99.541,299.409 -109.37,299.409 -122.716,297.615 -135.99,295.821 -141.156,295.821 M40.802,444.129 Q29.466,438.676 7.797,438.676 -12.149,438.676 -27.719,450.155 -46.446,464.003 -46.446,488.183 -46.446,511.358 -20.544,519.035 -8.346,522.623 14.614,522.623 37,522.623 49.771,515.448 64.839,506.982 64.839,489.259 64.839,478.066 60.103,468.954 57.736,464.362 54.937,461.994 52.498,449.797 40.802,444.129Z" test="RonaldFace"/>
        <path id="Layer2_0_2_STROKES" stroke="#FFF" stroke-width="2.87" stroke-linejoin="round" stroke-linecap="round" fill="none" d="M0.12,272.144 L0.335,271.498 M-34.391,161.792 Q-38.338,162.94 -47.163,165.739 -62.589,170.689 -63.666,170.976 -71.988,173.631 -76.006,181.021 -79.809,188.124 -78.733,197.524 M-95.164,234.26 Q-99.971,236.628 -103.559,241.363 -106.715,245.453 -111.738,246.314 -117.119,247.175 -119.272,251.695 -121.066,255.498 -121.066,263.175 -121.066,272.861 -111.379,272.861 -107.003,272.861 -104.635,271.139 -101.836,269.13 -95.953,268.556 -90.285,267.982 -78.374,269.274 -69.979,269.274 -65.818,267.839 -60.078,265.973 -60.078,261.022 -60.078,254.493 -73.495,244.448 -85.765,235.193 -95.164,234.26Z M-208.529,283.696 Q-184.708,300.772 -175.954,326.674 -174.089,332.127 -174.663,338.154 -176.456,357.598 -166.914,372.737 L-151.129,383.5 Q-136.779,397.419 -115.971,398.783 -62.589,402.298 -20.544,373.67 -14.23,369.365 -11.934,361.76 -5.476,340.378 -8.059,317.49 -9.781,301.992 -6.194,288.001 -5.548,285.561 -3.97,283.696 L0.12,272.144 M-112.455,197.524 Q-115.469,189.775 -119.2,185.039 -122.931,180.304 -128.24,177.434 -134.555,173.918 -135.774,173.559 -137.209,173.129 -143.308,173.129 -155.362,173.129 -162.609,182.169 -168.277,189.201 -170.573,201.111 M-122.5,399.213 Q-117.263,405.958 -116.473,415.787 -116.115,420.81 -116.761,425.043 M-50.033,392.038 Q-50.75,396.343 -50.75,401.724 -50.75,409.186 -48.67,411.554 -44.149,416.792 -42.858,419.303" test="RonaldFace"/>
        <path id="Layer2_0_3_STROKES" stroke="#F0C" stroke-width="2.87" stroke-linejoin="round" stroke-linecap="round" fill="none" d="M-34.391,161.792 Q-31.665,160.931 -31.378,160.931 L-29.656,160.931 M-29.369,161.29 Q-29.943,161.433 -30.732,161.649 -33.459,162.366 -34.391,161.792" test="RonaldFace"/>
        <path id="Layer2_0_4_STROKES" stroke="#F0F" stroke-width="2.87" stroke-linejoin="round" stroke-linecap="round" fill="none" d="M-42.858,419.303 L-42.858,417.868" test="RonaldFace"/>
        <path id="Layer2_0_5_STROKES" stroke="#FF0" stroke-width="2.87" stroke-linejoin="round" stroke-linecap="round" fill="none" d="M128.051,472.183 Q117.719,466.586 105.736,460.846 54.076,435.949 -9.064,416.433 L-14.158,416.433 Q-14.086,417.438 -14.086,418.586 -14.086,425.904 -27.862,429.779 -48.024,434.083 -60.796,437.958 -65.961,439.465 -84.33,441.904 -103.487,444.415 -111.738,444.415 -127.738,444.415 -135.415,440.828 -143.308,437.169 -143.308,429.348 -143.308,422.03 -133.048,417.581 -121.711,414.137 -119.631,412.846 M-164.115,427.913 Q-194.322,437.169 -207.094,442.048 -230.341,451.017 -243.04,460.918 -251.364,467.376 -266.216,482.802 -273.534,490.407 -280.35,497.511 M-49.316,406.388 L-25.566,406.388 Q-15.019,405.025 -14.158,416.433 L-15.521,416.433 M-24.131,498.946 Q-24.06,498.587 -24.06,498.228 -21.764,478.497 -16.095,465.869 -8.777,449.438 2.775,449.438 7.941,449.438 9.304,462.281 9.807,466.802 9.735,470.748 10.954,464.936 13.825,460.057 19.206,450.873 27.529,450.873 36.21,450.873 38.291,461.707 39.009,465.582 39.009,483.519 39.009,492.201 37.933,502.246 37.358,507.914 37.072,510.497 36.856,512.506 36.856,512.578 M9.735,470.748 Q9.735,475.698 8.874,479.573 L8.874,480.291" test="RonaldFace"/>
        <path id="Layer1_0_1_STROKES" stroke="#FFF" stroke-width="2.87" stroke-linejoin="round" stroke-linecap="round" fill="none" d="M-48.67,198.6 Q-46.732,205.273 -48.239,211.874 -48.885,214.529 -49.387,217.255 M-147.685,213.668 Q-144.097,222.636 -146.465,232.035 -146.895,233.829 -147.254,235.623 M-85.262,328.324 Q-91.361,330.477 -96.958,334.566 -97.46,334.782 -97.818,335.14" test="RonaldFace"/>
      </g>
    </g>
  </g>
</svg>