<?xml version="1.0" encoding="utf-8"?>
<svg id="EdithAnim08" image-rendering="inherit" baseProfile="basic" version="1.1" x="0px" y="0px" width="800" height="600" xmlns="http://www.w3.org/2000/svg" xmlns:xlink="http://www.w3.org/1999/xlink">
  <g id="Ronaldf12r1" overflow="visible">
    <g id="Ronaldf0r1">
      <g id="RonaldFacef0r1">
        <path id="Layer2_0_1_STROKES" stroke="#F00" stroke-width="2.754" stroke-linejoin="round" stroke-linecap="round" fill="none" d="M37.238,270.801 Q38.752,275.001 44.329,276.998 49.906,279.063 60.784,279.063 76,279.063 78.754,277.549 79.649,277.067 81.508,275.621 83.849,274.175 88.324,272.867 92.318,271.696 93.832,267.565 95.209,263.641 95.209,254.622 95.209,253.245 92.111,249.802 89.013,246.291 89.013,245.327 89.013,242.229 92.111,237.547 95.209,232.865 95.209,227.77 95.209,225.429 91.423,218.338 87.636,211.315 87.636,210.902 87.636,206.977 92.8,202.227 97.963,197.476 97.963,194.722 97.963,191.624 91.767,183.155 85.57,174.756 85.57,174.411 89.013,155.615 89.013,152.379 89.013,146.183 86.534,143.016 85.639,141.914 81.095,138.747 73.177,133.17 73.177,117.266 73.177,113.341 69.872,109.417 66.223,105.079 60.096,102.807 57.204,101.843 56.378,101.637 55.276,101.224 54.932,100.329 54.45,95.853 53.211,87.66 51.696,77.264 43.09,71.825 35.516,67.005 24.294,67.005 23.881,67.005 16.789,68.727 9.698,70.448 8.802,70.448 4.671,70.448 -2.627,67.005 -9.994,63.563 -19.495,63.563 -21.56,63.563 -26.449,66.661 -31.337,69.759 -32.232,69.759 -38.153,69.759 -48.412,63.563 -58.739,57.366 -64.247,57.366 -70.444,57.366 -74.437,59.088 -78.362,60.809 -81.116,60.809 -81.253,60.809 -92.476,57.711 -103.63,54.612 -110.033,54.612 -111.478,54.612 -123.458,65.697 -136.333,77.539 -143.769,80.087 -168.624,88.486 -172.961,100.466 -174.545,104.735 -174.132,111.551 -173.925,115.338 -173.375,123.462 -173.375,125.184 -177.024,127.524 -182.119,130.416 -185.079,132.275 -196.784,139.711 -196.784,149.625 -196.784,150.52 -196.095,153.619 -195.407,156.717 -195.407,157.543 -195.407,159.746 -199.262,163.671 -201.603,166.08 -207.8,171.657 -220.193,183.362 -220.193,192.312 -220.193,198.922 -212.275,202.846 -207.8,204.981 -206.836,205.738 -204.357,207.597 -204.357,210.213 -204.357,210.902 -208.488,218.613 -212.619,226.255 -212.619,230.524 -212.619,235.206 -208.488,239.268 -204.357,243.33 -204.357,245.671 -204.357,249.251 -206.423,254.071 -208.488,258.821 -208.488,260.818 -208.488,264.674 -206.423,265.982 -205.183,266.739 -201.947,267.565 -195.407,270.25 -195.407,285.948 M-194.718,282.506 Q-187.076,285.535 -186.043,285.879 -183.564,286.637 -180.26,286.637 -167.109,286.637 -164.562,277.755 -163.667,274.657 -163.322,267.91 -162.841,259.234 -162.359,255.654 -162.427,251.454 -162.29,248.563 -162.083,243.192 -160.293,241.884 -156.093,238.786 -151.067,230.111 -146.798,222.882 -145.835,219.164 -143.769,211.177 -141.704,207.322 -137.779,199.886 -129,195.066 -125.18,192.037 -123.321,185.84 -121.875,181.296 -122.426,177.165 -119.396,169.867 -118.019,167.664 -115.265,163.533 -110.033,160.641 -105.97,158.369 -102.459,152.861 -99.499,148.248 -97.984,148.248 -97.846,148.248 -92.2,151.691 -86.142,155.133 -83.87,155.133 -78.155,155.133 -72.922,153.412 -67.69,151.691 -60.805,151.691 -55.435,151.691 -48.55,154.101 -41.733,156.51 -39.461,156.51 -33.953,156.51 -23.695,152.724 -13.436,148.937 -6.758,148.937 1.711,148.937 4.396,150.933 6.117,152.242 6.462,156.166 6.806,160.917 8.252,163.464 8.458,163.808 8.665,164.084 8.802,164.29 8.94,164.428 11.832,168.421 18.786,171.657 15.55,174.342 14.792,175.513 13.966,176.683 13.966,178.887 13.966,183.637 19.887,186.873 23.536,188.939 33.933,193.001 29.871,197.063 23.123,202.02 20.163,204.154 20.163,207.115 20.163,217.098 33.107,223.914 39.578,227.288 46.326,228.803 L44.605,238.993 Q42.883,249.389 42.883,250.835 42.883,257.926 39.785,261.713 36.687,265.5 36.687,267.359 36.687,269.218 37.238,270.801 M-100.394,294.899 Q-107.347,296 -108.724,298.479 -109.344,299.512 -109.344,305.915 -109.344,312.249 -103.905,326.501 -96.745,345.572 -96.263,347.294 -92.614,360.306 -80.84,365.47 -72.027,369.326 -56.33,369.326 -40.288,369.326 -24.727,366.365 -4.141,362.372 2.193,354.867 4.878,351.7 6.117,339.789 7.012,326.363 7.77,321.75 8.802,316.105 11.901,304.744 13.966,297.24 13.966,290.424 13.966,286.568 8.458,285.26 5.567,284.571 -.217,284.571 -5.656,284.571 -11.921,286.499 -12.61,286.706 -23.695,290.768 -40.632,296.964 -58.395,296.964 -67.828,296.964 -80.634,295.243 -93.371,293.522 -98.328,293.522 M76.276,435.835 Q65.397,430.602 44.605,430.602 25.464,430.602 10.524,441.618 -7.446,454.906 -7.446,478.109 -7.446,500.347 17.409,507.714 29.113,511.157 51.145,511.157 72.626,511.157 84.882,504.272 99.34,496.147 99.34,479.141 99.34,468.401 94.796,459.657 92.524,455.25 89.839,452.978 87.498,441.274 76.276,435.835Z" test="RonaldFace"/>
        <path id="Layer2_0_2_STROKES" stroke="#FFF" stroke-width="2.754" stroke-linejoin="round" stroke-linecap="round" fill="none" d="M37.238,270.801 L37.444,270.182 M4.121,164.91 Q0.334,166.012 -8.135,168.697 -22.937,173.447 -23.97,173.723 -31.957,176.27 -35.812,183.362 -39.461,190.178 -38.429,199.197 M-54.195,234.448 Q-58.808,236.721 -62.251,241.265 -65.28,245.189 -70.1,246.015 -75.263,246.841 -77.329,251.179 -79.05,254.828 -79.05,262.195 -79.05,271.49 -69.755,271.49 -65.555,271.49 -63.283,269.837 -60.598,267.91 -54.953,267.359 -49.513,266.808 -38.084,268.047 -30.029,268.047 -26.036,266.67 -20.528,264.88 -20.528,260.13 -20.528,253.864 -33.403,244.225 -45.176,235.344 -54.195,234.448Z M-162.978,281.886 Q-140.12,298.272 -131.72,323.127 -129.93,328.36 -130.481,334.143 -132.202,352.802 -123.045,367.329 L-107.898,377.656 Q-94.128,391.013 -74.162,392.322 -22.937,395.695 17.409,368.224 23.468,364.093 25.671,356.795 31.867,336.278 29.389,314.314 27.736,299.443 31.179,286.017 31.798,283.676 33.313,281.886 L37.238,270.801 M-70.788,199.197 Q-73.68,191.761 -77.26,187.217 -80.84,182.673 -85.935,179.919 -91.994,176.546 -93.164,176.201 -94.541,175.788 -100.394,175.788 -111.96,175.788 -118.914,184.463 -124.353,191.211 -126.557,202.64 M-80.427,392.735 Q-75.401,399.207 -74.644,408.639 -74.299,413.458 -74.919,417.521 M-10.889,385.85 Q-11.577,389.981 -11.577,395.144 -11.577,402.305 -9.58,404.577 -5.243,409.603 -4.004,412.013" test="RonaldFace"/>
        <path id="Layer2_0_3_STROKES" stroke="#F0C" stroke-width="2.754" stroke-linejoin="round" stroke-linecap="round" fill="none" d="M4.121,164.91 Q6.737,164.084 7.012,164.084 L8.665,164.084 M8.94,164.428 Q8.389,164.566 7.632,164.772 5.016,165.461 4.121,164.91" test="RonaldFace"/>
        <path id="Layer2_0_4_STROKES" stroke="#F0F" stroke-width="2.754" stroke-linejoin="round" stroke-linecap="round" fill="none" d="M-4.004,412.013 L-4.004,410.636" test="RonaldFace"/>
        <path id="Layer2_0_5_STROKES" stroke="#FF0" stroke-width="2.754" stroke-linejoin="round" stroke-linecap="round" fill="none" d="M159.997,462.755 Q150.083,457.385 138.585,451.877 89.013,427.986 28.425,409.259 L23.536,409.259 Q23.605,410.223 23.605,411.324 23.605,418.347 10.386,422.065 -8.961,426.196 -21.216,429.914 -26.173,431.359 -43.799,433.7 -62.182,436.11 -70.1,436.11 -85.453,436.11 -92.82,432.668 -100.394,429.156 -100.394,421.652 -100.394,414.629 -90.548,410.36 -79.67,407.055 -77.673,405.816 M-120.36,420.275 Q-149.346,429.156 -161.601,433.838 -183.909,442.444 -196.095,451.946 -204.082,458.142 -218.334,472.945 -225.356,480.243 -231.897,487.059 M-10.2,399.62 L12.589,399.62 Q22.71,398.311 23.536,409.259 L22.228,409.259 M13.966,488.436 Q14.035,488.092 14.035,487.748 16.238,468.814 21.677,456.696 28.7,440.93 39.785,440.93 44.742,440.93 46.05,453.254 46.532,457.591 46.463,461.378 47.634,455.801 50.388,451.119 55.552,442.307 63.538,442.307 71.869,442.307 73.866,452.703 74.554,456.421 74.554,473.633 74.554,481.964 73.522,491.603 72.971,497.042 72.695,499.521 72.489,501.449 72.489,501.518 M46.463,461.378 Q46.463,466.129 45.637,469.847 L45.637,470.535" test="RonaldFace"/>
        <path id="Layer1_0_1_STROKES" stroke="#FFF" stroke-width="2.754" stroke-linejoin="round" stroke-linecap="round" fill="none" d="M-9.58,200.23 Q-7.722,206.633 -9.167,212.967 -9.787,215.515 -10.269,218.131 M-104.593,214.689 Q-101.151,223.295 -103.423,232.314 -103.836,234.035 -104.18,235.757 M-44.694,324.711 Q-50.546,326.776 -55.916,330.701 -56.398,330.907 -56.743,331.252" test="RonaldFace"/>
      </g>
    </g>
  </g>
</svg>