<?xml version="1.0" encoding="utf-8"?>
<svg id="EdithAnim08" image-rendering="inherit" baseProfile="basic" version="1.1" x="0px" y="0px" width="800" height="600" xmlns="http://www.w3.org/2000/svg" xmlns:xlink="http://www.w3.org/1999/xlink">
  <g id="Ronaldf14r1" overflow="visible">
    <g id="Ronaldf0r1">
      <g id="RonaldFacef0r1">
        <path id="Layer2_0_1_STROKES" stroke="#F00" stroke-width="2.646" stroke-linejoin="round" stroke-linecap="round" fill="none" d="M71.617,269.624 Q73.073,273.659 78.431,275.577 83.789,277.562 94.241,277.562 108.86,277.562 111.506,276.106 112.366,275.643 114.152,274.254 116.401,272.865 120.701,271.608 124.537,270.484 125.993,266.515 127.316,262.744 127.316,254.079 127.316,252.755 124.339,249.448 121.362,246.074 121.362,245.148 121.362,242.171 124.339,237.673 127.316,233.175 127.316,228.28 127.316,226.031 123.678,219.217 120.039,212.47 120.039,212.073 120.039,208.303 125,203.738 129.962,199.174 129.962,196.528 129.962,193.551 124.008,185.415 118.055,177.344 118.055,177.014 121.362,158.955 121.362,155.846 121.362,149.892 118.981,146.849 118.121,145.791 113.755,142.748 106.148,137.39 106.148,122.109 106.148,118.339 102.973,114.568 99.467,110.401 93.579,108.218 90.801,107.292 90.007,107.093 88.949,106.696 88.618,105.836 88.155,101.537 86.964,93.665 85.509,83.676 77.24,78.45 69.964,73.82 59.181,73.82 58.784,73.82 51.971,75.474 45.157,77.127 44.297,77.127 40.329,77.127 33.317,73.82 26.239,70.512 17.11,70.512 15.125,70.512 10.429,73.489 5.732,76.466 4.872,76.466 -.817,76.466 -10.673,70.512 -20.596,64.559 -25.888,64.559 -31.841,64.559 -35.678,66.213 -39.448,67.866 -42.094,67.866 -42.227,67.866 -53.009,64.89 -63.725,61.913 -69.877,61.913 -71.267,61.913 -82.777,72.563 -95.147,83.941 -102.291,86.388 -126.171,94.459 -130.338,105.969 -131.86,110.07 -131.463,116.619 -131.265,120.257 -130.735,128.063 -130.735,129.717 -134.241,131.966 -139.136,134.744 -141.981,136.53 -153.226,143.674 -153.226,153.2 -153.226,154.06 -152.565,157.036 -151.903,160.013 -151.903,160.807 -151.903,162.924 -155.608,166.694 -157.857,169.01 -163.81,174.368 -175.717,185.613 -175.717,194.213 -175.717,200.563 -168.11,204.334 -163.81,206.384 -162.884,207.112 -160.503,208.898 -160.503,211.412 -160.503,212.073 -164.472,219.482 -168.441,226.825 -168.441,230.926 -168.441,235.424 -164.472,239.327 -160.503,243.23 -160.503,245.479 -160.503,248.919 -162.487,253.549 -164.472,258.114 -164.472,260.032 -164.472,263.736 -162.487,264.993 -161.297,265.721 -158.188,266.515 -151.903,269.095 -151.903,284.177 M-151.242,280.869 Q-143.899,283.78 -142.907,284.111 -140.526,284.838 -137.35,284.838 -124.716,284.838 -122.268,276.305 -121.408,273.328 -121.077,266.845 -120.614,258.511 -120.151,255.071 -120.218,251.036 -120.085,248.257 -119.887,243.098 -118.167,241.841 -114.132,238.864 -109.303,230.529 -105.201,223.583 -104.275,220.011 -102.291,212.338 -100.306,208.633 -96.536,201.489 -89.061,196.859 -84.43,193.948 -82.644,187.995 -81.255,183.629 -81.784,179.66 -78.874,172.648 -77.551,170.531 -74.905,166.562 -69.877,163.784 -65.975,161.601 -62.601,156.309 -59.756,151.877 -58.301,151.877 -58.169,151.877 -52.745,155.184 -46.923,158.492 -44.74,158.492 -39.25,158.492 -34.223,156.838 -29.195,155.184 -22.58,155.184 -17.42,155.184 -10.805,157.5 -4.257,159.815 -2.074,159.815 3.218,159.815 13.075,156.176 22.931,152.538 29.348,152.538 37.484,152.538 40.064,154.457 41.718,155.713 42.048,159.484 42.379,164.048 43.768,166.496 43.967,166.827 44.165,167.091 44.297,167.29 44.43,167.422 47.208,171.259 53.889,174.368 50.78,176.948 50.053,178.072 49.259,179.197 49.259,181.313 49.259,185.878 54.948,188.987 58.454,190.971 68.442,194.874 64.539,198.777 58.057,203.54 55.212,205.591 55.212,208.435 55.212,218.027 67.648,224.576 73.867,227.817 80.349,229.272 L78.696,239.062 Q77.042,249.051 77.042,250.44 77.042,257.254 74.065,260.892 71.088,264.53 71.088,266.316 71.088,268.102 71.617,269.624 M-60.616,292.776 Q-67.298,293.835 -68.621,296.216 -69.216,297.208 -69.216,303.36 -69.216,309.446 -63.99,323.139 -57.11,341.463 -56.647,343.116 -53.141,355.619 -41.83,360.58 -33.363,364.284 -18.28,364.284 -2.867,364.284 12.082,361.44 31.861,357.603 37.947,350.393 40.527,347.35 41.718,335.906 42.578,323.007 43.305,318.575 44.297,313.15 47.274,302.236 49.259,295.025 49.259,288.477 49.259,284.772 43.967,283.515 41.188,282.854 35.632,282.854 30.406,282.854 24.386,284.706 23.725,284.904 13.075,288.807 -3.198,294.761 -20.265,294.761 -29.327,294.761 -41.631,293.107 -53.869,291.453 -58.632,291.453 M109.125,428.185 Q98.673,423.158 78.696,423.158 60.306,423.158 45.951,433.742 28.686,446.509 28.686,468.801 28.686,490.168 52.566,497.246 63.812,500.553 84.98,500.553 105.619,500.553 117.393,493.938 131.285,486.133 131.285,469.794 131.285,459.474 126.919,451.073 124.736,446.84 122.156,444.657 119.907,433.411 109.125,428.185Z" test="RonaldFace"/>
        <path id="Layer2_0_2_STROKES" stroke="#FFF" stroke-width="2.646" stroke-linejoin="round" stroke-linecap="round" fill="none" d="M71.617,269.624 L71.816,269.028 M39.799,167.885 Q36.161,168.943 28.025,171.523 13.802,176.088 12.81,176.352 5.137,178.8 1.432,185.613 -2.074,192.162 -1.081,200.828 M-16.23,234.697 Q-20.662,236.88 -23.969,241.245 -26.88,245.016 -31.51,245.81 -36.472,246.604 -38.456,250.771 -40.11,254.277 -40.11,261.355 -40.11,270.285 -31.18,270.285 -27.144,270.285 -24.962,268.698 -22.382,266.845 -16.957,266.316 -11.732,265.787 -.751,266.978 6.989,266.978 10.826,265.655 16.118,263.935 16.118,259.371 16.118,253.351 3.748,244.09 -7.564,235.557 -16.23,234.697Z M-120.747,280.274 Q-98.785,296.018 -90.715,319.898 -88.995,324.925 -89.524,330.482 -91.178,348.408 -82.38,362.366 L-67.827,372.289 Q-54.597,385.122 -35.413,386.379 13.802,389.62 52.566,363.226 58.387,359.257 60.504,352.245 66.458,332.532 64.076,311.431 62.489,297.142 65.796,284.243 66.392,281.994 67.847,280.274 L71.617,269.624 M-32.172,200.828 Q-34.95,193.684 -38.39,189.318 -41.83,184.952 -46.725,182.306 -52.546,179.064 -53.671,178.734 -54.994,178.337 -60.616,178.337 -71.73,178.337 -78.411,186.672 -83.637,193.154 -85.753,204.135 M-41.433,386.775 Q-36.604,392.994 -35.876,402.056 -35.546,406.687 -36.141,410.589 M25.379,380.16 Q24.717,384.129 24.717,389.091 24.717,395.97 26.635,398.153 30.803,402.982 31.994,405.297" test="RonaldFace"/>
        <path id="Layer2_0_3_STROKES" stroke="#F0C" stroke-width="2.646" stroke-linejoin="round" stroke-linecap="round" fill="none" d="M39.799,167.885 Q42.313,167.091 42.578,167.091 L44.165,167.091 M44.43,167.422 Q43.901,167.554 43.173,167.753 40.659,168.414 39.799,167.885" test="RonaldFace"/>
        <path id="Layer2_0_4_STROKES" stroke="#F0F" stroke-width="2.646" stroke-linejoin="round" stroke-linecap="round" fill="none" d="M31.994,405.297 L31.994,403.974" test="RonaldFace"/>
        <path id="Layer2_0_5_STROKES" stroke="#FF0" stroke-width="2.646" stroke-linejoin="round" stroke-linecap="round" fill="none" d="M189.563,454.05 Q180.037,448.89 168.99,443.598 121.362,420.644 63.15,402.651 L58.454,402.651 Q58.52,403.578 58.52,404.636 58.52,411.383 45.819,414.955 27.231,418.924 15.456,422.496 10.693,423.886 -6.241,426.135 -23.903,428.45 -31.51,428.45 -46.262,428.45 -53.34,425.142 -60.616,421.769 -60.616,414.558 -60.616,407.811 -51.157,403.71 -40.705,400.535 -38.787,399.344 M-79.8,413.235 Q-107.649,421.769 -119.424,426.267 -140.856,434.536 -152.565,443.664 -160.238,449.618 -173.931,463.84 -180.679,470.852 -186.963,477.401 M26.04,393.39 L47.936,393.39 Q57.66,392.134 58.454,402.651 L57.197,402.651 M49.259,478.724 Q49.325,478.393 49.325,478.062 51.442,459.871 56.668,448.229 63.415,433.08 74.065,433.08 78.828,433.08 80.085,444.921 80.548,449.089 80.482,452.727 81.606,447.369 84.252,442.871 89.213,434.403 96.887,434.403 104.891,434.403 106.809,444.392 107.471,447.964 107.471,464.502 107.471,472.506 106.479,481.767 105.949,486.993 105.685,489.374 105.486,491.226 105.486,491.292 M80.482,452.727 Q80.482,457.291 79.688,460.863 L79.688,461.525" test="RonaldFace"/>
        <path id="Layer1_0_1_STROKES" stroke="#FFF" stroke-width="2.646" stroke-linejoin="round" stroke-linecap="round" fill="none" d="M26.635,201.82 Q28.422,207.972 27.032,214.058 26.437,216.505 25.974,219.019 M-64.652,215.712 Q-61.344,223.98 -63.527,232.646 -63.924,234.3 -64.255,235.953 M-7.101,321.419 Q-12.724,323.404 -17.883,327.174 -18.347,327.373 -18.677,327.703" test="RonaldFace"/>
      </g>
    </g>
  </g>
</svg>