<?xml version="1.0" encoding="utf-8"?>
<svg id="EdithAnim08" image-rendering="inherit" baseProfile="basic" version="1.1" x="0px" y="0px" width="800" height="600" xmlns="http://www.w3.org/2000/svg" xmlns:xlink="http://www.w3.org/1999/xlink">
  <g id="Ronaldf146r1" overflow="visible">
    <g id="Ronaldf27r1">
      <g id="RonaldFacef1r1">
        <path id="Layer4_0_1_STROKES" stroke="#F00" stroke-width="2.942" stroke-linejoin="round" stroke-linecap="round" fill="none" d="M217.134,258.179 Q218.752,262.665 224.709,264.798 230.667,267.005 242.288,267.005 258.542,267.005 261.484,265.387 262.44,264.872 264.426,263.327 266.927,261.783 271.708,260.385 275.974,259.135 277.592,254.722 279.063,250.53 279.063,240.895 279.063,239.424 275.753,235.746 272.443,231.995 272.443,230.965 272.443,227.656 275.753,222.654 279.063,217.653 279.063,212.21 279.063,209.709 275.018,202.134 270.972,194.632 270.972,194.19 270.972,189.998 276.489,184.923 282.005,179.848 282.005,176.906 282.005,173.596 275.385,164.55 268.766,155.577 268.766,155.209 272.443,135.13 272.443,131.673 272.443,125.053 269.795,121.67 268.839,120.493 263.985,117.11 255.527,111.152 255.527,94.162 255.527,89.97 251.996,85.778 248.098,81.144 241.552,78.717 238.463,77.687 237.581,77.466 236.404,77.025 236.036,76.069 235.521,71.288 234.197,62.536 232.579,51.43 223.385,45.619 215.295,40.471 203.306,40.471 202.865,40.471 195.289,42.309 187.714,44.148 186.758,44.148 182.344,44.148 174.548,40.471 166.678,36.793 156.528,36.793 154.322,36.793 149.1,40.103 143.878,43.413 142.922,43.413 136.596,43.413 125.637,36.793 114.605,30.174 108.721,30.174 102.101,30.174 97.836,32.012 93.643,33.851 90.701,33.851 90.554,33.851 78.565,30.541 66.65,27.232 59.81,27.232 58.266,27.232 45.468,39.073 31.714,51.724 23.771,54.445 -2.781,63.418 -7.415,76.216 -9.106,80.776 -8.665,88.058 -8.444,92.103 -7.856,100.782 -7.856,102.621 -11.754,105.121 -17.197,108.21 -20.359,110.196 -32.863,118.14 -32.863,128.731 -32.863,129.687 -32.127,132.997 -31.392,136.306 -31.392,137.189 -31.392,139.543 -35.511,143.735 -38.011,146.309 -44.631,152.267 -57.87,164.77 -57.87,174.332 -57.87,181.393 -49.412,185.585 -44.631,187.865 -43.601,188.674 -40.953,190.66 -40.953,193.455 -40.953,194.19 -45.366,202.428 -49.779,210.592 -49.779,215.152 -49.779,220.153 -45.366,224.493 -40.953,228.832 -40.953,231.333 -40.953,235.158 -43.16,240.306 -45.366,245.381 -45.366,247.514 -45.366,251.633 -43.16,253.03 -41.836,253.839 -38.379,254.722 -31.392,257.59 -31.392,274.36 M-30.656,270.682 Q-22.492,273.918 -21.389,274.286 -18.741,275.095 -15.211,275.095 -1.163,275.095 1.559,265.607 2.515,262.298 2.882,255.09 3.397,245.822 3.912,241.998 3.839,237.511 3.986,234.422 4.206,228.685 6.119,227.288 10.605,223.978 15.974,214.711 20.534,206.988 21.564,203.016 23.771,194.484 25.977,190.366 30.17,182.422 38.481,177.274 43.629,174.038 45.615,167.418 47.16,162.564 46.571,158.151 49.807,150.354 51.278,148.001 54.22,143.588 59.81,140.499 64.15,138.072 67.901,132.188 71.063,127.26 72.681,127.26 72.829,127.26 78.86,130.937 85.332,134.615 87.759,134.615 93.864,134.615 99.454,132.776 105.043,130.937 112.398,130.937 118.135,130.937 125.49,133.512 132.772,136.086 135.199,136.086 141.083,136.086 152.042,132.041 163.001,127.995 170.135,127.995 179.182,127.995 182.05,130.128 183.889,131.526 184.257,135.718 184.625,140.793 186.169,143.514 186.39,143.882 186.61,144.176 186.758,144.397 186.905,144.544 189.994,148.81 197.422,152.267 193.965,155.135 193.156,156.386 192.274,157.636 192.274,159.99 192.274,165.064 198.599,168.521 202.497,170.728 213.603,175.067 209.264,179.407 202.056,184.702 198.893,186.982 198.893,190.145 198.893,200.81 212.721,208.091 219.634,211.695 226.842,213.313 L225.003,224.199 Q223.165,235.305 223.165,236.849 223.165,244.425 219.855,248.47 216.545,252.515 216.545,254.501 216.545,256.487 217.134,258.179 M70.107,283.921 Q62.679,285.098 61.208,287.746 60.546,288.849 60.546,295.689 60.546,302.456 66.356,317.681 74.005,338.054 74.52,339.893 78.418,353.794 90.995,359.31 100.41,363.429 117.179,363.429 134.316,363.429 150.939,360.266 172.93,356 179.697,347.983 182.565,344.6 183.889,331.876 184.845,317.534 185.654,312.606 186.758,306.575 190.067,294.439 192.274,286.422 192.274,279.141 192.274,275.022 186.39,273.624 183.301,272.889 177.122,272.889 171.312,272.889 164.619,274.948 163.883,275.169 152.042,279.508 133.949,286.128 114.973,286.128 104.896,286.128 91.216,284.289 77.609,282.45 72.314,282.45 M258.837,434.478 Q247.216,428.888 225.003,428.888 204.557,428.888 188.596,440.656 169.4,454.851 169.4,479.638 169.4,503.394 195.951,511.264 208.455,514.942 231.991,514.942 254.938,514.942 268.03,507.587 283.476,498.908 283.476,480.741 283.476,469.267 278.621,459.926 276.194,455.219 273.326,452.792 270.825,440.289 258.837,434.478Z" test="RonaldFace"/>
        <path id="Layer4_0_2_STROKES" stroke="#FFF" stroke-width="2.942" stroke-linejoin="round" stroke-linecap="round" fill="none" d="M217.134,258.179 L217.354,257.517 M181.756,145.059 Q177.711,146.236 168.664,149.104 152.851,154.179 151.748,154.473 143.216,157.195 139.097,164.77 135.199,172.052 136.302,181.687 M119.459,219.344 Q114.531,221.772 110.854,226.626 107.618,230.818 102.469,231.701 96.953,232.583 94.746,237.217 92.908,241.115 92.908,248.985 92.908,258.914 102.837,258.914 107.324,258.914 109.751,257.149 112.619,255.09 118.65,254.501 124.461,253.913 136.67,255.237 145.275,255.237 149.541,253.766 155.425,251.853 155.425,246.779 155.425,240.085 141.671,229.788 129.094,220.301 119.459,219.344Z M3.25,270.02 Q27.669,287.525 36.642,314.077 38.554,319.667 37.966,325.845 36.127,345.777 45.909,361.296 L62.09,372.328 Q76.8,386.597 98.13,387.995 152.851,391.598 195.951,362.252 202.424,357.839 204.777,350.043 211.397,328.125 208.749,304.662 206.984,288.776 210.661,274.433 211.323,271.933 212.941,270.02 L217.134,258.179 M101.734,181.687 Q98.645,173.743 94.82,168.889 90.995,164.035 85.553,161.093 79.08,157.489 77.83,157.121 76.359,156.68 70.107,156.68 57.751,156.68 50.322,165.947 44.512,173.155 42.158,185.364 M91.437,388.436 Q96.806,395.35 97.615,405.426 97.983,410.574 97.321,414.914 M165.722,381.081 Q164.987,385.494 164.987,391.01 164.987,398.659 167.12,401.086 171.753,406.456 173.077,409.03" test="RonaldFace"/>
        <path id="Layer4_0_3_STROKES" stroke="#F0C" stroke-width="2.942" stroke-linejoin="round" stroke-linecap="round" fill="none" d="M181.756,145.059 Q184.551,144.176 184.845,144.176 L186.61,144.176 M186.905,144.544 Q186.316,144.691 185.507,144.912 182.712,145.647 181.756,145.059" test="RonaldFace"/>
        <path id="Layer4_0_4_STROKES" stroke="#F0F" stroke-width="2.942" stroke-linejoin="round" stroke-linecap="round" fill="none" d="M173.077,409.03 L173.077,407.559" test="RonaldFace"/>
        <path id="Layer4_0_5_STROKES" stroke="#FF0" stroke-width="2.942" stroke-linejoin="round" stroke-linecap="round" fill="none" d="M348.273,463.236 Q337.682,457.499 325.399,451.615 272.443,426.093 207.719,406.088 L202.497,406.088 Q202.571,407.118 202.571,408.294 202.571,415.796 188.449,419.768 167.782,424.181 154.69,428.153 149.394,429.697 130.565,432.198 110.927,434.772 102.469,434.772 86.068,434.772 78.198,431.095 70.107,427.344 70.107,419.327 70.107,411.825 80.625,407.265 92.246,403.734 94.379,402.41 M48.778,417.856 Q17.813,427.344 4.721,432.345 -19.109,441.539 -32.127,451.689 -40.659,458.308 -55.884,474.122 -63.386,481.918 -70.373,489.199 M166.458,395.791 L190.803,395.791 Q201.615,394.393 202.497,406.088 L201.1,406.088 M192.274,490.67 Q192.347,490.303 192.347,489.935 194.701,469.709 200.511,456.764 208.013,439.921 219.855,439.921 225.151,439.921 226.548,453.086 227.063,457.72 226.989,461.765 228.24,455.808 231.182,450.806 236.698,441.392 245.23,441.392 254.129,441.392 256.262,452.498 256.998,456.47 256.998,474.857 256.998,483.757 255.895,494.054 255.306,499.864 255.012,502.512 254.791,504.571 254.791,504.645 M226.989,461.765 Q226.989,466.84 226.107,470.812 L226.107,471.547" test="RonaldFace"/>
        <path id="Layer3_0_1_STROKES" stroke="#FFF" stroke-width="2.942" stroke-linejoin="round" stroke-linecap="round" fill="none" d="M180.432,182.79 Q171.827,187.056 161.53,191.837 153.072,195.735 152.483,196.029 152.483,196.765 151.748,196.765 155.793,199.339 169.473,200.663 179.623,201.545 188.523,201.325 190.435,201.251 192.274,201.178 L192.274,201.913 188.523,201.325 M142.186,334.303 Q141.966,322.241 151.306,314.445 158.588,308.266 167.929,307.09 L167.929,306.354 M164.251,296.057 Q169.473,300.249 171.827,307.31 174.107,314.15 174.548,314.445 M48.778,199.707 Q59.148,202.649 70.328,205.223 81.655,207.797 84.082,207.797 L84.817,207.797 Q78.639,210.665 68.195,218.02 57.383,225.523 56.133,226.185" test="RonaldFace"/>
      </g>
      <g id="Ronald-Thought-Bubblef6r1">
        <path id="Layer2_0_1_STROKES" stroke="#FFF" stroke-width="2.942" stroke-linejoin="round" stroke-linecap="round" fill="none" d="M754.174,20.609 L754.542,18.256 Q741.671,2.222 721.665,-2.559 702.248,-7.119 682.757,-2.118 671.136,.751 659.221,1.78 651.425,2.222 643.849,.751 620.534,-2.927 596.63,-3.442 586.554,-4.619 576.477,-4.324 559.634,-3.221 543.748,2.295 530.435,7.149 518.888,15.387 511.753,20.462 503.663,24.287 484.393,33.554 465.564,43.851 449.824,52.53 442.028,68.784 436.217,80.847 432.613,93.718 429.451,104.971 432.908,115.709 434.084,119.313 437.247,121.446 441.072,124.02 444.749,127.183 446.588,128.875 447.029,131.228 449.53,144.173 447.029,157.192 445.117,167.415 445.926,178.006 446.882,191.466 454.531,202.719 457.032,206.323 460.195,209.486 469.094,218.532 470.565,230.594 472.036,242.73 471.595,255.087 471.154,266.781 478.95,275.239 485.79,282.594 495.057,287.449 505.281,292.891 514.989,299.069 516.902,300.246 517.858,302.673 521.83,312.161 524.772,321.87 526.39,327.018 530.214,331.137 540.511,341.949 555.516,344.45 573.756,347.76 592.143,346.509 605.75,346.509 619.063,349.893 623.696,351.069 628.33,352.687 647.527,359.38 668.121,358.792 687.538,358.204 703.866,347.686 719.091,337.977 737.258,337.61 756.233,336.139 774.695,330.917 788.89,326.945 799.775,317.457 804.482,313.412 805.88,307.381 806.909,302.673 808.748,298.04 809.337,296.569 810.587,295.539 826.915,282.153 847.141,275.975 858.027,272.518 865.749,264.427 880.607,249.129 880.092,227.505 879.871,219.194 875.164,211.766 872.957,208.382 871.633,204.558 870.971,202.498 870.53,200.439 880.018,180.948 885.755,159.766 886.491,157.044 886.196,154.323 884.946,143.364 876.341,136.23 865.897,127.698 860.527,114.827 858.321,109.458 857.953,103.353 857.806,100.484 857.585,97.616 856.703,86.363 851.922,76.139 846.553,64.445 837.065,56.134 815.441,37.011 790.802,21.859 781.093,15.755 770.208,16.637 767.413,16.564 764.692,17.741 759.028,20.241 752.703,21.345 M423.126,241.627 Q415.403,233.242 403.708,235.816 396.721,237.287 390.764,240.524 372.891,250.379 369.14,270.091 366.492,283.992 375.097,294.73 377.451,297.746 381.055,298.996 393.191,303.556 406.356,303.482 424.229,304.88 440.116,297.304 442.69,296.054 444.823,294.142 454.973,284.801 452.619,270.826 449.53,252.659 432.393,244.937 427.171,242.583 421.287,242.362 M315.301,262.956 Q303.018,255.454 291.839,265.016 278.011,277.004 284.042,293.847 284.631,295.392 286.102,296.495 300.518,307.16 316.331,298.113 322.656,294.436 326.554,287.816 327.511,286.125 327.731,284.212 328.908,274.798 320.376,270.532 313.389,267.075 305.372,267.002" test="Ronald Thought Bubble"/>
        <path id="Layer2_0_2_STROKES" stroke="#F90" stroke-width="2.942" stroke-linejoin="round" stroke-linecap="round" fill="none" d="M550.955,122.697 L550.293,122.697 Q542.277,124.168 533.083,137.848 521.977,154.397 521.977,175.138 521.977,190.215 527.64,200.071 531.023,205.808 545.88,222.357 552.5,229.712 568.828,233.536 582.508,236.699 599.425,236.699 606.706,236.699 617.886,234.051 626.859,231.918 632.302,229.712 640.539,226.402 649.218,218.826 657.824,211.177 665.031,197.276 665.841,195.732 666.576,194.261 666.65,193.967 666.723,193.819 672.092,181.757 672.092,169.254 672.092,161.09 670.474,157.339 670.033,156.309 668.415,154.691 M666.576,194.261 Q667.9,228.094 693.79,242.657 711.221,252.512 736.596,252.512 764.545,252.512 781.976,230.08 797.421,210.221 797.421,184.331 797.421,162.634 779.255,138.878 772.856,130.493 765.28,123.359 759.175,117.622 755.866,115.709 M550.293,122.697 L548.749,122.697" test="Ronald Thought Bubble"/>
      </g>
      <g id="Ronald-Han">
        <path fill="#000" stroke="none" d="M-17.292,260.164 Q-30.016,275.094 -35.532,281.346 -43.917,290.687 -73.043,312.311 -110.406,340.186 -113.495,342.687 -126.587,353.499 -129.014,357.176 L-128.573,362.178 -.964,350.189 Q9.26,343.643 13.82,340.039 23.014,332.831 34.855,321.799 49.565,307.971 58.612,299.439 71.483,287.451 76.19,282.008 79.941,277.669 82.589,272.005 84.943,267.151 84.575,266.563 84.428,266.268 79.132,264.503 76,263.841 66.702,261.855 61.922,260.899 55.302,259.722 34.267,255.751 29.854,254.5 24.558,252.956 17.277,247.587 14.77,245.824 11.025,243.1 10.988,243.047 10.878,242.953 8.81,241.434 6.318,239.57 2.346,236.922 1.316,238.246 .434,239.423 -4.126,245.601 -8.098,249.646 -17.292,260.164 M87.296,147.117 L82.81,144.617 Q72.366,144.322 66.04,154.546 61.26,162.416 59.568,171.757 56.773,186.393 45.226,195.44 45.667,183.083 39.71,172.051 37.135,167.417 33.09,170.58 22.352,178.817 20.734,192.645 19.336,204.707 20.734,216.769 22.205,230.744 12.57,240.747 L11.025,243.1 Q14.77,245.824 17.277,247.587 24.558,252.956 29.854,254.5 34.267,255.751 55.302,259.722 61.922,260.899 66.702,261.855 71.851,254.574 79.941,251.411 92.739,246.189 104.286,238.687 112.303,233.539 118.114,226.551 127.528,215.298 137.163,204.413 145.474,195.293 141.209,183.451 139.149,177.861 133.927,180.288 123.262,184.481 115.687,192.939 105.169,204.707 91.783,212.945 L90.606,212.062 Q95.975,203.604 103.183,196.617 106.884,193.064 109.803,189.041 117.069,179.228 119.585,166.755 114.878,161.607 108.552,164.622 98.035,170.212 92.004,180.803 86.929,189.997 76.705,189.262 82.442,180.73 87.738,172.051 95.46,159.4 87.296,147.117Z" test="Ronald Han" stroke-width="1.471"/>
        <path id="Layer1_0_1_STROKES" stroke="#FF0" stroke-width="2.942" stroke-linejoin="round" stroke-linecap="round" fill="none" d="M82.81,144.617 Q72.366,144.322 66.04,154.546 61.26,162.416 59.568,171.757 56.773,186.393 45.226,195.44 45.667,183.083 39.71,172.051 37.135,167.417 33.09,170.58 22.352,178.817 20.734,192.645 19.336,204.707 20.734,216.769 22.205,230.744 12.57,240.747 M66.702,261.855 Q71.851,254.574 79.941,251.411 92.739,246.189 104.286,238.687 112.303,233.539 118.114,226.551 127.528,215.298 137.163,204.413 145.474,195.293 141.209,183.451 139.149,177.861 133.927,180.288 123.262,184.481 115.687,192.939 105.169,204.707 91.783,212.945 L90.606,212.062 Q95.975,203.604 103.183,196.617 106.884,193.064 109.803,189.078 117.069,179.228 119.585,166.755 114.878,161.607 108.552,164.622 98.035,170.212 92.004,180.803 86.929,189.997 76.705,189.262 82.442,180.73 87.738,172.051 95.46,159.4 87.296,147.117 85.605,144.617 82.81,144.617" test="Ronald Han"/>
        <path id="Layer1_0_2_STROKES" stroke="#F00" stroke-width="2.942" stroke-linejoin="round" stroke-linecap="round" fill="none" d="M11.062,243.1 Q14.77,245.824 17.277,247.587 24.558,252.956 29.854,254.5 34.267,255.751 55.302,259.722 61.922,260.899 66.702,261.855 M-129.014,357.176 Q-126.587,353.499 -113.495,342.687 -110.406,340.186 -73.043,312.311 -43.917,290.687 -35.532,281.346 -30.016,275.094 -17.292,260.164 -8.098,249.646 -4.126,245.601 .434,239.423 1.316,238.246 2.346,236.922 6.318,239.57 8.81,241.434 10.915,242.99 10.988,243.047 11.062,243.1 M-.964,350.189 Q9.26,343.643 13.82,340.039 23.014,332.831 34.855,321.799 49.565,307.971 58.612,299.439 71.483,287.451 76.19,282.008 79.941,277.669 82.589,272.005 84.943,267.151 84.575,266.563 84.428,266.268 79.132,264.503 76,263.841 66.702,261.855 M-129.014,357.176 Q-130.036,358.794 -130.522,362.398 L-128.536,362.214 M-131,368.65 Q-130.907,364.996 -130.522,362.398 M-.964,350.189 Q-4.568,352.543 -73.852,418.811" test="Ronald Han"/>
      </g>
    </g>
  </g>
</svg>