<?xml version="1.0" encoding="utf-8"?>
<svg id="EdithAnim08" image-rendering="inherit" baseProfile="basic" version="1.1" x="0px" y="0px" width="800" height="600" xmlns="http://www.w3.org/2000/svg" xmlns:xlink="http://www.w3.org/1999/xlink">
  <g id="Ronaldf15r1" overflow="visible">
    <g id="Ronaldf0r1">
      <g id="RonaldFacef0r1">
        <path id="Layer2_0_1_STROKES" stroke="#F00" stroke-width="2.596" stroke-linejoin="round" stroke-linecap="round" fill="none" d="M87.889,269.093 Q89.316,273.051 94.573,274.934 99.83,276.881 110.084,276.881 124.427,276.881 127.023,275.453 127.867,274.998 129.619,273.636 131.826,272.273 136.045,271.04 139.809,269.936 141.237,266.042 142.535,262.343 142.535,253.841 142.535,252.543 139.614,249.298 136.694,245.988 136.694,245.08 136.694,242.159 139.614,237.746 142.535,233.333 142.535,228.53 142.535,226.323 138.965,219.639 135.396,213.019 135.396,212.63 135.396,208.93 140.263,204.452 145.131,199.974 145.131,197.378 145.131,194.457 139.29,186.475 133.449,178.557 133.449,178.233 136.694,160.515 136.694,157.465 136.694,151.623 134.357,148.638 133.513,147.6 129.23,144.614 121.767,139.357 121.767,124.366 121.767,120.666 118.651,116.967 115.212,112.878 109.435,110.736 106.71,109.828 105.931,109.633 104.893,109.244 104.568,108.4 104.114,104.182 102.946,96.458 101.518,86.659 93.405,81.532 86.266,76.988 75.688,76.988 75.298,76.988 68.613,78.611 61.929,80.233 61.085,80.233 57.191,80.233 50.312,76.988 43.367,73.743 34.411,73.743 32.464,73.743 27.856,76.664 23.248,79.584 22.405,79.584 16.823,79.584 7.153,73.743 -2.582,67.902 -7.774,67.902 -13.615,67.902 -17.379,69.525 -21.078,71.147 -23.674,71.147 -23.804,71.147 -34.383,68.227 -44.897,65.306 -50.932,65.306 -52.295,65.306 -63.588,75.755 -75.724,86.918 -82.733,89.319 -106.162,97.237 -110.251,108.53 -111.744,112.554 -111.354,118.979 -111.16,122.548 -110.64,130.206 -110.64,131.829 -114.08,134.036 -118.883,136.761 -121.673,138.514 -132.706,145.523 -132.706,154.868 -132.706,155.712 -132.057,158.633 -131.408,161.553 -131.408,162.332 -131.408,164.409 -135.043,168.108 -137.249,170.38 -143.09,175.636 -154.772,186.669 -154.772,195.106 -154.772,201.337 -147.309,205.036 -143.09,207.048 -142.182,207.762 -139.845,209.514 -139.845,211.981 -139.845,212.63 -143.739,219.898 -147.633,227.102 -147.633,231.126 -147.633,235.539 -143.739,239.368 -139.845,243.197 -139.845,245.404 -139.845,248.779 -141.792,253.322 -143.739,257.8 -143.739,259.682 -143.739,263.316 -141.792,264.549 -140.624,265.263 -137.574,266.042 -131.408,268.573 -131.408,283.371 M-130.759,280.126 Q-123.555,282.981 -122.582,283.306 -120.246,284.02 -117.13,284.02 -104.734,284.02 -102.333,275.647 -101.489,272.727 -101.165,266.367 -100.711,258.189 -100.256,254.814 -100.321,250.856 -100.192,248.13 -99.997,243.068 -98.309,241.835 -94.351,238.914 -89.613,230.737 -85.589,223.922 -84.68,220.418 -82.733,212.889 -80.786,209.255 -77.087,202.246 -69.753,197.703 -65.21,194.847 -63.458,189.006 -62.095,184.722 -62.614,180.829 -59.759,173.949 -58.461,171.872 -55.865,167.978 -50.932,165.253 -47.103,163.111 -43.793,157.919 -41.003,153.57 -39.575,153.57 -39.445,153.57 -34.123,156.816 -28.412,160.061 -26.27,160.061 -20.884,160.061 -15.951,158.438 -11.019,156.816 -4.529,156.816 .533,156.816 7.023,159.087 13.448,161.359 15.59,161.359 20.782,161.359 30.452,157.789 40.122,154.219 46.418,154.219 54.4,154.219 56.931,156.102 58.554,157.335 58.878,161.034 59.203,165.512 60.566,167.913 60.761,168.238 60.955,168.498 61.085,168.692 61.215,168.822 63.941,172.586 70.496,175.636 67.445,178.168 66.731,179.271 65.953,180.374 65.953,182.451 65.953,186.929 71.534,189.979 74.974,191.926 84.774,195.755 80.944,199.585 74.584,204.257 71.794,206.269 71.794,209.06 71.794,218.471 83.995,224.896 90.095,228.076 96.456,229.503 L94.833,239.109 Q93.211,248.909 93.211,250.272 93.211,256.956 90.29,260.526 87.369,264.095 87.369,265.847 87.369,267.6 87.889,269.093 M-41.846,291.808 Q-48.401,292.846 -49.699,295.182 -50.283,296.156 -50.283,302.192 -50.283,308.162 -45.156,321.597 -38.407,339.574 -37.952,341.196 -34.513,353.463 -23.415,358.33 -15.108,361.964 -.31,361.964 14.811,361.964 29.479,359.174 48.884,355.41 54.855,348.335 57.386,345.35 58.554,334.122 59.398,321.467 60.112,317.119 61.085,311.797 64.006,301.088 65.953,294.014 65.953,287.589 65.953,283.955 60.761,282.722 58.035,282.073 52.583,282.073 47.456,282.073 41.55,283.89 40.901,284.084 30.452,287.914 14.487,293.755 -2.257,293.755 -11.149,293.755 -23.22,292.132 -35.227,290.51 -39.899,290.51 M124.687,424.658 Q114.433,419.725 94.833,419.725 76.791,419.725 62.708,430.109 45.769,442.635 45.769,464.506 45.769,485.469 69.197,492.413 80.231,495.658 100,495.658 121.247,495.658 132.8,489.168 146.429,481.51 146.429,465.48 146.429,455.356 142.145,447.113 140.003,442.96 137.472,440.818 135.266,429.785 124.687,424.658Z" test="RonaldFace"/>
        <path id="Layer2_0_2_STROKES" stroke="#FFF" stroke-width="2.596" stroke-linejoin="round" stroke-linecap="round" fill="none" d="M87.889,269.093 L88.083,268.508 M56.672,169.276 Q53.102,170.315 45.12,172.846 31.166,177.324 30.193,177.584 22.664,179.985 19.03,186.669 15.59,193.095 16.564,201.597 M1.701,234.825 Q-2.647,236.967 -5.892,241.25 -8.747,244.95 -13.29,245.729 -18.158,246.507 -20.105,250.596 -21.727,254.036 -21.727,260.98 -21.727,269.742 -12.966,269.742 -9.007,269.742 -6.865,268.184 -4.334,266.367 .988,265.847 6.115,265.328 16.888,266.496 24.481,266.496 28.246,265.198 33.438,263.511 33.438,259.033 33.438,253.127 21.301,244.041 10.203,235.669 1.701,234.825Z M-100.84,279.541 Q-79.294,294.988 -71.376,318.417 -69.688,323.349 -70.208,328.801 -71.83,346.388 -63.198,360.082 L-48.92,369.817 Q-35.94,382.408 -17.12,383.641 31.166,386.821 69.197,360.926 74.909,357.032 76.986,350.153 82.827,330.812 80.49,310.109 78.933,296.091 82.178,283.435 82.762,281.229 84.189,279.541 L87.889,269.093 M-13.939,201.597 Q-16.665,194.587 -20.04,190.304 -23.415,186.02 -28.217,183.424 -33.929,180.244 -35.032,179.92 -36.33,179.531 -41.846,179.531 -52.75,179.531 -59.304,187.708 -64.432,194.068 -66.508,204.842 M-23.025,384.03 Q-18.288,390.131 -17.574,399.022 -17.249,403.565 -17.833,407.394 M42.524,377.54 Q41.875,381.434 41.875,386.302 41.875,393.052 43.757,395.193 47.845,399.931 49.014,402.202" test="RonaldFace"/>
        <path id="Layer2_0_3_STROKES" stroke="#F0C" stroke-width="2.596" stroke-linejoin="round" stroke-linecap="round" fill="none" d="M56.672,169.276 Q59.138,168.498 59.398,168.498 L60.955,168.498 M61.215,168.822 Q60.696,168.952 59.982,169.147 57.516,169.796 56.672,169.276" test="RonaldFace"/>
        <path id="Layer2_0_4_STROKES" stroke="#F0F" stroke-width="2.596" stroke-linejoin="round" stroke-linecap="round" fill="none" d="M49.014,402.202 L49.014,400.904" test="RonaldFace"/>
        <path id="Layer2_0_5_STROKES" stroke="#FF0" stroke-width="2.596" stroke-linejoin="round" stroke-linecap="round" fill="none" d="M203.605,450.034 Q194.26,444.972 183.422,439.78 136.694,417.259 79.582,399.606 L74.974,399.606 Q75.039,400.515 75.039,401.553 75.039,408.173 62.578,411.678 44.341,415.572 32.789,419.076 28.116,420.439 11.501,422.646 -5.827,424.917 -13.29,424.917 -27.763,424.917 -34.707,421.672 -41.846,418.362 -41.846,411.288 -41.846,404.669 -32.566,400.645 -22.312,397.53 -20.429,396.361 M-60.667,409.99 Q-87.99,418.362 -99.543,422.776 -120.57,430.888 -132.057,439.844 -139.586,445.685 -153.02,459.639 -159.64,466.518 -165.805,472.943 M43.173,390.52 L64.655,390.52 Q74.195,389.287 74.974,399.606 L73.741,399.606 M65.953,474.241 Q66.017,473.917 66.017,473.592 68.094,455.745 73.221,444.323 79.841,429.46 90.29,429.46 94.963,429.46 96.196,441.078 96.65,445.166 96.585,448.736 97.689,443.479 100.285,439.066 105.152,430.758 112.681,430.758 120.533,430.758 122.416,440.558 123.065,444.063 123.065,460.288 123.065,468.141 122.091,477.227 121.572,482.354 121.312,484.69 121.118,486.508 121.118,486.572 M96.585,448.736 Q96.585,453.214 95.807,456.718 L95.807,457.367" test="RonaldFace"/>
        <path id="Layer1_0_1_STROKES" stroke="#FFF" stroke-width="2.596" stroke-linejoin="round" stroke-linecap="round" fill="none" d="M43.757,202.57 Q45.509,208.606 44.146,214.576 43.562,216.978 43.108,219.444 M-45.805,216.199 Q-42.56,224.312 -44.702,232.813 -45.091,234.436 -45.416,236.058 M10.658,319.909 Q5.141,321.856 .079,325.556 -.375,325.75 -.7,326.075" test="RonaldFace"/>
      </g>
    </g>
  </g>
</svg>