<?xml version="1.0" encoding="utf-8"?>
<svg id="EdithAnim08" image-rendering="inherit" baseProfile="basic" version="1.1" x="0px" y="0px" width="800" height="600" xmlns="http://www.w3.org/2000/svg" xmlns:xlink="http://www.w3.org/1999/xlink">
  <g id="Ronaldf153r1" overflow="visible">
    <g id="Ronaldf27r1">
      <g id="RonaldFacef1r1">
        <path id="Layer4_0_1_STROKES" stroke="#F00" stroke-width="9.128" stroke-linejoin="round" stroke-linecap="round" fill="none" d="M-188.823,230.065 Q-183.803,243.985 -165.319,250.603 -146.835,257.449 -110.779,257.449 -60.347,257.449 -51.219,252.429 -48.252,250.831 -42.091,246.039 -34.332,241.247 -19.499,236.911 -6.263,233.032 -1.243,219.34 3.321,206.332 3.321,176.438 3.321,171.874 -6.948,160.464 -17.217,148.826 -17.217,145.631 -17.217,135.362 -6.948,119.844 3.321,104.327 3.321,87.44 3.321,79.681 -9.23,56.177 -21.781,32.9 -21.781,31.531 -21.781,18.524 -4.666,2.778 12.449,-12.968 12.449,-22.096 12.449,-32.365 -8.089,-60.434 -28.627,-88.274 -28.627,-89.415 -17.217,-151.714 -17.217,-162.439 -17.217,-182.977 -25.432,-193.474 -28.399,-197.125 -43.46,-207.623 -69.703,-226.107 -69.703,-278.821 -69.703,-291.828 -80.657,-304.836 -92.751,-319.212 -113.061,-326.743 -122.645,-329.938 -125.384,-330.622 -129.035,-331.992 -130.176,-334.958 -131.773,-349.791 -135.881,-376.947 -140.901,-411.405 -169.426,-429.433 -194.528,-445.407 -231.725,-445.407 -233.094,-445.407 -256.599,-439.702 -280.103,-433.997 -283.07,-433.997 -296.762,-433.997 -320.951,-445.407 -345.369,-456.817 -376.86,-456.817 -383.706,-456.817 -399.908,-446.548 -416.111,-436.279 -419.077,-436.279 -438.702,-436.279 -472.704,-456.817 -506.934,-477.355 -525.19,-477.355 -545.728,-477.355 -558.964,-471.65 -571.971,-465.945 -581.099,-465.945 -581.556,-465.945 -618.752,-476.214 -655.721,-486.483 -676.943,-486.483 -681.735,-486.483 -721.442,-449.743 -764.116,-410.492 -788.761,-402.049 -871.141,-374.209 -885.518,-334.502 -890.767,-320.353 -889.397,-297.762 -888.713,-285.211 -886.887,-258.283 -886.887,-252.578 -898.982,-244.819 -915.869,-235.235 -925.681,-229.073 -964.475,-204.428 -964.475,-171.567 -964.475,-168.6 -962.193,-158.331 -959.911,-148.062 -959.911,-145.324 -959.911,-138.022 -972.69,-125.014 -980.449,-117.027 -1000.987,-98.543 -1042.063,-59.749 -1042.063,-30.083 -1042.063,-8.176 -1015.82,4.832 -1000.987,11.906 -997.792,14.416 -989.577,20.577 -989.577,29.249 -989.577,31.531 -1003.269,57.089 -1016.961,82.42 -1016.961,96.568 -1016.961,112.086 -1003.269,125.549 -989.577,139.013 -989.577,146.772 -989.577,158.638 -996.423,174.612 -1003.269,190.358 -1003.269,196.976 -1003.269,209.755 -996.423,214.091 -992.316,216.601 -981.59,219.34 -959.911,228.239 -959.911,280.269 M-957.629,268.859 Q-932.299,278.9 -928.876,280.041 -920.661,282.551 -909.707,282.551 -866.121,282.551 -857.678,253.113 -854.711,242.844 -853.57,220.481 -851.973,191.727 -850.375,179.861 -850.603,165.941 -850.147,156.356 -849.462,138.557 -843.529,134.221 -829.609,123.952 -812.95,95.199 -798.802,71.238 -795.607,58.915 -788.761,32.444 -781.915,19.665 -768.908,-4.981 -743.121,-20.955 -727.147,-30.996 -720.986,-51.534 -716.194,-66.595 -718.019,-80.287 -707.978,-104.476 -703.414,-111.779 -694.286,-125.471 -676.943,-135.055 -663.479,-142.586 -651.841,-160.842 -642.029,-176.131 -637.008,-176.131 -636.552,-176.131 -617.839,-164.721 -597.758,-153.311 -590.227,-153.311 -571.287,-153.311 -553.943,-159.016 -536.6,-164.721 -513.78,-164.721 -495.981,-164.721 -473.161,-156.734 -450.569,-148.747 -443.038,-148.747 -424.782,-148.747 -390.78,-161.298 -356.779,-173.849 -334.643,-173.849 -306.575,-173.849 -297.675,-167.231 -291.97,-162.895 -290.829,-149.888 -289.688,-134.142 -284.896,-125.699 -284.211,-124.558 -283.526,-123.645 -283.07,-122.96 -282.614,-122.504 -273.029,-109.268 -249.981,-98.543 -260.706,-89.643 -263.217,-85.764 -265.955,-81.884 -265.955,-74.582 -265.955,-58.836 -246.33,-48.111 -234.235,-41.265 -199.777,-27.801 -213.241,-14.337 -235.604,2.093 -245.417,9.167 -245.417,18.98 -245.417,52.069 -202.515,74.661 -181.065,85.843 -158.701,90.863 L-164.406,124.637 Q-170.111,159.095 -170.111,163.887 -170.111,187.392 -180.38,199.943 -190.649,212.494 -190.649,218.655 -190.649,224.816 -188.823,230.065 M-644.995,309.935 Q-668.043,313.586 -672.607,321.801 -674.661,325.224 -674.661,346.447 -674.661,367.441 -656.633,414.679 -632.901,477.89 -631.303,483.595 -619.209,526.725 -580.186,543.84 -550.977,556.619 -498.947,556.619 -445.777,556.619 -394.203,546.807 -325.972,533.571 -304.977,508.697 -296.077,498.2 -291.97,458.721 -289.003,414.222 -286.493,398.933 -283.07,380.221 -272.801,342.568 -265.955,317.694 -265.955,295.102 -265.955,282.323 -284.211,277.987 -293.795,275.705 -312.964,275.705 -330.992,275.705 -351.758,282.095 -354.04,282.779 -390.78,296.243 -446.918,316.781 -505.793,316.781 -537.057,316.781 -579.502,311.076 -621.719,305.371 -638.149,305.371 M-59.434,777.06 Q-95.49,759.717 -164.406,759.717 -227.846,759.717 -277.365,796.229 -336.925,840.272 -336.925,917.175 -336.925,990.884 -254.545,1015.301 -215.751,1026.711 -142.727,1026.711 -71.529,1026.711 -30.909,1003.891 17.013,976.964 17.013,920.598 17.013,884 1.952,856.018 -5.579,841.413 -14.479,833.882 -22.237,795.088 -59.434,777.06Z" test="RonaldFace"/>
        <path id="Layer4_0_2_STROKES" stroke="#FFF" stroke-width="9.128" stroke-linejoin="round" stroke-linecap="round" fill="none" d="M-188.823,230.065 L-188.139,228.011 M-298.588,-120.907 Q-311.139,-117.255 -339.207,-108.356 -388.27,-92.61 -391.693,-91.697 -418.164,-83.254 -430.944,-59.749 -443.038,-37.157 -439.615,-7.263 M-491.873,109.575 Q-507.162,117.106 -518.572,132.167 -528.613,145.175 -544.587,147.913 -561.702,150.651 -568.548,165.028 -574.253,177.123 -574.253,201.54 -574.253,232.347 -543.446,232.347 -529.526,232.347 -521.995,226.87 -513.096,220.481 -494.383,218.655 -476.355,216.829 -438.474,220.937 -411.775,220.937 -398.539,216.373 -380.283,210.44 -380.283,194.694 -380.283,173.928 -422.957,141.98 -461.979,112.542 -491.873,109.575Z M-852.429,266.805 Q-776.667,321.117 -748.826,403.497 -742.893,420.84 -744.719,440.009 -750.424,501.851 -720.073,550.001 L-669.869,584.231 Q-624.229,628.502 -558.051,632.838 -388.27,644.02 -254.545,552.968 -234.463,539.276 -227.161,515.087 -206.623,447.083 -214.838,374.287 -220.315,324.996 -208.905,280.497 -206.851,272.738 -201.831,266.805 L-188.823,230.065 M-546.869,-7.263 Q-556.454,-31.909 -568.32,-46.97 -580.186,-62.031 -597.073,-71.159 -617.155,-82.341 -621.034,-83.482 -625.598,-84.851 -644.995,-84.851 -683.333,-84.851 -706.381,-56.098 -724.409,-33.734 -731.711,4.147 M-578.817,634.207 Q-562.159,655.658 -559.648,686.921 -558.507,702.895 -560.561,716.359 M-348.335,611.387 Q-350.617,625.079 -350.617,642.194 -350.617,665.927 -343,673.458 -329.623,690.116 -325.515,698.103" test="RonaldFace"/>
        <path id="Layer4_0_3_STROKES" stroke="#F0C" stroke-width="9.128" stroke-linejoin="round" stroke-linecap="round" fill="none" d="M-298.588,-120.907 Q-289.916,-123.645 -289.003,-123.645 L-283.526,-123.645 M-282.614,-122.504 Q-284.439,-122.048 -286.949,-121.363 -295.621,-119.081 -298.588,-120.907" test="RonaldFace"/>
        <path id="Layer4_0_4_STROKES" stroke="#F0F" stroke-width="9.128" stroke-linejoin="round" stroke-linecap="round" fill="none" d="M-325.515,698.103 L-325.515,693.539" test="RonaldFace"/>
        <path id="Layer4_0_5_STROKES" stroke="#FF0" stroke-width="9.128" stroke-linejoin="round" stroke-linecap="round" fill="none" d="M218.057,866.287 Q185.196,848.487 147.087,830.231 -17.217,751.046 -218.033,688.975 L-234.235,688.975 Q-234.007,692.17 -234.007,695.821 -234.007,719.098 -277.821,731.42 -341.946,745.112 -382.565,757.435 -398.996,762.227 -457.415,769.986 -518.344,777.973 -544.587,777.973 -595.476,777.973 -619.893,766.563 -644.995,754.925 -644.995,730.051 -644.995,706.775 -612.363,692.626 -576.307,681.673 -569.689,677.565 M-711.173,725.487 Q-807.245,754.925 -847.865,770.443 -921.802,798.968 -962.193,830.459 -988.664,850.997 -1035.902,900.06 -1059.178,924.249 -1080.857,946.841 M-346.053,657.027 L-270.519,657.027 Q-236.974,652.691 -234.235,688.975 L-238.571,688.975 M-265.955,951.405 Q-265.727,950.264 -265.727,949.123 -258.424,886.368 -240.397,846.205 -217.12,793.947 -180.38,793.947 -163.95,793.947 -159.614,834.795 -158.016,849.172 -158.245,861.723 -154.365,843.238 -145.237,827.721 -128.122,798.511 -101.651,798.511 -74.039,798.511 -67.421,832.969 -65.139,845.292 -65.139,902.342 -65.139,929.954 -68.562,961.902 -70.388,979.93 -71.3,988.145 -71.985,994.535 -71.985,994.763 M-158.245,861.723 Q-158.245,877.468 -160.983,889.791 L-160.983,892.073" test="RonaldFace"/>
        <path id="Layer3_0_1_STROKES" stroke="#FFF" stroke-width="9.128" stroke-linejoin="round" stroke-linecap="round" fill="none" d="M-302.695,-3.84 Q-329.395,9.396 -361.343,24.229 -387.586,36.323 -389.411,37.236 -389.411,39.518 -391.693,39.518 -379.142,47.505 -336.697,51.613 -305.205,54.351 -277.593,53.666 -271.66,53.438 -265.955,53.21 L-265.955,55.492 -277.593,53.666 M-421.359,466.252 Q-422.044,428.827 -393.062,404.638 -370.471,385.469 -341.489,381.818 L-341.489,379.536 M-352.899,347.588 Q-336.697,360.595 -329.395,382.503 -322.32,403.725 -320.951,404.638 M-711.173,48.646 Q-678.997,57.774 -644.311,65.761 -609.168,73.748 -601.637,73.748 L-599.355,73.748 Q-618.524,82.648 -650.928,105.468 -684.474,128.744 -688.353,130.798" test="RonaldFace"/>
      </g>
      <g id="Ronald-Thought-Bubblef6r1">
        <path id="Layer2_0_1_STROKES" stroke="#FFF" stroke-width="9.128" stroke-linejoin="round" stroke-linecap="round" fill="none" d="M1477.42,-506.981 L1478.561,-514.284 Q1438.626,-564.031 1376.556,-578.864 1316.311,-593.013 1255.838,-577.495 1219.782,-568.595 1182.814,-565.401 1158.625,-564.031 1135.12,-568.595 1062.781,-580.005 988.616,-581.603 957.352,-585.254 926.089,-584.341 873.831,-580.918 824.54,-563.803 783.236,-548.742 747.408,-523.184 725.273,-507.438 700.171,-495.571 640.383,-466.818 581.963,-434.87 533.129,-407.943 508.939,-357.51 490.912,-320.086 479.73,-280.151 469.917,-245.236 480.643,-211.919 484.294,-200.737 494.106,-194.119 505.973,-186.132 517.383,-176.32 523.088,-171.071 524.457,-163.769 532.216,-123.605 524.457,-83.214 518.524,-51.494 521.034,-18.633 524.001,23.127 547.733,58.042 555.492,69.224 565.305,79.036 592.917,107.105 597.481,144.53 602.045,182.183 600.676,220.52 599.307,256.804 623.496,283.047 644.718,305.867 673.472,320.928 705.191,337.815 735.314,356.984 741.247,360.635 744.214,368.166 756.536,397.603 765.664,427.726 770.685,443.7 782.551,456.479 814.499,490.024 861.052,497.783 917.646,508.052 974.696,504.173 1016.913,504.173 1058.217,514.67 1072.593,518.321 1086.97,523.342 1146.53,544.108 1210.426,542.282 1270.671,540.457 1321.331,507.824 1368.569,477.702 1424.934,476.561 1483.81,471.997 1541.088,455.794 1585.131,443.472 1618.904,414.034 1633.509,401.483 1637.845,382.77 1641.04,368.166 1646.745,353.789 1648.57,349.225 1652.45,346.03 1703.11,304.498 1765.865,285.329 1799.639,274.604 1823.6,249.502 1869.696,202.036 1868.099,134.945 1867.414,109.159 1852.809,86.11 1845.963,75.613 1841.856,63.747 1839.802,57.357 1838.433,50.968 1867.87,-9.505 1885.67,-75.227 1887.952,-83.67 1887.039,-92.114 1883.16,-126.116 1856.46,-148.251 1824.056,-174.722 1807.397,-214.657 1800.551,-231.316 1799.41,-250.256 1798.954,-259.156 1798.269,-268.056 1795.531,-302.971 1780.698,-334.69 1764.039,-370.974 1734.602,-396.761 1667.511,-456.093 1591.064,-503.102 1560.941,-522.043 1527.168,-519.304 1518.496,-519.532 1510.053,-515.881 1492.481,-508.122 1472.856,-504.699 M450.292,178.76 Q426.331,152.745 390.047,160.732 368.368,165.296 349.884,175.337 294.431,205.915 282.793,267.073 274.578,310.203 301.277,343.52 308.58,352.876 319.762,356.756 357.415,370.904 398.262,370.676 453.715,375.012 503.006,351.507 510.993,347.628 517.611,341.694 549.103,312.713 541.8,269.355 532.216,212.99 479.045,189.029 462.843,181.726 444.587,181.042 M115.751,244.938 Q77.641,221.661 42.955,251.327 .053,288.524 18.766,340.782 20.591,345.574 25.155,348.997 69.883,382.086 118.946,354.017 138.571,342.607 150.665,322.069 153.632,316.821 154.317,310.887 157.968,281.678 131.497,268.442 109.818,257.717 84.944,257.489" test="Ronald Thought Bubble"/>
        <path id="Layer2_0_2_STROKES" stroke="#F90" stroke-width="9.128" stroke-linejoin="round" stroke-linecap="round" fill="none" d="M846.904,-190.24 L844.85,-190.24 Q819.976,-185.676 791.451,-143.231 756.993,-91.886 756.993,-27.533 756.993,19.248 774.564,49.827 785.061,67.626 831.158,118.971 851.696,141.791 902.356,153.658 944.801,163.47 997.287,163.47 1019.879,163.47 1054.566,155.255 1082.406,148.637 1099.293,141.791 1124.851,131.522 1151.779,108.018 1178.478,84.285 1200.842,41.155 1203.352,36.363 1205.634,31.799 1205.862,30.886 1206.09,30.43 1222.749,-6.995 1222.749,-45.789 1222.749,-71.119 1217.729,-82.758 1216.359,-85.952 1211.339,-90.973 M1205.634,31.799 Q1209.742,136.771 1290.068,181.954 1344.151,212.533 1422.88,212.533 1509.596,212.533 1563.68,142.932 1611.602,81.318 1611.602,.992 1611.602,-66.327 1555.236,-140.036 1535.383,-166.051 1511.878,-188.186 1492.938,-205.986 1482.669,-211.919 M844.85,-190.24 L840.058,-190.24" test="Ronald Thought Bubble"/>
      </g>
      <g id="Ronald-Han">
        <path fill="#000" stroke="none" d="M-916.353,236.205 Q-955.831,282.53 -972.946,301.927 -998.961,330.908 -1089.328,397 -1205.254,484.487 -1214.838,492.245 -1255.458,525.791 -1262.989,537.201 L-1261.619,552.718 -865.692,515.522 Q-833.973,495.212 -819.824,484.03 -791.299,461.667 -754.559,427.437 -708.919,384.535 -680.85,358.064 -640.915,320.867 -626.311,303.98 -614.672,290.517 -606.457,272.945 -599.155,257.884 -600.296,256.058 -600.752,255.146 -617.183,249.669 -623.8,247.615 -655.748,241.454 -670.581,238.487 -691.119,234.836 -756.385,222.513 -770.077,218.634 -786.507,213.841 -809.099,197.183 -816.876,191.715 -828.496,183.263 -828.61,183.098 -828.952,182.806 -835.369,178.092 -843.101,172.309 -855.423,164.094 -858.618,168.201 -861.357,171.853 -875.505,191.021 -887.828,203.572 -916.353,236.205 M-591.852,-114.538 L-605.773,-122.297 Q-638.177,-123.21 -657.802,-91.49 -672.635,-67.073 -677.884,-38.091 -686.555,7.32 -722.383,35.389 -721.014,-2.949 -739.498,-37.179 -747.485,-51.555 -760.036,-41.743 -793.353,-16.184 -798.373,26.717 -802.709,64.142 -798.373,101.567 -793.809,144.925 -823.704,175.96 L-828.496,183.263 Q-816.876,191.715 -809.099,197.183 -786.507,213.841 -770.077,218.634 -756.385,222.513 -691.119,234.836 -670.581,238.487 -655.748,241.454 -639.774,218.862 -614.672,209.049 -574.966,192.847 -539.138,169.571 -514.264,153.597 -496.237,131.918 -467.027,97.003 -437.133,63.229 -411.346,34.933 -424.582,-1.808 -430.971,-19.151 -447.174,-11.62 -480.263,1.387 -503.767,27.63 -536.4,64.142 -577.932,89.701 L-581.583,86.962 Q-564.925,60.719 -542.561,39.04 -531.078,28.018 -522.023,15.536 -499.477,-14.911 -491.673,-53.609 -506.277,-69.583 -525.903,-60.227 -558.535,-42.884 -577.248,-10.023 -592.993,18.502 -624.713,16.22 -606.914,-10.251 -590.483,-37.179 -566.522,-76.429 -591.852,-114.538Z" test="Ronald Han" stroke-width="4.564"/>
        <path id="Layer1_0_1_STROKES" stroke="#FF0" stroke-width="9.128" stroke-linejoin="round" stroke-linecap="round" fill="none" d="M-605.773,-122.297 Q-638.177,-123.21 -657.802,-91.49 -672.635,-67.073 -677.884,-38.091 -686.555,7.32 -722.383,35.389 -721.014,-2.949 -739.498,-37.179 -747.485,-51.555 -760.036,-41.743 -793.353,-16.184 -798.373,26.717 -802.709,64.142 -798.373,101.567 -793.809,144.925 -823.704,175.96 M-655.748,241.454 Q-639.774,218.862 -614.672,209.049 -574.966,192.847 -539.138,169.571 -514.264,153.597 -496.237,131.918 -467.027,97.003 -437.133,63.229 -411.346,34.933 -424.582,-1.808 -430.971,-19.151 -447.174,-11.62 -480.263,1.387 -503.767,27.63 -536.4,64.142 -577.932,89.701 L-581.583,86.962 Q-564.925,60.719 -542.561,39.04 -531.078,28.018 -522.023,15.65 -499.477,-14.911 -491.673,-53.609 -506.277,-69.583 -525.903,-60.227 -558.535,-42.884 -577.248,-10.023 -592.993,18.502 -624.713,16.22 -606.914,-10.251 -590.483,-37.179 -566.522,-76.429 -591.852,-114.538 -597.101,-122.297 -605.773,-122.297" test="Ronald Han"/>
        <path id="Layer1_0_2_STROKES" stroke="#F00" stroke-width="9.128" stroke-linejoin="round" stroke-linecap="round" fill="none" d="M-828.382,183.263 Q-816.876,191.715 -809.099,197.183 -786.507,213.841 -770.077,218.634 -756.385,222.513 -691.119,234.836 -670.581,238.487 -655.748,241.454 M-1262.989,537.201 Q-1255.458,525.791 -1214.838,492.245 -1205.254,484.487 -1089.328,397 -998.961,330.908 -972.946,301.927 -955.831,282.53 -916.353,236.205 -887.828,203.572 -875.505,191.021 -861.357,171.853 -858.618,168.201 -855.423,164.094 -843.101,172.309 -835.369,178.092 -828.838,182.92 -828.61,183.098 -828.382,183.263 M-865.692,515.522 Q-833.973,495.212 -819.824,484.03 -791.299,461.667 -754.559,427.437 -708.919,384.535 -680.85,358.064 -640.915,320.867 -626.311,303.98 -614.672,290.517 -606.457,272.945 -599.155,257.884 -600.296,256.058 -600.752,255.146 -617.183,249.669 -623.8,247.615 -655.748,241.454 M-1262.989,537.201 Q-1266.161,542.221 -1267.667,553.403 L-1261.505,552.833 M-1269.15,572.8 Q-1268.862,561.463 -1267.667,553.403 M-865.692,515.522 Q-876.874,522.824 -1091.839,728.432" test="Ronald Han"/>
      </g>
    </g>
  </g>
</svg>