<?xml version="1.0" encoding="utf-8"?>
<svg id="EdithAnim08" image-rendering="inherit" baseProfile="basic" version="1.1" x="0px" y="0px" width="800" height="600" xmlns="http://www.w3.org/2000/svg" xmlns:xlink="http://www.w3.org/1999/xlink">
  <g id="Ronaldf154r1" overflow="visible">
    <g id="Ronaldf27r1">
      <g id="RonaldFacef1r1">
        <path id="Layer4_0_1_STROKES" stroke="#F00" stroke-width="10.484" stroke-linejoin="round" stroke-linecap="round" fill="none" d="M-277.888,223.933 Q-272.121,239.921 -250.891,247.522 -229.661,255.385 -188.249,255.385 -130.325,255.385 -119.841,249.618 -116.434,247.784 -109.357,242.28 -100.446,236.775 -83.409,231.796 -68.208,227.34 -62.442,211.614 -57.199,196.674 -57.199,162.339 -57.199,157.097 -68.994,143.992 -80.788,130.625 -80.788,126.956 -80.788,115.161 -68.994,97.338 -57.199,79.515 -57.199,60.12 -57.199,51.209 -71.615,24.212 -86.031,-2.522 -86.031,-4.094 -86.031,-19.034 -66.373,-37.119 -46.716,-55.204 -46.716,-65.688 -46.716,-77.483 -70.305,-109.721 -93.894,-141.697 -93.894,-143.007 -80.788,-214.561 -80.788,-226.879 -80.788,-250.468 -90.224,-262.525 -93.631,-266.719 -110.93,-278.775 -141.071,-300.005 -141.071,-360.55 -141.071,-375.49 -153.652,-390.43 -167.544,-406.942 -190.87,-415.591 -201.879,-419.261 -205.024,-420.047 -209.217,-421.62 -210.528,-425.027 -212.363,-442.064 -217.08,-473.253 -222.847,-512.831 -255.609,-533.536 -284.44,-551.883 -327.162,-551.883 -328.735,-551.883 -355.731,-545.331 -382.728,-538.778 -386.135,-538.778 -401.861,-538.778 -429.644,-551.883 -457.688,-564.988 -493.858,-564.988 -501.721,-564.988 -520.33,-553.194 -538.939,-541.399 -542.347,-541.399 -564.887,-541.399 -603.94,-564.988 -643.255,-588.578 -664.223,-588.578 -687.812,-588.578 -703.014,-582.025 -717.954,-575.473 -728.438,-575.473 -728.962,-575.473 -771.684,-587.267 -814.144,-599.061 -838.52,-599.061 -844.024,-599.061 -889.629,-556.863 -938.642,-511.782 -966.949,-502.084 -1061.567,-470.108 -1078.079,-424.503 -1084.107,-408.253 -1082.535,-382.305 -1081.748,-367.889 -1079.652,-336.961 -1079.652,-330.409 -1093.543,-321.498 -1112.938,-310.489 -1124.209,-303.413 -1168.766,-275.106 -1168.766,-237.363 -1168.766,-233.956 -1166.145,-222.162 -1163.524,-210.367 -1163.524,-207.222 -1163.524,-198.835 -1178.201,-183.895 -1187.113,-174.722 -1210.702,-153.491 -1257.88,-108.935 -1257.88,-74.861 -1257.88,-49.7 -1227.738,-34.76 -1210.702,-26.635 -1207.032,-23.752 -1197.597,-16.675 -1197.597,-6.715 -1197.597,-4.094 -1213.323,25.261 -1229.049,54.354 -1229.049,70.604 -1229.049,88.427 -1213.323,103.891 -1197.597,119.355 -1197.597,128.266 -1197.597,141.895 -1205.46,160.242 -1213.323,178.327 -1213.323,185.928 -1213.323,200.606 -1205.46,205.586 -1200.742,208.469 -1188.423,211.614 -1163.524,221.836 -1163.524,281.595 M-1160.903,268.49 Q-1131.809,280.022 -1127.878,281.332 -1118.442,284.216 -1105.862,284.216 -1055.8,284.216 -1046.103,250.405 -1042.695,238.61 -1041.385,212.924 -1039.55,179.9 -1037.716,166.271 -1037.978,150.282 -1037.454,139.274 -1036.667,118.83 -1029.853,113.851 -1013.864,102.056 -994.731,69.031 -978.481,41.511 -974.812,27.358 -966.949,-3.046 -959.086,-17.724 -944.146,-46.03 -914.529,-64.377 -896.182,-75.91 -889.105,-99.499 -883.601,-116.798 -885.698,-132.523 -874.165,-160.306 -868.923,-168.693 -858.439,-184.419 -838.52,-195.427 -823.056,-204.077 -809.689,-225.045 -798.418,-242.605 -792.652,-242.605 -792.128,-242.605 -770.636,-229.5 -747.571,-216.395 -738.922,-216.395 -717.167,-216.395 -697.248,-222.948 -677.328,-229.5 -651.118,-229.5 -630.674,-229.5 -604.464,-220.327 -578.516,-211.153 -569.867,-211.153 -548.899,-211.153 -509.846,-225.569 -470.793,-239.984 -445.37,-239.984 -413.131,-239.984 -402.909,-232.384 -396.357,-227.404 -395.046,-212.464 -393.736,-194.379 -388.232,-184.681 -387.446,-183.371 -386.659,-182.322 -386.135,-181.536 -385.611,-181.012 -374.603,-165.81 -348.13,-153.491 -360.449,-143.27 -363.332,-138.814 -366.477,-134.358 -366.477,-125.971 -366.477,-107.886 -343.937,-95.567 -330.046,-87.704 -290.468,-72.24 -305.932,-56.777 -331.618,-37.905 -342.888,-29.78 -342.888,-18.51 -342.888,19.495 -293.614,45.442 -268.976,58.285 -243.29,64.052 L-249.843,102.842 Q-256.396,142.419 -256.396,147.924 -256.396,174.92 -268.19,189.335 -279.984,203.751 -279.984,210.828 -279.984,217.904 -277.888,223.933 M-801.826,315.668 Q-828.298,319.861 -833.54,329.297 -835.899,333.228 -835.899,357.604 -835.899,381.717 -815.193,435.971 -787.934,508.573 -786.1,515.126 -772.208,564.663 -727.389,584.32 -693.84,598.998 -634.082,598.998 -573.012,598.998 -513.778,587.727 -435.41,572.526 -411.297,543.957 -401.075,531.9 -396.357,486.557 -392.95,435.447 -390.066,417.887 -386.135,396.394 -374.34,353.148 -366.477,324.579 -366.477,298.631 -366.477,283.953 -387.446,278.974 -398.454,276.353 -420.47,276.353 -441.176,276.353 -465.027,283.691 -467.648,284.478 -509.846,299.942 -574.323,323.531 -641.945,323.531 -677.852,323.531 -726.603,316.978 -775.091,310.426 -793.963,310.426 M-129.277,852.186 Q-170.689,832.267 -249.843,832.267 -322.707,832.267 -379.582,874.203 -447.991,924.788 -447.991,1013.116 -447.991,1097.774 -353.372,1125.819 -308.816,1138.924 -224.944,1138.924 -143.168,1138.924 -96.514,1112.714 -41.473,1081.786 -41.473,1017.047 -41.473,976.16 -58.772,942.873 -67.421,926.098 -77.643,917.449 -86.555,872.892 -129.277,852.186Z" test="RonaldFace"/>
        <path id="Layer4_0_2_STROKES" stroke="#FFF" stroke-width="10.484" stroke-linejoin="round" stroke-linecap="round" fill="none" d="M-277.888,223.933 L-277.101,221.574 M-403.958,-179.177 Q-418.373,-174.984 -450.612,-164.762 -506.963,-146.677 -510.895,-145.628 -541.298,-135.931 -555.976,-108.935 -569.867,-82.987 -565.936,-48.651 M-625.956,85.544 Q-643.517,94.193 -656.622,111.492 -668.155,126.431 -686.502,129.577 -706.159,132.722 -714.022,149.234 -720.575,163.125 -720.575,191.17 -720.575,226.554 -685.191,226.554 -669.203,226.554 -660.554,220.263 -650.332,212.924 -628.84,210.828 -608.134,208.731 -564.625,213.449 -533.959,213.449 -518.758,208.207 -497.79,201.392 -497.79,183.307 -497.79,159.456 -546.802,122.762 -591.621,88.951 -625.956,85.544Z M-1040.074,266.131 Q-953.057,328.51 -921.081,423.129 -914.266,443.048 -916.363,465.065 -922.916,536.094 -888.056,591.397 L-830.394,630.712 Q-777.974,681.559 -701.965,686.539 -506.963,699.382 -353.372,594.804 -330.308,579.078 -321.92,551.295 -298.331,473.19 -307.767,389.58 -314.057,332.966 -300.952,281.857 -298.594,272.945 -292.827,266.131 L-277.888,223.933 M-689.123,-48.651 Q-700.131,-76.958 -713.76,-94.257 -727.389,-111.555 -746.785,-122.039 -769.849,-134.882 -774.305,-136.193 -779.547,-137.765 -801.826,-137.765 -845.858,-137.765 -872.33,-104.741 -893.036,-79.055 -901.424,-35.546 M-725.817,688.112 Q-706.683,712.749 -703.8,748.657 -702.49,767.004 -704.849,782.468 M-461.096,661.902 Q-463.717,677.628 -463.717,697.285 -463.717,724.544 -456.116,733.193 -439.603,752.326 -434.886,761.5" test="RonaldFace"/>
        <path id="Layer4_0_3_STROKES" stroke="#F0C" stroke-width="10.484" stroke-linejoin="round" stroke-linecap="round" fill="none" d="M-403.958,-179.177 Q-393.998,-182.322 -392.95,-182.322 L-386.659,-182.322 M-385.611,-181.012 Q-387.708,-180.488 -390.591,-179.701 -400.55,-177.08 -403.958,-179.177" test="RonaldFace"/>
        <path id="Layer4_0_4_STROKES" stroke="#F0F" stroke-width="10.484" stroke-linejoin="round" stroke-linecap="round" fill="none" d="M-434.886,761.5 L-434.886,756.258" test="RonaldFace"/>
        <path id="Layer4_0_5_STROKES" stroke="#FF0" stroke-width="10.484" stroke-linejoin="round" stroke-linecap="round" fill="none" d="M189.437,954.667 Q151.694,934.224 107.923,913.256 -80.788,822.307 -311.436,751.016 L-330.046,751.016 Q-329.783,754.685 -329.783,758.879 -329.783,785.613 -380.107,799.766 -453.757,815.492 -500.411,829.646 -519.282,835.15 -586.379,844.061 -656.36,853.235 -686.502,853.235 -744.95,853.235 -772.995,840.13 -801.826,826.763 -801.826,798.194 -801.826,771.459 -764.345,755.209 -722.933,742.628 -715.333,737.911 M-877.835,792.952 Q-988.179,826.763 -1034.832,844.585 -1119.753,877.348 -1166.145,913.518 -1196.548,937.107 -1250.803,993.458 -1277.537,1021.241 -1302.437,1047.189 M-458.475,714.322 L-371.72,714.322 Q-333.191,709.342 -330.046,751.016 L-335.025,751.016 M-366.477,1052.431 Q-366.215,1051.12 -366.215,1049.81 -357.828,977.732 -337.122,931.603 -310.388,871.582 -268.19,871.582 -249.319,871.582 -244.339,918.498 -242.504,935.01 -242.766,949.425 -238.311,928.195 -227.827,910.372 -208.169,876.824 -177.765,876.824 -146.051,876.824 -138.45,916.401 -135.829,930.554 -135.829,996.079 -135.829,1027.793 -139.761,1064.487 -141.858,1085.193 -142.906,1094.629 -143.692,1101.968 -143.692,1102.23 M-242.766,949.425 Q-242.766,967.51 -245.911,981.664 L-245.911,984.285" test="RonaldFace"/>
        <path id="Layer3_0_1_STROKES" stroke="#FFF" stroke-width="10.484" stroke-linejoin="round" stroke-linecap="round" fill="none" d="M-408.676,-44.72 Q-439.341,-29.518 -476.035,-12.482 -506.177,1.41 -508.274,2.458 -508.274,5.079 -510.895,5.079 -496.479,14.252 -447.728,18.97 -411.559,22.116 -379.845,21.329 -373.03,21.067 -366.477,20.805 L-366.477,23.426 -379.845,21.329 M-544.968,495.206 Q-545.754,452.222 -512.467,424.439 -486.519,402.423 -453.233,398.229 L-453.233,395.608 M-466.338,358.914 Q-447.728,373.854 -439.341,399.015 -431.216,423.391 -429.644,424.439 M-877.835,15.563 Q-840.878,26.047 -801.039,35.221 -760.676,44.394 -752.027,44.394 L-749.406,44.394 Q-771.422,54.616 -808.64,80.826 -847.169,107.56 -851.625,109.919" test="RonaldFace"/>
      </g>
      <g id="Ronald-Thought-Bubblef6r1">
        <path id="Layer2_0_1_STROKES" stroke="#FFF" stroke-width="10.484" stroke-linejoin="round" stroke-linecap="round" fill="none" d="M1635.913,-622.637 L1637.224,-631.024 Q1591.356,-688.162 1520.065,-705.198 1450.871,-721.448 1381.414,-703.626 1340.002,-693.404 1297.542,-689.734 1269.759,-688.162 1242.763,-693.404 1159.677,-706.509 1074.495,-708.343 1038.587,-712.537 1002.68,-711.489 942.659,-707.557 886.045,-687.9 838.605,-670.601 797.455,-641.246 772.032,-623.161 743.201,-609.532 674.53,-576.507 607.433,-539.813 551.343,-508.885 523.561,-450.961 502.855,-407.977 490.012,-362.109 478.742,-322.008 491.06,-283.741 495.254,-270.898 506.524,-263.298 520.153,-254.124 533.258,-242.854 539.811,-236.825 541.384,-228.438 550.295,-182.309 541.384,-135.917 534.569,-99.485 537.452,-61.743 540.859,-13.778 568.118,26.323 577.029,39.166 588.299,50.436 620.014,82.674 625.256,125.659 630.498,168.905 628.925,212.938 627.352,254.612 655.135,284.754 679.51,310.963 712.535,328.262 748.967,347.658 783.564,369.674 790.379,373.867 793.786,382.517 807.939,416.328 818.423,450.925 824.189,469.272 837.819,483.95 874.513,522.478 927.981,531.39 992.982,543.184 1058.507,538.728 1106.995,538.728 1154.435,550.785 1170.948,554.979 1187.46,560.745 1255.868,584.596 1329.256,582.499 1398.451,580.402 1456.637,542.922 1510.891,508.325 1575.63,507.014 1643.252,501.772 1709.039,483.163 1759.624,469.01 1798.415,435.199 1815.19,420.783 1820.169,399.291 1823.839,382.517 1830.391,366.005 1832.488,360.763 1836.944,357.093 1895.13,309.391 1967.208,287.375 2005.998,275.056 2033.519,246.225 2086.463,191.708 2084.628,114.651 2083.842,85.033 2067.068,58.561 2059.205,46.505 2054.487,32.875 2052.128,25.537 2050.555,18.198 2084.366,-51.259 2104.81,-126.744 2107.431,-136.441 2106.383,-146.139 2101.927,-185.192 2071.261,-210.615 2034.043,-241.019 2014.91,-286.887 2007.047,-306.02 2005.736,-327.774 2005.212,-337.996 2004.426,-348.218 2001.281,-388.319 1984.244,-424.751 1965.111,-466.425 1931.3,-496.042 1854.242,-564.188 1766.439,-618.181 1731.842,-639.935 1693.051,-636.79 1683.091,-637.052 1673.393,-632.859 1653.212,-623.947 1630.671,-620.016 M456.201,164.974 Q428.681,135.094 387.007,144.268 362.107,149.51 340.877,161.042 277.187,196.164 263.82,266.406 254.384,315.943 285.05,354.21 293.437,364.956 306.28,369.412 349.526,385.662 396.442,385.4 460.133,390.38 516.746,363.384 525.92,358.928 533.521,352.113 569.69,318.827 561.303,269.028 550.295,204.289 489.226,176.768 470.617,168.381 449.649,167.595 M71.962,240.983 Q28.192,214.249 -11.648,248.322 -60.922,291.044 -39.43,351.065 -37.333,356.569 -32.091,360.5 19.28,398.505 75.632,366.267 98.172,353.162 112.064,329.573 115.471,323.544 116.257,316.73 120.451,283.181 90.047,267.979 65.148,255.66 36.579,255.398" test="Ronald Thought Bubble"/>
        <path id="Layer2_0_2_STROKES" stroke="#F90" stroke-width="10.484" stroke-linejoin="round" stroke-linecap="round" fill="none" d="M911.731,-258.842 L909.372,-258.842 Q880.803,-253.6 848.041,-204.849 808.463,-145.877 808.463,-71.965 808.463,-18.234 828.645,16.887 840.702,37.331 893.646,96.304 917.235,122.514 975.421,136.143 1024.172,147.413 1084.455,147.413 1110.403,147.413 1150.242,137.978 1182.218,130.377 1201.613,122.514 1230.969,110.719 1261.896,83.723 1292.562,56.464 1318.248,6.927 1321.131,1.423 1323.752,-3.819 1324.014,-4.867 1324.276,-5.391 1343.41,-48.376 1343.41,-92.933 1343.41,-122.026 1337.643,-135.393 1336.071,-139.062 1330.305,-144.828 M1323.752,-3.819 Q1328.47,116.747 1420.729,168.643 1482.847,203.765 1573.271,203.765 1672.869,203.765 1734.987,123.824 1790.028,53.057 1790.028,-39.202 1790.028,-116.522 1725.289,-201.18 1702.487,-231.059 1675.49,-256.483 1653.736,-276.927 1641.941,-283.741 M909.372,-258.842 L903.868,-258.842" test="Ronald Thought Bubble"/>
      </g>
      <g id="Ronald-Han">
        <path fill="#000" stroke="none" d="M-1113.443,231.003 Q-1158.787,284.209 -1178.444,306.487 -1208.324,339.774 -1312.115,416.831 -1445.262,516.167 -1456.27,525.079 -1502.924,563.607 -1511.573,576.712 L-1510.001,594.535 -1055.257,551.813 Q-1018.825,528.486 -1002.575,515.643 -969.813,489.957 -927.615,450.642 -875.195,401.368 -842.956,370.964 -797.089,328.242 -780.314,308.846 -766.947,293.382 -757.512,273.201 -749.124,255.902 -750.435,253.805 -750.959,252.757 -769.83,246.466 -777.431,244.108 -814.125,237.031 -831.162,233.624 -854.751,229.43 -929.711,215.277 -945.437,210.821 -964.309,205.317 -990.256,186.183 -999.189,179.903 -1012.535,170.195 -1012.666,170.007 -1013.059,169.671 -1020.429,164.256 -1029.309,157.615 -1043.463,148.179 -1047.132,152.897 -1050.277,157.09 -1066.528,179.107 -1080.681,193.522 -1113.443,231.003 M-740.737,-171.845 L-756.725,-180.757 Q-793.944,-181.805 -816.484,-145.373 -833.521,-117.328 -839.549,-84.042 -849.509,-31.884 -890.658,.355 -889.086,-43.678 -910.316,-82.993 -919.489,-99.506 -933.905,-88.235 -972.171,-58.88 -977.938,-9.605 -982.918,33.379 -977.938,76.364 -972.696,126.163 -1007.031,161.808 L-1012.535,170.195 Q-999.189,179.903 -990.256,186.183 -964.309,205.317 -945.437,210.821 -929.711,215.277 -854.751,229.43 -831.162,233.624 -814.125,237.031 -795.778,211.083 -766.947,199.813 -721.342,181.204 -680.192,154.469 -651.623,136.122 -630.917,111.223 -597.368,71.121 -563.033,32.331 -533.416,-.17 -548.618,-42.368 -555.957,-62.287 -574.566,-53.638 -612.57,-38.698 -639.567,-8.557 -677.047,33.379 -724.749,62.734 L-728.943,59.589 Q-709.809,29.448 -684.124,4.548 -670.935,-8.111 -660.535,-22.448 -634.639,-57.418 -625.675,-101.865 -642.45,-120.211 -664.99,-109.465 -702.471,-89.546 -723.963,-51.803 -742.048,-19.041 -778.48,-21.662 -758.036,-52.065 -739.165,-82.993 -711.644,-128.074 -740.737,-171.845Z" test="Ronald Han" stroke-width="5.242"/>
        <path id="Layer1_0_1_STROKES" stroke="#FF0" stroke-width="10.484" stroke-linejoin="round" stroke-linecap="round" fill="none" d="M-756.725,-180.757 Q-793.944,-181.805 -816.484,-145.373 -833.521,-117.328 -839.549,-84.042 -849.509,-31.884 -890.658,.355 -889.086,-43.678 -910.316,-82.993 -919.489,-99.506 -933.905,-88.235 -972.171,-58.88 -977.938,-9.605 -982.918,33.379 -977.938,76.364 -972.696,126.163 -1007.031,161.808 M-814.125,237.031 Q-795.778,211.083 -766.947,199.813 -721.342,181.204 -680.192,154.469 -651.623,136.122 -630.917,111.223 -597.368,71.121 -563.033,32.331 -533.416,-.17 -548.618,-42.368 -555.957,-62.287 -574.566,-53.638 -612.57,-38.698 -639.567,-8.557 -677.047,33.379 -724.749,62.734 L-728.943,59.589 Q-709.809,29.448 -684.124,4.548 -670.935,-8.111 -660.535,-22.317 -634.639,-57.418 -625.675,-101.865 -642.45,-120.211 -664.99,-109.465 -702.471,-89.546 -723.963,-51.803 -742.048,-19.041 -778.48,-21.662 -758.036,-52.065 -739.165,-82.993 -711.644,-128.074 -740.737,-171.845 -746.766,-180.757 -756.725,-180.757" test="Ronald Han"/>
        <path id="Layer1_0_2_STROKES" stroke="#F00" stroke-width="10.484" stroke-linejoin="round" stroke-linecap="round" fill="none" d="M-1012.404,170.195 Q-999.189,179.903 -990.256,186.183 -964.309,205.317 -945.437,210.821 -929.711,215.277 -854.751,229.43 -831.162,233.624 -814.125,237.031 M-1511.573,576.712 Q-1502.924,563.607 -1456.27,525.079 -1445.262,516.167 -1312.115,416.831 -1208.324,339.774 -1178.444,306.487 -1158.787,284.209 -1113.443,231.003 -1080.681,193.522 -1066.528,179.107 -1050.277,157.09 -1047.132,152.897 -1043.463,148.179 -1029.309,157.615 -1020.429,164.256 -1012.928,169.802 -1012.666,170.007 -1012.404,170.195 M-1055.257,551.813 Q-1018.825,528.486 -1002.575,515.643 -969.813,489.957 -927.615,450.642 -875.195,401.368 -842.956,370.964 -797.089,328.242 -780.314,308.846 -766.947,293.382 -757.512,273.201 -749.124,255.902 -750.435,253.805 -750.959,252.757 -769.83,246.466 -777.431,244.108 -814.125,237.031 M-1511.573,576.712 Q-1515.216,582.479 -1516.946,595.322 L-1509.87,594.666 M-1518.65,617.6 Q-1518.32,604.579 -1516.946,595.322 M-1055.257,551.813 Q-1068.1,560.2 -1314.998,796.352" test="Ronald Han"/>
      </g>
    </g>
  </g>
</svg>