<?xml version="1.0" encoding="utf-8"?>
<svg id="EdithAnim08" image-rendering="inherit" baseProfile="basic" version="1.1" x="0px" y="0px" width="800" height="600" xmlns="http://www.w3.org/2000/svg" xmlns:xlink="http://www.w3.org/1999/xlink">
  <g id="Ronaldf155r1" overflow="visible">
    <g id="Ronaldf27r1">
      <g id="RonaldFacef1r1">
        <path id="Layer4_0_1_STROKES" stroke="#F00" stroke-width="11.956" stroke-linejoin="round" stroke-linecap="round" fill="none" d="M-374.519,217.243 Q-367.943,235.475 -343.733,244.144 -319.522,253.111 -272.295,253.111 -206.239,253.111 -194.283,246.535 -190.397,244.442 -182.327,238.166 -172.164,231.889 -152.735,226.21 -135.399,221.128 -128.823,203.194 -122.846,186.157 -122.846,147.001 -122.846,141.023 -136.296,126.078 -149.746,110.834 -149.746,106.65 -149.746,93.199 -136.296,72.874 -122.846,52.549 -122.846,30.43 -122.846,20.267 -139.285,-10.519 -155.725,-41.007 -155.725,-42.8 -155.725,-59.838 -133.307,-80.462 -110.889,-101.086 -110.889,-113.042 -110.889,-126.492 -137.791,-163.257 -164.692,-199.723 -164.692,-201.217 -149.746,-282.817 -149.746,-296.865 -149.746,-323.766 -160.507,-337.516 -164.393,-342.298 -184.12,-356.048 -218.494,-380.259 -218.494,-449.304 -218.494,-466.342 -232.841,-483.379 -248.682,-502.21 -275.285,-512.073 -287.838,-516.258 -291.425,-517.155 -296.208,-518.948 -297.702,-522.834 -299.794,-542.262 -305.174,-577.831 -311.75,-622.965 -349.113,-646.578 -381.992,-667.501 -430.713,-667.501 -432.506,-667.501 -463.293,-660.029 -494.079,-652.556 -497.965,-652.556 -515.899,-652.556 -547.582,-667.501 -579.565,-682.446 -620.813,-682.446 -629.78,-682.446 -651.002,-668.996 -672.224,-655.545 -676.109,-655.545 -701.815,-655.545 -746.351,-682.446 -791.186,-709.347 -815.098,-709.347 -841,-709.347 -859.335,-701.875 -876.372,-694.402 -888.328,-694.402 -888.926,-694.402 -937.647,-707.853 -986.069,-721.303 -1013.866,-721.303 -1020.143,-721.303 -1072.152,-673.181 -1128.046,-621.77 -1160.327,-610.71 -1268.23,-574.245 -1287.061,-522.236 -1293.936,-503.704 -1292.142,-474.113 -1291.246,-457.674 -1288.854,-422.403 -1288.854,-414.931 -1304.696,-404.768 -1326.815,-392.215 -1339.667,-384.144 -1390.48,-351.863 -1390.48,-308.821 -1390.48,-304.936 -1387.491,-291.485 -1384.502,-278.035 -1384.502,-274.448 -1384.502,-264.883 -1401.241,-247.846 -1411.403,-237.384 -1438.304,-213.173 -1492.106,-162.36 -1492.106,-123.503 -1492.106,-94.809 -1457.733,-77.772 -1438.304,-68.506 -1434.12,-65.218 -1423.359,-57.148 -1423.359,-45.789 -1423.359,-42.8 -1441.293,-9.324 -1459.227,23.854 -1459.227,42.386 -1459.227,62.711 -1441.293,80.346 -1423.359,97.981 -1423.359,108.144 -1423.359,123.687 -1432.326,144.61 -1441.293,165.234 -1441.293,173.902 -1441.293,190.64 -1432.326,196.32 -1426.946,199.607 -1412.898,203.194 -1384.502,214.851 -1384.502,283.001 M-1381.513,268.056 Q-1348.336,281.207 -1343.852,282.702 -1333.092,285.99 -1318.744,285.99 -1261.654,285.99 -1250.595,247.431 -1246.709,233.981 -1245.215,204.689 -1243.123,167.027 -1241.03,151.485 -1241.329,133.252 -1240.731,120.698 -1239.835,97.384 -1232.063,91.705 -1213.83,78.254 -1192.011,40.593 -1173.479,9.208 -1169.294,-6.933 -1160.327,-41.605 -1151.36,-58.343 -1134.323,-90.624 -1100.547,-111.547 -1079.624,-124.699 -1071.554,-151.6 -1065.277,-171.327 -1067.668,-189.261 -1054.517,-220.945 -1048.539,-230.51 -1036.583,-248.444 -1013.866,-260.997 -996.231,-270.861 -980.987,-294.773 -968.135,-314.799 -961.559,-314.799 -960.961,-314.799 -936.451,-299.854 -910.148,-284.909 -900.284,-284.909 -875.476,-284.909 -852.759,-292.382 -830.043,-299.854 -800.153,-299.854 -776.839,-299.854 -746.949,-289.393 -717.358,-278.931 -707.494,-278.931 -683.582,-278.931 -639.046,-295.371 -594.51,-311.81 -565.516,-311.81 -528.752,-311.81 -517.095,-303.142 -509.622,-297.463 -508.128,-280.426 -506.633,-259.802 -500.356,-248.743 -499.46,-247.248 -498.563,-246.052 -497.965,-245.156 -497.367,-244.558 -484.813,-227.222 -454.624,-213.173 -468.673,-201.516 -471.961,-196.435 -475.547,-191.354 -475.547,-181.789 -475.547,-161.165 -449.842,-147.117 -434,-138.15 -388.867,-120.514 -406.502,-102.879 -435.794,-81.359 -448.646,-72.093 -448.646,-59.24 -448.646,-15.899 -392.453,13.692 -364.357,28.338 -335.064,34.914 L-342.537,79.151 Q-350.009,124.285 -350.009,130.562 -350.009,161.348 -363.46,177.788 -376.91,194.227 -376.91,202.298 -376.91,210.368 -374.519,217.243 M-972.02,321.858 Q-1002.209,326.64 -1008.187,337.4 -1010.877,341.884 -1010.877,369.682 -1010.877,397.18 -987.264,459.053 -956.179,541.848 -954.086,549.32 -938.245,605.813 -887.133,628.23 -848.874,644.968 -780.724,644.968 -711.081,644.968 -643.529,632.116 -554.158,614.78 -526.659,582.199 -515.002,568.45 -509.622,516.74 -505.736,458.455 -502.448,438.429 -497.965,413.919 -484.514,364.6 -475.547,332.02 -475.547,302.429 -475.547,285.691 -499.46,280.012 -512.013,277.023 -537.121,277.023 -560.734,277.023 -587.934,285.392 -590.923,286.288 -639.046,303.924 -712.575,330.825 -789.691,330.825 -830.641,330.825 -886.236,323.352 -941.533,315.88 -963.053,315.88 M-205.043,933.706 Q-252.269,910.989 -342.537,910.989 -425.631,910.989 -490.492,958.813 -568.505,1016.501 -568.505,1117.23 -568.505,1213.775 -460.602,1245.757 -409.79,1260.702 -314.141,1260.702 -220.885,1260.702 -167.681,1230.812 -104.912,1195.542 -104.912,1121.714 -104.912,1075.086 -124.639,1037.125 -134.503,1017.996 -146.16,1008.132 -156.322,957.319 -205.043,933.706Z" test="RonaldFace"/>
        <path id="Layer4_0_2_STROKES" stroke="#FFF" stroke-width="11.956" stroke-linejoin="round" stroke-linecap="round" fill="none" d="M-374.519,217.243 L-373.623,214.552 M-518.29,-242.466 Q-534.73,-237.683 -571.494,-226.026 -635.758,-205.402 -640.241,-204.206 -674.914,-193.147 -691.652,-162.36 -707.494,-132.769 -703.01,-93.613 M-771.458,59.423 Q-791.485,69.287 -806.43,89.014 -819.581,106.052 -840.504,109.639 -862.922,113.225 -871.889,132.056 -879.361,147.898 -879.361,179.88 -879.361,220.232 -839.01,220.232 -820.777,220.232 -810.913,213.058 -799.256,204.689 -774.746,202.298 -751.133,199.906 -701.516,205.287 -666.545,205.287 -649.208,199.309 -625.296,191.537 -625.296,170.913 -625.296,143.713 -681.191,101.867 -732.303,63.309 -771.458,59.423Z M-1243.72,265.365 Q-1144.486,336.504 -1108.02,444.407 -1100.248,467.123 -1102.64,492.231 -1110.112,573.232 -1070.358,636.3 L-1004.6,681.135 Q-944.82,739.122 -858.139,744.801 -635.758,759.447 -460.602,640.186 -434.299,622.252 -424.734,590.569 -397.833,501.496 -408.594,406.147 -415.767,341.585 -400.822,283.299 -398.132,273.137 -391.557,265.365 L-374.519,217.243 M-843.493,-93.613 Q-856.047,-125.895 -871.59,-145.622 -887.133,-165.349 -909.251,-177.305 -935.555,-191.952 -940.636,-193.446 -946.614,-195.239 -972.02,-195.239 -1022.236,-195.239 -1052.424,-157.578 -1076.038,-128.286 -1085.602,-78.668 M-885.339,746.594 Q-863.52,774.691 -860.232,815.64 -858.737,836.563 -861.427,854.198 M-583.45,716.704 Q-586.439,734.638 -586.439,757.056 -586.439,788.142 -577.771,798.005 -558.941,819.825 -553.56,830.286" test="RonaldFace"/>
        <path id="Layer4_0_3_STROKES" stroke="#F0C" stroke-width="11.956" stroke-linejoin="round" stroke-linecap="round" fill="none" d="M-518.29,-242.466 Q-506.932,-246.052 -505.736,-246.052 L-498.563,-246.052 M-497.367,-244.558 Q-499.758,-243.96 -503.046,-243.063 -514.404,-240.074 -518.29,-242.466" test="RonaldFace"/>
        <path id="Layer4_0_4_STROKES" stroke="#F0F" stroke-width="11.956" stroke-linejoin="round" stroke-linecap="round" fill="none" d="M-553.56,830.286 L-553.56,824.308" test="RonaldFace"/>
        <path id="Layer4_0_5_STROKES" stroke="#FF0" stroke-width="11.956" stroke-linejoin="round" stroke-linecap="round" fill="none" d="M158.419,1050.576 Q115.378,1027.262 65.462,1003.35 -149.746,899.631 -412.778,818.33 L-434,818.33 Q-433.701,822.515 -433.701,827.297 -433.701,857.785 -491.09,873.926 -575.081,891.86 -628.285,908 -649.806,914.277 -726.325,924.44 -806.131,934.901 -840.504,934.901 -907.159,934.901 -939.141,919.956 -972.02,904.713 -972.02,872.132 -972.02,841.645 -929.278,823.113 -882.051,808.766 -873.383,803.385 M-1058.701,866.154 Q-1184.538,904.713 -1237.742,925.038 -1334.586,962.4 -1387.491,1003.648 -1422.164,1030.549 -1484.036,1094.813 -1514.524,1126.496 -1542.919,1156.087 M-580.461,776.484 L-481.525,776.484 Q-437.587,770.805 -434,818.33 L-439.679,818.33 M-475.547,1162.065 Q-475.249,1160.571 -475.249,1159.076 -465.684,1076.879 -442.071,1024.273 -411.583,955.824 -363.46,955.824 -341.939,955.824 -336.26,1009.327 -334.168,1028.158 -334.467,1044.598 -329.385,1020.387 -317.429,1000.062 -295.012,961.802 -260.34,961.802 -224.173,961.802 -215.504,1006.936 -212.516,1023.077 -212.516,1097.802 -212.516,1133.969 -216,1175.815 -219.39,1199.428 -220.586,1210.188 -221.483,1218.558 -221.483,1218.856 M-334.467,1044.598 Q-334.467,1065.222 -338.054,1081.362 L-338.054,1084.351" test="RonaldFace"/>
        <path id="Layer3_0_1_STROKES" stroke="#FFF" stroke-width="11.956" stroke-linejoin="round" stroke-linecap="round" fill="none" d="M-523.67,-89.13 Q-558.642,-71.794 -600.488,-52.365 -634.861,-36.524 -637.252,-35.328 -637.252,-32.339 -640.241,-32.339 -623.802,-21.877 -568.206,-16.497 -526.958,-12.91 -490.791,-13.807 -483.02,-14.106 -475.547,-14.405 L-475.547,-11.416 -490.791,-13.807 M-679.098,526.604 Q-679.995,477.584 -642.035,445.901 -612.444,420.793 -574.483,416.011 L-574.483,413.022 M-589.428,371.176 Q-568.206,388.213 -558.642,416.908 -549.376,444.705 -547.582,445.901 M-1058.701,-20.383 Q-1016.556,-8.427 -971.124,2.035 -925.093,12.496 -915.229,12.496 L-912.24,12.496 Q-937.348,24.153 -979.792,54.043 -1023.73,84.531 -1028.811,87.221" test="RonaldFace"/>
      </g>
      <g id="Ronald-Thought-Bubblef6r1">
        <path id="Layer2_0_1_STROKES" stroke="#FFF" stroke-width="11.956" stroke-linejoin="round" stroke-linecap="round" fill="none" d="M1808.008,-748.16 L1809.502,-757.725 Q1757.195,-822.885 1675.894,-842.314 1596.985,-860.846 1517.776,-840.52 1470.55,-828.863 1422.128,-824.679 1390.445,-822.885 1359.658,-828.863 1264.907,-843.808 1167.764,-845.901 1126.815,-850.683 1085.866,-849.487 1017.417,-845.004 952.855,-822.586 898.754,-802.859 851.827,-769.382 822.834,-748.758 789.955,-733.215 711.643,-695.554 635.124,-653.708 571.16,-618.438 539.476,-552.381 515.863,-503.361 501.217,-451.054 488.364,-405.322 502.413,-361.683 507.195,-347.036 520.048,-338.368 535.591,-327.907 550.536,-315.054 558.008,-308.179 559.802,-298.615 569.964,-246.008 559.802,-193.103 552.03,-151.556 555.318,-108.514 559.204,-53.816 590.289,-8.084 600.452,6.562 613.305,19.415 649.472,56.18 655.45,105.199 661.428,154.518 659.634,204.733 657.841,252.258 689.524,286.631 717.322,316.521 754.983,336.249 796.53,358.367 835.985,383.475 843.757,388.257 847.642,398.121 863.783,436.679 875.739,476.134 882.315,497.057 897.857,513.795 939.703,557.734 1000.679,567.896 1074.806,581.347 1149.531,576.266 1204.828,576.266 1258.929,590.015 1277.759,594.797 1296.59,601.373 1374.603,628.573 1458.295,626.182 1537.205,623.791 1603.56,581.048 1665.433,541.593 1739.261,540.099 1816.377,534.121 1891.401,512.899 1949.089,496.758 1993.326,458.2 2012.456,441.761 2018.135,417.251 2022.319,398.121 2029.792,379.29 2032.183,373.313 2037.264,369.128 2103.62,314.728 2185.818,289.621 2230.055,275.572 2261.439,242.693 2321.817,180.522 2319.725,92.645 2318.828,58.87 2299.698,28.681 2290.731,14.931 2285.351,-.611 2282.661,-8.981 2280.868,-17.35 2319.426,-96.558 2342.74,-182.641 2345.729,-193.701 2344.533,-204.76 2339.452,-249.296 2304.481,-278.289 2262.037,-312.962 2240.217,-365.269 2231.25,-387.089 2229.756,-411.898 2229.158,-423.555 2228.261,-435.212 2224.675,-480.944 2205.246,-522.491 2183.426,-570.016 2144.868,-603.792 2056.992,-681.506 1956.86,-743.079 1917.405,-767.888 1873.168,-764.301 1861.81,-764.6 1850.751,-759.817 1827.735,-749.655 1802.03,-745.171 M462.659,150.034 Q431.275,115.96 383.749,126.421 355.354,132.399 331.143,145.551 258.51,185.603 243.266,265.708 232.506,322.201 267.477,365.84 277.042,378.095 291.688,383.176 341.007,401.708 394.51,401.409 467.143,407.088 531.705,376.301 542.166,371.22 550.835,363.449 592.083,325.488 582.518,268.698 569.964,194.869 500.32,163.485 479.099,153.92 455.187,153.023 M24.472,236.715 Q-25.445,206.227 -70.878,245.084 -127.071,293.805 -102.561,362.253 -100.17,368.53 -94.192,373.014 -35.607,416.354 28.656,379.589 54.362,364.644 70.203,337.743 74.089,330.869 74.986,323.097 79.768,284.838 45.096,267.502 16.7,253.454 -15.88,253.155" test="Ronald Thought Bubble"/>
        <path id="Layer2_0_2_STROKES" stroke="#F90" stroke-width="11.956" stroke-linejoin="round" stroke-linecap="round" fill="none" d="M982.147,-333.287 L979.457,-333.287 Q946.877,-327.309 909.515,-271.714 864.381,-204.461 864.381,-120.171 864.381,-58.897 887.396,-18.844 901.145,4.47 961.523,71.722 988.424,101.612 1054.78,117.155 1110.375,130.008 1179.122,130.008 1208.713,130.008 1254.146,119.247 1290.612,110.579 1312.731,101.612 1346.207,88.162 1381.478,57.375 1416.449,26.29 1445.741,-30.203 1449.029,-36.479 1452.018,-42.457 1452.317,-43.653 1452.616,-44.251 1474.436,-93.27 1474.436,-144.083 1474.436,-177.261 1467.86,-192.505 1466.066,-196.69 1459.491,-203.266 M1452.018,-42.457 Q1457.398,95.037 1562.611,154.219 1633.45,194.271 1736.571,194.271 1850.153,194.271 1920.992,103.107 1983.761,22.404 1983.761,-82.809 1983.761,-170.984 1909.933,-267.529 1883.929,-301.604 1853.142,-330.597 1828.333,-353.911 1814.883,-361.683 M979.457,-333.287 L973.18,-333.287" test="Ronald Thought Bubble"/>
      </g>
      <g id="Ronald-Han">
        <path fill="#000" stroke="none" d="M-1327.401,225.272 Q-1379.11,285.949 -1401.528,311.356 -1435.602,349.316 -1553.967,437.193 -1705.808,550.476 -1718.362,560.638 -1771.566,604.577 -1781.43,619.522 L-1779.636,639.847 -1261.045,591.126 Q-1219.498,564.524 -1200.966,549.878 -1163.603,520.586 -1115.481,475.751 -1055.7,419.558 -1018.936,384.885 -966.628,336.164 -947.499,314.046 -932.255,296.411 -921.494,273.395 -911.93,253.668 -913.424,251.277 -914.022,250.081 -935.543,242.908 -944.211,240.217 -986.057,232.147 -1005.485,228.262 -1032.386,223.479 -1117.872,207.339 -1135.806,202.257 -1157.327,195.98 -1186.918,174.161 -1197.104,166 -1212.324,155.928 -1212.474,155.712 -1212.922,155.33 -1221.327,149.155 -1231.454,141.581 -1247.594,130.82 -1251.779,136.2 -1255.366,140.983 -1273.897,166.09 -1290.038,182.53 -1327.401,225.272 M-902.365,-234.137 L-920.598,-244.299 Q-963.041,-245.495 -988.747,-203.948 -1008.175,-171.966 -1015.05,-134.005 -1026.408,-74.524 -1073.336,-37.759 -1071.542,-87.975 -1095.753,-132.81 -1106.215,-151.64 -1122.654,-138.788 -1166.293,-105.311 -1172.869,-49.118 -1178.548,-.098 -1172.869,48.922 -1166.891,105.712 -1206.047,146.363 L-1212.324,155.928 Q-1197.104,166 -1186.918,174.161 -1157.327,195.98 -1135.806,202.257 -1117.872,207.339 -1032.386,223.479 -1005.485,228.262 -986.057,232.147 -965.134,202.556 -932.255,189.703 -880.246,168.481 -833.319,137.994 -800.739,117.071 -777.126,88.675 -738.867,42.943 -699.711,-1.294 -665.935,-38.357 -683.271,-86.48 -691.64,-109.197 -712.862,-99.333 -756.203,-82.296 -786.989,-47.922 -829.732,-.098 -884.132,33.379 L-888.914,29.792 Q-867.095,-4.582 -837.802,-32.977 -822.762,-47.414 -810.901,-63.764 -781.37,-103.643 -771.148,-154.331 -790.277,-175.254 -815.983,-162 -858.725,-140.282 -883.235,-97.241 -903.859,-59.878 -945.406,-62.867 -922.092,-97.539 -900.571,-132.81 -869.187,-184.221 -902.365,-234.137Z" test="Ronald Han" stroke-width="5.978"/>
        <path id="Layer1_0_1_STROKES" stroke="#FF0" stroke-width="11.956" stroke-linejoin="round" stroke-linecap="round" fill="none" d="M-920.598,-244.299 Q-963.041,-245.495 -988.747,-203.948 -1008.175,-171.966 -1015.05,-134.005 -1026.408,-74.524 -1073.336,-37.759 -1071.542,-87.975 -1095.753,-132.81 -1106.215,-151.64 -1122.654,-138.788 -1166.293,-105.311 -1172.869,-49.118 -1178.548,-.098 -1172.869,48.922 -1166.891,105.712 -1206.047,146.363 M-986.057,232.147 Q-965.134,202.556 -932.255,189.703 -880.246,168.481 -833.319,137.994 -800.739,117.071 -777.126,88.675 -738.867,42.943 -699.711,-1.294 -665.935,-38.357 -683.271,-86.48 -691.64,-109.197 -712.862,-99.333 -756.203,-82.296 -786.989,-47.922 -829.732,-.098 -884.132,33.379 L-888.914,29.792 Q-867.095,-4.582 -837.802,-32.977 -822.762,-47.414 -810.901,-63.614 -781.37,-103.643 -771.148,-154.331 -790.277,-175.254 -815.983,-162 -858.725,-140.282 -883.235,-97.241 -903.859,-59.878 -945.406,-62.867 -922.092,-97.539 -900.571,-132.81 -869.187,-184.221 -902.365,-234.137 -909.239,-244.299 -920.598,-244.299" test="Ronald Han"/>
        <path id="Layer1_0_2_STROKES" stroke="#F00" stroke-width="11.956" stroke-linejoin="round" stroke-linecap="round" fill="none" d="M-1212.175,155.928 Q-1197.104,166 -1186.918,174.161 -1157.327,195.98 -1135.806,202.257 -1117.872,207.339 -1032.386,223.479 -1005.485,228.262 -986.057,232.147 M-1781.43,619.522 Q-1771.566,604.577 -1718.362,560.638 -1705.808,550.476 -1553.967,437.193 -1435.602,349.316 -1401.528,311.356 -1379.11,285.949 -1327.401,225.272 -1290.038,182.53 -1273.897,166.09 -1255.366,140.983 -1251.779,136.2 -1247.594,130.82 -1231.454,141.581 -1221.327,149.155 -1212.772,155.479 -1212.474,155.712 -1212.175,155.928 M-1261.045,591.126 Q-1219.498,564.524 -1200.966,549.878 -1163.603,520.586 -1115.481,475.751 -1055.7,419.558 -1018.936,384.885 -966.628,336.164 -947.499,314.046 -932.255,296.411 -921.494,273.395 -911.93,253.668 -913.424,251.277 -914.022,250.081 -935.543,242.908 -944.211,240.217 -986.057,232.147 M-1781.43,619.522 Q-1785.584,626.097 -1787.557,640.743 L-1779.487,639.996 M-1789.5,666.15 Q-1789.123,651.301 -1787.557,640.743 M-1261.045,591.126 Q-1275.691,600.691 -1557.255,870" test="Ronald Han"/>
      </g>
    </g>
  </g>
</svg>