<?xml version="1.0" encoding="utf-8"?>
<svg id="EdithAnim08" image-rendering="inherit" baseProfile="basic" version="1.1" x="0px" y="0px" width="800" height="600" xmlns="http://www.w3.org/2000/svg" xmlns:xlink="http://www.w3.org/1999/xlink">
  <g id="Ronaldf16r1" overflow="visible">
    <g id="Ronaldf0r1">
      <g id="RonaldFacef0r1">
        <path id="Layer2_0_1_STROKES" stroke="#F00" stroke-width="2.548" stroke-linejoin="round" stroke-linecap="round" fill="none" d="M103.463,268.503 Q104.865,272.388 110.024,274.236 115.184,276.147 125.249,276.147 139.326,276.147 141.874,274.745 142.702,274.299 144.422,272.962 146.588,271.624 150.729,270.414 154.423,269.331 155.825,265.509 157.099,261.878 157.099,253.533 157.099,252.259 154.232,249.074 151.366,245.825 151.366,244.933 151.366,242.067 154.232,237.735 157.099,233.404 157.099,228.69 157.099,226.524 153.595,219.963 150.092,213.466 150.092,213.083 150.092,209.453 154.869,205.057 159.647,200.662 159.647,198.114 159.647,195.247 153.914,187.412 148.181,179.641 148.181,179.323 151.366,161.932 151.366,158.938 151.366,153.205 149.072,150.275 148.244,149.256 144.04,146.326 136.715,141.166 136.715,126.451 136.715,122.821 133.657,119.19 130.281,115.177 124.612,113.074 121.936,112.183 121.172,111.992 120.153,111.609 119.834,110.781 119.388,106.641 118.242,99.06 116.84,89.442 108.878,84.409 101.871,79.95 91.488,79.95 91.105,79.95 84.544,81.543 77.983,83.135 77.155,83.135 73.333,83.135 66.581,79.95 59.765,76.765 50.974,76.765 49.063,76.765 44.541,79.632 40.018,82.498 39.19,82.498 33.712,82.498 24.22,76.765 14.665,71.032 9.569,71.032 3.836,71.032 .142,72.625 -3.489,74.217 -6.037,74.217 -6.165,74.217 -16.548,71.351 -26.867,68.484 -32.791,68.484 -34.129,68.484 -45.213,78.74 -57.125,89.697 -64.004,92.053 -87,99.825 -91.013,110.909 -92.478,114.858 -92.096,121.164 -91.905,124.668 -91.395,132.185 -91.395,133.777 -94.771,135.943 -99.485,138.618 -102.224,140.338 -113.053,147.218 -113.053,156.39 -113.053,157.219 -112.416,160.085 -111.779,162.952 -111.779,163.716 -111.779,165.754 -115.346,169.385 -117.512,171.615 -123.245,176.775 -134.711,187.604 -134.711,195.884 -134.711,202 -127.386,205.631 -123.245,207.605 -122.353,208.306 -120.06,210.026 -120.06,212.446 -120.06,213.083 -123.882,220.218 -127.704,227.289 -127.704,231.238 -127.704,235.57 -123.882,239.328 -120.06,243.086 -120.06,245.252 -120.06,248.564 -121.971,253.023 -123.882,257.419 -123.882,259.266 -123.882,262.833 -121.971,264.044 -120.825,264.744 -117.831,265.509 -111.779,267.993 -111.779,282.516 M-111.142,279.332 Q-104.072,282.134 -103.116,282.453 -100.823,283.153 -97.765,283.153 -85.598,283.153 -83.242,274.936 -82.413,272.07 -82.095,265.827 -81.649,257.801 -81.203,254.489 -81.267,250.603 -81.139,247.927 -80.948,242.959 -79.292,241.748 -75.407,238.882 -70.756,230.856 -66.807,224.167 -65.915,220.727 -64.004,213.338 -62.093,209.771 -58.462,202.891 -51.264,198.432 -46.805,195.63 -45.085,189.897 -43.748,185.693 -44.257,181.871 -41.454,175.118 -40.18,173.08 -37.632,169.258 -32.791,166.582 -29.033,164.48 -25.784,159.384 -23.045,155.116 -21.644,155.116 -21.516,155.116 -16.293,158.301 -10.687,161.486 -8.585,161.486 -3.298,161.486 1.543,159.894 6.384,158.301 12.754,158.301 17.723,158.301 24.093,160.531 30.399,162.76 32.501,162.76 37.597,162.76 47.089,159.257 56.58,155.753 62.759,155.753 70.594,155.753 73.078,157.601 74.671,158.811 74.989,162.442 75.308,166.837 76.645,169.194 76.837,169.513 77.028,169.767 77.155,169.959 77.282,170.086 79.958,173.781 86.392,176.775 83.398,179.259 82.697,180.342 81.933,181.425 81.933,183.463 81.933,187.858 87.411,190.852 90.787,192.763 100.406,196.521 96.647,200.28 90.405,204.866 87.666,206.841 87.666,209.58 87.666,218.816 99.641,225.123 105.629,228.244 111.872,229.645 L110.279,239.073 Q108.687,248.692 108.687,250.029 108.687,256.591 105.82,260.094 102.954,263.598 102.954,265.318 102.954,267.037 103.463,268.503 M-23.873,290.797 Q-30.307,291.817 -31.581,294.11 -32.154,295.065 -32.154,300.989 -32.154,306.85 -27.122,320.036 -20.497,337.681 -20.051,339.273 -16.675,351.313 -5.782,356.09 2.371,359.657 16.895,359.657 31.737,359.657 46.133,356.918 65.179,353.223 71.04,346.28 73.524,343.35 74.671,332.33 75.499,319.908 76.2,315.641 77.155,310.417 80.022,299.907 81.933,292.963 81.933,286.657 81.933,283.09 76.837,281.879 74.161,281.242 68.81,281.242 63.778,281.242 57.981,283.026 57.344,283.217 47.089,286.975 31.418,292.708 14.984,292.708 6.257,292.708 -5.591,291.116 -17.376,289.523 -21.962,289.523 M139.581,421.191 Q129.516,416.35 110.279,416.35 92.57,416.35 78.748,426.542 62.122,438.836 62.122,460.303 62.122,480.878 85.118,487.694 95.947,490.879 116.331,490.879 136.205,490.879 147.544,484.509 160.921,476.993 160.921,461.259 160.921,451.322 156.716,443.232 154.614,439.155 152.13,437.053 149.964,426.224 139.581,421.191Z" test="RonaldFace"/>
        <path id="Layer2_0_2_STROKES" stroke="#FFF" stroke-width="2.548" stroke-linejoin="round" stroke-linecap="round" fill="none" d="M103.463,268.503 L103.654,267.929 M72.823,170.532 Q69.32,171.551 61.485,174.035 47.789,178.431 46.834,178.686 39.445,181.042 35.877,187.604 32.501,193.91 33.457,202.254 M18.87,234.869 Q14.602,236.971 11.417,241.175 8.614,244.806 4.155,245.57 -.623,246.335 -2.534,250.348 -4.126,253.724 -4.126,260.54 -4.126,269.14 4.473,269.14 8.359,269.14 10.461,267.611 12.945,265.827 18.169,265.318 23.201,264.808 33.775,265.955 41.228,265.955 44.923,264.681 50.019,263.024 50.019,258.629 50.019,252.832 38.107,243.914 27.214,235.697 18.87,234.869Z M-81.776,278.758 Q-60.628,293.919 -52.857,316.915 -51.201,321.756 -51.71,327.107 -53.303,344.369 -44.83,357.81 L-30.817,367.365 Q-18.077,379.723 .396,380.933 47.789,384.054 85.118,358.638 90.723,354.816 92.762,348.064 98.495,329.081 96.201,308.761 94.673,295.002 97.858,282.58 98.431,280.414 99.832,278.758 L103.463,268.503 M3.518,202.254 Q0.842,195.375 -2.47,191.171 -5.782,186.967 -10.496,184.419 -16.102,181.297 -17.185,180.979 -18.459,180.597 -23.873,180.597 -34.575,180.597 -41.008,188.623 -46.041,194.865 -48.079,205.439 M-5.4,381.315 Q-.75,387.303 -.049,396.03 .269,400.489 -.304,404.247 M58.937,374.945 Q58.3,378.767 58.3,383.545 58.3,390.17 60.147,392.272 64.16,396.922 65.307,399.151" test="RonaldFace"/>
        <path id="Layer2_0_3_STROKES" stroke="#F0C" stroke-width="2.548" stroke-linejoin="round" stroke-linecap="round" fill="none" d="M72.823,170.532 Q75.244,169.767 75.499,169.767 L77.028,169.767 M77.282,170.086 Q76.773,170.213 76.072,170.404 73.652,171.041 72.823,170.532" test="RonaldFace"/>
        <path id="Layer2_0_4_STROKES" stroke="#F0F" stroke-width="2.548" stroke-linejoin="round" stroke-linecap="round" fill="none" d="M65.307,399.151 L65.307,397.877" test="RonaldFace"/>
        <path id="Layer2_0_5_STROKES" stroke="#FF0" stroke-width="2.548" stroke-linejoin="round" stroke-linecap="round" fill="none" d="M217.04,446.098 Q207.867,441.13 197.23,436.034 151.366,413.93 95.31,396.603 L90.787,396.603 Q90.851,397.495 90.851,398.514 90.851,405.012 78.62,408.451 60.72,412.273 49.382,415.713 44.795,417.051 28.488,419.217 11.48,421.446 4.155,421.446 -10.05,421.446 -16.866,418.261 -23.873,415.013 -23.873,408.069 -23.873,401.572 -14.764,397.622 -4.699,394.565 -2.852,393.418 M-42.346,406.795 Q-69.164,415.013 -80.502,419.344 -101.141,427.307 -112.416,436.097 -119.805,441.83 -132.991,455.526 -139.489,462.278 -145.54,468.584 M59.574,387.685 L80.659,387.685 Q90.022,386.475 90.787,396.603 L89.577,396.603 M81.933,469.858 Q81.996,469.54 81.996,469.221 84.035,451.704 89.067,440.492 95.564,425.905 105.82,425.905 110.406,425.905 111.617,437.308 112.063,441.321 111,444.824 113.082,439.664 115.63,435.333 120.407,427.179 127.797,427.179 135.504,427.179 137.352,436.798 137.989,440.238 137.989,456.163 137.989,463.87 137.033,472.788 136.523,477.821 136.269,480.114 136.078,481.898 136.078,481.961 M111,444.824 Q111,449.219 111.235,452.659 L111.235,453.296" test="RonaldFace"/>
        <path id="Layer1_0_1_STROKES" stroke="#FFF" stroke-width="2.548" stroke-linejoin="round" stroke-linecap="round" fill="none" d="M60.147,203.21 Q61.867,209.134 60.529,214.994 59.956,217.351 59.51,219.772 M-27.759,216.587 Q-24.574,224.549 -26.676,232.894 -27.058,234.487 -27.377,236.079 M27.66,318.38 Q22.246,320.291 17.277,323.922 16.831,324.113 16.513,324.431" test="RonaldFace"/>
      </g>
    </g>
  </g>
</svg>