<?xml version="1.0" encoding="utf-8"?>
<svg id="EdithAnim08" image-rendering="inherit" baseProfile="basic" version="1.1" x="0px" y="0px" width="800" height="600" xmlns="http://www.w3.org/2000/svg" xmlns:xlink="http://www.w3.org/1999/xlink">
  <g id="Ronaldf162r1" overflow="visible">
    <g id="Ronaldf27r1">
      <g id="RonaldFacef1r1">
        <path id="Layer4_0_1_STROKES" stroke="#F00" stroke-width="25.566" stroke-linejoin="round" stroke-linecap="round" fill="none" d="M-1267.884,155.349 Q-1253.822,194.337 -1202.051,212.872 -1150.28,232.047 -1049.294,232.047 -908.042,232.047 -882.476,217.985 -874.167,213.511 -856.91,200.089 -835.179,186.667 -793.634,174.523 -756.564,163.658 -742.502,125.309 -729.719,88.877 -729.719,5.149 -729.719,-7.635 -758.481,-39.592 -787.243,-72.189 -787.243,-81.137 -787.243,-109.899 -758.481,-153.361 -729.719,-196.823 -729.719,-244.12 -729.719,-265.851 -764.872,-331.684 -800.026,-396.877 -800.026,-400.712 -800.026,-437.143 -752.089,-481.245 -704.153,-525.346 -704.153,-550.912 -704.153,-579.674 -761.677,-658.289 -819.2,-736.265 -819.2,-739.461 -787.243,-913.949 -787.243,-943.989 -787.243,-1001.513 -810.252,-1030.914 -818.561,-1041.14 -860.745,-1070.541 -934.247,-1122.312 -934.247,-1269.956 -934.247,-1306.387 -964.926,-1342.819 -998.801,-1383.085 -1055.686,-1404.177 -1082.53,-1413.125 -1090.2,-1415.043 -1100.426,-1418.878 -1103.622,-1427.187 -1108.096,-1468.731 -1119.601,-1544.79 -1133.662,-1641.302 -1213.556,-1691.795 -1283.862,-1736.535 -1388.044,-1736.535 -1391.879,-1736.535 -1457.711,-1720.556 -1523.544,-1704.578 -1531.852,-1704.578 -1570.201,-1704.578 -1637.951,-1736.535 -1706.34,-1768.493 -1794.543,-1768.493 -1813.718,-1768.493 -1859.097,-1739.731 -1904.477,-1710.969 -1912.786,-1710.969 -1967.753,-1710.969 -2062.986,-1768.493 -2158.859,-1826.016 -2209.991,-1826.016 -2267.514,-1826.016 -2304.585,-1810.037 -2341.016,-1794.059 -2366.582,-1794.059 -2367.861,-1794.059 -2472.042,-1822.82 -2575.584,-1851.582 -2635.025,-1851.582 -2648.448,-1851.582 -2759.66,-1748.679 -2879.181,-1638.745 -2948.209,-1615.097 -3178.942,-1537.12 -3219.208,-1425.908 -3233.909,-1386.281 -3230.074,-1323.005 -3228.157,-1287.852 -3223.043,-1212.432 -3223.043,-1196.453 -3256.918,-1174.722 -3304.215,-1147.878 -3331.699,-1130.621 -3440.354,-1061.593 -3440.354,-969.555 -3440.354,-961.246 -3433.963,-932.485 -3427.571,-903.723 -3427.571,-896.053 -3427.571,-875.6 -3463.364,-839.169 -3485.095,-816.798 -3542.618,-765.027 -3657.665,-656.372 -3657.665,-573.282 -3657.665,-511.924 -3584.163,-475.492 -3542.618,-455.679 -3533.67,-448.648 -3510.661,-431.391 -3510.661,-407.103 -3510.661,-400.712 -3549.01,-329.127 -3587.359,-258.181 -3587.359,-218.554 -3587.359,-175.092 -3549.01,-137.382 -3510.661,-99.672 -3510.661,-77.941 -3510.661,-44.705 -3529.835,.035 -3549.01,44.137 -3549.01,62.672 -3549.01,98.464 -3529.835,110.608 -3518.331,117.639 -3488.291,125.309 -3427.571,150.236 -3427.571,295.962 M-3421.18,264.004 Q-3350.234,292.127 -3340.647,295.323 -3317.638,302.353 -3286.958,302.353 -3164.881,302.353 -3141.232,219.903 -3132.923,191.141 -3129.727,128.504 -3125.253,47.972 -3120.779,14.736 -3121.419,-24.252 -3120.14,-51.097 -3118.223,-100.95 -3101.605,-113.094 -3062.617,-141.856 -3015.959,-222.389 -2976.331,-289.5 -2967.383,-324.014 -2948.209,-398.155 -2929.034,-433.948 -2892.603,-502.976 -2820.379,-547.716 -2775.638,-575.839 -2758.381,-633.362 -2744.959,-675.546 -2750.072,-713.895 -2721.95,-781.645 -2709.167,-802.098 -2683.601,-840.447 -2635.025,-867.291 -2597.316,-888.383 -2564.719,-939.515 -2537.235,-982.338 -2523.174,-982.338 -2521.896,-982.338 -2469.486,-950.381 -2413.24,-918.423 -2392.148,-918.423 -2339.099,-918.423 -2290.524,-934.402 -2241.948,-950.381 -2178.033,-950.381 -2128.179,-950.381 -2064.264,-928.01 -2000.989,-905.64 -1979.897,-905.64 -1928.765,-905.64 -1833.531,-940.793 -1738.298,-975.947 -1676.3,-975.947 -1597.685,-975.947 -1572.758,-957.411 -1556.779,-945.268 -1553.584,-908.836 -1550.388,-864.735 -1536.966,-841.086 -1535.048,-837.89 -1533.131,-835.334 -1531.852,-833.416 -1530.574,-832.138 -1503.73,-795.067 -1439.176,-765.027 -1469.216,-740.1 -1476.246,-729.235 -1483.916,-718.369 -1483.916,-697.916 -1483.916,-653.815 -1428.949,-623.775 -1395.074,-604.601 -1298.563,-566.891 -1336.273,-529.181 -1398.909,-483.162 -1426.393,-463.348 -1426.393,-435.865 -1426.393,-343.188 -1306.233,-279.912 -1246.152,-248.594 -1183.516,-234.533 L-1199.494,-139.939 Q-1215.473,-43.427 -1215.473,-30.005 -1215.473,35.828 -1244.235,70.981 -1272.997,106.134 -1272.997,123.391 -1272.997,140.648 -1267.884,155.349 M-2545.544,379.051 Q-2610.099,389.278 -2622.882,412.287 -2628.634,421.874 -2628.634,481.315 -2628.634,540.117 -2578.141,672.421 -2511.669,849.466 -2507.195,865.444 -2473.32,986.244 -2364.026,1034.18 -2282.215,1069.972 -2136.488,1069.972 -1987.566,1069.972 -1843.119,1042.489 -1652.013,1005.418 -1593.211,935.751 -1568.284,906.35 -1556.779,795.777 -1548.47,671.143 -1541.44,628.32 -1531.852,575.909 -1503.091,470.45 -1483.916,400.782 -1483.916,337.506 -1483.916,301.714 -1535.048,289.57 -1561.893,283.179 -1615.581,283.179 -1666.074,283.179 -1724.237,301.075 -1730.628,302.992 -1833.531,340.702 -1990.762,398.226 -2155.663,398.226 -2243.226,398.226 -2362.108,382.247 -2480.351,366.268 -2526.37,366.268 M-905.485,1687.391 Q-1006.471,1638.816 -1199.494,1638.816 -1377.178,1638.816 -1515.874,1741.08 -1682.692,1864.436 -1682.692,2079.829 -1682.692,2286.275 -1451.959,2354.664 -1343.303,2386.621 -1138.775,2386.621 -939.36,2386.621 -825.592,2322.706 -691.37,2247.287 -691.37,2089.417 -691.37,1989.709 -733.554,1908.537 -754.646,1867.632 -779.573,1846.54 -801.304,1737.884 -905.485,1687.391Z" test="RonaldFace"/>
        <path id="Layer4_0_2_STROKES" stroke="#FFF" stroke-width="25.566" stroke-linejoin="round" stroke-linecap="round" fill="none" d="M-1267.884,155.349 L-1265.966,149.596 M-1575.315,-827.664 Q-1610.468,-817.438 -1689.083,-792.511 -1826.501,-748.409 -1836.088,-745.853 -1910.229,-722.204 -1946.022,-656.372 -1979.897,-593.096 -1970.309,-509.367 M-2116.675,-182.122 Q-2159.498,-161.031 -2191.455,-118.847 -2219.578,-82.415 -2264.318,-74.745 -2312.255,-67.075 -2331.429,-26.809 -2347.408,7.066 -2347.408,75.455 -2347.408,161.74 -2261.123,161.74 -2222.134,161.74 -2201.043,146.401 -2176.116,128.504 -2123.705,123.391 -2073.213,118.278 -1967.114,129.783 -1892.333,129.783 -1855.262,117 -1804.13,100.382 -1804.13,56.28 -1804.13,-1.882 -1923.651,-91.363 -2032.946,-173.813 -2116.675,-182.122Z M-3126.532,258.252 Q-2914.334,410.37 -2836.358,641.103 -2819.74,689.678 -2824.853,743.367 -2840.832,916.576 -2755.825,1051.437 L-2615.212,1147.31 Q-2487.382,1271.305 -2302.028,1283.449 -1826.501,1314.767 -1451.959,1059.746 -1395.714,1021.397 -1375.261,953.647 -1317.737,763.18 -1340.747,559.292 -1356.086,421.235 -1324.129,296.601 -1318.376,274.87 -1304.315,258.252 L-1267.884,155.349 M-2270.71,-509.367 Q-2297.554,-578.395 -2330.79,-620.579 -2364.026,-662.763 -2411.323,-688.329 -2467.568,-719.648 -2478.434,-722.843 -2491.217,-726.678 -2545.544,-726.678 -2652.922,-726.678 -2717.476,-646.145 -2767.969,-583.509 -2788.421,-477.41 M-2360.191,1287.283 Q-2313.533,1347.364 -2306.502,1434.927 -2303.307,1479.668 -2309.059,1517.377 M-1714.649,1223.368 Q-1721.041,1261.717 -1721.041,1309.654 -1721.041,1376.125 -1702.506,1397.217 -1662.239,1443.875 -1650.734,1466.245" test="RonaldFace"/>
        <path id="Layer4_0_3_STROKES" stroke="#F0C" stroke-width="25.566" stroke-linejoin="round" stroke-linecap="round" fill="none" d="M-1575.315,-827.664 Q-1551.027,-835.334 -1548.47,-835.334 L-1533.131,-835.334 M-1530.574,-832.138 Q-1535.687,-830.86 -1542.718,-828.942 -1567.006,-822.551 -1575.315,-827.664" test="RonaldFace"/>
        <path id="Layer4_0_4_STROKES" stroke="#F0F" stroke-width="25.566" stroke-linejoin="round" stroke-linecap="round" fill="none" d="M-1650.734,1466.245 L-1650.734,1453.462" test="RonaldFace"/>
        <path id="Layer4_0_5_STROKES" stroke="#FF0" stroke-width="25.566" stroke-linejoin="round" stroke-linecap="round" fill="none" d="M-128.279,1937.299 Q-220.317,1887.445 -327.055,1836.313 -787.243,1614.528 -1349.695,1440.679 L-1395.074,1440.679 Q-1394.435,1449.628 -1394.435,1459.854 -1394.435,1525.047 -1517.152,1559.561 -1696.753,1597.91 -1810.522,1632.424 -1856.541,1645.847 -2020.163,1667.578 -2190.816,1689.948 -2264.318,1689.948 -2406.849,1689.948 -2475.238,1657.99 -2545.544,1625.394 -2545.544,1555.726 -2545.544,1490.533 -2454.146,1450.906 -2353.16,1420.227 -2334.625,1408.722 M-2730.898,1542.943 Q-2999.98,1625.394 -3113.749,1668.856 -3320.833,1748.75 -3433.963,1836.952 -3508.104,1894.476 -3640.408,2031.893 -3705.602,2099.643 -3766.321,2162.919 M-1708.258,1351.198 L-1496.699,1351.198 Q-1402.744,1339.055 -1395.074,1440.679 L-1407.218,1440.679 M-1483.916,2175.702 Q-1483.277,2172.506 -1483.277,2169.31 -1462.824,1993.544 -1412.331,1881.054 -1347.138,1734.688 -1244.235,1734.688 -1198.216,1734.688 -1186.072,1849.096 -1181.598,1889.363 -1182.237,1924.516 -1171.372,1872.745 -1145.806,1829.283 -1097.87,1747.471 -1023.728,1747.471 -946.391,1747.471 -927.856,1843.983 -921.464,1878.497 -921.464,2038.285 -921.464,2115.622 -931.051,2205.103 -936.165,2255.596 -938.721,2278.605 -940.639,2296.501 -940.639,2297.14 M-1182.237,1924.516 Q-1182.237,1968.617 -1189.907,2003.131 L-1189.907,2009.523" test="RonaldFace"/>
        <path id="Layer3_0_1_STROKES" stroke="#FFF" stroke-width="25.566" stroke-linejoin="round" stroke-linecap="round" fill="none" d="M-1586.819,-499.78 Q-1661.6,-462.709 -1751.081,-421.165 -1824.583,-387.29 -1829.696,-384.733 -1829.696,-378.341 -1836.088,-378.341 -1800.935,-355.971 -1682.053,-344.467 -1593.85,-336.797 -1516.513,-338.714 -1499.895,-339.353 -1483.916,-339.992 L-1483.916,-333.601 -1516.513,-338.714 M-1919.177,816.869 Q-1921.095,712.048 -1839.923,644.299 -1776.647,590.61 -1695.475,580.383 L-1695.475,573.992 M-1727.432,484.511 Q-1682.053,520.943 -1661.6,582.301 -1641.786,641.742 -1637.951,644.299 M-2730.898,-352.775 Q-2640.778,-327.209 -2543.627,-304.839 -2445.198,-282.469 -2424.106,-282.469 L-2417.714,-282.469 Q-2471.403,-257.542 -2562.162,-193.627 -2656.117,-128.434 -2666.983,-122.681" test="RonaldFace"/>
      </g>
      <g id="Ronald-Thought-Bubblef6r1">
        <path id="Layer2_0_1_STROKES" stroke="#FFF" stroke-width="25.566" stroke-linejoin="round" stroke-linecap="round" fill="none" d="M3399.126,-1909.072 L3402.321,-1929.525 Q3290.47,-2068.86 3116.621,-2110.404 2947.886,-2150.032 2778.511,-2106.569 2677.525,-2081.643 2573.983,-2072.694 2506.233,-2068.86 2440.401,-2081.643 2237.79,-2113.6 2030.066,-2118.074 1942.503,-2128.3 1854.939,-2125.744 1708.574,-2116.157 1570.518,-2068.22 1454.831,-2026.037 1354.485,-1954.452 1292.487,-1910.35 1222.181,-1877.115 1054.723,-1796.582 891.101,-1707.101 754.323,-1631.681 686.573,-1490.429 636.08,-1385.608 604.762,-1273.757 577.278,-1175.967 607.318,-1082.651 617.545,-1051.333 645.028,-1032.797 678.264,-1010.427 710.222,-982.944 726.2,-968.243 730.035,-947.79 751.766,-835.3 730.035,-722.17 713.417,-633.329 720.448,-541.291 728.757,-424.327 795.229,-326.537 816.96,-295.218 844.443,-267.735 921.78,-189.119 934.563,-84.299 947.346,21.161 943.511,128.538 939.676,230.163 1007.426,303.665 1066.867,367.58 1147.4,409.764 1236.242,457.061 1320.61,510.75 1337.228,520.976 1345.537,542.068 1380.051,624.519 1405.617,708.886 1419.678,753.627 1452.914,789.419 1542.395,883.374 1672.782,905.105 1831.291,933.867 1991.078,923.002 2109.321,923.002 2225.007,952.402 2265.274,962.629 2305.54,976.69 2472.358,1034.853 2651.32,1029.74 2820.056,1024.626 2961.947,933.228 3094.251,848.86 3252.121,845.664 3417.022,832.881 3577.449,787.502 3700.804,752.988 3795.399,670.537 3836.304,635.384 3848.448,582.974 3857.396,542.068 3873.375,501.802 3878.488,489.019 3889.354,480.071 4031.245,363.745 4207.011,310.057 4301.605,280.017 4368.716,209.71 4497.825,76.767 4493.35,-111.143 4491.433,-183.367 4450.527,-247.921 4431.353,-277.322 4419.848,-310.558 4414.096,-328.454 4410.261,-346.35 4492.711,-515.725 4542.565,-699.8 4548.957,-723.449 4546.4,-747.097 4535.534,-842.331 4460.754,-904.328 4369.995,-978.47 4323.337,-1090.321 4304.162,-1136.979 4300.966,-1190.028 4299.688,-1214.955 4297.771,-1239.882 4290.101,-1337.672 4248.556,-1426.514 4201.898,-1528.139 4119.448,-1600.363 3931.538,-1766.542 3717.422,-1898.206 3633.055,-1951.256 3538.46,-1943.586 3514.173,-1944.225 3490.524,-1933 3441.31,-1912.268 3386.343,-1902.681 M522.312,11.574 Q455.201,-61.289 353.576,-38.919 292.857,-26.136 241.085,1.986 85.772,87.633 53.175,258.925 30.166,379.724 104.947,473.04 125.399,499.245 156.718,510.111 262.177,549.738 376.585,549.099 531.899,561.243 669.955,495.41 692.325,484.545 710.861,467.927 799.063,386.755 778.611,265.316 751.766,107.446 602.844,40.335 557.465,19.883 506.333,17.965 M-414.682,196.927 Q-521.42,131.734 -618.571,214.823 -738.731,319.005 -686.321,465.37 -681.208,478.792 -668.425,488.38 -543.152,581.056 -405.734,502.441 -350.767,470.483 -316.892,412.96 -308.583,398.259 -306.666,381.642 -296.44,299.83 -370.581,262.76 -431.3,232.72 -500.968,232.08" test="Ronald Thought Bubble"/>
        <path id="Layer2_0_2_STROKES" stroke="#F90" stroke-width="25.566" stroke-linejoin="round" stroke-linecap="round" fill="none" d="M1633.154,-1021.932 L1627.402,-1021.932 Q1557.735,-1009.149 1477.841,-890.267 1381.329,-746.458 1381.329,-566.218 1381.329,-435.192 1430.544,-349.546 1459.945,-299.692 1589.053,-155.884 1646.576,-91.969 1788.468,-58.733 1907.35,-31.249 2054.354,-31.249 2117.63,-31.249 2214.781,-54.259 2292.757,-72.794 2340.054,-91.969 2411.639,-120.73 2487.059,-186.563 2561.839,-253.034 2624.476,-373.834 2631.507,-387.256 2637.898,-400.039 2638.537,-402.595 2639.176,-403.874 2685.834,-508.694 2685.834,-617.35 2685.834,-688.296 2671.773,-720.892 2667.938,-729.84 2653.877,-743.902 M2637.898,-400.039 Q2649.403,-106.03 2874.384,20.522 3025.862,106.168 3246.369,106.168 3489.246,106.168 3640.724,-88.773 3774.946,-261.343 3774.946,-486.324 3774.946,-674.873 3617.076,-881.319 3561.47,-954.182 3495.637,-1016.179 3442.588,-1066.033 3413.826,-1082.651 M1627.402,-1021.932 L1613.98,-1021.932" test="Ronald Thought Bubble"/>
      </g>
      <g id="Ronald-Han">
        <path fill="#000" stroke="none" d="M-3305.474,172.604 Q-3416.047,302.351 -3463.983,356.679 -3536.846,437.851 -3789.95,625.761 -4114.638,867 -4141.482,889.73 -4255.251,983.685 -4276.343,1015.643 L-4272.508,1059.105 -3163.583,954.923 Q-3074.741,898.039 -3035.114,866.721 -2955.22,804.084 -2852.317,708.211 -2724.487,588.051 -2645.871,513.91 -2534.02,409.728 -2493.114,362.431 -2460.518,324.721 -2437.508,275.507 -2417.056,233.323 -2420.251,228.21 -2421.53,225.653 -2467.548,210.314 -2486.084,204.561 -2575.565,187.304 -2617.11,178.995 -2674.633,168.769 -2857.43,134.255 -2895.779,123.389 -2941.798,109.967 -3005.074,63.309 -3026.856,47.995 -3059.401,24.321 -3059.721,23.861 -3060.68,23.043 -3078.653,9.838 -3100.307,-6.358 -3134.821,-29.368 -3143.769,-17.863 -3151.439,-7.637 -3191.066,46.052 -3225.58,81.205 -3305.474,172.604 M-2396.603,-809.77 L-2435.591,-831.501 Q-2526.35,-834.058 -2581.317,-745.216 -2622.862,-676.827 -2637.562,-595.655 -2661.85,-468.464 -2762.197,-389.848 -2758.362,-497.225 -2810.133,-593.098 -2832.503,-633.364 -2867.656,-605.881 -2960.972,-534.296 -2975.034,-414.136 -2987.177,-309.315 -2975.034,-204.495 -2962.251,-83.056 -3045.979,3.868 L-3059.401,24.321 Q-3026.856,47.995 -3005.074,63.309 -2941.798,109.967 -2895.779,123.389 -2857.43,134.255 -2674.633,168.769 -2617.11,178.995 -2575.565,187.304 -2530.824,124.028 -2460.518,96.545 -2349.306,51.165 -2248.959,-14.028 -2179.292,-58.769 -2128.799,-119.488 -2046.988,-217.278 -1963.259,-311.872 -1891.035,-391.127 -1928.106,-494.03 -1946.002,-542.605 -1991.382,-521.513 -2084.058,-485.082 -2149.891,-411.579 -2241.289,-309.315 -2357.615,-237.731 L-2367.841,-245.4 Q-2321.183,-318.903 -2258.546,-379.622 -2226.384,-410.493 -2201.023,-445.454 -2137.875,-530.73 -2116.016,-639.117 -2156.922,-683.857 -2211.888,-657.652 -2303.287,-609.077 -2355.697,-517.039 -2399.799,-437.145 -2488.64,-443.537 -2438.787,-517.678 -2392.768,-593.098 -2325.657,-703.032 -2396.603,-809.77Z" test="Ronald Han" stroke-width="12.783"/>
        <path id="Layer1_0_1_STROKES" stroke="#FF0" stroke-width="25.566" stroke-linejoin="round" stroke-linecap="round" fill="none" d="M-2435.591,-831.501 Q-2526.35,-834.058 -2581.317,-745.216 -2622.862,-676.827 -2637.562,-595.655 -2661.85,-468.464 -2762.197,-389.848 -2758.362,-497.225 -2810.133,-593.098 -2832.503,-633.364 -2867.656,-605.881 -2960.972,-534.296 -2975.034,-414.136 -2987.177,-309.315 -2975.034,-204.495 -2962.251,-83.056 -3045.979,3.868 M-2575.565,187.304 Q-2530.824,124.028 -2460.518,96.545 -2349.306,51.165 -2248.959,-14.028 -2179.292,-58.769 -2128.799,-119.488 -2046.988,-217.278 -1963.259,-311.872 -1891.035,-391.127 -1928.106,-494.03 -1946.002,-542.605 -1991.382,-521.513 -2084.058,-485.082 -2149.891,-411.579 -2241.289,-309.315 -2357.615,-237.731 L-2367.841,-245.4 Q-2321.183,-318.903 -2258.546,-379.622 -2226.384,-410.493 -2201.023,-445.135 -2137.875,-530.73 -2116.016,-639.117 -2156.922,-683.857 -2211.888,-657.652 -2303.287,-609.077 -2355.697,-517.039 -2399.799,-437.145 -2488.64,-443.537 -2438.787,-517.678 -2392.768,-593.098 -2325.657,-703.032 -2396.603,-809.77 -2411.303,-831.501 -2435.591,-831.501" test="Ronald Han"/>
        <path id="Layer1_0_2_STROKES" stroke="#F00" stroke-width="25.566" stroke-linejoin="round" stroke-linecap="round" fill="none" d="M-3059.082,24.321 Q-3026.856,47.995 -3005.074,63.309 -2941.798,109.967 -2895.779,123.389 -2857.43,134.255 -2674.633,168.769 -2617.11,178.995 -2575.565,187.304 M-4276.343,1015.643 Q-4255.251,983.685 -4141.482,889.73 -4114.638,867 -3789.95,625.761 -3536.846,437.851 -3463.983,356.679 -3416.047,302.351 -3305.474,172.604 -3225.58,81.205 -3191.066,46.052 -3151.439,-7.637 -3143.769,-17.863 -3134.821,-29.368 -3100.307,-6.358 -3078.653,9.838 -3060.36,23.362 -3059.721,23.861 -3059.082,24.321 M-3163.583,954.923 Q-3074.741,898.039 -3035.114,866.721 -2955.22,804.084 -2852.317,708.211 -2724.487,588.051 -2645.871,513.91 -2534.02,409.728 -2493.114,362.431 -2460.518,324.721 -2437.508,275.507 -2417.056,233.323 -2420.251,228.21 -2421.53,225.653 -2467.548,210.314 -2486.084,204.561 -2575.565,187.304 M-4276.343,1015.643 Q-4285.227,1029.704 -4289.446,1061.022 L-4272.188,1059.424 M-4293.6,1115.35 Q-4292.795,1083.597 -4289.446,1061.022 M-3163.583,954.923 Q-3194.901,975.376 -3796.98,1551.25" test="Ronald Han"/>
      </g>
    </g>
  </g>
</svg>