<?xml version="1.0" encoding="utf-8"?>
<svg id="EdithAnim08" image-rendering="inherit" baseProfile="basic" version="1.1" x="0px" y="0px" width="800" height="600" xmlns="http://www.w3.org/2000/svg" xmlns:xlink="http://www.w3.org/1999/xlink">
  <g id="Ronaldf164r1" overflow="visible">
    <g id="Ronaldf27r1">
      <g id="RonaldFacef1r1">
        <path id="Layer4_0_1_STROKES" stroke="#F00" stroke-width="30.516" stroke-linejoin="round" stroke-linecap="round" fill="none" d="M-1592.787,132.843 Q-1576.003,179.379 -1514.209,201.504 -1452.414,224.391 -1331.875,224.391 -1163.275,224.391 -1132.759,207.607 -1122.841,202.266 -1102.243,186.246 -1076.304,170.225 -1026.715,155.73 -982.467,142.76 -965.684,96.986 -950.425,53.501 -950.425,-46.439 -950.425,-61.697 -984.756,-99.842 -1019.087,-138.75 -1019.087,-149.43 -1019.087,-183.761 -984.756,-235.638 -950.425,-287.515 -950.425,-343.97 -950.425,-369.909 -992.385,-448.487 -1034.345,-526.303 -1034.345,-530.88 -1034.345,-574.366 -977.127,-627.006 -919.909,-679.646 -919.909,-710.162 -919.909,-744.492 -988.57,-838.329 -1057.231,-931.403 -1057.231,-935.217 -1019.087,-1143.489 -1019.087,-1179.345 -1019.087,-1248.006 -1046.551,-1283.1 -1056.469,-1295.306 -1106.82,-1330.4 -1194.553,-1392.195 -1194.553,-1568.424 -1194.553,-1611.91 -1231.173,-1655.395 -1271.606,-1703.458 -1339.504,-1728.633 -1371.546,-1739.314 -1380.701,-1741.603 -1392.907,-1746.18 -1396.722,-1756.098 -1402.062,-1805.686 -1415.794,-1896.471 -1432.578,-2011.669 -1527.941,-2071.938 -1611.86,-2125.341 -1736.212,-2125.341 -1740.79,-2125.341 -1819.369,-2106.269 -1897.947,-2087.196 -1907.865,-2087.196 -1953.639,-2087.196 -2034.506,-2125.341 -2116.137,-2163.486 -2221.417,-2163.486 -2244.304,-2163.486 -2298.47,-2129.156 -2352.636,-2094.825 -2362.553,-2094.825 -2428.163,-2094.825 -2541.835,-2163.486 -2656.27,-2232.147 -2717.302,-2232.147 -2785.963,-2232.147 -2830.211,-2213.075 -2873.696,-2194.002 -2904.212,-2194.002 -2905.738,-2194.002 -3030.091,-2228.333 -3153.681,-2262.663 -3224.63,-2262.663 -3240.651,-2262.663 -3373.396,-2139.837 -3516.058,-2008.618 -3598.451,-1980.39 -3873.858,-1887.317 -3921.921,-1754.572 -3939.468,-1707.272 -3934.89,-1631.745 -3932.602,-1589.786 -3926.498,-1499.763 -3926.498,-1480.691 -3966.932,-1454.752 -4023.387,-1422.711 -4056.191,-1402.112 -4185.884,-1319.719 -4185.884,-1209.861 -4185.884,-1199.944 -4178.255,-1165.613 -4170.626,-1131.283 -4170.626,-1122.128 -4170.626,-1097.715 -4213.349,-1054.23 -4239.287,-1027.528 -4307.948,-965.733 -4445.27,-836.04 -4445.27,-736.863 -4445.27,-663.625 -4357.537,-620.14 -4307.948,-596.49 -4297.268,-588.098 -4269.803,-567.5 -4269.803,-538.509 -4269.803,-530.88 -4315.577,-445.436 -4361.351,-360.754 -4361.351,-313.454 -4361.351,-261.577 -4315.577,-216.566 -4269.803,-171.555 -4269.803,-145.616 -4269.803,-105.945 -4292.69,-52.542 -4315.577,.098 -4315.577,22.222 -4315.577,64.944 -4292.69,79.44 -4278.958,87.831 -4243.102,96.986 -4170.626,126.739 -4170.626,300.681 M-4162.997,262.536 Q-4078.315,296.103 -4066.872,299.918 -4039.408,308.31 -4002.788,308.31 -3857.074,308.31 -3828.847,209.895 -3818.929,175.565 -3815.115,100.801 -3809.775,4.675 -3804.434,-34.995 -3805.197,-81.532 -3803.671,-113.574 -3801.383,-173.08 -3781.547,-187.575 -3735.01,-221.906 -3679.319,-318.031 -3632.019,-398.136 -3621.338,-439.332 -3598.451,-527.829 -3575.564,-570.551 -3532.079,-652.944 -3445.871,-706.347 -3392.468,-739.915 -3371.87,-808.576 -3355.849,-858.927 -3361.952,-904.701 -3328.385,-985.569 -3313.127,-1009.982 -3282.611,-1055.756 -3224.63,-1087.797 -3179.619,-1112.973 -3140.711,-1174.005 -3107.907,-1225.119 -3091.123,-1225.119 -3089.597,-1225.119 -3027.039,-1186.974 -2959.904,-1148.829 -2934.728,-1148.829 -2871.408,-1148.829 -2813.427,-1167.902 -2755.447,-1186.974 -2679.157,-1186.974 -2619.651,-1186.974 -2543.361,-1160.273 -2467.834,-1133.571 -2442.658,-1133.571 -2381.626,-1133.571 -2267.954,-1175.531 -2154.282,-1217.49 -2080.28,-1217.49 -1986.444,-1217.49 -1956.691,-1195.366 -1937.618,-1180.871 -1933.804,-1137.386 -1929.989,-1084.746 -1913.968,-1056.519 -1911.679,-1052.704 -1909.391,-1049.652 -1907.865,-1047.364 -1906.339,-1045.838 -1874.297,-1001.59 -1797.244,-965.733 -1833.101,-935.98 -1841.493,-923.011 -1850.647,-910.042 -1850.647,-885.629 -1850.647,-832.989 -1785.038,-797.133 -1744.604,-774.246 -1629.406,-729.234 -1674.418,-684.223 -1749.182,-629.295 -1781.986,-605.645 -1781.986,-572.84 -1781.986,-462.219 -1638.561,-386.692 -1566.849,-349.31 -1492.084,-332.526 L-1511.157,-219.617 Q-1530.229,-104.419 -1530.229,-88.398 -1530.229,-9.82 -1564.56,32.14 -1598.89,74.099 -1598.89,94.698 -1598.89,115.296 -1592.787,132.843 M-3117.824,399.858 Q-3194.877,412.064 -3210.135,439.528 -3217.001,450.972 -3217.001,521.922 -3217.001,592.108 -3156.732,750.029 -3077.391,961.352 -3072.05,980.424 -3031.617,1124.613 -2901.161,1181.83 -2803.51,1224.552 -2629.568,1224.552 -2451.813,1224.552 -2279.397,1191.748 -2051.29,1147.5 -1981.103,1064.343 -1951.35,1029.25 -1937.618,897.268 -1927.7,748.503 -1919.308,697.389 -1907.865,634.831 -1873.534,508.952 -1850.647,425.796 -1850.647,350.269 -1850.647,307.547 -1911.679,293.052 -1943.721,285.423 -2007.805,285.423 -2068.074,285.423 -2137.498,306.784 -2145.127,309.072 -2267.954,354.084 -2455.627,422.745 -2652.455,422.745 -2756.973,422.745 -2898.872,403.672 -3040.009,384.6 -3094.937,384.6 M-1160.223,1961.514 Q-1280.761,1903.533 -1511.157,1903.533 -1723.243,1903.533 -1888.792,2025.597 -2087.909,2172.837 -2087.909,2429.934 -2087.909,2676.351 -1812.502,2757.981 -1682.809,2796.126 -1438.682,2796.126 -1200.657,2796.126 -1064.86,2719.836 -904.652,2629.814 -904.652,2441.378 -904.652,2322.366 -955.003,2225.477 -980.179,2176.652 -1009.932,2151.476 -1035.87,2021.783 -1160.223,1961.514Z" test="RonaldFace"/>
        <path id="Layer4_0_2_STROKES" stroke="#FFF" stroke-width="30.516" stroke-linejoin="round" stroke-linecap="round" fill="none" d="M-1592.787,132.843 L-1590.499,125.976 M-1959.742,-1040.498 Q-2001.702,-1028.291 -2095.538,-998.538 -2259.562,-945.898 -2271.005,-942.846 -2359.502,-914.619 -2402.224,-836.04 -2442.658,-760.513 -2431.214,-660.573 M-2605.918,-269.969 Q-2657.033,-244.793 -2695.178,-194.442 -2728.745,-150.956 -2782.148,-141.801 -2839.366,-132.647 -2862.253,-84.584 -2881.325,-44.15 -2881.325,37.48 -2881.325,140.472 -2778.334,140.472 -2731.797,140.472 -2706.621,122.162 -2676.868,100.801 -2614.31,94.698 -2554.041,88.594 -2427.4,102.327 -2338.141,102.327 -2293.892,87.069 -2232.86,67.233 -2232.86,14.593 -2232.86,-54.831 -2375.523,-161.637 -2505.979,-260.051 -2605.918,-269.969Z M-3811.3,255.669 Q-3558.018,437.24 -3464.944,712.647 -3445.109,770.627 -3451.212,834.711 -3470.284,1041.456 -3368.818,1202.428 L-3200.98,1316.863 Q-3048.4,1464.866 -2827.159,1479.361 -2259.562,1516.743 -1812.502,1212.346 -1745.367,1166.572 -1720.954,1085.705 -1652.293,858.36 -1679.758,614.995 -1698.067,450.209 -1659.923,301.443 -1653.056,275.505 -1636.273,255.669 L-1592.787,132.843 M-2789.777,-660.573 Q-2821.819,-742.967 -2861.49,-793.318 -2901.161,-843.669 -2957.615,-874.185 -3024.751,-911.568 -3037.72,-915.382 -3052.978,-919.959 -3117.824,-919.959 -3245.992,-919.959 -3323.044,-823.834 -3383.314,-749.07 -3407.726,-622.428 M-2896.583,1483.938 Q-2840.892,1555.651 -2832.5,1660.168 -2828.685,1713.571 -2835.551,1758.582 M-2126.054,1407.648 Q-2133.683,1453.422 -2133.683,1510.64 -2133.683,1589.981 -2111.559,1615.157 -2063.497,1670.849 -2049.764,1697.55" test="RonaldFace"/>
        <path id="Layer4_0_3_STROKES" stroke="#F0C" stroke-width="30.516" stroke-linejoin="round" stroke-linecap="round" fill="none" d="M-1959.742,-1040.498 Q-1930.752,-1049.652 -1927.7,-1049.652 L-1909.391,-1049.652 M-1906.339,-1045.838 Q-1912.442,-1044.312 -1920.834,-1042.023 -1949.824,-1034.394 -1959.742,-1040.498" test="RonaldFace"/>
        <path id="Layer4_0_4_STROKES" stroke="#F0F" stroke-width="30.516" stroke-linejoin="round" stroke-linecap="round" fill="none" d="M-2049.764,1697.55 L-2049.764,1682.292" test="RonaldFace"/>
        <path id="Layer4_0_5_STROKES" stroke="#FF0" stroke-width="30.516" stroke-linejoin="round" stroke-linecap="round" fill="none" d="M-232.537,2259.808 Q-342.394,2200.302 -469.799,2139.27 -1019.087,1874.543 -1690.439,1667.034 L-1744.604,1667.034 Q-1743.841,1677.715 -1743.841,1689.921 -1743.841,1767.737 -1890.318,1808.934 -2104.693,1854.708 -2240.489,1895.904 -2295.418,1911.925 -2490.721,1937.864 -2694.415,1964.565 -2782.148,1964.565 -2952.275,1964.565 -3033.905,1926.42 -3117.824,1887.512 -3117.824,1804.356 -3117.824,1726.541 -3008.73,1679.241 -2888.191,1642.622 -2866.067,1628.889 M-3339.065,1789.098 Q-3660.246,1887.512 -3796.042,1939.39 -4043.222,2034.752 -4178.255,2140.032 -4266.752,2208.693 -4424.672,2372.717 -4502.488,2453.584 -4574.963,2529.111 M-2118.425,1560.228 L-1865.905,1560.228 Q-1753.759,1545.733 -1744.604,1667.034 L-1759.099,1667.034 M-1850.647,2544.369 Q-1849.885,2540.555 -1849.885,2536.74 -1825.472,2326.943 -1765.203,2192.673 -1687.387,2017.968 -1564.56,2017.968 -1509.631,2017.968 -1495.136,2154.527 -1489.796,2202.59 -1490.559,2244.55 -1477.589,2182.755 -1447.073,2130.878 -1389.856,2033.226 -1301.359,2033.226 -1209.049,2033.226 -1186.924,2148.424 -1179.296,2189.621 -1179.296,2380.346 -1179.296,2472.657 -1190.739,2579.463 -1196.842,2639.732 -1199.894,2667.196 -1202.183,2688.558 -1202.183,2689.32 M-1490.559,2244.55 Q-1490.559,2297.19 -1499.713,2338.386 L-1499.713,2346.015" test="RonaldFace"/>
        <path id="Layer3_0_1_STROKES" stroke="#FFF" stroke-width="30.516" stroke-linejoin="round" stroke-linecap="round" fill="none" d="M-1973.474,-649.13 Q-2062.734,-604.882 -2169.54,-555.293 -2257.273,-514.86 -2263.376,-511.808 -2263.376,-504.179 -2271.005,-504.179 -2229.046,-477.477 -2087.146,-463.745 -1981.866,-454.59 -1889.555,-456.879 -1869.72,-457.642 -1850.647,-458.405 L-1850.647,-450.776 -1889.555,-456.879 M-2370.182,922.444 Q-2372.471,797.328 -2275.583,716.461 -2200.056,652.377 -2103.167,640.171 L-2103.167,632.542 M-2141.312,525.736 Q-2087.146,569.221 -2062.734,642.46 -2039.084,713.409 -2034.506,716.461 M-3339.065,-473.663 Q-3231.496,-443.147 -3115.536,-416.445 -2998.049,-389.744 -2972.873,-389.744 L-2965.244,-389.744 Q-3029.328,-359.991 -3137.66,-283.701 -3249.806,-205.885 -3262.775,-199.019" test="RonaldFace"/>
      </g>
      <g id="Ronald-Thought-Bubblef6r1">
        <path id="Layer2_0_1_STROKES" stroke="#FFF" stroke-width="30.516" stroke-linejoin="round" stroke-linecap="round" fill="none" d="M3977.862,-2331.238 L3981.676,-2355.651 Q3848.169,-2521.963 3640.66,-2571.552 3439.255,-2618.852 3237.086,-2566.974 3116.548,-2537.221 2992.958,-2526.541 2912.091,-2521.963 2833.512,-2537.221 2591.673,-2575.366 2343.73,-2580.707 2239.213,-2592.913 2134.696,-2589.861 1959.991,-2578.418 1795.205,-2521.2 1657.12,-2470.849 1537.345,-2385.404 1463.344,-2332.764 1379.425,-2293.093 1179.545,-2196.968 984.242,-2090.162 820.982,-2000.14 740.114,-1831.539 679.845,-1706.423 642.463,-1572.916 609.658,-1456.192 645.515,-1344.809 657.721,-1307.426 690.526,-1285.302 730.197,-1258.601 768.342,-1225.796 787.414,-1208.249 791.992,-1183.837 817.93,-1049.566 791.992,-914.533 772.156,-808.49 780.548,-698.632 790.466,-559.022 869.807,-442.298 895.746,-404.916 928.551,-372.111 1020.862,-278.274 1036.12,-153.159 1051.378,-27.28 1046.8,100.887 1042.223,222.188 1123.09,309.922 1194.04,386.211 1290.165,436.563 1396.208,493.017 1496.911,557.101 1516.747,569.307 1526.664,594.483 1567.861,692.897 1598.377,793.6 1615.161,847.003 1654.831,889.726 1761.637,1001.872 1917.269,1027.81 2106.468,1062.141 2297.193,1049.172 2438.33,1049.172 2576.415,1084.265 2624.477,1096.471 2672.54,1113.255 2871.657,1182.679 3085.269,1176.576 3286.675,1170.473 3456.038,1061.378 3613.959,960.675 3802.395,956.861 3999.223,941.603 4190.711,887.437 4337.951,846.24 4450.86,747.826 4499.686,705.867 4514.181,643.309 4524.861,594.483 4543.934,546.421 4550.037,531.162 4563.006,520.482 4732.37,381.634 4942.168,317.551 5055.077,281.694 5135.181,197.775 5289.287,39.092 5283.947,-185.201 5281.658,-271.408 5232.832,-348.461 5209.945,-383.555 5196.213,-423.225 5189.347,-444.587 5184.77,-465.948 5283.184,-668.116 5342.69,-887.831 5350.319,-916.059 5347.267,-944.286 5334.298,-1057.958 5245.039,-1131.959 5136.707,-1220.456 5081.015,-1353.963 5058.128,-1409.655 5054.314,-1472.976 5052.788,-1502.729 5050.499,-1532.482 5041.345,-1649.206 4991.756,-1755.249 4936.064,-1876.55 4837.65,-1962.758 4613.358,-2161.112 4357.786,-2318.269 4257.083,-2381.59 4144.174,-2372.435 4115.184,-2373.198 4086.957,-2360.991 4028.213,-2335.053 3962.604,-2323.609 M544.049,-38.724 Q463.945,-125.694 342.643,-98.993 270.168,-83.735 208.373,-50.167 22.988,52.061 -15.92,256.519 -43.384,400.707 45.875,512.09 70.288,543.369 107.67,556.338 233.549,603.638 370.108,602.875 555.493,617.37 720.279,538.792 746.98,525.822 769.105,505.987 874.385,409.099 849.972,264.148 817.93,75.711 640.174,-4.393 586.009,-28.806 524.977,-31.095 M-574.362,182.517 Q-701.767,104.701 -817.727,203.878 -961.153,328.231 -898.595,502.935 -892.492,518.956 -877.234,530.4 -727.705,641.02 -563.682,547.183 -498.072,509.038 -457.639,440.377 -447.721,422.831 -445.432,402.995 -433.226,305.344 -521.722,261.096 -594.198,225.24 -677.354,224.477" test="Ronald Thought Bubble"/>
        <path id="Layer2_0_2_STROKES" stroke="#F90" stroke-width="30.516" stroke-linejoin="round" stroke-linecap="round" fill="none" d="M1869.969,-1272.333 L1863.103,-1272.333 Q1779.947,-1257.075 1684.585,-1115.176 1569.387,-943.523 1569.387,-728.385 1569.387,-571.991 1628.13,-469.762 1663.223,-410.256 1817.329,-238.604 1885.99,-162.314 2055.354,-122.643 2197.253,-89.838 2372.72,-89.838 2448.247,-89.838 2564.208,-117.303 2657.282,-139.427 2713.737,-162.314 2799.181,-196.644 2889.204,-275.223 2978.463,-354.564 3053.227,-498.752 3061.619,-514.773 3069.248,-530.031 3070.011,-533.083 3070.774,-534.609 3126.466,-659.724 3126.466,-789.417 3126.466,-874.099 3109.682,-913.007 3105.104,-923.688 3088.321,-940.472 M3069.248,-530.031 Q3082.98,-179.097 3351.521,-28.043 3532.328,74.185 3795.529,74.185 4085.431,74.185 4266.238,-158.499 4426.447,-364.482 4426.447,-633.023 4426.447,-858.078 4238.011,-1104.495 4171.639,-1191.466 4093.06,-1265.467 4029.739,-1324.973 3995.409,-1344.809 M1863.103,-1272.333 L1847.082,-1272.333" test="Ronald Thought Bubble"/>
      </g>
      <g id="Ronald-Han">
        <path fill="#000" stroke="none" d="M-4024.907,153.473 Q-4156.888,308.341 -4214.106,373.188 -4301.076,470.076 -4603.185,694.369 -4990.738,983.508 -5022.78,1009.446 -5158.576,1121.593 -5183.752,1159.738 L-5179.174,1211.615 -3855.543,1087.262 Q-3749.5,1019.364 -3702.2,981.982 -3606.837,907.218 -3484.011,792.783 -3331.431,649.358 -3237.594,560.861 -3104.086,436.508 -3055.261,380.054 -3016.353,335.043 -2988.888,276.299 -2964.476,225.948 -2968.29,219.845 -2969.816,216.793 -3024.745,198.484 -3046.869,191.618 -3153.675,171.019 -3203.263,161.102 -3271.924,148.895 -3490.114,107.698 -3535.888,94.729 -3590.817,78.708 -3666.344,23.017 -3692.343,4.738 -3731.19,-23.52 -3731.572,-24.07 -3732.716,-25.046 -3754.169,-40.808 -3780.016,-60.139 -3821.212,-87.604 -3831.893,-73.872 -3841.048,-61.665 -3888.348,2.418 -3929.544,44.378 -4024.907,153.473 M-2940.063,-1019.105 L-2986.6,-1045.043 Q-3094.932,-1048.095 -3160.541,-942.052 -3210.129,-860.422 -3227.676,-763.533 -3256.666,-611.716 -3376.442,-517.879 -3371.864,-646.047 -3433.659,-760.482 -3460.361,-808.544 -3502.32,-775.74 -3613.704,-690.295 -3630.487,-546.87 -3644.982,-421.754 -3630.487,-296.638 -3615.229,-151.687 -3715.169,-47.933 L-3731.19,-23.52 Q-3692.343,4.738 -3666.344,23.017 -3590.817,78.708 -3535.888,94.729 -3490.114,107.698 -3271.924,148.895 -3203.263,161.102 -3153.675,171.019 -3100.272,95.492 -3016.353,62.687 -2883.608,8.522 -2763.833,-69.294 -2680.677,-122.697 -2620.408,-195.173 -2522.757,-311.896 -2422.817,-424.806 -2336.609,-519.405 -2380.857,-642.232 -2402.218,-700.213 -2456.384,-675.037 -2567.005,-631.552 -2645.583,-543.818 -2754.678,-421.754 -2893.526,-336.309 L-2905.732,-345.464 Q-2850.041,-433.198 -2775.276,-505.673 -2736.887,-542.521 -2706.615,-584.252 -2631.241,-686.038 -2605.15,-815.41 -2653.975,-868.813 -2719.585,-837.535 -2828.679,-779.554 -2891.237,-669.697 -2943.877,-574.334 -3049.92,-581.963 -2990.414,-670.459 -2935.485,-760.482 -2855.381,-891.7 -2940.063,-1019.105Z" test="Ronald Han" stroke-width="15.258"/>
        <path id="Layer1_0_1_STROKES" stroke="#FF0" stroke-width="30.516" stroke-linejoin="round" stroke-linecap="round" fill="none" d="M-2986.6,-1045.043 Q-3094.932,-1048.095 -3160.541,-942.052 -3210.129,-860.422 -3227.676,-763.533 -3256.666,-611.716 -3376.442,-517.879 -3371.864,-646.047 -3433.659,-760.482 -3460.361,-808.544 -3502.32,-775.74 -3613.704,-690.295 -3630.487,-546.87 -3644.982,-421.754 -3630.487,-296.638 -3615.229,-151.687 -3715.169,-47.933 M-3153.675,171.019 Q-3100.272,95.492 -3016.353,62.687 -2883.608,8.522 -2763.833,-69.294 -2680.677,-122.697 -2620.408,-195.173 -2522.757,-311.896 -2422.817,-424.806 -2336.609,-519.405 -2380.857,-642.232 -2402.218,-700.213 -2456.384,-675.037 -2567.005,-631.552 -2645.583,-543.818 -2754.678,-421.754 -2893.526,-336.309 L-2905.732,-345.464 Q-2850.041,-433.198 -2775.276,-505.673 -2736.887,-542.521 -2706.615,-583.87 -2631.241,-686.038 -2605.15,-815.41 -2653.975,-868.813 -2719.585,-837.535 -2828.679,-779.554 -2891.237,-669.697 -2943.877,-574.334 -3049.92,-581.963 -2990.414,-670.459 -2935.485,-760.482 -2855.381,-891.7 -2940.063,-1019.105 -2957.61,-1045.043 -2986.6,-1045.043" test="Ronald Han"/>
        <path id="Layer1_0_2_STROKES" stroke="#F00" stroke-width="30.516" stroke-linejoin="round" stroke-linecap="round" fill="none" d="M-3730.809,-23.52 Q-3692.343,4.738 -3666.344,23.017 -3590.817,78.708 -3535.888,94.729 -3490.114,107.698 -3271.924,148.895 -3203.263,161.102 -3153.675,171.019 M-5183.752,1159.738 Q-5158.576,1121.593 -5022.78,1009.446 -4990.738,983.508 -4603.185,694.369 -4301.076,470.076 -4214.106,373.188 -4156.888,308.341 -4024.907,153.473 -3929.544,44.378 -3888.348,2.418 -3841.048,-61.665 -3831.893,-73.872 -3821.212,-87.604 -3780.016,-60.139 -3754.169,-40.808 -3732.334,-24.665 -3731.572,-24.07 -3730.809,-23.52 M-3855.543,1087.262 Q-3749.5,1019.364 -3702.2,981.982 -3606.837,907.218 -3484.011,792.783 -3331.431,649.358 -3237.594,560.861 -3104.086,436.508 -3055.261,380.054 -3016.353,335.043 -2988.888,276.299 -2964.476,225.948 -2968.29,219.845 -2969.816,216.793 -3024.745,198.484 -3046.869,191.618 -3153.675,171.019 M-5183.752,1159.738 Q-5194.356,1176.521 -5199.391,1213.904 L-5178.793,1211.996 M-5204.35,1278.75 Q-5203.389,1240.849 -5199.391,1213.904 M-3855.543,1087.262 Q-3892.925,1111.675 -4611.577,1799.048" test="Ronald Han"/>
      </g>
    </g>
  </g>
</svg>