<?xml version="1.0" encoding="utf-8"?>
<svg id="EdithAnim08" image-rendering="inherit" baseProfile="basic" version="1.1" x="0px" y="0px" width="800" height="600" xmlns="http://www.w3.org/2000/svg" xmlns:xlink="http://www.w3.org/1999/xlink">
  <g id="Ronaldf166r1" overflow="visible">
    <g id="Ronaldf27r1">
      <g id="RonaldFacef1r1">
        <path id="Layer4_0_1_STROKES" stroke="#F00" stroke-width="35.936" stroke-linejoin="round" stroke-linecap="round" fill="none" d="M-1948.601,108.18 Q-1928.836,162.982 -1856.066,189.036 -1783.295,215.988 -1641.348,215.988 -1442.802,215.988 -1406.866,196.223 -1395.186,189.934 -1370.93,171.068 -1340.384,152.202 -1281.988,135.132 -1229.881,119.859 -1210.116,65.955 -1192.148,14.746 -1192.148,-102.944 -1192.148,-120.912 -1232.576,-165.832 -1273.004,-211.65 -1273.004,-224.228 -1273.004,-264.656 -1232.576,-325.747 -1192.148,-386.838 -1192.148,-453.32 -1192.148,-483.866 -1241.56,-576.401 -1290.972,-668.038 -1290.972,-673.428 -1290.972,-724.637 -1223.592,-786.626 -1156.212,-848.616 -1156.212,-884.552 -1156.212,-924.98 -1237.068,-1035.483 -1317.924,-1145.088 -1317.924,-1149.58 -1273.004,-1394.843 -1273.004,-1437.068 -1273.004,-1517.924 -1305.346,-1559.25 -1317.026,-1573.625 -1376.32,-1614.951 -1479.636,-1687.722 -1479.636,-1895.252 -1479.636,-1946.461 -1522.759,-1997.67 -1570.374,-2054.269 -1650.332,-2083.916 -1688.065,-2096.494 -1698.846,-2099.189 -1713.22,-2104.579 -1717.712,-2116.258 -1724.001,-2174.654 -1740.172,-2281.564 -1759.937,-2417.222 -1872.237,-2488.196 -1971.061,-2551.084 -2117.5,-2551.084 -2122.89,-2551.084 -2215.426,-2528.624 -2307.961,-2506.164 -2319.64,-2506.164 -2373.544,-2506.164 -2468.774,-2551.084 -2564.903,-2596.004 -2688.882,-2596.004 -2715.834,-2596.004 -2779.621,-2555.576 -2843.407,-2515.148 -2855.086,-2515.148 -2932.349,-2515.148 -3066.21,-2596.004 -3200.97,-2676.86 -3272.842,-2676.86 -3353.698,-2676.86 -3405.806,-2654.4 -3457.014,-2631.94 -3492.95,-2631.94 -3494.747,-2631.94 -3641.186,-2672.368 -3786.727,-2712.796 -3870.278,-2712.796 -3889.145,-2712.796 -4045.466,-2568.154 -4213.467,-2413.629 -4310.494,-2380.388 -4634.817,-2270.783 -4691.416,-2114.462 -4712.079,-2058.761 -4706.689,-1969.819 -4703.994,-1920.407 -4696.806,-1814.396 -4696.806,-1791.936 -4744.422,-1761.39 -4810.903,-1723.658 -4849.534,-1699.401 -5002.262,-1602.374 -5002.262,-1473.004 -5002.262,-1461.325 -4993.278,-1420.897 -4984.294,-1380.469 -4984.294,-1369.688 -4984.294,-1340.939 -5034.605,-1289.73 -5065.15,-1258.286 -5146.006,-1185.516 -5307.718,-1032.788 -5307.718,-915.996 -5307.718,-829.75 -5204.402,-778.541 -5146.006,-750.69 -5133.429,-740.808 -5101.086,-716.551 -5101.086,-682.412 -5101.086,-673.428 -5154.99,-572.807 -5208.894,-473.085 -5208.894,-417.384 -5208.894,-356.293 -5154.99,-303.287 -5101.086,-250.282 -5101.086,-219.736 -5101.086,-173.019 -5128.038,-110.131 -5154.99,-48.142 -5154.99,-22.088 -5154.99,28.222 -5128.038,45.292 -5111.867,55.174 -5069.642,65.955 -4984.294,100.993 -4984.294,305.828 M-4975.31,260.908 Q-4875.588,300.438 -4862.112,304.93 -4829.77,314.812 -4786.646,314.812 -4615.052,314.812 -4581.811,198.918 -4570.132,158.49 -4565.64,70.447 -4559.351,-42.751 -4553.062,-89.468 -4553.961,-144.27 -4552.164,-182.003 -4549.469,-252.078 -4526.11,-269.148 -4471.308,-309.576 -4405.725,-422.774 -4350.024,-517.106 -4337.446,-565.62 -4310.494,-669.834 -4283.542,-720.145 -4232.334,-817.172 -4130.814,-880.06 -4067.926,-919.59 -4043.67,-1000.446 -4024.803,-1059.74 -4031.99,-1113.644 -3992.461,-1208.874 -3974.493,-1237.623 -3938.557,-1291.527 -3870.278,-1329.26 -3817.273,-1358.907 -3771.454,-1430.779 -3732.823,-1490.972 -3713.058,-1490.972 -3711.262,-1490.972 -3637.593,-1446.052 -3558.534,-1401.132 -3528.886,-1401.132 -3454.319,-1401.132 -3386.041,-1423.592 -3317.762,-1446.052 -3227.922,-1446.052 -3157.847,-1446.052 -3068.007,-1414.608 -2979.066,-1383.164 -2949.418,-1383.164 -2877.546,-1383.164 -2743.685,-1432.576 -2609.823,-1481.988 -2522.678,-1481.988 -2412.175,-1481.988 -2377.138,-1455.934 -2354.678,-1438.865 -2350.186,-1387.656 -2345.694,-1325.666 -2326.827,-1292.426 -2324.132,-1287.934 -2321.437,-1284.34 -2319.64,-1281.645 -2317.843,-1279.848 -2280.11,-1227.741 -2189.372,-1185.516 -2231.597,-1150.478 -2241.479,-1135.206 -2252.26,-1119.933 -2252.26,-1091.184 -2252.26,-1029.194 -2174.998,-986.97 -2127.382,-960.018 -1991.724,-907.012 -2044.73,-854.006 -2132.773,-789.322 -2171.404,-761.471 -2171.404,-722.84 -2171.404,-592.572 -2002.505,-503.63 -1918.055,-459.609 -1830.012,-439.844 L-1852.472,-306.881 Q-1874.932,-171.222 -1874.932,-152.356 -1874.932,-59.821 -1915.36,-10.409 -1955.788,39.003 -1955.788,63.26 -1955.788,87.517 -1948.601,108.18 M-3744.502,422.62 Q-3835.241,436.994 -3853.209,469.337 -3861.294,482.813 -3861.294,566.364 -3861.294,649.017 -3790.321,834.986 -3696.887,1083.842 -3690.598,1106.302 -3642.983,1276.1 -3489.357,1343.48 -3374.362,1393.79 -3169.526,1393.79 -2960.199,1393.79 -2757.161,1355.159 -2488.539,1303.052 -2405.886,1205.126 -2370.849,1163.8 -2354.678,1008.377 -2342.998,833.189 -2333.116,772.996 -2319.64,699.327 -2279.212,551.091 -2252.26,453.166 -2252.26,364.224 -2252.26,313.914 -2324.132,296.844 -2361.865,287.86 -2437.33,287.86 -2508.304,287.86 -2590.058,313.015 -2599.042,315.71 -2743.685,368.716 -2964.691,449.572 -3196.478,449.572 -3319.559,449.572 -3486.662,427.112 -3652.866,404.652 -3717.55,404.652 M-1439.208,2261.645 Q-1581.155,2193.366 -1852.472,2193.366 -2102.227,2193.366 -2297.18,2337.11 -2531.662,2510.502 -2531.662,2813.262 -2531.662,3103.446 -2207.34,3199.574 -2054.612,3244.494 -1767.124,3244.494 -1486.823,3244.494 -1326.908,3154.654 -1138.244,3048.643 -1138.244,2826.738 -1138.244,2686.588 -1197.538,2572.491 -1227.186,2514.994 -1262.223,2485.346 -1292.769,2332.618 -1439.208,2261.645Z" test="RonaldFace"/>
        <path id="Layer4_0_2_STROKES" stroke="#FFF" stroke-width="35.936" stroke-linejoin="round" stroke-linecap="round" fill="none" d="M-1948.601,108.18 L-1945.906,100.094 M-2380.731,-1273.559 Q-2430.143,-1259.185 -2540.646,-1224.147 -2733.802,-1162.158 -2747.278,-1158.564 -2851.493,-1125.323 -2901.803,-1032.788 -2949.418,-943.846 -2935.942,-826.156 M-3141.676,-366.175 Q-3201.869,-336.528 -3246.789,-277.234 -3286.318,-226.025 -3349.206,-215.244 -3416.586,-204.463 -3443.538,-147.864 -3465.998,-100.249 -3465.998,-4.12 -3465.998,117.164 -3344.714,117.164 -3289.912,117.164 -3260.265,95.602 -3225.227,70.447 -3151.558,63.26 -3080.585,56.073 -2931.45,72.244 -2826.338,72.244 -2774.23,54.276 -2702.358,30.918 -2702.358,-31.072 -2702.358,-112.826 -2870.359,-238.602 -3023.986,-354.496 -3141.676,-366.175Z M-4561.148,252.822 Q-4262.879,466.642 -4153.274,790.964 -4129.916,859.242 -4137.103,934.708 -4159.563,1178.174 -4040.076,1367.737 L-3842.428,1502.497 Q-3662.748,1676.786 -3402.212,1693.856 -2733.802,1737.878 -2207.34,1379.416 -2128.281,1325.512 -2099.532,1230.282 -2018.676,962.558 -2051.018,675.969 -2072.58,481.914 -2027.66,306.726 -2019.574,276.181 -1999.81,252.822 L-1948.601,108.18 M-3358.19,-826.156 Q-3395.923,-923.183 -3442.64,-982.478 -3489.357,-1041.772 -3555.838,-1077.708 -3634.898,-1121.73 -3650.17,-1126.222 -3668.138,-1131.612 -3744.502,-1131.612 -3895.434,-1131.612 -3986.172,-1018.414 -4057.146,-930.37 -4085.894,-781.236 M-3483.966,1699.246 Q-3418.383,1783.696 -3408.501,1906.777 -3404.009,1969.665 -3412.094,2022.67 M-2576.582,1609.406 Q-2585.566,1663.31 -2585.566,1730.69 -2585.566,1824.124 -2559.513,1853.771 -2502.914,1919.354 -2486.742,1950.798" test="RonaldFace"/>
        <path id="Layer4_0_3_STROKES" stroke="#F0C" stroke-width="35.936" stroke-linejoin="round" stroke-linecap="round" fill="none" d="M-2380.731,-1273.559 Q-2346.592,-1284.34 -2342.998,-1284.34 L-2321.437,-1284.34 M-2317.843,-1279.848 Q-2325.03,-1278.051 -2334.913,-1275.356 -2369.052,-1266.372 -2380.731,-1273.559" test="RonaldFace"/>
        <path id="Layer4_0_4_STROKES" stroke="#F0F" stroke-width="35.936" stroke-linejoin="round" stroke-linecap="round" fill="none" d="M-2486.742,1950.798 L-2486.742,1932.83" test="RonaldFace"/>
        <path id="Layer4_0_5_STROKES" stroke="#FF0" stroke-width="35.936" stroke-linejoin="round" stroke-linecap="round" fill="none" d="M-346.754,2612.919 Q-476.123,2542.844 -626.156,2470.972 -1273.004,2159.227 -2063.596,1914.862 L-2127.382,1914.862 Q-2126.484,1927.44 -2126.484,1941.814 -2126.484,2033.451 -2298.977,2081.965 -2551.427,2135.869 -2711.342,2184.382 -2776.027,2203.249 -3006.018,2233.794 -3245.89,2265.238 -3349.206,2265.238 -3549.55,2265.238 -3645.678,2220.318 -3744.502,2174.5 -3744.502,2076.574 -3744.502,1984.938 -3616.031,1929.237 -3474.084,1886.114 -3448.03,1869.942 M-4005.038,2058.606 Q-4383.265,2174.5 -4543.18,2235.591 -4834.262,2347.891 -4993.278,2471.87 -5097.493,2552.726 -5283.462,2745.882 -5375.098,2841.113 -5460.446,2930.054 M-2567.598,1789.086 L-2270.228,1789.086 Q-2138.163,1772.017 -2127.382,1914.862 L-2144.452,1914.862 M-2252.26,2948.022 Q-2251.362,2943.53 -2251.362,2939.038 -2222.613,2691.978 -2151.639,2533.86 -2060.002,2328.126 -1915.36,2328.126 -1850.675,2328.126 -1833.606,2488.94 -1827.317,2545.539 -1828.215,2594.951 -1812.942,2522.181 -1777.006,2461.09 -1709.626,2346.094 -1605.412,2346.094 -1496.706,2346.094 -1470.652,2481.753 -1461.668,2530.266 -1461.668,2754.866 -1461.668,2863.573 -1475.144,2989.349 -1482.331,3060.322 -1485.925,3092.665 -1488.62,3117.82 -1488.62,3118.718 M-1828.215,2594.951 Q-1828.215,2656.941 -1838.996,2705.454 L-1838.996,2714.438" test="RonaldFace"/>
        <path id="Layer3_0_1_STROKES" stroke="#FFF" stroke-width="35.936" stroke-linejoin="round" stroke-linecap="round" fill="none" d="M-2396.902,-812.68 Q-2502.015,-760.573 -2627.791,-702.177 -2731.107,-654.562 -2738.294,-650.968 -2738.294,-641.984 -2747.278,-641.984 -2697.866,-610.54 -2530.764,-594.369 -2406.785,-583.588 -2298.078,-586.283 -2274.72,-587.182 -2252.26,-588.08 L-2252.26,-579.096 -2298.078,-586.283 M-2864.07,1038.024 Q-2866.766,890.686 -2752.669,795.456 -2663.727,719.99 -2549.63,705.616 L-2549.63,696.632 M-2594.55,570.856 Q-2530.764,622.065 -2502.015,708.311 -2474.165,791.862 -2468.774,795.456 M-4005.038,-606.048 Q-3878.364,-570.112 -3741.807,-538.668 -3603.454,-507.224 -3573.806,-507.224 L-3564.822,-507.224 Q-3640.288,-472.186 -3767.861,-382.346 -3899.926,-290.71 -3915.198,-282.624" test="RonaldFace"/>
      </g>
      <g id="Ronald-Thought-Bubblef6r1">
        <path id="Layer2_0_1_STROKES" stroke="#FFF" stroke-width="35.936" stroke-linejoin="round" stroke-linecap="round" fill="none" d="M4611.452,-2793.597 L4615.944,-2822.346 Q4458.724,-3018.197 4214.36,-3076.593 3977.182,-3132.294 3739.106,-3071.202 3597.159,-3036.165 3451.618,-3023.587 3356.388,-3018.197 3263.852,-3036.165 2979.06,-3081.085 2687.08,-3087.374 2563,-3101.748 2440.918,-3098.154 2235.184,-3084.678 2041.13,-3017.298 1878.52,-2958.004 1737.471,-2857.383 1650.326,-2795.394 1551.502,-2748.677 1316.121,-2635.478 1086.131,-2509.702 893.873,-2403.691 798.643,-2205.145 727.669,-2057.807 683.648,-1900.587 645.016,-1763.132 687.241,-1631.966 701.616,-1587.944 740.247,-1561.89 786.964,-1530.446 831.884,-1491.815 854.344,-1471.152 859.734,-1442.403 890.28,-1284.285 859.734,-1125.268 836.376,-1000.39 846.258,-871.021 857.937,-706.614 951.371,-569.158 981.916,-525.137 1020.548,-486.506 1129.254,-376.002 1147.222,-228.665 1165.19,-80.429 1159.8,70.502 1154.409,213.348 1249.64,316.664 1333.191,406.504 1446.389,465.798 1571.267,532.28 1689.856,607.746 1713.214,622.12 1724.893,651.767 1773.407,767.661 1809.343,886.25 1829.108,949.138 1875.824,999.448 2001.6,1131.513 2184.874,1162.058 2407.677,1202.486 2632.277,1187.214 2798.481,1187.214 2961.092,1228.54 3017.691,1242.914 3074.29,1262.679 3308.772,1344.434 3560.324,1337.246 3797.502,1330.059 3996.947,1201.588 4182.916,1082 4404.82,1078.507 4636.608,1060.539 4862.106,996.753 5035.497,948.239 5168.46,832.346 5225.958,782.934 5243.028,709.265 5255.605,651.767 5278.065,595.168 5285.252,577.2 5300.525,564.622 5499.97,401.114 5747.03,325.648 5879.993,283.423 5974.325,184.599 6155.802,-2.268 6149.513,-266.398 6146.818,-367.917 6089.32,-458.655 6062.368,-499.982 6046.197,-546.698 6038.112,-571.854 6032.721,-597.009 6148.615,-835.085 6218.69,-1093.824 6227.674,-1127.065 6224.08,-1160.306 6208.808,-1294.167 6103.695,-1381.312 5976.122,-1485.526 5910.539,-1642.746 5883.587,-1708.33 5879.095,-1782.897 5877.298,-1817.934 5874.603,-1852.972 5863.822,-1990.427 5805.426,-2115.305 5739.843,-2258.15 5623.949,-2359.67 5359.82,-2593.254 5058.856,-2778.324 4940.267,-2852.891 4807.304,-2842.11 4773.164,-2843.009 4739.924,-2828.634 4670.747,-2798.089 4593.484,-2784.613 M567.754,-93.905 Q473.422,-196.322 330.576,-164.878 245.228,-146.91 172.458,-107.381 -45.853,13.005 -91.672,253.776 -124.014,423.574 -18.901,554.74 9.848,591.574 53.869,606.847 202.105,662.548 362.919,661.65 581.23,678.719 775.284,586.184 806.728,570.911 832.782,547.553 956.761,433.456 928.012,262.76 890.28,40.855 680.952,-53.477 617.166,-82.226 545.294,-84.921 M-749.3,166.631 Q-899.333,74.994 -1035.89,191.786 -1204.789,338.226 -1131.12,543.959 -1123.933,562.826 -1105.965,576.302 -929.879,706.57 -736.723,596.066 -659.46,551.146 -611.845,470.29 -600.166,449.627 -597.471,426.269 -583.096,311.274 -687.311,259.166 -772.659,216.942 -870.584,216.043" test="Ronald Thought Bubble"/>
        <path id="Layer2_0_2_STROKES" stroke="#F90" stroke-width="35.936" stroke-linejoin="round" stroke-linecap="round" fill="none" d="M2129.173,-1546.618 L2121.088,-1546.618 Q2023.162,-1528.65 1910.862,-1361.547 1775.204,-1159.407 1775.204,-906.058 1775.204,-721.886 1844.38,-601.501 1885.707,-531.426 2067.184,-329.286 2148.04,-239.446 2347.484,-192.729 2514.587,-154.098 2721.219,-154.098 2810.16,-154.098 2946.717,-186.44 3056.322,-212.494 3122.804,-239.446 3223.424,-279.874 3329.436,-372.409 3434.548,-465.842 3522.592,-635.64 3532.474,-654.506 3541.458,-672.474 3542.356,-676.068 3543.255,-677.865 3608.838,-825.202 3608.838,-977.93 3608.838,-1077.653 3589.073,-1123.471 3583.683,-1136.049 3563.918,-1155.814 M3541.458,-672.474 Q3557.629,-259.21 3873.866,-81.327 4086.787,39.058 4396.735,39.058 4738.127,39.058 4951.048,-234.954 5139.712,-477.522 5139.712,-793.758 5139.712,-1058.786 4917.807,-1348.97 4839.646,-1451.387 4747.111,-1538.532 4672.544,-1608.607 4632.116,-1631.966 M2121.088,-1546.618 L2102.221,-1546.618" test="Ronald Thought Bubble"/>
      </g>
      <g id="Ronald-Han">
        <path fill="#000" stroke="none" d="M-4812.674,132.46 Q-4968.097,314.835 -5035.477,391.199 -5137.894,505.296 -5493.661,769.426 -5950.048,1109.919 -5987.781,1140.465 -6147.696,1272.53 -6177.343,1317.45 L-6171.953,1378.541 -4613.229,1232.102 Q-4488.351,1152.144 -4432.65,1108.122 -4320.35,1020.079 -4175.708,885.319 -3996.028,716.42 -3885.525,612.206 -3728.305,465.766 -3670.807,399.285 -3624.989,346.279 -3592.646,277.102 -3563.898,217.808 -3568.39,210.621 -3570.186,207.027 -3634.871,185.466 -3660.925,177.38 -3786.701,153.123 -3845.097,141.444 -3925.953,127.07 -4182.895,78.556 -4236.799,63.283 -4301.484,44.417 -4390.426,-21.166 -4421.043,-42.692 -4466.79,-75.969 -4467.239,-76.616 -4468.586,-77.766 -4493.849,-96.327 -4524.287,-119.092 -4572.801,-151.434 -4585.378,-135.263 -4596.159,-120.889 -4651.86,-45.423 -4700.374,3.989 -4812.674,132.46 M-3535.149,-1248.381 L-3589.951,-1278.926 Q-3717.524,-1282.52 -3794.786,-1157.642 -3853.182,-1061.514 -3873.846,-947.417 -3907.985,-768.635 -4049.034,-658.132 -4043.643,-809.063 -4116.414,-943.823 -4147.858,-1000.422 -4197.27,-961.791 -4328.436,-861.17 -4348.201,-692.271 -4365.27,-544.934 -4348.201,-397.596 -4330.233,-226.9 -4447.923,-104.718 L-4466.79,-75.969 Q-4421.043,-42.692 -4390.426,-21.166 -4301.484,44.417 -4236.799,63.283 -4182.895,78.556 -3925.953,127.07 -3845.097,141.444 -3786.701,153.123 -3723.813,64.182 -3624.989,25.55 -3468.667,-38.236 -3327.618,-129.873 -3229.693,-192.761 -3158.719,-278.109 -3043.724,-415.564 -2926.034,-548.527 -2824.514,-659.929 -2876.622,-804.571 -2901.777,-872.85 -2965.563,-843.202 -3095.831,-791.994 -3188.366,-688.678 -3316.838,-544.934 -3480.346,-444.313 L-3494.721,-455.094 Q-3429.138,-558.41 -3341.094,-643.758 -3295.887,-687.15 -3260.238,-736.293 -3171.476,-856.157 -3140.751,-1008.508 -3198.249,-1071.396 -3275.511,-1034.562 -3403.982,-966.283 -3477.651,-836.914 -3539.641,-724.614 -3664.518,-733.598 -3594.443,-837.812 -3529.758,-943.823 -3435.426,-1098.348 -3535.149,-1248.381Z" test="Ronald Han" stroke-width="17.968"/>
        <path id="Layer1_0_1_STROKES" stroke="#FF0" stroke-width="35.936" stroke-linejoin="round" stroke-linecap="round" fill="none" d="M-3589.951,-1278.926 Q-3717.524,-1282.52 -3794.786,-1157.642 -3853.182,-1061.514 -3873.846,-947.417 -3907.985,-768.635 -4049.034,-658.132 -4043.643,-809.063 -4116.414,-943.823 -4147.858,-1000.422 -4197.27,-961.791 -4328.436,-861.17 -4348.201,-692.271 -4365.27,-544.934 -4348.201,-397.596 -4330.233,-226.9 -4447.923,-104.718 M-3786.701,153.123 Q-3723.813,64.182 -3624.989,25.55 -3468.667,-38.236 -3327.618,-129.873 -3229.693,-192.761 -3158.719,-278.109 -3043.724,-415.564 -2926.034,-548.527 -2824.514,-659.929 -2876.622,-804.571 -2901.777,-872.85 -2965.563,-843.202 -3095.831,-791.994 -3188.366,-688.678 -3316.838,-544.934 -3480.346,-444.313 L-3494.721,-455.094 Q-3429.138,-558.41 -3341.094,-643.758 -3295.887,-687.15 -3260.238,-735.844 -3171.476,-856.157 -3140.751,-1008.508 -3198.249,-1071.396 -3275.511,-1034.562 -3403.982,-966.283 -3477.651,-836.914 -3539.641,-724.614 -3664.518,-733.598 -3594.443,-837.812 -3529.758,-943.823 -3435.426,-1098.348 -3535.149,-1248.381 -3555.812,-1278.926 -3589.951,-1278.926" test="Ronald Han"/>
        <path id="Layer1_0_2_STROKES" stroke="#F00" stroke-width="35.936" stroke-linejoin="round" stroke-linecap="round" fill="none" d="M-4466.34,-75.969 Q-4421.043,-42.692 -4390.426,-21.166 -4301.484,44.417 -4236.799,63.283 -4182.895,78.556 -3925.953,127.07 -3845.097,141.444 -3786.701,153.123 M-6177.343,1317.45 Q-6147.696,1272.53 -5987.781,1140.465 -5950.048,1109.919 -5493.661,769.426 -5137.894,505.296 -5035.477,391.199 -4968.097,314.835 -4812.674,132.46 -4700.374,3.989 -4651.86,-45.423 -4596.159,-120.889 -4585.378,-135.263 -4572.801,-151.434 -4524.287,-119.092 -4493.849,-96.327 -4468.137,-77.316 -4467.239,-76.616 -4466.34,-75.969 M-4613.229,1232.102 Q-4488.351,1152.144 -4432.65,1108.122 -4320.35,1020.079 -4175.708,885.319 -3996.028,716.42 -3885.525,612.206 -3728.305,465.766 -3670.807,399.285 -3624.989,346.279 -3592.646,277.102 -3563.898,217.808 -3568.39,210.621 -3570.186,207.027 -3634.871,185.466 -3660.925,177.38 -3786.701,153.123 M-6177.343,1317.45 Q-6189.831,1337.214 -6195.76,1381.236 L-6171.504,1378.99 M-6201.6,1457.6 Q-6200.468,1412.967 -6195.76,1381.236 M-4613.229,1232.102 Q-4657.25,1260.85 -5503.543,2070.309" test="Ronald Han"/>
      </g>
    </g>
  </g>
</svg>