<?xml version="1.0" encoding="utf-8"?>
<svg id="EdithAnim08" image-rendering="inherit" baseProfile="basic" version="1.1" x="0px" y="0px" width="800" height="600" xmlns="http://www.w3.org/2000/svg" xmlns:xlink="http://www.w3.org/1999/xlink">
  <g id="Ronaldf168r1" overflow="visible">
    <g id="Ronaldf27r1">
      <g id="RonaldFacef1r1">
        <path id="Layer4_0_1_STROKES" stroke="#F00" stroke-width="41.826" stroke-linejoin="round" stroke-linecap="round" fill="none" d="M-2340.424,73.061 Q-2317.42,136.846 -2232.722,167.17 -2148.024,198.539 -1982.812,198.539 -1751.723,198.539 -1709.897,175.535 -1696.304,168.215 -1668.071,146.257 -1632.519,124.298 -1564.552,104.431 -1503.904,86.655 -1480.9,23.916 -1459.987,-35.686 -1459.987,-172.666 -1459.987,-193.579 -1507.041,-245.862 -1554.095,-299.19 -1554.095,-313.829 -1554.095,-360.883 -1507.041,-431.988 -1459.987,-503.092 -1459.987,-580.47 -1459.987,-616.022 -1517.497,-723.724 -1575.008,-830.38 -1575.008,-836.654 -1575.008,-896.256 -1496.584,-968.406 -1418.161,-1040.556 -1418.161,-1082.382 -1418.161,-1129.436 -1512.269,-1258.051 -1606.378,-1385.62 -1606.378,-1390.849 -1554.095,-1676.311 -1554.095,-1725.457 -1554.095,-1819.565 -1591.739,-1867.665 -1605.332,-1884.396 -1674.345,-1932.495 -1794.595,-2017.193 -1794.595,-2258.738 -1794.595,-2318.34 -1844.786,-2377.942 -1900.205,-2443.818 -1993.268,-2478.325 -2037.186,-2492.964 -2049.733,-2496.101 -2066.464,-2502.375 -2071.692,-2515.968 -2079.012,-2583.935 -2097.833,-2708.368 -2120.838,-2866.261 -2251.544,-2948.867 -2366.565,-3022.063 -2537.006,-3022.063 -2543.28,-3022.063 -2650.982,-2995.921 -2758.684,-2969.78 -2772.277,-2969.78 -2835.016,-2969.78 -2945.855,-3022.063 -3057.74,-3074.345 -3202.04,-3074.345 -3233.409,-3074.345 -3307.65,-3027.291 -3381.891,-2980.237 -3395.485,-2980.237 -3485.411,-2980.237 -3641.213,-3074.345 -3798.06,-3168.454 -3881.712,-3168.454 -3975.821,-3168.454 -4036.468,-3142.312 -4096.07,-3116.171 -4137.896,-3116.171 -4139.988,-3116.171 -4310.429,-3163.225 -4479.824,-3210.28 -4577.069,-3210.28 -4599.028,-3210.28 -4780.971,-3041.93 -4976.508,-2862.078 -5089.438,-2823.389 -5466.918,-2695.82 -5532.793,-2513.877 -5556.843,-2449.047 -5550.57,-2345.527 -5547.433,-2288.016 -5539.067,-2164.63 -5539.067,-2138.488 -5594.487,-2102.936 -5671.865,-2059.019 -5716.828,-2030.787 -5894.588,-1917.856 -5894.588,-1767.283 -5894.588,-1753.689 -5884.132,-1706.635 -5873.675,-1659.581 -5873.675,-1647.033 -5873.675,-1613.572 -5932.232,-1553.97 -5967.784,-1517.372 -6061.892,-1432.675 -6250.109,-1254.914 -6250.109,-1118.98 -6250.109,-1018.597 -6129.86,-958.995 -6061.892,-926.58 -6047.253,-915.078 -6009.61,-886.845 -6009.61,-847.111 -6009.61,-836.654 -6072.349,-719.541 -6135.088,-603.474 -6135.088,-538.644 -6135.088,-467.54 -6072.349,-405.846 -6009.61,-344.153 -6009.61,-308.601 -6009.61,-254.227 -6040.979,-181.032 -6072.349,-108.882 -6072.349,-78.558 -6072.349,-20.002 -6040.979,-.134 -6022.158,11.368 -5973.012,23.916 -5873.675,64.696 -5873.675,303.104 M-5863.219,250.822 Q-5747.152,296.83 -5731.467,302.059 -5693.824,313.561 -5643.632,313.561 -5443.913,313.561 -5405.224,178.672 -5391.631,131.618 -5386.402,29.144 -5379.083,-102.608 -5371.763,-156.982 -5372.809,-220.766 -5370.718,-264.684 -5367.581,-346.244 -5340.394,-366.112 -5276.609,-413.166 -5200.277,-544.918 -5135.446,-654.711 -5120.807,-711.176 -5089.438,-832.472 -5058.068,-891.028 -4998.466,-1003.958 -4880.308,-1077.154 -4807.112,-1123.162 -4778.88,-1217.271 -4756.921,-1286.284 -4765.286,-1349.023 -4719.278,-1459.862 -4698.365,-1493.322 -4656.539,-1556.061 -4577.069,-1599.979 -4515.376,-1634.485 -4462.048,-1718.137 -4417.085,-1788.196 -4394.081,-1788.196 -4391.989,-1788.196 -4306.246,-1735.913 -4214.229,-1683.631 -4179.722,-1683.631 -4092.933,-1683.631 -4013.464,-1709.772 -3933.995,-1735.913 -3829.43,-1735.913 -3747.869,-1735.913 -3643.304,-1699.316 -3539.785,-1662.718 -3505.278,-1662.718 -3421.626,-1662.718 -3265.824,-1720.229 -3110.022,-1777.739 -3008.594,-1777.739 -2879.979,-1777.739 -2839.199,-1747.415 -2813.058,-1727.548 -2807.83,-1667.946 -2802.601,-1595.796 -2780.643,-1557.107 -2777.506,-1551.879 -2774.369,-1547.696 -2772.277,-1544.559 -2770.186,-1542.468 -2726.269,-1481.82 -2620.658,-1432.675 -2669.804,-1391.894 -2681.306,-1374.118 -2693.854,-1356.342 -2693.854,-1322.881 -2693.854,-1250.732 -2603.928,-1201.586 -2548.508,-1170.217 -2390.615,-1108.523 -2452.309,-1046.83 -2554.782,-971.543 -2599.745,-939.128 -2599.745,-894.165 -2599.745,-742.546 -2403.163,-639.026 -2304.872,-587.79 -2202.398,-564.785 L-2228.539,-410.029 Q-2254.681,-252.136 -2254.681,-230.177 -2254.681,-122.475 -2301.735,-64.965 -2348.789,-7.454 -2348.789,20.779 -2348.789,49.011 -2340.424,73.061 M-4430.678,439.039 Q-4536.289,455.769 -4557.202,493.413 -4566.613,509.097 -4566.613,606.343 -4566.613,702.543 -4484.007,918.992 -4375.259,1208.637 -4367.939,1234.778 -4312.52,1432.406 -4133.714,1510.83 -3999.871,1569.386 -3761.462,1569.386 -3517.826,1569.386 -3281.509,1524.423 -2968.86,1463.776 -2872.66,1349.8 -2831.88,1301.7 -2813.058,1120.803 -2799.464,916.901 -2787.962,846.842 -2772.277,761.099 -2725.223,588.567 -2693.854,474.591 -2693.854,371.072 -2693.854,312.515 -2777.506,292.648 -2821.423,282.191 -2909.258,282.191 -2991.864,282.191 -3087.018,311.469 -3097.475,314.606 -3265.824,376.3 -3523.054,470.408 -3792.832,470.408 -3936.086,470.408 -4130.577,444.267 -4324.022,418.126 -4399.309,418.126 M-1747.54,2579.484 Q-1912.753,2500.015 -2228.539,2500.015 -2519.23,2500.015 -2746.136,2667.319 -3019.051,2869.129 -3019.051,3221.513 -3019.051,3559.258 -2641.571,3671.143 -2463.811,3723.425 -2129.203,3723.425 -1802.96,3723.425 -1616.834,3618.86 -1397.248,3495.474 -1397.248,3237.198 -1397.248,3074.077 -1466.261,2941.279 -1500.767,2874.358 -1541.547,2839.851 -1577.1,2662.091 -1747.54,2579.484Z" test="RonaldFace"/>
        <path id="Layer4_0_2_STROKES" stroke="#FFF" stroke-width="41.826" stroke-linejoin="round" stroke-linecap="round" fill="none" d="M-2340.424,73.061 L-2337.287,63.65 M-2843.382,-1535.148 Q-2900.892,-1518.418 -3029.507,-1477.638 -3254.322,-1405.488 -3270.007,-1401.305 -3391.302,-1362.616 -3449.859,-1254.914 -3505.278,-1151.395 -3489.593,-1014.415 M-3729.047,-479.042 Q-3799.106,-444.535 -3851.388,-375.523 -3897.397,-315.921 -3970.592,-303.373 -4049.016,-290.825 -4080.386,-224.949 -4106.527,-169.53 -4106.527,-57.645 -4106.527,83.518 -3965.364,83.518 -3901.579,83.518 -3867.073,58.422 -3826.293,29.144 -3740.549,20.779 -3657.943,12.414 -3484.365,31.235 -3362.024,31.235 -3301.376,10.322 -3217.724,-16.865 -3217.724,-89.014 -3217.724,-184.169 -3413.261,-330.56 -3592.067,-465.448 -3729.047,-479.042Z M-5381.174,241.411 Q-5034.018,490.276 -4906.449,867.755 -4879.262,947.225 -4887.627,1035.059 -4913.769,1318.43 -4774.697,1539.063 L-4544.654,1695.91 Q-4335.524,1898.766 -4032.286,1918.634 -3254.322,1969.87 -2641.571,1552.656 -2549.554,1489.917 -2516.093,1379.078 -2421.985,1067.474 -2459.628,733.912 -2484.724,508.052 -2432.441,304.15 -2423.03,268.598 -2400.026,241.411 L-2340.424,73.061 M-3981.049,-1014.415 Q-4024.966,-1127.345 -4079.34,-1196.358 -4133.714,-1265.371 -4211.092,-1307.197 -4303.109,-1358.434 -4320.885,-1363.662 -4341.798,-1369.936 -4430.678,-1369.936 -4606.348,-1369.936 -4711.958,-1238.184 -4794.565,-1135.71 -4828.025,-962.132 M-4127.44,1924.907 Q-4051.107,2023.199 -4039.605,2166.453 -4034.377,2239.648 -4043.788,2301.341 M-3071.333,1820.342 Q-3081.79,1883.081 -3081.79,1961.505 -3081.79,2070.253 -3051.466,2104.759 -2985.59,2181.092 -2966.768,2217.689" test="RonaldFace"/>
        <path id="Layer4_0_3_STROKES" stroke="#F0C" stroke-width="41.826" stroke-linejoin="round" stroke-linecap="round" fill="none" d="M-2843.382,-1535.148 Q-2803.647,-1547.696 -2799.464,-1547.696 L-2774.369,-1547.696 M-2770.186,-1542.468 Q-2778.551,-1540.377 -2790.054,-1537.24 -2829.788,-1526.783 -2843.382,-1535.148" test="RonaldFace"/>
        <path id="Layer4_0_4_STROKES" stroke="#F0F" stroke-width="41.826" stroke-linejoin="round" stroke-linecap="round" fill="none" d="M-2966.768,2217.689 L-2966.768,2196.776" test="RonaldFace"/>
        <path id="Layer4_0_5_STROKES" stroke="#FF0" stroke-width="41.826" stroke-linejoin="round" stroke-linecap="round" fill="none" d="M-476.03,2988.333 Q-626.604,2906.773 -801.227,2823.121 -1554.095,2460.28 -2474.267,2175.863 L-2548.508,2175.863 Q-2547.463,2190.503 -2547.463,2207.233 -2547.463,2313.889 -2748.228,2370.354 -3042.055,2433.093 -3228.181,2489.558 -3303.468,2511.517 -3571.154,2547.069 -3850.343,2583.667 -3970.592,2583.667 -4203.772,2583.667 -4315.657,2531.384 -4430.678,2478.056 -4430.678,2364.08 -4430.678,2257.424 -4281.15,2192.594 -4115.938,2142.403 -4085.614,2123.581 M-4733.917,2343.167 Q-5174.136,2478.056 -5360.261,2549.16 -5699.052,2679.867 -5884.132,2824.166 -6005.427,2918.275 -6221.877,3143.09 -6328.533,3253.929 -6427.87,3357.448 M-3060.877,2029.472 L-2714.767,2029.472 Q-2561.056,2009.605 -2548.508,2175.863 L-2568.376,2175.863 M-2693.854,3378.361 Q-2692.808,3373.133 -2692.808,3367.904 -2659.347,3080.351 -2576.741,2896.316 -2470.085,2656.862 -2301.735,2656.862 -2226.448,2656.862 -2206.581,2844.034 -2199.261,2909.91 -2200.307,2967.42 -2182.531,2882.723 -2140.705,2811.619 -2062.281,2677.775 -1940.986,2677.775 -1814.462,2677.775 -1784.138,2835.669 -1773.682,2892.134 -1773.682,3153.546 -1773.682,3280.07 -1789.366,3426.461 -1797.732,3509.067 -1801.914,3546.711 -1805.051,3575.989 -1805.051,3577.034 M-2200.307,2967.42 Q-2200.307,3039.57 -2212.855,3096.035 L-2212.855,3106.492" test="RonaldFace"/>
        <path id="Layer3_0_1_STROKES" stroke="#FFF" stroke-width="41.826" stroke-linejoin="round" stroke-linecap="round" fill="none" d="M-2862.203,-998.73 Q-2984.544,-938.082 -3130.935,-870.115 -3251.185,-814.696 -3259.55,-810.513 -3259.55,-800.057 -3270.007,-800.057 -3212.496,-763.459 -3018.005,-744.637 -2873.706,-732.089 -2747.182,-735.226 -2719.995,-736.272 -2693.854,-737.318 L-2693.854,-726.861 -2747.182,-735.226 M-3405.941,1155.309 Q-3409.078,983.822 -3276.281,872.984 -3172.761,785.149 -3039.964,768.419 L-3039.964,757.962 M-3092.246,611.571 Q-3018.005,671.173 -2984.544,771.555 -2952.129,868.801 -2945.855,872.984 M-4733.917,-758.23 Q-4586.48,-716.405 -4427.541,-679.807 -4266.511,-643.209 -4232.005,-643.209 L-4221.548,-643.209 Q-4309.383,-602.429 -4457.865,-497.864 -4611.576,-391.207 -4629.352,-381.796" test="RonaldFace"/>
      </g>
      <g id="Ronald-Thought-Bubblef6r1">
        <path id="Layer2_0_1_STROKES" stroke="#FFF" stroke-width="41.826" stroke-linejoin="round" stroke-linecap="round" fill="none" d="M5294.847,-3304.298 L5300.075,-3337.758 Q5117.087,-3565.71 4832.67,-3633.677 4556.618,-3698.508 4279.521,-3627.403 4114.308,-3586.623 3944.913,-3571.984 3834.074,-3565.71 3726.372,-3586.623 3394.901,-3638.906 3055.065,-3646.225 2911.811,-3662.955 2768.557,-3658.773 2529.103,-3643.088 2303.243,-3564.664 2113.98,-3495.651 1949.813,-3378.539 1848.385,-3306.389 1733.363,-3252.015 1459.403,-3120.263 1191.717,-2973.872 967.947,-2850.485 857.109,-2619.397 774.502,-2447.91 723.265,-2264.921 678.302,-2104.937 727.448,-1952.272 744.178,-1901.035 789.141,-1870.711 843.515,-1834.114 895.798,-1789.151 921.939,-1765.101 928.213,-1731.64 963.765,-1547.606 928.213,-1362.525 901.026,-1217.18 912.528,-1066.607 926.121,-875.253 1034.869,-715.268 1070.421,-664.031 1115.384,-619.068 1241.908,-490.453 1262.821,-318.967 1283.734,-146.435 1277.46,29.235 1271.186,195.493 1382.025,315.743 1479.27,420.308 1611.022,489.321 1756.368,566.699 1894.393,654.533 1921.58,671.264 1935.174,705.77 1991.639,840.659 2033.465,978.685 2056.469,1051.88 2110.843,1110.437 2257.234,1264.147 2470.547,1299.699 2729.868,1346.754 2991.28,1328.978 3184.725,1328.978 3373.988,1377.078 3439.864,1393.808 3505.74,1416.812 3778.655,1511.966 4071.437,1503.601 4347.488,1495.236 4579.623,1345.708 4796.072,1207.682 5054.348,1202.454 5324.125,1181.541 5586.584,1107.3 5788.394,1050.835 5943.15,915.946 6010.072,858.435 6029.939,772.692 6044.578,705.77 6070.719,639.894 6079.085,618.981 6096.861,604.342 6328.995,414.034 6616.549,326.199 6771.305,277.054 6881.098,162.032 7092.32,-55.463 7085,-362.884 7081.863,-481.043 7014.941,-586.653 6983.572,-634.753 6964.75,-689.127 6955.339,-718.405 6949.065,-747.683 7083.954,-1024.781 7165.515,-1325.928 7175.972,-1364.617 7171.789,-1403.306 7154.013,-1559.108 7031.672,-1660.536 6883.19,-1781.831 6806.857,-1964.82 6775.488,-2041.152 6770.259,-2127.941 6768.168,-2168.722 6765.031,-2209.502 6752.483,-2369.486 6684.516,-2514.832 6608.184,-2681.09 6473.295,-2799.249 6165.874,-3071.118 5815.581,-3286.521 5677.555,-3373.31 5522.799,-3360.763 5483.064,-3361.808 5444.375,-3345.078 5363.86,-3309.526 5273.934,-3293.841 M588.376,-162.119 Q478.583,-281.323 312.325,-244.726 212.988,-223.813 128.291,-177.804 -125.802,-37.687 -179.131,242.547 -216.774,440.175 -94.433,592.84 -60.972,635.712 -9.735,653.488 162.797,718.318 349.968,717.272 604.061,737.14 829.922,629.438 866.519,611.662 896.843,584.475 1041.143,451.677 1007.682,253.004 963.765,-5.272 720.128,-115.065 645.887,-148.526 562.235,-151.663 M-944.546,141.119 Q-1119.17,34.463 -1278.109,170.397 -1474.691,340.838 -1388.948,580.292 -1380.582,602.251 -1359.669,617.936 -1154.722,769.555 -929.907,640.94 -839.981,588.657 -784.562,494.549 -770.968,470.499 -767.832,443.312 -751.101,309.469 -872.397,248.821 -971.733,199.676 -1085.709,198.63" test="Ronald Thought Bubble"/>
        <path id="Layer2_0_2_STROKES" stroke="#F90" stroke-width="41.826" stroke-linejoin="round" stroke-linecap="round" fill="none" d="M2405.716,-1852.935 L2396.305,-1852.935 Q2282.33,-1832.022 2151.623,-1637.531 1993.73,-1402.26 1993.73,-1107.387 1993.73,-893.029 2074.245,-752.912 2122.345,-671.351 2333.566,-436.08 2427.675,-331.515 2659.809,-277.141 2854.3,-232.178 3094.8,-232.178 3198.319,-232.178 3357.258,-269.821 3484.827,-300.145 3562.205,-331.515 3679.318,-378.569 3802.705,-486.271 3925.046,-595.018 4027.519,-792.646 4039.022,-814.605 4049.478,-835.518 4050.524,-839.7 4051.569,-841.792 4127.902,-1013.278 4127.902,-1191.039 4127.902,-1307.106 4104.897,-1360.434 4098.624,-1375.073 4075.619,-1398.078 M4049.478,-835.518 Q4068.3,-354.519 4436.369,-147.48 4684.188,-7.363 5044.937,-7.363 5442.284,-7.363 5690.103,-326.286 5909.689,-608.612 5909.689,-976.681 5909.689,-1285.147 5651.414,-1622.892 5560.442,-1742.096 5452.74,-1843.524 5365.951,-1925.085 5318.897,-1952.272 M2396.305,-1852.935 L2374.347,-1852.935" test="Ronald Thought Bubble"/>
      </g>
      <g id="Ronald-Han">
        <path fill="#000" stroke="none" d="M-5673.975,101.316 Q-5854.873,313.583 -5933.296,402.463 -6052.5,535.261 -6466.578,842.682 -6997.768,1238.983 -7041.685,1274.536 -7227.811,1428.246 -7262.317,1480.529 L-7256.044,1551.633 -5441.841,1381.192 Q-5296.495,1288.129 -5231.665,1236.892 -5100.959,1134.418 -4932.609,977.571 -4723.479,780.989 -4594.864,659.693 -4411.876,489.252 -4344.954,411.874 -4291.626,350.181 -4253.982,269.666 -4220.522,200.653 -4225.75,192.288 -4227.841,188.105 -4303.128,163.01 -4333.452,153.599 -4479.843,125.366 -4547.81,111.773 -4641.919,95.042 -4940.974,38.577 -5003.713,20.801 -5079,-1.157 -5182.52,-77.49 -5218.155,-102.544 -5271.4,-141.275 -5271.923,-142.027 -5273.491,-143.366 -5302.895,-164.969 -5338.321,-191.466 -5394.787,-229.109 -5409.426,-210.287 -5421.973,-193.557 -5486.804,-105.722 -5543.269,-48.212 -5673.975,101.316 M-4187.061,-1505.848 L-4250.845,-1541.4 Q-4399.328,-1545.582 -4489.254,-1400.237 -4557.221,-1288.353 -4581.271,-1155.555 -4621.006,-947.471 -4785.173,-818.856 -4778.899,-994.525 -4863.596,-1151.372 -4900.194,-1217.248 -4957.705,-1172.285 -5110.37,-1055.173 -5133.374,-858.59 -5153.241,-687.104 -5133.374,-515.617 -5112.461,-316.944 -5249.441,-174.735 L-5271.4,-141.275 Q-5218.155,-102.544 -5182.52,-77.49 -5079,-1.157 -5003.713,20.801 -4940.974,38.577 -4641.919,95.042 -4547.81,111.773 -4479.843,125.366 -4406.647,21.847 -4291.626,-23.116 -4109.683,-97.357 -3945.516,-204.014 -3831.54,-277.209 -3748.933,-376.546 -3615.09,-536.53 -3478.11,-691.286 -3359.952,-820.947 -3420.599,-989.297 -3449.878,-1068.766 -3524.119,-1034.26 -3675.738,-974.658 -3783.44,-854.408 -3932.968,-687.104 -4123.276,-569.991 L-4140.007,-582.539 Q-4063.674,-702.789 -3961.2,-802.125 -3908.583,-852.63 -3867.092,-909.827 -3763.782,-1049.338 -3728.02,-1226.659 -3794.942,-1299.855 -3884.868,-1256.983 -4034.396,-1177.514 -4120.139,-1026.94 -4192.289,-896.234 -4337.634,-906.69 -4256.074,-1027.986 -4180.787,-1151.372 -4070.994,-1331.224 -4187.061,-1505.848Z" test="Ronald Han" stroke-width="20.913"/>
        <path id="Layer1_0_1_STROKES" stroke="#FF0" stroke-width="41.826" stroke-linejoin="round" stroke-linecap="round" fill="none" d="M-4250.845,-1541.4 Q-4399.328,-1545.582 -4489.254,-1400.237 -4557.221,-1288.353 -4581.271,-1155.555 -4621.006,-947.471 -4785.173,-818.856 -4778.899,-994.525 -4863.596,-1151.372 -4900.194,-1217.248 -4957.705,-1172.285 -5110.37,-1055.173 -5133.374,-858.59 -5153.241,-687.104 -5133.374,-515.617 -5112.461,-316.944 -5249.441,-174.735 M-4479.843,125.366 Q-4406.647,21.847 -4291.626,-23.116 -4109.683,-97.357 -3945.516,-204.014 -3831.54,-277.209 -3748.933,-376.546 -3615.09,-536.53 -3478.11,-691.286 -3359.952,-820.947 -3420.599,-989.297 -3449.878,-1068.766 -3524.119,-1034.26 -3675.738,-974.658 -3783.44,-854.408 -3932.968,-687.104 -4123.276,-569.991 L-4140.007,-582.539 Q-4063.674,-702.789 -3961.2,-802.125 -3908.583,-852.63 -3867.092,-909.304 -3763.782,-1049.338 -3728.02,-1226.659 -3794.942,-1299.855 -3884.868,-1256.983 -4034.396,-1177.514 -4120.139,-1026.94 -4192.289,-896.234 -4337.634,-906.69 -4256.074,-1027.986 -4180.787,-1151.372 -4070.994,-1331.224 -4187.061,-1505.848 -4211.111,-1541.4 -4250.845,-1541.4" test="Ronald Han"/>
        <path id="Layer1_0_2_STROKES" stroke="#F00" stroke-width="41.826" stroke-linejoin="round" stroke-linecap="round" fill="none" d="M-5270.877,-141.275 Q-5218.155,-102.544 -5182.52,-77.49 -5079,-1.157 -5003.713,20.801 -4940.974,38.577 -4641.919,95.042 -4547.81,111.773 -4479.843,125.366 M-7262.317,1480.529 Q-7227.811,1428.246 -7041.685,1274.536 -6997.768,1238.983 -6466.578,842.682 -6052.5,535.261 -5933.296,402.463 -5854.873,313.583 -5673.975,101.316 -5543.269,-48.212 -5486.804,-105.722 -5421.973,-193.557 -5409.426,-210.287 -5394.787,-229.109 -5338.321,-191.466 -5302.895,-164.969 -5272.968,-142.843 -5271.923,-142.027 -5270.877,-141.275 M-5441.841,1381.192 Q-5296.495,1288.129 -5231.665,1236.892 -5100.959,1134.418 -4932.609,977.571 -4723.479,780.989 -4594.864,659.693 -4411.876,489.252 -4344.954,411.874 -4291.626,350.181 -4253.982,269.666 -4220.522,200.653 -4225.75,192.288 -4227.841,188.105 -4303.128,163.01 -4333.452,153.599 -4479.843,125.366 M-7262.317,1480.529 Q-7276.852,1503.533 -7283.753,1554.77 L-7255.521,1552.156 M-7290.55,1643.65 Q-7289.232,1591.702 -7283.753,1554.77 M-5441.841,1381.192 Q-5493.078,1414.653 -6478.08,2356.783" test="Ronald Han"/>
      </g>
    </g>
  </g>
</svg>