<?xml version="1.0" encoding="utf-8"?>
<svg id="EdithAnim08" image-rendering="inherit" baseProfile="basic" version="1.1" x="0px" y="0px" width="800" height="600" xmlns="http://www.w3.org/2000/svg" xmlns:xlink="http://www.w3.org/1999/xlink">
  <g id="Ronaldf17r1" overflow="visible">
    <g id="Ronaldf0r1">
      <g id="RonaldFacef0r1">
        <path id="Layer2_0_1_STROKES" stroke="#F00" stroke-width="2.5" stroke-linejoin="round" stroke-linecap="round" fill="none" d="M118.538,268.063 Q119.913,271.875 124.975,273.688 130.038,275.563 139.913,275.563 153.725,275.563 156.225,274.188 157.038,273.75 158.725,272.438 160.85,271.125 164.913,269.938 168.538,268.875 169.913,265.125 171.163,261.563 171.163,253.375 171.163,252.125 168.35,249 165.538,245.813 165.538,244.938 165.538,242.125 168.35,237.875 171.163,233.625 171.163,229 171.163,226.875 167.725,220.438 164.288,214.063 164.288,213.688 164.288,210.125 168.975,205.813 173.663,201.5 173.663,199 173.663,196.188 168.038,188.5 162.413,180.875 162.413,180.563 165.538,163.5 165.538,160.563 165.538,154.938 163.288,152.063 162.475,151.063 158.35,148.188 151.163,143.125 151.163,128.688 151.163,125.125 148.163,121.563 144.85,117.625 139.288,115.563 136.663,114.688 135.913,114.5 134.913,114.125 134.6,113.313 134.163,109.25 133.038,101.813 131.663,92.375 123.85,87.438 116.975,83.063 106.788,83.063 106.413,83.063 99.975,84.625 93.538,86.188 92.725,86.188 88.975,86.188 82.35,83.063 75.663,79.938 67.038,79.938 65.162,79.938 60.725,82.75 56.288,85.563 55.475,85.563 50.1,85.563 40.788,79.938 31.413,74.313 26.413,74.313 20.788,74.313 17.163,75.875 13.6,77.438 11.1,77.438 10.975,77.438 .788,74.625 -9.337,71.813 -15.15,71.813 -16.462,71.813 -27.337,81.875 -39.025,92.625 -45.775,94.938 -68.337,102.563 -72.275,113.438 -73.712,117.313 -73.337,123.5 -73.15,126.938 -72.65,134.313 -72.65,135.875 -75.962,138 -80.587,140.625 -83.275,142.313 -93.9,149.063 -93.9,158.063 -93.9,158.875 -93.275,161.688 -92.65,164.5 -92.65,165.25 -92.65,167.25 -96.15,170.813 -98.275,173 -103.9,178.063 -115.15,188.688 -115.15,196.813 -115.15,202.813 -107.962,206.375 -103.9,208.313 -103.025,209 -100.775,210.688 -100.775,213.063 -100.775,213.688 -104.525,220.688 -108.275,227.625 -108.275,231.5 -108.275,235.75 -104.525,239.438 -100.775,243.125 -100.775,245.25 -100.775,248.5 -102.65,252.875 -104.525,257.188 -104.525,259 -104.525,262.5 -102.65,263.688 -101.525,264.375 -98.587,265.125 -92.65,267.563 -92.65,281.813 M-92.025,278.688 Q-85.087,281.438 -84.15,281.75 -81.9,282.438 -78.9,282.438 -66.962,282.438 -64.65,274.375 -63.837,271.563 -63.525,265.438 -63.087,257.563 -62.65,254.313 -62.712,250.5 -62.587,247.875 -62.4,243 -60.775,241.813 -56.962,239 -52.4,231.125 -48.525,224.563 -47.65,221.188 -45.775,213.938 -43.9,210.438 -40.337,203.688 -33.275,199.313 -28.9,196.563 -27.212,190.938 -25.9,186.813 -26.4,183.063 -23.65,176.438 -22.4,174.438 -19.9,170.688 -15.15,168.063 -11.462,166 -8.275,161 -5.587,156.813 -4.212,156.813 -4.087,156.813 1.038,159.938 6.538,163.063 8.6,163.063 13.788,163.063 18.538,161.5 23.288,159.938 29.538,159.938 34.413,159.938 40.663,162.125 46.85,164.313 48.913,164.313 53.913,164.313 63.225,160.875 72.538,157.438 78.6,157.438 86.288,157.438 88.725,159.25 90.288,160.438 90.6,164 90.913,168.313 92.225,170.625 92.413,170.938 92.6,171.188 92.725,171.375 92.85,171.5 95.475,175.125 101.788,178.063 98.85,180.5 98.163,181.563 97.413,182.625 97.413,184.625 97.413,188.938 102.788,191.875 106.1,193.75 115.538,197.438 111.85,201.125 105.725,205.625 103.038,207.563 103.038,210.25 103.038,219.313 114.788,225.5 120.663,228.563 126.788,229.938 L125.225,239.188 Q123.663,248.625 123.663,249.938 123.663,256.375 120.85,259.813 118.038,263.25 118.038,264.938 118.038,266.625 118.538,268.063 M-6.4,289.938 Q-12.712,290.938 -13.962,293.188 -14.525,294.125 -14.525,299.938 -14.525,305.688 -9.587,318.625 -3.087,335.938 -2.65,337.5 .663,349.313 11.35,354 19.35,357.5 33.6,357.5 48.163,357.5 62.288,354.813 80.975,351.188 86.725,344.375 89.163,341.5 90.288,330.688 91.1,318.5 91.788,314.313 92.725,309.188 95.538,298.875 97.413,292.063 97.413,285.875 97.413,282.375 92.413,281.188 89.788,280.563 84.538,280.563 79.6,280.563 73.913,282.313 73.288,282.5 63.225,286.188 47.85,291.813 31.725,291.813 23.163,291.813 11.538,290.25 -.025,288.688 -4.525,288.688 M153.975,417.875 Q144.1,413.125 125.225,413.125 107.85,413.125 94.288,423.125 77.975,435.188 77.975,456.25 77.975,476.438 100.538,483.125 111.163,486.25 131.163,486.25 150.663,486.25 161.788,480 174.913,472.625 174.913,457.188 174.913,447.438 170.788,439.5 168.725,435.5 166.288,433.438 164.163,422.813 153.975,417.875Z" test="RonaldFace"/>
        <path id="Layer2_0_2_STROKES" stroke="#FFF" stroke-width="2.5" stroke-linejoin="round" stroke-linecap="round" fill="none" d="M118.538,268.063 L118.725,267.5 M88.475,171.938 Q85.038,172.938 77.35,175.375 63.913,179.688 62.975,179.938 55.725,182.25 52.225,188.688 48.913,194.875 49.85,203.063 M35.538,235.063 Q31.35,237.125 28.225,241.25 25.475,244.813 21.1,245.563 16.413,246.313 14.538,250.25 12.975,253.563 12.975,260.25 12.975,268.688 21.413,268.688 25.225,268.688 27.288,267.188 29.725,265.438 34.85,264.938 39.788,264.438 50.163,265.563 57.475,265.563 61.1,264.313 66.1,262.688 66.1,258.375 66.1,252.688 54.413,243.938 43.725,235.875 35.538,235.063Z M-63.212,278.125 Q-42.462,293 -34.837,315.563 -33.212,320.313 -33.712,325.563 -35.275,342.5 -26.962,355.688 L-13.212,365.063 Q-.712,377.188 17.413,378.375 63.913,381.438 100.538,356.5 106.038,352.75 108.038,346.125 113.663,327.5 111.413,307.563 109.913,294.063 113.038,281.875 113.6,279.75 114.975,278.125 L118.538,268.063 M20.475,203.063 Q17.85,196.313 14.6,192.188 11.35,188.063 6.725,185.563 1.225,182.5 .163,182.188 -1.087,181.813 -6.4,181.813 -16.9,181.813 -23.212,189.688 -28.15,195.813 -30.15,206.188 M11.725,378.75 Q16.288,384.625 16.975,393.188 17.288,397.563 16.725,401.25 M74.85,372.5 Q74.225,376.25 74.225,380.938 74.225,387.438 76.038,389.5 79.975,394.063 81.1,396.25" test="RonaldFace"/>
        <path id="Layer2_0_3_STROKES" stroke="#F0C" stroke-width="2.5" stroke-linejoin="round" stroke-linecap="round" fill="none" d="M88.475,171.938 Q90.85,171.188 91.1,171.188 L92.6,171.188 M92.85,171.5 Q92.35,171.625 91.663,171.813 89.288,172.438 88.475,171.938" test="RonaldFace"/>
        <path id="Layer2_0_4_STROKES" stroke="#F0F" stroke-width="2.5" stroke-linejoin="round" stroke-linecap="round" fill="none" d="M81.1,396.25 L81.1,395" test="RonaldFace"/>
        <path id="Layer2_0_5_STROKES" stroke="#FF0" stroke-width="2.5" stroke-linejoin="round" stroke-linecap="round" fill="none" d="M229.975,442.313 Q220.975,437.438 210.538,432.438 165.538,410.75 110.538,393.75 L106.1,393.75 Q106.163,394.625 106.163,395.625 106.163,402 94.163,405.375 76.6,409.125 65.475,412.5 60.975,413.813 44.975,415.938 28.288,418.125 21.1,418.125 7.163,418.125 .475,415 -6.4,411.813 -6.4,405 -6.4,398.625 2.538,394.75 12.413,391.75 14.225,390.625 M-24.525,403.75 Q-50.837,411.813 -61.962,416.063 -82.212,423.875 -93.275,432.5 -100.525,438.125 -113.462,451.563 -119.837,458.188 -125.775,464.375 M75.475,385 L96.163,385 Q105.35,383.813 106.1,393.75 L104.913,393.75 M97.413,465.625 Q97.475,465.313 97.475,465 99.475,447.813 104.413,436.813 110.788,422.5 120.85,422.5 125.35,422.5 126.538,433.688 126.975,437.625 126.913,441.063 127.975,436 130.475,431.75 135.163,423.75 142.413,423.75 149.975,423.75 151.788,433.188 152.413,436.563 152.413,452.188 152.413,459.75 151.475,468.5 150.975,473.438 150.725,475.688 150.538,477.438 150.538,477.5 M126.913,441.063 Q126.913,445.375 126.163,448.75 L126.163,449.375" test="RonaldFace"/>
        <path id="Layer1_0_1_STROKES" stroke="#FFF" stroke-width="2.5" stroke-linejoin="round" stroke-linecap="round" fill="none" d="M76.038,204 Q77.725,209.813 76.413,215.563 75.85,217.875 75.413,220.25 M-10.212,217.125 Q-7.087,224.938 -9.15,233.125 -9.525,234.688 -9.837,236.25 M44.163,317 Q38.85,318.875 33.975,322.438 33.538,322.625 33.225,322.938" test="RonaldFace"/>
      </g>
    </g>
  </g>
</svg>