<?xml version="1.0" encoding="utf-8"?>
<svg id="EdithAnim08" image-rendering="inherit" baseProfile="basic" version="1.1" x="0px" y="0px" width="800" height="600" xmlns="http://www.w3.org/2000/svg" xmlns:xlink="http://www.w3.org/1999/xlink">
  <g id="Ronaldf20r1" overflow="visible">
    <g id="Ronaldf0r1">
      <g id="RonaldFacef0r1">
        <path id="Layer2_0_1_STROKES" stroke="#F00" stroke-width="2.372" stroke-linejoin="round" stroke-linecap="round" fill="none" d="M159.636,266.523 Q160.941,270.14 165.744,271.859 170.547,273.638 179.916,273.638 193.022,273.638 195.394,272.334 196.165,271.919 197.766,270.674 199.782,269.428 203.636,268.302 207.076,267.293 208.38,263.735 209.567,260.355 209.567,252.587 209.567,251.401 206.898,248.436 204.229,245.412 204.229,244.581 204.229,241.913 206.898,237.881 209.567,233.848 209.567,229.46 209.567,227.444 206.305,221.336 203.044,215.287 203.044,214.931 203.044,211.551 207.491,207.46 211.938,203.368 211.938,200.996 211.938,198.328 206.602,191.034 201.265,183.799 201.265,183.503 204.229,167.314 204.229,164.527 204.229,159.189 202.095,156.462 201.324,155.513 197.41,152.785 190.591,147.982 190.591,134.283 190.591,130.903 187.744,127.523 184.601,123.787 179.324,121.83 176.833,121 176.121,120.822 175.172,120.467 174.876,119.696 174.461,115.841 173.394,108.784 172.089,99.83 164.676,95.146 158.153,90.994 148.487,90.994 148.132,90.994 142.024,92.477 135.916,93.959 135.145,93.959 131.587,93.959 125.301,90.994 118.956,88.029 110.773,88.029 108.994,88.029 104.783,90.698 100.573,93.366 99.802,93.366 94.702,93.366 85.867,88.029 76.972,82.693 72.228,82.693 66.891,82.693 63.451,84.175 60.071,85.658 57.699,85.658 57.581,85.658 47.915,82.989 38.308,80.32 32.793,80.32 31.548,80.32 21.23,89.868 10.141,100.067 3.736,102.261 -17.671,109.496 -21.407,119.814 -22.771,123.491 -22.415,129.362 -22.237,132.623 -21.763,139.621 -21.763,141.103 -24.906,143.119 -29.294,145.61 -31.844,147.211 -41.925,153.615 -41.925,162.154 -41.925,162.925 -41.332,165.594 -40.739,168.262 -40.739,168.974 -40.739,170.872 -44.06,174.252 -46.076,176.327 -51.413,181.13 -62.087,191.212 -62.087,198.92 -62.087,204.613 -55.267,207.993 -51.413,209.832 -50.583,210.484 -48.448,212.085 -48.448,214.338 -48.448,214.931 -52.006,221.573 -55.564,228.155 -55.564,231.832 -55.564,235.864 -52.006,239.363 -48.448,242.862 -48.448,244.878 -48.448,247.962 -50.227,252.113 -52.006,256.204 -52.006,257.924 -52.006,261.245 -50.227,262.371 -49.159,263.024 -46.372,263.735 -40.739,266.048 -40.739,279.569 M-40.146,276.604 Q-33.564,279.213 -32.674,279.509 -30.539,280.162 -27.693,280.162 -16.367,280.162 -14.172,272.512 -13.401,269.843 -13.105,264.032 -12.69,256.56 -12.275,253.477 -12.334,249.859 -12.216,247.369 -12.038,242.743 -10.496,241.616 -6.879,238.948 -2.55,231.476 1.127,225.25 1.957,222.047 3.736,215.169 5.515,211.848 8.895,205.443 15.596,201.292 19.747,198.683 21.348,193.346 22.594,189.432 22.119,185.874 24.728,179.589 25.914,177.691 28.286,174.133 32.793,171.642 36.292,169.686 39.316,164.942 41.866,160.968 43.171,160.968 43.289,160.968 48.152,163.933 53.37,166.898 55.327,166.898 60.249,166.898 64.756,165.416 69.263,163.933 75.193,163.933 79.818,163.933 85.748,166.009 91.619,168.085 93.576,168.085 98.32,168.085 107.155,164.823 115.991,161.561 121.743,161.561 129.037,161.561 131.35,163.281 132.832,164.408 133.129,167.788 133.425,171.88 134.671,174.074 134.849,174.37 135.026,174.608 135.145,174.785 135.264,174.904 137.754,178.343 143.743,181.13 140.956,183.443 140.304,184.451 139.593,185.459 139.593,187.357 139.593,191.449 144.692,194.236 147.835,196.015 156.789,199.513 153.291,203.012 147.479,207.282 144.93,209.12 144.93,211.67 144.93,220.269 156.078,226.139 161.652,229.045 167.464,230.349 L165.981,239.126 Q164.498,248.08 164.498,249.325 164.498,255.433 161.83,258.695 159.162,261.956 159.162,263.558 159.162,265.159 159.636,266.523 M41.095,287.278 Q35.106,288.226 33.92,290.361 33.386,291.251 33.386,296.766 33.386,302.221 38.071,314.496 44.238,330.922 44.653,332.405 47.796,343.612 57.936,348.06 65.527,351.381 79.047,351.381 92.864,351.381 106.266,348.831 123.997,345.391 129.452,338.928 131.765,336.2 132.832,325.941 133.603,314.378 134.255,310.405 135.145,305.542 137.813,295.757 139.593,289.294 139.593,283.423 139.593,280.102 134.849,278.975 132.358,278.383 127.377,278.383 122.692,278.383 117.296,280.043 116.703,280.221 107.155,283.72 92.568,289.057 77.268,289.057 69.144,289.057 58.114,287.574 47.144,286.092 42.874,286.092 M193.259,408.665 Q183.89,404.158 165.981,404.158 149.496,404.158 136.628,413.646 121.15,425.091 121.15,445.075 121.15,464.229 142.558,470.574 152.639,473.539 171.615,473.539 190.116,473.539 200.671,467.609 213.124,460.611 213.124,445.964 213.124,436.713 209.211,429.182 207.254,425.387 204.941,423.43 202.925,413.349 193.259,408.665Z" test="RonaldFace"/>
        <path id="Layer2_0_2_STROKES" stroke="#FFF" stroke-width="2.372" stroke-linejoin="round" stroke-linecap="round" fill="none" d="M159.636,266.523 L159.814,265.989 M131.113,175.319 Q127.851,176.268 120.557,178.581 107.808,182.672 106.918,182.909 100.039,185.104 96.719,191.212 93.576,197.082 94.465,204.85 M80.886,235.212 Q76.912,237.169 73.947,241.083 71.338,244.463 67.187,245.174 62.74,245.886 60.961,249.622 59.478,252.765 59.478,259.11 59.478,267.116 67.484,267.116 71.101,267.116 73.058,265.692 75.371,264.032 80.233,263.558 84.918,263.083 94.762,264.15 101.7,264.15 105.139,262.965 109.883,261.423 109.883,257.331 109.883,251.935 98.794,243.633 88.654,235.983 80.886,235.212Z M-12.808,276.07 Q6.879,290.183 14.114,311.59 15.656,316.097 15.181,321.078 13.699,337.149 21.585,349.661 L34.631,358.556 Q46.491,370.06 63.689,371.187 107.808,374.093 142.558,350.432 147.776,346.874 149.674,340.588 155.01,322.917 152.876,304 151.453,291.191 154.418,279.628 154.951,277.612 156.256,276.07 L159.636,266.523 M66.594,204.85 Q64.104,198.446 61.02,194.532 57.936,190.618 53.548,188.246 48.33,185.341 47.322,185.044 46.136,184.688 41.095,184.688 31.133,184.688 25.144,192.16 20.459,197.972 18.561,207.816 M58.292,371.543 Q62.621,377.117 63.273,385.241 63.57,389.392 63.036,392.891 M118.185,365.613 Q117.592,369.171 117.592,373.618 117.592,379.785 119.312,381.742 123.048,386.071 124.115,388.147" test="RonaldFace"/>
        <path id="Layer2_0_3_STROKES" stroke="#F0C" stroke-width="2.372" stroke-linejoin="round" stroke-linecap="round" fill="none" d="M131.113,175.319 Q133.366,174.608 133.603,174.608 L135.026,174.608 M135.264,174.904 Q134.789,175.023 134.137,175.2 131.884,175.794 131.113,175.319" test="RonaldFace"/>
        <path id="Layer2_0_4_STROKES" stroke="#F0F" stroke-width="2.372" stroke-linejoin="round" stroke-linecap="round" fill="none" d="M124.115,388.147 L124.115,386.961" test="RonaldFace"/>
        <path id="Layer2_0_5_STROKES" stroke="#FF0" stroke-width="2.372" stroke-linejoin="round" stroke-linecap="round" fill="none" d="M265.368,431.851 Q256.829,427.226 246.926,422.482 204.229,401.904 152.046,385.775 L147.835,385.775 Q147.895,386.605 147.895,387.554 147.895,393.602 136.509,396.805 119.846,400.363 109.29,403.565 105.021,404.81 89.84,406.826 74.007,408.902 67.187,408.902 53.963,408.902 47.618,405.937 41.095,402.912 41.095,396.449 41.095,390.4 49.575,386.724 58.945,383.877 60.664,382.81 M23.898,395.263 Q-1.067,402.912 -11.623,406.945 -30.836,414.357 -41.332,422.541 -48.211,427.878 -60.486,440.627 -66.534,446.913 -72.168,452.784 M118.778,377.473 L138.407,377.473 Q147.124,376.346 147.835,385.775 L146.709,385.775 M139.593,453.97 Q139.652,453.673 139.652,453.377 141.549,437.069 146.234,426.632 152.283,413.053 161.83,413.053 166.1,413.053 167.226,423.667 167.641,427.403 167.582,430.665 168.59,425.862 170.962,421.829 175.41,414.239 182.289,414.239 189.464,414.239 191.183,423.193 191.777,426.395 191.777,441.22 191.777,448.396 190.887,456.698 190.413,461.382 190.175,463.517 189.998,465.178 189.998,465.237 M167.582,430.665 Q167.582,434.757 166.871,437.959 L166.871,438.552" test="RonaldFace"/>
        <path id="Layer1_0_1_STROKES" stroke="#FFF" stroke-width="2.372" stroke-linejoin="round" stroke-linecap="round" fill="none" d="M119.312,205.74 Q120.913,211.255 119.668,216.71 119.134,218.905 118.719,221.158 M37.478,218.193 Q40.443,225.605 38.486,233.374 38.13,234.856 37.834,236.339 M89.069,312.954 Q84.028,314.733 79.403,318.114 78.988,318.291 78.691,318.588" test="RonaldFace"/>
      </g>
    </g>
  </g>
</svg>