<?xml version="1.0" encoding="utf-8"?>
<svg id="EdithAnim08" image-rendering="inherit" baseProfile="basic" version="1.1" x="0px" y="0px" width="800" height="600" xmlns="http://www.w3.org/2000/svg" xmlns:xlink="http://www.w3.org/1999/xlink">
  <g id="Ronaldf22r1" overflow="visible">
    <g id="Ronaldf0r1">
      <g id="RonaldFacef0r1">
        <path id="Layer2_0_1_STROKES" stroke="#F00" stroke-width="2.296" stroke-linejoin="round" stroke-linecap="round" fill="none" d="M183.916,265.655 Q185.179,269.156 189.828,270.821 194.478,272.543 203.547,272.543 216.232,272.543 218.528,271.28 219.275,270.878 220.824,269.673 222.776,268.468 226.507,267.377 229.836,266.401 231.099,262.957 232.247,259.685 232.247,252.166 232.247,251.018 229.664,248.148 227.081,245.221 227.081,244.417 227.081,241.834 229.664,237.931 232.247,234.028 232.247,229.78 232.247,227.828 229.09,221.916 225.933,216.061 225.933,215.717 225.933,212.445 230.238,208.485 234.543,204.524 234.543,202.228 234.543,199.645 229.377,192.585 224.211,185.582 224.211,185.295 227.081,169.625 227.081,166.927 227.081,161.761 225.015,159.121 224.268,158.202 220.48,155.562 213.879,150.912 213.879,137.653 213.879,134.381 211.124,131.109 208.082,127.493 202.973,125.599 200.562,124.795 199.873,124.623 198.955,124.279 198.668,123.533 198.266,119.802 197.233,112.971 195.97,104.304 188.795,99.769 182.481,95.751 173.125,95.751 172.781,95.751 166.868,97.186 160.956,98.621 160.21,98.621 156.766,98.621 150.682,95.751 144.54,92.881 136.619,92.881 134.897,92.881 130.821,95.464 126.746,98.047 126,98.047 121.063,98.047 112.511,92.881 103.901,87.715 99.309,87.715 94.143,87.715 90.813,89.15 87.542,90.585 85.246,90.585 85.131,90.585 75.775,88.002 66.476,85.419 61.138,85.419 59.932,85.419 49.945,94.66 39.211,104.533 33.012,106.657 12.29,113.66 8.674,123.647 7.354,127.206 7.698,132.889 7.87,136.046 8.33,142.819 8.33,144.254 5.287,146.206 1.04,148.616 -1.428,150.166 -11.186,156.365 -11.186,164.631 -11.186,165.377 -10.612,167.96 -10.038,170.543 -10.038,171.232 -10.038,173.069 -13.253,176.341 -15.204,178.35 -20.37,182 -30.702,192.757 -30.702,200.219 -30.702,205.729 -24.101,209.001 -20.37,210.781 -19.567,211.412 -17.5,212.962 -17.5,215.143 -17.5,215.717 -20.944,222.146 -24.388,228.517 -24.388,232.076 -24.388,235.979 -20.944,239.366 -17.5,242.752 -17.5,244.704 -17.5,247.689 -19.222,251.707 -20.944,255.667 -20.944,257.332 -20.944,260.546 -19.222,261.637 -18.189,262.268 -15.491,262.957 -10.038,265.196 -10.038,278.283 M-9.464,275.413 Q-3.093,277.939 -2.232,278.226 -.166,278.857 2.59,278.857 13.553,278.857 15.677,271.452 16.423,268.869 16.71,263.244 17.112,256.012 17.514,253.027 17.456,249.526 17.571,247.115 17.743,242.638 19.236,241.547 22.737,238.964 26.927,231.732 30.486,225.705 31.29,222.605 33.012,215.947 34.734,212.732 38.005,206.533 44.492,202.515 48.51,199.989 50.059,194.823 51.265,191.035 50.806,187.591 53.331,181.507 54.479,179.67 56.775,176.226 61.138,173.815 64.524,171.921 67.452,167.329 69.92,163.483 71.183,163.483 71.297,163.483 76.004,166.353 81.055,169.223 82.95,169.223 87.714,169.223 92.076,167.788 96.439,166.353 102.179,166.353 106.656,166.353 112.396,168.362 118.078,170.371 119.973,170.371 124.565,170.371 133.117,167.214 141.67,164.057 147.238,164.057 154.298,164.057 156.536,165.722 157.971,166.812 158.258,170.084 158.545,174.045 159.751,176.168 159.923,176.455 160.095,176.685 160.21,176.857 160.325,176.972 162.736,180.301 168.533,182 165.835,185.238 165.204,186.213 164.515,187.189 164.515,189.026 164.515,192.987 169.451,195.684 172.494,197.406 181.161,200.793 177.774,204.18 172.149,208.312 169.681,210.092 169.681,212.56 169.681,220.883 180.472,226.566 185.868,229.378 191.493,230.641 L190.058,239.136 Q188.623,247.804 188.623,249.009 188.623,254.921 186.04,258.078 183.457,261.235 183.457,262.785 183.457,264.335 183.916,265.655 M69.174,285.745 Q63.376,286.663 62.228,288.73 61.712,289.591 61.712,294.929 61.712,300.21 66.246,312.092 72.216,327.991 72.618,329.426 75.66,340.275 85.475,344.58 92.822,347.794 105.91,347.794 119.284,347.794 132.256,345.326 149.419,341.997 154.7,335.74 156.938,333.1 157.971,323.17 158.718,311.977 159.349,308.131 160.21,303.424 162.793,293.953 164.515,287.697 164.515,282.014 164.515,278.8 159.923,277.709 157.512,277.135 152.691,277.135 148.156,277.135 142.933,278.742 142.359,278.914 133.117,282.301 118.997,287.467 104.188,287.467 96.324,287.467 85.647,286.032 75.028,284.597 70.896,284.597 M216.462,403.243 Q207.393,398.88 190.058,398.88 174.101,398.88 161.645,408.064 146.664,419.143 146.664,438.486 146.664,457.027 167.385,463.168 177.143,466.038 195.511,466.038 213.42,466.038 223.637,460.298 235.691,453.525 235.691,439.347 235.691,430.393 231.903,423.103 230.008,419.43 227.77,417.535 225.818,407.777 216.462,403.243Z" test="RonaldFace"/>
        <path id="Layer2_0_2_STROKES" stroke="#FFF" stroke-width="2.296" stroke-linejoin="round" stroke-linecap="round" fill="none" d="M183.916,265.655 L184.088,265.138 M156.307,177.374 Q153.15,178.292 146.09,180.531 133.749,184.491 132.888,184.721 126.229,186.845 123.015,192.757 119.973,198.44 120.834,205.959 M107.689,235.348 Q103.843,237.242 100.973,241.03 98.448,244.302 94.43,244.991 90.125,245.68 88.403,249.296 86.968,252.338 86.968,258.48 86.968,266.229 94.717,266.229 98.218,266.229 100.112,264.851 102.351,263.244 107.058,262.785 111.592,262.326 121.121,263.359 127.836,263.359 131.166,262.211 135.758,260.719 135.758,256.758 135.758,251.535 125.024,243.499 115.208,236.094 107.689,235.348Z M16.997,274.896 Q36.054,288.558 43.057,309.279 44.549,313.641 44.09,318.463 42.655,334.018 50.289,346.13 L62.917,354.74 Q74.397,365.875 91.043,366.966 133.749,369.779 167.385,346.876 172.436,343.432 174.273,337.348 179.439,320.242 177.373,301.932 175.995,289.533 178.865,278.34 179.382,276.389 180.644,274.896 L183.916,265.655 M93.856,205.959 Q91.445,199.76 88.46,195.971 85.475,192.183 81.228,189.887 76.176,187.074 75.201,186.787 74.053,186.443 69.174,186.443 59.53,186.443 53.733,193.675 49.198,199.301 47.362,208.829 M85.82,367.31 Q90.01,372.706 90.641,380.57 90.928,384.588 90.412,387.974 M143.794,361.57 Q143.22,365.014 143.22,369.319 143.22,375.289 144.884,377.183 148.5,381.373 149.534,383.382" test="RonaldFace"/>
        <path id="Layer2_0_3_STROKES" stroke="#F0C" stroke-width="2.296" stroke-linejoin="round" stroke-linecap="round" fill="none" d="M156.307,177.374 Q158.488,176.685 158.718,176.685 L160.095,176.685 M160.325,176.972 Q159.866,177.087 159.234,177.259 157.053,177.833 156.307,177.374" test="RonaldFace"/>
        <path id="Layer2_0_4_STROKES" stroke="#F0F" stroke-width="2.296" stroke-linejoin="round" stroke-linecap="round" fill="none" d="M149.534,383.382 L149.534,382.234" test="RonaldFace"/>
        <path id="Layer2_0_5_STROKES" stroke="#FF0" stroke-width="2.296" stroke-linejoin="round" stroke-linecap="round" fill="none" d="M286.26,425.686 Q277.995,421.209 268.409,416.617 227.081,396.699 176.569,381.086 L172.494,381.086 Q172.551,381.89 172.551,382.808 172.551,388.663 161.53,391.763 145.401,395.207 135.184,398.306 131.051,399.512 116.356,401.463 101.031,403.472 94.43,403.472 81.629,403.472 75.488,400.602 69.174,397.675 69.174,391.418 69.174,385.564 77.382,382.005 86.451,379.25 88.116,378.216 M52.528,390.27 Q28.362,397.675 18.145,401.578 -.453,408.753 -10.612,416.674 -17.271,421.84 -29.153,434.181 -35.007,440.266 -40.46,445.948 M144.368,373.05 L163.367,373.05 Q171.805,371.96 172.494,381.086 L171.403,381.086 M164.515,447.096 Q164.572,446.809 164.572,446.522 166.409,430.737 170.944,420.635 176.799,407.49 186.04,407.49 190.173,407.49 191.263,417.765 191.665,421.381 191.608,424.538 192.584,419.889 194.88,415.986 199.185,408.638 205.843,408.638 212.788,408.638 214.453,417.306 215.027,420.405 215.027,434.755 215.027,441.701 214.166,449.737 213.707,454.271 213.477,456.338 213.305,457.945 213.305,458.002 M191.608,424.538 Q191.608,428.499 190.919,431.598 L190.919,432.172" test="RonaldFace"/>
        <path id="Layer1_0_1_STROKES" stroke="#FFF" stroke-width="2.296" stroke-linejoin="round" stroke-linecap="round" fill="none" d="M144.884,206.82 Q146.434,212.158 145.229,217.439 144.712,219.563 144.31,221.744 M65.672,218.874 Q68.542,226.049 66.648,233.568 66.304,235.003 66.017,236.438 M115.61,310.599 Q110.731,312.321 106.254,315.593 105.852,315.765 105.565,316.052" test="RonaldFace"/>
      </g>
    </g>
  </g>
</svg>