<?xml version="1.0" encoding="utf-8"?>
<svg id="EdithAnim08" image-rendering="inherit" baseProfile="basic" version="1.1" x="0px" y="0px" width="800" height="600" xmlns="http://www.w3.org/2000/svg" xmlns:xlink="http://www.w3.org/1999/xlink">
  <g id="Ronaldf24r1" overflow="visible">
    <g id="Ronaldf0r1">
      <g id="RonaldFacef0r1">
        <path id="Layer2_0_1_STROKES" stroke="#F00" stroke-width="2.228" stroke-linejoin="round" stroke-linecap="round" fill="none" d="M205.609,264.953 Q206.835,268.35 211.346,269.965 215.858,271.637 224.659,271.637 236.968,271.637 239.196,270.411 239.92,270.021 241.424,268.852 243.318,267.682 246.939,266.624 250.169,265.677 251.395,262.335 252.509,259.16 252.509,251.863 252.509,250.749 250.002,247.964 247.496,245.123 247.496,244.343 247.496,241.837 250.002,238.049 252.509,234.262 252.509,230.14 252.509,228.246 249.445,222.509 246.382,216.828 246.382,216.493 246.382,213.319 250.559,209.475 254.737,205.632 254.737,203.404 254.737,200.897 249.724,194.046 244.711,187.251 244.711,186.972 247.496,171.766 247.496,169.148 247.496,164.135 245.49,161.573 244.766,160.682 241.09,158.12 234.685,153.608 234.685,140.741 234.685,137.567 232.011,134.392 229.059,130.883 224.102,129.044 221.762,128.265 221.094,128.098 220.203,127.763 219.924,127.039 219.534,123.419 218.532,116.79 217.306,108.38 210.344,103.979 204.217,100.08 195.138,100.08 194.803,100.08 189.066,101.473 183.329,102.865 182.605,102.865 179.263,102.865 173.359,100.08 167.399,97.295 159.712,97.295 158.041,97.295 154.087,99.802 150.132,102.308 149.408,102.308 144.618,102.308 136.318,97.295 127.963,92.282 123.507,92.282 118.494,92.282 115.264,93.675 112.089,95.067 109.861,95.067 109.749,95.067 100.67,92.561 91.647,90.054 86.467,90.054 85.297,90.054 75.605,99.022 65.189,108.603 59.174,110.663 39.066,117.459 35.557,127.151 34.276,130.604 34.61,136.118 34.777,139.182 35.223,145.754 35.223,147.147 32.271,149.041 28.149,151.38 25.754,152.884 16.285,158.9 16.285,166.92 16.285,167.645 16.842,170.151 17.399,172.658 17.399,173.326 17.399,175.108 14.28,178.283 12.386,180.233 7.373,184.744 -2.653,194.213 -2.653,201.455 -2.653,206.802 3.752,209.977 7.373,211.703 8.153,212.316 10.158,213.82 10.158,215.936 10.158,216.493 6.816,222.732 3.474,228.915 3.474,232.368 3.474,236.156 6.816,239.442 10.158,242.728 10.158,244.622 10.158,247.518 8.487,251.417 6.816,255.261 6.816,256.876 6.816,259.995 8.487,261.054 9.489,261.666 12.107,262.335 17.399,264.507 17.399,277.207 M17.956,274.422 Q24.138,276.872 24.974,277.151 26.979,277.763 29.653,277.763 40.292,277.763 42.352,270.578 43.076,268.072 43.355,262.613 43.745,255.595 44.135,252.699 44.079,249.301 44.191,246.961 44.358,242.617 45.806,241.558 49.203,239.052 53.27,232.034 56.723,226.185 57.503,223.177 59.174,216.716 60.845,213.597 64.02,207.581 70.314,203.682 74.213,201.232 75.717,196.219 76.886,192.542 76.441,189.2 78.892,183.296 80.006,181.514 82.234,178.172 86.467,175.832 89.753,173.994 92.594,169.538 94.989,165.806 96.214,165.806 96.326,165.806 100.893,168.592 105.795,171.376 107.633,171.376 112.256,171.376 116.489,169.984 120.722,168.592 126.292,168.592 130.637,168.592 136.207,170.541 141.721,172.491 143.559,172.491 148.015,172.491 156.315,169.427 164.614,166.364 170.017,166.364 176.868,166.364 179.04,167.979 180.433,169.037 180.711,172.212 180.99,176.055 182.159,178.116 182.327,178.395 182.494,178.617 182.605,178.785 182.716,178.896 185.056,182.127 190.682,184.744 188.064,186.917 187.451,187.864 186.783,188.811 186.783,190.593 186.783,194.436 191.573,197.054 194.525,198.725 202.936,202.011 199.649,205.298 194.191,209.308 191.796,211.035 191.796,213.43 191.796,221.507 202.267,227.021 207.503,229.75 212.962,230.975 L211.569,239.219 Q210.177,247.63 210.177,248.8 210.177,254.537 207.67,257.6 205.164,260.664 205.164,262.167 205.164,263.671 205.609,264.953 M94.265,284.448 Q88.639,285.339 87.525,287.344 87.024,288.179 87.024,293.359 87.024,298.484 91.424,310.014 97.217,325.443 97.607,326.835 100.559,337.363 110.084,341.54 117.213,344.659 129.913,344.659 142.891,344.659 155.479,342.264 172.133,339.034 177.258,332.962 179.43,330.4 180.433,320.764 181.157,309.902 181.77,306.171 182.605,301.603 185.112,292.413 186.783,286.341 186.783,280.827 186.783,277.708 182.327,276.65 179.987,276.093 175.308,276.093 170.908,276.093 165.839,277.652 165.282,277.819 156.315,281.106 142.612,286.119 128.242,286.119 120.611,286.119 110.251,284.726 99.946,283.334 95.936,283.334 M237.191,398.465 Q228.39,394.232 211.569,394.232 196.084,394.232 183.998,403.144 169.46,413.894 169.46,432.665 169.46,450.656 189.568,456.616 199.037,459.401 216.861,459.401 234.239,459.401 244.154,453.831 255.851,447.259 255.851,433.501 255.851,424.812 252.174,417.738 250.336,414.173 248.164,412.335 246.27,402.866 237.191,398.465Z" test="RonaldFace"/>
        <path id="Layer2_0_2_STROKES" stroke="#FFF" stroke-width="2.228" stroke-linejoin="round" stroke-linecap="round" fill="none" d="M205.609,264.953 L205.776,264.451 M178.817,179.286 Q175.754,180.177 168.903,182.349 156.927,186.193 156.092,186.415 149.631,188.476 146.511,194.213 143.559,199.728 144.395,207.025 M131.64,235.543 Q127.908,237.381 125.123,241.057 122.672,244.232 118.773,244.901 114.595,245.569 112.924,249.078 111.532,252.03 111.532,257.99 111.532,265.51 119.051,265.51 122.449,265.51 124.287,264.173 126.459,262.613 131.027,262.167 135.427,261.722 144.673,262.725 151.19,262.725 154.421,261.611 158.877,260.162 158.877,256.319 158.877,251.25 148.461,243.452 138.936,236.267 131.64,235.543Z M43.634,273.92 Q62.126,287.177 68.921,307.285 70.37,311.518 69.924,316.197 68.531,331.291 75.94,343.044 L88.194,351.399 Q99.334,362.205 115.487,363.263 156.927,365.992 189.568,343.768 194.469,340.426 196.252,334.522 201.265,317.923 199.259,300.155 197.923,288.124 200.708,277.262 201.209,275.368 202.434,273.92 L205.609,264.953 M118.216,207.025 Q115.876,201.009 112.98,197.333 110.084,193.657 105.962,191.429 101.06,188.699 100.113,188.421 98,188.087 94.265,188.087 84.907,188.087 79.282,195.105 74.881,200.563 73.099,209.81 M110.418,363.597 Q114.484,368.833 115.097,376.464 115.375,380.363 114.874,383.649 M166.675,358.027 Q166.118,361.369 166.118,365.547 166.118,371.34 167.733,373.178 171.242,377.244 172.245,379.193" test="RonaldFace"/>
        <path id="Layer2_0_3_STROKES" stroke="#F0C" stroke-width="2.228" stroke-linejoin="round" stroke-linecap="round" fill="none" d="M178.817,179.286 Q180.934,178.617 181.157,178.617 L182.494,178.617 M182.716,178.896 Q182.271,179.007 181.658,179.174 179.542,179.731 178.817,179.286" test="RonaldFace"/>
        <path id="Layer2_0_4_STROKES" stroke="#F0F" stroke-width="2.228" stroke-linejoin="round" stroke-linecap="round" fill="none" d="M172.245,379.193 L172.245,378.079" test="RonaldFace"/>
        <path id="Layer2_0_5_STROKES" stroke="#FF0" stroke-width="2.228" stroke-linejoin="round" stroke-linecap="round" fill="none" d="M304.922,420.244 Q296.901,415.9 287.6,411.444 247.496,392.116 198.48,376.965 L194.525,376.965 Q194.581,377.745 194.581,378.636 194.581,384.318 183.886,387.325 168.234,390.667 158.32,393.675 154.309,394.845 140.05,396.739 125.178,398.688 118.773,398.688 106.352,398.688 100.392,395.903 94.265,393.063 94.265,386.991 94.265,381.31 102.23,377.856 111.031,375.183 112.646,374.18 M78.112,385.877 Q54.662,393.063 44.748,396.85 26.701,403.813 16.842,411.499 10.381,416.512 -1.149,428.488 -6.831,434.392 -12.122,439.906 M167.232,369.167 L185.669,369.167 Q193.856,368.109 194.525,376.965 L193.467,376.965 M186.783,441.02 Q186.838,440.742 186.838,440.463 188.621,425.146 193.021,415.343 198.702,402.587 207.67,402.587 211.68,402.587 212.739,412.558 213.129,416.067 213.073,419.13 214.02,414.618 216.248,410.831 220.425,403.701 226.887,403.701 233.626,403.701 235.242,412.112 235.799,415.12 235.799,429.045 235.799,435.784 234.963,443.582 234.517,447.983 234.295,449.988 234.128,451.548 234.128,451.603 M213.073,419.13 Q213.073,422.973 212.405,425.981 L212.405,426.538" test="RonaldFace"/>
        <path id="Layer1_0_1_STROKES" stroke="#FFF" stroke-width="2.228" stroke-linejoin="round" stroke-linecap="round" fill="none" d="M167.733,207.86 Q169.237,213.04 168.067,218.164 167.566,220.225 167.176,222.342 M90.867,219.557 Q93.652,226.52 91.814,233.816 91.48,235.209 91.201,236.601 M139.326,308.566 Q134.592,310.237 130.247,313.412 129.857,313.579 129.579,313.857" test="RonaldFace"/>
      </g>
    </g>
  </g>
</svg>