<?xml version="1.0" encoding="utf-8"?>
<svg id="EdithAnim08" image-rendering="inherit" baseProfile="basic" version="1.1" x="0px" y="0px" width="800" height="600" xmlns="http://www.w3.org/2000/svg" xmlns:xlink="http://www.w3.org/1999/xlink">
  <g id="Ronaldf25r1" overflow="visible">
    <g id="Ronaldf0r1">
      <g id="RonaldFacef0r1">
        <path id="Layer2_0_1_STROKES" stroke="#F00" stroke-width="2.198" stroke-linejoin="round" stroke-linecap="round" fill="none" d="M215.462,264.584 Q216.671,267.936 221.122,269.529 225.573,271.178 234.255,271.178 246.399,271.178 248.597,269.969 249.311,269.584 250.795,268.43 252.663,267.276 256.235,266.232 259.422,265.298 260.631,262.001 261.73,258.869 261.73,251.671 261.73,250.572 259.257,247.824 256.784,245.022 256.784,244.252 256.784,241.779 259.257,238.043 261.73,234.306 261.73,230.24 261.73,228.372 258.707,222.712 255.685,217.107 255.685,216.777 255.685,213.645 259.807,209.854 263.928,206.062 263.928,203.864 263.928,201.391 258.982,194.632 254.037,187.929 254.037,187.654 256.784,172.652 256.784,170.07 256.784,165.124 254.806,162.597 254.092,161.717 250.465,159.19 244.146,154.739 244.146,142.045 244.146,138.913 241.508,135.781 238.596,132.319 233.705,130.506 231.397,129.736 230.738,129.572 229.859,129.242 229.584,128.528 229.199,124.956 228.21,118.417 227.001,110.119 220.133,105.778 214.088,101.932 205.131,101.932 204.802,101.932 199.142,103.306 193.482,104.679 192.768,104.679 189.471,104.679 183.646,101.932 177.766,99.184 170.183,99.184 168.535,99.184 164.633,101.657 160.732,104.13 160.017,104.13 155.292,104.13 147.104,99.184 138.862,94.239 134.466,94.239 129.52,94.239 126.333,95.612 123.201,96.986 121.003,96.986 120.893,96.986 111.936,94.514 103.034,92.041 97.924,92.041 96.77,92.041 87.209,100.888 76.933,110.339 70.998,112.372 51.161,119.076 47.7,128.637 46.436,132.044 46.765,137.484 46.93,140.507 47.37,146.991 47.37,148.365 44.457,150.233 40.391,152.541 38.028,154.024 28.687,159.959 28.687,167.872 28.687,168.586 29.236,171.059 29.786,173.532 29.786,174.191 29.786,175.949 26.709,179.082 24.84,181.005 19.895,185.456 10.004,194.797 10.004,201.941 10.004,207.216 16.323,210.348 19.895,212.052 20.664,212.656 22.642,214.14 22.642,216.228 22.642,216.777 19.345,222.932 16.048,229.031 16.048,232.438 16.048,236.175 19.345,239.417 22.642,242.659 22.642,244.527 22.642,247.384 20.994,251.231 19.345,255.022 19.345,256.616 19.345,259.693 20.994,260.737 21.983,261.342 24.566,262.001 29.786,264.144 29.786,276.673 M30.335,273.925 Q36.435,276.343 37.259,276.618 39.237,277.222 41.875,277.222 52.37,277.222 54.403,270.134 55.118,267.661 55.393,262.276 55.777,255.352 56.162,252.495 56.107,249.143 56.217,246.835 56.382,242.549 57.81,241.505 61.162,239.032 65.174,232.108 68.581,226.339 69.35,223.371 70.998,216.997 72.647,213.92 75.779,207.985 81.988,204.139 85.835,201.721 87.318,196.775 88.472,193.149 88.033,189.852 90.451,184.027 91.55,182.269 93.748,178.972 97.924,176.664 101.166,174.85 103.968,170.454 106.331,166.773 107.54,166.773 107.65,166.773 112.156,169.52 116.991,172.268 118.805,172.268 123.366,172.268 127.542,170.894 131.718,169.52 137.213,169.52 141.499,169.52 146.994,171.443 152.434,173.367 154.248,173.367 158.644,173.367 166.831,170.344 175.019,167.322 180.349,167.322 187.108,167.322 189.251,168.916 190.624,169.96 190.899,173.092 191.174,176.884 192.328,178.917 192.493,179.191 192.658,179.411 192.768,179.576 192.877,179.686 195.185,182.873 200.735,185.456 198.153,187.599 197.548,188.533 196.889,189.467 196.889,191.226 196.889,195.017 201.614,197.6 204.527,199.248 212.824,202.49 209.582,205.732 204.197,209.689 201.834,211.392 201.834,213.755 201.834,221.723 212.165,227.163 217.33,229.855 222.715,231.064 L221.342,239.197 Q219.968,247.494 219.968,248.648 219.968,254.308 217.495,257.33 215.022,260.353 215.022,261.836 215.022,263.32 215.462,264.584 M105.617,283.816 Q100.067,284.695 98.968,286.674 98.473,287.498 98.473,292.608 98.473,297.664 102.814,309.038 108.529,324.259 108.914,325.633 111.826,336.019 121.223,340.14 128.256,343.217 140.785,343.217 153.588,343.217 166.007,340.854 182.437,337.667 187.492,331.678 189.635,329.15 190.624,319.644 191.339,308.928 191.943,305.247 192.768,300.741 195.24,291.674 196.889,285.685 196.889,280.245 196.889,277.167 192.493,276.123 190.185,275.574 185.569,275.574 181.228,275.574 176.228,277.112 175.678,277.277 166.831,280.519 153.313,285.465 139.136,285.465 131.608,285.465 121.387,284.091 111.222,282.717 107.265,282.717 M246.619,396.299 Q237.936,392.123 221.342,392.123 206.065,392.123 194.141,400.915 179.799,411.52 179.799,430.038 179.799,447.787 199.636,453.667 208.978,456.414 226.562,456.414 243.706,456.414 253.487,450.919 265.027,444.435 265.027,430.862 265.027,422.29 261.4,415.312 259.587,411.795 257.444,409.981 255.575,400.64 246.619,396.299Z" test="RonaldFace"/>
        <path id="Layer2_0_2_STROKES" stroke="#FFF" stroke-width="2.198" stroke-linejoin="round" stroke-linecap="round" fill="none" d="M215.462,264.584 L215.627,264.089 M189.031,180.071 Q186.009,180.95 179.25,183.093 167.436,186.884 166.611,187.104 160.237,189.137 157.16,194.797 154.248,200.237 155.072,207.436 M142.488,235.57 Q138.807,237.384 136.059,241.01 133.641,244.142 129.795,244.802 125.674,245.461 124.025,248.923 122.651,251.835 122.651,257.715 122.651,265.133 130.07,265.133 133.422,265.133 135.235,263.814 137.378,262.276 141.884,261.836 146.225,261.397 155.347,262.386 161.776,262.386 164.963,261.287 169.359,259.858 169.359,256.067 169.359,251.066 159.083,243.373 149.687,236.284 142.488,235.57Z M55.667,273.431 Q73.911,286.509 80.615,306.346 82.043,310.522 81.604,315.138 80.23,330.029 87.538,341.624 L99.627,349.866 Q110.617,360.526 126.553,361.571 167.436,364.263 199.636,342.338 204.472,339.041 206.23,333.216 211.176,316.841 209.198,299.312 207.879,287.443 210.626,276.728 211.121,274.859 212.33,273.431 L215.462,264.584 M129.245,207.436 Q126.937,201.501 124.08,197.874 121.223,194.248 117.156,192.05 112.321,189.357 111.387,189.082 110.288,188.753 105.617,188.753 96.385,188.753 90.835,195.676 86.494,201.062 84.736,210.183 M121.552,361.9 Q125.564,367.066 126.168,374.594 126.443,378.44 125.948,381.682 M177.052,356.405 Q176.502,359.702 176.502,363.823 176.502,369.538 178.096,371.352 181.558,375.363 182.547,377.286" test="RonaldFace"/>
        <path id="Layer2_0_3_STROKES" stroke="#F0C" stroke-width="2.198" stroke-linejoin="round" stroke-linecap="round" fill="none" d="M189.031,180.071 Q191.119,179.411 191.339,179.411 L192.658,179.411 M192.877,179.686 Q192.438,179.796 191.833,179.961 189.745,180.51 189.031,180.071" test="RonaldFace"/>
        <path id="Layer2_0_4_STROKES" stroke="#F0F" stroke-width="2.198" stroke-linejoin="round" stroke-linecap="round" fill="none" d="M182.547,377.286 L182.547,376.187" test="RonaldFace"/>
        <path id="Layer2_0_5_STROKES" stroke="#FF0" stroke-width="2.198" stroke-linejoin="round" stroke-linecap="round" fill="none" d="M313.438,417.784 Q305.525,413.498 296.348,409.102 256.784,390.035 208.428,375.088 L204.527,375.088 Q204.582,375.857 204.582,376.737 204.582,382.342 194.031,385.309 178.59,388.606 168.809,391.573 164.853,392.727 150.786,394.595 136.114,396.519 129.795,396.519 117.541,396.519 111.661,393.771 105.617,390.969 105.617,384.979 105.617,379.374 113.475,375.967 122.157,373.33 123.75,372.341 M89.681,383.88 Q66.547,390.969 56.766,394.705 38.962,401.574 29.236,409.157 22.862,414.103 11.487,425.917 5.883,431.742 .662,437.182 M177.601,367.395 L195.79,367.395 Q203.867,366.351 204.527,375.088 L203.483,375.088 M196.889,438.281 Q196.944,438.006 196.944,437.731 198.702,422.62 203.043,412.949 208.648,400.365 217.495,400.365 221.451,400.365 222.495,410.201 222.88,413.663 222.825,416.685 223.759,412.234 225.957,408.498 230.079,401.464 236.453,401.464 243.102,401.464 244.695,409.762 245.245,412.729 245.245,426.466 245.245,433.115 244.421,440.808 243.981,445.149 243.761,447.128 243.596,448.666 243.596,448.721 M222.825,416.685 Q222.825,420.477 222.166,423.444 L222.166,423.994" test="RonaldFace"/>
        <path id="Layer1_0_1_STROKES" stroke="#FFF" stroke-width="2.198" stroke-linejoin="round" stroke-linecap="round" fill="none" d="M178.096,208.26 Q179.58,213.37 178.426,218.426 177.931,220.459 177.546,222.547 M102.265,219.8 Q105.012,226.668 103.199,233.867 102.869,235.24 102.595,236.614 M150.071,307.61 Q145.401,309.258 141.115,312.39 140.73,312.555 140.455,312.83" test="RonaldFace"/>
      </g>
    </g>
  </g>
</svg>