<?xml version="1.0" encoding="utf-8"?>
<svg id="EdithAnim08" image-rendering="inherit" baseProfile="basic" version="1.1" x="0px" y="0px" width="800" height="600" xmlns="http://www.w3.org/2000/svg" xmlns:xlink="http://www.w3.org/1999/xlink">
  <g id="Ronaldf26r1" overflow="visible">
    <g id="Ronaldf0r1">
      <g id="RonaldFacef0r1">
        <path id="Layer2_0_1_STROKES" stroke="#F00" stroke-width="2.17" stroke-linejoin="round" stroke-linecap="round" fill="none" d="M224.618,264.256 Q225.811,267.566 230.205,269.139 234.6,270.766 243.171,270.766 255.16,270.766 257.33,269.573 258.036,269.193 259.501,268.054 261.345,266.915 264.871,265.884 268.018,264.962 269.211,261.707 270.296,258.614 270.296,251.508 270.296,250.423 267.855,247.71 265.414,244.943 265.414,244.184 265.414,241.743 267.855,238.054 270.296,234.365 270.296,230.35 270.296,228.505 267.313,222.918 264.329,217.384 264.329,217.059 264.329,213.967 268.398,210.223 272.466,206.48 272.466,204.31 272.466,201.869 267.584,195.196 262.701,188.578 262.701,188.306 265.414,173.496 265.414,170.946 265.414,166.064 263.461,163.568 262.756,162.7 259.175,160.205 252.936,155.811 252.936,143.279 252.936,140.187 250.332,137.094 247.457,133.677 242.629,131.886 240.35,131.127 239.699,130.964 238.831,130.639 238.56,129.933 238.18,126.407 237.204,119.951 236.01,111.76 229.229,107.474 223.261,103.676 214.419,103.676 214.093,103.676 208.505,105.033 202.918,106.389 202.212,106.389 198.957,106.389 193.207,103.676 187.402,100.964 179.916,100.964 178.288,100.964 174.437,103.405 170.585,105.846 169.879,105.846 165.214,105.846 157.131,100.964 148.993,96.081 144.653,96.081 139.771,96.081 136.624,97.438 133.532,98.794 131.362,98.794 131.253,98.794 122.411,96.352 113.622,93.911 108.577,93.911 107.438,93.911 97.998,102.646 87.853,111.977 81.994,113.984 62.41,120.602 58.992,130.042 57.745,133.405 58.07,138.776 58.233,141.76 58.667,148.161 58.667,149.517 55.792,151.362 51.777,153.641 49.444,155.105 40.222,160.964 40.222,168.776 40.222,169.482 40.765,171.923 41.307,174.364 41.307,175.015 41.307,176.751 38.269,179.843 36.424,181.742 31.542,186.136 21.777,195.359 21.777,202.411 21.777,207.619 28.016,210.712 31.542,212.393 32.302,212.99 34.255,214.455 34.255,216.516 34.255,217.059 30,223.135 27.744,229.157 27.744,232.52 27.744,236.209 30,239.41 34.255,242.611 34.255,244.455 34.255,247.276 32.627,251.074 30,254.817 30,256.39 30,259.428 32.627,260.459 33.604,261.056 36.153,261.707 41.307,263.822 41.307,276.191 M41.849,273.479 Q47.871,275.866 48.685,276.137 50.638,276.734 53.242,276.734 63.604,276.734 65.611,269.736 66.316,267.294 66.587,261.978 66.967,255.142 67.347,252.321 67.293,249.012 67.401,246.734 67.564,242.502 68.974,241.471 72.284,239.03 76.244,232.195 79.607,226.498 80.367,223.569 81.994,217.276 83.622,214.238 86.714,208.379 92.845,204.581 96.642,202.194 98.107,197.312 99.246,193.731 98.812,190.476 101.199,184.726 102.284,182.99 104.454,179.735 108.577,177.456 111.778,175.666 114.545,171.326 116.877,167.691 118.071,167.691 118.179,167.691 122.628,170.404 127.402,173.116 129.192,173.116 133.695,173.116 137.818,171.76 141.941,170.404 147.366,170.404 151.597,170.404 157.022,172.303 162.393,174.201 164.183,174.201 168.523,174.201 176.606,171.218 184.69,168.234 189.952,168.234 196.625,168.234 198.741,169.807 200.097,170.838 200.368,173.93 200.639,177.673 201.778,179.681 201.941,179.952 202.104,180.169 202.212,180.332 202.321,180.44 204.599,183.587 210.079,186.136 207.529,188.252 206.932,189.174 206.281,190.097 206.281,191.832 206.281,195.576 210.947,198.126 213.822,199.753 222.014,202.954 218.813,206.154 213.496,210.061 211.164,211.742 211.164,214.075 211.164,221.941 221.363,227.312 226.462,229.97 231.779,231.164 L230.422,239.193 Q229.066,247.385 229.066,248.524 229.066,254.112 226.625,257.095 224.184,260.079 224.184,261.544 224.184,263.009 224.618,264.256 M116.172,283.244 Q110.693,284.112 109.608,286.065 109.119,286.879 109.119,291.924 109.119,296.915 113.405,308.145 119.047,323.172 119.427,324.528 122.302,334.781 131.579,338.85 138.523,341.888 150.892,341.888 163.532,341.888 175.793,339.555 192.014,336.409 197.004,330.496 199.12,328 200.097,318.615 200.802,308.036 201.399,304.401 202.212,299.953 204.654,291.002 206.281,285.088 206.281,279.718 206.281,276.68 201.941,275.649 199.663,275.106 195.106,275.106 190.82,275.106 185.883,276.625 185.341,276.788 176.606,279.989 163.261,284.871 149.265,284.871 141.832,284.871 131.742,283.515 121.705,282.159 117.8,282.159 M255.378,394.294 Q246.806,390.171 230.422,390.171 215.341,390.171 203.569,398.851 189.409,409.321 189.409,427.603 189.409,445.126 208.994,450.931 218.216,453.643 235.576,453.643 252.502,453.643 262.159,448.218 273.551,441.817 273.551,428.417 273.551,419.954 269.971,413.064 268.181,409.592 266.065,407.802 264.22,398.579 255.378,394.294Z" test="RonaldFace"/>
        <path id="Layer2_0_2_STROKES" stroke="#FFF" stroke-width="2.17" stroke-linejoin="round" stroke-linecap="round" fill="none" d="M224.618,264.256 L224.781,263.768 M198.523,180.82 Q195.54,181.688 188.867,183.804 177.203,187.547 176.39,187.764 170.097,189.771 167.058,195.359 164.183,200.73 164.997,207.836 M152.574,235.612 Q148.939,237.403 146.227,240.983 143.84,244.075 140.042,244.726 135.973,245.377 134.346,248.795 132.99,251.67 132.99,257.475 132.99,264.799 140.313,264.799 143.623,264.799 145.413,263.497 147.528,261.978 151.977,261.544 156.263,261.11 165.268,262.086 171.616,262.086 174.762,261.001 179.102,259.591 179.102,255.848 179.102,250.911 168.957,243.316 159.681,236.318 152.574,235.612Z M66.859,272.991 Q84.87,285.902 91.488,305.486 92.899,309.609 92.465,314.166 91.108,328.868 98.324,340.315 L110.259,348.452 Q121.109,358.977 136.841,360.008 177.203,362.666 208.994,341.02 213.768,337.765 215.504,332.015 220.386,315.848 218.433,298.542 217.131,286.824 219.844,276.246 220.332,274.401 221.526,272.991 L224.618,264.256 M139.499,207.836 Q137.221,201.977 134.4,198.397 131.579,194.816 127.565,192.646 122.79,189.988 121.868,189.717 120.783,189.391 116.172,189.391 107.058,189.391 101.579,196.227 97.293,201.543 95.557,210.549 M131.904,360.333 Q135.865,365.433 136.462,372.865 136.733,376.662 136.245,379.863 M186.697,354.908 Q186.154,358.163 186.154,362.232 186.154,367.874 187.728,369.664 191.146,373.624 192.122,375.523" test="RonaldFace"/>
        <path id="Layer2_0_3_STROKES" stroke="#F0C" stroke-width="2.17" stroke-linejoin="round" stroke-linecap="round" fill="none" d="M198.523,180.82 Q200.585,180.169 200.802,180.169 L202.104,180.169 M202.321,180.44 Q201.887,180.549 201.29,180.711 199.229,181.254 198.523,180.82" test="RonaldFace"/>
        <path id="Layer2_0_4_STROKES" stroke="#F0F" stroke-width="2.17" stroke-linejoin="round" stroke-linecap="round" fill="none" d="M192.122,375.523 L192.122,374.438" test="RonaldFace"/>
        <path id="Layer2_0_5_STROKES" stroke="#FF0" stroke-width="2.17" stroke-linejoin="round" stroke-linecap="round" fill="none" d="M321.346,415.505 Q313.534,411.274 304.474,406.934 265.414,388.109 217.674,373.353 L213.822,373.353 Q213.876,374.113 213.876,374.981 213.876,380.514 203.46,383.444 188.216,386.698 178.56,389.628 174.653,390.767 160.765,392.612 146.281,394.511 140.042,394.511 127.944,394.511 122.14,391.798 116.172,389.031 116.172,383.118 116.172,377.585 123.93,374.221 132.501,371.617 134.075,370.641 M100.44,382.033 Q77.6,389.031 67.944,392.72 50.367,399.502 40.765,406.988 34.471,411.871 23.242,423.534 17.708,429.285 12.554,434.656 M187.24,365.758 L205.196,365.758 Q213.171,364.727 213.822,373.353 L212.791,373.353 M206.281,435.741 Q206.335,435.469 206.335,435.198 208.072,420.279 212.357,410.731 217.891,398.308 226.625,398.308 230.531,398.308 231.562,408.019 231.942,411.437 231.887,414.42 232.81,410.026 234.979,406.337 239.048,399.393 245.341,399.393 251.906,399.393 253.479,407.585 254.021,410.514 254.021,424.077 254.021,430.641 253.207,438.236 252.773,442.522 252.556,444.475 252.394,445.994 252.394,446.048 M231.887,414.42 Q231.887,418.164 231.236,421.093 L231.236,421.636" test="RonaldFace"/>
        <path id="Layer1_0_1_STROKES" stroke="#FFF" stroke-width="2.17" stroke-linejoin="round" stroke-linecap="round" fill="none" d="M187.728,208.65 Q189.193,213.695 188.053,218.686 187.565,220.694 187.185,222.755 M112.863,220.043 Q115.575,226.824 113.785,233.931 113.459,235.287 113.188,236.643 M160.06,306.734 Q155.449,308.362 151.218,311.454 150.838,311.617 150.567,311.888" test="RonaldFace"/>
      </g>
    </g>
  </g>
</svg>