<?xml version="1.0" encoding="utf-8"?>
<svg id="EdithAnim08" image-rendering="inherit" baseProfile="basic" version="1.1" x="0px" y="0px" width="800" height="600" xmlns="http://www.w3.org/2000/svg" xmlns:xlink="http://www.w3.org/1999/xlink">
  <g id="Ronaldf29r1" overflow="visible">
    <g id="Ronaldf0r1">
      <g id="RonaldFacef0r1">
        <path id="Layer2_0_1_STROKES" stroke="#F00" stroke-width="2.094" stroke-linejoin="round" stroke-linecap="round" fill="none" d="M248.598,263.439 Q249.75,266.632 253.99,268.15 258.23,269.721 266.502,269.721 278.071,269.721 280.165,268.569 280.846,268.203 282.259,267.103 284.039,266.004 287.442,265.009 290.478,264.119 291.63,260.978 292.677,257.994 292.677,251.137 292.677,250.09 290.321,247.472 287.965,244.802 287.965,244.069 287.965,241.714 290.321,238.154 292.677,234.594 292.677,230.72 292.677,228.94 289.798,223.548 286.918,218.208 286.918,217.894 286.918,214.91 290.845,211.298 294.771,207.686 294.771,205.592 294.771,203.236 290.059,196.797 285.348,190.411 285.348,190.149 287.965,175.857 287.965,173.397 287.965,168.685 286.081,166.277 285.4,165.44 281.945,163.031 275.925,158.791 275.925,146.698 275.925,143.714 273.412,140.73 270.637,137.432 265.978,135.705 263.78,134.972 263.151,134.815 262.314,134.501 262.052,133.82 261.686,130.417 260.743,124.188 259.592,116.283 253.048,112.147 247.289,108.483 238.756,108.483 238.442,108.483 233.05,109.792 227.658,111.1 226.978,111.1 223.837,111.1 218.287,108.483 212.686,105.865 205.462,105.865 203.891,105.865 200.174,108.221 196.457,110.577 195.777,110.577 191.275,110.577 183.475,105.865 175.622,101.154 171.434,101.154 166.723,101.154 163.686,102.463 160.702,103.771 158.608,103.771 158.504,103.771 149.971,101.416 141.49,99.06 136.621,99.06 135.522,99.06 126.413,107.488 116.624,116.492 110.97,118.429 92.072,124.816 88.774,133.925 87.569,137.171 87.884,142.353 88.041,145.232 88.459,151.41 88.459,152.719 85.685,154.498 81.811,156.697 79.56,158.111 70.66,163.764 70.66,171.303 70.66,171.983 71.184,174.339 71.707,176.695 71.707,177.323 71.707,178.998 68.776,181.982 66.996,183.814 62.284,188.055 52.861,196.954 52.861,203.76 52.861,208.785 58.882,211.769 62.284,213.392 63.017,213.968 64.902,215.381 64.902,217.371 64.902,217.894 61.761,223.757 58.62,229.568 58.62,232.814 58.62,236.374 61.761,239.462 64.902,242.551 64.902,244.331 64.902,247.053 63.331,250.718 61.761,254.33 61.761,255.848 61.761,258.78 63.331,259.774 64.274,260.35 66.734,260.978 71.707,263.02 71.707,274.956 M72.231,272.338 Q78.042,274.642 78.827,274.903 80.712,275.479 83.224,275.479 93.223,275.479 95.16,268.726 95.841,266.37 96.102,261.24 96.469,254.644 96.835,251.922 96.783,248.728 96.888,246.53 97.045,242.446 98.406,241.452 101.599,239.096 105.421,232.5 108.667,227.003 109.399,224.176 110.97,218.104 112.54,215.172 115.524,209.518 121.44,205.854 125.104,203.55 126.518,198.839 127.617,195.384 127.198,192.243 129.502,186.694 130.549,185.018 132.643,181.877 136.621,179.679 139.71,177.951 142.38,173.763 144.631,170.256 145.783,170.256 145.887,170.256 150.18,172.873 154.787,175.491 156.514,175.491 160.859,175.491 164.838,174.182 168.817,172.873 174.052,172.873 178.135,172.873 183.37,174.706 188.553,176.538 190.28,176.538 194.468,176.538 202.268,173.659 210.068,170.779 215.146,170.779 221.585,170.779 223.627,172.297 224.936,173.292 225.198,176.276 225.459,179.888 226.559,181.825 226.716,182.087 226.873,182.296 226.978,182.453 227.082,182.558 229.281,185.594 234.568,188.055 232.108,190.096 231.532,190.986 230.904,191.876 230.904,193.552 230.904,197.164 235.406,199.624 238.18,201.195 246.085,204.283 242.997,207.372 237.866,211.141 235.615,212.764 235.615,215.015 235.615,222.606 245.457,227.788 250.378,230.354 255.508,231.505 L254.2,239.253 Q252.891,247.158 252.891,248.257 252.891,253.649 250.535,256.529 248.179,259.408 248.179,260.821 248.179,262.235 248.598,263.439 M143.95,281.761 Q138.663,282.599 137.616,284.483 137.145,285.269 137.145,290.137 137.145,294.953 141.281,305.79 146.725,320.291 147.091,321.6 149.866,331.494 158.818,335.42 165.519,338.352 177.454,338.352 189.652,338.352 201.483,336.101 217.136,333.064 221.952,327.358 223.994,324.95 224.936,315.893 225.616,305.685 226.192,302.178 226.978,297.885 229.333,289.247 230.904,283.541 230.904,278.359 230.904,275.427 226.716,274.432 224.517,273.909 220.12,273.909 215.984,273.909 211.22,275.375 210.697,275.532 202.268,278.62 189.39,283.332 175.884,283.332 168.712,283.332 158.975,282.023 149.29,280.714 145.521,280.714 M278.28,388.922 Q270.009,384.943 254.2,384.943 239.646,384.943 228.286,393.319 214.623,403.423 214.623,421.065 214.623,437.974 233.521,443.575 242.421,446.193 259.173,446.193 275.506,446.193 284.824,440.958 295.818,434.78 295.818,421.85 295.818,413.683 292.363,407.035 290.635,403.684 288.593,401.957 286.814,393.057 278.28,388.922Z" test="RonaldFace"/>
        <path id="Layer2_0_2_STROKES" stroke="#FFF" stroke-width="2.094" stroke-linejoin="round" stroke-linecap="round" fill="none" d="M248.598,263.439 L248.755,262.968 M223.418,182.924 Q220.538,183.762 214.099,185.804 202.844,189.416 202.059,189.625 195.986,191.562 193.055,196.954 190.28,202.137 191.065,208.995 M179.077,235.798 Q175.57,237.526 172.952,240.981 170.649,243.965 166.984,244.593 163.058,245.221 161.488,248.519 160.179,251.294 160.179,256.895 160.179,263.962 167.246,263.962 170.439,263.962 172.167,262.706 174.209,261.24 178.501,260.821 182.637,260.402 191.327,261.345 197.452,261.345 200.488,260.298 204.676,258.937 204.676,255.325 204.676,250.561 194.887,243.232 185.935,236.479 179.077,235.798Z M96.364,271.867 Q113.744,284.326 120.131,303.225 121.492,307.203 121.073,311.601 119.765,325.788 126.727,336.833 L138.244,344.686 Q148.714,354.842 163.896,355.837 202.844,358.402 233.521,337.514 238.128,334.373 239.803,328.824 244.515,313.224 242.63,296.524 241.374,285.216 243.991,275.008 244.462,273.228 245.614,271.867 L248.598,263.439 M166.461,208.995 Q164.262,203.341 161.54,199.886 158.818,196.431 154.944,194.337 150.337,191.772 149.447,191.51 148.4,191.196 143.95,191.196 135.156,191.196 129.868,197.792 125.733,202.922 124.057,211.612 M159.132,356.151 Q162.953,361.072 163.529,368.243 163.791,371.908 163.32,374.997 M212.005,350.916 Q211.482,354.057 211.482,357.983 211.482,363.427 213,365.155 216.298,368.976 217.24,370.809" test="RonaldFace"/>
        <path id="Layer2_0_3_STROKES" stroke="#F0C" stroke-width="2.094" stroke-linejoin="round" stroke-linecap="round" fill="none" d="M223.418,182.924 Q225.407,182.296 225.616,182.296 L226.873,182.296 M227.082,182.558 Q226.663,182.663 226.088,182.82 224.098,183.343 223.418,182.924" test="RonaldFace"/>
        <path id="Layer2_0_4_STROKES" stroke="#F0F" stroke-width="2.094" stroke-linejoin="round" stroke-linecap="round" fill="none" d="M217.24,370.809 L217.24,369.762" test="RonaldFace"/>
        <path id="Layer2_0_5_STROKES" stroke="#FF0" stroke-width="2.094" stroke-linejoin="round" stroke-linecap="round" fill="none" d="M341.938,409.391 Q334.4,405.307 325.657,401.119 287.965,382.954 241.897,368.715 L238.18,368.715 Q238.233,369.448 238.233,370.285 238.233,375.625 228.182,378.452 213.471,381.593 204.153,384.42 200.384,385.519 186.982,387.299 173.005,389.131 166.984,389.131 155.31,389.131 149.709,386.514 143.95,383.844 143.95,378.138 143.95,372.798 151.436,369.552 159.708,367.039 161.226,366.097 M128.769,377.091 Q106.73,383.844 97.411,387.404 80.45,393.947 71.184,401.172 65.111,405.883 54.275,417.138 48.935,422.687 43.962,427.87 M212.529,361.386 L229.857,361.386 Q237.552,360.391 238.18,368.715 L237.186,368.715 M230.904,428.917 Q230.956,428.655 230.956,428.394 232.631,413.997 236.767,404.784 242.107,392.796 250.535,392.796 254.304,392.796 255.299,402.166 255.665,405.464 255.613,408.344 256.503,404.103 258.597,400.543 262.523,393.843 268.596,393.843 274.93,393.843 276.448,401.747 276.972,404.574 276.972,417.662 276.972,423.996 276.186,431.325 275.768,435.461 275.558,437.345 275.401,438.811 275.401,438.864 M255.613,408.344 Q255.613,411.956 254.985,414.783 L254.985,415.306" test="RonaldFace"/>
        <path id="Layer1_0_1_STROKES" stroke="#FFF" stroke-width="2.094" stroke-linejoin="round" stroke-linecap="round" fill="none" d="M213,209.78 Q214.414,214.649 213.314,219.465 212.843,221.402 212.477,223.391 M140.757,220.774 Q143.375,227.317 141.647,234.175 141.333,235.484 141.071,236.793 M186.302,304.429 Q181.852,305 177.769,308.983 177.402,309.14 177.14,309.402" test="RonaldFace"/>
      </g>
    </g>
  </g>
</svg>