<?xml version="1.0" encoding="utf-8"?>
<svg id="EdithAnim08" image-rendering="inherit" baseProfile="basic" version="1.1" x="0px" y="0px" width="800" height="600" xmlns="http://www.w3.org/2000/svg" xmlns:xlink="http://www.w3.org/1999/xlink">
  <g id="Ronaldf33r1" overflow="visible">
    <g id="Ronaldf0r1">
      <g id="RonaldFacef0r1">
        <path id="Layer2_0_1_STROKES" stroke="#F00" stroke-width="2.024" stroke-linejoin="round" stroke-linecap="round" fill="none" d="M271.338,262.645 Q272.451,265.732 276.55,267.199 280.648,268.717 288.643,268.717 299.826,268.717 301.85,267.604 302.507,267.25 303.874,266.187 305.594,265.124 308.883,264.163 311.818,263.303 312.931,260.267 313.943,257.383 313.943,250.754 313.943,249.742 311.666,247.212 309.389,244.631 309.389,243.923 309.389,241.646 311.666,238.205 313.943,234.764 313.943,231.02 313.943,229.3 311.16,224.088 308.377,218.927 308.377,218.623 308.377,215.739 312.172,212.247 315.967,208.756 315.967,206.732 315.967,204.455 311.413,198.231 306.859,192.058 306.859,191.805 309.389,177.991 309.389,175.613 309.389,171.059 307.567,168.731 306.91,167.922 303.57,165.594 297.751,161.496 297.751,149.807 297.751,146.923 295.322,144.039 292.64,140.851 288.137,139.181 286.012,138.473 285.405,138.321 284.595,138.017 284.342,137.359 283.988,134.07 283.077,128.049 281.964,120.408 275.639,116.411 270.073,112.869 261.825,112.869 261.521,112.869 256.31,114.134 251.098,115.399 250.44,115.399 247.404,115.399 242.04,112.869 236.626,110.339 229.643,110.339 228.125,110.339 224.533,112.616 220.94,114.893 220.282,114.893 215.931,114.893 208.391,110.339 200.801,105.785 196.753,105.785 192.199,105.785 189.265,107.05 186.38,108.315 184.356,108.315 184.255,108.315 176.007,106.038 167.81,103.761 163.104,103.761 162.042,103.761 153.237,111.908 143.775,120.611 138.31,122.483 120.044,128.656 116.856,137.461 115.692,140.598 115.996,145.607 116.148,148.39 116.552,154.361 116.552,155.626 113.871,157.346 110.126,159.472 107.95,160.838 99.348,166.303 99.348,173.589 99.348,174.247 99.854,176.524 100.36,178.801 100.36,179.408 100.36,181.027 97.527,183.911 95.806,185.682 91.252,189.781 82.144,198.383 82.144,204.961 82.144,209.819 87.963,212.703 91.252,214.271 91.961,214.828 93.782,216.194 93.782,218.117 93.782,218.623 90.746,224.29 87.71,229.907 87.71,233.044 87.71,236.485 90.746,239.47 93.782,242.456 93.782,244.176 93.782,246.807 92.264,250.349 90.746,253.841 90.746,255.308 90.746,258.142 92.264,259.103 93.175,259.66 95.553,260.267 100.36,262.24 100.36,273.777 M100.866,271.247 Q106.483,273.473 107.242,273.726 109.064,274.283 111.492,274.283 121.157,274.283 123.029,267.756 123.687,265.479 123.94,260.52 124.294,254.144 124.648,251.513 124.598,248.426 124.699,246.301 124.851,242.354 126.166,241.393 129.253,239.116 132.947,232.74 136.084,227.427 136.792,224.695 138.31,218.825 139.828,215.992 142.713,210.527 148.43,206.985 151.972,204.759 153.339,200.205 154.401,196.865 153.996,193.829 156.223,188.465 157.235,186.846 159.259,183.81 163.104,181.685 166.09,180.015 168.67,175.967 170.846,172.577 171.959,172.577 172.061,172.577 176.21,175.107 180.663,177.637 182.332,177.637 186.532,177.637 190.378,176.372 194.223,175.107 199.283,175.107 203.23,175.107 208.29,176.878 213.3,178.649 214.969,178.649 219.017,178.649 226.557,175.866 234.096,173.083 239.004,173.083 245.228,173.083 247.202,174.55 248.467,175.512 248.72,178.396 248.973,181.887 250.035,183.76 250.187,184.013 250.339,184.215 250.44,184.367 250.541,184.468 252.666,187.403 257.777,189.781 255.399,191.754 254.842,192.615 254.235,193.475 254.235,195.094 254.235,198.585 258.587,200.964 261.268,202.482 268.909,205.467 265.924,208.452 260.965,212.096 258.789,213.664 258.789,215.84 258.789,223.177 268.302,228.186 273.058,230.666 278.017,231.779 L276.752,239.268 Q275.487,246.908 275.487,247.971 275.487,253.183 273.21,255.966 270.933,258.749 270.933,260.115 270.933,261.481 271.338,262.645 M170.188,280.355 Q165.078,281.165 164.066,282.986 163.61,283.745 163.61,288.451 163.61,293.106 167.608,303.58 172.87,317.597 173.224,318.862 175.906,328.425 184.559,332.22 191.036,335.054 202.572,335.054 214.362,335.054 225.798,332.878 240.927,329.943 245.582,324.428 247.556,322.1 248.467,313.346 249.124,303.479 249.681,300.089 250.44,295.94 252.717,287.591 254.235,282.075 254.235,277.066 254.235,274.232 250.187,273.271 248.062,272.765 243.811,272.765 239.814,272.765 235.209,274.182 234.703,274.334 226.557,277.319 214.109,281.873 201.054,281.873 194.122,281.873 184.711,280.608 175.35,279.343 171.706,279.343 M300.028,383.933 Q292.033,380.088 276.752,380.088 262.685,380.088 251.705,388.184 238.498,397.949 238.498,415.002 238.498,431.345 256.765,436.76 265.367,439.29 281.559,439.29 297.346,439.29 306.353,434.23 316.979,428.259 316.979,415.761 316.979,407.867 313.639,401.441 311.97,398.202 309.996,396.533 308.276,387.931 300.028,383.933Z" test="RonaldFace"/>
        <path id="Layer2_0_2_STROKES" stroke="#FFF" stroke-width="2.024" stroke-linejoin="round" stroke-linecap="round" fill="none" d="M271.338,262.645 L271.49,262.19 M246,184.822 Q244.216,185.632 237.992,187.605 227.113,191.097 226.354,191.299 220.485,193.171 217.651,198.383 214.969,203.392 215.728,210.021 M204.141,235.928 Q200.751,237.598 198.221,240.938 195.994,243.822 192.452,244.429 188.657,245.036 187.139,248.224 185.874,250.906 185.874,256.32 185.874,263.151 192.705,263.151 195.792,263.151 197.462,261.937 199.435,260.52 203.584,260.115 207.582,259.71 215.981,260.621 221.902,260.621 224.836,259.609 228.884,258.293 228.884,254.802 228.884,250.197 219.422,243.113 210.77,236.586 204.141,235.928Z M124.193,270.792 Q140.992,282.834 147.165,301.101 148.481,304.947 148.076,309.197 146.811,322.91 153.541,333.586 L164.673,341.176 Q174.793,350.993 189.467,351.954 227.113,354.433 256.765,334.244 261.218,331.208 262.837,325.844 267.391,310.766 265.569,294.624 264.355,283.695 266.885,273.828 267.34,272.107 268.454,270.792 L271.338,262.645 M191.946,210.021 Q189.821,204.556 187.19,201.217 184.559,197.877 180.814,195.853 176.362,193.374 175.501,193.121 174.489,192.817 170.188,192.817 161.688,192.817 156.577,199.193 152.58,204.151 150.96,212.551 M184.862,352.258 Q188.556,357.014 189.113,363.946 189.366,367.488 188.91,370.474 M235.968,347.198 Q235.462,350.234 235.462,354.029 235.462,359.291 236.93,360.961 240.118,364.655 241.028,366.426" test="RonaldFace"/>
        <path id="Layer2_0_3_STROKES" stroke="#F0C" stroke-width="2.024" stroke-linejoin="round" stroke-linecap="round" fill="none" d="M246,184.822 Q248.922,184.215 249.124,184.215 L250.339,184.215 M250.541,184.468 Q250.136,184.569 249.58,184.721 247.657,185.227 246,184.822" test="RonaldFace"/>
        <path id="Layer2_0_4_STROKES" stroke="#F0F" stroke-width="2.024" stroke-linejoin="round" stroke-linecap="round" fill="none" d="M241.028,366.426 L241.028,365.414" test="RonaldFace"/>
        <path id="Layer2_0_5_STROKES" stroke="#FF0" stroke-width="2.024" stroke-linejoin="round" stroke-linecap="round" fill="none" d="M361.558,403.718 Q354.271,399.771 345.821,395.723 309.389,378.165 264.861,364.402 L261.268,364.402 Q261.319,365.11 261.319,365.92 261.319,371.081 251.604,373.813 237.385,376.849 228.378,379.582 224.735,380.644 211.782,382.365 198.271,384.136 192.452,384.136 181.169,384.136 175.754,381.606 170.188,379.025 170.188,373.51 170.188,368.348 177.424,365.211 185.419,362.782 186.886,361.872 M155.514,372.498 Q134.212,379.025 125.205,382.466 108.811,388.791 99.854,395.774 93.985,400.328 83.511,411.207 78.349,416.57 73.542,421.58 M236.474,357.318 L253.223,357.318 Q260.661,356.356 261.268,364.402 L260.307,364.402 M254.235,422.592 Q254.286,422.339 254.286,422.086 255.905,408.171 259.902,399.265 265.063,387.678 273.21,387.678 276.853,387.678 277.815,396.735 278.169,399.923 278.118,402.706 278.978,398.607 281.002,395.166 284.797,388.69 290.667,388.69 296.79,388.69 298.257,396.33 298.763,399.063 298.763,411.713 298.763,417.835 298.004,424.919 297.599,428.917 297.397,430.738 297.245,432.155 297.245,432.206 M278.118,402.706 Q278.118,406.197 277.511,408.93 L277.511,409.436" test="RonaldFace"/>
        <path id="Layer1_0_1_STROKES" stroke="#FFF" stroke-width="2.024" stroke-linejoin="round" stroke-linecap="round" fill="none" d="M236.93,210.78 Q238.296,215.486 237.233,220.141 236.778,222.013 236.424,223.936 M167.102,221.406 Q169.632,227.731 167.962,234.36 167.658,235.625 167.405,236.89 M211.124,302.265 Q206.823,303.783 202.876,306.667 202.522,306.819 202.269,307.072" test="RonaldFace"/>
      </g>
    </g>
  </g>
</svg>