<?xml version="1.0" encoding="utf-8"?>
<svg id="EdithAnim08" image-rendering="inherit" baseProfile="basic" version="1.1" x="0px" y="0px" width="800" height="600" xmlns="http://www.w3.org/2000/svg" xmlns:xlink="http://www.w3.org/1999/xlink">
  <g id="Ronaldf34r1" overflow="visible">
    <g id="Ronaldf0r1">
      <g id="RonaldFacef0r1">
        <path id="Layer2_0_1_STROKES" stroke="#F00" stroke-width="2.01" stroke-linejoin="round" stroke-linecap="round" fill="none" d="M275.566,262.506 Q276.671,265.572 280.742,267.029 284.812,268.536 292.751,268.536 303.857,268.536 305.867,267.431 306.52,267.079 307.876,266.024 309.585,264.969 312.851,264.014 315.766,263.16 316.871,260.145 317.876,257.28 317.876,250.698 317.876,249.693 315.615,247.18 313.354,244.617 313.354,243.914 313.354,241.653 315.615,238.236 317.876,234.819 317.876,231.1 317.876,229.392 315.113,224.216 312.349,219.09 312.349,218.789 312.349,215.925 316.118,212.457 319.886,208.99 319.886,206.98 319.886,204.719 315.364,198.538 310.841,192.408 310.841,192.156 313.354,178.438 313.354,176.076 313.354,171.554 311.545,169.242 310.892,168.438 307.575,166.127 301.796,162.057 301.796,150.449 301.796,147.585 299.384,144.72 296.721,141.555 292.249,139.896 290.138,139.193 289.535,139.042 288.731,138.741 288.48,138.087 288.128,134.821 287.224,128.841 286.118,121.254 279.837,117.284 274.31,113.766 266.119,113.766 265.817,113.766 260.642,115.023 255.466,116.279 254.813,116.279 251.798,116.279 246.471,113.766 241.094,111.254 234.16,111.254 232.652,111.254 229.085,113.515 225.517,115.776 224.864,115.776 220.542,115.776 213.055,111.254 205.517,106.731 201.497,106.731 196.975,106.731 194.06,107.988 191.196,109.244 189.186,109.244 189.086,109.244 180.895,106.983 172.754,104.721 168.081,104.721 167.026,104.721 158.282,112.812 148.886,121.455 143.459,123.314 125.318,129.444 122.153,138.188 120.997,141.303 121.298,146.278 121.449,149.042 121.851,154.971 121.851,156.228 119.188,157.936 115.469,160.047 113.309,161.403 104.766,166.83 104.766,174.066 104.766,174.72 105.269,176.981 105.771,179.242 105.771,179.845 105.771,181.453 102.957,184.317 101.249,186.076 96.726,190.146 87.681,198.689 87.681,205.221 87.681,210.045 93.46,212.91 96.726,214.467 97.43,215.02 99.239,216.377 99.239,218.286 99.239,218.789 96.224,224.417 93.209,229.995 93.209,233.11 93.209,236.527 96.224,239.492 99.239,242.457 99.239,244.165 99.239,246.778 97.731,250.296 96.224,253.763 96.224,255.22 96.224,258.034 97.731,258.989 98.636,259.542 100.997,260.145 105.771,262.104 105.771,273.561 M106.274,271.049 Q111.851,273.26 112.605,273.511 114.414,274.064 116.826,274.064 126.424,274.064 128.283,267.582 128.936,265.32 129.188,260.396 129.539,254.064 129.891,251.451 129.841,248.386 129.941,246.276 130.092,242.356 131.399,241.401 134.464,239.14 138.132,232.809 141.248,227.532 141.951,224.819 143.459,218.99 144.966,216.176 147.83,210.749 153.509,207.231 157.026,205.02 158.383,200.498 159.438,197.181 159.036,194.166 161.247,188.84 162.252,187.232 164.262,184.217 168.081,182.106 171.046,180.448 173.609,176.428 175.769,173.061 176.875,173.061 176.975,173.061 181.096,175.574 185.518,178.086 187.176,178.086 191.347,178.086 195.166,176.83 198.985,175.574 204.01,175.574 207.929,175.574 212.954,177.333 217.929,179.091 219.587,179.091 223.607,179.091 231.095,176.328 238.582,173.564 243.456,173.564 249.637,173.564 251.597,175.021 252.853,175.976 253.104,178.84 253.355,182.307 254.411,184.167 254.561,184.418 254.712,184.619 254.813,184.77 254.913,184.87 257.024,187.785 262.099,190.146 259.737,192.106 259.184,192.96 258.581,193.815 258.581,195.423 258.581,198.89 262.903,201.252 265.566,202.759 273.154,205.724 270.189,208.689 265.265,212.307 263.104,213.864 263.104,216.025 263.104,223.311 272.551,228.286 277.274,230.748 282.199,231.854 L280.943,239.291 Q279.686,246.879 279.686,247.934 279.686,253.11 277.425,255.873 275.164,258.637 275.164,259.994 275.164,261.351 275.566,262.506 M175.116,280.094 Q170.041,280.898 169.036,282.707 168.584,283.461 168.584,288.134 168.584,292.757 172.553,303.159 177.779,317.078 178.131,318.334 180.794,327.831 189.387,331.6 195.819,334.414 207.276,334.414 218.984,334.414 230.341,332.253 245.366,329.339 249.989,323.862 251.948,321.55 252.853,312.857 253.506,303.058 254.059,299.691 254.813,295.571 257.074,287.28 258.581,281.802 258.581,276.828 258.581,274.014 254.561,273.059 252.451,272.556 248.23,272.556 244.26,272.556 239.687,273.963 239.185,274.114 231.095,277.079 218.733,281.601 205.769,281.601 198.884,281.601 189.538,280.345 180.242,279.089 176.624,279.089 M304.058,382.956 Q296.118,379.137 280.943,379.137 266.973,379.137 256.069,387.177 242.954,396.875 242.954,413.809 242.954,430.04 261.094,435.417 269.636,437.929 285.716,437.929 301.394,437.929 310.339,432.904 320.891,426.975 320.891,414.563 320.891,406.724 317.575,400.342 315.917,397.126 313.957,395.468 312.248,386.925 304.058,382.956Z" test="RonaldFace"/>
        <path id="Layer2_0_2_STROKES" stroke="#FFF" stroke-width="2.01" stroke-linejoin="round" stroke-linecap="round" fill="none" d="M275.566,262.506 L275.717,262.054 M251.396,185.222 Q248.632,186.026 242.451,187.986 231.647,191.453 230.894,191.654 225.065,193.513 222.251,198.689 219.587,203.664 220.341,210.246 M208.834,235.974 Q205.467,237.633 202.955,240.949 200.744,243.813 197.226,244.416 193.457,245.019 191.95,248.185 190.694,250.848 190.694,256.225 190.694,263.009 197.477,263.009 200.543,263.009 202.201,261.803 204.161,260.396 208.281,259.994 212.251,259.592 220.592,260.496 226.472,260.496 229.386,259.491 233.406,258.185 233.406,254.718 233.406,250.145 224.009,243.11 215.417,236.628 208.834,235.974Z M129.439,270.597 Q146.122,282.556 152.252,300.696 153.559,304.515 153.157,308.736 151.901,322.354 158.584,332.957 L169.639,340.494 Q179.689,350.243 194.261,351.198 231.647,353.66 261.094,333.61 265.516,330.595 267.124,325.269 271.646,310.294 269.837,294.264 268.631,283.41 271.144,273.612 271.596,271.903 272.702,270.597 L275.566,262.506 M196.724,210.246 Q194.613,204.819 192,201.503 189.387,198.186 185.669,196.176 181.247,193.714 180.392,193.463 179.387,193.161 175.116,193.161 166.674,193.161 161.599,199.493 157.629,204.417 156.021,212.759 M189.689,351.499 Q193.357,356.222 193.91,363.107 194.161,366.624 193.709,369.589 M240.441,346.474 Q239.939,349.489 239.939,353.258 239.939,358.484 241.396,360.142 244.562,363.81 245.466,365.569" test="RonaldFace"/>
        <path id="Layer2_0_3_STROKES" stroke="#F0C" stroke-width="2.01" stroke-linejoin="round" stroke-linecap="round" fill="none" d="M251.396,185.222 Q253.305,184.619 253.506,184.619 L254.712,184.619 M254.913,184.87 Q254.511,184.971 253.958,185.121 252.049,185.624 251.396,185.222" test="RonaldFace"/>
        <path id="Layer2_0_4_STROKES" stroke="#F0F" stroke-width="2.01" stroke-linejoin="round" stroke-linecap="round" fill="none" d="M245.466,365.569 L245.466,364.564" test="RonaldFace"/>
        <path id="Layer2_0_5_STROKES" stroke="#FF0" stroke-width="2.01" stroke-linejoin="round" stroke-linecap="round" fill="none" d="M365.162,402.603 Q357.926,398.684 349.534,394.664 313.354,377.227 269.134,363.559 L265.566,363.559 Q265.616,364.263 265.616,365.067 265.616,370.192 255.968,372.905 241.848,375.921 232.904,378.634 229.286,379.689 216.422,381.398 203.005,383.157 197.226,383.157 186.02,383.157 180.644,380.644 175.116,378.081 175.116,372.604 175.116,367.479 182.302,364.363 190.241,361.951 191.699,361.047 M160.544,371.599 Q139.388,378.081 130.444,381.498 114.163,387.78 105.269,394.714 99.44,399.237 89.038,410.04 83.912,415.367 79.139,420.342 M240.944,356.524 L257.576,356.524 Q264.963,355.569 265.566,363.559 L264.611,363.559 M258.581,421.347 Q258.632,421.095 258.632,420.844 260.24,407.025 264.209,398.181 269.335,386.674 277.425,386.674 281.043,386.674 281.998,395.669 282.35,398.835 282.299,401.598 283.154,397.528 285.164,394.111 288.932,387.679 294.761,387.679 300.842,387.679 302.299,395.267 302.801,397.98 302.801,410.543 302.801,416.623 302.048,423.658 301.645,427.628 301.445,429.437 301.294,430.844 301.294,430.894 M282.299,401.598 Q282.299,405.066 281.696,407.779 L281.696,408.282" test="RonaldFace"/>
        <path id="Layer1_0_1_STROKES" stroke="#FFF" stroke-width="2.01" stroke-linejoin="round" stroke-linecap="round" fill="none" d="M241.396,211 Q242.753,215.673 241.697,220.296 241.245,222.156 240.893,224.065 M172.051,221.553 Q174.563,227.834 172.905,234.417 172.604,235.673 172.352,236.929 M215.768,301.852 Q211.497,303.36 207.578,306.224 207.226,306.375 206.975,306.626" test="RonaldFace"/>
      </g>
    </g>
  </g>
</svg>