<?xml version="1.0" encoding="utf-8"?>
<svg id="EdithAnim08" image-rendering="inherit" baseProfile="basic" version="1.1" x="0px" y="0px" width="800" height="600" xmlns="http://www.w3.org/2000/svg" xmlns:xlink="http://www.w3.org/1999/xlink">
  <g id="Ronaldf4r1" overflow="visible">
    <g id="Ronaldf0r1">
      <g id="RonaldFacef0r1">
        <path id="Layer2_0_1_STROKES" stroke="#F00" stroke-width="3.264" stroke-linejoin="round" stroke-linecap="round" fill="none" d="M-126.259,276.62 Q-124.464,281.598 -117.854,283.964 -111.245,286.412 -98.352,286.412 -80.318,286.412 -77.054,284.617 -75.994,284.046 -73.79,282.332 -71.016,280.618 -65.712,279.068 -60.979,277.681 -59.184,272.785 -57.552,268.134 -57.552,257.444 -57.552,255.812 -61.224,251.732 -64.896,247.57 -64.896,246.428 -64.896,242.756 -61.224,237.207 -57.552,231.658 -57.552,225.62 -57.552,222.846 -62.04,214.441 -66.528,206.118 -66.528,205.628 -66.528,200.977 -60.408,195.346 -54.288,189.716 -54.288,186.452 -54.288,182.78 -61.632,172.743 -68.976,162.788 -68.976,162.38 -64.896,140.103 -64.896,136.268 -64.896,128.924 -67.834,125.17 -68.894,123.865 -74.28,120.111 -83.664,113.502 -83.664,94.652 -83.664,90.001 -87.581,85.35 -91.906,80.209 -99.168,77.516 -102.595,76.374 -103.574,76.129 -104.88,75.639 -105.288,74.578 -105.859,69.274 -107.328,59.564 -109.123,47.242 -119.323,40.796 -128.299,35.084 -141.6,35.084 -142.09,35.084 -150.494,37.124 -158.899,39.164 -159.96,39.164 -164.856,39.164 -173.506,35.084 -182.237,31.004 -193.498,31.004 -195.946,31.004 -201.739,34.676 -207.533,38.348 -208.594,38.348 -215.611,38.348 -227.77,31.004 -240.01,23.66 -246.538,23.66 -253.882,23.66 -258.614,25.7 -263.266,27.74 -266.53,27.74 -266.693,27.74 -279.994,24.068 -293.213,20.396 -300.802,20.396 -302.515,20.396 -316.714,33.534 -331.973,47.569 -340.786,50.588 -370.243,60.543 -375.384,74.742 -377.261,79.801 -376.771,87.879 -376.526,92.367 -375.874,101.996 -375.874,104.036 -380.198,106.81 -386.237,110.238 -389.746,112.441 -403.618,121.254 -403.618,133.004 -403.618,134.065 -402.802,137.737 -401.986,141.409 -401.986,142.388 -401.986,144 -406.555,149.65 -409.33,152.506 -416.674,159.116 -431.362,172.988 -431.362,183.596 -431.362,191.43 -421.978,196.081 -416.674,198.61 -415.531,199.508 -412.594,201.711 -412.594,204.812 -412.594,205.628 -417.49,214.767 -422.386,223.825 -422.386,228.884 -422.386,234.433 -417.49,239.247 -412.594,244.062 -412.594,246.836 -412.594,251.079 -415.042,256.791 -417.49,262.422 -417.49,264.788 -417.49,269.358 -415.042,270.908 -413.573,271.806 -409.738,272.785 -401.986,275.967 -401.986,294.572 M-401.17,290.492 Q-392.112,294.082 -390.888,294.49 -387.95,295.388 -384.034,295.388 -368.448,295.388 -365.429,284.862 -364.368,281.19 -363.96,273.193 -363.389,262.911 -362.818,258.668 -362.899,253.69 -362.736,250.263 -362.491,243.898 -360.37,242.348 -355.392,238.676 -349.435,228.394 -344.376,219.826 -343.234,215.42 -340.786,205.954 -338.338,201.385 -333.686,192.572 -324.466,186.86 -318.754,183.27 -316.55,175.926 -314.837,170.54 -315.49,165.644 -311.899,156.994 -310.267,154.383 -307.003,149.487 -300.802,146.06 -295.987,143.367 -291.826,136.839 -288.317,131.372 -286.522,131.372 -286.358,131.372 -279.667,135.452 -272.486,139.532 -269.794,139.532 -263.021,139.532 -256.819,137.492 -250.618,135.452 -242.458,135.452 -236.093,135.452 -227.933,138.308 -219.854,141.164 -217.162,141.164 -210.634,141.164 -198.475,136.676 -186.317,132.188 -178.402,132.188 -168.365,132.188 -165.182,134.554 -163.142,136.105 -162.734,140.756 -162.326,146.386 -160.613,149.406 -160.368,149.814 -160.123,150.14 -159.96,150.385 -159.797,150.548 -156.37,155.281 -148.128,159.116 -151.963,162.298 -152.861,163.686 -153.84,165.073 -153.84,167.684 -153.84,173.314 -146.822,177.15 -142.498,179.598 -130.176,184.412 -134.99,189.226 -142.987,195.102 -146.496,197.631 -146.496,201.14 -146.496,212.972 -131.155,221.05 -123.485,225.049 -115.488,226.844 L-117.528,238.921 Q-119.568,251.242 -119.568,252.956 -119.568,261.361 -123.24,265.849 -126.912,270.337 -126.912,272.54 -126.912,274.743 -126.259,276.62 M-289.378,305.18 Q-297.619,306.486 -299.251,309.423 -299.986,310.647 -299.986,318.236 -299.986,325.743 -293.539,342.634 -285.053,365.238 -284.482,367.278 -280.157,382.7 -266.203,388.82 -255.758,393.39 -237.154,393.39 -218.141,393.39 -199.699,389.881 -175.301,385.148 -167.794,376.254 -164.611,372.5 -163.142,358.383 -162.082,342.471 -161.184,337.004 -159.96,330.313 -156.288,316.849 -153.84,307.954 -153.84,299.876 -153.84,295.306 -160.368,293.756 -163.795,292.94 -170.65,292.94 -177.096,292.94 -184.522,295.225 -185.338,295.47 -198.475,300.284 -218.549,307.628 -239.602,307.628 -250.781,307.628 -265.958,305.588 -281.054,303.548 -286.93,303.548 M-79.992,472.215 Q-92.885,466.014 -117.528,466.014 -140.213,466.014 -157.92,479.07 -179.218,494.818 -179.218,522.318 -179.218,548.674 -149.76,557.406 -135.888,561.486 -109.776,561.486 -84.317,561.486 -69.792,553.326 -52.656,543.697 -52.656,523.542 -52.656,510.812 -58.042,500.449 -60.734,495.226 -63.917,492.534 -66.691,478.662 -79.992,472.215Z" test="RonaldFace"/>
        <path id="Layer2_0_2_STROKES" stroke="#FFF" stroke-width="3.264" stroke-linejoin="round" stroke-linecap="round" fill="none" d="M-126.259,276.62 L-126.014,275.886 M-165.509,151.119 Q-169.997,152.425 -180.034,155.607 -197.578,161.238 -198.802,161.564 -208.267,164.583 -212.837,172.988 -217.162,181.066 -215.938,191.756 M-234.624,233.535 Q-240.091,236.228 -244.171,241.614 -247.762,246.265 -253.474,247.244 -259.594,248.223 -262.042,253.364 -264.082,257.689 -264.082,266.42 -264.082,277.436 -253.066,277.436 -248.088,277.436 -245.395,275.478 -242.213,273.193 -235.522,272.54 -229.075,271.887 -215.53,273.356 -205.982,273.356 -201.25,271.724 -194.722,269.602 -194.722,263.972 -194.722,256.546 -209.981,245.122 -223.934,234.596 -234.624,233.535Z M-363.552,289.758 Q-336.461,309.178 -326.506,338.636 -324.384,344.838 -325.037,351.692 -327.077,373.806 -316.224,391.023 L-298.272,403.263 Q-281.952,419.094 -258.288,420.644 -197.578,424.642 -149.76,392.084 -142.579,387.188 -139.968,378.538 -132.624,354.222 -135.562,328.191 -137.52,310.566 -133.44,294.654 -132.706,291.879 -130.91,289.758 L-126.259,276.62 M-254.29,191.756 Q-257.717,182.943 -261.96,177.558 -266.203,172.172 -272.242,168.908 -279.422,164.91 -280.81,164.502 -282.442,164.012 -289.378,164.012 -303.086,164.012 -311.328,174.294 -317.774,182.29 -320.386,195.836 M-265.714,421.134 Q-259.757,428.804 -258.859,439.983 -258.451,445.695 -259.186,450.51 M-183.298,412.974 Q-184.114,417.87 -184.114,423.99 -184.114,432.476 -181.747,435.169 -176.606,441.126 -175.138,443.982" test="RonaldFace"/>
        <path id="Layer2_0_3_STROKES" stroke="#F0C" stroke-width="3.264" stroke-linejoin="round" stroke-linecap="round" fill="none" d="M-165.509,151.119 Q-162.408,150.14 -162.082,150.14 L-160.123,150.14 M-159.797,150.548 Q-160.45,150.711 -161.347,150.956 -164.448,151.772 -165.509,151.119" test="RonaldFace"/>
        <path id="Layer2_0_4_STROKES" stroke="#F0F" stroke-width="3.264" stroke-linejoin="round" stroke-linecap="round" fill="none" d="M-175.138,443.982 L-175.138,442.35" test="RonaldFace"/>
        <path id="Layer2_0_5_STROKES" stroke="#FF0" stroke-width="3.264" stroke-linejoin="round" stroke-linecap="round" fill="none" d="M19.234,504.121 Q7.483,497.756 -6.144,491.228 -64.896,462.913 -136.704,440.718 L-142.498,440.718 Q-142.416,441.86 -142.416,443.166 -142.416,451.489 -158.083,455.895 -181.013,460.791 -195.538,465.198 -201.413,466.911 -222.302,469.686 -244.09,472.542 -253.474,472.542 -271.67,472.542 -280.402,468.462 -289.378,464.3 -289.378,455.406 -289.378,447.082 -277.709,442.023 -264.816,438.106 -262.45,436.638 M-313.042,453.774 Q-347.395,464.3 -361.92,469.849 -388.358,480.049 -402.802,491.31 -412.267,498.654 -429.158,516.198 -437.482,524.847 -445.234,532.926 M-182.482,429.294 L-155.472,429.294 Q-143.477,427.743 -142.498,440.718 L-144.048,440.718 M-153.84,534.558 Q-153.758,534.15 -153.758,533.742 -151.147,511.302 -144.701,496.94 -136.378,478.254 -123.24,478.254 -117.365,478.254 -115.814,492.86 -115.243,498.001 -115.325,502.489 -113.938,495.879 -110.674,490.33 -104.554,479.886 -95.088,479.886 -85.214,479.886 -82.848,492.207 -82.032,496.614 -82.032,517.014 -82.032,526.887 -83.256,538.311 -83.909,544.758 -84.235,547.695 -84.48,549.98 -84.48,550.062 M-115.325,502.489 Q-115.325,508.119 -116.304,512.526 L-116.304,513.342" test="RonaldFace"/>
        <path id="Layer1_0_1_STROKES" stroke="#FFF" stroke-width="3.264" stroke-linejoin="round" stroke-linecap="round" fill="none" d="M-181.747,192.98 Q-179.544,200.569 -181.258,208.076 -181.992,211.095 -182.563,214.196 M-294.355,210.116 Q-290.275,220.316 -292.968,231.006 -293.458,233.046 -293.866,235.086 M-223.363,340.513 Q-230.299,342.961 -236.664,347.612 -237.235,347.857 -237.643,348.265" test="RonaldFace"/>
      </g>
    </g>
  </g>
</svg>