<?xml version="1.0" encoding="utf-8"?>
<svg id="EdithAnim08" image-rendering="inherit" baseProfile="basic" version="1.1" x="0px" y="0px" width="800" height="600" xmlns="http://www.w3.org/2000/svg" xmlns:xlink="http://www.w3.org/1999/xlink">
  <g id="Ronaldf41r1" overflow="visible">
    <g id="Ronaldf0r1">
      <g id="RonaldFacef0r1">
        <path id="Layer2_0_1_STROKES" stroke="#F00" stroke-width="2" stroke-linejoin="round" stroke-linecap="round" fill="none" d="M279,262.5 Q280.1,265.55 284.15,267 288.2,268.5 296.1,268.5 307.15,268.5 309.15,267.4 309.8,267.05 311.15,266 312.85,264.95 316.1,264 319,263.15 320.1,260.15 321.1,257.3 321.1,250.75 321.1,249.75 318.85,247.25 316.6,244.7 316.6,244 316.6,241.75 318.85,238.35 321.1,234.95 321.1,231.25 321.1,229.55 318.35,224.4 315.6,219.3 315.6,219 315.6,216.15 319.35,212.7 323.1,209.25 323.1,207.25 323.1,205 318.6,198.85 314.1,192.75 314.1,192.5 316.6,178.85 316.6,176.5 316.6,172 314.8,169.7 314.15,168.9 310.85,166.6 305.1,162.55 305.1,151 305.1,148.15 302.7,145.3 300.05,142.15 295.6,140.5 293.5,139.8 292.9,139.65 292.1,139.35 291.85,138.7 291.5,135.45 290.6,129.5 289.5,121.95 283.25,118 277.75,114.5 269.6,114.5 269.3,114.5 264.15,115.75 259,117 258.35,117 255.35,117 250.05,114.5 244.7,112 237.8,112 236.3,112 232.75,114.25 229.2,116.5 228.55,116.5 224.25,116.5 216.8,112 209.3,107.5 205.3,107.5 200.8,107.5 197.9,108.75 195.05,110 193.05,110 192.95,110 184.8,107.75 176.7,105.5 172.05,105.5 171,105.5 162.3,113.55 152.95,122.15 147.55,124 129.5,130.1 126.35,138.8 125.2,141.9 125.5,146.85 125.65,149.6 126.05,155.5 126.05,156.75 123.4,158.45 119.7,160.55 117.55,161.9 109.05,167.3 109.05,174.5 109.05,175.15 109.55,177.4 110.05,179.65 110.05,180.25 110.05,181.85 107.25,184.7 105.55,186.45 101.05,190.5 92.05,199 92.05,205.5 92.05,210.3 97.8,213.15 101.05,214.7 101.75,215.25 103.55,216.6 103.55,218.5 103.55,219 100.55,224.6 97.55,230.15 97.55,233.25 97.55,236.65 100.55,239.6 103.55,242.55 103.55,244.25 103.55,246.85 102.05,250.35 100.55,253.8 100.55,255.25 100.55,258.05 102.05,259 102.95,259.55 105.3,260.15 110.05,262.1 110.05,273.5 M110.55,271 Q116.1,273.2 116.85,273.45 118.65,274 121.05,274 130.6,274 132.45,267.55 133.1,265.3 133.35,260.4 133.7,254.1 134.05,251.5 134,248.45 134.1,246.35 134.25,242.45 135.55,241.5 138.6,239.25 142.25,232.95 145.35,227.7 146.05,225 147.55,219.2 149.05,216.4 151.9,211 157.55,207.5 161.05,205.3 162.4,200.8 163.45,197.5 163.05,194.5 165.25,189.2 166.25,187.6 168.25,184.6 172.05,182.5 175,180.85 177.55,176.85 179.7,173.5 180.8,173.5 180.9,173.5 185,176 189.4,178.5 191.05,178.5 195.2,178.5 199,177.25 202.8,176 207.8,176 211.7,176 216.7,177.75 221.65,179.5 223.3,179.5 227.3,179.5 234.75,176.75 242.2,174 247.05,174 253.2,174 255.15,175.45 256.4,176.4 256.65,179.25 256.9,182.7 257.95,184.55 258.1,184.8 258.25,185 258.35,185.15 258.45,185.25 260.55,188.15 265.6,190.5 263.25,192.45 262.7,193.3 262.1,194.15 262.1,195.75 262.1,199.2 266.4,201.55 269.05,203.05 276.6,206 273.65,208.95 268.75,212.55 266.6,214.1 266.6,216.25 266.6,223.5 276,228.45 280.7,230.9 285.6,232 L284.35,239.4 Q283.1,246.95 283.1,248 283.1,253.15 280.85,255.9 278.6,258.65 278.6,260 278.6,261.35 279,262.5 M179.05,280 Q174,280.8 173,282.6 172.55,283.35 172.55,288 172.55,292.6 176.5,302.95 181.7,316.8 182.05,318.05 184.7,327.5 193.25,331.25 199.65,334.05 211.05,334.05 222.7,334.05 234,331.9 248.95,329 253.55,323.55 255.5,321.25 256.4,312.6 257.05,302.85 257.6,299.5 258.35,295.4 260.6,287.15 262.1,281.7 262.1,276.75 262.1,273.95 258.1,273 256,272.5 251.8,272.5 247.85,272.5 243.3,273.9 242.8,274.05 234.75,277 222.45,281.5 209.55,281.5 202.7,281.5 193.4,280.25 184.15,279 180.55,279 M307.35,382.35 Q299.45,378.55 284.35,378.55 270.45,378.55 259.6,386.55 246.55,396.2 246.55,413.05 246.55,429.2 264.6,434.55 273.1,437.05 289.1,437.05 304.7,437.05 313.6,432.05 324.1,426.15 324.1,413.8 324.1,406 320.8,399.65 319.15,396.45 317.2,394.8 315.5,386.3 307.35,382.35Z" test="RonaldFace"/>
        <path id="Layer2_0_2_STROKES" stroke="#FFF" stroke-width="2" stroke-linejoin="round" stroke-linecap="round" fill="none" d="M279,262.5 L279.15,262.05 M254.95,185.6 Q252.2,186.4 246.05,188.35 235.3,191.8 234.55,192 228.75,193.85 225.95,199 223.3,203.95 224.05,210.5 M212.6,236.1 Q209.25,237.75 206.75,241.05 204.55,243.9 201.05,244.5 197.3,245.1 195.8,248.25 194.55,250.9 194.55,256.25 194.55,263 201.3,263 204.35,263 206,261.8 207.95,260.4 212.05,260 216,259.6 224.3,260.5 230.15,260.5 233.05,259.5 237.05,258.2 237.05,254.75 237.05,250.2 227.7,243.2 219.15,236.75 212.6,236.1Z M133.6,270.55 Q150.2,282.45 156.3,300.5 157.6,304.3 157.2,308.5 155.95,322.05 162.6,332.6 L173.6,340.1 Q183.6,349.8 198.1,350.75 235.3,353.2 264.6,333.25 269,330.25 270.6,324.95 275.1,310.05 273.3,294.1 272.1,283.3 274.6,273.55 275.05,271.85 276.15,270.55 L279,262.5 M200.55,210.5 Q198.45,205.1 195.85,201.8 193.25,198.5 189.55,196.5 185.15,194.05 184.3,193.8 183.3,193.5 179.05,193.5 170.65,193.5 165.6,199.8 161.65,204.7 160.05,213 M193.55,351.05 Q197.2,355.75 197.75,362.6 198,366.1 197.55,369.05 M244.05,346.05 Q243.55,349.05 243.55,352.8 243.55,358 245,359.65 248.15,363.3 249.05,365.05" test="RonaldFace"/>
        <path id="Layer2_0_3_STROKES" stroke="#F0C" stroke-width="2" stroke-linejoin="round" stroke-linecap="round" fill="none" d="M254.95,185.6 Q256.85,185 257.05,185 L258.25,185 M258.45,185.25 Q258.05,185.35 257.5,185.5 255.6,186 254.95,185.6" test="RonaldFace"/>
        <path id="Layer2_0_4_STROKES" stroke="#F0F" stroke-width="2" stroke-linejoin="round" stroke-linecap="round" fill="none" d="M249.05,365.05 L249.05,364.05" test="RonaldFace"/>
        <path id="Layer2_0_5_STROKES" stroke="#FF0" stroke-width="2" stroke-linejoin="round" stroke-linecap="round" fill="none" d="M368.15,401.9 Q360.95,398 352.6,394 316.6,376.65 272.6,363.05 L269.05,363.05 Q269.1,363.75 269.1,364.55 269.1,369.65 259.5,372.35 245.45,375.35 236.55,378.05 232.95,379.1 220.15,380.8 206.8,382.55 201.05,382.55 189.9,382.55 184.55,380.05 179.05,377.5 179.05,372.05 179.05,366.95 186.2,363.85 194.1,361.45 195.55,360.55 M164.55,371.05 Q143.5,377.5 134.6,380.9 118.4,387.15 109.55,394.05 103.75,398.55 93.4,409.3 88.3,414.6 83.55,419.55 M244.55,356.05 L261.1,356.05 Q268.45,355.1 269.05,363.05 L268.1,363.05 M262.1,420.55 Q262.15,420.3 262.15,420.05 263.75,406.3 267.7,397.5 272.8,386.05 280.85,386.05 284.45,386.05 285.4,395 285.75,398.15 285.7,400.9 286.55,396.85 288.55,393.45 292.3,387.05 298.1,387.05 304.15,387.05 305.6,394.6 306.1,397.3 306.1,409.8 306.1,415.85 305.35,422.85 304.95,426.8 304.75,428.6 304.6,430 304.6,430.05 M285.7,400.9 Q285.7,404.35 285.1,407.05 L285.1,407.55" test="RonaldFace"/>
        <path id="Layer1_0_1_STROKES" stroke="#FFF" stroke-width="2" stroke-linejoin="round" stroke-linecap="round" fill="none" d="M245,211.25 Q246.35,215.9 245.3,220.5 244.85,222.35 244.5,224.25 M176,221.75 Q178.5,228 176.85,234.55 176.55,235.8 176.3,237.05 M219.5,301.65 Q215.25,303.15 211.35,306 211,306.15 210.75,306.4" test="RonaldFace"/>
      </g>
    </g>
  </g>
</svg>