<?xml version="1.0" encoding="utf-8"?>
<svg id="EdithAnim07" image-rendering="inherit" baseProfile="basic" version="1.1" x="0px" y="0px" width="800" height="600" xmlns="http://www.w3.org/2000/svg" xmlns:xlink="http://www.w3.org/1999/xlink">
  <g id="Rihanna-rearf0r1" overflow="visible">
    <g id="RihannaWholeBodyf0r1">
      <g id="Rihanna-Body">
        <path id="Layer4_0_1_STROKES" stroke="#F60" stroke-width="1.374" stroke-linejoin="round" stroke-linecap="round" fill="none" d="M927.827,329.833 Q930.781,331.276 936.621,333.886 941.979,336.497 947.406,339.795 956.063,345.016 971.451,360.405 972.001,360.954 966.505,346.321 959.91,328.734 959.772,321.933 959.566,312.727 959.498,312.589 959.36,311.834 956.681,309.91 955.032,308.742 949.674,307.643 945.208,306.75 944.658,305.101 943.971,302.971 944.521,302.422 944.727,302.078 947.406,300.979 948.987,300.361 951.597,302.078 953.933,303.727 954.963,302.696 956.131,301.597 956.269,298.437 956.406,294.04 957.024,292.048 958.192,288.27 959.085,287.376 960.185,286.277 962.177,287.583 964.375,288.956 968.978,295.346 973.719,302.01 976.26,307.506 978.802,313.07 983.886,336.153 988.901,358.893 988.97,364.526 988.97,364.87 989.863,375.175 990.344,380.877 988.97,382.732 987.321,384 971.589,384.312 956.544,383.625 947.75,381.358 942.872,380.121 934.491,374.419 L927.003,369.061 Q927.003,370.16 927.003,371.259 927.071,381.839 925.766,384.793 919.514,399.151 917.178,402.311 M872.18,289.987 Q871.356,293.834 869.707,301.666 867.165,308.124 859.47,311.284 855.829,312.795 844.425,316.23 835.632,318.91 831.372,321.452 829.242,322.757 827.525,324.337 821.823,329.627 818.8,334.23 815.64,338.97 814.128,344.603 812.686,350.1 813.716,360.611 814.678,370.572 816.876,376.549 816.945,376.755 817.083,376.961 819.212,382.938 822.441,393 826.014,405.953 827.525,412.96 828.624,417.838 831.853,431.165 834.464,442.845 834.051,446.28 833.639,449.852 833.639,452.119 833.571,453.699 833.708,453.837 M831.372,321.452 Q812.274,328.665 804.991,343.436 797.64,358.206 809.251,370.023 812.205,373.664 814.815,375.518 815.915,376.343 817.083,376.961 M915.804,418.044 Q914.774,418.25 913.95,418.593 912.919,419.006 911.82,419.349 910.721,419.899 909.69,420.517 908.522,421.204 907.423,421.685 906.599,422.097 905.843,422.509 L904.606,423.265 Q903.782,424.158 903.232,425.257 902.683,426.15 902.614,427.181 902.614,427.868 902.82,428.555 903.301,428.761 903.851,429.036 907.56,428.692 910.652,427.524 913.743,426.288 914.018,426.425 L917.522,424.639 Q917.728,425.051 921.713,425.189 925.629,425.257 926.934,422.166 926.728,418.731 924.117,416.464 924.117,415.158 924.735,413.991 924.735,412.823 923.774,412.204 922.949,411.655 922.056,411.174 L921.987,410.006 Q923.224,408.426 922.468,406.571 922.4,406.296 922.331,406.09 920.613,405.197 918.484,405.403 918.14,405.403 917.797,405.472 L916.972,406.365 Q913.743,406.64 910.858,407.739 909.828,408.014 908.797,408.357 906.942,408.769 905.568,409.113 904.332,409.594 903.164,410.281 902.064,410.762 901.034,411.38 900.21,411.861 899.454,412.41 898.561,413.166 897.942,414.128 897.324,414.884 897.255,415.777 897.255,416.67 897.942,417.151 898.767,417.838 899.935,418.112 901.377,418.593 910.24,414.334 L914.087,413.235 M900.072,418.731 Q898.973,418.937 898.217,419.899 897.324,420.861 896.637,421.891 896.362,422.234 896.225,422.715 896.225,423.677 896.843,424.227 897.668,424.708 898.561,425.051 900.003,425.601 901.515,424.845 902.614,424.295 903.645,423.677 904.125,423.54 904.606,423.265 M918.965,428.761 Q919.995,432.265 921.3,437.28 923.018,442.707 924.735,444.905 926.453,447.104 929.613,449.096 931.331,450.195 934.01,451.775 M926.453,356.969 Q926.934,362.946 927.003,369.061 M914.499,630.396 Q917.316,631.357 920.407,630.739 922.949,630.258 924.804,629.022 M889.08,547.956 Q890.454,554.001 895.469,586.084 900.141,616.312 900.759,622.152 M948.162,545.208 Q945.552,555.787 940.262,581.825 934.01,612.877 934.422,617.343 935.109,624.419 935.727,626.548 936.964,631.083 940.605,635.205 944.109,639.12 944.384,647.433 944.59,652.036 944.04,660.623 944.04,665.433 941.704,674.707 940.468,679.86 937.857,688.791 L933.735,703.905 M840.99,556.887 L852.532,584.779 Q864.554,614.182 867.096,621.465 M869.844,631.77 Q868.814,636.235 865.653,648.532 863.318,659.868 865.035,666.807 867.44,676.493 869.432,682.264 872.043,690.027 875.34,695.661 M880.836,631.083 L885.027,631.701 Q889.698,632.182 891.828,631.77" test="Rihanna Body"/>
      </g>
      <g id="Rihanna-Bottomf0r1">
        <path id="Layer3_0_1_STROKES" stroke="#F60" stroke-width="1.374" stroke-linejoin="round" stroke-linecap="round" fill="none" d="M830.279,460.733 Q824.371,472.687 820.318,479.282 816.196,486.015 814.822,489.038 812.28,494.74 811.387,501.61 810.082,511.983 811.387,520.983 813.173,533.28 819.631,539.051 841.615,558.699 861.881,554.852 873.56,552.654 882.698,544.959 889.911,538.776 891.079,534.242 891.629,531.975 891.903,528.265 892.109,525.243 892.453,524.624 892.728,524.143 897.331,531.357 902.689,539.67 905.849,541.456 909.834,543.723 916.361,544.822 922.269,545.784 928.864,545.578 936.627,545.303 944.94,542.692 955.107,539.395 957.718,534.586 961.29,527.991 963.283,519.54 965.825,508.892 964.588,499.549 963.97,494.808 960.741,487.114 957.306,479.145 953.596,474.473 951.054,471.176 945.215,464.718 939.993,458.947 938.825,457.298" test="Rihanna Bottom"/>
      </g>
      <g id="Rihanna-Headf0r1">
        <path id="Layer2_0_1_STROKES" stroke="#F60" stroke-width="2.748" stroke-linejoin="round" stroke-linecap="round" fill="none" d="M935.038,204.804 L939.778,198.621 Q944,192.232 947.129,190.996 952.281,188.11 956.953,188.522 957.159,188.522 957.434,188.591 959.014,188.728 961.625,189.072 962.243,189.141 962,189.209 964.166,189.347 965.541,189.553 969.388,189.553 974.059,190.034 978.662,190.515 979.349,190.515 981.204,190.515 980.38,192.507 979.555,194.568 976.739,196.698 975.296,197.797 971.449,201.438 968.426,204.255 966.708,205.079 964.647,206.041 960.938,206.041 958.808,206.041 953.587,205.56 952.625,205.491 947.06,204.667 943.763,204.117 941.221,204.392 938.541,204.667 936.412,204.736 L935.038,204.804Z M835.148,232.284 Q838.308,246.505 843.735,254.2 847.789,259.833 871.215,288.756 896.978,320.426 901.924,324.754 907.214,329.357 916.557,330.25 924.595,331.006 931.946,329.014 939.16,327.09 959.701,306.549 981.342,285.046 985.326,273.71 990.616,258.665 993.295,246.849 997.005,230.773 996.73,217.926 996.593,211.399 997.074,211.468 997.417,211.468 998.448,215.659 1001.402,227.475 1002.982,226.994 1006.211,226.033 1008.89,220.811 1012.05,214.491 1010.127,207.484 1008.753,202.537 1006.761,198.553 1005.318,195.736 1004.837,191.751 1004.356,187.904 1008.066,183.439 1011.776,178.836 1011.57,175.057 1011.226,170.042 1010.195,169.286 1008.409,169.149 1006.761,168.874 1004.562,168.531 1001.608,171.897 999.204,174.576 998.173,176.981 M901.787,241.765 Q903.23,238.673 904.535,237.505 905.84,236.269 907.764,236.269 908.657,236.269 913.329,239.773 917.931,243.276 921.229,243.414 924.527,243.551 928.855,239.773 933.183,235.994 935.175,235.857 938.267,235.651 939.366,236.475 939.847,236.818 941.633,239.429 M941.152,228.643 Q943.556,229.742 945.068,232.147 946.854,234.895 945.411,237.025 M914.977,203.155 L914.016,229.399 M900.413,230.086 Q893.268,234.345 896.085,239.635" test="Rihanna Head"/>
        <path id="Layer2_0_2_STROKES" stroke="#FFF" stroke-width="2.748" stroke-linejoin="round" stroke-linecap="round" fill="none" d="M961.625,189.072 L958.877,196.492 967.395,194.018 Q967.945,195.392 967.945,197.041 967.945,200.614 965.334,203.155 962.861,205.697 959.22,205.697 955.648,205.697 953.037,203.155 950.564,200.614 950.564,197.041 950.564,193.469 953.037,190.858 954.961,189.072 957.434,188.591" test="Rihanna Head"/>
        <path id="Layer2_0_3_STROKES" stroke="#F00" stroke-width="2.748" stroke-linejoin="round" stroke-linecap="round" fill="none" d="M971.655,85.335 Q963.205,107.044 955.236,121.334 937.511,153.073 916.695,173.683 895.81,194.293 864.758,212.361 833.637,230.429 830.682,231.46 827.728,232.422 825.667,228.712 L824.362,224.384 823.263,233.727 Q821.614,236.475 819.278,234.483 814.607,230.498 811.172,206.797 806.844,177.118 807.805,168.531 808.973,157.813 820.515,131.501 831.301,106.975 841.331,94.266 848.682,84.991 856.788,80.938 865.582,76.541 867.78,76.541 865.857,75.442 862.491,75.167 855.758,74.618 848.544,78.74 844.422,81.075 844.422,80.114 844.354,79.289 847.583,76.335 855.964,68.709 865.582,64.45 875.887,59.916 887.91,57.718 899.932,55.519 907.352,56.756 914.359,57.924 923.84,61.565 932.702,65 935.381,67.198 937.305,68.847 940.534,68.503 948.366,67.748 950.22,67.748 955.648,67.748 965.266,71.183 976.326,75.099 978.25,75.442 994.12,78.053 996.387,80.938 997.074,81.763 995.356,81.625 992.402,81.213 989.998,81.075 979.761,80.457 971.655,85.335Z M978.25,95.228 Q980.105,92.755 981.067,91.861 981.548,91.312 982.647,90.281 M976.052,127.654 Q977.013,125.799 978.525,122.502 978.594,122.364 980.448,120.509 M981.548,113.364 Q985.257,111.853 986.425,111.097 987.25,110.548 987.593,109.517 M967.808,119.96 Q971.036,115.906 971.998,114.876 972.891,113.914 973.304,113.914 M989.242,105.67 Q991.99,105.052 993.501,104.159 994.326,103.678 995.288,102.922 M996.936,121.059 L999.684,120.509 Q1000.44,120.303 1000.784,119.96 M989.242,126.005 Q990.479,123.257 992.54,121.746 993.639,120.922 995.288,119.96 M935.381,97.426 Q933.526,100.105 922.534,119.616 915.252,132.601 906.802,139.745 M1002.432,139.196 Q1005.455,138.852 1005.661,138.715 1005.936,138.509 1006.829,137.547 M995.837,151.837 Q997.761,151.081 998.929,150.325 999.684,149.913 1000.784,149.089 M994.188,135.349 Q997.28,131.639 998.173,130.746 998.654,130.265 999.684,129.303 M1004.631,154.035 Q1006.211,153.691 1007.104,153.279 1007.791,152.936 1007.928,152.936 M986.494,150.188 Q990.066,146.066 990.204,145.722 990.204,145.035 991.44,142.493 M981.548,135.898 L983.746,132.601 M999.135,165.027 Q1001.058,162.622 1002.501,161.523 1003.806,160.493 1004.081,160.081 M894.711,104.571 Q892.169,106.975 888.665,112.128 884.681,118.448 882.414,121.677 873.963,133.975 865.582,137.547 M881.52,154.585 Q870.391,164.477 862.559,171.073 847.789,183.507 841.949,185.912" test="Rihanna Head"/>
        <path id="Layer1_0_1_STROKES" stroke="#F0F" stroke-width="2.748" stroke-linejoin="round" stroke-linecap="round" fill="none" d="M897.596,273.023 Q898.283,273.092 898.833,273.092 897.596,272.68 896.84,272.268 900.825,269.588 907.489,264.436 912.848,260.52 915.939,260.108 918.756,259.696 920.267,260.795 922.053,262.031 923.359,262.031 924.87,262.031 927.412,260.863 929.816,259.764 931.877,259.902 934.557,260.039 939.778,264.505 944.106,268.146 949.053,273.71 L948.915,273.985 948.846,274.054 Q947.953,275.359 942.87,282.573 938.541,288.756 935.244,289.717 930.229,291.229 924.939,291.091 918.275,290.885 913.054,288 906.939,284.634 903.23,281.267 898.902,277.489 895.467,272.062 M948.846,274.054 Q944.45,276.39 938.335,278.519 931.465,281.061 926.931,280.855 918.687,280.512 911.405,277.558 909.55,276.802 905.703,275.016 903.642,273.985 901.856,273.71 900.069,273.436 898.833,273.092 899.863,273.023 900.619,272.817 901.65,272.542 905.703,271.375 910.512,270.138 912.435,269.932 915.252,269.657 917.863,270.619 920.473,271.581 922.878,271.512 924.595,271.443 928.099,270.619 930.916,269.932 935.656,270.413 939.778,270.756 942.663,271.581 945.961,272.542 948.915,273.985" test="Rihanna Head"/>
        <path id="Layer1_0_2_STROKES" stroke="#F60" stroke-width="2.748" stroke-linejoin="round" stroke-linecap="round" fill="none" d="M934.007,183.576 Q938.129,181.309 945.618,177.462 953.93,173.202 955.991,172.447 964.304,169.424 968.357,169.424 977.563,169.424 980.311,172.584 982.097,174.645 983.609,177.256 984.845,179.523 984.983,180.416" test="Rihanna Head"/>
      </g>
    </g>
  </g>
</svg>