<?xml version="1.0" encoding="utf-8"?>
<svg id="EdithAnim07" image-rendering="inherit" baseProfile="basic" version="1.1" x="0px" y="0px" width="800" height="600" xmlns="http://www.w3.org/2000/svg" xmlns:xlink="http://www.w3.org/1999/xlink">
  <g id="Rihanna-rearf1r1" overflow="visible">
    <g id="RihannaWholeBodyf0r1">
      <g id="Rihanna-Body">
        <path id="Layer4_0_1_STROKES" stroke="#F60" stroke-width="1.374" stroke-linejoin="round" stroke-linecap="round" fill="none" d="M901.377,329.833 Q904.331,331.276 910.171,333.886 915.529,336.497 920.956,339.795 929.613,345.016 945.001,360.405 945.551,360.954 940.055,346.321 933.46,328.734 933.322,321.933 933.116,312.727 933.048,312.589 932.91,311.834 930.231,309.91 928.582,308.742 923.224,307.643 918.758,306.75 918.208,305.101 917.521,302.971 918.071,302.422 918.277,302.078 920.956,300.979 922.536,300.361 925.147,302.078 927.483,303.727 928.513,302.696 929.681,301.597 929.819,298.437 929.956,294.04 930.574,292.048 931.742,288.27 932.635,287.376 933.735,286.277 935.727,287.583 937.925,288.956 942.528,295.346 947.269,302.01 949.81,307.506 952.352,313.07 957.436,336.153 962.451,358.893 962.52,364.526 962.52,364.87 963.413,375.175 963.894,380.877 962.52,382.732 960.871,384 945.139,384.312 930.094,383.625 921.3,381.358 916.422,380.121 908.041,374.419 L900.553,369.061 Q900.553,370.16 900.553,371.259 900.621,381.839 899.316,384.793 893.064,399.151 890.728,402.311 M845.73,289.987 Q844.906,293.834 843.257,301.666 840.715,308.124 833.02,311.284 829.379,312.795 817.975,316.23 809.181,318.91 804.922,321.452 802.792,322.757 801.075,324.337 795.373,329.627 792.35,334.23 789.19,338.97 787.678,344.603 786.236,350.1 787.266,360.611 788.228,370.572 790.426,376.549 790.495,376.755 790.632,376.961 792.762,382.938 795.991,393 799.564,405.953 801.075,412.96 802.174,417.838 805.403,431.165 808.014,442.845 807.601,446.28 807.189,449.852 807.189,452.119 807.121,453.699 807.258,453.837 M804.922,321.452 Q785.824,328.665 778.541,343.436 771.19,358.206 782.801,370.023 785.755,373.664 788.365,375.518 789.465,376.343 790.632,376.961 M889.354,418.044 Q888.324,418.25 887.5,418.593 886.469,419.006 885.37,419.349 884.271,419.899 883.24,420.517 882.072,421.204 880.973,421.685 880.149,422.097 879.393,422.509 L878.156,423.265 Q877.332,424.158 876.782,425.257 876.233,426.15 876.164,427.181 876.164,427.868 876.37,428.555 876.851,428.761 877.401,429.036 881.11,428.692 884.202,427.524 887.293,426.288 887.568,426.425 L891.072,424.639 Q891.278,425.051 895.263,425.189 899.179,425.257 900.484,422.166 900.278,418.731 897.667,416.464 897.667,415.158 898.285,413.991 898.285,412.823 897.324,412.204 896.499,411.655 895.606,411.174 L895.537,410.006 Q896.774,408.426 896.018,406.571 895.95,406.296 895.881,406.09 894.163,405.197 892.034,405.403 891.69,405.403 891.347,405.472 L890.522,406.365 Q887.293,406.64 884.408,407.739 883.378,408.014 882.347,408.357 880.492,408.769 879.118,409.113 877.882,409.594 876.714,410.281 875.614,410.762 874.584,411.38 873.76,411.861 873.004,412.41 872.111,413.166 871.492,414.128 870.874,414.884 870.805,415.777 870.805,416.67 871.492,417.151 872.317,417.838 873.485,418.112 874.927,418.593 883.79,414.334 L887.637,413.235 M873.622,418.731 Q872.523,418.937 871.767,419.899 870.874,420.861 870.187,421.891 869.912,422.234 869.775,422.715 869.775,423.677 870.393,424.227 871.218,424.708 872.111,425.051 873.553,425.601 875.065,424.845 876.164,424.295 877.195,423.677 877.675,423.54 878.156,423.265 M892.515,428.761 Q893.545,432.265 894.85,437.28 896.568,442.707 898.285,444.905 900.003,447.104 903.163,449.096 904.881,450.195 907.56,451.775 M900.003,356.969 Q900.484,362.946 900.553,369.061 M888.049,630.396 Q890.866,631.357 893.957,630.739 896.499,630.258 898.354,629.022 M862.63,547.956 Q864.004,554.001 869.019,586.084 873.691,616.312 874.309,622.152 M921.712,545.208 Q919.102,555.787 913.812,581.825 907.56,612.877 907.972,617.343 908.659,624.419 909.277,626.548 910.514,631.083 914.155,635.205 917.659,639.12 917.934,647.433 918.14,652.036 917.59,660.623 917.59,665.433 915.254,674.707 914.018,679.86 911.407,688.791 L907.285,703.905 M814.54,556.887 L826.082,584.779 Q838.104,614.182 840.646,621.465 M843.394,631.77 Q842.364,636.235 839.203,648.532 836.868,659.868 838.585,666.807 840.99,676.493 842.982,682.264 845.593,690.027 848.89,695.661 M854.386,631.083 L858.577,631.701 Q863.248,632.182 865.378,631.77" test="Rihanna Body"/>
      </g>
      <g id="Rihanna-Bottomf0r1">
        <path id="Layer3_0_1_STROKES" stroke="#F60" stroke-width="1.374" stroke-linejoin="round" stroke-linecap="round" fill="none" d="M803.829,460.733 Q797.921,472.687 793.868,479.282 789.746,486.015 788.372,489.038 785.83,494.74 784.937,501.61 783.632,511.983 784.937,520.983 786.723,533.28 793.181,539.051 815.165,558.699 835.431,554.852 847.11,552.654 856.248,544.959 863.461,538.776 864.629,534.242 865.179,531.975 865.453,528.265 865.659,525.243 866.003,524.624 866.278,524.143 870.881,531.357 876.239,539.67 879.399,541.456 883.384,543.723 889.911,544.822 895.819,545.784 902.414,545.578 910.177,545.303 918.49,542.692 928.657,539.395 931.268,534.586 934.84,527.991 936.833,519.54 939.375,508.892 938.138,499.549 937.52,494.808 934.291,487.114 930.856,479.145 927.146,474.473 924.604,471.176 918.765,464.718 913.543,458.947 912.375,457.298" test="Rihanna Bottom"/>
      </g>
      <g id="Rihanna-Headf0r1">
        <path id="Layer2_0_1_STROKES" stroke="#F60" stroke-width="2.748" stroke-linejoin="round" stroke-linecap="round" fill="none" d="M908.588,204.804 L913.328,198.621 Q918.549,192.232 920.679,190.996 925.831,188.11 930.503,188.522 930.709,188.522 930.984,188.591 932.564,188.728 935.175,189.072 935.793,189.141 936.549,189.209 937.717,189.347 939.091,189.553 942.938,189.553 947.609,190.034 952.212,190.515 952.899,190.515 954.754,190.515 953.93,192.507 953.105,194.568 950.289,196.698 948.846,197.797 944,201.438 941.976,204.255 940.258,205.079 938.197,206.041 934.488,206.041 932.358,206.041 927.137,205.56 926.175,205.491 920.61,204.667 917.313,204.117 914.771,204.392 912.091,204.667 909.962,204.736 L908.588,204.804Z M808.698,232.284 Q811.858,246.505 817.285,254.2 821.339,259.833 844.765,288.756 870.528,320.426 875.474,324.754 880.764,329.357 890.107,330.25 898.145,331.006 905.496,329.014 912.71,327.09 933.251,306.549 954.892,285.046 958.876,273.71 964.166,258.665 966.845,246.849 970.555,230.773 970.28,217.926 970.143,211.399 970.624,211.468 970.967,211.468 971.998,215.659 974.952,227.475 976.532,226.994 979.761,226.033 982.44,220.811 985.6,214.491 983.677,207.484 982.303,202.537 980.311,198.553 978.868,195.736 978.387,191.751 977.906,187.904 981.616,183.439 985.326,178.836 985.12,175.057 984.776,170.042 983.746,169.286 981.959,169.149 980.311,168.874 978.112,168.531 975.158,171.897 972.754,174.576 971.723,176.981 M875.337,241.765 Q876.78,238.673 878.085,237.505 879.39,236.269 881.314,236.269 882.207,236.269 886.879,239.773 891.481,243.276 894.779,243.414 898.077,243.551 902.405,239.773 906.733,235.994 908.725,235.857 911.817,235.651 912.916,236.475 913.397,236.818 915.183,239.429 M914.702,228.643 Q917.107,229.742 918.618,232.147 920.404,234.895 918.961,237.025 M888.527,203.155 L887.566,229.399 M873.963,230.086 Q866.818,234.345 869.635,239.635" test="Rihanna Head"/>
        <path id="Layer2_0_2_STROKES" stroke="#FFF" stroke-width="2.748" stroke-linejoin="round" stroke-linecap="round" fill="none" d="M935.175,189.072 L932.427,196.492 940.945,194.018 Q941.495,195.392 941.495,197.041 941.495,200.614 938.884,203.155 936.411,205.697 932.77,205.697 929.198,205.697 926.587,203.155 924.114,200.614 924.114,197.041 924.114,193.469 926.587,190.858 928.511,189.072 930.984,188.591" test="Rihanna Head"/>
        <path id="Layer2_0_3_STROKES" stroke="#F00" stroke-width="2.748" stroke-linejoin="round" stroke-linecap="round" fill="none" d="M945.205,85.335 Q936.755,107.044 928.786,121.334 911.061,153.073 890.245,173.683 869.36,194.293 838.308,212.361 807.187,230.429 804.232,231.46 801.278,232.422 799.217,228.712 L797.912,224.384 796.813,233.727 Q795.164,236.475 792.828,234.483 788.157,230.498 784.722,206.797 780.394,177.118 781.355,168.531 782.523,157.813 794.065,131.501 804.851,106.975 814.881,94.266 822.232,84.991 830.338,80.938 839.132,76.541 841.33,76.541 839.407,75.442 836.041,75.167 829.308,74.618 822.094,78.74 817.972,81.075 817.972,80.114 817.904,79.289 821.133,76.335 829.514,68.709 839.132,64.45 849.437,59.916 861.46,57.718 873.482,55.519 880.902,56.756 887.909,57.924 897.39,61.565 906.252,65 908.931,67.198 910.855,68.847 914.084,68.503 921.916,67.748 923.77,67.748 929.198,67.748 938.816,71.183 949.876,75.099 951.8,75.442 967.67,78.053 969.937,80.938 970.624,81.763 968.906,81.625 965.952,81.213 963.548,81.075 953.311,80.457 945.205,85.335Z M951.8,95.228 Q953.655,92.755 954.617,91.861 955.098,91.312 956.197,90.281 M949.602,127.654 Q950.563,125.799 952.075,122.502 952.144,122.364 953.998,120.509 M955.098,113.364 Q958.807,111.853 959.975,111.097 960.8,110.548 961.143,109.517 M941.358,119.96 Q944.587,115.906 945.548,114.876 946.441,113.914 946.854,113.914 M962.792,105.67 Q965.54,105.052 967.051,104.159 967.876,103.678 968.838,102.922 M970.486,121.059 L973.234,120.509 Q973.99,120.303 974.334,119.96 M962.792,126.005 Q964.029,123.257 966.09,121.746 967.189,120.922 968.838,119.96 M908.931,97.426 Q907.076,100.105 896.084,119.616 888.802,132.601 880.352,139.745 M975.982,139.196 Q979.005,138.852 979.211,138.715 979.486,138.509 980.379,137.547 M969.387,151.837 Q971.311,151.081 972.479,150.325 973.234,149.913 974.334,149.089 M967.738,135.349 Q970.83,131.639 971.723,130.746 972.204,130.265 973.234,129.303 M978.181,154.035 Q979.761,153.691 980.654,153.279 981.341,152.936 981.478,152.936 M960.044,150.188 Q963.616,146.066 963.754,145.722 963.754,145.035 964.99,142.493 M955.098,135.898 L957.296,132.601 M972.685,165.027 Q974.608,162.622 976.051,161.523 977.356,160.493 977.631,160.081 M868.261,104.571 Q865.719,106.975 862.215,112.128 858.231,118.448 855.964,121.677 847.513,133.975 839.132,137.547 M855.07,154.585 Q843.941,164.477 836.109,171.073 821.339,183.507 815.499,185.912" test="Rihanna Head"/>
        <path id="Layer1_0_1_STROKES" stroke="#F0F" stroke-width="2.748" stroke-linejoin="round" stroke-linecap="round" fill="none" d="M871.146,273.023 Q871.833,273.092 872.383,273.092 871.146,272.68 870.391,272.268 874.375,269.588 881.039,264.436 886.398,260.52 889.489,260.108 892.306,259.696 893.817,260.795 895.603,262.031 896.909,262.031 898.42,262.031 900.962,260.863 903.367,259.764 905.428,259.902 908.107,260.039 913.328,264.505 917.656,268.146 922.603,273.71 L922.465,273.985 922.396,274.054 Q921.503,275.359 916.42,282.573 912.091,288.756 908.794,289.717 903.779,291.229 898.489,291.091 891.825,290.885 886.604,288 880.489,284.634 876.78,281.267 872.452,277.489 869.017,272.062 M922.396,274.054 Q918,276.39 911.885,278.519 905.015,281.061 900.481,280.855 892.237,280.512 884.955,277.558 883.1,276.802 879.253,275.016 877.192,273.985 875.406,273.71 873.619,273.436 872.383,273.092 873.413,273.023 874.169,272.817 875.2,272.542 879.253,271.375 884.062,270.138 885.985,269.932 888.802,269.657 891.413,270.619 894.023,271.581 896.428,271.512 898.145,271.443 901.649,270.619 904.466,269.932 909.206,270.413 913.328,270.756 916.213,271.581 919.511,272.542 922.465,273.985" test="Rihanna Head"/>
        <path id="Layer1_0_2_STROKES" stroke="#F60" stroke-width="2.748" stroke-linejoin="round" stroke-linecap="round" fill="none" d="M907.557,183.576 Q911.679,181.309 919.168,177.462 927.48,173.202 929.541,172.447 937.854,169.424 941.907,169.424 951.113,169.424 953.861,172.584 955.647,174.645 957.159,177.256 958.395,179.523 958.533,180.416" test="Rihanna Head"/>
      </g>
    </g>
  </g>
</svg>