<?xml version="1.0" encoding="utf-8"?>
<svg id="EdithAnim07" image-rendering="inherit" baseProfile="basic" version="1.1" x="0px" y="0px" width="800" height="600" xmlns="http://www.w3.org/2000/svg" xmlns:xlink="http://www.w3.org/1999/xlink">
  <g id="Rihanna-rearf11r1" overflow="visible">
    <g id="RihannaWholeBodyf0r1">
      <g id="Rihanna-Body">
        <path id="Layer4_0_1_STROKES" stroke="#F60" stroke-width="1.374" stroke-linejoin="round" stroke-linecap="round" fill="none" d="M676.577,329.833 Q679.531,331.276 685.371,333.886 690.729,336.497 696.156,339.795 704.813,345.016 720.201,360.405 720.751,360.954 715.255,346.321 708.66,328.734 708.522,321.933 708.316,312.727 708.248,312.589 708.11,311.834 705.431,309.91 703.782,308.742 698.424,307.643 693.958,306.75 693.408,305.101 692.721,302.971 693.271,302.422 693.477,302.078 696.156,300.979 697.737,300.361 700.347,302.078 702.683,303.727 703.713,302.696 704.881,301.597 705.019,298.437 705.156,294.04 705.774,292.048 706.942,288.27 707.835,287.376 708.935,286.277 710.927,287.583 713.125,288.956 717.728,295.346 722.469,302.01 725.01,307.506 727.552,313.07 732.636,336.153 737.651,358.893 737.72,364.526 737.72,364.87 738.613,375.175 739.094,380.877 737.72,382.732 736.071,384 720.339,384.312 705.294,383.625 696.5,381.358 691.622,380.121 683.241,374.419 L675.753,369.061 Q675.753,370.16 675.753,371.259 675.821,381.839 674.516,384.793 668.264,399.151 665.928,402.311 M620.93,289.987 Q620.106,293.834 618.457,301.666 615.915,308.124 608.22,311.284 604.579,312.795 593.175,316.23 584.382,318.91 580.122,321.452 577.992,322.757 576.275,324.337 570.573,329.627 567.55,334.23 564.39,338.97 562.878,344.603 561.436,350.1 562.466,360.611 563.428,370.572 565.626,376.549 565.695,376.755 565.833,376.961 567.962,382.938 571.191,393 574.764,405.953 576.275,412.96 577.374,417.838 580.603,431.165 583.214,442.845 582.801,446.28 582.389,449.852 582.389,452.119 582.321,453.699 582.458,453.837 M580.122,321.452 Q561.024,328.665 553.741,343.436 546.39,358.206 558.001,370.023 560.955,373.664 563.565,375.518 564.665,376.343 565.833,376.961 M664.554,418.044 Q663.524,418.25 662.7,418.593 661.669,419.006 660.57,419.349 659.471,419.899 658.44,420.517 657.272,421.204 656.173,421.685 655.349,422.097 654.593,422.509 L653.356,423.265 Q652.532,424.158 651.982,425.257 651.433,426.15 651.364,427.181 651.364,427.868 651.57,428.555 652.051,428.761 652.601,429.036 656.31,428.692 659.402,427.524 662.493,426.288 662.768,426.425 L666.272,424.639 Q666.478,425.051 670.463,425.189 674.379,425.257 675.684,422.166 675.478,418.731 672.867,416.464 672.867,415.158 673.485,413.991 673.485,412.823 672.524,412.204 671.699,411.655 670.806,411.174 L670.737,410.006 Q671.974,408.426 671.218,406.571 671.15,406.296 671.081,406.09 669.363,405.197 667.234,405.403 666.89,405.403 666.547,405.472 L665.722,406.365 Q662.493,406.64 659.608,407.739 658.578,408.014 657.547,408.357 655.692,408.769 654.318,409.113 653.082,409.594 651.914,410.281 650.814,410.762 649.784,411.38 648.96,411.861 648.204,412.41 647.311,413.166 646.692,414.128 646.074,414.884 646.005,415.777 646.005,416.67 646.692,417.151 647.517,417.838 648.685,418.112 650.127,418.593 658.99,414.334 L662.837,413.235 M648.822,418.731 Q647.723,418.937 646.967,419.899 646.074,420.861 645.387,421.891 645.112,422.234 644.975,422.715 644.975,423.677 645.593,424.227 646.418,424.708 647.311,425.051 648.753,425.601 650.265,424.845 651.364,424.295 652.395,423.677 652.875,423.54 653.356,423.265 M667.715,428.761 Q668.745,432.265 670.05,437.28 671.768,442.707 673.485,444.905 675.203,447.104 678.363,449.096 680.081,450.195 682.76,451.775 M675.203,356.969 Q675.684,362.946 675.753,369.061 M663.249,630.396 Q666.066,631.357 669.157,630.739 671.699,630.258 673.554,629.022 M637.83,547.956 Q639.204,554.001 644.219,586.084 648.891,616.312 649.509,622.152 M696.912,545.208 Q694.302,555.787 689.012,581.825 682.76,612.877 683.172,617.343 683.859,624.419 684.477,626.548 685.714,631.083 689.355,635.205 692.859,639.12 693.134,647.433 693.34,652.036 692.79,660.623 692.79,665.433 690.454,674.707 689.218,679.86 686.607,688.791 L682.485,703.905 M589.74,556.887 L601.282,584.779 Q613.304,614.182 615.846,621.465 M618.594,631.77 Q617.564,636.235 614.403,648.532 612.068,659.868 613.785,666.807 616.19,676.493 618.182,682.264 620.793,690.027 624.09,695.661 M629.586,631.083 L633.777,631.701 Q638.448,632.182 640.578,631.77" test="Rihanna Body"/>
      </g>
      <g id="Rihanna-Bottomf0r1">
        <path id="Layer3_0_1_STROKES" stroke="#F60" stroke-width="1.374" stroke-linejoin="round" stroke-linecap="round" fill="none" d="M579.029,460.733 Q573.121,472.687 569.068,479.282 564.946,486.015 563.572,489.038 561.03,494.74 560.137,501.61 558.832,511.983 560.137,520.983 561.923,533.28 568.381,539.051 590.365,558.699 610.631,554.852 622.31,552.654 631.448,544.959 638.661,538.776 639.829,534.242 640.379,531.975 640.653,528.265 640.859,525.243 641.203,524.624 641.478,524.143 646.081,531.357 651.439,539.67 654.599,541.456 658.584,543.723 665.111,544.822 671.019,545.784 677.614,545.578 685.377,545.303 693.69,542.692 703.857,539.395 706.468,534.586 710.04,527.991 712.033,519.54 714.575,508.892 713.338,499.549 712.72,494.808 709.491,487.114 706.056,479.145 702.346,474.473 699.804,471.176 693.965,464.718 688.743,458.947 687.575,457.298" test="Rihanna Bottom"/>
      </g>
      <g id="Rihanna-Headf0r1">
        <path id="Layer2_0_1_STROKES" stroke="#F60" stroke-width="2.748" stroke-linejoin="round" stroke-linecap="round" fill="none" d="M683.788,204.804 L688.528,198.621 Q693.749,192.232 695.879,190.996 701.031,188.11 705.703,188.522 705.909,188.522 706.184,188.591 707.764,188.728 710.375,189.072 710.993,189.141 711.749,189.209 712.916,189.347 714.291,189.553 718.138,189.553 722.809,190.034 727.412,190.515 728.099,190.515 729.954,190.515 729.13,192.507 728.305,194.568 725.489,196.698 724.046,197.797 720.199,201.438 717.176,204.255 715.458,205.079 713.397,206.041 709.688,206.041 707.558,206.041 702.337,205.56 701.375,205.491 695.81,204.667 692.513,204.117 689.971,204.392 687.291,204.667 685.162,204.736 L683.788,204.804Z M583.898,232.284 Q587.058,246.505 592.485,254.2 596.539,259.833 619.965,288.756 645.728,320.426 650.674,324.754 655.964,329.357 665.307,330.25 673.345,331.006 680.696,329.014 687.91,327.09 708.451,306.549 730.092,285.046 734.076,273.71 739.366,258.665 742.045,246.849 745.755,230.773 745.48,217.926 745.343,211.399 745.824,211.468 746.167,211.468 747.198,215.659 750.152,227.475 751.732,226.994 754.961,226.033 757.64,220.811 760.8,214.491 758.877,207.484 757.503,202.537 755.511,198.553 754.068,195.736 753.587,191.751 753.106,187.904 756.816,183.439 760.526,178.836 760.32,175.057 759.976,170.042 758.945,169.286 757.159,169.149 755.511,168.874 753.312,168.531 750.358,171.897 747.954,174.576 746.923,176.981 M650.537,241.765 Q651.98,238.673 653.285,237.505 654.59,236.269 656.514,236.269 657.407,236.269 662.079,239.773 666.681,243.276 669.979,243.414 673.277,243.551 677.605,239.773 681.933,235.994 683.925,235.857 687.017,235.651 688.116,236.475 688.597,236.818 690.383,239.429 M689.902,228.643 Q692.306,229.742 693.818,232.147 695.604,234.895 694.161,237.025 M663.727,203.155 L662.766,229.399 M649.163,230.086 Q642.018,234.345 644.835,239.635" test="Rihanna Head"/>
        <path id="Layer2_0_2_STROKES" stroke="#FFF" stroke-width="2.748" stroke-linejoin="round" stroke-linecap="round" fill="none" d="M710.375,189.072 L707.627,196.492 716.145,194.018 Q716.695,195.392 716.695,197.041 716.695,200.614 714.084,203.155 711.611,205.697 707.97,205.697 704.398,205.697 701.787,203.155 699.314,200.614 699.314,197.041 699.314,193.469 701.787,190.858 703.711,189.072 706.184,188.591" test="Rihanna Head"/>
        <path id="Layer2_0_3_STROKES" stroke="#F00" stroke-width="2.748" stroke-linejoin="round" stroke-linecap="round" fill="none" d="M720.405,85.335 Q711.955,107.044 703.986,121.334 686.261,153.073 665.445,173.683 644.56,194.293 613.508,212.361 582.387,230.429 579.432,231.46 576.478,232.422 574.417,228.712 L573.112,224.384 572.013,233.727 Q570.364,236.475 568.028,234.483 563.357,230.498 559.922,206.797 555.594,177.118 556.555,168.531 557.723,157.813 569.265,131.501 580.051,106.975 590.081,94.266 597.432,84.991 605.538,80.938 614.332,76.541 616.53,76.541 614.607,75.442 611.241,75.167 604.508,74.618 597.294,78.74 593.172,81.075 593.172,80.114 593.104,79.289 596.333,76.335 604.714,68.709 614.332,64.45 624.637,59.916 636.66,57.718 648.682,55.519 656.102,56.756 663.109,57.924 672.59,61.565 681.452,65 684.131,67.198 686.055,68.847 689.284,68.503 697.116,67.748 698.97,67.748 704.398,67.748 714.016,71.183 725.076,75.099 727,75.442 742.87,78.053 745.137,80.938 745.824,81.763 744.106,81.625 741.152,81.213 738.748,81.075 728.511,80.457 720.405,85.335Z M727,95.228 Q728.855,92.755 729.817,91.861 730.298,91.312 731.397,90.281 M724.802,127.654 Q725.763,125.799 727.275,122.502 727.344,122.364 729.198,120.509 M730.298,113.364 Q734.007,111.853 735.175,111.097 736,110.548 736.343,109.517 M716.558,119.96 Q719.786,115.906 720.748,114.876 721.641,113.914 722.054,113.914 M737.992,105.67 Q740.74,105.052 742.251,104.159 743.076,103.678 744.038,102.922 M745.686,121.059 L748.434,120.509 Q749.19,120.303 749.534,119.96 M737.992,126.005 Q739.229,123.257 741.29,121.746 742.389,120.922 744.038,119.96 M684.131,97.426 Q682.276,100.105 671.284,119.616 664.002,132.601 655.552,139.745 M751.182,139.196 Q754.205,138.852 754.411,138.715 754.686,138.509 755.579,137.547 M744.587,151.837 Q746.511,151.081 747.679,150.325 748.434,149.913 749.534,149.089 M742.938,135.349 Q746.03,131.639 746.923,130.746 747.404,130.265 748.434,129.303 M753.381,154.035 Q754.961,153.691 755.854,153.279 756.541,152.936 756.678,152.936 M735.244,150.188 Q738.816,146.066 738.954,145.722 738.954,145.035 740.19,142.493 M730.298,135.898 L732.496,132.601 M747.885,165.027 Q749.808,162.622 751.251,161.523 752.556,160.493 752.831,160.081 M643.461,104.571 Q640.919,106.975 637.415,112.128 633.431,118.448 631.164,121.677 622.713,133.975 614.332,137.547 M630.27,154.585 Q619.141,164.477 611.309,171.073 596.539,183.507 590.699,185.912" test="Rihanna Head"/>
        <path id="Layer1_0_1_STROKES" stroke="#F0F" stroke-width="2.748" stroke-linejoin="round" stroke-linecap="round" fill="none" d="M646.346,273.023 Q647.033,273.092 647.583,273.092 646.346,272.68 645.59,272.268 649.575,269.588 656.239,264.436 661.598,260.52 664.689,260.108 667.506,259.696 669.017,260.795 670.803,262.031 672.109,262.031 673.62,262.031 676.162,260.863 678.566,259.764 680.627,259.902 683.307,260.039 688.528,264.505 692.856,268.146 697.803,273.71 L697.665,273.985 697.596,274.054 Q696.703,275.359 691.62,282.573 687.291,288.756 683.994,289.717 678.979,291.229 673.689,291.091 667.025,290.885 661.804,288 655.689,284.634 651.98,281.267 647.652,277.489 644.217,272.062 M697.596,274.054 Q693.2,276.39 687.085,278.519 680.215,281.061 675.681,280.855 667.437,280.512 660.155,277.558 658.3,276.802 654.453,275.016 652.392,273.985 650.606,273.71 648.819,273.436 647.583,273.092 648.613,273.023 649.369,272.817 650.4,272.542 654.453,271.375 659.262,270.138 661.185,269.932 664.002,269.657 666.613,270.619 669.223,271.581 671.628,271.512 673.345,271.443 676.849,270.619 679.666,269.932 684.406,270.413 688.528,270.756 691.413,271.581 694.711,272.542 697.665,273.985" test="Rihanna Head"/>
        <path id="Layer1_0_2_STROKES" stroke="#F60" stroke-width="2.748" stroke-linejoin="round" stroke-linecap="round" fill="none" d="M682.757,183.576 Q686.879,181.309 694.368,177.462 702.68,173.202 704.741,172.447 713.054,169.424 717.107,169.424 726.313,169.424 729.061,172.584 730.847,174.645 732.359,177.256 733.595,179.523 733.733,180.416" test="Rihanna Head"/>
      </g>
    </g>
  </g>
</svg>