<?xml version="1.0" encoding="utf-8"?>
<svg id="EdithAnim07" image-rendering="inherit" baseProfile="basic" version="1.1" x="0px" y="0px" width="800" height="600" xmlns="http://www.w3.org/2000/svg" xmlns:xlink="http://www.w3.org/1999/xlink">
  <g id="Rihanna-rearf129r1" overflow="visible">
    <g id="RihannaWholeBodyf0r1">
      <g id="Rihanna-Body">
        <path id="Layer4_0_1_STROKES" stroke="#F60" stroke-width="1.374" stroke-linejoin="round" stroke-linecap="round" fill="none" d="M431.477,329.833 Q434.431,331.276 440.271,333.886 445.629,336.497 451.056,339.795 459.713,345.016 475.101,360.405 475.651,360.954 470.155,346.321 463.56,328.734 463.422,321.933 463.216,312.727 463.148,312.589 463.01,311.834 460.331,309.91 458.682,308.742 453.324,307.643 448.858,306.75 448.308,305.101 447.621,302.971 448.171,302.422 448.377,302.078 451.056,300.979 452.637,300.361 455.247,302.078 457.583,303.727 458.613,302.696 459.781,301.597 459.919,298.437 460.056,294.04 460.674,292.048 461.842,288.27 462.735,287.376 463.835,286.277 465.827,287.583 468.025,288.956 472.628,295.346 477.369,302.01 479.91,307.506 482.452,313.07 487.536,336.153 492.551,358.893 492.62,364.526 492.62,364.87 493.513,375.175 493.994,380.877 492.62,382.732 490.971,384 475.239,384.312 460.194,383.625 451.4,381.358 446.522,380.121 438.141,374.419 L430.653,369.061 Q430.653,370.16 430.653,371.259 430.721,381.839 429.416,384.793 423.164,399.151 420.828,402.311 M375.83,289.987 Q375.006,293.834 373.357,301.666 370.815,308.124 363.12,311.284 359.479,312.795 348.075,316.23 339.282,318.91 335.022,321.452 332.892,322.757 331.175,324.337 325.473,329.627 322.45,334.23 319.29,338.97 317.778,344.603 316.336,350.1 317.366,360.611 318.328,370.572 320.526,376.549 320.595,376.755 320.733,376.961 322.862,382.938 326.091,393 329.664,405.953 331.175,412.96 332.274,417.838 335.503,431.165 338.114,442.845 337.701,446.28 337.289,449.852 337.289,452.119 337.221,453.699 337.358,453.837 M335.022,321.452 Q315.924,328.665 308.641,343.436 301.29,358.206 312.901,370.023 315.855,373.664 318.465,375.518 319.565,376.343 320.733,376.961 M419.454,418.044 Q418.424,418.25 417.6,418.593 416.569,419.006 415.47,419.349 414.371,419.899 413.34,420.517 412.172,421.204 411.073,421.685 410.249,422.097 409.493,422.509 L408.256,423.265 Q407.432,424.158 406.882,425.257 406.333,426.15 406.264,427.181 406.264,427.868 406.47,428.555 406.951,428.761 407.501,429.036 411.21,428.692 414.302,427.524 417.393,426.288 417.668,426.425 L421.172,424.639 Q421.378,425.051 425.363,425.189 429.279,425.257 430.584,422.166 430.378,418.731 427.767,416.464 427.767,415.158 428.385,413.991 428.385,412.823 427.424,412.204 426.599,411.655 425.706,411.174 L425.637,410.006 Q426.874,408.426 426.118,406.571 426.05,406.296 425.981,406.09 424.263,405.197 422.134,405.403 421.79,405.403 421.447,405.472 L420.622,406.365 Q417.393,406.64 414.508,407.739 413.478,408.014 412.447,408.357 410.592,408.769 409.218,409.113 407.982,409.594 406.814,410.281 405.714,410.762 404.684,411.38 403.86,411.861 403.104,412.41 402.211,413.166 401.592,414.128 400.974,414.884 400.905,415.777 400.905,416.67 401.592,417.151 402.417,417.838 403.585,418.112 405.027,418.593 413.89,414.334 L417.737,413.235 M403.722,418.731 Q402.623,418.937 401.867,419.899 400.974,420.861 400.287,421.891 400.012,422.234 399.875,422.715 399.875,423.677 400.493,424.227 401.318,424.708 402.211,425.051 403.653,425.601 405.165,424.845 406.264,424.295 407.295,423.677 407.775,423.54 408.256,423.265 M422.615,428.761 Q423.645,432.265 424.95,437.28 426.668,442.707 428.385,444.905 430.103,447.104 433.263,449.096 434.981,450.195 437.66,451.775 M430.103,356.969 Q430.584,362.946 430.653,369.061 M418.149,630.396 Q420.966,631.357 424.057,630.739 426.599,630.258 428.454,629.022 M392.73,547.956 Q394.104,554.001 399.119,586.084 403.791,616.312 404.409,622.152 M451.812,545.208 Q449.202,555.787 443.912,581.825 437.66,612.877 438.072,617.343 438.759,624.419 439.377,626.548 440.614,631.083 444.255,635.205 447.759,639.12 448.034,647.433 448.24,652.036 447.69,660.623 447.69,665.433 445.354,674.707 444.118,679.86 441.507,688.791 L437.385,703.905 M344.64,556.887 L356.182,584.779 Q368.204,614.182 370.746,621.465 M373.494,631.77 Q372.464,636.235 369.303,648.532 366.968,659.868 368.685,666.807 371.09,676.493 373.082,682.264 375.693,690.027 378.99,695.661 M384.486,631.083 L388.677,631.701 Q393.348,632.182 395.478,631.77" test="Rihanna Body"/>
      </g>
      <g id="Rihanna-Bottomf0r1">
        <path id="Layer3_0_1_STROKES" stroke="#F60" stroke-width="1.374" stroke-linejoin="round" stroke-linecap="round" fill="none" d="M333.929,460.733 Q328.021,472.687 323.968,479.282 319.846,486.015 318.472,489.038 315.93,494.74 315.037,501.61 313.732,511.983 315.037,520.983 316.823,533.28 323.281,539.051 345.265,558.699 365.531,554.852 377.21,552.654 386.348,544.959 393.561,538.776 394.729,534.242 395.279,531.975 395.553,528.265 395.759,525.243 396.103,524.624 396.378,524.143 400.981,531.357 406.339,539.67 409.499,541.456 413.484,543.723 420.011,544.822 425.919,545.784 432.514,545.578 440.277,545.303 448.59,542.692 458.757,539.395 461.368,534.586 464.94,527.991 466.933,519.54 469.475,508.892 468.238,499.549 467.62,494.808 464.391,487.114 460.956,479.145 457.246,474.473 454.704,471.176 448.865,464.718 443.643,458.947 442.475,457.298" test="Rihanna Bottom"/>
      </g>
      <g id="Rihanna-Headf0r1">
        <path id="Layer2_0_1_STROKES" stroke="#F60" stroke-width="2.748" stroke-linejoin="round" stroke-linecap="round" fill="none" d="M438.688,204.804 L443.428,198.621 Q448.649,192.232 450.779,190.996 455.931,188.11 460.603,188.522 460.809,188.522 461.084,188.591 462.664,188.728 465.275,189.072 465.893,189.141 466.649,189.209 467.817,189.347 469.191,189.553 473.038,189.553 477.709,190.034 482.312,190.515 482,190.515 484.854,190.515 484.03,192.507 483.205,194.568 480.389,196.698 478.946,197.797 475.099,201.438 472.076,204.255 470.358,205.079 468.297,206.041 464.588,206.041 462.458,206.041 457.237,205.56 456.275,205.491 450.71,204.667 447.413,204.117 444.871,204.392 442.191,204.667 440.062,204.736 L438.688,204.804Z M338.798,232.284 Q341.958,246.505 347.385,254.2 351.439,259.833 374.865,288.756 400.628,320.426 405.574,324.754 410.864,329.357 420.207,330.25 428.245,331.006 435.596,329.014 442.81,327.09 463.351,306.549 484.992,285.046 488.976,273.71 494.266,258.665 496.945,246.849 500.655,230.773 500.38,217.926 500.243,211.399 500.724,211.468 501.067,211.468 502.098,215.659 505.052,227.475 506.632,226.994 509.861,226.033 512.54,220.811 515.7,214.491 513.777,207.484 512.403,202.537 510.411,198.553 508.968,195.736 508.487,191.751 508.006,187.904 511.716,183.439 515.426,178.836 515.22,175.057 514.876,170.042 513.846,169.286 512.059,169.149 510.411,168.874 508.212,168.531 505.258,171.897 502.854,174.576 501.823,176.981 M405.437,241.765 Q406.88,238.673 408.185,237.505 409.49,236.269 411.414,236.269 412.307,236.269 416.979,239.773 421.581,243.276 424.879,243.414 428.177,243.551 432.505,239.773 436.833,235.994 438.825,235.857 441.917,235.651 443.016,236.475 443.497,236.818 445.283,239.429 M444.802,228.643 Q447.207,229.742 448.718,232.147 450.504,234.895 449.061,237.025 M418.627,203.155 L417.666,229.399 M404.063,230.086 Q396.918,234.345 399.735,239.635" test="Rihanna Head"/>
        <path id="Layer2_0_2_STROKES" stroke="#FFF" stroke-width="2.748" stroke-linejoin="round" stroke-linecap="round" fill="none" d="M465.275,189.072 L462.527,196.492 471.045,194.018 Q471.595,195.392 471.595,197.041 471.595,200.614 468.984,203.155 466.511,205.697 462.87,205.697 459.298,205.697 456.687,203.155 454.214,200.614 454.214,197.041 454.214,193.469 456.687,190.858 458.611,189.072 461.084,188.591" test="Rihanna Head"/>
        <path id="Layer2_0_3_STROKES" stroke="#F00" stroke-width="2.748" stroke-linejoin="round" stroke-linecap="round" fill="none" d="M475.305,85.335 Q466.855,107.044 458.886,121.334 441.161,153.073 420.345,173.683 399.46,194.293 368.408,212.361 337.287,230.429 334.332,231.46 331.378,232.422 329.317,228.712 L328.012,224.384 326.913,233.727 Q325.264,236.475 322.928,234.483 318.257,230.498 314.822,206.797 310.494,177.118 311.455,168.531 312.623,157.813 324.165,131.501 334.951,106.975 344.981,94.266 352.332,84.991 360.438,80.938 369.232,76.541 371.43,76.541 369.507,75.442 366.141,75.167 359.408,74.618 352.194,78.74 348.072,81.075 348.072,80.114 348.004,79.289 351.233,76.335 359.614,68.709 369.232,64.45 379.537,59.916 391.559,57.718 403.582,55.519 411.002,56.756 418.009,57.924 427.49,61.565 436.352,65 439.031,67.198 440.955,68.847 444.184,68.503 452.016,67.748 453.87,67.748 459.298,67.748 468.916,71.183 479.976,75.099 481.9,75.442 497.77,78.053 500.037,80.938 500.724,81.763 499.006,81.625 496.052,81.213 493.648,81.075 483.411,80.457 475.305,85.335Z M481.9,95.228 Q483.755,92.755 484.717,91.861 485.198,91.312 486.297,90.281 M479.702,127.654 Q480.663,125.799 482.175,122.502 482.244,122.364 484.098,120.509 M485.198,113.364 Q488.907,111.853 490.075,111.097 490.9,110.548 491.243,109.517 M471.458,119.96 Q474.687,115.906 475.648,114.876 476.541,113.914 476.954,113.914 M492.892,105.67 Q495.64,105.052 497.151,104.159 497.976,103.678 498.938,102.922 M500.586,121.059 L503.334,120.509 Q504.09,120.303 504.434,119.96 M492.892,126.005 Q494.129,123.257 496.19,121.746 497.289,120.922 498.938,119.96 M439.031,97.426 Q437.176,100.105 426.184,119.616 418.902,132.601 410.452,139.745 M506.082,139.196 Q509.105,138.852 509.311,138.715 509.586,138.509 510.479,137.547 M499.487,151.837 Q501.411,151.081 502.579,150.325 503.334,149.913 504.434,149.089 M497.838,135.349 Q500.93,131.639 501.823,130.746 502.304,130.265 503.334,129.303 M508.281,154.035 Q509.861,153.691 510.754,153.279 511.441,152.936 511.578,152.936 M490.144,150.188 Q493.716,146.066 493.854,145.722 493.854,145.035 495.09,142.493 M485.198,135.898 L487.396,132.601 M502.785,165.027 Q504.708,162.622 506.151,161.523 507.456,160.493 507.731,160.081 M398.361,104.571 Q395.819,106.975 392.315,112.128 388.331,118.448 386.064,121.677 377.613,133.975 369.232,137.547 M385.17,154.585 Q374.041,164.477 366.209,171.073 351.439,183.507 345.599,185.912" test="Rihanna Head"/>
        <path id="Layer1_0_1_STROKES" stroke="#F0F" stroke-width="2.748" stroke-linejoin="round" stroke-linecap="round" fill="none" d="M401.246,273.023 Q401.933,273.092 402.483,273.092 401.246,272.68 400.491,272.268 404.475,269.588 411.139,264.436 416.498,260.52 419.589,260.108 422.406,259.696 423.917,260.795 425.703,262.031 427.009,262.031 428.52,262.031 431.062,260.863 433.467,259.764 435.528,259.902 438.207,260.039 443.428,264.505 447.756,268.146 452.703,273.71 L452.565,273.985 452.496,274.054 Q451.603,275.359 446.52,282.573 442.191,288.756 438.894,289.717 433.879,291.229 428.589,291.091 421.925,290.885 416.704,288 410.589,284.634 406.88,281.267 402.552,277.489 399.117,272.062 M452.496,274.054 Q448.1,276.39 441.985,278.519 435.115,281.061 430.581,280.855 422.337,280.512 415.055,277.558 413.2,276.802 409.353,275.016 407.292,273.985 405.506,273.71 403.719,273.436 402.483,273.092 403.513,273.023 404.269,272.817 405.299,272.542 409.353,271.375 414.162,270.138 416.085,269.932 418.902,269.657 421.513,270.619 424.123,271.581 426.528,271.512 428.245,271.443 431.749,270.619 434.566,269.932 439.306,270.413 443.428,270.756 446.313,271.581 449.611,272.542 452.565,273.985" test="Rihanna Head"/>
        <path id="Layer1_0_2_STROKES" stroke="#F60" stroke-width="2.748" stroke-linejoin="round" stroke-linecap="round" fill="none" d="M437.657,183.576 Q441.779,181.309 449.268,177.462 457.58,173.202 459.641,172.447 467.954,169.424 472.007,169.424 481.213,169.424 483.961,172.584 485.747,174.645 487.259,177.256 488.495,179.523 488.633,180.416" test="Rihanna Head"/>
      </g>
    </g>
  </g>
</svg>