<?xml version="1.0" encoding="utf-8"?>
<svg id="EdithAnim07" image-rendering="inherit" baseProfile="basic" version="1.1" x="0px" y="0px" width="800" height="600" xmlns="http://www.w3.org/2000/svg" xmlns:xlink="http://www.w3.org/1999/xlink">
  <g id="Rihanna-rearf13r1" overflow="visible">
    <g id="RihannaWholeBodyf0r1">
      <g id="Rihanna-Body">
        <path id="Layer4_0_1_STROKES" stroke="#F60" stroke-width="1.374" stroke-linejoin="round" stroke-linecap="round" fill="none" d="M640.327,329.833 Q643.281,331.276 649.121,333.886 654.479,336.497 659.906,339.795 668.563,345.016 683.951,360.405 684.501,360.954 679.005,346.321 672.41,328.734 672.272,321.933 672.066,312.727 671.998,312.589 671.86,311.834 669.181,309.91 667.532,308.742 662.174,307.643 657.708,306.75 657.158,305.101 656.471,302.971 657.021,302.422 657.227,302.078 659.906,300.979 661.487,300.361 664.097,302.078 666.433,303.727 667.463,302.696 668.631,301.597 668.769,298.437 668.906,294.04 669.524,292.048 670.692,288.27 671.585,287.376 672.685,286.277 674.677,287.583 676.875,288.956 681.478,295.346 686.219,302.01 688.76,307.506 691.302,313.07 696.386,336.153 701.401,358.893 701.47,364.526 701.47,364.87 702.363,375.175 702.844,380.877 701.47,382.732 699.821,384 684.089,384.312 669.044,383.625 660.25,381.358 655.372,380.121 646.991,374.419 L639.503,369.061 Q639.503,370.16 639.503,371.259 639.571,381.839 638.266,384.793 632.014,399.151 629.678,402.311 M584.68,289.987 Q583.856,293.834 582.207,301.666 579.665,308.124 571.97,311.284 568.329,312.795 556.925,316.23 548.132,318.91 543.872,321.452 541.742,322.757 540.025,324.337 534.323,329.627 531.3,334.23 528.14,338.97 526.628,344.603 525.186,350.1 526.216,360.611 527.178,370.572 529.376,376.549 529.445,376.755 529.583,376.961 531.712,382.938 534.941,393 538.514,405.953 540.025,412.96 541.124,417.838 544.353,431.165 546.964,442.845 546.551,446.28 546.139,449.852 546.139,452.119 546.071,453.699 546.208,453.837 M543.872,321.452 Q524.774,328.665 517.491,343.436 510.14,358.206 521.751,370.023 524.705,373.664 527.315,375.518 528.415,376.343 529.583,376.961 M628.304,418.044 Q627.274,418.25 626.45,418.593 625.419,419.006 624.32,419.349 623.221,419.899 622.19,420.517 621.022,421.204 619.923,421.685 619.099,422.097 618.343,422.509 L617.106,423.265 Q616.282,424.158 615.732,425.257 615.183,426.15 615.114,427.181 615.114,427.868 615.32,428.555 615.801,428.761 616.351,429.036 620.06,428.692 623.152,427.524 626.243,426.288 626.518,426.425 L630.022,424.639 Q630.228,425.051 634.213,425.189 638.129,425.257 639.434,422.166 639.228,418.731 636.617,416.464 636.617,415.158 637.235,413.991 637.235,412.823 636.274,412.204 635.449,411.655 634.556,411.174 L634.487,410.006 Q635.724,408.426 634.968,406.571 634.9,406.296 634.831,406.09 633.113,405.197 630.984,405.403 630.64,405.403 630.297,405.472 L629.472,406.365 Q626.243,406.64 623.358,407.739 622.328,408.014 621.297,408.357 619.442,408.769 618.068,409.113 616.832,409.594 615.664,410.281 614.564,410.762 613.534,411.38 612.71,411.861 611.954,412.41 611.061,413.166 610.442,414.128 609.824,414.884 609.755,415.777 609.755,416.67 610.442,417.151 611.267,417.838 612.435,418.112 613.877,418.593 622.74,414.334 L626.587,413.235 M612.572,418.731 Q611.473,418.937 610.717,419.899 609.824,420.861 609.137,421.891 608.862,422.234 608.725,422.715 608.725,423.677 609.343,424.227 610.168,424.708 611.061,425.051 612.503,425.601 614.015,424.845 615.114,424.295 616.145,423.677 616.625,423.54 617.106,423.265 M631.465,428.761 Q632.495,432.265 633.8,437.28 635.518,442.707 637.235,444.905 638.953,447.104 642.113,449.096 643.831,450.195 646.51,451.775 M638.953,356.969 Q639.434,362.946 639.503,369.061 M626,630.396 Q629.816,631.357 632.907,630.739 635.449,630.258 637.304,629.022 M601.58,547.956 Q602.954,554.001 607.969,586.084 612.641,616.312 613.259,622.152 M660.662,545.208 Q658.052,555.787 652.762,581.825 646.51,612.877 646.922,617.343 647.609,624.419 648.227,626.548 649.464,631.083 653.105,635.205 656.609,639.12 656.884,647.433 657.09,652.036 656.54,660.623 656.54,665.433 654.204,674.707 652.968,679.86 650.357,688.791 L646.235,703.905 M553.49,556.887 L565.032,584.779 Q577.054,614.182 579.596,621.465 M582.344,631.77 Q581.314,636.235 578.153,648.532 575.818,659.868 577.535,666.807 579.94,676.493 581.932,682.264 584.543,690.027 587.84,695.661 M593.336,631.083 L597.527,631.701 Q602.198,632.182 604.328,631.77" test="Rihanna Body"/>
      </g>
      <g id="Rihanna-Bottomf0r1">
        <path id="Layer3_0_1_STROKES" stroke="#F60" stroke-width="1.374" stroke-linejoin="round" stroke-linecap="round" fill="none" d="M542.779,460.733 Q536.871,472.687 532.818,479.282 528.696,486.015 527.322,489.038 524.78,494.74 523.887,501.61 522.582,511.983 523.887,520.983 525.673,533.28 532.131,539.051 554.115,558.699 574.381,554.852 586.06,552.654 595.198,544.959 602.411,538.776 603.579,534.242 604.129,531.975 604.403,528.265 604.609,525.243 604.953,524.624 605.228,524.143 609.831,531.357 615.189,539.67 618.349,541.456 622.334,543.723 628.861,544.822 634.769,545.784 641.364,545.578 649.127,545.303 657.44,542.692 667.607,539.395 670.218,534.586 673.79,527.991 675.783,519.54 678.325,508.892 677.088,499.549 676.47,494.808 673.241,487.114 669.806,479.145 666.096,474.473 663.554,471.176 657.715,464.718 652.493,458.947 651.325,457.298" test="Rihanna Bottom"/>
      </g>
      <g id="Rihanna-Headf0r1">
        <path id="Layer2_0_1_STROKES" stroke="#F60" stroke-width="2.748" stroke-linejoin="round" stroke-linecap="round" fill="none" d="M647.538,204.804 L652.278,198.621 Q657.499,192.232 659.629,190.996 664.781,188.11 669.453,188.522 669.659,188.522 669.934,188.591 671.514,188.728 674.125,189.072 674.743,189.141 675.499,189.209 676.666,189.347 678.041,189.553 681.888,189.553 686.559,190.034 691.162,190.515 691.849,190.515 693.704,190.515 692.88,192.507 692.055,194.568 689.239,196.698 687.796,197.797 683.949,201.438 680.926,204.255 679.208,205.079 677.147,206.041 673.438,206.041 671.308,206.041 666.087,205.56 665.125,205.491 659.56,204.667 656.263,204.117 653.721,204.392 651.041,204.667 648.912,204.736 L647.538,204.804Z M547.648,232.284 Q550.808,246.505 556.235,254.2 560.289,259.833 583.715,288.756 609.478,320.426 614.424,324.754 619.714,329.357 629.057,330.25 637.095,331.006 644.446,329.014 651.66,327.09 672.201,306.549 693.842,285.046 697.826,273.71 703.116,258.665 705.795,246.849 709.505,230.773 709.23,217.926 709.093,211.399 709.574,211.468 709.917,211.468 710.948,215.659 713.902,227.475 715.482,226.994 718.711,226.033 721.39,220.811 724.55,214.491 722.627,207.484 721.253,202.537 719.261,198.553 717.818,195.736 717.337,191.751 716.856,187.904 720.566,183.439 724.276,178.836 724.07,175.057 723.726,170.042 722.695,169.286 720.909,169.149 719.261,168.874 717.062,168.531 714.108,171.897 711.704,174.576 710.673,176.981 M614.287,241.765 Q615.73,238.673 617.035,237.505 618.34,236.269 620.264,236.269 621.157,236.269 625.829,239.773 630.431,243.276 633.729,243.414 637.027,243.551 641.355,239.773 645.683,235.994 647.675,235.857 650.767,235.651 651.866,236.475 652.347,236.818 654.133,239.429 M653.652,228.643 Q656.056,229.742 657.568,232.147 659.354,234.895 657.911,237.025 M627.477,203.155 L626.516,229.399 M612.913,230.086 Q605.768,234.345 608.585,239.635" test="Rihanna Head"/>
        <path id="Layer2_0_2_STROKES" stroke="#FFF" stroke-width="2.748" stroke-linejoin="round" stroke-linecap="round" fill="none" d="M674.125,189.072 L671.377,196.492 679.895,194.018 Q680.445,195.392 680.445,197.041 680.445,200.614 677.834,203.155 675.361,205.697 671.72,205.697 668.148,205.697 665.537,203.155 663.064,200.614 663.064,197.041 663.064,193.469 665.537,190.858 667.461,189.072 669.934,188.591" test="Rihanna Head"/>
        <path id="Layer2_0_3_STROKES" stroke="#F00" stroke-width="2.748" stroke-linejoin="round" stroke-linecap="round" fill="none" d="M684.155,85.335 Q675.705,107.044 667.736,121.334 650.011,153.073 629.195,173.683 608.31,194.293 577.258,212.361 546.137,230.429 543.182,231.46 540.228,232.422 538.167,228.712 L536.862,224.384 535.763,233.727 Q534.114,236.475 531.778,234.483 527.107,230.498 523.672,206.797 519.343,177.118 520.305,168.531 521.473,157.813 533.015,131.501 543.801,106.975 553.831,94.266 561.182,84.991 569.288,80.938 578.082,76.541 580.28,76.541 578.357,75.442 574.991,75.167 568.258,74.618 561.044,78.74 556.922,81.075 556.922,80.114 556.854,79.289 560.083,76.335 568.464,68.709 578.082,64.45 588.387,59.916 600.41,57.718 612.432,55.519 619.852,56.756 626.859,57.924 636.34,61.565 645.202,65 647.881,67.198 649.805,68.847 653.034,68.503 660.866,67.748 662.72,67.748 668.148,67.748 677.766,71.183 688.826,75.099 690.75,75.442 706.62,78.053 708.887,80.938 709.574,81.763 707.856,81.625 704.902,81.213 702.498,81.075 692.261,80.457 684.155,85.335Z M690.75,95.228 Q692.605,92.755 693.567,91.861 694.048,91.312 695.147,90.281 M688.552,127.654 Q689.513,125.799 691.025,122.502 691.094,122.364 692.948,120.509 M694.048,113.364 Q697.757,111.853 698.925,111.097 699.75,110.548 700.093,109.517 M680.308,119.96 Q683.536,115.906 684.498,114.876 685.391,113.914 685.804,113.914 M701.742,105.67 Q704.49,105.052 706.001,104.159 706.826,103.678 707.788,102.922 M709.436,121.059 L712.184,120.509 Q712.94,120.303 713.284,119.96 M701.742,126.005 Q702.979,123.257 705.04,121.746 706.139,120.922 707.788,119.96 M647.881,97.426 Q646.026,100.105 635.034,119.616 627.752,132.601 619.302,139.745 M714.932,139.196 Q717.955,138.852 718.161,138.715 718.436,138.509 719.329,137.547 M708.337,151.837 Q710.261,151.081 711.429,150.325 712.184,149.913 713.284,149.089 M706.688,135.349 Q709.78,131.639 710.673,130.746 711.154,130.265 712.184,129.303 M717.131,154.035 Q718.711,153.691 719.604,153.279 720.291,152.936 720.428,152.936 M698.994,150.188 Q702.566,146.066 702.704,145.722 702.704,145.035 703.94,142.493 M694.048,135.898 L696.246,132.601 M711.635,165.027 Q713.558,162.622 715.001,161.523 716.306,160.493 716.581,160.081 M607.211,104.571 Q604.669,106.975 601.165,112.128 597.181,118.448 594.914,121.677 586.463,133.975 578.082,137.547 M594.02,154.585 Q582.891,164.477 575.059,171.073 560.289,183.507 554.449,185.912" test="Rihanna Head"/>
        <path id="Layer1_0_1_STROKES" stroke="#F0F" stroke-width="2.748" stroke-linejoin="round" stroke-linecap="round" fill="none" d="M610.096,273.023 Q610.783,273.092 611.333,273.092 610.096,272.68 609.34,272.268 613.325,269.588 619.989,264.436 625.348,260.52 628.439,260.108 631.256,259.696 632.767,260.795 634.553,262.031 635.859,262.031 637.37,262.031 639.912,260.863 642.316,259.764 644.377,259.902 647.057,260.039 652.278,264.505 656.606,268.146 661.553,273.71 L661.415,273.985 661.346,274.054 Q660.453,275.359 655.37,282.573 651.041,288.756 647.744,289.717 642.729,291.229 637.439,291.091 630.775,290.885 625.554,288 619.439,284.634 615.73,281.267 611.402,277.489 607.967,272.062 M661.346,274.054 Q656.95,276.39 650.835,278.519 643.965,281.061 639.431,280.855 631.187,280.512 623.905,277.558 622.05,276.802 618.203,275.016 616.142,273.985 614.356,273.71 612.569,273.436 611.333,273.092 612.363,273.023 613.119,272.817 614.15,272.542 618.203,271.375 623.012,270.138 624.935,269.932 627.752,269.657 630.363,270.619 632.973,271.581 635.378,271.512 637.095,271.443 640.599,270.619 643.416,269.932 648.156,270.413 652.278,270.756 655.163,271.581 658.461,272.542 661.415,273.985" test="Rihanna Head"/>
        <path id="Layer1_0_2_STROKES" stroke="#F60" stroke-width="2.748" stroke-linejoin="round" stroke-linecap="round" fill="none" d="M646.507,183.576 Q650.629,181.309 658.118,177.462 666.43,173.202 668.491,172.447 676.804,169.424 680.857,169.424 690.063,169.424 692.811,172.584 694.597,174.645 696.109,177.256 697.345,179.523 697.483,180.416" test="Rihanna Head"/>
      </g>
    </g>
  </g>
</svg>