<?xml version="1.0" encoding="utf-8"?>
<svg id="EdithAnim07" image-rendering="inherit" baseProfile="basic" version="1.1" x="0px" y="0px" width="800" height="600" xmlns="http://www.w3.org/2000/svg" xmlns:xlink="http://www.w3.org/1999/xlink">
  <g id="Rihanna-rearf14r1" overflow="visible">
    <g id="RihannaWholeBodyf0r1">
      <g id="Rihanna-Body">
        <path id="Layer4_0_1_STROKES" stroke="#F60" stroke-width="1.374" stroke-linejoin="round" stroke-linecap="round" fill="none" d="M623.277,329.833 Q626.231,331.276 632.071,333.886 637.429,336.497 642.856,339.795 651.513,345.016 666.901,360.405 667.451,360.954 661.955,346.321 655.36,328.734 655.222,321.933 655.016,312.727 654.948,312.589 654.81,311.834 652.131,309.91 650.482,308.742 645.124,307.643 640.658,306.75 640.108,305.101 639.421,302.971 639.971,302.422 640.177,302.078 642.856,300.979 644.437,300.361 647.047,302.078 649.383,303.727 650.413,302.696 651.581,301.597 651.719,298.437 651.856,294.04 652.474,292.048 653.642,288.27 654.535,287.376 655.635,286.277 657.627,287.583 659.825,288.956 664.428,295.346 669.169,302.01 671.71,307.506 674.252,313.07 679.336,336.153 684.351,358.893 684.42,364.526 684.42,364.87 685.313,375.175 685.794,380.877 684.42,382.732 682.771,384 667.039,384.312 651.994,383.625 643.2,381.358 638.322,380.121 629.941,374.419 L622.453,369.061 Q622.453,370.16 622.453,371.259 622.521,381.839 621.216,384.793 614.964,399.151 612.628,402.311 M567.63,289.987 Q566.805,293.834 565.157,301.666 562.615,308.124 554.92,311.284 551.279,312.795 539.875,316.23 531.082,318.91 526.822,321.452 524.692,322.757 522.975,324.337 517.273,329.627 514.25,334.23 511.09,338.97 509.578,344.603 508.136,350.1 509.166,360.611 510.128,370.572 512.326,376.549 512.395,376.755 512.533,376.961 514.662,382.938 517.891,393 521.464,405.953 522.975,412.96 524.074,417.838 527.303,431.165 529.914,442.845 529.501,446.28 529.089,449.852 529.089,452.119 529.021,453.699 529.158,453.837 M526.822,321.452 Q507.724,328.665 500.441,343.436 493.09,358.206 504.701,370.023 507.655,373.664 510.265,375.518 511.365,376.343 512.533,376.961 M611.254,418.044 Q610.224,418.25 609.4,418.593 608.369,419.006 607.27,419.349 606.171,419.899 605.14,420.517 603.972,421.204 602.873,421.685 602.049,422.097 601.293,422.509 L600.056,423.265 Q599.232,424.158 598.682,425.257 598.133,426.15 598.064,427.181 598.064,427.868 598.27,428.555 598.751,428.761 599.301,429.036 603.01,428.692 606.102,427.524 609.193,426.288 609.468,426.425 L612.972,424.639 Q613.178,425.051 617.163,425.189 621.079,425.257 622.384,422.166 622.178,418.731 619.567,416.464 619.567,415.158 620.185,413.991 620.185,412.823 619.224,412.204 618.399,411.655 617.506,411.174 L617.437,410.006 Q618.674,408.426 617.918,406.571 617.85,406.296 617.781,406.09 616.063,405.197 613.934,405.403 613.59,405.403 613.247,405.472 L612.422,406.365 Q609.193,406.64 606.308,407.739 605.278,408.014 604.247,408.357 602.392,408.769 601.018,409.113 599.782,409.594 598.614,410.281 597.514,410.762 596.484,411.38 595.66,411.861 594.904,412.41 594.011,413.166 593.392,414.128 592.774,414.884 592.705,415.777 592.705,416.67 593.392,417.151 594.217,417.838 595.385,418.112 596.827,418.593 605.69,414.334 L609.537,413.235 M595.522,418.731 Q594.423,418.937 593.667,419.899 592.774,420.861 592.087,421.891 591.812,422.234 591.675,422.715 591.675,423.677 592.293,424.227 593.118,424.708 594.011,425.051 595.453,425.601 596.965,424.845 598.064,424.295 599.095,423.677 599.575,423.54 600.056,423.265 M614.415,428.761 Q615.445,432.265 616.75,437.28 618.468,442.707 620.185,444.905 621.903,447.104 625.063,449.096 626.781,450.195 629.46,451.775 M621.903,356.969 Q622.384,362.946 622.453,369.061 M609.949,630.396 Q612.766,631.357 615.857,630.739 618.399,630.258 620.254,629.022 M584.53,547.956 Q585.904,554.001 590.919,586.084 595.591,616.312 596.209,622.152 M643.612,545.208 Q641.002,555.787 635.712,581.825 629.46,612.877 629.872,617.343 630.559,624.419 631.177,626.548 632.414,631.083 636.055,635.205 639.559,639.12 639.834,647.433 640.04,652.036 639.49,660.623 639.49,665.433 637.154,674.707 635.918,679.86 633.307,688.791 L629.185,703.905 M536.44,556.887 L547.982,584.779 Q560.004,614.182 562.546,621.465 M565.294,631.77 Q564.264,636.235 561.103,648.532 558.768,659.868 560.485,666.807 562.89,676.493 564.882,682.264 567.493,690.027 570.79,695.661 M576.286,631.083 L580.477,631.701 Q585.148,632.182 587.278,631.77" test="Rihanna Body"/>
      </g>
      <g id="Rihanna-Bottomf0r1">
        <path id="Layer3_0_1_STROKES" stroke="#F60" stroke-width="1.374" stroke-linejoin="round" stroke-linecap="round" fill="none" d="M525.729,460.733 Q519.821,472.687 515.768,479.282 511.646,486.015 510.272,489.038 507.73,494.74 506.837,501.61 505.532,511.983 506.837,520.983 508.623,533.28 515.081,539.051 537.065,558.699 557.331,554.852 569.01,552.654 578.147,544.959 585.361,538.776 586.529,534.242 587.079,531.975 587.353,528.265 587.559,525.243 587.903,524.624 588.178,524.143 592.781,531.357 598.139,539.67 601.299,541.456 605.284,543.723 611.81,544.822 617.719,545.784 624.314,545.578 632.077,545.303 640.39,542.692 650.557,539.395 653.168,534.586 656.74,527.991 658.733,519.54 661.275,508.892 660.038,499.549 659.42,494.808 656.191,487.114 652.756,479.145 649.046,474.473 646.504,471.176 640.665,464.718 635.443,458.947 634.275,457.298" test="Rihanna Bottom"/>
      </g>
      <g id="Rihanna-Headf0r1">
        <path id="Layer2_0_1_STROKES" stroke="#F60" stroke-width="2.748" stroke-linejoin="round" stroke-linecap="round" fill="none" d="M630.488,204.804 L635.228,198.621 Q640.449,192.232 642.579,190.996 647.731,188.11 652.403,188.522 652.609,188.522 652.884,188.591 654.464,188.728 657.075,189.072 657.693,189.141 658.449,189.209 659.617,189.347 660.991,189.553 664.838,189.553 669.509,190.034 674.112,190.515 674.799,190.515 676.654,190.515 675.83,192.507 675.005,194.568 672.189,196.698 670.746,197.797 666.899,201.438 663.876,204.255 662.158,205.079 660.097,206.041 656.388,206.041 654.258,206.041 649.037,205.56 648.075,205.491 642.51,204.667 639.213,204.117 636.671,204.392 633.991,204.667 631.862,204.736 L630.488,204.804Z M530.598,232.284 Q533.758,246.505 539.185,254.2 543.239,259.833 566.665,288.756 592.428,320.426 597.374,324.754 602.664,329.357 612.007,330.25 620.045,331.006 627.396,329.014 634.61,327.09 655.151,306.549 676.792,285.046 680.776,273.71 686.066,258.665 688.745,246.849 692.455,230.773 692.18,217.926 692.043,211.399 692.524,211.468 692.867,211.468 693.898,215.659 696.852,227.475 698.432,226.994 701.661,226.033 704.34,220.811 707.5,214.491 705.577,207.484 704.203,202.537 702.211,198.553 700.768,195.736 700.287,191.751 699.806,187.904 703.516,183.439 707.226,178.836 707.02,175.057 706.676,170.042 705.646,169.286 703.859,169.149 702.211,168.874 700.012,168.531 697.058,171.897 694.654,174.576 693.623,176.981 M597.237,241.765 Q598.68,238.673 599.985,237.505 601.29,236.269 603.214,236.269 604.107,236.269 608.779,239.773 613.381,243.276 616.679,243.414 619.977,243.551 624.305,239.773 628.633,235.994 630.625,235.857 633.717,235.651 634.816,236.475 635.297,236.818 637.083,239.429 M636.602,228.643 Q639.007,229.742 640.518,232.147 642.304,234.895 640.861,237.025 M610.427,203.155 L609.466,229.399 M595.863,230.086 Q588.718,234.345 591.535,239.635" test="Rihanna Head"/>
        <path id="Layer2_0_2_STROKES" stroke="#FFF" stroke-width="2.748" stroke-linejoin="round" stroke-linecap="round" fill="none" d="M657.075,189.072 L654.327,196.492 662.845,194.018 Q663.395,195.392 663.395,197.041 663.395,200.614 660.784,203.155 658.311,205.697 654.67,205.697 651.098,205.697 648.487,203.155 646.014,200.614 646.014,197.041 646.014,193.469 648.487,190.858 650.411,189.072 652.884,188.591" test="Rihanna Head"/>
        <path id="Layer2_0_3_STROKES" stroke="#F00" stroke-width="2.748" stroke-linejoin="round" stroke-linecap="round" fill="none" d="M667.105,85.335 Q658.655,107.044 650.686,121.334 632.961,153.073 612.145,173.683 591.26,194.293 560.208,212.361 529.087,230.429 526.132,231.46 523.178,232.422 521.117,228.712 L519.812,224.384 518.713,233.727 Q517.064,236.475 514.728,234.483 510.057,230.498 506.622,206.797 502.294,177.118 503.255,168.531 504.423,157.813 515.965,131.501 526.751,106.975 536.781,94.266 544.132,84.991 552.238,80.938 561.032,76.541 563.23,76.541 561.307,75.442 557.941,75.167 551.208,74.618 543.994,78.74 539.872,81.075 539.872,80.114 539.804,79.289 543.033,76.335 551.414,68.709 561.032,64.45 571.337,59.916 583.36,57.718 595.382,55.519 602.802,56.756 609.809,57.924 619.29,61.565 628.152,65 630.831,67.198 632.755,68.847 635.984,68.503 643.816,67.748 645.67,67.748 651.098,67.748 660.716,71.183 671.776,75.099 673.7,75.442 689.57,78.053 691.837,80.938 692.524,81.763 690.806,81.625 687.852,81.213 685.448,81.075 675.211,80.457 667.105,85.335Z M673.7,95.228 Q675.555,92.755 676.517,91.861 676.998,91.312 678.097,90.281 M671.502,127.654 Q672.463,125.799 673.975,122.502 674.044,122.364 675.898,120.509 M676.998,113.364 Q680.707,111.853 681.875,111.097 682.7,110.548 683.043,109.517 M663.258,119.96 Q666.487,115.906 667.448,114.876 668.341,113.914 668.754,113.914 M684.692,105.67 Q687.44,105.052 688.951,104.159 689.776,103.678 690.738,102.922 M692.386,121.059 L695.134,120.509 Q695.89,120.303 696.234,119.96 M684.692,126.005 Q685.929,123.257 687.99,121.746 689.089,120.922 690.738,119.96 M630.831,97.426 Q628.976,100.105 617.984,119.616 610.702,132.601 602.252,139.745 M697.882,139.196 Q700.905,138.852 701.111,138.715 701.386,138.509 702.279,137.547 M691.287,151.837 Q693.211,151.081 694.379,150.325 695.134,149.913 696.234,149.089 M689.638,135.349 Q692.73,131.639 693.623,130.746 694.104,130.265 695.134,129.303 M700.081,154.035 Q701.661,153.691 702.554,153.279 703.241,152.936 703.378,152.936 M681.944,150.188 Q685.516,146.066 685.654,145.722 685.654,145.035 686.89,142.493 M676.998,135.898 L679.196,132.601 M694.585,165.027 Q696.508,162.622 697.951,161.523 699.256,160.493 699.531,160.081 M590.161,104.571 Q587.619,106.975 584.115,112.128 580.131,118.448 577.864,121.677 569.413,133.975 561.032,137.547 M576.97,154.585 Q565.841,164.477 558.009,171.073 543.239,183.507 537.399,185.912" test="Rihanna Head"/>
        <path id="Layer1_0_1_STROKES" stroke="#F0F" stroke-width="2.748" stroke-linejoin="round" stroke-linecap="round" fill="none" d="M593.046,273.023 Q593.733,273.092 594.283,273.092 593.046,272.68 592.291,272.268 596.275,269.588 602.939,264.436 608.298,260.52 611.389,260.108 614.206,259.696 615.717,260.795 617.503,262.031 618.809,262.031 620.32,262.031 622.862,260.863 625.267,259.764 627.328,259.902 630.007,260.039 635.228,264.505 639.556,268.146 644.503,273.71 L644.365,273.985 644.296,274.054 Q643.403,275.359 638.32,282.573 633.991,288.756 630.694,289.717 625.679,291.229 620.389,291.091 613.725,290.885 608.504,288 602.389,284.634 598.68,281.267 594.352,277.489 590.917,272.062 M644.296,274.054 Q639.9,276.39 633.785,278.519 626.915,281.061 622.381,280.855 614.137,280.512 606.855,277.558 605,276.802 601.153,275.016 599.092,273.985 597.306,273.71 595.519,273.436 594.283,273.092 595.313,273.023 596.069,272.817 597.1,272.542 601.153,271.375 605.962,270.138 607.885,269.932 610.702,269.657 613.313,270.619 615.923,271.581 618.328,271.512 620.045,271.443 623.549,270.619 626.366,269.932 631.106,270.413 635.228,270.756 638.113,271.581 641.411,272.542 644.365,273.985" test="Rihanna Head"/>
        <path id="Layer1_0_2_STROKES" stroke="#F60" stroke-width="2.748" stroke-linejoin="round" stroke-linecap="round" fill="none" d="M629.457,183.576 Q633.579,181.309 641.068,177.462 649.38,173.202 651.441,172.447 659.754,169.424 663.807,169.424 673.013,169.424 675.761,172.584 677.547,174.645 679.059,177.256 680.295,179.523 680.433,180.416" test="Rihanna Head"/>
      </g>
    </g>
  </g>
</svg>