<?xml version="1.0" encoding="utf-8"?>
<svg id="EdithAnim07" image-rendering="inherit" baseProfile="basic" version="1.1" x="0px" y="0px" width="800" height="600" xmlns="http://www.w3.org/2000/svg" xmlns:xlink="http://www.w3.org/1999/xlink">
  <g id="Rihanna-rearf15r1" overflow="visible">
    <g id="RihannaWholeBodyf0r1">
      <g id="Rihanna-Body">
        <path id="Layer4_0_1_STROKES" stroke="#F60" stroke-width="1.374" stroke-linejoin="round" stroke-linecap="round" fill="none" d="M606.977,329.833 Q609.931,331.276 615.771,333.886 621.129,336.497 626.556,339.795 635.213,345.016 650.601,360.405 651.151,360.954 645.655,346.321 639.06,328.734 638.922,321.933 638.716,312.727 638.648,312.589 638.51,311.834 635.831,309.91 634.182,308.742 628.824,307.643 624.358,306.75 623.808,305.101 623.121,302.971 623.671,302.422 623.877,302.078 626.556,300.979 628.137,300.361 630.747,302.078 633.083,303.727 634.113,302.696 635.281,301.597 635.419,298.437 635.556,294.04 636.174,292.048 637.342,288.27 638.235,287.376 639.335,286.277 641.327,287.583 643.525,288.956 648.128,295.346 652.869,302.01 655.41,307.506 657.952,313.07 663.036,336.153 668.051,358.893 668.12,364.526 668.12,364.87 669.013,375.175 669.494,380.877 668.12,382.732 666.471,384 650.739,384.312 635.694,383.625 626.9,381.358 622.022,380.121 613.641,374.419 L606.153,369.061 Q606.153,370.16 606.153,371.259 606.221,381.839 604.916,384.793 598.664,399.151 596.328,402.311 M551.33,289.987 Q550.506,293.834 548.857,301.666 546.315,308.124 538.62,311.284 534.979,312.795 523.575,316.23 514.782,318.91 510.522,321.452 508.392,322.757 506.675,324.337 500.973,329.627 497.95,334.23 494.79,338.97 493.278,344.603 491.836,350.1 492.866,360.611 493.828,370.572 496.026,376.549 496.095,376.755 496.233,376.961 498.362,382.938 501.591,393 505.164,405.953 506.675,412.96 507.774,417.838 511.003,431.165 513.614,442.845 513.201,446.28 512.789,449.852 512.789,452.119 512.721,453.699 512.858,453.837 M510.522,321.452 Q491.424,328.665 484.141,343.436 476.79,358.206 488.401,370.023 491.355,373.664 493.965,375.518 495.065,376.343 496.233,376.961 M594.954,418.044 Q593.924,418.25 593.1,418.593 592.069,419.006 590.97,419.349 589.871,419.899 588.84,420.517 587.672,421.204 586.573,421.685 585.749,422.097 584.993,422.509 L583.756,423.265 Q582.932,424.158 582.382,425.257 581.833,426.15 581.764,427.181 581.764,427.868 581.97,428.555 582.451,428.761 583.001,429.036 586.71,428.692 589.802,427.524 592.893,426.288 593.168,426.425 L596.672,424.639 Q596.878,425.051 600.863,425.189 604.779,425.257 606.084,422.166 605.878,418.731 603.267,416.464 603.267,415.158 603.885,413.991 603.885,412.823 602.924,412.204 602.099,411.655 601.206,411.174 L601.137,410.006 Q602.374,408.426 601.618,406.571 601.55,406.296 601.481,406.09 599.763,405.197 597.634,405.403 597.29,405.403 596.947,405.472 L596.122,406.365 Q592.893,406.64 590.008,407.739 588.978,408.014 587.947,408.357 586.092,408.769 584.718,409.113 583.482,409.594 582.314,410.281 581.214,410.762 580.184,411.38 579.36,411.861 578.604,412.41 577.711,413.166 577.092,414.128 576.474,414.884 576.405,415.777 576.405,416.67 577.092,417.151 577.917,417.838 579.085,418.112 580.527,418.593 589.39,414.334 L593.237,413.235 M579.222,418.731 Q578.123,418.937 577.367,419.899 576.474,420.861 575.787,421.891 575.512,422.234 575.375,422.715 575.375,423.677 575.993,424.227 576.818,424.708 577.711,425.051 579.153,425.601 580.665,424.845 581.764,424.295 582.795,423.677 583.275,423.54 583.756,423.265 M598.115,428.761 Q599.145,432.265 600.45,437.28 602.168,442.707 603.885,444.905 605.603,447.104 608.763,449.096 610.481,450.195 613.16,451.775 M605.603,356.969 Q606.084,362.946 606.153,369.061 M593.649,630.396 Q596.466,631.357 599.557,630.739 602.099,630.258 603.954,629.022 M568.23,547.956 Q569.604,554.001 574.619,586.084 579.291,616.312 579.909,622.152 M627.312,545.208 Q624.702,555.787 619.412,581.825 613.16,612.877 613.572,617.343 614.259,624.419 614.877,626.548 616.114,631.083 619.755,635.205 623.259,639.12 623.534,647.433 623.74,652.036 623.19,660.623 623.19,665.433 620.854,674.707 619.618,679.86 617.007,688.791 L612.885,703.905 M520.14,556.887 L531.682,584.779 Q543.704,614.182 546.246,621.465 M548.994,631.77 Q547.964,636.235 544.803,648.532 542.468,659.868 544.185,666.807 546.59,676.493 548.582,682.264 551.193,690.027 554.49,695.661 M559.986,631.083 L564.177,631.701 Q568.848,632.182 570.978,631.77" test="Rihanna Body"/>
      </g>
      <g id="Rihanna-Bottomf0r1">
        <path id="Layer3_0_1_STROKES" stroke="#F60" stroke-width="1.374" stroke-linejoin="round" stroke-linecap="round" fill="none" d="M509.429,460.733 Q503.521,472.687 499.468,479.282 495.346,486.015 493.972,489.038 491.43,494.74 490.537,501.61 489.232,511.983 490.537,520.983 492.323,533.28 498.781,539.051 520.765,558.699 541.031,554.852 552.71,552.654 561.848,544.959 569.061,538.776 570.229,534.242 570.779,531.975 571.053,528.265 571.259,525.243 571.603,524.624 571.878,524.143 576.481,531.357 581.839,539.67 584,541.456 588.984,543.723 595.511,544.822 601.419,545.784 608.014,545.578 615.777,545.303 624.09,542.692 634.257,539.395 636.868,534.586 640.44,527.991 642.433,519.54 644.975,508.892 643.738,499.549 643.12,494.808 639.891,487.114 636.456,479.145 632.746,474.473 630.204,471.176 624.365,464.718 619.143,458.947 617.975,457.298" test="Rihanna Bottom"/>
      </g>
      <g id="Rihanna-Headf0r1">
        <path id="Layer2_0_1_STROKES" stroke="#F60" stroke-width="2.748" stroke-linejoin="round" stroke-linecap="round" fill="none" d="M614.188,204.804 L618.928,198.621 Q624.149,192.232 626.279,190.996 631.431,188.11 636.103,188.522 636.309,188.522 636.584,188.591 638.164,188.728 640.775,189.072 641.393,189.141 642.149,189.209 643.317,189.347 644.691,189.553 648.538,189.553 653.209,190.034 657.812,190.515 658.499,190.515 660.354,190.515 659.53,192.507 658.705,194.568 655.889,196.698 654.446,197.797 650.599,201.438 647.576,204.255 645.858,205.079 643.797,206.041 640.088,206.041 637.958,206.041 632.737,205.56 631.775,205.491 626.21,204.667 622.913,204.117 620.371,204.392 617.691,204.667 615.562,204.736 L614.188,204.804Z M514.298,232.284 Q517.458,246.505 522.885,254.2 526.939,259.833 550.365,288.756 576.128,320.426 581.074,324.754 586.364,329.357 595.707,330.25 603.745,331.006 611.096,329.014 618.31,327.09 638.851,306.549 660.492,285.046 664.476,273.71 669.766,258.665 672.445,246.849 676.155,230.773 675.88,217.926 675.743,211.399 676.224,211.468 676.567,211.468 677.598,215.659 680.552,227.475 682.132,226.994 685.361,226.033 688.04,220.811 691.2,214.491 689.277,207.484 687.903,202.537 685.911,198.553 684.468,195.736 683.987,191.751 683.506,187.904 687.216,183.439 690.926,178.836 690.72,175.057 690.376,170.042 689.346,169.286 687.559,169.149 685.911,168.874 683.712,168.531 680.758,171.897 678.354,174.576 677.323,176.981 M580.937,241.765 Q582.38,238.673 583.685,237.505 584.99,236.269 586.914,236.269 587.807,236.269 592.479,239.773 597.081,243.276 600.379,243.414 603.677,243.551 608.005,239.773 612.333,235.994 614.325,235.857 617.417,235.651 618.516,236.475 618.997,236.818 620.783,239.429 M620.302,228.643 Q622.707,229.742 624.218,232.147 626.004,234.895 624.561,237.025 M594.127,203.155 L593.166,229.399 M579.563,230.086 Q572.418,234.345 575.235,239.635" test="Rihanna Head"/>
        <path id="Layer2_0_2_STROKES" stroke="#FFF" stroke-width="2.748" stroke-linejoin="round" stroke-linecap="round" fill="none" d="M640.775,189.072 L638.027,196.492 646.545,194.018 Q647.095,195.392 647.095,197.041 647.095,200.614 644.484,203.155 642.011,205.697 638.37,205.697 634.798,205.697 632.187,203.155 629.714,200.614 629.714,197.041 629.714,193.469 632.187,190.858 634.111,189.072 636.584,188.591" test="Rihanna Head"/>
        <path id="Layer2_0_3_STROKES" stroke="#F00" stroke-width="2.748" stroke-linejoin="round" stroke-linecap="round" fill="none" d="M650.805,85.335 Q642.355,107.044 634.386,121.334 616.661,153.073 595.845,173.683 574.96,194.293 543.908,212.361 512.787,230.429 509.832,231.46 506.878,232.422 504.817,228.712 L503.512,224.384 502.413,233.727 Q500.764,236.475 498.428,234.483 493.757,230.498 490.322,206.797 485.994,177.118 486.955,168.531 488.123,157.813 499.665,131.501 510.451,106.975 520.481,94.266 527.832,84.991 535.938,80.938 544.732,76.541 546.93,76.541 545.007,75.442 541.641,75.167 534.908,74.618 527.694,78.74 523.572,81.075 523.572,80.114 523.504,79.289 526.733,76.335 535.114,68.709 544.732,64.45 555.037,59.916 567.06,57.718 579.082,55.519 586.502,56.756 593.509,57.924 602.99,61.565 611.852,65 614.531,67.198 616.455,68.847 619.684,68.503 627.516,67.748 629.37,67.748 634.798,67.748 644.416,71.183 655.476,75.099 657.4,75.442 673.27,78.053 675.537,80.938 676.224,81.763 674.506,81.625 671.552,81.213 669.148,81.075 658.911,80.457 650.805,85.335Z M657.4,95.228 Q659.255,92.755 660.217,91.861 660.698,91.312 661.797,90.281 M655.202,127.654 Q656.163,125.799 657.675,122.502 657.744,122.364 659.598,120.509 M660.698,113.364 Q664.407,111.853 665.575,111.097 666.4,110.548 666.743,109.517 M646.958,119.96 Q650.187,115.906 651.148,114.876 652.041,113.914 652.454,113.914 M668.392,105.67 Q671.14,105.052 672.651,104.159 673.476,103.678 674.438,102.922 M676.086,121.059 L678.834,120.509 Q679.59,120.303 679.934,119.96 M668.392,126.005 Q669.629,123.257 671.69,121.746 672.789,120.922 674.438,119.96 M614.531,97.426 Q612.676,100.105 601.684,119.616 594.402,132.601 585.952,139.745 M681.582,139.196 Q684.605,138.852 684.811,138.715 685.086,138.509 685.979,137.547 M674.987,151.837 Q676.911,151.081 678.079,150.325 678.834,149.913 679.934,149.089 M673.338,135.349 Q676.43,131.639 677.323,130.746 677.804,130.265 678.834,129.303 M683.781,154.035 Q685.361,153.691 686.254,153.279 686.941,152.936 687.078,152.936 M665.644,150.188 Q669.216,146.066 669.354,145.722 669.354,145.035 670.59,142.493 M660.698,135.898 L662.896,132.601 M678.285,165.027 Q680.208,162.622 681.651,161.523 682.956,160.493 683.231,160.081 M573.861,104.571 Q571.319,106.975 567.815,112.128 563.831,118.448 561.564,121.677 553.113,133.975 544.732,137.547 M560.67,154.585 Q549.541,164.477 541.709,171.073 526.939,183.507 521.099,185.912" test="Rihanna Head"/>
        <path id="Layer1_0_1_STROKES" stroke="#F0F" stroke-width="2.748" stroke-linejoin="round" stroke-linecap="round" fill="none" d="M576.746,273.023 Q577.433,273.092 577.983,273.092 576.746,272.68 575.991,272.268 579.975,269.588 586.639,264.436 591.998,260.52 595.089,260.108 597.906,259.696 599.417,260.795 601.203,262.031 602.509,262.031 604.02,262.031 606.562,260.863 608.967,259.764 611.028,259.902 613.707,260.039 618.928,264.505 623.256,268.146 628.203,273.71 L628.065,273.985 627.996,274.054 Q627.103,275.359 622.02,282.573 617.691,288.756 614.394,289.717 609.379,291.229 604.089,291.091 597.425,290.885 592.204,288 586.089,284.634 582.38,281.267 578.052,277.489 574.617,272.062 M627.996,274.054 Q623.6,276.39 617.485,278.519 610.615,281.061 606.081,280.855 597.837,280.512 590.555,277.558 588.7,276.802 584.853,275.016 582.792,273.985 581.006,273.71 579.219,273.436 577.983,273.092 579.013,273.023 579.769,272.817 580.8,272.542 584.853,271.375 589.662,270.138 591.585,269.932 594.402,269.657 597.013,270.619 599.623,271.581 602.028,271.512 603.745,271.443 607.249,270.619 610.066,269.932 614.806,270.413 618.928,270.756 621.813,271.581 625.111,272.542 628.065,273.985" test="Rihanna Head"/>
        <path id="Layer1_0_2_STROKES" stroke="#F60" stroke-width="2.748" stroke-linejoin="round" stroke-linecap="round" fill="none" d="M613.157,183.576 Q617.279,181.309 624.768,177.462 633.08,173.202 635.141,172.447 643.454,169.424 647.507,169.424 656.713,169.424 659.461,172.584 661.247,174.645 662.759,177.256 663.995,179.523 664.133,180.416" test="Rihanna Head"/>
      </g>
    </g>
  </g>
</svg>