<?xml version="1.0" encoding="utf-8"?>
<svg id="EdithAnim07" image-rendering="inherit" baseProfile="basic" version="1.1" x="0px" y="0px" width="800" height="600" xmlns="http://www.w3.org/2000/svg" xmlns:xlink="http://www.w3.org/1999/xlink">
  <g id="Rihanna-rearf18r1" overflow="visible">
    <g id="RihannaWholeBodyf0r1">
      <g id="Rihanna-Body">
        <path id="Layer4_0_1_STROKES" stroke="#F60" stroke-width="1.374" stroke-linejoin="round" stroke-linecap="round" fill="none" d="M562.377,329.833 Q565.331,331.276 571.171,333.886 576.529,336.497 581.956,339.795 590.613,345.016 606.001,360.405 606.551,360.954 601.055,346.321 594.46,328.734 594.322,321.933 594.116,312.727 594.048,312.589 593.91,311.834 591.231,309.91 589.582,308.742 584.224,307.643 579.758,306.75 579.208,305.101 578.521,302.971 579.071,302.422 579.277,302.078 581.956,300.979 583.537,300.361 586.147,302.078 588.483,303.727 589.513,302.696 590.681,301.597 590.819,298.437 590.956,294.04 591.574,292.048 592.742,288.27 593.635,287.376 594.735,286.277 596.727,287.583 598.925,288.956 603.528,295.346 608.269,302.01 610.81,307.506 613.352,313.07 618.436,336.153 623.451,358.893 623.52,364.526 623.52,364.87 624.413,375.175 624.894,380.877 623.52,382.732 621.871,384 606.139,384.312 591.094,383.625 582.3,381.358 577.422,380.121 569.041,374.419 L561.553,369.061 Q561.553,370.16 561.553,371.259 561.621,381.839 560.316,384.793 554.064,399.151 551.728,402.311 M506.73,289.987 Q505.906,293.834 504.257,301.666 501.715,308.124 494.02,311.284 490.379,312.795 478.975,316.23 470.182,318.91 465.922,321.452 463.792,322.757 462.075,324.337 456.373,329.627 453.35,334.23 450.19,338.97 448.678,344.603 447.236,350.1 448.266,360.611 449.228,370.572 451.426,376.549 451.495,376.755 451.633,376.961 453.762,382.938 456.991,393 460.564,405.953 462.075,412.96 463.174,417.838 466.403,431.165 469.014,442.845 468.601,446.28 468.189,449.852 468.189,452.119 468.121,453.699 468.258,453.837 M465.922,321.452 Q446.824,328.665 439.541,343.436 432.19,358.206 443.801,370.023 446.755,373.664 449.365,375.518 450.465,376.343 451.633,376.961 M550.354,418.044 Q549.324,418.25 548.5,418.593 547.469,419.006 546.37,419.349 545.271,419.899 544.24,420.517 543.072,421.204 541.973,421.685 541.149,422.097 540.393,422.509 L539.156,423.265 Q538.332,424.158 537.782,425.257 537.233,426.15 537.164,427.181 537.164,427.868 537.37,428.555 537.851,428.761 538.401,429.036 542.11,428.692 545.202,427.524 548.293,426.288 548.568,426.425 L552.072,424.639 Q552.278,425.051 556.263,425.189 560.179,425.257 561.484,422.166 561.278,418.731 558.667,416.464 558.667,415.158 559.285,413.991 559.285,412.823 558.324,412.204 557.499,411.655 556.606,411.174 L556.537,410.006 Q557.774,408.426 557.018,406.571 556.95,406.296 556.881,406.09 555.163,405.197 553.034,405.403 552.69,405.403 552.347,405.472 L551.522,406.365 Q548.293,406.64 545.408,407.739 544.378,408.014 543.347,408.357 541.492,408.769 540.118,409.113 538.882,409.594 537.714,410.281 536.614,410.762 535.584,411.38 534.76,411.861 534.004,412.41 533.111,413.166 532.492,414.128 531.874,414.884 531.805,415.777 531.805,416.67 532.492,417.151 533.317,417.838 534.485,418.112 535.927,418.593 544.79,414.334 L548.637,413.235 M534.622,418.731 Q533.523,418.937 532.767,419.899 531.874,420.861 531.187,421.891 530.912,422.234 530.775,422.715 530.775,423.677 531.393,424.227 532.218,424.708 533.111,425.051 534.553,425.601 536.065,424.845 537.164,424.295 538.195,423.677 538.675,423.54 539.156,423.265 M553.515,428.761 Q554.545,432.265 555.85,437.28 557.568,442.707 559.285,444.905 561.003,447.104 564.163,449.096 565.881,450.195 568.56,451.775 M561.003,356.969 Q561.484,362.946 561.553,369.061 M549.049,630.396 Q551.866,631.357 554.957,630.739 557.499,630.258 559.354,629.022 M523.63,547.956 Q525.004,554.001 530.019,586.084 534.691,616.312 535.309,622.152 M582.712,545.208 Q580.102,555.787 574.812,581.825 568.56,612.877 568.972,617.343 569.659,624.419 570.277,626.548 571.514,631.083 575.155,635.205 578.659,639.12 578.934,647.433 579.14,652.036 578.59,660.623 578.59,665.433 576.254,674.707 575.018,679.86 572.407,688.791 L568.285,703.905 M475.54,556.887 L487.082,584.779 Q499.104,614.182 501.646,621.465 M504.394,631.77 Q503.364,636.235 500.203,648.532 497.868,659.868 499.585,666.807 501.99,676.493 503.982,682.264 506.593,690.027 509.89,695.661 M515.386,631.083 L519.577,631.701 Q524.248,632.182 526.378,631.77" test="Rihanna Body"/>
      </g>
      <g id="Rihanna-Bottomf0r1">
        <path id="Layer3_0_1_STROKES" stroke="#F60" stroke-width="1.374" stroke-linejoin="round" stroke-linecap="round" fill="none" d="M464.829,460.733 Q458.921,472.687 454.868,479.282 450.746,486.015 449.372,489.038 446.83,494.74 445.937,501.61 444.632,511.983 445.937,520.983 447.723,533.28 454.181,539.051 476.165,558.699 496.431,554.852 508.11,552.654 517.247,544.959 524.461,538.776 525.629,534.242 526.179,531.975 526.453,528.265 526.659,525.243 527.003,524.624 527.278,524.143 531.881,531.357 537.239,539.67 540.399,541.456 544.384,543.723 550.911,544.822 556.819,545.784 563.414,545.578 571.177,545.303 579.49,542.692 589.657,539.395 592.268,534.586 595.84,527.991 597.833,519.54 600.375,508.892 599.138,499.549 598.52,494.808 595.291,487.114 591.856,479.145 588.146,474.473 585.604,471.176 579.765,464.718 574.543,458.947 573.375,457.298" test="Rihanna Bottom"/>
      </g>
      <g id="Rihanna-Headf0r1">
        <path id="Layer2_0_1_STROKES" stroke="#F60" stroke-width="2.748" stroke-linejoin="round" stroke-linecap="round" fill="none" d="M569.588,204.804 L574.328,198.621 Q579.549,192.232 581.679,190.996 586.831,188.11 591.503,188.522 591.709,188.522 591.984,188.591 593.564,188.728 596.175,189.072 596.793,189.141 597.549,189.209 598.717,189.347 600.091,189.553 603.938,189.553 608.609,190.034 613.212,190.515 613.899,190.515 615.754,190.515 614.93,192.507 614.105,194.568 611.289,196.698 609.846,197.797 605,201.438 602.976,204.255 601.258,205.079 599.197,206.041 595.488,206.041 593.358,206.041 588.137,205.56 587.175,205.491 581.61,204.667 578.313,204.117 575.771,204.392 573.091,204.667 570.962,204.736 L569.588,204.804Z M469.698,232.284 Q472.858,246.505 478.285,254.2 482.339,259.833 505.765,288.756 531.528,320.426 536.474,324.754 541.764,329.357 551.107,330.25 559.145,331.006 566.496,329.014 573.71,327.09 594.251,306.549 615.892,285.046 619.876,273.71 625.166,258.665 627.845,246.849 631.555,230.773 631.28,217.926 631.143,211.399 631.624,211.468 631.967,211.468 632.998,215.659 635.952,227.475 637.532,226.994 640.761,226.033 643.44,220.811 646.6,214.491 644.677,207.484 643.303,202.537 641.311,198.553 639.868,195.736 639.387,191.751 638.906,187.904 642.616,183.439 646.326,178.836 646.12,175.057 645.776,170.042 644.746,169.286 642.959,169.149 641.311,168.874 639.112,168.531 636.158,171.897 633.754,174.576 632.723,176.981 M536.337,241.765 Q537.78,238.673 539.085,237.505 540.39,236.269 542.314,236.269 543.207,236.269 547.879,239.773 552.481,243.276 555.779,243.414 559.077,243.551 563.405,239.773 567.733,235.994 569.725,235.857 572.817,235.651 573.916,236.475 574.397,236.818 576.183,239.429 M575.702,228.643 Q578.107,229.742 579.618,232.147 581.404,234.895 579.961,237.025 M549.527,203.155 L548.566,229.399 M534.963,230.086 Q527.818,234.345 530.635,239.635" test="Rihanna Head"/>
        <path id="Layer2_0_2_STROKES" stroke="#FFF" stroke-width="2.748" stroke-linejoin="round" stroke-linecap="round" fill="none" d="M596.175,189.072 L593.427,196.492 601.945,194.018 Q602.495,195.392 602.495,197.041 602.495,200.614 599.884,203.155 597.411,205.697 593.77,205.697 590.198,205.697 587.587,203.155 585.114,200.614 585.114,197.041 585.114,193.469 587.587,190.858 589.511,189.072 591.984,188.591" test="Rihanna Head"/>
        <path id="Layer2_0_3_STROKES" stroke="#F00" stroke-width="2.748" stroke-linejoin="round" stroke-linecap="round" fill="none" d="M606.205,85.335 Q597.755,107.044 589.786,121.334 572.061,153.073 551.245,173.683 530.36,194.293 499.308,212.361 468.187,230.429 465.232,231.46 462.278,232.422 460.217,228.712 L458.912,224.384 457.813,233.727 Q456.164,236.475 453.828,234.483 449.157,230.498 445.722,206.797 441.394,177.118 442.355,168.531 443.523,157.813 455.065,131.501 465.851,106.975 475.881,94.266 483.232,84.991 491.338,80.938 500.132,76.541 502.33,76.541 500.407,75.442 497.041,75.167 490.308,74.618 483.094,78.74 478.972,81.075 478.972,80.114 478.904,79.289 482.133,76.335 490.514,68.709 500.132,64.45 510.437,59.916 522.46,57.718 534.482,55.519 541.902,56.756 548.909,57.924 558.39,61.565 567.252,65 569.931,67.198 571.855,68.847 575.084,68.503 582.916,67.748 584.77,67.748 590.198,67.748 599.816,71.183 610.876,75.099 612.8,75.442 628.67,78.053 630.937,80.938 631.624,81.763 629.906,81.625 626.952,81.213 624.548,81.075 614.311,80.457 606.205,85.335Z M612.8,95.228 Q614.655,92.755 615.617,91.861 616.098,91.312 617.197,90.281 M610.602,127.654 Q611.563,125.799 613.075,122.502 613.144,122.364 614.998,120.509 M616.098,113.364 Q619.807,111.853 620.975,111.097 621.8,110.548 622.143,109.517 M602.358,119.96 Q605.587,115.906 606.548,114.876 607.441,113.914 607.854,113.914 M623.792,105.67 Q626.54,105.052 628.051,104.159 628.876,103.678 629.838,102.922 M631.486,121.059 L634.234,120.509 Q634.99,120.303 635.334,119.96 M623.792,126.005 Q625.029,123.257 627.09,121.746 628.189,120.922 629.838,119.96 M569.931,97.426 Q568.076,100.105 557.084,119.616 549.802,132.601 541.352,139.745 M636.982,139.196 Q640.005,138.852 640.211,138.715 640.486,138.509 641.379,137.547 M630.387,151.837 Q632.311,151.081 633.479,150.325 634.234,149.913 635.334,149.089 M628.738,135.349 Q631.83,131.639 632.723,130.746 633.204,130.265 634.234,129.303 M639.181,154.035 Q640.761,153.691 641.654,153.279 642.341,152.936 642.478,152.936 M621.044,150.188 Q624.616,146.066 624.754,145.722 624.754,145.035 625.99,142.493 M616.098,135.898 L618.296,132.601 M633.685,165.027 Q635.608,162.622 637.051,161.523 638.356,160.493 638.631,160.081 M529.261,104.571 Q526.719,106.975 523.215,112.128 519.231,118.448 516.964,121.677 508.513,133.975 500.132,137.547 M516.07,154.585 Q504.941,164.477 497.109,171.073 482.339,183.507 476.499,185.912" test="Rihanna Head"/>
        <path id="Layer1_0_1_STROKES" stroke="#F0F" stroke-width="2.748" stroke-linejoin="round" stroke-linecap="round" fill="none" d="M532.146,273.023 Q532.833,273.092 533.383,273.092 532.146,272.68 531.391,272.268 535.375,269.588 542.039,264.436 547.398,260.52 550.489,260.108 553.306,259.696 554.817,260.795 556.603,262.031 557.909,262.031 559.42,262.031 561.962,260.863 564.367,259.764 566.428,259.902 569.107,260.039 574.328,264.505 578.656,268.146 583.603,273.71 L583.465,273.985 583.396,274.054 Q582.503,275.359 577.42,282.573 573.091,288.756 569.794,289.717 564.779,291.229 559.489,291.091 552.825,290.885 547.604,288 541.489,284.634 537.78,281.267 533.452,277.489 530.017,272.062 M583.396,274.054 Q579,276.39 572.885,278.519 566.015,281.061 561.481,280.855 553.237,280.512 545.955,277.558 544.1,276.802 540.253,275.016 538.192,273.985 536.406,273.71 534.619,273.436 533.383,273.092 534.413,273.023 535.169,272.817 536.2,272.542 540.253,271.375 545.062,270.138 546.985,269.932 549.802,269.657 552.413,270.619 555.023,271.581 557.428,271.512 559.145,271.443 562.649,270.619 565.466,269.932 570.206,270.413 574.328,270.756 577.213,271.581 580.511,272.542 583.465,273.985" test="Rihanna Head"/>
        <path id="Layer1_0_2_STROKES" stroke="#F60" stroke-width="2.748" stroke-linejoin="round" stroke-linecap="round" fill="none" d="M568.557,183.576 Q572.679,181.309 580.168,177.462 588.48,173.202 590.541,172.447 598.854,169.424 602.907,169.424 612.113,169.424 614.861,172.584 616.647,174.645 618.159,177.256 619.395,179.523 619.533,180.416" test="Rihanna Head"/>
      </g>
    </g>
  </g>
</svg>