<?xml version="1.0" encoding="utf-8"?>
<svg id="EdithAnim07" image-rendering="inherit" baseProfile="basic" version="1.1" x="0px" y="0px" width="800" height="600" xmlns="http://www.w3.org/2000/svg" xmlns:xlink="http://www.w3.org/1999/xlink">
  <g id="Rihanna-rearf2r1" overflow="visible">
    <g id="RihannaWholeBodyf0r1">
      <g id="Rihanna-Body">
        <path id="Layer4_0_1_STROKES" stroke="#F60" stroke-width="1.374" stroke-linejoin="round" stroke-linecap="round" fill="none" d="M875.627,329.833 Q878.581,331.276 884.421,333.886 889.779,336.497 895.206,339.795 903.863,345.016 919.251,360.405 919.801,360.954 914.305,346.321 907.71,328.734 907.572,321.933 907.366,312.727 907.298,312.589 907.16,311.834 904.481,309.91 902.832,308.742 897.474,307.643 893.008,306.75 892.458,305.101 891.771,302.971 892.321,302.422 892.527,302.078 895.206,300.979 896.787,300.361 899.397,302.078 901.733,303.727 902.763,302.696 903.931,301.597 904.069,298.437 904.206,294.04 904.824,292.048 905.992,288.27 906.885,287.376 907.985,286.277 909.977,287.583 912.175,288.956 916.778,295.346 921.519,302.01 924.06,307.506 926.602,313.07 931.686,336.153 936.701,358.893 936.77,364.526 936.77,364.87 937.663,375.175 938.144,380.877 936.77,382.732 935.121,384 919.389,384.312 904.344,383.625 895.55,381.358 890.672,380.121 882.291,374.419 L874.803,369.061 Q874.803,370.16 874.803,371.259 874.871,381.839 873.566,384.793 867.314,399.151 864.978,402.311 M819.98,289.987 Q819.156,293.834 817.507,301.666 814.965,308.124 807.27,311.284 803.629,312.795 792.225,316.23 783.432,318.91 779.172,321.452 777.042,322.757 775.325,324.337 769.623,329.627 766.6,334.23 763.44,338.97 761.928,344.603 760.486,350.1 761.516,360.611 762.478,370.572 764.676,376.549 764.745,376.755 764.883,376.961 767.012,382.938 770.241,393 773.814,405.953 775.325,412.96 776.424,417.838 779.653,431.165 782.264,442.845 781.851,446.28 781.439,449.852 781.439,452.119 781.371,453.699 781.508,453.837 M779.172,321.452 Q760.074,328.665 752.791,343.436 745.44,358.206 757.051,370.023 760.005,373.664 762.615,375.518 763.715,376.343 764.883,376.961 M863.604,418.044 Q862.574,418.25 861.75,418.593 860.719,419.006 859.62,419.349 858.521,419.899 857.49,420.517 856.322,421.204 855.223,421.685 854.399,422.097 853.643,422.509 L852.406,423.265 Q851.582,424.158 851.032,425.257 850.483,426.15 850.414,427.181 850.414,427.868 850.62,428.555 851.101,428.761 851.651,429.036 855.36,428.692 858.452,427.524 861.543,426.288 861.818,426.425 L865.322,424.639 Q865.528,425.051 869.513,425.189 873.429,425.257 874.734,422.166 874.528,418.731 871.917,416.464 871.917,415.158 872.535,413.991 872.535,412.823 871.574,412.204 870.749,411.655 869.856,411.174 L869.787,410.006 Q871.024,408.426 870.268,406.571 870.2,406.296 870.131,406.09 868.413,405.197 866.284,405.403 865.94,405.403 865.597,405.472 L864.772,406.365 Q861.543,406.64 858.658,407.739 857.628,408.014 856.597,408.357 854.742,408.769 853.368,409.113 852.132,409.594 850.964,410.281 849.864,410.762 848.834,411.38 848.01,411.861 847.254,412.41 846.361,413.166 845.742,414.128 845.124,414.884 845.055,415.777 845.055,416.67 845.742,417.151 846.567,417.838 847.735,418.112 849.177,418.593 858.04,414.334 L861.887,413.235 M847.872,418.731 Q846.773,418.937 846.017,419.899 845.124,420.861 844.437,421.891 844.162,422.234 844.025,422.715 844.025,423.677 844.643,424.227 845.468,424.708 846.361,425.051 847.803,425.601 849.315,424.845 850.414,424.295 851.445,423.677 851.925,423.54 852.406,423.265 M866.765,428.761 Q867.795,432.265 869.1,437.28 870.818,442.707 872.535,444.905 874.253,447.104 877.413,449.096 879.131,450.195 881.81,451.775 M874.253,356.969 Q874.734,362.946 874.803,369.061 M862.299,630.396 Q865.116,631.357 868.207,630.739 870.749,630.258 872.604,629.022 M836.88,547.956 Q838.254,554.001 843.269,586.084 847.941,616.312 848.559,622.152 M895.962,545.208 Q893.352,555.787 888.062,581.825 881.81,612.877 882.222,617.343 882.909,624.419 883.527,626.548 884.764,631.083 888.405,635.205 891.909,639.12 892.184,647.433 892.39,652.036 891.84,660.623 891.84,665.433 889.504,674.707 888.268,679.86 885.657,688.791 L881.535,703.905 M788.79,556.887 L800.332,584.779 Q812.354,614.182 814.896,621.465 M817.644,631.77 Q816.614,636.235 813.453,648.532 811.118,659.868 812.835,666.807 815.24,676.493 817.232,682.264 819.843,690.027 823.14,695.661 M828.636,631.083 L832.827,631.701 Q837.498,632.182 839.628,631.77" test="Rihanna Body"/>
      </g>
      <g id="Rihanna-Bottomf0r1">
        <path id="Layer3_0_1_STROKES" stroke="#F60" stroke-width="1.374" stroke-linejoin="round" stroke-linecap="round" fill="none" d="M778.079,460.733 Q772.171,472.687 768.118,479.282 763.996,486.015 762.622,489.038 760.08,494.74 759.187,501.61 757.882,511.983 759.187,520.983 760.973,533.28 767.431,539.051 789.415,558.699 809.681,554.852 821.36,552.654 830.498,544.959 837.711,538.776 838.879,534.242 839.429,531.975 839.703,528.265 839.909,525.243 840.253,524.624 840.528,524.143 845.131,531.357 850.489,539.67 853.649,541.456 857.634,543.723 864.161,544.822 870.069,545.784 876.664,545.578 884.427,545.303 892.74,542.692 902.907,539.395 905.518,534.586 909.09,527.991 911.083,519.54 913.625,508.892 912.388,499.549 911.77,494.808 908.541,487.114 905.106,479.145 901.396,474.473 898.854,471.176 893.015,464.718 887.793,458.947 886.625,457.298" test="Rihanna Bottom"/>
      </g>
      <g id="Rihanna-Headf0r1">
        <path id="Layer2_0_1_STROKES" stroke="#F60" stroke-width="2.748" stroke-linejoin="round" stroke-linecap="round" fill="none" d="M882.838,204.804 L887.578,198.621 Q892.799,192.232 894.929,190.996 900.081,188.11 904.753,188.522 904.959,188.522 905.234,188.591 906.814,188.728 909.425,189.072 910.043,189.141 910.799,189.209 911.967,189.347 913.341,189.553 917.188,189.553 921.859,190.034 926.462,190.515 927.149,190.515 929.004,190.515 928.18,192.507 927.355,194.568 924.539,196.698 923.096,197.797 919.249,201.438 916.226,204.255 914.508,205.079 912.447,206.041 908.738,206.041 906.608,206.041 901.387,205.56 900.425,205.491 894.86,204.667 891.563,204.117 889.021,204.392 886.341,204.667 884.212,204.736 L882.838,204.804Z M782.948,232.284 Q786.108,246.505 791.535,254.2 795.589,259.833 819.015,288.756 844.778,320.426 849.724,324.754 855.014,329.357 864.357,330.25 872.395,331.006 879.746,329.014 886.96,327.09 907.501,306.549 929.142,285.046 933.126,273.71 938.416,258.665 941.095,246.849 944.805,230.773 944.53,217.926 944.393,211.399 944.874,211.468 945.217,211.468 946.248,215.659 949.202,227.475 950.782,226.994 954.011,226.033 956.69,220.811 959.85,214.491 957.927,207.484 956.553,202.537 954.561,198.553 953.118,195.736 952.637,191.751 952.156,187.904 955.866,183.439 959.576,178.836 959.37,175.057 959.026,170.042 957.996,169.286 956.209,169.149 954.561,168.874 952.362,168.531 949.408,171.897 947.004,174.576 945.973,176.981 M849.587,241.765 Q851.03,238.673 852.335,237.505 853.64,236.269 855.564,236.269 856.457,236.269 861.129,239.773 865.731,243.276 869.029,243.414 872.327,243.551 876.655,239.773 880.983,235.994 882.975,235.857 886.067,235.651 887.166,236.475 887.647,236.818 889.433,239.429 M888.952,228.643 Q891.357,229.742 892.868,232.147 894.654,234.895 893.211,237.025 M862.777,203.155 L861.816,229.399 M848.213,230.086 Q841.068,234.345 843.885,239.635" test="Rihanna Head"/>
        <path id="Layer2_0_2_STROKES" stroke="#FFF" stroke-width="2.748" stroke-linejoin="round" stroke-linecap="round" fill="none" d="M909.425,189.072 L906.677,196.492 915.195,194.018 Q915.745,195.392 915.745,197.041 915.745,200.614 913.134,203.155 910.661,205.697 907.02,205.697 903.448,205.697 900.837,203.155 898.364,200.614 898.364,197.041 898.364,193.469 900.837,190.858 902.761,189.072 905.234,188.591" test="Rihanna Head"/>
        <path id="Layer2_0_3_STROKES" stroke="#F00" stroke-width="2.748" stroke-linejoin="round" stroke-linecap="round" fill="none" d="M919.455,85.335 Q911.005,107.044 903.036,121.334 885.311,153.073 864.495,173.683 843.61,194.293 812.558,212.361 781.437,230.429 778.482,231.46 775.528,232.422 773.467,228.712 L772.162,224.384 771.063,233.727 Q769.414,236.475 767.078,234.483 762.407,230.498 758.972,206.797 754.644,177.118 755.605,168.531 756.773,157.813 768.315,131.501 779.101,106.975 789.131,94.266 796.482,84.991 804.588,80.938 813.382,76.541 815.58,76.541 813.657,75.442 810.291,75.167 803.558,74.618 796.344,78.74 792.222,81.075 792.222,80.114 792.154,79.289 795.383,76.335 803.764,68.709 813.382,64.45 823.687,59.916 835.71,57.718 847.732,55.519 855.152,56.756 862.159,57.924 871.64,61.565 880.502,65 883.181,67.198 885.105,68.847 888.334,68.503 896.166,67.748 898.02,67.748 903.448,67.748 913.066,71.183 924.126,75.099 926.05,75.442 941.92,78.053 944.187,80.938 944.874,81.763 943.156,81.625 940.202,81.213 937.798,81.075 927.561,80.457 919.455,85.335Z M926.05,95.228 Q927.905,92.755 928.867,91.861 929.348,91.312 930.447,90.281 M923.852,127.654 Q924.813,125.799 926.325,122.502 926.394,122.364 928.248,120.509 M929.348,113.364 Q933.057,111.853 934.225,111.097 935.05,110.548 935.393,109.517 M915.608,119.96 Q918.837,115.906 919.798,114.876 920.691,113.914 921.104,113.914 M937.042,105.67 Q939.79,105.052 941.301,104.159 942.126,103.678 943.088,102.922 M944.736,121.059 L947.484,120.509 Q948.24,120.303 948.584,119.96 M937.042,126.005 Q938.279,123.257 940.34,121.746 941.439,120.922 943.088,119.96 M883.181,97.426 Q881.326,100.105 870.334,119.616 863.052,132.601 854.602,139.745 M950.232,139.196 Q953.255,138.852 953.461,138.715 953.736,138.509 954.629,137.547 M943.637,151.837 Q945.561,151.081 946.729,150.325 947.484,149.913 948.584,149.089 M941.988,135.349 Q945.08,131.639 945.973,130.746 946.454,130.265 947.484,129.303 M952.431,154.035 Q954.011,153.691 954.904,153.279 955.591,152.936 955.728,152.936 M934.294,150.188 Q937.866,146.066 938.004,145.722 938.004,145.035 939.24,142.493 M929.348,135.898 L931.546,132.601 M946.935,165.027 Q948.858,162.622 950.301,161.523 951.606,160.493 951.881,160.081 M842.511,104.571 Q839.969,106.975 836.465,112.128 832.481,118.448 830.214,121.677 821.763,133.975 813.382,137.547 M829.32,154.585 Q818.191,164.477 810.359,171.073 795.589,183.507 789.749,185.912" test="Rihanna Head"/>
        <path id="Layer1_0_1_STROKES" stroke="#F0F" stroke-width="2.748" stroke-linejoin="round" stroke-linecap="round" fill="none" d="M845.396,273.023 Q846.083,273.092 846.633,273.092 845.396,272.68 844.641,272.268 848.625,269.588 855.289,264.436 860.648,260.52 863.739,260.108 866.556,259.696 868.067,260.795 869.853,262.031 871.159,262.031 872.67,262.031 875.212,260.863 877.617,259.764 879.678,259.902 882.357,260.039 887.578,264.505 891.906,268.146 896.853,273.71 L896.715,273.985 896.646,274.054 Q895.753,275.359 890.67,282.573 886.341,288.756 883.044,289.717 878.029,291.229 872.739,291.091 866.075,290.885 860.854,288 854.739,284.634 851.03,281.267 846.702,277.489 843.267,272.062 M896.646,274.054 Q892.25,276.39 886.135,278.519 879.265,281.061 874.731,280.855 866.487,280.512 859.205,277.558 857.35,276.802 853.503,275.016 851.442,273.985 849.656,273.71 847.869,273.436 846.633,273.092 847.663,273.023 848.419,272.817 849.45,272.542 853.503,271.375 858.312,270.138 860.235,269.932 863.052,269.657 865.663,270.619 868.273,271.581 870.678,271.512 872.395,271.443 875.899,270.619 878.716,269.932 883.456,270.413 887.578,270.756 890.463,271.581 893.761,272.542 896.715,273.985" test="Rihanna Head"/>
        <path id="Layer1_0_2_STROKES" stroke="#F60" stroke-width="2.748" stroke-linejoin="round" stroke-linecap="round" fill="none" d="M881.807,183.576 Q885.929,181.309 893.418,177.462 901.73,173.202 903.791,172.447 912.104,169.424 916.157,169.424 925.363,169.424 928.111,172.584 929.897,174.645 931.409,177.256 932.645,179.523 932.783,180.416" test="Rihanna Head"/>
      </g>
    </g>
  </g>
</svg>