<?xml version="1.0" encoding="utf-8"?>
<svg id="EdithAnim07" image-rendering="inherit" baseProfile="basic" version="1.1" x="0px" y="0px" width="800" height="600" xmlns="http://www.w3.org/2000/svg" xmlns:xlink="http://www.w3.org/1999/xlink">
  <g id="Rihanna-rearf20r1" overflow="visible">
    <g id="RihannaWholeBodyf0r1">
      <g id="Rihanna-Body">
        <path id="Layer4_0_1_STROKES" stroke="#F60" stroke-width="1.374" stroke-linejoin="round" stroke-linecap="round" fill="none" d="M536.277,329.833 Q539.231,331.276 545.071,333.886 550.429,336.497 555.856,339.795 564.513,345.016 579.901,360.405 580.451,360.954 574.955,346.321 568.36,328.734 568.222,321.933 568.016,312.727 567.948,312.589 567.81,311.834 565.131,309.91 563.482,308.742 558.124,307.643 553.658,306.75 553.108,305.101 552.421,302.971 552.971,302.422 553.177,302.078 555.856,300.979 557.437,300.361 560.047,302.078 562.383,303.727 563.413,302.696 564.581,301.597 564.719,298.437 564.856,294.04 565.474,292.048 566.642,288.27 567.535,287.376 568.635,286.277 570.627,287.583 572.825,288.956 577.428,295.346 582.169,302.01 584.71,307.506 587.252,313.07 592.336,336.153 597.351,358.893 597.42,364.526 597.42,364.87 598.313,375.175 598.794,380.877 597.42,382.732 595.771,384 580.039,384.312 564.994,383.625 556.2,381.358 551.322,380.121 542.941,374.419 L535.453,369.061 Q535.453,370.16 535.453,371.259 535.521,381.839 534.216,384.793 527.964,399.151 525.628,402.311 M480.63,289.987 Q479.806,293.834 478.157,301.666 475.615,308.124 467.92,311.284 464.279,312.795 452.875,316.23 444.082,318.91 439.822,321.452 437.692,322.757 435.975,324.337 430.273,329.627 427.25,334.23 424.09,338.97 422.578,344.603 421.136,350.1 422.166,360.611 423.128,370.572 425.326,376.549 425.395,376.755 425.533,376.961 427.662,382.938 430.891,393 434.464,405.953 435.975,412.96 437.074,417.838 440.303,431.165 442.914,442.845 442.501,446.28 442.089,449.852 442.089,452.119 442.021,453.699 442.158,453.837 M439.822,321.452 Q420.724,328.665 413.441,343.436 406.09,358.206 417.701,370.023 420.655,373.664 423.265,375.518 424.365,376.343 425.533,376.961 M524.254,418.044 Q523.224,418.25 522.4,418.593 521.369,419.006 520.27,419.349 519.171,419.899 518.14,420.517 516.972,421.204 515.873,421.685 515.049,422.097 514.293,422.509 L513.056,423.265 Q512.232,424.158 511.682,425.257 511.133,426.15 511.064,427.181 511.064,427.868 511.27,428.555 511.751,428.761 512.301,429.036 516.01,428.692 519.102,427.524 522.193,426.288 522.468,426.425 L525.972,424.639 Q526.178,425.051 530.163,425.189 534.079,425.257 535.384,422.166 535.178,418.731 532.567,416.464 532.567,415.158 533.185,413.991 533.185,412.823 532.224,412.204 531.399,411.655 530.506,411.174 L530.437,410.006 Q531.674,408.426 530.918,406.571 530.85,406.296 530.781,406.09 529.063,405.197 526.934,405.403 526.59,405.403 526.247,405.472 L525.422,406.365 Q522.193,406.64 519.308,407.739 518.278,408.014 517.247,408.357 515.392,408.769 514.018,409.113 512.782,409.594 511.614,410.281 510.514,410.762 509.484,411.38 508.66,411.861 507.904,412.41 507.011,413.166 506.392,414.128 505.774,414.884 505.705,415.777 505.705,416.67 506.392,417.151 507.217,417.838 508.385,418.112 509.827,418.593 518.69,414.334 L522.537,413.235 M508.522,418.731 Q507.423,418.937 506.667,419.899 505.774,420.861 505.087,421.891 504.812,422.234 504.675,422.715 504.675,423.677 505.293,424.227 506.118,424.708 507.011,425.051 508.453,425.601 509.965,424.845 511.064,424.295 512.095,423.677 512.575,423.54 513.056,423.265 M527.415,428.761 Q528.445,432.265 529.75,437.28 531.468,442.707 533.185,444.905 534.903,447.104 538.063,449.096 539.781,450.195 542.46,451.775 M534.903,356.969 Q535.384,362.946 535.453,369.061 M522.949,630.396 Q525.766,631.357 528.857,630.739 531.399,630.258 533.254,629.022 M497.53,547.956 Q498.904,554.001 503.919,586.084 508.591,616.312 509.209,622.152 M556.612,545.208 Q554.002,555.787 548.712,581.825 542.46,612.877 542.872,617.343 543.559,624.419 544.177,626.548 545.414,631.083 549.055,635.205 552.559,639.12 552.834,647.433 553.04,652.036 552.49,660.623 552.49,665.433 550.154,674.707 548.918,679.86 546.307,688.791 L542.185,703.905 M449.44,556.887 L460.982,584.779 Q473.004,614.182 475.546,621.465 M478.294,631.77 Q477.264,636.235 474.103,648.532 471.768,659.868 473.485,666.807 475.89,676.493 477.882,682.264 480.493,690.027 483.79,695.661 M489.286,631.083 L493.477,631.701 Q498.148,632.182 500.278,631.77" test="Rihanna Body"/>
      </g>
      <g id="Rihanna-Bottomf0r1">
        <path id="Layer3_0_1_STROKES" stroke="#F60" stroke-width="1.374" stroke-linejoin="round" stroke-linecap="round" fill="none" d="M438.729,460.733 Q432.821,472.687 428.768,479.282 424.646,486.015 423.272,489.038 420.73,494.74 419.837,501.61 418.532,511.983 419.837,520.983 421.623,533.28 428.081,539.051 450.065,558.699 470.331,554.852 482.01,552.654 491.148,544.959 498.361,538.776 499.529,534.242 500.079,531.975 500.353,528.265 500.559,525.243 500.903,524.624 501.178,524.143 505.781,531.357 511.139,539.67 514.299,541.456 518.284,543.723 524.811,544.822 530.719,545.784 537.314,545.578 545.077,545.303 553.39,542.692 563.557,539.395 566.168,534.586 569.74,527.991 571.733,519.54 574.275,508.892 573.038,499.549 572.42,494.808 569.191,487.114 565.756,479.145 562.046,474.473 559.504,471.176 553.665,464.718 548.443,458.947 547.275,457.298" test="Rihanna Bottom"/>
      </g>
      <g id="Rihanna-Headf0r1">
        <path id="Layer2_0_1_STROKES" stroke="#F60" stroke-width="2.748" stroke-linejoin="round" stroke-linecap="round" fill="none" d="M543.488,204.804 L548.228,198.621 Q553.449,192.232 555.579,190.996 560.731,188.11 565.403,188.522 565.609,188.522 565.884,188.591 567.464,188.728 570.075,189.072 570.693,189.141 571.449,189.209 572.617,189.347 573.991,189.553 577.838,189.553 582.509,190.034 587.112,190.515 587.799,190.515 589.654,190.515 588.83,192.507 588.005,194.568 585.189,196.698 583.746,197.797 579.899,201.438 576.876,204.255 575.158,205.079 573.097,206.041 569.388,206.041 567.258,206.041 562.037,205.56 561.075,205.491 555.51,204.667 552.213,204.117 549.671,204.392 546.991,204.667 544.862,204.736 L543.488,204.804Z M443.598,232.284 Q446.758,246.505 452.185,254.2 456.239,259.833 479.665,288.756 505.428,320.426 510.374,324.754 515.664,329.357 525.007,330.25 533.045,331.006 540.396,329.014 547.61,327.09 568.151,306.549 589.792,285.046 593.776,273.71 599.066,258.665 601.745,246.849 605.455,230.773 605.18,217.926 605.043,211.399 605.524,211.468 605.867,211.468 606.898,215.659 609.852,227.475 611.432,226.994 614.661,226.033 617.34,220.811 620.5,214.491 618.577,207.484 617.203,202.537 615.211,198.553 613.768,195.736 613.287,191.751 612.806,187.904 616.516,183.439 620.226,178.836 620.02,175.057 619.676,170.042 618.646,169.286 616.859,169.149 615.211,168.874 613.012,168.531 610.058,171.897 607.654,174.576 606.623,176.981 M510.237,241.765 Q511.68,238.673 512.985,237.505 514.29,236.269 516.214,236.269 517.107,236.269 521.779,239.773 526.381,243.276 529.679,243.414 532.977,243.551 537.305,239.773 541.633,235.994 543.625,235.857 546.717,235.651 547.816,236.475 548.297,236.818 550.083,239.429 M549.602,228.643 Q552.007,229.742 553.518,232.147 555.304,234.895 553.861,237.025 M523.427,203.155 L522.466,229.399 M508.863,230.086 Q501.718,234.345 504.535,239.635" test="Rihanna Head"/>
        <path id="Layer2_0_2_STROKES" stroke="#FFF" stroke-width="2.748" stroke-linejoin="round" stroke-linecap="round" fill="none" d="M570.075,189.072 L567.327,196.492 575.845,194.018 Q576.395,195.392 576.395,197.041 576.395,200.614 573.784,203.155 571.311,205.697 567.67,205.697 564.098,205.697 561.487,203.155 559.014,200.614 559.014,197.041 559.014,193.469 561.487,190.858 563.411,189.072 565.884,188.591" test="Rihanna Head"/>
        <path id="Layer2_0_3_STROKES" stroke="#F00" stroke-width="2.748" stroke-linejoin="round" stroke-linecap="round" fill="none" d="M580.105,85.335 Q571.655,107.044 563.686,121.334 545.961,153.073 525.145,173.683 504.26,194.293 473.208,212.361 442.087,230.429 439.132,231.46 436.178,232.422 434.117,228.712 L432.812,224.384 431.713,233.727 Q430.064,236.475 427.728,234.483 423.057,230.498 419.622,206.797 415.294,177.118 416.255,168.531 417.423,157.813 428.965,131.501 439.751,106.975 449.781,94.266 457.132,84.991 465.238,80.938 474.032,76.541 476.23,76.541 474.307,75.442 470.941,75.167 464.208,74.618 456.994,78.74 452.872,81.075 452.872,80.114 452.804,79.289 456.033,76.335 464.414,68.709 474.032,64.45 484.337,59.916 496.36,57.718 508.382,55.519 515.802,56.756 522.809,57.924 532.29,61.565 541.152,65 543.831,67.198 545.755,68.847 548.984,68.503 556.816,67.748 558.67,67.748 564.098,67.748 573.716,71.183 584.776,75.099 586.7,75.442 602.57,78.053 604.837,80.938 605.524,81.763 603.806,81.625 600.852,81.213 598.448,81.075 588.211,80.457 580.105,85.335Z M586.7,95.228 Q588.555,92.755 589.517,91.861 589.998,91.312 591.097,90.281 M584.502,127.654 Q585.463,125.799 586.975,122.502 587.044,122.364 588.898,120.509 M589.998,113.364 Q593.707,111.853 594.875,111.097 595.7,110.548 596.043,109.517 M576.258,119.96 Q579.487,115.906 580.448,114.876 581.341,113.914 581.754,113.914 M597.692,105.67 Q600.44,105.052 601.951,104.159 602.776,103.678 603.738,102.922 M605.386,121.059 L608.134,120.509 Q608.89,120.303 609.234,119.96 M597.692,126.005 Q598.929,123.257 600.99,121.746 602.089,120.922 603.738,119.96 M543.831,97.426 Q541.976,100.105 530.984,119.616 523.702,132.601 515.252,139.745 M610.882,139.196 Q613.905,138.852 614.111,138.715 614.386,138.509 615.279,137.547 M604.287,151.837 Q606.211,151.081 607.379,150.325 608.134,149.913 609.234,149.089 M602.638,135.349 Q605.73,131.639 606.623,130.746 607.104,130.265 608.134,129.303 M613.081,154.035 Q614.661,153.691 615.554,153.279 616.241,152.936 616.378,152.936 M594.944,150.188 Q598.516,146.066 598.654,145.722 598.654,145.035 599.89,142.493 M589.998,135.898 L592.196,132.601 M607.585,165.027 Q609.508,162.622 610.951,161.523 612.256,160.493 612.531,160.081 M503.161,104.571 Q500.619,106.975 497.115,112.128 493.131,118.448 490.864,121.677 482.413,133.975 474.032,137.547 M489.97,154.585 Q478.841,164.477 471.009,171.073 456.239,183.507 450.399,185.912" test="Rihanna Head"/>
        <path id="Layer1_0_1_STROKES" stroke="#F0F" stroke-width="2.748" stroke-linejoin="round" stroke-linecap="round" fill="none" d="M506.046,273.023 Q506.733,273.092 507.283,273.092 506.046,272.68 505.291,272.268 509.275,269.588 515.939,264.436 521.298,260.52 524.389,260.108 527.206,259.696 528.717,260.795 530.503,262.031 531.809,262.031 533.32,262.031 535.862,260.863 538.267,259.764 540.328,259.902 543.007,260.039 548.228,264.505 552.556,268.146 557.503,273.71 L557.365,273.985 557.296,274.054 Q556.403,275.359 551.32,282.573 546.991,288.756 543.694,289.717 538.679,291.229 533.389,291.091 526.725,290.885 521.504,288 515.389,284.634 511.68,281.267 507.352,277.489 503.917,272.062 M557.296,274.054 Q552.9,276.39 546.785,278.519 539.915,281.061 535.381,280.855 527.137,280.512 519.855,277.558 518,276.802 514.153,275.016 512.092,273.985 510.306,273.71 508.519,273.436 507.283,273.092 508.313,273.023 509.069,272.817 510.1,272.542 514.153,271.375 518.962,270.138 520.885,269.932 523.702,269.657 526.313,270.619 528.923,271.581 531.328,271.512 533.045,271.443 536.549,270.619 539.366,269.932 544.106,270.413 548.228,270.756 551.113,271.581 554.411,272.542 557.365,273.985" test="Rihanna Head"/>
        <path id="Layer1_0_2_STROKES" stroke="#F60" stroke-width="2.748" stroke-linejoin="round" stroke-linecap="round" fill="none" d="M542.457,183.576 Q546.579,181.309 554.068,177.462 562.38,173.202 564.441,172.447 572.754,169.424 576.807,169.424 586.013,169.424 588.761,172.584 590.547,174.645 592.059,177.256 593.295,179.523 593.433,180.416" test="Rihanna Head"/>
      </g>
    </g>
  </g>
</svg>