<?xml version="1.0" encoding="utf-8"?>
<svg id="EdithAnim07" image-rendering="inherit" baseProfile="basic" version="1.1" x="0px" y="0px" width="800" height="600" xmlns="http://www.w3.org/2000/svg" xmlns:xlink="http://www.w3.org/1999/xlink">
  <g id="Rihanna-rearf22r1" overflow="visible">
    <g id="RihannaWholeBodyf0r1">
      <g id="Rihanna-Body">
        <path id="Layer4_0_1_STROKES" stroke="#F60" stroke-width="1.374" stroke-linejoin="round" stroke-linecap="round" fill="none" d="M513.077,329.833 Q516.031,331.276 521.871,333.886 527.229,336.497 532.656,339.795 541.313,345.016 556.701,360.405 557.251,360.954 551.755,346.321 545.16,328.734 545.022,321.933 544.816,312.727 544.748,312.589 544.61,311.834 541.931,309.91 540.282,308.742 534.924,307.643 530.458,306.75 529.908,305.101 529.221,302.971 529.771,302.422 529.977,302.078 532.656,300.979 534.237,300.361 536.847,302.078 539.183,303.727 540.213,302.696 541.381,301.597 541.519,298.437 541.656,294.04 542.274,292.048 543.442,288.27 544.335,287.376 545.435,286.277 547.427,287.583 549.625,288.956 554.228,295.346 558.969,302.01 561.51,307.506 564.052,313.07 569.136,336.153 574.151,358.893 574.22,364.526 574.22,364.87 575.113,375.175 575.594,380.877 574.22,382.732 572.571,384 556.839,384.312 541.794,383.625 533,381.358 528.122,380.121 519.741,374.419 L512.253,369.061 Q512.253,370.16 512.253,371.259 512.321,381.839 511.016,384.793 504.764,399.151 502.428,402.311 M457.43,289.987 Q456.606,293.834 454.957,301.666 452.415,308.124 444.72,311.284 441.079,312.795 429.675,316.23 420.882,318.91 416.622,321.452 414.492,322.757 412.775,324.337 407.073,329.627 404.05,334.23 400.89,338.97 399.378,344.603 397.936,350.1 398.966,360.611 399.928,370.572 402.126,376.549 402.195,376.755 402.333,376.961 404.462,382.938 407.691,393 411.264,405.953 412.775,412.96 413.874,417.838 417.103,431.165 419.714,442.845 419.301,446.28 418.889,449.852 418.889,452.119 418.821,453.699 418.958,453.837 M416.622,321.452 Q397.524,328.665 390.241,343.436 382.89,358.206 394.501,370.023 397.455,373.664 400.065,375.518 401.165,376.343 402.333,376.961 M501.054,418.044 Q500.024,418.25 499.2,418.593 498.169,419.006 497.07,419.349 495.971,419.899 494.94,420.517 493.772,421.204 492.673,421.685 491.849,422.097 491.093,422.509 L489.856,423.265 Q489.032,424.158 488.482,425.257 487.933,426.15 487.864,427.181 487.864,427.868 488.07,428.555 488.551,428.761 489.101,429.036 492.81,428.692 495.902,427.524 498.993,426.288 499.268,426.425 L502.772,424.639 Q502.978,425.051 506.963,425.189 510.879,425.257 512.184,422.166 511.978,418.731 509.367,416.464 509.367,415.158 509.985,413.991 509.985,412.823 509.024,412.204 508.199,411.655 507.306,411.174 L507.237,410.006 Q508.474,408.426 507.718,406.571 507.65,406.296 507.581,406.09 505.863,405.197 503.734,405.403 503.39,405.403 503.047,405.472 L502.222,406.365 Q498.993,406.64 496.108,407.739 495.078,408.014 494.047,408.357 492.192,408.769 490.818,409.113 489.582,409.594 488.414,410.281 487.314,410.762 486.284,411.38 485.46,411.861 484.704,412.41 483.811,413.166 483.192,414.128 482.574,414.884 482.505,415.777 482.505,416.67 483.192,417.151 484.017,417.838 485.185,418.112 486.627,418.593 495.49,414.334 L499.337,413.235 M485.322,418.731 Q484.223,418.937 483.467,419.899 482.574,420.861 481.887,421.891 481.612,422.234 481.475,422.715 481.475,423.677 482.093,424.227 482.918,424.708 483.811,425.051 485.253,425.601 486.765,424.845 487.864,424.295 488.895,423.677 489.375,423.54 489.856,423.265 M504.215,428.761 Q505.245,432.265 506.55,437.28 508.268,442.707 509.985,444.905 511.703,447.104 514.863,449.096 516.581,450.195 519.26,451.775 M511.703,356.969 Q512.184,362.946 512.253,369.061 M499.749,630.396 Q502.566,631.357 505.657,630.739 508.199,630.258 510.054,629.022 M474.33,547.956 Q475.704,554.001 480.719,586.084 485.391,616.312 486.009,622.152 M533.412,545.208 Q530.802,555.787 525.512,581.825 519.26,612.877 519.672,617.343 520.359,624.419 520.977,626.548 522.214,631.083 525.855,635.205 529.359,639.12 529.634,647.433 529.84,652.036 529.29,660.623 529.29,665.433 526.954,674.707 525.718,679.86 523.107,688.791 L518.985,703.905 M426.24,556.887 L437.782,584.779 Q449.804,614.182 452.346,621.465 M455.094,631.77 Q454.064,636.235 450.903,648.532 448.568,659.868 450.285,666.807 452.69,676.493 454.682,682.264 457.293,690.027 460.59,695.661 M466.086,631.083 L470.277,631.701 Q474.948,632.182 477.078,631.77" test="Rihanna Body"/>
      </g>
      <g id="Rihanna-Bottomf0r1">
        <path id="Layer3_0_1_STROKES" stroke="#F60" stroke-width="1.374" stroke-linejoin="round" stroke-linecap="round" fill="none" d="M415.529,460.733 Q409.621,472.687 405.568,479.282 401.446,486.015 400.072,489.038 397.53,494.74 396.637,501.61 395.332,511.983 396.637,520.983 398.423,533.28 404.881,539.051 426.865,558.699 447.131,554.852 458.81,552.654 467.948,544.959 475.161,538.776 476.329,534.242 476.879,531.975 477.153,528.265 477.359,525.243 477.703,524.624 477.978,524.143 482.581,531.357 487.939,539.67 491.099,541.456 495.084,543.723 501.611,544.822 507.519,545.784 514.114,545.578 521.877,545.303 530.19,542.692 540.357,539.395 542.968,534.586 546.54,527.991 548.533,519.54 551.075,508.892 549.838,499.549 549.22,494.808 545.991,487.114 542.556,479.145 538.846,474.473 536.304,471.176 530.465,464.718 525.243,458.947 524.075,457.298" test="Rihanna Bottom"/>
      </g>
      <g id="Rihanna-Headf0r1">
        <path id="Layer2_0_1_STROKES" stroke="#F60" stroke-width="2.748" stroke-linejoin="round" stroke-linecap="round" fill="none" d="M520.288,204.804 L525.028,198.621 Q530.249,192.232 532.379,190.996 537.531,188.11 542.203,188.522 542.409,188.522 542.684,188.591 544.264,188.728 546.875,189.072 547.493,189.141 548.249,189.209 549.417,189.347 550.791,189.553 554.638,189.553 559.309,190.034 563.912,190.515 564.599,190.515 566.454,190.515 565.63,192.507 564.805,194.568 561.989,196.698 560.546,197.797 556.699,201.438 553.676,204.255 551.958,205.079 549.897,206.041 546.188,206.041 544.058,206.041 538.837,205.56 537.875,205.491 532.31,204.667 529.013,204.117 526.471,204.392 523.791,204.667 521.662,204.736 L520.288,204.804Z M420.398,232.284 Q423.558,246.505 428.985,254.2 433.039,259.833 456.465,288.756 482.228,320.426 487.174,324.754 492.464,329.357 501.807,330.25 509.845,331.006 517.196,329.014 524.41,327.09 544.951,306.549 566.592,285.046 570.576,273.71 575.866,258.665 578.545,246.849 582.255,230.773 581.98,217.926 581.843,211.399 582.324,211.468 582.667,211.468 583.698,215.659 586.652,227.475 588.232,226.994 591.461,226.033 594.14,220.811 597.3,214.491 595.377,207.484 594.003,202.537 592.011,198.553 590.568,195.736 590.087,191.751 589.606,187.904 593.316,183.439 597.026,178.836 596.82,175.057 596.476,170.042 595.446,169.286 593.659,169.149 592.011,168.874 589.812,168.531 586.858,171.897 584.454,174.576 583.423,176.981 M487.037,241.765 Q488.48,238.673 489.785,237.505 491.09,236.269 493.014,236.269 493.907,236.269 498.579,239.773 503.181,243.276 506.479,243.414 509.777,243.551 514.105,239.773 518.433,235.994 520.425,235.857 523.517,235.651 524.616,236.475 525.097,236.818 526.883,239.429 M526.402,228.643 Q528.807,229.742 530.318,232.147 532.104,234.895 530.661,237.025 M500.227,203.155 L499.266,229.399 M485.663,230.086 Q478.518,234.345 481.335,239.635" test="Rihanna Head"/>
        <path id="Layer2_0_2_STROKES" stroke="#FFF" stroke-width="2.748" stroke-linejoin="round" stroke-linecap="round" fill="none" d="M546.875,189.072 L544.127,196.492 552.645,194.018 Q553.195,195.392 553.195,197.041 553.195,200.614 550.584,203.155 548.111,205.697 544.47,205.697 540.898,205.697 538.287,203.155 535.814,200.614 535.814,197.041 535.814,193.469 538.287,190.858 540.211,189.072 542.684,188.591" test="Rihanna Head"/>
        <path id="Layer2_0_3_STROKES" stroke="#F00" stroke-width="2.748" stroke-linejoin="round" stroke-linecap="round" fill="none" d="M556.905,85.335 Q548.455,107.044 540.486,121.334 522.761,153.073 501.945,173.683 481.06,194.293 450.008,212.361 418.887,230.429 415.932,231.46 412.978,232.422 410.917,228.712 L409.612,224.384 408.513,233.727 Q406.864,236.475 404.528,234.483 399.857,230.498 396.422,206.797 392.094,177.118 393.055,168.531 394.223,157.813 405.765,131.501 416.551,106.975 426.581,94.266 433.932,84.991 442.038,80.938 450.832,76.541 453.03,76.541 451.107,75.442 447.741,75.167 441.008,74.618 433.794,78.74 429.672,81.075 429.672,80.114 429.604,79.289 432.833,76.335 441.214,68.709 450.832,64.45 461.137,59.916 473.16,57.718 485.182,55.519 492.602,56.756 499.609,57.924 509.09,61.565 517.952,65 520.631,67.198 522.555,68.847 525.784,68.503 533.616,67.748 535.47,67.748 540.898,67.748 550.516,71.183 561.576,75.099 563.5,75.442 579.37,78.053 581.637,80.938 582.324,81.763 580.606,81.625 577.652,81.213 575.248,81.075 565.011,80.457 556.905,85.335Z M563.5,95.228 Q565.355,92.755 566.317,91.861 566.798,91.312 567.897,90.281 M561.302,127.654 Q562.263,125.799 563.775,122.502 563.844,122.364 565.698,120.509 M566.798,113.364 Q570.507,111.853 571.675,111.097 572.5,110.548 572.843,109.517 M553.058,119.96 Q556.287,115.906 557.248,114.876 558.141,113.914 558.554,113.914 M574.492,105.67 Q577.24,105.052 578.751,104.159 579.576,103.678 580.538,102.922 M582.186,121.059 L584.934,120.509 Q585.69,120.303 586.034,119.96 M574.492,126.005 Q575.729,123.257 577.79,121.746 578.889,120.922 580.538,119.96 M520.631,97.426 Q518.776,100.105 507.784,119.616 500.502,132.601 492.052,139.745 M587.682,139.196 Q590.705,138.852 590.911,138.715 591.186,138.509 592.079,137.547 M581.087,151.837 Q583.011,151.081 584.179,150.325 584.934,149.913 586.034,149.089 M579.438,135.349 Q582.53,131.639 583.423,130.746 583.904,130.265 584.934,129.303 M589.881,154.035 Q591.461,153.691 592.354,153.279 593.041,152.936 593.178,152.936 M571.744,150.188 Q575.316,146.066 575.454,145.722 575.454,145.035 576.69,142.493 M566.798,135.898 L568.996,132.601 M584.385,165.027 Q586.308,162.622 587.751,161.523 589.056,160.493 589.331,160.081 M479.961,104.571 Q477.419,106.975 473.915,112.128 469.931,118.448 467.664,121.677 459.213,133.975 450.832,137.547 M466.77,154.585 Q455.641,164.477 447.809,171.073 433.039,183.507 427.199,185.912" test="Rihanna Head"/>
        <path id="Layer1_0_1_STROKES" stroke="#F0F" stroke-width="2.748" stroke-linejoin="round" stroke-linecap="round" fill="none" d="M482.846,273.023 Q483.533,273.092 484.083,273.092 482.846,272.68 482.091,272.268 486.075,269.588 492.739,264.436 498.098,260.52 501.189,260.108 504.006,259.696 505.517,260.795 507.303,262.031 508.609,262.031 510.12,262.031 512.662,260.863 515.067,259.764 517.128,259.902 519.807,260.039 525.028,264.505 529.356,268.146 534.303,273.71 L534.165,273.985 534.096,274.054 Q533.203,275.359 528.12,282.573 523.791,288.756 520.494,289.717 515.479,291.229 510.189,291.091 503.525,290.885 498.304,288 492.189,284.634 488.48,281.267 484.152,277.489 480.717,272.062 M534.096,274.054 Q529.7,276.39 523.585,278.519 516.715,281.061 512.181,280.855 503.937,280.512 496.655,277.558 494.8,276.802 490.953,275.016 488.892,273.985 487.106,273.71 485.319,273.436 484.083,273.092 485.113,273.023 485.869,272.817 486.9,272.542 490.953,271.375 495.762,270.138 497.685,269.932 500.502,269.657 503.113,270.619 505.723,271.581 508.128,271.512 509.845,271.443 513.349,270.619 516.166,269.932 520.906,270.413 525.028,270.756 527.913,271.581 531.211,272.542 534.165,273.985" test="Rihanna Head"/>
        <path id="Layer1_0_2_STROKES" stroke="#F60" stroke-width="2.748" stroke-linejoin="round" stroke-linecap="round" fill="none" d="M519.257,183.576 Q523.379,181.309 530.868,177.462 539.18,173.202 541.241,172.447 549.554,169.424 553.607,169.424 562.813,169.424 565.561,172.584 567.347,174.645 568.859,177.256 570.095,179.523 570.233,180.416" test="Rihanna Head"/>
      </g>
    </g>
  </g>
</svg>