<?xml version="1.0" encoding="utf-8"?>
<svg id="EdithAnim07" image-rendering="inherit" baseProfile="basic" version="1.1" x="0px" y="0px" width="800" height="600" xmlns="http://www.w3.org/2000/svg" xmlns:xlink="http://www.w3.org/1999/xlink">
  <g id="Rihanna-rearf23r1" overflow="visible">
    <g id="RihannaWholeBodyf0r1">
      <g id="Rihanna-Body">
        <path id="Layer4_0_1_STROKES" stroke="#F60" stroke-width="1.374" stroke-linejoin="round" stroke-linecap="round" fill="none" d="M502.527,329.833 Q505.481,331.276 511.321,333.886 516.679,336.497 522.106,339.795 530.763,345.016 546.151,360.405 546.701,360.954 541.205,346.321 534.61,328.734 534.472,321.933 534.266,312.727 534.198,312.589 534.06,311.834 531.381,309.91 529.732,308.742 524.374,307.643 519.908,306.75 519.358,305.101 518.671,302.971 519.221,302.422 519.427,302.078 522.106,300.979 523.687,300.361 526.297,302.078 528.633,303.727 529.663,302.696 530.831,301.597 530.969,298.437 531.106,294.04 531.724,292.048 532.892,288.27 533.785,287.376 534.885,286.277 536.877,287.583 539.075,288.956 543.678,295.346 548.419,302.01 550.96,307.506 553.502,313.07 558.586,336.153 563.601,358.893 563.67,364.526 563.67,364.87 564.563,375.175 565.044,380.877 563.67,382.732 562.021,384 546.289,384.312 531.244,383.625 522.45,381.358 517.572,380.121 509.191,374.419 L501.703,369.061 Q501.703,370.16 501.703,371.259 501.771,381.839 500.466,384.793 494.214,399.151 491.878,402.311 M446.88,289.987 Q446.056,293.834 444.407,301.666 441.865,308.124 434.17,311.284 430.529,312.795 419.125,316.23 410.332,318.91 406.072,321.452 403.942,322.757 402.225,324.337 396.523,329.627 393.5,334.23 390.34,338.97 388.828,344.603 387.386,350.1 388.416,360.611 389.378,370.572 391.576,376.549 391.645,376.755 391.783,376.961 393.912,382.938 397.141,393 400.714,405.953 402.225,412.96 403.324,417.838 406.553,431.165 409.164,442.845 408.751,446.28 408.339,449.852 408.339,452.119 408.271,453.699 408.408,453.837 M406.072,321.452 Q386.974,328.665 379.691,343.436 372.34,358.206 383.951,370.023 386.905,373.664 389.515,375.518 390.615,376.343 391.783,376.961 M490.504,418.044 Q489.474,418.25 488.65,418.593 487.619,419.006 486.52,419.349 485.421,419.899 484.39,420.517 483.222,421.204 482.123,421.685 481.299,422.097 480.543,422.509 L479.306,423.265 Q478.482,424.158 477.932,425.257 477.383,426.15 477.314,427.181 477.314,427.868 477.52,428.555 478.001,428.761 478.551,429.036 482.26,428.692 485.352,427.524 488.443,426.288 488.718,426.425 L492.222,424.639 Q492.428,425.051 496.413,425.189 500.329,425.257 501.634,422.166 501.428,418.731 498.817,416.464 498.817,415.158 499.435,413.991 499.435,412.823 498.474,412.204 497.649,411.655 496.756,411.174 L496.687,410.006 Q497.924,408.426 497.168,406.571 497.1,406.296 497.031,406.09 495.313,405.197 493.184,405.403 492.84,405.403 492.497,405.472 L491.672,406.365 Q488.443,406.64 485.558,407.739 484.528,408.014 483.497,408.357 481.642,408.769 480.268,409.113 479.032,409.594 477.864,410.281 476.764,410.762 475.734,411.38 474.91,411.861 474.154,412.41 473.261,413.166 472.642,414.128 472.024,414.884 471.955,415.777 471.955,416.67 472.642,417.151 473.467,417.838 474.635,418.112 476.077,418.593 484.94,414.334 L488.787,413.235 M474.772,418.731 Q473.673,418.937 472.917,419.899 472.024,420.861 471.337,421.891 471.062,422.234 470.925,422.715 470.925,423.677 471.543,424.227 472.368,424.708 473.261,425.051 474.703,425.601 476.215,424.845 477.314,424.295 478.345,423.677 478.825,423.54 479.306,423.265 M493.665,428.761 Q494.695,432.265 496,437.28 497.718,442.707 499.435,444.905 501.153,447.104 504.313,449.096 506.031,450.195 508.71,451.775 M501.153,356.969 Q501.634,362.946 501.703,369.061 M489.199,630.396 Q492.016,631.357 495.107,630.739 497.649,630.258 499.504,629.022 M463.78,547.956 Q465.154,554.001 470.169,586.084 474.841,616.312 475.459,622.152 M522.862,545.208 Q520.252,555.787 514.962,581.825 508.71,612.877 509.122,617.343 509.809,624.419 510.427,626.548 511.664,631.083 515.305,635.205 518.809,639.12 519.084,647.433 519.29,652.036 518.74,660.623 518.74,665.433 516.404,674.707 515.168,679.86 512.557,688.791 L508.435,703.905 M415.69,556.887 L427.232,584.779 Q439.254,614.182 441.796,621.465 M444.544,631.77 Q443.514,636.235 440.353,648.532 438.018,659.868 439.735,666.807 442.14,676.493 444.132,682.264 446.743,690.027 450.04,695.661 M455.536,631.083 L459.727,631.701 Q464.398,632.182 466.528,631.77" test="Rihanna Body"/>
      </g>
      <g id="Rihanna-Bottomf0r1">
        <path id="Layer3_0_1_STROKES" stroke="#F60" stroke-width="1.374" stroke-linejoin="round" stroke-linecap="round" fill="none" d="M404.979,460.733 Q399.071,472.687 395.018,479.282 390.896,486.015 389.522,489.038 386.98,494.74 386.087,501.61 384.782,511.983 386.087,520.983 387.873,533.28 394.331,539.051 416.315,558.699 436.581,554.852 448.26,552.654 457.398,544.959 464.611,538.776 465.779,534.242 466.329,531.975 466.603,528.265 466.809,525.243 467.153,524.624 467.428,524.143 472.031,531.357 477.389,539.67 480.549,541.456 484.534,543.723 491.061,544.822 496.969,545.784 503.564,545.578 511.327,545.303 519.64,542.692 529.807,539.395 532.418,534.586 535.99,527.991 537.983,519.54 540.525,508.892 539.288,499.549 538.67,494.808 535.441,487.114 532.006,479.145 528.296,474.473 525.754,471.176 519.915,464.718 514.693,458.947 513.525,457.298" test="Rihanna Bottom"/>
      </g>
      <g id="Rihanna-Headf0r1">
        <path id="Layer2_0_1_STROKES" stroke="#F60" stroke-width="2.748" stroke-linejoin="round" stroke-linecap="round" fill="none" d="M509.738,204.804 L514.478,198.621 Q519.699,192.232 521.829,190.996 526.981,188.11 531.653,188.522 531.859,188.522 532.134,188.591 533.714,188.728 536.325,189.072 536.943,189.141 537.699,189.209 538.867,189.347 540.241,189.553 544.088,189.553 548.759,190.034 553.362,190.515 554.049,190.515 555.904,190.515 555.08,192.507 554.255,194.568 551.439,196.698 549.996,197.797 546.149,201.438 543.126,204.255 541.408,205.079 539.347,206.041 535.638,206.041 533.508,206.041 528.287,205.56 527.325,205.491 521.76,204.667 518.463,204.117 515.921,204.392 513.241,204.667 511.112,204.736 L509.738,204.804Z M409.848,232.284 Q413.008,246.505 418.435,254.2 422.489,259.833 445.915,288.756 471.678,320.426 476.624,324.754 481.914,329.357 491.257,330.25 499.295,331.006 506.646,329.014 513.86,327.09 534.401,306.549 556.042,285.046 560.026,273.71 565.316,258.665 567.995,246.849 571.705,230.773 571.43,217.926 571.293,211.399 571.774,211.468 572.117,211.468 573.148,215.659 576.102,227.475 577.682,226.994 580.911,226.033 583.59,220.811 586.75,214.491 584.827,207.484 583.453,202.537 581.461,198.553 580.018,195.736 579.537,191.751 579.056,187.904 582.766,183.439 586.476,178.836 586.27,175.057 585.926,170.042 584.896,169.286 583.109,169.149 581.461,168.874 579.262,168.531 576.308,171.897 573.904,174.576 572.873,176.981 M476.487,241.765 Q477.93,238.673 479.235,237.505 480.54,236.269 482.464,236.269 483.357,236.269 488.029,239.773 492.631,243.276 495.929,243.414 499.227,243.551 503.555,239.773 507.883,235.994 509.875,235.857 512.967,235.651 514.066,236.475 514.547,236.818 516.333,239.429 M515.852,228.643 Q518.256,229.742 519.768,232.147 521.554,234.895 520.111,237.025 M489.677,203.155 L488.716,229.399 M475.113,230.086 Q467.968,234.345 470.785,239.635" test="Rihanna Head"/>
        <path id="Layer2_0_2_STROKES" stroke="#FFF" stroke-width="2.748" stroke-linejoin="round" stroke-linecap="round" fill="none" d="M536.325,189.072 L533.577,196.492 542.095,194.018 Q542.645,195.392 542.645,197.041 542.645,200.614 540.034,203.155 537.561,205.697 533.92,205.697 530.348,205.697 527.737,203.155 525.264,200.614 525.264,197.041 525.264,193.469 527.737,190.858 529.661,189.072 532.134,188.591" test="Rihanna Head"/>
        <path id="Layer2_0_3_STROKES" stroke="#F00" stroke-width="2.748" stroke-linejoin="round" stroke-linecap="round" fill="none" d="M546.355,85.335 Q537.905,107.044 529.936,121.334 512.211,153.073 491.395,173.683 470.51,194.293 439.458,212.361 408.337,230.429 405.382,231.46 402.428,232.422 400.367,228.712 L399.062,224.384 397.963,233.727 Q396.314,236.475 393.978,234.483 389.307,230.498 385.872,206.797 381.544,177.118 382.505,168.531 383.673,157.813 395.215,131.501 406.001,106.975 416.031,94.266 423.382,84.991 431.488,80.938 440.282,76.541 442.48,76.541 440.557,75.442 437.191,75.167 430.458,74.618 423.244,78.74 419.122,81.075 419.122,80.114 419.054,79.289 422.283,76.335 430.664,68.709 440.282,64.45 450.587,59.916 462.61,57.718 474.632,55.519 482.052,56.756 489.059,57.924 498.54,61.565 507.402,65 510.081,67.198 512.005,68.847 515.234,68.503 523.066,67.748 524.92,67.748 530.348,67.748 539.966,71.183 551.026,75.099 552.95,75.442 568.82,78.053 571.087,80.938 571.774,81.763 570.056,81.625 567.102,81.213 564.698,81.075 554.461,80.457 546.355,85.335Z M552.95,95.228 Q554.805,92.755 555.767,91.861 556.248,91.312 557.347,90.281 M550.752,127.654 Q551.713,125.799 553.225,122.502 553.294,122.364 555.148,120.509 M556.248,113.364 Q559.957,111.853 561.125,111.097 561.95,110.548 562.293,109.517 M542.508,119.96 Q545.737,115.906 546.698,114.876 547.591,113.914 548.004,113.914 M563.942,105.67 Q566.69,105.052 568.201,104.159 569.026,103.678 569.988,102.922 M571.636,121.059 L574.384,120.509 Q575.14,120.303 575.484,119.96 M563.942,126.005 Q565.179,123.257 567.24,121.746 568.339,120.922 569.988,119.96 M510.081,97.426 Q508.226,100.105 497.234,119.616 489.952,132.601 481.502,139.745 M577.132,139.196 Q580.155,138.852 580.361,138.715 580.636,138.509 581.529,137.547 M570.537,151.837 Q572.461,151.081 573.629,150.325 574.384,149.913 575.484,149.089 M568.888,135.349 Q571.98,131.639 572.873,130.746 573.354,130.265 574.384,129.303 M579.331,154.035 Q580.911,153.691 581.804,153.279 582.491,152.936 582.628,152.936 M561.194,150.188 Q564.766,146.066 564.904,145.722 564.904,145.035 566.14,142.493 M556.248,135.898 L558.446,132.601 M573.835,165.027 Q575.758,162.622 577.201,161.523 578.506,160.493 578.781,160.081 M469.411,104.571 Q466.869,106.975 463.365,112.128 459.381,118.448 457.114,121.677 448.663,133.975 440.282,137.547 M456.22,154.585 Q445.091,164.477 437.259,171.073 422.489,183.507 416.649,185.912" test="Rihanna Head"/>
        <path id="Layer1_0_1_STROKES" stroke="#F0F" stroke-width="2.748" stroke-linejoin="round" stroke-linecap="round" fill="none" d="M472.296,273.023 Q472.983,273.092 473.533,273.092 472.296,272.68 471.541,272.268 475.525,269.588 482.189,264.436 487.548,260.52 490.639,260.108 493.456,259.696 494.967,260.795 496.753,262.031 498.059,262.031 499.57,262.031 502.112,260.863 504.517,259.764 506.578,259.902 509.257,260.039 514.478,264.505 518.806,268.146 523.753,273.71 L523.615,273.985 523.546,274.054 Q522.653,275.359 517.57,282.573 513.241,288.756 509.944,289.717 504.929,291.229 499.639,291.091 492.975,290.885 487.754,288 481.639,284.634 477.93,281.267 473.602,277.489 470.167,272.062 M523.546,274.054 Q519.15,276.39 513.035,278.519 506.165,281.061 501.631,280.855 493.387,280.512 486.105,277.558 484.25,276.802 480.403,275.016 478.342,273.985 476.556,273.71 474.769,273.436 473.533,273.092 474.563,273.023 475.319,272.817 476.35,272.542 480.403,271.375 485.212,270.138 487.135,269.932 489.952,269.657 492.563,270.619 495.173,271.581 497.578,271.512 499.295,271.443 502.799,270.619 505.616,269.932 510.356,270.413 514.478,270.756 517.363,271.581 520.661,272.542 523.615,273.985" test="Rihanna Head"/>
        <path id="Layer1_0_2_STROKES" stroke="#F60" stroke-width="2.748" stroke-linejoin="round" stroke-linecap="round" fill="none" d="M508.707,183.576 Q512.829,181.309 520.318,177.462 528.63,173.202 530.691,172.447 539.004,169.424 543.057,169.424 552.263,169.424 555.011,172.584 556.797,174.645 558.309,177.256 559.545,179.523 559.683,180.416" test="Rihanna Head"/>
      </g>
    </g>
  </g>
</svg>