<?xml version="1.0" encoding="utf-8"?>
<svg id="EdithAnim07" image-rendering="inherit" baseProfile="basic" version="1.1" x="0px" y="0px" width="800" height="600" xmlns="http://www.w3.org/2000/svg" xmlns:xlink="http://www.w3.org/1999/xlink">
  <g id="Rihanna-rearf292r1" overflow="visible">
    <g id="RihannaWholeBodyf29r1">
      <g id="Rihanna-Body">
        <path id="Layer3_0_1_STROKES" stroke="#F60" stroke-width="1.374" stroke-linejoin="round" stroke-linecap="round" fill="none" d="M431.127,329.833 Q434.081,331.276 439.921,333.886 445.279,336.497 450.706,339.795 459.363,345.016 474.751,360.405 475.301,360.954 469.805,346.321 463.21,328.734 463.072,321.933 462.866,312.727 462.798,312.589 462.66,311.834 459.981,309.91 458.332,308.742 452.974,307.643 448.508,306.75 447.958,305.101 447.271,302.971 447.821,302.422 448.027,302.078 450.706,300.979 452.287,300.361 454.897,302.078 457.233,303.727 458.263,302.696 459.431,301.597 459.569,298.437 459.706,294.04 460.324,292.048 461.492,288.27 462.385,287.376 463.485,286.277 465.477,287.583 467.675,288.956 472.278,295.346 477.019,302.01 479.56,307.506 482.102,313.07 487.186,336.153 492.201,358.893 492.27,364.526 492.27,364.87 493.163,375.175 493.644,380.877 492.27,382.732 490.621,384 474.889,384.312 459.844,383.625 451.05,381.358 446.172,380.121 437.791,374.419 L430.303,369.061 Q430.303,370.16 430.303,371.259 430.371,381.839 429.066,384.793 422.814,399.151 420.478,402.311 M375.48,289.987 Q374.656,293.834 373.007,301.666 370.465,308.124 362.77,311.284 359.129,312.795 347.725,316.23 338.932,318.91 334.672,321.452 332.542,322.757 330.825,324.337 325.123,329.627 322.1,334.23 318.94,338.97 317.428,344.603 315.986,350.1 317.016,360.611 317.978,370.572 320.176,376.549 320.245,376.755 320.383,376.961 322.512,382.938 325.741,393 329.314,405.953 330.825,412.96 331.924,417.838 335.153,431.165 337.764,442.845 337.351,446.28 336.939,449.852 336.939,452.119 336.871,453.699 337.008,453.837 M334.672,321.452 Q315.574,328.665 308.291,343.436 300.94,358.206 312.551,370.023 315.505,373.664 318.115,375.518 319.215,376.343 320.383,376.961 M419.104,418.044 Q418.074,418.25 417.25,418.593 416.219,419.006 415.12,419.349 414.021,419.899 412.99,420.517 411.822,421.204 410.723,421.685 409.899,422.097 409.143,422.509 L407.906,423.265 Q407.082,424.158 406.532,425.257 405.983,426.15 405.914,427.181 405.914,427.868 406.12,428.555 406.601,428.761 407.151,429.036 410.86,428.692 413.952,427.524 417.043,426.288 417.318,426.425 L420.822,424.639 Q421.028,425.051 425.013,425.189 428.929,425.257 430.234,422.166 430.028,418.731 427.417,416.464 427.417,415.158 428.035,413.991 428.035,412.823 427.074,412.204 426.249,411.655 425.356,411.174 L425.287,410.006 Q426.524,408.426 425.768,406.571 425.7,406.296 425.631,406.09 423.913,405.197 421.784,405.403 421.44,405.403 421.097,405.472 L420.272,406.365 Q417.043,406.64 414.158,407.739 413.128,408.014 412.097,408.357 410.242,408.769 408.868,409.113 407.632,409.594 406.464,410.281 405.364,410.762 404.334,411.38 403.51,411.861 402.754,412.41 401.861,413.166 401.242,414.128 400.624,414.884 400.555,415.777 400.555,416.67 401.242,417.151 402.067,417.838 403.235,418.112 404.677,418.593 413.54,414.334 L417.387,413.235 M403.372,418.731 Q402.273,418.937 401.517,419.899 400.624,420.861 399.937,421.891 399.662,422.234 399.525,422.715 399.525,423.677 400.143,424.227 400.968,424.708 401.861,425.051 403.303,425.601 404.815,424.845 405.914,424.295 406.945,423.677 407.425,423.54 407.906,423.265 M422.265,428.761 Q423.295,432.265 424.6,437.28 426.318,442.707 428.035,444.905 429.753,447.104 432.913,449.096 434.631,450.195 437.31,451.775 M429.753,356.969 Q430.234,362.946 430.303,369.061 M417.799,630.396 Q420.616,631.357 423.707,630.739 426.249,630.258 428.104,629.022 M392.38,547.956 Q393.754,554.001 398.769,586.084 403.441,616.312 404.059,622.152 M451.462,545.208 Q448.852,555.787 443.562,581.825 437.31,612.877 437.722,617.343 438.409,624.419 439.027,626.548 440.264,631.083 443.905,635.205 447.409,639.12 447.684,647.433 447.89,652.036 447.34,660.623 447.34,665.433 445.004,674.707 443.768,679.86 441.157,688.791 L437.035,703.905 M344.29,556.887 L355.832,584.779 Q367.854,614.182 370.396,621.465 M373.144,631.77 Q372.114,636.235 368.953,648.532 366.618,659.868 368.335,666.807 370.74,676.493 372.732,682.264 375.343,690.027 378.64,695.661 M384.136,631.083 L388.327,631.701 Q392.998,632.182 395.128,631.77" test="Rihanna Body"/>
      </g>
      <g id="Rihanna-Headf1r1">
        <path id="Layer2_0_1_STROKES" stroke="#F60" stroke-width="2.748" stroke-linejoin="round" stroke-linecap="round" fill="none" d="M438.338,204.804 L443.078,198.621 Q448.299,192.232 450.429,190.996 455.581,188.11 460.253,188.522 460.459,188.522 460.734,188.591 462.314,188.728 464.925,189.072 465.543,189.141 466.299,189.209 467.467,189.347 468.841,189.553 472.688,189.553 477.359,190.034 481.962,190.515 482.649,190.515 484.504,190.515 483.68,192.507 482.855,194.568 480.039,196.698 478.596,197.797 474.749,201.438 471.726,204.255 470.008,205.079 467.947,206.041 464.238,206.041 462.108,206.041 456.887,205.56 455.925,205.491 450.36,204.667 447.063,204.117 444.521,204.392 441.841,204.667 439.712,204.736 L438.338,204.804Z M338.448,232.284 Q341.608,246.505 347.035,254.2 351.089,259.833 374.515,288.756 400.278,320.426 405.224,324.754 410.514,329.357 419.857,330.25 427.895,331.006 435.246,329.014 442.46,327.09 463.001,306.549 484.642,285.046 488.626,273.71 493.916,258.665 496.595,246.849 500.305,230.773 500.03,217.926 499.893,211.399 500.374,211.468 500.717,211.468 501.748,215.659 504.702,227.475 506.282,226.994 509.511,226.033 512.19,220.811 515.35,214.491 513.427,207.484 512.053,202.537 510.061,198.553 508.618,195.736 508.137,191.751 507.656,187.904 511.366,183.439 515.076,178.836 514.87,175.057 514.526,170.042 513.496,169.286 511.709,169.149 510.061,168.874 507.862,168.531 504.908,171.897 502.504,174.576 501.473,176.981 M405.087,241.765 Q406.53,238.673 407.835,237.505 409.14,236.269 411.064,236.269 411.957,236.269 416.629,239.773 421.231,243.276 424.529,243.414 427.827,243.551 432.155,239.773 436.483,235.994 438.475,235.857 441.567,235.651 442.666,236.475 443.147,236.818 444.933,239.429 M444.452,228.643 Q446.857,229.742 448.368,232.147 450.154,234.895 448.711,237.025 M418.277,203.155 L417.316,229.399 M403.713,230.086 Q396.568,234.345 399.385,239.635" test="Rihanna Head"/>
        <path id="Layer2_0_2_STROKES" stroke="#FFF" stroke-width="2.748" stroke-linejoin="round" stroke-linecap="round" fill="none" d="M464.925,189.072 L462.177,196.492 470.695,194.018 Q471.245,195.392 471.245,197.041 471.245,200.614 468.634,203.155 466.161,205.697 462.52,205.697 458.948,205.697 456.337,203.155 453.864,200.614 453.864,197.041 453.864,193.469 456.337,190.858 458.261,189.072 460.734,188.591" test="Rihanna Head"/>
        <path id="Layer2_0_3_STROKES" stroke="#F00" stroke-width="2.748" stroke-linejoin="round" stroke-linecap="round" fill="none" d="M474.955,85.335 Q466.505,107.044 458.536,121.334 440.811,153.073 419.995,173.683 399.11,194.293 368.058,212.361 336.937,230.429 333.982,231.46 331.028,232.422 328.967,228.712 L327.662,224.384 326.563,233.727 Q324.914,236.475 322.578,234.483 317.907,230.498 314.472,206.797 310.144,177.118 311.105,168.531 312.273,157.813 323.815,131.501 334.601,106.975 344.631,94.266 351.982,84.991 360.088,80.938 368.882,76.541 371.08,76.541 369.157,75.442 365.791,75.167 359.058,74.618 351.844,78.74 347.722,81.075 347.722,80.114 347.654,79.289 350.883,76.335 359.264,68.709 368.882,64.45 379.187,59.916 391.21,57.718 403.232,55.519 410.652,56.756 417.659,57.924 427.14,61.565 436.002,65 438.681,67.198 440.605,68.847 443.834,68.503 451.666,67.748 453.52,67.748 458.948,67.748 468.566,71.183 479.626,75.099 481.55,75.442 497.42,78.053 499.687,80.938 500.374,81.763 498.656,81.625 495.702,81.213 493.298,81.075 483.061,80.457 474.955,85.335Z M481.55,95.228 Q483.405,92.755 484.367,91.861 484.848,91.312 485.947,90.281 M479.352,127.654 Q480.313,125.799 481.825,122.502 481.894,122.364 483.748,120.509 M484.848,113.364 Q488.557,111.853 489.725,111.097 490.55,110.548 490.893,109.517 M471.108,119.96 Q474.337,115.906 475.298,114.876 476.191,113.914 476.604,113.914 M492.542,105.67 Q495.29,105.052 496.801,104.159 497.626,103.678 498.588,102.922 M500.236,121.059 L502.984,120.509 Q503.74,120.303 504.084,119.96 M492.542,126.005 Q493.779,123.257 495.84,121.746 496.939,120.922 498.588,119.96 M438.681,97.426 Q436.826,100.105 425.834,119.616 418.552,132.601 410.102,139.745 M505.732,139.196 Q508.755,138.852 508.961,138.715 509.236,138.509 510.129,137.547 M499.137,151.837 Q501.061,151.081 502.229,150.325 502.984,149.913 504.084,149.089 M497.488,135.349 Q500.58,131.639 501.473,130.746 501.954,130.265 502.984,129.303 M507.931,154.035 Q509.511,153.691 510.404,153.279 511.091,152.936 511.228,152.936 M489.794,150.188 Q493.366,146.066 493.504,145.722 493.504,145.035 494.74,142.493 M484.848,135.898 L487.046,132.601 M502.435,165.027 Q504.358,162.622 505.801,161.523 507.106,160.493 507.381,160.081 M398.011,104.571 Q395.469,106.975 391.965,112.128 387.981,118.448 385.714,121.677 377.263,133.975 368.882,137.547 M384.82,154.585 Q373.691,164.477 365.859,171.073 351.089,183.507 345.249,185.912" test="Rihanna Head"/>
        <path id="Layer1_0_1_STROKES" stroke="#F0F" stroke-width="2.748" stroke-linejoin="round" stroke-linecap="round" fill="none" d="M493.779,164.546 L494.053,164.546 494.053,164.89 Q493.911,164.718 493.779,164.546 L492.954,164.546 M401.171,271.718 Q409.072,258.459 418.758,258.459 419.857,258.459 422.605,259.352 425.353,260.245 425.972,260.245 427.414,260.245 430.231,259.009 433.048,257.772 434.216,257.772 437.857,257.772 443.696,264.23 446.134,266.938 450.257,272.577 450.44,272.669 450.635,272.749 L450.36,272.749 Q450.301,272.667 450.257,272.577 446.793,271.137 442.116,268.214 439.506,266.566 435.384,266.566 434.078,266.566 431.33,267.802 428.582,268.97 425.285,268.97 422.056,268.97 420.132,267.459 418.209,265.879 415.255,265.879 413.125,265.879 407.629,269.382 404.948,271.105 401.377,273.436 404.066,277.718 409.621,281.886 417.316,287.656 424.804,287.656 432.43,287.656 437.513,284.428 437.788,284.221 451.047,273.573 450.017,277.351 443.696,286.626 435.384,298.717 429.201,298.717 417.316,298.717 411.339,293.221 405.774,288.137 400.828,273.779 401.104,273.599 401.377,273.436 401.271,273.257 401.171,273.092" test="Rihanna Head"/>
        <path id="Layer1_0_2_STROKES" stroke="#F60" stroke-width="2.748" stroke-linejoin="round" stroke-linecap="round" fill="none" d="M447.544,166.951 Q454.688,157.539 459.497,154.585 464.032,151.768 471.657,151.768 480.107,151.768 486.703,157.264 490.076,160.109 493.779,164.546" test="Rihanna Head"/>
      </g>
    </g>
  </g>
</svg>