<?xml version="1.0" encoding="utf-8"?>
<svg id="EdithAnim07" image-rendering="inherit" baseProfile="basic" version="1.1" x="0px" y="0px" width="800" height="600" xmlns="http://www.w3.org/2000/svg" xmlns:xlink="http://www.w3.org/1999/xlink">
  <g id="Rihanna-rearf294r1" overflow="visible">
    <g id="RihannaWholeBodyf29r1">
      <g id="Rihanna-Body">
        <path id="Layer3_0_1_STROKES" stroke="#F60" stroke-width="1.374" stroke-linejoin="round" stroke-linecap="round" fill="none" d="M428.227,329.833 Q431.181,331.276 437.021,333.886 442.379,336.497 447.806,339.795 456.463,345.016 471.851,360.405 472.401,360.954 466.905,346.321 460.31,328.734 460.172,321.933 459.966,312.727 459.898,312.589 459.76,311.834 457.081,309.91 455.432,308.742 450.074,307.643 445.608,306.75 445.058,305.101 444.371,302.971 444.921,302.422 445.127,302.078 447.806,300.979 449.387,300.361 451.997,302.078 454.333,303.727 455.363,302.696 456.531,301.597 456.669,298.437 456.806,294.04 457.424,292.048 458.592,288.27 459.485,287.376 460.585,286.277 462.577,287.583 464.775,288.956 469.378,295.346 474.119,302.01 476.66,307.506 479.202,313.07 484.286,336.153 489.301,358.893 489.37,364.526 489.37,364.87 490.263,375.175 490.744,380.877 489.37,382.732 487.721,384 471.989,384.312 456.944,383.625 448.15,381.358 443.272,380.121 434.891,374.419 L427.403,369.061 Q427.403,370.16 427.403,371.259 427.471,381.839 426.166,384.793 419.914,399.151 417.578,402.311 M372.58,289.987 Q371.756,293.834 370.107,301.666 367.565,308.124 359.87,311.284 356.229,312.795 344.825,316.23 336.032,318.91 331.772,321.452 329.642,322.757 327.925,324.337 322.223,329.627 319.2,334.23 316.04,338.97 314.528,344.603 313.086,350.1 314.116,360.611 315.078,370.572 317.276,376.549 317.345,376.755 317.483,376.961 319.612,382.938 322.841,393 326.414,405.953 327.925,412.96 329.024,417.838 332.253,431.165 334.864,442.845 334.451,446.28 334.039,449.852 334.039,452.119 333.971,453.699 334.108,453.837 M331.772,321.452 Q312.674,328.665 305.391,343.436 298.04,358.206 309.651,370.023 312.605,373.664 315.215,375.518 316.315,376.343 317.483,376.961 M416.204,418.044 Q415.174,418.25 414.35,418.593 413.319,419.006 412.22,419.349 411.121,419.899 410.09,420.517 408.922,421.204 407.823,421.685 406,422.097 406.243,422.509 L405.006,423.265 Q404.182,424.158 403.632,425.257 403.083,426.15 403.014,427.181 403.014,427.868 403.22,428.555 403.701,428.761 404.251,429.036 407.96,428.692 411.052,427.524 414.143,426.288 414.418,426.425 L417.922,424.639 Q418.128,425.051 422.113,425.189 426.029,425.257 427.334,422.166 427.128,418.731 424.517,416.464 424.517,415.158 425.135,413.991 425.135,412.823 424.174,412.204 423.349,411.655 422.456,411.174 L422.387,410.006 Q423.624,408.426 422.868,406.571 422.8,406.296 422.731,406.09 421.013,405.197 418.884,405.403 418.54,405.403 418.197,405.472 L417.372,406.365 Q414.143,406.64 411.258,407.739 410.228,408.014 409.197,408.357 407.342,408.769 405.968,409.113 404.732,409.594 403.564,410.281 402.464,410.762 401.434,411.38 400.61,411.861 399.854,412.41 398.961,413.166 398.342,414.128 397.724,414.884 397.655,415.777 397.655,416.67 398.342,417.151 399.167,417.838 400.335,418.112 401.777,418.593 410.64,414.334 L414.487,413.235 M400.472,418.731 Q399.373,418.937 398.617,419.899 397.724,420.861 397.037,421.891 396.762,422.234 396.625,422.715 396.625,423.677 397.243,424.227 398.068,424.708 398.961,425.051 400.403,425.601 401.915,424.845 403.014,424.295 404.045,423.677 404.525,423.54 405.006,423.265 M419.365,428.761 Q420.395,432.265 421.7,437.28 423.418,442.707 425.135,444.905 426.853,447.104 430.013,449.096 431.731,450.195 434.41,451.775 M426.853,356.969 Q427.334,362.946 427.403,369.061 M414.899,630.396 Q417.716,631.357 420.807,630.739 423.349,630.258 425.204,629.022 M389.48,547.956 Q390.854,554.001 395.869,586.084 400.541,616.312 401.159,622.152 M448.562,545.208 Q445.952,555.787 440.662,581.825 434.41,612.877 434.822,617.343 435.509,624.419 436.127,626.548 437.364,631.083 441.005,635.205 444.509,639.12 444.784,647.433 444.99,652.036 444.44,660.623 444.44,665.433 442.104,674.707 440.868,679.86 438.257,688.791 L434.135,703.905 M341.39,556.887 L352.932,584.779 Q364.954,614.182 367.496,621.465 M370.244,631.77 Q369.214,636.235 366.053,648.532 363.718,659.868 365.435,666.807 367.84,676.493 369.832,682.264 372.443,690.027 375.74,695.661 M381.236,631.083 L385.427,631.701 Q390.098,632.182 392.228,631.77" test="Rihanna Body"/>
      </g>
      <g id="Rihanna-Headf1r1">
        <path id="Layer2_0_1_STROKES" stroke="#F60" stroke-width="2.748" stroke-linejoin="round" stroke-linecap="round" fill="none" d="M435.438,204.804 L440.178,198.621 Q445.399,192.232 447.529,190.996 452.681,188.11 457.353,188.522 457.559,188.522 457.834,188.591 459.414,188.728 462.025,189.072 462.643,189.141 463.399,189.209 464.567,189.347 465.941,189.553 469.788,189.553 474.459,190.034 479.062,190.515 479.749,190.515 481.604,190.515 480.78,192.507 479.955,194.568 477.139,196.698 475.696,197.797 471.849,201.438 468.826,204.255 467.108,205.079 465.047,206.041 461.338,206.041 459.208,206.041 453.987,205.56 453.025,205.491 447.46,204.667 444.163,204.117 441.621,204.392 438.941,204.667 436.812,204.736 L435.438,204.804Z M335.548,232.284 Q338.708,246.505 344.135,254.2 348.189,259.833 371.615,288.756 397.378,320.426 402.324,324.754 407.614,329.357 416.957,330.25 424.995,331.006 432.346,329.014 439.56,327.09 460.101,306.549 481.742,285.046 485.726,273.71 491.016,258.665 493.695,246.849 497.405,230.773 497.13,217.926 496.993,211.399 497.474,211.468 497.817,211.468 498.848,215.659 501.802,227.475 503.382,226.994 506.611,226.033 509.29,220.811 512.45,214.491 510.527,207.484 509.153,202.537 507.161,198.553 505.718,195.736 505.237,191.751 504.756,187.904 508.466,183.439 512.176,178.836 511.97,175.057 511.626,170.042 510.596,169.286 508.809,169.149 507.161,168.874 504.962,168.531 502.008,171.897 499.604,174.576 498.573,176.981 M402.187,241.765 Q403.63,238.673 404.935,237.505 406.24,236.269 408.164,236.269 409.057,236.269 413.729,239.773 418.331,243.276 421.629,243.414 424.927,243.551 429.255,239.773 433.583,235.994 435.575,235.857 438.667,235.651 439.766,236.475 440.247,236.818 442.033,239.429 M441.552,228.643 Q443.957,229.742 445.468,232.147 447.254,234.895 445.811,237.025 M415.377,203.155 L414.416,229.399 M400.813,230.086 Q393.668,234.345 396.485,239.635" test="Rihanna Head"/>
        <path id="Layer2_0_2_STROKES" stroke="#FFF" stroke-width="2.748" stroke-linejoin="round" stroke-linecap="round" fill="none" d="M462.025,189.072 L459.277,196.492 467.795,194.018 Q468.345,195.392 468.345,197.041 468.345,200.614 465.734,203.155 463.261,205.697 459.62,205.697 456.048,205.697 453.437,203.155 450.964,200.614 450.964,197.041 450.964,193.469 453.437,190.858 455.361,189.072 457.834,188.591" test="Rihanna Head"/>
        <path id="Layer2_0_3_STROKES" stroke="#F00" stroke-width="2.748" stroke-linejoin="round" stroke-linecap="round" fill="none" d="M472.055,85.335 Q463.605,107.044 455.636,121.334 437.911,153.073 417.095,173.683 396.21,194.293 365.158,212.361 334.037,230.429 331.082,231.46 328.128,232.422 326.067,228.712 L324.762,224.384 323.663,233.727 Q322.014,236.475 319.678,234.483 315.007,230.498 311.572,206.797 307.244,177.118 308.205,168.531 309.373,157.813 320.915,131.501 331.701,106.975 341.731,94.266 349.082,84.991 357.188,80.938 365.982,76.541 368.18,76.541 366.257,75.442 362.891,75.167 356.158,74.618 348.944,78.74 344.822,81.075 344.822,80.114 344.754,79.289 347.983,76.335 356.364,68.709 365.982,64.45 376.287,59.916 388.309,57.718 400.332,55.519 407.752,56.756 414.759,57.924 424.24,61.565 433.102,65 435.781,67.198 437.705,68.847 440.934,68.503 448.766,67.748 450.62,67.748 456.048,67.748 465.666,71.183 476.726,75.099 478.65,75.442 494.52,78.053 496.787,80.938 497.474,81.763 495.756,81.625 492.802,81.213 490.398,81.075 480.161,80.457 472.055,85.335Z M478.65,95.228 Q480.505,92.755 481.467,91.861 481.948,91.312 483.047,90.281 M476.452,127.654 Q477.413,125.799 478.925,122.502 478.994,122.364 480.848,120.509 M481.948,113.364 Q485.657,111.853 486.825,111.097 487.65,110.548 487.993,109.517 M468.208,119.96 Q471.437,115.906 472.398,114.876 473.291,113.914 473.704,113.914 M489.642,105.67 Q492.39,105.052 493.901,104.159 494.726,103.678 495.688,102.922 M497.336,121.059 L500.084,120.509 Q500.84,120.303 501.184,119.96 M489.642,126.005 Q490.879,123.257 492.94,121.746 494.039,120.922 495.688,119.96 M435.781,97.426 Q433.926,100.105 422.934,119.616 415.652,132.601 407.202,139.745 M502.832,139.196 Q505.855,138.852 506.061,138.715 506.336,138.509 507.229,137.547 M496.237,151.837 Q498.161,151.081 499.329,150.325 500.084,149.913 501.184,149.089 M494.588,135.349 Q497.68,131.639 498.573,130.746 499.054,130.265 500.084,129.303 M505.031,154.035 Q506.611,153.691 507.504,153.279 508.191,152.936 508.328,152.936 M486.894,150.188 Q490.466,146.066 490.604,145.722 490.604,145.035 491.84,142.493 M481.948,135.898 L484.146,132.601 M499.535,165.027 Q501.458,162.622 502.901,161.523 504.206,160.493 504.481,160.081 M395.111,104.571 Q392.569,106.975 389.065,112.128 385.081,118.448 382.814,121.677 374.363,133.975 365.982,137.547 M381.92,154.585 Q370.791,164.477 362.959,171.073 348.189,183.507 342.349,185.912" test="Rihanna Head"/>
        <path id="Layer1_0_1_STROKES" stroke="#F0F" stroke-width="2.748" stroke-linejoin="round" stroke-linecap="round" fill="none" d="M490.879,164.546 L491.153,164.546 491.153,164.89 Q491.011,164.718 490.879,164.546 L490.054,164.546 M398.271,271.718 Q406.172,258.459 415.858,258.459 416.957,258.459 419.705,259.352 422.453,260.245 423.072,260.245 424.514,260.245 427.331,259.009 430.148,257.772 431.316,257.772 434.957,257.772 440.796,264.23 443.234,266.938 447.357,272.577 447.54,272.669 447.735,272.749 L447.46,272.749 Q447.401,272.667 447.357,272.577 443.893,271.137 439.216,268.214 436.606,266.566 432.484,266.566 431.178,266.566 428.43,267.802 425.682,268.97 422.385,268.97 419.156,268.97 417.232,267.459 415.309,265.879 412.355,265.879 410.225,265.879 404.729,269.382 402.048,271.105 398.477,273.436 401.166,277.718 406.721,281.886 414.416,287.656 421.904,287.656 429.53,287.656 434.613,284.428 434.888,284.221 448.147,273.573 447.117,277.351 440.796,286.626 432.484,298.717 426.301,298.717 414.416,298.717 408.439,293.221 402.874,288.137 397.928,273.779 398.204,273.599 398.477,273.436 398.371,273.257 398.271,273.092" test="Rihanna Head"/>
        <path id="Layer1_0_2_STROKES" stroke="#F60" stroke-width="2.748" stroke-linejoin="round" stroke-linecap="round" fill="none" d="M444.644,166.951 Q451.788,157.539 456.597,154.585 461.132,151.768 468.757,151.768 477.207,151.768 483.803,157.264 487.176,160.109 490.879,164.546" test="Rihanna Head"/>
      </g>
    </g>
  </g>
</svg>