<?xml version="1.0" encoding="utf-8"?>
<svg id="EdithAnim07" image-rendering="inherit" baseProfile="basic" version="1.1" x="0px" y="0px" width="800" height="600" xmlns="http://www.w3.org/2000/svg" xmlns:xlink="http://www.w3.org/1999/xlink">
  <g id="Rihanna-rearf295r1" overflow="visible">
    <g id="RihannaWholeBodyf29r1">
      <g id="Rihanna-Body">
        <path id="Layer3_0_1_STROKES" stroke="#F60" stroke-width="1.374" stroke-linejoin="round" stroke-linecap="round" fill="none" d="M425.727,329.833 Q428.681,331.276 434.521,333.886 439.879,336.497 445.306,339.795 453.963,345.016 469.351,360.405 469.901,360.954 464.405,346.321 457.81,328.734 457.672,321.933 457.466,312.727 457.398,312.589 457.26,311.834 454.581,309.91 452.932,308.742 447.574,307.643 443.108,306.75 442.558,305.101 441.871,302.971 442.421,302.422 442.627,302.078 445.306,300.979 446.887,300.361 449.497,302.078 451.833,303.727 452.863,302.696 454.031,301.597 454.169,298.437 454.306,294.04 454.924,292.048 456.092,288.27 456.985,287.376 458.085,286.277 460.077,287.583 462.275,288.956 466.878,295.346 471.619,302.01 474.16,307.506 476.702,313.07 481.786,336.153 486.801,358.893 486.87,364.526 486.87,364.87 487.763,375.175 488.244,380.877 486.87,382.732 485.221,384 469.489,384.312 454.444,383.625 445.65,381.358 440.772,380.121 432.391,374.419 L424.903,369.061 Q424.903,370.16 424.903,371.259 424.971,381.839 423.666,384.793 417.414,399.151 415.078,402.311 M370.08,289.987 Q369.256,293.834 367.607,301.666 365.065,308.124 357.37,311.284 353.729,312.795 342.325,316.23 333.532,318.91 329.272,321.452 327.142,322.757 325.425,324.337 319.723,329.627 316.7,334.23 313.54,338.97 312.028,344.603 310.586,350.1 311.616,360.611 312.578,370.572 314.776,376.549 314.845,376.755 314.983,376.961 317.112,382.938 320.341,393 323.914,405.953 325.425,412.96 326.524,417.838 329.753,431.165 332.364,442.845 331.951,446.28 331.539,449.852 331.539,452.119 331.471,453.699 331.608,453.837 M329.272,321.452 Q310.174,328.665 302.891,343.436 295.54,358.206 307.151,370.023 310.105,373.664 312.715,375.518 313.815,376.343 314.983,376.961 M413.704,418.044 Q412.674,418.25 411.85,418.593 410.819,419.006 409.72,419.349 408.621,419.899 407.59,420.517 406.422,421.204 405.323,421.685 404.499,422.097 403.743,422.509 L402.506,423.265 Q401.682,424.158 401.132,425.257 400.583,426.15 400.514,427.181 400.514,427.868 400.72,428.555 401.201,428.761 401.751,429.036 405.46,428.692 408.552,427.524 411.643,426.288 411.918,426.425 L415.422,424.639 Q415.628,425.051 419.613,425.189 423.529,425.257 424.834,422.166 424.628,418.731 422.017,416.464 422.017,415.158 422.635,413.991 422.635,412.823 421.674,412.204 420.849,411.655 419.956,411.174 L419.887,410.006 Q421.124,408.426 420.368,406.571 420.3,406.296 420.231,406.09 418.513,405.197 416.384,405.403 416.04,405.403 415.697,405.472 L414.872,406.365 Q411.643,406.64 408.758,407.739 407.728,408.014 406.697,408.357 404.842,408.769 403.468,409.113 402.232,409.594 401.064,410.281 399.964,410.762 398.934,411.38 398.11,411.861 397.354,412.41 396.461,413.166 395.842,414.128 395.224,414.884 395.155,415.777 395.155,416.67 395.842,417.151 396.667,417.838 397.835,418.112 399.277,418.593 408.14,414.334 L411.987,413.235 M397.972,418.731 Q396.873,418.937 396.117,419.899 395.224,420.861 394.537,421.891 394.262,422.234 394.125,422.715 394.125,423.677 394.743,424.227 395.568,424.708 396.461,425.051 397.903,425.601 399.415,424.845 400.514,424.295 401.545,423.677 402.025,423.54 402.506,423.265 M416.865,428.761 Q417.895,432.265 419.2,437.28 420.918,442.707 422.635,444.905 424.353,447.104 427.513,449.096 429.231,450.195 431.91,451.775 M424.353,356.969 Q424.834,362.946 424.903,369.061 M412.399,630.396 Q415.216,631.357 418.307,630.739 420.849,630.258 422.704,629.022 M386.98,547.956 Q388.354,554.001 393.369,586.084 398.041,616.312 398.659,622.152 M446.062,545.208 Q443.452,555.787 438.162,581.825 431.91,612.877 432.322,617.343 433.009,624.419 433.627,626.548 434.864,631.083 438.505,635.205 442.009,639.12 442.284,647.433 442.49,652.036 441.94,660.623 441.94,665.433 439.604,674.707 438.368,679.86 435.757,688.791 L431.635,703.905 M338.89,556.887 L350.432,584.779 Q362.454,614.182 364.996,621.465 M367.744,631.77 Q366.714,636.235 363.553,648.532 361.218,659.868 362.935,666.807 365.34,676.493 367.332,682.264 369.943,690.027 373.24,695.661 M378.736,631.083 L382.927,631.701 Q387.598,632.182 389.728,631.77" test="Rihanna Body"/>
      </g>
      <g id="Rihanna-Headf1r1">
        <path id="Layer2_0_1_STROKES" stroke="#F60" stroke-width="2.748" stroke-linejoin="round" stroke-linecap="round" fill="none" d="M432.938,204.804 L437.678,198.621 Q442.899,192.232 445.029,190.996 450.181,188.11 454.853,188.522 455.059,188.522 455.334,188.591 456.914,188.728 459.525,189.072 460.143,189.141 460.899,189.209 462.067,189.347 463.441,189.553 467.288,189.553 471.959,190.034 476.562,190.515 477.249,190.515 479.104,190.515 478.28,192.507 477.455,194.568 474.639,196.698 473.196,197.797 469.349,201.438 466.326,204.255 464.608,205.079 462.547,206.041 458.838,206.041 456.708,206.041 451.487,205.56 450.525,205.491 444.96,204.667 441.663,204.117 439.121,204.392 436.441,204.667 434.312,204.736 L432.938,204.804Z M333.048,232.284 Q336.208,246.505 341.635,254.2 345.689,259.833 369.115,288.756 394.878,320.426 399.824,324.754 405.114,329.357 414.457,330.25 422.495,331.006 429.846,329.014 437.06,327.09 457.601,306.549 479.242,285.046 483.226,273.71 488.516,258.665 491.195,246.849 494.905,230.773 494.63,217.926 494.493,211.399 494.974,211.468 495.317,211.468 496.348,215.659 499.302,227.475 500.882,226.994 504.111,226.033 506.79,220.811 509.95,214.491 508.027,207.484 506.653,202.537 504.661,198.553 503.218,195.736 502.737,191.751 502.256,187.904 505.966,183.439 509.676,178.836 509.47,175.057 509.126,170.042 508.096,169.286 506.309,169.149 504.661,168.874 502.462,168.531 499.508,171.897 497.104,174.576 496.073,176.981 M399.687,241.765 Q401.13,238.673 402.435,237.505 403.74,236.269 405.664,236.269 406.557,236.269 411.229,239.773 415.831,243.276 419.129,243.414 422.427,243.551 426.755,239.773 431.083,235.994 433.075,235.857 436.167,235.651 437.266,236.475 437.747,236.818 439.533,239.429 M439.052,228.643 Q441.457,229.742 442.968,232.147 444.754,234.895 443.311,237.025 M412.877,203.155 L411.916,229.399 M398.313,230.086 Q391.168,234.345 393.985,239.635" test="Rihanna Head"/>
        <path id="Layer2_0_2_STROKES" stroke="#FFF" stroke-width="2.748" stroke-linejoin="round" stroke-linecap="round" fill="none" d="M459.525,189.072 L456.777,196.492 465.295,194.018 Q465.845,195.392 465.845,197.041 465.845,200.614 463.234,203.155 460.761,205.697 457.12,205.697 453.548,205.697 450.937,203.155 448.464,200.614 448.464,197.041 448.464,193.469 450.937,190.858 452.861,189.072 455.334,188.591" test="Rihanna Head"/>
        <path id="Layer2_0_3_STROKES" stroke="#F00" stroke-width="2.748" stroke-linejoin="round" stroke-linecap="round" fill="none" d="M469.555,85.335 Q461.105,107.044 453.136,121.334 435.411,153.073 414.595,173.683 393.71,194.293 362.658,212.361 331.537,230.429 328.582,231.46 325.628,232.422 323.567,228.712 L322.262,224.384 321.163,233.727 Q319.514,236.475 317.178,234.483 312.507,230.498 309.072,206.797 304.744,177.118 305.705,168.531 306.873,157.813 318.415,131.501 329.201,106.975 339.231,94.266 346.582,84.991 354.688,80.938 363.482,76.541 365.68,76.541 363.757,75.442 360.391,75.167 353.658,74.618 346.444,78.74 342.322,81.075 342.322,80.114 342.254,79.289 345.483,76.335 353.864,68.709 363.482,64.45 373.787,59.916 385.809,57.718 397.832,55.519 405.252,56.756 412.259,57.924 421.74,61.565 430.602,65 433.281,67.198 435.205,68.847 438.434,68.503 446.266,67.748 448.12,67.748 453.548,67.748 463.166,71.183 474.226,75.099 476.15,75.442 492.02,78.053 494.287,80.938 494.974,81.763 493.256,81.625 490.302,81.213 487.898,81.075 477.661,80.457 469.555,85.335Z M476.15,95.228 Q478.005,92.755 478.967,91.861 479.448,91.312 480.547,90.281 M473.952,127.654 Q474.913,125.799 476.425,122.502 476.494,122.364 478.348,120.509 M479.448,113.364 Q483.157,111.853 484.325,111.097 485.15,110.548 485.493,109.517 M465.708,119.96 Q468.937,115.906 469.898,114.876 470.791,113.914 471.204,113.914 M487.142,105.67 Q489.89,105.052 491.401,104.159 492.226,103.678 493.188,102.922 M494.836,121.059 L497.584,120.509 Q498.34,120.303 498.684,119.96 M487.142,126.005 Q488.379,123.257 490.44,121.746 491.539,120.922 493.188,119.96 M433.281,97.426 Q431.426,100.105 420.434,119.616 413.152,132.601 404.702,139.745 M500.332,139.196 Q503.355,138.852 503.561,138.715 503.836,138.509 504.729,137.547 M493.737,151.837 Q495.661,151.081 496.829,150.325 497.584,149.913 498.684,149.089 M492.088,135.349 Q495.18,131.639 496.073,130.746 496.554,130.265 497.584,129.303 M502.531,154.035 Q504.111,153.691 505.004,153.279 505.691,152.936 505.828,152.936 M484.394,150.188 Q487.966,146.066 488.104,145.722 488.104,145.035 489.34,142.493 M479.448,135.898 L481.646,132.601 M497.035,165.027 Q498.958,162.622 500.401,161.523 501.706,160.493 501.981,160.081 M392.611,104.571 Q390.069,106.975 386.565,112.128 382.581,118.448 380.314,121.677 371.863,133.975 363.482,137.547 M379.42,154.585 Q368.291,164.477 360.459,171.073 345.689,183.507 339.849,185.912" test="Rihanna Head"/>
        <path id="Layer1_0_1_STROKES" stroke="#F0F" stroke-width="2.748" stroke-linejoin="round" stroke-linecap="round" fill="none" d="M488.379,164.546 L488.653,164.546 488.653,164.89 Q488.511,164.718 488.379,164.546 L487.554,164.546 M395.771,271.718 Q403.672,258.459 413.358,258.459 414.457,258.459 417.205,259.352 419.953,260.245 420.572,260.245 422.014,260.245 424.831,259.009 427.648,257.772 428.816,257.772 432.457,257.772 438.296,264.23 440.734,266.938 444.857,272.577 445.04,272.669 445.235,272.749 L444.96,272.749 Q444.901,272.667 444.857,272.577 441.393,271.137 436.716,268.214 434.106,266.566 429.984,266.566 428.678,266.566 425.93,267.802 423.182,268.97 419.885,268.97 416.656,268.97 414.732,267.459 412.809,265.879 409.855,265.879 407.725,265.879 402.229,269.382 399.548,271.105 395.977,273.436 398.666,277.718 404.221,281.886 411.916,287.656 419.404,287.656 427.03,287.656 432.113,284.428 432.388,284.221 445.647,273.573 444.617,277.351 438.296,286.626 429.984,298.717 423.801,298.717 411.916,298.717 405.939,293.221 400.374,288.137 395.428,273.779 395.704,273.599 395.977,273.436 395.871,273.257 395.771,273.092" test="Rihanna Head"/>
        <path id="Layer1_0_2_STROKES" stroke="#F60" stroke-width="2.748" stroke-linejoin="round" stroke-linecap="round" fill="none" d="M442.144,166.951 Q449.288,157.539 454.097,154.585 458.632,151.768 466.257,151.768 474.707,151.768 481.303,157.264 484.676,160.109 488.379,164.546" test="Rihanna Head"/>
      </g>
    </g>
  </g>
</svg>