<?xml version="1.0" encoding="utf-8"?>
<svg id="EdithAnim07" image-rendering="inherit" baseProfile="basic" version="1.1" x="0px" y="0px" width="800" height="600" xmlns="http://www.w3.org/2000/svg" xmlns:xlink="http://www.w3.org/1999/xlink">
  <g id="Rihanna-rearf297r1" overflow="visible">
    <g id="RihannaWholeBodyf29r1">
      <g id="Rihanna-Body">
        <path id="Layer3_0_1_STROKES" stroke="#F60" stroke-width="1.374" stroke-linejoin="round" stroke-linecap="round" fill="none" d="M418.477,329.833 Q421.431,331.276 427.271,333.886 432.629,336.497 438.056,339.795 446.713,345.016 462.101,360.405 462.651,360.954 457.155,346.321 450.56,328.734 450.422,321.933 450.216,312.727 450.148,312.589 450.01,311.834 447.331,309.91 445.682,308.742 440.324,307.643 435.858,306.75 435.308,305.101 434.621,302.971 435.171,302.422 435.377,302.078 438.056,300.979 439.637,300.361 442.247,302.078 444.583,303.727 445.613,302.696 446.781,301.597 446.919,298.437 447.056,294.04 447.674,292.048 448.842,288.27 449.735,287.376 450.835,286.277 452.827,287.583 455.025,288.956 459.628,295.346 464.369,302.01 466.91,307.506 469.452,313.07 474.536,336.153 479.551,358.893 479.62,364.526 479.62,364.87 480.513,375.175 480.994,380.877 479.62,382.732 477.971,384 462.239,384.312 447.194,383.625 438.4,381.358 433.522,380.121 425.141,374.419 L417.653,369.061 Q417.653,370.16 417.653,371.259 417.721,381.839 416.416,384.793 410.164,399.151 407.828,402.311 M362.83,289.987 Q362.006,293.834 360.357,301.666 357.815,308.124 350.12,311.284 346.479,312.795 335.075,316.23 326.282,318.91 322.022,321.452 319.892,322.757 318.175,324.337 312.473,329.627 309.45,334.23 306.29,338.97 304.778,344.603 303.336,350.1 304.366,360.611 305.328,370.572 307.526,376.549 307.595,376.755 307.733,376.961 309.862,382.938 313.091,393 316.664,405.953 318.175,412.96 319.274,417.838 322.503,431.165 325.114,442.845 324.701,446.28 324.289,449.852 324.289,452.119 324.221,453.699 324.358,453.837 M322.022,321.452 Q302.924,328.665 295.641,343.436 288.29,358.206 299.901,370.023 302.855,373.664 305.465,375.518 306.565,376.343 307.733,376.961 M406.454,418.044 Q405.424,418.25 404.6,418.593 403.569,419.006 402.47,419.349 401.371,419.899 400.34,420.517 399.172,421.204 398.073,421.685 397.249,422.097 396.493,422.509 L395.256,423.265 Q394.432,424.158 393.882,425.257 393.333,426.15 393.264,427.181 393.264,427.868 393.47,428.555 393.951,428.761 394.501,429.036 398.21,428.692 401.302,427.524 404.393,426.288 404.668,426.425 L408.172,424.639 Q408.378,425.051 412.363,425.189 416.279,425.257 417.584,422.166 417.378,418.731 414.767,416.464 414.767,415.158 415.385,413.991 415.385,412.823 414.424,412.204 413.599,411.655 412.706,411.174 L412.637,410.006 Q413.874,408.426 413.118,406.571 413.05,406.296 412.981,406.09 411.263,405.197 409.134,405.403 408.79,405.403 408.447,405.472 L407.622,406.365 Q404.393,406.64 401.508,407.739 400.478,408.014 399.447,408.357 397.592,408.769 396.218,409.113 394.982,409.594 393.814,410.281 392.714,410.762 391.684,411.38 390.86,411.861 390.104,412.41 389.211,413.166 388.592,414.128 387.974,414.884 387.905,415.777 387.905,416.67 388.592,417.151 389.417,417.838 390.585,418.112 392.027,418.593 400.89,414.334 L404.737,413.235 M390.722,418.731 Q389.623,418.937 388.867,419.899 387.974,420.861 387.287,421.891 387.012,422.234 386.875,422.715 386.875,423.677 387.493,424.227 388.318,424.708 389.211,425.051 390.653,425.601 392.165,424.845 393.264,424.295 394.295,423.677 394.775,423.54 395.256,423.265 M409.615,428.761 Q410.645,432.265 411.95,437.28 413.668,442.707 415.385,444.905 417.103,447.104 420.263,449.096 421.981,450.195 424.66,451.775 M417.103,356.969 Q417.584,362.946 417.653,369.061 M405.149,630.396 Q407.966,631.357 411.057,630.739 413.599,630.258 415.454,629.022 M379.73,547.956 Q381.104,554.001 386.119,586.084 390.791,616.312 391.409,622.152 M438.812,545.208 Q436.202,555.787 430.912,581.825 424.66,612.877 425.072,617.343 425.759,624.419 426.377,626.548 427.614,631.083 431.255,635.205 434.759,639.12 435.034,647.433 435.24,652.036 434.69,660.623 434.69,665.433 432.354,674.707 431.118,679.86 428.507,688.791 L424.385,703.905 M331.64,556.887 L343.182,584.779 Q355.204,614.182 357.746,621.465 M360.494,631.77 Q359.464,636.235 356.303,648.532 353.968,659.868 355.685,666.807 358.09,676.493 360.082,682.264 362.693,690.027 365.99,695.661 M371.486,631.083 L375.677,631.701 Q380.348,632.182 382.478,631.77" test="Rihanna Body"/>
      </g>
      <g id="Rihanna-Headf1r1">
        <path id="Layer2_0_1_STROKES" stroke="#F60" stroke-width="2.748" stroke-linejoin="round" stroke-linecap="round" fill="none" d="M425.688,204.804 L430.428,198.621 Q435.649,192.232 437.779,190.996 442.931,188.11 447.603,188.522 447.809,188.522 448.084,188.591 449.664,188.728 452.275,189.072 452.893,189.141 453.649,189.209 454.817,189.347 456.191,189.553 460.038,189.553 464.709,190.034 469.312,190.515 469,190.515 471.854,190.515 471.03,192.507 470.205,194.568 467.389,196.698 465.946,197.797 462.099,201.438 459.076,204.255 457.358,205.079 455.297,206.041 451.588,206.041 449.458,206.041 444.237,205.56 443.275,205.491 437.71,204.667 434.413,204.117 431.871,204.392 429.191,204.667 427.062,204.736 L425.688,204.804Z M325.798,232.284 Q328.958,246.505 334.385,254.2 338.439,259.833 361.865,288.756 387.628,320.426 392.574,324.754 397.864,329.357 407.207,330.25 415.245,331.006 422.596,329.014 429.81,327.09 450.351,306.549 471.992,285.046 475.976,273.71 481.266,258.665 483.945,246.849 487.655,230.773 487.38,217.926 487.243,211.399 487.724,211.468 488.067,211.468 489.098,215.659 492.052,227.475 493.632,226.994 496.861,226.033 499.54,220.811 502.7,214.491 500.777,207.484 499.403,202.537 497.411,198.553 495.968,195.736 495.487,191.751 495.006,187.904 498.716,183.439 502.426,178.836 502.22,175.057 501.876,170.042 500.846,169.286 499.059,169.149 497.411,168.874 495.212,168.531 492.258,171.897 489.854,174.576 488.823,176.981 M392.437,241.765 Q393.88,238.673 395.185,237.505 396.49,236.269 398.414,236.269 399.307,236.269 403.979,239.773 408.581,243.276 411.879,243.414 415.177,243.551 419.505,239.773 423.833,235.994 425.825,235.857 428.917,235.651 430.016,236.475 430.497,236.818 432.283,239.429 M431.802,228.643 Q434.207,229.742 435.718,232.147 437.504,234.895 436.061,237.025 M405.627,203.155 L404.666,229.399 M391.063,230.086 Q383.918,234.345 386.735,239.635" test="Rihanna Head"/>
        <path id="Layer2_0_2_STROKES" stroke="#FFF" stroke-width="2.748" stroke-linejoin="round" stroke-linecap="round" fill="none" d="M452.275,189.072 L449.527,196.492 458.045,194.018 Q458.595,195.392 458.595,197.041 458.595,200.614 455.984,203.155 453.511,205.697 449.87,205.697 446.298,205.697 443.687,203.155 441.214,200.614 441.214,197.041 441.214,193.469 443.687,190.858 445.611,189.072 448.084,188.591" test="Rihanna Head"/>
        <path id="Layer2_0_3_STROKES" stroke="#F00" stroke-width="2.748" stroke-linejoin="round" stroke-linecap="round" fill="none" d="M462.305,85.335 Q453.855,107.044 445.886,121.334 428.161,153.073 407.345,173.683 386.46,194.293 355.408,212.361 324.287,230.429 321.332,231.46 318.378,232.422 316.317,228.712 L315.012,224.384 313.913,233.727 Q312.264,236.475 309.928,234.483 305.257,230.498 301.822,206.797 297.494,177.118 298.455,168.531 299.623,157.813 311.165,131.501 321.951,106.975 331.981,94.266 339.332,84.991 347.438,80.938 356.232,76.541 358.43,76.541 356.507,75.442 353.141,75.167 346.408,74.618 339.194,78.74 335.072,81.075 335.072,80.114 335.004,79.289 338.233,76.335 346.614,68.709 356.232,64.45 366.537,59.916 378.559,57.718 390.582,55.519 398.002,56.756 405.009,57.924 414.49,61.565 423.352,65 426.031,67.198 427.955,68.847 431.184,68.503 439.016,67.748 440.87,67.748 446.298,67.748 455.916,71.183 466.976,75.099 468.9,75.442 484.77,78.053 487.037,80.938 487.724,81.763 486.006,81.625 483.052,81.213 480.648,81.075 470.411,80.457 462.305,85.335Z M468.9,95.228 Q470.755,92.755 471.717,91.861 472.198,91.312 473.297,90.281 M466.702,127.654 Q467.663,125.799 469.175,122.502 469.244,122.364 471.098,120.509 M472.198,113.364 Q475.907,111.853 477.075,111.097 477.9,110.548 478.243,109.517 M458.458,119.96 Q461.687,115.906 462.648,114.876 463.541,113.914 463.954,113.914 M479.892,105.67 Q482.64,105.052 484.151,104.159 484.976,103.678 485.938,102.922 M487.586,121.059 L490.334,120.509 Q491.09,120.303 491.434,119.96 M479.892,126.005 Q481.129,123.257 483.19,121.746 484.289,120.922 485.938,119.96 M426.031,97.426 Q424.176,100.105 413.184,119.616 405.902,132.601 397.452,139.745 M493.082,139.196 Q496.105,138.852 496.311,138.715 496.586,138.509 497.479,137.547 M486.487,151.837 Q488.411,151.081 489.579,150.325 490.334,149.913 491.434,149.089 M484.838,135.349 Q487.93,131.639 488.823,130.746 489.304,130.265 490.334,129.303 M495.281,154.035 Q496.861,153.691 497.754,153.279 498.441,152.936 498.578,152.936 M477.144,150.188 Q480.716,146.066 480.854,145.722 480.854,145.035 482.09,142.493 M472.198,135.898 L474.396,132.601 M489.785,165.027 Q491.708,162.622 493.151,161.523 494.456,160.493 494.731,160.081 M385.361,104.571 Q382.819,106.975 379.315,112.128 375.331,118.448 373.064,121.677 364.613,133.975 356.232,137.547 M372.17,154.585 Q361.041,164.477 353.209,171.073 338.439,183.507 332.599,185.912" test="Rihanna Head"/>
        <path id="Layer1_0_1_STROKES" stroke="#F0F" stroke-width="2.748" stroke-linejoin="round" stroke-linecap="round" fill="none" d="M481.129,164.546 L481.403,164.546 481.403,164.89 Q481.261,164.718 481.129,164.546 L480.304,164.546 M388.521,271.718 Q396.422,258.459 406.108,258.459 407.207,258.459 409.955,259.352 412.703,260.245 413.322,260.245 414.764,260.245 417.581,259.009 420.398,257.772 421.566,257.772 425.207,257.772 431.046,264.23 433.484,266.938 437.607,272.577 437.79,272.669 437.985,272.749 L437.71,272.749 Q437.651,272.667 437.607,272.577 434.143,271.137 429.466,268.214 426.856,266.566 422.734,266.566 421.428,266.566 418.68,267.802 415.932,268.97 412.635,268.97 409.406,268.97 407.482,267.459 405.559,265.879 402.605,265.879 400.475,265.879 394.979,269.382 392.298,271.105 388.727,273.436 391.416,277.718 396.971,281.886 404.666,287.656 412.154,287.656 419.78,287.656 424.863,284.428 425.138,284.221 438.397,273.573 437.367,277.351 431.046,286.626 422.734,298.717 416.551,298.717 404.666,298.717 398.689,293.221 393.124,288.137 388.178,273.779 388.454,273.599 388.727,273.436 388.621,273.257 388.521,273.092" test="Rihanna Head"/>
        <path id="Layer1_0_2_STROKES" stroke="#F60" stroke-width="2.748" stroke-linejoin="round" stroke-linecap="round" fill="none" d="M434.894,166.951 Q442.038,157.539 446.847,154.585 451.382,151.768 459.007,151.768 467.457,151.768 474.053,157.264 477.426,160.109 481.129,164.546" test="Rihanna Head"/>
      </g>
    </g>
  </g>
</svg>