<?xml version="1.0" encoding="utf-8"?>
<svg id="EdithAnim07" image-rendering="inherit" baseProfile="basic" version="1.1" x="0px" y="0px" width="800" height="600" xmlns="http://www.w3.org/2000/svg" xmlns:xlink="http://www.w3.org/1999/xlink">
  <g id="Rihanna-rearf299r1" overflow="visible">
    <g id="RihannaWholeBodyf29r1">
      <g id="Rihanna-Body">
        <path id="Layer3_0_1_STROKES" stroke="#F60" stroke-width="1.374" stroke-linejoin="round" stroke-linecap="round" fill="none" d="M408.427,329.833 Q411.381,331.276 417.221,333.886 422.579,336.497 428.006,339.795 436.663,345.016 452.051,360.405 452.601,360.954 447.105,346.321 440.51,328.734 440.372,321.933 440.166,312.727 440.098,312.589 439.96,311.834 437.281,309.91 435.632,308.742 430.274,307.643 425.808,306.75 425.258,305.101 424.571,302.971 425.121,302.422 425.327,302.078 428.006,300.979 429.587,300.361 432.197,302.078 434.533,303.727 435.563,302.696 436.731,301.597 436.869,298.437 437.006,294.04 437.624,292.048 438.792,288.27 439.685,287.376 440.785,286.277 442.777,287.583 444.975,288.956 449.578,295.346 454.319,302.01 456.86,307.506 459.402,313.07 464.486,336.153 469.501,358.893 469.57,364.526 469.57,364.87 470.463,375.175 470.944,380.877 469.57,382.732 467.921,384 452.189,384.312 437.144,383.625 428.35,381.358 423.472,380.121 415.091,374.419 L407.603,369.061 Q407.603,370.16 407.603,371.259 407.671,381.839 406.366,384.793 400.114,399.151 397.778,402.311 M352.78,289.987 Q351.956,293.834 350.307,301.666 347.765,308.124 340.07,311.284 336.429,312.795 325.025,316.23 316.232,318.91 311.972,321.452 309.842,322.757 308.125,324.337 302.423,329.627 299.4,334.23 296.24,338.97 294.728,344.603 293.286,350.1 294.316,360.611 295.278,370.572 297.476,376.549 297.545,376.755 297.683,376.961 299.812,382.938 303.041,393 306.614,405.953 308.125,412.96 309.224,417.838 312.453,431.165 315.064,442.845 314.651,446.28 314.239,449.852 314.239,452.119 314.171,453.699 314.308,453.837 M311.972,321.452 Q292.874,328.665 285.591,343.436 278.24,358.206 289.851,370.023 292.805,373.664 295.415,375.518 296.515,376.343 297.683,376.961 M396.404,418.044 Q395.374,418.25 394.55,418.593 393.519,419.006 392.42,419.349 391.321,419.899 390.29,420.517 389.122,421.204 388.023,421.685 387.199,422.097 386.443,422.509 L385.206,423.265 Q384.382,424.158 383.832,425.257 383.283,426.15 383.214,427.181 383.214,427.868 383.42,428.555 383.901,428.761 384.451,429.036 388.16,428.692 391.252,427.524 394.343,426.288 394.618,426.425 L398.122,424.639 Q398.328,425.051 402.313,425.189 406.229,425.257 407.534,422.166 407.328,418.731 404.717,416.464 404.717,415.158 405.335,413.991 405.335,412.823 404.374,412.204 403.549,411.655 402.656,411.174 L402.587,410.006 Q403.824,408.426 403.068,406.571 403,406.296 402.931,406.09 401.213,405.197 399.084,405.403 398.74,405.403 398.397,405.472 L397.572,406.365 Q394.343,406.64 391.458,407.739 390.428,408.014 389.397,408.357 387.542,408.769 386.168,409.113 384.932,409.594 383.764,410.281 382.664,410.762 381.634,411.38 380.81,411.861 380.054,412.41 379.161,413.166 378.542,414.128 377.924,414.884 377.855,415.777 377.855,416.67 378.542,417.151 379.367,417.838 380.535,418.112 381.977,418.593 390.84,414.334 L394.687,413.235 M380.672,418.731 Q379.573,418.937 378.817,419.899 377.924,420.861 377.237,421.891 376.962,422.234 376.825,422.715 376.825,423.677 377.443,424.227 378.268,424.708 379.161,425.051 380.603,425.601 382.115,424.845 383.214,424.295 384.245,423.677 384.725,423.54 385.206,423.265 M399.565,428.761 Q400.595,432.265 401.9,437.28 403.618,442.707 405.335,444.905 407.053,447.104 410.213,449.096 411.931,450.195 414.61,451.775 M407.053,356.969 Q407.534,362.946 407.603,369.061 M395.099,630.396 Q397.916,631.357 401.007,630.739 403.549,630.258 405.404,629.022 M369.68,547.956 Q371.054,554.001 376.069,586.084 380.741,616.312 381.359,622.152 M428.762,545.208 Q426.152,555.787 420.862,581.825 414.61,612.877 415.022,617.343 415.709,624.419 416.327,626.548 417.564,631.083 421.205,635.205 424.709,639.12 424.984,647.433 425.19,652.036 424.64,660.623 424.64,665.433 422.304,674.707 421.068,679.86 418.457,688.791 L414.335,703.905 M321.59,556.887 L333.132,584.779 Q345.154,614.182 347.696,621.465 M350.444,631.77 Q349.414,636.235 346.253,648.532 343.918,659.868 345.635,666.807 348.04,676.493 350.032,682.264 352.643,690.027 355.94,695.661 M361.436,631.083 L365.627,631.701 Q370.298,632.182 372.428,631.77" test="Rihanna Body"/>
      </g>
      <g id="Rihanna-Headf1r1">
        <path id="Layer2_0_1_STROKES" stroke="#F60" stroke-width="2.748" stroke-linejoin="round" stroke-linecap="round" fill="none" d="M415.638,204.804 L420.378,198.621 Q425.599,192.232 427.729,190.996 432.881,188.11 437.553,188.522 437.759,188.522 438.034,188.591 439.614,188.728 442.225,189.072 442.843,189.141 443.599,189.209 444.766,189.347 446.141,189.553 449.988,189.553 454.659,190.034 459.262,190.515 459.949,190.515 461.804,190.515 460.98,192.507 460.155,194.568 457.339,196.698 455.896,197.797 452.049,201.438 449.026,204.255 447.308,205.079 445.247,206.041 441.538,206.041 439.408,206.041 434.187,205.56 433.225,205.491 427.66,204.667 424.363,204.117 421.821,204.392 419.141,204.667 417.012,204.736 L415.638,204.804Z M315.748,232.284 Q318.908,246.505 324.335,254.2 328.389,259.833 351.815,288.756 377.578,320.426 382.524,324.754 387.814,329.357 397.157,330.25 405.195,331.006 412.546,329.014 419.76,327.09 440.301,306.549 461.941,285.046 465.926,273.71 471.216,258.665 473.895,246.849 477.605,230.773 477.33,217.926 477.193,211.399 477.674,211.468 478.017,211.468 479.048,215.659 482.002,227.475 483.582,226.994 486.811,226.033 489.49,220.811 492.65,214.491 490.727,207.484 489.353,202.537 487.361,198.553 485.918,195.736 485.437,191.751 484.956,187.904 488.666,183.439 492.376,178.836 492.17,175.057 491.826,170.042 490.796,169.286 489.009,169.149 487.361,168.874 485.162,168.531 482.208,171.897 479.804,174.576 478.773,176.981 M382.387,241.765 Q383.83,238.673 385.135,237.505 386.44,236.269 388.364,236.269 389.257,236.269 393.929,239.773 398.531,243.276 401.829,243.414 405.127,243.551 409.455,239.773 413.783,235.994 415.775,235.857 418.867,235.651 419.966,236.475 420.447,236.818 422.233,239.429 M421.752,228.643 Q424.157,229.742 425.668,232.147 427.454,234.895 426.011,237.025 M395.577,203.155 L394.616,229.399 M381.013,230.086 Q373.868,234.345 376.685,239.635" test="Rihanna Head"/>
        <path id="Layer2_0_2_STROKES" stroke="#FFF" stroke-width="2.748" stroke-linejoin="round" stroke-linecap="round" fill="none" d="M442.225,189.072 L439.477,196.492 447.995,194.018 Q448.545,195.392 448.545,197.041 448.545,200.614 445.934,203.155 443.461,205.697 439.82,205.697 436.248,205.697 433.637,203.155 431.164,200.614 431.164,197.041 431.164,193.469 433.637,190.858 435.561,189.072 438.034,188.591" test="Rihanna Head"/>
        <path id="Layer2_0_3_STROKES" stroke="#F00" stroke-width="2.748" stroke-linejoin="round" stroke-linecap="round" fill="none" d="M452.255,85.335 Q443.805,107.044 435.835,121.334 418.111,153.073 397.295,173.683 376.41,194.293 345.358,212.361 314.237,230.429 311.282,231.46 308.328,232.422 306.267,228.712 L304.962,224.384 303.863,233.727 Q302.214,236.475 299.878,234.483 295.207,230.498 291.772,206.797 287.444,177.118 288.405,168.531 289.573,157.813 301.115,131.501 311.901,106.975 321.931,94.266 329.282,84.991 337.388,80.938 346.182,76.541 348.38,76.541 346.457,75.442 343.09,75.167 336.358,74.618 329.144,78.74 325.022,81.075 325.022,80.114 324.954,79.289 328.183,76.335 336.564,68.709 346.182,64.45 356.487,59.916 368.51,57.718 380.532,55.519 387.952,56.756 394.959,57.924 404.44,61.565 413.302,65 415.981,67.198 417.905,68.847 421.134,68.503 428.965,67.748 430.82,67.748 436.248,67.748 445.866,71.183 456.926,75.099 458.85,75.442 474.72,78.053 476.987,80.938 477.674,81.763 475.956,81.625 473.002,81.213 470.598,81.075 460.361,80.457 452.255,85.335Z M458.85,95.228 Q460.705,92.755 461.667,91.861 462.148,91.312 463.247,90.281 M456.652,127.654 Q457.613,125.799 459.125,122.502 459.194,122.364 461.048,120.509 M462.148,113.364 Q465.857,111.853 467.025,111.097 467.85,110.548 468.193,109.517 M448.408,119.96 Q451.636,115.906 452.598,114.876 453.491,113.914 453.904,113.914 M469.842,105.67 Q472.59,105.052 474.101,104.159 474.926,103.678 475.888,102.922 M477.536,121.059 L480.284,120.509 Q481.04,120.303 481.384,119.96 M469.842,126.005 Q471.079,123.257 473.14,121.746 474.239,120.922 475.888,119.96 M415.981,97.426 Q414.126,100.105 403.134,119.616 395.852,132.601 387.402,139.745 M483.032,139.196 Q486.055,138.852 486.261,138.715 486.536,138.509 487.429,137.547 M476.437,151.837 Q478.361,151.081 479.529,150.325 480.284,149.913 481.384,149.089 M474.788,135.349 Q477.88,131.639 478.773,130.746 479.254,130.265 480.284,129.303 M485.231,154.035 Q486.811,153.691 487.704,153.279 488.391,152.936 488.528,152.936 M467.094,150.188 Q470.666,146.066 470.804,145.722 470.804,145.035 472.04,142.493 M462.148,135.898 L464.346,132.601 M479.735,165.027 Q481.658,162.622 483.101,161.523 484.406,160.493 484.681,160.081 M375.311,104.571 Q372.769,106.975 369.265,112.128 365.281,118.448 363.013,121.677 354.563,133.975 346.182,137.547 M362.12,154.585 Q350.991,164.477 343.159,171.073 328.389,183.507 322.549,185.912" test="Rihanna Head"/>
        <path id="Layer1_0_1_STROKES" stroke="#F0F" stroke-width="2.748" stroke-linejoin="round" stroke-linecap="round" fill="none" d="M471.079,164.546 L471.353,164.546 471.353,164.89 Q471.211,164.718 471.079,164.546 L470.254,164.546 M378.471,271.718 Q386.371,258.459 396.058,258.459 397.157,258.459 399.905,259.352 402.653,260.245 403.272,260.245 404.714,260.245 407.531,259.009 410.348,257.772 411.516,257.772 415.157,257.772 420.996,264.23 423.434,266.938 427.557,272.577 427.74,272.669 427.935,272.749 L427.66,272.749 Q427.601,272.667 427.557,272.577 424.093,271.137 419.416,268.214 416.806,266.566 412.684,266.566 411.378,266.566 408.63,267.802 405.882,268.97 402.585,268.97 399.356,268.97 397.432,267.459 395.509,265.879 392.554,265.879 390.425,265.879 384.929,269.382 382.248,271.105 378.677,273.436 381.366,277.718 386.921,281.886 394.616,287.656 402.104,287.656 409.73,287.656 414.813,284.428 415.088,284.221 428.347,273.573 427.317,277.351 420.996,286.626 412.684,298.717 406.501,298.717 394.616,298.717 388.639,293.221 383.074,288.137 378.128,273.779 378.404,273.599 378.677,273.436 378.571,273.257 378.471,273.092" test="Rihanna Head"/>
        <path id="Layer1_0_2_STROKES" stroke="#F60" stroke-width="2.748" stroke-linejoin="round" stroke-linecap="round" fill="none" d="M424.843,166.951 Q431.988,157.539 436.797,154.585 441.332,151.768 448.957,151.768 457.407,151.768 464.003,157.264 467.376,160.109 471.079,164.546" test="Rihanna Head"/>
      </g>
    </g>
  </g>
</svg>