<?xml version="1.0" encoding="utf-8"?>
<svg id="EdithAnim07" image-rendering="inherit" baseProfile="basic" version="1.1" x="0px" y="0px" width="800" height="600" xmlns="http://www.w3.org/2000/svg" xmlns:xlink="http://www.w3.org/1999/xlink">
  <g id="Rihanna-rearf30r1" overflow="visible">
    <g id="RihannaWholeBodyf0r1">
      <g id="Rihanna-Body">
        <path id="Layer4_0_1_STROKES" stroke="#F60" stroke-width="1.374" stroke-linejoin="round" stroke-linecap="round" fill="none" d="M449.227,329.833 Q452.181,331.276 458.021,333.886 463.379,336.497 468.806,339.795 477.463,345.016 492.851,360.405 493.401,360.954 487.905,346.321 481.31,328.734 481.172,321.933 480.966,312.727 480.898,312.589 480.76,311.834 478.081,309.91 476.432,308.742 471.074,307.643 466.608,306.75 466.058,305.101 465.371,302.971 465.921,302.422 466.127,302.078 468.806,300.979 470.387,300.361 472.997,302.078 475.333,303.727 476.363,302.696 477.531,301.597 477.669,298.437 477.806,294.04 478.424,292.048 479.592,288.27 480.485,287.376 481.585,286.277 483.577,287.583 485.775,288.956 490.378,295.346 495.119,302.01 497.66,307.506 500.202,313.07 505.286,336.153 510.301,358.893 510.37,364.526 510.37,364.87 511.263,375.175 511.744,380.877 510.37,382.732 508.721,384 492.989,384.312 477.944,383.625 469.15,381.358 464.272,380.121 455.891,374.419 L448.403,369.061 Q448.403,370.16 448.403,371.259 448.471,381.839 447.166,384.793 440.914,399.151 438.578,402.311 M393.58,289.987 Q392.756,293.834 391.107,301.666 388.565,308.124 380.87,311.284 377.229,312.795 365.825,316.23 357.032,318.91 352.772,321.452 350.642,322.757 348.925,324.337 343.223,329.627 340.2,334.23 337.04,338.97 335.528,344.603 334.086,350.1 335.116,360.611 336.078,370.572 338.276,376.549 338.345,376.755 338.483,376.961 340.612,382.938 343.841,393 347.414,405.953 348.925,412.96 350.024,417.838 353.253,431.165 355.864,442.845 355.451,446.28 355.039,449.852 355.039,452.119 354.971,453.699 355.108,453.837 M352.772,321.452 Q333.674,328.665 326.391,343.436 319.04,358.206 330.651,370.023 333.605,373.664 336.215,375.518 337.315,376.343 338.483,376.961 M437.204,418.044 Q436.174,418.25 435.35,418.593 434.319,419.006 433.22,419.349 432.121,419.899 431.09,420.517 429.922,421.204 428.823,421.685 427,422.097 427.243,422.509 L426.006,423.265 Q425.182,424.158 424.632,425.257 424.083,426.15 424.014,427.181 424.014,427.868 424.22,428.555 424.701,428.761 425.251,429.036 428.96,428.692 432.052,427.524 435.143,426.288 435.418,426.425 L438.922,424.639 Q439.128,425.051 443.113,425.189 447.029,425.257 448.334,422.166 448.128,418.731 445.517,416.464 445.517,415.158 446.135,413.991 446.135,412.823 445.174,412.204 444.349,411.655 443.456,411.174 L443.387,410.006 Q444.624,408.426 443.868,406.571 443.8,406.296 443.731,406.09 442.013,405.197 439.884,405.403 439.54,405.403 439.197,405.472 L438.372,406.365 Q435.143,406.64 432.258,407.739 431.228,408.014 430.197,408.357 428.342,408.769 426.968,409.113 425.732,409.594 424.564,410.281 423.464,410.762 422.434,411.38 421.61,411.861 420.854,412.41 419.961,413.166 419.342,414.128 418.724,414.884 418.655,415.777 418.655,416.67 419.342,417.151 420.167,417.838 421.335,418.112 422.777,418.593 431.64,414.334 L435.487,413.235 M421.472,418.731 Q420.373,418.937 419.617,419.899 418.724,420.861 418.037,421.891 417.762,422.234 417.625,422.715 417.625,423.677 418.243,424.227 419.068,424.708 419.961,425.051 421.403,425.601 422.915,424.845 424.014,424.295 425.045,423.677 425.525,423.54 426.006,423.265 M440.365,428.761 Q441.395,432.265 442.7,437.28 444.418,442.707 446.135,444.905 447.853,447.104 451.013,449.096 452.731,450.195 455.41,451.775 M447.853,356.969 Q448.334,362.946 448.403,369.061 M435.899,630.396 Q438.716,631.357 441.807,630.739 444.349,630.258 446.204,629.022 M410.48,547.956 Q411.854,554.001 416.869,586.084 421.541,616.312 422.159,622.152 M469.562,545.208 Q466.952,555.787 461.662,581.825 455.41,612.877 455.822,617.343 456.509,624.419 457.127,626.548 458.364,631.083 462.005,635.205 465.509,639.12 465.784,647.433 465.99,652.036 465.44,660.623 465.44,665.433 463.104,674.707 461.868,679.86 459.257,688.791 L455.135,703.905 M362.39,556.887 L373.932,584.779 Q385.954,614.182 388.496,621.465 M391.244,631.77 Q390.214,636.235 387.053,648.532 384.718,659.868 386.435,666.807 388.84,676.493 390.832,682.264 393.443,690.027 396.74,695.661 M402.236,631.083 L406.427,631.701 Q411.098,632.182 413.228,631.77" test="Rihanna Body"/>
      </g>
      <g id="Rihanna-Bottomf0r1">
        <path id="Layer3_0_1_STROKES" stroke="#F60" stroke-width="1.374" stroke-linejoin="round" stroke-linecap="round" fill="none" d="M351.679,460.733 Q345.771,472.687 341.718,479.282 337.596,486.015 336.222,489.038 333.68,494.74 332.787,501.61 331.482,511.983 332.787,520.983 334.573,533.28 341.031,539.051 363.015,558.699 383.281,554.852 394.96,552.654 404.098,544.959 411.311,538.776 412.479,534.242 413.029,531.975 413.303,528.265 413.509,525.243 413.853,524.624 414.128,524.143 418.731,531.357 424.089,539.67 427.249,541.456 431.234,543.723 437.761,544.822 443.669,545.784 450.264,545.578 458.027,545.303 466.34,542.692 476.507,539.395 479.118,534.586 482.69,527.991 484.683,519.54 487.225,508.892 485.988,499.549 485.37,494.808 482.141,487.114 478.706,479.145 474.996,474.473 472.454,471.176 466.615,464.718 461.393,458.947 460.225,457.298" test="Rihanna Bottom"/>
      </g>
      <g id="Rihanna-Headf0r1">
        <path id="Layer2_0_1_STROKES" stroke="#F60" stroke-width="2.748" stroke-linejoin="round" stroke-linecap="round" fill="none" d="M456.438,204.804 L461.178,198.621 Q466.399,192.232 468.529,190.996 473.681,188.11 478.353,188.522 478.559,188.522 478.834,188.591 480.414,188.728 483.025,189.072 483.643,189.141 484.399,189.209 485.567,189.347 486.941,189.553 490.788,189.553 495.459,190.034 500.062,190.515 500.749,190.515 502.604,190.515 501.78,192.507 500.955,194.568 498.139,196.698 496.696,197.797 492.849,201.438 489.826,204.255 488.108,205.079 486.047,206.041 482.338,206.041 480.208,206.041 474.987,205.56 474.025,205.491 468.46,204.667 465.163,204.117 462.621,204.392 459.941,204.667 457.812,204.736 L456.438,204.804Z M356.548,232.284 Q359.708,246.505 365.135,254.2 369.189,259.833 392.615,288.756 418.378,320.426 423.324,324.754 428.614,329.357 437.957,330.25 445.995,331.006 453.346,329.014 460.56,327.09 481.101,306.549 502.742,285.046 506.726,273.71 512.016,258.665 514.695,246.849 518.405,230.773 518.13,217.926 517.993,211.399 518.474,211.468 518.817,211.468 519.848,215.659 522.802,227.475 524.382,226.994 527.611,226.033 530.29,220.811 533.45,214.491 531.527,207.484 530.153,202.537 528.161,198.553 526.718,195.736 526.237,191.751 525.756,187.904 529.466,183.439 533.176,178.836 532.97,175.057 532.626,170.042 531.596,169.286 529.809,169.149 528.161,168.874 525.962,168.531 523.008,171.897 520.603,174.576 519.573,176.981 M423.187,241.765 Q424.63,238.673 425.935,237.505 427.24,236.269 429.164,236.269 430.057,236.269 434.729,239.773 439.331,243.276 442.629,243.414 445.927,243.551 450.255,239.773 454.583,235.994 456.575,235.857 459.667,235.651 460.766,236.475 461.247,236.818 463.033,239.429 M462.552,228.643 Q464.957,229.742 466.468,232.147 468.254,234.895 466.811,237.025 M436.377,203.155 L435.416,229.399 M421.813,230.086 Q414.668,234.345 417.485,239.635" test="Rihanna Head"/>
        <path id="Layer2_0_2_STROKES" stroke="#FFF" stroke-width="2.748" stroke-linejoin="round" stroke-linecap="round" fill="none" d="M483.025,189.072 L480.277,196.492 488.795,194.018 Q489.345,195.392 489.345,197.041 489.345,200.614 486.734,203.155 484.261,205.697 480.62,205.697 477.048,205.697 474.437,203.155 471.964,200.614 471.964,197.041 471.964,193.469 474.437,190.858 476.361,189.072 478.834,188.591" test="Rihanna Head"/>
        <path id="Layer2_0_3_STROKES" stroke="#F00" stroke-width="2.748" stroke-linejoin="round" stroke-linecap="round" fill="none" d="M493.055,85.335 Q484.605,107.044 476.636,121.334 458.911,153.073 438.095,173.683 417.21,194.293 386.158,212.361 355.037,230.429 352.082,231.46 349.128,232.422 347.067,228.712 L345.762,224.384 344.663,233.727 Q343.014,236.475 340.678,234.483 336.007,230.498 332.572,206.797 328.244,177.118 329.205,168.531 330.373,157.813 341.915,131.501 352.701,106.975 362.731,94.266 370.082,84.991 378.188,80.938 386.982,76.541 389.18,76.541 387.257,75.442 383.891,75.167 377.158,74.618 369.944,78.74 365.822,81.075 365.822,80.114 365.754,79.289 368.983,76.335 377.364,68.709 386.982,64.45 397.287,59.916 409.309,57.718 421.332,55.519 428.752,56.756 435.759,57.924 445.24,61.565 454.102,65 456.781,67.198 458.705,68.847 461.934,68.503 469.766,67.748 471.62,67.748 477.048,67.748 486.666,71.183 497.726,75.099 499.65,75.442 515.52,78.053 517.787,80.938 518.474,81.763 516.756,81.625 513.802,81.213 511.398,81.075 501.161,80.457 493.055,85.335Z M499.65,95.228 Q501.505,92.755 502.467,91.861 502.948,91.312 504.047,90.281 M497.452,127.654 Q498.413,125.799 499.925,122.502 499.994,122.364 501.848,120.509 M502.948,113.364 Q506.657,111.853 507.825,111.097 508.65,110.548 508.993,109.517 M489.208,119.96 Q492.437,115.906 493.398,114.876 494.291,113.914 494.704,113.914 M510.642,105.67 Q513.39,105.052 514.901,104.159 515.726,103.678 516.688,102.922 M518.336,121.059 L521.084,120.509 Q521.84,120.303 522.184,119.96 M510.642,126.005 Q511.879,123.257 513.94,121.746 515.039,120.922 516.688,119.96 M456.781,97.426 Q454.926,100.105 443.934,119.616 436.652,132.601 428.202,139.745 M523.832,139.196 Q526.855,138.852 527.061,138.715 527.336,138.509 528.229,137.547 M517.237,151.837 Q519.161,151.081 520.329,150.325 521.084,149.913 522.184,149.089 M515.588,135.349 Q518.68,131.639 519.573,130.746 520.054,130.265 521.084,129.303 M526.031,154.035 Q527.611,153.691 528.504,153.279 529.191,152.936 529.328,152.936 M507.894,150.188 Q511.466,146.066 511.604,145.722 511.604,145.035 512.84,142.493 M502.948,135.898 L505.146,132.601 M520.535,165.027 Q522.458,162.622 523.901,161.523 525.206,160.493 525.481,160.081 M416.111,104.571 Q413.569,106.975 410.065,112.128 406.081,118.448 403.814,121.677 395.363,133.975 386.982,137.547 M402.92,154.585 Q391.791,164.477 383.959,171.073 369.189,183.507 363.349,185.912" test="Rihanna Head"/>
        <path id="Layer1_0_1_STROKES" stroke="#F0F" stroke-width="2.748" stroke-linejoin="round" stroke-linecap="round" fill="none" d="M418.996,273.023 Q419.683,273.092 420.233,273.092 418.996,272.68 418.241,272.268 422.225,269.588 428.889,264.436 434.248,260.52 437.339,260.108 440.156,259.696 441.667,260.795 443.453,262.031 444.759,262.031 446.27,262.031 448.812,260.863 451.217,259.764 453.278,259.902 455.957,260.039 461.178,264.505 465.506,268.146 470.453,273.71 L470.315,273.985 470.246,274.054 Q469.353,275.359 464.27,282.573 459.941,288.756 456.644,289.717 451.629,291.229 446.339,291.091 439.675,290.885 434.454,288 428.339,284.634 424.63,281.267 420.302,277.489 416.867,272.062 M470.246,274.054 Q465.85,276.39 459.735,278.519 452.865,281.061 448.331,280.855 440.087,280.512 432.805,277.558 430.95,276.802 427.103,275.016 425.042,273.985 423.256,273.71 421.469,273.436 420.233,273.092 421.263,273.023 422.019,272.817 423.049,272.542 427.103,271.375 431.912,270.138 433.835,269.932 436.652,269.657 439.263,270.619 441.873,271.581 444.278,271.512 445.995,271.443 449.499,270.619 452.316,269.932 457.056,270.413 461.178,270.756 464.063,271.581 467.361,272.542 470.315,273.985" test="Rihanna Head"/>
        <path id="Layer1_0_2_STROKES" stroke="#F60" stroke-width="2.748" stroke-linejoin="round" stroke-linecap="round" fill="none" d="M455.407,183.576 Q459.529,181.309 467.018,177.462 475.33,173.202 477.391,172.447 485.704,169.424 489.757,169.424 498.963,169.424 501.711,172.584 503.497,174.645 505.009,177.256 506.245,179.523 506.383,180.416" test="Rihanna Head"/>
      </g>
    </g>
  </g>
</svg>