<?xml version="1.0" encoding="utf-8"?>
<svg id="EdithAnim07" image-rendering="inherit" baseProfile="basic" version="1.1" x="0px" y="0px" width="800" height="600" xmlns="http://www.w3.org/2000/svg" xmlns:xlink="http://www.w3.org/1999/xlink">
  <g id="Rihanna-rearf300r1" overflow="visible">
    <g id="RihannaWholeBodyf29r1">
      <g id="Rihanna-Body">
        <path id="Layer3_0_1_STROKES" stroke="#F60" stroke-width="1.374" stroke-linejoin="round" stroke-linecap="round" fill="none" d="M402.277,329.833 Q405.231,331.276 411.071,333.886 416.429,336.497 421.856,339.795 430.513,345.016 445.901,360.405 446.451,360.954 440.955,346.321 434.36,328.734 434.222,321.933 434.016,312.727 433.948,312.589 433.81,311.834 431.131,309.91 429.482,308.742 424.124,307.643 419.658,306.75 419.108,305.101 418.421,302.971 418.971,302.422 419.177,302.078 421.856,300.979 423.437,300.361 426.047,302.078 428.383,303.727 429.413,302.696 430.581,301.597 430.719,298.437 430.856,294.04 431.474,292.048 432.642,288.27 433.535,287.376 434.635,286.277 436.627,287.583 438.825,288.956 443.428,295.346 448.169,302.01 450.71,307.506 453.252,313.07 458.336,336.153 463.351,358.893 463.42,364.526 463.42,364.87 464.313,375.175 464.794,380.877 463.42,382.732 461.771,384 446.039,384.312 430.994,383.625 422.2,381.358 417.322,380.121 408.941,374.419 L401.453,369.061 Q401.453,370.16 401.453,371.259 401.521,381.839 400.216,384.793 393.964,399.151 391.628,402.311 M346.63,289.987 Q345.806,293.834 344.157,301.666 341.615,308.124 333.92,311.284 330.279,312.795 318.875,316.23 310.082,318.91 305.822,321.452 303.692,322.757 301.975,324.337 296.273,329.627 293.25,334.23 290.09,338.97 288.578,344.603 287.136,350.1 288.166,360.611 289.128,370.572 291.326,376.549 291.395,376.755 291.533,376.961 293.662,382.938 296.891,393 300.464,405.953 301.975,412.96 303.074,417.838 306.303,431.165 308.914,442.845 308.501,446.28 308.089,449.852 308.089,452.119 308.021,453.699 308.158,453.837 M305.822,321.452 Q286.724,328.665 279.441,343.436 272.09,358.206 283.701,370.023 286.655,373.664 289.265,375.518 290.365,376.343 291.533,376.961 M390.254,418.044 Q389.224,418.25 388.4,418.593 387.369,419.006 386.27,419.349 385.171,419.899 384.14,420.517 382.972,421.204 381.873,421.685 381.049,422.097 380.293,422.509 L379.056,423.265 Q378.232,424.158 377.682,425.257 377.133,426.15 377.064,427.181 377.064,427.868 377.27,428.555 377.751,428.761 378.301,429.036 382.01,428.692 385.102,427.524 388.193,426.288 388.468,426.425 L391.972,424.639 Q392.178,425.051 396.163,425.189 400.079,425.257 401.384,422.166 401.178,418.731 398.567,416.464 398.567,415.158 399.185,413.991 399.185,412.823 398.224,412.204 397.399,411.655 396.506,411.174 L396.437,410.006 Q397.674,408.426 396.918,406.571 396.85,406.296 396.781,406.09 395.063,405.197 392.934,405.403 392.59,405.403 392.247,405.472 L391.422,406.365 Q388.193,406.64 385.308,407.739 384.278,408.014 383.247,408.357 381.392,408.769 380.018,409.113 378.782,409.594 377.614,410.281 376.514,410.762 375.484,411.38 374.66,411.861 373.904,412.41 373.011,413.166 372.392,414.128 371.774,414.884 371.705,415.777 371.705,416.67 372.392,417.151 373.217,417.838 374.385,418.112 375.827,418.593 384.69,414.334 L388.537,413.235 M374.522,418.731 Q373.423,418.937 372.667,419.899 371.774,420.861 371.087,421.891 370.812,422.234 370.675,422.715 370.675,423.677 371.293,424.227 372.118,424.708 373.011,425.051 374.453,425.601 375.965,424.845 377.064,424.295 378.095,423.677 378.575,423.54 379.056,423.265 M393.415,428.761 Q394.445,432.265 395.75,437.28 397.468,442.707 399.185,444.905 400.903,447.104 404.063,449.096 405.781,450.195 408.46,451.775 M400.903,356.969 Q401.384,362.946 401.453,369.061 M388.949,630.396 Q391.766,631.357 394.857,630.739 397.399,630.258 399.254,629.022 M363.53,547.956 Q364.904,554.001 369.919,586.084 374.591,616.312 375.209,622.152 M422.612,545.208 Q420.002,555.787 414.712,581.825 408.46,612.877 408.872,617.343 409.559,624.419 410.177,626.548 411.414,631.083 415.055,635.205 418.559,639.12 418.834,647.433 419.04,652.036 418.49,660.623 418.49,665.433 416.154,674.707 414.918,679.86 412.307,688.791 L408.185,703.905 M315.44,556.887 L326.982,584.779 Q339.004,614.182 341.546,621.465 M344.294,631.77 Q343.264,636.235 340.103,648.532 337.768,659.868 339.485,666.807 341.89,676.493 343.882,682.264 346.493,690.027 349.79,695.661 M355.286,631.083 L359.477,631.701 Q364.148,632.182 366.278,631.77" test="Rihanna Body"/>
      </g>
      <g id="Rihanna-Headf1r1">
        <path id="Layer2_0_1_STROKES" stroke="#F60" stroke-width="2.748" stroke-linejoin="round" stroke-linecap="round" fill="none" d="M409.488,204.804 L414.228,198.621 Q419.449,192.232 421.579,190.996 426.731,188.11 431.403,188.522 431.609,188.522 431.884,188.591 433.464,188.728 436.075,189.072 436.693,189.141 437.449,189.209 438.617,189.347 439.991,189.553 443.838,189.553 448.509,190.034 453.112,190.515 453.799,190.515 455.654,190.515 454.83,192.507 454.005,194.568 451.189,196.698 449.746,197.797 445.899,201.438 442.876,204.255 441.158,205.079 439.097,206.041 435.388,206.041 433.258,206.041 428.037,205.56 427.075,205.491 421.51,204.667 418.213,204.117 415.671,204.392 412.991,204.667 410.862,204.736 L409.488,204.804Z M309.598,232.284 Q312.758,246.505 318.185,254.2 322.239,259.833 345.665,288.756 371.428,320.426 376.374,324.754 381.664,329.357 391.007,330.25 399.045,331.006 406.396,329.014 413.61,327.09 434.151,306.549 455.792,285.046 459.776,273.71 465.066,258.665 467.745,246.849 471.455,230.773 471.18,217.926 471.043,211.399 471.524,211.468 471.867,211.468 472.898,215.659 475.852,227.475 477.432,226.994 480.661,226.033 483.34,220.811 486.5,214.491 484.577,207.484 483.203,202.537 481.211,198.553 479.768,195.736 479.287,191.751 478.806,187.904 482.516,183.439 486.226,178.836 486.02,175.057 485.676,170.042 484.646,169.286 482.859,169.149 481.211,168.874 479.012,168.531 476.058,171.897 473.654,174.576 472.623,176.981 M376.237,241.765 Q377.68,238.673 378.985,237.505 380.29,236.269 382.214,236.269 383.107,236.269 387.779,239.773 392.381,243.276 395.679,243.414 398.977,243.551 403.305,239.773 407.633,235.994 409.625,235.857 412.717,235.651 413.816,236.475 414.297,236.818 416.083,239.429 M415.602,228.643 Q418.007,229.742 419.518,232.147 421.304,234.895 419.861,237.025 M389.427,203.155 L388.466,229.399 M374.863,230.086 Q367.718,234.345 370.535,239.635" test="Rihanna Head"/>
        <path id="Layer2_0_2_STROKES" stroke="#FFF" stroke-width="2.748" stroke-linejoin="round" stroke-linecap="round" fill="none" d="M436.075,189.072 L433.327,196.492 441.845,194.018 Q442.395,195.392 442.395,197.041 442.395,200.614 439.784,203.155 437.311,205.697 433.67,205.697 430.098,205.697 427.487,203.155 425.014,200.614 425.014,197.041 425.014,193.469 427.487,190.858 429.411,189.072 431.884,188.591" test="Rihanna Head"/>
        <path id="Layer2_0_3_STROKES" stroke="#F00" stroke-width="2.748" stroke-linejoin="round" stroke-linecap="round" fill="none" d="M446.105,85.335 Q437.655,107.044 429.686,121.334 411.961,153.073 391.145,173.683 370.26,194.293 339.208,212.361 308.087,230.429 305.132,231.46 302.178,232.422 300.117,228.712 L298.812,224.384 297.713,233.727 Q296.064,236.475 293.728,234.483 289.057,230.498 285.622,206.797 281.294,177.118 282.255,168.531 283.423,157.813 294.965,131.501 305.751,106.975 315.781,94.266 323.132,84.991 331.238,80.938 340.032,76.541 342.23,76.541 340.307,75.442 336.941,75.167 330.208,74.618 322.994,78.74 318.872,81.075 318.872,80.114 318.804,79.289 322.033,76.335 330.414,68.709 340.032,64.45 350.337,59.916 362.36,57.718 374.382,55.519 381.802,56.756 388.809,57.924 398.29,61.565 407.152,65 409.831,67.198 411.755,68.847 414.984,68.503 422.816,67.748 424.67,67.748 430.098,67.748 439.716,71.183 450.776,75.099 452.7,75.442 468.57,78.053 470.837,80.938 471.524,81.763 469.806,81.625 466.852,81.213 464.448,81.075 454.211,80.457 446.105,85.335Z M452.7,95.228 Q454.555,92.755 455.517,91.861 455.998,91.312 457.097,90.281 M450.502,127.654 Q451.463,125.799 452.975,122.502 453.044,122.364 454.898,120.509 M455.998,113.364 Q459.707,111.853 460.875,111.097 461.7,110.548 462.043,109.517 M442.258,119.96 Q445.487,115.906 446.448,114.876 447.341,113.914 447.754,113.914 M463.692,105.67 Q466.44,105.052 467.951,104.159 468.776,103.678 469.738,102.922 M471.386,121.059 L474.134,120.509 Q474.89,120.303 475.234,119.96 M463.692,126.005 Q464.929,123.257 466.99,121.746 468.089,120.922 469.738,119.96 M409.831,97.426 Q407.976,100.105 396.984,119.616 389.702,132.601 381.252,139.745 M476.882,139.196 Q479.905,138.852 480.111,138.715 480.386,138.509 481.279,137.547 M470.287,151.837 Q472.211,151.081 473.379,150.325 474.134,149.913 475.234,149.089 M468.638,135.349 Q471.73,131.639 472.623,130.746 473.104,130.265 474.134,129.303 M479.081,154.035 Q480.661,153.691 481.554,153.279 482.241,152.936 482.378,152.936 M460.944,150.188 Q464.516,146.066 464.654,145.722 464.654,145.035 465.89,142.493 M455.998,135.898 L458.196,132.601 M473.585,165.027 Q475.508,162.622 476.951,161.523 478.256,160.493 478.531,160.081 M369.161,104.571 Q366.619,106.975 363.115,112.128 359.131,118.448 356.864,121.677 348.413,133.975 340.032,137.547 M355.97,154.585 Q344.841,164.477 337.009,171.073 322.239,183.507 316.399,185.912" test="Rihanna Head"/>
        <path id="Layer1_0_1_STROKES" stroke="#F0F" stroke-width="2.748" stroke-linejoin="round" stroke-linecap="round" fill="none" d="M464.929,164.546 L465.203,164.546 465.203,164.89 Q465.061,164.718 464.929,164.546 L464.104,164.546 M372.321,271.718 Q380.222,258.459 389.908,258.459 391.007,258.459 393.755,259.352 396.503,260.245 397.122,260.245 398.564,260.245 401.381,259.009 404.198,257.772 405.366,257.772 409.007,257.772 414.846,264.23 417.284,266.938 421.407,272.577 421.59,272.669 421.785,272.749 L421.51,272.749 Q421.451,272.667 421.407,272.577 417.943,271.137 413.266,268.214 410.656,266.566 406.534,266.566 405.228,266.566 402.48,267.802 399.732,268.97 396.435,268.97 393.206,268.97 391.282,267.459 389.359,265.879 386.405,265.879 384.275,265.879 378.779,269.382 376.098,271.105 372.527,273.436 375.216,277.718 380.771,281.886 388.466,287.656 395.954,287.656 403.58,287.656 408.663,284.428 408.938,284.221 422.197,273.573 421.167,277.351 414.846,286.626 406.534,298.717 400.351,298.717 388.466,298.717 382.489,293.221 376.924,288.137 371.978,273.779 372.254,273.599 372.527,273.436 372.421,273.257 372.321,273.092" test="Rihanna Head"/>
        <path id="Layer1_0_2_STROKES" stroke="#F60" stroke-width="2.748" stroke-linejoin="round" stroke-linecap="round" fill="none" d="M418.694,166.951 Q425.838,157.539 430.647,154.585 435.182,151.768 442.807,151.768 451.257,151.768 457.853,157.264 461.226,160.109 464.929,164.546" test="Rihanna Head"/>
      </g>
    </g>
  </g>
</svg>