<?xml version="1.0" encoding="utf-8"?>
<svg id="EdithAnim07" image-rendering="inherit" baseProfile="basic" version="1.1" x="0px" y="0px" width="800" height="600" xmlns="http://www.w3.org/2000/svg" xmlns:xlink="http://www.w3.org/1999/xlink">
  <g id="Rihanna-rearf301r1" overflow="visible">
    <g id="RihannaWholeBodyf29r1">
      <g id="Rihanna-Body">
        <path id="Layer3_0_1_STROKES" stroke="#F60" stroke-width="1.374" stroke-linejoin="round" stroke-linecap="round" fill="none" d="M395.427,329.833 Q398.381,331.276 404.221,333.886 409.579,336.497 415.006,339.795 423.663,345.016 439.051,360.405 439.601,360.954 434.105,346.321 427.51,328.734 427.372,321.933 427.166,312.727 427.098,312.589 426.96,311.834 424.281,309.91 422.632,308.742 417.274,307.643 412.808,306.75 412.258,305.101 411.571,302.971 412.121,302.422 412.327,302.078 415.006,300.979 416.587,300.361 419.197,302.078 421.533,303.727 422.563,302.696 423.731,301.597 423.869,298.437 424.006,294.04 424.624,292.048 425.792,288.27 426.685,287.376 427.785,286.277 429.777,287.583 431.975,288.956 436.578,295.346 441.319,302.01 443.86,307.506 446.402,313.07 451.486,336.153 456.501,358.893 456.57,364.526 456.57,364.87 457.463,375.175 457.944,380.877 456.57,382.732 454.921,384 439.189,384.312 424.144,383.625 415.35,381.358 410.472,380.121 402.091,374.419 L394.603,369.061 Q394.603,370.16 394.603,371.259 394.671,381.839 393.366,384.793 387.114,399.151 384.778,402.311 M339.78,289.987 Q338.956,293.834 337.307,301.666 334.765,308.124 327.07,311.284 323.429,312.795 312.025,316.23 303.232,318.91 298.972,321.452 296.842,322.757 295.125,324.337 289.423,329.627 286.4,334.23 283.24,338.97 281.728,344.603 280.286,350.1 281.316,360.611 282.278,370.572 284.476,376.549 284.545,376.755 284.683,376.961 286.812,382.938 290.041,393 293.614,405.953 295.125,412.96 296.224,417.838 299.453,431.165 302.064,442.845 301.651,446.28 301.239,449.852 301.239,452.119 301.171,453.699 301.308,453.837 M298.972,321.452 Q279.874,328.665 272.591,343.436 265.24,358.206 276.851,370.023 279.805,373.664 282.415,375.518 283.515,376.343 284.683,376.961 M383.404,418.044 Q382.374,418.25 381.55,418.593 380.519,419.006 379.42,419.349 378.321,419.899 377.29,420.517 376.122,421.204 375.023,421.685 374.199,422.097 373.443,422.509 L372.206,423.265 Q371.382,424.158 370.832,425.257 370.283,426.15 370.214,427.181 370.214,427.868 370.42,428.555 370.901,428.761 371.451,429.036 375.16,428.692 378.252,427.524 381.343,426.288 381.618,426.425 L385.122,424.639 Q385.328,425.051 389.313,425.189 393.229,425.257 394.534,422.166 394.328,418.731 391.717,416.464 391.717,415.158 392.335,413.991 392.335,412.823 391.374,412.204 390.549,411.655 389.656,411.174 L389.587,410.006 Q390.824,408.426 390.068,406.571 390,406.296 389.931,406.09 388.213,405.197 386.084,405.403 385.74,405.403 385.397,405.472 L384.572,406.365 Q381.343,406.64 378.458,407.739 377.428,408.014 376.397,408.357 374.542,408.769 373.168,409.113 371.932,409.594 370.764,410.281 369.664,410.762 368.634,411.38 367.81,411.861 367.054,412.41 366.161,413.166 365.542,414.128 364.924,414.884 364.855,415.777 364.855,416.67 365.542,417.151 366.367,417.838 367.535,418.112 368.977,418.593 377.84,414.334 L381.687,413.235 M367.672,418.731 Q366.573,418.937 365.817,419.899 364.924,420.861 364.237,421.891 363.962,422.234 363.825,422.715 363.825,423.677 364.443,424.227 365.268,424.708 366.161,425.051 367.603,425.601 369.115,424.845 370.214,424.295 371.245,423.677 371.725,423.54 372.206,423.265 M386.565,428.761 Q387.595,432.265 388.9,437.28 390.618,442.707 392.335,444.905 394.053,447.104 397.213,449.096 398.931,450.195 401.61,451.775 M394.053,356.969 Q394.534,362.946 394.603,369.061 M382.099,630.396 Q384.916,631.357 388.007,630.739 390.549,630.258 392.404,629.022 M356.68,547.956 Q358.054,554.001 363.069,586.084 367.741,616.312 368.359,622.152 M415.762,545.208 Q413.152,555.787 407.862,581.825 401.61,612.877 402.022,617.343 402.709,624.419 403.327,626.548 404.564,631.083 408.205,635.205 411.709,639.12 411.984,647.433 412.19,652.036 411.64,660.623 411.64,665.433 409.304,674.707 408.068,679.86 405.457,688.791 L401.335,703.905 M308.59,556.887 L320.132,584.779 Q332.154,614.182 334.696,621.465 M337.444,631.77 Q336.414,636.235 333.253,648.532 330.918,659.868 332.635,666.807 335.04,676.493 337.032,682.264 339.643,690.027 342.94,695.661 M348.436,631.083 L352.627,631.701 Q357.298,632.182 359.428,631.77" test="Rihanna Body"/>
      </g>
      <g id="Rihanna-Headf1r1">
        <path id="Layer2_0_1_STROKES" stroke="#F60" stroke-width="2.748" stroke-linejoin="round" stroke-linecap="round" fill="none" d="M402.638,204.804 L407.378,198.621 Q412.599,192.232 414.729,190.996 419.881,188.11 424.553,188.522 424.759,188.522 425.034,188.591 426.614,188.728 429.225,189.072 429.843,189.141 430.599,189.209 431.766,189.347 433.141,189.553 436.988,189.553 441.659,190.034 446.262,190.515 446.949,190.515 448.804,190.515 447.98,192.507 447.155,194.568 444.339,196.698 442.896,197.797 439.049,201.438 436.026,204.255 434.308,205.079 432.247,206.041 428.538,206.041 426.408,206.041 421.187,205.56 420.225,205.491 414.66,204.667 411.363,204.117 408.821,204.392 406.141,204.667 404.012,204.736 L402.638,204.804Z M302.748,232.284 Q305.908,246.505 311.335,254.2 315.389,259.833 338.815,288.756 364.578,320.426 369.524,324.754 374.814,329.357 384.157,330.25 392.195,331.006 399.546,329.014 406.76,327.09 427.301,306.549 448.941,285.046 452.926,273.71 458.216,258.665 460.895,246.849 464.605,230.773 464.33,217.926 464.193,211.399 464.674,211.468 465.017,211.468 466.048,215.659 469.002,227.475 470.582,226.994 473.811,226.033 476.49,220.811 479.65,214.491 477.727,207.484 476.353,202.537 474.361,198.553 472.918,195.736 472.437,191.751 471.956,187.904 475.666,183.439 479.376,178.836 479.17,175.057 478.826,170.042 477.796,169.286 476.009,169.149 474.361,168.874 472.162,168.531 469.208,171.897 466.804,174.576 465.773,176.981 M369.387,241.765 Q370.83,238.673 372.135,237.505 373.44,236.269 375.364,236.269 376.257,236.269 380.929,239.773 385.531,243.276 388.829,243.414 392.127,243.551 396.455,239.773 400.783,235.994 402.775,235.857 405.867,235.651 406.966,236.475 407.447,236.818 409.233,239.429 M408.752,228.643 Q411.157,229.742 412.668,232.147 414.454,234.895 413.011,237.025 M382.577,203.155 L381.616,229.399 M368.013,230.086 Q360.868,234.345 363.685,239.635" test="Rihanna Head"/>
        <path id="Layer2_0_2_STROKES" stroke="#FFF" stroke-width="2.748" stroke-linejoin="round" stroke-linecap="round" fill="none" d="M429.225,189.072 L426.477,196.492 434.995,194.018 Q435.545,195.392 435.545,197.041 435.545,200.614 432.934,203.155 430.461,205.697 426.82,205.697 423.248,205.697 420.637,203.155 418.164,200.614 418.164,197.041 418.164,193.469 420.637,190.858 422.561,189.072 425.034,188.591" test="Rihanna Head"/>
        <path id="Layer2_0_3_STROKES" stroke="#F00" stroke-width="2.748" stroke-linejoin="round" stroke-linecap="round" fill="none" d="M439.255,85.335 Q430.805,107.044 422.835,121.334 405.111,153.073 384.295,173.683 363.41,194.293 332.358,212.361 301.237,230.429 298.282,231.46 295.328,232.422 293.267,228.712 L291.962,224.384 290.863,233.727 Q289.214,236.475 286.878,234.483 282.207,230.498 278.772,206.797 274.444,177.118 275.405,168.531 276.573,157.813 288.115,131.501 298.901,106.975 308.931,94.266 316.282,84.991 324.388,80.938 333.182,76.541 335.38,76.541 333.457,75.442 330.09,75.167 323.358,74.618 316.144,78.74 312.022,81.075 312.022,80.114 311.954,79.289 315.183,76.335 323.564,68.709 333.182,64.45 343.487,59.916 355.51,57.718 367.532,55.519 374.952,56.756 381.959,57.924 391.44,61.565 400.302,65 402.981,67.198 404.905,68.847 408.134,68.503 415.965,67.748 417.82,67.748 423.248,67.748 432.866,71.183 443.926,75.099 445.85,75.442 461.72,78.053 463.987,80.938 464.674,81.763 462.956,81.625 460.002,81.213 457.598,81.075 447.361,80.457 439.255,85.335Z M445.85,95.228 Q447.705,92.755 448.667,91.861 449.148,91.312 450.247,90.281 M443.652,127.654 Q444.613,125.799 446.125,122.502 446.194,122.364 448.048,120.509 M449.148,113.364 Q452.857,111.853 454.025,111.097 454.85,110.548 455.193,109.517 M435.408,119.96 Q438.636,115.906 439.598,114.876 440.491,113.914 440.904,113.914 M456.842,105.67 Q459.59,105.052 461.101,104.159 461.926,103.678 462.888,102.922 M464.536,121.059 L467.284,120.509 Q468.04,120.303 468.384,119.96 M456.842,126.005 Q458.079,123.257 460.14,121.746 461.239,120.922 462.888,119.96 M402.981,97.426 Q401.126,100.105 390.134,119.616 382.852,132.601 374.402,139.745 M470.032,139.196 Q473.055,138.852 473.261,138.715 473.536,138.509 474.429,137.547 M463.437,151.837 Q465.361,151.081 466.529,150.325 467.284,149.913 468.384,149.089 M461.788,135.349 Q464.88,131.639 465.773,130.746 466.254,130.265 467.284,129.303 M472.231,154.035 Q473.811,153.691 474.704,153.279 475.391,152.936 475.528,152.936 M454.094,150.188 Q457.666,146.066 457.804,145.722 457.804,145.035 459.04,142.493 M449.148,135.898 L451.346,132.601 M466.735,165.027 Q468.658,162.622 470.101,161.523 471.406,160.493 471.681,160.081 M362.311,104.571 Q359.769,106.975 356.265,112.128 352.281,118.448 350.013,121.677 341.563,133.975 333.182,137.547 M349.12,154.585 Q337.991,164.477 330.159,171.073 315.389,183.507 309.549,185.912" test="Rihanna Head"/>
        <path id="Layer1_0_1_STROKES" stroke="#F0F" stroke-width="2.748" stroke-linejoin="round" stroke-linecap="round" fill="none" d="M458.079,164.546 L458.353,164.546 458.353,164.89 Q458.211,164.718 458.079,164.546 L457.254,164.546 M365.471,271.718 Q373.371,258.459 383.058,258.459 384.157,258.459 386.905,259.352 389.653,260.245 390.272,260.245 391.714,260.245 394.531,259.009 397.348,257.772 398.516,257.772 402.157,257.772 407.996,264.23 410.434,266.938 414.557,272.577 414.74,272.669 414.935,272.749 L414.66,272.749 Q414.601,272.667 414.557,272.577 411.093,271.137 406.416,268.214 403.806,266.566 399.684,266.566 398.378,266.566 395.63,267.802 392.882,268.97 389.585,268.97 386.356,268.97 384.432,267.459 382.509,265.879 379.554,265.879 377.425,265.879 371.929,269.382 369.248,271.105 365.677,273.436 368.366,277.718 373.921,281.886 381.616,287.656 389.104,287.656 396.73,287.656 401.813,284.428 402.088,284.221 415.347,273.573 414.317,277.351 407.996,286.626 399.684,298.717 393.501,298.717 381.616,298.717 375.639,293.221 370.074,288.137 365.128,273.779 365.404,273.599 365.677,273.436 365.571,273.257 365.471,273.092" test="Rihanna Head"/>
        <path id="Layer1_0_2_STROKES" stroke="#F60" stroke-width="2.748" stroke-linejoin="round" stroke-linecap="round" fill="none" d="M411.843,166.951 Q418.988,157.539 423.797,154.585 428.332,151.768 435.957,151.768 444.407,151.768 451.003,157.264 454.376,160.109 458.079,164.546" test="Rihanna Head"/>
      </g>
    </g>
  </g>
</svg>