<?xml version="1.0" encoding="utf-8"?>
<svg id="EdithAnim07" image-rendering="inherit" baseProfile="basic" version="1.1" x="0px" y="0px" width="800" height="600" xmlns="http://www.w3.org/2000/svg" xmlns:xlink="http://www.w3.org/1999/xlink">
  <g id="Rihanna-rearf302r1" overflow="visible">
    <g id="RihannaWholeBodyf29r1">
      <g id="Rihanna-Body">
        <path id="Layer3_0_1_STROKES" stroke="#F60" stroke-width="1.374" stroke-linejoin="round" stroke-linecap="round" fill="none" d="M387.877,329.833 Q390.831,331.276 396.671,333.886 402.029,336.497 407.456,339.795 416.113,345.016 431.501,360.405 432.051,360.954 426.555,346.321 419.96,328.734 419.822,321.933 419.616,312.727 419.548,312.589 419.41,311.834 416.731,309.91 415.082,308.742 409.724,307.643 405.258,306.75 404.708,305.101 404.021,302.971 404.571,302.422 404.777,302.078 407.456,300.979 409.037,300.361 411.647,302.078 413.983,303.727 415.013,302.696 416.181,301.597 416.319,298.437 416.456,294.04 417.074,292.048 418.242,288.27 419.135,287.376 420.235,286.277 422.227,287.583 424.425,288.956 429.028,295.346 433.769,302.01 436.31,307.506 438.852,313.07 443.936,336.153 448.951,358.893 449.02,364.526 449.02,364.87 449.913,375.175 450.394,380.877 449.02,382.732 447.371,384 431.639,384.312 416.594,383.625 407.8,381.358 402.922,380.121 394.541,374.419 L387.053,369.061 Q387.053,370.16 387.053,371.259 387.121,381.839 385.816,384.793 379.564,399.151 377.228,402.311 M332.23,289.987 Q331.406,293.834 329.757,301.666 327.215,308.124 319.52,311.284 315.879,312.795 304.475,316.23 295.682,318.91 291.422,321.452 289.292,322.757 287.575,324.337 281.873,329.627 278.85,334.23 275.69,338.97 274.178,344.603 272.736,350.1 273.766,360.611 274.728,370.572 276.926,376.549 276.995,376.755 277.133,376.961 279.262,382.938 282.491,393 286.064,405.953 287.575,412.96 288.674,417.838 291.903,431.165 294.514,442.845 294.101,446.28 293.689,449.852 293.689,452.119 293.621,453.699 293.758,453.837 M291.422,321.452 Q272.324,328.665 265.041,343.436 257.69,358.206 269.301,370.023 272.255,373.664 274.865,375.518 275.965,376.343 277.133,376.961 M375.854,418.044 Q374.824,418.25 374,418.593 372.969,419.006 371.87,419.349 370.771,419.899 369.74,420.517 368.572,421.204 367.473,421.685 366.649,422.097 365.893,422.509 L364.656,423.265 Q363.832,424.158 363.282,425.257 362.733,426.15 362.664,427.181 362.664,427.868 362.87,428.555 363.351,428.761 363.901,429.036 367.61,428.692 370.702,427.524 373.793,426.288 374.068,426.425 L377.572,424.639 Q377.778,425.051 381.763,425.189 385.679,425.257 386.984,422.166 386.778,418.731 384.167,416.464 384.167,415.158 384.785,413.991 384.785,412.823 383.824,412.204 382,411.655 382.106,411.174 L382.037,410.006 Q383.274,408.426 382.518,406.571 382.45,406.296 382.381,406.09 380.663,405.197 378.534,405.403 378.19,405.403 377.847,405.472 L377.022,406.365 Q373.793,406.64 370.908,407.739 369.878,408.014 368.847,408.357 366.992,408.769 365.618,409.113 364.382,409.594 363.214,410.281 362.114,410.762 361.084,411.38 360.26,411.861 359.504,412.41 358.611,413.166 357.992,414.128 357.374,414.884 357.305,415.777 357.305,416.67 357.992,417.151 358.817,417.838 359.985,418.112 361.427,418.593 370.29,414.334 L374.137,413.235 M360.122,418.731 Q359.023,418.937 358.267,419.899 357.374,420.861 356.687,421.891 356.412,422.234 356.275,422.715 356.275,423.677 356.893,424.227 357.718,424.708 358.611,425.051 360.053,425.601 361.565,424.845 362.664,424.295 363.695,423.677 364.175,423.54 364.656,423.265 M379.015,428.761 Q380.045,432.265 381.35,437.28 383.068,442.707 384.785,444.905 386.503,447.104 389.663,449.096 391.381,450.195 394.06,451.775 M386.503,356.969 Q386.984,362.946 387.053,369.061 M374.549,630.396 Q377.366,631.357 380.457,630.739 382,630.258 384.854,629.022 M349.13,547.956 Q350.504,554.001 355.519,586.084 360.191,616.312 360.809,622.152 M408.212,545.208 Q405.602,555.787 400.312,581.825 394.06,612.877 394.472,617.343 395.159,624.419 395.777,626.548 397.014,631.083 400.655,635.205 404.159,639.12 404.434,647.433 404.64,652.036 404.09,660.623 404.09,665.433 401.754,674.707 400.518,679.86 397.907,688.791 L393.785,703.905 M301.04,556.887 L312.582,584.779 Q324.604,614.182 327.146,621.465 M329.894,631.77 Q328.864,636.235 325.703,648.532 323.368,659.868 325.085,666.807 327.49,676.493 329.482,682.264 332.093,690.027 335.39,695.661 M340.886,631.083 L345.077,631.701 Q349.748,632.182 351.878,631.77" test="Rihanna Body"/>
      </g>
      <g id="Rihanna-Headf1r1">
        <path id="Layer2_0_1_STROKES" stroke="#F60" stroke-width="2.748" stroke-linejoin="round" stroke-linecap="round" fill="none" d="M395.088,204.804 L399.828,198.621 Q405.049,192.232 407.179,190.996 412.331,188.11 417.003,188.522 417.209,188.522 417.484,188.591 419.064,188.728 421.675,189.072 422.293,189.141 423.049,189.209 424.217,189.347 425.591,189.553 429.438,189.553 434.109,190.034 438.712,190.515 439.399,190.515 441.254,190.515 440.43,192.507 439.605,194.568 436.789,196.698 435.346,197.797 431.499,201.438 428.476,204.255 426.758,205.079 424.697,206.041 420.988,206.041 418.858,206.041 413.637,205.56 412.675,205.491 407.11,204.667 403.813,204.117 401.271,204.392 398.591,204.667 396.462,204.736 L395.088,204.804Z M295.198,232.284 Q298.358,246.505 303.785,254.2 307.839,259.833 331.265,288.756 357.028,320.426 361.974,324.754 367.264,329.357 376.607,330.25 384.645,331.006 391.996,329.014 399.21,327.09 419.751,306.549 441.392,285.046 445.376,273.71 450.666,258.665 453.345,246.849 457.055,230.773 456.78,217.926 456.643,211.399 457.124,211.468 457.467,211.468 458.498,215.659 461.452,227.475 463.032,226.994 466.261,226.033 468.94,220.811 472.1,214.491 470.177,207.484 468.803,202.537 466.811,198.553 465.368,195.736 464.887,191.751 464.406,187.904 468.116,183.439 471.826,178.836 471.62,175.057 471.276,170.042 470.246,169.286 468.459,169.149 466.811,168.874 464.612,168.531 461.658,171.897 459.254,174.576 458.223,176.981 M361.837,241.765 Q363.28,238.673 364.585,237.505 365.89,236.269 367.814,236.269 368.707,236.269 373.379,239.773 377.981,243.276 381.279,243.414 384.577,243.551 388.905,239.773 393.233,235.994 395.225,235.857 398.317,235.651 399.416,236.475 399.897,236.818 401.683,239.429 M401.202,228.643 Q403.607,229.742 405.118,232.147 406.904,234.895 405.461,237.025 M375.027,203.155 L374.066,229.399 M360.463,230.086 Q353.318,234.345 356.135,239.635" test="Rihanna Head"/>
        <path id="Layer2_0_2_STROKES" stroke="#FFF" stroke-width="2.748" stroke-linejoin="round" stroke-linecap="round" fill="none" d="M421.675,189.072 L418.927,196.492 427.445,194.018 Q427.995,195.392 427.995,197.041 427.995,200.614 425.384,203.155 422.911,205.697 419.27,205.697 415.698,205.697 413.087,203.155 410.614,200.614 410.614,197.041 410.614,193.469 413.087,190.858 415.011,189.072 417.484,188.591" test="Rihanna Head"/>
        <path id="Layer2_0_3_STROKES" stroke="#F00" stroke-width="2.748" stroke-linejoin="round" stroke-linecap="round" fill="none" d="M431.705,85.335 Q423.255,107.044 415.286,121.334 397.561,153.073 376.745,173.683 355.86,194.293 324.808,212.361 293.687,230.429 290.732,231.46 287.778,232.422 285.717,228.712 L284.412,224.384 283.313,233.727 Q281.664,236.475 279.328,234.483 274.657,230.498 271.222,206.797 266.894,177.118 267.855,168.531 269.023,157.813 280.565,131.501 291.351,106.975 301.381,94.266 308.732,84.991 316.838,80.938 325.632,76.541 327.83,76.541 325.907,75.442 322.541,75.167 315.808,74.618 308.594,78.74 304.472,81.075 304.472,80.114 304.404,79.289 307.633,76.335 316.014,68.709 325.632,64.45 335.937,59.916 347.96,57.718 359.982,55.519 367.402,56.756 374.409,57.924 383.89,61.565 392.752,65 395.431,67.198 397.355,68.847 400.584,68.503 408.416,67.748 410.27,67.748 415.698,67.748 425.316,71.183 436.376,75.099 438.3,75.442 454.17,78.053 456.437,80.938 457.124,81.763 455.406,81.625 452.452,81.213 450.048,81.075 439.811,80.457 431.705,85.335Z M438.3,95.228 Q440.155,92.755 441.117,91.861 441.598,91.312 442.697,90.281 M436.102,127.654 Q437.063,125.799 438.575,122.502 438.644,122.364 440.498,120.509 M441.598,113.364 Q445.307,111.853 446.475,111.097 447.3,110.548 447.643,109.517 M427.858,119.96 Q431.087,115.906 432.048,114.876 432.941,113.914 433.354,113.914 M449.292,105.67 Q452.04,105.052 453.551,104.159 454.376,103.678 455.338,102.922 M456.986,121.059 L459.734,120.509 Q460.49,120.303 460.834,119.96 M449.292,126.005 Q450.529,123.257 452.59,121.746 453.689,120.922 455.338,119.96 M395.431,97.426 Q393.576,100.105 382.584,119.616 375.302,132.601 366.852,139.745 M462.482,139.196 Q465.505,138.852 465.711,138.715 465.986,138.509 466.879,137.547 M455.887,151.837 Q457.811,151.081 458.979,150.325 459.734,149.913 460.834,149.089 M454.238,135.349 Q457.33,131.639 458.223,130.746 458.704,130.265 459.734,129.303 M464.681,154.035 Q466.261,153.691 467.154,153.279 467.841,152.936 467.978,152.936 M446.544,150.188 Q450.116,146.066 450.254,145.722 450.254,145.035 451.49,142.493 M441.598,135.898 L443.796,132.601 M459.185,165.027 Q461.108,162.622 462.551,161.523 463.856,160.493 464.131,160.081 M354.761,104.571 Q352.219,106.975 348.715,112.128 344.731,118.448 342.464,121.677 334.013,133.975 325.632,137.547 M341.57,154.585 Q330.441,164.477 322.609,171.073 307.839,183.507 301,185.912" test="Rihanna Head"/>
        <path id="Layer1_0_1_STROKES" stroke="#F0F" stroke-width="2.748" stroke-linejoin="round" stroke-linecap="round" fill="none" d="M450.529,164.546 L450.803,164.546 450.803,164.89 Q450.661,164.718 450.529,164.546 L449.704,164.546 M357.921,271.718 Q365.822,258.459 375.508,258.459 376.607,258.459 379.355,259.352 382.103,260.245 382.722,260.245 384.164,260.245 386.981,259.009 389.798,257.772 390.966,257.772 394.607,257.772 400.446,264.23 402.884,266.938 407.007,272.577 407.19,272.669 407.385,272.749 L407.11,272.749 Q407.051,272.667 407.007,272.577 403.543,271.137 398.866,268.214 396.256,266.566 392.134,266.566 390.828,266.566 388.08,267.802 385.332,268.97 382.035,268.97 378.806,268.97 376.882,267.459 374.959,265.879 372.005,265.879 369.875,265.879 364.379,269.382 361.698,271.105 358.127,273.436 360.816,277.718 366.371,281.886 374.066,287.656 381.554,287.656 389.18,287.656 394.263,284.428 394.538,284.221 407.797,273.573 406.767,277.351 400.446,286.626 392.134,298.717 385.951,298.717 374.066,298.717 368.089,293.221 362.524,288.137 357.578,273.779 357.854,273.599 358.127,273.436 358.021,273.257 357.921,273.092" test="Rihanna Head"/>
        <path id="Layer1_0_2_STROKES" stroke="#F60" stroke-width="2.748" stroke-linejoin="round" stroke-linecap="round" fill="none" d="M404.294,166.951 Q411.438,157.539 416.247,154.585 420.782,151.768 428.407,151.768 436.857,151.768 443.453,157.264 446.826,160.109 450.529,164.546" test="Rihanna Head"/>
      </g>
    </g>
  </g>
</svg>