<?xml version="1.0" encoding="utf-8"?>
<svg id="EdithAnim07" image-rendering="inherit" baseProfile="basic" version="1.1" x="0px" y="0px" width="800" height="600" xmlns="http://www.w3.org/2000/svg" xmlns:xlink="http://www.w3.org/1999/xlink">
  <g id="Rihanna-rearf303r1" overflow="visible">
    <g id="RihannaWholeBodyf29r1">
      <g id="Rihanna-Body">
        <path id="Layer3_0_1_STROKES" stroke="#F60" stroke-width="1.374" stroke-linejoin="round" stroke-linecap="round" fill="none" d="M379.577,329.833 Q382.531,331.276 388.371,333.886 393.729,336.497 399.156,339.795 407.813,345.016 423.201,360.405 423.751,360.954 418.255,346.321 411.66,328.734 411.522,321.933 411.316,312.727 411.248,312.589 411.11,311.834 408.431,309.91 406.782,308.742 401.424,307.643 396.958,306.75 396.408,305.101 395.721,302.971 396.271,302.422 396.477,302.078 399.156,300.979 400.737,300.361 403.347,302.078 405.683,303.727 406.713,302.696 407.881,301.597 408.019,298.437 408.156,294.04 408.774,292.048 409.942,288.27 410.835,287.376 411.935,286.277 413.927,287.583 416.125,288.956 420.728,295.346 425.469,302.01 428.01,307.506 430.552,313.07 435.636,336.153 440.651,358.893 440.72,364.526 440.72,364.87 441.613,375.175 442.094,380.877 440.72,382.732 439.071,384 423.339,384.312 408.294,383.625 399.5,381.358 394.622,380.121 386.241,374.419 L378.753,369.061 Q378.753,370.16 378.753,371.259 378.821,381.839 377.516,384.793 371.264,399.151 368.928,402.311 M323.93,289.987 Q323.106,293.834 321.457,301.666 318.915,308.124 311.22,311.284 307.579,312.795 296.175,316.23 287.382,318.91 283.122,321.452 280.992,322.757 279.275,324.337 273.573,329.627 270.55,334.23 267.39,338.97 265.878,344.603 264.436,350.1 265.466,360.611 266.428,370.572 268.626,376.549 268.695,376.755 268.833,376.961 270.962,382.938 274.191,393 277.764,405.953 279.275,412.96 280.374,417.838 283.603,431.165 286.214,442.845 285.801,446.28 285.389,449.852 285.389,452.119 285.321,453.699 285.458,453.837 M283.122,321.452 Q264.024,328.665 256.741,343.436 249.39,358.206 261.001,370.023 263.955,373.664 266.565,375.518 267.665,376.343 268.833,376.961 M367.554,418.044 Q366.524,418.25 365.7,418.593 364.669,419.006 363.57,419.349 362.471,419.899 361.44,420.517 360.272,421.204 359.173,421.685 358.349,422.097 357.593,422.509 L356.356,423.265 Q355.532,424.158 354.982,425.257 354.433,426.15 354.364,427.181 354.364,427.868 354.57,428.555 355.051,428.761 355.601,429.036 359.31,428.692 362.402,427.524 365.493,426.288 365.768,426.425 L369.272,424.639 Q369.478,425.051 373.463,425.189 377.379,425.257 378.684,422.166 378.478,418.731 375.867,416.464 375.867,415.158 376.485,413.991 376.485,412.823 375.524,412.204 374.699,411.655 373.806,411.174 L373.737,410.006 Q374.974,408.426 374.218,406.571 374.15,406.296 374.081,406.09 372.363,405.197 370.234,405.403 369.89,405.403 369.547,405.472 L368.722,406.365 Q365.493,406.64 362.608,407.739 361.578,408.014 360.547,408.357 358.692,408.769 357.318,409.113 356.082,409.594 354.914,410.281 353.814,410.762 352.784,411.38 351.96,411.861 351.204,412.41 350.311,413.166 349.692,414.128 349.074,414.884 349.005,415.777 349.005,416.67 349.692,417.151 350.517,417.838 351.685,418.112 353.127,418.593 361.99,414.334 L365.837,413.235 M351.822,418.731 Q350.723,418.937 349.967,419.899 349.074,420.861 348.387,421.891 348.112,422.234 347.975,422.715 347.975,423.677 348.593,424.227 349.418,424.708 350.311,425.051 351.753,425.601 353.265,424.845 354.364,424.295 355.395,423.677 355.875,423.54 356.356,423.265 M370.715,428.761 Q371.745,432.265 373.05,437.28 374.768,442.707 376.485,444.905 378.203,447.104 381.363,449.096 383.081,450.195 385.76,451.775 M378.203,356.969 Q378.684,362.946 378.753,369.061 M366.249,630.396 Q369.066,631.357 372.157,630.739 374.699,630.258 376.554,629.022 M340.83,547.956 Q342.204,554.001 347.219,586.084 351.891,616.312 352.509,622.152 M399.912,545.208 Q397.302,555.787 392.012,581.825 385.76,612.877 386.172,617.343 386.859,624.419 387.477,626.548 388.714,631.083 392.355,635.205 395.859,639.12 396.134,647.433 396.34,652.036 395.79,660.623 395.79,665.433 393.454,674.707 392.218,679.86 389.607,688.791 L385.485,703.905 M292.74,556.887 L304.282,584.779 Q316.304,614.182 318.846,621.465 M321.594,631.77 Q320.564,636.235 317.403,648.532 315.068,659.868 316.785,666.807 319.19,676.493 321.182,682.264 323.793,690.027 327.09,695.661 M332.586,631.083 L336.777,631.701 Q341.448,632.182 343.578,631.77" test="Rihanna Body"/>
      </g>
      <g id="Rihanna-Headf1r1">
        <path id="Layer2_0_1_STROKES" stroke="#F60" stroke-width="2.748" stroke-linejoin="round" stroke-linecap="round" fill="none" d="M386.788,204.804 L391.528,198.621 Q396.749,192.232 398.879,190.996 404.031,188.11 408.703,188.522 408.909,188.522 409.184,188.591 410.764,188.728 413.375,189.072 413.993,189.141 414.749,189.209 415.917,189.347 417.291,189.553 421.138,189.553 425.809,190.034 430.412,190.515 431.099,190.515 432.954,190.515 432.13,192.507 431.305,194.568 428.489,196.698 427.046,197.797 423.199,201.438 420.176,204.255 418.458,205.079 416.397,206.041 412.688,206.041 410.558,206.041 405.337,205.56 404.375,205.491 398.81,204.667 395.513,204.117 392.971,204.392 390.291,204.667 388.162,204.736 L386.788,204.804Z M286.898,232.284 Q290.058,246.505 295.485,254.2 299.539,259.833 322.965,288.756 348.728,320.426 353.674,324.754 358.964,329.357 368.307,330.25 376.345,331.006 383.696,329.014 390.91,327.09 411.451,306.549 433.092,285.046 437.076,273.71 442.366,258.665 445.045,246.849 448.755,230.773 448.48,217.926 448.343,211.399 448.824,211.468 449.167,211.468 450.198,215.659 453.152,227.475 454.732,226.994 457.961,226.033 460.64,220.811 463.8,214.491 461.877,207.484 460.503,202.537 458.511,198.553 457.068,195.736 456.587,191.751 456.106,187.904 459.816,183.439 463.526,178.836 463.32,175.057 462.976,170.042 461.946,169.286 460.159,169.149 458.511,168.874 456.312,168.531 453.358,171.897 450.954,174.576 449.923,176.981 M353.537,241.765 Q354.98,238.673 356.285,237.505 357.59,236.269 359.514,236.269 360.407,236.269 365.079,239.773 369.681,243.276 372.979,243.414 376.277,243.551 380.605,239.773 384.933,235.994 386.925,235.857 390.017,235.651 391.116,236.475 391.597,236.818 393.383,239.429 M392.902,228.643 Q395.307,229.742 396.818,232.147 398.604,234.895 397.161,237.025 M366.727,203.155 L365.766,229.399 M352.163,230.086 Q345.018,234.345 347.835,239.635" test="Rihanna Head"/>
        <path id="Layer2_0_2_STROKES" stroke="#FFF" stroke-width="2.748" stroke-linejoin="round" stroke-linecap="round" fill="none" d="M413.375,189.072 L410.627,196.492 419.145,194.018 Q419.695,195.392 419.695,197.041 419.695,200.614 417.084,203.155 414.611,205.697 410.97,205.697 407.398,205.697 404.787,203.155 402.314,200.614 402.314,197.041 402.314,193.469 404.787,190.858 406.711,189.072 409.184,188.591" test="Rihanna Head"/>
        <path id="Layer2_0_3_STROKES" stroke="#F00" stroke-width="2.748" stroke-linejoin="round" stroke-linecap="round" fill="none" d="M423.405,85.335 Q414.955,107.044 406.986,121.334 389.261,153.073 368.445,173.683 347.56,194.293 316.508,212.361 285.387,230.429 282.432,231.46 279.478,232.422 277.417,228.712 L276.112,224.384 275.013,233.727 Q273.364,236.475 271.028,234.483 266.357,230.498 262.922,206.797 258.594,177.118 259.555,168.531 260.723,157.813 272.265,131.501 283.051,106.975 293.081,94.266 300.432,84.991 308.538,80.938 317.332,76.541 319.53,76.541 317.607,75.442 314.241,75.167 307.508,74.618 300.294,78.74 296.172,81.075 296.172,80.114 296.104,79.289 299.333,76.335 307.714,68.709 317.332,64.45 327.637,59.916 339.66,57.718 351.682,55.519 359.102,56.756 366.109,57.924 375.59,61.565 384.452,65 387.131,67.198 389.055,68.847 392.284,68.503 400.116,67.748 401.97,67.748 407.398,67.748 417.016,71.183 428.076,75.099 430,75.442 445.87,78.053 448.137,80.938 448.824,81.763 447.106,81.625 444.152,81.213 441.748,81.075 431.511,80.457 423.405,85.335Z M430,95.228 Q431.855,92.755 432.817,91.861 433.298,91.312 434.397,90.281 M427.802,127.654 Q428.763,125.799 430.275,122.502 430.344,122.364 432.198,120.509 M433.298,113.364 Q437.007,111.853 438.175,111.097 439,110.548 439.343,109.517 M419.558,119.96 Q422.787,115.906 423.748,114.876 424.641,113.914 425.054,113.914 M440.992,105.67 Q443.74,105.052 445.251,104.159 446.076,103.678 447.038,102.922 M448.686,121.059 L451.434,120.509 Q452.19,120.303 452.534,119.96 M440.992,126.005 Q442.229,123.257 444.29,121.746 445.389,120.922 447.038,119.96 M387.131,97.426 Q385.276,100.105 374.284,119.616 367.002,132.601 358.552,139.745 M454.182,139.196 Q457.205,138.852 457.411,138.715 457.686,138.509 458.579,137.547 M447.587,151.837 Q449.511,151.081 450.679,150.325 451.434,149.913 452.534,149.089 M445.938,135.349 Q449.03,131.639 449.923,130.746 450.404,130.265 451.434,129.303 M456.381,154.035 Q457.961,153.691 458.854,153.279 459.541,152.936 459.678,152.936 M438.244,150.188 Q441.816,146.066 441.954,145.722 441.954,145.035 443.19,142.493 M433.298,135.898 L435.496,132.601 M450.885,165.027 Q452.808,162.622 454.251,161.523 455.556,160.493 455.831,160.081 M346.461,104.571 Q343.919,106.975 340.415,112.128 336.431,118.448 334.164,121.677 325.713,133.975 317.332,137.547 M333.27,154.585 Q322.141,164.477 314.309,171.073 299.539,183.507 293.699,185.912" test="Rihanna Head"/>
        <path id="Layer1_0_1_STROKES" stroke="#F0F" stroke-width="2.748" stroke-linejoin="round" stroke-linecap="round" fill="none" d="M442.229,164.546 L442.503,164.546 442.503,164.89 Q442.361,164.718 442.229,164.546 L441.404,164.546 M349.621,271.718 Q357.522,258.459 367.208,258.459 368.307,258.459 371.055,259.352 373.803,260.245 374.422,260.245 375.864,260.245 378.681,259.009 381.498,257.772 382.666,257.772 386.307,257.772 392.146,264.23 394.584,266.938 398.707,272.577 398.89,272.669 399.085,272.749 L398.81,272.749 Q398.751,272.667 398.707,272.577 395.243,271.137 390.566,268.214 387.956,266.566 383.834,266.566 382.528,266.566 379.78,267.802 377.032,268.97 373.735,268.97 370.506,268.97 368.582,267.459 366.659,265.879 363.705,265.879 361.575,265.879 356.079,269.382 353.398,271.105 349.827,273.436 352.516,277.718 358.071,281.886 365.766,287.656 373.254,287.656 380.88,287.656 385.963,284.428 386.238,284.221 399.497,273.573 398.467,277.351 392.146,286.626 383.834,298.717 377.651,298.717 365.766,298.717 359.789,293.221 354.224,288.137 349.278,273.779 349.554,273.599 349.827,273.436 349.721,273.257 349.621,273.092" test="Rihanna Head"/>
        <path id="Layer1_0_2_STROKES" stroke="#F60" stroke-width="2.748" stroke-linejoin="round" stroke-linecap="round" fill="none" d="M395.994,166.951 Q403.138,157.539 407.947,154.585 412.482,151.768 420.107,151.768 428.557,151.768 435.153,157.264 438.526,160.109 442.229,164.546" test="Rihanna Head"/>
      </g>
    </g>
  </g>
</svg>