<?xml version="1.0" encoding="utf-8"?>
<svg id="EdithAnim07" image-rendering="inherit" baseProfile="basic" version="1.1" x="0px" y="0px" width="800" height="600" xmlns="http://www.w3.org/2000/svg" xmlns:xlink="http://www.w3.org/1999/xlink">
  <g id="Rihanna-rearf304r1" overflow="visible">
    <g id="RihannaWholeBodyf29r1">
      <g id="Rihanna-Body">
        <path id="Layer3_0_1_STROKES" stroke="#F60" stroke-width="1.374" stroke-linejoin="round" stroke-linecap="round" fill="none" d="M370.577,329.833 Q373.531,331.276 379.371,333.886 384.729,336.497 390.156,339.795 398.813,345.016 414.201,360.405 414.751,360.954 409.255,346.321 402.66,328.734 402.522,321.933 402.316,312.727 402.248,312.589 402.11,311.834 399.431,309.91 397.782,308.742 392.424,307.643 387.958,306.75 387.408,305.101 386.721,302.971 387.271,302.422 387.477,302.078 390.156,300.979 391.737,300.361 394.347,302.078 396.683,303.727 397.713,302.696 398.881,301.597 399.019,298.437 399.156,294.04 399.774,292.048 400.942,288.27 401.835,287.376 402.935,286.277 404.927,287.583 407.125,288.956 411.728,295.346 416.469,302.01 419.01,307.506 421.552,313.07 426.636,336.153 431.651,358.893 431.72,364.526 431.72,364.87 432.613,375.175 433.094,380.877 431.72,382.732 430.071,384 414.339,384.312 399.294,383.625 390.5,381.358 385.622,380.121 377.241,374.419 L369.753,369.061 Q369.753,370.16 369.753,371.259 369.821,381.839 368.516,384.793 362.264,399.151 359.928,402.311 M314.93,289.987 Q314.106,293.834 312.457,301.666 309.915,308.124 302.22,311.284 298.579,312.795 287.175,316.23 278.382,318.91 274.122,321.452 271.992,322.757 270.275,324.337 264.573,329.627 261.55,334.23 258.39,338.97 256.878,344.603 255.436,350.1 256.466,360.611 257.428,370.572 259.626,376.549 259.695,376.755 259.833,376.961 261.962,382.938 265.191,393 268.764,405.953 270.275,412.96 271.374,417.838 274.603,431.165 277.214,442.845 276.801,446.28 276.389,449.852 276.389,452.119 276.321,453.699 276.458,453.837 M274.122,321.452 Q255.024,328.665 247.741,343.436 240.39,358.206 252.001,370.023 254.955,373.664 257.565,375.518 258.665,376.343 259.833,376.961 M358.554,418.044 Q357.524,418.25 356.7,418.593 355.669,419.006 354.57,419.349 353.471,419.899 352.44,420.517 351.272,421.204 350.173,421.685 349.349,422.097 348.593,422.509 L347.356,423.265 Q346.532,424.158 345.982,425.257 345.433,426.15 345.364,427.181 345.364,427.868 345.57,428.555 346.051,428.761 346.601,429.036 350.31,428.692 353.402,427.524 356.493,426.288 356.768,426.425 L360.272,424.639 Q360.478,425.051 364.463,425.189 368.379,425.257 369.684,422.166 369.478,418.731 366.867,416.464 366.867,415.158 367.485,413.991 367.485,412.823 366.524,412.204 365.699,411.655 364.806,411.174 L364.737,410.006 Q365.974,408.426 365.218,406.571 365.15,406.296 365.081,406.09 363.363,405.197 361.234,405.403 360.89,405.403 360.547,405.472 L359.722,406.365 Q356.493,406.64 353.608,407.739 352.578,408.014 351.547,408.357 349.692,408.769 348.318,409.113 347.082,409.594 345.914,410.281 344.814,410.762 343.784,411.38 342.96,411.861 342.204,412.41 341.311,413.166 340.692,414.128 340.074,414.884 340.005,415.777 340.005,416.67 340.692,417.151 341.517,417.838 342.685,418.112 344.127,418.593 352.99,414.334 L356.837,413.235 M342.822,418.731 Q341.723,418.937 340.967,419.899 340.074,420.861 339.387,421.891 339.112,422.234 338.975,422.715 338.975,423.677 339.593,424.227 340.418,424.708 341.311,425.051 342.753,425.601 344.265,424.845 345.364,424.295 346.395,423.677 346.875,423.54 347.356,423.265 M361.715,428.761 Q362.745,432.265 364.05,437.28 365.768,442.707 367.485,444.905 369.203,447.104 372.363,449.096 374.081,450.195 376.76,451.775 M369.203,356.969 Q369.684,362.946 369.753,369.061 M357.249,630.396 Q360.066,631.357 363.157,630.739 365.699,630.258 367.554,629.022 M331.83,547.956 Q333.204,554.001 338.219,586.084 342.891,616.312 343.509,622.152 M390.912,545.208 Q388.302,555.787 383.012,581.825 376.76,612.877 377.172,617.343 377.859,624.419 378.477,626.548 379.714,631.083 383.355,635.205 386.859,639.12 387.134,647.433 387.34,652.036 386.79,660.623 386.79,665.433 384.454,674.707 383.218,679.86 380.607,688.791 L376.485,703.905 M283.74,556.887 L295.282,584.779 Q307.304,614.182 309.846,621.465 M312.594,631.77 Q311.564,636.235 308.403,648.532 306.068,659.868 307.785,666.807 310.19,676.493 312.182,682.264 314.793,690.027 318.09,695.661 M323.586,631.083 L327.777,631.701 Q332.448,632.182 334.578,631.77" test="Rihanna Body"/>
      </g>
      <g id="Rihanna-Headf1r1">
        <path id="Layer2_0_1_STROKES" stroke="#F60" stroke-width="2.748" stroke-linejoin="round" stroke-linecap="round" fill="none" d="M377.788,204.804 L382.528,198.621 Q387.749,192.232 389.879,190.996 395.031,188.11 399.703,188.522 399.909,188.522 400.184,188.591 401.764,188.728 404.375,189.072 404.993,189.141 405.749,189.209 406.917,189.347 408.291,189.553 412.138,189.553 416.809,190.034 421.412,190.515 422.099,190.515 423.954,190.515 423.13,192.507 422.305,194.568 419.489,196.698 418.046,197.797 414.199,201.438 411.176,204.255 409.458,205.079 407.397,206.041 403.688,206.041 401.558,206.041 396.337,205.56 395.375,205.491 389.81,204.667 386.513,204.117 383.971,204.392 381.291,204.667 379.162,204.736 L377.788,204.804Z M277.898,232.284 Q281.058,246.505 286.485,254.2 290.539,259.833 313.965,288.756 339.728,320.426 344.674,324.754 349.964,329.357 359.307,330.25 367.345,331.006 374.696,329.014 381.91,327.09 402.451,306.549 424.092,285.046 428.076,273.71 433.366,258.665 436.045,246.849 439.755,230.773 439.48,217.926 439.343,211.399 439.824,211.468 440.167,211.468 441.198,215.659 444.152,227.475 445.732,226.994 448.961,226.033 451.64,220.811 454.8,214.491 452.877,207.484 451.503,202.537 449.511,198.553 448.068,195.736 447.587,191.751 447.106,187.904 450.816,183.439 454.526,178.836 454.32,175.057 453.976,170.042 452.946,169.286 451.159,169.149 449.511,168.874 447.312,168.531 444.358,171.897 441.954,174.576 440.923,176.981 M344.537,241.765 Q345.98,238.673 347.285,237.505 348.59,236.269 350.514,236.269 351.407,236.269 356.079,239.773 360.681,243.276 363.979,243.414 367.277,243.551 371.605,239.773 375.933,235.994 377.925,235.857 381.017,235.651 382.116,236.475 382.597,236.818 384.383,239.429 M383.902,228.643 Q386.307,229.742 387.818,232.147 389.604,234.895 388.161,237.025 M357.727,203.155 L356.766,229.399 M343.163,230.086 Q336.018,234.345 338.835,239.635" test="Rihanna Head"/>
        <path id="Layer2_0_2_STROKES" stroke="#FFF" stroke-width="2.748" stroke-linejoin="round" stroke-linecap="round" fill="none" d="M404.375,189.072 L401.627,196.492 410.145,194.018 Q410.695,195.392 410.695,197.041 410.695,200.614 408.084,203.155 405.611,205.697 401.97,205.697 398.398,205.697 395.787,203.155 393.314,200.614 393.314,197.041 393.314,193.469 395.787,190.858 397.711,189.072 400.184,188.591" test="Rihanna Head"/>
        <path id="Layer2_0_3_STROKES" stroke="#F00" stroke-width="2.748" stroke-linejoin="round" stroke-linecap="round" fill="none" d="M414.405,85.335 Q405.955,107.044 397.986,121.334 380.261,153.073 359.445,173.683 338.56,194.293 307.508,212.361 276.387,230.429 273.432,231.46 270.478,232.422 268.417,228.712 L267.112,224.384 266.013,233.727 Q264.364,236.475 262.028,234.483 257.357,230.498 253.922,206.797 249.594,177.118 250.555,168.531 251.723,157.813 263.265,131.501 274.051,106.975 284.081,94.266 291.432,84.991 299.538,80.938 308.332,76.541 310.53,76.541 308.607,75.442 305.241,75.167 298.508,74.618 291.294,78.74 287.172,81.075 287.172,80.114 287.104,79.289 290.333,76.335 298.714,68.709 308.332,64.45 318.637,59.916 330.66,57.718 342.682,55.519 350.102,56.756 357.109,57.924 366.59,61.565 375.452,65 378.131,67.198 380.055,68.847 383.284,68.503 391.116,67.748 392.97,67.748 398.398,67.748 408.016,71.183 419.076,75.099 421,75.442 436.87,78.053 439.137,80.938 439.824,81.763 438.106,81.625 435.152,81.213 432.748,81.075 422.511,80.457 414.405,85.335Z M421,95.228 Q422.855,92.755 423.817,91.861 424.298,91.312 425.397,90.281 M418.802,127.654 Q419.763,125.799 421.275,122.502 421.344,122.364 423.198,120.509 M424.298,113.364 Q428.007,111.853 429.175,111.097 430,110.548 430.343,109.517 M410.558,119.96 Q413.787,115.906 414.748,114.876 415.641,113.914 416.054,113.914 M431.992,105.67 Q434.74,105.052 436.251,104.159 437.076,103.678 438.038,102.922 M439.686,121.059 L442.434,120.509 Q443.19,120.303 443.534,119.96 M431.992,126.005 Q433.229,123.257 435.29,121.746 436.389,120.922 438.038,119.96 M378.131,97.426 Q376.276,100.105 365.284,119.616 358.002,132.601 349.552,139.745 M445.182,139.196 Q448.205,138.852 448.411,138.715 448.686,138.509 449.579,137.547 M438.587,151.837 Q440.511,151.081 441.679,150.325 442.434,149.913 443.534,149.089 M436.938,135.349 Q440.03,131.639 440.923,130.746 441.404,130.265 442.434,129.303 M447.381,154.035 Q448.961,153.691 449.854,153.279 450.541,152.936 450.678,152.936 M429.244,150.188 Q432.816,146.066 432.954,145.722 432.954,145.035 434.19,142.493 M424.298,135.898 L426.496,132.601 M441.885,165.027 Q443.808,162.622 445.251,161.523 446.556,160.493 446.831,160.081 M337.461,104.571 Q334.919,106.975 331.415,112.128 327.431,118.448 325.164,121.677 316.713,133.975 308.332,137.547 M324.27,154.585 Q313.141,164.477 305.309,171.073 290.539,183.507 284.699,185.912" test="Rihanna Head"/>
        <path id="Layer1_0_1_STROKES" stroke="#F0F" stroke-width="2.748" stroke-linejoin="round" stroke-linecap="round" fill="none" d="M433.229,164.546 L433.503,164.546 433.503,164.89 Q433.361,164.718 433.229,164.546 L432.404,164.546 M340.621,271.718 Q348.522,258.459 358.208,258.459 359.307,258.459 362.055,259.352 364.803,260.245 365.422,260.245 366.864,260.245 369.681,259.009 372.498,257.772 373.666,257.772 377.307,257.772 383.146,264.23 385.584,266.938 389.707,272.577 389.89,272.669 390.085,272.749 L389.81,272.749 Q389.751,272.667 389.707,272.577 386.243,271.137 381.566,268.214 378.956,266.566 374.834,266.566 373.528,266.566 370.78,267.802 368.032,268.97 364.735,268.97 361.506,268.97 359.582,267.459 357.659,265.879 354.705,265.879 352.575,265.879 347.079,269.382 344.398,271.105 340.827,273.436 343.516,277.718 349.071,281.886 356.766,287.656 364.254,287.656 371.88,287.656 376.963,284.428 377.238,284.221 390.497,273.573 389.467,277.351 383.146,286.626 374.834,298.717 368.651,298.717 356.766,298.717 350.789,293.221 345.224,288.137 340.278,273.779 340.554,273.599 340.827,273.436 340.721,273.257 340.621,273.092" test="Rihanna Head"/>
        <path id="Layer1_0_2_STROKES" stroke="#F60" stroke-width="2.748" stroke-linejoin="round" stroke-linecap="round" fill="none" d="M386.994,166.951 Q394.138,157.539 398.947,154.585 403.482,151.768 411.107,151.768 419.557,151.768 426.153,157.264 429.526,160.109 433.229,164.546" test="Rihanna Head"/>
      </g>
    </g>
  </g>
</svg>