<?xml version="1.0" encoding="utf-8"?>
<svg id="EdithAnim07" image-rendering="inherit" baseProfile="basic" version="1.1" x="0px" y="0px" width="800" height="600" xmlns="http://www.w3.org/2000/svg" xmlns:xlink="http://www.w3.org/1999/xlink">
  <g id="Rihanna-rearf305r1" overflow="visible">
    <g id="RihannaWholeBodyf29r1">
      <g id="Rihanna-Body">
        <path id="Layer3_0_1_STROKES" stroke="#F60" stroke-width="1.374" stroke-linejoin="round" stroke-linecap="round" fill="none" d="M360.827,329.833 Q363.781,331.276 369.621,333.886 374.979,336.497 380.406,339.795 389.063,345.016 404.451,360.405 405.001,360.954 399.505,346.321 392.91,328.734 392.772,321.933 392.566,312.727 392.498,312.589 392.36,311.834 389.681,309.91 388.032,308.742 382.674,307.643 378.208,306.75 377.658,305.101 376.971,302.971 377.521,302.422 377.727,302.078 380.406,300.979 381.987,300.361 384.597,302.078 386.933,303.727 387.963,302.696 389.131,301.597 389.269,298.437 389.406,294.04 390.024,292.048 391.192,288.27 392.085,287.376 393.185,286.277 395.177,287.583 397.375,288.956 401.978,295.346 406.719,302.01 409.26,307.506 411.802,313.07 416.886,336.153 421.901,358.893 421.97,364.526 421.97,364.87 422.863,375.175 423.344,380.877 421.97,382.732 420.321,384 404.589,384.312 389.544,383.625 380.75,381.358 375.872,380.121 367.491,374.419 L360.003,369.061 Q360.003,370.16 360.003,371.259 360.071,381.839 358.766,384.793 352.514,399.151 350.178,402.311 M305.18,289.987 Q304.356,293.834 302.707,301.666 300.165,308.124 292.47,311.284 288.829,312.795 277.425,316.23 268.632,318.91 264.372,321.452 262.242,322.757 260.525,324.337 254.823,329.627 251.8,334.23 248.64,338.97 247.128,344.603 245.686,350.1 246.716,360.611 247.678,370.572 249.876,376.549 249.945,376.755 250.083,376.961 252.212,382.938 255.441,393 259.014,405.953 260.525,412.96 261.624,417.838 264.853,431.165 267.464,442.845 267.051,446.28 266.639,449.852 266.639,452.119 266.571,453.699 266.708,453.837 M264.372,321.452 Q245.274,328.665 237.991,343.436 230.64,358.206 242.251,370.023 245.205,373.664 247.815,375.518 248.915,376.343 250.083,376.961 M348.804,418.044 Q347.774,418.25 346.95,418.593 345.919,419.006 344.82,419.349 343.721,419.899 342.69,420.517 341.522,421.204 340.423,421.685 339.599,422.097 338.843,422.509 L337.606,423.265 Q336.782,424.158 336.232,425.257 335.683,426.15 335.614,427.181 335.614,427.868 335.82,428.555 336.301,428.761 336.851,429.036 340.56,428.692 343.652,427.524 346.743,426.288 347.018,426.425 L350.522,424.639 Q350.728,425.051 354.713,425.189 358.629,425.257 359.934,422.166 359.728,418.731 357.117,416.464 357.117,415.158 357.735,413.991 357.735,412.823 356.774,412.204 355.949,411.655 355.056,411.174 L354.987,410.006 Q356.224,408.426 355.468,406.571 355.4,406.296 355.331,406.09 353.613,405.197 351.484,405.403 351.14,405.403 350.797,405.472 L349.972,406.365 Q346.743,406.64 343.858,407.739 342.828,408.014 341.797,408.357 339.942,408.769 338.568,409.113 337.332,409.594 336.164,410.281 335.064,410.762 334.034,411.38 333.21,411.861 332.454,412.41 331.561,413.166 330.942,414.128 330.324,414.884 330.255,415.777 330.255,416.67 330.942,417.151 331.767,417.838 332.935,418.112 334.377,418.593 343.24,414.334 L347.087,413.235 M333.072,418.731 Q331.973,418.937 331.217,419.899 330.324,420.861 329.637,421.891 329.362,422.234 329.225,422.715 329.225,423.677 329.843,424.227 330.668,424.708 331.561,425.051 333.003,425.601 334.515,424.845 335.614,424.295 336.645,423.677 337.125,423.54 337.606,423.265 M351.965,428.761 Q352.995,432.265 354.3,437.28 356.018,442.707 357.735,444.905 359.453,447.104 362.613,449.096 364.331,450.195 367.01,451.775 M359.453,356.969 Q359.934,362.946 360.003,369.061 M347.499,630.396 Q350.316,631.357 353.407,630.739 355.949,630.258 357.804,629.022 M322.08,547.956 Q323.454,554.001 328.469,586.084 333.141,616.312 333.759,622.152 M381.162,545.208 Q378.552,555.787 373.262,581.825 367.01,612.877 367.422,617.343 368.109,624.419 368.727,626.548 369.964,631.083 373.605,635.205 377.109,639.12 377.384,647.433 377.59,652.036 377.04,660.623 377.04,665.433 374.704,674.707 373.468,679.86 370.857,688.791 L366.735,703.905 M273.99,556.887 L285.532,584.779 Q297.554,614.182 300.096,621.465 M302.844,631.77 Q301.814,636.235 298.653,648.532 296.318,659.868 298.035,666.807 300.44,676.493 302.432,682.264 305.043,690.027 308.34,695.661 M313.836,631.083 L318.027,631.701 Q322.698,632.182 324.828,631.77" test="Rihanna Body"/>
      </g>
      <g id="Rihanna-Headf1r1">
        <path id="Layer2_0_1_STROKES" stroke="#F60" stroke-width="2.748" stroke-linejoin="round" stroke-linecap="round" fill="none" d="M368.038,204.804 L372.778,198.621 Q377,192.232 380.129,190.996 385.281,188.11 389.953,188.522 390.159,188.522 390.434,188.591 392.014,188.728 394.625,189.072 395.243,189.141 395,189.209 397.167,189.347 398.541,189.553 402.388,189.553 407.059,190.034 411.662,190.515 412.349,190.515 414.204,190.515 413.38,192.507 412.555,194.568 409.739,196.698 408.296,197.797 404.449,201.438 401.426,204.255 399.708,205.079 397.647,206.041 393.938,206.041 391.808,206.041 386.587,205.56 385.625,205.491 380.06,204.667 376.763,204.117 374.221,204.392 371.541,204.667 369.412,204.736 L368.038,204.804Z M268.148,232.284 Q271.308,246.505 276.735,254.2 280.789,259.833 304.215,288.756 329.978,320.426 334.924,324.754 340.214,329.357 349.557,330.25 357.595,331.006 364.946,329.014 372.16,327.09 392.701,306.549 414.342,285.046 418.326,273.71 423.616,258.665 426.295,246.849 430.005,230.773 429.73,217.926 429.593,211.399 430.074,211.468 430.417,211.468 431.448,215.659 434.402,227.475 435.982,226.994 439.211,226.033 441.89,220.811 445.05,214.491 443.127,207.484 441.753,202.537 439.761,198.553 438.318,195.736 437.837,191.751 437.356,187.904 441.066,183.439 444.776,178.836 444.57,175.057 444.226,170.042 443.196,169.286 441.409,169.149 439.761,168.874 437.562,168.531 434.608,171.897 432.204,174.576 431.173,176.981 M334.787,241.765 Q336.23,238.673 337.535,237.505 338.84,236.269 340.764,236.269 341.657,236.269 346.329,239.773 350.931,243.276 354.229,243.414 357.527,243.551 361.855,239.773 366.183,235.994 368.175,235.857 371.267,235.651 372.366,236.475 372.847,236.818 374.633,239.429 M374.152,228.643 Q376.557,229.742 378.068,232.147 379.854,234.895 378.411,237.025 M347.977,203.155 L347.016,229.399 M333.413,230.086 Q326.268,234.345 329.085,239.635" test="Rihanna Head"/>
        <path id="Layer2_0_2_STROKES" stroke="#FFF" stroke-width="2.748" stroke-linejoin="round" stroke-linecap="round" fill="none" d="M394.625,189.072 L391.877,196.492 400.395,194.018 Q400.945,195.392 400.945,197.041 400.945,200.614 398.334,203.155 395.861,205.697 392.22,205.697 388.648,205.697 386.037,203.155 383.564,200.614 383.564,197.041 383.564,193.469 386.037,190.858 387.961,189.072 390.434,188.591" test="Rihanna Head"/>
        <path id="Layer2_0_3_STROKES" stroke="#F00" stroke-width="2.748" stroke-linejoin="round" stroke-linecap="round" fill="none" d="M404.655,85.335 Q396.205,107.044 388.236,121.334 370.511,153.073 349.695,173.683 328.81,194.293 297.758,212.361 266.637,230.429 263.682,231.46 260.728,232.422 258.667,228.712 L257.362,224.384 256.263,233.727 Q254.614,236.475 252.278,234.483 247.607,230.498 244.172,206.797 239.844,177.118 240.805,168.531 241.973,157.813 253.515,131.501 264.301,106.975 274.331,94.266 281.682,84.991 289.788,80.938 298.582,76.541 300.78,76.541 298.857,75.442 295.491,75.167 288.758,74.618 281.544,78.74 277.422,81.075 277.422,80.114 277.354,79.289 280.583,76.335 288.964,68.709 298.582,64.45 308.887,59.916 320.91,57.718 332.932,55.519 340.352,56.756 347.359,57.924 356.84,61.565 365.702,65 368.381,67.198 370.305,68.847 373.534,68.503 381.366,67.748 383.22,67.748 388.648,67.748 398.266,71.183 409.326,75.099 411.25,75.442 427.12,78.053 429.387,80.938 430.074,81.763 428.356,81.625 425.402,81.213 422.998,81.075 412.761,80.457 404.655,85.335Z M411.25,95.228 Q413.105,92.755 414.067,91.861 414.548,91.312 415.647,90.281 M409.052,127.654 Q410.013,125.799 411.525,122.502 411.594,122.364 413.448,120.509 M414.548,113.364 Q418.257,111.853 419.425,111.097 420.25,110.548 420.593,109.517 M400.808,119.96 Q404.037,115.906 404.998,114.876 405.891,113.914 406.304,113.914 M422.242,105.67 Q424.99,105.052 426.501,104.159 427.326,103.678 428.288,102.922 M429.936,121.059 L432.684,120.509 Q433.44,120.303 433.784,119.96 M422.242,126.005 Q423.479,123.257 425.54,121.746 426.639,120.922 428.288,119.96 M368.381,97.426 Q366.526,100.105 355.534,119.616 348.252,132.601 339.802,139.745 M435.432,139.196 Q438.455,138.852 438.661,138.715 438.936,138.509 439.829,137.547 M428.837,151.837 Q430.761,151.081 431.929,150.325 432.684,149.913 433.784,149.089 M427.188,135.349 Q430.28,131.639 431.173,130.746 431.654,130.265 432.684,129.303 M437.631,154.035 Q439.211,153.691 440.104,153.279 440.791,152.936 440.928,152.936 M419.494,150.188 Q423.066,146.066 423.204,145.722 423.204,145.035 424.44,142.493 M414.548,135.898 L416.746,132.601 M432.135,165.027 Q434.058,162.622 435.501,161.523 436.806,160.493 437.081,160.081 M327.711,104.571 Q325.169,106.975 321.665,112.128 317.681,118.448 315.414,121.677 306.963,133.975 298.582,137.547 M314.52,154.585 Q303.391,164.477 295.559,171.073 280.789,183.507 274.949,185.912" test="Rihanna Head"/>
        <path id="Layer1_0_1_STROKES" stroke="#F0F" stroke-width="2.748" stroke-linejoin="round" stroke-linecap="round" fill="none" d="M423.479,164.546 L423.753,164.546 423.753,164.89 Q423.611,164.718 423.479,164.546 L422.654,164.546 M330.871,271.718 Q338.772,258.459 348.458,258.459 349.557,258.459 352.305,259.352 355.053,260.245 355.672,260.245 357.114,260.245 359.931,259.009 362.748,257.772 363.916,257.772 367.557,257.772 373.396,264.23 375.834,266.938 379.957,272.577 380.14,272.669 380.335,272.749 L380.06,272.749 Q380.001,272.667 379.957,272.577 376.493,271.137 371.816,268.214 369.206,266.566 365.084,266.566 363.778,266.566 361.03,267.802 358.282,268.97 354.985,268.97 351.756,268.97 349.832,267.459 347.909,265.879 344.955,265.879 342.825,265.879 337.329,269.382 334.648,271.105 331.077,273.436 333.766,277.718 339.321,281.886 347.016,287.656 354.504,287.656 362.13,287.656 367.213,284.428 367.488,284.221 380.747,273.573 379.717,277.351 373.396,286.626 365.084,298.717 358.901,298.717 347.016,298.717 341.039,293.221 335.474,288.137 330.528,273.779 330.804,273.599 331.077,273.436 330.971,273.257 330.871,273.092" test="Rihanna Head"/>
        <path id="Layer1_0_2_STROKES" stroke="#F60" stroke-width="2.748" stroke-linejoin="round" stroke-linecap="round" fill="none" d="M377.244,166.951 Q384.388,157.539 389.197,154.585 393.732,151.768 401.357,151.768 409.807,151.768 416.403,157.264 419.776,160.109 423.479,164.546" test="Rihanna Head"/>
      </g>
    </g>
  </g>
</svg>