<?xml version="1.0" encoding="utf-8"?>
<svg id="EdithAnim07" image-rendering="inherit" baseProfile="basic" version="1.1" x="0px" y="0px" width="800" height="600" xmlns="http://www.w3.org/2000/svg" xmlns:xlink="http://www.w3.org/1999/xlink">
  <g id="Rihanna-rearf306r1" overflow="visible">
    <g id="RihannaWholeBodyf29r1">
      <g id="Rihanna-Body">
        <path id="Layer3_0_1_STROKES" stroke="#F60" stroke-width="1.374" stroke-linejoin="round" stroke-linecap="round" fill="none" d="M350.377,329.833 Q353.331,331.276 359.171,333.886 364.529,336.497 369.956,339.795 378.613,345.016 394.001,360.405 394.551,360.954 389.055,346.321 382.46,328.734 382.322,321.933 382.116,312.727 382.048,312.589 381.91,311.834 379.231,309.91 377.582,308.742 372.224,307.643 367.758,306.75 367.208,305.101 366.521,302.971 367.071,302.422 367.277,302.078 369.956,300.979 371.537,300.361 374.147,302.078 376.483,303.727 377.513,302.696 378.681,301.597 378.819,298.437 378.956,294.04 379.574,292.048 380.742,288.27 381.635,287.376 382.735,286.277 384.727,287.583 386.925,288.956 391.528,295.346 396.269,302.01 398.81,307.506 401.352,313.07 406.436,336.153 411.451,358.893 411.52,364.526 411.52,364.87 412.413,375.175 412.894,380.877 411.52,382.732 409.871,384 394.139,384.312 379.094,383.625 370.3,381.358 365.422,380.121 357.041,374.419 L349.553,369.061 Q349.553,370.16 349.553,371.259 349.621,381.839 348.316,384.793 342.064,399.151 339.728,402.311 M294.73,289.987 Q293.906,293.834 292.257,301.666 289.715,308.124 282.02,311.284 278.379,312.795 266.975,316.23 258.182,318.91 253.922,321.452 251.792,322.757 250.075,324.337 244.373,329.627 241.35,334.23 238.19,338.97 236.678,344.603 235.236,350.1 236.266,360.611 237.228,370.572 239.426,376.549 239.495,376.755 239.633,376.961 241.762,382.938 244.991,393 248.564,405.953 250.075,412.96 251.174,417.838 254.403,431.165 257.014,442.845 256.601,446.28 256.189,449.852 256.189,452.119 256.121,453.699 256.258,453.837 M253.922,321.452 Q234.824,328.665 227.541,343.436 220.19,358.206 231.801,370.023 234.755,373.664 237.365,375.518 238.465,376.343 239.633,376.961 M338.354,418.044 Q337.324,418.25 336.5,418.593 335.469,419.006 334.37,419.349 333.271,419.899 332.24,420.517 331.072,421.204 329.973,421.685 329.149,422.097 328.393,422.509 L327.156,423.265 Q326.332,424.158 325.782,425.257 325.233,426.15 325.164,427.181 325.164,427.868 325.37,428.555 325.851,428.761 326.401,429.036 330.11,428.692 333.202,427.524 336.293,426.288 336.568,426.425 L340.072,424.639 Q340.278,425.051 344.263,425.189 348.179,425.257 349.484,422.166 349.278,418.731 346.667,416.464 346.667,415.158 347.285,413.991 347.285,412.823 346.324,412.204 345.499,411.655 344.606,411.174 L344.537,410.006 Q345.774,408.426 345.018,406.571 344.95,406.296 344.881,406.09 343.163,405.197 341.034,405.403 340.69,405.403 340.347,405.472 L339.522,406.365 Q336.293,406.64 333.408,407.739 332.378,408.014 331.347,408.357 329.492,408.769 328.118,409.113 326.882,409.594 325.714,410.281 324.614,410.762 323.584,411.38 322.76,411.861 322.004,412.41 321.111,413.166 320.492,414.128 319.874,414.884 319.805,415.777 319.805,416.67 320.492,417.151 321.317,417.838 322.485,418.112 323.927,418.593 332.79,414.334 L336.637,413.235 M322.622,418.731 Q321.523,418.937 320.767,419.899 319.874,420.861 319.187,421.891 318.912,422.234 318.775,422.715 318.775,423.677 319.393,424.227 320.218,424.708 321.111,425.051 322.553,425.601 324.065,424.845 325.164,424.295 326.195,423.677 326.675,423.54 327.156,423.265 M341.515,428.761 Q342.545,432.265 343.85,437.28 345.568,442.707 347.285,444.905 349.003,447.104 352.163,449.096 353.881,450.195 356.56,451.775 M349.003,356.969 Q349.484,362.946 349.553,369.061 M337.049,630.396 Q339.866,631.357 342.957,630.739 345.499,630.258 347.354,629.022 M311.63,547.956 Q313.004,554.001 318.019,586.084 322.691,616.312 323.309,622.152 M370.712,545.208 Q368.102,555.787 362.812,581.825 356.56,612.877 356.972,617.343 357.659,624.419 358.277,626.548 359.514,631.083 363.155,635.205 366.659,639.12 366.934,647.433 367.14,652.036 366.59,660.623 366.59,665.433 364.254,674.707 363.018,679.86 360.407,688.791 L356.285,703.905 M263.54,556.887 L275.082,584.779 Q287.104,614.182 289.646,621.465 M292.394,631.77 Q291.364,636.235 288.203,648.532 285.868,659.868 287.585,666.807 289.99,676.493 291.982,682.264 294.593,690.027 297.89,695.661 M303.386,631.083 L307.577,631.701 Q312.248,632.182 314.378,631.77" test="Rihanna Body"/>
      </g>
      <g id="Rihanna-Headf1r1">
        <path id="Layer2_0_1_STROKES" stroke="#F60" stroke-width="2.748" stroke-linejoin="round" stroke-linecap="round" fill="none" d="M357.588,204.804 L362.328,198.621 Q367.549,192.232 369.679,190.996 374.831,188.11 379.503,188.522 379.709,188.522 379.984,188.591 381.564,188.728 384.175,189.072 384.793,189.141 385.549,189.209 386.717,189.347 388.091,189.553 391.938,189.553 396.609,190.034 401.212,190.515 401.899,190.515 403.754,190.515 402.93,192.507 402.105,194.568 399.289,196.698 397.846,197.797 393,201.438 390.976,204.255 389.258,205.079 387.197,206.041 383.488,206.041 381.358,206.041 376.137,205.56 375.175,205.491 369.61,204.667 366.313,204.117 363.771,204.392 361.091,204.667 358.962,204.736 L357.588,204.804Z M257.698,232.284 Q260.858,246.505 266.285,254.2 270.339,259.833 293.765,288.756 319.528,320.426 324.474,324.754 329.764,329.357 339.107,330.25 347.145,331.006 354.496,329.014 361.71,327.09 382.251,306.549 403.892,285.046 407.876,273.71 413.166,258.665 415.845,246.849 419.555,230.773 419.28,217.926 419.143,211.399 419.624,211.468 419.967,211.468 420.998,215.659 423.952,227.475 425.532,226.994 428.761,226.033 431.44,220.811 434.6,214.491 432.677,207.484 431.303,202.537 429.311,198.553 427.868,195.736 427.387,191.751 426.906,187.904 430.616,183.439 434.326,178.836 434.12,175.057 433.776,170.042 432.746,169.286 430.959,169.149 429.311,168.874 427.112,168.531 424.158,171.897 421.754,174.576 420.723,176.981 M324.337,241.765 Q325.78,238.673 327.085,237.505 328.39,236.269 330.314,236.269 331.207,236.269 335.879,239.773 340.481,243.276 343.779,243.414 347.077,243.551 351.405,239.773 355.733,235.994 357.725,235.857 360.817,235.651 361.916,236.475 362.397,236.818 364.183,239.429 M363.702,228.643 Q366.107,229.742 367.618,232.147 369.404,234.895 367.961,237.025 M337.527,203.155 L336.566,229.399 M322.963,230.086 Q315.818,234.345 318.635,239.635" test="Rihanna Head"/>
        <path id="Layer2_0_2_STROKES" stroke="#FFF" stroke-width="2.748" stroke-linejoin="round" stroke-linecap="round" fill="none" d="M384.175,189.072 L381.427,196.492 389.945,194.018 Q390.495,195.392 390.495,197.041 390.495,200.614 387.884,203.155 385.411,205.697 381.77,205.697 378.198,205.697 375.587,203.155 373.114,200.614 373.114,197.041 373.114,193.469 375.587,190.858 377.511,189.072 379.984,188.591" test="Rihanna Head"/>
        <path id="Layer2_0_3_STROKES" stroke="#F00" stroke-width="2.748" stroke-linejoin="round" stroke-linecap="round" fill="none" d="M394.205,85.335 Q385.755,107.044 377.786,121.334 360.061,153.073 339.245,173.683 318.36,194.293 287.308,212.361 256.187,230.429 253.232,231.46 250.278,232.422 248.217,228.712 L246.912,224.384 245.813,233.727 Q244.164,236.475 241.828,234.483 237.157,230.498 233.722,206.797 229.394,177.118 230.355,168.531 231.523,157.813 243.065,131.501 253.851,106.975 263.881,94.266 271.232,84.991 279.338,80.938 288.132,76.541 290.33,76.541 288.407,75.442 285.041,75.167 278.308,74.618 271.094,78.74 266.972,81.075 266.972,80.114 266.904,79.289 270.133,76.335 278.514,68.709 288.132,64.45 298.437,59.916 310.46,57.718 322.482,55.519 329.902,56.756 336.909,57.924 346.39,61.565 355.252,65 357.931,67.198 359.855,68.847 363.084,68.503 370.916,67.748 372.77,67.748 378.198,67.748 387.816,71.183 398.876,75.099 400.8,75.442 416.67,78.053 418.937,80.938 419.624,81.763 417.906,81.625 414.952,81.213 412.548,81.075 402.311,80.457 394.205,85.335Z M400.8,95.228 Q402.655,92.755 403.617,91.861 404.098,91.312 405.197,90.281 M398.602,127.654 Q399.563,125.799 401.075,122.502 401.144,122.364 402.998,120.509 M404.098,113.364 Q407.807,111.853 408.975,111.097 409.8,110.548 410.143,109.517 M390.358,119.96 Q393.587,115.906 394.548,114.876 395.441,113.914 395.854,113.914 M411.792,105.67 Q414.54,105.052 416.051,104.159 416.876,103.678 417.838,102.922 M419.486,121.059 L422.234,120.509 Q422.99,120.303 423.334,119.96 M411.792,126.005 Q413.029,123.257 415.09,121.746 416.189,120.922 417.838,119.96 M357.931,97.426 Q356.076,100.105 345.084,119.616 337.802,132.601 329.352,139.745 M424.982,139.196 Q428.005,138.852 428.211,138.715 428.486,138.509 429.379,137.547 M418.387,151.837 Q420.311,151.081 421.479,150.325 422.234,149.913 423.334,149.089 M416.738,135.349 Q419.83,131.639 420.723,130.746 421.204,130.265 422.234,129.303 M427.181,154.035 Q428.761,153.691 429.654,153.279 430.341,152.936 430.478,152.936 M409.044,150.188 Q412.616,146.066 412.754,145.722 412.754,145.035 413.99,142.493 M404.098,135.898 L406.296,132.601 M421.685,165.027 Q423.608,162.622 425.051,161.523 426.356,160.493 426.631,160.081 M317.261,104.571 Q314.719,106.975 311.215,112.128 307.231,118.448 304.964,121.677 296.513,133.975 288.132,137.547 M304.07,154.585 Q292.941,164.477 285.109,171.073 270.339,183.507 264.499,185.912" test="Rihanna Head"/>
        <path id="Layer1_0_1_STROKES" stroke="#F0F" stroke-width="2.748" stroke-linejoin="round" stroke-linecap="round" fill="none" d="M413.029,164.546 L413.303,164.546 413.303,164.89 Q413.161,164.718 413.029,164.546 L412.204,164.546 M320.421,271.718 Q328.322,258.459 338.008,258.459 339.107,258.459 341.855,259.352 344.603,260.245 345.222,260.245 346.664,260.245 349.481,259.009 352.298,257.772 353.466,257.772 357.107,257.772 362.946,264.23 365.384,266.938 369.507,272.577 369.69,272.669 369.885,272.749 L369.61,272.749 Q369.551,272.667 369.507,272.577 366.043,271.137 361.366,268.214 358.756,266.566 354.634,266.566 353.328,266.566 350.58,267.802 347.832,268.97 344.535,268.97 341.306,268.97 339.382,267.459 337.459,265.879 334.505,265.879 332.375,265.879 326.879,269.382 324.198,271.105 320.627,273.436 323.316,277.718 328.871,281.886 336.566,287.656 344.054,287.656 351.68,287.656 356.763,284.428 357.038,284.221 370.297,273.573 369.267,277.351 362.946,286.626 354.634,298.717 348.451,298.717 336.566,298.717 330.589,293.221 325.024,288.137 320.078,273.779 320.354,273.599 320.627,273.436 320.521,273.257 320.421,273.092" test="Rihanna Head"/>
        <path id="Layer1_0_2_STROKES" stroke="#F60" stroke-width="2.748" stroke-linejoin="round" stroke-linecap="round" fill="none" d="M366.794,166.951 Q373.938,157.539 378.747,154.585 383.282,151.768 390.907,151.768 399.357,151.768 405.953,157.264 409.326,160.109 413.029,164.546" test="Rihanna Head"/>
      </g>
    </g>
  </g>
</svg>