<?xml version="1.0" encoding="utf-8"?>
<svg id="EdithAnim07" image-rendering="inherit" baseProfile="basic" version="1.1" x="0px" y="0px" width="800" height="600" xmlns="http://www.w3.org/2000/svg" xmlns:xlink="http://www.w3.org/1999/xlink">
  <g id="Rihanna-rearf307r1" overflow="visible">
    <g id="RihannaWholeBodyf29r1">
      <g id="Rihanna-Body">
        <path id="Layer3_0_1_STROKES" stroke="#F60" stroke-width="1.374" stroke-linejoin="round" stroke-linecap="round" fill="none" d="M339.227,329.833 Q342.181,331.276 348.021,333.886 353.379,336.497 358.806,339.795 367.463,345.016 382.851,360.405 383.401,360.954 377.905,346.321 371.31,328.734 371.172,321.933 370.966,312.727 370.898,312.589 370.76,311.834 368.081,309.91 366.432,308.742 361.074,307.643 356.608,306.75 356.058,305.101 355.371,302.971 355.921,302.422 356.127,302.078 358.806,300.979 360.387,300.361 362.997,302.078 365.333,303.727 366.363,302.696 367.531,301.597 367.669,298.437 367.806,294.04 368.424,292.048 369.592,288.27 370.485,287.376 371.585,286.277 373.577,287.583 375.775,288.956 380.378,295.346 385.119,302.01 387.66,307.506 390.202,313.07 395.286,336.153 400.301,358.893 400.37,364.526 400.37,364.87 401.263,375.175 401.744,380.877 400.37,382.732 398.721,384 382.989,384.312 367.944,383.625 359.15,381.358 354.272,380.121 345.891,374.419 L338.403,369.061 Q338.403,370.16 338.403,371.259 338.471,381.839 337.166,384.793 330.914,399.151 328.578,402.311 M283.58,289.987 Q282.756,293.834 281.107,301.666 278.565,308.124 270.87,311.284 267.229,312.795 255.825,316.23 247.032,318.91 242.772,321.452 240.642,322.757 238.925,324.337 233.223,329.627 230.2,334.23 227.04,338.97 225.528,344.603 224.086,350.1 225.116,360.611 226.078,370.572 228.276,376.549 228.345,376.755 228.483,376.961 230.612,382.938 233.841,393 237.414,405.953 238.925,412.96 240.024,417.838 243.253,431.165 245.864,442.845 245.451,446.28 245.039,449.852 245.039,452.119 244.971,453.699 245.108,453.837 M242.772,321.452 Q223.674,328.665 216.391,343.436 209.04,358.206 220.651,370.023 223.605,373.664 226.215,375.518 227.315,376.343 228.483,376.961 M327.204,418.044 Q326.174,418.25 325.35,418.593 324.319,419.006 323.22,419.349 322.121,419.899 321.09,420.517 319.922,421.204 318.823,421.685 317,422.097 317.243,422.509 L316.006,423.265 Q315.182,424.158 314.632,425.257 314.083,426.15 314.014,427.181 314.014,427.868 314.22,428.555 314.701,428.761 315.251,429.036 318.96,428.692 322.052,427.524 325.143,426.288 325.418,426.425 L328.922,424.639 Q329.128,425.051 333.113,425.189 337.029,425.257 338.334,422.166 338.128,418.731 335.517,416.464 335.517,415.158 336.135,413.991 336.135,412.823 335.174,412.204 334.349,411.655 333.456,411.174 L333.387,410.006 Q334.624,408.426 333.868,406.571 333.8,406.296 333.731,406.09 332.013,405.197 329.884,405.403 329.54,405.403 329.197,405.472 L328.372,406.365 Q325.143,406.64 322.258,407.739 321.228,408.014 320.197,408.357 318.342,408.769 316.968,409.113 315.732,409.594 314.564,410.281 313.464,410.762 312.434,411.38 311.61,411.861 310.854,412.41 309.961,413.166 309.342,414.128 308.724,414.884 308.655,415.777 308.655,416.67 309.342,417.151 310.167,417.838 311.335,418.112 312.777,418.593 321.64,414.334 L325.487,413.235 M311.472,418.731 Q310.373,418.937 309.617,419.899 308.724,420.861 308.037,421.891 307.762,422.234 307.625,422.715 307.625,423.677 308.243,424.227 309.068,424.708 309.961,425.051 311.403,425.601 312.915,424.845 314.014,424.295 315.045,423.677 315.525,423.54 316.006,423.265 M330.365,428.761 Q331.395,432.265 332.7,437.28 334.418,442.707 336.135,444.905 337.853,447.104 341.013,449.096 342.731,450.195 345.41,451.775 M337.853,356.969 Q338.334,362.946 338.403,369.061 M325.899,630.396 Q328.716,631.357 331.807,630.739 334.349,630.258 336.204,629.022 M300.48,547.956 Q301.854,554.001 306.869,586.084 311.541,616.312 312.159,622.152 M359.562,545.208 Q356.952,555.787 351.662,581.825 345.41,612.877 345.822,617.343 346.509,624.419 347.127,626.548 348.364,631.083 352.005,635.205 355.509,639.12 355.784,647.433 355.99,652.036 355.44,660.623 355.44,665.433 353.104,674.707 351.868,679.86 349.257,688.791 L345.135,703.905 M252.39,556.887 L263.932,584.779 Q275.954,614.182 278.496,621.465 M281.244,631.77 Q280.214,636.235 277.053,648.532 274.718,659.868 276.435,666.807 278.84,676.493 280.832,682.264 283.443,690.027 286.74,695.661 M292.236,631.083 L296.427,631.701 Q301.098,632.182 303.228,631.77" test="Rihanna Body"/>
      </g>
      <g id="Rihanna-Headf1r1">
        <path id="Layer2_0_1_STROKES" stroke="#F60" stroke-width="2.748" stroke-linejoin="round" stroke-linecap="round" fill="none" d="M346.438,204.804 L351.178,198.621 Q356.399,192.232 358.529,190.996 363.681,188.11 368.353,188.522 368.559,188.522 368.834,188.591 370.414,188.728 373.025,189.072 373.643,189.141 374.399,189.209 375.567,189.347 376.941,189.553 380.788,189.553 385.459,190.034 390.062,190.515 390.749,190.515 392.604,190.515 391.78,192.507 390.955,194.568 388.139,196.698 386.696,197.797 382.849,201.438 379.826,204.255 378.108,205.079 376.047,206.041 372.338,206.041 370.208,206.041 364.987,205.56 364.025,205.491 358.46,204.667 355.163,204.117 352.621,204.392 349.941,204.667 347.812,204.736 L346.438,204.804Z M246.548,232.284 Q249.708,246.505 255.135,254.2 259.189,259.833 282.615,288.756 308.378,320.426 313.324,324.754 318.614,329.357 327.957,330.25 335.995,331.006 343.346,329.014 350.56,327.09 371.101,306.549 392.742,285.046 396.726,273.71 402.016,258.665 404.695,246.849 408.405,230.773 408.13,217.926 407.993,211.399 408.474,211.468 408.817,211.468 409.848,215.659 412.802,227.475 414.382,226.994 417.611,226.033 420.29,220.811 423.45,214.491 421.527,207.484 420.153,202.537 418.161,198.553 416.718,195.736 416.237,191.751 415.756,187.904 419.466,183.439 423.176,178.836 422.97,175.057 422.626,170.042 421.596,169.286 419.809,169.149 418.161,168.874 415.962,168.531 413.008,171.897 410.604,174.576 409.573,176.981 M313.187,241.765 Q314.63,238.673 315.935,237.505 317.24,236.269 319.164,236.269 320.057,236.269 324.729,239.773 329.331,243.276 332.629,243.414 335.927,243.551 340.255,239.773 344.583,235.994 346.575,235.857 349.667,235.651 350.766,236.475 351.247,236.818 353.033,239.429 M352.552,228.643 Q354.957,229.742 356.468,232.147 358.254,234.895 356.811,237.025 M326.377,203.155 L325.416,229.399 M311.813,230.086 Q304.668,234.345 307.485,239.635" test="Rihanna Head"/>
        <path id="Layer2_0_2_STROKES" stroke="#FFF" stroke-width="2.748" stroke-linejoin="round" stroke-linecap="round" fill="none" d="M373.025,189.072 L370.277,196.492 378.795,194.018 Q379.345,195.392 379.345,197.041 379.345,200.614 376.734,203.155 374.261,205.697 370.62,205.697 367.048,205.697 364.437,203.155 361.964,200.614 361.964,197.041 361.964,193.469 364.437,190.858 366.361,189.072 368.834,188.591" test="Rihanna Head"/>
        <path id="Layer2_0_3_STROKES" stroke="#F00" stroke-width="2.748" stroke-linejoin="round" stroke-linecap="round" fill="none" d="M383.055,85.335 Q374.605,107.044 366.636,121.334 348.911,153.073 328.095,173.683 307.21,194.293 276.158,212.361 245.037,230.429 242.082,231.46 239.128,232.422 237.067,228.712 L235.762,224.384 234.663,233.727 Q233.014,236.475 230.678,234.483 226.007,230.498 222.572,206.797 218.243,177.118 219.205,168.531 220.373,157.813 231.915,131.501 242.701,106.975 252.731,94.266 260.082,84.991 268.188,80.938 276.982,76.541 279.18,76.541 277.257,75.442 273.891,75.167 267.158,74.618 259.944,78.74 255.822,81.075 255.822,80.114 255.754,79.289 258.983,76.335 267.364,68.709 276.982,64.45 287.287,59.916 299.309,57.718 311.332,55.519 318.752,56.756 325.759,57.924 335.24,61.565 344.102,65 346.781,67.198 348.705,68.847 351.934,68.503 359.766,67.748 361.62,67.748 367.048,67.748 376.666,71.183 387.726,75.099 389.65,75.442 405.52,78.053 407.787,80.938 408.474,81.763 406.756,81.625 403.802,81.213 401.398,81.075 391.161,80.457 383.055,85.335Z M389.65,95.228 Q391.505,92.755 392.467,91.861 392.948,91.312 394.047,90.281 M387.452,127.654 Q388.413,125.799 389.925,122.502 389.994,122.364 391.848,120.509 M392.948,113.364 Q396.657,111.853 397.825,111.097 398.65,110.548 398.993,109.517 M379.208,119.96 Q382.437,115.906 383.398,114.876 384.291,113.914 384.704,113.914 M400.642,105.67 Q403.39,105.052 404.901,104.159 405.726,103.678 406.688,102.922 M408.336,121.059 L411.084,120.509 Q411.84,120.303 412.184,119.96 M400.642,126.005 Q401.879,123.257 403.94,121.746 405.039,120.922 406.688,119.96 M346.781,97.426 Q344.926,100.105 333.934,119.616 326.652,132.601 318.202,139.745 M413.832,139.196 Q416.855,138.852 417.061,138.715 417.336,138.509 418.229,137.547 M407.237,151.837 Q409.161,151.081 410.329,150.325 411.084,149.913 412.184,149.089 M405.588,135.349 Q408.68,131.639 409.573,130.746 410.054,130.265 411.084,129.303 M416.031,154.035 Q417.611,153.691 418.504,153.279 419.191,152.936 419.328,152.936 M397.894,150.188 Q401.466,146.066 401.604,145.722 401.604,145.035 402.84,142.493 M392.948,135.898 L395.146,132.601 M410.535,165.027 Q412.458,162.622 413.901,161.523 415.206,160.493 415.481,160.081 M306.111,104.571 Q303.569,106.975 300.065,112.128 296.081,118.448 293.814,121.677 285.363,133.975 276.982,137.547 M292.92,154.585 Q281.791,164.477 273.959,171.073 259.189,183.507 253.349,185.912" test="Rihanna Head"/>
        <path id="Layer1_0_1_STROKES" stroke="#F0F" stroke-width="2.748" stroke-linejoin="round" stroke-linecap="round" fill="none" d="M401.879,164.546 L402.153,164.546 402.153,164.89 Q402.011,164.718 401.879,164.546 L401.054,164.546 M309.271,271.718 Q317.172,258.459 326.858,258.459 327.957,258.459 330.705,259.352 333.453,260.245 334.072,260.245 335.514,260.245 338.331,259.009 341.148,257.772 342.316,257.772 345.957,257.772 351.796,264.23 354.234,266.938 358.357,272.577 358.54,272.669 358.735,272.749 L358.46,272.749 Q358.401,272.667 358.357,272.577 354.893,271.137 350.216,268.214 347.606,266.566 343.484,266.566 342.178,266.566 339.43,267.802 336.682,268.97 333.385,268.97 330.156,268.97 328.232,267.459 326.309,265.879 323.355,265.879 321.225,265.879 315.729,269.382 313.048,271.105 309.477,273.436 312.166,277.718 317.721,281.886 325.416,287.656 332.904,287.656 340.53,287.656 345.613,284.428 345.888,284.221 359.147,273.573 358.117,277.351 351.796,286.626 343.484,298.717 337.301,298.717 325.416,298.717 319.439,293.221 313.874,288.137 308.928,273.779 309.204,273.599 309.477,273.436 309.371,273.257 309.271,273.092" test="Rihanna Head"/>
        <path id="Layer1_0_2_STROKES" stroke="#F60" stroke-width="2.748" stroke-linejoin="round" stroke-linecap="round" fill="none" d="M355.644,166.951 Q362.788,157.539 367.597,154.585 372.132,151.768 379.757,151.768 388.207,151.768 394.803,157.264 398.176,160.109 401.879,164.546" test="Rihanna Head"/>
      </g>
    </g>
  </g>
</svg>