<?xml version="1.0" encoding="utf-8"?>
<svg id="EdithAnim07" image-rendering="inherit" baseProfile="basic" version="1.1" x="0px" y="0px" width="800" height="600" xmlns="http://www.w3.org/2000/svg" xmlns:xlink="http://www.w3.org/1999/xlink">
  <g id="Rihanna-rearf310r1" overflow="visible">
    <g id="RihannaWholeBodyf29r1">
      <g id="Rihanna-Body">
        <path id="Layer3_0_1_STROKES" stroke="#F60" stroke-width="1.374" stroke-linejoin="round" stroke-linecap="round" fill="none" d="M301.377,329.833 Q304.331,331.276 310.171,333.886 315.529,336.497 320.956,339.795 329.613,345.016 345.001,360.405 345.551,360.954 340.055,346.321 333.46,328.734 333.322,321.933 333.116,312.727 333.048,312.589 332.91,311.834 330.231,309.91 328.582,308.742 323.224,307.643 318.758,306.75 318.208,305.101 317.521,302.971 318.071,302.422 318.277,302.078 320.956,300.979 322.537,300.361 325.147,302.078 327.483,303.727 328.513,302.696 329.681,301.597 329.819,298.437 329.956,294.04 330.574,292.048 331.742,288.27 332.635,287.376 333.735,286.277 335.727,287.583 337.925,288.956 342.528,295.346 347.269,302.01 349.81,307.506 352.352,313.07 357.436,336.153 362.451,358.893 362.52,364.526 362.52,364.87 363.413,375.175 363.894,380.877 362.52,382.732 360.871,384 345.139,384.312 330.094,383.625 321.3,381.358 316.422,380.121 308.041,374.419 L300.553,369.061 Q300.553,370.16 300.553,371.259 300.621,381.839 299.316,384.793 293.064,399.151 290.728,402.311 M245.73,289.987 Q244.906,293.834 243.257,301.666 240.715,308.124 233.02,311.284 229.379,312.795 217.975,316.23 209.182,318.91 204.922,321.452 202.792,322.757 201.075,324.337 195.373,329.627 192.35,334.23 189.19,338.97 187.678,344.603 186.236,350.1 187.266,360.611 188.228,370.572 190.426,376.549 190.495,376.755 190.633,376.961 192.762,382.938 195.991,393 199.564,405.953 201.075,412.96 202.174,417.838 205.403,431.165 208.014,442.845 207.601,446.28 207.189,449.852 207.189,452.119 207.121,453.699 207.258,453.837 M204.922,321.452 Q185.824,328.665 178.541,343.436 171.19,358.206 182.801,370.023 185.755,373.664 188.365,375.518 189.465,376.343 190.633,376.961 M289.354,418.044 Q288.324,418.25 287.5,418.593 286.469,419.006 285.37,419.349 284.271,419.899 283.24,420.517 282.072,421.204 280.973,421.685 280.149,422.097 279.393,422.509 L278.156,423.265 Q277.332,424.158 276.782,425.257 276.233,426.15 276.164,427.181 276.164,427.868 276.37,428.555 276.851,428.761 277.401,429.036 281.11,428.692 284.202,427.524 287.293,426.288 287.568,426.425 L291.072,424.639 Q291.278,425.051 295.263,425.189 299.179,425.257 300.484,422.166 300.278,418.731 297.667,416.464 297.667,415.158 298.285,413.991 298.285,412.823 297.324,412.204 296.499,411.655 295.606,411.174 L295.537,410.006 Q296.774,408.426 296.018,406.571 295.95,406.296 295.881,406.09 294.163,405.197 292.034,405.403 291.69,405.403 291.347,405.472 L290.522,406.365 Q287.293,406.64 284.408,407.739 283.378,408.014 282.347,408.357 280.492,408.769 279.118,409.113 277.882,409.594 276.714,410.281 275.614,410.762 274.584,411.38 273.76,411.861 273.004,412.41 272.111,413.166 271.492,414.128 270.874,414.884 270.805,415.777 270.805,416.67 271.492,417.151 272.317,417.838 273.485,418.112 274.927,418.593 283.79,414.334 L287.637,413.235 M273.622,418.731 Q272.523,418.937 271.767,419.899 270.874,420.861 270.187,421.891 269.912,422.234 269.775,422.715 269.775,423.677 270.393,424.227 271.218,424.708 272.111,425.051 273.553,425.601 275.065,424.845 276.164,424.295 277.195,423.677 277.675,423.54 278.156,423.265 M292.515,428.761 Q293.545,432.265 294.85,437.28 296.568,442.707 298.285,444.905 300.003,447.104 303.163,449.096 304.881,450.195 307.56,451.775 M300.003,356.969 Q300.484,362.946 300.553,369.061 M288.049,630.396 Q290.866,631.357 293.957,630.739 296.499,630.258 298.354,629.022 M262.63,547.956 Q264.004,554.001 269.019,586.084 273.691,616.312 274.309,622.152 M321.712,545.208 Q319.102,555.787 313.812,581.825 307.56,612.877 307.972,617.343 308.659,624.419 309.277,626.548 310.514,631.083 314.155,635.205 317.659,639.12 317.934,647.433 318.14,652.036 317.59,660.623 317.59,665.433 315.254,674.707 314.018,679.86 311.407,688.791 L307.285,703.905 M214.54,556.887 L226.082,584.779 Q238.104,614.182 240.646,621.465 M243.394,631.77 Q242.364,636.235 239.203,648.532 236.868,659.868 238.585,666.807 240.99,676.493 242.982,682.264 245.593,690.027 248.89,695.661 M254.386,631.083 L258.577,631.701 Q263.248,632.182 265.378,631.77" test="Rihanna Body"/>
      </g>
      <g id="Rihanna-Headf1r1">
        <path id="Layer2_0_1_STROKES" stroke="#F60" stroke-width="2.748" stroke-linejoin="round" stroke-linecap="round" fill="none" d="M308.588,204.804 L313.328,198.621 Q318.549,192.232 320.679,190.996 325.831,188.11 330.503,188.522 330.709,188.522 330.984,188.591 332.564,188.728 335.175,189.072 335.793,189.141 336.549,189.209 337.717,189.347 339.091,189.553 342.938,189.553 347.609,190.034 352.212,190.515 352.899,190.515 354.754,190.515 353.93,192.507 353.105,194.568 350.289,196.698 348.846,197.797 344,201.438 341.976,204.255 340.258,205.079 338.197,206.041 334.488,206.041 332.358,206.041 327.137,205.56 326.175,205.491 320.61,204.667 317.313,204.117 314.771,204.392 312.091,204.667 309.962,204.736 L308.588,204.804Z M208.698,232.284 Q211.858,246.505 217.285,254.2 221.339,259.833 244.765,288.756 270.528,320.426 275.474,324.754 280.764,329.357 290.107,330.25 298.145,331.006 305.496,329.014 312.71,327.09 333.251,306.549 354.892,285.046 358.876,273.71 364.166,258.665 366.845,246.849 370.555,230.773 370.28,217.926 370.143,211.399 370.624,211.468 370.967,211.468 371.998,215.659 374.952,227.475 376.532,226.994 379.761,226.033 382.44,220.811 385.6,214.491 383.677,207.484 382.303,202.537 380.311,198.553 378.868,195.736 378.387,191.751 377.906,187.904 381.616,183.439 385.326,178.836 385.12,175.057 384.776,170.042 383.746,169.286 381.959,169.149 380.311,168.874 378.112,168.531 375.158,171.897 372.754,174.576 371.723,176.981 M275.337,241.765 Q276.78,238.673 278.085,237.505 279.39,236.269 281.314,236.269 282.207,236.269 286.879,239.773 291.481,243.276 294.779,243.414 298.077,243.551 302.405,239.773 306.733,235.994 308.725,235.857 311.817,235.651 312.916,236.475 313.397,236.818 315.183,239.429 M314.702,228.643 Q317.107,229.742 318.618,232.147 320.404,234.895 318.961,237.025 M288.527,203.155 L287.566,229.399 M273.963,230.086 Q266.818,234.345 269.635,239.635" test="Rihanna Head"/>
        <path id="Layer2_0_2_STROKES" stroke="#FFF" stroke-width="2.748" stroke-linejoin="round" stroke-linecap="round" fill="none" d="M335.175,189.072 L332.427,196.492 340.945,194.018 Q341.495,195.392 341.495,197.041 341.495,200.614 338.884,203.155 336.411,205.697 332.77,205.697 329.198,205.697 326.587,203.155 324.114,200.614 324.114,197.041 324.114,193.469 326.587,190.858 328.511,189.072 330.984,188.591" test="Rihanna Head"/>
        <path id="Layer2_0_3_STROKES" stroke="#F00" stroke-width="2.748" stroke-linejoin="round" stroke-linecap="round" fill="none" d="M345.205,85.335 Q336.755,107.044 328.786,121.334 311.061,153.073 290.245,173.683 269.36,194.293 238.308,212.361 207.187,230.429 204.232,231.46 201.278,232.422 199.217,228.712 L197.912,224.384 196.813,233.727 Q195.164,236.475 192.828,234.483 188.157,230.498 184.722,206.797 180.394,177.118 181.355,168.531 182.523,157.813 194.065,131.501 204.851,106.975 214.881,94.266 222.232,84.991 230.338,80.938 239.132,76.541 241.33,76.541 239.407,75.442 236.041,75.167 229.308,74.618 222.094,78.74 217.972,81.075 217.972,80.114 217.904,79.289 221.133,76.335 229.514,68.709 239.132,64.45 249.437,59.916 261.46,57.718 273.482,55.519 280.902,56.756 287.909,57.924 297.39,61.565 306.252,65 308.931,67.198 310.855,68.847 314.084,68.503 321.916,67.748 323.77,67.748 329.198,67.748 338.816,71.183 349.876,75.099 351.8,75.442 367.67,78.053 369.937,80.938 370.624,81.763 368.906,81.625 365.952,81.213 363.548,81.075 353.311,80.457 345.205,85.335Z M351.8,95.228 Q353.655,92.755 354.617,91.861 355.098,91.312 356.197,90.281 M349.602,127.654 Q350.563,125.799 352.075,122.502 352.144,122.364 353.998,120.509 M355.098,113.364 Q358.807,111.853 359.975,111.097 360.8,110.548 361.143,109.517 M341.358,119.96 Q344.587,115.906 345.548,114.876 346.441,113.914 346.854,113.914 M362.792,105.67 Q365.54,105.052 367.051,104.159 367.876,103.678 368.838,102.922 M370.486,121.059 L373.234,120.509 Q373.99,120.303 374.334,119.96 M362.792,126.005 Q364.029,123.257 366.09,121.746 367.189,120.922 368.838,119.96 M308.931,97.426 Q307.076,100.105 296.084,119.616 288.802,132.601 280.352,139.745 M375.982,139.196 Q379.005,138.852 379.211,138.715 379.486,138.509 380.379,137.547 M369.387,151.837 Q371.311,151.081 372.479,150.325 373.234,149.913 374.334,149.089 M367.738,135.349 Q370.83,131.639 371.723,130.746 372.204,130.265 373.234,129.303 M378.181,154.035 Q379.761,153.691 380.654,153.279 381.341,152.936 381.478,152.936 M360.044,150.188 Q363.616,146.066 363.754,145.722 363.754,145.035 364.99,142.493 M355.098,135.898 L357.296,132.601 M372.685,165.027 Q374.608,162.622 376.051,161.523 377.356,160.493 377.631,160.081 M268.261,104.571 Q265.719,106.975 262.215,112.128 258.231,118.448 255.964,121.677 247.513,133.975 239.132,137.547 M255.07,154.585 Q243.941,164.477 236.109,171.073 221.339,183.507 215.499,185.912" test="Rihanna Head"/>
        <path id="Layer1_0_1_STROKES" stroke="#F0F" stroke-width="2.748" stroke-linejoin="round" stroke-linecap="round" fill="none" d="M364.029,164.546 L364.303,164.546 364.303,164.89 Q364.161,164.718 364.029,164.546 L363.204,164.546 M271.421,271.718 Q279.322,258.459 289.008,258.459 290.107,258.459 292.855,259.352 295.603,260.245 296.222,260.245 297.664,260.245 300.481,259.009 303.298,257.772 304.466,257.772 308.107,257.772 313.946,264.23 316.384,266.938 320.507,272.577 320.69,272.669 320.885,272.749 L320.61,272.749 Q320.551,272.667 320.507,272.577 317.043,271.137 312.366,268.214 309.756,266.566 305.634,266.566 304.328,266.566 301.58,267.802 298.832,268.97 295.535,268.97 292.306,268.97 290.382,267.459 288.459,265.879 285.505,265.879 283.375,265.879 277.879,269.382 275.198,271.105 271.627,273.436 274.316,277.718 279.871,281.886 287.566,287.656 295.054,287.656 302.68,287.656 307.763,284.428 308.038,284.221 321.297,273.573 320.267,277.351 313.946,286.626 305.634,298.717 299.451,298.717 287.566,298.717 281.589,293.221 276.024,288.137 271.078,273.779 271.354,273.599 271.627,273.436 271.521,273.257 271.421,273.092" test="Rihanna Head"/>
        <path id="Layer1_0_2_STROKES" stroke="#F60" stroke-width="2.748" stroke-linejoin="round" stroke-linecap="round" fill="none" d="M317.794,166.951 Q324.938,157.539 329.747,154.585 334.282,151.768 341.907,151.768 350.357,151.768 356.953,157.264 360.326,160.109 364.029,164.546" test="Rihanna Head"/>
      </g>
    </g>
  </g>
</svg>