<?xml version="1.0" encoding="utf-8"?>
<svg id="EdithAnim07" image-rendering="inherit" baseProfile="basic" version="1.1" x="0px" y="0px" width="800" height="600" xmlns="http://www.w3.org/2000/svg" xmlns:xlink="http://www.w3.org/1999/xlink">
  <g id="Rihanna-rearf311r1" overflow="visible">
    <g id="RihannaWholeBodyf29r1">
      <g id="Rihanna-Body">
        <path id="Layer3_0_1_STROKES" stroke="#F60" stroke-width="1.374" stroke-linejoin="round" stroke-linecap="round" fill="none" d="M287.327,329.833 Q290.281,331.276 296.121,333.886 301.479,336.497 306.906,339.795 315.563,345.016 330.951,360.405 331.501,360.954 326.005,346.321 319.41,328.734 319.272,321.933 319.066,312.727 318.998,312.589 318.86,311.834 316.181,309.91 314.532,308.742 309.174,307.643 304.708,306.75 304.158,305.101 303.471,302.971 304.021,302.422 304.227,302.078 306.906,300.979 308.487,300.361 311.097,302.078 313.433,303.727 314.463,302.696 315.631,301.597 315.769,298.437 315.906,294.04 316.524,292.048 317.692,288.27 318.585,287.376 319.685,286.277 321.677,287.583 323.875,288.956 328.478,295.346 333.219,302.01 335.76,307.506 338.302,313.07 343.386,336.153 348.401,358.893 348.47,364.526 348.47,364.87 349.363,375.175 349.844,380.877 348.47,382.732 346.821,384 331.089,384.312 316.044,383.625 307.25,381.358 302.372,380.121 293.991,374.419 L286.503,369.061 Q286.503,370.16 286.503,371.259 286.571,381.839 285.266,384.793 279.014,399.151 276.678,402.311 M231.68,289.987 Q230.856,293.834 229.207,301.666 226.665,308.124 218.97,311.284 215.329,312.795 203.925,316.23 195.132,318.91 190.872,321.452 188.742,322.757 187.025,324.337 181.323,329.627 178.3,334.23 175.14,338.97 173.628,344.603 172.186,350.1 173.216,360.611 174.178,370.572 176.376,376.549 176.445,376.755 176.583,376.961 178.712,382.938 181.941,393 185.514,405.953 187.025,412.96 188.124,417.838 191.353,431.165 193.964,442.845 193.551,446.28 193.139,449.852 193.139,452.119 193.071,453.699 193.208,453.837 M190.872,321.452 Q171.774,328.665 164.491,343.436 157.14,358.206 168.751,370.023 171.705,373.664 174.315,375.518 175.415,376.343 176.583,376.961 M275.304,418.044 Q274.274,418.25 273.45,418.593 272.419,419.006 271.32,419.349 270.221,419.899 269.19,420.517 268.022,421.204 266.923,421.685 266.099,422.097 265.343,422.509 L264.106,423.265 Q263.282,424.158 262.732,425.257 262.183,426.15 262.114,427.181 262.114,427.868 262.32,428.555 262.801,428.761 263.351,429.036 267.06,428.692 270.152,427.524 273.243,426.288 273.518,426.425 L277.022,424.639 Q277.228,425.051 281.213,425.189 285.129,425.257 286.434,422.166 286.228,418.731 283.617,416.464 283.617,415.158 284.235,413.991 284.235,412.823 283.274,412.204 282.449,411.655 281.556,411.174 L281.487,410.006 Q282.724,408.426 281.968,406.571 281.9,406.296 281.831,406.09 280.113,405.197 277.984,405.403 277.64,405.403 277.297,405.472 L276.472,406.365 Q273.243,406.64 270.358,407.739 269.328,408.014 268.297,408.357 266.442,408.769 265.068,409.113 263.832,409.594 262.664,410.281 261.564,410.762 260.534,411.38 259.71,411.861 258.954,412.41 258.061,413.166 257.442,414.128 256.824,414.884 256.755,415.777 256.755,416.67 257.442,417.151 258.267,417.838 259.435,418.112 260.877,418.593 269.74,414.334 L273.587,413.235 M259.572,418.731 Q258.473,418.937 257.717,419.899 256.824,420.861 256.137,421.891 255.862,422.234 255.725,422.715 255.725,423.677 256.343,424.227 257.168,424.708 258.061,425.051 259.503,425.601 261.015,424.845 262.114,424.295 263.145,423.677 263.625,423.54 264.106,423.265 M278.465,428.761 Q279.495,432.265 280.8,437.28 282.518,442.707 284.235,444.905 285.953,447.104 289.113,449.096 290.831,450.195 293.51,451.775 M285.953,356.969 Q286.434,362.946 286.503,369.061 M273,630.396 Q276.816,631.357 279.907,630.739 282.449,630.258 284.304,629.022 M248.58,547.956 Q249.954,554.001 254.969,586.084 259.641,616.312 260.259,622.152 M307.662,545.208 Q305.052,555.787 299.762,581.825 293.51,612.877 293.922,617.343 294.609,624.419 295.227,626.548 296.464,631.083 300.105,635.205 303.609,639.12 303.884,647.433 304.09,652.036 303.54,660.623 303.54,665.433 301.204,674.707 299.968,679.86 297.357,688.791 L293.235,703.905 M200.49,556.887 L212.032,584.779 Q224.054,614.182 226.596,621.465 M229.344,631.77 Q228.314,636.235 225.153,648.532 222.818,659.868 224.535,666.807 226.94,676.493 228.932,682.264 231.543,690.027 234.84,695.661 M240.336,631.083 L244.527,631.701 Q249.198,632.182 251.328,631.77" test="Rihanna Body"/>
      </g>
      <g id="Rihanna-Headf1r1">
        <path id="Layer2_0_1_STROKES" stroke="#F60" stroke-width="2.748" stroke-linejoin="round" stroke-linecap="round" fill="none" d="M294.538,204.804 L299.278,198.621 Q304.499,192.232 306.629,190.996 311.781,188.11 316.453,188.522 316.659,188.522 316.934,188.591 318.514,188.728 321.125,189.072 321.743,189.141 322.499,189.209 323.667,189.347 325.041,189.553 328.888,189.553 333.559,190.034 338.162,190.515 338.849,190.515 340.704,190.515 339.88,192.507 339.055,194.568 336.239,196.698 334.796,197.797 330.949,201.438 327.926,204.255 326.208,205.079 324.147,206.041 320.438,206.041 318.308,206.041 313.087,205.56 312.125,205.491 306.56,204.667 303.263,204.117 300.721,204.392 298.041,204.667 295.912,204.736 L294.538,204.804Z M194.648,232.284 Q197.808,246.505 203.235,254.2 207.289,259.833 230.715,288.756 256.478,320.426 261.424,324.754 266.714,329.357 276.057,330.25 284.095,331.006 291.446,329.014 298.66,327.09 319.201,306.549 340.842,285.046 344.826,273.71 350.116,258.665 352.795,246.849 356.505,230.773 356.23,217.926 356.093,211.399 356.574,211.468 356.917,211.468 357.948,215.659 360.902,227.475 362.482,226.994 365.711,226.033 368.39,220.811 371.55,214.491 369.627,207.484 368.253,202.537 366.261,198.553 364.818,195.736 364.337,191.751 363.856,187.904 367.566,183.439 371.276,178.836 371.07,175.057 370.726,170.042 369.696,169.286 367.909,169.149 366.261,168.874 364.062,168.531 361.108,171.897 358.704,174.576 357.673,176.981 M261.287,241.765 Q262.73,238.673 264.035,237.505 265.34,236.269 267.264,236.269 268.157,236.269 272.829,239.773 277.431,243.276 280.729,243.414 284.027,243.551 288.355,239.773 292.683,235.994 294.675,235.857 297.767,235.651 298.866,236.475 299.347,236.818 301.133,239.429 M300.652,228.643 Q303.057,229.742 304.568,232.147 306.354,234.895 304.911,237.025 M274.477,203.155 L273.516,229.399 M259.913,230.086 Q252.768,234.345 255.585,239.635" test="Rihanna Head"/>
        <path id="Layer2_0_2_STROKES" stroke="#FFF" stroke-width="2.748" stroke-linejoin="round" stroke-linecap="round" fill="none" d="M321.125,189.072 L318.377,196.492 326.895,194.018 Q327.445,195.392 327.445,197.041 327.445,200.614 324.834,203.155 322.361,205.697 318.72,205.697 315.148,205.697 312.537,203.155 310.064,200.614 310.064,197.041 310.064,193.469 312.537,190.858 314.461,189.072 316.934,188.591" test="Rihanna Head"/>
        <path id="Layer2_0_3_STROKES" stroke="#F00" stroke-width="2.748" stroke-linejoin="round" stroke-linecap="round" fill="none" d="M331.155,85.335 Q322.705,107.044 314.736,121.334 297.011,153.073 276.195,173.683 255.31,194.293 224.258,212.361 193.137,230.429 190.182,231.46 187.228,232.422 185.167,228.712 L183.862,224.384 182.763,233.727 Q181.114,236.475 178.778,234.483 174.107,230.498 170.672,206.797 166.344,177.118 167.305,168.531 168.473,157.813 180.015,131.501 190.801,106.975 200.831,94.266 208.182,84.991 216.288,80.938 225.082,76.541 227.28,76.541 225.357,75.442 221.991,75.167 215.258,74.618 208.044,78.74 203.922,81.075 203.922,80.114 203.854,79.289 207.083,76.335 215.464,68.709 225.082,64.45 235.387,59.916 247.41,57.718 259.432,55.519 266.852,56.756 273.859,57.924 283.34,61.565 292.202,65 294.881,67.198 296.805,68.847 300.034,68.503 307.866,67.748 309.72,67.748 315.148,67.748 324.766,71.183 335.826,75.099 337.75,75.442 353.62,78.053 355.887,80.938 356.574,81.763 354.856,81.625 351.902,81.213 349.498,81.075 339.261,80.457 331.155,85.335Z M337.75,95.228 Q339.605,92.755 340.567,91.861 341.048,91.312 342.147,90.281 M335.552,127.654 Q336.513,125.799 338.025,122.502 338.094,122.364 339.948,120.509 M341.048,113.364 Q344.757,111.853 345.925,111.097 346.75,110.548 347.093,109.517 M327.308,119.96 Q330.537,115.906 331.498,114.876 332.391,113.914 332.804,113.914 M348.742,105.67 Q351.49,105.052 353.001,104.159 353.826,103.678 354.788,102.922 M356.436,121.059 L359.184,120.509 Q359.94,120.303 360.284,119.96 M348.742,126.005 Q349.979,123.257 352.04,121.746 353.139,120.922 354.788,119.96 M294.881,97.426 Q293.026,100.105 282.034,119.616 274.752,132.601 266.302,139.745 M361.932,139.196 Q364.955,138.852 365.161,138.715 365.436,138.509 366.329,137.547 M355.337,151.837 Q357.261,151.081 358.429,150.325 359.184,149.913 360.284,149.089 M353.688,135.349 Q356.78,131.639 357.673,130.746 358.154,130.265 359.184,129.303 M364.131,154.035 Q365.711,153.691 366.604,153.279 367.291,152.936 367.428,152.936 M345.994,150.188 Q349.566,146.066 349.704,145.722 349.704,145.035 350.94,142.493 M341.048,135.898 L343.246,132.601 M358.635,165.027 Q360.558,162.622 362.001,161.523 363.306,160.493 363.581,160.081 M254.211,104.571 Q251.669,106.975 248.165,112.128 244.181,118.448 241.914,121.677 233.463,133.975 225.082,137.547 M241.02,154.585 Q229.891,164.477 222.059,171.073 207.289,183.507 201.449,185.912" test="Rihanna Head"/>
        <path id="Layer1_0_1_STROKES" stroke="#F0F" stroke-width="2.748" stroke-linejoin="round" stroke-linecap="round" fill="none" d="M349.979,164.546 L350.253,164.546 350.253,164.89 Q350.111,164.718 349.979,164.546 L349.154,164.546 M257.371,271.718 Q265.272,258.459 274.958,258.459 276.057,258.459 278.805,259.352 281.553,260.245 282.172,260.245 283.614,260.245 286.431,259.009 289.248,257.772 290.416,257.772 294.057,257.772 299.896,264.23 302.334,266.938 306.457,272.577 306.64,272.669 306.835,272.749 L306.56,272.749 Q306.501,272.667 306.457,272.577 302.993,271.137 298.316,268.214 295.706,266.566 291.584,266.566 290.278,266.566 287.53,267.802 284.782,268.97 281.485,268.97 278.256,268.97 276.332,267.459 274.409,265.879 271.455,265.879 269.325,265.879 263.829,269.382 261.148,271.105 257.577,273.436 260.266,277.718 265.821,281.886 273.516,287.656 281.004,287.656 288.63,287.656 293.713,284.428 293.988,284.221 307.247,273.573 306.217,277.351 299.896,286.626 291.584,298.717 285.401,298.717 273.516,298.717 267.539,293.221 261.974,288.137 257.028,273.779 257.304,273.599 257.577,273.436 257.471,273.257 257.371,273.092" test="Rihanna Head"/>
        <path id="Layer1_0_2_STROKES" stroke="#F60" stroke-width="2.748" stroke-linejoin="round" stroke-linecap="round" fill="none" d="M303.744,166.951 Q310.888,157.539 315.697,154.585 320.232,151.768 327.857,151.768 336.307,151.768 342.903,157.264 346.276,160.109 349.979,164.546" test="Rihanna Head"/>
      </g>
    </g>
  </g>
</svg>