<?xml version="1.0" encoding="utf-8"?>
<svg id="EdithAnim07" image-rendering="inherit" baseProfile="basic" version="1.1" x="0px" y="0px" width="800" height="600" xmlns="http://www.w3.org/2000/svg" xmlns:xlink="http://www.w3.org/1999/xlink">
  <g id="Rihanna-rearf315r1" overflow="visible">
    <g id="RihannaWholeBodyf29r1">
      <g id="Rihanna-Body">
        <path id="Layer3_0_1_STROKES" stroke="#F60" stroke-width="1.374" stroke-linejoin="round" stroke-linecap="round" fill="none" d="M223.877,329.833 Q226.831,331.276 232.671,333.886 238.029,336.497 243.456,339.795 252.113,345.016 267.501,360.405 268.051,360.954 262.555,346.321 255.96,328.734 255.822,321.933 255.616,312.727 255.548,312.589 255.41,311.834 252.731,309.91 251.082,308.742 245.724,307.643 241.258,306.75 240.708,305.101 240.021,302.971 240.571,302.422 240.777,302.078 243.456,300.979 245.037,300.361 247.647,302.078 249.983,303.727 251.013,302.696 252.181,301.597 252.319,298.437 252.456,294.04 253.074,292.048 254.242,288.27 255.135,287.376 256.235,286.277 258.227,287.583 260.425,288.956 265.028,295.346 269.769,302.01 272.31,307.506 274.852,313.07 279.936,336.153 284.951,358.893 285.02,364.526 285.02,364.87 285.913,375.175 286.394,380.877 285.02,382.732 283.371,384 267.639,384.312 252.594,383.625 243.8,381.358 238.922,380.121 230.541,374.419 L223.053,369.061 Q223.053,370.16 223.053,371.259 223.121,381.839 221.816,384.793 215.564,399.151 213.228,402.311 M168.23,289.987 Q167.406,293.834 165.757,301.666 163.215,308.124 155.52,311.284 151.879,312.795 140.475,316.23 131.682,318.91 127.422,321.452 125.292,322.757 123.575,324.337 117.873,329.627 114.85,334.23 111.69,338.97 110.178,344.603 108.736,350.1 109.766,360.611 110.728,370.572 112.926,376.549 112.995,376.755 113.133,376.961 115.262,382.938 118.491,393 122.064,405.953 123.575,412.96 124.674,417.838 127.903,431.165 130.514,442.845 130.101,446.28 129.689,449.852 129.689,452.119 129.621,453.699 129.758,453.837 M127.422,321.452 Q108.324,328.665 101.041,343.436 93.69,358.206 105.301,370.023 108.255,373.664 110.865,375.518 111.965,376.343 113.133,376.961 M211.854,418.044 Q210.824,418.25 210,418.593 208.969,419.006 207.87,419.349 206.771,419.899 205.74,420.517 204.572,421.204 203.473,421.685 202.649,422.097 201.893,422.509 L200.656,423.265 Q199.832,424.158 199.282,425.257 198.733,426.15 198.664,427.181 198.664,427.868 198.87,428.555 199.351,428.761 199.901,429.036 203.61,428.692 206.702,427.524 209.793,426.288 210.068,426.425 L213.572,424.639 Q213.778,425.051 217.763,425.189 221.679,425.257 222.984,422.166 222.778,418.731 220.167,416.464 220.167,415.158 220.785,413.991 220.785,412.823 219.824,412.204 218,411.655 218.106,411.174 L218.037,410.006 Q219.274,408.426 218.518,406.571 218.45,406.296 218.381,406.09 216.663,405.197 214.534,405.403 214.19,405.403 213.847,405.472 L213.022,406.365 Q209.793,406.64 206.908,407.739 205.878,408.014 204.847,408.357 202.992,408.769 201.618,409.113 200.382,409.594 199.214,410.281 198.114,410.762 197.084,411.38 196.26,411.861 195.504,412.41 194.611,413.166 193.992,414.128 193.374,414.884 193.305,415.777 193.305,416.67 193.992,417.151 194.817,417.838 195.985,418.112 197.427,418.593 206.29,414.334 L210.137,413.235 M196.122,418.731 Q195.023,418.937 194.267,419.899 193.374,420.861 192.687,421.891 192.412,422.234 192.275,422.715 192.275,423.677 192.893,424.227 193.718,424.708 194.611,425.051 196.053,425.601 197.565,424.845 198.664,424.295 199.695,423.677 200.175,423.54 200.656,423.265 M215.015,428.761 Q216.045,432.265 217.35,437.28 219.068,442.707 220.785,444.905 222.503,447.104 225.663,449.096 227.381,450.195 230.06,451.775 M222.503,356.969 Q222.984,362.946 223.053,369.061 M210.549,630.396 Q213.366,631.357 216.457,630.739 218,630.258 220.854,629.022 M185.13,547.956 Q186.504,554.001 191.519,586.084 196.191,616.312 196.809,622.152 M244.212,545.208 Q241.602,555.787 236.312,581.825 230.06,612.877 230.472,617.343 231.159,624.419 231.777,626.548 233.014,631.083 236.655,635.205 240.159,639.12 240.434,647.433 240.64,652.036 240.09,660.623 240.09,665.433 237.754,674.707 236.518,679.86 233.907,688.791 L229.785,703.905 M137.04,556.887 L148.582,584.779 Q160.604,614.182 163.146,621.465 M165.894,631.77 Q164.864,636.235 161.703,648.532 159.368,659.868 161.085,666.807 163.49,676.493 165.482,682.264 168.093,690.027 171.39,695.661 M176.886,631.083 L181.077,631.701 Q185.748,632.182 187.878,631.77" test="Rihanna Body"/>
      </g>
      <g id="Rihanna-Headf1r1">
        <path id="Layer2_0_1_STROKES" stroke="#F60" stroke-width="2.748" stroke-linejoin="round" stroke-linecap="round" fill="none" d="M231.088,204.804 L235.828,198.621 Q241.049,192.232 243.179,190.996 248.331,188.11 253.003,188.522 253.209,188.522 253.484,188.591 255.064,188.728 257.675,189.072 258.293,189.141 259.049,189.209 260.217,189.347 261.591,189.553 265.438,189.553 270.109,190.034 274.712,190.515 275.399,190.515 277.254,190.515 276.43,192.507 275.605,194.568 272.789,196.698 271.346,197.797 267.499,201.438 264.476,204.255 262.758,205.079 260.697,206.041 256.988,206.041 254.858,206.041 249.637,205.56 248.675,205.491 243.11,204.667 239.813,204.117 237.271,204.392 234.591,204.667 232.462,204.736 L231.088,204.804Z M131.198,232.284 Q134.358,246.505 139.785,254.2 143.839,259.833 167.265,288.756 193.028,320.426 197.974,324.754 203.264,329.357 212.607,330.25 220.645,331.006 227.996,329.014 235.21,327.09 255.751,306.549 277.392,285.046 281.376,273.71 286.666,258.665 289.345,246.849 293.055,230.773 292.78,217.926 292.643,211.399 293.124,211.468 293.467,211.468 294.498,215.659 297.452,227.475 299.032,226.994 302.261,226.033 304.94,220.811 308.1,214.491 306.177,207.484 304.803,202.537 302.811,198.553 301.368,195.736 300.887,191.751 300.406,187.904 304.116,183.439 307.826,178.836 307.62,175.057 307.276,170.042 306.246,169.286 304.459,169.149 302.811,168.874 300.612,168.531 297.658,171.897 295.254,174.576 294.223,176.981 M197.837,241.765 Q199.28,238.673 200.585,237.505 201.89,236.269 203.814,236.269 204.707,236.269 209.379,239.773 213.981,243.276 217.279,243.414 220.577,243.551 224.905,239.773 229.233,235.994 231.225,235.857 234.317,235.651 235.416,236.475 235.897,236.818 237.683,239.429 M237.202,228.643 Q239.606,229.742 241.118,232.147 242.904,234.895 241.461,237.025 M211.027,203.155 L210.066,229.399 M196.463,230.086 Q189.318,234.345 192.135,239.635" test="Rihanna Head"/>
        <path id="Layer2_0_2_STROKES" stroke="#FFF" stroke-width="2.748" stroke-linejoin="round" stroke-linecap="round" fill="none" d="M257.675,189.072 L254.927,196.492 263.445,194.018 Q263.995,195.392 263.995,197.041 263.995,200.614 261.384,203.155 258.911,205.697 255.27,205.697 251.698,205.697 249.087,203.155 246.614,200.614 246.614,197.041 246.614,193.469 249.087,190.858 251.011,189.072 253.484,188.591" test="Rihanna Head"/>
        <path id="Layer2_0_3_STROKES" stroke="#F00" stroke-width="2.748" stroke-linejoin="round" stroke-linecap="round" fill="none" d="M267.705,85.335 Q259.255,107.044 251.286,121.334 233.561,153.073 212.745,173.683 191.86,194.293 160.808,212.361 129.687,230.429 126.732,231.46 123.778,232.422 121.717,228.712 L120.412,224.384 119.313,233.727 Q117.664,236.475 115.328,234.483 110.657,230.498 107.222,206.797 102.893,177.118 103.855,168.531 105.023,157.813 116.565,131.501 127.351,106.975 137.381,94.266 144.732,84.991 152.838,80.938 161.632,76.541 163.83,76.541 161.907,75.442 158.54,75.167 151.808,74.618 144.594,78.74 140.472,81.075 140.472,80.114 140.404,79.289 143.633,76.335 152.014,68.709 161.632,64.45 171.937,59.916 183.96,57.718 195.982,55.519 203.402,56.756 210.409,57.924 219.89,61.565 228.752,65 231.431,67.198 233.355,68.847 236.584,68.503 244.416,67.748 246.27,67.748 251.698,67.748 261.316,71.183 272.376,75.099 274.3,75.442 290.17,78.053 292.437,80.938 293.124,81.763 291.406,81.625 288.452,81.213 286.048,81.075 275.811,80.457 267.705,85.335Z M274.3,95.228 Q276.155,92.755 277.117,91.861 277.598,91.312 278.697,90.281 M272.102,127.654 Q273.063,125.799 274.575,122.502 274.644,122.364 276.498,120.509 M277.598,113.364 Q281.307,111.853 282.475,111.097 283.3,110.548 283.643,109.517 M263.858,119.96 Q267.087,115.906 268.048,114.876 268.941,113.914 269.354,113.914 M285.292,105.67 Q288.04,105.052 289.551,104.159 290.376,103.678 291.338,102.922 M292.986,121.059 L295.734,120.509 Q296.49,120.303 296.834,119.96 M285.292,126.005 Q286.529,123.257 288.59,121.746 289.689,120.922 291.338,119.96 M231.431,97.426 Q229.576,100.105 218.584,119.616 211.302,132.601 202.852,139.745 M298.482,139.196 Q301.505,138.852 301.711,138.715 301.986,138.509 302.879,137.547 M291.887,151.837 Q293.811,151.081 294.979,150.325 295.734,149.913 296.834,149.089 M290.238,135.349 Q293.33,131.639 294.223,130.746 294.704,130.265 295.734,129.303 M300.681,154.035 Q302.261,153.691 303.154,153.279 303.841,152.936 303.978,152.936 M282.544,150.188 Q286.116,146.066 286.254,145.722 286.254,145.035 287.49,142.493 M277.598,135.898 L279.796,132.601 M295.185,165.027 Q297.108,162.622 298.551,161.523 299.856,160.493 300.131,160.081 M190.761,104.571 Q188.219,106.975 184.715,112.128 180.731,118.448 178.463,121.677 170.013,133.975 161.632,137.547 M177.57,154.585 Q166.441,164.477 158.609,171.073 143.839,183.507 137,185.912" test="Rihanna Head"/>
        <path id="Layer1_0_1_STROKES" stroke="#F0F" stroke-width="2.748" stroke-linejoin="round" stroke-linecap="round" fill="none" d="M286.529,164.546 L286.803,164.546 286.803,164.89 Q286.661,164.718 286.529,164.546 L285.704,164.546 M193.921,271.718 Q201.822,258.459 211.508,258.459 212.607,258.459 215.355,259.352 218.103,260.245 218.722,260.245 220.164,260.245 222.981,259.009 225.798,257.772 226.966,257.772 230.607,257.772 236.446,264.23 238.884,266.938 243.007,272.577 243.19,272.669 243.385,272.749 L243.11,272.749 Q243.051,272.667 243.007,272.577 239.543,271.137 234.866,268.214 232.256,266.566 228.134,266.566 226.828,266.566 224.08,267.802 221.332,268.97 218.035,268.97 214.806,268.97 212.882,267.459 210.959,265.879 208.005,265.879 205.875,265.879 200.379,269.382 197.698,271.105 194.127,273.436 196.816,277.718 202.371,281.886 210.066,287.656 217.554,287.656 225.18,287.656 230.263,284.428 230.538,284.221 243.797,273.573 242.767,277.351 236.446,286.626 228.134,298.717 221.951,298.717 210.066,298.717 204.089,293.221 198.524,288.137 193.578,273.779 193.854,273.599 194.127,273.436 194.021,273.257 193.921,273.092" test="Rihanna Head"/>
        <path id="Layer1_0_2_STROKES" stroke="#F60" stroke-width="2.748" stroke-linejoin="round" stroke-linecap="round" fill="none" d="M240.294,166.951 Q247.438,157.539 252.247,154.585 256.782,151.768 264.407,151.768 272.857,151.768 279.453,157.264 282.826,160.109 286.529,164.546" test="Rihanna Head"/>
      </g>
    </g>
  </g>
</svg>