<?xml version="1.0" encoding="utf-8"?>
<svg id="EdithAnim07" image-rendering="inherit" baseProfile="basic" version="1.1" x="0px" y="0px" width="800" height="600" xmlns="http://www.w3.org/2000/svg" xmlns:xlink="http://www.w3.org/1999/xlink">
  <g id="Rihanna-rearf316r1" overflow="visible">
    <g id="RihannaWholeBodyf29r1">
      <g id="Rihanna-Body">
        <path id="Layer3_0_1_STROKES" stroke="#F60" stroke-width="1.374" stroke-linejoin="round" stroke-linecap="round" fill="none" d="M206.227,329.833 Q209.181,331.276 215.021,333.886 220.379,336.497 225.806,339.795 234.463,345.016 249.851,360.405 250.401,360.954 244.905,346.321 238.31,328.734 238.172,321.933 237.966,312.727 237.898,312.589 237.76,311.834 235.081,309.91 233.432,308.742 228.074,307.643 223.608,306.75 223.058,305.101 222.371,302.971 222.921,302.422 223.127,302.078 225.806,300.979 227.387,300.361 229.997,302.078 232.333,303.727 233.363,302.696 234.531,301.597 234.669,298.437 234.806,294.04 235.424,292.048 236.592,288.27 237.485,287.376 238.585,286.277 240.577,287.583 242.775,288.956 247.378,295.346 252.119,302.01 254.66,307.506 257.202,313.07 262.286,336.153 267.301,358.893 267.37,364.526 267.37,364.87 268.263,375.175 268.744,380.877 267.37,382.732 265.721,384 249.989,384.312 234.944,383.625 226.15,381.358 221.272,380.121 212.891,374.419 L205.403,369.061 Q205.403,370.16 205.403,371.259 205.471,381.839 204.166,384.793 197.914,399.151 195.578,402.311 M150.58,289.987 Q149.756,293.834 148.107,301.666 145.565,308.124 137.87,311.284 134.229,312.795 122.825,316.23 114.032,318.91 109.772,321.452 107.642,322.757 105.925,324.337 100.223,329.627 97.2,334.23 94.04,338.97 92.528,344.603 91.086,350.1 92.116,360.611 93.078,370.572 95.276,376.549 95.345,376.755 95.483,376.961 97.612,382.938 100.841,393 104.414,405.953 105.925,412.96 107.024,417.838 110.253,431.165 112.864,442.845 112.451,446.28 112.039,449.852 112.039,452.119 111.971,453.699 112.108,453.837 M109.772,321.452 Q90.674,328.665 83.391,343.436 76.04,358.206 87.651,370.023 90.605,373.664 93.215,375.518 94.315,376.343 95.483,376.961 M194.204,418.044 Q193.174,418.25 192.35,418.593 191.319,419.006 190.22,419.349 189.121,419.899 188.09,420.517 186.922,421.204 185.823,421.685 184,422.097 184.243,422.509 L183.006,423.265 Q182.182,424.158 181.632,425.257 181.083,426.15 181.014,427.181 181.014,427.868 181.22,428.555 181.701,428.761 182.251,429.036 185.96,428.692 189.052,427.524 192.143,426.288 192.418,426.425 L195.922,424.639 Q196.128,425.051 200.113,425.189 204.029,425.257 205.334,422.166 205.128,418.731 202.517,416.464 202.517,415.158 203.135,413.991 203.135,412.823 202.174,412.204 201.349,411.655 200.456,411.174 L200.387,410.006 Q201.624,408.426 200.868,406.571 200.8,406.296 200.731,406.09 199.013,405.197 196.884,405.403 196.54,405.403 196.197,405.472 L195.372,406.365 Q192.143,406.64 189.258,407.739 188.228,408.014 187.197,408.357 185.342,408.769 183.968,409.113 182.732,409.594 181.564,410.281 180.464,410.762 179.434,411.38 178.61,411.861 177.854,412.41 176.961,413.166 176.342,414.128 175.724,414.884 175.655,415.777 175.655,416.67 176.342,417.151 177.167,417.838 178.335,418.112 179.777,418.593 188.64,414.334 L192.487,413.235 M178.472,418.731 Q177.373,418.937 176.617,419.899 175.724,420.861 175.037,421.891 174.762,422.234 174.625,422.715 174.625,423.677 175.243,424.227 176.068,424.708 176.961,425.051 178.403,425.601 179.915,424.845 181.014,424.295 182.045,423.677 182.525,423.54 183.006,423.265 M197.365,428.761 Q198.395,432.265 199.7,437.28 201.418,442.707 203.135,444.905 204.853,447.104 208.013,449.096 209.731,450.195 212.41,451.775 M204.853,356.969 Q205.334,362.946 205.403,369.061 M192.899,630.396 Q195.716,631.357 198.807,630.739 201.349,630.258 203.204,629.022 M167.48,547.956 Q168.854,554.001 173.869,586.084 178.541,616.312 179.159,622.152 M226.562,545.208 Q223.952,555.787 218.662,581.825 212.41,612.877 212.822,617.343 213.509,624.419 214.127,626.548 215.364,631.083 219.005,635.205 222.509,639.12 222.784,647.433 222.99,652.036 222.44,660.623 222.44,665.433 220.104,674.707 218.868,679.86 216.257,688.791 L212.135,703.905 M119.39,556.887 L130.932,584.779 Q142.954,614.182 145.496,621.465 M148.244,631.77 Q147.214,636.235 144.053,648.532 141.718,659.868 143.435,666.807 145.84,676.493 147.832,682.264 150.443,690.027 153.74,695.661 M159.236,631.083 L163.427,631.701 Q168.098,632.182 170.228,631.77" test="Rihanna Body"/>
      </g>
      <g id="Rihanna-Headf1r1">
        <path id="Layer2_0_1_STROKES" stroke="#F60" stroke-width="2.748" stroke-linejoin="round" stroke-linecap="round" fill="none" d="M213.438,204.804 L218.178,198.621 Q223.399,192.232 225.529,190.996 230.681,188.11 235.353,188.522 235.559,188.522 235.834,188.591 237.414,188.728 240.025,189.072 240.643,189.141 241.399,189.209 242.567,189.347 243.941,189.553 247.788,189.553 252.459,190.034 257.062,190.515 257.749,190.515 259.604,190.515 258.78,192.507 257.955,194.568 255.139,196.698 253.696,197.797 249.849,201.438 246.826,204.255 245.108,205.079 243.047,206.041 239.338,206.041 237.208,206.041 231.987,205.56 231.025,205.491 225.46,204.667 222.163,204.117 219.621,204.392 216.941,204.667 214.812,204.736 L213.438,204.804Z M113.548,232.284 Q116.708,246.505 122.135,254.2 126.189,259.833 149.615,288.756 175.378,320.426 180.324,324.754 185.614,329.357 194.957,330.25 202.995,331.006 210.346,329.014 217.56,327.09 238.101,306.549 259.741,285.046 263.726,273.71 269.016,258.665 271.695,246.849 275.405,230.773 275.13,217.926 274.993,211.399 275.474,211.468 275.817,211.468 276.848,215.659 279.802,227.475 281.382,226.994 284.611,226.033 287.29,220.811 290.45,214.491 288.527,207.484 287.153,202.537 285.161,198.553 283.718,195.736 283.237,191.751 282.756,187.904 286.466,183.439 290.176,178.836 289.97,175.057 289.626,170.042 288.596,169.286 286.809,169.149 285.161,168.874 282.962,168.531 280.008,171.897 277.604,174.576 276.573,176.981 M180.187,241.765 Q181.63,238.673 182.935,237.505 184.24,236.269 186.164,236.269 187.057,236.269 191.729,239.773 196.331,243.276 199.629,243.414 202.927,243.551 207.255,239.773 211.583,235.994 213.575,235.857 216.667,235.651 217.766,236.475 218.247,236.818 220.033,239.429 M219.552,228.643 Q221.957,229.742 223.468,232.147 225.254,234.895 223.811,237.025 M193.377,203.155 L192.415,229.399 M178.813,230.086 Q171.668,234.345 174.485,239.635" test="Rihanna Head"/>
        <path id="Layer2_0_2_STROKES" stroke="#FFF" stroke-width="2.748" stroke-linejoin="round" stroke-linecap="round" fill="none" d="M240.025,189.072 L237.277,196.492 245.795,194.018 Q246.345,195.392 246.345,197.041 246.345,200.614 243.734,203.155 241.261,205.697 237.62,205.697 234.048,205.697 231.437,203.155 228.964,200.614 228.964,197.041 228.964,193.469 231.437,190.858 233.361,189.072 235.834,188.591" test="Rihanna Head"/>
        <path id="Layer2_0_3_STROKES" stroke="#F00" stroke-width="2.748" stroke-linejoin="round" stroke-linecap="round" fill="none" d="M250.055,85.335 Q241.605,107.044 233.635,121.334 215.911,153.073 195.095,173.683 174.21,194.293 143.158,212.361 112.036,230.429 109.082,231.46 106.128,232.422 104.067,228.712 L102.762,224.384 101.663,233.727 Q100.014,236.475 97.678,234.483 93.007,230.498 89.572,206.797 85.243,177.118 86.205,168.531 87.373,157.813 98.915,131.501 109.701,106.975 119.731,94.266 127.082,84.991 135.188,80.938 143.982,76.541 146.18,76.541 144.257,75.442 140.89,75.167 134.158,74.618 126.944,78.74 122.822,81.075 122.822,80.114 122.754,79.289 125.983,76.335 134.364,68.709 143.982,64.45 154.287,59.916 166.31,57.718 178.332,55.519 185.752,56.756 192.759,57.924 202.24,61.565 211.102,65 213.781,67.198 215.705,68.847 218.934,68.503 226.765,67.748 228.62,67.748 234.048,67.748 243.666,71.183 254.726,75.099 256.65,75.442 272.52,78.053 274.787,80.938 275.474,81.763 273.756,81.625 270.802,81.213 268.398,81.075 258.161,80.457 250.055,85.335Z M256.65,95.228 Q258.505,92.755 259.467,91.861 259.948,91.312 261.047,90.281 M254.452,127.654 Q255.413,125.799 256.925,122.502 256.993,122.364 258.848,120.509 M259.948,113.364 Q263.657,111.853 264.825,111.097 265.65,110.548 265.993,109.517 M246.208,119.96 Q249.437,115.906 250.398,114.876 251.291,113.914 251.704,113.914 M267.642,105.67 Q270.39,105.052 271.901,104.159 272.726,103.678 273.688,102.922 M275.336,121.059 L278.084,120.509 Q278.84,120.303 279.184,119.96 M267.642,126.005 Q268.879,123.257 270.94,121.746 272.039,120.922 273.688,119.96 M213.781,97.426 Q211.926,100.105 200.934,119.616 193.652,132.601 185.202,139.745 M280.832,139.196 Q283.855,138.852 284.061,138.715 284.336,138.509 285.229,137.547 M274.237,151.837 Q276.161,151.081 277.329,150.325 278.084,149.913 279.184,149.089 M272.588,135.349 Q275.68,131.639 276.573,130.746 277.054,130.265 278.084,129.303 M283.031,154.035 Q284.611,153.691 285.504,153.279 286.191,152.936 286.328,152.936 M264.894,150.188 Q268.466,146.066 268.604,145.722 268.604,145.035 269.84,142.493 M259.948,135.898 L262.146,132.601 M277.535,165.027 Q279.458,162.622 280.901,161.523 282.206,160.493 282.481,160.081 M173.111,104.571 Q170.569,106.975 167.065,112.128 163.081,118.448 160.813,121.677 152.363,133.975 143.982,137.547 M159.92,154.585 Q148.791,164.477 140.959,171.073 126.189,183.507 120.349,185.912" test="Rihanna Head"/>
        <path id="Layer1_0_1_STROKES" stroke="#F0F" stroke-width="2.748" stroke-linejoin="round" stroke-linecap="round" fill="none" d="M268.879,164.546 L269.153,164.546 269.153,164.89 Q269.011,164.718 268.879,164.546 L268.054,164.546 M176.271,271.718 Q184.171,258.459 193.858,258.459 194.957,258.459 197.705,259.352 200.453,260.245 201.072,260.245 202.514,260.245 205.331,259.009 208.148,257.772 209.316,257.772 212.957,257.772 218.796,264.23 221.234,266.938 225.357,272.577 225.54,272.669 225.735,272.749 L225.46,272.749 Q225.401,272.667 225.357,272.577 221.893,271.137 217.216,268.214 214.606,266.566 210.484,266.566 209.178,266.566 206.43,267.802 203.682,268.97 200.385,268.97 197.156,268.97 195.232,267.459 193.309,265.879 190.355,265.879 188.225,265.879 182.729,269.382 180.048,271.105 176.477,273.436 179.166,277.718 184.721,281.886 192.415,287.656 199.904,287.656 207.529,287.656 212.613,284.428 212.888,284.221 226.147,273.573 225.117,277.351 218.796,286.626 210.484,298.717 204.301,298.717 192.415,298.717 186.439,293.221 180.874,288.137 175.927,273.779 176.204,273.599 176.477,273.436 176.371,273.257 176.271,273.092" test="Rihanna Head"/>
        <path id="Layer1_0_2_STROKES" stroke="#F60" stroke-width="2.748" stroke-linejoin="round" stroke-linecap="round" fill="none" d="M222.644,166.951 Q229.788,157.539 234.597,154.585 239.132,151.768 246.757,151.768 255.207,151.768 261.803,157.264 265.176,160.109 268.879,164.546" test="Rihanna Head"/>
      </g>
    </g>
  </g>
</svg>