<?xml version="1.0" encoding="utf-8"?>
<svg id="EdithAnim07" image-rendering="inherit" baseProfile="basic" version="1.1" x="0px" y="0px" width="800" height="600" xmlns="http://www.w3.org/2000/svg" xmlns:xlink="http://www.w3.org/1999/xlink">
  <g id="Rihanna-rearf317r1" overflow="visible">
    <g id="RihannaWholeBodyf29r1">
      <g id="Rihanna-Body">
        <path id="Layer3_0_1_STROKES" stroke="#F60" stroke-width="1.374" stroke-linejoin="round" stroke-linecap="round" fill="none" d="M187.827,329.833 Q190.781,331.276 196.621,333.886 201.979,336.497 207.406,339.795 216.063,345.016 231.451,360.405 232.001,360.954 226.505,346.321 219.91,328.734 219.772,321.933 219.566,312.727 219.498,312.589 219.36,311.834 216.681,309.91 215.032,308.742 209.674,307.643 205.208,306.75 204.658,305.101 203.971,302.971 204.521,302.422 204.727,302.078 207.406,300.979 208.987,300.361 211.597,302.078 213.933,303.727 214.963,302.696 216.131,301.597 216.269,298.437 216.406,294.04 217.024,292.048 218.192,288.27 219.085,287.376 220.185,286.277 222.177,287.583 224.375,288.956 228.978,295.346 233.719,302.01 236.26,307.506 238.802,313.07 243.886,336.153 248.901,358.893 248.97,364.526 248.97,364.87 249.863,375.175 250.344,380.877 248.97,382.732 247.321,384 231.589,384.312 216.544,383.625 207.75,381.358 202.872,380.121 194.491,374.419 L187.003,369.061 Q187.003,370.16 187.003,371.259 187.071,381.839 185.766,384.793 179.514,399.151 177.178,402.311 M132.18,289.987 Q131.356,293.834 129.707,301.666 127.165,308.124 119.47,311.284 115.829,312.795 104.425,316.23 95.632,318.91 91.372,321.452 89.242,322.757 87.525,324.337 81.823,329.627 78.8,334.23 75.64,338.97 74.128,344.603 72.686,350.1 73.716,360.611 74.678,370.572 76.876,376.549 76.945,376.755 77.083,376.961 79.212,382.938 82.441,393 86.014,405.953 87.525,412.96 88.624,417.838 91.853,431.165 94.464,442.845 94.051,446.28 93.639,449.852 93.639,452.119 93.571,453.699 93.708,453.837 M91.372,321.452 Q72.274,328.665 64.991,343.436 57.64,358.206 69.251,370.023 72.205,373.664 74.815,375.518 75.915,376.343 77.083,376.961 M175.804,418.044 Q174.774,418.25 173.95,418.593 172.919,419.006 171.82,419.349 170.721,419.899 169.69,420.517 168.522,421.204 167.423,421.685 166.599,422.097 165.843,422.509 L164.606,423.265 Q163.782,424.158 163.232,425.257 162.683,426.15 162.614,427.181 162.614,427.868 162.82,428.555 163.301,428.761 163.851,429.036 167.56,428.692 170.652,427.524 173.743,426.288 174.018,426.425 L177.522,424.639 Q177.728,425.051 181.713,425.189 185.629,425.257 186.934,422.166 186.728,418.731 184.117,416.464 184.117,415.158 184.735,413.991 184.735,412.823 183.774,412.204 182.949,411.655 182.056,411.174 L181.987,410.006 Q183.224,408.426 182.468,406.571 182.4,406.296 182.331,406.09 180.613,405.197 178.484,405.403 178.14,405.403 177.797,405.472 L176.972,406.365 Q173.743,406.64 170.858,407.739 169.828,408.014 168.797,408.357 166.942,408.769 165.568,409.113 164.332,409.594 163.164,410.281 162.064,410.762 161.034,411.38 160.21,411.861 159.454,412.41 158.561,413.166 157.942,414.128 157.324,414.884 157.255,415.777 157.255,416.67 157.942,417.151 158.767,417.838 159.935,418.112 161.377,418.593 170.24,414.334 L174.087,413.235 M160.072,418.731 Q158.973,418.937 158.217,419.899 157.324,420.861 156.637,421.891 156.362,422.234 156.225,422.715 156.225,423.677 156.843,424.227 157.668,424.708 158.561,425.051 160.003,425.601 161.515,424.845 162.614,424.295 163.645,423.677 164.125,423.54 164.606,423.265 M178.965,428.761 Q179.995,432.265 181.3,437.28 183.018,442.707 184.735,444.905 186.453,447.104 189.613,449.096 191.331,450.195 194.01,451.775 M186.453,356.969 Q186.934,362.946 187.003,369.061 M174.499,630.396 Q177.316,631.357 180.407,630.739 182.949,630.258 184.804,629.022 M149.08,547.956 Q150.454,554.001 155.469,586.084 160.141,616.312 160.759,622.152 M208.162,545.208 Q205.552,555.787 200.262,581.825 194.01,612.877 194.422,617.343 195.109,624.419 195.727,626.548 196.964,631.083 200.605,635.205 204.109,639.12 204.384,647.433 204.59,652.036 204.04,660.623 204.04,665.433 201.704,674.707 200.468,679.86 197.857,688.791 L193.735,703.905 M100.99,556.887 L112.532,584.779 Q124.554,614.182 127.096,621.465 M129.844,631.77 Q128.814,636.235 125.653,648.532 123.318,659.868 125.035,666.807 127.44,676.493 129.432,682.264 132.043,690.027 135.34,695.661 M140.836,631.083 L145.027,631.701 Q149.698,632.182 151.828,631.77" test="Rihanna Body"/>
      </g>
      <g id="Rihanna-Headf1r1">
        <path id="Layer2_0_1_STROKES" stroke="#F60" stroke-width="2.748" stroke-linejoin="round" stroke-linecap="round" fill="none" d="M195.038,204.804 L199.778,198.621 Q204,192.232 207.129,190.996 212.281,188.11 216.953,188.522 217.159,188.522 217.434,188.591 219.014,188.728 221.625,189.072 222.243,189.141 222,189.209 224.167,189.347 225.541,189.553 229.388,189.553 234.059,190.034 238.662,190.515 239.349,190.515 241.204,190.515 240.38,192.507 239.555,194.568 236.739,196.698 235.296,197.797 231.449,201.438 228.426,204.255 226.708,205.079 224.647,206.041 220.938,206.041 218.808,206.041 213.587,205.56 212.625,205.491 207.06,204.667 203.763,204.117 201.221,204.392 198.541,204.667 196.412,204.736 L195.038,204.804Z M95.148,232.284 Q98.308,246.505 103.735,254.2 107.789,259.833 131.215,288.756 156.978,320.426 161.924,324.754 167.214,329.357 176.557,330.25 184.595,331.006 191.946,329.014 199.16,327.09 219.701,306.549 241.342,285.046 245.326,273.71 250.616,258.665 253.295,246.849 257.005,230.773 256.73,217.926 256.593,211.399 257.074,211.468 257.417,211.468 258.448,215.659 261.402,227.475 262.982,226.994 266.211,226.033 268.89,220.811 272.05,214.491 270.127,207.484 268.753,202.537 266.761,198.553 265.318,195.736 264.837,191.751 264.356,187.904 268.066,183.439 271.776,178.836 271.57,175.057 271.226,170.042 270.196,169.286 268.409,169.149 266.761,168.874 264.562,168.531 261.608,171.897 259.204,174.576 258.173,176.981 M161.787,241.765 Q163.23,238.673 164.535,237.505 165.84,236.269 167.764,236.269 168.657,236.269 173.329,239.773 177.931,243.276 181.229,243.414 184.527,243.551 188.855,239.773 193.183,235.994 195.175,235.857 198.267,235.651 199.366,236.475 199.847,236.818 201.633,239.429 M201.152,228.643 Q203.557,229.742 205.068,232.147 206.854,234.895 205.411,237.025 M174.977,203.155 L174.016,229.399 M160.413,230.086 Q153.268,234.345 156.085,239.635" test="Rihanna Head"/>
        <path id="Layer2_0_2_STROKES" stroke="#FFF" stroke-width="2.748" stroke-linejoin="round" stroke-linecap="round" fill="none" d="M221.625,189.072 L218.877,196.492 227.395,194.018 Q227.945,195.392 227.945,197.041 227.945,200.614 225.334,203.155 222.861,205.697 219.22,205.697 215.648,205.697 213.037,203.155 210.564,200.614 210.564,197.041 210.564,193.469 213.037,190.858 214.961,189.072 217.434,188.591" test="Rihanna Head"/>
        <path id="Layer2_0_3_STROKES" stroke="#F00" stroke-width="2.748" stroke-linejoin="round" stroke-linecap="round" fill="none" d="M231.655,85.335 Q223.205,107.044 215.236,121.334 197.511,153.073 176.695,173.683 155.81,194.293 124.758,212.361 93.637,230.429 90.682,231.46 87.728,232.422 85.667,228.712 L84.362,224.384 83.263,233.727 Q81.614,236.475 79.278,234.483 74.607,230.498 71.172,206.797 66.844,177.118 67.805,168.531 68.973,157.813 80.515,131.501 91.301,106.975 101.331,94.266 108.682,84.991 116.788,80.938 125.582,76.541 127.78,76.541 125.857,75.442 122.491,75.167 115.758,74.618 108.544,78.74 104.422,81.075 104.422,80.114 104.354,79.289 107.583,76.335 115.964,68.709 125.582,64.45 135.887,59.916 147.91,57.718 159.932,55.519 167.352,56.756 174.359,57.924 183.84,61.565 192.702,65 195.381,67.198 197.305,68.847 200.534,68.503 208.366,67.748 210.22,67.748 215.648,67.748 225.266,71.183 236.326,75.099 238.25,75.442 254.12,78.053 256.387,80.938 257.074,81.763 255.356,81.625 252.402,81.213 249.998,81.075 239.761,80.457 231.655,85.335Z M238.25,95.228 Q240.105,92.755 241.067,91.861 241.548,91.312 242.647,90.281 M236.052,127.654 Q237.013,125.799 238.525,122.502 238.594,122.364 240.448,120.509 M241.548,113.364 Q245.257,111.853 246.425,111.097 247.25,110.548 247.593,109.517 M227.808,119.96 Q231.037,115.906 231.998,114.876 232.891,113.914 233.304,113.914 M249.242,105.67 Q251.99,105.052 253.501,104.159 254.326,103.678 255.288,102.922 M256.936,121.059 L259.684,120.509 Q260.44,120.303 260.784,119.96 M249.242,126.005 Q250.479,123.257 252.54,121.746 253.639,120.922 255.288,119.96 M195.381,97.426 Q193.526,100.105 182.534,119.616 175.252,132.601 166.802,139.745 M262.432,139.196 Q265.455,138.852 265.661,138.715 265.936,138.509 266.829,137.547 M255.837,151.837 Q257.761,151.081 258.929,150.325 259.684,149.913 260.784,149.089 M254.188,135.349 Q257.28,131.639 258.173,130.746 258.654,130.265 259.684,129.303 M264.631,154.035 Q266.211,153.691 267.104,153.279 267.791,152.936 267.928,152.936 M246.494,150.188 Q250.066,146.066 250.204,145.722 250.204,145.035 251.44,142.493 M241.548,135.898 L243.746,132.601 M259.135,165.027 Q261.058,162.622 262.501,161.523 263.806,160.493 264.081,160.081 M154.711,104.571 Q152.169,106.975 148.665,112.128 144.681,118.448 142.414,121.677 133.963,133.975 125.582,137.547 M141.52,154.585 Q130.391,164.477 122.559,171.073 107.789,183.507 101.949,185.912" test="Rihanna Head"/>
        <path id="Layer1_0_1_STROKES" stroke="#F0F" stroke-width="2.748" stroke-linejoin="round" stroke-linecap="round" fill="none" d="M250.479,164.546 L250.753,164.546 250.753,164.89 Q250.611,164.718 250.479,164.546 L249.654,164.546 M157.871,271.718 Q165.772,258.459 175.458,258.459 176.557,258.459 179.305,259.352 182.053,260.245 182.672,260.245 184.114,260.245 186.931,259.009 189.748,257.772 190.916,257.772 194.557,257.772 200.396,264.23 202.834,266.938 206.957,272.577 207.14,272.669 207.335,272.749 L207.06,272.749 Q207.001,272.667 206.957,272.577 203.493,271.137 198.816,268.214 196.206,266.566 192.084,266.566 190.778,266.566 188.03,267.802 185.282,268.97 181.985,268.97 178.756,268.97 176.832,267.459 174.909,265.879 171.955,265.879 169.825,265.879 164.329,269.382 161.648,271.105 158.077,273.436 160.766,277.718 166.321,281.886 174.016,287.656 181.504,287.656 189.13,287.656 194.213,284.428 194.488,284.221 207.747,273.573 206.717,277.351 200.396,286.626 192.084,298.717 185.901,298.717 174.016,298.717 168.039,293.221 162.474,288.137 157.528,273.779 157.804,273.599 158.077,273.436 157.971,273.257 157.871,273.092" test="Rihanna Head"/>
        <path id="Layer1_0_2_STROKES" stroke="#F60" stroke-width="2.748" stroke-linejoin="round" stroke-linecap="round" fill="none" d="M204.244,166.951 Q211.388,157.539 216.197,154.585 220.732,151.768 228.357,151.768 236.807,151.768 243.403,157.264 246.776,160.109 250.479,164.546" test="Rihanna Head"/>
      </g>
    </g>
  </g>
</svg>