<?xml version="1.0" encoding="utf-8"?>
<svg id="EdithAnim07" image-rendering="inherit" baseProfile="basic" version="1.1" x="0px" y="0px" width="800" height="600" xmlns="http://www.w3.org/2000/svg" xmlns:xlink="http://www.w3.org/1999/xlink">
  <g id="Rihanna-rearf318r1" overflow="visible">
    <g id="RihannaWholeBodyf29r1">
      <g id="Rihanna-Body">
        <path id="Layer3_0_1_STROKES" stroke="#F60" stroke-width="1.374" stroke-linejoin="round" stroke-linecap="round" fill="none" d="M168.727,329.833 Q171.681,331.276 177.521,333.886 182.879,336.497 188.306,339.795 196.963,345.016 212.351,360.405 212.901,360.954 207.405,346.321 200.81,328.734 200.672,321.933 200.466,312.727 200.398,312.589 200.26,311.834 197.581,309.91 195.932,308.742 190.574,307.643 186.108,306.75 185.558,305.101 184.871,302.971 185.421,302.422 185.627,302.078 188.306,300.979 189.887,300.361 192.497,302.078 194.833,303.727 195.863,302.696 197.031,301.597 197.169,298.437 197.306,294.04 197.924,292.048 199.092,288.27 199.985,287.376 201.085,286.277 203.077,287.583 205.275,288.956 209.878,295.346 214.619,302.01 217.16,307.506 219.702,313.07 224.786,336.153 229.801,358.893 229.87,364.526 229.87,364.87 230.763,375.175 231.244,380.877 229.87,382.732 228.221,384 212.489,384.312 197.444,383.625 188.65,381.358 183.772,380.121 175.391,374.419 L167.903,369.061 Q167.903,370.16 167.903,371.259 167.971,381.839 166.666,384.793 160.414,399.151 158.078,402.311 M113.08,289.987 Q112.256,293.834 110.607,301.666 108.065,308.124 100.37,311.284 96.729,312.795 85.325,316.23 76.532,318.91 72.272,321.452 70.142,322.757 68.425,324.337 62.723,329.627 59.7,334.23 56.54,338.97 55.028,344.603 53.586,350.1 54.616,360.611 55.578,370.572 57.776,376.549 57.845,376.755 57.983,376.961 60.112,382.938 63.341,393 66.914,405.953 68.425,412.96 69.524,417.838 72.753,431.165 75.364,442.845 74.951,446.28 74.539,449.852 74.539,452.119 74.471,453.699 74.608,453.837 M72.272,321.452 Q53.174,328.665 45.891,343.436 38.54,358.206 50.151,370.023 53.105,373.664 55.715,375.518 56.815,376.343 57.983,376.961 M156.704,418.044 Q155.674,418.25 154.85,418.593 153.819,419.006 152.72,419.349 151.621,419.899 150.59,420.517 149.422,421.204 148.323,421.685 147.499,422.097 146.743,422.509 L145.506,423.265 Q144.682,424.158 144.132,425.257 143.583,426.15 143.514,427.181 143.514,427.868 143.72,428.555 144.201,428.761 144.751,429.036 148.46,428.692 151.552,427.524 154.643,426.288 154.918,426.425 L158.422,424.639 Q158.628,425.051 162.613,425.189 166.529,425.257 167.834,422.166 167.628,418.731 165.017,416.464 165.017,415.158 165.635,413.991 165.635,412.823 164.674,412.204 163.849,411.655 162.956,411.174 L162.887,410.006 Q164.124,408.426 163.368,406.571 163.3,406.296 163.231,406.09 161.513,405.197 159.384,405.403 159.04,405.403 158.697,405.472 L157.872,406.365 Q154.643,406.64 151.758,407.739 150.728,408.014 149.697,408.357 147.842,408.769 146.468,409.113 145.232,409.594 144.064,410.281 142.964,410.762 141.934,411.38 141.11,411.861 140.354,412.41 139.461,413.166 138.842,414.128 138.224,414.884 138.155,415.777 138.155,416.67 138.842,417.151 139.667,417.838 140.835,418.112 142.277,418.593 151.14,414.334 L154.987,413.235 M140.972,418.731 Q139.873,418.937 139.117,419.899 138.224,420.861 137.537,421.891 137.262,422.234 137.125,422.715 137.125,423.677 137.743,424.227 138.568,424.708 139.461,425.051 140.903,425.601 142.415,424.845 143.514,424.295 144.545,423.677 145.025,423.54 145.506,423.265 M159.865,428.761 Q160.895,432.265 162.2,437.28 163.918,442.707 165.635,444.905 167.353,447.104 170.513,449.096 172.231,450.195 174.91,451.775 M167.353,356.969 Q167.834,362.946 167.903,369.061 M155.399,630.396 Q158.216,631.357 161.307,630.739 163.849,630.258 165.704,629.022 M129.98,547.956 Q131.354,554.001 136.369,586.084 141.041,616.312 141.659,622.152 M189.062,545.208 Q186.452,555.787 181.162,581.825 174.91,612.877 175.322,617.343 176.009,624.419 176.627,626.548 177.864,631.083 181.505,635.205 185.009,639.12 185.284,647.433 185.49,652.036 184.94,660.623 184.94,665.433 182.604,674.707 181.368,679.86 178.757,688.791 L174.635,703.905 M81.89,556.887 L93.432,584.779 Q105.454,614.182 107.996,621.465 M110.744,631.77 Q109.714,636.235 106.553,648.532 104.218,659.868 105.935,666.807 108.34,676.493 110.332,682.264 112.943,690.027 116.24,695.661 M121.736,631.083 L125.927,631.701 Q130.598,632.182 132.728,631.77" test="Rihanna Body"/>
      </g>
      <g id="Rihanna-Headf1r1">
        <path id="Layer2_0_1_STROKES" stroke="#F60" stroke-width="2.748" stroke-linejoin="round" stroke-linecap="round" fill="none" d="M175.938,204.804 L180.678,198.621 Q185.899,192.232 188.029,190.996 193.181,188.11 197.853,188.522 198.059,188.522 198.334,188.591 199.914,188.728 202.525,189.072 203.143,189.141 203.899,189.209 205.067,189.347 206.441,189.553 210.288,189.553 214.959,190.034 219.562,190.515 220.249,190.515 222.104,190.515 221.28,192.507 220.455,194.568 217.639,196.698 216.196,197.797 212.349,201.438 209.326,204.255 207.608,205.079 205.547,206.041 201.838,206.041 199.708,206.041 194.487,205.56 193.525,205.491 187.96,204.667 184.663,204.117 182.121,204.392 179.441,204.667 177.312,204.736 L175.938,204.804Z M76.048,232.284 Q79.208,246.505 84.635,254.2 88.689,259.833 112.115,288.756 137.878,320.426 142.824,324.754 148.114,329.357 157.457,330.25 165.495,331.006 172.846,329.014 180.06,327.09 200.601,306.549 222.241,285.046 226.226,273.71 231.516,258.665 234.195,246.849 237.905,230.773 237.63,217.926 237.493,211.399 237.974,211.468 238.317,211.468 239.348,215.659 242.302,227.475 243.882,226.994 247.111,226.033 249.79,220.811 252.95,214.491 251.027,207.484 249.653,202.537 247.661,198.553 246.218,195.736 245.737,191.751 245.256,187.904 248.966,183.439 252.676,178.836 252.469,175.057 252.126,170.042 251.096,169.286 249.309,169.149 247.661,168.874 245.462,168.531 242.508,171.897 240.104,174.576 239.073,176.981 M142.687,241.765 Q144.13,238.673 145.435,237.505 146.74,236.269 148.664,236.269 149.557,236.269 154.229,239.773 158.831,243.276 162.129,243.414 165.427,243.551 169.755,239.773 174.083,235.994 176.075,235.857 179.167,235.651 180.266,236.475 180.747,236.818 182.533,239.429 M182.052,228.643 Q184.457,229.742 185.968,232.147 187.754,234.895 186.311,237.025 M155.877,203.155 L154.915,229.399 M141.313,230.086 Q134.168,234.345 136.985,239.635" test="Rihanna Head"/>
        <path id="Layer2_0_2_STROKES" stroke="#FFF" stroke-width="2.748" stroke-linejoin="round" stroke-linecap="round" fill="none" d="M202.525,189.072 L199.777,196.492 208.295,194.018 Q208.845,195.392 208.845,197.041 208.845,200.614 206.234,203.155 203.761,205.697 200.12,205.697 196.548,205.697 193.937,203.155 191.464,200.614 191.464,197.041 191.464,193.469 193.937,190.858 195.861,189.072 198.334,188.591" test="Rihanna Head"/>
        <path id="Layer2_0_3_STROKES" stroke="#F00" stroke-width="2.748" stroke-linejoin="round" stroke-linecap="round" fill="none" d="M212.555,85.335 Q204.105,107.044 196.135,121.334 178.411,153.073 157.595,173.683 136.71,194.293 105.658,212.361 74.536,230.429 71.582,231.46 68.628,232.422 66.567,228.712 L65.262,224.384 64.163,233.727 Q62.514,236.475 60.178,234.483 55.507,230.498 52.072,206.797 47.743,177.118 48.705,168.531 49.873,157.813 61.415,131.501 72.201,106.975 82.231,94.266 89.582,84.991 97.688,80.938 106.482,76.541 108.68,76.541 106.757,75.442 103.39,75.167 96.658,74.618 89.444,78.74 85.322,81.075 85.322,80.114 85.254,79.289 88.483,76.335 96.864,68.709 106.482,64.45 116.787,59.916 128.809,57.718 140.832,55.519 148.252,56.756 155.259,57.924 164.74,61.565 173.602,65 176.281,67.198 178.205,68.847 181.434,68.503 189.265,67.748 191.12,67.748 196.548,67.748 206.166,71.183 217.226,75.099 219.15,75.442 235.02,78.053 237.287,80.938 237.974,81.763 236.256,81.625 233.302,81.213 230.898,81.075 220.661,80.457 212.555,85.335Z M219.15,95.228 Q221.005,92.755 221.967,91.861 222.448,91.312 223.547,90.281 M216.952,127.654 Q217.913,125.799 219.425,122.502 219.493,122.364 221.348,120.509 M222.448,113.364 Q226.157,111.853 227.325,111.097 228.15,110.548 228.493,109.517 M208.708,119.96 Q211.937,115.906 212.898,114.876 213.791,113.914 214.204,113.914 M230.142,105.67 Q232.89,105.052 234.401,104.159 235.226,103.678 236.188,102.922 M237.836,121.059 L240.584,120.509 Q241.34,120.303 241.684,119.96 M230.142,126.005 Q231.379,123.257 233.44,121.746 234.539,120.922 236.188,119.96 M176.281,97.426 Q174.426,100.105 163.434,119.616 156.152,132.601 147.702,139.745 M243.332,139.196 Q246.355,138.852 246.561,138.715 246.836,138.509 247.729,137.547 M236.737,151.837 Q238.661,151.081 239.829,150.325 240.584,149.913 241.684,149.089 M235.088,135.349 Q238.18,131.639 239.073,130.746 239.554,130.265 240.584,129.303 M245.531,154.035 Q247.111,153.691 248.004,153.279 248.691,152.936 248.828,152.936 M227.394,150.188 Q230.966,146.066 231.104,145.722 231.104,145.035 232.34,142.493 M222.448,135.898 L224.646,132.601 M240.035,165.027 Q241.958,162.622 243.401,161.523 244.706,160.493 244.981,160.081 M135.611,104.571 Q133.069,106.975 129.565,112.128 125.581,118.448 123.313,121.677 114.863,133.975 106.482,137.547 M122.42,154.585 Q111.291,164.477 103.459,171.073 88.689,183.507 82.849,185.912" test="Rihanna Head"/>
        <path id="Layer1_0_1_STROKES" stroke="#F0F" stroke-width="2.748" stroke-linejoin="round" stroke-linecap="round" fill="none" d="M231.379,164.546 L231.653,164.546 231.653,164.89 Q231.511,164.718 231.379,164.546 L230.554,164.546 M138.771,271.718 Q146.671,258.459 156.358,258.459 157.457,258.459 160.205,259.352 162.953,260.245 163.572,260.245 165.014,260.245 167.831,259.009 170.648,257.772 171.816,257.772 175.457,257.772 181.296,264.23 183.734,266.938 187.857,272.577 188.04,272.669 188.235,272.749 L187.96,272.749 Q187.901,272.667 187.857,272.577 184.393,271.137 179.716,268.214 177.106,266.566 172.984,266.566 171.678,266.566 168.93,267.802 166.182,268.97 162.885,268.97 159.656,268.97 157.732,267.459 155.809,265.879 152.855,265.879 150.725,265.879 145.229,269.382 142.548,271.105 138.977,273.436 141.666,277.718 147.221,281.886 154.915,287.656 162.404,287.656 170.029,287.656 175.113,284.428 175.388,284.221 188.647,273.573 187.617,277.351 181.296,286.626 172.984,298.717 166.801,298.717 154.915,298.717 148.939,293.221 143.374,288.137 138.427,273.779 138.704,273.599 138.977,273.436 138.871,273.257 138.771,273.092" test="Rihanna Head"/>
        <path id="Layer1_0_2_STROKES" stroke="#F60" stroke-width="2.748" stroke-linejoin="round" stroke-linecap="round" fill="none" d="M185.144,166.951 Q192.288,157.539 197.097,154.585 201.632,151.768 209.257,151.768 217.707,151.768 224.303,157.264 227.676,160.109 231.379,164.546" test="Rihanna Head"/>
      </g>
    </g>
  </g>
</svg>