<?xml version="1.0" encoding="utf-8"?>
<svg id="EdithAnim07" image-rendering="inherit" baseProfile="basic" version="1.1" x="0px" y="0px" width="800" height="600" xmlns="http://www.w3.org/2000/svg" xmlns:xlink="http://www.w3.org/1999/xlink">
  <g id="Rihanna-rearf319r1" overflow="visible">
    <g id="RihannaWholeBodyf29r1">
      <g id="Rihanna-Body">
        <path id="Layer3_0_1_STROKES" stroke="#F60" stroke-width="1.374" stroke-linejoin="round" stroke-linecap="round" fill="none" d="M148.927,329.833 Q151.881,331.276 157.721,333.886 163.079,336.497 168.506,339.795 177.163,345.016 192.551,360.405 193.101,360.954 187.605,346.321 181.01,328.734 180.872,321.933 180.666,312.727 180.598,312.589 180.46,311.834 177.781,309.91 176.132,308.742 170.774,307.643 166.308,306.75 165.758,305.101 165.071,302.971 165.621,302.422 165.827,302.078 168.506,300.979 170.087,300.361 172.697,302.078 175.033,303.727 176.063,302.696 177.231,301.597 177.369,298.437 177.506,294.04 178.124,292.048 179.292,288.27 180.185,287.376 181.285,286.277 183.277,287.583 185.475,288.956 190.078,295.346 194.819,302.01 197.36,307.506 199.902,313.07 204.986,336.153 210.001,358.893 210.07,364.526 210.07,364.87 210.963,375.175 211.444,380.877 210.07,382.732 208.421,384 192.689,384.312 177.644,383.625 168.85,381.358 163.972,380.121 155.591,374.419 L148.103,369.061 Q148.103,370.16 148.103,371.259 148.171,381.839 146.866,384.793 140.614,399.151 138.278,402.311 M93.28,289.987 Q92.456,293.834 90.807,301.666 88.265,308.124 80.57,311.284 76.929,312.795 65.525,316.23 56.732,318.91 52.472,321.452 50.342,322.757 48.625,324.337 42.923,329.627 39.9,334.23 36.74,338.97 35.228,344.603 33.786,350.1 34.816,360.611 35.778,370.572 37.976,376.549 38.045,376.755 38.183,376.961 40.312,382.938 43.541,393 47.114,405.953 48.625,412.96 49.724,417.838 52.953,431.165 55.564,442.845 55.151,446.28 54.739,449.852 54.739,452.119 54.671,453.699 54.808,453.837 M52.472,321.452 Q33.374,328.665 26.091,343.436 18.74,358.206 30.351,370.023 33.305,373.664 35.915,375.518 37.015,376.343 38.183,376.961 M136.904,418.044 Q135.874,418.25 135.05,418.593 134.019,419.006 132.92,419.349 131.821,419.899 130.79,420.517 129.622,421.204 128.523,421.685 127.699,422.097 126.943,422.509 L125.706,423.265 Q124.882,424.158 124.332,425.257 123.783,426.15 123.714,427.181 123.714,427.868 123.92,428.555 124.401,428.761 124.951,429.036 128.66,428.692 131.752,427.524 134.843,426.288 135.118,426.425 L138.622,424.639 Q138.828,425.051 142.813,425.189 146.729,425.257 148.034,422.166 147.828,418.731 145.217,416.464 145.217,415.158 145.835,413.991 145.835,412.823 144.874,412.204 144.049,411.655 143.156,411.174 L143.087,410.006 Q144.324,408.426 143.568,406.571 143.5,406.296 143.431,406.09 141.713,405.197 139.584,405.403 139.24,405.403 138.897,405.472 L138.072,406.365 Q134.843,406.64 131.958,407.739 130.928,408.014 129.897,408.357 128.042,408.769 126.668,409.113 125.432,409.594 124.264,410.281 123.164,410.762 122.134,411.38 121.31,411.861 120.554,412.41 119.661,413.166 119.042,414.128 118.424,414.884 118.355,415.777 118.355,416.67 119.042,417.151 119.867,417.838 121.035,418.112 122.477,418.593 131.34,414.334 L135.187,413.235 M121.172,418.731 Q120.073,418.937 119.317,419.899 118.424,420.861 117.737,421.891 117.462,422.234 117.325,422.715 117.325,423.677 117.943,424.227 118.768,424.708 119.661,425.051 121.103,425.601 122.615,424.845 123.714,424.295 124.745,423.677 125.225,423.54 125.706,423.265 M140.065,428.761 Q141.095,432.265 142.4,437.28 144.118,442.707 145.835,444.905 147.553,447.104 150.713,449.096 152.431,450.195 155.11,451.775 M147.553,356.969 Q148.034,362.946 148.103,369.061 M135.599,630.396 Q138.416,631.357 141.507,630.739 144.049,630.258 145.904,629.022 M110.18,547.956 Q111.554,554.001 116.569,586.084 121.241,616.312 121.859,622.152 M169.262,545.208 Q166.652,555.787 161.362,581.825 155.11,612.877 155.522,617.343 156.209,624.419 156.827,626.548 158.064,631.083 161.705,635.205 165.209,639.12 165.484,647.433 165.69,652.036 165.14,660.623 165.14,665.433 162.804,674.707 161.568,679.86 158.957,688.791 L154.835,703.905 M62.09,556.887 L73.632,584.779 Q85.654,614.182 88.196,621.465 M90.944,631.77 Q89.914,636.235 86.753,648.532 84.418,659.868 86.135,666.807 88.54,676.493 90.532,682.264 93.143,690.027 96.44,695.661 M101.936,631.083 L106.127,631.701 Q110.798,632.182 112.928,631.77" test="Rihanna Body"/>
      </g>
      <g id="Rihanna-Headf1r1">
        <path id="Layer2_0_1_STROKES" stroke="#F60" stroke-width="2.748" stroke-linejoin="round" stroke-linecap="round" fill="none" d="M156.138,204.804 L160.878,198.621 Q166.099,192.232 168.229,190.996 173.381,188.11 178.053,188.522 178.259,188.522 178.534,188.591 180.114,188.728 182.725,189.072 183.343,189.141 184.099,189.209 185.267,189.347 186.641,189.553 190.488,189.553 195.159,190.034 199.762,190.515 200.449,190.515 202.304,190.515 201.48,192.507 200.655,194.568 197.839,196.698 196.396,197.797 192.549,201.438 189.526,204.255 187.808,205.079 185.747,206.041 182.038,206.041 179.908,206.041 174.687,205.56 173.725,205.491 168.16,204.667 164.863,204.117 162.321,204.392 159.641,204.667 157.512,204.736 L156.138,204.804Z M56.248,232.284 Q59.408,246.505 64.835,254.2 68.889,259.833 92.315,288.756 118.078,320.426 123.024,324.754 128.314,329.357 137.657,330.25 145.695,331.006 153.046,329.014 160.26,327.09 180.801,306.549 202.442,285.046 206.426,273.71 211.716,258.665 214.395,246.849 218.105,230.773 217.83,217.926 217.693,211.399 218.174,211.468 218.517,211.468 219.548,215.659 222.502,227.475 224.082,226.994 227.311,226.033 229.99,220.811 233.15,214.491 231.227,207.484 229.853,202.537 227.861,198.553 226.418,195.736 225.937,191.751 225.456,187.904 229.166,183.439 232.876,178.836 232.67,175.057 232.326,170.042 231.296,169.286 229.509,169.149 227.861,168.874 225.662,168.531 222.708,171.897 220.304,174.576 219.273,176.981 M122.887,241.765 Q124.33,238.673 125.635,237.505 126.94,236.269 128.864,236.269 129.757,236.269 134.429,239.773 139.031,243.276 142.329,243.414 145.627,243.551 149.955,239.773 154.283,235.994 156.275,235.857 159.367,235.651 160.466,236.475 160.947,236.818 162.733,239.429 M162.252,228.643 Q164.657,229.742 166.168,232.147 167.954,234.895 166.511,237.025 M136.077,203.155 L135.116,229.399 M121.513,230.086 Q114.368,234.345 117.185,239.635" test="Rihanna Head"/>
        <path id="Layer2_0_2_STROKES" stroke="#FFF" stroke-width="2.748" stroke-linejoin="round" stroke-linecap="round" fill="none" d="M182.725,189.072 L179.977,196.492 188.495,194.018 Q189.045,195.392 189.045,197.041 189.045,200.614 186.434,203.155 183.961,205.697 180.32,205.697 176.748,205.697 174.137,203.155 171.664,200.614 171.664,197.041 171.664,193.469 174.137,190.858 176.061,189.072 178.534,188.591" test="Rihanna Head"/>
        <path id="Layer2_0_3_STROKES" stroke="#F00" stroke-width="2.748" stroke-linejoin="round" stroke-linecap="round" fill="none" d="M192.755,85.335 Q184.305,107.044 176.336,121.334 158.611,153.073 137.795,173.683 116.91,194.293 85.858,212.361 54.737,230.429 51.782,231.46 48.828,232.422 46.767,228.712 L45.462,224.384 44.363,233.727 Q42.714,236.475 40.378,234.483 35.707,230.498 32.272,206.797 27.944,177.118 28.905,168.531 30.073,157.813 41.615,131.501 52.401,106.975 62.431,94.266 69.782,84.991 77.888,80.938 86.682,76.541 88.88,76.541 86.957,75.442 83.59,75.167 76.858,74.618 69.644,78.74 65.522,81.075 65.522,80.114 65.454,79.289 68.683,76.335 77.064,68.709 86.682,64.45 96.987,59.916 109.01,57.718 121.032,55.519 128.452,56.756 135.459,57.924 144.94,61.565 153.802,65 156.481,67.198 158.405,68.847 161.634,68.503 169.466,67.748 171.32,67.748 176.748,67.748 186.366,71.183 197.426,75.099 199.35,75.442 215.22,78.053 217.487,80.938 218.174,81.763 216.456,81.625 213.502,81.213 211.098,81.075 200.861,80.457 192.755,85.335Z M199.35,95.228 Q201.205,92.755 202.167,91.861 202.648,91.312 203.747,90.281 M197.152,127.654 Q198.113,125.799 199.625,122.502 199.694,122.364 201.548,120.509 M202.648,113.364 Q206.357,111.853 207.525,111.097 208.35,110.548 208.693,109.517 M188.908,119.96 Q192.137,115.906 193.098,114.876 193.991,113.914 194.404,113.914 M210.342,105.67 Q213.09,105.052 214.601,104.159 215.426,103.678 216.388,102.922 M218.036,121.059 L220.784,120.509 Q221.54,120.303 221.884,119.96 M210.342,126.005 Q211.579,123.257 213.64,121.746 214.739,120.922 216.388,119.96 M156.481,97.426 Q154.626,100.105 143.634,119.616 136.352,132.601 127.902,139.745 M223.532,139.196 Q226.555,138.852 226.761,138.715 227.036,138.509 227.929,137.547 M216.937,151.837 Q218.861,151.081 220.029,150.325 220.784,149.913 221.884,149.089 M215.288,135.349 Q218.38,131.639 219.273,130.746 219.754,130.265 220.784,129.303 M225.731,154.035 Q227.311,153.691 228.204,153.279 228.891,152.936 229.028,152.936 M207.594,150.188 Q211.166,146.066 211.304,145.722 211.304,145.035 212.54,142.493 M202.648,135.898 L204.846,132.601 M220.235,165.027 Q222.158,162.622 223.601,161.523 224.906,160.493 225.181,160.081 M115.811,104.571 Q113.269,106.975 109.765,112.128 105.781,118.448 103.514,121.677 95.063,133.975 86.682,137.547 M102.62,154.585 Q91.491,164.477 83.659,171.073 68.889,183.507 63.049,185.912" test="Rihanna Head"/>
        <path id="Layer1_0_1_STROKES" stroke="#F0F" stroke-width="2.748" stroke-linejoin="round" stroke-linecap="round" fill="none" d="M211.579,164.546 L211.853,164.546 211.853,164.89 Q211.711,164.718 211.579,164.546 L210.754,164.546 M118.971,271.718 Q126.872,258.459 136.558,258.459 137.657,258.459 140.405,259.352 143.153,260.245 143.772,260.245 145.214,260.245 148.031,259.009 150.848,257.772 152.016,257.772 155.657,257.772 161.496,264.23 163.934,266.938 168.057,272.577 168.24,272.669 168.435,272.749 L168.16,272.749 Q168.101,272.667 168.057,272.577 164.593,271.137 159.916,268.214 157.306,266.566 153.184,266.566 151.878,266.566 149.13,267.802 146.382,268.97 143.085,268.97 139.856,268.97 137.932,267.459 136.009,265.879 133.055,265.879 130.925,265.879 125.429,269.382 122.748,271.105 119.177,273.436 121.866,277.718 127.421,281.886 135.116,287.656 142.604,287.656 150.23,287.656 155.313,284.428 155.588,284.221 168.847,273.573 167.817,277.351 161.496,286.626 153.184,298.717 147.001,298.717 135.116,298.717 129.139,293.221 123.574,288.137 118.628,273.779 118.904,273.599 119.177,273.436 119.071,273.257 118.971,273.092" test="Rihanna Head"/>
        <path id="Layer1_0_2_STROKES" stroke="#F60" stroke-width="2.748" stroke-linejoin="round" stroke-linecap="round" fill="none" d="M165.344,166.951 Q172.488,157.539 177.297,154.585 181.832,151.768 189.457,151.768 197.907,151.768 204.503,157.264 207.876,160.109 211.579,164.546" test="Rihanna Head"/>
      </g>
    </g>
  </g>
</svg>