<?xml version="1.0" encoding="utf-8"?>
<svg id="EdithAnim07" image-rendering="inherit" baseProfile="basic" version="1.1" x="0px" y="0px" width="800" height="600" xmlns="http://www.w3.org/2000/svg" xmlns:xlink="http://www.w3.org/1999/xlink">
  <g id="Rihanna-rearf320r1" overflow="visible">
    <g id="RihannaWholeBodyf29r1">
      <g id="Rihanna-Body">
        <path id="Layer3_0_1_STROKES" stroke="#F60" stroke-width="1.374" stroke-linejoin="round" stroke-linecap="round" fill="none" d="M128.377,329.833 Q131.331,331.276 137.171,333.886 142.529,336.497 147.956,339.795 156.613,345.016 172.001,360.405 172.551,360.954 167.055,346.321 160.46,328.734 160.322,321.933 160.116,312.727 160.048,312.589 159.91,311.834 157.231,309.91 155.582,308.742 150.224,307.643 145.758,306.75 145.208,305.101 144.521,302.971 145.071,302.422 145.277,302.078 147.956,300.979 149.537,300.361 152.147,302.078 154.483,303.727 155.513,302.696 156.681,301.597 156.819,298.437 156.956,294.04 157.574,292.048 158.742,288.27 159.635,287.376 160.735,286.277 162.727,287.583 164.925,288.956 169.528,295.346 174.269,302.01 176.81,307.506 179.352,313.07 184.436,336.153 189.451,358.893 189.52,364.526 189.52,364.87 190.413,375.175 190.894,380.877 189.52,382.732 187.871,384 172.139,384.312 157.094,383.625 148.3,381.358 143.422,380.121 135.041,374.419 L127.553,369.061 Q127.553,370.16 127.553,371.259 127.621,381.839 126.316,384.793 120.064,399.151 117.728,402.311 M72.73,289.987 Q71.906,293.834 70.257,301.666 67.715,308.124 60.02,311.284 56.379,312.795 44.975,316.23 36.182,318.91 31.922,321.452 29.792,322.757 28.075,324.337 22.373,329.627 19.35,334.23 16.19,338.97 14.678,344.603 13.236,350.1 14.266,360.611 15.228,370.572 17.426,376.549 17.495,376.755 17.633,376.961 19.762,382.938 22.991,393 26.564,405.953 28.075,412.96 29.174,417.838 32.403,431.165 35.014,442.845 34.601,446.28 34.189,449.852 34.189,452.119 34.121,453.699 34.258,453.837 M31.922,321.452 Q12.824,328.665 5.541,343.436 -1.81,358.206 9.801,370.023 12.755,373.664 15.365,375.518 16.465,376.343 17.633,376.961 M116.354,418.044 Q115.324,418.25 114.5,418.593 113.469,419.006 112.37,419.349 111.271,419.899 110.24,420.517 109.072,421.204 107.973,421.685 107.149,422.097 106.393,422.509 L105.156,423.265 Q104.332,424.158 103.782,425.257 103.233,426.15 103.164,427.181 103.164,427.868 103.37,428.555 103.851,428.761 104.401,429.036 108.11,428.692 111.202,427.524 114.293,426.288 114.568,426.425 L118.072,424.639 Q118.278,425.051 122.263,425.189 126.179,425.257 127.484,422.166 127.278,418.731 124.667,416.464 124.667,415.158 125.285,413.991 125.285,412.823 124.324,412.204 123.499,411.655 122.606,411.174 L122.537,410.006 Q123.774,408.426 123.018,406.571 122.95,406.296 122.881,406.09 121.163,405.197 119.034,405.403 118.69,405.403 118.347,405.472 L117.522,406.365 Q114.293,406.64 111.408,407.739 110.378,408.014 109.347,408.357 107.492,408.769 106.118,409.113 104.882,409.594 103.714,410.281 102.614,410.762 101.584,411.38 100.76,411.861 100.004,412.41 99.111,413.166 98.492,414.128 97.874,414.884 97.805,415.777 97.805,416.67 98.492,417.151 99.317,417.838 100.485,418.112 101.927,418.593 110.79,414.334 L114.637,413.235 M100.622,418.731 Q99.523,418.937 98.767,419.899 97.874,420.861 97.187,421.891 96.912,422.234 96.775,422.715 96.775,423.677 97.393,424.227 98.218,424.708 99.111,425.051 100.553,425.601 102.065,424.845 103.164,424.295 104.195,423.677 104.675,423.54 105.156,423.265 M119.515,428.761 Q120.545,432.265 121.85,437.28 123.568,442.707 125.285,444.905 127.003,447.104 130.163,449.096 131.881,450.195 134.56,451.775 M127.003,356.969 Q127.484,362.946 127.553,369.061 M115.049,630.396 Q117.866,631.357 120.957,630.739 123.499,630.258 125.354,629.022 M89.63,547.956 Q91.004,554.001 96.019,586.084 100.691,616.312 101.309,622.152 M148.712,545.208 Q146.102,555.787 140.812,581.825 134.56,612.877 134.972,617.343 135.659,624.419 136.277,626.548 137.514,631.083 141.155,635.205 144.659,639.12 144.934,647.433 145.14,652.036 144.59,660.623 144.59,665.433 142.254,674.707 141.018,679.86 138.407,688.791 L134.285,703.905 M41.54,556.887 L53.082,584.779 Q65.104,614.182 67.646,621.465 M70.394,631.77 Q69.364,636.235 66.203,648.532 63.868,659.868 65.585,666.807 67.99,676.493 69.982,682.264 72.593,690.027 75.89,695.661 M81.386,631.083 L85.577,631.701 Q90.248,632.182 92.378,631.77" test="Rihanna Body"/>
      </g>
      <g id="Rihanna-Headf1r1">
        <path id="Layer2_0_1_STROKES" stroke="#F60" stroke-width="2.748" stroke-linejoin="round" stroke-linecap="round" fill="none" d="M135.588,204.804 L140.328,198.621 Q145.549,192.232 147.679,190.996 152.831,188.11 157.503,188.522 157.709,188.522 157.984,188.591 159.564,188.728 162.175,189.072 162.793,189.141 163.549,189.209 164.717,189.347 166.091,189.553 169.938,189.553 174.609,190.034 179.212,190.515 179.899,190.515 181.754,190.515 180.93,192.507 180.105,194.568 177.289,196.698 175.846,197.797 171,201.438 168.976,204.255 167.258,205.079 165.197,206.041 161.488,206.041 159.358,206.041 154.137,205.56 153.175,205.491 147.61,204.667 144.313,204.117 141.771,204.392 139.091,204.667 136.962,204.736 L135.588,204.804Z M35.698,232.284 Q38.858,246.505 44.285,254.2 48.339,259.833 71.765,288.756 97.528,320.426 102.474,324.754 107.764,329.357 117.107,330.25 125.145,331.006 132.496,329.014 139.71,327.09 160.251,306.549 181.892,285.046 185.876,273.71 191.166,258.665 193.845,246.849 197.555,230.773 197.28,217.926 197.143,211.399 197.624,211.468 197.967,211.468 198.998,215.659 201.952,227.475 203.532,226.994 206.761,226.033 209.44,220.811 212.6,214.491 210.677,207.484 209.303,202.537 207.311,198.553 205.868,195.736 205.387,191.751 204.906,187.904 208.616,183.439 212.326,178.836 212.12,175.057 211.776,170.042 210.746,169.286 208.959,169.149 207.311,168.874 205.112,168.531 202.158,171.897 199.754,174.576 198.723,176.981 M102.337,241.765 Q103.78,238.673 105.085,237.505 106.39,236.269 108.314,236.269 109.207,236.269 113.878,239.773 118.481,243.276 121.779,243.414 125.077,243.551 129.405,239.773 133.733,235.994 135.725,235.857 138.817,235.651 139.916,236.475 140.397,236.818 142.183,239.429 M141.702,228.643 Q144.106,229.742 145.618,232.147 147.404,234.895 145.961,237.025 M115.527,203.155 L114.566,229.399 M100.963,230.086 Q93.818,234.345 96.635,239.635" test="Rihanna Head"/>
        <path id="Layer2_0_2_STROKES" stroke="#FFF" stroke-width="2.748" stroke-linejoin="round" stroke-linecap="round" fill="none" d="M162.175,189.072 L159.427,196.492 167.945,194.018 Q168.495,195.392 168.495,197.041 168.495,200.614 165.884,203.155 163.411,205.697 159.77,205.697 156.198,205.697 153.587,203.155 151.114,200.614 151.114,197.041 151.114,193.469 153.587,190.858 155.511,189.072 157.984,188.591" test="Rihanna Head"/>
        <path id="Layer2_0_3_STROKES" stroke="#F00" stroke-width="2.748" stroke-linejoin="round" stroke-linecap="round" fill="none" d="M172.205,85.335 Q163.755,107.044 155.786,121.334 138.061,153.073 117.245,173.683 96.36,194.293 65.308,212.361 34.186,230.429 31.232,231.46 28.278,232.422 26.217,228.712 L24.912,224.384 23.813,233.727 Q22.164,236.475 19.828,234.483 15.157,230.498 11.722,206.797 7.393,177.118 8.355,168.531 9.523,157.813 21.065,131.501 31.851,106.975 41.881,94.266 49.232,84.991 57.338,80.938 66.132,76.541 68.33,76.541 66.407,75.442 63.04,75.167 56.308,74.618 49.094,78.74 44.972,81.075 44.972,80.114 44.904,79.289 48.133,76.335 56.514,68.709 66.132,64.45 76.437,59.916 88.459,57.718 100.482,55.519 107.902,56.756 114.909,57.924 124.39,61.565 133.252,65 135.931,67.198 137.855,68.847 141.084,68.503 148.916,67.748 150.77,67.748 156.198,67.748 165.816,71.183 176.876,75.099 178.8,75.442 194.67,78.053 196.937,80.938 197.624,81.763 195.906,81.625 192.952,81.213 190.548,81.075 180.311,80.457 172.205,85.335Z M178.8,95.228 Q180.655,92.755 181.617,91.861 182.098,91.312 183.197,90.281 M176.602,127.654 Q177.563,125.799 179.075,122.502 179.144,122.364 180.998,120.509 M182.098,113.364 Q185.807,111.853 186.975,111.097 187.8,110.548 188.143,109.517 M168.358,119.96 Q171.587,115.906 172.548,114.876 173.441,113.914 173.854,113.914 M189.792,105.67 Q192.54,105.052 194.051,104.159 194.876,103.678 195.838,102.922 M197.486,121.059 L200.234,120.509 Q200.99,120.303 201.334,119.96 M189.792,126.005 Q191.029,123.257 193.09,121.746 194.189,120.922 195.838,119.96 M135.931,97.426 Q134.076,100.105 123.084,119.616 115.802,132.601 107.352,139.745 M202.982,139.196 Q206.005,138.852 206.211,138.715 206.486,138.509 207.379,137.547 M196.387,151.837 Q198.311,151.081 199.479,150.325 200.234,149.913 201.334,149.089 M194.738,135.349 Q197.83,131.639 198.723,130.746 199.204,130.265 200.234,129.303 M205.181,154.035 Q206.761,153.691 207.654,153.279 208.341,152.936 208.478,152.936 M187.044,150.188 Q190.616,146.066 190.754,145.722 190.754,145.035 191.99,142.493 M182.098,135.898 L184.296,132.601 M199.685,165.027 Q201.608,162.622 203.051,161.523 204.356,160.493 204.631,160.081 M95.261,104.571 Q92.719,106.975 89.215,112.128 85.231,118.448 82.964,121.677 74.513,133.975 66.132,137.547 M82.07,154.585 Q70.941,164.477 63.109,171.073 48.339,183.507 42.499,185.912" test="Rihanna Head"/>
        <path id="Layer1_0_1_STROKES" stroke="#F0F" stroke-width="2.748" stroke-linejoin="round" stroke-linecap="round" fill="none" d="M191.029,164.546 L191.303,164.546 191.303,164.89 Q191.161,164.718 191.029,164.546 L190.204,164.546 M98.421,271.718 Q106.322,258.459 116.008,258.459 117.107,258.459 119.855,259.352 122.603,260.245 123.222,260.245 124.664,260.245 127.481,259.009 130.298,257.772 131.466,257.772 135.107,257.772 140.946,264.23 143.384,266.938 147.507,272.577 147.69,272.669 147.885,272.749 L147.61,272.749 Q147.551,272.667 147.507,272.577 144.043,271.137 139.366,268.214 136.756,266.566 132.634,266.566 131.328,266.566 128.58,267.802 125.832,268.97 122.535,268.97 119.306,268.97 117.382,267.459 115.459,265.879 112.505,265.879 110.375,265.879 104.879,269.382 102.198,271.105 98.627,273.436 101.316,277.718 106.871,281.886 114.566,287.656 122.054,287.656 129.679,287.656 134.763,284.428 135.038,284.221 148.297,273.573 147.267,277.351 140.946,286.626 132.634,298.717 126.451,298.717 114.566,298.717 108.589,293.221 103.024,288.137 98.077,273.779 98.354,273.599 98.627,273.436 98.521,273.257 98.421,273.092" test="Rihanna Head"/>
        <path id="Layer1_0_2_STROKES" stroke="#F60" stroke-width="2.748" stroke-linejoin="round" stroke-linecap="round" fill="none" d="M144.794,166.951 Q151.938,157.539 156.747,154.585 161.282,151.768 168.907,151.768 177.357,151.768 183.953,157.264 187.326,160.109 191.029,164.546" test="Rihanna Head"/>
      </g>
    </g>
  </g>
</svg>