<?xml version="1.0" encoding="utf-8"?>
<svg id="EdithAnim07" image-rendering="inherit" baseProfile="basic" version="1.1" x="0px" y="0px" width="800" height="600" xmlns="http://www.w3.org/2000/svg" xmlns:xlink="http://www.w3.org/1999/xlink">
  <g id="Rihanna-rearf321r1" overflow="visible">
    <g id="RihannaWholeBodyf29r1">
      <g id="Rihanna-Body">
        <path id="Layer3_0_1_STROKES" stroke="#F60" stroke-width="1.374" stroke-linejoin="round" stroke-linecap="round" fill="none" d="M107.077,329.833 Q110.031,331.276 115.871,333.886 121.229,336.497 126.656,339.795 135.313,345.016 150.701,360.405 151.251,360.954 145.755,346.321 139.16,328.734 139.022,321.933 138.816,312.727 138.748,312.589 138.61,311.834 135.931,309.91 134.282,308.742 128.924,307.643 124.458,306.75 123.908,305.101 123.221,302.971 123.771,302.422 123.977,302.078 126.656,300.979 128.237,300.361 130.847,302.078 133.183,303.727 134.213,302.696 135.381,301.597 135.519,298.437 135.656,294.04 136.274,292.048 137.442,288.27 138.335,287.376 139.435,286.277 141.427,287.583 143.625,288.956 148.228,295.346 152.969,302.01 155.51,307.506 158.052,313.07 163.136,336.153 168.151,358.893 168.22,364.526 168.22,364.87 169.113,375.175 169.594,380.877 168.22,382.732 166.571,384 150.839,384.312 135.794,383.625 127,381.358 122.122,380.121 113.741,374.419 L106.253,369.061 Q106.253,370.16 106.253,371.259 106.321,381.839 105.016,384.793 98.764,399.151 96.428,402.311 M51.43,289.987 Q50.606,293.834 48.957,301.666 46.415,308.124 38.72,311.284 35.079,312.795 23.675,316.23 14.882,318.91 10.622,321.452 8.492,322.757 6.775,324.337 1.073,329.627 -1.95,334.23 -5.11,338.97 -6.622,344.603 -8.064,350.1 -7.034,360.611 -6.072,370.572 -3.874,376.549 -3.805,376.755 -3.667,376.961 -1.538,382.938 1.691,393 5.264,405.953 6.775,412.96 7.874,417.838 11.103,431.165 13.714,442.845 13.301,446.28 12.889,449.852 12.889,452.119 12.821,453.699 12.958,453.837 M10.622,321.452 Q-8.476,328.665 -15.759,343.436 -23.11,358.206 -11.499,370.023 -8.545,373.664 -5.935,375.518 -4.835,376.343 -3.667,376.961 M95.054,418.044 Q94.024,418.25 93.2,418.593 92.169,419.006 91.07,419.349 89.971,419.899 88.94,420.517 87.772,421.204 86.673,421.685 85.849,422.097 85.093,422.509 L83.856,423.265 Q83.032,424.158 82.482,425.257 81.933,426.15 81.864,427.181 81.864,427.868 82.07,428.555 82.551,428.761 83.101,429.036 86.81,428.692 89.902,427.524 92.993,426.288 93.268,426.425 L96.772,424.639 Q96.978,425.051 100.963,425.189 104.879,425.257 106.184,422.166 105.978,418.731 103.367,416.464 103.367,415.158 103.985,413.991 103.985,412.823 103.024,412.204 102.199,411.655 101.306,411.174 L101.237,410.006 Q102.474,408.426 101.718,406.571 101.65,406.296 101.581,406.09 99.863,405.197 97.734,405.403 97.39,405.403 97.047,405.472 L96.222,406.365 Q92.993,406.64 90.108,407.739 89.078,408.014 88.047,408.357 86.192,408.769 84.818,409.113 83.582,409.594 82.414,410.281 81.314,410.762 80.284,411.38 79.46,411.861 78.704,412.41 77.811,413.166 77.192,414.128 76.574,414.884 76.505,415.777 76.505,416.67 77.192,417.151 78.017,417.838 79.185,418.112 80.627,418.593 89.49,414.334 L93.337,413.235 M79.322,418.731 Q78.223,418.937 77.467,419.899 76.574,420.861 75.887,421.891 75.612,422.234 75.475,422.715 75.475,423.677 76.093,424.227 76.918,424.708 77.811,425.051 79.253,425.601 80.765,424.845 81.864,424.295 82.895,423.677 83.375,423.54 83.856,423.265 M98.215,428.761 Q99.245,432.265 100.55,437.28 102.268,442.707 103.985,444.905 105.703,447.104 108.863,449.096 110.581,450.195 113.26,451.775 M105.703,356.969 Q106.184,362.946 106.253,369.061 M93.749,630.396 Q96.566,631.357 99.657,630.739 102.199,630.258 104.054,629.022 M68.33,547.956 Q69.704,554.001 74.719,586.084 79.391,616.312 80.009,622.152 M127.412,545.208 Q124.802,555.787 119.512,581.825 113.26,612.877 113.672,617.343 114.359,624.419 114.977,626.548 116.214,631.083 119.855,635.205 123.359,639.12 123.634,647.433 123.84,652.036 123.29,660.623 123.29,665.433 120.954,674.707 119.718,679.86 117.107,688.791 L112.985,703.905 M20.24,556.887 L31.782,584.779 Q43.804,614.182 46.346,621.465 M49.094,631.77 Q48.064,636.235 44.903,648.532 42.568,659.868 44.285,666.807 46.69,676.493 48.682,682.264 51.293,690.027 54.59,695.661 M60.086,631.083 L64.277,631.701 Q68.948,632.182 71.078,631.77" test="Rihanna Body"/>
      </g>
      <g id="Rihanna-Headf1r1">
        <path id="Layer2_0_1_STROKES" stroke="#F60" stroke-width="2.748" stroke-linejoin="round" stroke-linecap="round" fill="none" d="M114.288,204.804 L119.028,198.621 Q124.249,192.232 126.379,190.996 131.531,188.11 136.203,188.522 136.409,188.522 136.684,188.591 138.264,188.728 140.875,189.072 141.493,189.141 142.249,189.209 143.416,189.347 144.791,189.553 148.638,189.553 153.309,190.034 157.912,190.515 158.599,190.515 160.454,190.515 159.63,192.507 158.805,194.568 155.989,196.698 154.546,197.797 150.699,201.438 147.676,204.255 145.958,205.079 143.897,206.041 140.188,206.041 138.058,206.041 132.837,205.56 131.875,205.491 126.31,204.667 123.013,204.117 120.471,204.392 117.791,204.667 115.662,204.736 L114.288,204.804Z M14.398,232.284 Q17.558,246.505 22.985,254.2 27.039,259.833 50.465,288.756 76.228,320.426 81.174,324.754 86.464,329.357 95.807,330.25 103.845,331.006 111.196,329.014 118.41,327.09 138.951,306.549 160.592,285.046 164.576,273.71 169.866,258.665 172.545,246.849 176.255,230.773 175.98,217.926 175.843,211.399 176.324,211.468 176.667,211.468 177.698,215.659 180.652,227.475 182.232,226.994 185.461,226.033 188.14,220.811 191.3,214.491 189.377,207.484 188.003,202.537 186.011,198.553 184.568,195.736 184.087,191.751 183.606,187.904 187.316,183.439 191.026,178.836 190.82,175.057 190.476,170.042 189.446,169.286 187.659,169.149 186.011,168.874 183.812,168.531 180.858,171.897 178.454,174.576 177.423,176.981 M81.037,241.765 Q82.48,238.673 83.785,237.505 85.09,236.269 87.014,236.269 87.907,236.269 92.578,239.773 97.181,243.276 100.479,243.414 103.777,243.551 108.105,239.773 112.433,235.994 114.425,235.857 117.517,235.651 118.616,236.475 119.097,236.818 120.883,239.429 M120.402,228.643 Q122.807,229.742 124.318,232.147 126.104,234.895 124.661,237.025 M94.227,203.155 L93.266,229.399 M79.663,230.086 Q72.518,234.345 75.335,239.635" test="Rihanna Head"/>
        <path id="Layer2_0_2_STROKES" stroke="#FFF" stroke-width="2.748" stroke-linejoin="round" stroke-linecap="round" fill="none" d="M140.875,189.072 L138.127,196.492 146.645,194.018 Q147.195,195.392 147.195,197.041 147.195,200.614 144.584,203.155 142.111,205.697 138.47,205.697 134.898,205.697 132.287,203.155 129.814,200.614 129.814,197.041 129.814,193.469 132.287,190.858 134.211,189.072 136.684,188.591" test="Rihanna Head"/>
        <path id="Layer2_0_3_STROKES" stroke="#F00" stroke-width="2.748" stroke-linejoin="round" stroke-linecap="round" fill="none" d="M150.905,85.335 Q142.455,107.044 134.486,121.334 116.761,153.073 95.945,173.683 75.06,194.293 44.008,212.361 12.886,230.429 9.932,231.46 6.978,232.422 4.917,228.712 L3.612,224.384 2.513,233.727 Q0.864,236.475 -1.472,234.483 -6.143,230.498 -9.578,206.797 -13.907,177.118 -12.945,168.531 -11.777,157.813 -.235,131.501 10.551,106.975 20.581,94.266 27.932,84.991 36.038,80.938 44.832,76.541 47.03,76.541 45.107,75.442 41.74,75.167 35.008,74.618 27.794,78.74 23.672,81.075 23.672,80.114 23.604,79.289 26.833,76.335 35.214,68.709 44.832,64.45 55.137,59.916 67.16,57.718 79.182,55.519 86.602,56.756 93.609,57.924 103.09,61.565 111.952,65 114.631,67.198 116.555,68.847 119.784,68.503 127.616,67.748 129.47,67.748 134.898,67.748 144.516,71.183 155.576,75.099 157.5,75.442 173.37,78.053 175.637,80.938 176.324,81.763 174.606,81.625 171.652,81.213 169.248,81.075 159.011,80.457 150.905,85.335Z M157.5,95.228 Q159.355,92.755 160.317,91.861 160.798,91.312 161.897,90.281 M155.302,127.654 Q156.263,125.799 157.775,122.502 157.844,122.364 159.698,120.509 M160.798,113.364 Q164.507,111.853 165.675,111.097 166.5,110.548 166.843,109.517 M147.058,119.96 Q150.287,115.906 151.248,114.876 152.141,113.914 152.554,113.914 M168.492,105.67 Q171.24,105.052 172.751,104.159 173.576,103.678 174.538,102.922 M176.186,121.059 L178.934,120.509 Q179.69,120.303 180.034,119.96 M168.492,126.005 Q169.729,123.257 171.79,121.746 172.889,120.922 174.538,119.96 M114.631,97.426 Q112.776,100.105 101.784,119.616 94.502,132.601 86.052,139.745 M181.682,139.196 Q184.705,138.852 184.911,138.715 185.186,138.509 186.079,137.547 M175.087,151.837 Q177.011,151.081 178.179,150.325 178.934,149.913 180.034,149.089 M173.438,135.349 Q176.53,131.639 177.423,130.746 177.904,130.265 178.934,129.303 M183.881,154.035 Q185.461,153.691 186.354,153.279 187.041,152.936 187.178,152.936 M165.744,150.188 Q169.316,146.066 169.454,145.722 169.454,145.035 170.69,142.493 M160.798,135.898 L162.996,132.601 M178.385,165.027 Q180.308,162.622 181.751,161.523 183.056,160.493 183.331,160.081 M73.961,104.571 Q71.419,106.975 67.915,112.128 63.931,118.448 61.664,121.677 53.213,133.975 44.832,137.547 M60.77,154.585 Q49.641,164.477 41.809,171.073 27.039,183.507 21.199,185.912" test="Rihanna Head"/>
        <path id="Layer1_0_1_STROKES" stroke="#F0F" stroke-width="2.748" stroke-linejoin="round" stroke-linecap="round" fill="none" d="M169.729,164.546 L170.003,164.546 170.003,164.89 Q169.861,164.718 169.729,164.546 L168.904,164.546 M77.121,271.718 Q85.022,258.459 94.708,258.459 95.807,258.459 98.555,259.352 101.303,260.245 101.922,260.245 103.364,260.245 106.181,259.009 108.998,257.772 110.166,257.772 113.807,257.772 119.646,264.23 122.084,266.938 126.207,272.577 126.39,272.669 126.585,272.749 L126.31,272.749 Q126.251,272.667 126.207,272.577 122.743,271.137 118.066,268.214 115.456,266.566 111.334,266.566 110.028,266.566 107.28,267.802 104.532,268.97 101.235,268.97 98.006,268.97 96.082,267.459 94.159,265.879 91.205,265.879 89.075,265.879 83.579,269.382 80.898,271.105 77.327,273.436 80.016,277.718 85.571,281.886 93.266,287.656 100.754,287.656 108.38,287.656 113.463,284.428 113.738,284.221 126.997,273.573 125.967,277.351 119.646,286.626 111.334,298.717 105.151,298.717 93.266,298.717 87.289,293.221 81.724,288.137 76.778,273.779 77.054,273.599 77.327,273.436 77.221,273.257 77.121,273.092" test="Rihanna Head"/>
        <path id="Layer1_0_2_STROKES" stroke="#F60" stroke-width="2.748" stroke-linejoin="round" stroke-linecap="round" fill="none" d="M123.494,166.951 Q130.638,157.539 135.447,154.585 139.982,151.768 147.607,151.768 156.057,151.768 162.653,157.264 166.026,160.109 169.729,164.546" test="Rihanna Head"/>
      </g>
    </g>
  </g>
</svg>