<?xml version="1.0" encoding="utf-8"?>
<svg id="EdithAnim07" image-rendering="inherit" baseProfile="basic" version="1.1" x="0px" y="0px" width="800" height="600" xmlns="http://www.w3.org/2000/svg" xmlns:xlink="http://www.w3.org/1999/xlink">
  <g id="Rihanna-rearf322r1" overflow="visible">
    <g id="RihannaWholeBodyf29r1">
      <g id="Rihanna-Body">
        <path id="Layer3_0_1_STROKES" stroke="#F60" stroke-width="1.374" stroke-linejoin="round" stroke-linecap="round" fill="none" d="M85.127,329.833 Q88.081,331.276 93.921,333.886 99.279,336.497 104.706,339.795 113.363,345.016 128.751,360.405 129.301,360.954 123.805,346.321 117.21,328.734 117.072,321.933 116.866,312.727 116.798,312.589 116.66,311.834 113.981,309.91 112.332,308.742 106.974,307.643 102.508,306.75 101.958,305.101 101.271,302.971 101.821,302.422 102.027,302.078 104.706,300.979 106.287,300.361 108.897,302.078 111.233,303.727 112.263,302.696 113.431,301.597 113.569,298.437 113.706,294.04 114.324,292.048 115.492,288.27 116.385,287.376 117.485,286.277 119.477,287.583 121.675,288.956 126.278,295.346 131.019,302.01 133.56,307.506 136.102,313.07 141.186,336.153 146.201,358.893 146.27,364.526 146.27,364.87 147.163,375.175 147.644,380.877 146.27,382.732 144.621,384 128.889,384.312 113.844,383.625 105.05,381.358 100.172,380.121 91.791,374.419 L84.303,369.061 Q84.303,370.16 84.303,371.259 84.371,381.839 83.066,384.793 76.814,399.151 74.478,402.311 M29.48,289.987 Q28.656,293.834 27.007,301.666 24.465,308.124 16.77,311.284 13.129,312.795 1.725,316.23 -7.068,318.91 -11.328,321.452 -13.458,322.757 -15.175,324.337 -20.877,329.627 -23.9,334.23 -27.06,338.97 -28.572,344.603 -30.014,350.1 -28.984,360.611 -28.022,370.572 -25.824,376.549 -25.755,376.755 -25.617,376.961 -23.488,382.938 -20.259,393 -16.686,405.953 -15.175,412.96 -14.076,417.838 -10.847,431.165 -8.236,442.845 -8.649,446.28 -9.061,449.852 -9.061,452.119 -9.129,453.699 -8.992,453.837 M-11.328,321.452 Q-30.426,328.665 -37.709,343.436 -45.06,358.206 -33.449,370.023 -30.495,373.664 -27.885,375.518 -26.785,376.343 -25.617,376.961 M73.104,418.044 Q72.074,418.25 71.25,418.593 70.219,419.006 69.12,419.349 68.021,419.899 66.99,420.517 65.822,421.204 64.723,421.685 63.899,422.097 63.143,422.509 L61.906,423.265 Q61.082,424.158 60.532,425.257 59.983,426.15 59.914,427.181 59.914,427.868 60.12,428.555 60.601,428.761 61.151,429.036 64.86,428.692 67.952,427.524 71.043,426.288 71.318,426.425 L74.822,424.639 Q75.028,425.051 79.013,425.189 82.929,425.257 84.234,422.166 84.028,418.731 81.417,416.464 81.417,415.158 82.035,413.991 82.035,412.823 81.074,412.204 80.249,411.655 79.356,411.174 L79.287,410.006 Q80.524,408.426 79.768,406.571 79.7,406.296 79.631,406.09 77.913,405.197 75.784,405.403 75.44,405.403 75.097,405.472 L74.272,406.365 Q71.043,406.64 68.158,407.739 67.128,408.014 66.097,408.357 64.242,408.769 62.868,409.113 61.632,409.594 60.464,410.281 59.364,410.762 58.334,411.38 57.51,411.861 56.754,412.41 55.861,413.166 55.242,414.128 54.624,414.884 54.555,415.777 54.555,416.67 55.242,417.151 56.067,417.838 57.235,418.112 58.677,418.593 67.54,414.334 L71.387,413.235 M57.372,418.731 Q56.273,418.937 55.517,419.899 54.624,420.861 53.937,421.891 53.662,422.234 53.525,422.715 53.525,423.677 54.143,424.227 54.968,424.708 55.861,425.051 57.303,425.601 58.815,424.845 59.914,424.295 60.945,423.677 61.425,423.54 61.906,423.265 M76.265,428.761 Q77.295,432.265 78.6,437.28 80.318,442.707 82.035,444.905 83.753,447.104 86.913,449.096 88.631,450.195 91.31,451.775 M83.753,356.969 Q84.234,362.946 84.303,369.061 M71.799,630.396 Q74.616,631.357 77.707,630.739 80.249,630.258 82.104,629.022 M46.38,547.956 Q47.754,554.001 52.769,586.084 57.441,616.312 58.059,622.152 M105.462,545.208 Q102.852,555.787 97.562,581.825 91.31,612.877 91.722,617.343 92.409,624.419 93.027,626.548 94.264,631.083 97.905,635.205 101.409,639.12 101.684,647.433 101.89,652.036 101.34,660.623 101.34,665.433 99.004,674.707 97.768,679.86 95.157,688.791 L91.035,703.905 M-1.71,556.887 L9.832,584.779 Q21.854,614.182 24.396,621.465 M27.144,631.77 Q26.114,636.235 22.953,648.532 20.618,659.868 22.335,666.807 24.74,676.493 26.732,682.264 29.343,690.027 32.64,695.661 M38.136,631.083 L42.327,631.701 Q46.998,632.182 49.128,631.77" test="Rihanna Body"/>
      </g>
      <g id="Rihanna-Headf1r1">
        <path id="Layer2_0_1_STROKES" stroke="#F60" stroke-width="2.748" stroke-linejoin="round" stroke-linecap="round" fill="none" d="M92.338,204.804 L97.078,198.621 Q102.299,192.232 104.429,190.996 109.581,188.11 114.253,188.522 114.459,188.522 114.734,188.591 116.314,188.728 118.925,189.072 119.543,189.141 120.299,189.209 121.467,189.347 122.84,189.553 126.688,189.553 131.359,190.034 135.962,190.515 136.649,190.515 138.504,190.515 137.68,192.507 136.855,194.568 134.039,196.698 132.596,197.797 128.749,201.438 125.726,204.255 124.008,205.079 121.947,206.041 118.238,206.041 116.108,206.041 110.887,205.56 109.925,205.491 104.36,204.667 101.063,204.117 98.521,204.392 95.841,204.667 93.712,204.736 L92.338,204.804Z M-7.552,232.284 Q-4.392,246.505 1.035,254.2 5.089,259.833 28.515,288.756 54.278,320.426 59.224,324.754 64.514,329.357 73.857,330.25 81.895,331.006 89.246,329.014 96.46,327.09 117.001,306.549 138.642,285.046 142.626,273.71 147.916,258.665 150.595,246.849 154.305,230.773 154.03,217.926 153.893,211.399 154.374,211.468 154.717,211.468 155.748,215.659 158.702,227.475 160.282,226.994 163.511,226.033 166.19,220.811 169.35,214.491 167.427,207.484 166.053,202.537 164.061,198.553 162.618,195.736 162.137,191.751 161.656,187.904 165.366,183.439 169.076,178.836 168.87,175.057 168.526,170.042 167.496,169.286 165.709,169.149 164.061,168.874 161.862,168.531 158.908,171.897 156.504,174.576 155.473,176.981 M59.087,241.765 Q60.53,238.673 61.835,237.505 63.14,236.269 65.064,236.269 65.957,236.269 70.628,239.773 75.231,243.276 78.529,243.414 81.827,243.551 86.155,239.773 90.483,235.994 92.475,235.857 95.567,235.651 96.666,236.475 97.147,236.818 98.933,239.429 M98.452,228.643 Q100.857,229.742 102.368,232.147 104.154,234.895 102.711,237.025 M72.277,203.155 L71.316,229.399 M57.713,230.086 Q50.568,234.345 53.385,239.635" test="Rihanna Head"/>
        <path id="Layer2_0_2_STROKES" stroke="#FFF" stroke-width="2.748" stroke-linejoin="round" stroke-linecap="round" fill="none" d="M118.925,189.072 L116.177,196.492 124.695,194.018 Q125.245,195.392 125.245,197.041 125.245,200.614 122.634,203.155 120.161,205.697 116.52,205.697 112.948,205.697 110.337,203.155 107.864,200.614 107.864,197.041 107.864,193.469 110.337,190.858 112.261,189.072 114.734,188.591" test="Rihanna Head"/>
        <path id="Layer2_0_3_STROKES" stroke="#F00" stroke-width="2.748" stroke-linejoin="round" stroke-linecap="round" fill="none" d="M128.955,85.335 Q120.505,107.044 112.536,121.334 94.811,153.073 73.995,173.683 53.11,194.293 22.058,212.361 -9.064,230.429 -12.018,231.46 -14.972,232.422 -17.033,228.712 L-18.338,224.384 -19.437,233.727 Q-21.086,236.475 -23.422,234.483 -28.093,230.498 -31.528,206.797 -35.857,177.118 -34.895,168.531 -33.727,157.813 -22.185,131.501 -11.399,106.975 -1.369,94.266 5.982,84.991 14.088,80.938 22.882,76.541 25.08,76.541 23.157,75.442 19.79,75.167 13.058,74.618 5.844,78.74 1.722,81.075 1.722,80.114 1.654,79.289 4.883,76.335 13.264,68.709 22.882,64.45 33.187,59.916 45.209,57.718 57.232,55.519 64.652,56.756 71.659,57.924 81.14,61.565 90.002,65 92.681,67.198 94.605,68.847 97.834,68.503 105.666,67.748 107.52,67.748 112.948,67.748 122.566,71.183 133.626,75.099 135.55,75.442 151.42,78.053 153.687,80.938 154.374,81.763 152.656,81.625 149.702,81.213 147.298,81.075 137.061,80.457 128.955,85.335Z M135.55,95.228 Q137.405,92.755 138.367,91.861 138.848,91.312 139.947,90.281 M133.352,127.654 Q134.313,125.799 135.825,122.502 135.894,122.364 137.748,120.509 M138.848,113.364 Q142.557,111.853 143.725,111.097 144.55,110.548 144.893,109.517 M125.108,119.96 Q128.337,115.906 129.298,114.876 130.191,113.914 130.604,113.914 M146.542,105.67 Q149.29,105.052 150.801,104.159 151.626,103.678 152.588,102.922 M154.236,121.059 L156.984,120.509 Q157.74,120.303 158.084,119.96 M146.542,126.005 Q147.779,123.257 149.84,121.746 150.939,120.922 152.588,119.96 M92.681,97.426 Q90.826,100.105 79.834,119.616 72.552,132.601 64.102,139.745 M159.732,139.196 Q162.755,138.852 162.961,138.715 163.236,138.509 164.129,137.547 M153.137,151.837 Q155.061,151.081 156.229,150.325 156.984,149.913 158.084,149.089 M151.488,135.349 Q154.58,131.639 155.473,130.746 155.954,130.265 156.984,129.303 M161.931,154.035 Q163.511,153.691 164.404,153.279 165.091,152.936 165.228,152.936 M143.794,150.188 Q147.366,146.066 147.504,145.722 147.504,145.035 148.74,142.493 M138.848,135.898 L141.046,132.601 M156.435,165.027 Q158.358,162.622 159.801,161.523 161.106,160.493 161.381,160.081 M52.011,104.571 Q49.469,106.975 45.965,112.128 41.981,118.448 39.713,121.677 31.263,133.975 22.882,137.547 M38.82,154.585 Q27.691,164.477 19.859,171.073 5.089,183.507 -.751,185.912" test="Rihanna Head"/>
        <path id="Layer1_0_1_STROKES" stroke="#F0F" stroke-width="2.748" stroke-linejoin="round" stroke-linecap="round" fill="none" d="M147.779,164.546 L148.053,164.546 148.053,164.89 Q147.911,164.718 147.779,164.546 L146.954,164.546 M55.171,271.718 Q63.071,258.459 72.758,258.459 73.857,258.459 76.605,259.352 79.353,260.245 79.972,260.245 81.414,260.245 84.231,259.009 87.048,257.772 88.216,257.772 91.857,257.772 97.696,264.23 100.134,266.938 104.257,272.577 104.44,272.669 104.635,272.749 L104.36,272.749 Q104.301,272.667 104.257,272.577 100.793,271.137 96.116,268.214 93.506,266.566 89.384,266.566 88.078,266.566 85.33,267.802 82.582,268.97 79.285,268.97 76.056,268.97 74.132,267.459 72.209,265.879 69.255,265.879 67.125,265.879 61.629,269.382 58.948,271.105 55.377,273.436 58.066,277.718 63.621,281.886 71.316,287.656 78.804,287.656 86.429,287.656 91.513,284.428 91.788,284.221 105.047,273.573 104.017,277.351 97.696,286.626 89.384,298.717 83.201,298.717 71.316,298.717 65.339,293.221 59.774,288.137 54.827,273.779 55.104,273.599 55.377,273.436 55.271,273.257 55.171,273.092" test="Rihanna Head"/>
        <path id="Layer1_0_2_STROKES" stroke="#F60" stroke-width="2.748" stroke-linejoin="round" stroke-linecap="round" fill="none" d="M101.544,166.951 Q108.688,157.539 113.497,154.585 118.032,151.768 125.657,151.768 134.107,151.768 140.703,157.264 144.076,160.109 147.779,164.546" test="Rihanna Head"/>
      </g>
    </g>
  </g>
</svg>