<?xml version="1.0" encoding="utf-8"?>
<svg id="EdithAnim07" image-rendering="inherit" baseProfile="basic" version="1.1" x="0px" y="0px" width="800" height="600" xmlns="http://www.w3.org/2000/svg" xmlns:xlink="http://www.w3.org/1999/xlink">
  <g id="Rihanna-rearf323r1" overflow="visible">
    <g id="RihannaWholeBodyf29r1">
      <g id="Rihanna-Body">
        <path id="Layer3_0_1_STROKES" stroke="#F60" stroke-width="1.374" stroke-linejoin="round" stroke-linecap="round" fill="none" d="M62.427,329.833 Q65.381,331.276 71.221,333.886 76.579,336.497 82.006,339.795 90.663,345.016 106.051,360.405 106.601,360.954 101.105,346.321 94.51,328.734 94.372,321.933 94.166,312.727 94.098,312.589 93.96,311.834 91.281,309.91 89.632,308.742 84.274,307.643 79.808,306.75 79.258,305.101 78.571,302.971 79.121,302.422 79.327,302.078 82.006,300.979 83.587,300.361 86.197,302.078 88.533,303.727 89.563,302.696 90.731,301.597 90.869,298.437 91.006,294.04 91.624,292.048 92.792,288.27 93.685,287.376 94.785,286.277 96.777,287.583 98.975,288.956 103.578,295.346 108.319,302.01 110.86,307.506 113.402,313.07 118.486,336.153 123.501,358.893 123.57,364.526 123.57,364.87 124.463,375.175 124.944,380.877 123.57,382.732 121.921,384 106.189,384.312 91.144,383.625 82.35,381.358 77.472,380.121 69.091,374.419 L61.603,369.061 Q61.603,370.16 61.603,371.259 61.671,381.839 60.366,384.793 54.114,399.151 51.778,402.311 M6.78,289.987 Q5.956,293.834 4.307,301.666 1.765,308.124 -5.93,311.284 -9.571,312.795 -20.975,316.23 -29.768,318.91 -34.028,321.452 -36.158,322.757 -37.875,324.337 -43.577,329.627 -46.6,334.23 -49.76,338.97 -51.272,344.603 -52.714,350.1 -51.684,360.611 -50.722,370.572 -48.524,376.549 -48.455,376.755 -48.317,376.961 -46.188,382.938 -42.959,393 -39.386,405.953 -37.875,412.96 -36.776,417.838 -33.547,431.165 -30.936,442.845 -31.349,446.28 -31.761,449.852 -31.761,452.119 -31.829,453.699 -31.692,453.837 M-34.028,321.452 Q-53.126,328.665 -60.409,343.436 -67.76,358.206 -56.149,370.023 -53.195,373.664 -50.585,375.518 -49.485,376.343 -48.317,376.961 M50.404,418.044 Q49.374,418.25 48.55,418.593 47.519,419.006 46.42,419.349 45.321,419.899 44.29,420.517 43.122,421.204 42.023,421.685 41.199,422.097 40.443,422.509 L39.206,423.265 Q38.382,424.158 37.832,425.257 37.283,426.15 37.214,427.181 37.214,427.868 37.42,428.555 37.901,428.761 38.451,429.036 42.16,428.692 45.252,427.524 48.343,426.288 48.618,426.425 L52.122,424.639 Q52.328,425.051 56.313,425.189 60.229,425.257 61.534,422.166 61.328,418.731 58.717,416.464 58.717,415.158 59.335,413.991 59.335,412.823 58.374,412.204 57.549,411.655 56.656,411.174 L56.587,410.006 Q57.824,408.426 57.068,406.571 57,406.296 56.931,406.09 55.213,405.197 53.084,405.403 52.74,405.403 52.397,405.472 L51.572,406.365 Q48.343,406.64 45.458,407.739 44.428,408.014 43.397,408.357 41.542,408.769 40.168,409.113 38.932,409.594 37.764,410.281 36.664,410.762 35.634,411.38 34.81,411.861 34.054,412.41 33.161,413.166 32.542,414.128 31.924,414.884 31.855,415.777 31.855,416.67 32.542,417.151 33.367,417.838 34.535,418.112 35.977,418.593 44.84,414.334 L48.687,413.235 M34.672,418.731 Q33.573,418.937 32.817,419.899 31.924,420.861 31.237,421.891 30.962,422.234 30.825,422.715 30.825,423.677 31.443,424.227 32.268,424.708 33.161,425.051 34.603,425.601 36.115,424.845 37.214,424.295 38.245,423.677 38.725,423.54 39.206,423.265 M53.565,428.761 Q54.595,432.265 55.9,437.28 57.618,442.707 59.335,444.905 61.053,447.104 64.213,449.096 65.931,450.195 68.61,451.775 M61.053,356.969 Q61.534,362.946 61.603,369.061 M49.099,630.396 Q51.916,631.357 55.007,630.739 57.549,630.258 59.404,629.022 M23.68,547.956 Q25.054,554.001 30.069,586.084 34.741,616.312 35.359,622.152 M82.762,545.208 Q80.152,555.787 74.862,581.825 68.61,612.877 69.022,617.343 69.709,624.419 70.327,626.548 71.564,631.083 75.205,635.205 78.709,639.12 78.984,647.433 79.19,652.036 78.64,660.623 78.64,665.433 76.304,674.707 75.068,679.86 72.457,688.791 L68.335,703.905 M-24.41,556.887 L-12.868,584.779 Q-.846,614.182 1.696,621.465 M4.444,631.77 Q3.414,636.235 .253,648.532 -2.082,659.868 -.365,666.807 2.04,676.493 4.032,682.264 6.643,690.027 9.94,695.661 M15.436,631.083 L19.627,631.701 Q24.298,632.182 26.428,631.77" test="Rihanna Body"/>
      </g>
      <g id="Rihanna-Headf1r1">
        <path id="Layer2_0_1_STROKES" stroke="#F60" stroke-width="2.748" stroke-linejoin="round" stroke-linecap="round" fill="none" d="M69.638,204.804 L74.378,198.621 Q79.599,192.232 81.729,190.996 86.881,188.11 91.553,188.522 91.759,188.522 92.034,188.591 93.614,188.728 96.225,189.072 96.843,189.141 97.599,189.209 98.767,189.347 100.141,189.553 103.988,189.553 108.659,190.034 113.262,190.515 113.949,190.515 115.804,190.515 114.98,192.507 114.155,194.568 111.339,196.698 109.896,197.797 106.049,201.438 103.026,204.255 101.308,205.079 99.247,206.041 95.538,206.041 93.408,206.041 88.187,205.56 87.225,205.491 81.66,204.667 78.363,204.117 75.821,204.392 73.141,204.667 71.012,204.736 L69.638,204.804Z M-30.252,232.284 Q-27.092,246.505 -21.665,254.2 -17.611,259.833 5.815,288.756 31.578,320.426 36.524,324.754 41.814,329.357 51.157,330.25 59.195,331.006 66.546,329.014 73.76,327.09 94.301,306.549 115.941,285.046 119.926,273.71 125.216,258.665 127.895,246.849 131.605,230.773 131.33,217.926 131.193,211.399 131.674,211.468 132.017,211.468 133.048,215.659 136.002,227.475 137.582,226.994 140.811,226.033 143.49,220.811 146.65,214.491 144.727,207.484 143.353,202.537 141.361,198.553 139.918,195.736 139.437,191.751 138.956,187.904 142.666,183.439 146.376,178.836 146.17,175.057 145.826,170.042 144.796,169.286 143.009,169.149 141.361,168.874 139.162,168.531 136.208,171.897 133.804,174.576 132.773,176.981 M36.387,241.765 Q37.83,238.673 39.135,237.505 40.44,236.269 42.364,236.269 43.257,236.269 47.929,239.773 52.531,243.276 55.829,243.414 59.127,243.551 63.455,239.773 67.783,235.994 69.775,235.857 72.867,235.651 73.966,236.475 74.447,236.818 76.233,239.429 M75.752,228.643 Q78.157,229.742 79.668,232.147 81.454,234.895 80.011,237.025 M49.577,203.155 L48.616,229.399 M35.013,230.086 Q27.868,234.345 30.685,239.635" test="Rihanna Head"/>
        <path id="Layer2_0_2_STROKES" stroke="#FFF" stroke-width="2.748" stroke-linejoin="round" stroke-linecap="round" fill="none" d="M96.225,189.072 L93.477,196.492 101.995,194.018 Q102.545,195.392 102.545,197.041 102.545,200.614 99.934,203.155 97.461,205.697 93.82,205.697 90.248,205.697 87.637,203.155 85.164,200.614 85.164,197.041 85.164,193.469 87.637,190.858 89.561,189.072 92.034,188.591" test="Rihanna Head"/>
        <path id="Layer2_0_3_STROKES" stroke="#F00" stroke-width="2.748" stroke-linejoin="round" stroke-linecap="round" fill="none" d="M106.255,85.335 Q97.805,107.044 89.836,121.334 72.111,153.073 51.295,173.683 30.41,194.293 -.642,212.361 -31.763,230.429 -34.718,231.46 -37.672,232.422 -39.733,228.712 L-41.038,224.384 -42.137,233.727 Q-43.786,236.475 -46.122,234.483 -50.793,230.498 -54.228,206.797 -58.557,177.118 -57.595,168.531 -56.427,157.813 -44.885,131.501 -34.099,106.975 -24.069,94.266 -16.718,84.991 -8.612,80.938 .182,76.541 2.38,76.541 .457,75.442 -2.91,75.167 -9.642,74.618 -16.856,78.74 -20.978,81.075 -20.978,80.114 -21.046,79.289 -17.817,76.335 -9.436,68.709 .182,64.45 10.487,59.916 22.509,57.718 34.532,55.519 41.952,56.756 48.959,57.924 58.44,61.565 67.302,65 69.981,67.198 71.905,68.847 75.134,68.503 82.965,67.748 84.82,67.748 90.248,67.748 99.866,71.183 110.926,75.099 112.85,75.442 128.72,78.053 130.987,80.938 131.674,81.763 129.956,81.625 127.002,81.213 124.598,81.075 114.361,80.457 106.255,85.335Z M112.85,95.228 Q114.705,92.755 115.667,91.861 116.148,91.312 117.247,90.281 M110.652,127.654 Q111.613,125.799 113.125,122.502 113.194,122.364 115.048,120.509 M116.148,113.364 Q119.857,111.853 121.025,111.097 121.85,110.548 122.193,109.517 M102.408,119.96 Q105.637,115.906 106.598,114.876 107.491,113.914 107.904,113.914 M123.842,105.67 Q126.59,105.052 128.101,104.159 128.926,103.678 129.888,102.922 M131.536,121.059 L134.284,120.509 Q135.04,120.303 135.384,119.96 M123.842,126.005 Q125.079,123.257 127.14,121.746 128.239,120.922 129.888,119.96 M69.981,97.426 Q68.126,100.105 57.134,119.616 49.852,132.601 41.402,139.745 M137.032,139.196 Q140.055,138.852 140.261,138.715 140.536,138.509 141.429,137.547 M130.437,151.837 Q132.361,151.081 133.529,150.325 134.284,149.913 135.384,149.089 M128.788,135.349 Q131.88,131.639 132.773,130.746 133.254,130.265 134.284,129.303 M139.231,154.035 Q140.811,153.691 141.704,153.279 142.391,152.936 142.528,152.936 M121.094,150.188 Q124.666,146.066 124.804,145.722 124.804,145.035 126.04,142.493 M116.148,135.898 L118.346,132.601 M133.735,165.027 Q135.658,162.622 137.101,161.523 138.406,160.493 138.681,160.081 M29.311,104.571 Q26.769,106.975 23.265,112.128 19.281,118.448 17.013,121.677 8.563,133.975 .182,137.547 M16.12,154.585 Q4.991,164.477 -2.841,171.073 -17.611,183.507 -23.451,185.912" test="Rihanna Head"/>
        <path id="Layer1_0_1_STROKES" stroke="#F0F" stroke-width="2.748" stroke-linejoin="round" stroke-linecap="round" fill="none" d="M125.079,164.546 L125.353,164.546 125.353,164.89 Q125.211,164.718 125.079,164.546 L124.254,164.546 M32.471,271.718 Q40.372,258.459 50.058,258.459 51.157,258.459 53.905,259.352 56.653,260.245 57.272,260.245 58.714,260.245 61.531,259.009 64.348,257.772 65.516,257.772 69.157,257.772 74.996,264.23 77.434,266.938 81.557,272.577 81.74,272.669 81.935,272.749 L81.66,272.749 Q81.601,272.667 81.557,272.577 78.093,271.137 73.416,268.214 70.806,266.566 66.684,266.566 65.378,266.566 62.63,267.802 59.882,268.97 56.585,268.97 53.356,268.97 51.432,267.459 49.509,265.879 46.555,265.879 44.425,265.879 38.929,269.382 36.248,271.105 32.677,273.436 35.366,277.718 40.921,281.886 48.616,287.656 56.104,287.656 63.73,287.656 68.813,284.428 69.088,284.221 82.347,273.573 81.317,277.351 74.996,286.626 66.684,298.717 60.501,298.717 48.616,298.717 42.639,293.221 37.074,288.137 32.127,273.779 32.404,273.599 32.677,273.436 32.571,273.257 32.471,273.092" test="Rihanna Head"/>
        <path id="Layer1_0_2_STROKES" stroke="#F60" stroke-width="2.748" stroke-linejoin="round" stroke-linecap="round" fill="none" d="M78.844,166.951 Q85.988,157.539 90.797,154.585 95.332,151.768 102.957,151.768 111.407,151.768 118.003,157.264 121.376,160.109 125.079,164.546" test="Rihanna Head"/>
      </g>
    </g>
  </g>
</svg>