<?xml version="1.0" encoding="utf-8"?>
<svg id="EdithAnim07" image-rendering="inherit" baseProfile="basic" version="1.1" x="0px" y="0px" width="800" height="600" xmlns="http://www.w3.org/2000/svg" xmlns:xlink="http://www.w3.org/1999/xlink">
  <g id="Rihanna-rearf325r1" overflow="visible">
    <g id="RihannaWholeBodyf29r1">
      <g id="Rihanna-Body">
        <path id="Layer3_0_1_STROKES" stroke="#F60" stroke-width="1.374" stroke-linejoin="round" stroke-linecap="round" fill="none" d="M14.827,329.833 Q17.781,331.276 23.621,333.886 28.979,336.497 34.406,339.795 43.063,345.016 58.451,360.405 59.001,360.954 53.505,346.321 46.91,328.734 46.772,321.933 46.566,312.727 46.498,312.589 46.36,311.834 43.681,309.91 42.032,308.742 36.674,307.643 32.208,306.75 31.658,305.101 30.971,302.971 31.521,302.422 31.727,302.078 34.406,300.979 35.987,300.361 38.597,302.078 40.933,303.727 41.963,302.696 43.131,301.597 43.269,298.437 43.406,294.04 44.024,292.048 45.192,288.27 46.085,287.376 47.185,286.277 49.177,287.583 51.375,288.956 55.978,295.346 60.719,302.01 63.26,307.506 65.802,313.07 70.886,336.153 75.901,358.893 75.97,364.526 75.97,364.87 76.863,375.175 77.344,380.877 75.97,382.732 74.321,384 58.589,384.312 43.544,383.625 34.75,381.358 29.872,380.121 21.491,374.419 L14.003,369.061 Q14.003,370.16 14.003,371.259 14.071,381.839 12.766,384.793 6.514,399.151 4.178,402.311 M-40.82,289.987 Q-41.644,293.834 -43.293,301.666 -45.835,308.124 -53.53,311.284 -57.171,312.795 -68.575,316.23 -77.368,318.91 -81.628,321.452 -83.758,322.757 -85.475,324.337 -91.177,329.627 -94.2,334.23 -97.36,338.97 -98.872,344.603 -100.314,350.1 -99.284,360.611 -98.322,370.572 -96.124,376.549 -96.055,376.755 -95.917,376.961 -93.788,382.938 -90.559,393 -86.986,405.953 -85.475,412.96 -84.376,417.838 -81.147,431.165 -78.536,442.845 -78.949,446.28 -79.361,449.852 -79.361,452.119 -79.429,453.699 -79.292,453.837 M-81.628,321.452 Q-100.726,328.665 -108.009,343.436 -115.36,358.206 -103.749,370.023 -100.795,373.664 -98.185,375.518 -97.085,376.343 -95.917,376.961 M2.804,418.044 Q1.774,418.25 .95,418.593 -.081,419.006 -1.18,419.349 -2.279,419.899 -3.31,420.517 -4.478,421.204 -5.577,421.685 -6.401,422.097 -7.157,422.509 L-8.394,423.265 Q-9.218,424.158 -9.768,425.257 -10.317,426.15 -10.386,427.181 -10.386,427.868 -10.18,428.555 -9.699,428.761 -9.149,429.036 -5.44,428.692 -2.348,427.524 .743,426.288 1.018,426.425 L4.522,424.639 Q4.728,425.051 8.713,425.189 12.629,425.257 13.934,422.166 13.728,418.731 11.117,416.464 11.117,415.158 11.735,413.991 11.735,412.823 10.774,412.204 9.949,411.655 9.056,411.174 L8.987,410.006 Q10.224,408.426 9.468,406.571 9.4,406.296 9.331,406.09 7.613,405.197 5.484,405.403 5.14,405.403 4.797,405.472 L3.972,406.365 Q0.743,406.64 -2.142,407.739 -3.172,408.014 -4.203,408.357 -6.058,408.769 -7.432,409.113 -8.668,409.594 -9.836,410.281 -10.936,410.762 -11.966,411.38 -12.79,411.861 -13.546,412.41 -14.439,413.166 -15.058,414.128 -15.676,414.884 -15.745,415.777 -15.745,416.67 -15.058,417.151 -14.233,417.838 -13.065,418.112 -11.623,418.593 -2.76,414.334 L1.087,413.235 M-12.928,418.731 Q-14.027,418.937 -14.783,419.899 -15.676,420.861 -16.363,421.891 -16.638,422.234 -16.775,422.715 -16.775,423.677 -16.157,424.227 -15.332,424.708 -14.439,425.051 -12.997,425.601 -11.485,424.845 -10.386,424.295 -9.355,423.677 -8.875,423.54 -8.394,423.265 M5.965,428.761 Q6.995,432.265 8.3,437.28 10.018,442.707 11.735,444.905 13.453,447.104 16.613,449.096 18.331,450.195 21.01,451.775 M13.453,356.969 Q13.934,362.946 14.003,369.061 M1.499,630.396 Q4.316,631.357 7.407,630.739 9.949,630.258 11.804,629.022 M-23.92,547.956 Q-22.546,554.001 -17.531,586.084 -12.859,616.312 -12.241,622.152 M35.162,545.208 Q32.552,555.787 27.262,581.825 21.01,612.877 21.422,617.343 22.109,624.419 22.727,626.548 23.964,631.083 27.605,635.205 31.109,639.12 31.384,647.433 31.59,652.036 31.04,660.623 31.04,665.433 28.704,674.707 27.468,679.86 24.857,688.791 L20.735,703.905 M-72.01,556.887 L-60.468,584.779 Q-48.446,614.182 -45.904,621.465 M-43.156,631.77 Q-44.186,636.235 -47.347,648.532 -49.682,659.868 -47.965,666.807 -45.56,676.493 -43.568,682.264 -40.957,690.027 -37.66,695.661 M-32.164,631.083 L-27.973,631.701 Q-23.302,632.182 -21.172,631.77" test="Rihanna Body"/>
      </g>
      <g id="Rihanna-Headf1r1">
        <path id="Layer2_0_1_STROKES" stroke="#F60" stroke-width="2.748" stroke-linejoin="round" stroke-linecap="round" fill="none" d="M22.038,204.804 L26.778,198.621 Q31,192.232 34.129,190.996 39.281,188.11 43.953,188.522 44.159,188.522 44.434,188.591 46.014,188.728 48.625,189.072 49.243,189.141 49,189.209 51.167,189.347 52.541,189.553 56.388,189.553 61.059,190.034 65.662,190.515 66.349,190.515 68.204,190.515 67.38,192.507 66.555,194.568 63.739,196.698 62.296,197.797 58.449,201.438 55.426,204.255 53.708,205.079 51.647,206.041 47.938,206.041 45.808,206.041 40.587,205.56 39.625,205.491 34.06,204.667 30.763,204.117 28.221,204.392 25.541,204.667 23.412,204.736 L22.038,204.804Z M-77.852,232.284 Q-74.692,246.505 -69.265,254.2 -65.211,259.833 -41.785,288.756 -16.022,320.426 -11.076,324.754 -5.786,329.357 3.557,330.25 11.595,331.006 18.946,329.014 26.16,327.09 46.701,306.549 68.342,285.046 72.326,273.71 77.616,258.665 80.295,246.849 84.005,230.773 83.73,217.926 83.593,211.399 84.074,211.468 84.417,211.468 85.448,215.659 88.402,227.475 89.982,226.994 93.211,226.033 95.89,220.811 99.05,214.491 97.127,207.484 95.753,202.537 93.761,198.553 92.318,195.736 91.837,191.751 91.356,187.904 95.066,183.439 98.776,178.836 98.57,175.057 98.226,170.042 97.196,169.286 95.409,169.149 93.761,168.874 91.562,168.531 88.608,171.897 86.204,174.576 85.173,176.981 M-11.213,241.765 Q-9.77,238.673 -8.465,237.505 -7.16,236.269 -5.236,236.269 -4.343,236.269 .329,239.773 4.931,243.276 8.229,243.414 11.527,243.551 15.855,239.773 20.183,235.994 22.175,235.857 25.267,235.651 26.366,236.475 26.847,236.818 28.633,239.429 M28.152,228.643 Q30.557,229.742 32.068,232.147 33.854,234.895 32.411,237.025 M1.977,203.155 L1.016,229.399 M-12.587,230.086 Q-19.732,234.345 -16.915,239.635" test="Rihanna Head"/>
        <path id="Layer2_0_2_STROKES" stroke="#FFF" stroke-width="2.748" stroke-linejoin="round" stroke-linecap="round" fill="none" d="M48.625,189.072 L45.877,196.492 54.395,194.018 Q54.945,195.392 54.945,197.041 54.945,200.614 52.334,203.155 49.861,205.697 46.22,205.697 42.648,205.697 40.037,203.155 37.564,200.614 37.564,197.041 37.564,193.469 40.037,190.858 41.961,189.072 44.434,188.591" test="Rihanna Head"/>
        <path id="Layer2_0_3_STROKES" stroke="#F00" stroke-width="2.748" stroke-linejoin="round" stroke-linecap="round" fill="none" d="M58.655,85.335 Q50.205,107.044 42.236,121.334 24.511,153.073 3.695,173.683 -17.19,194.293 -48.242,212.361 -79.363,230.429 -82.318,231.46 -85.272,232.422 -87.333,228.712 L-88.638,224.384 -89.737,233.727 Q-91.386,236.475 -93.722,234.483 -98.393,230.498 -101.828,206.797 -106.157,177.118 -105.195,168.531 -104.027,157.813 -92.485,131.501 -81.699,106.975 -71.669,94.266 -64.318,84.991 -56.212,80.938 -47.418,76.541 -45.22,76.541 -47.143,75.442 -50.51,75.167 -57.242,74.618 -64.456,78.74 -68.578,81.075 -68.578,80.114 -68.646,79.289 -65.417,76.335 -57.036,68.709 -47.418,64.45 -37.113,59.916 -25.091,57.718 -13.068,55.519 -5.648,56.756 1.359,57.924 10.84,61.565 19.702,65 22.381,67.198 24.305,68.847 27.534,68.503 35.366,67.748 37.22,67.748 42.648,67.748 52.266,71.183 63.326,75.099 65.25,75.442 81.12,78.053 83.387,80.938 84.074,81.763 82.356,81.625 79.402,81.213 76.998,81.075 66.761,80.457 58.655,85.335Z M65.25,95.228 Q67.105,92.755 68.067,91.861 68.548,91.312 69.647,90.281 M63.052,127.654 Q64.013,125.799 65.525,122.502 65.594,122.364 67.448,120.509 M68.548,113.364 Q72.257,111.853 73.425,111.097 74.25,110.548 74.593,109.517 M54.808,119.96 Q58.037,115.906 58.998,114.876 59.891,113.914 60.304,113.914 M76.242,105.67 Q78.99,105.052 80.501,104.159 81.326,103.678 82.288,102.922 M83.936,121.059 L86.684,120.509 Q87.44,120.303 87.784,119.96 M76.242,126.005 Q77.479,123.257 79.54,121.746 80.639,120.922 82.288,119.96 M22.381,97.426 Q20.526,100.105 9.534,119.616 2.252,132.601 -6.198,139.745 M89.432,139.196 Q92.455,138.852 92.661,138.715 92.936,138.509 93.829,137.547 M82.837,151.837 Q84.761,151.081 85.929,150.325 86.684,149.913 87.784,149.089 M81.188,135.349 Q84.28,131.639 85.173,130.746 85.654,130.265 86.684,129.303 M91.631,154.035 Q93.211,153.691 94.104,153.279 94.791,152.936 94.928,152.936 M73.494,150.188 Q77.066,146.066 77.204,145.722 77.204,145.035 78.44,142.493 M68.548,135.898 L70.746,132.601 M86.135,165.027 Q88.058,162.622 89.501,161.523 90.806,160.493 91.081,160.081 M-18.289,104.571 Q-20.831,106.975 -24.335,112.128 -28.319,118.448 -30.586,121.677 -39.037,133.975 -47.418,137.547 M-31.48,154.585 Q-42.609,164.477 -50.441,171.073 -65.211,183.507 -71.051,185.912" test="Rihanna Head"/>
        <path id="Layer1_0_1_STROKES" stroke="#F0F" stroke-width="2.748" stroke-linejoin="round" stroke-linecap="round" fill="none" d="M77.479,164.546 L77.753,164.546 77.753,164.89 Q77.611,164.718 77.479,164.546 L76.654,164.546 M-15.129,271.718 Q-7.228,258.459 2.458,258.459 3.557,258.459 6.305,259.352 9.053,260.245 9.672,260.245 11.114,260.245 13.931,259.009 16.748,257.772 17.916,257.772 21.557,257.772 27.396,264.23 29.834,266.938 33.957,272.577 34.14,272.669 34.335,272.749 L34.06,272.749 Q34.001,272.667 33.957,272.577 30.493,271.137 25.816,268.214 23.206,266.566 19.084,266.566 17.778,266.566 15.03,267.802 12.282,268.97 8.985,268.97 5.756,268.97 3.832,267.459 1.909,265.879 -1.045,265.879 -3.175,265.879 -8.671,269.382 -11.352,271.105 -14.923,273.436 -12.234,277.718 -6.679,281.886 1.016,287.656 8.504,287.656 16.13,287.656 21.213,284.428 21.488,284.221 34.747,273.573 33.717,277.351 27.396,286.626 19.084,298.717 12.901,298.717 1.016,298.717 -4.961,293.221 -10.526,288.137 -15.472,273.779 -15.196,273.599 -14.923,273.436 -15.029,273.257 -15.129,273.092" test="Rihanna Head"/>
        <path id="Layer1_0_2_STROKES" stroke="#F60" stroke-width="2.748" stroke-linejoin="round" stroke-linecap="round" fill="none" d="M31.244,166.951 Q38.388,157.539 43.197,154.585 47.732,151.768 55.357,151.768 63.807,151.768 70.403,157.264 73.776,160.109 77.479,164.546" test="Rihanna Head"/>
      </g>
    </g>
  </g>
</svg>