<?xml version="1.0" encoding="utf-8"?>
<svg id="EdithAnim07" image-rendering="inherit" baseProfile="basic" version="1.1" x="0px" y="0px" width="800" height="600" xmlns="http://www.w3.org/2000/svg" xmlns:xlink="http://www.w3.org/1999/xlink">
  <g id="Rihanna-rearf328r1" overflow="visible">
    <g id="RihannaWholeBodyf29r1">
      <g id="Rihanna-Body">
        <path id="Layer3_0_1_STROKES" stroke="#F60" stroke-width="1.374" stroke-linejoin="round" stroke-linecap="round" fill="none" d="M-61.923,329.833 Q-58.969,331.276 -53.129,333.886 -47.771,336.497 -42.344,339.795 -33.687,345.016 -18.299,360.405 -17.749,360.954 -23.245,346.321 -29.84,328.734 -29.978,321.933 -30.184,312.727 -30.252,312.589 -30.39,311.834 -33.069,309.91 -34.718,308.742 -40.076,307.643 -44.542,306.75 -45.092,305.101 -45.779,302.971 -45.229,302.422 -45.023,302.078 -42.344,300.979 -40.763,300.361 -38.153,302.078 -35.817,303.727 -34.787,302.696 -33.619,301.597 -33.481,298.437 -33.344,294.04 -32.726,292.048 -31.558,288.27 -30.665,287.376 -29.565,286.277 -27.573,287.583 -25.375,288.956 -20.772,295.346 -16.031,302.01 -13.49,307.506 -10.948,313.07 -5.864,336.153 -.849,358.893 -.78,364.526 -.78,364.87 .113,375.175 .594,380.877 -.78,382.732 -2.429,384 -18.161,384.312 -33.206,383.625 -42,381.358 -46.878,380.121 -55.259,374.419 L-62.747,369.061 Q-62.747,370.16 -62.747,371.259 -62.679,381.839 -63.984,384.793 -70.236,399.151 -72.572,402.311 M-117.57,289.987 Q-118.394,293.834 -120.043,301.666 -122.585,308.124 -130.28,311.284 -133.921,312.795 -145.325,316.23 -154.118,318.91 -158.378,321.452 -160.508,322.757 -162.225,324.337 -167.927,329.627 -170.95,334.23 -174.11,338.97 -175.622,344.603 -177.064,350.1 -176.034,360.611 -175.072,370.572 -172.874,376.549 -172.805,376.755 -172.667,376.961 -170.538,382.938 -167.309,393 -163.736,405.953 -162.225,412.96 -161.126,417.838 -157.897,431.165 -155.286,442.845 -155.699,446.28 -156.111,449.852 -156.111,452.119 -156.179,453.699 -156.042,453.837 M-158.378,321.452 Q-177.476,328.665 -184.759,343.436 -192.11,358.206 -180.499,370.023 -177.545,373.664 -174.935,375.518 -173.835,376.343 -172.667,376.961 M-73.946,418.044 Q-74.976,418.25 -75.8,418.593 -76.831,419.006 -77.93,419.349 -79.029,419.899 -80.06,420.517 -81.228,421.204 -82.327,421.685 -83.151,422.097 -83.907,422.509 L-85.144,423.265 Q-85.968,424.158 -86.518,425.257 -87.067,426.15 -87.136,427.181 -87.136,427.868 -86.93,428.555 -86.449,428.761 -85.899,429.036 -82.19,428.692 -79.098,427.524 -76.007,426.288 -75.732,426.425 L-72.228,424.639 Q-72.022,425.051 -68.037,425.189 -64.121,425.257 -62.816,422.166 -63.022,418.731 -65.633,416.464 -65.633,415.158 -65.015,413.991 -65.015,412.823 -65.976,412.204 -66.801,411.655 -67.694,411.174 L-67.763,410.006 Q-66.526,408.426 -67.282,406.571 -67.35,406.296 -67.419,406.09 -69.137,405.197 -71.266,405.403 -71.61,405.403 -71.953,405.472 L-72.778,406.365 Q-76.007,406.64 -78.892,407.739 -79.922,408.014 -80.953,408.357 -82.808,408.769 -84.182,409.113 -85.418,409.594 -86.586,410.281 -87.686,410.762 -88.716,411.38 -89.54,411.861 -90.296,412.41 -91.189,413.166 -91.808,414.128 -92.426,414.884 -92.495,415.777 -92.495,416.67 -91.808,417.151 -90.983,417.838 -89.815,418.112 -88.373,418.593 -79.51,414.334 L-75.663,413.235 M-89.678,418.731 Q-90.777,418.937 -91.533,419.899 -92.426,420.861 -93.113,421.891 -93.388,422.234 -93.525,422.715 -93.525,423.677 -92.907,424.227 -92.082,424.708 -91.189,425.051 -89.747,425.601 -88.235,424.845 -87.136,424.295 -86.105,423.677 -85.625,423.54 -85.144,423.265 M-70.785,428.761 Q-69.755,432.265 -68.45,437.28 -66.732,442.707 -65.015,444.905 -63.297,447.104 -60.137,449.096 -58.419,450.195 -55.74,451.775 M-63.297,356.969 Q-62.816,362.946 -62.747,369.061 M-75.251,630.396 Q-72.434,631.357 -69.343,630.739 -66.801,630.258 -64.946,629.022 M-100.67,547.956 Q-99.296,554.001 -94.281,586.084 -89.609,616.312 -88.991,622.152 M-41.588,545.208 Q-44.198,555.787 -49.488,581.825 -55.74,612.877 -55.328,617.343 -54.641,624.419 -54.023,626.548 -52.786,631.083 -49.145,635.205 -45.641,639.12 -45.366,647.433 -45.16,652.036 -45.71,660.623 -45.71,665.433 -48.046,674.707 -49.282,679.86 -51.893,688.791 L-56.015,703.905 M-148.76,556.887 L-137.218,584.779 Q-125.196,614.182 -122.654,621.465 M-119.906,631.77 Q-120.936,636.235 -124.097,648.532 -126.432,659.868 -124.715,666.807 -122.31,676.493 -120.318,682.264 -117.707,690.027 -114.41,695.661 M-108.914,631.083 L-104.723,631.701 Q-100.052,632.182 -97.922,631.77" test="Rihanna Body"/>
      </g>
      <g id="Rihanna-Headf1r1">
        <path id="Layer2_0_1_STROKES" stroke="#F60" stroke-width="2.748" stroke-linejoin="round" stroke-linecap="round" fill="none" d="M-54.712,204.804 L-49.972,198.621 Q-44.751,192.232 -42.621,190.996 -37.469,188.11 -32.797,188.522 -32.591,188.522 -32.316,188.591 -30.736,188.728 -28.125,189.072 -27.507,189.141 -26.751,189.209 -25.583,189.347 -24.209,189.553 -20.362,189.553 -15.691,190.034 -11.088,190.515 -10.401,190.515 -8.546,190.515 -9.37,192.507 -10.195,194.568 -13.011,196.698 -14.454,197.797 -18.301,201.438 -21.324,204.255 -23.042,205.079 -25.103,206.041 -28.812,206.041 -30.942,206.041 -36.163,205.56 -37.125,205.491 -42.69,204.667 -45.987,204.117 -48.529,204.392 -51.209,204.667 -53.338,204.736 L-54.712,204.804Z M-154.602,232.284 Q-151.442,246.505 -146.015,254.2 -141.961,259.833 -118.535,288.756 -92.772,320.426 -87.826,324.754 -82.536,329.357 -73.193,330.25 -65.155,331.006 -57.804,329.014 -50.59,327.09 -30.049,306.549 -8.409,285.046 -4.424,273.71 .866,258.665 3.545,246.849 7.255,230.773 6.98,217.926 6.843,211.399 7.324,211.468 7.667,211.468 8.698,215.659 11.652,227.475 13.232,226.994 16.461,226.033 19.14,220.811 22.3,214.491 20.377,207.484 19.003,202.537 17.011,198.553 15.568,195.736 15.087,191.751 14.606,187.904 18.316,183.439 22.026,178.836 21.82,175.057 21.476,170.042 20.446,169.286 18.659,169.149 17.011,168.874 14.812,168.531 11.858,171.897 9.454,174.576 8.423,176.981 M-87.963,241.765 Q-86.52,238.673 -85.215,237.505 -83.91,236.269 -81.986,236.269 -81.093,236.269 -76.422,239.773 -71.819,243.276 -68.521,243.414 -65.223,243.551 -60.895,239.773 -56.567,235.994 -54.575,235.857 -51.483,235.651 -50.384,236.475 -49.903,236.818 -48.117,239.429 M-48.598,228.643 Q-46.193,229.742 -44.682,232.147 -42.896,234.895 -44.339,237.025 M-74.773,203.155 L-75.734,229.399 M-89.337,230.086 Q-96.482,234.345 -93.665,239.635" test="Rihanna Head"/>
        <path id="Layer2_0_2_STROKES" stroke="#FFF" stroke-width="2.748" stroke-linejoin="round" stroke-linecap="round" fill="none" d="M-28.125,189.072 L-30.873,196.492 -22.355,194.018 Q-21.805,195.392 -21.805,197.041 -21.805,200.614 -24.416,203.155 -26.889,205.697 -30.53,205.697 -34.102,205.697 -36.713,203.155 -39.186,200.614 -39.186,197.041 -39.186,193.469 -36.713,190.858 -34.789,189.072 -32.316,188.591" test="Rihanna Head"/>
        <path id="Layer2_0_3_STROKES" stroke="#F00" stroke-width="2.748" stroke-linejoin="round" stroke-linecap="round" fill="none" d="M-18.095,85.335 Q-26.545,107.044 -34.514,121.334 -52.239,153.073 -73.055,173.683 -93.94,194.293 -124.992,212.361 -156.113,230.429 -159.068,231.46 -162.022,232.422 -164.083,228.712 L-165.388,224.384 -166.487,233.727 Q-168.136,236.475 -170.472,234.483 -175.143,230.498 -178.578,206.797 -182.906,177.118 -181.945,168.531 -180.777,157.813 -169.235,131.501 -158.449,106.975 -148.419,94.266 -141.068,84.991 -132.962,80.938 -124.168,76.541 -121.97,76.541 -123.893,75.442 -127.259,75.167 -133.992,74.618 -141.206,78.74 -145.328,81.075 -145.328,80.114 -145.396,79.289 -142.167,76.335 -133.786,68.709 -124.168,64.45 -113.863,59.916 -101.84,57.718 -89.818,55.519 -82.398,56.756 -75.391,57.924 -65.91,61.565 -57.048,65 -54.369,67.198 -52.445,68.847 -49.216,68.503 -41.384,67.748 -39.53,67.748 -34.102,67.748 -24.484,71.183 -13.424,75.099 -11.5,75.442 4.37,78.053 6.637,80.938 7.324,81.763 5.606,81.625 2.652,81.213 .248,81.075 -9.989,80.457 -18.095,85.335Z M-11.5,95.228 Q-9.645,92.755 -8.683,91.861 -8.202,91.312 -7.103,90.281 M-13.698,127.654 Q-12.737,125.799 -11.225,122.502 -11.156,122.364 -9.302,120.509 M-8.202,113.364 Q-4.493,111.853 -3.325,111.097 -2.5,110.548 -2.157,109.517 M-21.942,119.96 Q-18.713,115.906 -17.752,114.876 -16.859,113.914 -16.446,113.914 M-.508,105.67 Q2.24,105.052 3.751,104.159 4.576,103.678 5.538,102.922 M7.186,121.059 L9.934,120.509 Q10.69,120.303 11.034,119.96 M-.508,126.005 Q0.729,123.257 2.79,121.746 3.889,120.922 5.538,119.96 M-54.369,97.426 Q-56.224,100.105 -67.216,119.616 -74.498,132.601 -82.948,139.745 M12.682,139.196 Q15.705,138.852 15.911,138.715 16.186,138.509 17.079,137.547 M6.087,151.837 Q8.011,151.081 9.179,150.325 9.934,149.913 11.034,149.089 M4.438,135.349 Q7.53,131.639 8.423,130.746 8.904,130.265 9.934,129.303 M14.881,154.035 Q16.461,153.691 17.354,153.279 18.041,152.936 18.178,152.936 M-3.256,150.188 Q0.316,146.066 .454,145.722 .454,145.035 1.69,142.493 M-8.202,135.898 L-6.004,132.601 M9.385,165.027 Q11.308,162.622 12.751,161.523 14.056,160.493 14.331,160.081 M-95.039,104.571 Q-97.581,106.975 -101.085,112.128 -105.069,118.448 -107.336,121.677 -115.787,133.975 -124.168,137.547 M-108.23,154.585 Q-119.359,164.477 -127.191,171.073 -141.961,183.507 -147.801,185.912" test="Rihanna Head"/>
        <path id="Layer1_0_1_STROKES" stroke="#F0F" stroke-width="2.748" stroke-linejoin="round" stroke-linecap="round" fill="none" d="M0.729,164.546 L1.003,164.546 1.003,164.89 Q0.861,164.718 .729,164.546 L-.096,164.546 M-91.879,271.718 Q-83.978,258.459 -74.292,258.459 -73.193,258.459 -70.445,259.352 -67.697,260.245 -67.078,260.245 -65.636,260.245 -62.819,259.009 -60.002,257.772 -58.834,257.772 -55.193,257.772 -49.354,264.23 -46.916,266.938 -42.793,272.577 -42.61,272.669 -42.415,272.749 L-42.69,272.749 Q-42.749,272.667 -42.793,272.577 -46.257,271.137 -50.934,268.214 -53.544,266.566 -57.666,266.566 -58.972,266.566 -61.72,267.802 -64.468,268.97 -67.765,268.97 -70.994,268.97 -72.918,267.459 -74.841,265.879 -77.795,265.879 -79.925,265.879 -85.421,269.382 -88.102,271.105 -91.673,273.436 -88.984,277.718 -83.429,281.886 -75.734,287.656 -68.246,287.656 -60.62,287.656 -55.537,284.428 -55.262,284.221 -42.003,273.573 -43.033,277.351 -49.354,286.626 -57.666,298.717 -63.849,298.717 -75.734,298.717 -81.711,293.221 -87.276,288.137 -92.222,273.779 -91.946,273.599 -91.673,273.436 -91.779,273.257 -91.879,273.092" test="Rihanna Head"/>
        <path id="Layer1_0_2_STROKES" stroke="#F60" stroke-width="2.748" stroke-linejoin="round" stroke-linecap="round" fill="none" d="M-45.506,166.951 Q-38.362,157.539 -33.553,154.585 -29.018,151.768 -21.393,151.768 -12.943,151.768 -6.347,157.264 -2.974,160.109 .729,164.546" test="Rihanna Head"/>
      </g>
    </g>
  </g>
</svg>