<?xml version="1.0" encoding="utf-8"?>
<svg id="EdithAnim07" image-rendering="inherit" baseProfile="basic" version="1.1" x="0px" y="0px" width="800" height="600" xmlns="http://www.w3.org/2000/svg" xmlns:xlink="http://www.w3.org/1999/xlink">
  <g id="Rihanna-rearf4r1" overflow="visible">
    <g id="RihannaWholeBodyf0r1">
      <g id="Rihanna-Body">
        <path id="Layer4_0_1_STROKES" stroke="#F60" stroke-width="1.374" stroke-linejoin="round" stroke-linecap="round" fill="none" d="M826.327,329.833 Q829.281,331.276 835.121,333.886 840.479,336.497 845.906,339.795 854.563,345.016 869.951,360.405 870.501,360.954 865.005,346.321 858.41,328.734 858.272,321.933 858.066,312.727 857.998,312.589 857.86,311.834 855.181,309.91 853.532,308.742 848.174,307.643 843.708,306.75 843.158,305.101 842.471,302.971 843.021,302.422 843.227,302.078 845.906,300.979 847.487,300.361 850.097,302.078 852.433,303.727 853.463,302.696 854.631,301.597 854.769,298.437 854.906,294.04 855.524,292.048 856.692,288.27 857.585,287.376 858.685,286.277 860.677,287.583 862.875,288.956 867.478,295.346 872.219,302.01 874.76,307.506 877.302,313.07 882.386,336.153 887.401,358.893 887.47,364.526 887.47,364.87 888.363,375.175 888.844,380.877 887.47,382.732 885.821,384 870.089,384.312 855.044,383.625 846.25,381.358 841.372,380.121 832.991,374.419 L825.503,369.061 Q825.503,370.16 825.503,371.259 825.571,381.839 824.266,384.793 818.014,399.151 815.678,402.311 M770.68,289.987 Q769.856,293.834 768.207,301.666 765.665,308.124 757.97,311.284 754.329,312.795 742.925,316.23 734.132,318.91 729.872,321.452 727.742,322.757 726.025,324.337 720.323,329.627 717.3,334.23 714.14,338.97 712.628,344.603 711.186,350.1 712.216,360.611 713.178,370.572 715.376,376.549 715.445,376.755 715.583,376.961 717.712,382.938 720.941,393 724.514,405.953 726.025,412.96 727.124,417.838 730.353,431.165 732.964,442.845 732.551,446.28 732.139,449.852 732.139,452.119 732.071,453.699 732.208,453.837 M729.872,321.452 Q710.774,328.665 703.491,343.436 696.14,358.206 707.751,370.023 710.705,373.664 713.315,375.518 714.415,376.343 715.583,376.961 M814.304,418.044 Q813.274,418.25 812.45,418.593 811.419,419.006 810.32,419.349 809.221,419.899 808.19,420.517 807.022,421.204 805.923,421.685 805.099,422.097 804.343,422.509 L803.106,423.265 Q802.282,424.158 801.732,425.257 801.183,426.15 801.114,427.181 801.114,427.868 801.32,428.555 801.801,428.761 802.351,429.036 806.06,428.692 809.152,427.524 812.243,426.288 812.518,426.425 L816.022,424.639 Q816.228,425.051 820.213,425.189 824.129,425.257 825.434,422.166 825.228,418.731 822.617,416.464 822.617,415.158 823.235,413.991 823.235,412.823 822.274,412.204 821.449,411.655 820.556,411.174 L820.487,410.006 Q821.724,408.426 820.968,406.571 820.9,406.296 820.831,406.09 819.113,405.197 816.984,405.403 816.64,405.403 816.297,405.472 L815.472,406.365 Q812.243,406.64 809.358,407.739 808.328,408.014 807.297,408.357 805.442,408.769 804.068,409.113 802.832,409.594 801.664,410.281 800.564,410.762 799.534,411.38 798.71,411.861 797.954,412.41 797.061,413.166 796.442,414.128 795.824,414.884 795.755,415.777 795.755,416.67 796.442,417.151 797.267,417.838 798.435,418.112 799.877,418.593 808.74,414.334 L812.587,413.235 M798.572,418.731 Q797.473,418.937 796.717,419.899 795.824,420.861 795.137,421.891 794.862,422.234 794.725,422.715 794.725,423.677 795.343,424.227 796.168,424.708 797.061,425.051 798.503,425.601 800.015,424.845 801.114,424.295 802.145,423.677 802.625,423.54 803.106,423.265 M817.465,428.761 Q818.495,432.265 819.8,437.28 821.518,442.707 823.235,444.905 824.953,447.104 828.113,449.096 829.831,450.195 832.51,451.775 M824.953,356.969 Q825.434,362.946 825.503,369.061 M812,630.396 Q815.816,631.357 818.907,630.739 821.449,630.258 823.304,629.022 M787.58,547.956 Q788.954,554.001 793.969,586.084 798.641,616.312 799.259,622.152 M846.662,545.208 Q844.052,555.787 838.762,581.825 832.51,612.877 832.922,617.343 833.609,624.419 834.227,626.548 835.464,631.083 839.105,635.205 842.609,639.12 842.884,647.433 843.09,652.036 842.54,660.623 842.54,665.433 840.204,674.707 838.968,679.86 836.357,688.791 L832.235,703.905 M739.49,556.887 L751.032,584.779 Q763.054,614.182 765.596,621.465 M768.344,631.77 Q767.314,636.235 764.153,648.532 761.818,659.868 763.535,666.807 765.94,676.493 767.932,682.264 770.543,690.027 773.84,695.661 M779.336,631.083 L783.527,631.701 Q788.198,632.182 790.328,631.77" test="Rihanna Body"/>
      </g>
      <g id="Rihanna-Bottomf0r1">
        <path id="Layer3_0_1_STROKES" stroke="#F60" stroke-width="1.374" stroke-linejoin="round" stroke-linecap="round" fill="none" d="M728.779,460.733 Q722.871,472.687 718.818,479.282 714.696,486.015 713.322,489.038 710.78,494.74 709.887,501.61 708.582,511.983 709.887,520.983 711.673,533.28 718.131,539.051 740.115,558.699 760.381,554.852 772.06,552.654 781.198,544.959 788.411,538.776 789.579,534.242 790.129,531.975 790.403,528.265 790.609,525.243 790.953,524.624 791.228,524.143 795.831,531.357 801.189,539.67 804.349,541.456 808.334,543.723 814.861,544.822 820.769,545.784 827.364,545.578 835.127,545.303 843.44,542.692 853.607,539.395 856.218,534.586 859.79,527.991 861.783,519.54 864.325,508.892 863.088,499.549 862.47,494.808 859.241,487.114 855.806,479.145 852.096,474.473 849.554,471.176 843.715,464.718 838.493,458.947 837.325,457.298" test="Rihanna Bottom"/>
      </g>
      <g id="Rihanna-Headf0r1">
        <path id="Layer2_0_1_STROKES" stroke="#F60" stroke-width="2.748" stroke-linejoin="round" stroke-linecap="round" fill="none" d="M833.538,204.804 L838.278,198.621 Q843.499,192.232 845.629,190.996 850.781,188.11 855.453,188.522 855.659,188.522 855.934,188.591 857.514,188.728 860.125,189.072 860.743,189.141 861.499,189.209 862.666,189.347 864.041,189.553 867.888,189.553 872.559,190.034 877.162,190.515 877.849,190.515 879.704,190.515 878.88,192.507 878.055,194.568 875.239,196.698 873.796,197.797 869.949,201.438 866.926,204.255 865.208,205.079 863.147,206.041 859.438,206.041 857.308,206.041 852.087,205.56 851.125,205.491 845.56,204.667 842.263,204.117 839.721,204.392 837.041,204.667 834.912,204.736 L833.538,204.804Z M733.648,232.284 Q736.808,246.505 742.235,254.2 746.289,259.833 769.715,288.756 795.478,320.426 800.424,324.754 805.714,329.357 815.057,330.25 823.095,331.006 830.446,329.014 837.66,327.09 858.201,306.549 879.842,285.046 883.826,273.71 889.116,258.665 891.795,246.849 895.505,230.773 895.23,217.926 895.093,211.399 895.574,211.468 895.917,211.468 896.948,215.659 899.902,227.475 901.482,226.994 904.711,226.033 907.39,220.811 910.55,214.491 908.627,207.484 907.253,202.537 905.261,198.553 903.818,195.736 903.337,191.751 902.856,187.904 906.566,183.439 910.276,178.836 910.07,175.057 909.726,170.042 908.695,169.286 906.909,169.149 905.261,168.874 903.062,168.531 900.108,171.897 897.704,174.576 896.673,176.981 M800.287,241.765 Q801.73,238.673 803.035,237.505 804.34,236.269 806.264,236.269 807.157,236.269 811.829,239.773 816.431,243.276 819.729,243.414 823.027,243.551 827.355,239.773 831.683,235.994 833.675,235.857 836.767,235.651 837.866,236.475 838.347,236.818 840.133,239.429 M839.652,228.643 Q842.056,229.742 843.568,232.147 845.354,234.895 843.911,237.025 M813.477,203.155 L812.516,229.399 M798.913,230.086 Q791.768,234.345 794.585,239.635" test="Rihanna Head"/>
        <path id="Layer2_0_2_STROKES" stroke="#FFF" stroke-width="2.748" stroke-linejoin="round" stroke-linecap="round" fill="none" d="M860.125,189.072 L857.377,196.492 865.895,194.018 Q866.445,195.392 866.445,197.041 866.445,200.614 863.834,203.155 861.361,205.697 857.72,205.697 854.148,205.697 851.537,203.155 849.064,200.614 849.064,197.041 849.064,193.469 851.537,190.858 853.461,189.072 855.934,188.591" test="Rihanna Head"/>
        <path id="Layer2_0_3_STROKES" stroke="#F00" stroke-width="2.748" stroke-linejoin="round" stroke-linecap="round" fill="none" d="M870.155,85.335 Q861.705,107.044 853.736,121.334 836.011,153.073 815.195,173.683 794.31,194.293 763.258,212.361 732.137,230.429 729.182,231.46 726.228,232.422 724.167,228.712 L722.862,224.384 721.763,233.727 Q720.114,236.475 717.778,234.483 713.107,230.498 709.672,206.797 705.344,177.118 706.305,168.531 707.473,157.813 719.015,131.501 729.801,106.975 739.831,94.266 747.182,84.991 755.288,80.938 764.082,76.541 766.28,76.541 764.357,75.442 760.991,75.167 754.258,74.618 747.044,78.74 742.922,81.075 742.922,80.114 742.854,79.289 746.083,76.335 754.464,68.709 764.082,64.45 774.387,59.916 786.41,57.718 798.432,55.519 805.852,56.756 812.859,57.924 822.34,61.565 831.202,65 833.881,67.198 835.805,68.847 839.034,68.503 846.866,67.748 848.72,67.748 854.148,67.748 863.766,71.183 874.826,75.099 876.75,75.442 892.62,78.053 894.887,80.938 895.574,81.763 893.856,81.625 890.902,81.213 888.498,81.075 878.261,80.457 870.155,85.335Z M876.75,95.228 Q878.605,92.755 879.567,91.861 880.048,91.312 881.147,90.281 M874.552,127.654 Q875.513,125.799 877.025,122.502 877.094,122.364 878.948,120.509 M880.048,113.364 Q883.757,111.853 884.925,111.097 885.75,110.548 886.093,109.517 M866.308,119.96 Q869.536,115.906 870.498,114.876 871.391,113.914 871.804,113.914 M887.742,105.67 Q890.49,105.052 892.001,104.159 892.826,103.678 893.788,102.922 M895.436,121.059 L898.184,120.509 Q898.94,120.303 899.284,119.96 M887.742,126.005 Q888.979,123.257 891.04,121.746 892.139,120.922 893.788,119.96 M833.881,97.426 Q832.026,100.105 821.034,119.616 813.752,132.601 805.302,139.745 M900.932,139.196 Q903.955,138.852 904.161,138.715 904.436,138.509 905.329,137.547 M894.337,151.837 Q896.261,151.081 897.429,150.325 898.184,149.913 899.284,149.089 M892.688,135.349 Q895.78,131.639 896.673,130.746 897.154,130.265 898.184,129.303 M903.131,154.035 Q904.711,153.691 905.604,153.279 906.291,152.936 906.428,152.936 M884.994,150.188 Q888.566,146.066 888.704,145.722 888.704,145.035 889.94,142.493 M880.048,135.898 L882.246,132.601 M897.635,165.027 Q899.558,162.622 901.001,161.523 902.306,160.493 902.581,160.081 M793.211,104.571 Q790.669,106.975 787.165,112.128 783.181,118.448 780.914,121.677 772.463,133.975 764.082,137.547 M780.02,154.585 Q768.891,164.477 761.059,171.073 746.289,183.507 740.449,185.912" test="Rihanna Head"/>
        <path id="Layer1_0_1_STROKES" stroke="#F0F" stroke-width="2.748" stroke-linejoin="round" stroke-linecap="round" fill="none" d="M796.096,273.023 Q796.783,273.092 797.333,273.092 796.096,272.68 795.34,272.268 799.325,269.588 805.989,264.436 811.348,260.52 814.439,260.108 817.256,259.696 818.767,260.795 820.553,262.031 821.859,262.031 823.37,262.031 825.912,260.863 828.316,259.764 830.377,259.902 833.057,260.039 838.278,264.505 842.606,268.146 847.553,273.71 L847.415,273.985 847.346,274.054 Q846.453,275.359 841.37,282.573 837.041,288.756 833.744,289.717 828.729,291.229 823.439,291.091 816.775,290.885 811.554,288 805.439,284.634 801.73,281.267 797.402,277.489 793.967,272.062 M847.346,274.054 Q842.95,276.39 836.835,278.519 829.965,281.061 825.431,280.855 817.187,280.512 809.905,277.558 808.05,276.802 804.203,275.016 802.142,273.985 800.356,273.71 798.569,273.436 797.333,273.092 798.363,273.023 799.119,272.817 800.15,272.542 804.203,271.375 809.012,270.138 810.935,269.932 813.752,269.657 816.363,270.619 818.973,271.581 821.378,271.512 823.095,271.443 826.599,270.619 829.416,269.932 834.156,270.413 838.278,270.756 841.163,271.581 844.461,272.542 847.415,273.985" test="Rihanna Head"/>
        <path id="Layer1_0_2_STROKES" stroke="#F60" stroke-width="2.748" stroke-linejoin="round" stroke-linecap="round" fill="none" d="M832.507,183.576 Q836.629,181.309 844.118,177.462 852.43,173.202 854.491,172.447 862.804,169.424 866.857,169.424 876.063,169.424 878.811,172.584 880.597,174.645 882.109,177.256 883.345,179.523 883.483,180.416" test="Rihanna Head"/>
      </g>
    </g>
  </g>
</svg>