<?xml version="1.0" encoding="utf-8"?>
<svg id="EdithAnim07" image-rendering="inherit" baseProfile="basic" version="1.1" x="0px" y="0px" width="800" height="600" xmlns="http://www.w3.org/2000/svg" xmlns:xlink="http://www.w3.org/1999/xlink">
  <g id="Rihanna-rearf6r1" overflow="visible">
    <g id="RihannaWholeBodyf0r1">
      <g id="Rihanna-Body">
        <path id="Layer4_0_1_STROKES" stroke="#F60" stroke-width="1.374" stroke-linejoin="round" stroke-linecap="round" fill="none" d="M779.927,329.833 Q782.881,331.276 788.721,333.886 794.079,336.497 799.506,339.795 808.163,345.016 823.551,360.405 824.101,360.954 818.605,346.321 812.01,328.734 811.872,321.933 811.666,312.727 811.598,312.589 811.46,311.834 808.781,309.91 807.132,308.742 801.774,307.643 797.308,306.75 796.758,305.101 796.071,302.971 796.621,302.422 796.827,302.078 799.506,300.979 801.087,300.361 803.697,302.078 806.033,303.727 807.063,302.696 808.231,301.597 808.369,298.437 808.506,294.04 809.124,292.048 810.292,288.27 811.185,287.376 812.285,286.277 814.277,287.583 816.475,288.956 821.078,295.346 825.819,302.01 828.36,307.506 830.902,313.07 835.986,336.153 841.001,358.893 841.07,364.526 841.07,364.87 841.963,375.175 842.444,380.877 841.07,382.732 839.421,384 823.689,384.312 808.644,383.625 799.85,381.358 794.972,380.121 786.591,374.419 L779.103,369.061 Q779.103,370.16 779.103,371.259 779.171,381.839 777.866,384.793 771.614,399.151 769.278,402.311 M724.28,289.987 Q723.456,293.834 721.807,301.666 719.265,308.124 711.57,311.284 707.929,312.795 696.525,316.23 687.732,318.91 683.472,321.452 681.342,322.757 679.625,324.337 673.923,329.627 670.9,334.23 667.74,338.97 666.228,344.603 664.786,350.1 665.816,360.611 666.778,370.572 668.976,376.549 669.045,376.755 669.183,376.961 671.312,382.938 674.541,393 678.114,405.953 679.625,412.96 680.724,417.838 683.953,431.165 686.564,442.845 686.151,446.28 685.739,449.852 685.739,452.119 685.671,453.699 685.808,453.837 M683.472,321.452 Q664.374,328.665 657.091,343.436 649.74,358.206 661.351,370.023 664.305,373.664 666.915,375.518 668.015,376.343 669.183,376.961 M767.904,418.044 Q766.874,418.25 766.05,418.593 765.019,419.006 763.92,419.349 762.821,419.899 761.79,420.517 760.622,421.204 759.523,421.685 758.699,422.097 757.943,422.509 L756.706,423.265 Q755.882,424.158 755.332,425.257 754.783,426.15 754.714,427.181 754.714,427.868 754.92,428.555 755.401,428.761 755.951,429.036 759.66,428.692 762.752,427.524 765.843,426.288 766.118,426.425 L769.622,424.639 Q769.828,425.051 773.813,425.189 777.729,425.257 779.034,422.166 778.828,418.731 776.217,416.464 776.217,415.158 776.835,413.991 776.835,412.823 775.874,412.204 775.049,411.655 774.156,411.174 L774.087,410.006 Q775.324,408.426 774.568,406.571 774.5,406.296 774.431,406.09 772.713,405.197 770.584,405.403 770.24,405.403 769.897,405.472 L769.072,406.365 Q765.843,406.64 762.958,407.739 761.928,408.014 760.897,408.357 759.042,408.769 757.668,409.113 756.432,409.594 755.264,410.281 754.164,410.762 753.134,411.38 752.31,411.861 751.554,412.41 750.661,413.166 750.042,414.128 749.424,414.884 749.355,415.777 749.355,416.67 750.042,417.151 750.867,417.838 752.035,418.112 753.477,418.593 762.34,414.334 L766.187,413.235 M752.172,418.731 Q751.073,418.937 750.317,419.899 749.424,420.861 748.737,421.891 748.462,422.234 748.325,422.715 748.325,423.677 748.943,424.227 749.768,424.708 750.661,425.051 752.103,425.601 753.615,424.845 754.714,424.295 755.745,423.677 756.225,423.54 756.706,423.265 M771.065,428.761 Q772.095,432.265 773.4,437.28 775.118,442.707 776.835,444.905 778.553,447.104 781.713,449.096 783.431,450.195 786.11,451.775 M778.553,356.969 Q779.034,362.946 779.103,369.061 M766.599,630.396 Q769.416,631.357 772.507,630.739 775.049,630.258 776.904,629.022 M741.18,547.956 Q742.554,554.001 747.569,586.084 752.241,616.312 752.859,622.152 M800.262,545.208 Q797.652,555.787 792.362,581.825 786.11,612.877 786.522,617.343 787.209,624.419 787.827,626.548 789.064,631.083 792.705,635.205 796.209,639.12 796.484,647.433 796.69,652.036 796.14,660.623 796.14,665.433 793.804,674.707 792.568,679.86 789.957,688.791 L785.835,703.905 M693.09,556.887 L704.632,584.779 Q716.654,614.182 719.196,621.465 M721.944,631.77 Q720.914,636.235 717.753,648.532 715.418,659.868 717.135,666.807 719.54,676.493 721.532,682.264 724.143,690.027 727.44,695.661 M732.936,631.083 L737.127,631.701 Q741.798,632.182 743.928,631.77" test="Rihanna Body"/>
      </g>
      <g id="Rihanna-Bottomf0r1">
        <path id="Layer3_0_1_STROKES" stroke="#F60" stroke-width="1.374" stroke-linejoin="round" stroke-linecap="round" fill="none" d="M682.379,460.733 Q676.471,472.687 672.418,479.282 668.296,486.015 666.922,489.038 664.38,494.74 663.487,501.61 662.182,511.983 663.487,520.983 665.273,533.28 671.731,539.051 693.715,558.699 713.981,554.852 725.66,552.654 734.798,544.959 742.011,538.776 743.179,534.242 743.729,531.975 744.003,528.265 744.209,525.243 744.553,524.624 744.828,524.143 749.431,531.357 754.789,539.67 757.949,541.456 761.934,543.723 768.461,544.822 774.369,545.784 780.964,545.578 788.727,545.303 797.04,542.692 807.207,539.395 809.818,534.586 813.39,527.991 815.383,519.54 817.925,508.892 816.688,499.549 816.07,494.808 812.841,487.114 809.406,479.145 805.696,474.473 803.154,471.176 797.315,464.718 792.093,458.947 790.925,457.298" test="Rihanna Bottom"/>
      </g>
      <g id="Rihanna-Headf0r1">
        <path id="Layer2_0_1_STROKES" stroke="#F60" stroke-width="2.748" stroke-linejoin="round" stroke-linecap="round" fill="none" d="M787.138,204.804 L791.878,198.621 Q797.099,192.232 799.229,190.996 804.381,188.11 809.053,188.522 809.259,188.522 809.534,188.591 811.114,188.728 813.725,189.072 814.343,189.141 815.099,189.209 816.267,189.347 817.641,189.553 821.488,189.553 826.159,190.034 830.762,190.515 831.449,190.515 833.304,190.515 832.48,192.507 831.655,194.568 828.839,196.698 827.396,197.797 823.549,201.438 820.526,204.255 818.808,205.079 816.747,206.041 813.038,206.041 810.908,206.041 805.687,205.56 804.725,205.491 799.16,204.667 795.863,204.117 793.321,204.392 790.641,204.667 788.512,204.736 L787.138,204.804Z M687.248,232.284 Q690.408,246.505 695.835,254.2 699.889,259.833 723.315,288.756 749.078,320.426 754.024,324.754 759.314,329.357 768.657,330.25 776.695,331.006 784.046,329.014 791.26,327.09 811.801,306.549 833.442,285.046 837.426,273.71 842.716,258.665 845.395,246.849 849.105,230.773 848.83,217.926 848.693,211.399 849.174,211.468 849.517,211.468 850.548,215.659 853.502,227.475 855.082,226.994 858.311,226.033 860.99,220.811 864.15,214.491 862.227,207.484 860.853,202.537 858.861,198.553 857.418,195.736 856.937,191.751 856.456,187.904 860.166,183.439 863.876,178.836 863.67,175.057 863.326,170.042 862.296,169.286 860.509,169.149 858.861,168.874 856.662,168.531 853.708,171.897 851.304,174.576 850.273,176.981 M753.887,241.765 Q755.33,238.673 756.635,237.505 757.94,236.269 759.864,236.269 760.757,236.269 765.429,239.773 770.031,243.276 773.329,243.414 776.627,243.551 780.955,239.773 785.283,235.994 787.275,235.857 790.367,235.651 791.466,236.475 791.947,236.818 793.733,239.429 M793.252,228.643 Q795.656,229.742 797.168,232.147 798.954,234.895 797.511,237.025 M767.077,203.155 L766.116,229.399 M752.513,230.086 Q745.368,234.345 748.185,239.635" test="Rihanna Head"/>
        <path id="Layer2_0_2_STROKES" stroke="#FFF" stroke-width="2.748" stroke-linejoin="round" stroke-linecap="round" fill="none" d="M813.725,189.072 L810.977,196.492 819.495,194.018 Q820.045,195.392 820.045,197.041 820.045,200.614 817.434,203.155 814.961,205.697 811.32,205.697 807.748,205.697 805.137,203.155 802.664,200.614 802.664,197.041 802.664,193.469 805.137,190.858 807.061,189.072 809.534,188.591" test="Rihanna Head"/>
        <path id="Layer2_0_3_STROKES" stroke="#F00" stroke-width="2.748" stroke-linejoin="round" stroke-linecap="round" fill="none" d="M823.755,85.335 Q815.305,107.044 807.336,121.334 789.611,153.073 768.795,173.683 747.91,194.293 716.858,212.361 685.737,230.429 682.782,231.46 679.828,232.422 677.767,228.712 L676.462,224.384 675.363,233.727 Q673.714,236.475 671.378,234.483 666.707,230.498 663.272,206.797 658.944,177.118 659.905,168.531 661.073,157.813 672.615,131.501 683.401,106.975 693.431,94.266 700.782,84.991 708.888,80.938 717.682,76.541 719.88,76.541 717.957,75.442 714.591,75.167 707.858,74.618 700.644,78.74 696.522,81.075 696.522,80.114 696.454,79.289 699.683,76.335 708.064,68.709 717.682,64.45 727.987,59.916 740.01,57.718 752.032,55.519 759.452,56.756 766.459,57.924 775.94,61.565 784.802,65 787.481,67.198 789.405,68.847 792.634,68.503 800.466,67.748 802.32,67.748 807.748,67.748 817.366,71.183 828.426,75.099 830.35,75.442 846.22,78.053 848.487,80.938 849.174,81.763 847.456,81.625 844.502,81.213 842.098,81.075 831.861,80.457 823.755,85.335Z M830.35,95.228 Q832.205,92.755 833.167,91.861 833.648,91.312 834.747,90.281 M828.152,127.654 Q829.113,125.799 830.625,122.502 830.694,122.364 832.548,120.509 M833.648,113.364 Q837.357,111.853 838.525,111.097 839.35,110.548 839.693,109.517 M819.908,119.96 Q823.137,115.906 824.098,114.876 824.991,113.914 825.404,113.914 M841.342,105.67 Q844.09,105.052 845.601,104.159 846.426,103.678 847.388,102.922 M849.036,121.059 L851.784,120.509 Q852.54,120.303 852.884,119.96 M841.342,126.005 Q842.579,123.257 844.64,121.746 845.739,120.922 847.388,119.96 M787.481,97.426 Q785.626,100.105 774.634,119.616 767.352,132.601 758.902,139.745 M854.532,139.196 Q857.555,138.852 857.761,138.715 858.036,138.509 858.929,137.547 M847.937,151.837 Q849.861,151.081 851.029,150.325 851.784,149.913 852.884,149.089 M846.288,135.349 Q849.38,131.639 850.273,130.746 850.754,130.265 851.784,129.303 M856.731,154.035 Q858.311,153.691 859.204,153.279 859.891,152.936 860.028,152.936 M838.594,150.188 Q842.166,146.066 842.304,145.722 842.304,145.035 843.54,142.493 M833.648,135.898 L835.846,132.601 M851.235,165.027 Q853.158,162.622 854.601,161.523 855.906,160.493 856.181,160.081 M746.811,104.571 Q744.269,106.975 740.765,112.128 736.781,118.448 734.514,121.677 726.063,133.975 717.682,137.547 M733.62,154.585 Q722.491,164.477 714.659,171.073 699.889,183.507 694.049,185.912" test="Rihanna Head"/>
        <path id="Layer1_0_1_STROKES" stroke="#F0F" stroke-width="2.748" stroke-linejoin="round" stroke-linecap="round" fill="none" d="M749.696,273.023 Q750.383,273.092 750.933,273.092 749.696,272.68 748.94,272.268 752.925,269.588 759.589,264.436 764.948,260.52 768.039,260.108 770.856,259.696 772.367,260.795 774.153,262.031 775.459,262.031 776.97,262.031 779.512,260.863 781.916,259.764 783.978,259.902 786.657,260.039 791.878,264.505 796.206,268.146 801.153,273.71 L801.015,273.985 800.946,274.054 Q800.053,275.359 794.969,282.573 790.641,288.756 787.344,289.717 782.329,291.229 777.039,291.091 770.375,290.885 765.154,288 759.039,284.634 755.33,281.267 751.002,277.489 747.567,272.062 M800.946,274.054 Q796.55,276.39 790.435,278.519 783.565,281.061 779.031,280.855 770.787,280.512 763.505,277.558 761.65,276.802 757.803,275.016 755.742,273.985 753.956,273.71 752.169,273.436 750.933,273.092 751.963,273.023 752.719,272.817 753.75,272.542 757.803,271.375 762.612,270.138 764.535,269.932 767.352,269.657 769.963,270.619 772.573,271.581 774.978,271.512 776.695,271.443 780.199,270.619 783.016,269.932 787.756,270.413 791.878,270.756 794.763,271.581 798.061,272.542 801.015,273.985" test="Rihanna Head"/>
        <path id="Layer1_0_2_STROKES" stroke="#F60" stroke-width="2.748" stroke-linejoin="round" stroke-linecap="round" fill="none" d="M786.107,183.576 Q790.229,181.309 797.718,177.462 806.03,173.202 808.091,172.447 816.404,169.424 820.457,169.424 829.663,169.424 832.411,172.584 834.197,174.645 835.709,177.256 836.945,179.523 837.083,180.416" test="Rihanna Head"/>
      </g>
    </g>
  </g>
</svg>