<?xml version="1.0" encoding="utf-8"?>
<svg id="EdithAnim13" image-rendering="inherit" baseProfile="basic" version="1.1" x="0px" y="0px" width="800" height="600" xmlns="http://www.w3.org/2000/svg" xmlns:xlink="http://www.w3.org/1999/xlink">
  <g id="22_Avatarf1r1" overflow="visible">
    <g id="Avatar-Manf0r1">
      <g id="Tailf0r1">
        <path id="Layer3_0_1_STROKES" stroke="#009EFF" stroke-width="2.303" stroke-linejoin="round" stroke-linecap="round" fill="none" d="M650.79,1062.592 Q649.628,1045.67 648.987,1028.739 648.413,1012.321 643.079,996.815 637.217,979.926 620.884,972.243 601.035,962.986 598.161,983.686 597.741,986.702 599.713,989.349 604.375,995.709 611.004,999.78 617.933,997.25 623.144,1002.029 629.418,1007.831 632.179,1016.53 638.632,1037.058 643.772,1057.758 645.224,1063.55 644.249,1069.426" test="Tail_1"/>
      </g>
      <path fill="#000" stroke="none" d="M612.353,976.515 Q608.249,967.303 603.056,965.963 601.884,965.627 587.646,969.731 570.729,974.589 551.55,974.756 531.618,974.924 512.522,968.726 497.196,962.445 495.437,962.613 489.407,965.293 487.732,966.465 484.718,968.475 484.969,970.988 485.136,972.83 485.304,982.964 485.89,992.762 488.737,996.113 491.836,999.714 506.827,1007.502 519.222,1013.784 531.869,1019.144 540.16,1022.661 552.639,1038.323 559.004,1046.279 566.206,1055.575 567.714,1056.748 566.206,1058.423 565.034,1059.679 565.201,1059.679 L577.094,1055.994 Q592.252,1051.22 602.554,1035.224 611.348,1021.489 614.781,1002.813 617.545,987.989 612.353,976.515 M617.713,628.031 L614.698,626.775 Q614.654,626.881 614.614,626.942 613.706,629.261 613.106,631.381 611.515,637.076 609.002,645.786 608.946,645.939 608.835,646.037 606.54,652.134 601.8,654.831 591.834,660.526 586.306,663.206 L590.075,671.581 Q589.656,677.695 591.583,718.649 591.653,720.16 591.666,721.58 593.229,753.581 593.425,763.287 593.423,763.351 593.425,763.371 593.453,765.616 593.425,766.637 593.09,779.786 595.519,800.556 595.854,803.488 600.46,801.059 605.066,798.546 604.731,796.787 604.564,795.531 606.49,796.201 608.081,796.787 608.5,797.206 608.584,797.29 614.781,775.85 L619.806,784.225 Q619.89,784.309 622.738,765.8 L627.762,767.894 Q627.86,767.993 627.176,759.1 627.213,759.08 627.176,759.016 626.222,745.345 623.491,710.609 621.835,689.383 620.56,675.434 618.982,656.788 618.131,651.146 617.893,649.501 617.713,648.969 617.893,649.501 618.131,651.146 618.982,656.788 620.56,675.434 L621.9,675.35 Q623.575,675.182 628.516,670.241 632.871,666.054 636.137,667.394 639.069,668.65 656.656,694.11 676.924,719.905 693.506,723.925 678.599,724.428 656.489,741.429 649.621,746.705 642.838,753.07 L641.833,753.991 Q643.025,766.721 646.941,810.271 L647.863,810.188 Q652.218,807.759 682.703,783.806 712.099,760.608 721.563,752.4 728.598,746.286 734.376,736.655 737.308,731.714 740.825,725.6 742.5,723.674 746.101,720.994 749.033,718.314 749.2,713.875 749.368,709.52 717.543,689.001 682.284,667.059 675.5,661.95 655.567,646.959 646.271,640.929 635.196,633.668 627.679,630.46 621.433,627.802 617.713,628.031 M558.166,622.922 Q560.679,622.504 563.024,622.085 566.793,622.085 566.541,626.691 573.744,625.854 576.591,626.691 579.606,627.613 579.522,630.879 L584.213,633.056 Q587.506,626.654 595.519,621.331 600.125,618.233 604.061,617.228 604.123,617.214 604.145,617.144 L603.056,610.444 Q604.313,610.36 601.884,607.429 597.445,602.32 593.844,597.881 588.986,591.851 572.069,586.408 557.245,581.634 549.037,581.55 522.74,581.299 504.65,588.669 493.427,593.275 483.377,607.178 481.451,609.812 479.86,612.203 475.369,619.321 473.997,624.681 L473.997,626.691 Q474.165,626.691 474.919,626.942 475.756,627.11 476.343,627.11 479.357,627.11 482.372,624.681 485.806,621.834 489.072,621.248 L489.072,623.341 492.841,623.341 Q495.354,622.839 500.127,621.415 503.812,620.243 504.566,620.41 L504.566,622.504 Q505.404,622.504 508.754,622.922 514.281,622.922 519.641,619.991 L523.829,619.991 523.829,621.666 530.529,621.666 Q541.584,618.316 542.254,618.316 543.343,618.316 544.348,619.07 545.52,619.908 547.698,619.991 547.698,622.085 547.279,622.922 L558.166,622.922Z" test="Avatar Man" stroke-width="1.675"/>
      <path id="Layer2_0_1_STROKES" stroke="#009EFF" stroke-width="1.675" stroke-linejoin="round" stroke-linecap="round" fill="none" d="M579.522,630.879 Q579.606,627.613 576.591,626.691 573.744,625.854 566.541,626.691 566.793,622.085 563.024,622.085 560.679,622.504 558.166,622.922 L547.279,622.922 Q547.698,622.085 547.698,619.991 545.52,619.908 544.348,619.07 543.343,618.316 542.254,618.316 541.584,618.316 530.529,621.666 L523.829,621.666 523.829,619.991 519.641,619.991 Q514.281,622.922 508.754,622.922 505.404,622.504 504.566,622.504 L504.566,620.41 Q503.812,620.243 500.127,621.415 495.354,622.839 492.841,623.341 L489.072,623.341 489.072,621.248 Q485.806,621.834 482.372,624.681 479.357,627.11 476.343,627.11 475.756,627.11 474.919,626.942 474.165,626.691 473.997,626.691 L473.997,624.681 Q475.369,619.321 479.902,612.244 481.451,609.812 483.377,607.178 493.427,593.275 504.65,588.669 522.74,581.299 549.037,581.55 557.245,581.634 572.069,586.408 588.986,591.851 593.844,597.881 597.445,602.32 601.884,607.429 604.313,610.36 603.056,610.444 M604.187,617.186 Q604.249,617.192 604.313,617.186 606.845,616.626 612.269,616.306 616.205,616.139 618.634,614.547 619.974,613.71 621.9,612.119 622.654,611.7 619.555,617.06 618.131,619.489 616.959,621.834 616.242,623.242 615.661,624.598 615.522,624.877 615.409,625.142 615.165,625.664 614.949,626.189 614.818,626.484 614.698,626.775 M617.713,628.031 Q621.433,627.802 627.721,630.502 635.196,633.668 646.271,640.929 655.567,646.959 675.5,661.95 682.284,667.059 717.543,689.001 749.368,709.52 749.2,713.875 749.033,718.314 746.101,720.994 742.5,723.674 740.825,725.6 737.308,731.714 734.376,736.655 728.598,746.286 721.563,752.4 712.099,760.608 682.703,783.806 652.218,807.759 647.863,810.188 647.429,810.471 647.025,810.732 642.151,813.894 639.99,815.129 636.137,817.39 632.787,816.887 M616.959,621.834 Q615.654,623.264 614.572,624.095 613.478,624.892 612.604,625.1 609.421,625.351 605.569,625.938 600.627,626.691 597.948,628.534 594.346,631.632 590.912,634.313 586.641,637.662 583.961,639.254 L582.119,640.175 Q582.522,636.48 584.254,633.098 M578.685,630.879 L579.522,630.879 M584.254,633.098 Q587.506,626.654 595.519,621.331 600.125,618.233 604.061,617.228 604.123,617.214 604.187,617.186 M614.698,626.775 Q614.654,626.881 614.614,626.984 613.706,629.261 613.106,631.381 611.515,637.076 609.002,645.786 608.946,645.939 608.877,646.079 606.54,652.134 601.8,654.831 591.834,660.526 586.306,663.206 M590.075,671.581 Q589.656,677.695 591.583,718.649 591.653,720.16 591.708,721.622 593.229,753.581 593.425,763.287 593.423,763.351 593.425,763.413 593.453,765.616 593.425,766.637 593.09,779.786 595.519,800.556 595.854,803.488 600.46,801.059 605.066,798.546 604.731,796.787 604.564,795.531 606.49,796.201 608.081,796.787 608.5,797.206 608.584,797.29 614.781,775.85 L619.806,784.225 Q619.89,784.309 622.738,765.8 L627.762,767.894 Q627.86,767.993 627.218,759.142 627.213,759.08 627.218,759.016 626.222,745.345 623.491,710.609 621.835,689.383 620.602,675.434 618.982,656.788 618.131,651.146 617.893,649.501 617.713,648.969 M641.833,754.033 L642.838,753.07 Q649.621,746.705 656.489,741.429 678.599,724.428 693.506,723.925 676.924,719.905 656.656,694.11 639.069,668.65 636.137,667.394 632.871,666.054 628.516,670.241 623.575,675.182 621.9,675.35 M527.681,668.65 Q528.658,668.807 530.696,668.901 533.021,668.985 536.726,668.985 543.259,668.901 546.106,668.65 551.382,668.147 552.053,667.98 555.402,667.059 555.738,664.463 M576.675,735.65 Q577.512,741.094 579.439,748.966 581.784,758.43 583.794,763.287 M483.294,733.137 Q483.294,733.221 483.629,741.764 483.88,747.877 486.225,751.981 486.979,753.298 488.109,754.578 491.54,758.408 498.452,761.864 508,766.721 517.213,767.056 L520.604,767.307 520.73,767.307 Q529.608,767.642 532.287,767.475 536.894,767.14 542.338,765.381 546.358,764.125 557.161,754.41 564.839,747.435 572.99,738.916 573.096,738.814 573.199,738.707 573.263,738.647 573.325,738.581 573.41,738.501 573.493,738.414 574.779,737.049 576.089,735.65 576.174,735.56 576.256,735.483 576.29,735.434 576.34,735.399 576.353,735.35 576.382,735.315 586.243,724.801 587.563,721.831 M520.563,767.894 Q519.809,771.495 518.385,779.703 516.961,786.821 514.7,790.506 M637.394,758.262 L641.833,754.033 M628.181,824.844 Q628.098,825.011 619.639,847.037 613.609,862.699 611.431,871.744 608.751,882.715 606.406,915.377 604.061,947.203 605.15,954.238 M556.91,867.891 Q557.412,869.734 559.088,870.236 559.59,870.404 560.93,870.404 563.108,870.404 563.945,869.399 564.28,869.064 565.62,865.965 M523.41,855.748 Q523.242,870.99 524.331,873.335 526.09,877.522 535.973,877.522 540.746,877.522 541.165,877.439 541.667,877.355 543.51,876.266 M524.666,907.254 Q523.829,909.766 523.829,912.53 523.829,917.136 527.514,917.387 529.943,917.471 537.647,917.304 M521.735,942.01 Q526.006,944.941 528.77,945.611 530.78,946.03 534.297,945.36 M564.531,1060.181 Q558.25,1063.113 541.416,1066.295 524.415,1069.478 506.325,1071.069 490.664,1072.492 453.814,1071.739 426.009,1071.236 410.012,1070.231 397.701,1069.478 372.744,1066.881 366.546,1066.211 361.94,1067.216 358.674,1067.97 357.669,1067.3 M478.269,611.281 Q475.086,609.355 471.317,607.345 463.78,603.409 461.519,603.744 459.09,604.079 461.1,616.055 462.775,626.272 464.45,630.544 M468.637,641.85 Q469.307,644.614 471.066,650.141 472.071,654.58 469.475,656.506 466.277,658.89 463.236,661.113 L463.194,661.154 Q417.498,695.085 411.687,697.125 406.579,698.632 405.323,699.051 403.564,699.721 403.312,701.313 402.894,704.579 402.726,715.801 402.475,728.699 403.312,731.463 406.16,742.853 428.102,775.264 449.626,807.005 462.356,819.4 M470.312,670.744 Q472.909,672.084 478.101,672.754 478.312,672.786 478.52,672.796 483.421,673.497 488.319,673.256 491.417,673.089 498.62,671.916 504.482,670.911 506.325,671.162 M469.894,692.519 Q468.889,694.194 458.085,704.998 448.286,714.796 445.606,717.225 M490.329,712.116 Q494.097,712.116 498.285,711.279 L514.616,711.279 Q509.591,716.639 506.744,719.486 501.468,724.679 500.211,724.679 497.95,724.679 494.6,719.989 491.166,714.629 489.91,713.373 M436.394,712.619 Q437.831,716.091 440.916,720.491 440.95,720.54 441,720.575 448.678,731.586 466.544,748.38 474.843,756.174 480.949,762.115 495.077,775.82 497.531,779.619 M469.475,842.85 Q468.889,856.166 471.569,862.531 473.244,866.384 478.352,870.739 483.629,875.01 488.319,876.35 M483.713,883.887 Q483.796,886.484 483.377,897.204 483.21,907.254 484.55,909.85 486.141,912.949 490.077,915.545 493.93,918.057 496.275,917.806 M489.575,921.156 Q489.659,923.92 489.659,928.191 489.826,931.374 491.25,933.3 491.417,933.551 495.94,936.65 498.955,938.744 498.787,942.512 498.62,945.36 496.861,952.395 495.354,958.257 495.856,960.1 M475.338,972.244 Q455.74,968.642 432.039,964.958 384.72,957.671 364.871,957.671 351.639,957.671 336.564,954.908 324.671,952.73 322.159,953.484 317.804,954.824 313.7,961.691 309.596,968.642 309.931,974.338 310.182,978.19 311.522,988.408 312.611,997.536 311.606,1001.137 M474.919,996.531 Q467.214,997.787 431.704,998.541 393.179,999.379 386.981,999.881 380.114,1000.468 358.255,1003.985 338.406,1007.168 330.45,1007.419 320.986,1007.754 312.611,1006.581 308.256,1005.995 301.975,1004.488 298.709,1003.734 295.359,1005.995 293.6,1007.251 289.412,1011.606 284.639,1016.547 288.994,1027.1 289.831,1029.194 288.407,1041.17 286.816,1053.23 287.737,1055.575 L290.669,1062.694 Q293.935,1071.655 295.275,1081.119 M354.319,1055.575 Q355.491,1059.344 357.669,1070.148 360.014,1081.705 359.762,1084.05" test="Avatar Man"/>
      <path id="Layer2_0_2_STROKES" stroke="#FF0" stroke-width="1.675" stroke-linejoin="round" stroke-linecap="round" fill="none" d="M530.529,671.916 Q529.691,676.606 531.366,680.04 533.125,683.641 536.391,683.641 537.731,683.641 539.574,682.636 541.667,681.464 542.254,679.873 M478.185,675.685 Q477.347,681.547 477.347,681.966 477.347,683.67 478.604,685.484 479.272,686.432 480.279,687.41 483.377,690.341 486.56,690.341 488.235,690.341 489.324,688.666 489.994,687.745 491.166,685.735" test="Avatar Man"/>
      <path id="Layer2_0_3_STROKES" stroke="#FFF" stroke-width="1.675" stroke-linejoin="round" stroke-linecap="round" fill="none" d="M559.841,717.56 Q565.453,719.821 565.704,723.59 565.72,723.828 565.746,724.093 565.741,724.156 565.746,724.218 L565.746,724.344 Q565.777,726.523 565.285,730.541 M552.304,732.635 Q557.823,731.318 561.181,727.275 562.307,725.922 563.191,724.26" test="Avatar Man"/>
      <path id="Layer2_0_4_STROKES" stroke="#F90" stroke-width="1.675" stroke-linejoin="round" stroke-linecap="round" fill="none" d="M495.437,962.613 Q497.196,962.445 512.522,968.726 531.618,974.924 551.55,974.756 570.729,974.589 587.646,969.731 601.884,965.627 603.056,965.963 608.249,967.303 612.353,976.515 617.545,987.989 614.781,1002.813 611.348,1021.489 602.554,1035.224 592.252,1051.22 577.094,1055.994 L565.201,1059.679 Q565.034,1059.679 566.206,1058.423 567.714,1056.748 566.206,1055.575 559.004,1046.279 552.639,1038.323 540.16,1022.661 531.869,1019.144 519.222,1013.784 506.827,1007.502 491.836,999.714 488.737,996.113 485.89,992.762 485.304,982.964 485.136,972.83 484.969,970.988 484.718,968.475 487.732,966.465 489.407,965.293 495.437,962.613Z" test="Avatar Man"/>
    </g>
    <g id="Avatar-Lady">
      <path fill="#000" stroke="none" d="M251.593,931.926 Q247.881,931.461 244.763,931.684 236.621,932.766 233.169,933.116 227.527,933.689 221.394,931.93 217.746,931.194 212.479,928.752 202.029,923.858 192.441,914.879 182.972,906.013 176.073,895.274 L174.408,896.464 Q174.628,902.821 172.411,917.848 170.775,929.271 171.195,937.708 171.269,939.279 171.418,940.748 171.726,943.779 173.888,958.361 176.025,979.411 174.277,987.33 173.115,992.637 171.338,998.602 170.343,1003.042 170.959,1009.104 171.302,1012.48 172.486,1016.605 L172.495,1016.689 Q173.586,1020.505 175.379,1024.988 179.048,1034.313 179.535,1039.113 179.792,1041.639 179.114,1044.175 178.741,1045.531 178.216,1046.222 L179.784,1047.424 Q180.016,1049.34 180.104,1053.091 180.113,1053.279 180.138,1053.428 180.265,1058.61 180.168,1067.121 L180.176,1067.205 Q180.144,1070.61 180.069,1074.532 L183.761,1076.539 Q186.017,1072.689 191.844,1064.83 200.005,1053.878 201.911,1050.026 L202.246,1049.142 Q205.49,1045.069 207.971,1036.821 210.784,1025.987 212.811,1019.146 213.252,1017.626 213.615,1016.172 213.816,1015.653 213.933,1015.118 214.014,1015.005 213.992,1014.857 214.064,1014.792 214.059,1014.68 L214.059,1014.68 Q218.071,1001.048 220.653,992.489 225.981,974.594 229.152,966.445 230.609,962.646 232.702,958.684 233.535,957.082 234.415,955.447 L234.634,955.085 234.709,954.992 Q236.998,951.189 239.793,947.245 246.263,938.081 251.377,933.989 L251.593,931.926 M216.022,783.521 L214.184,771.288 213.763,771.33 Q204.332,772.288 198.835,773.442 187.765,775.842 179.224,780.537 171.021,785.198 163.654,792.241 160.863,794.878 158.172,797.732 158.174,797.772 158.096,797.825 157.909,798.058 157.634,798.297 153.666,802.763 150.002,807.749 143.716,816.213 141.539,824.941 139.355,833.585 139.386,843.109 L139.281,846.267 Q141.98,846.356 145.261,846.511 150.651,846.814 158.43,850.533 158.832,850.746 164.018,853.624 164.067,853.636 164.102,853.615 165.862,854.646 168.164,855.925 165.862,854.646 164.102,853.615 164.067,853.636 164.018,853.624 158.832,850.746 158.43,850.533 150.651,846.814 145.261,846.511 141.98,846.356 139.281,846.267 L137.724,857.74 Q139.477,857.948 141.346,858.223 155.497,860.188 160.86,859.389 155.497,860.188 141.346,858.223 139.477,857.948 137.724,857.74 137.551,857.711 137.379,857.69 125.644,856.195 119.365,857.052 L115.263,861.892 Q117.587,863.878 122.767,867.935 129.657,873.293 133.92,875.565 134.745,875.956 135.437,876.262 141.319,878.897 147.878,878.146 152.669,877.574 159.626,878.229 165.117,878.692 166.741,877.932 L172.191,878.824 170.964,886.01 175.963,895.03 Q176.051,895.167 176.073,895.274 182.972,906.013 192.441,914.879 202.029,923.858 212.479,928.752 217.746,931.194 221.394,931.93 227.527,933.689 233.169,933.116 236.621,932.766 244.763,931.684 247.881,931.461 251.593,931.926 L251.677,931.917 Q254.58,932.347 257.843,933.163 267.784,935.556 270.707,935.855 276.99,936.578 280.499,935.115 282.124,934.355 286.363,930.862 288.953,928.728 290.297,921.02 291.689,911.266 292.767,905.967 293.979,900.315 299.528,888.777 300.259,887.25 300.93,885.828 305.476,876.157 307.123,871.418 307.304,870.906 307.45,870.449 309.956,862.453 306.699,853.001 304.17,845.687 299.784,841.028 L293.38,833.257 Q292.872,833.662 292.177,833.974 286.95,836.121 286.63,830.454 L281.861,828.727 266.508,833.348 Q266.629,833.768 266.762,834.173 266.516,833.935 266.205,833.719 263.456,831.113 259.326,828.803 250.232,823.857 242.538,826 235.097,828.116 222.899,837.011 211.241,846.086 205.344,850.108 204.556,850.72 203.838,851.196 199.859,853.897 185.531,862.753 184.093,863.648 182.805,864.391 179.081,866.804 176.739,868.325 174.276,870.097 173.51,870.864 174.276,870.097 176.739,868.325 179.081,866.804 182.805,864.391 184.093,863.648 185.531,862.753 199.859,853.897 203.838,851.196 204.556,850.72 205.344,850.108 211.241,846.086 222.899,837.011 235.097,828.116 242.538,826 250.232,823.857 259.326,828.803 263.456,831.113 266.205,833.719 L266.508,833.348 Q266.443,833.144 266.381,832.936 265.355,829.654 264.467,825.814 262.457,816.916 263.361,813.252 264.081,810.286 270.854,806.621 276.887,803.201 276.278,801.391 274.595,796.543 266.466,789.372 L258.692,783.186 Q246.457,793.121 235.293,802.406 223.617,812.227 213.14,821.329 195.513,837.07 189.079,842.402 181.54,848.661 175.368,852.301 173.319,853.555 171.421,854.488 173.319,853.555 175.368,852.301 181.54,848.661 189.079,842.402 195.513,837.07 213.14,821.329 223.617,812.227 235.293,802.406 L229.092,794.954 Q228.232,794.02 223.088,789.439 217.48,784.479 216.022,783.521 M252.551,842.507 Q251.244,841.364 247.226,841.176 244.182,841.034 235.538,846.701 232.766,848.558 229.422,850.98 215.635,860.972 213.277,861.212 215.635,860.972 229.422,850.98 232.766,848.558 235.538,846.701 244.182,841.034 247.226,841.176 251.244,841.364 252.551,842.507 253.858,843.65 258.055,845.606 253.858,843.65 252.551,842.507 M248.556,856.779 Q250.43,854.292 250.276,852.776 250.233,852.355 247.914,850.464 250.233,852.355 250.276,852.776 250.43,854.292 248.556,856.779 246.539,859.536 244.434,859.749 238.287,860.373 237.842,855.995 237.774,855.321 237.833,855.06 238.034,854.529 239.159,852.203 238.034,854.529 237.833,855.06 237.774,855.321 237.842,855.995 238.287,860.373 244.434,859.749 246.539,859.536 248.556,856.779 M235.265,911.041 Q234.953,911.889 234.418,912.743 232.964,915.187 232.022,915.964 232.964,915.187 234.418,912.743 234.953,911.889 235.265,911.041 236.402,908.834 236.219,907.031 L235.677,905.044 236.219,907.031 Q236.402,908.834 235.265,911.041 M273.945,878.105 Q276.077,877.888 278.801,876.506 281.753,875.115 285.364,872.437 290.514,868.535 291.62,866.187 292.05,865.401 291.988,864.788 291.92,864.115 290.005,862.012 288.174,859.901 287.475,859.717 288.174,859.901 290.005,862.012 291.92,864.115 291.988,864.788 292.05,865.401 291.62,866.187 290.514,868.535 285.364,872.437 281.753,875.115 278.801,876.506 276.077,877.888 273.945,878.105 270.661,878.438 268.232,876.303 264.395,872.864 264.126,872.722 264.395,872.864 268.232,876.303 270.661,878.438 273.945,878.105 M293.553,880.197 Q293.484,879.523 292.363,878.531 293.484,879.523 293.553,880.197 293.664,881.291 293.337,882.26 293.01,883.229 292.245,884.073 290.631,885.768 288.189,886.016 287.263,886.11 285.249,885.549 283.32,884.979 282.055,884.257 283.32,884.979 285.249,885.549 287.263,886.11 288.189,886.016 290.631,885.768 292.245,884.073 293.01,883.229 293.337,882.26 293.664,881.291 293.553,880.197 M256.222,913.847 Q259.901,913.218 263.664,912.58 259.901,913.218 256.222,913.847 246.188,916.397 237.069,912.048 246.188,916.397 256.222,913.847 M191.057,814.128 Q186.731,810.059 180.345,808.326 174.043,806.584 168.731,807.889 174.043,806.584 180.345,808.326 186.731,810.059 191.057,814.128Z" test="Avatar Lady" stroke-width="1.693"/>
      <path id="Layer1_0_1_STROKES" stroke="#009EFF" stroke-width="1.693" stroke-linejoin="round" stroke-linecap="round" fill="none" d="M281.861,828.727 Q280.449,824.872 283.41,823.04 286.279,821.133 289.048,819.916 M256.656,779.054 Q256.832,778.271 256.789,777.85 256.703,777.008 253.378,771.901 249.453,765.92 248.828,764.792 246.531,760.602 241.957,759.961 237.283,760.01 235.606,759.414 236.071,760.643 236.49,764.769 L236.938,770.849 Q236.694,770.958 234.773,770.473 232.684,770.005 231.757,770.099 228.474,770.432 226.688,770.443 222.427,770.365 217.712,770.844 L214.184,771.288 M216.022,783.521 Q217.48,784.479 223.088,789.439 228.232,794.02 229.092,794.954 M235.606,759.414 Q235.594,759.331 235.514,759.339 L235.488,759.086 Q235.587,759.245 235.606,759.414Z M213.763,771.33 Q213.746,771.162 213.83,771.153 214.008,771.3 214.184,771.288 L213.763,771.33 Q204.332,772.288 198.835,773.442 187.765,775.842 179.224,780.537 171.021,785.198 163.654,792.241 160.863,794.878 158.214,797.728 158.174,797.772 158.139,797.82 157.909,798.058 157.676,798.293 153.666,802.763 150.002,807.749 143.716,816.213 141.539,824.941 139.355,833.585 139.386,843.109 M139.286,846.31 Q141.98,846.356 145.261,846.511 150.651,846.814 158.43,850.533 158.832,850.746 164.018,853.624 164.067,853.636 164.106,853.657 165.862,854.646 168.164,855.925 M258.055,845.606 Q253.858,843.65 252.551,842.507 251.244,841.364 247.226,841.176 244.182,841.034 235.542,846.744 232.766,848.558 229.422,850.98 215.635,860.972 213.277,861.212 M264.126,872.722 Q264.395,872.864 268.232,876.303 270.661,878.438 273.945,878.105 276.077,877.888 278.848,876.543 281.753,875.115 285.364,872.437 290.514,868.535 291.662,866.183 292.05,865.401 291.988,864.788 291.92,864.115 290.005,862.012 288.174,859.901 287.475,859.717 M299.784,841.028 Q304.17,845.687 306.699,853.001 309.956,862.453 307.45,870.449 307.304,870.906 307.123,871.418 305.476,876.157 300.93,885.828 300.259,887.25 299.528,888.777 293.979,900.315 292.767,905.967 291.689,911.266 290.297,921.02 288.953,928.728 286.363,930.862 282.124,934.355 280.499,935.115 276.99,936.578 270.707,935.855 267.784,935.556 257.843,933.163 254.58,932.347 251.681,931.959 L251.597,931.968 M251.377,933.989 Q246.263,938.081 239.793,947.245 236.998,951.189 234.752,954.988 L234.676,955.081 234.458,955.443 Q233.535,957.082 232.702,958.684 230.609,962.646 229.152,966.445 225.981,974.594 220.653,992.489 218.071,1001.048 214.101,1014.676 L214.063,1014.722 Q214.064,1014.792 214.034,1014.853 214.014,1015.005 213.98,1015.156 213.816,1015.653 213.657,1016.167 213.252,1017.626 212.811,1019.146 210.784,1025.987 207.971,1036.821 205.49,1045.069 202.246,1049.142 M201.911,1050.026 Q200.005,1053.878 191.844,1064.83 186.017,1072.689 183.765,1076.581 183.055,1077.843 182.703,1078.688 M282.055,884.257 Q283.32,884.979 285.249,885.549 287.263,886.11 288.189,886.016 290.631,885.768 292.245,884.073 293.01,883.229 293.337,882.26 293.664,881.291 293.553,880.197 293.484,879.523 292.363,878.531 M251.597,931.968 Q247.881,931.461 244.763,931.684 236.621,932.766 233.169,933.116 227.527,933.689 221.394,931.93 217.746,931.194 212.479,928.752 202.029,923.858 192.441,914.879 182.972,906.013 176.12,895.312 M174.408,896.464 Q174.628,902.821 172.411,917.848 170.775,929.271 171.195,937.708 171.269,939.279 171.418,940.748 171.726,943.779 173.888,958.361 176.025,979.411 174.277,987.33 173.115,992.637 171.338,998.602 170.343,1003.042 170.959,1009.104 171.302,1012.48 172.49,1016.647 L172.495,1016.689 Q173.586,1020.505 175.379,1024.988 179.048,1034.313 179.535,1039.113 179.792,1041.639 179.114,1044.175 178.741,1045.531 178.22,1046.265 M179.784,1047.424 Q180.016,1049.34 180.108,1053.133 180.113,1053.279 180.138,1053.428 180.265,1058.61 180.172,1067.163 L180.176,1067.205 Q180.144,1070.61 180.069,1074.532 M230.124,968.473 L230.106,973.324 Q230.191,974.166 231.123,977.474 232.054,980.782 232.14,981.624 232.225,982.466 233.53,987.778 234.751,993.099 234.836,993.941 235.555,1001.013 228.292,1031.695 220.945,1062.385 221.586,1068.7 222.21,1074.847 232.951,1088.473 241.347,1099.104 251.653,1109.287 259.117,1116.61 278.271,1151.925 278.382,1153.02 279.081,1153.204 279.688,1153.313 279.712,1152.715 M194.641,1109.121 Q196.865,1110.086 208.897,1119.668 221.781,1130.099 222.029,1132.541 222.337,1135.572 244.606,1148.794 266.875,1162.015 267.217,1165.383 267.32,1166.393 267.648,1166.275 267.976,1166.156 267.993,1166.325 L268.607,1165.667 M191.057,814.128 Q186.731,810.059 180.345,808.326 174.043,806.584 168.731,807.889 M139.286,846.31 Q139.203,846.328 139.117,846.327 139.03,846.325 138.949,846.344 134.854,846.258 132.157,846.48 124.899,847.047 119.875,849.514 113.64,852.614 112.933,853.196 111.756,854.167 112.079,856.516 112.504,859.025 113.947,860.665 114.343,861.063 115.073,861.699 115.165,861.771 115.258,861.85 L115.305,861.888 M119.365,857.052 Q125.644,856.195 137.379,857.69 137.551,857.711 137.724,857.74 M115.305,861.888 Q117.587,863.878 122.767,867.935 129.657,873.293 133.962,875.561 134.745,875.956 135.437,876.262 141.319,878.897 147.878,878.146 152.669,877.574 159.626,878.229 165.117,878.692 166.741,877.932 M170.964,886.01 L175.963,895.03 Q176.051,895.167 176.12,895.312 M130.788,881.583 Q128.326,884.98 127.688,902.994 127.414,911.189 127.358,913.151 127.372,916.637 127.765,920.51 128.244,925.226 131.249,935.554 134.17,945.891 134.769,951.785 134.831,952.398 134.897,953.048 135.114,955.857 135.109,959.321 135.112,965 134.527,972.439 134.117,977.654 133.42,983.737 130.985,1004.997 132.729,1022.173 133.011,1024.952 135.189,1033.833 137.316,1042.209 137.31,1043.826 M137.724,857.74 Q139.477,857.948 141.346,858.223 155.497,860.188 160.86,859.389 M152.877,898.055 L153.259,900.142 Q153.456,902.079 152.723,907.428 151.998,912.861 152.275,917.256 152.518,922.165 153.356,930.417 153.45,931.343 154.086,934.256 154.73,937.253 154.842,938.348 154.848,938.408 154.854,938.474 155.069,940.739 154.919,944.975 154.834,950.003 154.205,951.343 153.541,952.346 152.357,954.933 151.514,956.677 151.12,957.823 150.726,958.969 150.781,959.516 M156.881,994.456 Q156.95,995.129 156.64,1002.136 156.247,1009.152 156.349,1010.162 156.537,1012.015 158.575,1016.997 159.56,1019.512 160.084,1020.969 160.571,1022.412 160.613,1022.83 160.904,1025.692 159.001,1031.245 157.29,1036.182 155.786,1038.122 M134.897,953.048 Q130.158,954.125 125.156,960.162 120.516,965.703 119.674,971.522 119.433,973.219 119.511,974.942 119.722,980.365 121.307,1037.029 123.017,1092.405 123.531,1098.308 123.933,1102.265 124.036,1109.145 124.061,1110.155 124.103,1111.052 L124.111,1111.137 Q124.317,1114.016 124.872,1115.696 125.362,1117.177 165.353,1165.008 205.039,1212.359 205.465,1215.719 M117.619,971.391 Q109.955,976.337 102.223,980.61 91.183,986.665 84.827,987.736 71.549,989.339 56.022,990.576 25.043,992.956 13.882,991.112 M178.22,1046.265 Q177.737,1046.952 177.105,1047.016 M180.069,1074.532 L180.074,1074.574 Q180.059,1076.524 180.017,1078.621 179.79,1089.822 179.316,1104.808 179.245,1108.303 189.939,1123.975 203.114,1143.139 206.096,1149.046 226.453,1189.513 228.781,1208.247 M28.892,1092.01 Q35.57,1092.438 52.419,1096.681 70.76,1101.369 80.914,1105.868 94.718,1111.952 98.298,1112.864 105.729,1114.832 114.972,1112.873 118.719,1112.067 121.858,1111.153" test="Avatar Lady"/>
      <path id="Layer1_0_2_STROKES" stroke="#FFBC00" stroke-width="1.693" stroke-linejoin="round" stroke-linecap="round" fill="none" d="M235.335,802.401 Q246.457,793.121 258.692,783.186 L266.466,789.372 Q274.595,796.543 276.278,801.391 276.887,803.201 270.854,806.621 264.081,810.286 263.361,813.252 262.457,816.916 264.467,825.814 265.355,829.654 266.381,832.936 266.443,833.144 266.508,833.348 M171.421,854.488 Q173.319,853.555 175.372,852.343 181.54,848.661 189.079,842.402 195.513,837.07 213.14,821.329 223.617,812.227 235.335,802.401 M266.247,833.715 Q266.516,833.935 266.762,834.173 266.629,833.768 266.508,833.348 M266.247,833.715 Q263.456,831.113 259.326,828.803 250.232,823.857 242.538,826 235.097,828.116 222.899,837.011 211.241,846.086 205.39,850.145 204.556,850.72 203.838,851.196 199.859,853.897 185.531,862.753 184.093,863.648 182.809,864.433 179.081,866.804 176.786,868.362 174.276,870.097 173.51,870.864" test="Avatar Lady"/>
      <path id="Layer1_0_3_STROKES" stroke="#FF0" stroke-width="1.693" stroke-linejoin="round" stroke-linecap="round" fill="none" d="M286.63,830.454 Q286.95,836.121 292.177,833.974 292.872,833.662 293.422,833.253 295.343,831.764 295.327,828.976 295.289,826.087 292.433,825.612 M239.159,852.203 Q238.034,854.529 237.833,855.06 237.774,855.321 237.842,855.995 238.287,860.373 244.434,859.749 246.539,859.536 248.556,856.779 250.43,854.292 250.276,852.776 250.233,852.355 247.914,850.464" test="Avatar Lady"/>
      <path id="Layer1_0_4_STROKES" stroke="#FFF" stroke-width="1.693" stroke-linejoin="round" stroke-linecap="round" fill="none" d="M235.677,905.044 L236.219,907.031 Q236.402,908.834 235.312,911.078 234.953,911.889 234.418,912.743 232.964,915.187 232.022,915.964 M237.069,912.048 Q246.188,916.397 256.222,913.847 259.901,913.218 263.664,912.58" test="Avatar Lady"/>
    </g>
  </g>
</svg>