<?xml version="1.0" encoding="utf-8"?>
<svg id="EdithAnim13" image-rendering="inherit" baseProfile="basic" version="1.1" x="0px" y="0px" width="800" height="600" xmlns="http://www.w3.org/2000/svg" xmlns:xlink="http://www.w3.org/1999/xlink">
  <g id="22_Avatarf10r1" overflow="visible">
    <g id="Avatar-Manf0r1">
      <g id="Tailf0r1">
        <path id="Layer3_0_1_STROKES" stroke="#009EFF" stroke-width="2.303" stroke-linejoin="round" stroke-linecap="round" fill="none" d="M650.79,896.842 Q649.628,879.92 648.987,862.989 648.413,846.571 643.079,831.065 637.217,814.176 620.884,806.493 601.035,797.236 598.161,817.936 597.741,820.952 599.713,823.599 604.375,829.959 611.004,834.03 617.933,831.5 623.144,836.279 629.418,842.081 632.179,850.78 638.632,871.308 643.772,892.008 645.224,897.8 644.249,903.676" test="Tail_2.3242325232423263e+312.3242325232423263e+31_2323"/>
      </g>
      <path fill="#000" stroke="none" d="M612.353,810.765 Q608.249,801.553 603.056,800.213 601.884,799.877 587.646,803.981 570.729,808.839 551.55,809.006 531.618,809.174 512.522,802.976 497.196,796.695 495.437,796.863 489.407,799.543 487.732,800.715 484.718,802.725 484.969,805.238 485.136,807.08 485.304,817.214 485.89,827.012 488.737,830.363 491.836,833.964 506.827,841.752 519.222,848.034 531.869,853.394 540.16,856.911 552.639,872.573 559.004,880.529 566.206,889.825 567.714,890.998 566.206,892.672 565.034,893.929 565.201,893.929 L577.094,890.244 Q592.252,885.47 602.554,869.474 611.348,855.739 614.781,837.063 617.545,822.239 612.353,810.765 M617.713,462.281 L614.698,461.025 Q614.654,461.131 614.614,461.192 613.706,463.511 613.106,465.631 611.515,471.326 609.002,480.036 608.946,480.189 608.835,480.287 606.54,486.384 601.8,489.081 591.834,494.776 586.306,497.456 L590.075,505.831 Q589.656,511.945 591.583,552.899 591.653,554.41 591.666,555.83 593.229,587.831 593.425,597.537 593.423,597.601 593.425,597.621 593.453,599.866 593.425,600.887 593.09,614.036 595.519,634.806 595.854,637.738 600.46,635.309 605.066,632.796 604.731,631.037 604.564,629.781 606.49,630.451 608.081,631.037 608.5,631.456 608.584,631.54 614.781,610.1 L619.806,618.475 Q619.89,618.559 622.738,600.05 L627.762,602.144 Q627.86,602.243 627.176,593.35 627.213,593.33 627.176,593.266 626.222,579.595 623.491,544.859 621.835,523.633 620.56,509.684 618.982,491.038 618.131,485.396 617.893,483.751 617.713,483.219 617.893,483.751 618.131,485.396 618.982,491.038 620.56,509.684 L621.9,509.6 Q623.575,509.432 628.516,504.491 632.871,500.304 636.137,501.644 639.069,502.9 656.656,528.36 676.924,554.155 693.506,558.175 678.599,558.678 656.489,575.679 649.621,580.955 642.838,587.32 L641.833,588.241 Q643.025,600.971 646.941,644.521 L647.863,644.438 Q652.218,642.009 682.703,618.056 712.099,594.858 721.563,586.65 728.598,580.536 734.376,570.905 737.308,565.964 740.825,559.85 742.5,557.924 746.101,555.244 749.033,552.564 749.2,548.125 749.368,543.77 717.543,523.251 682.284,501.309 675.5,496.2 655.567,481.209 646.271,475.179 635.196,467.918 627.679,464.71 621.433,462.052 617.713,462.281 M558.166,457.172 Q560.679,456.754 563.024,456.335 566.793,456.335 566.541,460.941 573.744,460.104 576.591,460.941 579.606,461.862 579.522,465.129 L584.213,467.306 Q587.506,460.904 595.519,455.581 600.125,452.482 604.061,451.477 604.123,451.464 604.145,451.394 L603.056,444.694 Q604.313,444.61 601.884,441.679 597.445,436.57 593.844,432.131 588.986,426.101 572.069,420.657 557.245,415.884 549.037,415.8 522.74,415.549 504.65,422.919 493.427,427.525 483.377,441.428 481.451,444.062 479.86,446.453 475.369,453.571 473.997,458.931 L473.997,460.941 Q474.165,460.941 474.919,461.192 475.756,461.36 476.343,461.36 479.357,461.36 482.372,458.931 485.806,456.084 489.072,455.497 L489.072,457.591 492.841,457.591 Q495.354,457.089 500.127,455.665 503.812,454.492 504.566,454.66 L504.566,456.754 Q505.404,456.754 508.754,457.172 514.281,457.172 519.641,454.241 L523.829,454.241 523.829,455.916 530.529,455.916 Q541.584,452.566 542.254,452.566 543.343,452.566 544.348,453.32 545.52,454.157 547.698,454.241 547.698,456.335 547.279,457.172 L558.166,457.172Z" test="Avatar Man" stroke-width="1.675"/>
      <path id="Layer2_0_1_STROKES" stroke="#009EFF" stroke-width="1.675" stroke-linejoin="round" stroke-linecap="round" fill="none" d="M579.522,465.129 Q579.606,461.862 576.591,460.941 573.744,460.104 566.541,460.941 566.793,456.335 563.024,456.335 560.679,456.754 558.166,457.172 L547.279,457.172 Q547.698,456.335 547.698,454.241 545.52,454.157 544.348,453.32 543.343,452.566 542.254,452.566 541.584,452.566 530.529,455.916 L523.829,455.916 523.829,454.241 519.641,454.241 Q514.281,457.172 508.754,457.172 505.404,456.754 504.566,456.754 L504.566,454.66 Q503.812,454.492 500.127,455.665 495.354,457.089 492.841,457.591 L489.072,457.591 489.072,455.497 Q485.806,456.084 482.372,458.931 479.357,461.36 476.343,461.36 475.756,461.36 474.919,461.192 474.165,460.941 473.997,460.941 L473.997,458.931 Q475.369,453.571 479.902,446.494 481.451,444.062 483.377,441.428 493.427,427.525 504.65,422.919 522.74,415.549 549.037,415.8 557.245,415.884 572.069,420.657 588.986,426.101 593.844,432.131 597.445,436.57 601.884,441.679 604.313,444.61 603.056,444.694 M604.187,451.436 Q604.249,451.442 604.313,451.436 606.845,450.876 612.269,450.556 616.205,450.389 618.634,448.797 619.974,447.96 621.9,446.369 622.654,445.95 619.555,451.31 618.131,453.739 616.959,456.084 616.242,457.492 615.661,458.847 615.522,459.127 615.409,459.392 615.165,459.914 614.949,460.439 614.818,460.734 614.698,461.025 M617.713,462.281 Q621.433,462.052 627.721,464.752 635.196,467.918 646.271,475.179 655.567,481.209 675.5,496.2 682.284,501.309 717.543,523.251 749.368,543.77 749.2,548.125 749.033,552.564 746.101,555.244 742.5,557.924 740.825,559.85 737.308,565.964 734.376,570.905 728.598,580.536 721.563,586.65 712.099,594.858 682.703,618.056 652.218,642.009 647.863,644.438 647.429,644.721 647.025,644.982 642.151,648.144 639.99,649.379 636.137,651.64 632.787,651.137 M616.959,456.084 Q615.654,457.514 614.572,458.345 613.478,459.142 612.604,459.35 609.421,459.601 605.569,460.187 600.627,460.941 597.948,462.784 594.346,465.882 590.912,468.562 586.641,471.912 583.961,473.504 L582.119,474.425 Q582.522,470.73 584.254,467.348 M578.685,465.129 L579.522,465.129 M584.254,467.348 Q587.506,460.904 595.519,455.581 600.125,452.482 604.061,451.477 604.123,451.464 604.187,451.436 M614.698,461.025 Q614.654,461.131 614.614,461.234 613.706,463.511 613.106,465.631 611.515,471.326 609.002,480.036 608.946,480.189 608.877,480.329 606.54,486.384 601.8,489.081 591.834,494.776 586.306,497.456 M590.075,505.831 Q589.656,511.945 591.583,552.899 591.653,554.41 591.708,555.872 593.229,587.831 593.425,597.537 593.423,597.601 593.425,597.663 593.453,599.866 593.425,600.887 593.09,614.036 595.519,634.806 595.854,637.738 600.46,635.309 605.066,632.796 604.731,631.037 604.564,629.781 606.49,630.451 608.081,631.037 608.5,631.456 608.584,631.54 614.781,610.1 L619.806,618.475 Q619.89,618.559 622.738,600.05 L627.762,602.144 Q627.86,602.243 627.218,593.392 627.213,593.33 627.218,593.266 626.222,579.595 623.491,544.859 621.835,523.633 620.602,509.684 618.982,491.038 618.131,485.396 617.893,483.751 617.713,483.219 M641.833,588.283 L642.838,587.32 Q649.621,580.955 656.489,575.679 678.599,558.678 693.506,558.175 676.924,554.155 656.656,528.36 639.069,502.9 636.137,501.644 632.871,500.304 628.516,504.491 623.575,509.432 621.9,509.6 M527.681,502.9 Q528.658,503.057 530.696,503.151 533.021,503.235 536.726,503.235 543.259,503.151 546.106,502.9 551.382,502.397 552.053,502.23 555.402,501.309 555.738,498.713 M576.675,569.9 Q577.512,575.344 579.439,583.216 581.784,592.68 583.794,597.537 M483.294,567.387 Q483.294,567.471 483.629,576.014 483.88,582.127 486.225,586.231 486.979,587.548 488.109,588.828 491.54,592.658 498.452,596.114 508,600.971 517.213,601.306 L520.604,601.557 520.73,601.557 Q529.608,601.892 532.287,601.725 536.894,601.39 542.338,599.631 546.358,598.375 557.161,588.66 564.839,581.685 572.99,573.166 573.096,573.064 573.199,572.957 573.263,572.897 573.325,572.831 573.41,572.751 573.493,572.664 574.779,571.299 576.089,569.9 576.174,569.81 576.256,569.733 576.29,569.684 576.34,569.649 576.353,569.6 576.382,569.565 586.243,559.051 587.563,556.081 M520.563,602.144 Q519.809,605.745 518.385,613.953 516.961,621.071 514.7,624.756 M637.394,592.512 L641.833,588.283 M628.181,659.094 Q628.098,659.261 619.639,681.287 613.609,696.949 611.431,705.994 608.751,716.965 606.406,749.627 604.061,781.453 605.15,788.488 M556.91,702.141 Q557.412,703.984 559.088,704.486 559.59,704.654 560.93,704.654 563.108,704.654 563.945,703.649 564.28,703.314 565.62,700.215 M523.41,689.998 Q523.242,705.24 524.331,707.585 526.09,711.772 535.973,711.772 540.746,711.772 541.165,711.689 541.667,711.605 543.51,710.516 M524.666,741.504 Q523.829,744.016 523.829,746.78 523.829,751.386 527.514,751.637 529.943,751.721 537.647,751.554 M521.735,776.26 Q526.006,779.191 528.77,779.861 530.78,780.28 534.297,779.61 M564.531,894.431 Q558.25,897.363 541.416,900.545 524.415,903.728 506.325,905.319 490.664,906.743 453.814,905.989 426.009,905.486 410.012,904.481 397.701,903.728 372.744,901.131 366.546,900.461 361.94,901.466 358.674,902.22 357.669,901.55 M478.269,445.531 Q475.086,443.605 471.317,441.595 463.78,437.659 461.519,437.994 459.09,438.329 461.1,450.305 462.775,460.522 464.45,464.794 M468.637,476.1 Q469.307,478.864 471.066,484.391 472.071,488.83 469.475,490.756 466.277,493.14 463.236,495.362 L463.194,495.404 Q417.498,529.335 411.687,531.375 406.579,532.882 405.323,533.301 403.564,533.971 403.312,535.563 402.894,538.829 402.726,550.051 402.475,562.949 403.312,565.713 406.16,577.103 428.102,609.514 449.626,641.255 462.356,653.65 M470.312,504.994 Q472.909,506.334 478.101,507.004 478.312,507.036 478.52,507.046 483.421,507.747 488.319,507.506 491.417,507.339 498.62,506.166 504.482,505.161 506.325,505.412 M469.894,526.769 Q468.889,528.444 458.085,539.248 448.286,549.046 445.606,551.475 M490.329,546.366 Q494.097,546.366 498.285,545.529 L514.616,545.529 Q509.591,550.889 506.744,553.736 501.468,558.929 500.211,558.929 497.95,558.929 494.6,554.239 491.166,548.879 489.91,547.623 M436.394,546.869 Q437.831,550.341 440.916,554.741 440.95,554.79 441,554.825 448.678,565.836 466.544,582.63 474.843,590.424 480.949,596.365 495.077,610.07 497.531,613.869 M469.475,677.1 Q468.889,690.416 471.569,696.781 473.244,700.634 478.352,704.989 483.629,709.26 488.319,710.6 M483.713,718.137 Q483.796,720.734 483.377,731.454 483.21,741.504 484.55,744.1 486.141,747.199 490.077,749.795 493.93,752.307 496.275,752.056 M489.575,755.406 Q489.659,758.17 489.659,762.441 489.826,765.624 491.25,767.55 491.417,767.801 495.94,770.9 498.955,772.994 498.787,776.762 498.62,779.61 496.861,786.645 495.354,792.507 495.856,794.35 M475.338,806.494 Q455.74,802.892 432.039,799.208 384.72,791.921 364.871,791.921 351.639,791.921 336.564,789.158 324.671,786.98 322.159,787.734 317.804,789.074 313.7,795.941 309.596,802.892 309.931,808.588 310.182,812.44 311.522,822.658 312.611,831.786 311.606,835.387 M474.919,830.781 Q467.214,832.037 431.704,832.791 393.179,833.629 386.981,834.131 380.114,834.718 358.255,838.235 338.406,841.418 330.45,841.669 320.986,842.004 312.611,840.831 308.256,840.245 301.975,838.738 298.709,837.984 295.359,840.245 293.6,841.501 289.412,845.856 284.639,850.797 288.994,861.35 289.831,863.444 288.407,875.42 286.816,887.48 287.737,889.825 L290.669,896.944 Q293.935,905.905 295.275,915.369 M354.319,889.825 Q355.491,893.594 357.669,904.397 360.014,915.955 359.762,918.3" test="Avatar Man"/>
      <path id="Layer2_0_2_STROKES" stroke="#FF0" stroke-width="1.675" stroke-linejoin="round" stroke-linecap="round" fill="none" d="M530.529,506.166 Q529.691,510.856 531.366,514.29 533.125,517.891 536.391,517.891 537.731,517.891 539.574,516.886 541.667,515.714 542.254,514.122 M478.185,509.935 Q477.347,515.797 477.347,516.216 477.347,517.92 478.604,519.734 479.272,520.682 480.279,521.66 483.377,524.591 486.56,524.591 488.235,524.591 489.324,522.916 489.994,521.995 491.166,519.985" test="Avatar Man"/>
      <path id="Layer2_0_3_STROKES" stroke="#FFF" stroke-width="1.675" stroke-linejoin="round" stroke-linecap="round" fill="none" d="M559.841,551.81 Q565.453,554.071 565.704,557.84 565.72,558.078 565.746,558.343 565.741,558.406 565.746,558.468 L565.746,558.594 Q565.777,560.773 565.285,564.791 M552.304,566.885 Q557.823,565.568 561.181,561.525 562.307,560.172 563.191,558.51" test="Avatar Man"/>
      <path id="Layer2_0_4_STROKES" stroke="#F90" stroke-width="1.675" stroke-linejoin="round" stroke-linecap="round" fill="none" d="M495.437,796.863 Q497.196,796.695 512.522,802.976 531.618,809.174 551.55,809.006 570.729,808.839 587.646,803.981 601.884,799.877 603.056,800.213 608.249,801.553 612.353,810.765 617.545,822.239 614.781,837.063 611.348,855.739 602.554,869.474 592.252,885.47 577.094,890.244 L565.201,893.929 Q565.034,893.929 566.206,892.672 567.714,890.998 566.206,889.825 559.004,880.529 552.639,872.573 540.16,856.911 531.869,853.394 519.222,848.034 506.827,841.752 491.836,833.964 488.737,830.363 485.89,827.012 485.304,817.214 485.136,807.08 484.969,805.238 484.718,802.725 487.732,800.715 489.407,799.543 495.437,796.863Z" test="Avatar Man"/>
    </g>
    <g id="Avatar-Lady">
      <path fill="#000" stroke="none" d="M251.593,742.726 Q247.881,742.261 244.763,742.484 236.621,743.566 233.169,743.916 227.527,744.489 221.394,742.73 217.746,741.994 212.479,739.552 202.029,734.658 192.441,725.679 182.972,716.813 176.073,706.074 L174.408,707.264 Q174.628,713.621 172.411,728.648 170.775,740.071 171.195,748.508 171.269,750.079 171.418,751.548 171.726,754.579 173.888,769.161 176.025,790.211 174.277,798.13 173.115,803.437 171.338,809.402 170.343,813.842 170.959,819.904 171.302,823.28 172.486,827.405 L172.495,827.489 Q173.586,831.305 175.379,835.788 179.048,845.113 179.535,849.913 179.792,852.439 179.114,854.975 178.741,856.331 178.216,857.022 L179.784,858.224 Q180.016,860.14 180.104,863.891 180.113,864.079 180.138,864.228 180.265,869.41 180.168,877.921 L180.176,878.005 Q180.144,881.41 180.069,885.332 L183.761,887.339 Q186.017,883.489 191.844,875.63 200.005,864.678 201.911,860.826 L202.246,859.942 Q205.49,855.869 207.971,847.621 210.784,836.787 212.811,829.946 213.252,828.426 213.615,826.972 213.816,826.453 213.933,825.918 214.014,825.805 213.992,825.657 214.064,825.592 214.059,825.48 L214.059,825.48 Q218.071,811.848 220.653,803.289 225.981,785.394 229.152,777.245 230.609,773.446 232.702,769.484 233.535,767.882 234.415,766.247 L234.634,765.885 234.709,765.792 Q236.998,761.989 239.793,758.045 246.263,748.881 251.377,744.789 L251.593,742.726 M216.022,594.321 L214.184,582.088 213.763,582.13 Q204.332,583.088 198.835,584.242 187.765,586.642 179.224,591.337 171.021,595.998 163.654,603.041 160.863,605.678 158.172,608.532 158.174,608.572 158.096,608.625 157.909,608.858 157.634,609.097 153.666,613.563 150.002,618.549 143.716,627.013 141.539,635.741 139.355,644.385 139.386,653.909 L139.281,657.067 Q141.98,657.156 145.261,657.311 150.651,657.614 158.43,661.333 158.832,661.546 164.018,664.424 164.067,664.436 164.102,664.415 165.862,665.446 168.164,666.725 165.862,665.446 164.102,664.415 164.067,664.436 164.018,664.424 158.832,661.546 158.43,661.333 150.651,657.614 145.261,657.311 141.98,657.156 139.281,657.067 L137.724,668.54 Q139.477,668.748 141.346,669.023 155.497,670.988 160.86,670.189 155.497,670.988 141.346,669.023 139.477,668.748 137.724,668.54 137.551,668.511 137.379,668.49 125.644,666.995 119.365,667.852 L115.263,672.692 Q117.587,674.678 122.767,678.735 129.657,684.093 133.92,686.365 134.745,686.756 135.437,687.062 141.319,689.697 147.878,688.946 152.669,688.374 159.626,689.029 165.117,689.492 166.741,688.732 L172.191,689.624 170.964,696.81 175.963,705.83 Q176.051,705.967 176.073,706.074 182.972,716.813 192.441,725.679 202.029,734.658 212.479,739.552 217.746,741.994 221.394,742.73 227.527,744.489 233.169,743.916 236.621,743.566 244.763,742.484 247.881,742.261 251.593,742.726 L251.677,742.717 Q254.58,743.147 257.843,743.963 267.784,746.356 270.707,746.655 276.99,747.378 280.499,745.915 282.124,745.155 286.363,741.662 288.953,739.528 290.297,731.82 291.689,722.066 292.767,716.767 293.979,711.115 299.528,699.578 300.259,698.05 300.93,696.628 305.476,686.957 307.123,682.218 307.304,681.706 307.45,681.249 309.956,673.253 306.699,663.801 304.17,656.487 299.784,651.828 L293.38,644.057 Q292.872,644.462 292.177,644.774 286.95,646.921 286.63,641.254 L281.861,639.527 266.508,644.148 Q266.629,644.568 266.762,644.973 266.516,644.735 266.205,644.519 263.456,641.913 259.326,639.603 250.232,634.657 242.538,636.8 235.097,638.916 222.899,647.811 211.241,656.886 205.344,660.908 204.556,661.52 203.838,661.996 199.859,664.697 185.531,673.553 184.093,674.448 182.805,675.191 179.081,677.604 176.739,679.125 174.276,680.897 173.51,681.664 174.276,680.897 176.739,679.125 179.081,677.604 182.805,675.191 184.093,674.448 185.531,673.553 199.859,664.697 203.838,661.996 204.556,661.52 205.344,660.908 211.241,656.886 222.899,647.811 235.097,638.916 242.538,636.8 250.232,634.657 259.326,639.603 263.456,641.913 266.205,644.519 L266.508,644.148 Q266.443,643.944 266.381,643.736 265.355,640.454 264.467,636.614 262.457,627.716 263.361,624.052 264.081,621.086 270.854,617.421 276.887,614.001 276.278,612.191 274.595,607.343 266.466,600.172 L258.692,593.986 Q246.457,603.921 235.293,613.206 223.617,623.027 213.14,632.129 195.513,647.87 189.079,653.202 181.54,659.461 175.368,663.101 173.319,664.355 171.421,665.288 173.319,664.355 175.368,663.101 181.54,659.461 189.079,653.202 195.513,647.87 213.14,632.129 223.617,623.027 235.293,613.206 L229.092,605.754 Q228.232,604.82 223.088,600.239 217.48,595.279 216.022,594.321 M252.551,653.307 Q251.244,652.164 247.226,651.976 244.182,651.834 235.538,657.501 232.766,659.358 229.422,661.78 215.635,671.772 213.277,672.012 215.635,671.772 229.422,661.78 232.766,659.358 235.538,657.501 244.182,651.834 247.226,651.976 251.244,652.164 252.551,653.307 253.858,654.45 258.055,656.406 253.858,654.45 252.551,653.307 M248.556,667.579 Q250.43,665.092 250.276,663.576 250.233,663.155 247.914,661.264 250.233,663.155 250.276,663.576 250.43,665.092 248.556,667.579 246.539,670.336 244.434,670.549 238.287,671.173 237.842,666.795 237.774,666.121 237.833,665.86 238.034,665.329 239.159,663.003 238.034,665.329 237.833,665.86 237.774,666.121 237.842,666.795 238.287,671.173 244.434,670.549 246.539,670.336 248.556,667.579 M235.265,721.841 Q234.953,722.689 234.418,723.543 232.964,725.987 232.022,726.764 232.964,725.987 234.418,723.543 234.953,722.689 235.265,721.841 236.402,719.634 236.219,717.831 L235.677,715.844 236.219,717.831 Q236.402,719.634 235.265,721.841 M273.945,688.905 Q276.077,688.688 278.801,687.306 281.753,685.915 285.364,683.237 290.514,679.335 291.62,676.987 292.05,676.201 291.988,675.588 291.92,674.915 290.005,672.812 288.174,670.701 287.475,670.517 288.174,670.701 290.005,672.812 291.92,674.915 291.988,675.588 292.05,676.201 291.62,676.987 290.514,679.335 285.364,683.237 281.753,685.915 278.801,687.306 276.077,688.688 273.945,688.905 270.661,689.238 268.232,687.103 264.395,683.664 264.126,683.522 264.395,683.664 268.232,687.103 270.661,689.238 273.945,688.905 M293.553,690.997 Q293.484,690.323 292.363,689.331 293.484,690.323 293.553,690.997 293.664,692.092 293.337,693.06 293.01,694.029 292.245,694.873 290.631,696.568 288.189,696.816 287.263,696.91 285.249,696.349 283.32,695.779 282.055,695.057 283.32,695.779 285.249,696.349 287.263,696.91 288.189,696.816 290.631,696.568 292.245,694.873 293.01,694.029 293.337,693.06 293.664,692.092 293.553,690.997 M256.222,724.647 Q259.901,724.018 263.664,723.38 259.901,724.018 256.222,724.647 246.188,727.197 237.069,722.848 246.188,727.197 256.222,724.647 M191.057,624.928 Q186.731,620.859 180.345,619.126 174.043,617.384 168.731,618.689 174.043,617.384 180.345,619.126 186.731,620.859 191.057,624.928Z" test="Avatar Lady" stroke-width="1.693"/>
      <path id="Layer1_0_1_STROKES" stroke="#009EFF" stroke-width="1.693" stroke-linejoin="round" stroke-linecap="round" fill="none" d="M281.861,639.527 Q280.449,635.672 283.41,633.84 286.279,631.933 289.048,630.716 M256.656,589.854 Q256.832,589.071 256.789,588.65 256.703,587.808 253.378,582.701 249.453,576.72 248.828,575.592 246.531,571.402 241.957,570.761 237.283,570.81 235.606,570.214 236.071,571.443 236.49,575.569 L236.938,581.649 Q236.694,581.758 234.773,581.273 232.684,580.805 231.757,580.899 228.474,581.232 226.688,581.243 222.427,581.165 217.712,581.644 L214.184,582.088 M216.022,594.321 Q217.48,595.279 223.088,600.239 228.232,604.82 229.092,605.754 M235.606,570.214 Q235.594,570.131 235.514,570.139 L235.488,569.886 Q235.587,570.045 235.606,570.214Z M213.763,582.13 Q213.746,581.962 213.83,581.953 214.008,582.1 214.184,582.088 L213.763,582.13 Q204.332,583.088 198.835,584.242 187.765,586.642 179.224,591.337 171.021,595.998 163.654,603.041 160.863,605.678 158.214,608.528 158.174,608.572 158.139,608.62 157.909,608.858 157.676,609.093 153.666,613.563 150.002,618.549 143.716,627.013 141.539,635.741 139.355,644.385 139.386,653.909 M139.286,657.11 Q141.98,657.156 145.261,657.311 150.651,657.614 158.43,661.333 158.832,661.546 164.018,664.424 164.067,664.436 164.106,664.457 165.862,665.446 168.164,666.725 M258.055,656.406 Q253.858,654.45 252.551,653.307 251.244,652.164 247.226,651.976 244.182,651.834 235.542,657.544 232.766,659.358 229.422,661.78 215.635,671.772 213.277,672.012 M264.126,683.522 Q264.395,683.664 268.232,687.103 270.661,689.238 273.945,688.905 276.077,688.688 278.848,687.343 281.753,685.915 285.364,683.237 290.514,679.335 291.662,676.983 292.05,676.201 291.988,675.588 291.92,674.915 290.005,672.812 288.174,670.701 287.475,670.517 M299.784,651.828 Q304.17,656.487 306.699,663.801 309.956,673.253 307.45,681.249 307.304,681.706 307.123,682.218 305.476,686.957 300.93,696.628 300.259,698.05 299.528,699.578 293.979,711.115 292.767,716.767 291.689,722.066 290.297,731.82 288.953,739.528 286.363,741.662 282.124,745.155 280.499,745.915 276.99,747.378 270.707,746.655 267.784,746.356 257.843,743.963 254.58,743.147 251.681,742.759 L251.597,742.768 M251.377,744.789 Q246.263,748.881 239.793,758.045 236.998,761.989 234.752,765.788 L234.676,765.881 234.458,766.243 Q233.535,767.882 232.702,769.484 230.609,773.446 229.152,777.245 225.981,785.394 220.653,803.289 218.071,811.848 214.101,825.476 L214.063,825.522 Q214.064,825.592 214.034,825.653 214.014,825.805 213.98,825.956 213.816,826.453 213.657,826.967 213.252,828.426 212.811,829.946 210.784,836.787 207.971,847.621 205.49,855.869 202.246,859.942 M201.911,860.826 Q200.005,864.678 191.844,875.63 186.017,883.489 183.765,887.381 183.055,888.643 182.703,889.488 M282.055,695.057 Q283.32,695.779 285.249,696.349 287.263,696.91 288.189,696.816 290.631,696.568 292.245,694.873 293.01,694.029 293.337,693.06 293.664,692.092 293.553,690.997 293.484,690.323 292.363,689.331 M251.597,742.768 Q247.881,742.261 244.763,742.484 236.621,743.566 233.169,743.916 227.527,744.489 221.394,742.73 217.746,741.994 212.479,739.552 202.029,734.658 192.441,725.679 182.972,716.813 176.12,706.112 M174.408,707.264 Q174.628,713.621 172.411,728.648 170.775,740.071 171.195,748.508 171.269,750.079 171.418,751.548 171.726,754.579 173.888,769.161 176.025,790.211 174.277,798.13 173.115,803.437 171.338,809.402 170.343,813.842 170.959,819.904 171.302,823.28 172.49,827.447 L172.495,827.489 Q173.586,831.305 175.379,835.788 179.048,845.113 179.535,849.913 179.792,852.439 179.114,854.975 178.741,856.331 178.22,857.065 M179.784,858.224 Q180.016,860.14 180.108,863.933 180.113,864.079 180.138,864.228 180.265,869.41 180.172,877.963 L180.176,878.005 Q180.144,881.41 180.069,885.332 M230.124,779.273 L230.106,784.124 Q230.191,784.966 231.123,788.274 232.054,791.582 232.14,792.424 232.225,793.266 233.53,798.578 234.751,803.899 234.836,804.741 235.555,811.813 228.292,842.495 220.945,873.185 221.586,879.5 222.21,885.647 232.951,899.273 241.347,909.904 251.653,920.087 259.117,927.41 278.271,962.725 278.382,963.82 279.081,964.004 279.688,964.113 279.712,963.515 M194.641,919.921 Q196.865,920.886 208.897,930.468 221.781,940.899 222.029,943.341 222.337,946.372 244.606,959.594 266.875,972.815 267.217,976.183 267.32,977.193 267.648,977.075 267.976,976.956 267.993,977.125 L268.607,976.467 M191.057,624.928 Q186.731,620.859 180.345,619.126 174.043,617.384 168.731,618.689 M139.286,657.11 Q139.203,657.128 139.117,657.127 139.03,657.125 138.949,657.144 134.854,657.058 132.157,657.28 124.899,657.847 119.875,660.314 113.64,663.414 112.933,663.996 111.756,664.967 112.079,667.316 112.504,669.825 113.947,671.465 114.343,671.863 115.073,672.499 115.165,672.571 115.258,672.65 L115.305,672.688 M119.365,667.852 Q125.644,666.995 137.379,668.49 137.551,668.511 137.724,668.54 M115.305,672.688 Q117.587,674.678 122.767,678.735 129.657,684.093 133.962,686.361 134.745,686.756 135.437,687.062 141.319,689.697 147.878,688.946 152.669,688.374 159.626,689.029 165.117,689.492 166.741,688.732 M170.964,696.81 L175.963,705.83 Q176.051,705.967 176.12,706.112 M130.788,692.383 Q128.326,695.78 127.688,713.794 127.414,721.989 127.358,723.951 127.372,727.437 127.765,731.31 128.244,736.026 131.249,746.354 134.17,756.691 134.769,762.585 134.831,763.198 134.897,763.848 135.114,766.657 135.109,770.121 135.112,775.8 134.527,783.239 134.117,788.454 133.42,794.537 130.985,815.797 132.729,832.973 133.011,835.752 135.189,844.633 137.316,853.009 137.31,854.626 M137.724,668.54 Q139.477,668.748 141.346,669.023 155.497,670.988 160.86,670.189 M152.877,708.855 L153.259,710.942 Q153.456,712.879 152.723,718.228 151.998,723.661 152.275,728.056 152.518,732.965 153.356,741.217 153.45,742.143 154.086,745.056 154.73,748.053 154.842,749.148 154.848,749.208 154.854,749.274 155.069,751.539 154.919,755.775 154.834,760.803 154.205,762.143 153.541,763.146 152.357,765.733 151.514,767.477 151.12,768.623 150.726,769.769 150.781,770.316 M156.881,805.256 Q156.95,805.929 156.64,812.936 156.247,819.952 156.349,820.962 156.537,822.815 158.575,827.797 159.56,830.312 160.084,831.769 160.571,833.212 160.613,833.63 160.904,836.492 159.001,842.045 157.29,846.983 155.786,848.922 M134.897,763.848 Q130.158,764.925 125.156,770.962 120.516,776.503 119.674,782.322 119.433,784.019 119.511,785.742 119.722,791.165 121.307,847.829 123.017,903.205 123.531,909.108 123.933,913.065 124.036,919.945 124.061,920.955 124.103,921.852 L124.111,921.937 Q124.317,924.816 124.872,926.496 125.362,927.977 165.353,975.808 205.039,1023.159 205.465,1026.519 M117.619,782.191 Q109.955,787.137 102.223,791.41 91.183,797.465 84.827,798.536 71.549,800.14 56.022,801.376 25.043,803.756 13.882,801.912 M178.22,857.065 Q177.737,857.752 177.105,857.816 M180.069,885.332 L180.074,885.374 Q180.059,887.324 180.017,889.421 179.79,900.622 179.316,915.608 179.245,919.103 189.939,934.775 203.114,953.939 206.096,959.846 226.453,1000.313 228.781,1019.047 M28.892,902.81 Q35.57,903.238 52.419,907.481 70.76,912.169 80.914,916.668 94.718,922.752 98.298,923.664 105.729,925.632 114.972,923.673 118.719,922.867 121.858,921.953" test="Avatar Lady"/>
      <path id="Layer1_0_2_STROKES" stroke="#FFBC00" stroke-width="1.693" stroke-linejoin="round" stroke-linecap="round" fill="none" d="M235.335,613.201 Q246.457,603.921 258.692,593.986 L266.466,600.172 Q274.595,607.343 276.278,612.191 276.887,614.001 270.854,617.421 264.081,621.086 263.361,624.052 262.457,627.716 264.467,636.614 265.355,640.454 266.381,643.736 266.443,643.944 266.508,644.148 M171.421,665.288 Q173.319,664.355 175.372,663.143 181.54,659.461 189.079,653.202 195.513,647.87 213.14,632.129 223.617,623.027 235.335,613.201 M266.247,644.515 Q266.516,644.735 266.762,644.973 266.629,644.568 266.508,644.148 M266.247,644.515 Q263.456,641.913 259.326,639.603 250.232,634.657 242.538,636.8 235.097,638.916 222.899,647.811 211.241,656.886 205.39,660.945 204.556,661.52 203.838,661.996 199.859,664.697 185.531,673.553 184.093,674.448 182.809,675.233 179.081,677.604 176.786,679.162 174.276,680.897 173.51,681.664" test="Avatar Lady"/>
      <path id="Layer1_0_3_STROKES" stroke="#FF0" stroke-width="1.693" stroke-linejoin="round" stroke-linecap="round" fill="none" d="M286.63,641.254 Q286.95,646.921 292.177,644.774 292.872,644.462 293.422,644.053 295.343,642.564 295.327,639.776 295.289,636.887 292.433,636.412 M239.159,663.003 Q238.034,665.329 237.833,665.86 237.774,666.121 237.842,666.795 238.287,671.173 244.434,670.549 246.539,670.336 248.556,667.579 250.43,665.092 250.276,663.576 250.233,663.155 247.914,661.264" test="Avatar Lady"/>
      <path id="Layer1_0_4_STROKES" stroke="#FFF" stroke-width="1.693" stroke-linejoin="round" stroke-linecap="round" fill="none" d="M235.677,715.844 L236.219,717.831 Q236.402,719.634 235.312,721.878 234.953,722.689 234.418,723.543 232.964,725.987 232.022,726.764 M237.069,722.848 Q246.188,727.197 256.222,724.647 259.901,724.018 263.664,723.38" test="Avatar Lady"/>
    </g>
  </g>
</svg>