<?xml version="1.0" encoding="utf-8"?>
<svg id="EdithAnim13" image-rendering="inherit" baseProfile="basic" version="1.1" x="0px" y="0px" width="800" height="600" xmlns="http://www.w3.org/2000/svg" xmlns:xlink="http://www.w3.org/1999/xlink">
  <g id="22_Avatarf102r1" overflow="visible">
    <g id="Avatar-Manf0r1">
      <g id="Tailf0r1">
        <path id="Layer3_0_1_STROKES" stroke="#009EFF" stroke-width="2.321" stroke-linejoin="round" stroke-linecap="round" fill="none" d="M641.824,606.55 Q640.655,589.496 640.012,572.431 639.435,555.884 634.063,540.255 628.157,523.233 611.696,515.487 591.693,506.154 588.793,527.017 588.37,530.057 590.356,532.724 595.054,539.135 601.735,543.239 608.718,540.69 613.97,545.508 620.292,551.356 623.073,560.124 629.574,580.815 634.751,601.678 636.214,607.516 635.23,613.438" test="Tail_2.3242325232423263e+312.3242325232423263e+31_2.3242325232423263e+312.3242325232423263e+31_2.3242325232423263e+312.3242325232423263e+31_2.3242325232423263e+312.3242325232423263e+31_2.3242325232423263e+312.3242325232423263e+31_2.3242325232423263e+312.3242325232423263e+31_2.3242325232423263e+312.3242325232423263e+31_2.3242325232423263e+312.3242325232423263e+31_2.3242325232423263e+312.3242325232423263e+31_2.3242325232423263e+312.3242325232423263e+31_2.3242325232423263e+312.3242325232423263e+31_2.3242325232423263e+312.3242325232423263e+31_2.3242325232423263e+312.3242325232423263e+31_2.3242325232423263e+312.3242325232423263e+31_23242324"/>
      </g>
      <path fill="#000" stroke="none" d="M603.178,519.745 Q599.045,510.466 593.815,509.117 592.634,508.779 578.295,512.912 561.256,517.805 541.94,517.973 521.865,518.142 502.633,511.9 487.197,505.574 485.426,505.743 479.352,508.442 477.665,509.623 474.629,511.647 474.882,514.178 475.05,516.033 475.219,526.24 475.81,536.109 478.678,539.483 481.798,543.11 496.897,550.954 509.381,557.28 522.118,562.679 530.468,566.221 543.037,581.995 549.447,590.008 556.701,599.371 558.22,600.552 556.701,602.239 555.52,603.504 555.689,603.504 L567.667,599.793 Q582.934,594.985 593.309,578.874 602.166,565.041 605.624,546.231 608.408,531.301 603.178,519.745 M608.577,168.764 L605.54,167.499 Q605.496,167.605 605.456,167.668 604.541,170.003 603.937,172.138 602.335,177.874 599.804,186.646 599.747,186.8 599.635,186.9 597.324,193.04 592.55,195.756 582.512,201.492 576.945,204.191 L580.741,212.626 Q580.319,218.784 582.259,260.031 582.33,261.553 582.344,262.983 583.918,295.213 584.115,304.99 584.113,305.054 584.115,305.074 584.144,307.334 584.115,308.364 583.778,321.606 586.224,342.525 586.561,345.478 591.2,343.031 595.84,340.501 595.502,338.73 595.334,337.464 597.274,338.139 598.876,338.73 599.298,339.151 599.382,339.236 605.624,317.642 L610.685,326.077 Q610.77,326.161 613.638,307.52 L618.699,309.629 Q618.796,309.728 618.108,300.772 618.145,300.752 618.108,300.688 617.146,286.918 614.397,251.933 612.728,230.556 611.444,216.506 609.855,197.727 608.998,192.045 608.759,190.388 608.577,189.852 608.759,190.388 608.998,192.045 609.855,197.727 611.444,216.506 L612.794,216.422 Q614.481,216.253 619.458,211.277 623.844,207.059 627.134,208.409 630.086,209.674 647.799,235.316 668.212,261.296 684.913,265.345 669.899,265.851 647.631,282.974 640.714,288.288 633.882,294.699 L632.869,295.627 Q634.07,308.448 638.015,352.31 L638.943,352.226 Q643.329,349.779 674.032,325.655 703.639,302.29 713.171,294.024 720.256,287.866 726.076,278.166 729.028,273.19 732.571,267.032 734.258,265.092 737.885,262.393 740.837,259.694 741.006,255.223 741.175,250.837 709.122,230.171 673.61,208.071 666.778,202.926 646.703,187.827 637.34,181.754 626.185,174.441 618.614,171.21 612.323,168.533 608.577,168.764 M548.604,163.619 Q551.134,163.197 553.496,162.775 557.292,162.775 557.039,167.415 564.293,166.571 567.161,167.415 570.197,168.343 570.113,171.632 L574.837,173.825 Q578.153,167.378 586.224,162.016 590.863,158.895 594.827,157.883 594.89,157.87 594.912,157.799 L593.815,151.051 Q595.081,150.966 592.634,148.014 588.164,142.869 584.537,138.398 579.644,132.325 562.606,126.842 547.676,122.034 539.41,121.95 512.924,121.697 494.704,129.12 483.401,133.759 473.279,147.761 471.339,150.415 469.736,152.822 465.214,159.992 463.832,165.39 L463.832,167.415 Q464.001,167.415 464.76,167.668 465.603,167.836 466.194,167.836 469.23,167.836 472.267,165.39 475.725,162.522 479.015,161.932 L479.015,164.041 482.811,164.041 Q485.341,163.535 490.149,162.101 493.861,160.92 494.62,161.088 L494.62,163.197 Q495.463,163.197 498.837,163.619 504.404,163.619 509.803,160.667 L514.02,160.667 514.02,162.354 520.768,162.354 Q531.902,158.98 532.577,158.98 533.674,158.98 534.686,159.739 535.867,160.582 538.06,160.667 538.06,162.775 537.638,163.619 L548.604,163.619Z" test="Avatar Man" stroke-width="1.687"/>
      <path id="Layer2_0_1_STROKES" stroke="#009EFF" stroke-width="1.687" stroke-linejoin="round" stroke-linecap="round" fill="none" d="M570.113,171.632 Q570.197,168.343 567.161,167.415 564.293,166.571 557.039,167.415 557.292,162.775 553.496,162.775 551.134,163.197 548.604,163.619 L537.638,163.619 Q538.06,162.775 538.06,160.667 535.867,160.582 534.686,159.739 533.674,158.98 532.577,158.98 531.902,158.98 520.768,162.354 L514.02,162.354 514.02,160.667 509.803,160.667 Q504.404,163.619 498.837,163.619 495.463,163.197 494.62,163.197 L494.62,161.088 Q493.861,160.92 490.149,162.101 485.341,163.535 482.811,164.041 L479.015,164.041 479.015,161.932 Q475.725,162.522 472.267,165.39 469.23,167.836 466.194,167.836 465.603,167.836 464.76,167.668 464.001,167.415 463.832,167.415 L463.832,165.39 Q465.214,159.992 469.779,152.864 471.339,150.415 473.279,147.761 483.401,133.759 494.704,129.12 512.924,121.697 539.41,121.95 547.676,122.034 562.606,126.842 579.644,132.325 584.537,138.398 588.164,142.869 592.634,148.014 595.081,150.966 593.815,151.051 M594.954,157.841 Q595.016,157.848 595.081,157.841 597.631,157.277 603.094,156.955 607.058,156.787 609.504,155.184 610.854,154.34 612.794,152.738 613.553,152.316 610.432,157.714 608.998,160.161 607.817,162.522 607.095,163.941 606.51,165.306 606.37,165.588 606.257,165.854 606.011,166.381 605.793,166.909 605.661,167.205 605.54,167.499 M608.577,168.764 Q612.323,168.533 618.656,171.253 626.185,174.441 637.34,181.754 646.703,187.827 666.778,202.926 673.61,208.071 709.122,230.171 741.175,250.837 741.006,255.223 740.837,259.694 737.885,262.393 734.258,265.092 732.571,267.032 729.028,273.19 726.076,278.166 720.256,287.866 713.171,294.024 703.639,302.29 674.032,325.655 643.329,349.779 638.943,352.226 638.506,352.511 638.099,352.774 633.19,355.959 631.014,357.202 627.134,359.48 623.76,358.974 M607.817,162.522 Q606.503,163.963 605.413,164.8 604.312,165.603 603.431,165.812 600.226,166.065 596.346,166.656 591.369,167.415 588.67,169.27 585.043,172.391 581.584,175.091 577.283,178.465 574.583,180.067 L572.728,180.995 Q573.134,177.273 574.879,173.867 M569.269,171.632 L570.113,171.632 M574.879,173.867 Q578.153,167.378 586.224,162.016 590.863,158.895 594.827,157.883 594.89,157.87 594.954,157.841 M605.54,167.499 Q605.496,167.605 605.456,167.71 604.541,170.003 603.937,172.138 602.335,177.874 599.804,186.646 599.747,186.8 599.678,186.942 597.324,193.04 592.55,195.756 582.512,201.492 576.945,204.191 M580.741,212.626 Q580.319,218.784 582.259,260.031 582.33,261.553 582.386,263.025 583.918,295.213 584.115,304.99 584.113,305.054 584.115,305.116 584.144,307.334 584.115,308.364 583.778,321.606 586.224,342.525 586.561,345.478 591.2,343.031 595.84,340.501 595.502,338.73 595.334,337.464 597.274,338.139 598.876,338.73 599.298,339.151 599.382,339.236 605.624,317.642 L610.685,326.077 Q610.77,326.161 613.638,307.52 L618.699,309.629 Q618.796,309.728 618.15,300.814 618.145,300.752 618.15,300.688 617.146,286.918 614.397,251.933 612.728,230.556 611.487,216.506 609.855,197.727 608.998,192.045 608.759,190.388 608.577,189.852 M632.869,295.669 L633.882,294.699 Q640.714,288.288 647.631,282.974 669.899,265.851 684.913,265.345 668.212,261.296 647.799,235.316 630.086,209.674 627.134,208.409 623.844,207.059 619.458,211.277 614.481,216.253 612.794,216.422 M517.9,209.674 Q518.884,209.833 520.937,209.927 523.278,210.011 527.01,210.011 533.589,209.927 536.457,209.674 541.771,209.168 542.446,208 545.82,208.071 546.158,205.457 M567.245,277.154 Q568.089,282.637 570.029,290.566 572.39,300.097 574.415,304.99 M473.195,274.624 Q473.195,274.708 473.532,283.312 473.785,289.469 476.147,293.602 476.906,294.928 478.045,296.217 481.5,300.075 488.462,303.556 498.078,308.448 507.357,308.785 L510.773,309.038 510.899,309.038 Q519.84,309.376 522.54,309.207 527.179,308.87 532.661,307.098 536.71,305.833 547.591,296.048 555.325,289.024 563.534,280.444 563.64,280.341 563.744,280.233 563.809,280.172 563.871,280.106 563.957,280.025 564.04,279.938 565.335,278.563 566.655,277.154 566.741,277.063 566.823,276.985 566.857,276.936 566.908,276.901 566.921,276.852 566.95,276.817 576.881,266.227 578.211,263.236 M510.731,309.629 Q509.971,313.256 508.537,321.522 507.103,328.692 504.826,332.403 M628.399,299.929 L632.869,295.669 M619.12,366.987 Q619.036,367.155 610.517,389.34 604.443,405.113 602.25,414.223 599.551,425.273 597.189,458.169 594.827,490.222 595.924,497.308 M547.338,410.343 Q547.845,412.198 549.531,412.704 550.038,412.873 551.387,412.873 553.58,412.873 554.424,411.861 554.761,411.524 556.111,408.403 M513.598,398.112 Q513.43,413.464 514.526,415.825 516.298,420.043 526.251,420.043 531.059,420.043 531.481,419.959 531.987,419.874 533.842,418.778 M514.864,449.987 Q514.02,452.518 514.02,455.301 514.02,459.94 517.732,460.194 520.178,460.278 527.938,460.109 M511.911,484.992 Q516.213,487.945 518.997,488.619 521.021,489.041 524.564,488.366 M555.014,604.01 Q548.688,606.963 531.734,610.168 514.611,613.373 496.391,614.976 480.618,616.41 443.504,615.651 415.499,615.144 399.388,614.132 386.989,613.373 361.853,610.758 355.611,610.083 350.972,611.096 347.682,611.855 346.67,611.18 M468.134,151.894 Q464.928,149.954 461.133,147.93 453.541,143.965 451.264,144.303 448.818,144.64 450.842,156.702 452.529,166.993 454.216,171.295 M458.434,182.682 Q459.108,185.466 460.88,191.033 461.892,195.503 459.277,197.443 456.057,199.844 452.993,202.082 L452.951,202.125 Q406.928,236.298 401.076,238.353 395.93,239.871 394.665,240.293 392.894,240.968 392.641,242.571 392.219,245.86 392.05,257.163 391.797,270.153 392.641,272.937 395.508,284.408 417.608,317.052 439.286,349.02 452.107,361.504 M460.121,211.783 Q462.735,213.132 467.965,213.807 468.178,213.839 468.387,213.849 473.323,214.556 478.256,214.313 481.377,214.145 488.631,212.964 494.535,211.951 496.391,212.205 M459.699,233.714 Q458.687,235.401 447.805,246.282 437.936,256.151 435.237,258.597 M480.28,253.452 Q484.076,253.452 488.293,252.608 L504.742,252.608 Q499.681,258.007 496.813,260.874 491.499,266.104 490.233,266.104 487.956,266.104 484.582,261.381 481.124,255.982 479.858,254.717 M425.959,253.958 Q427.406,257.455 430.514,261.887 430.547,261.936 430.598,261.971 438.331,273.061 456.325,289.975 464.684,297.825 470.833,303.809 485.063,317.612 487.534,321.438 M459.277,385.122 Q458.687,398.534 461.386,404.944 463.073,408.824 468.218,413.211 473.532,417.512 478.256,418.862 M473.617,426.454 Q473.701,429.068 473.279,439.865 473.11,449.987 474.46,452.602 476.063,455.723 480.027,458.338 483.907,460.868 486.269,460.615 M479.521,463.989 Q479.605,466.773 479.605,471.075 479.774,474.28 481.208,476.22 481.377,476.473 485.932,479.594 488.968,481.703 488.799,485.499 488.631,488.366 486.859,495.452 485.341,501.356 485.847,503.212 M465.182,515.443 Q445.444,511.816 421.573,508.104 373.915,500.766 353.924,500.766 340.597,500.766 325.414,497.982 313.436,495.789 310.905,496.548 306.519,497.898 302.386,504.815 298.253,511.816 298.59,517.552 298.843,521.432 300.193,531.722 301.289,540.916 300.277,544.544 M464.76,539.904 Q457,541.17 421.235,541.929 382.434,542.772 376.192,543.278 369.276,543.869 347.26,547.411 327.269,550.617 319.256,550.87 309.724,551.207 301.289,550.026 296.903,549.436 290.577,547.918 287.287,547.158 283.913,549.436 282.142,550.701 277.924,555.087 273.117,560.064 277.503,570.692 278.346,572.801 276.912,584.863 275.31,597.009 276.237,599.371 L279.19,606.541 Q282.479,615.566 283.829,625.098 M343.296,599.371 Q344.477,603.167 346.67,614.048 349.032,625.688 348.779,628.05" test="Avatar Man"/>
      <path id="Layer2_0_2_STROKES" stroke="#FF0" stroke-width="1.687" stroke-linejoin="round" stroke-linecap="round" fill="none" d="M520.768,212.964 Q519.925,217.687 521.612,221.146 523.383,224.773 526.673,224.773 528.022,224.773 529.878,223.76 531.987,222.58 532.577,220.977 M468.049,216.759 Q467.206,222.664 467.206,223.086 467.206,224.801 468.471,226.628 469.144,227.583 470.158,228.568 473.279,231.521 476.484,231.521 478.171,231.521 479.268,229.834 479.943,228.906 481.124,226.881" test="Avatar Man"/>
      <path id="Layer2_0_3_STROKES" stroke="#FFF" stroke-width="1.687" stroke-linejoin="round" stroke-linecap="round" fill="none" d="M550.291,258.934 Q555.942,261.212 556.195,265.008 556.212,265.247 556.237,265.514 556.232,265.578 556.237,265.64 L556.237,265.767 Q556.269,267.962 555.773,272.009 M542.699,274.117 Q548.258,272.791 551.64,268.719 552.774,267.356 553.665,265.682" test="Avatar Man"/>
      <path id="Layer2_0_4_STROKES" stroke="#F90" stroke-width="1.687" stroke-linejoin="round" stroke-linecap="round" fill="none" d="M485.426,505.743 Q487.197,505.574 502.633,511.9 521.865,518.142 541.94,517.973 561.256,517.805 578.295,512.912 592.634,508.779 593.815,509.117 599.045,510.466 603.178,519.745 608.408,531.301 605.624,546.231 602.166,565.041 593.309,578.874 582.934,594.985 567.667,599.793 L555.689,603.504 Q555.52,603.504 556.701,602.239 558.22,600.552 556.701,599.371 549.447,590.008 543.037,581.995 530.468,566.221 522.118,562.679 509.381,557.28 496.897,550.954 481.798,543.11 478.678,539.483 475.81,536.109 475.219,526.24 475.05,516.033 474.882,514.178 474.629,511.647 477.665,509.623 479.352,508.442 485.426,505.743Z" test="Avatar Man"/>
    </g>
    <g id="Avatar-Lady">
      <path fill="#000" stroke="none" d="M247.921,418.006 Q244.185,417.504 241.042,417.7 232.831,418.717 229.35,419.038 223.661,419.564 217.499,417.737 213.831,416.963 208.547,414.454 198.064,409.43 188.486,400.297 179.028,391.28 172.175,380.399 L170.487,381.582 Q170.651,387.989 168.281,403.107 166.53,414.599 166.876,423.102 166.937,424.686 167.074,426.167 167.356,429.223 169.402,443.933 171.364,465.158 169.531,473.119 168.312,478.455 166.469,484.448 165.426,488.911 165.991,495.024 166.306,498.429 167.462,502.595 L167.469,502.679 Q168.535,506.533 170.3,511.066 173.912,520.493 174.359,525.333 174.595,527.88 173.888,530.428 173.501,531.791 172.965,532.483 L174.534,533.708 Q174.75,535.64 174.805,539.42 174.813,539.609 174.837,539.759 174.917,544.98 174.742,553.554 L174.75,553.639 Q174.687,557.068 174.576,561.019 L178.277,563.074 Q180.585,559.216 186.526,551.351 194.846,540.392 196.801,536.53 L197.147,535.641 Q200.452,531.568 203.025,523.281 205.957,512.393 208.062,505.519 208.52,503.992 208.899,502.531 209.106,502.01 209.229,501.473 209.311,501.359 209.29,501.21 209.363,501.145 209.36,501.032 L209.36,501.032 Q213.525,487.336 216.203,478.736 221.733,460.757 225.001,452.578 226.503,448.764 228.648,444.791 229.502,443.184 230.403,441.546 L230.627,441.183 230.704,441.09 Q233.043,437.279 235.895,433.332 242.496,424.159 247.685,420.083 L247.921,418.006 M213.432,268.182 L211.691,255.841 211.267,255.881 Q201.758,256.76 196.21,257.872 185.036,260.19 176.39,264.842 168.083,269.464 160.598,276.492 157.763,279.123 155.026,281.973 155.028,282.014 154.949,282.066 154.758,282.3 154.479,282.538 150.44,287.001 146.704,291.99 140.295,300.461 138.024,309.233 135.744,317.921 135.69,327.516 L135.556,330.697 Q138.274,330.81 141.577,330.996 147.004,331.351 154.807,335.167 155.21,335.385 160.408,338.331 160.457,338.344 160.493,338.324 162.257,339.378 164.565,340.687 162.257,339.378 160.493,338.324 160.457,338.344 160.408,338.331 155.21,335.385 154.807,335.167 147.004,331.351 141.577,330.996 138.274,330.81 135.556,330.697 L133.883,342.24 Q135.647,342.465 137.527,342.759 151.765,344.867 157.175,344.11 151.765,344.867 137.527,342.759 135.647,342.465 133.883,342.24 133.709,342.209 133.535,342.186 121.728,340.574 115.394,341.38 L111.218,346.219 Q113.542,348.241 118.722,352.375 125.615,357.834 129.889,360.162 130.717,360.563 131.411,360.878 137.312,363.586 143.927,362.889 148.758,362.356 155.761,363.079 161.288,363.595 162.931,362.844 L168.414,363.793 167.112,371.02 172.067,380.152 Q172.153,380.291 172.175,380.399 179.028,391.28 188.486,400.297 198.064,409.43 208.547,414.454 213.831,416.963 217.499,417.737 223.661,419.564 229.35,419.038 232.831,418.717 241.042,417.7 244.185,417.504 247.921,418.006 L248.006,417.998 Q250.927,418.458 254.206,419.309 264.199,421.81 267.14,422.137 273.464,422.923 277.012,421.481 278.655,420.73 282.957,417.25 285.586,415.123 287.01,407.371 288.5,397.557 289.635,392.229 290.907,386.546 296.602,374.974 297.352,373.442 298.041,372.015 302.708,362.313 304.41,357.555 304.597,357.041 304.748,356.581 307.345,348.549 304.15,338.998 301.668,331.607 297.292,326.874 L290.911,318.987 Q290.396,319.39 289.693,319.699 284.408,321.814 284.137,316.102 L279.348,314.319 263.84,318.835 Q263.958,319.259 264.088,319.669 263.843,319.426 263.531,319.206 260.786,316.556 256.646,314.192 247.529,309.126 239.759,311.215 232.244,313.28 219.876,322.13 208.049,331.166 202.072,335.164 201.272,335.774 200.545,336.247 196.512,338.932 181.998,347.723 180.54,348.612 179.237,349.349 175.463,351.746 173.091,353.256 170.592,355.02 169.814,355.786 170.592,355.02 173.091,353.256 175.463,351.746 179.237,349.349 180.54,348.612 181.998,347.723 196.512,338.932 200.545,336.247 201.272,335.774 202.072,335.164 208.049,331.166 219.876,322.13 232.244,313.28 239.759,311.215 247.529,309.126 256.646,314.192 260.786,316.556 263.531,319.206 L263.84,318.835 Q263.776,318.629 263.715,318.419 262.712,315.104 261.852,311.227 259.908,302.245 260.852,298.561 261.604,295.581 268.461,291.95 274.569,288.559 273.972,286.731 272.32,281.831 264.196,274.534 L256.421,268.231 Q244.005,278.129 232.675,287.381 220.823,297.169 210.187,306.243 192.287,321.941 185.757,327.254 178.105,333.491 171.854,337.102 169.779,338.347 167.859,339.269 169.779,338.347 171.854,337.102 178.105,333.491 185.757,327.254 192.287,321.941 210.187,306.243 220.823,297.169 232.675,287.381 L226.495,279.818 Q225.637,278.87 220.497,274.207 214.892,269.16 213.432,268.182 M249.696,327.935 Q248.39,326.771 244.345,326.546 241.279,326.376 232.52,332.006 229.71,333.852 226.32,336.261 212.34,346.202 209.963,346.422 212.34,346.202 226.32,336.261 229.71,333.852 232.52,332.006 241.279,326.376 244.345,326.546 248.39,326.771 249.696,327.935 251.003,329.099 255.213,331.107 251.003,329.099 249.696,327.935 M245.542,342.276 Q247.453,339.788 247.312,338.259 247.272,337.835 244.954,335.909 247.272,337.835 247.312,338.259 247.453,339.788 245.542,342.276 243.486,345.035 241.363,345.231 235.165,345.804 234.757,341.39 234.694,340.71 234.756,340.448 234.963,339.915 236.118,337.582 234.963,339.915 234.756,340.448 234.694,340.71 234.757,341.39 235.165,345.804 241.363,345.231 243.486,345.035 245.542,342.276 M231.662,396.819 Q231.34,397.67 230.793,398.526 229.306,400.975 228.35,401.749 229.306,400.975 230.793,398.526 231.34,397.67 231.662,396.819 232.828,394.606 232.659,392.788 L232.131,390.782 232.659,392.788 Q232.828,394.606 231.662,396.819 M270.926,363.99 Q273.076,363.791 275.833,362.423 278.819,361.049 282.481,358.383 287.704,354.499 288.84,352.144 289.28,351.357 289.223,350.739 289.161,350.059 287.251,347.924 285.426,345.781 284.723,345.589 285.426,345.781 287.251,347.924 289.161,350.059 289.223,350.739 289.28,351.357 288.84,352.144 287.704,354.499 282.481,358.383 278.819,361.049 275.833,362.423 273.076,363.791 270.926,363.99 267.615,364.296 265.188,362.123 261.353,358.624 261.083,358.478 261.353,358.624 265.188,362.123 267.615,364.296 270.926,363.99 M290.66,366.275 Q290.597,365.596 289.476,364.587 290.597,365.596 290.66,366.275 290.762,367.379 290.424,368.352 290.086,369.325 289.307,370.168 287.666,371.861 285.204,372.089 284.27,372.175 282.246,371.591 280.308,371 279.041,370.261 280.308,371 282.246,371.591 284.27,372.175 285.204,372.089 287.666,371.861 289.307,370.168 290.086,369.325 290.424,368.352 290.762,367.379 290.66,366.275 M252.748,399.835 Q256.46,399.235 260.257,398.627 256.46,399.235 252.748,399.835 242.617,402.313 233.47,397.85 242.617,402.313 252.748,399.835 M188.005,298.789 Q183.684,294.651 177.266,292.847 170.934,291.035 165.571,292.301 170.934,291.035 177.266,292.847 183.684,294.651 188.005,298.789Z" test="Avatar Lady" stroke-width="1.705"/>
      <path id="Layer1_0_1_STROKES" stroke="#009EFF" stroke-width="1.705" stroke-linejoin="round" stroke-linecap="round" fill="none" d="M279.348,314.319 Q277.961,310.423 280.961,308.604 283.868,306.708 286.668,305.508 M254.407,264.051 Q254.591,263.263 254.552,262.839 254.473,261.99 251.169,256.815 247.27,250.754 246.65,249.612 244.374,245.37 239.772,244.682 235.064,244.69 233.38,244.075 233.837,245.317 234.222,249.477 L234.617,255.605 Q234.371,255.714 232.44,255.207 230.34,254.717 229.406,254.803 226.094,255.109 224.296,255.104 220.004,254.987 215.249,255.427 L211.691,255.841 M213.432,268.182 Q214.892,269.16 220.497,274.207 225.637,278.87 226.495,279.818 M233.38,244.075 Q233.369,243.99 233.287,243.998 L233.264,243.743 Q233.362,243.903 233.38,244.075Z M211.267,255.881 Q211.251,255.711 211.336,255.703 211.514,255.853 211.691,255.841 L211.267,255.881 Q201.758,256.76 196.21,257.872 185.036,260.19 176.39,264.842 168.083,269.464 160.598,276.492 157.763,279.123 155.068,281.97 155.028,282.014 154.991,282.062 154.758,282.3 154.521,282.534 150.44,287.001 146.704,291.99 140.295,300.461 138.024,309.233 135.744,317.921 135.69,327.516 M135.56,330.739 Q138.274,330.81 141.577,330.996 147.004,331.351 154.807,335.167 155.21,335.385 160.408,338.331 160.457,338.344 160.497,338.366 162.257,339.378 164.565,340.687 M255.213,331.107 Q251.003,329.099 249.696,327.935 248.39,326.771 244.345,326.546 241.279,326.376 232.523,332.049 229.71,333.852 226.32,336.261 212.34,346.202 209.963,346.422 M261.083,358.478 Q261.353,358.624 265.188,362.123 267.615,364.296 270.926,363.99 273.076,363.791 275.879,362.462 278.819,361.049 282.481,358.383 287.704,354.499 288.882,352.14 289.28,351.357 289.223,350.739 289.161,350.059 287.251,347.924 285.426,345.781 284.723,345.589 M297.292,326.874 Q301.668,331.607 304.15,338.998 307.345,348.549 304.748,356.581 304.597,357.041 304.41,357.555 302.708,362.313 298.041,372.015 297.352,373.442 296.602,374.974 290.907,386.546 289.635,392.229 288.5,397.557 287.01,407.371 285.586,415.123 282.957,417.25 278.655,420.73 277.012,421.481 273.464,422.923 267.14,422.137 264.199,421.81 254.206,419.309 250.927,418.458 248.01,418.041 L247.925,418.049 M247.685,420.083 Q242.496,424.159 235.895,433.332 233.043,437.279 230.746,441.086 L230.669,441.179 230.446,441.542 Q229.502,443.184 228.648,444.791 226.503,448.764 225.001,452.578 221.733,460.757 216.203,478.736 213.525,487.336 209.402,501.029 L209.363,501.075 Q209.363,501.145 209.333,501.206 209.311,501.359 209.275,501.511 209.106,502.01 208.941,502.527 208.52,503.992 208.062,505.519 205.957,512.393 203.025,523.281 200.452,531.568 197.147,535.641 M196.801,536.53 Q194.846,540.392 186.526,551.351 180.585,559.216 178.281,563.116 177.553,564.381 177.192,565.229 M279.041,370.261 Q280.308,371 282.246,371.591 284.27,372.175 285.204,372.089 287.666,371.861 289.307,370.168 290.086,369.325 290.424,368.352 290.762,367.379 290.66,366.275 290.597,365.596 289.476,364.587 M247.925,418.049 Q244.185,417.504 241.042,417.7 232.831,418.717 229.35,419.038 223.661,419.564 217.499,417.737 213.831,416.963 208.547,414.454 198.064,409.43 188.486,400.297 179.028,391.28 172.222,380.437 M170.487,381.582 Q170.651,387.989 168.281,403.107 166.53,414.599 166.876,423.102 166.937,424.686 167.074,426.167 167.356,429.223 169.402,443.933 171.364,465.158 169.531,473.119 168.312,478.455 166.469,484.448 165.426,488.911 165.991,495.024 166.306,498.429 167.466,502.637 L167.469,502.679 Q168.535,506.533 170.3,511.066 173.912,520.493 174.359,525.333 174.595,527.88 173.888,530.428 173.501,531.791 172.969,532.525 M174.534,533.708 Q174.75,535.64 174.809,539.462 174.813,539.609 174.837,539.759 174.917,544.98 174.746,553.596 L174.75,553.639 Q174.687,557.068 174.576,561.019 M225.962,454.629 L225.9,459.516 Q225.978,460.365 226.887,463.706 227.795,467.047 227.873,467.896 227.952,468.745 229.218,474.108 230.4,479.479 230.478,480.328 231.138,487.459 223.543,518.302 215.864,549.152 216.453,555.52 217.026,561.717 227.723,575.542 236.084,586.328 246.374,596.679 253.827,604.124 272.802,639.874 272.904,640.978 273.607,641.17 274.217,641.285 274.247,640.682 M188.942,595.996 Q191.174,596.988 203.208,606.75 216.092,617.375 216.32,619.837 216.603,622.893 238.917,636.414 261.231,649.935 261.545,653.331 261.639,654.35 261.971,654.233 262.302,654.117 262.318,654.287 L262.942,653.63 M188.005,298.789 Q183.684,294.651 177.266,292.847 170.934,291.035 165.571,292.301 M135.56,330.739 Q135.476,330.757 135.39,330.755 135.302,330.753 135.22,330.771 131.095,330.647 128.377,330.847 121.06,331.352 115.977,333.791 109.667,336.858 108.95,337.438 107.755,338.405 108.06,340.774 108.465,343.305 109.903,344.971 110.299,345.376 111.028,346.022 111.121,346.096 111.214,346.177 L111.26,346.215 M115.394,341.38 Q121.728,340.574 133.535,342.186 133.709,342.209 133.883,342.24 M111.26,346.215 Q113.542,348.241 118.722,352.375 125.615,357.834 129.931,360.158 130.717,360.563 131.411,360.878 137.312,363.586 143.927,362.889 148.758,362.356 155.761,363.079 161.288,363.595 162.931,362.844 M167.112,371.02 L172.067,380.152 Q172.153,380.291 172.222,380.437 M126.679,366.196 Q124.168,369.596 123.362,387.738 123.012,395.99 122.938,397.966 122.92,401.479 123.281,405.384 123.721,410.139 126.655,420.571 129.504,431.01 130.053,436.953 130.11,437.571 130.171,438.227 130.364,441.059 130.327,444.549 130.279,450.269 129.622,457.757 129.162,463.008 128.405,469.13 125.759,490.524 127.36,507.844 127.619,510.645 129.733,519.612 131.799,528.069 131.779,529.698 M133.883,342.24 Q135.647,342.465 137.527,342.759 151.765,344.867 157.175,344.11 M148.782,382.99 L149.148,385.097 Q149.329,387.049 148.542,392.431 147.763,397.897 148.001,402.328 148.202,407.276 148.971,415.596 149.058,416.53 149.672,419.47 150.294,422.495 150.396,423.599 150.402,423.66 150.408,423.726 150.604,426.009 150.414,430.276 150.283,435.34 149.637,436.684 148.959,437.688 147.743,440.284 146.878,442.034 146.47,443.185 146.063,444.335 146.114,444.887 M151.942,480.14 Q152.005,480.819 151.63,487.875 151.17,494.939 151.264,495.958 151.437,497.826 153.444,502.863 154.414,505.406 154.928,506.879 155.406,508.336 155.445,508.758 155.711,511.644 153.744,517.221 151.976,522.179 150.443,524.119 M130.171,438.227 Q125.387,439.269 120.294,445.305 115.569,450.845 114.668,456.7 114.41,458.407 114.473,460.143 114.636,465.608 115.719,522.706 116.94,578.507 117.405,584.457 117.774,588.448 117.815,595.38 117.83,596.397 117.864,597.302 L117.872,597.386 Q118.053,600.29 118.597,601.986 119.078,603.483 158.93,652.03 198.481,700.091 198.88,703.479 M112.599,456.549 Q104.834,461.462 97.005,465.697 85.829,471.696 79.416,472.718 66.025,474.213 50.372,475.317 19.143,477.434 7.916,475.475 M172.969,532.525 Q172.476,533.213 171.839,533.272 M174.576,561.019 L174.58,561.061 Q174.548,563.025 174.486,565.137 174.156,576.419 173.542,591.511 173.44,595.031 184.07,610.917 197.169,630.341 200.119,636.319 220.26,677.27 222.435,696.163 M22.122,577.255 Q28.846,577.747 45.782,582.175 64.215,587.063 74.404,591.687 88.254,597.942 91.853,598.893 99.321,600.943 108.65,599.053 112.432,598.275 115.603,597.382" test="Avatar Lady"/>
      <path id="Layer1_0_2_STROKES" stroke="#FFBC00" stroke-width="1.705" stroke-linejoin="round" stroke-linecap="round" fill="none" d="M232.717,287.377 Q244.005,278.129 256.421,268.231 L264.196,274.534 Q272.32,281.831 273.972,286.731 274.569,288.559 268.461,291.95 261.604,295.581 260.852,298.561 259.908,302.245 261.852,311.227 262.712,315.104 263.715,318.419 263.776,318.629 263.84,318.835 M167.859,339.269 Q169.779,338.347 171.858,337.144 178.105,333.491 185.757,327.254 192.287,321.941 210.187,306.243 220.823,297.169 232.717,287.377 M263.574,319.202 Q263.843,319.426 264.088,319.669 263.958,319.259 263.84,318.835 M263.574,319.202 Q260.786,316.556 256.646,314.192 247.529,309.126 239.759,311.215 232.244,313.28 219.876,322.13 208.049,331.166 202.118,335.203 201.272,335.774 200.545,336.247 196.512,338.932 181.998,347.723 180.54,348.612 179.241,349.391 175.463,351.746 173.137,353.295 170.592,355.02 169.814,355.786" test="Avatar Lady"/>
      <path id="Layer1_0_3_STROKES" stroke="#FF0" stroke-width="1.705" stroke-linejoin="round" stroke-linecap="round" fill="none" d="M284.137,316.102 Q284.408,321.814 289.693,319.699 290.396,319.39 290.954,318.983 292.903,317.501 292.912,314.692 292.9,311.781 290.027,311.276 M236.118,337.582 Q234.963,339.915 234.756,340.448 234.694,340.71 234.757,341.39 235.165,345.804 241.363,345.231 243.486,345.035 245.542,342.276 247.453,339.788 247.312,338.259 247.272,337.835 244.954,335.909" test="Avatar Lady"/>
      <path id="Layer1_0_4_STROKES" stroke="#FFF" stroke-width="1.705" stroke-linejoin="round" stroke-linecap="round" fill="none" d="M232.131,390.782 L232.659,392.788 Q232.828,394.606 231.709,396.857 231.34,397.67 230.793,398.526 229.306,400.975 228.35,401.749 M233.47,397.85 Q242.617,402.313 252.748,399.835 256.46,399.235 260.257,398.627" test="Avatar Lady"/>
    </g>
  </g>
</svg>