<?xml version="1.0" encoding="utf-8"?>
<svg id="EdithAnim13" image-rendering="inherit" baseProfile="basic" version="1.1" x="0px" y="0px" width="800" height="600" xmlns="http://www.w3.org/2000/svg" xmlns:xlink="http://www.w3.org/1999/xlink">
  <g id="22_Avatarf108r1" overflow="visible">
    <g id="Avatar-Manf0r1">
      <g id="Tailf0r1">
        <path id="Layer3_0_1_STROKES" stroke="#009EFF" stroke-width="2.334" stroke-linejoin="round" stroke-linecap="round" fill="none" d="M633.878,610.181 Q632.7,593.037 632.049,575.883 631.467,559.25 626.063,543.54 620.123,526.429 603.575,518.646 583.465,509.268 580.554,530.24 580.129,533.296 582.126,535.977 586.851,542.421 593.567,546.546 600.586,543.982 605.866,548.823 612.223,554.701 615.02,563.514 621.559,584.312 626.767,605.284 628.239,611.152 627.251,617.106" test="Tail_2.3242325232423263e+312.3242325232423263e+31_2.3242325232423263e+312.3242325232423263e+31_2.3242325232423263e+312.3242325232423263e+31_2.3242325232423263e+312.3242325232423263e+31_2.3242325232423263e+312.3242325232423263e+31_2.3242325232423263e+312.3242325232423263e+31_2.3242325232423263e+312.3242325232423263e+31_2.3242325232423263e+312.3242325232423263e+31_2.3242325232423263e+312.3242325232423263e+31_2.3242325232423263e+312.3242325232423263e+31_2.3242325232423263e+312.3242325232423263e+31_2.3242325232423263e+312.3242325232423263e+31_2.3242325232423263e+312.3242325232423263e+31_2.3242325232423263e+312.3242325232423263e+31_2.3242325232423263e+312.3242325232423263e+31_2323"/>
      </g>
      <path fill="#000" stroke="none" d="M594.941,522.953 Q590.783,513.619 585.523,512.262 584.335,511.922 569.91,516.08 552.771,521.001 533.34,521.171 513.146,521.34 493.8,515.062 478.272,508.698 476.491,508.868 470.381,511.583 468.684,512.771 465.63,514.807 465.884,517.352 466.054,519.219 466.224,529.486 466.818,539.414 469.703,542.808 472.842,546.456 488.03,554.347 500.588,560.711 513.4,566.141 521.8,569.705 534.443,585.572 540.892,593.633 548.189,603.051 549.716,604.239 548.189,605.936 547.001,607.209 547.171,607.209 L559.219,603.475 Q574.577,598.639 585.014,582.432 593.923,568.517 597.402,549.596 600.202,534.577 594.941,522.953 M600.372,169.892 L597.317,168.619 Q597.273,168.726 597.232,168.789 596.312,171.137 595.705,173.286 594.093,179.056 591.547,187.88 591.489,188.034 591.377,188.135 589.053,194.312 584.25,197.044 574.153,202.814 568.553,205.529 L572.371,214.014 Q571.947,220.208 573.898,261.699 573.97,263.23 573.983,264.669 575.566,297.09 575.765,306.925 575.763,306.989 575.765,307.009 575.794,309.283 575.765,310.319 575.426,323.64 577.886,344.683 578.226,347.653 582.892,345.192 587.559,342.646 587.22,340.865 587.05,339.592 589.002,340.271 590.614,340.865 591.038,341.289 591.123,341.374 597.402,319.652 L602.493,328.137 Q602.578,328.222 605.463,309.47 L610.554,311.591 Q610.652,311.691 609.96,302.682 609.997,302.662 609.96,302.597 608.992,288.746 606.226,253.554 604.548,232.049 603.256,217.917 601.658,199.026 600.796,193.31 600.555,191.644 600.372,191.104 600.555,191.644 600.796,193.31 601.658,199.026 603.256,217.917 L604.614,217.832 Q606.311,217.662 611.317,212.656 615.729,208.414 619.039,209.771 622.008,211.044 639.827,236.838 660.36,262.972 677.161,267.045 662.057,267.554 639.657,284.779 632.699,290.124 625.827,296.573 L624.808,297.506 Q626.017,310.403 629.984,354.525 L630.918,354.441 Q635.33,351.98 666.215,327.713 695.997,304.209 705.586,295.894 712.713,289.7 718.568,279.942 721.537,274.936 725.101,268.742 726.798,266.79 730.447,264.075 733.416,261.36 733.586,256.863 733.756,252.451 701.513,231.663 665.791,209.432 658.918,204.256 638.724,189.068 629.305,182.959 618.085,175.602 610.469,172.352 604.141,169.659 600.372,169.892 M540.043,164.716 Q542.589,164.292 544.964,163.867 548.783,163.867 548.528,168.534 555.825,167.686 558.71,168.534 561.765,169.468 561.68,172.777 L566.432,174.983 Q569.768,168.497 577.886,163.104 582.553,159.964 586.541,158.946 586.604,158.933 586.626,158.861 L585.523,152.073 Q586.796,151.988 584.335,149.019 579.838,143.843 576.189,139.346 571.268,133.237 554.128,127.721 539.11,122.885 530.795,122.8 504.152,122.545 485.824,130.012 474.454,134.679 464.272,148.764 462.321,151.433 460.708,153.855 456.159,161.067 454.769,166.498 L454.769,168.534 Q454.939,168.534 455.702,168.789 456.551,168.958 457.145,168.958 460.199,168.958 463.254,166.498 466.733,163.613 470.042,163.019 L470.042,165.14 473.86,165.14 Q476.406,164.631 481.242,163.189 484.975,162.001 485.739,162.17 L485.739,164.292 Q486.588,164.292 489.982,164.716 495.582,164.716 501.012,161.746 L505.255,161.746 505.255,163.443 512.043,163.443 Q523.243,160.049 523.922,160.049 525.025,160.049 526.043,160.813 527.231,161.661 529.437,161.746 529.437,163.867 529.013,164.716 L540.043,164.716Z" test="Avatar Man" stroke-width="1.697"/>
      <path id="Layer2_0_1_STROKES" stroke="#009EFF" stroke-width="1.697" stroke-linejoin="round" stroke-linecap="round" fill="none" d="M561.68,172.777 Q561.765,169.468 558.71,168.534 555.825,167.686 548.528,168.534 548.783,163.867 544.964,163.867 542.589,164.292 540.043,164.716 L529.013,164.716 Q529.437,163.867 529.437,161.746 527.231,161.661 526.043,160.813 525.025,160.049 523.922,160.049 523.243,160.049 512.043,163.443 L505.255,163.443 505.255,161.746 501.012,161.746 Q495.582,164.716 489.982,164.716 486.588,164.292 485.739,164.292 L485.739,162.17 Q484.975,162.001 481.242,163.189 476.406,164.631 473.86,165.14 L470.042,165.14 470.042,163.019 Q466.733,163.613 463.254,166.498 460.199,168.958 457.145,168.958 456.551,168.958 455.702,168.789 454.939,168.534 454.769,168.534 L454.769,166.498 Q456.159,161.067 460.751,153.898 462.321,151.433 464.272,148.764 474.454,134.679 485.824,130.012 504.152,122.545 530.795,122.8 539.11,122.885 554.128,127.721 571.268,133.237 576.189,139.346 579.838,143.843 584.335,149.019 586.796,151.988 585.523,152.073 M586.668,158.904 Q586.731,158.91 586.796,158.904 589.361,158.337 594.856,158.013 598.844,157.843 601.305,156.231 602.662,155.382 604.614,153.77 605.378,153.346 602.238,158.776 600.796,161.237 599.608,163.613 598.882,165.04 598.293,166.413 598.152,166.696 598.038,166.964 597.79,167.494 597.571,168.025 597.439,168.324 597.317,168.619 M600.372,169.892 Q604.141,169.659 610.511,172.395 618.085,175.602 629.305,182.959 638.724,189.068 658.918,204.256 665.791,209.432 701.513,231.663 733.756,252.451 733.586,256.863 733.416,261.36 730.447,264.075 726.798,266.79 725.101,268.742 721.537,274.936 718.568,279.942 712.713,289.7 705.586,295.894 695.997,304.209 666.215,327.713 635.33,351.98 630.918,354.441 630.478,354.727 630.069,354.992 625.131,358.196 622.942,359.447 619.039,361.738 615.645,361.229 M599.608,163.613 Q598.286,165.062 597.19,165.904 596.081,166.712 595.196,166.922 591.971,167.177 588.068,167.771 583.062,168.534 580.347,170.401 576.698,173.54 573.219,176.256 568.892,179.65 566.177,181.262 L564.31,182.195 Q564.719,178.451 566.474,175.025 M560.831,172.777 L561.68,172.777 M566.474,175.025 Q569.768,168.497 577.886,163.104 582.553,159.964 586.541,158.946 586.604,158.933 586.668,158.904 M597.317,168.619 Q597.273,168.726 597.232,168.831 596.312,171.137 595.705,173.286 594.093,179.056 591.547,187.88 591.489,188.034 591.42,188.177 589.053,194.312 584.25,197.044 574.153,202.814 568.553,205.529 M572.371,214.014 Q571.947,220.208 573.898,261.699 573.97,263.23 574.026,264.712 575.566,297.09 575.765,306.925 575.763,306.989 575.765,307.052 575.794,309.283 575.765,310.319 575.426,323.64 577.886,344.683 578.226,347.653 582.892,345.192 587.559,342.646 587.22,340.865 587.05,339.592 589.002,340.271 590.614,340.865 591.038,341.289 591.123,341.374 597.402,319.652 L602.493,328.137 Q602.578,328.222 605.463,309.47 L610.554,311.591 Q610.652,311.691 610.002,302.724 609.997,302.662 610.002,302.597 608.992,288.746 606.226,253.554 604.548,232.049 603.299,217.917 601.658,199.026 600.796,193.31 600.555,191.644 600.372,191.104 M624.808,297.549 L625.827,296.573 Q632.699,290.124 639.657,284.779 662.057,267.554 677.161,267.045 660.36,262.972 639.827,236.838 622.008,211.044 619.039,209.771 615.729,208.414 611.317,212.656 606.311,217.662 604.614,217.832 M509.158,211.044 Q510.147,211.204 512.212,211.299 514.568,211.383 518.322,211.383 524.94,211.299 527.825,211.044 533.17,210.535 533.849,210.365 537.243,209.432 537.583,206.802 M558.795,278.924 Q559.644,284.439 561.595,292.415 563.971,302.003 566.007,306.925 M464.187,276.379 Q464.187,276.463 464.527,285.118 464.781,291.312 467.157,295.47 467.921,296.804 469.066,298.1 472.542,301.981 479.545,305.482 489.218,310.403 498.552,310.743 L501.988,310.997 502.115,310.997 Q511.109,311.337 513.824,311.167 518.491,310.828 524.006,309.046 528.079,307.773 539.025,297.93 546.804,290.864 555.062,282.233 555.169,282.13 555.274,282.021 555.338,281.96 555.401,281.894 555.488,281.812 555.571,281.724 556.874,280.341 558.201,278.924 558.288,278.832 558.371,278.754 558.405,278.705 558.456,278.669 558.469,278.62 558.498,278.585 568.488,267.933 569.825,264.924 M501.946,311.591 Q501.182,315.24 499.739,323.555 498.297,330.767 496.006,334.501 M620.311,301.834 L624.808,297.549 M610.978,369.289 Q610.893,369.459 602.323,391.775 596.214,407.641 594.008,416.805 591.293,427.921 588.917,461.012 586.541,493.255 587.644,500.383 M538.77,412.902 Q539.28,414.769 540.977,415.278 541.486,415.448 542.843,415.448 545.049,415.448 545.898,414.429 546.237,414.09 547.595,410.951 M504.83,400.599 Q504.661,416.042 505.764,418.417 507.546,422.66 517.558,422.66 522.394,422.66 522.819,422.575 523.328,422.49 525.194,421.387 M506.103,452.782 Q505.255,455.327 505.255,458.127 505.255,462.794 508.988,463.049 511.449,463.133 519.255,462.964 M503.133,487.994 Q507.461,490.964 510.261,491.643 512.297,492.067 515.861,491.388 M546.492,607.718 Q540.128,610.688 523.073,613.912 505.849,617.136 487.521,618.748 471.654,620.191 434.32,619.427 406.15,618.918 389.944,617.9 377.471,617.136 352.185,614.506 345.906,613.827 341.24,614.845 337.93,615.609 336.912,614.93 M459.096,152.922 Q455.872,150.97 452.054,148.934 444.417,144.946 442.126,145.285 439.666,145.625 441.702,157.758 443.399,168.11 445.096,172.437 M449.338,183.892 Q450.017,186.692 451.799,192.292 452.817,196.789 450.187,198.741 446.947,201.156 443.866,203.408 L443.823,203.45 Q397.527,237.826 391.641,239.893 386.465,241.42 385.192,241.845 383.41,242.523 383.155,244.136 382.731,247.445 382.562,258.815 382.307,271.881 383.155,274.682 386.04,286.221 408.271,319.058 430.078,351.216 442.975,363.774 M451.035,213.165 Q453.666,214.523 458.927,215.202 459.14,215.234 459.351,215.244 464.316,215.955 469.278,215.711 472.418,215.541 479.715,214.353 485.654,213.335 487.521,213.59 M450.611,235.226 Q449.593,236.923 438.647,247.869 428.72,257.796 426.005,260.257 M471.315,255.081 Q475.133,255.081 479.375,254.233 L495.921,254.233 Q490.83,259.663 487.945,262.548 482.6,267.809 481.327,267.809 479.036,267.809 475.642,263.057 472.163,257.627 470.89,256.354 M416.671,255.59 Q418.127,259.108 421.253,263.566 421.287,263.615 421.338,263.651 429.117,274.807 447.217,291.821 455.626,299.717 461.811,305.737 476.126,319.621 478.612,323.47 M450.187,387.532 Q449.593,401.023 452.308,407.472 454.005,411.375 459.181,415.787 464.527,420.114 469.278,421.472 M464.612,429.109 Q464.696,431.739 464.272,442.6 464.102,452.782 465.46,455.412 467.072,458.551 471.06,461.182 474.963,463.727 477.339,463.473 M470.551,466.867 Q470.636,469.667 470.636,473.994 470.806,477.218 472.248,479.17 472.418,479.425 477,482.564 480.054,484.685 479.885,488.504 479.715,491.388 477.933,498.516 476.406,504.455 476.915,506.322 M456.126,518.625 Q436.272,514.977 412.259,511.243 364.319,503.861 344.209,503.861 330.803,503.861 315.53,501.061 303.481,498.855 300.936,499.619 296.524,500.976 292.366,507.934 288.208,514.977 288.548,520.746 288.802,524.65 290.16,535.001 291.263,544.25 290.245,547.899 M455.702,543.232 Q447.896,544.505 411.92,545.268 372.889,546.117 366.61,546.626 359.652,547.22 337.506,550.783 317.397,554.008 309.336,554.262 299.748,554.602 291.263,553.414 286.851,552.82 280.487,551.293 277.178,550.529 273.784,552.82 272.002,554.093 267.76,558.505 262.923,563.511 267.335,574.202 268.184,576.323 266.741,588.457 265.129,600.675 266.063,603.051 L269.032,610.263 Q272.341,619.342 273.699,628.93 M333.518,603.051 Q334.706,606.869 336.912,617.815 339.288,629.524 339.034,631.9" test="Avatar Man"/>
      <path id="Layer2_0_2_STROKES" stroke="#FF0" stroke-width="1.697" stroke-linejoin="round" stroke-linecap="round" fill="none" d="M512.043,214.353 Q511.194,219.105 512.891,222.584 514.673,226.232 517.982,226.232 519.34,226.232 521.206,225.214 523.328,224.026 523.922,222.414 M459.011,218.171 Q458.163,224.111 458.163,224.535 458.163,226.261 459.436,228.099 460.113,229.059 461.133,230.05 464.272,233.02 467.496,233.02 469.193,233.02 470.296,231.323 470.975,230.39 472.163,228.353" test="Avatar Man"/>
      <path id="Layer2_0_3_STROKES" stroke="#FFF" stroke-width="1.697" stroke-linejoin="round" stroke-linecap="round" fill="none" d="M541.74,260.596 Q547.425,262.887 547.68,266.706 547.697,266.947 547.722,267.215 547.717,267.279 547.722,267.342 L547.722,267.469 Q547.754,269.677 547.255,273.748 M534.104,275.869 Q539.695,274.536 543.098,270.439 544.238,269.068 545.134,267.384" test="Avatar Man"/>
      <path id="Layer2_0_4_STROKES" stroke="#F90" stroke-width="1.697" stroke-linejoin="round" stroke-linecap="round" fill="none" d="M476.491,508.868 Q478.272,508.698 493.8,515.062 513.146,521.34 533.34,521.171 552.771,521.001 569.91,516.08 584.335,511.922 585.523,512.262 590.783,513.619 594.941,522.953 600.202,534.577 597.402,549.596 593.923,568.517 585.014,582.432 574.577,598.639 559.219,603.475 L547.171,607.209 Q547.001,607.209 548.189,605.936 549.716,604.239 548.189,603.051 540.892,593.633 534.443,585.572 521.8,569.705 513.4,566.141 500.588,560.711 488.03,554.347 472.842,546.456 469.703,542.808 466.818,539.414 466.224,529.486 466.054,519.219 465.884,517.352 465.63,514.807 468.684,512.771 470.381,511.583 476.491,508.868Z" test="Avatar Man"/>
    </g>
    <g id="Avatar-Lady">
      <path fill="#000" stroke="none" d="M244.628,428.374 Q240.877,427.834 237.714,428.002 229.447,428.947 225.943,429.239 220.218,429.714 214.038,427.819 210.357,427.006 205.067,424.434 194.572,419.283 185.025,410.01 175.599,400.854 168.809,389.847 L167.1,391.022 Q167.205,397.466 164.681,412.647 162.812,424.187 163.081,432.741 163.127,434.334 163.251,435.824 163.507,438.9 165.426,453.712 167.201,475.074 165.283,483.063 164.007,488.418 162.098,494.427 161.007,498.906 161.518,505.058 161.803,508.485 162.926,512.685 L162.933,512.77 Q163.969,516.656 165.701,521.23 169.245,530.744 169.65,535.615 169.863,538.179 169.129,540.735 168.726,542.102 168.181,542.792 L169.747,544.039 Q169.947,545.984 169.967,549.785 169.972,549.976 169.995,550.127 170.027,555.378 169.771,563.998 L169.778,564.084 Q169.683,567.531 169.534,571.503 L173.237,573.605 Q175.594,569.747 181.642,561.893 190.111,550.951 192.113,547.085 L192.469,546.195 Q195.831,542.13 198.496,533.821 201.546,522.898 203.727,516.006 204.202,514.474 204.597,513.008 204.81,512.486 204.939,511.947 205.022,511.834 205.003,511.684 205.076,511.619 205.074,511.506 L205.074,511.506 Q209.391,497.771 212.164,489.149 217.894,471.12 221.257,462.925 222.803,459.104 224.997,455.129 225.87,453.522 226.792,451.883 L227.02,451.519 227.099,451.427 Q229.487,447.616 232.391,443.674 239.115,434.511 244.371,430.461 L244.628,428.374 M211.347,277.386 L209.712,264.96 209.285,264.996 Q199.715,265.791 194.125,266.858 182.866,269.084 174.128,273.682 165.732,278.251 158.139,285.249 155.263,287.868 152.484,290.709 152.486,290.75 152.406,290.802 152.212,291.035 151.929,291.271 147.826,295.722 144.022,300.704 137.498,309.162 135.132,317.963 132.758,326.678 132.614,336.327 L132.449,339.524 Q135.181,339.663 138.501,339.881 143.956,340.288 151.766,344.2 152.17,344.422 157.369,347.434 157.419,347.447 157.455,347.427 159.219,348.503 161.527,349.841 159.219,348.503 157.455,347.427 157.419,347.447 157.369,347.434 152.17,344.422 151.766,344.2 143.956,340.288 138.501,339.881 135.181,339.663 132.449,339.524 L130.659,351.116 Q132.431,351.359 134.319,351.672 148.617,353.926 154.064,353.215 148.617,353.926 134.319,351.672 132.431,351.359 130.659,351.116 130.484,351.084 130.31,351.059 118.451,349.327 112.074,350.079 L107.829,354.905 Q110.147,356.96 115.318,361.166 122.199,366.721 126.475,369.102 127.304,369.513 127.998,369.835 133.908,372.614 140.566,371.975 145.429,371.484 152.464,372.277 158.018,372.848 159.678,372.107 L165.182,373.113 163.806,380.368 168.703,389.598 Q168.788,389.739 168.809,389.847 175.599,400.854 185.025,410.01 194.572,419.283 205.067,424.434 210.357,427.006 214.038,427.819 220.218,429.714 225.943,429.239 229.447,428.947 237.714,428.002 240.877,427.834 244.628,428.374 L244.714,428.367 Q247.647,428.857 250.937,429.743 260.962,432.352 263.917,432.708 270.269,433.557 273.851,432.141 275.51,431.401 279.869,427.941 282.532,425.827 284.037,418.045 285.627,408.19 286.817,402.843 288.15,397.139 293.985,385.555 294.754,384.022 295.46,382.593 300.243,372.881 302,368.112 302.193,367.596 302.349,367.136 305.036,359.083 301.912,349.448 299.486,341.992 295.129,337.192 L288.786,329.201 Q288.264,329.602 287.554,329.906 282.22,331.984 282.001,326.237 L277.202,324.399 261.564,328.796 Q261.679,329.223 261.806,329.636 261.562,329.389 261.251,329.166 258.515,326.475 254.373,324.059 245.253,318.88 237.42,320.907 229.843,322.913 217.322,331.697 205.345,340.673 199.297,344.638 198.487,345.244 197.751,345.713 193.671,348.375 178.993,357.08 177.519,357.96 176.201,358.689 172.384,361.064 169.984,362.561 167.455,364.311 166.665,365.074 167.455,364.311 169.984,362.561 172.384,361.064 176.201,358.689 177.519,357.96 178.993,357.08 193.671,348.375 197.751,345.713 198.487,345.244 199.297,344.638 205.345,340.673 217.322,331.697 229.843,322.913 237.42,320.907 245.253,318.88 254.373,324.059 258.515,326.475 261.251,329.166 L261.564,328.796 Q261.502,328.587 261.443,328.375 260.465,325.032 259.636,321.126 257.765,312.075 258.749,308.38 259.533,305.389 266.462,301.802 272.637,298.45 272.053,296.605 270.438,291.663 262.337,284.249 L254.577,277.838 Q241,287.675 230.518,296.873 218.509,306.606 207.728,315.631 189.58,331.249 182.964,336.531 175.211,342.732 168.891,346.304 166.793,347.537 164.853,348.447 166.793,347.537 168.891,346.304 175.211,342.732 182.964,336.531 189.58,331.249 207.728,315.631 218.509,306.606 230.518,296.873 L224.375,289.21 Q223.521,288.248 218.395,283.512 212.807,278.384 211.347,277.386 M247.256,337.814 Q245.953,336.632 241.888,336.367 238.806,336.167 229.945,341.748 227.103,343.577 223.671,345.969 209.519,355.834 207.127,356.033 209.519,355.834 223.671,345.969 227.103,343.577 229.945,341.748 238.806,336.167 241.888,336.367 245.953,336.632 247.256,337.814 248.559,338.996 252.774,341.055 248.559,338.996 247.256,337.814 M242.945,352.197 Q244.889,349.712 244.762,348.174 244.726,347.747 242.412,345.788 244.726,347.747 244.762,348.174 244.889,349.712 242.945,352.197 240.851,354.952 238.714,355.129 232.477,355.648 232.107,351.204 232.051,350.521 232.115,350.257 232.328,349.723 233.511,347.388 232.328,349.723 232.115,350.257 232.051,350.521 232.107,351.204 232.477,355.648 238.714,355.129 240.851,354.952 242.945,352.197 M228.477,406.916 Q228.145,407.769 227.586,408.625 226.069,411.074 225.1,411.842 226.069,411.074 227.586,408.625 228.145,407.769 228.477,406.916 229.669,404.702 229.517,402.871 L229.005,400.849 229.517,402.871 Q229.669,404.702 228.477,406.916 M268.268,374.27 Q270.431,374.09 273.217,372.74 276.233,371.387 279.94,368.74 285.229,364.883 286.393,362.525 286.843,361.737 286.792,361.115 286.735,360.432 284.834,358.267 283.019,356.094 282.314,355.895 283.019,356.094 284.834,358.267 286.735,360.432 286.792,361.115 286.843,361.737 286.393,362.525 285.229,364.883 279.94,368.74 276.233,371.387 273.217,372.74 270.431,374.09 268.268,374.27 264.935,374.547 262.515,372.339 258.692,368.785 258.421,368.635 258.692,368.785 262.515,372.339 264.935,374.547 268.268,374.27 M288.091,376.753 Q288.034,376.069 286.917,375.043 288.034,376.069 288.091,376.753 288.183,377.864 287.834,378.839 287.485,379.814 286.695,380.655 285.028,382.342 282.55,382.548 281.61,382.626 279.581,382.02 277.637,381.407 276.37,380.652 277.637,381.407 279.581,382.02 281.61,382.626 282.55,382.548 285.028,382.342 286.695,380.655 287.485,379.814 287.834,378.839 288.183,377.864 288.091,376.753 M249.653,410.147 Q253.391,409.578 257.215,409.002 253.391,409.578 249.653,410.147 239.441,412.544 230.285,407.97 239.441,412.544 249.653,410.147 M185.492,307.928 Q181.185,303.726 174.748,301.851 168.397,299.97 162.992,301.193 168.397,299.97 174.748,301.851 181.185,303.726 185.492,307.928Z" test="Avatar Lady" stroke-width="1.715"/>
      <path id="Layer1_0_1_STROKES" stroke="#009EFF" stroke-width="1.715" stroke-linejoin="round" stroke-linecap="round" fill="none" d="M277.202,324.399 Q275.843,320.468 278.877,318.667 281.818,316.788 284.645,315.607 M252.591,273.615 Q252.783,272.825 252.748,272.398 252.677,271.543 249.403,266.309 245.538,260.177 244.926,259.023 242.676,254.736 238.055,254.001 233.32,253.965 231.633,253.33 232.081,254.584 232.429,258.771 L232.769,264.937 Q232.52,265.044 230.583,264.517 228.476,264.004 227.536,264.082 224.203,264.359 222.394,264.337 218.079,264.179 213.294,264.577 L209.712,264.96 M211.347,277.386 Q212.807,278.384 218.395,283.512 223.521,288.248 224.375,289.21 M231.633,253.33 Q231.622,253.245 231.54,253.252 L231.519,252.996 Q231.616,253.158 231.633,253.33Z M209.285,264.996 Q209.271,264.825 209.356,264.818 209.534,264.97 209.712,264.96 L209.285,264.996 Q199.715,265.791 194.125,266.858 182.866,269.084 174.128,273.682 165.732,278.251 158.139,285.249 155.263,287.868 152.527,290.706 152.486,290.75 152.449,290.798 152.212,291.035 151.971,291.268 147.826,295.722 144.022,300.704 137.498,309.162 135.132,317.963 132.758,326.678 132.614,336.327 M132.453,339.566 Q135.181,339.663 138.501,339.881 143.956,340.288 151.766,344.2 152.17,344.422 157.369,347.434 157.419,347.447 157.458,347.469 159.219,348.503 161.527,349.841 M252.774,341.055 Q248.559,338.996 247.256,337.814 245.953,336.632 241.888,336.367 238.806,336.167 229.948,341.79 227.103,343.577 223.671,345.969 209.519,355.834 207.127,356.033 M258.421,368.635 Q258.692,368.785 262.515,372.339 264.935,374.547 268.268,374.27 270.431,374.09 273.263,372.779 276.233,371.387 279.94,368.74 285.229,364.883 286.435,362.522 286.843,361.737 286.792,361.115 286.735,360.432 284.834,358.267 283.019,356.094 282.314,355.895 M295.129,337.192 Q299.486,341.992 301.912,349.448 305.036,359.083 302.349,367.136 302.193,367.596 302,368.112 300.243,372.881 295.46,382.593 294.754,384.022 293.985,385.555 288.15,397.139 286.817,402.843 285.627,408.19 284.037,418.045 282.532,425.827 279.869,427.941 275.51,431.401 273.851,432.141 270.269,433.557 263.917,432.708 260.962,432.352 250.937,429.743 247.647,428.857 244.717,428.41 L244.632,428.417 M244.371,430.461 Q239.115,434.511 232.391,443.674 229.487,447.616 227.141,451.423 L227.063,451.516 226.835,451.879 Q225.87,453.522 224.997,455.129 222.803,459.104 221.257,462.925 217.894,471.12 212.164,489.149 209.391,497.771 205.117,511.502 L205.078,511.549 Q205.076,511.619 205.045,511.68 205.022,511.834 204.985,511.987 204.81,512.486 204.639,513.005 204.202,514.474 203.727,516.006 201.546,522.898 198.496,533.821 195.831,542.13 192.469,546.195 M192.113,547.085 Q190.111,550.951 181.642,561.893 175.594,569.747 173.24,573.648 172.497,574.912 172.125,575.762 M276.37,380.652 Q277.637,381.407 279.581,382.02 281.61,382.626 282.55,382.548 285.028,382.342 286.695,380.655 287.485,379.814 287.834,378.839 288.183,377.864 288.091,376.753 288.034,376.069 286.917,375.043 M244.632,428.417 Q240.877,427.834 237.714,428.002 229.447,428.947 225.943,429.239 220.218,429.714 214.038,427.819 210.357,427.006 205.067,424.434 194.572,419.283 185.025,410.01 175.599,400.854 168.856,389.886 M167.1,391.022 Q167.205,397.466 164.681,412.647 162.812,424.187 163.081,432.741 163.127,434.334 163.251,435.824 163.507,438.9 165.426,453.712 167.201,475.074 165.283,483.063 164.007,488.418 162.098,494.427 161.007,498.906 161.518,505.058 161.803,508.485 162.93,512.728 L162.933,512.77 Q163.969,516.656 165.701,521.23 169.245,530.744 169.65,535.615 169.863,538.179 169.129,540.735 168.726,542.102 168.185,542.835 M169.747,544.039 Q169.947,545.984 169.97,549.828 169.972,549.976 169.995,550.127 170.027,555.378 169.775,564.041 L169.778,564.084 Q169.683,567.531 169.534,571.503 M222.203,464.998 L222.095,469.911 Q222.166,470.765 223.049,474.134 223.931,477.502 224.002,478.357 224.073,479.211 225.296,484.616 226.434,490.028 226.505,490.882 227.102,498.06 219.176,529.005 211.165,559.957 211.697,566.365 212.215,572.603 222.843,586.605 231.15,597.53 241.402,608.036 248.827,615.593 267.574,651.72 267.666,652.831 268.371,653.031 268.983,653.152 269.019,652.547 M183.653,606.811 Q185.889,607.83 197.899,617.759 210.756,628.564 210.962,631.042 211.218,634.119 233.531,647.924 255.844,661.729 256.128,665.147 256.213,666.173 256.548,666.059 256.882,665.945 256.897,666.116 L257.53,665.461 M185.492,307.928 Q181.185,303.726 174.748,301.851 168.397,299.97 162.992,301.193 M132.453,339.566 Q132.368,339.584 132.282,339.581 132.194,339.578 132.111,339.595 127.964,339.432 125.229,339.607 117.866,340.047 112.731,342.453 106.357,345.477 105.631,346.054 104.42,347.015 104.704,349.4 105.088,351.95 106.519,353.638 106.913,354.049 107.64,354.706 107.733,354.781 107.825,354.863 L107.872,354.902 M112.074,350.079 Q118.451,349.327 130.31,351.059 130.484,351.084 130.659,351.116 M107.872,354.902 Q110.147,356.96 115.318,361.166 122.199,366.721 126.517,369.098 127.304,369.513 127.998,369.835 133.908,372.614 140.566,371.975 145.429,371.484 152.464,372.277 158.018,372.848 159.678,372.107 M163.806,380.368 L168.703,389.598 Q168.788,389.739 168.856,389.886 M123.191,375.139 Q120.633,378.535 119.653,396.771 119.224,405.066 119.131,407.053 119.08,410.585 119.407,414.516 119.805,419.301 122.658,429.819 125.425,440.344 125.922,446.325 125.974,446.947 126.028,447.607 126.196,450.457 126.127,453.966 126.025,459.718 125.294,467.242 124.782,472.518 123.963,478.667 121.102,500.157 122.551,517.588 122.785,520.408 124.827,529.445 126.825,537.969 126.789,539.607 M130.659,351.116 Q132.431,351.359 134.319,351.672 148.617,353.926 154.064,353.215 M145.261,392.234 L145.609,394.356 Q145.772,396.322 144.931,401.726 144.096,407.216 144.295,411.673 144.45,416.651 145.146,425.025 145.224,425.965 145.814,428.927 146.412,431.975 146.504,433.086 146.509,433.147 146.515,433.214 146.69,435.512 146.46,439.801 146.28,444.892 145.618,446.238 144.927,447.241 143.68,449.84 142.793,451.592 142.373,452.745 141.952,453.898 141.998,454.454 M147.53,489.959 Q147.587,490.643 147.143,497.735 146.615,504.834 146.7,505.859 146.856,507.739 148.827,512.824 149.779,515.39 150.283,516.876 150.749,518.346 150.784,518.77 151.025,521.675 148.995,527.265 147.171,532.234 145.611,534.171 M126.028,447.607 Q121.207,448.61 116.029,454.633 111.226,460.16 110.266,466.039 109.99,467.753 110.037,469.499 110.15,474.996 110.706,532.425 111.411,588.55 111.823,594.539 112.156,598.555 112.133,605.526 112.139,606.55 112.165,607.46 L112.172,607.545 Q112.327,610.466 112.858,612.177 113.328,613.687 152.949,662.879 192.272,711.58 192.642,714.991 M108.187,465.867 Q100.331,470.736 92.419,474.921 81.124,480.85 74.666,481.817 61.186,483.195 45.435,484.159 14.011,485.996 2.739,483.921 M168.185,542.835 Q167.683,543.522 167.042,543.575 M169.534,571.503 L169.538,571.546 Q169.487,573.521 169.405,575.644 168.967,586.986 168.21,602.158 168.073,605.697 178.615,621.771 191.606,641.427 194.517,647.466 214.388,688.835 216.398,707.855 M16.073,586.405 Q22.83,586.962 39.819,591.574 58.31,596.662 68.513,601.407 82.383,607.826 85.992,608.817 93.483,610.948 102.883,609.134 106.692,608.388 109.89,607.52" test="Avatar Lady"/>
      <path id="Layer1_0_2_STROKES" stroke="#FFBC00" stroke-width="1.715" stroke-linejoin="round" stroke-linecap="round" fill="none" d="M230.561,296.87 Q241,287.675 254.577,277.838 L262.337,284.249 Q270.438,291.663 272.053,296.605 272.637,298.45 266.462,301.802 259.533,305.389 258.749,308.38 257.765,312.075 259.636,321.126 260.465,325.032 261.443,328.375 261.502,328.587 261.564,328.796 M164.853,348.447 Q166.793,347.537 168.895,346.347 175.211,342.732 182.964,336.531 189.58,331.249 207.728,315.631 218.509,306.606 230.561,296.87 M261.293,329.162 Q261.562,329.389 261.806,329.636 261.679,329.223 261.564,328.796 M261.293,329.162 Q258.515,326.475 254.373,324.059 245.253,318.88 237.42,320.907 229.843,322.913 217.322,331.697 205.345,340.673 199.343,344.677 198.487,345.244 197.751,345.713 193.671,348.375 178.993,357.08 177.519,357.96 176.205,358.732 172.384,361.064 170.03,362.6 167.455,364.311 166.665,365.074" test="Avatar Lady"/>
      <path id="Layer1_0_3_STROKES" stroke="#FF0" stroke-width="1.715" stroke-linejoin="round" stroke-linecap="round" fill="none" d="M282.001,326.237 Q282.22,331.984 287.554,329.906 288.264,329.602 288.829,329.197 290.803,327.726 290.838,324.9 290.853,321.974 287.969,321.439 M233.511,347.388 Q232.328,349.723 232.115,350.257 232.051,350.521 232.107,351.204 232.477,355.648 238.714,355.129 240.851,354.952 242.945,352.197 244.889,349.712 244.762,348.174 244.726,347.747 242.412,345.788" test="Avatar Lady"/>
      <path id="Layer1_0_4_STROKES" stroke="#FFF" stroke-width="1.715" stroke-linejoin="round" stroke-linecap="round" fill="none" d="M229.005,400.849 L229.517,402.871 Q229.669,404.702 228.523,406.955 228.145,407.769 227.586,408.625 226.069,411.074 225.1,411.842 M230.285,407.97 Q239.441,412.544 249.653,410.147 253.391,409.578 257.215,409.002" test="Avatar Lady"/>
    </g>
  </g>
</svg>