<?xml version="1.0" encoding="utf-8"?>
<svg id="EdithAnim13" image-rendering="inherit" baseProfile="basic" version="1.1" x="0px" y="0px" width="800" height="600" xmlns="http://www.w3.org/2000/svg" xmlns:xlink="http://www.w3.org/1999/xlink">
  <g id="22_Avatarf109r1" overflow="visible">
    <g id="Avatar-Manf0r1">
      <g id="Tailf0r1">
        <path id="Layer3_0_1_STROKES" stroke="#009EFF" stroke-width="2.338" stroke-linejoin="round" stroke-linecap="round" fill="none" d="M632.232,610.966 Q631.055,593.793 630.407,576.61 629.828,559.948 624.418,544.211 618.472,527.069 601.898,519.269 581.755,509.871 578.835,530.878 578.408,533.939 580.409,536.625 585.139,543.081 591.866,547.214 598.898,544.648 604.186,549.499 610.552,555.388 613.352,564.216 619.897,585.051 625.11,606.06 626.583,611.938 625.592,617.902" test="Tail_2.3242325232423263e+312.3242325232423263e+31_2.3242325232423263e+312.3242325232423263e+31_2.3242325232423263e+312.3242325232423263e+31_2.3242325232423263e+312.3242325232423263e+31_2.3242325232423263e+312.3242325232423263e+31_2.3242325232423263e+312.3242325232423263e+31_2.3242325232423263e+312.3242325232423263e+31_2.3242325232423263e+312.3242325232423263e+31_2.3242325232423263e+312.3242325232423263e+31_2.3242325232423263e+312.3242325232423263e+31_2.3242325232423263e+312.3242325232423263e+31_2.3242325232423263e+312.3242325232423263e+31_2.3242325232423263e+312.3242325232423263e+31_2.3242325232423263e+312.3242325232423263e+31_2.3242325232423263e+312.3242325232423263e+31_23242324"/>
      </g>
      <path fill="#000" stroke="none" d="M593.354,523.574 Q589.191,514.23 583.924,512.871 582.735,512.531 568.293,516.693 551.134,521.62 531.68,521.79 511.462,521.96 492.093,515.674 476.547,509.303 474.763,509.473 468.647,512.191 466.948,513.38 463.89,515.419 464.145,517.968 464.315,519.836 464.485,530.115 465.079,540.055 467.968,543.453 471.111,547.105 486.317,555.006 498.889,561.377 511.717,566.814 520.127,570.382 532.784,586.267 539.241,594.338 546.546,603.767 548.075,604.956 546.546,606.655 545.357,607.93 545.527,607.93 L557.59,604.192 Q572.966,599.35 583.415,583.124 592.334,569.192 595.817,550.249 598.621,535.212 593.354,523.574 M598.791,170.097 L595.732,168.823 Q595.688,168.93 595.647,168.993 594.726,171.344 594.118,173.495 592.504,179.272 589.956,188.107 589.898,188.261 589.786,188.362 587.458,194.546 582.65,197.281 572.541,203.058 566.934,205.776 L570.757,214.271 Q570.332,220.473 572.286,262.013 572.357,263.546 572.371,264.986 573.956,297.446 574.155,307.292 574.153,307.356 574.155,307.376 574.184,309.653 574.155,310.69 573.815,324.027 576.279,345.094 576.619,348.068 581.291,345.604 585.963,343.055 585.623,341.272 585.453,339.997 587.407,340.677 589.021,341.272 589.446,341.696 589.531,341.781 595.817,320.034 L600.914,328.529 Q600,328.614 603.888,309.84 L608.985,311.964 Q609.083,312.064 608.39,303.044 608.427,303.024 608.39,302.959 607.421,289.092 604.652,253.858 602.972,232.328 601.679,218.179 600.078,199.266 599.215,193.543 598.974,191.875 598.791,191.335 598.974,191.875 599.215,193.543 600.078,199.266 601.679,218.179 L603.038,218.094 Q604.737,217.924 609.749,212.912 614.166,208.665 617.48,210.024 620.453,211.298 638.292,237.123 658.85,263.287 675.67,267.365 660.549,267.875 638.122,285.12 631.156,290.471 624.276,296.928 L623.256,297.862 Q624.466,310.774 628.438,354.948 L629.373,354.864 Q633.79,352.4 664.712,328.104 694.529,304.573 704.129,296.248 711.264,290.047 717.126,280.277 720.099,275.265 723.667,269.064 725.366,267.11 729.019,264.392 731.992,261.673 732.162,257.171 732.332,252.754 700.051,231.941 664.287,209.684 657.406,204.502 637.188,189.296 627.758,183.18 616.525,175.814 608.9,172.561 602.564,169.864 598.791,170.097 M538.391,164.915 Q540.94,164.491 543.318,164.066 547.141,164.066 546.886,168.738 554.192,167.889 557.08,168.738 560.138,169.673 560.053,172.986 L564.811,175.194 Q568.151,168.701 576.279,163.301 580.951,160.158 584.944,159.139 585.007,159.125 585.029,159.054 L583.924,152.258 Q585.199,152.173 582.735,149.2 578.233,144.018 574.58,139.515 569.653,133.399 552.493,127.877 537.457,123.035 529.132,122.95 502.457,122.695 484.108,130.171 472.725,134.843 462.531,148.945 460.577,151.617 458.963,154.042 454.408,161.262 453.016,166.699 L453.016,168.738 Q453.186,168.738 453.951,168.993 454.8,169.163 455.395,169.163 458.453,169.163 461.511,166.699 464.994,163.811 468.307,163.216 L468.307,165.34 472.13,165.34 Q474.679,164.83 479.521,163.386 483.258,162.197 484.023,162.367 L484.023,164.491 Q484.873,164.491 488.271,164.915 493.877,164.915 499.314,161.942 L503.562,161.942 503.562,163.641 510.358,163.641 Q521.571,160.243 522.251,160.243 523.355,160.243 524.374,161.008 525.564,161.857 527.772,161.942 527.772,164.066 527.348,164.915 L538.391,164.915Z" test="Avatar Man" stroke-width="1.699"/>
      <path id="Layer2_0_1_STROKES" stroke="#009EFF" stroke-width="1.699" stroke-linejoin="round" stroke-linecap="round" fill="none" d="M560.053,172.986 Q560.138,169.673 557.08,168.738 554.192,167.889 546.886,168.738 547.141,164.066 543.318,164.066 540.94,164.491 538.391,164.915 L527.348,164.915 Q527.772,164.066 527.772,161.942 525.564,161.857 524.374,161.008 523.355,160.243 522.251,160.243 521.571,160.243 510.358,163.641 L503.562,163.641 503.562,161.942 499.314,161.942 Q493.877,164.915 488.271,164.915 484.873,164.491 484.023,164.491 L484.023,162.367 Q483.258,162.197 479.521,163.386 474.679,164.83 472.13,165.34 L468.307,165.34 468.307,163.216 Q464.994,163.811 461.511,166.699 458.453,169.163 455.395,169.163 454.8,169.163 453.951,168.993 453.186,168.738 453.016,168.738 L453.016,166.699 Q454.408,161.262 459.005,154.084 460.577,151.617 462.531,148.945 472.725,134.843 484.108,130.171 502.457,122.695 529.132,122.95 537.457,123.035 552.493,127.877 569.653,133.399 574.58,139.515 578.233,144.018 582.735,149.2 585.199,152.173 583.924,152.258 M585.071,159.096 Q585.134,159.103 585.199,159.096 587.767,158.529 593.269,158.204 597.261,158.034 599.725,156.42 601.084,155.571 603.038,153.957 603.803,153.532 600.659,158.969 599.215,161.432 598.026,163.811 597.299,165.24 596.709,166.614 596.568,166.898 596.454,167.166 596.206,167.697 595.987,168.228 595.855,168.527 595.732,168.823 M598.791,170.097 Q602.564,169.864 608.942,172.603 616.525,175.814 627.758,183.18 637.188,189.296 657.406,204.502 664.287,209.684 700.051,231.941 732.332,252.754 732.162,257.171 731.992,261.673 729.019,264.392 725.366,267.11 723.667,269.064 720.099,275.265 717.126,280.277 711.264,290.047 704.129,296.248 694.529,304.573 664.712,328.104 633.79,352.4 629.373,354.864 628.932,355.151 628.523,355.416 623.579,358.623 621.387,359.876 617.48,362.169 614.082,361.66 M598.026,163.811 Q596.702,165.262 595.605,166.105 594.495,166.913 593.609,167.124 590.38,167.379 586.473,167.974 581.461,168.738 578.742,170.607 575.089,173.75 571.607,176.469 567.274,179.867 564.556,181.481 L562.687,182.415 Q563.096,178.667 564.853,175.237 M559.204,172.986 L560.053,172.986 M564.853,175.237 Q568.151,168.701 576.279,163.301 580.951,160.158 584.944,159.139 585.007,159.125 585.071,159.096 M595.732,168.823 Q595.688,168.93 595.647,169.035 594.726,171.344 594.118,173.495 592.504,179.272 589.956,188.107 589.898,188.261 589.828,188.404 587.458,194.546 582.65,197.281 572.541,203.058 566.934,205.776 M570.757,214.271 Q570.332,220.473 572.286,262.013 572.357,263.546 572.414,265.029 573.956,297.446 574.155,307.292 574.153,307.356 574.155,307.419 574.184,309.653 574.155,310.69 573.815,324.027 576.279,345.094 576.619,348.068 581.291,345.604 585.963,343.055 585.623,341.272 585.453,339.997 587.407,340.677 589.021,341.272 589.446,341.696 589.531,341.781 595.817,320.034 L600.914,328.529 Q600,328.614 603.888,309.84 L608.985,311.964 Q609.083,312.064 608.432,303.086 608.427,303.024 608.432,302.959 607.421,289.092 604.652,253.858 602.972,232.328 601.721,218.179 600.078,199.266 599.215,193.543 598.974,191.875 598.791,191.335 M623.256,297.905 L624.276,296.928 Q631.156,290.471 638.122,285.12 660.549,267.875 675.67,267.365 658.85,263.287 638.292,237.123 620.453,211.298 617.48,210.024 614.166,208.665 609.749,212.912 604.737,217.924 603.038,218.094 M507.469,211.298 Q508.46,211.458 510.527,211.553 512.886,211.638 516.644,211.638 523.27,211.553 526.158,211.298 531.51,210.788 532.19,210.618 535.588,209.684 535.928,207.051 M557.165,279.258 Q558.015,284.78 559.968,292.765 562.347,302.364 564.386,307.292 M462.446,276.71 Q462.446,276.794 462.786,285.459 463.04,291.661 465.419,295.823 466.184,297.159 467.33,298.457 470.81,302.342 477.822,305.847 487.506,310.774 496.851,311.114 L500.291,311.369 500.418,311.369 Q509.423,311.709 512.141,311.539 516.814,311.199 522.336,309.415 526.413,308.141 537.372,298.287 545.16,291.212 553.427,282.571 553.534,282.467 553.64,282.359 553.704,282.298 553.767,282.231 553.854,282.15 553.937,282.061 555.242,280.677 556.57,279.258 556.657,279.166 556.74,279.088 556.774,279.039 556.825,279.003 556.839,278.954 556.868,278.918 566.87,268.254 568.209,265.241 M500.249,311.964 Q499.484,315.617 498.04,323.942 496.596,331.162 494.302,334.9 M618.754,302.195 L623.256,297.905 M609.409,369.73 Q609.324,369.9 600.744,392.242 594.628,408.127 592.419,417.302 589.701,428.43 587.322,461.561 584.944,493.842 586.048,500.978 M537.117,413.394 Q537.627,415.263 539.326,415.773 539.835,415.943 541.194,415.943 543.403,415.943 544.253,414.923 544.592,414.583 545.952,411.44 M503.137,401.076 Q502.967,416.537 504.071,418.916 505.855,423.163 515.879,423.163 520.721,423.163 521.146,423.078 521.656,422.993 523.525,421.889 M504.411,453.321 Q503.562,455.869 503.562,458.672 503.562,463.345 507.299,463.6 509.763,463.684 517.578,463.515 M501.438,488.575 Q505.77,491.548 508.574,492.228 510.612,492.652 514.18,491.973 M544.847,608.439 Q538.476,611.413 521.401,614.641 504.156,617.869 485.807,619.483 469.921,620.927 432.543,620.162 404.34,619.653 388.114,618.633 375.627,617.869 350.312,615.235 344.025,614.556 339.353,615.575 336.04,616.34 335.021,615.66 M457.349,153.107 Q454.121,151.153 450.298,149.115 442.652,145.122 440.359,145.462 437.895,145.802 439.934,157.949 441.633,168.313 443.332,172.646 M447.58,184.114 Q448.259,186.917 450.043,192.524 451.062,197.026 448.429,198.98 445.186,201.398 442.1,203.653 L442.058,203.695 Q395.707,238.112 389.814,240.181 384.632,241.71 383.357,242.135 381.573,242.814 381.319,244.429 380.894,247.742 380.724,259.125 380.469,272.207 381.319,275.011 384.207,286.564 406.464,319.439 428.296,351.635 441.208,364.208 M449.279,213.422 Q451.912,214.781 457.179,215.461 457.393,215.493 457.604,215.503 462.575,216.215 467.543,215.97 470.686,215.8 477.992,214.611 483.938,213.592 485.807,213.847 M448.854,235.509 Q447.834,237.208 436.876,248.166 426.937,258.105 424.218,260.569 M469.582,255.387 Q473.404,255.387 477.652,254.538 L494.217,254.538 Q489.12,259.974 486.232,262.863 480.88,268.13 479.606,268.13 477.312,268.13 473.914,263.372 470.431,257.936 469.157,256.661 M414.874,255.897 Q416.331,259.419 419.461,263.882 419.495,263.931 419.546,263.967 427.334,275.136 445.456,292.17 453.874,300.076 460.067,306.102 474.398,320.003 476.887,323.857 M448.429,387.994 Q447.834,401.501 450.553,407.957 452.252,411.865 457.434,416.282 462.786,420.615 467.543,421.974 M462.871,429.62 Q462.955,432.253 462.531,443.127 462.361,453.321 463.72,455.954 465.334,459.097 469.327,461.731 473.234,464.279 475.613,464.024 M468.817,467.422 Q468.902,470.226 468.902,474.558 469.072,477.786 470.516,479.74 470.686,479.995 475.273,483.138 478.331,485.262 478.162,489.085 477.992,491.973 476.208,499.109 474.679,505.055 475.188,506.924 M454.376,519.242 Q434.497,515.589 410.456,511.851 362.46,504.46 342.326,504.46 328.904,504.46 313.613,501.657 301.55,499.448 299.002,500.213 294.585,501.572 290.422,508.538 286.259,515.589 286.599,521.366 286.854,525.273 288.213,535.637 289.318,544.897 288.298,548.55 M453.951,543.877 Q446.135,545.152 410.117,545.916 371.04,546.766 364.753,547.275 357.787,547.87 335.615,551.438 315.482,554.666 307.412,554.921 297.813,555.261 289.318,554.071 284.9,553.477 278.529,551.948 275.216,551.183 271.818,553.477 270.034,554.751 265.787,559.168 260.944,564.18 265.362,574.884 266.211,577.008 264.767,589.156 263.153,601.388 264.088,603.767 L267.061,610.988 Q270.374,620.077 271.733,629.677 M331.623,603.767 Q332.812,607.59 335.021,618.548 337.399,630.271 337.145,632.65" test="Avatar Man"/>
      <path id="Layer2_0_2_STROKES" stroke="#FF0" stroke-width="1.699" stroke-linejoin="round" stroke-linecap="round" fill="none" d="M510.358,214.611 Q509.508,219.368 511.207,222.851 512.991,226.504 516.304,226.504 517.663,226.504 519.532,225.485 521.656,224.295 522.251,222.681 M457.264,218.434 Q456.414,224.38 456.414,224.805 456.414,226.533 457.689,228.373 458.366,229.335 459.388,230.327 462.531,233.3 465.759,233.3 467.458,233.3 468.562,231.601 469.242,230.667 470.431,228.628" test="Avatar Man"/>
      <path id="Layer2_0_3_STROKES" stroke="#FFF" stroke-width="1.699" stroke-linejoin="round" stroke-linecap="round" fill="none" d="M540.09,260.909 Q545.782,263.202 546.037,267.025 546.054,267.266 546.079,267.535 546.074,267.599 546.079,267.662 L546.079,267.79 Q546.111,270 545.612,274.076 M532.445,276.2 Q538.043,274.864 541.449,270.763 542.591,269.39 543.488,267.705" test="Avatar Man"/>
      <path id="Layer2_0_4_STROKES" stroke="#F90" stroke-width="1.699" stroke-linejoin="round" stroke-linecap="round" fill="none" d="M474.763,509.473 Q476.547,509.303 492.093,515.674 511.462,521.96 531.68,521.79 551.134,521.62 568.293,516.693 582.735,512.531 583.924,512.871 589.191,514.23 593.354,523.574 598.621,535.212 595.817,550.249 592.334,569.192 583.415,583.124 572.966,599.35 557.59,604.192 L545.527,607.93 Q545.357,607.93 546.546,606.655 548.075,604.956 546.546,603.767 539.241,594.338 532.784,586.267 520.127,570.382 511.717,566.814 498.889,561.377 486.317,555.006 471.111,547.105 467.968,543.453 465.079,540.055 464.485,530.115 464.315,519.836 464.145,517.968 463.89,515.419 466.948,513.38 468.647,512.191 474.763,509.473Z" test="Avatar Man"/>
    </g>
    <g id="Avatar-Lady">
      <path fill="#000" stroke="none" d="M243.973,430.526 Q240.218,429.972 237.05,430.129 228.768,431.045 225.258,431.324 219.523,431.78 213.34,429.859 209.657,429.032 204.368,426.437 193.877,421.24 184.35,411.919 174.943,402.715 168.184,391.668 L166.468,392.838 Q166.55,399.292 163.967,414.486 162.054,426.036 162.292,434.603 162.332,436.199 162.451,437.692 162.696,440.773 164.564,455.613 166.264,477.013 164.314,485.007 163.017,490.364 161.083,496.376 159.974,500.857 160.464,507.02 160.737,510.453 161.846,514.663 L161.853,514.748 Q162.876,518.643 164.594,523.231 168.109,532.772 168.496,537.651 168.7,540.219 167.956,542.776 167.548,544.144 167,544.833 L168.564,546.087 Q168.756,548.036 168.762,551.843 168.767,552.034 168.79,552.185 168.802,557.444 168.515,566.076 L168.522,566.161 Q168.413,569.614 168.25,573.591 L171.95,575.709 Q174.325,571.854 180.41,564.011 188.932,553.083 190.95,549.219 L191.31,548.329 Q194.692,544.27 197.391,535.958 200.486,525.031 202.694,518.137 203.176,516.605 203.576,515.138 203.791,514.616 203.922,514.077 204.006,513.963 203.988,513.813 204.062,513.749 204.06,513.635 L204.06,513.635 Q208.433,499.896 211.242,491.271 217.045,473.238 220.442,465.043 222.005,461.222 224.216,457.249 225.097,455.642 226.026,454.004 L226.256,453.641 226.334,453.549 Q228.74,449.742 231.663,445.804 238.43,436.652 243.708,432.615 L243.973,430.526 M211.192,279.198 L209.6,266.748 209.172,266.782 Q199.585,267.544 193.983,268.592 182.7,270.78 173.932,275.353 165.507,279.898 157.878,286.879 154.988,289.491 152.195,292.326 152.197,292.368 152.116,292.419 151.921,292.651 151.637,292.888 147.512,297.329 143.685,302.306 137.12,310.752 134.718,319.557 132.31,328.276 132.13,337.938 L131.954,341.139 Q134.689,341.289 138.014,341.519 143.474,341.947 151.282,345.892 151.686,346.117 156.882,349.151 156.931,349.165 156.967,349.144 158.73,350.229 161.037,351.578 158.73,350.229 156.967,349.144 156.931,349.165 156.882,349.151 151.686,346.117 151.282,345.892 143.474,341.947 138.014,341.519 134.689,341.289 131.954,341.139 L130.119,352.742 Q131.892,352.992 133.782,353.312 148.092,355.621 153.55,354.929 148.092,355.621 133.782,353.312 131.892,352.992 130.119,352.742 129.944,352.709 129.77,352.683 117.9,350.906 111.511,351.636 L107.242,356.454 Q109.556,358.52 114.72,362.751 121.59,368.339 125.863,370.738 126.692,371.153 127.386,371.479 133.294,374.283 139.964,373.667 144.837,373.194 151.879,374.012 157.439,374.604 159.104,373.869 L164.612,374.896 163.208,382.157 168.078,391.418 Q168.163,391.559 168.184,391.668 174.943,402.715 184.35,411.919 193.877,421.24 204.368,426.437 209.657,429.032 213.34,429.859 219.523,431.78 225.258,431.324 228.768,431.045 237.05,430.129 240.218,429.972 243.973,430.526 L244.059,430.52 Q246.995,431.02 250.286,431.92 260.316,434.569 263.274,434.937 269.632,435.81 273.224,434.405 274.889,433.67 279.266,430.221 281.942,428.113 283.476,420.325 285.105,410.462 286.316,405.111 287.672,399.404 293.557,387.824 294.333,386.291 295.045,384.864 299.871,375.155 301.647,370.384 301.842,369.869 302,369.409 304.72,361.354 301.627,351.694 299.224,344.218 294.878,339.395 L288.556,331.369 Q288.031,331.769 287.319,332.07 281.97,334.132 281.771,328.376 L276.972,326.518 261.295,330.864 Q261.408,331.293 261.534,331.707 261.291,331.459 260.98,331.234 258.25,328.529 254.111,326.094 244.996,320.875 237.144,322.877 229.549,324.858 216.979,333.61 204.951,342.555 198.88,346.504 198.067,347.108 197.328,347.575 193.232,350.226 178.501,358.89 177.022,359.766 175.7,360.491 171.868,362.856 169.459,364.346 166.92,366.09 166.126,366.851 166.92,366.09 169.459,364.346 171.868,362.856 175.7,360.491 177.022,359.766 178.501,358.89 193.232,350.226 197.328,347.575 198.067,347.108 198.88,346.504 204.951,342.555 216.979,333.61 229.549,324.858 237.144,322.877 244.996,320.875 254.111,326.094 258.25,328.529 260.98,331.234 L261.295,330.864 Q261.234,330.656 261.176,330.443 260.208,327.092 259.392,323.177 257.552,314.106 258.55,310.409 259.346,307.417 266.299,303.85 272.494,300.515 271.917,298.666 270.317,293.71 262.231,286.256 L254.483,279.808 Q241.851,289.613 230.32,298.783 218.258,308.486 207.428,317.485 189.198,333.06 182.553,338.326 174.766,344.507 168.424,348.062 166.318,349.289 164.372,350.193 166.318,349.289 168.424,348.062 174.766,344.507 182.553,338.326 189.198,333.06 207.428,317.485 218.258,308.486 230.32,298.783 L224.196,291.086 Q223.344,290.12 218.228,285.358 212.65,280.202 211.192,279.198 M246.934,339.844 Q245.634,338.655 241.563,338.376 238.478,338.164 229.583,343.72 226.73,345.542 223.284,347.925 209.077,357.754 206.68,357.944 209.077,357.754 223.284,347.925 226.73,345.542 229.583,343.72 238.478,338.164 241.563,338.376 245.634,338.655 246.934,339.844 248.234,341.033 252.448,343.11 248.234,341.033 246.934,339.844 M242.564,354.232 Q244.52,351.751 244.398,350.21 244.364,349.782 242.054,347.812 244.364,349.782 244.398,350.21 244.52,351.751 242.564,354.232 240.457,356.984 238.317,357.154 232.068,357.65 231.714,353.199 231.66,352.514 231.725,352.25 231.941,351.716 233.134,349.382 231.941,351.716 231.725,352.25 231.66,352.514 231.714,353.199 232.068,357.65 238.317,357.154 240.457,356.984 242.564,354.232 M227.876,408.978 Q227.541,409.832 226.978,410.686 225.45,413.133 224.477,413.9 225.45,413.133 226.978,410.686 227.541,409.832 227.876,408.978 229.078,406.765 228.933,404.932 L228.427,402.904 228.933,404.932 Q229.078,406.765 227.876,408.978 M267.844,376.429 Q270.011,376.257 272.806,374.915 275.831,373.571 279.553,370.934 284.864,367.09 286.038,364.733 286.492,363.946 286.442,363.323 286.388,362.638 284.492,360.463 282.682,358.281 281.977,358.078 282.682,358.281 284.492,360.463 286.388,362.638 286.442,363.323 286.492,363.946 286.038,364.733 284.864,367.09 279.553,370.934 275.831,373.571 272.806,374.915 270.011,376.257 267.844,376.429 264.505,376.694 262.089,374.474 258.274,370.901 258.003,370.75 258.274,370.901 262.089,374.474 264.505,376.694 267.844,376.429 M287.687,378.988 Q287.632,378.303 286.517,377.272 287.632,378.303 287.687,378.988 287.775,380.1 287.422,381.076 287.069,382.052 286.274,382.89 284.599,384.574 282.116,384.771 281.175,384.846 279.145,384.232 277.2,383.611 275.934,382.85 277.2,383.611 279.145,384.232 281.175,384.846 282.116,384.771 284.599,384.574 286.274,382.89 287.069,382.052 287.422,381.076 287.775,380.1 287.687,378.988 M249.071,412.29 Q252.817,411.734 256.649,411.172 252.817,411.734 249.071,412.29 238.836,414.654 229.683,410.04 238.836,414.654 249.071,412.29 M185.188,309.69 Q180.89,305.466 174.451,303.566 168.097,301.658 162.68,302.864 168.097,301.658 174.451,303.566 180.89,305.466 185.188,309.69Z" test="Avatar Lady" stroke-width="1.717"/>
      <path id="Layer1_0_1_STROKES" stroke="#009EFF" stroke-width="1.717" stroke-linejoin="round" stroke-linecap="round" fill="none" d="M276.972,326.518 Q275.625,322.576 278.67,320.784 281.622,318.913 284.458,317.74 M252.51,275.571 Q252.705,274.78 252.671,274.352 252.603,273.496 249.343,268.242 245.495,262.088 244.886,260.93 242.649,256.628 238.024,255.876 233.282,255.822 231.594,255.181 232.039,256.438 232.372,260.632 L232.69,266.809 Q232.44,266.915 230.503,266.38 228.394,265.858 227.452,265.933 224.114,266.198 222.303,266.17 217.982,265.996 213.188,266.377 L209.6,266.748 M211.192,279.198 Q212.65,280.202 218.228,285.358 223.344,290.12 224.196,291.086 M231.594,255.181 Q231.584,255.095 231.502,255.102 L231.482,254.845 Q231.579,255.008 231.594,255.181Z M209.172,266.782 Q209.158,266.611 209.244,266.604 209.422,266.757 209.6,266.748 L209.172,266.782 Q199.585,267.544 193.983,268.592 182.7,270.78 173.932,275.353 165.507,279.898 157.878,286.879 154.988,289.491 152.238,292.323 152.197,292.368 152.159,292.415 151.921,292.651 151.68,292.884 147.512,297.329 143.685,302.306 137.12,310.752 134.718,319.557 132.31,328.276 132.13,337.938 M131.957,341.182 Q134.689,341.289 138.014,341.519 143.474,341.947 151.282,345.892 151.686,346.117 156.882,349.151 156.931,349.165 156.971,349.187 158.73,350.229 161.037,351.578 M252.448,343.11 Q248.234,341.033 246.934,339.844 245.634,338.655 241.563,338.376 238.478,338.164 229.587,343.763 226.73,345.542 223.284,347.925 209.077,357.754 206.68,357.944 M258.003,370.75 Q258.274,370.901 262.089,374.474 264.505,376.694 267.844,376.429 270.011,376.257 272.852,374.955 275.831,373.571 279.553,370.934 284.864,367.09 286.08,364.73 286.492,363.946 286.442,363.323 286.388,362.638 284.492,360.463 282.682,358.281 281.977,358.078 M294.878,339.395 Q299.224,344.218 301.627,351.694 304.72,361.354 302,369.409 301.842,369.869 301.647,370.384 299.871,375.155 295.045,384.864 294.333,386.291 293.557,387.824 287.672,399.404 286.316,405.111 285.105,410.462 283.476,420.325 281.942,428.113 279.266,430.221 274.889,433.67 273.224,434.405 269.632,435.81 263.274,434.937 260.316,434.569 250.286,431.92 246.995,431.02 244.062,430.562 L243.977,430.569 M243.708,432.615 Q238.43,436.652 231.663,445.804 228.74,449.742 226.377,453.545 L226.298,453.638 226.069,454.001 Q225.097,455.642 224.216,457.249 222.005,461.222 220.442,465.043 217.045,473.238 211.242,491.271 208.433,499.896 204.102,513.632 L204.063,513.678 Q204.062,513.749 204.03,513.81 204.006,513.963 203.969,514.116 203.791,514.616 203.619,515.135 203.176,516.605 202.694,518.137 200.486,525.031 197.391,535.958 194.692,544.27 191.31,548.329 M190.95,549.219 Q188.932,553.083 180.41,564.011 174.325,571.854 171.954,575.752 171.205,577.015 170.83,577.865 M275.934,382.85 Q277.2,383.611 279.145,384.232 281.175,384.846 282.116,384.771 284.599,384.574 286.274,382.89 287.069,382.052 287.422,381.076 287.775,380.1 287.687,378.988 287.632,378.303 286.517,377.272 M243.977,430.569 Q240.218,429.972 237.05,430.129 228.768,431.045 225.258,431.324 219.523,431.78 213.34,429.859 209.657,429.032 204.368,426.437 193.877,421.24 184.35,411.919 174.943,402.715 168.23,391.707 M166.468,392.838 Q166.55,399.292 163.967,414.486 162.054,426.036 162.292,434.603 162.332,436.199 162.451,437.692 162.696,440.773 164.564,455.613 166.264,477.013 164.314,485.007 163.017,490.364 161.083,496.376 159.974,500.857 160.464,507.02 160.737,510.453 161.85,514.706 L161.853,514.748 Q162.876,518.643 164.594,523.231 168.109,532.772 168.496,537.651 168.7,540.219 167.956,542.776 167.548,544.144 167.003,544.876 M168.564,546.087 Q168.756,548.036 168.766,551.886 168.767,552.034 168.79,552.185 168.802,557.444 168.518,566.118 L168.522,566.161 Q168.413,569.614 168.25,573.591 M221.383,467.122 L221.257,472.042 Q221.325,472.898 222.196,476.274 223.067,479.65 223.135,480.506 223.203,481.362 224.409,486.78 225.529,492.204 225.597,493.06 226.168,500.25 218.118,531.211 209.983,562.178 210.493,568.598 210.99,574.847 221.582,588.908 229.862,599.879 240.09,610.437 247.498,618.032 266.141,654.28 266.23,655.393 266.935,655.596 267.548,655.719 267.586,655.113 M182.262,609.001 Q184.497,610.03 196.488,620.017 209.325,630.884 209.522,633.367 209.767,636.448 232.062,650.355 254.358,664.261 254.63,667.685 254.711,668.712 255.047,668.6 255.382,668.487 255.396,668.658 L256.033,668.004 M185.188,309.69 Q180.89,305.466 174.451,303.566 168.097,301.658 162.68,302.864 M131.957,341.182 Q131.872,341.199 131.786,341.196 131.698,341.192 131.615,341.209 127.462,341.031 124.722,341.197 117.347,341.61 112.196,344.001 105.802,347.007 105.073,347.582 103.857,348.54 104.133,350.93 104.508,353.484 105.935,355.18 106.328,355.593 107.054,356.254 107.146,356.329 107.239,356.411 L107.285,356.451 M111.511,351.636 Q117.9,350.906 129.77,352.683 129.944,352.709 130.119,352.742 M107.285,356.451 Q109.556,358.52 114.72,362.751 121.59,368.339 125.906,370.735 126.692,371.153 127.386,371.479 133.294,374.283 139.964,373.667 144.837,373.194 151.879,374.012 157.439,374.604 159.104,373.869 M163.208,382.157 L168.078,391.418 Q168.163,391.559 168.23,391.707 M122.552,376.773 Q119.979,380.164 118.932,398.423 118.472,406.729 118.371,408.718 118.308,412.255 118.62,416.193 119.001,420.986 121.82,431.53 124.553,442.08 125.029,448.072 125.079,448.696 125.131,449.356 125.289,452.211 125.206,455.725 125.083,461.485 124.324,469.017 123.793,474.299 122.95,480.454 120.007,501.964 121.394,519.427 121.619,522.252 123.63,531.309 125.601,539.852 125.559,541.492 M130.119,352.742 Q131.892,352.992 133.782,353.312 148.092,355.621 153.55,354.929 M144.592,393.973 L144.934,396.099 Q145.09,398.068 144.228,403.477 143.372,408.972 143.554,413.437 143.692,418.422 144.358,426.811 144.433,427.752 145.014,430.721 145.601,433.776 145.689,434.888 145.694,434.95 145.699,435.017 145.867,437.319 145.62,441.613 145.422,446.711 144.754,448.056 144.058,449.059 142.8,451.657 141.906,453.408 141.481,454.561 141.055,455.715 141.1,456.271 M146.51,491.848 Q146.564,492.533 146.095,499.634 145.54,506.741 145.621,507.768 145.771,509.652 147.726,514.751 148.67,517.324 149.169,518.814 149.631,520.288 149.664,520.713 149.896,523.623 147.842,529.213 145.997,534.184 144.428,536.117 M125.131,449.356 Q120.3,450.343 115.092,456.356 110.262,461.874 109.279,467.758 108.996,469.474 109.037,471.222 109.13,476.728 109.478,534.242 109.981,590.452 110.371,596.45 110.691,600.474 110.642,607.455 110.645,608.48 110.667,609.391 L110.674,609.477 Q110.818,612.402 111.344,614.118 111.809,615.632 151.31,665.039 190.513,713.954 190.87,717.371 M107.197,467.578 Q99.313,472.426 91.374,476.588 80.041,482.484 73.57,483.429 60.065,484.76 44.288,485.669 12.811,487.394 1.531,485.276 M167.003,544.876 Q166.498,545.562 165.856,545.613 M168.25,573.591 L168.254,573.634 Q168.196,575.611 168.106,577.737 167.626,589.094 166.812,604.285 166.663,607.828 177.162,623.964 190.1,643.696 192.993,649.754 212.743,691.256 214.687,710.31 M14.512,587.957 Q21.277,588.54 38.274,593.219 56.773,598.382 66.974,603.171 80.84,609.65 84.452,610.655 91.945,612.816 101.365,611.034 105.183,610.3 108.388,609.443" test="Avatar Lady"/>
      <path id="Layer1_0_2_STROKES" stroke="#FFBC00" stroke-width="1.717" stroke-linejoin="round" stroke-linecap="round" fill="none" d="M230.363,298.779 Q241.851,289.613 254.483,279.808 L262.231,286.256 Q270.317,293.71 271.917,298.666 272.494,300.515 266.299,303.85 259.346,307.417 258.55,310.409 257.552,314.106 259.392,323.177 260.208,327.092 261.176,330.443 261.234,330.656 261.295,330.864 M164.372,350.193 Q166.318,349.289 168.427,348.105 174.766,344.507 182.553,338.326 189.198,333.06 207.428,317.485 218.258,308.486 230.363,298.779 M261.023,331.231 Q261.291,331.459 261.534,331.707 261.408,331.293 261.295,330.864 M261.023,331.231 Q258.25,328.529 254.111,326.094 244.996,320.875 237.144,322.877 229.549,324.858 216.979,333.61 204.951,342.555 198.926,346.543 198.067,347.108 197.328,347.575 193.232,350.226 178.501,358.89 177.022,359.766 175.703,360.534 171.868,362.856 169.505,364.386 166.92,366.09 166.126,366.851" test="Avatar Lady"/>
      <path id="Layer1_0_3_STROKES" stroke="#FF0" stroke-width="1.717" stroke-linejoin="round" stroke-linecap="round" fill="none" d="M281.771,328.376 Q281.97,334.132 287.319,332.07 288.031,331.769 288.598,331.366 290.58,329.899 290.626,327.07 290.652,324.139 287.766,323.593 M233.134,349.382 Q231.941,351.716 231.725,352.25 231.66,352.514 231.714,353.199 232.068,357.65 238.317,357.154 240.457,356.984 242.564,354.232 244.52,351.751 244.398,350.21 244.364,349.782 242.054,347.812" test="Avatar Lady"/>
      <path id="Layer1_0_4_STROKES" stroke="#FFF" stroke-width="1.717" stroke-linejoin="round" stroke-linecap="round" fill="none" d="M228.427,402.904 L228.933,404.932 Q229.078,406.765 227.922,409.017 227.541,409.832 226.978,410.686 225.45,413.133 224.477,413.9 M229.683,410.04 Q238.836,414.654 249.071,412.29 252.817,411.734 256.649,411.172" test="Avatar Lady"/>
    </g>
  </g>
</svg>