<?xml version="1.0" encoding="utf-8"?>
<svg id="EdithAnim13" image-rendering="inherit" baseProfile="basic" version="1.1" x="0px" y="0px" width="800" height="600" xmlns="http://www.w3.org/2000/svg" xmlns:xlink="http://www.w3.org/1999/xlink">
  <g id="22_Avatarf110r1" overflow="visible">
    <g id="Avatar-Manf0r1">
      <g id="Tailf0r1">
        <path id="Layer3_0_1_STROKES" stroke="#009EFF" stroke-width="2.34" stroke-linejoin="round" stroke-linecap="round" fill="none" d="M630.558,611.609 Q629.383,594.421 628.737,577.223 628.158,560.548 622.746,544.796 616.797,527.64 600.209,519.831 580.051,510.422 577.125,531.447 576.698,534.511 578.7,537.199 583.434,543.661 590.165,547.798 597.204,545.231 602.496,550.086 608.866,555.981 611.668,564.818 618.217,585.671 623.431,606.698 624.905,612.581 623.912,618.55" test="Tail_2.3242325232423263e+312.3242325232423263e+31_2.3242325232423263e+312.3242325232423263e+31_2.3242325232423263e+312.3242325232423263e+31_2.3242325232423263e+312.3242325232423263e+31_2.3242325232423263e+312.3242325232423263e+31_2.3242325232423263e+312.3242325232423263e+31_2.3242325232423263e+312.3242325232423263e+31_2.3242325232423263e+312.3242325232423263e+31_2.3242325232423263e+312.3242325232423263e+31_2.3242325232423263e+312.3242325232423263e+31_2.3242325232423263e+312.3242325232423263e+31_2.3242325232423263e+312.3242325232423263e+31_2.3242325232423263e+312.3242325232423263e+31_2.3242325232423263e+312.3242325232423263e+31_2.3242325232423263e+312.3242325232423263e+31_2324232523242325"/>
      </g>
      <path fill="#000" stroke="none" d="M591.616,524.196 Q587.449,514.84 582.176,513.48 580.985,513.139 566.527,517.307 549.346,522.24 529.87,522.41 509.628,522.58 490.237,516.286 474.673,509.907 472.887,510.078 466.763,512.799 465.062,513.99 462,516.031 462.255,518.583 462.425,520.454 462.595,530.745 463.191,540.696 466.083,544.098 469.229,547.755 484.453,555.664 497.041,562.043 509.883,567.486 518.303,571.058 530.976,586.963 537.439,595.042 544.754,604.483 546.285,605.674 544.754,607.375 543.563,608.65 543.733,608.65 L555.81,604.908 Q571.204,600.06 581.665,583.816 590.596,569.868 594.083,550.902 596.889,535.848 591.616,524.196 M597.06,170.303 L593.998,169.027 Q593.953,169.134 593.913,169.197 592.991,171.551 592.382,173.705 590.766,179.488 588.214,188.333 588.156,188.488 588.044,188.588 585.714,194.78 580.9,197.519 570.779,203.302 565.166,206.024 L568.993,214.529 Q568.568,220.737 570.524,262.327 570.595,263.861 570.609,265.304 572.196,297.801 572.395,307.659 572.393,307.723 572.395,307.744 572.424,310.023 572.395,311.061 572.055,324.413 574.521,345.506 574.861,348.483 579.539,346.016 584.217,343.465 583.877,341.679 583.707,340.403 585.663,341.083 587.279,341.679 587.704,342.104 587.789,342.189 594.083,320.416 L599.186,328.921 Q599.271,329.006 602.163,310.21 L607.266,312.336 Q607.364,312.437 606.67,303.406 606.708,303.386 606.67,303.321 605.701,289.437 602.928,254.162 601.246,232.607 599.951,218.441 598.349,199.506 597.485,193.777 597.243,192.106 597.06,191.565 597.243,192.106 597.485,193.777 598.349,199.506 599.951,218.441 L601.312,218.356 Q603.013,218.186 608.031,213.168 612.454,208.915 615.771,210.276 618.747,211.552 636.608,237.407 657.19,263.603 674.03,267.685 658.891,268.195 636.438,285.46 629.464,290.819 622.575,297.282 L621.554,298.218 Q622.765,311.146 626.742,355.372 L627.678,355.287 Q632.1,352.82 663.058,328.496 692.911,304.937 702.522,296.602 709.666,290.393 715.534,280.613 718.511,275.595 722.083,269.386 723.784,267.43 727.441,264.708 730.418,261.987 730.588,257.479 730.758,253.056 698.439,232.219 662.633,209.936 655.744,204.748 635.502,189.524 626.062,183.4 614.815,176.027 607.18,172.769 600.837,170.07 597.06,170.303 M536.589,165.115 Q539.14,164.689 541.522,164.264 545.349,164.264 545.094,168.942 552.408,168.091 555.3,168.942 558.362,169.878 558.277,173.194 L563.04,175.406 Q566.384,168.905 574.521,163.499 579.199,160.352 583.196,159.331 583.259,159.318 583.281,159.246 L582.176,152.442 Q583.452,152.357 580.985,149.38 576.477,144.192 572.82,139.685 567.887,133.561 550.707,128.033 535.653,123.185 527.319,123.1 500.613,122.845 482.242,130.329 470.845,135.007 460.639,149.125 458.683,151.801 457.067,154.228 452.507,161.458 451.114,166.901 L451.114,168.942 Q451.284,168.942 452.049,169.197 452.9,169.367 453.495,169.367 456.557,169.367 459.619,166.901 463.106,164.009 466.423,163.414 L466.423,165.54 470.25,165.54 Q472.801,165.03 477.649,163.584 481.392,162.393 482.157,162.563 L482.157,164.689 Q483.007,164.689 486.409,165.115 492.023,165.115 497.466,162.138 L501.718,162.138 501.718,163.839 508.522,163.839 Q519.749,160.437 520.429,160.437 521.535,160.437 522.556,161.202 523.746,162.053 525.958,162.138 525.958,164.264 525.532,165.115 L536.589,165.115Z" test="Avatar Man" stroke-width="1.701"/>
      <path id="Layer2_0_1_STROKES" stroke="#009EFF" stroke-width="1.701" stroke-linejoin="round" stroke-linecap="round" fill="none" d="M558.277,173.194 Q558.362,169.878 555.3,168.942 552.408,168.091 545.094,168.942 545.349,164.264 541.522,164.264 539.14,164.689 536.589,165.115 L525.532,165.115 Q525.958,164.264 525.958,162.138 523.746,162.053 522.556,161.202 521.535,160.437 520.429,160.437 519.749,160.437 508.522,163.839 L501.718,163.839 501.718,162.138 497.466,162.138 Q492.023,165.115 486.409,165.115 483.007,164.689 482.157,164.689 L482.157,162.563 Q481.392,162.393 477.649,163.584 472.801,165.03 470.25,165.54 L466.423,165.54 466.423,163.414 Q463.106,164.009 459.619,166.901 456.557,169.367 453.495,169.367 452.9,169.367 452.049,169.197 451.284,168.942 451.114,168.942 L451.114,166.901 Q452.507,161.458 457.11,154.271 458.683,151.801 460.639,149.125 470.845,135.007 482.242,130.329 500.613,122.845 527.319,123.1 535.653,123.185 550.707,128.033 567.887,133.561 572.82,139.685 576.477,144.192 580.985,149.38 583.452,152.357 582.176,152.442 M583.324,159.289 Q583.387,159.296 583.452,159.289 586.023,158.721 591.531,158.396 595.529,158.226 597.995,156.61 599.356,155.759 601.312,154.143 602.077,153.718 598.931,159.161 597.485,161.628 596.294,164.009 595.566,165.44 594.976,166.816 594.835,167.1 594.721,167.369 594.472,167.899 594.253,168.432 594.12,168.731 593.998,169.027 M597.06,170.303 Q600.837,170.07 607.223,172.812 614.815,176.027 626.062,183.4 635.502,189.524 655.744,204.748 662.633,209.936 698.439,232.219 730.758,253.056 730.588,257.479 730.418,261.987 727.441,264.708 723.784,267.43 722.083,269.386 718.511,275.595 715.534,280.613 709.666,290.393 702.522,296.602 692.911,304.937 663.058,328.496 632.1,352.82 627.678,355.287 627.237,355.574 626.827,355.839 621.877,359.051 619.683,360.304 615.771,362.601 612.369,362.091 M596.294,164.009 Q594.969,165.462 593.87,166.305 592.759,167.115 591.871,167.326 588.64,167.581 584.727,168.177 579.709,168.942 576.988,170.813 573.331,173.96 569.844,176.682 565.506,180.084 562.784,181.699 L560.913,182.635 Q561.323,178.883 563.082,175.448 M557.426,173.194 L558.277,173.194 M563.082,175.448 Q566.384,168.905 574.521,163.499 579.199,160.352 583.196,159.331 583.259,159.318 583.324,159.289 M593.998,169.027 Q593.953,169.134 593.913,169.24 592.991,171.551 592.382,173.705 590.766,179.488 588.214,188.333 588.156,188.488 588.087,188.631 585.714,194.78 580.9,197.519 570.779,203.302 565.166,206.024 M568.993,214.529 Q568.568,220.737 570.524,262.327 570.595,263.861 570.651,265.346 572.196,297.801 572.395,307.659 572.393,307.723 572.395,307.786 572.424,310.023 572.395,311.061 572.055,324.413 574.521,345.506 574.861,348.483 579.539,346.016 584.217,343.465 583.877,341.679 583.707,340.403 585.663,341.083 587.279,341.679 587.704,342.104 587.789,342.189 594.083,320.416 L599.186,328.921 Q599.271,329.006 602.163,310.21 L607.266,312.336 Q607.364,312.437 606.713,303.449 606.708,303.386 606.713,303.321 605.701,289.437 602.928,254.162 601.246,232.607 599.994,218.441 598.349,199.506 597.485,193.777 597.243,192.106 597.06,191.565 M621.554,298.26 L622.575,297.282 Q629.464,290.819 636.438,285.46 658.891,268.195 674.03,267.685 657.19,263.603 636.608,237.407 618.747,211.552 615.771,210.276 612.454,208.915 608.031,213.168 603.013,218.186 601.312,218.356 M505.631,211.552 Q506.622,211.712 508.693,211.807 511.054,211.892 514.816,211.892 521.45,211.807 524.342,211.552 529.7,211.042 530.38,210.872 533.782,209.936 534.123,207.3 M555.385,279.592 Q556.236,285.12 558.192,293.115 560.573,302.726 562.614,307.659 M460.554,277.041 Q460.554,277.126 460.894,285.801 461.15,292.009 463.531,296.177 464.296,297.514 465.445,298.813 468.928,302.703 475.948,306.213 485.644,311.146 495,311.486 L498.444,311.741 498.572,311.741 Q507.587,312.081 510.309,311.911 514.986,311.571 520.515,309.785 524.597,308.509 535.568,298.643 543.366,291.56 551.643,282.909 551.75,282.805 551.855,282.696 551.92,282.635 551.983,282.569 552.07,282.487 552.153,282.399 553.459,281.012 554.79,279.592 554.876,279.5 554.96,279.422 554.994,279.373 555.045,279.337 555.058,279.288 555.087,279.252 565.101,268.575 566.442,265.559 M498.402,312.336 Q497.636,315.993 496.19,324.328 494.744,331.558 492.448,335.3 M617.046,302.556 L621.554,298.26 M607.691,370.17 Q607.606,370.34 599.016,392.709 592.892,408.613 590.681,417.798 587.959,428.94 585.578,462.109 583.196,494.428 584.302,501.573 M535.313,413.886 Q535.824,415.757 537.525,416.267 538.035,416.437 539.396,416.437 541.607,416.437 542.457,415.417 542.798,415.077 544.158,411.93 M501.293,401.554 Q501.123,417.033 502.229,419.414 504.015,423.667 514.051,423.667 518.899,423.667 519.324,423.582 519.834,423.497 521.705,422.391 M502.569,453.859 Q501.718,456.411 501.718,459.218 501.718,463.895 505.461,464.151 507.927,464.236 515.752,464.065 M499.592,489.155 Q503.93,492.132 506.736,492.812 508.778,493.238 512.35,492.557 M543.053,609.161 Q536.674,612.138 519.579,615.369 502.314,618.601 483.943,620.217 468.039,621.663 430.617,620.898 402.38,620.387 386.136,619.367 373.633,618.601 348.288,615.965 341.995,615.284 337.317,616.305 334,617.07 332.979,616.39 M455.451,153.293 Q452.219,151.337 448.392,149.295 440.738,145.298 438.441,145.638 435.975,145.978 438.016,158.141 439.717,168.517 441.418,172.854 M445.671,184.336 Q446.351,187.143 448.137,192.756 449.158,197.264 446.521,199.22 443.274,201.64 440.185,203.897 L440.142,203.94 Q393.737,238.397 387.837,240.469 382.648,242 381.373,242.425 379.587,243.106 379.332,244.722 378.906,248.038 378.736,259.435 378.481,272.533 379.332,275.34 382.223,286.906 404.506,319.821 426.364,352.055 439.292,364.642 M447.372,213.678 Q450.008,215.039 455.281,215.719 455.495,215.752 455.706,215.762 460.684,216.475 465.657,216.23 468.804,216.06 476.118,214.869 482.072,213.848 483.943,214.104 M446.946,235.791 Q445.926,237.492 434.954,248.464 425.003,258.415 422.282,260.881 M467.698,255.693 Q471.526,255.693 475.778,254.842 L492.363,254.842 Q487.26,260.286 484.368,263.177 479.01,268.45 477.734,268.45 475.438,268.45 472.036,263.688 468.549,258.244 467.273,256.969 M412.926,256.203 Q414.386,259.729 417.519,264.198 417.553,264.247 417.604,264.283 425.401,275.465 443.544,292.52 451.973,300.434 458.173,306.468 472.521,320.385 475.013,324.243 M446.521,388.456 Q445.926,401.979 448.647,408.443 450.348,412.355 455.536,416.778 460.894,421.115 465.657,422.476 M460.98,430.131 Q461.065,432.767 460.639,443.653 460.469,453.859 461.83,456.496 463.446,459.643 467.443,462.279 471.356,464.831 473.737,464.576 M466.933,467.978 Q467.018,470.784 467.018,475.122 467.188,478.354 468.634,480.31 468.804,480.565 473.397,483.712 476.459,485.838 476.289,489.666 476.118,492.557 474.332,499.701 472.801,505.655 473.312,507.526 M452.475,519.858 Q432.573,516.201 408.504,512.459 360.45,505.06 340.294,505.06 326.856,505.06 311.547,502.253 299.47,500.042 296.918,500.807 292.495,502.168 288.328,509.142 284.161,516.201 284.501,521.985 284.756,525.897 286.117,536.273 287.222,545.543 286.202,549.201 M452.049,544.523 Q444.225,545.799 408.163,546.564 369.04,547.414 362.747,547.925 355.773,548.52 333.575,552.092 313.418,555.324 305.338,555.579 295.727,555.919 287.222,554.729 282.8,554.133 276.421,552.603 273.104,551.837 269.702,554.133 267.916,555.409 263.664,559.832 258.816,564.85 263.238,575.566 264.089,577.692 262.643,589.854 261.027,602.102 261.962,604.483 L264.939,611.712 Q268.256,620.813 269.617,630.423 M329.577,604.483 Q330.768,608.31 332.979,619.282 335.361,631.019 335.106,633.4" test="Avatar Man"/>
      <path id="Layer2_0_2_STROKES" stroke="#FF0" stroke-width="1.701" stroke-linejoin="round" stroke-linecap="round" fill="none" d="M508.522,214.869 Q507.672,219.632 509.373,223.119 511.159,226.776 514.476,226.776 515.837,226.776 517.708,225.755 519.834,224.565 520.429,222.949 M455.366,218.696 Q454.516,224.65 454.516,225.075 454.516,226.805 455.791,228.647 456.47,229.61 457.492,230.603 460.639,233.58 463.871,233.58 465.572,233.58 466.678,231.879 467.358,230.943 468.549,228.902" test="Avatar Man"/>
      <path id="Layer2_0_3_STROKES" stroke="#FFF" stroke-width="1.701" stroke-linejoin="round" stroke-linecap="round" fill="none" d="M538.29,261.221 Q543.988,263.518 544.243,267.345 544.26,267.586 544.286,267.855 544.281,267.92 544.286,267.983 L544.286,268.11 Q544.318,270.323 543.818,274.404 M530.635,276.53 Q536.24,275.193 539.651,271.087 540.794,269.713 541.692,268.025" test="Avatar Man"/>
      <path id="Layer2_0_4_STROKES" stroke="#F90" stroke-width="1.701" stroke-linejoin="round" stroke-linecap="round" fill="none" d="M472.887,510.078 Q474.673,509.907 490.237,516.286 509.628,522.58 529.87,522.41 549.346,522.24 566.527,517.307 580.985,513.139 582.176,513.48 587.449,514.84 591.616,524.196 596.889,535.848 594.083,550.902 590.596,569.868 581.665,583.816 571.204,600.06 555.81,604.908 L543.733,608.65 Q543.563,608.65 544.754,607.375 546.285,605.674 544.754,604.483 537.439,595.042 530.976,586.963 518.303,571.058 509.883,567.486 497.041,562.043 484.453,555.664 469.229,547.755 466.083,544.098 463.191,540.696 462.595,530.745 462.425,520.454 462.255,518.583 462,516.031 465.062,513.99 466.763,512.799 472.887,510.078Z" test="Avatar Man"/>
    </g>
    <g id="Avatar-Lady">
      <path fill="#000" stroke="none" d="M243.352,432.568 Q239.594,432.01 236.422,432.165 228.129,433.077 224.616,433.354 218.874,433.806 212.686,431.879 208,431.048 203.706,428.447 193.207,423.238 183.676,413.9 174.264,404.679 167.505,393.615 L165.786,394.785 Q165.864,401.247 163.267,416.455 161.345,428.017 161.577,436.594 161.616,438.192 161.734,439.686 161.977,442.772 163.837,457.629 165.525,479.054 163.568,487.056 162.266,492.418 160.325,498.435 159.213,502.92 159.699,509.091 159.969,512.527 161.077,516.743 L161.084,516.829 Q162.105,520.729 163.823,525.322 167.335,534.876 167.719,539.761 167.922,542.332 167.175,544.892 166.765,546.26 166.216,546.95 L167.781,548.207 Q167.973,550.158 167.976,553.969 167.981,554.16 168.003,554.312 168.012,559.576 167.719,568.218 L167.725,568.303 Q167.615,571.759 167.449,575.741 L171.152,577.864 Q173.531,574.006 179.629,566.158 188.167,555.224 190.191,551.357 L190.552,550.466 Q193.94,546.405 196.647,538.086 199.753,527.149 201.969,520.248 202.451,518.715 202.853,517.247 203.069,516.724 203.201,516.185 203.285,516.071 203.266,515.921 203.34,515.856 203.338,515.743 L203.338,515.743 Q207.726,501.991 210.543,493.358 216.365,475.309 219.772,467.107 221.339,463.283 223.556,459.307 224.438,457.699 225.369,456.06 L225.599,455.697 225.678,455.604 Q228.089,451.794 231.018,447.854 237.799,438.697 243.086,434.659 L243.352,432.568 M210.636,281.049 L209.051,268.584 208.622,268.618 Q199.024,269.374 193.415,270.419 182.118,272.602 173.338,277.174 164.9,281.719 157.258,288.702 154.363,291.315 151.565,294.152 151.566,294.193 151.486,294.245 151.29,294.477 151.006,294.714 146.873,299.157 143.038,304.137 136.461,312.588 134.05,321.401 131.633,330.128 131.447,339.801 L131.268,343.006 Q134.007,343.157 137.334,343.39 142.801,343.822 150.615,347.777 151.019,348.002 156.218,351.043 156.268,351.057 156.304,351.037 158.068,352.124 160.377,353.475 158.068,352.124 156.304,351.037 156.268,351.057 156.218,351.043 151.019,348.002 150.615,347.777 142.801,343.822 137.334,343.39 134.007,343.157 131.268,343.006 L129.423,354.62 Q131.199,354.871 133.09,355.193 147.415,357.514 152.88,356.825 147.415,357.514 133.09,355.193 131.199,354.871 129.423,354.62 129.248,354.587 129.074,354.561 117.192,352.774 110.795,353.5 L106.518,358.321 Q108.834,360.391 114,364.63 120.874,370.229 125.151,372.634 125.98,373.05 126.675,373.376 132.588,376.187 139.266,375.575 144.144,375.105 151.194,375.929 156.759,376.525 158.426,375.791 L163.94,376.822 162.529,384.091 167.399,393.365 Q167.484,393.506 167.505,393.615 174.264,404.679 183.676,413.9 193.207,423.238 203.706,428.447 208,431.048 212.686,431.879 218.874,433.806 224.616,433.354 228.129,433.077 236.422,432.165 239.594,432.01 243.352,432.568 L243.438,432.561 Q246.377,433.064 249.671,433.967 259.711,436.626 262.672,436.996 269.036,437.875 272.633,436.47 274.3,435.735 278.685,432.286 281.365,430.178 282.906,422.382 284.543,412.508 285.76,407.153 287.121,401.44 293.02,389.852 293.798,388.318 294.512,386.889 299.35,377.172 301.131,372.398 301.327,371.882 301.485,371.421 304.213,363.359 301.123,353.686 298.723,346.201 294.376,341.369 L288.051,333.33 Q287.526,333.73 286.813,334.031 281.456,336.092 281.261,330.33 L276.458,328.466 260.761,332.807 Q260.874,333.236 261,333.65 260.756,333.402 260.445,333.176 257.713,330.466 253.572,328.026 244.45,322.795 236.588,324.794 228.983,326.772 216.393,335.525 204.346,344.473 198.265,348.422 197.451,349.026 196.711,349.493 192.609,352.144 177.855,360.808 176.374,361.684 175.05,362.409 171.212,364.774 168.8,366.264 166.257,368.008 165.462,368.769 166.257,368.008 168.8,366.264 171.212,364.774 175.05,362.409 176.374,361.684 177.855,360.808 192.609,352.144 196.711,349.493 197.451,349.026 198.265,348.422 204.346,344.473 216.393,335.525 228.983,326.772 236.588,324.794 244.45,322.795 253.572,328.026 257.713,330.466 260.445,333.176 L260.761,332.807 Q260.699,332.597 260.641,332.385 259.675,329.029 258.861,325.109 257.025,316.027 258.027,312.326 258.825,309.331 265.788,305.765 271.993,302.431 271.416,300.579 269.818,295.617 261.727,288.149 L253.975,281.688 Q241.323,291.496 229.773,300.668 217.691,310.374 206.843,319.376 188.582,334.956 181.925,340.223 174.126,346.406 167.774,349.961 165.665,351.188 163.717,352.091 165.665,351.188 167.774,349.961 174.126,346.406 181.925,340.223 188.582,334.956 206.843,319.376 217.691,310.374 229.773,300.668 L223.647,292.959 Q222.795,291.991 217.676,287.22 212.095,282.055 210.636,281.049 M246.377,341.786 Q245.076,340.595 241.001,340.313 237.913,340.099 229.005,345.656 226.147,347.478 222.696,349.86 208.466,359.691 206.066,359.88 208.466,359.691 222.696,349.86 226.147,347.478 229.005,345.656 237.913,340.099 241.001,340.313 245.076,340.595 246.377,341.786 247.678,342.977 251.895,345.06 247.678,342.977 246.377,341.786 M241.993,356.188 Q243.953,353.705 243.832,352.162 243.798,351.734 241.487,349.76 243.798,351.734 243.832,352.162 243.953,353.705 241.993,356.188 239.881,358.941 237.739,359.11 231.483,359.602 231.132,355.146 231.078,354.46 231.143,354.196 231.36,353.662 232.556,351.326 231.36,353.662 231.143,354.196 231.078,354.46 231.132,355.146 231.483,359.602 237.739,359.11 239.881,358.941 241.993,356.188 M227.252,410.985 Q226.915,411.839 226.352,412.694 224.82,415.143 223.845,415.91 224.82,415.143 226.352,412.694 226.915,411.839 227.252,410.985 228.457,408.77 228.312,406.935 L227.808,404.905 228.312,406.935 Q228.457,408.77 227.252,410.985 M267.286,378.427 Q269.456,378.256 272.254,376.914 275.284,375.57 279.012,372.933 284.331,369.089 285.508,366.73 285.963,365.942 285.914,365.318 285.86,364.632 283.964,362.454 282.153,360.268 281.447,360.065 282.153,360.268 283.964,362.454 285.86,364.632 285.914,365.318 285.963,365.942 285.508,366.73 284.331,369.089 279.012,372.933 275.284,375.57 272.254,376.914 269.456,378.256 267.286,378.427 263.943,378.69 261.526,376.466 257.709,372.886 257.438,372.735 257.709,372.886 261.526,376.466 263.943,378.69 267.286,378.427 M287.149,381.001 Q287.095,380.316 285.979,379.282 287.095,380.316 287.149,381.001 287.237,382.115 286.883,383.092 286.529,384.068 285.732,384.907 284.054,386.591 281.569,386.787 280.626,386.861 278.594,386.245 276.648,385.622 275.381,384.86 276.648,385.622 278.594,386.245 280.626,386.861 281.569,386.787 284.054,386.591 285.732,384.907 286.529,384.068 286.883,383.092 287.237,382.115 287.149,381.001 M248.468,414.315 Q252.219,413.761 256.055,413.2 252.219,413.761 248.468,414.315 238.22,416.674 229.06,412.05 238.22,416.674 248.468,414.315 M184.583,311.557 Q180.283,307.326 173.838,305.419 167.478,303.505 162.054,304.709 167.478,303.505 173.838,305.419 180.283,307.326 184.583,311.557Z" test="Avatar Lady" stroke-width="1.719"/>
      <path id="Layer1_0_1_STROKES" stroke="#009EFF" stroke-width="1.719" stroke-linejoin="round" stroke-linecap="round" fill="none" d="M276.458,328.466 Q275.112,324.519 278.162,322.727 281.119,320.855 283.958,319.683 M252.002,277.446 Q252.199,276.654 252.165,276.226 252.098,275.369 248.837,270.107 244.989,263.942 244.38,262.783 242.144,258.475 237.514,257.719 232.767,257.662 231.078,257.019 231.522,258.277 231.852,262.476 L232.167,268.66 Q231.917,268.766 229.977,268.229 227.866,267.706 226.924,267.78 223.581,268.043 221.768,268.013 217.443,267.837 212.644,268.215 L209.051,268.584 M210.636,281.049 Q212.095,282.055 217.676,287.22 222.795,291.991 223.647,292.959 M231.078,257.019 Q231.067,256.933 230.985,256.94 L230.965,256.683 Q231.062,256.846 231.078,257.019Z M208.622,268.618 Q208.609,268.446 208.695,268.439 208.872,268.593 209.051,268.584 L208.622,268.618 Q199.024,269.374 193.415,270.419 182.118,272.602 173.338,277.174 164.9,281.719 157.258,288.702 154.363,291.315 151.608,294.149 151.566,294.193 151.529,294.241 151.29,294.477 151.048,294.71 146.873,299.157 143.038,304.137 136.461,312.588 134.05,321.401 131.633,330.128 131.447,339.801 M131.271,343.049 Q134.007,343.157 137.334,343.39 142.801,343.822 150.615,347.777 151.019,348.002 156.218,351.043 156.268,351.057 156.307,351.08 158.068,352.124 160.377,353.475 M251.895,345.06 Q247.678,342.977 246.377,341.786 245.076,340.595 241.001,340.313 237.913,340.099 229.008,345.698 226.147,347.478 222.696,349.86 208.466,359.691 206.066,359.88 M257.438,372.735 Q257.709,372.886 261.526,376.466 263.943,378.69 267.286,378.427 269.456,378.256 272.3,376.954 275.284,375.57 279.012,372.933 284.331,369.089 285.551,366.726 285.963,365.942 285.914,365.318 285.86,364.632 283.964,362.454 282.153,360.268 281.447,360.065 M294.376,341.369 Q298.723,346.201 301.123,353.686 304.213,363.359 301.485,371.421 301.327,371.882 301.131,372.398 299.35,377.172 294.512,386.889 293.798,388.318 293.02,389.852 287.121,401.44 285.76,407.153 284.543,412.508 282.906,422.382 281.365,430.178 278.685,432.286 274.3,435.735 272.633,436.47 269.036,437.875 262.672,436.996 259.711,436.626 249.671,433.967 246.377,433.064 243.441,432.604 L243.356,432.611 M243.086,434.659 Q237.799,438.697 231.018,447.854 228.089,451.794 225.721,455.601 L225.642,455.693 225.412,456.056 Q224.438,457.699 223.556,459.307 221.339,463.283 219.772,467.107 216.365,475.309 210.543,493.358 207.726,501.991 203.381,515.739 L203.342,515.785 Q203.34,515.856 203.309,515.917 203.285,516.071 203.247,516.224 203.069,516.724 202.896,517.243 202.451,518.715 201.969,520.248 199.753,527.149 196.647,538.086 193.94,546.405 190.552,550.466 M190.191,551.357 Q188.167,555.224 179.629,566.158 173.531,574.006 171.155,577.907 170.404,579.171 170.028,580.022 M275.381,384.86 Q276.648,385.622 278.594,386.245 280.626,386.861 281.569,386.787 284.054,386.591 285.732,384.907 286.529,384.068 286.883,383.092 287.237,382.115 287.149,381.001 287.095,380.316 285.979,379.282 M243.356,432.611 Q239.594,432.01 236.422,432.165 228.129,433.077 224.616,433.354 218.874,433.806 212.686,431.879 208,431.048 203.706,428.447 193.207,423.238 183.676,413.9 174.264,404.679 167.551,393.655 M165.786,394.785 Q165.864,401.247 163.267,416.455 161.345,428.017 161.577,436.594 161.616,438.192 161.734,439.686 161.977,442.772 163.837,457.629 165.525,479.054 163.568,487.056 162.266,492.418 160.325,498.435 159.213,502.92 159.699,509.091 159.969,512.527 161.081,516.786 L161.084,516.829 Q162.105,520.729 163.823,525.322 167.335,534.876 167.719,539.761 167.922,542.332 167.175,544.892 166.765,546.26 166.219,546.993 M167.781,548.207 Q167.973,550.158 167.979,554.012 167.981,554.16 168.003,554.312 168.012,559.576 167.722,568.26 L167.725,568.303 Q167.615,571.759 167.449,575.741 M220.712,469.189 L220.583,474.114 Q220.65,474.971 221.52,478.352 222.39,481.733 222.457,482.59 222.525,483.447 223.728,488.871 224.846,494.302 224.913,495.159 225.48,502.357 217.401,533.347 209.236,564.344 209.742,570.771 210.235,577.027 220.83,591.111 229.111,602.1 239.343,612.677 246.755,620.285 265.395,656.586 265.482,657.7 266.188,657.904 266.802,658.028 266.84,657.421 M181.452,611.2 Q183.689,612.231 195.687,622.238 208.531,633.126 208.727,635.611 208.97,638.697 231.28,652.633 253.591,666.57 253.861,669.998 253.942,671.027 254.278,670.914 254.614,670.801 254.628,670.973 L255.266,670.319 M184.583,311.557 Q180.283,307.326 173.838,305.419 167.478,303.505 162.054,304.709 M131.271,343.049 Q131.186,343.066 131.1,343.062 131.012,343.059 130.929,343.076 126.772,342.894 124.029,343.059 116.645,343.468 111.487,345.857 105.084,348.862 104.353,349.437 103.135,350.395 103.41,352.788 103.783,355.346 105.211,357.044 105.604,357.458 106.33,358.12 106.422,358.196 106.515,358.278 L106.561,358.318 M110.795,353.5 Q117.192,352.774 129.074,354.561 129.248,354.587 129.423,354.62 M106.561,358.318 Q108.834,360.391 114,364.63 120.874,370.229 125.194,372.63 125.98,373.05 126.675,373.376 132.588,376.187 139.266,375.575 144.144,375.105 151.194,375.929 156.759,376.525 158.426,375.791 M162.529,384.091 L167.399,393.365 Q167.484,393.506 167.551,393.655 M121.832,378.673 Q119.254,382.066 118.193,400.345 117.727,408.66 117.625,410.651 117.559,414.192 117.869,418.134 118.247,422.933 121.062,433.491 123.791,444.055 124.264,450.054 124.313,450.677 124.365,451.339 124.521,454.196 124.436,457.715 124.309,463.481 123.544,471.021 123.008,476.308 122.161,482.47 119.2,504.002 120.577,521.485 120.8,524.313 122.808,533.382 124.775,541.936 124.732,543.578 M129.423,354.62 Q131.199,354.871 133.09,355.193 147.415,357.514 152.88,356.825 M143.885,395.907 L144.225,398.036 Q144.381,400.007 143.514,405.422 142.653,410.922 142.833,415.392 142.967,420.383 143.629,428.781 143.703,429.724 144.282,432.696 144.868,435.755 144.956,436.869 144.961,436.93 144.966,436.997 145.132,439.302 144.882,443.601 144.681,448.704 144.011,450.05 143.314,451.054 142.052,453.654 141.156,455.406 140.729,456.561 140.303,457.715 140.347,458.272 M145.739,493.892 Q145.793,494.578 145.318,501.686 144.758,508.802 144.839,509.83 144.987,511.715 146.942,516.822 147.884,519.398 148.383,520.89 148.844,522.366 148.878,522.791 149.107,525.705 147.047,531.3 145.197,536.275 143.625,538.209 M124.365,451.339 Q119.527,452.324 114.31,458.34 109.471,463.86 108.483,469.75 108.199,471.468 108.238,473.219 108.328,478.73 108.637,536.309 109.103,592.581 109.49,598.587 109.807,602.615 109.754,609.604 109.755,610.63 109.777,611.542 L109.784,611.628 Q109.927,614.557 110.452,616.275 110.916,617.791 150.428,667.28 189.642,716.275 189.997,719.696 M106.399,469.569 Q98.502,474.417 90.552,478.578 79.203,484.474 72.723,485.415 59.203,486.739 43.407,487.638 11.894,489.344 .603,487.215 M166.219,546.993 Q165.713,547.68 165.07,547.731 M167.449,575.741 L167.452,575.784 Q167.393,577.763 167.301,579.892 166.814,591.261 165.989,606.468 165.837,610.016 176.337,626.176 189.276,645.939 192.168,652.006 211.912,693.567 213.845,712.644 M13.529,590.02 Q20.301,590.608 37.314,595.304 55.831,600.485 66.039,605.286 79.917,611.782 83.532,612.79 91.032,614.959 100.464,613.181 104.287,612.449 107.496,611.593" test="Avatar Lady"/>
      <path id="Layer1_0_2_STROKES" stroke="#FFBC00" stroke-width="1.719" stroke-linejoin="round" stroke-linecap="round" fill="none" d="M229.816,300.665 Q241.323,291.496 253.975,281.688 L261.727,288.149 Q269.818,295.617 271.416,300.579 271.993,302.431 265.788,305.765 258.825,309.331 258.027,312.326 257.025,316.027 258.861,325.109 259.675,329.029 260.641,332.385 260.699,332.597 260.761,332.807 M163.717,352.091 Q165.665,351.188 167.778,350.004 174.126,346.406 181.925,340.223 188.582,334.956 206.843,319.376 217.691,310.374 229.816,300.665 M260.488,333.173 Q260.756,333.402 261,333.65 260.874,333.236 260.761,332.807 M260.488,333.173 Q257.713,330.466 253.572,328.026 244.45,322.795 236.588,324.794 228.983,326.772 216.393,335.525 204.346,344.473 198.312,348.461 197.451,349.026 196.711,349.493 192.609,352.144 177.855,360.808 176.374,361.684 175.053,362.452 171.212,364.774 168.846,366.304 166.257,368.008 165.462,368.769" test="Avatar Lady"/>
      <path id="Layer1_0_3_STROKES" stroke="#FF0" stroke-width="1.719" stroke-linejoin="round" stroke-linecap="round" fill="none" d="M281.261,330.33 Q281.456,336.092 286.813,334.031 287.526,333.73 288.094,333.327 290.079,331.86 290.127,329.028 290.154,326.094 287.265,325.545 M232.556,351.326 Q231.36,353.662 231.143,354.196 231.078,354.46 231.132,355.146 231.483,359.602 237.739,359.11 239.881,358.941 241.993,356.188 243.953,353.705 243.832,352.162 243.798,351.734 241.487,349.76" test="Avatar Lady"/>
      <path id="Layer1_0_4_STROKES" stroke="#FFF" stroke-width="1.719" stroke-linejoin="round" stroke-linecap="round" fill="none" d="M227.808,404.905 L228.312,406.935 Q228.457,408.77 227.298,411.024 226.915,411.839 226.352,412.694 224.82,415.143 223.845,415.91 M229.06,412.05 Q238.22,416.674 248.468,414.315 252.219,413.761 256.055,413.2" test="Avatar Lady"/>
    </g>
  </g>
</svg>