<?xml version="1.0" encoding="utf-8"?>
<svg id="EdithAnim13" image-rendering="inherit" baseProfile="basic" version="1.1" x="0px" y="0px" width="800" height="600" xmlns="http://www.w3.org/2000/svg" xmlns:xlink="http://www.w3.org/1999/xlink">
  <g id="22_Avatarf113r1" overflow="visible">
    <g id="Avatar-Manf0r1">
      <g id="Tailf0r1">
        <path id="Layer3_0_1_STROKES" stroke="#009EFF" stroke-width="2.35" stroke-linejoin="round" stroke-linecap="round" fill="none" d="M625.235,614.147 Q624.049,596.884 623.395,579.612 622.81,562.864 617.369,547.045 611.389,529.816 594.726,521.978 574.478,512.535 571.546,533.652 571.118,536.729 573.129,539.429 577.885,545.917 584.648,550.07 591.716,547.489 597.032,552.364 603.432,558.283 606.249,567.157 612.832,588.099 618.075,609.216 619.557,615.124 618.562,621.119" test="Tail_2.3242325232423263e+312.3242325232423263e+31_2.3242325232423263e+312.3242325232423263e+31_2.3242325232423263e+312.3242325232423263e+31_2.3242325232423263e+312.3242325232423263e+31_2.3242325232423263e+312.3242325232423263e+31_2.3242325232423263e+312.3242325232423263e+31_2.3242325232423263e+312.3242325232423263e+31_2.3242325232423263e+312.3242325232423263e+31_2.3242325232423263e+312.3242325232423263e+31_2.3242325232423263e+312.3242325232423263e+31_2.3242325232423263e+312.3242325232423263e+31_2.3242325232423263e+312.3242325232423263e+31_2.3242325232423263e+312.3242325232423263e+31_2.3242325232423263e+312.3242325232423263e+31_2.3242325232423263e+312.3242325232423263e+31_2.3242325232423263e+312.3242325232423263e+31_1"/>
      </g>
      <path fill="#000" stroke="none" d="M586.11,526.296 Q581.926,516.902 576.631,515.536 575.435,515.194 560.917,519.379 543.667,524.332 524.11,524.503 503.785,524.674 484.314,518.354 468.685,511.949 466.892,512.12 460.743,514.853 459.035,516.048 455.961,518.098 456.217,520.66 456.388,522.539 456.559,532.872 457.156,542.864 460.06,546.28 463.22,549.952 478.506,557.894 491.146,564.299 504.041,569.765 512.496,573.352 525.22,589.322 531.711,597.435 539.055,606.914 540.592,608.11 539.055,609.818 537.859,611.099 538.03,611.099 L550.157,607.341 Q565.614,602.473 576.119,586.162 585.086,572.156 588.587,553.112 591.405,537.996 586.11,526.296 M591.576,170.947 L588.502,169.666 Q588.457,169.774 588.416,169.837 587.49,172.201 586.879,174.363 585.256,180.17 582.694,189.052 582.636,189.207 582.524,189.308 580.184,195.525 575.35,198.275 565.187,204.082 559.551,206.815 L563.394,215.355 Q562.967,221.589 564.931,263.35 565.003,264.89 565.017,266.339 566.61,298.97 566.81,308.868 566.808,308.933 566.81,308.953 566.839,311.242 566.81,312.284 566.468,325.692 568.945,346.871 569.287,349.86 573.984,347.383 578.681,344.821 578.339,343.028 578.168,341.747 580.132,342.43 581.755,343.028 582.182,343.455 582.267,343.54 588.587,321.678 L593.711,330.218 Q593.796,330.303 596.7,311.43 L601.824,313.565 Q601.923,313.666 601.226,304.598 601.264,304.578 601.226,304.513 600.253,290.572 597.469,255.151 595.779,233.508 594.48,219.283 592.871,200.27 592.003,194.517 591.76,192.84 591.576,192.297 591.76,192.84 592.003,194.517 592.871,200.27 594.48,219.283 L595.846,219.198 Q597.554,219.027 602.593,213.989 607.033,209.719 610.364,211.085 613.353,212.366 631.287,238.328 651.954,264.631 668.863,268.73 653.662,269.242 631.116,286.579 624.113,291.959 617.196,298.449 L616.171,299.389 Q617.387,312.369 621.381,356.777 L622.32,356.692 Q626.761,354.215 657.846,329.791 687.822,306.135 697.472,297.766 704.646,291.532 710.538,281.711 713.527,276.672 717.114,270.438 718.822,268.474 722.494,265.741 725.483,263.008 725.654,258.482 725.825,254.041 693.373,233.118 657.419,210.743 650.502,205.534 630.177,190.247 620.697,184.099 609.404,176.694 601.739,173.424 595.369,170.713 591.576,170.947 M530.857,165.738 Q533.419,165.311 535.81,164.884 539.653,164.884 539.397,169.581 546.741,168.727 549.645,169.581 552.719,170.52 552.634,173.851 L557.416,176.071 Q560.774,169.543 568.945,164.115 573.642,160.955 577.656,159.93 577.719,159.917 577.741,159.845 L576.631,153.013 Q577.912,152.928 575.435,149.939 570.909,144.729 567.237,140.203 562.284,134.054 545.033,128.503 529.917,123.635 521.548,123.55 494.732,123.294 476.286,130.809 464.842,135.506 454.594,149.682 452.63,152.369 451.008,154.806 446.428,162.065 445.03,167.531 L445.03,169.581 Q445.2,169.581 445.969,169.837 446.823,170.008 447.421,170.008 450.495,170.008 453.57,167.531 457.071,164.627 460.402,164.03 L460.402,166.165 464.245,166.165 Q466.807,165.652 471.674,164.2 475.432,163.005 476.201,163.176 L476.201,165.311 Q477.055,165.311 480.471,165.738 486.107,165.738 491.573,162.749 L495.843,162.749 495.843,164.457 502.675,164.457 Q513.947,161.041 514.631,161.041 515.741,161.041 516.766,161.809 517.961,162.663 520.182,162.749 520.182,164.884 519.755,165.738 L530.857,165.738Z" test="Avatar Man" stroke-width="1.708"/>
      <path id="Layer2_0_1_STROKES" stroke="#009EFF" stroke-width="1.708" stroke-linejoin="round" stroke-linecap="round" fill="none" d="M552.634,173.851 Q552.719,170.52 549.645,169.581 546.741,168.727 539.397,169.581 539.653,164.884 535.81,164.884 533.419,165.311 530.857,165.738 L519.755,165.738 Q520.182,164.884 520.182,162.749 517.961,162.663 516.766,161.809 515.741,161.041 514.631,161.041 513.947,161.041 502.675,164.457 L495.843,164.457 495.843,162.749 491.573,162.749 Q486.107,165.738 480.471,165.738 477.055,165.311 476.201,165.311 L476.201,163.176 Q475.432,163.005 471.674,164.2 466.807,165.652 464.245,166.165 L460.402,166.165 460.402,164.03 Q457.071,164.627 453.57,167.531 450.495,170.008 447.421,170.008 446.823,170.008 445.969,169.837 445.2,169.581 445.03,169.581 L445.03,167.531 Q446.428,162.065 451.05,154.849 452.63,152.369 454.594,149.682 464.842,135.506 476.286,130.809 494.732,123.294 521.548,123.55 529.917,123.635 545.033,128.503 562.284,134.054 567.237,140.203 570.909,144.729 575.435,149.939 577.912,152.928 576.631,153.013 M577.784,159.888 Q577.847,159.895 577.912,159.888 580.494,159.317 586.025,158.991 590.039,158.82 592.515,157.198 593.882,156.344 595.846,154.721 596.615,154.294 593.455,159.76 592.003,162.236 590.807,164.627 590.076,166.064 589.484,167.446 589.342,167.731 589.228,168.001 588.978,168.534 588.758,169.068 588.625,169.369 588.502,169.666 M591.576,170.947 Q595.369,170.713 601.781,173.466 609.404,176.694 620.697,184.099 630.177,190.247 650.502,205.534 657.419,210.743 693.373,233.118 725.825,254.041 725.654,258.482 725.483,263.008 722.494,265.741 718.822,268.474 717.114,270.438 713.527,276.672 710.538,281.711 704.646,291.532 697.472,297.766 687.822,306.135 657.846,329.791 626.761,354.215 622.32,356.692 621.878,356.981 621.466,357.247 616.496,360.472 614.292,361.731 610.364,364.036 606.948,363.524 M590.807,164.627 Q589.477,166.086 588.374,166.933 587.258,167.746 586.367,167.958 583.121,168.214 579.193,168.812 574.154,169.581 571.422,171.459 567.749,174.619 564.248,177.352 559.893,180.768 557.16,182.391 L555.281,183.33 Q555.693,179.562 557.459,176.114 M551.78,173.851 L552.634,173.851 M557.459,176.114 Q560.774,169.543 568.945,164.115 573.642,160.955 577.656,159.93 577.719,159.917 577.784,159.888 M588.502,169.666 Q588.457,169.774 588.416,169.88 587.49,172.201 586.879,174.363 585.256,180.17 582.694,189.052 582.636,189.207 582.566,189.351 580.184,195.525 575.35,198.275 565.187,204.082 559.551,206.815 M563.394,215.355 Q562.967,221.589 564.931,263.35 565.003,264.89 565.059,266.382 566.61,298.97 566.81,308.868 566.808,308.933 566.81,308.996 566.839,311.242 566.81,312.284 566.468,325.692 568.945,346.871 569.287,349.86 573.984,347.383 578.681,344.821 578.339,343.028 578.168,341.747 580.132,342.43 581.755,343.028 582.182,343.455 582.267,343.54 588.587,321.678 L593.711,330.218 Q593.796,330.303 596.7,311.43 L601.824,313.565 Q601.923,313.666 601.269,304.641 601.264,304.578 601.269,304.513 600.253,290.572 597.469,255.151 595.779,233.508 594.522,219.283 592.871,200.27 592.003,194.517 591.76,192.84 591.576,192.297 M616.171,299.431 L617.196,298.449 Q624.113,291.959 631.116,286.579 653.662,269.242 668.863,268.73 651.954,264.631 631.287,238.328 613.353,212.366 610.364,211.085 607.033,209.719 602.593,213.989 597.554,219.027 595.846,219.198 M499.771,212.366 Q500.767,212.527 502.845,212.622 505.216,212.708 508.994,212.708 515.655,212.622 518.559,212.366 523.939,211.854 524.622,211.683 528.038,210.743 528.38,208.096 M549.73,280.686 Q550.584,286.237 552.548,294.265 554.939,303.915 556.989,308.868 M454.509,278.124 Q454.509,278.209 454.851,286.92 455.107,293.154 457.498,297.339 458.267,298.681 459.42,299.986 462.917,303.893 469.966,307.416 479.702,312.369 489.096,312.711 L492.555,312.967 492.683,312.967 Q501.735,313.309 504.468,313.138 509.165,312.796 514.716,311.003 518.815,309.722 529.832,299.816 537.661,292.703 545.972,284.017 546.08,283.912 546.186,283.803 546.251,283.742 546.314,283.675 546.401,283.593 546.485,283.504 547.797,282.112 549.132,280.686 549.219,280.594 549.303,280.515 549.337,280.466 549.388,280.43 549.402,280.38 549.431,280.344 559.486,269.623 560.832,266.595 M492.512,313.565 Q491.743,317.237 490.292,325.606 488.84,332.865 486.534,336.623 M611.645,303.744 L616.171,299.431 M602.251,371.637 Q602.166,371.808 593.54,394.268 587.391,410.238 585.171,419.461 582.438,430.648 580.047,463.954 577.656,496.406 578.766,503.58 M529.576,415.533 Q530.088,417.411 531.796,417.924 532.308,418.095 533.675,418.095 535.895,418.095 536.749,417.07 537.091,416.728 538.457,413.568 M495.416,403.15 Q495.245,418.692 496.355,421.084 498.148,425.354 508.226,425.354 513.093,425.354 513.52,425.268 514.033,425.183 515.912,424.073 M496.697,455.671 Q495.843,458.233 495.843,461.051 495.843,465.748 499.6,466.004 502.077,466.089 509.934,465.919 M493.708,491.112 Q498.063,494.101 500.881,494.784 502.931,495.211 506.518,494.528 M537.347,611.611 Q530.942,614.6 513.777,617.845 496.44,621.09 477.994,622.713 462.024,624.165 424.448,623.396 396.095,622.884 379.784,621.859 367.23,621.09 341.781,618.443 335.461,617.76 330.764,618.785 327.434,619.553 326.409,618.87 M449.385,153.867 Q446.14,151.903 442.297,149.853 434.611,145.839 432.305,146.181 429.828,146.523 431.878,158.735 433.586,169.154 435.294,173.509 M439.564,185.038 Q440.247,187.856 442.041,193.493 443.065,198.019 440.418,199.983 437.157,202.413 434.056,204.68 L434.013,204.723 Q387.417,239.322 381.492,241.402 376.283,242.939 375.002,243.366 373.208,244.049 372.952,245.672 372.525,249.003 372.354,260.446 372.098,273.598 372.952,276.416 375.856,288.03 398.23,321.08 420.178,353.447 433.159,366.086 M441.272,214.501 Q443.919,215.867 449.214,216.551 449.429,216.583 449.641,216.593 454.639,217.309 459.633,217.063 462.793,216.892 470.137,215.697 476.115,214.672 477.994,214.928 M440.845,236.705 Q439.82,238.413 428.804,249.43 418.812,259.421 416.079,261.898 M461.683,256.689 Q465.526,256.689 469.796,255.835 L486.449,255.835 Q481.325,261.3 478.421,264.204 473.041,269.499 471.76,269.499 469.454,269.499 466.038,264.716 462.537,259.251 461.256,257.97 M406.685,257.201 Q408.15,260.742 411.297,265.229 411.331,265.278 411.382,265.314 419.211,276.542 437.429,293.667 445.892,301.614 452.118,307.672 466.525,321.647 469.027,325.521 M440.418,389.998 Q439.82,403.577 442.553,410.067 444.261,413.995 449.47,418.436 454.851,422.792 459.633,424.158 M454.936,431.844 Q455.021,434.491 454.594,445.423 454.424,455.671 455.79,458.318 457.413,461.478 461.426,464.125 465.355,466.687 467.746,466.431 M460.914,469.847 Q460,472.665 460,477.021 461.17,480.266 462.622,482.23 462.793,482.486 467.404,485.646 470.479,487.781 470.308,491.624 470.137,494.528 468.344,501.701 466.807,507.679 467.319,509.558 M446.396,521.941 Q426.412,518.269 402.244,514.511 353.993,507.081 333.753,507.081 320.26,507.081 304.888,504.263 292.761,502.043 290.199,502.811 285.759,504.178 281.574,511.181 277.389,518.269 277.731,524.076 277.987,528.004 279.354,538.423 280.464,547.732 279.439,551.404 M445.969,546.707 Q438.112,547.988 401.903,548.757 362.619,549.611 356.299,550.123 349.296,550.721 327.007,554.308 306.767,557.553 298.654,557.809 289.004,558.151 280.464,556.955 276.023,556.357 269.618,554.82 266.287,554.051 262.871,556.357 261.078,557.638 256.808,562.079 251.94,567.118 256.381,577.878 257.235,580.013 255.783,592.225 254.161,604.523 255.1,606.914 L258.089,614.173 Q261.42,623.311 262.786,632.961 M322.993,606.914 Q324.189,610.757 326.409,621.774 328.8,633.559 328.544,635.95" test="Avatar Man"/>
      <path id="Layer2_0_2_STROKES" stroke="#FF0" stroke-width="1.708" stroke-linejoin="round" stroke-linecap="round" fill="none" d="M502.675,215.697 Q501.821,220.479 503.529,223.98 505.322,227.653 508.653,227.653 510.019,227.653 511.898,226.628 514.033,225.432 514.631,223.81 M449.3,219.54 Q448.446,225.518 448.446,225.945 448.446,227.682 449.727,229.531 450.408,230.498 451.435,231.496 454.594,234.485 457.84,234.485 459.548,234.485 460.658,232.777 461.341,231.837 462.537,229.788" test="Avatar Man"/>
      <path id="Layer2_0_3_STROKES" stroke="#FFF" stroke-width="1.708" stroke-linejoin="round" stroke-linecap="round" fill="none" d="M532.565,262.24 Q538.286,264.545 538.543,268.388 538.56,268.631 538.585,268.901 538.58,268.966 538.585,269.029 L538.585,269.157 Q538.618,271.379 538.116,275.477 M524.879,277.612 Q530.506,276.269 533.931,272.146 535.079,270.766 535.981,269.072" test="Avatar Man"/>
      <path id="Layer2_0_4_STROKES" stroke="#F90" stroke-width="1.708" stroke-linejoin="round" stroke-linecap="round" fill="none" d="M466.892,512.12 Q468.685,511.949 484.314,518.354 503.785,524.674 524.11,524.503 543.667,524.332 560.917,519.379 575.435,515.194 576.631,515.536 581.926,516.902 586.11,526.296 591.405,537.996 588.587,553.112 585.086,572.156 576.119,586.162 565.614,602.473 550.157,607.341 L538.03,611.099 Q537.859,611.099 539.055,609.818 540.592,608.11 539.055,606.914 531.711,597.435 525.22,589.322 512.496,573.352 504.041,569.765 491.146,564.299 478.506,557.894 463.22,549.952 460.06,546.28 457.156,542.864 456.559,532.872 456.388,522.539 456.217,520.66 455.961,518.098 459.035,516.048 460.743,514.853 466.892,512.12Z" test="Avatar Man"/>
    </g>
    <g id="Avatar-Lady">
      <path fill="#000" stroke="none" d="M241.121,439.564 Q237.352,438.974 234.166,439.105 225.833,439.955 222.303,440.205 216.534,440.613 210.336,438.63 206.641,437.766 201.348,435.113 190.847,429.8 181.351,420.348 171.974,411.016 165.275,399.854 L163.54,401.015 Q163.567,407.503 160.84,422.753 158.818,434.346 158.984,442.96 159.011,444.564 159.117,446.066 159.337,449.165 161.087,464.098 162.612,485.623 160.584,493.641 159.234,499.015 157.238,505.041 156.085,509.536 156.525,515.735 156.769,519.187 157.849,523.429 L157.855,523.515 Q158.849,527.439 160.537,532.065 163.988,541.685 164.335,546.593 164.518,549.176 163.748,551.74 163.326,553.111 162.769,553.799 L164.331,555.073 Q164.507,557.033 164.481,560.86 164.484,561.052 164.505,561.205 164.473,566.49 164.11,575.164 L164.116,575.25 Q163.977,578.72 163.779,582.716 L167.48,584.877 Q169.9,581.022 176.085,573.191 184.743,562.28 186.806,558.413 L187.175,557.522 Q190.609,553.471 193.394,545.14 196.598,534.183 198.877,527.272 199.374,525.736 199.789,524.265 200.01,523.742 200.147,523.201 200.232,523.088 200.214,522.937 200.289,522.873 200.288,522.759 L200.288,522.759 Q204.802,508.986 207.699,500.341 213.687,482.264 217.173,474.056 218.776,470.229 221.033,466.254 221.932,464.647 222.88,463.008 L223.114,462.646 223.194,462.553 Q225.645,458.747 228.616,454.814 235.497,445.673 240.837,441.661 L241.121,439.564 M209.471,287.173 L207.977,274.645 207.547,274.676 Q197.904,275.359 192.264,276.364 180.904,278.467 172.052,282.988 163.544,287.485 155.816,294.436 152.889,297.037 150.057,299.863 150.058,299.904 149.977,299.955 149.779,300.187 149.491,300.422 145.307,304.851 141.417,309.82 134.746,318.254 132.256,327.083 129.76,335.827 129.496,345.537 L129.292,348.753 Q132.04,348.927 135.38,349.187 140.865,349.664 148.679,353.697 149.083,353.926 154.279,357.021 154.329,357.035 154.366,357.015 156.128,358.12 158.435,359.495 156.128,358.12 154.366,357.015 154.329,357.035 154.279,357.021 149.083,353.926 148.679,353.697 140.865,349.664 135.38,349.187 132.04,348.927 129.292,348.753 L127.348,360.4 Q129.128,360.667 131.025,361.005 145.389,363.448 150.881,362.8 145.389,363.448 131.025,361.005 129.128,360.667 127.348,360.4 127.172,360.366 126.997,360.338 115.081,358.45 108.653,359.128 L104.321,363.935 Q106.629,366.032 111.783,370.329 118.64,376.004 122.916,378.453 123.745,378.877 124.44,379.21 130.355,382.08 137.064,381.518 141.966,381.084 149.038,381.967 154.621,382.61 156.301,381.885 L161.829,382.965 160.355,390.251 165.171,399.602 Q165.255,399.745 165.275,399.854 171.974,411.016 181.351,420.348 190.847,429.8 201.348,435.113 206.641,437.766 210.336,438.63 216.534,440.613 222.303,440.205 225.833,439.955 234.166,439.105 237.352,438.974 241.121,439.564 L241.208,439.558 Q244.154,440.086 247.455,441.019 257.514,443.767 260.484,444.163 266.867,445.095 270.49,443.713 272.17,442.989 276.599,439.56 279.307,437.464 280.916,429.649 282.638,419.749 283.901,414.381 285.313,408.656 291.328,397.067 292.121,395.533 292.849,394.104 297.783,384.386 299.61,379.607 299.81,379.091 299.973,378.629 302.776,370.556 299.75,360.819 297.399,353.285 293.072,348.399 L286.785,340.278 Q286.255,340.675 285.537,340.972 280.142,342.998 279.992,337.211 L275.184,335.302 259.389,339.536 Q259.499,339.968 259.622,340.385 259.379,340.134 259.069,339.905 256.348,337.163 252.209,334.68 243.092,329.355 235.182,331.3 227.531,333.227 214.82,341.915 202.653,350.804 196.517,354.721 195.694,355.321 194.948,355.784 190.808,358.413 175.927,366.996 174.433,367.863 173.097,368.581 169.226,370.925 166.791,372.402 164.225,374.133 163.42,374.891 164.225,374.133 166.791,372.402 169.226,370.925 173.097,368.581 174.433,367.863 175.927,366.996 190.808,358.413 194.948,355.784 195.694,355.321 196.517,354.721 202.653,350.804 214.82,341.915 227.531,333.227 235.182,331.3 243.092,329.355 252.209,334.68 256.348,337.163 259.069,339.905 L259.389,339.536 Q259.329,339.326 259.272,339.112 258.328,335.735 257.542,331.793 255.77,322.659 256.805,318.952 257.631,315.951 264.65,312.425 270.906,309.126 270.342,307.263 268.776,302.268 260.712,294.705 L252.98,288.158 Q240.199,297.905 228.53,307.023 216.322,316.673 205.359,325.625 186.901,341.124 180.176,346.36 172.296,352.506 165.891,356.025 163.763,357.24 161.8,358.132 163.763,357.24 165.891,356.025 172.296,352.506 180.176,346.36 186.901,341.124 205.359,325.625 216.322,316.673 228.53,307.023 L222.44,299.234 Q221.592,298.256 216.49,293.425 210.928,288.195 209.471,287.173 M244.876,348.439 Q243.579,347.233 239.49,346.917 236.391,346.678 227.403,352.186 224.519,353.993 221.035,356.358 206.67,366.116 204.259,366.287 206.67,366.116 221.035,356.358 224.519,353.993 227.403,352.186 236.391,346.678 239.49,346.917 243.579,347.233 244.876,348.439 246.173,349.645 250.391,351.769 246.173,349.645 244.876,348.439 M240.36,362.864 Q242.348,360.386 242.238,358.837 242.208,358.406 239.903,356.406 242.208,358.406 242.238,358.837 242.348,360.386 240.36,362.864 238.219,365.611 236.066,365.764 229.781,366.209 229.463,361.732 229.415,361.043 229.483,360.779 229.704,360.244 230.923,357.908 229.704,360.244 229.483,360.779 229.415,361.043 229.463,361.732 229.781,366.209 236.066,365.764 238.219,365.611 240.36,362.864 M225.126,417.766 Q224.782,418.621 224.209,419.475 222.652,421.922 221.667,422.684 222.652,421.922 224.209,419.475 224.782,418.621 225.126,417.766 226.354,415.552 226.223,413.708 L225.733,411.666 226.223,413.708 Q226.354,415.552 225.126,417.766 M265.58,385.392 Q267.76,385.238 270.58,383.913 273.633,382.588 277.396,379.969 282.768,376.151 283.968,373.792 284.431,373.005 284.387,372.378 284.338,371.689 282.451,369.487 280.651,367.278 279.944,367.068 280.651,367.278 282.451,369.487 284.338,371.689 284.387,372.378 284.431,373.005 283.968,373.792 282.768,376.151 277.396,379.969 273.633,382.588 270.58,383.913 267.76,385.238 265.58,385.392 262.222,385.63 259.812,383.378 256.008,379.754 255.737,379.6 256.008,379.754 259.812,383.378 262.222,385.63 265.58,385.392 M285.503,388.134 Q285.454,387.446 284.342,386.4 285.454,387.446 285.503,388.134 285.583,389.254 285.219,390.231 284.856,391.209 284.05,392.045 282.351,393.723 279.854,393.9 278.907,393.967 276.872,393.332 274.923,392.691 273.657,391.916 274.923,392.691 276.872,393.332 278.907,393.967 279.854,393.9 282.351,393.723 284.05,392.045 284.856,391.209 285.219,390.231 285.583,389.254 285.503,388.134 M246.402,421.277 Q250.172,420.751 254.029,420.218 250.172,420.751 246.402,421.277 236.094,423.565 226.934,418.849 236.094,423.565 246.402,421.277 M183.071,317.599 Q178.787,313.316 172.331,311.351 165.961,309.379 160.505,310.545 165.961,309.379 172.331,311.351 178.787,313.316 183.071,317.599Z" test="Avatar Lady" stroke-width="1.726"/>
      <path id="Layer1_0_1_STROKES" stroke="#009EFF" stroke-width="1.726" stroke-linejoin="round" stroke-linecap="round" fill="none" d="M275.184,335.302 Q273.864,331.329 276.94,329.553 279.923,327.698 282.784,326.543 M251.033,283.882 Q251.236,283.089 251.206,282.659 251.145,281.798 247.913,276.489 244.097,270.269 243.495,269.1 241.284,264.757 236.641,263.961 231.875,263.866 230.185,263.207 230.621,264.474 230.919,268.693 L231.186,274.905 Q230.934,275.009 228.991,274.454 226.876,273.912 225.929,273.979 222.571,274.217 220.751,274.173 216.409,273.961 211.587,274.303 L207.977,274.645 M209.471,287.173 Q210.928,288.195 216.49,293.425 221.592,298.256 222.44,299.234 M230.185,263.207 Q230.175,263.121 230.092,263.127 L230.074,262.869 Q230.171,263.033 230.185,263.207Z M207.547,274.676 Q207.535,274.504 207.621,274.497 207.798,274.653 207.977,274.645 L207.547,274.676 Q197.904,275.359 192.264,276.364 180.904,278.467 172.052,282.988 163.544,287.485 155.816,294.436 152.889,297.037 150.1,299.86 150.058,299.904 150.02,299.952 149.779,300.187 149.534,300.419 145.307,304.851 141.417,309.82 134.746,318.254 132.256,327.083 129.76,335.827 129.496,345.537 M129.295,348.796 Q132.04,348.927 135.38,349.187 140.865,349.664 148.679,353.697 149.083,353.926 154.279,357.021 154.329,357.035 154.369,357.058 156.128,358.12 158.435,359.495 M250.391,351.769 Q246.173,349.645 244.876,348.439 243.579,347.233 239.49,346.917 236.391,346.678 227.406,352.229 224.519,353.993 221.035,356.358 206.67,366.116 204.259,366.287 M255.737,379.6 Q256.008,379.754 259.812,383.378 262.222,385.63 265.58,385.392 267.76,385.238 270.626,383.953 273.633,382.588 277.396,379.969 282.768,376.151 284.011,373.789 284.431,373.005 284.387,372.378 284.338,371.689 282.451,369.487 280.651,367.278 279.944,367.068 M293.072,348.399 Q297.399,353.285 299.75,360.819 302.776,370.556 299.973,378.629 299.81,379.091 299.61,379.607 297.783,384.386 292.849,394.104 292.121,395.533 291.328,397.067 285.313,408.656 283.901,414.381 282.638,419.749 280.916,429.649 279.307,437.464 276.599,439.56 272.17,442.989 270.49,443.713 266.867,445.095 260.484,444.163 257.514,443.767 247.455,441.019 244.154,440.086 241.211,439.601 L241.125,439.607 M240.837,441.661 Q235.497,445.673 228.616,454.814 225.645,458.747 223.237,462.55 L223.157,462.643 222.923,463.005 Q221.932,464.647 221.033,466.254 218.776,470.229 217.173,474.056 213.687,482.264 207.699,500.341 204.802,508.986 200.331,522.755 L200.291,522.802 Q200.289,522.873 200.257,522.934 200.232,523.088 200.193,523.241 200.01,523.742 199.832,524.262 199.374,525.736 198.877,527.272 196.598,534.183 193.394,545.14 190.609,553.471 187.175,557.522 M186.806,558.413 Q184.743,562.28 176.085,573.191 169.9,581.022 167.483,584.92 166.72,586.183 166.335,587.035 M273.657,391.916 Q274.923,392.691 276.872,393.332 278.907,393.967 279.854,393.9 282.351,393.723 284.05,392.045 284.856,391.209 285.219,390.231 285.583,389.254 285.503,388.134 285.454,387.446 284.342,386.4 M241.125,439.607 Q237.352,438.974 234.166,439.105 225.833,439.955 222.303,440.205 216.534,440.613 210.336,438.63 206.641,437.766 201.348,435.113 190.847,429.8 181.351,420.348 171.974,411.016 165.321,399.894 M163.54,401.015 Q163.567,407.503 160.84,422.753 158.818,434.346 158.984,442.96 159.011,444.564 159.117,446.066 159.337,449.165 161.087,464.098 162.612,485.623 160.584,493.641 159.234,499.015 157.238,505.041 156.085,509.536 156.525,515.735 156.769,519.187 157.852,523.472 L157.855,523.515 Q158.849,527.439 160.537,532.065 163.988,541.685 164.335,546.593 164.518,549.176 163.748,551.74 163.326,553.111 162.772,553.842 M164.331,555.073 Q164.507,557.033 164.484,560.903 164.484,561.052 164.505,561.205 164.473,566.49 164.113,575.207 L164.116,575.25 Q163.977,578.72 163.779,582.716 M218.1,476.154 L217.931,481.098 Q217.992,481.959 218.839,485.36 219.686,488.762 219.747,489.623 219.808,490.484 220.973,495.939 222.052,501.401 222.113,502.262 222.626,509.494 214.269,540.546 205.826,571.603 206.283,578.06 206.728,584.346 217.255,598.57 225.483,609.669 235.673,620.369 243.054,628.067 261.482,664.662 261.562,665.782 262.269,665.991 262.884,666.121 262.927,665.512 M177.559,618.429 Q179.797,619.482 191.765,629.624 204.574,640.658 204.751,643.155 204.971,646.254 227.261,660.424 249.552,674.594 249.796,678.037 249.87,679.071 250.208,678.96 250.546,678.85 250.558,679.022 L251.204,678.37 M183.071,317.599 Q178.787,313.316 172.331,311.351 165.961,309.379 160.505,310.545 M129.295,348.796 Q129.209,348.813 129.122,348.809 129.034,348.805 128.95,348.821 124.778,348.606 122.023,348.749 114.606,349.102 109.408,351.46 102.955,354.427 102.217,354.998 100.986,355.951 101.243,358.355 101.598,360.926 103.018,362.643 103.409,363.062 104.134,363.732 104.226,363.809 104.318,363.892 L104.364,363.932 M108.653,359.128 Q115.081,358.45 126.997,360.338 127.172,360.366 127.348,360.4 M104.364,363.932 Q106.629,366.032 111.783,370.329 118.64,376.004 122.959,378.45 123.745,378.877 124.44,379.21 130.355,382.08 137.064,381.518 141.966,381.084 149.038,381.967 154.621,382.61 156.301,381.885 M160.355,390.251 L165.171,399.602 Q165.255,399.745 165.321,399.894 M119.536,384.49 Q116.92,387.877 115.711,406.221 115.177,414.566 115.059,416.565 114.964,420.119 115.245,424.08 115.587,428.901 118.329,439.523 120.986,450.152 121.413,456.179 121.458,456.806 121.505,457.47 121.639,460.341 121.526,463.872 121.353,469.661 120.525,477.226 119.945,482.53 119.045,488.71 115.903,510.306 117.147,527.87 117.348,530.711 119.292,539.833 121.2,548.437 121.144,550.085 M127.348,360.4 Q129.128,360.667 131.025,361.005 145.389,363.448 150.881,362.8 M141.542,401.968 L141.867,404.108 Q142.007,406.089 141.094,411.518 140.186,417.034 140.331,421.524 140.427,426.536 141.025,434.974 141.092,435.921 141.65,438.91 142.214,441.985 142.293,443.104 142.297,443.166 142.302,443.233 142.451,445.549 142.166,449.863 141.923,454.985 141.24,456.332 140.532,457.334 139.245,459.934 138.331,461.686 137.894,462.842 137.456,463.998 137.496,464.558 M142.629,500.365 Q142.678,501.054 142.145,508.187 141.526,515.326 141.599,516.36 141.733,518.254 143.655,523.396 144.581,525.99 145.07,527.493 145.521,528.978 145.552,529.406 145.759,532.333 143.647,537.934 141.749,542.914 140.156,544.844 M121.505,457.47 Q116.64,458.421 111.354,464.42 106.451,469.924 105.412,475.83 105.114,477.553 105.14,479.311 105.186,484.846 105.042,542.659 105.064,599.163 105.405,605.196 105.692,609.243 105.584,616.26 105.577,617.29 105.592,618.206 L105.598,618.292 Q105.718,621.235 106.232,622.964 106.686,624.489 145.966,674.491 184.951,723.994 185.282,727.432 M103.322,475.632 Q95.355,480.437 87.34,484.553 75.898,490.382 69.384,491.276 55.799,492.498 39.932,493.276 8.279,494.74 -3.042,492.513 M162.772,553.842 Q162.258,554.528 161.613,554.573 M163.779,582.716 L163.783,582.759 Q163.707,584.746 163.599,586.882 163.019,598.294 162.07,613.556 161.89,617.117 172.305,633.426 185.14,653.37 187.996,659.485 207.491,701.37 209.282,720.54 M9.124,595.836 Q15.919,596.48 32.964,601.329 51.514,606.678 61.726,611.579 75.608,618.21 79.23,619.252 86.744,621.489 96.228,619.778 100.072,619.073 103.301,618.239" test="Avatar Lady"/>
      <path id="Layer1_0_2_STROKES" stroke="#FFBC00" stroke-width="1.726" stroke-linejoin="round" stroke-linecap="round" fill="none" d="M228.573,307.02 Q240.199,297.905 252.98,288.158 L260.712,294.705 Q268.776,302.268 270.342,307.263 270.906,309.126 264.65,312.425 257.631,315.951 256.805,318.952 255.77,322.659 257.542,331.793 258.328,335.735 259.272,339.112 259.329,339.326 259.389,339.536 M161.8,358.132 Q163.763,357.24 165.894,356.068 172.296,352.506 180.176,346.36 186.901,341.124 205.359,325.625 216.322,316.673 228.573,307.02 M259.112,339.902 Q259.379,340.134 259.622,340.385 259.499,339.968 259.389,339.536 M259.112,339.902 Q256.348,337.163 252.209,334.68 243.092,329.355 235.182,331.3 227.531,333.227 214.82,341.915 202.653,350.804 196.563,354.761 195.694,355.321 194.948,355.784 190.808,358.413 175.927,366.996 174.433,367.863 173.1,368.624 169.226,370.925 166.837,372.442 164.225,374.133 163.42,374.891" test="Avatar Lady"/>
      <path id="Layer1_0_3_STROKES" stroke="#FF0" stroke-width="1.726" stroke-linejoin="round" stroke-linecap="round" fill="none" d="M279.992,337.211 Q280.142,342.998 285.537,340.972 286.255,340.675 286.828,340.275 288.833,338.817 288.903,335.974 288.954,333.029 286.058,332.455 M230.923,357.908 Q229.704,360.244 229.483,360.779 229.415,361.043 229.463,361.732 229.781,366.209 236.066,365.764 238.219,365.611 240.36,362.864 242.348,360.386 242.238,358.837 242.208,358.406 239.903,356.406" test="Avatar Lady"/>
      <path id="Layer1_0_4_STROKES" stroke="#FFF" stroke-width="1.726" stroke-linejoin="round" stroke-linecap="round" fill="none" d="M225.733,411.666 L226.223,413.708 Q226.354,415.552 225.172,417.806 224.782,418.621 224.209,419.475 222.652,421.922 221.667,422.684 M226.934,418.849 Q236.094,423.565 246.402,421.277 250.172,420.751 254.029,420.218" test="Avatar Lady"/>
    </g>
  </g>
</svg>