<?xml version="1.0" encoding="utf-8"?>
<svg id="EdithAnim13" image-rendering="inherit" baseProfile="basic" version="1.1" x="0px" y="0px" width="800" height="600" xmlns="http://www.w3.org/2000/svg" xmlns:xlink="http://www.w3.org/1999/xlink">
  <g id="22_Avatarf115r1" overflow="visible">
    <g id="Avatar-Manf0r1">
      <g id="Tailf0r1">
        <path id="Layer3_0_1_STROKES" stroke="#009EFF" stroke-width="2.356" stroke-linejoin="round" stroke-linecap="round" fill="none" d="M621.316,615.875 Q620.132,598.569 619.482,581.252 618.901,564.462 613.452,548.601 607.462,531.326 590.76,523.463 570.463,513.989 567.517,535.159 567.087,538.244 569.102,540.951 573.868,547.457 580.646,551.623 587.734,549.038 593.062,553.927 599.476,559.863 602.297,568.76 608.89,589.758 614.139,610.93 615.623,616.854 614.623,622.863" test="Tail_2.3242325232423263e+312.3242325232423263e+31_2.3242325232423263e+312.3242325232423263e+31_2.3242325232423263e+312.3242325232423263e+31_2.3242325232423263e+312.3242325232423263e+31_2.3242325232423263e+312.3242325232423263e+31_2.3242325232423263e+312.3242325232423263e+31_2.3242325232423263e+312.3242325232423263e+31_2.3242325232423263e+312.3242325232423263e+31_2.3242325232423263e+312.3242325232423263e+31_2.3242325232423263e+312.3242325232423263e+31_2.3242325232423263e+312.3242325232423263e+31_2.3242325232423263e+312.3242325232423263e+31_2.3242325232423263e+312.3242325232423263e+31_2.3242325232423263e+312.3242325232423263e+31_2.3242325232423263e+312.3242325232423263e+31_2.3242325232423263e+312.3242325232423263e+31_2323"/>
      </g>
      <path fill="#000" stroke="none" d="M582.092,527.875 Q577.895,518.454 572.585,517.083 571.386,516.741 556.825,520.938 539.524,525.905 519.91,526.077 499.525,526.248 479.997,519.91 464.323,513.486 462.525,513.658 456.358,516.398 454.645,517.597 451.561,519.653 451.818,522.222 451.99,524.107 452.161,534.47 452.76,544.492 455.672,547.918 458.842,551.6 474.173,559.566 486.849,565.99 499.782,571.471 508.262,575.069 521.023,591.085 527.533,599.222 534.899,608.729 536.44,609.928 534.899,611.641 533.7,612.926 533.871,612.926 L546.033,609.157 Q561.536,604.275 572.071,587.916 581.064,573.869 584.576,554.77 587.402,539.609 582.092,527.875 M587.574,171.486 L584.49,170.201 Q584.446,170.309 584.404,170.372 583.476,172.743 582.863,174.912 581.235,180.736 578.666,189.644 578.608,189.799 578.495,189.9 576.148,196.136 571.3,198.894 561.108,204.718 555.455,207.459 L559.309,216.024 Q558.881,222.276 560.851,264.159 560.923,265.704 560.936,267.157 562.535,299.884 562.735,309.811 562.733,309.876 562.735,309.896 562.764,312.192 562.735,313.237 562.392,326.684 564.876,347.925 565.219,350.922 569.93,348.439 574.64,345.869 574.298,344.071 574.126,342.786 576.096,343.471 577.724,344.071 578.152,344.499 578.238,344.584 584.576,322.658 L589.715,331.223 Q589.8,331.309 592.713,312.38 L597.852,314.521 Q597.951,314.622 597.252,305.528 597.29,305.507 597.252,305.442 596.276,291.461 593.483,255.937 591.789,234.23 590.486,219.964 588.872,200.895 588.002,195.125 587.759,193.443 587.574,192.898 587.759,193.443 588.002,195.125 588.872,200.895 590.486,219.964 L591.856,219.878 Q593.569,219.707 598.622,214.653 603.076,210.371 606.417,211.741 609.414,213.026 627.401,239.064 648.128,265.444 665.087,269.555 649.841,270.069 627.229,287.456 620.206,292.852 613.269,299.361 L612.241,300.303 Q613.46,313.322 617.465,357.86 L618.408,357.775 Q622.861,355.291 654.038,330.795 684.101,307.07 693.78,298.676 700.974,292.424 706.884,282.574 709.882,277.52 713.479,271.268 715.192,269.298 718.875,266.557 721.873,263.816 722.044,259.277 722.215,254.823 689.668,233.839 653.61,211.399 646.672,206.174 626.287,190.843 616.78,184.676 605.454,177.25 597.766,173.97 591.378,171.251 587.574,171.486 M526.676,166.261 Q529.246,165.833 531.644,165.405 535.498,165.405 535.241,170.115 542.607,169.259 545.519,170.115 548.603,171.057 548.517,174.398 L553.314,176.625 Q556.681,170.078 564.876,164.634 569.587,161.465 573.613,160.437 573.676,160.423 573.698,160.351 L572.585,153.499 Q573.87,153.414 571.386,150.416 566.846,145.191 563.163,140.652 558.196,134.485 540.894,128.918 525.734,124.036 517.341,123.95 490.446,123.693 471.946,131.23 460.469,135.941 450.191,150.159 448.221,152.853 446.594,155.298 442.001,162.578 440.598,168.06 L440.598,170.115 Q440.769,170.115 441.54,170.372 442.397,170.544 442.996,170.544 446.08,170.544 449.163,168.06 452.675,165.148 456.015,164.548 L456.015,166.689 459.869,166.689 Q462.439,166.175 467.321,164.719 471.09,163.52 471.86,163.692 L471.86,165.833 Q472.717,165.833 476.143,166.261 481.796,166.261 487.277,163.263 L491.56,163.263 491.56,164.976 498.412,164.976 Q509.718,161.55 510.403,161.55 511.516,161.55 512.544,162.321 513.743,163.178 515.97,163.263 515.97,165.405 515.542,166.261 L526.676,166.261Z" test="Avatar Man" stroke-width="1.713"/>
      <path id="Layer2_0_1_STROKES" stroke="#009EFF" stroke-width="1.713" stroke-linejoin="round" stroke-linecap="round" fill="none" d="M548.517,174.398 Q548.603,171.057 545.519,170.115 542.607,169.259 535.241,170.115 535.498,165.405 531.644,165.405 529.246,165.833 526.676,166.261 L515.542,166.261 Q515.97,165.405 515.97,163.263 513.743,163.178 512.544,162.321 511.516,161.55 510.403,161.55 509.718,161.55 498.412,164.976 L491.56,164.976 491.56,163.263 487.277,163.263 Q481.796,166.261 476.143,166.261 472.717,165.833 471.86,165.833 L471.86,163.692 Q471.09,163.52 467.321,164.719 462.439,166.175 459.869,166.689 L456.015,166.689 456.015,164.548 Q452.675,165.148 449.163,168.06 446.08,170.544 442.996,170.544 442.397,170.544 441.54,170.372 440.769,170.115 440.598,170.115 L440.598,168.06 Q442.001,162.578 446.636,155.341 448.221,152.853 450.191,150.159 460.469,135.941 471.946,131.23 490.446,123.693 517.341,123.95 525.734,124.036 540.894,128.918 558.196,134.485 563.163,140.652 566.846,145.191 571.386,150.416 573.87,153.414 572.585,153.499 M573.741,160.394 Q573.804,160.401 573.87,160.394 576.46,159.822 582.006,159.495 586.032,159.323 588.516,157.696 589.886,156.84 591.856,155.212 592.627,154.784 589.458,160.266 588.002,162.749 586.803,165.148 586.069,166.588 585.475,167.974 585.333,168.26 585.218,168.531 584.968,169.065 584.747,169.601 584.613,169.903 584.49,170.201 M587.574,171.486 Q591.378,171.251 597.809,174.012 605.454,177.25 616.78,184.676 626.287,190.843 646.672,206.174 653.61,211.399 689.668,233.839 722.215,254.823 722.044,259.277 721.873,263.816 718.875,266.557 715.192,269.298 713.479,271.268 709.882,277.52 706.884,282.574 700.974,292.424 693.78,298.676 684.101,307.07 654.038,330.795 622.861,355.291 618.408,357.775 617.964,358.064 617.551,358.331 612.566,361.565 610.356,362.828 606.417,365.14 602.991,364.626 M586.803,165.148 Q585.468,166.611 584.362,167.46 583.243,168.276 582.349,168.488 579.094,168.745 575.154,169.344 570.101,170.115 567.36,172 563.677,175.169 560.166,177.909 555.797,181.335 553.057,182.963 L551.172,183.905 Q551.585,180.126 553.356,176.668 M547.661,174.398 L548.517,174.398 M553.356,176.668 Q556.681,170.078 564.876,164.634 569.587,161.465 573.613,160.437 573.676,160.423 573.741,160.394 M584.49,170.201 Q584.446,170.309 584.404,170.415 583.476,172.743 582.863,174.912 581.235,180.736 578.666,189.644 578.608,189.799 578.537,189.943 576.148,196.136 571.3,198.894 561.108,204.718 555.455,207.459 M559.309,216.024 Q558.881,222.276 560.851,264.159 560.923,265.704 560.979,267.2 562.535,299.884 562.735,309.811 562.733,309.876 562.735,309.939 562.764,312.192 562.735,313.237 562.392,326.684 564.876,347.925 565.219,350.922 569.93,348.439 574.64,345.869 574.298,344.071 574.126,342.786 576.096,343.471 577.724,344.071 578.152,344.499 578.238,344.584 584.576,322.658 L589.715,331.223 Q589.8,331.309 592.713,312.38 L597.852,314.521 Q597.951,314.622 597.295,305.571 597.29,305.507 597.295,305.442 596.276,291.461 593.483,255.937 591.789,234.23 590.528,219.964 588.872,200.895 588.002,195.125 587.759,193.443 587.574,192.898 M612.241,300.346 L613.269,299.361 Q620.206,292.852 627.229,287.456 649.841,270.069 665.087,269.555 648.128,265.444 627.401,239.064 609.414,213.026 606.417,211.741 603.076,210.371 598.622,214.653 593.569,219.707 591.856,219.878 M495.5,213.026 Q496.498,213.187 498.583,213.283 500.961,213.369 504.75,213.369 511.431,213.283 514.343,213.026 519.739,212.512 520.424,212.341 523.85,211.399 524.193,208.743 M545.605,281.546 Q546.462,287.113 548.431,295.164 550.83,304.843 552.885,309.811 M450.105,278.977 Q450.105,279.062 450.448,287.798 450.705,294.051 453.103,298.248 453.874,299.594 455.03,300.903 458.538,304.821 465.608,308.354 475.372,313.322 484.794,313.665 L488.262,313.922 488.391,313.922 Q497.47,314.264 500.21,314.093 504.921,313.75 510.489,311.952 514.6,310.667 525.649,300.732 533.501,293.599 541.836,284.886 541.944,284.782 542.051,284.672 542.116,284.611 542.179,284.544 542.266,284.462 542.35,284.372 543.666,282.976 545.005,281.546 545.093,281.453 545.177,281.375 545.211,281.325 545.262,281.289 545.276,281.239 545.305,281.203 555.39,270.451 556.74,267.414 M488.22,314.521 Q487.449,318.204 485.993,326.598 484.537,333.878 482.224,337.647 M607.701,304.672 L612.241,300.346 M598.28,372.763 Q598.194,372.935 589.543,395.46 583.377,411.477 581.15,420.727 578.409,431.947 576.011,465.351 573.613,497.898 574.726,505.093 M525.392,416.787 Q525.906,418.672 527.618,419.186 528.132,419.357 529.503,419.357 531.73,419.357 532.586,418.329 532.929,417.986 534.299,414.817 M491.132,404.368 Q490.96,419.956 492.074,422.355 493.872,426.637 503.979,426.637 508.861,426.637 509.289,426.551 509.803,426.466 511.688,425.352 M492.416,457.043 Q491.56,459.612 491.56,462.439 491.56,467.15 495.328,467.407 497.812,467.492 505.692,467.321 M489.419,492.588 Q493.787,495.585 496.613,496.271 498.669,496.699 502.266,496.014 M533.186,613.44 Q526.762,616.438 509.546,619.692 492.159,622.947 473.659,624.574 457.642,626.03 419.956,625.259 391.521,624.746 375.162,623.718 362.571,622.947 337.047,620.292 330.709,619.607 325.998,620.634 322.658,621.405 321.63,620.72 M444.966,154.356 Q441.712,152.386 437.857,150.33 430.149,146.305 427.836,146.647 425.352,146.99 427.408,159.238 429.121,169.687 430.834,174.055 M435.117,185.618 Q435.802,188.444 437.6,194.097 438.628,198.637 435.973,200.607 432.703,203.044 429.592,205.317 L429.549,205.36 Q382.817,240.061 376.874,242.147 371.65,243.689 370.365,244.117 368.566,244.802 368.309,246.429 367.881,249.77 367.71,261.247 367.453,274.437 368.309,277.263 371.222,288.912 393.662,322.058 415.674,354.52 428.693,367.196 M436.83,215.167 Q439.485,216.538 444.795,217.223 445.011,217.255 445.223,217.266 450.235,217.983 455.244,217.737 458.413,217.565 465.779,216.366 471.775,215.339 473.659,215.595 M436.401,237.436 Q435.373,239.149 424.325,250.198 414.304,260.219 411.563,262.703 M457.3,257.478 Q461.154,257.478 465.437,256.622 L482.138,256.622 Q476,262.103 474.087,265.016 468.691,270.326 467.407,270.326 465.094,270.326 461.668,265.529 458.156,260.048 456.872,258.763 M402.141,257.992 Q403.611,261.543 406.766,266.043 406.801,266.093 406.852,266.129 414.704,277.39 432.975,294.565 441.463,302.535 447.707,308.611 462.156,322.627 464.666,326.512 M435.973,391.178 Q435.373,404.796 438.114,411.306 439.827,415.246 445.052,419.699 450.448,424.068 455.244,425.438 M450.534,433.147 Q450.619,435.802 450.191,446.765 450.02,457.043 451.39,459.698 453.017,462.867 457.043,465.522 460.983,468.092 463.381,467.835 M456.529,471.261 Q456.615,474.087 456.615,478.455 456.786,481.71 458.242,483.68 458.413,483.937 463.038,487.106 466.122,489.247 465.951,493.102 465.779,496.014 463.981,503.208 462.439,509.204 462.953,511.088 M441.968,523.507 Q421.926,519.824 397.687,516.056 349.295,508.604 328.996,508.604 315.463,508.604 300.046,505.778 287.884,503.551 285.315,504.322 280.861,505.692 276.664,512.715 272.467,519.824 272.81,525.649 273.067,529.588 274.437,540.038 275.551,549.374 274.523,553.056 M441.54,548.346 Q433.66,549.631 397.345,550.401 357.946,551.258 351.608,551.772 344.584,552.371 322.23,555.969 301.931,559.223 293.794,559.48 284.116,559.823 275.551,558.624 271.097,558.024 264.673,556.483 261.333,555.712 257.907,558.024 256.108,559.309 251.825,563.763 246.943,568.816 251.397,579.608 252.254,581.749 250.798,593.997 249.17,606.331 250.112,608.729 L253.11,616.009 Q256.451,625.174 257.821,634.852 M318.204,608.729 Q319.403,612.583 321.63,623.632 324.028,635.452 323.771,637.85" test="Avatar Man"/>
      <path id="Layer2_0_2_STROKES" stroke="#FF0" stroke-width="1.713" stroke-linejoin="round" stroke-linecap="round" fill="none" d="M498.412,216.366 Q497.555,221.163 499.268,224.674 501.067,228.357 504.407,228.357 505.778,228.357 507.662,227.33 509.803,226.13 510.403,224.503 M444.881,220.221 Q444.024,226.216 444.024,226.644 444.024,228.386 445.309,230.242 445.992,231.211 447.022,232.212 450.191,235.209 453.446,235.209 455.159,235.209 456.272,233.496 456.957,232.554 458.156,230.499" test="Avatar Man"/>
      <path id="Layer2_0_3_STROKES" stroke="#FFF" stroke-width="1.713" stroke-linejoin="round" stroke-linecap="round" fill="none" d="M528.389,263.046 Q534.128,265.358 534.385,269.212 534.402,269.456 534.428,269.726 534.423,269.791 534.428,269.855 L534.428,269.983 Q534.46,272.212 533.957,276.321 M520.681,278.463 Q526.325,277.116 529.76,272.981 530.911,271.597 531.815,269.898" test="Avatar Man"/>
      <path id="Layer2_0_4_STROKES" stroke="#F90" stroke-width="1.713" stroke-linejoin="round" stroke-linecap="round" fill="none" d="M462.525,513.658 Q464.323,513.486 479.997,519.91 499.525,526.248 519.91,526.077 539.524,525.905 556.825,520.938 571.386,516.741 572.585,517.083 577.895,518.454 582.092,527.875 587.402,539.609 584.576,554.77 581.064,573.869 572.071,587.916 561.536,604.275 546.033,609.157 L533.871,612.926 Q533.7,612.926 534.899,611.641 536.44,609.928 534.899,608.729 527.533,599.222 521.023,591.085 508.262,575.069 499.782,571.471 486.849,565.99 474.173,559.566 458.842,551.6 455.672,547.918 452.76,544.492 452.161,534.47 451.99,524.107 451.818,522.222 451.561,519.653 454.645,517.597 456.358,516.398 462.525,513.658Z" test="Avatar Man"/>
    </g>
    <g id="Avatar-Lady">
      <path fill="#000" stroke="none" d="M239.555,444.688 Q235.776,444.078 232.58,444.194 224.216,445.006 220.674,445.24 214.885,445.621 208.678,443.601 204.975,442.717 199.678,440.03 189.17,434.649 179.69,425.121 170.329,415.714 163.664,404.485 L161.918,405.641 Q161.913,412.15 159.103,427.434 157.018,439.054 157.142,447.695 157.162,449.305 157.261,450.811 157.466,453.922 159.149,468.91 160.574,490.51 158.501,498.543 157.121,503.928 155.089,509.962 153.911,514.466 154.322,520.687 154.55,524.151 155.612,528.411 L155.618,528.498 Q156.596,532.439 158.267,537.087 161.682,546.754 162.007,551.679 162.178,554.271 161.392,556.84 160.962,558.213 160.4,558.901 L161.96,560.186 Q162.128,562.154 162.083,565.992 162.085,566.185 162.106,566.338 162.048,571.64 161.641,580.339 L161.647,580.426 Q161.491,583.905 161.273,587.913 L164.975,590.099 Q167.421,586.244 173.663,578.418 182.402,567.515 184.49,563.646 L184.865,562.754 Q188.33,558.707 191.163,550.363 194.431,539.387 196.751,532.466 197.257,530.928 197.681,529.454 197.905,528.931 198.044,528.389 198.13,528.275 198.113,528.124 198.189,528.06 198.188,527.945 L198.188,527.945 Q202.783,514.152 205.732,505.493 211.827,487.389 215.363,479.172 216.99,475.34 219.274,471.365 220.183,469.757 221.142,468.118 L221.378,467.755 221.459,467.663 Q223.936,463.856 226.936,459.925 233.883,450.79 239.26,446.79 L239.555,444.688 M208.546,291.665 L207.11,279.091 206.678,279.119 Q197.001,279.757 191.338,280.738 179.933,282.793 171.031,287.285 162.474,291.754 154.688,298.689 151.739,301.284 148.884,304.105 148.885,304.147 148.804,304.197 148.604,304.429 148.314,304.663 144.095,309.086 140.169,314.052 133.436,322.48 130.895,331.325 128.349,340.084 128.037,349.823 L127.816,353.048 Q130.572,353.236 133.921,353.513 139.421,354.018 147.24,358.102 147.644,358.333 152.842,361.463 152.891,361.477 152.928,361.458 154.691,362.575 156,363.966 154.691,362.575 152.928,361.458 152.891,361.477 152.842,361.463 147.644,358.333 147.24,358.102 139.421,354.018 133.921,353.513 130.572,353.236 127.816,353.048 L125.809,364.722 Q127.594,364.998 129.495,365.347 143.893,367.868 149.405,367.244 143.893,367.868 129.495,365.347 127.594,364.998 125.809,364.722 125.633,364.687 125.458,364.658 113.514,362.706 107.062,363.355 L102.693,368.156 Q104.998,370.27 110.147,374.606 116,380.333 121.275,382.81 122.105,383.24 122.801,383.577 128.72,386.484 135.454,385.953 140.373,385.542 147.462,386.463 153.06,387.135 154.748,386.416 L160.289,387.526 158.774,394.828 163.56,404.231 Q163.644,404.375 163.664,404.485 170.329,415.714 179.69,425.121 189.17,434.649 199.678,440.03 204.975,442.717 208.678,443.601 214.885,445.621 220.674,445.24 224.216,445.006 232.58,444.194 235.776,444.078 239.555,444.688 L239.641,444.682 Q242.595,445.227 245.901,446.179 255.979,448.985 258.956,449.396 265.355,450.362 268.996,448.994 270.684,448.275 275.144,444.857 277.87,442.768 279.523,434.936 281.298,425.013 282.592,419.634 284.036,413.899 290.126,402.303 290.929,400.767 291.666,399.337 296.663,389.613 298.518,384.828 298.722,384.311 298.888,383.849 301.739,375.764 298.75,365.982 296.429,358.412 292.112,353.49 L285.845,345.313 Q285.311,345.709 284.589,346.003 279.168,348.01 279.045,342.204 L274.232,340.265 258.366,344.436 Q258.475,344.869 258.596,345.288 258.354,345.035 258.044,344.804 255.327,342.04 251.187,339.529 242.068,334.143 234.124,336.056 226.439,337.951 213.646,346.605 201.398,355.462 195.224,359.362 194.395,359.959 193.645,360.42 189.479,363.038 174.509,371.575 173.005,372.438 171.662,373.151 167.767,375.484 165.318,376.954 162.735,378.678 161.924,379.434 162.735,378.678 165.318,376.954 167.767,375.484 171.662,373.151 173.005,372.438 174.509,371.575 189.479,363.038 193.645,360.42 194.395,359.959 195.224,359.362 201.398,355.462 213.646,346.605 226.439,337.951 234.124,336.056 242.068,334.143 251.187,339.529 255.327,342.04 258.044,344.804 L258.366,344.436 Q258.307,344.224 258.251,344.009 257.321,340.617 256.552,336.659 254.819,327.488 255.875,323.774 256.718,320.768 263.776,317.265 270.068,313.986 269.511,312.114 267.965,307.096 259.912,299.47 L252.187,292.864 Q239.319,302.58 227.569,311.67 215.275,321.291 204.235,330.218 185.643,345.676 178.872,350.895 170.937,357.022 164.495,360.521 162.354,361.73 160.381,362.615 162.354,361.73 164.495,360.521 170.937,357.022 178.872,350.895 185.643,345.676 204.235,330.218 215.275,321.291 227.569,311.67 L221.498,303.827 Q220.652,302.842 215.558,297.971 210.003,292.697 208.546,291.665 M243.765,353.296 Q242.47,352.079 238.369,351.742 235.261,351.488 226.218,356.97 223.317,358.768 219.811,361.124 205.353,370.842 202.933,371.002 205.353,370.842 219.811,361.124 223.317,358.768 226.218,356.97 235.261,351.488 238.369,351.742 242.47,352.079 243.765,353.296 245.06,354.512 249.281,356.663 245.06,354.512 243.765,353.296 M239.164,367.744 Q241.171,365.268 241.068,363.713 241.039,363.281 238.737,361.264 241.039,363.281 241.068,363.713 241.171,365.268 239.164,367.744 237.003,370.489 234.843,370.632 228.535,371.048 228.239,366.555 228.194,365.864 228.263,365.599 228.488,365.064 229.722,362.726 228.488,365.064 228.263,365.599 228.194,365.864 228.239,366.555 228.535,371.048 234.843,370.632 237.003,370.489 239.164,367.744 M223.616,422.744 Q223.266,423.6 222.687,424.454 221.113,426.901 220.122,427.66 221.113,426.901 222.687,424.454 223.266,423.6 223.616,422.744 224.858,420.529 224.736,418.678 L224.253,416.628 224.736,418.678 Q224.858,420.529 223.616,422.744 M264.353,390.466 Q266.541,390.321 269.377,389.006 272.445,387.691 276.234,385.083 281.641,381.279 282.856,378.919 283.325,378.131 283.283,377.502 283.238,376.811 281.356,374.592 279.56,372.368 278.852,372.154 279.56,372.368 281.356,374.592 283.238,376.811 283.283,377.502 283.325,378.131 282.856,378.919 281.641,381.279 276.234,385.083 272.445,387.691 269.377,389.006 266.541,390.321 264.353,390.466 260.984,390.688 258.578,388.417 254.779,384.763 254.508,384.607 254.779,384.763 258.578,388.417 260.984,390.688 264.353,390.466 M284.326,393.313 Q284.281,392.622 283.17,391.567 284.281,392.622 284.326,393.313 284.4,394.437 284.031,395.416 283.662,396.394 282.849,397.229 281.137,398.904 278.632,399.069 277.681,399.132 275.643,398.485 273.691,397.833 272.424,397.049 273.691,397.833 275.643,398.485 277.681,399.132 278.632,399.069 281.137,398.904 282.849,397.229 283.662,396.394 284.031,395.416 284.4,394.437 284.326,393.313 M244.941,426.37 Q248.726,425.86 252.597,425.344 248.726,425.86 244.941,426.37 234.59,428.615 225.423,423.84 234.59,428.615 244.941,426.37 M181.916,322.058 Q177.639,317.741 171.172,315.738 164.792,313.729 159.313,314.872 164.792,313.729 171.172,315.738 177.639,317.741 181.916,322.058Z" test="Avatar Lady" stroke-width="1.732"/>
      <path id="Layer1_0_1_STROKES" stroke="#009EFF" stroke-width="1.732" stroke-linejoin="round" stroke-linecap="round" fill="none" d="M274.232,340.265 Q272.927,336.273 276.021,334.507 279.023,332.66 281.898,331.516 M250.255,288.566 Q250.463,287.772 250.434,287.34 250.377,286.476 247.161,281.134 243.364,274.876 242.766,273.701 240.569,269.334 235.916,268.513 231.135,268.394 229.442,267.725 229.873,268.998 230.153,273.232 L230.39,279.464 Q230.137,279.567 228.19,279.001 226.071,278.447 225.121,278.51 221.751,278.732 219.925,278.679 215.571,278.446 210.733,278.765 L207.11,279.091 M208.546,291.665 Q210.003,292.697 215.558,297.971 220.652,302.842 221.498,303.827 M229.442,267.725 Q229.433,267.639 229.35,267.644 L229.333,267.385 Q229.429,267.55 229.442,267.725Z M206.678,279.119 Q206.666,278.946 206.753,278.941 206.929,279.097 207.11,279.091 L206.678,279.119 Q197.001,279.757 191.338,280.738 179.933,282.793 171.031,287.285 162.474,291.754 154.688,298.689 151.739,301.284 148.928,304.102 148.885,304.147 148.847,304.194 148.604,304.429 148.357,304.661 144.095,309.086 140.169,314.052 133.436,322.48 130.895,331.325 128.349,340.084 128.037,349.823 M127.819,353.092 Q130.572,353.236 133.921,353.513 139.421,354.018 147.24,358.102 147.644,358.333 152.842,361.463 152.891,361.477 152.931,361.501 154.691,362.575 156,363.966 M249.281,356.663 Q245.06,354.512 243.765,353.296 242.47,352.079 238.369,351.742 235.261,351.488 226.221,357.013 223.317,358.768 219.811,361.124 205.353,370.842 202.933,371.002 M254.508,384.607 Q254.779,384.763 258.578,388.417 260.984,390.688 264.353,390.466 266.541,390.321 269.423,389.047 272.445,387.691 276.234,385.083 281.641,381.279 282.899,378.916 283.325,378.131 283.283,377.502 283.238,376.811 281.356,374.592 279.56,372.368 278.852,372.154 M292.112,353.49 Q296.429,358.412 298.75,365.982 301.739,375.764 298.888,383.849 298.722,384.311 298.518,384.828 296.663,389.613 291.666,399.337 290.929,400.767 290.126,402.303 284.036,413.899 282.592,419.634 281.298,425.013 279.523,434.936 277.87,442.768 275.144,444.857 270.684,448.275 268.996,448.994 265.355,450.362 258.956,449.396 255.979,448.985 245.901,446.179 242.595,445.227 239.644,444.726 L239.558,444.731 M239.26,446.79 Q233.883,450.79 226.936,459.925 223.936,463.856 221.502,467.66 L221.422,467.752 221.185,468.115 Q220.183,469.757 219.274,471.365 216.99,475.34 215.363,479.172 211.827,487.389 205.732,505.493 202.783,514.152 198.232,527.942 L198.191,527.989 Q198.189,528.06 198.157,528.121 198.13,528.275 198.09,528.429 197.905,528.931 197.724,529.451 197.257,530.928 196.751,532.466 194.431,539.387 191.163,550.363 188.33,558.707 184.865,562.754 M184.49,563.646 Q182.402,567.515 173.663,578.418 167.421,586.244 164.978,590.142 164.206,591.406 163.816,592.258 M272.424,397.049 Q273.691,397.833 275.643,398.485 277.681,399.132 278.632,399.069 281.137,398.904 282.849,397.229 283.662,396.394 284.031,395.416 284.4,394.437 284.326,393.313 284.281,392.622 283.17,391.567 M239.558,444.731 Q235.776,444.078 232.58,444.194 224.216,445.006 220.674,445.24 214.885,445.621 208.678,443.601 204.975,442.717 199.678,440.03 189.17,434.649 179.69,425.121 170.329,415.714 163.71,404.525 M161.918,405.641 Q161.913,412.15 159.103,427.434 157.018,439.054 157.142,447.695 157.162,449.305 157.261,450.811 157.466,453.922 159.149,468.91 160.574,490.51 158.501,498.543 157.121,503.928 155.089,509.962 153.911,514.466 154.322,520.687 154.55,524.151 155.615,528.454 L155.618,528.498 Q156.596,532.439 158.267,537.087 161.682,546.754 162.007,551.679 162.178,554.271 161.392,556.84 160.962,558.213 160.403,558.944 M161.96,560.186 Q162.128,562.154 162.086,566.035 162.085,566.185 162.106,566.338 162.048,571.64 161.644,580.383 L161.647,580.426 Q161.491,583.905 161.273,587.913 M216.283,481.281 L216.09,486.24 Q216.147,487.104 216.98,490.52 217.812,493.936 217.869,494.8 217.926,495.664 219.069,501.142 220.125,506.626 220.182,507.49 220.66,514.748 212.126,545.856 203.505,576.97 203.933,583.45 204.349,589.757 214.839,604.078 223.039,615.251 233.209,626.035 240.576,633.793 258.884,670.593 258.958,671.716 259.666,671.929 260.282,672.062 260.329,671.452 M174.922,623.806 Q177.162,624.873 189.118,635.105 201.914,646.236 202.079,648.741 202.284,651.852 224.576,666.174 246.868,680.497 247.096,683.953 247.164,684.99 247.504,684.88 247.844,684.771 247.856,684.944 L248.507,684.294 M181.916,322.058 Q177.639,317.741 171.172,315.738 164.792,313.729 159.313,314.872 M127.819,353.092 Q127.733,353.108 127.646,353.103 127.557,353.098 127.473,353.114 123.289,352.878 120.524,353.009 113.082,353.326 107.857,355.667 101.369,358.611 100.626,359.181 99.387,360.13 99.633,362.544 99.976,365.125 101.392,366.853 101.783,367.275 102.506,367.951 102.598,368.029 102.69,368.113 L102.736,368.153 M107.062,363.355 Q113.514,362.706 125.458,364.658 125.633,364.687 125.809,364.722 M102.736,368.153 Q104.998,370.27 110.147,374.606 116,380.333 121.318,382.807 122.105,383.24 122.801,383.577 128.72,386.484 135.454,385.953 140.373,385.542 147.462,386.463 153.06,387.135 154.748,386.416 M158.774,394.828 L163.56,404.231 Q163.644,404.375 163.71,404.525 M117.856,388.85 Q115.215,392.235 113.912,410.63 113.336,418 113.208,421.003 113.096,424.568 113.359,428.543 113.678,433.381 116.378,444.05 118.991,454.725 119.39,460.773 119.431,461.402 119.475,462.069 119.596,464.949 119.465,468.491 119.263,474.297 118.396,481.881 117.789,487.199 116.856,493.394 113.598,515.043 114.761,532.668 114.949,535.519 116.855,544.679 118.727,553.32 118.662,554.973 M125.809,364.722 Q127.594,364.998 129.495,365.347 143.893,367.868 149.405,367.244 M139.846,406.49 L140.161,408.638 Q140.292,410.626 139.349,416.068 138.413,421.597 138.536,426.101 138.608,431.129 139.166,439.596 139.229,440.547 139.774,443.548 140.325,446.635 140.399,447.759 140.403,447.821 140.407,447.888 140.545,450.212 140.239,454.538 139.97,459.675 139.278,461.023 138.563,462.024 137.26,464.627 136.334,466.38 135.89,467.537 135.445,468.695 135.482,469.256 M140.457,505.201 Q140.503,505.892 139.933,513.045 139.277,520.204 139.346,521.241 139.471,523.141 141.374,528.309 142.291,530.916 142.774,532.426 143.219,533.918 143.248,534.347 143.441,537.284 141.295,542.893 139.368,547.879 137.759,549.808 M119.475,462.069 Q114.59,462.998 109.259,468.991 104.314,474.489 103.243,480.408 102.935,482.134 102.953,483.898 102.972,489.451 102.546,547.445 102.294,604.126 102.606,610.18 102.874,614.241 102.731,621.279 102.719,622.313 102.73,623.232 L102.735,623.318 Q102.842,626.27 103.349,628.007 103.797,629.539 142.957,679.889 181.824,729.738 182.138,733.188 M101.147,480.199 Q93.132,484.98 85.071,489.07 73.565,494.862 67.027,495.727 53.393,496.887 37.472,497.59 5.712,498.904 -5.633,496.615 M160.403,558.944 Q159.884,559.629 159.236,559.672 M161.273,587.913 L161.276,587.956 Q161.19,589.949 161.072,592.092 160.435,603.536 159.409,618.842 159.21,622.413 169.578,638.824 182.356,658.894 185.192,665.041 204.544,707.152 206.247,726.391 M6.068,600.322 Q12.882,601 29.956,605.948 48.539,611.404 58.759,616.37 72.652,623.09 76.28,624.152 83.807,626.433 93.329,624.763 97.188,624.075 100.432,623.253" test="Avatar Lady"/>
      <path id="Layer1_0_2_STROKES" stroke="#FFBC00" stroke-width="1.732" stroke-linejoin="round" stroke-linecap="round" fill="none" d="M227.612,311.667 Q239.319,302.58 252.187,292.864 L259.912,299.47 Q267.965,307.096 269.511,312.114 270.068,313.986 263.776,317.265 256.718,320.768 255.875,323.774 254.819,327.488 256.552,336.659 257.321,340.617 258.251,344.009 258.307,344.224 258.366,344.436 M160.381,362.615 Q162.354,361.73 164.497,360.564 170.937,357.022 178.872,350.895 185.643,345.676 204.235,330.218 215.275,321.291 227.612,311.667 M258.087,344.801 Q258.354,345.035 258.596,345.288 258.475,344.869 258.366,344.436 M258.087,344.801 Q255.327,342.04 251.187,339.529 242.068,334.143 234.124,336.056 226.439,337.951 213.646,346.605 201.398,355.462 195.27,359.402 194.395,359.959 193.645,360.42 189.479,363.038 174.509,371.575 173.005,372.438 171.665,373.195 167.767,375.484 165.364,376.994 162.735,378.678 161.924,379.434" test="Avatar Lady"/>
      <path id="Layer1_0_3_STROKES" stroke="#FF0" stroke-width="1.732" stroke-linejoin="round" stroke-linecap="round" fill="none" d="M279.045,342.204 Q279.168,348.01 284.589,346.003 285.311,345.709 285.889,345.31 287.907,343.858 287.991,341.006 288.056,338.051 285.154,337.462 M229.722,362.726 Q228.488,365.064 228.263,365.599 228.194,365.864 228.239,366.555 228.535,371.048 234.843,370.632 237.003,370.489 239.164,367.744 241.171,365.268 241.068,363.713 241.039,363.281 238.737,361.264" test="Avatar Lady"/>
      <path id="Layer1_0_4_STROKES" stroke="#FFF" stroke-width="1.732" stroke-linejoin="round" stroke-linecap="round" fill="none" d="M224.253,416.628 L224.736,418.678 Q224.858,420.529 223.662,422.784 223.266,423.6 222.687,424.454 221.113,426.901 220.122,427.66 M225.423,423.84 Q234.59,428.615 244.941,426.37 248.726,425.86 252.597,425.344" test="Avatar Lady"/>
    </g>
  </g>
</svg>