<?xml version="1.0" encoding="utf-8"?>
<svg id="EdithAnim13" image-rendering="inherit" baseProfile="basic" version="1.1" x="0px" y="0px" width="800" height="600" xmlns="http://www.w3.org/2000/svg" xmlns:xlink="http://www.w3.org/1999/xlink">
  <g id="22_Avatarf116r1" overflow="visible">
    <g id="Avatar-Manf0r1">
      <g id="Tailf0r1">
        <path id="Layer3_0_1_STROKES" stroke="#009EFF" stroke-width="2.36" stroke-linejoin="round" stroke-linecap="round" fill="none" d="M619.312,616.934 Q618.116,599.597 617.454,582.25 616.861,565.43 611.392,549.544 605.381,532.242 588.644,524.375 568.305,514.897 565.367,536.106 564.938,539.197 566.958,541.908 571.737,548.423 578.53,552.592 585.628,549.998 590.969,554.893 597.398,560.835 600.23,569.747 606.848,590.777 612.12,611.984 613.61,617.918 612.612,623.939" test="Tail_2.3242325232423263e+312.3242325232423263e+31_2.3242325232423263e+312.3242325232423263e+31_2.3242325232423263e+312.3242325232423263e+31_2.3242325232423263e+312.3242325232423263e+31_2.3242325232423263e+312.3242325232423263e+31_2.3242325232423263e+312.3242325232423263e+31_2.3242325232423263e+312.3242325232423263e+31_2.3242325232423263e+312.3242325232423263e+31_2.3242325232423263e+312.3242325232423263e+31_2.3242325232423263e+312.3242325232423263e+31_2.3242325232423263e+312.3242325232423263e+31_2.3242325232423263e+312.3242325232423263e+31_2.3242325232423263e+312.3242325232423263e+31_2.3242325232423263e+312.3242325232423263e+31_2.3242325232423263e+312.3242325232423263e+31_2.3242325232423263e+312.3242325232423263e+31_23242324"/>
      </g>
      <path fill="#000" stroke="none" d="M579.911,528.733 Q575.707,519.295 570.387,517.922 569.186,517.579 554.6,521.783 537.268,526.759 517.62,526.931 497.2,527.103 477.637,520.753 461.936,514.318 460.134,514.49 453.956,517.236 452.24,518.437 449.152,520.496 449.409,523.07 449.581,524.958 449.752,535.339 450.353,545.378 453.27,548.81 456.445,552.499 471.803,560.479 484.501,566.914 497.457,572.405 505.951,576.009 518.735,592.053 525.256,600.204 532.635,609.728 534.179,610.929 532.635,612.645 531.434,613.932 531.605,613.932 L543.789,610.157 Q559.319,605.266 569.872,588.879 578.881,574.807 582.399,555.674 585.23,540.487 579.911,528.733 M585.402,171.719 L582.313,170.432 Q582.269,170.54 582.227,170.604 581.297,172.979 580.683,175.151 579.053,180.985 576.479,189.909 576.42,190.065 576.307,190.166 573.956,196.412 569.1,199.175 558.89,205.009 553.227,207.755 L557.088,216.335 Q556.659,222.598 558.632,264.555 558.704,266.102 558.718,267.558 560.319,300.342 560.52,310.286 560.518,310.351 560.52,310.372 560.549,312.671 560.52,313.718 560.177,327.189 562.665,348.467 563.008,351.47 567.727,348.982 572.446,346.408 572.103,344.606 571.931,343.319 573.905,344.005 575.535,344.606 575.964,345.035 576.05,345.121 582.399,323.156 L587.547,331.736 Q587.633,331.822 590.55,312.86 L595.698,315.005 Q595.798,315.106 595.097,305.996 595.135,305.975 595.097,305.91 594.119,291.904 591.322,256.318 589.625,234.573 588.319,220.282 586.703,201.179 585.831,195.4 585.587,193.715 585.402,193.169 585.587,193.715 585.831,195.4 586.703,201.179 588.319,220.282 L589.692,220.196 Q591.408,220.024 596.47,214.962 600.932,210.672 604.278,212.045 607.281,213.332 625.299,239.415 646.063,265.842 663.051,269.96 647.779,270.475 625.127,287.892 618.092,293.298 611.142,299.818 L610.112,300.762 Q611.334,313.804 615.346,358.42 L616.29,358.334 Q620.752,355.846 651.983,331.307 682.099,307.54 691.794,299.132 699.001,292.869 704.921,283.002 707.924,277.939 711.528,271.676 713.244,269.703 716.933,266.957 719.936,264.211 720.108,259.664 720.28,255.202 687.676,234.181 651.554,211.702 644.604,206.468 624.184,191.11 614.66,184.932 603.314,177.493 595.612,174.207 589.213,171.484 585.402,171.719 M524.398,166.485 Q526.972,166.056 529.375,165.627 533.236,165.627 532.978,170.346 540.357,169.488 543.274,170.346 546.363,171.29 546.277,174.636 L551.082,176.867 Q554.456,170.308 562.665,164.855 567.384,161.68 571.417,160.651 571.48,160.637 571.502,160.565 L570.387,153.701 Q571.674,153.615 569.186,150.612 564.638,145.378 560.949,140.831 555.973,134.653 538.641,129.076 523.454,124.186 515.046,124.1 488.105,123.843 469.572,131.393 458.075,136.112 447.779,150.355 445.805,153.054 444.175,155.503 439.575,162.796 438.169,168.287 L438.169,170.346 Q438.341,170.346 439.113,170.604 439.971,170.775 440.572,170.775 443.66,170.775 446.749,168.287 450.267,165.37 453.613,164.769 L453.613,166.914 457.474,166.914 Q460.048,166.399 464.939,164.941 468.714,163.74 469.486,163.911 L469.486,166.056 Q470.344,166.056 473.776,166.485 479.439,166.485 484.93,163.482 L489.22,163.482 489.22,165.198 496.084,165.198 Q507.41,161.766 508.096,161.766 509.212,161.766 510.241,162.538 511.442,163.396 513.673,163.482 513.673,165.627 513.244,166.485 L524.398,166.485Z" test="Avatar Man" stroke-width="1.716"/>
      <path id="Layer2_0_1_STROKES" stroke="#009EFF" stroke-width="1.716" stroke-linejoin="round" stroke-linecap="round" fill="none" d="M546.277,174.636 Q546.363,171.29 543.274,170.346 540.357,169.488 532.978,170.346 533.236,165.627 529.375,165.627 526.972,166.056 524.398,166.485 L513.244,166.485 Q513.673,165.627 513.673,163.482 511.442,163.396 510.241,162.538 509.212,161.766 508.096,161.766 507.41,161.766 496.084,165.198 L489.22,165.198 489.22,163.482 484.93,163.482 Q479.439,166.485 473.776,166.485 470.344,166.056 469.486,166.056 L469.486,163.911 Q468.714,163.74 464.939,164.941 460.048,166.399 457.474,166.914 L453.613,166.914 453.613,164.769 Q450.267,165.37 446.749,168.287 443.66,170.775 440.572,170.775 439.971,170.775 439.113,170.604 438.341,170.346 438.169,170.346 L438.169,168.287 Q439.575,162.796 444.218,155.546 445.805,153.054 447.779,150.355 458.075,136.112 469.572,131.393 488.105,123.843 515.046,124.1 523.454,124.186 538.641,129.076 555.973,134.653 560.949,140.831 564.638,145.378 569.186,150.612 571.674,153.615 570.387,153.701 M571.545,160.608 Q571.609,160.615 571.674,160.608 574.269,160.035 579.825,159.707 583.858,159.535 586.346,157.905 587.719,157.047 589.692,155.417 590.464,154.988 587.29,160.479 585.831,162.967 584.63,165.37 583.895,166.813 583.3,168.201 583.157,168.488 583.043,168.759 582.792,169.294 582.571,169.831 582.437,170.133 582.313,170.432 M585.402,171.719 Q589.213,171.484 595.655,174.25 603.314,177.493 614.66,184.932 624.184,191.11 644.604,206.468 651.554,211.702 687.676,234.181 720.28,255.202 720.108,259.664 719.936,264.211 716.933,266.957 713.244,269.703 711.528,271.676 707.924,277.939 704.921,283.002 699.001,292.869 691.794,299.132 682.099,307.54 651.983,331.307 620.752,355.846 616.29,358.334 615.846,358.624 615.432,358.892 610.438,362.132 608.225,363.396 604.278,365.713 600.846,365.198 M584.63,165.37 Q583.293,166.835 582.185,167.686 581.064,168.503 580.168,168.716 576.908,168.973 572.961,169.574 567.899,170.346 565.153,172.234 561.464,175.408 557.946,178.154 553.57,181.586 550.825,183.216 L548.937,184.16 Q549.351,180.375 551.125,176.91 M545.419,174.636 L546.277,174.636 M551.125,176.91 Q554.456,170.308 562.665,164.855 567.384,161.68 571.417,160.651 571.48,160.637 571.545,160.608 M582.313,170.432 Q582.269,170.54 582.227,170.647 581.297,172.979 580.683,175.151 579.053,180.985 576.479,189.909 576.42,190.065 576.35,190.209 573.956,196.412 569.1,199.175 558.89,205.009 553.227,207.755 M557.088,216.335 Q556.659,222.598 558.632,264.555 558.704,266.102 558.761,267.601 560.319,300.342 560.52,310.286 560.518,310.351 560.52,310.415 560.549,312.671 560.52,313.718 560.177,327.189 562.665,348.467 563.008,351.47 567.727,348.982 572.446,346.408 572.103,344.606 571.931,343.319 573.905,344.005 575.535,344.606 575.964,345.035 576.05,345.121 582.399,323.156 L587.547,331.736 Q587.633,331.822 590.55,312.86 L595.698,315.005 Q595.798,315.106 595.14,306.039 595.135,305.975 595.14,305.91 594.119,291.904 591.322,256.318 589.625,234.573 588.362,220.282 586.703,201.179 585.831,195.4 585.587,193.715 585.402,193.169 M610.112,300.805 L611.142,299.818 Q618.092,293.298 625.127,287.892 647.779,270.475 663.051,269.96 646.063,265.842 625.299,239.415 607.281,213.332 604.278,212.045 600.932,210.672 596.47,214.962 591.408,220.024 589.692,220.196 M493.167,213.332 Q494.167,213.493 496.256,213.589 498.638,213.675 502.433,213.675 509.126,213.589 512.043,213.332 517.448,212.817 518.135,212.646 521.567,211.702 521.91,209.042 M543.36,281.972 Q544.218,287.549 546.191,295.614 548.594,305.31 550.653,310.286 M447.693,279.398 Q447.693,279.484 448.036,288.235 448.294,294.499 450.696,298.703 451.468,300.052 452.627,301.363 456.141,305.287 463.223,308.827 473.004,313.804 482.442,314.147 L485.917,314.404 486.046,314.404 Q495.14,314.748 497.886,314.576 502.605,314.233 508.182,312.431 512.3,311.144 523.369,301.191 531.235,294.046 539.585,285.318 539.693,285.214 539.799,285.104 539.865,285.042 539.928,284.975 540.016,284.893 540.1,284.803 541.417,283.405 542.759,281.972 542.847,281.879 542.931,281.8 542.965,281.751 543.017,281.715 543.031,281.665 543.06,281.629 553.162,270.857 554.514,267.815 M485.874,315.005 Q485.102,318.694 483.643,327.103 482.185,334.396 479.868,338.171 M605.565,305.138 L610.112,300.805 M596.127,373.349 Q596.041,373.521 587.375,396.086 581.198,412.131 578.967,421.397 576.221,432.637 573.819,466.099 571.417,498.703 572.532,505.91 M523.111,417.45 Q523.626,419.338 525.342,419.853 525.857,420.024 527.23,420.024 529.46,420.024 530.318,418.995 530.662,418.651 532.034,415.477 M488.791,405.009 Q488.62,420.625 489.735,423.027 491.537,427.317 501.661,427.317 506.552,427.317 506.981,427.231 507.496,427.146 509.383,426.03 M490.078,457.776 Q489.22,460.35 489.22,463.182 489.22,467.901 492.995,468.158 495.484,468.244 503.377,468.072 M487.075,493.383 Q491.451,496.386 494.282,497.073 496.342,497.502 499.945,496.815 M530.919,614.447 Q524.484,617.45 507.238,620.71 489.821,623.971 471.288,625.601 455.243,627.06 417.491,626.287 389.006,625.773 372.618,624.743 360.005,623.971 334.437,621.311 328.088,620.625 323.369,621.654 320.023,622.426 318.993,621.74 M442.545,154.559 Q439.285,152.586 435.424,150.526 427.702,146.494 425.385,146.837 422.897,147.18 424.956,159.45 426.672,169.917 428.388,174.293 M432.678,185.876 Q433.364,188.707 435.166,194.37 436.196,198.918 433.536,200.891 430.26,203.333 427.144,205.61 L427.101,205.653 Q380.287,240.414 374.334,242.504 369.1,244.048 367.813,244.477 366.011,245.164 365.754,246.794 365.325,250.14 365.153,261.637 364.896,274.851 365.754,277.682 368.671,289.351 391.151,322.555 413.201,355.074 426.243,367.772 M434.394,215.477 Q437.054,216.85 442.373,217.536 442.59,217.569 442.802,217.579 447.823,218.298 452.841,218.051 456.016,217.879 463.394,216.678 469.4,215.649 471.288,215.906 M433.965,237.785 Q432.935,239.501 421.867,250.569 411.829,260.608 409.083,263.096 M454.9,257.862 Q458.761,257.862 463.051,257.004 L479.782,257.004 Q474.634,262.495 471.717,265.413 466.312,270.732 465.025,270.732 462.708,270.732 459.276,265.927 455.758,260.436 454.471,259.149 M399.645,258.377 Q401.117,261.934 404.278,266.442 404.313,266.492 404.364,266.528 412.23,277.809 430.533,295.014 439.036,302.998 445.291,309.085 459.765,323.125 462.279,327.017 M433.536,391.796 Q432.935,405.438 435.681,411.959 437.397,415.906 442.631,420.367 448.036,424.743 452.841,426.116 M448.122,433.838 Q448.208,436.498 447.779,447.48 447.607,457.776 448.98,460.436 450.61,463.611 454.643,466.27 458.59,468.844 460.992,468.587 M454.128,472.019 Q454.214,474.85 454.214,479.226 454.385,482.487 455.844,484.46 456.016,484.717 460.649,487.892 463.738,490.037 463.566,493.898 463.394,496.815 461.593,504.022 460.048,510.028 460.563,511.916 M439.542,524.357 Q419.465,520.668 395.183,516.892 346.706,509.428 326.372,509.428 312.815,509.428 297.371,506.596 285.188,504.366 282.614,505.138 278.152,506.511 273.948,513.546 269.744,520.668 270.087,526.502 270.344,530.449 271.717,540.916 272.833,550.269 271.803,553.958 M439.113,549.239 Q431.219,550.526 394.84,551.298 355.372,552.156 349.023,552.671 341.987,553.272 319.594,556.875 299.259,560.136 291.108,560.393 281.413,560.736 272.833,559.535 268.371,558.934 261.936,557.39 258.59,556.618 255.158,558.934 253.356,560.221 249.066,564.683 244.175,569.745 248.637,580.556 249.495,582.701 248.036,594.97 246.406,607.326 247.35,609.728 L250.353,617.021 Q253.699,626.202 255.072,635.897 M315.561,609.728 Q316.762,613.589 318.993,624.657 321.395,636.498 321.138,638.9" test="Avatar Man"/>
      <path id="Layer2_0_2_STROKES" stroke="#FF0" stroke-width="1.716" stroke-linejoin="round" stroke-linecap="round" fill="none" d="M496.084,216.678 Q495.226,221.483 496.942,225.001 498.744,228.69 502.09,228.69 503.463,228.69 505.351,227.661 507.496,226.459 508.096,224.829 M442.459,220.539 Q441.601,226.545 441.601,226.974 441.601,228.719 442.888,230.578 443.573,231.549 444.604,232.551 447.779,235.554 451.039,235.554 452.755,235.554 453.871,233.838 454.557,232.894 455.758,230.835" test="Avatar Man"/>
      <path id="Layer2_0_3_STROKES" stroke="#FFF" stroke-width="1.716" stroke-linejoin="round" stroke-linecap="round" fill="none" d="M526.114,263.439 Q531.863,265.756 532.12,269.617 532.137,269.86 532.163,270.132 532.158,270.197 532.163,270.26 L532.163,270.389 Q532.196,272.622 531.691,276.738 M518.392,278.883 Q524.046,277.534 527.487,273.392 528.64,272.005 529.546,270.303" test="Avatar Man"/>
      <path id="Layer2_0_4_STROKES" stroke="#F90" stroke-width="1.716" stroke-linejoin="round" stroke-linecap="round" fill="none" d="M460.134,514.49 Q461.936,514.318 477.637,520.753 497.2,527.103 517.62,526.931 537.268,526.759 554.6,521.783 569.186,517.579 570.387,517.922 575.707,519.295 579.911,528.733 585.23,540.487 582.399,555.674 578.881,574.807 569.872,588.879 559.319,605.266 543.789,610.157 L531.605,613.932 Q531.434,613.932 532.635,612.645 534.179,610.929 532.635,609.728 525.256,600.204 518.735,592.053 505.951,576.009 497.457,572.405 484.501,566.914 471.803,560.479 456.445,552.499 453.27,548.81 450.353,545.378 449.752,535.339 449.581,524.958 449.409,523.07 449.152,520.496 452.24,518.437 453.956,517.236 460.134,514.49Z" test="Avatar Man"/>
    </g>
    <g id="Avatar-Lady">
      <path fill="#000" stroke="none" d="M238.65,447.34 Q234.868,446.716 231.666,446.82 223.287,447.604 219.739,447.825 213.94,448.187 207.73,446.141 204.025,445.243 198.729,442.532 188.225,437.106 178.765,427.53 169.424,418.076 162.788,406.805 L161.035,407.957 Q161.008,414.476 158.139,429.773 156.01,441.403 156.103,450.058 156.117,451.669 156.211,453.179 156.405,456.295 158.037,471.311 159.387,492.949 157.282,500.987 155.881,506.374 153.824,512.411 152.628,516.917 153.017,523.148 153.234,526.619 154.282,530.889 L154.288,530.976 Q155.253,534.926 156.91,539.588 160.295,549.282 160.603,554.215 160.765,556.811 159.97,559.381 159.534,560.755 158.969,561.442 L160.527,562.735 Q160.688,564.706 160.629,568.55 160.63,568.742 160.65,568.896 160.573,574.206 160.135,582.917 L160.14,583.003 Q159.972,586.488 159.739,590.501 L163.439,592.703 Q165.903,588.851 172.182,581.036 180.973,570.148 183.078,566.28 L183.456,565.388 Q186.941,561.347 189.808,553.001 193.12,542.02 195.468,535.097 195.981,533.558 196.41,532.084 196.636,531.56 196.778,531.018 196.865,530.905 196.848,530.753 196.924,530.689 196.924,530.575 L196.924,530.575 Q201.575,516.777 204.559,508.116 210.728,490.006 214.299,481.79 215.942,477.958 218.243,473.984 219.159,472.377 220.126,470.739 L220.364,470.377 220.445,470.285 Q222.939,466.482 225.958,462.555 232.948,453.431 238.347,449.444 L238.65,447.34 M208.141,293.977 L206.747,281.378 206.314,281.405 Q196.621,282.01 190.946,282.972 179.516,284.989 170.585,289.456 162,293.901 154.177,300.819 151.214,303.407 148.345,306.222 148.346,306.264 148.264,306.314 148.063,306.546 147.772,306.78 143.531,311.194 139.581,316.153 132.808,324.569 130.232,333.419 127.651,342.182 127.303,351.935 L127.071,355.164 Q129.83,355.362 133.183,355.651 138.69,356.177 146.506,360.294 146.91,360.528 152.104,363.681 152.154,363.695 152.191,363.675 153.952,364.801 156.258,366.202 153.952,364.801 152.191,363.675 152.154,363.695 152.104,363.681 146.91,360.528 146.506,360.294 138.69,356.177 133.183,355.651 129.83,355.362 127.071,355.164 L125.019,366.848 Q126.806,367.131 128.708,367.487 143.118,370.063 148.641,369.458 143.118,370.063 128.708,367.487 126.806,367.131 125.019,366.848 124.843,366.812 124.668,366.783 112.712,364.785 106.249,365.412 L101.856,370.205 Q104.157,372.33 109.299,376.691 116.14,382.451 120.414,384.947 121.244,385.38 121.939,385.721 127.857,388.653 134.602,388.145 139.53,387.751 146.627,388.698 152.231,389.391 153.924,388.678 L159.469,389.809 157.926,397.117 162.686,406.551 Q162.769,406.695 162.788,406.805 169.424,418.076 178.765,427.53 188.225,437.106 198.729,442.532 204.025,445.243 207.73,446.141 213.94,448.187 219.739,447.825 223.287,447.604 231.666,446.82 234.868,446.716 238.65,447.34 L238.736,447.335 Q241.692,447.891 245,448.856 255.083,451.702 258.063,452.124 264.468,453.115 268.119,451.757 269.813,451.044 274.292,447.636 277.029,445.554 278.712,437.716 280.526,427.785 281.841,422.402 283.307,416.663 289.448,405.072 290.258,403.537 291.001,402.108 296.04,392.387 297.916,387.6 298.121,387.084 298.289,386.621 301.173,378.535 298.215,368.727 295.917,361.138 291.612,356.193 L285.365,347.981 Q284.828,348.376 284.104,348.668 278.668,350.658 278.566,344.843 L273.751,342.884 257.848,347.004 Q257.955,347.439 258.075,347.859 257.833,347.605 257.523,347.372 254.813,344.594 250.675,342.065 241.561,336.638 233.598,338.525 225.895,340.396 213.053,349.017 200.755,357.844 194.557,361.727 193.725,362.323 192.972,362.782 188.79,365.389 173.767,373.885 172.259,374.744 170.911,375.454 167.002,377.776 164.544,379.239 161.951,380.957 161.136,381.711 161.951,380.957 164.544,379.239 167.002,377.776 170.911,375.454 172.259,374.744 173.767,373.885 188.79,365.389 192.972,362.782 193.725,362.323 194.557,361.727 200.755,357.844 213.053,349.017 225.895,340.396 233.598,338.525 241.561,336.638 250.675,342.065 254.813,344.594 257.523,347.372 L257.848,347.004 Q257.789,346.793 257.734,346.577 256.815,343.176 256.058,339.209 254.355,330.019 255.426,326.303 256.281,323.295 263.363,319.812 269.676,316.551 269.124,314.674 267.594,309.643 259.556,301.977 L251.843,295.334 Q238.921,305.018 227.121,314.08 214.775,323.671 203.685,332.572 185.011,347.987 178.211,353.19 170.242,359.298 163.777,362.779 161.63,363.981 159.65,364.861 161.63,363.981 163.777,362.779 170.242,359.298 178.211,353.19 185.011,347.987 203.685,332.572 214.775,323.671 227.121,314.08 L221.069,306.203 Q220.225,305.213 215.14,300.317 209.597,295.016 208.141,293.977 M243.193,355.826 Q241.9,354.603 237.794,354.251 234.683,353.984 225.607,359.442 222.695,361.233 219.174,363.58 204.66,373.261 202.237,373.412 204.66,373.261 219.174,363.58 222.695,361.233 225.607,359.442 234.683,353.984 237.794,354.251 241.9,354.603 243.193,355.826 244.485,357.048 248.705,359.218 244.485,357.048 243.193,355.826 M238.534,370.279 Q240.552,367.807 240.455,366.249 240.427,365.816 238.129,363.788 240.427,365.816 240.455,366.249 240.552,367.807 238.534,370.279 236.359,373.021 234.195,373.156 227.877,373.55 227.596,369.05 227.553,368.357 227.623,368.092 227.851,367.557 229.095,365.22 227.851,367.557 227.623,368.092 227.553,368.357 227.596,369.05 227.877,373.55 234.195,373.156 236.359,373.021 238.534,370.279 M222.765,425.306 Q222.412,426.162 221.829,427.016 220.244,429.46 219.248,430.218 220.244,429.46 221.829,427.016 222.412,426.162 222.765,425.306 224.017,423.092 223.901,421.239 L223.426,419.183 223.901,421.239 Q224.017,423.092 222.765,425.306 M263.679,393.125 Q265.871,392.988 268.716,391.681 271.793,390.375 275.597,387.777 281.025,383.987 282.251,381.627 282.723,380.84 282.684,380.21 282.641,379.517 280.764,377.288 278.973,375.054 278.265,374.838 278.973,375.054 280.764,377.288 282.641,379.517 282.684,380.21 282.723,380.84 282.251,381.627 281.025,383.987 275.597,387.777 271.793,390.375 268.716,391.681 265.871,392.988 263.679,393.125 260.304,393.336 257.902,391.053 254.111,387.379 253.84,387.222 254.111,387.379 257.902,391.053 260.304,393.336 263.679,393.125 M283.672,396.048 Q283.629,395.356 282.52,394.296 283.629,395.356 283.672,396.048 283.742,397.173 283.369,398.153 282.995,399.132 282.179,399.965 280.458,401.636 277.948,401.792 276.996,401.852 274.957,401.197 273.004,400.537 271.739,399.747 273.004,400.537 274.957,401.197 276.996,401.852 277.948,401.792 280.458,401.636 282.179,399.965 282.995,399.132 283.369,398.153 283.742,397.173 283.672,396.048 M244.11,429.014 Q247.902,428.517 251.78,428.014 247.902,428.517 244.11,429.014 233.735,431.225 224.572,426.41 233.735,431.225 244.11,429.014 M181.362,324.32 Q177.094,319.982 170.625,317.952 164.242,315.918 158.752,317.042 164.242,315.918 170.625,317.952 177.094,319.982 181.362,324.32Z" test="Avatar Lady" stroke-width="1.734"/>
      <path id="Layer1_0_1_STROKES" stroke="#009EFF" stroke-width="1.734" stroke-linejoin="round" stroke-linecap="round" fill="none" d="M273.751,342.884 Q272.459,338.881 275.564,337.124 278.577,335.285 281.461,334.149 M249.924,291.022 Q250.135,290.227 250.108,289.794 250.054,288.929 246.852,283.568 243.071,277.287 242.477,276.108 240.292,271.726 235.634,270.887 230.847,270.752 229.154,270.075 229.581,271.352 229.846,275.593 L230.061,281.835 Q229.807,281.938 227.86,281.364 225.74,280.802 224.787,280.861 221.412,281.072 219.584,281.012 215.224,280.763 210.377,281.065 L206.747,281.378 M208.141,293.977 Q209.597,295.016 215.14,300.317 220.225,305.213 221.069,306.203 M229.154,270.075 Q229.145,269.989 229.062,269.994 L229.046,269.734 Q229.141,269.9 229.154,270.075Z M206.314,281.405 Q206.304,281.232 206.39,281.227 206.567,281.384 206.747,281.378 L206.314,281.405 Q196.621,282.01 190.946,282.972 179.516,284.989 170.585,289.456 162,293.901 154.177,300.819 151.214,303.407 148.389,306.22 148.346,306.264 148.307,306.312 148.063,306.546 147.815,306.777 143.531,311.194 139.581,316.153 132.808,324.569 130.232,333.419 127.651,342.182 127.303,351.935 M127.073,355.207 Q129.83,355.362 133.183,355.651 138.69,356.177 146.506,360.294 146.91,360.528 152.104,363.681 152.154,363.695 152.193,363.719 153.952,364.801 156.258,366.202 M248.705,359.218 Q244.485,357.048 243.193,355.826 241.9,354.603 237.794,354.251 234.683,353.984 225.609,359.486 222.695,361.233 219.174,363.58 204.66,373.261 202.237,373.412 M253.84,387.222 Q254.111,387.379 257.902,391.053 260.304,393.336 263.679,393.125 265.871,392.988 268.762,391.722 271.793,390.375 275.597,387.777 281.025,383.987 282.294,381.624 282.723,380.84 282.684,380.21 282.641,379.517 280.764,377.288 278.973,375.054 278.265,374.838 M291.612,356.193 Q295.917,361.138 298.215,368.727 301.173,378.535 298.289,386.621 298.121,387.084 297.916,387.6 296.04,392.387 291.001,402.108 290.258,403.537 289.448,405.072 283.307,416.663 281.841,422.402 280.526,427.785 278.712,437.716 277.029,445.554 274.292,447.636 269.813,451.044 268.119,451.757 264.468,453.115 258.063,452.124 255.083,451.702 245,448.856 241.692,447.891 238.739,447.378 L238.653,447.383 M238.347,449.444 Q232.948,453.431 225.958,462.555 222.939,466.482 220.488,470.282 L220.407,470.374 220.169,470.736 Q219.159,472.377 218.243,473.984 215.942,477.958 214.299,481.79 210.728,490.006 204.559,508.116 201.575,516.777 196.967,530.572 L196.927,530.618 Q196.924,530.689 196.892,530.75 196.865,530.905 196.824,531.059 196.636,531.56 196.453,532.081 195.981,533.558 195.468,535.097 193.12,542.02 189.808,553.001 186.941,561.347 183.456,565.388 M183.078,566.28 Q180.973,570.148 172.182,581.036 165.903,588.851 163.442,592.746 162.664,594.009 162.27,594.861 M271.739,399.747 Q273.004,400.537 274.957,401.197 276.996,401.852 277.948,401.792 280.458,401.636 282.179,399.965 282.995,399.132 283.369,398.153 283.742,397.173 283.672,396.048 283.629,395.356 282.52,394.296 M238.653,447.383 Q234.868,446.716 231.666,446.82 223.287,447.604 219.739,447.825 213.94,448.187 207.73,446.141 204.025,445.243 198.729,442.532 188.225,437.106 178.765,427.53 169.424,418.076 162.834,406.846 M161.035,407.957 Q161.008,414.476 158.139,429.773 156.01,441.403 156.103,450.058 156.117,451.669 156.211,453.179 156.405,456.295 158.037,471.311 159.387,492.949 157.282,500.987 155.881,506.374 153.824,512.411 152.628,516.917 153.017,523.148 153.234,526.619 154.285,530.932 L154.288,530.976 Q155.253,534.926 156.91,539.588 160.295,549.282 160.603,554.215 160.765,556.811 159.97,559.381 159.534,560.755 158.972,561.485 M160.527,562.735 Q160.688,564.706 160.631,568.593 160.63,568.742 160.65,568.896 160.573,574.206 160.138,582.96 L160.14,583.003 Q159.972,586.488 159.739,590.501 M215.213,483.905 L215.001,488.871 Q215.055,489.736 215.877,493.16 216.699,496.584 216.753,497.45 216.807,498.315 217.931,503.806 218.969,509.302 219.023,510.168 219.477,517.438 210.819,548.562 202.074,579.692 202.479,586.183 202.873,592.501 213.328,606.881 221.5,618.1 231.647,628.936 238.997,636.732 257.201,673.653 257.271,674.778 257.98,674.994 258.597,675.13 258.645,674.518 M173.28,626.496 Q175.52,627.573 187.457,637.862 200.233,649.056 200.389,651.566 200.584,654.681 222.858,669.105 245.132,683.529 245.348,686.991 245.413,688.029 245.753,687.921 246.094,687.813 246.105,687.986 L246.76,687.337 M181.362,324.32 Q177.094,319.982 170.625,317.952 164.242,315.918 158.752,317.042 M127.073,355.207 Q126.987,355.223 126.9,355.218 126.811,355.213 126.727,355.229 122.537,354.977 119.768,355.098 112.314,355.389 107.072,357.715 100.564,360.641 99.818,361.209 98.573,362.155 98.811,364.573 99.146,367.159 100.558,368.895 100.948,369.319 101.669,369 101.761,370.077 101.853,370.161 L101.899,370.202 M106.249,365.412 Q112.712,364.785 124.668,366.783 124.843,366.812 125.019,366.848 M101.899,370.202 Q104.157,372.33 109.299,376.691 116.14,382.451 120.457,384.944 121.244,385.38 121.939,385.721 127.857,388.653 134.602,388.145 139.53,387.751 146.627,388.698 152.231,389.391 153.924,388.678 M157.926,397.117 L162.686,406.551 Q162.769,406.695 162.834,406.846 M116.967,390.983 Q114.311,394.364 112.941,412.783 112.334,421.162 112.198,423.168 112.074,426.739 112.322,430.72 112.624,435.567 115.29,446.261 117.869,456.961 118.247,463.02 118.286,463.65 118.328,464.318 118.439,467.203 118.295,470.75 118.072,476.564 117.176,484.157 116.549,489.48 115.593,495.681 112.253,517.35 113.355,535.007 113.533,537.863 115.409,547.043 117.253,555.703 117.182,557.358 M125.019,366.848 Q126.806,367.131 128.708,367.487 143.118,370.063 148.641,369.458 M138.927,408.728 L139.236,410.881 Q139.36,412.872 138.396,418.319 137.438,423.853 137.546,428.364 137.599,433.4 138.129,441.882 138.188,442.834 138.723,445.842 139.264,448.936 139.334,450.061 139.338,450.124 139.342,450.191 139.472,452.518 139.149,456.85 138.862,461.994 138.164,463.341 137.445,464.342 136.13,466.943 135.197,468.696 134.748,469.853 134.298,471.011 134.334,471.574 M139.187,507.59 Q139.23,508.282 138.635,515.444 137.952,522.611 138.017,523.65 138.136,525.554 140.023,530.736 140.932,533.35 141.41,534.864 141.851,536.36 141.878,536.789 142.062,539.732 139.892,545.341 137.944,550.329 136.326,552.254 M118.328,464.318 Q113.433,465.232 108.071,471.214 103.1,476.702 102.006,482.627 101.692,484.355 101.703,486.121 101.702,491.682 101.068,549.762 100.613,606.528 100.905,612.591 101.159,616.659 100.99,623.708 100.975,624.743 100.982,625.663 L100.987,625.75 Q101.083,628.707 101.584,630.448 102.028,631.984 141.067,682.549 179.814,732.612 180.117,736.068 M99.907,482.41 Q91.863,487.17 83.776,491.237 72.232,496.996 65.681,497.839 52.022,498.952 36.075,499.6 4.263,500.802 -7.091,498.47 M158.972,561.485 Q158.449,562.169 157.8,562.21 M159.739,590.501 L159.742,590.544 Q159.649,592.539 159.522,594.685 158.844,606.144 157.761,621.469 157.55,625.044 167.875,641.517 180.601,661.663 183.418,667.83 202.649,710.073 204.286,729.347 M4.257,602.374 Q11.078,603.078 28.161,608.094 46.752,613.624 56.97,618.634 70.86,625.414 74.49,626.491 82.019,628.801 91.561,627.163 95.429,626.487 98.68,625.676" test="Avatar Lady"/>
      <path id="Layer1_0_2_STROKES" stroke="#FFBC00" stroke-width="1.734" stroke-linejoin="round" stroke-linecap="round" fill="none" d="M227.164,314.077 Q238.921,305.018 251.843,295.334 L259.556,301.977 Q267.594,309.643 269.124,314.674 269.676,316.551 263.363,319.812 256.281,323.295 255.426,326.303 254.355,330.019 256.058,339.209 256.815,343.176 257.734,346.577 257.789,346.793 257.848,347.004 M159.65,364.861 Q161.63,363.981 163.78,362.822 170.242,359.298 178.211,353.19 185.011,347.987 203.685,332.572 214.775,323.671 227.164,314.077 M257.566,347.37 Q257.833,347.605 258.075,347.859 257.955,347.439 257.848,347.004 M257.566,347.37 Q254.813,344.594 250.675,342.065 241.561,336.638 233.598,338.525 225.895,340.396 213.053,349.017 200.755,357.844 194.603,361.768 193.725,362.323 192.972,362.782 188.79,365.389 173.767,373.885 172.259,374.744 170.914,375.497 167.002,377.776 164.59,379.28 161.951,380.957 161.136,381.711" test="Avatar Lady"/>
      <path id="Layer1_0_3_STROKES" stroke="#FF0" stroke-width="1.734" stroke-linejoin="round" stroke-linecap="round" fill="none" d="M278.566,344.843 Q278.668,350.658 284.104,348.668 284.828,348.376 285.408,347.978 287.434,346.531 287.529,343.676 287.605,340.717 284.7,340.116 M229.095,365.22 Q227.851,367.557 227.623,368.092 227.553,368.357 227.596,369.05 227.877,373.55 234.195,373.156 236.359,373.021 238.534,370.279 240.552,367.807 240.455,366.249 240.427,365.816 238.129,363.788" test="Avatar Lady"/>
      <path id="Layer1_0_4_STROKES" stroke="#FFF" stroke-width="1.734" stroke-linejoin="round" stroke-linecap="round" fill="none" d="M223.426,419.183 L223.901,421.239 Q224.017,423.092 222.811,425.347 222.412,426.162 221.829,427.016 220.244,429.46 219.248,430.218 M224.572,426.41 Q233.735,431.225 244.11,429.014 247.902,428.517 251.78,428.014" test="Avatar Lady"/>
    </g>
  </g>
</svg>