<?xml version="1.0" encoding="utf-8"?>
<svg id="EdithAnim13" image-rendering="inherit" baseProfile="basic" version="1.1" x="0px" y="0px" width="800" height="600" xmlns="http://www.w3.org/2000/svg" xmlns:xlink="http://www.w3.org/1999/xlink">
  <g id="22_Avatarf127r1" overflow="visible">
    <g id="Avatar-Manf0r1">
      <g id="Tailf0r1">
        <path id="Layer3_0_1_STROKES" stroke="#009EFF" stroke-width="2.41" stroke-linejoin="round" stroke-linecap="round" fill="none" d="M592.061,629.775 Q590.843,612.068 590.171,594.351 589.569,577.171 583.987,560.945 577.851,543.273 560.759,535.234 539.988,525.549 536.982,547.21 536.544,550.367 538.607,553.136 543.486,559.791 550.423,564.051 557.673,561.403 563.127,566.403 569.692,572.474 572.582,581.576 579.336,603.057 584.716,624.718 586.236,630.778 585.216,636.928" test="Tail_2.3242325232423263e+312.3242325232423263e+31_2.3242325232423263e+312.3242325232423263e+31_2.3242325232423263e+312.3242325232423263e+31_2.3242325232423263e+312.3242325232423263e+31_2.3242325232423263e+312.3242325232423263e+31_2.3242325232423263e+312.3242325232423263e+31_2.3242325232423263e+312.3242325232423263e+31_2.3242325232423263e+312.3242325232423263e+31_2.3242325232423263e+312.3242325232423263e+31_2.3242325232423263e+312.3242325232423263e+31_2.3242325232423263e+312.3242325232423263e+31_2.3242325232423263e+312.3242325232423263e+31_2.3242325232423263e+312.3242325232423263e+31_2.3242325232423263e+312.3242325232423263e+31_2.3242325232423263e+312.3242325232423263e+31_2.3242325232423263e+312.3242325232423263e+31_2.3242325232423263e+312.3242325232423263e+31_2.3242325232423263e+312.3242325232423263e+31_1"/>
      </g>
      <path fill="#000" stroke="none" d="M551.888,539.672 Q547.595,530.036 542.164,528.634 540.938,528.284 526.046,532.576 508.35,537.657 488.29,537.832 467.441,538.007 447.468,531.525 431.438,524.955 429.598,525.13 423.291,527.933 421.539,529.16 418.385,531.262 418.648,533.89 418.823,535.817 418.998,546.417 419.612,556.666 422.59,560.17 425.831,563.937 441.512,572.084 454.476,578.654 467.704,584.26 476.376,587.939 489.429,604.32 496.086,612.642 503.62,622.366 505.197,623.592 503.62,625.344 502.394,626.658 502.569,626.658 L515.008,622.804 Q530.864,617.811 541.638,601.079 550.836,586.713 554.428,567.178 557.319,551.673 551.888,539.672 M557.494,175.168 L554.34,173.854 Q554.295,173.964 554.253,174.029 553.303,176.454 552.676,178.672 551.012,184.629 548.384,193.739 548.324,193.899 548.208,194.002 545.808,200.379 540.85,203.2 530.426,209.157 524.644,211.96 L528.586,220.72 Q528.148,227.115 530.163,269.951 530.236,271.532 530.25,273.017 531.885,306.489 532.09,316.642 532.088,316.709 532.09,316.73 532.12,319.077 532.09,320.146 531.74,333.899 534.28,355.624 534.63,358.69 539.448,356.15 544.266,353.522 543.916,351.682 543.741,350.368 545.756,351.069 547.42,351.682 547.858,352.12 547.946,352.208 554.428,329.782 L559.684,338.542 Q559.772,338.63 562.75,319.27 L568.006,321.46 Q568.108,321.563 567.393,312.262 567.431,312.241 567.393,312.174 566.394,297.875 563.538,261.542 561.806,239.34 560.472,224.75 558.822,205.246 557.932,199.346 557.683,197.625 557.494,197.068 557.683,197.625 557.932,199.346 558.822,205.246 560.472,224.75 L561.874,224.662 Q563.626,224.487 568.794,219.318 573.35,214.938 576.766,216.34 579.832,217.654 598.228,244.284 619.427,271.265 636.772,275.47 621.179,275.996 598.053,293.778 590.87,299.297 583.774,305.955 L582.723,306.918 Q583.97,320.234 588.066,365.786 L589.03,365.698 Q593.585,363.158 625.472,338.104 656.219,313.839 666.118,305.254 673.476,298.859 679.521,288.785 682.587,283.617 686.266,277.222 688.018,275.207 691.785,272.404 694.851,269.601 695.026,264.958 695.201,260.403 661.913,238.941 625.034,215.99 617.938,210.646 597.089,194.966 587.366,188.658 575.781,181.063 567.918,177.708 561.385,174.928 557.494,175.168 M495.21,169.824 Q497.838,169.386 500.291,168.948 504.233,168.948 503.97,173.766 511.504,172.89 514.482,173.766 517.636,174.73 517.548,178.146 L522.454,180.424 Q525.898,173.728 534.28,168.16 539.098,164.919 543.215,163.868 543.28,163.854 543.303,163.78 L542.164,156.772 Q543.478,156.684 540.938,153.618 536.295,148.275 532.528,143.632 527.447,137.325 509.752,131.631 494.247,126.638 485.662,126.55 458.156,126.287 439.234,133.996 427.496,138.814 416.984,153.356 414.969,156.111 413.304,158.612 408.607,166.058 407.172,171.664 L407.172,173.766 Q407.348,173.766 408.136,174.029 409.012,174.204 409.625,174.204 412.779,174.204 415.932,171.664 419.524,168.686 422.94,168.072 L422.94,170.262 426.882,170.262 Q429.51,169.737 434.504,168.248 438.358,167.021 439.146,167.196 L439.146,169.386 Q440.022,169.386 443.526,169.824 449.308,169.824 454.914,166.758 L459.294,166.758 459.294,168.51 466.302,168.51 Q477.866,165.006 478.566,165.006 479.705,165.006 480.756,165.795 481.983,166.671 484.26,166.758 484.26,168.948 483.822,169.824 L495.21,169.824Z" test="Avatar Man" stroke-width="1.752"/>
      <path id="Layer2_0_1_STROKES" stroke="#009EFF" stroke-width="1.752" stroke-linejoin="round" stroke-linecap="round" fill="none" d="M517.548,178.146 Q517.636,174.73 514.482,173.766 511.504,172.89 503.97,173.766 504.233,168.948 500.291,168.948 497.838,169.386 495.21,169.824 L483.822,169.824 Q484.26,168.948 484.26,166.758 481.983,166.671 480.756,165.795 479.705,165.006 478.566,165.006 477.866,165.006 466.302,168.51 L459.294,168.51 459.294,166.758 454.914,166.758 Q449.308,169.824 443.526,169.824 440.022,169.386 439.146,169.386 L439.146,167.196 Q438.358,167.021 434.504,168.248 429.51,169.737 426.882,170.262 L422.94,170.262 422.94,168.072 Q419.524,168.686 415.932,171.664 412.779,174.204 409.625,174.204 409.012,174.204 408.136,174.029 407.348,173.766 407.172,173.766 L407.172,171.664 Q408.607,166.058 413.348,158.655 414.969,156.111 416.984,153.356 427.496,138.814 439.234,133.996 458.156,126.287 485.662,126.55 494.247,126.638 509.752,131.631 527.447,137.325 532.528,143.632 536.295,148.275 540.938,153.618 543.478,156.684 542.164,156.772 M543.347,163.824 Q543.411,163.831 543.478,163.824 546.127,163.239 551.8,162.904 555.917,162.729 558.458,161.064 559.859,160.188 561.874,158.524 562.662,158.086 559.421,163.692 557.932,166.233 556.706,168.686 555.956,170.159 555.348,171.576 555.202,171.869 555.085,172.146 554.829,172.692 554.603,173.241 554.467,173.549 554.34,173.854 M557.494,175.168 Q561.385,174.928 567.962,177.752 575.781,181.063 587.366,188.658 597.089,194.966 617.938,210.646 625.034,215.99 661.913,238.941 695.201,260.403 695.026,264.958 694.851,269.601 691.785,272.404 688.018,275.207 686.266,277.222 682.587,283.617 679.521,288.785 673.476,298.859 666.118,305.254 656.219,313.839 625.472,338.104 593.585,363.158 589.03,365.698 588.576,365.994 588.154,366.267 583.056,369.575 580.796,370.866 576.766,373.232 573.262,372.706 M556.706,168.686 Q555.341,170.182 554.209,171.051 553.065,171.885 552.15,172.102 548.822,172.365 544.792,172.978 539.624,173.766 536.82,175.694 533.054,178.935 529.462,181.738 524.994,185.242 522.191,186.906 L520.264,187.87 Q520.686,184.005 522.498,180.468 M516.672,178.146 L517.548,178.146 M522.498,180.468 Q525.898,173.728 534.28,168.16 539.098,164.919 543.215,163.868 543.28,163.854 543.347,163.824 M554.34,173.854 Q554.295,173.964 554.253,174.073 553.303,176.454 552.676,178.672 551.012,184.629 548.384,193.739 548.324,193.899 548.252,194.046 545.808,200.379 540.85,203.2 530.426,209.157 524.644,211.96 M528.586,220.72 Q528.148,227.115 530.163,269.951 530.236,271.532 530.294,273.061 531.885,306.489 532.09,316.642 532.088,316.709 532.09,316.773 532.12,319.077 532.09,320.146 531.74,333.899 534.28,355.624 534.63,358.69 539.448,356.15 544.266,353.522 543.916,351.682 543.741,350.368 545.756,351.069 547.42,351.682 547.858,352.12 547.946,352.208 554.428,329.782 L559.684,338.542 Q559.772,338.63 562.75,319.27 L568.006,321.46 Q568.108,321.563 567.437,312.306 567.431,312.241 567.437,312.174 566.394,297.875 563.538,261.542 561.806,239.34 560.516,224.75 558.822,205.246 557.932,199.346 557.683,197.625 557.494,197.068 M582.723,306.962 L583.774,305.955 Q590.87,299.297 598.053,293.778 621.179,275.996 636.772,275.47 619.427,271.265 598.228,244.284 579.832,217.654 576.766,216.34 573.35,214.938 568.794,219.318 563.626,224.487 561.874,224.662 M463.324,217.654 Q464.345,217.819 466.478,217.917 468.909,218.004 472.785,218.004 479.618,217.917 482.596,217.654 488.115,217.128 488.816,216.953 492.32,215.99 492.67,213.274 M514.57,287.734 Q515.446,293.428 517.461,301.662 519.914,311.561 522.016,316.642 M416.896,285.106 Q416.896,285.194 417.246,294.129 417.509,300.524 419.962,304.816 420.75,306.193 421.933,307.532 425.521,311.538 432.752,315.153 442.738,320.234 452.374,320.584 L455.922,320.847 456.053,320.847 Q465.339,321.197 468.142,321.022 472.96,320.672 478.654,318.832 482.859,317.518 494.159,307.356 502.19,300.061 510.716,291.15 510.826,291.044 510.935,290.931 511.001,290.868 511.066,290.8 511.155,290.716 511.241,290.625 512.587,289.197 513.957,287.734 514.046,287.639 514.132,287.559 514.167,287.508 514.22,287.471 514.234,287.42 514.263,287.384 524.577,276.386 525.958,273.28 M455.878,321.46 Q455.09,325.227 453.6,333.812 452.111,341.258 449.746,345.112 M578.08,311.386 L582.723,306.962 M568.444,381.028 Q568.356,381.203 559.509,404.242 553.202,420.623 550.924,430.084 548.121,441.56 545.668,475.724 543.215,509.012 544.354,516.37 M493.896,426.054 Q494.422,427.982 496.174,428.507 496.7,428.682 498.101,428.682 500.379,428.682 501.255,427.631 501.605,427.281 503.007,424.04 M458.856,413.352 Q458.681,429.296 459.82,431.748 461.66,436.128 471.996,436.128 476.99,436.128 477.428,436.041 477.953,435.953 479.88,434.814 M460.17,467.226 Q459.294,469.854 459.294,472.745 459.294,477.563 463.149,477.826 465.689,477.914 473.748,477.738 M457.104,503.58 Q461.572,506.646 464.463,507.347 466.565,507.785 470.244,507.084 M501.868,627.184 Q495.298,630.25 477.69,633.579 459.908,636.908 440.986,638.572 424.605,640.061 386.061,639.273 356.978,638.747 340.246,637.696 327.369,636.908 301.264,634.192 294.782,633.491 289.964,634.542 286.547,635.331 285.496,634.63 M411.64,157.648 Q408.311,155.633 404.369,153.531 396.485,149.414 394.12,149.764 391.58,150.114 393.682,162.641 395.434,173.328 397.186,177.796 M401.566,189.622 Q402.267,192.513 404.106,198.294 405.158,202.937 402.442,204.952 399.097,207.445 395.916,209.77 L395.872,209.814 Q348.076,245.304 341.998,247.438 336.654,249.015 335.34,249.453 333.501,250.154 333.238,251.818 332.8,255.234 332.625,266.973 332.362,280.463 333.238,283.354 336.216,295.268 359.168,329.169 381.681,362.369 394.996,375.334 M403.318,219.844 Q406.034,221.246 411.465,221.946 411.686,221.98 411.903,221.99 417.029,222.724 422.152,222.472 425.393,222.297 432.927,221.07 439.059,220.019 440.986,220.282 M402.88,242.62 Q401.829,244.372 390.528,255.672 380.279,265.922 377.476,268.462 M424.254,263.118 Q428.196,263.118 432.576,262.242 L449.658,262.242 Q444.402,267.849 441.424,270.827 435.905,276.258 434.591,276.258 432.226,276.258 428.722,271.353 425.13,265.746 423.816,264.432 M367.84,263.644 Q369.343,267.276 372.57,271.878 372.605,271.929 372.658,271.966 380.689,283.484 399.376,301.049 408.057,309.201 414.443,315.416 429.221,329.75 431.788,333.724 M402.442,399.862 Q401.829,413.79 404.632,420.448 406.384,424.478 411.728,429.033 417.246,433.5 422.152,434.902 M417.334,442.786 Q417.422,445.502 416.984,456.714 416.808,467.226 418.21,469.942 419.874,473.183 423.992,475.899 428.021,478.527 430.474,478.264 M423.466,481.768 Q423.554,484.659 423.554,489.126 423.729,492.455 425.218,494.47 425.393,494.733 430.124,497.974 433.277,500.164 433.102,504.106 432.927,507.084 431.087,514.443 429.51,520.575 430.036,522.502 M408.574,535.204 Q388.076,531.437 363.285,527.583 313.791,519.962 293.03,519.962 279.189,519.962 263.421,517.071 250.982,514.793 248.354,515.582 243.798,516.983 239.506,524.166 235.214,531.437 235.564,537.394 235.827,541.424 237.228,552.111 238.367,561.659 237.316,565.426 M408.136,560.608 Q400.077,561.922 362.934,562.71 322.638,563.586 316.156,564.112 308.973,564.725 286.109,568.404 265.348,571.733 257.026,571.996 247.127,572.346 238.367,571.12 233.812,570.507 227.242,568.93 223.826,568.142 220.322,570.507 218.482,571.821 214.102,576.376 209.109,581.544 213.664,592.582 214.54,594.772 213.051,607.299 211.386,619.913 212.35,622.366 L215.416,629.812 Q218.832,639.185 220.234,649.084 M281.992,622.366 Q283.218,626.308 285.496,637.608 287.949,649.697 287.686,652.15" test="Avatar Man"/>
      <path id="Layer2_0_2_STROKES" stroke="#FF0" stroke-width="1.752" stroke-linejoin="round" stroke-linecap="round" fill="none" d="M466.302,221.07 Q465.426,225.976 467.178,229.568 469.018,233.334 472.434,233.334 473.836,233.334 475.763,232.283 477.953,231.057 478.566,229.392 M411.552,225.012 Q410.676,231.144 410.676,231.582 410.676,233.364 411.99,235.262 412.689,236.253 413.742,237.276 416.984,240.342 420.312,240.342 422.064,240.342 423.203,238.59 423.904,237.627 425.13,235.524" test="Avatar Man"/>
      <path id="Layer2_0_3_STROKES" stroke="#FFF" stroke-width="1.752" stroke-linejoin="round" stroke-linecap="round" fill="none" d="M496.962,268.812 Q502.832,271.178 503.094,275.12 503.112,275.368 503.138,275.645 503.133,275.712 503.138,275.777 L503.138,275.908 Q503.171,278.187 502.656,282.39 M489.078,284.58 Q494.851,283.203 498.364,278.974 499.541,277.558 500.466,275.82" test="Avatar Man"/>
      <path id="Layer2_0_4_STROKES" stroke="#F90" stroke-width="1.752" stroke-linejoin="round" stroke-linecap="round" fill="none" d="M429.598,525.13 Q431.438,524.955 447.468,531.525 467.441,538.007 488.29,537.832 508.35,537.657 526.046,532.576 540.938,528.284 542.164,528.634 547.595,530.036 551.888,539.672 557.319,551.673 554.428,567.178 550.836,586.713 541.638,601.079 530.864,617.811 515.008,622.804 L502.569,626.658 Q502.394,626.658 503.62,625.344 505.197,623.592 503.62,622.366 496.086,612.642 489.429,604.32 476.376,587.939 467.704,584.26 454.476,578.654 441.512,572.084 425.831,563.937 422.59,560.17 419.612,556.666 418.998,546.417 418.823,535.817 418.648,533.89 418.385,531.262 421.539,529.16 423.291,527.933 429.598,525.13Z" test="Avatar Man"/>
    </g>
    <g id="Avatar-Lady">
      <path fill="#000" stroke="none" d="M227.495,482.889 Q223.655,482.129 220.385,482.131 211.809,482.659 208.18,482.769 202.251,482.95 195.98,480.661 192.228,479.624 186.912,476.686 176.368,470.807 167.026,460.728 157.8,450.776 151.394,439.059 L149.568,440.178 Q149.328,446.829 145.904,462.347 143.353,474.146 143.167,482.981 143.129,484.626 143.176,486.17 143.273,489.356 144.451,504.733 145.126,526.858 142.717,534.993 141.111,540.445 138.817,546.539 137.45,551.098 137.644,557.47 137.753,561.019 138.684,565.411 L138.687,565.499 Q139.544,569.562 141.083,574.373 144.223,584.376 144.377,589.42 144.458,592.075 143.563,594.671 143.074,596.059 142.474,596.742 L144.022,598.112 Q144.123,600.129 143.938,604.05 143.933,604.246 143.948,604.404 143.697,609.82 142.967,618.695 L142.97,618.784 Q142.685,622.334 142.317,626.422 L146.021,628.789 Q148.66,624.939 155.322,617.167 164.647,606.341 166.921,602.463 L167.336,601.564 Q171.023,597.554 174.22,589.13 177.957,578.032 180.578,571.042 181.151,569.489 181.637,567.998 181.885,567.471 182.047,566.923 182.139,566.81 182.127,566.654 182.207,566.592 182.21,566.475 L182.21,566.475 Q187.405,552.545 190.731,543.803 197.614,525.523 201.526,517.254 203.327,513.397 205.804,509.417 206.791,507.806 207.831,506.166 L208.086,505.804 208.171,505.712 Q210.84,501.912 214.048,498.004 221.478,488.919 227.117,485.026 L227.495,482.889 M201.341,325.39 L200.328,312.488 199.885,312.501 Q189.973,312.804 184.151,313.601 172.421,315.288 163.162,319.557 154.256,323.815 146.048,330.62 142.941,333.165 139.921,335.945 139.921,335.987 139.836,336.036 139.623,336.266 139.318,336.495 134.847,340.862 130.655,345.794 123.469,354.163 120.553,363.11 117.635,371.969 116.964,381.911 L116.621,385.199 Q119.431,385.49 122.843,385.895 128.445,386.61 136.288,391.065 136.693,391.317 141.891,394.703 141.941,394.72 141.98,394.701 143.74,395.907 146.049,397.411 143.74,395.907 141.98,394.701 141.941,394.72 141.891,394.703 136.693,391.317 136.288,391.065 128.445,386.61 122.843,385.895 119.431,385.49 116.621,385.199 L114.148,397.056 Q115.962,397.403 117.892,397.827 132.514,400.925 138.17,400.486 132.514,400.925 117.892,397.827 115.962,397.403 114.148,397.056 113.97,397.013 113.791,396.978 101.656,394.551 95.04,394.981 L90.401,399.729 Q92.68,401.973 97.785,406.59 104.58,412.69 108.861,415.376 109.693,415.845 110.392,416.216 116.336,419.4 123.236,419.101 128.278,418.859 135.49,420.056 141.186,420.945 142.937,420.272 L148.558,421.606 146.747,429.014 151.297,438.796 Q151.378,438.946 151.394,439.059 157.8,450.776 167.026,460.728 176.368,470.807 186.912,476.686 192.228,479.624 195.98,480.661 202.251,482.95 208.18,482.769 211.809,482.659 220.385,482.131 223.655,482.129 227.495,482.889 L227.583,482.886 Q230.582,483.549 233.926,484.641 244.123,487.874 247.151,488.401 253.655,489.62 257.425,488.354 259.176,487.68 263.858,484.348 266.719,482.312 268.691,474.368 270.864,464.292 272.381,458.842 274.064,453.033 280.707,441.403 281.583,439.863 282.388,438.429 287.847,428.672 289.916,423.849 290.143,423.328 290.328,422.862 293.534,414.703 290.834,404.598 288.736,396.779 284.503,391.593 L278.394,383.009 Q277.834,383.395 277.086,383.669 271.473,385.524 271.558,379.586 L266.708,377.431 250.344,381.119 Q250.44,381.566 250.549,381 250.31,381.731 250.001,381.484 247.326,378.561 243.186,375.845 234.061,370.012 225.873,371.679 217.952,373.338 204.566,381.719 191.729,390.327 185.278,394.088 184.41,394.669 183.626,395.113 179.274,397.638 163.667,405.821 162.1,406.648 160.702,407.328 156.637,409.571 154.081,410.985 151.379,412.653 150.522,413.397 151.379,412.653 154.081,410.985 156.637,409.571 160.702,407.328 162.1,406.648 163.667,405.821 179.274,397.638 183.626,395.113 184.41,394.669 185.278,394.088 191.729,390.327 204.566,381.719 217.952,373.338 225.873,371.679 234.061,370.012 243.186,375.845 247.326,378.561 250.001,381.484 L250.344,381.119 Q250.292,380.901 250.242,380.679 249.415,377.179 248.771,373.106 247.332,363.672 248.546,359.914 249.516,356.873 256.856,353.549 263.404,350.426 262.902,348.492 261.504,343.308 253.551,335.224 L245.895,328.194 Q232.393,337.657 220.057,346.522 207.146,355.908 195.541,364.632 175.982,379.756 168.874,384.845 160.543,390.82 153.833,394.162 151.603,395.32 149.554,396.153 151.603,395.32 153.833,394.162 160.543,390.82 168.874,384.845 175.982,379.756 195.541,364.632 207.146,355.908 220.057,346.522 L214.136,338.287 Q213.307,337.249 208.278,332.088 202.792,326.497 201.341,325.39 M235.103,389.645 Q233.823,388.355 229.645,387.863 226.478,387.49 217.039,392.765 214.009,394.498 210.34,396.779 195.214,406.187 192.736,406.262 195.214,406.187 210.34,396.779 214.009,394.498 217.039,392.765 226.478,387.49 229.645,387.863 233.823,388.355 235.103,389.645 236.382,390.935 240.617,393.286 236.382,390.935 235.103,389.645 M229.879,404.243 Q232.018,401.786 231.97,400.193 231.956,399.751 229.676,397.606 231.956,399.751 231.97,400.193 232.018,401.786 229.879,404.243 227.57,406.971 225.358,407.039 218.897,407.236 218.757,402.634 218.735,401.926 218.816,401.658 219.065,401.119 220.411,398.774 219.065,401.119 218.816,401.658 218.735,401.926 218.757,402.634 218.897,407.236 225.358,407.039 227.57,406.971 229.879,404.243 M212,459.887 Q211.611,460.749 210.989,461.601 209.292,464.045 208.252,464.785 209.292,464.045 210.989,461.601 211.611,460.749 212,459.887 213.349,457.669 213.291,455.773 L212.873,453.66 213.291,455.773 Q213.349,457.669 212,459.887 M254.798,428.375 Q257.039,428.306 259.984,427.065 263.168,425.832 267.133,423.304 272.796,419.612 274.124,417.244 274.631,416.456 274.612,415.812 274.59,415.104 272.747,412.768 270.993,410.43 270.277,410.186 270.993,410.43 272.747,412.768 274.59,415.104 274.612,415.812 274.631,416.456 274.124,417.244 272.796,419.612 267.133,423.304 263.168,425.832 259.984,427.065 257.039,428.306 254.798,428.375 251.347,428.48 248.97,426.072 245.22,422.201 244.949,422.032 245.22,422.201 248.97,426.072 251.347,428.48 254.798,428.375 M275.106,432.007 Q275.084,431.299 273.987,430.181 275.084,431.299 275.106,432.007 275.141,433.158 274.728,434.145 274.315,435.132 273.454,435.955 271.645,437.605 269.078,437.683 268.105,437.713 266.045,436.979 264.073,436.241 262.807,435.394 264.073,436.241 266.045,436.979 268.105,437.713 269.078,437.683 271.645,437.605 273.454,435.955 274.315,435.132 274.728,434.145 275.141,433.158 275.106,432.007 M233.662,464.364 Q237.548,463.98 241.522,463.593 237.548,463.98 233.662,464.364 223.002,466.284 213.808,461.072 223.002,466.284 233.662,464.364 M173.027,355.486 Q168.813,350.92 162.277,348.639 155.83,346.355 150.19,347.324 155.83,346.355 162.277,348.639 168.813,350.92 173.027,355.486Z" test="Avatar Lady" stroke-width="1.771"/>
      <path id="Layer1_0_1_STROKES" stroke="#009EFF" stroke-width="1.771" stroke-linejoin="round" stroke-linecap="round" fill="none" d="M266.708,377.431 Q265.519,373.304 268.745,371.611 271.88,369.832 274.859,368.767 M244.076,323.732 Q244.317,322.927 244.304,322.485 244.277,321.6 241.183,316.025 237.529,309.493 236.961,308.27 234.873,303.727 230.148,302.72 225.267,302.426 223.561,301.681 223.955,302.997 224.088,307.334 L224.105,313.711 Q223.842,313.808 221.874,313.159 219.728,312.516 218.755,312.546 215.303,312.651 213.439,312.531 208.998,312.135 204.042,312.286 L200.328,312.488 M201.341,325.39 Q202.792,326.497 208.278,332.088 213.307,337.249 214.136,338.287 M223.561,301.681 Q223.555,301.592 223.47,301.595 L223.462,301.329 Q223.554,301.502 223.561,301.681Z M199.885,312.501 Q199.88,312.324 199.968,312.322 200.143,312.488 200.328,312.488 L199.885,312.501 Q189.973,312.804 184.151,313.601 172.421,315.288 163.162,319.557 154.256,323.815 146.048,330.62 142.941,333.165 139.966,335.943 139.921,335.987 139.88,336.035 139.623,336.266 139.362,336.493 134.847,340.862 130.655,345.794 123.469,354.163 120.553,363.11 117.635,371.969 116.964,381.911 M116.622,385.243 Q119.431,385.49 122.843,385.895 128.445,386.61 136.288,391.065 136.693,391.317 141.891,394.703 141.941,394.72 141.981,394.745 143.74,395.907 146.049,397.411 M240.617,393.286 Q236.382,390.935 235.103,389.645 233.823,388.355 229.645,387.863 226.478,387.49 217.04,392.809 214.009,394.498 210.34,396.779 195.214,406.187 192.736,406.262 M244.949,422.032 Q245.22,422.201 248.97,426.072 251.347,428.48 254.798,428.375 257.039,428.306 260.03,427.108 263.168,425.832 267.133,423.304 272.796,419.612 274.168,417.243 274.631,416.456 274.612,415.812 274.59,415.104 272.747,412.768 270.993,410.43 270.277,410.186 M284.503,391.593 Q288.736,396.779 290.834,404.598 293.534,414.703 290.328,422.862 290.143,423.328 289.916,423.849 287.847,428.672 282.388,438.429 281.583,439.863 280.707,441.403 274.064,453.033 272.381,458.842 270.864,464.292 268.691,474.368 266.719,482.312 263.858,484.348 259.176,487.68 257.425,488.354 253.655,489.62 247.151,488.401 244.123,487.874 233.926,484.641 230.582,483.549 227.585,482.93 L227.496,482.933 M227.117,485.026 Q221.478,488.919 214.048,498.004 210.84,501.912 208.216,505.711 L208.13,505.802 207.875,506.164 Q206.791,507.806 205.804,509.417 203.327,513.397 201.526,517.254 197.614,525.523 190.731,543.803 187.405,552.545 182.255,566.473 L182.212,566.519 Q182.207,566.592 182.171,566.653 182.139,566.81 182.092,566.966 181.885,567.471 181.681,567.997 181.151,569.489 180.578,571.042 177.957,578.032 174.22,589.13 171.023,597.554 167.336,601.564 M166.921,602.463 Q164.647,606.341 155.322,617.167 148.66,624.939 146.022,628.833 145.187,630.097 144.758,630.954 M262.807,435.394 Q264.073,436.241 266.045,436.979 268.105,437.713 269.078,437.683 271.645,437.605 273.454,435.955 274.315,435.132 274.728,434.145 275.141,433.158 275.106,432.007 275.084,431.299 273.987,430.181 M227.496,482.933 Q223.655,482.129 220.385,482.131 211.809,482.659 208.18,482.769 202.251,482.95 195.98,480.661 192.228,479.624 186.912,476.686 176.368,470.807 167.026,460.728 157.8,450.776 151.44,439.102 M149.568,440.178 Q149.328,446.829 145.904,462.347 143.353,474.146 143.167,482.981 143.129,484.626 143.176,486.17 143.273,489.356 144.451,504.733 145.126,526.858 142.717,534.993 141.111,540.445 138.817,546.539 137.45,551.098 137.644,557.47 137.753,561.019 138.685,565.455 L138.687,565.499 Q139.544,569.562 141.083,574.373 144.223,584.376 144.377,589.42 144.458,592.075 143.563,594.671 143.074,596.059 142.476,596.786 M144.022,598.112 Q144.123,600.129 143.939,604.094 143.933,604.246 143.948,604.404 143.697,609.82 142.968,618.74 L142.97,618.784 Q142.685,622.334 142.317,626.422 M202.39,519.442 L202.012,524.503 Q202.039,525.388 202.767,528.909 203.494,532.43 203.521,533.315 203.548,534.2 204.518,539.84 205.398,545.482 205.426,546.367 205.652,553.801 195.806,585.282 185.871,616.766 186.073,623.404 186.27,629.864 196.472,644.878 204.448,656.593 214.451,667.981 221.699,676.175 239.077,714.444 239.112,715.595 239.828,715.838 240.453,715.997 240.522,715.374 M154.967,663.595 Q157.217,664.766 169.065,675.655 181.739,687.493 181.817,690.059 181.915,693.245 204.177,708.688 226.439,724.131 226.547,727.671 226.58,728.733 226.931,728.633 227.282,728.534 227.288,728.711 L227.977,728.07 M173.027,355.486 Q168.813,350.92 162.277,348.639 155.83,346.355 150.19,347.324 M116.622,385.243 Q116.534,385.256 116.445,385.248 116.355,385.241 116.268,385.254 112.001,384.861 109.171,384.895 101.554,384.95 96.13,387.153 89.393,389.927 88.613,390.482 87.313,391.408 87.477,393.883 87.735,396.533 89.119,398.351 89.503,398.796 90.217,399.513 90.308,399.595 90.4,399.685 L90.445,399.728 M95.04,394.981 Q101.656,394.551 113.791,396.978 113.97,397.013 114.148,397.056 M90.445,399.728 Q92.68,401.973 97.785,406.59 104.58,412.69 108.905,415.375 109.693,415.845 110.392,416.216 116.336,419.4 123.236,419.101 128.278,418.859 135.49,420.056 141.186,420.945 142.937,420.272 M146.747,429.014 L151.297,438.796 Q151.378,438.946 151.44,439.102 M105.148,421.425 Q102.327,424.788 100.33,443.54 99.439,452.071 99.235,454.115 98.992,457.754 99.116,461.825 99.268,466.781 101.641,477.782 103.925,488.785 104.114,494.98 104.134,495.624 104.155,496.307 104.174,499.255 103.912,502.87 103.496,508.796 102.335,516.515 101.522,521.927 100.345,528.224 96.233,550.23 96.783,568.284 96.873,571.204 98.489,580.633 100.089,589.531 99.964,591.218 M114.148,397.056 Q115.962,397.403 117.892,397.827 132.514,400.925 138.17,400.486 M126.982,440.247 L127.226,442.454 Q127.288,444.489 126.128,450.017 124.971,455.633 124.934,460.24 124.825,465.381 125.09,474.054 125.119,475.028 125.568,478.115 126.019,481.29 126.054,482.44 126.056,482.504 126.058,482.573 126.115,484.952 125.645,489.362 125.185,494.603 124.429,495.954 123.662,496.952 122.236,499.565 121.227,501.323 120.731,502.489 120.235,503.656 120.252,504.231 M124.036,541.143 Q124.058,541.851 123.217,549.141 122.288,556.433 122.32,557.495 122.38,559.442 124.138,564.792 124.98,567.489 125.419,569.049 125.82,570.59 125.834,571.029 125.925,574.038 123.529,579.692 121.379,584.718 119.666,586.631 M104.155,496.307 Q99.129,497.081 93.463,503.011 88.212,508.451 86.903,514.461 86.526,516.214 86.48,518.018 86.299,523.692 83.766,582.943 81.458,640.857 81.559,647.055 81.686,651.215 81.285,658.402 81.236,659.458 81.213,660.397 L81.216,660.486 Q81.217,663.506 81.672,665.3 82.075,666.882 120.273,719.752 158.188,772.099 158.385,775.636 M84.768,514.172 Q76.405,518.768 68.02,522.656 56.052,528.158 49.339,528.806 35.364,529.498 19.069,529.641 -13.434,529.835 -24.945,527.086 M142.476,596.786 Q141.921,597.468 141.257,597.488 M142.317,626.422 L142.318,626.466 Q142.159,628.5 141.96,630.685 140.895,642.357 139.293,657.961 138.961,661.603 148.962,678.749 161.295,699.721 163.97,706.106 182.224,749.84 183.268,769.562 M-16.739,633.489 Q-9.8,634.429 7.469,640.103 26.262,646.35 36.526,651.795 50.482,659.165 54.15,660.381 61.759,662.984 71.55,661.622 75.519,661.058 78.864,660.336" test="Avatar Lady"/>
      <path id="Layer1_0_2_STROKES" stroke="#FFBC00" stroke-width="1.771" stroke-linejoin="round" stroke-linecap="round" fill="none" d="M220.101,346.52 Q232.393,337.657 245.895,328.194 L253.551,335.224 Q261.504,343.308 262.902,348.492 263.404,350.426 256.856,353.549 249.516,356.873 248.546,359.914 247.332,363.672 248.771,373.106 249.415,377.179 250.242,380.679 250.292,380.901 250.344,381.119 M149.554,396.153 Q151.603,395.32 153.835,394.206 160.543,390.82 168.874,384.845 175.982,379.756 195.541,364.632 207.146,355.908 220.101,346.52 M250.046,381.483 Q250.31,381.731 250.549,381 250.44,381.566 250.344,381.119 M250.046,381.483 Q247.326,378.561 243.186,375.845 234.061,370.012 225.873,371.679 217.952,373.338 204.566,381.719 191.729,390.327 185.323,394.131 184.41,394.669 183.626,395.113 179.274,397.638 163.667,405.821 162.1,406.648 160.703,407.373 156.637,409.571 154.126,411.028 151.379,412.653 150.522,413.397" test="Avatar Lady"/>
      <path id="Layer1_0_3_STROKES" stroke="#FF0" stroke-width="1.771" stroke-linejoin="round" stroke-linecap="round" fill="none" d="M271.558,379.586 Q271.473,385.524 277.086,383.669 277.834,383.395 278.438,383.008 280.553,381.597 280.743,378.686 280.916,375.669 277.972,374.961 M220.411,398.774 Q219.065,401.119 218.816,401.658 218.735,401.926 218.757,402.634 218.897,407.236 225.358,407.039 227.57,406.971 229.879,404.243 232.018,401.786 231.97,400.193 231.956,399.751 229.676,397.606" test="Avatar Lady"/>
      <path id="Layer1_0_4_STROKES" stroke="#FFF" stroke-width="1.771" stroke-linejoin="round" stroke-linecap="round" fill="none" d="M212.873,453.66 L213.291,455.773 Q213.349,457.669 212.045,459.93 211.611,460.749 210.989,461.601 209.292,464.045 208.252,464.785 M213.808,461.072 Q223.002,466.284 233.662,464.364 237.548,463.98 241.522,463.593" test="Avatar Lady"/>
    </g>
  </g>
</svg>