<?xml version="1.0" encoding="utf-8"?>
<svg id="EdithAnim13" image-rendering="inherit" baseProfile="basic" version="1.1" x="0px" y="0px" width="800" height="600" xmlns="http://www.w3.org/2000/svg" xmlns:xlink="http://www.w3.org/1999/xlink">
  <g id="22_Avatarf128r1" overflow="visible">
    <g id="Avatar-Manf0r1">
      <g id="Tailf0r1">
        <path id="Layer3_0_1_STROKES" stroke="#009EFF" stroke-width="2.414" stroke-linejoin="round" stroke-linecap="round" fill="none" d="M588.964,630.961 Q587.748,613.224 587.079,595.478 586.48,578.27 580.892,562.016 574.75,544.313 557.632,536.258 536.829,526.552 533.813,548.248 533.373,551.41 535.439,554.184 540.325,560.851 547.272,565.12 554.535,562.469 559.996,567.478 566.571,573.56 569.464,582.679 576.224,604.196 581.608,625.894 583.13,631.964 582.107,638.124" test="Tail_2.3242325232423263e+312.3242325232423263e+31_2.3242325232423263e+312.3242325232423263e+31_2.3242325232423263e+312.3242325232423263e+31_2.3242325232423263e+312.3242325232423263e+31_2.3242325232423263e+312.3242325232423263e+31_2.3242325232423263e+312.3242325232423263e+31_2.3242325232423263e+312.3242325232423263e+31_2.3242325232423263e+312.3242325232423263e+31_2.3242325232423263e+312.3242325232423263e+31_2.3242325232423263e+312.3242325232423263e+31_2.3242325232423263e+312.3242325232423263e+31_2.3242325232423263e+312.3242325232423263e+31_2.3242325232423263e+312.3242325232423263e+31_2.3242325232423263e+312.3242325232423263e+31_2.3242325232423263e+312.3242325232423263e+31_2.3242325232423263e+312.3242325232423263e+31_2.3242325232423263e+312.3242325232423263e+31_2.3242325232423263e+312.3242325232423263e+31_22"/>
      </g>
      <path fill="#000" stroke="none" d="M548.757,540.729 Q544.457,531.076 539.016,529.672 537.788,529.322 522.87,533.621 505.145,538.711 485.05,538.886 464.166,539.062 444.159,532.568 428.1,525.987 426.258,526.162 419.94,528.97 418.185,530.199 415.025,532.305 415.289,534.938 415.464,536.868 415.64,547.486 416.254,557.752 419.238,561.262 422.484,565.036 438.191,573.197 451.179,579.778 464.429,585.394 473.116,589.079 486.191,605.488 492.86,613.825 500.406,623.565 501.986,624.794 500.406,626.548 499.178,627.865 499.353,627.865 L511.814,624.004 Q527.697,619.002 538.49,602.242 547.704,587.851 551.301,568.283 554.197,552.751 548.757,540.729 M554.373,175.601 L551.214,174.285 Q551.168,174.396 551.126,174.46 550.175,176.889 549.546,179.111 547.879,185.078 545.247,194.204 545.187,194.364 545.071,194.468 542.667,200.856 537.7,203.681 527.258,209.648 521.466,212.456 L525.415,221.231 Q524.976,227.637 526.995,270.547 527.068,272.13 527.082,273.618 528.72,307.147 528.925,317.318 528.923,317.384 528.925,317.405 528.955,319.757 528.925,320.828 528.574,334.604 531.119,356.366 531.47,359.438 536.296,356.893 541.122,354.26 540.771,352.417 540.596,351.101 542.614,351.803 544.281,352.417 544.72,352.856 544.808,352.944 551.301,330.48 L556.566,339.255 Q556.654,339.343 559.638,319.95 L564.902,322.144 Q565.004,322.247 564.288,312.93 564.327,312.909 564.288,312.842 563.288,298.518 560.427,262.123 558.692,239.883 557.356,225.268 555.703,205.731 554.811,199.82 554.562,198.097 554.373,197.539 554.562,198.097 554.811,199.82 555.703,205.731 557.356,225.268 L558.76,225.18 Q560.515,225.005 565.692,219.827 570.255,215.44 573.678,216.844 576.749,218.16 595.176,244.836 616.412,271.863 633.786,276.075 618.167,276.602 595.001,294.415 587.805,299.943 580.698,306.612 L579.645,307.577 Q580.894,320.915 584.997,366.545 L585.963,366.458 Q590.526,363.913 622.467,338.816 653.267,314.51 663.183,305.91 670.554,299.504 676.608,289.413 679.68,284.236 683.365,277.83 685.12,275.812 688.893,273.004 691.965,270.196 692.14,265.545 692.315,260.982 658.97,239.483 622.028,216.493 614.92,211.14 594.036,195.433 584.295,189.115 572.691,181.507 564.815,178.146 558.27,175.361 554.373,175.601 M491.982,170.249 Q494.615,169.81 497.072,169.371 501.02,169.371 500.757,174.197 508.304,173.32 511.287,174.197 514.446,175.163 514.359,178.585 L519.273,180.866 Q522.723,174.159 531.119,168.581 535.945,165.335 540.069,164.282 540.134,164.267 540.157,164.194 L539.016,157.174 Q540.333,157.086 537.788,154.015 533.137,148.662 529.364,144.011 524.274,137.693 506.549,131.99 491.017,126.988 482.418,126.9 454.864,126.637 435.91,134.359 424.152,139.185 413.621,153.752 411.603,156.512 409.936,159.017 405.231,166.475 403.794,172.091 L403.794,174.197 Q403.969,174.197 404.759,174.46 405.636,174.636 406.251,174.636 409.41,174.636 412.569,172.091 416.166,169.108 419.589,168.493 L419.589,170.687 423.537,170.687 Q426.17,170.161 431.172,168.669 435.032,167.441 435.822,167.616 L435.822,169.81 Q436.7,169.81 440.21,170.249 446.001,170.249 451.617,167.177 L456.005,167.177 456.005,168.932 463.025,168.932 Q474.608,165.422 475.31,165.422 476.451,165.422 477.504,166.212 478.732,167.09 481.013,167.177 481.013,169.371 480.575,170.249 L491.982,170.249Z" test="Avatar Man" stroke-width="1.755"/>
      <path id="Layer2_0_1_STROKES" stroke="#009EFF" stroke-width="1.755" stroke-linejoin="round" stroke-linecap="round" fill="none" d="M514.359,178.585 Q514.446,175.163 511.287,174.197 508.304,173.32 500.757,174.197 501.02,169.371 497.072,169.371 494.615,169.81 491.982,170.249 L480.575,170.249 Q481.013,169.371 481.013,167.177 478.732,167.09 477.504,166.212 476.451,165.422 475.31,165.422 474.608,165.422 463.025,168.932 L456.005,168.932 456.005,167.177 451.617,167.177 Q446.001,170.249 440.21,170.249 436.7,169.81 435.822,169.81 L435.822,167.616 Q435.032,167.441 431.172,168.669 426.17,170.161 423.537,170.687 L419.589,170.687 419.589,168.493 Q416.166,169.108 412.569,172.091 409.41,174.636 406.251,174.636 405.636,174.636 404.759,174.46 403.969,174.197 403.794,174.197 L403.794,172.091 Q405.231,166.475 409.98,159.06 411.603,156.512 413.621,153.752 424.152,139.185 435.91,134.359 454.864,126.637 482.418,126.9 491.017,126.988 506.549,131.99 524.274,137.693 529.364,144.011 533.137,148.662 537.788,154.015 540.333,157.086 539.016,157.174 M540.201,164.238 Q540.266,164.245 540.333,164.238 542.986,163.651 548.669,163.316 552.793,163.141 555.338,161.473 556.742,160.596 558.76,158.929 559.55,158.49 556.303,164.106 554.811,166.651 553.583,169.108 552.832,170.584 552.223,172.004 552.077,172.297 551.959,172.574 551.703,173.121 551.477,173.671 551.34,173.98 551.214,174.285 M554.373,175.601 Q558.27,175.361 564.859,178.19 572.691,181.507 584.295,189.115 594.036,195.433 614.92,211.14 622.028,216.493 658.97,239.483 692.315,260.982 692.14,265.545 691.965,270.196 688.893,273.004 685.12,275.812 683.365,277.83 679.68,284.236 676.608,289.413 670.554,299.504 663.183,305.91 653.267,314.51 622.467,338.816 590.526,363.913 585.963,366.458 585.508,366.754 585.085,367.028 579.978,370.341 577.714,371.635 573.678,374.004 570.168,373.477 M553.583,169.108 Q552.216,170.607 551.082,171.477 549.936,172.312 549.02,172.53 545.685,172.793 541.649,173.408 536.472,174.197 533.664,176.128 529.89,179.375 526.293,182.182 521.817,185.693 519.009,187.36 L517.079,188.325 Q517.502,184.453 519.316,180.91 M513.481,178.585 L514.359,178.585 M519.316,180.91 Q522.723,174.159 531.119,168.581 535.945,165.335 540.069,164.282 540.134,164.267 540.201,164.238 M551.214,174.285 Q551.168,174.396 551.126,174.504 550.175,176.889 549.546,179.111 547.879,185.078 545.247,194.204 545.187,194.364 545.115,194.511 542.667,200.856 537.7,203.681 527.258,209.648 521.466,212.456 M525.415,221.231 Q524.976,227.637 526.995,270.547 527.068,272.13 527.126,273.662 528.72,307.147 528.925,317.318 528.923,317.384 528.925,317.449 528.955,319.757 528.925,320.828 528.574,334.604 531.119,356.366 531.47,359.438 536.296,356.893 541.122,354.26 540.771,352.417 540.596,351.101 542.614,351.803 544.281,352.417 544.72,352.856 544.808,352.944 551.301,330.48 L556.566,339.255 Q556.654,339.343 559.638,319.95 L564.902,322.144 Q565.004,322.247 564.332,312.974 564.327,312.909 564.332,312.842 563.288,298.518 560.427,262.123 558.692,239.883 557.4,225.268 555.703,205.731 554.811,199.82 554.562,198.097 554.373,197.539 M579.645,307.621 L580.698,306.612 Q587.805,299.943 595.001,294.415 618.167,276.602 633.786,276.075 616.412,271.863 595.176,244.836 576.749,218.16 573.678,216.844 570.255,215.44 565.692,219.827 560.515,225.005 558.76,225.18 M460.041,218.16 Q461.064,218.325 463.2,218.423 465.636,218.511 469.518,218.511 476.363,218.423 479.346,218.16 484.875,217.634 485.577,217.458 489.087,216.493 489.438,213.772 M511.375,288.36 Q512.252,294.064 514.271,302.312 516.728,312.228 518.834,317.318 M413.534,285.727 Q413.534,285.815 413.885,294.766 414.148,301.172 416.605,305.471 417.395,306.851 418.579,308.191 422.174,312.205 429.417,315.826 439.42,320.915 449.073,321.266 L452.626,321.53 452.758,321.53 Q462.06,321.881 464.868,321.705 469.694,321.354 475.398,319.511 479.609,318.195 490.929,308.016 498.974,300.708 507.514,291.782 507.625,291.675 507.733,291.563 507.8,291.5 507.865,291.431 507.955,291.347 508.041,291.256 509.388,289.825 510.761,288.36 510.85,288.265 510.936,288.184 510.971,288.134 511.024,288.097 511.038,288.046 511.068,288.009 521.4,276.993 522.783,273.881 M452.583,322.144 Q451.793,325.917 450.301,334.516 448.809,341.975 446.44,345.836 M574.994,312.053 L579.645,307.621 M565.341,381.814 Q565.254,381.989 556.391,405.068 550.073,421.477 547.791,430.954 544.983,442.449 542.526,476.672 540.069,510.016 541.21,517.387 M490.666,426.917 Q491.193,428.848 492.948,429.374 493.474,429.55 494.878,429.55 497.16,429.55 498.037,428.497 498.388,428.146 499.792,424.899 M455.566,414.194 Q455.391,430.164 456.531,432.621 458.374,437.008 468.729,437.008 473.73,437.008 474.169,436.921 474.696,436.833 476.626,435.692 M456.882,468.16 Q456.005,470.792 456.005,473.688 456.005,478.514 459.866,478.778 462.411,478.865 470.484,478.69 M453.811,504.576 Q458.286,507.647 461.182,508.349 463.288,508.788 466.974,508.086 M498.651,628.391 Q492.07,631.463 474.432,634.797 456.619,638.132 437.665,639.799 421.256,641.291 382.646,640.501 353.513,639.974 336.753,638.921 323.853,638.132 297.704,635.411 291.21,634.709 286.384,635.762 282.962,636.552 281.909,635.85 M408.269,158.051 Q404.934,156.033 400.986,153.927 393.088,149.803 390.719,150.154 388.174,150.505 390.28,163.053 392.035,173.759 393.79,178.234 M398.178,190.08 Q398.88,192.976 400.722,198.767 401.775,203.418 399.055,205.436 395.705,207.934 392.518,210.263 L392.474,210.306 Q344.596,245.857 338.508,247.995 333.155,249.575 331.839,250.013 329.996,250.715 329.733,252.383 329.294,255.805 329.118,267.563 328.855,281.077 329.733,283.972 332.716,295.907 355.707,329.866 378.258,363.123 391.596,376.11 M399.933,220.354 Q402.653,221.758 408.093,222.46 408.314,222.493 408.532,222.504 413.667,223.239 418.799,222.986 422.046,222.811 429.592,221.582 435.734,220.529 437.665,220.793 M399.494,243.169 Q398.441,244.924 387.121,256.243 376.854,266.51 374.046,269.055 M420.905,263.702 Q424.854,263.702 429.241,262.825 L446.352,262.825 Q441.087,268.441 438.104,271.424 432.576,276.865 431.259,276.865 428.89,276.865 425.38,271.951 421.782,266.335 420.466,265.019 M364.394,264.229 Q365.9,267.867 369.132,272.477 369.167,272.528 369.22,272.565 377.265,284.102 395.984,301.698 404.68,309.864 411.077,316.089 425.88,330.448 428.451,334.429 M399.055,400.68 Q398.441,414.632 401.249,421.301 403.004,425.338 408.357,429.901 413.885,434.376 418.799,435.78 M413.972,443.677 Q414.06,446.398 413.621,457.63 413.446,468.16 414.85,470.88 416.517,474.127 420.642,476.847 424.678,479.48 427.135,479.216 M420.115,482.726 Q420.203,485.622 420.203,490.097 420.378,493.432 421.87,495.45 422.046,495.713 426.784,498.96 429.943,501.154 429.768,505.102 429.592,508.086 427.749,515.457 426.17,521.6 426.696,523.53 M405.198,536.254 Q384.664,532.48 359.831,528.62 310.252,520.985 289.455,520.985 275.591,520.985 259.796,518.089 247.335,515.808 244.703,516.598 240.14,518.002 235.84,525.197 231.54,532.48 231.891,538.448 232.155,542.484 233.559,553.19 234.699,562.754 233.646,566.527 M404.759,561.701 Q396.686,563.017 359.48,563.807 319.115,564.685 312.621,565.211 305.426,565.825 282.523,569.511 261.726,572.845 253.39,573.109 243.474,573.46 234.699,572.231 230.136,571.617 223.555,570.037 220.133,569.248 216.623,571.617 214.78,572.933 210.393,577.496 205.391,582.674 209.954,593.73 210.831,595.924 209.34,608.472 207.672,621.108 208.638,623.565 L211.709,631.024 Q215.131,640.413 216.535,650.329 M278.399,623.565 Q279.627,627.514 281.909,638.834 284.366,650.943 284.102,653.4" test="Avatar Man"/>
      <path id="Layer2_0_2_STROKES" stroke="#FF0" stroke-width="1.755" stroke-linejoin="round" stroke-linecap="round" fill="none" d="M463.025,221.582 Q462.147,226.496 463.902,230.094 465.745,233.867 469.167,233.867 470.571,233.867 472.502,232.814 474.696,231.586 475.31,229.919 M408.181,225.531 Q407.304,231.674 407.304,232.112 407.304,233.897 408.62,235.798 409.32,236.791 410.375,237.816 413.621,240.887 416.956,240.887 418.711,240.887 419.852,239.132 420.554,238.167 421.782,236.061" test="Avatar Man"/>
      <path id="Layer2_0_3_STROKES" stroke="#FFF" stroke-width="1.755" stroke-linejoin="round" stroke-linecap="round" fill="none" d="M493.737,269.406 Q499.617,271.775 499.88,275.724 499.897,275.973 499.924,276.251 499.918,276.317 499.924,276.382 L499.924,276.514 Q499.957,278.797 499.441,283.007 M485.84,285.201 Q491.622,283.822 495.141,279.585 496.321,278.167 497.247,276.426" test="Avatar Man"/>
      <path id="Layer2_0_4_STROKES" stroke="#F90" stroke-width="1.755" stroke-linejoin="round" stroke-linecap="round" fill="none" d="M426.258,526.162 Q428.1,525.987 444.159,532.568 464.166,539.062 485.05,538.886 505.145,538.711 522.87,533.621 537.788,529.322 539.016,529.672 544.457,531.076 548.757,540.729 554.197,552.751 551.301,568.283 547.704,587.851 538.49,602.242 527.697,619.002 511.814,624.004 L499.353,627.865 Q499.178,627.865 500.406,626.548 501.986,624.794 500.406,623.565 492.86,613.825 486.191,605.488 473.116,589.079 464.429,585.394 451.179,579.778 438.191,573.197 422.484,565.036 419.238,561.262 416.254,557.752 415.64,547.486 415.464,536.868 415.289,534.938 415.025,532.305 418.185,530.199 419.94,528.97 426.258,526.162Z" test="Avatar Man"/>
    </g>
    <g id="Avatar-Lady">
      <path fill="#000" stroke="none" d="M226.299,486.672 Q222.454,485.895 219.177,485.884 210.58,486.378 206.944,486.474 201.001,486.632 194.726,484.313 190.97,483.258 185.654,480.292 175.112,474.358 165.79,464.22 156.584,454.21 150.212,442.442 L148.377,443.556 Q148.11,450.22 144.616,465.757 142.012,477.571 141.791,486.425 141.746,488.074 141.787,489.621 141.871,492.814 142.99,508.229 143.577,530.404 141.13,538.546 139.499,544.004 137.176,550.101 135.788,554.665 135.957,561.051 136.051,564.608 136.967,569.013 L136.969,569.102 Q137.812,573.177 139.335,578.004 142.441,588.041 142.575,593.097 142.646,595.758 141.738,598.356 141.242,599.745 140.639,600.426 L142.185,601.806 Q142.277,603.827 142.076,607.756 142.071,607.953 142.085,608.11 141.812,613.537 141.045,622.429 L141.047,622.517 Q140.747,626.074 140.362,630.169 L144.065,632.556 Q146.725,628.708 153.432,620.947 162.821,610.135 165.115,606.258 L165.535,605.359 Q169.245,601.355 172.484,592.926 176.272,581.819 178.928,574.825 179.508,573.27 180.001,571.779 180.251,571.252 180.416,570.702 180.509,570.59 180.498,570.434 180.578,570.371 180.582,570.254 L180.582,570.254 Q185.843,556.316 189.212,547.569 196.183,529.276 200.136,521.006 201.956,517.148 204.455,513.169 205.451,511.559 206.5,509.919 L206.756,509.557 206.843,509.466 Q209.533,505.669 212.763,501.765 220.245,492.69 225.912,488.812 L226.299,486.672 M200.723,328.731 L199.759,315.797 199.315,315.809 Q189.381,316.072 183.543,316.848 171.781,318.491 162.485,322.732 153.543,326.963 145.291,333.75 142.166,336.288 139.129,339.062 139.129,339.104 139.043,339.153 138.829,339.382 138.522,339.61 134.024,343.969 129.803,348.895 122.569,357.253 119.611,366.207 116.65,375.073 115.938,385.034 L115.581,388.327 Q118.396,388.631 121.813,389.05 127.425,389.789 135.267,394.285 135.671,394.539 140.867,397.954 140.917,397.97 140.956,397.951 142.715,399.167 145.022,400.684 142.715,399.167 140.956,397.951 140.917,397.97 140.867,397.954 135.671,394.539 135.267,394.285 127.425,389.789 121.813,389.05 118.396,388.631 115.581,388.327 L113.055,400.199 Q114.872,400.554 116.804,400.988 131.445,404.15 137.115,403.734 131.445,404.15 116.804,400.988 114.872,400.554 113.055,400.199 112.876,400.156 112.698,400.12 100.546,397.639 93.914,398.044 L89.247,402.783 Q91.522,405.041 96.619,409.689 103.404,415.829 107.683,418.538 108.515,419.011 109.214,419.385 115.158,422.601 122.074,422.329 127.127,422.106 134.35,423.335 140.055,424.249 141.812,423.581 L147.44,424.941 145.595,432.357 150.116,442.179 Q150.196,442.329 150.212,442.442 156.584,454.21 165.79,464.22 175.112,474.358 185.654,480.292 190.97,483.258 194.726,484.313 201.001,486.632 206.944,486.474 210.58,486.378 219.177,485.884 222.454,485.895 226.299,486.672 L226.388,486.669 Q229.39,487.346 232.737,488.454 242.943,491.734 245.975,492.275 252.488,493.523 256.271,492.268 258.029,491.6 262.734,488.28 265.609,486.251 267.618,478.298 269.836,468.209 271.378,462.754 273.088,456.939 279.792,445.311 280.676,443.772 281.488,442.337 286.998,432.582 289.091,427.756 289.32,427.235 289.508,426.769 292.754,418.606 290.089,408.468 288.017,400.624 283.796,395.41 L277.709,386.783 Q277.145,387.168 276.395,387.44 270.763,389.275 270.871,383.325 L266.02,381.146 249.607,384.776 Q249.7,385.225 249.808,385.659 249.57,385.39 249.261,385.141 246.591,382.2 242.454,379.463 233.333,373.58 225.121,375.217 217.176,376.848 203.728,385.193 190.829,393.768 184.349,397.512 183.476,398.091 182.689,398.532 178.318,401.045 162.645,409.182 161.071,410.005 159.667,410.681 155.584,412.913 153.017,414.319 150.302,415.98 149.442,416.722 150.302,415.98 153.017,414.319 155.584,412.913 159.667,410.681 161.071,410.005 162.645,409.182 178.318,401.045 182.689,398.532 183.476,398.091 184.349,397.512 190.829,393.768 203.728,385.193 217.176,376.848 225.121,375.217 233.333,373.58 242.454,379.463 246.591,382.2 249.261,385.141 L249.607,384.776 Q249.555,384.558 249.506,384.335 248.691,380.824 248.062,376.74 246.658,367.28 247.89,363.519 248.874,360.475 256.243,357.173 262.818,354.07 262.322,352.13 260.942,346.93 253.004,338.796 L245.361,331.72 Q231.792,341.149 219.393,349.983 206.417,359.338 194.752,368.033 175.091,383.111 167.947,388.182 159.575,394.137 152.837,397.459 150.597,398.61 148.54,399.437 150.597,398.61 152.837,397.459 159.575,394.137 167.947,388.182 175.091,383.111 194.752,368.033 206.417,359.338 219.393,349.983 L213.493,341.707 Q212.667,340.664 207.647,335.471 202.173,329.847 200.723,328.731 M234.298,393.259 Q233.021,391.962 228.836,391.451 225.664,391.065 216.183,396.313 213.139,398.038 209.454,400.308 194.257,409.676 191.774,409.742 194.257,409.676 209.454,400.308 213.139,398.038 216.183,396.313 225.664,391.065 228.836,391.451 233.021,391.962 234.298,393.259 235.575,394.557 239.81,396.93 235.575,394.557 234.298,393.259 M229.004,407.868 Q231.158,405.414 231.116,403.818 231.104,403.374 228.828,401.215 231.104,403.374 231.116,403.818 231.158,405.414 229.004,407.868 226.68,410.592 224.462,410.651 217.987,410.823 217.865,406.21 217.846,405.501 217.928,405.232 218.18,404.693 219.538,402.349 218.18,404.693 217.928,405.232 217.846,405.501 217.865,406.21 217.987,410.823 224.462,410.651 226.68,410.592 229.004,407.868 M210.863,463.559 Q210.471,464.421 209.844,465.272 208.133,467.714 207.087,468.452 208.133,467.714 209.844,465.272 210.471,464.421 210.863,463.559 212.225,461.341 212.174,459.441 L211.763,457.321 212.174,459.441 Q212.225,461.341 210.863,463.559 M253.88,432.151 Q256.126,432.091 259.082,430.859 262.277,429.637 266.262,427.118 271.952,423.442 273.291,421.074 273.803,420.286 273.786,419.641 273.767,418.931 271.93,416.583 270.181,414.233 269.464,413.986 270.181,414.233 271.93,416.583 273.767,418.931 273.786,419.641 273.803,420.286 273.291,421.074 271.952,423.442 266.262,427.118 262.277,429.637 259.082,430.859 256.126,432.091 253.88,432.151 250.42,432.243 248.048,429.82 244.306,425.925 244.035,425.755 244.306,425.925 248.048,429.82 250.42,432.243 253.88,432.151 M274.216,435.873 Q274.197,435.163 273.102,434.038 274.197,435.163 274.216,435.873 274.247,437.026 273.829,438.013 273.411,439.001 272.546,439.823 270.725,441.468 268.153,441.537 267.177,441.562 265.116,440.818 263.143,440.072 261.878,439.218 263.143,440.072 265.116,440.818 267.177,441.562 268.153,441.537 270.725,441.468 272.546,439.823 273.411,439.001 273.829,438.013 274.247,437.026 274.216,435.873 M232.554,468.132 Q236.449,467.763 240.434,467.391 236.449,467.763 232.554,468.132 221.863,470.013 212.67,464.753 221.863,470.013 232.554,468.132 M172.227,358.778 Q168.023,354.184 161.482,351.872 155.029,349.558 149.374,350.507 155.029,349.558 161.482,351.872 168.023,354.184 172.227,358.778Z" test="Avatar Lady" stroke-width="1.775"/>
      <path id="Layer1_0_1_STROKES" stroke="#009EFF" stroke-width="1.775" stroke-linejoin="round" stroke-linecap="round" fill="none" d="M266.02,381.146 Q264.845,377.005 268.085,375.322 271.234,373.552 274.224,372.496 M243.555,327.241 Q243.8,326.436 243.789,325.992 243.765,325.105 240.688,319.506 237.052,312.945 236.487,311.718 234.413,307.157 229.682,306.128 224.792,305.814 223.085,305.06 223.475,306.381 223.59,310.728 L223.582,317.119 Q223.318,317.215 221.348,316.557 219.201,315.904 218.225,315.929 214.766,316.021 212.898,315.893 208.449,315.478 203.482,315.61 L199.759,315.797 M200.723,328.731 Q202.173,329.847 207.647,335.471 212.667,340.664 213.493,341.707 M223.085,305.06 Q223.079,304.972 222.994,304.974 L222.987,304.708 Q223.079,304.881 223.085,305.06Z M199.315,315.809 Q199.311,315.632 199.399,315.629 199.574,315.797 199.759,315.797 L199.315,315.809 Q189.381,316.072 183.543,316.848 171.781,318.491 162.485,322.732 153.543,326.963 145.291,333.75 142.166,336.288 139.174,339.06 139.129,339.104 139.087,339.151 138.829,339.382 138.567,339.609 134.024,343.969 129.803,348.895 122.569,357.253 119.611,366.207 116.65,375.073 115.938,385.034 M115.582,388.371 Q118.396,388.631 121.813,389.05 127.425,389.789 135.267,394.285 135.671,394.539 140.867,397.954 140.917,397.97 140.957,397.996 142.715,399.167 145.022,400.684 M239.81,396.93 Q235.575,394.557 234.298,393.259 233.021,391.962 228.836,391.451 225.664,391.065 216.184,396.358 213.139,398.038 209.454,400.308 194.257,409.676 191.774,409.742 M244.035,425.755 Q244.306,425.925 248.048,429.82 250.42,432.243 253.88,432.151 256.126,432.091 259.128,430.902 262.277,429.637 266.262,427.118 271.952,423.442 273.336,421.073 273.803,420.286 273.786,419.641 273.767,418.931 271.93,416.583 270.181,414.233 269.464,413.986 M283.796,395.41 Q288.017,400.624 290.089,408.468 292.754,418.606 289.508,426.769 289.32,427.235 289.091,427.756 286.998,432.582 281.488,442.337 280.676,443.772 279.792,445.311 273.088,456.939 271.378,462.754 269.836,468.209 267.618,478.298 265.609,486.251 262.734,488.28 258.029,491.6 256.271,492.268 252.488,493.523 245.975,492.275 242.943,491.734 232.737,488.454 229.39,487.346 226.389,486.714 L226.3,486.716 M225.912,488.812 Q220.245,492.69 212.763,501.765 209.533,505.669 206.887,509.465 L206.801,509.556 206.544,509.918 Q205.451,511.559 204.455,513.169 201.956,517.148 200.136,521.006 196.183,529.276 189.212,547.569 185.843,556.316 180.626,570.253 L180.583,570.299 Q180.578,570.371 180.542,570.433 180.509,570.59 180.462,570.746 180.251,571.252 180.045,571.777 179.508,573.27 178.928,574.825 176.272,581.819 172.484,592.926 169.245,601.355 165.535,605.359 M165.115,606.258 Q162.821,610.135 153.432,620.947 146.725,628.708 144.066,632.601 143.224,633.864 142.79,634.72 M261.878,439.218 Q263.143,440.072 265.116,440.818 267.177,441.562 268.153,441.537 270.725,441.468 272.546,439.823 273.411,439.001 273.829,438.013 274.247,437.026 274.216,435.873 274.197,435.163 273.102,434.038 M226.3,486.716 Q222.454,485.895 219.177,485.884 210.58,486.378 206.944,486.474 201.001,486.632 194.726,484.313 190.97,483.258 185.654,480.292 175.112,474.358 165.79,464.22 156.584,454.21 150.257,442.485 M148.377,443.556 Q148.11,450.22 144.616,465.757 142.012,477.571 141.791,486.425 141.746,488.074 141.787,489.621 141.871,492.814 142.99,508.229 143.577,530.404 141.13,538.546 139.499,544.004 137.176,550.101 135.788,554.665 135.957,561.051 136.051,564.608 136.968,569.057 L136.969,569.102 Q137.812,573.177 139.335,578.004 142.441,588.041 142.575,593.097 142.646,595.758 141.738,598.356 141.242,599.745 140.64,600.471 M142.185,601.806 Q142.277,603.827 142.077,607.8 142.071,607.953 142.085,608.11 141.812,613.537 141.046,622.473 L141.047,622.517 Q140.747,626.074 140.362,630.169 M200.993,523.202 L200.595,528.272 Q200.618,529.159 201.333,532.691 202.048,536.222 202.072,537.109 202.095,537.996 203.044,543.652 203.904,549.31 203.927,550.197 204.125,557.648 194.131,589.157 184.048,620.668 184.224,627.321 184.395,633.796 194.559,648.882 202.504,660.655 212.483,672.107 219.714,680.348 236.975,718.768 237.005,719.921 237.722,720.169 238.348,720.33 238.42,719.706 M152.889,667.472 Q155.14,668.655 166.969,679.615 179.623,691.529 179.691,694.101 179.776,697.294 202.024,712.86 224.271,728.425 224.365,731.973 224.394,733.037 224.746,732.939 225.099,732.841 225.103,733.019 L225.796,732.379 M172.227,358.778 Q168.023,354.184 161.482,351.872 155.029,349.558 149.374,350.507 M115.582,388.371 Q115.494,388.384 115.405,388.376 115.314,388.368 115.227,388.381 110.952,387.97 108.116,387.992 100.483,388.017 95.038,390.203 88.276,392.956 87.492,393.509 86.185,394.432 86.339,396.913 86.587,399.569 87.967,401.397 88.35,401.845 89.063,402.566 89.154,402.649 89.245,402.739 L89.291,402.782 M93.914,398.044 Q100.546,397.639 112.698,400.12 112.876,400.156 113.055,400.199 M89.291,402.782 Q91.522,405.041 96.619,409.689 103.404,415.829 107.727,418.537 108.515,419.011 109.214,419.385 115.158,422.601 122.074,422.329 127.127,422.106 134.35,423.335 140.055,424.249 141.812,423.581 M145.595,432.357 L150.116,442.179 Q150.196,442.329 150.257,442.485 M103.937,424.584 Q101.097,427.944 99.021,446.728 98.093,455.273 97.881,457.321 97.623,460.967 97.731,465.047 97.862,470.014 100.196,481.048 102.441,492.083 102.606,498.292 102.623,498.938 102.641,499.623 102.648,502.577 102.372,506.198 101.931,512.136 100.737,519.867 99.9,525.287 98.695,531.593 94.486,553.629 94.965,571.724 95.043,574.651 96.625,584.106 98.192,593.03 98.06,594.72 M113.055,400.199 Q114.872,400.554 116.804,400.988 131.445,404.15 137.115,403.734 M125.742,443.534 L125.978,445.747 Q126.033,447.787 124.848,453.322 123.665,458.945 123.61,463.562 123.48,468.714 123.711,477.407 123.736,478.382 124.173,481.477 124.613,484.661 124.643,485.814 124.645,485.878 124.647,485.947 124.694,488.332 124.206,492.749 123.724,497 122.961,499.351 122.188,500.348 120.748,502.96 119.73,504.718 119.228,505.885 118.726,507.052 118.742,507.629 M122.385,544.635 Q122.404,545.344 121.532,552.646 120.572,559.95 120.6,561.014 120.652,562.966 122.392,568.334 123.225,571.041 123.659,572.606 124.055,574.152 124.066,574.592 124.146,577.608 121.722,583.264 119.547,588.292 117.823,590.202 M102.641,499.623 Q97.602,500.378 91.9,506.298 86.615,511.728 85.28,517.746 84.895,519.502 84.842,521.309 84.638,526.995 81.861,586.362 79.315,644.391 79.391,650.602 79.502,654.771 79.071,661.972 79.017,663.03 78.991,663.971 L78.993,664.06 Q78.983,667.087 79.432,668.886 79.829,670.473 117.895,723.61 155.682,776.221 155.865,779.767 M83.142,517.448 Q74.742,522.02 66.323,525.882 54.307,531.349 47.578,531.971 33.57,532.608 17.24,532.686 -15.334,532.75 -26.858,529.949 M140.64,600.471 Q140.081,601.151 139.416,601.169 M140.362,630.169 L140.363,630.213 Q140.195,632.251 139.987,634.44 138.873,646.132 137.205,661.763 136.858,665.412 146.812,682.634 159.086,703.701 161.741,710.11 179.858,754.011 180.826,773.78 M-19.062,636.612 Q-12.113,637.582 5.171,643.337 23.979,649.674 34.243,655.171 48.199,662.613 51.871,663.847 59.485,666.485 69.303,665.16 73.283,664.611 76.637,663.901" test="Avatar Lady"/>
      <path id="Layer1_0_2_STROKES" stroke="#FFBC00" stroke-width="1.775" stroke-linejoin="round" stroke-linecap="round" fill="none" d="M219.438,349.982 Q231.792,341.149 245.361,331.72 L253.004,338.796 Q260.942,346.93 262.322,352.13 262.818,354.07 256.243,357.173 248.874,360.475 247.89,363.519 246.658,367.28 248.062,376.74 248.691,380.824 249.506,384.335 249.555,384.558 249.607,384.776 M148.54,399.437 Q150.597,398.61 152.838,397.503 159.575,394.137 167.947,388.182 175.091,383.111 194.752,368.033 206.417,359.338 219.438,349.982 M249.306,385.139 Q249.57,385.39 249.808,385.659 249.7,385.225 249.607,384.776 M249.306,385.139 Q246.591,382.2 242.454,379.463 233.333,373.58 225.121,375.217 217.176,376.848 203.728,385.193 190.829,393.768 184.394,397.555 183.476,398.091 182.689,398.532 178.318,401.045 162.645,409.182 161.071,410.005 159.668,410.726 155.584,412.913 153.063,414.362 150.302,415.98 149.442,416.722" test="Avatar Lady"/>
      <path id="Layer1_0_3_STROKES" stroke="#FF0" stroke-width="1.775" stroke-linejoin="round" stroke-linecap="round" fill="none" d="M270.871,383.325 Q270.763,389.275 276.395,387.44 277.145,387.168 277.753,386.782 279.878,385.377 280.08,382.46 280.266,379.437 277.317,378.716 M219.538,402.349 Q218.18,404.693 217.928,405.232 217.846,405.501 217.865,406.21 217.987,410.823 224.462,410.651 226.68,410.592 229.004,407.868 231.158,405.414 231.116,403.818 231.104,403.374 228.828,401.215" test="Avatar Lady"/>
      <path id="Layer1_0_4_STROKES" stroke="#FFF" stroke-width="1.775" stroke-linejoin="round" stroke-linecap="round" fill="none" d="M211.763,457.321 L212.174,459.441 Q212.225,461.341 210.909,463.602 210.471,464.421 209.844,465.272 208.133,467.714 207.087,468.452 M212.67,464.753 Q221.863,470.013 232.554,468.132 236.449,467.763 240.434,467.391" test="Avatar Lady"/>
    </g>
  </g>
</svg>