<?xml version="1.0" encoding="utf-8"?>
<svg id="EdithAnim13" image-rendering="inherit" baseProfile="basic" version="1.1" x="0px" y="0px" width="800" height="600" xmlns="http://www.w3.org/2000/svg" xmlns:xlink="http://www.w3.org/1999/xlink">
  <g id="22_Avatarf13r1" overflow="visible">
    <g id="Avatar-Manf0r1">
      <g id="Tailf0r1">
        <path id="Layer3_0_1_STROKES" stroke="#009EFF" stroke-width="2.303" stroke-linejoin="round" stroke-linecap="round" fill="none" d="M650.79,849.792 Q649.628,832.87 648.987,815.939 648.413,799.521 643.079,784.015 637.217,767.126 620.884,759.443 601.035,750.186 598.161,770.886 597.741,773.902 599.713,776.549 604.375,782.909 611.004,786.98 617.933,784.45 623.144,789.229 629.418,795.031 632.179,803.73 638.632,824.258 643.772,844.958 645.224,850.75 644.249,856.626" test="Tail_2.3242325232423263e+312.3242325232423263e+31_23242325232423262324232523242326"/>
      </g>
      <path fill="#000" stroke="none" d="M612.353,763.715 Q608.249,754.503 603.056,753.163 601.884,752.828 587.646,756.931 570.729,761.789 551.55,761.956 531.618,762.124 512.522,755.926 497.196,749.645 495.437,749.813 489.407,752.493 487.732,753.665 484.718,755.675 484.969,758.188 485.136,760.03 485.304,770.164 485.89,779.963 488.737,783.313 491.836,786.914 506.827,794.703 519.222,800.984 531.869,806.344 540.16,809.861 552.639,825.523 559.004,833.479 566.206,842.775 567.714,843.948 566.206,845.623 565.034,846.879 565.201,846.879 L577.094,843.194 Q592.252,838.42 602.554,822.424 611.348,808.689 614.781,790.013 617.545,775.189 612.353,763.715 M617.713,415.231 L614.698,413.975 Q614.654,414.081 614.614,414.143 613.706,416.461 613.106,418.581 611.515,424.276 609.002,432.986 608.946,433.139 608.835,433.237 606.54,439.335 601.8,442.031 591.834,447.726 586.306,450.406 L590.075,458.781 Q589.656,464.895 591.583,505.849 591.653,507.36 591.666,508.78 593.229,540.781 593.425,550.488 593.423,550.551 593.425,550.571 593.453,552.816 593.425,553.838 593.09,566.986 595.519,587.756 595.854,590.688 600.46,588.259 605.066,585.746 604.731,583.988 604.564,582.731 606.49,583.401 608.081,583.988 608.5,584.406 608.584,584.49 614.781,563.05 L619.806,571.425 Q619.89,571.509 622.738,553 L627.762,555.094 Q627.86,555.193 627.176,546.3 627.213,546.28 627.176,546.216 626.222,532.545 623.491,497.809 621.835,476.583 620.56,462.634 618.982,443.988 618.131,438.346 617.893,436.701 617.713,436.169 617.893,436.701 618.131,438.346 618.982,443.988 620.56,462.634 L621.9,462.55 Q623.575,462.383 628.516,457.441 632.871,453.254 636.137,454.594 639.069,455.85 656.656,481.31 676.924,507.105 693.506,511.125 678.599,511.628 656.489,528.629 649.621,533.905 642.838,540.27 L641.833,541.191 Q643.025,553.921 646.941,597.471 L647.863,597.388 Q652.218,594.959 682.703,571.006 712.099,547.808 721.563,539.6 728.598,533.486 734.376,523.855 737.308,518.914 740.825,512.8 742.5,510.874 746.101,508.194 749.033,505.514 749.2,501.075 749.368,496.72 717.543,476.201 682.284,454.259 675.5,449.15 655.567,434.159 646.271,428.129 635.196,420.868 627.679,417.66 621.433,415.002 617.713,415.231 M558.166,410.123 Q560.679,409.704 563.024,409.285 566.793,409.285 566.541,413.891 573.744,413.054 576.591,413.891 579.606,414.813 579.522,418.079 L584.213,420.256 Q587.506,413.854 595.519,408.531 600.125,405.433 604.061,404.428 604.123,404.414 604.145,404.344 L603.056,397.644 Q604.313,397.56 601.884,394.629 597.445,389.52 593.844,385.081 588.986,379.051 572.069,373.608 557.245,368.834 549.037,368.75 522.74,368.499 504.65,375.869 493.427,380.475 483.377,394.378 481.451,397.012 479.86,399.403 475.369,406.521 473.997,411.881 L473.997,413.891 Q474.165,413.891 474.919,414.143 475.756,414.31 476.343,414.31 479.357,414.31 482.372,411.881 485.806,409.034 489.072,408.448 L489.072,410.541 492.841,410.541 Q495.354,410.039 500.127,408.615 503.812,407.443 504.566,407.61 L504.566,409.704 Q505.404,409.704 508.754,410.123 514.281,410.123 519.641,407.191 L523.829,407.191 523.829,408.866 530.529,408.866 Q541.584,405.516 542.254,405.516 543.343,405.516 544.348,406.27 545.52,407.108 547.698,407.191 547.698,409.285 547.279,410.123 L558.166,410.123Z" test="Avatar Man" stroke-width="1.675"/>
      <path id="Layer2_0_1_STROKES" stroke="#009EFF" stroke-width="1.675" stroke-linejoin="round" stroke-linecap="round" fill="none" d="M579.522,418.079 Q579.606,414.813 576.591,413.891 573.744,413.054 566.541,413.891 566.793,409.285 563.024,409.285 560.679,409.704 558.166,410.123 L547.279,410.123 Q547.698,409.285 547.698,407.191 545.52,407.108 544.348,406.27 543.343,405.516 542.254,405.516 541.584,405.516 530.529,408.866 L523.829,408.866 523.829,407.191 519.641,407.191 Q514.281,410.123 508.754,410.123 505.404,409.704 504.566,409.704 L504.566,407.61 Q503.812,407.443 500.127,408.615 495.354,410.039 492.841,410.541 L489.072,410.541 489.072,408.448 Q485.806,409.034 482.372,411.881 479.357,414.31 476.343,414.31 475.756,414.31 474.919,414.143 474.165,413.891 473.997,413.891 L473.997,411.881 Q475.369,406.521 479.902,399.444 481.451,397.012 483.377,394.378 493.427,380.475 504.65,375.869 522.74,368.499 549.037,368.75 557.245,368.834 572.069,373.608 588.986,379.051 593.844,385.081 597.445,389.52 601.884,394.629 604.313,397.56 603.056,397.644 M604.187,404.386 Q604.249,404.392 604.313,404.386 606.845,403.826 612.269,403.506 616.205,403.339 618.634,401.747 619.974,400.91 621.9,399.319 622.654,398.9 619.555,404.26 618.131,406.689 616.959,409.034 616.242,410.442 615.661,411.798 615.522,412.077 615.409,412.342 615.165,412.864 614.949,413.389 614.818,413.684 614.698,413.975 M617.713,415.231 Q621.433,415.002 627.721,417.702 635.196,420.868 646.271,428.129 655.567,434.159 675.5,449.15 682.284,454.259 717.543,476.201 749.368,496.72 749.2,501.075 749.033,505.514 746.101,508.194 742.5,510.874 740.825,512.8 737.308,518.914 734.376,523.855 728.598,533.486 721.563,539.6 712.099,547.808 682.703,571.006 652.218,594.959 647.863,597.388 647.429,597.671 647.025,597.932 642.151,601.094 639.99,602.329 636.137,604.59 632.787,604.088 M616.959,409.034 Q615.654,410.464 614.572,411.295 613.478,412.092 612.604,412.3 609.421,412.551 605.569,413.138 600.627,413.891 597.948,415.734 594.346,418.833 590.912,421.513 586.641,424.862 583.961,426.454 L582.119,427.375 Q582.522,423.68 584.254,420.298 M578.685,418.079 L579.522,418.079 M584.254,420.298 Q587.506,413.854 595.519,408.531 600.125,405.433 604.061,404.428 604.123,404.414 604.187,404.386 M614.698,413.975 Q614.654,414.081 614.614,414.184 613.706,416.461 613.106,418.581 611.515,424.276 609.002,432.986 608.946,433.139 608.877,433.279 606.54,439.335 601.8,442.031 591.834,447.726 586.306,450.406 M590.075,458.781 Q589.656,464.895 591.583,505.849 591.653,507.36 591.708,508.822 593.229,540.781 593.425,550.488 593.423,550.551 593.425,550.613 593.453,552.816 593.425,553.838 593.09,566.986 595.519,587.756 595.854,590.688 600.46,588.259 605.066,585.746 604.731,583.988 604.564,582.731 606.49,583.401 608.081,583.988 608.5,584.406 608.584,584.49 614.781,563.05 L619.806,571.425 Q619.89,571.509 622.738,553 L627.762,555.094 Q627.86,555.193 627.218,546.342 627.213,546.28 627.218,546.216 626.222,532.545 623.491,497.809 621.835,476.583 620.602,462.634 618.982,443.988 618.131,438.346 617.893,436.701 617.713,436.169 M641.833,541.233 L642.838,540.27 Q649.621,533.905 656.489,528.629 678.599,511.628 693.506,511.125 676.924,507.105 656.656,481.31 639.069,455.85 636.137,454.594 632.871,453.254 628.516,457.441 623.575,462.383 621.9,462.55 M527.681,455.85 Q528.658,456.007 530.696,456.101 533.021,456.185 536.726,456.185 543.259,456.101 546.106,455.85 551.382,455.347 552.053,455.18 555.402,454.259 555.738,451.663 M576.675,522.85 Q577.512,528.294 579.439,536.166 581.784,545.63 583.794,550.488 M483.294,520.338 Q483.294,520.421 483.629,528.964 483.88,535.078 486.225,539.181 486.979,540.498 488.109,541.778 491.54,545.608 498.452,549.064 508,553.921 517.213,554.256 L520.604,554.507 520.73,554.507 Q529.608,554.843 532.287,554.675 536.894,554.34 542.338,552.581 546.358,551.325 557.161,541.61 564.839,534.635 572.99,526.116 573.096,526.014 573.199,525.907 573.263,525.847 573.325,525.781 573.41,525.701 573.493,525.614 574.779,524.249 576.089,522.85 576.174,522.76 576.256,522.683 576.29,522.634 576.34,522.599 576.353,522.55 576.382,522.515 586.243,512.001 587.563,509.031 M520.563,555.094 Q519.809,558.695 518.385,566.903 516.961,574.021 514.7,577.706 M637.394,545.463 L641.833,541.233 M628.181,612.044 Q628.098,612.211 619.639,634.238 613.609,649.899 611.431,658.944 608.751,669.915 606.406,702.578 604.061,734.403 605.15,741.438 M556.91,655.091 Q557.412,656.934 559.088,657.436 559.59,657.604 560.93,657.604 563.108,657.604 563.945,656.599 564.28,656.264 565.62,653.165 M523.41,642.948 Q523.242,658.19 524.331,660.535 526.09,664.723 535.973,664.723 540.746,664.723 541.165,664.639 541.667,664.555 543.51,663.466 M524.666,694.454 Q523.829,696.966 523.829,699.73 523.829,704.336 527.514,704.588 529.943,704.671 537.647,704.504 M521.735,729.21 Q526.006,732.141 528.77,732.811 530.78,733.23 534.297,732.56 M564.531,847.381 Q558.25,850.313 541.416,853.495 524.415,856.678 506.325,858.269 490.664,859.693 453.814,858.939 426.009,858.436 410.012,857.431 397.701,856.678 372.744,854.081 366.546,853.411 361.94,854.416 358.674,855.17 357.669,854.5 M478.269,398.481 Q475.086,396.555 471.317,394.545 463.78,390.609 461.519,390.944 459.09,391.279 461.1,403.255 462.775,413.472 464.45,417.744 M468.637,429.05 Q469.307,431.814 471.066,437.341 472.071,441.78 469.475,443.706 466.277,446.09 463.236,448.313 L463.194,448.354 Q417.498,482.285 411.687,484.325 406.579,485.833 405.323,486.251 403.564,486.921 403.312,488.513 402.894,491.779 402.726,503.001 402.475,515.899 403.312,518.663 406.16,530.053 428.102,562.464 449.626,594.205 462.356,606.6 M470.312,457.944 Q472.909,459.284 478.101,459.954 478.312,459.986 478.52,459.996 483.421,460.697 488.319,460.456 491.417,460.289 498.62,459.116 504.482,458.111 506.325,458.362 M469.894,479.719 Q468.889,481.394 458.085,492.198 448.286,501.996 445.606,504.425 M490.329,499.316 Q494.097,499.316 498.285,498.479 L514.616,498.479 Q509.591,503.839 506.744,506.686 501.468,511.879 500.211,511.879 497.95,511.879 494.6,507.189 491.166,501.829 489.91,500.573 M436.394,499.819 Q437.831,503.291 440.916,507.691 440.95,507.74 441,507.775 448.678,518.786 466.544,535.58 474.843,543.374 480.949,549.315 495.077,563.02 497.531,566.819 M469.475,630.05 Q468.889,643.366 471.569,649.731 473.244,653.584 478.352,657.939 483.629,662.21 488.319,663.55 M483.713,671.088 Q483.796,673.684 483.377,684.404 483.21,694.454 484.55,697.05 486.141,700.149 490.077,702.745 493.93,705.257 496.275,705.006 M489.575,708.356 Q489.659,711.12 489.659,715.391 489.826,718.574 491.25,720.5 491.417,720.751 495.94,723.85 498.955,725.944 498.787,729.713 498.62,732.56 496.861,739.595 495.354,745.458 495.856,747.3 M475.338,759.444 Q455.74,755.843 432.039,752.158 384.72,744.871 364.871,744.871 351.639,744.871 336.564,742.108 324.671,739.93 322.159,740.684 317.804,742.024 313.7,748.891 309.596,755.843 309.931,761.538 310.182,765.39 311.522,775.608 312.611,784.736 311.606,788.338 M474.919,783.731 Q467.214,784.988 431.704,785.741 393.179,786.579 386.981,787.081 380.114,787.668 358.255,791.185 338.406,794.368 330.45,794.619 320.986,794.954 312.611,793.781 308.256,793.195 301.975,791.688 298.709,790.934 295.359,793.195 293.6,794.451 289.412,798.806 284.639,803.748 288.994,814.3 289.831,816.394 288.407,828.37 286.816,840.43 287.737,842.775 L290.669,849.894 Q293.935,858.855 295.275,868.319 M354.319,842.775 Q355.491,846.544 357.669,857.348 360.014,868.905 359.762,871.25" test="Avatar Man"/>
      <path id="Layer2_0_2_STROKES" stroke="#FF0" stroke-width="1.675" stroke-linejoin="round" stroke-linecap="round" fill="none" d="M530.529,459.116 Q529.691,463.806 531.366,467.24 533.125,470.841 536.391,470.841 537.731,470.841 539.574,469.836 541.667,468.664 542.254,467.073 M478.185,462.885 Q477.347,468.748 477.347,469.166 477.347,470.87 478.604,472.684 479.272,473.632 480.279,474.61 483.377,477.541 486.56,477.541 488.235,477.541 489.324,475.866 489.994,474.945 491.166,472.935" test="Avatar Man"/>
      <path id="Layer2_0_3_STROKES" stroke="#FFF" stroke-width="1.675" stroke-linejoin="round" stroke-linecap="round" fill="none" d="M559.841,504.76 Q565.453,507.021 565.704,510.79 565.72,511.028 565.746,511.293 565.741,511.356 565.746,511.418 L565.746,511.544 Q565.777,513.723 565.285,517.741 M552.304,519.835 Q557.823,518.518 561.181,514.475 562.307,513.122 563.191,511.46" test="Avatar Man"/>
      <path id="Layer2_0_4_STROKES" stroke="#F90" stroke-width="1.675" stroke-linejoin="round" stroke-linecap="round" fill="none" d="M495.437,749.813 Q497.196,749.645 512.522,755.926 531.618,762.124 551.55,761.956 570.729,761.789 587.646,756.931 601.884,752.828 603.056,753.163 608.249,754.503 612.353,763.715 617.545,775.189 614.781,790.013 611.348,808.689 602.554,822.424 592.252,838.42 577.094,843.194 L565.201,846.879 Q565.034,846.879 566.206,845.623 567.714,843.948 566.206,842.775 559.004,833.479 552.639,825.523 540.16,809.861 531.869,806.344 519.222,800.984 506.827,794.703 491.836,786.914 488.737,783.313 485.89,779.963 485.304,770.164 485.136,760.03 484.969,758.188 484.718,755.675 487.732,753.665 489.407,752.493 495.437,749.813Z" test="Avatar Man"/>
    </g>
    <g id="Avatar-Lady">
      <path fill="#000" stroke="none" d="M251.593,689.026 Q247.881,688.561 244.763,688.784 236.621,689.866 233.169,690.216 227.527,690.789 221.394,689.03 217.746,688.294 212.479,685.852 202.029,680.958 192.441,671.979 182.972,663.113 176.073,652.374 L174.408,653.564 Q174.628,659.921 172.411,674.948 170.775,686.371 171.195,694.808 171.269,696.379 171.418,697.848 171.726,700.879 173.888,715.461 176.025,736.511 174.277,744.43 173.115,749.737 171.338,755.702 170.343,760.142 170.959,766.204 171.302,769.58 172.486,773.705 L172.495,773.789 Q173.586,777.605 175.379,782.088 179.048,791.413 179.535,796.213 179.792,798.739 179.114,801.275 178.741,802.631 178.216,803.322 L179.784,804.524 Q180.016,806.44 180.104,810.191 180.113,810.379 180.138,810.528 180.265,815.71 180.168,824.221 L180.176,824.305 Q180.144,827.71 180.069,831.632 L183.761,833.639 Q186.017,829.789 191.844,821.93 200.005,810.978 201.911,807.126 L202.246,806.242 Q205.49,802.169 207.971,793.921 210.784,783.087 212.811,776.246 213.252,774.726 213.615,773.272 213.816,772.753 213.933,772.218 214.014,772.105 213.992,771.957 214.064,771.892 214.059,771.78 L214.059,771.78 Q218.071,758.148 220.653,749.589 225.981,731.694 229.152,723.545 230.609,719.746 232.702,715.784 233.535,714.182 234.415,712.547 L234.634,712.185 234.709,712.092 Q236.998,708.289 239.793,704.345 246.263,695.181 251.377,691.089 L251.593,689.026 M216.022,540.621 L214.184,528.388 213.763,528.43 Q204.332,529.388 198.835,530.542 187.765,532.942 179.224,537.637 171.021,542.298 163.654,549.341 160.863,551.978 158.172,554.832 158.174,554.872 158.096,554.925 157.909,555.158 157.634,555.397 153.666,559.863 150.002,564.849 143.716,573.313 141.539,582.041 139.355,590.685 139.386,600.209 L139.281,603.367 Q141.98,603.456 145.261,603.611 150.651,603.914 158.43,607.633 158.832,607.846 164.018,610.724 164.067,610.736 164.102,610.715 165.862,611.746 168.164,613.025 165.862,611.746 164.102,610.715 164.067,610.736 164.018,610.724 158.832,607.846 158.43,607.633 150.651,603.914 145.261,603.611 141.98,603.456 139.281,603.367 L137.724,614.84 Q139.477,615.048 141.346,615.323 155.497,617.288 160.86,616.489 155.497,617.288 141.346,615.323 139.477,615.048 137.724,614.84 137.551,614.811 137.379,614.79 125.644,613.295 119.365,614.152 L115.263,618.992 Q117.587,620.978 122.767,625.035 129.657,630.393 133.92,632.665 134.745,633.056 135.437,633.362 141.319,635.997 147.878,635.246 152.669,634.674 159.626,635.329 165.117,635.792 166.741,635.032 L172.191,635.924 170.964,643.11 175.963,652.13 Q176.051,652.267 176.073,652.374 182.972,663.113 192.441,671.979 202.029,680.958 212.479,685.852 217.746,688.294 221.394,689.03 227.527,690.789 233.169,690.216 236.621,689.866 244.763,688.784 247.881,688.561 251.593,689.026 L251.677,689.017 Q254.58,689.447 257.843,690.263 267.784,692.656 270.707,692.955 276.99,693.678 280.499,692.215 282.124,691.455 286.363,687.962 288.953,685.828 290.297,678.12 291.689,668.366 292.767,663.067 293.979,657.415 299.528,645.878 300.259,644.35 300.93,642.928 305.476,633.257 307.123,628.518 307.304,628.006 307.45,627.549 309.956,619.553 306.699,610.101 304.17,602.787 299.784,598.128 L293.38,590.357 Q292.872,590.762 292.177,591.074 286.95,593.221 286.63,587.554 L281.861,585.827 266.508,590.448 Q266.629,590.868 266.762,591.273 266.516,591.035 266.205,590.819 263.456,588.213 259.326,585.903 250.232,580.957 242.538,583.1 235.097,585.216 222.899,594.111 211.241,603.186 205.344,607.208 204.556,607.82 203.838,608.296 199.859,610.997 185.531,619.853 184.093,620.748 182.805,621.491 179.081,623.904 176.739,625.425 174.276,627.197 173.51,627.964 174.276,627.197 176.739,625.425 179.081,623.904 182.805,621.491 184.093,620.748 185.531,619.853 199.859,610.997 203.838,608.296 204.556,607.82 205.344,607.208 211.241,603.186 222.899,594.111 235.097,585.216 242.538,583.1 250.232,580.957 259.326,585.903 263.456,588.213 266.205,590.819 L266.508,590.448 Q266.443,590.244 266.381,590.036 265.355,586.754 264.467,582.914 262.457,574.016 263.361,570.352 264.081,567.386 270.854,563.721 276.887,560.301 276.278,558.491 274.595,553.643 266.466,546.472 L258.692,540.286 Q246.457,550.221 235.293,559.506 223.617,569.327 213.14,578.429 195.513,594.17 189.079,599.502 181.54,605.761 175.368,609.401 173.319,610.655 171.421,611.588 173.319,610.655 175.368,609.401 181.54,605.761 189.079,599.502 195.513,594.17 213.14,578.429 223.617,569.327 235.293,559.506 L229.092,552.054 Q228.232,551.12 223.088,546.539 217.48,541.579 216.022,540.621 M252.551,599.607 Q251.244,598.464 247.226,598.276 244.182,598.134 235.538,603.801 232.766,605.658 229.422,608.08 215.635,618.072 213.277,618.312 215.635,618.072 229.422,608.08 232.766,605.658 235.538,603.801 244.182,598.134 247.226,598.276 251.244,598.464 252.551,599.607 253.858,600.75 258.055,602.706 253.858,600.75 252.551,599.607 M248.556,613.879 Q250.43,611.392 250.276,609.876 250.233,609.455 247.914,607.564 250.233,609.455 250.276,609.876 250.43,611.392 248.556,613.879 246.539,616.636 244.434,616.849 238.287,617.473 237.842,613.095 237.774,612.421 237.833,612.16 238.034,611.629 239.159,609.303 238.034,611.629 237.833,612.16 237.774,612.421 237.842,613.095 238.287,617.473 244.434,616.849 246.539,616.636 248.556,613.879 M235.265,668.141 Q234.953,668.989 234.418,669.843 232.964,672.287 232.022,673.064 232.964,672.287 234.418,669.843 234.953,668.989 235.265,668.141 236.402,665.934 236.219,664.131 L235.677,662.144 236.219,664.131 Q236.402,665.934 235.265,668.141 M273.945,635.205 Q276.077,634.988 278.801,633.606 281.753,632.215 285.364,629.537 290.514,625.635 291.62,623.287 292.05,622.501 291.988,621.888 291.92,621.215 290.005,619.112 288.174,617.001 287.475,616.817 288.174,617.001 290.005,619.112 291.92,621.215 291.988,621.888 292.05,622.501 291.62,623.287 290.514,625.635 285.364,629.537 281.753,632.215 278.801,633.606 276.077,634.988 273.945,635.205 270.661,635.538 268.232,633.403 264.395,629.964 264.126,629.822 264.395,629.964 268.232,633.403 270.661,635.538 273.945,635.205 M293.553,637.297 Q293.484,636.623 292.363,635.631 293.484,636.623 293.553,637.297 293.664,638.392 293.337,639.36 293.01,640.329 292.245,641.173 290.631,642.868 288.189,643.116 287.263,643.21 285.249,642.649 283.32,642.079 282.055,641.357 283.32,642.079 285.249,642.649 287.263,643.21 288.189,643.116 290.631,642.868 292.245,641.173 293.01,640.329 293.337,639.36 293.664,638.392 293.553,637.297 M256.222,670.947 Q259.901,670.318 263.664,669.68 259.901,670.318 256.222,670.947 246.188,673.497 237.069,669.148 246.188,673.497 256.222,670.947 M191.057,571.228 Q186.731,567.159 180.345,565.426 174.043,563.684 168.731,564.989 174.043,563.684 180.345,565.426 186.731,567.159 191.057,571.228Z" test="Avatar Lady" stroke-width="1.693"/>
      <path id="Layer1_0_1_STROKES" stroke="#009EFF" stroke-width="1.693" stroke-linejoin="round" stroke-linecap="round" fill="none" d="M281.861,585.827 Q280.449,581.972 283.41,580.14 286.279,578.233 289.048,577.016 M256.656,536.154 Q256.832,535.371 256.789,534.95 256.703,534.108 253.378,529.001 249.453,523.02 248.828,521.892 246.531,517.702 241.957,517.061 237.283,517.11 235.606,516.514 236.071,517.743 236.49,521.869 L236.938,527.949 Q236.694,528.058 234.773,527.573 232.684,527.105 231.757,527.199 228.474,527.532 226.688,527.543 222.427,527.465 217.712,527.944 L214.184,528.388 M216.022,540.621 Q217.48,541.579 223.088,546.539 228.232,551.12 229.092,552.054 M235.606,516.514 Q235.594,516.431 235.514,516.439 L235.488,516.186 Q235.587,516.345 235.606,516.514Z M213.763,528.43 Q213.746,528.262 213.83,528.253 214.008,528.4 214.184,528.388 L213.763,528.43 Q204.332,529.388 198.835,530.542 187.765,532.942 179.224,537.637 171.021,542.298 163.654,549.341 160.863,551.978 158.214,554.828 158.174,554.872 158.139,554.92 157.909,555.158 157.676,555.393 153.666,559.863 150.002,564.849 143.716,573.313 141.539,582.041 139.355,590.685 139.386,600.209 M139.286,603.41 Q141.98,603.456 145.261,603.611 150.651,603.914 158.43,607.633 158.832,607.846 164.018,610.724 164.067,610.736 164.106,610.757 165.862,611.746 168.164,613.025 M258.055,602.706 Q253.858,600.75 252.551,599.607 251.244,598.464 247.226,598.276 244.182,598.134 235.542,603.844 232.766,605.658 229.422,608.08 215.635,618.072 213.277,618.312 M264.126,629.822 Q264.395,629.964 268.232,633.403 270.661,635.538 273.945,635.205 276.077,634.988 278.848,633.643 281.753,632.215 285.364,629.537 290.514,625.635 291.662,623.283 292.05,622.501 291.988,621.888 291.92,621.215 290.005,619.112 288.174,617.001 287.475,616.817 M299.784,598.128 Q304.17,602.787 306.699,610.101 309.956,619.553 307.45,627.549 307.304,628.006 307.123,628.518 305.476,633.257 300.93,642.928 300.259,644.35 299.528,645.878 293.979,657.415 292.767,663.067 291.689,668.366 290.297,678.12 288.953,685.828 286.363,687.962 282.124,691.455 280.499,692.215 276.99,693.678 270.707,692.955 267.784,692.656 257.843,690.263 254.58,689.447 251.681,689.059 L251.597,689.068 M251.377,691.089 Q246.263,695.181 239.793,704.345 236.998,708.289 234.752,712.088 L234.676,712.181 234.458,712.543 Q233.535,714.182 232.702,715.784 230.609,719.746 229.152,723.545 225.981,731.694 220.653,749.589 218.071,758.148 214.101,771.776 L214.063,771.822 Q214.064,771.892 214.034,771.953 214.014,772.105 213.98,772.256 213.816,772.753 213.657,773.267 213.252,774.726 212.811,776.246 210.784,783.087 207.971,793.921 205.49,802.169 202.246,806.242 M201.911,807.126 Q200.005,810.978 191.844,821.93 186.017,829.789 183.765,833.681 183.055,834.943 182.703,835.788 M282.055,641.357 Q283.32,642.079 285.249,642.649 287.263,643.21 288.189,643.116 290.631,642.868 292.245,641.173 293.01,640.329 293.337,639.36 293.664,638.392 293.553,637.297 293.484,636.623 292.363,635.631 M251.597,689.068 Q247.881,688.561 244.763,688.784 236.621,689.866 233.169,690.216 227.527,690.789 221.394,689.03 217.746,688.294 212.479,685.852 202.029,680.958 192.441,671.979 182.972,663.113 176.12,652.412 M174.408,653.564 Q174.628,659.921 172.411,674.948 170.775,686.371 171.195,694.808 171.269,696.379 171.418,697.848 171.726,700.879 173.888,715.461 176.025,736.511 174.277,744.43 173.115,749.737 171.338,755.702 170.343,760.142 170.959,766.204 171.302,769.58 172.49,773.747 L172.495,773.789 Q173.586,777.605 175.379,782.088 179.048,791.413 179.535,796.213 179.792,798.739 179.114,801.275 178.741,802.631 178.22,803.365 M179.784,804.524 Q180.016,806.44 180.108,810.233 180.113,810.379 180.138,810.528 180.265,815.71 180.172,824.263 L180.176,824.305 Q180.144,827.71 180.069,831.632 M230.124,725.573 L230.106,730.424 Q230.191,731.266 231.123,734.574 232.054,737.882 232.14,738.724 232.225,739.566 233.53,744.878 234.751,750.199 234.836,751.041 235.555,758.113 228.292,788.795 220.945,819.485 221.586,825.8 222.21,831.947 232.951,845.573 241.347,856.204 251.653,866.387 259.117,873.71 278.271,909.025 278.382,910.12 279.081,910.304 279.688,910.413 279.712,909.815 M194.641,866.221 Q196.865,867.186 208.897,876.768 221.781,887.199 222.029,889.641 222.337,892.672 244.606,905.894 266.875,919.115 267.217,922.483 267.32,923.493 267.648,923.375 267.976,923.256 267.993,923.425 L268.607,922.767 M191.057,571.228 Q186.731,567.159 180.345,565.426 174.043,563.684 168.731,564.989 M139.286,603.41 Q139.203,603.428 139.117,603.427 139.03,603.425 138.949,603.444 134.854,603.358 132.157,603.58 124.899,604.147 119.875,606.614 113.64,609.714 112.933,610.296 111.756,611.267 112.079,613.616 112.504,616.125 113.947,617.765 114.343,618.163 115.073,618.799 115.165,618.871 115.258,618.95 L115.305,618.988 M119.365,614.152 Q125.644,613.295 137.379,614.79 137.551,614.811 137.724,614.84 M115.305,618.988 Q117.587,620.978 122.767,625.035 129.657,630.393 133.962,632.661 134.745,633.056 135.437,633.362 141.319,635.997 147.878,635.246 152.669,634.674 159.626,635.329 165.117,635.792 166.741,635.032 M170.964,643.11 L175.963,652.13 Q176.051,652.267 176.12,652.412 M130.788,638.683 Q128.326,642.08 127.688,660.094 127.414,668.289 127.358,670.251 127.372,673.737 127.765,677.61 128.244,682.326 131.249,692.654 134.17,702.991 134.769,708.885 134.831,709.498 134.897,710.148 135.114,712.957 135.109,716.421 135.112,722.1 134.527,729.539 134.117,734.754 133.42,740.837 130.985,762.097 132.729,779.273 133.011,782.052 135.189,790.933 137.316,799.309 137.31,800.926 M137.724,614.84 Q139.477,615.048 141.346,615.323 155.497,617.288 160.86,616.489 M152.877,655.155 L153.259,657.242 Q153.456,659.179 152.723,664.528 151.998,669.961 152.275,674.356 152.518,679.265 153.356,687.517 153.45,688.443 154.086,691.356 154.73,694.353 154.842,695.448 154.848,695.508 154.854,695.574 155.069,697.839 154.919,702.075 154.834,707.103 154.205,708.443 153.541,709.446 152.357,712.033 151.514,713.777 151.12,714.923 150.726,716.069 150.781,716.616 M156.881,751.556 Q156.95,752.229 156.64,759.236 156.247,766.252 156.349,767.262 156.537,769.115 158.575,774.097 159.56,776.612 160.084,778.069 160.571,779.512 160.613,779.93 160.904,782.792 159.001,788.345 157.29,793.283 155.786,795.222 M134.897,710.148 Q130.158,711.225 125.156,717.262 120.516,722.803 119.674,728.622 119.433,730.319 119.511,732.042 119.722,737.465 121.307,794.129 123.017,849.505 123.531,855.408 123.933,859.365 124.036,866.245 124.061,867.255 124.103,868.152 L124.111,868.237 Q124.317,871.116 124.872,872.796 125.362,874.277 165.353,922.108 205.039,969.459 205.465,972.819 M117.619,728.491 Q109.955,733.437 102.223,737.71 91.183,743.765 84.827,744.836 71.549,746.44 56.022,747.676 25.043,750.056 13.882,748.212 M178.22,803.365 Q177.737,804.052 177.105,804.116 M180.069,831.632 L180.074,831.674 Q180.059,833.624 180.017,835.721 179.79,846.922 179.316,861.908 179.245,865.403 189.939,881.075 203.114,900.239 206.096,906.146 226.453,946.613 228.781,965.347 M28.892,849.11 Q35.57,849.538 52.419,853.781 70.76,858.469 80.914,862.968 94.718,869.052 98.298,869.964 105.729,871.932 114.972,869.973 118.719,869.167 121.858,868.253" test="Avatar Lady"/>
      <path id="Layer1_0_2_STROKES" stroke="#FFBC00" stroke-width="1.693" stroke-linejoin="round" stroke-linecap="round" fill="none" d="M235.335,559.501 Q246.457,550.221 258.692,540.286 L266.466,546.472 Q274.595,553.643 276.278,558.491 276.887,560.301 270.854,563.721 264.081,567.386 263.361,570.352 262.457,574.016 264.467,582.914 265.355,586.754 266.381,590.036 266.443,590.244 266.508,590.448 M171.421,611.588 Q173.319,610.655 175.372,609.443 181.54,605.761 189.079,599.502 195.513,594.17 213.14,578.429 223.617,569.327 235.335,559.501 M266.247,590.815 Q266.516,591.035 266.762,591.273 266.629,590.868 266.508,590.448 M266.247,590.815 Q263.456,588.213 259.326,585.903 250.232,580.957 242.538,583.1 235.097,585.216 222.899,594.111 211.241,603.186 205.39,607.245 204.556,607.82 203.838,608.296 199.859,610.997 185.531,619.853 184.093,620.748 182.809,621.533 179.081,623.904 176.786,625.462 174.276,627.197 173.51,627.964" test="Avatar Lady"/>
      <path id="Layer1_0_3_STROKES" stroke="#FF0" stroke-width="1.693" stroke-linejoin="round" stroke-linecap="round" fill="none" d="M286.63,587.554 Q286.95,593.221 292.177,591.074 292.872,590.762 293.422,590.353 295.343,588.864 295.327,586.076 295.289,583.187 292.433,582.712 M239.159,609.303 Q238.034,611.629 237.833,612.16 237.774,612.421 237.842,613.095 238.287,617.473 244.434,616.849 246.539,616.636 248.556,613.879 250.43,611.392 250.276,609.876 250.233,609.455 247.914,607.564" test="Avatar Lady"/>
      <path id="Layer1_0_4_STROKES" stroke="#FFF" stroke-width="1.693" stroke-linejoin="round" stroke-linecap="round" fill="none" d="M235.677,662.144 L236.219,664.131 Q236.402,665.934 235.312,668.178 234.953,668.989 234.418,669.843 232.964,672.287 232.022,673.064 M237.069,669.148 Q246.188,673.497 256.222,670.947 259.901,670.318 263.664,669.68" test="Avatar Lady"/>
    </g>
  </g>
</svg>