<?xml version="1.0" encoding="utf-8"?>
<svg id="EdithAnim13" image-rendering="inherit" baseProfile="basic" version="1.1" x="0px" y="0px" width="800" height="600" xmlns="http://www.w3.org/2000/svg" xmlns:xlink="http://www.w3.org/1999/xlink">
  <g id="22_Avatarf130r1" overflow="visible">
    <g id="Avatar-Manf0r1">
      <g id="Tailf0r1">
        <path id="Layer6_0_1_STROKES" stroke="#009EFF" stroke-width="2.424" stroke-linejoin="round" stroke-linecap="round" fill="none" d="M583.091,633.798 Q581.865,615.987 581.188,598.166 580.581,580.886 574.965,564.565 568.792,546.79 551.599,538.705 530.706,528.964 527.684,550.753 527.243,553.928 529.318,556.713 534.227,563.407 541.204,567.691 548.497,565.027 553.983,570.057 560.587,576.162 563.495,585.318 570.29,606.925 575.703,628.712 577.233,634.808 576.207,640.993" test="Tail_2.3242325232423263e+312.3242325232423263e+31_2.3242325232423263e+312.3242325232423263e+31_2.3242325232423263e+312.3242325232423263e+31_2.3242325232423263e+312.3242325232423263e+31_2.3242325232423263e+312.3242325232423263e+31_2.3242325232423263e+312.3242325232423263e+31_2.3242325232423263e+312.3242325232423263e+31_2.3242325232423263e+312.3242325232423263e+31_2.3242325232423263e+312.3242325232423263e+31_2.3242325232423263e+312.3242325232423263e+31_2.3242325232423263e+312.3242325232423263e+31_2.3242325232423263e+312.3242325232423263e+31_2.3242325232423263e+312.3242325232423263e+31_2.3242325232423263e+312.3242325232423263e+31_2.3242325232423263e+312.3242325232423263e+31_2.3242325232423263e+312.3242325232423263e+31_2.3242325232423263e+312.3242325232423263e+31_2.3242325232423263e+312.3242325232423263e+31_23242324"/>
      </g>
      <path fill="#000" stroke="none" d="M542.657,543.165 Q538.338,533.469 532.872,532.059 531.638,531.706 516.653,536.025 498.846,541.138 478.66,541.314 457.68,541.491 437.582,534.967 421.451,528.356 419.6,528.533 413.253,531.353 411.49,532.587 408.316,534.703 408.581,537.348 408.757,539.287 408.933,549.953 409.55,560.267 412.547,563.793 415.809,567.583 431.588,575.781 444.634,582.392 457.945,588.034 466.672,591.736 479.806,608.22 486.505,616.594 494.086,626.379 495.673,627.613 494.086,629.376 492.852,630.698 493.028,630.698 L505.546,626.82 Q521.501,621.795 532.343,604.959 541.599,590.502 545.213,570.844 548.122,555.242 542.657,543.165 M548.299,176.373 L545.125,175.051 Q545.079,175.162 545.037,175.227 544.081,177.667 543.45,179.899 541.775,185.893 539.131,195.061 539.071,195.221 538.955,195.325 536.539,201.743 531.55,204.581 521.06,210.575 515.242,213.396 L519.209,222.211 Q518.768,228.646 520.796,271.752 520.87,273.342 520.884,274.837 522.529,308.519 522.735,318.736 522.733,318.802 522.735,318.824 522.765,321.186 522.735,322.261 522.382,336.101 524.939,357.962 525.291,361.047 530.14,358.491 534.988,355.847 534.635,353.996 534.459,352.673 536.486,353.378 538.161,353.996 538.602,354.436 538.69,354.524 545.213,331.958 L550.502,340.773 Q550.59,340.861 553.588,321.38 L558.877,323.584 Q558.979,323.688 558.259,314.328 558.298,314.307 558.259,314.24 557.255,299.85 554.381,263.289 552.637,240.948 551.296,226.266 549.635,206.64 548.739,200.703 548.489,198.971 548.299,198.411 548.489,198.971 548.739,200.703 549.635,206.64 551.296,226.266 L552.706,226.178 Q554.469,226.002 559.67,220.801 564.254,216.393 567.692,217.804 570.777,219.126 589.288,245.924 610.621,273.074 628.074,277.305 612.384,277.834 589.112,295.728 581.884,301.282 574.744,307.981 L573.686,308.951 Q574.941,322.35 579.063,368.188 L580.033,368.1 Q584.616,365.543 616.703,340.332 647.644,315.915 657.604,307.276 665.009,300.841 671.091,290.704 674.177,285.503 677.879,279.068 679.642,277.041 683.432,274.22 686.518,271.399 686.694,266.727 686.87,262.143 653.373,240.546 616.262,217.451 609.122,212.074 588.142,196.295 578.358,189.948 566.701,182.306 558.788,178.93 552.214,176.132 548.299,176.373 M485.624,170.996 Q488.268,170.555 490.737,170.115 494.703,170.115 494.439,174.963 502.02,174.081 505.017,174.963 508.19,175.932 508.102,179.37 L513.039,181.662 Q516.505,174.924 524.939,169.321 529.787,166.06 533.93,165.002 533.995,164.988 534.018,164.914 L532.872,157.862 Q534.195,157.774 531.638,154.688 526.966,149.311 523.176,144.639 518.063,138.292 500.257,132.563 484.654,127.538 476.016,127.45 448.336,127.186 429.296,134.943 417.484,139.791 406.906,154.424 404.878,157.197 403.204,159.713 398.477,167.206 397.033,172.847 L397.033,174.963 Q397.209,174.963 398.003,175.227 398.884,175.404 399.501,175.404 402.675,175.404 405.848,172.847 409.462,169.85 412.9,169.233 L412.9,171.437 416.867,171.437 Q419.511,170.908 424.536,169.409 428.415,168.175 429.208,168.352 L429.208,170.555 Q430.089,170.555 433.615,170.996 439.433,170.996 445.075,167.911 L449.482,167.911 449.482,169.674 456.534,169.674 Q468.17,166.148 468.875,166.148 470.021,166.148 471.079,166.941 472.313,167.823 474.605,167.911 474.605,170.115 474.164,170.996 L485.624,170.996Z" test="Avatar Man" stroke-width="1.763"/>
      <path id="Layer5_0_1_STROKES" stroke="#009EFF" stroke-width="1.763" stroke-linejoin="round" stroke-linecap="round" fill="none" d="M508.102,179.37 Q508.19,175.932 505.017,174.963 502.02,174.081 494.439,174.963 494.703,170.115 490.737,170.115 488.268,170.555 485.624,170.996 L474.164,170.996 Q474.605,170.115 474.605,167.911 472.313,167.823 471.079,166.941 470.021,166.148 468.875,166.148 468.17,166.148 456.534,169.674 L449.482,169.674 449.482,167.911 445.075,167.911 Q439.433,170.996 433.615,170.996 430.089,170.555 429.208,170.555 L429.208,168.352 Q428.415,168.175 424.536,169.409 419.511,170.908 416.867,171.437 L412.9,171.437 412.9,169.233 Q409.462,169.85 405.848,172.847 402.675,175.404 399.501,175.404 398.884,175.404 398.003,175.227 397.209,174.963 397.033,174.963 L397.033,172.847 Q398.477,167.206 403.248,159.757 404.878,157.197 406.906,154.424 417.484,139.791 429.296,134.943 448.336,127.186 476.016,127.45 484.654,127.538 500.257,132.563 518.063,138.292 523.176,144.639 526.966,149.311 531.638,154.688 534.195,157.774 532.872,157.862 M534.062,164.958 Q534.128,164.965 534.195,164.958 536.86,164.369 542.569,164.032 546.712,163.856 549.268,162.181 550.679,161.3 552.706,159.625 553.499,159.184 550.238,164.826 548.739,167.382 547.505,169.85 546.751,171.333 546.139,172.759 545.992,173.054 545.874,173.332 545.617,173.882 545.39,174.434 545.252,174.744 545.125,175.051 M548.299,176.373 Q552.214,176.132 558.832,178.974 566.701,182.306 578.358,189.948 588.142,196.295 609.122,212.074 616.262,217.451 653.373,240.546 686.87,262.143 686.694,266.727 686.518,271.399 683.432,274.22 679.642,277.041 677.879,279.068 674.177,285.503 671.091,290.704 665.009,300.841 657.604,307.276 647.644,315.915 616.703,340.332 584.616,365.543 580.033,368.1 579.576,368.397 579.151,368.672 574.021,372.001 571.746,373.3 567.692,375.68 564.166,375.152 M547.505,169.85 Q546.132,171.356 544.993,172.23 543.842,173.069 542.921,173.288 539.572,173.552 535.517,174.17 530.316,174.963 527.495,176.902 523.705,180.164 520.091,182.985 515.595,186.51 512.774,188.185 L510.835,189.155 Q511.26,185.266 513.083,181.706 M507.221,179.37 L508.102,179.37 M513.083,181.706 Q516.505,174.924 524.939,169.321 529.787,166.06 533.93,165.002 533.995,164.988 534.062,164.958 M545.125,175.051 Q545.079,175.162 545.037,175.271 544.081,177.667 543.45,179.899 541.775,185.893 539.131,195.061 539.071,195.221 538,195.37 536.539,201.743 531.55,204.581 521.06,210.575 515.242,213.396 M519.209,222.211 Q518.768,228.646 520.796,271.752 520.87,273.342 520.928,274.881 522.529,308.519 522.735,318.736 522.733,318.802 522.735,318.868 522.765,321.186 522.735,322.261 522.382,336.101 524.939,357.962 525.291,361.047 530.14,358.491 534.988,355.847 534.635,353.996 534.459,352.673 536.486,353.378 538.161,353.996 538.602,354.436 538.69,354.524 545.213,331.958 L550.502,340.773 Q550.59,340.861 553.588,321.38 L558.877,323.584 Q558.979,323.688 558.304,314.372 558.298,314.307 558.304,314.24 557.255,299.85 554.381,263.289 552.637,240.948 551.34,226.266 549.635,206.64 548.739,200.703 548.489,198.971 548.299,198.411 M573.686,308.995 L574.744,307.981 Q581.884,301.282 589.112,295.728 612.384,277.834 628.074,277.305 610.621,273.074 589.288,245.924 570.777,219.126 567.692,217.804 564.254,216.393 559.67,220.801 554.469,226.002 552.706,226.178 M453.537,219.126 Q454.565,219.292 456.711,219.39 459.158,219.479 463.057,219.479 469.933,219.39 472.93,219.126 478.484,218.597 479.189,218.421 482.715,217.451 483.068,214.718 M505.105,289.646 Q505.987,295.376 508.014,303.662 510.482,313.623 512.598,318.736 M406.818,287.001 Q406.818,287.09 407.17,296.081 407.435,302.516 409.903,306.835 410.696,308.221 411.886,309.568 415.497,313.6 422.773,317.237 432.822,322.35 442.518,322.702 L446.089,322.967 446.221,322.967 Q455.565,323.319 458.386,323.143 463.234,322.79 468.963,320.939 473.195,319.617 484.566,309.392 492.648,302.05 501.226,293.084 501.337,292.976 501.447,292.863 501.514,292.8 501.579,292.731 501.669,292.647 501.755,292.555 503.109,291.118 504.488,289.646 504.578,289.551 504.664,289.47 504.7,289.419 504.752,289.382 504.767,289.33 504.796,289.293 515.175,278.227 516.564,275.101 M446.045,323.584 Q445.251,327.374 443.753,336.013 442.254,343.506 439.874,347.384 M569.014,313.447 L573.686,308.995 M559.317,383.526 Q559.229,383.702 550.326,406.886 543.979,423.37 541.687,432.89 538.866,444.437 536.398,478.816 533.93,512.313 535.076,519.718 M484.302,428.835 Q484.831,430.774 486.593,431.303 487.122,431.479 488.533,431.479 490.825,431.479 491.706,430.422 492.059,430.069 493.469,426.807 M449.042,416.053 Q448.865,432.096 450.011,434.565 451.862,438.972 462.264,438.972 467.289,438.972 467.729,438.884 468.258,438.796 470.198,437.65 M450.364,470.265 Q449.482,472.91 449.482,475.819 449.482,480.667 453.361,480.932 455.917,481.02 464.027,480.843 M447.279,506.848 Q451.774,509.933 454.683,510.638 456.799,511.079 460.501,510.374 M492.323,631.227 Q485.712,634.313 467.994,637.662 450.099,641.012 431.059,642.687 414.575,644.185 375.789,643.392 346.523,642.863 329.686,641.805 316.728,641.012 290.46,638.279 283.937,637.574 279.088,638.632 275.651,639.425 274.593,638.72 M401.529,158.743 Q398.179,156.716 394.212,154.6 386.279,150.457 383.899,150.81 381.342,151.162 383.458,163.768 385.221,174.522 386.984,179.018 M391.391,190.918 Q392.097,193.827 393.948,199.645 395.006,204.317 392.273,206.344 388.907,208.853 385.706,211.193 L385.662,211.237 Q337.565,246.95 331.45,249.097 326.072,250.684 324.75,251.124 322.899,251.83 322.635,253.504 322.194,256.942 322.017,268.754 321.753,282.33 322.635,285.239 325.632,297.227 348.727,331.341 371.381,364.75 384.78,377.796 M393.155,221.33 Q395.887,222.74 401.352,223.445 401.575,223.479 401.793,223.489 406.952,224.228 412.107,223.974 415.368,223.798 422.949,222.564 429.12,221.506 431.059,221.771 M392.714,244.249 Q391.656,246.012 380.285,257.383 369.971,267.697 367.15,270.253 M414.222,264.876 Q418.189,264.876 422.597,263.994 L439.786,263.994 Q434.497,269.636 431.5,272.633 425.946,278.098 424.624,278.098 422.244,278.098 418.718,273.162 415.104,267.52 413.782,266.198 M357.454,265.405 Q358.966,269.059 362.214,273.691 362.249,273.742 362.302,273.779 370.384,285.369 389.188,303.045 397.923,311.248 404.35,317.501 419.22,331.926 421.803,335.925 M392.273,402.478 Q391.656,416.494 394.477,423.193 396.24,427.248 401.617,431.832 407.17,436.328 412.107,437.738 M407.258,445.672 Q407.347,448.404 406.906,459.687 406.73,470.265 408.14,472.998 409.815,476.26 413.958,478.992 418.013,481.637 420.481,481.372 M413.429,484.898 Q413.517,487.807 413.517,492.303 413.693,495.653 415.192,497.68 415.368,497.944 420.128,501.206 423.302,503.41 423.126,507.376 422.949,510.374 421.098,517.778 419.511,523.949 420.04,525.888 M398.444,538.67 Q377.816,534.879 352.87,531.001 303.065,523.332 282.174,523.332 268.246,523.332 252.379,520.423 239.862,518.131 237.217,518.924 232.633,520.335 228.314,527.563 223.995,534.879 224.347,540.873 224.612,544.928 226.022,555.683 227.168,565.291 226.11,569.082 M398.003,564.233 Q389.893,565.555 352.517,566.349 311.968,567.23 305.445,567.759 298.217,568.376 275.21,572.079 254.318,575.428 245.944,575.693 235.983,576.045 227.168,574.811 222.584,574.194 215.973,572.608 212.535,571.814 209.009,574.194 207.158,575.516 202.751,580.1 197.726,585.301 202.31,596.408 203.191,598.612 201.693,611.217 200.018,623.911 200.987,626.379 L204.073,633.872 Q207.511,643.304 208.921,653.265 M271.067,626.379 Q272.301,630.346 274.593,641.717 277.061,653.882 276.797,656.35" test="Avatar Man"/>
      <path id="Layer5_0_2_STROKES" stroke="#FF0" stroke-width="1.763" stroke-linejoin="round" stroke-linecap="round" fill="none" d="M456.534,222.564 Q455.653,227.5 457.416,231.114 459.267,234.905 462.705,234.905 464.115,234.905 466.055,233.847 468.258,232.613 468.875,230.938 M401.441,226.531 Q400.559,232.701 400.559,233.142 400.559,234.935 401.881,236.844 402.585,237.842 403.644,238.872 406.906,241.957 410.256,241.957 412.019,241.957 413.165,240.194 413.87,239.224 415.104,237.109" test="Avatar Man"/>
      <path id="Layer5_0_3_STROKES" stroke="#FFF" stroke-width="1.763" stroke-linejoin="round" stroke-linecap="round" fill="none" d="M487.387,270.606 Q493.293,272.986 493.557,276.952 493.575,277.203 493.601,277.481 493.596,277.548 493.601,277.614 L493.601,277.746 Q493.635,280.039 493.117,284.269 M479.453,286.473 Q485.262,285.087 488.797,280.831 489.982,279.406 490.913,277.658" test="Avatar Man"/>
      <path id="Layer5_0_4_STROKES" stroke="#F90" stroke-width="1.763" stroke-linejoin="round" stroke-linecap="round" fill="none" d="M419.6,528.533 Q421.451,528.356 437.582,534.967 457.68,541.491 478.66,541.314 498.846,541.138 516.653,536.025 531.638,531.706 532.872,532.059 538.338,533.469 542.657,543.165 548.122,555.242 545.213,570.844 541.599,590.502 532.343,604.959 521.501,621.795 505.546,626.82 L493.028,630.698 Q492.852,630.698 494.086,629.376 495.673,627.613 494.086,626.379 486.505,616.594 479.806,608.22 466.672,591.736 457.945,588.034 444.634,582.392 431.588,575.781 415.809,567.583 412.547,563.793 409.55,560.267 408.933,549.953 408.757,539.287 408.581,537.348 408.316,534.703 411.49,532.587 413.253,531.353 419.6,528.533Z" test="Avatar Man"/>
    </g>
    <g id="Avatar-Lady">
      <path fill="#000" stroke="none" d="M223.797,494.557 Q219.942,493.744 216.651,493.705 208.013,494.128 204.36,494.193 198.39,494.3 192.108,491.918 188.345,490.827 183.033,487.802 172.496,481.753 163.22,471.491 154.061,461.359 147.763,449.487 L145.911,450.589 Q145.585,457.28 141.943,472.854 139.227,484.696 138.929,493.586 138.869,495.241 138.897,496.795 138.955,500.002 139.946,515.493 140.346,537.768 137.818,545.924 136.134,551.391 133.748,557.495 132.315,562.066 132.43,568.481 132.494,572.054 133.376,576.486 L133.378,576.575 Q134.189,580.675 135.678,585.536 138.711,595.642 138.802,600.721 138.85,603.394 137.917,605.995 137.407,607.386 136.795,608.065 L138.336,609.464 Q138.411,611.494 138.175,615.438 138.168,615.636 138.182,615.795 137.861,621.242 137.014,630.165 L137.015,630.254 Q136.684,633.824 136.262,637.933 L139.96,640.362 Q142.665,636.52 149.467,628.783 158.989,618.006 161.325,614.131 L161.755,613.232 Q165.516,609.243 168.84,600.805 172.741,589.683 175.467,582.682 176.063,581.126 176.571,579.632 176.827,579.105 176.997,578.555 177.091,578.442 177.081,578.286 177.162,578.224 177.167,578.106 L177.167,578.106 Q182.571,564.153 186.029,555.397 193.187,537.087 197.227,528.814 199.089,524.955 201.632,520.981 202.646,519.373 203.713,517.735 L203.974,517.374 204.062,517.283 Q206.796,513.492 210.073,509.599 217.665,500.55 223.389,496.704 L223.797,494.557 M199.464,335.721 L198.607,322.724 198.161,322.732 Q188.182,322.911 182.313,323.64 170.487,325.19 161.114,329.369 152.098,333.541 143.752,340.287 140.592,342.809 137.518,345.568 137.517,345.611 137.431,345.659 137.214,345.887 136.904,346.114 132.349,350.452 128.068,355.364 120.731,363.695 117.684,372.663 114.634,381.541 113.833,391.538 L113.447,394.843 Q116.271,395.172 119.7,395.622 125.329,396.412 133.166,400.995 133.57,401.254 138.759,404.727 138.809,404.744 138.848,404.726 140.605,405.962 142.909,407.505 140.605,405.962 138.848,404.726 138.809,404.744 138.759,404.727 133.57,401.254 133.166,400.995 125.329,396.412 119.7,395.622 116.271,395.172 113.447,394.843 L110.809,406.744 Q112.63,407.116 114.567,407.568 129.243,410.87 134.941,410.5 129.243,410.87 114.567,407.568 112.63,407.116 110.809,406.744 110.63,406.699 110.451,406.662 98.268,404.066 91.604,404.415 L86.876,409.135 Q89.142,411.422 94.221,416.133 100.982,422.358 105.256,425.116 106.088,425.598 106.787,425.979 112.728,429.26 119.676,429.046 124.754,428.865 131.996,430.161 137.718,431.128 139.489,430.472 L145.129,431.886 143.213,439.318 147.669,449.221 Q147.748,449.373 147.763,449.487 154.061,461.359 163.22,471.491 172.496,481.753 183.033,487.802 188.345,490.827 192.108,491.918 198.39,494.3 204.36,494.193 208.013,494.128 216.651,493.705 219.942,493.744 223.797,494.557 L223.886,494.556 Q226.895,495.261 230.247,496.402 240.468,499.784 243.509,500.353 250.039,501.662 253.849,500.435 255.62,499.779 260.374,496.485 263.279,494.472 265.364,486.502 267.678,476.389 269.273,470.924 271.041,465.099 277.873,453.478 278.774,451.94 279.602,450.506 285.219,440.756 287.362,435.928 287.597,435.407 287.79,434.94 291.119,426.769 288.53,416.566 286.516,408.67 282.321,403.397 L276.282,394.682 Q275.713,395.063 274.957,395.33 269.285,397.125 269.445,391.15 L264.592,388.92 248.077,392.425 Q248.167,392.876 248.271,393.313 248.035,393.041 247.727,392.788 245.071,389.813 240.939,387.028 231.83,381.041 223.569,382.616 215.576,384.185 201.998,392.451 188.97,400.952 182.431,404.656 181.55,405.23 180.755,405.667 176.344,408.152 160.534,416.19 158.946,417.003 157.53,417.67 153.411,419.876 150.821,421.267 148.08,422.912 147.209,423.649 148.08,422.912 150.821,421.267 153.411,419.876 157.53,417.67 158.946,417.003 160.534,416.19 176.344,408.152 180.755,405.667 181.55,405.23 182.431,404.656 188.97,400.952 201.998,392.451 215.576,384.185 223.569,382.616 231.83,381.041 240.939,387.028 245.071,389.813 247.727,392.788 L248.077,392.425 Q248.027,392.205 247.98,391.981 247.191,388.448 246.595,384.341 245.266,374.828 246.535,371.062 247.55,368.014 254.978,364.761 261.608,361.7 261.127,359.748 259.785,354.514 251.883,346.277 L244.268,339.106 Q230.56,348.459 218.033,357.224 204.921,366.508 193.131,375.141 173.257,390.115 166.039,395.146 157.579,401.054 150.784,404.333 148.525,405.47 146.452,406.283 148.525,405.47 150.784,404.333 157.579,401.054 166.039,395.146 173.257,390.115 193.131,375.141 204.921,366.508 218.033,357.224 L212.178,348.862 Q211.357,347.807 206.361,342.549 200.911,336.854 199.464,335.721 M232.63,400.813 Q231.359,399.499 227.16,398.951 223.978,398.536 214.411,403.725 211.34,405.431 207.619,407.68 192.278,416.957 189.783,417.002 192.278,416.957 207.619,407.68 211.34,405.431 214.411,403.725 223.978,398.536 227.16,398.951 231.359,399.499 232.63,400.813 233.902,402.128 238.134,404.547 233.902,402.128 232.63,400.813 M227.189,415.439 Q229.373,412.993 229.344,411.39 229.336,410.944 227.069,408.757 229.336,410.944 229.344,411.39 229.373,412.993 227.189,415.439 224.831,418.155 222.604,418.195 216.099,418.312 216.016,413.679 216.003,412.966 216.088,412.697 216.345,412.158 217.729,409.816 216.345,412.158 216.088,412.697 216.003,412.966 216.016,413.679 216.099,418.312 222.604,418.195 224.831,418.155 227.189,415.439 M208.493,471.213 Q208.091,472.076 207.454,472.925 205.715,475.363 204.659,476.095 205.715,475.363 207.454,472.925 208.091,472.076 208.493,471.213 209.879,468.997 209.845,467.089 L209.45,464.957 209.845,467.089 Q209.879,468.997 208.493,471.213 M251.963,440.039 Q254.219,439 257.199,438.787 260.418,437.586 264.441,435.092 270.187,431.448 271.552,429.081 272.073,428.295 272.061,427.646 272.049,426.933 270.223,424.56 268.487,422.184 267.77,421.93 268.487,422.184 270.223,424.56 272.049,426.933 272.061,427.646 272.073,428.295 271.552,429.081 270.187,431.448 264.441,435.092 260.418,437.586 257.199,438.787 254.219,439 251.963,440.039 248.488,440.102 246.126,437.649 242.401,433.705 242.131,433.531 242.401,433.705 246.126,437.649 248.488,440.102 251.963,440.039 M272.354,443.951 Q272.341,443.239 271.251,442.1 272.341,443.239 272.354,443.951 272.375,445.11 271.947,446.098 271.519,447.086 270.643,447.904 268.8,449.541 266.216,449.588 265.236,449.605 263.173,448.84 261.198,448.073 259.935,447.205 261.198,448.073 263.173,448.84 265.236,449.605 266.216,449.588 268.8,449.541 270.643,447.904 271.519,447.086 271.947,446.098 272.375,445.11 272.354,443.951 M230.237,475.992 Q234.153,475.654 238.157,475.315 234.153,475.654 230.237,475.992 219.485,477.789 210.297,472.428 219.485,477.789 230.237,475.992 M170.589,365.652 Q166.406,361.003 159.857,358.625 153.397,356.246 147.709,357.15 153.397,356.246 159.857,358.625 166.406,361.003 170.589,365.652Z" test="Avatar Lady" stroke-width="1.782"/>
      <path id="Layer4_0_1_STROKES" stroke="#009EFF" stroke-width="1.782" stroke-linejoin="round" stroke-linecap="round" fill="none" d="M264.592,388.92 Q263.448,384.752 266.716,383.089 269.893,381.338 272.905,380.304 M242.493,334.592 Q242.746,333.785 242.738,333.34 242.722,332.449 239.679,326.799 236.084,320.179 235.527,318.941 233.484,314.343 228.741,313.27 223.832,312.912 222.125,312.141 222.506,313.471 222.584,317.837 L222.521,324.255 Q222.255,324.349 220.282,323.671 218.131,322.997 217.151,323.015 213.676,323.077 211.802,322.932 207.337,322.478 202.348,322.567 L198.607,322.724 M199.464,335.721 Q200.911,336.854 206.361,342.549 211.357,347.807 212.178,348.862 M222.125,312.141 Q222.12,312.052 222.034,312.053 L222.03,311.786 Q222.12,311.961 222.125,312.141Z M198.161,322.732 Q198.158,322.554 198.247,322.552 198.421,322.722 198.607,322.724 L198.161,322.732 Q188.182,322.911 182.313,323.64 170.487,325.19 161.114,329.369 152.098,333.541 143.752,340.287 140.592,342.809 137.563,345.567 137.517,345.611 137.475,345.658 137.214,345.887 136.949,346.113 132.349,350.452 128.068,355.364 120.731,363.695 117.684,372.663 114.634,381.541 113.833,391.538 M113.448,394.887 Q116.271,395.172 119.7,395.622 125.329,396.412 133.166,400.995 133.57,401.254 138.759,404.727 138.809,404.744 138.849,404.77 140.605,405.962 142.909,407.505 M238.134,404.547 Q233.902,402.128 232.63,400.813 231.359,399.499 227.16,398.951 223.978,398.536 214.412,403.77 211.34,405.431 207.619,407.68 192.278,416.957 189.783,417.002 M242.131,433.531 Q242.401,433.705 246.126,437.649 248.488,440.102 251.963,440.039 254.219,439 257.244,438.83 260.418,437.586 264.441,435.092 270.187,431.448 271.597,429.081 272.073,428.295 272.061,427.646 272.049,426.933 270.223,424.56 268.487,422.184 267.77,421.93 M282.321,403.397 Q286.516,408.67 288.53,416.566 291.119,426.769 287.79,434.94 287.597,435.407 287.362,435.928 285.219,440.756 279.602,450.506 278.774,451.94 277.873,453.478 271.041,465.099 269.273,470.924 267.678,476.389 265.364,486.502 263.279,494.472 260.374,496.485 255.62,499.779 253.849,500.435 250.039,501.662 243.509,500.353 240.468,499.784 230.247,496.402 226.895,495.261 223.886,494.6 L223.797,494.602 M223.389,496.704 Q217.665,500.55 210.073,509.599 206.796,513.492 204.106,517.282 L204.019,517.373 203.758,517.734 Q202.646,519.373 201.632,520.981 199.089,524.955 197.227,528.814 193.187,537.087 186.029,555.397 182.571,564.153 177.212,578.105 L177.168,578.151 Q177.162,578.224 177.126,578.285 177.091,578.442 177.042,578.598 176.827,579.105 176.615,579.631 176.063,581.126 175.467,582.682 172.741,589.683 168.84,600.805 165.516,609.243 161.755,613.232 M161.325,614.131 Q158.989,618.006 149.467,628.783 142.665,636.52 139.961,640.407 139.105,641.668 138.662,642.525 M259.935,447.205 Q261.198,448.073 263.173,448.84 265.236,449.605 266.216,449.588 268.8,449.541 270.643,447.904 271.519,447.086 271.947,446.098 272.375,445.11 272.354,443.951 272.341,443.239 271.251,442.1 M223.797,494.602 Q219.942,493.744 216.651,493.705 208.013,494.128 204.36,494.193 198.39,494.3 192.108,491.918 188.345,490.827 183.033,487.802 172.496,481.753 163.22,471.491 154.061,461.359 147.808,449.53 M145.911,450.589 Q145.585,457.28 141.943,472.854 139.227,484.696 138.929,493.586 138.869,495.241 138.897,496.795 138.955,500.002 139.946,515.493 140.346,537.768 137.818,545.924 136.134,551.391 133.748,557.495 132.315,562.066 132.43,568.481 132.494,572.054 133.377,576.53 L133.378,576.575 Q134.189,580.675 135.678,585.536 138.711,595.642 138.802,600.721 138.85,603.394 137.917,605.995 137.407,607.386 136.796,608.11 M138.336,609.464 Q138.411,611.494 138.176,615.483 138.168,615.636 138.182,615.795 137.861,621.242 137.015,630.21 L137.015,630.254 Q136.684,633.824 136.262,637.933 M198.069,531.027 L197.626,536.116 Q197.642,537.007 198.33,540.559 199.017,544.112 199.033,545.003 199.049,545.894 199.954,551.582 200.769,557.272 200.785,558.163 200.919,565.647 190.612,597.206 180.216,628.766 180.336,635.448 180.453,641.952 190.531,657.191 198.409,669.082 208.332,680.668 215.523,689.006 232.529,727.739 232.55,728.898 233.268,729.152 233.895,729.319 233.973,728.694 M148.523,675.503 Q150.773,676.711 162.56,687.818 175.165,699.892 175.212,702.476 175.269,705.683 197.479,721.506 219.689,737.329 219.753,740.892 219.772,741.962 220.127,741.866 220.482,741.771 220.485,741.949 L221.186,741.312 M170.589,365.652 Q166.406,361.003 159.857,358.625 153.397,356.246 147.709,357.15 M113.448,394.887 Q113.359,394.9 113.27,394.891 113.179,394.882 113.092,394.894 108.802,394.445 105.953,394.443 98.287,394.402 92.8,396.551 85.986,399.258 85.193,399.807 83.873,400.722 84.007,403.215 84.233,405.885 85.603,407.732 85.984,408.185 86.694,408.915 86.784,408 86.875,409.09 L86.921,409.134 M91.604,404.415 Q98.268,404.066 110.451,406.662 110.63,406.699 110.809,406.744 M86.921,409.134 Q89.142,411.422 94.221,416.133 100.982,422.358 105.301,425.115 106.088,425.598 106.787,425.979 112.728,429.26 119.676,429.046 124.754,428.865 131.996,430.161 137.718,431.128 139.489,430.472 M143.213,439.318 L147.669,449.221 Q147.748,449.373 147.808,449.53 M101.443,431.156 Q98.562,434.505 96.316,453.352 95.311,461.926 95.08,463.98 94.79,467.64 94.863,471.738 94.953,476.728 97.202,487.828 99.362,498.931 99.474,505.168 99.486,505.816 99.498,506.504 99.48,509.471 99.171,513.106 98.677,519.065 97.412,526.819 96.526,532.255 95.261,538.578 90.845,560.672 91.171,578.848 91.224,581.788 92.732,591.298 94.23,600.273 94.082,601.969 M110.809,406.744 Q112.63,407.116 114.567,407.568 129.243,410.87 134.941,410.5 M123.179,450.374 L123.397,452.598 Q123.434,454.647 122.197,460.195 120.961,465.833 120.866,470.469 120.691,475.642 120.848,484.374 120.866,485.354 121.278,488.466 121.692,491.667 121.713,492.825 121.714,492.889 121.715,492.959 121.742,495.354 121.214,499.786 120.685,505.054 119.907,506.405 119.123,507.4 117.654,510.011 116.616,511.767 116.103,512.935 115.589,514.103 115.599,514.682 M118.941,551.878 Q118.954,552.591 118.016,559.916 116.989,567.243 117.008,568.313 117.043,570.273 118.744,575.679 119.558,578.404 119.98,579.98 120.365,581.536 120.373,581.978 120.427,585.007 117.944,590.667 115.717,595.698 113.969,597.601 M99.498,506.504 Q94.431,507.219 88.654,513.116 83.3,518.525 81.908,524.557 81.506,526.316 81.437,528.13 81.183,533.839 77.886,593.436 74.832,651.692 74.855,657.931 74.93,662.119 74.436,669.347 74.373,670.409 74.338,671.354 L74.34,671.443 Q74.304,674.483 74.739,676.294 75.124,677.891 112.899,731.581 150.396,784.742 150.549,788.304 M79.763,524.239 Q71.288,528.758 62.8,532.565 50.686,537.952 43.922,538.519 29.849,539.039 13.448,538.977 -19.266,538.762 -30.816,535.85 M136.796,608.11 Q136.229,608.788 135.561,608.8 M136.262,637.933 L136.263,637.977 Q136.077,640.022 135.849,642.219 134.63,653.952 132.821,669.635 132.441,673.297 142.29,690.678 154.436,711.94 157.048,718.399 174.866,762.644 175.668,782.505 M-23.9,643.037 Q-16.929,644.071 .379,649 19.213,656.524 29.475,662.133 43.426,669.726 47.103,670.996 54.728,673.712 64.599,672.465 68.6,671.947 71.975,671.263" test="Avatar Lady"/>
      <path id="Layer4_0_2_STROKES" stroke="#FFBC00" stroke-width="1.782" stroke-linejoin="round" stroke-linecap="round" fill="none" d="M218.077,357.223 Q230.56,348.459 244.268,339.106 L251.883,346.277 Q259.785,354.514 261.127,359.748 261.608,361.7 254.978,364.761 247.55,368.014 246.535,371.062 245.266,374.828 246.595,384.341 247.191,388.448 247.98,391.981 248.027,392.205 248.077,392.425 M146.452,406.283 Q148.525,405.47 150.785,404.378 157.579,401.054 166.039,395.146 173.257,390.115 193.131,375.141 204.921,366.508 218.077,357.223 M247.772,392.787 Q248.035,393.041 248.271,393.313 248.167,392.876 248.077,392.425 M247.772,392.787 Q245.071,389.813 240.939,387.028 231.83,381.041 223.569,382.616 215.576,384.185 201.998,392.451 188.97,400.952 182.476,404.7 181.55,405.23 180.755,405.667 176.344,408.152 160.534,416.19 158.946,417.003 157.531,417.715 153.411,419.876 150.866,421.311 148.08,422.912 147.209,423.649" test="Avatar Lady"/>
      <path id="Layer4_0_3_STROKES" stroke="#FF0" stroke-width="1.782" stroke-linejoin="round" stroke-linecap="round" fill="none" d="M269.445,391.15 Q269.285,397.125 274.957,395.33 275.713,395.063 276.327,394.681 278.473,393.288 278.7,390.36 278.913,387.326 275.959,386.577 M217.729,409.816 Q216.345,412.158 216.088,412.697 216.003,412.966 216.016,413.679 216.099,418.312 222.604,418.195 224.831,418.155 227.189,415.439 229.373,412.993 229.344,411.39 229.336,410.944 227.069,408.757" test="Avatar Lady"/>
      <path id="Layer4_0_4_STROKES" stroke="#FFF" stroke-width="1.782" stroke-linejoin="round" stroke-linecap="round" fill="none" d="M209.45,464.957 L209.845,467.089 Q209.879,468.997 208.538,471.257 208.091,472.076 207.454,472.925 205.715,475.363 204.659,476.095 M210.297,472.428 Q219.485,477.789 230.237,475.992 234.153,475.654 238.157,475.315" test="Avatar Lady"/>
    </g>
    <g id="Censoredf0r1">
      <path fill="#000" stroke="none" d="M-18.85,587.45 L-18.85,814 829.1,814 829.1,587.45 -18.85,587.45Z" test="Censored"/>
      <path id="Layer2_0_1_STROKES" stroke="#F00" stroke-width="1" stroke-linejoin="round" stroke-linecap="round" fill="none" d="M440.05,618.05 Q451.45,617.8 458.4,626.55 467.15,637.6 468.45,662.45 469.85,688.65 462.7,703.85 456.1,717.9 444.2,718.65 432.35,719.45 426.85,709.9 420.75,699.4 419.8,672.25 418.8,645.6 424.1,632.35 428.75,620.7 438.75,618.35 M495.6,724.2 Q496.6,714.85 496.9,701.75 497.2,686.65 496.25,673.9 496.1,672 494.45,659.45 493.3,650.5 490.7,632.35 489,618.35 490.35,616.75 491.55,615.35 495.9,614.9 500.65,614.3 505.5,615.4 518.75,618.45 520.4,630.8 522.1,643.65 514.25,652.6 507.95,659.8 498.4,662.25 503.3,666.05 507.4,671.25 509.05,673.25 511.9,677.5 515.55,682.9 519.6,691.3 527.8,707.95 530,722.65 M571.35,616.75 Q570.6,616.75 561.5,617.45 554.45,617.95 553.1,617.4 551.6,616.75 553.4,667.7 553.45,669 553.55,670.25 555.9,669.9 562.05,669.85 568.9,669.8 569.75,669.65 M576.25,720.3 Q574.4,720.75 565.05,720.05 555.95,719.3 555.7,719 555.25,718.4 553.55,670.25 553.25,670.25 553.1,670.3 M604.7,615.4 Q618.7,614.1 628.4,620.25 644.15,630.2 645.2,657.9 646.25,686.5 642.45,697.5 640.25,704.05 633.1,708.2 628.35,711 618.55,712.9 610.8,714.4 606.65,714.4 604.3,714.4 604.1,664.55 603.85,614.05 604.7,615.4Z M184.5,635.7 Q183.2,629.95 177.55,624.45 171.75,618.8 166.2,618.35 158.55,617.7 151.55,621.25 141.9,626.15 136.2,638.3 129.55,652.55 127.75,666.9 125.85,682.2 129.9,695.45 132.45,703.95 135.75,708.55 140.25,714.75 146.6,714.75 153.75,714.75 160.75,710.8 167.95,706.85 170.85,701 M245.95,616.4 Q246.45,617.5 229.65,618.55 212.85,619.6 212.85,619.3 212.8,618.9 212.85,667.05 213.9,667.5 230.8,666.7 247.75,665.95 248.25,665.1 M277.65,720.65 Q277.8,720.8 277,668.55 276.2,616.25 276.35,616.4 276.6,616.75 327,712.15 323.8,613.15 322.4,613.8 M393.3,637.3 Q391.25,630.5 386,624.45 379.85,617.25 373.45,617.2 367,617.1 361.25,623.4 355.5,629.65 356.05,636.4 356.35,639.65 357.2,641.9 360.1,647.45 364.75,651.95 365.75,652.85 366.65,654 368.9,656.8 371.6,660.45 387.7,681.75 388.75,691.85 390,704.05 383.9,710.75 379.05,716.05 373.4,715.7 364.85,715.2 360.6,712.2 351.95,706.05 352.15,689.25 M212.85,667.05 Q212.65,667.1 212.5,691.5 212.4,715.8 212.25,717.35 212.1,718.95 229.65,719.2 247.15,719.45 248.25,717.35" test="Censored"/>
      <path id="Layer1_0_1_STROKES" stroke="#F00" stroke-width="1" stroke-linejoin="round" stroke-linecap="round" fill="none" d="M65.35,585.8 L732,585.8 732,745.6 65.35,745.6 65.35,585.8Z" test="Censored"/>
    </g>
  </g>
</svg>