<?xml version="1.0" encoding="utf-8"?>
<svg id="EdithAnim13" image-rendering="inherit" baseProfile="basic" version="1.1" x="0px" y="0px" width="800" height="600" xmlns="http://www.w3.org/2000/svg" xmlns:xlink="http://www.w3.org/1999/xlink">
  <g id="22_Avatarf132r1" overflow="visible">
    <g id="Avatar-Manf0r1">
      <g id="Tailf0r1">
        <path id="Layer6_0_1_STROKES" stroke="#009EFF" stroke-width="2.437" stroke-linejoin="round" stroke-linecap="round" fill="none" d="M576.895,636.878 Q575.659,618.979 574.975,601.068 574.363,583.701 568.716,567.3 562.509,549.436 545.228,541.314 524.228,531.528 521.195,553.427 520.752,556.618 522.838,559.417 527.773,566.143 534.786,570.448 542.115,567.769 547.629,572.822 554.268,578.958 557.191,588.159 564.025,609.872 569.469,631.768 571.007,637.894 569.977,644.111" test="Tail_2.3242325232423263e+312.3242325232423263e+31_2.3242325232423263e+312.3242325232423263e+31_2.3242325232423263e+312.3242325232423263e+31_2.3242325232423263e+312.3242325232423263e+31_2.3242325232423263e+312.3242325232423263e+31_2.3242325232423263e+312.3242325232423263e+31_2.3242325232423263e+312.3242325232423263e+31_2.3242325232423263e+312.3242325232423263e+31_2.3242325232423263e+312.3242325232423263e+31_2.3242325232423263e+312.3242325232423263e+31_2.3242325232423263e+312.3242325232423263e+31_2.3242325232423263e+312.3242325232423263e+31_2.3242325232423263e+312.3242325232423263e+31_2.3242325232423263e+312.3242325232423263e+31_2.3242325232423263e+312.3242325232423263e+31_2.3242325232423263e+312.3242325232423263e+31_2.3242325232423263e+312.3242325232423263e+31_2.3242325232423263e+312.3242325232423263e+31_23242325232423262324232523242326"/>
      </g>
      <path fill="#000" stroke="none" d="M536.214,545.788 Q531.872,536.042 526.379,534.624 525.139,534.27 510.077,538.611 492.179,543.75 471.89,543.927 450.803,544.104 430.602,537.548 414.389,530.903 412.528,531.08 406.149,533.915 404.377,535.156 401.187,537.282 401.453,539.94 401.63,541.889 401.807,552.61 402.428,562.976 405.44,566.52 408.718,570.33 424.578,578.57 437.69,585.215 451.069,590.885 459.84,594.606 473.042,611.174 479.775,619.591 487.395,629.426 488.99,630.666 487.395,632.438 486.155,633.767 486.332,633.767 L498.913,629.869 Q514.95,624.819 525.847,607.896 535.15,593.366 538.783,573.608 541.707,557.926 536.214,545.788 M541.884,177.123 L538.694,175.794 Q538.648,175.906 538.606,175.971 537.645,178.424 537.011,180.667 535.328,186.692 532.67,195.906 532.609,196.067 532.492,196.172 530.065,202.622 525.05,205.475 514.507,211.5 508.659,214.335 L512.646,223.195 Q512.203,229.663 514.241,272.988 514.315,274.587 514.329,276.089 515.983,309.943 516.19,320.212 516.188,320.279 516.19,320.301 516.22,322.675 516.19,323.756 515.836,337.666 518.405,359.639 518.759,362.74 523.632,360.171 528.505,357.513 528.151,355.652 527.974,354.323 530.012,355.032 531.695,355.652 532.138,356.095 532.227,356.184 538.783,333.502 L544.099,342.362 Q544.188,342.451 547.2,322.87 L552.516,325.085 Q552.619,325.19 551.896,315.782 551.935,315.761 551.896,315.693 550.886,301.23 547.997,264.483 546.245,242.028 544.896,227.271 543.227,207.545 542.327,201.577 542.075,199.836 541.884,199.273 542.075,199.836 542.327,201.577 543.227,207.545 544.896,227.271 L546.314,227.182 Q548.086,227.005 553.313,221.777 557.921,217.347 561.376,218.765 564.477,220.094 583.083,247.028 604.524,274.317 622.067,278.57 606.296,279.102 582.906,297.087 575.641,302.669 568.464,309.403 L567.401,310.377 Q568.662,323.845 572.805,369.917 L573.78,369.828 Q578.387,367.259 610.638,341.919 641.736,317.377 651.748,308.694 659.19,302.226 665.304,292.037 668.405,286.81 672.126,280.342 673.898,278.304 677.708,275.469 680.809,272.634 680.986,267.938 681.163,263.331 647.495,241.624 610.195,218.411 603.018,213.006 581.931,197.147 572.097,190.767 560.38,183.086 552.427,179.692 545.82,176.88 541.884,177.123 M478.889,171.718 Q481.547,171.275 484.028,170.832 488.015,170.832 487.749,175.705 495.369,174.819 498.381,175.705 501.571,176.68 501.482,180.135 L506.444,182.439 Q509.928,175.666 518.405,170.035 523.278,166.757 527.442,165.694 527.508,165.679 527.531,165.605 L526.379,158.517 Q527.708,158.428 525.139,155.327 520.443,149.923 516.633,145.227 511.494,138.848 493.597,133.089 477.915,128.039 469.232,127.95 441.412,127.684 422.274,135.481 410.402,140.354 399.77,155.062 397.732,157.849 396.048,160.378 391.298,167.909 389.846,173.579 L389.846,175.705 Q390.024,175.705 390.821,175.971 391.707,176.148 392.327,176.148 395.517,176.148 398.706,173.579 402.339,170.567 405.794,169.946 L405.794,172.161 409.781,172.161 Q412.439,171.63 417.49,170.124 421.388,168.883 422.185,169.06 L422.185,171.275 Q423.071,171.275 426.615,171.718 432.463,171.718 438.133,168.617 L442.563,168.617 442.563,170.389 449.651,170.389 Q461.347,166.845 462.055,166.845 463.207,166.845 464.27,167.643 465.511,168.529 467.814,168.617 467.814,170.832 467.371,171.718 L478.889,171.718Z" test="Avatar Man" stroke-width="1.772"/>
      <path id="Layer5_0_1_STROKES" stroke="#009EFF" stroke-width="1.772" stroke-linejoin="round" stroke-linecap="round" fill="none" d="M501.482,180.135 Q501.571,176.68 498.381,175.705 495.369,174.819 487.749,175.705 488.015,170.832 484.028,170.832 481.547,171.275 478.889,171.718 L467.371,171.718 Q467.814,170.832 467.814,168.617 465.511,168.529 464.27,167.643 463.207,166.845 462.055,166.845 461.347,166.845 449.651,170.389 L442.563,170.389 442.563,168.617 438.133,168.617 Q432.463,171.718 426.615,171.718 423.071,171.275 422.185,171.275 L422.185,169.06 Q421.388,168.883 417.49,170.124 412.439,171.63 409.781,172.161 L405.794,172.161 405.794,169.946 Q402.339,170.567 398.706,173.579 395.517,176.148 392.327,176.148 391.707,176.148 390.821,175.971 390.024,175.705 389.846,175.705 L389.846,173.579 Q391.298,167.909 396.093,160.422 397.732,157.849 399.77,155.062 410.402,140.354 422.274,135.481 441.412,127.684 469.232,127.95 477.915,128.039 493.597,133.089 511.494,138.848 516.633,145.227 520.443,149.923 525.139,155.327 527.708,158.428 526.379,158.517 M527.575,165.649 Q527.641,165.656 527.708,165.649 530.387,165.057 536.125,164.719 540.289,164.542 542.859,162.858 544.276,161.972 546.314,160.289 547.111,159.846 543.833,165.516 542.327,168.086 541.087,170.567 540.328,172.057 539.713,173.49 539.566,173.786 539.448,174.066 539.189,174.619 538.96,175.174 538.822,175.486 538.694,175.794 M541.884,177.123 Q545.82,176.88 552.472,179.737 560.38,183.086 572.097,190.767 581.931,197.147 603.018,213.006 610.195,218.411 647.495,241.624 681.163,263.331 680.986,267.938 680.809,272.634 677.708,275.469 673.898,278.304 672.126,280.342 668.405,286.81 665.304,292.037 659.19,302.226 651.748,308.694 641.736,317.377 610.638,341.919 578.387,367.259 573.78,369.828 573.321,370.127 572.894,370.404 567.737,373.749 565.452,375.055 561.376,377.448 557.832,376.916 M541.087,170.567 Q539.706,172.08 538.562,172.959 537.404,173.802 536.479,174.022 533.113,174.288 529.037,174.908 523.81,175.705 520.974,177.655 517.165,180.933 513.532,183.768 509.013,187.312 506.178,188.995 L504.229,189.97 Q504.656,186.061 506.488,182.483 M500.596,180.135 L501.482,180.135 M506.488,182.483 Q509.928,175.666 518.405,170.035 523.278,166.757 527.442,165.694 527.508,165.679 527.575,165.649 M538.694,175.794 Q538.648,175.906 538.606,176.016 537.645,178.424 537.011,180.667 535.328,186.692 532.67,195.906 532.609,196.067 532.537,196.216 530.065,202.622 525.05,205.475 514.507,211.5 508.659,214.335 M512.646,223.195 Q512.203,229.663 514.241,272.988 514.315,274.587 514.374,276.134 515.983,309.943 516.19,320.212 516.188,320.279 516.19,320.345 516.22,322.675 516.19,323.756 515.836,337.666 518.405,359.639 518.759,362.74 523.632,360.171 528.505,357.513 528.151,355.652 527.974,354.323 530.012,355.032 531.695,355.652 532.138,356.095 532.227,356.184 538.783,333.502 L544.099,342.362 Q544.188,342.451 547.2,322.87 L552.516,325.085 Q552.619,325.19 551.94,315.826 551.935,315.761 551.94,315.693 550.886,301.23 547.997,264.483 546.245,242.028 544.941,227.271 543.227,207.545 542.327,201.577 542.075,199.836 541.884,199.273 M567.401,310.422 L568.464,309.403 Q575.641,302.669 582.906,297.087 606.296,279.102 622.067,278.57 604.524,274.317 583.083,247.028 564.477,220.094 561.376,218.765 557.921,217.347 553.313,221.777 548.086,227.005 546.314,227.182 M446.639,220.094 Q447.672,220.261 449.829,220.36 452.288,220.448 456.208,220.448 463.119,220.36 466.131,220.094 471.713,219.562 472.422,219.385 475.966,218.411 476.32,215.664 M498.47,290.974 Q499.356,296.733 501.394,305.061 503.875,315.073 506.001,320.212 M399.681,288.316 Q399.681,288.405 400.035,297.442 400.301,303.91 402.782,308.251 403.579,309.644 404.775,310.998 408.405,315.05 415.718,318.706 425.818,323.845 435.564,324.199 L439.152,324.465 439.285,324.465 Q448.677,324.819 451.512,324.642 456.385,324.288 462.144,322.427 466.397,321.098 477.826,310.82 485.949,303.442 494.572,294.429 494.683,294.321 494.793,294.208 494.86,294.144 494.926,294.075 495.016,293.99 495.103,293.898 496.464,292.454 497.85,290.974 497.94,290.878 498.027,290.797 498.062,290.745 498.116,290.708 498.13,290.657 498.16,290.62 508.592,279.497 509.988,276.355 M439.108,325.085 Q438.311,328.895 436.804,337.578 435.298,345.109 432.906,349.007 M562.705,314.896 L567.401,310.422 M552.959,385.333 Q552.87,385.51 543.922,408.812 537.543,425.38 535.239,434.949 532.404,446.556 529.923,481.11 527.442,514.778 528.594,522.22 M477.56,430.873 Q478.092,432.823 479.864,433.354 480.396,433.531 481.813,433.531 484.117,433.531 485.003,432.468 485.357,432.114 486.775,428.836 M442.12,418.026 Q441.943,434.152 443.095,436.632 444.956,441.062 455.41,441.062 460.461,441.062 460.904,440.974 461.435,440.885 463.384,439.733 M443.449,472.515 Q442.563,475.173 442.563,478.097 442.563,482.97 446.462,483.236 449.031,483.325 457.182,483.147 M440.348,509.284 Q444.867,512.385 447.791,513.094 449.917,513.537 453.638,512.828 M485.623,634.299 Q478.978,637.4 461.169,640.767 443.184,644.134 424.046,645.817 407.478,647.323 368.494,646.526 339.079,645.994 322.156,644.931 309.132,644.134 282.729,641.387 276.173,640.678 271.3,641.741 267.844,642.539 266.781,641.83 M394.365,159.403 Q390.998,157.365 387.011,155.239 379.037,151.075 376.645,151.429 374.076,151.783 376.202,164.453 377.974,175.262 379.746,179.781 M384.176,191.742 Q384.885,194.666 386.745,200.513 387.809,205.209 385.062,207.247 381.679,209.769 378.461,212.12 L378.417,212.164 Q330.075,248.06 323.928,250.218 318.523,251.813 317.194,252.256 315.334,252.965 315.068,254.648 314.625,258.103 314.448,269.976 314.182,283.62 315.068,286.544 318.08,298.594 341.294,332.882 364.064,366.461 377.531,379.574 M385.948,222.309 Q388.695,223.727 394.188,224.435 394.411,224.469 394.631,224.48 399.816,225.222 404.997,224.967 408.275,224.79 415.895,223.549 422.097,222.486 424.046,222.752 M385.505,245.345 Q384.442,247.117 373.012,258.546 362.646,268.913 359.811,271.482 M407.123,266.077 Q411.11,266.077 415.54,265.191 L432.817,265.191 Q427.501,270.862 424.489,273.874 418.907,279.367 417.578,279.367 415.186,279.367 411.642,274.406 408.009,268.735 406.68,267.406 M350.065,266.609 Q351.585,270.282 354.849,274.937 354.885,274.989 354.938,275.026 363.061,286.675 381.961,304.441 390.741,312.686 397.2,318.972 412.147,333.47 414.743,337.489 M385.062,404.382 Q384.442,418.469 387.277,425.203 389.049,429.279 394.454,433.886 400.035,438.404 404.997,439.822 M400.124,447.796 Q400.213,450.543 399.77,461.883 399.592,472.515 401.01,475.262 402.693,478.54 406.858,481.287 410.933,483.945 413.414,483.679 M406.326,487.223 Q406.415,490.147 406.415,494.665 406.592,498.032 408.098,500.07 408.275,500.336 413.06,503.614 416.249,505.829 416.072,509.816 415.895,512.828 414.034,520.271 412.439,526.473 412.971,528.422 M391.264,541.269 Q370.532,537.459 345.458,533.561 295.399,525.853 274.401,525.853 260.402,525.853 244.454,522.929 231.873,520.625 229.215,521.423 224.607,522.84 220.266,530.105 215.925,537.459 216.279,543.484 216.545,547.56 217.962,558.369 219.114,568.026 218.051,571.836 M390.821,566.963 Q382.67,568.292 345.103,569.089 304.347,569.975 297.791,570.507 290.526,571.127 267.401,574.848 246.403,578.215 237.986,578.481 227.974,578.835 219.114,577.595 214.507,576.975 207.862,575.38 204.407,574.583 200.863,576.975 199.002,578.304 194.572,582.911 189.522,588.138 194.129,599.302 195.015,601.517 193.509,614.187 191.825,626.945 192.8,629.426 L195.901,636.957 Q199.356,646.437 200.774,656.449 M263.237,629.426 Q264.477,633.413 266.781,644.842 269.262,657.069 268.996,659.55" test="Avatar Man"/>
      <path id="Layer5_0_2_STROKES" stroke="#FF0" stroke-width="1.772" stroke-linejoin="round" stroke-linecap="round" fill="none" d="M449.651,223.549 Q448.765,228.511 450.537,232.144 452.398,235.953 455.853,235.953 457.271,235.953 459.22,234.89 461.435,233.65 462.055,231.966 M394.276,227.536 Q393.39,233.738 393.39,234.181 393.39,235.984 394.719,237.903 395.426,238.906 396.491,239.94 399.77,243.041 403.136,243.041 404.908,243.041 406.06,241.269 406.769,240.295 408.009,238.168" test="Avatar Man"/>
      <path id="Layer5_0_3_STROKES" stroke="#FFF" stroke-width="1.772" stroke-linejoin="round" stroke-linecap="round" fill="none" d="M480.661,271.836 Q486.598,274.229 486.863,278.216 486.881,278.467 486.908,278.747 486.902,278.815 486.908,278.88 L486.908,279.013 Q486.941,281.318 486.42,285.569 M472.687,287.784 Q478.526,286.392 482.079,282.114 483.27,280.682 484.205,278.924" test="Avatar Man"/>
      <path id="Layer5_0_4_STROKES" stroke="#F90" stroke-width="1.772" stroke-linejoin="round" stroke-linecap="round" fill="none" d="M412.528,531.08 Q414.389,530.903 430.602,537.548 450.803,544.104 471.89,543.927 492.179,543.75 510.077,538.611 525.139,534.27 526.379,534.624 531.872,536.042 536.214,545.788 541.707,557.926 538.783,573.608 535.15,593.366 525.847,607.896 514.95,624.819 498.913,629.869 L486.332,633.767 Q486.155,633.767 487.395,632.438 488.99,630.666 487.395,629.426 479.775,619.591 473.042,611.174 459.84,594.606 451.069,590.885 437.69,585.215 424.578,578.57 408.718,570.33 405.44,566.52 402.428,562.976 401.807,552.61 401.63,541.889 401.453,539.94 401.187,537.282 404.377,535.156 406.149,533.915 412.528,531.08Z" test="Avatar Man"/>
    </g>
    <g id="Avatar-Lady">
      <path fill="#000" stroke="none" d="M221.264,502.854 Q217.398,502.004 214.091,501.937 205.407,502.288 201.735,502.323 195.736,502.38 189.443,499.932 185.671,498.803 180.358,495.719 169.821,489.55 160.587,479.159 151.47,468.9 145.241,456.916 L143.371,458.008 Q142.987,464.728 139.194,480.348 136.364,492.225 135.989,501.155 135.915,502.818 135.93,504.38 135.96,507.604 136.825,523.179 137.037,545.566 134.428,553.741 132.689,559.22 130.239,565.334 128.76,569.915 128.821,576.363 128.855,579.954 129.704,584.415 L129.705,584.504 Q130.485,588.631 131.94,593.528 134.902,603.71 134.951,608.814 134.976,611.501 134.016,614.107 133.492,615.5 132.871,616.178 L134.407,617.596 Q134.466,619.637 134.195,623.598 134.187,623.797 134.199,623.957 133.83,629.428 132.903,638.388 L132.904,638.477 Q132.54,642.061 132.081,646.187 L135.777,648.66 Q138.527,644.822 145.429,637.105 155.089,626.355 157.47,622.482 L157.909,621.582 Q161.722,617.605 165.135,609.155 169.149,598.011 171.948,590 172.56,589.44 173.083,587.943 173.345,587.416 173.521,586.865 173.617,586.753 173.608,586.595 173.69,586.533 173.696,586.415 L173.696,586.415 Q179.245,572.44 182.794,563.671 190.143,545.331 194.273,537.052 196.177,533.19 198.767,529.218 199.799,527.611 200.885,525.974 L201.15,525.613 201.239,525.523 Q204.019,521.737 207.346,517.852 215.052,508.823 220.837,505.007 L221.264,502.854 M198.164,343.033 L197.413,329.964 196.965,329.969 Q186.935,330.064 181.031,330.747 169.134,332.203 159.679,336.323 150.584,340.439 142.139,347.147 138.943,349.654 135.831,352.401 135.829,352.444 135.742,352.491 135.522,352.719 135.209,352.944 130.595,357.265 126.251,362.164 118.807,370.474 115.668,379.46 112.528,388.356 111.639,398.395 L111.222,401.712 Q114.057,402.067 117.499,402.548 123.149,403.39 130.985,408.063 131.389,408.326 136.574,411.861 136.624,411.878 136.664,411.86 138.418,413.117 140.721,414.687 138.418,413.117 136.664,411.86 136.624,411.878 136.574,411.861 131.389,408.326 130.985,408.063 123.149,403.39 117.499,402.548 114.057,402.067 111.222,401.712 L108.47,413.65 Q110.297,414.039 112.239,414.51 126.96,417.952 132.688,417.629 126.96,417.952 112.239,414.51 110.297,414.039 108.47,413.65 108.29,413.603 108.111,413.564 95.891,410.851 89.191,411.146 L84.4,415.849 Q86.657,418.166 91.721,422.944 98.462,429.256 102.734,432.064 103.566,432.555 104.265,432.945 110.207,436.291 117.191,436.136 122.295,435.998 129.562,437.362 135.303,438.382 137.088,437.738 L142.744,439.207 140.755,446.659 145.149,456.648 Q145.227,456.801 145.241,456.916 151.47,468.9 160.587,479.159 169.821,489.55 180.358,495.719 185.671,498.803 189.443,499.932 195.736,502.38 201.735,502.323 205.407,502.288 214.091,501.937 217.398,502.004 221.264,502.854 L221.354,502.853 Q224.372,503.587 227.73,504.763 237.973,508.248 241.024,508.846 247.574,510.216 251.414,509.016 253.199,508.372 258.004,505.102 260.941,503.104 263.104,495.113 265.515,484.97 267.165,479.491 268.99,473.653 275.955,462.033 276.873,460.495 277.718,459.061 283.445,449.311 285.64,444.478 285.88,443.956 286.078,443.488 289.493,435.306 286.977,425.031 285.021,417.079 280.851,411.745 L274.857,402.936 Q274.282,403.314 273.519,403.575 267.804,405.331 268.016,399.329 L263.158,397.046 246.532,400.428 Q246.619,400.882 246.72,401.322 246.484,401.046 246.178,400.79 243.534,397.777 239.405,394.943 230.302,388.85 221.987,390.362 213.942,391.871 200.227,400.062 187.064,408.494 180.46,412.16 179.57,412.729 178.768,413.162 174.314,415.622 158.358,423.565 156.756,424.368 155.327,425.027 151.169,427.208 148.554,428.584 145.786,430.213 144.905,430.947 145.786,430.213 148.554,428.584 151.169,427.208 155.327,425.027 156.756,424.368 158.358,423.565 174.314,415.622 178.768,413.162 179.57,412.729 180.46,412.16 187.064,408.494 200.227,400.062 213.942,391.871 221.987,390.362 230.302,388.85 239.405,394.943 243.534,397.777 246.178,400.79 L246.532,400.428 Q246.484,400.206 246.439,399.981 245.676,396.424 245.112,392.292 243.857,382.721 245.164,378.947 246.21,375.892 253.702,372.687 260.391,369.668 259.924,367.702 258.62,362.43 250.75,354.087 L243.158,346.815 Q229.303,356.097 216.64,364.799 203.385,374.017 191.464,382.591 171.365,397.47 164.069,402.465 155.518,408.329 148.662,411.567 146.381,412.69 144.291,413.489 146.381,412.69 148.662,411.567 155.518,408.329 164.069,402.465 171.365,397.47 191.464,382.591 203.385,374.017 216.64,364.799 L210.828,356.346 Q210.012,355.279 205.036,349.953 199.607,344.183 198.164,343.033 M230.938,408.726 Q229.672,407.395 225.457,406.808 222.263,406.363 212.605,411.497 209.505,413.185 205.747,415.413 190.251,424.606 187.743,424.629 190.251,424.606 205.747,415.413 209.505,413.185 212.605,411.497 222.263,406.363 225.457,406.808 229.672,407.395 230.938,408.726 232.205,410.057 236.438,412.525 232.205,410.057 230.938,408.726 M225.346,423.377 Q227.562,420.938 227.546,419.326 227.542,418.878 225.282,416.661 227.542,418.878 227.546,419.326 227.562,420.938 225.346,423.377 222.953,426.086 220.715,426.108 214.178,426.17 214.133,421.513 214.127,420.797 214.214,420.527 214.477,419.987 215.888,417.645 214.477,419.987 214.214,420.527 214.127,420.797 214.133,421.513 214.178,426.17 220.715,426.108 222.953,426.086 225.346,423.377 M206.084,479.265 Q205.673,480.129 205.026,480.977 203.257,483.411 202.19,484.138 203.257,483.411 205.026,480.977 205.673,480.129 206.084,479.265 207.496,477.05 207.478,475.132 L207.099,472.986 207.478,475.132 Q207.496,477.05 206.084,479.265 M250.032,448.308 Q252.299,448.287 255.304,447.094 258.549,445.915 262.613,443.442 268.418,439.83 269.811,437.463 270.341,436.677 270.334,436.025 270.328,435.309 268.514,432.908 266.789,430.506 266.07,430.245 266.789,430.506 268.514,432.908 270.328,435.309 270.334,436.025 270.341,436.677 269.811,437.463 268.418,439.83 262.613,443.442 258.549,445.915 255.304,447.094 252.299,448.287 250.032,448.308 246.539,448.342 244.187,445.856 240.477,441.861 240.207,441.685 240.477,441.861 244.187,445.856 246.539,448.342 250.032,448.308 M270.49,452.413 Q270.483,451.697 269.398,450.543 270.483,451.697 270.49,452.413 270.501,453.577 270.063,454.566 269.624,455.556 268.736,456.37 266.871,458 264.274,458.025 263.289,458.034 261.222,457.248 259.244,456.46 257.982,455.577 259.244,456.46 261.222,457.248 263.289,458.034 264.274,458.025 266.871,458 268.736,456.37 269.624,455.556 270.063,454.566 270.501,453.577 270.49,452.413 M227.894,484.252 Q231.832,483.946 235.859,483.639 231.832,483.946 227.894,484.252 217.074,485.967 207.887,480.502 217.074,485.967 227.894,484.252 M168.893,372.865 Q164.728,368.158 158.167,365.712 151.696,363.266 145.972,364.126 151.696,363.266 158.167,365.712 164.728,368.158 168.893,372.865Z" test="Avatar Lady" stroke-width="1.791"/>
      <path id="Layer4_0_1_STROKES" stroke="#009EFF" stroke-width="1.791" stroke-linejoin="round" stroke-linecap="round" fill="none" d="M263.158,397.046 Q262.044,392.848 265.342,391.204 268.549,389.472 271.585,388.458 M241.413,342.264 Q241.674,341.455 241.67,341.008 241.661,340.112 238.652,334.409 235.095,327.726 234.546,326.477 232.532,321.839 227.775,320.72 222.845,320.319 221.136,319.53 221.507,320.869 221.549,325.257 L221.431,331.707 Q221.163,331.799 219.186,331.101 217.03,330.405 216.045,330.414 212.553,330.448 210.67,330.286 206.188,329.791 201.173,329.839 L197.413,329.964 M198.164,343.033 Q199.607,344.183 205.036,349.953 210.012,355.279 210.828,356.346 M221.136,319.53 Q221.132,319.44 221.046,319.441 L221.043,319.172 Q221.132,319.349 221.136,319.53Z M196.965,329.969 Q196.963,329.789 197.053,329.789 197.226,329.961 197.413,329.964 L196.965,329.969 Q186.935,330.064 181.031,330.747 169.134,332.203 159.679,336.323 150.584,340.439 142.139,347.147 138.943,349.654 135.875,352.401 135.829,352.444 135.787,352.491 135.522,352.719 135.254,352.944 130.595,357.265 126.251,362.164 118.807,370.474 115.668,379.46 112.528,388.356 111.639,398.395 M111.223,401.757 Q114.057,402.067 117.499,402.548 123.149,403.39 130.985,408.063 131.389,408.326 136.574,411.861 136.624,411.878 136.664,411.904 138.418,413.117 140.721,414.687 M236.438,412.525 Q232.205,410.057 230.938,408.726 229.672,407.395 225.457,406.808 222.263,406.363 212.606,411.542 209.505,413.185 205.747,415.413 190.251,424.606 187.743,424.629 M240.207,441.685 Q240.477,441.861 244.187,445.856 246.539,448.342 250.032,448.308 252.299,448.287 255.349,447.138 258.549,445.915 262.613,443.442 268.418,439.83 269.856,437.463 270.341,436.677 270.334,436.025 270.328,435.309 268.514,432.908 266.789,430.506 266.07,430.245 M280.851,411.745 Q285.021,417.079 286.977,425.031 289.493,435.306 286.078,443.488 285.88,443.956 285.64,444.478 283.445,449.311 277.718,459.061 276.873,460.495 275.955,462.033 268.99,473.653 267.165,479.491 265.515,484.97 263.104,495.113 260.941,503.104 258.004,505.102 253.199,508.372 251.414,509.016 247.574,510.216 241.024,508.846 237.973,508.248 227.73,504.763 224.372,503.587 221.354,502.898 L221.264,502.898 M220.837,505.007 Q215.052,508.823 207.346,517.852 204.019,521.737 201.284,525.522 L201.195,525.613 200.93,525.974 Q199.799,527.611 198.767,529.218 196.177,533.19 194.273,537.052 190.143,545.331 182.794,563.671 179.245,572.44 173.741,586.415 L173.696,586.46 Q173.69,586.533 173.653,586.595 173.617,586.753 173.566,586.909 173.345,587.416 173.128,587.943 172.56,589.44 171.948,590 169.149,598.011 165.135,609.155 161.722,617.605 157.909,621.582 M157.47,622.482 Q155.089,626.355 145.429,637.105 138.527,644.822 135.777,648.704 134.906,649.965 134.454,650.822 M257.982,455.577 Q259.244,456.46 261.222,457.248 263.289,458.034 264.274,458.025 266.871,458 268.736,456.37 269.624,455.556 270.063,454.566 270.501,453.577 270.49,452.413 270.483,451.697 269.398,450.543 M221.264,502.898 Q217.398,502.004 214.091,501.937 205.407,502.288 201.735,502.323 195.736,502.38 189.443,499.932 185.671,498.803 180.358,495.719 169.821,489.55 160.587,479.159 151.47,468.9 145.286,456.96 M143.371,458.008 Q142.987,464.728 139.194,480.348 136.364,492.225 135.989,501.155 135.915,502.818 135.93,504.38 135.96,507.604 136.825,523.179 137.037,545.566 134.428,553.741 132.689,559.22 130.239,565.334 128.76,569.915 128.821,576.363 128.855,579.954 129.704,584.459 L129.705,584.504 Q130.485,588.631 131.94,593.528 134.902,603.71 134.951,608.814 134.976,611.501 134.016,614.107 133.492,615.5 132.872,616.222 M134.407,617.596 Q134.466,619.637 134.196,623.643 134.187,623.797 134.199,623.957 133.83,629.428 132.903,638.432 L132.904,638.477 Q132.54,642.061 132.081,646.187 M195.101,539.283 L194.612,544.393 Q194.62,545.288 195.281,548.864 195.942,552.441 195.951,553.336 195.959,554.232 196.819,559.955 197.59,565.679 197.599,566.575 197.67,574.097 187.044,605.722 176.329,637.349 176.392,644.065 176.455,650.602 186.452,666.001 194.268,678.017 204.141,689.745 211.296,698.185 228.056,737.252 228.067,738.416 228.786,738.678 229.415,738.851 229.499,738.224 M144.083,684.046 Q146.334,685.278 158.083,696.541 170.648,708.78 170.673,711.377 170.703,714.601 192.887,730.69 215.071,746.779 215.105,750.361 215.116,751.436 215.473,751.343 215.83,751.25 215.832,751.429 L216.542,750.795 M168.893,372.865 Q164.728,368.158 158.167,365.712 151.696,363.266 145.972,364.126 M111.223,401.757 Q111.133,401.769 111.044,401.759 110.952,401.749 110.865,401.761 106.558,401.273 103.695,401.247 95.992,401.141 90.459,403.253 83.589,405.915 82.788,406.46 81.453,407.368 81.567,409.875 81.771,412.56 83.132,414.428 83.511,414.886 84.218,415.626 84.309,415.711 84.399,415.804 L84.444,415.848 M89.191,411.146 Q95.891,410.851 108.111,413.564 108.29,413.603 108.47,413.65 M84.444,415.848 Q86.657,418.166 91.721,422.944 98.462,429.256 102.778,432.063 103.566,432.555 104.265,432.945 110.207,436.291 117.191,436.136 122.295,435.998 129.562,437.362 135.303,438.382 137.088,437.738 M140.755,446.659 L145.149,456.648 Q145.227,456.801 145.286,456.96 M98.85,438.101 Q95.927,441.442 93.509,460.362 92.427,468.97 92.178,471.032 91.854,474.707 91.893,478.826 91.941,483.841 94.107,495.015 96.183,506.19 96.243,512.459 96.249,513.111 96.255,513.802 96.212,516.783 95.871,520.433 95.324,526.417 93.986,534.198 93.049,539.654 91.725,545.996 87.099,568.161 87.272,586.429 87.301,589.385 88.735,598.954 90.164,607.985 90.001,609.689 M108.47,413.65 Q110.297,414.039 112.239,414.51 126.96,417.952 132.688,417.629 M120.529,457.598 L120.73,459.835 Q120.749,461.895 119.459,467.459 118.169,473.114 118.034,477.772 117.815,482.969 117.898,491.744 117.907,492.73 118.295,495.86 118.684,499.081 118.695,500.245 118.696,500.309 118.697,500.379 118.703,502.786 118.135,507.236 117.558,512.525 116.765,513.876 115.968,514.869 114.471,517.48 113.413,519.237 112.886,520.406 112.36,521.575 112.366,522.157 M115.407,559.564 Q115.414,560.28 114.409,567.633 113.315,574.987 113.325,576.062 113.344,578.032 115.007,583.479 115.802,586.225 116.213,587.811 116.586,589.379 116.59,589.823 116.619,592.868 114.076,598.534 111.795,603.571 110.022,605.468 M96.255,513.802 Q91.157,514.477 85.302,520.354 79.876,525.743 78.425,531.793 78.006,533.558 77.922,535.38 77.618,541.115 73.798,600.976 70.233,659.491 70.203,665.761 70.243,669.97 69.685,677.229 69.613,678.295 69.57,679.245 L69.571,679.335 Q69.509,682.389 69.931,684.212 70.304,685.821 107.807,740.095 145.036,793.835 145.159,797.416 M76.272,531.456 Q67.717,535.925 59.155,539.678 46.936,544.989 40.135,545.501 25.988,545.904 9.508,545.702 -23.365,545.208 -34.946,542.184 M132.872,616.222 Q132.296,616.9 131.624,616.906 M132.081,646.187 L132.082,646.232 Q131.877,648.285 131.63,650.49 130.305,662.271 128.353,678.016 127.94,681.691 137.69,699.242 149.715,720.711 152.285,727.224 169.814,771.837 170.451,791.803 M-28.908,649.954 Q-21.912,651.052 -4.57,657.156 14.301,663.873 24.565,669.597 38.52,677.346 42.205,678.654 49.844,681.448 59.773,680.279 63.799,679.793 67.196,679.133" test="Avatar Lady"/>
      <path id="Layer4_0_2_STROKES" stroke="#FFBC00" stroke-width="1.791" stroke-linejoin="round" stroke-linecap="round" fill="none" d="M216.685,364.799 Q229.303,356.097 243.158,346.815 L250.75,354.087 Q258.62,362.43 259.924,367.702 260.391,369.668 253.702,372.687 246.21,375.892 245.164,378.947 243.857,382.721 245.112,392.292 245.676,396.424 246.439,399.981 246.484,400.206 246.532,400.428 M144.291,413.489 Q146.381,412.69 148.662,411.611 155.518,408.329 164.069,402.465 171.365,397.47 191.464,382.591 203.385,374.017 216.685,364.799 M246.222,400.789 Q246.484,401.046 246.72,401.322 246.619,400.882 246.532,400.428 M246.222,400.789 Q243.534,397.777 239.405,394.943 230.302,388.85 221.987,390.362 213.942,391.871 200.227,400.062 187.064,408.494 180.505,412.205 179.57,412.729 178.768,413.162 174.314,415.622 158.358,423.565 156.756,424.368 155.327,425.071 151.169,427.208 148.6,428.628 145.786,430.213 144.905,430.947" test="Avatar Lady"/>
      <path id="Layer4_0_3_STROKES" stroke="#FF0" stroke-width="1.791" stroke-linejoin="round" stroke-linecap="round" fill="none" d="M268.016,399.329 Q267.804,405.331 273.519,403.575 274.282,403.314 274.901,402.935 277.07,401.553 277.323,398.613 277.563,395.566 274.6,394.788 M215.888,417.645 Q214.477,419.987 214.214,420.527 214.127,420.797 214.133,421.513 214.178,426.17 220.715,426.108 222.953,426.086 225.346,423.377 227.562,420.938 227.546,419.326 227.542,418.878 225.282,416.661" test="Avatar Lady"/>
      <path id="Layer4_0_4_STROKES" stroke="#FFF" stroke-width="1.791" stroke-linejoin="round" stroke-linecap="round" fill="none" d="M207.099,472.986 L207.478,475.132 Q207.496,477.05 206.129,479.309 205.673,480.129 205.026,480.977 203.257,483.411 202.19,484.138 M207.887,480.502 Q217.074,485.967 227.894,484.252 231.832,483.946 235.859,483.639" test="Avatar Lady"/>
    </g>
    <g id="Censoredf0r1">
      <path fill="#000" stroke="none" d="M-18.85,550.75 L-18.85,777.3 829.1,777.3 829.1,550.75 -18.85,550.75Z" test="Censored"/>
      <path id="Layer2_0_1_STROKES" stroke="#F00" stroke-width="1" stroke-linejoin="round" stroke-linecap="round" fill="none" d="M440.05,581.35 Q451.45,581.1 458.4,589.85 467.15,600.9 468.45,625.75 469.85,651.95 462.7,667.15 456.1,681.2 444.2,681.95 432.35,682.75 426.85,673.2 420.75,662.7 419.8,635.55 418.8,608.9 424.1,595.65 428.75,584 438.75,581.65 M495.6,687.5 Q496.6,678.15 496.9,665.05 497.2,649.95 496.25,637.2 496.1,635.3 494.45,622.75 493.3,613.8 490.7,595.65 489,581.65 490.35,580.05 491.55,578.65 495.9,578.2 500.65,577.6 505.5,578.7 518.75,581.75 520.4,594.1 522.1,606.95 514.25,615.9 507.95,623.1 498.4,625.55 503.3,629.35 507.4,634.55 509.05,636.55 511.9,640.8 515.55,646.2 519.6,654.6 527.8,671.25 530,685.95 M571.35,580.05 Q570.6,580.05 561.5,580.75 554.45,581.25 553.1,580.7 551.6,580.05 553.4,631 553.45,632.3 553.55,633.55 555.9,633.2 562.05,633.15 568.9,633.1 569.75,632.95 M576.25,683.6 Q574.4,684.05 565.05,683.35 555.95,682.6 555.7,682.3 555.25,681.7 553.55,633.55 553.25,633.55 553.1,633.6 M604.7,578.7 Q618.7,577.4 628.4,583.55 644.15,593.5 645.2,621.2 646.25,649.8 642.45,660.8 640.25,667.35 633.1,671.5 628.35,674.3 618.55,676.2 610.8,677.7 606.65,677.7 604.3,677.7 604.1,627.85 603.85,577.35 604.7,578.7Z M184.5,599 Q183.2,593.25 177.55,587.75 171.75,582.1 166.2,581.65 158.55,581 151.55,584.55 141.9,589.45 136.2,601.6 129.55,615.85 127.75,630.2 125.85,645.5 129.9,658.75 132.45,667.25 135.75,671.85 140.25,678.05 146.6,678.05 153.75,678.05 160.75,674.1 167.95,670.15 170.85,664.3 M245.95,579.7 Q246.45,580.8 229.65,581.85 212.85,582.9 212.85,582.6 212.8,582.2 212.85,630.35 213.9,630.8 230.8,630 247.75,629.25 248.25,628.4 M277.65,683.95 Q277.8,684.1 277,631.85 276.2,579.55 276.35,579.7 276.6,580.05 327,675.45 323.8,576.45 322.4,577.1 M393.3,600.6 Q391.25,593.8 386,587.75 379.85,580.55 373.45,580.5 367,580.4 361.25,586.7 355.5,592.95 356.05,599.7 356.35,602.95 357.2,605.2 360.1,610.75 364.75,615.25 365.75,616.15 366.65,617.3 368.9,620.1 371.6,623.75 387.7,645.05 388.75,655.15 390,667.35 383.9,674.05 379.05,679.35 373.4,679 364.85,678.5 360.6,675.5 351.95,669.35 352.15,652.55 M212.85,630.35 Q212.65,630.4 212.5,654.8 212.4,679.1 212.25,680.65 212.1,682.25 229.65,682.5 247.15,682.75 248.25,680.65" test="Censored"/>
      <path id="Layer1_0_1_STROKES" stroke="#F00" stroke-width="1" stroke-linejoin="round" stroke-linecap="round" fill="none" d="M65.35,549.1 L732,549.1 732,708.9 65.35,708.9 65.35,549.1Z" test="Censored"/>
    </g>
  </g>
</svg>