<?xml version="1.0" encoding="utf-8"?>
<svg id="EdithAnim13" image-rendering="inherit" baseProfile="basic" version="1.1" x="0px" y="0px" width="800" height="600" xmlns="http://www.w3.org/2000/svg" xmlns:xlink="http://www.w3.org/1999/xlink">
  <g id="22_Avatarf136r1" overflow="visible">
    <g id="Avatar-Manf0r1">
      <g id="Tailf0r1">
        <path id="Layer6_0_1_STROKES" stroke="#009EFF" stroke-width="2.459" stroke-linejoin="round" stroke-linecap="round" fill="none" d="M564.182,642.623 Q562.942,624.561 562.258,606.488 561.646,588.963 555.954,572.411 549.697,554.383 532.263,546.182 511.076,536.3 508.008,558.395 507.56,561.615 509.664,564.44 514.641,571.229 521.716,575.575 529.112,572.875 534.675,577.976 541.371,584.169 544.318,593.455 551.205,615.368 556.691,637.463 558.241,643.646 557.2,649.918" test="Tail_2.3242325232423263e+312.3242325232423263e+31_2.3242325232423263e+312.3242325232423263e+31_2.3242325232423263e+312.3242325232423263e+31_2.3242325232423263e+312.3242325232423263e+31_2.3242325232423263e+312.3242325232423263e+31_2.3242325232423263e+312.3242325232423263e+31_2.3242325232423263e+312.3242325232423263e+31_2.3242325232423263e+312.3242325232423263e+31_2.3242325232423263e+312.3242325232423263e+31_2.3242325232423263e+312.3242325232423263e+31_2.3242325232423263e+312.3242325232423263e+31_2.3242325232423263e+312.3242325232423263e+31_2.3242325232423263e+312.3242325232423263e+31_2.3242325232423263e+312.3242325232423263e+31_2.3242325232423263e+312.3242325232423263e+31_2.3242325232423263e+312.3242325232423263e+31_2.3242325232423263e+312.3242325232423263e+31_2.3242325232423263e+312.3242325232423263e+31_2.3242325232423263e+312.3242325232423263e+31_2323"/>
      </g>
      <path fill="#000" stroke="none" d="M523.164,550.76 Q518.784,540.926 513.241,539.496 511.989,539.138 496.791,543.519 478.733,548.704 458.26,548.883 436.983,549.062 416.6,542.446 400.239,535.741 398.362,535.92 391.925,538.781 390.137,540.032 386.919,542.178 387.187,544.86 387.366,546.827 387.545,557.644 388.17,568.104 391.21,571.68 394.518,575.524 410.52,583.838 423.752,590.543 437.251,596.265 446.102,600.02 459.422,616.738 466.217,625.231 473.905,635.154 475.514,636.406 473.905,638.194 472.653,639.535 472.832,639.535 L485.527,635.601 Q501.708,630.505 512.705,613.43 522.092,598.768 525.757,578.832 528.707,563.008 523.164,550.76 M528.886,178.767 L525.668,177.426 Q525.621,177.539 525.578,177.605 524.609,180.079 523.969,182.343 522.27,188.422 519.588,197.72 519.528,197.883 519.41,197.988 516.96,204.496 511.9,207.375 501.261,213.454 495.361,216.315 L499.384,225.255 Q498.937,231.781 500.993,275.498 501.068,277.111 501.083,278.627 502.751,312.787 502.96,323.148 502.958,323.216 502.96,323.237 502.99,325.633 502.96,326.724 502.602,340.76 505.195,362.931 505.553,366.06 510.47,363.467 515.387,360.785 515.029,358.908 514.85,357.567 516.906,358.282 518.605,358.908 519.052,359.355 519.141,359.444 525.757,336.558 L531.121,345.498 Q531.21,345.587 534.25,325.83 L539.614,328.065 Q539.718,328.17 538.988,318.678 539.028,318.657 538.988,318.589 537.969,303.995 535.055,266.915 533.286,244.258 531.926,229.367 530.241,209.463 529.333,203.441 529.079,201.686 528.886,201.117 529.079,201.686 529.333,203.441 530.241,209.463 531.926,229.367 L533.356,229.278 Q535.144,229.099 540.419,223.825 545.067,219.355 548.554,220.785 551.683,222.126 570.457,249.304 592.092,276.839 609.793,281.13 593.88,281.666 570.278,299.815 562.947,305.447 555.706,312.241 L554.633,313.225 Q555.906,326.813 560.087,373.301 L561.07,373.212 Q565.719,370.619 598.26,345.051 629.64,320.287 639.742,311.526 647.252,305 653.42,294.719 656.549,289.444 660.304,282.918 662.092,280.862 665.936,278.001 669.065,275.14 669.244,270.402 669.423,265.753 635.451,243.85 597.813,220.427 590.572,214.974 569.295,198.971 559.371,192.535 547.549,184.784 539.525,181.36 532.857,178.522 528.886,178.767 M465.323,173.314 Q468.005,172.867 470.508,172.42 474.531,172.42 474.263,177.337 481.951,176.443 484.991,177.337 488.209,178.32 488.12,181.807 L493.126,184.131 Q496.641,177.297 505.195,171.615 510.112,168.307 514.314,167.234 514.38,167.22 514.403,167.145 L513.241,159.993 Q514.582,159.904 511.989,156.775 507.251,151.321 503.407,146.583 498.222,140.146 480.163,134.335 464.339,129.239 455.578,129.15 427.506,128.882 408.196,136.749 396.216,141.666 385.488,156.506 383.432,159.319 381.734,161.87 376.94,169.469 375.476,175.191 L375.476,177.337 Q375.654,177.337 376.459,177.605 377.353,177.784 377.979,177.784 381.197,177.784 384.416,175.191 388.081,172.151 391.568,171.526 L391.568,173.761 395.591,173.761 Q398.273,173.224 403.368,171.704 407.302,170.453 408.107,170.632 L408.107,172.867 Q409.001,172.867 412.577,173.314 418.477,173.314 424.199,170.185 L428.669,170.185 428.669,171.973 435.821,171.973 Q447.621,168.397 448.337,168.397 449.499,168.397 450.572,169.201 451.823,170.095 454.148,170.185 454.148,172.42 453.701,173.314 L465.323,173.314Z" test="Avatar Man" stroke-width="1.788"/>
      <path id="Layer5_0_1_STROKES" stroke="#009EFF" stroke-width="1.788" stroke-linejoin="round" stroke-linecap="round" fill="none" d="M488.12,181.807 Q488.209,178.32 484.991,177.337 481.951,176.443 474.263,177.337 474.531,172.42 470.508,172.42 468.005,172.867 465.323,173.314 L453.701,173.314 Q454.148,172.42 454.148,170.185 451.823,170.095 450.572,169.201 449.499,168.397 448.337,168.397 447.621,168.397 435.821,171.973 L428.669,171.973 428.669,170.185 424.199,170.185 Q418.477,173.314 412.577,173.314 409.001,172.867 408.107,172.867 L408.107,170.632 Q407.302,170.453 403.368,171.704 398.273,173.224 395.591,173.761 L391.568,173.761 391.568,171.526 Q388.081,172.151 384.416,175.191 381.197,177.784 377.979,177.784 377.353,177.784 376.459,177.605 375.654,177.337 375.476,177.337 L375.476,175.191 Q376.94,169.469 381.778,161.915 383.432,159.319 385.488,156.506 396.216,141.666 408.196,136.749 427.506,128.882 455.578,129.15 464.339,129.239 480.163,134.335 498.222,140.146 503.407,146.583 507.251,151.321 511.989,156.775 514.582,159.904 513.241,159.993 M514.448,167.19 Q514.514,167.197 514.582,167.19 517.285,166.593 523.075,166.251 527.277,166.072 529.869,164.374 531.3,163.48 533.356,161.781 534.161,161.334 530.853,167.056 529.333,169.648 528.081,172.151 527.316,173.655 526.696,175.102 526.547,175.4 526.428,175.683 526.166,176.241 525.936,176.8 525.796,177.115 525.668,177.426 M528.886,178.767 Q532.857,178.522 539.569,181.404 547.549,184.784 559.371,192.535 569.295,198.971 590.572,214.974 597.813,220.427 635.451,243.85 669.423,265.753 669.244,270.402 669.065,275.14 665.936,278.001 662.092,280.862 660.304,282.918 656.549,289.444 653.42,294.719 647.252,305 639.742,311.526 629.64,320.287 598.26,345.051 565.719,370.619 561.07,373.212 560.607,373.514 560.176,373.793 554.973,377.169 552.666,378.487 548.554,380.9 544.978,380.364 M528.081,172.151 Q526.689,173.678 525.534,174.565 524.366,175.416 523.433,175.638 520.035,175.906 515.923,176.532 510.648,177.337 507.788,179.303 503.943,182.611 500.278,185.472 495.719,189.048 492.858,190.747 L490.891,191.73 Q491.322,187.786 493.171,184.176 M487.226,181.807 L488.12,181.807 M493.171,184.176 Q496.641,177.297 505.195,171.615 510.112,168.307 514.314,167.234 514.38,167.22 514.448,167.19 M525.668,177.426 Q525.621,177.539 525.578,177.65 524.609,180.079 523.969,182.343 522.27,188.422 519.588,197.72 519.528,197.883 519.454,198.033 516.96,204.496 511.9,207.375 501.261,213.454 495.361,216.315 M499.384,225.255 Q498.937,231.781 500.993,275.498 501.068,277.111 501.127,278.672 502.751,312.787 502.96,323.148 502.958,323.216 502.96,323.282 502.99,325.633 502.96,326.724 502.602,340.76 505.195,362.931 505.553,366.06 510.47,363.467 515.387,360.785 515.029,358.908 514.85,357.567 516.906,358.282 518.605,358.908 519.052,359.355 519.141,359.444 525.757,336.558 L531.121,345.498 Q531.21,345.587 534.25,325.83 L539.614,328.065 Q539.718,328.17 539.033,318.723 539.028,318.657 539.033,318.589 537.969,303.995 535.055,266.915 533.286,244.258 531.97,229.367 530.241,209.463 529.333,203.441 529.079,201.686 528.886,201.117 M554.633,313.269 L555.706,312.241 Q562.947,305.447 570.278,299.815 593.88,281.666 609.793,281.13 592.092,276.839 570.457,249.304 551.683,222.126 548.554,220.785 545.067,219.355 540.419,223.825 535.144,229.099 533.356,229.278 M432.781,222.126 Q433.823,222.294 435,222.394 438.481,222.484 442.436,222.484 449.409,222.394 452.449,222.126 458.081,221.59 458.796,221.411 462.372,220.427 462.73,217.656 M485.08,293.646 Q485.974,299.457 488.03,307.861 490.533,317.963 492.679,323.148 M385.399,290.964 Q385.399,291.053 385.757,300.172 386.025,306.698 388.528,311.079 389.333,312.484 390.54,313.85 394.201,317.94 401.58,321.628 411.772,326.813 421.606,327.171 L425.227,327.439 425.361,327.439 Q434.837,327.797 437.698,327.618 442.615,327.26 448.426,325.383 452.717,324.042 464.25,313.672 472.446,306.226 481.146,297.133 481.259,297.024 481.37,296.909 481.438,296.845 481.504,296.775 481.595,296.689 481.683,296.596 483.056,295.139 484.454,293.646 484.545,293.549 484.633,293.467 484.669,293.415 484.722,293.378 484.737,293.326 484.767,293.288 495.293,282.065 496.702,278.895 M425.182,328.065 Q424.377,331.909 422.858,340.67 421.338,348.269 418.924,352.203 M549.895,317.784 L554.633,313.269 M540.061,388.857 Q539.972,389.036 530.942,412.548 524.505,429.266 522.181,438.921 519.32,450.632 516.817,485.498 514.314,519.47 515.476,526.98 M463.982,434.809 Q464.518,436.775 466.306,437.312 466.842,437.491 468.273,437.491 470.597,437.491 471.491,436.418 471.849,436.06 473.279,432.752 M428.222,421.846 Q428.043,438.116 429.205,440.62 431.082,445.09 441.632,445.09 446.727,445.09 447.174,445 447.711,444.911 449.678,443.749 M429.563,476.827 Q428.669,479.509 428.669,482.459 428.669,487.376 432.602,487.644 435.195,487.733 443.42,487.555 M426.434,513.928 Q430.993,517.057 433.943,517.772 436.089,518.219 439.844,517.504 M472.117,640.071 Q465.412,643.2 447.443,646.597 429.294,649.994 409.984,651.693 393.266,653.213 353.93,652.408 324.249,651.872 307.174,650.799 294.032,649.994 267.391,647.223 260.775,646.508 255.858,647.581 252.372,648.385 251.299,647.67 M380.035,160.887 Q376.638,158.831 372.615,156.685 364.569,152.483 362.155,152.841 359.562,153.199 361.708,165.983 363.496,176.89 365.284,181.449 M369.754,193.518 Q370.469,196.468 372.347,202.369 373.419,207.107 370.648,209.163 367.235,211.707 363.988,214.08 L363.943,214.125 Q315.165,250.344 308.962,252.522 303.509,254.131 302.168,254.578 300.29,255.293 300.022,256.992 299.575,260.479 299.396,272.458 299.128,286.226 300.022,289.176 303.062,301.334 326.484,335.932 349.46,369.815 363.049,383.046 M371.542,224.361 Q374.313,225.791 379.856,226.507 380.081,226.541 380.303,226.551 385.535,227.3 390.763,227.043 394.071,226.864 401.759,225.613 408.017,224.54 409.984,224.808 M371.095,247.605 Q370.022,249.393 358.49,260.926 348.03,271.385 345.169,273.978 M392.909,268.525 Q396.932,268.525 401.402,267.631 L418.835,267.631 Q413.471,273.352 410.431,276.392 404.799,281.935 403.458,281.935 401.044,281.935 397.468,276.928 393.803,271.207 392.462,269.866 M335.335,269.061 Q336.869,272.768 340.163,277.465 340.198,277.516 340.252,277.554 348.448,289.308 367.519,307.235 376.379,315.554 382.896,321.896 397.978,336.526 400.597,340.581 M370.648,408.078 Q370.022,422.293 372.883,429.087 374.671,433.199 380.124,437.848 385.757,442.408 390.763,443.838 M385.846,451.884 Q385.935,454.655 385.488,466.099 385.31,476.827 386.74,479.598 388.439,482.906 392.64,485.677 396.753,488.359 399.256,488.091 M392.104,491.667 Q392.193,494.617 392.193,499.177 392.372,502.574 393.892,504.63 394.071,504.898 398.898,508.206 402.117,510.441 401.938,514.464 401.759,517.504 399.882,525.013 398.273,531.271 398.809,533.238 M376.906,546.201 Q355.986,542.357 330.686,538.423 280.175,530.645 258.987,530.645 244.862,530.645 228.77,527.695 216.075,525.371 213.393,526.175 208.745,527.606 204.364,534.937 199.983,542.357 200.341,548.436 200.609,552.548 202.04,563.455 203.202,573.2 202.129,577.044 M376.459,572.127 Q368.234,573.468 330.329,574.273 289.205,575.167 282.589,575.703 275.258,576.329 251.925,580.084 230.737,583.481 222.244,583.749 212.142,584.107 203.202,582.855 198.553,582.229 191.848,580.62 188.361,579.815 184.785,582.229 182.908,583.57 178.438,588.219 173.342,593.494 177.991,604.758 178.885,606.993 177.365,619.777 175.667,632.651 176.65,635.154 L179.779,642.753 Q183.266,652.319 184.696,662.421 M247.723,635.154 Q248.975,639.177 251.299,650.71 253.802,663.047 253.534,665.55" test="Avatar Man"/>
      <path id="Layer5_0_2_STROKES" stroke="#FF0" stroke-width="1.788" stroke-linejoin="round" stroke-linecap="round" fill="none" d="M435.821,225.613 Q434.927,230.619 436.715,234.284 438.592,238.129 442.079,238.129 443.509,238.129 445.476,237.056 447.711,235.804 448.337,234.106 M379.946,229.636 Q379.052,235.894 379.052,236.341 379.052,238.159 380.393,240.095 381.106,241.107 382.181,242.152 385.488,245.281 388.886,245.281 390.674,245.281 391.836,243.493 392.551,242.509 393.803,240.364" test="Avatar Man"/>
      <path id="Layer5_0_3_STROKES" stroke="#FFF" stroke-width="1.788" stroke-linejoin="round" stroke-linecap="round" fill="none" d="M467.111,274.336 Q473.1,276.749 473.369,280.772 473.386,281.026 473.413,281.309 473.408,281.377 473.413,281.443 L473.413,281.577 Q473.447,283.903 472.922,288.193 M459.065,290.428 Q464.956,289.022 468.541,284.706 469.743,283.261 470.687,281.488" test="Avatar Man"/>
      <path id="Layer5_0_4_STROKES" stroke="#F90" stroke-width="1.788" stroke-linejoin="round" stroke-linecap="round" fill="none" d="M398.362,535.92 Q400.239,535.741 416.6,542.446 436.983,549.062 458.26,548.883 478.733,548.704 496.791,543.519 511.989,539.138 513.241,539.496 518.784,540.926 523.164,550.76 528.707,563.008 525.757,578.832 522.092,598.768 512.705,613.43 501.708,630.505 485.527,635.601 L472.832,639.535 Q472.653,639.535 473.905,638.194 475.514,636.406 473.905,635.154 466.217,625.231 459.422,616.738 446.102,600.02 437.251,596.265 423.752,590.543 410.52,583.838 394.518,575.524 391.21,571.68 388.17,568.104 387.545,557.644 387.366,546.827 387.187,544.86 386.919,542.178 390.137,540.032 391.925,538.781 398.362,535.92Z" test="Avatar Man"/>
    </g>
    <g id="Avatar-Lady">
      <path fill="#000" stroke="none" d="M216.159,519.096 Q212.265,518.199 208.927,518.098 200.158,518.364 196.452,518.362 190.395,518.359 184.069,515.824 180.272,514.647 174.941,511.48 164.367,505.146 155.152,494.564 146.053,484.116 139.887,471.956 L137.988,473.04 Q137.533,479.819 133.546,495.547 130.569,507.507 130.099,516.518 130.008,518.195 130.007,519.772 130.005,523.026 130.72,538.756 130.707,561.356 127.991,569.581 126.18,575.095 123.645,581.24 122.106,585.85 122.102,592.359 122.1,595.984 122.911,600.495 L122.911,600.586 Q123.658,604.759 125.076,609.717 127.963,620.024 127.96,625.177 127.959,627.889 126.963,630.51 126.42,631.911 125.786,632.589 L127.322,634.036 Q127.361,636.097 127.048,640.093 127.037,640.293 127.048,640.454 126.62,645.974 125.593,655.008 L125.593,655.098 Q125.19,658.712 124.685,662.872 L128.39,665.405 Q131.205,661.56 138.25,653.84 148.109,643.088 150.552,639.202 L151.005,638.298 Q154.894,634.323 158.425,625.827 162.589,614.62 165.486,607.57 166.12,606.003 166.663,604.497 166.932,603.967 167.115,603.412 167.213,603.3 167.206,603.141 167.289,603.08 167.296,602.961 L167.296,602.961 Q173.039,588.91 176.711,580.095 184.314,561.657 188.568,553.343 190.528,549.464 193.183,545.48 194.241,543.868 195.354,542.227 L195.625,541.866 195.716,541.775 Q198.56,537.982 201.958,534.095 209.828,525.059 215.706,521.266 L216.159,519.096 M194.462,357.54 L193.836,344.341 193.384,344.341 Q183.259,344.335 177.293,344.964 165.269,346.314 155.684,350.376 146.461,354.439 137.869,361.124 134.617,363.623 131.448,366.364 131.446,366.407 131.358,366.454 131.133,366.682 130.815,366.906 126.114,371.221 121.679,376.122 114.081,384.434 110.822,393.472 107.563,402.42 106.562,412.545 L106.109,415.889 Q108.967,416.276 112.436,416.797 118.131,417.704 125.993,422.499 126.398,422.769 131.596,426.39 131.646,426.408 131.686,426.39 133.445,427.676 135.752,429.285 133.445,427.676 131.686,426.39 131.646,426.408 131.596,426.39 126.398,422.769 125.993,422.499 118.131,417.704 112.436,416.797 108.967,416.276 106.109,415.889 L103.209,427.911 Q105.05,428.322 107.006,428.817 121.829,432.441 127.615,432.173 121.829,432.441 107.006,428.817 105.05,428.322 103.209,427.911 103.028,427.862 102.848,427.82 90.54,424.958 83.775,425.188 L78.89,429.886 Q81.146,432.248 86.209,437.122 92.949,443.562 97.233,446.439 98.068,446.944 98.769,447.344 104.733,450.783 111.785,450.696 116.937,450.609 124.259,452.059 130.044,453.147 131.852,452.515 L137.547,454.055 135.463,461.557 139.797,471.685 Q139.875,471.84 139.887,471.956 146.053,484.116 155.152,494.564 164.367,505.146 174.941,511.48 180.272,514.647 184.069,515.824 190.395,518.359 196.452,518.362 200.158,518.364 208.927,518.098 212.265,518.199 216.159,519.096 L216.249,519.096 Q219.288,519.868 222.666,521.089 232.97,524.71 236.043,525.345 242.642,526.795 246.53,525.622 248.338,524.99 253.221,521.738 256.206,519.751 258.47,511.707 261.007,501.493 262.728,495.98 264.629,490.105 271.777,478.447 272.72,476.904 273.587,475.465 279.467,465.681 281.731,460.825 281.979,460.3 282.184,459.83 285.714,451.606 283.279,441.209 281.385,433.162 277.229,427.736 L271.268,418.783 Q270.684,419.159 269.912,419.415 264.125,421.129 264.4,415.073 L259.519,412.72 242.703,415.965 Q242.786,416.424 242.883,416.869 242.648,416.588 242.341,416.326 239.703,413.258 235.565,410.356 226.438,404.113 218.03,405.555 209.893,406.997 195.967,415.125 182.594,423.503 175.891,427.137 174.987,427.703 174.173,428.131 169.652,430.569 153.466,438.425 151.84,439.219 150.391,439.87 146.172,442.03 143.519,443.391 140.709,445.008 139.811,445.74 140.709,445.008 143.519,443.391 146.172,442.03 150.391,439.87 151.84,439.219 153.466,438.425 169.652,430.569 174.173,428.131 174.987,427.703 175.891,427.137 182.594,423.503 195.967,415.125 209.893,406.997 218.03,405.555 226.438,404.113 235.565,410.356 239.703,413.258 242.341,416.326 L242.703,415.965 Q242.656,415.74 242.613,415.513 241.879,411.914 241.352,407.737 240.182,398.064 241.54,394.268 242.626,391.195 250.222,388.035 257.003,385.056 256.552,383.067 255.29,377.732 247.43,369.23 L239.84,361.813 Q225.762,371.043 212.891,379.698 199.418,388.868 187.298,397.402 166.86,412.216 159.444,417.184 150.753,423.017 143.8,426.216 141.487,427.326 139.369,428.111 141.487,427.326 143.8,426.216 150.753,423.017 159.444,417.184 166.86,412.216 187.298,397.402 199.418,388.868 212.891,379.698 L207.11,371.107 Q206.297,370.021 201.328,364.595 195.908,358.716 194.462,357.54 M226.879,424.182 Q225.614,422.826 221.365,422.19 218.145,421.709 208.345,426.794 205.198,428.466 201.382,430.677 185.647,439.799 183.116,439.797 185.647,439.799 201.382,430.677 205.198,428.466 208.345,426.794 218.145,421.709 221.365,422.19 225.614,422.826 226.879,424.182 228.143,425.539 232.391,428.073 228.143,425.539 226.879,424.182 M221.085,438.914 Q223.346,436.475 223.347,434.848 223.347,434.396 221.089,432.134 223.347,434.396 223.347,434.848 223.346,436.475 221.085,438.914 218.642,441.625 216.382,441.624 209.783,441.62 209.786,436.919 209.786,436.196 209.877,435.925 210.148,435.383 211.596,433.033 210.148,435.383 209.877,435.925 209.786,436.196 209.786,436.919 209.783,441.62 216.382,441.624 218.642,441.625 221.085,438.914 M201.075,495.132 Q200.652,496 199.99,496.849 198.18,499.289 197.095,500.011 198.18,499.289 199.99,496.849 200.652,496 201.075,495.132 202.523,492.911 202.524,490.974 L202.164,488.805 202.524,490.974 Q202.523,492.911 201.075,495.132 M245.75,464.33 Q248.039,464.332 251.084,463.158 254.372,462.001 258.499,459.546 264.395,455.959 265.825,453.584 266.367,452.796 266.368,452.138 266.368,451.415 264.562,448.973 262.845,446.531 262.122,446.259 262.845,446.531 264.562,448.973 266.368,451.415 266.368,452.138 266.367,452.796 265.825,453.584 264.395,455.959 258.499,459.546 254.372,462.001 251.084,463.158 248.039,464.332 245.75,464.33 242.224,464.328 239.875,461.796 236.171,457.726 235.9,457.545 236.171,457.726 239.875,461.796 242.224,464.328 245.75,464.33 M266.359,468.681 Q266.359,467.958 265.275,466.782 266.359,467.958 266.359,468.681 266.358,469.856 265.906,470.85 265.453,471.844 264.549,472.658 262.649,474.284 260.028,474.282 259.033,474.282 256.954,473.467 254.966,472.652 253.701,471.748 254.966,472.652 256.954,473.467 259.033,474.282 260.028,474.282 262.649,474.284 264.549,472.658 265.453,471.844 265.906,470.85 266.358,469.856 266.359,468.681 M223.04,500.387 Q227.017,500.118 231.085,499.849 227.017,500.118 223.04,500.387 212.1,502.009 202.883,496.399 212.1,502.009 223.04,500.387 M164.613,387.355 Q160.457,382.562 153.86,380.027 147.352,377.492 141.566,378.302 147.352,377.492 153.86,380.027 160.457,382.562 164.613,387.355Z" test="Avatar Lady" stroke-width="1.808"/>
      <path id="Layer4_0_1_STROKES" stroke="#009EFF" stroke-width="1.808" stroke-linejoin="round" stroke-linecap="round" fill="none" d="M259.519,412.72 Q258.437,408.47 261.782,406.845 265.038,405.129 268.112,404.136 M238.125,357.202 Q238.397,356.389 238.397,355.937 238.398,355.033 235.418,349.245 231.896,342.463 231.354,341.198 229.368,336.496 224.577,335.318 219.606,334.863 217.888,334.048 218.249,335.405 218.247,339.834 L218.062,346.343 Q217.791,346.433 215.803,345.709 213.634,344.985 212.639,344.984 209.114,344.982 207.215,344.8 202.695,344.255 197.633,344.252 L193.836,344.341 M194.462,357.54 Q195.908,358.716 201.328,364.595 206.297,370.021 207.11,371.107 M217.888,334.048 Q217.885,333.958 217.798,333.958 L217.798,333.687 Q217.887,333.866 217.888,334.048Z M193.384,344.341 Q193.384,344.16 193.475,344.16 193.648,344.335 193.836,344.341 L193.384,344.341 Q183.259,344.335 177.293,344.964 165.269,346.314 155.684,350.376 146.461,354.439 137.869,361.124 134.617,363.623 131.493,366.364 131.446,366.407 131.403,366.454 131.133,366.682 130.86,366.906 126.114,371.221 121.679,376.122 114.081,384.434 110.822,393.472 107.563,402.42 106.562,412.545 M106.109,415.934 Q108.967,416.276 112.436,416.797 118.131,417.704 125.993,422.499 126.398,422.769 131.596,426.39 131.646,426.408 131.686,426.435 133.445,427.676 135.752,429.285 M232.391,428.073 Q228.143,425.539 226.879,424.182 225.614,422.826 221.365,422.19 218.145,421.709 208.345,426.839 205.198,428.466 201.382,430.677 185.647,439.799 183.116,439.797 M235.9,457.545 Q236.171,457.726 239.875,461.796 242.224,464.328 245.75,464.33 248.039,464.332 251.129,463.203 254.372,462.001 258.499,459.546 264.395,455.959 265.87,453.584 266.367,452.796 266.368,452.138 266.368,451.415 264.562,448.973 262.845,446.531 262.122,446.259 M277.229,427.736 Q281.385,433.162 283.279,441.209 285.714,451.606 282.184,459.83 281.979,460.3 281.731,460.825 279.467,465.681 273.587,475.465 272.72,476.904 271.777,478.447 264.629,490.105 262.728,495.98 261.007,501.493 258.47,511.707 256.206,519.751 253.221,521.738 248.338,524.99 246.53,525.622 242.642,526.795 236.043,525.345 232.97,524.71 222.666,521.089 219.288,519.868 216.249,519.142 L216.159,519.142 M215.706,521.266 Q209.828,525.059 201.958,534.095 198.56,537.982 195.761,541.775 L195.671,541.866 195.399,542.227 Q194.241,543.868 193.183,545.48 190.528,549.464 188.568,553.343 184.314,561.657 176.711,580.095 173.039,588.91 167.342,602.961 L167.296,603.006 Q167.289,603.08 167.251,603.141 167.213,603.3 167.161,603.458 166.932,603.967 166.708,604.497 166.12,606.003 165.486,607.57 162.589,614.62 158.425,625.827 154.894,634.323 151.005,638.298 M150.552,639.202 Q148.109,643.088 138.25,653.84 131.205,661.56 128.39,665.451 127.498,666.714 127.033,667.574 M253.701,471.748 Q254.966,472.652 256.954,473.467 259.033,474.282 260.028,474.282 262.649,474.284 264.549,472.658 265.453,471.844 265.906,470.85 266.358,469.856 266.359,468.681 266.359,467.958 265.275,466.782 M216.159,519.142 Q212.265,518.199 208.927,518.098 200.158,518.364 196.452,518.362 190.395,518.359 184.069,515.824 180.272,514.647 174.941,511.48 164.367,505.146 155.152,494.564 146.053,484.116 139.932,472.001 M137.988,473.04 Q137.533,479.819 133.546,495.547 130.569,507.507 130.099,516.518 130.008,518.195 130.007,519.772 130.005,523.026 130.72,538.756 130.707,561.356 127.991,569.581 126.18,575.095 123.645,581.24 122.106,585.85 122.102,592.359 122.1,595.984 122.911,600.54 L122.911,600.586 Q123.658,604.759 125.076,609.717 127.963,620.024 127.96,625.177 127.959,627.889 126.963,630.51 126.42,631.911 125.786,632.634 M127.322,634.036 Q127.361,636.097 127.048,640.138 127.037,640.293 127.048,640.454 126.62,645.974 125.593,655.053 L125.593,655.098 Q125.19,658.712 124.685,662.872 M189.38,555.603 L188.835,560.756 Q188.834,561.66 189.465,565.276 190.096,568.892 190.096,569.796 190.095,570.7 190.905,576.486 191.625,582.272 191.625,583.176 191.621,590.77 180.574,622.585 169.438,654.399 169.434,661.179 169.43,667.779 179.366,683.423 187.133,695.632 196.98,707.57 204.117,716.162 220.638,755.766 220.638,756.941 221.361,757.213 221.993,757.394 222.084,756.761 M136.416,701.208 Q138.675,702.475 150.421,713.962 162.979,726.445 162.978,729.066 162.976,732.321 185.205,748.786 207.435,765.251 207.433,768.867 207.432,769.952 207.794,769.861 208.155,769.771 208.155,769.952 L208.879,769.32 M164.613,387.355 Q160.457,382.562 153.86,380.027 147.352,377.492 141.566,378.302 M106.109,415.934 Q106.018,415.945 105.928,415.934 105.836,415.923 105.747,415.934 101.405,415.398 98.515,415.342 90.741,415.157 85.135,417.233 78.173,419.851 77.359,420.393 76.002,421.296 76.091,423.828 76.271,426.54 77.626,428.439 78.003,428.906 78.71,429.66 78.8,429.747 78.891,429.841 L78.936,429.886 M83.775,425.188 Q90.54,424.958 102.848,427.82 103.028,427.862 103.209,427.911 M78.936,429.886 Q81.146,432.248 86.209,437.122 92.949,443.562 97.278,446.439 98.068,446.944 98.769,447.344 104.733,450.783 111.785,450.696 116.937,450.609 124.259,452.059 130.044,453.147 131.852,452.515 M135.463,461.557 L139.797,471.685 Q139.875,471.84 139.932,472.001 M93.252,452.494 Q90.267,455.837 87.634,474.91 86.454,483.588 86.182,485.667 85.818,489.373 85.816,493.531 85.813,498.594 87.886,509.895 89.869,521.196 89.865,527.524 89.865,528.182 89.865,528.88 89.791,531.889 89.409,535.569 88.796,541.604 87.367,549.445 86.366,554.942 84.965,561.331 80.071,583.657 80.061,602.099 80.059,605.082 81.41,614.755 82.761,623.887 82.579,625.604 M103.209,427.911 Q105.05,428.322 107.006,428.817 121.829,432.441 127.615,432.173 M114.937,472.394 L115.116,474.654 Q115.115,476.733 113.756,482.337 112.397,488.032 112.213,492.732 111.939,497.976 111.934,506.835 111.934,507.829 112.294,510.993 112.653,514.248 112.653,515.423 112.653,515.488 112.653,515.559 112.635,517.989 112.016,522.474 111.38,527.807 110.566,529.163 109.752,530.157 108.214,532.777 107.128,534.54 106.585,535.715 106.042,536.889 106.041,537.477 M108.732,575.266 Q108.732,575.989 107.643,583.401 106.464,590.813 106.463,591.898 106.462,593.887 108.086,599.402 108.86,602.182 109.259,603.787 109.62,605.373 109.62,605.821 109.618,608.895 106.993,614.589 104.64,619.65 102.831,621.547 M89.865,528.88 Q84.711,529.51 78.742,535.383 73.21,540.768 71.684,546.86 71.244,548.637 71.14,550.475 70.775,556.261 66.312,616.646 62.121,675.674 62.027,682.002 62.025,686.251 61.388,693.573 61.304,694.649 61.251,695.607 L61.251,695.698 Q61.157,698.78 61.565,700.625 61.925,702.252 99.23,757.417 136.264,812.039 136.352,815.655 M69.515,546.497 Q60.834,550.922 52.153,554.623 39.766,559.86 32.895,560.308 18.612,560.571 1.978,560.2 -31.198,559.368 -42.858,556.198 M125.786,632.634 Q125.198,633.312 124.52,633.311 M124.685,662.872 L124.685,662.917 Q124.458,664.987 124.185,667.211 122.729,679.089 120.599,694.962 120.145,698.668 129.808,716.482 141.729,738.275 144.256,744.876 161.498,790.085 161.939,810.245 M-37.856,665.042 Q-30.805,666.221 -13.361,672.559 5.619,679.53 15.921,685.412 29.929,693.375 33.634,694.733 41.317,697.63 51.352,696.551 55.42,696.101 58.856,695.47" test="Avatar Lady"/>
      <path id="Layer4_0_2_STROKES" stroke="#FFBC00" stroke-width="1.808" stroke-linejoin="round" stroke-linecap="round" fill="none" d="M212.936,379.698 Q225.762,371.043 239.84,361.813 L247.43,369.23 Q255.29,377.732 256.552,383.067 257.003,385.056 250.222,388.035 242.626,391.195 241.54,394.268 240.182,398.064 241.352,407.737 241.879,411.914 242.613,415.513 242.656,415.74 242.703,415.965 M139.369,428.111 Q141.487,427.326 143.8,426.261 150.753,423.017 159.444,417.184 166.86,412.216 187.298,397.402 199.418,388.868 212.936,379.698 M242.386,416.326 Q242.648,416.588 242.883,416.869 242.786,416.424 242.703,415.965 M242.386,416.326 Q239.703,413.258 235.565,410.356 226.438,404.113 218.03,405.555 209.893,406.997 195.967,415.125 182.594,423.503 175.936,427.182 174.987,427.703 174.173,428.131 169.652,430.569 153.466,438.425 151.84,439.219 150.391,439.915 146.172,442.03 143.564,443.437 140.709,445.008 139.811,445.74" test="Avatar Lady"/>
      <path id="Layer4_0_3_STROKES" stroke="#FF0" stroke-width="1.808" stroke-linejoin="round" stroke-linecap="round" fill="none" d="M264.4,415.073 Q264.125,421.129 269.912,419.415 270.684,419.159 271.313,418.783 273.516,417.41 273.802,414.445 274.074,411.372 271.092,410.556 M211.596,433.033 Q210.148,435.383 209.877,435.925 209.786,436.196 209.786,436.919 209.783,441.62 216.382,441.624 218.642,441.625 221.085,438.914 223.346,436.475 223.347,434.848 223.347,434.396 221.089,432.134" test="Avatar Lady"/>
      <path id="Layer4_0_4_STROKES" stroke="#FFF" stroke-width="1.808" stroke-linejoin="round" stroke-linecap="round" fill="none" d="M202.164,488.805 L202.524,490.974 Q202.523,492.911 201.12,495.177 200.652,496 199.99,496.849 198.18,499.289 197.095,500.011 M202.883,496.399 Q212.1,502.009 223.04,500.387 227.017,500.118 231.085,499.849" test="Avatar Lady"/>
    </g>
    <g id="Censoredf0r1">
      <path fill="#000" stroke="none" d="M-18.85,489.55 L-18.85,716.1 829.1,716.1 829.1,489.55 -18.85,489.55Z" test="Censored"/>
      <path id="Layer2_0_1_STROKES" stroke="#F00" stroke-width="1" stroke-linejoin="round" stroke-linecap="round" fill="none" d="M440.05,520.15 Q451.45,519.9 458.4,528.65 467.15,539.7 468.45,564.55 469.85,590.75 462.7,605.95 456.1,620 444.2,620.75 432.35,621.55 426.85,612 420.75,601.5 419.8,574.35 418.8,547.7 424.1,534.45 428.75,522.8 438.75,520.45 M495.6,626.3 Q496.6,616.95 496.9,603.85 497.2,588.75 496.25,576 496.1,574.1 494.45,561.55 493.3,552.6 490.7,534.45 489,520.45 490.35,518.85 491.55,517.45 495.9,517 500.65,516.4 505.5,517.5 518.75,520.55 520.4,532.9 522.1,545.75 514.25,554.7 507.95,561.9 498.4,564.35 503.3,568.15 507.4,573.35 509.05,575.35 511.9,579.6 515.55,585 519.6,593.4 527.8,610.05 530,624.75 M571.35,518.85 Q570.6,518.85 561.5,519.55 554.45,520.05 553.1,519.5 551.6,518.85 553.4,569.8 553.45,571.1 553.55,572.35 555.9,572 562.05,571.95 568.9,571.9 569.75,571.75 M576.25,622.4 Q574.4,622.85 565.05,622.15 555.95,621.4 555.7,621.1 555.25,620.5 553.55,572.35 553.25,572.35 553.1,572.4 M604.7,517.5 Q618.7,516.2 628.4,522.35 644.15,532.3 645.2,560 646.25,588.6 642.45,599.6 640.25,606.15 633.1,610.3 628.35,613.1 618.55,615 610.8,616.5 606.65,616.5 604.3,616.5 604.1,566.65 603.85,516.15 604.7,517.5Z M184.5,537.8 Q183.2,532.05 177.55,526.55 171.75,520.9 166.2,520.45 158.55,519.8 151.55,523.35 141.9,528.25 136.2,540.4 129.55,554.65 127.75,569 125.85,584.3 129.9,597.55 132.45,606.05 135.75,610.65 140.25,616.85 146.6,616.85 153.75,616.85 160.75,612.9 167.95,608.95 170.85,603.1 M245.95,518.5 Q246.45,519.6 229.65,520.65 212.85,521.7 212.85,521.4 212.8,521 212.85,569.15 213.9,569.6 230.8,568.8 247.75,568.05 248.25,567.2 M277.65,622.75 Q277.8,622.9 277,570.65 276.2,518.35 276.35,518.5 276.6,518.85 327,614.25 323.8,515.25 322.4,515.9 M393.3,539.4 Q391.25,532.6 386,526.55 379.85,519.35 373.45,519.3 367,519.2 361.25,525.5 355.5,531.75 356.05,538.5 356.35,541.75 357.2,544 360.1,549.55 364.75,554.05 365.75,554.95 366.65,556.1 368.9,558.9 371.6,562.55 387.7,583.85 388.75,593.95 390,606.15 383.9,612.85 379.05,618.15 373.4,617.8 364.85,617.3 360.6,614.3 351.95,608.15 352.15,591.35 M212.85,569.15 Q212.65,569.2 212.5,593.6 212.4,617.9 212.25,619.45 212.1,621.05 229.65,621.3 247.15,621.55 248.25,619.45" test="Censored"/>
      <path id="Layer1_0_1_STROKES" stroke="#F00" stroke-width="1" stroke-linejoin="round" stroke-linecap="round" fill="none" d="M65.35,487.9 L732,487.9 732,647.7 65.35,647.7 65.35,487.9Z" test="Censored"/>
    </g>
  </g>
</svg>