<?xml version="1.0" encoding="utf-8"?>
<svg id="EdithAnim13" image-rendering="inherit" baseProfile="basic" version="1.1" x="0px" y="0px" width="800" height="600" xmlns="http://www.w3.org/2000/svg" xmlns:xlink="http://www.w3.org/1999/xlink">
  <g id="22_Avatarf138r1" overflow="visible">
    <g id="Avatar-Manf0r1">
      <g id="Tailf0r1">
        <path id="Layer6_0_1_STROKES" stroke="#009EFF" stroke-width="2.471" stroke-linejoin="round" stroke-linecap="round" fill="none" d="M558.386,645.503 Q557.137,627.352 556.446,609.19 555.828,591.579 550.105,574.946 543.814,556.83 526.292,548.591 504,538.664 501.919,560.869 501.469,564.105 503.584,566.943 508.587,573.765 515.698,578.132 523.13,575.417 528.721,580.542 535.452,586.765 538.415,596.096 545.34,618.116 550.857,640.32 552.416,646.532 551.37,652.836" test="Tail_2.3242325232423263e+312.3242325232423263e+31_2.3242325232423263e+312.3242325232423263e+31_2.3242325232423263e+312.3242325232423263e+31_2.3242325232423263e+312.3242325232423263e+31_2.3242325232423263e+312.3242325232423263e+31_2.3242325232423263e+312.3242325232423263e+31_2.3242325232423263e+312.3242325232423263e+31_2.3242325232423263e+312.3242325232423263e+31_2.3242325232423263e+312.3242325232423263e+31_2.3242325232423263e+312.3242325232423263e+31_2.3242325232423263e+312.3242325232423263e+31_2.3242325232423263e+312.3242325232423263e+31_2.3242325232423263e+312.3242325232423263e+31_2.3242325232423263e+312.3242325232423263e+31_2.3242325232423263e+312.3242325232423263e+31_2.3242325232423263e+312.3242325232423263e+31_2.3242325232423263e+312.3242325232423263e+31_2.3242325232423263e+312.3242325232423263e+31_2.3242325232423263e+312.3242325232423263e+31_2324232523242325"/>
      </g>
      <path fill="#000" stroke="none" d="M517.215,553.097 Q512.815,543.219 507.247,541.782 505.99,541.423 490.724,545.823 472.584,551.031 452.02,551.211 430.648,551.391 410.173,544.745 393.74,538.01 391.854,538.19 385.388,541.064 383.592,542.321 380.36,544.476 380.629,547.17 380.809,549.146 380.988,560.011 381.617,570.518 384.67,574.11 387.993,577.971 404.067,586.323 417.357,593.058 430.917,598.805 439.807,602.577 453.187,619.369 460.012,627.9 467.735,637.868 469.351,639.125 467.735,640.921 466.478,642.268 466.657,642.268 L479.409,638.317 Q495.663,633.198 506.708,616.047 516.137,601.319 519.819,581.294 522.782,565.399 517.215,553.097 M522.962,179.439 L519.729,178.092 Q519.683,178.205 519.639,178.272 518.666,180.757 518.023,183.031 516.317,189.137 513.623,198.477 513.562,198.64 513.443,198.746 510.983,205.283 505.9,208.175 495.214,214.281 489.287,217.155 L493.328,226.135 Q492.879,232.69 494.944,276.603 495.02,278.223 495.034,279.746 496.71,314.058 496.92,324.466 496.918,324.534 496.92,324.556 496.951,326.962 496.92,328.058 496.561,342.157 499.165,364.427 499.524,367.57 504.463,364.966 509.402,362.272 509.043,360.386 508.863,359.039 510.929,359.757 512.635,360.386 513.084,360.835 513.174,360.925 519.819,337.936 L525.207,346.916 Q525.297,347.006 528.35,327.16 L533.738,329.405 Q533.842,329.511 533.109,319.976 533.149,319.954 533.109,319.886 532.086,305.227 529.158,267.982 527.382,245.223 526.015,230.266 524.323,210.273 523.411,204.224 523.156,202.46 522.962,201.889 523.156,202.46 523.411,204.224 524.323,210.273 526.015,230.266 L527.452,230.176 Q529.248,229.996 534.546,224.698 539.216,220.208 542.718,221.645 545.861,222.992 564.719,250.291 586.451,277.95 604.231,282.26 588.247,282.799 564.539,301.028 557.176,306.686 549.902,313.51 L548.824,314.498 Q550.103,328.148 554.302,374.844 L555.29,374.754 Q559.96,372.15 592.647,346.467 624.167,321.592 634.314,312.792 641.857,306.237 648.053,295.91 651.196,290.611 654.968,284.056 656.764,281.991 660.625,279.117 663.768,276.243 663.948,271.484 664.128,266.814 630.004,244.813 592.198,221.286 584.924,215.808 563.552,199.734 553.584,193.268 541.709,185.483 533.648,182.043 526.951,179.193 522.962,179.439 M459.114,173.961 Q461.808,173.512 464.323,173.063 468.364,173.063 468.094,178.002 475.817,177.104 478.87,178.002 482.103,178.99 482.013,182.492 L487.042,184.827 Q490.573,177.963 499.165,172.255 504.104,168.932 508.325,167.855 508.391,167.84 508.414,167.765 L507.247,160.581 Q508.594,160.491 505.99,157.348 501.23,151.87 497.369,147.111 492.161,140.645 474.021,134.808 458.126,129.69 449.326,129.6 421.129,129.331 401.732,137.233 389.699,142.172 378.923,157.079 376.857,159.904 375.151,162.467 370.336,170.1 368.865,175.847 L368.865,178.002 Q369.045,178.002 369.853,178.272 370.751,178.451 371.38,178.451 374.612,178.451 377.845,175.847 381.527,172.794 385.029,172.165 L385.029,174.41 389.07,174.41 Q391.764,173.871 396.883,172.345 400.834,171.088 401.642,171.267 L401.642,173.512 Q402.54,173.512 406.132,173.961 412.059,173.961 417.806,170.818 L422.296,170.818 422.296,172.614 429.48,172.614 Q441.334,169.022 442.052,169.022 443.22,169.022 444.297,169.83 445.554,170.728 447.889,170.818 447.889,173.063 447.44,173.961 L459.114,173.961Z" test="Avatar Man" stroke-width="1.796"/>
      <path id="Layer5_0_1_STROKES" stroke="#009EFF" stroke-width="1.796" stroke-linejoin="round" stroke-linecap="round" fill="none" d="M482.013,182.492 Q482.103,178.99 478.87,178.002 475.817,177.104 468.094,178.002 468.364,173.063 464.323,173.063 461.808,173.512 459.114,173.961 L447.44,173.961 Q447.889,173.063 447.889,170.818 445.554,170.728 444.297,169.83 443.22,169.022 442.052,169.022 441.334,169.022 429.48,172.614 L422.296,172.614 422.296,170.818 417.806,170.818 Q412.059,173.961 406.132,173.961 402.54,173.512 401.642,173.512 L401.642,171.267 Q400.834,171.088 396.883,172.345 391.764,173.871 389.07,174.41 L385.029,174.41 385.029,172.165 Q381.527,172.794 377.845,175.847 374.612,178.451 371.38,178.451 370.751,178.451 369.853,178.272 369.045,178.002 368.865,178.002 L368.865,175.847 Q370.336,170.1 375.196,162.512 376.857,159.904 378.923,157.079 389.699,142.172 401.732,137.233 421.129,129.331 449.326,129.6 458.126,129.69 474.021,134.808 492.161,140.645 497.369,147.111 501.23,151.87 505.99,157.348 508.594,160.491 507.247,160.581 M508.459,167.81 Q508.526,167.817 508.594,167.81 511.31,167.21 517.125,166.867 521.346,166.687 523.95,164.981 525.387,164.083 527.452,162.377 528.26,161.928 524.938,167.675 523.411,170.279 522.154,172.794 521.385,174.304 520.762,175.757 520.613,176.057 520.493,176.341 520.23,176.901 519,177.463 519.859,177.779 519.729,178.092 M522.962,179.439 Q526.951,179.193 533.693,182.088 541.709,185.483 553.584,193.268 563.552,199.734 584.924,215.808 592.198,221.286 630.004,244.813 664.128,266.814 663.948,271.484 663.768,276.243 660.625,279.117 656.764,281.991 654.968,284.056 651.196,290.611 648.053,295.91 641.857,306.237 634.314,312.792 624.167,321.592 592.647,346.467 559.96,372.15 555.29,374.754 554.825,375.058 554.392,375.338 549.166,378.729 546.849,380.052 542.718,382.477 539.126,381.938 M522.154,172.794 Q520.755,174.328 519.595,175.218 518.422,176.073 517.484,176.296 514.072,176.565 509.941,177.194 504.643,178.002 501.769,179.978 497.908,183.3 494.226,186.174 489.646,189.766 486.773,191.472 L484.797,192.46 Q485.23,188.498 487.087,184.872 M481.115,182.492 L482.013,182.492 M487.087,184.872 Q490.573,177.963 499.165,172.255 504.104,168.932 508.325,167.855 508.391,167.84 508.459,167.81 M519.729,178.092 Q519.683,178.205 519.639,178.317 518.666,180.757 518.023,183.031 516.317,189.137 513.623,198.477 513.562,198.64 513.488,198.791 510.983,205.283 505.9,208.175 495.214,214.281 489.287,217.155 M493.328,226.135 Q492.879,232.69 494.944,276.603 495.02,278.223 495.079,279.791 496.71,314.058 496.92,324.466 496.918,324.534 496.92,324.601 496.951,326.962 496.92,328.058 496.561,342.157 499.165,364.427 499.524,367.57 504.463,364.966 509.402,362.272 509.043,360.386 508.863,359.039 510.929,359.757 512.635,360.386 513.084,360.835 513.174,360.925 519.819,337.936 L525.207,346.916 Q525.297,347.006 528.35,327.16 L533.738,329.405 Q533.842,329.511 533.154,320.021 533.149,319.954 533.154,319.886 532.086,305.227 529.158,267.982 527.382,245.223 526.06,230.266 524.323,210.273 523.411,204.224 523.156,202.46 522.962,201.889 M548.824,314.543 L549.902,313.51 Q557.176,306.686 564.539,301.028 588.247,282.799 604.231,282.26 586.451,277.95 564.719,250.291 545.861,222.992 542.718,221.645 539.216,220.208 534.546,224.698 529.248,229.996 527.452,230.176 M426.427,222.992 Q427.474,223.161 429.66,223.261 432.153,223.351 436.125,223.351 443.13,223.261 446.183,222.992 451.84,222.453 452.559,222.274 456.151,221.286 456.51,218.502 M478.96,294.832 Q479.858,300.669 481.923,309.11 484.438,319.258 486.593,324.466 M378.833,292.138 Q378.833,292.228 379.192,301.387 379.462,307.943 381.976,312.343 382.784,313.755 383.997,315.127 387.675,319.234 395.087,322.939 405.324,328.148 415.202,328.507 L418.839,328.776 418.974,328.776 Q428.492,329.136 431.366,328.956 436.305,328.597 442.142,326.711 446.452,325.364 458.037,314.947 466.269,307.469 475.009,298.334 475.122,298.225 475.233,298.11 475.302,298.045 475.368,297.975 475.46,297.889 475.548,297.795 476.927,296.332 478.331,294.832 478.423,294.735 478.511,294.652 478.547,294.6 478.601,294.563 478.615,294.511 478.646,294.473 489.219,283.199 490.634,280.015 M418.794,329.405 Q417.986,333.266 416.459,342.067 414.933,349.7 412.508,353.651 M544.065,319.078 L548.824,314.543 M534.187,390.469 Q534.097,390.649 525.027,414.266 518.562,431.059 516.227,440.757 513.353,452.521 510.839,487.543 508.325,521.667 509.492,529.21 M457.767,436.626 Q458.306,438.602 460.102,439.141 460.641,439.32 462.078,439.32 464.412,439.32 465.31,438.243 465.67,437.883 467.106,434.561 M421.847,423.605 Q421.668,439.949 422.835,442.463 424.721,446.953 435.317,446.953 440.436,446.953 440.885,446.863 441.424,446.774 443.399,445.606 M423.194,478.832 Q422.296,481.526 422.296,484.49 422.296,489.429 426.247,489.698 428.852,489.788 437.113,489.608 M420.051,516.099 Q424.631,519.242 427.594,519.961 429.75,520.41 433.521,519.691 M465.939,642.807 Q459.204,645.95 441.154,649.362 422.925,652.775 403.528,654.481 386.735,656.008 347.223,655.199 317.41,654.661 300.258,653.583 287.057,652.775 260.297,649.991 253.652,649.273 248.713,650.35 245.211,651.158 244.133,650.44 M373.445,161.479 Q370.033,159.414 365.992,157.258 357.91,153.038 355.485,153.397 352.881,153.756 355.036,166.598 356.832,177.553 358.628,182.133 M363.118,194.256 Q363.836,197.219 365.722,203.146 366.8,207.906 364.016,209.971 360.587,212.527 357.326,214.91 L357.281,214.955 Q308.284,251.336 302.054,253.524 296.576,255.14 295.229,255.589 293.343,256.308 293.074,258.014 292.625,261.516 292.445,273.549 292.176,287.379 293.074,290.342 296.127,302.555 319.655,337.307 342.733,371.342 356.383,384.632 M364.914,225.237 Q367.698,226.674 373.265,227.392 373.492,227.426 373.714,227.437 378.969,228.19 384.221,227.931 387.544,227.751 395.266,226.494 401.552,225.417 403.528,225.686 M364.465,248.585 Q363.387,250.381 351.803,261.965 341.297,272.472 338.423,275.076 M386.376,269.598 Q390.417,269.598 394.907,268.7 L412.418,268.7 Q407.03,274.447 403.977,277.501 398.32,283.068 396.973,283.068 394.548,283.068 390.956,278.039 387.274,272.292 385.927,270.945 M328.545,270.137 Q330.086,273.86 333.394,278.578 333.43,278.63 333.484,278.668 341.717,290.475 360.873,308.482 369.772,316.838 376.319,323.209 391.468,337.904 394.099,341.977 M364.016,409.776 Q363.387,424.054 366.261,430.879 368.057,435.01 373.535,439.679 379.192,444.259 384.221,445.696 M379.282,453.778 Q379.372,456.562 378.923,468.056 378.743,478.832 380.18,481.616 381.886,484.939 386.107,487.722 390.238,490.416 392.752,490.147 M385.568,493.739 Q385.658,496.702 385.658,501.282 385.837,504.695 387.364,506.76 387.544,507.029 392.393,510.352 395.626,512.597 395.446,516.638 395.266,519.691 393.381,527.234 391.764,533.52 392.303,535.496 M370.302,548.517 Q349.289,544.656 323.875,540.704 273.138,532.892 251.856,532.892 237.667,532.892 221.503,529.928 208.752,527.594 206.058,528.402 201.388,529.839 196.988,537.202 192.588,544.656 192.947,550.762 193.216,554.893 194.653,565.848 195.821,575.637 194.743,579.498 M369.853,574.559 Q361.591,575.906 323.516,576.714 282.208,577.612 275.563,578.151 268.199,578.78 244.762,582.551 223.479,585.964 214.948,586.233 204.801,586.592 195.821,585.335 191.151,584.706 184.416,583.09 180.914,582.282 177.322,584.706 175.436,586.053 170.946,590.723 165.827,596.021 170.497,607.336 171.395,609.581 169.868,622.422 168.162,635.354 169.15,637.868 L172.293,645.501 Q175.795,655.11 177.232,665.257 M240.541,637.868 Q241.798,641.909 244.133,653.493 246.647,665.886 246.378,668.4" test="Avatar Man"/>
      <path id="Layer5_0_2_STROKES" stroke="#FF0" stroke-width="1.796" stroke-linejoin="round" stroke-linecap="round" fill="none" d="M429.48,226.494 Q428.582,231.523 430.378,235.205 432.264,239.066 435.766,239.066 437.203,239.066 439.179,237.989 441.424,236.731 442.052,235.025 M373.355,230.535 Q372.457,236.821 372.457,237.27 372.457,239.097 373.804,241.042 374.521,242.058 375.6,243.107 378.923,246.25 382.335,246.25 384.131,246.25 385.299,244.454 386.017,243.466 387.274,241.311" test="Avatar Man"/>
      <path id="Layer5_0_3_STROKES" stroke="#FFF" stroke-width="1.796" stroke-linejoin="round" stroke-linecap="round" fill="none" d="M460.91,275.435 Q466.927,277.86 467.196,281.901 467.214,282.156 467.241,282.44 467.236,282.508 467.241,282.574 L467.241,282.709 Q467.275,285.046 466.747,289.354 M452.828,291.599 Q458.746,290.188 462.347,285.852 463.554,284.401 464.502,282.619" test="Avatar Man"/>
      <path id="Layer5_0_4_STROKES" stroke="#F90" stroke-width="1.796" stroke-linejoin="round" stroke-linecap="round" fill="none" d="M391.854,538.19 Q393.74,538.01 410.173,544.745 430.648,551.391 452.02,551.211 472.584,551.031 490.724,545.823 505.99,541.423 507.247,541.782 512.815,543.219 517.215,553.097 522.782,565.399 519.819,581.294 516.137,601.319 506.708,616.047 495.663,633.198 479.409,638.317 L466.657,642.268 Q466.478,642.268 467.735,640.921 469.351,639.125 467.735,637.868 460.012,627.9 453.187,619.369 439.807,602.577 430.917,598.805 417.357,593.058 404.067,586.323 387.993,577.971 384.67,574.11 381.617,570.518 380.988,560.011 380.809,549.146 380.629,547.17 380.36,544.476 383.592,542.321 385.388,541.064 391.854,538.19Z" test="Avatar Man"/>
    </g>
    <g id="Avatar-Lady">
      <path fill="#000" stroke="none" d="M213.676,526.791 Q209.775,525.856 206.425,525.725 197.62,525.915 193.899,525.88 187.819,525.823 181.49,523.222 177.69,522.007 172.365,518.781 161.807,512.329 152.65,501.624 143.608,491.055 137.526,478.793 L135.61,479.864 Q135.092,486.666 130.951,502.419 127.857,514.399 127.305,523.441 127.199,525.124 127.184,526.707 127.154,529.974 127.732,545.771 127.519,568.459 124.719,576.692 122.852,582.21 120.254,588.358 118.668,592.971 118.606,599.505 118.572,603.144 119.347,607.681 L119.346,607.771 Q120.058,611.967 121.438,616.957 124.245,627.33 124.197,632.503 124.171,635.225 123.148,637.848 122.59,639.249 121.949,639.924 L123.478,641.39 Q123.499,643.46 123.149,647.468 123.136,647.67 123.145,647.831 122.667,653.368 121.557,662.428 L121.556,662.519 Q121.119,666.143 120.575,670.315 L124.272,672.891 Q127.132,669.055 134.273,661.368 144.265,650.661 146.752,646.782 L147.215,645.878 Q151.154,641.922 154.773,633.425 159.053,622.211 162.024,615.159 162.673,613.592 163.232,612.085 163.508,611.556 163.696,611 163.795,610.889 163.789,610.729 163.873,610.668 163.882,610.548 L163.882,610.548 Q169.771,596.494 173.535,587.677 181.331,569.235 185.675,560.926 187.677,557.05 190.377,553.074 191.454,551.465 192.586,549.828 L192.861,549.467 192.953,549.377 Q195.842,545.594 199.287,541.722 207.267,532.721 213.202,528.965 L213.676,526.791 M193.324,364.416 L192.813,351.161 192.359,351.156 Q182.195,351.061 176.2,351.64 164.117,352.889 154.459,356.882 145.165,360.879 136.48,367.514 133.193,369.994 129.988,372.717 129.986,372.761 129.896,372.807 129.669,373.034 129.347,373.256 124.59,377.546 120.095,382.426 112.394,390.704 109.042,399.748 105.691,408.702 104.597,418.857 L104.112,422.21 Q106.978,422.624 110.456,423.177 116.165,424.138 124.015,429.022 124.419,429.296 129.605,432.977 129.656,432.995 129.696,432.978 131.45,434.285 133.752,435.92 131.45,434.285 129.696,432.978 129.656,432.995 129.605,432.977 124.419,429.296 124.015,429.022 116.165,424.138 110.456,423.177 106.978,422.624 104.112,422.21 L101.095,434.253 Q102.939,434.682 104.898,435.196 119.747,438.965 125.558,438.747 119.747,438.965 104.898,435.196 102.939,434.682 101.095,434.253 100.914,434.202 100.733,434.159 88.403,431.177 81.609,431.347 L76.665,436.021 Q78.907,438.412 83.947,443.349 90.657,449.874 94.931,452.8 95.765,453.315 96.465,453.722 102.423,457.227 109.502,457.202 114.676,457.16 122.013,458.681 127.811,459.824 129.632,459.206 L135.334,460.802 133.177,468.315 137.437,478.52 Q137.514,478.677 137.526,478.793 143.608,491.055 152.65,501.624 161.807,512.329 172.365,518.781 177.69,522.007 181.49,523.222 187.819,525.823 193.899,525.88 197.62,525.915 206.425,525.725 209.775,525.856 213.676,526.791 L213.766,526.792 Q216.81,527.594 220.191,528.849 230.502,532.576 233.582,533.24 240.193,534.754 244.106,533.611 245.927,532.993 250.859,529.771 253.872,527.803 256.216,519.747 258.853,509.517 260.63,503.997 262.591,498.116 269.869,486.476 270.83,484.935 271.712,483.499 277.701,473.729 280.018,468.874 280.271,468.35 280.481,467.88 284.097,459.655 281.745,449.195 279.915,441.101 275.791,435.617 L269.886,426.576 Q269.296,426.948 268.519,427.199 262.695,428.869 263.024,422.791 L258.145,420.386 241.235,423.494 Q241.314,423.956 241.408,424.404 241.175,424.12 240.869,423.854 238.248,420.751 234.119,417.801 225.012,411.453 216.558,412.826 208.377,414.202 194.325,422.238 180.826,430.531 174.066,434.119 173.153,434.679 172.332,435.101 167.772,437.509 151.453,445.252 149.814,446.036 148.354,446.675 144.1,448.806 141.424,450.15 138.588,451.748 137.681,452.475 138.588,451.748 141.424,450.15 144.1,448.806 148.354,446.675 149.814,446.036 151.453,445.252 167.772,437.509 172.332,435.101 173.153,434.679 174.066,434.119 180.826,430.531 194.325,422.238 208.377,414.202 216.558,412.826 225.012,411.453 234.119,417.801 238.248,420.751 240.869,423.854 L241.235,423.494 Q241.19,423.269 241.149,423.04 240.444,419.421 239.951,415.223 238.863,405.502 240.26,401.703 241.377,398.628 249.03,395.523 255.864,392.592 255.429,390.592 254.209,385.225 246.394,376.621 L238.84,369.108 Q224.626,378.249 211.629,386.823 198.022,395.91 185.78,404.37 165.131,419.061 157.643,423.982 148.867,429.761 141.858,432.91 139.526,434.005 137.393,434.774 139.526,434.005 141.858,432.91 148.867,429.761 157.643,423.982 165.131,419.061 185.78,404.37 198.022,395.91 211.629,386.823 L205.901,378.148 Q205.095,377.051 200.155,371.559 194.765,365.609 193.324,364.416 M225.277,431.604 Q224.019,430.231 219.76,429.556 216.532,429.044 206.648,434.061 203.474,435.713 199.624,437.898 183.748,446.916 181.207,446.892 183.748,446.916 199.624,437.898 203.474,435.713 206.648,434.061 216.532,429.044 219.76,429.556 224.019,430.231 225.277,431.604 226.534,432.977 230.776,435.558 226.534,432.977 225.277,431.604 M219.33,446.342 Q221.622,443.913 221.637,442.279 221.641,441.826 219.394,439.536 221.641,441.826 221.637,442.279 221.622,443.913 219.33,446.342 216.854,449.041 214.586,449.02 207.961,448.958 208.005,444.239 208.012,443.513 208.105,443.242 208.383,442.7 209.857,440.354 208.383,442.7 208.105,443.242 208.012,443.513 208.005,444.239 207.961,448.958 214.586,449.02 216.854,449.041 219.33,446.342 M198.746,502.6 Q198.313,503.468 197.641,504.315 195.803,506.748 194.707,507.464 195.803,506.748 197.641,504.315 198.313,503.468 198.746,502.6 200.219,500.383 200.237,498.44 L199.894,496.258 200.237,498.44 Q200.219,500.383 198.746,502.6 M243.866,472.075 Q246.164,472.096 249.231,470.945 252.542,469.812 256.707,467.385 262.657,463.836 264.114,461.464 264.666,460.678 264.672,460.017 264.679,459.291 262.887,456.824 261.185,454.358 260.462,454.078 261.185,454.358 262.887,456.824 264.679,459.291 264.672,460.017 264.666,460.678 264.114,461.464 262.657,463.836 256.707,467.385 252.542,469.812 249.231,470.945 246.164,472.096 243.866,472.075 240.327,472.041 237.991,469.478 234.309,465.36 234.038,465.176 234.309,465.36 237.991,469.478 240.327,472.041 243.866,472.075 M264.516,476.624 Q264.523,475.898 263.445,474.708 264.523,475.898 264.516,476.624 264.505,477.804 264.042,478.798 263.579,479.792 262.664,480.6 260.743,482.216 258.111,482.191 257.113,482.182 255.033,481.346 253.044,480.51 251.782,479.591 253.044,480.51 255.033,481.346 257.113,482.182 258.111,482.191 260.743,482.216 262.664,480.6 263.579,479.792 264.042,478.798 264.505,477.804 264.516,476.624 M220.749,508.071 Q224.744,507.836 228.83,507.602 224.744,507.836 220.749,508.071 209.753,509.601 200.549,503.888 209.753,509.601 220.749,508.071 M163.096,394.083 Q158.966,389.234 152.365,386.631 145.855,384.029 140.04,384.791 145.855,384.029 152.365,386.631 158.966,389.234 163.096,394.083Z" test="Avatar Lady" stroke-width="1.815"/>
      <path id="Layer4_0_1_STROKES" stroke="#009EFF" stroke-width="1.815" stroke-linejoin="round" stroke-linecap="round" fill="none" d="M258.145,420.386 Q257.096,416.11 260.469,414.508 263.753,412.814 266.847,411.845 M237.159,364.464 Q237.439,363.649 237.444,363.196 237.452,362.288 234.512,356.452 231.036,349.613 230.504,348.337 228.551,343.599 223.753,342.375 218.766,341.874 217.049,341.041 217.399,342.406 217.358,346.853 L217.115,353.385 Q216.842,353.473 214.852,352.728 212.681,351.982 211.683,351.973 208.144,351.94 206.239,351.74 201.707,351.153 196.625,351.106 L192.813,351.161 M193.324,364.416 Q194.765,365.609 200.155,371.559 205.095,377.051 205.901,378.148 M217.049,341.041 Q217.046,340.95 216.959,340.95 L216.962,340.677 Q217.049,340.858 217.049,341.041Z M192.359,351.156 Q192.361,350.975 192.451,350.976 192.624,351.153 192.813,351.161 L192.359,351.156 Q182.195,351.061 176.2,351.64 164.117,352.889 154.459,356.882 145.165,360.879 136.48,367.514 133.193,369.994 130.033,372.718 129.986,372.761 129.942,372.807 129.669,373.034 129.393,373.256 124.59,377.546 120.095,382.426 112.394,390.704 109.042,399.748 105.691,408.702 104.597,418.857 M104.112,422.255 Q106.978,422.624 110.456,423.177 116.165,424.138 124.015,429.022 124.419,429.296 129.605,432.977 129.656,432.995 129.695,433.023 131.45,434.285 133.752,435.92 M230.776,435.558 Q226.534,432.977 225.277,431.604 224.019,430.231 219.76,429.556 216.532,429.044 206.648,434.107 203.474,435.713 199.624,437.898 183.748,446.916 181.207,446.892 M234.038,465.176 Q234.309,465.36 237.991,469.478 240.327,472.041 243.866,472.075 246.164,472.096 249.276,470.991 252.542,469.812 256.707,467.385 262.657,463.836 264.159,461.464 264.666,460.678 264.672,460.017 264.679,459.291 262.887,456.824 261.185,454.358 260.462,454.078 M275.791,435.617 Q279.915,441.101 281.745,449.195 284.097,459.655 280.481,467.88 280.271,468.35 280.018,468.874 277.701,473.729 271.712,483.499 270.83,484.935 269.869,486.476 262.591,498.116 260.63,503.997 258.853,509.517 256.216,519.747 253.872,527.803 250.859,529.771 245.927,532.993 244.106,533.611 240.193,534.754 233.582,533.24 230.502,532.576 220.191,528.849 216.81,527.594 213.766,526.837 L213.675,526.837 M213.202,528.965 Q207.267,532.721 199.287,541.722 195.842,545.594 192.998,549.378 L192.907,549.468 192.631,549.828 Q191.454,551.465 190.377,553.074 187.677,557.05 185.675,560.926 181.331,569.235 173.535,587.677 169.771,596.494 163.927,610.549 L163.881,610.594 Q163.873,610.668 163.835,610.729 163.795,610.889 163.741,611.046 163.508,611.556 163.278,612.085 162.673,613.592 162.024,615.159 159.053,622.211 154.773,633.425 151.154,641.922 147.215,645.878 M146.752,646.782 Q144.265,650.661 134.273,661.368 127.132,669.055 124.272,672.936 123.365,674.197 122.89,675.056 M251.782,479.591 Q253.044,480.51 255.033,481.346 257.113,482.182 258.111,482.191 260.743,482.216 262.664,480.6 263.579,479.792 264.042,478.798 264.505,477.804 264.516,476.624 264.523,475.898 263.445,474.708 M213.675,526.837 Q209.775,525.856 206.425,525.725 197.62,525.915 193.899,525.88 187.819,525.823 181.49,523.222 177.69,522.007 172.365,518.781 161.807,512.329 152.65,501.624 143.608,491.055 137.57,478.839 M135.61,479.864 Q135.092,486.666 130.951,502.419 127.857,514.399 127.305,523.441 127.199,525.124 127.184,526.707 127.154,529.974 127.732,545.771 127.519,568.459 124.719,576.692 122.852,582.21 120.254,588.358 118.668,592.971 118.606,599.505 118.572,603.144 119.346,607.726 L119.346,607.771 Q120.058,611.967 121.438,616.957 124.245,627.33 124.197,632.503 124.171,635.225 123.148,637.848 122.59,639.249 121.948,639.969 M123.478,641.39 Q123.499,643.46 123.148,647.514 123.136,647.67 123.145,647.831 122.667,653.368 121.556,662.474 L121.556,662.519 Q121.119,666.143 120.575,670.315 M186.47,563.203 L185.877,568.37 Q185.869,569.278 186.47,572.914 187.071,576.55 187.063,577.457 187.054,578.365 187.817,584.18 188.488,589.995 188.48,590.903 188.408,598.526 177.038,630.366 165.576,662.205 165.512,669.012 165.45,675.636 175.286,691.43 182.976,703.754 192.755,715.826 199.844,724.514 216.079,764.418 216.068,765.598 216.791,765.877 217.425,766.064 217.521,765.43 M132.012,708.904 Q134.269,710.195 145.959,721.831 158.456,734.473 158.431,737.104 158.4,740.371 180.57,757.097 202.74,773.823 202.706,777.453 202.696,778.542 203.06,778.454 203.423,778.367 203.422,778.548 L204.154,777.92 M163.096,394.083 Q158.966,389.234 152.365,386.631 145.855,384.029 140.04,384.791 M104.112,422.255 Q104.021,422.266 103.93,422.254 103.838,422.242 103.749,422.252 99.394,421.676 96.494,421.594 88.691,421.34 83.045,423.374 76.033,425.94 75.211,426.477 73.841,427.372 73.908,429.914 74.064,432.638 75.408,434.557 75.783,435.028 76.485,435.792 76.575,435.88 76.665,435.975 L76.71,436.021 M81.609,431.347 Q88.403,431.177 100.733,434.159 100.914,434.202 101.095,434.253 M76.71,436.021 Q78.907,438.412 83.947,443.349 90.657,449.874 94.977,452.801 95.765,453.315 96.465,453.722 102.423,457.227 109.502,457.202 114.676,457.16 122.013,458.681 127.811,459.824 129.632,459.206 M133.177,468.315 L137.437,478.52 Q137.514,478.677 137.57,478.839 M90.881,458.843 Q87.855,462.173 85.044,481.296 83.783,489.997 83.491,492.082 83.093,495.799 83.054,499.974 83.006,505.056 84.987,516.419 86.878,527.782 86.818,534.134 86.812,534.795 86.805,535.495 86.704,538.515 86.289,542.207 85.62,548.259 84.116,556.118 83.063,561.628 81.6,568.029 76.489,590.398 76.316,608.911 76.288,611.906 77.558,621.629 78.833,630.807 78.636,632.53 M101.095,434.253 Q102.939,434.682 104.898,435.196 119.747,438.965 125.558,438.747 M112.474,479.012 L112.635,481.283 Q112.615,483.37 111.201,488.984 109.786,494.688 109.561,499.405 109.239,504.666 109.156,513.56 109.146,514.558 109.48,517.738 109.812,521.008 109.801,522.188 109.8,522.253 109.8,522.324 109.76,524.763 109.099,529.26 108.414,534.609 107.584,535.962 106.758,536.953 105.191,539.57 104.085,541.33 103.53,542.504 102.974,543.679 102.969,544.269 M105.336,582.228 Q105.329,582.954 104.17,590.385 102.921,597.816 102.911,598.905 102.892,600.901 104.474,606.452 105.226,609.249 105.612,610.865 105.96,612.46 105.956,612.91 105.927,615.995 103.242,621.688 100.835,626.748 99.002,628.637 M86.805,535.495 Q81.627,536.082 75.582,541.925 69.981,547.282 68.395,553.384 67.938,555.164 67.817,557.009 67.399,562.813 62.385,623.393 57.655,682.613 57.505,688.965 57.465,693.23 56.761,700.575 56.667,701.654 56.606,702.616 L56.605,702.706 Q56.483,705.8 56.876,707.655 57.224,709.292 94.185,765.001 130.879,820.162 130.936,823.793 M66.221,553 Q57.467,557.366 48.72,561.005 36.238,566.152 29.337,566.541 14.996,566.679 -1.699,566.16 -34.996,565.031 -46.673,561.745 M121.948,639.969 Q121.352,640.644 120.672,640.638 M120.575,670.315 L120.575,670.36 Q120.328,672.436 120.035,674.666 118.468,686.577 116.19,702.493 115.701,706.21 125.244,724.178 137.018,746.161 139.497,752.81 156.405,798.347 156.669,818.589 M-42.615,671.056 Q-35.547,672.302 -18.092,678.818 .9,685.984 11.19,691.98 25.182,700.098 28.89,701.494 36.576,704.47 46.66,703.475 50.748,703.06 54.202,702.457" test="Avatar Lady"/>
      <path id="Layer4_0_2_STROKES" stroke="#FFBC00" stroke-width="1.815" stroke-linejoin="round" stroke-linecap="round" fill="none" d="M211.674,386.824 Q224.626,378.249 238.84,369.108 L246.394,376.621 Q254.209,385.225 255.429,390.592 255.864,392.592 249.03,395.523 241.377,398.628 240.26,401.703 238.863,405.502 239.951,415.223 240.444,419.421 241.149,423.04 241.19,423.269 241.235,423.494 M137.393,434.774 Q139.526,434.005 141.857,432.955 148.867,429.761 157.643,423.982 165.131,419.061 185.78,404.37 198.022,395.91 211.674,386.824 M240.914,423.854 Q241.175,424.12 241.408,424.404 241.314,423.956 241.235,423.494 M240.914,423.854 Q238.248,420.751 234.119,417.801 225.012,411.453 216.558,412.826 208.377,414.202 194.325,422.238 180.826,430.531 174.111,434.165 173.153,434.679 172.332,435.101 167.772,437.509 151.453,445.252 149.814,446.036 148.354,446.721 144.1,448.806 141.469,450.196 138.588,451.748 137.681,452.475" test="Avatar Lady"/>
      <path id="Layer4_0_3_STROKES" stroke="#FF0" stroke-width="1.815" stroke-linejoin="round" stroke-linecap="round" fill="none" d="M263.024,422.791 Q262.695,428.869 268.519,427.199 269.296,426.948 269.931,426.577 272.155,425.218 272.468,422.244 272.769,419.161 269.782,418.316 M209.857,440.354 Q208.383,442.7 208.105,443.242 208.012,443.513 208.005,444.239 207.961,448.958 214.586,449.02 216.854,449.041 219.33,446.342 221.622,443.913 221.637,442.279 221.641,441.826 219.394,439.536" test="Avatar Lady"/>
      <path id="Layer4_0_4_STROKES" stroke="#FFF" stroke-width="1.815" stroke-linejoin="round" stroke-linecap="round" fill="none" d="M199.894,496.258 L200.237,498.44 Q200.219,500.383 198.791,502.646 198.313,503.468 197.641,504.315 195.803,506.748 194.707,507.464 M200.549,503.888 Q209.753,509.601 220.749,508.071 224.744,507.836 228.83,507.602" test="Avatar Lady"/>
    </g>
    <g id="Censoredf0r1">
      <path fill="#000" stroke="none" d="M-18.85,465.05 L-18.85,691.6 829.1,691.6 829.1,465.05 -18.85,465.05Z" test="Censored"/>
      <path id="Layer2_0_1_STROKES" stroke="#F00" stroke-width="1" stroke-linejoin="round" stroke-linecap="round" fill="none" d="M440.05,495.65 Q451.45,495.4 458.4,504.15 467.15,515.2 468.45,540.05 469.85,566.25 462.7,581.45 456.1,595.5 444.2,596.25 432.35,597.05 426.85,587.5 420.75,577 419.8,549.85 418.8,523.2 424.1,509.95 428.75,498.3 438.75,495.95 M495.6,601.8 Q496.6,592.45 496.9,579.35 497.2,564.25 496.25,551.5 496.1,549.6 494.45,537.05 493.3,528.1 490.7,509.95 489,495.95 490.35,494.35 491.55,492.95 495.9,492.5 500.65,491.9 505.5,493 518.75,496.05 520.4,508.4 522.1,521.25 514.25,530.2 507.95,537.4 498.4,539.85 503.3,543.65 507.4,548.85 509.05,550.85 511.9,555.1 515.55,560.5 519.6,568.9 527.8,585.55 530,600.25 M571.35,494.35 Q570.6,494.35 561.5,495.05 554.45,495.55 553.1,495 551.6,494.35 553.4,545.3 553.45,546.6 553.55,547.85 555.9,547.5 562.05,547.45 568.9,547.4 569.75,547.25 M576.25,597.9 Q574.4,598.35 565.05,597.65 555.95,596.9 555.7,596.6 555.25,596 553.55,547.85 553.25,547.85 553.1,547.9 M604.7,493 Q618.7,491.7 628.4,497.85 644.15,507.8 645.2,535.5 646.25,564.1 642.45,575.1 640.25,581.65 633.1,585.8 628.35,588.6 618.55,590.5 610.8,592 606.65,592 604.3,592 604.1,542.15 603.85,491.65 604.7,493Z M184.5,513.3 Q183.2,507.55 177.55,502.05 171.75,496.4 166.2,495.95 158.55,495.3 151.55,498.85 141.9,503.75 136.2,515.9 129.55,530.15 127.75,544.5 125.85,559.8 129.9,573.05 132.45,581.55 135.75,586.15 140.25,592.35 146.6,592.35 153.75,592.35 160.75,588.4 167.95,584.45 170.85,578.6 M245.95,494 Q246.45,495.1 229.65,496.15 212.85,497.2 212.85,496.9 212.8,496.5 212.85,544.65 213.9,545.1 230.8,544.3 247.75,543.55 248.25,542.7 M277.65,598.25 Q277.8,598.4 277,546.15 276.2,493.85 276.35,494 276.6,494.35 327,589.75 323.8,490.75 322.4,491.4 M393.3,514.9 Q391.25,508.1 386,502.05 379.85,494.85 373.45,494.8 367,494.7 361.25,501 355.5,507.25 356.05,514 356.35,517.25 357.2,519.5 360.1,525.05 364.75,529.55 365.75,530.45 366.65,531.6 368.9,534.4 371.6,538.05 387.7,559.35 388.75,569.45 390,581.65 383.9,588.35 379.05,593.65 373.4,593.3 364.85,592.8 360.6,589.8 351.95,583.65 352.15,566.85 M212.85,544.65 Q212.65,544.7 212.5,569.1 212.4,593.4 212.25,594.95 212.1,596.55 229.65,596.8 247.15,597.05 248.25,594.95" test="Censored"/>
      <path id="Layer1_0_1_STROKES" stroke="#F00" stroke-width="1" stroke-linejoin="round" stroke-linecap="round" fill="none" d="M65.35,463.4 L732,463.4 732,623.2 65.35,623.2 65.35,463.4Z" test="Censored"/>
    </g>
  </g>
</svg>