<?xml version="1.0" encoding="utf-8"?>
<svg id="EdithAnim13" image-rendering="inherit" baseProfile="basic" version="1.1" x="0px" y="0px" width="800" height="600" xmlns="http://www.w3.org/2000/svg" xmlns:xlink="http://www.w3.org/1999/xlink">
  <g id="22_Avatarf139r1" overflow="visible">
    <g id="Avatar-Manf0r1">
      <g id="Tailf0r1">
        <path id="Layer6_0_1_STROKES" stroke="#009EFF" stroke-width="2.475" stroke-linejoin="round" stroke-linecap="round" fill="none" d="M555.39,646.689 Q554.142,628.508 553.454,610.317 552.839,592.677 547.11,576.016 540.813,557.87 523.264,549.614 501.939,539.667 498.849,561.907 498.399,565.148 500.516,567.991 505.525,574.825 512.647,579.2 520.092,576.482 525.691,581.617 532.431,587.851 535.397,597.198 542.328,619.255 547.849,641.495 549.409,647.718 548.361,654.032" test="Tail_2.3242325232423263e+312.3242325232423263e+31_2.3242325232423263e+312.3242325232423263e+31_2.3242325232423263e+312.3242325232423263e+31_2.3242325232423263e+312.3242325232423263e+31_2.3242325232423263e+312.3242325232423263e+31_2.3242325232423263e+312.3242325232423263e+31_2.3242325232423263e+312.3242325232423263e+31_2.3242325232423263e+312.3242325232423263e+31_2.3242325232423263e+312.3242325232423263e+31_2.3242325232423263e+312.3242325232423263e+31_2.3242325232423263e+312.3242325232423263e+31_2.3242325232423263e+312.3242325232423263e+31_2.3242325232423263e+312.3242325232423263e+31_2.3242325232423263e+312.3242325232423263e+31_2.3242325232423263e+312.3242325232423263e+31_2.3242325232423263e+312.3242325232423263e+31_2.3242325232423263e+312.3242325232423263e+31_2.3242325232423263e+312.3242325232423263e+31_2.3242325232423263e+312.3242325232423263e+31_23242325232423262324232523242326"/>
      </g>
      <path fill="#000" stroke="none" d="M514.184,554.154 Q509.776,544.26 504.199,542.821 502.94,542.461 487.648,546.868 469.479,552.085 448.88,552.265 427.472,552.445 406.963,545.789 390.502,539.043 388.614,539.223 382.137,542.101 380.338,543.36 377.1,545.519 377.37,548.218 377.55,550.196 377.73,561.08 378.359,571.605 381.417,575.203 384.746,579.07 400.847,587.436 414.159,594.182 427.742,599.939 436.647,603.717 450.049,620.537 456.886,629.083 464.621,639.067 466.24,640.326 464.621,642.125 463.362,643.475 463.542,643.475 L476.315,639.517 Q492.596,634.39 503.66,617.209 513.104,602.457 516.792,582.399 519.761,566.477 514.184,554.154 M519.94,179.872 L516.702,178.523 Q516.656,178.636 516.612,178.703 515.637,181.193 514.993,183.47 513.284,189.587 510.586,198.942 510.525,199.105 510.406,199.212 507.941,205.76 502.85,208.656 492.146,214.773 486.209,217.651 L490.257,226.646 Q489.807,233.213 491.876,277.198 491.952,278.821 491.966,280.346 493.645,314.716 493.855,325.142 493.853,325.21 493.855,325.231 493.886,327.642 493.855,328.74 493.495,342.862 496.104,365.169 496.464,368.318 501.411,365.709 506.358,363.01 505.998,361.122 505.818,359.772 507.887,360.492 509.596,361.122 510.046,361.571 510.136,361.661 516.792,338.634 L522.189,347.629 Q522.279,347.719 525.338,327.84 L530.735,330.089 Q530.839,330.195 530.105,320.644 530.144,320.622 530.105,320.554 529.079,305.871 526.147,268.563 524.368,245.766 522,230.784 521.304,210.757 520.39,204.698 520.135,202.932 519.94,202.36 520.135,202.932 520.39,204.698 521.304,210.757 522,230.784 L524.438,230.694 Q526.237,230.514 531.544,225.207 536.221,220.71 539.729,222.149 542.878,223.498 561.767,250.843 583.535,278.547 601.345,282.865 585.334,283.405 561.587,301.665 554.211,307.331 546.926,314.168 L545.846,315.157 Q547.127,328.829 551.333,375.603 L552.323,375.514 Q557,372.905 589.742,347.179 621.314,322.263 631.478,313.448 639.034,306.882 645.241,296.537 648.389,291.23 652.167,284.664 653.966,282.595 657.834,279.717 660.982,276.838 661.162,272.071 661.342,267.394 627.161,245.356 589.292,221.789 582.006,216.302 560.598,200.201 550.613,193.725 538.718,185.926 530.645,182.481 523.936,179.626 519.94,179.872 M455.986,174.385 Q458.685,173.936 461.203,173.486 465.251,173.486 464.981,178.433 472.717,177.534 475.775,178.433 479.013,179.423 478.923,182.931 L483.96,185.269 Q487.497,178.393 496.104,172.676 501.051,169.348 505.279,168.269 505.345,168.254 505.369,168.179 L504.199,160.983 Q505.549,160.893 502.94,157.745 498.173,152.258 494.305,147.49 489.088,141.014 470.918,135.167 454.997,130.04 446.182,129.95 417.937,129.68 398.508,137.596 386.455,142.543 375.661,157.475 373.592,160.305 371.883,162.872 367.06,170.517 365.586,176.274 L365.586,178.433 Q365.766,178.433 366.576,178.703 367.475,178.883 368.105,178.883 371.343,178.883 374.581,176.274 378.269,173.216 381.777,172.586 L381.777,174.835 385.825,174.835 Q388.524,174.295 393.651,172.766 397.609,171.507 398.418,171.687 L398.418,173.936 Q399.318,173.936 402.916,174.385 408.852,174.385 414.609,171.237 L419.107,171.237 419.107,173.036 426.303,173.036 Q438.176,169.438 438.896,169.438 440.065,169.438 441.144,170.248 442.404,171.147 444.742,171.237 444.742,173.486 444.293,174.385 L455.986,174.385Z" test="Avatar Man" stroke-width="1.799"/>
      <path id="Layer5_0_1_STROKES" stroke="#009EFF" stroke-width="1.799" stroke-linejoin="round" stroke-linecap="round" fill="none" d="M478.923,182.931 Q479.013,179.423 475.775,178.433 472.717,177.534 464.981,178.433 465.251,173.486 461.203,173.486 458.685,173.936 455.986,174.385 L444.293,174.385 Q444.742,173.486 444.742,171.237 442.404,171.147 441.144,170.248 440.065,169.438 438.896,169.438 438.176,169.438 426.303,173.036 L419.107,173.036 419.107,171.237 414.609,171.237 Q408.852,174.385 402.916,174.385 399.318,173.936 398.418,173.936 L398.418,171.687 Q397.609,171.507 393.651,172.766 388.524,174.295 385.825,174.835 L381.777,174.835 381.777,172.586 Q378.269,173.216 374.581,176.274 371.343,178.883 368.105,178.883 367.475,178.883 366.576,178.703 365.766,178.433 365.586,178.433 L365.586,176.274 Q367.06,170.517 371.928,162.917 373.592,160.305 375.661,157.475 386.455,142.543 398.508,137.596 417.937,129.68 446.182,129.95 454.997,130.04 470.918,135.167 489.088,141.014 494.305,147.49 498.173,152.258 502.94,157.745 505.549,160.893 504.199,160.983 M505.414,168.224 Q505.48,168.231 505.549,168.224 508.269,167.623 514.094,167.279 518.321,167.099 520.93,165.39 522.369,164.491 524.438,162.782 525.248,162.332 521.919,168.089 520.39,170.697 519.131,173.216 518.361,174.729 517.737,176.184 517.587,176.485 517.467,176.769 517.204,177.33 516.972,177.893 516.832,178.21 516.702,178.523 M519.94,179.872 Q523.936,179.626 530.69,182.526 538.718,185.926 550.613,193.725 560.598,200.201 582.006,216.302 589.292,221.789 627.161,245.356 661.342,267.394 661.162,272.071 660.982,276.838 657.834,279.717 653.966,282.595 652.167,284.664 648.389,291.23 645.241,296.537 639.034,306.882 631.478,313.448 621.314,322.263 589.742,347.179 557,372.905 552.323,375.514 551.857,375.818 551.423,376.098 546.188,379.495 543.867,380.821 539.729,383.249 536.132,382.71 M519.131,173.216 Q517.73,174.752 516.567,175.645 515.393,176.501 514.454,176.724 511.035,176.994 506.898,177.624 501.591,178.433 498.712,180.412 494.844,183.74 491.157,186.619 486.569,190.217 483.691,191.926 L481.712,192.915 Q482.145,188.946 484.005,185.314 M478.024,182.931 L478.923,182.931 M484.005,185.314 Q487.497,178.393 496.104,172.676 501.051,169.348 505.279,168.269 505.345,168.254 505.414,168.224 M516.702,178.523 Q516.656,178.636 516.612,178.748 515.637,181.193 514.993,183.47 513.284,189.587 510.586,198.942 510.525,199.105 510.451,199.256 507.941,205.76 502.85,208.656 492.146,214.773 486.209,217.651 M490.257,226.646 Q489.807,233.213 491.876,277.198 491.952,278.821 492.011,280.391 493.645,314.716 493.855,325.142 493.853,325.21 493.855,325.276 493.886,327.642 493.855,328.74 493.495,342.862 496.104,365.169 496.464,368.318 501.411,365.709 506.358,363.01 505.998,361.122 505.818,359.772 507.887,360.492 509.596,361.122 510.046,361.571 510.136,361.661 516.792,338.634 L522.189,347.629 Q522.279,347.719 525.338,327.84 L530.735,330.089 Q530.839,330.195 530.15,320.689 530.144,320.622 530.15,320.554 529.079,305.871 526.147,268.563 524.368,245.766 523.044,230.784 521.304,210.757 520.39,204.698 520.135,202.932 519.94,202.36 M545.846,315.202 L546.926,314.168 Q554.211,307.331 561.587,301.665 585.334,283.405 601.345,282.865 583.535,278.547 561.767,250.843 542.878,223.498 539.729,222.149 536.221,220.71 531.544,225.207 526.237,230.514 524.438,230.694 M423.244,223.498 Q424.293,223.667 426.482,223.768 428.979,223.858 432.959,223.858 439.975,223.768 443.033,223.498 448.7,222.958 449.42,222.778 453.018,221.789 453.378,219.001 M475.865,295.458 Q476.765,301.305 478.833,309.76 481.352,319.924 483.511,325.142 M375.571,292.76 Q375.571,292.849 375.931,302.024 376.2,308.591 378.719,312.998 379.529,314.412 380.743,315.787 384.427,319.901 391.852,323.612 402.106,328.829 412.001,329.189 L415.643,329.459 415.778,329.459 Q425.313,329.819 428.191,329.639 433.139,329.279 438.986,327.39 443.303,326.041 454.907,315.607 463.153,308.116 471.907,298.966 472.021,298.856 472.132,298.741 472.2,298.676 472.267,298.606 472.359,298.52 472.447,298.426 473.829,296.96 475.235,295.458 475.327,295.361 475.415,295.278 475.451,295.226 475.505,295.188 475.52,295.136 475.55,295.098 486.141,283.806 487.559,280.616 M415.599,330.089 Q414.789,333.957 413.26,342.772 411.731,350.417 409.302,354.375 M541.079,319.745 L545.846,315.202 M531.184,391.255 Q531.094,391.435 522.009,415.092 515.533,431.912 513.194,441.627 510.316,453.41 507.797,488.491 505.279,522.672 506.448,530.228 M454.637,437.489 Q455.177,439.468 456.975,440.008 457.515,440.188 458.954,440.188 461.293,440.188 462.193,439.108 462.552,438.748 463.992,435.42 M418.657,424.446 Q418.477,440.817 419.646,443.336 421.535,447.833 432.149,447.833 437.276,447.833 437.726,447.743 438.266,447.653 440.245,446.484 M420.006,479.766 Q419.107,482.464 419.107,485.432 419.107,490.38 423.064,490.65 425.673,490.739 433.948,490.56 M416.858,517.095 Q421.445,520.243 424.414,520.963 426.572,521.412 430.35,520.693 M462.822,644.014 Q456.076,647.163 437.996,650.581 419.736,653 400.307,655.708 383.486,657.237 343.908,656.427 314.045,655.888 296.864,654.808 283.642,653 256.837,651.21 250.18,650.491 245.233,651.57 241.725,652.38 240.646,651.66 M370.174,161.882 Q366.756,159.813 362.708,157.655 354.612,153.427 352.184,153.787 349.575,154.147 351.734,167.009 353.533,177.983 355.332,182.571 M359.83,194.714 Q360.549,197.682 362.438,203.619 363.517,208.386 360.729,210.455 357.295,213.015 354.028,215.403 L353.983,215.447 Q304.904,251.89 298.664,254.081 293.177,255.7 291.827,256.15 289.938,256.869 289.669,258.579 289.219,262.087 289.039,274.14 288.769,287.992 289.669,290.961 292.727,303.194 316.294,338.004 339.411,372.095 353.083,385.408 M361.629,225.747 Q364.417,227.186 369.994,227.906 370.221,227.94 370.444,227.951 375.707,228.704 380.968,228.445 384.296,228.265 392.032,227.006 398.328,225.927 400.307,226.197 M361.179,249.134 Q360.099,250.933 348.496,262.536 337.972,273.06 335.093,275.669 M383.127,270.182 Q387.174,270.182 391.672,269.283 L409.212,269.283 Q403.815,275.039 400.757,278.098 395.09,283.675 393.741,283.675 391.312,283.675 387.714,278.637 384.026,272.881 382.677,271.531 M325.199,270.722 Q326.742,274.451 330.056,279.177 330.092,279.229 330.146,279.267 338.393,291.094 357.581,309.13 366.495,317.501 373.052,323.882 388.227,338.602 390.862,342.682 M360.729,410.594 Q360.099,424.896 362.978,431.732 364.777,435.87 370.264,440.547 375.931,445.135 380.968,446.574 M376.02,454.67 Q376.11,457.458 375.661,468.972 375.481,479.766 376.92,482.554 378.629,485.882 382.857,488.671 386.994,491.369 389.513,491.099 M382.317,494.697 Q382.407,497.666 382.407,502.253 382.587,505.671 384.116,507.74 384.296,508.01 389.153,511.338 392.391,513.587 392.212,517.635 392.032,520.693 390.143,528.249 388.524,534.545 389.063,536.524 M367.025,549.567 Q345.977,545.699 320.521,541.741 269.7,533.915 248.381,533.915 234.169,533.915 217.978,530.947 205.205,528.608 202.507,529.418 197.83,530.857 193.422,538.233 189.014,545.699 189.374,551.816 189.644,555.953 191.083,566.927 192.253,576.732 191.173,580.6 M366.576,575.652 Q358.3,577.002 320.162,577.811 278.785,578.711 272.128,579.25 264.752,579.88 241.275,583.658 219.957,587.076 211.412,587.346 201.248,587.706 192.253,586.446 187.575,585.817 180.829,584.198 177.321,583.388 173.723,585.817 171.834,587.166 167.336,591.843 162.209,597.15 166.887,608.484 167.786,610.733 166.257,623.596 164.548,636.548 165.538,639.067 L168.686,646.713 Q172.194,656.337 173.633,666.502 M237.048,639.067 Q238.307,643.115 240.646,654.718 243.164,667.131 242.895,669.65" test="Avatar Man"/>
      <path id="Layer5_0_2_STROKES" stroke="#FF0" stroke-width="1.799" stroke-linejoin="round" stroke-linecap="round" fill="none" d="M426.303,227.006 Q425.403,232.043 427.202,235.731 429.091,239.599 432.599,239.599 434.038,239.599 436.017,238.52 438.266,237.26 438.896,235.551 M370.084,231.054 Q369.184,237.35 369.184,237.8 369.184,239.63 370.534,241.578 371.251,242.596 372.333,243.647 375.661,246.795 379.079,246.795 380.878,246.795 382.047,244.996 382.767,244.007 384.026,241.848" test="Avatar Man"/>
      <path id="Layer5_0_3_STROKES" stroke="#FFF" stroke-width="1.799" stroke-linejoin="round" stroke-linecap="round" fill="none" d="M457.785,276.029 Q463.812,278.457 464.082,282.505 464.1,282.761 464.127,283.045 464.121,283.113 464.127,283.18 L464.127,283.315 Q464.161,285.655 463.632,289.971 M449.69,292.22 Q455.617,290.806 459.224,286.463 460.433,285.009 461.383,283.225" test="Avatar Man"/>
      <path id="Layer5_0_4_STROKES" stroke="#F90" stroke-width="1.799" stroke-linejoin="round" stroke-linecap="round" fill="none" d="M388.614,539.223 Q390.502,539.043 406.963,545.789 427.472,552.445 448.88,552.265 469.479,552.085 487.648,546.868 502.94,542.461 504.199,542.821 509.776,544.26 514.184,554.154 519.761,566.477 516.792,582.399 513.104,602.457 503.66,617.209 492.596,634.39 476.315,639.517 L463.542,643.475 Q463.362,643.475 464.621,642.125 466.24,640.326 464.621,639.067 456.886,629.083 450.049,620.537 436.647,603.717 427.742,599.939 414.159,594.182 400.847,587.436 384.746,579.07 381.417,575.203 378.359,571.605 377.73,561.08 377.55,550.196 377.37,548.218 377.1,545.519 380.338,543.36 382.137,542.101 388.614,539.223Z" test="Avatar Man"/>
    </g>
    <g id="Avatar-Lady">
      <path fill="#000" stroke="none" d="M212.48,530.424 Q208.574,529.472 205.217,529.328 196.391,529.484 192.662,529.435 186.569,529.354 180.236,526.724 176.432,525.491 171.107,522.237 160.55,515.73 151.414,504.967 142.392,494.339 136.343,482.026 L134.419,483.092 Q133.874,489.908 129.664,505.68 126.516,517.675 125.929,526.735 125.816,528.422 125.795,530.008 125.752,533.282 126.27,549.117 125.97,571.855 123.133,580.095 121.241,585.619 118.612,591.77 117.005,596.388 116.919,602.936 116.871,606.584 117.629,611.133 L117.628,611.224 Q118.326,615.432 119.69,620.438 122.463,630.845 122.395,636.029 122.359,638.758 121.324,641.382 120.759,642.785 120.114,643.458 L121.641,644.934 Q121.653,647.008 121.287,651.024 121.274,651.226 121.282,651.388 120.782,656.936 119.634,666.012 L119.633,666.103 Q119.181,669.733 118.62,673.912 L122.316,676.508 Q125.197,672.675 132.383,664.997 142.439,654.305 144.946,650.427 L145.413,649.523 Q149.377,645.573 153.037,637.07 157.369,625.848 160.373,618.792 161.031,617.223 161.596,615.715 161.874,615.186 162.065,614.63 162.165,614.518 162.16,614.358 162.244,614.298 162.253,614.178 L162.253,614.178 Q168.21,600.115 172.016,591.292 179.9,572.839 184.285,564.528 186.307,560.65 189.028,556.677 190.114,555.068 191.254,553.431 L191.532,553.071 191.624,552.981 Q194.534,549.201 198.002,545.333 206.034,536.343 211.996,532.601 L212.48,530.424 M192.705,367.607 L192.244,354.32 191.789,354.314 Q181.603,354.18 175.592,354.737 163.477,355.942 153.783,359.907 144.452,363.878 135.723,370.494 132.419,372.966 129.196,375.684 129.193,375.727 129.103,375.774 128.875,376 128.552,376.221 123.767,380.503 119.243,385.377 111.493,393.643 108.099,402.695 104.706,411.656 103.571,421.829 L103.072,425.188 Q105.943,425.614 109.426,426.182 115.144,427.167 122.993,432.092 123.397,432.368 128.581,436.077 128.631,436.096 128.672,436.078 130.424,437.395 132.726,439.043 130.424,437.395 128.672,436.078 128.631,436.096 128.581,436.077 123.397,432.368 122.993,432.092 115.144,427.167 109.426,426.182 105.943,425.614 103.072,425.188 L100.002,437.246 Q101.848,437.684 103.81,438.206 118.678,442.041 124.502,441.845 118.678,442.041 103.81,438.206 101.848,437.684 100.002,437.246 99.821,437.195 99.639,437.151 87.293,434.115 80.484,434.26 L75.51,438.925 Q77.749,441.33 82.781,446.298 89.48,452.863 93.753,455.812 94.587,456.331 95.287,456.742 101.244,460.277 108.34,460.28 113.525,460.257 120.873,461.81 126.679,462.978 128.507,462.365 L134.216,463.987 132.025,471.508 136.256,481.752 Q136.332,481.91 136.343,482.026 142.392,494.339 151.414,504.967 160.55,515.73 171.107,522.237 176.432,525.491 180.236,526.724 186.569,529.354 192.662,529.435 196.391,529.484 205.217,529.328 208.574,529.472 212.48,530.424 L212.571,530.425 Q215.618,531.24 219.002,532.511 229.322,536.286 232.406,536.964 239.026,538.506 242.953,537.376 244.78,536.763 249.735,533.554 252.762,531.592 255.143,523.528 257.825,513.284 259.626,507.759 261.614,501.872 268.954,490.235 269.922,488.694 270.813,487.257 276.853,477.489 279.193,472.631 279.449,472.107 279.661,471.637 283.317,463.407 280,452.916 279.196,444.796 275.084,439.284 L269.2,430.2 Q268.608,430.571 267.828,430.819 261.984,432.47 262.337,426.38 L257.457,423.951 240.497,427.002 Q240.575,427.465 240.667,427.914 240.435,427.628 240.129,427.361 237.514,424.241 233.387,421.268 224.284,414.871 215.806,416.215 207.601,417.562 193.487,425.563 179.926,433.822 173.137,437.393 172.22,437.95 171.395,438.37 166.815,440.766 150.431,448.464 148.785,449.243 147.319,449.878 143.047,451.998 140.36,453.334 137.512,454.925 136.6,455.65 137.512,454.925 140.36,453.334 143.047,451.998 147.319,449.878 148.785,449.243 150.431,448.464 166.815,440.766 171.395,438.37 172.22,437.95 173.137,437.393 179.926,433.822 193.487,425.563 207.601,417.562 215.806,416.215 224.284,414.871 233.387,421.268 237.514,424.241 240.129,427.361 L240.497,427.002 Q240.453,426.775 240.412,426.546 239.72,422.916 239.242,418.707 238.188,408.96 239.603,405.158 240.735,402.08 248.417,398.998 255.278,396.086 254.85,394.079 253.647,388.697 245.847,380.043 L238.306,372.484 Q224.024,381.591 210.965,390.135 197.294,399.189 184.991,407.621 164.24,422.266 156.716,427.17 147.898,432.928 140.861,436.057 138.52,437.145 136.38,437.908 138.52,437.145 140.861,436.057 147.898,432.928 156.716,427.17 164.24,422.266 184.991,407.621 197.294,399.189 210.965,390.135 L205.258,381.418 Q204.454,380.315 199.524,374.792 194.145,368.809 192.705,367.607 M224.472,435.068 Q223.217,433.687 218.95,432.994 215.717,432.469 205.792,437.46 202.605,439.102 198.738,441.278 182.791,450.255 180.245,450.222 182.791,450.255 198.738,441.278 202.605,439.102 205.792,437.46 215.717,432.469 218.95,432.994 223.217,433.687 224.472,435.068 225.727,436.449 229.968,439.052 225.727,436.449 224.472,435.068 M218.456,449.816 Q220.762,447.391 220.783,445.753 220.789,445.299 218.546,442.995 220.789,445.299 220.783,445.753 220.762,447.391 218.456,449.816 215.964,452.512 213.69,452.482 207.051,452.395 207.113,447.665 207.123,446.938 207.217,446.666 207.497,446.124 208.984,443.778 207.497,446.124 207.217,446.666 207.123,446.938 207.113,447.665 207.051,452.395 213.69,452.482 215.964,452.512 218.456,449.816 M197.609,506.122 Q197.172,506.989 196.495,507.836 194.644,510.267 193.543,510.98 194.644,510.267 196.495,507.836 197.172,506.989 197.609,506.122 199.094,503.905 199.12,501.957 L198.785,499.77 199.12,501.957 Q199.094,503.905 197.609,506.122 M242.948,475.701 Q245.251,475.731 248.329,474.589 251.652,473.467 255.835,471.05 261.813,467.515 263.281,465.144 263.838,464.358 263.846,463.696 263.856,462.968 262.069,460.489 260.374,458.01 259.65,457.728 260.374,458.01 262.069,460.489 263.856,462.968 263.846,463.696 263.838,464.358 263.281,465.144 261.813,467.515 255.835,471.05 251.652,473.467 248.329,474.589 245.251,475.731 242.948,475.701 239.401,475.654 237.07,473.076 233.395,468.934 233.124,468.749 233.395,468.934 237.07,473.076 239.401,475.654 242.948,475.701 M263.627,480.34 Q263.636,479.612 262.561,478.416 263.636,479.612 263.627,480.34 263.611,481.522 263.143,482.517 262.675,483.511 261.755,484.318 259.823,485.93 257.186,485.895 256.185,485.882 254.104,485.035 252.114,484.191 250.853,483.264 252.114,484.191 254.104,485.035 256.185,485.882 257.186,485.895 259.823,485.93 261.755,484.318 262.675,483.511 263.143,482.517 263.611,481.522 263.627,480.34 M219.64,511.689 Q223.646,511.469 227.742,511.25 223.646,511.469 219.64,511.689 208.614,513.18 199.411,507.419 208.614,513.18 219.64,511.689 M162.296,397.225 Q158.176,392.349 151.57,389.715 145.055,387.082 139.224,387.824 145.055,387.082 151.57,389.715 158.176,392.349 162.296,397.225Z" test="Avatar Lady" stroke-width="1.819"/>
      <path id="Layer4_0_1_STROKES" stroke="#009EFF" stroke-width="1.819" stroke-linejoin="round" stroke-linecap="round" fill="none" d="M257.457,423.951 Q256.422,419.662 259.809,418.069 263.106,416.384 266.212,415.424 M236.639,367.823 Q236.923,367.008 236.929,366.553 236.941,365.644 234.016,359.783 230.559,352.915 230.03,351.635 228.092,346.879 223.287,345.633 218.291,345.112 216.573,344.271 216.919,345.64 216.86,350.097 L216.592,356.643 Q216.318,356.73 214.327,355.976 212.153,355.22 211.153,355.206 207.606,355.16 205.698,354.952 201.158,354.347 196.065,354.28 L192.244,354.32 M192.705,367.607 Q194.145,368.809 199.524,374.792 204.454,380.315 205.258,381.418 M216.573,344.271 Q216.571,344.18 216.484,344.179 L216.487,343.906 Q216.574,344.087 216.573,344.271Z M191.789,354.314 Q191.791,354.132 191.882,354.133 192.055,354.312 192.244,354.32 L191.789,354.314 Q181.603,354.18 175.592,354.737 163.477,355.942 153.783,359.907 144.452,363.878 135.723,370.494 132.419,372.966 129.241,375.684 129.193,375.727 129.149,375.774 128.875,376 128.597,376.222 123.767,380.503 119.243,385.377 111.493,393.643 108.099,402.695 104.706,411.656 103.571,421.829 M103.071,425.234 Q105.943,425.614 109.426,426.182 115.144,427.167 122.993,432.092 123.397,432.368 128.581,436.077 128.631,436.096 128.671,436.124 130.424,437.395 132.726,439.043 M229.968,439.052 Q225.727,436.449 224.472,435.068 223.217,433.687 218.95,432.994 215.717,432.469 205.792,437.505 202.605,439.102 198.738,441.278 182.791,450.255 180.245,450.222 M233.124,468.749 Q233.395,468.934 237.07,473.076 239.401,475.654 242.948,475.701 245.251,475.731 248.374,474.635 251.652,473.467 255.835,471.05 261.813,467.515 263.327,465.145 263.838,464.358 263.846,463.696 263.856,462.968 262.069,460.489 260.374,458.01 259.65,457.728 M275.084,439.284 Q279.196,444.796 280,452.916 283.317,463.407 279.661,471.637 279.449,472.107 279.193,472.631 276.853,477.489 270.813,487.257 269.922,488.694 268.954,490.235 261.614,501.872 259.626,507.759 257.825,513.284 255.143,523.528 252.762,531.592 249.735,533.554 244.78,536.763 242.953,537.376 239.026,538.506 232.406,536.964 229.322,536.286 219.002,532.511 215.618,531.24 212.57,530.471 L212.479,530.469 M211.996,532.601 Q206.034,536.343 198.002,545.333 194.534,549.201 191.669,552.982 L191.577,553.072 191.3,553.432 Q190.114,555.068 189.028,556.677 186.307,560.65 184.285,564.528 179.9,572.839 172.016,591.292 168.21,600.115 162.299,614.178 L162.253,614.223 Q162.244,614.298 162.205,614.359 162.165,614.518 162.11,614.676 161.874,615.186 161.642,615.716 161.031,617.223 160.373,618.792 157.369,625.848 153.037,637.07 149.377,645.573 145.413,649.523 M144.946,650.427 Q142.439,654.305 132.383,664.997 125.197,672.675 122.315,676.554 121.401,677.813 120.922,678.673 M250.853,483.264 Q252.114,484.191 254.104,485.035 256.185,485.882 257.186,485.895 259.823,485.93 261.755,484.318 262.675,483.511 263.143,482.517 263.611,481.522 263.627,480.34 263.636,479.612 262.561,478.416 M212.479,530.469 Q208.574,529.472 205.217,529.328 196.391,529.484 192.662,529.435 186.569,529.354 180.236,526.724 176.432,525.491 171.107,522.237 160.55,515.73 151.414,504.967 142.392,494.339 136.388,482.072 M134.419,483.092 Q133.874,489.908 129.664,505.68 126.516,517.675 125.929,526.735 125.816,528.422 125.795,530.008 125.752,533.282 126.27,549.117 125.97,571.855 123.133,580.095 121.241,585.619 118.612,591.77 117.005,596.388 116.919,602.936 116.871,606.584 117.629,611.178 L117.628,611.224 Q118.326,615.432 119.69,620.438 122.463,630.845 122.395,636.029 122.359,638.758 121.324,641.382 120.759,642.785 120.113,643.504 M121.641,644.934 Q121.653,647.008 121.287,651.07 121.274,651.226 121.282,651.388 120.782,656.936 119.634,666.057 L119.633,666.103 Q119.181,669.733 118.62,673.912 M185.074,566.813 L184.46,571.99 Q184.448,572.899 185.036,576.545 185.625,580.192 185.613,581.101 185.601,582.011 186.343,587.842 186.994,593.673 186.982,594.582 186.881,602.222 175.362,634.09 163.753,665.957 163.663,672.778 163.576,679.418 173.373,695.284 181.032,707.665 190.787,719.802 197.858,728.537 213.977,768.592 213.961,769.775 214.685,770.057 215.319,770.247 215.419,769.612 M129.935,712.631 Q132.192,713.934 143.863,725.641 156.339,738.359 156.305,740.996 156.261,744.271 178.417,761.119 200.572,777.967 200.524,781.605 200.51,782.696 200.875,782.61 201.24,782.524 201.237,782.706 L201.973,782.079 M162.296,397.225 Q158.176,392.349 151.57,389.715 145.055,387.082 139.224,387.824 M103.071,425.234 Q102.98,425.244 102.889,425.232 102.797,425.219 102.708,425.229 98.345,424.635 95.439,424.542 87.62,424.257 81.954,426.274 74.916,428.819 74.09,429.354 72.714,430.246 72.771,432.794 72.917,435.525 74.256,437.453 74.63,437.927 75.331,438.695 75.421,438.783 75.511,438.879 L75.555,438.925 M80.484,434.26 Q87.293,434.115 99.639,437.151 99.821,437.195 100.002,437.246 M75.555,438.925 Q77.749,441.33 82.781,446.298 89.48,452.863 93.799,455.813 94.587,456.331 95.287,456.742 101.244,460.277 108.34,460.28 113.525,460.257 120.873,461.81 126.679,462.978 128.507,462.365 M132.025,471.508 L136.256,481.752 Q136.332,481.91 136.388,482.072 M89.671,461.853 Q86.625,465.178 83.735,484.334 82.437,493.05 82.137,495.138 81.724,498.862 81.668,503.046 81.601,508.139 83.543,519.535 85.394,530.93 85.31,537.297 85.301,537.959 85.292,538.661 85.179,541.687 84.748,545.385 84.055,551.449 82.518,559.319 81.441,564.838 79.95,571.247 74.742,593.647 74.497,612.201 74.458,615.202 75.694,624.952 76.937,634.156 76.732,635.882 M100.002,437.246 Q101.848,437.684 103.81,438.206 118.678,442.041 124.502,441.845 M111.235,482.15 L111.387,484.426 Q111.359,486.518 109.921,492.139 108.481,497.851 108.237,502.578 107.894,507.849 107.776,516.762 107.763,517.763 108.085,520.951 108.406,524.23 108.39,525.412 108.389,525.477 108.388,525.548 108.34,527.993 107.66,532.498 106.952,537.855 106.116,539.209 105.284,540.198 103.703,542.816 102.588,544.575 102.027,545.75 101.466,546.925 101.458,547.516 M103.685,585.569 Q103.675,586.297 102.485,593.74 101.205,601.183 101.19,602.274 101.164,604.275 102.728,609.845 103.471,612.651 103.852,614.271 104.195,615.871 104.189,616.322 104.148,619.415 101.435,625.11 99.003,630.172 97.159,632.058 M85.292,538.661 Q80.099,539.229 74.019,545.062 68.385,550.409 66.772,556.519 66.307,558.301 66.178,560.15 65.738,565.966 60.48,626.662 55.512,685.997 55.337,692.362 55.281,696.637 54.547,703.995 54.449,705.076 54.384,706.04 L54.383,706.131 Q54.249,709.231 54.635,711.092 54.978,712.734 91.808,768.709 128.373,824.135 128.416,827.774 M64.594,556.126 Q55.804,560.468 47.024,564.082 34.494,569.192 27.576,569.556 13.202,569.639 -3.528,569.054 -36.896,567.795 -48.586,564.457 M120.113,643.504 Q119.513,644.178 118.831,644.169 M118.62,673.912 L118.62,673.958 Q118.365,676.037 118.062,678.271 116.446,690.203 114.101,706.146 113.598,709.868 123.093,727.914 134.809,749.991 137.268,756.664 154.039,802.369 154.227,822.656 M-44.938,674.028 Q-37.859,675.304 -20.39,681.902 -1.383,689.158 8.907,695.206 22.899,703.396 26.61,704.809 34.302,707.822 44.412,706.863 48.511,706.463 51.975,705.872" test="Avatar Lady"/>
      <path id="Layer4_0_2_STROKES" stroke="#FFBC00" stroke-width="1.819" stroke-linejoin="round" stroke-linecap="round" fill="none" d="M211.011,390.135 Q224.024,381.591 238.306,372.484 L245.847,380.043 Q253.647,388.697 254.85,394.079 255.278,396.086 248.417,398.998 240.735,402.08 239.603,405.158 238.188,408.96 239.242,418.707 239.72,422.916 240.412,426.546 240.453,426.775 240.497,427.002 M136.38,437.908 Q138.52,437.145 140.861,436.103 147.898,432.928 156.716,427.17 164.24,422.266 184.991,407.621 197.294,399.189 211.011,390.135 M240.174,427.361 Q240.435,427.628 240.667,427.914 240.575,427.465 240.497,427.002 M240.174,427.361 Q237.514,424.241 233.387,421.268 224.284,414.871 215.806,416.215 207.601,417.562 193.487,425.563 179.926,433.822 173.181,437.439 172.22,437.95 171.395,438.37 166.815,440.766 150.431,448.464 148.785,449.243 147.319,449.924 143.047,451.998 140.405,453.38 137.512,454.925 136.6,455.65" test="Avatar Lady"/>
      <path id="Layer4_0_3_STROKES" stroke="#FF0" stroke-width="1.819" stroke-linejoin="round" stroke-linecap="round" fill="none" d="M262.337,426.38 Q261.984,432.47 267.828,430.819 268.608,430.571 269.246,430.201 271.48,428.848 271.805,425.868 272.118,422.78 269.128,421.921 M208.984,443.778 Q207.497,446.124 207.217,446.666 207.123,446.938 207.113,447.665 207.051,452.395 213.69,452.482 215.964,452.512 218.456,449.816 220.762,447.391 220.783,445.753 220.789,445.299 218.546,442.995" test="Avatar Lady"/>
      <path id="Layer4_0_4_STROKES" stroke="#FFF" stroke-width="1.819" stroke-linejoin="round" stroke-linecap="round" fill="none" d="M198.785,499.77 L199.12,501.957 Q199.094,503.905 197.654,506.168 197.172,506.989 196.495,507.836 194.644,510.267 193.543,510.98 M199.411,507.419 Q208.614,513.18 219.64,511.689 223.646,511.469 227.742,511.25" test="Avatar Lady"/>
    </g>
    <g id="Censoredf0r1">
      <path fill="#000" stroke="none" d="M-18.85,454.35 L-18.85,680.9 829.1,680.9 829.1,454.35 -18.85,454.35Z" test="Censored"/>
      <path id="Layer2_0_1_STROKES" stroke="#F00" stroke-width="1" stroke-linejoin="round" stroke-linecap="round" fill="none" d="M440.05,484.95 Q451.45,484.7 458.4,493.45 467.15,504.5 468.45,529.35 469.85,555.55 462.7,570.75 456.1,584.8 444.2,585.55 432.35,586.35 426.85,576.8 420.75,566.3 419.8,539.15 418.8,512.5 424.1,499.25 428.75,487.6 438.75,485.25 M495.6,591.1 Q496.6,581.75 496.9,568.65 497.2,553.55 496.25,540.8 496.1,538.9 494.45,526.35 493.3,517.4 490.7,499.25 489,485.25 490.35,483.65 491.55,482.25 495.9,481.8 500.65,481.2 505.5,482.3 518.75,485.35 520.4,497.7 522.1,510.55 514.25,519.5 507.95,526.7 498.4,529.15 503.3,532.95 507.4,538.15 509.05,540.15 511.9,544.4 515.55,549.8 519.6,558.2 527.8,574.85 530,589.55 M571.35,483.65 Q570.6,483.65 561.5,484.35 554.45,484.85 553.1,484.3 551.6,483.65 553.4,534.6 553.45,535.9 553.55,537.15 555.9,536.8 562.05,536.75 568.9,536.7 569.75,536.55 M576.25,587.2 Q574.4,587.65 565.05,586.95 555.95,586.2 555.7,585.9 555.25,585.3 553.55,537.15 553.25,537.15 553.1,537.2 M604.7,482.3 Q618.7,481 628.4,487.15 644.15,497.1 645.2,524.8 646.25,553.4 642.45,564.4 640.25,570.95 633.1,575.1 628.35,577.9 618.55,579.8 610.8,581.3 606.65,581.3 604.3,581.3 604.1,531.45 603.85,480.95 604.7,482.3Z M184.5,502.6 Q183.2,496.85 177.55,491.35 171.75,485.7 166.2,485.25 158.55,484.6 151.55,488.15 141.9,493.05 136.2,505.2 129.55,519.45 127.75,533.8 125.85,549.1 129.9,562.35 132.45,570.85 135.75,575.45 140.25,581.65 146.6,581.65 153.75,581.65 160.75,577.7 167.95,573.75 170.85,567.9 M245.95,483.3 Q246.45,484.4 229.65,485.45 212.85,486.5 212.85,486.2 212.8,485.8 212.85,533.95 213.9,534.4 230.8,533.6 247.75,532.85 248.25,532 M277.65,587.55 Q277.8,587.7 277,535.45 276.2,483.15 276.35,483.3 276.6,483.65 327,579.05 323.8,480.05 322.4,480.7 M393.3,504.2 Q391.25,497.4 386,491.35 379.85,484.15 373.45,484.1 367,484 361.25,490.3 355.5,496.55 356.05,503.3 356.35,506.55 357.2,508.8 360.1,514.35 364.75,518.85 365.75,519.75 366.65,520.9 368.9,523.7 371.6,527.35 387.7,548.65 388.75,558.75 390,570.95 383.9,577.65 379.05,582.95 373.4,582.6 364.85,582.1 360.6,579.1 351.95,572.95 352.15,556.15 M212.85,533.95 Q212.65,534 212.5,558.4 212.4,582.7 212.25,584.25 212.1,585.85 229.65,586.1 247.15,586.35 248.25,584.25" test="Censored"/>
      <path id="Layer1_0_1_STROKES" stroke="#F00" stroke-width="1" stroke-linejoin="round" stroke-linecap="round" fill="none" d="M65.35,452.7 L732,452.7 732,612.5 65.35,612.5 65.35,452.7Z" test="Censored"/>
    </g>
  </g>
</svg>