<?xml version="1.0" encoding="utf-8"?>
<svg id="EdithAnim13" image-rendering="inherit" baseProfile="basic" version="1.1" x="0px" y="0px" width="800" height="600" xmlns="http://www.w3.org/2000/svg" xmlns:xlink="http://www.w3.org/1999/xlink">
  <g id="22_Avatarf14r1" overflow="visible">
    <g id="Avatar-Manf0r1">
      <g id="Tailf0r1">
        <path id="Layer3_0_1_STROKES" stroke="#009EFF" stroke-width="2.303" stroke-linejoin="round" stroke-linecap="round" fill="none" d="M650.79,834.992 Q649.628,818.07 648.987,801.139 648.413,784.721 643.079,769.215 637.217,752.326 620.884,744.643 601.035,735.386 598.161,756.086 597.741,759.102 599.713,761.749 604.375,768.109 611.004,772.18 617.933,769.65 623.144,774.429 629.418,780.231 632.179,788.93 638.632,809.458 643.772,830.158 645.224,835.95 644.249,841.826" test="Tail_2.3242325232423263e+312.3242325232423263e+31_2.3242325232423263e+312.3242325232423263e+31"/>
      </g>
      <path fill="#000" stroke="none" d="M612.353,748.915 Q608.249,739.703 603.056,738.363 601.884,738.028 587.646,742.131 570.729,746.989 551.55,747.156 531.618,747.324 512.522,741.126 497.196,734.845 495.437,735.013 489.407,737.693 487.732,738.865 484.718,740.875 484.969,743.388 485.136,745.23 485.304,755.364 485.89,765.163 488.737,768.513 491.836,772.114 506.827,779.903 519.222,786.184 531.869,791.544 540.16,795.061 552.639,810.723 559.004,818.679 566.206,827.975 567.714,829.148 566.206,830.823 565.034,832.079 565.201,832.079 L577.094,828.394 Q592.252,823.62 602.554,807.624 611.348,793.889 614.781,775.213 617.545,760.389 612.353,748.915 M617.713,400.431 L614.698,399.175 Q614.654,399.281 614.614,399.343 613.706,401.661 613.106,403.781 611.515,409.476 609.002,418.186 608.946,418.339 608.835,418.438 606.54,424.535 601.8,427.231 591.834,432.926 586.306,435.606 L590.075,443.981 Q589.656,450.095 591.583,491.049 591.653,492.56 591.666,493.98 593.229,525.981 593.425,535.688 593.423,535.751 593.425,535.771 593.453,538.016 593.425,539.038 593.09,552.186 595.519,572.956 595.854,575.888 600.46,573.459 605.066,570.946 604.731,569.188 604.564,567.931 606.49,568.601 608.081,569.188 608.5,569.606 608.584,569.69 614.781,548.25 L619.806,556.625 Q619.89,556.709 622.738,538.2 L627.762,540.294 Q627.86,540.393 627.176,531.5 627.213,531.48 627.176,531.416 626.222,517.745 623.491,483.009 621.835,461.783 620.56,447.834 618.982,429.188 618.131,423.546 617.893,421.901 617.713,421.369 617.893,421.901 618.131,423.546 618.982,429.188 620.56,447.834 L621.9,447.75 Q623.575,447.583 628.516,442.641 632.871,438.454 636.137,439.794 639.069,441.05 656.656,466.51 676.924,492.305 693.506,496.325 678.599,496.828 656.489,513.829 649.621,519.105 642.838,525.47 L641.833,526.391 Q643.025,539.121 646.941,582.671 L647.863,582.588 Q652.218,580.159 682.703,556.206 712.099,533.008 721.563,524.8 728.598,518.686 734.376,509.055 737.308,504.114 740.825,498 742.5,496.074 746.101,493.394 749.033,490.714 749.2,486.275 749.368,481.92 717.543,461.401 682.284,439.459 675.5,434.35 655.567,419.359 646.271,413.329 635.196,406.068 627.679,402.86 621.433,400.202 617.713,400.431 M558.166,395.323 Q560.679,394.904 563.024,394.485 566.793,394.485 566.541,399.091 573.744,398.254 576.591,399.091 579.606,400.013 579.522,403.279 L584.213,405.456 Q587.506,399.054 595.519,393.731 600.125,390.633 604.061,389.628 604.123,389.614 604.145,389.544 L603.056,382.844 Q604.313,382.76 601.884,379.829 597.445,374.72 593.844,370.281 588.986,364.251 572.069,358.808 557.245,354.034 549.037,353.95 522.74,353.699 504.65,361.069 493.427,365.675 483.377,379.578 481.451,382.212 479.86,384.603 475.369,391.721 473.997,397.081 L473.997,399.091 Q474.165,399.091 474.919,399.343 475.756,399.51 476.343,399.51 479.357,399.51 482.372,397.081 485.806,394.234 489.072,393.648 L489.072,395.741 492.841,395.741 Q495.354,395.239 500.127,393.815 503.812,392.643 504.566,392.81 L504.566,394.904 Q505.404,394.904 508.754,395.323 514.281,395.323 519.641,392.391 L523.829,392.391 523.829,394.066 530.529,394.066 Q541.584,390.716 542.254,390.716 543.343,390.716 544.348,391.47 545.52,392.308 547.698,392.391 547.698,394.485 547.279,395.323 L558.166,395.323Z" test="Avatar Man" stroke-width="1.675"/>
      <path id="Layer2_0_1_STROKES" stroke="#009EFF" stroke-width="1.675" stroke-linejoin="round" stroke-linecap="round" fill="none" d="M579.522,403.279 Q579.606,400.013 576.591,399.091 573.744,398.254 566.541,399.091 566.793,394.485 563.024,394.485 560.679,394.904 558.166,395.323 L547.279,395.323 Q547.698,394.485 547.698,392.391 545.52,392.308 544.348,391.47 543.343,390.716 542.254,390.716 541.584,390.716 530.529,394.066 L523.829,394.066 523.829,392.391 519.641,392.391 Q514.281,395.323 508.754,395.323 505.404,394.904 504.566,394.904 L504.566,392.81 Q503.812,392.643 500.127,393.815 495.354,395.239 492.841,395.741 L489.072,395.741 489.072,393.648 Q485.806,394.234 482.372,397.081 479.357,399.51 476.343,399.51 475.756,399.51 474.919,399.343 474.165,399.091 473.997,399.091 L473.997,397.081 Q475.369,391.721 479.902,384.644 481.451,382.212 483.377,379.578 493.427,365.675 504.65,361.069 522.74,353.699 549.037,353.95 557.245,354.034 572.069,358.808 588.986,364.251 593.844,370.281 597.445,374.72 601.884,379.829 604.313,382.76 603.056,382.844 M604.187,389.586 Q604.249,389.592 604.313,389.586 606.845,389.026 612.269,388.706 616.205,388.539 618.634,386.948 619.974,386.11 621.9,384.519 622.654,384.1 619.555,389.46 618.131,391.889 616.959,394.234 616.242,395.642 615.661,396.998 615.522,397.277 615.409,397.542 615.165,398.064 614.949,398.589 614.818,398.884 614.698,399.175 M617.713,400.431 Q621.433,400.202 627.721,402.902 635.196,406.068 646.271,413.329 655.567,419.359 675.5,434.35 682.284,439.459 717.543,461.401 749.368,481.92 749.2,486.275 749.033,490.714 746.101,493.394 742.5,496.074 740.825,498 737.308,504.114 734.376,509.055 728.598,518.686 721.563,524.8 712.099,533.008 682.703,556.206 652.218,580.159 647.863,582.588 647.429,582.871 647.025,583.132 642.151,586.294 639.99,587.529 636.137,589.79 632.787,589.288 M616.959,394.234 Q615.654,395.664 614.572,396.495 613.478,397.292 612.604,397.5 609.421,397.751 605.569,398.338 600.627,399.091 597.948,400.934 594.346,404.033 590.912,406.713 586.641,410.063 583.961,411.654 L582.119,412.575 Q582.522,408.88 584.254,405.498 M578.685,403.279 L579.522,403.279 M584.254,405.498 Q587.506,399.054 595.519,393.731 600.125,390.633 604.061,389.628 604.123,389.614 604.187,389.586 M614.698,399.175 Q614.654,399.281 614.614,399.384 613.706,401.661 613.106,403.781 611.515,409.476 609.002,418.186 608.946,418.339 608.877,418.479 606.54,424.535 601.8,427.231 591.834,432.926 586.306,435.606 M590.075,443.981 Q589.656,450.095 591.583,491.049 591.653,492.56 591.708,494.022 593.229,525.981 593.425,535.688 593.423,535.751 593.425,535.813 593.453,538.016 593.425,539.038 593.09,552.186 595.519,572.956 595.854,575.888 600.46,573.459 605.066,570.946 604.731,569.188 604.564,567.931 606.49,568.601 608.081,569.188 608.5,569.606 608.584,569.69 614.781,548.25 L619.806,556.625 Q619.89,556.709 622.738,538.2 L627.762,540.294 Q627.86,540.393 627.218,531.542 627.213,531.48 627.218,531.416 626.222,517.745 623.491,483.009 621.835,461.783 620.602,447.834 618.982,429.188 618.131,423.546 617.893,421.901 617.713,421.369 M641.833,526.433 L642.838,525.47 Q649.621,519.105 656.489,513.829 678.599,496.828 693.506,496.325 676.924,492.305 656.656,466.51 639.069,441.05 636.137,439.794 632.871,438.454 628.516,442.641 623.575,447.583 621.9,447.75 M527.681,441.05 Q528.658,441.207 530.696,441.301 533.021,441.385 536.726,441.385 543.259,441.301 546.106,441.05 551.382,440.548 552.053,440.38 555.402,439.459 555.738,436.863 M576.675,508.05 Q577.512,513.494 579.439,521.366 581.784,530.83 583.794,535.688 M483.294,505.538 Q483.294,505.621 483.629,514.164 483.88,520.278 486.225,524.381 486.979,525.698 488.109,526.978 491.54,530.808 498.452,534.264 508,539.121 517.213,539.456 L520.604,539.708 520.73,539.708 Q529.608,540.043 532.287,539.875 536.894,539.54 542.338,537.781 546.358,536.525 557.161,526.81 564.839,519.835 572.99,511.316 573.096,511.214 573.199,511.107 573.263,511.047 573.325,510.981 573.41,510.901 573.493,510.814 574.779,509.449 576.089,508.05 576.174,507.96 576.256,507.883 576.29,507.834 576.34,507.799 576.353,507.75 576.382,507.715 586.243,497.201 587.563,494.231 M520.563,540.294 Q519.809,543.895 518.385,552.103 516.961,559.221 514.7,562.906 M637.394,530.663 L641.833,526.433 M628.181,597.244 Q628.098,597.411 619.639,619.438 613.609,635.099 611.431,644.144 608.751,655.115 606.406,687.778 604.061,719.603 605.15,726.638 M556.91,640.291 Q557.412,642.134 559.088,642.636 559.59,642.804 560.93,642.804 563.108,642.804 563.945,641.799 564.28,641.464 565.62,638.365 M523.41,628.148 Q523.242,643.39 524.331,645.735 526.09,649.923 535.973,649.923 540.746,649.923 541.165,649.839 541.667,649.755 543.51,648.666 M524.666,679.654 Q523.829,682.166 523.829,684.93 523.829,689.536 527.514,689.788 529.943,689.871 537.647,689.704 M521.735,714.41 Q526.006,717.341 528.77,718.011 530.78,718.43 534.297,717.76 M564.531,832.581 Q558.25,835.513 541.416,838.695 524.415,841.878 506.325,843.469 490.664,844.893 453.814,844.139 426.009,843.636 410.012,842.631 397.701,841.878 372.744,839.281 366.546,838.611 361.94,839.616 358.674,840.37 357.669,839.7 M478.269,383.681 Q475.086,381.755 471.317,379.745 463.78,375.809 461.519,376.144 459.09,376.479 461.1,388.455 462.775,398.673 464.45,402.944 M468.637,414.25 Q469.307,417.014 471.066,422.541 472.071,426.98 469.475,428.906 466.277,431.29 463.236,433.513 L463.194,433.554 Q417.498,467.485 411.687,469.525 406.579,471.033 405.323,471.451 403.564,472.121 403.312,473.713 402.894,476.979 402.726,488.201 402.475,501.099 403.312,503.863 406.16,515.253 428.102,547.664 449.626,579.405 462.356,591.8 M470.312,443.144 Q472.909,444.484 478.101,445.154 478.312,445.186 478.52,445.196 483.421,445.897 488.319,445.656 491.417,445.489 498.62,444.316 504.482,443.311 506.325,443.563 M469.894,464.919 Q468.889,466.594 458.085,477.398 448.286,487.196 445.606,489.625 M490.329,484.516 Q494.097,484.516 498.285,483.679 L514.616,483.679 Q509.591,489.039 506.744,491.886 501.468,497.079 500.211,497.079 497.95,497.079 494.6,492.389 491.166,487.029 489.91,485.773 M436.394,485.019 Q437.831,488.491 440.916,492.891 440.95,492.94 441,492.975 448.678,503.986 466.544,520.78 474.843,528.574 480.949,534.515 495.077,548.22 497.531,552.019 M469.475,615.25 Q468.889,628.566 471.569,634.931 473.244,638.784 478.352,643.139 483.629,647.41 488.319,648.75 M483.713,656.288 Q483.796,658.884 483.377,669.604 483.21,679.654 484.55,682.25 486.141,685.349 490.077,687.945 493.93,690.458 496.275,690.206 M489.575,693.556 Q489.659,696.32 489.659,700.591 489.826,703.774 491.25,705.7 491.417,705.951 495.94,709.05 498.955,711.144 498.787,714.913 498.62,717.76 496.861,724.795 495.354,730.658 495.856,732.5 M475.338,744.644 Q455.74,741.043 432.039,737.358 384.72,730.071 364.871,730.071 351.639,730.071 336.564,727.308 324.671,725.13 322.159,725.884 317.804,727.224 313.7,734.091 309.596,741.043 309.931,746.738 310.182,750.59 311.522,760.808 312.611,769.936 311.606,773.538 M474.919,768.931 Q467.214,770.188 431.704,770.941 393.179,771.779 386.981,772.281 380.114,772.868 358.255,776.385 338.406,779.568 330.45,779.819 320.986,780.154 312.611,778.981 308.256,778.395 301.975,776.888 298.709,776.134 295.359,778.395 293.6,779.651 289.412,784.006 284.639,788.948 288.994,799.5 289.831,801.594 288.407,813.57 286.816,825.63 287.737,827.975 L290.669,835.094 Q293.935,844.055 295.275,853.519 M354.319,827.975 Q355.491,831.744 357.669,842.548 360.014,854.105 359.762,856.45" test="Avatar Man"/>
      <path id="Layer2_0_2_STROKES" stroke="#FF0" stroke-width="1.675" stroke-linejoin="round" stroke-linecap="round" fill="none" d="M530.529,444.316 Q529.691,449.006 531.366,452.44 533.125,456.041 536.391,456.041 537.731,456.041 539.574,455.036 541.667,453.864 542.254,452.273 M478.185,448.085 Q477.347,453.948 477.347,454.366 477.347,456.07 478.604,457.884 479.272,458.832 480.279,459.81 483.377,462.741 486.56,462.741 488.235,462.741 489.324,461.066 489.994,460.145 491.166,458.135" test="Avatar Man"/>
      <path id="Layer2_0_3_STROKES" stroke="#FFF" stroke-width="1.675" stroke-linejoin="round" stroke-linecap="round" fill="none" d="M559.841,489.96 Q565.453,492.221 565.704,495.99 565.72,496.228 565.746,496.493 565.741,496.556 565.746,496.618 L565.746,496.744 Q565.777,498.923 565.285,502.941 M552.304,505.035 Q557.823,503.718 561.181,499.675 562.307,498.322 563.191,496.66" test="Avatar Man"/>
      <path id="Layer2_0_4_STROKES" stroke="#F90" stroke-width="1.675" stroke-linejoin="round" stroke-linecap="round" fill="none" d="M495.437,735.013 Q497.196,734.845 512.522,741.126 531.618,747.324 551.55,747.156 570.729,746.989 587.646,742.131 601.884,738.028 603.056,738.363 608.249,739.703 612.353,748.915 617.545,760.389 614.781,775.213 611.348,793.889 602.554,807.624 592.252,823.62 577.094,828.394 L565.201,832.079 Q565.034,832.079 566.206,830.823 567.714,829.148 566.206,827.975 559.004,818.679 552.639,810.723 540.16,795.061 531.869,791.544 519.222,786.184 506.827,779.903 491.836,772.114 488.737,768.513 485.89,765.163 485.304,755.364 485.136,745.23 484.969,743.388 484.718,740.875 487.732,738.865 489.407,737.693 495.437,735.013Z" test="Avatar Man"/>
    </g>
    <g id="Avatar-Lady">
      <path fill="#000" stroke="none" d="M251.593,672.176 Q247.881,671.711 244.763,671.934 236.621,673.016 233.169,673.366 227.527,673.939 221.394,672.18 217.746,671.444 212.479,669.002 202.029,664.108 192.441,655.129 182.972,646.263 176.073,635.524 L174.408,636.714 Q174.628,643.071 172.411,658.098 170.775,669.521 171.195,677.958 171.269,679.529 171.418,680.998 171.726,684.029 173.888,698.611 176.025,719.661 174.277,727.58 173.115,732.887 171.338,738.852 170.343,743.292 170.959,749.354 171.302,752.73 172.486,756.855 L172.495,756.939 Q173.586,760.755 175.379,765.238 179.048,774.563 179.535,779.363 179.792,781.889 179.114,784.425 178.741,785.781 178.216,786.472 L179.784,787.674 Q180.016,789.59 180.104,793.341 180.113,793.529 180.138,793.678 180.265,798.86 180.168,807.371 L180.176,807.455 Q180.144,810.86 180.069,814.782 L183.761,816.789 Q186.017,812.939 191.844,805.079 200.005,794.128 201.911,790.276 L202.246,789.392 Q205.49,785.319 207.971,777.071 210.784,766.237 212.811,759.396 213.252,757.876 213.615,756.422 213.816,755.903 213.933,755.368 214.014,755.255 213.992,755.107 214.064,755.042 214.059,754.93 L214.059,754.93 Q218.071,741.298 220.653,732.739 225.981,714.844 229.152,706.695 230.609,702.896 232.702,698.934 233.535,697.332 234.415,695.697 L234.634,695.335 234.709,695.242 Q236.998,691.439 239.793,687.495 246.263,678.331 251.377,674.239 L251.593,672.176 M216.022,523.771 L214.184,511.538 213.763,511.58 Q204.332,512.538 198.835,513.692 187.765,516.092 179.224,520.787 171.021,525.448 163.654,532.491 160.863,535.128 158.172,537.982 158.174,538.022 158.096,538.075 157.909,538.308 157.634,538.547 153.666,543.013 150.002,547 143.716,556.463 141.539,565.191 139.355,573.835 139.386,583.359 L139.281,586.517 Q141.98,586.606 145.261,586.761 150.651,587.064 158.43,590.783 158.832,590.996 164.018,593.874 164.067,593.886 164.102,593.865 165.862,594.896 168.164,596.175 165.862,594.896 164.102,593.865 164.067,593.886 164.018,593.874 158.832,590.996 158.43,590.783 150.651,587.064 145.261,586.761 141.98,586.606 139.281,586.517 L137.724,597.99 Q139.477,598.198 141.346,598.473 155.497,600.438 160.86,599.639 155.497,600.438 141.346,598.473 139.477,598.198 137.724,597.99 137.551,597.961 137.379,597.94 125.644,596.445 119.365,597.302 L115.263,602.142 Q117.587,604.128 122.767,608.185 129.657,613.543 133.92,615.815 134.745,616.206 135.437,616.512 141.319,619.147 147.878,618.396 152.669,617.824 159.626,618.479 165.117,618.942 166.741,618.182 L172.191,619.074 170.964,626.26 175.963,635.28 Q176.051,635.417 176.073,635.524 182.972,646.263 192.441,655.129 202.029,664.108 212.479,669.002 217.746,671.444 221.394,672.18 227.527,673.939 233.169,673.366 236.621,673.016 244.763,671.934 247.881,671.711 251.593,672.176 L251.677,672.167 Q254.58,672.597 257.843,673.413 267.784,675.806 270.707,676.105 276.99,676.828 280.499,675.365 282.124,674.605 286.363,671.112 288.953,668.978 290.297,661.27 291.689,651.516 292.767,646.217 293.979,640.565 299.528,629.027 300.259,627.5 300.93,626.078 305.476,616.407 307.123,611.668 307.304,611.156 307.45,610.699 309.956,602.703 306.699,593.251 304.17,585.937 299.784,581.278 L293.38,573.507 Q292.872,573.912 292.177,574.224 286.95,576.371 286.63,570.704 L281.861,568.977 266.508,573.598 Q266.629,574.018 266.762,574.423 266.516,574.185 266.205,573.969 263.456,571.363 259.326,569.053 250.232,564.107 242.538,566.25 235.097,568.366 222.899,577.261 211.241,586.336 205.344,590.358 204.556,590.97 203.838,591.446 199.859,594.147 185.531,603.003 184.093,603.898 182.805,604.641 179.081,607.054 176.739,608.575 174.276,610.347 173.51,611.114 174.276,610.347 176.739,608.575 179.081,607.054 182.805,604.641 184.093,603.898 185.531,603.003 199.859,594.147 203.838,591.446 204.556,590.97 205.344,590.358 211.241,586.336 222.899,577.261 235.097,568.366 242.538,566.25 250.232,564.107 259.326,569.053 263.456,571.363 266.205,573.969 L266.508,573.598 Q266.443,573.394 266.381,573.186 265.355,569.904 264.467,566.064 262.457,557.166 263.361,553.502 264.081,550.536 270.854,546.871 276.887,543.451 276.278,541.641 274.595,536.793 266.466,529.622 L258.692,523.436 Q246.457,533.371 235.293,542.656 223.617,552.477 213.14,561.579 195.513,577.32 189.079,582.652 181.54,588.911 175.368,592.551 173.319,593.805 171.421,594.738 173.319,593.805 175.368,592.551 181.54,588.911 189.079,582.652 195.513,577.32 213.14,561.579 223.617,552.477 235.293,542.656 L229.092,535.204 Q228.232,534.27 223.088,529.689 217.48,524.729 216.022,523.771 M252.551,582.757 Q251.244,581.614 247.226,581.426 244.182,581.284 235.538,586.951 232.766,588.808 229.422,591.23 215.635,601.222 213.277,601.462 215.635,601.222 229.422,591.23 232.766,588.808 235.538,586.951 244.182,581.284 247.226,581.426 251.244,581.614 252.551,582.757 253.858,583.9 258.055,585.856 253.858,583.9 252.551,582.757 M248.556,597.029 Q250.43,594.542 250.276,593.026 250.233,592.605 247.914,590.714 250.233,592.605 250.276,593.026 250.43,594.542 248.556,597.029 246.539,599.786 244.434,599 238.287,600.623 237.842,596.245 237.774,595.571 237.833,595.31 238.034,594.779 239.159,592.453 238.034,594.779 237.833,595.31 237.774,595.571 237.842,596.245 238.287,600.623 244.434,599 246.539,599.786 248.556,597.029 M235.265,651.291 Q234.953,652.139 234.418,652.993 232.964,655.437 232.022,656.214 232.964,655.437 234.418,652.993 234.953,652.139 235.265,651.291 236.402,649.084 236.219,647.281 L235.677,645.294 236.219,647.281 Q236.402,649.084 235.265,651.291 M273.945,618.355 Q276.077,618.138 278.801,616.756 281.753,615.365 285.364,612.687 290.514,608.785 291.62,606.437 292.05,605.651 291.988,605.038 291.92,604.365 290.005,602.262 288.174,600.151 287.475,599.967 288.174,600.151 290.005,602.262 291.92,604.365 291.988,605.038 292.05,605.651 291.62,606.437 290.514,608.785 285.364,612.687 281.753,615.365 278.801,616.756 276.077,618.138 273.945,618.355 270.661,618.688 268.232,616.553 264.395,613.114 264.126,612.972 264.395,613.114 268.232,616.553 270.661,618.688 273.945,618.355 M293.553,620.447 Q293.484,619.773 292.363,618.781 293.484,619.773 293.553,620.447 293.664,621.541 293.337,622.51 293.01,623.479 292.245,624.323 290.631,626.018 288.189,626.266 287.263,626.36 285.249,625.799 283.32,625.229 282.055,624.507 283.32,625.229 285.249,625.799 287.263,626.36 288.189,626.266 290.631,626.018 292.245,624.323 293.01,623.479 293.337,622.51 293.664,621.541 293.553,620.447 M256.222,654.097 Q259.901,653.468 263.664,652.83 259.901,653.468 256.222,654.097 246.188,656.647 237.069,652.298 246.188,656.647 256.222,654.097 M191.057,554.378 Q186.731,550.309 180.345,548.576 174.043,546.834 168.731,548.139 174.043,546.834 180.345,548.576 186.731,550.309 191.057,554.378Z" test="Avatar Lady" stroke-width="1.693"/>
      <path id="Layer1_0_1_STROKES" stroke="#009EFF" stroke-width="1.693" stroke-linejoin="round" stroke-linecap="round" fill="none" d="M281.861,568.977 Q280.449,565.122 283.41,563.29 286.279,561.383 289.048,560.166 M256.656,519.304 Q256.832,518.521 256.789,518.1 256.703,517.258 253.378,512.151 249.453,506.17 248.828,505.042 246.531,500.852 241.957,500.211 237.283,500.26 235.606,499.664 236.071,500.893 236.49,505.019 L236.938,511.099 Q236.694,511.208 234.773,510.723 232.684,510.255 231.757,510.349 228.474,510.682 226.688,510.693 222.427,510.615 217.712,511.094 L214.184,511.538 M216.022,523.771 Q217.48,524.729 223.088,529.689 228.232,534.27 229.092,535.204 M235.606,499.664 Q235.594,499.581 235.514,499.589 L235.488,499.336 Q235.587,499.495 235.606,499.664Z M213.763,511.58 Q213.746,511.412 213.83,511.403 214.008,511.55 214.184,511.538 L213.763,511.58 Q204.332,512.538 198.835,513.692 187.765,516.092 179.224,520.787 171.021,525.448 163.654,532.491 160.863,535.128 158.214,537.978 158.174,538.022 158.139,538.07 157.909,538.308 157.676,538.543 153.666,543.013 150.002,547 143.716,556.463 141.539,565.191 139.355,573.835 139.386,583.359 M139.286,586.56 Q141.98,586.606 145.261,586.761 150.651,587.064 158.43,590.783 158.832,590.996 164.018,593.874 164.067,593.886 164.106,593.907 165.862,594.896 168.164,596.175 M258.055,585.856 Q253.858,583.9 252.551,582.757 251.244,581.614 247.226,581.426 244.182,581.284 235.542,586.994 232.766,588.808 229.422,591.23 215.635,601.222 213.277,601.462 M264.126,612.972 Q264.395,613.114 268.232,616.553 270.661,618.688 273.945,618.355 276.077,618.138 278.848,616.793 281.753,615.365 285.364,612.687 290.514,608.785 291.662,606.433 292.05,605.651 291.988,605.038 291.92,604.365 290.005,602.262 288.174,600.151 287.475,599.967 M299.784,581.278 Q304.17,585.937 306.699,593.251 309.956,602.703 307.45,610.699 307.304,611.156 307.123,611.668 305.476,616.407 300.93,626.078 300.259,627.5 299.528,629.027 293.979,640.565 292.767,646.217 291.689,651.516 290.297,661.27 288.953,668.978 286.363,671.112 282.124,674.605 280.499,675.365 276.99,676.828 270.707,676.105 267.784,675.806 257.843,673.413 254.58,672.597 251.681,672.209 L251.597,672.218 M251.377,674.239 Q246.263,678.331 239.793,687.495 236.998,691.439 234.752,695.238 L234.676,695.331 234.458,695.693 Q233.535,697.332 232.702,698.934 230.609,702.896 229.152,706.695 225.981,714.844 220.653,732.739 218.071,741.298 214.101,754.926 L214.063,754.972 Q214.064,755.042 214.034,755.103 214.014,755.255 213.98,755.406 213.816,755.903 213.657,756.417 213.252,757.876 212.811,759.396 210.784,766.237 207.971,777.071 205.49,785.319 202.246,789.392 M201.911,790.276 Q200.005,794.128 191.844,805.079 186.017,812.939 183.765,816.831 183.055,818.093 182.703,818.938 M282.055,624.507 Q283.32,625.229 285.249,625.799 287.263,626.36 288.189,626.266 290.631,626.018 292.245,624.323 293.01,623.479 293.337,622.51 293.664,621.541 293.553,620.447 293.484,619.773 292.363,618.781 M251.597,672.218 Q247.881,671.711 244.763,671.934 236.621,673.016 233.169,673.366 227.527,673.939 221.394,672.18 217.746,671.444 212.479,669.002 202.029,664.108 192.441,655.129 182.972,646.263 176.12,635.562 M174.408,636.714 Q174.628,643.071 172.411,658.098 170.775,669.521 171.195,677.958 171.269,679.529 171.418,680.998 171.726,684.029 173.888,698.611 176.025,719.661 174.277,727.58 173.115,732.887 171.338,738.852 170.343,743.292 170.959,749.354 171.302,752.73 172.49,756.897 L172.495,756.939 Q173.586,760.755 175.379,765.238 179.048,774.563 179.535,779.363 179.792,781.889 179.114,784.425 178.741,785.781 178.22,786.515 M179.784,787.674 Q180.016,789.59 180.108,793.383 180.113,793.529 180.138,793.678 180.265,798.86 180.172,807.413 L180.176,807.455 Q180.144,810.86 180.069,814.782 M230.124,708.723 L230.106,713.574 Q230.191,714.416 231.123,717.724 232.054,721.032 232.14,721.874 232.225,722.716 233.53,728.028 234.751,733.349 234.836,734.191 235.555,741.263 228.292,771.945 220.945,802.635 221.586,808.95 222.21,815.097 232.951,828.723 241.347,839.354 251.653,849.537 259.117,856.86 278.271,892.175 278.382,893.27 279.081,893.454 279.688,893.563 279.712,892.965 M194.641,849.371 Q196.865,850.336 208.897,859.918 221.781,870.349 222.029,872.791 222.337,875.822 244.606,889.044 266.875,902.265 267.217,905.633 267.32,906.643 267.648,906.525 267.976,906.406 267.993,906.575 L268.607,905.917 M191.057,554.378 Q186.731,550.309 180.345,548.576 174.043,546.834 168.731,548.139 M139.286,586.56 Q139.203,586.578 139.117,586.577 139.03,586.575 138.949,586.594 134.854,586.508 132.157,586.73 124.899,587.297 119.875,589.764 113.64,592.864 112.933,593.446 111.756,594.417 112.079,596.766 112.504,599.275 113.947,600.915 114.343,601.313 115.073,601.949 115.165,602.021 115.258,602.1 L115.305,602.138 M119.365,597.302 Q125.644,596.445 137.379,597.94 137.551,597.961 137.724,597.99 M115.305,602.138 Q117.587,604.128 122.767,608.185 129.657,613.543 133.962,615.811 134.745,616.206 135.437,616.512 141.319,619.147 147.878,618.396 152.669,617.824 159.626,618.479 165.117,618.942 166.741,618.182 M170.964,626.26 L175.963,635.28 Q176.051,635.417 176.12,635.562 M130.788,621.833 Q128.326,625.23 127.688,643.244 127.414,651.439 127.358,653.401 127.372,656.887 127.765,660.76 128.244,665.476 131.249,675.804 134.17,686.141 134.769,692.035 134.831,692.648 134.897,693.298 135.114,696.107 135.109,699.571 135.112,705.25 134.527,712.689 134.117,717.904 133.42,723.987 130.985,745.247 132.729,762.423 133.011,765.202 135.189,774.083 137.316,782.459 137.31,784.076 M137.724,597.99 Q139.477,598.198 141.346,598.473 155.497,600.438 160.86,599.639 M152.877,638.305 L153.259,640.392 Q153.456,642.329 152.723,647.678 151.998,653.111 152.275,657.506 152.518,662.415 153.356,670.667 153.45,671.593 154.086,674.506 154.73,677.503 154.842,678.598 154.848,678.658 154.854,678.724 155.069,680.989 154.919,685.225 154.834,690.253 154.205,691.593 153.541,692.596 152.357,695.183 151.514,696.927 151.12,698.073 150.726,699.219 150.781,699.766 M156.881,734.706 Q156.95,735.379 156.64,742.386 156.247,749.402 156.349,750.412 156.537,752.265 158.575,757.247 159.56,759.762 160.084,761.219 160.571,762.662 160.613,763.08 160.904,765.942 159.001,771.495 157.29,776.433 155.786,778.372 M134.897,693.298 Q130.158,694.375 125.156,700.412 120.516,705.953 119.674,711.772 119.433,713.469 119.511,715.192 119.722,720.615 121.307,777.279 123.017,832.655 123.531,838.558 123.933,842.515 124.036,849.395 124.061,850.405 124.103,851.302 L124.111,851.387 Q124.317,854.266 124.872,855.946 125.362,857.427 165.353,905.258 205.039,952.609 205.465,955.969 M117.619,711.641 Q109.955,716.587 102.223,720.86 91.183,726.915 84.827,727.986 71.549,729.589 56.022,730.826 25.043,733.206 13.882,731.362 M178.22,786.515 Q177.737,787.202 177.105,787.266 M180.069,814.782 L180.074,814.824 Q180.059,816.774 180.017,818.871 179.79,830.072 179.316,845.058 179.245,848.553 189.939,864.225 203.114,883.389 206.096,889.296 226.453,929.763 228.781,948.497 M28.892,832.26 Q35.57,832.688 52.419,836.931 70.76,841.619 80.914,846.118 94.718,852.202 98.298,853.114 105.729,855.082 114.972,853.123 118.719,852.317 121.858,851.403" test="Avatar Lady"/>
      <path id="Layer1_0_2_STROKES" stroke="#FFBC00" stroke-width="1.693" stroke-linejoin="round" stroke-linecap="round" fill="none" d="M235.335,542.651 Q246.457,533.371 258.692,523.436 L266.466,529.622 Q274.595,536.793 276.278,541.641 276.887,543.451 270.854,546.871 264.081,550.536 263.361,553.502 262.457,557.166 264.467,566.064 265.355,569.904 266.381,573.186 266.443,573.394 266.508,573.598 M171.421,594.738 Q173.319,593.805 175.372,592.593 181.54,588.911 189.079,582.652 195.513,577.32 213.14,561.579 223.617,552.477 235.335,542.651 M266.247,573.965 Q266.516,574.185 266.762,574.423 266.629,574.018 266.508,573.598 M266.247,573.965 Q263.456,571.363 259.326,569.053 250.232,564.107 242.538,566.25 235.097,568.366 222.899,577.261 211.241,586.336 205.39,590.395 204.556,590.97 203.838,591.446 199.859,594.147 185.531,603.003 184.093,603.898 182.809,604.683 179.081,607.054 176.786,608.612 174.276,610.347 173.51,611.114" test="Avatar Lady"/>
      <path id="Layer1_0_3_STROKES" stroke="#FF0" stroke-width="1.693" stroke-linejoin="round" stroke-linecap="round" fill="none" d="M286.63,570.704 Q286.95,576.371 292.177,574.224 292.872,573.912 293.422,573.503 295.343,572.014 295.327,569.226 295.289,566.337 292.433,565.862 M239.159,592.453 Q238.034,594.779 237.833,595.31 237.774,595.571 237.842,596.245 238.287,600.623 244.434,599 246.539,599.786 248.556,597.029 250.43,594.542 250.276,593.026 250.233,592.605 247.914,590.714" test="Avatar Lady"/>
      <path id="Layer1_0_4_STROKES" stroke="#FFF" stroke-width="1.693" stroke-linejoin="round" stroke-linecap="round" fill="none" d="M235.677,645.294 L236.219,647.281 Q236.402,649.084 235.312,651.328 234.953,652.139 234.418,652.993 232.964,655.437 232.022,656.214 M237.069,652.298 Q246.188,656.647 256.222,654.097 259.901,653.468 263.664,652.83" test="Avatar Lady"/>
    </g>
  </g>
</svg>