<?xml version="1.0" encoding="utf-8"?>
<svg id="EdithAnim13" image-rendering="inherit" baseProfile="basic" version="1.1" x="0px" y="0px" width="800" height="600" xmlns="http://www.w3.org/2000/svg" xmlns:xlink="http://www.w3.org/1999/xlink">
  <g id="22_Avatarf148r1" overflow="visible">
    <g id="Avatar-Manf0r1">
      <g id="Tailf0r1">
        <path id="Layer5_0_1_STROKES" stroke="#009EFF" stroke-width="2.515" stroke-linejoin="round" stroke-linecap="round" fill="none" d="M533.154,657.116 Q531.88,638.638 531.176,620.149 530.545,602.222 524.717,585.291 518.311,566.85 500.473,558.464 478.797,548.361 475.663,570.966 475.206,574.26 477.359,577.149 482.453,584.093 489.692,588.537 497.258,585.773 502.949,590.99 509.802,597.323 512.819,606.822 519.871,629.237 525.489,651.839 527.076,658.164 526.013,664.581" test="Tail_2.3242325232423263e+312.3242325232423263e+31_2.3242325232423263e+312.3242325232423263e+31_2.3242325232423263e+312.3242325232423263e+31_2.3242325232423263e+312.3242325232423263e+31_2.3242325232423263e+312.3242325232423263e+31_2.3242325232423263e+312.3242325232423263e+31_2.3242325232423263e+312.3242325232423263e+31_2.3242325232423263e+312.3242325232423263e+31_2.3242325232423263e+312.3242325232423263e+31_2.3242325232423263e+312.3242325232423263e+31_2.3242325232423263e+312.3242325232423263e+31_2.3242325232423263e+312.3242325232423263e+31_2.3242325232423263e+312.3242325232423263e+31_2.3242325232423263e+312.3242325232423263e+31_2.3242325232423263e+312.3242325232423263e+31_2.3242325232423263e+312.3242325232423263e+31_2.3242325232423263e+312.3242325232423263e+31_2.3242325232423263e+312.3242325232423263e+31_2.3242325232423263e+312.3242325232423263e+31_2.3242325232423263e+312.3242325232423263e+31_2.3242325232423263e+312.3242325232423263e+31_1"/>
      </g>
      <path fill="#000" stroke="none" d="M491.216,563.042 Q486.738,552.988 481.071,551.526 479.791,551.16 464.253,555.639 445.791,560.94 424.86,561.123 403.107,561.306 382.268,554.542 365.541,547.687 363.622,547.87 357.041,550.795 355.213,552.074 351.923,554.268 352.197,557.01 352.38,559.021 352.563,570.08 353.202,580.774 356.31,584.43 359.692,588.36 376.052,596.86 389.58,603.715 403.381,609.565 412.43,613.404 426.048,630.496 432.995,639.179 440.855,649.324 442.5,650.604 440.855,652.432 439.575,653.803 439.758,653.803 L452.737,649.781 Q469.28,644.571 480.523,627.114 490.12,612.124 493.867,591.742 496.883,575.564 491.216,563.042 M497.066,182.727 L493.776,181.356 Q493.728,181.471 493.684,181.539 492.693,184.069 492.039,186.383 490.302,192.598 487.56,202.104 487.498,202.27 487.378,202.378 484.873,209.032 479.7,211.975 468.823,218.19 462.791,221.115 L466.904,230.255 Q466.447,236.927 468.549,281.622 468.626,283.271 468.641,284.821 470.346,319.745 470.56,330.338 470.558,330.407 470.56,330.429 470.591,332.879 470.56,333.994 470.194,348.344 472.845,371.011 473.211,374.21 478.238,371.559 483.265,368.817 482.899,366.898 482.716,365.527 484.818,366.258 486.555,366.898 487.012,367.355 487.103,367.446 493.867,344.048 L499.351,353.188 Q499.442,353.279 502.55,333.08 L508.034,335.365 Q508.14,335.473 507.394,325.768 507.434,325.746 507.394,325.677 506.352,310.756 503.373,272.847 501.565,249.683 500.174,234.459 498.452,214.11 497.523,207.953 497.263,206.158 497.066,205.577 497.263,206.158 497.523,207.953 498.452,214.11 500.174,234.459 L501.636,234.368 Q503.464,234.185 508.857,228.793 513.609,224.223 517.174,225.685 520.373,227.056 539.567,254.842 561.686,282.993 579.783,287.38 563.514,287.928 539.384,306.483 531.889,312.241 524.486,319.187 L523.389,320.193 Q524.691,334.085 528.965,381.613 L529.97,381.522 Q534.723,378.871 567.992,352.731 600.074,327.413 610.402,318.456 618.08,311.784 624.386,301.273 627.585,295.88 631.424,289.208 633.252,287.106 637.182,284.181 640.381,281.256 640.564,276.412 640.747,271.659 606.015,249.266 567.535,225.319 560.132,219.744 538.379,203.383 528.233,196.803 516.147,188.878 507.943,185.378 501.126,182.477 497.066,182.727 M432.081,177.152 Q434.823,176.695 437.382,176.238 441.495,176.238 441.221,181.265 449.081,180.351 452.189,181.265 455.479,182.27 455.388,185.835 L460.506,188.211 Q464.1,181.224 472.845,175.415 477.872,172.033 482.168,170.936 482.235,170.922 482.259,170.845 L481.071,163.533 Q482.442,163.442 479.791,160.243 474.947,154.667 471.017,149.823 465.716,143.242 447.253,137.301 431.075,132.091 422.118,132 393.418,131.726 373.676,139.769 361.428,144.796 350.46,159.968 348.358,162.844 346.622,165.452 341.721,173.221 340.224,179.071 L340.224,181.265 Q340.406,181.265 341.229,181.539 342.143,181.722 342.783,181.722 346.073,181.722 349.364,179.071 353.111,175.963 356.676,175.324 L356.676,177.609 360.789,177.609 Q363.531,177.06 368.74,175.506 372.762,174.227 373.585,174.41 L373.585,176.695 Q374.499,176.695 378.155,177.152 384.187,177.152 390.037,173.953 L394.607,173.953 394.607,175.781 401.919,175.781 Q413.983,172.125 414.715,172.125 415.903,172.125 417,172.947 418.279,173.861 420.656,173.953 420.656,176.238 420.199,177.152 L432.081,177.152Z" test="Avatar Man" stroke-width="1.828"/>
      <path id="Layer4_0_1_STROKES" stroke="#009EFF" stroke-width="1.828" stroke-linejoin="round" stroke-linecap="round" fill="none" d="M455.388,185.835 Q455.479,182.27 452.189,181.265 449.081,180.351 441.221,181.265 441.495,176.238 437.382,176.238 434.823,176.695 432.081,177.152 L420.199,177.152 Q420.656,176.238 420.656,173.953 418.279,173.861 417,172.947 415.903,172.125 414.715,172.125 413.983,172.125 401.919,175.781 L394.607,175.781 394.607,173.953 390.037,173.953 Q384.187,177.152 378.155,177.152 374.499,176.695 373.585,176.695 L373.585,174.41 Q372.762,174.227 368.74,175.506 363.531,177.06 360.789,177.609 L356.676,177.609 356.676,175.324 Q353.111,175.963 349.364,179.071 346.073,181.722 342.783,181.722 342.143,181.722 341.229,181.539 340.406,181.265 340.224,181.265 L340.224,179.071 Q341.721,173.221 346.667,165.498 348.358,162.844 350.46,159.968 361.428,144.796 373.676,139.769 393.418,131.726 422.118,132 431.075,132.091 447.253,137.301 465.716,143.242 471.017,149.823 474.947,154.667 479.791,160.243 482.442,163.442 481.071,163.533 M482.305,170.891 Q482.373,170.898 482.442,170.891 485.206,170.28 491.125,169.931 495.421,169.748 498.071,168.012 499.534,167.098 501.636,165.361 502.459,164.904 499.077,170.754 497.523,173.404 496.243,175.963 495.461,177.501 494.827,178.98 494.675,179.285 494.553,179.574 494.286,180.144 494.05,180.716 493.907,181.038 493.776,181.356 M497.066,182.727 Q501.126,182.477 507.988,185.423 516.147,188.878 528.233,196.803 538.379,203.383 560.132,219.744 567.535,225.319 606.015,249.266 640.747,271.659 640.564,276.412 640.381,281.256 637.182,284.181 633.252,287.106 631.424,289.208 627.585,295.88 624.386,301.273 618.08,311.784 610.402,318.456 600.074,327.413 567.992,352.731 534.723,378.871 529.97,381.522 529.497,381.831 529.056,382.116 523.737,385.567 521.378,386.915 517.174,389.382 513.518,388.834 M496.243,175.963 Q494.819,177.525 493.639,178.431 492.445,179.301 491.491,179.528 488.017,179.802 483.813,180.442 478.42,181.265 475.496,183.275 471.565,186.657 467.818,189.582 463.157,193.238 460.232,194.975 L458.221,195.98 Q458.662,191.947 460.552,188.257 M454.474,185.835 L455.388,185.835 M460.552,188.257 Q464.1,181.224 472.845,175.415 477.872,172.033 482.168,170.936 482.235,170.922 482.305,170.891 M493.776,181.356 Q493.728,181.471 493.684,181.585 492.693,184.069 492.039,186.383 490.302,192.598 487.56,202.104 487.498,202.27 487.423,202.424 484.873,209.032 479.7,211.975 468.823,218.19 462.791,221.115 M466.904,230.255 Q466.447,236.927 468.549,281.622 468.626,283.271 468.686,284.867 470.346,319.745 470.56,330.338 470.558,330.407 470.56,330.475 470.591,332.879 470.56,333.994 470.194,348.344 472.845,371.011 473.211,374.21 478.238,371.559 483.265,368.817 482.899,366.898 482.716,365.527 484.818,366.258 486.555,366.898 487.012,367.355 487.103,367.446 493.867,344.048 L499.351,353.188 Q499.442,353.279 502.55,333.08 L508.034,335.365 Q508.14,335.473 507.44,325.814 507.434,325.746 507.44,325.677 506.352,310.756 503.373,272.847 501.565,249.683 500.219,234.459 498.452,214.11 497.523,207.953 497.263,206.158 497.066,205.577 M523.389,320.238 L524.486,319.187 Q531.889,312.241 539.384,306.483 563.514,287.928 579.783,287.38 561.686,282.993 539.567,254.842 520.373,227.056 517.174,225.685 513.609,224.223 508.857,228.793 503.464,234.185 501.636,234.368 M398.811,227.056 Q399.877,227.228 402.101,227.33 404.639,227.422 408.682,227.422 415.811,227.33 418.919,227.056 424.677,226.508 425.408,226.325 429.064,225.319 429.43,222.486 M452.28,300.176 Q453.194,306.117 455.296,314.709 457.855,325.037 460.049,330.338 M350.369,297.434 Q350.369,297.525 350.735,306.848 351.009,313.52 353.568,317 354.391,319.436 355.625,320.832 359.368,325.013 366.912,328.784 377.332,334.085 387.386,334.451 L391.088,334.725 391.225,334.725 Q400.913,335.091 403.838,334.908 408.865,334.542 414.806,332.623 419.193,331.252 430.984,320.65 439.363,313.038 448.258,303.741 448.374,303.629 448.487,303.512 448.556,303.446 448.624,303.375 448.717,303.287 448.807,303.192 450.211,301.702 451.64,300.176 451.733,300.077 451.823,299.993 451.86,299.94 451.914,299.902 451.929,299.849 451.96,299.81 462.722,288.336 464.162,285.095 M391.042,335.365 Q390.219,339.295 388.666,348.252 387.112,356.021 384.644,360.043 M518.545,324.854 L523.389,320.238 M508.491,397.517 Q508.4,397.7 499.168,421.738 492.587,438.83 490.211,448.701 487.286,460.674 484.727,496.32 482.168,531.052 483.356,538.73 M430.71,444.497 Q431.258,446.507 433.086,447.056 433.634,447.239 435.097,447.239 437.473,447.239 438.387,446.142 438.753,445.776 440.215,442.394 M394.15,431.244 Q393.967,447.878 395.155,450.438 397.074,455.008 407.86,455.008 413.069,455.008 413.526,454.916 414.075,454.825 416.086,453.637 M395.521,487.455 Q394.607,490.197 394.607,493.213 394.607,498.24 398.628,498.514 401.279,498.605 409.688,498.423 M392.322,525.386 Q396.983,528.585 399,529.316 402.193,529.773 406.032,529.042 M439.027,654.351 Q432.172,657.55 413.801,661.023 395.246,664.496 375.504,666.233 358.412,667.787 318.196,666.964 287.851,666.416 270.394,665.319 256.958,664.496 229.721,661.663 222.957,660.932 217.93,662.029 214.366,662.851 213.269,662.12 M344.885,164.447 Q341.412,162.345 337.299,160.151 329.073,155.855 326.605,156.221 323.954,156.587 326.148,169.657 327.976,180.808 329.804,185.469 M334.374,197.808 Q335.105,200.824 337.025,206.857 338.121,211.701 335.288,213.803 331.798,216.404 328.479,218.83 L328.433,218.876 Q278.563,255.905 272.222,258.132 266.647,259.777 265.276,260.234 263.356,260.965 263.082,262.702 262.625,266.267 262.442,278.514 262.168,292.59 263.082,295.606 266.19,308.036 290.136,343.408 313.626,378.049 327.519,391.576 M336.202,229.341 Q339.035,230.803 344.702,231.535 344.933,231.569 345.159,231.58 350.508,232.346 355.853,232.083 359.235,231.9 367.095,230.621 373.493,229.524 375.504,229.798 M335.745,253.105 Q334.648,254.933 322.858,266.724 312.164,277.417 309.239,280.068 M358.047,274.493 Q362.16,274.493 366.73,273.579 L384.553,273.579 Q379.069,279.428 375.961,282.536 370.203,288.203 368.832,288.203 366.364,288.203 362.708,283.084 358.961,277.235 357.59,275.864 M299.185,275.041 Q300.753,278.83 304.121,283.633 304.157,283.686 304.212,283.724 312.592,295.741 332.089,314.069 341.147,322.574 347.81,329.058 363.229,344.015 365.907,348.161 M335.288,417.168 Q334.648,431.701 337.573,438.647 339.401,442.851 344.976,447.604 350.735,452.266 355.853,453.728 M350.826,461.954 Q350.917,464.787 350.46,476.487 350.278,487.455 351.74,490.288 353.477,493.67 357.772,496.503 361.977,499.245 364.536,498.971 M357.224,502.627 Q357.315,505.643 357.315,510.305 357.498,513.778 359.052,515.88 359.235,516.154 364.17,519.536 367.461,521.821 367.278,525.934 367.095,529.042 365.176,536.719 363.531,543.117 364.079,545.128 M341.686,558.381 Q320.298,554.451 294.432,550.429 242.791,542.477 221.129,542.477 206.688,542.477 190.236,539.461 177.257,537.085 174.515,537.907 169.763,539.37 165.284,546.865 160.805,554.451 161.171,560.666 161.445,564.87 162.908,576.021 164.096,585.984 162,589.914 M341.229,584.887 Q332.82,586.258 294.067,587.081 252.023,587.995 245.259,588.543 237.764,589.183 213.909,593.022 192.247,596.495 183.564,596.769 173.236,597.135 164.096,595.855 159.343,595.215 152.488,593.57 148.923,592.747 145.267,595.215 143.348,596.586 138.778,601.339 133.568,606.732 138.321,618.248 139.235,620.533 137.681,633.603 135.945,646.765 136.95,649.324 L140.149,657.093 Q143.714,666.873 145.176,677.201 M209.613,649.324 Q210.893,653.437 213.269,665.228 215.828,677.841 215.554,680.4" test="Avatar Man"/>
      <path id="Layer4_0_2_STROKES" stroke="#FF0" stroke-width="1.828" stroke-linejoin="round" stroke-linecap="round" fill="none" d="M401.919,230.621 Q401.005,235.739 402.833,239.486 404.752,243.417 408.317,243.417 409.779,243.417 411.79,242.32 414.075,241.04 414.715,239.304 M344.794,234.734 Q343.88,241.132 343.88,241.589 343.88,243.448 345.251,245.427 345.98,246.462 347.079,247.53 350.46,250.729 353.934,250.729 355.762,250.729 356.95,248.901 357.681,247.895 358.961,245.702" test="Avatar Man"/>
      <path id="Layer4_0_3_STROKES" stroke="#FFF" stroke-width="1.828" stroke-linejoin="round" stroke-linecap="round" fill="none" d="M433.909,280.434 Q440.032,282.901 440.307,287.014 440.325,287.274 440.352,287.563 440.347,287.632 440.352,287.7 L440.352,287.837 Q440.387,290.215 439.85,294.601 M425.683,296.886 Q431.706,295.449 435.371,291.036 436.599,289.559 437.565,287.746" test="Avatar Man"/>
      <path id="Layer4_0_4_STROKES" stroke="#F90" stroke-width="1.828" stroke-linejoin="round" stroke-linecap="round" fill="none" d="M363.622,547.87 Q365.541,547.687 382.268,554.542 403.107,561.306 424.86,561.123 445.791,560.94 464.253,555.639 479.791,551.16 481.071,551.526 486.738,552.988 491.216,563.042 496.883,575.564 493.867,591.742 490.12,612.124 480.523,627.114 469.28,644.571 452.737,649.781 L439.758,653.803 Q439.575,653.803 440.855,652.432 442.5,650.604 440.855,649.324 432.995,639.179 426.048,630.496 412.43,613.404 403.381,609.565 389.58,603.715 376.052,596.86 359.692,588.36 356.31,584.43 353.202,580.774 352.563,570.08 352.38,559.021 352.197,557.01 351.923,554.268 355.213,552.074 357.041,550.795 363.622,547.87Z" test="Avatar Man"/>
    </g>
    <g id="Avatar-Lady">
      <path fill="#000" stroke="none" d="M203.198,559.574 Q199.257,558.5 195.851,558.262 186.882,558.18 183.096,558.029 176.908,557.781 170.547,554.936 166.717,553.58 161.398,550.129 150.852,543.232 141.865,532.05 132.991,521.009 127.183,508.337 L125.199,509.367 Q124.46,516.275 119.753,532.181 116.228,544.279 115.385,553.466 115.224,555.176 115.159,556.787 115.026,560.111 115.121,576.21 114.196,599.297 111.089,607.59 109.016,613.149 106.179,619.326 104.42,623.973 104.154,630.622 104.005,634.325 104.652,638.967 L104.648,639.059 Q105.242,643.352 106.491,648.475 109.024,659.121 108.813,664.385 108.702,667.156 107.579,669.793 106.968,671.202 106.294,671.869 L107.804,673.41 Q107.761,675.517 107.279,679.586 107.26,679.791 107.265,679.955 106.605,685.577 105.191,694.765 L105.188,694.857 Q104.63,698.533 103.946,702.762 L107.629,705.5 Q110.66,701.684 118.168,694.082 128.675,683.496 131.327,679.625 L131.826,678.72 Q135.96,674.815 139.909,666.279 144.616,654.997 147.86,647.913 148.571,646.337 149.187,644.821 149.483,644.291 149.693,643.731 149.797,643.621 149.796,643.458 149.884,643.398 149.896,643.277 L149.896,643.277 Q156.33,629.155 160.436,620.297 168.949,601.768 173.629,593.446 175.789,589.563 178.661,585.6 179.808,583.996 181.011,582.365 L181.303,582.006 181.399,581.918 Q184.457,578.157 188.085,574.323 196.49,565.41 202.648,561.772 L203.198,559.574 M187.554,393.653 L187.448,380.144 186.986,380.125 Q176.643,379.711 170.522,380.113 158.184,381.006 148.228,384.77 138.642,388.548 129.595,395.031 126.172,397.452 122.823,400.124 122.82,400.168 122.727,400.213 122.489,400.436 122.155,400.652 117.178,404.871 112.45,409.698 104.352,417.884 100.658,426.986 96.967,435.995 95.537,446.298 L94.938,449.696 Q97.842,450.206 101.365,450.878 107.146,452.035 114.985,457.251 115.387,457.543 120.551,461.452 120.602,461.472 120.644,461.456 122.388,462.841 124.681,464.577 122.388,462.841 120.644,461.456 120.602,461.472 120.551,461.452 115.387,457.543 114.985,457.251 107.146,452.035 101.365,450.878 97.842,450.206 94.938,449.696 L91.491,461.86 Q93.354,462.355 95.332,462.939 110.33,467.24 116.251,467.2 110.33,467.24 95.332,462.939 93.354,462.355 91.491,461.86 91.308,461.803 91.125,461.753 78.667,458.333 71.746,458.294 L66.567,462.896 Q68.775,465.401 73.751,470.584 80.377,477.436 84.637,480.548 85.47,481.097 86.17,481.534 92.124,485.288 99.331,485.484 104.599,485.602 112.02,487.38 117.886,488.725 119.759,488.152 L125.514,489.955 123.083,497.535 127.102,508.056 Q127.175,508.218 127.183,508.337 132.991,521.009 141.865,532.05 150.852,543.232 161.398,550.129 166.717,553.58 170.547,554.936 176.908,557.781 183.096,558.029 186.882,558.18 195.851,558.262 199.257,558.5 203.198,559.574 L203.291,559.578 Q206.364,560.489 209.766,561.872 220.146,565.988 223.26,566.76 229.943,568.508 233.962,567.466 235.835,566.894 240.955,563.769 244.084,561.859 246.722,553.733 249.726,543.401 251.706,537.838 253.886,531.913 261.659,520.292 262.684,518.753 263.628,517.318 270.029,507.561 272.539,502.691 272.813,502.165 273.041,501.693 276.98,493.434 274.912,482.714 273.302,474.417 269.275,468.706 L263.547,459.319 Q262.935,459.679 262.135,459.91 256.155,461.428 256.68,455.251 L251.789,452.65 234.479,455.287 Q234.545,455.759 234.626,456.218 234.398,455.922 234.095,455.641 231.523,452.401 227.412,449.269 218.34,442.523 209.693,443.656 201.322,444.801 186.767,452.543 172.767,460.562 165.773,464.004 164.827,464.545 163.978,464.949 159.261,467.258 142.408,474.63 140.715,475.376 139.209,475.982 134.811,478.018 132.046,479.302 129.109,480.84 128.163,481.552 129.109,480.84 132.046,479.302 134.811,478.018 139.209,475.982 140.715,475.376 142.408,474.63 159.261,467.258 163.978,464.949 164.827,464.545 165.773,464.004 172.767,460.562 186.767,452.543 201.322,444.801 209.693,443.656 218.34,442.523 227.412,449.269 231.523,452.401 234.095,455.641 L234.479,455.287 Q234.44,455.056 234.405,454.821 233.8,451.116 233.43,446.827 232.626,436.898 234.166,433.075 235.4,429.979 243.287,427.058 250.335,424.288 249.955,422.237 248.88,416.737 241.194,407.734 L233.74,399.851 Q218.985,408.711 205.487,417.033 191.353,425.857 178.627,434.087 157.149,448.396 149.373,453.172 140.259,458.78 133.026,461.767 130.618,462.808 128.423,463.525 130.618,462.808 133.026,461.767 140.259,458.78 149.373,453.172 157.149,448.396 178.627,434.087 191.353,425.857 205.487,417.033 L199.928,408.023 Q199.141,406.882 194.284,401.137 188.984,394.912 187.554,393.653 M217.981,463.043 Q216.743,461.606 212.429,460.786 209.159,460.164 198.942,464.963 195.659,466.544 191.672,468.649 175.229,477.332 172.643,477.229 175.229,477.332 191.672,468.649 195.659,466.544 198.942,464.963 209.159,460.164 212.429,460.786 216.743,461.606 217.981,463.043 219.218,464.48 223.455,467.24 219.218,464.48 217.981,463.043 M211.467,477.859 Q213.876,475.458 213.943,473.796 213.961,473.334 211.745,470.933 213.961,473.334 213.943,473.796 213.876,475.458 211.467,477.859 208.863,480.53 206.554,480.437 199.813,480.167 200.005,475.365 200.035,474.626 200.138,474.353 200.437,473.81 202.011,471.468 200.437,473.81 200.138,474.353 200.035,474.626 200.005,475.365 199.813,480.167 206.554,480.437 208.863,480.53 211.467,477.859 M188.757,534.483 Q188.289,535.352 187.578,536.194 185.631,538.613 184.493,539.307 185.631,538.613 187.578,536.194 188.289,535.352 188.757,534.483 190.325,532.272 190.404,530.294 L190.124,528.063 190.404,530.294 Q190.325,532.272 188.757,534.483 M235.639,504.82 Q237.977,504.913 241.136,503.837 244.541,502.788 248.857,500.447 255.025,497.02 256.581,494.651 257.167,493.868 257.194,493.196 257.224,492.457 255.477,489.89 253.822,487.326 253.094,487.019 253.822,487.326 255.477,489.89 257.224,492.457 257.194,493.196 257.167,493.868 256.581,494.651 255.025,497.02 248.857,500.447 244.541,502.788 241.136,503.837 237.977,504.913 235.639,504.82 232.037,504.675 229.74,501.993 226.12,497.686 225.85,497.49 226.12,497.686 229.74,501.993 232.037,504.675 235.639,504.82 M256.517,510.096 Q256.547,509.357 255.487,508.112 256.547,509.357 256.517,510.096 256.469,511.297 255.967,512.294 255.464,513.291 254.508,514.086 252.502,515.67 249.823,515.563 248.808,515.522 246.717,514.606 244.718,513.693 243.463,512.718 244.718,513.693 246.717,514.606 248.808,515.522 249.823,515.563 252.502,515.67 254.508,514.086 255.464,513.291 255.967,512.294 256.469,511.297 256.517,510.096 M210.983,540.739 Q215.057,540.624 219.224,540.514 215.057,540.624 210.983,540.739 199.742,541.953 190.552,535.85 199.742,541.953 210.983,540.739 M155.858,422.907 Q151.806,417.843 145.168,414.987 138.622,412.134 132.678,412.729 138.622,412.134 145.168,414.987 151.806,417.843 155.858,422.907Z" test="Avatar Lady" stroke-width="1.848"/>
      <path id="Layer3_0_1_STROKES" stroke="#009EFF" stroke-width="1.848" stroke-linejoin="round" stroke-linecap="round" fill="none" d="M251.789,452.65 Q250.855,448.265 254.338,446.74 257.733,445.119 260.914,444.229 M232.174,395.07 Q232.484,394.25 232.503,393.789 232.54,392.865 229.729,386.833 226.405,379.762 225.903,378.447 224.063,373.563 219.217,372.167 214.156,371.501 212.435,370.6 212.749,372 212.567,376.525 L212.116,383.167 Q211.835,383.248 209.833,382.428 207.647,381.601 206.631,381.56 203.029,381.415 201.097,381.153 196.502,380.414 191.33,380.207 L187.448,380.144 M187.554,393.653 Q188.984,394.912 194.284,401.137 199.141,406.882 199.928,408.023 M212.435,370.6 Q212.435,370.508 212.346,370.504 L212.357,370.227 Q212.44,370.413 212.435,370.6Z M186.986,380.125 Q186.993,379.941 187.086,379.944 187.256,380.131 187.448,380.144 L186.986,380.125 Q176.643,379.711 170.522,380.113 158.184,381.006 148.228,384.77 138.642,388.548 129.595,395.031 126.172,397.452 122.87,400.126 122.82,400.168 122.774,400.215 122.489,400.436 122.201,400.654 117.178,404.871 112.45,409.698 104.352,417.884 100.658,426.986 96.967,435.995 95.537,446.298 M94.936,449.742 Q97.842,450.206 101.365,450.878 107.146,452.035 114.985,457.251 115.387,457.543 120.551,461.452 120.602,461.472 120.642,461.502 122.388,462.841 124.681,464.577 M223.455,467.24 Q219.218,464.48 217.981,463.043 216.743,461.606 212.429,460.786 209.159,460.164 198.94,465.009 195.659,466.544 191.672,468.649 175.229,477.332 172.643,477.229 M225.85,497.49 Q226.12,497.686 229.74,501.993 232.037,504.675 235.639,504.82 237.977,504.913 241.18,503.885 244.541,502.788 248.857,500.447 255.025,497.02 256.627,494.653 257.167,493.868 257.194,493.196 257.224,492.457 255.477,489.89 253.822,487.326 253.094,487.019 M269.275,468.706 Q273.302,474.417 274.912,482.714 276.98,493.434 273.041,501.693 272.813,502.165 272.539,502.691 270.029,507.561 263.628,517.318 262.684,518.753 261.659,520.292 253.886,531.913 251.706,537.838 249.726,543.401 246.722,553.733 244.084,561.859 240.955,563.769 235.835,566.894 233.962,567.466 229.943,568.508 223.26,566.76 220.146,565.988 209.766,561.872 206.364,560.489 203.289,559.624 L203.197,559.62 M202.648,561.772 Q196.49,565.41 188.085,574.323 184.457,578.157 181.445,581.919 L181.349,582.008 181.057,582.366 Q179.808,583.996 178.661,585.6 175.789,589.563 173.629,593.446 168.949,601.768 160.436,620.297 156.33,629.155 149.942,643.279 L149.894,643.323 Q149.884,643.398 149.842,643.46 149.797,643.621 149.737,643.779 149.483,644.291 149.233,644.823 148.571,646.337 147.86,647.913 144.616,654.997 139.909,666.279 135.96,674.815 131.826,678.72 M131.327,679.625 Q128.675,683.496 118.168,694.082 110.66,701.684 107.627,705.546 106.665,706.8 106.155,707.66 M243.463,512.718 Q244.718,513.693 246.717,514.606 248.808,515.522 249.823,515.563 252.502,515.67 254.508,514.086 255.464,513.291 255.967,512.294 256.469,511.297 256.517,510.096 256.547,509.357 255.487,508.112 M203.197,559.62 Q199.257,558.5 195.851,558.262 186.882,558.18 183.096,558.029 176.908,557.781 170.547,554.936 166.717,553.58 161.398,550.129 150.852,543.232 141.865,532.05 132.991,521.009 127.227,508.385 M125.199,509.367 Q124.46,516.275 119.753,532.181 116.228,544.279 115.385,553.466 115.224,555.176 115.159,556.787 115.026,560.111 115.121,576.21 114.196,599.297 111.089,607.59 109.016,613.149 106.179,619.326 104.42,623.973 104.154,630.622 104.005,634.325 104.65,639.013 L104.648,639.059 Q105.242,643.352 106.491,648.475 109.024,659.121 108.813,664.385 108.702,667.156 107.579,669.793 106.968,671.202 106.292,671.915 M107.804,673.41 Q107.761,675.517 107.278,679.632 107.26,679.791 107.265,679.955 106.605,685.577 105.189,694.811 L105.188,694.857 Q104.63,698.533 103.946,702.762 M174.368,595.788 L173.603,601.03 Q173.566,601.953 174.065,605.673 174.563,609.393 174.526,610.317 174.489,611.24 175.083,617.184 175.585,623.124 175.548,624.047 175.238,631.805 162.668,663.861 150.007,695.913 149.729,702.839 149.459,709.58 158.978,725.964 166.42,738.749 175.998,751.343 182.942,760.409 198.222,801.535 198.174,802.735 198.901,803.042 199.54,803.253 199.659,802.61 M114.383,742.399 Q116.64,743.785 128.175,755.994 140.501,769.253 140.394,771.931 140.261,775.256 162.305,792.974 184.35,810.691 184.202,814.385 184.158,815.494 184.531,815.416 184.904,815.339 184.897,815.523 L185.661,814.906 M155.858,422.907 Q151.806,417.843 145.168,414.987 138.622,412.134 132.678,412.729 M94.936,449.742 Q94.843,449.75 94.751,449.735 94.658,449.72 94.567,449.727 90.152,449.005 87.203,448.831 79.268,448.328 73.457,450.223 66.239,452.616 65.386,453.137 63.963,454.005 63.952,456.594 64.026,459.372 65.333,461.367 65.7,461.859 66.392,462.658 66.48,462.751 66.569,462.85 L66.613,462.898 M71.746,458.294 Q78.667,458.333 91.125,461.753 91.308,461.803 91.491,461.86 M66.613,462.898 Q68.775,465.401 73.751,470.584 80.377,477.436 84.683,480.549 85.47,481.097 86.17,481.534 92.124,485.288 99.331,485.484 104.599,485.602 112.02,487.38 117.886,488.725 119.759,488.152 M123.083,497.535 L127.102,508.056 Q127.175,508.218 127.227,508.385 M80.326,486.572 Q77.141,489.867 73.682,509.246 72.127,518.063 71.764,520.176 71.243,523.948 71.073,528.196 70.866,533.367 72.528,544.996 74.097,556.621 73.838,563.086 73.811,563.758 73.782,564.471 73.585,567.542 73.047,571.287 72.177,577.427 70.401,585.379 69.156,590.955 67.467,597.425 61.566,620.036 60.811,638.875 60.689,641.923 61.679,651.86 62.69,661.242 62.435,662.99 M91.491,461.86 Q93.354,462.355 95.332,462.939 110.33,467.24 116.251,467.2 M101.676,507.777 L101.768,510.093 Q101.683,512.218 100.068,517.888 98.45,523.65 98.073,528.445 97.581,533.79 97.218,542.841 97.178,543.856 97.418,547.103 97.654,550.443 97.606,551.643 97.603,551.71 97.6,551.782 97.484,554.264 96.671,558.821 95.806,564.244 94.919,565.596 94.047,566.578 92.37,569.193 91.19,570.95 90.588,572.128 89.985,573.306 89.961,573.907 M91.185,612.62 Q91.156,613.359 89.744,620.887 88.24,628.412 88.196,629.52 88.114,631.552 89.551,637.252 90.23,640.122 90.572,641.779 90.877,643.413 90.858,643.871 90.732,647.011 87.821,652.722 85.213,657.797 83.288,659.663 M73.782,564.471 Q68.492,564.907 62.157,570.665 56.288,575.943 54.484,582.105 53.962,583.903 53.781,585.777 53.175,591.673 46.179,653.181 39.514,713.315 39.163,719.776 38.989,724.117 38.043,731.571 37.914,732.667 37.821,733.643 L37.817,733.736 Q37.597,736.881 37.939,738.782 38.242,740.459 74.125,798.32 109.754,855.617 109.698,859.315 M52.282,581.647 Q43.235,585.817 34.218,589.248 21.351,594.097 14.314,594.278 -.288,593.97 -17.266,592.92 -51.125,590.731 -62.909,587.022 M106.292,671.915 Q105.664,672.584 104.971,672.556 M103.946,702.762 L103.944,702.808 Q103.628,704.914 103.26,707.175 101.293,719.25 98.477,735.38 97.863,739.148 107.016,757.737 118.314,780.481 120.63,787.326 136.419,834.208 136.055,854.821 M-62.192,698.418 Q-55.037,699.907 -37.472,707.086 -18.364,714.974 -8.076,721.398 5.913,730.099 9.643,731.636 17.375,734.905 27.67,734.208 31.844,733.913 35.379,733.407" test="Avatar Lady"/>
      <path id="Layer3_0_2_STROKES" stroke="#FFBC00" stroke-width="1.848" stroke-linejoin="round" stroke-linecap="round" fill="none" d="M205.533,417.035 Q218.985,408.711 233.74,399.851 L241.194,407.734 Q248.88,416.737 249.955,422.237 250.335,424.288 243.287,427.058 235.4,429.979 234.166,433.075 232.626,436.898 233.43,446.827 233.8,451.116 234.405,454.821 234.44,455.056 234.479,455.287 M128.423,463.525 Q130.618,462.808 133.024,461.813 140.259,458.78 149.373,453.172 157.149,448.396 178.627,434.087 191.353,425.857 205.533,417.035 M234.141,455.643 Q234.398,455.922 234.626,456.218 234.545,455.759 234.479,455.287 M234.141,455.643 Q231.523,452.401 227.412,449.269 218.34,442.523 209.693,443.656 201.322,444.801 186.767,452.543 172.767,460.562 165.818,464.052 164.827,464.545 163.978,464.949 159.261,467.258 142.408,474.63 140.715,475.376 139.207,476.028 134.811,478.018 132.09,479.35 129.109,480.84 128.163,481.552" test="Avatar Lady"/>
      <path id="Layer3_0_3_STROKES" stroke="#FF0" stroke-width="1.848" stroke-linejoin="round" stroke-linecap="round" fill="none" d="M256.68,455.251 Q256.155,461.428 262.135,459.91 262.935,459.679 263.593,459.321 265.899,458.007 266.31,454.989 266.713,451.861 263.699,450.907 M202.011,471.468 Q200.437,473.81 200.138,474.353 200.035,474.626 200.005,475.365 199.813,480.167 206.554,480.437 208.863,480.53 211.467,477.859 213.876,475.458 213.943,473.796 213.961,473.334 211.745,470.933" test="Avatar Lady"/>
      <path id="Layer3_0_4_STROKES" stroke="#FFF" stroke-width="1.848" stroke-linejoin="round" stroke-linecap="round" fill="none" d="M190.124,528.063 L190.404,530.294 Q190.325,532.272 188.801,534.531 188.289,535.352 187.578,536.194 185.631,538.613 184.493,539.307 M190.552,535.85 Q199.742,541.953 210.983,540.739 215.057,540.624 219.224,540.514" test="Avatar Lady"/>
    </g>
    <g id="Censoredf12r1">
      <path fill="#000" stroke="none" d="M-18.85,403.85 L-18.85,630.4 829.1,630.4 829.1,403.85 -18.85,403.85Z" test="Censored"/>
      <path id="Layer1_0_1_STROKES" stroke="#F00" stroke-width="1" stroke-linejoin="round" stroke-linecap="round" fill="none" d="M65.35,402.2 L732,402.2 732,562 65.35,562 65.35,402.2Z" test="Censored"/>
    </g>
  </g>
</svg>