<?xml version="1.0" encoding="utf-8"?>
<svg id="EdithAnim13" image-rendering="inherit" baseProfile="basic" version="1.1" x="0px" y="0px" width="800" height="600" xmlns="http://www.w3.org/2000/svg" xmlns:xlink="http://www.w3.org/1999/xlink">
  <g id="22_Avatarf150r1" overflow="visible">
    <g id="Avatar-Manf0r1">
      <g id="Tailf0r1">
        <path id="Layer6_0_1_STROKES" stroke="#009EFF" stroke-width="2.523" stroke-linejoin="round" stroke-linecap="round" fill="none" d="M528.911,659.087 Q527.641,640.551 526.942,622.003 526.316,604.019 520.477,587.032 514.059,568.53 496.168,560.111 474.427,549.967 471.275,572.642 470.815,575.946 472.974,578.845 478.08,585.814 485.341,590.275 492.931,587.504 498.639,592.74 505.51,599.097 508.533,608.626 515.598,631.115 521.224,653.791 522.814,660.136 521.744,666.573" test="Tail_2.3242325232423263e+312.3242325232423263e+31_2.3242325232423263e+312.3242325232423263e+31_2.3242325232423263e+312.3242325232423263e+31_2.3242325232423263e+312.3242325232423263e+31_2.3242325232423263e+312.3242325232423263e+31_2.3242325232423263e+312.3242325232423263e+31_2.3242325232423263e+312.3242325232423263e+31_2.3242325232423263e+312.3242325232423263e+31_2.3242325232423263e+312.3242325232423263e+31_2.3242325232423263e+312.3242325232423263e+31_2.3242325232423263e+312.3242325232423263e+31_2.3242325232423263e+312.3242325232423263e+31_2.3242325232423263e+312.3242325232423263e+31_2.3242325232423263e+312.3242325232423263e+31_2.3242325232423263e+312.3242325232423263e+31_2.3242325232423263e+312.3242325232423263e+31_2.3242325232423263e+312.3242325232423263e+31_2.3242325232423263e+312.3242325232423263e+31_2.3242325232423263e+312.3242325232423263e+31_2.3242325232423263e+312.3242325232423263e+31_2.3242325232423263e+312.3242325232423263e+31_2323"/>
      </g>
      <path fill="#000" stroke="none" d="M486.904,564.757 Q482.411,554.67 476.726,553.203 475.442,552.836 459.853,557.33 441.329,562.648 420.33,562.832 398.505,563.015 377.598,556.229 360.817,549.352 358.891,549.535 352.289,552.469 350.455,553.753 347.153,555.954 347.429,558.705 347.612,560.722 347.795,571.818 348.437,582.547 351.555,586.215 354.948,590.158 371.362,598.686 384.934,605.564 398.78,611.433 407.859,615.284 421.522,632.432 428.491,641.143 436.378,651.322 438.028,652.606 436.378,654.44 435.094,655.815 435.277,655.815 L448.299,651.781 Q464.896,646.554 476.175,629.039 485.804,614 489.564,593.551 492.59,577.32 486.904,564.757 M492.773,183.193 L489.472,181.818 Q489.424,181.934 489.38,182.001 488.386,184.54 487.73,186.861 485.987,193.097 483.236,202.634 483.174,202.801 483.053,202.909 480.54,209.585 475.35,212.537 464.438,218.773 458.386,221.707 L462.512,230.877 Q462.054,237.572 464.163,282.413 464.24,284.067 464.254,285.622 465.965,320.661 466.18,331.289 466.178,331.359 466.18,331.381 466.211,333.838 466.18,334.957 465.813,349.354 468.472,372.095 468.839,375.305 473.883,372.646 478.926,369.895 478.559,367.969 478.376,366.593 480.485,367.327 482.227,367.969 482.686,368.427 482.778,368.519 489.564,345.044 L495.066,354.214 Q495.157,354.306 498.275,334.04 L503.777,336.333 Q503.883,336.441 503.135,326.704 503.175,326.682 503.135,326.612 502.09,311.643 499.1,273.61 497.286,250.369 495.891,235.096 494.163,214.68 493.232,208.503 492.971,206.702 492.773,206.118 492.971,206.702 493.232,208.503 494.163,214.68 495.891,235.096 L497.358,235.004 Q499.192,234.821 504.602,229.41 509.371,224.825 512.947,226.292 516.157,227.668 535.414,255.545 557.605,283.788 575.762,288.19 559.439,288.74 535.23,307.355 527.711,313.132 520.283,320.102 L519.183,321.11 Q520.488,335.049 524.776,382.733 L525.785,382.641 Q530.553,379.982 563.932,353.756 596.119,328.355 606.481,319.368 614.184,312.674 620.511,302.128 623.721,296.718 627.572,290.024 629.406,287.915 633.349,284.981 636.559,282.046 636.742,277.186 636.925,272.418 602.079,249.951 563.474,225.926 556.046,220.332 534.221,203.918 524.043,197.315 511.916,189.365 503.685,185.853 496.846,182.942 492.773,183.193 M427.574,177.6 Q430.325,177.141 432.893,176.683 437.019,176.683 436.744,181.726 444.631,180.809 447.748,181.726 451.049,182.735 450.958,186.311 L456.093,188.695 Q459.699,181.686 468.472,175.857 473.516,172.465 477.826,171.364 477.894,171.35 477.918,171.272 L476.726,163.936 Q478.101,163.845 475.442,160.635 470.582,155.042 466.638,150.181 461.32,143.579 442.797,137.619 426.566,132.392 417.579,132.3 388.785,132.025 368.978,140.094 356.69,145.138 345.686,160.36 343.577,163.245 341.835,165.862 336.918,173.657 335.416,179.525 L335.416,181.726 Q335.599,181.726 336.424,182.001 337.342,182.185 337.983,182.185 341.285,182.185 344.586,179.525 348.345,176.408 351.922,175.766 L351.922,178.058 356.048,178.058 Q358.799,177.508 364.026,175.949 368.061,174.665 368.886,174.849 L368.886,177.141 Q369.803,177.141 373.471,177.6 379.523,177.6 385.392,174.39 L389.977,174.39 389.977,176.224 397.313,176.224 Q409.418,172.556 410.151,172.556 411.343,172.556 412.444,173.382 413.728,174.299 416.112,174.39 416.112,176.683 415.653,177.6 L427.574,177.6Z" test="Avatar Man" stroke-width="1.834"/>
      <path id="Layer5_0_1_STROKES" stroke="#009EFF" stroke-width="1.834" stroke-linejoin="round" stroke-linecap="round" fill="none" d="M450.958,186.311 Q451.049,182.735 447.748,181.726 444.631,180.809 436.744,181.726 437.019,176.683 432.893,176.683 430.325,177.141 427.574,177.6 L415.653,177.6 Q416.112,176.683 416.112,174.39 413.728,174.299 412.444,173.382 411.343,172.556 410.151,172.556 409.418,172.556 397.313,176.224 L389.977,176.224 389.977,174.39 385.392,174.39 Q379.523,177.6 373.471,177.6 369.803,177.141 368.886,177.141 L368.886,174.849 Q368.061,174.665 364.026,175.949 358.799,177.508 356.048,178.058 L351.922,178.058 351.922,175.766 Q348.345,176.408 344.586,179.525 341.285,182.185 337.983,182.185 337.342,182.185 336.424,182.001 335.599,181.726 335.416,181.726 L335.416,179.525 Q336.918,173.657 341.881,165.908 343.577,163.245 345.686,160.36 356.69,145.138 368.978,140.094 388.785,132.025 417.579,132.3 426.566,132.392 442.797,137.619 461.32,143.579 466.638,150.181 470.582,155.042 475.442,160.635 478.101,163.845 476.726,163.936 M477.963,171.318 Q478.031,171.326 478.101,171.318 480.874,170.706 486.813,170.355 491.122,170.172 493.782,168.43 495.249,167.513 497.358,165.77 498.183,165.312 494.79,171.181 493.232,173.84 491.948,176.408 491.163,177.95 490.526,179.434 490.374,179.74 490.251,180.03 489.983,180.602 489.747,181.176 489.604,181.499 489.472,181.818 M492.773,183.193 Q496.846,182.942 503.731,185.899 511.916,189.365 524.043,197.315 534.221,203.918 556.046,220.332 563.474,225.926 602.079,249.951 636.925,272.418 636.742,277.186 636.559,282.046 633.349,284.981 629.406,287.915 627.572,290.024 623.721,296.718 620.511,302.128 614.184,312.674 606.481,319.368 596.119,328.355 563.932,353.756 530.553,379.982 525.785,382.641 525.31,382.951 524.868,383.237 519.531,386.7 517.165,388.051 512.947,390.527 509.279,389.977 M491.948,176.408 Q490.519,177.974 489.334,178.884 488.137,179.757 487.179,179.984 483.695,180.259 479.477,180.901 474.066,181.726 471.132,183.744 467.189,187.137 463.429,190.071 458.752,193.739 455.818,195.481 L453.801,196.49 Q454.242,192.444 456.139,188.741 M450.041,186.311 L450.958,186.311 M456.139,188.741 Q459.699,181.686 468.472,175.857 473.516,172.465 477.826,171.364 477.894,171.35 477.963,171.318 M489.472,181.818 Q489.424,181.934 489.38,182.047 488.386,184.54 487.73,186.861 485.987,193.097 483.236,202.634 483.174,202.801 483.099,202.955 480.54,209.585 475.35,212.537 464.438,218.773 458.386,221.707 M462.512,230.877 Q462.054,237.572 464.163,282.413 464.24,284.067 464.3,285.668 465.965,320.661 466.18,331.289 466.178,331.359 466.18,331.427 466.211,333.838 466.18,334.957 465.813,349.354 468.472,372.095 468.839,375.305 473.883,372.646 478.926,369.895 478.559,367.969 478.376,366.593 480.485,367.327 482.227,367.969 482.686,368.427 482.778,368.519 489.564,345.044 L495.066,354.214 Q495.157,354.306 498.275,334.04 L503.777,336.333 Q503.883,336.441 503.181,326.75 503.175,326.682 503.181,326.612 502.09,311.643 499.1,273.61 497.286,250.369 495.937,235.096 494.163,214.68 493.232,208.503 492.971,206.702 492.773,206.118 M519.183,321.156 L520.283,320.102 Q527.711,313.132 535.23,307.355 559.439,288.74 575.762,288.19 557.605,283.788 535.414,255.545 516.157,227.668 512.947,226.292 509.371,224.825 504.602,229.41 499.192,234.821 497.358,235.004 M394.196,227.668 Q395.265,227.84 397.497,227.943 400.042,228.035 404.099,228.035 411.252,227.943 414.369,227.668 420.147,227.118 420.88,226.934 424.548,225.926 424.915,223.083 M447.84,301.028 Q448.757,306.989 450.866,315.608 453.434,325.97 455.635,331.289 M345.595,298.277 Q345.595,298.369 345.961,307.722 346.236,314.416 348.804,318.91 349.629,320.351 350.867,321.752 354.623,325.947 362.192,329.73 372.646,335.049 382.733,335.415 L386.447,335.691 386.584,335.691 Q396.305,336.057 399.239,335.874 404.282,335.507 410.243,333.582 414.645,332.206 426.474,321.569 434.881,313.932 443.805,304.604 443.921,304.492 444.034,304.375 444.104,304.309 444.172,304.237 444.266,304.149 444.355,304.054 445.764,302.559 447.198,301.028 447.292,300.929 447.381,300.845 447.418,300.791 447.473,300.753 447.488,300.7 447.519,300.661 458.316,289.149 459.761,285.898 M386.401,336.333 Q385.576,340.276 384.017,349.262 382.458,357.057 379.982,361.092 M514.323,325.787 L519.183,321.156 M504.236,398.689 Q504.144,398.872 494.882,422.989 488.28,440.137 485.895,450.04 482.961,462.053 480.393,497.816 477.826,532.662 479.018,540.365 M426.199,445.822 Q426.749,447.84 428.583,448.39 429.133,448.573 430.6,448.573 432.985,448.573 433.902,447.473 434.268,447.106 435.736,443.713 M389.519,432.526 Q389.335,449.215 390.528,451.783 392.453,456.368 403.274,456.368 408.501,456.368 408.959,456.276 409.509,456.184 411.527,454.992 M390.894,488.921 Q389.977,491.672 389.977,494.698 389.977,499.742 394.012,500.017 396.671,500.109 405.108,499.925 M387.685,526.977 Q392.362,530.186 395.388,530.92 397.588,531.378 401.44,530.645 M434.544,656.366 Q427.666,659.575 409.234,663.06 390.619,666.544 370.812,668.286 353.664,669.845 313.316,669.02 282.872,668.47 265.357,667.37 251.877,666.544 224.55,663.702 217.765,662.968 212.721,664.068 209.145,664.894 208.044,664.16 M340.093,164.853 Q336.608,162.744 332.481,160.544 324.228,156.234 321.753,156.6 319.093,156.967 321.294,170.08 323.128,181.268 324.962,185.944 M329.547,198.324 Q330.281,201.35 332.206,207.402 333.307,212.262 330.464,214.371 326.963,216.981 323.632,219.415 L323.587,219.461 Q273.553,256.612 267.191,258.846 261.597,260.497 260.222,260.955 258.296,261.689 258.021,263.431 257.563,267.007 257.379,279.295 257.104,293.417 258.021,296.443 261.139,308.914 285.164,344.402 308.731,379.156 322.67,392.728 M331.381,229.96 Q334.224,231.428 339.909,232.161 340.14,232.196 340.368,232.207 345.734,232.976 351.097,232.711 354.489,232.528 362.376,231.244 368.795,230.144 370.812,230.419 M330.922,253.802 Q329.822,255.636 317.993,267.466 307.264,278.195 304.329,280.854 M353.297,275.26 Q357.424,275.26 362.009,274.343 L379.89,274.343 Q374.388,280.212 371.27,283.33 365.493,289.015 364.118,289.015 361.642,289.015 357.974,283.88 354.214,278.011 352.839,276.636 M294.242,275.81 Q295.816,279.612 299.194,284.43 299.231,284.483 299.286,284.522 307.693,296.579 327.254,314.966 336.342,323.5 343.027,330.005 358.497,345.011 361.184,349.17 M330.464,418.404 Q329.822,432.984 332.756,439.953 334.59,444.172 340.184,448.94 345.961,453.617 351.097,455.084 M346.053,463.337 Q346.145,466.18 345.686,477.917 345.503,488.921 346.97,491.764 348.712,495.157 353.022,498 357.24,500.751 359.808,500.476 M352.472,504.143 Q352.564,507.17 352.564,511.846 352.747,515.331 354.306,517.44 354.489,517.715 359.441,521.108 362.742,523.4 362.559,527.527 362.376,530.645 360.45,538.348 358.799,544.767 359.35,546.784 M336.883,560.081 Q315.425,556.137 289.474,552.103 237.664,544.125 215.931,544.125 201.442,544.125 184.936,541.099 171.915,538.714 169.164,539.54 164.395,541.007 159.902,548.526 155.409,556.137 155.775,562.373 156.051,566.591 157.518,577.779 158.71,587.774 157.609,591.717 M336.424,586.674 Q327.988,588.049 289.107,588.874 246.925,589.791 240.139,590.342 232.62,590.983 208.686,594.835 186.953,598.319 178.242,598.594 167.88,598.961 158.71,597.678 153.941,597.036 147.064,595.385 143.488,594.56 139.82,597.036 137.894,598.411 133.309,603.18 128.082,608.59 132.85,620.144 133.767,622.437 132.209,635.55 130.466,648.754 131.475,651.322 L134.684,659.117 Q138.261,668.928 139.728,679.291 M204.376,651.322 Q205.66,655.449 208.044,667.278 210.612,679.932 210.337,682.5" test="Avatar Man"/>
      <path id="Layer5_0_2_STROKES" stroke="#FF0" stroke-width="1.834" stroke-linejoin="round" stroke-linecap="round" fill="none" d="M397.313,231.244 Q396.396,236.379 398.23,240.139 400.156,244.082 403.732,244.082 405.2,244.082 407.217,242.982 409.509,241.698 410.151,239.956 M340.001,235.371 Q339.084,241.79 339.084,242.248 339.084,244.113 340.459,246.1 341.191,247.138 342.293,248.209 345.686,251.418 349.171,251.418 351.005,251.418 352.197,249.584 352.931,248.576 354.214,246.375" test="Avatar Man"/>
      <path id="Layer5_0_3_STROKES" stroke="#FFF" stroke-width="1.834" stroke-linejoin="round" stroke-linecap="round" fill="none" d="M429.408,281.221 Q435.552,283.697 435.827,287.823 435.846,288.084 435.873,288.373 435.868,288.443 435.873,288.511 L435.873,288.648 Q435.908,291.035 435.369,295.434 M421.155,297.727 Q427.198,296.285 430.876,291.858 432.108,290.376 433.076,288.557" test="Avatar Man"/>
      <path id="Layer5_0_4_STROKES" stroke="#F90" stroke-width="1.834" stroke-linejoin="round" stroke-linecap="round" fill="none" d="M358.891,549.535 Q360.817,549.352 377.598,556.229 398.505,563.015 420.33,562.832 441.329,562.648 459.853,557.33 475.442,552.836 476.726,553.203 482.411,554.67 486.904,564.757 492.59,577.32 489.564,593.551 485.804,614 476.175,629.039 464.896,646.554 448.299,651.781 L435.277,655.815 Q435.094,655.815 436.378,654.44 438.028,652.606 436.378,651.322 428.491,641.143 421.522,632.432 407.859,615.284 398.78,611.433 384.934,605.564 371.362,598.686 354.948,590.158 351.555,586.215 348.437,582.547 347.795,571.818 347.612,560.722 347.429,558.705 347.153,555.954 350.455,553.753 352.289,552.469 358.891,549.535Z" test="Avatar Man"/>
    </g>
    <g id="Avatar-Lady">
      <path fill="#000" stroke="none" d="M201.462,565.038 Q197.513,563.944 194.099,563.691 185.104,563.571 181.308,563.403 175.104,563.128 168.736,560.248 164.901,558.872 159.581,555.39 149.033,548.428 140.068,537.175 131.215,526.065 125.444,513.333 L123.45,514.358 Q122.679,521.282 117.891,537.214 114.306,549.332 113.421,558.541 113.253,560.256 113.181,561.871 113.034,565.205 113.061,581.35 112.036,604.5 108.885,612.803 106.783,618.37 103.911,624.552 102.128,629.205 101.833,635.872 101.668,639.585 102.297,644.243 L102.293,644.336 Q102.87,648.644 104.101,653.787 106.597,664.474 106.363,669.752 106.24,672.53 105.103,675.171 104.484,676.581 103.805,677.247 L105.313,678.799 Q105.261,680.912 104.761,684.99 104.741,685.195 104.745,685.361 104.059,690.996 102.603,700.204 L102.599,700.296 Q102.024,703.98 101.32,708.219 L105.002,710.98 Q108.058,707.166 115.62,699.574 126.201,689.002 128.878,685.13 L129.382,684.225 Q133.544,680.327 137.541,671.782 142.309,660.488 145.592,653.397 146.311,651.82 146.935,650.302 147.235,649.771 147.447,649.211 147.552,649.101 147.552,648.937 147.64,648.878 147.653,648.756 L147.653,648.756 Q154.165,634.621 158.321,625.755 166.936,607.209 171.665,598.882 173.847,594.997 176.744,591.035 177.901,589.431 179.114,587.8 L179.408,587.442 179.505,587.353 Q182.589,583.595 186.243,579.765 194.709,570.862 200.9,567.239 L201.462,565.038 M186.472,398.573 L186.422,385.025 185.959,385.004 Q175.588,384.545 169.448,384.923 157.071,385.766 147.07,389.499 137.441,393.248 128.34,399.711 124.897,402.124 121.528,404.79 121.524,404.835 121.431,404.879 121.191,405.102 120.855,405.317 115.846,409.527 111.084,414.348 102.929,422.523 99.185,431.636 95.446,440.655 93.968,450.981 L93.353,454.387 Q96.264,454.911 99.794,455.6 105.587,456.784 113.426,462.049 113.828,462.343 118.991,466.285 119.042,466.306 119.083,466.289 120.827,467.686 123.119,469.437 120.827,467.686 119.083,466.289 119.042,466.306 118.991,466.285 113.828,462.343 113.426,462.049 105.587,456.784 99.794,455.6 96.264,454.911 93.353,454.387 L89.845,466.572 Q91.711,467.076 93.693,467.67 108.715,472.046 114.654,472.031 108.715,472.046 93.693,467.67 91.711,467.076 89.845,466.572 89.662,466.513 89.478,466.463 76,462.98 70.059,462.912 L64.845,467.506 Q67.049,470.027 72.018,475.246 78.634,482.145 82.893,485.284 83.725,485.839 84.426,486.28 90.382,490.069 97.608,490.296 102.891,490.438 110.326,492.251 116.203,493.625 118.084,493.059 L123.848,494.891 121.378,502.483 125.363,513.051 Q125.436,513.213 125.444,513.333 131.215,526.065 140.068,537.175 149.033,548.428 159.581,555.39 164.901,558.872 168.736,560.248 175.104,563.128 181.308,563.403 185.104,563.571 194.099,563.691 197.513,563.944 201.462,565.038 L201.554,565.042 Q204.633,565.968 208.039,567.37 218.431,571.541 221.551,572.329 228.245,574.11 232.28,573.082 234.161,572.516 239.309,569.404 242.455,567.502 245.135,559.363 248.191,549.014 250.2,543.443 252.412,537.511 260.256,525.889 261.291,524.35 262.243,522.915 268.704,513.157 271.241,508.283 271.519,507.757 271.749,507.285 275.734,499.018 273.705,488.258 272.126,479.931 268.112,474.186 L262.406,464.748 Q261.791,465.107 260.989,465.335 254.984,466.832 255.537,460.64 L250.643,458.011 233.272,460.582 Q233.336,461.056 233.416,461.516 233.188,461.219 232.885,460.936 230.32,457.675 226.211,454.517 217.141,447.714 208.463,448.814 200.064,449.927 185.434,457.629 171.36,465.612 164.332,469.035 163.38,469.573 162.527,469.975 157.787,472.271 140.855,479.593 139.154,480.334 137.641,480.935 133.222,482.959 130.443,484.235 127.492,485.765 126.54,486.474 127.492,485.765 130.443,484.235 133.222,482.959 137.641,480.935 139.154,480.334 140.855,479.593 157.787,472.271 162.527,469.975 163.38,469.573 164.332,469.035 171.36,465.612 185.434,457.629 200.064,449.927 208.463,448.814 217.141,447.714 226.211,454.517 230.32,457.675 232.885,460.936 L233.272,460.582 Q233.234,460.35 233.2,460.115 232.609,456.396 232.256,452.094 231.491,442.133 233.052,438.305 234.303,435.206 242.224,432.309 249.305,429.561 248.932,427.503 247.877,421.982 240.207,412.921 L232.764,404.984 Q217.929,413.807 204.358,422.097 190.146,430.887 177.348,439.086 155.748,453.346 147.93,458.102 138.766,463.689 131.5,466.653 129.081,467.687 126.876,468.397 129.081,467.687 131.5,466.653 138.766,463.689 147.93,458.102 155.748,453.346 177.348,439.086 190.146,430.887 204.358,422.097 L198.821,413.037 Q198.037,411.889 193.19,406.108 187.9,399.843 186.472,398.573 M216.694,468.291 Q215.459,466.845 211.135,466.004 207.859,465.367 197.592,470.136 194.293,471.708 190.285,473.802 173.759,482.441 171.166,482.327 173.759,482.441 190.285,473.802 194.293,471.708 197.592,470.136 207.859,465.367 211.135,466.004 215.459,466.845 216.694,468.291 217.929,469.738 222.166,472.523 217.929,469.738 216.694,468.291 M210.099,483.123 Q212.525,480.725 212.598,479.058 212.619,478.595 210.406,476.178 212.619,478.595 212.598,479.058 212.525,480.725 210.099,483.123 207.476,485.79 205.161,485.688 198.401,485.388 198.614,480.573 198.647,479.832 198.752,479.559 199.054,479.015 200.642,476.673 199.054,479.015 198.752,479.559 198.647,479.832 198.614,480.573 198.401,485.388 205.161,485.688 207.476,485.79 210.099,483.123 M187.084,539.814 Q186.611,540.684 185.895,541.524 183.932,543.942 182.788,544.634 183.932,543.942 185.895,541.524 186.611,540.684 187.084,539.814 188.666,537.603 188.754,535.62 L188.482,533.381 188.754,535.62 Q188.666,537.603 187.084,539.814 M234.227,510.263 Q236.571,510.366 239.743,509.301 243.163,508.263 247.501,505.933 253.701,502.522 255.272,500.153 255.863,499.371 255.893,498.696 255.926,497.956 254.184,495.373 252.536,492.795 251.807,492.485 252.536,492.795 254.184,495.373 255.926,497.956 255.893,498.696 255.863,499.371 255.272,500.153 253.701,502.522 247.501,505.933 243.163,508.263 239.743,509.301 236.571,510.366 234.227,510.263 230.615,510.103 228.322,507.403 224.71,503.068 224.441,502.871 224.71,503.068 228.322,507.403 230.615,510.103 234.227,510.263 M255.143,515.642 Q255.175,514.901 254.118,513.648 255.175,514.901 255.143,515.642 255.089,516.846 254.581,517.844 254.073,518.842 253.11,519.635 251.092,521.215 248.406,521.096 247.388,521.051 245.295,520.124 243.295,519.2 242.039,518.217 243.295,519.2 245.295,520.124 247.388,521.051 248.406,521.096 251.092,521.215 253.11,519.635 254.073,518.842 254.581,517.844 255.089,516.846 255.143,515.642 M209.348,546.181 Q213.435,546.084 217.614,545.99 213.435,546.084 209.348,546.181 198.07,547.352 188.879,541.192 198.07,547.352 209.348,546.181 M154.561,427.778 Q150.519,422.682 143.874,419.79 137.321,416.902 131.358,417.473 137.321,416.902 143.874,419.79 150.519,422.682 154.561,427.778Z" test="Avatar Lady" stroke-width="1.854"/>
      <path id="Layer4_0_1_STROKES" stroke="#009EFF" stroke-width="1.854" stroke-linejoin="round" stroke-linecap="round" fill="none" d="M250.643,458.011 Q249.724,453.61 253.224,452.095 256.636,450.483 259.829,449.604 M231.214,400.183 Q231.529,399.362 231.549,398.899 231.59,397.973 228.797,391.911 225.493,384.806 224.995,383.485 223.171,378.58 218.316,377.159 213.244,376.47 211.521,375.559 211.83,376.965 211.629,381.502 L211.149,388.161 Q210.867,388.241 208.863,387.41 206.673,386.571 205.654,386.526 202.043,386.366 200.107,386.095 195.501,385.334 190.316,385.105 L186.422,385.025 M186.472,398.573 Q187.9,399.843 193.19,406.108 198.037,411.889 198.821,413.037 M211.521,375.559 Q211.522,375.466 211.433,375.462 L211.445,375.185 Q211.528,375.372 211.521,375.559Z M185.959,385.004 Q185.968,384.819 186.06,384.823 186.23,385.011 186.422,385.025 L185.959,385.004 Q175.588,384.545 169.448,384.923 157.071,385.766 147.07,389.499 137.441,393.248 128.34,399.711 124.897,402.124 121.574,404.792 121.524,404.835 121.478,404.881 121.191,405.102 120.901,405.319 115.846,409.527 111.084,414.348 102.929,422.523 99.185,431.636 95.446,440.655 93.968,450.981 M93.351,454.433 Q96.264,454.911 99.794,455.6 105.587,456.784 113.426,462.049 113.828,462.343 118.991,466.285 119.042,466.306 119.081,466.335 120.827,467.686 123.119,469.437 M222.166,472.523 Q217.929,469.738 216.694,468.291 215.459,466.845 211.135,466.004 207.859,465.367 197.59,470.183 194.293,471.708 190.285,473.802 173.759,482.441 171.166,482.327 M224.441,502.871 Q224.71,503.068 228.322,507.403 230.615,510.103 234.227,510.263 236.571,510.366 239.788,509.349 243.163,508.263 247.501,505.933 253.701,502.522 255.318,500.155 255.863,499.371 255.893,498.696 255.926,497.956 254.184,495.373 252.536,492.795 251.807,492.485 M268.112,474.186 Q272.126,479.931 273.705,488.258 275.734,499.018 271.749,507.285 271.519,507.757 271.241,508.283 268.704,513.157 262.243,522.915 261.291,524.35 260.256,525.889 252.412,537.511 250.2,543.443 248.191,549.014 245.135,559.363 242.455,567.502 239.309,569.404 234.161,572.516 232.28,573.082 228.245,574.11 221.551,572.329 218.431,571.541 208.039,567.37 204.633,565.968 201.552,565.088 L201.46,565.084 M200.9,567.239 Q194.709,570.862 186.243,579.765 182.589,583.595 179.551,587.356 L179.455,587.444 179.161,587.802 Q177.901,589.431 176.744,591.035 173.847,594.997 171.665,598.882 166.936,607.209 158.321,625.755 154.165,634.621 147.699,648.758 L147.651,648.803 Q147.64,648.878 147.599,648.939 147.552,649.101 147.492,649.259 147.235,649.771 146.981,650.304 146.311,651.82 145.592,653.397 142.309,660.488 137.541,671.782 133.544,680.327 129.382,684.225 M128.878,685.13 Q126.201,689.002 115.62,699.574 108.058,707.166 105,711.026 104.029,712.28 103.515,713.141 M242.039,518.217 Q243.295,519.2 245.295,520.124 247.388,521.051 248.406,521.096 251.092,521.215 253.11,519.635 254.073,518.842 254.581,517.844 255.089,516.846 255.143,515.642 255.175,514.901 254.118,513.648 M201.46,565.084 Q197.513,563.944 194.099,563.691 185.104,563.571 181.308,563.403 175.104,563.128 168.736,560.248 164.901,558.872 159.581,555.39 149.033,548.428 140.068,537.175 131.215,526.065 125.488,513.381 M123.45,514.358 Q122.679,521.282 117.891,537.214 114.306,549.332 113.421,558.541 113.253,560.256 113.181,561.871 113.034,565.205 113.061,581.35 112.036,604.5 108.885,612.803 106.783,618.37 103.911,624.552 102.128,629.205 101.833,635.872 101.668,639.585 102.295,644.289 L102.293,644.336 Q102.87,648.644 104.101,653.787 106.597,664.474 106.363,669.752 106.24,672.53 105.103,675.171 104.484,676.581 103.803,677.294 M105.313,678.799 Q105.261,680.912 104.759,685.037 104.741,685.195 104.745,685.361 104.059,690.996 102.601,700.25 L102.599,700.296 Q102.024,703.98 101.32,708.219 M172.396,601.234 L171.607,606.488 Q171.566,607.414 172.05,611.147 172.534,614.879 172.493,615.805 172.452,616.731 173.023,622.695 173.501,628.654 173.46,629.58 173.116,637.358 160.376,669.453 147.543,701.544 147.235,708.489 146.936,715.249 156.412,731.72 163.823,744.573 173.375,757.243 180.301,766.364 195.451,807.673 195.397,808.877 196.126,809.188 196.766,809.402 196.887,808.758 M111.62,748.014 Q113.877,749.413 125.395,761.707 137.7,775.055 137.581,777.741 137.434,781.074 159.467,798.936 181.501,816.798 181.337,820.502 181.287,821.613 181.662,821.537 182.036,821.461 182.028,821.646 L182.798,821.03 M154.561,427.778 Q150.519,422.682 143.874,419.79 137.321,416.902 131.358,417.473 M93.351,454.433 Q93.258,454.44 93.166,454.425 93.072,454.41 92.981,454.417 88.556,453.674 85.599,453.487 77.644,452.949 71.808,454.825 64.559,457.195 63.701,457.713 62.271,458.578 62.249,461.175 62.311,463.961 63.614,465.967 63.98,466.462 64.67,467.266 64.759,467.359 64.847,467.46 L64.891,467.508 M70.059,462.912 Q76,462.98 89.478,466.463 89.662,466.513 89.845,466.572 M64.891,467.508 Q67.049,470.027 72.018,475.246 78.634,482.145 82.939,485.286 83.725,485.839 84.426,486.28 90.382,490.069 97.608,490.296 102.891,490.438 110.326,492.251 116.203,493.625 118.084,493.059 M121.378,502.483 L125.363,513.051 Q125.436,513.213 125.488,513.381 M78.543,491.308 Q75.336,494.599 71.785,514.019 70.188,522.855 69.816,524.972 69.277,528.752 69.089,533.012 68.859,538.198 70.477,549.867 72.001,561.532 71.714,568.014 71.684,568.688 71.653,569.403 71.442,572.482 70.886,576.235 69.988,582.389 68.173,590.357 66.902,595.944 65.18,602.425 59.167,625.076 58.331,643.966 58.196,647.022 59.146,656.992 60.121,666.406 59.858,668.157 M89.845,466.572 Q91.711,467.076 93.693,467.67 108.715,472.046 114.654,472.031 M99.865,512.664 L99.948,514.987 Q99.854,517.117 98.211,522.797 96.563,528.569 96.165,533.376 95.649,538.734 95.248,547.809 95.202,548.828 95.429,552.085 95.652,555.435 95.599,556.639 95.596,556.706 95.593,556.778 95.466,559.266 94.631,563.833 93.741,569.268 92.846,570.62 91.967,571.602 90.274,574.217 89.083,575.974 88.474,577.153 87.865,578.332 87.839,578.934 M88.903,617.764 Q88.87,618.505 87.423,626.049 85.883,633.589 85.833,634.7 85.743,636.737 87.16,642.459 87.828,645.341 88.165,647.004 88.463,648.644 88.443,649.104 88.304,652.252 85.36,657.967 82.723,663.046 80.785,664.909 M71.653,569.403 Q66.346,569.818 59.968,575.566 54.06,580.834 52.224,587.007 51.694,588.807 51.505,590.686 50.872,596.596 43.596,658.252 36.659,718.531 36.279,725.009 36.086,729.361 35.106,736.833 34.972,737.931 34.875,738.91 L34.871,739.003 Q34.637,742.156 34.971,744.064 35.268,745.747 71.011,803.927 106.501,861.538 106.429,865.246 M50.018,586.538 Q40.928,590.682 31.87,594.084 18.946,598.894 11.888,599.045 -2.755,598.675 -19.777,597.55 -53.725,595.212 -65.526,591.442 M103.803,677.294 Q103.17,677.961 102.476,677.931 M101.32,708.219 L101.318,708.265 Q100.993,710.376 100.614,712.641 98.59,724.743 95.698,740.908 95.066,744.684 104.167,763.365 115.402,786.222 117.696,793.097 133.332,840.18 132.881,860.85 M-65.277,703.162 Q-58.108,704.686 -40.523,711.959 -21.393,719.95 -11.103,726.437 2.889,735.221 6.625,736.778 14.364,740.09 24.692,739.434 28.88,739.155 32.427,738.663" test="Avatar Lady"/>
      <path id="Layer4_0_2_STROKES" stroke="#FFBC00" stroke-width="1.854" stroke-linejoin="round" stroke-linecap="round" fill="none" d="M204.404,422.099 Q217.929,413.807 232.764,404.984 L240.207,412.921 Q247.877,421.982 248.932,427.503 249.305,429.561 242.224,432.309 234.303,435.206 233.052,438.305 231.491,442.133 232.256,452.094 232.609,456.396 233.2,460.115 233.234,460.35 233.272,460.582 M126.876,468.397 Q129.081,467.687 131.498,466.699 138.766,463.689 147.93,458.102 155.748,453.346 177.348,439.086 190.146,430.887 204.404,422.099 M232.931,460.938 Q233.188,461.219 233.416,461.516 233.336,461.056 233.272,460.582 M232.931,460.938 Q230.32,457.675 226.211,454.517 217.141,447.714 208.463,448.814 200.064,449.927 185.434,457.629 171.36,465.612 164.376,469.083 163.38,469.573 162.527,469.975 157.787,472.271 140.855,479.593 139.154,480.334 137.639,480.981 133.222,482.959 130.487,484.283 127.492,485.765 126.54,486.474" test="Avatar Lady"/>
      <path id="Layer4_0_3_STROKES" stroke="#FF0" stroke-width="1.854" stroke-linejoin="round" stroke-linecap="round" fill="none" d="M255.537,460.64 Q254.984,466.832 260.989,465.335 261.791,465.107 262.453,464.75 264.771,463.443 265.196,460.418 265.613,457.282 262.594,456.314 M200.642,476.673 Q199.054,479.015 198.752,479.559 198.647,479.832 198.614,480.573 198.401,485.388 205.161,485.688 207.476,485.79 210.099,483.123 212.525,480.725 212.598,479.058 212.619,478.595 210.406,476.178" test="Avatar Lady"/>
      <path id="Layer4_0_4_STROKES" stroke="#FFF" stroke-width="1.854" stroke-linejoin="round" stroke-linecap="round" fill="none" d="M188.482,533.381 L188.754,535.62 Q188.666,537.603 187.128,539.862 186.611,540.684 185.895,541.524 183.932,543.942 182.788,544.634 M188.879,541.192 Q198.07,547.352 209.348,546.181 213.435,546.084 217.614,545.99" test="Avatar Lady"/>
    </g>
    <g id="Censoredf0r1">
      <path fill="#000" stroke="none" d="M-18.85,403.35 L-18.85,629.9 829.1,629.9 829.1,403.35 -18.85,403.35Z" test="Censored"/>
      <path id="Layer2_0_1_STROKES" stroke="#F00" stroke-width="1" stroke-linejoin="round" stroke-linecap="round" fill="none" d="M440.05,433.95 Q451.45,433.7 458.4,442.45 467.15,453.5 468.45,478.35 469.85,504.55 462.7,519.75 456.1,533.8 444.2,534.55 432.35,535.35 426.85,525.8 420.75,515.3 419.8,488.15 418.8,461.5 424.1,448.25 428.75,436.6 438.75,434.25 M495.6,540.1 Q496.6,530.75 496.9,517.65 497.2,502.55 496.25,489.8 496.1,487.9 494.45,475.35 493.3,466.4 490.7,448.25 489,434.25 490.35,432.65 491.55,431.25 495.9,430.8 500.65,430.2 505.5,431.3 518.75,434.35 520.4,446.7 522.1,459.55 514.25,468.5 507.95,475.7 498.4,478.15 503.3,481.95 507.4,487.15 509.05,489.15 511.9,493.4 515.55,498.8 519.6,507.2 527.8,523.85 530,538.55 M571.35,432.65 Q570.6,432.65 561.5,433.35 554.45,433.85 553.1,433.3 551.6,432.65 553.4,483.6 553.45,484.9 553.55,486.15 555.9,485.8 562.05,485.75 568.9,485.7 569.75,485.55 M576.25,536.2 Q574.4,536.65 565.05,535.95 555.95,535.2 555.7,534.9 555.25,534.3 553.55,486.15 553.25,486.15 553.1,486.2 M604.7,431.3 Q618.7,430 628.4,436.15 644.15,446.1 645.2,473.8 646.25,502.4 642.45,513.4 640.25,519.95 633.1,524.1 628.35,526.9 618.55,528.8 610.8,530.3 606.65,530.3 604.3,530.3 604.1,480.45 603.85,429.95 604.7,431.3Z M184.5,451.6 Q183.2,445.85 177.55,440.35 171.75,434.7 166.2,434.25 158.55,433.6 151.55,437.15 141.9,442.05 136.2,454.2 129.55,468.45 127.75,482.8 125.85,498.1 129.9,511.35 132.45,519.85 135.75,524.45 140.25,530.65 146.6,530.65 153.75,530.65 160.75,526.7 167.95,522.75 170.85,516.9 M245.95,432.3 Q246.45,433.4 229.65,434.45 212.85,435.5 212.85,435.2 212.8,434.8 212.85,482.95 213.9,483.4 230.8,482.6 247.75,481.85 248.25,481 M277.65,536.55 Q277.8,536.7 277,484.45 276.2,432.15 276.35,432.3 276.6,432.65 327,528.05 323.8,429.05 322.4,429.7 M393.3,453.2 Q391.25,446.4 386,440.35 379.85,433.15 373.45,433.1 367,433 361.25,439.3 355.5,445.55 356.05,452.3 356.35,455.55 357.2,457.8 360.1,463.35 364.75,467.85 365.75,468.75 366.65,469.9 368.9,472.7 371.6,476.35 387.7,497.65 388.75,507.75 390,519.95 383.9,526.65 379.05,531.95 373.4,531.6 364.85,531.1 360.6,528.1 351.95,521.95 352.15,505.15 M212.85,482.95 Q212.65,483 212.5,507.4 212.4,531.7 212.25,533.25 212.1,534.85 229.65,535.1 247.15,535.35 248.25,533.25" test="Censored"/>
      <path id="Layer1_0_1_STROKES" stroke="#F00" stroke-width="1" stroke-linejoin="round" stroke-linecap="round" fill="none" d="M65.35,401.7 L732,401.7 732,561.5 65.35,561.5 65.35,401.7Z" test="Censored"/>
    </g>
  </g>
</svg>