<?xml version="1.0" encoding="utf-8"?>
<svg id="EdithAnim13" image-rendering="inherit" baseProfile="basic" version="1.1" x="0px" y="0px" width="800" height="600" xmlns="http://www.w3.org/2000/svg" xmlns:xlink="http://www.w3.org/1999/xlink">
  <g id="22_Avatarf155r1" overflow="visible">
    <g id="Avatar-Manf0r1">
      <g id="Tailf0r1">
        <path id="Layer6_0_1_STROKES" stroke="#009EFF" stroke-width="2.539" stroke-linejoin="round" stroke-linecap="round" fill="none" d="M519.669,663.353 Q518.391,644.698 517.688,626.032 517.059,607.933 511.183,590.837 504.724,572.217 486.72,563.744 464.84,553.534 461.667,576.354 461.204,579.679 463.376,582.597 468.515,589.61 475.822,594.099 483.461,591.312 489.205,596.581 496.12,602.978 499.161,612.569 506.271,635.202 511.932,658.023 513.532,664.408 512.456,670.886" test="Tail_2.3242325232423263e+312.3242325232423263e+31_2.3242325232423263e+312.3242325232423263e+31_2.3242325232423263e+312.3242325232423263e+31_2.3242325232423263e+312.3242325232423263e+31_2.3242325232423263e+312.3242325232423263e+31_2.3242325232423263e+312.3242325232423263e+31_2.3242325232423263e+312.3242325232423263e+31_2.3242325232423263e+312.3242325232423263e+31_2.3242325232423263e+312.3242325232423263e+31_2.3242325232423263e+312.3242325232423263e+31_2.3242325232423263e+312.3242325232423263e+31_2.3242325232423263e+312.3242325232423263e+31_2.3242325232423263e+312.3242325232423263e+31_2.3242325232423263e+312.3242325232423263e+31_2.3242325232423263e+312.3242325232423263e+31_2.3242325232423263e+312.3242325232423263e+31_2.3242325232423263e+312.3242325232423263e+31_2.3242325232423263e+312.3242325232423263e+31_2.3242325232423263e+312.3242325232423263e+31_2.3242325232423263e+312.3242325232423263e+31_2.3242325232423263e+312.3242325232423263e+31_2.3242325232423263e+312.3242325232423263e+31_1"/>
      </g>
      <path fill="#000" stroke="none" d="M477.38,568.437 Q472.857,558.284 467.135,556.807 465.842,556.438 450.151,560.961 431.507,566.314 410.37,566.499 388.403,566.683 367.358,559.853 350.467,552.93 348.529,553.115 341.883,556.069 340.037,557.361 336.715,559.576 336.992,562.345 337.176,564.376 337.361,575.544 338.007,586.343 341.145,590.035 344.56,594.004 361.082,602.588 374.742,609.51 388.679,615.418 397.817,619.294 411.57,636.554 418.585,645.323 426.523,655.568 428.184,656.86 426.523,658.706 425.23,660.091 425.415,660.091 L438.522,656.03 Q455.228,650.768 466.581,633.139 476.272,618.002 480.057,597.419 483.102,581.082 477.38,568.437 M483.287,184.377 L479.964,182.992 Q479.916,183.108 479.872,183.177 478.871,185.731 478.211,188.069 476.457,194.345 473.688,203.944 473.625,204.112 473.503,204.221 470.974,210.94 465.75,213.913 454.766,220.189 448.674,223.143 L452.828,232.373 Q452.367,239.11 454.489,284.245 454.567,285.91 454.582,287.476 456.304,322.743 456.52,333.441 456.518,333.511 456.52,333.533 456.551,336.007 456.52,337.133 456.151,351.624 458.828,374.515 459.197,377.745 464.273,375.068 469.35,372.299 468.981,370.361 468.796,368.977 470.919,369.715 472.673,370.361 473.134,370.823 473.226,370.915 480.057,347.286 L485.595,356.516 Q485.687,356.608 488.825,336.21 L494.363,338.518 Q494.47,338.626 493.717,328.826 493.758,328.804 493.717,328.734 492.665,313.667 489.656,275.384 487.83,251.992 486.425,236.618 484.686,216.069 483.749,209.851 483.486,208.039 483.287,207.452 483.486,208.039 483.749,209.851 484.686,216.069 486.425,236.618 L487.902,236.526 Q489.748,236.341 495.194,230.896 499.993,226.281 503.593,227.758 506.823,229.142 526.207,257.201 548.543,285.63 566.819,290.06 550.389,290.614 526.022,309.351 518.453,315.166 510.977,322.18 L509.869,323.196 Q511.184,337.225 515.5,385.221 L516.515,385.129 Q521.315,382.452 554.912,356.055 587.309,330.487 597.739,321.442 605.492,314.704 611.861,304.09 615.091,298.644 618.968,291.906 620.814,289.783 624.783,286.83 628.013,283.876 628.198,278.984 628.383,274.184 593.309,251.571 554.45,227.388 546.974,221.758 525.007,205.236 514.761,198.591 502.556,190.588 494.271,187.053 487.387,184.124 483.287,184.377 M417.662,178.746 Q420.431,178.285 423.015,177.823 427.169,177.823 426.892,182.9 434.83,181.977 437.968,182.9 441.291,183.915 441.198,187.515 L446.367,189.915 Q449.996,182.859 458.828,176.993 463.904,173.577 468.242,172.47 468.31,172.455 468.334,172.378 L467.135,164.994 Q468.519,164.901 465.842,161.671 460.95,156.04 456.982,151.149 451.628,144.503 432.984,138.503 416.646,133.242 407.601,133.15 378.619,132.873 358.682,140.996 346.314,146.072 335.238,161.394 333.115,164.298 331.361,166.932 326.412,174.777 324.9,180.685 L324.9,182.9 Q325.085,182.9 325.916,183.177 326.839,183.361 327.485,183.361 330.807,183.361 334.13,180.685 337.915,177.546 341.514,176.9 L341.514,179.208 345.668,179.208 Q348.437,178.654 353.698,177.085 357.759,175.793 358.59,175.977 L358.59,178.285 Q359.513,178.285 363.205,178.746 369.297,178.746 375.204,175.516 L379.819,175.516 379.819,177.362 387.203,177.362 Q399.386,173.67 400.125,173.67 401.325,173.67 402.432,174.5 403.724,175.423 406.124,175.516 406.124,177.823 405.663,178.746 L417.662,178.746Z" test="Avatar Man" stroke-width="1.846"/>
      <path id="Layer5_0_1_STROKES" stroke="#009EFF" stroke-width="1.846" stroke-linejoin="round" stroke-linecap="round" fill="none" d="M441.198,187.515 Q441.291,183.915 437.968,182.9 434.83,181.977 426.892,182.9 427.169,177.823 423.015,177.823 420.431,178.285 417.662,178.746 L405.663,178.746 Q406.124,177.823 406.124,175.516 403.724,175.423 402.432,174.5 401.325,173.67 400.125,173.67 399.386,173.67 387.203,177.362 L379.819,177.362 379.819,175.516 375.204,175.516 Q369.297,178.746 363.205,178.746 359.513,178.285 358.59,178.285 L358.59,175.977 Q357.759,175.793 353.698,177.085 348.437,178.654 345.668,179.208 L341.514,179.208 341.514,176.9 Q337.915,177.546 334.13,180.685 330.807,183.361 327.485,183.361 326.839,183.361 325.916,183.177 325.085,182.9 324.9,182.9 L324.9,180.685 Q326.412,174.777 331.407,166.978 333.115,164.298 335.238,161.394 346.314,146.072 358.682,140.996 378.619,132.873 407.601,133.15 416.646,133.242 432.984,138.503 451.628,144.503 456.982,151.149 460.95,156.04 465.842,161.671 468.519,164.901 467.135,164.994 M468.381,172.424 Q468.449,172.431 468.519,172.424 471.31,171.807 477.288,171.455 481.626,171.27 484.302,169.516 485.779,168.593 487.902,166.84 488.733,166.378 485.318,172.285 483.749,174.962 482.456,177.546 481.666,179.099 481.026,180.592 480.872,180.9 480.749,181.192 480.479,181.768 480.241,182.346 480.097,182.671 479.964,182.992 M483.287,184.377 Q487.387,184.124 494.317,187.099 502.556,190.588 514.761,198.591 525.007,205.236 546.974,221.758 554.45,227.388 593.309,251.571 628.383,274.184 628.198,278.984 628.013,283.876 624.783,286.83 620.814,289.783 618.968,291.906 615.091,298.644 611.861,304.09 605.492,314.704 597.739,321.442 587.309,330.487 554.912,356.055 521.315,382.452 516.515,385.129 516.037,385.441 515.592,385.729 510.22,389.214 507.839,390.575 503.593,393.067 499.901,392.513 M482.456,177.546 Q481.018,179.123 479.826,180.038 478.62,180.917 477.657,181.146 474.149,181.423 469.904,182.069 464.458,182.9 461.504,184.93 457.535,188.345 453.751,191.299 449.044,194.991 446.09,196.745 L444.059,197.76 Q444.504,193.688 446.413,189.961 M440.275,187.515 L441.198,187.515 M446.413,189.961 Q449.996,182.859 458.828,176.993 463.904,173.577 468.242,172.47 468.31,172.455 468.381,172.424 M479.964,182.992 Q479.916,183.108 479.872,183.223 478.871,185.731 478.211,188.069 476.457,194.345 473.688,203.944 473.625,204.112 473.549,204.267 470.974,210.94 465.75,213.913 454.766,220.189 448.674,223.143 M452.828,232.373 Q452.367,239.11 454.489,284.245 454.567,285.91 454.628,287.522 456.304,322.743 456.52,333.441 456.518,333.511 456.52,333.579 456.551,336.007 456.52,337.133 456.151,351.624 458.828,374.515 459.197,377.745 464.273,375.068 469.35,372.299 468.981,370.361 468.796,368.977 470.919,369.715 472.673,370.361 473.134,370.823 473.226,370.915 480.057,347.286 L485.595,356.516 Q485.687,356.608 488.825,336.21 L494.363,338.518 Q494.47,338.626 493.763,328.872 493.758,328.804 493.763,328.734 492.665,313.667 489.656,275.384 487.83,251.992 486.471,236.618 484.686,216.069 483.749,209.851 483.486,208.039 483.287,207.452 M509.869,323.242 L510.977,322.18 Q518.453,315.166 526.022,309.351 550.389,290.614 566.819,290.06 548.543,285.63 526.207,257.201 506.823,229.142 503.593,227.758 499.993,226.281 495.194,230.896 489.748,236.341 487.902,236.526 M384.065,229.142 Q385.141,229.316 387.387,229.419 389.95,229.511 394.033,229.511 401.232,229.419 404.371,229.142 410.185,228.588 410.924,228.404 414.616,227.388 414.985,224.527 M438.06,302.982 Q438.983,308.982 441.106,317.658 443.69,328.088 445.905,333.441 M335.145,300.213 Q335.145,300.305 335.515,309.72 335.792,316.458 338.376,320.981 339.207,322.431 340.453,323.842 344.233,328.064 351.852,331.872 362.374,337.225 372.527,337.595 L376.265,337.871 376.404,337.871 Q386.187,338.241 389.141,338.056 394.218,337.687 400.217,335.749 404.647,334.364 416.554,323.657 425.016,315.97 433,306.582 434.115,306.469 434.23,306.351 434.3,306.284 434.368,306.213 434.462,306.124 434.553,306.028 435.97,304.523 437.414,302.982 437.508,302.882 437.599,302.797 437.635,302.744 437.691,302.705 437.706,302.652 437.737,302.613 448.604,291.025 450.059,287.753 M376.219,338.518 Q375.388,342.486 373.819,351.532 372.25,359.377 369.758,363.439 M504.977,327.903 L509.869,323.242 M494.825,401.282 Q494.732,401.466 485.41,425.741 478.764,443.001 476.365,452.97 473.411,465.061 470.827,501.058 468.242,536.132 469.442,543.885 M416.277,448.724 Q416.831,450.754 418.677,451.308 419.231,451.493 420.708,451.493 423.107,451.493 424.03,450.385 424.4,450.016 425.876,446.601 M379.357,435.34 Q379.173,452.139 380.373,454.723 382.311,459.338 393.202,459.338 398.463,459.338 398.925,459.246 399.479,459.154 401.509,457.954 M380.742,492.105 Q379.819,494.874 379.819,497.92 379.819,502.996 383.88,503.273 386.557,503.365 395.048,503.181 M377.511,530.409 Q382.219,533.64 385.264,534.378 387.48,534.84 391.356,534.101 M424.677,660.645 Q417.754,663.875 399.202,667.382 380.465,670.89 360.528,672.644 343.268,674.213 302.656,673.382 272.012,672.828 254.383,671.721 240.815,670.89 213.31,668.029 206.479,667.29 201.403,668.398 197.803,669.228 196.695,668.49 M329.607,165.917 Q326.1,163.794 321.947,161.578 313.64,157.24 311.148,157.61 308.471,157.979 310.686,171.178 312.532,182.438 314.378,187.146 M318.993,199.606 Q319.731,202.652 321.67,208.744 322.777,213.636 319.916,215.759 316.392,218.385 313.04,220.835 L312.994,220.881 Q262.633,258.276 256.229,260.524 250.599,262.185 249.214,262.647 247.276,263.385 246,265.139 246.537,268.739 246.353,281.107 246.076,295.321 246,298.367 250.137,310.92 274.32,346.64 298.041,381.622 312.071,395.282 M320.839,231.45 Q323.7,232.926 329.423,233.665 329.655,233.7 329.884,233.711 335.286,234.484 340.684,234.219 344.099,234.034 352.036,232.742 358.497,231.634 360.528,231.911 M320.378,255.448 Q319.27,257.294 307.363,269.2 296.564,279 293.611,282.676 M342.899,277.046 Q347.052,277.046 351.667,276.123 L369.666,276.123 Q364.128,282.03 360.989,285.168 355.175,290.891 353.79,290.891 351.298,290.891 347.606,285.722 343.822,279.815 342.437,278.43 M283.458,277.6 Q285.041,281.426 288.442,286.276 288.479,286.329 288.534,286.368 296.996,298.504 316.686,317.012 325.832,325.601 332.561,332.149 348.132,347.253 350.837,351.44 M319.916,421.126 Q319.27,435.802 322.224,442.817 324.07,447.062 329.7,451.862 335.515,456.569 340.684,458.046 M335.607,466.353 Q335.699,469.214 335.238,481.029 335.053,492.105 336.53,494.966 338.284,498.381 342.622,501.242 346.868,504.011 349.452,503.735 M342.068,507.427 Q342.16,510.472 342.16,515.18 342.345,518.687 343.914,520.81 344.099,521.087 349.083,524.502 352.406,526.81 352.221,530.963 352.036,534.101 350.098,541.854 348.437,548.315 348.991,550.346 M326.377,563.73 Q304.779,559.761 278.658,555.699 226.508,547.669 204.633,547.669 190.05,547.669 173.436,544.623 160.329,542.224 157.56,543.054 152.761,544.531 148.238,552.1 143.715,559.761 144.085,566.037 144.361,570.283 145.838,581.543 147.038,591.604 145.93,595.573 M325.916,590.497 Q317.424,591.881 278.289,592.712 235.831,593.635 229.001,594.189 221.432,594.835 197.342,598.711 175.466,602.219 166.698,602.496 156.268,602.865 147.038,601.573 142.239,600.926 135.316,599.265 131.716,598.434 128.024,600.926 126.086,602.311 121.471,607.111 116.21,612.556 121.009,624.186 121.932,626.494 120.363,639.692 118.61,652.984 119.625,655.568 L122.855,663.414 Q126.455,673.29 127.932,683.72 M193.003,655.568 Q194.296,659.722 196.695,671.628 199.28,684.366 199.003,686.95" test="Avatar Man"/>
      <path id="Layer5_0_2_STROKES" stroke="#FF0" stroke-width="1.846" stroke-linejoin="round" stroke-linecap="round" fill="none" d="M387.203,232.742 Q386.28,237.911 388.126,241.695 390.064,245.664 393.664,245.664 395.141,245.664 397.171,244.556 399.479,243.264 400.125,241.51 M329.515,236.895 Q328.592,243.356 328.592,243.818 328.592,245.695 329.977,247.694 330.713,248.739 331.823,249.817 335.238,253.048 338.745,253.048 340.591,253.048 341.791,251.202 342.53,250.186 343.822,247.971" test="Avatar Man"/>
      <path id="Layer5_0_3_STROKES" stroke="#FFF" stroke-width="1.846" stroke-linejoin="round" stroke-linecap="round" fill="none" d="M419.508,283.045 Q425.692,285.537 425.969,289.691 425.987,289.953 426.015,290.245 426.009,290.315 426.015,290.383 L426.015,290.522 Q426.05,292.923 425.507,297.352 M411.201,299.659 Q417.283,298.208 420.984,293.752 422.225,292.26 423.2,290.429" test="Avatar Man"/>
      <path id="Layer5_0_4_STROKES" stroke="#F90" stroke-width="1.846" stroke-linejoin="round" stroke-linecap="round" fill="none" d="M348.529,553.115 Q350.467,552.93 367.358,559.853 388.403,566.683 410.37,566.499 431.507,566.314 450.151,560.961 465.842,556.438 467.135,556.807 472.857,558.284 477.38,568.437 483.102,581.082 480.057,597.419 476.272,618.002 466.581,633.139 455.228,650.768 438.522,656.03 L425.415,660.091 Q425.23,660.091 426.523,658.706 428.184,656.86 426.523,655.568 418.585,645.323 411.57,636.554 397.817,619.294 388.679,615.418 374.742,609.51 361.082,602.588 344.56,594.004 341.145,590.035 338.007,586.343 337.361,575.544 337.176,564.376 336.992,562.345 336.715,559.576 340.037,557.361 341.883,556.069 348.529,553.115Z" test="Avatar Man"/>
    </g>
    <g id="Avatar-Lady">
      <path fill="#000" stroke="none" d="M197.561,577.205 Q193.601,576.052 190.168,575.752 181.117,575.513 177.297,575.294 171.056,574.935 164.686,571.952 160.843,570.517 155.534,566.941 145.01,559.794 136.135,548.35 127.371,537.051 121.73,524.159 L119.71,525.164 Q118.843,532.123 113.813,548.096 110.044,560.246 109.032,569.504 108.84,571.227 108.747,572.852 108.554,576.205 108.368,592.456 107.031,615.744 103.749,624.06 101.56,629.635 98.588,635.819 96.732,640.479 96.346,647.186 96.132,650.921 96.703,655.617 L96.698,655.711 Q97.222,660.055 98.393,665.247 100.764,676.037 100.459,681.347 100.299,684.141 99.119,686.784 98.477,688.196 97.785,688.857 L99.283,690.438 Q99.202,692.564 98.645,696.663 98.622,696.869 98.623,697.036 97.859,702.698 96.272,711.947 L96.266,712.04 Q95.639,715.741 94.875,719.998 L98.544,722.825 Q101.671,719.027 109.382,711.485 120.172,700.984 122.917,697.123 L123.437,696.218 Q127.677,692.349 131.813,683.802 136.762,672.497 140.16,665.403 140.904,663.825 141.552,662.305 141.861,661.775 142.082,661.214 142.19,661.105 142.192,660.94 142.281,660.882 142.295,660.759 L142.295,660.759 Q149.037,646.618 153.337,637.749 162.253,619.196 167.123,610.877 169.37,606.995 172.339,603.046 173.524,601.447 174.767,599.821 L175.068,599.464 175.167,599.377 Q178.32,595.634 182.049,591.828 190.688,582.978 196.967,579.414 L197.561,577.205 M184.673,409.457 L184.802,395.819 184.336,395.793 Q173.903,395.193 167.718,395.492 155.249,396.178 145.134,399.803 135.392,403.449 126.147,409.834 122.649,412.218 119.223,414.856 119.218,414.901 119.124,414.944 118.88,415.166 118.539,415.378 113.441,419.549 108.585,424.339 100.268,432.459 96.38,441.582 92.496,450.611 90.873,460.985 L90.209,464.405 Q93.132,464.971 96.676,465.711 102.491,466.979 110.311,472.382 110.713,472.683 115.857,476.719 115.908,476.74 115.95,476.724 117.686,478.153 119.97,479.946 117.686,478.153 115.95,476.724 115.908,476.74 115.857,476.719 110.713,472.683 110.311,472.382 102.491,466.979 96.676,465.711 93.132,464.971 90.209,464.405 L86.517,476.622 Q88.389,477.154 90.375,477.779 105.438,482.382 111.416,482.445 105.438,482.382 90.375,477.779 88.389,477.154 86.517,476.622 86.333,476.561 86.149,476.508 73.635,472.838 66.65,472.678 L61.342,477.233 Q63.527,479.799 68.459,485.118 75.027,492.149 79.272,495.365 80.103,495.934 80.802,496.387 86.747,500.28 94.018,500.604 99.333,500.816 106.792,502.74 112.689,504.2 114.59,503.655 L120.367,505.576 117.781,513.184 121.653,523.874 Q121.724,524.039 121.73,524.159 127.371,537.051 136.135,548.35 145.01,559.794 155.534,566.941 160.843,570.517 164.686,571.952 171.056,574.935 177.297,575.294 181.117,575.513 190.168,575.752 193.601,576.052 197.561,577.205 L197.654,577.21 Q200.741,578.184 204.15,579.64 214.555,583.975 217.685,584.809 224.399,586.69 228.474,585.709 230.375,585.164 235.598,582.1 238.789,580.227 241.594,572.071 244.807,561.694 246.903,556.114 249.207,550.172 257.256,538.578 258.318,537.043 259.296,535.611 265.928,525.874 268.546,521.002 268.832,520.476 269.07,520.004 273.19,511.736 271.29,500.879 269.81,492.477 265.846,486.642 L260.228,477.067 Q259.604,477.42 258.793,477.639 252.73,479.066 253.368,472.841 L248.477,470.13 230.959,472.488 Q231.017,472.967 231.091,473.431 230.866,473.128 230.565,472.84 228.026,469.524 223.931,466.291 214.892,459.323 206.144,460.316 197.675,461.325 182.848,468.884 168.577,476.734 161.457,480.085 160.492,480.615 159.629,481.008 154.827,483.256 137.687,490.402 135.965,491.126 134.435,491.711 129.96,493.689 127.147,494.937 124.156,496.438 123.188,497.14 124.156,496.438 127.147,494.937 129.96,493.689 134.435,491.711 135.965,491.126 137.687,490.402 154.827,483.256 159.629,481.008 160.492,480.615 161.457,480.085 168.577,476.734 182.848,468.884 197.675,461.325 206.144,460.316 214.892,459.323 223.931,466.291 228.026,469.524 230.565,472.84 L230.959,472.488 Q230.923,472.255 230.892,472.017 230.347,468.266 230.048,463.932 229.41,453.895 231.032,450.063 232.331,446.96 240.343,444.149 247.506,441.476 247.158,439.4 246.169,433.83 238.568,424.608 L231.182,416.52 Q216.134,425.206 202.364,433.37 187.944,442.029 174.954,450.113 153.025,464.181 145.093,468.865 135.795,474.367 128.443,477.255 125.994,478.264 123.766,478.949 125.994,478.264 128.443,477.255 135.795,474.367 145.093,468.865 153.025,464.181 174.954,450.113 187.944,442.029 202.364,433.37 L196.911,424.178 Q196.137,423.012 191.335,417.129 186.093,410.753 184.673,409.457 M214.17,480.029 Q212.947,478.557 208.606,477.653 205.316,476.969 194.92,481.633 191.579,483.172 187.517,485.227 170.769,493.704 168.16,493.554 170.769,493.704 187.517,485.227 191.579,483.172 194.92,481.633 205.316,476.969 208.606,477.653 212.947,478.557 214.17,480.029 215.394,481.501 219.623,484.361 215.394,481.501 214.17,480.029 M207.337,494.87 Q209.81,492.489 209.906,490.812 209.933,490.346 207.738,487.884 209.933,490.346 209.906,490.812 209.81,492.489 207.337,494.87 204.661,497.52 202.333,497.386 195.533,496.996 195.811,492.152 195.854,491.407 195.963,491.133 196.274,490.59 197.904,488.253 196.274,490.59 195.963,491.133 195.854,491.407 195.811,492.152 195.533,496.996 202.333,497.386 204.661,497.52 207.337,494.87 M183.423,551.627 Q182.936,552.496 182.204,553.333 180.196,555.741 179.035,556.422 180.196,555.741 182.204,553.333 182.936,552.496 183.423,551.627 185.045,549.423 185.159,547.428 L184.915,545.171 185.159,547.428 Q185.045,549.423 183.423,551.627 M231.263,522.506 Q233.622,522.641 236.829,521.61 240.284,520.611 244.681,518.323 250.967,514.972 252.579,512.608 253.185,511.828 253.224,511.15 253.267,510.405 251.548,507.783 249.923,505.166 249.194,504.844 249.923,505.166 251.548,507.783 253.267,510.405 253.224,511.15 253.185,511.828 252.579,512.608 250.967,514.972 244.681,518.323 240.284,520.611 236.829,521.61 233.622,522.641 231.263,522.506 227.631,522.297 225.358,519.55 221.78,515.139 221.511,514.936 221.78,515.139 225.358,519.55 227.631,522.297 231.263,522.506 M252.245,528.197 Q252.288,527.451 251.239,526.176 252.288,527.451 252.245,528.197 252.175,529.408 251.651,530.405 251.126,531.403 250.146,532.188 248.094,533.753 245.393,533.597 244.368,533.539 242.274,532.577 240.273,531.621 239.022,530.615 240.273,531.621 242.274,532.577 244.368,533.539 245.393,533.597 248.094,533.753 250.146,532.188 251.126,531.403 251.651,530.405 252.175,529.408 252.245,528.197 M205.748,558.33 Q209.863,558.286 214.071,558.247 209.863,558.286 205.748,558.33 194.381,559.359 185.211,553.038 194.381,559.359 205.748,558.33 M152.168,438.431 Q148.166,433.248 141.516,430.249 134.959,427.255 128.949,427.751 134.959,427.255 141.516,430.249 148.166,433.248 152.168,438.431Z" test="Avatar Lady" stroke-width="1.866"/>
      <path id="Layer4_0_1_STROKES" stroke="#009EFF" stroke-width="1.866" stroke-linejoin="round" stroke-linecap="round" fill="none" d="M248.477,470.13 Q247.611,465.688 251.154,464.209 254.609,462.632 257.835,461.789 M229.685,411.668 Q230.013,410.846 230.04,410.38 230.093,409.449 227.362,403.31 224.13,396.116 223.646,394.779 221.875,389.818 217.008,388.323 211.911,387.563 210.189,386.623 210.482,388.042 210.22,392.606 L209.648,399.302 Q209.363,399.38 207.357,398.517 205.164,397.643 204.139,397.584 200.507,397.376 198.561,397.077 193.936,396.25 188.719,395.951 L184.802,395.819 M184.673,409.457 Q186.093,410.753 191.335,417.129 196.137,423.012 196.911,424.178 M210.189,386.623 Q210.191,386.53 210.102,386.525 L210.118,386.245 Q210.198,386.435 210.189,386.623Z M184.336,395.793 Q184.347,395.606 184.44,395.612 184.608,395.803 184.802,395.819 L184.336,395.793 Q173.903,395.193 167.718,395.492 155.249,396.178 145.134,399.803 135.392,403.449 126.147,409.834 122.649,412.218 119.269,414.859 119.218,414.901 119.171,414.947 118.88,415.166 118.585,415.381 113.441,419.549 108.585,424.339 100.268,432.459 96.38,441.582 92.496,450.611 90.873,460.985 M90.206,464.451 Q93.132,464.971 96.676,465.711 102.491,466.979 110.311,472.382 110.713,472.683 115.857,476.719 115.908,476.74 115.947,476.771 117.686,478.153 119.97,479.946 M219.623,484.361 Q215.394,481.501 214.17,480.029 212.947,478.557 208.606,477.653 205.316,476.969 194.917,481.68 191.579,483.172 187.517,485.227 170.769,493.704 168.16,493.554 M221.511,514.936 Q221.78,515.139 225.358,519.55 227.631,522.297 231.263,522.506 233.622,522.641 236.873,521.66 240.284,520.611 244.681,518.323 250.967,514.972 252.626,512.611 253.185,511.828 253.224,511.15 253.267,510.405 251.548,507.783 249.923,505.166 249.194,504.844 M265.846,486.642 Q269.81,492.477 271.29,500.879 273.19,511.736 269.07,520.004 268.832,520.476 268.546,521.002 265.928,525.874 259.296,535.611 258.318,537.043 257.256,538.578 249.207,550.172 246.903,556.114 244.807,561.694 241.594,572.071 238.789,580.227 235.598,582.1 230.375,585.164 228.474,585.709 224.399,586.69 217.685,584.809 214.555,583.975 204.15,579.64 200.741,578.184 197.652,577.257 L197.559,577.252 M196.967,579.414 Q190.688,582.978 182.049,591.828 178.32,595.634 175.213,599.379 L175.115,599.467 174.814,599.824 Q173.524,601.447 172.339,603.046 169.37,606.995 167.123,610.877 162.253,619.196 153.337,637.749 149.037,646.618 142.342,660.762 L142.293,660.806 Q142.281,660.882 142.238,660.943 142.19,661.105 142.126,661.264 141.861,661.775 141.599,662.308 140.904,663.825 140.16,665.403 136.762,672.497 131.813,683.802 127.677,692.349 123.437,696.218 M122.917,697.123 Q120.172,700.984 109.382,711.485 101.671,719.027 98.541,722.872 97.548,724.121 97.018,724.981 M239.022,530.615 Q240.273,531.621 242.274,532.577 244.368,533.539 245.393,533.597 248.094,533.753 250.146,532.188 251.126,531.403 251.651,530.405 252.175,529.408 252.245,528.197 252.288,527.451 251.239,526.176 M197.559,577.252 Q193.601,576.052 190.168,575.752 181.117,575.513 177.297,575.294 171.056,574.935 164.686,571.952 160.843,570.517 155.534,566.941 145.01,559.794 136.135,548.35 127.371,537.051 121.774,524.208 M119.71,525.164 Q118.843,532.123 113.813,548.096 110.044,560.246 109.032,569.504 108.84,571.227 108.747,572.852 108.554,576.205 108.368,592.456 107.031,615.744 103.749,624.06 101.56,629.635 98.588,635.819 96.732,640.479 96.346,647.186 96.132,650.921 96.701,655.664 L96.698,655.711 Q97.222,660.055 98.393,665.247 100.764,676.037 100.459,681.347 100.299,684.141 99.119,686.784 98.477,688.196 97.782,688.903 M99.283,690.438 Q99.202,692.564 98.642,696.71 98.622,696.869 98.623,697.036 97.859,702.698 96.269,711.994 L96.266,712.04 Q95.639,715.741 94.875,719.998 M167.827,613.254 L166.964,618.532 Q166.91,619.463 167.348,623.226 167.786,626.99 167.733,627.921 167.679,628.853 168.175,634.863 168.578,640.867 168.524,641.799 168.075,649.623 154.828,681.759 141.487,713.89 141.086,720.876 140.695,727.676 150.016,744.38 157.305,757.415 166.752,770.294 173.602,779.566 188.306,821.345 188.236,822.556 188.965,822.878 189.607,823.102 189.737,822.455 M104.716,760.189 Q106.97,761.627 118.4,774.152 130.609,787.751 130.454,790.452 130.262,793.805 152.203,812.075 174.144,830.344 173.93,834.07 173.866,835.188 174.244,835.116 174.622,835.045 174.611,835.231 L175.394,834.622 M152.168,438.431 Q148.166,433.248 141.516,430.249 134.959,427.255 128.949,427.751 M90.206,464.451 Q90.112,464.457 90.02,464.44 89.926,464.424 89.834,464.43 85.39,463.623 82.416,463.396 74.416,462.75 68.518,464.561 61.19,466.85 60.32,467.361 58.869,468.212 58.812,470.826 58.838,473.631 60.123,475.667 60.485,476.17 61.169,476.989 61.257,477.084 61.344,477.186 L61.388,477.235 M66.65,472.678 Q73.635,472.838 86.149,476.508 86.333,476.561 86.517,476.622 M61.388,477.235 Q63.527,479.799 68.459,485.118 75.027,492.149 79.318,495.368 80.103,495.934 80.802,496.387 86.747,500.28 94.018,500.604 99.333,500.816 106.792,502.74 112.689,504.2 114.59,503.655 M117.781,513.184 L121.653,523.874 Q121.724,524.039 121.774,524.208 M74.815,501.371 Q71.543,504.641 67.713,524.14 65.988,533.013 65.586,535.139 64.994,538.937 64.748,543.222 64.448,548.438 65.922,560.205 67.302,571.967 66.928,578.487 66.889,579.165 66.848,579.884 66.595,582.98 65.986,586.751 65.001,592.933 63.069,600.929 61.715,606.535 59.897,613.036 53.545,635.756 52.454,654.758 52.277,657.832 53.102,667.879 53.959,677.368 53.671,679.127 M86.517,476.622 Q88.389,477.154 90.375,477.779 105.438,482.382 111.416,482.445 M95.994,523.148 L96.046,525.487 Q95.923,527.63 94.194,533.325 92.46,539.113 91.996,543.946 91.406,549.333 90.882,558.461 90.823,559.486 91.008,562.768 91.188,566.142 91.119,567.353 91.115,567.42 91.11,567.493 90.95,569.996 90.049,574.582 89.081,580.04 88.163,581.389 87.266,582.366 85.527,584.976 84.305,586.728 83.676,587.907 83.048,589.086 83.013,589.691 M83.571,628.789 Q83.529,629.534 81.972,637.108 80.322,644.677 80.258,645.794 80.141,647.844 81.491,653.622 82.126,656.531 82.442,658.209 82.721,659.865 82.695,660.327 82.513,663.494 79.474,669.207 76.753,674.284 74.777,676.134 M66.848,579.884 Q61.501,580.232 55.005,585.933 48.989,591.158 47.06,597.346 46.502,599.151 46.287,601.04 45.572,606.98 37.434,668.942 29.655,729.523 29.188,736.038 28.936,740.416 27.851,747.924 27.701,749.027 27.591,750.012 L27.585,750.105 Q27.308,753.276 27.62,755.2 27.896,756.898 63.104,815.929 98.064,874.386 97.943,878.117 M44.846,596.845 Q35.641,600.896 26.479,604.201 13.407,608.871 6.301,608.93 -8.432,608.364 -25.551,607.007 -59.689,604.206 -71.518,600.255 M97.782,688.903 Q97.137,689.567 96.438,689.527 M94.875,719.998 L94.872,720.044 Q94.517,722.164 94.106,724.44 91.909,736.594 88.784,752.825 88.099,756.618 97.012,775.541 108.018,798.696 110.236,805.646 125.353,853.243 124.625,874.042 M-72.743,712.707 Q-65.547,714.336 -47.943,721.889 -28.794,730.185 -18.522,736.849 -4.555,745.876 -.816,747.492 6.931,750.928 17.335,750.404 21.553,750.179 25.13,749.73" test="Avatar Lady"/>
      <path id="Layer4_0_2_STROKES" stroke="#FFBC00" stroke-width="1.866" stroke-linejoin="round" stroke-linecap="round" fill="none" d="M202.411,433.372 Q216.134,425.206 231.182,416.52 L238.568,424.608 Q246.169,433.83 247.158,439.4 247.506,441.476 240.343,444.149 232.331,446.96 231.032,450.063 229.41,453.895 230.048,463.932 230.347,468.266 230.892,472.017 230.923,472.255 230.959,472.488 M123.766,478.949 Q125.994,478.264 128.44,477.301 135.795,474.367 145.093,468.865 153.025,464.181 174.954,450.113 187.944,442.029 202.411,433.372 M230.611,472.842 Q230.866,473.128 231.091,473.431 231.017,472.967 230.959,472.488 M230.611,472.842 Q228.026,469.524 223.931,466.291 214.892,459.323 206.144,460.316 197.675,461.325 182.848,468.884 168.577,476.734 161.501,480.135 160.492,480.615 159.629,481.008 154.827,483.256 137.687,490.402 135.965,491.126 134.432,491.757 129.96,493.689 127.191,494.986 124.156,496.438 123.188,497.14" test="Avatar Lady"/>
      <path id="Layer4_0_3_STROKES" stroke="#FF0" stroke-width="1.866" stroke-linejoin="round" stroke-linecap="round" fill="none" d="M253.368,472.841 Q252.73,479.066 258.793,477.639 259.604,477.42 260.275,477.069 262.625,475.784 263.093,472.745 263.554,469.594 260.529,468.579 M197.904,488.253 Q196.274,490.59 195.963,491.133 195.854,491.407 195.811,492.152 195.533,496.996 202.333,497.386 204.661,497.52 207.337,494.87 209.81,492.489 209.906,490.812 209.933,490.346 207.738,487.884" test="Avatar Lady"/>
      <path id="Layer4_0_4_STROKES" stroke="#FFF" stroke-width="1.866" stroke-linejoin="round" stroke-linecap="round" fill="none" d="M184.915,545.171 L185.159,547.428 Q185.045,549.423 183.467,551.676 182.936,552.496 182.204,553.333 180.196,555.741 179.035,556.422 M185.211,553.038 Q194.381,559.359 205.748,558.33 209.863,558.286 214.071,558.247" test="Avatar Lady"/>
    </g>
    <g id="Censoredf0r1">
      <path fill="#000" stroke="none" d="M-18.85,403.35 L-18.85,629.9 829.1,629.9 829.1,403.35 -18.85,403.35Z" test="Censored"/>
      <path id="Layer2_0_1_STROKES" stroke="#F00" stroke-width="1" stroke-linejoin="round" stroke-linecap="round" fill="none" d="M440.05,433.95 Q451.45,433.7 458.4,442.45 467.15,453.5 468.45,478.35 469.85,504.55 462.7,519.75 456.1,533.8 444.2,534.55 432.35,535.35 426.85,525.8 420.75,515.3 419.8,488.15 418.8,461.5 424.1,448.25 428.75,436.6 438.75,434.25 M495.6,540.1 Q496.6,530.75 496.9,517.65 497.2,502.55 496.25,489.8 496.1,487.9 494.45,475.35 493.3,466.4 490.7,448.25 489,434.25 490.35,432.65 491.55,431.25 495.9,430.8 500.65,430.2 505.5,431.3 518.75,434.35 520.4,446.7 522.1,459.55 514.25,468.5 507.95,475.7 498.4,478.15 503.3,481.95 507.4,487.15 509.05,489.15 511.9,493.4 515.55,498.8 519.6,507.2 527.8,523.85 530,538.55 M571.35,432.65 Q570.6,432.65 561.5,433.35 554.45,433.85 553.1,433.3 551.6,432.65 553.4,483.6 553.45,484.9 553.55,486.15 555.9,485.8 562.05,485.75 568.9,485.7 569.75,485.55 M576.25,536.2 Q574.4,536.65 565.05,535.95 555.95,535.2 555.7,534.9 555.25,534.3 553.55,486.15 553.25,486.15 553.1,486.2 M604.7,431.3 Q618.7,430 628.4,436.15 644.15,446.1 645.2,473.8 646.25,502.4 642.45,513.4 640.25,519.95 633.1,524.1 628.35,526.9 618.55,528.8 610.8,530.3 606.65,530.3 604.3,530.3 604.1,480.45 603.85,429.95 604.7,431.3Z M184.5,451.6 Q183.2,445.85 177.55,440.35 171.75,434.7 166.2,434.25 158.55,433.6 151.55,437.15 141.9,442.05 136.2,454.2 129.55,468.45 127.75,482.8 125.85,498.1 129.9,511.35 132.45,519.85 135.75,524.45 140.25,530.65 146.6,530.65 153.75,530.65 160.75,526.7 167.95,522.75 170.85,516.9 M245.95,432.3 Q246.45,433.4 229.65,434.45 212.85,435.5 212.85,435.2 212.8,434.8 212.85,482.95 213.9,483.4 230.8,482.6 247.75,481.85 248.25,481 M277.65,536.55 Q277.8,536.7 277,484.45 276.2,432.15 276.35,432.3 276.6,432.65 327,528.05 323.8,429.05 322.4,429.7 M393.3,453.2 Q391.25,446.4 386,440.35 379.85,433.15 373.45,433.1 367,433 361.25,439.3 355.5,445.55 356.05,452.3 356.35,455.55 357.2,457.8 360.1,463.35 364.75,467.85 365.75,468.75 366.65,469.9 368.9,472.7 371.6,476.35 387.7,497.65 388.75,507.75 390,519.95 383.9,526.65 379.05,531.95 373.4,531.6 364.85,531.1 360.6,528.1 351.95,521.95 352.15,505.15 M212.85,482.95 Q212.65,483 212.5,507.4 212.4,531.7 212.25,533.25 212.1,534.85 229.65,535.1 247.15,535.35 248.25,533.25" test="Censored"/>
      <path id="Layer1_0_1_STROKES" stroke="#F00" stroke-width="1" stroke-linejoin="round" stroke-linecap="round" fill="none" d="M65.35,401.7 L732,401.7 732,561.5 65.35,561.5 65.35,401.7Z" test="Censored"/>
    </g>
  </g>
</svg>