<?xml version="1.0" encoding="utf-8"?>
<svg id="EdithAnim13" image-rendering="inherit" baseProfile="basic" version="1.1" x="0px" y="0px" width="800" height="600" xmlns="http://www.w3.org/2000/svg" xmlns:xlink="http://www.w3.org/1999/xlink">
  <g id="22_Avatarf158r1" overflow="visible">
    <g id="Avatar-Manf0r1">
      <g id="Tailf0r1">
        <path id="Layer6_0_1_STROKES" stroke="#009EFF" stroke-width="2.547" stroke-linejoin="round" stroke-linecap="round" fill="none" d="M514.969,665.598 Q513.68,646.883 512.968,628.157 512.33,610 506.428,592.851 499.942,574.173 481.876,565.679 459.922,555.445 456.747,578.339 456.284,581.675 458.464,584.602 463.622,591.635 470.954,596.137 478.617,593.337 484.381,598.622 491.321,605.037 494.376,614.658 501.517,637.361 507.205,660.253 508.813,666.659 507.735,673.158" test="Tail_2.3242325232423263e+312.3242325232423263e+31_2.3242325232423263e+312.3242325232423263e+31_2.3242325232423263e+312.3242325232423263e+31_2.3242325232423263e+312.3242325232423263e+31_2.3242325232423263e+312.3242325232423263e+31_2.3242325232423263e+312.3242325232423263e+31_2.3242325232423263e+312.3242325232423263e+31_2.3242325232423263e+312.3242325232423263e+31_2.3242325232423263e+312.3242325232423263e+31_2.3242325232423263e+312.3242325232423263e+31_2.3242325232423263e+312.3242325232423263e+31_2.3242325232423263e+312.3242325232423263e+31_2.3242325232423263e+312.3242325232423263e+31_2.3242325232423263e+312.3242325232423263e+31_2.3242325232423263e+312.3242325232423263e+31_2.3242325232423263e+312.3242325232423263e+31_2.3242325232423263e+312.3242325232423263e+31_2.3242325232423263e+312.3242325232423263e+31_2.3242325232423263e+312.3242325232423263e+31_2.3242325232423263e+312.3242325232423263e+31_2.3242325232423263e+312.3242325232423263e+31_2.3242325232423263e+312.3242325232423263e+31_23242324"/>
      </g>
      <path fill="#000" stroke="none" d="M472.468,570.352 Q467.93,560.166 462.189,558.684 460.893,558.314 445.151,562.851 426.445,568.222 405.24,568.407 383.201,568.592 362.088,561.74 345.143,554.795 343.198,554.98 336.531,557.943 334.679,559.24 331.345,561.462 331.623,564.24 331.808,566.277 331.993,577.482 332.642,588.316 335.79,592.02 339.216,596.002 355.792,604.614 369.496,611.559 383.479,617.485 392.646,621.374 406.444,638.69 413.481,647.487 421.445,657.766 423.112,659.062 421.445,660.914 420.149,662.303 420.334,662.303 L433.483,658.229 Q450.244,652.951 461.633,635.264 471.356,620.078 475.153,599.428 478.209,583.038 472.468,570.352 M478.394,185.043 L475.06,183.654 Q475.012,183.771 474.968,183.839 473.964,186.402 473.301,188.747 471.542,195.044 468.764,204.674 468.701,204.843 468.578,204.952 466.041,211.693 460.8,214.675 449.781,220.972 443.669,223.935 L447.836,233.195 Q447.373,239.955 449.503,285.236 449.581,286.907 449.595,288.477 451.323,323.86 451.54,334.592 451.538,334.662 451.54,334.685 451.571,337.166 451.54,338.296 451.17,352.834 453.855,375.799 454.225,379.04 459.318,376.355 464.411,373.577 464.041,371.632 463.856,370.243 465.986,370.984 467.745,371.632 468.208,372.095 468.301,372.188 475.153,348.482 L480.709,357.742 Q480.802,357.835 483.95,337.37 L489.506,339.685 Q489.613,339.794 488.858,329.962 488.899,329.94 488.858,329.869 487.802,314.753 484.783,276.347 482.952,252.878 481.542,237.455 479.798,216.838 478.857,210.601 478.594,208.782 478.394,208.193 478.594,208.782 478.857,210.601 479.798,216.838 481.542,237.455 L483.024,237.362 Q484.876,237.177 490.339,231.713 495.155,227.083 498.766,228.565 502.007,229.954 521.453,258.104 543.862,286.625 562.197,291.07 545.714,291.626 521.268,310.423 513.675,316.257 506.174,323.295 L505.063,324.313 Q506.381,338.389 510.711,386.541 L511.73,386.448 Q516.545,383.763 550.252,357.279 582.754,331.629 593.218,322.554 600.996,315.794 607.386,305.145 610.627,299.682 614.516,292.922 616.368,290.792 620.35,287.829 623.591,284.866 623.776,279.958 623.961,275.143 588.773,252.456 549.789,228.195 542.288,222.546 520.249,205.971 509.971,199.303 497.725,191.275 489.413,187.728 482.507,184.789 478.394,185.043 M412.555,179.394 Q415.333,178.931 417.926,178.468 422.093,178.468 421.815,183.561 429.779,182.635 432.927,183.561 436.261,184.58 436.168,188.191 L441.354,190.599 Q444.995,183.521 453.855,177.635 458.948,174.209 463.3,173.098 463.369,173.083 463.393,173.005 L462.189,165.597 Q463.578,165.504 460.893,162.263 455.985,156.615 452.003,151.707 446.632,145.04 427.927,139.021 411.537,133.743 402.462,133.65 373.386,133.372 353.384,141.521 340.976,146.614 329.864,161.986 327.734,164.899 325.974,167.542 321.009,175.413 319.492,181.339 L319.492,183.561 Q319.678,183.561 320.511,183.839 321.437,184.024 322.085,184.024 325.419,184.024 328.752,181.339 332.549,178.191 336.16,177.542 L336.16,179.857 340.327,179.857 Q343.105,179.302 348.384,177.728 352.458,176.431 353.291,176.616 L353.291,178.931 Q354.217,178.931 357.921,179.394 364.033,179.394 369.959,176.153 L374.589,176.153 374.589,178.005 381.997,178.005 Q394.221,174.301 394.961,174.301 396.165,174.301 397.276,175.135 398.573,176.061 400.98,176.153 400.98,178.468 400.517,179.394 L412.555,179.394Z" test="Avatar Man" stroke-width="1.852"/>
      <path id="Layer5_0_1_STROKES" stroke="#009EFF" stroke-width="1.852" stroke-linejoin="round" stroke-linecap="round" fill="none" d="M436.168,188.191 Q436.261,184.58 432.927,183.561 429.779,182.635 421.815,183.561 422.093,178.468 417.926,178.468 415.333,178.931 412.555,179.394 L400.517,179.394 Q400.98,178.468 400.98,176.153 398.573,176.061 397.276,175.135 396.165,174.301 394.961,174.301 394.221,174.301 381.997,178.005 L374.589,178.005 374.589,176.153 369.959,176.153 Q364.033,179.394 357.921,179.394 354.217,178.931 353.291,178.931 L353.291,176.616 Q352.458,176.431 348.384,177.728 343.105,179.302 340.327,179.857 L336.16,179.857 336.16,177.542 Q332.549,178.191 328.752,181.339 325.419,184.024 322.085,184.024 321.437,184.024 320.511,183.839 319.678,183.561 319.492,183.561 L319.492,181.339 Q321.009,175.413 326.021,167.588 327.734,164.899 329.864,161.986 340.976,146.614 353.384,141.521 373.386,133.372 402.462,133.65 411.537,133.743 427.927,139.021 446.632,145.04 452.003,151.707 455.985,156.615 460.893,162.263 463.578,165.504 462.189,165.597 M463.439,173.051 Q463.508,173.059 463.578,173.051 466.378,172.433 472.375,172.079 476.727,171.894 479.413,170.134 480.894,169.208 483.024,167.449 483.857,166.986 480.431,172.912 478.857,175.598 477.561,178.191 476.768,179.748 476.125,181.246 475.972,181.556 475.847,181.848 475.577,182.426 475.338,183.006 475.194,183.332 475.06,183.654 M478.394,185.043 Q482.507,184.789 489.46,187.775 497.725,191.275 509.971,199.303 520.249,205.971 542.288,222.546 549.789,228.195 588.773,252.456 623.961,275.143 623.776,279.958 623.591,284.866 620.35,287.829 616.368,290.792 614.516,292.922 610.627,299.682 607.386,305.145 600.996,315.794 593.218,322.554 582.754,331.629 550.252,357.279 516.545,383.763 511.73,386.448 511.25,386.761 510.804,387.05 505.415,390.546 503.026,391.911 498.766,394.412 495.062,393.856 M477.561,178.191 Q476.118,179.772 474.922,180.691 473.712,181.572 472.745,181.802 469.227,182.08 464.967,182.728 459.504,183.561 456.54,185.599 452.559,189.025 448.762,191.988 444.039,195.692 441.076,197.451 L439.039,198.47 Q439.485,194.384 441.4,190.645 M435.242,188.191 L436.168,188.191 M441.4,190.645 Q444.995,183.521 453.855,177.635 458.948,174.209 463.3,173.098 463.369,173.083 463.439,173.051 M475.06,183.654 Q475.012,183.771 474.968,183.885 473.964,186.402 473.301,188.747 471.542,195.044 468.764,204.674 468.701,204.843 468.625,204.998 466.041,211.693 460.8,214.675 449.781,220.972 443.669,223.935 M447.836,233.195 Q447.373,239.955 449.503,285.236 449.581,286.907 449.642,288.524 451.323,323.86 451.54,334.592 451.538,334.662 451.54,334.731 451.571,337.166 451.54,338.296 451.17,352.834 453.855,375.799 454.225,379.04 459.318,376.355 464.411,373.577 464.041,371.632 463.856,370.243 465.986,370.984 467.745,371.632 468.208,372.095 468.301,372.188 475.153,348.482 L480.709,357.742 Q480.802,357.835 483.95,337.37 L489.506,339.685 Q489.613,339.794 488.904,330.008 488.899,329.94 488.904,329.869 487.802,314.753 484.783,276.347 482.952,252.878 481.589,237.455 479.798,216.838 478.857,210.601 478.594,208.782 478.394,208.193 M505.063,324.36 L506.174,323.295 Q513.675,316.257 521.268,310.423 545.714,291.626 562.197,291.07 543.862,286.625 521.453,258.104 502.007,229.954 498.766,228.565 495.155,227.083 490.339,231.713 484.876,237.177 483.024,237.362 M378.849,229.954 Q379.929,230.128 382.183,230.232 384.753,230.324 388.85,230.324 396.073,230.232 399.221,229.954 405.055,229.398 405.796,229.213 409.5,228.195 409.87,225.324 M433.02,304.034 Q433.946,310.053 436.076,318.757 438.669,329.221 440.891,334.592 M329.771,301.256 Q329.771,301.349 330.141,310.794 330.419,317.554 333.012,322.091 333.845,323.547 335.096,324.962 338.888,329.197 346.532,333.018 357.088,338.389 367.274,338.759 L371.024,339.037 371.163,339.037 Q380.979,339.407 383.942,339.222 389.035,338.852 395.054,336.907 399.499,335.518 411.444,324.776 419.934,317.065 428.946,307.645 429.062,307.532 429.177,307.414 429.247,307.347 429.316,307.275 429.41,307.186 429.501,307.09 430.924,305.58 432.372,304.034 432.466,303.934 432.557,303.849 432.594,303.795 432.65,303.756 432.664,303.702 432.696,303.664 443.599,292.039 445.058,288.755 M370.978,339.685 Q370.145,343.667 368.57,352.742 366.996,360.613 364.496,364.687 M500.155,329.036 L505.063,324.36 M489.969,402.653 Q489.876,402.838 480.524,427.192 473.857,444.508 471.449,454.509 468.486,466.64 465.893,502.754 463.3,537.942 464.504,545.72 M411.166,450.249 Q411.722,452.287 413.574,452.842 414.13,453.027 415.611,453.027 418.019,453.027 418.945,451.916 419.315,451.546 420.797,448.12 M374.126,436.822 Q373.941,453.676 375.145,456.268 377.09,460.898 388.016,460.898 393.295,460.898 393.758,460.806 394.313,460.713 396.35,459.509 M375.515,493.771 Q374.589,496.549 374.589,499.605 374.589,504.698 378.664,504.976 381.349,505.069 389.868,504.883 M372.274,532.2 Q376.997,535.441 380.053,536.182 382.275,536.645 386.164,535.904 M419.593,662.859 Q412.648,666.1 394.035,669.619 375.238,673.138 355.236,674.897 337.92,676.471 297.176,675.638 266.433,675.082 248.746,673.971 235.134,673.138 207.539,670.267 200.687,669.526 195.594,670.637 191.982,671.471 190.871,670.73 M324.215,166.523 Q320.696,164.393 316.529,162.171 308.195,157.819 305.695,158.189 303.01,158.559 305.232,171.801 307.084,183.098 308.936,187.821 M313.566,200.322 Q314.307,203.378 316.251,209.489 317.363,214.397 314.492,216.527 310.957,219.162 307.593,221.62 L307.547,221.666 Q257.023,259.182 250.598,261.438 244.949,263.105 243.56,263.568 241.616,264.309 241.338,266.068 240.875,269.679 240.69,282.088 240.412,296.348 241.338,299.404 244.486,311.998 268.748,347.834 292.546,382.929 306.621,396.634 M315.418,232.269 Q318.289,233.751 324.03,234.491 324.263,234.527 324.493,234.538 329.912,235.314 335.327,235.047 338.753,234.862 346.717,233.565 353.199,232.454 355.236,232.732 M314.955,256.345 Q313.844,258.197 301.898,270.142 291.064,280.977 288.101,283.662 M337.549,278.013 Q341.716,278.013 346.346,277.087 L364.403,277.087 Q358.847,283.014 355.699,286.162 349.865,291.903 348.476,291.903 345.976,291.903 342.272,286.718 338.475,280.791 337.086,279.402 M277.915,278.569 Q279.504,282.408 282.915,287.273 282.952,287.327 283.008,287.366 291.498,299.541 311.251,318.109 320.428,326.727 327.178,333.296 342.8,348.449 345.513,352.649 M314.492,422.562 Q313.844,437.285 316.807,444.323 318.659,448.583 324.308,453.398 330.141,458.12 335.327,459.602 M330.234,467.936 Q330.327,470.807 329.864,482.659 329.678,493.771 331.16,496.642 332.919,500.068 337.272,502.939 341.531,505.717 344.124,505.439 M336.716,509.143 Q336.809,512.199 336.809,516.921 336.994,520.44 338.568,522.57 338.753,522.848 343.754,526.274 347.087,528.589 346.902,532.756 346.717,535.904 344.772,543.683 343.105,550.165 343.661,552.202 M320.974,565.629 Q299.306,561.647 273.1,557.573 220.781,549.517 198.835,549.517 184.204,549.517 167.536,546.461 154.387,544.053 151.609,544.887 146.793,546.368 142.256,553.961 137.719,561.647 138.089,567.944 138.367,572.204 139.848,583.501 141.052,593.594 139.941,597.576 M320.511,592.483 Q311.992,593.872 272.729,594.705 230.133,595.631 223.281,596.187 215.688,596.835 191.519,600.724 169.573,604.243 160.776,604.521 150.312,604.891 141.052,603.595 136.237,602.947 129.292,601.28 125.681,600.447 121.977,602.947 120.032,604.336 115.402,609.151 110.124,614.614 114.939,626.282 115.865,628.597 114.291,641.839 112.531,655.173 113.55,657.766 L116.791,665.637 Q120.402,675.545 121.884,686.009 M187.167,657.766 Q188.463,661.933 190.871,673.878 193.464,686.657 193.186,689.25" test="Avatar Man"/>
      <path id="Layer5_0_2_STROKES" stroke="#FF0" stroke-width="1.852" stroke-linejoin="round" stroke-linecap="round" fill="none" d="M381.997,233.565 Q381.071,238.751 382.923,242.548 384.868,246.529 388.479,246.529 389.961,246.529 391.998,245.418 394.313,244.122 394.961,242.362 M324.122,237.732 Q323.196,244.214 323.196,244.677 323.196,246.561 324.585,248.567 325.324,249.615 326.437,250.696 329.864,253.937 333.382,253.937 335.234,253.937 336.438,252.085 337.179,251.067 338.475,248.844" test="Avatar Man"/>
      <path id="Layer5_0_3_STROKES" stroke="#FFF" stroke-width="1.852" stroke-linejoin="round" stroke-linecap="round" fill="none" d="M414.407,284.032 Q420.612,286.533 420.889,290.7 420.908,290.963 420.936,291.255 420.93,291.326 420.936,291.394 L420.936,291.533 Q420.971,293.942 420.426,298.385 M406.073,300.7 Q412.176,299.245 415.889,294.774 417.134,293.278 418.111,291.44" test="Avatar Man"/>
      <path id="Layer5_0_4_STROKES" stroke="#F90" stroke-width="1.852" stroke-linejoin="round" stroke-linecap="round" fill="none" d="M343.198,554.98 Q345.143,554.795 362.088,561.74 383.201,568.592 405.24,568.407 426.445,568.222 445.151,562.851 460.893,558.314 462.189,558.684 467.93,560.166 472.468,570.352 478.209,583.038 475.153,599.428 471.356,620.078 461.633,635.264 450.244,652.951 433.483,658.229 L420.334,662.303 Q420.149,662.303 421.445,660.914 423.112,659.062 421.445,657.766 413.481,647.487 406.444,638.69 392.646,621.374 383.479,617.485 369.496,611.559 355.792,604.614 339.216,596.002 335.79,592.02 332.642,588.316 331.993,577.482 331.808,566.277 331.623,564.24 331.345,561.462 334.679,559.24 336.531,557.943 343.198,554.98Z" test="Avatar Man"/>
    </g>
    <g id="Avatar-Lady">
      <path fill="#000" stroke="none" d="M195.634,583.349 Q191.665,582.174 188.222,581.857 179.14,581.575 175.308,581.337 169.047,580.949 162.668,577.926 158.818,576.468 153.508,572.855 142.98,565.635 134.127,554.109 125.385,542.73 119.784,529.767 L117.752,530.766 Q116.849,537.746 111.728,553.751 107.89,565.926 106.832,575.211 106.631,576.94 106.53,578.57 106.321,581.934 106.059,598.241 104.609,621.603 101.278,629.933 99.055,635.517 96.044,641.71 94.16,646.377 93.742,653.105 93.509,656.853 94.061,661.568 L94.055,661.662 Q94.561,666.023 95.712,671.239 98.041,682.078 97.711,687.405 97.537,690.208 96.341,692.854 95.69,694.268 94.992,694.928 L96.488,696.522 Q96.397,698.655 95.819,702.766 95.795,702.973 95.796,703.14 95.003,708.819 93.367,718.092 L93.361,718.186 Q92.714,721.896 91.928,726.165 L95.597,729.019 Q98.752,725.222 106.526,717.69 117.402,707.201 120.174,703.339 L120.7,702.434 Q124.973,698.572 129.163,690.013 134.181,678.692 137.624,671.589 138.378,670.009 139.036,668.487 139.348,667.957 139.572,667.395 139.681,667.285 139.683,667.12 139.773,667.062 139.788,666.939 L139.788,666.939 Q146.618,652.779 150.975,643.899 160.008,625.323 164.933,616.998 167.206,613.113 170.204,609.164 171.401,607.564 172.655,605.939 L172.959,605.582 173.058,605.495 Q176.24,601.754 179,597.952 188.709,589.111 195.027,585.563 L195.634,583.349 M183.477,414.956 L183.67,401.272 183.202,401.243 Q172.736,400.594 166.528,400.865 154.012,401.495 143.845,405.086 134.052,408.699 124.745,415.064 121.224,417.44 117.774,420.072 117.769,420.117 117.675,420.16 117.428,420.381 117.085,420.592 111.95,424.754 107.055,429.538 98.671,437.648 94.727,446.785 90.789,455.827 89.111,466.23 L88.429,469.659 Q91.36,470.24 94.913,470 100.742,472.299 108.565,477.756 108.966,478.061 114.11,482.134 114.161,482.156 114.203,482.14 115.939,483.582 118.223,485.392 115.939,483.582 114.203,482.14 114.161,482.156 114.11,482.134 108.966,478.061 108.565,477.756 100.742,472.299 94.913,470 91.36,470.24 88.429,469.659 L84.668,481.902 Q86.544,482.444 88.535,483.08 103.628,487.769 109.627,487.86 103.628,487.769 88.535,483.08 86.544,482.444 84.668,481.902 84.484,481.84 84.3,481.785 71.759,478.044 64.75,477.851 L59.402,482.398 Q61.583,484.983 66.507,490.343 73.066,497.43 77.311,500.676 78.142,501.251 78.842,501.709 84.789,505.643 92.084,506.002 97.416,506.239 104.893,508.204 110.804,509.697 112.714,509.159 L118.502,511.113 115.872,518.736 119.708,529.481 Q119.778,529.646 119.784,529.767 125.385,542.73 134.127,554.109 142.98,565.635 153.508,572.855 158.818,576.468 162.668,577.926 169.047,580.949 175.308,581.337 179.14,581.575 188.222,581.857 191.665,582.174 195.634,583.349 L195.727,583.355 Q198.82,584.346 202.235,585.823 212.656,590.222 215.793,591.073 222.522,592.992 226.615,592.027 228.525,591.488 233.78,588.437 236.991,586.573 239.844,578.401 243.116,568.003 245.245,562.413 247.585,556.461 255.716,544.864 256.788,543.328 257.776,541.896 264.476,532.156 267.126,527.279 267.416,526.753 267.657,526.28 271.829,518.002 269.973,507.099 268.527,498.66 264.576,492.786 L258.983,483.152 Q258.355,483.503 257.54,483.719 251.449,485.124 252.118,478.88 L247.223,476.137 229.632,478.422 Q229.689,478.902 229.761,479.368 229.536,479.064 229.235,478.773 226.703,475.434 222.609,472.17 213.571,465.136 204.788,466.092 196.284,467.065 181.371,474.583 167.014,482.393 159.854,485.724 158.883,486.251 158.014,486.642 153.185,488.875 135.953,495.967 134.222,496.685 132.683,497.265 128.184,499.229 125.355,500.469 122.346,501.961 121.372,502.66 122.346,501.961 125.355,500.469 128.184,499.229 132.683,497.265 134.222,496.685 135.953,495.967 153.185,488.875 158.014,486.642 158.883,486.251 159.854,485.724 167.014,482.393 181.371,474.583 196.284,467.065 204.788,466.092 213.571,465.136 222.609,472.17 226.703,475.434 229.235,478.773 L229.632,478.422 Q229.598,478.188 229.568,477.949 229.038,474.183 228.758,469.831 228.164,459.757 229.81,455.919 231.128,452.811 239.181,450.028 246.381,447.379 246.041,445.294 245.075,439.699 237.49,430.41 L230.116,422.26 Q214.975,430.906 201.12,439.035 186.609,447.658 173.537,455.71 151.466,469.725 143.484,474.389 134.129,479.866 126.737,482.73 124.275,483.732 122.036,484.409 124.275,483.732 126.737,482.73 134.129,479.866 143.484,474.389 151.466,469.725 173.537,455.71 186.609,447.658 201.12,439.035 L195.69,429.786 Q194.918,428.612 190.127,422.686 184.897,416.264 183.477,414.956 M212.751,485.911 Q211.53,484.428 207.178,483.502 203.88,482.8 193.425,487.432 190.066,488.961 185.98,491.004 169.134,499.433 166.518,499.271 169.134,499.433 185.98,491.004 190.066,488.961 193.425,487.432 203.88,482.8 207.178,483.502 211.53,484.428 212.751,485.911 213.972,487.394 218.202,490.283 213.972,487.394 212.751,485.911 M205.825,500.772 Q208.318,498.394 208.422,496.712 208.451,496.245 206.26,493.764 208.451,496.245 208.422,496.712 208.318,498.394 205.825,500.772 203.128,503.419 200.791,503.274 193.969,502.851 194.271,497.992 194.317,497.244 194.428,496.969 194.743,496.426 196.389,494.089 194.743,496.426 194.428,496.969 194.317,497.244 194.271,497.992 193.969,502.851 200.791,503.274 203.128,503.419 205.825,500.772 M181.565,557.617 Q181.072,558.487 180.333,559.323 178.307,561.73 177.14,562.408 178.307,561.73 180.333,559.323 181.072,558.487 181.565,557.617 183.202,555.412 183.327,553.411 L183.092,551.145 183.327,553.411 Q183.202,555.412 181.565,557.617 M229.707,528.615 Q232.073,528.762 235.296,527.743 238.768,526.756 243.191,524.48 249.514,521.147 251.143,518.782 251.754,518.002 251.796,517.322 251.843,516.574 250.13,513.935 248.511,511.302 247.781,510.975 248.511,511.302 250.13,513.935 251.843,516.574 251.796,517.322 251.754,518.002 251.143,518.782 249.514,521.147 243.191,524.48 238.768,526.756 235.296,527.743 232.073,528.762 229.707,528.615 226.062,528.389 223.795,525.622 220.224,521.179 219.956,520.974 220.224,521.179 223.795,525.622 226.062,528.389 229.707,528.615 M250.735,534.423 Q250.781,533.676 249.735,532.391 250.781,533.676 250.735,534.423 250.659,535.638 250.128,536.637 249.597,537.636 248.611,538.419 246.544,539.979 243.834,539.811 242.806,539.747 240.709,538.773 238.705,537.804 237.455,536.789 238.705,537.804 240.709,538.773 242.806,539.747 243.834,539.811 246.544,539.979 248.611,538.419 249.597,537.636 250.128,536.637 250.659,535.638 250.735,534.423 M203.937,564.446 Q208.066,564.421 212.288,564.402 208.066,564.421 203.937,564.446 192.525,565.426 183.352,559.041 192.525,565.426 203.937,564.446 M150.724,443.881 Q146.733,438.661 140.074,435.621 133.508,432.587 127.475,433.057 133.508,432.587 140.074,435.621 146.733,438.661 150.724,443.881Z" test="Avatar Lady" stroke-width="1.873"/>
      <path id="Layer4_0_1_STROKES" stroke="#009EFF" stroke-width="1.873" stroke-linejoin="round" stroke-linecap="round" fill="none" d="M247.223,476.137 Q246.374,471.675 249.936,470.208 253.411,468.641 256.652,467.81 M228.636,417.384 Q228.969,416.56 228.998,416.093 229.056,415.159 226.343,408.986 223.134,401.752 222.654,400.408 220.9,395.421 216.023,393.899 210.912,393.113 209.188,392.162 209.475,393.587 209.191,398.166 L208.587,404.882 Q208.3,404.959 206.291,404.083 204.094,403.197 203.067,403.133 199.422,402.907 197.471,402.598 192.833,401.747 187.6,401.422 L183.67,401.272 M183.477,414.956 Q184.897,416.264 190.127,422.686 194.918,428.612 195.69,429.786 M209.188,392.162 Q209.191,392.068 209.101,392.062 L209.118,391.782 Q209.198,391.973 209.188,392.162Z M183.202,401.243 Q183.214,401.056 183.307,401.062 183.476,401.254 183.67,401.272 L183.202,401.243 Q172.736,400.594 166.528,400.865 154.012,401.495 143.845,405.086 134.052,408.699 124.745,415.064 121.224,417.44 117.821,420.075 117.769,420.117 117.721,420.163 117.428,420.381 117.132,420.595 111.95,424.754 107.055,429.538 98.671,437.648 94.727,446.785 90.789,455.827 89.111,466.23 M88.427,469.705 Q91.36,470.24 94.913,470 100.742,472.299 108.565,477.756 108.966,478.061 114.11,482.134 114.161,482.156 114.2,482.187 115.939,483.582 118.223,485.392 M218.202,490.283 Q213.972,487.394 212.751,485.911 211.53,484.428 207.178,483.502 203.88,482.8 193.422,487.479 190.066,488.961 185.98,491.004 169.134,499.433 166.518,499.271 M219.956,520.974 Q220.224,521.179 223.795,525.622 226.062,528.389 229.707,528.615 232.073,528.762 235.339,527.792 238.768,526.756 243.191,524.48 249.514,521.147 251.19,518.785 251.754,518.002 251.796,517.322 251.843,516.574 250.13,513.935 248.511,511.302 247.781,510.975 M264.576,492.786 Q268.527,498.66 269.973,507.099 271.829,518.002 267.657,526.28 267.416,526.753 267.126,527.279 264.476,532.156 257.776,541.896 256.788,543.328 255.716,544.864 247.585,556.461 245.245,562.413 243.116,568.003 239.844,578.401 236.991,586.573 233.78,588.437 228.525,591.488 226.615,592.027 222.522,592.992 215.793,591.073 212.656,590.222 202.235,585.823 198.82,584.346 195.724,583.402 L195.631,583.396 M195.027,585.563 Q188.709,589.111 179,597.952 176.24,601.754 173.105,605.497 L173.006,605.585 172.702,605.942 Q171.401,607.564 170.204,609.164 167.206,613.113 164.933,616.998 160.008,625.323 150.975,643.899 146.618,652.779 139.835,666.942 L139.785,666.986 Q139.773,667.062 139.73,667.123 139.681,667.285 139.616,667.444 139.348,667.957 139.082,668.49 138.378,670.009 137.624,671.589 134.181,678.692 129.163,690.013 124.973,698.572 120.7,702.434 M120.174,703.339 Q117.402,707.201 106.526,717.69 98.752,725.222 95.594,729.066 94.592,730.315 94.056,731.175 M237.455,536.789 Q238.705,537.804 240.709,538.773 242.806,539.747 243.834,539.811 246.544,539.979 248.611,538.419 249.597,537.636 250.128,536.637 250.659,535.638 250.735,534.423 250.781,533.676 249.735,532.391 M195.631,583.396 Q191.665,582.174 188.222,581.857 179.14,581.575 175.308,581.337 169.047,580.949 162.668,577.926 158.818,576.468 153.508,572.855 142.98,565.635 134.127,554.109 125.385,542.73 119.828,529.816 M117.752,530.766 Q116.849,537.746 111.728,553.751 107.89,565.926 106.832,575.211 106.631,576.94 106.53,578.57 106.321,581.934 106.059,598.241 104.609,621.603 101.278,629.933 99.055,635.517 96.044,641.71 94.16,646.377 93.742,653.105 93.509,656.853 94.058,661.615 L94.055,661.662 Q94.561,666.023 95.712,671.239 98.041,682.078 97.711,687.405 97.537,690.208 96.341,692.854 95.69,694.268 94.989,694.975 M96.488,696.522 Q96.397,698.655 95.816,702.813 95.795,702.973 95.796,703.14 95.003,708.819 93.364,718.139 L93.361,718.186 Q92.714,721.896 91.928,726.165 M165.629,619.386 L164.738,624.678 Q164.68,625.613 165.102,629.391 165.524,633.17 165.466,634.104 165.408,635.039 165.878,641.072 166.255,647.099 166.197,648.034 165.709,655.883 152.267,688.07 138.731,720.251 138.296,727.26 137.873,734.082 147.149,750.887 154.402,764.001 163.823,776.969 170.654,786.305 185.215,828.297 185.14,829.512 185.87,829.839 186.513,830.066 186.647,829.418 M101.617,766.541 Q103.872,767.995 115.284,780.617 127.473,794.319 127.305,797.029 127.096,800.393 149.029,818.828 170.963,837.263 170.731,841.001 170.661,842.122 171.041,842.052 171.42,841.982 171.409,842.169 L172.197,841.561 M150.724,443.881 Q146.733,438.661 140.074,435.621 133.508,432.587 127.475,433.057 M88.427,469.705 Q88.332,469.711 88.24,469.694 88.145,469.677 88.053,469.682 83.598,468.852 80.614,468.611 72.589,467.925 66.662,469.715 59.298,471.978 58.422,472.487 56.963,473.334 56.894,475.957 56.907,478.772 58.186,480.821 58.547,481.328 59.23,482.152 59.317,482.248 59.405,482.351 L59.449,482.4 M64.75,477.851 Q71.759,478.044 84.3,481.785 84.484,481.84 84.668,481.902 M59.449,482.4 Q61.583,484.983 66.507,490.343 73.066,497.43 77.358,500.679 78.142,501.251 78.842,501.709 84.789,505.643 92.084,506.002 97.416,506.239 104.893,508.204 110.804,509.697 112.714,509.159 M115.872,518.736 L119.708,529.481 Q119.778,529.646 119.828,529.816 M72.811,506.682 Q69.512,509.948 65.578,529.498 63.807,538.394 63.393,540.526 62.781,544.334 62.514,548.633 62.19,553.866 63.614,565.681 64.945,577.49 64.539,584.031 64.497,584.711 64.452,585.433 64.184,588.538 63.555,592.319 62.538,598.519 60.563,606.533 59.178,612.153 57.323,618.668 50.845,641.437 49.661,660.501 49.47,663.585 50.251,673.671 51.067,683.196 50.77,684.96 M84.668,481.902 Q86.544,482.444 88.535,483.08 103.628,487.769 109.627,487.86 M93.963,528.633 L94.004,530.981 Q93.871,533.13 92.11,538.837 90.343,544.638 89.854,549.485 89.237,554.888 88.669,564.046 88.605,565.074 88.776,568.368 88.941,571.756 88.866,572.97 88.861,573.038 88.857,573.111 88.684,575.621 87.759,580.219 86.763,585.692 85.835,587.041 84.93,588.017 83.173,590.629 81.938,592.381 81.302,593.561 80.666,594.741 80.628,595.349 M81.008,634.585 Q80.961,635.333 79.364,642.926 77.674,650.513 77.604,651.635 77.476,653.691 78.805,659.495 79.428,662.418 79.738,664.103 80.01,665.765 79.982,666.229 79.784,669.406 76.709,675.125 73.954,680.208 71.964,682.054 M64.452,585.433 Q59.085,585.756 52.54,591.448 46.479,596.663 44.514,602.864 43.946,604.673 43.722,606.567 42.977,612.524 34.523,674.665 26.437,735.421 25.938,741.957 25.665,746.349 24.541,753.878 24.386,754.984 24.27,755.971 L24.265,756.065 Q23.971,759.246 24.275,761.178 24.545,762.884 59.602,822.283 94.413,881.105 94.274,884.849 M42.295,602.351 Q33.039,606.373 23.83,609.648 10.691,614.273 3.56,614.299 -11.222,613.663 -28.394,612.222 -62.638,609.253 -74.49,605.234 M94.989,694.975 Q94.339,695.638 93.638,695.595 M91.928,726.165 L91.925,726.211 Q91.559,728.337 91.136,730.618 88.875,742.805 85.664,759.078 84.959,762.881 93.815,781.911 104.753,805.198 106.946,812.182 121.895,860.015 121.069,880.883 M-76.24,718.072 Q-69.026,719.74 -51.397,727.401 -32.219,735.814 -21.942,742.55 -7.968,751.672 -4.224,753.312 3.534,756.795 13.977,756.318 18.211,756.111 21.803,755.678" test="Avatar Lady"/>
      <path id="Layer4_0_2_STROKES" stroke="#FFBC00" stroke-width="1.873" stroke-linejoin="round" stroke-linecap="round" fill="none" d="M201.166,439.038 Q214.975,430.906 230.116,422.26 L237.49,430.41 Q245.075,439.699 246.041,445.294 246.381,447.379 239.181,450.028 231.128,452.811 229.81,455.919 228.164,459.757 228.758,469.831 229.038,474.183 229.568,477.949 229.598,478.188 229.632,478.422 M122.036,484.409 Q124.275,483.732 126.734,482.777 134.129,479.866 143.484,474.389 151.466,469.725 173.537,455.71 186.609,447.658 201.166,439.038 M229.282,478.776 Q229.536,479.064 229.761,479.368 229.689,478.902 229.632,478.422 M229.282,478.776 Q226.703,475.434 222.609,472.17 213.571,465.136 204.788,466.092 196.284,467.065 181.371,474.583 167.014,482.393 159.897,485.774 158.883,486.251 158.014,486.642 153.185,488.875 135.953,495.967 134.222,496.685 132.68,497.312 128.184,499.229 125.398,500.518 122.346,501.961 121.372,502.66" test="Avatar Lady"/>
      <path id="Layer4_0_3_STROKES" stroke="#FF0" stroke-width="1.873" stroke-linejoin="round" stroke-linecap="round" fill="none" d="M252.118,478.88 Q251.449,485.124 257.54,483.719 258.355,483.503 259.03,483.155 261.394,481.876 261.878,478.829 262.355,475.669 259.324,474.637 M196.389,494.089 Q194.743,496.426 194.428,496.969 194.317,497.244 194.271,497.992 193.969,502.851 200.791,503.274 203.128,503.419 205.825,500.772 208.318,498.394 208.422,496.712 208.451,496.245 206.26,493.764" test="Avatar Lady"/>
      <path id="Layer4_0_4_STROKES" stroke="#FFF" stroke-width="1.873" stroke-linejoin="round" stroke-linecap="round" fill="none" d="M183.092,551.145 L183.327,553.411 Q183.202,555.412 181.608,557.666 181.072,558.487 180.333,559.323 178.307,561.73 177.14,562.408 M183.352,559.041 Q192.525,565.426 203.937,564.446 208.066,564.421 212.288,564.402" test="Avatar Lady"/>
    </g>
    <g id="Censoredf0r1">
      <path fill="#000" stroke="none" d="M-18.85,403.35 L-18.85,629.9 829.1,629.9 829.1,403.35 -18.85,403.35Z" test="Censored"/>
      <path id="Layer2_0_1_STROKES" stroke="#F00" stroke-width="1" stroke-linejoin="round" stroke-linecap="round" fill="none" d="M440.05,433.95 Q451.45,433.7 458.4,442.45 467.15,453.5 468.45,478.35 469.85,504.55 462.7,519.75 456.1,533.8 444.2,534.55 432.35,535.35 426.85,525.8 420.75,515.3 419.8,488.15 418.8,461.5 424.1,448.25 428.75,436.6 438.75,434.25 M495.6,540.1 Q496.6,530.75 496.9,517.65 497.2,502.55 496.25,489.8 496.1,487.9 494.45,475.35 493.3,466.4 490.7,448.25 489,434.25 490.35,432.65 491.55,431.25 495.9,430.8 500.65,430.2 505.5,431.3 518.75,434.35 520.4,446.7 522.1,459.55 514.25,468.5 507.95,475.7 498.4,478.15 503.3,481.95 507.4,487.15 509.05,489.15 511.9,493.4 515.55,498.8 519.6,507.2 527.8,523.85 530,538.55 M571.35,432.65 Q570.6,432.65 561.5,433.35 554.45,433.85 553.1,433.3 551.6,432.65 553.4,483.6 553.45,484.9 553.55,486.15 555.9,485.8 562.05,485.75 568.9,485.7 569.75,485.55 M576.25,536.2 Q574.4,536.65 565.05,535.95 555.95,535.2 555.7,534.9 555.25,534.3 553.55,486.15 553.25,486.15 553.1,486.2 M604.7,431.3 Q618.7,430 628.4,436.15 644.15,446.1 645.2,473.8 646.25,502.4 642.45,513.4 640.25,519.95 633.1,524.1 628.35,526.9 618.55,528.8 610.8,530.3 606.65,530.3 604.3,530.3 604.1,480.45 603.85,429.95 604.7,431.3Z M184.5,451.6 Q183.2,445.85 177.55,440.35 171.75,434.7 166.2,434.25 158.55,433.6 151.55,437.15 141.9,442.05 136.2,454.2 129.55,468.45 127.75,482.8 125.85,498.1 129.9,511.35 132.45,519.85 135.75,524.45 140.25,530.65 146.6,530.65 153.75,530.65 160.75,526.7 167.95,522.75 170.85,516.9 M245.95,432.3 Q246.45,433.4 229.65,434.45 212.85,435.5 212.85,435.2 212.8,434.8 212.85,482.95 213.9,483.4 230.8,482.6 247.75,481.85 248.25,481 M277.65,536.55 Q277.8,536.7 277,484.45 276.2,432.15 276.35,432.3 276.6,432.65 327,528.05 323.8,429.05 322.4,429.7 M393.3,453.2 Q391.25,446.4 386,440.35 379.85,433.15 373.45,433.1 367,433 361.25,439.3 355.5,445.55 356.05,452.3 356.35,455.55 357.2,457.8 360.1,463.35 364.75,467.85 365.75,468.75 366.65,469.9 368.9,472.7 371.6,476.35 387.7,497.65 388.75,507.75 390,519.95 383.9,526.65 379.05,531.95 373.4,531.6 364.85,531.1 360.6,528.1 351.95,521.95 352.15,505.15 M212.85,482.95 Q212.65,483 212.5,507.4 212.4,531.7 212.25,533.25 212.1,534.85 229.65,535.1 247.15,535.35 248.25,533.25" test="Censored"/>
      <path id="Layer1_0_1_STROKES" stroke="#F00" stroke-width="1" stroke-linejoin="round" stroke-linecap="round" fill="none" d="M65.35,401.7 L732,401.7 732,561.5 65.35,561.5 65.35,401.7Z" test="Censored"/>
    </g>
  </g>
</svg>