<?xml version="1.0" encoding="utf-8"?>
<svg id="EdithAnim13" image-rendering="inherit" baseProfile="basic" version="1.1" x="0px" y="0px" width="800" height="600" xmlns="http://www.w3.org/2000/svg" xmlns:xlink="http://www.w3.org/1999/xlink">
  <g id="22_Avatarf160r1" overflow="visible">
    <g id="Avatar-Manf0r1">
      <g id="Tailf0r1">
        <path id="Layer6_0_1_STROKES" stroke="#009EFF" stroke-width="2.553" stroke-linejoin="round" stroke-linecap="round" fill="none" d="M512.099,667.026 Q510.813,648.267 510.105,629.498 509.471,611.298 503.561,594.107 497.065,575.384 478.96,566.864 456.957,556.599 453.768,579.546 453.303,582.89 455.488,585.824 460.655,592.876 468.003,597.39 475.685,594.586 481.461,599.885 488.415,606.317 491.474,615.961 498.625,638.719 504.319,661.667 505.929,668.088 504.846,674.602" test="Tail_2.3242325232423263e+312.3242325232423263e+31_2.3242325232423263e+312.3242325232423263e+31_2.3242325232423263e+312.3242325232423263e+31_2.3242325232423263e+312.3242325232423263e+31_2.3242325232423263e+312.3242325232423263e+31_2.3242325232423263e+312.3242325232423263e+31_2.3242325232423263e+312.3242325232423263e+31_2.3242325232423263e+312.3242325232423263e+31_2.3242325232423263e+312.3242325232423263e+31_2.3242325232423263e+312.3242325232423263e+31_2.3242325232423263e+312.3242325232423263e+31_2.3242325232423263e+312.3242325232423263e+31_2.3242325232423263e+312.3242325232423263e+31_2.3242325232423263e+312.3242325232423263e+31_2.3242325232423263e+312.3242325232423263e+31_2.3242325232423263e+312.3242325232423263e+31_2.3242325232423263e+312.3242325232423263e+31_2.3242325232423263e+312.3242325232423263e+31_2.3242325232423263e+312.3242325232423263e+31_2.3242325232423263e+312.3242325232423263e+31_2.3242325232423263e+312.3242325232423263e+31_2.3242325232423263e+312.3242325232423263e+31_23242325232423262324232523242326"/>
      </g>
      <path fill="#000" stroke="none" d="M469.593,571.545 Q465.046,561.337 459.292,559.852 457.993,559.481 442.217,564.028 423.471,569.41 402.22,569.596 380.134,569.782 358.975,562.914 341.993,555.954 340.044,556.14 333.362,559.11 331.506,560.409 328.166,562.636 328.444,565.42 328.63,567.462 328.815,578.69 329.465,589.548 332.62,593.26 336.054,597.25 352.665,605.881 366.399,612.841 380.412,618.78 389.599,622.678 403.426,640.031 410.479,648.847 418.46,659.148 420.13,660.447 418.46,662.303 417.161,663.695 417.346,663.695 L430.524,659.612 Q447.321,654.322 458.735,636.598 468.479,621.378 472.284,600.684 475.346,584.258 469.593,571.545 M475.532,185.404 L472.191,184.012 Q472.143,184.129 472.098,184.198 471.092,186.766 470.428,189.116 468.665,195.426 465.881,205.078 465.818,205.246 465.695,205.356 463.152,212.112 457.9,215.1 446.857,221.41 440.732,224.38 L444.908,233.66 Q444.444,240.434 446.578,285.814 446.656,287.488 446.671,289.062 448.403,324.52 448.62,335.276 448.618,335.347 448.62,335.369 448.652,337.856 448.62,338.988 448.249,353.558 450.94,376.572 451.311,379.82 456.415,377.129 461.519,374.345 461.148,372.396 460.962,371.004 463.097,371.746 464.86,372.396 465.324,372.86 465.417,372.953 472.284,349.196 L477.852,358.476 Q477.945,358.569 481.1,338.06 L486.668,340.38 Q486.776,340.49 486.018,330.636 486.059,330.614 486.018,330.543 484.96,315.395 481.935,276.905 480.1,253.386 478.687,237.929 476.939,217.268 475.996,211.017 475.732,209.194 475.532,208.604 475.732,209.194 475.996,211.017 476.939,217.268 478.687,237.929 L480.172,237.836 Q482.028,237.65 487.503,232.175 492.329,227.535 495.948,229.02 499.196,230.412 518.684,258.623 541.142,287.206 559.516,291.66 542.998,292.217 518.498,311.055 510.889,316.902 503.372,323.954 L502.258,324.975 Q503.58,339.081 507.919,387.337 L508.94,387.244 Q513.766,384.553 547.545,358.012 580.118,332.306 590.604,323.212 598.399,316.438 604.802,305.766 608.05,300.29 611.948,293.516 613.804,291.382 617.794,288.412 621.042,285.442 621.228,280.524 621.414,275.698 586.15,252.962 547.081,228.649 539.564,222.988 517.478,206.377 507.177,199.695 494.905,191.649 486.575,188.095 479.654,185.15 475.532,185.404 M409.551,179.743 Q412.335,179.279 414.934,178.815 419.11,178.815 418.831,183.919 426.812,182.991 429.967,183.919 433.308,184.94 433.215,188.559 L438.412,190.972 Q442.061,183.878 450.94,177.98 456.044,174.546 460.406,173.433 460.474,173.418 460.498,173.34 L459.292,165.916 Q460.684,165.823 457.993,162.575 453.074,156.914 449.084,151.996 443.702,145.314 424.956,139.282 408.53,133.993 399.436,133.9 370.297,133.622 350.252,141.788 337.817,146.892 326.681,162.297 324.546,165.216 322.783,167.865 317.807,175.753 316.287,181.692 L316.287,183.919 Q316.473,183.919 317.308,184.198 318.236,184.383 318.886,184.383 322.226,184.383 325.567,181.692 329.372,178.537 332.991,177.887 L332.991,180.207 337.167,180.207 Q339.951,179.65 345.241,178.073 349.324,176.774 350.159,176.959 L350.159,179.279 Q351.087,179.279 354.799,179.743 360.924,179.743 366.863,176.495 L371.503,176.495 371.503,178.351 378.927,178.351 Q391.177,174.639 391.919,174.639 393.126,174.639 394.239,175.474 395.538,176.402 397.951,176.495 397.951,178.815 397.487,179.743 L409.551,179.743Z" test="Avatar Man" stroke-width="1.856"/>
      <path id="Layer5_0_1_STROKES" stroke="#009EFF" stroke-width="1.856" stroke-linejoin="round" stroke-linecap="round" fill="none" d="M433.215,188.559 Q433.308,184.94 429.967,183.919 426.812,182.991 418.831,183.919 419.11,178.815 414.934,178.815 412.335,179.279 409.551,179.743 L397.487,179.743 Q397.951,178.815 397.951,176.495 395.538,176.402 394.239,175.474 393.126,174.639 391.919,174.639 391.177,174.639 378.927,178.351 L371.503,178.351 371.503,176.495 366.863,176.495 Q360.924,179.743 354.799,179.743 351.087,179.279 350.159,179.279 L350.159,176.959 Q349.324,176.774 345.241,178.073 339.951,179.65 337.167,180.207 L332.991,180.207 332.991,177.887 Q329.372,178.537 325.567,181.692 322.226,184.383 318.886,184.383 318.236,184.383 317.308,184.198 316.473,183.919 316.287,183.919 L316.287,181.692 Q317.807,175.753 322.83,167.911 324.546,165.216 326.681,162.297 337.817,146.892 350.252,141.788 370.297,133.622 399.436,133.9 408.53,133.993 424.956,139.282 443.702,145.314 449.084,151.996 453.074,156.914 457.993,162.575 460.684,165.823 459.292,165.916 M460.545,173.386 Q460.613,173.394 460.684,173.386 463.49,172.766 469.5,172.412 473.862,172.226 476.553,170.463 478.038,169.535 480.172,167.772 481.007,167.308 477.574,173.247 475.996,175.938 474.697,178.537 473.902,180.098 473.258,181.599 473.104,181.909 472.98,182.202 472.709,182.781 472.47,183.362 472.325,183.689 472.191,184.012 M475.532,185.404 Q479.654,185.15 486.622,188.142 494.905,191.649 507.177,199.695 517.478,206.377 539.564,222.988 547.081,228.649 586.15,252.962 621.414,275.698 621.228,280.524 621.042,285.442 617.794,288.412 613.804,291.382 611.948,293.516 608.05,300.29 604.802,305.766 598.399,316.438 590.604,323.212 580.118,332.306 547.545,358.012 513.766,384.553 508.94,387.244 508.459,387.558 508.012,387.847 502.611,391.351 500.217,392.719 495.948,395.225 492.236,394.668 M474.697,178.537 Q473.251,180.122 472.052,181.042 470.84,181.926 469.871,182.156 466.345,182.434 462.076,183.084 456.601,183.919 453.631,185.961 449.641,189.394 445.836,192.364 441.103,196.076 438.134,197.839 L436.092,198.86 Q436.539,194.766 438.458,191.018 M432.287,188.559 L433.215,188.559 M438.458,191.018 Q442.061,183.878 450.94,177.98 456.044,174.546 460.406,173.433 460.474,173.418 460.545,173.386 M472.191,184.012 Q472.143,184.129 472.098,184.244 471.092,186.766 470.428,189.116 468.665,195.426 465.881,205.078 465.818,205.246 465.742,205.402 463.152,212.112 457.9,215.1 446.857,221.41 440.732,224.38 M444.908,233.66 Q444.444,240.434 446.578,285.814 446.656,287.488 446.718,289.108 448.403,324.52 448.62,335.276 448.618,335.347 448.62,335.415 448.652,337.856 448.62,338.988 448.249,353.558 450.94,376.572 451.311,379.82 456.415,377.129 461.519,374.345 461.148,372.396 460.962,371.004 463.097,371.746 464.86,372.396 465.324,372.86 465.417,372.953 472.284,349.196 L477.852,358.476 Q477.945,358.569 481.1,338.06 L486.668,340.38 Q486.776,340.49 486.065,330.682 486.059,330.614 486.065,330.543 484.96,315.395 481.935,276.905 480.1,253.386 478.734,237.929 476.939,217.268 475.996,211.017 475.732,209.194 475.532,208.604 M502.258,325.022 L503.372,323.954 Q510.889,316.902 518.498,311.055 542.998,292.217 559.516,291.66 541.142,287.206 518.684,258.623 499.196,230.412 495.948,229.02 492.329,227.535 487.503,232.175 482.028,237.65 480.172,237.836 M375.772,230.412 Q376.854,230.586 379.113,230.69 381.689,230.783 385.794,230.783 393.033,230.69 396.188,230.412 402.034,229.855 402.777,229.67 406.489,228.649 406.86,225.772 M430.06,304.652 Q430.988,310.684 433.122,319.407 435.721,329.894 437.948,335.276 M326.588,301.868 Q326.588,301.961 326.959,311.426 327.238,318.201 329.836,322.748 330.671,324.207 331.924,325.625 335.725,329.869 343.385,333.698 353.964,339.081 364.172,339.452 L367.93,339.73 368.07,339.73 Q377.906,340.102 380.876,339.916 385.98,339.545 392.012,337.596 396.466,336.204 408.438,325.439 416.946,317.711 425.977,308.271 426.094,308.158 426.209,308.039 426.279,307.972 426.348,307.9 426.443,307.811 426.534,307.714 427.959,306.202 429.41,304.652 429.505,304.552 429.596,304.466 429.633,304.413 429.689,304.374 429.704,304.32 429.735,304.281 440.661,292.631 442.124,289.34 M367.884,340.38 Q367.049,344.37 365.471,353.465 363.894,361.353 361.388,365.436 M497.34,329.708 L502.258,325.022 M487.132,403.484 Q487.039,403.67 477.666,428.076 470.985,445.43 468.572,455.452 465.602,467.609 463.004,503.801 460.406,539.065 461.612,546.86 M408.159,451.183 Q408.716,453.225 410.572,453.782 411.129,453.967 412.614,453.967 415.026,453.967 415.954,452.854 416.326,452.482 417.81,449.049 M371.039,437.727 Q370.854,454.617 372.06,457.215 374.009,461.855 384.959,461.855 390.249,461.855 390.713,461.762 391.27,461.67 393.311,460.463 M372.431,494.799 Q371.503,497.583 371.503,500.646 371.503,505.75 375.586,506.028 378.278,506.121 386.815,505.935 M369.183,533.311 Q373.916,536.559 376.978,537.302 379.206,537.766 383.103,537.023 M416.604,664.252 Q409.644,667.5 390.991,671.026 372.153,674.553 352.108,676.316 334.754,677.894 293.922,677.058 263.113,676.502 245.388,675.388 231.746,674.553 204.092,671.676 197.225,670.934 192.121,672.047 188.502,672.882 187.388,672.14 M321.02,166.844 Q317.494,164.71 313.318,162.482 304.966,158.121 302.46,158.492 299.769,158.863 301.996,172.134 303.852,183.455 305.708,188.188 M310.348,200.716 Q311.09,203.778 313.039,209.903 314.153,214.822 311.276,216.956 307.733,219.597 304.362,222.06 L304.316,222.106 Q253.682,259.703 247.244,261.964 241.583,263.634 240.191,264.098 238.242,264.841 237.964,266.604 237.5,270.223 237.314,282.658 237.036,296.95 237.964,300.012 241.119,312.633 265.433,348.546 289.282,383.718 303.388,397.452 M312.204,232.732 Q315.081,234.217 320.834,234.959 321.068,234.994 321.298,235.006 326.729,235.783 332.156,235.516 335.59,235.33 343.57,234.031 350.066,232.918 352.108,233.196 M311.74,256.86 Q310.626,258.716 298.655,270.687 287.798,281.545 284.828,284.236 M334.383,278.575 Q338.559,278.575 343.199,277.647 L361.295,277.647 Q355.727,283.586 352.572,286.742 346.726,292.495 345.334,292.495 342.828,292.495 339.116,287.298 335.311,281.359 333.919,279.967 M274.62,279.132 Q276.212,282.979 279.631,287.855 279.668,287.909 279.724,287.948 288.232,300.149 308.028,318.758 317.224,327.394 323.99,333.977 339.645,349.163 342.364,353.372 M311.276,423.436 Q310.626,438.191 313.596,445.244 315.452,449.513 321.113,454.338 326.959,459.071 332.156,460.556 M327.052,468.908 Q327.145,471.785 326.681,483.663 326.495,494.799 327.98,497.676 329.743,501.11 334.105,503.986 338.374,506.77 340.972,506.492 M333.548,510.204 Q333.641,513.266 333.641,517 333.826,521.526 335.404,523.66 335.59,523.938 340.601,527.372 343.942,529.692 343.756,533.868 343.57,537.023 341.622,544.818 339.951,551.314 340.508,553.356 M317.772,566.812 Q296.057,562.822 269.794,558.738 217.362,550.665 195.369,550.665 180.706,550.665 164.002,547.602 150.825,545.19 148.041,546.025 143.215,547.51 138.668,555.119 134.121,562.822 134.492,569.132 134.77,573.401 136.255,584.722 137.462,594.838 136.348,598.828 M317.308,593.724 Q308.77,595.116 269.423,595.951 226.735,596.879 219.868,597.436 212.258,598.086 188.038,601.983 166.044,605.51 157.228,605.788 146.742,606.159 137.462,604.86 132.636,604.21 125.676,602.54 122.057,601.705 118.345,604.21 116.396,605.602 111.756,610.428 106.466,615.903 111.292,627.596 112.22,629.916 110.642,643.186 108.879,656.55 109.9,659.148 L113.148,667.036 Q116.767,676.966 118.252,687.452 M183.676,659.148 Q184.975,663.324 187.388,675.295 189.986,688.102 189.708,690.7" test="Avatar Man"/>
      <path id="Layer5_0_2_STROKES" stroke="#FF0" stroke-width="1.856" stroke-linejoin="round" stroke-linecap="round" fill="none" d="M378.927,234.031 Q377,239.228 379.855,243.033 381.804,247.023 385.423,247.023 386.908,247.023 388.95,245.91 391.27,244.61 391.919,242.847 M320.927,238.207 Q319,244.703 319,245.167 319,247.055 321.391,249.065 322.132,250.115 323.247,251.199 326.681,254.447 330.207,254.447 332.063,254.447 333.27,252.591 334.012,251.57 335.311,249.343" test="Avatar Man"/>
      <path id="Layer5_0_3_STROKES" stroke="#FFF" stroke-width="1.856" stroke-linejoin="round" stroke-linecap="round" fill="none" d="M411.407,284.607 Q417.625,287.113 417.903,291.289 417.922,291.552 417.95,291.846 417.944,291.916 417.95,291.985 L417.95,292.124 Q417.985,294.539 417.439,298.991 M403.055,301.311 Q409.171,299.852 412.892,295.372 414.139,293.872 415.119,292.031" test="Avatar Man"/>
      <path id="Layer5_0_4_STROKES" stroke="#F90" stroke-width="1.856" stroke-linejoin="round" stroke-linecap="round" fill="none" d="M340.044,556.14 Q341.993,555.954 358.975,562.914 380.134,569.782 402.22,569.596 423.471,569.41 442.217,564.028 457.993,559.481 459.292,559.852 465.046,561.337 469.593,571.545 475.346,584.258 472.284,600.684 468.479,621.378 458.735,636.598 447.321,654.322 430.524,659.612 L417.346,663.695 Q417.161,663.695 418.46,662.303 420.13,660.447 418.46,659.148 410.479,648.847 403.426,640.031 389.599,622.678 380.412,618.78 366.399,612.841 352.665,605.881 336.054,597.25 332.62,593.26 329.465,589.548 328.815,578.69 328.63,567.462 328.444,565.42 328.166,562.636 331.506,560.409 333.362,559.11 340.044,556.14Z" test="Avatar Man"/>
    </g>
    <g id="Avatar-Lady">
      <path fill="#000" stroke="none" d="M194.507,586.991 Q190.536,585.798 187.087,585.466 177.99,585.145 174.152,584.891 167.881,584.476 161.502,581.421 157.652,579.944 152.346,576.302 141.829,569.024 133.007,557.441 124.296,546.004 118.739,532.993 L116.699,533.986 Q115.766,540.975 110.569,556.989 106.673,569.17 105.574,578.468 105.365,580.199 105.257,581.832 105.034,585.201 104.704,601.537 103.154,624.937 99.781,633.269 97.531,638.854 94.489,645.046 92.581,649.714 92.135,656.453 91.886,660.206 92.419,664.933 L92.413,665.026 Q92.902,669.398 94.033,674.629 96.322,685.498 95.968,690.833 95.782,693.641 94.573,696.287 93.915,697.701 93.214,698.359 L94.706,699.962 Q94.605,702.099 94.009,706.215 93.984,706.422 93.985,706.589 93.166,712.275 91.489,721.56 L91.483,721.653 Q90.819,725.368 90.013,729.641 L93.677,732.516 Q96.854,728.725 104.673,721.211 115.614,710.748 118.407,706.891 L118.937,705.986 Q123.235,702.134 127.468,693.577 132.543,682.256 136.021,675.154 136.784,673.574 137.449,672.052 137.764,671.522 137.991,670.96 138.1,670.85 138.104,670.685 138.194,670.627 138.21,670.504 L138.21,670.504 Q145.111,656.346 149.513,647.468 158.64,628.895 163.609,620.575 165.903,616.692 168.922,612.748 170.128,611.151 171.392,609.527 L171.698,609.171 171.797,609.084 Q175,605.349 178.783,601.556 187.546,592.735 193.89,589.207 L194.507,586.991 M183.029,418.234 L183.279,404.525 182.811,404.494 Q172.328,403.8 166.107,404.046 153.565,404.625 143.364,408.18 133.538,411.759 124.187,418.097 120.65,420.463 117.182,423.085 117.177,423.13 117.082,423.173 116.835,423.393 116.49,423.604 111.328,427.752 106.404,432.525 97.971,440.615 93.981,449.752 89.998,458.795 88.274,469.21 L87.577,472.642 Q90.51,473.237 94.067,474.012 99.901,475.339 107.716,480.839 108.117,481.146 113.253,485.248 113.304,485.27 113.346,485.254 115.079,486.706 117.36,488.529 115.079,486.706 113.346,485.254 113.304,485.27 113.253,485.248 108.117,481.146 107.716,480.839 99.901,475.339 94.067,474.012 90.51,473.237 87.577,472.642 L83.757,484.893 Q85.634,485.444 87.626,486.089 102.728,490.85 108.737,490.966 102.728,490.85 87.626,486.089 85.634,485.444 83.757,484.893 83.573,484.83 83.389,484.774 70.84,480.974 63.819,480.752 L58.442,485.284 Q60.616,487.884 65.528,493.274 72.069,500.401 76.308,503.671 77.138,504.251 77.837,504.713 83.779,508.679 91.086,509.069 96.428,509.329 103.91,511.328 109.826,512.848 111.742,512.317 L117.533,514.299 114.866,521.925 118.664,532.706 Q118.734,532.872 118.739,532.993 124.296,546.004 133.007,557.441 141.829,569.024 152.346,576.302 157.652,579.944 161.502,581.421 167.881,584.476 174.152,584.891 177.99,585.145 187.087,585.466 190.536,585.798 194.507,586.991 L194.601,586.998 Q197.695,588.004 201.11,589.497 211.532,593.948 214.671,594.814 221.405,596.764 225.51,595.814 227.426,595.283 232.703,592.248 235.929,590.393 238.82,582.218 242.142,571.815 244.298,566.223 246.667,560.269 254.861,548.684 255.942,547.15 256.938,545.72 263.691,535.989 266.366,531.114 266.659,530.589 266.902,530.116 271.117,521.84 269.303,510.909 267.889,502.448 263.955,496.547 L258.392,486.871 Q257.761,487.221 256.944,487.433 250.836,488.815 251.532,482.562 L246.639,479.794 229.006,482.01 Q229.061,482.492 229.131,482.959 228.907,482.653 228.607,482.36 226.084,479.004 221.996,475.717 212.97,468.633 204.166,469.554 195.643,470.493 180.671,477.963 166.254,485.728 159.067,489.035 158.092,489.559 157.22,489.947 152.373,492.164 135.079,499.197 133.342,499.91 131.798,500.484 127.282,502.434 124.442,503.663 121.422,505.146 120.443,505.843 121.422,505.146 124.442,503.663 127.282,502.434 131.798,500.484 133.342,499.91 135.079,499.197 152.373,492.164 157.22,489.947 158.092,489.559 159.067,489.035 166.254,485.728 180.671,477.963 195.643,470.493 204.166,469.554 212.97,468.633 221.996,475.717 226.084,479.004 228.607,482.36 L229.006,482.01 Q228.973,481.775 228.944,481.536 228.428,477.76 228.166,473.4 227.613,463.304 229.277,459.466 230.611,456.358 238.691,453.603 245.915,450.979 245.584,448.889 244.639,443.279 237.079,433.942 L229.725,425.746 Q214.52,434.344 200.604,442.431 186.03,451.009 172.9,459.022 150.73,472.971 142.714,477.611 133.318,483.059 125.901,485.898 123.43,486.891 121.184,487.56 123.43,486.891 125.901,485.898 133.318,483.059 142.714,477.611 150.73,472.971 172.9,459.022 186.03,451.009 200.604,442.431 L195.203,433.142 Q194.435,431.963 189.659,426.006 184.446,419.55 183.029,418.234 M212.062,489.443 Q210.845,487.952 206.489,487.006 203.188,486.289 192.694,490.886 189.322,492.404 185.22,494.434 168.308,502.809 165.687,502.635 168.308,502.809 185.22,494.434 189.322,492.404 192.694,490.886 203.188,486.289 206.489,487.006 210.845,487.952 212.062,489.443 213.279,490.934 217.505,493.846 213.279,490.934 212.062,489.443 M205.061,504.303 Q207.568,501.931 207.68,500.246 207.711,499.778 205.526,497.283 207.711,499.778 207.68,500.246 207.568,501.931 205.061,504.303 202.348,506.944 200.008,506.789 193.175,506.336 193.497,501.469 193.547,500.72 193.659,500.445 193.977,499.902 195.636,497.568 193.977,499.902 193.659,500.445 193.547,500.72 193.497,501.469 193.175,506.336 200.008,506.789 202.348,506.944 205.061,504.303 M180.519,561.152 Q180.021,562.022 179.278,562.856 177.239,565.259 176.066,565.934 177.239,565.259 179.278,562.856 180.021,562.022 180.519,561.152 182.169,558.951 182.302,556.946 L182.076,554.674 182.302,556.946 Q182.169,558.951 180.519,561.152 M228.872,532.297 Q231.242,532.454 234.475,531.446 237.957,530.472 242.398,528.211 248.747,524.897 250.389,522.535 251.004,521.756 251.049,521.075 251.099,520.326 249.394,517.675 247.783,515.03 247.053,514.699 247.783,515.03 249.394,517.675 251.099,520.326 251.049,521.075 251.004,521.756 250.389,522.535 248.747,524.897 242.398,528.211 237.957,530.472 234.475,531.446 231.242,532.454 228.872,532.297 225.221,532.055 222.961,529.273 219.403,524.807 219.134,524.601 219.403,524.807 222.961,529.273 225.221,532.055 228.872,532.297 M249.915,538.204 Q249.964,537.455 248.922,536.164 249.964,537.455 249.915,538.204 249.834,539.42 249.298,540.419 248.762,541.418 247.77,542.198 245.693,543.753 242.978,543.573 241.949,543.505 239.852,542.52 237.848,541.541 236.6,540.518 237.848,541.541 239.852,542.52 241.949,543.505 242.978,543.573 245.693,543.753 247.77,542.198 248.762,541.418 249.298,540.419 249.834,539.42 249.915,538.204 M202.904,568.087 Q207.041,568.079 211.272,568.078 207.041,568.079 202.904,568.087 191.467,569.022 182.304,562.586 191.467,569.022 202.904,568.087 M150.095,447.076 Q146.118,441.83 139.459,438.757 132.893,435.689 126.847,436.135 132.893,435.689 139.459,438.757 146.118,441.83 150.095,447.076Z" test="Avatar Lady" stroke-width="1.876"/>
      <path id="Layer4_0_1_STROKES" stroke="#009EFF" stroke-width="1.876" stroke-linejoin="round" stroke-linecap="round" fill="none" d="M246.639,479.794 Q245.807,475.32 249.382,473.865 252.869,472.31 256.12,471.491 M228.263,420.854 Q228.599,420.03 228.63,419.562 228.692,418.626 226,412.431 222.815,405.17 222.34,403.822 220.603,398.818 215.723,397.273 210.606,396.464 208.883,395.504 209.165,396.933 208.861,401.519 L208.227,408.246 Q207.94,408.321 205.931,407.436 203.734,406.538 202.704,406.47 199.054,406.228 197.101,405.911 192.458,405.039 187.216,404.692 L183.279,404.525 M183.029,418.234 Q184.446,419.55 189.659,426.006 194.435,431.963 195.203,433.142 M208.883,395.504 Q208.886,395.41 208.796,395.404 L208.815,395.123 Q208.894,395.315 208.883,395.504Z M182.811,404.494 Q182.823,404.307 182.917,404.313 183.085,404.506 183.279,404.525 L182.811,404.494 Q172.328,403.8 166.107,404.046 153.565,404.625 143.364,408.18 133.538,411.759 124.187,418.097 120.65,420.463 117.229,423.088 117.177,423.13 117.129,423.176 116.835,423.393 116.537,423.607 111.328,427.752 106.404,432.525 97.971,440.615 93.981,449.752 89.998,458.795 88.274,469.21 M87.573,472.689 Q90.51,473.237 94.067,474.012 99.901,475.339 107.716,480.839 108.117,481.146 113.253,485.248 113.304,485.27 113.343,485.301 115.079,486.706 117.36,488.529 M217.505,493.846 Q213.279,490.934 212.062,489.443 210.845,487.952 206.489,487.006 203.188,486.289 192.691,490.933 189.322,492.404 185.22,494.434 168.308,502.809 165.687,502.635 M219.134,524.601 Q219.403,524.807 222.961,529.273 225.221,532.055 228.872,532.297 231.242,532.454 234.518,531.496 237.957,530.472 242.398,528.211 248.747,524.897 250.435,522.538 251.004,521.756 251.049,521.075 251.099,520.326 249.394,517.675 247.783,515.03 247.053,514.699 M263.955,496.547 Q267.889,502.448 269.303,510.909 271.117,521.84 266.902,530.116 266.659,530.589 266.366,531.114 263.691,535.989 256.938,545.72 255.942,547.15 254.861,548.684 246.667,560.269 244.298,566.223 242.142,571.815 238.82,582.218 235.929,590.393 232.703,592.248 227.426,595.283 225.51,595.814 221.405,596.764 214.671,594.814 211.532,593.948 201.11,589.497 197.695,588.004 194.598,587.044 L194.504,587.038 M193.89,589.207 Q187.546,592.735 178.783,601.556 175,605.349 171.844,609.087 L171.744,609.174 171.439,609.53 Q170.128,611.151 168.922,612.748 165.903,616.692 163.609,620.575 158.64,628.895 149.513,647.468 145.111,656.346 138.256,670.507 L138.207,670.551 Q138.194,670.627 138.15,670.688 138.1,670.85 138.035,671.01 137.764,671.522 137.496,672.055 136.784,673.574 136.021,675.154 132.543,682.256 127.468,693.577 123.235,702.134 118.937,705.986 M118.407,706.891 Q115.614,710.748 104.673,721.211 96.854,728.725 93.674,732.563 92.665,733.81 92.125,734.669 M236.6,540.518 Q237.848,541.541 239.852,542.52 241.949,543.505 242.978,543.573 245.693,543.753 247.77,542.198 248.762,541.418 249.298,540.419 249.834,539.42 249.915,538.204 249.964,537.455 248.922,536.164 M194.504,587.038 Q190.536,585.798 187.087,585.466 177.99,585.145 174.152,584.891 167.881,584.476 161.502,581.421 157.652,579.944 152.346,576.302 141.829,569.024 133.007,557.441 124.296,546.004 118.783,533.043 M116.699,533.986 Q115.766,540.975 110.569,556.989 106.673,569.17 105.574,578.468 105.365,580.199 105.257,581.832 105.034,585.201 104.704,601.537 103.154,624.937 99.781,633.269 97.531,638.854 94.489,645.046 92.581,649.714 92.135,656.453 91.886,660.206 92.416,664.98 L92.413,665.026 Q92.902,669.398 94.033,674.629 96.322,685.498 95.968,690.833 95.782,693.641 94.573,696.287 93.915,697.701 93.211,698.406 M94.706,699.962 Q94.605,702.099 94.006,706.262 93.984,706.422 93.985,706.589 93.166,712.275 91.486,721.606 L91.483,721.653 Q90.819,725.368 90.013,729.641 M164.297,622.971 L163.382,628.269 Q163.32,629.205 163.727,632.992 164.134,636.779 164.072,637.715 164.01,638.651 164.456,644.698 164.808,650.738 164.746,651.674 164.225,659.536 150.623,691.727 136.928,723.911 136.463,730.931 136.011,737.764 145.234,754.639 152.447,767.808 161.831,780.839 168.636,790.221 183.049,832.352 182.969,833.569 183.699,833.9 184.342,834.13 184.479,833.481 M99.553,770.133 Q101.806,771.599 113.186,784.292 125.341,798.07 125.161,800.785 124.938,804.154 146.835,822.715 168.733,841.275 168.485,845.019 168.41,846.142 168.791,846.074 169.171,846.005 169.159,846.192 L169.951,845.586 M150.095,447.076 Q146.118,441.83 139.459,438.757 132.893,435.689 126.847,436.135 M87.573,472.689 Q87.479,472.694 87.386,472.677 87.292,472.659 87.199,472.664 82.739,471.814 79.751,471.56 71.714,470.839 65.768,472.608 58.381,474.845 57.502,475.351 56.036,476.194 55.956,478.821 55.957,481.641 57.231,483.7 57.59,484.208 58.27,485.038 58.358,485.134 58.445,485.237 L58.489,485.287 M63.819,480.752 Q70.84,480.974 83.389,484.774 83.573,484.83 83.757,484.893 M58.489,485.287 Q60.616,487.884 65.528,493.274 72.069,500.401 76.355,503.674 77.138,504.251 77.837,504.713 83.779,508.679 91.086,509.069 96.428,509.329 103.91,511.328 109.826,512.848 111.742,512.317 M114.866,521.925 L118.664,532.706 Q118.734,532.872 118.783,533.043 M71.774,509.67 Q68.456,512.928 64.434,532.498 62.622,541.403 62.198,543.537 61.57,547.35 61.284,551.656 60.937,556.897 62.315,568.74 63.599,580.576 63.165,587.128 63.12,587.81 63.072,588.532 62.791,591.642 62.145,595.428 61.101,601.635 59.088,609.656 57.677,615.28 55.792,621.8 49.206,644.584 47.941,663.679 47.737,666.768 48.477,676.876 49.255,686.422 48.95,688.188 M83.757,484.893 Q85.634,485.444 87.626,486.089 102.728,490.85 108.737,490.966 M92.874,531.75 L92.907,534.102 Q92.764,536.255 90.976,541.965 89.181,547.769 88.671,552.624 88.031,558.034 87.423,567.207 87.355,568.236 87.513,571.537 87.664,574.932 87.583,576.148 87.579,576.216 87.574,576.289 87.39,578.804 86.444,583.406 85.423,588.885 84.488,590.233 83.577,591.207 81.806,593.816 80.562,595.567 79.92,596.746 79.278,597.926 79.238,598.534 M79.454,637.845 Q79.404,638.594 77.773,646.195 76.048,653.789 75.973,654.912 75.837,656.972 77.143,662.793 77.756,665.723 78.06,667.413 78.325,669.08 78.294,669.544 78.084,672.726 74.979,678.443 72.198,683.524 70.196,685.365 M63.072,588.532 Q57.694,588.834 51.113,594.509 45.019,599.708 43.025,605.913 42.448,607.723 42.215,609.619 41.444,615.585 32.716,677.806 24.362,738.642 23.834,745.187 23.543,749.587 22.385,757.125 22.226,758.233 22.106,759.222 L22.099,759.315 Q21.792,762.501 22.089,764.438 22.352,766.148 57.227,825.804 91.858,884.881 91.703,888.631 M40.803,605.389 Q31.514,609.381 22.274,612.623 9.091,617.202 1.947,617.199 -12.861,616.5 -30.058,614.985 -64.354,611.867 -76.211,607.792 M93.211,698.406 Q92.556,699.068 91.854,699.021 M90.013,729.641 L90.01,729.688 Q89.634,731.816 89.201,734.1 86.885,746.299 83.6,762.59 82.878,766.396 91.672,785.499 102.533,808.875 104.701,815.881 119.479,863.866 118.564,884.769 M-78.434,720.833 Q-71.214,722.534 -53.583,730.282 -34.405,738.791 -24.137,745.582 -10.175,754.78 -6.43,756.438 1.327,759.96 11.791,759.525 16.034,759.336 19.634,758.917" test="Avatar Lady"/>
      <path id="Layer4_0_2_STROKES" stroke="#FFBC00" stroke-width="1.876" stroke-linejoin="round" stroke-linecap="round" fill="none" d="M200.651,442.434 Q214.52,434.344 229.725,425.746 L237.079,433.942 Q244.639,443.279 245.584,448.889 245.915,450.979 238.691,453.603 230.611,456.358 229.277,459.466 227.613,463.304 228.166,473.4 228.428,477.76 228.944,481.536 228.973,481.775 229.006,482.01 M121.184,487.56 Q123.43,486.891 125.898,485.945 133.318,483.059 142.714,477.611 150.73,472.971 172.9,459.022 186.03,451.009 200.651,442.434 M228.654,482.363 Q228.907,482.653 229.131,482.959 229.061,482.492 229.006,482.01 M228.654,482.363 Q226.084,479.004 221.996,475.717 212.97,468.633 204.166,469.554 195.643,470.493 180.671,477.963 166.254,485.728 159.111,489.085 158.092,489.559 157.22,489.947 152.373,492.164 135.079,499.197 133.342,499.91 131.795,500.531 127.282,502.434 124.486,503.713 121.422,505.146 120.443,505.843" test="Avatar Lady"/>
      <path id="Layer4_0_3_STROKES" stroke="#FF0" stroke-width="1.876" stroke-linejoin="round" stroke-linecap="round" fill="none" d="M251.532,482.562 Q250.836,488.815 256.944,487.433 257.761,487.221 258.438,486.874 260.813,485.603 261.31,482.552 261.802,479.388 258.769,478.341 M195.636,497.568 Q193.977,499.902 193.659,500.445 193.547,500.72 193.497,501.469 193.175,506.336 200.008,506.789 202.348,506.944 205.061,504.303 207.568,501.931 207.68,500.246 207.711,499.778 205.526,497.283" test="Avatar Lady"/>
      <path id="Layer4_0_4_STROKES" stroke="#FFF" stroke-width="1.876" stroke-linejoin="round" stroke-linecap="round" fill="none" d="M182.076,554.674 L182.302,556.946 Q182.169,558.951 180.563,561.202 180.021,562.022 179.278,562.856 177.239,565.259 176.066,565.934 M182.304,562.586 Q191.467,569.022 202.904,568.087 207.041,568.079 211.272,568.078" test="Avatar Lady"/>
    </g>
    <g id="Censoredf0r1">
      <path fill="#000" stroke="none" d="M-18.85,403.35 L-18.85,629.9 829.1,629.9 829.1,403.35 -18.85,403.35Z" test="Censored"/>
      <path id="Layer2_0_1_STROKES" stroke="#F00" stroke-width="1" stroke-linejoin="round" stroke-linecap="round" fill="none" d="M440.05,433.95 Q451.45,433.7 458.4,442.45 467.15,453.5 468.45,478.35 469.85,504.55 462.7,519.75 456.1,533.8 444.2,534.55 432.35,535.35 426.85,525.8 420.75,515.3 419.8,488.15 418.8,461.5 424.1,448.25 428.75,436.6 438.75,434.25 M495.6,540.1 Q496.6,530.75 496.9,517.65 497.2,502.55 496.25,489.8 496.1,487.9 494.45,475.35 493.3,466.4 490.7,448.25 489,434.25 490.35,432.65 491.55,431.25 495.9,430.8 500.65,430.2 505.5,431.3 518.75,434.35 520.4,446.7 522.1,459.55 514.25,468.5 507.95,475.7 498.4,478.15 503.3,481.95 507.4,487.15 509.05,489.15 511.9,493.4 515.55,498.8 519.6,507.2 527.8,523.85 530,538.55 M571.35,432.65 Q570.6,432.65 561.5,433.35 554.45,433.85 553.1,433.3 551.6,432.65 553.4,483.6 553.45,484.9 553.55,486.15 555.9,485.8 562.05,485.75 568.9,485.7 569.75,485.55 M576.25,536.2 Q574.4,536.65 565.05,535.95 555.95,535.2 555.7,534.9 555.25,534.3 553.55,486.15 553.25,486.15 553.1,486.2 M604.7,431.3 Q618.7,430 628.4,436.15 644.15,446.1 645.2,473.8 646.25,502.4 642.45,513.4 640.25,519.95 633.1,524.1 628.35,526.9 618.55,528.8 610.8,530.3 606.65,530.3 604.3,530.3 604.1,480.45 603.85,429.95 604.7,431.3Z M184.5,451.6 Q183.2,445.85 177.55,440.35 171.75,434.7 166.2,434.25 158.55,433.6 151.55,437.15 141.9,442.05 136.2,454.2 129.55,468.45 127.75,482.8 125.85,498.1 129.9,511.35 132.45,519.85 135.75,524.45 140.25,530.65 146.6,530.65 153.75,530.65 160.75,526.7 167.95,522.75 170.85,516.9 M245.95,432.3 Q246.45,433.4 229.65,434.45 212.85,435.5 212.85,435.2 212.8,434.8 212.85,482.95 213.9,483.4 230.8,482.6 247.75,481.85 248.25,481 M277.65,536.55 Q277.8,536.7 277,484.45 276.2,432.15 276.35,432.3 276.6,432.65 327,528.05 323.8,429.05 322.4,429.7 M393.3,453.2 Q391.25,446.4 386,440.35 379.85,433.15 373.45,433.1 367,433 361.25,439.3 355.5,445.55 356.05,452.3 356.35,455.55 357.2,457.8 360.1,463.35 364.75,467.85 365.75,468.75 366.65,469.9 368.9,472.7 371.6,476.35 387.7,497.65 388.75,507.75 390,519.95 383.9,526.65 379.05,531.95 373.4,531.6 364.85,531.1 360.6,528.1 351.95,521.95 352.15,505.15 M212.85,482.95 Q212.65,483 212.5,507.4 212.4,531.7 212.25,533.25 212.1,534.85 229.65,535.1 247.15,535.35 248.25,533.25" test="Censored"/>
      <path id="Layer1_0_1_STROKES" stroke="#F00" stroke-width="1" stroke-linejoin="round" stroke-linecap="round" fill="none" d="M65.35,401.7 L732,401.7 732,561.5 65.35,561.5 65.35,401.7Z" test="Censored"/>
    </g>
  </g>
</svg>