<?xml version="1.0" encoding="utf-8"?>
<svg id="EdithAnim13" image-rendering="inherit" baseProfile="basic" version="1.1" x="0px" y="0px" width="800" height="600" xmlns="http://www.w3.org/2000/svg" xmlns:xlink="http://www.w3.org/1999/xlink">
  <g id="22_Avatarf162r1" overflow="visible">
    <g id="Avatar-Manf0r1">
      <g id="Tailf0r1">
        <path id="Layer5_0_1_STROKES" stroke="#009EFF" stroke-width="2.557" stroke-linejoin="round" stroke-linecap="round" fill="none" d="M509.553,668.112 Q508.268,649.324 507.563,630.525 506.932,612.296 501.016,595.078 494.514,576.324 476.382,567.788 454.348,557.502 451.149,580.484 450.682,583.833 452.87,586.772 458.044,593.836 465.402,598.358 473.096,595.552 478.88,600.86 485.844,607.304 488.906,616.963 496.063,639.758 501.762,662.743 503.372,669.174 502.287,675.698" test="Tail_2.3242325232423263e+312.3242325232423263e+31_2.3242325232423263e+312.3242325232423263e+31_2.3242325232423263e+312.3242325232423263e+31_2.3242325232423263e+312.3242325232423263e+31_2.3242325232423263e+312.3242325232423263e+31_2.3242325232423263e+312.3242325232423263e+31_2.3242325232423263e+312.3242325232423263e+31_2.3242325232423263e+312.3242325232423263e+31_2.3242325232423263e+312.3242325232423263e+31_2.3242325232423263e+312.3242325232423263e+31_2.3242325232423263e+312.3242325232423263e+31_2.3242325232423263e+312.3242325232423263e+31_2.3242325232423263e+312.3242325232423263e+31_2.3242325232423263e+312.3242325232423263e+31_2.3242325232423263e+312.3242325232423263e+31_2.3242325232423263e+312.3242325232423263e+31_2.3242325232423263e+312.3242325232423263e+31_2.3242325232423263e+312.3242325232423263e+31_2.3242325232423263e+312.3242325232423263e+31_2.3242325232423263e+312.3242325232423263e+31_2.3242325232423263e+312.3242325232423263e+31_2.3242325232423263e+312.3242325232423263e+31_2.3242325232423263e+312.3242325232423263e+31_1"/>
      </g>
      <path fill="#000" stroke="none" d="M467.012,572.502 Q462.457,562.278 456.694,560.791 455.393,560.419 439.591,564.973 420.816,570.364 399.53,570.55 377.408,570.736 356.215,563.858 339.205,556.887 337.254,557.073 330.561,560.047 328.702,561.348 325.356,563.579 325.635,566.368 325.821,568.412 326.007,579.659 326.657,590.535 329.818,594.253 333.257,598.249 349.895,606.894 363.651,613.865 377.687,619.814 386.889,623.718 400.738,641.099 407.803,649.93 415.796,660.247 417.469,661.548 415.796,663.407 414.495,664.802 414.681,664.802 L427.88,660.712 Q444.704,655.414 456.137,637.66 465.896,622.416 469.707,601.689 472.775,585.236 467.012,572.502 M472.961,185.737 L469.614,184.343 Q469.566,184.46 469.521,184.529 468.514,187.102 467.848,189.455 466.082,195.776 463.294,205.443 463.23,205.612 463.108,205.722 460.561,212.488 455.3,215.481 444.239,221.802 438.104,224.776 L442.287,234.071 Q441.822,240.857 443.96,286.309 444.038,287.986 444.053,289.562 445.787,325.079 446.005,335.852 446.003,335.922 446.005,335.944 446.037,338.436 446.005,339.57 445.633,354.163 448.329,377.214 448.701,380.468 453.813,377.772 458.925,374.983 458.553,373.032 458.367,371.637 460.505,372.381 462.271,373.032 462.736,373.496 462.829,373.589 469.707,349.794 L475.284,359.089 Q475.377,359.182 478.538,338.64 L484.115,340.964 Q484.222,341.073 483.464,331.204 483.505,331.182 483.464,331.111 482.404,315.938 479.374,277.386 477.535,253.829 476.121,238.347 474.37,217.653 473.425,211.391 473.161,209.566 472.961,208.975 473.161,209.566 473.425,211.391 474.37,217.653 476.121,238.347 L477.608,238.254 Q479.467,238.068 484.951,232.584 489.784,227.937 493.41,229.424 496.663,230.818 516.182,259.075 538.676,287.703 557.08,292.165 540.535,292.723 515.996,311.592 508.374,317.447 500.846,324.512 L499.73,325.534 Q501.054,339.662 505.4,387.996 L506.423,387.904 Q511.256,385.208 545.09,358.624 577.715,332.877 588.219,323.768 596.026,316.983 602.44,306.293 605.693,300.809 609.597,294.024 611.456,291.886 615.453,288.912 618.706,285.937 618.892,281.011 619.078,276.178 583.757,253.405 544.625,229.052 537.096,223.382 514.974,206.744 504.656,200.052 492.365,191.993 484.022,188.433 477.089,185.483 472.961,185.737 M406.873,180.067 Q409.662,179.603 412.264,179.138 416.447,179.138 416.168,184.25 424.162,183.321 427.322,184.25 430.668,185.273 430.575,188.898 L435.781,191.314 Q439.435,184.209 448.329,178.301 453.441,174.862 457.81,173.747 457.878,173.732 457.903,173.654 L456.694,166.218 Q458.089,166.125 455.393,162.872 450.467,157.202 446.47,152.275 441.079,145.583 422.303,139.541 405.851,134.243 396.742,134.15 367.555,133.871 347.478,142.051 335.023,147.163 323.869,162.593 321.731,165.517 319.965,168.17 314.981,176.07 313.458,182.019 L313.458,184.25 Q313.644,184.25 314.481,184.529 315.41,184.715 316.061,184.715 319.407,184.715 322.753,182.019 326.564,178.859 330.189,178.208 L330.189,180.532 334.372,180.532 Q337.161,179.974 342.459,178.394 346.549,177.093 347.385,177.279 L347.385,179.603 Q348.315,179.603 352.033,180.067 358.167,180.067 364.116,176.814 L368.764,176.814 368.764,178.673 376.2,178.673 Q388.469,174.955 389.213,174.955 390.421,174.955 391.536,175.792 392.838,176.721 395.254,176.814 395.254,179.138 394.79,180.067 L406.873,180.067Z" test="Avatar Man" stroke-width="1.859"/>
      <path id="Layer4_0_1_STROKES" stroke="#009EFF" stroke-width="1.859" stroke-linejoin="round" stroke-linecap="round" fill="none" d="M430.575,188.898 Q430.668,185.273 427.322,184.25 424.162,183.321 416.168,184.25 416.447,179.138 412.264,179.138 409.662,179.603 406.873,180.067 L394.79,180.067 Q395.254,179.138 395.254,176.814 392.838,176.721 391.536,175.792 390.421,174.955 389.213,174.955 388.469,174.955 376.2,178.673 L368.764,178.673 368.764,176.814 364.116,176.814 Q358.167,180.067 352.033,180.067 348.315,179.603 347.385,179.603 L347.385,177.279 Q346.549,177.093 342.459,178.394 337.161,179.974 334.372,180.532 L330.189,180.532 330.189,178.208 Q326.564,178.859 322.753,182.019 319.407,184.715 316.061,184.715 315.41,184.715 314.481,184.529 313.644,184.25 313.458,184.25 L313.458,182.019 Q314.981,176.07 320.011,168.216 321.731,165.517 323.869,162.593 335.023,147.163 347.478,142.051 367.555,133.871 396.742,134.15 405.851,134.243 422.303,139.541 441.079,145.583 446.47,152.275 450.467,157.202 455.393,162.872 458.089,166.125 456.694,166.218 M457.949,173.7 Q458.018,173.708 458.089,173.7 460.899,173.079 466.919,172.724 471.287,172.538 473.983,170.772 475.47,169.843 477.608,168.077 478.445,167.612 475.005,173.561 473.425,176.256 472.124,178.859 471.328,180.422 470.683,181.926 470.529,182.237 470.404,182.53 470.133,183.11 469.893,183.692 469.748,184.02 469.614,184.343 M472.961,185.737 Q477.089,185.483 484.068,188.479 492.365,191.993 504.656,200.052 514.974,206.744 537.096,223.382 544.625,229.052 583.757,253.405 619.078,276.178 618.892,281.011 618.706,285.937 615.453,288.912 611.456,291.886 609.597,294.024 605.693,300.809 602.44,306.293 596.026,316.983 588.219,323.768 577.715,332.877 545.09,358.624 511.256,385.208 506.423,387.904 505.941,388.218 505.493,388.508 500.083,392.017 497.685,393.388 493.41,395.897 489.692,395.34 M472.124,178.859 Q470.676,180.447 469.475,181.369 468.261,182.253 467.291,182.484 463.758,182.763 459.483,183.414 453,184.25 451.024,186.295 447.027,189.734 443.217,192.709 438.476,196.427 435.502,198.193 L433.457,199.215 Q433.905,195.114 435.827,191.361 M429.646,188.898 L430.575,188.898 M435.827,191.361 Q439.435,184.209 448.329,178.301 453.441,174.862 457.81,173.747 457.878,173.732 457.949,173.7 M469.614,184.343 Q469.566,184.46 469.521,184.575 468.514,187.102 467.848,189.455 466.082,195.776 463.294,205.443 463.23,205.612 463.154,205.768 460.561,212.488 455.3,215.481 444.239,221.802 438.104,224.776 M442.287,234.071 Q441.822,240.857 443.96,286.309 444.038,287.986 444.1,289.609 445.787,325.079 446.005,335.852 446.003,335.922 446.005,335.991 446.037,338.436 446.005,339.57 445.633,354.163 448.329,377.214 448.701,380.468 453.813,377.772 458.925,374.983 458.553,373.032 458.367,371.637 460.505,372.381 462.271,373.032 462.736,373.496 462.829,373.589 469.707,349.794 L475.284,359.089 Q475.377,359.182 478.538,338.64 L484.115,340.964 Q484.222,341.073 483.51,331.25 483.505,331.182 483.51,331.111 482.404,315.938 479.374,277.386 477.535,253.829 476.167,238.347 474.37,217.653 473.425,211.391 473.161,209.566 472.961,208.975 M499.73,325.581 L500.846,324.512 Q508.374,317.447 515.996,311.592 540.535,292.723 557.08,292.165 538.676,287.703 516.182,259.075 496.663,230.818 493.41,229.424 489.784,227.937 484.951,232.584 479.467,238.068 477.608,238.254 M373.039,230.818 Q374.123,230.993 376.385,231.097 378.966,231.19 383.078,231.19 390.328,231.097 393.488,230.818 399.344,230.26 400.088,230.074 403.806,229.052 404.178,226.171 M427.415,305.178 Q428.345,311.22 430.482,319.957 433.085,330.46 435.316,335.852 M323.776,302.39 Q323.776,302.482 324.148,311.963 324.426,318.749 327.029,323.303 327.866,324.764 329.12,326.185 332.928,330.436 340.6,334.271 351.196,339.662 361.421,340.034 L365.185,340.313 365.324,340.313 Q375.177,340.685 378.152,340.499 383.264,340.127 389.306,338.175 393.767,336.781 405.758,325 414.279,318.258 423.325,308.803 423.442,308.69 423.558,308.571 423.628,308.504 423.697,308.431 423.792,308.342 423.883,308.245 425.311,306.73 426.764,305.178 426.859,305.078 426.95,304.992 426.987,304.938 427.043,304.899 427.058,304.845 427.09,304.806 438.034,293.137 439.499,289.841 M365.139,340.964 Q364.302,344.961 362.722,354.07 361.142,361.97 358.632,366.06 M494.804,330.275 L499.73,325.581 M484.579,404.17 Q484.486,404.356 475.098,428.802 468.406,446.183 465.989,456.222 463.015,468.398 460.412,504.649 457.81,539.97 459.018,547.778 M405.479,451.946 Q406.037,453.991 407.896,454.549 408.453,454.735 409.94,454.735 412.357,454.735 413.287,453.619 413.658,453.247 415.146,449.808 M368.299,438.468 Q368.113,455.385 369.321,457.988 371.273,462.635 382.241,462.635 387.539,462.635 388.004,462.542 388.562,462.449 390.607,461.241 M369.693,495.633 Q368.764,498.421 368.764,501.488 368.764,506.601 372.853,506.88 375.549,506.972 384.1,506.787 M366.44,534.207 Q371.18,537.46 374.248,538.204 376.478,538.668 380.382,537.925 M413.937,665.359 Q406.966,668.613 388.283,672.145 369.414,675.677 349.337,677.443 331.955,679.023 291.057,678.186 260.198,677.629 242.445,676.513 228.781,675.677 201.082,672.795 194.203,672.052 189.091,673.167 185.466,674.004 184.351,673.26 M318.199,167.147 Q314.667,165.009 310.484,162.779 302.118,158.41 299.609,158.782 296.913,159.154 299.144,172.445 301.003,183.785 302.862,188.526 M307.51,201.074 Q308.253,204.141 310.205,210.276 311.32,215.202 308.439,217.34 304.89,219.986 301.514,222.453 L301.468,222.499 Q250.752,260.157 244.304,262.421 238.634,264.094 237.239,264.559 235.287,265.302 235.009,267.069 234.544,270.694 234.358,283.149 234.079,297.463 235.009,300.531 238.169,313.172 262.522,349.143 286.41,384.371 300.538,398.128 M309.369,233.142 Q312.25,234.629 318.013,235.373 318.247,235.408 318.478,235.419 323.917,236.198 329.353,235.93 332.792,235.744 340.786,234.443 347.292,233.328 349.337,233.607 M308.904,257.309 Q307.788,259.168 295.798,271.158 284.923,282.033 281.948,284.729 M331.584,279.059 Q335.766,279.059 340.414,278.13 L358.539,278.13 Q352.962,284.078 349.802,287.239 343.946,293.002 342.552,293.002 340.042,293.002 336.324,287.796 332.513,281.848 331.119,280.453 M271.724,279.617 Q273.319,283.47 276.743,288.354 276.78,288.408 276.836,288.447 285.358,300.668 305.186,319.306 314.397,327.956 321.173,334.55 336.854,349.761 339.577,353.977 M308.439,424.154 Q307.788,438.933 310.763,445.997 312.622,450.273 318.292,455.106 324.148,459.847 329.353,461.334 M324.241,469.7 Q324.333,472.581 323.869,484.479 323.683,495.633 325.17,498.514 326.936,501.953 331.305,504.835 335.58,507.623 338.183,507.344 M330.747,511.062 Q330.84,514.13 330.84,518.87 331.026,522.402 332.606,524.54 332.792,524.819 337.811,528.258 341.157,530.582 340.972,534.765 340.786,537.925 338.834,545.733 337.161,552.239 337.718,554.284 M314.946,567.762 Q293.195,563.765 266.89,559.675 214.374,551.588 192.344,551.588 177.658,551.588 160.927,548.521 147.728,546.104 144.94,546.941 140.107,548.428 135.552,556.05 130.997,563.765 131.369,570.086 131.648,574.361 133.135,585.701 134.344,595.833 133.228,599.83 M314.481,594.717 Q305.929,596.112 266.519,596.948 223.762,597.878 216.883,598.435 209.261,599.086 185.001,602.99 162.972,606.522 154.142,606.801 143.639,607.173 134.344,605.871 129.51,605.221 122.539,603.548 118.914,602.711 115.196,605.221 113.244,606.615 108.597,611.448 103.298,616.932 108.132,628.644 109.061,630.968 107.481,644.26 105.715,657.644 106.738,660.247 L109.991,668.148 Q113.616,678.093 115.103,688.597 M180.633,660.247 Q181.934,664.43 184.351,676.42 186.953,689.247 186.675,691.85" test="Avatar Man"/>
      <path id="Layer4_0_2_STROKES" stroke="#FF0" stroke-width="1.859" stroke-linejoin="round" stroke-linecap="round" fill="none" d="M376.2,234.443 Q375.27,239.648 377.129,243.459 379.081,247.456 382.706,247.456 384.193,247.456 386.238,246.341 388.562,245.039 389.213,243.273 M318.106,238.626 Q317.176,245.132 317.176,245.597 317.176,247.488 318.571,249.501 319.312,250.553 320.43,251.639 323.869,254.892 327.401,254.892 329.26,254.892 330.468,253.033 331.212,252.011 332.513,249.78" test="Avatar Man"/>
      <path id="Layer4_0_3_STROKES" stroke="#FFF" stroke-width="1.859" stroke-linejoin="round" stroke-linecap="round" fill="none" d="M408.732,285.101 Q414.96,287.61 415.239,291.793 415.257,292.057 415.285,292.351 415.279,292.422 415.285,292.49 L415.285,292.63 Q415.32,295.048 414.774,299.508 M400.367,301.832 Q406.492,300.371 410.219,295.883 411.468,294.381 412.45,292.537" test="Avatar Man"/>
      <path id="Layer4_0_4_STROKES" stroke="#F90" stroke-width="1.859" stroke-linejoin="round" stroke-linecap="round" fill="none" d="M337.254,557.073 Q339.205,556.887 356.215,563.858 377.408,570.736 399.53,570.55 420.816,570.364 439.591,564.973 455.393,560.419 456.694,560.791 462.457,562.278 467.012,572.502 472.775,585.236 469.707,601.689 465.896,622.416 456.137,637.66 444.704,655.414 427.88,660.712 L414.681,664.802 Q414.495,664.802 415.796,663.407 417.469,661.548 415.796,660.247 407.803,649.93 400.738,641.099 386.889,623.718 377.687,619.814 363.651,613.865 349.895,606.894 333.257,598.249 329.818,594.253 326.657,590.535 326.007,579.659 325.821,568.412 325.635,566.368 325.356,563.579 328.702,561.348 330.561,560.047 337.254,557.073Z" test="Avatar Man"/>
    </g>
    <g id="Avatar-Lady">
      <path fill="#000" stroke="none" d="M193.381,590.333 Q189.407,589.121 185.953,588.774 176.84,588.415 172.996,588.145 166.715,587.702 160.337,584.615 156.485,583.119 151.185,579.449 140.678,572.114 131.888,560.472 123.208,548.977 117.694,535.919 L115.646,536.906 Q114.683,543.904 109.409,559.926 105.455,572.114 104.315,581.425 104.099,583.159 103.984,584.794 103.747,588.169 103.348,604.534 101.698,627.971 98.285,636.305 96.007,641.891 92.934,648.082 91.003,652.751 90.528,659.501 90.263,663.26 90.778,667.998 L90.771,668.091 Q91.243,672.473 92.355,677.718 94.602,688.617 94.226,693.961 94.028,696.773 92.805,699.42 92.141,700.833 91.435,701.49 L92.923,703.102 Q92.814,705.243 92.2,709.364 92.174,709.571 92.173,709.739 91.329,715.432 89.611,724.727 L89.604,724.821 Q88.924,728.539 88.099,732.817 L91.758,735.713 Q94.956,731.928 102.821,724.432 113.825,713.995 116.641,710.142 L117.175,709.238 Q121.497,705.396 125.774,696.841 130.904,685.52 134.419,678.419 135.19,676.839 135.862,675.317 136.18,674.787 136.41,674.225 136.52,674.116 136.524,673.95 136.615,673.893 136.631,673.769 L136.631,673.769 Q143.604,659.614 148.051,650.737 157.272,632.166 162.286,623.852 164.599,619.971 167.641,616.032 168.856,614.437 170.129,612.815 L170.436,612.46 170.537,612.373 Q173.761,608.645 177.566,604.86 186.383,596.059 192.754,592.55 L193.381,590.333 M182.581,421.212 L182.888,407.478 182.42,407.445 Q171.92,406.706 165.686,406.926 153.118,407.455 142.884,410.974 133.024,414.519 123.63,420.83 120.076,423.186 116.591,425.799 116.586,425.844 116.49,425.886 116.241,426.106 115.895,426.315 110.706,430.45 105.753,435.211 97.271,443.282 93.236,452.419 89.207,461.463 87.437,471.89 L86.724,475.326 Q89.66,475.934 93.22,476.725 99.061,478.079 106.867,483.622 107.267,483.931 112.396,488.062 112.447,488.084 112.489,488.069 114.22,489.53 116.497,491.366 114.22,489.53 112.489,488.069 112.447,488.084 112.396,488.062 107.267,483.931 106.867,483.622 99.061,478.079 93.22,476.725 89.66,475.934 86.724,475.326 L82.846,487.583 Q84.725,488.143 86.717,488.798 101.828,493.631 107.848,493.772 101.828,493.631 86.717,488.798 84.725,488.143 82.846,487.583 82.662,487.52 82.478,487.463 69.921,483.604 62.888,483.352 L57.482,487.871 Q59.65,490.484 64.548,495.905 71.072,503.072 75.305,506.367 76.135,506.951 76.833,507.416 82.77,511.414 90.089,511.835 95.439,512.118 102.928,514.152 108.848,515.7 110.77,515.176 L116.564,517.185 113.86,524.815 117.62,535.631 Q117.69,535.798 117.694,535.919 123.208,548.977 131.888,560.472 140.678,572.114 151.185,579.449 156.485,583.119 160.337,584.615 166.715,587.702 172.996,588.145 176.84,588.415 185.953,588.774 189.407,589.121 193.381,590.333 L193.474,590.34 Q196.57,591.361 199.985,592.871 210.409,597.374 213.55,598.254 220.288,600.236 224.405,599.301 226.327,598.777 231.627,595.758 234.866,593.913 237.797,585.735 241.168,575.326 243.352,569.732 245.749,563.777 254.007,552.205 255.097,550.672 256.1,549.243 262.906,539.523 265.606,534.65 265.902,534.124 266.148,533.651 270.405,525.378 268.632,514.418 267.251,505.936 263.335,500.007 L257.8,490.29 Q257.167,490.638 256.348,490.848 250.223,492.206 250.946,485.945 L246.055,483.151 228.38,485.298 Q228.433,485.781 228.502,486.249 228.278,485.941 227.979,485.647 225.465,482.274 221.383,478.965 212.37,471.829 203.545,472.715 195.002,473.621 179.971,481.043 165.495,488.763 158.28,492.046 157.302,492.567 156.427,492.952 151.561,495.153 134.205,502.128 132.462,502.834 130.912,503.404 126.38,505.338 123.53,506.558 120.498,508.031 119.515,508.725 120.498,508.031 123.53,506.558 126.38,505.338 130.912,503.404 132.462,502.834 134.205,502.128 151.561,495.153 156.427,492.952 157.302,492.567 158.28,492.046 165.495,488.763 179.971,481.043 195.002,473.621 203.545,472.715 212.37,471.829 221.383,478.965 225.465,482.274 227.979,485.647 L228.38,485.298 Q228.348,485.063 228.319,484.823 227.819,481.038 227.574,476.668 227.062,466.551 228.745,462.713 230.095,459.604 238.201,456.878 245.45,454.279 245.126,452.183 244.203,446.56 236.667,437.173 L229.333,428.931 Q214.064,437.483 200.089,445.527 185.452,454.061 172.264,462.034 149.994,475.917 141.944,480.532 132.508,485.952 125.065,488.766 122.586,489.75 120.333,490.411 122.586,489.75 125.065,488.766 132.508,485.952 141.944,480.532 149.994,475.917 172.264,462.034 185.452,454.061 200.089,445.527 L194.716,436.198 Q193.952,435.014 189.191,429.026 183.995,422.536 182.581,421.212 M211.373,492.675 Q210.16,491.176 205.8,490.21 202.495,489.478 191.963,494.04 188.578,495.547 184.46,497.564 167.481,505.884 164.856,505.699 167.481,505.884 184.46,497.564 188.578,495.547 191.963,494.04 202.495,489.478 205.8,490.21 210.16,491.176 211.373,492.675 212.587,494.173 216.808,497.109 212.587,494.173 211.373,492.675 M204.297,507.534 Q206.819,505.167 206.938,503.48 206.971,503.011 204.792,500.502 206.971,503.011 206.938,503.48 206.819,505.167 204.297,507.534 201.568,510.168 199.224,510.003 192.381,509.521 192.724,504.646 192.777,503.896 192.89,503.621 193.211,503.079 194.883,500.747 193.211,503.079 192.89,503.621 192.777,503.896 192.724,504.646 192.381,509.521 199.224,510.003 201.568,510.168 204.297,507.534 M179.473,564.387 Q178.971,565.257 178.223,566.09 176.17,568.489 174.992,569.16 176.17,568.489 178.223,566.09 178.971,565.257 179.473,564.387 181.136,562.189 181.277,560.181 L181.06,557.904 181.277,560.181 Q181.136,562.189 179.473,564.387 M228.037,535.679 Q230.41,535.846 233.654,534.85 237.147,533.888 241.605,531.641 247.98,528.348 249.634,525.988 250.254,525.21 250.303,524.528 250.355,523.778 248.659,521.114 247.055,518.458 246.325,518.124 247.055,518.458 248.659,521.114 250.355,523.778 250.303,524.528 250.254,525.21 249.634,525.988 247.98,528.348 241.605,531.641 237.147,533.888 233.654,534.85 230.41,535.846 228.037,535.679 224.38,535.422 222.128,532.625 218.581,528.136 218.313,527.928 218.581,528.136 222.128,532.625 224.38,535.422 228.037,535.679 M249.095,541.684 Q249.148,540.934 248.108,539.636 249.148,540.934 249.095,541.684 249.009,542.903 248.468,543.901 247.926,544.899 246.929,545.677 244.842,547.226 242.123,547.034 241.092,546.962 238.995,545.966 236.992,544.977 235.745,543.947 236.992,544.977 238.995,545.966 241.092,546.962 242.123,547.034 244.842,547.226 246.929,545.677 247.926,544.899 248.468,543.901 249.009,542.903 249.095,541.684 M201.872,571.429 Q206.017,571.438 210.255,571.454 206.017,571.438 201.872,571.429 190.409,572.318 181.256,565.832 190.409,572.318 201.872,571.429 M149.466,449.971 Q145.503,444.699 138.844,441.592 132.279,438.492 126.219,438.913 132.279,438.492 138.844,441.592 145.503,444.699 149.466,449.971Z" test="Avatar Lady" stroke-width="1.88"/>
      <path id="Layer3_0_1_STROKES" stroke="#009EFF" stroke-width="1.88" stroke-linejoin="round" stroke-linecap="round" fill="none" d="M246.055,483.151 Q245.24,478.666 248.828,477.222 252.328,475.679 255.588,474.872 M227.889,424.024 Q228.229,423.2 228.262,422.732 228.328,421.794 225.657,415.576 222.496,408.288 222.026,406.936 220.306,401.915 215.423,400.347 210.3,399.515 208.578,398.546 208.854,399.979 208.531,404.572 L207.868,411.309 Q207.58,411.383 205.571,410.488 203.374,409.58 202.342,409.507 198.686,409.25 196.73,408.923 192.083,408.031 186.833,407.661 L182.888,407.478 M182.581,421.212 Q183.995,422.536 189.191,429.026 193.952,435.014 194.716,436.198 M208.578,398.546 Q208.581,398.452 208.491,398.446 L208.511,398.164 Q208.59,398.356 208.578,398.546Z M182.42,407.445 Q182.433,407.257 182.527,407.264 182.694,407.458 182.888,407.478 L182.42,407.445 Q171.92,406.706 165.686,406.926 153.118,407.455 142.884,410.974 133.024,414.519 123.63,420.83 120.076,423.186 116.637,425.802 116.586,425.844 116.537,425.889 116.241,426.106 115.942,426.318 110.706,430.45 105.753,435.211 97.271,443.282 93.236,452.419 89.207,461.463 87.437,471.89 M86.72,475.373 Q89.66,475.934 93.22,476.725 99.061,478.079 106.867,483.622 107.267,483.931 112.396,488.062 112.447,488.084 112.486,488.116 114.22,489.53 116.497,491.366 M216.808,497.109 Q212.587,494.173 211.373,492.675 210.16,491.176 205.8,490.21 202.495,489.478 191.96,494.087 188.578,495.547 184.46,497.564 167.481,505.884 164.856,505.699 M218.313,527.928 Q218.581,528.136 222.128,532.625 224.38,535.422 228.037,535.679 230.41,535.846 233.697,534.9 237.147,533.888 241.605,531.641 247.98,528.348 249.681,525.991 250.254,525.21 250.303,524.528 250.355,523.778 248.659,521.114 247.055,518.458 246.325,518.124 M263.335,500.007 Q267.251,505.936 268.632,514.418 270.405,525.378 266.148,533.651 265.902,534.124 265.606,534.65 262.906,539.523 256.1,549.243 255.097,550.672 254.007,552.205 245.749,563.777 243.352,569.732 241.168,575.326 237.797,585.735 234.866,593.913 231.627,595.758 226.327,598.777 224.405,599.301 220.288,600.236 213.55,598.254 210.409,597.374 199.985,592.871 196.57,591.361 193.471,590.387 L193.377,590.38 M192.754,592.55 Q186.383,596.059 177.566,604.86 173.761,608.645 170.583,612.376 L170.483,612.464 170.175,612.819 Q168.856,614.437 167.641,616.032 164.599,619.971 162.286,623.852 157.272,632.166 148.051,650.737 143.604,659.614 136.678,673.773 L136.628,673.816 Q136.615,673.893 136.571,673.954 136.52,674.116 136.454,674.275 136.18,674.787 135.909,675.32 135.19,676.839 134.419,678.419 130.904,685.52 125.774,696.841 121.497,705.396 117.175,709.238 M116.641,710.142 Q113.825,713.995 102.821,724.432 94.956,731.928 91.754,735.76 90.738,737.005 90.193,737.864 M235.745,543.947 Q236.992,544.977 238.995,545.966 241.092,546.962 242.123,547.034 244.842,547.226 246.929,545.677 247.926,544.899 248.468,543.901 249.009,542.903 249.095,541.684 249.148,540.934 248.108,539.636 M193.377,590.38 Q189.407,589.121 185.953,588.774 176.84,588.415 172.996,588.145 166.715,587.702 160.337,584.615 156.485,583.119 151.185,579.449 140.678,572.114 131.888,560.472 123.208,548.977 117.738,535.969 M115.646,536.906 Q114.683,543.904 109.409,559.926 105.455,572.114 104.315,581.425 104.099,583.159 103.984,584.794 103.747,588.169 103.348,604.534 101.698,627.971 98.285,636.305 96.007,641.891 92.934,648.082 91.003,652.751 90.528,659.501 90.263,663.26 90.775,668.044 L90.771,668.091 Q91.243,672.473 92.355,677.718 94.602,688.617 94.226,693.961 94.028,696.773 92.805,699.42 92.141,700.833 91.432,701.537 M92.923,703.102 Q92.814,705.243 92.196,709.411 92.174,709.571 92.173,709.739 91.329,715.432 89.607,724.774 L89.604,724.821 Q88.924,728.539 88.099,732.817 M162.964,626.255 L162.026,631.559 Q161.96,632.496 162.352,636.293 162.744,640.089 162.678,641.026 162.612,641.964 163.033,648.023 163.361,654.076 163.295,655.014 162.741,662.889 148.98,695.083 135.125,727.272 134.63,734.303 134.149,741.147 143.319,758.091 150.491,771.315 159.838,784.41 166.618,793.837 180.883,836.108 180.797,837.326 181.528,837.66 182.171,837.894 182.311,837.244 M97.488,773.425 Q99.739,774.903 111.089,787.667 123.209,801.522 123.018,804.24 122.78,807.615 144.641,826.302 166.503,844.988 166.239,848.738 166.159,849.863 166.541,849.795 166.923,849.728 166.909,849.915 L167.706,849.312 M149.466,449.971 Q145.503,444.699 138.844,441.592 132.279,438.492 126.219,438.913 M86.72,475.373 Q86.626,475.377 86.533,475.36 86.438,475.342 86.345,475.346 81.881,474.476 78.888,474.209 70.839,473.454 64.875,475.201 57.465,477.411 56.581,477.915 55.109,478.753 55.018,481.385 55.007,484.21 56.275,486.278 56.633,486.789 57.311,487.623 57.398,487.72 57.485,487.824 L57.529,487.874 M62.888,483.352 Q69.921,483.604 82.478,487.463 82.662,487.52 82.846,487.583 M57.529,487.874 Q59.65,490.484 64.548,495.905 71.072,503.072 75.352,506.37 76.135,506.951 76.833,507.416 82.77,511.414 90.089,511.835 95.439,512.118 102.928,514.152 108.848,515.7 110.77,515.176 M113.86,524.815 L117.62,535.631 Q117.69,535.798 117.738,535.969 M70.738,512.357 Q67.4,515.608 63.289,535.198 61.437,544.112 61.004,546.249 60.358,550.066 60.054,554.379 59.685,559.629 61.016,571.499 62.254,583.363 61.792,589.926 61.743,590.608 61.693,591.332 61.398,594.447 60.735,598.236 59.663,604.451 57.613,612.479 56.176,618.108 54.261,624.632 47.568,647.432 46.222,666.557 46.004,669.65 46.704,679.781 47.443,689.348 47.131,691.116 M82.846,487.583 Q84.725,488.143 86.717,488.798 101.828,493.631 107.848,493.772 M91.786,534.566 L91.809,536.923 Q91.657,539.08 89.842,544.793 88.019,550.6 87.489,555.462 86.825,560.88 86.178,570.067 86.105,571.099 86.249,574.406 86.387,577.808 86.301,579.026 86.296,579.094 86.291,579.167 86.097,581.686 85.13,586.293 84.084,591.778 83.141,593.125 82.225,594.096 80.44,596.703 79.186,598.452 78.538,599.631 77.89,600.81 77.847,601.42 M77.9,640.805 Q77.848,641.555 76.181,649.163 74.422,656.765 74.342,657.89 74.197,659.953 75.482,665.79 76.083,668.729 76.381,670.423 76.64,672.094 76.607,672.559 76.383,675.746 73.248,681.461 70.441,686.539 68.428,688.376 M61.693,591.332 Q56.303,591.612 49.686,597.27 43.559,602.454 41.535,608.662 40.95,610.473 40.709,612.372 39.911,618.346 30.909,680.647 22.287,741.562 21.731,748.118 21.421,752.525 20.23,760.072 20.065,761.182 19.941,762.172 L19.934,762.265 Q19.613,765.455 19.903,767.398 20.159,769.112 54.851,829.025 89.303,888.356 89.132,892.113 M39.312,608.128 Q29.988,612.088 20.718,615.299 7.491,619.832 .333,619.799 -14.499,619.037 -31.723,617.448 -66.07,614.182 -77.932,610.049 M91.432,701.537 Q90.773,702.197 90.07,702.148 M88.099,732.817 L88.096,732.864 Q87.71,734.994 87.266,737.281 84.895,749.494 81.537,765.801 80.798,769.612 89.529,788.787 100.313,812.252 102.456,819.281 117.063,867.416 116.06,888.355 M-80.629,723.294 Q-73.402,725.028 -55.77,732.864 -36.591,741.469 -26.332,748.315 -12.382,757.588 -8.637,759.265 -.88,762.826 9.606,762.433 13.858,762.261 17.466,761.856" test="Avatar Lady"/>
      <path id="Layer3_0_2_STROKES" stroke="#FFBC00" stroke-width="1.88" stroke-linejoin="round" stroke-linecap="round" fill="none" d="M200.136,445.53 Q214.064,437.483 229.333,428.931 L236.667,437.173 Q244.203,446.56 245.126,452.183 245.45,454.279 238.201,456.878 230.095,459.604 228.745,462.713 227.062,466.551 227.574,476.668 227.819,481.038 228.319,484.823 228.348,485.063 228.38,485.298 M120.333,490.411 Q122.586,489.75 125.062,488.812 132.508,485.952 141.944,480.532 149.994,475.917 172.264,462.034 185.452,454.061 200.136,445.53 M228.025,485.65 Q228.278,485.941 228.502,486.249 228.433,485.781 228.38,485.298 M228.025,485.65 Q225.465,482.274 221.383,478.965 212.37,471.829 203.545,472.715 195.002,473.621 179.971,481.043 165.495,488.763 158.324,492.096 157.302,492.567 156.427,492.952 151.561,495.153 134.205,502.128 132.462,502.834 130.909,503.45 126.38,505.338 123.573,506.608 120.498,508.031 119.515,508.725" test="Avatar Lady"/>
      <path id="Layer3_0_3_STROKES" stroke="#FF0" stroke-width="1.88" stroke-linejoin="round" stroke-linecap="round" fill="none" d="M250.946,485.945 Q250.223,492.206 256.348,490.848 257.167,490.638 257.847,490.294 260.231,489.029 260.742,485.975 261.248,482.807 258.214,481.746 M194.883,500.747 Q193.211,503.079 192.89,503.621 192.777,503.896 192.724,504.646 192.381,509.521 199.224,510.003 201.568,510.168 204.297,507.534 206.819,505.167 206.938,503.48 206.971,503.011 204.792,500.502" test="Avatar Lady"/>
      <path id="Layer3_0_4_STROKES" stroke="#FFF" stroke-width="1.88" stroke-linejoin="round" stroke-linecap="round" fill="none" d="M181.06,557.904 L181.277,560.181 Q181.136,562.189 179.517,564.438 178.971,565.257 178.223,566.09 176.17,568.489 174.992,569.16 M181.256,565.832 Q190.409,572.318 201.872,571.429 206.017,571.438 210.255,571.454" test="Avatar Lady"/>
    </g>
    <g id="Censoredf12r1">
      <path fill="#000" stroke="none" d="M-18.85,403.35 L-18.85,629.9 829.1,629.9 829.1,403.35 -18.85,403.35Z" test="Censored"/>
      <path id="Layer1_0_1_STROKES" stroke="#F00" stroke-width="1" stroke-linejoin="round" stroke-linecap="round" fill="none" d="M65.35,401.7 L732,401.7 732,561.5 65.35,561.5 65.35,401.7Z" test="Censored"/>
    </g>
  </g>
</svg>