<?xml version="1.0" encoding="utf-8"?>
<svg id="EdithAnim13" image-rendering="inherit" baseProfile="basic" version="1.1" x="0px" y="0px" width="800" height="600" xmlns="http://www.w3.org/2000/svg" xmlns:xlink="http://www.w3.org/1999/xlink">
  <g id="22_Avatarf165r1" overflow="visible">
    <g id="Avatar-Manf0r1">
      <g id="Tailf0r1">
        <path id="Layer5_0_1_STROKES" stroke="#009EFF" stroke-width="2.564" stroke-linejoin="round" stroke-linecap="round" fill="none" d="M506.326,669.614 Q505.03,650.78 504.314,631.936 503.672,613.664 497.734,596.407 491.207,577.61 473.027,569.062 450.935,558.762 447.739,581.801 447.272,585.158 449.467,588.103 454.657,595.181 462.035,599.712 469.747,596.895 475.547,602.213 482.531,608.669 485.605,618.35 492.79,641.197 498.514,664.235 500.131,670.681 499.046,677.222" test="Tail_2.3242325232423263e+312.3242325232423263e+31_2.3242325232423263e+312.3242325232423263e+31_2.3242325232423263e+312.3242325232423263e+31_2.3242325232423263e+312.3242325232423263e+31_2.3242325232423263e+312.3242325232423263e+31_2.3242325232423263e+312.3242325232423263e+31_2.3242325232423263e+312.3242325232423263e+31_2.3242325232423263e+312.3242325232423263e+31_2.3242325232423263e+312.3242325232423263e+31_2.3242325232423263e+312.3242325232423263e+31_2.3242325232423263e+312.3242325232423263e+31_2.3242325232423263e+312.3242325232423263e+31_2.3242325232423263e+312.3242325232423263e+31_2.3242325232423263e+312.3242325232423263e+31_2.3242325232423263e+312.3242325232423263e+31_2.3242325232423263e+312.3242325232423263e+31_2.3242325232423263e+312.3242325232423263e+31_2.3242325232423263e+312.3242325232423263e+31_2.3242325232423263e+312.3242325232423263e+31_2.3242325232423263e+312.3242325232423263e+31_2.3242325232423263e+312.3242325232423263e+31_2.3242325232423263e+312.3242325232423263e+31_2.3242325232423263e+312.3242325232423263e+31_23242324"/>
      </g>
      <path fill="#000" stroke="none" d="M463.637,573.745 Q459.073,563.499 453.297,562.008 451.993,561.636 436.158,566.2 417.341,571.603 396.01,571.789 373.84,571.976 352.602,565.082 335.556,558.096 333.6,558.283 326.893,561.263 325.03,562.567 321.676,564.803 321.956,567.598 322.142,569.647 322.328,580.918 322.98,591.816 326.148,595.543 329.594,599.548 346.268,608.211 360.054,615.197 374.12,621.159 383.342,625.071 397.221,642.49 404.3,651.339 412.311,661.679 413.988,662.983 412.311,664.846 411.007,666.243 411.193,666.243 L424.421,662.145 Q441.281,656.835 452.738,639.044 462.519,623.767 466.338,602.995 469.412,586.507 463.637,573.745 M469.599,186.148 L466.245,184.751 Q466.197,184.868 466.152,184.937 465.142,187.516 464.475,189.874 462.705,196.208 459.911,205.896 459.848,206.066 459.725,206.175 457.172,212.957 451.9,215.956 440.815,222.29 434.667,225.271 L438.859,234.586 Q438.393,241.386 440.536,286.937 440.614,288.617 440.629,290.197 442.367,325.789 442.585,336.585 442.583,336.656 442.585,336.679 442.617,339.175 442.585,340.311 442.212,354.936 444.914,378.037 445.286,381.297 450.41,378.596 455.533,375.802 455.16,373.845 454.974,372.448 457.116,373.193 458.886,373.845 459.352,374.311 459.445,374.404 466.338,350.558 L471.927,359.873 Q472.02,359.966 475.188,339.38 L480.777,341.709 Q480.885,341.819 480.124,331.928 480.165,331.906 480.124,331.835 479.063,316.629 476.026,277.994 474.183,254.386 472.766,238.871 471.011,218.132 470.064,211.858 469.8,210.028 469.599,209.436 469.8,210.028 470.064,211.858 471.011,218.132 472.766,238.871 L474.256,238.778 Q476.119,238.592 481.615,233.096 486.459,228.438 490.092,229.929 493.352,231.326 512.913,259.644 535.456,288.334 553.899,292.805 537.319,293.364 512.727,312.273 505.089,318.142 497.544,325.221 L496.426,326.246 Q497.752,340.405 502.108,388.843 L503.133,388.749 Q507.976,386.048 541.883,359.407 574.579,333.605 585.105,324.476 592.929,317.676 599.356,306.964 602.617,301.468 606.529,294.668 608.392,292.526 612.397,289.545 615.658,286.564 615.844,281.627 616.03,276.783 580.633,253.961 541.417,229.556 533.872,223.874 511.702,207.2 501.363,200.493 489.044,192.417 480.683,188.85 473.736,185.893 469.599,186.148 M403.369,180.466 Q406.163,180 408.772,179.535 412.963,179.535 412.684,184.658 420.695,183.726 423.862,184.658 427.215,185.682 427.122,189.315 L432.339,191.737 Q436.001,184.617 444.914,178.696 450.037,175.25 454.415,174.132 454.484,174.117 454.508,174.039 L453.297,166.587 Q454.695,166.494 451.993,163.233 447.056,157.551 443.051,152.614 437.648,145.907 418.832,139.853 402.344,134.543 393.216,134.45 363.966,134.171 343.846,142.368 331.364,147.491 320.186,162.954 318.043,165.884 316.274,168.543 311.279,176.461 309.753,182.422 L309.753,184.658 Q309.939,184.658 310.778,184.937 311.709,185.124 312.361,185.124 315.715,185.124 319.068,182.422 322.887,179.255 326.52,178.603 L326.52,180.932 330.712,180.932 Q333.506,180.373 338.816,178.789 342.915,177.485 343.753,177.672 L343.753,180 Q344.684,180 348.41,180.466 354.558,180.466 360.52,177.206 L365.177,177.206 365.177,179.069 372.629,179.069 Q384.925,175.343 385.67,175.343 386.881,175.343 387,176.181 389.303,177.113 391.725,177.206 391.725,179.535 391.259,180.466 L403.369,180.466Z" test="Avatar Man" stroke-width="1.863"/>
      <path id="Layer4_0_1_STROKES" stroke="#009EFF" stroke-width="1.863" stroke-linejoin="round" stroke-linecap="round" fill="none" d="M427.122,189.315 Q427.215,185.682 423.862,184.658 420.695,183.726 412.684,184.658 412.963,179.535 408.772,179.535 406.163,180 403.369,180.466 L391.259,180.466 Q391.725,179.535 391.725,177.206 389.303,177.113 387,176.181 386.881,175.343 385.67,175.343 384.925,175.343 372.629,179.069 L365.177,179.069 365.177,177.206 360.52,177.206 Q354.558,180.466 348.41,180.466 344.684,180 343.753,180 L343.753,177.672 Q342.915,177.485 338.816,178.789 333.506,180.373 330.712,180.932 L326.52,180.932 326.52,178.603 Q322.887,179.255 319.068,182.422 315.715,185.124 312.361,185.124 311.709,185.124 310.778,184.937 309.939,184.658 309.753,184.658 L309.753,182.422 Q311.279,176.461 316.32,168.589 318.043,165.884 320.186,162.954 331.364,147.491 343.846,142.368 363.966,134.171 393.216,134.45 402.344,134.543 418.832,139.853 437.648,145.907 443.051,152.614 447.056,157.551 451.993,163.233 454.695,166.494 453.297,166.587 M454.555,174.085 Q454.624,174.093 454.695,174.085 457.511,173.463 463.544,173.107 467.922,172.921 470.623,171.151 472.114,170.22 474.256,168.45 475.094,167.984 471.648,173.946 470.064,176.647 468.76,179.255 467.963,180.822 467.316,182.329 467.162,182.64 467.037,182.935 466.765,183.516 466.525,184.099 466.379,184.427 466.245,184.751 M469.599,186.148 Q473.736,185.893 480.73,188.896 489.044,192.417 501.363,200.493 511.702,207.2 533.872,223.874 541.417,229.556 580.633,253.961 616.03,276.783 615.844,281.627 615.658,286.564 612.397,289.545 608.392,292.526 606.529,294.668 602.617,301.468 599.356,306.964 592.929,317.676 585.105,324.476 574.579,333.605 541.883,359.407 507.976,386.048 503.133,388.749 502.65,389.064 502.201,389.355 496.78,392.872 494.376,394.245 490.092,396.76 486.366,396.201 M468.76,179.255 Q467.309,180.846 466.105,181.77 464.889,182.657 463.916,182.888 460.377,183.167 456.092,183.819 450.596,184.658 447.615,186.707 443.61,190.154 439.791,193.134 435.04,196.86 432.059,198.63 L430.01,199.655 Q430.459,195.545 432.385,191.784 M426.191,189.315 L427.122,189.315 M432.385,191.784 Q436.001,184.617 444.914,178.696 450.037,175.25 454.415,174.132 454.484,174.117 454.555,174.085 M466.245,184.751 Q466.197,184.868 466.152,184.984 465.142,187.516 464.475,189.874 462.705,196.208 459.911,205.896 459.848,206.066 459.771,206.222 457.172,212.957 451.9,215.956 440.815,222.29 434.667,225.271 M438.859,234.586 Q438.393,241.386 440.536,286.937 440.614,288.617 440.675,290.243 442.367,325.789 442.585,336.585 442.583,336.656 442.585,336.725 442.617,339.175 442.585,340.311 442.212,354.936 444.914,378.037 445.286,381.297 450.41,378.596 455.533,375.802 455.16,373.845 454.974,372.448 457.116,373.193 458.886,373.845 459.352,374.311 459.445,374.404 466.338,350.558 L471.927,359.873 Q472.02,359.966 475.188,339.38 L480.777,341.709 Q480.885,341.819 480.171,331.975 480.165,331.906 480.171,331.835 479.063,316.629 476.026,277.994 474.183,254.386 472.812,238.871 471.011,218.132 470.064,211.858 469.8,210.028 469.599,209.436 M496.426,326.292 L497.544,325.221 Q505.089,318.142 512.727,312.273 537.319,293.364 553.899,292.805 535.456,288.334 512.913,259.644 493.352,231.326 490.092,229.929 486.459,228.438 481.615,233.096 476.119,238.592 474.256,238.778 M369.462,231.326 Q370.548,231.501 372.816,231.605 375.401,231.699 379.522,231.699 386.788,231.605 389.955,231.326 395.824,230.767 396.569,230.581 400.295,229.556 400.668,226.668 M423.955,305.846 Q424.887,311.901 427.029,320.657 429.637,331.183 431.873,336.585 M320.093,303.052 Q320.093,303.145 320.465,312.646 320.745,319.446 323.353,324.01 324.191,325.475 325.449,326.898 329.264,331.159 336.953,335.002 347.572,340.405 357.819,340.777 L361.591,341.057 361.731,341.057 Q371.605,341.429 374.586,341.243 379.709,340.87 385.764,338.914 390.235,337.517 402.251,326.712 410.791,318.954 419.856,309.479 419.974,309.365 420.089,309.246 420.16,309.179 420.229,309.106 420.324,309.017 420.415,308.92 421.846,307.402 423.303,305.846 423.398,305.745 423.489,305.66 423.527,305.606 423.582,305.567 423.597,305.513 423.629,305.473 434.596,293.779 436.065,290.476 M361.545,341.709 Q360.706,345.714 359.123,354.843 357.539,362.761 355.024,366.859 M491.489,330.996 L496.426,326.292 M481.242,405.051 Q481.149,405.237 471.741,429.736 465.034,447.155 462.612,457.215 459.631,469.417 457.023,505.746 454.415,541.143 455.626,548.968 M401.972,452.93 Q402.531,454.979 404.394,455.538 404.952,455.724 406.443,455.724 408.865,455.724 409.796,454.607 410.169,454.234 411.659,450.787 M364.712,439.423 Q364.525,456.376 365.736,458.985 367.692,463.642 378.684,463.642 383.994,463.642 384.459,463.549 385.018,463.456 387.068,462.245 M366.109,496.71 Q365.177,499.505 365.177,502.579 365.177,507.702 369.276,507.982 371.977,508.075 380.547,507.888 M362.849,535.368 Q367.599,538.628 370.673,539.373 372.909,539.839 376.821,539.094 M410.448,666.802 Q403.462,670.063 384.739,673.602 365.829,677.142 345.709,678.912 328.29,680.495 287.304,679.657 256.378,679.098 238.587,677.98 224.893,677.142 197.135,674.254 190.242,673.509 185.118,674.627 181.486,675.465 180.368,674.72 M314.504,167.518 Q310.964,165.376 306.772,163.14 298.389,158.762 295.874,159.135 293.172,159.507 295.408,172.828 297.271,184.192 299.134,188.943 M303.792,201.518 Q304.537,204.592 306.493,210.74 307.611,215.677 304.723,217.819 301.167,220.47 297.783,222.942 L297.737,222.989 Q246.912,260.728 240.45,262.997 234.767,264.674 233.37,265.139 231.414,265.885 231.135,267.655 230.669,271.287 230.482,283.769 230.203,298.115 231.135,301.189 234.302,313.857 258.707,349.906 282.646,385.21 296.805,398.996 M305.655,233.655 Q308.542,235.145 314.317,235.89 314.552,235.926 314.783,235.937 320.234,236.718 325.682,236.449 329.128,236.263 337.139,234.959 343.66,233.841 345.709,234.12 M305.189,257.874 Q304.071,259.737 292.055,271.753 281.156,282.652 278.175,285.353 M327.917,279.671 Q332.109,279.671 336.767,278.739 L354.931,278.739 Q349.342,284.701 346.175,287.868 340.306,293.643 338.909,293.643 336.394,293.643 332.668,288.427 328.849,282.465 327.452,281.068 M267.929,280.23 Q269.527,284.092 272.959,288.986 272.996,289.04 273.052,289.079 281.592,301.326 301.463,320.005 310.694,328.673 317.485,335.281 333.199,350.524 335.928,354.75 M304.723,425.078 Q304.071,439.889 307.052,446.968 308.915,451.253 314.597,456.097 320.465,460.848 325.682,462.338 M320.559,470.722 Q320.652,473.609 320.186,485.532 320,496.71 321.49,499.598 323.26,503.045 327.638,505.932 331.923,508.727 334.531,508.447 M327.079,512.173 Q327.172,515.247 327.172,519.998 327.358,523.538 328.942,525.68 329.128,525.959 334.158,529.406 337.512,531.735 337.326,535.927 337.139,539.094 335.183,546.918 333.506,553.439 334.065,555.488 M311.244,568.995 Q289.446,564.989 263.085,560.891 210.455,552.787 188.379,552.787 173.661,552.787 156.894,549.713 143.667,547.291 140.872,548.129 136.028,549.62 131.464,557.258 126.9,564.989 127.272,571.324 127.552,575.608 129.042,586.973 130.253,597.126 129.135,601.132 M310.778,596.008 Q302.208,597.406 262.712,598.244 219.863,599.175 212.97,599.734 205.332,600.386 181.02,604.299 158.943,607.838 150.094,608.118 139.568,608.49 130.253,607.186 125.409,606.534 118.423,604.858 114.79,604.019 111.064,606.534 109.108,607.931 104.451,612.775 99.141,618.271 103.985,630.008 104.916,632.337 103.333,645.657 101.563,659.071 102.587,661.679 L105.848,669.597 Q109.481,679.564 110.971,690.09 M176.642,661.679 Q177.946,665.871 180.368,677.887 182.976,690.742 182.697,693.35" test="Avatar Man"/>
      <path id="Layer4_0_2_STROKES" stroke="#FF0" stroke-width="1.863" stroke-linejoin="round" stroke-linecap="round" fill="none" d="M372.629,234.959 Q371.698,240.175 373.561,243.994 375.517,248 379.15,248 380.64,248 382.69,246.882 385.018,245.578 385.67,243.808 M314.411,239.151 Q313.479,245.671 313.479,246.137 313.479,248.032 314.876,250.049 315.62,251.104 316.739,252.192 320.186,255.452 323.726,255.452 325.589,255.452 326.8,253.589 327.545,252.564 328.849,250.329" test="Avatar Man"/>
      <path id="Layer4_0_3_STROKES" stroke="#FFF" stroke-width="1.863" stroke-linejoin="round" stroke-linecap="round" fill="none" d="M405.232,285.726 Q411.473,288.241 411.752,292.432 411.771,292.697 411.799,292.991 411.793,293.062 411.799,293.131 L411.799,293.271 Q411.834,295.695 411.287,300.164 M396.848,302.493 Q402.987,301.028 406.722,296.531 407.974,295.026 408.958,293.178" test="Avatar Man"/>
      <path id="Layer4_0_4_STROKES" stroke="#F90" stroke-width="1.863" stroke-linejoin="round" stroke-linecap="round" fill="none" d="M333.6,558.283 Q335.556,558.096 352.602,565.082 373.84,571.976 396.01,571.789 417.341,571.603 436.158,566.2 451.993,561.636 453.297,562.008 459.073,563.499 463.637,573.745 469.412,586.507 466.338,602.995 462.519,623.767 452.738,639.044 441.281,656.835 424.421,662.145 L411.193,666.243 Q411.007,666.243 412.311,664.846 413.988,662.983 412.311,661.679 404.3,651.339 397.221,642.49 383.342,625.071 374.12,621.159 360.054,615.197 346.268,608.211 329.594,599.548 326.148,595.543 322.98,591.816 322.328,580.918 322.142,569.647 321.956,567.598 321.676,564.803 325.03,562.567 326.893,561.263 333.6,558.283Z" test="Avatar Man"/>
    </g>
    <g id="Avatar-Lady">
      <path fill="#000" stroke="none" d="M192.004,594.575 Q188.028,593.344 184.569,592.983 175.44,592.585 171.59,592.298 165.299,591.829 158.922,588.71 155.069,587.195 149.774,583.496 139.277,576.104 130.519,564.404 121.87,552.851 116.4,539.746 L114.344,540.725 Q113.349,547.733 108,563.763 103.988,575.958 102.807,585.282 102.583,587.018 102.461,588.656 102.209,592.036 101.743,608.431 99.993,631.906 96.539,640.241 94.234,645.828 91.128,652.018 89.175,656.688 88.671,663.448 88.39,667.214 88.886,671.962 L88.879,672.056 Q89.334,676.449 90.426,681.708 92.633,692.637 92.234,697.989 92.024,700.806 90.788,703.452 90.116,704.866 89.406,705.521 L90.89,707.142 Q90.772,709.286 90.14,713.413 90.113,713.62 90.112,713.788 89.243,719.489 87.482,728.794 L87.475,728.888 Q86.778,732.611 85.934,736.893 L89.588,739.81 Q92.808,736.031 100.719,728.553 111.787,718.142 114.624,714.294 L115.163,713.39 Q119.509,709.559 123.829,701.005 129.016,689.684 132.567,682.584 133.346,681.004 134.026,679.482 134.347,678.953 134.579,678.39 134.689,678.281 134.694,678.115 134.785,678.058 134.802,677.935 L134.802,677.935 Q141.847,663.781 146.339,654.906 155.654,636.338 160.712,628.029 163.046,624.15 166.11,620.216 167.333,618.623 168.615,617.004 L168.925,616.649 169.026,616.562 Q172.272,612.84 176.1,609.064 184.969,600.283 191.367,596.794 L192.004,594.575 M181.883,425.089 L182.248,411.331 181.778,411.296 Q171.262,410.512 165.015,410.707 152.422,411.185 142.153,414.668 132.26,418.18 122.822,424.463 119.252,426.809 115.749,429.412 115.744,429.457 115.648,429.499 115.397,429.718 115.05,429.927 109.834,434.048 104.852,438.798 96.32,446.848 92.24,455.986 88.166,465.03 86.349,475.47 L85.621,478.91 Q88.56,479.531 92.124,480.339 97.97,481.719 105.768,487.304 106.168,487.615 111.289,491.776 111.34,491.799 111.383,491.783 113.11,493.254 115.384,495.103 113.11,493.254 111.383,491.783 111.34,491.799 111.289,491.776 106.168,487.615 105.768,487.304 97.97,481.719 92.124,480.339 88.56,479.531 85.621,478.91 L81.685,491.174 Q83.565,491.743 85.559,492.407 100.679,497.311 106.709,497.477 100.679,497.311 85.559,492.407 83.565,491.743 81.685,491.174 81.501,491.109 81.317,491.052 68.752,487.134 61.707,486.852 L56.272,491.357 Q58.433,493.984 63.318,499.436 69.824,506.644 74.053,509.962 74.881,510.55 75.579,511.02 81.51,515.05 88.842,515.502 94.201,515.807 101.695,517.876 107.62,519.451 109.547,518.934 L115.344,520.971 112.603,528.604 116.327,539.457 Q116.395,539.624 116.4,539.746 121.87,552.851 130.519,564.404 139.277,576.104 149.774,583.496 155.069,587.195 158.922,588.71 165.299,591.829 171.59,592.298 175.44,592.585 184.569,592.983 188.028,593.344 192.004,594.575 L192.098,594.582 Q195.195,595.618 198.611,597.145 209.036,601.699 212.179,602.595 218.922,604.608 223.051,603.688 224.978,603.171 230.3,600.169 233.553,598.334 236.523,590.152 239.944,579.737 242.155,574.142 244.582,568.186 252.903,556.625 254.001,555.095 255.012,553.667 261.871,543.956 264.597,539.085 264.894,538.559 265.143,538.087 269.442,529.815 267.712,518.828 266.363,510.324 262.464,504.368 L256.959,494.609 Q256.323,494.955 255.502,495.162 249.359,496.498 250.11,490.228 L245.221,487.408 227.504,489.487 Q227.555,489.97 227.622,490.44 227.399,490.13 227.1,489.834 224.596,486.445 220.52,483.112 211.519,475.926 202.674,476.777 194.111,477.649 179.021,485.022 164.485,492.697 157.244,495.957 156.261,496.475 155.383,496.857 150.499,499.042 133.082,505.959 131.332,506.659 129.777,507.223 125.228,509.142 122.368,510.353 119.324,511.816 118.336,512.508 119.324,511.816 122.368,510.353 125.228,509.142 129.777,507.223 131.332,506.659 133.082,505.959 150.499,499.042 155.383,496.857 156.261,496.475 157.244,495.957 164.485,492.697 179.021,485.022 194.111,477.649 202.674,476.777 211.519,475.926 220.52,483.112 224.596,486.445 227.1,489.834 L227.504,489.487 Q227.472,489.25 227.445,489.01 226.959,485.216 226.732,480.837 226.261,470.698 227.963,466.86 229.328,463.751 237.461,461.052 244.734,458.479 244.419,456.378 243.517,450.74 236.006,441.304 L228.692,433.016 Q213.358,441.521 199.324,449.523 184.624,458.012 171.378,465.946 149.009,479.764 140.924,484.354 131.448,489.745 123.979,492.533 121.491,493.509 119.231,494.162 121.491,493.509 123.979,492.533 131.448,489.745 140.924,484.354 149.009,479.764 171.378,465.946 184.624,458.012 199.324,449.523 L193.979,440.154 Q193.218,438.964 188.474,432.945 183.295,426.422 181.883,425.089 M210.434,496.806 Q209.225,495.3 204.86,494.314 201.553,493.567 190.982,498.095 187.584,499.59 183.451,501.593 166.405,509.859 163.776,509.663 166.405,509.859 183.451,501.593 187.584,499.59 190.982,498.095 201.553,493.567 204.86,494.314 209.225,495.3 210.434,496.806 211.644,498.313 215.861,501.271 211.644,498.313 210.434,496.806 M203.284,511.664 Q205.82,509.304 205.946,507.614 205.981,507.144 203.809,504.622 205.981,507.144 205.946,507.614 205.82,509.304 203.284,511.664 200.538,514.292 198.191,514.117 191.336,513.606 191.7,508.723 191.756,507.972 191.871,507.697 192.195,507.155 193.879,504.826 192.195,507.155 191.871,507.697 191.756,507.972 191.7,508.723 191.336,513.606 198.191,514.117 200.538,514.292 203.284,511.664 M178.178,568.523 Q177.671,569.392 176.918,570.223 174.851,572.618 173.668,573.286 174.851,572.618 176.918,570.223 177.671,569.392 178.178,568.523 179.852,566.327 180.002,564.316 L179.795,562.034 180.002,564.316 Q179.852,566.327 178.178,568.523 M226.951,539.961 Q229.329,540.138 232.583,539.153 236.086,538.204 240.562,535.971 246.963,532.698 248.63,530.341 249.255,529.564 249.306,528.881 249.362,528.129 247.673,525.454 246.078,522.786 245.347,522.448 246.078,522.786 247.673,525.454 249.362,528.129 249.306,528.881 249.255,529.564 248.63,530.341 246.963,532.698 240.562,535.971 236.086,538.204 232.583,539.153 229.329,540.138 226.951,539.961 223.289,539.688 221.044,536.877 217.509,532.364 217.241,532.156 217.509,532.364 221.044,536.877 223.289,539.688 226.951,539.961 M248.025,546.064 Q248.081,545.313 247.045,544.008 248.081,545.313 248.025,546.064 247.934,547.285 247.387,548.283 246.841,549.281 245.839,550.056 243.741,551.599 241.018,551.396 239.985,551.319 237.888,550.313 235.885,549.314 234.641,548.277 235.885,549.314 237.888,550.313 239.985,551.319 241.018,551.396 243.741,551.599 245.839,550.056 246.841,549.281 247.387,548.283 247.934,547.285 248.025,546.064 M200.59,575.67 Q204.742,575.696 208.989,575.73 204.742,575.696 200.59,575.67 189.102,576.513 179.958,569.978 189.102,576.513 200.59,575.67 M148.586,453.766 Q144.638,448.467 137.979,445.327 131.414,442.194 125.342,442.591 131.414,442.194 137.979,445.327 144.638,448.467 148.586,453.766Z" test="Avatar Lady" stroke-width="1.883"/>
      <path id="Layer3_0_1_STROKES" stroke="#009EFF" stroke-width="1.883" stroke-linejoin="round" stroke-linecap="round" fill="none" d="M245.221,487.408 Q244.423,482.911 248.024,481.48 251.537,479.948 254.807,479.153 M227.265,428.095 Q227.61,427.27 227.645,426.801 227.715,425.862 225.064,419.621 221.927,412.306 221.461,410.949 219.76,405.912 214.874,404.321 209.744,403.466 208.023,402.488 208.294,403.925 207.951,408.526 L207.259,415.273 Q206.97,415.345 204.961,414.44 202.763,413.521 201.73,413.444 198.068,413.171 196.11,412.836 191.457,411.923 186.199,411.531 L182.248,411.331 M181.883,425.089 Q183.295,426.422 188.474,432.945 193.218,438.964 193.979,440.154 M208.023,402.488 Q208.027,402.394 207.936,402.387 L207.957,402.106 Q208.036,402.298 208.023,402.488Z M181.778,411.296 Q181.792,411.108 181.886,411.115 182.053,411.311 182.248,411.331 L181.778,411.296 Q171.262,410.512 165.015,410.707 152.422,411.185 142.153,414.668 132.26,418.18 122.822,424.463 119.252,426.809 115.796,429.416 115.744,429.457 115.695,429.503 115.397,429.718 115.097,429.93 109.834,434.048 104.852,438.798 96.32,446.848 92.24,455.986 88.166,465.03 86.349,475.47 M85.617,478.956 Q88.56,479.531 92.124,480.339 97.97,481.719 105.768,487.304 106.168,487.615 111.289,491.776 111.34,491.799 111.379,491.83 113.11,493.254 115.384,495.103 M215.861,501.271 Q211.644,498.313 210.434,496.806 209.225,495.3 204.86,494.314 201.553,493.567 190.978,498.141 187.584,499.59 183.451,501.593 166.405,509.859 163.776,509.663 M217.241,532.156 Q217.509,532.364 221.044,536.877 223.289,539.688 226.951,539.961 229.329,540.138 232.626,539.204 236.086,538.204 240.562,535.971 246.963,532.698 248.677,530.344 249.255,529.564 249.306,528.881 249.362,528.129 247.673,525.454 246.078,522.786 245.347,522.448 M262.464,504.368 Q266.363,510.324 267.712,518.828 269.442,529.815 265.143,538.087 264.894,538.559 264.597,539.085 261.871,543.956 255.012,553.667 254.001,555.095 252.903,556.625 244.582,568.186 242.155,574.142 239.944,579.737 236.523,590.152 233.553,598.334 230.3,600.169 224.978,603.171 223.051,603.688 218.922,604.608 212.179,602.595 209.036,601.699 198.611,597.145 195.195,595.618 192.095,594.629 L192.001,594.622 M191.367,596.794 Q184.969,600.283 176.1,609.064 172.272,612.84 169.073,616.566 L168.972,616.653 168.662,617.007 Q167.333,618.623 166.11,620.216 163.046,624.15 160.712,628.029 155.654,636.338 146.339,654.906 141.847,663.781 134.849,677.938 L134.799,677.982 Q134.785,678.058 134.741,678.119 134.689,678.281 134.623,678.441 134.347,678.953 134.073,679.485 133.346,681.004 132.567,682.584 129.016,689.684 123.829,701.005 119.509,709.559 115.163,713.39 M114.624,714.294 Q111.787,718.142 100.719,728.553 92.808,736.031 89.585,739.856 88.561,741.1 88.012,741.958 M234.641,548.277 Q235.885,549.314 237.888,550.313 239.985,551.319 241.018,551.396 243.741,551.599 245.839,550.056 246.841,549.281 247.387,548.283 247.934,547.285 248.025,546.064 248.081,545.313 247.045,544.008 M192.001,594.622 Q188.028,593.344 184.569,592.983 175.44,592.585 171.59,592.298 165.299,591.829 158.922,588.71 155.069,587.195 149.774,583.496 139.277,576.104 130.519,564.404 121.87,552.851 116.443,539.796 M114.344,540.725 Q113.349,547.733 108,563.763 103.988,575.958 102.807,585.282 102.583,587.018 102.461,588.656 102.209,592.036 101.743,608.431 99.993,631.906 96.539,640.241 94.234,645.828 91.128,652.018 89.175,656.688 88.671,663.448 88.39,667.214 88.883,672.009 L88.879,672.056 Q89.334,676.449 90.426,681.708 92.633,692.637 92.234,697.989 92.024,700.806 90.788,703.452 90.116,704.866 89.403,705.568 M90.89,707.142 Q90.772,709.286 90.136,713.459 90.113,713.62 90.112,713.788 89.243,719.489 87.479,728.841 L87.475,728.888 Q86.778,732.611 85.934,736.893 M161.382,630.439 L160.419,635.749 Q160.349,636.688 160.727,640.493 161.104,644.298 161.034,645.237 160.964,646.176 161.361,652.249 161.664,658.315 161.594,659.254 161.006,667.141 147.086,699.34 133.073,731.532 132.548,738.574 132.037,745.429 141.155,762.444 148.285,775.722 157.596,788.88 164.349,798.353 178.467,840.763 178.376,841.983 179.106,842.321 179.75,842.558 179.892,841.908 M95.173,777.617 Q97.423,779.107 108.741,791.942 120.827,805.873 120.624,808.596 120.372,811.977 142.197,830.788 164.023,849.6 163.743,853.356 163.659,854.483 164.041,854.417 164.424,854.351 164.41,854.539 L165.21,853.938 M148.586,453.766 Q144.638,448.467 137.979,445.327 131.414,442.194 125.342,442.591 M85.617,478.956 Q85.523,478.961 85.43,478.942 85.335,478.924 85.242,478.928 80.772,478.038 77.775,477.758 69.714,476.968 63.731,478.694 56.298,480.878 55.411,481.379 53.932,482.213 53.83,484.849 53.808,487.68 55.069,489.757 55.426,490.27 56.102,491.108 56.189,491.205 56.276,491.31 L56.319,491.361 M61.707,486.852 Q68.752,487.134 81.317,491.052 81.501,491.109 81.685,491.174 M56.319,491.361 Q58.433,493.984 63.318,499.436 69.824,506.644 74.1,509.965 74.881,510.55 75.579,511.02 81.51,515.05 88.842,515.502 94.201,515.807 101.695,517.876 107.62,519.451 109.547,518.934 M112.603,528.604 L116.327,539.457 Q116.395,539.624 116.443,539.796 M69.452,515.945 Q66.094,519.188 61.894,538.798 60.002,547.722 59.559,549.86 58.896,553.682 58.574,558.002 58.182,563.26 59.467,575.159 60.658,587.05 60.168,593.623 60.117,594.307 60.063,595.032 59.755,598.151 59.075,601.945 57.975,608.167 55.888,616.201 54.426,621.835 52.479,628.364 45.68,651.179 44.252,670.334 44.021,673.433 44.68,683.586 45.382,693.174 45.061,694.945 M81.685,491.174 Q83.565,491.743 85.559,492.407 100.679,497.311 106.709,497.477 M90.448,538.283 L90.461,540.645 Q90.3,542.804 88.457,548.521 86.608,554.332 86.056,559.201 85.368,564.626 84.682,573.828 84.605,574.861 84.736,578.175 84.86,581.584 84.769,582.804 84.764,582.872 84.758,582.945 84.553,585.468 83.565,590.08 82.495,595.571 81.545,596.916 80.623,597.886 78.824,600.49 77.56,602.237 76.906,603.416 76.251,604.595 76.206,605.205 M76.097,644.665 Q76.041,645.416 74.34,653.032 72.545,660.641 72.461,661.768 72.307,663.834 73.571,669.688 74.161,672.634 74.452,674.333 74.705,676.008 74.67,676.473 74.432,679.666 71.268,685.379 68.434,690.455 66.409,692.287 M60.063,595.032 Q54.662,595.29 48.009,600.931 41.849,606.1 39.796,612.311 39.202,614.123 38.953,616.025 38.129,622.006 28.852,684.388 19.961,745.383 19.378,751.949 19.049,756.362 17.824,763.919 17.655,765.03 17.526,766.022 L17.519,766.115 Q17.184,769.31 17.466,771.257 17.716,772.976 52.226,833.146 86.497,892.731 86.311,896.494 M37.57,611.767 Q28.213,615.696 18.912,618.874 5.641,623.361 -1.53,623.299 -16.387,622.474 -33.637,620.811 -68.035,617.397 -79.903,613.207 M89.403,705.568 Q88.74,706.227 88.035,706.174 M85.934,736.893 L85.931,736.94 Q85.536,739.073 85.082,741.362 82.656,753.588 79.224,769.913 78.467,773.728 87.136,792.975 97.843,816.529 99.962,823.58 114.396,871.867 113.305,892.841 M-83.073,726.655 Q-75.84,728.421 -58.207,736.346 -39.027,745.046 -28.777,751.947 -14.839,761.296 -11.094,762.991 -3.337,766.591 7.17,766.241 11.431,766.087 15.048,765.695" test="Avatar Lady"/>
      <path id="Layer3_0_2_STROKES" stroke="#FFBC00" stroke-width="1.883" stroke-linejoin="round" stroke-linecap="round" fill="none" d="M199.371,449.526 Q213.358,441.521 228.692,433.016 L236.006,441.304 Q243.517,450.74 244.419,456.378 244.734,458.479 237.461,461.052 229.328,463.751 227.963,466.86 226.261,470.698 226.732,480.837 226.959,485.216 227.445,489.01 227.472,489.25 227.504,489.487 M119.231,494.162 Q121.491,493.509 123.976,492.58 131.448,489.745 140.924,484.354 149.009,479.764 171.378,465.946 184.624,458.012 199.371,449.526 M227.147,489.838 Q227.399,490.13 227.622,490.44 227.555,489.97 227.504,489.487 M227.147,489.838 Q224.596,486.445 220.52,483.112 211.519,475.926 202.674,476.777 194.111,477.649 179.021,485.022 164.485,492.697 157.287,496.008 156.261,496.475 155.383,496.857 150.499,499.042 133.082,505.959 131.332,506.659 129.773,507.27 125.228,509.142 122.411,510.404 119.324,511.816 118.336,512.508" test="Avatar Lady"/>
      <path id="Layer3_0_3_STROKES" stroke="#FF0" stroke-width="1.883" stroke-linejoin="round" stroke-linecap="round" fill="none" d="M250.11,490.228 Q249.359,496.498 255.502,495.162 256.323,494.955 257.006,494.613 259.4,493.356 259.924,490.298 260.444,487.127 257.408,486.051 M193.879,504.826 Q192.195,507.155 191.871,507.697 191.756,507.972 191.7,508.723 191.336,513.606 198.191,514.117 200.538,514.292 203.284,511.664 205.82,509.304 205.946,507.614 205.981,507.144 203.809,504.622" test="Avatar Lady"/>
      <path id="Layer3_0_4_STROKES" stroke="#FFF" stroke-width="1.883" stroke-linejoin="round" stroke-linecap="round" fill="none" d="M179.795,562.034 L180.002,564.316 Q179.852,566.327 178.221,568.573 177.671,569.392 176.918,570.223 174.851,572.618 173.668,573.286 M179.958,569.978 Q189.102,576.513 200.59,575.67 204.742,575.696 208.989,575.73" test="Avatar Lady"/>
    </g>
    <g id="Censoredf12r1">
      <path fill="#000" stroke="none" d="M-18.85,403.35 L-18.85,629.9 829.1,629.9 829.1,403.35 -18.85,403.35Z" test="Censored"/>
      <path id="Layer1_0_1_STROKES" stroke="#F00" stroke-width="1" stroke-linejoin="round" stroke-linecap="round" fill="none" d="M65.35,401.7 L732,401.7 732,561.5 65.35,561.5 65.35,401.7Z" test="Censored"/>
    </g>
  </g>
</svg>