<?xml version="1.0" encoding="utf-8"?>
<svg id="EdithAnim13" image-rendering="inherit" baseProfile="basic" version="1.1" x="0px" y="0px" width="800" height="600" xmlns="http://www.w3.org/2000/svg" xmlns:xlink="http://www.w3.org/1999/xlink">
  <g id="22_Avatarf169r1" overflow="visible">
    <g id="Avatar-Manf0r1">
      <g id="Tailf0r1">
        <path id="Layer5_0_1_STROKES" stroke="#009EFF" stroke-width="2.57" stroke-linejoin="round" stroke-linecap="round" fill="none" d="M502.956,671.242 Q501.663,652.365 500.951,633.477 500.313,615.162 494.367,597.863 487.831,579.021 469.611,570.447 447.47,560.116 444.26,583.208 443.791,586.573 445.99,589.525 451.19,596.622 458.584,601.165 466.314,598.344 472.127,603.676 479.125,610.149 482.203,619.854 489.398,642.756 495.128,665.849 496.747,672.31 495.658,678.866" test="Tail_2.3242325232423263e+312.3242325232423263e+31_2.3242325232423263e+312.3242325232423263e+31_2.3242325232423263e+312.3242325232423263e+31_2.3242325232423263e+312.3242325232423263e+31_2.3242325232423263e+312.3242325232423263e+31_2.3242325232423263e+312.3242325232423263e+31_2.3242325232423263e+312.3242325232423263e+31_2.3242325232423263e+312.3242325232423263e+31_2.3242325232423263e+312.3242325232423263e+31_2.3242325232423263e+312.3242325232423263e+31_2.3242325232423263e+312.3242325232423263e+31_2.3242325232423263e+312.3242325232423263e+31_2.3242325232423263e+312.3242325232423263e+31_2.3242325232423263e+312.3242325232423263e+31_2.3242325232423263e+312.3242325232423263e+31_2.3242325232423263e+312.3242325232423263e+31_2.3242325232423263e+312.3242325232423263e+31_2.3242325232423263e+312.3242325232423263e+31_2.3242325232423263e+312.3242325232423263e+31_2.3242325232423263e+312.3242325232423263e+31_2.3242325232423263e+312.3242325232423263e+31_2.3242325232423263e+312.3242325232423263e+31_2.3242325232423263e+312.3242325232423263e+31_2.3242325232423263e+312.3242325232423263e+31_1"/>
      </g>
      <path fill="#000" stroke="none" d="M460.168,575.174 Q455.592,564.9 449.801,563.406 448.493,563.032 432.615,567.609 413.749,573.026 392.36,573.213 370.131,573.4 348.836,566.488 331.743,559.483 329.782,559.67 323.057,562.659 321.189,563.966 317.827,566.208 318.107,569.01 318.294,571.065 318.481,582.366 319.134,593.294 322.31,597.03 325.766,601.046 342.484,609.732 356.308,616.737 370.411,622.715 379.658,626.638 393.574,644.104 400.673,652.977 408.705,663.344 410.386,664.652 408.705,666.52 407.397,667.921 407.584,667.921 L420.847,663.811 Q437.752,658.487 449.241,640.648 459.048,625.33 462.877,604.502 465.959,587.97 460.168,575.174 M466.146,186.537 L462.784,185.136 Q462.735,185.254 462.69,185.323 461.678,187.908 461.009,190.273 459.234,196.624 456.432,206.338 456.369,206.508 456.246,206.618 453.686,213.418 448.4,216.425 437.285,222.776 431.121,225.765 L435.324,235.105 Q434.857,241.923 437.005,287.596 437.084,289.281 437.099,290.865 438.841,326.553 439.06,337.378 439.058,337.449 439.06,337.471 439.092,339.975 439.06,341.114 438.686,355.778 441.395,378.941 441.769,382.21 446.906,379.501 452.043,376.699 451.669,374.738 451.482,373.337 453.63,374.084 455.405,374.738 455.872,375.205 455.965,375.298 462.877,351.388 L468.481,360.728 Q468.574,360.821 471.75,340.18 L477.354,342.515 Q477.462,342.625 476.7,332.708 476.741,332.686 476.7,332.615 475.635,317.368 472.591,278.629 470.743,254.958 469.322,239.401 467.562,218.607 466.613,212.315 466.348,210.481 466.146,209.887 466.348,210.481 466.613,212.315 467.562,218.607 469.322,239.401 L470.816,239.308 Q472.684,239.121 478.195,233.611 483.051,228.941 486.694,230.435 489.963,231.836 509.577,260.23 532.18,288.997 550.673,293.48 534.048,294.04 509.39,313.001 501.731,318.885 494.166,325.983 L493.045,327.011 Q494.375,341.207 498.743,389.775 L499.77,389.682 Q504.627,386.973 538.624,360.261 571.408,334.389 581.962,325.236 589.808,318.418 596.252,307.677 599.521,302.166 603.444,295.348 605.312,293.2 609.328,290.211 612.597,287.222 612.784,282.272 612.971,277.415 577.479,254.532 538.157,230.061 530.592,224.364 508.363,207.645 497.995,200.921 485.644,192.823 477.261,189.246 470.295,186.281 466.146,186.537 M399.739,180.84 Q402.541,180.373 405.156,179.906 409.359,179.906 409.079,185.043 417.111,184.109 420.287,185.043 423.649,186.07 423.556,189.713 L428.786,192.141 Q432.458,185.002 441.395,179.065 446.532,175.609 450.922,174.488 450.991,174.473 451.015,174.395 L449.801,166.923 Q451.202,166.83 448.493,163.561 443.543,157.863 439.527,152.913 434.11,146.188 415.243,140.117 398.711,134.793 389.558,134.7 360.23,134.42 340.056,142.639 327.54,147.776 316.332,163.28 314.184,166.219 312.41,168.884 307.401,176.823 305.872,182.801 L305.872,185.043 Q306.058,185.043 306.899,185.323 307.833,185.51 308.487,185.51 311.849,185.51 315.212,182.801 319.041,179.625 322.684,178.972 L322.684,181.307 326.887,181.307 Q329.689,180.746 335.012,179.158 339.122,177.851 339.963,178.038 L339.963,180.373 Q340.897,180.373 344.633,180.84 350.797,180.84 356.775,177.571 L361.445,177.571 361.445,179.439 368.917,179.439 Q381.245,175.703 381.993,175.703 383.207,175.703 384.328,176.543 385.635,177.477 388.064,177.571 388.064,179.906 387.597,180.84 L399.739,180.84Z" test="Avatar Man" stroke-width="1.868"/>
      <path id="Layer4_0_1_STROKES" stroke="#009EFF" stroke-width="1.868" stroke-linejoin="round" stroke-linecap="round" fill="none" d="M423.556,189.713 Q423.649,186.07 420.287,185.043 417.111,184.109 409.079,185.043 409.359,179.906 405.156,179.906 402.541,180.373 399.739,180.84 L387.597,180.84 Q388.064,179.906 388.064,177.571 385.635,177.477 384.328,176.543 383.207,175.703 381.993,175.703 381.245,175.703 368.917,179.439 L361.445,179.439 361.445,177.571 356.775,177.571 Q350.797,180.84 344.633,180.84 340.897,180.373 339.963,180.373 L339.963,178.038 Q339.122,177.851 335.012,179.158 329.689,180.746 326.887,181.307 L322.684,181.307 322.684,178.972 Q319.041,179.625 315.212,182.801 311.849,185.51 308.487,185.51 307.833,185.51 306.899,185.323 306.058,185.043 305.872,185.043 L305.872,182.801 Q307.401,176.823 312.456,168.931 314.184,166.219 316.332,163.28 327.54,147.776 340.056,142.639 360.23,134.42 389.558,134.7 398.711,134.793 415.243,140.117 434.11,146.188 439.527,152.913 443.543,157.863 448.493,163.561 451.202,166.83 449.801,166.923 M451.062,174.442 Q451.131,174.449 451.202,174.442 454.026,173.818 460.075,173.461 464.465,173.274 467.173,171.5 468.668,170.566 470.816,168.791 471.657,168.324 468.201,174.302 466.613,177.01 465.305,179.625 464.506,181.196 463.858,182.708 463.703,183.02 463.578,183.315 463.305,183.898 463.064,184.482 462.918,184.811 462.784,185.136 M466.146,186.537 Q470.295,186.281 477.307,189.292 485.644,192.823 497.995,200.921 508.363,207.645 530.592,224.364 538.157,230.061 577.479,254.532 612.971,277.415 612.784,282.272 612.597,287.222 609.328,290.211 605.312,293.2 603.444,295.348 599.521,302.166 596.252,307.677 589.808,318.418 581.962,325.236 571.408,334.389 538.624,360.261 504.627,386.973 499.77,389.682 499.286,389.998 498.836,390.289 493.4,393.816 490.99,395.193 486.694,397.714 482.958,397.154 M465.305,179.625 Q463.85,181.221 462.644,182.147 461.424,183.036 460.449,183.268 456.899,183.548 452.603,184.202 447.092,185.043 444.104,187.097 440.087,190.553 436.258,193.542 431.495,197.278 428.506,199.053 L426.451,200.08 Q426.901,195.959 428.833,192.188 M422.622,189.713 L423.556,189.713 M428.833,192.188 Q432.458,185.002 441.395,179.065 446.532,175.609 450.922,174.488 450.991,174.473 451.062,174.442 M462.784,185.136 Q462.735,185.254 462.69,185.369 461.678,187.908 461.009,190.273 459.234,196.624 456.432,206.338 456.369,206.508 456.292,206.665 453.686,213.418 448.4,216.425 437.285,222.776 431.121,225.765 M435.324,235.105 Q434.857,241.923 437.005,287.596 437.084,289.281 437.145,290.912 438.841,326.553 439.06,337.378 439.058,337.449 439.06,337.518 439.092,339.975 439.06,341.114 438.686,355.778 441.395,378.941 441.769,382.21 446.906,379.501 452.043,376.699 451.669,374.738 451.482,373.337 453.63,374.084 455.405,374.738 455.872,375.205 455.965,375.298 462.877,351.388 L468.481,360.728 Q468.574,360.821 471.75,340.18 L477.354,342.515 Q477.462,342.625 476.747,332.755 476.741,332.686 476.747,332.615 475.635,317.368 472.591,278.629 470.743,254.958 469.368,239.401 467.562,218.607 466.613,212.315 466.348,210.481 466.146,209.887 M493.045,327.057 L494.166,325.983 Q501.731,318.885 509.39,313.001 534.048,294.04 550.673,293.48 532.18,288.997 509.577,260.23 489.963,231.836 486.694,230.435 483.051,228.941 478.195,233.611 472.684,239.121 470.816,239.308 M365.741,231.836 Q366.83,232.012 369.103,232.116 371.696,232.21 375.828,232.21 383.113,232.116 386.289,231.836 392.173,231.276 392.92,231.089 396.656,230.061 397.03,227.166 M420.38,306.556 Q421.314,312.627 423.462,321.407 426.077,331.961 428.319,337.378 M316.239,303.754 Q316.239,303.847 316.613,313.374 316.893,320.192 319.508,324.769 320.349,326.237 321.61,327.664 325.435,331.937 333.144,335.79 343.792,341.207 354.066,341.581 L357.849,341.861 357.989,341.861 Q367.889,342.235 370.878,342.048 376.015,341.674 382.086,339.713 386.569,338.312 398.618,327.478 407.181,319.699 416.27,310.199 416.388,310.085 416.504,309.965 416.575,309.898 416.644,309.825 416.739,309.735 416.831,309.638 418.265,308.116 419.726,306.556 419.821,306.455 419.913,306.369 419.95,306.315 420.006,306.276 420.021,306.222 420.053,306.182 431.05,294.457 432.522,291.145 M357.802,342.515 Q356.961,346.531 355.374,355.684 353.786,363.623 351.264,367.733 M488.095,331.774 L493.045,327.057 M477.821,406.027 Q477.728,406.214 468.294,430.778 461.569,448.244 459.141,458.331 456.152,470.566 453.537,506.992 450.922,542.484 452.136,550.33 M398.338,454.035 Q398.898,456.089 400.766,456.65 401.326,456.837 402.821,456.837 405.249,456.837 406.183,455.716 406.557,455.342 408.051,451.886 M360.978,440.492 Q360.791,457.49 362.005,460.106 363.966,464.776 374.988,464.776 380.311,464.776 380.778,464.682 381.339,464.589 383.394,463.375 M362.379,497.933 Q361.445,500.735 361.445,503.817 361.445,508.954 365.554,509.234 368.263,509.327 376.856,509.141 M359.11,536.694 Q363.873,539.963 366.955,540.71 369.197,541.177 373.12,540.43 M406.837,668.481 Q399.832,671.75 381.059,675.299 362.098,678.848 341.924,680.623 324.458,682.211 283.362,681.37 252.353,680.81 234.514,679.689 220.784,678.848 192.951,675.953 186.039,675.206 180.902,676.327 177.26,677.167 176.139,676.42 M310.635,167.857 Q307.086,165.709 302.883,163.467 294.477,159.077 291.955,159.451 289.246,159.825 291.488,173.181 293.356,184.576 295.224,189.339 M299.894,201.948 Q300.641,205.03 302.603,211.195 303.723,216.145 300.828,218.293 297.262,220.951 293.87,223.43 L293.823,223.477 Q242.862,261.317 236.382,263.592 230.685,265.273 229.284,265.74 227.322,266.487 227.042,268.262 226.575,271.905 226.388,284.42 226.108,298.804 227.042,301.886 230.218,314.588 254.688,350.734 278.692,386.133 292.889,399.956 M301.762,234.171 Q304.657,235.665 310.448,236.413 310.684,236.448 310.915,236.459 316.381,237.242 321.843,236.973 325.299,236.786 333.331,235.479 339.869,234.358 341.924,234.638 M301.295,258.455 Q300.174,260.323 288.126,272.372 277.198,283.299 274.209,286.008 M324.085,280.311 Q328.288,280.311 332.958,279.377 L351.171,279.377 Q345.567,285.354 342.391,288.53 336.507,294.321 335.106,294.321 332.584,294.321 328.848,289.09 325.019,283.113 323.618,281.712 M263.935,280.871 Q265.538,284.743 268.979,289.651 269.016,289.705 269.072,289.744 277.635,302.024 297.559,320.753 306.815,329.445 313.624,336.07 329.38,351.354 332.117,355.591 M300.828,426.108 Q300.174,440.959 303.163,448.057 305.031,452.353 310.728,457.21 316.613,461.974 321.843,463.468 M316.706,471.874 Q316.799,474.769 316.332,486.725 316.146,497.933 317.64,500.828 319.415,504.284 323.804,507.179 328.101,509.981 330.716,509.701 M323.244,513.437 Q323.337,516.519 323.337,521.283 323.524,524.832 325.112,526.98 325.299,527.26 330.342,530.716 333.705,533.051 333.518,537.254 333.331,540.43 331.37,548.275 329.689,554.813 330.249,556.868 M307.366,570.411 Q285.51,566.395 259.078,562.285 206.307,554.159 184.171,554.159 169.414,554.159 152.602,551.077 139.339,548.649 136.537,549.489 131.681,550.984 127.104,558.643 122.527,566.395 122.901,572.746 123.181,577.042 124.676,588.437 125.89,598.618 124.769,602.634 M306.899,597.497 Q298.306,598.898 258.705,599.739 215.741,600.673 208.829,601.233 201.17,601.887 176.793,605.81 154.657,609.359 145.784,609.639 135.23,610.013 125.89,608.705 121.033,608.051 114.028,606.37 110.385,605.529 106.649,608.051 104.688,609.452 100.018,614.309 94.694,619.82 99.551,631.588 100.485,633.923 98.897,647.279 97.123,660.729 98.15,663.344 L101.419,671.283 Q105.062,681.277 106.556,691.831 M172.403,663.344 Q173.711,667.547 176.139,679.596 178.754,692.485 178.474,695.1" test="Avatar Man"/>
      <path id="Layer4_0_2_STROKES" stroke="#FF0" stroke-width="1.868" stroke-linejoin="round" stroke-linecap="round" fill="none" d="M368.917,235.479 Q367.983,240.709 369.851,244.538 371.812,248.555 375.455,248.555 376.949,248.555 379.004,247.434 381.339,246.126 381.993,244.352 M310.542,239.682 Q309.608,246.22 309.608,246.687 309.608,248.586 311.009,250.609 311.754,251.667 312.877,252.758 316.332,256.027 319.882,256.027 321.75,256.027 322.964,254.159 323.711,253.131 325.019,250.89" test="Avatar Man"/>
      <path id="Layer4_0_3_STROKES" stroke="#FFF" stroke-width="1.868" stroke-linejoin="round" stroke-linecap="round" fill="none" d="M401.607,286.382 Q407.864,288.903 408.145,293.106 408.163,293.372 408.191,293.667 408.186,293.738 408.191,293.807 L408.191,293.947 Q408.227,296.377 407.678,300.859 M393.201,303.194 Q399.356,301.725 403.101,297.216 404.356,295.707 405.343,293.854" test="Avatar Man"/>
      <path id="Layer4_0_4_STROKES" stroke="#F90" stroke-width="1.868" stroke-linejoin="round" stroke-linecap="round" fill="none" d="M329.782,559.67 Q331.743,559.483 348.836,566.488 370.131,573.4 392.36,573.213 413.749,573.026 432.615,567.609 448.493,563.032 449.801,563.406 455.592,564.9 460.168,575.174 465.959,587.97 462.877,604.502 459.048,625.33 449.241,640.648 437.752,658.487 420.847,663.811 L407.584,667.921 Q407.397,667.921 408.705,666.52 410.386,664.652 408.705,663.344 400.673,652.977 393.574,644.104 379.658,626.638 370.411,622.715 356.308,616.737 342.484,609.732 325.766,601.046 322.31,597.03 319.134,593.294 318.481,582.366 318.294,571.065 318.107,569.01 317.827,566.208 321.189,563.966 323.057,562.659 329.782,559.67Z" test="Avatar Man"/>
    </g>
    <g id="Avatar-Lady">
      <path fill="#000" stroke="none" d="M190.647,598.978 Q186.667,597.728 183.201,597.351 174.051,596.916 170.193,596.612 163.888,596.116 157.508,592.964 153.652,591.43 148.36,587.699 137.868,580.247 129.135,568.482 120.512,556.866 115.082,543.707 L113.018,544.68 Q111.992,551.701 106.564,567.749 102.493,579.957 101.272,589.299 101.04,591.038 100.911,592.679 100.645,596.066 100.11,612.499 98.26,636.024 94.763,644.365 92.43,649.957 89.292,656.149 87.315,660.822 86.782,667.597 86.485,671.371 86.963,676.133 L86.956,676.227 Q87.393,680.632 88.467,685.909 90.634,696.873 90.212,702.237 89.99,705.06 88.741,707.707 88.061,709.121 87.347,709.775 L88.828,711.407 Q88.701,713.555 88.05,717.689 88.023,717.897 88.021,718.066 87.127,723.776 85.324,733.097 L85.316,733.191 Q84.603,736.921 83.739,741.21 L87.39,744.148 Q90.633,740.373 98.594,732.91 109.732,722.519 112.59,718.672 L113.135,717.768 Q117.507,713.946 121.872,705.389 127.118,694.061 130.707,686.958 131.494,685.378 132.182,683.855 132.506,683.326 132.741,682.763 132.852,682.654 132.857,682.488 132.949,682.431 132.966,682.307 L132.966,682.307 Q140.086,668.148 144.625,659.269 154.039,640.695 159.142,632.385 161.498,628.507 164.585,624.576 165.818,622.984 167.11,621.366 L167.422,621.012 167.523,620.925 Q170.793,617.207 174.645,613.437 183.572,604.671 189,601.2 L190.647,598.978 M181.193,429.038 L181.615,415.248 181.144,415.211 Q170.605,414.382 164.343,414.552 151.717,414.98 141.409,418.43 131.478,421.909 121.991,428.17 118.402,430.506 114.88,433.102 114.875,433.147 114.779,433.189 114.527,433.408 114.177,433.615 108.932,437.724 103.918,442.466 95.333,450.501 91.205,459.645 87.085,468.694 85.221,479.152 L84.477,482.597 Q87.421,483.232 90.99,484.056 96.844,485.463 104.639,491.094 105.038,491.408 110.155,495.599 110.206,495.622 110.249,495.607 111.975,497.089 114.247,498.951 111.975,497.089 110.249,495.607 110.206,495.622 110.155,495.599 105.038,491.408 104.639,491.094 96.844,485.463 90.99,484.056 87.421,483.232 84.477,482.597 L80.482,494.875 Q82.364,495.453 84.36,496.127 99.496,501.105 105.541,501.296 99.496,501.105 84.36,496.127 82.364,495.453 80.482,494.875 80.297,494.81 80.113,494.752 67.534,490.772 60.472,490.461 L55.006,494.955 Q57.161,497.598 62.036,503.082 68.529,510.334 72.754,513.678 73.582,514.271 74.28,514.744 80.209,518.809 87.556,519.292 92.927,519.619 100.431,521.724 106.365,523.327 108.299,522.816 L114.101,524.882 111.323,532.522 115.011,543.417 Q115.079,543.585 115.082,543.707 120.512,556.866 129.135,568.482 137.868,580.247 148.36,587.699 153.652,591.43 157.508,592.964 163.888,596.116 170.193,596.612 174.051,596.916 183.201,597.351 186.667,597.728 190.647,598.978 L190.742,598.986 Q193.842,600.036 197.26,601.581 207.691,606.189 210.839,607.099 217.59,609.145 221.732,608.24 223.666,607.729 229.014,604.741 232.282,602.915 235.293,594.725 238.764,584.299 241.003,578.7 243.46,572.739 251.849,561.184 252.956,559.654 253.975,558.227 260.891,548.52 263.643,543.649 263.944,543.123 264.195,542.651 268.538,534.376 266.848,523.355 265.531,514.825 261.646,508.838 L256.168,499.034 Q255.53,499.377 254.705,499.582 248.542,500.896 249.32,494.613 L244.431,491.767 226.662,493.778 Q226.711,494.263 226.776,494.734 226.555,494.423 226.256,494.125 223.759,490.717 219.687,487.36 210.694,480.119 201.824,480.937 193.236,481.776 178.079,489.106 163.477,496.74 156.205,499.978 155.217,500.493 154.335,500.873 149.431,503.043 131.943,509.905 130.186,510.6 128.625,511.159 124.057,513.065 121.185,514.267 118.128,515.721 117.134,516.41 118.128,515.721 121.185,514.267 124.057,513.065 128.625,511.159 130.186,510.6 131.943,509.905 149.431,503.043 154.335,500.873 155.217,500.493 156.205,499.978 163.477,496.74 178.079,489.106 193.236,481.776 201.824,480.937 210.694,480.119 219.687,487.36 223.759,490.717 226.256,494.125 L226.662,493.778 Q226.632,493.541 226.605,493.3 226.134,489.495 225.924,485.104 225.493,474.939 227.215,471.098 228.596,467.988 236.759,465.316 244.061,462.765 243.753,460.658 242.872,455.003 235.381,445.513 L228.084,437.176 Q212.678,445.639 198.577,453.602 183.806,462.053 170.496,469.952 148.016,483.712 139.892,488.28 130.372,493.646 122.873,496.41 120.375,497.378 118.107,498.024 120.375,497.378 122.873,496.41 130.372,493.646 139.892,488.28 148.016,483.712 170.496,469.952 183.806,462.053 198.577,453.602 L193.257,444.189 Q192.499,442.993 187.768,436.94 182.603,430.38 181.193,429.038 M209.521,501.046 Q208.315,499.531 203.944,498.525 200.631,497.762 190.016,502.258 186.604,503.744 182.452,505.735 165.331,513.951 162.697,513.744 165.331,513.951 182.452,505.735 186.604,503.744 190.016,502.258 200.631,497.762 203.944,498.525 208.315,499.531 209.521,501.046 210.728,502.562 214.943,505.544 210.728,502.562 209.521,501.046 M202.293,515.911 Q204.845,513.555 204.978,511.862 205.015,511.391 202.848,508.854 205.015,511.391 204.978,511.862 204.845,513.555 202.293,515.911 199.53,518.534 197.177,518.349 190.308,517.809 190.693,512.916 190.752,512.163 190.868,511.888 191.195,511.346 192.893,509.018 191.195,511.346 190.868,511.888 190.752,512.163 190.693,512.916 190.308,517.809 197.177,518.349 199.53,518.534 202.293,515.911 M176.894,572.806 Q176.382,573.675 175.624,574.505 173.542,576.898 172.354,577.562 173.542,576.898 175.624,574.505 176.382,573.675 176.894,572.806 178.581,570.611 178.74,568.596 L178.541,566.308 178.74,568.596 Q178.581,570.611 176.894,572.806 M225.903,544.373 Q228.285,544.561 231.551,543.587 235.067,542.649 239.563,540.43 245.992,537.174 247.673,534.818 248.303,534.042 248.356,533.357 248.416,532.604 246.733,529.916 245.145,527.234 244.415,526.893 245.145,527.234 246.733,529.916 248.416,532.604 248.356,533.357 248.303,534.042 247.673,534.818 245.992,537.174 239.563,540.43 235.067,542.649 231.551,543.587 228.285,544.561 225.903,544.373 222.233,544.085 219.993,541.258 216.468,536.72 216.201,536.509 216.468,536.72 219.993,541.258 222.233,544.085 225.903,544.373 M247.002,550.577 Q247.061,549.825 246.028,548.513 247.061,549.825 247.002,550.577 246.906,551.801 246.354,552.799 245.802,553.797 244.795,554.57 242.685,556.108 239.956,555.894 238.921,555.812 236.824,554.795 234.82,553.785 233.577,552.741 234.82,553.785 236.824,554.795 238.921,555.812 239.956,555.894 242.685,556.108 244.795,554.57 245.802,553.797 246.354,552.799 246.906,551.801 247.002,550.577 M199.331,580.062 Q203.493,580.105 207.75,580.156 203.493,580.105 199.331,580.062 187.812,580.86 178.672,574.271 187.812,580.86 199.331,580.062 M147.698,457.649 Q143.762,452.321 137.1,449.146 130.532,445.979 124.443,446.352 130.532,445.979 137.1,449.146 143.762,452.321 147.698,457.649Z" test="Avatar Lady" stroke-width="1.888"/>
      <path id="Layer3_0_1_STROKES" stroke="#009EFF" stroke-width="1.888" stroke-linejoin="round" stroke-linecap="round" fill="none" d="M244.431,491.767 Q243.65,487.256 247.265,485.836 250.793,484.314 254.074,483.531 M226.673,432.236 Q227.022,431.411 227.059,430.941 227.133,430 224.501,423.733 221.386,416.387 220.925,415.025 219.24,409.969 214.349,408.354 209.21,407.476 207.489,406.489 207.754,407.93 207.392,412.541 L206.671,419.301 Q206.381,419.373 204.37,418.457 202.171,417.527 201.136,417.446 197.466,417.157 195.505,416.813 190.844,415.879 185.575,415.464 L181.615,415.248 M181.193,429.038 Q182.603,430.38 187.768,436.94 192.499,442.993 193.257,444.189 M207.489,406.489 Q207.493,406.394 207.402,406.387 L207.425,406.105 Q207.502,406.298 207.489,406.489Z M181.144,415.211 Q181.159,415.023 181.253,415.03 181.42,415.227 181.615,415.248 L181.144,415.211 Q170.605,414.382 164.343,414.552 151.717,414.98 141.409,418.43 131.478,421.909 121.991,428.17 118.402,430.506 114.927,433.106 114.875,433.147 114.826,433.193 114.527,433.408 114.224,433.619 108.932,437.724 103.918,442.466 95.333,450.501 91.205,459.645 87.085,468.694 85.221,479.152 M84.473,482.644 Q87.421,483.232 90.99,484.056 96.844,485.463 104.639,491.094 105.038,491.408 110.155,495.599 110.206,495.622 110.245,495.654 111.975,497.089 114.247,498.951 M214.943,505.544 Q210.728,502.562 209.521,501.046 208.315,499.531 203.944,498.525 200.631,497.762 190.013,502.305 186.604,503.744 182.452,505.735 165.331,513.951 162.697,513.744 M216.201,536.509 Q216.468,536.72 219.993,541.258 222.233,544.085 225.903,544.373 228.285,544.561 231.594,543.637 235.067,542.649 239.563,540.43 245.992,537.174 247.72,534.822 248.303,534.042 248.356,533.357 248.416,532.604 246.733,529.916 245.145,527.234 244.415,526.893 M261.646,508.838 Q265.531,514.825 266.848,523.355 268.538,534.376 264.195,542.651 263.944,543.123 263.643,543.649 260.891,548.52 253.975,558.227 252.956,559.654 251.849,561.184 243.46,572.739 241.003,578.7 238.764,584.299 235.293,594.725 232.282,602.915 229.014,604.741 223.666,607.729 221.732,608.24 217.59,609.145 210.839,607.099 207.691,606.189 197.26,601.581 193.842,600.036 190.738,599.033 L190.644,599.025 M189,601.2 Q183.572,604.671 174.645,613.437 170.793,617.207 167.571,620.929 L167.469,621.015 167.157,621.37 Q165.818,622.984 164.585,624.576 161.498,628.507 159.142,632.385 154.039,640.695 144.625,659.269 140.086,668.148 133.013,682.311 L132.963,682.354 Q132.949,682.431 132.904,682.492 132.852,682.654 132.784,682.813 132.506,683.326 132.229,683.859 131.494,685.378 130.707,686.958 127.118,694.061 121.872,705.389 117.507,713.946 113.135,717.768 M112.59,718.672 Q109.732,722.519 98.594,732.91 90.633,740.373 87.386,744.195 86.355,745.438 85.801,746.296 M233.577,552.741 Q234.82,553.785 236.824,554.795 238.921,555.812 239.956,555.894 242.685,556.108 244.795,554.57 245.802,553.797 246.354,552.799 246.906,551.801 247.002,550.577 247.061,549.825 246.028,548.513 M190.644,599.025 Q186.667,597.728 183.201,597.351 174.051,596.916 170.193,596.612 163.888,596.116 157.508,592.964 153.652,591.43 148.36,587.699 137.868,580.247 129.135,568.482 120.512,556.866 115.126,543.757 M113.018,544.68 Q111.992,551.701 106.564,567.749 102.493,579.957 101.272,589.299 101.04,591.038 100.911,592.679 100.645,596.066 100.11,612.499 98.26,636.024 94.763,644.365 92.43,649.957 89.292,656.149 87.315,660.822 86.782,667.597 86.485,671.371 86.959,676.18 L86.956,676.227 Q87.393,680.632 88.467,685.909 90.634,696.873 90.212,702.237 89.99,705.06 88.741,707.707 88.061,709.121 87.343,709.822 M88.828,711.407 Q88.701,713.555 88.047,717.736 88.023,717.897 88.021,718.066 87.127,723.776 85.32,733.144 L85.316,733.191 Q84.603,736.921 83.739,741.21 M159.804,634.804 L158.818,640.124 Q158.744,641.065 159.107,644.88 159.469,648.696 159.395,649.637 159.321,650.578 159.695,656.667 159.974,662.749 159.9,663.69 159.278,671.594 145.193,703.815 131.014,736.028 130.459,743.085 129.919,749.954 138.99,767.048 146.083,780.388 155.363,793.615 162.094,803.139 176.073,845.709 175.977,846.933 176.708,847.274 177.352,847.514 177.498,846.863 M92.834,782.07 Q95.083,783.573 106.377,796.485 118.435,810.5 118.221,813.229 117.954,816.616 139.756,835.563 161.558,854.51 161.262,858.274 161.173,859.403 161.557,859.338 161.941,859.274 161.926,859.462 L162.73,858.862 M147.698,457.649 Q143.762,452.321 137.1,449.146 130.532,445.979 124.443,446.352 M84.473,482.644 Q84.378,482.648 84.285,482.629 84.19,482.61 84.097,482.614 79.62,481.704 76.617,481.411 68.539,480.586 62.535,482.292 55.075,484.451 54.183,484.949 52.698,485.779 52.585,488.421 52.551,491.259 53.807,493.346 54.162,493.862 54.836,494.705 54.923,494.803 55.01,494.908 L55.053,494.959 M60.472,490.461 Q67.534,490.772 80.113,494.752 80.297,494.81 80.482,494.875 M55.053,494.959 Q57.161,497.598 62.036,503.082 68.529,510.334 72.801,513.681 73.582,514.271 74.28,514.744 80.209,518.809 87.556,519.292 92.927,519.619 100.431,521.724 106.365,523.327 108.299,522.816 M111.323,532.522 L115.011,543.417 Q115.079,543.585 115.126,543.757 M68.118,519.657 Q64.739,522.894 60.448,542.535 58.515,551.472 58.062,553.614 57.382,557.443 57.042,561.771 56.628,567.041 57.867,578.974 59.012,590.899 58.494,597.486 58.44,598.171 58.383,598.897 58.062,602.023 57.365,605.824 56.237,612.056 54.112,620.102 52.623,625.743 50.645,632.28 43.736,655.123 42.226,674.319 41.982,677.424 42.602,687.604 43.266,697.219 42.937,698.992 M80.482,494.875 Q82.364,495.453 84.36,496.127 99.496,501.105 105.541,501.296 M89.074,542.135 L89.077,544.502 Q88.907,546.666 87.037,552.389 85.159,558.207 84.586,563.085 83.874,568.521 83.149,577.743 83.068,578.778 83.185,582.101 83.295,585.518 83.199,586.741 83.194,586.809 83.188,586.882 82.972,589.41 81.963,594.029 80.868,599.529 79.91,600.874 78.982,601.843 77.167,604.446 75.894,606.192 75.233,607.371 74.572,608.55 74.524,609.161 M74.254,648.717 Q74.195,649.47 72.459,657.097 70.629,664.717 70.54,665.847 70.377,667.917 71.619,673.79 72.199,676.746 72.484,678.45 72.73,680.13 72.694,680.597 72.442,683.796 69.247,689.51 66.386,694.587 64.349,696.415 M58.383,598.897 Q52.968,599.134 46.276,604.762 40.08,609.918 37.996,616.136 37.394,617.95 37.136,619.855 36.286,625.848 26.732,688.344 17.571,749.451 16.959,756.031 16.611,760.454 15.353,768.024 15.178,769.137 15.045,770.13 L15.038,770.224 Q14.69,773.425 14.964,775.379 15.207,777.102 49.557,837.559 83.668,897.43 83.466,901.201 M35.768,615.582 Q26.371,619.482 17.034,622.63 3.714,627.074 -3.475,626.982 -18.365,626.095 -35.65,624.357 -70.118,620.795 -81.998,616.546 M87.343,709.822 Q86.676,710.48 85.971,710.424 M83.739,741.21 L83.735,741.257 Q83.331,743.393 82.866,745.686 80.385,757.932 76.877,774.282 76.104,778.104 84.714,797.433 95.352,821.088 97.447,828.164 111.72,876.628 110.54,897.649 M-85.638,730.257 Q-78.394,732.058 -60.751,740.073 -41.56,748.873 -31.313,755.833 -17.379,765.261 -13.632,766.975 -5.87,770.616 4.664,770.308 8.935,770.17 12.563,769.793" test="Avatar Lady"/>
      <path id="Layer3_0_2_STROKES" stroke="#FFBC00" stroke-width="1.888" stroke-linejoin="round" stroke-linecap="round" fill="none" d="M198.624,453.606 Q212.678,445.639 228.084,437.176 L235.381,445.513 Q242.872,455.003 243.753,460.658 244.061,462.765 236.759,465.316 228.596,467.988 227.215,471.098 225.493,474.939 225.924,485.104 226.134,489.495 226.605,493.3 226.632,493.541 226.662,493.778 M118.107,498.024 Q120.375,497.378 122.869,496.457 130.372,493.646 139.892,488.28 148.016,483.712 170.496,469.952 183.806,462.053 198.624,453.606 M226.303,494.129 Q226.555,494.423 226.776,494.734 226.711,494.263 226.662,493.778 M226.303,494.129 Q223.759,490.717 219.687,487.36 210.694,480.119 201.824,480.937 193.236,481.776 178.079,489.106 163.477,496.74 156.248,500.029 155.217,500.493 154.335,500.873 149.431,503.043 131.943,509.905 130.186,510.6 128.621,511.206 124.057,513.065 121.228,514.318 118.128,515.721 117.134,516.41" test="Avatar Lady"/>
      <path id="Layer3_0_3_STROKES" stroke="#FF0" stroke-width="1.888" stroke-linejoin="round" stroke-linecap="round" fill="none" d="M249.32,494.613 Q248.542,500.896 254.705,499.582 255.53,499.377 256.215,499.038 258.62,497.787 259.158,494.724 259.692,491.547 256.654,490.456 M192.893,509.018 Q191.195,511.346 190.868,511.888 190.752,512.163 190.693,512.916 190.308,517.809 197.177,518.349 199.53,518.534 202.293,515.911 204.845,513.555 204.978,511.862 205.015,511.391 202.848,508.854" test="Avatar Lady"/>
      <path id="Layer3_0_4_STROKES" stroke="#FFF" stroke-width="1.888" stroke-linejoin="round" stroke-linecap="round" fill="none" d="M178.541,566.308 L178.74,568.596 Q178.581,570.611 176.937,572.857 176.382,573.675 175.624,574.505 173.542,576.898 172.354,577.562 M178.672,574.271 Q187.812,580.86 199.331,580.062 203.493,580.105 207.75,580.156" test="Avatar Lady"/>
    </g>
    <g id="Censoredf12r1">
      <path fill="#000" stroke="none" d="M-18.85,403.35 L-18.85,629.9 829.1,629.9 829.1,403.35 -18.85,403.35Z" test="Censored"/>
      <path id="Layer1_0_1_STROKES" stroke="#F00" stroke-width="1" stroke-linejoin="round" stroke-linecap="round" fill="none" d="M65.35,401.7 L732,401.7 732,561.5 65.35,561.5 65.35,401.7Z" test="Censored"/>
    </g>
  </g>
</svg>