<?xml version="1.0" encoding="utf-8"?>
<svg id="EdithAnim13" image-rendering="inherit" baseProfile="basic" version="1.1" x="0px" y="0px" width="800" height="600" xmlns="http://www.w3.org/2000/svg" xmlns:xlink="http://www.w3.org/1999/xlink">
  <g id="22_Avatarf170r1" overflow="visible">
    <g id="Avatar-Manf0r1">
      <g id="Tailf0r1">
        <path id="Layer5_0_1_STROKES" stroke="#009EFF" stroke-width="2.572" stroke-linejoin="round" stroke-linecap="round" fill="none" d="M502.283,671.585 Q500.99,652.693 500.28,633.79 499.644,615.461 493.694,598.148 487.155,579.291 468.922,570.708 446.765,560.368 443.55,583.477 443.081,586.844 445.281,589.799 450.485,596.902 457.884,601.449 465.62,598.626 471.437,603.963 478.439,610.442 481.519,620.155 488.717,643.075 494.449,666.187 496.069,672.653 494.978,679.214" test="Tail_2.3242325232423263e+312.3242325232423263e+31_2.3242325232423263e+312.3242325232423263e+31_2.3242325232423263e+312.3242325232423263e+31_2.3242325232423263e+312.3242325232423263e+31_2.3242325232423263e+312.3242325232423263e+31_2.3242325232423263e+312.3242325232423263e+31_2.3242325232423263e+312.3242325232423263e+31_2.3242325232423263e+312.3242325232423263e+31_2.3242325232423263e+312.3242325232423263e+31_2.3242325232423263e+312.3242325232423263e+31_2.3242325232423263e+312.3242325232423263e+31_2.3242325232423263e+312.3242325232423263e+31_2.3242325232423263e+312.3242325232423263e+31_2.3242325232423263e+312.3242325232423263e+31_2.3242325232423263e+312.3242325232423263e+31_2.3242325232423263e+312.3242325232423263e+31_2.3242325232423263e+312.3242325232423263e+31_2.3242325232423263e+312.3242325232423263e+31_2.3242325232423263e+312.3242325232423263e+31_2.3242325232423263e+312.3242325232423263e+31_2.3242325232423263e+312.3242325232423263e+31_2.3242325232423263e+312.3242325232423263e+31_2.3242325232423263e+312.3242325232423263e+31_2.3242325232423263e+312.3242325232423263e+31_22"/>
      </g>
      <path fill="#000" stroke="none" d="M459.525,575.46 Q454.946,565.181 449.152,563.686 447.843,563.312 431.957,567.891 413.08,573.311 391.68,573.498 369.439,573.685 348.132,566.769 331.031,559.761 329.069,559.948 322.34,562.938 320.471,564.246 317.107,566.489 317.387,569.293 317.574,571.348 317.761,582.656 318.415,593.59 321.593,597.328 325.05,601.346 341.778,610.037 355.608,617.045 369.719,623.026 378.971,626.951 392.895,644.426 399.997,653.304 408.034,663.677 409.716,664.985 408.034,666.854 406.725,668.256 406.912,668.256 L420.182,664.144 Q437.097,658.818 448.591,640.969 458.403,625.643 462.235,604.804 465.319,588.263 459.525,575.46 M465.506,186.615 L462.141,185.213 Q462.093,185.331 462.048,185.4 461.035,187.987 460.366,190.353 458.59,196.707 455.787,206.426 455.723,206.596 455.6,206.707 453.039,213.51 447.75,216.519 436.629,222.873 430.462,225.864 L434.667,235.209 Q434.2,242.031 436.349,287.728 436.428,289.413 436.443,290.998 438.186,326.706 438.405,337.537 438.403,337.608 438.405,337.63 438.437,340.134 438.405,341.275 438.031,355.946 440.741,379.122 441.115,382.393 446.255,379.682 451.395,376.879 451.021,374.917 450.834,373.515 452.983,374.262 454.759,374.917 455.226,375.384 455.319,375.477 462.235,351.554 L467.842,360.899 Q467.935,360.992 471.113,340.34 L476.72,342.676 Q476.828,342.787 476.065,332.864 476.106,332.842 476.065,332.771 475,317.516 471.954,278.756 470.105,255.072 468.683,239.507 466.922,218.702 465.973,212.407 465.707,210.572 465.506,209.977 465.707,210.572 465.973,212.407 466.922,218.702 468.683,239.507 L470.178,239.414 Q472.047,239.227 477.561,233.714 482.42,229.041 486.065,230.536 489.335,231.938 508.96,260.347 531.575,289.129 550.078,293.615 533.444,294.176 508.773,313.146 501.11,319.033 493.541,326.136 L492.419,327.164 Q493.75,341.368 498.12,389.962 L499.148,389.869 Q504.007,387.158 538.023,360.432 570.824,334.546 581.384,325.388 589.233,318.566 595.681,307.819 598.952,302.306 602.877,295.484 604.746,293.335 608.764,290.344 612.035,287.354 612.222,282.401 612.409,277.542 576.898,254.646 537.555,230.162 529.986,224.462 507.745,207.734 497.372,201.006 485.014,192.904 476.626,189.325 469.657,186.359 465.506,186.615 M399.063,180.914 Q401.866,180.447 404.483,179.98 408.688,179.98 408.408,185.12 416.444,184.185 419.622,185.12 422.986,186.148 422.892,189.792 L428.126,192.222 Q431.8,185.078 440.741,179.139 445.881,175.681 450.273,174.56 450.342,174.545 450.367,174.466 L449.152,166.99 Q450.554,166.897 447.843,163.626 442.891,157.926 438.872,152.973 433.452,146.244 414.575,140.17 398.035,134.843 388.877,134.75 359.533,134.47 339.348,142.693 326.826,147.833 315.612,163.346 313.462,166.286 311.687,168.953 306.676,176.896 305.145,182.877 L305.145,185.12 Q305.332,185.12 306.173,185.4 307.108,185.587 307.762,185.587 311.126,185.587 314.49,182.877 318.322,179.699 321.966,179.045 L321.966,181.382 326.172,181.382 Q328.975,180.821 334.302,179.232 338.414,177.924 339.255,178.111 L339.255,180.447 Q340.189,180.447 343.927,180.914 350.095,180.914 356.076,177.644 L360.748,177.644 360.748,179.513 368.224,179.513 Q380.559,175.775 381.307,175.775 382.522,175.775 383.643,176.616 384.952,177.55 387.381,177.644 387.381,179.98 386.914,180.914 L399.063,180.914Z" test="Avatar Man" stroke-width="1.869"/>
      <path id="Layer4_0_1_STROKES" stroke="#009EFF" stroke-width="1.869" stroke-linejoin="round" stroke-linecap="round" fill="none" d="M422.892,189.792 Q422.986,186.148 419.622,185.12 416.444,184.185 408.408,185.12 408.688,179.98 404.483,179.98 401.866,180.447 399.063,180.914 L386.914,180.914 Q387.381,179.98 387.381,177.644 384.952,177.55 383.643,176.616 382.522,175.775 381.307,175.775 380.559,175.775 368.224,179.513 L360.748,179.513 360.748,177.644 356.076,177.644 Q350.095,180.914 343.927,180.914 340.189,180.447 339.255,180.447 L339.255,178.111 Q338.414,177.924 334.302,179.232 328.975,180.821 326.172,181.382 L321.966,181.382 321.966,179.045 Q318.322,179.699 314.49,182.877 311.126,185.587 307.762,185.587 307.108,185.587 306.173,185.4 305.332,185.12 305.145,185.12 L305.145,182.877 Q306.676,176.896 311.734,168 313.462,166.286 315.612,163.346 326.826,147.833 339.348,142.693 359.533,134.47 388.877,134.75 398.035,134.843 414.575,140.17 433.452,146.244 438.872,152.973 442.891,157.926 447.843,163.626 450.554,166.897 449.152,166.99 M450.413,174.513 Q450.482,174.52 450.554,174.513 453.379,173.889 459.431,173.532 463.823,173.345 466.533,171.569 468.029,170.635 470.178,168.859 471.019,168.392 467.561,174.373 465.973,177.083 464.664,179.699 463.865,181.271 463.216,182.783 463.061,183.095 462.936,183.391 462.663,183.974 462.422,184.559 462.276,184.888 462.141,185.213 M465.506,186.615 Q469.657,186.359 476.673,189.372 485.014,192.904 497.372,201.006 507.745,207.734 529.986,224.462 537.555,230.162 576.898,254.646 612.409,277.542 612.222,282.401 612.035,287.354 608.764,290.344 604.746,293.335 602.877,295.484 598.952,302.306 595.681,307.819 589.233,318.566 581.384,325.388 570.824,334.546 538.023,360.432 504.007,387.158 499.148,389.869 498.663,390.184 498.213,390.476 492.774,394.005 490.363,395.382 486.065,397.905 482.327,397.345 M464.664,179.699 Q463.208,181.296 462.001,182.223 460.781,183.112 459.805,183.344 456.254,183.624 451.955,184.279 446.442,185.12 443.451,187.175 439.433,190.633 435.602,193.624 430.836,197.362 427.845,199.137 L425.789,200.165 Q426.24,196.042 428.172,192.268 M421.958,189.792 L422.892,189.792 M428.172,192.268 Q431.8,185.078 440.741,179.139 445.881,175.681 450.273,174.56 450.342,174.545 450.413,174.513 M462.141,185.213 Q462.093,185.331 462.048,185.447 461.035,187.987 460.366,190.353 458.59,196.707 455.787,206.426 455.723,206.596 455.647,206.753 453.039,213.51 447.75,216.519 436.629,222.873 430.462,225.864 M434.667,235.209 Q434.2,242.031 436.349,287.728 436.428,289.413 436.489,291.045 438.186,326.706 438.405,337.537 438.403,337.608 438.405,337.677 438.437,340.134 438.405,341.275 438.031,355.946 440.741,379.122 441.115,382.393 446.255,379.682 451.395,376.879 451.021,374.917 450.834,373.515 452.983,374.262 454.759,374.917 455.226,375.384 455.319,375.477 462.235,351.554 L467.842,360.899 Q467.935,360.992 471.113,340.34 L476.72,342.676 Q476.828,342.787 476.112,332.911 476.106,332.842 476.112,332.771 475,317.516 471.954,278.756 470.105,255.072 468.73,239.507 466.922,218.702 465.973,212.407 465.707,210.572 465.506,209.977 M492.419,327.21 L493.541,326.136 Q501.11,319.033 508.773,313.146 533.444,294.176 550.078,293.615 531.575,289.129 508.96,260.347 489.335,231.938 486.065,230.536 482.42,229.041 477.561,233.714 472.047,239.227 470.178,239.414 M365.047,231.938 Q366.136,232.114 368.411,232.218 371.005,232.312 375.139,232.312 382.428,232.218 385.606,231.938 391.493,231.377 392.241,231.19 395.979,230.162 396.353,227.266 M419.715,306.698 Q420.65,312.772 422.799,321.557 425.415,332.116 427.658,337.537 M315.518,303.895 Q315.518,303.988 315.892,313.52 316.172,320.342 318.789,324.921 319.63,326.39 320.892,327.818 324.719,332.092 332.433,335.948 343.086,341.368 353.366,341.742 L357.15,342.022 357.29,342.022 Q367.196,342.396 370.187,342.209 375.326,341.835 381.401,339.873 385.886,338.471 397.941,327.631 406.509,319.848 415.603,310.343 415.721,310.229 415.837,310.109 415.908,310.042 415.977,309.969 416.072,309.879 416.164,309.782 417.599,308.259 419.061,306.698 419.156,306.597 419.248,306.511 419.285,306.457 419.341,306.418 419.356,306.363 419.388,306.324 430.391,294.592 431.864,291.279 M357.104,342.676 Q356.262,346.695 354.674,355.853 353.085,363.796 350.562,367.908 M487.466,331.93 L492.419,327.21 M477.187,406.222 Q477.093,406.409 467.655,430.987 460.926,448.462 458.497,458.554 455.506,470.796 452.89,507.242 450.273,542.753 451.488,550.603 M397.661,454.256 Q398.222,456.311 400.091,456.872 400.651,457.059 402.146,457.059 404.576,457.059 405.511,455.938 405.884,455.564 407.38,452.106 M360.281,440.705 Q360.094,457.713 361.309,460.33 363.271,465.002 374.298,465.002 379.625,465.002 380.092,464.909 380.653,464.815 382.709,463.601 M361.683,498.177 Q360.748,500.981 360.748,504.064 360.748,509.204 364.86,509.485 367.57,509.578 376.167,509.391 M358.412,536.959 Q363.178,540.23 366.262,540.977 368.504,541.444 372.429,540.697 M406.165,668.817 Q399.156,672.088 380.373,675.639 361.402,679.19 341.217,680.965 323.742,682.554 282.624,681.713 251.598,681.152 233.75,680.031 220.012,679.19 192.164,676.293 185.249,675.545 180.109,676.667 176.465,677.508 175.343,676.76 M309.911,167.925 Q306.36,165.775 302.155,163.533 293.744,159.14 291.221,159.514 288.511,159.888 290.754,173.251 292.623,184.652 294.492,189.418 M299.165,202.034 Q299.912,205.118 301.875,211.286 302.996,216.238 300.099,218.388 296.531,221.047 293.137,223.528 L293.09,223.574 Q242.102,261.435 235.619,263.711 229.918,265.393 228.516,265.86 226.554,266.608 226.274,268.384 225.806,272.028 225.619,284.55 225.339,298.942 226.274,302.026 229.451,314.735 253.935,350.9 277.951,386.317 292.156,400.148 M301.034,234.274 Q303.93,235.769 309.724,236.517 309.96,236.553 310.192,236.564 315.66,237.347 321.125,237.078 324.583,236.891 332.62,235.583 339.161,234.461 341.217,234.742 M300.566,258.571 Q299.445,260.44 287.39,272.495 276.456,283.429 273.466,286.139 M323.368,280.439 Q327.573,280.439 332.246,279.504 L350.469,279.504 Q344.862,285.485 341.684,288.662 335.797,294.456 334.395,294.456 331.872,294.456 328.134,289.223 324.303,283.242 322.901,281.84 M263.186,280 Q264.79,284.874 268.233,289.784 268.27,289.838 268.326,289.877 276.893,302.164 296.828,320.902 306.089,329.599 312.902,336.228 328.667,351.52 331.405,355.759 M300.099,426.314 Q299.445,441.173 302.435,448.275 304.304,452.573 310.005,457.433 315.892,462.199 321.125,463.694 M315.986,472.105 Q316.079,475.001 315.612,486.963 315.425,498.177 316.92,501.074 318.696,504.532 323.088,507.429 327.386,510.232 330.003,509.952 M322.527,513.69 Q322.62,516.774 322.62,521.54 322.807,525.091 324.396,527.24 324.583,527.52 329.629,530.978 332.993,533.314 332.807,537.52 332.62,540.697 330.657,548.547 328.975,555.088 329.536,557.144 M306.641,570.694 Q284.773,566.676 258.327,562.564 205.528,554.434 183.38,554.434 168.615,554.434 151.794,551.35 138.524,548.92 135.72,549.761 130.861,551.257 126.282,558.92 121.703,566.676 122.077,573.031 122.357,577.329 123.852,588.73 125.067,598.916 123.946,602.935 M306.173,597.795 Q297.576,599.197 257.953,600.038 214.966,600.972 208.051,601.533 200.388,602.187 175.997,606.112 153.85,609.663 144.972,609.943 134.412,610.317 125.067,609.009 120.208,608.355 113.199,606.673 109.554,605.831 105.816,608.355 103.854,609.756 99.182,614.616 93.855,620.129 98.714,631.904 99.649,634.24 98.06,647.604 96.285,661.06 97.313,663.677 L100.583,671.62 Q104.228,681.619 105.723,692.179 M171.605,663.677 Q172.914,667.882 175.343,679.937 177.96,692.833 177.68,695.45" test="Avatar Man"/>
      <path id="Layer4_0_2_STROKES" stroke="#FF0" stroke-width="1.869" stroke-linejoin="round" stroke-linecap="round" fill="none" d="M368.224,235.583 Q367.29,240.816 369.159,244.647 371.121,248.666 374.766,248.666 376.261,248.666 378.317,247.544 380.653,246.236 381.307,244.46 M309.818,239.788 Q308.883,246.329 308.883,246.797 308.883,248.697 310.285,250.721 311.031,251.779 312.154,252.871 315.612,256.142 319.163,256.142 321.032,256.142 322.247,254.273 322.994,253.245 324.303,251.002" test="Avatar Man"/>
      <path id="Layer4_0_3_STROKES" stroke="#FFF" stroke-width="1.869" stroke-linejoin="round" stroke-linecap="round" fill="none" d="M400.932,286.513 Q407.193,289.036 407.473,293.241 407.492,293.507 407.52,293.802 407.514,293.873 407.52,293.942 L407.52,294.082 Q407.555,296.514 407.006,300.998 M392.521,303.334 Q398.679,301.865 402.427,297.353 403.683,295.843 404.67,293.989" test="Avatar Man"/>
      <path id="Layer4_0_4_STROKES" stroke="#F90" stroke-width="1.869" stroke-linejoin="round" stroke-linecap="round" fill="none" d="M329.069,559.948 Q331.031,559.761 348.132,566.769 369.439,573.685 391.68,573.498 413.08,573.311 431.957,567.891 447.843,563.312 449.152,563.686 454.946,565.181 459.525,575.46 465.319,588.263 462.235,604.804 458.403,625.643 448.591,640.969 437.097,658.818 420.182,664.144 L406.912,668.256 Q406.725,668.256 408.034,666.854 409.716,664.985 408.034,663.677 399.997,653.304 392.895,644.426 378.971,626.951 369.719,623.026 355.608,617.045 341.778,610.037 325.05,601.346 321.593,597.328 318.415,593.59 317.761,582.656 317.574,571.348 317.387,569.293 317.107,566.489 320.471,564.246 322.34,562.938 329.069,559.948Z" test="Avatar Man"/>
    </g>
    <g id="Avatar-Lady">
      <path fill="#000" stroke="none" d="M190.407,599.809 Q186.424,598.556 182.957,598.177 173.802,597.737 169.942,597.432 163.634,596.933 157.252,593.775 153.394,592.238 148.1,588.503 137.606,581.041 128.874,569.266 120.252,557.639 114.825,544.469 L112.759,545.442 Q111.729,552.466 106.291,568.521 102.211,580.734 100.984,590.08 100.752,591.82 100.622,593.462 100.354,596.852 99.811,613.293 97.948,636.831 94.446,645.175 92.108,650.769 88.966,656.963 86.985,661.638 86.449,668.417 86.15,672.192 86.626,676.957 L86.618,677.051 Q87.054,681.459 88.125,686.739 90.289,697.711 89.864,703.077 89.641,705.902 88.389,708.55 87.709,709.965 86.994,710.619 L88.475,712.252 Q88.347,714.402 87.693,718.538 87.666,718.746 87.664,718.914 86.766,724.628 84.958,733.953 L84.95,734.047 Q84.234,737.778 83.368,742.07 L87.02,745.011 Q90.267,741.236 98.236,733.772 109.384,723.38 112.247,719.533 L112.792,718.629 Q117.168,714.807 121.541,706.247 126.795,694.915 130.389,687.81 131.177,686.229 131.866,684.706 132.191,684.176 132.426,683.613 132.537,683.504 132.543,683.338 132.635,683.281 132.652,683.157 L132.652,683.157 Q139.783,668.993 144.329,660.112 153.757,641.531 158.867,633.22 161.226,629.34 164.317,625.408 165.552,623.816 166.845,622.198 L167.157,621.844 167.259,621.757 Q170.532,618.039 174.388,614.268 183.324,605.501 189.757,602.031 L190.407,599.809 M181.03,429.767 L181.458,415.969 180.988,415.932 Q170.443,415.098 164.177,415.265 151.543,415.687 141.228,419.134 131.289,422.61 121.794,428.87 118.202,431.206 114.677,433.802 114.672,433.847 114.575,433.888 114.323,434.107 113.973,434.314 108.724,438.424 103.704,443.165 95.11,451.201 90.976,460.348 86.849,469.401 84.979,479.863 L84.232,483.31 Q87.178,483.946 90.748,484.773 96.605,486.184 104.402,491.822 104.801,492.136 109.919,496.332 109.97,496.355 110.013,496.339 111.739,497.823 114.011,499.688 111.739,497.823 110.013,496.339 109.97,496.355 109.919,496.332 104.801,492.136 104.402,491.822 96.605,486.184 90.748,484.773 87.178,483.946 84.232,483.31 L80.229,495.593 Q82.112,496.172 84.109,496.848 99.251,501.835 105.299,502.03 99.251,501.835 84.109,496.848 82.112,496.172 80.229,495.593 80.044,495.528 79.86,495.469 67.275,491.482 60.21,491.167 L54.738,495.661 Q56.894,498.306 61.769,503.796 68.262,511.055 72.488,514.402 73.316,514.996 74.014,515.47 79.944,519.54 87.296,520.027 92.67,520.357 100.177,522.467 106.113,524.074 108.048,523.564 L113.853,525.634 111.069,533.277 114.754,544.179 Q114.822,544.347 114.825,544.469 120.252,557.639 128.874,569.266 137.606,581.041 148.1,588.503 153.394,592.238 157.252,593.775 163.634,596.933 169.942,597.432 173.802,597.737 182.957,598.177 186.424,598.556 190.407,599.809 L190.501,599.816 Q193.603,600.869 197.022,602.417 207.457,607.032 210.606,607.944 217.359,609.995 221.505,609.091 223.44,608.581 228.792,605.594 232.063,603.768 235.08,595.575 238.558,585.145 240.801,579.543 243.263,573.58 251.661,562.023 252.77,560.493 253.79,559.065 260.715,549.357 263.471,544.483 263.772,543.958 264.023,543.485 268.373,535.208 266.688,524.18 265.374,515.644 261.49,509.652 L256.014,499.84 Q255.374,500.183 254.549,500.387 248.382,501.699 249.164,495.413 L244.273,492.563 226.493,494.567 Q226.542,495.052 226.607,495.523 226.385,495.212 226.087,494.913 223.59,491.502 219.517,488.141 210.522,480.892 201.647,481.706 193.054,482.541 177.885,489.868 163.271,497.499 155.992,500.736 155.004,501.251 154.122,501.63 149.213,503.799 131.712,510.657 129.954,511.351 128.392,511.91 123.82,513.814 120.946,515.016 117.886,516.469 116.892,517.158 117.886,516.469 120.946,515.016 123.82,513.814 128.392,511.91 129.954,511.351 131.712,510.657 149.213,503.799 154.122,501.63 155.004,501.251 155.992,500.736 163.271,497.499 177.885,489.868 193.054,482.541 201.647,481.706 210.522,480.892 219.517,488.141 223.59,491.502 226.087,494.913 L226.493,494.567 Q226.463,494.329 226.436,494.088 225.966,490.281 225.759,485.887 225.332,475.716 227.057,471.874 228.44,468.762 236.61,466.093 243.917,463.544 243.61,461.436 242.731,455.777 235.241,446.279 L227.943,437.932 Q212.524,446.393 198.411,454.354 183.628,462.802 170.306,470.699 147.807,484.456 139.677,489.023 130.148,494.388 122.644,497.149 120.144,498.117 117.874,498.762 120.144,498.117 122.644,497.149 130.148,494.388 139.677,489.023 147.807,484.456 170.306,470.699 183.628,462.802 198.411,454.354 L193.093,444.933 Q192.335,443.736 187.604,437.677 182.439,431.111 181.03,429.767 M209.339,501.831 Q208.133,500.314 203.76,499.305 200.445,498.54 189.822,503.034 186.408,504.518 182.252,506.508 165.118,514.721 162.481,514.513 165.118,514.721 182.252,506.508 186.408,504.518 189.822,503.034 200.445,498.54 203.76,499.305 208.133,500.314 209.339,501.831 210.545,503.347 214.762,506.333 210.545,503.347 209.339,501.831 M202.099,516.7 Q204.654,514.344 204.788,512.65 204.825,512.179 202.658,509.639 204.825,512.179 204.788,512.65 204.654,514.344 202.099,516.7 199.333,519.324 196.98,519.137 190.107,518.593 190.494,513.698 190.554,512.944 190.67,512.669 190.997,512.127 192.697,509.798 190.997,512.127 190.67,512.669 190.554,512.944 190.494,513.698 190.107,518.593 196.98,519.137 199.333,519.324 202.099,516.7 M176.658,573.615 Q176.146,574.484 175.386,575.315 173.302,577.708 172.113,578.371 173.302,577.708 175.386,575.315 176.146,574.484 176.658,573.615 178.347,571.42 178.507,569.403 L178.309,567.114 178.507,569.403 Q178.347,571.42 176.658,573.615 M225.708,545.19 Q228.092,545.379 231.36,544.406 234.879,543.47 239.378,541.251 245.813,537.997 247.496,535.64 248.126,534.864 248.18,534.179 248.24,533.425 246.558,530.734 244.97,528.051 244.24,527.709 244.97,528.051 246.558,530.734 248.24,533.425 248.18,534.179 248.126,534.864 247.496,535.64 245.813,537.997 239.378,541.251 234.879,543.47 231.36,544.406 228.092,545.379 225.708,545.19 222.037,544.9 219.797,542.07 216.272,537.528 216.005,537.317 216.272,537.528 219.797,542.07 222.037,544.9 225.708,545.19 M246.817,551.408 Q246.877,550.655 245.844,549.341 246.877,550.655 246.817,551.408 246.72,552.632 246.167,553.63 245.615,554.629 244.606,555.402 242.495,556.94 239.765,556.724 238.729,556.642 236.631,555.623 234.626,554.612 233.383,553.566 234.626,554.612 236.631,555.623 238.729,556.642 239.765,556.724 242.495,556.94 244.606,555.402 245.615,554.629 246.167,553.63 246.72,552.632 246.817,551.408 M199.104,580.886 Q203.269,580.931 207.528,580.984 203.269,580.931 199.104,580.886 187.578,581.679 178.437,575.082 187.578,581.679 199.104,580.886 M147.502,458.378 Q143.566,453.046 136.901,449.866 130.331,446.693 124.238,447.064 130.331,446.693 136.901,449.866 143.566,453.046 147.502,458.378Z" test="Avatar Lady" stroke-width="1.889"/>
      <path id="Layer3_0_1_STROKES" stroke="#009EFF" stroke-width="1.889" stroke-linejoin="round" stroke-linecap="round" fill="none" d="M244.273,492.563 Q243.493,488.049 247.111,486.629 250.642,485.109 253.925,484.326 M226.534,432.989 Q226.883,432.164 226.921,431.693 226.995,430.752 224.365,424.481 221.252,417.129 220.791,415.766 219.107,410.706 214.214,409.087 209.073,408.207 207.352,407.218 207.616,408.66 207.251,413.273 L206.527,420.037 Q206.237,420.109 204.225,419.192 202.025,418.26 200.989,418.178 197.318,417.888 195.355,417.543 190.692,416.605 185.42,416.188 L181.458,415.969 M181.03,429.767 Q182.439,431.111 187.604,437.677 192.335,443.736 193.093,444.933 M207.352,407.218 Q207.355,407.124 207.265,407.116 L207.287,406.834 Q207.365,407.028 207.352,407.218Z M180.988,415.932 Q181.002,415.744 181.097,415.751 181.263,415.948 181.458,415.969 L180.988,415.932 Q170.443,415.098 164.177,415.265 151.543,415.687 141.228,419.134 131.289,422.61 121.794,428.87 118.202,431.206 114.724,433.805 114.672,433.847 114.622,433.892 114.323,434.107 114.02,434.318 108.724,438.424 103.704,443.165 95.11,451.201 90.976,460.348 86.849,469.401 84.979,479.863 M84.229,483.357 Q87.178,483.946 90.748,484.773 96.605,486.184 104.402,491.822 104.801,492.136 109.919,496.332 109.97,496.355 110.009,496.387 111.739,497.823 114.011,499.688 M214.762,506.333 Q210.545,503.347 209.339,501.831 208.133,500.314 203.76,499.305 200.445,498.54 189.818,503.081 186.408,504.518 182.252,506.508 165.118,514.721 162.481,514.513 M216.005,537.317 Q216.272,537.528 219.797,542.07 222.037,544.9 225.708,545.19 228.092,545.379 231.403,544.457 234.879,543.47 239.378,541.251 245.813,537.997 247.543,535.644 248.126,534.864 248.18,534.179 248.24,533.425 246.558,530.734 244.97,528.051 244.24,527.709 M261.49,509.652 Q265.374,515.644 266.688,524.18 268.373,535.208 264.023,543.485 263.772,543.958 263.471,544.483 260.715,549.357 253.79,559.065 252.77,560.493 251.661,562.023 243.263,573.58 240.801,579.543 238.558,585.145 235.08,595.575 232.063,603.768 228.792,605.594 223.44,608.581 221.505,609.091 217.359,609.995 210.606,607.944 207.457,607.032 197.022,602.417 193.603,600.869 190.497,599.863 L190.403,599.856 M189.757,602.031 Q183.324,605.501 174.388,614.268 170.532,618.039 167.306,621.761 L167.204,621.847 166.892,622.202 Q165.552,623.816 164.317,625.408 161.226,629.34 158.867,633.22 153.757,641.531 144.329,660.112 139.783,668.993 132.699,683.161 L132.648,683.204 Q132.635,683.281 132.59,683.342 132.537,683.504 132.47,683.664 132.191,684.176 131.913,684.709 131.177,686.229 130.389,687.81 126.795,694.915 121.541,706.247 117.168,714.807 112.792,718.629 M112.247,719.533 Q109.384,723.38 98.236,733.772 90.267,741.236 87.016,745.058 85.983,746.301 85.429,747.159 M233.383,553.566 Q234.626,554.612 236.631,555.623 238.729,556.642 239.765,556.724 242.495,556.94 244.606,555.402 245.615,554.629 246.167,553.63 246.72,552.632 246.817,551.408 246.877,550.655 245.844,549.341 M190.403,599.856 Q186.424,598.556 182.957,598.177 173.802,597.737 169.942,597.432 163.634,596.933 157.252,593.775 153.394,592.238 148.1,588.503 137.606,581.041 128.874,569.266 120.252,557.639 114.869,544.52 M112.759,545.442 Q111.729,552.466 106.291,568.521 102.211,580.734 100.984,590.08 100.752,591.82 100.622,593.462 100.354,596.852 99.811,613.293 97.948,636.831 94.446,645.175 92.108,650.769 88.966,656.963 86.985,661.638 86.449,668.417 86.15,672.192 86.622,677.004 L86.618,677.051 Q87.054,681.459 88.125,686.739 90.289,697.711 89.864,703.077 89.641,705.902 88.389,708.55 87.709,709.965 86.99,710.666 M88.475,712.252 Q88.347,714.402 87.69,718.585 87.666,718.746 87.664,718.914 86.766,724.628 84.954,734 L84.95,734.047 Q84.234,737.778 83.368,742.07 M159.528,635.64 L158.539,640.962 Q158.464,641.904 158.825,645.722 159.187,649.54 159.112,650.482 159.038,651.423 159.408,657.516 159.684,663.601 159.61,664.542 158.984,672.451 144.875,704.683 130.673,736.907 130.114,743.969 129.57,750.842 138.638,767.949 145.729,781.3 155.008,794.54 161.738,804.073 175.704,846.674 175.607,847.898 176.338,848.24 176.982,848.48 177.129,847.828 M92.449,782.958 Q94.698,784.462 105.992,797.388 118.05,811.416 117.834,814.146 117.566,817.536 139.371,836.504 161.176,855.472 160.878,859.238 160.789,860.367 161.173,860.303 161.557,860.239 161.542,860.427 L162.347,859.828 M147.502,458.378 Q143.566,453.046 136.901,449.866 130.331,446.693 124.238,447.064 M84.229,483.357 Q84.134,483.361 84.04,483.342 83.945,483.323 83.852,483.327 79.373,482.414 76.369,482.119 68.286,481.29 62.278,482.994 54.812,485.15 53.92,485.648 52.433,486.478 52.319,489.121 52.284,491.961 53.54,494.05 53.895,494.567 54.569,495.41 54.656,495.508 54.742,495.613 L54.786,495.664 M60.21,491.167 Q67.275,491.482 79.86,495.469 80.044,495.528 80.229,495.593 M54.786,495.664 Q56.894,498.306 61.769,503.796 68.262,511.055 72.535,514.406 73.316,514.996 74.014,515.47 79.944,519.54 87.296,520.027 92.67,520.357 100.177,522.467 106.113,524.074 108.048,523.564 M111.069,533.277 L114.754,544.179 Q114.822,544.347 114.869,544.52 M67.846,520.383 Q64.463,523.62 60.161,543.27 58.222,552.211 57.768,554.355 57.086,558.185 56.743,562.516 56.326,567.788 57.56,579.728 58.7,591.661 58.179,598.251 58.125,598.937 58.067,599.664 57.744,602.791 57.045,606.594 55.913,612.829 53.783,620.878 52.291,626.522 50.308,633.061 43.384,655.914 41.864,675.121 41.619,678.228 42.234,688.413 42.893,698.034 42.564,699.808 M80.229,495.593 Q82.112,496.172 84.109,496.848 99.251,501.835 105.299,502.03 M88.803,542.884 L88.805,545.252 Q88.634,547.418 86.759,553.143 84.878,558.963 84.302,563.844 83.588,569.282 82.857,578.509 82.775,579.545 82.891,582.87 83,586.289 82.903,587.513 82.898,587.58 82.892,587.654 82.675,590.183 81.663,594.804 80.564,600.307 79.605,601.652 78.676,602.621 76.859,605.224 75.584,606.971 74.922,608.15 74.261,609.329 74.212,609.941 M73.923,649.52 Q73.863,650.273 72.122,657.904 70.287,665.527 70.198,666.657 70.034,668.728 71.274,674.606 71.853,677.564 72.137,679.269 72.383,680.95 72.346,681.417 72.093,684.618 68.893,690.333 66.028,695.412 63.988,697.24 M58.067,599.664 Q52.648,599.898 45.95,605.526 39.748,610.682 37.66,616.902 37.056,618.717 36.797,620.623 35.944,626.619 26.354,689.146 17.158,750.284 16.543,756.867 16.193,761.292 14.93,768.866 14.755,769.979 14.621,770.973 L14.614,771.067 Q14.264,774.27 14.537,776.224 14.78,777.949 49.119,838.457 83.221,898.378 83.017,902.152 M35.431,616.347 Q26.027,620.245 16.683,623.39 3.353,627.83 -3.84,627.734 -18.738,626.84 -36.032,625.092 -70.518,621.511 -82.402,617.255 M86.99,710.666 Q86.322,711.324 85.616,711.268 M83.368,742.07 L83.364,742.117 Q82.958,744.254 82.493,746.548 80.004,758.8 76.487,775.158 75.71,778.981 84.317,798.325 94.949,821 97.041,829.08 111.299,877.578 110.108,898.611 M-86.1,731.028 Q-78.853,732.833 -61.204,740.862 -42.006,749.676 -31.757,756.645 -17.819,766.085 -14.071,767.802 -6.307,771.449 4.234,771.146 8.508,771.01 12.137,770.634" test="Avatar Lady"/>
      <path id="Layer3_0_2_STROKES" stroke="#FFBC00" stroke-width="1.889" stroke-linejoin="round" stroke-linecap="round" fill="none" d="M198.458,454.358 Q212.524,446.393 227.943,437.932 L235.241,446.279 Q242.731,455.777 243.61,461.436 243.917,463.544 236.61,466.093 228.44,468.762 227.057,471.874 225.332,475.716 225.759,485.887 225.966,490.281 226.436,494.088 226.463,494.329 226.493,494.567 M117.874,498.762 Q120.144,498.117 122.64,497.197 130.148,494.388 139.677,489.023 147.807,484.456 170.306,470.699 183.628,462.802 198.458,454.358 M226.134,494.917 Q226.385,495.212 226.607,495.523 226.542,495.052 226.493,494.567 M226.134,494.917 Q223.59,491.502 219.517,488.141 210.522,480.892 201.647,481.706 193.054,482.541 177.885,489.868 163.271,497.499 156.036,500.787 155.004,501.251 154.122,501.63 149.213,503.799 131.712,510.657 129.954,511.351 128.388,511.957 123.82,513.814 120.989,515.066 117.886,516.469 116.892,517.158" test="Avatar Lady"/>
      <path id="Layer3_0_3_STROKES" stroke="#FF0" stroke-width="1.889" stroke-linejoin="round" stroke-linecap="round" fill="none" d="M249.164,495.413 Q248.382,501.699 254.549,500.387 255.374,500.183 256.061,499.843 258.467,498.594 259.007,495.529 259.543,492.35 256.503,491.257 M192.697,509.798 Q190.997,512.127 190.67,512.669 190.554,512.944 190.494,513.698 190.107,518.593 196.98,519.137 199.333,519.324 202.099,516.7 204.654,514.344 204.788,512.65 204.825,512.179 202.658,509.639" test="Avatar Lady"/>
      <path id="Layer3_0_4_STROKES" stroke="#FFF" stroke-width="1.889" stroke-linejoin="round" stroke-linecap="round" fill="none" d="M178.309,567.114 L178.507,569.403 Q178.347,571.42 176.701,573.666 176.146,574.484 175.386,575.315 173.302,577.708 172.113,578.371 M178.437,575.082 Q187.578,581.679 199.104,580.886 203.269,580.931 207.528,580.984" test="Avatar Lady"/>
    </g>
    <g id="Censoredf12r1">
      <path fill="#000" stroke="none" d="M-18.85,403.35 L-18.85,629.9 829.1,629.9 829.1,403.35 -18.85,403.35Z" test="Censored"/>
      <path id="Layer1_0_1_STROKES" stroke="#F00" stroke-width="1" stroke-linejoin="round" stroke-linecap="round" fill="none" d="M65.35,401.7 L732,401.7 732,561.5 65.35,561.5 65.35,401.7Z" test="Censored"/>
    </g>
  </g>
</svg>