<?xml version="1.0" encoding="utf-8"?>
<svg id="EdithAnim13" image-rendering="inherit" baseProfile="basic" version="1.1" x="0px" y="0px" width="800" height="600" xmlns="http://www.w3.org/2000/svg" xmlns:xlink="http://www.w3.org/1999/xlink">
  <g id="22_Avatarf173r1" overflow="visible">
    <g id="Avatar-Manf0r1">
      <g id="Tailf0r1">
        <path id="Layer5_0_1_STROKES" stroke="#009EFF" stroke-width="2.573" stroke-linejoin="round" stroke-linecap="round" fill="none" d="M500.71,672.278 Q499.418,653.371 498.709,634.454 498.074,616.11 492.122,598.783 485.579,579.911 467.333,571.32 445.16,560.969 441.941,584.096 441.471,587.466 443.672,590.424 448.879,597.532 456.283,602.083 464.026,599.259 469.846,604.601 476.854,611.086 479.935,620.806 487.136,643.745 492.87,666.875 494.491,673.346 493.398,679.912" test="Tail_2.3242325232423263e+312.3242325232423263e+31_2.3242325232423263e+312.3242325232423263e+31_2.3242325232423263e+312.3242325232423263e+31_2.3242325232423263e+312.3242325232423263e+31_2.3242325232423263e+312.3242325232423263e+31_2.3242325232423263e+312.3242325232423263e+31_2.3242325232423263e+312.3242325232423263e+31_2.3242325232423263e+312.3242325232423263e+31_2.3242325232423263e+312.3242325232423263e+31_2.3242325232423263e+312.3242325232423263e+31_2.3242325232423263e+312.3242325232423263e+31_2.3242325232423263e+312.3242325232423263e+31_2.3242325232423263e+312.3242325232423263e+31_2.3242325232423263e+312.3242325232423263e+31_2.3242325232423263e+312.3242325232423263e+31_2.3242325232423263e+312.3242325232423263e+31_2.3242325232423263e+312.3242325232423263e+31_2.3242325232423263e+312.3242325232423263e+31_2.3242325232423263e+312.3242325232423263e+31_2.3242325232423263e+312.3242325232423263e+31_2.3242325232423263e+312.3242325232423263e+31_2.3242325232423263e+312.3242325232423263e+31_2.3242325232423263e+312.3242325232423263e+31_2.3242325232423263e+312.3242325232423263e+31_2324232523242325"/>
      </g>
      <path fill="#000" stroke="none" d="M457.887,576.082 Q453.303,565.791 447.503,564.295 446.194,563.92 430.29,568.504 411.393,573.93 389.97,574.117 367.705,574.304 346.376,567.382 329.256,560.365 327.292,560.553 320.556,563.546 318.685,564.856 315.317,567.101 315.598,569.908 315.785,571.966 315.972,583.285 316.627,594.231 319.808,597.973 323.269,601.995 340.014,610.695 353.86,617.712 367.986,623.699 377.247,627.628 391.186,645.122 398.296,654.009 406.341,664.393 408.025,665.703 406.341,667.574 405.032,668.977 405.219,668.977 L418.503,664.861 Q435.435,659.528 446.942,641.66 456.765,626.318 460.6,605.457 463.687,588.898 457.887,576.082 M463.875,186.82 L460.507,185.417 Q460.458,185.535 460.413,185.604 459.399,188.194 458.729,190.562 456.952,196.924 454.145,206.653 454.082,206.823 453.958,206.934 451.395,213.744 446.1,216.756 434.968,223.118 428.793,226.111 L433.003,235.466 Q432.535,242.295 434.687,288.041 434.765,289.729 434.78,291.316 436.526,327.061 436.745,337.904 436.743,337.975 436.745,337.997 436.777,340.504 436.745,341.646 436.371,356.333 439.084,379.533 439.458,382.808 444.603,380.095 449.748,377.288 449.374,375.324 449.187,373.92 451.339,374.669 453.116,375.324 453.584,375.791 453.678,375.885 460.6,351.936 L466.213,361.291 Q466.307,361.385 469.488,340.71 L475.101,343.049 Q475.209,343.159 474.446,333.226 474.487,333.204 474.446,333.132 473.379,317.861 470.329,279.061 468.479,255.351 467.055,239.77 465.293,218.942 464.342,212.64 464.077,210.803 463.875,210.208 464.077,210.803 464.342,212.64 465.293,218.942 467.055,239.77 L468.552,239.676 Q470.423,239.489 475.942,233.969 480.807,229.292 484.456,230.789 487.73,232.192 507.375,260.631 530.014,289.445 548.537,293.935 531.885,294.496 507.188,313.487 499.517,319.381 491.94,326.49 L490.817,327.519 Q492.149,341.739 496.523,390.385 L497.553,390.292 Q502.417,387.579 536.469,360.823 569.305,334.91 579.877,325.742 587.735,318.913 594.19,308.155 597.464,302.635 601.393,295.806 603.264,293.654 607.287,290.661 610.561,287.667 610.748,282.709 610.935,277.844 575.386,254.925 536.002,230.415 528.424,224.708 506.159,207.963 495.775,201.227 483.404,193.116 475.007,189.533 468.03,186.564 463.875,186.82 M397.36,181.114 Q400.167,180.646 402.786,180.178 406.996,180.178 406.715,185.323 414.761,184.388 417.941,185.323 421.309,186.353 421.216,190.001 L426.455,192.433 Q430.133,185.282 439.084,179.336 444.229,175.875 448.626,174.752 448.695,174.737 448.719,174.659 L447.503,167.175 Q448.907,167.081 446.194,163.807 441.235,158.1 437.213,153.142 431.787,146.407 412.89,140.326 396.331,134.994 387.164,134.9 357.789,134.619 337.582,142.852 325.046,147.997 313.82,163.526 311.669,166.469 309.891,169.139 304.875,177.091 303.343,183.078 L303.343,185.323 Q303.53,185.323 304.372,185.604 305.307,185.791 305.962,185.791 309.33,185.791 312.698,183.078 316.533,179.898 320.182,179.243 L320.182,181.581 324.391,181.581 Q327.198,181.02 332.53,179.43 336.647,178.12 337.488,178.307 L337.488,180.646 Q338.424,180.646 342.166,181.114 348.34,181.114 354.327,177.839 L359.005,177.839 359.005,179.71 366.489,179.71 Q378.838,175.968 379.586,175.968 380.802,175.968 381.925,176.81 383.234,177.746 385.667,177.839 385.667,180.178 385.199,181.114 L397.36,181.114Z" test="Avatar Man" stroke-width="1.871"/>
      <path id="Layer4_0_1_STROKES" stroke="#009EFF" stroke-width="1.871" stroke-linejoin="round" stroke-linecap="round" fill="none" d="M421.216,190.001 Q421.309,186.353 417.941,185.323 414.761,184.388 406.715,185.323 406.996,180.178 402.786,180.178 400.167,180.646 397.36,181.114 L385.199,181.114 Q385.667,180.178 385.667,177.839 383.234,177.746 381.925,176.81 380.802,175.968 379.586,175.968 378.838,175.968 366.489,179.71 L359.005,179.71 359.005,177.839 354.327,177.839 Q348.34,181.114 342.166,181.114 338.424,180.646 337.488,180.646 L337.488,178.307 Q336.647,178.12 332.53,179.43 327.198,181.02 324.391,181.581 L320.182,181.581 320.182,179.243 Q316.533,179.898 312.698,183.078 309.33,185.791 305.962,185.791 305.307,185.791 304.372,185.604 303.53,185.323 303.343,185.323 L303.343,183.078 Q304.875,177.091 309.938,169.186 311.669,166.469 313.82,163.526 325.046,147.997 337.582,142.852 357.789,134.619 387.164,134.9 396.331,134.994 412.89,140.326 431.787,146.407 437.213,153.142 441.235,158.1 446.194,163.807 448.907,167.081 447.503,167.175 M448.766,174.706 Q448.835,174.713 448.907,174.706 451.735,174.081 457.794,173.723 462.191,173.536 464.904,171.759 466.4,170.823 468.552,169.046 469.394,168.578 465.933,174.565 464.342,177.278 463.033,179.898 462.232,181.471 461.583,182.985 461.427,183.297 461.302,183.593 461.029,184.177 460.787,184.762 460.641,185.091 460.507,185.417 M463.875,186.82 Q468.03,186.564 475.054,189.58 483.404,193.116 495.775,201.227 506.159,207.963 528.424,224.708 536.002,230.415 575.386,254.925 610.935,277.844 610.748,282.709 610.561,287.667 607.287,290.661 603.264,293.654 601.393,295.806 597.464,302.635 594.19,308.155 587.735,318.913 579.877,325.742 569.305,334.91 536.469,360.823 502.417,387.579 497.553,390.292 497.068,390.608 496.617,390.9 491.172,394.432 488.759,395.811 484.456,398.337 480.714,397.776 M463.033,179.898 Q461.575,181.495 460.366,182.423 459.145,183.314 458.168,183.546 454.613,183.827 450.31,184.482 444.79,185.323 441.797,187.382 437.774,190.843 433.939,193.837 429.167,197.579 426.174,199.356 L424.116,200.385 Q424.567,196.258 426.501,192.48 M420.28,190.001 L421.216,190.001 M426.501,192.48 Q430.133,185.282 439.084,179.336 444.229,175.875 448.626,174.752 448.695,174.737 448.766,174.706 M460.507,185.417 Q460.458,185.535 460.413,185.651 459.399,188.194 458.729,190.562 456.952,196.924 454.145,206.653 454.082,206.823 454.005,206.98 451.395,213.744 446.1,216.756 434.968,223.118 428.793,226.111 M433.003,235.466 Q432.535,242.295 434.687,288.041 434.765,289.729 434.827,291.362 436.526,327.061 436.745,337.904 436.743,337.975 436.745,338.044 436.777,340.504 436.745,341.646 436.371,356.333 439.084,379.533 439.458,382.808 444.603,380.095 449.748,377.288 449.374,375.324 449.187,373.92 451.339,374.669 453.116,375.324 453.584,375.791 453.678,375.885 460.6,351.936 L466.213,361.291 Q466.307,361.385 469.488,340.71 L475.101,343.049 Q475.209,343.159 474.492,333.273 474.487,333.204 474.492,333.132 473.379,317.861 470.329,279.061 468.479,255.351 467.102,239.77 465.293,218.942 464.342,212.64 464.077,210.803 463.875,210.208 M490.817,327.566 L491.94,326.49 Q499.517,319.381 507.188,313.487 531.885,294.496 548.537,293.935 530.014,289.445 507.375,260.631 487.73,232.192 484.456,230.789 480.807,229.292 475.942,233.969 470.423,239.489 468.552,239.676 M363.308,232.192 Q364.399,232.368 366.676,232.473 369.273,232.566 373.412,232.566 380.709,232.473 383.889,232.192 389.783,231.631 390.531,231.444 394.273,230.415 394.648,227.515 M418.035,307.032 Q418.971,313.113 421.122,321.906 423.742,332.478 425.987,337.904 M313.727,304.226 Q313.727,304.319 314.101,313.861 314.382,320.69 317.001,325.274 317.843,326.745 319.106,328.174 322.938,332.453 330.659,336.313 341.324,341.739 351.615,342.113 L355.403,342.394 355.544,342.394 Q365.46,342.768 368.454,342.581 373.599,342.207 379.68,340.242 384.17,338.839 396.238,327.987 404.815,320.196 413.919,310.68 414.037,310.566 414.153,310.447 414.224,310.379 414.293,310.306 414.388,310.216 414.48,310.119 415.917,308.594 417.38,307.032 417.476,306.931 417.567,306.845 417.605,306.791 417.661,306.751 417.676,306.697 417.708,306.658 428.722,294.914 430.197,291.596 M355.357,343.049 Q354.515,347.071 352.924,356.239 351.334,364.191 348.808,368.307 M485.859,332.291 L490.817,327.566 M475.568,406.663 Q475.475,406.85 466.026,431.454 459.291,448.947 456.858,459.051 453.865,471.306 451.245,507.79 448.626,543.339 449.842,551.198 M395.957,454.747 Q396.519,456.806 398.39,457.367 398.951,457.554 400.448,457.554 402.88,457.554 403.815,456.431 404.19,456.057 405.686,452.596 M358.537,441.183 Q358.35,458.209 359.566,460.828 361.531,465.506 372.57,465.506 377.902,465.506 378.37,465.412 378.931,465.319 380.989,464.102 M359.94,498.716 Q359.005,501.522 359.005,504.61 359.005,509.755 363.121,510.036 365.834,510.129 374.441,509.942 M356.666,537.539 Q361.437,540.813 364.524,541.562 366.77,542.03 370.699,541.281 M404.47,669.538 Q397.454,672.813 378.65,676.367 359.66,679.922 339.453,681.7 321.959,683.29 280.797,682.448 249.739,681.887 231.871,680.764 218.119,679.922 190.241,677.022 183.318,676.274 178.173,677.396 174.524,678.238 173.402,677.49 M308.114,168.11 Q304.559,165.959 300.349,163.713 291.93,159.317 289.404,159.691 286.691,160.065 288.936,173.443 290.807,184.856 292.678,189.627 M297.356,202.256 Q298.104,205.343 300.068,211.517 301.191,216.476 298.291,218.627 294.719,221.29 291.322,223.773 L291.275,223.819 Q240.232,261.72 233.742,263 228.035,265.683 226.632,266.151 224.667,266.899 224.387,268.677 223.919,272.325 223.732,284.861 223.451,299.267 224.387,302.355 227.567,315.077 252.077,351.281 276.12,386.737 290.339,400.582 M299.227,234.531 Q302.127,236.028 307.927,236.776 308.162,236.811 308.394,236.823 313.869,237.607 319.34,237.337 322.801,237.15 330.846,235.84 337.395,234.718 339.453,234 M298.759,258.854 Q297.636,260.725 285.568,272.793 274.623,283.738 271.629,286.451 M321.585,280.744 Q325.795,280.744 330.472,279.809 L348.714,279.809 Q343.101,285.796 339.921,288.977 334.027,294.777 332.624,294.777 330.098,294.777 326.356,289.538 322.52,283.551 321.117,282.148 M261.339,281.306 Q262.944,285.184 266.39,290.099 266.428,290.154 266.484,290.193 275.061,302.493 295.017,321.252 304.288,329.957 311.107,336.594 326.889,351.902 329.63,356.146 M298.291,426.776 Q297.636,441.65 300.63,448.76 302.501,453.064 308.207,457.928 314.101,462.699 319.34,464.196 M314.195,472.616 Q314.288,475.516 313.82,487.49 313.633,498.716 315.13,501.616 316.907,505.077 321.304,507.977 325.608,510.784 328.227,510.503 M320.743,514.245 Q320.837,517.332 320.837,522.103 321.024,525.658 322.614,527.81 322.801,528.091 327.853,531.552 331.221,533.891 331.034,538.101 330.846,541.281 328.882,549.139 327.198,555.688 327.759,557.746 M304.84,571.311 Q282.949,567.288 256.474,563.172 203.618,555.033 181.447,555.033 166.666,555.033 149.827,551.946 136.543,549.514 133.737,550.356 128.872,551.852 124.288,559.523 119.704,567.288 120.078,573.65 120.359,577.953 121.856,589.366 123.072,599.563 121.949,603.586 M304.372,598.44 Q295.765,599.844 256.1,600.685 213.067,601.621 206.144,602.182 198.473,602.837 174.057,606.766 151.885,610.321 142.998,610.602 132.427,610.976 123.072,609.666 118.207,609.011 111.191,607.328 107.543,606.486 103.801,609.011 101.836,610.415 97.159,615.279 91.826,620.799 96.691,632.586 97.626,634.925 96.036,648.302 94.258,661.774 95.288,664.393 L98.562,672.345 Q102.21,682.355 103.707,692.926 M169.66,664.393 Q170.969,668.603 173.402,680.671 176.021,693.581 175.741,696.2" test="Avatar Man"/>
      <path id="Layer4_0_2_STROKES" stroke="#FF0" stroke-width="1.871" stroke-linejoin="round" stroke-linecap="round" fill="none" d="M366.489,235.84 Q365.553,241.079 367.424,244.915 369.389,248.937 373.037,248.937 374.534,248.937 376.592,247.815 378.931,246.505 379.586,244.728 M308.02,240.05 Q307.085,246.599 307.085,247.066 307.085,248.969 308.488,250.996 309.234,252.055 310.359,253.147 313.82,256.421 317.375,256.421 319.246,256.421 320.462,254.55 321.211,253.521 322.52,251.276" test="Avatar Man"/>
      <path id="Layer4_0_3_STROKES" stroke="#FFF" stroke-width="1.871" stroke-linejoin="round" stroke-linecap="round" fill="none" d="M399.231,286.825 Q405.499,289.351 405.78,293.561 405.799,293.826 405.827,294.122 405.821,294.193 405.827,294.262 L405.827,294.403 Q405.862,296.837 405.312,301.325 M390.812,303.664 Q396.977,302.194 400.728,297.677 401.986,296.165 402.973,294.309" test="Avatar Man"/>
      <path id="Layer4_0_4_STROKES" stroke="#F90" stroke-width="1.871" stroke-linejoin="round" stroke-linecap="round" fill="none" d="M327.292,560.553 Q329.256,560.365 346.376,567.382 367.705,574.304 389.97,574.117 411.393,573.93 430.29,568.504 446.194,563.92 447.503,564.295 453.303,565.791 457.887,576.082 463.687,588.898 460.6,605.457 456.765,626.318 446.942,641.66 435.435,659.528 418.503,664.861 L405.219,668.977 Q405.032,668.977 406.341,667.574 408.025,665.703 406.341,664.393 398.296,654.009 391.186,645.122 377.247,627.628 367.986,623.699 353.86,617.712 340.014,610.695 323.269,601.995 319.808,597.973 316.627,594.231 315.972,583.285 315.785,571.966 315.598,569.908 315.317,567.101 318.685,564.856 320.556,563.546 327.292,560.553Z" test="Avatar Man"/>
    </g>
    <g id="Avatar-Lady">
      <path fill="#000" stroke="none" d="M189.686,601.851 Q185.7,600.594 182.228,600.214 173.063,599.769 169.199,599.462 162.885,598.959 156.497,595.795 152.636,594.255 147.338,590.514 136.836,583.039 128.099,571.246 119.473,559.603 114.046,546.416 L111.977,547.39 Q110.943,554.421 105.491,570.491 101.402,582.715 100.17,592.072 99.936,593.813 99.806,595.457 99.535,598.85 98.984,615.31 97.109,638.872 93.599,647.224 91.257,652.823 88.108,659.022 86.123,663.701 85.583,670.487 85.283,674.267 85.756,679.037 L85.749,679.132 Q86.183,683.544 87.253,688.831 89.414,699.815 88.987,705.188 88.762,708.015 87.508,710.666 86.826,712.082 86.11,712.736 L87.592,714.372 Q87.463,716.524 86.807,720.664 86.779,720.872 86.777,721.041 85.876,726.76 84.061,736.095 L84.054,736.189 Q83.336,739.924 82.466,744.22 L86.121,747.166 Q89.373,743.388 97.354,735.92 108.52,725.522 111.387,721.671 L111.933,720.766 Q116.316,716.942 120.697,708.375 125.962,697.033 129.563,689.921 130.353,688.339 131.044,686.814 131.368,686.284 131.605,685.721 131.716,685.612 131.722,685.446 131.813,685.388 131.831,685.265 L131.831,685.265 Q138.976,671.088 143.53,662.199 152.977,643.602 158.097,635.284 160.46,631.401 163.556,627.467 164.793,625.873 166.088,624.254 L166.401,623.899 166.503,623.812 Q169.781,620.091 173.644,616.319 182.593,607.546 189.034,604.075 L189.686,601.851 M180.374,431.618 L180.809,417.805 180.338,417.768 Q169.782,416.928 163.509,417.093 150.861,417.509 140.533,420.955 130.582,424.431 121.074,430.693 117.477,433.031 113.947,435.627 113.941,435.672 113.845,435.714 113.592,435.933 113.242,436.14 107.985,440.252 102.958,444.996 94.351,453.037 90.208,462.192 86.072,471.253 84.195,481.727 L83.447,485.176 Q86.395,485.815 89.969,486.644 95.832,488.059 103.634,493.707 104.034,494.021 109.155,498.224 109.207,498.247 109.249,498.232 110.977,499.718 113.251,501.585 110.977,499.718 109.249,498.232 109.207,498.247 109.155,498.224 104.034,494.021 103.634,493.707 95.832,488.059 89.969,486.644 86.395,485.815 83.447,485.176 L79.433,497.472 Q81.318,498.052 83.317,498.729 98.474,503.729 104.528,503.926 98.474,503.729 83.317,498.729 81.318,498.052 79.433,497.472 79.249,497.406 79.064,497.347 66.468,493.35 59.394,493.032 L53.915,497.528 Q56.072,500.177 60.949,505.675 67.446,512.945 71.675,516.298 72.504,516.893 73.202,517.368 79.138,521.444 86.497,521.935 91.877,522.268 99.391,524.384 105.333,525.995 107.271,525.485 L113.081,527.56 110.29,535.21 113.974,546.126 Q114.043,546.295 114.046,546.416 119.473,559.603 128.099,571.246 136.836,583.039 147.338,590.514 152.636,594.255 156.497,595.795 162.885,598.959 169.199,599.462 173.063,599.769 182.228,600.214 185.7,600.594 189.686,601.851 L189.78,601.858 Q192.885,602.913 196.307,604.464 206.751,609.089 209.903,610.004 216.664,612.059 220.814,611.157 222.751,610.647 228.111,607.659 231.386,605.833 234.41,597.632 237.896,587.192 240.145,581.585 242.611,575.616 251.025,564.051 252.135,562.519 253.157,561.09 260.093,551.374 262.855,546.497 263.156,545.971 263.408,545.498 267.767,537.213 266.084,526.172 264.773,517.626 260.887,511.626 L255.409,501.801 Q254.769,502.144 253.943,502.348 247.768,503.659 248.554,497.366 L243.659,494.511 225.859,496.509 Q225.907,496.994 225.972,497.466 225.75,497.155 225.451,496.856 222.954,493.44 218.878,490.073 209.876,482.812 200.991,483.623 192.388,484.456 177.199,491.783 162.565,499.417 155.278,502.653 154.288,503.168 153.404,503.548 148.49,505.717 130.966,512.574 129.206,513.269 127.642,513.828 123.065,515.732 120.186,516.933 117.123,518.387 116.127,519.076 117.123,518.387 120.186,516.933 123.065,515.732 127.642,513.828 129.206,513.269 130.966,512.574 148.49,505.717 153.404,503.548 154.288,503.168 155.278,502.653 162.565,499.417 177.199,491.783 192.388,484.456 200.991,483.623 209.876,482.812 218.878,490.073 222.954,493.44 225.451,496.856 L225.859,496.509 Q225.828,496.271 225.802,496.03 225.333,492.218 225.127,487.82 224.705,477.637 226.433,473.791 227.819,470.677 235,468.008 243.315,465.46 243.009,463.349 242.132,457.684 234.637,448.172 L227.335,439.813 Q211.896,448.276 197.764,456.24 182.961,464.69 169.621,472.59 147.09,486.352 138.949,490.921 129.407,496.287 121.894,499.048 119.391,500.016 117.118,500.66 119.391,500.016 121.894,499.048 129.407,496.287 138.949,490.921 147.09,486.352 169.621,472.59 182.961,464.69 197.764,456.24 L192.444,446.806 Q191.686,445.607 186.952,439.54 181.784,432.963 180.374,431.618 M208.682,503.773 Q207.475,502.254 203.098,501.242 199.781,500.475 189.144,504.969 185.725,506.453 181.564,508.444 164.407,516.658 161.768,516.448 164.407,516.658 181.564,508.444 185.725,506.453 189.144,504.969 199.781,500.475 203.098,501.242 207.475,502.254 208.682,503.773 209.889,505.292 214.109,508.283 209.889,505.292 208.682,503.773 M201.428,518.656 Q203.986,516.299 204.121,514.602 204.159,514.131 201.99,511.587 204.159,514.131 204.121,514.602 203.986,516.299 201.428,518.656 198.658,521.281 196.302,521.093 189.421,520.546 189.812,515.645 189.871,514.891 189.988,514.616 190.316,514.073 192.019,511.742 190.316,514.073 189.988,514.616 189.871,514.891 189.812,515.645 189.421,520.546 196.302,521.093 198.658,521.281 201.428,518.656 M175.933,575.622 Q175.42,576.491 174.66,577.323 172.573,579.717 171.382,580.381 172.573,579.717 174.66,577.323 175.42,576.491 175.933,575.622 177.626,573.425 177.787,571.406 L177.59,569.114 177.787,571.406 Q177.626,573.425 175.933,575.622 M225.051,547.188 Q227.437,547.377 230.709,546.405 234.232,545.469 238.737,543.25 245.18,539.995 246.866,537.637 247.497,536.86 247.552,536.174 247.612,535.42 245.93,532.725 244.341,530.038 243.61,529.695 244.341,530.038 245.93,532.725 247.612,535.42 247.552,536.174 247.497,536.86 246.866,537.637 245.18,539.995 238.737,543.25 234.232,545.469 230.709,546.405 227.437,547.377 225.051,547.188 221.375,546.895 219.134,544.061 215.608,539.512 215.34,539.301 215.608,539.512 219.134,544.061 221.375,546.895 225.051,547.188 M246.18,553.422 Q246.24,552.668 245.206,551.352 246.24,552.668 246.18,553.422 246.082,554.647 245.528,555.646 244.974,556.645 243.965,557.419 241.85,558.958 239.117,558.74 238.08,558.658 235.98,557.637 233.974,556.624 232.73,555.576 233.974,556.624 235.98,557.637 238.08,558.658 239.117,558.74 241.85,558.958 243.965,557.419 244.974,556.645 245.528,555.646 246.082,554.647 246.18,553.422 M198.401,582.911 Q202.571,582.958 206.835,583.013 202.571,582.958 198.401,582.911 186.862,583.7 177.713,577.091 186.862,583.7 198.401,582.911 M146.796,460.246 Q142.859,454.905 136.188,451.719 129.612,448.54 123.513,448.908 129.612,448.54 136.188,451.719 142.859,454.905 146.796,460.246Z" test="Avatar Lady" stroke-width="1.891"/>
      <path id="Layer3_0_1_STROKES" stroke="#009EFF" stroke-width="1.891" stroke-linejoin="round" stroke-linecap="round" fill="none" d="M243.659,494.511 Q242.88,489.991 246.503,488.572 250.038,487.051 253.325,486.27 M225.927,434.864 Q226.277,434.038 226.315,433.567 226.39,432.624 223.759,426.345 220.646,418.984 220.186,417.619 218.502,412.553 213.604,410.93 208.458,410.047 206.735,409.056 206,410.5 206.632,415.118 L205.903,421.889 Q205.613,421.961 203.599,421.042 201.397,420.108 200.361,420.025 196.685,419.733 194.721,419.387 190.053,418.446 184.775,418.026 L180.809,417.805 M180.374,431.618 Q181.784,432.963 186.952,439.54 191.686,445.607 192.444,446.806 M206.735,409.056 Q206.738,408.961 206.648,408.954 L206.671,408.671 Q206.748,408.865 206.735,409.056Z M180.338,417.768 Q180.353,417.579 180.447,417.587 180.614,417.784 180.809,417.805 L180.338,417.768 Q169.782,416.928 163.509,417.093 150.861,417.509 140.533,420.955 130.582,424.431 121.074,430.693 117.477,433.031 113.994,435.631 113.941,435.672 113.892,435.718 113.592,435.933 113.289,436.144 107.985,440.252 102.958,444.996 94.351,453.037 90.208,462.192 86.072,471.253 84.195,481.727 M83.443,485.223 Q86.395,485.815 89.969,486.644 95.832,488.059 103.634,493.707 104.034,494.021 109.155,498.224 109.207,498.247 109.246,498.279 110.977,499.718 113.251,501.585 M214.109,508.283 Q209.889,505.292 208.682,503.773 207.475,502.254 203.098,501.242 199.781,500.475 189.14,505.016 185.725,506.453 181.564,508.444 164.407,516.658 161.768,516.448 M215.34,539.301 Q215.608,539.512 219.134,544.061 221.375,546.895 225.051,547.188 227.437,547.377 230.752,546.456 234.232,545.469 238.737,543.25 245.18,539.995 246.914,537.641 247.497,536.86 247.552,536.174 247.612,535.42 245.93,532.725 244.341,530.038 243.61,529.695 M260.887,511.626 Q264.773,517.626 266.084,526.172 267.767,537.213 263.408,545.498 263.156,545.971 262.855,546.497 260.093,551.374 253.157,561.09 252.135,562.519 251.025,564.051 242.611,575.616 240.145,581.585 237.896,587.192 234.41,597.632 231.386,605.833 228.111,607.659 222.751,610.647 220.814,611.157 216.664,612.059 209.903,610.004 206.751,609.089 196.307,604.464 192.885,602.913 189.776,601.905 L189.682,601.898 M189.034,604.075 Q182.593,607.546 173.644,616.319 169.781,620.091 166.55,623.816 L166.448,623.903 166.135,624.257 Q164.793,625.873 163.556,627.467 160.46,631.401 158.097,635.284 152.977,643.602 143.53,662.199 138.976,671.088 131.878,685.268 L131.827,685.312 Q131.813,685.388 131.769,685.449 131.716,685.612 131.648,685.772 131.368,686.284 131.091,686.818 130.353,688.339 129.563,689.921 125.962,697.033 120.697,708.375 116.316,716.942 111.933,720.766 M111.387,721.671 Q108.52,725.522 97.354,735.92 89.373,743.388 86.117,747.213 85.083,748.457 84.527,749.316 M232.73,555.576 Q233.974,556.624 235.98,557.637 238.08,558.658 239.117,558.74 241.85,558.958 243.965,557.419 244.974,556.645 245.528,555.646 246.082,554.647 246.18,553.422 246.24,552.668 245.206,551.352 M189.682,601.898 Q185.7,600.594 182.228,600.214 173.063,599.769 169.199,599.462 162.885,598.959 156.497,595.795 152.636,594.255 147.338,590.514 136.836,583.039 128.099,571.246 119.473,559.603 114.09,546.467 M111.977,547.39 Q110.943,554.421 105.491,570.491 101.402,582.715 100.17,592.072 99.936,593.813 99.806,595.457 99.535,598.85 98.984,615.31 97.109,638.872 93.599,647.224 91.257,652.823 88.108,659.022 86.123,663.701 85.583,670.487 85.283,674.267 85.753,679.084 L85.749,679.132 Q86.183,683.544 87.253,688.831 89.414,699.815 88.987,705.188 88.762,708.015 87.508,710.666 86.826,712.082 86.106,712.783 M87.592,714.372 Q87.463,716.524 86.803,720.711 86.779,720.872 86.777,721.041 85.876,726.76 84.058,736.142 L84.054,736.189 Q83.336,739.924 82.466,744.22 M158.758,637.708 L157.765,643.035 Q157.69,643.977 158.05,647.8 158.409,651.622 158.334,652.565 158.259,653.507 158.628,659.607 158.902,665.699 158.826,666.641 158.197,674.558 144.058,706.819 129.825,739.073 129.263,746.142 128.715,753.022 137.785,770.152 144.878,783.521 154.162,796.779 160.895,806.326 174.858,848.979 174.76,850.205 175.491,850.548 176.136,850.789 176.283,850.136 M91.539,785.157 Q93.79,786.664 105.09,799.609 117.156,813.658 116.938,816.391 116.669,819.784 138.489,838.782 160.31,857.781 160.01,861.551 159.919,862.682 160.304,862.618 160.688,862.553 160.674,862.742 L161.48,862.142 M146.796,460.246 Q142.859,454.905 136.188,451.719 129.612,448.54 123.513,448.908 M83.443,485.223 Q83.348,485.227 83.255,485.208 83.159,485.189 83.066,485.193 78.582,484.277 75.575,483.981 67.484,483.147 61.468,484.85 53.994,487.006 53.1,487.504 51.611,488.334 51.496,490.98 51.459,493.823 52.715,495.915 53.071,496.432 53.745,497.277 53.832,497.375 53.919,497.48 L53.962,497.531 M59.394,493.032 Q66.468,493.35 79.064,497.347 79.249,497.406 79.433,497.472 M53.962,497.531 Q56.072,500.177 60.949,505.675 67.446,512.945 71.722,516.302 72.504,516.893 73.202,517.368 79.138,521.444 86.497,521.935 91.877,522.268 99.391,524.384 105.333,525.995 107.271,525.485 M110.29,535.21 L113.974,546.126 Q114.043,546.295 114.09,546.467 M67.026,522.283 Q63.638,525.522 59.322,545.192 57.377,554.142 56.922,556.287 56.237,560.122 55.892,564.457 55.472,569.735 56.702,581.689 57.838,593.635 57.313,600.233 57.259,600.919 57.201,601.646 56.876,604.777 56.175,608.583 55.039,614.825 52.903,622.882 51.406,628.531 49.419,635.077 42.477,657.952 40.947,677.179 40.699,680.289 41.311,690.486 41.967,700.118 41.636,701.894 M79.433,497.472 Q81.318,498.052 83.317,498.729 98.474,503.729 104.528,503.926 M87.996,544.818 L87.997,547.189 Q87.824,549.357 85.945,555.088 84.059,560.913 83.481,565.799 82.763,571.243 82.028,580.479 81.945,581.516 82.06,584.845 82.167,588.268 82.07,589.493 82.064,589.561 82.058,589.634 81.84,592.166 80.825,596.792 79.723,602.3 78.762,603.647 77.831,604.616 76.011,607.222 74.734,608.969 74.071,610.15 73.408,611.33 73.359,611.943 M73.052,651.564 Q72.992,652.318 71.246,659.957 69.405,667.588 69.315,668.719 69.15,670.792 70.39,676.676 70.968,679.638 71.251,681.345 71.496,683.028 71.459,683.496 71.204,686.7 67,692.42 65.128,697.503 63.085,699.333 M57.201,601.646 Q51.776,601.879 45.068,607.51 38.857,612.668 36.764,618.895 36.159,620.711 35.899,622.62 35.042,628.622 25.414,691.213 16.18,752.413 15.561,759.003 15.209,763.433 13.941,771.015 13.766,772.129 13.631,773.124 L13.624,773.218 Q13.272,776.425 13.545,778.381 13.787,780.108 48.137,840.698 82.25,900.7 82.044,904.477 M34.532,618.338 Q25.117,622.236 15.761,625.38 2.414,629.819 -4.787,629.72 -19.701,628.818 -37.013,627.061 -71.535,623.46 -83.431,619.194 M86.106,712.783 Q85.437,713.441 84.73,713.385 M82.466,744.22 L82.463,744.267 Q82.055,746.406 81.588,748.703 79.091,760.967 75.563,777.341 74.784,781.168 83.391,800.538 94.025,824.242 96.116,831.332 110.368,879.89 109.167,900.945 M-87.183,733.091 Q-79.929,734.901 -62.263,742.946 -43.048,751.779 -32.791,758.76 -18.843,768.216 -15.091,769.938 -7.32,773.591 3.232,773.293 7.511,773.159 11.145,772.784" test="Avatar Lady"/>
      <path id="Layer3_0_2_STROKES" stroke="#FFBC00" stroke-width="1.891" stroke-linejoin="round" stroke-linecap="round" fill="none" d="M197.811,456.243 Q211.896,448.276 227.335,439.813 L234.637,448.172 Q242.132,457.684 243.009,463.349 243.315,465.46 235,468.008 227.819,470.677 226.433,473.791 224.705,477.637 225.127,487.82 225.333,492.218 225.802,496.03 225.828,496.271 225.859,496.509 M117.118,500.66 Q119.391,500.016 121.89,499.095 129.407,496.287 138.949,490.921 147.09,486.352 169.621,472.59 182.961,464.69 197.811,456.243 M225.499,496.86 Q225.75,497.155 225.972,497.466 225.907,496.994 225.859,496.509 M225.499,496.86 Q222.954,493.44 218.878,490.073 209.876,482.812 200.991,483.623 192.388,484.456 177.199,491.783 162.565,499.417 155.321,502.704 154.288,503.168 153.404,503.548 148.49,505.717 130.966,512.574 129.206,513.269 127.638,513.875 123.065,515.732 120.23,516.984 117.123,518.387 116.127,519.076" test="Avatar Lady"/>
      <path id="Layer3_0_3_STROKES" stroke="#FF0" stroke-width="1.891" stroke-linejoin="round" stroke-linecap="round" fill="none" d="M248.554,497.366 Q247.768,503.659 253.943,502.348 254.769,502.144 255.456,501.804 257.866,500.554 258.408,497.487 258.946,494.305 255.903,493.209 M192.019,511.742 Q190.316,514.073 189.988,514.616 189.871,514.891 189.812,515.645 189.421,520.546 196.302,521.093 198.658,521.281 201.428,518.656 203.986,516.299 204.121,514.602 204.159,514.131 201.99,511.587" test="Avatar Lady"/>
      <path id="Layer3_0_4_STROKES" stroke="#FFF" stroke-width="1.891" stroke-linejoin="round" stroke-linecap="round" fill="none" d="M177.59,569.114 L177.787,571.406 Q177.626,573.425 175.977,575.673 175.42,576.491 174.66,577.323 172.573,579.717 171.382,580.381 M177.713,577.091 Q186.862,583.7 198.401,582.911 202.571,582.958 206.835,583.013" test="Avatar Lady"/>
    </g>
    <g id="Censoredf12r1">
      <path fill="#000" stroke="none" d="M-18.85,403.35 L-18.85,629.9 829.1,629.9 829.1,403.35 -18.85,403.35Z" test="Censored"/>
      <path id="Layer1_0_1_STROKES" stroke="#F00" stroke-width="1" stroke-linejoin="round" stroke-linecap="round" fill="none" d="M65.35,401.7 L732,401.7 732,561.5 65.35,561.5 65.35,401.7Z" test="Censored"/>
    </g>
  </g>
</svg>