<?xml version="1.0" encoding="utf-8"?>
<svg id="EdithAnim13" image-rendering="inherit" baseProfile="basic" version="1.1" x="0px" y="0px" width="800" height="600" xmlns="http://www.w3.org/2000/svg" xmlns:xlink="http://www.w3.org/1999/xlink">
  <g id="22_Avatarf174r1" overflow="visible">
    <g id="Avatar-Manf0r1">
      <g id="Tailf0r1">
        <path id="Layer6_0_1_STROKES" stroke="#009EFF" stroke-width="2.573" stroke-linejoin="round" stroke-linecap="round" fill="none" d="M500.26,672.328 Q498.968,653.421 498.259,634.504 497.624,616.16 491.672,598.833 485.129,579.961 466.883,571.37 444.71,561.019 441.491,584.146 441.021,587.516 443.222,590.474 448.429,597.582 455.833,602.133 463.576,599.309 469.396,604.651 476.404,611.136 479.485,620.856 486.686,643.795 492.42,666.925 494.041,673.396 492.948,679.962" test="Tail_2.3242325232423263e+312.3242325232423263e+31_2.3242325232423263e+312.3242325232423263e+31_2.3242325232423263e+312.3242325232423263e+31_2.3242325232423263e+312.3242325232423263e+31_2.3242325232423263e+312.3242325232423263e+31_2.3242325232423263e+312.3242325232423263e+31_2.3242325232423263e+312.3242325232423263e+31_2.3242325232423263e+312.3242325232423263e+31_2.3242325232423263e+312.3242325232423263e+31_2.3242325232423263e+312.3242325232423263e+31_2.3242325232423263e+312.3242325232423263e+31_2.3242325232423263e+312.3242325232423263e+31_2.3242325232423263e+312.3242325232423263e+31_2.3242325232423263e+312.3242325232423263e+31_2.3242325232423263e+312.3242325232423263e+31_2.3242325232423263e+312.3242325232423263e+31_2.3242325232423263e+312.3242325232423263e+31_2.3242325232423263e+312.3242325232423263e+31_2.3242325232423263e+312.3242325232423263e+31_2.3242325232423263e+312.3242325232423263e+31_2.3242325232423263e+312.3242325232423263e+31_2.3242325232423263e+312.3242325232423263e+31_2.3242325232423263e+312.3242325232423263e+31_2.3242325232423263e+312.3242325232423263e+31_23242325232423262324232523242326"/>
      </g>
      <path fill="#000" stroke="none" d="M457.437,576.132 Q452.853,565.841 447.053,564.345 445.744,563.97 429.84,568.554 410.943,573.98 389.52,574.167 367.255,574.354 345.926,567.432 328.806,560.415 326.842,560.603 320.106,563.596 318.235,564.906 314.867,567.151 315.148,569.958 315.335,572.016 315.522,583.335 316.177,594.281 319.358,598.023 322.819,602.045 339.564,610.745 353.41,617.762 367.536,623.749 376.797,627.678 390.736,645.172 397.846,654.059 405.891,664.443 407.575,665.753 405.891,667.624 404.582,669.027 404.769,669.027 L418.053,664.911 Q434.985,659.578 446.492,641.71 456.315,626.368 460.15,605.507 463.237,588.948 457.437,576.132 M463.425,186.87 L460.057,185.467 Q460.008,185.585 459.963,185.654 458.949,188.244 458.279,190.612 456.502,196.974 453.695,206.703 453.632,206.873 453.508,206.984 450.945,213.794 445.65,216.806 434.518,223.168 428.343,226.161 L432.553,235.516 Q432.085,242.345 434.237,288.091 434.315,289.779 434.33,291.366 436.076,327.111 436.295,337.954 436.293,338.025 436.295,338.047 436.327,340.554 436.295,341.696 435.921,356.383 438.634,379.583 439.008,382.858 444.153,380.145 449.298,377.338 448.924,375.374 448.737,373.97 450.889,374.719 452.666,375.374 453.134,375.841 453.228,375.935 460.15,351.986 L465.763,361.341 Q465.857,361.435 469.038,340.76 L474.651,343.099 Q474.759,343.209 473.996,333.276 474.037,333.254 473.996,333.182 472.929,317.911 469.879,279.111 468.029,255.401 466.605,239.82 464.843,218.992 463.892,212.69 463.627,210.853 463.425,210.258 463.627,210.853 463.892,212.69 464.843,218.992 466.605,239.82 L468.102,239.726 Q469.973,239.539 475.492,234.019 480.357,229.342 484.006,230.839 487.28,232.242 506.925,260.681 529.564,289.495 548.087,293.985 531.435,294.546 506.738,313.537 499.067,319.431 491.49,326.54 L490.367,327.569 Q491.699,341.789 496.073,390.435 L497.103,390.342 Q501.967,387.629 536.019,360.873 568.855,334.96 579.427,325.792 587.285,318.963 593.74,308.205 597.014,302.685 600.943,295.856 602.814,293.704 606.837,290.711 610.111,287.717 610.298,282.759 610.485,277.894 574.936,254.975 535.552,230.465 527.974,224.758 505.709,208.013 495.325,201.277 482.954,193.166 474.557,189.583 467.58,186.614 463.425,186.87 M396.91,181.164 Q399.717,180.696 402.336,180.228 406.546,180.228 406.265,185.373 414.311,184.438 417.491,185.373 420.859,186.403 420.766,190.051 L426.005,192.483 Q429.683,185.332 438.634,179.386 443.779,175.925 448.176,174.802 448.245,174.787 448.269,174.709 L447.053,167.225 Q448.457,167.131 445.744,163.857 440.785,158.15 436.763,153.192 431.337,146.457 412.44,140.376 395.881,135.044 386.714,134.95 357.339,134.669 337.132,142.902 324.596,148.047 313.37,163.576 311.219,166.519 309.441,169.189 304.425,177.141 302.893,183.128 L302.893,185.373 Q303.08,185.373 303.922,185.654 304.857,185.841 305.512,185.841 308.88,185.841 312.248,183.128 316.083,179.948 319.732,179.293 L319.732,181.631 323.941,181.631 Q326.748,181.07 332.08,179.48 336.197,178.17 337.038,178.357 L337.038,180.696 Q337.974,180.696 341.716,181.164 347.89,181.164 353.877,177.889 L358.555,177.889 358.555,179.76 366.039,179.76 Q378.388,176.018 379.136,176.018 380.352,176.018 381.475,176.86 382.784,177.796 385.217,177.889 385.217,180.228 384.749,181.164 L396.91,181.164Z" test="Avatar Man" stroke-width="1.871"/>
      <path id="Layer5_0_1_STROKES" stroke="#009EFF" stroke-width="1.871" stroke-linejoin="round" stroke-linecap="round" fill="none" d="M420.766,190.051 Q420.859,186.403 417.491,185.373 414.311,184.438 406.265,185.373 406.546,180.228 402.336,180.228 399.717,180.696 396.91,181.164 L384.749,181.164 Q385.217,180.228 385.217,177.889 382.784,177.796 381.475,176.86 380.352,176.018 379.136,176.018 378.388,176.018 366.039,179.76 L358.555,179.76 358.555,177.889 353.877,177.889 Q347.89,181.164 341.716,181.164 337.974,180.696 337.038,180.696 L337.038,178.357 Q336.197,178.17 332.08,179.48 326.748,181.07 323.941,181.631 L319.732,181.631 319.732,179.293 Q316.083,179.948 312.248,183.128 308.88,185.841 305.512,185.841 304.857,185.841 303.922,185.654 303.08,185.373 302.893,185.373 L302.893,183.128 Q304.425,177.141 309.488,169.236 311.219,166.519 313.37,163.576 324.596,148.047 337.132,142.902 357.339,134.669 386.714,134.95 395.881,135.044 412.44,140.376 431.337,146.457 436.763,153.192 440.785,158.15 445.744,163.857 448.457,167.131 447.053,167.225 M448.316,174.756 Q448.385,174.763 448.457,174.756 451.285,174.131 457.344,173.773 461.741,173.586 464.454,171.809 465.95,170.873 468.102,169.096 468.944,168.628 465.483,174.615 463.892,177.328 462.583,179.948 461.782,181.521 461.133,183.035 460.977,183.347 460.852,183.643 460.579,184.227 460.337,184.812 460.191,185.141 460.057,185.467 M463.425,186.87 Q467.58,186.614 474.604,189.63 482.954,193.166 495.325,201.277 505.709,208.013 527.974,224.758 535.552,230.465 574.936,254.975 610.485,277.894 610.298,282.759 610.111,287.717 606.837,290.711 602.814,293.704 600.943,295.856 597.014,302.685 593.74,308.205 587.285,318.963 579.427,325.792 568.855,334.96 536.019,360.873 501.967,387.629 497.103,390.342 496.618,390.658 496.167,390.95 490.722,394.482 488.309,395.861 484.006,398.387 480.264,397.826 M462.583,179.948 Q461.125,181.545 459.916,182.473 458.695,183.364 457.718,183.596 454.163,183.877 449.86,184.532 444.34,185.373 441.347,187.432 437.324,190.893 433.489,193.887 428.717,197.629 425.724,199.406 L423.666,200.435 Q424.117,196.308 426.051,192.53 M419.83,190.051 L420.766,190.051 M426.051,192.53 Q429.683,185.332 438.634,179.386 443.779,175.925 448.176,174.802 448.245,174.787 448.316,174.756 M460.057,185.467 Q460.008,185.585 459.963,185.701 458.949,188.244 458.279,190.612 456.502,196.974 453.695,206.703 453.632,206.873 453.555,207.03 450.945,213.794 445.65,216.806 434.518,223.168 428.343,226.161 M432.553,235.516 Q432.085,242.345 434.237,288.091 434.315,289.779 434.377,291.412 436.076,327.111 436.295,337.954 436.293,338.025 436.295,338.094 436.327,340.554 436.295,341.696 435.921,356.383 438.634,379.583 439.008,382.858 444.153,380.145 449.298,377.338 448.924,375.374 448.737,373.97 450.889,374.719 452.666,375.374 453.134,375.841 453.228,375.935 460.15,351.986 L465.763,361.341 Q465.857,361.435 469.038,340.76 L474.651,343.099 Q474.759,343.209 474.042,333.323 474.037,333.254 474.042,333.182 472.929,317.911 469.879,279.111 468.029,255.401 466.652,239.82 464.843,218.992 463.892,212.69 463.627,210.853 463.425,210.258 M490.367,327.616 L491.49,326.54 Q499.067,319.431 506.738,313.537 531.435,294.546 548.087,293.985 529.564,289.495 506.925,260.681 487.28,232.242 484.006,230.839 480.357,229.342 475.492,234.019 469.973,239.539 468.102,239.726 M362.858,232.242 Q363.949,232.418 366.226,232.523 368.823,232.616 372.962,232.616 380.259,232.523 383.439,232.242 389.333,231.681 390.081,231.494 393.823,230.465 394.198,227.565 M417.585,307.082 Q418.521,313.163 420.672,321.956 423.292,332.528 425.537,337.954 M313.277,304.276 Q313.277,304.369 313.651,313.911 313.932,320.74 316.551,325.324 317.393,326.795 318.656,328.224 322.488,332.503 330.209,336.363 340.874,341.789 351.165,342.163 L354.953,342.444 355.094,342.444 Q365.01,342.818 368.004,342.631 373.149,342.257 379.23,340.292 383.72,338.889 395.788,328.037 404.365,320.246 413.469,310.73 413.587,310.616 413.703,310.497 413.774,310.429 413.843,310.356 413.938,310.266 414.03,310.169 415.467,308.644 416.93,307.082 417.026,306.981 417.117,306.895 417.155,306.841 417.211,306.801 417.226,306.747 417.258,306.708 428.272,294.964 429.747,291.646 M354.907,343.099 Q354.065,347.121 352.474,356.289 350.884,364.241 348.358,368.357 M485.409,332.341 L490.367,327.616 M475.118,406.713 Q475.025,406.9 465.576,431.504 458.841,448.997 456.408,459.101 453.415,471.356 450.795,507.84 448.176,543.389 449.392,551.248 M395.507,454.797 Q396.069,456.856 397.94,457.417 398.501,457.604 399.998,457.604 402.43,457.604 403.365,456.481 403.74,456.107 405.236,452.646 M358.087,441.233 Q357.9,458.259 359.116,460.878 361.081,465.556 372.12,465.556 377.452,465.556 377.92,465.462 378.481,465.369 380.539,464.152 M359.49,498.766 Q358.555,501.572 358.555,504.66 358.555,509.805 362.671,510.086 365.384,510.179 373.991,509.992 M356.216,537.589 Q360.987,540.863 364.074,541.612 366.32,542.08 370.249,541.331 M404.02,669.588 Q397.004,672.863 378.2,676.417 359.21,679.972 339.003,681.75 321.509,683.34 280.347,682.498 249.289,681.937 231.421,680.814 217.669,679.972 189.791,677.072 182.868,676.324 177.723,677.446 174.074,678.288 172.952,677.54 M307.664,168.16 Q304.109,166.009 299.899,163.763 291.48,159.367 288.954,159.741 286.241,160.115 288.486,173.493 290.357,184.906 292.228,189.677 M296.906,202.306 Q297.654,205.393 299.618,211.567 300.741,216.526 297.841,218.677 294.269,221.34 290.872,223.823 L290.825,223.869 Q239.782,261.77 233.292,264.049 227.585,265.733 226.182,266.201 224.217,266.949 223.937,268.727 223.469,272.375 223.282,284.911 223.001,299.317 223.937,302.405 227.117,315.127 251.627,351.331 275.67,386.787 289.889,400.632 M298.777,234.581 Q301.677,236.078 307.477,236.826 307.712,236.861 307.944,236.873 313.419,237.657 318.89,237.387 322.351,237.2 330.396,235.89 336.945,234.768 339.003,235.049 M298.309,258.904 Q297.186,260.775 285.118,272.843 274.173,283.788 271.179,286.501 M321.135,280.794 Q325.345,280.794 330.022,279.859 L348.264,279.859 Q342.651,285.846 339.471,289.027 333.577,294.827 332.174,294.827 329.648,294.827 325.906,289.588 322.07,283.601 320.667,282.198 M260.889,281.356 Q262.494,285.234 265.94,290.149 265.978,290.204 266.034,290.243 274.611,302.543 294.567,321.302 303.838,330.007 310.657,336.644 326.439,351.952 329.18,356.196 M297.841,426.826 Q297.186,441.7 300.18,448.81 302.051,453.114 307.757,457.978 313.651,462.749 318.89,464.246 M313.745,472.666 Q313.838,475.566 313.37,487.54 313.183,498.766 314.68,501.666 316.457,505.127 320.854,508.027 325.158,510.834 327.777,510.553 M320.293,514.295 Q320.387,517.382 320.387,522.153 320.574,525.708 322.164,527.86 322.351,528.141 327.403,531.602 330.771,533.941 330.584,538.151 330.396,541.331 328.432,549.189 326.748,555.738 327.309,557.796 M304.39,571.361 Q282.499,567.338 256.024,563.222 203.168,555.083 180.997,555.083 166.216,555.083 149.377,551.996 136.093,549.564 133.287,550.406 128.422,551.902 123.838,559.573 119.254,567.338 119.628,573.7 119.909,578.003 121.406,589.416 122.622,599.613 121.499,603.636 M303.922,598.49 Q295.315,599.894 255.65,600.735 212.617,601.671 205.694,602.232 198.023,602.887 173.607,606.816 151.435,610.371 142.548,610.652 131.977,611.026 122.622,609.716 117.757,609.061 110.741,607.378 107.093,606.536 103.351,609.061 101.386,610.465 96.709,615.329 91.376,620.849 96.241,632.636 97.176,634.975 95.586,648.352 93.808,661.824 94.838,664.443 L98.112,672.395 Q101.76,682.405 103.257,692.976 M169.21,664.443 Q170.519,668.653 172.952,680.721 175.571,693.631 175.291,696.25" test="Avatar Man"/>
      <path id="Layer5_0_2_STROKES" stroke="#FF0" stroke-width="1.871" stroke-linejoin="round" stroke-linecap="round" fill="none" d="M366.039,235.89 Q365.103,241.129 366.974,244.965 368.939,248.987 372.587,248.987 374.084,248.987 376.142,247.865 378.481,246.555 379.136,244.778 M307.57,240.1 Q306.635,246.649 306.635,247.116 306.635,249.019 308.038,251.046 308.784,252.105 309.909,253.197 313.37,256.471 316.925,256.471 318.796,256.471 320.012,254.6 320.761,253.571 322.07,251.326" test="Avatar Man"/>
      <path id="Layer5_0_3_STROKES" stroke="#FFF" stroke-width="1.871" stroke-linejoin="round" stroke-linecap="round" fill="none" d="M398.781,286.875 Q405.049,289.401 405.33,293.611 405.349,293.876 405.377,294.172 405.371,294.243 405.377,294.312 L405.377,294.453 Q405.412,296.887 404.862,301.375 M390.362,303.714 Q396.527,302.244 400.278,297.727 401.536,296.215 402.523,294.359" test="Avatar Man"/>
      <path id="Layer5_0_4_STROKES" stroke="#F90" stroke-width="1.871" stroke-linejoin="round" stroke-linecap="round" fill="none" d="M326.842,560.603 Q328.806,560.415 345.926,567.432 367.255,574.354 389.52,574.167 410.943,573.98 429.84,568.554 445.744,563.97 447.053,564.345 452.853,565.841 457.437,576.132 463.237,588.948 460.15,605.507 456.315,626.368 446.492,641.71 434.985,659.578 418.053,664.911 L404.769,669.027 Q404.582,669.027 405.891,667.624 407.575,665.753 405.891,664.443 397.846,654.059 390.736,645.172 376.797,627.678 367.536,623.749 353.41,617.762 339.564,610.745 322.819,602.045 319.358,598.023 316.177,594.281 315.522,583.335 315.335,572.016 315.148,569.958 314.867,567.151 318.235,564.906 320.106,563.596 326.842,560.603Z" test="Avatar Man"/>
    </g>
    <g id="Avatar-Lady">
      <path fill="#000" stroke="none" d="M189.586,602.351 Q185.6,601.094 182.128,600.714 172.964,600.269 169.099,599.962 162.784,599.459 156.397,596.295 152.536,594.755 147.238,591.014 136.736,583.539 128,571.746 119.373,560.103 113.946,546.916 L111.877,547.89 Q110.843,554.921 105.391,570.991 101.302,583.215 100.07,592.572 99.836,594.313 99.706,595.957 99.435,599.35 98.884,615.81 97.009,639.372 93.499,647.724 91.157,653.323 88.008,659.522 86.023,664.201 85.483,670.987 85.183,674.767 85.657,679.537 L85.649,679.632 Q86.083,684.044 87.154,689.331 89.315,700.315 88.887,705.688 88.662,708.515 87.408,711.166 86.726,712.582 86.01,713.236 L87.492,714.872 Q87.363,717.024 86.707,721.164 86.679,721.372 86.677,721.541 85.776,727.26 83.961,736.595 L83.954,736.689 Q83.236,740.424 82.366,744.72 L86.021,747.666 Q89.273,743.888 97.254,736.42 108.42,726.022 111.287,722.171 L111.833,721.266 Q116.216,717.442 120.597,708.875 125.862,697.533 129.463,690.421 130.253,688.839 130.944,687.314 131.268,686.784 131.505,686.221 131.616,686.112 131.622,685.946 131.713,685.888 131.731,685.765 L131.731,685.765 Q138.876,671.588 143.43,662.699 152.877,644.102 157.997,635.784 160.36,631.901 163.456,627.967 164.693,626.373 165.988,624.754 L166.301,624.399 166.403,624.312 Q169.681,620.591 173.544,616.819 182.493,608.046 188.935,604.575 L189.586,602.351 M180.274,432.118 L180.709,418.305 180.238,418.268 Q169.682,417.428 163.409,417.593 150.761,418.009 140.433,421.455 130.482,424.931 120.974,431.193 117.377,433.531 113.847,436.127 113.841,436.172 113.745,436.214 113.492,436.433 113.142,436.64 107.885,440.752 102.858,445.496 94.251,453.537 90.108,462.692 85.972,471.753 84.095,482.227 L83.347,485.676 Q86.295,486.315 89.869,487.144 95.732,488.559 103.534,494.207 103.934,494.521 109.055,498.724 109.107,498.747 109.149,498.732 110.877,500.218 113.151,502.085 110.877,500.218 109.149,498.732 109.107,498.747 109.055,498.724 103.934,494.521 103.534,494.207 95.732,488.559 89.869,487.144 86.295,486.315 83.347,485.676 L79.333,497.972 Q81.218,498.552 83.217,499.229 98.374,504.229 104.428,504.426 98.374,504.229 83.217,499.229 81.218,498.552 79.333,497.972 79.149,497.906 78.964,497.847 66.368,493.85 59.295,493.532 L53.815,498.028 Q55.972,500.677 60.849,506.175 67.346,513.445 71.575,516.798 72.404,517.393 73.102,517.868 79.038,521.944 86.397,522.435 91.777,522.768 99.291,524.884 105.233,526.495 107.171,525.985 L112.981,528.06 110.19,535.71 113.875,546.626 Q113.943,546.795 113.946,546.916 119.373,560.103 128,571.746 136.736,583.539 147.238,591.014 152.536,594.755 156.397,596.295 162.784,599.459 169.099,599.962 172.964,600.269 182.128,600.714 185.6,601.094 189.586,602.351 L189.68,602.358 Q192.785,603.413 196.207,604.964 206.651,609.589 209.803,610.504 216.564,612.559 220.714,611.657 222.651,611.147 228.011,608.159 231.286,606.333 234.31,598.132 237.796,587.692 240.045,582.085 242.511,576.116 250.925,564.551 252.035,563.019 253.057,561.59 259.993,551.874 262.755,546.997 263.056,546.471 263.308,545.998 267.667,537.713 265.984,526.672 264.673,518.126 260.787,512.126 L255.309,502.301 Q254.669,502.644 253.843,502.848 247.668,504.159 248.454,497.866 L243.559,495.011 225.759,497.009 Q225.807,497.494 225.872,497.966 225.65,497.655 225.352,497.356 222.854,493.94 218.778,490.573 209.776,483.312 200.891,484.123 192.288,484.956 177.099,492.283 162.465,499.917 155.178,503.153 154.188,503.668 153.305,504.048 148.39,506.217 130.866,513.074 129.106,513.769 127.542,514.328 122.965,516.232 120.086,517.433 117.023,518.887 116.027,519.576 117.023,518.887 120.086,517.433 122.965,516.232 127.542,514.328 129.106,513.769 130.866,513.074 148.39,506.217 153.305,504.048 154.188,503.668 155.178,503.153 162.465,499.917 177.099,492.283 192.288,484.956 200.891,484.123 209.776,483.312 218.778,490.573 222.854,493.94 225.352,497.356 L225.759,497.009 Q225.728,496.771 225.702,496.53 225.233,492.718 225.027,488.32 224.605,478.137 226.333,474.291 227.719,471.177 235.899,468.508 243.215,465.96 242.909,463.849 242.032,458.184 234.537,448.672 L227.235,440.313 Q211.796,448.776 197.664,456.74 182.861,465.19 169.521,473.09 146.99,486.852 138.849,491.421 129.307,496.787 121.794,499.548 119.291,500.516 117.018,501.16 119.291,500.516 121.794,499.548 129.307,496.787 138.849,491.421 146.99,486.852 169.521,473.09 182.861,465.19 197.664,456.74 L192.344,447.306 Q191.586,446.107 186.852,440.04 181.685,433.463 180.274,432.118 M208.582,504.273 Q207.375,502.754 202.998,501.742 199.681,500.975 189.044,505.469 185.625,506.953 181.464,508.944 164.307,517.158 161.668,516.948 164.307,517.158 181.464,508.944 185.625,506.953 189.044,505.469 199.681,500.975 202.998,501.742 207.375,502.754 208.582,504.273 209.789,505.792 214.009,508.783 209.789,505.792 208.582,504.273 M201.328,519.156 Q203.886,516.799 204.022,515.102 204.059,514.631 201.89,512.087 204.059,514.631 204.022,515.102 203.886,516.799 201.328,519.156 198.558,521.781 196.202,521.593 189.322,521.046 189.712,516.145 189.772,515.391 189.888,515.116 190.216,514.573 191.919,512.242 190.216,514.573 189.888,515.116 189.772,515.391 189.712,516.145 189.322,521.046 196.202,521.593 198.558,521.781 201.328,519.156 M175.834,576.122 Q175.32,576.991 174.56,577.823 172.473,580.217 171.282,580.881 172.473,580.217 174.56,577.823 175.32,576.991 175.834,576.122 177.526,573.925 177.687,571.906 L177.49,569.614 177.687,571.906 Q177.526,573.925 175.834,576.122 M224.95,547.688 Q227.337,547.877 230.609,546.905 234.132,545.969 238.637,543.75 245.08,540.495 246.767,538.137 247.397,537.36 247.452,536.674 247.512,535.92 245.83,533.225 244.241,530.538 243.51,530.195 244.241,530.538 245.83,533.225 247.512,535.92 247.452,536.674 247.397,537.36 246.767,538.137 245.08,540.495 238.637,543.75 234.132,545.969 230.609,546.905 227.337,547.877 224.95,547.688 221.275,547.395 219.034,544.561 215.508,540.012 215.24,539.801 215.508,540.012 219.034,544.561 221.275,547.395 224.95,547.688 M246.08,553.922 Q246.14,553.168 245.106,551.852 246.14,553.168 246.08,553.922 245.982,555.147 245.428,556.146 244.875,557.145 243.865,557.919 241.75,559.458 239.017,559.24 237.98,559.158 235.88,558.137 233.874,557.124 232.63,556.076 233.874,557.124 235.88,558.137 237.98,559.158 239.017,559.24 241.75,559.458 243.865,557.919 244.875,557.145 245.428,556.146 245.982,555.147 246.08,553.922 M198.301,583.411 Q202.471,583.458 206.735,583.513 202.471,583.458 198.301,583.411 186.762,584.2 177.614,577.591 186.762,584.2 198.301,583.411 M146.697,460.746 Q142.759,455.405 136.088,452.219 129.512,449.04 123.413,449.408 129.512,449.04 136.088,452.219 142.759,455.405 146.697,460.746Z" test="Avatar Lady" stroke-width="1.891"/>
      <path id="Layer4_0_1_STROKES" stroke="#009EFF" stroke-width="1.891" stroke-linejoin="round" stroke-linecap="round" fill="none" d="M243.559,495.011 Q242.781,490.491 246.403,489.072 249.938,487.551 253.225,486.77 M225.827,435.364 Q226.177,434.538 226.215,434.067 226.29,433.124 223.659,426.845 220.546,419.484 220.086,418.119 218.402,413.053 213.504,411.43 208.358,410.547 206.635,409.556 206.899,411 206.532,415.618 L205.803,422.389 Q205.513,422.461 203.499,421.542 201.298,420.608 200.261,420.525 196.585,420.233 194.621,419.887 189.953,418.946 184.675,418.526 L180.709,418.305 M180.274,432.118 Q181.685,433.463 186.852,440.04 191.586,446.107 192.344,447.306 M206.635,409.556 Q206.638,409.461 206.548,409.454 L206.57,409.171 Q206.648,409.365 206.635,409.556Z M180.238,418.268 Q180.253,418.079 180.347,418.087 180.514,418.284 180.709,418.305 L180.238,418.268 Q169.682,417.428 163.409,417.593 150.761,418.009 140.433,421.455 130.482,424.931 120.974,431.193 117.377,433.531 113.894,436.131 113.841,436.172 113.792,436.218 113.492,436.433 113.189,436.644 107.885,440.752 102.858,445.496 94.251,453.537 90.108,462.692 85.972,471.753 84.095,482.227 M83.343,485.723 Q86.295,486.315 89.869,487.144 95.732,488.559 103.534,494.207 103.934,494.521 109.055,498.724 109.107,498.747 109.146,498.779 110.877,500.218 113.151,502.085 M214.009,508.783 Q209.789,505.792 208.582,504.273 207.375,502.754 202.998,501.742 199.681,500.975 189.04,505.516 185.625,506.953 181.464,508.944 164.307,517.158 161.668,516.948 M215.24,539.801 Q215.508,540.012 219.034,544.561 221.275,547.395 224.95,547.688 227.337,547.877 230.652,546.956 234.132,545.969 238.637,543.75 245.08,540.495 246.814,538.141 247.397,537.36 247.452,536.674 247.512,535.92 245.83,533.225 244.241,530.538 243.51,530.195 M260.787,512.126 Q264.673,518.126 265.984,526.672 267.667,537.713 263.308,545.998 263.056,546.471 262.755,546.997 259.993,551.874 253.057,561.59 252.035,563.019 250.925,564.551 242.511,576.116 240.045,582.085 237.796,587.692 234.31,598.132 231.286,606.333 228.011,608.159 222.651,611.147 220.714,611.657 216.564,612.559 209.803,610.504 206.651,609.589 196.207,604.964 192.785,603.413 189.676,602.405 L189.582,602.398 M188.935,604.575 Q182.493,608.046 173.544,616.819 169.681,620.591 166.45,624.316 L166.348,624.403 166.035,624.757 Q164.693,626.373 163.456,627.967 160.36,631.901 157.997,635.784 152.877,644.102 143.43,662.699 138.876,671.588 131.778,685.768 L131.727,685.812 Q131.713,685.888 131.669,685.949 131.616,686.112 131.548,686.272 131.268,686.784 130.991,687.318 130.253,688.839 129.463,690.421 125.862,697.533 120.597,708.875 116.216,717.442 111.833,721.266 M111.287,722.171 Q108.42,726.022 97.254,736.42 89.273,743.888 86.017,747.713 84.983,748.957 84.427,749.816 M232.63,556.076 Q233.874,557.124 235.88,558.137 237.98,559.158 239.017,559.24 241.75,559.458 243.865,557.919 244.875,557.145 245.428,556.146 245.982,555.147 246.08,553.922 246.14,553.168 245.106,551.852 M189.582,602.398 Q185.6,601.094 182.128,600.714 172.964,600.269 169.099,599.962 162.784,599.459 156.397,596.295 152.536,594.755 147.238,591.014 136.736,583.539 128,571.746 119.373,560.103 113.99,546.967 M111.877,547.89 Q110.843,554.921 105.391,570.991 101.302,583.215 100.07,592.572 99.836,594.313 99.706,595.957 99.435,599.35 98.884,615.81 97.009,639.372 93.499,647.724 91.157,653.323 88.008,659.522 86.023,664.201 85.483,670.987 85.183,674.767 85.653,679.584 L85.649,679.632 Q86.083,684.044 87.154,689.331 89.315,700.315 88.887,705.688 88.662,708.515 87.408,711.166 86.726,712.582 86.006,713.283 M87.492,714.872 Q87.363,717.024 86.703,721.211 86.679,721.372 86.677,721.541 85.776,727.26 83.958,736.642 L83.954,736.689 Q83.236,740.424 82.366,744.72 M158.658,638.208 L157.665,643.535 Q157.59,644.477 157.95,648.3 158.309,652.122 158.234,653.065 158.159,654.007 158.528,660.107 158.802,666.199 158.727,667.141 158.097,675.058 143.958,707.319 129.725,739.573 129.163,746.642 128.615,753.522 137.685,770.652 144.778,784.021 154.062,797.279 160.795,806.826 174.758,849.479 174.66,850.705 175.392,851.048 176.036,851.289 176.183,850.636 M91.439,785.657 Q93.69,787.164 104.99,800.109 117.056,814.158 116.839,816.891 116.569,820.284 138.389,839.282 160.21,858.281 159.909,862.051 159.82,863.182 160.204,863.118 160.589,863.053 160.574,863.242 L161.38,862.642 M146.697,460.746 Q142.759,455.405 136.088,452.219 129.512,449.04 123.413,449.408 M83.343,485.723 Q83.248,485.727 83.155,485.708 83.059,485.689 82.966,485.693 78.482,484.777 75.475,484.481 67.384,483.647 61.368,485.35 53.894,487.506 53,488.004 51.511,488.834 51.396,491.48 51.359,494.323 52.615,496.415 52.971,496.932 53.645,497.777 53.732,497.875 53.819,497.98 L53.862,498.031 M59.295,493.532 Q66.368,493.85 78.964,497.847 79.149,497.906 79.333,497.972 M53.862,498.031 Q55.972,500.677 60.849,506.175 67.346,513.445 71.622,516.802 72.404,517.393 73.102,517.868 79.038,521.944 86.397,522.435 91.777,522.768 99.291,524.884 105.233,526.495 107.171,525.985 M110.19,535.71 L113.875,546.626 Q113.943,546.795 113.99,546.967 M66.926,522.783 Q63.538,526.022 59.222,545.692 57.277,554.642 56.822,556.787 56.137,560.622 55.792,564.957 55.372,570.235 56.602,582.189 57.739,594.135 57.213,600.733 57.159,601.419 57.101,602.146 56.776,605.277 56.075,609.083 54.939,615.325 52.803,623.382 51.306,629.031 49.319,635.577 42.377,658.452 40.847,677.679 40.599,680.789 41.211,690.986 41.867,700.618 41.536,702.394 M79.333,497.972 Q81.218,498.552 83.217,499.229 98.374,504.229 104.428,504.426 M87.896,545.318 L87.897,547.689 Q87.724,549.857 85.845,555.588 83.959,561.413 83.381,566.299 82.663,571.743 81.928,580.979 81.845,582.016 81.96,585.345 82.067,588.768 81.97,589.993 81.964,590.061 81.958,590.134 81.74,592.666 80.725,597.292 79.623,602.8 78.662,604.147 77.731,605.116 75.911,607.722 74.634,609.469 73.971,610.65 73.308,611.83 73.259,612.443 M72.952,652.064 Q72.892,652.818 71.146,660.457 69.305,668.088 69.215,669.219 69.05,671.292 70.29,677.176 70.868,680.138 71.151,681.845 71.396,683.528 71.359,683.996 71.104,687.2 67.899,692.92 65.028,698.003 62.985,699.833 M57.101,602.146 Q51.676,602.379 44.968,608.01 38.757,613.168 36.664,619.395 36.059,621.211 35.799,623.12 34.942,629.122 25.314,691.713 16.081,752.913 15.461,759.503 15.109,763.933 13.841,771.515 13.666,772.629 13.531,773.624 L13.524,773.718 Q13.172,776.925 13.445,778.881 13.687,780.608 48.037,841.198 82.15,901.2 81.944,904.977 M34.432,618.838 Q25.017,622.736 15.661,625.88 2.314,630.319 -4.887,630.22 -19.8,629.318 -37.113,627.561 -71.635,623.96 -83.531,619.694 M86.006,713.283 Q85.337,713.941 84.631,713.885 M82.366,744.72 L82.363,744.767 Q81.955,746.906 81.488,749.203 78.991,761.467 75.463,777.841 74.684,781.668 83.291,801.038 93.925,824.742 96.016,831.832 110.268,880.39 109.067,901.445 M-87.283,733.591 Q-80.029,735.401 -62.363,743.446 -43.148,752.279 -32.891,759.26 -18.943,768.716 -15.191,770.438 -7.419,774.091 3.132,773.793 7.411,773.659 11.045,773.284" test="Avatar Lady"/>
      <path id="Layer4_0_2_STROKES" stroke="#FFBC00" stroke-width="1.891" stroke-linejoin="round" stroke-linecap="round" fill="none" d="M197.711,456.743 Q211.796,448.776 227.235,440.313 L234.537,448.672 Q242.032,458.184 242.909,463.849 243.215,465.96 235.899,468.508 227.719,471.177 226.333,474.291 224.605,478.137 225.027,488.32 225.233,492.718 225.702,496.53 225.728,496.771 225.759,497.009 M117.018,501.16 Q119.291,500.516 121.79,499.595 129.307,496.787 138.849,491.421 146.99,486.852 169.521,473.09 182.861,465.19 197.711,456.743 M225.399,497.36 Q225.65,497.655 225.872,497.966 225.807,497.494 225.759,497.009 M225.399,497.36 Q222.854,493.94 218.778,490.573 209.776,483.312 200.891,484.123 192.288,484.956 177.099,492.283 162.465,499.917 155.221,503.204 154.188,503.668 153.305,504.048 148.39,506.217 130.866,513.074 129.106,513.769 127.538,514.375 122.965,516.232 120.13,517.484 117.023,518.887 116.027,519.576" test="Avatar Lady"/>
      <path id="Layer4_0_3_STROKES" stroke="#FF0" stroke-width="1.891" stroke-linejoin="round" stroke-linecap="round" fill="none" d="M248.454,497.866 Q247.668,504.159 253.843,502.848 254.669,502.644 255.356,502.304 257.766,501.054 258.308,497.987 258.846,494.805 255.803,493.709 M191.919,512.242 Q190.216,514.573 189.888,515.116 189.772,515.391 189.712,516.145 189.322,521.046 196.202,521.593 198.558,521.781 201.328,519.156 203.886,516.799 204.022,515.102 204.059,514.631 201.89,512.087" test="Avatar Lady"/>
      <path id="Layer4_0_4_STROKES" stroke="#FFF" stroke-width="1.891" stroke-linejoin="round" stroke-linecap="round" fill="none" d="M177.49,569.614 L177.687,571.906 Q177.526,573.925 175.877,576.173 175.32,576.991 174.56,577.823 172.473,580.217 171.282,580.881 M177.614,577.591 Q186.762,584.2 198.301,583.411 202.471,583.458 206.735,583.513" test="Avatar Lady"/>
    </g>
    <g id="Censoredf0r1">
      <path fill="#000" stroke="none" d="M-18.85,403.35 L-18.85,629.9 829.1,629.9 829.1,403.35 -18.85,403.35Z" test="Censored"/>
      <path id="Layer2_0_1_STROKES" stroke="#F00" stroke-width="1" stroke-linejoin="round" stroke-linecap="round" fill="none" d="M440.05,433.95 Q451.45,433.7 458.4,442.45 467.15,453.5 468.45,478.35 469.85,504.55 462.7,519.75 456.1,533.8 444.2,534.55 432.35,535.35 426.85,525.8 420.75,515.3 419.8,488.15 418.8,461.5 424.1,448.25 428.75,436.6 438.75,434.25 M495.6,540.1 Q496.6,530.75 496.9,517.65 497.2,502.55 496.25,489.8 496.1,487.9 494.45,475.35 493.3,466.4 490.7,448.25 489,434.25 490.35,432.65 491.55,431.25 495.9,430.8 500.65,430.2 505.5,431.3 518.75,434.35 520.4,446.7 522.1,459.55 514.25,468.5 507.95,475.7 498.4,478.15 503.3,481.95 507.4,487.15 509.05,489.15 511.9,493.4 515.55,498.8 519.6,507.2 527.8,523.85 530,538.55 M571.35,432.65 Q570.6,432.65 561.5,433.35 554.45,433.85 553.1,433.3 551.6,432.65 553.4,483.6 553.45,484.9 553.55,486.15 555.9,485.8 562.05,485.75 568.9,485.7 569.75,485.55 M576.25,536.2 Q574.4,536.65 565.05,535.95 555.95,535.2 555.7,534.9 555.25,534.3 553.55,486.15 553.25,486.15 553.1,486.2 M604.7,431.3 Q618.7,430 628.4,436.15 644.15,446.1 645.2,473.8 646.25,502.4 642.45,513.4 640.25,519.95 633.1,524.1 628.35,526.9 618.55,528.8 610.8,530.3 606.65,530.3 604.3,530.3 604.1,480.45 603.85,429.95 604.7,431.3Z M184.5,451.6 Q183.2,445.85 177.55,440.35 171.75,434.7 166.2,434.25 158.55,433.6 151.55,437.15 141.9,442.05 136.2,454.2 129.55,468.45 127.75,482.8 125.85,498.1 129.9,511.35 132.45,519.85 135.75,524.45 140.25,530.65 146.6,530.65 153.75,530.65 160.75,526.7 167.95,522.75 170.85,516.9 M245.95,432.3 Q246.45,433.4 229.65,434.45 212.85,435.5 212.85,435.2 212.8,434.8 212.85,482.95 213.9,483.4 230.8,482.6 247.75,481.85 248.25,481 M277.65,536.55 Q277.8,536.7 277,484.45 276.2,432.15 276.35,432.3 276.6,432.65 327,528.05 323.8,429.05 322.4,429.7 M393.3,453.2 Q391.25,446.4 386,440.35 379.85,433.15 373.45,433.1 367,433 361.25,439.3 355.5,445.55 356.05,452.3 356.35,455.55 357.2,457.8 360.1,463.35 364.75,467.85 365.75,468.75 366.65,469.9 368.9,472.7 371.6,476.35 387.7,497.65 388.75,507.75 390,519.95 383.9,526.65 379.05,531.95 373.4,531.6 364.85,531.1 360.6,528.1 351.95,521.95 352.15,505.15 M212.85,482.95 Q212.65,483 212.5,507.4 212.4,531.7 212.25,533.25 212.1,534.85 229.65,535.1 247.15,535.35 248.25,533.25" test="Censored"/>
      <path id="Layer1_0_1_STROKES" stroke="#F00" stroke-width="1" stroke-linejoin="round" stroke-linecap="round" fill="none" d="M65.35,401.7 L732,401.7 732,561.5 65.35,561.5 65.35,401.7Z" test="Censored"/>
    </g>
  </g>
</svg>