<?xml version="1.0" encoding="utf-8"?>
<svg id="EdithAnim13" image-rendering="inherit" baseProfile="basic" version="1.1" x="0px" y="0px" width="800" height="600" xmlns="http://www.w3.org/2000/svg" xmlns:xlink="http://www.w3.org/1999/xlink">
  <g id="22_Avatarf176r1" overflow="visible">
    <g id="Avatar-Manf0r1">
      <g id="Tailf0r1">
        <path id="Layer6_0_1_STROKES" stroke="#009EFF" stroke-width="2.576" stroke-linejoin="round" stroke-linecap="round" fill="none" d="M499.88,672.694 Q498.574,653.772 497.851,634.838 497.204,616.479 491.235,599.141 484.674,580.257 466.406,571.671 444.207,561.325 441,584.475 440.532,587.848 442.737,590.807 447.953,597.917 455.367,602.468 463.115,599.636 468.944,604.979 475.961,611.464 479.052,621.191 486.275,644.145 492.029,667.291 493.656,673.768 492.567,680.339" test="Tail_2.3242325232423263e+312.3242325232423263e+31_2.3242325232423263e+312.3242325232423263e+31_2.3242325232423263e+312.3242325232423263e+31_2.3242325232423263e+312.3242325232423263e+31_2.3242325232423263e+312.3242325232423263e+31_2.3242325232423263e+312.3242325232423263e+31_2.3242325232423263e+312.3242325232423263e+31_2.3242325232423263e+312.3242325232423263e+31_2.3242325232423263e+312.3242325232423263e+31_2.3242325232423263e+312.3242325232423263e+31_2.3242325232423263e+312.3242325232423263e+31_2.3242325232423263e+312.3242325232423263e+31_2.3242325232423263e+312.3242325232423263e+31_2.3242325232423263e+312.3242325232423263e+31_2.3242325232423263e+312.3242325232423263e+31_2.3242325232423263e+312.3242325232423263e+31_2.3242325232423263e+312.3242325232423263e+31_2.3242325232423263e+312.3242325232423263e+31_2.3242325232423263e+312.3242325232423263e+31_2.3242325232423263e+312.3242325232423263e+31_2.3242325232423263e+312.3242325232423263e+31_2.3242325232423263e+312.3242325232423263e+31_2.3242325232423263e+312.3242325232423263e+31_2.3242325232423263e+312.3242325232423263e+31_2.3242325232423263e+312.3242325232423263e+31_1"/>
      </g>
      <path fill="#000" stroke="none" d="M456.944,576.368 Q452.357,566.072 446.554,564.574 445.244,564.2 429.332,568.786 410.424,574.215 388.99,574.402 366.713,574.589 345.372,567.663 328.244,560.643 326.278,560.83 319.539,563.825 317.667,565.136 314.297,567.382 314.578,570.19 314.765,572.249 314.952,583.575 315.608,594.526 318.79,598.27 322.253,602.295 339.008,611 352.86,618.02 366.994,624.01 376.26,627.941 390.207,645.444 397.32,654.336 405.37,664.726 407.055,666.036 405.37,667.908 404.06,669.312 404.247,669.312 L417.538,665.194 Q434.48,659.859 445.992,641.981 455.82,626.631 459.658,605.758 462.747,589.191 456.944,576.368 M462.934,186.898 L459.564,185.494 Q459.516,185.612 459.471,185.681 458.456,188.272 457.786,190.642 456.008,197.007 453.2,206.741 453.136,206.912 453.012,207.022 450.448,213.836 445.15,216.85 434.012,223.215 427.834,226.21 L432.046,235.57 Q431.578,242.403 433.731,288.173 433.809,289.862 433.824,291.449 435.571,327.214 435.79,338.062 435.788,338.133 435.79,338.156 435.822,340.664 435.79,341.806 435.416,356.501 438.13,379.714 438.504,382.99 443.652,380.276 448.8,377.468 448.426,375.502 448.239,374.098 450.392,374.847 452.17,375.502 452.638,375.97 452.732,376.064 459.658,352.102 L465.274,361.462 Q465.368,361.556 468.55,340.87 L474.166,343.21 Q474.275,343.32 473.511,333.382 473.552,333.36 473.511,333.288 472.444,318.009 469.392,279.188 467.541,255.466 466.116,239.876 464.353,219.036 463.402,212.732 463.136,210.893 462.934,210.298 463.136,210.893 463.402,212.732 464.353,219.036 466.116,239.876 L467.614,239.782 Q469.486,239.595 475.008,234.072 479.876,229.392 483.526,230.89 486.802,232.294 506.458,260.748 529.109,289.577 547.642,294.07 530.981,294.632 506.271,313.632 498.596,319.529 491.014,326.643 L489.891,327.672 Q491.224,341.9 495.6,390.572 L496.63,390.478 Q501.497,387.764 535.568,360.994 568.421,335.067 578.998,325.894 586.86,319.061 593.319,308.297 596.595,302.775 600.526,295.942 602.398,293.789 606.423,290.794 609.699,287.799 609.886,282.838 610.073,277.971 574.505,255.039 535.1,230.516 527.518,224.806 505.241,208.052 494.852,201.312 482.474,193.197 474.072,189.612 467.092,186.642 462.934,186.898 M396.384,181.188 Q399.192,180.72 401.813,180.252 406.025,180.252 405.744,185.4 413.794,184.464 416.976,185.4 420.346,186.43 420.252,190.08 L425.494,192.514 Q429.174,185.359 438.13,179.41 443.278,175.947 447.677,174.824 447.746,174.809 447.771,174.73 L446.554,167.242 Q447.958,167.148 445.244,163.872 440.283,158.163 436.258,153.202 430.829,146.463 411.922,140.379 395.355,135.044 386.182,134.95 356.792,134.669 336.574,142.906 324.032,148.054 312.8,163.592 310.647,166.536 308.868,169.208 303.85,177.164 302.316,183.154 L302.316,185.4 Q302.504,185.4 303.346,185.681 304.282,185.868 304.937,185.868 308.307,185.868 311.676,183.154 315.514,179.972 319.164,179.316 L319.164,181.656 323.376,181.656 Q326.184,181.095 331.52,179.504 335.638,178.193 336.48,178.38 L336.48,180.72 Q337.416,180.72 341.16,181.188 347.338,181.188 353.328,177.912 L358.008,177.912 358.008,179.784 365.496,179.784 Q377.852,176.04 378.6,176.04 379.817,176.04 380.94,176.883 382.251,177.819 384.684,177.912 384.684,180.252 384.216,181.188 L396.384,181.188Z" test="Avatar Man" stroke-width="1.872"/>
      <path id="Layer5_0_1_STROKES" stroke="#009EFF" stroke-width="1.872" stroke-linejoin="round" stroke-linecap="round" fill="none" d="M420.252,190.08 Q420.346,186.43 416.976,185.4 413.794,184.464 405.744,185.4 406.025,180.252 401.813,180.252 399.192,180.72 396.384,181.188 L384.216,181.188 Q384.684,180.252 384.684,177.912 382.251,177.819 380.94,176.883 379.817,176.04 378.6,176.04 377.852,176.04 365.496,179.784 L358.008,179.784 358.008,177.912 353.328,177.912 Q347.338,181.188 341.16,181.188 337.416,180.72 336.48,180.72 L336.48,178.38 Q335.638,178.193 331.52,179.504 326.184,181.095 323.376,181.656 L319.164,181.656 319.164,179.316 Q315.514,179.972 311.676,183.154 308.307,185.868 304.937,185.868 304.282,185.868 303.346,185.681 302.504,185.4 302.316,185.4 L302.316,183.154 Q303.85,177.164 308.915,169.254 310.647,166.536 312.8,163.592 324.032,148.054 336.574,142.906 356.792,134.669 386.182,134.95 395.355,135.044 411.922,140.379 430.829,146.463 436.258,153.202 440.283,158.163 445.244,163.872 447.958,167.148 446.554,167.242 M447.818,174.777 Q447.887,174.784 447.958,174.777 450.788,174.152 456.85,173.794 461.249,173.607 463.964,171.828 465.461,170.892 467.614,169.114 468.456,168.646 464.993,174.636 463.402,177.351 462.092,179.972 461.29,181.546 460.641,183.06 460.485,183.373 460.36,183.669 460.087,184.253 459.845,184.839 459.699,185.168 459.564,185.494 M462.934,186.898 Q467.092,186.642 474.119,189.659 482.474,193.197 494.852,201.312 505.241,208.052 527.518,224.806 535.1,230.516 574.505,255.039 610.073,277.971 609.886,282.838 609.699,287.799 606.423,290.794 602.398,293.789 600.526,295.942 596.595,302.775 593.319,308.297 586.86,319.061 578.998,325.894 568.421,335.067 535.568,360.994 501.497,387.764 496.63,390.478 496.145,390.794 495.694,391.086 490.246,394.621 487.832,396 483.526,398.528 479.782,397.966 M462.092,179.972 Q460.633,181.57 459.424,182.499 458.202,183.39 457.224,183.622 453.668,183.903 449.362,184.558 443.84,185.4 440.844,187.46 436.82,190.923 432.982,193.918 428.208,197.662 425.213,199.44 L423.154,200.47 Q423.605,196.34 425.541,192.561 M419.316,190.08 L420.252,190.08 M425.541,192.561 Q429.174,185.359 438.13,179.41 443.278,175.947 447.677,174.824 447.746,174.809 447.818,174.777 M459.564,185.494 Q459.516,185.612 459.471,185.728 458.456,188.272 457.786,190.642 456.008,197.007 453.2,206.741 453.136,206.912 453.059,207.069 450.448,213.836 445.15,216.85 434.012,223.215 427.834,226.21 M432.046,235.57 Q431.578,242.403 433.731,288.173 433.809,289.862 433.871,291.496 435.571,327.214 435.79,338.062 435.788,338.133 435.79,338.202 435.822,340.664 435.79,341.806 435.416,356.501 438.13,379.714 438.504,382.99 443.652,380.276 448.8,377.468 448.426,375.502 448.239,374.098 450.392,374.847 452.17,375.502 452.638,375.97 452.732,376.064 459.658,352.102 L465.274,361.462 Q465.368,361.556 468.55,340.87 L474.166,343.21 Q474.275,343.32 473.558,333.429 473.552,333.36 473.558,333.288 472.444,318.009 469.392,279.188 467.541,255.466 466.163,239.876 464.353,219.036 463.402,212.732 463.136,210.893 462.934,210.298 M489.891,327.719 L491.014,326.643 Q498.596,319.529 506.271,313.632 530.981,294.632 547.642,294.07 529.109,289.577 506.458,260.748 486.802,232.294 483.526,230.89 479.876,229.392 475.008,234.072 469.486,239.595 467.614,239.782 M362.314,232.294 Q363.405,232.47 365.684,232.575 368.282,232.668 372.423,232.668 379.724,232.575 382.906,232.294 388.803,231.732 389.552,231.545 393.296,230.516 393.67,227.614 M417.07,307.174 Q418.006,313.258 420.159,322.056 422.78,332.633 425.026,338.062 M312.706,304.366 Q312.706,304.46 313.08,314.007 313.361,320.84 315.982,325.426 316.824,326.897 318.088,328.328 321.922,332.609 329.648,336.471 340.318,341.9 350.614,342.274 L354.405,342.555 354.545,342.555 Q364.467,342.929 367.462,342.742 372.61,342.368 378.694,340.402 383.187,338.998 395.261,328.14 403.842,320.345 412.952,310.824 413.07,310.71 413.186,310.59 413.257,310.523 413.326,310.45 413.421,310.36 413.513,310.263 414.951,308.737 416.415,307.174 416.51,307.073 416.602,306.987 416.639,306.933 416.696,306.893 416.711,306.839 416.742,306.8 427.763,295.049 429.238,291.73 M354.358,343.21 Q353.516,347.235 351.924,356.408 350.333,364.364 347.806,368.482 M484.93,332.446 L489.891,327.719 M474.634,406.858 Q474.54,407.045 465.087,431.662 458.348,449.165 455.914,459.274 452.919,471.536 450.298,508.04 447.677,543.608 448.894,551.47 M394.98,454.968 Q395.542,457.028 397.414,457.589 397.976,457.776 399.473,457.776 401.907,457.776 402.843,456.653 403.217,456.279 404.715,452.816 M357.54,441.396 Q357.353,458.432 358.57,461.052 360.536,465.732 371.58,465.732 376.916,465.732 377.384,465.639 377.945,465.545 380.004,464.328 M358.944,498.96 Q358.008,501.768 358.008,504.857 358.008,510.005 362.127,510.286 364.841,510.38 373.452,510.192 M355.668,537.804 Q360.442,541.08 363.531,541.829 365.777,542.297 369.708,541.548 M403.498,669.874 Q396.478,673.15 377.664,676.707 358.664,680.264 338.446,682.042 320.943,683.633 279.759,682.791 248.684,682.229 230.806,681.106 217.047,680.264 189.154,677.362 182.228,676.613 177.08,677.736 173.429,678.579 172.306,677.83 M307.09,168.178 Q303.533,166.025 299.321,163.779 290.897,159.38 288.37,159.754 285.656,160.128 287.902,173.513 289.774,184.932 291.646,189.706 M296.326,202.342 Q297.075,205.431 299.04,211.608 300.164,216.569 297.262,218.722 293.688,221.386 290.289,223.87 L290.242,223.917 Q239.172,261.838 232.678,264.118 226.968,265.803 225.564,266.271 223.599,267.02 223.318,268.798 222.85,272.448 222.663,284.991 222.382,299.405 223.318,302.494 226.5,315.224 251.024,351.447 275.079,386.921 289.306,400.774 M298.198,234.634 Q301.1,236.132 306.903,236.88 307.139,236.916 307.371,236.927 312.848,237.712 318.322,237.442 321.785,237.255 329.835,235.944 336.387,234.821 338.446,235.102 M297.73,258.97 Q296.607,260.842 284.532,272.916 273.581,283.868 270.586,286.582 M320.568,280.872 Q324.78,280.872 329.46,279.936 L347.712,279.936 Q342.096,285.927 338.914,289.109 333.017,294.912 331.613,294.912 329.086,294.912 325.342,289.671 321.504,283.68 320.1,282.276 M260.29,281.434 Q261.896,285.315 265.344,290.232 265.382,290.287 265.438,290.326 274.019,302.633 293.986,321.401 303.262,330.112 310.085,336.752 325.876,352.068 328.618,356.314 M297.262,426.982 Q296.607,441.864 299.602,448.978 301.474,453.284 307.184,458.151 313.08,462.924 318.322,464.422 M313.174,472.846 Q313.268,475.748 312.8,487.728 312.612,498.96 314.11,501.862 315.888,505.325 320.288,508.227 324.593,511.035 327.214,510.754 M319.726,514.498 Q319.82,517.587 319.82,522.36 320.007,525.917 321.598,528.07 321.785,528.351 326.84,531.814 330.209,534.154 330.022,538.366 329.835,541.548 327.869,549.411 326.184,555.963 326.746,558.022 M303.814,571.594 Q281.912,567.569 255.423,563.451 202.539,555.308 180.356,555.308 165.567,555.308 148.719,552.219 135.428,549.785 132.62,550.628 127.752,552.125 123.166,559.8 118.58,567.569 118.954,573.934 119.235,578.24 120.732,589.659 121.949,599.861 120.826,603.886 M303.346,598.738 Q294.735,600.142 255.048,600.984 211.992,601.92 205.066,602.482 197.391,603.137 172.961,607.068 150.778,610.625 141.886,610.906 131.309,611.28 121.949,609.97 117.082,609.315 110.062,607.63 106.412,606.788 102.668,609.315 100.702,610.719 96.022,615.586 90.687,621.108 95.554,632.902 96.49,635.242 94.899,648.627 93.12,662.105 94.15,664.726 L97.426,672.682 Q101.076,682.697 102.574,693.274 M168.562,664.726 Q169.872,668.938 172.306,681.012 174.927,693.929 174.646,696.55" test="Avatar Man"/>
      <path id="Layer5_0_2_STROKES" stroke="#FF0" stroke-width="1.872" stroke-linejoin="round" stroke-linecap="round" fill="none" d="M365.496,235.944 Q364.56,241.186 366.432,245.024 368.398,249.048 372.048,249.048 373.546,249.048 375.605,247.925 377.945,246.615 378.6,244.836 M306.996,240.156 Q306.06,246.708 306.06,247.176 306.06,249.08 307.464,251.108 308.211,252.167 309.336,253.26 312.8,256.536 316.356,256.536 318.228,256.536 319.445,254.664 320.194,253.635 321.504,251.388" test="Avatar Man"/>
      <path id="Layer5_0_3_STROKES" stroke="#FFF" stroke-width="1.872" stroke-linejoin="round" stroke-linecap="round" fill="none" d="M398.256,286.956 Q404.528,289.484 404.808,293.696 404.827,293.961 404.855,294.257 404.85,294.328 404.855,294.398 L404.855,294.538 Q404.891,296.973 404.34,301.464 M389.832,303.804 Q396.001,302.333 399.754,297.814 401.012,296.301 402,294.444" test="Avatar Man"/>
      <path id="Layer5_0_4_STROKES" stroke="#F90" stroke-width="1.872" stroke-linejoin="round" stroke-linecap="round" fill="none" d="M326.278,560.83 Q328.244,560.643 345.372,567.663 366.713,574.589 388.99,574.402 410.424,574.215 429.332,568.786 445.244,564.2 446.554,564.574 452.357,566.072 456.944,576.368 462.747,589.191 459.658,605.758 455.82,626.631 445.992,641.981 434.48,659.859 417.538,665.194 L404.247,669.312 Q404.06,669.312 405.37,667.908 407.055,666.036 405.37,664.726 397.32,654.336 390.207,645.444 376.26,627.941 366.994,624.01 352.86,618.02 339.008,611 322.253,602.295 318.79,598.27 315.608,594.526 314.952,583.575 314.765,572.249 314.578,570.19 314.297,567.382 317.667,565.136 319.539,563.825 326.278,560.83Z" test="Avatar Man"/>
    </g>
    <g id="Avatar-Lady">
      <path fill="#000" stroke="none" d="M189.33,603.151 Q185.345,601.879 181.872,601.486 172.702,601.007 168.836,600.685 162.517,600.159 156.136,596.969 152.278,595.414 146.989,591.65 136.505,584.131 127.805,572.297 119.214,560.613 113.831,547.395 L111.756,548.362 Q110.696,555.395 105.181,571.458 101.043,583.678 99.776,593.037 99.536,594.78 99.399,596.424 99.117,599.819 98.505,616.29 96.543,639.865 92,648.211 90.635,653.806 87.46,659 85.457,664.675 84.892,671.464 84.577,675.246 85.034,680.022 L85.026,680.116 Q85.445,684.534 86.496,689.829 88.619,700.83 88.172,706.205 87.936,709.034 86.671,711.683 85.984,713.097 85.265,713.75 L86.742,715.392 Q86.605,717.545 85.933,721.686 85.905,721.895 85.902,722.064 84.98,727.785 83.129,737.12 L83.122,737.215 Q82.389,740.95 81.503,745.246 L85.15,748.208 Q88.419,744.439 96.433,736.993 107.646,726.627 110.53,722.784 L111.08,721.881 Q115.48,718.069 119.896,709.511 125.207,698.179 128.837,691.075 129.633,689.494 130.33,687.971 130.657,687.441 130.895,686.878 131.007,686.77 131.013,686.603 131.105,686.546 131.123,686.422 L131.123,686.422 Q138.326,672.26 142.917,663.381 152.439,644.803 157.593,636.496 159.973,632.619 163.086,628.693 164.329,627.102 165.632,625.486 L165.946,625.133 166.048,625.046 Q169.342,621.334 173.222,617.572 182.211,608.825 188.67,605.375 L189.33,603.151 M180.632,432.745 L181.118,418.922 180.646,418.883 Q170.085,418.004 163.806,418.146 151.146,418.516 140.797,421.928 130.825,425.37 121.286,431.603 117.678,433.929 114.135,436.515 114.13,436.56 114.033,436.601 113.78,436.82 113.428,437.026 108.152,441.122 103.103,445.852 94.46,453.868 90.28,463.015 86.108,472.068 84.192,482.544 L83.43,485.993 Q86.378,486.643 89.952,487.486 95.814,488.923 103.603,494.604 104.002,494.92 109.112,499.146 109.163,499.169 109.206,499.154 110.929,500.647 113.198,502.525 110.929,500.647 109.206,499.154 109.163,499.169 109.112,499.146 104.002,494.92 103.603,494.604 95.814,488.923 89.952,487.486 86.378,486.643 83.43,485.993 L79.368,498.284 Q81.252,498.872 83.25,499.557 98.401,504.616 104.46,504.836 98.401,504.616 83.25,499.557 81.252,498.872 79.368,498.284 79.184,498.217 78,498.158 66.407,494.112 59.329,493.767 L53.829,498.247 Q55.977,500.906 60.839,506.427 67.315,513.727 71.535,517.097 72.362,517.696 73.059,518.174 78.985,522.275 86.348,522.793 91.731,523.147 99.244,525.291 105.185,526.925 107.126,526.422 L112.933,528.52 110.113,536.166 113.76,547.105 Q113.828,547.273 113.831,547.395 119.214,560.613 127.805,572.297 136.505,584.131 146.989,591.65 152.278,595.414 156.136,596.969 162.517,600.159 168.836,600.685 172.702,601.007 181.872,601.486 185.345,601.879 189.33,603.151 L189.424,603.159 Q192.528,604.226 195.947,605.791 206.383,610.458 209.534,611.385 216.293,613.467 220.45,612.578 222.391,612.075 227.765,609.104 231.05,607.289 234.106,599.092 237.634,588.656 239.904,583.053 242.395,577.088 250.857,565.544 251.974,564.015 253.002,562.589 259.98,552.89 262.761,548.019 263.065,547.493 263.319,547.021 267.711,538.746 266.067,527.689 264.786,519.131 260.919,513.112 L255.472,503.259 Q254.83,503.6 254.003,503.801 247.819,505.09 248.627,498.796 L243.739,495.92 225.917,497.855 Q225.964,498.341 226.027,498.813 225.806,498.501 225.508,498.201 223.021,494.773 218.954,491.388 209.971,484.088 201.076,484.867 192.463,485.669 177.234,492.948 162.561,500.534 155.256,503.747 154.264,504.259 153.378,504.635 148.451,506.789 130.888,513.587 129.124,514.276 127.556,514.829 122.968,516.719 120.083,517.91 117.012,519.354 116.013,520.04 117.012,519.354 120.083,517.91 122.968,516.719 127.556,514.829 129.124,514.276 130.888,513.587 148.451,506.789 153.378,504.635 154.264,504.259 155.256,503.747 162.561,500.534 177.234,492.948 192.463,485.669 201.076,484.867 209.971,484.088 218.954,491.388 223.021,494.773 225.508,498.201 L225.917,497.855 Q225.887,497.617 225.862,497.375 225.407,493.558 225.217,489.156 224.831,478.963 226.575,475.121 227.973,472.009 236.169,469.368 243.501,466.844 243.202,464.731 242.345,459.057 234.879,449.51 L227.601,441.118 Q212.119,449.531 197.946,457.45 183.1,465.854 169.72,473.711 147.121,487.402 138.957,491.945 129.387,497.281 121.858,500.017 119.349,500.976 117.072,501.613 119.349,500.976 121.858,500.017 129.387,497.281 138.957,491.945 147.121,487.402 169.72,473.711 183.1,465.854 197.946,457.45 L192.656,447.989 Q191.902,446.787 187.186,440.697 182.039,434.097 180.632,432.745 M208.7,505.062 Q207.498,503.538 203.12,502.509 199.803,501.729 189.141,506.188 185.714,507.661 181.542,509.638 164.341,517.797 161.701,517.577 164.341,517.797 181.542,509.638 185.714,507.661 189.141,506.188 199.803,501.729 203.12,502.509 207.498,503.538 208.7,505.062 209.902,506.587 214.115,509.596 209.902,506.587 208.7,505.062 M201.385,519.931 Q203.955,517.581 204.096,515.884 204.135,515.412 201.974,512.858 204.135,515.412 204.096,515.884 203.955,517.581 201.385,519.931 198.604,522.548 196.246,522.352 189.362,521.779 189.77,516.875 189.833,516.121 189.951,515.845 190.281,515.303 191.994,512.977 190.281,515.303 189.951,515.845 189.833,516.121 189.77,516.875 189.362,521.779 196.246,522.352 198.604,522.548 201.385,519.931 M175.662,576.851 Q175.146,577.719 174.382,578.548 172.284,580.937 171.089,581.597 172.284,580.937 174.382,578.548 175.146,577.719 175.662,576.851 177.364,574.658 177.532,572.638 L177.343,570.344 177.532,572.638 Q177.364,574.658 175.662,576.851 M224.923,548.572 Q227.311,548.771 230.589,547.809 234.118,546.886 238.636,544.681 245.096,541.447 246.792,539.093 247.426,538.318 247.483,537.631 247.546,536.877 245.872,534.174 244.292,531.479 243.562,531.133 244.292,531.479 245.872,534.174 247.546,536.877 247.483,537.631 247.426,538.318 246.792,539.093 245.096,541.447 238.636,544.681 234.118,546.886 230.589,547.809 227.311,548.771 224.923,548.572 221.246,548.266 219.014,545.421 215.501,540.856 215.233,540.644 215.501,540.856 219.014,545.421 221.246,548.266 224.923,548.572 M246.047,554.888 Q246.11,554.134 245.08,552.814 246.11,554.134 246.047,554.888 245.945,556.114 245.387,557.112 244.829,558.11 243.816,558.881 241.694,560.413 238.959,560.185 237.922,560.099 235.824,559.07 233.82,558.048 232.578,556.996 233.82,558.048 235.824,559.07 237.922,560.099 238.959,560.185 241.694,560.413 243.816,558.881 244.829,558.11 245.387,557.112 245.945,556.114 246.047,554.888 M198.122,584.227 Q202.295,584.29 206.562,584.36 202.295,584.29 198.122,584.227 186.57,584.975 177.438,578.328 186.57,584.975 198.122,584.227 M146.922,461.274 Q143.001,455.915 136.336,452.701 129.767,449.495 123.661,449.842 129.767,449.495 136.336,452.701 143.001,455.915 146.922,461.274Z" test="Avatar Lady" stroke-width="1.893"/>
      <path id="Layer4_0_1_STROKES" stroke="#009EFF" stroke-width="1.893" stroke-linejoin="round" stroke-linecap="round" fill="none" d="M243.739,495.92 Q242.977,491.394 246.607,489.987 250.151,488.478 253.444,487.707 M226.21,436.159 Q226.564,435.334 226.603,434.863 226.681,433.92 224.072,427.625 220.983,420.247 220.527,418.88 218.861,413.803 213.965,412.161 208.818,411.258 207.096,410.26 207.356,411.706 206.971,416.327 L206.217,423.101 Q205.927,423.171 203.915,422.244 201.715,421.302 200.677,421.215 197,420.909 195.035,420.556 190.367,419.597 185.086,419.158 L181.118,418.922 M180.632,432.745 Q182.039,434.097 187.186,440.697 191.902,446.787 192.656,447.989 M207.096,410.26 Q207.101,410.166 207.01,410.158 L207.034,409.875 Q207.11,410.07 207.096,410.26Z M180.646,418.883 Q180.662,418.694 180.756,418.702 180.922,418.9 181.118,418.922 L180.646,418.883 Q170.085,418.004 163.806,418.146 151.146,418.516 140.797,421.928 130.825,425.37 121.286,431.603 117.678,433.929 114.183,436.519 114.13,436.56 114.08,436.605 113.78,436.82 113.475,437.03 108.152,441.122 103.103,445.852 94.46,453.868 90.28,463.015 86.108,472.068 84.192,482.544 M83.426,486.04 Q86.378,486.643 89.952,487.486 95.814,488.923 103.603,494.604 104.002,494.92 109.112,499.146 109.163,499.169 109.202,499.201 110.929,500.647 113.198,502.525 M214.115,509.596 Q209.902,506.587 208.7,505.062 207.498,503.538 203.12,502.509 199.803,501.729 189.137,506.235 185.714,507.661 181.542,509.638 164.341,517.797 161.701,517.577 M215.233,540.644 Q215.501,540.856 219.014,545.421 221.246,548.266 224.923,548.572 227.311,548.771 230.632,547.86 234.118,546.886 238.636,544.681 245.096,541.447 246.839,539.097 247.426,538.318 247.483,537.631 247.546,536.877 245.872,534.174 244.292,531.479 243.562,531.133 M260.919,513.112 Q264.786,519.131 266.067,527.689 267.711,538.746 263.319,547.021 263.065,547.493 262.761,548.019 259.98,552.89 253.002,562.589 251.974,564.015 250.857,565.544 242.395,577.088 239.904,583.053 237.634,588.656 234.106,599.092 231.05,607.289 227.765,609.104 222.391,612.075 220.45,612.578 216.293,613.467 209.534,611.385 206.383,610.458 195.947,605.791 192.528,604.226 189.42,603.206 L189.326,603.198 M188.67,605.375 Q182.211,608.825 173.222,617.572 169.342,621.334 166.095,625.05 L165.993,625.137 165.679,625.49 Q164.329,627.102 163.086,628.693 159.973,632.619 157.593,636.496 152.439,644.803 142.917,663.381 138.326,672.26 131.17,686.426 L131.119,686.469 Q131.105,686.546 131.06,686.607 131.007,686.77 130.939,686.929 130.657,687.441 130.377,687.974 129.633,689.494 128.837,691.075 125.207,698.179 119.896,709.511 115.48,718.069 111.08,721.881 M110.53,722.784 Q107.646,726.627 96.433,736.993 88.419,744.439 85.146,748.255 84.106,749.496 83.547,750.354 M232.578,556.996 Q233.82,558.048 235.824,559.07 237.922,560.099 238.959,560.185 241.694,560.413 243.816,558.881 244.829,558.11 245.387,557.112 245.945,556.114 246.047,554.888 246.11,554.134 245.08,552.814 M189.326,603.198 Q185.345,601.879 181.872,601.486 172.702,601.007 168.836,600.685 162.517,600.159 156.136,596.969 152.278,595.414 146.989,591.65 136.505,584.131 127.805,572.297 119.214,560.613 113.874,547.446 M111.756,548.362 Q110.696,555.395 105.181,571.458 101.043,583.678 99.776,593.037 99.536,594.78 99.399,596.424 99.117,599.819 98.505,616.29 96.543,639.865 92,648.211 90.635,653.806 87.46,659 85.457,664.675 84.892,671.464 84.577,675.246 85.03,680.069 L85.026,680.116 Q85.445,684.534 86.496,689.829 88.619,700.83 88.172,706.205 87.936,709.034 86.671,711.683 85.984,713.097 85.261,713.797 M86.742,715.392 Q86.605,717.545 85.93,721.734 85.905,721.895 85.902,722.064 84.98,727.785 83.125,737.167 L83.122,737.215 Q82.389,740.95 81.503,745.246 M158.246,638.925 L157.233,644.253 Q157.154,645.196 157.5,649.023 157.846,652.849 157.768,653.792 157.689,654.735 158.036,660.841 158.288,666.939 158.209,667.882 157.55,675.804 143.282,708.039 128.92,740.267 128.331,747.34 127.758,754.224 136.773,771.401 143.823,784.807 153.066,798.11 159.77,807.689 173.588,850.429 173.486,851.655 174.217,852 174.861,852.244 175.011,851.592 M90.434,786.25 Q92.682,787.766 103.944,800.763 115.968,814.867 115.74,817.602 115.458,820.997 137.227,840.09 158.996,859.184 158.682,862.956 158.588,864.088 158.973,864.025 159.358,863.962 159.342,864.151 L160.152,863.553 M146.922,461.274 Q143.001,455.915 136.336,452.701 129.767,449.495 123.661,449.842 M83.426,486.04 Q83.33,486.044 83.237,486.025 83.142,486.005 83.048,486.009 78.565,485.076 75.555,484.768 67.461,483.904 61.434,485.587 53.945,487.717 53.05,488.212 51.557,489.037 51.431,491.686 51.384,494.53 52.634,496.628 52.988,497.148 53.66,497.996 53.746,498.094 53.832,498.2 L53.876,498.251 M59.329,493.767 Q66.407,494.112 78,498.158 79.184,498.217 79.368,498.284 M53.876,498.251 Q55.977,500.906 60.839,506.427 67.315,513.727 71.582,517.101 72.362,517.696 73.059,518.174 78.985,522.275 86.348,522.793 91.731,523.147 99.244,525.291 105.185,526.925 107.126,526.422 M110.113,536.166 L113.76,547.105 Q113.828,547.273 113.874,547.446 M66.86,523.07 Q63.457,526.3 59.066,545.97 57.087,554.921 56.623,557.066 55.924,560.901 55.563,565.239 55.124,570.519 56.311,582.488 57.405,594.448 56.855,601.049 56.798,601.735 56.737,602.463 56.401,605.595 55.685,609.402 54.525,615.645 52.358,623.701 50.84,629.349 48.827,635.893 41.796,658.761 40.194,677.998 39.935,681.11 40.51,691.318 41.132,700.96 40.794,702.736 M79.368,498.284 Q81.252,498.872 83.25,499.557 98.401,504.616 104.46,504.836 M87.765,545.7 L87.757,548.073 Q87.577,550.242 85.675,555.971 83.766,561.794 83.169,566.682 82.431,572.128 81.662,581.369 81.576,582.407 81.678,585.739 81.773,589.165 81.671,590.391 81.665,590.459 81.659,590.532 81.431,593.066 80.398,597.691 79.275,603.2 78.309,604.544 77.373,605.51 75.543,608.112 74.258,609.856 73.59,611.035 72.922,612.214 72.871,612.827 M72.419,652.48 Q72.356,653.234 70.581,660.873 68.711,668.503 68.617,669.635 68.444,671.709 69.663,677.603 70.231,680.569 70.508,682.279 70.748,683.964 70.709,684.432 70.442,687.638 67.213,693.351 64.321,698.428 62.27,700.251 M56.737,602.463 Q51.307,602.676 44.573,608.287 38.338,613.427 36.221,619.651 35.608,621.467 35.341,623.376 34.462,629.38 24.597,691.988 15.133,753.204 14.489,759.797 14.12,764.23 12.824,771.813 12.644,772.928 12.506,773.923 L12.499,774.017 Q12.135,777.225 12.401,779.184 12.637,780.913 46.794,841.678 80.716,901.854 80.496,905.633 M33.989,619.085 Q24.552,622.953 15.177,626.065 1.803,630.459 -5.403,630.334 -20.326,629.377 -37.646,627.555 -72.184,623.825 -84.074,619.512 M85.261,713.797 Q84.589,714.453 83.882,714.394 M81.503,745.246 L81.5,745.293 Q81.084,747.433 80.608,749.729 78.064,761.994 74.473,778.369 73.68,782.196 82.224,801.613 92.779,825.376 94.847,832.479 108.933,881.129 107.654,902.197 M-88.244,733.489 Q-80.991,735.327 -63.34,743.443 -44.142,752.353 -33.902,759.377 -19.976,768.892 -16.228,770.629 -8.463,774.314 2.098,774.053 6.381,773.935 10.019,773.573" test="Avatar Lady"/>
      <path id="Layer4_0_2_STROKES" stroke="#FFBC00" stroke-width="1.893" stroke-linejoin="round" stroke-linecap="round" fill="none" d="M197.993,457.454 Q212.119,449.531 227.601,441.118 L234.879,449.51 Q242.345,459.057 243.202,464.731 243.501,466.844 236.169,469.368 227.973,472.009 226.575,475.121 224.831,478.963 225.217,489.156 225.407,493.558 225.862,497.375 225.887,497.617 225.917,497.855 M117.072,501.613 Q119.349,500.976 121.854,500.064 129.387,497.281 138.957,491.945 147.121,487.402 169.72,473.711 183.1,465.854 197.993,457.454 M225.555,498.204 Q225.806,498.501 226.027,498.813 225.964,498.341 225.917,497.855 M225.555,498.204 Q223.021,494.773 218.954,491.388 209.971,484.088 201.076,484.867 192.463,485.669 177.234,492.948 162.561,500.534 155.299,503.798 154.264,504.259 153.378,504.635 148.451,506.789 130.888,513.587 129.124,514.276 127.552,514.876 122.968,516.719 120.127,517.962 117.012,519.354 116.013,520.04" test="Avatar Lady"/>
      <path id="Layer4_0_3_STROKES" stroke="#FF0" stroke-width="1.893" stroke-linejoin="round" stroke-linecap="round" fill="none" d="M248.627,498.796 Q247.819,505.09 254.003,503.801 254.83,503.6 255.519,503.263 257.936,502.02 258.49,498.952 259.039,495.769 255.998,494.662 M191.994,512.977 Q190.281,515.303 189.951,515.845 189.833,516.121 189.77,516.875 189.362,521.779 196.246,522.352 198.604,522.548 201.385,519.931 203.955,517.581 204.096,515.884 204.135,515.412 201.974,512.858" test="Avatar Lady"/>
      <path id="Layer4_0_4_STROKES" stroke="#FFF" stroke-width="1.893" stroke-linejoin="round" stroke-linecap="round" fill="none" d="M177.343,570.344 L177.532,572.638 Q177.364,574.658 175.705,576.902 175.146,577.719 174.382,578.548 172.284,580.937 171.089,581.597 M177.438,578.328 Q186.57,584.975 198.122,584.227 202.295,584.29 206.562,584.36" test="Avatar Lady"/>
    </g>
    <g id="Censoredf0r1">
      <path fill="#000" stroke="none" d="M-18.85,403.35 L-18.85,629.9 829.1,629.9 829.1,403.35 -18.85,403.35Z" test="Censored"/>
      <path id="Layer2_0_1_STROKES" stroke="#F00" stroke-width="1" stroke-linejoin="round" stroke-linecap="round" fill="none" d="M440.05,433.95 Q451.45,433.7 458.4,442.45 467.15,453.5 468.45,478.35 469.85,504.55 462.7,519.75 456.1,533.8 444.2,534.55 432.35,535.35 426.85,525.8 420.75,515.3 419.8,488.15 418.8,461.5 424.1,448.25 428.75,436.6 438.75,434.25 M495.6,540.1 Q496.6,530.75 496.9,517.65 497.2,502.55 496.25,489.8 496.1,487.9 494.45,475.35 493.3,466.4 490.7,448.25 489,434.25 490.35,432.65 491.55,431.25 495.9,430.8 500.65,430.2 505.5,431.3 518.75,434.35 520.4,446.7 522.1,459.55 514.25,468.5 507.95,475.7 498.4,478.15 503.3,481.95 507.4,487.15 509.05,489.15 511.9,493.4 515.55,498.8 519.6,507.2 527.8,523.85 530,538.55 M571.35,432.65 Q570.6,432.65 561.5,433.35 554.45,433.85 553.1,433.3 551.6,432.65 553.4,483.6 553.45,484.9 553.55,486.15 555.9,485.8 562.05,485.75 568.9,485.7 569.75,485.55 M576.25,536.2 Q574.4,536.65 565.05,535.95 555.95,535.2 555.7,534.9 555.25,534.3 553.55,486.15 553.25,486.15 553.1,486.2 M604.7,431.3 Q618.7,430 628.4,436.15 644.15,446.1 645.2,473.8 646.25,502.4 642.45,513.4 640.25,519.95 633.1,524.1 628.35,526.9 618.55,528.8 610.8,530.3 606.65,530.3 604.3,530.3 604.1,480.45 603.85,429.95 604.7,431.3Z M184.5,451.6 Q183.2,445.85 177.55,440.35 171.75,434.7 166.2,434.25 158.55,433.6 151.55,437.15 141.9,442.05 136.2,454.2 129.55,468.45 127.75,482.8 125.85,498.1 129.9,511.35 132.45,519.85 135.75,524.45 140.25,530.65 146.6,530.65 153.75,530.65 160.75,526.7 167.95,522.75 170.85,516.9 M245.95,432.3 Q246.45,433.4 229.65,434.45 212.85,435.5 212.85,435.2 212.8,434.8 212.85,482.95 213.9,483.4 230.8,482.6 247.75,481.85 248.25,481 M277.65,536.55 Q277.8,536.7 277,484.45 276.2,432.15 276.35,432.3 276.6,432.65 327,528.05 323.8,429.05 322.4,429.7 M393.3,453.2 Q391.25,446.4 386,440.35 379.85,433.15 373.45,433.1 367,433 361.25,439.3 355.5,445.55 356.05,452.3 356.35,455.55 357.2,457.8 360.1,463.35 364.75,467.85 365.75,468.75 366.65,469.9 368.9,472.7 371.6,476.35 387.7,497.65 388.75,507.75 390,519.95 383.9,526.65 379.05,531.95 373.4,531.6 364.85,531.1 360.6,528.1 351.95,521.95 352.15,505.15 M212.85,482.95 Q212.65,483 212.5,507.4 212.4,531.7 212.25,533.25 212.1,534.85 229.65,535.1 247.15,535.35 248.25,533.25" test="Censored"/>
      <path id="Layer1_0_1_STROKES" stroke="#F00" stroke-width="1" stroke-linejoin="round" stroke-linecap="round" fill="none" d="M65.35,401.7 L732,401.7 732,561.5 65.35,561.5 65.35,401.7Z" test="Censored"/>
    </g>
  </g>
</svg>