<?xml version="1.0" encoding="utf-8"?>
<svg id="EdithAnim13" image-rendering="inherit" baseProfile="basic" version="1.1" x="0px" y="0px" width="800" height="600" xmlns="http://www.w3.org/2000/svg" xmlns:xlink="http://www.w3.org/1999/xlink">
  <g id="22_Avatarf177r1" overflow="visible">
    <g id="Avatar-Manf0r1">
      <g id="Tailf0r1">
        <path id="Layer6_0_1_STROKES" stroke="#009EFF" stroke-width="2.576" stroke-linejoin="round" stroke-linecap="round" fill="none" d="M499.63,672.744 Q498.324,653.822 497.601,634.888 496.954,616.529 490.985,599.191 484.424,580.307 466.156,571.721 443.957,561.375 440.75,584.525 440.282,587.898 442.487,590.857 447.703,597.967 455.117,602.518 462.865,599.686 468.694,605.029 475.711,611.514 478.802,621.241 486.025,644.195 491.779,667.341 493.406,673.818 492.317,680.389" test="Tail_2.3242325232423263e+312.3242325232423263e+31_2.3242325232423263e+312.3242325232423263e+31_2.3242325232423263e+312.3242325232423263e+31_2.3242325232423263e+312.3242325232423263e+31_2.3242325232423263e+312.3242325232423263e+31_2.3242325232423263e+312.3242325232423263e+31_2.3242325232423263e+312.3242325232423263e+31_2.3242325232423263e+312.3242325232423263e+31_2.3242325232423263e+312.3242325232423263e+31_2.3242325232423263e+312.3242325232423263e+31_2.3242325232423263e+312.3242325232423263e+31_2.3242325232423263e+312.3242325232423263e+31_2.3242325232423263e+312.3242325232423263e+31_2.3242325232423263e+312.3242325232423263e+31_2.3242325232423263e+312.3242325232423263e+31_2.3242325232423263e+312.3242325232423263e+31_2.3242325232423263e+312.3242325232423263e+31_2.3242325232423263e+312.3242325232423263e+31_2.3242325232423263e+312.3242325232423263e+31_2.3242325232423263e+312.3242325232423263e+31_2.3242325232423263e+312.3242325232423263e+31_2.3242325232423263e+312.3242325232423263e+31_2.3242325232423263e+312.3242325232423263e+31_2.3242325232423263e+312.3242325232423263e+31_2.3242325232423263e+312.3242325232423263e+31_22"/>
      </g>
      <path fill="#000" stroke="none" d="M456.694,576.418 Q452.107,566.122 446.304,564.624 444.994,564.25 429.082,568.836 410.174,574.265 388.74,574.452 366.463,574.639 345.122,567.713 327.994,560.693 326.028,560.88 319.289,563.875 317.417,565.186 314.047,567.432 314.328,570.24 314.515,572.299 314.702,583.625 315.358,594.576 318.54,598.32 322.003,602.345 338.758,611.05 352.61,618.07 366.744,624.06 376.01,627.991 389.957,645.494 397.07,654.386 405.12,664.776 406.805,666.086 405.12,667.958 403.81,669.362 403.997,669.362 L417.288,665.244 Q434.23,659.909 445.742,642.031 455.57,626.681 459.408,605.808 462.497,589.241 456.694,576.418 M462.684,186.948 L459.314,185.544 Q459.266,185.662 459.221,185.731 458.206,188.322 457.536,190.692 455.758,197.057 452.95,206.791 452.886,206.962 452.762,207.072 450.198,213.886 444.9,216.9 433.762,223.265 427.584,226.26 L431.796,235.62 Q431.328,242.453 433.481,288.223 433.559,289.912 433.574,291.499 435.321,327.264 435.54,338.112 435.538,338.183 435.54,338.206 435.572,340.714 435.54,341.856 435.166,356.551 437.88,379.764 438.254,383.04 443.402,380.326 448.55,377.518 448.176,375.552 447.989,374.148 450.142,374.897 451.92,375.552 452.388,376.02 452.482,376.114 459.408,352.152 L465.024,361.512 Q465.118,361.606 468.3,340.92 L473.916,343.26 Q474.025,343.37 473.261,333.432 473.302,333.41 473.261,333.338 472.194,318.059 469.142,279.238 467.291,255.516 465.866,239.926 464.103,219.086 463.152,212.782 462.886,210.943 462.684,210.348 462.886,210.943 463.152,212.782 464.103,219.086 465.866,239.926 L467.364,239.832 Q469.236,239.645 474.758,234.122 479.626,229.442 483.276,230.94 486.552,232.344 506.208,260.798 528.859,289.627 547.392,294.12 530.731,294.682 506.021,313.682 498.346,319.579 490.764,326.693 L489.641,327.722 Q490.974,341.95 495.35,390.622 L496.38,390.528 Q501.247,387.814 535.318,361.044 568.171,335.117 578.748,325.944 586.61,319.111 593.069,308.347 596.345,302.825 600.276,295.992 602.148,293.839 606.173,290.844 609.449,287.849 609.636,282.888 609.823,278.021 574.255,255.089 534.85,230.566 527.268,224.856 504.991,208.102 494.602,201.362 482.224,193.247 473.822,189.662 466.842,186.692 462.684,186.948 M396.134,181.238 Q398.942,180.77 401.563,180.302 405.775,180.302 405.494,185.45 413.544,184.514 416.726,185.45 420.096,186.48 420.002,190.13 L425.244,192.564 Q428.924,185.409 437.88,179.46 443.028,175.997 447.427,174.874 447.496,174.859 447.521,174.78 L446.304,167.292 Q447.708,167.198 444.994,163.922 440.033,158.213 436.008,153.252 430.579,146.513 411.672,140.429 395.105,135.094 385.932,135 356.542,134.719 336.324,142.956 323.782,148.104 312.55,163.642 310.397,166.586 308.618,169.258 303.6,177.214 302.066,183.204 L302.066,185.45 Q302.254,185.45 303.096,185.731 304.032,185.918 304.687,185.918 308.057,185.918 311.426,183.204 315.264,180.022 318.914,179.366 L318.914,181.706 323.126,181.706 Q325.934,181.145 331.27,179.554 335.388,178.243 336.23,178.43 L336.23,180.77 Q337.166,180.77 340.91,181.238 347.088,181.238 353.078,177.962 L357.758,177.962 357.758,179.834 365.246,179.834 Q377.602,176.09 378.35,176.09 379.567,176.09 380.69,176.933 382.001,177.869 384.434,177.962 384.434,180.302 383.966,181.238 L396.134,181.238Z" test="Avatar Man" stroke-width="1.872"/>
      <path id="Layer5_0_1_STROKES" stroke="#009EFF" stroke-width="1.872" stroke-linejoin="round" stroke-linecap="round" fill="none" d="M420.002,190.13 Q420.096,186.48 416.726,185.45 413.544,184.514 405.494,185.45 405.775,180.302 401.563,180.302 398.942,180.77 396.134,181.238 L383.966,181.238 Q384.434,180.302 384.434,177.962 382.001,177.869 380.69,176.933 379.567,176.09 378.35,176.09 377.602,176.09 365.246,179.834 L357.758,179.834 357.758,177.962 353.078,177.962 Q347.088,181.238 340.91,181.238 337.166,180.77 336.23,180.77 L336.23,178.43 Q335.388,178.243 331.27,179.554 325.934,181.145 323.126,181.706 L318.914,181.706 318.914,179.366 Q315.264,180.022 311.426,183.204 308.057,185.918 304.687,185.918 304.032,185.918 303.096,185.731 302.254,185.45 302.066,185.45 L302.066,183.204 Q303.6,177.214 308.665,169.304 310.397,166.586 312.55,163.642 323.782,148.104 336.324,142.956 356.542,134.719 385.932,135 395.105,135.094 411.672,140.429 430.579,146.513 436.008,153.252 440.033,158.213 444.994,163.922 447.708,167.198 446.304,167.292 M447.568,174.827 Q447.637,174.834 447.708,174.827 450.538,174.202 456.6,173.844 460,173.657 463.714,171.878 465.211,170.942 467.364,169.164 468.206,168.696 464.743,174.686 463.152,177.401 461.842,180.022 461.04,181.596 460.391,183.11 460.235,183.423 460.11,183.719 459.837,184.303 459.595,184.889 459.449,185.218 459.314,185.544 M462.684,186.948 Q466.842,186.692 473.869,189.709 482.224,193.247 494.602,201.362 504.991,208.102 527.268,224.856 534.85,230.566 574.255,255.089 609.823,278.021 609.636,282.888 609.449,287.849 606.173,290.844 602.148,293.839 600.276,295.992 596.345,302.825 593.069,308.347 586.61,319.111 578.748,325.944 568.171,335.117 535.318,361.044 501.247,387.814 496.38,390.528 495.895,390.844 495.444,391.136 489.996,394.671 487.582,396.05 483.276,398.578 479.532,398.016 M461.842,180.022 Q460.383,181.62 459.174,182.549 457.952,183.44 456.974,183.672 453.418,183.953 449.112,184.608 443.59,185.45 440.594,187.51 436.57,190.973 432.732,193.968 427.958,197.712 424.963,199.49 L422.904,200.52 Q423.355,196.39 425.291,192.611 M419.066,190.13 L420.002,190.13 M425.291,192.611 Q428.924,185.409 437.88,179.46 443.028,175.997 447.427,174.874 447.496,174.859 447.568,174.827 M459.314,185.544 Q459.266,185.662 459.221,185.778 458.206,188.322 457.536,190.692 455.758,197.057 452.95,206.791 452.886,206.962 452.809,207.119 450.198,213.886 444.9,216.9 433.762,223.265 427.584,226.26 M431.796,235.62 Q431.328,242.453 433.481,288.223 433.559,289.912 433.621,291.546 435.321,327.264 435.54,338.112 435.538,338.183 435.54,338.252 435.572,340.714 435.54,341.856 435.166,356.551 437.88,379.764 438.254,383.04 443.402,380.326 448.55,377.518 448.176,375.552 447.989,374.148 450.142,374.897 451.92,375.552 452.388,376.02 452.482,376.114 459.408,352.152 L465.024,361.512 Q465.118,361.606 468.3,340.92 L473.916,343.26 Q474.025,343.37 473.308,333.479 473.302,333.41 473.308,333.338 472.194,318.059 469.142,279.238 467.291,255.516 465.913,239.926 464.103,219.086 463.152,212.782 462.886,210.943 462.684,210.348 M489.641,327.769 L490.764,326.693 Q498.346,319.579 506.021,313.682 530.731,294.682 547.392,294.12 528.859,289.627 506.208,260.798 486.552,232.344 483.276,230.94 479.626,229.442 474.758,234.122 469.236,239.645 467.364,239.832 M362.064,232.344 Q363.155,232.52 365.434,232.625 368.032,232.718 372.173,232.718 379.474,232.625 382.656,232.344 388.553,231.782 389.302,231.595 393.046,230.566 393.42,227.664 M416.82,307.224 Q417.756,313.308 419.909,322.106 422.53,332.683 424.776,338.112 M312.456,304.416 Q312.456,304.51 312.83,314.057 313.111,320.89 315.732,325.476 316.574,326.947 317.838,328.378 321.672,332.659 329.398,336.521 340.068,341.95 350.364,342.324 L354.155,342.605 354.295,342.605 Q364.217,342.979 367.212,342.792 372.36,342.418 378.444,340.452 382.937,339.048 395.011,328.19 403.592,320.395 412.702,310.874 412.82,310.76 412.936,310.64 413.007,310.573 413.076,310.5 413.171,310.41 413.263,310.313 414.701,308.787 416.165,307.224 416.26,307.123 416.352,307.037 416.389,306.983 416.446,306.943 416.461,306.889 416.492,306.85 427.513,295.099 428.988,291.78 M354.108,343.26 Q353.266,347.285 351.674,356.458 350.083,364.414 347.556,368.532 M484.68,332.496 L489.641,327.769 M474.384,406.908 Q474.29,407.095 464.837,431.712 458.098,449.215 455.664,459.324 452.669,471.586 450.048,508.09 447.427,543.658 448.644,551.52 M394.73,455.018 Q395.292,457.078 397.164,457.639 397.726,457.826 399.223,457.826 401.657,457.826 402.593,456.703 402.967,456.329 404.465,452.866 M357.29,441.446 Q357.103,458.482 358.32,461.102 360.286,465.782 371.33,465.782 376.666,465.782 377.134,465.689 377.695,465.595 379.754,464.378 M358.694,499.01 Q357.758,501.818 357.758,504.907 357.758,510.055 361.877,510.336 364.591,510.43 373.202,510.242 M355.418,537.854 Q360.192,541.13 363.281,541.879 365.527,542.347 369.458,541.598 M403.248,669.924 Q396.228,673.2 377.414,676.757 358.414,680.314 338.196,682.092 320.693,683.683 279.509,682.841 248.434,682.279 230.556,681.156 216.797,680.314 188.904,677.412 181.978,676.663 176.83,677.786 173.179,678.629 172.056,677.88 M306.84,168.228 Q303.283,166.075 299.071,163.829 290.647,159.43 288.12,159.804 285.406,160.178 287.652,173.563 289.524,184.982 291.396,189.756 M296.076,202.392 Q296.825,205.481 298.79,211.658 299.914,216.619 297.012,218.772 293.438,221.436 290.039,223.92 L289.992,223.967 Q238.922,261.888 232.428,264.168 226.718,265.853 225.314,266.321 223.349,267.07 223.068,268.848 222.6,272.498 222.413,285.041 222.132,299.455 223.068,302.544 226.25,315.274 250.774,351.497 274.829,386.971 289.056,400.824 M297.948,234.684 Q300.85,236.182 306.653,236.93 306.889,236.966 307.121,236.977 312.598,237.762 318.072,237.492 321.535,237.305 329.585,235.994 336.137,234.871 338.196,235.152 M297.48,259.02 Q296.357,260.892 284.282,272.966 273.331,283.918 270.336,286.632 M320.318,280.922 Q324.53,280.922 329.21,279.986 L347.462,279.986 Q341.846,285.977 338.664,289.159 332.767,294.962 331.363,294.962 328.836,294.962 325.092,289.721 321.254,283.73 319.85,282.326 M260.04,281.484 Q261.646,285.365 265.094,290.282 265.132,290.337 265.188,290.376 273.769,302.683 293.736,321.451 303.012,330.162 309.835,336.802 325.626,352.118 328.368,356.364 M297.012,427.032 Q296.357,441.914 299.352,449.028 301.224,453.334 306.934,458.201 312.83,462.974 318.072,464.472 M312.924,472.896 Q313.018,475.798 312.55,487.778 312.362,499.01 313.86,501.912 315.638,505.375 320.038,508.277 324.343,511.085 326.964,510.804 M319.476,514.548 Q319.57,517.637 319.57,522.41 319.757,525.967 321.348,528.12 321.535,528.401 326.59,531.864 329.959,534.204 329.772,538.416 329.585,541.598 327.619,549.461 325.934,556.013 326.496,558.072 M303.564,571.644 Q281.662,567.619 255.173,563.501 202.289,555.358 180.106,555.358 165.317,555.358 148.469,552.269 135.178,549.835 132.37,550.678 127.502,552.175 122.916,559.85 118.33,567.619 118.704,573.984 118.985,578.29 120.482,589.709 121.699,599.911 120.576,603.936 M303.096,598.788 Q294.485,600.192 254.798,601.034 211.742,601.97 204.816,602.532 197.141,603.187 172.711,607.118 150.528,610.675 141.636,610.956 131.059,611.33 121.699,610.02 116.832,609.365 109.812,607.68 106.162,606.838 102.418,609.365 100.452,610.769 95.772,615.636 90.437,621.158 95.304,632.952 96.24,635.292 94.649,648.677 92.87,662.155 93.9,664.776 L97.176,672.732 Q100.826,682.747 102.324,693.324 M168.312,664.776 Q169.622,668.988 172.056,681.062 174.677,693.979 174.396,696.6" test="Avatar Man"/>
      <path id="Layer5_0_2_STROKES" stroke="#FF0" stroke-width="1.872" stroke-linejoin="round" stroke-linecap="round" fill="none" d="M365.246,235.994 Q364.31,241.236 366.182,245.074 368.148,249.098 371.798,249.098 373.296,249.098 375.355,247.975 377.695,246.665 378.35,244.886 M306.746,240.206 Q305.81,246.758 305.81,247.226 305.81,249.13 307.214,251.158 307.961,252.217 309.086,253.31 312.55,256.586 316.106,256.586 317.978,256.586 319.195,254.714 319.944,253.685 321.254,251.438" test="Avatar Man"/>
      <path id="Layer5_0_3_STROKES" stroke="#FFF" stroke-width="1.872" stroke-linejoin="round" stroke-linecap="round" fill="none" d="M398.006,287.006 Q404.278,289.534 404.558,293.746 404.577,294.011 404.605,294.307 404.6,294.378 404.605,294.448 L404.605,294.588 Q404.641,297.023 404.09,301.514 M389.582,303.854 Q395.751,302.383 399.504,297.864 400.762,296.351 401.75,294.494" test="Avatar Man"/>
      <path id="Layer5_0_4_STROKES" stroke="#F90" stroke-width="1.872" stroke-linejoin="round" stroke-linecap="round" fill="none" d="M326.028,560.88 Q327.994,560.693 345.122,567.713 366.463,574.639 388.74,574.452 410.174,574.265 429.082,568.836 444.994,564.25 446.304,564.624 452.107,566.122 456.694,576.418 462.497,589.241 459.408,605.808 455.57,626.681 445.742,642.031 434.23,659.909 417.288,665.244 L403.997,669.362 Q403.81,669.362 405.12,667.958 406.805,666.086 405.12,664.776 397.07,654.386 389.957,645.494 376.01,627.991 366.744,624.06 352.61,618.07 338.758,611.05 322.003,602.345 318.54,598.32 315.358,594.576 314.702,583.625 314.515,572.299 314.328,570.24 314.047,567.432 317.417,565.186 319.289,563.875 326.028,560.88Z" test="Avatar Man"/>
    </g>
    <g id="Avatar-Lady">
      <path fill="#000" stroke="none" d="M189.23,603.351 Q185.245,602.079 181.772,601.686 172.602,601.207 168.736,600.885 162.417,600.359 156.036,597.169 152.178,595.614 146.889,591.85 136.405,584.331 127.705,572.497 119.114,560.813 113.731,547.595 L111.656,548.562 Q110.596,555.595 105.081,571.658 100.943,583.878 99.676,593.237 99.436,594.98 99.299,596.624 99.017,600.019 98.405,616.49 96.443,640.065 92.899,648.411 90.535,654.006 87.36,660.199 85.357,664.875 84.792,671.664 84.477,675.446 84.934,680.222 L84.926,680.316 Q85.345,684.734 86.396,690.029 88.519,701.03 88.072,706.405 87.836,709.234 86.571,711.883 85.884,713.297 85.165,713.95 L86.642,715.592 Q86.505,717.745 85.833,721.886 85.805,722.095 85.802,722.264 84.88,727.985 83.029,737.32 L83.022,737.415 Q82.289,741.15 81.403,745.446 L85.05,748.408 Q88.319,744.639 96.333,737.193 107.546,726.827 110.43,722.984 L110.98,722.081 Q115.38,718.269 119.796,709.711 125.107,698.379 128.737,691.275 129.533,689.694 130.23,688.171 130.557,687.641 130.795,687.078 130.907,686.97 130.913,686.803 131.005,686.746 131.023,686.622 L131.023,686.622 Q138.226,672.46 142.817,663.581 152.339,645.003 157.493,636.696 159.873,632.819 162.986,628.893 164.229,627.302 165.532,625.686 L165.846,625.333 165.948,625.246 Q169.242,621.534 173.122,617.772 182.111,609.025 188.57,605.575 L189.23,603.351 M180.532,432.945 L181.018,419.122 180.546,419.083 Q169.985,418.204 163.706,418.346 151.046,418.716 140.697,422.128 130.725,425.57 121.186,431.803 117.578,434.129 114.035,436.715 114.03,436.76 113.933,436.801 113.68,437.02 113.328,437.226 108.052,441.322 103.003,446.052 94.36,454.068 90.18,463.215 86.008,472.268 84.092,482.744 L83.33,486.193 Q86.278,486.843 89.852,487.686 95.714,489.123 103.503,494.804 103.902,495.12 109.012,499.346 109.063,499.369 109.106,499.354 110.829,500.847 113.098,502.725 110.829,500.847 109.106,499.354 109.063,499.369 109.012,499.346 103.902,495.12 103.503,494.804 95.714,489.123 89.852,487.686 86.278,486.843 83.33,486.193 L79.268,498.484 Q81.152,499.072 83.15,499.757 98.301,504.816 104.36,505.036 98.301,504.816 83.15,499.757 81.152,499.072 79.268,498.484 79.084,498.417 78.899,498.358 66.307,494.312 59.229,493.967 L53.729,498.447 Q55.877,501.106 60.739,506.627 67.215,513.927 71.435,517.297 72.262,517.896 72.959,518.374 78.885,522.475 86.248,522.993 91.631,523.347 99.144,525.491 105.085,527.125 107.026,526.622 L112.833,528.72 110.013,536.366 113.66,547.305 Q113.728,547.473 113.731,547.595 119.114,560.813 127.705,572.497 136.405,584.331 146.889,591.85 152.178,595.614 156.036,597.169 162.417,600.359 168.736,600.885 172.602,601.207 181.772,601.686 185.245,602.079 189.23,603.351 L189.324,603.359 Q192.428,604.426 195.847,605.991 206.283,610.658 209.434,611.585 216.193,613.667 220.35,612.778 222.291,612.275 227.665,609.304 230.95,607.489 234.006,599.292 237.534,588.856 239.804,583.253 242.295,577.288 250.757,565.744 251.874,564.215 252.902,562.789 259.88,553.09 262.661,548.219 262.965,547.693 263.219,547.221 267.611,538.946 265.967,527.889 264.686,519.332 260.819,513.312 L255.372,503.459 Q254.73,503.8 253.903,504.001 247.719,505.29 248.527,498.996 L243.639,496.12 225.817,498.055 Q225.864,498.541 225.927,499.013 225.706,498.701 225.408,498.401 222.921,494.973 218.854,491.588 209.871,484.288 200.976,485.067 192.363,485.869 177.134,493.148 162.461,500.734 155.156,503.947 154.164,504.459 153.278,504.835 148.351,506.989 130.788,513.787 129.024,514.476 127.456,515.029 122.868,516.919 119.983,518.11 116.912,519.554 115.913,520.24 116.912,519.554 119.983,518.11 122.868,516.919 127.456,515.029 129.024,514.476 130.788,513.787 148.351,506.989 153.278,504.835 154.164,504.459 155.156,503.947 162.461,500.734 177.134,493.148 192.363,485.869 200.976,485.067 209.871,484.288 218.854,491.588 222.921,494.973 225.408,498.401 L225.817,498.055 Q225.787,497.817 225.762,497.575 225.307,493.758 225.117,489.356 224.731,479.164 226.475,475.321 227.873,472.209 236.069,469.568 243.401,467.044 243.102,464.931 242.245,459.257 234.779,449.71 L227.501,441.318 Q212.019,449.731 197.846,457.65 183,466.054 169.62,473.911 147.021,487.602 138.857,492.145 129.287,497.481 121.758,500.217 119.249,501.176 116.972,501.813 119.249,501.176 121.758,500.217 129.287,497.481 138.857,492.145 147.021,487.602 169.62,473.911 183,466.054 197.846,457.65 L192.556,448.189 Q191.802,446.987 187.086,440.897 181.939,434.297 180.532,432.945 M208.6,505.262 Q207.398,503.738 203.02,502.709 199.703,501.929 189.041,506.388 185.614,507.861 181.442,509.838 164.241,517.997 161.601,517.777 164.241,517.997 181.442,509.838 185.614,507.861 189.041,506.388 199.703,501.929 203.02,502.709 207.398,503.738 208.6,505.262 209.802,506.787 214.015,509.796 209.802,506.787 208.6,505.262 M201.285,520.131 Q203.855,517.781 203.996,516.084 204.035,515.612 201.874,513.058 204.035,515.612 203.996,516.084 203.855,517.781 201.285,520.131 198.504,522.748 196.146,522.552 189.262,521.979 189.67,517.075 189.733,516.321 189.851,516.045 190.181,515.503 191.894,513.177 190.181,515.503 189.851,516.045 189.733,516.321 189.67,517.075 189.262,521.979 196.146,522.552 198.504,522.748 201.285,520.131 M175.562,577.051 Q175.046,577.919 174.282,578.748 172.184,581.137 170.989,581.797 172.184,581.137 174.282,578.748 175.046,577.919 175.562,577.051 177.264,574.858 177.432,572.838 L177.243,570.544 177.432,572.838 Q177.264,574.858 175.562,577.051 M224.823,548.772 Q227.211,548.971 230.489,548.009 234.018,547.086 238.536,544.881 244.996,541.647 246.692,539.293 247.326,538.518 247.383,537.831 247.446,537.077 245.772,534.374 244.192,531.679 243.462,531.333 244.192,531.679 245.772,534.374 247.446,537.077 247.383,537.831 247.326,538.518 246.692,539.293 244.996,541.647 238.536,544.881 234.018,547.086 230.489,548.009 227.211,548.971 224.823,548.772 221.146,548.466 218.914,545.621 215.401,541.056 215.133,540.844 215.401,541.056 218.914,545.621 221.146,548.466 224.823,548.772 M245.947,555.088 Q246.01,554.334 244.98,553.014 246.01,554.334 245.947,555.088 245.845,556.314 245.287,557.312 244.729,558.31 243.716,559.081 241.594,560.613 238.859,560.385 237.822,560.299 235.724,559.27 233.72,558.248 232.478,557.196 233.72,558.248 235.724,559.27 237.822,560.299 238.859,560.385 241.594,560.613 243.716,559.081 244.729,558.31 245.287,557.312 245.845,556.314 245.947,555.088 M198.022,584.427 Q202.195,584.49 206.462,584.56 202.195,584.49 198.022,584.427 186.47,585.175 177.338,578.528 186.47,585.175 198.022,584.427 M146.822,461.474 Q142.901,456.115 136.236,452.901 129.667,449.695 123.561,450.042 129.667,449.695 136.236,452.901 142.901,456.115 146.822,461.474Z" test="Avatar Lady" stroke-width="1.893"/>
      <path id="Layer4_0_1_STROKES" stroke="#009EFF" stroke-width="1.893" stroke-linejoin="round" stroke-linecap="round" fill="none" d="M243.639,496.12 Q242.877,491.594 246.507,490.187 250.051,488.678 253.344,487.907 M226.11,436.359 Q226.464,435.534 226.503,435.063 226.581,434.12 223.972,427.825 220.883,420.447 220.427,419.08 218.761,414.003 213.865,412.361 208.718,411.458 206.996,410.46 207.256,411.906 206.871,416.527 L206.117,423.301 Q205.827,423.371 203.815,422.444 201.615,421.502 200.577,421.415 196.9,421.109 194.935,420.756 190.267,419.797 184.986,419.358 L181.018,419.122 M180.532,432.945 Q181.939,434.297 187.086,440.897 191.802,446.987 192.556,448.189 M206.996,410.46 Q207.001,410.366 206.91,410.358 L206.934,410.075 Q207.01,410.27 206.996,410.46Z M180.546,419.083 Q180.562,418.894 180.656,418.902 180.822,419.1 181.018,419.122 L180.546,419.083 Q169.985,418.204 163.706,418.346 151.046,418.716 140.697,422.128 130.725,425.57 121.186,431.803 117.578,434.129 114.083,436.719 114.03,436.76 113.98,436.805 113.68,437.02 113.375,437.23 108.052,441.322 103.003,446.052 94.36,454.068 90.18,463.215 86.008,472.268 84.092,482.744 M83.326,486.241 Q86.278,486.843 89.852,487.686 95.714,489.123 103.503,494.804 103.902,495.12 109.012,499.346 109.063,499.369 109.102,499.401 110.829,500.847 113.098,502.725 M214.015,509.796 Q209.802,506.787 208.6,505.262 207.398,503.738 203.02,502.709 199.703,501.929 189.037,506.435 185.614,507.861 181.442,509.838 164.241,517.997 161.601,517.777 M215.133,540.844 Q215.401,541.056 218.914,545.621 221.146,548.466 224.823,548.772 227.211,548.971 230.532,548.06 234.018,547.086 238.536,544.881 244.996,541.647 246.739,539.297 247.326,538.518 247.383,537.831 247.446,537.077 245.772,534.374 244.192,531.679 243.462,531.333 M260.819,513.312 Q264.686,519.332 265.967,527.889 267.611,538.946 263.219,547.221 262.965,547.693 262.661,548.219 259.88,553.09 252.902,562.789 251.874,564.215 250.757,565.744 242.295,577.288 239.804,583.253 237.534,588.856 234.006,599.292 230.95,607.489 227.665,609.304 222.291,612.275 220.35,612.778 216.193,613.667 209.434,611.585 206.283,610.658 195.847,605.991 192.428,604.426 189.32,603.406 L189.226,603.398 M188.57,605.575 Q182.111,609.025 173.122,617.772 169.242,621.534 165.995,625.25 L165.893,625.337 165.579,625.69 Q164.229,627.302 162.986,628.893 159.873,632.819 157.493,636.696 152.339,645.003 142.817,663.581 138.226,672.46 131.07,686.626 L131.019,686.67 Q131.005,686.746 130.96,686.807 130.907,686.97 130.839,687.129 130.557,687.641 130.277,688.174 129.533,689.694 128.737,691.275 125.107,698.379 119.796,709.711 115.38,718.269 110.98,722.081 M110.43,722.984 Q107.546,726.827 96.333,737.193 88.319,744.639 85.046,748.455 84.006,749.696 83.447,750.554 M232.478,557.196 Q233.72,558.248 235.724,559.27 237.822,560.299 238.859,560.385 241.594,560.613 243.716,559.081 244.729,558.31 245.287,557.312 245.845,556.314 245.947,555.088 246.01,554.334 244.98,553.014 M189.226,603.398 Q185.245,602.079 181.772,601.686 172.602,601.207 168.736,600.885 162.417,600.359 156.036,597.169 152.178,595.614 146.889,591.85 136.405,584.331 127.705,572.497 119.114,560.813 113.774,547.646 M111.656,548.562 Q110.596,555.595 105.081,571.658 100.943,583.878 99.676,593.237 99.436,594.98 99.299,596.624 99.017,600.019 98.405,616.49 96.443,640.065 92.899,648.411 90.535,654.006 87.36,660.199 85.357,664.875 84.792,671.664 84.477,675.446 84.93,680.269 L84.926,680.316 Q85.345,684.734 86.396,690.029 88.519,701.03 88.072,706.405 87.836,709.234 86.571,711.883 85.884,713.297 85.161,713.997 M86.642,715.592 Q86.505,717.745 85.83,721.934 85.805,722.095 85.802,722.264 84.88,727.985 83.025,737.367 L83.022,737.415 Q82.289,741.15 81.403,745.446 M158.146,639.125 L157.133,644.453 Q157.054,645.396 157.4,649.223 157.746,653.049 157.668,653.992 157.589,654.935 157.936,661.041 158.188,667.139 158.109,668.082 157.45,676.004 143.182,708.239 128.82,740.467 128.231,747.54 127.658,754.424 136.673,771.601 143.723,785.007 152.966,798.31 159.67,807.889 173.488,850.629 173.386,851.855 174.117,852.2 174.761,852.444 174.911,851.792 M90.334,786.45 Q92.582,787.966 103.844,800.963 115.868,815.067 115.64,817.802 115.358,821.197 137.127,840.29 158.896,859.384 158.582,863.156 158.488,864.288 158.873,864.225 159.258,864.162 159.242,864.351 L160.052,863.753 M146.822,461.474 Q142.901,456.115 136.236,452.901 129.667,449.695 123.561,450.042 M83.326,486.241 Q83.23,486.244 83.137,486.225 83.042,486.205 82.948,486.209 78.465,485.276 75.455,484.968 67.361,484.104 61.334,485.787 53.845,487.917 52.95,488.412 51.457,489.237 51.331,491.886 51.284,494.73 52.534,496.828 52.888,497.348 53.56,498.196 53.646,498.294 53.732,498.4 L53.776,498.451 M59.229,493.967 Q66.307,494.312 78.899,498.358 79.084,498.417 79.268,498.484 M53.776,498.451 Q55.877,501.106 60.739,506.627 67.215,513.927 71.482,517.301 72.262,517.896 72.959,518.374 78.885,522.475 86.248,522.993 91.631,523.347 99.144,525.491 105.085,527.125 107.026,526.622 M110.013,536.366 L113.66,547.305 Q113.728,547.473 113.774,547.646 M66.76,523.27 Q63.357,526.5 58.966,546.17 56.987,555.121 56.523,557.266 55.824,561.101 55.463,565.439 55.024,570.719 56.211,582.688 57.305,594.648 56.755,601.249 56.698,601.935 56.637,602.663 56.301,605.795 55.585,609.602 54.425,615.845 52.258,623.901 50.74,629.549 48.727,636.093 41.696,658.961 40.094,678.198 39.835,681.31 40.41,691.518 41.032,701.16 40.694,702.936 M79.268,498.484 Q81.152,499.072 83.15,499.757 98.301,504.816 104.36,505.036 M87.665,545.9 L87.657,548.273 Q87.477,550.442 85.575,556.171 83.666,561.994 83.069,566.882 82.331,572.328 81.562,581.569 81.476,582.607 81.578,585.939 81.673,589.365 81.571,590.591 81.565,590.659 81.559,590.732 81.331,593.266 80.298,597.891 79.175,603.4 78.209,604.744 77.273,605.71 75.443,608.312 74.158,610.056 73.49,611.235 72.822,612.414 72.771,613.027 M72.319,652.68 Q72.256,653.434 70.481,661.073 68.611,668.703 68.517,669.835 68.344,671.909 69.563,677.803 70.131,680.769 70.408,682.479 70.648,684.164 70.609,684.632 70.342,687.838 67.113,693.551 64.221,698.628 62.17,700.451 M56.637,602.663 Q51.207,602.876 44.473,608.487 38.238,613.627 36.121,619.851 35.508,621.667 35.241,623.576 34.362,629.58 24.497,692.188 15.033,753.404 14.389,759.997 14.02,764.43 12.724,772.013 12.544,773.128 12.406,774.123 L12.399,774.217 Q12.035,777.425 12.301,779.384 12.537,781.113 46.694,841.878 80.616,902.054 80.396,905.833 M33.889,619.285 Q24.452,623.153 15.077,626.265 1.703,630.659 -5.503,630.534 -20.426,629.577 -37.746,627.755 -72.284,624.025 -84.174,619.712 M85.161,713.997 Q84.489,714.653 83.782,714.594 M81.403,745.446 L81.4,745.493 Q80.984,747.633 80.508,749.929 77.964,762.194 74.373,778.569 73.58,782.396 82.124,801.813 92.679,825.576 94.747,832.679 108.833,881.329 107.554,902.397 M-88.344,733.689 Q-81.091,735.527 -63.44,743.643 -44.242,752.553 -34.002,759.577 -20.076,769.093 -16.328,770.829 -8.563,774.514 1.998,774.253 6.281,774.135 9.919,773.773" test="Avatar Lady"/>
      <path id="Layer4_0_2_STROKES" stroke="#FFBC00" stroke-width="1.893" stroke-linejoin="round" stroke-linecap="round" fill="none" d="M197.893,457.654 Q212.019,449.731 227.501,441.318 L234.779,449.71 Q242.245,459.257 243.102,464.931 243.401,467.044 236.069,469.568 227.873,472.209 226.475,475.321 224.731,479.164 225.117,489.356 225.307,493.758 225.762,497.575 225.787,497.817 225.817,498.055 M116.972,501.813 Q119.249,501.176 121.754,500.264 129.287,497.481 138.857,492.145 147.021,487.602 169.62,473.911 183,466.054 197.893,457.654 M225.455,498.404 Q225.706,498.701 225.927,499.013 225.864,498.541 225.817,498.055 M225.455,498.404 Q222.921,494.973 218.854,491.588 209.871,484.288 200.976,485.067 192.363,485.869 177.134,493.148 162.461,500.734 155.199,503.998 154.164,504.459 153.278,504.835 148.351,506.989 130.788,513.787 129.024,514.476 127.452,515.077 122.868,516.919 120.027,518.162 116.912,519.554 115.913,520.24" test="Avatar Lady"/>
      <path id="Layer4_0_3_STROKES" stroke="#FF0" stroke-width="1.893" stroke-linejoin="round" stroke-linecap="round" fill="none" d="M248.527,498.996 Q247.719,505.29 253.903,504.001 254.73,503.8 255.419,503.463 257.836,502.22 258.39,499.152 258.939,495.969 255.898,494.862 M191.894,513.177 Q190.181,515.503 189.851,516.045 189.733,516.321 189.67,517.075 189.262,521.979 196.146,522.552 198.504,522.748 201.285,520.131 203.855,517.781 203.996,516.084 204.035,515.612 201.874,513.058" test="Avatar Lady"/>
      <path id="Layer4_0_4_STROKES" stroke="#FFF" stroke-width="1.893" stroke-linejoin="round" stroke-linecap="round" fill="none" d="M177.243,570.544 L177.432,572.838 Q177.264,574.858 175.605,577.102 175.046,577.919 174.282,578.748 172.184,581.137 170.989,581.797 M177.338,578.528 Q186.47,585.175 198.022,584.427 202.195,584.49 206.462,584.56" test="Avatar Lady"/>
    </g>
    <g id="Censoredf0r1">
      <path fill="#000" stroke="none" d="M-18.85,403.35 L-18.85,629.9 829.1,629.9 829.1,403.35 -18.85,403.35Z" test="Censored"/>
      <path id="Layer2_0_1_STROKES" stroke="#F00" stroke-width="1" stroke-linejoin="round" stroke-linecap="round" fill="none" d="M440.05,433.95 Q451.45,433.7 458.4,442.45 467.15,453.5 468.45,478.35 469.85,504.55 462.7,519.75 456.1,533.8 444.2,534.55 432.35,535.35 426.85,525.8 420.75,515.3 419.8,488.15 418.8,461.5 424.1,448.25 428.75,436.6 438.75,434.25 M495.6,540.1 Q496.6,530.75 496.9,517.65 497.2,502.55 496.25,489.8 496.1,487.9 494.45,475.35 493.3,466.4 490.7,448.25 489,434.25 490.35,432.65 491.55,431.25 495.9,430.8 500.65,430.2 505.5,431.3 518.75,434.35 520.4,446.7 522.1,459.55 514.25,468.5 507.95,475.7 498.4,478.15 503.3,481.95 507.4,487.15 509.05,489.15 511.9,493.4 515.55,498.8 519.6,507.2 527.8,523.85 530,538.55 M571.35,432.65 Q570.6,432.65 561.5,433.35 554.45,433.85 553.1,433.3 551.6,432.65 553.4,483.6 553.45,484.9 553.55,486.15 555.9,485.8 562.05,485.75 568.9,485.7 569.75,485.55 M576.25,536.2 Q574.4,536.65 565.05,535.95 555.95,535.2 555.7,534.9 555.25,534.3 553.55,486.15 553.25,486.15 553.1,486.2 M604.7,431.3 Q618.7,430 628.4,436.15 644.15,446.1 645.2,473.8 646.25,502.4 642.45,513.4 640.25,519.95 633.1,524.1 628.35,526.9 618.55,528.8 610.8,530.3 606.65,530.3 604.3,530.3 604.1,480.45 603.85,429.95 604.7,431.3Z M184.5,451.6 Q183.2,445.85 177.55,440.35 171.75,434.7 166.2,434.25 158.55,433.6 151.55,437.15 141.9,442.05 136.2,454.2 129.55,468.45 127.75,482.8 125.85,498.1 129.9,511.35 132.45,519.85 135.75,524.45 140.25,530.65 146.6,530.65 153.75,530.65 160.75,526.7 167.95,522.75 170.85,516.9 M245.95,432.3 Q246.45,433.4 229.65,434.45 212.85,435.5 212.85,435.2 212.8,434.8 212.85,482.95 213.9,483.4 230.8,482.6 247.75,481.85 248.25,481 M277.65,536.55 Q277.8,536.7 277,484.45 276.2,432.15 276.35,432.3 276.6,432.65 327,528.05 323.8,429.05 322.4,429.7 M393.3,453.2 Q391.25,446.4 386,440.35 379.85,433.15 373.45,433.1 367,433 361.25,439.3 355.5,445.55 356.05,452.3 356.35,455.55 357.2,457.8 360.1,463.35 364.75,467.85 365.75,468.75 366.65,469.9 368.9,472.7 371.6,476.35 387.7,497.65 388.75,507.75 390,519.95 383.9,526.65 379.05,531.95 373.4,531.6 364.85,531.1 360.6,528.1 351.95,521.95 352.15,505.15 M212.85,482.95 Q212.65,483 212.5,507.4 212.4,531.7 212.25,533.25 212.1,534.85 229.65,535.1 247.15,535.35 248.25,533.25" test="Censored"/>
      <path id="Layer1_0_1_STROKES" stroke="#F00" stroke-width="1" stroke-linejoin="round" stroke-linecap="round" fill="none" d="M65.35,401.7 L732,401.7 732,561.5 65.35,561.5 65.35,401.7Z" test="Censored"/>
    </g>
  </g>
</svg>