<?xml version="1.0" encoding="utf-8"?>
<svg id="EdithAnim13" image-rendering="inherit" baseProfile="basic" version="1.1" x="0px" y="0px" width="800" height="600" xmlns="http://www.w3.org/2000/svg" xmlns:xlink="http://www.w3.org/1999/xlink">
  <g id="22_Avatarf178r1" overflow="visible">
    <g id="Avatar-Manf0r1">
      <g id="Tailf0r1">
        <path id="Layer6_0_1_STROKES" stroke="#009EFF" stroke-width="2.576" stroke-linejoin="round" stroke-linecap="round" fill="none" d="M499.53,672.794 Q498.224,653.872 497.501,634.938 496.854,616.579 490.885,599.241 484.324,580.357 466.056,571.771 443.857,561.425 440.65,584.575 440.182,587.948 442.387,590.906 447.603,598.017 455.017,602.568 462.765,599.736 468.594,605.079 475.611,611.564 478.702,621.291 485.925,644.245 491.679,667.391 493.306,673.868 492.217,680.439" test="Tail_2.3242325232423263e+312.3242325232423263e+31_2.3242325232423263e+312.3242325232423263e+31_2.3242325232423263e+312.3242325232423263e+31_2.3242325232423263e+312.3242325232423263e+31_2.3242325232423263e+312.3242325232423263e+31_2.3242325232423263e+312.3242325232423263e+31_2.3242325232423263e+312.3242325232423263e+31_2.3242325232423263e+312.3242325232423263e+31_2.3242325232423263e+312.3242325232423263e+31_2.3242325232423263e+312.3242325232423263e+31_2.3242325232423263e+312.3242325232423263e+31_2.3242325232423263e+312.3242325232423263e+31_2.3242325232423263e+312.3242325232423263e+31_2.3242325232423263e+312.3242325232423263e+31_2.3242325232423263e+312.3242325232423263e+31_2.3242325232423263e+312.3242325232423263e+31_2.3242325232423263e+312.3242325232423263e+31_2.3242325232423263e+312.3242325232423263e+31_2.3242325232423263e+312.3242325232423263e+31_2.3242325232423263e+312.3242325232423263e+31_2.3242325232423263e+312.3242325232423263e+31_2.3242325232423263e+312.3242325232423263e+31_2.3242325232423263e+312.3242325232423263e+31_2.3242325232423263e+312.3242325232423263e+31_2.3242325232423263e+312.3242325232423263e+31_2323"/>
      </g>
      <path fill="#000" stroke="none" d="M456.594,576.468 Q452.007,566.172 446.204,564.674 444.894,564.3 428.982,568.886 410.074,574.315 388.64,574.502 366.363,574.689 345.022,567.763 327.894,560.743 325.928,560.93 319.189,563.925 317.317,565.236 313.947,567.482 314.228,570.29 314.415,572.349 314.602,583.675 315.258,594.626 318.44,598.37 321.903,602.395 338.658,611.1 352.51,618.12 366.644,624.11 375.91,628.041 389.857,645.544 396.97,654.436 405.02,664.826 406.705,666.136 405.02,668.008 403.71,669.412 403.897,669.412 L417.188,665.294 Q434.13,659.959 445.642,642.081 455.47,626.731 459.308,605.858 462.397,589.291 456.594,576.468 M462.584,186.998 L459.214,185.594 Q459.166,185.712 459.121,185.781 458.106,188.372 457.436,190.742 455.658,197.107 452.85,206.841 452.786,207.012 452.662,207.122 450.098,213.936 444.8,216.95 433.662,223.315 427.484,226.31 L431.696,235.67 Q431.228,242.503 433.381,288.273 433.459,289.962 433.474,291.549 435.221,327.314 435.44,338.162 435.438,338.233 435.44,338.256 435.472,340.764 435.44,341.906 435.066,356.601 437.78,379.814 438.154,383.09 443.302,380.376 448.45,377.568 448.076,375.602 447.889,374.198 450.042,374.947 451.82,375.602 452.288,376.07 452.382,376.164 459.308,352.202 L464.924,361.562 Q465.018,361.656 468.2,340.97 L473.816,343.31 Q473.925,343.42 473.161,333.482 473.202,333.46 473.161,333.388 472.094,318.109 469.042,279.288 467.191,255.566 465.766,239.976 464.003,219.136 463.052,212.832 462.786,210.993 462.584,210.398 462.786,210.993 463.052,212.832 464.003,219.136 465.766,239.976 L467.264,239.882 Q469.136,239.695 474.658,234.172 479.526,229.492 483.176,230.99 486.452,232.394 506.108,260.848 528.759,289.677 547.292,294.17 530.631,294.732 505.921,313.732 498.246,319.629 490.664,326.743 L489.541,327.772 Q490.874,342 495.25,390.672 L496.28,390.578 Q501.147,387.864 535.218,361.094 568.071,335.167 578.648,325.994 586.51,319.161 592.969,308.397 596.245,302.875 600.176,296.042 602.048,293.889 606.073,290.894 609.349,287.899 609.536,282.938 609.723,278.071 574.155,255.139 534.75,230.616 527.168,224.906 504.891,208.152 494.502,201.412 482.124,193.297 473.722,189.712 466.742,186.742 462.584,186.998 M396.034,181.288 Q398.842,180.82 401.463,180.352 405.675,180.352 405.394,185.5 413.444,184.564 416.626,185.5 419.996,186.53 419.902,190.18 L425.144,192.614 Q428.824,185.459 437.78,179.51 442.928,176.047 447.327,174.924 447.396,174.909 447.421,174.83 L446.204,167.342 Q447.608,167.248 444.894,163.972 439.933,158.263 435.908,153.302 430.479,146.563 411.572,140.479 395.005,135.144 385.832,135.05 356.442,134.769 336.224,143.006 323.682,148.154 312.45,163.692 310.297,166.636 308.518,169.308 303.5,177.264 301.966,183.254 L301.966,185.5 Q302.154,185.5 302.996,185.781 303.932,185.968 304.587,185.968 307.957,185.968 311.326,183.254 315.164,180.072 318.814,179.416 L318.814,181.756 323.026,181.756 Q325.834,181.195 331.17,179.604 335.288,178.293 336.13,178.48 L336.13,180.82 Q337.066,180.82 340.81,181.288 346.988,181.288 352.978,178.012 L357.658,178.012 357.658,179.884 365.146,179.884 Q377.502,176.14 378.25,176.14 379.467,176.14 380.59,176.983 381.901,177.919 384.334,178.012 384.334,180.352 383.866,181.288 L396.034,181.288Z" test="Avatar Man" stroke-width="1.872"/>
      <path id="Layer5_0_1_STROKES" stroke="#009EFF" stroke-width="1.872" stroke-linejoin="round" stroke-linecap="round" fill="none" d="M419.902,190.18 Q419.996,186.53 416.626,185.5 413.444,184.564 405.394,185.5 405.675,180.352 401.463,180.352 398.842,180.82 396.034,181.288 L383.866,181.288 Q384.334,180.352 384.334,178.012 381.901,177.919 380.59,176.983 379.467,176.14 378.25,176.14 377.502,176.14 365.146,179.884 L357.658,179.884 357.658,178.012 352.978,178.012 Q346.988,181.288 340.81,181.288 337.066,180.82 336.13,180.82 L336.13,178.48 Q335.288,178.293 331.17,179.604 325.834,181.195 323.026,181.756 L318.814,181.756 318.814,179.416 Q315.164,180.072 311.326,183.254 307.957,185.968 304.587,185.968 303.932,185.968 302.996,185.781 302.154,185.5 301.966,185.5 L301.966,183.254 Q303.5,177.264 308.565,169.354 310.297,166.636 312.45,163.692 323.682,148.154 336.224,143.006 356.442,134.769 385.832,135.05 395.005,135.144 411.572,140.479 430.479,146.563 435.908,153.302 439.933,158.263 444.894,163.972 447.608,167.248 446.204,167.342 M447.468,174.877 Q447.537,174.884 447.608,174.877 450.438,174.252 456.5,173.894 460.899,173.707 463.614,171.928 465.111,170.992 467.264,169.214 468.106,168.746 464.643,174.736 463.052,177.451 461.742,180.072 460.94,181.646 460.291,183.16 460.135,183.473 460.01,183.769 459.737,184.353 459.495,184.939 459.349,185.268 459.214,185.594 M462.584,186.998 Q466.742,186.742 473.769,189.759 482.124,193.297 494.502,201.412 504.891,208.152 527.168,224.906 534.75,230.616 574.155,255.139 609.723,278.071 609.536,282.938 609.349,287.899 606.073,290.894 602.048,293.889 600.176,296.042 596.245,302.875 592.969,308.397 586.51,319.161 578.648,325.994 568.071,335.167 535.218,361.094 501.147,387.864 496.28,390.578 495.795,390.894 495.344,391.186 489.896,394.721 487.482,396.1 483.176,398.628 479.432,398.066 M461.742,180.072 Q460.283,181.67 459.074,182.599 457.852,183.49 456.874,183.722 453.318,184.003 449.012,184.658 443.49,185.5 440.494,187.56 436.47,191.023 432.632,194.018 427.858,197.762 424.863,199.54 L422.804,200.57 Q423.255,196.44 425.191,192.661 M418.966,190.18 L419.902,190.18 M425.191,192.661 Q428.824,185.459 437.78,179.51 442.928,176.047 447.327,174.924 447.396,174.909 447.468,174.877 M459.214,185.594 Q459.166,185.712 459.121,185.828 458.106,188.372 457.436,190.742 455.658,197.107 452.85,206.841 452.786,207.012 452.709,207.169 450.098,213.936 444.8,216.95 433.662,223.315 427.484,226.31 M431.696,235.67 Q431.228,242.503 433.381,288.273 433.459,289.962 433.521,291.596 435.221,327.314 435.44,338.162 435.438,338.233 435.44,338.302 435.472,340.764 435.44,341.906 435.066,356.601 437.78,379.814 438.154,383.09 443.302,380.376 448.45,377.568 448.076,375.602 447.889,374.198 450.042,374.947 451.82,375.602 452.288,376.07 452.382,376.164 459.308,352.202 L464.924,361.562 Q465.018,361.656 468.2,340.97 L473.816,343.31 Q473.925,343.42 473.208,333.529 473.202,333.46 473.208,333.388 472.094,318.109 469.042,279.288 467.191,255.566 465.813,239.976 464.003,219.136 463.052,212.832 462.786,210.993 462.584,210.398 M489.541,327.819 L490.664,326.743 Q498.246,319.629 505.921,313.732 530.631,294.732 547.292,294.17 528.759,289.677 506.108,260.848 486.452,232.394 483.176,230.99 479.526,229.492 474.658,234.172 469.136,239.695 467.264,239.882 M361.964,232.394 Q363.055,232.57 365.334,232.675 367.932,232.768 372.073,232.768 379.374,232.675 382.556,232.394 388.453,231.832 389.202,231.645 392.946,230.616 393.32,227.714 M416.72,307.274 Q417.656,313.358 419.809,322.156 422.43,332.733 424.676,338.162 M312.356,304.466 Q312.356,304.56 312.73,314.107 313.011,320.94 315.632,325.526 316.474,326.997 317.738,328.428 321.572,332.709 329.298,336.571 339.968,342 350.264,342.374 L354.055,342.655 354.195,342.655 Q364.117,343.029 367.112,342.842 372.26,342.468 378.344,340.502 382.837,339.098 394.911,328.24 403.492,320.445 412.602,310.924 412.72,310.81 412.836,310.69 412.907,310.623 412.976,310.55 413.071,310.46 413.163,310.363 414.601,308.837 416.065,307.274 416.16,307.173 416.252,307.087 416.289,307.033 416.346,306.993 416.361,306.939 416.392,306.9 427.413,295.149 428.888,291.83 M354.008,343.31 Q353.166,347.335 351.574,356.508 349.983,364.464 347.456,368.582 M484.58,332.546 L489.541,327.819 M474.284,406.958 Q474.19,407.145 464.737,431.762 457.998,449.265 455.564,459.374 452.569,471.636 449.948,508.14 447.327,543.708 448.544,551.57 M394.63,455.068 Q395.192,457.128 397.064,457.689 397.626,457.876 399.123,457.876 401.557,457.876 402.493,456.753 402.867,456.379 404.365,452.916 M357.19,441.496 Q357.003,458.532 358.22,461.152 360.186,465.832 371.23,465.832 376.566,465.832 377.034,465.739 377.595,465.645 379.654,464.428 M358.594,499.06 Q357.658,501.868 357.658,504.957 357.658,510.105 361.777,510.386 364.491,510.48 373.102,510.292 M355.318,537.904 Q360.092,541.18 363.181,541.929 365.427,542.397 369.358,541.648 M403.148,669.974 Q396.128,673.25 377.314,676.807 358.314,680.364 338.096,682.142 320.593,683.733 279.409,682.891 248.334,682.329 230.456,681.206 216.697,680.364 188.804,677.462 181.878,676.713 176.73,677.836 173.079,678.679 171.956,677.93 M306.74,168.278 Q303.183,166.125 298.971,163.879 290.547,159.48 288.02,159.854 285.306,160.228 287.552,173.613 289.424,185.032 291.296,189.806 M295.976,202.442 Q296.725,205.531 298.69,211.708 299.814,216.669 296.912,218.822 293.338,221.486 289.939,223.97 L289.892,224.017 Q238.822,261.938 232.328,264.218 226.618,265.903 225.214,266.371 223.249,267.12 222.968,268.898 222.5,272.548 222.313,285.091 222.032,299.505 222.968,302.594 226.15,315.324 250.674,351.547 274.729,387.021 288.956,400.874 M297.848,234.734 Q300.75,236.232 306.553,236.98 306.789,237.016 307.021,237.027 312.498,237.812 317.972,237.542 321.435,237.355 329.485,236.044 336.037,234.921 338.096,235.202 M297.38,259.07 Q296.257,260.942 284.182,273.016 273.231,283.968 270.236,286.682 M320.218,280.972 Q324.43,280.972 329.11,280.036 L347.362,280.036 Q341.746,286.027 338.564,289.209 332.667,295.012 331.263,295.012 328.736,295.012 324.992,289.771 321.154,283.78 319.75,282.376 M259.94,281.534 Q261.546,285.415 264.994,290.332 265.032,290.387 265.088,290.426 273.669,302.733 293.636,321.501 302.912,330.212 309.735,336.852 325.526,352.168 328.268,356.414 M296.912,427.082 Q296.257,441.964 299.252,449.078 301.124,453.384 306.834,458.251 312.73,463.024 317.972,464.522 M312.824,472.946 Q312.918,475.848 312.45,487.828 312.262,499.06 313.76,501.962 315.538,505.425 319.938,508.327 324.243,511.135 326.864,510.854 M319.376,514.598 Q319.47,517.687 319.47,522.46 319.657,526.017 321.248,528.17 321.435,528.451 326.49,531.914 329.859,534.254 329.672,538.466 329.485,541.648 327.519,549.511 325.834,556.063 326.396,558.122 M303.464,571.694 Q281.562,567.669 255.073,563.551 202.189,555.408 180.006,555.408 165.217,555.408 148.369,552.319 135.078,549.885 132.27,550.728 127.402,552.225 122.816,559.9 118.23,567.669 118.604,574.034 118.885,578.34 120.382,589.759 121.599,599.961 120.476,603.986 M302.996,598.838 Q294.385,600.242 254.698,601.084 211.642,602.02 204.716,602.582 197.041,603.237 172.611,607.168 150.428,610.725 141.536,611.006 130.959,611.38 121.599,610.07 116.732,609.415 109.712,607.73 106.062,606.888 102.318,609.415 100.352,610.819 95.672,615.686 90.337,621.208 95.204,633.002 96.14,635.342 94.549,648.727 92.77,662.205 93.8,664.826 L97.076,672.782 Q100.726,682.797 102.224,693.374 M168.212,664.826 Q169.522,669.038 171.956,681.112 174.577,694.029 174.296,696.65" test="Avatar Man"/>
      <path id="Layer5_0_2_STROKES" stroke="#FF0" stroke-width="1.872" stroke-linejoin="round" stroke-linecap="round" fill="none" d="M365.146,236.044 Q364.21,241.286 366.082,245.124 368.048,249.148 371.698,249.148 373.196,249.148 375.255,248.025 377.595,246.715 378.25,244.936 M306.646,240.256 Q305.71,246.808 305.71,247.276 305.71,249.18 307.114,251.208 307.861,252.267 308.986,253.36 312.45,256.636 316.006,256.636 317.878,256.636 319.095,254.764 319.844,253.735 321.154,251.488" test="Avatar Man"/>
      <path id="Layer5_0_3_STROKES" stroke="#FFF" stroke-width="1.872" stroke-linejoin="round" stroke-linecap="round" fill="none" d="M397.906,287.056 Q404.178,289.584 404.458,293.796 404.477,294.061 404.505,294.357 404.5,294.428 404.505,294.498 L404.505,294.638 Q404.541,297.073 403.99,301.564 M389.482,303.904 Q395.651,302.433 399.404,297.914 400.662,296.401 401.65,294.544" test="Avatar Man"/>
      <path id="Layer5_0_4_STROKES" stroke="#F90" stroke-width="1.872" stroke-linejoin="round" stroke-linecap="round" fill="none" d="M325.928,560.93 Q327.894,560.743 345.022,567.763 366.363,574.689 388.64,574.502 410.074,574.315 428.982,568.886 444.894,564.3 446.204,564.674 452.007,566.172 456.594,576.468 462.397,589.291 459.308,605.858 455.47,626.731 445.642,642.081 434.13,659.959 417.188,665.294 L403.897,669.412 Q403.71,669.412 405.02,668.008 406.705,666.136 405.02,664.826 396.97,654.436 389.857,645.544 375.91,628.041 366.644,624.11 352.51,618.12 338.658,611.1 321.903,602.395 318.44,598.37 315.258,594.626 314.602,583.675 314.415,572.349 314.228,570.29 313.947,567.482 317.317,565.236 319.189,563.925 325.928,560.93Z" test="Avatar Man"/>
    </g>
    <g id="Avatar-Lady">
      <path fill="#000" stroke="none" d="M189.13,603.501 Q185.145,602.229 181.672,601.836 172.502,601.357 168.635,601.035 162.317,600.509 155.936,597.319 152.078,595.764 146.789,592 136.305,584.481 127.605,572.647 119.014,560.963 113.631,547.745 L111.556,548.712 Q110.496,555.745 104.981,571.808 100.843,584.028 99.576,593.387 99.336,595.13 99.199,596.774 98.917,600.169 98.305,616.64 96.343,640.215 92.799,648.561 90.435,654.156 87.26,660.349 85.257,665.025 84.692,671.814 84.377,675.596 84.834,680.372 L84.826,680.466 Q85.245,684.884 86.296,690.179 88.419,701.18 87.972,706.555 87.736,709.384 86.471,712.033 85.784,713.447 85.065,714.1 L86.542,715.742 Q86.405,717.895 85.733,722.036 85.705,722.245 85.702,722.414 84.78,728.135 82.929,737.47 L82.922,737.565 Q82.189,741.3 81.303,745.596 L84.95,748.558 Q88.219,744.789 96.233,737.343 107.446,726.977 110.33,723.134 L110.88,722.231 Q115.28,718.419 119.696,709.861 125.007,698.529 128.637,691.425 129.433,689.844 130.13,688.321 130.457,687.791 130.695,687.228 130.807,687.12 130.813,686.953 130.905,686.896 130.923,686.772 L130.923,686.772 Q138.126,672.61 142.717,663.731 152.239,645.153 157.393,636.846 159.773,632.969 162.886,629.043 164.129,627.452 165.432,625.836 L165.746,625.483 165.848,625.396 Q169.142,621.684 173.022,617.922 182.011,609.175 188.47,605.725 L189.13,603.501 M180.432,433.095 L180.918,419.272 180.446,419.233 Q169.885,418.354 163.606,418.496 150.946,418.866 140.597,422.278 130.625,425.72 121.086,431.953 117.478,434.279 113.935,436.865 113.93,436.91 113.833,436.951 113.58,437.17 113.228,437.376 107.952,441.472 102.903,446.202 94.26,454.218 90.08,463.365 85.908,472.418 83.991,482.894 L83.23,486.343 Q86.178,486.993 89.752,487.836 95.614,489.273 103.403,494.954 103.802,495.27 108.912,499.496 108.963,499.519 109.006,499.504 110.729,500.997 112.998,502.875 110.729,500.997 109.006,499.504 108.963,499.519 108.912,499.496 103.802,495.27 103.403,494.954 95.614,489.273 89.752,487.836 86.178,486.993 83.23,486.343 L79.168,498.634 Q81.052,499.222 83.05,499.907 98.201,504.966 104.26,505.186 98.201,504.966 83.05,499.907 81.052,499.222 79.168,498.634 78.984,498.567 78.799,498.508 66.207,494.462 59.129,494.117 L53.628,498.597 Q55.777,501.256 60.639,506.777 67.115,514.077 71.335,517.447 72.162,518.046 72.859,518.524 78.785,522.625 86.148,523.143 91.531,523.497 99.044,525.641 104.985,527.275 106.926,526.772 L112.733,528.87 109.913,536.516 113.56,547.455 Q113.628,547.623 113.631,547.745 119.014,560.963 127.605,572.647 136.305,584.481 146.789,592 152.078,595.764 155.936,597.319 162.317,600.509 168.635,601.035 172.502,601.357 181.672,601.836 185.145,602.229 189.13,603.501 L189.224,603.509 Q192.328,604.576 195.747,606.141 206.183,610.808 209.334,611.735 216.093,613.817 220.25,612.928 222.191,612.425 227.565,609.454 230.85,607.639 233.906,599.442 237.434,589.006 239.704,583.403 242.195,577.438 250.657,565.894 251.774,564.365 252.802,562.939 259.78,553.24 262.561,548.369 262.865,547.843 263.119,547.371 267.511,539.096 265.867,528.039 264.586,519.482 260.719,513.462 L255.272,503.609 Q254.63,503.95 253.803,504.151 247.618,505.44 248.427,499.146 L243.539,496.27 225.717,498.205 Q225.764,498.691 225.827,499.163 225.606,498.851 225.308,498.551 222.821,495.123 218.754,491.738 209.771,484.438 200.876,485.217 192.263,486.019 177.034,493.298 162.361,500.884 155.056,504.097 154.064,504.609 153.178,504.985 148.251,507.139 130.688,513.937 128.924,514.626 127.356,515.179 122.768,517.069 119.883,518.26 116.812,519.704 115.813,520.39 116.812,519.704 119.883,518.26 122.768,517.069 127.356,515.179 128.924,514.626 130.688,513.937 148.251,507.139 153.178,504.985 154.064,504.609 155.056,504.097 162.361,500.884 177.034,493.298 192.263,486.019 200.876,485.217 209.771,484.438 218.754,491.738 222.821,495.123 225.308,498.551 L225.717,498.205 Q225.687,497.967 225.662,497.725 225.207,493.908 225.017,489.506 224.631,479.314 226.375,475.471 227.773,472.359 235.969,469.718 243.301,467.194 243.002,465.081 242.145,459.407 234.679,449.86 L227.401,441.468 Q211.919,449.881 197.746,457.8 182.9,466.204 169.52,474.061 146.921,487.752 138.757,492.295 129.187,497.631 121.658,500.367 119.149,501.326 116.872,501.963 119.149,501.326 121.658,500.367 129.187,497.631 138.757,492.295 146.921,487.752 169.52,474.061 182.9,466.204 197.746,457.8 L192.456,448.339 Q191.702,447.137 186.986,441.047 181.838,434.447 180.432,433.095 M208.5,505.412 Q207.298,503.888 202.92,502.859 199.603,502.079 188.941,506.538 185.514,508.011 181.342,509.988 164.141,518.147 161.501,517.927 164.141,518.147 181.342,509.988 185.514,508.011 188.941,506.538 199.603,502.079 202.92,502.859 207.298,503.888 208.5,505.412 209.702,506.937 213.915,509.946 209.702,506.937 208.5,505.412 M201.185,520.281 Q203.755,517.931 203.896,516.234 203.935,515.762 201.774,513.208 203.935,515.762 203.896,516.234 203.755,517.931 201.185,520.281 198.404,522.898 196.046,522.702 189.162,522.129 189.57,517.225 189.633,516.471 189.751,516.195 190.081,515.653 191.794,513.327 190.081,515.653 189.751,516.195 189.633,516.471 189.57,517.225 189.162,522.129 196.046,522.702 198.404,522.898 201.185,520.281 M175.462,577.201 Q174.946,578.069 174.181,578.898 172.084,581.287 170.889,581.947 172.084,581.287 174.181,578.898 174.946,578.069 175.462,577.201 177.164,575.008 177.332,572.988 L177.143,570.694 177.332,572.988 Q177.164,575.008 175.462,577.201 M224.723,548.922 Q227.111,549.121 230.389,548.159 233.918,547.236 238.436,545.031 244.896,541.797 246.592,539.443 247.226,538.668 247.283,537.981 247.346,537.227 245.672,534.524 244.092,531.829 243.362,531.483 244.092,531.829 245.672,534.524 247.346,537.227 247.283,537.981 247.226,538.668 246.592,539.443 244.896,541.797 238.436,545.031 233.918,547.236 230.389,548.159 227.111,549.121 224.723,548.922 221.046,548.616 218.814,545.771 215.301,541.206 215.033,540.994 215.301,541.206 218.814,545.771 221.046,548.616 224.723,548.922 M245.847,555.238 Q245.91,554.484 244.88,553.164 245.91,554.484 245.847,555.238 245.745,556.464 245.187,557.462 244.629,558.46 243.616,559.231 241.494,560.763 238.759,560.535 237.722,560.449 235.624,559.42 233.62,558.398 232.378,557.346 233.62,558.398 235.624,559.42 237.722,560.449 238.759,560.535 241.494,560.763 243.616,559.231 244.629,558.46 245.187,557.462 245.745,556.464 245.847,555.238 M197.922,584.577 Q202.095,584.64 206.362,584.71 202.095,584.64 197.922,584.577 186.37,585.325 177.238,578.678 186.37,585.325 197.922,584.577 M146.722,461.624 Q142.801,456.265 136.136,453.051 129.567,449.845 123.461,450.192 129.567,449.845 136.136,453.051 142.801,456.265 146.722,461.624Z" test="Avatar Lady" stroke-width="1.893"/>
      <path id="Layer4_0_1_STROKES" stroke="#009EFF" stroke-width="1.893" stroke-linejoin="round" stroke-linecap="round" fill="none" d="M243.539,496.27 Q242.777,491.744 246.407,490.337 249.951,488.828 253.243,488.057 M226.01,436.509 Q226.364,435.684 226.403,435.213 226.481,434.27 223.872,427.975 220.783,420.597 220.327,419.23 218.661,414.153 213.765,412.511 208.618,411.608 206.896,410.61 207.156,412.056 206.771,416.677 L206.017,423.451 Q205.727,423.521 203.715,422.594 201.515,421.652 200.477,421.565 196.8,421.259 194.835,420.906 190.167,419.947 184.886,419.508 L180.918,419.272 M180.432,433.095 Q181.838,434.447 186.986,441.047 191.702,447.137 192.456,448.339 M206.896,410.61 Q206.901,410.516 206.81,410.508 L206.834,410.225 Q206.91,410.42 206.896,410.61Z M180.446,419.233 Q180.462,419.044 180.556,419.052 180.722,419.25 180.918,419.272 L180.446,419.233 Q169.885,418.354 163.606,418.496 150.946,418.866 140.597,422.278 130.625,425.72 121.086,431.953 117.478,434.279 113.982,436.869 113.93,436.91 113.88,436.955 113.58,437.17 113.275,437.38 107.952,441.472 102.903,446.202 94.26,454.218 90.08,463.365 85.908,472.418 83.991,482.894 M83.226,486.391 Q86.178,486.993 89.752,487.836 95.614,489.273 103.403,494.954 103.802,495.27 108.912,499.496 108.963,499.519 109.002,499.551 110.729,500.997 112.998,502.875 M213.915,509.946 Q209.702,506.937 208.5,505.412 207.298,503.888 202.92,502.859 199.603,502.079 188.937,506.585 185.514,508.011 181.342,509.988 164.141,518.147 161.501,517.927 M215.033,540.994 Q215.301,541.206 218.814,545.771 221.046,548.616 224.723,548.922 227.111,549.121 230.432,548.21 233.918,547.236 238.436,545.031 244.896,541.797 246.639,539.447 247.226,538.668 247.283,537.981 247.346,537.227 245.672,534.524 244.092,531.829 243.362,531.483 M260.719,513.462 Q264.586,519.482 265.867,528.039 267.511,539.096 263.119,547.371 262.865,547.843 262.561,548.369 259.78,553.24 252.802,562.939 251.774,564.365 250.657,565.894 242.195,577.438 239.704,583.403 237.434,589.006 233.906,599.442 230.85,607.639 227.565,609.454 222.191,612.425 220.25,612.928 216.093,613.817 209.334,611.735 206.183,610.808 195.747,606.141 192.328,604.576 189.22,603.556 L189.126,603.548 M188.47,605.725 Q182.011,609.175 173.022,617.922 169.142,621.684 165.895,625.4 L165.793,625.487 165.479,625.84 Q164.129,627.452 162.886,629.043 159.773,632.969 157.393,636.846 152.239,645.153 142.717,663.731 138.126,672.61 130.97,686.776 L130.919,686.82 Q130.905,686.896 130.86,686.957 130.807,687.12 130.739,687.279 130.457,687.791 130.177,688.324 129.433,689.844 128.637,691.425 125.007,698.529 119.696,709.861 115.28,718.419 110.88,722.231 M110.33,723.134 Q107.446,726.977 96.233,737.343 88.219,744.789 84.946,748.605 83.906,749.846 83.347,750.704 M232.378,557.346 Q233.62,558.398 235.624,559.42 237.722,560.449 238.759,560.535 241.494,560.763 243.616,559.231 244.629,558.46 245.187,557.462 245.745,556.464 245.847,555.238 245.91,554.484 244.88,553.164 M189.126,603.548 Q185.145,602.229 181.672,601.836 172.502,601.357 168.635,601.035 162.317,600.509 155.936,597.319 152.078,595.764 146.789,592 136.305,584.481 127.605,572.647 119.014,560.963 113.674,547.796 M111.556,548.712 Q110.496,555.745 104.981,571.808 100.843,584.028 99.576,593.387 99.336,595.13 99.199,596.774 98.917,600.169 98.305,616.64 96.343,640.215 92.799,648.561 90.435,654.156 87.26,660.349 85.257,665.025 84.692,671.814 84.377,675.596 84.83,680.419 L84.826,680.466 Q85.245,684.884 86.296,690.179 88.419,701.18 87.972,706.555 87.736,709.384 86.471,712.033 85.784,713.447 85.061,714.147 M86.542,715.742 Q86.405,717.895 85.73,722.084 85.705,722.245 85.702,722.414 84.78,728.135 82.925,737.517 L82.922,737.565 Q82.189,741.3 81.303,745.596 M158.046,639.275 L157.033,644.603 Q156.954,645.546 157.3,649.373 157.646,653.199 157.568,654.142 157.489,655.085 157.836,661.191 158.088,667.289 158.009,668.232 157.35,676.154 143.082,708.389 128.72,740.617 128.131,747.69 127.558,754.574 136.573,771.751 143.623,785.157 152.866,798.46 159.569,808.039 173.388,850.779 173.286,852.005 174.017,852.35 174.661,852.594 174.811,851.942 M90.234,786.6 Q92.482,788.116 103.744,801.113 115.768,815.217 115.54,817.952 115.258,821.347 137.027,840.44 158.796,859.534 158.482,863.306 158.388,864.438 158.773,864.375 159.158,864.312 159.142,864.501 L159.952,863.903 M146.722,461.624 Q142.801,456.265 136.136,453.051 129.567,449.845 123.461,450.192 M83.226,486.391 Q83.13,486.394 83.037,486.375 82.942,486.355 82.848,486.359 78.365,485.426 75.355,485.118 67.261,484.254 61.234,485.937 53.745,488.067 52.85,488.562 51.357,489.387 51.231,492.036 51.184,494.88 52.434,496.978 52.788,497.498 53.46,498.346 53.546,498.444 53.632,498.55 L53.676,498.601 M59.129,494.117 Q66.207,494.462 78.799,498.508 78.984,498.567 79.168,498.634 M53.676,498.601 Q55.777,501.256 60.639,506.777 67.115,514.077 71.382,517.451 72.162,518.046 72.859,518.524 78.785,522.625 86.148,523.143 91.531,523.497 99.044,525.641 104.985,527.275 106.926,526.772 M109.913,536.516 L113.56,547.455 Q113.628,547.623 113.674,547.796 M66.66,523.42 Q63.257,526.65 58.866,546.32 56.887,555.271 56.423,557.416 55.724,561.251 55.363,565.589 54.924,570.869 56.111,582.838 57.205,594.798 56.655,601.399 56.598,602.085 56.537,602.813 56.201,605.945 55.485,609.752 54.325,615.995 52.158,624.051 50.64,629.699 48.627,636.243 41.596,659.111 39.994,678.348 39.735,681.46 40.31,691.668 40.932,701.31 40.594,703.086 M79.168,498.634 Q81.052,499.222 83.05,499.907 98.201,504.966 104.26,505.186 M87.565,546.05 L87.557,548.423 Q87.377,550.592 85.475,556.321 83.566,562.144 82.969,567.032 82.231,572.478 81.462,581.719 81.376,582.757 81.478,586.089 81.573,589.515 81.471,590.741 81.465,590.809 81.459,590.882 81.231,593.416 80.198,598.041 79.075,603.55 78.108,604.894 77.173,605.86 75.343,608.462 74.058,610.206 73.39,611.385 72.722,612.564 72.671,613.177 M72.219,652.83 Q72.156,653.584 70.381,661.223 68.511,668.853 68.417,669.985 68.244,672.059 69.463,677.953 70.031,680.919 70.308,682.629 70.548,684.314 70.509,684.782 70.242,687.988 67.013,693.701 64.121,698.778 62.07,700.601 M56.537,602.813 Q51.107,603.026 44.373,608.637 38.138,613.777 36.021,620.001 35.408,621.817 35.141,623.726 34.261,629.73 24.397,692.338 14.933,753.554 14.289,760.147 13.92,764.58 12.624,772.163 12.444,773.278 12.306,774.273 L12.299,774.367 Q11.935,777.575 12.201,779.534 12.437,781.263 46.594,842.028 80.516,902.204 80.296,905.983 M33.789,619.435 Q24.352,623.303 14.977,626.415 1.603,630.809 -5.603,630.684 -20.526,629.727 -37.846,627.905 -72.384,624.175 -84.274,619.862 M85.061,714.147 Q84.389,714.803 83.682,714.744 M81.303,745.596 L81.3,745.643 Q80.884,747.783 80.408,750.079 77.864,762.344 74.273,778.719 73.48,782.546 82.024,801.963 92.579,825.726 94.647,832.829 108.733,881.479 107.454,902.547 M-88.444,733.839 Q-81.191,735.677 -63.54,743.793 -44.342,752.703 -34.102,759.727 -20.176,769.243 -16.428,770.979 -8.663,774.664 1.898,774.403 6.181,774.285 9.819,773.923" test="Avatar Lady"/>
      <path id="Layer4_0_2_STROKES" stroke="#FFBC00" stroke-width="1.893" stroke-linejoin="round" stroke-linecap="round" fill="none" d="M197.793,457.804 Q211.919,449.881 227.401,441.468 L234.679,449.86 Q242.145,459.407 243.002,465.081 243.301,467.194 235.969,469.718 227.773,472.359 226.375,475.471 224.631,479.314 225.017,489.506 225.207,493.908 225.662,497.725 225.687,497.967 225.717,498.205 M116.872,501.963 Q119.149,501.326 121.654,500.414 129.187,497.631 138.757,492.295 146.921,487.752 169.52,474.061 182.9,466.204 197.793,457.804 M225.355,498.554 Q225.606,498.851 225.827,499.163 225.764,498.691 225.717,498.205 M225.355,498.554 Q222.821,495.123 218.754,491.738 209.771,484.438 200.876,485.217 192.263,486.019 177.034,493.298 162.361,500.884 155.099,504.148 154.064,504.609 153.178,504.985 148.251,507.139 130.688,513.937 128.924,514.626 127.352,515.227 122.768,517.069 119.927,518.312 116.812,519.704 115.813,520.39" test="Avatar Lady"/>
      <path id="Layer4_0_3_STROKES" stroke="#FF0" stroke-width="1.893" stroke-linejoin="round" stroke-linecap="round" fill="none" d="M248.427,499.146 Q247.618,505.44 253.803,504.151 254.63,503.95 255.319,503.613 257.736,502.37 258.289,499.302 258.839,496.119 255.798,495.012 M191.794,513.327 Q190.081,515.653 189.751,516.195 189.633,516.471 189.57,517.225 189.162,522.129 196.046,522.702 198.404,522.898 201.185,520.281 203.755,517.931 203.896,516.234 203.935,515.762 201.774,513.208" test="Avatar Lady"/>
      <path id="Layer4_0_4_STROKES" stroke="#FFF" stroke-width="1.893" stroke-linejoin="round" stroke-linecap="round" fill="none" d="M177.143,570.694 L177.332,572.988 Q177.164,575.008 175.505,577.252 174.946,578.069 174.181,578.898 172.084,581.287 170.889,581.947 M177.238,578.678 Q186.37,585.325 197.922,584.577 202.095,584.64 206.362,584.71" test="Avatar Lady"/>
    </g>
    <g id="Censoredf0r1">
      <path fill="#000" stroke="none" d="M-18.85,403.35 L-18.85,629.9 829.1,629.9 829.1,403.35 -18.85,403.35Z" test="Censored"/>
      <path id="Layer2_0_1_STROKES" stroke="#F00" stroke-width="1" stroke-linejoin="round" stroke-linecap="round" fill="none" d="M440.05,433.95 Q451.45,433.7 458.4,442.45 467.15,453.5 468.45,478.35 469.85,504.55 462.7,519.75 456.1,533.8 444.2,534.55 432.35,535.35 426.85,525.8 420.75,515.3 419.8,488.15 418.8,461.5 424.1,448.25 428.75,436.6 438.75,434.25 M495.6,540.1 Q496.6,530.75 496.9,517.65 497.2,502.55 496.25,489.8 496.1,487.9 494.45,475.35 493.3,466.4 490.7,448.25 489,434.25 490.35,432.65 491.55,431.25 495.9,430.8 500.65,430.2 505.5,431.3 518.75,434.35 520.4,446.7 522.1,459.55 514.25,468.5 507.95,475.7 498.4,478.15 503.3,481.95 507.4,487.15 509.05,489.15 511.9,493.4 515.55,498.8 519.6,507.2 527.8,523.85 530,538.55 M571.35,432.65 Q570.6,432.65 561.5,433.35 554.45,433.85 553.1,433.3 551.6,432.65 553.4,483.6 553.45,484.9 553.55,486.15 555.9,485.8 562.05,485.75 568.9,485.7 569.75,485.55 M576.25,536.2 Q574.4,536.65 565.05,535.95 555.95,535.2 555.7,534.9 555.25,534.3 553.55,486.15 553.25,486.15 553.1,486.2 M604.7,431.3 Q618.7,430 628.4,436.15 644.15,446.1 645.2,473.8 646.25,502.4 642.45,513.4 640.25,519.95 633.1,524.1 628.35,526.9 618.55,528.8 610.8,530.3 606.65,530.3 604.3,530.3 604.1,480.45 603.85,429.95 604.7,431.3Z M184.5,451.6 Q183.2,445.85 177.55,440.35 171.75,434.7 166.2,434.25 158.55,433.6 151.55,437.15 141.9,442.05 136.2,454.2 129.55,468.45 127.75,482.8 125.85,498.1 129.9,511.35 132.45,519.85 135.75,524.45 140.25,530.65 146.6,530.65 153.75,530.65 160.75,526.7 167.95,522.75 170.85,516.9 M245.95,432.3 Q246.45,433.4 229.65,434.45 212.85,435.5 212.85,435.2 212.8,434.8 212.85,482.95 213.9,483.4 230.8,482.6 247.75,481.85 248.25,481 M277.65,536.55 Q277.8,536.7 277,484.45 276.2,432.15 276.35,432.3 276.6,432.65 327,528.05 323.8,429.05 322.4,429.7 M393.3,453.2 Q391.25,446.4 386,440.35 379.85,433.15 373.45,433.1 367,433 361.25,439.3 355.5,445.55 356.05,452.3 356.35,455.55 357.2,457.8 360.1,463.35 364.75,467.85 365.75,468.75 366.65,469.9 368.9,472.7 371.6,476.35 387.7,497.65 388.75,507.75 390,519.95 383.9,526.65 379.05,531.95 373.4,531.6 364.85,531.1 360.6,528.1 351.95,521.95 352.15,505.15 M212.85,482.95 Q212.65,483 212.5,507.4 212.4,531.7 212.25,533.25 212.1,534.85 229.65,535.1 247.15,535.35 248.25,533.25" test="Censored"/>
      <path id="Layer1_0_1_STROKES" stroke="#F00" stroke-width="1" stroke-linejoin="round" stroke-linecap="round" fill="none" d="M65.35,401.7 L732,401.7 732,561.5 65.35,561.5 65.35,401.7Z" test="Censored"/>
    </g>
  </g>
</svg>