<?xml version="1.0" encoding="utf-8"?>
<svg id="EdithAnim13" image-rendering="inherit" baseProfile="basic" version="1.1" x="0px" y="0px" width="800" height="600" xmlns="http://www.w3.org/2000/svg" xmlns:xlink="http://www.w3.org/1999/xlink">
  <g id="22_Avatarf199r1" overflow="visible">
    <g id="Avatar-Manf8r1">
      <g id="Tailf8r1">
        <g id="Tail-Wiggly">
          <path id="Layer6_0_1_STROKES" stroke="#009EFF" stroke-width="2.576" stroke-linejoin="round" stroke-linecap="round" fill="none" d="M440.236,792.442 L450.539,800.706 Q454.968,804.283 460.727,808.595 L482.537,823.407 488.362,826.737 Q491.447,828.477 494.363,829.914 L500.113,832.669 500.313,832.707 Q500.249,832.716 500.458,832.818 L500.521,832.81 500.594,832.865 505.461,834.827 505.877,835.032 520.709,839.197 Q527.514,840.58 534.227,841.261 540.477,841.872 547.587,842.111 L550.902,842.132 550.965,842.124 551.101,842.171 551.357,842.138 567.814,841.349 Q572.347,840.756 574.629,840.328 582.058,839.032 588.284,836.984 595.069,834.733 601.422,831.174 604.686,829.319 607.59,827.186 L608.297,826.638 608.719,826.388 609.951,825.383 610.071,825.303 610.135,825.294 610.254,825.214 610.54,824.916 611.128,824.45 611.414,824.153 611.597,824.064 613.115,822.761 Q618.361,818.179 622.876,812.977 627.447,807.704 631.176,801.956 L631.343,801.739 634.536,794.373 634.66,793.837 635.037,792.749 635.162,792.213 635.257,791.941 635.359,791.732 637.485,782.168 637.58,781.896 638.527,768.783 637.337,754.717 637.034,753.392 636.993,753.073 636.895,752.826 636.756,752.26 636.715,751.941 636.617,751.694 636.275,750.569 Q635.778,748.751 634.805,746.281 L633.058,742.353 Q631.555,739.302 628.991,735.092 L628.483,734.184 628.008,733.532 627.91,733.285 627.605,732.935 627.508,732.688 627.355,732.513 626.783,731.614 610.526,710.101 Q605.441,703.492 601.633,698.211 L598.283,693.453 597.856,692.665 597.711,692.554 597.622,692.371 595.978,689.728 595.792,689.298 592.666,683.278 592.544,682.839 592.189,682.106 591.774,680.926 591.597,680.56 590.579,677.251 590.529,676.868 590.424,676.557 590.324,675.791 590.218,675.48 590.109,674.65 590.132,674.322 589.998,673.301 590.025,672.518 589.975,672.135 590.003,671.352 Q589.997,670.314 590.241,668.204 590.598,664.975 591.521,661.607 591.762,660.471 592.444,658.239 L593.568,654.91 Q594.142,653.341 596.261,648.193 L596.954,646.544 604.434,631.733 625.421,596.063 Q628.848,590.485 633.127,582.976 L636.281,577.303 636.448,577.087 640.285,569.182 Q642.288,564.634 643.205,561.721 L645.01,554.666 645.132,553.611 Q645.453,551.101 645.17,548.93 L644.838,546.895 644.741,546.648 644.699,546.329 644.602,546.082 644.324,544.95 642.374,540.464 Q641.493,538.696 640.221,536.914 639.004,535.06 637.838,533.589 L629.609,524.794 629.393,524.627 628.654,523.944 628.501,523.77 594.256,496.297 Q587.949,491.277 582.74,486.698 L578.002,482.252 577.93,482.196 577.849,482.077 577.696,481.902 577.335,481.624 574.836,478.899 Q573.783,477.803 572.456,476.093 569.987,473.104 568.245,470.214 566.156,466.656 565.253,463.722 L564.521,460.116 564.569,459.98 564.519,459.597 564.768,457.031 565.61,453.544 Q566.04,451.864 566.709,450.024 567.596,447.375 569.432,443.043 L572.501,436.213 Q573.638,433.986 575.905,429.468 L579.389,422.843 Q582.527,417.043 586.75,409.606 594.589,396.048 602.211,383.816 L602.788,384.26 Q602.933,384.371 602.98,384.235 603.099,384.154 602.955,384.043 L602.233,383.488 Q602.161,383.433 602.041,383.513 592.704,397.528 585.556,408.918 L573.958,428.489 566.95,441.939 Q565.025,446.088 563.907,448.961 L561.771,455.475 561.253,458.465 561.198,460.031 561.151,460.167 561.21,460.614 561.171,460.814 561.421,462.729 562.45,466.621 563.211,468.47 Q563.786,469.888 564.917,472.078 566.789,475.47 569.219,478.659 L574.671,485.09 574.816,485.201 574.896,485.32 579.612,490.094 Q584.719,494.881 590.939,500.237 L624.097,528.827 624.7,529.462 624.916,529.629 632.176,537.966 Q633.279,539.445 634.118,540.894 L634.359,541.252 636.273,544.963 636.387,545.338 636.565,545.704 636.793,546.454 636.971,546.82 637.021,547.203 637.249,547.953 637.315,548.464 637.396,548.583 637.538,549.669 637.508,551.426 637.43,551.826 637.417,552.217 637.339,552.617 637.317,552.945 635.587,559.081 Q634.73,561.466 632.677,565.631 L625.449,578.395 Q621.104,585.393 617.366,591.077 L596.933,623.038 585.699,643.405 Q583.662,647.698 582.489,650.644 L579.793,658.335 Q578.462,663.055 577.939,666.5 577.598,668.363 577.468,670.848 L577.407,671.375 577.403,674.818 577.94,679.424 578.037,679.671 578.071,679.926 Q578.402,681.961 579.149,684.201 L579.344,684.695 579.808,686.258 584.289,696.192 590.32,706.054 Q592.528,709.532 594.661,712.435 L607.857,730.907 Q610.724,734.948 612.029,736.985 L614.462,740.693 614.551,740.877 614.704,741.051 615.043,741.656 615.051,741.72 615.123,741.776 615.309,742.206 615.793,742.922 Q617.754,746.497 618.863,749.015 L619.51,750.489 619.624,750.864 620.093,751.971 620.997,754.905 621.202,755.982 621.308,756.293 621.392,756.932 621.489,757.179 621.614,758.137 621.584,758.4 622.033,764.316 621.777,772.792 620.863,779.211 618.908,786.61 618.806,786.819 617.413,790.572 617.358,790.645 617.366,790.709 616.545,792.375 Q612.732,797.484 609.477,800.897 605.841,804.879 601.206,808.668 L600.149,809.52 600.03,809.601 598.972,810.454 598.614,810.695 598.431,810.784 597.898,811.178 597.668,811.403 596.888,811.895 Q594.373,813.523 592.366,814.565 587.867,816.906 582.429,818.527 577.365,820.033 571.555,820.793 L554.396,821.673 551.719,821.569 551.528,821.594 551.392,821.547 548.452,821.411 Q541.772,820.986 536.744,820.28 531.452,819.543 525.422,818.124 L515.749,815.168 514.171,814.53 513.835,814.444 513.691,814.333 513.555,814.286 509.696,812.582 509.623,812.527 509.687,812.518 504.745,809.983 Q501.812,808.418 499.688,807.072 L492.185,802.338 475.349,789.798 456.504,773.819 Q452.683,770.422 447.533,770.771 442.447,771.112 439.059,774.997 435.734,778.873 436.075,783.959 436.415,789.045 440.236,792.442Z" test="Tail Wiggly"/>
        </g>
      </g>
      <path fill="#000" stroke="none" d="M456.494,576.368 Q451.907,566.072 446.104,564.574 444.794,564.2 428.882,568.786 409.974,574.215 388.54,574.402 366.263,574.589 344.922,567.663 327.794,560.643 325.828,560.83 319.089,563.825 317.217,565.136 313.847,567.382 314.128,570.19 314.315,572.249 314.502,583.575 315.158,594.526 318.34,598.27 321.803,602.295 338.558,611 352.41,618.02 366.544,624.01 375.81,627.941 389.757,645.444 396.87,654.336 404.92,664.726 406.605,666.036 404.92,667.908 403.61,669.312 403.797,669.312 L417.088,665.194 Q434.03,659.859 445.542,641.981 455.37,626.631 459.208,605.758 462.297,589.191 456.494,576.368 M462.484,186.898 L459.114,185.494 Q459.066,185.612 459.021,185.681 458.006,188.272 457.336,190.642 455.558,197.007 452.75,206.741 452.686,206.912 452.562,207.022 449.998,213.836 444.7,216.85 433.562,223.215 427.384,226.21 L431.596,235.57 Q431.128,242.403 433.281,288.173 433.359,289.862 433.374,291.449 435.121,327.214 435.34,338.062 435.338,338.133 435.34,338.156 435.372,340.664 435.34,341.806 434.966,356.501 437.68,379.714 438.054,382.99 443.202,380.276 448.35,377.468 447.976,375.502 447.789,374.098 449.942,374.847 451.72,375.502 452.188,375.97 452.282,376.064 459.208,352.102 L464.824,361.462 Q464.918,361.556 468.1,340.87 L473.716,343.21 Q473.825,343.32 473.061,333.382 473.102,333.36 473.061,333.288 471.994,318.009 468.942,279.188 467.091,255.466 465.666,239.876 463.903,219.036 462.952,212.732 462.686,210.893 462.484,210.298 462.686,210.893 462.952,212.732 463.903,219.036 465.666,239.876 L467.164,239.782 Q469.036,239.595 474.558,234.072 479.426,229.392 483.076,230.89 486.352,232.294 506.008,260.748 528.659,289.577 547.192,294.07 530.531,294.632 505.821,313.632 498.146,319.529 490.564,326.643 L489.441,327.672 Q490.774,341.9 495.15,390.572 L496.18,390.478 Q501.047,387.764 535.118,360.994 567.971,335.067 578.548,325.894 586.41,319.061 592.869,308.297 596.145,302.775 600.076,295.942 601.948,293.789 605.973,290.794 609.249,287.799 609.436,282.838 609.623,277.971 574.055,255.039 534.65,230.516 527.068,224.806 504.791,208.052 494.402,201.312 482.024,193.197 473.622,189.612 466.642,186.642 462.484,186.898 M395.934,181.188 Q398.742,180.72 401.363,180.252 405.575,180.252 405.294,185.4 413.344,184.464 416.526,185.4 419.896,186.43 419.802,190.08 L425.044,192.514 Q428.724,185.359 437.68,179.41 442.828,175.947 447.227,174.824 447.296,174.809 447.321,174.73 L446.104,167.242 Q447.508,167.148 444.794,163.872 439.833,158.163 435.808,153.202 430.379,146.463 411.472,140.379 394.905,135.044 385.732,134.95 356.342,134.669 336.124,142.906 323.582,148.054 312.35,163.592 310.197,166.536 308.418,169.208 303.4,177.164 301.866,183.154 L301.866,185.4 Q302.054,185.4 302.896,185.681 303.832,185.868 304.487,185.868 307.857,185.868 311.226,183.154 315.064,179.972 318.714,179.316 L318.714,181.656 322.926,181.656 Q325.734,181.095 331.07,179.504 335.188,178.193 336.03,178.38 L336.03,180.72 Q336.966,180.72 340.71,181.188 346.888,181.188 352.878,177.912 L357.558,177.912 357.558,179.784 365.046,179.784 Q377.402,176.04 378.15,176.04 379.367,176.04 380.49,176.883 381.801,177.819 384.234,177.912 384.234,180.252 383.766,181.188 L395.934,181.188Z" test="Avatar Man" stroke-width="1.872"/>
      <path id="Layer5_0_1_STROKES" stroke="#009EFF" stroke-width="1.872" stroke-linejoin="round" stroke-linecap="round" fill="none" d="M419.802,190.08 Q419.896,186.43 416.526,185.4 413.344,184.464 405.294,185.4 405.575,180.252 401.363,180.252 398.742,180.72 395.934,181.188 L383.766,181.188 Q384.234,180.252 384.234,177.912 381.801,177.819 380.49,176.883 379.367,176.04 378.15,176.04 377.402,176.04 365.046,179.784 L357.558,179.784 357.558,177.912 352.878,177.912 Q346.888,181.188 340.71,181.188 336.966,180.72 336.03,180.72 L336.03,178.38 Q335.188,178.193 331.07,179.504 325.734,181.095 322.926,181.656 L318.714,181.656 318.714,179.316 Q315.064,179.972 311.226,183.154 307.857,185.868 304.487,185.868 303.832,185.868 302.896,185.681 302.054,185.4 301.866,185.4 L301.866,183.154 Q303.4,177.164 308.465,169.254 310.197,166.536 312.35,163.592 323.582,148.054 336.124,142.906 356.342,134.669 385.732,134.95 394.905,135.044 411.472,140.379 430.379,146.463 435.808,153.202 439.833,158.163 444.794,163.872 447.508,167.148 446.104,167.242 M447.368,174.777 Q447.437,174.784 447.508,174.777 450.338,174.152 456.4,173.794 460.799,173.607 463.514,171.828 465.011,170.892 467.164,169.114 468.006,168.646 464.543,174.636 462.952,177.351 461.642,179.972 460.84,181.546 460.191,183.06 460.035,183.373 459.91,183.669 459.637,184.253 459.395,184.839 459.249,185.168 459.114,185.494 M462.484,186.898 Q466.642,186.642 473.669,189.659 482.024,193.197 494.402,201.312 504.791,208.052 527.068,224.806 534.65,230.516 574.055,255.039 609.623,277.971 609.436,282.838 609.249,287.799 605.973,290.794 601.948,293.789 600.076,295.942 596.145,302.775 592.869,308.297 586.41,319.061 578.548,325.894 567.971,335.067 535.118,360.994 501.047,387.764 496.18,390.478 495.695,390.794 495.244,391.086 489.796,394.621 487.382,396 483.076,398.528 479.332,397.966 M461.642,179.972 Q460.183,181.57 458.974,182.499 457.752,183.39 456.774,183.622 453.218,183.903 448.912,184.558 443.39,185.4 440.394,187.46 436.37,190.923 432.532,193.918 427.758,197.662 424.763,199.44 L422.704,200.47 Q423.155,196.34 425.091,192.561 M418.866,190.08 L419.802,190.08 M425.091,192.561 Q428.724,185.359 437.68,179.41 442.828,175.947 447.227,174.824 447.296,174.809 447.368,174.777 M459.114,185.494 Q459.066,185.612 459.021,185.728 458.006,188.272 457.336,190.642 455.558,197.007 452.75,206.741 452.686,206.912 452.609,207.069 449.998,213.836 444.7,216.85 433.562,223.215 427.384,226.21 M431.596,235.57 Q431.128,242.403 433.281,288.173 433.359,289.862 433.421,291.496 435.121,327.214 435.34,338.062 435.338,338.133 435.34,338.202 435.372,340.664 435.34,341.806 434.966,356.501 437.68,379.714 438.054,382.99 443.202,380.276 448.35,377.468 447.976,375.502 447.789,374.098 449.942,374.847 451.72,375.502 452.188,375.97 452.282,376.064 459.208,352.102 L464.824,361.462 Q464.918,361.556 468.1,340.87 L473.716,343.21 Q473.825,343.32 473.108,333.429 473.102,333.36 473.108,333.288 471.994,318.009 468.942,279.188 467.091,255.466 465.713,239.876 463.903,219.036 462.952,212.732 462.686,210.893 462.484,210.298 M489.441,327.719 L490.564,326.643 Q498.146,319.529 505.821,313.632 530.531,294.632 547.192,294.07 528.659,289.577 506.008,260.748 486.352,232.294 483.076,230.89 479.426,229.392 474.558,234.072 469.036,239.595 467.164,239.782 M361.864,232.294 Q362.955,232.47 365.234,232.575 367.832,232.668 371.973,232.668 379.274,232.575 382.456,232.294 388.353,231.732 389.102,231.545 392.846,230.516 393.22,227.614 M416.62,307.174 Q417.556,313.258 419.709,322.056 422.33,332.633 424.576,338.062 M312.256,304.366 Q312.256,304.46 312.63,314.007 312.911,320.84 315.532,325.426 316.374,326.897 317.638,328.328 321.472,332.609 329.198,336.471 339.868,341.9 350.164,342.274 L353.955,342.555 354.095,342.555 Q364.017,342.929 367.012,342.742 372.16,342.368 378.244,340.402 382.737,338.998 394.811,328.14 403.392,320.345 412.502,310.824 412.62,310.71 412.736,310.59 412.807,310.523 412.876,310.45 412.971,310.36 413.063,310.263 414.501,308.737 415.965,307.174 416.06,307.073 416.152,306.987 416.189,306.933 416.246,306.893 416.261,306.839 416.292,306.8 427.313,295.049 428.788,291.73 M353.908,343.21 Q353.066,347.235 351.474,356.408 349.883,364.364 347.356,368.482 M484.48,332.446 L489.441,327.719 M474.184,406.858 Q474.09,407.045 464.637,431.662 457.898,449.165 455.464,459.274 452.469,471.536 449.848,508.04 447.227,543.608 448.444,551.47 M394.53,454.968 Q395.092,457.028 396.964,457.589 397.526,457.776 399.023,457.776 401.457,457.776 402.393,456.653 402.767,456.279 404.265,452.816 M357.09,441.396 Q356.903,458.432 358.12,461.052 360.086,465.732 371.13,465.732 376.466,465.732 376.934,465.639 377.495,465.545 379.554,464.328 M358.494,498.96 Q357.558,501.768 357.558,504.857 357.558,510.005 361.677,510.286 364.391,510.38 373.002,510.192 M355.218,537.804 Q359.992,541.08 363.081,541.829 365.327,542.297 369.258,541.548 M403.048,669.874 Q396.028,673.15 377.214,676.707 358.214,680.264 337.996,682.042 320.493,683.633 279.309,682.791 248.234,682.229 230.356,681.106 216.597,680.264 188.704,677.362 181.778,676.613 176.63,677.736 172.979,678.579 171.856,677.83 M306.64,168.178 Q303.083,166.025 298.871,163.779 290.447,159.38 287.92,159.754 285.206,160.128 287.452,173.513 289.324,184.932 291.196,189.706 M295.876,202.342 Q296.625,205.431 298.59,211.608 299.714,216.569 296.812,218.722 293.238,221.386 289.839,223.87 L289.792,223.917 Q238.722,261.838 232.228,264.118 226.518,265.803 225.114,266.271 223.149,267.02 222.868,268.798 222.4,272.448 222.213,284.991 221.932,299.405 222.868,302.494 226.05,315.224 250.574,351.447 274.629,386.921 288.856,400.774 M297.748,234.634 Q300.65,236.132 306.453,236.88 306.689,236.916 306.921,236.927 312.398,237.712 317.872,237.442 321.335,237.255 329.385,235.944 335.937,234.821 337.996,235.102 M297.28,258.97 Q296.157,260.842 284.082,272.916 273.131,283.868 270.136,286.582 M320.118,280.872 Q324.33,280.872 329.01,279.936 L347.262,279.936 Q341.646,285.927 338.464,289.109 332.567,294.912 331.163,294.912 328.636,294.912 324.892,289.671 321.054,283.68 319.65,282.276 M259.84,281.434 Q261.446,285.315 264.894,290.232 264.932,290.287 264.988,290.326 273.569,302.633 293.536,321.401 302.812,330.112 309.635,336.752 325.426,352.068 328.168,356.314 M296.812,426.982 Q296.157,441.864 299.152,448.978 301.024,453.284 306.734,458.151 312.63,462.924 317.872,464.422 M312.724,472.846 Q312.818,475.748 312.35,487.728 312.162,498.96 313.66,501.862 315.438,505.325 319.838,508.227 324.143,511.035 326.764,510.754 M319.276,514.498 Q319.37,517.587 319.37,522.36 319.557,525.917 321.148,528.07 321.335,528.351 326.39,531.814 329.759,534.154 329.572,538.366 329.385,541.548 327.419,549.411 325.734,555.963 326.296,558.022 M303.364,571.594 Q281.462,567.569 254.973,563.451 202.089,555.308 179.906,555.308 165.117,555.308 148.269,552.219 134.978,549.785 132.17,550.628 127.302,552.125 122.716,559.8 118.13,567.569 118.504,573.934 118.785,578.24 120.282,589.659 121.499,599.861 120.376,603.886 M302.896,598.738 Q294.285,600.142 254.598,600.984 211.542,601.92 204.616,602.482 196.941,603.137 172.511,607.068 150.328,610.625 141.436,610.906 130.859,611.28 121.499,609.97 116.632,609.315 109.612,607.63 105.962,606.788 102.218,609.315 100.252,610.719 95.572,615.586 90.237,621.108 95.104,632.902 96.04,635.242 94.449,648.627 92.67,662.105 93.7,664.726 L96.976,672.682 Q100.626,682.697 102.124,693.274 M168.112,664.726 Q169.422,668.938 171.856,681.012 174.477,693.929 174.196,696.55" test="Avatar Man"/>
      <path id="Layer5_0_2_STROKES" stroke="#FF0" stroke-width="1.872" stroke-linejoin="round" stroke-linecap="round" fill="none" d="M365.046,235.944 Q364.11,241.186 365.982,245.024 367.948,249.048 371.598,249.048 373.096,249.048 375.155,247.925 377.495,246.615 378.15,244.836 M306.546,240.156 Q305.61,246.708 305.61,247.176 305.61,249.08 307.014,251.108 307.761,252.167 308.886,253.26 312.35,256.536 315.906,256.536 317.778,256.536 318.995,254.664 319.744,253.635 321.054,251.388" test="Avatar Man"/>
      <path id="Layer5_0_3_STROKES" stroke="#FFF" stroke-width="1.872" stroke-linejoin="round" stroke-linecap="round" fill="none" d="M397.806,286.956 Q404.078,289.484 404.358,293.696 404.377,293.961 404.405,294.257 404.4,294.328 404.405,294.398 L404.405,294.538 Q404.441,296.973 403.89,301.464 M389.382,303.804 Q395.551,302.333 399.304,297.814 400.562,296.301 401.55,294.444" test="Avatar Man"/>
      <path id="Layer5_0_4_STROKES" stroke="#F90" stroke-width="1.872" stroke-linejoin="round" stroke-linecap="round" fill="none" d="M325.828,560.83 Q327.794,560.643 344.922,567.663 366.263,574.589 388.54,574.402 409.974,574.215 428.882,568.786 444.794,564.2 446.104,564.574 451.907,566.072 456.494,576.368 462.297,589.191 459.208,605.758 455.37,626.631 445.542,641.981 434.03,659.859 417.088,665.194 L403.797,669.312 Q403.61,669.312 404.92,667.908 406.605,666.036 404.92,664.726 396.87,654.336 389.757,645.444 375.81,627.941 366.544,624.01 352.41,618.02 338.558,611 321.803,602.295 318.34,598.27 315.158,594.526 314.502,583.575 314.315,572.249 314.128,570.19 313.847,567.382 317.217,565.136 319.089,563.825 325.828,560.83Z" test="Avatar Man"/>
    </g>
    <g id="Avatar-Lady">
      <path fill="#000" stroke="none" d="M189.069,603.471 Q185.085,602.197 181.612,601.802 172.441,601.318 168.575,600.994 162.257,600.465 155.877,597.272 152.019,595.714 146.732,591.947 136.252,584.422 127.558,572.583 118.972,560.894 113.596,547.673 L111.521,548.639 Q110.457,555.672 104.933,571.732 100.789,583.95 99.517,593.31 99.276,595.052 99.138,596.697 98.854,600.091 98.234,616.563 96.259,640.138 92.711,648.482 90.343,654.076 87.165,660.268 85.159,664.943 84.59,671.732 84.274,675.514 84.728,680.29 L84.72,680.385 Q85.136,684.803 86.186,690.099 88.303,701.102 87.852,706.477 87.615,709.306 86.349,711.953 85.661,713.368 84.941,714.02 L86.418,715.663 Q86.279,717.816 85.606,721.957 85.577,722.165 85.574,722.334 84.649,728.055 82.793,737.39 L82.786,737.485 Q82.051,741.22 81.163,745.515 L84.808,748.48 Q88.079,744.712 96.098,737.27 107.317,726.91 110.203,723.068 L110.753,722.165 Q115.156,718.355 119.576,709.799 124.893,698.469 128.527,691.367 129.324,689.787 130.022,688.263 130.349,687.734 130.588,687.171 130.7,687.063 130.706,686.896 130.798,686.839 130.816,686.715 L130.816,686.715 Q138.027,672.557 142.622,663.679 152.155,645.105 157.314,636.801 159.695,632.925 162.81,629 164.055,627.41 165.358,625.795 L165.672,625.441 165.775,625.355 Q169.071,621.644 172.953,617.884 181.947,609.142 188.408,605.695 L189.069,603.471 M180.46,433.053 L180.954,419.23 180.482,419.19 Q169.921,418.306 163.641,418.444 150.981,418.808 140.63,422.214 130.656,425.652 121.113,431.88 117.503,434.204 113.959,436.788 113.953,436.833 113.857,436.874 113.603,437.092 113.252,437.299 107.972,441.392 102.921,446.119 94.273,454.131 90.089,463.277 85.912,472.328 83.99,482.803 L83.226,486.252 Q86.174,486.904 89.748,487.748 95.61,489.189 103.395,494.874 103.794,495.191 108.902,499.419 108.953,499.442 108.996,499.427 110.719,500.922 112.987,502.8 110.719,500.922 108.996,499.427 108.953,499.442 108.902,499.419 103.794,495.191 103.395,494.874 95.61,489.189 89.748,487.748 86.174,486.904 83.226,486.252 L79.158,498.542 Q81.042,499.13 83.039,499.816 98.188,504.884 104.247,505.107 98.188,504.884 83.039,499.816 81.042,499.13 79.158,498.542 78.973,498.475 78.788,498.416 66.198,494.362 59.12,494.014 L53.617,498.491 Q55.764,501.151 60.623,506.675 67.096,513.978 71.314,517.352 72.141,517.951 72.838,518.429 78.762,522.534 86.125,523.056 91.508,523.412 99.02,525.56 104.961,527.198 106.902,526.695 L112.708,528.796 109.884,536.441 113.525,547.382 Q113.593,547.551 113.596,547.673 118.972,560.894 127.558,572.583 136.252,584.422 146.732,591.947 152.019,595.714 155.877,597.272 162.257,600.465 168.575,600.994 172.441,601.318 181.612,601.802 185.085,602.197 189.069,603.471 L189.164,603.479 Q192.267,604.548 195.685,606.114 206.119,610.787 209.27,611.716 216.028,613.801 220.185,612.915 222.127,612.413 227.503,609.445 230.789,607.631 233.85,599.436 237.383,589.001 239.656,583.399 242.15,577.435 250.619,565.894 251.736,564.366 252.766,562.941 259.748,553.245 262.532,548.375 262.837,547.85 263.091,547.377 267.487,539.104 265.85,528.046 264.573,519.488 260.709,513.466 L255.267,503.609 Q254.625,503.95 253.797,504.151 247.612,505.437 248.424,499.142 L243.537,496.264 225.713,498.189 Q225.76,498.676 225.823,499.148 225.602,498.835 225.304,498.535 222.819,495.106 218.753,491.719 209.774,484.414 200.878,485.188 192.264,485.986 177.031,493.256 162.353,500.835 155.046,504.044 154.053,504.556 153.167,504.932 148.239,507.083 130.672,513.873 128.907,514.56 127.339,515.113 122.75,517 119.864,518.19 116.792,519.633 115.793,520.318 116.792,519.633 119.864,518.19 122.75,517 127.339,515.113 128.907,514.56 130.672,513.873 148.239,507.083 153.167,504.932 154.053,504.556 155.046,504.044 162.353,500.835 177.031,493.256 192.264,485.986 200.878,485.188 209.774,484.414 218.753,491.719 222.819,495.106 225.304,498.535 L225.713,498.189 Q225.684,497.951 225.658,497.71 225.205,493.892 225.017,489.49 224.637,479.297 226.383,475.455 227.783,472.343 235.981,469.706 243.314,467.187 243.017,465.073 242.163,459.399 234.701,449.847 L227.428,441.451 Q211.94,449.857 197.762,457.768 182.911,466.164 169.527,474.015 146.919,487.695 138.752,492.234 129.18,497.564 121.648,500.297 119.139,501.255 116.862,501.89 119.139,501.255 121.648,500.297 129.18,497.564 138.752,492.234 146.919,487.695 169.527,474.015 182.911,466.164 197.762,457.768 L192.477,448.304 Q191.723,447.101 187.011,441.009 181.866,434.405 180.46,433.053 M208.492,505.388 Q207.29,503.863 202.913,502.832 199.596,502.05 188.931,506.503 185.503,507.975 181.33,509.95 164.124,518.1 161.484,517.878 164.124,518.1 181.33,509.95 185.503,507.975 188.931,506.503 199.596,502.05 202.913,502.832 207.29,503.863 208.492,505.388 209.693,506.913 213.904,509.925 209.693,506.913 208.492,505.388 M201.169,520.253 Q203.74,517.905 203.882,516.207 203.921,515.736 201.761,513.181 203.921,515.736 203.882,516.207 203.74,517.905 201.169,520.253 198.386,522.869 196.028,522.672 189.144,522.095 189.555,517.191 189.618,516.437 189.736,516.162 190.067,515.62 191.781,513.294 190.067,515.62 189.736,516.162 189.618,516.437 189.555,517.191 189.144,522.095 196.028,522.672 198.386,522.869 201.169,520.253 M175.415,577.162 Q174.898,578.03 174.133,578.859 172.034,581.247 170.839,581.907 172.034,581.247 174.133,578.859 174.898,578.03 175.415,577.162 177.118,574.971 177.287,572.951 L177.099,570.656 177.287,572.951 Q177.118,574.971 175.415,577.162 M224.693,548.908 Q227.08,549.108 230.359,548.149 233.889,547.227 238.408,545.024 244.87,541.794 246.568,539.441 247.202,538.666 247.26,537.979 247.323,537.225 245.65,534.521 244.072,531.824 243.341,531.478 244.072,531.824 245.65,534.521 247.323,537.225 247.26,537.979 247.202,538.666 246.568,539.441 244.87,541.794 238.408,545.024 233.889,547.227 230.359,548.149 227.08,549.108 224.693,548.908 221.015,548.6 218.784,545.755 215.274,541.187 215.007,540.975 215.274,541.187 218.784,545.755 221.015,548.6 224.693,548.908 M245.814,555.236 Q245.877,554.482 244.848,553.161 245.877,554.482 245.814,555.236 245.711,556.462 245.153,557.46 244.595,558.458 243.58,559.227 241.458,560.759 238.723,560.53 237.686,560.443 235.588,559.412 233.585,558.39 232.343,557.336 233.585,558.39 235.588,559.412 237.686,560.443 238.723,560.53 241.458,560.759 243.58,559.227 244.595,558.458 245.153,557.46 245.711,556.462 245.814,555.236 M197.871,584.551 Q202.044,584.616 206.312,584.689 202.044,584.616 197.871,584.551 186.319,585.293 177.19,578.64 186.319,585.293 197.871,584.551 M146.734,461.565 Q142.815,456.204 136.153,452.987 129.584,449.777 123.478,450.12 129.584,449.777 136.153,452.987 142.815,456.204 146.734,461.565Z" test="Avatar Lady" stroke-width="1.893"/>
      <path id="Layer4_0_1_STROKES" stroke="#009EFF" stroke-width="1.893" stroke-linejoin="round" stroke-linecap="round" fill="none" d="M243.537,496.264 Q242.777,491.737 246.408,490.332 249.953,488.825 253.246,488.056 M226.039,436.491 Q226.393,435.666 226.432,435.195 226.511,434.252 223.905,427.956 220.82,420.575 220.365,419.208 218.701,414.13 213.806,412.486 208.659,411.58 206.938,410.581 207.197,412.027 206.81,416.648 L206.052,423.422 Q205.761,423.492 203.75,422.564 201.55,421.62 200.513,421.533 196.835,421.225 194.871,420.871 190.203,419.91 184.922,419.467 L180.954,419.23 M180.46,433.053 Q181.866,434.405 187.011,441.009 191.723,447.101 192.477,448.304 M206.938,410.581 Q206.942,410.486 206.852,410.479 L206.875,410.196 Q206.952,410.39 206.938,410.581Z M180.482,419.19 Q180.498,419.002 180.592,419.01 180.758,419.208 180.954,419.23 L180.482,419.19 Q169.921,418.306 163.641,418.444 150.981,418.808 140.63,422.214 130.656,425.652 121.113,431.88 117.503,434.204 114.006,436.792 113.953,436.833 113.904,436.878 113.603,437.092 113.299,437.302 107.972,441.392 102.921,446.119 94.273,454.131 90.089,463.277 85.912,472.328 83.99,482.803 M83.222,486.3 Q86.174,486.904 89.748,487.748 95.61,489.189 103.395,494.874 103.794,495.191 108.902,499.419 108.953,499.442 108.992,499.474 110.719,500.922 112.987,502.8 M213.904,509.925 Q209.693,506.913 208.492,505.388 207.29,503.863 202.913,502.832 199.596,502.05 188.927,506.55 185.503,507.975 181.33,509.95 164.124,518.1 161.484,517.878 M215.007,540.975 Q215.274,541.187 218.784,545.755 221.015,548.6 224.693,548.908 227.08,549.108 230.402,548.2 233.889,547.227 238.408,545.024 244.87,541.794 246.615,539.444 247.202,538.666 247.26,537.979 247.323,537.225 245.65,534.521 244.072,531.824 243.341,531.478 M260.709,513.466 Q264.573,519.488 265.85,528.046 267.487,539.104 263.091,547.377 262.837,547.85 262.532,548.375 259.748,553.245 252.766,562.941 251.736,564.366 250.619,565.894 242.15,577.435 239.656,583.399 237.383,589.001 233.85,599.436 230.789,607.631 227.503,609.445 222.127,612.413 220.185,612.915 216.028,613.801 209.27,611.716 206.119,610.787 195.685,606.114 192.267,604.548 189.16,603.526 L189.065,603.518 M188.408,605.695 Q181.947,609.142 172.953,617.884 169.071,621.644 165.822,625.359 L165.72,625.445 165.405,625.799 Q164.055,627.41 162.81,629 159.695,632.925 157.314,636.801 152.155,645.105 142.622,663.679 138.027,672.557 130.863,686.719 L130.812,686.762 Q130.798,686.839 130.753,686.9 130.7,687.063 130.631,687.222 130.349,687.734 130.069,688.267 129.324,689.787 128.527,691.367 124.893,698.469 119.576,709.799 115.156,718.355 110.753,722.165 M110.203,723.068 Q107.317,726.91 96.098,737.27 88.079,744.712 84.804,748.527 83.764,749.767 83.204,750.624 M232.343,557.336 Q233.585,558.39 235.588,559.412 237.686,560.443 238.723,560.53 241.458,560.759 243.58,559.227 244.595,558.458 245.153,557.46 245.711,556.462 245.814,555.236 245.877,554.482 244.848,553.161 M189.065,603.518 Q185.085,602.197 181.612,601.802 172.441,601.318 168.575,600.994 162.257,600.465 155.877,597.272 152.019,595.714 146.732,591.947 136.252,584.422 127.558,572.583 118.972,560.894 113.639,547.724 M111.521,548.639 Q110.457,555.672 104.933,571.732 100.789,583.95 99.517,593.31 99.276,595.052 99.138,596.697 98.854,600.091 98.234,616.563 96.259,640.138 92.711,648.482 90.343,654.076 87.165,660.268 85.159,664.943 84.59,671.732 84.274,675.514 84.724,680.337 L84.72,680.385 Q85.136,684.803 86.186,690.099 88.303,701.102 87.852,706.477 87.615,709.306 86.349,711.953 85.661,713.368 84.937,714.067 M86.418,715.663 Q86.279,717.816 85.602,722.004 85.577,722.165 85.574,722.334 84.649,728.055 82.789,737.437 L82.786,737.485 Q82.051,741.22 81.163,745.515 M157.965,639.23 L156.949,644.557 Q156.87,645.5 157.214,649.328 157.558,653.155 157.479,654.098 157.4,655.041 157.743,661.147 157.992,667.246 157.913,668.189 157.249,676.11 142.964,708.34 128.584,740.562 127.992,747.634 127.415,754.518 136.421,771.701 143.465,785.111 152.701,798.42 159.4,808.002 173.196,850.751 173.094,851.977 173.824,852.323 174.469,852.567 174.618,851.915 M90.073,786.526 Q92.319,788.043 103.575,801.046 115.593,815.158 115.364,817.893 115.079,821.287 136.839,840.393 158.599,859.499 158.283,863.271 158.188,864.403 158.573,864.34 158.959,864.278 158.943,864.466 L159.752,863.869 M146.734,461.565 Q142.815,456.204 136.153,452.987 129.584,449.777 123.478,450.12 M83.222,486.3 Q83.127,486.303 83.033,486.284 82.938,486.264 82.845,486.268 78.361,485.332 75.352,485.023 67.258,484.155 61.23,485.834 53.74,487.961 52.843,488.455 51.35,489.28 51.223,491.928 51.175,494.773 52.423,496.872 52.777,497.391 53.448,498.239 53.535,498.338 53.621,498.444 L53.664,498.495 M59.12,494.014 Q66.198,494.362 78.788,498.416 78.973,498.475 79.158,498.542 M53.664,498.495 Q55.764,501.151 60.623,506.675 67.096,513.978 71.361,517.356 72.141,517.951 72.838,518.429 78.762,522.534 86.125,523.056 91.508,523.412 99.02,525.56 104.961,527.198 106.902,526.695 M109.884,536.441 L113.525,547.382 Q113.593,547.551 113.639,547.724 M66.636,523.322 Q63.232,526.551 58.83,546.219 56.846,555.169 56.381,557.314 55.68,561.149 55.317,565.487 54.874,570.767 56.056,582.737 57.143,594.698 56.59,601.299 56.532,601.985 56.471,602.713 56.133,605.845 55.415,609.652 54.252,615.894 52.081,623.949 50.559,629.597 48.543,636.14 41.499,659.006 39.888,678.243 39.627,681.355 40.196,691.564 40.813,701.206 40.474,702.982 M79.158,498.542 Q81.042,499.13 83.039,499.816 98.188,504.884 104.247,505.107 M87.53,545.964 L87.521,548.337 Q87.339,550.506 85.435,556.234 83.523,562.057 82.923,566.945 82.182,572.39 81.408,581.632 81.321,582.669 81.422,586.001 81.515,589.428 81.412,590.653 81.406,590.721 81.4,590.795 81.171,593.328 80.136,597.954 79.009,603.462 78.042,604.805 77.107,605.772 75.274,608.372 73.989,610.116 73.32,611.294 72.652,612.473 72.6,613.086 M72.127,652.74 Q72.064,653.495 70.285,661.133 68.411,668.762 68.316,669.894 68.142,671.969 69.358,677.863 69.924,680.83 70.2,682.539 70.439,684.225 70.4,684.693 70.131,687.899 66.899,693.611 64.005,698.686 61.953,700.508 M56.471,602.713 Q51.041,602.923 44.303,608.531 38.065,613.668 35.945,619.891 35.331,621.707 35.063,623.616 34.18,629.619 24.282,692.225 14.786,753.439 14.138,760.032 13.767,764.464 12.467,772.047 12.286,773.162 12.148,774.157 L12.14,774.252 Q11.774,777.459 12.04,779.419 12.275,781.148 46.401,841.933 80.293,902.129 80.071,905.909 M33.713,619.324 Q24.273,623.187 14.897,626.295 1.519,630.682 -5.687,630.553 -20.61,629.587 -37.93,627.757 -72.467,624.009 -84.355,619.689 M84.937,714.067 Q84.265,714.723 83.558,714.663 M81.163,745.515 L81.159,745.562 Q80.742,747.702 80.265,749.998 77.715,762.263 74.115,778.636 73.32,782.463 81.854,801.886 92.397,825.655 94.461,832.76 108.522,881.419 107.232,902.487 M-88.586,733.669 Q-81.333,735.511 -63.686,743.636 -44.491,752.557 -34.255,759.587 -20.333,769.11 -16.586,770.848 -8.823,774.537 1.739,774.282 6.022,774.166 9.661,773.806" test="Avatar Lady"/>
      <path id="Layer4_0_2_STROKES" stroke="#FFBC00" stroke-width="1.893" stroke-linejoin="round" stroke-linecap="round" fill="none" d="M197.809,457.772 Q211.94,449.857 227.428,441.451 L234.701,449.847 Q242.163,459.399 243.017,465.073 243.314,467.187 235.981,469.706 227.783,472.343 226.383,475.455 224.637,479.297 225.017,489.49 225.205,493.892 225.658,497.71 225.684,497.951 225.713,498.189 M116.862,501.89 Q119.139,501.255 121.644,500.344 129.18,497.564 138.752,492.234 146.919,487.695 169.527,474.015 182.911,466.164 197.809,457.772 M225.351,498.539 Q225.602,498.835 225.823,499.148 225.76,498.676 225.713,498.189 M225.351,498.539 Q222.819,495.106 218.753,491.719 209.774,484.414 200.878,485.188 192.264,485.986 177.031,493.256 162.353,500.835 155.089,504.096 154.053,504.556 153.167,504.932 148.239,507.083 130.672,513.873 128.907,514.56 127.335,515.16 122.75,517 119.908,518.241 116.792,519.633 115.793,520.318" test="Avatar Lady"/>
      <path id="Layer4_0_3_STROKES" stroke="#FF0" stroke-width="1.893" stroke-linejoin="round" stroke-linecap="round" fill="none" d="M248.424,499.142 Q247.612,505.437 253.797,504.151 254.625,503.95 255.314,503.613 257.731,502.372 258.287,499.304 258.838,496.121 255.797,495.012 M191.781,513.294 Q190.067,515.62 189.736,516.162 189.618,516.437 189.555,517.191 189.144,522.095 196.028,522.672 198.386,522.869 201.169,520.253 203.74,517.905 203.882,516.207 203.921,515.736 201.761,513.181" test="Avatar Lady"/>
      <path id="Layer4_0_4_STROKES" stroke="#FFF" stroke-width="1.893" stroke-linejoin="round" stroke-linecap="round" fill="none" d="M177.099,570.656 L177.287,572.951 Q177.118,574.971 175.458,577.213 174.898,578.03 174.133,578.859 172.034,581.247 170.839,581.907 M177.19,578.64 Q186.319,585.293 197.871,584.551 202.044,584.616 206.312,584.689" test="Avatar Lady"/>
    </g>
    <g id="Censoredf0r1">
      <path fill="#000" stroke="none" d="M-18.85,403.35 L-18.85,629.9 829.1,629.9 829.1,403.35 -18.85,403.35Z" test="Censored"/>
      <path id="Layer2_0_1_STROKES" stroke="#F00" stroke-width="1" stroke-linejoin="round" stroke-linecap="round" fill="none" d="M440.05,433.95 Q451.45,433.7 458.4,442.45 467.15,453.5 468.45,478.35 469.85,504.55 462.7,519.75 456.1,533.8 444.2,534.55 432.35,535.35 426.85,525.8 420.75,515.3 419.8,488.15 418.8,461.5 424.1,448.25 428.75,436.6 438.75,434.25 M495.6,540.1 Q496.6,530.75 496.9,517.65 497.2,502.55 496.25,489.8 496.1,487.9 494.45,475.35 493.3,466.4 490.7,448.25 489,434.25 490.35,432.65 491.55,431.25 495.9,430.8 500.65,430.2 505.5,431.3 518.75,434.35 520.4,446.7 522.1,459.55 514.25,468.5 507.95,475.7 498.4,478.15 503.3,481.95 507.4,487.15 509.05,489.15 511.9,493.4 515.55,498.8 519.6,507.2 527.8,523.85 530,538.55 M571.35,432.65 Q570.6,432.65 561.5,433.35 554.45,433.85 553.1,433.3 551.6,432.65 553.4,483.6 553.45,484.9 553.55,486.15 555.9,485.8 562.05,485.75 568.9,485.7 569.75,485.55 M576.25,536.2 Q574.4,536.65 565.05,535.95 555.95,535.2 555.7,534.9 555.25,534.3 553.55,486.15 553.25,486.15 553.1,486.2 M604.7,431.3 Q618.7,430 628.4,436.15 644.15,446.1 645.2,473.8 646.25,502.4 642.45,513.4 640.25,519.95 633.1,524.1 628.35,526.9 618.55,528.8 610.8,530.3 606.65,530.3 604.3,530.3 604.1,480.45 603.85,429.95 604.7,431.3Z M184.5,451.6 Q183.2,445.85 177.55,440.35 171.75,434.7 166.2,434.25 158.55,433.6 151.55,437.15 141.9,442.05 136.2,454.2 129.55,468.45 127.75,482.8 125.85,498.1 129.9,511.35 132.45,519.85 135.75,524.45 140.25,530.65 146.6,530.65 153.75,530.65 160.75,526.7 167.95,522.75 170.85,516.9 M245.95,432.3 Q246.45,433.4 229.65,434.45 212.85,435.5 212.85,435.2 212.8,434.8 212.85,482.95 213.9,483.4 230.8,482.6 247.75,481.85 248.25,481 M277.65,536.55 Q277.8,536.7 277,484.45 276.2,432.15 276.35,432.3 276.6,432.65 327,528.05 323.8,429.05 322.4,429.7 M393.3,453.2 Q391.25,446.4 386,440.35 379.85,433.15 373.45,433.1 367,433 361.25,439.3 355.5,445.55 356.05,452.3 356.35,455.55 357.2,457.8 360.1,463.35 364.75,467.85 365.75,468.75 366.65,469.9 368.9,472.7 371.6,476.35 387.7,497.65 388.75,507.75 390,519.95 383.9,526.65 379.05,531.95 373.4,531.6 364.85,531.1 360.6,528.1 351.95,521.95 352.15,505.15 M212.85,482.95 Q212.65,483 212.5,507.4 212.4,531.7 212.25,533.25 212.1,534.85 229.65,535.1 247.15,535.35 248.25,533.25" test="Censored"/>
      <path id="Layer1_0_1_STROKES" stroke="#F00" stroke-width="1" stroke-linejoin="round" stroke-linecap="round" fill="none" d="M65.35,401.7 L732,401.7 732,561.5 65.35,561.5 65.35,401.7Z" test="Censored"/>
    </g>
  </g>
</svg>