<?xml version="1.0" encoding="utf-8"?>
<svg id="EdithAnim13" image-rendering="inherit" baseProfile="basic" version="1.1" x="0px" y="0px" width="800" height="600" xmlns="http://www.w3.org/2000/svg" xmlns:xlink="http://www.w3.org/1999/xlink">
  <g id="22_Avatarf2r1" overflow="visible">
    <g id="Avatar-Manf0r1">
      <g id="Tailf0r1">
        <path id="Layer3_0_1_STROKES" stroke="#009EFF" stroke-width="2.303" stroke-linejoin="round" stroke-linecap="round" fill="none" d="M650.79,1042.392 Q649.628,1025.47 648.987,1008.539 648.413,992.121 643.079,976.615 637.217,959.726 620.884,952.043 601.035,942.786 598.161,963.486 597.741,966.502 599.713,969.149 604.375,975.509 611.004,979.58 617.933,977.05 623.144,981.829 629.418,987.631 632.179,996.33 638.632,1016.858 643.772,1037.558 645.224,1043.35 644.249,1049.226" test="Tail_22"/>
      </g>
      <path fill="#000" stroke="none" d="M612.353,956.315 Q608.249,947.103 603.056,945.763 601.884,945.428 587.646,949.531 570.729,954.389 551.55,954.556 531.618,954.724 512.522,948.526 497.196,942.245 495.437,942.413 489.407,945.093 487.732,946.265 484.718,948.275 484.969,950.788 485.136,952.63 485.304,962.764 485.89,972.563 488.737,975.913 491.836,979.514 506.827,987.303 519.222,993.584 531.869,998.944 540.16,1002.461 552.639,1018.123 559.004,1026.079 566.206,1035.375 567.714,1036.548 566.206,1038.223 565.034,1039.479 565.201,1039.479 L577.094,1035.794 Q592.252,1031.02 602.554,1015.024 611.348,1001.289 614.781,982.613 617.545,967.789 612.353,956.315 M617.713,607.831 L614.698,606.575 Q614.654,606.681 614.614,606.743 613.706,609.061 613.106,611.181 611.515,616.876 609.002,625.586 608.946,625.739 608.835,625.838 606.54,631.935 601.8,634.631 591.834,640.326 586.306,643.006 L590.075,651.381 Q589.656,657.495 591.583,698.449 591.653,699.96 591.666,701.38 593.229,733.381 593.425,743.088 593.423,743.151 593.425,743.171 593.453,745.416 593.425,746.438 593.09,759.586 595.519,780.356 595.854,783.288 600.46,780.859 605.066,778.346 604.731,776.588 604.564,775.331 606.49,776.001 608.081,776.588 608.5,777.006 608.584,777.09 614.781,755.65 L619.806,764.025 Q619.89,764.109 622.738,745.6 L627.762,747.694 Q627.86,747.793 627.176,738.9 627.213,738.88 627.176,738.816 626.222,725.145 623.491,690.409 621.835,669.183 620.56,655.234 618.982,636.588 618.131,630.946 617.893,629.301 617.713,628.769 617.893,629.301 618.131,630.946 618.982,636.588 620.56,655.234 L621.9,655.15 Q623.575,654.983 628.516,650.041 632.871,645.854 636.137,647.194 639.069,648.45 656.656,673.91 676.924,699.705 693.506,703.725 678.599,704.228 656.489,721.229 649.621,726.505 642.838,732.87 L641.833,733.791 Q643.025,746.521 646.941,790.071 L647.863,789.988 Q652.218,787.559 682.703,763.606 712.099,740.408 721.563,732.2 728.598,726.086 734.376,716.455 737.308,711.514 740.825,705.4 742.5,703.474 746.101,700.794 749.033,698.114 749.2,693.675 749.368,689.32 717.543,668.801 682.284,646.859 675.5,641.75 655.567,626.759 646.271,620.729 635.196,613.468 627.679,610.26 621.433,607.602 617.713,607.831 M558.166,602.723 Q560.679,602.304 563.024,601.885 566.793,601.885 566.541,606.491 573.744,605.654 576.591,606.491 579.606,607.413 579.522,610.679 L584.213,612.856 Q587.506,606.454 595.519,601.131 600.125,598.033 604.061,597.028 604.123,597.014 604.145,596.944 L603.056,590.244 Q604.313,590.16 601.884,587.229 597.445,582.12 593.844,577.681 588.986,571.651 572.069,566.208 557.245,561.434 549.037,561.35 522.74,561.099 504.65,568.469 493.427,573.075 483.377,586.978 481.451,589.612 479.86,592.003 475.369,599.121 473.997,604.481 L473.997,606.491 Q474.165,606.491 474.919,606.743 475.756,606.91 476.343,606.91 479.357,606.91 482.372,604.481 485.806,601.634 489.072,601.048 L489.072,603.141 492.841,603.141 Q495.354,602.639 500.127,601.215 503.812,600.043 504.566,600.21 L504.566,602.304 Q505.404,602.304 508.754,602.723 514.281,602.723 519.641,599.791 L523.829,599.791 523.829,601.466 530.529,601.466 Q541.584,598.116 542.254,598.116 543.343,598.116 544.348,598.87 545.52,599.708 547.698,599.791 547.698,601.885 547.279,602.723 L558.166,602.723Z" test="Avatar Man" stroke-width="1.675"/>
      <path id="Layer2_0_1_STROKES" stroke="#009EFF" stroke-width="1.675" stroke-linejoin="round" stroke-linecap="round" fill="none" d="M579.522,610.679 Q579.606,607.413 576.591,606.491 573.744,605.654 566.541,606.491 566.793,601.885 563.024,601.885 560.679,602.304 558.166,602.723 L547.279,602.723 Q547.698,601.885 547.698,599.791 545.52,599.708 544.348,598.87 543.343,598.116 542.254,598.116 541.584,598.116 530.529,601.466 L523.829,601.466 523.829,599.791 519.641,599.791 Q514.281,602.723 508.754,602.723 505.404,602.304 504.566,602.304 L504.566,600.21 Q503.812,600.043 500.127,601.215 495.354,602.639 492.841,603.141 L489.072,603.141 489.072,601.048 Q485.806,601.634 482.372,604.481 479.357,606.91 476.343,606.91 475.756,606.91 474.919,606.743 474.165,606.491 473.997,606.491 L473.997,604.481 Q475.369,599.121 479.902,592.044 481.451,589.612 483.377,586.978 493.427,573.075 504.65,568.469 522.74,561.099 549.037,561.35 557.245,561.434 572.069,566.208 588.986,571.651 593.844,577.681 597.445,582.12 601.884,587.229 604.313,590.16 603.056,590.244 M604.187,596.986 Q604.249,596.992 604.313,596.986 606.845,596.426 612.269,596.106 616.205,595.939 618.634,594.348 619.974,593.51 621.9,591.919 622.654,591.5 619.555,596.86 618.131,599.289 616.959,601.634 616.242,603.042 615.661,604.398 615.522,604.677 615.409,604.942 615.165,605.464 614.949,605.989 614.818,606.284 614.698,606.575 M617.713,607.831 Q621.433,607.602 627.721,610.302 635.196,613.468 646.271,620.729 655.567,626.759 675.5,641.75 682.284,646.859 717.543,668.801 749.368,689.32 749.2,693.675 749.033,698.114 746.101,700.794 742.5,703.474 740.825,705.4 737.308,711.514 734.376,716.455 728.598,726.086 721.563,732.2 712.099,740.408 682.703,763.606 652.218,787.559 647.863,789.988 647.429,790.271 647.025,790.532 642.151,793.694 639.99,794.929 636.137,797.19 632.787,796.688 M616.959,601.634 Q615.654,603.064 614.572,603.895 613.478,604.692 612.604,604.9 609.421,605.151 605.569,605.738 600.627,606.491 597.948,608.334 594.346,611.433 590.912,614.113 586.641,617.463 583.961,619.054 L582.119,619.975 Q582.522,616.28 584.254,612.898 M578.685,610.679 L579.522,610.679 M584.254,612.898 Q587.506,606.454 595.519,601.131 600.125,598.033 604.061,597.028 604.123,597.014 604.187,596.986 M614.698,606.575 Q614.654,606.681 614.614,606.784 613.706,609.061 613.106,611.181 611.515,616.876 609.002,625.586 608.946,625.739 608.877,625.879 606.54,631.935 601.8,634.631 591.834,640.326 586.306,643.006 M590.075,651.381 Q589.656,657.495 591.583,698.449 591.653,699.96 591.708,701.422 593.229,733.381 593.425,743.088 593.423,743.151 593.425,743.213 593.453,745.416 593.425,746.438 593.09,759.586 595.519,780.356 595.854,783.288 600.46,780.859 605.066,778.346 604.731,776.588 604.564,775.331 606.49,776.001 608.081,776.588 608.5,777.006 608.584,777.09 614.781,755.65 L619.806,764.025 Q619.89,764.109 622.738,745.6 L627.762,747.694 Q627.86,747.793 627.218,738.942 627.213,738.88 627.218,738.816 626.222,725.145 623.491,690.409 621.835,669.183 620.602,655.234 618.982,636.588 618.131,630.946 617.893,629.301 617.713,628.769 M641.833,733.833 L642.838,732.87 Q649.621,726.505 656.489,721.229 678.599,704.228 693.506,703.725 676.924,699.705 656.656,673.91 639.069,648.45 636.137,647.194 632.871,645.854 628.516,650.041 623.575,654.983 621.9,655.15 M527.681,648.45 Q528.658,648.607 530.696,648.701 533.021,648.785 536.726,648.785 543.259,648.701 546.106,648.45 551.382,647.948 552.053,647.78 555.402,646.859 555.738,644.263 M576.675,715.45 Q577.512,720.894 579.439,728.766 581.784,738.23 583.794,743.088 M483.294,712.938 Q483.294,713.021 483.629,721.564 483.88,727.678 486.225,731.781 486.979,733.098 488.109,734.378 491.54,738.208 498.452,741.664 508,746.521 517.213,746.856 L520.604,747.108 520.73,747.108 Q529.608,747.443 532.287,747.275 536.894,746.94 542.338,745.181 546.358,743.925 557.161,734.21 564.839,727.235 572.99,718.716 573.096,718.614 573.199,718.507 573.263,718.447 573.325,718.381 573.41,718.301 573.493,718.214 574.779,716.849 576.089,715.45 576.174,715.36 576.256,715.283 576.29,715.234 576.34,715.199 576.353,715.15 576.382,715.115 586.243,704.601 587.563,701.631 M520.563,747.694 Q519.809,751.295 518.385,759.503 516.961,766.621 514.7,770.306 M637.394,738.063 L641.833,733.833 M628.181,804.644 Q628.098,804.811 619.639,826.838 613.609,842.499 611.431,851.544 608.751,862.515 606.406,895.178 604.061,927.003 605.15,934.038 M556.91,847.691 Q557.412,849.534 559.088,850.036 559.59,850.204 560.93,850.204 563.108,850.204 563.945,849.199 564.28,848.864 565.62,845.765 M523.41,835.548 Q523.242,850.79 524.331,853.135 526.09,857.323 535.973,857.323 540.746,857.323 541.165,857.239 541.667,857.155 543.51,856.066 M524.666,887.054 Q523.829,889.566 523.829,892.33 523.829,896.936 527.514,897.188 529.943,897.271 537.647,897.104 M521.735,921.81 Q526.006,924.741 528.77,925.411 530.78,925.83 534.297,925.16 M564.531,1039.981 Q558.25,1042.912 541.416,1046.095 524.415,1049.278 506.325,1050.869 490.664,1052.293 453.814,1051.539 426.009,1051.036 410.012,1050.031 397.701,1049.278 372.744,1046.681 366.546,1046.011 361.94,1047.016 358.674,1047.77 357.669,1047.1 M478.269,591.081 Q475.086,589.155 471.317,587.145 463.78,583.209 461.519,583.544 459.09,583.879 461.1,595.855 462.775,606.073 464.45,610.344 M468.637,621.65 Q469.307,624.414 471.066,629.941 472.071,634.38 469.475,636.306 466.277,638.69 463.236,640.913 L463.194,640.954 Q417.498,674.885 411.687,676.925 406.579,678.433 405.323,678.851 403.564,679.521 403.312,681.113 402.894,684.379 402.726,695.601 402.475,708.499 403.312,711.263 406.16,722.653 428.102,755.064 449.626,786.805 462.356,799.2 M470.312,650.544 Q472.909,651.884 478.101,652.554 478.312,652.586 478.52,652.596 483.421,653.297 488.319,653.056 491.417,652.889 498.62,651.716 504.482,650.711 506.325,650.963 M469.894,672.319 Q468.889,673.994 458.085,684.798 448.286,694.596 445.606,697.025 M490.329,691.916 Q494.097,691.916 498.285,691.079 L514.616,691.079 Q509.591,696.439 506.744,699.286 501.468,704.479 500.211,704.479 497.95,704.479 494.6,699.789 491.166,694.429 489.91,693.173 M436.394,692.419 Q437.831,695.891 440.916,700.291 440.95,700.34 441,700.375 448.678,711.386 466.544,728.18 474.843,735.974 480.949,741.915 495.077,755.62 497.531,759.419 M469.475,822.65 Q468.889,835.966 471.569,842.331 473.244,846.184 478.352,850.539 483.629,854.81 488.319,856.15 M483.713,863.688 Q483.796,866.284 483.377,877.004 483.21,887.054 484.55,889.65 486.141,892.749 490.077,895.345 493.93,897.858 496.275,897.606 M489.575,900.956 Q489.659,903.72 489.659,907.991 489.826,911.174 491.25,913.1 491.417,913.351 495.94,916.45 498.955,918.544 498.787,922.313 498.62,925.16 496.861,932.195 495.354,938.058 495.856,939.9 M475.338,952.044 Q455.74,948.443 432.039,944.758 384.72,937.471 364.871,937.471 351.639,937.471 336.564,934.708 324.671,932.53 322.159,933.284 317.804,934.624 313.7,941.491 309.596,948.443 309.931,954.138 310.182,957.99 311.522,968.208 312.611,977.336 311.606,980.938 M474.919,976.331 Q467.214,977.588 431.704,978.341 393.179,979.179 386.981,979.681 380.114,980.268 358.255,983.785 338.406,986.968 330.45,987.219 320.986,987.554 312.611,986.381 308.256,985.795 301.975,984.288 298.709,983.534 295.359,985.795 293.6,987.051 289.412,991.406 284.639,996.348 288.994,1006.9 289.831,1008.994 288.407,1020.97 286.816,1033.03 287.737,1035.375 L290.669,1042.494 Q293.935,1051.455 295.275,1060.919 M354.319,1035.375 Q355.491,1039.144 357.669,1049.948 360.014,1061.505 359.762,1063.85" test="Avatar Man"/>
      <path id="Layer2_0_2_STROKES" stroke="#FF0" stroke-width="1.675" stroke-linejoin="round" stroke-linecap="round" fill="none" d="M530.529,651.716 Q529.691,656.406 531.366,659.84 533.125,663.441 536.391,663.441 537.731,663.441 539.574,662.436 541.667,661.264 542.254,659.673 M478.185,655.485 Q477.347,661.348 477.347,661.766 477.347,663.47 478.604,665.284 479.272,666.232 480.279,667.21 483.377,670.141 486.56,670.141 488.235,670.141 489.324,668.466 489.994,667.545 491.166,665.535" test="Avatar Man"/>
      <path id="Layer2_0_3_STROKES" stroke="#FFF" stroke-width="1.675" stroke-linejoin="round" stroke-linecap="round" fill="none" d="M559.841,697.36 Q565.453,699.621 565.704,703.39 565.72,703.628 565.746,703.893 565.741,703.956 565.746,704.018 L565.746,704.144 Q565.777,706.323 565.285,710.341 M552.304,712.435 Q557.823,711.118 561.181,707.075 562.307,705.722 563.191,704.06" test="Avatar Man"/>
      <path id="Layer2_0_4_STROKES" stroke="#F90" stroke-width="1.675" stroke-linejoin="round" stroke-linecap="round" fill="none" d="M495.437,942.413 Q497.196,942.245 512.522,948.526 531.618,954.724 551.55,954.556 570.729,954.389 587.646,949.531 601.884,945.428 603.056,945.763 608.249,947.103 612.353,956.315 617.545,967.789 614.781,982.613 611.348,1001.289 602.554,1015.024 592.252,1031.02 577.094,1035.794 L565.201,1039.479 Q565.034,1039.479 566.206,1038.223 567.714,1036.548 566.206,1035.375 559.004,1026.079 552.639,1018.123 540.16,1002.461 531.869,998.944 519.222,993.584 506.827,987.303 491.836,979.514 488.737,975.913 485.89,972.563 485.304,962.764 485.136,952.63 484.969,950.788 484.718,948.275 487.732,946.265 489.407,945.093 495.437,942.413Z" test="Avatar Man"/>
    </g>
    <g id="Avatar-Lady">
      <path fill="#000" stroke="none" d="M251.593,908.826 Q247.881,908.361 244.763,908.584 236.621,909.666 233.169,910.016 227.527,910.589 221.394,908.83 217.746,908.094 212.479,905.652 202.029,900.758 192.441,891.779 182.972,882.913 176.073,872.174 L174.408,873.364 Q174.628,879.721 172.411,894.748 170.775,906.171 171.195,914.608 171.269,916.179 171.418,917.647 171.726,920.679 173.888,935.261 176.025,956.311 174.277,964.23 173.115,969.537 171.338,975.502 170.343,979.942 170.959,986.004 171.302,989.38 172.486,993.505 L172.495,993.589 Q173.586,997.405 175.379,1001.888 179.048,1011.213 179.535,1016.013 179.792,1018.539 179.114,1021.075 178.741,1022.431 178.216,1023.122 L179.784,1024.324 Q180.016,1026.24 180.104,1029.991 180.113,1030.179 180.138,1030.328 180.265,1035.51 180.168,1044.021 L180.176,1044.105 Q180.144,1047.51 180.069,1051.432 L183.761,1053.439 Q186.017,1049.589 191.844,1041.729 200.005,1030.778 201.911,1026.926 L202.246,1026.042 Q205.49,1021.969 207.971,1013.721 210.784,1002.887 212.811,996.046 213.252,994.526 213.615,993.072 213.816,992.553 213.933,992.018 214.014,991.905 213.992,991.757 214.064,991.692 214.059,991.58 L214.059,991.58 Q218.071,977.948 220.653,969.389 225.981,951.494 229.152,943.345 230.609,939.546 232.702,935.584 233.535,933.982 234.415,932.347 L234.634,931.985 234.709,931.892 Q236.998,928.089 239.793,924.145 246.263,914.981 251.377,910.889 L251.593,908.826 M216.022,760.421 L214.184,748.188 213.763,748.23 Q204.332,749.188 198.835,750.342 187.765,752.742 179.224,757.437 171.021,762.098 163.654,769.141 160.863,771.778 158.172,774.632 158.174,774.672 158.096,774.725 157.909,774.958 157.634,775.197 153.666,779.663 150.002,784.649 143.716,793.113 141.539,801.841 139.355,810.485 139.386,820.009 L139.281,823.167 Q141.98,823.256 145.261,823.411 150.651,823.714 158.43,827.433 158.832,827.646 164.018,830.524 164.067,830.536 164.102,830.515 165.862,831.546 168.164,832.825 165.862,831.546 164.102,830.515 164.067,830.536 164.018,830.524 158.832,827.646 158.43,827.433 150.651,823.714 145.261,823.411 141.98,823.256 139.281,823.167 L137.724,834.64 Q139.477,834.848 141.346,835.123 155.497,837.088 160.86,836.289 155.497,837.088 141.346,835.123 139.477,834.848 137.724,834.64 137.551,834.611 137.379,834.59 125.644,833.095 119.365,833.952 L115.263,838.792 Q117.587,840.778 122.767,844.835 129.657,850.193 133.92,852.465 134.745,852.856 135.437,853.162 141.319,855.797 147.878,855.046 152.669,854.474 159.626,855.129 165.117,855.592 166.741,854.832 L172.191,855.724 170.964,862.91 175.963,871.93 Q176.051,872.067 176.073,872.174 182.972,882.913 192.441,891.779 202.029,900.758 212.479,905.652 217.746,908.094 221.394,908.83 227.527,910.589 233.169,910.016 236.621,909.666 244.763,908.584 247.881,908.361 251.593,908.826 L251.677,908.817 Q254.58,909.247 257.843,910.063 267.784,912.456 270.707,912.755 276.99,913.478 280.499,912.015 282.124,911.255 286.363,907.762 288.953,905.627 290.297,897.92 291.689,888.166 292.767,882.867 293.979,877.215 299.528,865.678 300.259,864.15 300.93,862.728 305.476,853.057 307.123,848.318 307.304,847.806 307.45,847.349 309.956,839.353 306.699,829.901 304.17,822.587 299.784,817.928 L293.38,810.157 Q292.872,810.562 292.177,810.874 286.95,813.021 286.63,807.354 L281.861,805.627 266.508,810.248 Q266.629,810.668 266.762,811.073 266.516,810.835 266.205,810.619 263.456,808.013 259.326,805.703 250.232,800.757 242.538,802.9 235.097,805.016 222.899,813.911 211.241,822.986 205.344,827.008 204.556,827.62 203.838,828.096 199.859,830.797 185.531,839.653 184.093,840.548 182.805,841.291 179.081,843.704 176.739,845.225 174.276,846.997 173.51,847.764 174.276,846.997 176.739,845.225 179.081,843.704 182.805,841.291 184.093,840.548 185.531,839.653 199.859,830.797 203.838,828.096 204.556,827.62 205.344,827.008 211.241,822.986 222.899,813.911 235.097,805.016 242.538,802.9 250.232,800.757 259.326,805.703 263.456,808.013 266.205,810.619 L266.508,810.248 Q266.443,810.044 266.381,809.836 265.355,806.554 264.467,802.714 262.457,793.816 263.361,790.152 264.081,787.186 270.854,783.521 276.887,780.101 276.278,778.291 274.595,773.443 266.466,766.272 L258.692,760.086 Q246.457,770.021 235.293,779.306 223.617,789.127 213.14,798.229 195.513,813.97 189.079,819.302 181.54,825.561 175.368,829.201 173.319,830.455 171.421,831.388 173.319,830.455 175.368,829.201 181.54,825.561 189.079,819.302 195.513,813.97 213.14,798.229 223.617,789.127 235.293,779.306 L229.092,771.854 Q228.232,770.92 223.088,766.339 217.48,761.379 216.022,760.421 M252.551,819.407 Q251.244,818.264 247.226,818.076 244.182,817.934 235.538,823.601 232.766,825.458 229.422,827.88 215.635,837.872 213.277,838.112 215.635,837.872 229.422,827.88 232.766,825.458 235.538,823.601 244.182,817.934 247.226,818.076 251.244,818.264 252.551,819.407 253.858,820.55 258.055,822.506 253.858,820.55 252.551,819.407 M248.556,833.679 Q250.43,831.191 250.276,829.676 250.233,829.255 247.914,827.364 250.233,829.255 250.276,829.676 250.43,831.191 248.556,833.679 246.539,836.435 244.434,836.649 238.287,837.273 237.842,832.895 237.774,832.221 237.833,831.96 238.034,831.429 239.159,829.103 238.034,831.429 237.833,831.96 237.774,832.221 237.842,832.895 238.287,837.273 244.434,836.649 246.539,836.435 248.556,833.679 M235.265,887.941 Q234.953,888.789 234.418,889.643 232.964,892.087 232.022,892.864 232.964,892.087 234.418,889.643 234.953,888.789 235.265,887.941 236.402,885.734 236.219,883.931 L235.677,881.944 236.219,883.931 Q236.402,885.734 235.265,887.941 M273.945,855.005 Q276.077,854.788 278.801,853.406 281.753,852.015 285.364,849.337 290.514,845.435 291.62,843.087 292.05,842.301 291.988,841.688 291.92,841.015 290.005,838.912 288.174,836.801 287.475,836.617 288.174,836.801 290.005,838.912 291.92,841.015 291.988,841.688 292.05,842.301 291.62,843.087 290.514,845.435 285.364,849.337 281.753,852.015 278.801,853.406 276.077,854.788 273.945,855.005 270.661,855.338 268.232,853.203 264.395,849.764 264.126,849.622 264.395,849.764 268.232,853.203 270.661,855.338 273.945,855.005 M293.553,857.097 Q293.484,856.423 292.363,855.431 293.484,856.423 293.553,857.097 293.664,858.191 293.337,859.16 293.01,860.129 292.245,860.973 290.631,862.668 288.189,862.916 287.263,863.01 285.249,862.449 283.32,861.879 282.055,861.157 283.32,861.879 285.249,862.449 287.263,863.01 288.189,862.916 290.631,862.668 292.245,860.973 293.01,860.129 293.337,859.16 293.664,858.191 293.553,857.097 M256.222,890.747 Q259.901,890.118 263.664,889.48 259.901,890.118 256.222,890.747 246.188,893.297 237.069,888.948 246.188,893.297 256.222,890.747 M191.057,791.028 Q186.731,786.959 180.345,785.226 174.043,783.484 168.731,784.789 174.043,783.484 180.345,785.226 186.731,786.959 191.057,791.028Z" test="Avatar Lady" stroke-width="1.693"/>
      <path id="Layer1_0_1_STROKES" stroke="#009EFF" stroke-width="1.693" stroke-linejoin="round" stroke-linecap="round" fill="none" d="M281.861,805.627 Q280.449,801.772 283.41,799.94 286.279,798.033 289.048,796.816 M256.656,755.954 Q256.832,755.171 256.789,754.75 256.703,753.908 253.378,748.801 249.453,742.82 248.828,741.692 246.531,737.502 241.957,736.861 237.283,736.91 235.606,736.314 236.071,737.543 236.49,741.669 L236.938,747.749 Q236.694,747.858 234.773,747.373 232.684,746.905 231.757,746 228.474,747.332 226.688,747.343 222.427,747.265 217.712,747.744 L214.184,748.188 M216.022,760.421 Q217.48,761.379 223.088,766.339 228.232,770.92 229.092,771.854 M235.606,736.314 Q235.594,736.231 235.514,736.239 L235.488,735.986 Q235.587,736.145 235.606,736.314Z M213.763,748.23 Q213.746,748.062 213.83,748.053 214.008,748.2 214.184,748.188 L213.763,748.23 Q204.332,749.188 198.835,750.342 187.765,752.742 179.224,757.437 171.021,762.098 163.654,769.141 160.863,771.778 158.214,774.628 158.174,774.672 158.139,774.72 157.909,774.958 157.676,775.193 153.666,779.663 150.002,784.649 143.716,793.113 141.539,801.841 139.355,810.485 139.386,820.009 M139.286,823.21 Q141.98,823.256 145.261,823.411 150.651,823.714 158.43,827.433 158.832,827.646 164.018,830.524 164.067,830.536 164.106,830.557 165.862,831.546 168.164,832.825 M258.055,822.506 Q253.858,820.55 252.551,819.407 251.244,818.264 247.226,818.076 244.182,817.934 235.542,823.643 232.766,825.458 229.422,827.88 215.635,837.872 213.277,838.112 M264.126,849.622 Q264.395,849.764 268.232,853.203 270.661,855.338 273.945,855.005 276.077,854.788 278.848,853.443 281.753,852.015 285.364,849.337 290.514,845.435 291.662,843.083 292.05,842.301 291.988,841.688 291.92,841.015 290.005,838.912 288.174,836.801 287.475,836.617 M299.784,817.928 Q304.17,822.587 306.699,829.901 309.956,839.353 307.45,847.349 307.304,847.806 307.123,848.318 305.476,853.057 300.93,862.728 300.259,864.15 299.528,865.678 293.979,877.215 292.767,882.867 291.689,888.166 290.297,897.92 288.953,905.627 286.363,907.762 282.124,911.255 280.499,912.015 276.99,913.478 270.707,912.755 267.784,912.456 257.843,910.063 254.58,909.247 251.681,908.859 L251.597,908.868 M251.377,910.889 Q246.263,914.981 239.793,924.145 236.998,928.089 234.752,931.888 L234.676,931.981 234.458,932.343 Q233.535,933.982 232.702,935.584 230.609,939.546 229.152,943.345 225.981,951.494 220.653,969.389 218.071,977.948 214.101,991.576 L214.063,991.622 Q214.064,991.692 214.034,991.753 214.014,991.905 213.98,992.056 213.816,992.553 213.657,993.067 213.252,994.526 212.811,996.046 210.784,1002.887 207.971,1013.721 205.49,1021.969 202.246,1026.042 M201.911,1026.926 Q200.005,1030.778 191.844,1041.729 186.017,1049.589 183.765,1053.481 183.055,1054.743 182.703,1055.588 M282.055,861.157 Q283.32,861.879 285.249,862.449 287.263,863.01 288.189,862.916 290.631,862.668 292.245,860.973 293.01,860.129 293.337,859.16 293.664,858.191 293.553,857.097 293.484,856.423 292.363,855.431 M251.597,908.868 Q247.881,908.361 244.763,908.584 236.621,909.666 233.169,910.016 227.527,910.589 221.394,908.83 217.746,908.094 212.479,905.652 202.029,900.758 192.441,891.779 182.972,882.913 176.12,872.212 M174.408,873.364 Q174.628,879.721 172.411,894.748 170.775,906.171 171.195,914.608 171.269,916.179 171.418,917.647 171.726,920.679 173.888,935.261 176.025,956.311 174.277,964.23 173.115,969.537 171.338,975.502 170.343,979.942 170.959,986.004 171.302,989.38 172.49,993.547 L172.495,993.589 Q173.586,997.405 175.379,1001.888 179.048,1011.213 179.535,1016.013 179.792,1018.539 179.114,1021.075 178.741,1022.431 178.22,1023.165 M179.784,1024.324 Q180.016,1026.24 180.108,1030.033 180.113,1030.179 180.138,1030.328 180.265,1035.51 180.172,1044.063 L180.176,1044.105 Q180.144,1047.51 180.069,1051.432 M230.124,945.373 L230.106,950.224 Q230.191,951.066 231.123,954.374 232.054,957.682 232.14,958.524 232.225,959.366 233.53,964.678 234.751,969 234.836,970.841 235.555,977.913 228.292,1008.595 220.945,1039.285 221.586,1045.6 222.21,1051.747 232.951,1065.373 241.347,1076.004 251.653,1086.187 259.117,1093.51 278.271,1128.825 278.382,1129.92 279.081,1130.104 279.688,1130.213 279.712,1129.615 M194.641,1086.021 Q196.865,1086.986 208.897,1096.568 221.781,1106 222.029,1109.441 222.337,1112.472 244.606,1125.693 266.875,1138.915 267.217,1142.283 267.32,1143.293 267.648,1143.175 267.976,1143.056 267.993,1143.225 L268.607,1142.567 M191.057,791.028 Q186.731,786.959 180.345,785.226 174.043,783.484 168.731,784.789 M139.286,823.21 Q139.203,823.228 139.117,823.227 139.03,823.225 138.949,823.244 134.854,823.158 132.157,823.38 124.899,823.947 119.875,826.414 113.64,829.514 112.933,830.096 111.756,831.067 112.079,833.416 112.504,835.925 113.947,837.565 114.343,837.963 115.073,838.599 115.165,838.671 115.258,838.75 L115.305,838.788 M119.365,833.952 Q125.644,833.095 137.379,834.59 137.551,834.611 137.724,834.64 M115.305,838.788 Q117.587,840.778 122.767,844.835 129.657,850.193 133.962,852.461 134.745,852.856 135.437,853.162 141.319,855.797 147.878,855.046 152.669,854.474 159.626,855.129 165.117,855.592 166.741,854.832 M170.964,862.91 L175.963,871.93 Q176.051,872.067 176.12,872.212 M130.788,858.483 Q128.326,861.88 127.688,879.894 127.414,888.089 127.358,890.051 127.372,893.537 127.765,897.41 128.244,902.126 131.249,912.454 134.17,922.791 134.769,928.685 134.831,929.298 134.897,929.948 135.114,932.757 135.109,936.221 135.112,941.9 134.527,949.339 134.117,954.554 133.42,960.637 130.985,981.897 132.729,999.073 133.011,1001.852 135.189,1010.733 137.316,1019.109 137.31,1020.726 M137.724,834.64 Q139.477,834.848 141.346,835.123 155.497,837.088 160.86,836.289 M152.877,874.955 L153.259,877.042 Q153.456,878.979 152.723,884.328 151.998,889.761 152.275,894.156 152.518,899.065 153.356,907.317 153.45,908.243 154.086,911.156 154.73,914.153 154.842,915.248 154.848,915.308 154.854,915.374 155.069,917.639 154.919,921.875 154.834,926.903 154.205,928.243 153.541,929.246 152.357,931.833 151.514,933.577 151.12,934.723 150.726,935.869 150.781,936.416 M156.881,971.356 Q156.95,972.029 156.64,979.036 156.247,986.052 156.349,987.062 156.537,988.915 158.575,993.897 159.56,996.412 160.084,997.869 160.571,999.312 160.613,999.73 160.904,1002.592 159.001,1008.145 157.29,1013.083 155.786,1015.022 M134.897,929.948 Q130.158,931.025 125.156,937.062 120.516,942.603 119.674,948.422 119.433,950.119 119.511,951.842 119.722,957.265 121.307,1013.929 123.017,1069.305 123.531,1075.208 123.933,1079.165 124.036,1086.045 124.061,1087.055 124.103,1087.952 L124.111,1088.037 Q124.317,1090.916 124.872,1092.596 125.362,1094.077 165.353,1141.908 205.039,1189.259 205.465,1192.619 M117.619,948.291 Q109.955,953.237 102.223,957.51 91.183,963.565 84.827,964.636 71.549,966.239 56.022,967.476 25.043,969.856 13.882,968.012 M178.22,1023.165 Q177.737,1023.852 177.105,1023.916 M180.069,1051.432 L180.074,1051.474 Q180.059,1053.424 180.017,1055.521 179.79,1066.722 179.316,1081.708 179.245,1085.203 189.939,1100.875 203.114,1120.039 206.096,1125.946 226.453,1166.413 228.781,1185.147 M28.892,1068.91 Q35.57,1069.338 52.419,1073.581 70.76,1078.269 80.914,1082.768 94.718,1088.852 98.298,1089.764 105.729,1091.732 114.972,1089.773 118.719,1088.967 121.858,1088.053" test="Avatar Lady"/>
      <path id="Layer1_0_2_STROKES" stroke="#FFBC00" stroke-width="1.693" stroke-linejoin="round" stroke-linecap="round" fill="none" d="M235.335,779.301 Q246.457,770.021 258.692,760.086 L266.466,766.272 Q274.595,773.443 276.278,778.291 276.887,780.101 270.854,783.521 264.081,787.186 263.361,790.152 262.457,793.816 264.467,802.714 265.355,806.554 266.381,809.836 266.443,810.044 266.508,810.248 M171.421,831.388 Q173.319,830.455 175.372,829.243 181.54,825.561 189.079,819.302 195.513,813.97 213.14,798.229 223.617,789.127 235.335,779.301 M266.247,810.615 Q266.516,810.835 266.762,811.073 266.629,810.668 266.508,810.248 M266.247,810.615 Q263.456,808.013 259.326,805.703 250.232,800.757 242.538,802.9 235.097,805.016 222.899,813.911 211.241,822.986 205.39,827.045 204.556,827.62 203.838,828.096 199.859,830.797 185.531,839.653 184.093,840.548 182.809,841.333 179.081,843.704 176.786,845.262 174.276,846.997 173.51,847.764" test="Avatar Lady"/>
      <path id="Layer1_0_3_STROKES" stroke="#FF0" stroke-width="1.693" stroke-linejoin="round" stroke-linecap="round" fill="none" d="M286.63,807.354 Q286.95,813.021 292.177,810.874 292.872,810.562 293.422,810.153 295.343,808.664 295.327,805.876 295.289,802.987 292.433,802.512 M239.159,829.103 Q238.034,831.429 237.833,831.96 237.774,832.221 237.842,832.895 238.287,837.273 244.434,836.649 246.539,836.435 248.556,833.679 250.43,831.191 250.276,829.676 250.233,829.255 247.914,827.364" test="Avatar Lady"/>
      <path id="Layer1_0_4_STROKES" stroke="#FFF" stroke-width="1.693" stroke-linejoin="round" stroke-linecap="round" fill="none" d="M235.677,881.944 L236.219,883.931 Q236.402,885.734 235.312,887.978 234.953,888.789 234.418,889.643 232.964,892.087 232.022,892.864 M237.069,888.948 Q246.188,893.297 256.222,890.747 259.901,890.118 263.664,889.48" test="Avatar Lady"/>
    </g>
  </g>
</svg>