<?xml version="1.0" encoding="utf-8"?>
<svg id="EdithAnim13" image-rendering="inherit" baseProfile="basic" version="1.1" x="0px" y="0px" width="800" height="600" xmlns="http://www.w3.org/2000/svg" xmlns:xlink="http://www.w3.org/1999/xlink">
  <g id="22_Avatarf20r1" overflow="visible">
    <g id="Avatar-Manf0r1">
      <g id="Tailf0r1">
        <path id="Layer3_0_1_STROKES" stroke="#009EFF" stroke-width="2.303" stroke-linejoin="round" stroke-linecap="round" fill="none" d="M650.79,755.892 Q649.628,738.97 648.987,722.039 648.413,705.621 643.079,690.115 637.217,673.226 620.884,665.543 601.035,656.286 598.161,676.986 597.741,680.002 599.713,682.649 604.375,689.009 611.004,693.08 617.933,690.55 623.144,695.329 629.418,701.131 632.179,709.83 638.632,730.358 643.772,751.058 645.224,756.85 644.249,762.726" test="Tail_2.3242325232423263e+312.3242325232423263e+31_2.3242325232423263e+312.3242325232423263e+31_23242325232423262324232523242326"/>
      </g>
      <path fill="#000" stroke="none" d="M612.353,669.815 Q608.249,660.603 603.056,659.263 601.884,658.928 587.646,663.031 570.729,667.889 551.55,668.056 531.618,668.224 512.522,662.026 497.196,655.745 495.437,655.913 489.407,658.593 487.732,659.765 484.718,661.775 484.969,664.288 485.136,666.13 485.304,676.264 485.89,686.063 488.737,689.413 491.836,693.014 506.827,700.803 519.222,707.084 531.869,712.444 540.16,715.961 552.639,731.623 559.004,739.579 566.206,748.875 567.714,750.048 566.206,751.723 565.034,752.979 565.201,752.979 L577.094,749.294 Q592.252,744.52 602.554,728.524 611.348,714.789 614.781,696.113 617.545,681.289 612.353,669.815 M617.713,321.331 L614.698,320.075 Q614.654,320.181 614.614,320.243 613.706,322.561 613.106,324.681 611.515,330.376 609.002,339.086 608.946,339.239 608.835,339.338 606.54,345.435 601.8,348.131 591.834,353.826 586.306,356.506 L590.075,364.881 Q589.656,370.995 591.583,411.949 591.653,413.46 591.666,414.88 593.229,446.881 593.425,456.588 593.423,456.651 593.425,456.671 593.453,458.916 593.425,459.938 593.09,473.086 595.519,493.856 595.854,496.788 600.46,494.359 605.066,491.846 604.731,490.088 604.564,488.831 606.49,489.501 608.081,490.088 608.5,490.506 608.584,490.59 614.781,469.15 L619.806,477.525 Q619.89,477.609 622.738,459.1 L627.762,461.194 Q627.86,461.293 627.176,452.4 627.213,452.38 627.176,452.316 626.222,438.645 623.491,403.909 621.835,382.683 620.56,368.734 618.982,350.088 618.131,344.446 617.893,342.801 617.713,342.269 617.893,342.801 618.131,344.446 618.982,350.088 620.56,368.734 L621.9,368.65 Q623.575,368.483 628.516,363.541 632.871,359.354 636.137,360.694 639.069,361.95 656.656,387.41 676.924,413.205 693.506,417.225 678.599,417.728 656.489,434.729 649.621,440.005 642.838,446.37 L641.833,447.291 Q643.025,460.021 646.941,503.571 L647.863,503.488 Q652.218,501.059 682.703,477.106 712.099,453.908 721.563,445.7 728.598,439.586 734.376,429.955 737.308,425.014 740.825,418.9 742.5,416.974 746.101,414.294 749.033,411.614 749.2,407.175 749.368,402.82 717.543,382.301 682.284,360.359 675.5,355.25 655.567,340.259 646.271,334.229 635.196,326.968 627.679,323.76 621.433,321.102 617.713,321.331 M558.166,316.223 Q560.679,315.804 563.024,315.385 566.793,315.385 566.541,319.991 573.744,319.154 576.591,319.991 579.606,320.913 579.522,324.179 L584.213,326.356 Q587.506,319.954 595.519,314.631 600.125,311.533 604.061,310.528 604.123,310.514 604.145,310.444 L603.056,303.744 Q604.313,303.66 601.884,300.729 597.445,295.62 593.844,291.181 588.986,285.151 572.069,279.708 557.245,274.934 549.037,274.85 522.74,274.599 504.65,281.969 493.427,286.575 483.377,300.478 481.451,303.112 479.86,305.503 475.369,312.621 473.997,317.981 L473.997,319.991 Q474.165,319.991 474.919,320.243 475.756,320.41 476.343,320.41 479.357,320.41 482.372,317.981 485.806,315.134 489.072,314.548 L489.072,316.641 492.841,316.641 Q495.354,316.139 500.127,314.715 503.812,313.543 504.566,313.71 L504.566,315.804 Q505.404,315.804 508.754,316.223 514.281,316.223 519.641,313.291 L523.829,313.291 523.829,314.966 530.529,314.966 Q541.584,311.616 542.254,311.616 543.343,311.616 544.348,312.37 545.52,313.208 547.698,313.291 547.698,315.385 547.279,316.223 L558.166,316.223Z" test="Avatar Man" stroke-width="1.675"/>
      <path id="Layer2_0_1_STROKES" stroke="#009EFF" stroke-width="1.675" stroke-linejoin="round" stroke-linecap="round" fill="none" d="M579.522,324.179 Q579.606,320.913 576.591,319.991 573.744,319.154 566.541,319.991 566.793,315.385 563.024,315.385 560.679,315.804 558.166,316.223 L547.279,316.223 Q547.698,315.385 547.698,313.291 545.52,313.208 544.348,312.37 543.343,311.616 542.254,311.616 541.584,311.616 530.529,314.966 L523.829,314.966 523.829,313.291 519.641,313.291 Q514.281,316.223 508.754,316.223 505.404,315.804 504.566,315.804 L504.566,313.71 Q503.812,313.543 500.127,314.715 495.354,316.139 492.841,316.641 L489.072,316.641 489.072,314.548 Q485.806,315.134 482.372,317.981 479.357,320.41 476.343,320.41 475.756,320.41 474.919,320.243 474.165,319.991 473.997,319.991 L473.997,317.981 Q475.369,312.621 479.902,305.544 481.451,303.112 483.377,300.478 493.427,286.575 504.65,281.969 522.74,274.599 549.037,274.85 557.245,274.934 572.069,279.708 588.986,285.151 593.844,291.181 597.445,295.62 601.884,300.729 604.313,303.66 603.056,303.744 M604.187,310.486 Q604.249,310.492 604.313,310.486 606.845,309.926 612.269,309.606 616.205,309.439 618.634,307.847 619.974,307.01 621.9,305.419 622.654,305 619.555,310.36 618.131,312.789 616.959,315.134 616.242,316.542 615.661,317.898 615.522,318.177 615.409,318.442 615.165,318.964 614.949,319.489 614.818,319.784 614.698,320.075 M617.713,321.331 Q621.433,321.102 627.721,323.802 635.196,326.968 646.271,334.229 655.567,340.259 675.5,355.25 682.284,360.359 717.543,382.301 749.368,402.82 749.2,407.175 749.033,411.614 746.101,414.294 742.5,416.974 740.825,418.9 737.308,425.014 734.376,429.955 728.598,439.586 721.563,445.7 712.099,453.908 682.703,477.106 652.218,501.059 647.863,503.488 647.429,503.771 647.025,504.032 642.151,507.194 639.99,508.429 636.137,510.69 632.787,510.188 M616.959,315.134 Q615.654,316.564 614.572,317.395 613.478,318.192 612.604,318.4 609.421,318.651 605.569,319.238 600.627,319.991 597.948,321.834 594.346,324.933 590.912,327.613 586.641,330.963 583.961,332.554 L582.119,333.475 Q582.522,329.78 584.254,326.398 M578.685,324.179 L579.522,324.179 M584.254,326.398 Q587.506,319.954 595.519,314.631 600.125,311.533 604.061,310.528 604.123,310.514 604.187,310.486 M614.698,320.075 Q614.654,320.181 614.614,320.284 613.706,322.561 613.106,324.681 611.515,330.376 609.002,339.086 608.946,339.239 608.877,339.379 606.54,345.435 601.8,348.131 591.834,353.826 586.306,356.506 M590.075,364.881 Q589.656,370.995 591.583,411.949 591.653,413.46 591.708,414.922 593.229,446.881 593.425,456.588 593.423,456.651 593.425,456.713 593.453,458.916 593.425,459.938 593.09,473.086 595.519,493.856 595.854,496.788 600.46,494.359 605.066,491.846 604.731,490.088 604.564,488.831 606.49,489.501 608.081,490.088 608.5,490.506 608.584,490.59 614.781,469.15 L619.806,477.525 Q619.89,477.609 622.738,459.1 L627.762,461.194 Q627.86,461.293 627.218,452.442 627.213,452.38 627.218,452.316 626.222,438.645 623.491,403.909 621.835,382.683 620.602,368.734 618.982,350.088 618.131,344.446 617.893,342.801 617.713,342.269 M641.833,447.333 L642.838,446.37 Q649.621,440.005 656.489,434.729 678.599,417.728 693.506,417.225 676.924,413.205 656.656,387.41 639.069,361.95 636.137,360.694 632.871,359.354 628.516,363.541 623.575,368.483 621.9,368.65 M527.681,361.95 Q528.658,362.107 530.696,362.201 533.021,362.285 536.726,362.285 543.259,362.201 546.106,361.95 551.382,361.448 552.053,361.28 555.402,360.359 555.738,357.763 M576.675,428.95 Q577.512,434.394 579.439,442.266 581.784,451.73 583.794,456.588 M483.294,426.438 Q483.294,426.521 483.629,435.064 483.88,441.178 486.225,445.281 486.979,446.598 488.109,447.878 491.54,451.708 498.452,455.164 508,460.021 517.213,460.356 L520.604,460.608 520.73,460.608 Q529.608,460.943 532.287,460.775 536.894,460.44 542.338,458.681 546.358,457.425 557.161,447.71 564.839,440.735 572.99,432.216 573.096,432.114 573.199,432.007 573.263,431.947 573.325,431.881 573.41,431.801 573.493,431.714 574.779,430.349 576.089,428.95 576.174,428.86 576.256,428.783 576.29,428.734 576.34,428.699 576.353,428.65 576.382,428.615 586.243,418.101 587.563,415.131 M520.563,461.194 Q519.809,464.795 518.385,473.003 516.961,480.121 514.7,483.806 M637.394,451.563 L641.833,447.333 M628.181,518.144 Q628.098,518.311 619.639,540.338 613.609,555 611.431,565.044 608.751,576.015 606.406,608.678 604.061,640.503 605.15,647.538 M556.91,561.191 Q557.412,563.034 559.088,563.536 559.59,563.704 560.93,563.704 563.108,563.704 563.945,562.699 564.28,562.364 565.62,559.265 M523.41,549.048 Q523.242,564.29 524.331,566.635 526.09,570.823 535.973,570.823 540.746,570.823 541.165,570.739 541.667,570.655 543.51,569.566 M524.666,600.554 Q523.829,603.066 523.829,605.83 523.829,610.436 527.514,610.688 529.943,610.771 537.647,610.604 M521.735,635.31 Q526.006,638.241 528.77,638.911 530.78,639.33 534.297,638.66 M564.531,753.481 Q558.25,756.413 541.416,759.595 524.415,762.778 506.325,764.369 490.664,765.793 453.814,765.039 426.009,764.536 410.012,763.531 397.701,762.778 372.744,760.181 366.546,759.511 361.94,760.516 358.674,761.27 357.669,760.6 M478.269,304.581 Q475.086,302.655 471.317,300.645 463.78,296.709 461.519,297.044 459.09,297.379 461.1,309.355 462.775,319.573 464.45,323.844 M468.637,335.15 Q469.307,337.914 471.066,343.441 472.071,347.88 469.475,349.806 466.277,352.19 463.236,354.413 L463.194,354.454 Q417.498,388.385 411.687,390.425 406.579,391.933 405.323,392.351 403.564,393.021 403.312,394.613 402.894,397.879 402.726,409.101 402.475,421 403.312,424.763 406.16,436.153 428.102,468.564 449.626,500.305 462.356,512.7 M470.312,364.044 Q472.909,365.384 478.101,366.054 478.312,366.086 478.52,366.096 483.421,366.797 488.319,366.556 491.417,366.389 498.62,365.216 504.482,364.211 506.325,364.463 M469.894,385.819 Q468.889,387.494 458.085,398.298 448.286,408.096 445.606,410.525 M490.329,405.416 Q494.097,405.416 498.285,404.579 L514.616,404.579 Q509.591,409.939 506.744,412.786 501.468,417.979 500.211,417.979 497.95,417.979 494.6,413.289 491.166,407.929 489.91,406.673 M436.394,405.919 Q437.831,409.391 440.916,413.791 440.95,413.84 441,413.875 448.678,424.886 466.544,441.68 474.843,449.474 480.949,455.415 495.077,469.12 497.531,472.919 M469.475,536.15 Q468.889,549.466 471.569,555.831 473.244,559.684 478.352,564.039 483.629,568.31 488.319,569.65 M483.713,577.188 Q483.796,579.784 483.377,590.504 483.21,600.554 484.55,603.15 486.141,606.249 490.077,608.845 493.93,611.358 496.275,611.106 M489.575,614.456 Q489.659,617.22 489.659,621.491 489.826,624.674 491.25,626.6 491.417,626.851 495.94,629.95 498.955,632.044 498.787,635.813 498.62,638.66 496.861,645.695 495.354,651.558 495.856,653.4 M475.338,665.544 Q455.74,661.943 432.039,658.258 384.72,650.971 364.871,650.971 351.639,650.971 336.564,648.208 324.671,646.03 322.159,646.784 317.804,648.124 313.7,654.991 309.596,661.943 309.931,667.638 310.182,671.49 311.522,681.708 312.611,690.836 311.606,694.438 M474.919,689.831 Q467.214,691.088 431.704,691.841 393.179,692.679 386.981,693.181 380.114,693.768 358.255,697.285 338.406,700.468 330.45,700.719 320.986,701.054 312.611,699.881 308.256,699.295 301.975,697.788 298.709,697.034 295.359,699.295 293.6,700.551 289.412,704.906 284.639,709.848 288.994,720.4 289.831,722.494 288.407,734.47 286.816,746.53 287.737,748.875 L290.669,755.994 Q293.935,764.955 295.275,774.419 M354.319,748.875 Q355.491,752.644 357.669,763.448 360.014,775.005 359.762,777.35" test="Avatar Man"/>
      <path id="Layer2_0_2_STROKES" stroke="#FF0" stroke-width="1.675" stroke-linejoin="round" stroke-linecap="round" fill="none" d="M530.529,365.216 Q529.691,369.906 531.366,373.34 533.125,376.941 536.391,376.941 537.731,376.941 539.574,375.936 541.667,374.764 542.254,373.173 M478.185,368.985 Q477.347,374.848 477.347,375.266 477.347,376.97 478.604,378.784 479.272,379.732 480.279,380.71 483.377,383.641 486.56,383.641 488.235,383.641 489.324,381.966 489.994,381.045 491.166,379.035" test="Avatar Man"/>
      <path id="Layer2_0_3_STROKES" stroke="#FFF" stroke-width="1.675" stroke-linejoin="round" stroke-linecap="round" fill="none" d="M559.841,410.86 Q565.453,413.121 565.704,416.89 565.72,417.128 565.746,417.393 565.741,417.456 565.746,417.518 L565.746,417.644 Q565.777,419.823 565.285,423.841 M552.304,425.935 Q557.823,424.618 561.181,420.575 562.307,419.222 563.191,417.56" test="Avatar Man"/>
      <path id="Layer2_0_4_STROKES" stroke="#F90" stroke-width="1.675" stroke-linejoin="round" stroke-linecap="round" fill="none" d="M495.437,655.913 Q497.196,655.745 512.522,662.026 531.618,668.224 551.55,668.056 570.729,667.889 587.646,663.031 601.884,658.928 603.056,659.263 608.249,660.603 612.353,669.815 617.545,681.289 614.781,696.113 611.348,714.789 602.554,728.524 592.252,744.52 577.094,749.294 L565.201,752.979 Q565.034,752.979 566.206,751.723 567.714,750.048 566.206,748.875 559.004,739.579 552.639,731.623 540.16,715.961 531.869,712.444 519.222,707.084 506.827,700.803 491.836,693.014 488.737,689.413 485.89,686.063 485.304,676.264 485.136,666.13 484.969,664.288 484.718,661.775 487.732,659.765 489.407,658.593 495.437,655.913Z" test="Avatar Man"/>
    </g>
    <g id="Avatar-Lady">
      <path fill="#000" stroke="none" d="M251.593,581.826 Q247.881,581.361 244.763,581.584 236.621,582.666 233.169,583.016 227.527,583.589 221.394,581.83 217.746,581.094 212.479,578.652 202.029,573.758 192.441,564.779 182.972,555.913 176.073,545.174 L174.408,546.364 Q174.628,552.721 172.411,567.748 170.775,579.171 171.195,587.608 171.269,589.179 171.418,590.647 171.726,593.679 173.888,608.261 176.025,629.311 174.277,637.23 173.115,642.537 171.338,648.502 170.343,652.942 170.959,659.004 171.302,662.38 172.486,666.505 L172.495,666.589 Q173.586,670.405 175.379,674.888 179.048,684.213 179.535,689.013 179.792,691.539 179.114,694.075 178.741,695.431 178.216,696.122 L179.784,697.324 Q180.016,699.24 180.104,702.991 180.113,703.179 180.138,703.328 180.265,708.51 180.168,717.021 L180.176,717.105 Q180.144,720.51 180.069,724.432 L183.761,726.439 Q186.017,722.589 191.844,714.729 200.005,703.778 201.911,699.926 L202.246,699.042 Q205.49,694.969 207.971,686.721 210.784,675.887 212.811,669.046 213.252,667.526 213.615,666.072 213.816,665.553 213.933,665.018 214.014,664.905 213.992,664.757 214.064,664.692 214.059,664.58 L214.059,664.58 Q218.071,650.948 220.653,642.389 225.981,624.494 229.152,616.345 230.609,612.546 232.702,608.584 233.535,606.982 234.415,605.347 L234.634,604.985 234.709,604.892 Q236.998,601.089 239.793,597.145 246.263,587.981 251.377,583.889 L251.593,581.826 M216.022,433.421 L214.184,421.188 213.763,421.23 Q204.332,422.188 198.835,423.342 187.765,425.742 179.224,430.437 171.021,435.098 163.654,442.141 160.863,444.778 158.172,447.632 158.174,447.672 158.096,447.725 157.909,447.958 157.634,448.197 153.666,452.663 150.002,457.649 143.716,466.113 141.539,474.841 139.355,483.485 139.386,493.009 L139.281,496.167 Q141.98,496.256 145.261,496.411 150.651,496.714 158.43,500.433 158.832,500.646 164.018,503.524 164.067,503.536 164.102,503.515 165.862,504.546 168.164,505.825 165.862,504.546 164.102,503.515 164.067,503.536 164.018,503.524 158.832,500.646 158.43,500.433 150.651,496.714 145.261,496.411 141.98,496.256 139.281,496.167 L137.724,507.64 Q139.477,507.848 141.346,508.123 155.497,510.088 160.86,509.289 155.497,510.088 141.346,508.123 139.477,507.848 137.724,507.64 137.551,507.611 137.379,507.59 125.644,506.095 119.365,506.952 L115.263,511.792 Q117.587,513.778 122.767,517.835 129.657,523.193 133.92,525.465 134.745,525.856 135.437,526.162 141.319,528.797 147.878,528.046 152.669,527.474 159.626,528.129 165.117,528.592 166.741,527.832 L172.191,528.724 170.964,535.91 175.963,544.93 Q176.051,545.067 176.073,545.174 182.972,555.913 192.441,564.779 202.029,573.758 212.479,578.652 217.746,581.094 221.394,581.83 227.527,583.589 233.169,583.016 236.621,582.666 244.763,581.584 247.881,581.361 251.593,581.826 L251.677,581.817 Q254.58,582.247 257.843,583.063 267.784,585.456 270.707,585.755 276.99,586.478 280.499,585.015 282.124,584.255 286.363,580.762 288.953,578.627 290.297,570.92 291.689,561.166 292.767,555.867 293.979,550.215 299.528,538.678 300.259,537.15 300.93,535.728 305.476,526.057 307.123,521.318 307.304,520.806 307.45,520.349 309.956,512.353 306.699,502.901 304.17,495.587 299.784,490.928 L293.38,483.157 Q292.872,483.562 292.177,483.874 286.95,486.021 286.63,480.354 L281.861,478.627 266.508,483.248 Q266.629,483.668 266.762,484.073 266.516,483.835 266.205,483.619 263.456,481.013 259.326,478.703 250.232,473.757 242.538,475.9 235.097,478.016 222.899,486.911 211.241,495.986 205.344,500.008 204.556,500.62 203.838,501.096 199.859,503.797 185.531,512.653 184.093,513.548 182.805,514.291 179.081,516.704 176.739,518.225 174.276,519.997 173.51,520.764 174.276,519.997 176.739,518.225 179.081,516.704 182.805,514.291 184.093,513.548 185.531,512.653 199.859,503.797 203.838,501.096 204.556,500.62 205.344,500.008 211.241,495.986 222.899,486.911 235.097,478.016 242.538,475.9 250.232,473.757 259.326,478.703 263.456,481.013 266.205,483.619 L266.508,483.248 Q266.443,483.044 266.381,482.836 265.355,479.554 264.467,475.714 262.457,466.816 263.361,463.152 264.081,460.186 270.854,456.521 276.887,453.101 276.278,451.291 274.595,446.443 266.466,439.272 L258.692,433.086 Q246.457,443.021 235.293,452.306 223.617,462.127 213.14,471.229 195.513,486.97 189.079,492.302 181.54,498.561 175.368,502.201 173.319,503.455 171.421,504.388 173.319,503.455 175.368,502.201 181.54,498.561 189.079,492.302 195.513,486.97 213.14,471.229 223.617,462.127 235.293,452.306 L229.092,444.854 Q228.232,443.92 223.088,439.339 217.48,434.379 216.022,433.421 M252.551,492.407 Q251.244,491.264 247.226,491.076 244.182,490.934 235.538,496.601 232.766,498.458 229.422,500.88 215.635,510.872 213.277,511.112 215.635,510.872 229.422,500.88 232.766,498.458 235.538,496.601 244.182,490.934 247.226,491.076 251.244,491.264 252.551,492.407 253.858,493.55 258.055,495.506 253.858,493.55 252.551,492.407 M248.556,506.679 Q250.43,504.191 250.276,502.676 250.233,502.255 247.914,500.364 250.233,502.255 250.276,502.676 250.43,504.191 248.556,506.679 246.539,509.435 244.434,509.649 238.287,510.273 237.842,505.895 237.774,505.221 237.833,504.96 238.034,504.429 239.159,502.103 238.034,504.429 237.833,504.96 237.774,505.221 237.842,505.895 238.287,510.273 244.434,509.649 246.539,509.435 248.556,506.679 M235.265,560.941 Q234.953,561.789 234.418,562.643 232.964,565.087 232.022,565.864 232.964,565.087 234.418,562.643 234.953,561.789 235.265,560.941 236.402,558.734 236.219,556.931 L235.677,554.944 236.219,556.931 Q236.402,558.734 235.265,560.941 M273.945,528.005 Q276.077,527.788 278.801,526.406 281.753,525.015 285.364,522.337 290.514,518.435 291.62,516.087 292.05,515.301 291.988,514.688 291.92,514.015 290.005,511.912 288.174,509.801 287.475,509.617 288.174,509.801 290.005,511.912 291.92,514.015 291.988,514.688 292.05,515.301 291.62,516.087 290.514,518.435 285.364,522.337 281.753,525.015 278.801,526.406 276.077,527.788 273.945,528.005 270.661,528.338 268.232,526.203 264.395,522.764 264.126,522.622 264.395,522.764 268.232,526.203 270.661,528.338 273.945,528.005 M293.553,530.097 Q293.484,529.423 292.363,528.431 293.484,529.423 293.553,530.097 293.664,531.191 293.337,532.16 293.01,533.129 292.245,533.973 290.631,535.668 288.189,535.916 287.263,536.01 285.249,535.449 283.32,534.879 282.055,534.157 283.32,534.879 285.249,535.449 287.263,536.01 288.189,535.916 290.631,535.668 292.245,533.973 293.01,533.129 293.337,532.16 293.664,531.191 293.553,530.097 M256.222,563.747 Q259.901,563.118 263.664,562.48 259.901,563.118 256.222,563.747 246.188,566.297 237.069,561.948 246.188,566.297 256.222,563.747 M191.057,464.028 Q186.731,459.959 180.345,458.226 174.043,456.484 168.731,457.789 174.043,456.484 180.345,458.226 186.731,459.959 191.057,464.028Z" test="Avatar Lady" stroke-width="1.693"/>
      <path id="Layer1_0_1_STROKES" stroke="#009EFF" stroke-width="1.693" stroke-linejoin="round" stroke-linecap="round" fill="none" d="M281.861,478.627 Q280.449,474.772 283.41,472.94 286.279,471.033 289.048,469.816 M256.656,428.954 Q256.832,428.171 256.789,427.75 256.703,426.908 253.378,421.801 249.453,415.82 248.828,414.692 246.531,410.502 241.957,409.861 237.283,409.91 235.606,409.314 236.071,410.543 236.49,414.669 L236.938,420.749 Q236.694,420.858 234.773,420.373 232.684,419.905 231.757,419 228.474,420.332 226.688,420.343 222.427,420.265 217.712,420.744 L214.184,421.188 M216.022,433.421 Q217.48,434.379 223.088,439.339 228.232,443.92 229.092,444.854 M235.606,409.314 Q235.594,409.231 235.514,409.239 L235.488,408.986 Q235.587,409.145 235.606,409.314Z M213.763,421.23 Q213.746,421.062 213.83,421.053 214.008,421.2 214.184,421.188 L213.763,421.23 Q204.332,422.188 198.835,423.342 187.765,425.742 179.224,430.437 171.021,435.098 163.654,442.141 160.863,444.778 158.214,447.628 158.174,447.672 158.139,447.72 157.909,447.958 157.676,448.193 153.666,452.663 150.002,457.649 143.716,466.113 141.539,474.841 139.355,483.485 139.386,493.009 M139.286,496.21 Q141.98,496.256 145.261,496.411 150.651,496.714 158.43,500.433 158.832,500.646 164.018,503.524 164.067,503.536 164.106,503.557 165.862,504.546 168.164,505.825 M258.055,495.506 Q253.858,493.55 252.551,492.407 251.244,491.264 247.226,491.076 244.182,490.934 235.542,496.643 232.766,498.458 229.422,500.88 215.635,510.872 213.277,511.112 M264.126,522.622 Q264.395,522.764 268.232,526.203 270.661,528.338 273.945,528.005 276.077,527.788 278.848,526.443 281.753,525.015 285.364,522.337 290.514,518.435 291.662,516.083 292.05,515.301 291.988,514.688 291.92,514.015 290.005,511.912 288.174,509.801 287.475,509.617 M299.784,490.928 Q304.17,495.587 306.699,502.901 309.956,512.353 307.45,520.349 307.304,520.806 307.123,521.318 305.476,526.057 300.93,535.728 300.259,537.15 299.528,538.678 293.979,550.215 292.767,555.867 291.689,561.166 290.297,570.92 288.953,578.627 286.363,580.762 282.124,584.255 280.499,585.015 276.99,586.478 270.707,585.755 267.784,585.456 257.843,583.063 254.58,582.247 251.681,581.859 L251.597,581.868 M251.377,583.889 Q246.263,587.981 239.793,597.145 236.998,601.089 234.752,604.888 L234.676,604.981 234.458,605.343 Q233.535,606.982 232.702,608.584 230.609,612.546 229.152,616.345 225.981,624.494 220.653,642.389 218.071,650.948 214.101,664.576 L214.063,664.622 Q214.064,664.692 214.034,664.753 214.014,664.905 213.98,665.056 213.816,665.553 213.657,666.067 213.252,667.526 212.811,669.046 210.784,675.887 207.971,686.721 205.49,694.969 202.246,699.042 M201.911,699.926 Q200.005,703.778 191.844,714.729 186.017,722.589 183.765,726.481 183.055,727.743 182.703,728.588 M282.055,534.157 Q283.32,534.879 285.249,535.449 287.263,536.01 288.189,535.916 290.631,535.668 292.245,533.973 293.01,533.129 293.337,532.16 293.664,531.191 293.553,530.097 293.484,529.423 292.363,528.431 M251.597,581.868 Q247.881,581.361 244.763,581.584 236.621,582.666 233.169,583.016 227.527,583.589 221.394,581.83 217.746,581.094 212.479,578.652 202.029,573.758 192.441,564.779 182.972,555.913 176.12,545.212 M174.408,546.364 Q174.628,552.721 172.411,567.748 170.775,579.171 171.195,587.608 171.269,589.179 171.418,590.647 171.726,593.679 173.888,608.261 176.025,629.311 174.277,637.23 173.115,642.537 171.338,648.502 170.343,652.942 170.959,659.004 171.302,662.38 172.49,666.547 L172.495,666.589 Q173.586,670.405 175.379,674.888 179.048,684.213 179.535,689.013 179.792,691.539 179.114,694.075 178.741,695.431 178.22,696.165 M179.784,697.324 Q180.016,699.24 180.108,703.033 180.113,703.179 180.138,703.328 180.265,708.51 180.172,717.063 L180.176,717.105 Q180.144,720.51 180.069,724.432 M230.124,618.373 L230.106,623.224 Q230.191,624.066 231.123,627.374 232.054,630.682 232.14,631.524 232.225,632.366 233.53,637.678 234.751,642 234.836,643.841 235.555,650.913 228.292,681.595 220.945,712.285 221.586,718.6 222.21,724.747 232.951,738.373 241.347,749.004 251.653,759.187 259.117,766.51 278.271,801.825 278.382,802.92 279.081,803.104 279.688,803.213 279.712,802.615 M194.641,759.021 Q196.865,759.986 208.897,769.568 221.781,779 222.029,782.441 222.337,785.472 244.606,798.694 266.875,811.915 267.217,815.283 267.32,816.293 267.648,816.175 267.976,816.056 267.993,816.225 L268.607,815.567 M191.057,464.028 Q186.731,459.959 180.345,458.226 174.043,456.484 168.731,457.789 M139.286,496.21 Q139.203,496.228 139.117,496.227 139.03,496.225 138.949,496.244 134.854,496.158 132.157,496.38 124.899,496.947 119.875,499.414 113.64,502.514 112.933,503.096 111.756,504.067 112.079,506.416 112.504,508.925 113.947,510.564 114.343,510.963 115.073,511.599 115.165,511.671 115.258,511.75 L115.305,511.788 M119.365,506.952 Q125.644,506.095 137.379,507.59 137.551,507.611 137.724,507.64 M115.305,511.788 Q117.587,513.778 122.767,517.835 129.657,523.193 133.962,525.461 134.745,525.856 135.437,526.162 141.319,528.797 147.878,528.046 152.669,527.474 159.626,528.129 165.117,528.592 166.741,527.832 M170.964,535.91 L175.963,544.93 Q176.051,545.067 176.12,545.212 M130.788,531.483 Q128.326,534.88 127.688,552.894 127.414,561.089 127.358,563.051 127.372,566.537 127.765,570.41 128.244,575.126 131.249,585.454 134.17,595.791 134.769,601.685 134.831,602.298 134.897,602.948 135.114,605.757 135.109,609.221 135.112,614.9 134.527,622.339 134.117,627.554 133.42,633.637 130.985,654.897 132.729,672.073 133.011,674.852 135.189,683.733 137.316,692.109 137.31,693.726 M137.724,507.64 Q139.477,507.848 141.346,508.123 155.497,510.088 160.86,509.289 M152.877,547.955 L153.259,550.042 Q153.456,551.979 152.723,557.328 151.998,562.761 152.275,567.156 152.518,572.065 153.356,580.317 153.45,581.243 154.086,584.156 154.73,587.153 154.842,588.248 154.848,588.308 154.854,588.374 155.069,590.639 154.919,594.875 154.834,599.903 154.205,601.243 153.541,602.246 152.357,604.833 151.514,606.577 151.12,607.723 150.726,608.869 150.781,609.416 M156.881,644.356 Q156.95,645.029 156.64,652.036 156.247,659.052 156.349,660.062 156.537,661.915 158.575,666.897 159.56,669.412 160.084,670.869 160.571,672.312 160.613,672.73 160.904,675.592 159.001,681.145 157.29,686.083 155.786,688.022 M134.897,602.948 Q130.158,604.025 125.156,610.062 120.516,615.603 119.674,621.422 119.433,623.119 119.511,624.842 119.722,630.265 121.307,686.929 123.017,742.305 123.531,748.208 123.933,752.165 124.036,759.045 124.061,760.055 124.103,760.952 L124.111,761.037 Q124.317,763.916 124.872,765.595 125.362,767.077 165.353,814.908 205.039,862.259 205.465,865.618 M117.619,621.291 Q109.955,626.237 102.223,630.51 91.183,636.565 84.827,637.636 71.549,639.239 56.022,640.476 25.043,642.856 13.882,641.012 M178.22,696.165 Q177.737,696.852 177.105,696.916 M180.069,724.432 L180.074,724.474 Q180.059,726.424 180.017,728.521 179.79,739.722 179.316,754.708 179.245,758.203 189.939,773.875 203.114,793.039 206.096,798.946 226.453,839.413 228.781,858.147 M28.892,741.91 Q35.57,742.338 52.419,746.581 70.76,751.269 80.914,755.768 94.718,761.852 98.298,762.764 105.729,764.732 114.972,762.773 118.719,761.967 121.858,761.053" test="Avatar Lady"/>
      <path id="Layer1_0_2_STROKES" stroke="#FFBC00" stroke-width="1.693" stroke-linejoin="round" stroke-linecap="round" fill="none" d="M235.335,452.301 Q246.457,443.021 258.692,433.086 L266.466,439.272 Q274.595,446.443 276.278,451.291 276.887,453.101 270.854,456.521 264.081,460.186 263.361,463.152 262.457,466.816 264.467,475.714 265.355,479.554 266.381,482.836 266.443,483.044 266.508,483.248 M171.421,504.388 Q173.319,503.455 175.372,502.243 181.54,498.561 189.079,492.302 195.513,486.97 213.14,471.229 223.617,462.127 235.335,452.301 M266.247,483.615 Q266.516,483.835 266.762,484.073 266.629,483.668 266.508,483.248 M266.247,483.615 Q263.456,481.013 259.326,478.703 250.232,473.757 242.538,475.9 235.097,478.016 222.899,486.911 211.241,495.986 205.39,500.045 204.556,500.62 203.838,501.096 199.859,503.797 185.531,512.653 184.093,513.548 182.809,514.333 179.081,516.704 176.786,518.262 174.276,519.997 173.51,520.764" test="Avatar Lady"/>
      <path id="Layer1_0_3_STROKES" stroke="#FF0" stroke-width="1.693" stroke-linejoin="round" stroke-linecap="round" fill="none" d="M286.63,480.354 Q286.95,486.021 292.177,483.874 292.872,483.562 293.422,483.153 295.343,481.664 295.327,478.876 295.289,475.987 292.433,475.512 M239.159,502.103 Q238.034,504.429 237.833,504.96 237.774,505.221 237.842,505.895 238.287,510.273 244.434,509.649 246.539,509.435 248.556,506.679 250.43,504.191 250.276,502.676 250.233,502.255 247.914,500.364" test="Avatar Lady"/>
      <path id="Layer1_0_4_STROKES" stroke="#FFF" stroke-width="1.693" stroke-linejoin="round" stroke-linecap="round" fill="none" d="M235.677,554.944 L236.219,556.931 Q236.402,558.734 235.312,560.978 234.953,561.789 234.418,562.643 232.964,565.087 232.022,565.864 M237.069,561.948 Q246.188,566.297 256.222,563.747 259.901,563.118 263.664,562.48" test="Avatar Lady"/>
    </g>
  </g>
</svg>