<?xml version="1.0" encoding="utf-8"?>
<svg id="EdithAnim13" image-rendering="inherit" baseProfile="basic" version="1.1" x="0px" y="0px" width="800" height="600" xmlns="http://www.w3.org/2000/svg" xmlns:xlink="http://www.w3.org/1999/xlink">
  <g id="22_Avatarf214r1" overflow="visible">
    <g id="Avatar-Manf23r1">
      <g id="Tailf23r1">
        <g id="Tail-Wiggly">
          <path id="Layer4_0_1_STROKES" stroke="#009EFF" stroke-width="2.576" stroke-linejoin="round" stroke-linecap="round" fill="none" d="M439.836,731.492 L450.139,739.756 Q454.568,743.333 460.327,747.645 L482.137,762.457 487.962,765.787 Q491.047,767.527 493.963,768.964 L499.713,771.719 499.913,771.757 Q499.849,771.766 500.057,771.868 L500.121,771.86 500.194,771.915 505.061,773.877 505.477,774.082 520.309,778.247 Q527.114,779.63 533.827,780.311 540.077,780.922 547.187,781.161 L550.502,781.182 550.565,781.174 550.701,781.221 550.957,781.188 567.414,780.399 Q571.947,779.806 574.229,779.378 581.658,778.082 587.884,776.034 594.669,773.783 601.022,770.224 604.286,768.369 607.19,766.236 L607.897,765.688 608.319,765.438 609.551,764.433 609.671,764.353 609.735,764.344 609.854,764.264 610.14,763.966 610.728,763.5 611.014,763.203 611.197,763.114 612.715,761.811 Q617.961,757.229 622.476,752.027 627.047,746.754 630.776,741.006 L630.943,740.789 634.136,733.423 634.26,732.887 634.637,731.799 634.762,731.263 634.857,730.991 634.959,730.782 637.085,721.218 637.18,720.946 638.127,707.833 636.937,693.767 636.634,692.442 636.593,692.123 636.495,691.876 636.356,691.31 636.315,690.991 636.217,690.744 635.875,689.619 Q635.378,687.801 634.405,685.331 L632.658,681.403 Q631.155,678.352 628.591,674.142 L628.083,673.234 627.608,672.582 627.51,672.335 627.205,671.985 627.108,671.738 626.955,671.563 626.383,670.664 610.126,649.151 Q605.041,642.542 601.233,637.261 L597.883,632.503 597.455,631.715 597.311,631.604 597.222,631.421 595.578,628.778 595.392,628.348 592.266,622.328 592.144,621.889 591.789,621.156 591.374,619.976 591.197,619.61 590.179,616.301 590.129,615.918 590.024,615.607 589.924,614.841 589.818,614.53 589.709,613.7 589.732,613.372 589.598,612.351 589.625,611.568 589.575,611.185 589.603,610.402 Q589.597,609.363 589.84,607.253 590.198,604.025 591.121,600.657 591.362,599.521 592.044,597.289 L593.167,593.96 Q593.742,592.391 595.861,587.243 L596.554,585.594 604.034,570.783 625.021,535.113 Q628.448,529.535 632.727,522.026 L635.881,516.353 636.048,516.137 639.885,508.232 Q641.887,503.684 642.805,500.771 L644.61,493.716 644.732,492.661 Q645.053,490.151 644.77,487.98 L644.438,485.945 644.341,485.698 644.299,485.379 644.202,485.132 643.924,483 641.974,479.514 Q641.093,477.746 639.821,475.964 638.604,474.11 637.438,472.639 L629.209,463.844 628.993,463.677 628.254,462.994 628.101,462.82 593.856,435.347 Q587.549,430.326 582.339,425.747 L577.602,421.302 577.53,421.246 577.449,421.127 577.296,420.952 576.935,420.674 574.436,417.949 Q573.383,416.853 572.056,415.143 569.587,412.154 567.845,409.264 565.756,405.706 564.853,402.772 L564.121,399.166 564.169,399.03 564.118,398.647 564.368,396.081 565.21,392.594 Q565.64,390.914 566.309,389.074 567.196,386.425 569.032,382.093 L572.101,375.263 Q573.238,373.036 575.505,368.518 L578.989,361.893 Q582.127,356.093 586.35,348.656 594.189,335.098 601.811,322.866 L602.388,323.31 Q602.533,323.421 602.58,323.285 602.699,323.204 602.555,323.093 L601.833,322.538 Q601.761,322.483 601.641,322.563 592.304,336.578 585.156,347.968 L573.558,367.539 566.55,380.989 Q564.625,385.137 563.507,388.011 L561.371,394.525 560.853,397.515 560.798,399.081 560.751,399.217 560.81,399.664 560.771,399.864 561.021,401.779 562.05,405.671 562.811,407.52 Q563.386,408.938 564.517,411.128 566.389,414.52 568.819,417.709 L574.271,424.14 574.416,424.251 574.496,424.37 579.212,429.144 Q584.319,433.931 590.539,439.287 L623.697,467.876 624.3,468.512 624.516,468.679 631.776,477.016 Q632.879,478.495 633.718,479.944 L633.959,480.302 635.873,484.013 635.987,484.388 636.165,484.754 636.393,485.504 636.571,485.87 636.621,486.253 636.849,487.003 636.915,487.514 636.996,487.633 637.138,488.719 637.108,490.476 637.03,490.876 637.017,491.267 636.939,491.667 636.917,491.995 635.187,498.131 Q634.33,500.516 632.277,504.681 L625.049,517.445 Q620.704,524.443 616.966,530.127 L596.533,562.088 585.299,582.455 Q583.262,586.748 582.089,589.694 L579.393,597.385 Q578.062,602.105 577.539,605.55 577.198,607.413 577.068,609.898 L577.007,610.425 577.003,613.868 577.54,618.474 577.637,618.721 577.671,618.976 Q578.002,621.011 578.749,623.251 L578.944,623.745 579.408,625.308 583.889,635.242 589.92,645.104 Q592.128,648.582 594.261,651.485 L607.457,669.957 Q610.324,673.998 611.629,676.035 L614.062,679.743 614.151,679.926 614.304,680.101 614.643,680.706 614.651,680.77 614.723,680.826 614.909,681.256 615.393,681.972 Q617.354,685.547 618.463,688.065 L619.11,689.539 619.224,689.914 619.693,691.021 620.597,693.955 620.802,695.032 620.908,695.343 620.992,695.982 621.089,696.229 621.214,697.187 621.184,697.45 621.632,703.366 621.377,711.842 620.463,718.261 618.508,725.66 618.406,725.869 617.013,729.622 616.958,729.695 616.966,729.758 616.145,731.425 Q612.332,736.534 609.077,739.947 605.441,743.929 600.806,747.718 L599.749,748.57 599.63,748.651 598.572,749.503 598.214,749.745 598.031,749.834 597.498,750.228 597.268,750.453 596.488,750.945 Q593.973,752.573 591.966,753.614 587.467,755.956 582.029,757.577 576.965,759.083 571.155,759.843 L553.996,760.723 551.319,760.619 551.128,760.644 550.992,760.597 548.052,760.461 Q541.372,760.036 536.344,759.33 531.052,758.593 525.022,757.174 L515.348,754.218 513.771,753.58 513.435,753.494 513.291,753.383 513.155,753.335 509.295,751.632 509.223,751.577 509.287,751.568 504.345,749.033 Q501.412,747.468 499.288,746.122 L491.785,741.388 474.949,728.848 456.104,712.869 Q452.283,709.472 447.133,709.821 442.047,710.161 438.659,714.047 435.334,717.923 435.675,723.009 436.015,728.095 439.836,731.492Z" test="Tail Wiggly"/>
        </g>
      </g>
      <path fill="#000" stroke="none" d="M456.494,576.368 Q451.907,566.072 446.104,564.574 444.794,564.2 428.882,568.786 409.974,574.215 388.54,574.402 366.263,574.589 344.922,567.663 327.794,560.643 325.828,560.83 319.089,563.825 317.217,565.136 313.847,567.382 314.128,570.19 314.315,572.249 314.502,583.575 315.158,594.526 318.34,598.27 321.803,602.295 338.558,611 352.41,618.02 366.544,624.01 375.81,627.941 389.757,645.444 396.87,654.336 404.92,664.726 406.605,666.036 404.92,667.908 403.61,669.312 403.797,669.312 L417.088,665.194 Q434.03,659.859 445.542,641.981 455.37,626.631 459.208,605.758 462.297,589.191 456.494,576.368 M462.484,186.898 L459.114,185.494 Q459.066,185.612 459.021,185.681 458.006,188.272 457.336,190.642 455.558,197.007 452.75,206.741 452.686,206.912 452.562,207.022 449.998,213.836 444.7,216.85 433.562,223.215 427.384,226.21 L431.596,235.57 Q431.128,242.403 433.281,288.173 433.359,289.862 433.374,291.449 435.121,327.214 435.34,338.062 435.338,338.133 435.34,338.156 435.372,340.664 435.34,341.806 434.966,356.501 437.68,379.714 438.054,382.99 443.202,380.276 448.35,377.468 447.976,375.502 447.789,374.098 449.942,374.847 451.72,375.502 452.188,375.97 452.282,376.064 459.208,352.102 L464.824,361.462 Q464.918,361.556 468.1,340.87 L473.716,343.21 Q473.825,343.32 473.061,333.382 473.102,333.36 473.061,333.288 471.994,318.009 468.942,279.188 467.091,255.466 465.666,239.876 463.903,219.036 462.952,212.732 462.686,210.893 462.484,210.298 462.686,210.893 462.952,212.732 463.903,219.036 465.666,239.876 L467.164,239.782 Q469.036,239.595 474.558,234.072 479.426,229.392 483.076,230.89 486.352,232.294 506.008,260.748 528.659,289.577 547.192,294.07 530.531,294.632 505.821,313.632 498.146,319.529 490.564,326.643 L489.441,327.672 Q490.774,341.9 495.15,390.572 L496.18,390.478 Q501.047,387.764 535.118,360.994 567.971,335.067 578.548,325.894 586.41,319.061 592.869,308.297 596.145,302.775 600.076,295.942 601.948,293.789 605.973,290.794 609.249,287.799 609.436,282.838 609.623,277.971 574.055,255.039 534.65,230.516 527.068,224.806 504.791,208.052 494.402,201.312 482.024,193.197 473.622,189.612 466.642,186.642 462.484,186.898 M395.934,181.188 Q398.742,180.72 401.363,180.252 405.575,180.252 405.294,185.4 413.344,184.464 416.526,185.4 419.896,186.43 419.802,190.08 L425.044,192.514 Q428.724,185.359 437.68,179.41 442.828,175.947 447.227,174.824 447.296,174.809 447.321,174.73 L446.104,167.242 Q447.508,167.148 444.794,163.872 439.833,158.163 435.808,153.202 430.379,146.463 411.472,140.379 394.905,135.044 385.732,134.95 356.342,134.669 336.124,142.906 323.582,148.054 312.35,163.592 310.197,166.536 308.418,169.208 303.4,177.164 301.866,183.154 L301.866,185.4 Q302.054,185.4 302.896,185.681 303.832,185.868 304.487,185.868 307.857,185.868 311.226,183.154 315.064,179.972 318.714,179.316 L318.714,181.656 322.926,181.656 Q325.734,181.095 331.07,179.504 335.188,178.193 336.03,178.38 L336.03,180.72 Q336.966,180.72 340.71,181.188 346.888,181.188 352.878,177.912 L357.558,177.912 357.558,179.784 365.046,179.784 Q377.402,176.04 378.15,176.04 379.367,176.04 380.49,176.883 381.801,177.819 384.234,177.912 384.234,180.252 383.766,181.188 L395.934,181.188Z" test="Avatar Man" stroke-width="1.872"/>
      <path id="Layer3_0_1_STROKES" stroke="#009EFF" stroke-width="1.872" stroke-linejoin="round" stroke-linecap="round" fill="none" d="M419.802,190.08 Q419.896,186.43 416.526,185.4 413.344,184.464 405.294,185.4 405.575,180.252 401.363,180.252 398.742,180.72 395.934,181.188 L383.766,181.188 Q384.234,180.252 384.234,177.912 381.801,177.819 380.49,176.883 379.367,176.04 378.15,176.04 377.402,176.04 365.046,179.784 L357.558,179.784 357.558,177.912 352.878,177.912 Q346.888,181.188 340.71,181.188 336.966,180.72 336.03,180.72 L336.03,178.38 Q335.188,178.193 331.07,179.504 325.734,181.095 322.926,181.656 L318.714,181.656 318.714,179.316 Q315.064,179.972 311.226,183.154 307.857,185.868 304.487,185.868 303.832,185.868 302.896,185.681 302.054,185.4 301.866,185.4 L301.866,183.154 Q303.4,177.164 308.465,169.254 310.197,166.536 312.35,163.592 323.582,148.054 336.124,142.906 356.342,134.669 385.732,134.95 394.905,135.044 411.472,140.379 430.379,146.463 435.808,153.202 439.833,158.163 444.794,163.872 447.508,167.148 446.104,167.242 M447.368,174.777 Q447.437,174.784 447.508,174.777 450.338,174.152 456.4,173.794 460.799,173.607 463.514,171.828 465.011,170.892 467.164,169.114 468.006,168.646 464.543,174.636 462.952,177.351 461.642,179.972 460.84,181.546 460.191,183.06 460.035,183.373 459.91,183.669 459.637,184.253 459.395,184.839 459.249,185.168 459.114,185.494 M462.484,186.898 Q466.642,186.642 473.669,189.659 482.024,193.197 494.402,201.312 504.791,208.052 527.068,224.806 534.65,230.516 574.055,255.039 609.623,277.971 609.436,282.838 609.249,287.799 605.973,290.794 601.948,293.789 600.076,295.942 596.145,302.775 592.869,308.297 586.41,319.061 578.548,325.894 567.971,335.067 535.118,360.994 501.047,387.764 496.18,390.478 495.695,390.794 495.244,391.086 489.796,394.621 487.382,396 483.076,398.528 479.332,397.966 M461.642,179.972 Q460.183,181.57 458.974,182.499 457.752,183.39 456.774,183.622 453.218,183.903 448.912,184.558 443.39,185.4 440.394,187.46 436.37,190.923 432.532,193.918 427.758,197.662 424.763,199.44 L422.704,200.47 Q423.155,196.34 425.091,192.561 M418.866,190.08 L419.802,190.08 M425.091,192.561 Q428.724,185.359 437.68,179.41 442.828,175.947 447.227,174.824 447.296,174.809 447.368,174.777 M459.114,185.494 Q459.066,185.612 459.021,185.728 458.006,188.272 457.336,190.642 455.558,197.007 452.75,206.741 452.686,206.912 452.609,207.069 449.998,213.836 444.7,216.85 433.562,223.215 427.384,226.21 M431.596,235.57 Q431.128,242.403 433.281,288.173 433.359,289.862 433.421,291.496 435.121,327.214 435.34,338.062 435.338,338.133 435.34,338.202 435.372,340.664 435.34,341.806 434.966,356.501 437.68,379.714 438.054,382.99 443.202,380.276 448.35,377.468 447.976,375.502 447.789,374.098 449.942,374.847 451.72,375.502 452.188,375.97 452.282,376.064 459.208,352.102 L464.824,361.462 Q464.918,361.556 468.1,340.87 L473.716,343.21 Q473.825,343.32 473.108,333.429 473.102,333.36 473.108,333.288 471.994,318.009 468.942,279.188 467.091,255.466 465.713,239.876 463.903,219.036 462.952,212.732 462.686,210.893 462.484,210.298 M489.441,327.719 L490.564,326.643 Q498.146,319.529 505.821,313.632 530.531,294.632 547.192,294.07 528.659,289.577 506.008,260.748 486.352,232.294 483.076,230.89 479.426,229.392 474.558,234.072 469.036,239.595 467.164,239.782 M361.864,232.294 Q362.955,232.47 365.234,232.575 367.832,232.668 371.973,232.668 379.274,232.575 382.456,232.294 388.353,231.732 389.102,231.545 392.846,230.516 393.22,227.614 M416.62,307.174 Q417.556,313.258 419.709,322.056 422.33,332.633 424.576,338.062 M312.256,304.366 Q312.256,304.46 312.63,314.007 312.911,320.84 315.532,325.426 316.374,326.897 317.638,328.328 321.472,332.609 329.198,336.471 339.868,341.9 350.164,342.274 L353.955,342.555 354.095,342.555 Q364.017,342.929 367.012,342.742 372.16,342.368 378.244,340.402 382.737,338.998 394.811,328.14 403.392,320.345 412.502,310.824 412.62,310.71 412.736,310.59 412.807,310.523 412.876,310.45 412.971,310.36 413.063,310.263 414.501,308.737 415.965,307.174 416.06,307.073 416.152,306.987 416.189,306.933 416.246,306.893 416.261,306.839 416.292,306.8 427.313,295.049 428.788,291.73 M353.908,343.21 Q353.066,347.235 351.474,356.408 349.883,364.364 347.356,368.482 M484.48,332.446 L489.441,327.719 M474.184,406.858 Q474.09,407.045 464.637,431.662 457.898,449.165 455.464,459.274 452.469,471.536 449.848,508.04 447.227,543.608 448.444,551.47 M394.53,454.968 Q395.092,457.028 396.964,457.589 397.526,457.776 399.023,457.776 401.457,457.776 402.393,456.653 402.767,456.279 404.265,452.816 M357.09,441.396 Q356.903,458.432 358.12,461.052 360.086,465.732 371.13,465.732 376.466,465.732 376.934,465.639 377.495,465.545 379.554,464.328 M358.494,498.96 Q357.558,501.768 357.558,504.857 357.558,510.005 361.677,510.286 364.391,510.38 373.002,510.192 M355.218,537.804 Q359.992,541.08 363.081,541.829 365.327,542.297 369.258,541.548 M403.048,669.874 Q396.028,673.15 377.214,676.707 358.214,680.264 337.996,682.042 320.493,683.633 279.309,682.791 248.234,682.229 230.356,681.106 216.597,680.264 188.704,677.362 181.778,676.613 176.63,677.736 172.979,678.579 171.856,677.83 M306.64,168.178 Q303.083,166.025 298.871,163.779 290.447,159.38 287.92,159.754 285.206,160.128 287.452,173.513 289.324,184.932 291.196,189.706 M295.876,202.342 Q296.625,205.431 298.59,211.608 299.714,216.569 296.812,218.722 293.238,221.386 289.839,223.87 L289.792,223.917 Q238.722,261.838 232.228,264.118 226.518,265.803 225.114,266.271 223.149,267.02 222.868,268.798 222.4,272.448 222.213,284.991 221.932,299.405 222.868,302.494 226.05,315.224 250.574,351.447 274.629,386.921 288.856,400.774 M297.748,234.634 Q300.65,236.132 306.453,236.88 306.689,236.916 306.921,236.927 312.398,237.712 317.872,237.442 321.335,237.255 329.385,235.944 335.937,234.821 337.996,235.102 M297.28,258.97 Q296.157,260.842 284.082,272.916 273.131,283.868 270.136,286.582 M320.118,280.872 Q324.33,280.872 329.01,279.936 L347.262,279.936 Q341.646,285.927 338.464,289.109 332.567,294.912 331.163,294.912 328.636,294.912 324.892,289.671 321.054,283.68 319.65,282.276 M259.84,281.434 Q261.446,285.315 264.894,290.232 264.932,290.287 264.988,290.326 273.569,302.633 293.536,321.401 302.812,330.112 309.635,336.752 325.426,352.068 328.168,356.314 M296.812,426.982 Q296.157,441.864 299.152,448.978 301.024,453.284 306.734,458.151 312.63,462.924 317.872,464.422 M312.724,472.846 Q312.818,475.748 312.35,487.728 312.162,498.96 313.66,501.862 315.438,505.325 319.838,508.227 324.143,511.035 326.764,510.754 M319.276,514.498 Q319.37,517.587 319.37,522.36 319.557,525.917 321.148,528.07 321.335,528.351 326.39,531.814 329.759,534.154 329.572,538.366 329.385,541.548 327.419,549.411 325.734,555.963 326.296,558.022 M303.364,571.594 Q281.462,567.569 254.973,563.451 202.089,555.308 179.906,555.308 165.117,555.308 148.269,552.219 134.978,549.785 132.17,550.628 127.302,552.125 122.716,559.8 118.13,567.569 118.504,573.934 118.785,578.24 120.282,589.659 121.499,599.861 120.376,603.886 M302.896,598.738 Q294.285,600.142 254.598,600.984 211.542,601.92 204.616,602.482 196.941,603.137 172.511,607.068 150.328,610.625 141.436,610.906 130.859,611.28 121.499,609.97 116.632,609.315 109.612,607.63 105.962,606.788 102.218,609.315 100.252,610.719 95.572,615.586 90.237,621.108 95.104,632.902 96.04,635.242 94.449,648.627 92.67,662.105 93.7,664.726 L96.976,672.682 Q100.626,682.697 102.124,693.274 M168.112,664.726 Q169.422,668.938 171.856,681.012 174.477,693.929 174.196,696.55" test="Avatar Man"/>
      <path id="Layer3_0_2_STROKES" stroke="#FF0" stroke-width="1.872" stroke-linejoin="round" stroke-linecap="round" fill="none" d="M365.046,235.944 Q364.11,241.186 365.982,245.024 367.948,249.048 371.598,249.048 373.096,249.048 375.155,247.925 377.495,246.615 378.15,244.836 M306.546,240.156 Q305.61,246.708 305.61,247.176 305.61,249.08 307.014,251.108 307.761,252.167 308.886,253.26 312.35,256.536 315.906,256.536 317.778,256.536 318.995,254.664 319.744,253.635 321.054,251.388" test="Avatar Man"/>
      <path id="Layer3_0_3_STROKES" stroke="#FFF" stroke-width="1.872" stroke-linejoin="round" stroke-linecap="round" fill="none" d="M397.806,286.956 Q404.078,289.484 404.358,293.696 404.377,293.961 404.405,294.257 404.4,294.328 404.405,294.398 L404.405,294.538 Q404.441,296.973 403.89,301.464 M389.382,303.804 Q395.551,302.333 399.304,297.814 400.562,296.301 401.55,294.444" test="Avatar Man"/>
      <path id="Layer3_0_4_STROKES" stroke="#F90" stroke-width="1.872" stroke-linejoin="round" stroke-linecap="round" fill="none" d="M325.828,560.83 Q327.794,560.643 344.922,567.663 366.263,574.589 388.54,574.402 409.974,574.215 428.882,568.786 444.794,564.2 446.104,564.574 451.907,566.072 456.494,576.368 462.297,589.191 459.208,605.758 455.37,626.631 445.542,641.981 434.03,659.859 417.088,665.194 L403.797,669.312 Q403.61,669.312 404.92,667.908 406.605,666.036 404.92,664.726 396.87,654.336 389.757,645.444 375.81,627.941 366.544,624.01 352.41,618.02 338.558,611 321.803,602.295 318.34,598.27 315.158,594.526 314.502,583.575 314.315,572.249 314.128,570.19 313.847,567.382 317.217,565.136 319.089,563.825 325.828,560.83Z" test="Avatar Man"/>
    </g>
    <g id="Censoredf12r1">
      <path fill="#000" stroke="none" d="M-18.85,403.35 L-18.85,629.9 829.1,629.9 829.1,403.35 -18.85,403.35Z" test="Censored"/>
      <path id="Layer1_0_1_STROKES" stroke="#F00" stroke-width="1" stroke-linejoin="round" stroke-linecap="round" fill="none" d="M65.35,401.7 L732,401.7 732,561.5 65.35,561.5 65.35,401.7Z" test="Censored"/>
    </g>
  </g>
</svg>