<?xml version="1.0" encoding="utf-8"?>
<svg id="EdithAnim13" image-rendering="inherit" baseProfile="basic" version="1.1" x="0px" y="0px" width="800" height="600" xmlns="http://www.w3.org/2000/svg" xmlns:xlink="http://www.w3.org/1999/xlink">
  <g id="22_Avatarf22r1" overflow="visible">
    <g id="Avatar-Manf0r1">
      <g id="Tailf0r1">
        <path id="Layer3_0_1_STROKES" stroke="#009EFF" stroke-width="2.303" stroke-linejoin="round" stroke-linecap="round" fill="none" d="M650.79,733.142 Q649.628,716.22 648.987,699.289 648.413,682.871 643.079,667.365 637.217,650.476 620.884,642.793 601.035,633.536 598.161,654.236 597.741,657.252 599.713,659.899 604.375,666.259 611.004,670.33 617.933,667.8 623.144,672.579 629.418,678.381 632.179,687.08 638.632,707.608 643.772,728.308 645.224,734.1 644.249,739.976" test="Tail_2.3242325232423263e+312.3242325232423263e+31_2.3242325232423263e+312.3242325232423263e+31_2.3242325232423263e+312.3242325232423263e+31_1"/>
      </g>
      <path fill="#000" stroke="none" d="M612.353,647.065 Q608.249,637.853 603.056,636.513 601.884,636.178 587.646,640.281 570.729,645.139 551.55,645.306 531.618,645.474 512.522,639.276 497.196,632.995 495.437,633.163 489.407,635.843 487.732,637.015 484.718,639.025 484.969,641.538 485.136,643.38 485.304,653.514 485.89,663.313 488.737,666.663 491.836,670.264 506.827,678.053 519.222,684.334 531.869,689.694 540.16,693.211 552.639,708.873 559.004,716.829 566.206,726.125 567.714,727.298 566.206,728.973 565.034,730.229 565.201,730.229 L577.094,726.544 Q592.252,721.77 602.554,705.774 611.348,692.039 614.781,673.363 617.545,658.539 612.353,647.065 M617.713,298.581 L614.698,297.325 Q614.654,297.431 614.614,297.493 613.706,299.811 613.106,301.931 611.515,307.626 609.002,316.336 608.946,316.489 608.835,316.588 606.54,322.685 601.8,325.381 591.834,331.076 586.306,333.756 L590.075,342.131 Q589.656,348.245 591.583,389.199 591.653,390.71 591.666,392.13 593.229,424.131 593.425,433.838 593.423,433.901 593.425,433.921 593.453,436.166 593.425,437.188 593.09,450.336 595.519,471.106 595.854,474.038 600.46,471.609 605.066,469.096 604.731,467.338 604.564,466.081 606.49,466.751 608.081,467.338 608.5,467.756 608.584,467.84 614.781,446.4 L619.806,454.775 Q619.89,454.859 622.738,436.35 L627.762,438.444 Q627.86,438.543 627.176,429.65 627.213,429.63 627.176,429.566 626.222,415.895 623.491,381.159 621.835,359.933 620.56,345.984 618.982,327.338 618.131,321.696 617.893,320.051 617.713,319.519 617.893,320.051 618.131,321.696 618.982,327.338 620.56,345.984 L621.9,345.9 Q623.575,345.733 628.516,340.791 632.871,336.604 636.137,337.944 639.069,339.2 656.656,364.66 676.924,390.455 693.506,394.475 678.599,394.978 656.489,411.979 649.621,417.255 642.838,423.62 L641.833,424.541 Q643.025,437.271 646.941,480.821 L647.863,480.738 Q652.218,478.309 682.703,454.356 712.099,431.158 721.563,422.95 728.598,416.836 734.376,407.205 737.308,402.264 740.825,396.15 742.5,394.224 746.101,391.544 749.033,388.864 749.2,384.425 749.368,380.07 717.543,359.551 682.284,337.609 675.5,332.5 655.567,317.509 646.271,311.479 635.196,304.218 627.679,301.01 621.433,298.352 617.713,298.581 M558.166,293.473 Q560.679,293.054 563.024,292.635 566.793,292.635 566.541,297.241 573.744,296.404 576.591,297.241 579.606,298.163 579.522,301.429 L584.213,303.606 Q587.506,297.204 595.519,291.881 600.125,288.783 604.061,287.778 604.123,287.764 604.145,287.694 L603.056,280.994 Q604.313,280.91 601.884,277.979 597.445,272.87 593.844,268.431 588.986,262.401 572.069,256.958 557.245,252.184 549.037,252.1 522.74,251.849 504.65,259.219 493.427,263.825 483.377,277.728 481.451,280.362 479.86,282.753 475.369,289.871 473.997,295.231 L473.997,297.241 Q474.165,297.241 474.919,297.493 475.756,297.66 476.343,297.66 479.357,297.66 482.372,295.231 485.806,292.384 489.072,291.798 L489.072,293.891 492.841,293.891 Q495.354,293.389 500.127,291.965 503.812,290.793 504.566,290.96 L504.566,293.054 Q505.404,293.054 508.754,293.473 514.281,293.473 519.641,290.541 L523.829,290.541 523.829,292.216 530.529,292.216 Q541.584,288.866 542.254,288.866 543.343,288.866 544.348,289.62 545.52,290.458 547.698,290.541 547.698,292.635 547.279,293.473 L558.166,293.473Z" test="Avatar Man" stroke-width="1.675"/>
      <path id="Layer2_0_1_STROKES" stroke="#009EFF" stroke-width="1.675" stroke-linejoin="round" stroke-linecap="round" fill="none" d="M579.522,301.429 Q579.606,298.163 576.591,297.241 573.744,296.404 566.541,297.241 566.793,292.635 563.024,292.635 560.679,293.054 558.166,293.473 L547.279,293.473 Q547.698,292.635 547.698,290.541 545.52,290.458 544.348,289.62 543.343,288.866 542.254,288.866 541.584,288.866 530.529,292.216 L523.829,292.216 523.829,290.541 519.641,290.541 Q514.281,293.473 508.754,293.473 505.404,293.054 504.566,293.054 L504.566,290.96 Q503.812,290.793 500.127,291.965 495.354,293.389 492.841,293.891 L489.072,293.891 489.072,291.798 Q485.806,292.384 482.372,295.231 479.357,297.66 476.343,297.66 475.756,297.66 474.919,297.493 474.165,297.241 473.997,297.241 L473.997,295.231 Q475.369,289.871 479.902,282.794 481.451,280.362 483.377,277.728 493.427,263.825 504.65,259.219 522.74,251.849 549.037,252.1 557.245,252.184 572.069,256.958 588.986,262.401 593.844,268.431 597.445,272.87 601.884,277.979 604.313,280.91 603.056,280.994 M604.187,287.736 Q604.249,287.742 604.313,287.736 606.845,287.176 612.269,286.856 616.205,286.689 618.634,285.097 619.974,284.26 621.9,282.669 622.654,282.25 619.555,287.61 618.131,290.039 616.959,292.384 616.242,293.792 615.661,295.148 615.522,295.427 615.409,295.692 615.165,296.214 614.949,296.739 614.818,297.034 614.698,297.325 M617.713,298.581 Q621.433,298.352 627.721,301.052 635.196,304.218 646.271,311.479 655.567,317.509 675.5,332.5 682.284,337.609 717.543,359.551 749.368,380.07 749.2,384.425 749.033,388.864 746.101,391.544 742.5,394.224 740.825,396.15 737.308,402.264 734.376,407.205 728.598,416.836 721.563,422.95 712.099,431.158 682.703,454.356 652.218,478.309 647.863,480.738 647.429,481.021 647.025,481.282 642.151,484.444 639.99,485.679 636.137,487.94 632.787,487.438 M616.959,292.384 Q615.654,293.814 614.572,294.645 613.478,295.442 612.604,295.65 609.421,295.901 605.569,296.488 600.627,297.241 597.948,299.084 594.346,302.183 590.912,304.863 586.641,308.213 583.961,309.804 L582.119,310.725 Q582.522,307.03 584.254,303.648 M578.685,301.429 L579.522,301.429 M584.254,303.648 Q587.506,297.204 595.519,291.881 600.125,288.783 604.061,287.778 604.123,287.764 604.187,287.736 M614.698,297.325 Q614.654,297.431 614.614,297.534 613.706,299.811 613.106,301.931 611.515,307.626 609.002,316.336 608.946,316.489 608.877,316.629 606.54,322.685 601.8,325.381 591.834,331.076 586.306,333.756 M590.075,342.131 Q589.656,348.245 591.583,389.199 591.653,390.71 591.708,392.172 593.229,424.131 593.425,433.838 593.423,433.901 593.425,433.963 593.453,436.166 593.425,437.188 593.09,450.336 595.519,471.106 595.854,474.038 600.46,471.609 605.066,469.096 604.731,467.338 604.564,466.081 606.49,466.751 608.081,467.338 608.5,467.756 608.584,467.84 614.781,446.4 L619.806,454.775 Q619.89,454.859 622.738,436.35 L627.762,438.444 Q627.86,438.543 627.218,429.692 627.213,429.63 627.218,429.566 626.222,415.895 623.491,381.159 621.835,359.933 620.602,345.984 618.982,327.338 618.131,321.696 617.893,320.051 617.713,319.519 M641.833,424.583 L642.838,423.62 Q649.621,417.255 656.489,411.979 678.599,394.978 693.506,394.475 676.924,390.455 656.656,364.66 639.069,339.2 636.137,337.944 632.871,336.604 628.516,340.791 623.575,345.733 621.9,345.9 M527.681,339.2 Q528.658,339.357 530.696,339.451 533.021,339.535 536.726,339.535 543.259,339.451 546.106,339.2 551.382,338.698 552.053,338.53 555.402,337.609 555.738,335.013 M576.675,406.2 Q577.512,411.644 579.439,419.516 581.784,428.98 583.794,433.838 M483.294,403.688 Q483.294,403.771 483.629,412.314 483.88,418.428 486.225,422.531 486.979,423.848 488.109,425.128 491.54,428.958 498.452,432.414 508,437.271 517.213,437.606 L520.604,437.858 520.73,437.858 Q529.608,438.193 532.287,438.025 536.894,437.69 542.338,435.931 546.358,434.675 557.161,424.96 564.839,417.985 572.99,409.466 573.096,409.364 573.199,409.257 573.263,409.197 573.325,409.131 573.41,409.051 573.493,408.964 574.779,407.599 576.089,406.2 576.174,406.11 576.256,406.033 576.29,405.984 576.34,405.949 576.353,405.9 576.382,405.865 586.243,395.351 587.563,392.381 M520.563,438.444 Q519.809,442.045 518.385,450.253 516.961,457.371 514.7,461.056 M637.394,428.813 L641.833,424.583 M628.181,495.394 Q628.098,495.561 619.639,517.588 613.609,533.249 611.431,542.294 608.751,553.265 606.406,585.928 604.061,617.753 605.15,624.788 M556.91,538.441 Q557.412,540.284 559.088,540.786 559.59,540.954 560.93,540.954 563.108,540.954 563.945,539.949 564.28,539.614 565.62,536.515 M523.41,526.298 Q523.242,541.54 524.331,543.885 526.09,548.073 535.973,548.073 540.746,548.073 541.165,547.989 541.667,547.905 543.51,546.816 M524.666,577.804 Q523.829,580.316 523.829,583.08 523.829,587.686 527.514,587.938 529.943,588.021 537.647,587.854 M521.735,612.56 Q526.006,615.491 528.77,616.161 530.78,616.58 534.297,615.91 M564.531,730.731 Q558.25,733.663 541.416,736.845 524.415,740.028 506.325,741.619 490.664,743.043 453.814,742.289 426.009,741.786 410.012,740.781 397.701,740.028 372.744,737.431 366.546,736.761 361.94,737.766 358.674,738.52 357.669,737.85 M478.269,281.831 Q475.086,279.905 471.317,277.895 463.78,273.959 461.519,274.294 459.09,274.629 461.1,286.605 462.775,296.823 464.45,301.094 M468.637,312.4 Q469.307,315.164 471.066,320.691 472.071,325.13 469.475,327.056 466.277,329.44 463.236,331.663 L463.194,331.704 Q417.498,365.635 411.687,367.675 406.579,369.183 405.323,369.601 403.564,370.271 403.312,371.863 402.894,375.129 402.726,386.351 402.475,399.249 403.312,402.013 406.16,413.403 428.102,445.814 449.626,477.555 462.356,489.95 M470.312,341.294 Q472.909,342.634 478.101,343.304 478.312,343.336 478.52,343.346 483.421,344.047 488.319,343.806 491.417,343.639 498.62,342.466 504.482,341.461 506.325,341.713 M469.894,363.069 Q468.889,364.744 458.085,375.548 448.286,385.346 445.606,387.775 M490.329,382.666 Q494.097,382.666 498.285,381.829 L514.616,381.829 Q509.591,387.189 506.744,390.036 501.468,395.229 500.211,395.229 497.95,395.229 494.6,390.539 491.166,385.179 489.91,383.923 M436.394,383.169 Q437.831,386.641 440.916,391.041 440.95,391.09 441,391.125 448.678,402.136 466.544,418.93 474.843,426.724 480.949,432.665 495.077,446.37 497.531,450.169 M469.475,513.4 Q468.889,526.716 471.569,533.081 473.244,536.934 478.352,541.289 483.629,545.56 488.319,546.9 M483.713,554.438 Q483.796,557.034 483.377,567.754 483.21,577.804 484.55,580.4 486.141,583.499 490.077,586.095 493.93,588.608 496.275,588.356 M489.575,591.706 Q489.659,594.47 489.659,598.741 489.826,601.924 491.25,603.85 491.417,604.101 495.94,607.2 498.955,609.294 498.787,613.063 498.62,615.91 496.861,622.945 495.354,628.808 495.856,630.65 M475.338,642.794 Q455.74,639.193 432.039,635.508 384.72,628.221 364.871,628.221 351.639,628.221 336.564,625.458 324.671,623.28 322.159,624.034 317.804,625.374 313.7,632.241 309.596,639.193 309.931,644.888 310.182,648.74 311.522,658.958 312.611,668.086 311.606,671.688 M474.919,667.081 Q467.214,668.338 431.704,669.091 393.179,669.929 386.981,670.431 380.114,671.018 358.255,674.535 338.406,677.718 330.45,677.969 320.986,678.304 312.611,677.131 308.256,676.545 301.975,675.038 298.709,674.284 295.359,676.545 293.6,677.801 289.412,682.156 284.639,687.098 288.994,697.65 289.831,699.744 288.407,711.72 286.816,723.78 287.737,726.125 L290.669,733.244 Q293.935,742.205 295.275,751.669 M354.319,726.125 Q355.491,729.894 357.669,740.698 360.014,752.255 359.762,754.6" test="Avatar Man"/>
      <path id="Layer2_0_2_STROKES" stroke="#FF0" stroke-width="1.675" stroke-linejoin="round" stroke-linecap="round" fill="none" d="M530.529,342.466 Q529.691,347.156 531.366,350.59 533.125,354.191 536.391,354.191 537.731,354.191 539.574,353.186 541.667,352.014 542.254,350.423 M478.185,346.235 Q477.347,352.098 477.347,352.516 477.347,354.22 478.604,356.034 479.272,356.982 480.279,357.96 483.377,360.891 486.56,360.891 488.235,360.891 489.324,359.216 489.994,358.295 491.166,356.285" test="Avatar Man"/>
      <path id="Layer2_0_3_STROKES" stroke="#FFF" stroke-width="1.675" stroke-linejoin="round" stroke-linecap="round" fill="none" d="M559.841,388.11 Q565.453,390.371 565.704,394.14 565.72,394.378 565.746,394.643 565.741,394.706 565.746,394.768 L565.746,394.894 Q565.777,397.073 565.285,401.091 M552.304,403.185 Q557.823,401.868 561.181,397.825 562.307,396.472 563.191,394.81" test="Avatar Man"/>
      <path id="Layer2_0_4_STROKES" stroke="#F90" stroke-width="1.675" stroke-linejoin="round" stroke-linecap="round" fill="none" d="M495.437,633.163 Q497.196,632.995 512.522,639.276 531.618,645.474 551.55,645.306 570.729,645.139 587.646,640.281 601.884,636.178 603.056,636.513 608.249,637.853 612.353,647.065 617.545,658.539 614.781,673.363 611.348,692.039 602.554,705.774 592.252,721.77 577.094,726.544 L565.201,730.229 Q565.034,730.229 566.206,728.973 567.714,727.298 566.206,726.125 559.004,716.829 552.639,708.873 540.16,693.211 531.869,689.694 519.222,684.334 506.827,678.053 491.836,670.264 488.737,666.663 485.89,663.313 485.304,653.514 485.136,643.38 484.969,641.538 484.718,639.025 487.732,637.015 489.407,635.843 495.437,633.163Z" test="Avatar Man"/>
    </g>
    <g id="Avatar-Lady">
      <path fill="#000" stroke="none" d="M251.593,555.926 Q247.881,555.461 244.763,555.684 236.621,556.766 233.169,557.116 227.527,557.689 221.394,555.93 217.746,555.194 212.479,552.752 202.029,547.858 192.441,538.879 182.972,530.013 176.073,519.274 L174.408,520.464 Q174.628,526.821 172.411,541.848 170.775,553.271 171.195,561.708 171.269,563.279 171.418,564.748 171.726,567.779 173.888,582.361 176.025,603.411 174.277,611.33 173.115,616.637 171.338,622.602 170.343,627.042 170.959,633.104 171.302,636.48 172.486,640.605 L172.495,640.689 Q173.586,644.505 175.379,648.988 179.048,658.313 179.535,663.113 179.792,665.639 179.114,668.175 178.741,669.531 178.216,670.222 L179.784,671.424 Q180.016,673.34 180.104,677.091 180.113,677.279 180.138,677.428 180.265,682.61 180.168,691.121 L180.176,691.205 Q180.144,694.61 180.069,698.532 L183.761,700.539 Q186.017,696.689 191.844,688.829 200.005,677.878 201.911,674.026 L202.246,673.142 Q205.49,669.069 207.971,660.821 210.784,649.987 212.811,643.146 213.252,641.626 213.615,640.172 213.816,639.653 213.933,639.118 214.014,639.005 213.992,638.857 214.064,638.792 214.059,638.68 L214.059,638.68 Q218.071,625.048 220.653,616.489 225.981,598.594 229.152,590.445 230.609,586.646 232.702,582.684 233.535,581.082 234.415,579.447 L234.634,579.085 234.709,578.992 Q236.998,575.189 239.793,571.245 246.263,562.081 251.377,557.989 L251.593,555.926 M216.022,407.521 L214.184,395.288 213.763,395.33 Q204.332,396.288 198.835,397.442 187.765,399.842 179.224,404.537 171.021,409.198 163.654,416.241 160.863,418.878 158.172,421.732 158.174,421.772 158.096,421.825 157.909,422.058 157.634,422.297 153.666,426.763 150.002,431.749 143.716,440.213 141.539,448.941 139.355,457.585 139.386,467.109 L139.281,470.267 Q141.98,470.356 145.261,470.511 150.651,470.814 158.43,474.533 158.832,474.746 164.018,477.624 164.067,477.636 164.102,477.615 165.862,478.646 168.164,479.925 165.862,478.646 164.102,477.615 164.067,477.636 164.018,477.624 158.832,474.746 158.43,474.533 150.651,470.814 145.261,470.511 141.98,470.356 139.281,470.267 L137.724,481.74 Q139.477,481.948 141.346,482.223 155.497,484.188 160.86,483.389 155.497,484.188 141.346,482.223 139.477,481.948 137.724,481.74 137.551,481.711 137.379,481.69 125.644,480.195 119.365,481.052 L115.263,485.892 Q117.587,487.878 122.767,491.935 129.657,497.293 133.92,499.565 134.745,499.956 135.437,500.262 141.319,502.897 147.878,502.146 152.669,501.574 159.626,502.229 165.117,502.692 166.741,501.932 L172.191,502.824 170.964,510.01 175.963,519.03 Q176.051,519.167 176.073,519.274 182.972,530.013 192.441,538.879 202.029,547.858 212.479,552.752 217.746,555.194 221.394,555.93 227.527,557.689 233.169,557.116 236.621,556.766 244.763,555.684 247.881,555.461 251.593,555.926 L251.677,555.917 Q254.58,556.347 257.843,557.163 267.784,559.556 270.707,559.855 276.99,560.578 280.499,559.115 282.124,558.355 286.363,554.862 288.953,552.728 290.297,545.02 291.689,535.266 292.767,529.967 293.979,524.315 299.528,512.777 300.259,511.25 300.93,509.828 305.476,500.157 307.123,495.418 307.304,494.906 307.45,494.449 309.956,486.453 306.699,477.001 304.17,469.687 299.784,465.028 L293.38,457.257 Q292.872,457.662 292.177,457.974 286.95,460.121 286.63,454.454 L281.861,452.727 266.508,457.348 Q266.629,457.768 266.762,458.173 266.516,457.935 266.205,457.719 263.456,455.113 259.326,452.803 250.232,447.857 242.538,450 235.097,452.116 222.899,461.011 211.241,470.086 205.344,474.108 204.556,474.72 203.838,475.196 199.859,477.897 185.531,486.753 184.093,487.648 182.805,488.391 179.081,490.804 176.739,492.325 174.276,494.097 173.51,494.864 174.276,494.097 176.739,492.325 179.081,490.804 182.805,488.391 184.093,487.648 185.531,486.753 199.859,477.897 203.838,475.196 204.556,474.72 205.344,474.108 211.241,470.086 222.899,461.011 235.097,452.116 242.538,450 250.232,447.857 259.326,452.803 263.456,455.113 266.205,457.719 L266.508,457.348 Q266.443,457.144 266.381,456.936 265.355,453.654 264.467,449.814 262.457,440.916 263.361,437.252 264.081,434.286 270.854,430.621 276.887,427.201 276.278,425.391 274.595,420.543 266.466,413.372 L258.692,407.186 Q246.457,417.121 235.293,426.406 223.617,436.227 213.14,445.329 195.513,461.07 189.079,466.402 181.54,472.661 175.368,476.301 173.319,477.555 171.421,478.488 173.319,477.555 175.368,476.301 181.54,472.661 189.079,466.402 195.513,461.07 213.14,445.329 223.617,436.227 235.293,426.406 L229.092,418.954 Q228.232,418.02 223.088,413.439 217.48,408.479 216.022,407.521 M252.551,466.507 Q251.244,465.364 247.226,465.176 244.182,465.034 235.538,470.701 232.766,472.558 229.422,474.98 215.635,484.972 213.277,485.212 215.635,484.972 229.422,474.98 232.766,472.558 235.538,470.701 244.182,465.034 247.226,465.176 251.244,465.364 252.551,466.507 253.858,467.65 258.055,469.606 253.858,467.65 252.551,466.507 M248.556,480.779 Q250.43,478.292 250.276,476.776 250.233,476.355 247.914,474.464 250.233,476.355 250.276,476.776 250.43,478.292 248.556,480.779 246.539,483.535 244.434,483.749 238.287,484.373 237.842,479.995 237.774,479.321 237.833,479.06 238.034,478.529 239.159,476.203 238.034,478.529 237.833,479.06 237.774,479.321 237.842,479.995 238.287,484.373 244.434,483.749 246.539,483.535 248.556,480.779 M235.265,535.041 Q234.953,535.889 234.418,536.743 232.964,539.187 232.022,539.964 232.964,539.187 234.418,536.743 234.953,535.889 235.265,535.041 236.402,532.834 236.219,531.031 L235.677,529.044 236.219,531.031 Q236.402,532.834 235.265,535.041 M273.945,502.105 Q276.077,501.888 278.801,500.506 281.753,499.115 285.364,496.437 290.514,492.535 291.62,490.187 292.05,489.401 291.988,488.788 291.92,488.115 290.005,486.012 288.174,483.901 287.475,483.717 288.174,483.901 290.005,486.012 291.92,488.115 291.988,488.788 292.05,489.401 291.62,490.187 290.514,492.535 285.364,496.437 281.753,499.115 278.801,500.506 276.077,501.888 273.945,502.105 270.661,502.438 268.232,500.303 264.395,496.864 264.126,496.722 264.395,496.864 268.232,500.303 270.661,502.438 273.945,502.105 M293.553,504.197 Q293.484,503.523 292.363,502.531 293.484,503.523 293.553,504.197 293.664,505.292 293.337,506.26 293.01,507.229 292.245,508.073 290.631,509.768 288.189,510.016 287.263,510.11 285.249,509.549 283.32,508.979 282.055,508.257 283.32,508.979 285.249,509.549 287.263,510.11 288.189,510.016 290.631,509.768 292.245,508.073 293.01,507.229 293.337,506.26 293.664,505.292 293.553,504.197 M256.222,537.847 Q259.901,537.218 263.664,536.58 259.901,537.218 256.222,537.847 246.188,540.397 237.069,536.048 246.188,540.397 256.222,537.847 M191.057,438.128 Q186.731,434.059 180.345,432.326 174.043,430.584 168.731,431.889 174.043,430.584 180.345,432.326 186.731,434.059 191.057,438.128Z" test="Avatar Lady" stroke-width="1.693"/>
      <path id="Layer1_0_1_STROKES" stroke="#009EFF" stroke-width="1.693" stroke-linejoin="round" stroke-linecap="round" fill="none" d="M281.861,452.727 Q280.449,448.872 283.41,447.04 286.279,445.133 289.048,443.916 M256.656,403.054 Q256.832,402.271 256.789,401.85 256.703,401.008 253.378,395.901 249.453,389.92 248.828,388.792 246.531,384.602 241.957,383.961 237.283,384.01 235.606,383.414 236.071,384.643 236.49,388.769 L236.938,394.849 Q236.694,394.958 234.773,394.473 232.684,394.005 231.757,394.099 228.474,394.432 226.688,394.443 222.427,394.365 217.712,394.844 L214.184,395.288 M216.022,407.521 Q217.48,408.479 223.088,413.439 228.232,418.02 229.092,418.954 M235.606,383.414 Q235.594,383.331 235.514,383.339 L235.488,383.086 Q235.587,383.245 235.606,383.414Z M213.763,395.33 Q213.746,395.162 213.83,395.153 214.008,395.3 214.184,395.288 L213.763,395.33 Q204.332,396.288 198.835,397.442 187.765,399.842 179.224,404.537 171.021,409.198 163.654,416.241 160.863,418.878 158.214,421.728 158.174,421.772 158.139,421.82 157.909,422.058 157.676,422.293 153.666,426.763 150.002,431.749 143.716,440.213 141.539,448.941 139.355,457.585 139.386,467.109 M139.286,470.31 Q141.98,470.356 145.261,470.511 150.651,470.814 158.43,474.533 158.832,474.746 164.018,477.624 164.067,477.636 164.106,477.657 165.862,478.646 168.164,479.925 M258.055,469.606 Q253.858,467.65 252.551,466.507 251.244,465.364 247.226,465.176 244.182,465.034 235.542,470.744 232.766,472.558 229.422,474.98 215.635,484.972 213.277,485.212 M264.126,496.722 Q264.395,496.864 268.232,500.303 270.661,502.438 273.945,502.105 276.077,501.888 278.848,500.543 281.753,499.115 285.364,496.437 290.514,492.535 291.662,490.183 292.05,489.401 291.988,488.788 291.92,488.115 290.005,486.012 288.174,483.901 287.475,483.717 M299.784,465.028 Q304.17,469.687 306.699,477.001 309.956,486.453 307.45,494.449 307.304,494.906 307.123,495.418 305.476,500.157 300.93,509.828 300.259,511.25 299.528,512.777 293.979,524.315 292.767,529.967 291.689,535.266 290.297,545.02 288.953,552.728 286.363,554.862 282.124,558.355 280.499,559.115 276.99,560.578 270.707,559.855 267.784,559.556 257.843,557.163 254.58,556.347 251.681,555.959 L251.597,555.968 M251.377,557.989 Q246.263,562.081 239.793,571.245 236.998,575.189 234.752,578.988 L234.676,579.081 234.458,579.443 Q233.535,581.082 232.702,582.684 230.609,586.646 229.152,590.445 225.981,598.594 220.653,616.489 218.071,625.048 214.101,638.676 L214.063,638.722 Q214.064,638.792 214.034,638.853 214.014,639.005 213.98,639.156 213.816,639.653 213.657,640.167 213.252,641.626 212.811,643.146 210.784,649.987 207.971,660.821 205.49,669.069 202.246,673.142 M201.911,674.026 Q200.005,677.878 191.844,688.829 186.017,696.689 183.765,700.581 183.055,701.843 182.703,702.688 M282.055,508.257 Q283.32,508.979 285.249,509.549 287.263,510.11 288.189,510.016 290.631,509.768 292.245,508.073 293.01,507.229 293.337,506.26 293.664,505.292 293.553,504.197 293.484,503.523 292.363,502.531 M251.597,555.968 Q247.881,555.461 244.763,555.684 236.621,556.766 233.169,557.116 227.527,557.689 221.394,555.93 217.746,555.194 212.479,552.752 202.029,547.858 192.441,538.879 182.972,530.013 176.12,519.312 M174.408,520.464 Q174.628,526.821 172.411,541.848 170.775,553.271 171.195,561.708 171.269,563.279 171.418,564.748 171.726,567.779 173.888,582.361 176.025,603.411 174.277,611.33 173.115,616.637 171.338,622.602 170.343,627.042 170.959,633.104 171.302,636.48 172.49,640.647 L172.495,640.689 Q173.586,644.505 175.379,648.988 179.048,658.313 179.535,663.113 179.792,665.639 179.114,668.175 178.741,669.531 178.22,670.265 M179.784,671.424 Q180.016,673.34 180.108,677.133 180.113,677.279 180.138,677.428 180.265,682.61 180.172,691.163 L180.176,691.205 Q180.144,694.61 180.069,698.532 M230.124,592.473 L230.106,597.324 Q230.191,598.166 231.123,601.474 232.054,604.782 232.14,605.624 232.225,606.466 233.53,611.778 234.751,617.099 234.836,617.941 235.555,625.013 228.292,655.695 220.945,686.385 221.586,692.7 222.21,698.847 232.951,712.473 241.347,723.104 251.653,733.287 259.117,740.61 278.271,775.925 278.382,777.02 279.081,777.204 279.688,777.313 279.712,776.715 M194.641,733.121 Q196.865,734.086 208.897,743.668 221.781,754.099 222.029,756.541 222.337,759.572 244.606,772.794 266.875,786.015 267.217,789.383 267.32,790.393 267.648,790.275 267.976,790.156 267.993,790.325 L268.607,789.667 M191.057,438.128 Q186.731,434.059 180.345,432.326 174.043,430.584 168.731,431.889 M139.286,470.31 Q139.203,470.328 139.117,470.327 139.03,470.325 138.949,470.344 134.854,470.258 132.157,470.48 124.899,471.047 119.875,473.514 113.64,476.614 112.933,477.196 111.756,478.167 112.079,480.516 112.504,483.025 113.947,484.665 114.343,485.063 115.073,485.699 115.165,485.771 115.258,485.85 L115.305,485.888 M119.365,481.052 Q125.644,480.195 137.379,481.69 137.551,481.711 137.724,481.74 M115.305,485.888 Q117.587,487.878 122.767,491.935 129.657,497.293 133.962,499.561 134.745,499.956 135.437,500.262 141.319,502.897 147.878,502.146 152.669,501.574 159.626,502.229 165.117,502.692 166.741,501.932 M170.964,510.01 L175.963,519.03 Q176.051,519.167 176.12,519.312 M130.788,505.583 Q128.326,508.98 127.688,526.994 127.414,535.189 127.358,537.151 127.372,540.637 127.765,544.51 128.244,549.226 131.249,559.554 134.17,569.891 134.769,575.785 134.831,576.398 134.897,577.048 135.114,579.857 135.109,583.321 135.112,589 134.527,596.439 134.117,601.654 133.42,607.737 130.985,628.997 132.729,646.173 133.011,648.952 135.189,657.833 137.316,666.209 137.31,667.826 M137.724,481.74 Q139.477,481.948 141.346,482.223 155.497,484.188 160.86,483.389 M152.877,522.055 L153.259,524.142 Q153.456,526.079 152.723,531.428 151.998,536.861 152.275,541.256 152.518,546.165 153.356,554.417 153.45,555.343 154.086,558.256 154.73,561.253 154.842,562.348 154.848,562.408 154.854,562.474 155.069,564.739 154.919,568.975 154.834,574.003 154.205,575.343 153.541,576.346 152.357,578.933 151.514,580.677 151.12,581.823 150.726,582.969 150.781,583.516 M156.881,618.456 Q156.95,619.129 156.64,626.136 156.247,633.152 156.349,634.162 156.537,636.015 158.575,640.997 159.56,643.512 160.084,644.969 160.571,646.412 160.613,646.83 160.904,649.692 159.001,655.245 157.29,660.183 155.786,662.122 M134.897,577.048 Q130.158,578.125 125.156,584.162 120.516,589.703 119.674,595.522 119.433,597.219 119.511,598.942 119.722,604.365 121.307,661.029 123.017,716.405 123.531,722.308 123.933,726.265 124.036,733.145 124.061,734.155 124.103,735.052 L124.111,735.137 Q124.317,738.016 124.872,739.696 125.362,741.177 165.353,789.008 205.039,836.359 205.465,839.719 M117.619,595.391 Q109.955,600.337 102.223,604.61 91.183,610.665 84.827,611.736 71.549,613.339 56.022,614.576 25.043,616.956 13.882,615.112 M178.22,670.265 Q177.737,670.952 177.105,671.016 M180.069,698.532 L180.074,698.574 Q180.059,700.524 180.017,702.621 179.79,713.822 179.316,728.808 179.245,732.303 189.939,747.975 203.114,767.139 206.096,773.046 226.453,813.513 228.781,832.247 M28.892,716.01 Q35.57,716.438 52.419,720.681 70.76,725.369 80.914,729.868 94.718,735.952 98.298,736.864 105.729,738.832 114.972,736.873 118.719,736.067 121.858,735.153" test="Avatar Lady"/>
      <path id="Layer1_0_2_STROKES" stroke="#FFBC00" stroke-width="1.693" stroke-linejoin="round" stroke-linecap="round" fill="none" d="M235.335,426.401 Q246.457,417.121 258.692,407.186 L266.466,413.372 Q274.595,420.543 276.278,425.391 276.887,427.201 270.854,430.621 264.081,434.286 263.361,437.252 262.457,440.916 264.467,449.814 265.355,453.654 266.381,456.936 266.443,457.144 266.508,457.348 M171.421,478.488 Q173.319,477.555 175.372,476.343 181.54,472.661 189.079,466.402 195.513,461.07 213.14,445.329 223.617,436.227 235.335,426.401 M266.247,457.715 Q266.516,457.935 266.762,458.173 266.629,457.768 266.508,457.348 M266.247,457.715 Q263.456,455.113 259.326,452.803 250.232,447.857 242.538,450 235.097,452.116 222.899,461.011 211.241,470.086 205.39,474.145 204.556,474.72 203.838,475.196 199.859,477.897 185.531,486.753 184.093,487.648 182.809,488.433 179.081,490.804 176.786,492.362 174.276,494.097 173.51,494.864" test="Avatar Lady"/>
      <path id="Layer1_0_3_STROKES" stroke="#FF0" stroke-width="1.693" stroke-linejoin="round" stroke-linecap="round" fill="none" d="M286.63,454.454 Q286.95,460.121 292.177,457.974 292.872,457.662 293.422,457.253 295.343,455.764 295.327,452.976 295.289,450.087 292.433,449.612 M239.159,476.203 Q238.034,478.529 237.833,479.06 237.774,479.321 237.842,479.995 238.287,484.373 244.434,483.749 246.539,483.535 248.556,480.779 250.43,478.292 250.276,476.776 250.233,476.355 247.914,474.464" test="Avatar Lady"/>
      <path id="Layer1_0_4_STROKES" stroke="#FFF" stroke-width="1.693" stroke-linejoin="round" stroke-linecap="round" fill="none" d="M235.677,529.044 L236.219,531.031 Q236.402,532.834 235.312,535.078 234.953,535.889 234.418,536.743 232.964,539.187 232.022,539.964 M237.069,536.048 Q246.188,540.397 256.222,537.847 259.901,537.218 263.664,536.58" test="Avatar Lady"/>
    </g>
  </g>
</svg>