<?xml version="1.0" encoding="utf-8"?>
<svg id="EdithAnim13" image-rendering="inherit" baseProfile="basic" version="1.1" x="0px" y="0px" width="800" height="600" xmlns="http://www.w3.org/2000/svg" xmlns:xlink="http://www.w3.org/1999/xlink">
  <g id="22_Avatarf221r1" overflow="visible">
    <g id="Avatar-Manf30r1">
      <g id="Tailf30r1">
        <g id="Tail-Wiggly">
          <path id="Layer4_0_1_STROKES" stroke="#009EFF" stroke-width="2.576" stroke-linejoin="round" stroke-linecap="round" fill="none" d="M439.586,703.042 L449.889,711.306 Q454.318,714.883 460.077,719.195 L481.887,734.007 487.712,737.337 Q490.797,739.077 493.713,740.514 L499.463,743.269 499.663,743.307 Q499.599,743.316 499.807,743.418 L499.871,743.41 499.944,743.465 504.811,745.427 505.227,745.632 520.059,749.797 Q526.864,751.18 533.577,751.861 539.827,752.472 546.937,752.711 L550.252,752.732 550.315,752.724 550.451,752.771 550.707,752.738 567.164,751.949 Q571.697,751.356 573.979,750.928 581.408,749.632 587.634,747.584 594.419,745.333 600.772,741.774 604.036,739.919 606.94,737.786 L607.647,737.238 608.069,736.988 609.301,735.983 609.421,735.902 609.485,735.894 609.604,735.814 609.89,735.516 610.478,735.05 610.764,734.753 610.947,734.664 612.465,733.361 Q617.711,728.779 622.226,723.577 626.797,718.304 630.526,712.556 L630.693,712.339 633.886,704.973 634.01,704.437 634.387,703.349 634.512,702.813 634.607,702.541 634.709,702.332 636.835,692.768 636.93,692.496 637.877,679.383 636.687,665.317 636.384,663.992 636.343,663.673 636.245,663.426 636.106,662.86 636.065,662.541 635.967,662.294 635.625,661.169 Q635.128,659.351 634.155,656.881 L632.408,652.953 Q630.905,649.902 628.341,645.692 L627.833,644.784 627.358,644.132 627.26,643.885 626.955,643.535 626.858,643.288 626.705,643.113 626.133,642.214 609.876,620.701 Q604.791,614.092 600.983,608.811 L597.633,604.053 597.205,603.265 597.061,603.154 596.972,602.971 595.328,600.328 595.142,599.898 592.016,593.878 591.894,593.439 591.539,592.706 591.124,591.526 590.947,591.16 589.929,587.851 589.879,587.468 589.774,587.157 589.674,586.391 589.568,586.08 589.459,585.25 589.482,584.922 589.348,583.901 589.375,583.118 589.325,582.735 589.353,581.952 Q589.347,580.914 589.59,578.804 589.948,575.575 590.871,572.207 591.112,571.071 591.794,568.839 L592.917,565.51 Q593.492,563.941 595.611,558.793 L596.304,557.144 603.784,542.333 624.771,506.663 Q628.198,501.085 632.477,493.576 L635.631,487.903 635.798,487.687 639.635,479.782 Q641.637,475.234 642.555,472.321 L644.36,465.266 644.482,464.211 Q644.803,461.701 644.52,459.53 L644.188,457.495 644.091,457.248 644.049,456.929 643.952,456.682 643.674,455.55 641.724,451.064 Q640.843,449.296 639.571,447.514 638.354,445.66 637.188,444.189 L628.959,435.394 628.743,435.227 628.004,434.544 627.851,434.37 593.606,406.897 Q587.299,401.877 582.089,397.298 L577.352,392.852 577.28,392.796 577.199,392.677 577.046,392.502 576.685,392.224 574.186,389.499 Q573.133,388.403 571.806,386.693 569.337,383.704 567.595,380.814 565.506,377.256 564.603,374.322 L563.871,370.716 563.919,370.58 563.868,370.197 564.118,367.631 564.96,364.144 Q565.39,362.464 566.059,360.624 566.946,357.975 568.782,353.643 L571.851,346.813 Q572.988,344.586 575.255,340.068 L578.739,333.443 Q581.877,327.643 586.1,320.206 593.939,306.648 601.561,294.416 L602.138,294.86 Q602.283,294.971 602.33,294.835 602.449,294.754 602.305,294.643 L601.583,294.088 Q601.511,294.033 601.391,294.113 592.054,308.128 584.906,319.518 L573.308,339.089 566.3,352.539 Q564.375,356.688 563.257,359.561 L561.121,366.075 560.603,369.065 560.548,370.631 560.501,370.767 560.56,371.214 560.521,371.414 560.771,373.329 561.8,377.221 562.561,379.07 Q563.136,380.488 564.267,382.678 566.139,386.07 568.569,389.259 L574.021,395.69 574.166,395.801 574.246,395.92 578.962,400.694 Q584.069,405.481 590.289,410.837 L623.447,439.427 624.05,440.062 624.266,440.229 631.526,448.566 Q632.629,450.045 633.468,451.494 L633.709,451.852 635.623,455.563 635.737,455.938 635.915,456.304 636.143,457.054 636.321,457.42 636.371,457.803 636.599,458.553 636.665,459.064 636.746,459.183 636.888,460.269 636.858,462.026 636.78,462.426 636.767,462.817 636.689,463.217 636.667,463.545 634.937,469.681 Q634.08,472.066 632.027,476.231 L624.799,488.995 Q620.454,495.993 616.716,501.677 L596.283,533.638 585.049,554.005 Q583.012,558.298 581.839,561.244 L579.143,568.935 Q577.812,573.655 577.289,577.1 576.948,578.963 576.818,581.448 L576.757,581.975 576.753,585.418 577.29,590.024 577.387,590.271 577.421,590.526 Q577.752,592.561 578.499,594.801 L578.694,595.295 579.158,596.858 583.639,606.792 589.67,616.654 Q591.878,620.132 594.011,623.035 L607.207,641.507 Q610.074,645.548 611.379,647.585 L613.812,651.293 613.901,651.477 614.054,651.651 614.393,652.256 614.401,652.32 614.473,652.376 614.659,652.806 615.143,653.522 Q617.104,657.097 618.213,659.615 L618.86,661.089 618.974,661.464 619.443,662.571 620.347,665.505 620.552,666.582 620.658,666.893 620.742,667.532 620.839,667.779 620.964,668.737 620.934,669 621.382,674.916 621.127,683.392 620.213,689.811 618.258,697.21 618.156,697.419 616.763,701.172 616.708,701.245 616.716,701.309 615.895,702.975 Q612.082,708.084 608.827,711.497 605.191,715.479 600.556,719.268 L599.499,720.12 599.38,720.201 598.322,721.054 597.964,721.295 597.781,721.384 597.248,721.778 597.018,722.003 596.238,722.495 Q593.723,724.123 591.716,725.165 587.217,727.506 581.779,729.127 576.715,730.633 570.905,731.393 L553.746,732.273 551.069,732.169 550.878,732.194 550.742,732.147 547.802,732.011 Q541.122,731.586 536.094,730.88 530.802,730.143 524.772,728.724 L515.098,725.768 513.521,725.13 513.185,725.044 513.041,724.933 512.905,724.886 509.045,723.182 508.973,723.127 509.037,723.118 504.095,720.583 Q501.162,719.018 499.038,717.672 L491.535,712.938 474.699,700.398 455.854,684.419 Q452.033,681.022 446.883,681.371 441.797,681.712 438.409,685.597 435.084,689.473 435.425,694.559 435.765,699.645 439.586,703.042Z" test="Tail Wiggly"/>
        </g>
      </g>
      <path fill="#000" stroke="none" d="M456.494,576.368 Q451.907,566.072 446.104,564.574 444.794,564.2 428.882,568.786 409.974,574.215 388.54,574.402 366.263,574.589 344.922,567.663 327.794,560.643 325.828,560.83 319.089,563.825 317.217,565.136 313.847,567.382 314.128,570.19 314.315,572.249 314.502,583.575 315.158,594.526 318.34,598.27 321.803,602.295 338.558,611 352.41,618.02 366.544,624.01 375.81,627.941 389.757,645.444 396.87,654.336 404.92,664.726 406.605,666.036 404.92,667.908 403.61,669.312 403.797,669.312 L417.088,665.194 Q434.03,659.859 445.542,641.981 455.37,626.631 459.208,605.758 462.297,589.191 456.494,576.368 M462.484,186.898 L459.114,185.494 Q459.066,185.612 459.021,185.681 458.006,188.272 457.336,190.642 455.558,197.007 452.75,206.741 452.686,206.912 452.562,207.022 449.998,213.836 444.7,216.85 433.562,223.215 427.384,226.21 L431.596,235.57 Q431.128,242.403 433.281,288.173 433.359,289.862 433.374,291.449 435.121,327.214 435.34,338.062 435.338,338.133 435.34,338.156 435.372,340.664 435.34,341.806 434.966,356.501 437.68,379.714 438.054,382.99 443.202,380.276 448.35,377.468 447.976,375.502 447.789,374.098 449.942,374.847 451.72,375.502 452.188,375.97 452.282,376.064 459.208,352.102 L464.824,361.462 Q464.918,361.556 468.1,340.87 L473.716,343.21 Q473.825,343.32 473.061,333.382 473.102,333.36 473.061,333.288 471.994,318.009 468.942,279.188 467.091,255.466 465.666,239.876 463.903,219.036 462.952,212.732 462.686,210.893 462.484,210.298 462.686,210.893 462.952,212.732 463.903,219.036 465.666,239.876 L467.164,239.782 Q469.036,239.595 474.558,234.072 479.426,229.392 483.076,230.89 486.352,232.294 506.008,260.748 528.659,289.577 547.192,294.07 530.531,294.632 505.821,313.632 498.146,319.529 490.564,326.643 L489.441,327.672 Q490.774,341.9 495.15,390.572 L496.18,390.478 Q501.047,387.764 535.118,360.994 567.971,335.067 578.548,325.894 586.41,319.061 592.869,308.297 596.145,302.775 600.076,295.942 601.948,293.789 605.973,290.794 609.249,287.799 609.436,282.838 609.623,277.971 574.055,255.039 534.65,230.516 527.068,224.806 504.791,208.052 494.402,201.312 482.024,193.197 473.622,189.612 466.642,186.642 462.484,186.898 M395.934,181.188 Q398.742,180.72 401.363,180.252 405.575,180.252 405.294,185.4 413.344,184.464 416.526,185.4 419.896,186.43 419.802,190.08 L425.044,192.514 Q428.724,185.359 437.68,179.41 442.828,175.947 447.227,174.824 447.296,174.809 447.321,174.73 L446.104,167.242 Q447.508,167.148 444.794,163.872 439.833,158.163 435.808,153.202 430.379,146.463 411.472,140.379 394.905,135.044 385.732,134.95 356.342,134.669 336.124,142.906 323.582,148.054 312.35,163.592 310.197,166.536 308.418,169.208 303.4,177.164 301.866,183.154 L301.866,185.4 Q302.054,185.4 302.896,185.681 303.832,185.868 304.487,185.868 307.857,185.868 311.226,183.154 315.064,179.972 318.714,179.316 L318.714,181.656 322.926,181.656 Q325.734,181.095 331.07,179.504 335.188,178.193 336.03,178.38 L336.03,180.72 Q336.966,180.72 340.71,181.188 346.888,181.188 352.878,177.912 L357.558,177.912 357.558,179.784 365.046,179.784 Q377.402,176.04 378.15,176.04 379.367,176.04 380.49,176.883 381.801,177.819 384.234,177.912 384.234,180.252 383.766,181.188 L395.934,181.188Z" test="Avatar Man" stroke-width="1.872"/>
      <path id="Layer3_0_1_STROKES" stroke="#009EFF" stroke-width="1.872" stroke-linejoin="round" stroke-linecap="round" fill="none" d="M419.802,190.08 Q419.896,186.43 416.526,185.4 413.344,184.464 405.294,185.4 405.575,180.252 401.363,180.252 398.742,180.72 395.934,181.188 L383.766,181.188 Q384.234,180.252 384.234,177.912 381.801,177.819 380.49,176.883 379.367,176.04 378.15,176.04 377.402,176.04 365.046,179.784 L357.558,179.784 357.558,177.912 352.878,177.912 Q346.888,181.188 340.71,181.188 336.966,180.72 336.03,180.72 L336.03,178.38 Q335.188,178.193 331.07,179.504 325.734,181.095 322.926,181.656 L318.714,181.656 318.714,179.316 Q315.064,179.972 311.226,183.154 307.857,185.868 304.487,185.868 303.832,185.868 302.896,185.681 302.054,185.4 301.866,185.4 L301.866,183.154 Q303.4,177.164 308.465,169.254 310.197,166.536 312.35,163.592 323.582,148.054 336.124,142.906 356.342,134.669 385.732,134.95 394.905,135.044 411.472,140.379 430.379,146.463 435.808,153.202 439.833,158.163 444.794,163.872 447.508,167.148 446.104,167.242 M447.368,174.777 Q447.437,174.784 447.508,174.777 450.338,174.152 456.4,173.794 460.799,173.607 463.514,171.828 465.011,170.892 467.164,169.114 468.006,168.646 464.543,174.636 462.952,177.351 461.642,179.972 460.84,181.546 460.191,183.06 460.035,183.373 459.91,183.669 459.637,184.253 459.395,184.839 459.249,185.168 459.114,185.494 M462.484,186.898 Q466.642,186.642 473.669,189.659 482.024,193.197 494.402,201.312 504.791,208.052 527.068,224.806 534.65,230.516 574.055,255.039 609.623,277.971 609.436,282.838 609.249,287.799 605.973,290.794 601.948,293.789 600.076,295.942 596.145,302.775 592.869,308.297 586.41,319.061 578.548,325.894 567.971,335.067 535.118,360.994 501.047,387.764 496.18,390.478 495.695,390.794 495.244,391.086 489.796,394.621 487.382,396 483.076,398.528 479.332,397.966 M461.642,179.972 Q460.183,181.57 458.974,182.499 457.752,183.39 456.774,183.622 453.218,183.903 448.912,184.558 443.39,185.4 440.394,187.46 436.37,190.923 432.532,193.918 427.758,197.662 424.763,199.44 L422.704,200.47 Q423.155,196.34 425.091,192.561 M418.866,190.08 L419.802,190.08 M425.091,192.561 Q428.724,185.359 437.68,179.41 442.828,175.947 447.227,174.824 447.296,174.809 447.368,174.777 M459.114,185.494 Q459.066,185.612 459.021,185.728 458.006,188.272 457.336,190.642 455.558,197.007 452.75,206.741 452.686,206.912 452.609,207.069 449.998,213.836 444.7,216.85 433.562,223.215 427.384,226.21 M431.596,235.57 Q431.128,242.403 433.281,288.173 433.359,289.862 433.421,291.496 435.121,327.214 435.34,338.062 435.338,338.133 435.34,338.202 435.372,340.664 435.34,341.806 434.966,356.501 437.68,379.714 438.054,382.99 443.202,380.276 448.35,377.468 447.976,375.502 447.789,374.098 449.942,374.847 451.72,375.502 452.188,375.97 452.282,376.064 459.208,352.102 L464.824,361.462 Q464.918,361.556 468.1,340.87 L473.716,343.21 Q473.825,343.32 473.108,333.429 473.102,333.36 473.108,333.288 471.994,318.009 468.942,279.188 467.091,255.466 465.713,239.876 463.903,219.036 462.952,212.732 462.686,210.893 462.484,210.298 M489.441,327.719 L490.564,326.643 Q498.146,319.529 505.821,313.632 530.531,294.632 547.192,294.07 528.659,289.577 506.008,260.748 486.352,232.294 483.076,230.89 479.426,229.392 474.558,234.072 469.036,239.595 467.164,239.782 M361.864,232.294 Q362.955,232.47 365.234,232.575 367.832,232.668 371.973,232.668 379.274,232.575 382.456,232.294 388.353,231.732 389.102,231.545 392.846,230.516 393.22,227.614 M416.62,307.174 Q417.556,313.258 419.709,322.056 422.33,332.633 424.576,338.062 M312.256,304.366 Q312.256,304.46 312.63,314.007 312.911,320.84 315.532,325.426 316.374,326.897 317.638,328.328 321.472,332.609 329.198,336.471 339.868,341.9 350.164,342.274 L353.955,342.555 354.095,342.555 Q364.017,342.929 367.012,342.742 372.16,342.368 378.244,340.402 382.737,338.998 394.811,328.14 403.392,320.345 412.502,310.824 412.62,310.71 412.736,310.59 412.807,310.523 412.876,310.45 412.971,310.36 413.063,310.263 414.501,308.737 415.965,307.174 416.06,307.073 416.152,306.987 416.189,306.933 416.246,306.893 416.261,306.839 416.292,306.8 427.313,295.049 428.788,291.73 M353.908,343.21 Q353.066,347.235 351.474,356.408 349.883,364.364 347.356,368.482 M484.48,332.446 L489.441,327.719 M474.184,406.858 Q474.09,407.045 464.637,431.662 457.898,449.165 455.464,459.274 452.469,471.536 449.848,508.04 447.227,543.608 448.444,551.47 M394.53,454.968 Q395.092,457.028 396.964,457.589 397.526,457.776 399.023,457.776 401.457,457.776 402.393,456.653 402.767,456.279 404.265,452.816 M357.09,441.396 Q356.903,458.432 358.12,461.052 360.086,465.732 371.13,465.732 376.466,465.732 376.934,465.639 377.495,465.545 379.554,464.328 M358.494,498.96 Q357.558,501.768 357.558,504.857 357.558,510.005 361.677,510.286 364.391,510.38 373.002,510.192 M355.218,537.804 Q359.992,541.08 363.081,541.829 365.327,542.297 369.258,541.548 M403.048,669.874 Q396.028,673.15 377.214,676.707 358.214,680.264 337.996,682.042 320.493,683.633 279.309,682.791 248.234,682.229 230.356,681.106 216.597,680.264 188.704,677.362 181.778,676.613 176.63,677.736 172.979,678.579 171.856,677.83 M306.64,168.178 Q303.083,166.025 298.871,163.779 290.447,159.38 287.92,159.754 285.206,160.128 287.452,173.513 289.324,184.932 291.196,189.706 M295.876,202.342 Q296.625,205.431 298.59,211.608 299.714,216.569 296.812,218.722 293.238,221.386 289.839,223.87 L289.792,223.917 Q238.722,261.838 232.228,264.118 226.518,265.803 225.114,266.271 223.149,267.02 222.868,268.798 222.4,272.448 222.213,284.991 221.932,299.405 222.868,302.494 226.05,315.224 250.574,351.447 274.629,386.921 288.856,400.774 M297.748,234.634 Q300.65,236.132 306.453,236.88 306.689,236.916 306.921,236.927 312.398,237.712 317.872,237.442 321.335,237.255 329.385,235.944 335.937,234.821 337.996,235.102 M297.28,258.97 Q296.157,260.842 284.082,272.916 273.131,283.868 270.136,286.582 M320.118,280.872 Q324.33,280.872 329.01,279.936 L347.262,279.936 Q341.646,285.927 338.464,289.109 332.567,294.912 331.163,294.912 328.636,294.912 324.892,289.671 321.054,283.68 319.65,282.276 M259.84,281.434 Q261.446,285.315 264.894,290.232 264.932,290.287 264.988,290.326 273.569,302.633 293.536,321.401 302.812,330.112 309.635,336.752 325.426,352.068 328.168,356.314 M296.812,426.982 Q296.157,441.864 299.152,448.978 301.024,453.284 306.734,458.151 312.63,462.924 317.872,464.422 M312.724,472.846 Q312.818,475.748 312.35,487.728 312.162,498.96 313.66,501.862 315.438,505.325 319.838,508.227 324.143,511.035 326.764,510.754 M319.276,514.498 Q319.37,517.587 319.37,522.36 319.557,525.917 321.148,528.07 321.335,528.351 326.39,531.814 329.759,534.154 329.572,538.366 329.385,541.548 327.419,549.411 325.734,555.963 326.296,558.022 M303.364,571.594 Q281.462,567.569 254.973,563.451 202.089,555.308 179.906,555.308 165.117,555.308 148.269,552.219 134.978,549.785 132.17,550.628 127.302,552.125 122.716,559.8 118.13,567.569 118.504,573.934 118.785,578.24 120.282,589.659 121.499,599.861 120.376,603.886 M302.896,598.738 Q294.285,600.142 254.598,600.984 211.542,601.92 204.616,602.482 196.941,603.137 172.511,607.068 150.328,610.625 141.436,610.906 130.859,611.28 121.499,609.97 116.632,609.315 109.612,607.63 105.962,606.788 102.218,609.315 100.252,610.719 95.572,615.586 90.237,621.108 95.104,632.902 96.04,635.242 94.449,648.627 92.67,662.105 93.7,664.726 L96.976,672.682 Q100.626,682.697 102.124,693.274 M168.112,664.726 Q169.422,668.938 171.856,681.012 174.477,693.929 174.196,696.55" test="Avatar Man"/>
      <path id="Layer3_0_2_STROKES" stroke="#FF0" stroke-width="1.872" stroke-linejoin="round" stroke-linecap="round" fill="none" d="M365.046,235.944 Q364.11,241.186 365.982,245.024 367.948,249.048 371.598,249.048 373.096,249.048 375.155,247.925 377.495,246.615 378.15,244.836 M306.546,240.156 Q305.61,246.708 305.61,247.176 305.61,249.08 307.014,251.108 307.761,252.167 308.886,253.26 312.35,256.536 315.906,256.536 317.778,256.536 318.995,254.664 319.744,253.635 321.054,251.388" test="Avatar Man"/>
      <path id="Layer3_0_3_STROKES" stroke="#FFF" stroke-width="1.872" stroke-linejoin="round" stroke-linecap="round" fill="none" d="M397.806,286.956 Q404.078,289.484 404.358,293.696 404.377,293.961 404.405,294.257 404.4,294.328 404.405,294.398 L404.405,294.538 Q404.441,296.973 403.89,301.464 M389.382,303.804 Q395.551,302.333 399.304,297.814 400.562,296.301 401.55,294.444" test="Avatar Man"/>
      <path id="Layer3_0_4_STROKES" stroke="#F90" stroke-width="1.872" stroke-linejoin="round" stroke-linecap="round" fill="none" d="M325.828,560.83 Q327.794,560.643 344.922,567.663 366.263,574.589 388.54,574.402 409.974,574.215 428.882,568.786 444.794,564.2 446.104,564.574 451.907,566.072 456.494,576.368 462.297,589.191 459.208,605.758 455.37,626.631 445.542,641.981 434.03,659.859 417.088,665.194 L403.797,669.312 Q403.61,669.312 404.92,667.908 406.605,666.036 404.92,664.726 396.87,654.336 389.757,645.444 375.81,627.941 366.544,624.01 352.41,618.02 338.558,611 321.803,602.295 318.34,598.27 315.158,594.526 314.502,583.575 314.315,572.249 314.128,570.19 313.847,567.382 317.217,565.136 319.089,563.825 325.828,560.83Z" test="Avatar Man"/>
    </g>
    <g id="Censoredf12r1">
      <path fill="#000" stroke="none" d="M-18.85,403.35 L-18.85,629.9 829.1,629.9 829.1,403.35 -18.85,403.35Z" test="Censored"/>
      <path id="Layer1_0_1_STROKES" stroke="#F00" stroke-width="1" stroke-linejoin="round" stroke-linecap="round" fill="none" d="M65.35,401.7 L732,401.7 732,561.5 65.35,561.5 65.35,401.7Z" test="Censored"/>
    </g>
  </g>
</svg>