<?xml version="1.0" encoding="utf-8"?>
<svg id="EdithAnim13" image-rendering="inherit" baseProfile="basic" version="1.1" x="0px" y="0px" width="800" height="600" xmlns="http://www.w3.org/2000/svg" xmlns:xlink="http://www.w3.org/1999/xlink">
  <g id="22_Avatarf224r1" overflow="visible">
    <g id="Avatar-Manf33r1">
      <g id="Tailf33r1">
        <g id="Tail-Wiggly">
          <path id="Layer5_0_1_STROKES" stroke="#009EFF" stroke-width="2.576" stroke-linejoin="round" stroke-linecap="round" fill="none" d="M439.586,690.842 L449.889,699.106 Q454.318,702.683 460.077,706.995 L481.887,721.807 487.712,725.137 Q490.797,726.877 493.713,728.314 L499.463,731.069 499.663,731.107 Q499.599,731.116 499.807,731.218 L499.871,731.21 499.944,731.265 504.811,733.227 505.227,733.432 520.059,737.597 Q526.864,738.98 533.577,739.661 539.827,740.272 546.937,740.511 L550.252,740.532 550.315,740.524 550.451,740.571 550.707,740.538 567.164,739.749 Q571.697,739.156 573.979,738.728 581.408,737.432 587.634,735.384 594.419,733.133 600.772,729.574 604.036,727.719 606.94,725.586 L607.647,725.038 608.069,724.788 609.301,723.783 609.421,723.702 609.485,723.694 609.604,723.614 609.89,723.316 610.478,722.85 610.764,722.553 610.947,722.464 612.465,721.161 Q617.711,716.579 622.226,711.377 626.797,706.104 630.526,700.356 L630.693,700.139 633.886,692.773 634.01,692.237 634.387,691.149 634.512,690.613 634.607,690.341 634.709,690.132 636.835,680.568 636.93,680.296 637.877,667.183 636.687,653.117 636.384,651.792 636.343,651.473 636.245,651.226 636.106,650.66 636.065,650.341 635.967,650.094 635.625,648.969 Q635.128,647.151 634.155,644.681 L632.408,640.753 Q630.905,637.702 628.341,633.492 L627.833,632.584 627.358,631.932 627.26,631.685 626.955,631.335 626.858,631.088 626.705,630.913 626.133,630.014 609.876,608.501 Q604.791,601.892 600.983,596.611 L597.633,591.853 597.205,591.065 597.061,590.954 596.972,590.771 595.328,588.128 595.142,587.698 592.016,581.678 591.894,581.239 591.539,580.506 591.124,579.326 590.947,578.96 589.929,575.651 589.879,575.268 589.774,574.957 589.674,574.191 589.568,573.88 589.459,573.05 589.482,572.722 589.348,571.701 589.375,570.918 589.325,570.535 589.353,569.752 Q589.347,568.714 589.59,566.603 589.948,563.375 590.871,560.007 591.112,558.871 591.794,556.639 L592.917,553.31 Q593.492,551.741 595.611,546.593 L596.304,544.944 603.784,530.133 624.771,494.463 Q628.198,488.885 632.477,481.376 L635.631,475.703 635.798,475.487 639.635,467.582 Q641.637,463.034 642.555,460.121 L644.36,453.066 644.482,452.011 Q644.803,449.501 644.52,447.33 L644.188,445.295 644.091,445.048 644.049,444.729 643.952,444.482 643.674,443.35 641.724,438.864 Q640.843,437.096 639.571,435.314 638.354,433.46 637.188,431.989 L628.959,423.194 628.743,423.027 628.004,422.344 627.851,422.17 593.606,394.697 Q587.299,389.677 582.089,385.097 L577.352,380.652 577.28,380.596 577.199,380.477 577.046,380.302 576.685,380.024 574.186,377.299 Q573.133,376.203 571.806,374.493 569.337,371.504 567.595,368.614 565.506,365.056 564.603,362.122 L563.871,358.516 563.919,358.38 563.868,357.997 564.118,355.431 564.96,351.944 Q565.39,350.264 566.059,348.424 566.946,345.775 568.782,341.443 L571.851,334.613 Q572.988,332.386 575.255,327.868 L578.739,321.243 Q581.877,315.443 586.1,308.006 593.939,294.448 601.561,282.216 L602.138,282.66 Q602.283,282.771 602.33,282.635 602.449,282.554 602.305,282.443 L601.583,281.888 Q601.511,281.833 601.391,281.913 592.054,295.928 584.906,307.318 L573.308,326.889 566.3,340.339 Q564.375,344.487 563.257,347.361 L561.121,353.875 560.603,356.865 560.548,358.431 560.501,358.567 560.56,359.014 560.521,359.214 560.771,361.129 561.8,365.021 562.561,366.87 Q563.136,368.288 564.267,370.478 566.139,373.87 568.569,377.059 L574.021,383.49 574.166,383.601 574.246,383.72 578.962,388.494 Q584.069,393.281 590.289,398.637 L623.447,427.227 624.05,427.862 624.266,428.029 631.526,436.366 Q632.629,437.845 633.468,439.294 L633.709,439.652 635.623,443.363 635.737,443.738 635.915,444.104 636.143,444.854 636.321,445.22 636.371,445.603 636.599,446.353 636.665,446.864 636.746,446.983 636.888,448.069 636.858,449.826 636.78,450.226 636.767,450.617 636.689,451.017 636.667,451.345 634.937,457.481 Q634.08,459.866 632.027,464.031 L624.799,476.795 Q620.454,483.793 616.716,489.477 L596.283,521.438 585.049,541.805 Q583.012,546.098 581.839,549.044 L579.143,556.735 Q577.812,561.455 577.289,564.9 576.948,566.763 576.818,569.248 L576.757,569.775 576.753,573.218 577.29,577.824 577.387,578.071 577.421,578.326 Q577.752,580.361 578.499,582.601 L578.694,583.095 579.158,584.658 583.639,594.592 589.67,604.454 Q591.878,607.932 594.011,610.835 L607.207,629.307 Q610.074,633.348 611.379,635.385 L613.812,639.093 613.901,639.277 614.054,639.451 614.393,640.056 614.401,640.12 614.473,640.176 614.659,640.606 615.143,641.322 Q617.104,644.897 618.213,647.415 L618.86,648.889 618.974,649.264 619.443,650.371 620.347,653.305 620.552,654.382 620.658,654.693 620.742,655.332 620.839,655.579 620.964,656.537 620.934,656.8 621.382,662.716 621.127,671.192 620.213,677.611 618.258,685.01 618.156,685.219 616.763,688.972 616.708,689.045 616.716,689.108 615.895,690.775 Q612.082,695.884 608.827,699.297 605.191,703.279 600.556,707.068 L599.499,707.92 599.38,708.001 598.322,708.853 597.964,709.095 597.781,709.184 597.248,709.578 597.018,709.803 596.238,710.295 Q593.723,711.923 591.716,712.965 587.217,715.306 581.779,716.927 576.715,718.433 570.905,719.193 L553.746,720.073 551.069,719.969 550.878,719.994 550.742,719.947 547.802,719.811 Q541.122,719.386 536.094,718.68 530.802,717.943 524.772,716.524 L515.098,713.568 513.521,712.93 513.185,712.844 513.041,712.733 512.905,712.685 509.045,710.982 508.973,710.927 509.037,710.918 504.095,708.383 Q501.162,706.818 499.038,705.472 L491.535,700.738 474.699,688.198 455.854,672.219 Q452.033,668.822 446.883,669.171 441.797,669.512 438.409,673.397 435.084,677.273 435.425,682.359 435.765,687.445 439.586,690.842Z" test="Tail Wiggly"/>
        </g>
      </g>
      <path fill="#000" stroke="none" d="M456.494,576.368 Q451.907,566.072 446.104,564.574 444.794,564.2 428.882,568.786 409.974,574.215 388.54,574.402 366.263,574.589 344.922,567.663 327.794,560.643 325.828,560.83 319.089,563.825 317.217,565.136 313.847,567.382 314.128,570.19 314.315,572.249 314.502,583.575 315.158,594.526 318.34,598.27 321.803,602.295 338.558,611 352.41,618.02 366.544,624.01 375.81,627.941 389.757,645.444 396.87,654.336 404.92,664.726 406.605,666.036 404.92,667.908 403.61,669.312 403.797,669.312 L417.088,665.194 Q434.03,659.859 445.542,641.981 455.37,626.631 459.208,605.758 462.297,589.191 456.494,576.368 M462.484,186.898 L459.114,185.494 Q459.066,185.612 459.021,185.681 458.006,188.272 457.336,190.642 455.558,197.007 452.75,206.741 452.686,206.912 452.562,207.022 449.998,213.836 444.7,216.85 433.562,223.215 427.384,226.21 L431.596,235.57 Q431.128,242.403 433.281,288.173 433.359,289.862 433.374,291.449 435.121,327.214 435.34,338.062 435.338,338.133 435.34,338.156 435.372,340.664 435.34,341.806 434.966,356.501 437.68,379.714 438.054,382.99 443.202,380.276 448.35,377.468 447.976,375.502 447.789,374.098 449.942,374.847 451.72,375.502 452.188,375.97 452.282,376.064 459.208,352.102 L464.824,361.462 Q464.918,361.556 468.1,340.87 L473.716,343.21 Q473.825,343.32 473.061,333.382 473.102,333.36 473.061,333.288 471.994,318.009 468.942,279.188 467.091,255.466 465.666,239.876 463.903,219.036 462.952,212.732 462.686,210.893 462.484,210.298 462.686,210.893 462.952,212.732 463.903,219.036 465.666,239.876 L467.164,239.782 Q469.036,239.595 474.558,234.072 479.426,229.392 483.076,230.89 486.352,232.294 506.008,260.748 528.659,289.577 547.192,294.07 530.531,294.632 505.821,313.632 498.146,319.529 490.564,326.643 L489.441,327.672 Q490.774,341.9 495.15,390.572 L496.18,390.478 Q501.047,387.764 535.118,360.994 567.971,335.067 578.548,325.894 586.41,319.061 592.869,308.297 596.145,302.775 600.076,295.942 601.948,293.789 605.973,290.794 609.249,287.799 609.436,282.838 609.623,277.971 574.055,255.039 534.65,230.516 527.068,224.806 504.791,208.052 494.402,201.312 482.024,193.197 473.622,189.612 466.642,186.642 462.484,186.898 M395.934,181.188 Q398.742,180.72 401.363,180.252 405.575,180.252 405.294,185.4 413.344,184.464 416.526,185.4 419.896,186.43 419.802,190.08 L425.044,192.514 Q428.724,185.359 437.68,179.41 442.828,175.947 447.227,174.824 447.296,174.809 447.321,174.73 L446.104,167.242 Q447.508,167.148 444.794,163.872 439.833,158.163 435.808,153.202 430.379,146.463 411.472,140.379 394.905,135.044 385.732,134.95 356.342,134.669 336.124,142.906 323.582,148.054 312.35,163.592 310.197,166.536 308.418,169.208 303.4,177.164 301.866,183.154 L301.866,185.4 Q302.054,185.4 302.896,185.681 303.832,185.868 304.487,185.868 307.857,185.868 311.226,183.154 315.064,179.972 318.714,179.316 L318.714,181.656 322.926,181.656 Q325.734,181.095 331.07,179.504 335.188,178.193 336.03,178.38 L336.03,180.72 Q336.966,180.72 340.71,181.188 346.888,181.188 352.878,177.912 L357.558,177.912 357.558,179.784 365.046,179.784 Q377.402,176.04 378.15,176.04 379.367,176.04 380.49,176.883 381.801,177.819 384.234,177.912 384.234,180.252 383.766,181.188 L395.934,181.188Z" test="Avatar Man" stroke-width="1.872"/>
      <path id="Layer4_0_1_STROKES" stroke="#009EFF" stroke-width="1.872" stroke-linejoin="round" stroke-linecap="round" fill="none" d="M419.802,190.08 Q419.896,186.43 416.526,185.4 413.344,184.464 405.294,185.4 405.575,180.252 401.363,180.252 398.742,180.72 395.934,181.188 L383.766,181.188 Q384.234,180.252 384.234,177.912 381.801,177.819 380.49,176.883 379.367,176.04 378.15,176.04 377.402,176.04 365.046,179.784 L357.558,179.784 357.558,177.912 352.878,177.912 Q346.888,181.188 340.71,181.188 336.966,180.72 336.03,180.72 L336.03,178.38 Q335.188,178.193 331.07,179.504 325.734,181.095 322.926,181.656 L318.714,181.656 318.714,179.316 Q315.064,179.972 311.226,183.154 307.857,185.868 304.487,185.868 303.832,185.868 302.896,185.681 302.054,185.4 301.866,185.4 L301.866,183.154 Q303.4,177.164 308.465,169.254 310.197,166.536 312.35,163.592 323.582,148.054 336.124,142.906 356.342,134.669 385.732,134.95 394.905,135.044 411.472,140.379 430.379,146.463 435.808,153.202 439.833,158.163 444.794,163.872 447.508,167.148 446.104,167.242 M447.368,174.777 Q447.437,174.784 447.508,174.777 450.338,174.152 456.4,173.794 460.799,173.607 463.514,171.828 465.011,170.892 467.164,169.114 468.006,168.646 464.543,174.636 462.952,177.351 461.642,179.972 460.84,181.546 460.191,183.06 460.035,183.373 459.91,183.669 459.637,184.253 459.395,184.839 459.249,185.168 459.114,185.494 M462.484,186.898 Q466.642,186.642 473.669,189.659 482.024,193.197 494.402,201.312 504.791,208.052 527.068,224.806 534.65,230.516 574.055,255.039 609.623,277.971 609.436,282.838 609.249,287.799 605.973,290.794 601.948,293.789 600.076,295.942 596.145,302.775 592.869,308.297 586.41,319.061 578.548,325.894 567.971,335.067 535.118,360.994 501.047,387.764 496.18,390.478 495.695,390.794 495.244,391.086 489.796,394.621 487.382,396 483.076,398.528 479.332,397.966 M461.642,179.972 Q460.183,181.57 458.974,182.499 457.752,183.39 456.774,183.622 453.218,183.903 448.912,184.558 443.39,185.4 440.394,187.46 436.37,190.923 432.532,193.918 427.758,197.662 424.763,199.44 L422.704,200.47 Q423.155,196.34 425.091,192.561 M418.866,190.08 L419.802,190.08 M425.091,192.561 Q428.724,185.359 437.68,179.41 442.828,175.947 447.227,174.824 447.296,174.809 447.368,174.777 M459.114,185.494 Q459.066,185.612 459.021,185.728 458.006,188.272 457.336,190.642 455.558,197.007 452.75,206.741 452.686,206.912 452.609,207.069 449.998,213.836 444.7,216.85 433.562,223.215 427.384,226.21 M431.596,235.57 Q431.128,242.403 433.281,288.173 433.359,289.862 433.421,291.496 435.121,327.214 435.34,338.062 435.338,338.133 435.34,338.202 435.372,340.664 435.34,341.806 434.966,356.501 437.68,379.714 438.054,382.99 443.202,380.276 448.35,377.468 447.976,375.502 447.789,374.098 449.942,374.847 451.72,375.502 452.188,375.97 452.282,376.064 459.208,352.102 L464.824,361.462 Q464.918,361.556 468.1,340.87 L473.716,343.21 Q473.825,343.32 473.108,333.429 473.102,333.36 473.108,333.288 471.994,318.009 468.942,279.188 467.091,255.466 465.713,239.876 463.903,219.036 462.952,212.732 462.686,210.893 462.484,210.298 M489.441,327.719 L490.564,326.643 Q498.146,319.529 505.821,313.632 530.531,294.632 547.192,294.07 528.659,289.577 506.008,260.748 486.352,232.294 483.076,230.89 479.426,229.392 474.558,234.072 469.036,239.595 467.164,239.782 M361.864,232.294 Q362.955,232.47 365.234,232.575 367.832,232.668 371.973,232.668 379.274,232.575 382.456,232.294 388.353,231.732 389.102,231.545 392.846,230.516 393.22,227.614 M416.62,307.174 Q417.556,313.258 419.709,322.056 422.33,332.633 424.576,338.062 M312.256,304.366 Q312.256,304.46 312.63,314.007 312.911,320.84 315.532,325.426 316.374,326.897 317.638,328.328 321.472,332.609 329.198,336.471 339.868,341.9 350.164,342.274 L353.955,342.555 354.095,342.555 Q364.017,342.929 367.012,342.742 372.16,342.368 378.244,340.402 382.737,338.998 394.811,328.14 403.392,320.345 412.502,310.824 412.62,310.71 412.736,310.59 412.807,310.523 412.876,310.45 412.971,310.36 413.063,310.263 414.501,308.737 415.965,307.174 416.06,307.073 416.152,306.987 416.189,306.933 416.246,306.893 416.261,306.839 416.292,306.8 427.313,295.049 428.788,291.73 M353.908,343.21 Q353.066,347.235 351.474,356.408 349.883,364.364 347.356,368.482 M484.48,332.446 L489.441,327.719 M474.184,406.858 Q474.09,407.045 464.637,431.662 457.898,449.165 455.464,459.274 452.469,471.536 449.848,508.04 447.227,543.608 448.444,551.47 M394.53,454.968 Q395.092,457.028 396.964,457.589 397.526,457.776 399.023,457.776 401.457,457.776 402.393,456.653 402.767,456.279 404.265,452.816 M357.09,441.396 Q356.903,458.432 358.12,461.052 360.086,465.732 371.13,465.732 376.466,465.732 376.934,465.639 377.495,465.545 379.554,464.328 M358.494,498.96 Q357.558,501.768 357.558,504.857 357.558,510.005 361.677,510.286 364.391,510.38 373.002,510.192 M355.218,537.804 Q359.992,541.08 363.081,541.829 365.327,542.297 369.258,541.548 M403.048,669.874 Q396.028,673.15 377.214,676.707 358.214,680.264 337.996,682.042 320.493,683.633 279.309,682.791 248.234,682.229 230.356,681.106 216.597,680.264 188.704,677.362 181.778,676.613 176.63,677.736 172.979,678.579 171.856,677.83 M306.64,168.178 Q303.083,166.025 298.871,163.779 290.447,159.38 287.92,159.754 285.206,160.128 287.452,173.513 289.324,184.932 291.196,189.706 M295.876,202.342 Q296.625,205.431 298.59,211.608 299.714,216.569 296.812,218.722 293.238,221.386 289.839,223.87 L289.792,223.917 Q238.722,261.838 232.228,264.118 226.518,265.803 225.114,266.271 223.149,267.02 222.868,268.798 222.4,272.448 222.213,284.991 221.932,299.405 222.868,302.494 226.05,315.224 250.574,351.447 274.629,386.921 288.856,400.774 M297.748,234.634 Q300.65,236.132 306.453,236.88 306.689,236.916 306.921,236.927 312.398,237.712 317.872,237.442 321.335,237.255 329.385,235.944 335.937,234.821 337.996,235.102 M297.28,258.97 Q296.157,260.842 284.082,272.916 273.131,283.868 270.136,286.582 M320.118,280.872 Q324.33,280.872 329.01,279.936 L347.262,279.936 Q341.646,285.927 338.464,289.109 332.567,294.912 331.163,294.912 328.636,294.912 324.892,289.671 321.054,283.68 319.65,282.276 M259.84,281.434 Q261.446,285.315 264.894,290.232 264.932,290.287 264.988,290.326 273.569,302.633 293.536,321.401 302.812,330.112 309.635,336.752 325.426,352.068 328.168,356.314 M296.812,426.982 Q296.157,441.864 299.152,448.978 301.024,453.284 306.734,458.151 312.63,462.924 317.872,464.422 M312.724,472.846 Q312.818,475.748 312.35,487.728 312.162,498.96 313.66,501.862 315.438,505.325 319.838,508.227 324.143,511.035 326.764,510.754 M319.276,514.498 Q319.37,517.587 319.37,522.36 319.557,525.917 321.148,528.07 321.335,528.351 326.39,531.814 329.759,534.154 329.572,538.366 329.385,541.548 327.419,549.411 325.734,555.963 326.296,558.022 M303.364,571.594 Q281.462,567.569 254.973,563.451 202.089,555.308 179.906,555.308 165.117,555.308 148.269,552.219 134.978,549.785 132.17,550.628 127.302,552.125 122.716,559.8 118.13,567.569 118.504,573.934 118.785,578.24 120.282,589.659 121.499,599.861 120.376,603.886 M302.896,598.738 Q294.285,600.142 254.598,600.984 211.542,601.92 204.616,602.482 196.941,603.137 172.511,607.068 150.328,610.625 141.436,610.906 130.859,611.28 121.499,609.97 116.632,609.315 109.612,607.63 105.962,606.788 102.218,609.315 100.252,610.719 95.572,615.586 90.237,621.108 95.104,632.902 96.04,635.242 94.449,648.627 92.67,662.105 93.7,664.726 L96.976,672.682 Q100.626,682.697 102.124,693.274 M168.112,664.726 Q169.422,668.938 171.856,681.012 174.477,693.929 174.196,696.55" test="Avatar Man"/>
      <path id="Layer4_0_2_STROKES" stroke="#FF0" stroke-width="1.872" stroke-linejoin="round" stroke-linecap="round" fill="none" d="M365.046,235.944 Q364.11,241.186 365.982,245.024 367.948,249.048 371.598,249.048 373.096,249.048 375.155,247.925 377.495,246.615 378.15,244.836 M306.546,240.156 Q305.61,246.708 305.61,247.176 305.61,249.08 307.014,251.108 307.761,252.167 308.886,253.26 312.35,256.536 315.906,256.536 317.778,256.536 318.995,254.664 319.744,253.635 321.054,251.388" test="Avatar Man"/>
      <path id="Layer4_0_3_STROKES" stroke="#FFF" stroke-width="1.872" stroke-linejoin="round" stroke-linecap="round" fill="none" d="M397.806,286.956 Q404.078,289.484 404.358,293.696 404.377,293.961 404.405,294.257 404.4,294.328 404.405,294.398 L404.405,294.538 Q404.441,296.973 403.89,301.464 M389.382,303.804 Q395.551,302.333 399.304,297.814 400.562,296.301 401.55,294.444" test="Avatar Man"/>
      <path id="Layer4_0_4_STROKES" stroke="#F90" stroke-width="1.872" stroke-linejoin="round" stroke-linecap="round" fill="none" d="M325.828,560.83 Q327.794,560.643 344.922,567.663 366.263,574.589 388.54,574.402 409.974,574.215 428.882,568.786 444.794,564.2 446.104,564.574 451.907,566.072 456.494,576.368 462.297,589.191 459.208,605.758 455.37,626.631 445.542,641.981 434.03,659.859 417.088,665.194 L403.797,669.312 Q403.61,669.312 404.92,667.908 406.605,666.036 404.92,664.726 396.87,654.336 389.757,645.444 375.81,627.941 366.544,624.01 352.41,618.02 338.558,611 321.803,602.295 318.34,598.27 315.158,594.526 314.502,583.575 314.315,572.249 314.128,570.19 313.847,567.382 317.217,565.136 319.089,563.825 325.828,560.83Z" test="Avatar Man"/>
    </g>
    <g id="Censoredf0r1">
      <path fill="#000" stroke="none" d="M-18.85,403.35 L-18.85,629.9 829.1,629.9 829.1,403.35 -18.85,403.35Z" test="Censored"/>
      <path id="Layer2_0_1_STROKES" stroke="#F00" stroke-width="1" stroke-linejoin="round" stroke-linecap="round" fill="none" d="M440.05,433.95 Q451.45,433.7 458.4,442.45 467.15,453.5 468.45,478.35 469.85,504.55 462.7,519.75 456.1,533.8 444.2,534.55 432.35,535.35 426.85,525.8 420.75,515.3 419.8,488.15 418.8,461.5 424.1,448.25 428.75,436.6 438.75,434.25 M495.6,540.1 Q496.6,530.75 496.9,517.65 497.2,502.55 496.25,489.8 496.1,487.9 494.45,475.35 493.3,466.4 490.7,448.25 489,434.25 490.35,432.65 491.55,431.25 495.9,430.8 500.65,430.2 505.5,431.3 518.75,434.35 520.4,446.7 522.1,459.55 514.25,468.5 507.95,475.7 498.4,478.15 503.3,481.95 507.4,487.15 509.05,489.15 511.9,493.4 515.55,498.8 519.6,507.2 527.8,523.85 530,538.55 M571.35,432.65 Q570.6,432.65 561.5,433.35 554.45,433.85 553.1,433.3 551.6,432.65 553.4,483.6 553.45,484.9 553.55,486.15 555.9,485.8 562.05,485.75 568.9,485.7 569.75,485.55 M576.25,536.2 Q574.4,536.65 565.05,535.95 555.95,535.2 555.7,534.9 555.25,534.3 553.55,486.15 553.25,486.15 553.1,486.2 M604.7,431.3 Q618.7,430 628.4,436.15 644.15,446.1 645.2,473.8 646.25,502.4 642.45,513.4 640.25,519.95 633.1,524.1 628.35,526.9 618.55,528.8 610.8,530.3 606.65,530.3 604.3,530.3 604.1,480.45 603.85,429.95 604.7,431.3Z M184.5,451.6 Q183.2,445.85 177.55,440.35 171.75,434.7 166.2,434.25 158.55,433.6 151.55,437.15 141.9,442.05 136.2,454.2 129.55,468.45 127.75,482.8 125.85,498.1 129.9,511.35 132.45,519.85 135.75,524.45 140.25,530.65 146.6,530.65 153.75,530.65 160.75,526.7 167.95,522.75 170.85,516.9 M245.95,432.3 Q246.45,433.4 229.65,434.45 212.85,435.5 212.85,435.2 212.8,434.8 212.85,482.95 213.9,483.4 230.8,482.6 247.75,481.85 248.25,481 M277.65,536.55 Q277.8,536.7 277,484.45 276.2,432.15 276.35,432.3 276.6,432.65 327,528.05 323.8,429.05 322.4,429.7 M393.3,453.2 Q391.25,446.4 386,440.35 379.85,433.15 373.45,433.1 367,433 361.25,439.3 355.5,445.55 356.05,452.3 356.35,455.55 357.2,457.8 360.1,463.35 364.75,467.85 365.75,468.75 366.65,469.9 368.9,472.7 371.6,476.35 387.7,497.65 388.75,507.75 390,519.95 383.9,526.65 379.05,531.95 373.4,531.6 364.85,531.1 360.6,528.1 351.95,521.95 352.15,505.15 M212.85,482.95 Q212.65,483 212.5,507.4 212.4,531.7 212.25,533.25 212.1,534.85 229.65,535.1 247.15,535.35 248.25,533.25" test="Censored"/>
      <path id="Layer1_0_1_STROKES" stroke="#F00" stroke-width="1" stroke-linejoin="round" stroke-linecap="round" fill="none" d="M65.35,401.7 L732,401.7 732,561.5 65.35,561.5 65.35,401.7Z" test="Censored"/>
    </g>
  </g>
</svg>