<?xml version="1.0" encoding="utf-8"?>
<svg id="EdithAnim13" image-rendering="inherit" baseProfile="basic" version="1.1" x="0px" y="0px" width="800" height="600" xmlns="http://www.w3.org/2000/svg" xmlns:xlink="http://www.w3.org/1999/xlink">
  <g id="22_Avatarf23r1" overflow="visible">
    <g id="Avatar-Manf0r1">
      <g id="Tailf0r1">
        <path id="Layer3_0_1_STROKES" stroke="#009EFF" stroke-width="2.303" stroke-linejoin="round" stroke-linecap="round" fill="none" d="M650.79,722.492 Q649.628,705.57 648.987,688.639 648.413,672.221 643.079,656.715 637.217,639.826 620.884,632.143 601.035,622.886 598.161,643.586 597.741,646.602 599.713,649.249 604.375,655.609 611.004,659.68 617.933,657.15 623.144,661.929 629.418,667.731 632.179,676.43 638.632,696.958 643.772,717.658 645.224,723.45 644.249,729.326" test="Tail_2.3242325232423263e+312.3242325232423263e+31_2.3242325232423263e+312.3242325232423263e+31_2.3242325232423263e+312.3242325232423263e+31_22"/>
      </g>
      <path fill="#000" stroke="none" d="M612.353,636.415 Q608.249,627.203 603.056,625.863 601.884,625.527 587.646,629.631 570.729,634.489 551.55,634.656 531.618,634.824 512.522,628.626 497.196,622.345 495.437,622.513 489.407,625.193 487.732,626.365 484.718,628.375 484.969,630.888 485.136,632.73 485.304,642.864 485.89,652.663 488.737,656.013 491.836,659.614 506.827,667.402 519.222,673.684 531.869,679.044 540.16,682.561 552.639,698.223 559.004,706.179 566.206,715.475 567.714,716.648 566.206,718.323 565.034,719.579 565.201,719.579 L577.094,715.894 Q592.252,711.12 602.554,695.124 611.348,681.389 614.781,662.713 617.545,647.889 612.353,636.415 M617.713,287.931 L614.698,286.675 Q614.654,286.781 614.614,286.843 613.706,289.161 613.106,291.281 611.515,296.976 609.002,305.686 608.946,305.839 608.835,305.938 606.54,312.035 601.8,314.731 591.834,320.426 586.306,323.106 L590.075,331.481 Q589.656,337.595 591.583,378.549 591.653,380.06 591.666,381.48 593.229,413.481 593.425,423.188 593.423,423.251 593.425,423.271 593.453,425.516 593.425,426.537 593.09,439.686 595.519,460.456 595.854,463.388 600.46,460.959 605.066,458.446 604.731,456.688 604.564,455.431 606.49,456.101 608.081,456.688 608.5,457.106 608.584,457.19 614.781,435.75 L619.806,444.125 Q619.89,444.209 622.738,425.7 L627.762,427.794 Q627.86,427.893 627.176,419 627.213,418.98 627.176,418.916 626.222,405.245 623.491,370.509 621.835,349.283 620.56,335.334 618.982,316.688 618.131,311.046 617.893,309.401 617.713,308.869 617.893,309.401 618.131,311.046 618.982,316.688 620.56,335.334 L621.9,335.25 Q623.575,335.083 628.516,330.141 632.871,325.954 636.137,327.294 639.069,328.55 656.656,354.01 676.924,379.805 693.506,383.825 678.599,384.328 656.489,401.329 649.621,406.605 642.838,412.97 L641.833,413.891 Q643.025,426.621 646.941,470.171 L647.863,470.088 Q652.218,467.659 682.703,443.706 712.099,420.508 721.563,412.3 728.598,406.186 734.376,396.555 737.308,391.614 740.825,385.5 742.5,383.574 746.101,380.894 749.033,378.214 749.2,373.775 749.368,369.42 717.543,348.901 682.284,326.959 675.5,321.85 655.567,306.859 646.271,300.829 635.196,293.568 627.679,290.36 621.433,287.702 617.713,287.931 M558.166,282.823 Q560.679,282.404 563.024,281.985 566.793,281.985 566.541,286.591 573.744,285.754 576.591,286.591 579.606,287.513 579.522,290.779 L584.213,292.956 Q587.506,286.554 595.519,281.231 600.125,278.133 604.061,277.128 604.123,277.114 604.145,277.044 L603.056,270.344 Q604.313,270.26 601.884,267.329 597.445,262.22 593.844,257.781 588.986,251.751 572.069,246.308 557.245,241.534 549.037,241.45 522.74,241.199 504.65,248.569 493.427,253.175 483.377,267.078 481.451,269.712 479.86,272.102 475.369,279.221 473.997,284.581 L473.997,286.591 Q474.165,286.591 474.919,286.843 475.756,287.01 476.343,287.01 479.357,287.01 482.372,284.581 485.806,281.734 489.072,281.148 L489.072,283.241 492.841,283.241 Q495.354,282.739 500.127,281.315 503.812,280.143 504.566,280.31 L504.566,282.404 Q505.404,282.404 508.754,282.823 514.281,282.823 519.641,279.891 L523.829,279.891 523.829,281.566 530.529,281.566 Q541.584,278.216 542.254,278.216 543.343,278.216 544.348,278.97 545.52,279.808 547.698,279.891 547.698,281.985 547.279,282.823 L558.166,282.823Z" test="Avatar Man" stroke-width="1.675"/>
      <path id="Layer2_0_1_STROKES" stroke="#009EFF" stroke-width="1.675" stroke-linejoin="round" stroke-linecap="round" fill="none" d="M579.522,290.779 Q579.606,287.513 576.591,286.591 573.744,285.754 566.541,286.591 566.793,281.985 563.024,281.985 560.679,282.404 558.166,282.823 L547.279,282.823 Q547.698,281.985 547.698,279.891 545.52,279.808 544.348,278.97 543.343,278.216 542.254,278.216 541.584,278.216 530.529,281.566 L523.829,281.566 523.829,279.891 519.641,279.891 Q514.281,282.823 508.754,282.823 505.404,282.404 504.566,282.404 L504.566,280.31 Q503.812,280.143 500.127,281.315 495.354,282.739 492.841,283.241 L489.072,283.241 489.072,281.148 Q485.806,281.734 482.372,284.581 479.357,287.01 476.343,287.01 475.756,287.01 474.919,286.843 474.165,286.591 473.997,286.591 L473.997,284.581 Q475.369,279.221 479.902,272.144 481.451,269.712 483.377,267.078 493.427,253.175 504.65,248.569 522.74,241.199 549.037,241.45 557.245,241.534 572.069,246.308 588.986,251.751 593.844,257.781 597.445,262.22 601.884,267.329 604.313,270.26 603.056,270.344 M604.187,277.086 Q604.249,277.092 604.313,277.086 606.845,276.526 612.269,276.206 616.205,276.039 618.634,274.448 619.974,273.61 621.9,272.019 622.654,271.6 619.555,276.96 618.131,279.389 616.959,281.734 616.242,283.142 615.661,284.497 615.522,284.777 615.409,285.042 615.165,285.564 614.949,286.089 614.818,286.384 614.698,286.675 M617.713,287.931 Q621.433,287.702 627.721,290.402 635.196,293.568 646.271,300.829 655.567,306.859 675.5,321.85 682.284,326.959 717.543,348.901 749.368,369.42 749.2,373.775 749.033,378.214 746.101,380.894 742.5,383.574 740.825,385.5 737.308,391.614 734.376,396.555 728.598,406.186 721.563,412.3 712.099,420.508 682.703,443.706 652.218,467.659 647.863,470.088 647.429,470.371 647.025,470.632 642.151,473.794 639.99,475.029 636.137,477.29 632.787,476.787 M616.959,281.734 Q615.654,283.164 614.572,283.995 613.478,284.792 612.604,285 609.421,285.251 605.569,285.838 600.627,286.591 597.948,288.434 594.346,291.533 590.912,294.213 586.641,297.563 583.961,299.154 L582.119,300.075 Q582.522,296.38 584.254,292.998 M578.685,290.779 L579.522,290.779 M584.254,292.998 Q587.506,286.554 595.519,281.231 600.125,278.133 604.061,277.128 604.123,277.114 604.187,277.086 M614.698,286.675 Q614.654,286.781 614.614,286.884 613.706,289.161 613.106,291.281 611.515,296.976 609.002,305.686 608.946,305.839 608.877,305.979 606.54,312.035 601.8,314.731 591.834,320.426 586.306,323.106 M590.075,331.481 Q589.656,337.595 591.583,378.549 591.653,380.06 591.708,381.522 593.229,413.481 593.425,423.188 593.423,423.251 593.425,423.313 593.453,425.516 593.425,426.537 593.09,439.686 595.519,460.456 595.854,463.388 600.46,460.959 605.066,458.446 604.731,456.688 604.564,455.431 606.49,456.101 608.081,456.688 608.5,457.106 608.584,457.19 614.781,435.75 L619.806,444.125 Q619.89,444.209 622.738,425.7 L627.762,427.794 Q627.86,427.893 627.218,419.042 627.213,418.98 627.218,418.916 626.222,405.245 623.491,370.509 621.835,349.283 620.602,335.334 618.982,316.688 618.131,311.046 617.893,309.401 617.713,308.869 M641.833,413.933 L642.838,412.97 Q649.621,406.605 656.489,401.329 678.599,384.328 693.506,383.825 676.924,379.805 656.656,354.01 639.069,328.55 636.137,327.294 632.871,325.954 628.516,330.141 623.575,335.083 621.9,335.25 M527.681,328.55 Q528.658,328.707 530.696,328.801 533.021,328.885 536.726,328.885 543.259,328.801 546.106,328.55 551.382,328.048 552.053,327.88 555.402,326.959 555.738,324.362 M576.675,395.55 Q577.512,400.994 579.439,408.866 581.784,418.33 583.794,423.188 M483.294,393.037 Q483.294,393.121 483.629,401.664 483.88,407.778 486.225,411.881 486.979,413.198 488.109,414.477 491.54,418.308 498.452,421.764 508,426.621 517.213,426.956 L520.604,427.208 520.73,427.208 Q529.608,427.543 532.287,427.375 536.894,427.04 542.338,425.281 546.358,424.025 557.161,414.31 564.839,407.335 572.99,398.816 573.096,398.714 573.199,398.607 573.263,398.547 573.325,398.481 573.41,398.401 573.493,398.314 574.779,396.949 576.089,395.55 576.174,395.46 576.256,395.383 576.29,395.334 576.34,395.299 576.353,395.25 576.382,395.215 586.243,384.701 587.563,381.731 M520.563,427.794 Q519.809,431.395 518.385,439.602 516.961,446.721 514.7,450.406 M637.394,418.162 L641.833,413.933 M628.181,484.744 Q628.098,484.911 619.639,506.938 613.609,522.599 611.431,531.644 608.751,542.615 606.406,575.278 604.061,607.103 605.15,614.138 M556.91,527.791 Q557.412,529.634 559.088,530.136 559.59,530.304 560.93,530.304 563.108,530.304 563.945,529.299 564.28,528.964 565.62,525.865 M523.41,515.648 Q523.242,530.89 524.331,533.235 526.09,537.423 535.973,537.423 540.746,537.423 541.165,537.339 541.667,537.255 543.51,536.166 M524.666,567.154 Q523.829,569.666 523.829,572.43 523.829,577.036 527.514,577.288 529.943,577.371 537.647,577.204 M521.735,601.91 Q526.006,604.841 528.77,605.511 530.78,605.93 534.297,605.26 M564.531,720.081 Q558.25,723.013 541.416,726.195 524.415,729.378 506.325,730.969 490.664,732.392 453.814,731.639 426.009,731.136 410.012,730.131 397.701,729.378 372.744,726.781 366.546,726.111 361.94,727.116 358.674,727.87 357.669,727.2 M478.269,271.181 Q475.086,269.255 471.317,267.245 463.78,263.309 461.519,263.644 459.09,263.979 461.1,275.955 462.775,286.173 464.45,290.444 M468.637,301.75 Q469.307,304.514 471.066,310.041 472.071,314.48 469.475,316.406 466.277,318.79 463.236,321.013 L463.194,321.054 Q417.498,354.985 411.687,357.025 406.579,358.533 405.323,358.951 403.564,359.621 403.312,361.213 402.894,364.479 402.726,375.701 402.475,388.599 403.312,391.362 406.16,402.753 428.102,435.164 449.626,466.905 462.356,479.3 M470.312,330.644 Q472.909,331.984 478.101,332.654 478.312,332.686 478.52,332.696 483.421,333.397 488.319,333.156 491.417,332.989 498.62,331.816 504.482,330.811 506.325,331.063 M469.894,352.419 Q468.889,354.094 458.085,364.898 448.286,374.696 445.606,377.125 M490.329,372.016 Q494.097,372.016 498.285,371.179 L514.616,371.179 Q509.591,376.539 506.744,379.386 501.468,384.579 500.211,384.579 497.95,384.579 494.6,379.889 491.166,374.529 489.91,373.273 M436.394,372.519 Q437.831,375.991 440.916,380.391 440.95,380.44 441,380.475 448.678,391.486 466.544,408.28 474.843,416.074 480.949,422.015 495.077,435.72 497.531,439.519 M469.475,502.75 Q468.889,516.066 471.569,522.431 473.244,526.284 478.352,530.639 483.629,534.91 488.319,536.25 M483.713,543.788 Q483.796,546.384 483.377,557.104 483.21,567.154 484.55,569.75 486.141,572.849 490.077,575.445 493.93,577.958 496.275,577.706 M489.575,581.056 Q489.659,583.82 489.659,588.091 489.826,591.274 491.25,593.2 491.417,593.451 495.94,596.55 498.955,598.644 498.787,602.413 498.62,605.26 496.861,612.295 495.354,618.158 495.856,620 M475.338,632.144 Q455.74,628.543 432.039,624.858 384.72,617.571 364.871,617.571 351.639,617.571 336.564,614.808 324.671,612.63 322.159,613.384 317.804,614.724 313.7,621.591 309.596,628.543 309.931,634.238 310.182,638.09 311.522,648.308 312.611,657.436 311.606,661.038 M474.919,656.431 Q467.214,657.688 431.704,658.441 393.179,659.279 386.981,659.781 380.114,660.368 358.255,663.885 338.406,667.068 330.45,667.319 320.986,667.654 312.611,666.481 308.256,665.895 301.975,664.388 298.709,663.634 295.359,665.895 293.6,667.151 289.412,671.506 284.639,676.448 288.994,687 289.831,689.094 288.407,701.07 286.816,713.13 287.737,715.475 L290.669,722.594 Q293.935,731.555 295.275,741.019 M354.319,715.475 Q355.491,719.244 357.669,730.048 360.014,741.605 359.762,743.95" test="Avatar Man"/>
      <path id="Layer2_0_2_STROKES" stroke="#FF0" stroke-width="1.675" stroke-linejoin="round" stroke-linecap="round" fill="none" d="M530.529,331.816 Q529.691,336.506 531.366,339.94 533.125,343.541 536.391,343.541 537.731,343.541 539.574,342.536 541.667,341.364 542.254,339.773 M478.185,335.585 Q477.347,341.448 477.347,341.866 477.347,343.57 478.604,345.384 479.272,346.332 480.279,347.31 483.377,350.241 486.56,350.241 488.235,350.241 489.324,348.566 489.994,347.645 491.166,345.635" test="Avatar Man"/>
      <path id="Layer2_0_3_STROKES" stroke="#FFF" stroke-width="1.675" stroke-linejoin="round" stroke-linecap="round" fill="none" d="M559.841,377.46 Q565.453,379.721 565.704,383.49 565.72,383.728 565.746,383.992 565.741,384.056 565.746,384.118 L565.746,384.244 Q565.777,386.423 565.285,390.441 M552.304,392.535 Q557.823,391.218 561.181,387.175 562.307,385.822 563.191,384.16" test="Avatar Man"/>
      <path id="Layer2_0_4_STROKES" stroke="#F90" stroke-width="1.675" stroke-linejoin="round" stroke-linecap="round" fill="none" d="M495.437,622.513 Q497.196,622.345 512.522,628.626 531.618,634.824 551.55,634.656 570.729,634.489 587.646,629.631 601.884,625.527 603.056,625.863 608.249,627.203 612.353,636.415 617.545,647.889 614.781,662.713 611.348,681.389 602.554,695.124 592.252,711.12 577.094,715.894 L565.201,719.579 Q565.034,719.579 566.206,718.323 567.714,716.648 566.206,715.475 559.004,706.179 552.639,698.223 540.16,682.561 531.869,679.044 519.222,673.684 506.827,667.402 491.836,659.614 488.737,656.013 485.89,652.663 485.304,642.864 485.136,632.73 484.969,630.888 484.718,628.375 487.732,626.365 489.407,625.193 495.437,622.513Z" test="Avatar Man"/>
    </g>
    <g id="Avatar-Lady">
      <path fill="#000" stroke="none" d="M251.593,543.726 Q247.881,543.261 244.763,543.484 236.621,544.566 233.169,544.916 227.527,545.489 221.394,543.73 217.746,542.994 212.479,540.552 202.029,535.658 192.441,526.679 182.972,517.813 176.073,507.074 L174.408,508.264 Q174.628,514.621 172.411,529.648 170.775,541.071 171.195,549.508 171.269,551.079 171.418,552.548 171.726,555.579 173.888,570.161 176.025,591.211 174.277,599.13 173.115,604.437 171.338,610.402 170.343,614.842 170.959,620.904 171.302,624.28 172.486,628.405 L172.495,628.489 Q173.586,632.305 175.379,636.788 179.048,646.113 179.535,650.913 179.792,653.439 179.114,655.975 178.741,657.331 178.216,658.022 L179.784,659.224 Q180.016,661.14 180.104,664.891 180.113,665.079 180.138,665.228 180.265,670.41 180.168,678.921 L180.176,679.005 Q180.144,682.41 180.069,686.332 L183.761,688.339 Q186.017,684.489 191.844,676.63 200.005,665.678 201.911,661.826 L202.246,660.942 Q205.49,656.869 207.971,648.621 210.784,637.787 212.811,630.946 213.252,629.426 213.615,627.972 213.816,627.453 213.933,626.918 214.014,626.805 213.992,626.657 214.064,626.592 214.059,626.48 L214.059,626.48 Q218.071,612.848 220.653,604.289 225.981,586.394 229.152,578.245 230.609,574.446 232.702,570.484 233.535,568.882 234.415,567.247 L234.634,566.885 234.709,566.792 Q236.998,562.989 239.793,559.045 246.263,549.881 251.377,545.789 L251.593,543.726 M216.022,395.321 L214.184,383.088 213.763,383.13 Q204.332,384.088 198.835,385.242 187.765,387.642 179.224,392.337 171.021,396.998 163.654,404.041 160.863,406.678 158.172,409.532 158.174,409.572 158.096,409.625 157.909,409.858 157.634,410.097 153.666,414.563 150.002,419.549 143.716,428.013 141.539,436.741 139.355,445.385 139.386,454.909 L139.281,458.067 Q141.98,458.156 145.261,458.311 150.651,458.614 158.43,462.333 158.832,462.546 164.018,465.424 164.067,465.436 164.102,465.415 165.862,466.446 168.164,467.725 165.862,466.446 164.102,465.415 164.067,465.436 164.018,465.424 158.832,462.546 158.43,462.333 150.651,458.614 145.261,458.311 141.98,458.156 139.281,458.067 L137.724,469.54 Q139.477,469.748 141.346,470.023 155.497,471.988 160.86,471.189 155.497,471.988 141.346,470.023 139.477,469.748 137.724,469.54 137.551,469.511 137.379,469.49 125.644,467.995 119.365,468.852 L115.263,473.692 Q117.587,475.678 122.767,479.735 129.657,485.093 133.92,487.365 134.745,487.756 135.437,488.062 141.319,490.697 147.878,489.946 152.669,489.374 159.626,490.029 165.117,490.492 166.741,489.732 L172.191,490.624 170.964,497.81 175.963,506.83 Q176.051,506.967 176.073,507.074 182.972,517.813 192.441,526.679 202.029,535.658 212.479,540.552 217.746,542.994 221.394,543.73 227.527,545.489 233.169,544.916 236.621,544.566 244.763,543.484 247.881,543.261 251.593,543.726 L251.677,543.717 Q254.58,544.147 257.843,544.963 267.784,547.356 270.707,547.655 276.99,548.378 280.499,546.915 282.124,546.155 286.363,542.662 288.953,540.528 290.297,532.82 291.689,523.066 292.767,517.767 293.979,512.115 299.528,500.578 300.259,499.05 300.93,497.628 305.476,487.957 307.123,483.218 307.304,482.706 307.45,482.249 309.956,474.253 306.699,464.801 304.17,457.487 299.784,452.828 L293.38,445.057 Q292.872,445.462 292.177,445.774 286.95,447.921 286.63,442.254 L281.861,440.527 266.508,445.148 Q266.629,445.568 266.762,445.973 266.516,445.735 266.205,445.519 263.456,442.913 259.326,440.603 250.232,435.657 242.538,437.8 235.097,439.916 222.899,448.811 211.241,457.886 205.344,461.908 204.556,462.52 203.838,462.996 199.859,465.697 185.531,474.553 184.093,475.448 182.805,476.191 179.081,478.604 176.739,480.125 174.276,481.897 173.51,482.664 174.276,481.897 176.739,480.125 179.081,478.604 182.805,476.191 184.093,475.448 185.531,474.553 199.859,465.697 203.838,462.996 204.556,462.52 205.344,461.908 211.241,457.886 222.899,448.811 235.097,439.916 242.538,437.8 250.232,435.657 259.326,440.603 263.456,442.913 266.205,445.519 L266.508,445.148 Q266.443,444.944 266.381,444.736 265.355,441.454 264.467,437.614 262.457,428.716 263.361,425.052 264.081,422.086 270.854,418.421 276.887,415.001 276.278,413.191 274.595,408.343 266.466,401.172 L258.692,394.986 Q246.457,404.921 235.293,414.206 223.617,424.027 213.14,433.129 195.513,448.87 189.079,454.202 181.54,460.461 175.368,464.101 173.319,465.355 171.421,466.288 173.319,465.355 175.368,464.101 181.54,460.461 189.079,454.202 195.513,448.87 213.14,433.129 223.617,424.027 235.293,414.206 L229.092,406.754 Q228.232,405.82 223.088,401.239 217.48,396.279 216.022,395.321 M252.551,454.307 Q251.244,453.164 247.226,452.976 244.182,452.834 235.538,458.501 232.766,460.358 229.422,462.78 215.635,472.772 213.277,473.012 215.635,472.772 229.422,462.78 232.766,460.358 235.538,458.501 244.182,452.834 247.226,452.976 251.244,453.164 252.551,454.307 253.858,455.45 258.055,457.406 253.858,455.45 252.551,454.307 M248.556,468.579 Q250.43,466.092 250.276,464.576 250.233,464.155 247.914,462.264 250.233,464.155 250.276,464.576 250.43,466.092 248.556,468.579 246.539,471.336 244.434,471.549 238.287,472.173 237.842,467.795 237.774,467.121 237.833,466.86 238.034,466.329 239.159,464.003 238.034,466.329 237.833,466.86 237.774,467.121 237.842,467.795 238.287,472.173 244.434,471.549 246.539,471.336 248.556,468.579 M235.265,522.841 Q234.953,523.689 234.418,524.543 232.964,526.987 232.022,527.764 232.964,526.987 234.418,524.543 234.953,523.689 235.265,522.841 236.402,520.634 236.219,518.831 L235.677,516.844 236.219,518.831 Q236.402,520.634 235.265,522.841 M273.945,489.905 Q276.077,489.688 278.801,488.306 281.753,486.915 285.364,484.237 290.514,480.335 291.62,477.987 292.05,477.201 291.988,476.588 291.92,475.915 290.005,473.812 288.174,471.701 287.475,471.517 288.174,471.701 290.005,473.812 291.92,475.915 291.988,476.588 292.05,477.201 291.62,477.987 290.514,480.335 285.364,484.237 281.753,486.915 278.801,488.306 276.077,489.688 273.945,489.905 270.661,490.238 268.232,488.103 264.395,484.664 264.126,484.522 264.395,484.664 268.232,488.103 270.661,490.238 273.945,489.905 M293.553,491.997 Q293.484,491.323 292.363,490.331 293.484,491.323 293.553,491.997 293.664,493.092 293.337,494.06 293.01,495.029 292.245,495.873 290.631,497.568 288.189,497.816 287.263,497.91 285.249,497.349 283.32,496.779 282.055,496.057 283.32,496.779 285.249,497.349 287.263,497.91 288.189,497.816 290.631,497.568 292.245,495.873 293.01,495.029 293.337,494.06 293.664,493.092 293.553,491.997 M256.222,525.647 Q259.901,525.018 263.664,524.38 259.901,525.018 256.222,525.647 246.188,528.197 237.069,523.848 246.188,528.197 256.222,525.647 M191.057,425.928 Q186.731,421.859 180.345,420.126 174.043,418.384 168.731,419.689 174.043,418.384 180.345,420.126 186.731,421.859 191.057,425.928Z" test="Avatar Lady" stroke-width="1.693"/>
      <path id="Layer1_0_1_STROKES" stroke="#009EFF" stroke-width="1.693" stroke-linejoin="round" stroke-linecap="round" fill="none" d="M281.861,440.527 Q280.449,436.672 283.41,434.84 286.279,432.933 289.048,431.716 M256.656,390.854 Q256.832,390.071 256.789,389.65 256.703,388.808 253.378,383.701 249.453,377.72 248.828,376.592 246.531,372.402 241.957,371.761 237.283,371.81 235.606,371.214 236.071,372.443 236.49,376.569 L236.938,382.649 Q236.694,382.758 234.773,382.273 232.684,381.805 231.757,381.899 228.474,382.232 226.688,382.243 222.427,382.165 217.712,382.644 L214.184,383.088 M216.022,395.321 Q217.48,396.279 223.088,401.239 228.232,405.82 229.092,406.754 M235.606,371.214 Q235.594,371.131 235.514,371.139 L235.488,370.886 Q235.587,371.045 235.606,371.214Z M213.763,383.13 Q213.746,382.962 213.83,382.953 214.008,383.1 214.184,383.088 L213.763,383.13 Q204.332,384.088 198.835,385.242 187.765,387.642 179.224,392.337 171.021,396.998 163.654,404.041 160.863,406.678 158.214,409.528 158.174,409.572 158.139,409.62 157.909,409.858 157.676,410.093 153.666,414.563 150.002,419.549 143.716,428.013 141.539,436.741 139.355,445.385 139.386,454.909 M139.286,458.11 Q141.98,458.156 145.261,458.311 150.651,458.614 158.43,462.333 158.832,462.546 164.018,465.424 164.067,465.436 164.106,465.457 165.862,466.446 168.164,467.725 M258.055,457.406 Q253.858,455.45 252.551,454.307 251.244,453.164 247.226,452.976 244.182,452.834 235.542,458.544 232.766,460.358 229.422,462.78 215.635,472.772 213.277,473.012 M264.126,484.522 Q264.395,484.664 268.232,488.103 270.661,490.238 273.945,489.905 276.077,489.688 278.848,488.343 281.753,486.915 285.364,484.237 290.514,480.335 291.662,477.983 292.05,477.201 291.988,476.588 291.92,475.915 290.005,473.812 288.174,471.701 287.475,471.517 M299.784,452.828 Q304.17,457.487 306.699,464.801 309.956,474.253 307.45,482.249 307.304,482.706 307.123,483.218 305.476,487.957 300.93,497.628 300.259,499.05 299.528,500.578 293.979,512.115 292.767,517.767 291.689,523.066 290.297,532.82 288.953,540.528 286.363,542.662 282.124,546.155 280.499,546.915 276.99,548.378 270.707,547.655 267.784,547.356 257.843,544.963 254.58,544.147 251.681,543.759 L251.597,543.768 M251.377,545.789 Q246.263,549.881 239.793,559.045 236.998,562.989 234.752,566.788 L234.676,566.881 234.458,567.243 Q233.535,568.882 232.702,570.484 230.609,574.446 229.152,578.245 225.981,586.394 220.653,604.289 218.071,612.848 214.101,626.476 L214.063,626.522 Q214.064,626.592 214.034,626.653 214.014,626.805 213.98,626.956 213.816,627.453 213.657,627.967 213.252,629.426 212.811,630.946 210.784,637.787 207.971,648.621 205.49,656.869 202.246,660.942 M201.911,661.826 Q200.005,665.678 191.844,676.63 186.017,684.489 183.765,688.381 183.055,689.643 182.703,690.488 M282.055,496.057 Q283.32,496.779 285.249,497.349 287.263,497.91 288.189,497.816 290.631,497.568 292.245,495.873 293.01,495.029 293.337,494.06 293.664,493.092 293.553,491.997 293.484,491.323 292.363,490.331 M251.597,543.768 Q247.881,543.261 244.763,543.484 236.621,544.566 233.169,544.916 227.527,545.489 221.394,543.73 217.746,542.994 212.479,540.552 202.029,535.658 192.441,526.679 182.972,517.813 176.12,507.112 M174.408,508.264 Q174.628,514.621 172.411,529.648 170.775,541.071 171.195,549.508 171.269,551.079 171.418,552.548 171.726,555.579 173.888,570.161 176.025,591.211 174.277,599.13 173.115,604.437 171.338,610.402 170.343,614.842 170.959,620.904 171.302,624.28 172.49,628.447 L172.495,628.489 Q173.586,632.305 175.379,636.788 179.048,646.113 179.535,650.913 179.792,653.439 179.114,655.975 178.741,657.331 178.22,658.065 M179.784,659.224 Q180.016,661.14 180.108,664.933 180.113,665.079 180.138,665.228 180.265,670.41 180.172,678.963 L180.176,679.005 Q180.144,682.41 180.069,686.332 M230.124,580.273 L230.106,585.124 Q230.191,585.966 231.123,589.274 232.054,592.582 232.14,593.424 232.225,594.266 233.53,599.578 234.751,604.899 234.836,605.741 235.555,612.813 228.292,643.495 220.945,674.185 221.586,680.5 222.21,686.647 232.951,700.273 241.347,710.904 251.653,721.087 259.117,728.41 278.271,763.725 278.382,764.82 279.081,765.004 279.688,765.113 279.712,764.515 M194.641,720.921 Q196.865,721.886 208.897,731.468 221.781,741.899 222.029,744.341 222.337,747.372 244.606,760.594 266.875,773.815 267.217,777.183 267.32,778.193 267.648,778.075 267.976,777.956 267.993,778.125 L268.607,777.467 M191.057,425.928 Q186.731,421.859 180.345,420.126 174.043,418.384 168.731,419.689 M139.286,458.11 Q139.203,458.128 139.117,458.127 139.03,458.125 138.949,458.144 134.854,458.058 132.157,458.28 124.899,458.847 119.875,461.314 113.64,464.414 112.933,464.996 111.756,465.967 112.079,468.316 112.504,470.825 113.947,472.465 114.343,472.863 115.073,473.499 115.165,473.571 115.258,473.65 L115.305,473.688 M119.365,468.852 Q125.644,467.995 137.379,469.49 137.551,469.511 137.724,469.54 M115.305,473.688 Q117.587,475.678 122.767,479.735 129.657,485.093 133.962,487.361 134.745,487.756 135.437,488.062 141.319,490.697 147.878,489.946 152.669,489.374 159.626,490.029 165.117,490.492 166.741,489.732 M170.964,497.81 L175.963,506.83 Q176.051,506.967 176.12,507.112 M130.788,493.383 Q128.326,496.78 127.688,514.794 127.414,522.989 127.358,524.951 127.372,528.437 127.765,532.31 128.244,537.026 131.249,547.354 134.17,557.691 134.769,563.585 134.831,564.198 134.897,564.848 135.114,567.657 135.109,571.121 135.112,576.8 134.527,584.239 134.117,589.454 133.42,595.537 130.985,616.797 132.729,633.973 133.011,636.752 135.189,645.633 137.316,654.009 137.31,655.626 M137.724,469.54 Q139.477,469.748 141.346,470.023 155.497,471.988 160.86,471.189 M152.877,509.855 L153.259,511.942 Q153.456,513.879 152.723,519.228 151.998,524.661 152.275,529.056 152.518,533.965 153.356,542.217 153.45,543.143 154.086,546.056 154.73,549.053 154.842,550.148 154.848,550.208 154.854,550.274 155.069,552.539 154.919,556.775 154.834,561.803 154.205,563.143 153.541,564.146 152.357,566.733 151.514,568.477 151.12,569.623 150.726,570.769 150.781,571.316 M156.881,606.256 Q156.95,606.929 156.64,613.936 156.247,620.952 156.349,621.962 156.537,623.815 158.575,628.797 159.56,631.312 160.084,632.769 160.571,634.212 160.613,634.63 160.904,637.492 159.001,643.045 157.29,647.983 155.786,649.922 M134.897,564.848 Q130.158,565.925 125.156,571.962 120.516,577.503 119.674,583.322 119.433,585.019 119.511,586.742 119.722,592.165 121.307,648.829 123.017,704.205 123.531,710.108 123.933,714.065 124.036,720.945 124.061,721.955 124.103,722.852 L124.111,722.937 Q124.317,725.816 124.872,727.496 125.362,728.977 165.353,776.808 205.039,824.159 205.465,827.519 M117.619,583.191 Q109.955,588.137 102.223,592.41 91.183,598.465 84.827,599.536 71.549,601.14 56.022,602.376 25.043,604.756 13.882,602.912 M178.22,658.065 Q177.737,658.752 177.105,658.816 M180.069,686.332 L180.074,686.374 Q180.059,688.324 180.017,690.421 179.79,701.622 179.316,716.608 179.245,720.103 189.939,735.775 203.114,754.939 206.096,760.846 226.453,801.313 228.781,820.047 M28.892,703.81 Q35.57,704.238 52.419,708.481 70.76,713.169 80.914,717.668 94.718,723.752 98.298,724.664 105.729,726.632 114.972,724.673 118.719,723.867 121.858,722.953" test="Avatar Lady"/>
      <path id="Layer1_0_2_STROKES" stroke="#FFBC00" stroke-width="1.693" stroke-linejoin="round" stroke-linecap="round" fill="none" d="M235.335,414.201 Q246.457,404.921 258.692,394.986 L266.466,401.172 Q274.595,408.343 276.278,413.191 276.887,415.001 270.854,418.421 264.081,422.086 263.361,425.052 262.457,428.716 264.467,437.614 265.355,441.454 266.381,444.736 266.443,444.944 266.508,445.148 M171.421,466.288 Q173.319,465.355 175.372,464.143 181.54,460.461 189.079,454.202 195.513,448.87 213.14,433.129 223.617,424.027 235.335,414.201 M266.247,445.515 Q266.516,445.735 266.762,445.973 266.629,445.568 266.508,445.148 M266.247,445.515 Q263.456,442.913 259.326,440.603 250.232,435.657 242.538,437.8 235.097,439.916 222.899,448.811 211.241,457.886 205.39,461.945 204.556,462.52 203.838,462.996 199.859,465.697 185.531,474.553 184.093,475.448 182.809,476.233 179.081,478.604 176.786,480.162 174.276,481.897 173.51,482.664" test="Avatar Lady"/>
      <path id="Layer1_0_3_STROKES" stroke="#FF0" stroke-width="1.693" stroke-linejoin="round" stroke-linecap="round" fill="none" d="M286.63,442.254 Q286.95,447.921 292.177,445.774 292.872,445.462 293.422,445.053 295.343,443.564 295.327,440.776 295.289,437.887 292.433,437.412 M239.159,464.003 Q238.034,466.329 237.833,466.86 237.774,467.121 237.842,467.795 238.287,472.173 244.434,471.549 246.539,471.336 248.556,468.579 250.43,466.092 250.276,464.576 250.233,464.155 247.914,462.264" test="Avatar Lady"/>
      <path id="Layer1_0_4_STROKES" stroke="#FFF" stroke-width="1.693" stroke-linejoin="round" stroke-linecap="round" fill="none" d="M235.677,516.844 L236.219,518.831 Q236.402,520.634 235.312,522.878 234.953,523.689 234.418,524.543 232.964,526.987 232.022,527.764 M237.069,523.848 Q246.188,528.197 256.222,525.647 259.901,525.018 263.664,524.38" test="Avatar Lady"/>
    </g>
  </g>
</svg>