<?xml version="1.0" encoding="utf-8"?>
<svg id="EdithAnim13" image-rendering="inherit" baseProfile="basic" version="1.1" x="0px" y="0px" width="800" height="600" xmlns="http://www.w3.org/2000/svg" xmlns:xlink="http://www.w3.org/1999/xlink">
  <g id="22_Avatarf231r1" overflow="visible">
    <g id="Avatar-Manf40r1">
      <g id="Tailf40r1">
        <g id="Tail-Wiggly">
          <path id="Layer5_0_1_STROKES" stroke="#009EFF" stroke-width="2.576" stroke-linejoin="round" stroke-linecap="round" fill="none" d="M439.336,662.392 L449.639,670.656 Q454.068,674.233 459.827,678.545 L481.637,693.357 487.462,696.687 Q490.547,698.427 493.463,699.864 L499.213,702.619 499.413,702.657 Q499.349,702.666 499.557,702.768 L499.621,702.76 499.694,702.815 504.561,704.777 504.977,704.982 519.809,709.147 Q526.614,710.53 533.327,711.211 539.577,711.822 546.687,712.061 L550.002,712.082 550.065,712.074 550.201,712.121 550.457,712.088 566.914,711.299 Q571.447,710.706 573.729,710.278 581.158,708.982 587.384,706.934 594.169,704.683 600.522,701.124 603.786,699.269 606.69,697.136 L607.397,696.588 607.819,696.338 609.051,695.333 609.171,695.252 609.235,695.244 609.354,695.164 609.64,694.866 610.228,694.4 610.514,694.103 610.697,694.014 612.215,692.711 Q617.461,688.129 621.976,682.927 626.547,677.654 630.276,671.906 L630.443,671.689 633.636,664.323 633.76,663.787 634.137,662.699 634.262,662.163 634.357,661.891 634.459,661.682 636.585,652.118 636.68,651.846 637.627,638.733 636.437,624.667 636.134,623.342 636.093,623.023 635.995,622.776 635.856,622.21 635.815,621.891 635.717,621.644 635.375,620.519 Q634.878,618.701 633.905,616.231 L632.158,612.303 Q630.655,609.252 628.091,605.042 L627.583,604.134 627.108,603.482 627.01,603.235 626.705,602.885 626.608,602.638 626.455,602.463 625.883,601.564 609.626,580.051 Q604.541,573.442 600.733,568.161 L597.383,563.403 596.955,562.615 596.811,562.504 596.722,562.321 595.078,559.678 594.892,559.248 591.766,553.228 591.644,552.789 591.289,552.056 590.874,550.876 590.697,550.51 589.679,547.201 589.629,546.818 589.524,546.507 589.424,545.741 589.318,545.43 589.209,544.6 589.232,544.272 589.098,543.251 589.125,542.468 589.075,542.085 589.103,541.302 Q589.097,540.264 589.34,538.154 589.698,534.925 590.621,531.557 590.862,530.421 591.544,528.189 L592.667,524.86 Q593.242,523.291 595.361,518.143 L596.054,516.494 603.534,501.683 624.521,466.013 Q627.948,460.435 632.227,452.926 L635.381,447.253 635.548,447.037 639.385,439.132 Q641.387,434.584 642.305,431.671 L644.11,424.616 644.232,423.561 Q644.553,421.051 644.27,418.88 L643.938,416.845 643.841,416.598 643.799,416.279 643.702,416.032 643.424,414.9 641.474,410.414 Q640.593,408.646 639.321,406.864 638.104,405.01 636.938,403.539 L628.709,394.744 628.493,394.577 627.754,393.894 627.601,393.72 593.356,366.247 Q587.049,361.227 581.839,356.648 L577.102,352.202 577.03,352.146 576.949,352.027 576.796,351.852 576.435,351.574 573.936,348.849 Q572.883,347.753 571.556,346.043 569.087,343.054 567.345,340.164 565.256,336.606 564.353,333.672 L563.621,330.066 563.669,329.93 563.618,329.547 563.868,326.981 564.71,323.494 Q565.14,321.814 565.809,319.974 566.696,317.325 568.532,312.993 L571.601,306.163 Q572.738,303.936 575.005,299.418 L578.489,292.793 Q581.627,286.993 585.85,279.556 593.689,265.998 601.311,253.766 L601.888,254.21 Q602.033,254.321 602.08,254.185 602.199,254.104 602.055,253.993 L601.333,253.438 Q601.261,253.383 601.141,253.463 591.804,267.478 584.656,278.868 L573.058,298.439 566.05,311.889 Q564.125,316.038 563.007,318.911 L560.871,325.425 560.353,328.415 560.298,329.981 560.251,330.117 560.31,330.564 560.271,330.764 560.521,332.679 561.55,336.571 562.311,338.42 Q562.886,339.838 564.017,342.028 565.889,345.42 568.319,348.609 L573.771,355.04 573.916,355.151 573.996,355.27 578.712,360.044 Q583.819,364.831 590.039,370.187 L623.197,398.777 623.8,399.412 624.016,399.579 631.276,407.916 Q632.379,409.395 633.218,410.844 L633.459,411.202 635.373,414.913 635.487,415.288 635.665,415.654 635.893,416.404 636.071,416.77 636.121,417.153 636.349,417.903 636.415,418.414 636.496,418.533 636.638,419.619 636.608,421.376 636.53,421.776 636.517,422.167 636.439,422.567 636.417,422.895 634.687,429.031 Q633.83,431.416 631.777,435.581 L624.549,448.345 Q620.204,455.343 616.466,461.027 L596.033,492.988 584.799,513.355 Q582.762,517.648 581.589,520.594 L578.893,528.285 Q577.562,533.005 577.039,536.45 576.698,538.313 576.568,540.798 L576.507,541.325 576.503,544.768 577.04,549.373 577.137,549.621 577.171,549.876 Q577.502,551.911 578.249,554.151 L578.444,554.645 578.908,556.208 583.389,566.142 589.42,576.004 Q591.628,579.482 593.761,582.385 L606.957,600.857 Q609.824,604.898 611.129,606.935 L613.562,610.643 613.651,610.827 613.804,611.001 614.143,611.606 614.151,611.67 614.223,611.726 614.409,612.156 614.893,612.872 Q616.854,616.447 617.963,618.965 L618.61,620.439 618.724,620.814 619.193,621.921 620.097,624.855 620.302,625.932 620.408,626.243 620.492,626.882 620.589,627.129 620.714,628.087 620.684,628.35 621.132,634.266 620.877,642.742 619.963,649.161 618.008,656.56 617.906,656.769 616.513,660.522 616.458,660.595 616.466,660.659 615.645,662.325 Q611.832,667.434 608.577,670.847 604.941,674.829 600.306,678.618 L599.249,679.47 599.13,679.551 598.072,680.404 597.714,680.645 597.531,680.734 596.998,681.128 596.768,681.353 595.988,681.845 Q593.473,683.473 591.466,684.515 586.967,686.856 581.529,688.477 576.465,689.983 570.655,690.743 L553.496,691.623 550.819,691.519 550.628,691.544 550.492,691.497 547.552,691.361 Q540.872,690.936 535.844,690.23 530.552,689.493 524.522,688.074 L514.848,685.118 513.271,684.48 512.935,684.394 512.791,684.283 512.655,684.236 508.795,682.532 508.723,682.477 508.787,682.468 503.845,679.933 Q500.912,678.368 498.788,677.022 L491.285,672.288 474.449,659.748 455.604,643.769 Q451.783,640.372 446.633,640.721 441.547,641.062 438.159,644.947 434.834,648.823 435.175,653.909 435.515,658.995 439.336,662.392Z" test="Tail Wiggly"/>
        </g>
      </g>
      <path fill="#000" stroke="none" d="M456.494,576.368 Q451.907,566.072 446.104,564.574 444.794,564.2 428.882,568.786 409.974,574.215 388.54,574.402 366.263,574.589 344.922,567.663 327.794,560.643 325.828,560.83 319.089,563.825 317.217,565.136 313.847,567.382 314.128,570.19 314.315,572.249 314.502,583.575 315.158,594.526 318.34,598.27 321.803,602.295 338.558,611 352.41,618.02 366.544,624.01 375.81,627.941 389.757,645.444 396.87,654.336 404.92,664.726 406.605,666.036 404.92,667.908 403.61,669.312 403.797,669.312 L417.088,665.194 Q434.03,659.859 445.542,641.981 455.37,626.631 459.208,605.758 462.297,589.191 456.494,576.368 M462.484,186.898 L459.114,185.494 Q459.066,185.612 459.021,185.681 458.006,188.272 457.336,190.642 455.558,197.007 452.75,206.741 452.686,206.912 452.562,207.022 449.998,213.836 444.7,216.85 433.562,223.215 427.384,226.21 L431.596,235.57 Q431.128,242.403 433.281,288.173 433.359,289.862 433.374,291.449 435.121,327.214 435.34,338.062 435.338,338.133 435.34,338.156 435.372,340.664 435.34,341.806 434.966,356.501 437.68,379.714 438.054,382.99 443.202,380.276 448.35,377.468 447.976,375.502 447.789,374.098 449.942,374.847 451.72,375.502 452.188,375.97 452.282,376.064 459.208,352.102 L464.824,361.462 Q464.918,361.556 468.1,340.87 L473.716,343.21 Q473.825,343.32 473.061,333.382 473.102,333.36 473.061,333.288 471.994,318.009 468.942,279.188 467.091,255.466 465.666,239.876 463.903,219.036 462.952,212.732 462.686,210.893 462.484,210.298 462.686,210.893 462.952,212.732 463.903,219.036 465.666,239.876 L467.164,239.782 Q469.036,239.595 474.558,234.072 479.426,229.392 483.076,230.89 486.352,232.294 506.008,260.748 528.659,289.577 547.192,294.07 530.531,294.632 505.821,313.632 498.146,319.529 490.564,326.643 L489.441,327.672 Q490.774,341.9 495.15,390.572 L496.18,390.478 Q501.047,387.764 535.118,360.994 567.971,335.067 578.548,325.894 586.41,319.061 592.869,308.297 596.145,302.775 600.076,295.942 601.948,293.789 605.973,290.794 609.249,287.799 609.436,282.838 609.623,277.971 574.055,255.039 534.65,230.516 527.068,224.806 504.791,208.052 494.402,201.312 482.024,193.197 473.622,189.612 466.642,186.642 462.484,186.898 M395.934,181.188 Q398.742,180.72 401.363,180.252 405.575,180.252 405.294,185.4 413.344,184.464 416.526,185.4 419.896,186.43 419.802,190.08 L425.044,192.514 Q428.724,185.359 437.68,179.41 442.828,175.947 447.227,174.824 447.296,174.809 447.321,174.73 L446.104,167.242 Q447.508,167.148 444.794,163.872 439.833,158.163 435.808,153.202 430.379,146.463 411.472,140.379 394.905,135.044 385.732,134.95 356.342,134.669 336.124,142.906 323.582,148.054 312.35,163.592 310.197,166.536 308.418,169.208 303.4,177.164 301.866,183.154 L301.866,185.4 Q302.054,185.4 302.896,185.681 303.832,185.868 304.487,185.868 307.857,185.868 311.226,183.154 315.064,179.972 318.714,179.316 L318.714,181.656 322.926,181.656 Q325.734,181.095 331.07,179.504 335.188,178.193 336.03,178.38 L336.03,180.72 Q336.966,180.72 340.71,181.188 346.888,181.188 352.878,177.912 L357.558,177.912 357.558,179.784 365.046,179.784 Q377.402,176.04 378.15,176.04 379.367,176.04 380.49,176.883 381.801,177.819 384.234,177.912 384.234,180.252 383.766,181.188 L395.934,181.188Z" test="Avatar Man" stroke-width="1.872"/>
      <path id="Layer4_0_1_STROKES" stroke="#009EFF" stroke-width="1.872" stroke-linejoin="round" stroke-linecap="round" fill="none" d="M419.802,190.08 Q419.896,186.43 416.526,185.4 413.344,184.464 405.294,185.4 405.575,180.252 401.363,180.252 398.742,180.72 395.934,181.188 L383.766,181.188 Q384.234,180.252 384.234,177.912 381.801,177.819 380.49,176.883 379.367,176.04 378.15,176.04 377.402,176.04 365.046,179.784 L357.558,179.784 357.558,177.912 352.878,177.912 Q346.888,181.188 340.71,181.188 336.966,180.72 336.03,180.72 L336.03,178.38 Q335.188,178.193 331.07,179.504 325.734,181.095 322.926,181.656 L318.714,181.656 318.714,179.316 Q315.064,179.972 311.226,183.154 307.857,185.868 304.487,185.868 303.832,185.868 302.896,185.681 302.054,185.4 301.866,185.4 L301.866,183.154 Q303.4,177.164 308.465,169.254 310.197,166.536 312.35,163.592 323.582,148.054 336.124,142.906 356.342,134.669 385.732,134.95 394.905,135.044 411.472,140.379 430.379,146.463 435.808,153.202 439.833,158.163 444.794,163.872 447.508,167.148 446.104,167.242 M447.368,174.777 Q447.437,174.784 447.508,174.777 450.338,174.152 456.4,173.794 460.799,173.607 463.514,171.828 465.011,170.892 467.164,169.114 468.006,168.646 464.543,174.636 462.952,177.351 461.642,179.972 460.84,181.546 460.191,183.06 460.035,183.373 459.91,183.669 459.637,184.253 459.395,184.839 459.249,185.168 459.114,185.494 M462.484,186.898 Q466.642,186.642 473.669,189.659 482.024,193.197 494.402,201.312 504.791,208.052 527.068,224.806 534.65,230.516 574.055,255.039 609.623,277.971 609.436,282.838 609.249,287.799 605.973,290.794 601.948,293.789 600.076,295.942 596.145,302.775 592.869,308.297 586.41,319.061 578.548,325.894 567.971,335.067 535.118,360.994 501.047,387.764 496.18,390.478 495.695,390.794 495.244,391.086 489.796,394.621 487.382,396 483.076,398.528 479.332,397.966 M461.642,179.972 Q460.183,181.57 458.974,182.499 457.752,183.39 456.774,183.622 453.218,183.903 448.912,184.558 443.39,185.4 440.394,187.46 436.37,190.923 432.532,193.918 427.758,197.662 424.763,199.44 L422.704,200.47 Q423.155,196.34 425.091,192.561 M418.866,190.08 L419.802,190.08 M425.091,192.561 Q428.724,185.359 437.68,179.41 442.828,175.947 447.227,174.824 447.296,174.809 447.368,174.777 M459.114,185.494 Q459.066,185.612 459.021,185.728 458.006,188.272 457.336,190.642 455.558,197.007 452.75,206.741 452.686,206.912 452.609,207.069 449.998,213.836 444.7,216.85 433.562,223.215 427.384,226.21 M431.596,235.57 Q431.128,242.403 433.281,288.173 433.359,289.862 433.421,291.496 435.121,327.214 435.34,338.062 435.338,338.133 435.34,338.202 435.372,340.664 435.34,341.806 434.966,356.501 437.68,379.714 438.054,382.99 443.202,380.276 448.35,377.468 447.976,375.502 447.789,374.098 449.942,374.847 451.72,375.502 452.188,375.97 452.282,376.064 459.208,352.102 L464.824,361.462 Q464.918,361.556 468.1,340.87 L473.716,343.21 Q473.825,343.32 473.108,333.429 473.102,333.36 473.108,333.288 471.994,318.009 468.942,279.188 467.091,255.466 465.713,239.876 463.903,219.036 462.952,212.732 462.686,210.893 462.484,210.298 M489.441,327.719 L490.564,326.643 Q498.146,319.529 505.821,313.632 530.531,294.632 547.192,294.07 528.659,289.577 506.008,260.748 486.352,232.294 483.076,230.89 479.426,229.392 474.558,234.072 469.036,239.595 467.164,239.782 M361.864,232.294 Q362.955,232.47 365.234,232.575 367.832,232.668 371.973,232.668 379.274,232.575 382.456,232.294 388.353,231.732 389.102,231.545 392.846,230.516 393.22,227.614 M416.62,307.174 Q417.556,313.258 419.709,322.056 422.33,332.633 424.576,338.062 M312.256,304.366 Q312.256,304.46 312.63,314.007 312.911,320.84 315.532,325.426 316.374,326.897 317.638,328.328 321.472,332.609 329.198,336.471 339.868,341.9 350.164,342.274 L353.955,342.555 354.095,342.555 Q364.017,342.929 367.012,342.742 372.16,342.368 378.244,340.402 382.737,338.998 394.811,328.14 403.392,320.345 412.502,310.824 412.62,310.71 412.736,310.59 412.807,310.523 412.876,310.45 412.971,310.36 413.063,310.263 414.501,308.737 415.965,307.174 416.06,307.073 416.152,306.987 416.189,306.933 416.246,306.893 416.261,306.839 416.292,306.8 427.313,295.049 428.788,291.73 M353.908,343.21 Q353.066,347.235 351.474,356.408 349.883,364.364 347.356,368.482 M484.48,332.446 L489.441,327.719 M474.184,406.858 Q474.09,407.045 464.637,431.662 457.898,449.165 455.464,459.274 452.469,471.536 449.848,508.04 447.227,543.608 448.444,551.47 M394.53,454.968 Q395.092,457.028 396.964,457.589 397.526,457.776 399.023,457.776 401.457,457.776 402.393,456.653 402.767,456.279 404.265,452.816 M357.09,441.396 Q356.903,458.432 358.12,461.052 360.086,465.732 371.13,465.732 376.466,465.732 376.934,465.639 377.495,465.545 379.554,464.328 M358.494,498.96 Q357.558,501.768 357.558,504.857 357.558,510.005 361.677,510.286 364.391,510.38 373.002,510.192 M355.218,537.804 Q359.992,541.08 363.081,541.829 365.327,542.297 369.258,541.548 M403.048,669.874 Q396.028,673.15 377.214,676.707 358.214,680.264 337.996,682.042 320.493,683.633 279.309,682.791 248.234,682.229 230.356,681.106 216.597,680.264 188.704,677.362 181.778,676.613 176.63,677.736 172.979,678.579 171.856,677.83 M306.64,168.178 Q303.083,166.025 298.871,163.779 290.447,159.38 287.92,159.754 285.206,160.128 287.452,173.513 289.324,184.932 291.196,189.706 M295.876,202.342 Q296.625,205.431 298.59,211.608 299.714,216.569 296.812,218.722 293.238,221.386 289.839,223.87 L289.792,223.917 Q238.722,261.838 232.228,264.118 226.518,265.803 225.114,266.271 223.149,267.02 222.868,268.798 222.4,272.448 222.213,284.991 221.932,299.405 222.868,302.494 226.05,315.224 250.574,351.447 274.629,386.921 288.856,400.774 M297.748,234.634 Q300.65,236.132 306.453,236.88 306.689,236.916 306.921,236.927 312.398,237.712 317.872,237.442 321.335,237.255 329.385,235.944 335.937,234.821 337.996,235.102 M297.28,258.97 Q296.157,260.842 284.082,272.916 273.131,283.868 270.136,286.582 M320.118,280.872 Q324.33,280.872 329.01,279.936 L347.262,279.936 Q341.646,285.927 338.464,289.109 332.567,294.912 331.163,294.912 328.636,294.912 324.892,289.671 321.054,283.68 319.65,282.276 M259.84,281.434 Q261.446,285.315 264.894,290.232 264.932,290.287 264.988,290.326 273.569,302.633 293.536,321.401 302.812,330.112 309.635,336.752 325.426,352.068 328.168,356.314 M296.812,426.982 Q296.157,441.864 299.152,448.978 301.024,453.284 306.734,458.151 312.63,462.924 317.872,464.422 M312.724,472.846 Q312.818,475.748 312.35,487.728 312.162,498.96 313.66,501.862 315.438,505.325 319.838,508.227 324.143,511.035 326.764,510.754 M319.276,514.498 Q319.37,517.587 319.37,522.36 319.557,525.917 321.148,528.07 321.335,528.351 326.39,531.814 329.759,534.154 329.572,538.366 329.385,541.548 327.419,549.411 325.734,555.963 326.296,558.022 M303.364,571.594 Q281.462,567.569 254.973,563.451 202.089,555.308 179.906,555.308 165.117,555.308 148.269,552.219 134.978,549.785 132.17,550.628 127.302,552.125 122.716,559.8 118.13,567.569 118.504,573.934 118.785,578.24 120.282,589.659 121.499,599.861 120.376,603.886 M302.896,598.738 Q294.285,600.142 254.598,600.984 211.542,601.92 204.616,602.482 196.941,603.137 172.511,607.068 150.328,610.625 141.436,610.906 130.859,611.28 121.499,609.97 116.632,609.315 109.612,607.63 105.962,606.788 102.218,609.315 100.252,610.719 95.572,615.586 90.237,621.108 95.104,632.902 96.04,635.242 94.449,648.627 92.67,662.105 93.7,664.726 L96.976,672.682 Q100.626,682.697 102.124,693.274 M168.112,664.726 Q169.422,668.938 171.856,681.012 174.477,693.929 174.196,696.55" test="Avatar Man"/>
      <path id="Layer4_0_2_STROKES" stroke="#FF0" stroke-width="1.872" stroke-linejoin="round" stroke-linecap="round" fill="none" d="M365.046,235.944 Q364.11,241.186 365.982,245.024 367.948,249.048 371.598,249.048 373.096,249.048 375.155,247.925 377.495,246.615 378.15,244.836 M306.546,240.156 Q305.61,246.708 305.61,247.176 305.61,249.08 307.014,251.108 307.761,252.167 308.886,253.26 312.35,256.536 315.906,256.536 317.778,256.536 318.995,254.664 319.744,253.635 321.054,251.388" test="Avatar Man"/>
      <path id="Layer4_0_3_STROKES" stroke="#FFF" stroke-width="1.872" stroke-linejoin="round" stroke-linecap="round" fill="none" d="M397.806,286.956 Q404.078,289.484 404.358,293.696 404.377,293.961 404.405,294.257 404.4,294.328 404.405,294.398 L404.405,294.538 Q404.441,296.973 403.89,301.464 M389.382,303.804 Q395.551,302.333 399.304,297.814 400.562,296.301 401.55,294.444" test="Avatar Man"/>
      <path id="Layer4_0_4_STROKES" stroke="#F90" stroke-width="1.872" stroke-linejoin="round" stroke-linecap="round" fill="none" d="M325.828,560.83 Q327.794,560.643 344.922,567.663 366.263,574.589 388.54,574.402 409.974,574.215 428.882,568.786 444.794,564.2 446.104,564.574 451.907,566.072 456.494,576.368 462.297,589.191 459.208,605.758 455.37,626.631 445.542,641.981 434.03,659.859 417.088,665.194 L403.797,669.312 Q403.61,669.312 404.92,667.908 406.605,666.036 404.92,664.726 396.87,654.336 389.757,645.444 375.81,627.941 366.544,624.01 352.41,618.02 338.558,611 321.803,602.295 318.34,598.27 315.158,594.526 314.502,583.575 314.315,572.249 314.128,570.19 313.847,567.382 317.217,565.136 319.089,563.825 325.828,560.83Z" test="Avatar Man"/>
    </g>
    <g id="Censoredf0r1">
      <path fill="#000" stroke="none" d="M-18.85,403.35 L-18.85,629.9 829.1,629.9 829.1,403.35 -18.85,403.35Z" test="Censored"/>
      <path id="Layer2_0_1_STROKES" stroke="#F00" stroke-width="1" stroke-linejoin="round" stroke-linecap="round" fill="none" d="M440.05,433.95 Q451.45,433.7 458.4,442.45 467.15,453.5 468.45,478.35 469.85,504.55 462.7,519.75 456.1,533.8 444.2,534.55 432.35,535.35 426.85,525.8 420.75,515.3 419.8,488.15 418.8,461.5 424.1,448.25 428.75,436.6 438.75,434.25 M495.6,540.1 Q496.6,530.75 496.9,517.65 497.2,502.55 496.25,489.8 496.1,487.9 494.45,475.35 493.3,466.4 490.7,448.25 489,434.25 490.35,432.65 491.55,431.25 495.9,430.8 500.65,430.2 505.5,431.3 518.75,434.35 520.4,446.7 522.1,459.55 514.25,468.5 507.95,475.7 498.4,478.15 503.3,481.95 507.4,487.15 509.05,489.15 511.9,493.4 515.55,498.8 519.6,507.2 527.8,523.85 530,538.55 M571.35,432.65 Q570.6,432.65 561.5,433.35 554.45,433.85 553.1,433.3 551.6,432.65 553.4,483.6 553.45,484.9 553.55,486.15 555.9,485.8 562.05,485.75 568.9,485.7 569.75,485.55 M576.25,536.2 Q574.4,536.65 565.05,535.95 555.95,535.2 555.7,534.9 555.25,534.3 553.55,486.15 553.25,486.15 553.1,486.2 M604.7,431.3 Q618.7,430 628.4,436.15 644.15,446.1 645.2,473.8 646.25,502.4 642.45,513.4 640.25,519.95 633.1,524.1 628.35,526.9 618.55,528.8 610.8,530.3 606.65,530.3 604.3,530.3 604.1,480.45 603.85,429.95 604.7,431.3Z M184.5,451.6 Q183.2,445.85 177.55,440.35 171.75,434.7 166.2,434.25 158.55,433.6 151.55,437.15 141.9,442.05 136.2,454.2 129.55,468.45 127.75,482.8 125.85,498.1 129.9,511.35 132.45,519.85 135.75,524.45 140.25,530.65 146.6,530.65 153.75,530.65 160.75,526.7 167.95,522.75 170.85,516.9 M245.95,432.3 Q246.45,433.4 229.65,434.45 212.85,435.5 212.85,435.2 212.8,434.8 212.85,482.95 213.9,483.4 230.8,482.6 247.75,481.85 248.25,481 M277.65,536.55 Q277.8,536.7 277,484.45 276.2,432.15 276.35,432.3 276.6,432.65 327,528.05 323.8,429.05 322.4,429.7 M393.3,453.2 Q391.25,446.4 386,440.35 379.85,433.15 373.45,433.1 367,433 361.25,439.3 355.5,445.55 356.05,452.3 356.35,455.55 357.2,457.8 360.1,463.35 364.75,467.85 365.75,468.75 366.65,469.9 368.9,472.7 371.6,476.35 387.7,497.65 388.75,507.75 390,519.95 383.9,526.65 379.05,531.95 373.4,531.6 364.85,531.1 360.6,528.1 351.95,521.95 352.15,505.15 M212.85,482.95 Q212.65,483 212.5,507.4 212.4,531.7 212.25,533.25 212.1,534.85 229.65,535.1 247.15,535.35 248.25,533.25" test="Censored"/>
      <path id="Layer1_0_1_STROKES" stroke="#F00" stroke-width="1" stroke-linejoin="round" stroke-linecap="round" fill="none" d="M65.35,401.7 L732,401.7 732,561.5 65.35,561.5 65.35,401.7Z" test="Censored"/>
    </g>
  </g>
</svg>