<?xml version="1.0" encoding="utf-8"?>
<svg id="EdithAnim13" image-rendering="inherit" baseProfile="basic" version="1.1" x="0px" y="0px" width="800" height="600" xmlns="http://www.w3.org/2000/svg" xmlns:xlink="http://www.w3.org/1999/xlink">
  <g id="22_Avatarf244r1" overflow="visible">
    <g id="Avatar-Manf53r1">
      <g id="Tailf53r1">
        <g id="Tail-Wiggly">
          <path id="Layer4_0_1_STROKES" stroke="#009EFF" stroke-width="2.576" stroke-linejoin="round" stroke-linecap="round" fill="none" d="M438.936,609.592 L449.239,617.856 Q453.668,621.433 459.427,625.745 L481.237,640.557 487.062,643.887 Q490.147,645.627 493.063,647.064 L498.813,649.819 499.013,649.857 Q498.949,649.866 499.157,649.968 L499.221,649.96 499.294,650.015 504.161,651.977 504.577,652.182 519.409,656.347 Q526.214,657.73 532.927,658.411 539.177,659.022 546.287,659.261 L549.602,659.282 549.665,659.274 549.801,659.321 550.057,659.288 566.514,658.499 Q571.047,657.906 573.329,657.478 580.758,656.182 586.984,654.134 593.769,651.883 600.122,648.324 603.386,646.469 606.29,644.336 L606.997,643.788 607.419,643.538 608.651,642.533 608.771,642.452 608.835,642.444 608.954,642.364 609.24,642.066 609.828,641.6 610.114,641.303 610.297,641.214 611.815,639.911 Q617.061,635.329 621.576,630.127 626.147,624.854 629.876,619.106 L630.043,618.889 633.236,611.523 633.36,610.987 633.737,609.899 633.862,609.363 633.957,609.091 634.059,608.882 636.185,599.318 636.28,599.046 637.227,585.933 636.037,571.867 635.734,570.542 635.693,570.223 635.595,569.976 635.456,569.41 635.415,569.091 635.317,568.844 634.975,567.719 Q634.478,565.901 633.505,563.431 L631.758,559.503 Q630.255,556.452 627.691,552.242 L627.183,551.334 626.708,550.682 626.61,550.435 626.305,550.085 626.208,549.838 626.055,549.663 625.483,548.764 609.226,527.251 Q604.141,520.642 600.333,515.361 L596.983,510.603 596.555,509.815 596.411,509.704 596.322,509.521 594.678,506.878 594.492,506.448 591.366,500.428 591.244,499.989 590.889,499.256 590.474,498.076 590.297,497.71 589.279,494.401 589.229,494.018 589.124,493.707 589.024,492.941 588.918,492.63 588.809,491.8 588.832,491.472 588.698,490.451 588.725,489.668 588.675,489.285 588.703,488.502 Q588.697,487.463 588.94,485.353 589.298,482.125 590.221,478.757 590.462,477.621 591.144,475.389 L592.267,472.06 Q592.842,470.491 594.961,465.343 L595.654,463.694 603.134,448.883 624.121,413.213 Q627.548,407.635 631.827,400.126 L634.981,394.453 635.148,394.237 638.985,386.332 Q640.988,381.784 641.905,378.871 L643.71,371.816 643.832,370.761 Q644.153,368.251 643.87,366.08 L643.538,364.045 643.441,363.798 643.399,363.479 643.302,363.232 643.024,362.1 641.074,357.614 Q640.193,355.846 638.921,354.064 637.704,352.21 636.538,350.739 L628.309,341.944 628.093,341.777 627.354,341.094 627.201,340.92 592.956,313.447 Q586.649,308.427 581.44,303.847 L576.702,299.402 576.63,299.346 576.549,299.227 576.396,299.052 576.035,298.774 573.536,296.049 Q572.483,294.953 571.156,293.243 568.687,290.254 566.945,287.364 564.856,283.806 563.953,280.872 L563.221,277.266 563.269,277.13 563.219,276.747 563.468,274.181 564.31,270.694 Q564.74,269.014 565.409,267.174 566.296,264.525 568.132,260.193 L571.201,253.363 Q572.338,251.136 574.605,246.618 L578.089,239.993 Q581.227,234.193 585.45,226.756 593.289,213.198 600.911,200.966 L601.488,201.41 Q601.633,201.521 601.68,201.385 601.799,201.304 601.655,201.193 L600.933,200.638 Q600.861,200.583 600.741,200.663 591.404,214.678 584.256,226.068 L572.658,245.639 565.65,259.089 Q563.725,263.237 562.607,266.111 L560.471,272.625 559.953,275.615 559.898,277.181 559.851,277.317 559.91,277.764 559.871,277.964 560.121,279.879 561.15,283.771 561.911,285.62 Q562.486,287.038 563.617,289.228 565.489,292.62 567.919,295.809 L573.371,302.24 573.516,302.351 573.596,302.47 578.312,307.244 Q583.419,312.031 589.639,317.387 L622.797,345.977 623.4,346.612 623.616,346.779 630.876,355.116 Q631.979,356.595 632.818,358.044 L633.059,358.402 634.973,362.113 635.087,362.488 635.265,362.854 635.493,363.604 635.671,363.97 635.721,364.353 635.949,365.103 636.015,365.614 636.096,365.733 636.238,366.819 636.208,368.576 636.13,368.976 636.117,369.367 636.039,369.767 636.017,370.095 634.287,376.231 Q633.43,378.616 631.377,382.781 L624.149,395.545 Q619.804,402.543 616.066,408.227 L595.633,440.188 584.399,460.555 Q582.362,464.848 581.189,467.794 L578.493,475.485 Q577.162,480.205 576.639,483.65 576.298,485.513 576.168,487.998 L576.107,488.525 576.103,491.968 576.64,496.573 576.737,496.821 576.771,497.076 Q577.102,499.111 577.849,501.351 L578.044,501.845 578.508,503.408 582.989,513.342 589.02,523.204 Q591.228,526.682 593.361,529.585 L606.557,548.057 Q609.424,552.098 610.729,554.135 L613.162,557.843 613.251,558.027 613.404,558.201 613.743,558.806 613.751,558.87 613.823,558.926 614.009,559.356 614.493,560.072 Q616.454,563.647 617.563,566.165 L618.21,567.639 618.324,568.014 618.793,569.121 619.697,572.055 619.902,573.132 620.008,573.443 620.092,574.082 620.189,574.329 620.314,575.287 620.284,575.55 620.733,581.466 620.477,589.942 619.563,596.361 617.608,603.76 617.506,603.969 616.113,607.722 616.058,607.795 616.066,607.858 615.245,609.525 Q611.432,614.634 608.177,618.047 604.541,622.029 599.906,625.818 L598.849,626.67 598.73,626.751 597.672,627.603 597.314,627.845 597.131,627.934 596.598,628.328 596.368,628.553 595.588,629.045 Q593.073,630.673 591.066,631.715 586.567,634.056 581.129,635.677 576.065,637.183 570.255,637.943 L553.096,638.823 550.419,638.719 550.228,638.744 550.092,638.697 547.152,638.561 Q540.472,638.136 535.444,637.43 530.152,636.693 524.122,635.274 L514.448,632.318 512.871,631.68 512.535,631.594 512.391,631.483 512.255,631.435 508.395,629.732 508.323,629.677 508.387,629.668 503.445,627.133 Q500.512,625.568 498.388,624.222 L490.885,619.488 474.049,606.948 455.204,590.969 Q451.383,587.572 446.233,587.921 441.147,588.262 437.759,592.147 434.434,596.023 434.775,601.109 435.115,606.195 438.936,609.592Z" test="Tail Wiggly"/>
        </g>
      </g>
      <path fill="#000" stroke="none" d="M456.494,576.368 Q451.907,566.072 446.104,564.574 444.794,564.2 428.882,568.786 409.974,574.215 388.54,574.402 366.263,574.589 344.922,567.663 327.794,560.643 325.828,560.83 319.089,563.825 317.217,565.136 313.847,567.382 314.128,570.19 314.315,572.249 314.502,583.575 315.158,594.526 318.34,598.27 321.803,602.295 338.558,611 352.41,618.02 366.544,624.01 375.81,627.941 389.757,645.444 396.87,654.336 404.92,664.726 406.605,666.036 404.92,667.908 403.61,669.312 403.797,669.312 L417.088,665.194 Q434.03,659.859 445.542,641.981 455.37,626.631 459.208,605.758 462.297,589.191 456.494,576.368 M462.484,186.898 L459.114,185.494 Q459.066,185.612 459.021,185.681 458.006,188.272 457.336,190.642 455.558,197.007 452.75,206.741 452.686,206.912 452.562,207.022 449.998,213.836 444.7,216.85 433.562,223.215 427.384,226.21 L431.596,235.57 Q431.128,242.403 433.281,288.173 433.359,289.862 433.374,291.449 435.121,327.214 435.34,338.062 435.338,338.133 435.34,338.156 435.372,340.664 435.34,341.806 434.966,356.501 437.68,379.714 438.054,382.99 443.202,380.276 448.35,377.468 447.976,375.502 447.789,374.098 449.942,374.847 451.72,375.502 452.188,375.97 452.282,376.064 459.208,352.102 L464.824,361.462 Q464.918,361.556 468.1,340.87 L473.716,343.21 Q473.825,343.32 473.061,333.382 473.102,333.36 473.061,333.288 471.994,318.009 468.942,279.188 467.091,255.466 465.666,239.876 463.903,219.036 462.952,212.732 462.686,210.893 462.484,210.298 462.686,210.893 462.952,212.732 463.903,219.036 465.666,239.876 L467.164,239.782 Q469.036,239.595 474.558,234.072 479.426,229.392 483.076,230.89 486.352,232.294 506.008,260.748 528.659,289.577 547.192,294.07 530.531,294.632 505.821,313.632 498.146,319.529 490.564,326.643 L489.441,327.672 Q490.774,341.9 495.15,390.572 L496.18,390.478 Q501.047,387.764 535.118,360.994 567.971,335.067 578.548,325.894 586.41,319.061 592.869,308.297 596.145,302.775 600.076,295.942 601.948,293.789 605.973,290.794 609.249,287.799 609.436,282.838 609.623,277.971 574.055,255.039 534.65,230.516 527.068,224.806 504.791,208.052 494.402,201.312 482.024,193.197 473.622,189.612 466.642,186.642 462.484,186.898 M395.934,181.188 Q398.742,180.72 401.363,180.252 405.575,180.252 405.294,185.4 413.344,184.464 416.526,185.4 419.896,186.43 419.802,190.08 L425.044,192.514 Q428.724,185.359 437.68,179.41 442.828,175.947 447.227,174.824 447.296,174.809 447.321,174.73 L446.104,167.242 Q447.508,167.148 444.794,163.872 439.833,158.163 435.808,153.202 430.379,146.463 411.472,140.379 394.905,135.044 385.732,134.95 356.342,134.669 336.124,142.906 323.582,148.054 312.35,163.592 310.197,166.536 308.418,169.208 303.4,177.164 301.866,183.154 L301.866,185.4 Q302.054,185.4 302.896,185.681 303.832,185.868 304.487,185.868 307.857,185.868 311.226,183.154 315.064,179.972 318.714,179.316 L318.714,181.656 322.926,181.656 Q325.734,181.095 331.07,179.504 335.188,178.193 336.03,178.38 L336.03,180.72 Q336.966,180.72 340.71,181.188 346.888,181.188 352.878,177.912 L357.558,177.912 357.558,179.784 365.046,179.784 Q377.402,176.04 378.15,176.04 379.367,176.04 380.49,176.883 381.801,177.819 384.234,177.912 384.234,180.252 383.766,181.188 L395.934,181.188Z" test="Avatar Man" stroke-width="1.872"/>
      <path id="Layer3_0_1_STROKES" stroke="#009EFF" stroke-width="1.872" stroke-linejoin="round" stroke-linecap="round" fill="none" d="M419.802,190.08 Q419.896,186.43 416.526,185.4 413.344,184.464 405.294,185.4 405.575,180.252 401.363,180.252 398.742,180.72 395.934,181.188 L383.766,181.188 Q384.234,180.252 384.234,177.912 381.801,177.819 380.49,176.883 379.367,176.04 378.15,176.04 377.402,176.04 365.046,179.784 L357.558,179.784 357.558,177.912 352.878,177.912 Q346.888,181.188 340.71,181.188 336.966,180.72 336.03,180.72 L336.03,178.38 Q335.188,178.193 331.07,179.504 325.734,181.095 322.926,181.656 L318.714,181.656 318.714,179.316 Q315.064,179.972 311.226,183.154 307.857,185.868 304.487,185.868 303.832,185.868 302.896,185.681 302.054,185.4 301.866,185.4 L301.866,183.154 Q303.4,177.164 308.465,169.254 310.197,166.536 312.35,163.592 323.582,148.054 336.124,142.906 356.342,134.669 385.732,134.95 394.905,135.044 411.472,140.379 430.379,146.463 435.808,153.202 439.833,158.163 444.794,163.872 447.508,167.148 446.104,167.242 M447.368,174.777 Q447.437,174.784 447.508,174.777 450.338,174.152 456.4,173.794 460.799,173.607 463.514,171.828 465.011,170.892 467.164,169.114 468.006,168.646 464.543,174.636 462.952,177.351 461.642,179.972 460.84,181.546 460.191,183.06 460.035,183.373 459.91,183.669 459.637,184.253 459.395,184.839 459.249,185.168 459.114,185.494 M462.484,186.898 Q466.642,186.642 473.669,189.659 482.024,193.197 494.402,201.312 504.791,208.052 527.068,224.806 534.65,230.516 574.055,255.039 609.623,277.971 609.436,282.838 609.249,287.799 605.973,290.794 601.948,293.789 600.076,295.942 596.145,302.775 592.869,308.297 586.41,319.061 578.548,325.894 567.971,335.067 535.118,360.994 501.047,387.764 496.18,390.478 495.695,390.794 495.244,391.086 489.796,394.621 487.382,396 483.076,398.528 479.332,397.966 M461.642,179.972 Q460.183,181.57 458.974,182.499 457.752,183.39 456.774,183.622 453.218,183.903 448.912,184.558 443.39,185.4 440.394,187.46 436.37,190.923 432.532,193.918 427.758,197.662 424.763,199.44 L422.704,200.47 Q423.155,196.34 425.091,192.561 M418.866,190.08 L419.802,190.08 M425.091,192.561 Q428.724,185.359 437.68,179.41 442.828,175.947 447.227,174.824 447.296,174.809 447.368,174.777 M459.114,185.494 Q459.066,185.612 459.021,185.728 458.006,188.272 457.336,190.642 455.558,197.007 452.75,206.741 452.686,206.912 452.609,207.069 449.998,213.836 444.7,216.85 433.562,223.215 427.384,226.21 M431.596,235.57 Q431.128,242.403 433.281,288.173 433.359,289.862 433.421,291.496 435.121,327.214 435.34,338.062 435.338,338.133 435.34,338.202 435.372,340.664 435.34,341.806 434.966,356.501 437.68,379.714 438.054,382.99 443.202,380.276 448.35,377.468 447.976,375.502 447.789,374.098 449.942,374.847 451.72,375.502 452.188,375.97 452.282,376.064 459.208,352.102 L464.824,361.462 Q464.918,361.556 468.1,340.87 L473.716,343.21 Q473.825,343.32 473.108,333.429 473.102,333.36 473.108,333.288 471.994,318.009 468.942,279.188 467.091,255.466 465.713,239.876 463.903,219.036 462.952,212.732 462.686,210.893 462.484,210.298 M489.441,327.719 L490.564,326.643 Q498.146,319.529 505.821,313.632 530.531,294.632 547.192,294.07 528.659,289.577 506.008,260.748 486.352,232.294 483.076,230.89 479.426,229.392 474.558,234.072 469.036,239.595 467.164,239.782 M361.864,232.294 Q362.955,232.47 365.234,232.575 367.832,232.668 371.973,232.668 379.274,232.575 382.456,232.294 388.353,231.732 389.102,231.545 392.846,230.516 393.22,227.614 M416.62,307.174 Q417.556,313.258 419.709,322.056 422.33,332.633 424.576,338.062 M312.256,304.366 Q312.256,304.46 312.63,314.007 312.911,320.84 315.532,325.426 316.374,326.897 317.638,328.328 321.472,332.609 329.198,336.471 339.868,341.9 350.164,342.274 L353.955,342.555 354.095,342.555 Q364.017,342.929 367.012,342.742 372.16,342.368 378.244,340.402 382.737,338.998 394.811,328.14 403.392,320.345 412.502,310.824 412.62,310.71 412.736,310.59 412.807,310.523 412.876,310.45 412.971,310.36 413.063,310.263 414.501,308.737 415.965,307.174 416.06,307.073 416.152,306.987 416.189,306.933 416.246,306.893 416.261,306.839 416.292,306.8 427.313,295.049 428.788,291.73 M353.908,343.21 Q353.066,347.235 351.474,356.408 349.883,364.364 347.356,368.482 M484.48,332.446 L489.441,327.719 M474.184,406.858 Q474.09,407.045 464.637,431.662 457.898,449.165 455.464,459.274 452.469,471.536 449.848,508.04 447.227,543.608 448.444,551.47 M394.53,454.968 Q395.092,457.028 396.964,457.589 397.526,457.776 399.023,457.776 401.457,457.776 402.393,456.653 402.767,456.279 404.265,452.816 M357.09,441.396 Q356.903,458.432 358.12,461.052 360.086,465.732 371.13,465.732 376.466,465.732 376.934,465.639 377.495,465.545 379.554,464.328 M358.494,498.96 Q357.558,501.768 357.558,504.857 357.558,510.005 361.677,510.286 364.391,510.38 373.002,510.192 M355.218,537.804 Q359.992,541.08 363.081,541.829 365.327,542.297 369.258,541.548 M403.048,669.874 Q396.028,673.15 377.214,676.707 358.214,680.264 337.996,682.042 320.493,683.633 279.309,682.791 248.234,682.229 230.356,681.106 216.597,680.264 188.704,677.362 181.778,676.613 176.63,677.736 172.979,678.579 171.856,677.83 M306.64,168.178 Q303.083,166.025 298.871,163.779 290.447,159.38 287.92,159.754 285.206,160.128 287.452,173.513 289.324,184.932 291.196,189.706 M295.876,202.342 Q296.625,205.431 298.59,211.608 299.714,216.569 296.812,218.722 293.238,221.386 289.839,223.87 L289.792,223.917 Q238.722,261.838 232.228,264.118 226.518,265.803 225.114,266.271 223.149,267.02 222.868,268.798 222.4,272.448 222.213,284.991 221.932,299.405 222.868,302.494 226.05,315.224 250.574,351.447 274.629,386.921 288.856,400.774 M297.748,234.634 Q300.65,236.132 306.453,236.88 306.689,236.916 306.921,236.927 312.398,237.712 317.872,237.442 321.335,237.255 329.385,235.944 335.937,234.821 337.996,235.102 M297.28,258.97 Q296.157,260.842 284.082,272.916 273.131,283.868 270.136,286.582 M320.118,280.872 Q324.33,280.872 329.01,279.936 L347.262,279.936 Q341.646,285.927 338.464,289.109 332.567,294.912 331.163,294.912 328.636,294.912 324.892,289.671 321.054,283.68 319.65,282.276 M259.84,281.434 Q261.446,285.315 264.894,290.232 264.932,290.287 264.988,290.326 273.569,302.633 293.536,321.401 302.812,330.112 309.635,336.752 325.426,352.068 328.168,356.314 M296.812,426.982 Q296.157,441.864 299.152,448.978 301.024,453.284 306.734,458.151 312.63,462.924 317.872,464.422 M312.724,472.846 Q312.818,475.748 312.35,487.728 312.162,498.96 313.66,501.862 315.438,505.325 319.838,508.227 324.143,511.035 326.764,510.754 M319.276,514.498 Q319.37,517.587 319.37,522.36 319.557,525.917 321.148,528.07 321.335,528.351 326.39,531.814 329.759,534.154 329.572,538.366 329.385,541.548 327.419,549.411 325.734,555.963 326.296,558.022 M303.364,571.594 Q281.462,567.569 254.973,563.451 202.089,555.308 179.906,555.308 165.117,555.308 148.269,552.219 134.978,549.785 132.17,550.628 127.302,552.125 122.716,559.8 118.13,567.569 118.504,573.934 118.785,578.24 120.282,589.659 121.499,599.861 120.376,603.886 M302.896,598.738 Q294.285,600.142 254.598,600.984 211.542,601.92 204.616,602.482 196.941,603.137 172.511,607.068 150.328,610.625 141.436,610.906 130.859,611.28 121.499,609.97 116.632,609.315 109.612,607.63 105.962,606.788 102.218,609.315 100.252,610.719 95.572,615.586 90.237,621.108 95.104,632.902 96.04,635.242 94.449,648.627 92.67,662.105 93.7,664.726 L96.976,672.682 Q100.626,682.697 102.124,693.274 M168.112,664.726 Q169.422,668.938 171.856,681.012 174.477,693.929 174.196,696.55" test="Avatar Man"/>
      <path id="Layer3_0_2_STROKES" stroke="#FF0" stroke-width="1.872" stroke-linejoin="round" stroke-linecap="round" fill="none" d="M365.046,235.944 Q364.11,241.186 365.982,245.024 367.948,249.048 371.598,249.048 373.096,249.048 375.155,247.925 377.495,246.615 378.15,244.836 M306.546,240.156 Q305.61,246.708 305.61,247.176 305.61,249.08 307.014,251.108 307.761,252.167 308.886,253.26 312.35,256.536 315.906,256.536 317.778,256.536 318.995,254.664 319.744,253.635 321.054,251.388" test="Avatar Man"/>
      <path id="Layer3_0_3_STROKES" stroke="#FFF" stroke-width="1.872" stroke-linejoin="round" stroke-linecap="round" fill="none" d="M397.806,286.956 Q404.078,289.484 404.358,293.696 404.377,293.961 404.405,294.257 404.4,294.328 404.405,294.398 L404.405,294.538 Q404.441,296.973 403.89,301.464 M389.382,303.804 Q395.551,302.333 399.304,297.814 400.562,296.301 401.55,294.444" test="Avatar Man"/>
      <path id="Layer3_0_4_STROKES" stroke="#F90" stroke-width="1.872" stroke-linejoin="round" stroke-linecap="round" fill="none" d="M325.828,560.83 Q327.794,560.643 344.922,567.663 366.263,574.589 388.54,574.402 409.974,574.215 428.882,568.786 444.794,564.2 446.104,564.574 451.907,566.072 456.494,576.368 462.297,589.191 459.208,605.758 455.37,626.631 445.542,641.981 434.03,659.859 417.088,665.194 L403.797,669.312 Q403.61,669.312 404.92,667.908 406.605,666.036 404.92,664.726 396.87,654.336 389.757,645.444 375.81,627.941 366.544,624.01 352.41,618.02 338.558,611 321.803,602.295 318.34,598.27 315.158,594.526 314.502,583.575 314.315,572.249 314.128,570.19 313.847,567.382 317.217,565.136 319.089,563.825 325.828,560.83Z" test="Avatar Man"/>
    </g>
    <g id="Censoredf12r1">
      <path fill="#000" stroke="none" d="M-18.85,403.35 L-18.85,629.9 829.1,629.9 829.1,403.35 -18.85,403.35Z" test="Censored"/>
      <path id="Layer1_0_1_STROKES" stroke="#F00" stroke-width="1" stroke-linejoin="round" stroke-linecap="round" fill="none" d="M65.35,401.7 L732,401.7 732,561.5 65.35,561.5 65.35,401.7Z" test="Censored"/>
    </g>
  </g>
</svg>