<?xml version="1.0" encoding="utf-8"?>
<svg id="EdithAnim13" image-rendering="inherit" baseProfile="basic" version="1.1" x="0px" y="0px" width="800" height="600" xmlns="http://www.w3.org/2000/svg" xmlns:xlink="http://www.w3.org/1999/xlink">
  <g id="22_Avatarf26r1" overflow="visible">
    <g id="Avatar-Manf0r1">
      <g id="Tailf0r1">
        <path id="Layer3_0_1_STROKES" stroke="#009EFF" stroke-width="2.303" stroke-linejoin="round" stroke-linecap="round" fill="none" d="M650.79,693.142 Q649.628,676.22 648.987,659.289 648.413,642.871 643.079,627.365 637.217,610.476 620.884,602.793 601.035,593.536 598.161,614.236 597.741,617.252 599.713,619.899 604.375,626.259 611.004,630.33 617.933,627.8 623.144,632.579 629.418,638.381 632.179,647.08 638.632,667.608 643.772,688.308 645.224,694.1 644.249,699.976" test="Tail_2.3242325232423263e+312.3242325232423263e+31_2.3242325232423263e+312.3242325232423263e+31_2.3242325232423263e+312.3242325232423263e+31_2324232523242325"/>
      </g>
      <path fill="#000" stroke="none" d="M612.353,607.065 Q608.249,597.853 603.056,596.513 601.884,596.178 587.646,600.281 570.729,605.139 551.55,605.306 531.618,605.474 512.522,599.276 497.196,592.995 495.437,593.163 489.407,595.843 487.732,597.015 484.718,599.025 484.969,601.538 485.136,603.38 485.304,613.514 485.89,623.313 488.737,626.663 491.836,630.264 506.827,638.053 519.222,644.334 531.869,649.694 540.16,653.211 552.639,668.873 559.004,676.829 566.206,686.125 567.714,687.298 566.206,688.973 565.034,690.229 565.201,690.229 L577.094,686.544 Q592.252,681.77 602.554,665.774 611.348,652.039 614.781,633.363 617.545,618.539 612.353,607.065 M617.713,258.581 L614.698,257.325 Q614.654,257.431 614.614,257.493 613.706,259.811 613.106,261.931 611.515,267.626 609.002,276.336 608.946,276.489 608.835,276.588 606.54,282.685 601.8,285.381 591.834,291.076 586.306,293.756 L590.075,302.131 Q589.656,308.245 591.583,349.199 591.653,350.71 591.666,352.13 593.229,384.131 593.425,393.838 593.423,393.901 593.425,393.921 593.453,396.166 593.425,397.188 593.09,410.336 595.519,431.106 595.854,434.038 600.46,431.609 605.066,429.096 604.731,427.338 604.564,426.081 606.49,426.751 608.081,427.338 608.5,427.756 608.584,427.84 614.781,406.4 L619.806,414.775 Q619.89,414.859 622.738,396.35 L627.762,398.444 Q627.86,398.543 627.176,389.65 627.213,389.63 627.176,389.566 626.222,375.895 623.491,341.159 621.835,319.933 620.56,305.984 618.982,287.338 618.131,281.696 617.893,280.051 617.713,279.519 617.893,280.051 618.131,281.696 618.982,287.338 620.56,305.984 L621.9,305.9 Q623.575,305.733 628.516,300.791 632.871,296.604 636.137,297.944 639.069,299.2 656.656,324.66 676.924,350.455 693.506,354.475 678.599,354.978 656.489,371.979 649.621,377.255 642.838,383.62 L641.833,384.541 Q643.025,397.271 646.941,440.821 L647.863,440.738 Q652.218,438.309 682.703,414.356 712.099,391.158 721.563,382.95 728.598,376.836 734.376,367.205 737.308,362.264 740.825,356.15 742.5,354.224 746.101,351.544 749.033,348.864 749.2,344.425 749.368,340.07 717.543,319.551 682.284,297.609 675.5,292.5 655.567,277.509 646.271,271.479 635.196,264.218 627.679,261.01 621.433,258.352 617.713,258.581 M558.166,253.473 Q560.679,253.054 563.024,252.635 566.793,252.635 566.541,257.241 573.744,256.404 576.591,257.241 579.606,258.163 579.522,261.429 L584.213,263.606 Q587.506,257.204 595.519,251.881 600.125,248.783 604.061,247.778 604.123,247.764 604.145,247.694 L603.056,240.994 Q604.313,240.91 601.884,237.979 597.445,232.87 593.844,228.431 588.986,222.401 572.069,216.958 557.245,212.184 549.037,212.1 522.74,211.849 504.65,219.219 493.427,223.825 483.377,237.728 481.451,240.362 479.86,242.753 475.369,249.871 473.997,255.231 L473.997,257.241 Q474.165,257.241 474.919,257.493 475.756,257.66 476.343,257.66 479.357,257.66 482.372,255.231 485.806,252.384 489.072,251.798 L489.072,253.891 492.841,253.891 Q495.354,253.389 500.127,251.965 503.812,250.793 504.566,250.96 L504.566,253.054 Q505.404,253.054 508.754,253.473 514.281,253.473 519.641,250.541 L523.829,250.541 523.829,252.216 530.529,252.216 Q541.584,248.866 542.254,248.866 543.343,248.866 544.348,249.62 545.52,250.458 547.698,250.541 547.698,252.635 547.279,253.473 L558.166,253.473Z" test="Avatar Man" stroke-width="1.675"/>
      <path id="Layer2_0_1_STROKES" stroke="#009EFF" stroke-width="1.675" stroke-linejoin="round" stroke-linecap="round" fill="none" d="M579.522,261.429 Q579.606,258.163 576.591,257.241 573.744,256.404 566.541,257.241 566.793,252.635 563.024,252.635 560.679,253.054 558.166,253.473 L547.279,253.473 Q547.698,252.635 547.698,250.541 545.52,250.458 544.348,249.62 543.343,248.866 542.254,248.866 541.584,248.866 530.529,252.216 L523.829,252.216 523.829,250.541 519.641,250.541 Q514.281,253.473 508.754,253.473 505.404,253.054 504.566,253.054 L504.566,250.96 Q503.812,250.793 500.127,251.965 495.354,253.389 492.841,253.891 L489.072,253.891 489.072,251.798 Q485.806,252.384 482.372,255.231 479.357,257.66 476.343,257.66 475.756,257.66 474.919,257.493 474.165,257.241 473.997,257.241 L473.997,255.231 Q475.369,249.871 479.902,242.794 481.451,240.362 483.377,237.728 493.427,223.825 504.65,219.219 522.74,211.849 549.037,212.1 557.245,212.184 572.069,216.958 588.986,222.401 593.844,228.431 597.445,232.87 601.884,237.979 604.313,240.91 603.056,240.994 M604.187,247.736 Q604.249,247.742 604.313,247.736 606.845,247.176 612.269,246.856 616.205,246.689 618.634,245.098 619.974,244.26 621.9,242.669 622.654,242.25 619.555,247.61 618.131,250.039 616.959,252.384 616.242,253.792 615.661,255.148 615.522,255.427 615.409,255.692 615.165,256.214 614.949,256.739 614.818,257.034 614.698,257.325 M617.713,258.581 Q621.433,258.352 627.721,261.052 635.196,264.218 646.271,271.479 655.567,277.509 675.5,292.5 682.284,297.609 717.543,319.551 749.368,340.07 749.2,344.425 749.033,348.864 746.101,351.544 742.5,354.224 740.825,356.15 737.308,362.264 734.376,367.205 728.598,376.836 721.563,382.95 712.099,391.158 682.703,414.356 652.218,438.309 647.863,440.738 647.429,441.021 647.025,441.282 642.151,444.444 639.99,445.679 636.137,447.94 632.787,447.438 M616.959,252.384 Q615.654,253.814 614.572,254.645 613.478,255.442 612.604,255.65 609.421,255.901 605.569,256.488 600.627,257.241 597.948,259.084 594.346,262.183 590.912,264.863 586.641,268.213 583.961,269.804 L582.119,270.725 Q582.522,267.03 584.254,263.648 M578.685,261.429 L579.522,261.429 M584.254,263.648 Q587.506,257.204 595.519,251.881 600.125,248.783 604.061,247.778 604.123,247.764 604.187,247.736 M614.698,257.325 Q614.654,257.431 614.614,257.534 613.706,259.811 613.106,261.931 611.515,267.626 609.002,276.336 608.946,276.489 608.877,276.629 606.54,282.685 601.8,285.381 591.834,291.076 586.306,293.756 M590.075,302.131 Q589.656,308.245 591.583,349.199 591.653,350.71 591.708,352.172 593.229,384.131 593.425,393.838 593.423,393.901 593.425,393.963 593.453,396.166 593.425,397.188 593.09,410.336 595.519,431.106 595.854,434.038 600.46,431.609 605.066,429.096 604.731,427.338 604.564,426.081 606.49,426.751 608.081,427.338 608.5,427.756 608.584,427.84 614.781,406.4 L619.806,414.775 Q619.89,414.859 622.738,396.35 L627.762,398.444 Q627.86,398.543 627.218,389.692 627.213,389.63 627.218,389.566 626.222,375.895 623.491,341.159 621.835,319.933 620.602,305.984 618.982,287.338 618.131,281.696 617.893,280.051 617.713,279.519 M641.833,384.583 L642.838,383.62 Q649.621,377.255 656.489,371.979 678.599,354.978 693.506,354.475 676.924,350.455 656.656,324.66 639.069,299.2 636.137,297.944 632.871,296.604 628.516,300.791 623.575,305.733 621.9,305.9 M527.681,299.2 Q528.658,299.357 530.696,299.451 533.021,299.535 536.726,299.535 543.259,299.451 546.106,299.2 551.382,298.698 552.053,298.53 555.402,297.609 555.738,295.013 M576.675,366.2 Q577.512,371.644 579.439,379.516 581.784,388.98 583.794,393.838 M483.294,363.688 Q483.294,363.771 483.629,372.314 483.88,378.428 486.225,382.531 486.979,383.848 488.109,385.128 491.54,388.958 498.452,392.414 508,397.271 517.213,397.606 L520.604,397.858 520.73,397.858 Q529.608,398.193 532.287,398.025 536.894,397.69 542.338,395.931 546.358,394.675 557.161,384.96 564.839,377.985 572.99,369.466 573.096,369.364 573.199,369.257 573.263,369.197 573.325,369.131 573.41,369.051 573.493,368.964 574.779,367.599 576.089,366.2 576.174,366.11 576.256,366.033 576.29,365.984 576.34,365.949 576.353,365.9 576.382,365.865 586.243,355.351 587.563,352.381 M520.563,398.444 Q519.809,402.045 518.385,410.253 516.961,417.371 514.7,421.056 M637.394,388.813 L641.833,384.583 M628.181,455.394 Q628.098,455.561 619.639,477.588 613.609,493.249 611.431,502.294 608.751,513.265 606.406,545.928 604.061,577.753 605.15,584.788 M556.91,498.441 Q557.412,500.284 559.088,500.786 559.59,500.954 560.93,500.954 563.108,500.954 563.945,499.949 564.28,499.614 565.62,496.515 M523.41,486.298 Q523.242,501.54 524.331,503.885 526.09,508.073 535.973,508.073 540.746,508.073 541.165,507.989 541.667,507.905 543.51,506.816 M524.666,537.804 Q523.829,540.316 523.829,543.08 523.829,547.686 527.514,547.938 529.943,548.021 537.647,547.854 M521.735,572.56 Q526.006,575.491 528.77,576.161 530.78,576.58 534.297,575.91 M564.531,690.731 Q558.25,693.663 541.416,696.845 524.415,700.028 506.325,701.619 490.664,703.043 453.814,702.289 426.009,701.786 410.012,700.781 397.701,700.028 372.744,697.431 366.546,696.761 361.94,697.766 358.674,698.52 357.669,697.85 M478.269,241.831 Q475.086,239.905 471.317,237.895 463.78,233.959 461.519,234.294 459.09,234.629 461.1,246.605 462.775,256.823 464.45,261.094 M468.637,272.4 Q469.307,275.164 471.066,280.691 472.071,285.13 469.475,287.056 466.277,289.44 463.236,291.663 L463.194,291.704 Q417.498,325.635 411.687,327.675 406.579,329.183 405.323,329.601 403.564,330.271 403.312,331.863 402.894,335.129 402.726,346.351 402.475,359.249 403.312,362.013 406.16,373.403 428.102,405.814 449.626,437.555 462.356,449.95 M470.312,301.294 Q472.909,302.634 478.101,303.304 478.312,303.336 478.52,303.346 483.421,304.047 488.319,303.806 491.417,303.639 498.62,302.466 504.482,301.461 506.325,301.713 M469.894,323.069 Q468.889,324.744 458.085,335.548 448.286,345.346 445.606,347.775 M490.329,342.666 Q494.097,342.666 498.285,341.829 L514.616,341.829 Q509.591,347.189 506.744,350.036 501.468,355.229 500.211,355.229 497.95,355.229 494.6,350.539 491.166,345.179 489.91,343.923 M436.394,343.169 Q437.831,346.641 440.916,351.041 440.95,351.09 441,351.125 448.678,362.136 466.544,378.93 474.843,386.724 480.949,392.665 495.077,406.37 497.531,410.169 M469.475,473.4 Q468.889,486.716 471.569,493.081 473.244,496.934 478.352,501.289 483.629,505.56 488.319,506.9 M483.713,514.438 Q483.796,517.034 483.377,527.754 483.21,537.804 484.55,540.4 486.141,543.499 490.077,546.095 493.93,548.608 496.275,548.356 M489.575,551.706 Q489.659,554.47 489.659,558.741 489.826,561.924 491.25,563.85 491.417,564.101 495.94,567.2 498.955,569.294 498.787,573.063 498.62,575.91 496.861,582.945 495.354,588.808 495.856,590.65 M475.338,602.794 Q455.74,599.193 432.039,595.508 384.72,588.221 364.871,588.221 351.639,588.221 336.564,585.458 324.671,583.28 322.159,584.034 317.804,585.374 313.7,592.241 309.596,599.193 309.931,604.888 310.182,608.74 311.522,618.958 312.611,628.086 311.606,631.688 M474.919,627.081 Q467.214,628.338 431.704,629.091 393.179,629.929 386.981,630.431 380.114,631.018 358.255,634.535 338.406,637.718 330.45,637.969 320.986,638.304 312.611,637.131 308.256,636.545 301.975,635.038 298.709,634.284 295.359,636.545 293.6,637.801 289.412,642.156 284.639,647.098 288.994,657.65 289.831,659.744 288.407,671.72 286.816,683.78 287.737,686.125 L290.669,693.244 Q293.935,702.205 295.275,711.669 M354.319,686.125 Q355.491,689.894 357.669,700.698 360.014,712.255 359.762,714.6" test="Avatar Man"/>
      <path id="Layer2_0_2_STROKES" stroke="#FF0" stroke-width="1.675" stroke-linejoin="round" stroke-linecap="round" fill="none" d="M530.529,302.466 Q529.691,307.156 531.366,310.59 533.125,314.191 536.391,314.191 537.731,314.191 539.574,313.186 541.667,312.014 542.254,310.423 M478.185,306.235 Q477.347,312.098 477.347,312.516 477.347,314.22 478.604,316.034 479.272,316.982 480.279,317.96 483.377,320.891 486.56,320.891 488.235,320.891 489.324,319.216 489.994,318.295 491.166,316.285" test="Avatar Man"/>
      <path id="Layer2_0_3_STROKES" stroke="#FFF" stroke-width="1.675" stroke-linejoin="round" stroke-linecap="round" fill="none" d="M559.841,348.11 Q565.453,350.371 565.704,354.14 565.72,354.378 565.746,354.643 565.741,354.706 565.746,354.768 L565.746,354.894 Q565.777,357.073 565.285,361.091 M552.304,363.185 Q557.823,361.868 561.181,357.825 562.307,356.472 563.191,354.81" test="Avatar Man"/>
      <path id="Layer2_0_4_STROKES" stroke="#F90" stroke-width="1.675" stroke-linejoin="round" stroke-linecap="round" fill="none" d="M495.437,593.163 Q497.196,592.995 512.522,599.276 531.618,605.474 551.55,605.306 570.729,605.139 587.646,600.281 601.884,596.178 603.056,596.513 608.249,597.853 612.353,607.065 617.545,618.539 614.781,633.363 611.348,652.039 602.554,665.774 592.252,681.77 577.094,686.544 L565.201,690.229 Q565.034,690.229 566.206,688.973 567.714,687.298 566.206,686.125 559.004,676.829 552.639,668.873 540.16,653.211 531.869,649.694 519.222,644.334 506.827,638.053 491.836,630.264 488.737,626.663 485.89,623.313 485.304,613.514 485.136,603.38 484.969,601.538 484.718,599.025 487.732,597.015 489.407,595.843 495.437,593.163Z" test="Avatar Man"/>
    </g>
    <g id="Avatar-Lady">
      <path fill="#000" stroke="none" d="M251.593,510.226 Q247.881,509.761 244.763,509.984 236.621,511.066 233.169,511.416 227.527,511.989 221.394,510.23 217.746,509.494 212.479,507.052 202.029,502.158 192.441,493.179 182.972,484.313 176.073,473.574 L174.408,474.764 Q174.628,481.121 172.411,496.148 170.775,507.571 171.195,516.008 171.269,517.579 171.418,519.048 171.726,522.079 173.888,536.661 176.025,557.711 174.277,565.63 173.115,570.937 171.338,576.902 170.343,581.342 170.959,587.404 171.302,590.78 172.486,594.905 L172.495,594.989 Q173.586,598.805 175.379,603.288 179.048,612.613 179.535,617.413 179.792,619.939 179.114,622.475 178.741,623.831 178.216,624.522 L179.784,625.724 Q180.016,627.64 180.104,631.391 180.113,631.579 180.138,631.728 180.265,636.91 180.168,645.421 L180.176,645.505 Q180.144,648.91 180.069,652.832 L183.761,654.839 Q186.017,650.989 191.844,643.13 200.005,632.178 201.911,628.326 L202.246,627.442 Q205.49,623.369 207.971,615.121 210.784,604.287 212.811,597.446 213.252,595.926 213.615,594.472 213.816,593.953 213.933,593.418 214.014,593.305 213.992,593.157 214.064,593.092 214.059,592.98 L214.059,592.98 Q218.071,579.348 220.653,570.789 225.981,552.894 229.152,544.745 230.609,540.946 232.702,536.984 233.535,535.382 234.415,533.747 L234.634,533.385 234.709,533.292 Q236.998,529.489 239.793,525.545 246.263,516.381 251.377,512.289 L251.593,510.226 M216.022,361.821 L214.184,349.588 213.763,349.63 Q204.332,350.588 198.835,351.742 187.765,354.142 179.224,358.837 171.021,363.498 163.654,370.541 160.863,373.178 158.172,376.032 158.174,376.072 158.096,376.125 157.909,376.358 157.634,376.597 153.666,381.063 150.002,386.049 143.716,394.513 141.539,403.241 139.355,411.885 139.386,421.409 L139.281,424.567 Q141.98,424.656 145.261,424.811 150.651,425.114 158.43,428.833 158.832,429.046 164.018,431.924 164.067,431.936 164.102,431.915 165.862,432.946 168.164,434.225 165.862,432.946 164.102,431.915 164.067,431.936 164.018,431.924 158.832,429.046 158.43,428.833 150.651,425.114 145.261,424.811 141.98,424.656 139.281,424.567 L137.724,436.04 Q139.477,436.248 141.346,436.523 155.497,438.488 160.86,437.689 155.497,438.488 141.346,436.523 139.477,436.248 137.724,436.04 137.551,436.011 137.379,435.99 125.644,434.495 119.365,435.352 L115.263,440.192 Q117.587,442.178 122.767,446.235 129.657,451.593 133.92,453.865 134.745,454.256 135.437,454.562 141.319,457.197 147.878,456.446 152.669,455.874 159.626,456.529 165.117,456.992 166.741,456.232 L172.191,457.124 170.964,464.31 175.963,473.33 Q176.051,473.467 176.073,473.574 182.972,484.313 192.441,493.179 202.029,502.158 212.479,507.052 217.746,509.494 221.394,510.23 227.527,511.989 233.169,511.416 236.621,511.066 244.763,509.984 247.881,509.761 251.593,510.226 L251.677,510.217 Q254.58,510.647 257.843,511.463 267.784,513.856 270.707,514.155 276.99,514.878 280.499,513.415 282.124,512.655 286.363,509.162 288.953,507.028 290.297,499.32 291.689,489.566 292.767,484.267 293.979,478.615 299.528,467.078 300.259,465.55 300.93,464.128 305.476,454.457 307.123,449.718 307.304,449.206 307.45,448.749 309.956,440.753 306.699,431.301 304.17,423.987 299.784,419.328 L293.38,411.557 Q292.872,411.962 292.177,412.274 286.95,414.421 286.63,408.754 L281.861,407.027 266.508,411.648 Q266.629,412.068 266.762,412.473 266.516,412.235 266.205,412.019 263.456,409.413 259.326,407.103 250.232,402.157 242.538,404.3 235.097,406.416 222.899,415.311 211.241,424.386 205.344,428.408 204.556,429.02 203.838,429.496 199.859,432.197 185.531,441.053 184.093,441.948 182.805,442.691 179.081,445.104 176.739,446.625 174.276,448.397 173.51,449.164 174.276,448.397 176.739,446.625 179.081,445.104 182.805,442.691 184.093,441.948 185.531,441.053 199.859,432.197 203.838,429.496 204.556,429.02 205.344,428.408 211.241,424.386 222.899,415.311 235.097,406.416 242.538,404.3 250.232,402.157 259.326,407.103 263.456,409.413 266.205,412.019 L266.508,411.648 Q266.443,411.444 266.381,411.236 265.355,407.954 264.467,404.114 262.457,395.216 263.361,391.552 264.081,388.586 270.854,384.921 276.887,381.501 276.278,379.691 274.595,374.843 266.466,367.672 L258.692,361.486 Q246.457,371.421 235.293,380.706 223.617,390.527 213.14,399.629 195.513,415.37 189.079,420.702 181.54,426.961 175.368,430.601 173.319,431.855 171.421,432.788 173.319,431.855 175.368,430.601 181.54,426.961 189.079,420.702 195.513,415.37 213.14,399.629 223.617,390.527 235.293,380.706 L229.092,373.254 Q228.232,372.32 223.088,367.739 217.48,362.779 216.022,361.821 M252.551,420.807 Q251.244,419.664 247.226,419.476 244.182,419.334 235.538,425.001 232.766,426.858 229.422,429.28 215.635,439.272 213.277,439.512 215.635,439.272 229.422,429.28 232.766,426.858 235.538,425.001 244.182,419.334 247.226,419.476 251.244,419.664 252.551,420.807 253.858,421.95 258.055,423.906 253.858,421.95 252.551,420.807 M248.556,435.079 Q250.43,432.592 250.276,431.076 250.233,430.655 247.914,428.764 250.233,430.655 250.276,431.076 250.43,432.592 248.556,435.079 246.539,437.836 244.434,438.049 238.287,438.673 237.842,434.295 237.774,433.621 237.833,433.36 238.034,432.829 239.159,430.503 238.034,432.829 237.833,433.36 237.774,433.621 237.842,434.295 238.287,438.673 244.434,438.049 246.539,437.836 248.556,435.079 M235.265,489.341 Q234.953,490.189 234.418,491.043 232.964,493.487 232.022,494.264 232.964,493.487 234.418,491.043 234.953,490.189 235.265,489.341 236.402,487.134 236.219,485.331 L235.677,483.344 236.219,485.331 Q236.402,487.134 235.265,489.341 M273.945,456.405 Q276.077,456.188 278.801,454.806 281.753,453.415 285.364,450.737 290.514,446.835 291.62,444.487 292.05,443.701 291.988,443.088 291.92,442.415 290.005,440.312 288.174,438.201 287.475,438.017 288.174,438.201 290.005,440.312 291.92,442.415 291.988,443.088 292.05,443.701 291.62,444.487 290.514,446.835 285.364,450.737 281.753,453.415 278.801,454.806 276.077,456.188 273.945,456.405 270.661,456.738 268.232,454.603 264.395,451.164 264.126,451.022 264.395,451.164 268.232,454.603 270.661,456.738 273.945,456.405 M293.553,458.497 Q293.484,457.823 292.363,456.831 293.484,457.823 293.553,458.497 293.664,459.592 293.337,460.56 293.01,461.529 292.245,462.373 290.631,464.068 288.189,464.316 287.263,464.41 285.249,463.849 283.32,463.279 282.055,462.557 283.32,463.279 285.249,463.849 287.263,464.41 288.189,464.316 290.631,464.068 292.245,462.373 293.01,461.529 293.337,460.56 293.664,459.592 293.553,458.497 M256.222,492.147 Q259.901,491.518 263.664,490.88 259.901,491.518 256.222,492.147 246.188,494.697 237.069,490.348 246.188,494.697 256.222,492.147 M191.057,392.428 Q186.731,388.359 180.345,386.626 174.043,384.884 168.731,386.189 174.043,384.884 180.345,386.626 186.731,388.359 191.057,392.428Z" test="Avatar Lady" stroke-width="1.693"/>
      <path id="Layer1_0_1_STROKES" stroke="#009EFF" stroke-width="1.693" stroke-linejoin="round" stroke-linecap="round" fill="none" d="M281.861,407.027 Q280.449,403.172 283.41,401.34 286.279,399.433 289.048,398.216 M256.656,357.354 Q256.832,356.571 256.789,356.15 256.703,355.308 253.378,350.201 249.453,344.22 248.828,343.092 246.531,338.902 241.957,338.261 237.283,338.31 235.606,337.714 236.071,338.943 236.49,343.069 L236.938,349.149 Q236.694,349.258 234.773,348.773 232.684,348.304 231.757,348.399 228.474,348.732 226.688,348.743 222.427,348.665 217.712,349.144 L214.184,349.588 M216.022,361.821 Q217.48,362.779 223.088,367.739 228.232,372.32 229.092,373.254 M235.606,337.714 Q235.594,337.631 235.514,337.639 L235.488,337.386 Q235.587,337.545 235.606,337.714Z M213.763,349.63 Q213.746,349.462 213.83,349.453 214.008,349.6 214.184,349.588 L213.763,349.63 Q204.332,350.588 198.835,351.742 187.765,354.142 179.224,358.837 171.021,363.498 163.654,370.541 160.863,373.178 158.214,376.028 158.174,376.072 158.139,376.12 157.909,376.358 157.676,376.593 153.666,381.063 150.002,386.049 143.716,394.513 141.539,403.241 139.355,411.885 139.386,421.409 M139.286,424.61 Q141.98,424.656 145.261,424.811 150.651,425.114 158.43,428.833 158.832,429.046 164.018,431.924 164.067,431.936 164.106,431.957 165.862,432.946 168.164,434.225 M258.055,423.906 Q253.858,421.95 252.551,420.807 251.244,419.664 247.226,419.476 244.182,419.334 235.542,425.044 232.766,426.858 229.422,429.28 215.635,439.272 213.277,439.512 M264.126,451.022 Q264.395,451.164 268.232,454.603 270.661,456.738 273.945,456.405 276.077,456.188 278.848,454.843 281.753,453.415 285.364,450.737 290.514,446.835 291.662,444.483 292.05,443.701 291.988,443.088 291.92,442.415 290.005,440.312 288.174,438.201 287.475,438.017 M299.784,419.328 Q304.17,423.987 306.699,431.301 309.956,440.753 307.45,448.749 307.304,449.206 307.123,449.718 305.476,454.457 300.93,464.128 300.259,465.55 299.528,467.078 293.979,478.615 292.767,484.267 291.689,489.566 290.297,499.32 288.953,507.028 286.363,509.162 282.124,512.655 280.499,513.415 276.99,514.878 270.707,514.155 267.784,513.856 257.843,511.463 254.58,510.647 251.681,510.259 L251.597,510.268 M251.377,512.289 Q246.263,516.381 239.793,525.545 236.998,529.489 234.752,533.288 L234.676,533.381 234.458,533.743 Q233.535,535.382 232.702,536.984 230.609,540.946 229.152,544.745 225.981,552.894 220.653,570.789 218.071,579.348 214.101,592.976 L214.063,593.022 Q214.064,593.092 214.034,593.153 214.014,593.305 213.98,593.456 213.816,593.953 213.657,594.467 213.252,595.926 212.811,597.446 210.784,604.287 207.971,615.121 205.49,623.369 202.246,627.442 M201.911,628.326 Q200.005,632.178 191.844,643.13 186.017,650.989 183.765,654.881 183.055,656.143 182.703,656.988 M282.055,462.557 Q283.32,463.279 285.249,463.849 287.263,464.41 288.189,464.316 290.631,464.068 292.245,462.373 293.01,461.529 293.337,460.56 293.664,459.592 293.553,458.497 293.484,457.823 292.363,456.831 M251.597,510.268 Q247.881,509.761 244.763,509.984 236.621,511.066 233.169,511.416 227.527,511.989 221.394,510.23 217.746,509.494 212.479,507.052 202.029,502.158 192.441,493.179 182.972,484.313 176.12,473.612 M174.408,474.764 Q174.628,481.121 172.411,496.148 170.775,507.571 171.195,516.008 171.269,517.579 171.418,519.048 171.726,522.079 173.888,536.661 176.025,557.711 174.277,565.63 173.115,570.937 171.338,576.902 170.343,581.342 170.959,587.404 171.302,590.78 172.49,594.947 L172.495,594.989 Q173.586,598.805 175.379,603.288 179.048,612.613 179.535,617.413 179.792,619.939 179.114,622.475 178.741,623.831 178.22,624.565 M179.784,625.724 Q180.016,627.64 180.108,631.433 180.113,631.579 180.138,631.728 180.265,636.91 180.172,645.463 L180.176,645.505 Q180.144,648.91 180.069,652.832 M230.124,546.773 L230.106,551.624 Q230.191,552.466 231.123,555.774 232.054,559.082 232.14,559.924 232.225,560.766 233.53,566.078 234.751,571.399 234.836,572.241 235.555,579.313 228.292,609.995 220.945,640.685 221.586,647 222.21,653.147 232.951,666.773 241.347,677.404 251.653,687.587 259.117,694.91 278.271,730.225 278.382,731.32 279.081,731.504 279.688,731.613 279.712,731.015 M194.641,687.421 Q196.865,688.386 208.897,697.968 221.781,708.399 222.029,710.841 222.337,713.872 244.606,727.094 266.875,740.315 267.217,743.683 267.32,744.693 267.648,744.575 267.976,744.456 267.993,744.625 L268.607,743.967 M191.057,392.428 Q186.731,388.359 180.345,386.626 174.043,384.884 168.731,386.189 M139.286,424.61 Q139.203,424.628 139.117,424.627 139.03,424.625 138.949,424.644 134.854,424.558 132.157,424.78 124.899,425.347 119.875,427.814 113.64,430.914 112.933,431.496 111.756,432.467 112.079,434.816 112.504,437.325 113.947,438.965 114.343,439.363 115.073,439 115.165,440.071 115.258,440.15 L115.305,440.188 M119.365,435.352 Q125.644,434.495 137.379,435.99 137.551,436.011 137.724,436.04 M115.305,440.188 Q117.587,442.178 122.767,446.235 129.657,451.593 133.962,453.861 134.745,454.256 135.437,454.562 141.319,457.197 147.878,456.446 152.669,455.874 159.626,456.529 165.117,456.992 166.741,456.232 M170.964,464.31 L175.963,473.33 Q176.051,473.467 176.12,473.612 M130.788,459.883 Q128.326,463.28 127.688,481.294 127.414,489.489 127.358,491.451 127.372,494.937 127.765,498.81 128.244,503.526 131.249,513.854 134.17,524.191 134.769,530.085 134.831,530.698 134.897,531.348 135.114,534.157 135.109,537.621 135.112,543.3 134.527,550.739 134.117,555.954 133.42,562.037 130.985,583.296 132.729,600.473 133.011,603.252 135.189,612.133 137.316,620.509 137.31,622.126 M137.724,436.04 Q139.477,436.248 141.346,436.523 155.497,438.488 160.86,437.689 M152.877,476.355 L153.259,478.442 Q153.456,480.379 152.723,485.728 151.998,491.161 152.275,495.556 152.518,500.465 153.356,508.717 153.45,509.643 154.086,512.556 154.73,515.553 154.842,516.648 154.848,516.708 154.854,516.774 155.069,519.039 154.919,523.275 154.834,528.303 154.205,529.643 153.541,530.646 152.357,533.233 151.514,534.977 151.12,536.123 150.726,537.269 150.781,537.816 M156.881,572.756 Q156.95,573.429 156.64,580.436 156.247,587.452 156.349,588.462 156.537,590.315 158.575,595.297 159.56,597.812 160.084,599.269 160.571,600.712 160.613,601.13 160.904,603.992 159.001,609.545 157.29,614.483 155.786,616.422 M134.897,531.348 Q130.158,532.425 125.156,538.462 120.516,544.003 119.674,549.822 119.433,551.519 119.511,553.242 119.722,558.665 121.307,615.329 123.017,670.705 123.531,676.608 123.933,680.565 124.036,687.445 124.061,688.455 124.103,689.352 L124.111,689.437 Q124.317,692.316 124.872,693.996 125.362,695.477 165.353,743.308 205.039,790.659 205.465,794.018 M117.619,549.691 Q109.955,554.637 102.223,558.91 91.183,564.965 84.827,566.036 71.549,567.64 56.022,568.876 25.043,571.256 13.882,569.412 M178.22,624.565 Q177.737,625.252 177.105,625.316 M180.069,652.832 L180.074,652.874 Q180.059,654.824 180.017,656.921 179.79,668.122 179.316,683.108 179.245,686.603 189.939,702.275 203.114,721.439 206.096,727.346 226.453,767.813 228.781,786.547 M28.892,670.31 Q35.57,670.738 52.419,674.981 70.76,679.669 80.914,684.168 94.718,690.252 98.298,691.164 105.729,693.132 114.972,691.173 118.719,690.367 121.858,689.453" test="Avatar Lady"/>
      <path id="Layer1_0_2_STROKES" stroke="#FFBC00" stroke-width="1.693" stroke-linejoin="round" stroke-linecap="round" fill="none" d="M235.335,380.701 Q246.457,371.421 258.692,361.486 L266.466,367.672 Q274.595,374.843 276.278,379.691 276.887,381.501 270.854,384.921 264.081,388.586 263.361,391.552 262.457,395.216 264.467,404.114 265.355,407.954 266.381,411.236 266.443,411.444 266.508,411.648 M171.421,432.788 Q173.319,431.855 175.372,430.643 181.54,426.961 189.079,420.702 195.513,415.37 213.14,399.629 223.617,390.527 235.335,380.701 M266.247,412.015 Q266.516,412.235 266.762,412.473 266.629,412.068 266.508,411.648 M266.247,412.015 Q263.456,409.413 259.326,407.103 250.232,402.157 242.538,404.3 235.097,406.416 222.899,415.311 211.241,424.386 205.39,428.445 204.556,429.02 203.838,429.496 199.859,432.197 185.531,441.053 184.093,441.948 182.809,442.733 179.081,445.104 176.786,446.662 174.276,448.397 173.51,449.164" test="Avatar Lady"/>
      <path id="Layer1_0_3_STROKES" stroke="#FF0" stroke-width="1.693" stroke-linejoin="round" stroke-linecap="round" fill="none" d="M286.63,408.754 Q286.95,414.421 292.177,412.274 292.872,411.962 293.422,411.553 295.343,410.064 295.327,407.276 295.289,404.387 292.433,403.912 M239.159,430.503 Q238.034,432.829 237.833,433.36 237.774,433.621 237.842,434.295 238.287,438.673 244.434,438.049 246.539,437.836 248.556,435.079 250.43,432.592 250.276,431.076 250.233,430.655 247.914,428.764" test="Avatar Lady"/>
      <path id="Layer1_0_4_STROKES" stroke="#FFF" stroke-width="1.693" stroke-linejoin="round" stroke-linecap="round" fill="none" d="M235.677,483.344 L236.219,485.331 Q236.402,487.134 235.312,489.378 234.953,490.189 234.418,491.043 232.964,493.487 232.022,494.264 M237.069,490.348 Q246.188,494.697 256.222,492.147 259.901,491.518 263.664,490.88" test="Avatar Lady"/>
    </g>
  </g>
</svg>