<?xml version="1.0" encoding="utf-8"?>
<svg id="EdithAnim13" image-rendering="inherit" baseProfile="basic" version="1.1" x="0px" y="0px" width="800" height="600" xmlns="http://www.w3.org/2000/svg" xmlns:xlink="http://www.w3.org/1999/xlink">
  <g id="22_Avatarf28r1" overflow="visible">
    <g id="Avatar-Manf0r1">
      <g id="Tailf0r1">
        <path id="Layer3_0_1_STROKES" stroke="#009EFF" stroke-width="2.303" stroke-linejoin="round" stroke-linecap="round" fill="none" d="M650.79,675.842 Q649.628,658.92 648.987,641.989 648.413,625.571 643.079,610.065 637.217,593.176 620.884,585.493 601.035,576.236 598.161,596.936 597.741,599.952 599.713,602.599 604.375,608.959 611.004,613.03 617.933,610.5 623.144,615.279 629.418,621.081 632.179,629.78 638.632,650.308 643.772,671.008 645.224,676.8 644.249,682.676" test="Tail_2.3242325232423263e+312.3242325232423263e+31_2.3242325232423263e+312.3242325232423263e+31_2.3242325232423263e+312.3242325232423263e+31_2.3242325232423263e+312.3242325232423263e+31"/>
      </g>
      <path fill="#000" stroke="none" d="M612.353,589.765 Q608.249,580.553 603.056,579.213 601.884,578.878 587.646,582.981 570.729,587.839 551.55,588.006 531.618,588.174 512.522,581.976 497.196,575.695 495.437,575.863 489.407,578.543 487.732,579.715 484.718,581.725 484.969,584.238 485.136,586.08 485.304,596.214 485.89,606.013 488.737,609.363 491.836,612.964 506.827,620.753 519.222,627.034 531.869,632.394 540.16,635.911 552.639,651.573 559.004,659.529 566.206,668.825 567.714,669.998 566.206,671.673 565.034,672.929 565.201,672.929 L577.094,669.244 Q592.252,664.47 602.554,648.474 611.348,634.739 614.781,616.063 617.545,601.239 612.353,589.765 M617.713,241.281 L614.698,240.025 Q614.654,240.131 614.614,240.193 613.706,242.511 613.106,244.631 611.515,250.326 609.002,259.036 608.946,259.189 608.835,259.288 606.54,265.385 601.8,268.081 591.834,273.776 586.306,276.456 L590.075,284.831 Q589.656,290.945 591.583,331.899 591.653,333.41 591.666,334.83 593.229,366.831 593.425,376.538 593.423,376.601 593.425,376.621 593.453,378.866 593.425,379.888 593.09,393.036 595.519,413.806 595.854,416.738 600.46,414.309 605.066,411.796 604.731,410.038 604.564,408.781 606.49,409.451 608.081,410.038 608.5,410.456 608.584,410.54 614.781,389.1 L619.806,397.475 Q619.89,397.559 622.738,379.05 L627.762,381.144 Q627.86,381.243 627.176,372.35 627.213,372.33 627.176,372.266 626.222,358.595 623.491,323.859 621.835,302.633 620.56,288.684 618.982,270.038 618.131,264.396 617.893,262.751 617.713,262.219 617.893,262.751 618.131,264.396 618.982,270.038 620.56,288.684 L621.9,288.6 Q623.575,288.433 628.516,283.491 632.871,279.304 636.137,280.644 639.069,281.9 656.656,307.36 676.924,333.155 693.506,337.175 678.599,337.678 656.489,354.679 649.621,359.955 642.838,366.32 L641.833,367.241 Q643.025,379.971 646.941,423.521 L647.863,423.438 Q652.218,421.009 682.703,397.056 712.099,373.858 721.563,365.65 728.598,359.536 734.376,349.905 737.308,344.964 740.825,338.85 742.5,336.924 746.101,334.244 749.033,331.564 749.2,327.125 749.368,322.77 717.543,302.251 682.284,280.309 675.5,275.2 655.567,260.209 646.271,254.179 635.196,246.918 627.679,243.71 621.433,241.052 617.713,241.281 M558.166,236.173 Q560.679,235.754 563.024,235.335 566.793,235.335 566.541,239.941 573.744,239.104 576.591,239.941 579.606,240.863 579.522,244.129 L584.213,246.306 Q587.506,239.904 595.519,234.581 600.125,231.483 604.061,230.478 604.123,230.464 604.145,230.394 L603.056,223.694 Q604.313,223.61 601.884,220.679 597.445,215.57 593.844,211.131 588.986,205.101 572.069,199.658 557.245,194.884 549.037,194.8 522.74,194.549 504.65,201.919 493.427,206.525 483.377,220.428 481.451,223.062 479.86,225.453 475.369,232.571 473.997,237.931 L473.997,239.941 Q474.165,239.941 474.919,240.193 475.756,240.36 476.343,240.36 479.357,240.36 482.372,237.931 485.806,235.084 489.072,234.498 L489.072,236.591 492.841,236.591 Q495.354,236.089 500.127,234.665 503.812,233.493 504.566,233.66 L504.566,235.754 Q505.404,235.754 508.754,236.173 514.281,236.173 519.641,233.241 L523.829,233.241 523.829,234.916 530.529,234.916 Q541.584,231.566 542.254,231.566 543.343,231.566 544.348,232.32 545.52,233.158 547.698,233.241 547.698,235.335 547.279,236.173 L558.166,236.173Z" test="Avatar Man" stroke-width="1.675"/>
      <path id="Layer2_0_1_STROKES" stroke="#009EFF" stroke-width="1.675" stroke-linejoin="round" stroke-linecap="round" fill="none" d="M579.522,244.129 Q579.606,240.863 576.591,239.941 573.744,239.104 566.541,239.941 566.793,235.335 563.024,235.335 560.679,235.754 558.166,236.173 L547.279,236.173 Q547.698,235.335 547.698,233.241 545.52,233.158 544.348,232.32 543.343,231.566 542.254,231.566 541.584,231.566 530.529,234.916 L523.829,234.916 523.829,233.241 519.641,233.241 Q514.281,236.173 508.754,236.173 505.404,235.754 504.566,235.754 L504.566,233.66 Q503.812,233.493 500.127,234.665 495.354,236.089 492.841,236.591 L489.072,236.591 489.072,234.498 Q485.806,235.084 482.372,237.931 479.357,240.36 476.343,240.36 475.756,240.36 474.919,240.193 474.165,239.941 473.997,239.941 L473.997,237.931 Q475.369,232.571 479.902,225.494 481.451,223.062 483.377,220.428 493.427,206.525 504.65,201.919 522.74,194.549 549.037,194.8 557.245,194.884 572.069,199.658 588.986,205.101 593.844,211.131 597.445,215.57 601.884,220.679 604.313,223.61 603.056,223.694 M604.187,230.436 Q604.249,230.442 604.313,230.436 606.845,229.876 612.269,229.556 616.205,229.389 618.634,227.797 619.974,226.96 621.9,225.369 622.654,224.95 619.555,230.31 618.131,232.739 616.959,235.084 616.242,236.492 615.661,237.848 615.522,238.127 615.409,238.392 615.165,238.914 614.949,239.439 614.818,239.734 614.698,240.025 M617.713,241.281 Q621.433,241.052 627.721,243.752 635.196,246.918 646.271,254.179 655.567,260.209 675.5,275.2 682.284,280.309 717.543,302.251 749.368,322.77 749.2,327.125 749.033,331.564 746.101,334.244 742.5,336.924 740.825,338.85 737.308,344.964 734.376,349.905 728.598,359.536 721.563,365.65 712.099,373.858 682.703,397.056 652.218,421.009 647.863,423.438 647.429,423.721 647.025,423.982 642.151,427.144 639.99,428.379 636.137,430.64 632.787,430.138 M616.959,235.084 Q615.654,236.514 614.572,237.345 613.478,238.142 612.604,238.35 609.421,238.601 605.569,239.188 600.627,239.941 597.948,241.784 594.346,244.883 590.912,247.563 586.641,250.913 583.961,252.504 L582.119,253.425 Q582.522,249.73 584.254,246.348 M578.685,244.129 L579.522,244.129 M584.254,246.348 Q587.506,239.904 595.519,234.581 600.125,231.483 604.061,230.478 604.123,230.464 604.187,230.436 M614.698,240.025 Q614.654,240.131 614.614,240.234 613.706,242.511 613.106,244.631 611.515,250.326 609.002,259.036 608.946,259.189 608.877,259.329 606.54,265.385 601.8,268.081 591.834,273.776 586.306,276.456 M590.075,284.831 Q589.656,290.945 591.583,331.899 591.653,333.41 591.708,334.872 593.229,366.831 593.425,376.538 593.423,376.601 593.425,376.663 593.453,378.866 593.425,379.888 593.09,393.036 595.519,413.806 595.854,416.738 600.46,414.309 605.066,411.796 604.731,410.038 604.564,408.781 606.49,409.451 608.081,410.038 608.5,410.456 608.584,410.54 614.781,389.1 L619.806,397.475 Q619.89,397.559 622.738,379.05 L627.762,381.144 Q627.86,381.243 627.218,372.392 627.213,372.33 627.218,372.266 626.222,358.595 623.491,323.859 621.835,302.633 620.602,288.684 618.982,270.038 618.131,264.396 617.893,262.751 617.713,262.219 M641.833,367.283 L642.838,366.32 Q649.621,359.955 656.489,354.679 678.599,337.678 693.506,337.175 676.924,333.155 656.656,307.36 639.069,281.9 636.137,280.644 632.871,279.304 628.516,283.491 623.575,288.433 621.9,288.6 M527.681,281.9 Q528.658,282.057 530.696,282.151 533.021,282.235 536.726,282.235 543.259,282.151 546.106,281.9 551.382,281.398 552.053,281.23 555.402,280.309 555.738,277.713 M576.675,348.9 Q577.512,354.344 579.439,362.216 581.784,371.68 583.794,376.538 M483.294,346.388 Q483.294,346.471 483.629,355.014 483.88,361.128 486.225,365.231 486.979,366.548 488.109,367.828 491.54,371.658 498.452,375.114 508,379.971 517.213,380.306 L520.604,380.558 520.73,380.558 Q529.608,380.893 532.287,380.725 536.894,380.39 542.338,378.631 546.358,377.375 557.161,367.66 564.839,360.685 572.99,352.166 573.096,352.064 573.199,351.957 573.263,351.897 573.325,351.831 573.41,351.751 573.493,351.664 574.779,350.299 576.089,348.9 576.174,348.81 576.256,348.733 576.29,348.684 576.34,348.649 576.353,348.6 576.382,348.565 586.243,338.051 587.563,335.081 M520.563,381.144 Q519.809,384.745 518.385,392.953 516.961,400.071 514.7,403.756 M637.394,371.513 L641.833,367.283 M628.181,438.094 Q628.098,438.261 619.639,460.288 613.609,475.949 611.431,484.994 608.751,495.965 606.406,528.628 604.061,560.453 605.15,567.488 M556.91,481.141 Q557.412,482.984 559.088,483.486 559.59,483.654 560.93,483.654 563.108,483.654 563.945,482.649 564.28,482.314 565.62,479.215 M523.41,468.998 Q523.242,484.24 524.331,486.585 526.09,490.773 535.973,490.773 540.746,490.773 541.165,490.689 541.667,490.605 543.51,489.516 M524.666,520.504 Q523.829,523.016 523.829,525.78 523.829,530.386 527.514,530.638 529.943,530.721 537.647,530.554 M521.735,555.26 Q526.006,558.191 528.77,558.861 530.78,559.28 534.297,558.61 M564.531,673.431 Q558.25,676.363 541.416,679.545 524.415,682.728 506.325,684.319 490.664,685.743 453.814,684.989 426.009,684.486 410.012,683.481 397.701,682.728 372.744,680.131 366.546,679.461 361.94,680.466 358.674,681.22 357.669,680.55 M478.269,224.531 Q475.086,222.605 471.317,220.595 463.78,216.659 461.519,216.994 459.09,217.329 461.1,229.305 462.775,239.523 464.45,243.794 M468.637,255.1 Q469.307,257.864 471.066,263.391 472.071,267.83 469.475,269.756 466.277,272.14 463.236,274.363 L463.194,274.404 Q417.498,308.335 411.687,310.375 406.579,311.883 405.323,312.301 403.564,312.971 403.312,314.563 402.894,317.829 402.726,329.051 402.475,341.949 403.312,344.713 406.16,356.103 428.102,388.514 449.626,420.255 462.356,432.65 M470.312,283.994 Q472.909,285.334 478.101,286.004 478.312,286.036 478.52,286.046 483.421,286.747 488.319,286.506 491.417,286.339 498.62,285.166 504.482,284.161 506.325,284.413 M469.894,305.769 Q468.889,307.444 458.085,318.248 448.286,328.046 445.606,330.475 M490.329,325.366 Q494.097,325.366 498.285,324.529 L514.616,324.529 Q509.591,329.889 506.744,332.736 501.468,337.929 500.211,337.929 497.95,337.929 494.6,333.239 491.166,327.879 489.91,326.623 M436.394,325.869 Q437.831,329.341 440.916,333.741 440.95,333.79 441,333.825 448.678,344.836 466.544,361.63 474.843,369.424 480.949,375.365 495.077,389.07 497.531,392.869 M469.475,456.1 Q468.889,469.416 471.569,475.781 473.244,479.634 478.352,483.989 483.629,488.26 488.319,489.6 M483.713,497.138 Q483.796,499.734 483.377,510.454 483.21,520.504 484.55,523.1 486.141,526.199 490.077,528.795 493.93,531.308 496.275,531.056 M489.575,534.406 Q489.659,537.17 489.659,541.441 489.826,544.624 491.25,546.55 491.417,546.801 495.94,549.9 498.955,551.994 498.787,555.763 498.62,558.61 496.861,565.645 495.354,571.508 495.856,573.35 M475.338,585.494 Q455.74,581.893 432.039,578.208 384.72,570.921 364.871,570.921 351.639,570.921 336.564,568.158 324.671,565.98 322.159,566.734 317.804,568.074 313.7,574.941 309.596,581.893 309.931,587.588 310.182,591.44 311.522,601.658 312.611,610.786 311.606,614.388 M474.919,609.781 Q467.214,611.038 431.704,611.791 393.179,612.629 386.981,613.131 380.114,613.718 358.255,617.235 338.406,620.418 330.45,620.669 320.986,621.004 312.611,619.831 308.256,619.245 301.975,617.738 298.709,616.984 295.359,619.245 293.6,620.501 289.412,624.856 284.639,629.798 288.994,640.35 289.831,642.444 288.407,654.42 286.816,666.48 287.737,668.825 L290.669,675.944 Q293.935,684.905 295.275,694.369 M354.319,668.825 Q355.491,672.594 357.669,683.398 360.014,694.955 359.762,697.3" test="Avatar Man"/>
      <path id="Layer2_0_2_STROKES" stroke="#FF0" stroke-width="1.675" stroke-linejoin="round" stroke-linecap="round" fill="none" d="M530.529,285.166 Q529.691,289.856 531.366,293.29 533.125,296.891 536.391,296.891 537.731,296.891 539.574,295.886 541.667,294.714 542.254,293.123 M478.185,288.935 Q477.347,294.798 477.347,295.216 477.347,296.92 478.604,298.734 479.272,299.682 480.279,300.66 483.377,303.591 486.56,303.591 488.235,303.591 489.324,301.916 489.994,300.995 491.166,298.985" test="Avatar Man"/>
      <path id="Layer2_0_3_STROKES" stroke="#FFF" stroke-width="1.675" stroke-linejoin="round" stroke-linecap="round" fill="none" d="M559.841,330.81 Q565.453,333.071 565.704,336.84 565.72,337.078 565.746,337.343 565.741,337.406 565.746,337.468 L565.746,337.594 Q565.777,339.773 565.285,343.791 M552.304,345.885 Q557.823,344.568 561.181,340.525 562.307,339.172 563.191,337.51" test="Avatar Man"/>
      <path id="Layer2_0_4_STROKES" stroke="#F90" stroke-width="1.675" stroke-linejoin="round" stroke-linecap="round" fill="none" d="M495.437,575.863 Q497.196,575.695 512.522,581.976 531.618,588.174 551.55,588.006 570.729,587.839 587.646,582.981 601.884,578.878 603.056,579.213 608.249,580.553 612.353,589.765 617.545,601.239 614.781,616.063 611.348,634.739 602.554,648.474 592.252,664.47 577.094,669.244 L565.201,672.929 Q565.034,672.929 566.206,671.673 567.714,669.998 566.206,668.825 559.004,659.529 552.639,651.573 540.16,635.911 531.869,632.394 519.222,627.034 506.827,620.753 491.836,612.964 488.737,609.363 485.89,606.013 485.304,596.214 485.136,586.08 484.969,584.238 484.718,581.725 487.732,579.715 489.407,578.543 495.437,575.863Z" test="Avatar Man"/>
    </g>
    <g id="Avatar-Lady">
      <path fill="#000" stroke="none" d="M251.593,490.526 Q247.881,490.061 244.763,490.284 236.621,491.366 233.169,491.716 227.527,492.289 221.394,490.53 217.746,489.794 212.479,487.352 202.029,482.458 192.441,473.479 182.972,464.613 176.073,453.874 L174.408,455.064 Q174.628,461.421 172.411,476.448 170.775,487.871 171.195,496.308 171.269,497.879 171.418,499.347 171.726,502.379 173.888,516.961 176.025,538.011 174.277,545.93 173.115,551.237 171.338,557.202 170.343,561.642 170.959,567.704 171.302,571.08 172.486,575.205 L172.495,575.289 Q173.586,579.105 175.379,583.588 179.048,592.913 179.535,597.713 179.792,600.239 179.114,602.775 178.741,604.131 178.216,604.822 L179.784,606.024 Q180.016,607.94 180.104,611.691 180.113,611.879 180.138,612.028 180.265,617.21 180.168,625.721 L180.176,625.805 Q180.144,629.21 180.069,633.132 L183.761,635.139 Q186.017,631.289 191.844,623.43 200.005,612.478 201.911,608.626 L202.246,607.742 Q205.49,603.669 207.971,595.421 210.784,584.587 212.811,577.746 213.252,576.226 213.615,574.772 213.816,574.253 213.933,573.718 214.014,573.605 213.992,573.457 214.064,573.392 214.059,573.28 L214.059,573.28 Q218.071,559.648 220.653,551.089 225.981,533.194 229.152,525.045 230.609,521.246 232.702,517.284 233.535,515.682 234.415,514.047 L234.634,513.685 234.709,513.592 Q236.998,509.789 239.793,505.845 246.263,496.681 251.377,492.589 L251.593,490.526 M216.022,342.121 L214.184,329.888 213.763,329.93 Q204.332,330.888 198.835,332.042 187.765,334.442 179.224,339.137 171.021,343.798 163.654,350.841 160.863,353.478 158.172,356.332 158.174,356.372 158.096,356.425 157.909,356.658 157.634,356.897 153.666,361.363 150.002,366.349 143.716,374.813 141.539,383.541 139.355,392.185 139.386,401.709 L139.281,404.867 Q141.98,404.956 145.261,405.111 150.651,405.414 158.43,409.133 158.832,409.346 164.018,412.224 164.067,412.236 164.102,412.215 165.862,413.246 168.164,414.525 165.862,413.246 164.102,412.215 164.067,412.236 164.018,412.224 158.832,409.346 158.43,409.133 150.651,405.414 145.261,405.111 141.98,404.956 139.281,404.867 L137.724,416.34 Q139.477,416.548 141.346,416.823 155.497,418.788 160.86,417.989 155.497,418.788 141.346,416.823 139.477,416.548 137.724,416.34 137.551,416.311 137.379,416.29 125.644,414.795 119.365,415.652 L115.263,420.492 Q117.587,422.478 122.767,426.535 129.657,431.893 133.92,434.165 134.745,434.556 135.437,434.862 141.319,437.497 147.878,436.746 152.669,436.174 159.626,436.829 165.117,437.292 166.741,436.532 L172.191,437.424 170.964,444.61 175.963,453.63 Q176.051,453.767 176.073,453.874 182.972,464.613 192.441,473.479 202.029,482.458 212.479,487.352 217.746,489.794 221.394,490.53 227.527,492.289 233.169,491.716 236.621,491.366 244.763,490.284 247.881,490.061 251.593,490.526 L251.677,490.517 Q254.58,490.947 257.843,491.763 267.784,494.156 270.707,494.455 276.99,495.178 280.499,493.715 282.124,492.955 286.363,489.462 288.953,487.328 290.297,479.62 291.689,469.866 292.767,464.567 293.979,458.915 299.528,447.378 300.259,445.85 300.93,444.428 305.476,434.757 307.123,430.018 307.304,429.506 307.45,429.049 309.956,421.053 306.699,411.601 304.17,404.287 299.784,399.628 L293.38,391.857 Q292.872,392.262 292.177,392.574 286.95,394.721 286.63,389.054 L281.861,387.327 266.508,391.948 Q266.629,392.368 266.762,392.773 266.516,392.535 266.205,392.319 263.456,389.713 259.326,387.403 250.232,382.457 242.538,384.6 235.097,386.716 222.899,395.611 211.241,404.686 205.344,408.708 204.556,409.32 203.838,409.796 199.859,412.497 185.531,421.353 184.093,422.248 182.805,422.991 179.081,425.404 176.739,426.925 174.276,428.697 173.51,429.464 174.276,428.697 176.739,426.925 179.081,425.404 182.805,422.991 184.093,422.248 185.531,421.353 199.859,412.497 203.838,409.796 204.556,409.32 205.344,408.708 211.241,404.686 222.899,395.611 235.097,386.716 242.538,384.6 250.232,382.457 259.326,387.403 263.456,389.713 266.205,392.319 L266.508,391.948 Q266.443,391.744 266.381,391.536 265.355,388.254 264.467,384.414 262.457,375.516 263.361,371.852 264.081,368.886 270.854,365.221 276.887,361.801 276.278,359.991 274.595,355.143 266.466,347.972 L258.692,341.786 Q246.457,351.721 235.293,361.006 223.617,370.827 213.14,379.929 195.513,395.67 189.079,401.002 181.54,407.261 175.368,410.901 173.319,412.155 171.421,413.088 173.319,412.155 175.368,410.901 181.54,407.261 189.079,401.002 195.513,395.67 213.14,379.929 223.617,370.827 235.293,361.006 L229.092,353.554 Q228.232,352.62 223.088,348.039 217.48,343.079 216.022,342.121 M252.551,401.107 Q251.244,399.964 247.226,399.776 244.182,399.634 235.538,405.301 232.766,407.158 229.422,409.58 215.635,419.572 213.277,419.812 215.635,419.572 229.422,409.58 232.766,407.158 235.538,405.301 244.182,399.634 247.226,399.776 251.244,399.964 252.551,401.107 253.858,402.25 258.055,404.206 253.858,402.25 252.551,401.107 M248.556,415.379 Q250.43,412.892 250.276,411.376 250.233,410.955 247.914,409.064 250.233,410.955 250.276,411.376 250.43,412.892 248.556,415.379 246.539,418.136 244.434,418.349 238.287,418.973 237.842,414.595 237.774,413.921 237.833,413.66 238.034,413.129 239.159,410.803 238.034,413.129 237.833,413.66 237.774,413.921 237.842,414.595 238.287,418.973 244.434,418.349 246.539,418.136 248.556,415.379 M235.265,469.641 Q234.953,470.489 234.418,471.343 232.964,473.787 232.022,474.564 232.964,473.787 234.418,471.343 234.953,470.489 235.265,469.641 236.402,467.434 236.219,465.631 L235.677,463.644 236.219,465.631 Q236.402,467.434 235.265,469.641 M273.945,436.705 Q276.077,436.488 278.801,435.106 281.753,433.715 285.364,431.037 290.514,427.135 291.62,424.787 292.05,424.001 291.988,423.388 291.92,422.715 290.005,420.612 288.174,418.501 287.475,418.317 288.174,418.501 290.005,420.612 291.92,422.715 291.988,423.388 292.05,424.001 291.62,424.787 290.514,427.135 285.364,431.037 281.753,433.715 278.801,435.106 276.077,436.488 273.945,436.705 270.661,437.038 268.232,434.903 264.395,431.464 264.126,431.322 264.395,431.464 268.232,434.903 270.661,437.038 273.945,436.705 M293.553,438.797 Q293.484,438.123 292.363,437.131 293.484,438.123 293.553,438.797 293.664,439.892 293.337,440.86 293.01,441.829 292.245,442.673 290.631,444.368 288.189,444.616 287.263,444.71 285.249,444.149 283.32,443.579 282.055,442.857 283.32,443.579 285.249,444.149 287.263,444.71 288.189,444.616 290.631,444.368 292.245,442.673 293.01,441.829 293.337,440.86 293.664,439.892 293.553,438.797 M256.222,472.447 Q259.901,471.818 263.664,471.18 259.901,471.818 256.222,472.447 246.188,474.997 237.069,470.648 246.188,474.997 256.222,472.447 M191.057,372.728 Q186.731,368.659 180.345,366.926 174.043,365.184 168.731,366.489 174.043,365.184 180.345,366.926 186.731,368.659 191.057,372.728Z" test="Avatar Lady" stroke-width="1.693"/>
      <path id="Layer1_0_1_STROKES" stroke="#009EFF" stroke-width="1.693" stroke-linejoin="round" stroke-linecap="round" fill="none" d="M281.861,387.327 Q280.449,383.472 283.41,381.64 286.279,379.733 289.048,378.516 M256.656,337.654 Q256.832,336.871 256.789,336.45 256.703,335.608 253.378,330.501 249.453,324.52 248.828,323.392 246.531,319.202 241.957,318.561 237.283,318.61 235.606,318.014 236.071,319.243 236.49,323.369 L236.938,329.449 Q236.694,329.558 234.773,329.073 232.684,328.605 231.757,328.699 228.474,329.032 226.688,329.043 222.427,328.965 217.712,329.444 L214.184,329.888 M216.022,342.121 Q217.48,343.079 223.088,348.039 228.232,352.62 229.092,353.554 M235.606,318.014 Q235.594,317.931 235.514,317.939 L235.488,317.686 Q235.587,317.845 235.606,318.014Z M213.763,329.93 Q213.746,329.762 213.83,329.753 214.008,329.9 214.184,329.888 L213.763,329.93 Q204.332,330.888 198.835,332.042 187.765,334.442 179.224,339.137 171.021,343.798 163.654,350.841 160.863,353.478 158.214,356.328 158.174,356.372 158.139,356.42 157.909,356.658 157.676,356.893 153.666,361.363 150.002,366.349 143.716,374.813 141.539,383.541 139.355,392.185 139.386,401.709 M139.286,404.91 Q141.98,404.956 145.261,405.111 150.651,405.414 158.43,409.133 158.832,409.346 164.018,412.224 164.067,412.236 164.106,412.257 165.862,413.246 168.164,414.525 M258.055,404.206 Q253.858,402.25 252.551,401.107 251.244,399.964 247.226,399.776 244.182,399.634 235.542,405.344 232.766,407.158 229.422,409.58 215.635,419.572 213.277,419.812 M264.126,431.322 Q264.395,431.464 268.232,434.903 270.661,437.038 273.945,436.705 276.077,436.488 278.848,435.143 281.753,433.715 285.364,431.037 290.514,427.135 291.662,424.783 292.05,424.001 291.988,423.388 291.92,422.715 290.005,420.612 288.174,418.501 287.475,418.317 M299.784,399.628 Q304.17,404.287 306.699,411.601 309.956,421.053 307.45,429.049 307.304,429.506 307.123,430.018 305.476,434.757 300.93,444.428 300.259,445.85 299.528,447.378 293.979,458.915 292.767,464.567 291.689,469.866 290.297,479.62 288.953,487.328 286.363,489.462 282.124,492.955 280.499,493.715 276.99,495.178 270.707,494.455 267.784,494.156 257.843,491.763 254.58,490.947 251.681,490.559 L251.597,490.568 M251.377,492.589 Q246.263,496.681 239.793,505.845 236.998,509.789 234.752,513.588 L234.676,513.681 234.458,514.043 Q233.535,515.682 232.702,517.284 230.609,521.246 229.152,525.045 225.981,533.194 220.653,551.089 218.071,559.648 214.101,573.276 L214.063,573.322 Q214.064,573.392 214.034,573.453 214.014,573.605 213.98,573.756 213.816,574.253 213.657,574.767 213.252,576.226 212.811,577.746 210.784,584.587 207.971,595.421 205.49,603.669 202.246,607.742 M201.911,608.626 Q200.005,612.478 191.844,623.43 186.017,631.289 183.765,635.181 183.055,636.443 182.703,637.288 M282.055,442.857 Q283.32,443.579 285.249,444.149 287.263,444.71 288.189,444.616 290.631,444.368 292.245,442.673 293.01,441.829 293.337,440.86 293.664,439.892 293.553,438.797 293.484,438.123 292.363,437.131 M251.597,490.568 Q247.881,490.061 244.763,490.284 236.621,491.366 233.169,491.716 227.527,492.289 221.394,490.53 217.746,489.794 212.479,487.352 202.029,482.458 192.441,473.479 182.972,464.613 176.12,453.912 M174.408,455.064 Q174.628,461.421 172.411,476.448 170.775,487.871 171.195,496.308 171.269,497.879 171.418,499.347 171.726,502.379 173.888,516.961 176.025,538.011 174.277,545.93 173.115,551.237 171.338,557.202 170.343,561.642 170.959,567.704 171.302,571.08 172.49,575.247 L172.495,575.289 Q173.586,579.105 175.379,583.588 179.048,592.913 179.535,597.713 179.792,600.239 179.114,602.775 178.741,604.131 178.22,604.865 M179.784,606.024 Q180.016,607.94 180.108,611.733 180.113,611.879 180.138,612.028 180.265,617.21 180.172,625.763 L180.176,625.805 Q180.144,629.21 180.069,633.132 M230.124,527.073 L230.106,531.924 Q230.191,532.766 231.123,536.074 232.054,539.382 232.14,540.224 232.225,541.066 233.53,546.378 234.751,551.699 234.836,552.541 235.555,559.613 228.292,590.295 220.945,620.985 221.586,627.3 222.21,633.447 232.951,647.073 241.347,657.704 251.653,667.887 259.117,675.21 278.271,710.525 278.382,711.62 279.081,711.804 279.688,711.913 279.712,711.315 M194.641,667.721 Q196.865,668.686 208.897,678.268 221.781,688.699 222.029,691.141 222.337,694.172 244.606,707.394 266.875,720.615 267.217,723.983 267.32,724.993 267.648,724.875 267.976,724.756 267.993,724.925 L268.607,724.267 M191.057,372.728 Q186.731,368.659 180.345,366.926 174.043,365.184 168.731,366.489 M139.286,404.91 Q139.203,404.928 139.117,404.927 139.03,404.925 138.949,404.944 134.854,404.858 132.157,405.08 124.899,405.647 119.875,408.114 113.64,411.214 112.933,411.796 111.756,412.767 112.079,415.116 112.504,417.625 113.947,419.265 114.343,419.663 115.073,420.299 115.165,420.371 115.258,420.45 L115.305,420.488 M119.365,415.652 Q125.644,414.795 137.379,416.29 137.551,416.311 137.724,416.34 M115.305,420.488 Q117.587,422.478 122.767,426.535 129.657,431.893 133.962,434.161 134.745,434.556 135.437,434.862 141.319,437.497 147.878,436.746 152.669,436.174 159.626,436.829 165.117,437.292 166.741,436.532 M170.964,444.61 L175.963,453.63 Q176.051,453.767 176.12,453.912 M130.788,440.183 Q128.326,443.58 127.688,461.594 127.414,469.789 127.358,471.751 127.372,475.237 127.765,479.11 128.244,483.826 131.249,494.154 134.17,504.491 134.769,510.385 134.831,510.998 134.897,511.648 135.114,514.457 135.109,517.921 135.112,523.6 134.527,531.039 134.117,536.254 133.42,542.337 130.985,563.597 132.729,580.773 133.011,583.552 135.189,592.433 137.316,600.809 137.31,602.426 M137.724,416.34 Q139.477,416.548 141.346,416.823 155.497,418.788 160.86,417.989 M152.877,456.655 L153.259,458.742 Q153.456,460.679 152.723,466.028 151.998,471.461 152.275,475.856 152.518,480.765 153.356,489.017 153.45,489.943 154.086,492.856 154.73,495.853 154.842,496.948 154.848,497.008 154.854,497.074 155.069,499.339 154.919,503.575 154.834,508.603 154.205,509.943 153.541,510.946 152.357,513.533 151.514,515.277 151.12,516.423 150.726,517.569 150.781,518.116 M156.881,553.056 Q156.95,553.729 156.64,560.736 156.247,567.752 156.349,568.762 156.537,570.615 158.575,575.597 159.56,578.112 160.084,579.569 160.571,581.012 160.613,581.43 160.904,584.292 159.001,589.845 157.29,594.783 155.786,596.722 M134.897,511.648 Q130.158,512.725 125.156,518.762 120.516,524.303 119.674,530.122 119.433,531.819 119.511,533.542 119.722,538.965 121.307,595.629 123.017,651.005 123.531,656.908 123.933,660.865 124.036,667.745 124.061,668.755 124.103,669.652 L124.111,669.737 Q124.317,672.616 124.872,674.296 125.362,675.777 165.353,723.608 205.039,770.959 205.465,774.319 M117.619,529.991 Q109.955,534.937 102.223,539.21 91.183,545.265 84.827,546.336 71.549,547.94 56.022,549.176 25.043,551.556 13.882,549.712 M178.22,604.865 Q177.737,605.552 177.105,605.616 M180.069,633.132 L180.074,633.174 Q180.059,635.124 180.017,637.221 179.79,648.422 179.316,663.408 179.245,666.903 189.939,682.575 203.114,701.739 206.096,707.646 226.453,748.113 228.781,766.847 M28.892,650.61 Q35.57,651.038 52.419,655.281 70.76,659.969 80.914,664.468 94.718,670.552 98.298,671.464 105.729,673.432 114.972,671.473 118.719,670.667 121.858,669.753" test="Avatar Lady"/>
      <path id="Layer1_0_2_STROKES" stroke="#FFBC00" stroke-width="1.693" stroke-linejoin="round" stroke-linecap="round" fill="none" d="M235.335,361.001 Q246.457,351.721 258.692,341.786 L266.466,347.972 Q274.595,355.143 276.278,359.991 276.887,361.801 270.854,365.221 264.081,368.886 263.361,371.852 262.457,375.516 264.467,384.414 265.355,388.254 266.381,391.536 266.443,391.744 266.508,391.948 M171.421,413.088 Q173.319,412.155 175.372,410.943 181.54,407.261 189.079,401.002 195.513,395.67 213.14,379.929 223.617,370.827 235.335,361.001 M266.247,392.315 Q266.516,392.535 266.762,392.773 266.629,392.368 266.508,391.948 M266.247,392.315 Q263.456,389.713 259.326,387.403 250.232,382.457 242.538,384.6 235.097,386.716 222.899,395.611 211.241,404.686 205.39,408.745 204.556,409.32 203.838,409.796 199.859,412.497 185.531,421.353 184.093,422.248 182.809,423.033 179.081,425.404 176.786,426.962 174.276,428.697 173.51,429.464" test="Avatar Lady"/>
      <path id="Layer1_0_3_STROKES" stroke="#FF0" stroke-width="1.693" stroke-linejoin="round" stroke-linecap="round" fill="none" d="M286.63,389.054 Q286.95,394.721 292.177,392.574 292.872,392.262 293.422,391.853 295.343,390.364 295.327,387.576 295.289,384.687 292.433,384.212 M239.159,410.803 Q238.034,413.129 237.833,413.66 237.774,413.921 237.842,414.595 238.287,418.973 244.434,418.349 246.539,418.136 248.556,415.379 250.43,412.892 250.276,411.376 250.233,410.955 247.914,409.064" test="Avatar Lady"/>
      <path id="Layer1_0_4_STROKES" stroke="#FFF" stroke-width="1.693" stroke-linejoin="round" stroke-linecap="round" fill="none" d="M235.677,463.644 L236.219,465.631 Q236.402,467.434 235.312,469.678 234.953,470.489 234.418,471.343 232.964,473.787 232.022,474.564 M237.069,470.648 Q246.188,474.997 256.222,472.447 259.901,471.818 263.664,471.18" test="Avatar Lady"/>
    </g>
  </g>
</svg>