<?xml version="1.0" encoding="utf-8"?>
<svg id="EdithAnim13" image-rendering="inherit" baseProfile="basic" version="1.1" x="0px" y="0px" width="800" height="600" xmlns="http://www.w3.org/2000/svg" xmlns:xlink="http://www.w3.org/1999/xlink">
  <g id="22_Avatarf32r1" overflow="visible">
    <g id="Avatar-Manf0r1">
      <g id="Tailf0r1">
        <path id="Layer3_0_1_STROKES" stroke="#009EFF" stroke-width="2.303" stroke-linejoin="round" stroke-linecap="round" fill="none" d="M650.79,646.742 Q649.628,629.82 648.987,612.889 648.413,596.471 643.079,580.965 637.217,564.076 620.884,556.393 601.035,547.136 598.161,567.836 597.741,570.852 599.713,573.499 604.375,579.859 611.004,583.93 617.933,581.4 623.144,586.179 629.418,591.981 632.179,600.68 638.632,621.208 643.772,641.908 645.224,647.7 644.249,653.576" test="Tail_2.3242325232423263e+312.3242325232423263e+31_2.3242325232423263e+312.3242325232423263e+31_2.3242325232423263e+312.3242325232423263e+31_2.3242325232423263e+312.3242325232423263e+31_23242324"/>
      </g>
      <path fill="#000" stroke="none" d="M612.353,560.665 Q608.249,551.453 603.056,550.113 601.884,549.777 587.646,553.881 570.729,558.739 551.55,558.906 531.618,559.074 512.522,552.876 497.196,546.595 495.437,546.763 489.407,549.443 487.732,550.615 484.718,552.625 484.969,555.138 485.136,556.98 485.304,567.114 485.89,576.913 488.737,580.263 491.836,583.864 506.827,591.652 519.222,597.934 531.869,603.294 540.16,606.811 552.639,622.473 559.004,630.429 566.206,639.725 567.714,640.898 566.206,642.573 565.034,643.829 565.201,643.829 L577.094,640.144 Q592.252,635.37 602.554,619.374 611.348,605.639 614.781,586.963 617.545,572.139 612.353,560.665 M617.713,212.181 L614.698,210.925 Q614.654,211.031 614.614,211.092 613.706,213.411 613.106,215.531 611.515,221.226 609.002,229.936 608.946,230.089 608.835,230.187 606.54,236.284 601.8,238.981 591.834,244.676 586.306,247.356 L590.075,255.731 Q589.656,261.845 591.583,302.799 591.653,304.31 591.666,305.73 593.229,337.731 593.425,347.438 593.423,347.501 593.425,347.521 593.453,349.766 593.425,350.787 593.09,363.936 595.519,384.706 595.854,387.638 600.46,385.209 605.066,382.696 604.731,380.938 604.564,379.681 606.49,380.351 608.081,380.938 608.5,381.356 608.584,381.44 614.781,360 L619.806,368.375 Q619.89,368.459 622.738,349.95 L627.762,352.044 Q627.86,352.143 627.176,343.25 627.213,343.23 627.176,343.166 626.222,329.495 623.491,294.759 621.835,273.533 620.56,259.584 618.982,240.938 618.131,235.296 617.893,233.651 617.713,233.119 617.893,233.651 618.131,235.296 618.982,240.938 620.56,259.584 L621.9,259.5 Q623.575,259.332 628.516,254.391 632.871,250.204 636.137,251.544 639.069,252.8 656.656,278.26 676.924,304.055 693.506,308.075 678.599,308.578 656.489,325.579 649.621,330.855 642.838,337.22 L641.833,338.141 Q643.025,350.871 646.941,394.421 L647.863,394.338 Q652.218,391.909 682.703,367.956 712.099,344.758 721.563,336.55 728.598,330.436 734.376,320.805 737.308,315.864 740.825,309.75 742.5,307.824 746.101,305.144 749.033,302.464 749.2,298.025 749.368,293.67 717.543,273.151 682.284,251.209 675.5,246.1 655.567,231.109 646.271,225.079 635.196,217.818 627.679,214.61 621.433,211.952 617.713,212.181 M558.166,207.073 Q560.679,206.654 563.024,206.235 566.793,206.235 566.541,210.841 573.744,210.004 576.591,210.841 579.606,211.763 579.522,215.029 L584.213,217.206 Q587.506,210.804 595.519,205.481 600.125,202.383 604.061,201.378 604.123,201.364 604.145,201.294 L603.056,194.594 Q604.313,194.51 601.884,191.579 597.445,186.47 593.844,182.031 588.986,176.001 572.069,170.558 557.245,165.784 549.037,165.7 522.74,165.449 504.65,172.819 493.427,177.425 483.377,191.328 481.451,193.962 479.86,196.353 475.369,203.471 473.997,208.831 L473.997,210.841 Q474.165,210.841 474.919,211.092 475.756,211.26 476.343,211.26 479.357,211.26 482.372,208.831 485.806,205.984 489.072,205.397 L489.072,207.491 492.841,207.491 Q495.354,206.989 500.127,205.565 503.812,204.392 504.566,204.56 L504.566,206.654 Q505.404,206.654 508.754,207.073 514.281,207.073 519.641,204.141 L523.829,204.141 523.829,205.816 530.529,205.816 Q541.584,202.466 542.254,202.466 543.343,202.466 544.348,203.22 545.52,204.058 547.698,204.141 547.698,206.235 547.279,207.073 L558.166,207.073Z" test="Avatar Man" stroke-width="1.675"/>
      <path id="Layer2_0_1_STROKES" stroke="#009EFF" stroke-width="1.675" stroke-linejoin="round" stroke-linecap="round" fill="none" d="M579.522,215.029 Q579.606,211.763 576.591,210.841 573.744,210.004 566.541,210.841 566.793,206.235 563.024,206.235 560.679,206.654 558.166,207.073 L547.279,207.073 Q547.698,206.235 547.698,204.141 545.52,204.058 544.348,203.22 543.343,202.466 542.254,202.466 541.584,202.466 530.529,205.816 L523.829,205.816 523.829,204.141 519.641,204.141 Q514.281,207.073 508.754,207.073 505.404,206.654 504.566,206.654 L504.566,204.56 Q503.812,204.392 500.127,205.565 495.354,206.989 492.841,207.491 L489.072,207.491 489.072,205.397 Q485.806,205.984 482.372,208.831 479.357,211.26 476.343,211.26 475.756,211.26 474.919,211.092 474.165,210.841 473.997,210.841 L473.997,208.831 Q475.369,203.471 479.902,196.394 481.451,193.962 483.377,191.328 493.427,177.425 504.65,172.819 522.74,165.449 549.037,165.7 557.245,165.784 572.069,170.558 588.986,176.001 593.844,182.031 597.445,186.47 601.884,191.579 604.313,194.51 603.056,194.594 M604.187,201.336 Q604.249,201.342 604.313,201.336 606.845,200.776 612.269,200.456 616.205,200.289 618.634,198.697 619.974,197.86 621.9,196.269 622.654,195.85 619.555,201.21 618.131,203.639 616.959,205.984 616.242,207.392 615.661,208.747 615.522,209.027 615.409,209.292 615.165,209.814 614.949,210.339 614.818,210.634 614.698,210.925 M617.713,212.181 Q621.433,211.952 627.721,214.652 635.196,217.818 646.271,225.079 655.567,231.109 675.5,246.1 682.284,251.209 717.543,273.151 749.368,293.67 749.2,298.025 749.033,302.464 746.101,305.144 742.5,307.824 740.825,309.75 737.308,315.864 734.376,320.805 728.598,330.436 721.563,336.55 712.099,344.758 682.703,367.956 652.218,391.909 647.863,394.338 647.429,394.621 647.025,394.882 642.151,398.044 639.99,399.279 636.137,401.54 632.787,401.037 M616.959,205.984 Q615.654,207.414 614.572,208.245 613.478,209.042 612.604,209.25 609.421,209.501 605.569,210.087 600.627,210.841 597.948,212.684 594.346,215.783 590.912,218.462 586.641,221.812 583.961,223.404 L582.119,224.325 Q582.522,220.63 584.254,217.248 M578.685,215.029 L579.522,215.029 M584.254,217.248 Q587.506,210.804 595.519,205.481 600.125,202.383 604.061,201.378 604.123,201.364 604.187,201.336 M614.698,210.925 Q614.654,211.031 614.614,211.134 613.706,213.411 613.106,215.531 611.515,221.226 609.002,229.936 608.946,230.089 608.877,230.229 606.54,236.284 601.8,238.981 591.834,244.676 586.306,247.356 M590.075,255.731 Q589.656,261.845 591.583,302.799 591.653,304.31 591.708,305.772 593.229,337.731 593.425,347.438 593.423,347.501 593.425,347.563 593.453,349.766 593.425,350.787 593.09,363.936 595.519,384.706 595.854,387.638 600.46,385.209 605.066,382.696 604.731,380.938 604.564,379.681 606.49,380.351 608.081,380.938 608.5,381.356 608.584,381.44 614.781,360 L619.806,368.375 Q619.89,368.459 622.738,349.95 L627.762,352.044 Q627.86,352.143 627.218,343.292 627.213,343.23 627.218,343.166 626.222,329.495 623.491,294.759 621.835,273.533 620.602,259.584 618.982,240.938 618.131,235.296 617.893,233.651 617.713,233.119 M641.833,338.183 L642.838,337.22 Q649.621,330.855 656.489,325.579 678.599,308.578 693.506,308.075 676.924,304.055 656.656,278.26 639.069,252.8 636.137,251.544 632.871,250.204 628.516,254.391 623.575,259.332 621.9,259.5 M527.681,252.8 Q528.658,252.957 530.696,253.051 533.021,253.135 536.726,253.135 543.259,253.051 546.106,252.8 551.382,252.297 552.053,252.13 555.402,251.209 555.738,248.612 M576.675,319.8 Q577.512,325.244 579.439,333.116 581.784,342.58 583.794,347.438 M483.294,317.287 Q483.294,317.371 483.629,325.914 483.88,332.028 486.225,336.131 486.979,337.448 488.109,338.727 491.54,342.558 498.452,346.014 508,350.871 517.213,351.206 L520.604,351.458 520.73,351.458 Q529.608,351.793 532.287,351.625 536.894,351.29 542.338,349.531 546.358,348.275 557.161,338.56 564.839,331.585 572.99,323.066 573.096,322.964 573.199,322.857 573.263,322.797 573.325,322.731 573.41,322.651 573.493,322.564 574.779,321.199 576.089,319.8 576.174,319.71 576.256,319.633 576.29,319.584 576.34,319.549 576.353,319.5 576.382,319.465 586.243,308.951 587.563,305.981 M520.563,352.044 Q519.809,355.645 518.385,363.852 516.961,370.971 514.7,374.656 M637.394,342.412 L641.833,338.183 M628.181,408.994 Q628.098,409.161 619.639,431.188 613.609,446.849 611.431,455.894 608.751,466.865 606.406,499.528 604.061,531.353 605.15,538.388 M556.91,452.041 Q557.412,453.884 559.088,454.386 559.59,454.554 560.93,454.554 563.108,454.554 563.945,453.549 564.28,453.214 565.62,450.115 M523.41,439.898 Q523.242,455.14 524.331,457.485 526.09,461.673 535.973,461.673 540.746,461.673 541.165,461.589 541.667,461.505 543.51,460.416 M524.666,491.404 Q523.829,493.916 523.829,496.68 523.829,501.286 527.514,501.538 529.943,501.621 537.647,501.454 M521.735,526.16 Q526.006,529.091 528.77,529.761 530.78,530.18 534.297,529.51 M564.531,644.331 Q558.25,647.263 541.416,650.445 524.415,653.628 506.325,655.219 490.664,656.642 453.814,655.889 426.009,655.386 410.012,654.381 397.701,653.628 372.744,651.031 366.546,650.361 361.94,651.366 358.674,652.12 357.669,651.45 M478.269,195.431 Q475.086,193.505 471.317,191.495 463.78,187.559 461.519,187.894 459.09,188.229 461.1,200.205 462.775,210.422 464.45,214.694 M468.637,226 Q469.307,228.764 471.066,234.291 472.071,238.73 469.475,240.656 466.277,243.04 463.236,245.263 L463.194,245.304 Q417.498,279.235 411.687,281.275 406.579,282.783 405.323,283.201 403.564,283.871 403.312,285.463 402.894,288.729 402.726,299.951 402.475,312.849 403.312,315.612 406.16,327.003 428.102,359.414 449.626,391.155 462.356,403.55 M470.312,254.894 Q472.909,256.234 478.101,256.904 478.312,256.936 478.52,256.946 483.421,257.647 488.319,257.406 491.417,257.239 498.62,256.066 504.482,255.061 506.325,255.312 M469.894,276.669 Q468.889,278.344 458.085,289.148 448.286,298.946 445.606,301.375 M490.329,296.266 Q494.097,296.266 498.285,295.429 L514.616,295.429 Q509.591,300.789 506.744,303.636 501.468,308.829 500.211,308.829 497.95,308.829 494.6,304.139 491.166,298.779 489.91,297.523 M436.394,296.769 Q437.831,300.241 440.916,304.641 440.95,304.69 441,304.725 448.678,315.736 466.544,332.53 474.843,340.324 480.949,346.265 495.077,359.97 497.531,363.769 M469.475,427 Q468.889,440.316 471.569,446.681 473.244,450.534 478.352,454.889 483.629,459.16 488.319,460.5 M483.713,468.037 Q483.796,470.634 483.377,481.354 483.21,491.404 484.55,494 486.141,497.099 490.077,499.695 493.93,502.208 496.275,501.956 M489.575,505.306 Q489.659,508.07 489.659,512.341 489.826,515.524 491.25,517.45 491.417,517.701 495.94,520.8 498.955,522.894 498.787,526.663 498.62,529.51 496.861,536.545 495.354,542.408 495.856,544.25 M475.338,556.394 Q455.74,552.793 432.039,549.108 384.72,541.821 364.871,541.821 351.639,541.821 336.564,539.058 324.671,536.88 322.159,537.634 317.804,538.974 313.7,545.841 309.596,552.793 309.931,558.488 310.182,562.34 311.522,572.558 312.611,581.686 311.606,585.288 M474.919,580.681 Q467.214,581.938 431.704,582.691 393.179,583.529 386.981,584.031 380.114,584.618 358.255,588.135 338.406,591.318 330.45,591.569 320.986,591.904 312.611,590.731 308.256,590.145 301.975,588.638 298.709,587.884 295.359,590.145 293.6,591.401 289.412,595.756 284.639,600.698 288.994,611.25 289.831,613.344 288.407,625.32 286.816,637.38 287.737,639.725 L290.669,646.844 Q293.935,655.805 295.275,665.269 M354.319,639.725 Q355.491,643.494 357.669,654.298 360.014,665.855 359.762,668.2" test="Avatar Man"/>
      <path id="Layer2_0_2_STROKES" stroke="#FF0" stroke-width="1.675" stroke-linejoin="round" stroke-linecap="round" fill="none" d="M530.529,256.066 Q529.691,260.756 531.366,264.19 533.125,267.791 536.391,267.791 537.731,267.791 539.574,266.786 541.667,265.614 542.254,264.023 M478.185,259.835 Q477.347,265.698 477.347,266.116 477.347,267.82 478.604,269.634 479.272,270.582 480.279,271.56 483.377,274.491 486.56,274.491 488.235,274.491 489.324,272.816 489.994,271.895 491.166,269.885" test="Avatar Man"/>
      <path id="Layer2_0_3_STROKES" stroke="#FFF" stroke-width="1.675" stroke-linejoin="round" stroke-linecap="round" fill="none" d="M559.841,301.71 Q565.453,303.971 565.704,307.74 565.72,307.978 565.746,308.242 565.741,308.306 565.746,308.368 L565.746,308.494 Q565.777,310.673 565.285,314.691 M552.304,316.785 Q557.823,315.468 561.181,311.425 562.307,310.072 563.191,308.41" test="Avatar Man"/>
      <path id="Layer2_0_4_STROKES" stroke="#F90" stroke-width="1.675" stroke-linejoin="round" stroke-linecap="round" fill="none" d="M495.437,546.763 Q497.196,546.595 512.522,552.876 531.618,559.074 551.55,558.906 570.729,558.739 587.646,553.881 601.884,549.777 603.056,550.113 608.249,551.453 612.353,560.665 617.545,572.139 614.781,586.963 611.348,605.639 602.554,619.374 592.252,635.37 577.094,640.144 L565.201,643.829 Q565.034,643.829 566.206,642.573 567.714,640.898 566.206,639.725 559.004,630.429 552.639,622.473 540.16,606.811 531.869,603.294 519.222,597.934 506.827,591.652 491.836,583.864 488.737,580.263 485.89,576.913 485.304,567.114 485.136,556.98 484.969,555.138 484.718,552.625 487.732,550.615 489.407,549.443 495.437,546.763Z" test="Avatar Man"/>
    </g>
    <g id="Avatar-Lady">
      <path fill="#000" stroke="none" d="M251.593,457.276 Q247.881,456.811 244.763,457.034 236.621,458.116 233.169,458.466 227.527,459.039 221.394,457.28 217.746,456.544 212.479,454.102 202.029,449.208 192.441,440.229 182.972,431.363 176.073,420.624 L174.408,421.814 Q174.628,428.171 172.411,443.198 170.775,454.621 171.195,463.058 171.269,464.629 171.418,466.097 171.726,469.129 173.888,483.711 176.025,504.761 174.277,512.68 173.115,517.987 171.338,523.952 170.343,528.392 170.959,534.454 171.302,537.83 172.486,541.955 L172.495,542.039 Q173.586,545.855 175.379,550.338 179.048,559.663 179.535,564.463 179.792,566.989 179.114,569.525 178.741,570.881 178.216,571.572 L179.784,572.774 Q180.016,574.69 180.104,578.441 180.113,578.629 180.138,578.778 180.265,583.96 180.168,592.471 L180.176,592.555 Q180.144,595.96 180.069,599.882 L183.761,601.889 Q186.017,598.039 191.844,590.18 200.005,579.228 201.911,575.376 L202.246,574.492 Q205.49,570.419 207.971,562.171 210.784,551.337 212.811,544.496 213.252,542.976 213.615,541.522 213.816,541.003 213.933,540.468 214.014,540.355 213.992,540.207 214.064,540.142 214.059,540.03 L214.059,540.03 Q218.071,526.398 220.653,517.839 225.981,499.944 229.152,491.795 230.609,487.996 232.702,484.034 233.535,482.432 234.415,480.797 L234.634,480.435 234.709,480.342 Q236.998,476.539 239.793,472.595 246.263,463.431 251.377,459.339 L251.593,457.276 M216.022,308.871 L214.184,296.638 213.763,296.68 Q204.332,297.638 198.835,298.792 187.765,301.192 179.224,305.887 171.021,310.548 163.654,317.591 160.863,320.228 158.172,323.082 158.174,323.122 158.096,323.175 157.909,323.408 157.634,323.647 153.666,328.113 150.002,333.099 143.716,341.563 141.539,350.291 139.355,358.935 139.386,368.459 L139.281,371.617 Q141.98,371.706 145.261,371.861 150.651,372.164 158.43,375.883 158.832,376.096 164.018,378.974 164.067,378.986 164.102,378.965 165.862,379.996 168.164,381.275 165.862,379.996 164.102,378.965 164.067,378.986 164.018,378.974 158.832,376.096 158.43,375.883 150.651,372.164 145.261,371.861 141.98,371.706 139.281,371.617 L137.724,383.09 Q139.477,383.298 141.346,383.573 155.497,385.538 160.86,384.739 155.497,385.538 141.346,383.573 139.477,383.298 137.724,383.09 137.551,383.061 137.379,383.04 125.644,381.545 119.365,382.402 L115.263,387.242 Q117.587,389.228 122.767,393.285 129.657,398.643 133.92,400.915 134.745,401.306 135.437,401.612 141.319,404.247 147.878,403.496 152.669,402.924 159.626,403.579 165.117,404.042 166.741,403.282 L172.191,404.174 170.964,411.36 175.963,420.38 Q176.051,420.517 176.073,420.624 182.972,431.363 192.441,440.229 202.029,449.208 212.479,454.102 217.746,456.544 221.394,457.28 227.527,459.039 233.169,458.466 236.621,458.116 244.763,457.034 247.881,456.811 251.593,457.276 L251.677,457.267 Q254.58,457.697 257.843,458.513 267.784,460.906 270.707,461.205 276.99,461.928 280.499,460.465 282.124,459.705 286.363,456.212 288.953,454.078 290.297,446.37 291.689,436.616 292.767,431.317 293.979,425.665 299.528,414.128 300.259,412.6 300.93,411.178 305.476,401.507 307.123,396.768 307.304,396.256 307.45,395.799 309.956,387.803 306.699,378.351 304.17,371.037 299.784,366.378 L293.38,358.607 Q292.872,359.012 292.177,359.324 286.95,361.471 286.63,355.804 L281.861,354.077 266.508,358.698 Q266.629,359.118 266.762,359.523 266.516,359.285 266.205,359.069 263.456,356.463 259.326,354.153 250.232,349.207 242.538,351.35 235.097,353.466 222.899,362.361 211.241,371.436 205.344,375.458 204.556,376.07 203.838,376.546 199.859,379.247 185.531,388.103 184.093,388.998 182.805,389.741 179.081,392.154 176.739,393.675 174.276,395.447 173.51,396.214 174.276,395.447 176.739,393.675 179.081,392.154 182.805,389.741 184.093,388.998 185.531,388.103 199.859,379.247 203.838,376.546 204.556,376.07 205.344,375.458 211.241,371.436 222.899,362.361 235.097,353.466 242.538,351.35 250.232,349.207 259.326,354.153 263.456,356.463 266.205,359.069 L266.508,358.698 Q266.443,358.494 266.381,358.286 265.355,355.004 264.467,351.164 262.457,342.266 263.361,338.602 264.081,335.636 270.854,331.971 276.887,328.551 276.278,326.741 274.595,321.893 266.466,314.722 L258.692,308.536 Q246.457,318.471 235.293,327.756 223.617,337.577 213.14,346.679 195.513,362.42 189.079,367.752 181.54,374.011 175.368,377.651 173.319,378.905 171.421,379.838 173.319,378.905 175.368,377.651 181.54,374.011 189.079,367.752 195.513,362.42 213.14,346.679 223.617,337.577 235.293,327.756 L229.092,320.304 Q228.232,319.37 223.088,314.789 217.48,309.829 216.022,308.871 M252.551,367.857 Q251.244,366.714 247.226,366.526 244.182,366.384 235.538,372.051 232.766,373.908 229.422,376.33 215.635,386.322 213.277,386.562 215.635,386.322 229.422,376.33 232.766,373.908 235.538,372.051 244.182,366.384 247.226,366.526 251.244,366.714 252.551,367.857 253.858,369 258.055,370.956 253.858,369 252.551,367.857 M248.556,382.129 Q250.43,379.642 250.276,378.126 250.233,377.705 247.914,375.814 250.233,377.705 250.276,378.126 250.43,379.642 248.556,382.129 246.539,384.886 244.434,385.099 238.287,385.723 237.842,381.345 237.774,380.671 237.833,380.41 238.034,379.879 239.159,377.553 238.034,379.879 237.833,380.41 237.774,380.671 237.842,381.345 238.287,385.723 244.434,385.099 246.539,384.886 248.556,382.129 M235.265,436.391 Q234.953,437.239 234.418,438.093 232.964,440.537 232.022,441.314 232.964,440.537 234.418,438.093 234.953,437.239 235.265,436.391 236.402,434.184 236.219,432.381 L235.677,430.394 236.219,432.381 Q236.402,434.184 235.265,436.391 M273.945,403.455 Q276.077,403.238 278.801,401.856 281.753,400.465 285.364,397.787 290.514,393.885 291.62,391.537 292.05,390.751 291.988,390.138 291.92,389.465 290.005,387.362 288.174,385.251 287.475,385.067 288.174,385.251 290.005,387.362 291.92,389.465 291.988,390.138 292.05,390.751 291.62,391.537 290.514,393.885 285.364,397.787 281.753,400.465 278.801,401.856 276.077,403.238 273.945,403.455 270.661,403.788 268.232,401.653 264.395,398.214 264.126,398.072 264.395,398.214 268.232,401.653 270.661,403.788 273.945,403.455 M293.553,405.547 Q293.484,404.873 292.363,403.881 293.484,404.873 293.553,405.547 293.664,406.642 293.337,407.61 293.01,408.579 292.245,409.423 290.631,411.118 288.189,411.366 287.263,411.46 285.249,410.899 283.32,410.329 282.055,409.607 283.32,410.329 285.249,410.899 287.263,411.46 288.189,411.366 290.631,411.118 292.245,409.423 293.01,408.579 293.337,407.61 293.664,406.642 293.553,405.547 M256.222,439.197 Q259.901,438.568 263.664,437.93 259.901,438.568 256.222,439.197 246.188,441.747 237.069,437.398 246.188,441.747 256.222,439.197 M191.057,339.478 Q186.731,335.409 180.345,333.676 174.043,331.934 168.731,333.239 174.043,331.934 180.345,333.676 186.731,335.409 191.057,339.478Z" test="Avatar Lady" stroke-width="1.693"/>
      <path id="Layer1_0_1_STROKES" stroke="#009EFF" stroke-width="1.693" stroke-linejoin="round" stroke-linecap="round" fill="none" d="M281.861,354.077 Q280.449,350.222 283.41,348.39 286.279,346.483 289.048,345.266 M256.656,304.404 Q256.832,303.621 256.789,303.2 256.703,302.358 253.378,297.251 249.453,291.27 248.828,290.142 246.531,285.952 241.957,285.311 237.283,285.36 235.606,284.764 236.071,285.993 236.49,290.119 L236.938,296.199 Q236.694,296.308 234.773,295.823 232.684,295.355 231.757,295.449 228.474,295.782 226.688,295.793 222.427,295.715 217.712,296.194 L214.184,296.638 M216.022,308.871 Q217.48,309.829 223.088,314.789 228.232,319.37 229.092,320.304 M235.606,284.764 Q235.594,284.681 235.514,284.689 L235.488,284.436 Q235.587,284.595 235.606,284.764Z M213.763,296.68 Q213.746,296.512 213.83,296.503 214.008,296.65 214.184,296.638 L213.763,296.68 Q204.332,297.638 198.835,298.792 187.765,301.192 179.224,305.887 171.021,310.548 163.654,317.591 160.863,320.228 158.214,323.078 158.174,323.122 158.139,323.17 157.909,323.408 157.676,323.643 153.666,328.113 150.002,333.099 143.716,341.563 141.539,350.291 139.355,358.935 139.386,368.459 M139.286,371.66 Q141.98,371.706 145.261,371.861 150.651,372.164 158.43,375.883 158.832,376.096 164.018,378.974 164.067,378.986 164.106,379.007 165.862,379.996 168.164,381.275 M258.055,370.956 Q253.858,369 252.551,367.857 251.244,366.714 247.226,366.526 244.182,366.384 235.542,372.094 232.766,373.908 229.422,376.33 215.635,386.322 213.277,386.562 M264.126,398.072 Q264.395,398.214 268.232,401.653 270.661,403.788 273.945,403.455 276.077,403.238 278.848,401.893 281.753,400.465 285.364,397.787 290.514,393.885 291.662,391.533 292.05,390.751 291.988,390.138 291.92,389.465 290.005,387.362 288.174,385.251 287.475,385.067 M299.784,366.378 Q304.17,371.037 306.699,378.351 309.956,387.803 307.45,395.799 307.304,396.256 307.123,396.768 305.476,401.507 300.93,411.178 300.259,412.6 299.528,414.128 293.979,425.665 292.767,431.317 291.689,436.616 290.297,446.37 288.953,454.078 286.363,456.212 282.124,459.705 280.499,460.465 276.99,461.928 270.707,461.205 267.784,460.906 257.843,458.513 254.58,457.697 251.681,457.309 L251.597,457.318 M251.377,459.339 Q246.263,463.431 239.793,472.595 236.998,476.539 234.752,480.338 L234.676,480.431 234.458,480.793 Q233.535,482.432 232.702,484.034 230.609,487.996 229.152,491.795 225.981,499.944 220.653,517.839 218.071,526.398 214.101,540.026 L214.063,540.072 Q214.064,540.142 214.034,540.203 214.014,540.355 213.98,540.506 213.816,541.003 213.657,541.517 213.252,542.976 212.811,544.496 210.784,551.337 207.971,562.171 205.49,570.419 202.246,574.492 M201.911,575.376 Q200.005,579.228 191.844,590.18 186.017,598.039 183.765,601.931 183.055,603.193 182.703,604.038 M282.055,409.607 Q283.32,410.329 285.249,410.899 287.263,411.46 288.189,411.366 290.631,411.118 292.245,409.423 293.01,408.579 293.337,407.61 293.664,406.642 293.553,405.547 293.484,404.873 292.363,403.881 M251.597,457.318 Q247.881,456.811 244.763,457.034 236.621,458.116 233.169,458.466 227.527,459.039 221.394,457.28 217.746,456.544 212.479,454.102 202.029,449.208 192.441,440.229 182.972,431.363 176.12,420.662 M174.408,421.814 Q174.628,428.171 172.411,443.198 170.775,454.621 171.195,463.058 171.269,464.629 171.418,466.097 171.726,469.129 173.888,483.711 176.025,504.761 174.277,512.68 173.115,517.987 171.338,523.952 170.343,528.392 170.959,534.454 171.302,537.83 172.49,541.997 L172.495,542.039 Q173.586,545.855 175.379,550.338 179.048,559.663 179.535,564.463 179.792,566.989 179.114,569.525 178.741,570.881 178.22,571.615 M179.784,572.774 Q180.016,574.69 180.108,578.483 180.113,578.629 180.138,578.778 180.265,583.96 180.172,592.513 L180.176,592.555 Q180.144,595.96 180.069,599.882 M230.124,493.823 L230.106,498.674 Q230.191,499.516 231.123,502.824 232.054,506.132 232.14,506.974 232.225,507.816 233.53,513.128 234.751,518.449 234.836,519.291 235.555,526.363 228.292,557.045 220.945,587.735 221.586,594.05 222.21,600.197 232.951,613.823 241.347,624.454 251.653,634.637 259.117,641.96 278.271,677.275 278.382,678.37 279.081,678.554 279.688,678.663 279.712,678.065 M194.641,634.471 Q196.865,635.436 208.897,645.018 221.781,655.449 222.029,657.891 222.337,660.922 244.606,674.144 266.875,687.365 267.217,690.733 267.32,691.743 267.648,691.625 267.976,691.506 267.993,691.675 L268.607,691.017 M191.057,339.478 Q186.731,335.409 180.345,333.676 174.043,331.934 168.731,333.239 M139.286,371.66 Q139.203,371.678 139.117,371.677 139.03,371.675 138.949,371.694 134.854,371.608 132.157,371.83 124.899,372.397 119.875,374.864 113.64,377.964 112.933,378.546 111.756,379.517 112.079,381.866 112.504,384.375 113.947,386.015 114.343,386.413 115.073,387.049 115.165,387.121 115.258,387.2 L115.305,387.238 M119.365,382.402 Q125.644,381.545 137.379,383.04 137.551,383.061 137.724,383.09 M115.305,387.238 Q117.587,389.228 122.767,393.285 129.657,398.643 133.962,400.911 134.745,401.306 135.437,401.612 141.319,404.247 147.878,403.496 152.669,402.924 159.626,403.579 165.117,404.042 166.741,403.282 M170.964,411.36 L175.963,420.38 Q176.051,420.517 176.12,420.662 M130.788,406.933 Q128.326,410.33 127.688,428.344 127.414,436.539 127.358,438.501 127.372,441.987 127.765,445.86 128.244,450.576 131.249,460.904 134.17,471.241 134.769,477.135 134.831,477.748 134.897,478.398 135.114,481.207 135.109,484.671 135.112,490.35 134.527,497.789 134.117,503.004 133.42,509.087 130.985,530.347 132.729,547.523 133.011,550.302 135.189,559.183 137.316,567.559 137.31,569.176 M137.724,383.09 Q139.477,383.298 141.346,383.573 155.497,385.538 160.86,384.739 M152.877,423.405 L153.259,425.492 Q153.456,427.429 152.723,432.778 151.998,438.211 152.275,442.606 152.518,447.515 153.356,455.767 153.45,456.693 154.086,459.606 154.73,462.603 154.842,463.698 154.848,463.758 154.854,463.824 155.069,466.089 154.919,470.325 154.834,475.353 154.205,476.693 153.541,477.696 152.357,480.283 151.514,482.027 151.12,483.173 150.726,484.319 150.781,484.866 M156.881,519.806 Q156.95,520.479 156.64,527.486 156.247,534.502 156.349,535.512 156.537,537.365 158.575,542.347 159.56,544.862 160.084,546.319 160.571,547.762 160.613,548.18 160.904,551.042 159.001,556.595 157.29,561.533 155.786,563.472 M134.897,478.398 Q130.158,479.475 125.156,485.512 120.516,491.053 119.674,496.872 119.433,498.569 119.511,500.292 119.722,505.715 121.307,562.379 123.017,617.755 123.531,623.658 123.933,627.615 124.036,634.495 124.061,635.505 124.103,636.402 L124.111,636.487 Q124.317,639.366 124.872,641.046 125.362,642.527 165.353,690.358 205.039,737.709 205.465,741.069 M117.619,496.741 Q109.955,501.687 102.223,505.96 91.183,512.015 84.827,513.086 71.549,514.689 56.022,515.926 25.043,518.306 13.882,516.462 M178.22,571.615 Q177.737,572.302 177.105,572.366 M180.069,599.882 L180.074,599.924 Q180.059,601.874 180.017,603.971 179.79,615.172 179.316,630.158 179.245,633.653 189.939,649.325 203.114,668.489 206.096,674.396 226.453,714.863 228.781,733.597 M28.892,617.36 Q35.57,617.788 52.419,622.031 70.76,626.719 80.914,631.218 94.718,637.302 98.298,638.214 105.729,640.182 114.972,638.223 118.719,637.417 121.858,636.503" test="Avatar Lady"/>
      <path id="Layer1_0_2_STROKES" stroke="#FFBC00" stroke-width="1.693" stroke-linejoin="round" stroke-linecap="round" fill="none" d="M235.335,327.751 Q246.457,318.471 258.692,308.536 L266.466,314.722 Q274.595,321.893 276.278,326.741 276.887,328.551 270.854,331.971 264.081,335.636 263.361,338.602 262.457,342.266 264.467,351.164 265.355,355.004 266.381,358.286 266.443,358.494 266.508,358.698 M171.421,379.838 Q173.319,378.905 175.372,377.693 181.54,374.011 189.079,367.752 195.513,362.42 213.14,346.679 223.617,337.577 235.335,327.751 M266.247,359.065 Q266.516,359.285 266.762,359.523 266.629,359.118 266.508,358.698 M266.247,359.065 Q263.456,356.463 259.326,354.153 250.232,349.207 242.538,351.35 235.097,353.466 222.899,362.361 211.241,371.436 205.39,375.495 204.556,376.07 203.838,376.546 199.859,379.247 185.531,388.103 184.093,388.998 182.809,389.783 179.081,392.154 176.786,393.712 174.276,395.447 173.51,396.214" test="Avatar Lady"/>
      <path id="Layer1_0_3_STROKES" stroke="#FF0" stroke-width="1.693" stroke-linejoin="round" stroke-linecap="round" fill="none" d="M286.63,355.804 Q286.95,361.471 292.177,359.324 292.872,359.012 293.422,358.603 295.343,357.114 295.327,354.326 295.289,351.437 292.433,350.962 M239.159,377.553 Q238.034,379.879 237.833,380.41 237.774,380.671 237.842,381.345 238.287,385.723 244.434,385.099 246.539,384.886 248.556,382.129 250.43,379.642 250.276,378.126 250.233,377.705 247.914,375.814" test="Avatar Lady"/>
      <path id="Layer1_0_4_STROKES" stroke="#FFF" stroke-width="1.693" stroke-linejoin="round" stroke-linecap="round" fill="none" d="M235.677,430.394 L236.219,432.381 Q236.402,434.184 235.312,436.428 234.953,437.239 234.418,438.093 232.964,440.537 232.022,441.314 M237.069,437.398 Q246.188,441.747 256.222,439.197 259.901,438.568 263.664,437.93" test="Avatar Lady"/>
    </g>
  </g>
</svg>