<?xml version="1.0" encoding="utf-8"?>
<svg id="EdithAnim13" image-rendering="inherit" baseProfile="basic" version="1.1" x="0px" y="0px" width="800" height="600" xmlns="http://www.w3.org/2000/svg" xmlns:xlink="http://www.w3.org/1999/xlink">
  <g id="22_Avatarf37r1" overflow="visible">
    <g id="Avatar-Manf0r1">
      <g id="Tailf0r1">
        <path id="Layer3_0_1_STROKES" stroke="#009EFF" stroke-width="2.303" stroke-linejoin="round" stroke-linecap="round" fill="none" d="M650.79,620.592 Q649.628,603.67 648.987,586.739 648.413,570.321 643.079,554.815 637.217,537.926 620.884,530.243 601.035,520.986 598.161,541.686 597.741,544.702 599.713,547.349 604.375,553.709 611.004,557.78 617.933,555.25 623.144,560.029 629.418,565.831 632.179,574.53 638.632,595.058 643.772,615.758 645.224,621.55 644.249,627.426" test="Tail_2.3242325232423263e+312.3242325232423263e+31_2.3242325232423263e+312.3242325232423263e+31_2.3242325232423263e+312.3242325232423263e+31_2.3242325232423263e+312.3242325232423263e+31_2.3242325232423263e+312.3242325232423263e+31_22"/>
      </g>
      <path fill="#000" stroke="none" d="M612.353,534.515 Q608.249,525.303 603.056,523.963 601.884,523.628 587.646,527.731 570.729,532.589 551.55,532.756 531.618,532.924 512.522,526.726 497.196,520.445 495.437,520.612 489.407,523.293 487.732,524.465 484.718,526.475 484.969,528.988 485.136,530.83 485.304,540.964 485.89,550.763 488.737,554.113 491.836,557.714 506.827,565.503 519.222,571.784 531.869,577.144 540.16,580.661 552.639,596.323 559.004,604.279 566.206,613.575 567.714,614.748 566.206,616.423 565.034,617.679 565.201,617.679 L577.094,613.994 Q592.252,609.22 602.554,593.224 611.348,579.489 614.781,560.813 617.545,545.989 612.353,534.515 M617.713,186.031 L614.698,184.775 Q614.654,184.881 614.614,184.943 613.706,187.261 613.106,189.381 611.515,195.076 609.002,203.786 608.946,203.939 608.835,204.038 606.54,210.135 601.8,212.831 591.834,218.526 586.306,221.206 L590.075,229.581 Q589.656,235.695 591.583,276.649 591.653,278.16 591.666,279.58 593.229,311.581 593.425,321.288 593.423,321.351 593.425,321.371 593.453,323.616 593.425,324.638 593.09,337.786 595.519,358.556 595.854,361.488 600.46,359.059 605.066,356.546 604.731,354.788 604.564,353.531 606.49,354.201 608.081,354.788 608.5,355.206 608.584,355.29 614.781,333.85 L619.806,342.225 Q619.89,342.309 622.738,323.8 L627.762,325.894 Q627.86,325.993 627.176,317.1 627.213,317.08 627.176,317.016 626.222,303.345 623.491,268.609 621.835,247.383 620.56,233.434 618.982,214.788 618.131,209.146 617.893,207.501 617.713,206.969 617.893,207.501 618.131,209.146 618.982,214.788 620.56,233.434 L621.9,233.35 Q623.575,233.183 628.516,228.241 632.871,224.054 636.137,225.394 639.069,226.65 656.656,252.11 676.924,277.905 693.506,281.925 678.599,282.428 656.489,299.429 649.621,304.705 642.838,311.07 L641.833,311.991 Q643.025,324.721 646.941,368.271 L647.863,368.188 Q652.218,365.759 682.703,341.806 712.099,318.608 721.563,310.4 728.598,304.286 734.376,294.655 737.308,289.714 740.825,283.6 742.5,281.674 746.101,278.994 749.033,276.314 749.2,271.875 749.368,267.52 717.543,247.001 682.284,225.059 675.5,219.95 655.567,204.959 646.271,198.929 635.196,191.668 627.679,188.46 621.433,185.802 617.713,186.031 M558.166,180.923 Q560.679,180.504 563.024,180.085 566.793,180.085 566.541,184.691 573.744,183.854 576.591,184.691 579.606,185.613 579.522,188.879 L584.213,191.056 Q587.506,184.654 595.519,179.331 600.125,176.233 604.061,175.228 604.123,175.214 604.145,175.144 L603.056,168.444 Q604.313,168.36 601.884,165.429 597.445,160.32 593.844,155.881 588.986,149.851 572.069,144.408 557.245,139.634 549.037,139.55 522.74,139.299 504.65,146.669 493.427,151.275 483.377,165.178 481.451,167.812 479.86,170.203 475.369,177.321 473.997,182.681 L473.997,184.691 Q474.165,184.691 474.919,184.943 475.756,185.11 476.343,185.11 479.357,185.11 482.372,182.681 485.806,179.834 489.072,179.248 L489.072,181.341 492.841,181.341 Q495.354,180.839 500.127,179.415 503.812,178.243 504.566,178.41 L504.566,180.504 Q505.404,180.504 508.754,180.923 514.281,180.923 519.641,177.991 L523.829,177.991 523.829,179.666 530.529,179.666 Q541.584,176.316 542.254,176.316 543.343,176.316 544.348,177.07 545.52,177.908 547.698,177.991 547.698,180.085 547.279,180.923 L558.166,180.923Z" test="Avatar Man" stroke-width="1.675"/>
      <path id="Layer2_0_1_STROKES" stroke="#009EFF" stroke-width="1.675" stroke-linejoin="round" stroke-linecap="round" fill="none" d="M579.522,188.879 Q579.606,185.613 576.591,184.691 573.744,183.854 566.541,184.691 566.793,180.085 563.024,180.085 560.679,180.504 558.166,180.923 L547.279,180.923 Q547.698,180.085 547.698,177.991 545.52,177.908 544.348,177.07 543.343,176.316 542.254,176.316 541.584,176.316 530.529,179.666 L523.829,179.666 523.829,177.991 519.641,177.991 Q514.281,180.923 508.754,180.923 505.404,180.504 504.566,180.504 L504.566,178.41 Q503.812,178.243 500.127,179.415 495.354,180.839 492.841,181.341 L489.072,181.341 489.072,179.248 Q485.806,179.834 482.372,182.681 479.357,185.11 476.343,185.11 475.756,185.11 474.919,184.943 474.165,184.691 473.997,184.691 L473.997,182.681 Q475.369,177.321 479.902,170.244 481.451,167.812 483.377,165.178 493.427,151.275 504.65,146.669 522.74,139.299 549.037,139.55 557.245,139.634 572.069,144.408 588.986,149.851 593.844,155.881 597.445,160.32 601.884,165.429 604.313,168.36 603.056,168.444 M604.187,175.186 Q604.249,175.192 604.313,175.186 606.845,174.626 612.269,174.306 616.205,174.139 618.634,172.547 619.974,171.71 621.9,170.119 622.654,169.7 619.555,175.06 618.131,177.489 616.959,179.834 616.242,181.242 615.661,182.598 615.522,182.877 615.409,183.142 615.165,183.664 614.949,184.189 614.818,184.484 614.698,184.775 M617.713,186.031 Q621.433,185.802 627.721,188.502 635.196,191.668 646.271,198.929 655.567,204.959 675.5,219.95 682.284,225.059 717.543,247.001 749.368,267.52 749.2,271.875 749.033,276.314 746.101,278.994 742.5,281.674 740.825,283.6 737.308,289.714 734.376,294.655 728.598,304.286 721.563,310.4 712.099,318.608 682.703,341.806 652.218,365.759 647.863,368.188 647.429,368.471 647.025,368.732 642.151,371.894 639.99,373.129 636.137,375.39 632.787,374.888 M616.959,179.834 Q615.654,181.264 614.572,182.095 613.478,182.892 612.604,183.1 609.421,183.351 605.569,183.938 600.627,184.691 597.948,186.534 594.346,189.633 590.912,192.313 586.641,195.663 583.961,197.254 L582.119,198.175 Q582.522,194.48 584.254,191.098 M578.685,188.879 L579.522,188.879 M584.254,191.098 Q587.506,184.654 595.519,179.331 600.125,176.233 604.061,175.228 604.123,175.214 604.187,175.186 M614.698,184.775 Q614.654,184.881 614.614,184.984 613.706,187.261 613.106,189.381 611.515,195.076 609.002,203.786 608.946,203.939 608.877,204.079 606.54,210.135 601.8,212.831 591.834,218.526 586.306,221.206 M590.075,229.581 Q589.656,235.695 591.583,276.649 591.653,278.16 591.708,279.622 593.229,311.581 593.425,321.288 593.423,321.351 593.425,321.413 593.453,323.616 593.425,324.638 593.09,337.786 595.519,358.556 595.854,361.488 600.46,359.059 605.066,356.546 604.731,354.788 604.564,353.531 606.49,354.201 608.081,354.788 608.5,355.206 608.584,355.29 614.781,333.85 L619.806,342.225 Q619.89,342.309 622.738,323.8 L627.762,325.894 Q627.86,325.993 627.218,317.142 627.213,317.08 627.218,317.016 626.222,303.345 623.491,268.609 621.835,247.383 620.602,233.434 618.982,214.788 618.131,209.146 617.893,207.501 617.713,206.969 M641.833,312.033 L642.838,311.07 Q649.621,304.705 656.489,299.429 678.599,282.428 693.506,281.925 676.924,277.905 656.656,252.11 639.069,226.65 636.137,225.394 632.871,224.054 628.516,228.241 623.575,233.183 621.9,233.35 M527.681,226.65 Q528.658,226.807 530.696,226.901 533.021,226.985 536.726,226.985 543.259,226.901 546.106,226.65 551.382,226.148 552.053,225.98 555.402,225.059 555.738,222.463 M576.675,293.65 Q577.512,299.094 579.439,306.966 581.784,316.43 583.794,321.288 M483.294,291.138 Q483.294,291.221 483.629,299.764 483.88,305.878 486.225,309.981 486.979,311.298 488.109,312.578 491.54,316.408 498.452,319.864 508,324.721 517.213,325.056 L520.604,325.308 520.73,325.308 Q529.608,325.643 532.287,325.475 536.894,325.14 542.338,323.381 546.358,322.125 557.161,312.41 564.839,305.435 572.99,296.916 573.096,296.814 573.199,296.707 573.263,296.647 573.325,296.581 573.41,296.501 573.493,296.414 574.779,295.049 576.089,293.65 576.174,293.56 576.256,293.483 576.29,293.434 576.34,293.399 576.353,293.35 576.382,293.315 586.243,282.801 587.563,279.831 M520.563,325.894 Q519.809,329.495 518.385,337.703 516.961,344.821 514.7,348.506 M637.394,316.263 L641.833,312.033 M628.181,382.844 Q628.098,383.011 619.639,405.038 613.609,420.699 611.431,429.744 608.751,440.715 606.406,473.378 604.061,505.203 605.15,512.237 M556.91,425.891 Q557.412,427.734 559.088,428.236 559.59,428.404 560.93,428.404 563.108,428.404 563.945,427.399 564.28,427.064 565.62,423.965 M523.41,413.748 Q523.242,428.99 524.331,431.335 526.09,435.523 535.973,435.523 540.746,435.523 541.165,435.439 541.667,435.355 543.51,434.266 M524.666,465.254 Q523.829,467.766 523.829,470.53 523.829,475.136 527.514,475.388 529.943,475.471 537.647,475.304 M521.735,500.01 Q526.006,502.941 528.77,503.611 530.78,504.03 534.297,503.36 M564.531,618.181 Q558.25,621.113 541.416,624.295 524.415,627.478 506.325,629.069 490.664,630.493 453.814,629.739 426.009,629.236 410.012,628.231 397.701,627.478 372.744,624.881 366.546,624.211 361.94,625.216 358.674,625.97 357.669,625.3 M478.269,169.281 Q475.086,167.355 471.317,165.345 463.78,161.409 461.519,161.744 459.09,162.079 461.1,174.055 462.775,184.273 464.45,188.544 M468.637,199.85 Q469.307,202.614 471.066,208.141 472.071,212.58 469.475,214.506 466.277,216.89 463.236,219.113 L463.194,219.154 Q417.498,253.085 411.687,255.125 406.579,256.633 405.323,257.051 403.564,257.721 403.312,259.313 402.894,262.579 402.726,273.801 402.475,286.699 403.312,289.463 406.16,300.853 428.102,333.264 449.626,365.005 462.356,377.4 M470.312,228.744 Q472.909,230.084 478.101,230.754 478.312,230.786 478.52,230.796 483.421,231.497 488.319,231.256 491.417,231.089 498.62,229.916 504.482,228.911 506.325,229.163 M469.894,250.519 Q468.889,252.194 458.085,262.998 448.286,272.796 445.606,275.225 M490.329,270.116 Q494.097,270.116 498.285,269.279 L514.616,269.279 Q509.591,274.639 506.744,277.486 501.468,282.679 500.211,282.679 497.95,282.679 494.6,277.989 491.166,272.629 489.91,271.373 M436.394,270.619 Q437.831,274.091 440.916,278.491 440.95,278.54 441,278.575 448.678,289.586 466.544,306.38 474.843,314.174 480.949,320.115 495.077,333.82 497.531,337.619 M469.475,400.85 Q468.889,414.166 471.569,420.531 473.244,424.384 478.352,428.739 483.629,433.01 488.319,434.35 M483.713,441.888 Q483.796,444.484 483.377,455.204 483.21,465.254 484.55,467.85 486.141,470.949 490.077,473.545 493.93,476.058 496.275,475.806 M489.575,479.156 Q489.659,481.92 489.659,486.191 489.826,489.374 491.25,491.3 491.417,491.551 495.94,494.65 498.955,496.744 498.787,500.513 498.62,503.36 496.861,510.395 495.354,516.258 495.856,518.1 M475.338,530.244 Q455.74,526.643 432.039,522.958 384.72,515.671 364.871,515.671 351.639,515.671 336.564,512.908 324.671,510.73 322.159,511.484 317.804,512.824 313.7,519.691 309.596,526.643 309.931,532.338 310.182,536.19 311.522,546.408 312.611,555.536 311.606,559.138 M474.919,554.531 Q467.214,555.788 431.704,556.541 393.179,557.379 386.981,557.881 380.114,558.468 358.255,561.985 338.406,565.168 330.45,565.419 320.986,565.754 312.611,564.581 308.256,563.995 301.975,562.488 298.709,561.734 295.359,563.995 293.6,565.251 289.412,569.606 284.639,574.548 288.994,585.1 289.831,587.194 288.407,599.17 286.816,611.23 287.737,613.575 L290.669,620.694 Q293.935,629.655 295.275,639.119 M354.319,613.575 Q355.491,617.344 357.669,628.148 360.014,639.705 359.762,642.05" test="Avatar Man"/>
      <path id="Layer2_0_2_STROKES" stroke="#FF0" stroke-width="1.675" stroke-linejoin="round" stroke-linecap="round" fill="none" d="M530.529,229.916 Q529.691,234.606 531.366,238.04 533.125,241.641 536.391,241.641 537.731,241.641 539.574,240.636 541.667,239.464 542.254,237.873 M478.185,233.685 Q477.347,239.548 477.347,239.966 477.347,241.67 478.604,243.484 479.272,244.432 480.279,245.41 483.377,248.341 486.56,248.341 488.235,248.341 489.324,246.666 489.994,245.745 491.166,243.735" test="Avatar Man"/>
      <path id="Layer2_0_3_STROKES" stroke="#FFF" stroke-width="1.675" stroke-linejoin="round" stroke-linecap="round" fill="none" d="M559.841,275.56 Q565.453,277.821 565.704,281.59 565.72,281.828 565.746,282.093 565.741,282.156 565.746,282.218 L565.746,282.344 Q565.777,284.523 565.285,288.541 M552.304,290.635 Q557.823,289.318 561.181,285.275 562.307,283.922 563.191,282.26" test="Avatar Man"/>
      <path id="Layer2_0_4_STROKES" stroke="#F90" stroke-width="1.675" stroke-linejoin="round" stroke-linecap="round" fill="none" d="M495.437,520.612 Q497.196,520.445 512.522,526.726 531.618,532.924 551.55,532.756 570.729,532.589 587.646,527.731 601.884,523.628 603.056,523.963 608.249,525.303 612.353,534.515 617.545,545.989 614.781,560.813 611.348,579.489 602.554,593.224 592.252,609.22 577.094,613.994 L565.201,617.679 Q565.034,617.679 566.206,616.423 567.714,614.748 566.206,613.575 559.004,604.279 552.639,596.323 540.16,580.661 531.869,577.144 519.222,571.784 506.827,565.503 491.836,557.714 488.737,554.113 485.89,550.763 485.304,540.964 485.136,530.83 484.969,528.988 484.718,526.475 487.732,524.465 489.407,523.293 495.437,520.612Z" test="Avatar Man"/>
    </g>
    <g id="Avatar-Lady">
      <path fill="#000" stroke="none" d="M251.593,427.426 Q247.881,426.961 244.763,427.184 236.621,428.266 233.169,428.616 227.527,429.189 221.394,427.43 217.746,426.694 212.479,424.252 202.029,419.358 192.441,410.379 182.972,401.513 176.073,390.774 L174.408,391.964 Q174.628,398.321 172.411,413.348 170.775,424.771 171.195,433.208 171.269,434.779 171.418,436.247 171.726,439.279 173.888,453.861 176.025,474.911 174.277,482.83 173.115,488.137 171.338,494.102 170.343,498.542 170.959,504.604 171.302,507.98 172.486,512.105 L172.495,512.189 Q173.586,516.005 175.379,520.488 179.048,529.813 179.535,534.613 179.792,537.139 179.114,539.675 178.741,541.031 178.216,541.722 L179.784,542.924 Q180.016,544.84 180.104,548.591 180.113,548.779 180.138,548.928 180.265,554.11 180.168,562.621 L180.176,562.705 Q180.144,566.11 180.069,570.032 L183.761,572.039 Q186.017,568.189 191.844,560.329 200.005,549.378 201.911,545.526 L202.246,544.642 Q205.49,540.569 207.971,532.321 210.784,521.487 212.811,514.646 213.252,513.126 213.615,511.672 213.816,511.153 213.933,510.618 214.014,510.505 213.992,510.357 214.064,510.292 214.059,510.18 L214.059,510.18 Q218.071,496.548 220.653,487.989 225.981,470.094 229.152,461.945 230.609,458.146 232.702,454.184 233.535,452.582 234.415,450.947 L234.634,450.585 234.709,450.492 Q236.998,446.689 239.793,442.745 246.263,433.581 251.377,429.489 L251.593,427.426 M216.022,279.021 L214.184,266.788 213.763,266.83 Q204.332,267.788 198.835,268.942 187.765,271.342 179.224,276.037 171.021,280.698 163.654,287.741 160.863,290.378 158.172,293.232 158.174,293.272 158.096,293.325 157.909,293.558 157.634,293.797 153.666,298.263 150.002,303.249 143.716,311.713 141.539,320.441 139.355,329.085 139.386,338.609 L139.281,341.767 Q141.98,341.856 145.261,342.011 150.651,342.314 158.43,346.033 158.832,346.246 164.018,349.124 164.067,349.136 164.102,349.115 165.862,350.146 168.164,351.425 165.862,350.146 164.102,349.115 164.067,349.136 164.018,349.124 158.832,346.246 158.43,346.033 150.651,342.314 145.261,342.011 141.98,341.856 139.281,341.767 L137.724,353.24 Q139.477,353.448 141.346,353.723 155.497,355.688 160.86,354.889 155.497,355.688 141.346,353.723 139.477,353.448 137.724,353.24 137.551,353.211 137.379,353.19 125.644,351.695 119.365,352.552 L115.263,357.392 Q117.587,359.378 122.767,363.435 129.657,368.793 133.92,371.065 134.745,371.456 135.437,371.762 141.319,374.397 147.878,373.646 152.669,373.074 159.626,373.729 165.117,374.192 166.741,373.432 L172.191,374.324 170.964,381.51 175.963,390.53 Q176.051,390.667 176.073,390.774 182.972,401.513 192.441,410.379 202.029,419.358 212.479,424.252 217.746,426.694 221.394,427.43 227.527,429.189 233.169,428.616 236.621,428.266 244.763,427.184 247.881,426.961 251.593,427.426 L251.677,427.417 Q254.58,427.847 257.843,428.663 267.784,431.056 270.707,431.355 276.99,432.078 280.499,430.615 282.124,429.855 286.363,426.362 288.953,424.227 290.297,416.52 291.689,406.766 292.767,401.467 293.979,395.815 299.528,384.278 300.259,382.75 300.93,381.328 305.476,371.657 307.123,366.918 307.304,366.406 307.45,365.949 309.956,357.953 306.699,348.501 304.17,341.187 299.784,336.528 L293.38,328.757 Q292.872,329.162 292.177,329.474 286.95,331.621 286.63,325.954 L281.861,324.227 266.508,328.848 Q266.629,329.268 266.762,329.673 266.516,329.435 266.205,329.219 263.456,326.613 259.326,324.303 250.232,319.357 242.538,321.5 235.097,323.616 222.899,332.511 211.241,341.586 205.344,345.608 204.556,346.22 203.838,346.696 199.859,349.397 185.531,358.253 184.093,359.148 182.805,359.891 179.081,362.304 176.739,363.825 174.276,365.597 173.51,366.364 174.276,365.597 176.739,363.825 179.081,362.304 182.805,359.891 184.093,359.148 185.531,358.253 199.859,349.397 203.838,346.696 204.556,346.22 205.344,345.608 211.241,341.586 222.899,332.511 235.097,323.616 242.538,321.5 250.232,319.357 259.326,324.303 263.456,326.613 266.205,329.219 L266.508,328.848 Q266.443,328.644 266.381,328.436 265.355,325.154 264.467,321.314 262.457,312.416 263.361,308.752 264.081,305.786 270.854,302.121 276.887,298.701 276.278,296.891 274.595,292.043 266.466,284.872 L258.692,278.686 Q246.457,288.621 235.293,297.906 223.617,307.727 213.14,316.829 195.513,332.57 189.079,337.902 181.54,344.161 175.368,347.801 173.319,349.055 171.421,349.988 173.319,349.055 175.368,347.801 181.54,344.161 189.079,337.902 195.513,332.57 213.14,316.829 223.617,307.727 235.293,297.906 L229.092,290.454 Q228.232,289.52 223.088,284.939 217.48,279.979 216.022,279.021 M252.551,338.007 Q251.244,336.864 247.226,336.676 244.182,336.534 235.538,342.201 232.766,344.058 229.422,346.48 215.635,356.472 213.277,356.712 215.635,356.472 229.422,346.48 232.766,344.058 235.538,342.201 244.182,336.534 247.226,336.676 251.244,336.864 252.551,338.007 253.858,339.15 258.055,341.106 253.858,339.15 252.551,338.007 M248.556,352.279 Q250.43,349.792 250.276,348.276 250.233,347.855 247.914,345.964 250.233,347.855 250.276,348.276 250.43,349.792 248.556,352.279 246.539,355.035 244.434,355.249 238.287,355.873 237.842,351.495 237.774,350.821 237.833,350.56 238.034,350.029 239.159,347.703 238.034,350.029 237.833,350.56 237.774,350.821 237.842,351.495 238.287,355.873 244.434,355.249 246.539,355.035 248.556,352.279 M235.265,406.541 Q234.953,407.389 234.418,408.243 232.964,410.687 232.022,411.464 232.964,410.687 234.418,408.243 234.953,407.389 235.265,406.541 236.402,404.334 236.219,402.531 L235.677,400.544 236.219,402.531 Q236.402,404.334 235.265,406.541 M273.945,373.605 Q276.077,373.388 278.801,372.006 281.753,370.615 285.364,367.937 290.514,364.035 291.62,361.687 292.05,360.901 291.988,360.288 291.92,359.615 290.005,357.512 288.174,355.401 287.475,355.217 288.174,355.401 290.005,357.512 291.92,359.615 291.988,360.288 292.05,360.901 291.62,361.687 290.514,364.035 285.364,367.937 281.753,370.615 278.801,372.006 276.077,373.388 273.945,373.605 270.661,373.938 268.232,371.803 264.395,368.364 264.126,368.222 264.395,368.364 268.232,371.803 270.661,373.938 273.945,373.605 M293.553,375.697 Q293.484,375.023 292.363,374.031 293.484,375.023 293.553,375.697 293.664,376.792 293.337,377.76 293.01,378.729 292.245,379.573 290.631,381.268 288.189,381.516 287.263,381.61 285.249,381.049 283.32,380.479 282.055,379.757 283.32,380.479 285.249,381.049 287.263,381.61 288.189,381.516 290.631,381.268 292.245,379.573 293.01,378.729 293.337,377.76 293.664,376.792 293.553,375.697 M256.222,409.347 Q259.901,408.718 263.664,408.08 259.901,408.718 256.222,409.347 246.188,411.897 237.069,407.548 246.188,411.897 256.222,409.347 M191.057,309.628 Q186.731,305.559 180.345,303.826 174.043,302.084 168.731,303.389 174.043,302.084 180.345,303.826 186.731,305.559 191.057,309.628Z" test="Avatar Lady" stroke-width="1.693"/>
      <path id="Layer1_0_1_STROKES" stroke="#009EFF" stroke-width="1.693" stroke-linejoin="round" stroke-linecap="round" fill="none" d="M281.861,324.227 Q280.449,320.372 283.41,318.54 286.279,316.633 289.048,315.416 M256.656,274.554 Q256.832,273.771 256.789,273.35 256.703,272.508 253.378,267.401 249.453,261.42 248.828,260.292 246.531,256.102 241.957,255.461 237.283,255.51 235.606,254.914 236.071,256.143 236.49,260.269 L236.938,266.349 Q236.694,266.458 234.773,265.973 232.684,265.505 231.757,265.599 228.474,265.932 226.688,265.943 222.427,265.865 217.712,266.344 L214.184,266.788 M216.022,279.021 Q217.48,279.979 223.088,284.939 228.232,289.52 229.092,290.454 M235.606,254.914 Q235.594,254.831 235.514,254.839 L235.488,254.586 Q235.587,254.745 235.606,254.914Z M213.763,266.83 Q213.746,266.662 213.83,266.653 214.008,266.8 214.184,266.788 L213.763,266.83 Q204.332,267.788 198.835,268.942 187.765,271.342 179.224,276.037 171.021,280.698 163.654,287.741 160.863,290.378 158.214,293.228 158.174,293.272 158.139,293.32 157.909,293.558 157.676,293.793 153.666,298.263 150.002,303.249 143.716,311.713 141.539,320.441 139.355,329.085 139.386,338.609 M139.286,341.81 Q141.98,341.856 145.261,342.011 150.651,342.314 158.43,346.033 158.832,346.246 164.018,349.124 164.067,349.136 164.106,349.157 165.862,350.146 168.164,351.425 M258.055,341.106 Q253.858,339.15 252.551,338.007 251.244,336.864 247.226,336.676 244.182,336.534 235.542,342.244 232.766,344.058 229.422,346.48 215.635,356.472 213.277,356.712 M264.126,368.222 Q264.395,368.364 268.232,371.803 270.661,373.938 273.945,373.605 276.077,373.388 278.848,372.043 281.753,370.615 285.364,367.937 290.514,364.035 291.662,361.683 292.05,360.901 291.988,360.288 291.92,359.615 290.005,357.512 288.174,355.401 287.475,355.217 M299.784,336.528 Q304.17,341.187 306.699,348.501 309.956,357.953 307.45,365.949 307.304,366.406 307.123,366.918 305.476,371.657 300.93,381.328 300.259,382.75 299.528,384.278 293.979,395.815 292.767,401.467 291.689,406.766 290.297,416.52 288.953,424.227 286.363,426.362 282.124,429.855 280.499,430.615 276.99,432.078 270.707,431.355 267.784,431.056 257.843,428.663 254.58,427.847 251.681,427.459 L251.597,427.468 M251.377,429.489 Q246.263,433.581 239.793,442.745 236.998,446.689 234.752,450.488 L234.676,450.581 234.458,450.943 Q233.535,452.582 232.702,454.184 230.609,458.146 229.152,461.945 225.981,470.094 220.653,487.989 218.071,496.548 214.101,510.176 L214.063,510.222 Q214.064,510.292 214.034,510.353 214.014,510.505 213.98,510.656 213.816,511.153 213.657,511.667 213.252,513.126 212.811,514.646 210.784,521.487 207.971,532.321 205.49,540.569 202.246,544.642 M201.911,545.526 Q200.005,549.378 191.844,560.329 186.017,568.189 183.765,572.081 183.055,573.343 182.703,574.188 M282.055,379.757 Q283.32,380.479 285.249,381.049 287.263,381.61 288.189,381.516 290.631,381.268 292.245,379.573 293.01,378.729 293.337,377.76 293.664,376.792 293.553,375.697 293.484,375.023 292.363,374.031 M251.597,427.468 Q247.881,426.961 244.763,427.184 236.621,428.266 233.169,428.616 227.527,429.189 221.394,427.43 217.746,426.694 212.479,424.252 202.029,419.358 192.441,410.379 182.972,401.513 176.12,390.812 M174.408,391.964 Q174.628,398.321 172.411,413.348 170.775,424.771 171.195,433.208 171.269,434.779 171.418,436.247 171.726,439.279 173.888,453.861 176.025,474.911 174.277,482.83 173.115,488.137 171.338,494.102 170.343,498.542 170.959,504.604 171.302,507.98 172.49,512.147 L172.495,512.189 Q173.586,516.005 175.379,520.488 179.048,529.813 179.535,534.613 179.792,537.139 179.114,539.675 178.741,541.031 178.22,541.765 M179.784,542.924 Q180.016,544.84 180.108,548.633 180.113,548.779 180.138,548.928 180.265,554.11 180.172,562.663 L180.176,562.705 Q180.144,566.11 180.069,570.032 M230.124,463.973 L230.106,468.824 Q230.191,469.666 231.123,472.974 232.054,476.282 232.14,477.124 232.225,477.966 233.53,483.278 234.751,488.599 234.836,489.441 235.555,496.513 228.292,527.195 220.945,557.885 221.586,564.2 222.21,570.347 232.951,583.973 241.347,594.604 251.653,604.787 259.117,612.11 278.271,647.425 278.382,648.52 279.081,648.704 279.688,648.813 279.712,648.215 M194.641,604.621 Q196.865,605.586 208.897,615.168 221.781,625.599 222.029,628.041 222.337,631.072 244.606,644.294 266.875,657.515 267.217,660.883 267.32,661.893 267.648,661.775 267.976,661.656 267.993,661.825 L268.607,661.167 M191.057,309.628 Q186.731,305.559 180.345,303.826 174.043,302.084 168.731,303.389 M139.286,341.81 Q139.203,341.828 139.117,341.827 139.03,341.825 138.949,341.844 134.854,341.758 132.157,341.98 124.899,342.547 119.875,345.014 113.64,348.114 112.933,348.696 111.756,349.667 112.079,352.016 112.504,354.525 113.947,356.165 114.343,356.563 115.073,357.199 115.165,357.271 115.258,357.35 L115.305,357.388 M119.365,352.552 Q125.644,351.695 137.379,353.19 137.551,353.211 137.724,353.24 M115.305,357.388 Q117.587,359.378 122.767,363.435 129.657,368.793 133.962,371.061 134.745,371.456 135.437,371.762 141.319,374.397 147.878,373.646 152.669,373.074 159.626,373.729 165.117,374.192 166.741,373.432 M170.964,381.51 L175.963,390.53 Q176.051,390.667 176.12,390.812 M130.788,377.083 Q128.326,380.48 127.688,398.494 127.414,406.689 127.358,408.651 127.372,412.137 127.765,416.01 128.244,420.726 131.249,431.054 134.17,441.391 134.769,447.285 134.831,447.898 134.897,448.548 135.114,451.357 135.109,454.821 135.112,460.5 134.527,467.939 134.117,473.154 133.42,479.237 130.985,500.496 132.729,517.673 133.011,520.452 135.189,529.333 137.316,537.709 137.31,539.326 M137.724,353.24 Q139.477,353.448 141.346,353.723 155.497,355.688 160.86,354.889 M152.877,393.555 L153.259,395.642 Q153.456,397.579 152.723,402.928 151.998,408.361 152.275,412.756 152.518,417.665 153.356,425.917 153.45,426.843 154.086,429.756 154.73,432.753 154.842,433.847 154.848,433.908 154.854,433.974 155.069,436.239 154.919,440.475 154.834,445.503 154.205,446.843 153.541,447.846 152.357,450.433 151.514,452.177 151.12,453.323 150.726,454.469 150.781,455.016 M156.881,489.956 Q156.95,490.629 156.64,497.636 156.247,504.652 156.349,505.662 156.537,507.515 158.575,512.497 159.56,515.012 160.084,516.469 160.571,517.912 160.613,518.33 160.904,521.192 159.001,526.745 157.29,531.683 155.786,533.622 M134.897,448.548 Q130.158,449.625 125.156,455.662 120.516,461.203 119.674,467.022 119.433,468.719 119.511,470.442 119.722,475.865 121.307,532.529 123.017,587.905 123.531,593.808 123.933,597.765 124.036,604.645 124.061,605.655 124.103,606.552 L124.111,606.637 Q124.317,609.516 124.872,611.196 125.362,612.677 165.353,660.508 205.039,707.859 205.465,711.219 M117.619,466.891 Q109.955,471.837 102.223,476.11 91.183,482.165 84.827,483.236 71.549,484.84 56.022,486.076 25.043,488.456 13.882,486.612 M178.22,541.765 Q177.737,542.452 177.105,542.516 M180.069,570.032 L180.074,570.074 Q180.059,572.024 180.017,574.121 179.79,585.322 179.316,600.308 179.245,603.803 189.939,619.475 203.114,638.639 206.096,644.546 226.453,685.013 228.781,703.747 M28.892,587.51 Q35.57,587.938 52.419,592.181 70.76,596.869 80.914,601.368 94.718,607.452 98.298,608.364 105.729,610.332 114.972,608.373 118.719,607.567 121.858,606.653" test="Avatar Lady"/>
      <path id="Layer1_0_2_STROKES" stroke="#FFBC00" stroke-width="1.693" stroke-linejoin="round" stroke-linecap="round" fill="none" d="M235.335,297.901 Q246.457,288.621 258.692,278.686 L266.466,284.872 Q274.595,292.043 276.278,296.891 276.887,298.701 270.854,302.121 264.081,305.786 263.361,308.752 262.457,312.416 264.467,321.314 265.355,325.154 266.381,328.436 266.443,328.644 266.508,328.848 M171.421,349.988 Q173.319,349.055 175.372,347.843 181.54,344.161 189.079,337.902 195.513,332.57 213.14,316.829 223.617,307.727 235.335,297.901 M266.247,329.215 Q266.516,329.435 266.762,329.673 266.629,329.268 266.508,328.848 M266.247,329.215 Q263.456,326.613 259.326,324.303 250.232,319.357 242.538,321.5 235.097,323.616 222.899,332.511 211.241,341.586 205.39,345.645 204.556,346.22 203.838,346.696 199.859,349.397 185.531,358.253 184.093,359.148 182.809,359.933 179.081,362.304 176.786,363.862 174.276,365.597 173.51,366.364" test="Avatar Lady"/>
      <path id="Layer1_0_3_STROKES" stroke="#FF0" stroke-width="1.693" stroke-linejoin="round" stroke-linecap="round" fill="none" d="M286.63,325.954 Q286.95,331.621 292.177,329.474 292.872,329.162 293.422,328.753 295.343,327.264 295.327,324.476 295.289,321.587 292.433,321.112 M239.159,347.703 Q238.034,350.029 237.833,350.56 237.774,350.821 237.842,351.495 238.287,355.873 244.434,355.249 246.539,355.035 248.556,352.279 250.43,349.792 250.276,348.276 250.233,347.855 247.914,345.964" test="Avatar Lady"/>
      <path id="Layer1_0_4_STROKES" stroke="#FFF" stroke-width="1.693" stroke-linejoin="round" stroke-linecap="round" fill="none" d="M235.677,400.544 L236.219,402.531 Q236.402,404.334 235.312,406.578 234.953,407.389 234.418,408.243 232.964,410.687 232.022,411.464 M237.069,407.548 Q246.188,411.897 256.222,409.347 259.901,408.718 263.664,408.08" test="Avatar Lady"/>
    </g>
  </g>
</svg>