<?xml version="1.0" encoding="utf-8"?>
<svg id="EdithAnim13" image-rendering="inherit" baseProfile="basic" version="1.1" x="0px" y="0px" width="800" height="600" xmlns="http://www.w3.org/2000/svg" xmlns:xlink="http://www.w3.org/1999/xlink">
  <g id="22_Avatarf39r1" overflow="visible">
    <g id="Avatar-Manf0r1">
      <g id="Tailf0r1">
        <path id="Layer3_0_1_STROKES" stroke="#009EFF" stroke-width="2.303" stroke-linejoin="round" stroke-linecap="round" fill="none" d="M650.79,613.342 Q649.628,596.42 648.987,579.489 648.413,563.071 643.079,547.565 637.217,530.676 620.884,522.993 601.035,513.736 598.161,534.436 597.741,537.452 599.713,540.099 604.375,546.459 611.004,550.53 617.933,548 623.144,552.779 629.418,558.581 632.179,567.28 638.632,587.808 643.772,608.508 645.224,614.3 644.249,620.176" test="Tail_2.3242325232423263e+312.3242325232423263e+31_2.3242325232423263e+312.3242325232423263e+31_2.3242325232423263e+312.3242325232423263e+31_2.3242325232423263e+312.3242325232423263e+31_2.3242325232423263e+312.3242325232423263e+31_23242324"/>
      </g>
      <path fill="#000" stroke="none" d="M612.353,527.265 Q608.249,518.053 603.056,516.713 601.884,516.378 587.646,520.481 570.729,525.339 551.55,525.506 531.618,525.674 512.522,519.476 497.196,513.195 495.437,513.362 489.407,516.043 487.732,517.215 484.718,519.225 484.969,521.737 485.136,523.58 485.304,533.714 485.89,543.513 488.737,546.863 491.836,550.464 506.827,558.253 519.222,564.534 531.869,569.894 540.16,573.411 552.639,589.073 559.004,597.029 566.206,606.325 567.714,607.498 566.206,609.173 565.034,610.429 565.201,610.429 L577.094,606.744 Q592.252,601.97 602.554,585.974 611.348,572.239 614.781,553.563 617.545,538.739 612.353,527.265 M617.713,178.781 L614.698,177.525 Q614.654,177.631 614.614,177.693 613.706,180.011 613.106,182.131 611.515,187.826 609.002,196.536 608.946,196.689 608.835,196.788 606.54,202.885 601.8,205.581 591.834,211.276 586.306,213.956 L590.075,222.331 Q589.656,228.445 591.583,269.399 591.653,270.91 591.666,272.33 593.229,304.331 593.425,314.038 593.423,314.101 593.425,314.121 593.453,316.366 593.425,317.388 593.09,330.536 595.519,351.306 595.854,354.238 600.46,351.809 605.066,349.296 604.731,347.538 604.564,346.281 606.49,346.951 608.081,347.538 608.5,347.956 608.584,348.04 614.781,326.6 L619.806,334.975 Q619.89,335.059 622.738,316.55 L627.762,318.644 Q627.86,318.743 627.176,309.85 627.213,309.83 627.176,309.766 626.222,296.095 623.491,261.359 621.835,240.133 620.56,226.184 618.982,207.538 618.131,201.896 617.893,200.251 617.713,199.719 617.893,200.251 618.131,201.896 618.982,207.538 620.56,226.184 L621.9,226.1 Q623.575,225.933 628.516,220.991 632.871,216.804 636.137,218.144 639.069,219.4 656.656,244.86 676.924,270.655 693.506,274.675 678.599,275.178 656.489,292.179 649.621,297.455 642.838,303.82 L641.833,304.741 Q643.025,317.471 646.941,361.021 L647.863,360.938 Q652.218,358.509 682.703,334.556 712.099,311.358 721.563,303.15 728.598,297.036 734.376,287.405 737.308,282.464 740.825,276.35 742.5,274.424 746.101,271.744 749.033,269.064 749.2,264.625 749.368,260.27 717.543,239.751 682.284,217.809 675.5,212.7 655.567,197.709 646.271,191.679 635.196,184.418 627.679,181.21 621.433,178.552 617.713,178.781 M558.166,173.673 Q560.679,173.254 563.024,172.835 566.793,172.835 566.541,177.441 573.744,176.604 576.591,177.441 579.606,178.363 579.522,181.629 L584.213,183.806 Q587.506,177.404 595.519,172.081 600.125,168.983 604.061,167.978 604.123,167.964 604.145,167.894 L603.056,161.194 Q604.313,161.11 601.884,158.179 597.445,153.07 593.844,148.631 588.986,142.601 572.069,137.158 557.245,132.384 549.037,132.3 522.74,132.049 504.65,139.419 493.427,144.025 483.377,157.928 481.451,160.562 479.86,162.953 475.369,170.071 473.997,175.431 L473.997,177.441 Q474.165,177.441 474.919,177.693 475.756,177.86 476.343,177.86 479.357,177.86 482.372,175.431 485.806,172.584 489.072,171.998 L489.072,174.091 492.841,174.091 Q495.354,173.589 500.127,172.165 503.812,170.993 504.566,171.16 L504.566,173.254 Q505.404,173.254 508.754,173.673 514.281,173.673 519.641,170.741 L523.829,170.741 523.829,172.416 530.529,172.416 Q541.584,169.066 542.254,169.066 543.343,169.066 544.348,169.82 545.52,170.658 547.698,170.741 547.698,172.835 547.279,173.673 L558.166,173.673Z" test="Avatar Man" stroke-width="1.675"/>
      <path id="Layer2_0_1_STROKES" stroke="#009EFF" stroke-width="1.675" stroke-linejoin="round" stroke-linecap="round" fill="none" d="M579.522,181.629 Q579.606,178.363 576.591,177.441 573.744,176.604 566.541,177.441 566.793,172.835 563.024,172.835 560.679,173.254 558.166,173.673 L547.279,173.673 Q547.698,172.835 547.698,170.741 545.52,170.658 544.348,169.82 543.343,169.066 542.254,169.066 541.584,169.066 530.529,172.416 L523.829,172.416 523.829,170.741 519.641,170.741 Q514.281,173.673 508.754,173.673 505.404,173.254 504.566,173.254 L504.566,171.16 Q503.812,170.993 500.127,172.165 495.354,173.589 492.841,174.091 L489.072,174.091 489.072,171.998 Q485.806,172.584 482.372,175.431 479.357,177.86 476.343,177.86 475.756,177.86 474.919,177.693 474.165,177.441 473.997,177.441 L473.997,175.431 Q475.369,170.071 479.902,162.994 481.451,160.562 483.377,157.928 493.427,144.025 504.65,139.419 522.74,132.049 549.037,132.3 557.245,132.384 572.069,137.158 588.986,142.601 593.844,148.631 597.445,153.07 601.884,158.179 604.313,161.11 603.056,161.194 M604.187,167.936 Q604.249,167.942 604.313,167.936 606.845,167.376 612.269,167.056 616.205,166.889 618.634,165.297 619.974,164.46 621.9,162.869 622.654,162.45 619.555,167.81 618.131,170.239 616.959,172.584 616.242,173.992 615.661,175.348 615.522,175.627 615.409,175.892 615.165,176.414 614.949,176.939 614.818,177.234 614.698,177.525 M617.713,178.781 Q621.433,178.552 627.721,181.252 635.196,184.418 646.271,191.679 655.567,197.709 675.5,212.7 682.284,217.809 717.543,239.751 749.368,260.27 749.2,264.625 749.033,269.064 746.101,271.744 742.5,274.424 740.825,276.35 737.308,282.464 734.376,287.405 728.598,297.036 721.563,303.15 712.099,311.358 682.703,334.556 652.218,358.509 647.863,360.938 647.429,361.221 647.025,361.482 642.151,364.644 639.99,365.879 636.137,368.14 632.787,367.638 M616.959,172.584 Q615.654,174.014 614.572,174.845 613.478,175.642 612.604,175.85 609.421,176.101 605.569,176.688 600.627,177.441 597.948,179.284 594.346,182.383 590.912,185.063 586.641,188.413 583.961,190.004 L582.119,190.925 Q582.522,187.23 584.254,183.848 M578.685,181.629 L579.522,181.629 M584.254,183.848 Q587.506,177.404 595.519,172.081 600.125,168.983 604.061,167.978 604.123,167.964 604.187,167.936 M614.698,177.525 Q614.654,177.631 614.614,177.734 613.706,180.011 613.106,182.131 611.515,187.826 609.002,196.536 608.946,196.689 608.877,196.829 606.54,202.885 601.8,205.581 591.834,211.276 586.306,213.956 M590.075,222.331 Q589.656,228.445 591.583,269.399 591.653,270.91 591.708,272.372 593.229,304.331 593.425,314.038 593.423,314.101 593.425,314.163 593.453,316.366 593.425,317.388 593.09,330.536 595.519,351.306 595.854,354.238 600.46,351.809 605.066,349.296 604.731,347.538 604.564,346.281 606.49,346.951 608.081,347.538 608.5,347.956 608.584,348.04 614.781,326.6 L619.806,334.975 Q619.89,335.059 622.738,316.55 L627.762,318.644 Q627.86,318.743 627.218,309.892 627.213,309.83 627.218,309.766 626.222,296.095 623.491,261.359 621.835,240.133 620.602,226.184 618.982,207.538 618.131,201.896 617.893,200.251 617.713,199.719 M641.833,304.783 L642.838,303.82 Q649.621,297.455 656.489,292.179 678.599,275.178 693.506,274.675 676.924,270.655 656.656,244.86 639.069,219.4 636.137,218.144 632.871,216.804 628.516,220.991 623.575,225.933 621.9,226.1 M527.681,219.4 Q528.658,219.557 530.696,219.651 533.021,219.735 536.726,219.735 543.259,219.651 546.106,219.4 551.382,218.898 552.053,218.73 555.402,217.809 555.738,215.213 M576.675,286.4 Q577.512,291.844 579.439,299.716 581.784,309.18 583.794,314.038 M483.294,283.888 Q483.294,283.971 483.629,292.514 483.88,298.628 486.225,302.731 486.979,304.048 488.109,305.328 491.54,309.158 498.452,312.614 508,317.471 517.213,317.806 L520.604,318.058 520.73,318.058 Q529.608,318.393 532.287,318.225 536.894,317.89 542.338,316.131 546.358,314.875 557.161,305.16 564.839,298.185 572.99,289.666 573.096,289.564 573.199,289.457 573.263,289.397 573.325,289.331 573.41,289.251 573.493,289.164 574.779,287.799 576.089,286.4 576.174,286.31 576.256,286.233 576.29,286.184 576.34,286.149 576.353,286.1 576.382,286.065 586.243,275.551 587.563,272.581 M520.563,318.644 Q519.809,322.245 518.385,330.453 516.961,337.571 514.7,341.256 M637.394,309.013 L641.833,304.783 M628.181,375.594 Q628.098,375.761 619.639,397.788 613.609,413.449 611.431,422.494 608.751,433.465 606.406,466.128 604.061,497.953 605.15,504.988 M556.91,418.641 Q557.412,420.484 559.088,420.986 559.59,421.154 560.93,421.154 563.108,421.154 563.945,420.149 564.28,419.814 565.62,416.715 M523.41,406.498 Q523.242,421.74 524.331,424.085 526.09,428.273 535.973,428.273 540.746,428.273 541.165,428.189 541.667,428.105 543.51,427.016 M524.666,458.004 Q523.829,460.516 523.829,463.28 523.829,467.886 527.514,468.138 529.943,468.221 537.647,468.054 M521.735,492.76 Q526.006,495.691 528.77,496.361 530.78,496.78 534.297,496.11 M564.531,610.931 Q558.25,613.863 541.416,617.045 524.415,620.228 506.325,621.819 490.664,623.243 453.814,622.489 426.009,621.986 410.012,620.981 397.701,620.228 372.744,617.631 366.546,616.961 361.94,617.966 358.674,618.72 357.669,618.05 M478.269,162.031 Q475.086,160.105 471.317,158.095 463.78,154.159 461.519,154.494 459.09,154.829 461.1,166.805 462.775,177.023 464.45,181.294 M468.637,192.6 Q469.307,195.364 471.066,200.891 472.071,205.33 469.475,207.256 466.277,209.64 463.236,211.863 L463.194,211.904 Q417.498,245.835 411.687,247.875 406.579,249.383 405.323,249.801 403.564,250.471 403.312,252.063 402.894,255.329 402.726,266.551 402.475,279.449 403.312,282.213 406.16,293.603 428.102,326.014 449.626,357.755 462.356,370.15 M470.312,221.494 Q472.909,222.834 478.101,223.504 478.312,223.536 478.52,223.546 483.421,224.247 488.319,224.006 491.417,223.839 498.62,222.666 504.482,221.661 506.325,221.913 M469.894,243.269 Q468.889,244.944 458.085,255.748 448.286,265.546 445.606,267.975 M490.329,262.866 Q494.097,262.866 498.285,262.029 L514.616,262.029 Q509.591,267.389 506.744,270.236 501.468,275.429 500.211,275.429 497.95,275.429 494.6,270.739 491.166,265.379 489.91,264.123 M436.394,263.369 Q437.831,266.841 440.916,271.241 440.95,271.29 441,271.325 448.678,282.336 466.544,299.13 474.843,306.924 480.949,312.865 495.077,326.57 497.531,330.369 M469.475,393.6 Q468.889,406.916 471.569,413.281 473.244,417.134 478.352,421.489 483.629,425.76 488.319,427.1 M483.713,434.638 Q483.796,437.234 483.377,447.954 483.21,458.004 484.55,460.6 486.141,463.699 490.077,466.295 493.93,468.808 496.275,468.556 M489.575,471.906 Q489.659,474.67 489.659,478.941 489.826,482.124 491.25,484.05 491.417,484.301 495.94,487.4 498.955,489.494 498.787,493.263 498.62,496.11 496.861,503.145 495.354,509.008 495.856,510.85 M475.338,522.994 Q455.74,519.393 432.039,515.708 384.72,508.421 364.871,508.421 351.639,508.421 336.564,505.658 324.671,503.48 322.159,504.234 317.804,505.574 313.7,512.441 309.596,519.393 309.931,525.088 310.182,528.94 311.522,539.158 312.611,548.286 311.606,551.888 M474.919,547.281 Q467.214,548.538 431.704,549.291 393.179,550.129 386.981,550.631 380.114,551.218 358.255,554.735 338.406,557.918 330.45,558.169 320.986,558.504 312.611,557.331 308.256,556.745 301.975,555.238 298.709,554.484 295.359,556.745 293.6,558.001 289.412,562.356 284.639,567.298 288.994,577.85 289.831,579.944 288.407,591.92 286.816,603.98 287.737,606.325 L290.669,613.444 Q293.935,622.405 295.275,631.869 M354.319,606.325 Q355.491,610.094 357.669,620.898 360.014,632.455 359.762,634.8" test="Avatar Man"/>
      <path id="Layer2_0_2_STROKES" stroke="#FF0" stroke-width="1.675" stroke-linejoin="round" stroke-linecap="round" fill="none" d="M530.529,222.666 Q529.691,227.356 531.366,230.79 533.125,234.391 536.391,234.391 537.731,234.391 539.574,233.386 541.667,232.214 542.254,230.623 M478.185,226.435 Q477.347,232.298 477.347,232.716 477.347,234.42 478.604,236.234 479.272,237.182 480.279,238.16 483.377,241.091 486.56,241.091 488.235,241.091 489.324,239.416 489.994,238.495 491.166,236.485" test="Avatar Man"/>
      <path id="Layer2_0_3_STROKES" stroke="#FFF" stroke-width="1.675" stroke-linejoin="round" stroke-linecap="round" fill="none" d="M559.841,268.31 Q565.453,270.571 565.704,274.34 565.72,274.578 565.746,274.843 565.741,274.906 565.746,274.968 L565.746,275.094 Q565.777,277.273 565.285,281.291 M552.304,283.385 Q557.823,282.068 561.181,278.025 562.307,276.672 563.191,275.01" test="Avatar Man"/>
      <path id="Layer2_0_4_STROKES" stroke="#F90" stroke-width="1.675" stroke-linejoin="round" stroke-linecap="round" fill="none" d="M495.437,513.362 Q497.196,513.195 512.522,519.476 531.618,525.674 551.55,525.506 570.729,525.339 587.646,520.481 601.884,516.378 603.056,516.713 608.249,518.053 612.353,527.265 617.545,538.739 614.781,553.563 611.348,572.239 602.554,585.974 592.252,601.97 577.094,606.744 L565.201,610.429 Q565.034,610.429 566.206,609.173 567.714,607.498 566.206,606.325 559.004,597.029 552.639,589.073 540.16,573.411 531.869,569.894 519.222,564.534 506.827,558.253 491.836,550.464 488.737,546.863 485.89,543.513 485.304,533.714 485.136,523.58 484.969,521.737 484.718,519.225 487.732,517.215 489.407,516.043 495.437,513.362Z" test="Avatar Man"/>
    </g>
    <g id="Avatar-Lady">
      <path fill="#000" stroke="none" d="M251.593,419.126 Q247.881,418.661 244.763,418.884 236.621,419.966 233.169,420.316 227.527,420.889 221.394,419.13 217.746,418.394 212.479,415.952 202.029,411.058 192.441,402.079 182.972,393.213 176.073,382.474 L174.408,383.664 Q174.628,390.021 172.411,405.048 170.775,416.471 171.195,424.908 171.269,426.479 171.418,427.948 171.726,430.979 173.888,445.561 176.025,466.611 174.277,474.53 173.115,479.837 171.338,485.802 170.343,490.242 170.959,496.304 171.302,499.68 172.486,503.805 L172.495,503.889 Q173.586,507.705 175.379,512.188 179.048,521.513 179.535,526.313 179.792,528.839 179.114,531.375 178.741,532.731 178.216,533.422 L179.784,534.624 Q180.016,536.54 180.104,540.291 180.113,540.479 180.138,540.628 180.265,545.81 180.168,554.321 L180.176,554.405 Q180.144,557.81 180.069,561.732 L183.761,563.739 Q186.017,559.889 191.844,552.03 200.005,541.078 201.911,537.226 L202.246,536.342 Q205.49,532.269 207.971,524.021 210.784,513.187 212.811,506.346 213.252,504.826 213.615,503.372 213.816,502.853 213.933,502.318 214.014,502.205 213.992,502.057 214.064,501.992 214.059,501.88 L214.059,501.88 Q218.071,488.248 220.653,479.689 225.981,461.794 229.152,453.645 230.609,449.846 232.702,445.884 233.535,444.282 234.415,442.647 L234.634,442.285 234.709,442.192 Q236.998,438.389 239.793,434.445 246.263,425.281 251.377,421.189 L251.593,419.126 M216.022,270.721 L214.184,258.488 213.763,258.53 Q204.332,259.488 198.835,260.642 187.765,263.042 179.224,267.737 171.021,272.398 163.654,279.441 160.863,282.078 158.172,284.932 158.174,284.972 158.096,285.025 157.909,285.258 157.634,285.497 153.666,289.963 150.002,294.949 143.716,303.413 141.539,312.141 139.355,320.785 139.386,330.309 L139.281,333.467 Q141.98,333.556 145.261,333.711 150.651,334.014 158.43,337.733 158.832,337.946 164.018,340.824 164.067,340.836 164.102,340.815 165.862,341.846 168.164,343.125 165.862,341.846 164.102,340.815 164.067,340.836 164.018,340.824 158.832,337.946 158.43,337.733 150.651,334.014 145.261,333.711 141.98,333.556 139.281,333.467 L137.724,344.94 Q139.477,345.148 141.346,345.423 155.497,347.388 160.86,346.589 155.497,347.388 141.346,345.423 139.477,345.148 137.724,344.94 137.551,344.911 137.379,344.89 125.644,343.395 119.365,344.252 L115.263,349.092 Q117.587,351.078 122.767,355.135 129.657,360.493 133.92,362.765 134.745,363.156 135.437,363.462 141.319,366.097 147.878,365.346 152.669,364.774 159.626,365.429 165.117,365.892 166.741,365.132 L172.191,366.024 170.964,373.21 175.963,382.23 Q176.051,382.367 176.073,382.474 182.972,393.213 192.441,402.079 202.029,411.058 212.479,415.952 217.746,418.394 221.394,419.13 227.527,420.889 233.169,420.316 236.621,419.966 244.763,418.884 247.881,418.661 251.593,419.126 L251.677,419.117 Q254.58,419.547 257.843,420.363 267.784,422.756 270.707,423.055 276.99,423.778 280.499,422.315 282.124,421.555 286.363,418.062 288.953,415.928 290.297,408.22 291.689,398.466 292.767,393.167 293.979,387.515 299.528,375.978 300.259,374.45 300.93,373.028 305.476,363.357 307.123,358.618 307.304,358.106 307.45,357.649 309.956,349.653 306.699,340.201 304.17,332.887 299.784,328.228 L293.38,320.457 Q292.872,320.862 292.177,321.174 286.95,323.321 286.63,317.654 L281.861,315.927 266.508,320.548 Q266.629,320.968 266.762,321.373 266.516,321.135 266.205,320.919 263.456,318.313 259.326,316.003 250.232,311.057 242.538,313.2 235.097,315.316 222.899,324.211 211.241,333.286 205.344,337.308 204.556,337.92 203.838,338.396 199.859,341.097 185.531,349.953 184.093,350.848 182.805,351.591 179.081,354.004 176.739,355.525 174.276,357.297 173.51,358.064 174.276,357.297 176.739,355.525 179.081,354.004 182.805,351.591 184.093,350.848 185.531,349.953 199.859,341.097 203.838,338.396 204.556,337.92 205.344,337.308 211.241,333.286 222.899,324.211 235.097,315.316 242.538,313.2 250.232,311.057 259.326,316.003 263.456,318.313 266.205,320.919 L266.508,320.548 Q266.443,320.344 266.381,320.136 265.355,316.854 264.467,313.014 262.457,304.116 263.361,300.452 264.081,297.486 270.854,293.821 276.887,290.401 276.278,288.591 274.595,283.743 266.466,276.572 L258.692,270.386 Q246.457,280.321 235.293,289.606 223.617,299.427 213.14,308.529 195.513,324.27 189.079,329.602 181.54,335.861 175.368,339.501 173.319,340.755 171.421,341.688 173.319,340.755 175.368,339.501 181.54,335.861 189.079,329.602 195.513,324.27 213.14,308.529 223.617,299.427 235.293,289.606 L229.092,282.154 Q228.232,281.22 223.088,276.639 217.48,271.679 216.022,270.721 M252.551,329.707 Q251.244,328.564 247.226,328.376 244.182,328.234 235.538,333.901 232.766,335.758 229.422,338.18 215.635,348.172 213.277,348.412 215.635,348.172 229.422,338.18 232.766,335.758 235.538,333.901 244.182,328.234 247.226,328.376 251.244,328.564 252.551,329.707 253.858,330.85 258.055,332.806 253.858,330.85 252.551,329.707 M248.556,343.979 Q250.43,341.492 250.276,339.976 250.233,339.555 247.914,337.664 250.233,339.555 250.276,339.976 250.43,341.492 248.556,343.979 246.539,346.736 244.434,346.949 238.287,347.573 237.842,343.195 237.774,342.521 237.833,342.26 238.034,341.729 239.159,339.403 238.034,341.729 237.833,342.26 237.774,342.521 237.842,343.195 238.287,347.573 244.434,346.949 246.539,346.736 248.556,343.979 M235.265,398.241 Q234.953,399.089 234.418,399.943 232.964,402.387 232.022,403.164 232.964,402.387 234.418,399.943 234.953,399.089 235.265,398.241 236.402,396.034 236.219,394.231 L235.677,392.244 236.219,394.231 Q236.402,396.034 235.265,398.241 M273.945,365.305 Q276.077,365.088 278.801,363.706 281.753,362.315 285.364,359.637 290.514,355.735 291.62,353.387 292.05,352.601 291.988,351.988 291.92,351.315 290.005,349.212 288.174,347.101 287.475,346.917 288.174,347.101 290.005,349.212 291.92,351.315 291.988,351.988 292.05,352.601 291.62,353.387 290.514,355.735 285.364,359.637 281.753,362.315 278.801,363.706 276.077,365.088 273.945,365.305 270.661,365.638 268.232,363.503 264.395,360.064 264.126,359.922 264.395,360.064 268.232,363.503 270.661,365.638 273.945,365.305 M293.553,367.397 Q293.484,366.723 292.363,365.731 293.484,366.723 293.553,367.397 293.664,368.492 293.337,369.46 293.01,370.429 292.245,371.273 290.631,372.968 288.189,373.216 287.263,373.31 285.249,372.749 283.32,372.179 282.055,371.457 283.32,372.179 285.249,372.749 287.263,373.31 288.189,373.216 290.631,372.968 292.245,371.273 293.01,370.429 293.337,369.46 293.664,368.492 293.553,367.397 M256.222,401.047 Q259.901,400.418 263.664,399.78 259.901,400.418 256.222,401.047 246.188,403.597 237.069,399.248 246.188,403.597 256.222,401.047 M191.057,301.328 Q186.731,297.259 180.345,295.526 174.043,293.784 168.731,295.089 174.043,293.784 180.345,295.526 186.731,297.259 191.057,301.328Z" test="Avatar Lady" stroke-width="1.693"/>
      <path id="Layer1_0_1_STROKES" stroke="#009EFF" stroke-width="1.693" stroke-linejoin="round" stroke-linecap="round" fill="none" d="M281.861,315.927 Q280.449,312.072 283.41,310.24 286.279,308.333 289.048,307.116 M256.656,266.254 Q256.832,265.471 256.789,265.05 256.703,264.208 253.378,259.101 249.453,253.12 248.828,251.992 246.531,247.802 241.957,247.161 237.283,247.21 235.606,246.614 236.071,247.843 236.49,251.969 L236.938,258.049 Q236.694,258.158 234.773,257.673 232.684,257.205 231.757,257.299 228.474,257.632 226.688,257.643 222.427,257.565 217.712,258.044 L214.184,258.488 M216.022,270.721 Q217.48,271.679 223.088,276.639 228.232,281.22 229.092,282.154 M235.606,246.614 Q235.594,246.531 235.514,246.539 L235.488,246.286 Q235.587,246.445 235.606,246.614Z M213.763,258.53 Q213.746,258.362 213.83,258.353 214.008,258.5 214.184,258.488 L213.763,258.53 Q204.332,259.488 198.835,260.642 187.765,263.042 179.224,267.737 171.021,272.398 163.654,279.441 160.863,282.078 158.214,284.928 158.174,284.972 158.139,285.02 157.909,285.258 157.676,285.493 153.666,289.963 150.002,294.949 143.716,303.413 141.539,312.141 139.355,320.785 139.386,330.309 M139.286,333.51 Q141.98,333.556 145.261,333.711 150.651,334.014 158.43,337.733 158.832,337.946 164.018,340.824 164.067,340.836 164.106,340.857 165.862,341.846 168.164,343.125 M258.055,332.806 Q253.858,330.85 252.551,329.707 251.244,328.564 247.226,328.376 244.182,328.234 235.542,333.944 232.766,335.758 229.422,338.18 215.635,348.172 213.277,348.412 M264.126,359.922 Q264.395,360.064 268.232,363.503 270.661,365.638 273.945,365.305 276.077,365.088 278.848,363.743 281.753,362.315 285.364,359.637 290.514,355.735 291.662,353.383 292.05,352.601 291.988,351.988 291.92,351.315 290.005,349.212 288.174,347.101 287.475,346.917 M299.784,328.228 Q304.17,332.887 306.699,340.201 309.956,349.653 307.45,357.649 307.304,358.106 307.123,358.618 305.476,363.357 300.93,373.028 300.259,374.45 299.528,375.978 293.979,387.515 292.767,393.167 291.689,398.466 290.297,408.22 288.953,415.928 286.363,418.062 282.124,421.555 280.499,422.315 276.99,423.778 270.707,423.055 267.784,422.756 257.843,420.363 254.58,419.547 251.681,419.159 L251.597,419.168 M251.377,421.189 Q246.263,425.281 239.793,434.445 236.998,438.389 234.752,442.188 L234.676,442.281 234.458,442.643 Q233.535,444.282 232.702,445.884 230.609,449.846 229.152,453.645 225.981,461.794 220.653,479.689 218.071,488.248 214.101,501.876 L214.063,501.922 Q214.064,501.992 214.034,502.053 214.014,502.205 213.98,502.356 213.816,502.853 213.657,503.367 213.252,504.826 212.811,506.346 210.784,513.187 207.971,524.021 205.49,532.269 202.246,536.342 M201.911,537.226 Q200.005,541.078 191.844,552.03 186.017,559.889 183.765,563.781 183.055,565.043 182.703,565.888 M282.055,371.457 Q283.32,372.179 285.249,372.749 287.263,373.31 288.189,373.216 290.631,372.968 292.245,371.273 293.01,370.429 293.337,369.46 293.664,368.492 293.553,367.397 293.484,366.723 292.363,365.731 M251.597,419.168 Q247.881,418.661 244.763,418.884 236.621,419.966 233.169,420.316 227.527,420.889 221.394,419.13 217.746,418.394 212.479,415.952 202.029,411.058 192.441,402.079 182.972,393.213 176.12,382.512 M174.408,383.664 Q174.628,390.021 172.411,405.048 170.775,416.471 171.195,424.908 171.269,426.479 171.418,427.948 171.726,430.979 173.888,445.561 176.025,466.611 174.277,474.53 173.115,479.837 171.338,485.802 170.343,490.242 170.959,496.304 171.302,499.68 172.49,503.847 L172.495,503.889 Q173.586,507.705 175.379,512.188 179.048,521.513 179.535,526.313 179.792,528.839 179.114,531.375 178.741,532.731 178.22,533.465 M179.784,534.624 Q180.016,536.54 180.108,540.333 180.113,540.479 180.138,540.628 180.265,545.81 180.172,554.363 L180.176,554.405 Q180.144,557.81 180.069,561.732 M230.124,455.673 L230.106,460.524 Q230.191,461.366 231.123,464.674 232.054,467.982 232.14,468.824 232.225,469.666 233.53,474.978 234.751,480.299 234.836,481.141 235.555,488.213 228.292,518.895 220.945,549.585 221.586,555.9 222.21,562.047 232.951,575.673 241.347,586.304 251.653,596.487 259.117,603.81 278.271,639.125 278.382,640.22 279.081,640.404 279.688,640.513 279.712,639.915 M194.641,596.321 Q196.865,597.286 208.897,606.868 221.781,617.299 222.029,619.741 222.337,622.772 244.606,635.994 266.875,649.215 267.217,652.583 267.32,653.593 267.648,653.475 267.976,653.356 267.993,653.525 L268.607,652.867 M191.057,301.328 Q186.731,297.259 180.345,295.526 174.043,293.784 168.731,295.089 M139.286,333.51 Q139.203,333.528 139.117,333.527 139.03,333.525 138.949,333.544 134.854,333.458 132.157,333.68 124.899,334.247 119.875,336.714 113.64,339.814 112.933,340.396 111.756,341.367 112.079,343.716 112.504,346.225 113.947,347.865 114.343,348.263 115.073,348.899 115.165,348.971 115.258,349.05 L115.305,349.088 M119.365,344.252 Q125.644,343.395 137.379,344.89 137.551,344.911 137.724,344.94 M115.305,349.088 Q117.587,351.078 122.767,355.135 129.657,360.493 133.962,362.761 134.745,363.156 135.437,363.462 141.319,366.097 147.878,365.346 152.669,364.774 159.626,365.429 165.117,365.892 166.741,365.132 M170.964,373.21 L175.963,382.23 Q176.051,382.367 176.12,382.512 M130.788,368.783 Q128.326,372.18 127.688,390.194 127.414,398.389 127.358,400.351 127.372,403.837 127.765,407.71 128.244,412.426 131.249,422.754 134.17,433.091 134.769,438.985 134.831,439.598 134.897,440.248 135.114,443.057 135.109,446.521 135.112,452.2 134.527,459.639 134.117,464.854 133.42,470.937 130.985,492.197 132.729,509.373 133.011,512.152 135.189,521.033 137.316,529.409 137.31,531.026 M137.724,344.94 Q139.477,345.148 141.346,345.423 155.497,347.388 160.86,346.589 M152.877,385.255 L153.259,387.342 Q153.456,389.279 152.723,394.628 151.998,400.061 152.275,404.456 152.518,409.365 153.356,417.617 153.45,418.543 154.086,421.456 154.73,424.453 154.842,425.548 154.848,425.608 154.854,425.674 155.069,427.939 154.919,432.175 154.834,437.203 154.205,438.543 153.541,439.546 152.357,442.133 151.514,443.877 151.12,445.023 150.726,446.169 150.781,446.716 M156.881,481.656 Q156.95,482.329 156.64,489.336 156.247,496.352 156.349,497.362 156.537,499.215 158.575,504.197 159.56,506.712 160.084,508.169 160.571,509.612 160.613,510.03 160.904,512.892 159.001,518.445 157.29,523.383 155.786,525.322 M134.897,440.248 Q130.158,441.325 125.156,447.362 120.516,452.903 119.674,458.722 119.433,460.419 119.511,462.142 119.722,467.565 121.307,524.229 123.017,579.605 123.531,585.508 123.933,589.465 124.036,596.345 124.061,597.355 124.103,598.252 L124.111,598.337 Q124.317,601.216 124.872,602.896 125.362,604.377 165.353,652.208 205.039,699.559 205.465,702.919 M117.619,458.591 Q109.955,463.537 102.223,467.81 91.183,473.865 84.827,474.936 71.549,476.54 56.022,477.776 25.043,480.156 13.882,478.312 M178.22,533.465 Q177.737,534.152 177.105,534.216 M180.069,561.732 L180.074,561.774 Q180.059,563.724 180.017,565.821 179.79,577.022 179.316,592.008 179.245,595.503 189.939,611.175 203.114,630.339 206.096,636.246 226.453,676.713 228.781,695.447 M28.892,579.21 Q35.57,579.638 52.419,583.881 70.76,588.569 80.914,593.068 94.718,599.152 98.298,600.064 105.729,602.032 114.972,600.073 118.719,599.267 121.858,598.353" test="Avatar Lady"/>
      <path id="Layer1_0_2_STROKES" stroke="#FFBC00" stroke-width="1.693" stroke-linejoin="round" stroke-linecap="round" fill="none" d="M235.335,289.601 Q246.457,280.321 258.692,270.386 L266.466,276.572 Q274.595,283.743 276.278,288.591 276.887,290.401 270.854,293.821 264.081,297.486 263.361,300.452 262.457,304.116 264.467,313.014 265.355,316.854 266.381,320.136 266.443,320.344 266.508,320.548 M171.421,341.688 Q173.319,340.755 175.372,339.543 181.54,335.861 189.079,329.602 195.513,324.27 213.14,308.529 223.617,299.427 235.335,289.601 M266.247,320.915 Q266.516,321.135 266.762,321.373 266.629,320.968 266.508,320.548 M266.247,320.915 Q263.456,318.313 259.326,316.003 250.232,311.057 242.538,313.2 235.097,315.316 222.899,324.211 211.241,333.286 205.39,337.345 204.556,337.92 203.838,338.396 199.859,341.097 185.531,349.953 184.093,350.848 182.809,351.633 179.081,354.004 176.786,355.562 174.276,357.297 173.51,358.064" test="Avatar Lady"/>
      <path id="Layer1_0_3_STROKES" stroke="#FF0" stroke-width="1.693" stroke-linejoin="round" stroke-linecap="round" fill="none" d="M286.63,317.654 Q286.95,323.321 292.177,321.174 292.872,320.862 293.422,320.453 295.343,318.964 295.327,316.176 295.289,313.287 292.433,312.812 M239.159,339.403 Q238.034,341.729 237.833,342.26 237.774,342.521 237.842,343.195 238.287,347.573 244.434,346.949 246.539,346.736 248.556,343.979 250.43,341.492 250.276,339.976 250.233,339.555 247.914,337.664" test="Avatar Lady"/>
      <path id="Layer1_0_4_STROKES" stroke="#FFF" stroke-width="1.693" stroke-linejoin="round" stroke-linecap="round" fill="none" d="M235.677,392.244 L236.219,394.231 Q236.402,396.034 235.312,398.278 234.953,399.089 234.418,399.943 232.964,402.387 232.022,403.164 M237.069,399.248 Q246.188,403.597 256.222,401.047 259.901,400.418 263.664,399.78" test="Avatar Lady"/>
    </g>
  </g>
</svg>