<?xml version="1.0" encoding="utf-8"?>
<svg id="EdithAnim13" image-rendering="inherit" baseProfile="basic" version="1.1" x="0px" y="0px" width="800" height="600" xmlns="http://www.w3.org/2000/svg" xmlns:xlink="http://www.w3.org/1999/xlink">
  <g id="22_Avatarf4r1" overflow="visible">
    <g id="Avatar-Manf0r1">
      <g id="Tailf0r1">
        <path id="Layer3_0_1_STROKES" stroke="#009EFF" stroke-width="2.303" stroke-linejoin="round" stroke-linecap="round" fill="none" d="M650.79,1003.242 Q649.628,986.32 648.987,969.389 648.413,952.971 643.079,937.465 637.217,920.576 620.884,912.893 601.035,903.636 598.161,924.336 597.741,927.352 599.713,929 604.375,936.359 611.004,940.43 617.933,937.9 623.144,942.679 629.418,948.481 632.179,957.18 638.632,977.708 643.772,998.408 645.224,1004.2 644.249,1010.076" test="Tail_23242324"/>
      </g>
      <path fill="#000" stroke="none" d="M612.353,917.165 Q608.249,907.953 603.056,906.613 601.884,906.278 587.646,910.381 570.729,915.239 551.55,915.406 531.618,915.574 512.522,909.376 497.196,903.095 495.437,903.263 489.407,905.943 487.732,907.115 484.718,909.125 484.969,911.638 485.136,913.48 485.304,923.614 485.89,933.413 488.737,936.763 491.836,940.364 506.827,948.153 519.222,954.434 531.869,959.794 540.16,963.311 552.639,978.973 559.004,986.929 566.206,996.225 567.714,997.398 566.206,999.073 565.034,1000.329 565.201,1000.329 L577.094,996.644 Q592.252,991.87 602.554,975.874 611.348,962.139 614.781,943.463 617.545,928.639 612.353,917.165 M617.713,568.681 L614.698,567.425 Q614.654,567.531 614.614,567.593 613.706,569.911 613.106,572.031 611.515,577.726 609.002,586.436 608.946,586.589 608.835,586.688 606.54,592.785 601.8,595.481 591.834,601.176 586.306,603.856 L590.075,612.231 Q589.656,618.345 591.583,659.299 591.653,660.81 591.666,662.23 593.229,694.231 593.425,703.938 593.423,704.001 593.425,704.021 593.453,706.266 593.425,707.288 593.09,720.436 595.519,741.206 595.854,744.138 600.46,741.709 605.066,739.196 604.731,737.438 604.564,736.181 606.49,736.851 608.081,737.438 608.5,737.856 608.584,737.94 614.781,716.5 L619.806,724.875 Q619.89,724.959 622.738,706.45 L627.762,708.544 Q627.86,708.643 627.176,699.75 627.213,699.73 627.176,699.666 626.222,685.995 623.491,651.259 621.835,630.033 620.56,616.084 618.982,597.438 618.131,591.796 617.893,590.151 617.713,589.619 617.893,590.151 618.131,591.796 618.982,597.438 620.56,616.084 L621.9,616 Q623.575,615.833 628.516,610.891 632.871,606.704 636.137,608.044 639.069,609.3 656.656,634.76 676.924,660.555 693.506,664.575 678.599,665.078 656.489,682.079 649.621,687.355 642.838,693.72 L641.833,694.641 Q643.025,707.371 646.941,750.921 L647.863,750.838 Q652.218,748.409 682.703,724.456 712.099,701.258 721.563,693.05 728.598,686.936 734.376,677.305 737.308,672.364 740.825,666.25 742.5,664.324 746.101,661.644 749.033,658.964 749.2,654.525 749.368,650.17 717.543,629.651 682.284,607.709 675.5,602.6 655.567,587.609 646.271,581.579 635.196,574.318 627.679,571.11 621.433,568.452 617.713,568.681 M558.166,563.573 Q560.679,563.154 563.024,562.735 566.793,562.735 566.541,567.341 573.744,566.504 576.591,567.341 579.606,568.263 579.522,571.529 L584.213,573.706 Q587.506,567.304 595.519,561.981 600.125,558.883 604.061,557.878 604.123,557.864 604.145,557.794 L603.056,551.094 Q604.313,551.01 601.884,548.079 597.445,542.97 593.844,538.531 588.986,532.501 572.069,527.058 557.245,522.284 549.037,522.2 522.74,521.949 504.65,529.319 493.427,533.925 483.377,547.828 481.451,550.462 479.86,552.853 475.369,559.971 473.997,565.331 L473.997,567.341 Q474.165,567.341 474.919,567.593 475.756,567.76 476.343,567.76 479.357,567.76 482.372,565.331 485.806,562.484 489.072,561.898 L489.072,563.991 492.841,563.991 Q495.354,563.489 500.127,562.065 503.812,560.893 504.566,561.06 L504.566,563.154 Q505.404,563.154 508.754,563.573 514.281,563.573 519.641,560.641 L523.829,560.641 523.829,562.316 530.529,562.316 Q541.584,558.966 542.254,558.966 543.343,558.966 544.348,559.72 545.52,560.558 547.698,560.641 547.698,562.735 547.279,563.573 L558.166,563.573Z" test="Avatar Man" stroke-width="1.675"/>
      <path id="Layer2_0_1_STROKES" stroke="#009EFF" stroke-width="1.675" stroke-linejoin="round" stroke-linecap="round" fill="none" d="M579.522,571.529 Q579.606,568.263 576.591,567.341 573.744,566.504 566.541,567.341 566.793,562.735 563.024,562.735 560.679,563.154 558.166,563.573 L547.279,563.573 Q547.698,562.735 547.698,560.641 545.52,560.558 544.348,559.72 543.343,558.966 542.254,558.966 541.584,558.966 530.529,562.316 L523.829,562.316 523.829,560.641 519.641,560.641 Q514.281,563.573 508.754,563.573 505.404,563.154 504.566,563.154 L504.566,561.06 Q503.812,560.893 500.127,562.065 495.354,563.489 492.841,563.991 L489.072,563.991 489.072,561.898 Q485.806,562.484 482.372,565.331 479.357,567.76 476.343,567.76 475.756,567.76 474.919,567.593 474.165,567.341 473.997,567.341 L473.997,565.331 Q475.369,559.971 479.902,552.894 481.451,550.462 483.377,547.828 493.427,533.925 504.65,529.319 522.74,521.949 549.037,522.2 557.245,522.284 572.069,527.058 588.986,532.501 593.844,538.531 597.445,542.97 601.884,548.079 604.313,551.01 603.056,551.094 M604.187,557.836 Q604.249,557.842 604.313,557.836 606.845,557.276 612.269,556.956 616.205,556.789 618.634,555.198 619.974,554.36 621.9,552.769 622.654,552.35 619.555,557.71 618.131,560.139 616.959,562.484 616.242,563.892 615.661,565.248 615.522,565.527 615.409,565.792 615.165,566.314 614.949,566.839 614.818,567.134 614.698,567.425 M617.713,568.681 Q621.433,568.452 627.721,571.152 635.196,574.318 646.271,581.579 655.567,587.609 675.5,602.6 682.284,607.709 717.543,629.651 749.368,650.17 749.2,654.525 749.033,658.964 746.101,661.644 742.5,664.324 740.825,666.25 737.308,672.364 734.376,677.305 728.598,686.936 721.563,693.05 712.099,701.258 682.703,724.456 652.218,748.409 647.863,750.838 647.429,751.121 647.025,751.382 642.151,754.544 639.99,755.779 636.137,758.04 632.787,757.538 M616.959,562.484 Q615.654,563.914 614.572,564.745 613.478,565.542 612.604,565.75 609.421,566.001 605.569,566.588 600.627,567.341 597.948,569.184 594.346,572.283 590.912,574.963 586.641,578.313 583.961,579.904 L582.119,580.825 Q582.522,577.13 584.254,573.748 M578.685,571.529 L579.522,571.529 M584.254,573.748 Q587.506,567.304 595.519,561.981 600.125,558.883 604.061,557.878 604.123,557.864 604.187,557.836 M614.698,567.425 Q614.654,567.531 614.614,567.634 613.706,569.911 613.106,572.031 611.515,577.726 609.002,586.436 608.946,586.589 608.877,586.729 606.54,592.785 601.8,595.481 591.834,601.176 586.306,603.856 M590.075,612.231 Q589.656,618.345 591.583,659.299 591.653,660.81 591.708,662.272 593.229,694.231 593.425,703.938 593.423,704.001 593.425,704.063 593.453,706.266 593.425,707.288 593.09,720.436 595.519,741.206 595.854,744.138 600.46,741.709 605.066,739.196 604.731,737.438 604.564,736.181 606.49,736.851 608.081,737.438 608.5,737.856 608.584,737.94 614.781,716.5 L619.806,724.875 Q619.89,724.959 622.738,706.45 L627.762,708.544 Q627.86,708.643 627.218,699.792 627.213,699.73 627.218,699.666 626.222,685.995 623.491,651.259 621.835,630.033 620.602,616.084 618.982,597.438 618.131,591.796 617.893,590.151 617.713,589.619 M641.833,694.683 L642.838,693.72 Q649.621,687.355 656.489,682.079 678.599,665.078 693.506,664.575 676.924,660.555 656.656,634.76 639.069,609.3 636.137,608.044 632.871,606.704 628.516,610.891 623.575,615.833 621.9,616 M527.681,609.3 Q528.658,609.457 530.696,609.551 533.021,609.635 536.726,609.635 543.259,609.551 546.106,609.3 551.382,608.798 552.053,608.63 555.402,607.709 555.738,605.113 M576.675,676.3 Q577.512,681.744 579.439,689.616 581.784,699.08 583.794,703.938 M483.294,673.788 Q483.294,673.871 483.629,682.414 483.88,688.528 486.225,692.631 486.979,693.948 488.109,695.228 491.54,699.058 498.452,702.514 508,707.371 517.213,707.706 L520.604,707.958 520.73,707.958 Q529.608,708.293 532.287,708.125 536.894,707.79 542.338,706.031 546.358,704.775 557.161,695.06 564.839,688.085 572.99,679.566 573.096,679.464 573.199,679.357 573.263,679.297 573.325,679.231 573.41,679.151 573.493,679.064 574.779,677.699 576.089,676.3 576.174,676.21 576.256,676.133 576.29,676.084 576.34,676.049 576.353,676 576.382,675.965 586.243,665.451 587.563,662.481 M520.563,708.544 Q519.809,712.145 518.385,720.353 516.961,727.471 514.7,731.156 M637.394,698.913 L641.833,694.683 M628.181,765.494 Q628.098,765.661 619.639,787.688 613.609,803.349 611.431,812.394 608.751,823.365 606.406,856.028 604.061,887.853 605.15,894.888 M556.91,808.541 Q557.412,810.384 559.088,810.886 559.59,811.054 560.93,811.054 563.108,811.054 563.945,810.049 564.28,809.714 565.62,806.615 M523.41,796.398 Q523.242,811.64 524.331,813.985 526.09,818.173 535.973,818.173 540.746,818.173 541.165,818.089 541.667,818.005 543.51,816.916 M524.666,847.904 Q523.829,850.416 523.829,853.18 523.829,857.786 527.514,858.038 529.943,858.121 537.647,857.954 M521.735,882.66 Q526.006,885.591 528.77,886.261 530.78,886.68 534.297,886.01 M564.531,1000.831 Q558.25,1003.763 541.416,1006.945 524.415,1010.128 506.325,1011.719 490.664,1013.143 453.814,1012.389 426.009,1011.886 410.012,1010.881 397.701,1010.128 372.744,1007.531 366.546,1006.861 361.94,1007.866 358.674,1008.62 357.669,1007.95 M478.269,551.931 Q475.086,550.005 471.317,547.995 463.78,544.059 461.519,544.394 459.09,544.729 461.1,556.705 462.775,566.923 464.45,571.194 M468.637,582.5 Q469.307,585.264 471.066,590.791 472.071,595.23 469.475,597.156 466.277,599.54 463.236,601.763 L463.194,601.804 Q417.498,635.735 411.687,637.775 406.579,639.283 405.323,639.701 403.564,640.371 403.312,641.963 402.894,645.229 402.726,656.451 402.475,669.349 403.312,672.113 406.16,683.503 428.102,715.914 449.626,747.655 462.356,760.05 M470.312,611.394 Q472.909,612.734 478.101,613.404 478.312,613.436 478.52,613.446 483.421,614.147 488.319,613.906 491.417,613.739 498.62,612.566 504.482,611.561 506.325,611.813 M469.894,633.169 Q468.889,634.844 458.085,645.648 448.286,655.446 445.606,657.875 M490.329,652.766 Q494.097,652.766 498.285,651.929 L514.616,651.929 Q509.591,657.289 506.744,660.136 501.468,665.329 500.211,665.329 497.95,665.329 494.6,660.639 491.166,655.279 489.91,654.023 M436.394,653.269 Q437.831,656.741 440.916,661.141 440.95,661.19 441,661.225 448.678,672.236 466.544,689.03 474.843,696.824 480.949,702.765 495.077,716.47 497.531,720.269 M469.475,783.5 Q468.889,796.816 471.569,803.181 473.244,807.034 478.352,811.389 483.629,815.66 488.319,817 M483.713,824.538 Q483.796,827.134 483.377,837.854 483.21,847.904 484.55,850.5 486.141,853.599 490.077,856.195 493.93,858.708 496.275,858.456 M489.575,861.806 Q489.659,864.57 489.659,868.841 489.826,872.024 491.25,873.95 491.417,874.201 495.94,877.3 498.955,879.394 498.787,883.163 498.62,886.01 496.861,893.045 495.354,898.908 495.856,900.75 M475.338,912.894 Q455.74,909.293 432.039,905.608 384.72,898.321 364.871,898.321 351.639,898.321 336.564,895.558 324.671,893.38 322.159,894.134 317.804,895.474 313.7,902.341 309.596,909.293 309.931,914.988 310.182,918.84 311.522,929.058 312.611,938.186 311.606,941.788 M474.919,937.181 Q467.214,938.438 431.704,939.191 393.179,940.029 386.981,940.531 380.114,941.118 358.255,944.635 338.406,947.818 330.45,948.069 320.986,948.404 312.611,947.231 308.256,946.645 301.975,945.138 298.709,944.384 295.359,946.645 293.6,947.901 289.412,952.256 284.639,957.198 288.994,967.75 289.831,969.844 288.407,981.82 286.816,993.88 287.737,996.225 L290.669,1003.344 Q293.935,1012.305 295.275,1021.769 M354.319,996.225 Q355.491,999.994 357.669,1010.798 360.014,1022.355 359.762,1024.7" test="Avatar Man"/>
      <path id="Layer2_0_2_STROKES" stroke="#FF0" stroke-width="1.675" stroke-linejoin="round" stroke-linecap="round" fill="none" d="M530.529,612.566 Q529.691,617.256 531.366,620.69 533.125,624.291 536.391,624.291 537.731,624.291 539.574,623.286 541.667,622.114 542.254,620.523 M478.185,616.335 Q477.347,622.198 477.347,622.616 477.347,624.32 478.604,626.134 479.272,627.082 480.279,628.06 483.377,630.991 486.56,630.991 488.235,630.991 489.324,629.316 489.994,628.395 491.166,626.385" test="Avatar Man"/>
      <path id="Layer2_0_3_STROKES" stroke="#FFF" stroke-width="1.675" stroke-linejoin="round" stroke-linecap="round" fill="none" d="M559.841,658.21 Q565.453,660.471 565.704,664.24 565.72,664.478 565.746,664.743 565.741,664.806 565.746,664.868 L565.746,664.994 Q565.777,667.173 565.285,671.191 M552.304,673.285 Q557.823,671.968 561.181,667.925 562.307,666.572 563.191,664.91" test="Avatar Man"/>
      <path id="Layer2_0_4_STROKES" stroke="#F90" stroke-width="1.675" stroke-linejoin="round" stroke-linecap="round" fill="none" d="M495.437,903.263 Q497.196,903.095 512.522,909.376 531.618,915.574 551.55,915.406 570.729,915.239 587.646,910.381 601.884,906.278 603.056,906.613 608.249,907.953 612.353,917.165 617.545,928.639 614.781,943.463 611.348,962.139 602.554,975.874 592.252,991.87 577.094,996.644 L565.201,1000.329 Q565.034,1000.329 566.206,999.073 567.714,997.398 566.206,996.225 559.004,986.929 552.639,978.973 540.16,963.311 531.869,959.794 519.222,954.434 506.827,948.153 491.836,940.364 488.737,936.763 485.89,933.413 485.304,923.614 485.136,913.48 484.969,911.638 484.718,909.125 487.732,907.115 489.407,905.943 495.437,903.263Z" test="Avatar Man"/>
    </g>
    <g id="Avatar-Lady">
      <path fill="#000" stroke="none" d="M251.593,864.176 Q247.881,863.711 244.763,863.934 236.621,865.016 233.169,865.366 227.527,865.939 221.394,864.18 217.746,863.444 212.479,861.002 202.029,856.108 192.441,847.129 182.972,838.263 176.073,827.524 L174.408,828.714 Q174.628,835.071 172.411,850.098 170.775,861.521 171.195,869.958 171.269,871.529 171.418,872.998 171.726,876.029 173.888,890.611 176.025,911.661 174.277,919.58 173.115,924.887 171.338,930.852 170.343,935.292 170.959,941.354 171.302,944.73 172.486,948.855 L172.495,948.939 Q173.586,952.755 175.379,957.238 179.048,966.563 179.535,971.363 179.792,973.889 179.114,976.425 178.741,977.781 178.216,978.472 L179.784,979.674 Q180.016,981.59 180.104,985.341 180.113,985.529 180.138,985.678 180.265,990.86 180.168,999.371 L180.176,999.455 Q180.144,1002.86 180.069,1006.782 L183.761,1008.789 Q186.017,1004.939 191.844,997.079 200.005,986.128 201.911,982.276 L202.246,981.392 Q205.49,977.319 207.971,969.071 210.784,958.237 212.811,951.396 213.252,949.876 213.615,948.422 213.816,947.903 213.933,947.368 214.014,947.255 213.992,947.107 214.064,947.042 214.059,946.93 L214.059,946.93 Q218.071,933.298 220.653,924.739 225.981,906.844 229.152,898.695 230.609,894.896 232.702,890.934 233.535,889.332 234.415,887.697 L234.634,887.335 234.709,887.242 Q236.998,883.439 239.793,879.495 246.263,870.331 251.377,866.239 L251.593,864.176 M216.022,715.771 L214.184,703.538 213.763,703.58 Q204.332,704.538 198.835,705.692 187.765,708.092 179.224,712.787 171.021,717.448 163.654,724.491 160.863,727.128 158.172,729.982 158.174,730.022 158.096,730.075 157.909,730.308 157.634,730.547 153.666,735.013 150.002,739 143.716,748.463 141.539,757.191 139.355,765.835 139.386,775.359 L139.281,778.517 Q141.98,778.606 145.261,778.761 150.651,779.064 158.43,782.783 158.832,782.996 164.018,785.874 164.067,785.886 164.102,785.865 165.862,786.896 168.164,788.175 165.862,786.896 164.102,785.865 164.067,785.886 164.018,785.874 158.832,782.996 158.43,782.783 150.651,779.064 145.261,778.761 141.98,778.606 139.281,778.517 L137.724,789.99 Q139.477,790.198 141.346,790.473 155.497,792.438 160.86,791.639 155.497,792.438 141.346,790.473 139.477,790.198 137.724,789.99 137.551,789.961 137.379,789.94 125.644,788.445 119.365,789.302 L115.263,794.142 Q117.587,796.128 122.767,800.185 129.657,805.543 133.92,807.815 134.745,808.206 135.437,808.512 141.319,811.147 147.878,810.396 152.669,809.824 159.626,810.479 165.117,810.942 166.741,810.182 L172.191,811.074 170.964,818.26 175.963,827.28 Q176.051,827.417 176.073,827.524 182.972,838.263 192.441,847.129 202.029,856.108 212.479,861.002 217.746,863.444 221.394,864.18 227.527,865.939 233.169,865.366 236.621,865.016 244.763,863.934 247.881,863.711 251.593,864.176 L251.677,864.167 Q254.58,864.597 257.843,865.413 267.784,867.806 270.707,868.105 276.99,868.828 280.499,867.365 282.124,866.605 286.363,863.112 288.953,860.978 290.297,853.27 291.689,843.516 292.767,838.217 293.979,832.565 299.528,821.027 300.259,819.5 300.93,818.078 305.476,808.407 307.123,803.668 307.304,803.156 307.45,802.699 309.956,794.703 306.699,785.251 304.17,777.937 299.784,773.278 L293.38,765.507 Q292.872,765.912 292.177,766.224 286.95,768.371 286.63,762.704 L281.861,760.977 266.508,765.598 Q266.629,766.018 266.762,766.423 266.516,766.185 266.205,765.969 263.456,763.363 259.326,761.053 250.232,756.107 242.538,758.25 235.097,760.366 222.899,769.261 211.241,778.336 205.344,782.358 204.556,782.97 203.838,783.446 199.859,786.147 185.531,795.003 184.093,795.898 182.805,796.641 179.081,799.054 176.739,800.575 174.276,802.347 173.51,803.114 174.276,802.347 176.739,800.575 179.081,799.054 182.805,796.641 184.093,795.898 185.531,795.003 199.859,786.147 203.838,783.446 204.556,782.97 205.344,782.358 211.241,778.336 222.899,769.261 235.097,760.366 242.538,758.25 250.232,756.107 259.326,761.053 263.456,763.363 266.205,765.969 L266.508,765.598 Q266.443,765.394 266.381,765.186 265.355,761.904 264.467,758.064 262.457,749.166 263.361,745.502 264.081,742.536 270.854,738.871 276.887,735.451 276.278,733.641 274.595,728.793 266.466,721.622 L258.692,715.436 Q246.457,725.371 235.293,734.656 223.617,744.477 213.14,753.579 195.513,769.32 189.079,774.652 181.54,780.911 175.368,784.551 173.319,785.805 171.421,786.738 173.319,785.805 175.368,784.551 181.54,780.911 189.079,774.652 195.513,769.32 213.14,753.579 223.617,744.477 235.293,734.656 L229.092,727.204 Q228.232,726.27 223.088,721.689 217.48,716.729 216.022,715.771 M252.551,774.757 Q251.244,773.614 247.226,773.426 244.182,773.284 235.538,778.951 232.766,780.808 229.422,783.23 215.635,793.222 213.277,793.462 215.635,793.222 229.422,783.23 232.766,780.808 235.538,778.951 244.182,773.284 247.226,773.426 251.244,773.614 252.551,774.757 253.858,775.9 258.055,777.856 253.858,775.9 252.551,774.757 M248.556,789.029 Q250.43,786.542 250.276,785.026 250.233,784.605 247.914,782.714 250.233,784.605 250.276,785.026 250.43,786.542 248.556,789.029 246.539,791.786 244.434,791 238.287,792.623 237.842,788.245 237.774,787.571 237.833,787.31 238.034,786.779 239.159,784.453 238.034,786.779 237.833,787.31 237.774,787.571 237.842,788.245 238.287,792.623 244.434,791 246.539,791.786 248.556,789.029 M235.265,843.291 Q234.953,844.139 234.418,844.993 232.964,847.437 232.022,848.214 232.964,847.437 234.418,844.993 234.953,844.139 235.265,843.291 236.402,841.084 236.219,839.281 L235.677,837.294 236.219,839.281 Q236.402,841.084 235.265,843.291 M273.945,810.355 Q276.077,810.138 278.801,808.756 281.753,807.365 285.364,804.687 290.514,800.785 291.62,798.437 292.05,797.651 291.988,797.038 291.92,796.365 290.005,794.262 288.174,792.151 287.475,791.967 288.174,792.151 290.005,794.262 291.92,796.365 291.988,797.038 292.05,797.651 291.62,798.437 290.514,800.785 285.364,804.687 281.753,807.365 278.801,808.756 276.077,810.138 273.945,810.355 270.661,810.688 268.232,808.553 264.395,805.114 264.126,804.972 264.395,805.114 268.232,808.553 270.661,810.688 273.945,810.355 M293.553,812.447 Q293.484,811.773 292.363,810.781 293.484,811.773 293.553,812.447 293.664,813.541 293.337,814.51 293.01,815.479 292.245,816.323 290.631,818.018 288.189,818.266 287.263,818.36 285.249,817.799 283.32,817.229 282.055,816.507 283.32,817.229 285.249,817.799 287.263,818.36 288.189,818.266 290.631,818.018 292.245,816.323 293.01,815.479 293.337,814.51 293.664,813.541 293.553,812.447 M256.222,846.097 Q259.901,845.468 263.664,844.83 259.901,845.468 256.222,846.097 246.188,848.647 237.069,844.298 246.188,848.647 256.222,846.097 M191.057,746.378 Q186.731,742.309 180.345,740.576 174.043,738.834 168.731,740.139 174.043,738.834 180.345,740.576 186.731,742.309 191.057,746.378Z" test="Avatar Lady" stroke-width="1.693"/>
      <path id="Layer1_0_1_STROKES" stroke="#009EFF" stroke-width="1.693" stroke-linejoin="round" stroke-linecap="round" fill="none" d="M281.861,760.977 Q280.449,757.122 283.41,755.29 286.279,753.383 289.048,752.166 M256.656,711.304 Q256.832,710.521 256.789,710.1 256.703,709.258 253.378,704.151 249.453,698.17 248.828,697.042 246.531,692.852 241.957,692.211 237.283,692.26 235.606,691.664 236.071,692.893 236.49,697.019 L236.938,703.099 Q236.694,703.208 234.773,702.723 232.684,702.255 231.757,702.349 228.474,702.682 226.688,702.693 222.427,702.615 217.712,703.094 L214.184,703.538 M216.022,715.771 Q217.48,716.729 223.088,721.689 228.232,726.27 229.092,727.204 M235.606,691.664 Q235.594,691.581 235.514,691.589 L235.488,691.336 Q235.587,691.495 235.606,691.664Z M213.763,703.58 Q213.746,703.412 213.83,703.403 214.008,703.55 214.184,703.538 L213.763,703.58 Q204.332,704.538 198.835,705.692 187.765,708.092 179.224,712.787 171.021,717.448 163.654,724.491 160.863,727.128 158.214,729.978 158.174,730.022 158.139,730.07 157.909,730.308 157.676,730.543 153.666,735.013 150.002,739 143.716,748.463 141.539,757.191 139.355,765.835 139.386,775.359 M139.286,778.56 Q141.98,778.606 145.261,778.761 150.651,779.064 158.43,782.783 158.832,782.996 164.018,785.874 164.067,785.886 164.106,785.907 165.862,786.896 168.164,788.175 M258.055,777.856 Q253.858,775.9 252.551,774.757 251.244,773.614 247.226,773.426 244.182,773.284 235.542,778.994 232.766,780.808 229.422,783.23 215.635,793.222 213.277,793.462 M264.126,804.972 Q264.395,805.114 268.232,808.553 270.661,810.688 273.945,810.355 276.077,810.138 278.848,808.793 281.753,807.365 285.364,804.687 290.514,800.785 291.662,798.433 292.05,797.651 291.988,797.038 291.92,796.365 290.005,794.262 288.174,792.151 287.475,791.967 M299.784,773.278 Q304.17,777.937 306.699,785.251 309.956,794.703 307.45,802.699 307.304,803.156 307.123,803.668 305.476,808.407 300.93,818.078 300.259,819.5 299.528,821.027 293.979,832.565 292.767,838.217 291.689,843.516 290.297,853.27 288.953,860.978 286.363,863.112 282.124,866.605 280.499,867.365 276.99,868.828 270.707,868.105 267.784,867.806 257.843,865.413 254.58,864.597 251.681,864.209 L251.597,864.218 M251.377,866.239 Q246.263,870.331 239.793,879.495 236.998,883.439 234.752,887.238 L234.676,887.331 234.458,887.693 Q233.535,889.332 232.702,890.934 230.609,894.896 229.152,898.695 225.981,906.844 220.653,924.739 218.071,933.298 214.101,946.926 L214.063,946.972 Q214.064,947.042 214.034,947.103 214.014,947.255 213.98,947.406 213.816,947.903 213.657,948.417 213.252,949.876 212.811,951.396 210.784,958.237 207.971,969.071 205.49,977.319 202.246,981.392 M201.911,982.276 Q200.005,986.128 191.844,997.079 186.017,1004.939 183.765,1008.831 183.055,1010.093 182.703,1010.938 M282.055,816.507 Q283.32,817.229 285.249,817.799 287.263,818.36 288.189,818.266 290.631,818.018 292.245,816.323 293.01,815.479 293.337,814.51 293.664,813.541 293.553,812.447 293.484,811.773 292.363,810.781 M251.597,864.218 Q247.881,863.711 244.763,863.934 236.621,865.016 233.169,865.366 227.527,865.939 221.394,864.18 217.746,863.444 212.479,861.002 202.029,856.108 192.441,847.129 182.972,838.263 176.12,827.562 M174.408,828.714 Q174.628,835.071 172.411,850.098 170.775,861.521 171.195,869.958 171.269,871.529 171.418,872.998 171.726,876.029 173.888,890.611 176.025,911.661 174.277,919.58 173.115,924.887 171.338,930.852 170.343,935.292 170.959,941.354 171.302,944.73 172.49,948.897 L172.495,948.939 Q173.586,952.755 175.379,957.238 179.048,966.563 179.535,971.363 179.792,973.889 179.114,976.425 178.741,977.781 178.22,978.515 M179.784,979.674 Q180.016,981.59 180.108,985.383 180.113,985.529 180.138,985.678 180.265,990.86 180.172,999.413 L180.176,999.455 Q180.144,1002.86 180.069,1006.782 M230.124,900.723 L230.106,905.574 Q230.191,906.416 231.123,909.724 232.054,913.032 232.14,913.874 232.225,914.716 233.53,920.028 234.751,925.349 234.836,926.191 235.555,933.263 228.292,963.945 220.945,994.635 221.586,1000.95 222.21,1007.097 232.951,1020.723 241.347,1031.354 251.653,1041.537 259.117,1048.86 278.271,1084.175 278.382,1085.27 279.081,1085.454 279.688,1085.563 279.712,1084.965 M194.641,1041.371 Q196.865,1042.336 208.897,1051.918 221.781,1062.349 222.029,1064.791 222.337,1067.822 244.606,1081.044 266.875,1094.265 267.217,1097.633 267.32,1098.643 267.648,1098.525 267.976,1098.406 267.993,1098.575 L268.607,1097.917 M191.057,746.378 Q186.731,742.309 180.345,740.576 174.043,738.834 168.731,740.139 M139.286,778.56 Q139.203,778.578 139.117,778.577 139.03,778.575 138.949,778.594 134.854,778.508 132.157,778.73 124.899,779.297 119.875,781.764 113.64,784.864 112.933,785.446 111.756,786.417 112.079,788.766 112.504,791.275 113.947,792.915 114.343,793.313 115.073,793.949 115.165,794.021 115.258,794.1 L115.305,794.138 M119.365,789.302 Q125.644,788.445 137.379,789.94 137.551,789.961 137.724,789.99 M115.305,794.138 Q117.587,796.128 122.767,800.185 129.657,805.543 133.962,807.811 134.745,808.206 135.437,808.512 141.319,811.147 147.878,810.396 152.669,809.824 159.626,810.479 165.117,810.942 166.741,810.182 M170.964,818.26 L175.963,827.28 Q176.051,827.417 176.12,827.562 M130.788,813.833 Q128.326,817.23 127.688,835.244 127.414,843.439 127.358,845.401 127.372,848.887 127.765,852.76 128.244,857.476 131.249,867.804 134.17,878.141 134.769,884.035 134.831,884.648 134.897,885.298 135.114,888.107 135.109,891.571 135.112,897.25 134.527,904.689 134.117,909.904 133.42,915.987 130.985,937.247 132.729,954.423 133.011,957.202 135.189,966.083 137.316,974.459 137.31,976.076 M137.724,789.99 Q139.477,790.198 141.346,790.473 155.497,792.438 160.86,791.639 M152.877,830.305 L153.259,832.392 Q153.456,834.329 152.723,839.678 151.998,845.111 152.275,849.506 152.518,854.415 153.356,862.667 153.45,863.593 154.086,866.506 154.73,869.503 154.842,870.598 154.848,870.658 154.854,870.724 155.069,872.989 154.919,877.225 154.834,882.253 154.205,883.593 153.541,884.596 152.357,887.183 151.514,888.927 151.12,890.073 150.726,891.219 150.781,891.766 M156.881,926.706 Q156.95,927.379 156.64,934.386 156.247,941.402 156.349,942.412 156.537,944.265 158.575,949.247 159.56,951.762 160.084,953.219 160.571,954.662 160.613,955.08 160.904,957.942 159.001,963.495 157.29,968.433 155.786,970.372 M134.897,885.298 Q130.158,886.375 125.156,892.412 120.516,897.953 119.674,903.772 119.433,905.469 119.511,907.192 119.722,912.615 121.307,969.279 123.017,1024.655 123.531,1030.558 123.933,1034.515 124.036,1041.395 124.061,1042.405 124.103,1043.302 L124.111,1043.387 Q124.317,1046.266 124.872,1047.946 125.362,1049.427 165.353,1097.258 205.039,1144.609 205.465,1147.969 M117.619,903.641 Q109.955,908.587 102.223,912.86 91.183,918.915 84.827,919.986 71.549,921.589 56.022,922.826 25.043,925.206 13.882,923.362 M178.22,978.515 Q177.737,979.202 177.105,979.266 M180.069,1006.782 L180.074,1006.824 Q180.059,1008.774 180.017,1010.871 179.79,1022.072 179.316,1037.058 179.245,1040.553 189.939,1056.225 203.114,1075.389 206.096,1081.296 226.453,1121.763 228.781,1140.497 M28.892,1024.26 Q35.57,1024.688 52.419,1028.931 70.76,1033.619 80.914,1038.118 94.718,1044.202 98.298,1045.114 105.729,1047.082 114.972,1045.123 118.719,1044.317 121.858,1043.403" test="Avatar Lady"/>
      <path id="Layer1_0_2_STROKES" stroke="#FFBC00" stroke-width="1.693" stroke-linejoin="round" stroke-linecap="round" fill="none" d="M235.335,734.651 Q246.457,725.371 258.692,715.436 L266.466,721.622 Q274.595,728.793 276.278,733.641 276.887,735.451 270.854,738.871 264.081,742.536 263.361,745.502 262.457,749.166 264.467,758.064 265.355,761.904 266.381,765.186 266.443,765.394 266.508,765.598 M171.421,786.738 Q173.319,785.805 175.372,784.593 181.54,780.911 189.079,774.652 195.513,769.32 213.14,753.579 223.617,744.477 235.335,734.651 M266.247,765.965 Q266.516,766.185 266.762,766.423 266.629,766.018 266.508,765.598 M266.247,765.965 Q263.456,763.363 259.326,761.053 250.232,756.107 242.538,758.25 235.097,760.366 222.899,769.261 211.241,778.336 205.39,782.395 204.556,782.97 203.838,783.446 199.859,786.147 185.531,795.003 184.093,795.898 182.809,796.683 179.081,799.054 176.786,800.612 174.276,802.347 173.51,803.114" test="Avatar Lady"/>
      <path id="Layer1_0_3_STROKES" stroke="#FF0" stroke-width="1.693" stroke-linejoin="round" stroke-linecap="round" fill="none" d="M286.63,762.704 Q286.95,768.371 292.177,766.224 292.872,765.912 293.422,765.503 295.343,764.014 295.327,761.226 295.289,758.337 292.433,757.862 M239.159,784.453 Q238.034,786.779 237.833,787.31 237.774,787.571 237.842,788.245 238.287,792.623 244.434,791 246.539,791.786 248.556,789.029 250.43,786.542 250.276,785.026 250.233,784.605 247.914,782.714" test="Avatar Lady"/>
      <path id="Layer1_0_4_STROKES" stroke="#FFF" stroke-width="1.693" stroke-linejoin="round" stroke-linecap="round" fill="none" d="M235.677,837.294 L236.219,839.281 Q236.402,841.084 235.312,843.328 234.953,844.139 234.418,844.993 232.964,847.437 232.022,848.214 M237.069,844.298 Q246.188,848.647 256.222,846.097 259.901,845.468 263.664,844.83" test="Avatar Lady"/>
    </g>
  </g>
</svg>