<?xml version="1.0" encoding="utf-8"?>
<svg id="EdithAnim13" image-rendering="inherit" baseProfile="basic" version="1.1" x="0px" y="0px" width="800" height="600" xmlns="http://www.w3.org/2000/svg" xmlns:xlink="http://www.w3.org/1999/xlink">
  <g id="22_Avatarf40r1" overflow="visible">
    <g id="Avatar-Manf0r1">
      <g id="Tailf0r1">
        <path id="Layer3_0_1_STROKES" stroke="#009EFF" stroke-width="2.303" stroke-linejoin="round" stroke-linecap="round" fill="none" d="M650.79,610.392 Q649.628,593.47 648.987,576.539 648.413,560.121 643.079,544.615 637.217,527.726 620.884,520.043 601.035,510.786 598.161,531.486 597.741,534.502 599.713,537.149 604.375,543.509 611.004,547.58 617.933,545.05 623.144,549.829 629.418,555.631 632.179,564.33 638.632,584.858 643.772,605.558 645.224,611.35 644.249,617.226" test="Tail_2.3242325232423263e+312.3242325232423263e+31_2.3242325232423263e+312.3242325232423263e+31_2.3242325232423263e+312.3242325232423263e+31_2.3242325232423263e+312.3242325232423263e+31_2.3242325232423263e+312.3242325232423263e+31_2324232523242325"/>
      </g>
      <path fill="#000" stroke="none" d="M612.353,524.315 Q608.249,515.102 603.056,513.763 601.884,513.428 587.646,517.531 570.729,522.389 551.55,522.556 531.618,522.724 512.522,516.526 497.196,510.245 495.437,510.413 489.407,513.093 487.732,514.265 484.718,516.275 484.969,518.788 485.136,520.63 485.304,530.764 485.89,540.563 488.737,543.913 491.836,547.514 506.827,555.303 519.222,561.584 531.869,566.944 540.16,570.461 552.639,586.123 559.004,594.079 566.206,603.375 567.714,604.548 566.206,606.223 565.034,607.479 565.201,607.479 L577.094,603.794 Q592.252,599.02 602.554,583.024 611.348,569.289 614.781,550.613 617.545,535.789 612.353,524.315 M617.713,175.831 L614.698,174.575 Q614.654,174.681 614.614,174.743 613.706,177.061 613.106,179.181 611.515,184.876 609.002,193.586 608.946,193.739 608.835,193.838 606.54,199.935 601.8,202.631 591.834,208.326 586.306,211.006 L590.075,219.381 Q589.656,225.495 591.583,266.449 591.653,267.96 591.666,269.38 593.229,301.381 593.425,311.088 593.423,311.151 593.425,311.171 593.453,313.416 593.425,314.438 593.09,327.586 595.519,348.356 595.854,351.288 600.46,348.859 605.066,346.346 604.731,344.588 604.564,343.331 606.49,344.001 608.081,344.588 608.5,345.006 608.584,345.09 614.781,323.65 L619.806,332.025 Q619.89,332.109 622.738,313.6 L627.762,315.694 Q627.86,315.793 627.176,306.9 627.213,306.88 627.176,306.816 626.222,293.145 623.491,258.409 621.835,237.183 620.56,223.234 618.982,204.588 618.131,198.946 617.893,197.301 617.713,196.769 617.893,197.301 618.131,198.946 618.982,204.588 620.56,223.234 L621.9,223.15 Q623.575,222.983 628.516,218.041 632.871,213.854 636.137,215.194 639.069,216.45 656.656,241.91 676.924,267.705 693.506,271.725 678.599,272.228 656.489,289.229 649.621,294.505 642.838,300.87 L641.833,301.791 Q643.025,314.521 646.941,358.071 L647.863,357.988 Q652.218,355.559 682.703,331.606 712.099,308.408 721.563,300.2 728.598,294.086 734.376,284.455 737.308,279.514 740.825,273.4 742.5,271.474 746.101,268.794 749.033,266.114 749.2,261.675 749.368,257.32 717.543,236.801 682.284,214.859 675.5,209.75 655.567,194.759 646.271,188.729 635.196,181.468 627.679,178.26 621.433,175.602 617.713,175.831 M558.166,170.723 Q560.679,170.304 563.024,169.885 566.793,169.885 566.541,174.491 573.744,173.654 576.591,174.491 579.606,175.413 579.522,178.679 L584.213,180.856 Q587.506,174.454 595.519,169.131 600.125,166.033 604.061,165.028 604.123,165.014 604.145,164.944 L603.056,158.244 Q604.313,158.16 601.884,155.229 597.445,150.12 593.844,145.681 588.986,139.651 572.069,134.208 557.245,129.434 549.037,129.35 522.74,129.099 504.65,136.469 493.427,141.075 483.377,154.978 481.451,157.612 479.86,160.003 475.369,167.121 473.997,172.481 L473.997,174.491 Q474.165,174.491 474.919,174.743 475.756,174.91 476.343,174.91 479.357,174.91 482.372,172.481 485.806,169.634 489.072,169.048 L489.072,171.141 492.841,171.141 Q495.354,170.639 500.127,169.215 503.812,168.043 504.566,168.21 L504.566,170.304 Q505.404,170.304 508.754,170.723 514.281,170.723 519.641,167.791 L523.829,167.791 523.829,169.466 530.529,169.466 Q541.584,166.116 542.254,166.116 543.343,166.116 544.348,166.87 545.52,167.708 547.698,167.791 547.698,169.885 547.279,170.723 L558.166,170.723Z" test="Avatar Man" stroke-width="1.675"/>
      <path id="Layer2_0_1_STROKES" stroke="#009EFF" stroke-width="1.675" stroke-linejoin="round" stroke-linecap="round" fill="none" d="M579.522,178.679 Q579.606,175.413 576.591,174.491 573.744,173.654 566.541,174.491 566.793,169.885 563.024,169.885 560.679,170.304 558.166,170.723 L547.279,170.723 Q547.698,169.885 547.698,167.791 545.52,167.708 544.348,166.87 543.343,166.116 542.254,166.116 541.584,166.116 530.529,169.466 L523.829,169.466 523.829,167.791 519.641,167.791 Q514.281,170.723 508.754,170.723 505.404,170.304 504.566,170.304 L504.566,168.21 Q503.812,168.043 500.127,169.215 495.354,170.639 492.841,171.141 L489.072,171.141 489.072,169.048 Q485.806,169.634 482.372,172.481 479.357,174.91 476.343,174.91 475.756,174.91 474.919,174.743 474.165,174.491 473.997,174.491 L473.997,172.481 Q475.369,167.121 479.902,160.044 481.451,157.612 483.377,154.978 493.427,141.075 504.65,136.469 522.74,129.099 549.037,129.35 557.245,129.434 572.069,134.208 588.986,139.651 593.844,145.681 597.445,150.12 601.884,155.229 604.313,158.16 603.056,158.244 M604.187,164.986 Q604.249,164.992 604.313,164.986 606.845,164.426 612.269,164.106 616.205,163.939 618.634,162.348 619.974,161.51 621.9,159.919 622.654,159.5 619.555,164.86 618.131,167.289 616.959,169.634 616.242,171.042 615.661,172.398 615.522,172.677 615.409,172.942 615.165,173.464 614.949,173.989 614.818,174.284 614.698,174.575 M617.713,175.831 Q621.433,175.602 627.721,178.302 635.196,181.468 646.271,188.729 655.567,194.759 675.5,209.75 682.284,214.859 717.543,236.801 749.368,257.32 749.2,261.675 749.033,266.114 746.101,268.794 742.5,271.474 740.825,273.4 737.308,279.514 734.376,284.455 728.598,294.086 721.563,300.2 712.099,308.408 682.703,331.606 652.218,355.559 647.863,357.988 647.429,358.271 647.025,358.532 642.151,361.694 639.99,362.929 636.137,365.19 632.787,364.688 M616.959,169.634 Q615.654,171.064 614.572,171.895 613.478,172.692 612.604,172.9 609.421,173.151 605.569,173.738 600.627,174.491 597.948,176.334 594.346,179.433 590.912,182.113 586.641,185.463 583.961,187.054 L582.119,187.975 Q582.522,184.28 584.254,180.898 M578.685,178.679 L579.522,178.679 M584.254,180.898 Q587.506,174.454 595.519,169.131 600.125,166.033 604.061,165.028 604.123,165.014 604.187,164.986 M614.698,174.575 Q614.654,174.681 614.614,174.784 613.706,177.061 613.106,179.181 611.515,184.876 609.002,193.586 608.946,193.739 608.877,193.879 606.54,199.935 601.8,202.631 591.834,208.326 586.306,211.006 M590.075,219.381 Q589.656,225.495 591.583,266.449 591.653,267.96 591.708,269.422 593.229,301.381 593.425,311.088 593.423,311.151 593.425,311.213 593.453,313.416 593.425,314.438 593.09,327.586 595.519,348.356 595.854,351.288 600.46,348.859 605.066,346.346 604.731,344.588 604.564,343.331 606.49,344.001 608.081,344.588 608.5,345.006 608.584,345.09 614.781,323.65 L619.806,332.025 Q619.89,332.109 622.738,313.6 L627.762,315.694 Q627.86,315.793 627.218,306.942 627.213,306.88 627.218,306.816 626.222,293.145 623.491,258.409 621.835,237.183 620.602,223.234 618.982,204.588 618.131,198.946 617.893,197.301 617.713,196.769 M641.833,301.833 L642.838,300.87 Q649.621,294.505 656.489,289.229 678.599,272.228 693.506,271.725 676.924,267.705 656.656,241.91 639.069,216.45 636.137,215.194 632.871,213.854 628.516,218.041 623.575,222.983 621.9,223.15 M527.681,216.45 Q528.658,216.607 530.696,216.701 533.021,216.785 536.726,216.785 543.259,216.701 546.106,216.45 551.382,215.948 552.053,215.78 555.402,214.859 555.738,212.263 M576.675,283.45 Q577.512,288.894 579.439,296.766 581.784,306.23 583.794,311.088 M483.294,280.938 Q483.294,281.021 483.629,289.564 483.88,295.678 486.225,299.781 486.979,301.098 488.109,302.378 491.54,306.208 498.452,309.664 508,314.521 517.213,314.856 L520.604,315.108 520.73,315.108 Q529.608,315.443 532.287,315.275 536.894,314.94 542.338,313.181 546.358,311.925 557.161,302.21 564.839,295.235 572.99,286.716 573.096,286.614 573.199,286.507 573.263,286.447 573.325,286.381 573.41,286.301 573.493,286.214 574.779,284.849 576.089,283.45 576.174,283.36 576.256,283.283 576.29,283.234 576.34,283.199 576.353,283.15 576.382,283.115 586.243,272.601 587.563,269.631 M520.563,315.694 Q519.809,319.295 518.385,327.503 516.961,334.621 514.7,338.306 M637.394,306.063 L641.833,301.833 M628.181,372.644 Q628.098,372.811 619.639,394.838 613.609,410.499 611.431,419.544 608.751,430.515 606.406,463.178 604.061,495.003 605.15,502.038 M556.91,415.691 Q557.412,417.534 559.088,418.036 559.59,418.204 560.93,418.204 563.108,418.204 563.945,417.199 564.28,416.864 565.62,413.765 M523.41,403.548 Q523.242,418.79 524.331,421.135 526.09,425.323 535.973,425.323 540.746,425.323 541.165,425.239 541.667,425.155 543.51,424.066 M524.666,455.054 Q523.829,457.566 523.829,460.33 523.829,464.936 527.514,465.188 529.943,465.271 537.647,465.104 M521.735,489.81 Q526.006,492.741 528.77,493.411 530.78,493.83 534.297,493.16 M564.531,607.981 Q558.25,610.913 541.416,614.095 524.415,617.278 506.325,618.869 490.664,620.293 453.814,619.539 426.009,619.036 410.012,618.031 397.701,617.278 372.744,614.681 366.546,614.011 361.94,615.016 358.674,615.77 357.669,615.1 M478.269,159.081 Q475.086,157.155 471.317,155.145 463.78,151.209 461.519,151.544 459.09,151.879 461.1,163.855 462.775,174.073 464.45,178.344 M468.637,189.65 Q469.307,192.414 471.066,197.941 472.071,202.38 469.475,204.306 466.277,206.69 463.236,208.913 L463.194,208.954 Q417.498,242.885 411.687,244.925 406.579,246.433 405.323,246.851 403.564,247.521 403.312,249.113 402.894,252.379 402.726,263.601 402.475,276.499 403.312,279.263 406.16,290.653 428.102,323.064 449.626,354.805 462.356,367.2 M470.312,218.544 Q472.909,219.884 478.101,220.554 478.312,220.586 478.52,220.596 483.421,221.297 488.319,221.056 491.417,220.889 498.62,219.716 504.482,218.711 506.325,218.963 M469.894,240.319 Q468.889,241.994 458.085,252.798 448.286,262.596 445.606,265.025 M490.329,259.916 Q494.097,259.916 498.285,259.079 L514.616,259.079 Q509.591,264.439 506.744,267.286 501.468,272.479 500.211,272.479 497.95,272.479 494.6,267.789 491.166,262.429 489.91,261.173 M436.394,260.419 Q437.831,263.891 440.916,268.291 440.95,268.34 441,268.375 448.678,279.386 466.544,296.18 474.843,303.974 480.949,309.915 495.077,323.62 497.531,327.419 M469.475,390.65 Q468.889,403.966 471.569,410.331 473.244,414.184 478.352,418.539 483.629,422.81 488.319,424.15 M483.713,431.688 Q483.796,434.284 483.377,445.004 483.21,455.054 484.55,457.65 486.141,460.749 490.077,463.345 493.93,465.858 496.275,465.606 M489.575,468.956 Q489.659,471.72 489.659,475.991 489.826,479.174 491.25,481.1 491.417,481.351 495.94,484.45 498.955,486.544 498.787,490.313 498.62,493.16 496.861,500.195 495.354,506.058 495.856,507.9 M475.338,520.044 Q455.74,516.443 432.039,512.758 384.72,505.471 364.871,505.471 351.639,505.471 336.564,502.708 324.671,500.53 322.159,501.284 317.804,502.624 313.7,509.491 309.596,516.443 309.931,522.138 310.182,525.99 311.522,536.208 312.611,545.336 311.606,548.938 M474.919,544.331 Q467.214,545.588 431.704,546.341 393.179,547.179 386.981,547.681 380.114,548.268 358.255,551.785 338.406,554.968 330.45,555.219 320.986,555.554 312.611,554.381 308.256,553.795 301.975,552.288 298.709,551.534 295.359,553.795 293.6,555.051 289.412,559.406 284.639,564.348 288.994,574.9 289.831,576.994 288.407,588.97 286.816,601.03 287.737,603.375 L290.669,610.494 Q293.935,619.455 295.275,628.919 M354.319,603.375 Q355.491,607.144 357.669,617.948 360.014,629.505 359.762,631.85" test="Avatar Man"/>
      <path id="Layer2_0_2_STROKES" stroke="#FF0" stroke-width="1.675" stroke-linejoin="round" stroke-linecap="round" fill="none" d="M530.529,219.716 Q529.691,224.406 531.366,227.84 533.125,231.441 536.391,231.441 537.731,231.441 539.574,230.436 541.667,229.264 542.254,227.673 M478.185,223.485 Q477.347,229.348 477.347,229.766 477.347,231.47 478.604,233.284 479.272,234.232 480.279,235.21 483.377,238.141 486.56,238.141 488.235,238.141 489.324,236.466 489.994,235.545 491.166,233.535" test="Avatar Man"/>
      <path id="Layer2_0_3_STROKES" stroke="#FFF" stroke-width="1.675" stroke-linejoin="round" stroke-linecap="round" fill="none" d="M559.841,265.36 Q565.453,267.621 565.704,271.39 565.72,271.628 565.746,271.893 565.741,271.956 565.746,272.018 L565.746,272.144 Q565.777,274.323 565.285,278.341 M552.304,280.435 Q557.823,279.118 561.181,275.075 562.307,273.722 563.191,272.06" test="Avatar Man"/>
      <path id="Layer2_0_4_STROKES" stroke="#F90" stroke-width="1.675" stroke-linejoin="round" stroke-linecap="round" fill="none" d="M495.437,510.413 Q497.196,510.245 512.522,516.526 531.618,522.724 551.55,522.556 570.729,522.389 587.646,517.531 601.884,513.428 603.056,513.763 608.249,515.102 612.353,524.315 617.545,535.789 614.781,550.613 611.348,569.289 602.554,583.024 592.252,599.02 577.094,603.794 L565.201,607.479 Q565.034,607.479 566.206,606.223 567.714,604.548 566.206,603.375 559.004,594.079 552.639,586.123 540.16,570.461 531.869,566.944 519.222,561.584 506.827,555.303 491.836,547.514 488.737,543.913 485.89,540.563 485.304,530.764 485.136,520.63 484.969,518.788 484.718,516.275 487.732,514.265 489.407,513.093 495.437,510.413Z" test="Avatar Man"/>
    </g>
    <g id="Avatar-Lady">
      <path fill="#000" stroke="none" d="M251.593,415.776 Q247.881,415.311 244.763,415.534 236.621,416.616 233.169,416.966 227.527,417.539 221.394,415.78 217.746,415.044 212.479,412.602 202.029,407.708 192.441,398.729 182.972,389.863 176.073,379.124 L174.408,380.314 Q174.628,386.671 172.411,401.698 170.775,413.121 171.195,421.558 171.269,423.129 171.418,424.597 171.726,427.629 173.888,442.211 176.025,463.261 174.277,471.18 173.115,476.487 171.338,482.452 170.343,486.892 170.959,492.954 171.302,496.33 172.486,500.455 L172.495,500.539 Q173.586,504.355 175.379,508.838 179.048,518.163 179.535,522.963 179.792,525.489 179.114,528.025 178.741,529.381 178.216,530.072 L179.784,531.274 Q180.016,533.19 180.104,536.941 180.113,537.129 180.138,537.278 180.265,542.46 180.168,550.971 L180.176,551.055 Q180.144,554.46 180.069,558.382 L183.761,560.389 Q186.017,556.539 191.844,548.68 200.005,537.728 201.911,533.876 L202.246,532.992 Q205.49,528.919 207.971,520.671 210.784,509.837 212.811,502.996 213.252,501.476 213.615,500.022 213.816,499.503 213.933,498.968 214.014,498.855 213.992,498.707 214.064,498.642 214.059,498.53 L214.059,498.53 Q218.071,484.898 220.653,476.339 225.981,458.444 229.152,450.295 230.609,446.496 232.702,442.534 233.535,440.932 234.415,439.297 L234.634,438.935 234.709,438.842 Q236.998,435.039 239.793,431.095 246.263,421.931 251.377,417.839 L251.593,415.776 M216.022,267.371 L214.184,255.138 213.763,255.18 Q204.332,256.138 198.835,257.292 187.765,259.692 179.224,264.387 171.021,269.048 163.654,276.091 160.863,278.728 158.172,281.582 158.174,281.622 158.096,281.675 157.909,281.908 157.634,282.147 153.666,286.613 150.002,291.599 143.716,300.063 141.539,308.791 139.355,317.435 139.386,326.959 L139.281,330.117 Q141.98,330.206 145.261,330.361 150.651,330.664 158.43,334.383 158.832,334.596 164.018,337.474 164.067,337.486 164.102,337.465 165.862,338.496 168.164,339.775 165.862,338.496 164.102,337.465 164.067,337.486 164.018,337.474 158.832,334.596 158.43,334.383 150.651,330.664 145.261,330.361 141.98,330.206 139.281,330.117 L137.724,341.59 Q139.477,341.798 141.346,342.073 155.497,344.038 160.86,343.239 155.497,344.038 141.346,342.073 139.477,341.798 137.724,341.59 137.551,341.561 137.379,341.54 125.644,340.045 119.365,340.902 L115.263,345.742 Q117.587,347.728 122.767,351.785 129.657,357.143 133.92,359.415 134.745,359.806 135.437,360.112 141.319,362.747 147.878,361.996 152.669,361.424 159.626,362.079 165.117,362.542 166.741,361.782 L172.191,362.674 170.964,369.86 175.963,378.88 Q176.051,379.017 176.073,379.124 182.972,389.863 192.441,398.729 202.029,407.708 212.479,412.602 217.746,415.044 221.394,415.78 227.527,417.539 233.169,416.966 236.621,416.616 244.763,415.534 247.881,415.311 251.593,415.776 L251.677,415.767 Q254.58,416.197 257.843,417.013 267.784,419.406 270.707,419.705 276.99,420.428 280.499,418.965 282.124,418.205 286.363,414.712 288.953,412.578 290.297,404.87 291.689,395.116 292.767,389.817 293.979,384.165 299.528,372.628 300.259,371.1 300.93,369.678 305.476,360.007 307.123,355.268 307.304,354.756 307.45,354.299 309.956,346.303 306.699,336.851 304.17,329.537 299.784,324.878 L293.38,317.107 Q292.872,317.512 292.177,317.824 286.95,319.971 286.63,314.304 L281.861,312.577 266.508,317.198 Q266.629,317.618 266.762,318.023 266.516,317.785 266.205,317.569 263.456,314.963 259.326,312.653 250.232,307.707 242.538,309.85 235.097,311.966 222.899,320.861 211.241,329.936 205.344,333.958 204.556,334.57 203.838,335.046 199.859,337.747 185.531,346.603 184.093,347.498 182.805,348.241 179.081,350.654 176.739,352.175 174.276,353.947 173.51,354.714 174.276,353.947 176.739,352.175 179.081,350.654 182.805,348.241 184.093,347.498 185.531,346.603 199.859,337.747 203.838,335.046 204.556,334.57 205.344,333.958 211.241,329.936 222.899,320.861 235.097,311.966 242.538,309.85 250.232,307.707 259.326,312.653 263.456,314.963 266.205,317.569 L266.508,317.198 Q266.443,316.994 266.381,316.786 265.355,313.504 264.467,309.664 262.457,300.766 263.361,297.102 264.081,294.136 270.854,290.471 276.887,287.051 276.278,285.241 274.595,280.393 266.466,273.222 L258.692,267.036 Q246.457,276.971 235.293,286.256 223.617,296.077 213.14,305.179 195.513,320.92 189.079,326.252 181.54,332.511 175.368,336.151 173.319,337.405 171.421,338.338 173.319,337.405 175.368,336.151 181.54,332.511 189.079,326.252 195.513,320.92 213.14,305.179 223.617,296.077 235.293,286.256 L229.092,278.804 Q228.232,277.87 223.088,273.289 217.48,268.329 216.022,267.371 M252.551,326.357 Q251.244,325.214 247.226,325.026 244.182,324.884 235.538,330.551 232.766,332.408 229.422,334.83 215.635,344.822 213.277,345.062 215.635,344.822 229.422,334.83 232.766,332.408 235.538,330.551 244.182,324.884 247.226,325.026 251.244,325.214 252.551,326.357 253.858,327.5 258.055,329.456 253.858,327.5 252.551,326.357 M248.556,340.629 Q250.43,338.142 250.276,336.626 250.233,336.205 247.914,334.314 250.233,336.205 250.276,336.626 250.43,338.142 248.556,340.629 246.539,343.386 244.434,343.599 238.287,344.223 237.842,339.845 237.774,339.171 237.833,338.91 238.034,338.379 239.159,336.053 238.034,338.379 237.833,338.91 237.774,339.171 237.842,339.845 238.287,344.223 244.434,343.599 246.539,343.386 248.556,340.629 M235.265,394.891 Q234.953,395.739 234.418,396.593 232.964,399.037 232.022,399.814 232.964,399.037 234.418,396.593 234.953,395.739 235.265,394.891 236.402,392.684 236.219,390.881 L235.677,388.894 236.219,390.881 Q236.402,392.684 235.265,394.891 M273.945,361.955 Q276.077,361.738 278.801,360.356 281.753,358.965 285.364,356.287 290.514,352.385 291.62,350.037 292.05,349.251 291.988,348.638 291.92,347.965 290.005,345.862 288.174,343.751 287.475,343.567 288.174,343.751 290.005,345.862 291.92,347.965 291.988,348.638 292.05,349.251 291.62,350.037 290.514,352.385 285.364,356.287 281.753,358.965 278.801,360.356 276.077,361.738 273.945,361.955 270.661,362.288 268.232,360.153 264.395,356.714 264.126,356.572 264.395,356.714 268.232,360.153 270.661,362.288 273.945,361.955 M293.553,364.047 Q293.484,363.373 292.363,362.381 293.484,363.373 293.553,364.047 293.664,365.142 293.337,366.11 293.01,367.079 292.245,367.923 290.631,369.618 288.189,369.866 287.263,369.96 285.249,369.399 283.32,368.829 282.055,368.107 283.32,368.829 285.249,369.399 287.263,369.96 288.189,369.866 290.631,369.618 292.245,367.923 293.01,367.079 293.337,366.11 293.664,365.142 293.553,364.047 M256.222,397.697 Q259.901,397.068 263.664,396.43 259.901,397.068 256.222,397.697 246.188,400.247 237.069,395.898 246.188,400.247 256.222,397.697 M191.057,297.978 Q186.731,293.909 180.345,292.176 174.043,290.434 168.731,291.739 174.043,290.434 180.345,292.176 186.731,293.909 191.057,297.978Z" test="Avatar Lady" stroke-width="1.693"/>
      <path id="Layer1_0_1_STROKES" stroke="#009EFF" stroke-width="1.693" stroke-linejoin="round" stroke-linecap="round" fill="none" d="M281.861,312.577 Q280.449,308.722 283.41,306.89 286.279,304.983 289.048,303.766 M256.656,262.904 Q256.832,262.121 256.789,261.7 256.703,260.858 253.378,255.751 249.453,249.77 248.828,248.642 246.531,244.452 241.957,243.811 237.283,243.86 235.606,243.264 236.071,244.493 236.49,248.619 L236.938,254.699 Q236.694,254.808 234.773,254.323 232.684,253.855 231.757,253.949 228.474,254.282 226.688,254.293 222.427,254.215 217.712,254.694 L214.184,255.138 M216.022,267.371 Q217.48,268.329 223.088,273.289 228.232,277.87 229.092,278.804 M235.606,243.264 Q235.594,243.181 235.514,243.189 L235.488,242.936 Q235.587,243.095 235.606,243.264Z M213.763,255.18 Q213.746,255.012 213.83,255.003 214.008,255.15 214.184,255.138 L213.763,255.18 Q204.332,256.138 198.835,257.292 187.765,259.692 179.224,264.387 171.021,269.048 163.654,276.091 160.863,278.728 158.214,281.578 158.174,281.622 158.139,281.67 157.909,281.908 157.676,282.143 153.666,286.613 150.002,291.599 143.716,300.063 141.539,308.791 139.355,317.435 139.386,326.959 M139.286,330.16 Q141.98,330.206 145.261,330.361 150.651,330.664 158.43,334.383 158.832,334.596 164.018,337.474 164.067,337.486 164.106,337.507 165.862,338.496 168.164,339.775 M258.055,329.456 Q253.858,327.5 252.551,326.357 251.244,325.214 247.226,325.026 244.182,324.884 235.542,330.594 232.766,332.408 229.422,334.83 215.635,344.822 213.277,345.062 M264.126,356.572 Q264.395,356.714 268.232,360.153 270.661,362.288 273.945,361.955 276.077,361.738 278.848,360.393 281.753,358.965 285.364,356.287 290.514,352.385 291.662,350.033 292.05,349.251 291.988,348.638 291.92,347.965 290.005,345.862 288.174,343.751 287.475,343.567 M299.784,324.878 Q304.17,329.537 306.699,336.851 309.956,346.303 307.45,354.299 307.304,354.756 307.123,355.268 305.476,360.007 300.93,369.678 300.259,371.1 299.528,372.628 293.979,384.165 292.767,389.817 291.689,395.116 290.297,404.87 288.953,412.578 286.363,414.712 282.124,418.205 280.499,418.965 276.99,420.428 270.707,419.705 267.784,419.406 257.843,417.013 254.58,416.197 251.681,415.809 L251.597,415.818 M251.377,417.839 Q246.263,421.931 239.793,431.095 236.998,435.039 234.752,438.838 L234.676,438.931 234.458,439.293 Q233.535,440.932 232.702,442.534 230.609,446.496 229.152,450.295 225.981,458.444 220.653,476.339 218.071,484.898 214.101,498.526 L214.063,498.572 Q214.064,498.642 214.034,498.703 214.014,498.855 213.98,499.006 213.816,499.503 213.657,500.017 213.252,501.476 212.811,502.996 210.784,509.837 207.971,520.671 205.49,528.919 202.246,532.992 M201.911,533.876 Q200.005,537.728 191.844,548.68 186.017,556.539 183.765,560.431 183.055,561.693 182.703,562.538 M282.055,368.107 Q283.32,368.829 285.249,369.399 287.263,369.96 288.189,369.866 290.631,369.618 292.245,367.923 293.01,367.079 293.337,366.11 293.664,365.142 293.553,364.047 293.484,363.373 292.363,362.381 M251.597,415.818 Q247.881,415.311 244.763,415.534 236.621,416.616 233.169,416.966 227.527,417.539 221.394,415.78 217.746,415.044 212.479,412.602 202.029,407.708 192.441,398.729 182.972,389.863 176.12,379.162 M174.408,380.314 Q174.628,386.671 172.411,401.698 170.775,413.121 171.195,421.558 171.269,423.129 171.418,424.597 171.726,427.629 173.888,442.211 176.025,463.261 174.277,471.18 173.115,476.487 171.338,482.452 170.343,486.892 170.959,492.954 171.302,496.33 172.49,500.497 L172.495,500.539 Q173.586,504.355 175.379,508.838 179.048,518.163 179.535,522.963 179.792,525.489 179.114,528.025 178.741,529.381 178.22,530.115 M179.784,531.274 Q180.016,533.19 180.108,536.983 180.113,537.129 180.138,537.278 180.265,542.46 180.172,551.013 L180.176,551.055 Q180.144,554.46 180.069,558.382 M230.124,452.323 L230.106,457.174 Q230.191,458.016 231.123,461.324 232.054,464.632 232.14,465.474 232.225,466.316 233.53,471.628 234.751,476.949 234.836,477.791 235.555,484.863 228.292,515.545 220.945,546.235 221.586,552.55 222.21,558.697 232.951,572.323 241.347,582.954 251.653,593.137 259.117,600.46 278.271,635.775 278.382,636.87 279.081,637.054 279.688,637.163 279.712,636.565 M194.641,592.971 Q196.865,593.936 208.897,603.518 221.781,613.949 222.029,616.391 222.337,619.422 244.606,632.644 266.875,645.865 267.217,649.233 267.32,650.243 267.648,650.125 267.976,650.006 267.993,650.175 L268.607,649.517 M191.057,297.978 Q186.731,293.909 180.345,292.176 174.043,290.434 168.731,291.739 M139.286,330.16 Q139.203,330.178 139.117,330.177 139.03,330.175 138.949,330.194 134.854,330.108 132.157,330.33 124.899,330.897 119.875,333.364 113.64,336.464 112.933,337.046 111.756,338.017 112.079,340.366 112.504,342.875 113.947,344.515 114.343,344.913 115.073,345.549 115.165,345.621 115.258,345.7 L115.305,345.738 M119.365,340.902 Q125.644,340.045 137.379,341.54 137.551,341.561 137.724,341.59 M115.305,345.738 Q117.587,347.728 122.767,351.785 129.657,357.143 133.962,359.411 134.745,359.806 135.437,360.112 141.319,362.747 147.878,361.996 152.669,361.424 159.626,362.079 165.117,362.542 166.741,361.782 M170.964,369.86 L175.963,378.88 Q176.051,379.017 176.12,379.162 M130.788,365.433 Q128.326,368.83 127.688,386.844 127.414,395.039 127.358,397.001 127.372,400.487 127.765,404.36 128.244,409.076 131.249,419.404 134.17,429.741 134.769,435.635 134.831,436.248 134.897,436.898 135.114,439.707 135.109,443.171 135.112,448.85 134.527,456.289 134.117,461.504 133.42,467.587 130.985,488.847 132.729,506.023 133.011,508.802 135.189,517.683 137.316,526.059 137.31,527.676 M137.724,341.59 Q139.477,341.798 141.346,342.073 155.497,344.038 160.86,343.239 M152.877,381.905 L153.259,383.992 Q153.456,385.929 152.723,391.278 151.998,396.711 152.275,401.106 152.518,406.015 153.356,414.267 153.45,415.193 154.086,418.106 154.73,421.103 154.842,422.198 154.848,422.258 154.854,422.324 155.069,424.589 154.919,428.825 154.834,433.853 154.205,435.193 153.541,436.196 152.357,438.783 151.514,440.527 151.12,441.673 150.726,442.819 150.781,443.366 M156.881,478.306 Q156.95,478.979 156.64,485.986 156.247,493.002 156.349,494.012 156.537,495.865 158.575,500.847 159.56,503.362 160.084,504.819 160.571,506.262 160.613,506.68 160.904,509.542 159.001,515.095 157.29,520.033 155.786,521.972 M134.897,436.898 Q130.158,437.975 125.156,444.012 120.516,449.553 119.674,455.372 119.433,457.069 119.511,458.792 119.722,464.215 121.307,520.879 123.017,576.255 123.531,582.158 123.933,586.115 124.036,592.995 124.061,594.005 124.103,594.902 L124.111,594.987 Q124.317,597.866 124.872,599.546 125.362,601.027 165.353,648.858 205.039,696.209 205.465,699.569 M117.619,455.241 Q109.955,460.187 102.223,464.46 91.183,470.515 84.827,471.586 71.549,473.19 56.022,474.426 25.043,476.806 13.882,474.962 M178.22,530.115 Q177.737,530.802 177.105,530.866 M180.069,558.382 L180.074,558.424 Q180.059,560.374 180.017,562.471 179.79,573.672 179.316,588.658 179.245,592.153 189.939,607.825 203.114,626.989 206.096,632.896 226.453,673.363 228.781,692.097 M28.892,575.86 Q35.57,576.288 52.419,580.531 70.76,585.219 80.914,589.718 94.718,595.802 98.298,596.714 105.729,598.682 114.972,596.723 118.719,595.917 121.858,595.003" test="Avatar Lady"/>
      <path id="Layer1_0_2_STROKES" stroke="#FFBC00" stroke-width="1.693" stroke-linejoin="round" stroke-linecap="round" fill="none" d="M235.335,286.251 Q246.457,276.971 258.692,267.036 L266.466,273.222 Q274.595,280.393 276.278,285.241 276.887,287.051 270.854,290.471 264.081,294.136 263.361,297.102 262.457,300.766 264.467,309.664 265.355,313.504 266.381,316.786 266.443,316.994 266.508,317.198 M171.421,338.338 Q173.319,337.405 175.372,336.193 181.54,332.511 189.079,326.252 195.513,320.92 213.14,305.179 223.617,296.077 235.335,286.251 M266.247,317.565 Q266.516,317.785 266.762,318.023 266.629,317.618 266.508,317.198 M266.247,317.565 Q263.456,314.963 259.326,312.653 250.232,307.707 242.538,309.85 235.097,311.966 222.899,320.861 211.241,329.936 205.39,333.995 204.556,334.57 203.838,335.046 199.859,337.747 185.531,346.603 184.093,347.498 182.809,348.283 179.081,350.654 176.786,352.212 174.276,353.947 173.51,354.714" test="Avatar Lady"/>
      <path id="Layer1_0_3_STROKES" stroke="#FF0" stroke-width="1.693" stroke-linejoin="round" stroke-linecap="round" fill="none" d="M286.63,314.304 Q286.95,319.971 292.177,317.824 292.872,317.512 293.422,317.103 295.343,315.614 295.327,312.826 295.289,309.937 292.433,309.462 M239.159,336.053 Q238.034,338.379 237.833,338.91 237.774,339.171 237.842,339.845 238.287,344.223 244.434,343.599 246.539,343.386 248.556,340.629 250.43,338.142 250.276,336.626 250.233,336.205 247.914,334.314" test="Avatar Lady"/>
      <path id="Layer1_0_4_STROKES" stroke="#FFF" stroke-width="1.693" stroke-linejoin="round" stroke-linecap="round" fill="none" d="M235.677,388.894 L236.219,390.881 Q236.402,392.684 235.312,394.928 234.953,395.739 234.418,396.593 232.964,399.037 232.022,399.814 M237.069,395.898 Q246.188,400.247 256.222,397.697 259.901,397.068 263.664,396.43" test="Avatar Lady"/>
    </g>
  </g>
</svg>