<?xml version="1.0" encoding="utf-8"?>
<svg id="EdithAnim13" image-rendering="inherit" baseProfile="basic" version="1.1" x="0px" y="0px" width="800" height="600" xmlns="http://www.w3.org/2000/svg" xmlns:xlink="http://www.w3.org/1999/xlink">
  <g id="22_Avatarf41r1" overflow="visible">
    <g id="Avatar-Manf0r1">
      <g id="Tailf0r1">
        <path id="Layer3_0_1_STROKES" stroke="#009EFF" stroke-width="2.303" stroke-linejoin="round" stroke-linecap="round" fill="none" d="M650.79,607.892 Q649.628,590.97 648.987,574.039 648.413,557.621 643.079,542.115 637.217,525.226 620.884,517.543 601.035,508.286 598.161,528.986 597.741,532.002 599.713,534.649 604.375,541.009 611.004,545.08 617.933,542.55 623.144,547.329 629.418,553.131 632.179,561.83 638.632,582.358 643.772,603.058 645.224,608.85 644.249,614.726" test="Tail_2.3242325232423263e+312.3242325232423263e+31_2.3242325232423263e+312.3242325232423263e+31_2.3242325232423263e+312.3242325232423263e+31_2.3242325232423263e+312.3242325232423263e+31_2.3242325232423263e+312.3242325232423263e+31_23242325232423262324232523242326"/>
      </g>
      <path fill="#000" stroke="none" d="M612.353,521.815 Q608.249,512.602 603.056,511.263 601.884,510.928 587.646,515.031 570.729,519.889 551.55,520.056 531.618,520.224 512.522,514.026 497.196,507.745 495.437,507.913 489.407,510.593 487.732,511.765 484.718,513.775 484.969,516.288 485.136,518.13 485.304,528.264 485.89,538.063 488.737,541.413 491.836,545.014 506.827,552.803 519.222,559.084 531.869,564.444 540.16,567.961 552.639,583.623 559.004,591.579 566.206,600.875 567.714,602.048 566.206,603.723 565.034,604.979 565.201,604.979 L577.094,601.294 Q592.252,596.52 602.554,580.524 611.348,566.789 614.781,548.113 617.545,533.289 612.353,521.815 M617.713,173.331 L614.698,172.075 Q614.654,172.181 614.614,172.243 613.706,174.561 613.106,176.681 611.515,182.376 609.002,191.086 608.946,191.239 608.835,191.338 606.54,197.435 601.8,200.131 591.834,205.826 586.306,208.506 L590.075,216.881 Q589.656,222.995 591.583,263.949 591.653,265.46 591.666,266.88 593.229,298.881 593.425,308.588 593.423,308.651 593.425,308.671 593.453,310.916 593.425,311.938 593.09,325.086 595.519,345.856 595.854,348.788 600.46,346.359 605.066,343.846 604.731,342.088 604.564,340.831 606.49,341.501 608.081,342.088 608.5,342.506 608.584,342.59 614.781,321.15 L619.806,329.525 Q619.89,329.609 622.738,311.1 L627.762,313.194 Q627.86,313.293 627.176,304.4 627.213,304.38 627.176,304.316 626.222,290.645 623.491,255.909 621.835,234.683 620.56,220.734 618.982,202.088 618.131,196.446 617.893,194.801 617.713,194.269 617.893,194.801 618.131,196.446 618.982,202.088 620.56,220.734 L621.9,220.65 Q623.575,220.483 628.516,215.541 632.871,211.354 636.137,212.694 639.069,213.95 656.656,239.41 676.924,265.205 693.506,269.225 678.599,269.728 656.489,286.729 649.621,292.005 642.838,298.37 L641.833,299.291 Q643.025,312.021 646.941,355.571 L647.863,355.488 Q652.218,353.059 682.703,329.106 712.099,305.908 721.563,297.7 728.598,291.586 734.376,281.955 737.308,277.014 740.825,270.9 742.5,268.974 746.101,266.294 749.033,263.614 749.2,259.175 749.368,254.82 717.543,234.301 682.284,212.359 675.5,207.25 655.567,192.259 646.271,186.229 635.196,178.968 627.679,175.76 621.433,173.102 617.713,173.331 M558.166,168.223 Q560.679,167.804 563.024,167.385 566.793,167.385 566.541,171.991 573.744,171.154 576.591,171.991 579.606,172.913 579.522,176.179 L584.213,178.356 Q587.506,171.954 595.519,166.631 600.125,163.533 604.061,162.528 604.123,162.514 604.145,162.444 L603.056,155.744 Q604.313,155.66 601.884,152.729 597.445,147.62 593.844,143.181 588.986,137.151 572.069,131.708 557.245,126.934 549.037,126.85 522.74,126.599 504.65,133.969 493.427,138.575 483.377,152.478 481.451,155.112 479.86,157.503 475.369,164.621 473.997,169.981 L473.997,171.991 Q474.165,171.991 474.919,172.243 475.756,172.41 476.343,172.41 479.357,172.41 482.372,169.981 485.806,167.134 489.072,166.548 L489.072,168.641 492.841,168.641 Q495.354,168.139 500.127,166.715 503.812,165.543 504.566,165.71 L504.566,167.804 Q505.404,167.804 508.754,168.223 514.281,168.223 519.641,165.291 L523.829,165.291 523.829,166.966 530.529,166.966 Q541.584,163.616 542.254,163.616 543.343,163.616 544.348,164.37 545.52,165.208 547.698,165.291 547.698,167.385 547.279,168.223 L558.166,168.223Z" test="Avatar Man" stroke-width="1.675"/>
      <path id="Layer2_0_1_STROKES" stroke="#009EFF" stroke-width="1.675" stroke-linejoin="round" stroke-linecap="round" fill="none" d="M579.522,176.179 Q579.606,172.913 576.591,171.991 573.744,171.154 566.541,171.991 566.793,167.385 563.024,167.385 560.679,167.804 558.166,168.223 L547.279,168.223 Q547.698,167.385 547.698,165.291 545.52,165.208 544.348,164.37 543.343,163.616 542.254,163.616 541.584,163.616 530.529,166.966 L523.829,166.966 523.829,165.291 519.641,165.291 Q514.281,168.223 508.754,168.223 505.404,167.804 504.566,167.804 L504.566,165.71 Q503.812,165.543 500.127,166.715 495.354,168.139 492.841,168.641 L489.072,168.641 489.072,166.548 Q485.806,167.134 482.372,169.981 479.357,172.41 476.343,172.41 475.756,172.41 474.919,172.243 474.165,171.991 473.997,171.991 L473.997,169.981 Q475.369,164.621 479.902,157.544 481.451,155.112 483.377,152.478 493.427,138.575 504.65,133.969 522.74,126.599 549.037,126.85 557.245,126.934 572.069,131.708 588.986,137.151 593.844,143.181 597.445,147.62 601.884,152.729 604.313,155.66 603.056,155.744 M604.187,162.486 Q604.249,162.492 604.313,162.486 606.845,161.926 612.269,161.606 616.205,161.439 618.634,159.848 619.974,159.01 621.9,157.419 622.654,157 619.555,162.36 618.131,164.789 616.959,167.134 616.242,168.542 615.661,169.898 615.522,170.177 615.409,170.442 615.165,170.964 614.949,171.489 614.818,171.784 614.698,172.075 M617.713,173.331 Q621.433,173.102 627.721,175.802 635.196,178.968 646.271,186.229 655.567,192.259 675.5,207.25 682.284,212.359 717.543,234.301 749.368,254.82 749.2,259.175 749.033,263.614 746.101,266.294 742.5,268.974 740.825,270.9 737.308,277.014 734.376,281.955 728.598,291.586 721.563,297.7 712.099,305.908 682.703,329.106 652.218,353.059 647.863,355.488 647.429,355.771 647.025,356.032 642.151,359.194 639.99,360.429 636.137,362.69 632.787,362.188 M616.959,167.134 Q615.654,168.564 614.572,169.395 613.478,170.192 612.604,170.4 609.421,170.651 605.569,171.238 600.627,171.991 597.948,173.834 594.346,176.933 590.912,179.613 586.641,182.963 583.961,184.554 L582.119,185.475 Q582.522,181.78 584.254,178.398 M578.685,176.179 L579.522,176.179 M584.254,178.398 Q587.506,171.954 595.519,166.631 600.125,163.533 604.061,162.528 604.123,162.514 604.187,162.486 M614.698,172.075 Q614.654,172.181 614.614,172.284 613.706,174.561 613.106,176.681 611.515,182.376 609.002,191.086 608.946,191.239 608.877,191.379 606.54,197.435 601.8,200.131 591.834,205.826 586.306,208.506 M590.075,216.881 Q589.656,222.995 591.583,263.949 591.653,265.46 591.708,266.922 593.229,298.881 593.425,308.588 593.423,308.651 593.425,308.713 593.453,310.916 593.425,311.938 593.09,325.086 595.519,345.856 595.854,348.788 600.46,346.359 605.066,343.846 604.731,342.088 604.564,340.831 606.49,341.501 608.081,342.088 608.5,342.506 608.584,342.59 614.781,321.15 L619.806,329.525 Q619.89,329.609 622.738,311.1 L627.762,313.194 Q627.86,313.293 627.218,304.442 627.213,304.38 627.218,304.316 626.222,290.645 623.491,255.909 621.835,234.683 620.602,220.734 618.982,202.088 618.131,196.446 617.893,194.801 617.713,194.269 M641.833,299.333 L642.838,298.37 Q649.621,292.005 656.489,286.729 678.599,269.728 693.506,269.225 676.924,265.205 656.656,239.41 639.069,213.95 636.137,212.694 632.871,211.354 628.516,215.541 623.575,220.483 621.9,220.65 M527.681,213.95 Q528.658,214.107 530.696,214.201 533.021,214.285 536.726,214.285 543.259,214.201 546.106,213.95 551.382,213.448 552.053,213.28 555.402,212.359 555.738,209.763 M576.675,280.95 Q577.512,286.394 579.439,294.266 581.784,303.73 583.794,308.588 M483.294,278.438 Q483.294,278.521 483.629,287.064 483.88,293.178 486.225,297.281 486.979,298.598 488.109,299.878 491.54,303.708 498.452,307.164 508,312.021 517.213,312.356 L520.604,312.608 520.73,312.608 Q529.608,312.943 532.287,312.775 536.894,312.44 542.338,310.681 546.358,309.425 557.161,299.71 564.839,292.735 572.99,284.216 573.096,284.114 573.199,284.007 573.263,283.947 573.325,283.881 573.41,283.801 573.493,283.714 574.779,282.349 576.089,280.95 576.174,280.86 576.256,280.783 576.29,280.734 576.34,280.699 576.353,280.65 576.382,280.615 586.243,270.101 587.563,267.131 M520.563,313.194 Q519.809,316.795 518.385,325.003 516.961,332.121 514.7,335.806 M637.394,303.563 L641.833,299.333 M628.181,370.144 Q628.098,370.311 619.639,392.338 613.609,407 611.431,417.044 608.751,428.015 606.406,460.678 604.061,492.503 605.15,499.538 M556.91,413.191 Q557.412,415.034 559.088,415.536 559.59,415.704 560.93,415.704 563.108,415.704 563.945,414.699 564.28,414.364 565.62,411.265 M523.41,401.048 Q523.242,416.29 524.331,418.635 526.09,422.823 535.973,422.823 540.746,422.823 541.165,422.739 541.667,422.655 543.51,421.566 M524.666,452.554 Q523.829,455.066 523.829,457.83 523.829,462.436 527.514,462.688 529.943,462.771 537.647,462.604 M521.735,487.31 Q526.006,490.241 528.77,490.911 530.78,491.33 534.297,490.66 M564.531,605.481 Q558.25,608.413 541.416,611.595 524.415,614.778 506.325,616.369 490.664,617.793 453.814,617.039 426.009,616.536 410.012,615.531 397.701,614.778 372.744,612.181 366.546,611.511 361.94,612.516 358.674,613.27 357.669,612.6 M478.269,156.581 Q475.086,154.655 471.317,152.645 463.78,148.709 461.519,149.044 459.09,149.379 461.1,161.355 462.775,171.573 464.45,175.844 M468.637,187.15 Q469.307,189.914 471.066,195.441 472.071,199.88 469.475,201.806 466.277,204.19 463.236,206.413 L463.194,206.454 Q417.498,240.385 411.687,242.425 406.579,243.933 405.323,244.351 403.564,245.021 403.312,246.613 402.894,249.879 402.726,261.101 402.475,273 403.312,276.763 406.16,288.153 428.102,320.564 449.626,352.305 462.356,364.7 M470.312,216.044 Q472.909,217.384 478.101,218.054 478.312,218.086 478.52,218.096 483.421,218.797 488.319,218.556 491.417,218.389 498.62,217.216 504.482,216.211 506.325,216.463 M469.894,237.819 Q468.889,239.494 458.085,250.298 448.286,260.096 445.606,262.525 M490.329,257.416 Q494.097,257.416 498.285,256.579 L514.616,256.579 Q509.591,261.939 506.744,264.786 501.468,269.979 500.211,269.979 497.95,269.979 494.6,265.289 491.166,259.929 489.91,258.673 M436.394,257.919 Q437.831,261.391 440.916,265.791 440.95,265.84 441,265.875 448.678,276.886 466.544,293.68 474.843,301.474 480.949,307.415 495.077,321.12 497.531,324.919 M469.475,388.15 Q468.889,401.466 471.569,407.831 473.244,411.684 478.352,416.039 483.629,420.31 488.319,421.65 M483.713,429.188 Q483.796,431.784 483.377,442.504 483.21,452.554 484.55,455.15 486.141,458.249 490.077,460.845 493.93,463.358 496.275,463.106 M489.575,466.456 Q489.659,469.22 489.659,473.491 489.826,476.674 491.25,478.6 491.417,478.851 495.94,481.95 498.955,484.044 498.787,487.813 498.62,490.66 496.861,497.695 495.354,503.558 495.856,505.4 M475.338,517.544 Q455.74,513.943 432.039,510.258 384.72,502.971 364.871,502.971 351.639,502.971 336.564,500.208 324.671,498.03 322.159,498.784 317.804,500.124 313.7,506.991 309.596,513.943 309.931,519.638 310.182,523.49 311.522,533.708 312.611,542.836 311.606,546.438 M474.919,541.831 Q467.214,543.088 431.704,543.841 393.179,544.679 386.981,545.181 380.114,545.768 358.255,549.285 338.406,552.468 330.45,552.719 320.986,553.054 312.611,551.881 308.256,551.295 301.975,549.788 298.709,549.034 295.359,551.295 293.6,552.551 289.412,556.906 284.639,561.848 288.994,572.4 289.831,574.494 288.407,586.47 286.816,598.53 287.737,600.875 L290.669,607.994 Q293.935,616.955 295.275,626.419 M354.319,600.875 Q355.491,604.644 357.669,615.448 360.014,627.005 359.762,629.35" test="Avatar Man"/>
      <path id="Layer2_0_2_STROKES" stroke="#FF0" stroke-width="1.675" stroke-linejoin="round" stroke-linecap="round" fill="none" d="M530.529,217.216 Q529.691,221.906 531.366,225.34 533.125,228.941 536.391,228.941 537.731,228.941 539.574,227.936 541.667,226.764 542.254,225.173 M478.185,220.985 Q477.347,226.848 477.347,227.266 477.347,228.97 478.604,230.784 479.272,231.732 480.279,232.71 483.377,235.641 486.56,235.641 488.235,235.641 489.324,233.966 489.994,233.045 491.166,231.035" test="Avatar Man"/>
      <path id="Layer2_0_3_STROKES" stroke="#FFF" stroke-width="1.675" stroke-linejoin="round" stroke-linecap="round" fill="none" d="M559.841,262.86 Q565.453,265.121 565.704,268.89 565.72,269.128 565.746,269.393 565.741,269.456 565.746,269.518 L565.746,269.644 Q565.777,271.823 565.285,275.841 M552.304,277.935 Q557.823,276.618 561.181,272.575 562.307,271.222 563.191,269.56" test="Avatar Man"/>
      <path id="Layer2_0_4_STROKES" stroke="#F90" stroke-width="1.675" stroke-linejoin="round" stroke-linecap="round" fill="none" d="M495.437,507.913 Q497.196,507.745 512.522,514.026 531.618,520.224 551.55,520.056 570.729,519.889 587.646,515.031 601.884,510.928 603.056,511.263 608.249,512.602 612.353,521.815 617.545,533.289 614.781,548.113 611.348,566.789 602.554,580.524 592.252,596.52 577.094,601.294 L565.201,604.979 Q565.034,604.979 566.206,603.723 567.714,602.048 566.206,600.875 559.004,591.579 552.639,583.623 540.16,567.961 531.869,564.444 519.222,559.084 506.827,552.803 491.836,545.014 488.737,541.413 485.89,538.063 485.304,528.264 485.136,518.13 484.969,516.288 484.718,513.775 487.732,511.765 489.407,510.593 495.437,507.913Z" test="Avatar Man"/>
    </g>
    <g id="Avatar-Lady">
      <path fill="#000" stroke="none" d="M251.593,412.926 Q247.881,412.461 244.763,412.684 236.621,413.766 233.169,414.116 227.527,414.689 221.394,412.93 217.746,412.194 212.479,409.752 202.029,404.858 192.441,395.879 182.972,387.013 176.073,376.274 L174.408,377.464 Q174.628,383.821 172.411,398.848 170.775,410.271 171.195,418.708 171.269,420.279 171.418,421.747 171.726,424.779 173.888,439.361 176.025,460.411 174.277,468.33 173.115,473.637 171.338,479.602 170.343,484.042 170.959,490.104 171.302,493.48 172.486,497.605 L172.495,497.689 Q173.586,501.505 175.379,505.988 179.048,515.313 179.535,520.113 179.792,522.639 179.114,525.175 178.741,526.531 178.216,527.222 L179.784,528.424 Q180.016,530.34 180.104,534.091 180.113,534.279 180.138,534.428 180.265,539.61 180.168,548.121 L180.176,548.205 Q180.144,551.61 180.069,555.532 L183.761,557.539 Q186.017,553.689 191.844,545.829 200.005,534.878 201.911,531.026 L202.246,530.142 Q205.49,526.069 207.971,517.821 210.784,506.987 212.811,500.146 213.252,498.626 213.615,497.172 213.816,496.653 213.933,496.118 214.014,496.005 213.992,495.857 214.064,495.792 214.059,495.68 L214.059,495.68 Q218.071,482.048 220.653,473.489 225.981,455.594 229.152,447.445 230.609,443.646 232.702,439.684 233.535,438.082 234.415,436.447 L234.634,436.085 234.709,435.992 Q236.998,432.189 239.793,428.245 246.263,419.081 251.377,414.989 L251.593,412.926 M216.022,264.521 L214.184,252.288 213.763,252.33 Q204.332,253.288 198.835,254.442 187.765,256.842 179.224,261.537 171.021,266.198 163.654,273.241 160.863,275.878 158.172,278.732 158.174,278.772 158.096,278.825 157.909,279.058 157.634,279.297 153.666,283.763 150.002,288.749 143.716,297.213 141.539,305.941 139.355,314.585 139.386,324.109 L139.281,327.267 Q141.98,327.356 145.261,327.511 150.651,327.814 158.43,331.533 158.832,331.746 164.018,334.624 164.067,334.636 164.102,334.615 165.862,335.646 168.164,336.925 165.862,335.646 164.102,334.615 164.067,334.636 164.018,334.624 158.832,331.746 158.43,331.533 150.651,327.814 145.261,327.511 141.98,327.356 139.281,327.267 L137.724,338.74 Q139.477,338.948 141.346,339.223 155.497,341.188 160.86,340.389 155.497,341.188 141.346,339.223 139.477,338.948 137.724,338.74 137.551,338.711 137.379,338.69 125.644,337.195 119.365,338.052 L115.263,342.892 Q117.587,344.878 122.767,348.935 129.657,354.293 133.92,356.565 134.745,356.956 135.437,357.262 141.319,359.897 147.878,359.146 152.669,358.574 159.626,359.229 165.117,359.692 166.741,358.932 L172.191,359.824 170.964,367.01 175.963,376.03 Q176.051,376.167 176.073,376.274 182.972,387.013 192.441,395.879 202.029,404.858 212.479,409.752 217.746,412.194 221.394,412.93 227.527,414.689 233.169,414.116 236.621,413.766 244.763,412.684 247.881,412.461 251.593,412.926 L251.677,412.917 Q254.58,413.347 257.843,414.163 267.784,416.556 270.707,416.855 276.99,417.578 280.499,416.115 282.124,415.355 286.363,411.862 288.953,409.727 290.297,402.02 291.689,392.266 292.767,386.967 293.979,381.315 299.528,369.778 300.259,368.25 300.93,366.828 305.476,357.157 307.123,352.418 307.304,351.906 307.45,351.449 309.956,343.453 306.699,334.001 304.17,326.687 299.784,322.028 L293.38,314.257 Q292.872,314.662 292.177,314.974 286.95,317.121 286.63,311.454 L281.861,309.727 266.508,314.348 Q266.629,314.768 266.762,315.173 266.516,314.935 266.205,314.719 263.456,312.113 259.326,309.803 250.232,304.857 242.538,307 235.097,309.116 222.899,318.011 211.241,327.086 205.344,331.108 204.556,331.72 203.838,332.196 199.859,334.897 185.531,343.753 184.093,344.648 182.805,345.391 179.081,347.804 176.739,349.325 174.276,351.097 173.51,351.864 174.276,351.097 176.739,349.325 179.081,347.804 182.805,345.391 184.093,344.648 185.531,343.753 199.859,334.897 203.838,332.196 204.556,331.72 205.344,331.108 211.241,327.086 222.899,318.011 235.097,309.116 242.538,307 250.232,304.857 259.326,309.803 263.456,312.113 266.205,314.719 L266.508,314.348 Q266.443,314.144 266.381,313.936 265.355,310.654 264.467,306.814 262.457,297.916 263.361,294.252 264.081,291.286 270.854,287.621 276.887,284.201 276.278,282.391 274.595,277.543 266.466,270.372 L258.692,264.186 Q246.457,274.121 235.293,283.406 223.617,293.227 213.14,302.329 195.513,318.07 189.079,323.402 181.54,329.661 175.368,333.301 173.319,334.555 171.421,335.488 173.319,334.555 175.368,333.301 181.54,329.661 189.079,323.402 195.513,318.07 213.14,302.329 223.617,293.227 235.293,283.406 L229.092,275.954 Q228.232,275.02 223.088,270.439 217.48,265.479 216.022,264.521 M252.551,323.507 Q251.244,322.364 247.226,322.176 244.182,322.034 235.538,327.701 232.766,329.558 229.422,331.98 215.635,341.972 213.277,342.212 215.635,341.972 229.422,331.98 232.766,329.558 235.538,327.701 244.182,322.034 247.226,322.176 251.244,322.364 252.551,323.507 253.858,324.65 258.055,326.606 253.858,324.65 252.551,323.507 M248.556,337.779 Q250.43,335.292 250.276,333.776 250.233,333.355 247.914,331.464 250.233,333.355 250.276,333.776 250.43,335.292 248.556,337.779 246.539,340.535 244.434,340.749 238.287,341.373 237.842,336.995 237.774,336.321 237.833,336.06 238.034,335.529 239.159,333.203 238.034,335.529 237.833,336.06 237.774,336.321 237.842,336.995 238.287,341.373 244.434,340.749 246.539,340.535 248.556,337.779 M235.265,392.041 Q234.953,392.889 234.418,393.743 232.964,396.187 232.022,396.964 232.964,396.187 234.418,393.743 234.953,392.889 235.265,392.041 236.402,389.834 236.219,388.031 L235.677,386.044 236.219,388.031 Q236.402,389.834 235.265,392.041 M273.945,359.105 Q276.077,358.888 278.801,357.506 281.753,356.115 285.364,353.437 290.514,349.535 291.62,347.187 292.05,346.401 291.988,345.788 291.92,345.115 290.005,343.012 288.174,340.901 287.475,340.717 288.174,340.901 290.005,343.012 291.92,345.115 291.988,345.788 292.05,346.401 291.62,347.187 290.514,349.535 285.364,353.437 281.753,356.115 278.801,357.506 276.077,358.888 273.945,359.105 270.661,359.438 268.232,357.303 264.395,353.864 264.126,353.722 264.395,353.864 268.232,357.303 270.661,359.438 273.945,359.105 M293.553,361.197 Q293.484,360.523 292.363,359.531 293.484,360.523 293.553,361.197 293.664,362.292 293.337,363.26 293.01,364.229 292.245,365.073 290.631,366.768 288.189,367.016 287.263,367.11 285.249,366.549 283.32,365.979 282.055,365.257 283.32,365.979 285.249,366.549 287.263,367.11 288.189,367.016 290.631,366.768 292.245,365.073 293.01,364.229 293.337,363.26 293.664,362.292 293.553,361.197 M256.222,394.847 Q259.901,394.218 263.664,393.58 259.901,394.218 256.222,394.847 246.188,397.397 237.069,393.048 246.188,397.397 256.222,394.847 M191.057,295.128 Q186.731,291.059 180.345,289.326 174.043,287.584 168.731,288.889 174.043,287.584 180.345,289.326 186.731,291.059 191.057,295.128Z" test="Avatar Lady" stroke-width="1.693"/>
      <path id="Layer1_0_1_STROKES" stroke="#009EFF" stroke-width="1.693" stroke-linejoin="round" stroke-linecap="round" fill="none" d="M281.861,309.727 Q280.449,305.872 283.41,304.04 286.279,302.133 289.048,300.916 M256.656,260.054 Q256.832,259.271 256.789,258.85 256.703,258.008 253.378,252.901 249.453,246.92 248.828,245.792 246.531,241.602 241.957,240.961 237.283,241.01 235.606,240.414 236.071,241.643 236.49,245.769 L236.938,251.849 Q236.694,251.958 234.773,251.473 232.684,251.004 231.757,251.099 228.474,251.432 226.688,251.443 222.427,251.365 217.712,251.844 L214.184,252.288 M216.022,264.521 Q217.48,265.479 223.088,270.439 228.232,275.02 229.092,275.954 M235.606,240.414 Q235.594,240.331 235.514,240.339 L235.488,240.086 Q235.587,240.245 235.606,240.414Z M213.763,252.33 Q213.746,252.162 213.83,252.153 214.008,252.3 214.184,252.288 L213.763,252.33 Q204.332,253.288 198.835,254.442 187.765,256.842 179.224,261.537 171.021,266.198 163.654,273.241 160.863,275.878 158.214,278.728 158.174,278.772 158.139,278.82 157.909,279.058 157.676,279.293 153.666,283.763 150.002,288.749 143.716,297.213 141.539,305.941 139.355,314.585 139.386,324.109 M139.286,327.31 Q141.98,327.356 145.261,327.511 150.651,327.814 158.43,331.533 158.832,331.746 164.018,334.624 164.067,334.636 164.106,334.657 165.862,335.646 168.164,336.925 M258.055,326.606 Q253.858,324.65 252.551,323.507 251.244,322.364 247.226,322.176 244.182,322.034 235.542,327.744 232.766,329.558 229.422,331.98 215.635,341.972 213.277,342.212 M264.126,353.722 Q264.395,353.864 268.232,357.303 270.661,359.438 273.945,359.105 276.077,358.888 278.848,357.543 281.753,356.115 285.364,353.437 290.514,349.535 291.662,347.183 292.05,346.401 291.988,345.788 291.92,345.115 290.005,343.012 288.174,340.901 287.475,340.717 M299.784,322.028 Q304.17,326.687 306.699,334.001 309.956,343.453 307.45,351.449 307.304,351.906 307.123,352.418 305.476,357.157 300.93,366.828 300.259,368.25 299.528,369.778 293.979,381.315 292.767,386.967 291.689,392.266 290.297,402.02 288.953,409.727 286.363,411.862 282.124,415.355 280.499,416.115 276.99,417.578 270.707,416.855 267.784,416.556 257.843,414.163 254.58,413.347 251.681,412.959 L251.597,412.968 M251.377,414.989 Q246.263,419.081 239.793,428.245 236.998,432.189 234.752,435.988 L234.676,436.081 234.458,436.443 Q233.535,438.082 232.702,439.684 230.609,443.646 229.152,447.445 225.981,455.594 220.653,473.489 218.071,482.048 214.101,495.676 L214.063,495.722 Q214.064,495.792 214.034,495.853 214.014,496.005 213.98,496.156 213.816,496.653 213.657,497.167 213.252,498.626 212.811,500.146 210.784,506.987 207.971,517.821 205.49,526.069 202.246,530.142 M201.911,531.026 Q200.005,534.878 191.844,545.829 186.017,553.689 183.765,557.581 183.055,558.843 182.703,559.688 M282.055,365.257 Q283.32,365.979 285.249,366.549 287.263,367.11 288.189,367.016 290.631,366.768 292.245,365.073 293.01,364.229 293.337,363.26 293.664,362.292 293.553,361.197 293.484,360.523 292.363,359.531 M251.597,412.968 Q247.881,412.461 244.763,412.684 236.621,413.766 233.169,414.116 227.527,414.689 221.394,412.93 217.746,412.194 212.479,409.752 202.029,404.858 192.441,395.879 182.972,387.013 176.12,376.312 M174.408,377.464 Q174.628,383.821 172.411,398.848 170.775,410.271 171.195,418.708 171.269,420.279 171.418,421.747 171.726,424.779 173.888,439.361 176.025,460.411 174.277,468.33 173.115,473.637 171.338,479.602 170.343,484.042 170.959,490.104 171.302,493.48 172.49,497.647 L172.495,497.689 Q173.586,501.505 175.379,505.988 179.048,515.313 179.535,520.113 179.792,522.639 179.114,525.175 178.741,526.531 178.22,527.265 M179.784,528.424 Q180.016,530.34 180.108,534.133 180.113,534.279 180.138,534.428 180.265,539.61 180.172,548.163 L180.176,548.205 Q180.144,551.61 180.069,555.532 M230.124,449.473 L230.106,454.324 Q230.191,455.166 231.123,458.474 232.054,461.782 232.14,462.624 232.225,463.466 233.53,468.778 234.751,474.099 234.836,474.941 235.555,482.013 228.292,512.695 220.945,543.385 221.586,549.7 222.21,555.847 232.951,569.473 241.347,580.104 251.653,590.287 259.117,597.61 278.271,632.925 278.382,634.02 279.081,634.204 279.688,634.313 279.712,633.715 M194.641,590.121 Q196.865,591.086 208.897,600.668 221.781,611.099 222.029,613.541 222.337,616.572 244.606,629.794 266.875,643.015 267.217,646.383 267.32,647.393 267.648,647.275 267.976,647.156 267.993,647.325 L268.607,646.667 M191.057,295.128 Q186.731,291.059 180.345,289.326 174.043,287.584 168.731,288.889 M139.286,327.31 Q139.203,327.328 139.117,327.327 139.03,327.325 138.949,327.344 134.854,327.258 132.157,327.48 124.899,328.047 119.875,330.514 113.64,333.614 112.933,334.196 111.756,335.167 112.079,337.516 112.504,340.025 113.947,341.665 114.343,342.063 115.073,342.699 115.165,342.771 115.258,342.85 L115.305,342.888 M119.365,338.052 Q125.644,337.195 137.379,338.69 137.551,338.711 137.724,338.74 M115.305,342.888 Q117.587,344.878 122.767,348.935 129.657,354.293 133.962,356.561 134.745,356.956 135.437,357.262 141.319,359.897 147.878,359.146 152.669,358.574 159.626,359.229 165.117,359.692 166.741,358.932 M170.964,367.01 L175.963,376.03 Q176.051,376.167 176.12,376.312 M130.788,362.583 Q128.326,365.98 127.688,383.994 127.414,392.189 127.358,394.151 127.372,397.637 127.765,401.51 128.244,406.226 131.249,416.554 134.17,426.891 134.769,432.785 134.831,433.398 134.897,434.048 135.114,436.857 135.109,440.321 135.112,446 134.527,453.439 134.117,458.654 133.42,464.737 130.985,485.996 132.729,503.173 133.011,505.952 135.189,514.833 137.316,523.209 137.31,524.826 M137.724,338.74 Q139.477,338.948 141.346,339.223 155.497,341.188 160.86,340.389 M152.877,379.055 L153.259,381.142 Q153.456,383.079 152.723,388.428 151.998,393.861 152.275,398.256 152.518,403.165 153.356,411.417 153.45,412.343 154.086,415.256 154.73,418.253 154.842,419.347 154.848,419.408 154.854,419.474 155.069,421.739 154.919,425.975 154.834,431.003 154.205,432.343 153.541,433.346 152.357,435.933 151.514,437.677 151.12,438.823 150.726,439.969 150.781,440.516 M156.881,475.456 Q156.95,476.129 156.64,483.136 156.247,490.152 156.349,491.162 156.537,493.015 158.575,497.997 159.56,500.512 160.084,501.969 160.571,503.412 160.613,503.83 160.904,506.692 159.001,512.245 157.29,517.183 155.786,519.122 M134.897,434.048 Q130.158,435.125 125.156,441.162 120.516,446.703 119.674,452.522 119.433,454.219 119.511,455.942 119.722,461.365 121.307,518.029 123.017,573.405 123.531,579.308 123.933,583.265 124.036,590.145 124.061,591.155 124.103,592.052 L124.111,592.137 Q124.317,595.016 124.872,596.696 125.362,598.177 165.353,646.008 205.039,693.359 205.465,696.719 M117.619,452.391 Q109.955,457.337 102.223,461.61 91.183,467.665 84.827,468.736 71.549,470.34 56.022,471.576 25.043,473.956 13.882,472.112 M178.22,527.265 Q177.737,527.952 177.105,528.016 M180.069,555.532 L180.074,555.574 Q180.059,557.524 180.017,559.621 179.79,570.822 179.316,585.808 179.245,589.303 189.939,604.975 203.114,624.139 206.096,630.046 226.453,670.513 228.781,689.247 M28.892,573.01 Q35.57,573.438 52.419,577.681 70.76,582.369 80.914,586.868 94.718,592.952 98.298,593.864 105.729,595.832 114.972,593.873 118.719,593.067 121.858,592.153" test="Avatar Lady"/>
      <path id="Layer1_0_2_STROKES" stroke="#FFBC00" stroke-width="1.693" stroke-linejoin="round" stroke-linecap="round" fill="none" d="M235.335,283.401 Q246.457,274.121 258.692,264.186 L266.466,270.372 Q274.595,277.543 276.278,282.391 276.887,284.201 270.854,287.621 264.081,291.286 263.361,294.252 262.457,297.916 264.467,306.814 265.355,310.654 266.381,313.936 266.443,314.144 266.508,314.348 M171.421,335.488 Q173.319,334.555 175.372,333.343 181.54,329.661 189.079,323.402 195.513,318.07 213.14,302.329 223.617,293.227 235.335,283.401 M266.247,314.715 Q266.516,314.935 266.762,315.173 266.629,314.768 266.508,314.348 M266.247,314.715 Q263.456,312.113 259.326,309.803 250.232,304.857 242.538,307 235.097,309.116 222.899,318.011 211.241,327.086 205.39,331.145 204.556,331.72 203.838,332.196 199.859,334.897 185.531,343.753 184.093,344.648 182.809,345.433 179.081,347.804 176.786,349.362 174.276,351.097 173.51,351.864" test="Avatar Lady"/>
      <path id="Layer1_0_3_STROKES" stroke="#FF0" stroke-width="1.693" stroke-linejoin="round" stroke-linecap="round" fill="none" d="M286.63,311.454 Q286.95,317.121 292.177,314.974 292.872,314.662 293.422,314.253 295.343,312.764 295.327,309.976 295.289,307.087 292.433,306.612 M239.159,333.203 Q238.034,335.529 237.833,336.06 237.774,336.321 237.842,336.995 238.287,341.373 244.434,340.749 246.539,340.535 248.556,337.779 250.43,335.292 250.276,333.776 250.233,333.355 247.914,331.464" test="Avatar Lady"/>
      <path id="Layer1_0_4_STROKES" stroke="#FFF" stroke-width="1.693" stroke-linejoin="round" stroke-linecap="round" fill="none" d="M235.677,386.044 L236.219,388.031 Q236.402,389.834 235.312,392.078 234.953,392.889 234.418,393.743 232.964,396.187 232.022,396.964 M237.069,393.048 Q246.188,397.397 256.222,394.847 259.901,394.218 263.664,393.58" test="Avatar Lady"/>
    </g>
  </g>
</svg>