<?xml version="1.0" encoding="utf-8"?>
<svg id="EdithAnim13" image-rendering="inherit" baseProfile="basic" version="1.1" x="0px" y="0px" width="800" height="600" xmlns="http://www.w3.org/2000/svg" xmlns:xlink="http://www.w3.org/1999/xlink">
  <g id="22_Avatarf42r1" overflow="visible">
    <g id="Avatar-Manf0r1">
      <g id="Tailf0r1">
        <path id="Layer3_0_1_STROKES" stroke="#009EFF" stroke-width="2.303" stroke-linejoin="round" stroke-linecap="round" fill="none" d="M650.79,605.842 Q649.628,588.92 648.987,571.989 648.413,555.571 643.079,540.065 637.217,523.176 620.884,515.493 601.035,506.236 598.161,526.936 597.741,529.952 599.713,532.599 604.375,538.959 611.004,543.03 617.933,540.5 623.144,545.279 629.418,551.081 632.179,559.78 638.632,580.308 643.772,601.008 645.224,606.8 644.249,612.676" test="Tail_2.3242325232423263e+312.3242325232423263e+31_2.3242325232423263e+312.3242325232423263e+31_2.3242325232423263e+312.3242325232423263e+31_2.3242325232423263e+312.3242325232423263e+31_2.3242325232423263e+312.3242325232423263e+31_2.3242325232423263e+312.3242325232423263e+31"/>
      </g>
      <path fill="#000" stroke="none" d="M612.353,519.765 Q608.249,510.553 603.056,509.213 601.884,508.878 587.646,512.981 570.729,517.839 551.55,518.006 531.618,518.174 512.522,511.976 497.196,505.695 495.437,505.863 489.407,508.543 487.732,509.715 484.718,511.725 484.969,514.237 485.136,516.08 485.304,526.214 485.89,536.013 488.737,539.363 491.836,542.964 506.827,550.753 519.222,557.034 531.869,562.394 540.16,565.911 552.639,581.573 559.004,589.529 566.206,598.825 567.714,599.998 566.206,601.673 565.034,602.929 565.201,602.929 L577.094,599.244 Q592.252,594.47 602.554,578.474 611.348,564.739 614.781,546.063 617.545,531.239 612.353,519.765 M617.713,171.281 L614.698,170.025 Q614.654,170.131 614.614,170.193 613.706,172.511 613.106,174.631 611.515,180.326 609.002,189.036 608.946,189.189 608.835,189.288 606.54,195.385 601.8,198.081 591.834,203.776 586.306,206.456 L590.075,214.831 Q589.656,220.945 591.583,261.899 591.653,263.41 591.666,264.83 593.229,296.831 593.425,306.538 593.423,306.601 593.425,306.621 593.453,308.866 593.425,309.888 593.09,323.036 595.519,343.806 595.854,346.738 600.46,344.309 605.066,341.796 604.731,340.038 604.564,338.781 606.49,339.451 608.081,340.038 608.5,340.456 608.584,340.54 614.781,319.1 L619.806,327.475 Q619.89,327.559 622.738,309.05 L627.762,311.144 Q627.86,311.243 627.176,302.35 627.213,302.33 627.176,302.266 626.222,288.595 623.491,253.859 621.835,232.633 620.56,218.684 618.982,200.038 618.131,194.396 617.893,192.751 617.713,192.219 617.893,192.751 618.131,194.396 618.982,200.038 620.56,218.684 L621.9,218.6 Q623.575,218.433 628.516,213.491 632.871,209.304 636.137,210.644 639.069,211.9 656.656,237.36 676.924,263.155 693.506,267.175 678.599,267.678 656.489,284.679 649.621,289.955 642.838,296.32 L641.833,297.241 Q643.025,309.971 646.941,353.521 L647.863,353.438 Q652.218,351.009 682.703,327.056 712.099,303.858 721.563,295.65 728.598,289.536 734.376,279.905 737.308,274.964 740.825,268.85 742.5,266.924 746.101,264.244 749.033,261.564 749.2,257.125 749.368,252.77 717.543,232.251 682.284,210.309 675.5,205.2 655.567,190.209 646.271,184.179 635.196,176.918 627.679,173.71 621.433,171.052 617.713,171.281 M558.166,166.173 Q560.679,165.754 563.024,165.335 566.793,165.335 566.541,169.941 573.744,169.104 576.591,169.941 579.606,170.863 579.522,174.129 L584.213,176.306 Q587.506,169.904 595.519,164.581 600.125,161.483 604.061,160.478 604.123,160.464 604.145,160.394 L603.056,153.694 Q604.313,153.61 601.884,150.679 597.445,145.57 593.844,141.131 588.986,135.101 572.069,129.658 557.245,124.884 549.037,124.8 522.74,124.549 504.65,131.919 493.427,136.525 483.377,150.428 481.451,153.062 479.86,155.453 475.369,162.571 473.997,167.931 L473.997,169.941 Q474.165,169.941 474.919,170.193 475.756,170.36 476.343,170.36 479.357,170.36 482.372,167.931 485.806,165.084 489.072,164.498 L489.072,166.591 492.841,166.591 Q495.354,166.089 500.127,164.665 503.812,163.493 504.566,163.66 L504.566,165.754 Q505.404,165.754 508.754,166.173 514.281,166.173 519.641,163.241 L523.829,163.241 523.829,164.916 530.529,164.916 Q541.584,161.566 542.254,161.566 543.343,161.566 544.348,162.32 545.52,163.158 547.698,163.241 547.698,165.335 547.279,166.173 L558.166,166.173Z" test="Avatar Man" stroke-width="1.675"/>
      <path id="Layer2_0_1_STROKES" stroke="#009EFF" stroke-width="1.675" stroke-linejoin="round" stroke-linecap="round" fill="none" d="M579.522,174.129 Q579.606,170.863 576.591,169.941 573.744,169.104 566.541,169.941 566.793,165.335 563.024,165.335 560.679,165.754 558.166,166.173 L547.279,166.173 Q547.698,165.335 547.698,163.241 545.52,163.158 544.348,162.32 543.343,161.566 542.254,161.566 541.584,161.566 530.529,164.916 L523.829,164.916 523.829,163.241 519.641,163.241 Q514.281,166.173 508.754,166.173 505.404,165.754 504.566,165.754 L504.566,163.66 Q503.812,163.493 500.127,164.665 495.354,166.089 492.841,166.591 L489.072,166.591 489.072,164.498 Q485.806,165.084 482.372,167.931 479.357,170.36 476.343,170.36 475.756,170.36 474.919,170.193 474.165,169.941 473.997,169.941 L473.997,167.931 Q475.369,162.571 479.902,155.494 481.451,153.062 483.377,150.428 493.427,136.525 504.65,131.919 522.74,124.549 549.037,124.8 557.245,124.884 572.069,129.658 588.986,135.101 593.844,141.131 597.445,145.57 601.884,150.679 604.313,153.61 603.056,153.694 M604.187,160.436 Q604.249,160.442 604.313,160.436 606.845,159.876 612.269,159.556 616.205,159.389 618.634,157.797 619.974,156.96 621.9,155.369 622.654,154.95 619.555,160.31 618.131,162.739 616.959,165.084 616.242,166.492 615.661,167.848 615.522,168.127 615.409,168.392 615.165,168.914 614.949,169.439 614.818,169.734 614.698,170.025 M617.713,171.281 Q621.433,171.052 627.721,173.752 635.196,176.918 646.271,184.179 655.567,190.209 675.5,205.2 682.284,210.309 717.543,232.251 749.368,252.77 749.2,257.125 749.033,261.564 746.101,264.244 742.5,266.924 740.825,268.85 737.308,274.964 734.376,279.905 728.598,289.536 721.563,295.65 712.099,303.858 682.703,327.056 652.218,351.009 647.863,353.438 647.429,353.721 647.025,353.982 642.151,357.144 639.99,358.379 636.137,360.64 632.787,360.138 M616.959,165.084 Q615.654,166.514 614.572,167.345 613.478,168.142 612.604,168.35 609.421,168.601 605.569,169.188 600.627,169.941 597.948,171.784 594.346,174.883 590.912,177.563 586.641,180.913 583.961,182.504 L582.119,183.425 Q582.522,179.73 584.254,176.348 M578.685,174.129 L579.522,174.129 M584.254,176.348 Q587.506,169.904 595.519,164.581 600.125,161.483 604.061,160.478 604.123,160.464 604.187,160.436 M614.698,170.025 Q614.654,170.131 614.614,170.234 613.706,172.511 613.106,174.631 611.515,180.326 609.002,189.036 608.946,189.189 608.877,189.329 606.54,195.385 601.8,198.081 591.834,203.776 586.306,206.456 M590.075,214.831 Q589.656,220.945 591.583,261.899 591.653,263.41 591.708,264.872 593.229,296.831 593.425,306.538 593.423,306.601 593.425,306.663 593.453,308.866 593.425,309.888 593.09,323.036 595.519,343.806 595.854,346.738 600.46,344.309 605.066,341.796 604.731,340.038 604.564,338.781 606.49,339.451 608.081,340.038 608.5,340.456 608.584,340.54 614.781,319.1 L619.806,327.475 Q619.89,327.559 622.738,309.05 L627.762,311.144 Q627.86,311.243 627.218,302.392 627.213,302.33 627.218,302.266 626.222,288.595 623.491,253.859 621.835,232.633 620.602,218.684 618.982,200.038 618.131,194.396 617.893,192.751 617.713,192.219 M641.833,297.283 L642.838,296.32 Q649.621,289.955 656.489,284.679 678.599,267.678 693.506,267.175 676.924,263.155 656.656,237.36 639.069,211.9 636.137,210.644 632.871,209.304 628.516,213.491 623.575,218.433 621.9,218.6 M527.681,211.9 Q528.658,212.057 530.696,212.151 533.021,212.235 536.726,212.235 543.259,212.151 546.106,211.9 551.382,211.398 552.053,211.23 555.402,210.309 555.738,207.713 M576.675,278.9 Q577.512,284.344 579.439,292.216 581.784,301.68 583.794,306.538 M483.294,276.388 Q483.294,276.471 483.629,285.014 483.88,291.128 486.225,295.231 486.979,296.548 488.109,297.828 491.54,301.658 498.452,305.114 508,309.971 517.213,310.306 L520.604,310.558 520.73,310.558 Q529.608,310.893 532.287,310.725 536.894,310.39 542.338,308.631 546.358,307.375 557.161,297.66 564.839,290.685 572.99,282.166 573.096,282.064 573.199,281.957 573.263,281.897 573.325,281.831 573.41,281.751 573.493,281.664 574.779,280.299 576.089,278.9 576.174,278.81 576.256,278.733 576.29,278.684 576.34,278.649 576.353,278.6 576.382,278.565 586.243,268.051 587.563,265.081 M520.563,311.144 Q519.809,314.745 518.385,322.953 516.961,330.071 514.7,333.756 M637.394,301.513 L641.833,297.283 M628.181,368.094 Q628.098,368.261 619.639,390.288 613.609,405.949 611.431,414.994 608.751,425.965 606.406,458.628 604.061,490.453 605.15,497.488 M556.91,411.141 Q557.412,412.984 559.088,413.486 559.59,413.654 560.93,413.654 563.108,413.654 563.945,412.649 564.28,412.314 565.62,409.215 M523.41,398.998 Q523.242,414.24 524.331,416.585 526.09,420.773 535.973,420.773 540.746,420.773 541.165,420.689 541.667,420.605 543.51,419.516 M524.666,450.504 Q523.829,453.016 523.829,455.78 523.829,460.386 527.514,460.638 529.943,460.721 537.647,460.554 M521.735,485.26 Q526.006,488.191 528.77,488.861 530.78,489.28 534.297,488.61 M564.531,603.431 Q558.25,606.363 541.416,609.545 524.415,612.728 506.325,614.319 490.664,615.743 453.814,614.989 426.009,614.486 410.012,613.481 397.701,612.728 372.744,610.131 366.546,609.461 361.94,610.466 358.674,611.22 357.669,610.55 M478.269,154.531 Q475.086,152.605 471.317,150.595 463.78,146.659 461.519,146.994 459.09,147.329 461.1,159.305 462.775,169.523 464.45,173.794 M468.637,185.1 Q469.307,187.864 471.066,193.391 472.071,197.83 469.475,199.756 466.277,202.14 463.236,204.363 L463.194,204.404 Q417.498,238.335 411.687,240.375 406.579,241.883 405.323,242.301 403.564,242.971 403.312,244.563 402.894,247.829 402.726,259.051 402.475,271.949 403.312,274.713 406.16,286.103 428.102,318.514 449.626,350.255 462.356,362.65 M470.312,213.994 Q472.909,215.334 478.101,216.004 478.312,216.036 478.52,216.046 483.421,216.747 488.319,216.506 491.417,216.339 498.62,215.166 504.482,214.161 506.325,214.413 M469.894,235.769 Q468.889,237.444 458.085,248.248 448.286,258.046 445.606,260.475 M490.329,255.366 Q494.097,255.366 498.285,254.529 L514.616,254.529 Q509.591,259.889 506.744,262.736 501.468,267.929 500.211,267.929 497.95,267.929 494.6,263.239 491.166,257.879 489.91,256.623 M436.394,255.869 Q437.831,259.341 440.916,263.741 440.95,263.79 441,263.825 448.678,274.836 466.544,291.63 474.843,299.424 480.949,305.365 495.077,319.07 497.531,322.869 M469.475,386.1 Q468.889,399.416 471.569,405.781 473.244,409.634 478.352,413.989 483.629,418.26 488.319,419.6 M483.713,427.138 Q483.796,429.734 483.377,440.454 483.21,450.504 484.55,453.1 486.141,456.199 490.077,458.795 493.93,461.308 496.275,461.056 M489.575,464.406 Q489.659,467.17 489.659,471.441 489.826,474.624 491.25,476.55 491.417,476.801 495.94,479.9 498.955,481.994 498.787,485.763 498.62,488.61 496.861,495.645 495.354,501.508 495.856,503.35 M475.338,515.494 Q455.74,511.893 432.039,508.208 384.72,500.921 364.871,500.921 351.639,500.921 336.564,498.158 324.671,495.98 322.159,496.734 317.804,498.074 313.7,504.941 309.596,511.893 309.931,517.588 310.182,521.44 311.522,531.658 312.611,540.786 311.606,544.388 M474.919,539.781 Q467.214,541.038 431.704,541.791 393.179,542.629 386.981,543.131 380.114,543.718 358.255,547.235 338.406,550.418 330.45,550.669 320.986,551.004 312.611,549.831 308.256,549.245 301.975,547.738 298.709,546.984 295.359,549.245 293.6,550.501 289.412,554.856 284.639,559.798 288.994,570.35 289.831,572.444 288.407,584.42 286.816,596.48 287.737,598.825 L290.669,605.944 Q293.935,614.905 295.275,624.369 M354.319,598.825 Q355.491,602.594 357.669,613.398 360.014,624.955 359.762,627.3" test="Avatar Man"/>
      <path id="Layer2_0_2_STROKES" stroke="#FF0" stroke-width="1.675" stroke-linejoin="round" stroke-linecap="round" fill="none" d="M530.529,215.166 Q529.691,219.856 531.366,223.29 533.125,226.891 536.391,226.891 537.731,226.891 539.574,225.886 541.667,224.714 542.254,223.123 M478.185,218.935 Q477.347,224.798 477.347,225.216 477.347,226.92 478.604,228.734 479.272,229.682 480.279,230.66 483.377,233.591 486.56,233.591 488.235,233.591 489.324,231.916 489.994,230.995 491.166,228.985" test="Avatar Man"/>
      <path id="Layer2_0_3_STROKES" stroke="#FFF" stroke-width="1.675" stroke-linejoin="round" stroke-linecap="round" fill="none" d="M559.841,260.81 Q565.453,263.071 565.704,266.84 565.72,267.078 565.746,267.343 565.741,267.406 565.746,267.468 L565.746,267.594 Q565.777,269.773 565.285,273.791 M552.304,275.885 Q557.823,274.568 561.181,270.525 562.307,269.172 563.191,267.51" test="Avatar Man"/>
      <path id="Layer2_0_4_STROKES" stroke="#F90" stroke-width="1.675" stroke-linejoin="round" stroke-linecap="round" fill="none" d="M495.437,505.863 Q497.196,505.695 512.522,511.976 531.618,518.174 551.55,518.006 570.729,517.839 587.646,512.981 601.884,508.878 603.056,509.213 608.249,510.553 612.353,519.765 617.545,531.239 614.781,546.063 611.348,564.739 602.554,578.474 592.252,594.47 577.094,599.244 L565.201,602.929 Q565.034,602.929 566.206,601.673 567.714,599.998 566.206,598.825 559.004,589.529 552.639,581.573 540.16,565.911 531.869,562.394 519.222,557.034 506.827,550.753 491.836,542.964 488.737,539.363 485.89,536.013 485.304,526.214 485.136,516.08 484.969,514.237 484.718,511.725 487.732,509.715 489.407,508.543 495.437,505.863Z" test="Avatar Man"/>
    </g>
    <g id="Avatar-Lady">
      <path fill="#000" stroke="none" d="M251.593,410.576 Q247.881,410.111 244.763,410.334 236.621,411.416 233.169,411.766 227.527,412.339 221.394,410.58 217.746,409.844 212.479,407.402 202.029,402.508 192.441,393.529 182.972,384.663 176.073,373.924 L174.408,375.114 Q174.628,381.471 172.411,396.498 170.775,407.921 171.195,416.358 171.269,417.929 171.418,419.398 171.726,422.429 173.888,437.011 176.025,458.061 174.277,465.98 173.115,471.287 171.338,477.252 170.343,481.692 170.959,487.754 171.302,491.13 172.486,495.255 L172.495,495.339 Q173.586,499.155 175.379,503.638 179.048,512.963 179.535,517.763 179.792,520.289 179.114,522.825 178.741,524.181 178.216,524.872 L179.784,526.074 Q180.016,527.99 180.104,531.741 180.113,531.929 180.138,532.078 180.265,537.26 180.168,545.771 L180.176,545.855 Q180.144,549.26 180.069,553.182 L183.761,555.189 Q186.017,551.339 191.844,543.48 200.005,532.528 201.911,528.676 L202.246,527.792 Q205.49,523.719 207.971,515.471 210.784,504.637 212.811,497.796 213.252,496.276 213.615,494.822 213.816,494.303 213.933,493.768 214.014,493.655 213.992,493.507 214.064,493.442 214.059,493.33 L214.059,493.33 Q218.071,479.698 220.653,471.139 225.981,453.244 229.152,445.095 230.609,441.296 232.702,437.334 233.535,435.732 234.415,434.097 L234.634,433.735 234.709,433.642 Q236.998,429.839 239.793,425.895 246.263,416.731 251.377,412.639 L251.593,410.576 M216.022,262.171 L214.184,249.938 213.763,249.98 Q204.332,250.938 198.835,252.092 187.765,254.492 179.224,259.187 171.021,263.848 163.654,270.891 160.863,273.528 158.172,276.382 158.174,276.422 158.096,276.475 157.909,276.708 157.634,276.947 153.666,281.413 150.002,286.399 143.716,294.863 141.539,303.591 139.355,312.235 139.386,321.759 L139.281,324.917 Q141.98,325.006 145.261,325.161 150.651,325.464 158.43,329.183 158.832,329.396 164.018,332.274 164.067,332.286 164.102,332.265 165.862,333.296 168.164,334.575 165.862,333.296 164.102,332.265 164.067,332.286 164.018,332.274 158.832,329.396 158.43,329.183 150.651,325.464 145.261,325.161 141.98,325.006 139.281,324.917 L137.724,336.39 Q139.477,336.598 141.346,336.873 155.497,338.838 160.86,338.039 155.497,338.838 141.346,336.873 139.477,336.598 137.724,336.39 137.551,336.361 137.379,336.34 125.644,334.845 119.365,335.702 L115.263,340.542 Q117.587,342.528 122.767,346.585 129.657,351.943 133.92,354.215 134.745,354.606 135.437,354.912 141.319,357.547 147.878,356.796 152.669,356.224 159.626,356.879 165.117,357.342 166.741,356.582 L172.191,357.474 170.964,364.66 175.963,373.68 Q176.051,373.817 176.073,373.924 182.972,384.663 192.441,393.529 202.029,402.508 212.479,407.402 217.746,409.844 221.394,410.58 227.527,412.339 233.169,411.766 236.621,411.416 244.763,410.334 247.881,410.111 251.593,410.576 L251.677,410.567 Q254.58,410.997 257.843,411.813 267.784,414.206 270.707,414.505 276.99,415.228 280.499,413.765 282.124,413.005 286.363,409.512 288.953,407.378 290.297,399.67 291.689,389.916 292.767,384.617 293.979,378.965 299.528,367.428 300.259,365.9 300.93,364.478 305.476,354.807 307.123,350.068 307.304,349.556 307.45,349.099 309.956,341.103 306.699,331.651 304.17,324.337 299.784,319.678 L293.38,311.907 Q292.872,312.312 292.177,312.624 286.95,314.771 286.63,309.104 L281.861,307.377 266.508,311.998 Q266.629,312.418 266.762,312.823 266.516,312.585 266.205,312.369 263.456,309.763 259.326,307.453 250.232,302.507 242.538,304.65 235.097,306.766 222.899,315.661 211.241,324.736 205.344,328.758 204.556,329.37 203.838,329.846 199.859,332.547 185.531,341.403 184.093,342.298 182.805,343.041 179.081,345.454 176.739,346.975 174.276,348.747 173.51,349.514 174.276,348.747 176.739,346.975 179.081,345.454 182.805,343.041 184.093,342.298 185.531,341.403 199.859,332.547 203.838,329.846 204.556,329.37 205.344,328.758 211.241,324.736 222.899,315.661 235.097,306.766 242.538,304.65 250.232,302.507 259.326,307.453 263.456,309.763 266.205,312.369 L266.508,311.998 Q266.443,311.794 266.381,311.586 265.355,308.304 264.467,304.464 262.457,295.566 263.361,291.902 264.081,288.936 270.854,285.271 276.887,281.851 276.278,280.041 274.595,275.193 266.466,268.022 L258.692,261.836 Q246.457,271.771 235.293,281.056 223.617,290.877 213.14,299.979 195.513,315.72 189.079,321.052 181.54,327.311 175.368,330.951 173.319,332.205 171.421,333.138 173.319,332.205 175.368,330.951 181.54,327.311 189.079,321.052 195.513,315.72 213.14,299.979 223.617,290.877 235.293,281.056 L229.092,273.604 Q228.232,272.67 223.088,268.089 217.48,263.129 216.022,262.171 M252.551,321.157 Q251.244,320.014 247.226,319.826 244.182,319.684 235.538,325.351 232.766,327.208 229.422,329.63 215.635,339.622 213.277,339.862 215.635,339.622 229.422,329.63 232.766,327.208 235.538,325.351 244.182,319.684 247.226,319.826 251.244,320.014 252.551,321.157 253.858,322.3 258.055,324.256 253.858,322.3 252.551,321.157 M248.556,335.429 Q250.43,332.942 250.276,331.426 250.233,331.005 247.914,329.114 250.233,331.005 250.276,331.426 250.43,332.942 248.556,335.429 246.539,338.186 244.434,338.399 238.287,339.023 237.842,334.645 237.774,333.971 237.833,333.71 238.034,333.179 239.159,330.853 238.034,333.179 237.833,333.71 237.774,333.971 237.842,334.645 238.287,339.023 244.434,338.399 246.539,338.186 248.556,335.429 M235.265,389.691 Q234.953,390.539 234.418,391.393 232.964,393.837 232.022,394.614 232.964,393.837 234.418,391.393 234.953,390.539 235.265,389.691 236.402,387.484 236.219,385.681 L235.677,383.694 236.219,385.681 Q236.402,387.484 235.265,389.691 M273.945,356.755 Q276.077,356.538 278.801,355.156 281.753,353.765 285.364,351.087 290.514,347.185 291.62,344.837 292.05,344.051 291.988,343.438 291.92,342.765 290.005,340.662 288.174,338.551 287.475,338.367 288.174,338.551 290.005,340.662 291.92,342.765 291.988,343.438 292.05,344.051 291.62,344.837 290.514,347.185 285.364,351.087 281.753,353.765 278.801,355.156 276.077,356.538 273.945,356.755 270.661,357.088 268.232,354.953 264.395,351.514 264.126,351.372 264.395,351.514 268.232,354.953 270.661,357.088 273.945,356.755 M293.553,358.847 Q293.484,358.173 292.363,357.181 293.484,358.173 293.553,358.847 293.664,359.942 293.337,360.91 293.01,361.879 292.245,362.723 290.631,364.418 288.189,364.666 287.263,364.76 285.249,364.199 283.32,363.629 282.055,362.907 283.32,363.629 285.249,364.199 287.263,364.76 288.189,364.666 290.631,364.418 292.245,362.723 293.01,361.879 293.337,360.91 293.664,359.942 293.553,358.847 M256.222,392.497 Q259.901,391.868 263.664,391.23 259.901,391.868 256.222,392.497 246.188,395.047 237.069,390.698 246.188,395.047 256.222,392.497 M191.057,292.778 Q186.731,288.709 180.345,286.976 174.043,285.234 168.731,286.539 174.043,285.234 180.345,286.976 186.731,288.709 191.057,292.778Z" test="Avatar Lady" stroke-width="1.693"/>
      <path id="Layer1_0_1_STROKES" stroke="#009EFF" stroke-width="1.693" stroke-linejoin="round" stroke-linecap="round" fill="none" d="M281.861,307.377 Q280.449,303.522 283.41,301.69 286.279,299.783 289.048,298.566 M256.656,257.704 Q256.832,256.921 256.789,256.5 256.703,255.658 253.378,250.551 249.453,244.57 248.828,243.442 246.531,239.252 241.957,238.611 237.283,238.66 235.606,238.064 236.071,239.293 236.49,243.419 L236.938,249.499 Q236.694,249.608 234.773,249.123 232.684,248.655 231.757,248.749 228.474,249.082 226.688,249.093 222.427,249.015 217.712,249.494 L214.184,249.938 M216.022,262.171 Q217.48,263.129 223.088,268.089 228.232,272.67 229.092,273.604 M235.606,238.064 Q235.594,237.981 235.514,237.989 L235.488,237.736 Q235.587,237.895 235.606,238.064Z M213.763,249.98 Q213.746,249.812 213.83,249.803 214.008,249.95 214.184,249.938 L213.763,249.98 Q204.332,250.938 198.835,252.092 187.765,254.492 179.224,259.187 171.021,263.848 163.654,270.891 160.863,273.528 158.214,276.378 158.174,276.422 158.139,276.47 157.909,276.708 157.676,276.943 153.666,281.413 150.002,286.399 143.716,294.863 141.539,303.591 139.355,312.235 139.386,321.759 M139.286,324.96 Q141.98,325.006 145.261,325.161 150.651,325.464 158.43,329.183 158.832,329.396 164.018,332.274 164.067,332.286 164.106,332.307 165.862,333.296 168.164,334.575 M258.055,324.256 Q253.858,322.3 252.551,321.157 251.244,320.014 247.226,319.826 244.182,319.684 235.542,325.394 232.766,327.208 229.422,329.63 215.635,339.622 213.277,339.862 M264.126,351.372 Q264.395,351.514 268.232,354.953 270.661,357.088 273.945,356.755 276.077,356.538 278.848,355.193 281.753,353.765 285.364,351.087 290.514,347.185 291.662,344.833 292.05,344.051 291.988,343.438 291.92,342.765 290.005,340.662 288.174,338.551 287.475,338.367 M299.784,319.678 Q304.17,324.337 306.699,331.651 309.956,341.103 307.45,349.099 307.304,349.556 307.123,350.068 305.476,354.807 300.93,364.478 300.259,365.9 299.528,367.428 293.979,378.965 292.767,384.617 291.689,389.916 290.297,399.67 288.953,407.378 286.363,409.512 282.124,413.005 280.499,413.765 276.99,415.228 270.707,414.505 267.784,414.206 257.843,411.813 254.58,410.997 251.681,410.609 L251.597,410.618 M251.377,412.639 Q246.263,416.731 239.793,425.895 236.998,429.839 234.752,433.638 L234.676,433.731 234.458,434.093 Q233.535,435.732 232.702,437.334 230.609,441.296 229.152,445.095 225.981,453.244 220.653,471.139 218.071,479.698 214.101,493.326 L214.063,493.372 Q214.064,493.442 214.034,493.503 214.014,493.655 213.98,493.806 213.816,494.303 213.657,494.817 213.252,496.276 212.811,497.796 210.784,504.637 207.971,515.471 205.49,523.719 202.246,527.792 M201.911,528.676 Q200.005,532.528 191.844,543.48 186.017,551.339 183.765,555.231 183.055,556.493 182.703,557.338 M282.055,362.907 Q283.32,363.629 285.249,364.199 287.263,364.76 288.189,364.666 290.631,364.418 292.245,362.723 293.01,361.879 293.337,360.91 293.664,359.942 293.553,358.847 293.484,358.173 292.363,357.181 M251.597,410.618 Q247.881,410.111 244.763,410.334 236.621,411.416 233.169,411.766 227.527,412.339 221.394,410.58 217.746,409.844 212.479,407.402 202.029,402.508 192.441,393.529 182.972,384.663 176.12,373.962 M174.408,375.114 Q174.628,381.471 172.411,396.498 170.775,407.921 171.195,416.358 171.269,417.929 171.418,419.398 171.726,422.429 173.888,437.011 176.025,458.061 174.277,465.98 173.115,471.287 171.338,477.252 170.343,481.692 170.959,487.754 171.302,491.13 172.49,495.297 L172.495,495.339 Q173.586,499.155 175.379,503.638 179.048,512.963 179.535,517.763 179.792,520.289 179.114,522.825 178.741,524.181 178.22,524.915 M179.784,526.074 Q180.016,527.99 180.108,531.783 180.113,531.929 180.138,532.078 180.265,537.26 180.172,545.813 L180.176,545.855 Q180.144,549.26 180.069,553.182 M230.124,447.123 L230.106,451.974 Q230.191,452.816 231.123,456.124 232.054,459.432 232.14,460.274 232.225,461.116 233.53,466.428 234.751,471.749 234.836,472.591 235.555,479.663 228.292,510.345 220.945,541.035 221.586,547.35 222.21,553.497 232.951,567.123 241.347,577.754 251.653,587.937 259.117,595.26 278.271,630.575 278.382,631.67 279.081,631.854 279.688,631.963 279.712,631.365 M194.641,587.771 Q196.865,588.736 208.897,598.318 221.781,608.749 222.029,611.191 222.337,614.222 244.606,627.444 266.875,640.665 267.217,644.033 267.32,645.043 267.648,644.925 267.976,644.806 267.993,644.975 L268.607,644.317 M191.057,292.778 Q186.731,288.709 180.345,286.976 174.043,285.234 168.731,286.539 M139.286,324.96 Q139.203,324.978 139.117,324.977 139.03,324.975 138.949,324.994 134.854,324.908 132.157,325.13 124.899,325.697 119.875,328.164 113.64,331.264 112.933,331.846 111.756,332.817 112.079,335.166 112.504,337.675 113.947,339.315 114.343,339.713 115.073,340.349 115.165,340.421 115.258,340.5 L115.305,340.538 M119.365,335.702 Q125.644,334.845 137.379,336.34 137.551,336.361 137.724,336.39 M115.305,340.538 Q117.587,342.528 122.767,346.585 129.657,351.943 133.962,354.211 134.745,354.606 135.437,354.912 141.319,357.547 147.878,356.796 152.669,356.224 159.626,356.879 165.117,357.342 166.741,356.582 M170.964,364.66 L175.963,373.68 Q176.051,373.817 176.12,373.962 M130.788,360.233 Q128.326,363.63 127.688,381.644 127.414,389.839 127.358,391.801 127.372,395.287 127.765,399.16 128.244,403.876 131.249,414.204 134.17,424.541 134.769,430.435 134.831,431.048 134.897,431.698 135.114,434.507 135.109,437.971 135.112,443.65 134.527,451.089 134.117,456.304 133.42,462.387 130.985,483.647 132.729,500.823 133.011,503.602 135.189,512.483 137.316,520.859 137.31,522.476 M137.724,336.39 Q139.477,336.598 141.346,336.873 155.497,338.838 160.86,338.039 M152.877,376.705 L153.259,378.792 Q153.456,380.729 152.723,386.078 151.998,391.511 152.275,395.906 152.518,400.815 153.356,409.067 153.45,409.993 154.086,412.906 154.73,415.903 154.842,416.998 154.848,417.058 154.854,417.124 155.069,419.389 154.919,423.625 154.834,428.653 154.205,429.993 153.541,430.996 152.357,433.583 151.514,435.327 151.12,436.473 150.726,437.619 150.781,438.166 M156.881,473.106 Q156.95,473.779 156.64,480.786 156.247,487.802 156.349,488.812 156.537,490.665 158.575,495.647 159.56,498.162 160.084,499.619 160.571,501.062 160.613,501.48 160.904,504.342 159.001,509.895 157.29,514.833 155.786,516.772 M134.897,431.698 Q130.158,432.775 125.156,438.812 120.516,444.353 119.674,450.172 119.433,451.869 119.511,453.592 119.722,459.015 121.307,515.679 123.017,571.055 123.531,576.958 123.933,580.915 124.036,587.795 124.061,588.805 124.103,589.702 L124.111,589.787 Q124.317,592.666 124.872,594.346 125.362,595.827 165.353,643.658 205.039,691.009 205.465,694.369 M117.619,450.041 Q109.955,454.987 102.223,459.26 91.183,465.315 84.827,466.386 71.549,467.99 56.022,469.226 25.043,471.606 13.882,469.762 M178.22,524.915 Q177.737,525.602 177.105,525.666 M180.069,553.182 L180.074,553.224 Q180.059,555.174 180.017,557.271 179.79,568.472 179.316,583.458 179.245,586.953 189.939,602.625 203.114,621.789 206.096,627.696 226.453,668.163 228.781,686.897 M28.892,570.66 Q35.57,571.088 52.419,575.331 70.76,580.019 80.914,584.518 94.718,590.602 98.298,591.514 105.729,593.482 114.972,591.523 118.719,590.717 121.858,589.803" test="Avatar Lady"/>
      <path id="Layer1_0_2_STROKES" stroke="#FFBC00" stroke-width="1.693" stroke-linejoin="round" stroke-linecap="round" fill="none" d="M235.335,281.051 Q246.457,271.771 258.692,261.836 L266.466,268.022 Q274.595,275.193 276.278,280.041 276.887,281.851 270.854,285.271 264.081,288.936 263.361,291.902 262.457,295.566 264.467,304.464 265.355,308.304 266.381,311.586 266.443,311.794 266.508,311.998 M171.421,333.138 Q173.319,332.205 175.372,330.993 181.54,327.311 189.079,321.052 195.513,315.72 213.14,299.979 223.617,290.877 235.335,281.051 M266.247,312.365 Q266.516,312.585 266.762,312.823 266.629,312.418 266.508,311.998 M266.247,312.365 Q263.456,309.763 259.326,307.453 250.232,302.507 242.538,304.65 235.097,306.766 222.899,315.661 211.241,324.736 205.39,328.795 204.556,329.37 203.838,329.846 199.859,332.547 185.531,341.403 184.093,342.298 182.809,343.083 179.081,345.454 176.786,347.012 174.276,348.747 173.51,349.514" test="Avatar Lady"/>
      <path id="Layer1_0_3_STROKES" stroke="#FF0" stroke-width="1.693" stroke-linejoin="round" stroke-linecap="round" fill="none" d="M286.63,309.104 Q286.95,314.771 292.177,312.624 292.872,312.312 293.422,311.903 295.343,310.414 295.327,307.626 295.289,304.737 292.433,304.262 M239.159,330.853 Q238.034,333.179 237.833,333.71 237.774,333.971 237.842,334.645 238.287,339.023 244.434,338.399 246.539,338.186 248.556,335.429 250.43,332.942 250.276,331.426 250.233,331.005 247.914,329.114" test="Avatar Lady"/>
      <path id="Layer1_0_4_STROKES" stroke="#FFF" stroke-width="1.693" stroke-linejoin="round" stroke-linecap="round" fill="none" d="M235.677,383.694 L236.219,385.681 Q236.402,387.484 235.312,389.728 234.953,390.539 234.418,391.393 232.964,393.837 232.022,394.614 M237.069,390.698 Q246.188,395.047 256.222,392.497 259.901,391.868 263.664,391.23" test="Avatar Lady"/>
    </g>
  </g>
</svg>