<?xml version="1.0" encoding="utf-8"?>
<svg id="EdithAnim13" image-rendering="inherit" baseProfile="basic" version="1.1" x="0px" y="0px" width="800" height="600" xmlns="http://www.w3.org/2000/svg" xmlns:xlink="http://www.w3.org/1999/xlink">
  <g id="22_Avatarf44r1" overflow="visible">
    <g id="Avatar-Manf0r1">
      <g id="Tailf0r1">
        <path id="Layer3_0_1_STROKES" stroke="#009EFF" stroke-width="2.303" stroke-linejoin="round" stroke-linecap="round" fill="none" d="M650.79,603.092 Q649.628,586.17 648.987,569.239 648.413,552.821 643.079,537.315 637.217,520.426 620.884,512.743 601.035,503.486 598.161,524.186 597.741,527.202 599.713,529.849 604.375,536.209 611.004,540.28 617.933,537.75 623.144,542.529 629.418,548.331 632.179,557.03 638.632,577.558 643.772,598.258 645.224,604.05 644.249,609.926" test="Tail_2.3242325232423263e+312.3242325232423263e+31_2.3242325232423263e+312.3242325232423263e+31_2.3242325232423263e+312.3242325232423263e+31_2.3242325232423263e+312.3242325232423263e+31_2.3242325232423263e+312.3242325232423263e+31_2.3242325232423263e+312.3242325232423263e+31_22"/>
      </g>
      <path fill="#000" stroke="none" d="M612.353,517.015 Q608.249,507.803 603.056,506.463 601.884,506.128 587.646,510.231 570.729,515.089 551.55,515.256 531.618,515.424 512.522,509.226 497.196,502.945 495.437,503.113 489.407,505.793 487.732,506.965 484.718,508.975 484.969,511.488 485.136,513.33 485.304,523.464 485.89,533.263 488.737,536.613 491.836,540.214 506.827,548.003 519.222,554.284 531.869,559.644 540.16,563.161 552.639,578.823 559.004,586.779 566.206,596.075 567.714,597.248 566.206,598.923 565.034,600.179 565.201,600.179 L577.094,596.494 Q592.252,591.72 602.554,575.724 611.348,561.989 614.781,543.313 617.545,528.489 612.353,517.015 M617.713,168.531 L614.698,167.275 Q614.654,167.381 614.614,167.443 613.706,169.761 613.106,171.881 611.515,177.576 609.002,186.286 608.946,186.439 608.835,186.538 606.54,192.635 601.8,195.331 591.834,201.026 586.306,203.706 L590.075,212.081 Q589.656,218.195 591.583,259.149 591.653,260.66 591.666,262.08 593.229,294.081 593.425,303.788 593.423,303.851 593.425,303.871 593.453,306.116 593.425,307.138 593.09,320.286 595.519,341.056 595.854,343.988 600.46,341.559 605.066,339.046 604.731,337.288 604.564,336.031 606.49,336.701 608.081,337.288 608.5,337.706 608.584,337.79 614.781,316.35 L619.806,324.725 Q619.89,324.809 622.738,306.3 L627.762,308.394 Q627.86,308.493 627.176,299.6 627.213,299.58 627.176,299.516 626.222,285.845 623.491,251.109 621.835,229.883 620.56,215.934 618.982,197.288 618.131,191.646 617.893,190.001 617.713,189.469 617.893,190.001 618.131,191.646 618.982,197.288 620.56,215.934 L621.9,215.85 Q623.575,215.683 628.516,210.741 632.871,206.554 636.137,207.894 639.069,209.15 656.656,234.61 676.924,260.405 693.506,264.425 678.599,264.928 656.489,281.929 649.621,287.205 642.838,293.57 L641.833,294.491 Q643.025,307.221 646.941,350.771 L647.863,350.688 Q652.218,348.259 682.703,324.306 712.099,301.108 721.563,292.9 728.598,286.786 734.376,277.155 737.308,272.214 740.825,266.1 742.5,264.174 746.101,261.494 749.033,258.814 749.2,254.375 749.368,250.02 717.543,229.501 682.284,207.559 675.5,202.45 655.567,187.459 646.271,181.429 635.196,174.168 627.679,170.96 621.433,168.302 617.713,168.531 M558.166,163.423 Q560.679,163.004 563.024,162.585 566.793,162.585 566.541,167.191 573.744,166.354 576.591,167.191 579.606,168.113 579.522,171.379 L584.213,173.556 Q587.506,167.154 595.519,161.831 600.125,158.733 604.061,157.728 604.123,157.714 604.145,157.644 L603.056,150.944 Q604.313,150.86 601.884,147.929 597.445,142.82 593.844,138.381 588.986,132.351 572.069,126.908 557.245,122.134 549.037,122.05 522.74,121.799 504.65,129.169 493.427,133.775 483.377,147.678 481.451,150.312 479.86,152.703 475.369,159.821 473.997,165.181 L473.997,167.191 Q474.165,167.191 474.919,167.443 475.756,167.61 476.343,167.61 479.357,167.61 482.372,165.181 485.806,162.334 489.072,161.748 L489.072,163.841 492.841,163.841 Q495.354,163.339 500.127,161.915 503.812,160.743 504.566,160.91 L504.566,163.004 Q505.404,163.004 508.754,163.423 514.281,163.423 519.641,160.491 L523.829,160.491 523.829,162.166 530.529,162.166 Q541.584,158.816 542.254,158.816 543.343,158.816 544.348,159.57 545.52,160.408 547.698,160.491 547.698,162.585 547.279,163.423 L558.166,163.423Z" test="Avatar Man" stroke-width="1.675"/>
      <path id="Layer2_0_1_STROKES" stroke="#009EFF" stroke-width="1.675" stroke-linejoin="round" stroke-linecap="round" fill="none" d="M579.522,171.379 Q579.606,168.113 576.591,167.191 573.744,166.354 566.541,167.191 566.793,162.585 563.024,162.585 560.679,163.004 558.166,163.423 L547.279,163.423 Q547.698,162.585 547.698,160.491 545.52,160.408 544.348,159.57 543.343,158.816 542.254,158.816 541.584,158.816 530.529,162.166 L523.829,162.166 523.829,160.491 519.641,160.491 Q514.281,163.423 508.754,163.423 505.404,163.004 504.566,163.004 L504.566,160.91 Q503.812,160.743 500.127,161.915 495.354,163.339 492.841,163.841 L489.072,163.841 489.072,161.748 Q485.806,162.334 482.372,165.181 479.357,167.61 476.343,167.61 475.756,167.61 474.919,167.443 474.165,167.191 473.997,167.191 L473.997,165.181 Q475.369,159.821 479.902,152.744 481.451,150.312 483.377,147.678 493.427,133.775 504.65,129.169 522.74,121.799 549.037,122.05 557.245,122.134 572.069,126.908 588.986,132.351 593.844,138.381 597.445,142.82 601.884,147.929 604.313,150.86 603.056,150.944 M604.187,157.686 Q604.249,157.692 604.313,157.686 606.845,157.126 612.269,156.806 616.205,156.639 618.634,155.047 619.974,154.21 621.9,152.619 622.654,152.2 619.555,157.56 618.131,159.989 616.959,162.334 616.242,163.742 615.661,165.098 615.522,165.377 615.409,165.642 615.165,166.164 614.949,166.689 614.818,166.984 614.698,167.275 M617.713,168.531 Q621.433,168.302 627.721,171.002 635.196,174.168 646.271,181.429 655.567,187.459 675.5,202.45 682.284,207.559 717.543,229.501 749.368,250.02 749.2,254.375 749.033,258.814 746.101,261.494 742.5,264.174 740.825,266.1 737.308,272.214 734.376,277.155 728.598,286.786 721.563,292.9 712.099,301.108 682.703,324.306 652.218,348.259 647.863,350.688 647.429,350.971 647.025,351.232 642.151,354.394 639.99,355.629 636.137,357.89 632.787,357.388 M616.959,162.334 Q615.654,163.764 614.572,164.595 613.478,165.392 612.604,165.6 609.421,165.851 605.569,166.438 600.627,167.191 597.948,169.034 594.346,172.133 590.912,174.813 586.641,178.163 583.961,179.754 L582.119,180.675 Q582.522,176.98 584.254,173.598 M578.685,171.379 L579.522,171.379 M584.254,173.598 Q587.506,167.154 595.519,161.831 600.125,158.733 604.061,157.728 604.123,157.714 604.187,157.686 M614.698,167.275 Q614.654,167.381 614.614,167.484 613.706,169.761 613.106,171.881 611.515,177.576 609.002,186.286 608.946,186.439 608.877,186.579 606.54,192.635 601.8,195.331 591.834,201.026 586.306,203.706 M590.075,212.081 Q589.656,218.195 591.583,259.149 591.653,260.66 591.708,262.122 593.229,294.081 593.425,303.788 593.423,303.851 593.425,303.913 593.453,306.116 593.425,307.138 593.09,320.286 595.519,341.056 595.854,343.988 600.46,341.559 605.066,339.046 604.731,337.288 604.564,336.031 606.49,336.701 608.081,337.288 608.5,337.706 608.584,337.79 614.781,316.35 L619.806,324.725 Q619.89,324.809 622.738,306.3 L627.762,308.394 Q627.86,308.493 627.218,299.642 627.213,299.58 627.218,299.516 626.222,285.845 623.491,251.109 621.835,229.883 620.602,215.934 618.982,197.288 618.131,191.646 617.893,190.001 617.713,189.469 M641.833,294.533 L642.838,293.57 Q649.621,287.205 656.489,281.929 678.599,264.928 693.506,264.425 676.924,260.405 656.656,234.61 639.069,209.15 636.137,207.894 632.871,206.554 628.516,210.741 623.575,215.683 621.9,215.85 M527.681,209.15 Q528.658,209.307 530.696,209.401 533.021,209.485 536.726,209.485 543.259,209.401 546.106,209.15 551.382,208.648 552.053,208.48 555.402,207.559 555.738,204.963 M576.675,276.15 Q577.512,281.594 579.439,289.466 581.784,298.93 583.794,303.788 M483.294,273.638 Q483.294,273.721 483.629,282.264 483.88,288.378 486.225,292.481 486.979,293.798 488.109,295.078 491.54,298.908 498.452,302.364 508,307.221 517.213,307.556 L520.604,307.808 520.73,307.808 Q529.608,308.143 532.287,307.975 536.894,307.64 542.338,305.881 546.358,304.625 557.161,294.91 564.839,287.935 572.99,279.416 573.096,279.314 573.199,279.207 573.263,279.147 573.325,279.081 573.41,279.001 573.493,278.914 574.779,277.549 576.089,276.15 576.174,276.06 576.256,275.983 576.29,275.934 576.34,275.899 576.353,275.85 576.382,275.815 586.243,265.301 587.563,262.331 M520.563,308.394 Q519.809,311.995 518.385,320.203 516.961,327.321 514.7,331.006 M637.394,298.763 L641.833,294.533 M628.181,365.344 Q628.098,365.511 619.639,387.538 613.609,403.199 611.431,412.244 608.751,423.215 606.406,455.878 604.061,487.703 605.15,494.738 M556.91,408.391 Q557.412,410.234 559.088,410.736 559.59,410.904 560.93,410.904 563.108,410.904 563.945,409.899 564.28,409.564 565.62,406.465 M523.41,396.248 Q523.242,411.49 524.331,413.835 526.09,418.023 535.973,418.023 540.746,418.023 541.165,417.939 541.667,417.855 543.51,416.766 M524.666,447.754 Q523.829,450.266 523.829,453.03 523.829,457.636 527.514,457.888 529.943,457.971 537.647,457.804 M521.735,482.51 Q526.006,485.441 528.77,486.111 530.78,486.53 534.297,485.86 M564.531,600.681 Q558.25,603.613 541.416,606.795 524.415,609.978 506.325,611.569 490.664,612.993 453.814,612.239 426.009,611.736 410.012,610.731 397.701,609.978 372.744,607.381 366.546,606.711 361.94,607.716 358.674,608.47 357.669,607.8 M478.269,151.781 Q475.086,149.855 471.317,147.845 463.78,143.909 461.519,144.244 459.09,144.579 461.1,156.555 462.775,166.773 464.45,171.044 M468.637,182.35 Q469.307,185.114 471.066,190.641 472.071,195.08 469.475,197.006 466.277,199.39 463.236,201.613 L463.194,201.654 Q417.498,235.585 411.687,237.625 406.579,239.133 405.323,239.551 403.564,240.221 403.312,241.813 402.894,245.079 402.726,256.301 402.475,269.199 403.312,271.963 406.16,283.353 428.102,315.764 449.626,347.505 462.356,359.9 M470.312,211.244 Q472.909,212.584 478.101,213.254 478.312,213.286 478.52,213.296 483.421,213.997 488.319,213.756 491.417,213.589 498.62,212.416 504.482,211.411 506.325,211.663 M469.894,233.019 Q468.889,234.694 458.085,245.498 448.286,255.296 445.606,257.725 M490.329,252.616 Q494.097,252.616 498.285,251.779 L514.616,251.779 Q509.591,257.139 506.744,259.986 501.468,265.179 500.211,265.179 497.95,265.179 494.6,260.489 491.166,255.129 489.91,253.873 M436.394,253.119 Q437.831,256.591 440.916,260.991 440.95,261.04 441,261.075 448.678,272.086 466.544,288.88 474.843,296.674 480.949,302.615 495.077,316.32 497.531,320.119 M469.475,383.35 Q468.889,396.666 471.569,403.031 473.244,406.884 478.352,411.239 483.629,415.51 488.319,416.85 M483.713,424.388 Q483.796,426.984 483.377,437.704 483.21,447.754 484.55,450.35 486.141,453.449 490.077,456.045 493.93,458.558 496.275,458.306 M489.575,461.656 Q489.659,464.42 489.659,468.691 489.826,471.874 491.25,473.8 491.417,474.051 495.94,477.15 498.955,479.244 498.787,483.013 498.62,485.86 496.861,492.895 495.354,498.758 495.856,500.6 M475.338,512.744 Q455.74,509.143 432.039,505.458 384.72,498.171 364.871,498.171 351.639,498.171 336.564,495.408 324.671,493.23 322.159,493.984 317.804,495.324 313.7,502.191 309.596,509.143 309.931,514.838 310.182,518.69 311.522,528.908 312.611,538.036 311.606,541.638 M474.919,537.031 Q467.214,538.288 431.704,539.041 393.179,539.879 386.981,540.381 380.114,540.968 358.255,544.485 338.406,547.668 330.45,547.919 320.986,548.254 312.611,547.081 308.256,546.495 301.975,544.988 298.709,544.234 295.359,546.495 293.6,547.751 289.412,552.106 284.639,557.048 288.994,567.6 289.831,569.694 288.407,581.67 286.816,593.73 287.737,596.075 L290.669,603.194 Q293.935,612.155 295.275,621.619 M354.319,596.075 Q355.491,599.844 357.669,610.648 360.014,622.205 359.762,624.55" test="Avatar Man"/>
      <path id="Layer2_0_2_STROKES" stroke="#FF0" stroke-width="1.675" stroke-linejoin="round" stroke-linecap="round" fill="none" d="M530.529,212.416 Q529.691,217.106 531.366,220.54 533.125,224.141 536.391,224.141 537.731,224.141 539.574,223.136 541.667,221.964 542.254,220.373 M478.185,216.185 Q477.347,222.048 477.347,222.466 477.347,224.17 478.604,225.984 479.272,226.932 480.279,227.91 483.377,230.841 486.56,230.841 488.235,230.841 489.324,229.166 489.994,228.245 491.166,226.235" test="Avatar Man"/>
      <path id="Layer2_0_3_STROKES" stroke="#FFF" stroke-width="1.675" stroke-linejoin="round" stroke-linecap="round" fill="none" d="M559.841,258.06 Q565.453,260.321 565.704,264.09 565.72,264.328 565.746,264.593 565.741,264.656 565.746,264.718 L565.746,264.844 Q565.777,267.023 565.285,271.041 M552.304,273.135 Q557.823,271.818 561.181,267.775 562.307,266.422 563.191,264.76" test="Avatar Man"/>
      <path id="Layer2_0_4_STROKES" stroke="#F90" stroke-width="1.675" stroke-linejoin="round" stroke-linecap="round" fill="none" d="M495.437,503.113 Q497.196,502.945 512.522,509.226 531.618,515.424 551.55,515.256 570.729,515.089 587.646,510.231 601.884,506.128 603.056,506.463 608.249,507.803 612.353,517.015 617.545,528.489 614.781,543.313 611.348,561.989 602.554,575.724 592.252,591.72 577.094,596.494 L565.201,600.179 Q565.034,600.179 566.206,598.923 567.714,597.248 566.206,596.075 559.004,586.779 552.639,578.823 540.16,563.161 531.869,559.644 519.222,554.284 506.827,548.003 491.836,540.214 488.737,536.613 485.89,533.263 485.304,523.464 485.136,513.33 484.969,511.488 484.718,508.975 487.732,506.965 489.407,505.793 495.437,503.113Z" test="Avatar Man"/>
    </g>
    <g id="Avatar-Lady">
      <path fill="#000" stroke="none" d="M251.593,407.476 Q247.881,407.011 244.763,407.234 236.621,408.316 233.169,408.666 227.527,409.239 221.394,407.48 217.746,406.744 212.479,404.302 202.029,399.408 192.441,390.429 182.972,381.563 176.073,370.824 L174.408,372.014 Q174.628,378.371 172.411,393.398 170.775,404.821 171.195,413.258 171.269,414.829 171.418,416.298 171.726,419.329 173.888,433.911 176.025,454.961 174.277,462.88 173.115,468.187 171.338,474.152 170.343,478.592 170.959,484.654 171.302,488.03 172.486,492.155 L172.495,492.239 Q173.586,496.055 175.379,500.538 179.048,509.863 179.535,514.663 179.792,517.189 179.114,519.725 178.741,521.081 178.216,521.772 L179.784,522.974 Q180.016,524.89 180.104,528.641 180.113,528.829 180.138,528.978 180.265,534.16 180.168,542.671 L180.176,542.755 Q180.144,546.16 180.069,550.082 L183.761,552.089 Q186.017,548.239 191.844,540.38 200.005,529.428 201.911,525.576 L202.246,524.692 Q205.49,520.619 207.971,512.371 210.784,501.537 212.811,494.696 213.252,493.176 213.615,491.722 213.816,491.203 213.933,490.668 214.014,490.555 213.992,490.407 214.064,490.342 214.059,490.23 L214.059,490.23 Q218.071,476.598 220.653,468.039 225.981,450.144 229.152,441.995 230.609,438.196 232.702,434.234 233.535,432.632 234.415,430.997 L234.634,430.635 234.709,430.542 Q236.998,426.739 239.793,422.795 246.263,413.631 251.377,409.539 L251.593,407.476 M216.022,259.071 L214.184,246.838 213.763,246.88 Q204.332,247.838 198.835,248.992 187.765,251.392 179.224,256.087 171.021,260.748 163.654,267.791 160.863,270.428 158.172,273.282 158.174,273.322 158.096,273.375 157.909,273.608 157.634,273.847 153.666,278.313 150.002,283.299 143.716,291.763 141.539,300.491 139.355,309.135 139.386,318.659 L139.281,321.817 Q141.98,321.906 145.261,322.061 150.651,322.364 158.43,326.083 158.832,326.296 164.018,329.174 164.067,329.186 164.102,329.165 165.862,330.196 168.164,331.475 165.862,330.196 164.102,329.165 164.067,329.186 164.018,329.174 158.832,326.296 158.43,326.083 150.651,322.364 145.261,322.061 141.98,321.906 139.281,321.817 L137.724,333.29 Q139.477,333.498 141.346,333.773 155.497,335.738 160.86,334.939 155.497,335.738 141.346,333.773 139.477,333.498 137.724,333.29 137.551,333.261 137.379,333.24 125.644,331.745 119.365,332.602 L115.263,337.442 Q117.587,339.428 122.767,343.485 129.657,348.843 133.92,351.115 134.745,351.506 135.437,351.812 141.319,354.447 147.878,353.696 152.669,353.124 159.626,353.779 165.117,354.242 166.741,353.482 L172.191,354.374 170.964,361.56 175.963,370.58 Q176.051,370.717 176.073,370.824 182.972,381.563 192.441,390.429 202.029,399.408 212.479,404.302 217.746,406.744 221.394,407.48 227.527,409.239 233.169,408.666 236.621,408.316 244.763,407.234 247.881,407.011 251.593,407.476 L251.677,407.467 Q254.58,407.897 257.843,408.713 267.784,411.106 270.707,411.405 276.99,412.128 280.499,410.665 282.124,409.905 286.363,406.412 288.953,404.278 290.297,396.57 291.689,386.816 292.767,381.517 293.979,375.865 299.528,364.328 300.259,362.8 300.93,361.378 305.476,351.707 307.123,346.968 307.304,346.456 307.45,345 309.956,338.003 306.699,328.551 304.17,321.237 299.784,316.578 L293.38,308.807 Q292.872,309.212 292.177,309.524 286.95,311.671 286.63,306.004 L281.861,304.277 266.508,308.898 Q266.629,309.318 266.762,309.723 266.516,309.485 266.205,309.269 263.456,306.663 259.326,304.353 250.232,299.407 242.538,301.55 235.097,303.666 222.899,312.561 211.241,321.636 205.344,325.658 204.556,326.27 203.838,326.746 199.859,329.447 185.531,338.303 184.093,339.198 182.805,339.941 179.081,342.354 176.739,343.875 174.276,345.647 173.51,346.414 174.276,345.647 176.739,343.875 179.081,342.354 182.805,339.941 184.093,339.198 185.531,338.303 199.859,329.447 203.838,326.746 204.556,326.27 205.344,325.658 211.241,321.636 222.899,312.561 235.097,303.666 242.538,301.55 250.232,299.407 259.326,304.353 263.456,306.663 266.205,309.269 L266.508,308.898 Q266.443,308.694 266.381,308.486 265.355,305.204 264.467,301.364 262.457,292.466 263.361,288.802 264.081,285.836 270.854,282.171 276.887,278.751 276.278,276.941 274.595,272.093 266.466,264.922 L258.692,258.736 Q246.457,268.671 235.293,277.956 223.617,287.777 213.14,296.879 195.513,312.62 189.079,317.952 181.54,324.211 175.368,327.851 173.319,329.105 171.421,330.038 173.319,329.105 175.368,327.851 181.54,324.211 189.079,317.952 195.513,312.62 213.14,296.879 223.617,287.777 235.293,277.956 L229.092,270.504 Q228.232,269.57 223.088,264.989 217.48,260.029 216.022,259.071 M252.551,318.057 Q251.244,316.914 247.226,316.726 244.182,316.584 235.538,322.251 232.766,324.108 229.422,326.53 215.635,336.522 213.277,336.762 215.635,336.522 229.422,326.53 232.766,324.108 235.538,322.251 244.182,316.584 247.226,316.726 251.244,316.914 252.551,318.057 253.858,319.2 258.055,321.156 253.858,319.2 252.551,318.057 M248.556,332.329 Q250.43,329.842 250.276,328.326 250.233,327.905 247.914,326.014 250.233,327.905 250.276,328.326 250.43,329.842 248.556,332.329 246.539,335.086 244.434,335.299 238.287,335.923 237.842,331.545 237.774,330.871 237.833,330.61 238.034,330.079 239.159,327.753 238.034,330.079 237.833,330.61 237.774,330.871 237.842,331.545 238.287,335.923 244.434,335.299 246.539,335.086 248.556,332.329 M235.265,386.591 Q234.953,387.439 234.418,388.293 232.964,390.737 232.022,391.514 232.964,390.737 234.418,388.293 234.953,387.439 235.265,386.591 236.402,384.384 236.219,382.581 L235.677,380.594 236.219,382.581 Q236.402,384.384 235.265,386.591 M273.945,353.655 Q276.077,353.438 278.801,352.056 281.753,350.665 285.364,347.987 290.514,344.085 291.62,341.737 292.05,340.951 291.988,340.338 291.92,339.665 290.005,337.562 288.174,335.451 287.475,335.267 288.174,335.451 290.005,337.562 291.92,339.665 291.988,340.338 292.05,340.951 291.62,341.737 290.514,344.085 285.364,347.987 281.753,350.665 278.801,352.056 276.077,353.438 273.945,353.655 270.661,353.988 268.232,351.853 264.395,348.414 264.126,348.272 264.395,348.414 268.232,351.853 270.661,353.988 273.945,353.655 M293.553,355.747 Q293.484,355.073 292.363,354.081 293.484,355.073 293.553,355.747 293.664,356.842 293.337,357.81 293.01,358.779 292.245,359.623 290.631,361.318 288.189,361.566 287.263,361.66 285.249,361.099 283.32,360.529 282.055,359.807 283.32,360.529 285.249,361.099 287.263,361.66 288.189,361.566 290.631,361.318 292.245,359.623 293.01,358.779 293.337,357.81 293.664,356.842 293.553,355.747 M256.222,389.397 Q259.901,388.768 263.664,388.13 259.901,388.768 256.222,389.397 246.188,391.947 237.069,387.598 246.188,391.947 256.222,389.397 M191.057,289.678 Q186.731,285.609 180.345,283.876 174.043,282.134 168.731,283.439 174.043,282.134 180.345,283.876 186.731,285.609 191.057,289.678Z" test="Avatar Lady" stroke-width="1.693"/>
      <path id="Layer1_0_1_STROKES" stroke="#009EFF" stroke-width="1.693" stroke-linejoin="round" stroke-linecap="round" fill="none" d="M281.861,304.277 Q280.449,300.422 283.41,298.59 286.279,296.683 289.048,295.466 M256.656,254.604 Q256.832,253.821 256.789,253.4 256.703,252.558 253.378,247.451 249.453,241.47 248.828,240.342 246.531,236.152 241.957,235.511 237.283,235.56 235.606,234.964 236.071,236.193 236.49,240.319 L236.938,246.399 Q236.694,246.508 234.773,246.023 232.684,245.555 231.757,245.649 228.474,245.982 226.688,245.993 222.427,245.915 217.712,246.394 L214.184,246.838 M216.022,259.071 Q217.48,260.029 223.088,264.989 228.232,269.57 229.092,270.504 M235.606,234.964 Q235.594,234.881 235.514,234.889 L235.488,234.636 Q235.587,234.795 235.606,234.964Z M213.763,246.88 Q213.746,246.712 213.83,246.703 214.008,246.85 214.184,246.838 L213.763,246.88 Q204.332,247.838 198.835,248.992 187.765,251.392 179.224,256.087 171.021,260.748 163.654,267.791 160.863,270.428 158.214,273.278 158.174,273.322 158.139,273.37 157.909,273.608 157.676,273.843 153.666,278.313 150.002,283.299 143.716,291.763 141.539,300.491 139.355,309.135 139.386,318.659 M139.286,321.86 Q141.98,321.906 145.261,322.061 150.651,322.364 158.43,326.083 158.832,326.296 164.018,329.174 164.067,329.186 164.106,329.207 165.862,330.196 168.164,331.475 M258.055,321.156 Q253.858,319.2 252.551,318.057 251.244,316.914 247.226,316.726 244.182,316.584 235.542,322.294 232.766,324.108 229.422,326.53 215.635,336.522 213.277,336.762 M264.126,348.272 Q264.395,348.414 268.232,351.853 270.661,353.988 273.945,353.655 276.077,353.438 278.848,352.093 281.753,350.665 285.364,347.987 290.514,344.085 291.662,341.733 292.05,340.951 291.988,340.338 291.92,339.665 290.005,337.562 288.174,335.451 287.475,335.267 M299.784,316.578 Q304.17,321.237 306.699,328.551 309.956,338.003 307.45,345 307.304,346.456 307.123,346.968 305.476,351.707 300.93,361.378 300.259,362.8 299.528,364.328 293.979,375.865 292.767,381.517 291.689,386.816 290.297,396.57 288.953,404.278 286.363,406.412 282.124,409.905 280.499,410.665 276.99,412.128 270.707,411.405 267.784,411.106 257.843,408.713 254.58,407.897 251.681,407.509 L251.597,407.518 M251.377,409.539 Q246.263,413.631 239.793,422.795 236.998,426.739 234.752,430.538 L234.676,430.631 234.458,430.993 Q233.535,432.632 232.702,434.234 230.609,438.196 229.152,441.995 225.981,450.144 220.653,468.039 218.071,476.598 214.101,490.226 L214.063,490.272 Q214.064,490.342 214.034,490.403 214.014,490.555 213.98,490.706 213.816,491.203 213.657,491.717 213.252,493.176 212.811,494.696 210.784,501.537 207.971,512.371 205.49,520.619 202.246,524.692 M201.911,525.576 Q200.005,529.428 191.844,540.38 186.017,548.239 183.765,552.131 183.055,553.393 182.703,554.238 M282.055,359.807 Q283.32,360.529 285.249,361.099 287.263,361.66 288.189,361.566 290.631,361.318 292.245,359.623 293.01,358.779 293.337,357.81 293.664,356.842 293.553,355.747 293.484,355.073 292.363,354.081 M251.597,407.518 Q247.881,407.011 244.763,407.234 236.621,408.316 233.169,408.666 227.527,409.239 221.394,407.48 217.746,406.744 212.479,404.302 202.029,399.408 192.441,390.429 182.972,381.563 176.12,370.862 M174.408,372.014 Q174.628,378.371 172.411,393.398 170.775,404.821 171.195,413.258 171.269,414.829 171.418,416.298 171.726,419.329 173.888,433.911 176.025,454.961 174.277,462.88 173.115,468.187 171.338,474.152 170.343,478.592 170.959,484.654 171.302,488.03 172.49,492.197 L172.495,492.239 Q173.586,496.055 175.379,500.538 179.048,509.863 179.535,514.663 179.792,517.189 179.114,519.725 178.741,521.081 178.22,521.814 M179.784,522.974 Q180.016,524.89 180.108,528.683 180.113,528.829 180.138,528.978 180.265,534.16 180.172,542.713 L180.176,542.755 Q180.144,546.16 180.069,550.082 M230.124,444.023 L230.106,448.874 Q230.191,449.716 231.123,453.024 232.054,456.332 232.14,457.174 232.225,458.016 233.53,463.328 234.751,468.649 234.836,469.491 235.555,476.563 228.292,507.245 220.945,537.935 221.586,544.25 222.21,550.397 232.951,564.023 241.347,574.654 251.653,584.837 259.117,592.16 278.271,627.475 278.382,628.57 279.081,628.754 279.688,628.863 279.712,628.265 M194.641,584.671 Q196.865,585.636 208.897,595.218 221.781,605.649 222.029,608.091 222.337,611.122 244.606,624.344 266.875,637.565 267.217,640.933 267.32,641.943 267.648,641.825 267.976,641.706 267.993,641.875 L268.607,641.217 M191.057,289.678 Q186.731,285.609 180.345,283.876 174.043,282.134 168.731,283.439 M139.286,321.86 Q139.203,321.878 139.117,321.877 139.03,321.875 138.949,321.894 134.854,321.808 132.157,322.03 124.899,322.597 119.875,325.064 113.64,328.164 112.933,328.746 111.756,329.717 112.079,332.066 112.504,334.575 113.947,336.215 114.343,336.613 115.073,337.249 115.165,337.321 115.258,337.4 L115.305,337.438 M119.365,332.602 Q125.644,331.745 137.379,333.24 137.551,333.261 137.724,333.29 M115.305,337.438 Q117.587,339.428 122.767,343.485 129.657,348.843 133.962,351.111 134.745,351.506 135.437,351.812 141.319,354.447 147.878,353.696 152.669,353.124 159.626,353.779 165.117,354.242 166.741,353.482 M170.964,361.56 L175.963,370.58 Q176.051,370.717 176.12,370.862 M130.788,357.133 Q128.326,360.53 127.688,378.544 127.414,386.739 127.358,388.701 127.372,392.187 127.765,396.06 128.244,400.776 131.249,411.104 134.17,421.441 134.769,427.335 134.831,427.948 134.897,428.598 135.114,431.407 135.109,434.871 135.112,440.55 134.527,447.989 134.117,453.204 133.42,459.287 130.985,480.547 132.729,497.723 133.011,500.502 135.189,509.383 137.316,517.759 137.31,519.376 M137.724,333.29 Q139.477,333.498 141.346,333.773 155.497,335.738 160.86,334.939 M152.877,373.605 L153.259,375.692 Q153.456,377.629 152.723,382.978 151.998,388.411 152.275,392.806 152.518,397.715 153.356,405.967 153.45,406.893 154.086,409.806 154.73,412.803 154.842,413.898 154.848,413.958 154.854,414.024 155.069,416.289 154.919,420.525 154.834,425.553 154.205,426.893 153.541,427.896 152.357,430.483 151.514,432.227 151.12,433.373 150.726,434.519 150.781,435.066 M156.881,470.006 Q156.95,470.679 156.64,477.686 156.247,484.702 156.349,485.712 156.537,487.565 158.575,492.547 159.56,495.062 160.084,496.519 160.571,497.962 160.613,498.38 160.904,501.242 159.001,506.795 157.29,511.732 155.786,513.672 M134.897,428.598 Q130.158,429.675 125.156,435.712 120.516,441.253 119.674,447.072 119.433,448.769 119.511,450.492 119.722,455.915 121.307,512.579 123.017,567.955 123.531,573.858 123.933,577.815 124.036,584.695 124.061,585.705 124.103,586.602 L124.111,586.687 Q124.317,589.566 124.872,591.246 125.362,592.727 165.353,640.558 205.039,687.909 205.465,691.268 M117.619,446.941 Q109.955,451.887 102.223,456.16 91.183,462.215 84.827,463.286 71.549,464.89 56.022,466.126 25.043,468.506 13.882,466.662 M178.22,521.814 Q177.737,522.502 177.105,522.566 M180.069,550.082 L180.074,550.124 Q180.059,552.074 180.017,554.171 179.79,565.372 179.316,580.358 179.245,583.853 189.939,599.525 203.114,618.689 206.096,624.596 226.453,665.063 228.781,683.797 M28.892,567.56 Q35.57,567.988 52.419,572.231 70.76,576.919 80.914,581.418 94.718,587.502 98.298,588.414 105.729,590.382 114.972,588.423 118.719,587.617 121.858,586.703" test="Avatar Lady"/>
      <path id="Layer1_0_2_STROKES" stroke="#FFBC00" stroke-width="1.693" stroke-linejoin="round" stroke-linecap="round" fill="none" d="M235.335,277.951 Q246.457,268.671 258.692,258.736 L266.466,264.922 Q274.595,272.093 276.278,276.941 276.887,278.751 270.854,282.171 264.081,285.836 263.361,288.802 262.457,292.466 264.467,301.364 265.355,305.204 266.381,308.486 266.443,308.694 266.508,308.898 M171.421,330.038 Q173.319,329.105 175.372,327.893 181.54,324.211 189.079,317.952 195.513,312.62 213.14,296.879 223.617,287.777 235.335,277.951 M266.247,309.265 Q266.516,309.485 266.762,309.723 266.629,309.318 266.508,308.898 M266.247,309.265 Q263.456,306.663 259.326,304.353 250.232,299.407 242.538,301.55 235.097,303.666 222.899,312.561 211.241,321.636 205.39,325.695 204.556,326.27 203.838,326.746 199.859,329.447 185.531,338.303 184.093,339.198 182.809,339.983 179.081,342.354 176.786,343.912 174.276,345.647 173.51,346.414" test="Avatar Lady"/>
      <path id="Layer1_0_3_STROKES" stroke="#FF0" stroke-width="1.693" stroke-linejoin="round" stroke-linecap="round" fill="none" d="M286.63,306.004 Q286.95,311.671 292.177,309.524 292.872,309.212 293.422,308.803 295.343,307.314 295.327,304.526 295.289,301.637 292.433,301.162 M239.159,327.753 Q238.034,330.079 237.833,330.61 237.774,330.871 237.842,331.545 238.287,335.923 244.434,335.299 246.539,335.086 248.556,332.329 250.43,329.842 250.276,328.326 250.233,327.905 247.914,326.014" test="Avatar Lady"/>
      <path id="Layer1_0_4_STROKES" stroke="#FFF" stroke-width="1.693" stroke-linejoin="round" stroke-linecap="round" fill="none" d="M235.677,380.594 L236.219,382.581 Q236.402,384.384 235.312,386.628 234.953,387.439 234.418,388.293 232.964,390.737 232.022,391.514 M237.069,387.598 Q246.188,391.947 256.222,389.397 259.901,388.768 263.664,388.13" test="Avatar Lady"/>
    </g>
  </g>
</svg>