<?xml version="1.0" encoding="utf-8"?>
<svg id="EdithAnim13" image-rendering="inherit" baseProfile="basic" version="1.1" x="0px" y="0px" width="800" height="600" xmlns="http://www.w3.org/2000/svg" xmlns:xlink="http://www.w3.org/1999/xlink">
  <g id="22_Avatarf6r1" overflow="visible">
    <g id="Avatar-Manf0r1">
      <g id="Tailf0r1">
        <path id="Layer3_0_1_STROKES" stroke="#009EFF" stroke-width="2.303" stroke-linejoin="round" stroke-linecap="round" fill="none" d="M650.79,965.992 Q649.628,949.07 648.987,932.139 648.413,915.721 643.079,900.215 637.217,883.326 620.884,875.643 601.035,866.386 598.161,887.086 597.741,890.102 599.713,892.749 604.375,899.109 611.004,903.18 617.933,900.65 623.144,905.429 629.418,911.231 632.179,919.93 638.632,940.458 643.772,961.158 645.224,966.95 644.249,972.826" test="Tail_23242325232423262324232523242326"/>
      </g>
      <path fill="#000" stroke="none" d="M612.353,879.915 Q608.249,870.703 603.056,869.363 601.884,869.028 587.646,873.131 570.729,877.989 551.55,878.156 531.618,878.324 512.522,872.126 497.196,865.845 495.437,866.013 489.407,868.693 487.732,869.865 484.718,871.875 484.969,874.388 485.136,876.23 485.304,886.364 485.89,896.163 488.737,899.513 491.836,903.114 506.827,910.903 519.222,917.184 531.869,922.544 540.16,926.061 552.639,941.723 559.004,949.679 566.206,958.975 567.714,960.148 566.206,961.823 565.034,963.079 565.201,963.079 L577.094,959.394 Q592.252,954.62 602.554,938.624 611.348,924.889 614.781,906.213 617.545,891.389 612.353,879.915 M617.713,531.431 L614.698,530.175 Q614.654,530.281 614.614,530.343 613.706,532.661 613.106,534.781 611.515,540.476 609.002,549.186 608.946,549.339 608.835,549.438 606.54,555.535 601.8,558.231 591.834,563.926 586.306,566.606 L590.075,574.981 Q589.656,581.095 591.583,622.049 591.653,623.56 591.666,624.98 593.229,656.981 593.425,666.688 593.423,666.751 593.425,666.771 593.453,669.016 593.425,670.038 593.09,683.186 595.519,703.956 595.854,706.888 600.46,704.459 605.066,701.946 604.731,700.188 604.564,698.931 606.49,699.601 608.081,700.188 608.5,700.606 608.584,700.69 614.781,679.25 L619.806,687.625 Q619.89,687.709 622.738,669.2 L627.762,671.294 Q627.86,671.393 627.176,662.5 627.213,662.48 627.176,662.416 626.222,648.745 623.491,614.009 621.835,592.783 620.56,578.834 618.982,560.188 618.131,554.546 617.893,552.901 617.713,552.369 617.893,552.901 618.131,554.546 618.982,560.188 620.56,578.834 L621.9,578.75 Q623.575,578.583 628.516,573.641 632.871,569.454 636.137,570.794 639.069,572.05 656.656,597.51 676.924,623.305 693.506,627.325 678.599,627.828 656.489,644.829 649.621,650.105 642.838,656.47 L641.833,657.391 Q643.025,670.121 646.941,713.671 L647.863,713.588 Q652.218,711.159 682.703,687.206 712.099,664.008 721.563,655.8 728.598,649.686 734.376,640.055 737.308,635.114 740.825,629 742.5,627.074 746.101,624.394 749.033,621.714 749.2,617.275 749.368,612.92 717.543,592.401 682.284,570.459 675.5,565.35 655.567,550.359 646.271,544.329 635.196,537.068 627.679,533.86 621.433,531.202 617.713,531.431 M558.166,526.323 Q560.679,525.904 563.024,525.485 566.793,525.485 566.541,530.091 573.744,529.254 576.591,530.091 579.606,531.013 579.522,534.279 L584.213,536.456 Q587.506,530.054 595.519,524.731 600.125,521.633 604.061,520.628 604.123,520.614 604.145,520.544 L603.056,513.844 Q604.313,513.76 601.884,510.829 597.445,505.72 593.844,501.281 588.986,495.251 572.069,489.808 557.245,485.034 549.037,484.95 522.74,484.699 504.65,492.069 493.427,496.675 483.377,510.578 481.451,513.212 479.86,515.603 475.369,522.721 473.997,528.081 L473.997,530.091 Q474.165,530.091 474.919,530.343 475.756,530.51 476.343,530.51 479.357,530.51 482.372,528.081 485.806,525.234 489.072,524.648 L489.072,526.741 492.841,526.741 Q495.354,526.239 500.127,524.815 503.812,523.643 504.566,523.81 L504.566,525.904 Q505.404,525.904 508.754,526.323 514.281,526.323 519.641,523.391 L523.829,523.391 523.829,525.066 530.529,525.066 Q541.584,521.716 542.254,521.716 543.343,521.716 544.348,522.47 545.52,523.308 547.698,523.391 547.698,525.485 547.279,526.323 L558.166,526.323Z" test="Avatar Man" stroke-width="1.675"/>
      <path id="Layer2_0_1_STROKES" stroke="#009EFF" stroke-width="1.675" stroke-linejoin="round" stroke-linecap="round" fill="none" d="M579.522,534.279 Q579.606,531.013 576.591,530.091 573.744,529.254 566.541,530.091 566.793,525.485 563.024,525.485 560.679,525.904 558.166,526.323 L547.279,526.323 Q547.698,525.485 547.698,523.391 545.52,523.308 544.348,522.47 543.343,521.716 542.254,521.716 541.584,521.716 530.529,525.066 L523.829,525.066 523.829,523.391 519.641,523.391 Q514.281,526.323 508.754,526.323 505.404,525.904 504.566,525.904 L504.566,523.81 Q503.812,523.643 500.127,524.815 495.354,526.239 492.841,526.741 L489.072,526.741 489.072,524.648 Q485.806,525.234 482.372,528.081 479.357,530.51 476.343,530.51 475.756,530.51 474.919,530.343 474.165,530.091 473.997,530.091 L473.997,528.081 Q475.369,522.721 479.902,515.644 481.451,513.212 483.377,510.578 493.427,496.675 504.65,492.069 522.74,484.699 549.037,484.95 557.245,485.034 572.069,489.808 588.986,495.251 593.844,501.281 597.445,505.72 601.884,510.829 604.313,513.76 603.056,513.844 M604.187,520.586 Q604.249,520.592 604.313,520.586 606.845,520.026 612.269,519.706 616.205,519.539 618.634,517.948 619.974,517.11 621.9,515.519 622.654,515.1 619.555,520.46 618.131,522.889 616.959,525.234 616.242,526.642 615.661,527.998 615.522,528.277 615.409,528.542 615.165,529.064 614.949,529.589 614.818,529.884 614.698,530.175 M617.713,531.431 Q621.433,531.202 627.721,533.902 635.196,537.068 646.271,544.329 655.567,550.359 675.5,565.35 682.284,570.459 717.543,592.401 749.368,612.92 749.2,617.275 749.033,621.714 746.101,624.394 742.5,627.074 740.825,629 737.308,635.114 734.376,640.055 728.598,649.686 721.563,655.8 712.099,664.008 682.703,687.206 652.218,711.159 647.863,713.588 647.429,713.871 647.025,714.132 642.151,717.294 639.99,718.529 636.137,720.79 632.787,720.288 M616.959,525.234 Q615.654,526.664 614.572,527.495 613.478,528.292 612.604,528.5 609.421,528.751 605.569,529.338 600.627,530.091 597.948,531.934 594.346,535.033 590.912,537.713 586.641,541.063 583.961,542.654 L582.119,543.575 Q582.522,539.88 584.254,536.498 M578.685,534.279 L579.522,534.279 M584.254,536.498 Q587.506,530.054 595.519,524.731 600.125,521.633 604.061,520.628 604.123,520.614 604.187,520.586 M614.698,530.175 Q614.654,530.281 614.614,530.384 613.706,532.661 613.106,534.781 611.515,540.476 609.002,549.186 608.946,549.339 608.877,549.479 606.54,555.535 601.8,558.231 591.834,563.926 586.306,566.606 M590.075,574.981 Q589.656,581.095 591.583,622.049 591.653,623.56 591.708,625.022 593.229,656.981 593.425,666.688 593.423,666.751 593.425,666.813 593.453,669.016 593.425,670.038 593.09,683.186 595.519,703.956 595.854,706.888 600.46,704.459 605.066,701.946 604.731,700.188 604.564,698.931 606.49,699.601 608.081,700.188 608.5,700.606 608.584,700.69 614.781,679.25 L619.806,687.625 Q619.89,687.709 622.738,669.2 L627.762,671.294 Q627.86,671.393 627.218,662.542 627.213,662.48 627.218,662.416 626.222,648.745 623.491,614.009 621.835,592.783 620.602,578.834 618.982,560.188 618.131,554.546 617.893,552.901 617.713,552.369 M641.833,657.433 L642.838,656.47 Q649.621,650.105 656.489,644.829 678.599,627.828 693.506,627.325 676.924,623.305 656.656,597.51 639.069,572.05 636.137,570.794 632.871,569.454 628.516,573.641 623.575,578.583 621.9,578.75 M527.681,572.05 Q528.658,572.207 530.696,572.301 533.021,572.385 536.726,572.385 543.259,572.301 546.106,572.05 551.382,571.548 552.053,571.38 555.402,570.459 555.738,567.863 M576.675,639.05 Q577.512,644.494 579.439,652.366 581.784,661.83 583.794,666.688 M483.294,636.538 Q483.294,636.621 483.629,645.164 483.88,651.278 486.225,655.381 486.979,656.698 488.109,657.978 491.54,661.808 498.452,665.264 508,670.121 517.213,670.456 L520.604,670.708 520.73,670.708 Q529.608,671.043 532.287,670.875 536.894,670.54 542.338,668.781 546.358,667.525 557.161,657.81 564.839,650.835 572.99,642.316 573.096,642.214 573.199,642.107 573.263,642.047 573.325,641.981 573.41,641.901 573.493,641.814 574.779,640.449 576.089,639.05 576.174,638.96 576.256,638.883 576.29,638.834 576.34,638.799 576.353,638.75 576.382,638.715 586.243,628.201 587.563,625.231 M520.563,671.294 Q519.809,674.895 518.385,683.103 516.961,690.221 514.7,693.906 M637.394,661.663 L641.833,657.433 M628.181,728.244 Q628.098,728.411 619.639,750.438 613.609,766.099 611.431,775.144 608.751,786.115 606.406,818.778 604.061,850.603 605.15,857.638 M556.91,771.291 Q557.412,773.134 559.088,773.636 559.59,773.804 560.93,773.804 563.108,773.804 563.945,772.799 564.28,772.464 565.62,769.365 M523.41,759.148 Q523.242,774.39 524.331,776.735 526.09,780.923 535.973,780.923 540.746,780.923 541.165,780.839 541.667,780.755 543.51,779.666 M524.666,810.654 Q523.829,813.166 523.829,815.93 523.829,820.536 527.514,820.788 529.943,820.871 537.647,820.704 M521.735,845.41 Q526.006,848.341 528.77,849.011 530.78,849.43 534.297,848.76 M564.531,963.581 Q558.25,966.513 541.416,969.695 524.415,972.878 506.325,974.469 490.664,975.893 453.814,975.139 426.009,974.636 410.012,973.631 397.701,972.878 372.744,970.281 366.546,969.611 361.94,970.616 358.674,971.37 357.669,970.7 M478.269,514.681 Q475.086,512.755 471.317,510.745 463.78,506.809 461.519,507.144 459.09,507.479 461.1,519.455 462.775,529.673 464.45,533.944 M468.637,545.25 Q469.307,548.014 471.066,553.541 472.071,557.98 469.475,559.906 466.277,562.29 463.236,564.513 L463.194,564.554 Q417.498,598.485 411.687,600.525 406.579,602.033 405.323,602.451 403.564,603.121 403.312,604.713 402.894,607.979 402.726,619.201 402.475,632.099 403.312,634.863 406.16,646.253 428.102,678.664 449.626,710.405 462.356,722.8 M470.312,574.144 Q472.909,575.484 478.101,576.154 478.312,576.186 478.52,576.196 483.421,576.897 488.319,576.656 491.417,576.489 498.62,575.316 504.482,574.311 506.325,574.563 M469.894,595.919 Q468.889,597.594 458.085,608.398 448.286,618.196 445.606,620.625 M490.329,615.516 Q494.097,615.516 498.285,614.679 L514.616,614.679 Q509.591,620.039 506.744,622.886 501.468,628.079 500.211,628.079 497.95,628.079 494.6,623.389 491.166,618.029 489.91,616.773 M436.394,616.019 Q437.831,619.491 440.916,623.891 440.95,623.94 441,623.975 448.678,634.986 466.544,651.78 474.843,659.574 480.949,665.515 495.077,679.22 497.531,683.019 M469.475,746.25 Q468.889,759.566 471.569,765.931 473.244,769.784 478.352,774.139 483.629,778.41 488.319,779.75 M483.713,787.288 Q483.796,789.884 483.377,800.604 483.21,810.654 484.55,813.25 486.141,816.349 490.077,818.945 493.93,821.458 496.275,821.206 M489.575,824.556 Q489.659,827.32 489.659,831.591 489.826,834.774 491.25,836.7 491.417,836.951 495.94,840.05 498.955,842.144 498.787,845.913 498.62,848.76 496.861,855.795 495.354,861.658 495.856,863.5 M475.338,875.644 Q455.74,872.043 432.039,868.358 384.72,861.071 364.871,861.071 351.639,861.071 336.564,858.308 324.671,856.13 322.159,856.884 317.804,858.224 313.7,865.091 309.596,872.043 309.931,877.738 310.182,881.59 311.522,891.808 312.611,900.936 311.606,904.538 M474.919,899.931 Q467.214,901.188 431.704,901.941 393.179,902.779 386.981,903.281 380.114,903.868 358.255,907.385 338.406,910.568 330.45,910.819 320.986,911.154 312.611,909.981 308.256,909.395 301.975,907.888 298.709,907.134 295.359,909.395 293.6,910.651 289.412,915.006 284.639,919.948 288.994,930.5 289.831,932.594 288.407,944.57 286.816,956.63 287.737,958.975 L290.669,966.094 Q293.935,975.055 295.275,984.519 M354.319,958.975 Q355.491,962.744 357.669,973.548 360.014,985.105 359.762,987.45" test="Avatar Man"/>
      <path id="Layer2_0_2_STROKES" stroke="#FF0" stroke-width="1.675" stroke-linejoin="round" stroke-linecap="round" fill="none" d="M530.529,575.316 Q529.691,580.006 531.366,583.44 533.125,587.041 536.391,587.041 537.731,587.041 539.574,586.036 541.667,584.864 542.254,583.273 M478.185,579.085 Q477.347,584.948 477.347,585.366 477.347,587.07 478.604,588.884 479.272,589.832 480.279,590.81 483.377,593.741 486.56,593.741 488.235,593.741 489.324,592.066 489.994,591.145 491.166,589.135" test="Avatar Man"/>
      <path id="Layer2_0_3_STROKES" stroke="#FFF" stroke-width="1.675" stroke-linejoin="round" stroke-linecap="round" fill="none" d="M559.841,620.96 Q565.453,623.221 565.704,626.99 565.72,627.228 565.746,627.493 565.741,627.556 565.746,627.618 L565.746,627.744 Q565.777,629.923 565.285,633.941 M552.304,636.035 Q557.823,634.718 561.181,630.675 562.307,629.322 563.191,627.66" test="Avatar Man"/>
      <path id="Layer2_0_4_STROKES" stroke="#F90" stroke-width="1.675" stroke-linejoin="round" stroke-linecap="round" fill="none" d="M495.437,866.013 Q497.196,865.845 512.522,872.126 531.618,878.324 551.55,878.156 570.729,877.989 587.646,873.131 601.884,869.028 603.056,869.363 608.249,870.703 612.353,879.915 617.545,891.389 614.781,906.213 611.348,924.889 602.554,938.624 592.252,954.62 577.094,959.394 L565.201,963.079 Q565.034,963.079 566.206,961.823 567.714,960.148 566.206,958.975 559.004,949.679 552.639,941.723 540.16,926.061 531.869,922.544 519.222,917.184 506.827,910.903 491.836,903.114 488.737,899.513 485.89,896.163 485.304,886.364 485.136,876.23 484.969,874.388 484.718,871.875 487.732,869.865 489.407,868.693 495.437,866.013Z" test="Avatar Man"/>
    </g>
    <g id="Avatar-Lady">
      <path fill="#000" stroke="none" d="M251.593,821.626 Q247.881,821.161 244.763,821.384 236.621,822.466 233.169,822.816 227.527,823.389 221.394,821.63 217.746,820.894 212.479,818.452 202.029,813.558 192.441,804.579 182.972,795.713 176.073,784.974 L174.408,786.164 Q174.628,792.521 172.411,807.548 170.775,818.971 171.195,827.408 171.269,828.979 171.418,830.448 171.726,833.479 173.888,848.061 176.025,869.111 174.277,877.03 173.115,882.337 171.338,888.302 170.343,892.742 170.959,898.804 171.302,902.18 172.486,906.305 L172.495,906.389 Q173.586,910.205 175.379,914.688 179.048,924.013 179.535,928.813 179.792,931.339 179.114,933.875 178.741,935.231 178.216,935.922 L179.784,937.124 Q180.016,939.04 180.104,942.791 180.113,942.979 180.138,943.128 180.265,948.31 180.168,956.821 L180.176,956.905 Q180.144,960.31 180.069,964.232 L183.761,966.239 Q186.017,962.389 191.844,954.53 200.005,943.578 201.911,939.726 L202.246,938.842 Q205.49,934.769 207.971,926.521 210.784,915.687 212.811,908.846 213.252,907.326 213.615,905.872 213.816,905.353 213.933,904.818 214.014,904.705 213.992,904.557 214.064,904.492 214.059,904.38 L214.059,904.38 Q218.071,890.748 220.653,882.189 225.981,864.294 229.152,856.145 230.609,852.346 232.702,848.384 233.535,846.782 234.415,845.147 L234.634,844.785 234.709,844.692 Q236.998,840.889 239.793,836.945 246.263,827.781 251.377,823.689 L251.593,821.626 M216.022,673.221 L214.184,660.988 213.763,661.03 Q204.332,661.988 198.835,663.142 187.765,665.542 179.224,670.237 171.021,674.898 163.654,681.941 160.863,684.578 158.172,687.432 158.174,687.472 158.096,687.525 157.909,687.758 157.634,687.997 153.666,692.463 150.002,697.449 143.716,705.913 141.539,714.641 139.355,723.285 139.386,732.809 L139.281,735.967 Q141.98,736.056 145.261,736.211 150.651,736.514 158.43,740.233 158.832,740.446 164.018,743.324 164.067,743.336 164.102,743.315 165.862,744.346 168.164,745.625 165.862,744.346 164.102,743.315 164.067,743.336 164.018,743.324 158.832,740.446 158.43,740.233 150.651,736.514 145.261,736.211 141.98,736.056 139.281,735.967 L137.724,747.44 Q139.477,747.648 141.346,747.923 155.497,749.888 160.86,749.089 155.497,749.888 141.346,747.923 139.477,747.648 137.724,747.44 137.551,747.411 137.379,747.39 125.644,745.895 119.365,746.752 L115.263,751.592 Q117.587,753.578 122.767,757.635 129.657,762.993 133.92,765.265 134.745,765.656 135.437,765.962 141.319,768.597 147.878,767.846 152.669,767.274 159.626,767.929 165.117,768.392 166.741,767.632 L172.191,768.524 170.964,775.71 175.963,784.73 Q176.051,784.867 176.073,784.974 182.972,795.713 192.441,804.579 202.029,813.558 212.479,818.452 217.746,820.894 221.394,821.63 227.527,823.389 233.169,822.816 236.621,822.466 244.763,821.384 247.881,821.161 251.593,821.626 L251.677,821.617 Q254.58,822.047 257.843,822.863 267.784,825.256 270.707,825.555 276.99,826.278 280.499,824.815 282.124,824.055 286.363,820.562 288.953,818.428 290.297,810.72 291.689,800.966 292.767,795.667 293.979,790.015 299.528,778.478 300.259,776.95 300.93,775.528 305.476,765.857 307.123,761.118 307.304,760.606 307.45,760.149 309.956,752.153 306.699,742.701 304.17,735.387 299.784,730.728 L293.38,722.957 Q292.872,723.362 292.177,723.674 286.95,725.821 286.63,720.154 L281.861,718.427 266.508,723.048 Q266.629,723.468 266.762,723.873 266.516,723.635 266.205,723.419 263.456,720.813 259.326,718.503 250.232,713.557 242.538,715.7 235.097,717.816 222.899,726.711 211.241,735.786 205.344,739.808 204.556,740.42 203.838,740.896 199.859,743.597 185.531,752.453 184.093,753.348 182.805,754.091 179.081,756.504 176.739,758.025 174.276,759.797 173.51,760.564 174.276,759.797 176.739,758.025 179.081,756.504 182.805,754.091 184.093,753.348 185.531,752.453 199.859,743.597 203.838,740.896 204.556,740.42 205.344,739.808 211.241,735.786 222.899,726.711 235.097,717.816 242.538,715.7 250.232,713.557 259.326,718.503 263.456,720.813 266.205,723.419 L266.508,723.048 Q266.443,722.844 266.381,722.636 265.355,719.354 264.467,715.514 262.457,706.616 263.361,702.952 264.081,699.986 270.854,696.321 276.887,692.901 276.278,691.091 274.595,686.243 266.466,679.072 L258.692,672.886 Q246.457,682.821 235.293,692.106 223.617,701.927 213.14,711.029 195.513,726.77 189.079,732.102 181.54,738.361 175.368,742.001 173.319,743.255 171.421,744.188 173.319,743.255 175.368,742.001 181.54,738.361 189.079,732.102 195.513,726.77 213.14,711.029 223.617,701.927 235.293,692.106 L229.092,684.654 Q228.232,683.72 223.088,679.139 217.48,674.179 216.022,673.221 M252.551,732.207 Q251.244,731.064 247.226,730.876 244.182,730.734 235.538,736.401 232.766,738.258 229.422,740.68 215.635,750.672 213.277,750.912 215.635,750.672 229.422,740.68 232.766,738.258 235.538,736.401 244.182,730.734 247.226,730.876 251.244,731.064 252.551,732.207 253.858,733.35 258.055,735.306 253.858,733.35 252.551,732.207 M248.556,746.479 Q250.43,743.992 250.276,742.476 250.233,742.055 247.914,740.164 250.233,742.055 250.276,742.476 250.43,743.992 248.556,746.479 246.539,749.236 244.434,749.449 238.287,750.073 237.842,745.695 237.774,745.021 237.833,744.76 238.034,744.229 239.159,741.903 238.034,744.229 237.833,744.76 237.774,745.021 237.842,745.695 238.287,750.073 244.434,749.449 246.539,749.236 248.556,746.479 M235.265,800.741 Q234.953,801.589 234.418,802.443 232.964,804.887 232.022,805.664 232.964,804.887 234.418,802.443 234.953,801.589 235.265,800.741 236.402,798.534 236.219,796.731 L235.677,794.744 236.219,796.731 Q236.402,798.534 235.265,800.741 M273.945,767.805 Q276.077,767.588 278.801,766.206 281.753,764.815 285.364,762.137 290.514,758.235 291.62,755.887 292.05,755.101 291.988,754.488 291.92,753.815 290.005,751.712 288.174,749.601 287.475,749.417 288.174,749.601 290.005,751.712 291.92,753.815 291.988,754.488 292.05,755.101 291.62,755.887 290.514,758.235 285.364,762.137 281.753,764.815 278.801,766.206 276.077,767.588 273.945,767.805 270.661,768.138 268.232,766.003 264.395,762.564 264.126,762.422 264.395,762.564 268.232,766.003 270.661,768.138 273.945,767.805 M293.553,769.897 Q293.484,769.223 292.363,768.231 293.484,769.223 293.553,769.897 293.664,770.992 293.337,771.96 293.01,772.929 292.245,773.773 290.631,775.468 288.189,775.716 287.263,775.81 285.249,775.249 283.32,774.679 282.055,773.957 283.32,774.679 285.249,775.249 287.263,775.81 288.189,775.716 290.631,775.468 292.245,773.773 293.01,772.929 293.337,771.96 293.664,770.992 293.553,769.897 M256.222,803.547 Q259.901,802.918 263.664,802.28 259.901,802.918 256.222,803.547 246.188,806.097 237.069,801.748 246.188,806.097 256.222,803.547 M191.057,703.828 Q186.731,699.759 180.345,698.026 174.043,696.284 168.731,697.589 174.043,696.284 180.345,698.026 186.731,699.759 191.057,703.828Z" test="Avatar Lady" stroke-width="1.693"/>
      <path id="Layer1_0_1_STROKES" stroke="#009EFF" stroke-width="1.693" stroke-linejoin="round" stroke-linecap="round" fill="none" d="M281.861,718.427 Q280.449,714.572 283.41,712.74 286.279,710.833 289.048,709.616 M256.656,668.754 Q256.832,667.971 256.789,667.55 256.703,666.708 253.378,661.601 249.453,655.62 248.828,654.492 246.531,650.302 241.957,649.661 237.283,649.71 235.606,649.114 236.071,650.343 236.49,654.469 L236.938,660.549 Q236.694,660.658 234.773,660.173 232.684,659.705 231.757,659.799 228.474,660.132 226.688,660.143 222.427,660.065 217.712,660.544 L214.184,660.988 M216.022,673.221 Q217.48,674.179 223.088,679.139 228.232,683.72 229.092,684.654 M235.606,649.114 Q235.594,649.031 235.514,649.039 L235.488,648.786 Q235.587,648.945 235.606,649.114Z M213.763,661.03 Q213.746,660.862 213.83,660.853 214.008,661 214.184,660.988 L213.763,661.03 Q204.332,661.988 198.835,663.142 187.765,665.542 179.224,670.237 171.021,674.898 163.654,681.941 160.863,684.578 158.214,687.428 158.174,687.472 158.139,687.52 157.909,687.758 157.676,687.993 153.666,692.463 150.002,697.449 143.716,705.913 141.539,714.641 139.355,723.285 139.386,732.809 M139.286,736.01 Q141.98,736.056 145.261,736.211 150.651,736.514 158.43,740.233 158.832,740.446 164.018,743.324 164.067,743.336 164.106,743.357 165.862,744.346 168.164,745.625 M258.055,735.306 Q253.858,733.35 252.551,732.207 251.244,731.064 247.226,730.876 244.182,730.734 235.542,736.444 232.766,738.258 229.422,740.68 215.635,750.672 213.277,750.912 M264.126,762.422 Q264.395,762.564 268.232,766.003 270.661,768.138 273.945,767.805 276.077,767.588 278.848,766.243 281.753,764.815 285.364,762.137 290.514,758.235 291.662,755.883 292.05,755.101 291.988,754.488 291.92,753.815 290.005,751.712 288.174,749.601 287.475,749.417 M299.784,730.728 Q304.17,735.387 306.699,742.701 309.956,752.153 307.45,760.149 307.304,760.606 307.123,761.118 305.476,765.857 300.93,775.528 300.259,776.95 299.528,778.478 293.979,790.015 292.767,795.667 291.689,800.966 290.297,810.72 288.953,818.428 286.363,820.562 282.124,824.055 280.499,824.815 276.99,826.278 270.707,825.555 267.784,825.256 257.843,822.863 254.58,822.047 251.681,821.659 L251.597,821.668 M251.377,823.689 Q246.263,827.781 239.793,836.945 236.998,840.889 234.752,844.688 L234.676,844.781 234.458,845.143 Q233.535,846.782 232.702,848.384 230.609,852.346 229.152,856.145 225.981,864.294 220.653,882.189 218.071,890.748 214.101,904.376 L214.063,904.422 Q214.064,904.492 214.034,904.553 214.014,904.705 213.98,904.856 213.816,905.353 213.657,905.867 213.252,907.326 212.811,908.846 210.784,915.687 207.971,926.521 205.49,934.769 202.246,938.842 M201.911,939.726 Q200.005,943.578 191.844,954.53 186.017,962.389 183.765,966.281 183.055,967.543 182.703,968.388 M282.055,773.957 Q283.32,774.679 285.249,775.249 287.263,775.81 288.189,775.716 290.631,775.468 292.245,773.773 293.01,772.929 293.337,771.96 293.664,770.992 293.553,769.897 293.484,769.223 292.363,768.231 M251.597,821.668 Q247.881,821.161 244.763,821.384 236.621,822.466 233.169,822.816 227.527,823.389 221.394,821.63 217.746,820.894 212.479,818.452 202.029,813.558 192.441,804.579 182.972,795.713 176.12,785.012 M174.408,786.164 Q174.628,792.521 172.411,807.548 170.775,818.971 171.195,827.408 171.269,828.979 171.418,830.448 171.726,833.479 173.888,848.061 176.025,869.111 174.277,877.03 173.115,882.337 171.338,888.302 170.343,892.742 170.959,898.804 171.302,902.18 172.49,906.347 L172.495,906.389 Q173.586,910.205 175.379,914.688 179.048,924.013 179.535,928.813 179.792,931.339 179.114,933.875 178.741,935.231 178.22,935.965 M179.784,937.124 Q180.016,939.04 180.108,942.833 180.113,942.979 180.138,943.128 180.265,948.31 180.172,956.863 L180.176,956.905 Q180.144,960.31 180.069,964.232 M230.124,858.173 L230.106,863.024 Q230.191,863.866 231.123,867.174 232.054,870.482 232.14,871.324 232.225,872.166 233.53,877.478 234.751,882.799 234.836,883.641 235.555,890.713 228.292,921.395 220.945,952.085 221.586,958.4 222.21,964.547 232.951,978.173 241.347,988.804 251.653,998.987 259.117,1006.31 278.271,1041.625 278.382,1042.72 279.081,1042.904 279.688,1043.013 279.712,1042.415 M194.641,998.821 Q196.865,999.786 208.897,1009.368 221.781,1019.799 222.029,1022.241 222.337,1025.272 244.606,1038.494 266.875,1051.715 267.217,1055.083 267.32,1056.093 267.648,1055.975 267.976,1055.856 267.993,1056.025 L268.607,1055.367 M191.057,703.828 Q186.731,699.759 180.345,698.026 174.043,696.284 168.731,697.589 M139.286,736.01 Q139.203,736.028 139.117,736.027 139.03,736.025 138.949,736.044 134.854,735.958 132.157,736.18 124.899,736.747 119.875,739.214 113.64,742.314 112.933,742.896 111.756,743.867 112.079,746.216 112.504,748.725 113.947,750.365 114.343,750.763 115.073,751.399 115.165,751.471 115.258,751.55 L115.305,751.588 M119.365,746.752 Q125.644,745.895 137.379,747.39 137.551,747.411 137.724,747.44 M115.305,751.588 Q117.587,753.578 122.767,757.635 129.657,762.993 133.962,765.261 134.745,765.656 135.437,765.962 141.319,768.597 147.878,767.846 152.669,767.274 159.626,767.929 165.117,768.392 166.741,767.632 M170.964,775.71 L175.963,784.73 Q176.051,784.867 176.12,785.012 M130.788,771.283 Q128.326,774.68 127.688,792.694 127.414,800.889 127.358,802.851 127.372,806.337 127.765,810.21 128.244,814.926 131.249,825.254 134.17,835.591 134.769,841.485 134.831,842.098 134.897,842.748 135.114,845.557 135.109,849.021 135.112,854.7 134.527,862.139 134.117,867.354 133.42,873.437 130.985,894.697 132.729,911.873 133.011,914.652 135.189,923.533 137.316,931.909 137.31,933.526 M137.724,747.44 Q139.477,747.648 141.346,747.923 155.497,749.888 160.86,749.089 M152.877,787.755 L153.259,789.842 Q153.456,791.779 152.723,797.128 151.998,802.561 152.275,806.956 152.518,811.865 153.356,820.117 153.45,821.043 154.086,823.956 154.73,826.953 154.842,828.048 154.848,828.108 154.854,828.174 155.069,830.439 154.919,834.675 154.834,839.703 154.205,841.043 153.541,842.046 152.357,844.633 151.514,846.377 151.12,847.523 150.726,848.669 150.781,849.216 M156.881,884.156 Q156.95,884.829 156.64,891.836 156.247,898.852 156.349,899.862 156.537,901.715 158.575,906.697 159.56,909.212 160.084,910.669 160.571,912.112 160.613,912.53 160.904,915.392 159.001,920.945 157.29,925.883 155.786,927.822 M134.897,842.748 Q130.158,843.825 125.156,849.862 120.516,855.403 119.674,861.222 119.433,862.919 119.511,864.642 119.722,870.065 121.307,926.729 123.017,982.105 123.531,988.008 123.933,991.965 124.036,998.845 124.061,999.855 124.103,1000.752 L124.111,1000.837 Q124.317,1003.716 124.872,1005.396 125.362,1006.877 165.353,1054.708 205.039,1102.059 205.465,1105.419 M117.619,861.091 Q109.955,866.037 102.223,870.31 91.183,876.365 84.827,877.436 71.549,879.04 56.022,880.276 25.043,882.656 13.882,880.812 M178.22,935.965 Q177.737,936.652 177.105,936.716 M180.069,964.232 L180.074,964.274 Q180.059,966.224 180.017,968.321 179.79,979.522 179.316,994.508 179.245,998.003 189.939,1013.675 203.114,1032.839 206.096,1038.746 226.453,1079.213 228.781,1097.947 M28.892,981.71 Q35.57,982.138 52.419,986.381 70.76,991.069 80.914,995.568 94.718,1001.652 98.298,1002.564 105.729,1004.532 114.972,1002.573 118.719,1001.767 121.858,1000.853" test="Avatar Lady"/>
      <path id="Layer1_0_2_STROKES" stroke="#FFBC00" stroke-width="1.693" stroke-linejoin="round" stroke-linecap="round" fill="none" d="M235.335,692.101 Q246.457,682.821 258.692,672.886 L266.466,679.072 Q274.595,686.243 276.278,691.091 276.887,692.901 270.854,696.321 264.081,699.986 263.361,702.952 262.457,706.616 264.467,715.514 265.355,719.354 266.381,722.636 266.443,722.844 266.508,723.048 M171.421,744.188 Q173.319,743.255 175.372,742.043 181.54,738.361 189.079,732.102 195.513,726.77 213.14,711.029 223.617,701.927 235.335,692.101 M266.247,723.415 Q266.516,723.635 266.762,723.873 266.629,723.468 266.508,723.048 M266.247,723.415 Q263.456,720.813 259.326,718.503 250.232,713.557 242.538,715.7 235.097,717.816 222.899,726.711 211.241,735.786 205.39,739.845 204.556,740.42 203.838,740.896 199.859,743.597 185.531,752.453 184.093,753.348 182.809,754.133 179.081,756.504 176.786,758.062 174.276,759.797 173.51,760.564" test="Avatar Lady"/>
      <path id="Layer1_0_3_STROKES" stroke="#FF0" stroke-width="1.693" stroke-linejoin="round" stroke-linecap="round" fill="none" d="M286.63,720.154 Q286.95,725.821 292.177,723.674 292.872,723.362 293.422,722.953 295.343,721.464 295.327,718.676 295.289,715.787 292.433,715.312 M239.159,741.903 Q238.034,744.229 237.833,744.76 237.774,745.021 237.842,745.695 238.287,750.073 244.434,749.449 246.539,749.236 248.556,746.479 250.43,743.992 250.276,742.476 250.233,742.055 247.914,740.164" test="Avatar Lady"/>
      <path id="Layer1_0_4_STROKES" stroke="#FFF" stroke-width="1.693" stroke-linejoin="round" stroke-linecap="round" fill="none" d="M235.677,794.744 L236.219,796.731 Q236.402,798.534 235.312,800.778 234.953,801.589 234.418,802.443 232.964,804.887 232.022,805.664 M237.069,801.748 Q246.188,806.097 256.222,803.547 259.901,802.918 263.664,802.28" test="Avatar Lady"/>
    </g>
  </g>
</svg>