<?xml version="1.0" encoding="utf-8"?>
<svg id="EdithAnim13" image-rendering="inherit" baseProfile="basic" version="1.1" x="0px" y="0px" width="800" height="600" xmlns="http://www.w3.org/2000/svg" xmlns:xlink="http://www.w3.org/1999/xlink">
  <g id="22_Avatarf86r1" overflow="visible">
    <g id="Avatar-Manf0r1">
      <g id="Tailf0r1">
        <path id="Layer3_0_1_STROKES" stroke="#009EFF" stroke-width="2.303" stroke-linejoin="round" stroke-linecap="round" fill="none" d="M650.79,602.242 Q649.628,585.32 648.987,568.389 648.413,551.971 643.079,536.465 637.217,519.576 620.884,511.893 601.035,502.636 598.161,523.336 597.741,526.352 599.713,528 604.375,535.359 611.004,539.43 617.933,536.9 623.144,541.679 629.418,547.481 632.179,556.18 638.632,576.708 643.772,597.408 645.224,603.2 644.249,609.076" test="Tail_2.3242325232423263e+312.3242325232423263e+31_2.3242325232423263e+312.3242325232423263e+31_2.3242325232423263e+312.3242325232423263e+31_2.3242325232423263e+312.3242325232423263e+31_2.3242325232423263e+312.3242325232423263e+31_2.3242325232423263e+312.3242325232423263e+31_2.3242325232423263e+312.3242325232423263e+31_2.3242325232423263e+312.3242325232423263e+31_2.3242325232423263e+312.3242325232423263e+31_2.3242325232423263e+312.3242325232423263e+31_2.3242325232423263e+312.3242325232423263e+31_2.3242325232423263e+312.3242325232423263e+31_22"/>
      </g>
      <path fill="#000" stroke="none" d="M612.353,516.165 Q608.249,506.953 603.056,505.612 601.884,505.278 587.646,509.381 570.729,514.239 551.55,514.406 531.618,514.574 512.522,508.376 497.196,502.095 495.437,502.263 489.407,504.943 487.732,506.115 484.718,508.125 484.969,510.638 485.136,512.48 485.304,522.614 485.89,532.413 488.737,535.763 491.836,539.364 506.827,547.152 519.222,553.434 531.869,558.794 540.16,562.311 552.639,577.973 559.004,585.929 566.206,595.225 567.714,596.398 566.206,598.073 565.034,599.329 565.201,599.329 L577.094,595.644 Q592.252,590.87 602.554,574.874 611.348,561.139 614.781,542.463 617.545,527.639 612.353,516.165 M617.713,167.681 L614.698,166.425 Q614.654,166.531 614.614,166.592 613.706,168.911 613.106,171.031 611.515,176.726 609.002,185.436 608.946,185.589 608.835,185.687 606.54,191.784 601.8,194.481 591.834,200.176 586.306,202.856 L590.075,211.231 Q589.656,217.345 591.583,258.299 591.653,259.81 591.666,261.23 593.229,293.231 593.425,302.938 593.423,303.001 593.425,303.021 593.453,305.266 593.425,306.287 593.09,319.436 595.519,340.206 595.854,343.138 600.46,340.709 605.066,338.196 604.731,336.438 604.564,335.181 606.49,335.851 608.081,336.438 608.5,336.856 608.584,336.94 614.781,315.5 L619.806,323.875 Q619.89,323.959 622.738,305.45 L627.762,307.544 Q627.86,307.643 627.176,298.75 627.213,298.73 627.176,298.666 626.222,284.995 623.491,250.259 621.835,229.033 620.56,215.084 618.982,196.438 618.131,190.796 617.893,189.151 617.713,188.619 617.893,189.151 618.131,190.796 618.982,196.438 620.56,215.084 L621.9,215 Q623.575,214.832 628.516,209.891 632.871,205.704 636.137,207.044 639.069,208.3 656.656,233.76 676.924,259.555 693.506,263.575 678.599,264.078 656.489,281.079 649.621,286.355 642.838,292.72 L641.833,293.641 Q643.025,306.371 646.941,349.921 L647.863,349.838 Q652.218,347.409 682.703,323.456 712.099,300.258 721.563,292.05 728.598,285.936 734.376,276.305 737.308,271.364 740.825,265.25 742.5,263.324 746.101,260.644 749.033,257.964 749.2,253.525 749.368,249.17 717.543,228.651 682.284,206.709 675.5,201.6 655.567,186.609 646.271,180.579 635.196,173.318 627.679,170.11 621.433,167.452 617.713,167.681 M558.166,162.573 Q560.679,162.154 563.024,161.735 566.793,161.735 566.541,166.341 573.744,165.504 576.591,166.341 579.606,167.263 579.522,170.529 L584.213,172.706 Q587.506,166.304 595.519,160.981 600.125,157.883 604.061,156.878 604.123,156.864 604.145,156.794 L603.056,150.094 Q604.313,150.01 601.884,147.079 597.445,141.97 593.844,137.531 588.986,131.501 572.069,126.058 557.245,121.284 549.037,121.2 522.74,120.949 504.65,128.319 493.427,132.925 483.377,146.828 481.451,149.462 479.86,151.853 475.369,158.971 473.997,164.331 L473.997,166.341 Q474.165,166.341 474.919,166.592 475.756,166.76 476.343,166.76 479.357,166.76 482.372,164.331 485.806,161.484 489.072,160.897 L489.072,162.991 492.841,162.991 Q495.354,162.489 500.127,161.065 503.812,159.892 504.566,160.06 L504.566,162.154 Q505.404,162.154 508.754,162.573 514.281,162.573 519.641,159.641 L523.829,159.641 523.829,161.316 530.529,161.316 Q541.584,157.966 542.254,157.966 543.343,157.966 544.348,158.72 545.52,159.558 547.698,159.641 547.698,161.735 547.279,162.573 L558.166,162.573Z" test="Avatar Man" stroke-width="1.675"/>
      <path id="Layer2_0_1_STROKES" stroke="#009EFF" stroke-width="1.675" stroke-linejoin="round" stroke-linecap="round" fill="none" d="M579.522,170.529 Q579.606,167.263 576.591,166.341 573.744,165.504 566.541,166.341 566.793,161.735 563.024,161.735 560.679,162.154 558.166,162.573 L547.279,162.573 Q547.698,161.735 547.698,159.641 545.52,159.558 544.348,158.72 543.343,157.966 542.254,157.966 541.584,157.966 530.529,161.316 L523.829,161.316 523.829,159.641 519.641,159.641 Q514.281,162.573 508.754,162.573 505.404,162.154 504.566,162.154 L504.566,160.06 Q503.812,159.892 500.127,161.065 495.354,162.489 492.841,162.991 L489.072,162.991 489.072,160.897 Q485.806,161.484 482.372,164.331 479.357,166.76 476.343,166.76 475.756,166.76 474.919,166.592 474.165,166.341 473.997,166.341 L473.997,164.331 Q475.369,158.971 479.902,151.894 481.451,149.462 483.377,146.828 493.427,132.925 504.65,128.319 522.74,120.949 549.037,121.2 557.245,121.284 572.069,126.058 588.986,131.501 593.844,137.531 597.445,141.97 601.884,147.079 604.313,150.01 603.056,150.094 M604.187,156.836 Q604.249,156.842 604.313,156.836 606.845,156.276 612.269,155.956 616.205,155.789 618.634,154.197 619.974,153.36 621.9,151.769 622.654,151.35 619.555,156.71 618.131,159.139 616.959,161.484 616.242,162.892 615.661,164.247 615.522,164.527 615.409,164.792 615.165,165.314 614.949,165.839 614.818,166.134 614.698,166.425 M617.713,167.681 Q621.433,167.452 627.721,170.152 635.196,173.318 646.271,180.579 655.567,186.609 675.5,201.6 682.284,206.709 717.543,228.651 749.368,249.17 749.2,253.525 749.033,257.964 746.101,260.644 742.5,263.324 740.825,265.25 737.308,271.364 734.376,276.305 728.598,285.936 721.563,292.05 712.099,300.258 682.703,323.456 652.218,347.409 647.863,349.838 647.429,350.121 647.025,350.382 642.151,353.544 639.99,354.779 636.137,357.04 632.787,356.537 M616.959,161.484 Q615.654,162.914 614.572,163.745 613.478,164.542 612.604,164.75 609.421,165.001 605.569,165.587 600.627,166.341 597.948,168.184 594.346,171.283 590.912,173.962 586.641,177.312 583.961,178.904 L582.119,179.825 Q582.522,176.13 584.254,172.748 M578.685,170.529 L579.522,170.529 M584.254,172.748 Q587.506,166.304 595.519,160.981 600.125,157.883 604.061,156.878 604.123,156.864 604.187,156.836 M614.698,166.425 Q614.654,166.531 614.614,166.634 613.706,168.911 613.106,171.031 611.515,176.726 609.002,185.436 608.946,185.589 608.877,185.729 606.54,191.784 601.8,194.481 591.834,200.176 586.306,202.856 M590.075,211.231 Q589.656,217.345 591.583,258.299 591.653,259.81 591.708,261.272 593.229,293.231 593.425,302.938 593.423,303.001 593.425,303.063 593.453,305.266 593.425,306.287 593.09,319.436 595.519,340.206 595.854,343.138 600.46,340.709 605.066,338.196 604.731,336.438 604.564,335.181 606.49,335.851 608.081,336.438 608.5,336.856 608.584,336.94 614.781,315.5 L619.806,323.875 Q619.89,323.959 622.738,305.45 L627.762,307.544 Q627.86,307.643 627.218,298.792 627.213,298.73 627.218,298.666 626.222,284.995 623.491,250.259 621.835,229.033 620.602,215.084 618.982,196.438 618.131,190.796 617.893,189.151 617.713,188.619 M641.833,293.683 L642.838,292.72 Q649.621,286.355 656.489,281.079 678.599,264.078 693.506,263.575 676.924,259.555 656.656,233.76 639.069,208.3 636.137,207.044 632.871,205.704 628.516,209.891 623.575,214.832 621.9,215 M527.681,208.3 Q528.658,208.457 530.696,208.551 533.021,208.635 536.726,208.635 543.259,208.551 546.106,208.3 551.382,207.797 552.053,207.63 555.402,206.709 555.738,204.112 M576.675,275.3 Q577.512,280.744 579.439,288.616 581.784,298.08 583.794,302.938 M483.294,272.787 Q483.294,272.871 483.629,281.414 483.88,287.528 486.225,291.631 486.979,292.948 488.109,294.227 491.54,298.058 498.452,301.514 508,306.371 517.213,306.706 L520.604,306.958 520.73,306.958 Q529.608,307.293 532.287,307.125 536.894,306.79 542.338,305.031 546.358,303.775 557.161,294.06 564.839,287.085 572.99,278.566 573.096,278.464 573.199,278.357 573.263,278.297 573.325,278.231 573.41,278.151 573.493,278.064 574.779,276.699 576.089,275.3 576.174,275.21 576.256,275.133 576.29,275.084 576.34,275.049 576.353,275 576.382,274.965 586.243,264.451 587.563,261.481 M520.563,307.544 Q519.809,311.145 518.385,319.352 516.961,326.471 514.7,330.156 M637.394,297.912 L641.833,293.683 M628.181,364.494 Q628.098,364.661 619.639,386.688 613.609,402.349 611.431,411.394 608.751,422.365 606.406,455.028 604.061,486.852 605.15,493.888 M556.91,407.541 Q557.412,409.384 559.088,409.886 559.59,410.054 560.93,410.054 563.108,410.054 563.945,409.049 564.28,408.714 565.62,405.615 M523.41,395.398 Q523.242,410.64 524.331,412.985 526.09,417.173 535.973,417.173 540.746,417.173 541.165,417.089 541.667,417.005 543.51,415.916 M524.666,446.904 Q523.829,449.416 523.829,452.18 523.829,456.786 527.514,457.038 529.943,457.121 537.647,456.954 M521.735,481.66 Q526.006,484.591 528.77,485.261 530.78,485.68 534.297,485.01 M564.531,599.831 Q558.25,602.763 541.416,605.945 524.415,609.128 506.325,610.719 490.664,612.142 453.814,611.389 426.009,610.886 410.012,609.881 397.701,609.128 372.744,606.531 366.546,605.861 361.94,606.866 358.674,607.62 357.669,606.95 M478.269,150.931 Q475.086,149.005 471.317,146.995 463.78,143.059 461.519,143.394 459.09,143.729 461.1,155.705 462.775,165.922 464.45,170.194 M468.637,181.5 Q469.307,184.264 471.066,189.791 472.071,194.23 469.475,196.156 466.277,198.54 463.236,200.763 L463.194,200.804 Q417.498,234.735 411.687,236.775 406.579,238.283 405.323,238.701 403.564,239.371 403.312,240.962 402.894,244.229 402.726,255.451 402.475,268.349 403.312,271.112 406.16,282.503 428.102,314.914 449.626,346.655 462.356,359.05 M470.312,210.394 Q472.909,211.734 478.101,212.404 478.312,212.436 478.52,212.446 483.421,213.147 488.319,212.906 491.417,212.739 498.62,211.566 504.482,210.561 506.325,210.812 M469.894,232.169 Q468.889,233.844 458.085,244.647 448.286,254.446 445.606,256.875 M490.329,251.766 Q494.097,251.766 498.285,250.929 L514.616,250.929 Q509.591,256.289 506.744,259.136 501.468,264.329 500.211,264.329 497.95,264.329 494.6,259.639 491.166,254.279 489.91,253.022 M436.394,252.269 Q437.831,255.741 440.916,260.141 440.95,260.19 441,260.225 448.678,271.236 466.544,288.03 474.843,295.824 480.949,301.765 495.077,315.47 497.531,319.269 M469.475,382.5 Q468.889,395.816 471.569,402.181 473.244,406.034 478.352,410.389 483.629,414.66 488.319,416 M483.713,423.537 Q483.796,426.134 483.377,436.854 483.21,446.904 484.55,449.5 486.141,452.599 490.077,455.195 493.93,457.708 496.275,457.456 M489.575,460.806 Q489.659,463.57 489.659,467.841 489.826,471.024 491.25,472.95 491.417,473.201 495.94,476.3 498.955,478.394 498.787,482.163 498.62,485.01 496.861,492.045 495.354,497.908 495.856,499.75 M475.338,511.894 Q455.74,508.293 432.039,504.607 384.72,497.321 364.871,497.321 351.639,497.321 336.564,494.558 324.671,492.38 322.159,493.134 317.804,494.474 313.7,501.341 309.596,508.293 309.931,513.987 310.182,517.84 311.522,528.058 312.611,537.186 311.606,540.788 M474.919,536.181 Q467.214,537.438 431.704,538.191 393.179,539.029 386.981,539.531 380.114,540.118 358.255,543.635 338.406,546.818 330.45,547.069 320.986,547.404 312.611,546.231 308.256,545.645 301.975,544.138 298.709,543.384 295.359,545.645 293.6,546.901 289.412,551.256 284.639,556.198 288.994,566.75 289.831,568.844 288.407,580.82 286.816,592.88 287.737,595.225 L290.669,602.344 Q293.935,611.305 295.275,620.769 M354.319,595.225 Q355.491,598.994 357.669,609.798 360.014,621.355 359.762,623.7" test="Avatar Man"/>
      <path id="Layer2_0_2_STROKES" stroke="#FF0" stroke-width="1.675" stroke-linejoin="round" stroke-linecap="round" fill="none" d="M530.529,211.566 Q529.691,216.256 531.366,219.69 533.125,223.291 536.391,223.291 537.731,223.291 539.574,222.286 541.667,221.114 542.254,219.522 M478.185,215.335 Q477.347,221.198 477.347,221.616 477.347,223.32 478.604,225.134 479.272,226.082 480.279,227.06 483.377,229.991 486.56,229.991 488.235,229.991 489.324,228.316 489.994,227.395 491.166,225.385" test="Avatar Man"/>
      <path id="Layer2_0_3_STROKES" stroke="#FFF" stroke-width="1.675" stroke-linejoin="round" stroke-linecap="round" fill="none" d="M559.841,257.21 Q565.453,259.471 565.704,263.24 565.72,263.478 565.746,263.742 565.741,263.806 565.746,263.868 L565.746,263.994 Q565.777,266.173 565.285,270.191 M552.304,272.285 Q557.823,270.968 561.181,266.925 562.307,265.572 563.191,263.91" test="Avatar Man"/>
      <path id="Layer2_0_4_STROKES" stroke="#F90" stroke-width="1.675" stroke-linejoin="round" stroke-linecap="round" fill="none" d="M495.437,502.263 Q497.196,502.095 512.522,508.376 531.618,514.574 551.55,514.406 570.729,514.239 587.646,509.381 601.884,505.278 603.056,505.612 608.249,506.953 612.353,516.165 617.545,527.639 614.781,542.463 611.348,561.139 602.554,574.874 592.252,590.87 577.094,595.644 L565.201,599.329 Q565.034,599.329 566.206,598.073 567.714,596.398 566.206,595.225 559.004,585.929 552.639,577.973 540.16,562.311 531.869,558.794 519.222,553.434 506.827,547.152 491.836,539.364 488.737,535.763 485.89,532.413 485.304,522.614 485.136,512.48 484.969,510.638 484.718,508.125 487.732,506.115 489.407,504.943 495.437,502.263Z" test="Avatar Man"/>
    </g>
    <g id="Avatar-Lady">
      <path fill="#000" stroke="none" d="M251.547,406.326 Q247.832,405.872 244.714,406.104 236.573,407.21 233.121,407.571 227.479,408.16 221.339,406.419 217.688,405.694 212.412,403.266 201.945,398.402 192.327,389.448 182.83,380.607 175.897,369.885 L174.234,371.08 Q174.473,377.439 172.3,392.477 170.697,403.908 171.142,412.346 171.221,413.918 171.374,415.386 171.691,418.417 173.896,432.998 176.096,454.048 174.371,461.974 173.224,467.286 171.464,473.258 170.482,477.702 171.115,483.764 171.468,487.141 172.665,491.263 L172.674,491.347 Q173.777,495.161 175.584,499.64 179.281,508.957 179.783,513.757 180.047,516.283 179.376,518.821 179.007,520.179 178.484,520.872 L180.056,522.07 Q180.293,523.986 180.393,527.738 180.402,527.926 180.428,528.075 180.57,533.257 180.498,541.772 L180.506,541.856 Q180.484,545.261 180.421,549.185 L184.12,551.182 Q186.366,547.324 192.171,539.445 200.302,528.466 202.197,524.608 L202.53,523.722 Q205.763,519.639 208.22,511.381 211.002,500.535 213.01,493.686 213.447,492.164 213.805,490.709 214.005,490.189 214.121,489.654 214.201,489.54 214.178,489.393 214.25,489.327 214.245,489.216 L214.245,489.216 Q218.219,475.568 220.775,466.998 226.053,449.082 229.201,440.922 230.647,437.117 232.729,433.148 233.558,431.543 234.433,429.905 L234.651,429.542 234.726,429.449 Q237.004,425.638 239.788,421.685 246.233,412.499 251.337,408.391 L251.547,406.326 M215.529,257.981 L213.655,245.75 213.234,245.794 Q203.803,246.779 198.308,247.95 187.241,250.383 178.712,255.105 170.519,259.791 163.172,266.858 160.387,269.504 157.704,272.367 157.706,272.407 157.628,272.46 157.442,272.694 157.167,272.933 153.211,277.412 149.561,282.411 143.297,290.896 141.146,299.633 138.986,308.286 139.046,317.813 L138.95,320.972 Q141.65,321.053 144.932,321.198 150.325,321.486 158.117,325.183 158.52,325.394 163.715,328.258 163.764,328.27 163.8,328.249 165.563,329.275 167.87,330.547 165.563,329.275 163.8,328.249 163.764,328.27 163.715,328.258 158.52,325.394 158.117,325.183 150.325,321.486 144.932,321.198 141.65,321.053 138.95,320.972 L137.426,332.452 Q139.18,332.655 141.051,332.925 155.211,334.85 160.574,334.034 155.211,334.85 141.051,332.925 139.18,332.655 137.426,332.452 137.253,332.425 137.081,332.403 125.338,330.943 119.059,331.818 L114.97,336.672 Q117.301,338.652 122.494,342.695 129.402,348.034 133.673,350.294 134.5,350.683 135.192,350.987 141.084,353.605 147.643,352.835 152.433,352.249 159.394,352.883 164.889,353.331 166.511,352.565 L171.965,353.442 170.759,360.633 175.786,369.641 Q175.874,369.778 175.897,369.885 182.83,380.607 192.327,389.448 201.945,398.402 212.412,403.266 217.688,405.694 221.339,406.419 227.479,408.16 233.121,407.571 236.573,407.21 244.714,406.104 247.832,405.872 251.547,406.326 L251.631,406.317 Q254.537,406.739 257.803,407.545 267.753,409.91 270.678,410.2 276.965,410.905 280.471,409.432 282.094,408.666 286.324,405.16 288.909,403.017 290.231,395.303 291.594,385.542 292.657,380.239 293.853,374.581 299.37,363.024 300.097,361.494 300.763,360.069 305.282,350.382 306.916,345.637 307.095,345.125 307.24,344.667 309.723,336.661 306.437,327.216 303.886,319.907 299.485,315.26 L293.056,307.505 Q292.549,307.912 291.855,308.226 286.633,310.389 286.296,304.721 L281.521,303.007 266.176,307.675 Q266.299,308.095 266.433,308.5 266.187,308.262 265.875,308.047 263.118,305.448 258.979,303.15 249.868,298.229 242.178,300.395 234.741,302.534 222.566,311.467 210.931,320.579 205.044,324.619 204.257,325.234 203.541,325.713 199.568,328.426 185.262,337.327 183.826,338.226 182.54,338.973 178.822,341.398 176.484,342.926 174.025,344.706 173.261,345.476 174.025,344.706 176.484,342.926 178.822,341.398 182.54,338.973 183.826,338.226 185.262,337.327 199.568,328.426 203.541,325.713 204.257,325.234 205.044,324.619 210.931,320.579 222.566,311.467 234.741,302.534 242.178,300.395 249.868,298.229 258.979,303.15 263.118,305.448 265.875,308.047 L266.176,307.675 Q266.111,307.471 266.048,307.263 265.013,303.984 264.113,300.145 262.076,291.25 262.97,287.582 263.681,284.613 270.446,280.927 276.47,277.489 275.856,275.68 274.158,270.836 266.005,263.686 L258.211,257.521 Q246.002,267.495 234.862,276.815 223.211,286.674 212.758,295.809 195.172,311.606 188.751,316.959 181.228,323.242 175.065,326.901 173.019,328.162 171.124,329.101 173.019,328.162 175.065,326.901 181.228,323.242 188.751,316.959 195.172,311.606 212.758,295.809 223.211,286.674 234.862,276.815 L228.637,269.379 Q227.773,268.448 222.614,263.88 216.99,258.935 215.529,257.981 M252.242,316.878 Q250.931,315.738 246.912,315.562 243.867,315.429 235.236,321.123 232.469,322.989 229.131,325.422 215.369,335.457 213.012,335.703 215.369,335.457 229.131,325.422 232.469,322.989 235.236,321.123 243.867,315.429 246.912,315.562 250.931,315.738 252.242,316.878 253.553,318.017 257.757,319.961 253.553,318.017 252.242,316.878 M248.288,331.165 Q250.155,328.672 249.997,327.156 249.953,326.735 247.628,324.85 249.953,326.735 249.997,327.156 250.155,328.672 248.288,331.165 246.278,333.929 244.173,334.149 238.027,334.791 237.569,330.413 237.499,329.739 237.557,329.478 237.756,328.946 238.875,326.616 237.756,328.946 237.557,329.478 237.499,329.739 237.569,330.413 238.027,334.791 244.173,334.149 246.278,333.929 248.288,331.165 M235.153,385.483 Q234.844,386.332 234.31,387.188 232.864,389.637 231.924,390.417 232.864,389.637 234.31,387.188 234.844,386.332 235.153,385.483 236.284,383.272 236.096,381.469 L235.548,379.483 236.096,381.469 Q236.284,383.272 235.153,385.483 M273.747,352.423 Q275.879,352.2 278.601,350.809 281.549,349.41 285.153,346.72 290.293,342.802 291.392,340.45 291.821,339.663 291.757,339.05 291.686,338.376 289.765,336.279 287.927,334.173 287.227,333.99 287.927,334.173 289.765,336.279 291.686,338.376 291.757,339.05 291.821,339.663 291.392,340.45 290.293,342.802 285.153,346.72 281.549,349.41 278.601,350.809 275.879,352.2 273.747,352.423 270.463,352.766 268.028,350.638 264.18,347.209 263.909,347.067 264.18,347.209 268.028,350.638 270.463,352.766 273.747,352.423 M293.367,354.458 Q293.297,353.785 292.172,352.796 293.297,353.785 293.367,354.458 293.482,355.553 293.157,356.523 292.833,357.493 292.07,358.339 290.461,360.04 288.019,360.295 287.093,360.392 285.077,359.836 283.145,359.272 281.878,358.553 283.145,359.272 285.077,359.836 287.093,360.392 288.019,360.295 290.461,360.04 292.07,358.339 292.833,357.493 293.157,356.523 293.482,355.553 293.367,354.458 M256.124,388.228 Q259.803,387.588 263.565,386.939 259.803,387.588 256.124,388.228 246.094,390.808 236.96,386.485 246.094,390.808 256.124,388.228 M190.647,288.671 Q186.307,284.614 179.914,282.898 173.605,281.174 168.296,282.495 173.605,281.174 179.914,282.898 186.307,284.614 190.647,288.671Z" test="Avatar Lady" stroke-width="1.693"/>
      <path id="Layer1_0_1_STROKES" stroke="#009EFF" stroke-width="1.693" stroke-linejoin="round" stroke-linecap="round" fill="none" d="M281.521,303.007 Q280.097,299.156 283.054,297.314 285.918,295.398 288.684,294.172 M256.162,253.394 Q256.336,252.61 256.292,252.189 256.204,251.347 252.862,246.249 248.918,240.277 248.29,239.151 245.98,234.966 241.403,234.338 236.728,234.401 235.049,233.81 235.517,235.038 235.949,239.164 L236.414,245.244 Q236.17,245.354 234.247,244.874 232.156,244.412 231.23,244.509 227.946,244.852 226.16,244.868 221.897,244.803 217.182,245.296 L213.655,245.75 M215.529,257.981 Q216.99,258.935 222.614,263.88 227.773,268.448 228.637,269.379 M235.049,233.81 Q235.036,233.726 234.956,233.735 L234.929,233.482 Q235.029,233.64 235.049,233.81Z M213.234,245.794 Q213.216,245.625 213.3,245.617 213.479,245.763 213.655,245.75 L213.234,245.794 Q203.803,246.779 198.308,247.95 187.241,250.383 178.712,255.105 170.519,259.791 163.172,266.858 160.387,269.504 157.746,272.362 157.706,272.407 157.671,272.455 157.442,272.694 157.209,272.929 153.211,277.412 149.561,282.411 143.297,290.896 141.146,299.633 138.986,308.286 139.046,317.813 M138.955,321.014 Q141.65,321.053 144.932,321.198 150.325,321.486 158.117,325.183 158.52,325.394 163.715,328.258 163.764,328.27 163.804,328.291 165.563,329.275 167.87,330.547 M257.757,319.961 Q253.553,318.017 252.242,316.878 250.931,315.738 246.912,315.562 243.867,315.429 235.241,321.165 232.469,322.989 229.131,325.422 215.369,335.457 213.012,335.703 M263.909,347.067 Q264.18,347.209 268.028,350.638 270.463,352.766 273.747,352.423 275.879,352.2 278.647,350.847 281.549,349.41 285.153,346.72 290.293,342.802 291.435,340.445 291.821,339.663 291.757,339.05 291.686,338.376 289.765,336.279 287.927,334.173 287.227,333.99 M299.485,315.26 Q303.886,319.907 306.437,327.216 309.723,336.661 307.24,344.667 307.095,345.125 306.916,345.637 305.282,350.382 300.763,360.069 300.097,361.494 299.37,363.024 293.853,374.581 292.657,380.239 291.594,385.542 290.231,395.303 288.909,403.017 286.324,405.16 282.094,408.666 280.471,409.432 276.965,410.905 270.678,410.2 267.753,409.91 257.803,407.545 254.537,406.739 251.635,406.359 L251.551,406.368 M251.337,408.391 Q246.233,412.499 239.788,421.685 237.004,425.638 234.768,429.445 L234.693,429.538 234.476,429.901 Q233.558,431.543 232.729,433.148 230.647,437.117 229.201,440.922 226.053,449.082 220.775,466.998 218.219,475.568 214.287,489.211 L214.249,489.258 Q214.25,489.327 214.221,489.388 214.201,489.54 214.167,489.692 214.005,490.189 213.847,490.704 213.447,492.164 213.01,493.686 211.002,500.535 208.22,511.381 205.763,519.639 202.53,523.722 M202.197,524.608 Q200.302,528.466 192.171,539.445 186.366,547.324 184.124,551.224 183.417,552.488 183.068,553.335 M281.878,358.553 Q283.145,359.272 285.077,359.836 287.093,360.392 288.019,360.295 290.461,360.04 292.07,358.339 292.833,357.493 293.157,356.523 293.482,355.553 293.367,354.458 293.297,353.785 292.172,352.796 M251.551,406.368 Q247.832,405.872 244.714,406.104 236.573,407.21 233.121,407.571 227.479,408.16 221.339,406.419 217.688,405.694 212.412,403.266 201.945,398.402 192.327,389.448 182.83,380.607 175.944,369.923 M174.234,371.08 Q174.473,377.439 172.3,392.477 170.697,403.908 171.142,412.346 171.221,413.918 171.374,415.386 171.691,418.417 173.896,432.998 176.096,454.048 174.371,461.974 173.224,467.286 171.464,473.258 170.482,477.702 171.115,483.764 171.468,487.141 172.67,491.305 L172.674,491.347 Q173.777,495.161 175.584,499.64 179.281,508.957 179.783,513.757 180.047,516.283 179.376,518.821 179.007,520.179 178.488,520.915 M180.056,522.07 Q180.293,523.986 180.397,527.78 180.402,527.926 180.428,528.075 180.57,533.257 180.502,541.814 L180.506,541.856 Q180.484,545.261 180.421,549.185 M230.179,442.948 L230.175,447.8 Q230.263,448.642 231.204,451.948 232.146,455.255 232.234,456.097 232.322,456.939 233.643,462.248 234.88,467.567 234.968,468.409 235.707,475.481 228.532,506.193 221.273,536.914 221.933,543.229 222.575,549.376 233.36,562.974 241.789,573.585 252.128,583.74 259.616,591.044 278.879,626.313 278.994,627.407 279.694,627.59 280.301,627.696 280.323,627.098 M195.098,583.742 Q197.327,584.701 209.39,594.25 222.308,604.646 222.564,607.088 222.88,610.119 245.195,623.279 267.51,636.439 267.862,639.807 267.968,640.817 268.296,640.698 268.624,640.578 268.641,640.747 L269.253,640.087 M190.647,288.671 Q186.307,284.614 179.914,282.898 173.605,281.174 168.296,282.495 M138.955,321.014 Q138.871,321.033 138.786,321.032 138.699,321.031 138.618,321.049 134.521,320.975 131.825,321.206 124.566,321.795 119.548,324.277 113.32,327.396 112.615,327.981 111.44,328.955 111.77,331.303 112.203,333.812 113.65,335.448 114.048,335.846 114.78,336.479 114.872,336.551 114.966,336.63 L115.012,336.668 M119.059,331.818 Q125.338,330.943 137.081,332.403 137.253,332.425 137.426,332.452 M115.012,336.668 Q117.301,338.652 122.494,342.695 129.402,348.034 133.715,350.29 134.5,350.683 135.192,350.987 141.084,353.605 147.643,352.835 152.433,352.249 159.394,352.883 164.889,353.331 166.511,352.565 M170.759,360.633 L175.786,369.641 Q175.874,369.778 175.944,369.923 M130.558,356.323 Q128.105,359.729 127.52,377.75 127.27,385.948 127.22,387.911 127.244,391.398 127.649,395.271 128.141,399.986 131.178,410.309 134.13,420.64 134.746,426.534 134.81,427.147 134.878,427.797 135.104,430.607 135.109,434.072 135.129,439.753 134.565,447.195 134.171,452.413 133.491,458.5 131.118,479.773 132.913,496.95 133.203,499.728 135.408,508.606 137.56,516.978 137.558,518.595 M137.426,332.452 Q139.18,332.655 141.051,332.925 155.211,334.85 160.574,334.034 M152.702,372.735 L153.09,374.822 Q153.293,376.759 152.575,382.111 151.867,387.548 152.156,391.944 152.414,396.854 153.276,405.105 153.373,406.032 154.018,408.943 154.671,411.939 154.786,413.034 154.792,413.095 154.799,413.16 155.02,415.425 154.883,419.663 154.812,424.693 154.187,426.035 153.526,427.04 152.349,429.632 151.511,431.379 151.12,432.526 150.729,433.674 150.786,434.221 M156.991,469.153 Q157.061,469.826 156.772,476.836 156.399,483.855 156.505,484.866 156.698,486.718 158.751,491.696 159.744,494.209 160.272,495.665 160.763,497.107 160.807,497.524 161.106,500.387 159.219,505.947 157.522,510.891 156.023,512.835 M134.878,427.797 Q130.141,428.888 125.155,434.942 120.53,440.499 119.705,446.322 119.469,448.02 119.552,449.743 119.779,455.167 121.531,511.844 123.404,567.231 123.936,573.134 124.35,577.091 124.473,583.973 124.5,584.983 124.545,585.881 L124.554,585.965 Q124.768,588.845 125.328,590.523 125.823,592.003 165.966,639.731 205.803,686.98 206.239,690.339 M117.649,446.196 Q109.997,451.167 102.275,455.464 91.25,461.553 84.895,462.643 71.618,464.286 56.09,465.568 25.109,468.04 13.939,466.228 M178.488,520.915 Q178.007,521.603 177.375,521.669 M180.421,549.185 L180.426,549.227 Q180.417,551.177 180.381,553.275 180.186,564.48 179.756,579.472 179.696,582.968 190.439,598.614 203.674,617.745 206.674,623.645 227.156,664.064 229.54,682.797 M29.25,567.112 Q35.932,567.521 52.798,571.716 71.158,576.352 81.329,580.821 95.154,586.867 98.738,587.769 106.177,589.716 115.417,587.728 119.162,586.911 122.3,585.988" test="Avatar Lady"/>
      <path id="Layer1_0_2_STROKES" stroke="#FFBC00" stroke-width="1.693" stroke-linejoin="round" stroke-linecap="round" fill="none" d="M234.904,276.811 Q246.002,267.495 258.211,257.521 L266.005,263.686 Q274.158,270.836 275.856,275.68 276.47,277.489 270.446,280.927 263.681,284.613 262.97,287.582 262.076,291.25 264.113,300.145 265.013,303.984 266.048,307.263 266.111,307.471 266.176,307.675 M171.124,329.101 Q173.019,328.162 175.069,326.944 181.228,323.242 188.751,316.959 195.172,311.606 212.758,295.809 223.211,286.674 234.904,276.811 M265.917,308.043 Q266.187,308.262 266.433,308.5 266.299,308.095 266.176,307.675 M265.917,308.043 Q263.118,305.448 258.979,303.15 249.868,298.229 242.178,300.395 234.741,302.534 222.566,311.467 210.931,320.579 205.09,324.657 204.257,325.234 203.541,325.713 199.568,328.426 185.262,337.327 183.826,338.226 182.545,339.015 178.822,341.398 176.531,342.963 174.025,344.706 173.261,345.476" test="Avatar Lady"/>
      <path id="Layer1_0_3_STROKES" stroke="#FF0" stroke-width="1.693" stroke-linejoin="round" stroke-linecap="round" fill="none" d="M286.296,304.721 Q286.633,310.389 291.855,308.226 292.549,307.912 293.099,307.5 295.016,306.006 294.992,303.217 294.945,300.328 292.087,299.86 M238.875,326.616 Q237.756,328.946 237.557,329.478 237.499,329.739 237.569,330.413 238.027,334.791 244.173,334.149 246.278,333.929 248.288,331.165 250.155,328.672 249.997,327.156 249.953,326.735 247.628,324.85" test="Avatar Lady"/>
      <path id="Layer1_0_4_STROKES" stroke="#FFF" stroke-width="1.693" stroke-linejoin="round" stroke-linecap="round" fill="none" d="M235.548,379.483 L236.096,381.469 Q236.284,383.272 235.2,385.52 234.844,386.332 234.31,387.188 232.864,389.637 231.924,390.417 M236.96,386.485 Q246.094,390.808 256.124,388.228 259.803,387.588 263.565,386.939" test="Avatar Lady"/>
    </g>
  </g>
</svg>