<?xml version="1.0" encoding="utf-8"?>
<svg id="EdithAnim13" image-rendering="inherit" baseProfile="basic" version="1.1" x="0px" y="0px" width="800" height="600" xmlns="http://www.w3.org/2000/svg" xmlns:xlink="http://www.w3.org/1999/xlink">
  <g id="22_Avatarf89r1" overflow="visible">
    <g id="Avatar-Manf0r1">
      <g id="Tailf0r1">
        <path id="Layer3_0_1_STROKES" stroke="#009EFF" stroke-width="2.303" stroke-linejoin="round" stroke-linecap="round" fill="none" d="M650.49,602.342 Q649.328,585.42 648.687,568.489 648.113,552.071 642.779,536.565 636.917,519.676 620.584,511.993 600.735,502.736 597.861,523.436 597.441,526.452 599.413,529.099 604.075,535.459 610.704,539.53 617.633,537 622.844,541.779 629.118,547.581 631.879,556.28 638.332,576.808 643.472,597.508 644.924,603.3 643.949,609.176" test="Tail_2.3242325232423263e+312.3242325232423263e+31_2.3242325232423263e+312.3242325232423263e+31_2.3242325232423263e+312.3242325232423263e+31_2.3242325232423263e+312.3242325232423263e+31_2.3242325232423263e+312.3242325232423263e+31_2.3242325232423263e+312.3242325232423263e+31_2.3242325232423263e+312.3242325232423263e+31_2.3242325232423263e+312.3242325232423263e+31_2.3242325232423263e+312.3242325232423263e+31_2.3242325232423263e+312.3242325232423263e+31_2.3242325232423263e+312.3242325232423263e+31_2.3242325232423263e+312.3242325232423263e+31_2324232523242325"/>
      </g>
      <path fill="#000" stroke="none" d="M612.053,516.265 Q607.949,507.053 602.756,505.713 601.584,505.378 587.346,509.481 570.429,514.339 551.25,514.506 531.318,514.674 512.222,508.476 496.896,502.195 495.138,502.363 489.108,505.043 487.433,506.215 484.418,508.225 484.669,510.738 484.836,512.58 485.004,522.714 485.59,532.513 488.438,535.863 491.536,539.464 506.528,547.253 518.923,553.534 531.569,558.894 539.86,562.411 552.339,578.073 558.704,586.029 565.906,595.325 567.414,596.498 565.906,598.173 564.734,599.429 564.901,599.429 L576.794,595.744 Q591.953,590.97 602.254,574.974 611.048,561.239 614.481,542.563 617.245,527.739 612.053,516.265 M617.413,167.781 L614.398,166.525 Q614.354,166.631 614.314,166.693 613.406,169.011 612.806,171.131 611.215,176.826 608.703,185.536 608.646,185.689 608.535,185.788 606.24,191.885 601.5,194.581 591.534,200.276 586.006,202.956 L589.775,211.331 Q589.356,217.445 591.283,258.399 591.353,259.91 591.366,261.33 592.929,293.331 593.125,303.038 593.123,303.101 593.125,303.121 593.153,305.366 593.125,306.388 592.79,319.536 595.219,340.306 595.554,343.238 600.16,340.809 604.766,338.296 604.431,336.538 604.264,335.281 606.19,335.951 607.781,336.538 608.2,336.956 608.284,337.04 614.481,315.6 L619.506,323.975 Q619.59,324.059 622.438,305.55 L627.463,307.644 Q627.56,307.743 626.876,298.85 626.913,298.83 626.876,298.766 625.922,285.095 623.191,250.359 621.535,229.133 620.26,215.184 618.682,196.538 617.831,190.896 617.593,189.251 617.413,188.719 617.593,189.251 617.831,190.896 618.682,196.538 620.26,215.184 L621.6,215.1 Q623.275,214.933 628.216,209.991 632.571,205.804 635.838,207.144 638.769,208.4 656.356,233.86 676.624,259.655 693.206,263.675 678.299,264.178 656.189,281.179 649.321,286.455 642.538,292.82 L641.533,293.741 Q642.725,306.471 646.641,350.021 L647.563,349.938 Q651.918,347.509 682.403,323.556 711.799,300.358 721.263,292.15 728.298,286.036 734.076,276.405 737.008,271.464 740.525,265.35 742.2,263.424 745.801,260.744 748.733,258.064 748.9,253.625 749.068,249.27 717.243,228.751 681.984,206.809 675.2,201.7 655.267,186.709 645.971,180.679 634.896,173.418 627.379,170.21 621.133,167.552 617.413,167.781 M557.866,162.673 Q560.379,162.254 562.724,161.835 566.493,161.835 566.241,166.441 573.444,165.604 576.291,166.441 579.306,167.363 579.223,170.629 L583.913,172.806 Q587.206,166.404 595.219,161.081 599.825,157.983 603.761,156.978 603.823,156.964 603.845,156.894 L602.756,150.194 Q604.013,150.11 601.584,147.179 597.145,142.07 593.544,137.631 588.686,131.601 571.769,126.158 556.945,121.384 548.738,121.3 522.44,121.049 504.35,128.419 493.128,133.025 483.078,146.928 481.151,149.562 479.56,151.953 475.069,159.071 473.698,164.431 L473.698,166.441 Q473.865,166.441 474.619,166.693 475.456,166.86 476.043,166.86 479.058,166.86 482.073,164.431 485.506,161.584 488.773,160.998 L488.773,163.091 492.541,163.091 Q495.054,162.589 499.828,161.165 503.513,159.993 504.266,160.16 L504.266,162.254 Q505.104,162.254 508.454,162.673 513.981,162.673 519.341,159.741 L523.529,159.741 523.529,161.416 530.229,161.416 Q541.284,158.066 541.954,158.066 543.043,158.066 544.048,158.82 545.22,159.658 547.398,159.741 547.398,161.835 546.979,162.673 L557.866,162.673Z" test="Avatar Man" stroke-width="1.675"/>
      <path id="Layer2_0_1_STROKES" stroke="#009EFF" stroke-width="1.675" stroke-linejoin="round" stroke-linecap="round" fill="none" d="M579.223,170.629 Q579.306,167.363 576.291,166.441 573.444,165.604 566.241,166.441 566.493,161.835 562.724,161.835 560.379,162.254 557.866,162.673 L546.979,162.673 Q547.398,161.835 547.398,159.741 545.22,159.658 544.048,158.82 543.043,158.066 541.954,158.066 541.284,158.066 530.229,161.416 L523.529,161.416 523.529,159.741 519.341,159.741 Q513.981,162.673 508.454,162.673 505.104,162.254 504.266,162.254 L504.266,160.16 Q503.513,159.993 499.828,161.165 495.054,162.589 492.541,163.091 L488.773,163.091 488.773,160.998 Q485.506,161.584 482.073,164.431 479.058,166.86 476.043,166.86 475.456,166.86 474.619,166.693 473.865,166.441 473.698,166.441 L473.698,164.431 Q475.069,159.071 479.602,151.994 481.151,149.562 483.078,146.928 493.128,133.025 504.35,128.419 522.44,121.049 548.738,121.3 556.945,121.384 571.769,126.158 588.686,131.601 593.544,137.631 597.145,142.07 601.584,147.179 604.013,150.11 602.756,150.194 M603.887,156.936 Q603.949,156.942 604.013,156.936 606.545,156.376 611.969,156.056 615.905,155.889 618.334,154.297 619.674,153.46 621.6,151.869 622.354,151.45 619.255,156.81 617.831,159.239 616.659,161.584 615.942,162.992 615.361,164.348 615.222,164.627 615.109,164.892 614.865,165.414 614.649,165.939 614.518,166.234 614.398,166.525 M617.413,167.781 Q621.133,167.552 627.421,170.252 634.896,173.418 645.971,180.679 655.267,186.709 675.2,201.7 681.984,206.809 717.243,228.751 749.068,249.27 748.9,253.625 748.733,258.064 745.801,260.744 742.2,263.424 740.525,265.35 737.008,271.464 734.076,276.405 728.298,286.036 721.263,292.15 711.799,300.358 682.403,323.556 651.918,347.509 647.563,349.938 647.129,350.221 646.725,350.482 641.851,353.644 639.69,354.879 635.838,357.14 632.488,356.638 M616.659,161.584 Q615.354,163.014 614.272,163.845 613.178,164.642 612.304,164.85 609.121,165.101 605.269,165.688 600.328,166.441 597.648,168.284 594.046,171.383 590.613,174.063 586.341,177.413 583.661,179.004 L581.819,179.925 Q582.222,176.23 583.954,172.848 M578.385,170.629 L579.223,170.629 M583.954,172.848 Q587.206,166.404 595.219,161.081 599.825,157.983 603.761,156.978 603.823,156.964 603.887,156.936 M614.398,166.525 Q614.354,166.631 614.314,166.734 613.406,169.011 612.806,171.131 611.215,176.826 608.703,185.536 608.646,185.689 608.577,185.829 606.24,191.885 601.5,194.581 591.534,200.276 586.006,202.956 M589.775,211.331 Q589.356,217.445 591.283,258.399 591.353,259.91 591.408,261.372 592.929,293.331 593.125,303.038 593.123,303.101 593.125,303.163 593.153,305.366 593.125,306.388 592.79,319.536 595.219,340.306 595.554,343.238 600.16,340.809 604.766,338.296 604.431,336.538 604.264,335.281 606.19,335.951 607.781,336.538 608.2,336.956 608.284,337.04 614.481,315.6 L619.506,323.975 Q619.59,324.059 622.438,305.55 L627.463,307.644 Q627.56,307.743 626.918,298.892 626.913,298.83 626.918,298.766 625.922,285.095 623.191,250.359 621.535,229.133 620.302,215.184 618.682,196.538 617.831,190.896 617.593,189.251 617.413,188.719 M641.533,293.783 L642.538,292.82 Q649.321,286.455 656.189,281.179 678.299,264.178 693.206,263.675 676.624,259.655 656.356,233.86 638.769,208.4 635.838,207.144 632.571,205.804 628.216,209.991 623.275,214.933 621.6,215.1 M527.381,208.4 Q528.358,208.557 530.396,208.651 532.721,208.735 536.426,208.735 542.959,208.651 545.806,208.4 551.083,207.898 551.753,207.73 555.103,206.809 555.438,204.213 M576.375,275.4 Q577.213,280.844 579.139,288.716 581.484,298.18 583.494,303.038 M482.994,272.888 Q482.994,272.971 483.329,281.514 483.58,287.628 485.925,291.731 486.679,293.048 487.809,294.328 491.24,298.158 498.153,301.614 507.7,306.471 516.913,306.806 L520.304,307.058 520.43,307.058 Q529.308,307.393 531.988,307.225 536.594,306.89 542.038,305.131 546.058,303.875 556.861,294.16 564.539,287.185 572.69,278.666 572.796,278.564 572.899,278.457 572.963,278.397 573.025,278.331 573.11,278.251 573.193,278.164 574.479,276.799 575.789,275.4 575.874,275.31 575.956,275.233 575.99,275.184 576.04,275.149 576.053,275.1 576.082,275.065 585.943,264.551 587.263,261.581 M520.263,307.644 Q519.509,311.245 518.085,319.453 516.661,326.571 514.4,330.256 M637.094,298.013 L641.533,293.783 M627.881,364.594 Q627.798,364.761 619.339,386.788 613.309,402.449 611.131,411.494 608.451,422.465 606.106,455.128 603.761,486.953 604.85,493.988 M556.61,407.641 Q557.113,409.484 558.788,409.986 559.29,410.154 560.63,410.154 562.808,410.154 563.645,409.149 563.98,408.814 565.32,405.715 M523.11,395.498 Q522.943,410.74 524.031,413.085 525.79,417.273 535.673,417.273 540.446,417.273 540.865,417.189 541.368,417.105 543.21,416.016 M524.366,447.004 Q523.529,449.516 523.529,452.28 523.529,456.886 527.214,457.138 529.643,457.221 537.348,457.054 M521.435,481.76 Q525.706,484.691 528.47,485.361 530.48,485.78 533.998,485.11 M564.231,599.931 Q557.95,602.863 541.116,606.045 524.115,609.228 506.025,610.819 490.364,612.243 453.514,611.489 425.709,610.986 409.713,609.981 397.401,609.228 372.444,606.631 366.246,605.961 361.64,606.966 358.374,607.72 357.369,607.05 M477.969,151.031 Q474.786,149.105 471.018,147.095 463.48,143.159 461.219,143.494 458.79,143.829 460.8,155.805 462.475,166.023 464.15,170.294 M468.338,181.6 Q469.008,184.364 470.766,189.891 471.771,194.33 469.175,196.256 465.977,198.64 462.936,200.863 L462.894,200.904 Q417.198,234.835 411.388,236.875 406.279,238.383 405.023,238.801 403.264,239.471 403.013,241.063 402.594,244.329 402.426,255.551 402.175,268.449 403.013,271.213 405.86,282.603 427.803,315.014 449.326,346.755 462.056,359.15 M470.013,210.494 Q472.609,211.834 477.801,212.504 478.012,212.536 478.22,212.546 483.121,213.247 488.019,213.006 491.118,212.839 498.32,211.666 504.183,210.661 506.025,210.913 M469.594,232.269 Q468.589,233.944 457.785,244.748 447.986,254.546 445.306,256.975 M490.029,251.866 Q493.798,251.866 497.985,251.029 L514.316,251.029 Q509.291,256.389 506.444,259.236 501.168,264.429 499.911,264.429 497.65,264.429 494.3,259.739 490.866,254.379 489.61,253.123 M436.094,252.369 Q437.531,255.841 440.616,260.241 440.65,260.29 440.7,260.325 448.378,271.336 466.244,288.13 474.543,295.924 480.649,301.865 494.777,315.57 497.231,319.369 M469.175,382.6 Q468.589,395.916 471.269,402.281 472.944,406.134 478.053,410.489 483.329,414.76 488.019,416.1 M483.413,423.638 Q483.496,426.234 483.078,436.954 482.91,447.004 484.25,449.6 485.841,452.699 489.778,455.295 493.63,457.808 495.975,457.556 M489.275,460.906 Q489.359,463.67 489.359,467.941 489.526,471.124 490.95,473.05 491.118,473.301 495.64,476.4 498.655,478.494 498.488,482.263 498.32,485.11 496.561,492.145 495.054,498.008 495.556,499.85 M475.038,511.994 Q455.44,508.393 431.739,504.708 384.42,497.421 364.571,497.421 351.339,497.421 336.264,494.658 324.371,492.48 321.859,493.234 317.504,494.574 313.4,501.441 309.296,508.393 309.631,514.088 309.883,517.94 311.222,528.158 312.311,537.286 311.306,540.888 M474.619,536.281 Q466.914,537.538 431.404,538.291 392.879,539.129 386.681,539.631 379.814,540.218 357.955,543.735 338.106,546.918 330.15,547.169 320.686,547.504 312.311,546.331 307.956,545.745 301.675,544.238 298.409,543.484 295.059,545.745 293.3,547.001 289.112,551.356 284.339,556.298 288.694,566.85 289.531,568.944 288.108,580.92 286.516,592.98 287.438,595.325 L290.369,602.444 Q293.635,611.405 294.975,620.869 M354.019,595.325 Q355.191,599.094 357.369,609.898 359.714,621.455 359.463,623.8" test="Avatar Man"/>
      <path id="Layer2_0_2_STROKES" stroke="#FF0" stroke-width="1.675" stroke-linejoin="round" stroke-linecap="round" fill="none" d="M530.229,211.666 Q529.391,216.356 531.066,219.79 532.825,223.391 536.091,223.391 537.431,223.391 539.274,222.386 541.368,221.214 541.954,219.623 M477.885,215.435 Q477.048,221.298 477.048,221.716 477.048,223.42 478.304,225.234 478.972,226.182 479.979,227.16 483.078,230.091 486.26,230.091 487.935,230.091 489.024,228.416 489.694,227.495 490.866,225.485" test="Avatar Man"/>
      <path id="Layer2_0_3_STROKES" stroke="#FFF" stroke-width="1.675" stroke-linejoin="round" stroke-linecap="round" fill="none" d="M559.541,257.31 Q565.153,259.571 565.404,263.34 565.421,263.578 565.446,263.843 565.441,263.906 565.446,263.968 L565.446,264.094 Q565.477,266.273 564.985,270.291 M552.004,272.385 Q557.523,271.068 560.881,267.025 562.007,265.672 562.891,264.01" test="Avatar Man"/>
      <path id="Layer2_0_4_STROKES" stroke="#F90" stroke-width="1.675" stroke-linejoin="round" stroke-linecap="round" fill="none" d="M495.138,502.363 Q496.896,502.195 512.222,508.476 531.318,514.674 551.25,514.506 570.429,514.339 587.346,509.481 601.584,505.378 602.756,505.713 607.949,507.053 612.053,516.265 617.245,527.739 614.481,542.563 611.048,561.239 602.254,574.974 591.953,590.97 576.794,595.744 L564.901,599.429 Q564.734,599.429 565.906,598.173 567.414,596.498 565.906,595.325 558.704,586.029 552.339,578.073 539.86,562.411 531.569,558.894 518.923,553.534 506.528,547.253 491.536,539.464 488.438,535.863 485.59,532.513 485.004,522.714 484.836,512.58 484.669,510.738 484.418,508.225 487.433,506.215 489.108,505.043 495.138,502.363Z" test="Avatar Man"/>
    </g>
    <g id="Avatar-Lady">
      <path fill="#000" stroke="none" d="M251.363,406.837 Q247.648,406.371 244.529,406.594 236.382,407.676 232.928,408.026 227.283,408.599 221.146,406.839 217.496,406.103 212.226,403.658 201.771,398.761 192.177,389.776 182.703,380.905 175.801,370.159 L174.134,371.349 Q174.354,377.711 172.135,392.746 170.498,404.175 170.917,412.617 170.992,414.189 171.141,415.659 171.449,418.692 173.61,433.283 175.748,454.345 173.998,462.269 172.835,467.579 171.057,473.547 170.061,477.989 170.677,484.055 171.019,487.434 172.204,491.561 L172.213,491.645 Q173.305,495.463 175.098,499.949 178.769,509.28 179.257,514.082 179.513,516.61 178.834,519.147 178.461,520.504 177.936,521.196 L179.505,522.399 Q179.737,524.316 179.825,528.069 179.834,528.257 179.859,528.406 179.985,533.591 179.888,542.107 L179.896,542.191 Q179.864,545.598 179.789,549.522 L183.483,551.531 Q185.74,547.679 191.571,539.815 199.737,528.857 201.644,525.004 L201.98,524.118 Q205.227,520.044 207.709,511.791 210.524,500.95 212.553,494.105 212.994,492.585 213.358,491.13 213.559,490.61 213.676,490.076 213.757,489.962 213.735,489.815 213.806,489.749 213.802,489.638 L213.802,489.638 Q217.818,475.998 220.401,467.433 225.734,449.528 228.907,441.375 230.365,437.574 232.46,433.609 233.293,432.006 234.174,430.371 L234.392,430.008 234.468,429.916 Q236.758,426.11 239.555,422.164 246.029,412.996 251.147,408.901 L251.363,406.837 M215.779,258.342 L213.941,246.102 213.52,246.144 Q204.084,247.102 198.584,248.256 187.507,250.657 178.961,255.355 170.752,260.018 163.381,267.065 160.588,269.702 157.895,272.558 157.898,272.599 157.819,272.651 157.632,272.885 157.357,273.124 153.386,277.592 149.719,282.581 143.429,291.05 141.251,299.783 139.065,308.431 139.095,317.961 L138.991,321.121 Q141.691,321.21 144.974,321.365 150.367,321.669 158.15,325.39 158.553,325.603 163.741,328.483 163.79,328.495 163.825,328.475 165.586,329.506 167.89,330.786 165.586,329.506 163.825,328.475 163.79,328.495 163.741,328.483 158.553,325.603 158.15,325.39 150.367,321.669 144.974,321.365 141.691,321.21 138.991,321.121 L137.432,332.6 Q139.186,332.808 141.056,333.083 155.215,335.051 160.581,334.251 155.215,335.051 141.056,333.083 139.186,332.808 137.432,332.6 137.259,332.572 137.086,332.55 125.345,331.054 119.061,331.911 L114.957,336.754 Q117.283,338.741 122.465,342.801 129.359,348.162 133.624,350.436 134.45,350.827 135.142,351.133 141.027,353.77 147.59,353.019 152.384,352.447 159.345,353.103 164.839,353.566 166.465,352.806 L171.918,353.699 170.69,360.889 175.691,369.914 Q175.778,370.052 175.801,370.159 182.703,380.905 192.177,389.776 201.771,398.761 212.226,403.658 217.496,406.103 221.146,406.839 227.283,408.599 232.928,408.026 236.382,407.676 244.529,406.594 247.648,406.371 251.363,406.837 L251.447,406.828 Q254.352,407.258 257.617,408.074 267.563,410.47 270.488,410.769 276.775,411.493 280.286,410.03 281.911,409.269 286.153,405.774 288.745,403.639 290.09,395.927 291.483,386.167 292.563,380.865 293.776,375.21 299.329,363.666 300.061,362.138 300.732,360.715 305.281,351.038 306.929,346.297 307.11,345.784 307.256,345.327 309.764,337.327 306.506,327.869 303.976,320.55 299.587,315.889 L293.18,308.112 Q292.672,308.518 291.976,308.83 286.747,310.978 286.427,305.308 L281.655,303.579 266.292,308.202 Q266.413,308.622 266.546,309.028 266.301,308.789 265.989,308.573 263.239,305.965 259.106,303.654 250.007,298.704 242.309,300.848 234.863,302.965 222.658,311.864 210.992,320.944 205.092,324.968 204.303,325.581 203.585,326.057 199.603,328.759 185.266,337.619 183.827,338.514 182.539,339.258 178.812,341.672 176.469,343.194 174.004,344.967 173.237,345.735 174.004,344.967 176.469,343.194 178.812,341.672 182.539,339.258 183.827,338.514 185.266,337.619 199.603,328.759 203.585,326.057 204.303,325.581 205.092,324.968 210.992,320.944 222.658,311.864 234.863,302.965 242.309,300.848 250.007,298.704 259.106,303.654 263.239,305.965 265.989,308.573 L266.292,308.202 Q266.227,307.998 266.165,307.789 265.139,304.506 264.25,300.664 262.24,291.76 263.145,288.093 263.865,285.126 270.643,281.459 276.68,278.038 276.07,276.227 274.386,271.376 266.253,264.2 L258.475,258.01 Q246.232,267.95 235.061,277.239 223.378,287.066 212.894,296.172 195.256,311.921 188.818,317.256 181.273,323.519 175.097,327.16 173.048,328.415 171.149,329.349 173.048,328.415 175.097,327.16 181.273,323.519 188.818,317.256 195.256,311.921 212.894,296.172 223.378,287.066 235.061,277.239 L228.857,269.783 Q227.996,268.849 222.849,264.264 217.239,259.301 215.779,258.342 M252.327,317.365 Q251.019,316.221 246,316.033 243.953,315.891 235.303,321.561 232.53,323.419 229.184,325.842 215.388,335.839 213.029,336.079 215.388,335.839 229.184,325.842 232.53,323.419 235.303,321.561 243.953,315.891 246,316.033 251.019,316.221 252.327,317.365 253.634,318.509 257.833,320.466 253.634,318.509 252.327,317.365 M248.328,331.645 Q250.204,329.157 250.05,327.64 250.007,327.219 247.687,325.326 250.007,327.219 250.05,327.64 250.204,329.157 248.328,331.645 246.31,334.403 244.204,334.617 238.053,335.241 237.609,330.86 237.54,330.186 237.599,329.925 237.801,329.394 238.926,327.067 237.801,329.394 237.599,329.925 237.54,330.186 237.609,330.86 238.053,335.241 244.204,334.617 246.31,334.403 248.328,331.645 M235.027,385.938 Q234.715,386.787 234.179,387.642 232.724,390.087 231.782,390.864 232.724,390.087 234.179,387.642 234.715,386.787 235.027,385.938 236.165,383.73 235.982,381.926 L235.44,379.938 235.982,381.926 Q236.165,383.73 235.027,385.938 M273.731,352.985 Q275.864,352.769 278.591,351.386 281.544,349.995 285.157,347.314 290.311,343.411 291.417,341.061 291.848,340.275 291.786,339.662 291.717,338.988 289.802,336.884 287.97,334.772 287.27,334.588 287.97,334.772 289.802,336.884 291.717,338.988 291.786,339.662 291.848,340.275 291.417,341.061 290.311,343.411 285.157,347.314 281.544,349.995 278.591,351.386 275.864,352.769 273.731,352.985 270.445,353.319 268.015,351.182 264.176,347.741 263.907,347.598 264.176,347.741 268.015,351.182 270.445,353.319 273.731,352.985 M293.35,355.08 Q293.282,354.406 292.16,353.413 293.282,354.406 293.35,355.08 293.462,356.175 293.134,357.145 292.807,358.114 292.042,358.958 290.426,360.654 287.983,360.902 287.056,360.996 285.042,360.434 283.111,359.864 281.846,359.141 283.111,359.864 285.042,360.434 287.056,360.996 287.983,360.902 290.426,360.654 292.042,358.958 292.807,358.114 293.134,357.145 293.462,356.175 293.35,355.08 M255.996,388.747 Q259.677,388.118 263.443,387.481 259.677,388.118 255.996,388.747 245.955,391.298 236.832,386.947 245.955,391.298 255.996,388.747 M190.798,288.966 Q186.47,284.894 180.08,283.16 173.775,281.416 168.46,282.722 173.775,281.416 180.08,283.16 186.47,284.894 190.798,288.966Z" test="Avatar Lady" stroke-width="1.694"/>
      <path id="Layer1_0_1_STROKES" stroke="#009EFF" stroke-width="1.694" stroke-linejoin="round" stroke-linecap="round" fill="none" d="M281.655,303.579 Q280.242,299.722 283.205,297.889 286.076,295.98 288.846,294.763 M256.438,253.876 Q256.614,253.092 256.571,252.671 256.486,251.828 253.158,246.718 249.231,240.733 248.606,239.605 246.308,235.412 241.731,234.77 237.055,234.819 235.377,234.223 235.842,235.452 236.261,239.581 L236.709,245.664 Q236.464,245.774 234.542,245.288 232.452,244.819 231.525,244.913 228.24,245.247 226.453,245.258 222.189,245.18 217.471,245.658 L213.941,246.102 M215.779,258.342 Q217.239,259.301 222.849,264.264 227.996,268.849 228.857,269.783 M235.377,234.223 Q235.365,234.139 235.284,234.147 L235.259,233.894 Q235.358,234.053 235.377,234.223Z M213.52,246.144 Q213.503,245.976 213.587,245.967 213.766,246.114 213.941,246.102 L213.52,246.144 Q204.084,247.102 198.584,248.256 187.507,250.657 178.961,255.355 170.752,260.018 163.381,267.065 160.588,269.702 157.937,272.554 157.898,272.599 157.862,272.647 157.632,272.885 157.399,273.119 153.386,277.592 149.719,282.581 143.429,291.05 141.251,299.783 139.065,308.431 139.095,317.961 M138.995,321.163 Q141.691,321.21 144.974,321.365 150.367,321.669 158.15,325.39 158.553,325.603 163.741,328.483 163.79,328.495 163.829,328.517 165.586,329.506 167.89,330.786 M257.833,320.466 Q253.634,318.509 252.327,317.365 251.019,316.221 246,316.033 243.953,315.891 235.308,321.603 232.53,323.419 229.184,325.842 215.388,335.839 213.029,336.079 M263.907,347.598 Q264.176,347.741 268.015,351.182 270.445,353.319 273.731,352.985 275.864,352.769 278.637,351.423 281.544,349.995 285.157,347.314 290.311,343.411 291.459,341.057 291.848,340.275 291.786,339.662 291.717,338.988 289.802,336.884 287.97,334.772 287.27,334.588 M299.587,315.889 Q303.976,320.55 306.506,327.869 309.764,337.327 307.256,345.327 307.11,345.784 306.929,346.297 305.281,351.038 300.732,360.715 300.061,362.138 299.329,363.666 293.776,375.21 292.563,380.865 291.483,386.167 290.09,395.927 288.745,403.639 286.153,405.774 281.911,409.269 280.286,410.03 276.775,411.493 270.488,410.769 267.563,410.47 257.617,408.074 254.352,407.258 251.451,406.87 L251.367,406.879 M251.147,408.901 Q246.029,412.996 239.555,422.164 236.758,426.11 234.51,429.911 L234.435,430.004 234.216,430.367 Q233.293,432.006 232.46,433.609 230.365,437.574 228.907,441.375 225.734,449.528 220.401,467.433 217.818,475.998 213.844,489.633 L213.806,489.68 Q213.806,489.749 213.777,489.81 213.757,489.962 213.723,490.114 213.559,490.61 213.4,491.125 212.994,492.585 212.553,494.105 210.524,500.95 207.709,511.791 205.227,520.044 201.98,524.118 M201.644,525.004 Q199.737,528.857 191.571,539.815 185.74,547.679 183.487,551.573 182.776,552.835 182.424,553.681 M281.846,359.141 Q283.111,359.864 285.042,360.434 287.056,360.996 287.983,360.902 290.426,360.654 292.042,358.958 292.807,358.114 293.134,357.145 293.462,356.175 293.35,355.08 293.282,354.406 292.16,353.413 M251.367,406.879 Q247.648,406.371 244.529,406.594 236.382,407.676 232.928,408.026 227.283,408.599 221.146,406.839 217.496,406.103 212.226,403.658 201.771,398.761 192.177,389.776 182.703,380.905 175.847,370.196 M174.134,371.349 Q174.354,377.711 172.135,392.746 170.498,404.175 170.917,412.617 170.992,414.189 171.141,415.659 171.449,418.692 173.61,433.283 175.748,454.345 173.998,462.269 172.835,467.579 171.057,473.547 170.061,477.989 170.677,484.055 171.019,487.434 172.209,491.603 L172.213,491.645 Q173.305,495.463 175.098,499.949 178.769,509.28 179.257,514.082 179.513,516.61 178.834,519.147 178.461,520.504 177.94,521.238 M179.505,522.399 Q179.737,524.316 179.829,528.111 179.834,528.257 179.859,528.406 179.985,533.591 179.892,542.149 L179.896,542.191 Q179.864,545.598 179.789,549.522 M229.879,443.404 L229.861,448.258 Q229.946,449.1 230.878,452.411 231.81,455.721 231.895,456.563 231.981,457.406 233.286,462.721 234.507,468.044 234.593,468.887 235.311,475.964 228.042,506.663 220.689,537.371 221.33,543.689 221.954,549.84 232.701,563.474 241.101,574.113 251.413,584.302 258.881,591.63 278.043,626.967 278.154,628.062 278.854,628.247 279.461,628.355 279.485,627.757 M194.367,584.133 Q196.593,585.099 208.631,594.687 221.522,605.125 221.769,607.568 222.077,610.601 244.359,623.831 266.64,637.062 266.982,640.432 267.085,641.443 267.414,641.324 267.742,641.206 267.759,641.374 L268.373,640.716 M190.798,288.966 Q186.47,284.894 180.08,283.16 173.775,281.416 168.46,282.722 M138.995,321.163 Q138.912,321.182 138.826,321.18 138.739,321.179 138.658,321.198 134.56,321.111 131.862,321.334 124.6,321.901 119.573,324.369 113.333,327.47 112.627,328.053 111.448,329.023 111.772,331.374 112.197,333.884 113.64,335.525 114.036,335.924 114.767,336.56 114.859,336.632 114.952,336.711 L114,336.749 M119.061,331.911 Q125.345,331.054 137.086,332.55 137.259,332.572 137.432,332.6 M114,336.749 Q117.283,338.741 122.465,342.801 129.359,348.162 133.666,350.431 134.45,350.827 135.142,351.133 141.027,353.77 147.59,353.019 152.384,352.447 159.345,353.103 164.839,353.566 166.465,352.806 M170.69,360.889 L175.691,369.914 Q175.778,370.052 175.847,370.196 M130.49,356.457 Q128.026,359.856 127.387,377.881 127.112,386.08 127.056,388.043 127.07,391.532 127.463,395.407 127.942,400.125 130.948,410.46 133.871,420.803 134.469,426.7 134.531,427.314 134.597,427.964 134.814,430.775 134.809,434.241 134.812,439.924 134.226,447.366 133.815,452.585 133.117,458.672 130.68,479.943 132.424,497.13 132.706,499.91 134.885,508.797 137.012,517.178 137.006,518.796 M137.432,332.6 Q139.186,332.808 141.056,333.083 155.215,335.051 160.581,334.251 M152.591,372.94 L152.973,375.029 Q153.17,376.966 152.436,382.318 151.711,387.754 151.987,392.152 152.23,397.064 153.068,405.321 153.162,406.248 153.798,409.162 154.443,412.161 154.554,413.256 154.56,413.317 154.567,413.383 154.782,415.649 154.631,419.888 154.546,424.918 153.916,426.259 153.252,427.263 152.068,429.851 151.223,431.597 150.829,432.743 150.435,433.89 150.49,434.437 M156.592,469.397 Q156.66,470.071 156.35,477.083 155.956,484.102 156.059,485.113 156.247,486.967 158.285,491.952 159.27,494.469 159.795,495.927 160.282,497.371 160.324,497.788 160.615,500.653 158.71,506.209 156.998,511.149 155.493,513.089 M134.597,427.964 Q129.855,429.041 124.85,435.082 120.207,440.626 119.364,446.448 119.123,448.146 119.201,449.87 119.411,455.296 120.994,511.994 122.702,567.402 123.216,573.309 123.618,577.268 123.721,584.152 123.745,585.163 123.787,586.061 L123.795,586.145 Q124.001,589.027 124.556,590.707 125.047,592.189 165.058,640.05 204.765,687.432 205.191,690.793 M117.308,446.317 Q109.639,451.266 101.902,455.541 90.855,461.599 84.495,462.67 71.209,464.273 55.673,465.51 24.676,467.889 13.509,466.043 M177.94,521.238 Q177.456,521.926 176.825,521.99 M179.789,549.522 L179.793,549.564 Q179.778,551.515 179.736,553.613 179.508,564.821 179.033,579.816 178.962,583.313 189.661,598.995 202.843,618.171 205.826,624.082 226.193,664.574 228.521,683.319 M28.521,567.002 Q35.204,567.43 52.063,571.677 70.413,576.369 80.574,580.871 94.385,586.959 97.967,587.872 105.402,589.842 114.651,587.882 118.4,587.076 121.541,586.161" test="Avatar Lady"/>
      <path id="Layer1_0_2_STROKES" stroke="#FFBC00" stroke-width="1.694" stroke-linejoin="round" stroke-linecap="round" fill="none" d="M235.103,277.235 Q246.232,267.95 258.475,258.01 L266.253,264.2 Q274.386,271.376 276.07,276.227 276.68,278.038 270.643,281.459 263.865,285.126 263.145,288.093 262.24,291.76 264.25,300.664 265.139,304.506 266.165,307.789 266.227,307.998 266.292,308.202 M171.149,329.349 Q173.048,328.415 175.102,327.202 181.273,323.519 188.818,317.256 195.256,311.921 212.894,296.172 223.378,287.066 235.103,277.235 M266.032,308.569 Q266.301,308.789 266.546,309.028 266.413,308.622 266.292,308.202 M266.032,308.569 Q263.239,305.965 259.106,303.654 250.007,298.704 242.309,300.848 234.863,302.965 222.658,311.864 210.992,320.944 205.138,325.005 204.303,325.581 203.585,326.057 199.603,328.759 185.266,337.619 183.827,338.514 182.543,339.3 178.812,341.672 176.516,343.231 174.004,344.967 173.237,345.735" test="Avatar Lady"/>
      <path id="Layer1_0_3_STROKES" stroke="#FF0" stroke-width="1.694" stroke-linejoin="round" stroke-linecap="round" fill="none" d="M286.427,305.308 Q286.747,310.978 291.976,308.83 292.672,308.518 293.222,308.108 295.145,306.619 295.129,303.829 295.091,300.939 292.234,300.462 M238.926,327.067 Q237.801,329.394 237.599,329.925 237.54,330.186 237.609,330.86 238.053,335.241 244.204,334.617 246.31,334.403 248.328,331.645 250.204,329.157 250.05,327.64 250.007,327.219 247.687,325.326" test="Avatar Lady"/>
      <path id="Layer1_0_4_STROKES" stroke="#FFF" stroke-width="1.694" stroke-linejoin="round" stroke-linecap="round" fill="none" d="M235.44,379.938 L235.982,381.926 Q236.165,383.73 235.073,385.976 234.715,386.787 234.179,387.642 232.724,390.087 231.782,390.864 M236.832,386.947 Q245.955,391.298 255.996,388.747 259.677,388.118 263.443,387.481" test="Avatar Lady"/>
    </g>
  </g>
</svg>