<?xml version="1.0" encoding="utf-8"?>
<svg id="EdithAnim13" image-rendering="inherit" baseProfile="basic" version="1.1" x="0px" y="0px" width="800" height="600" xmlns="http://www.w3.org/2000/svg" xmlns:xlink="http://www.w3.org/1999/xlink">
  <g id="22_Avatarf9r1" overflow="visible">
    <g id="Avatar-Manf0r1">
      <g id="Tailf0r1">
        <path id="Layer3_0_1_STROKES" stroke="#009EFF" stroke-width="2.303" stroke-linejoin="round" stroke-linecap="round" fill="none" d="M650.79,913.441 Q649.628,896.52 648.987,879.589 648.413,863.171 643.079,847.665 637.217,830.776 620.884,823.093 601.035,813.836 598.161,834.536 597.741,837.552 599.713,840.199 604.375,846.559 611.004,850.63 617.933,848.1 623.144,852.879 629.418,858.681 632.179,867.38 638.632,887.908 643.772,908.608 645.224,914.4 644.249,920.276" test="Tail_2.3242325232423263e+312.3242325232423263e+31_22"/>
      </g>
      <path fill="#000" stroke="none" d="M612.353,827.365 Q608.249,818.152 603.056,816.813 601.884,816.478 587.646,820.581 570.729,825.439 551.55,825.606 531.618,825.774 512.522,819.576 497.196,813.295 495.437,813.463 489.407,816.142 487.732,817.315 484.718,819.325 484.969,821.838 485.136,823.68 485.304,833.814 485.89,843.613 488.737,846.963 491.836,850.564 506.827,858.353 519.222,864.634 531.869,869.994 540.16,873.511 552.639,889.173 559.004,897.129 566.206,906.425 567.714,907.598 566.206,909.272 565.034,910.529 565.201,910.529 L577.094,906.844 Q592.252,902.07 602.554,886.074 611.348,872.339 614.781,853.663 617.545,838.839 612.353,827.365 M617.713,478.881 L614.698,477.625 Q614.654,477.731 614.614,477.792 613.706,480.111 613.106,482.231 611.515,487.926 609.002,496.636 608.946,496.789 608.835,496.887 606.54,502.984 601.8,505.681 591.834,511.376 586.306,514.056 L590.075,522.431 Q589.656,528.545 591.583,569.499 591.653,571.01 591.666,572.43 593.229,604.431 593.425,614.137 593.423,614.201 593.425,614.221 593.453,616.466 593.425,617.488 593.09,630.636 595.519,651.406 595.854,654.338 600.46,651.909 605.066,649.396 604.731,647.637 604.564,646.381 606.49,647.051 608.081,647.637 608.5,648.056 608.584,648.14 614.781,626.7 L619.806,635.075 Q619.89,635.159 622.738,616.65 L627.762,618.744 Q627.86,618.843 627.176,609.95 627.213,609.93 627.176,609.866 626.222,596.195 623.491,561.459 621.835,540.233 620.56,526.284 618.982,507.638 618.131,501.996 617.893,500.351 617.713,499.819 617.893,500.351 618.131,501.996 618.982,507.638 620.56,526.284 L621.9,526.2 Q623.575,526.033 628.516,521.091 632.871,516.904 636.137,518.244 639.069,519.5 656.656,544.96 676.924,570.755 693.506,574.775 678.599,575.277 656.489,592.279 649.621,597.555 642.838,603.92 L641.833,604.841 Q643.025,617.571 646.941,661.121 L647.863,661.038 Q652.218,658.609 682.703,634.656 712.099,611.458 721.563,603.25 728.598,597.136 734.376,587.505 737.308,582.564 740.825,576.45 742.5,574.524 746.101,571.844 749.033,569.164 749.2,564.725 749.368,560.37 717.543,539.851 682.284,517.909 675.5,512.8 655.567,497.809 646.271,491.779 635.196,484.518 627.679,481.31 621.433,478.652 617.713,478.881 M558.166,473.773 Q560.679,473.354 563.024,472.935 566.793,472.935 566.541,477.541 573.744,476.704 576.591,477.541 579.606,478.463 579.522,481.729 L584.213,483.906 Q587.506,477.504 595.519,472.181 600.125,469.083 604.061,468.078 604.123,468.064 604.145,467.994 L603.056,461.294 Q604.313,461.21 601.884,458.279 597.445,453.17 593.844,448.731 588.986,442.701 572.069,437.258 557.245,432.484 549.037,432.4 522.74,432.149 504.65,439.519 493.427,444.125 483.377,458.028 481.451,460.662 479.86,463.053 475.369,470.171 473.997,475.531 L473.997,477.541 Q474.165,477.541 474.919,477.792 475.756,477.96 476.343,477.96 479.357,477.96 482.372,475.531 485.806,472.684 489.072,472.097 L489.072,474.191 492.841,474.191 Q495.354,473.689 500.127,472.265 503.812,471.093 504.566,471.26 L504.566,473.354 Q505.404,473.354 508.754,473.773 514.281,473.773 519.641,470.841 L523.829,470.841 523.829,472.516 530.529,472.516 Q541.584,469.166 542.254,469.166 543.343,469.166 544.348,469.92 545.52,470.758 547.698,470.841 547.698,472.935 547.279,473.773 L558.166,473.773Z" test="Avatar Man" stroke-width="1.675"/>
      <path id="Layer2_0_1_STROKES" stroke="#009EFF" stroke-width="1.675" stroke-linejoin="round" stroke-linecap="round" fill="none" d="M579.522,481.729 Q579.606,478.463 576.591,477.541 573.744,476.704 566.541,477.541 566.793,472.935 563.024,472.935 560.679,473.354 558.166,473.773 L547.279,473.773 Q547.698,472.935 547.698,470.841 545.52,470.758 544.348,469.92 543.343,469.166 542.254,469.166 541.584,469.166 530.529,472.516 L523.829,472.516 523.829,470.841 519.641,470.841 Q514.281,473.773 508.754,473.773 505.404,473.354 504.566,473.354 L504.566,471.26 Q503.812,471.093 500.127,472.265 495.354,473.689 492.841,474.191 L489.072,474.191 489.072,472.097 Q485.806,472.684 482.372,475.531 479.357,477.96 476.343,477.96 475.756,477.96 474.919,477.792 474.165,477.541 473.997,477.541 L473.997,475.531 Q475.369,470.171 479.902,463.094 481.451,460.662 483.377,458.028 493.427,444.125 504.65,439.519 522.74,432.149 549.037,432.4 557.245,432.484 572.069,437.258 588.986,442.701 593.844,448.731 597.445,453.17 601.884,458.279 604.313,461.21 603.056,461.294 M604.187,468.036 Q604.249,468.042 604.313,468.036 606.845,467.476 612.269,467.156 616.205,466.989 618.634,465.397 619.974,464.56 621.9,462.969 622.654,462.55 619.555,467.91 618.131,470.339 616.959,472.684 616.242,474.092 615.661,475.448 615.522,475.727 615.409,475.992 615.165,476.514 614.949,477.039 614.818,477.334 614.698,477.625 M617.713,478.881 Q621.433,478.652 627.721,481.352 635.196,484.518 646.271,491.779 655.567,497.809 675.5,512.8 682.284,517.909 717.543,539.851 749.368,560.37 749.2,564.725 749.033,569.164 746.101,571.844 742.5,574.524 740.825,576.45 737.308,582.564 734.376,587.505 728.598,597.136 721.563,603.25 712.099,611.458 682.703,634.656 652.218,658.609 647.863,661.038 647.429,661.321 647.025,661.582 642.151,664.744 639.99,665.979 636.137,668.24 632.787,667.738 M616.959,472.684 Q615.654,474.114 614.572,474.945 613.478,475.742 612.604,475.95 609.421,476.201 605.569,476.787 600.627,477.541 597.948,479.384 594.346,482.482 590.912,485.162 586.641,488.512 583.961,490.104 L582.119,491.025 Q582.522,487.33 584.254,483.948 M578.685,481.729 L579.522,481.729 M584.254,483.948 Q587.506,477.504 595.519,472.181 600.125,469.083 604.061,468.078 604.123,468.064 604.187,468.036 M614.698,477.625 Q614.654,477.731 614.614,477.834 613.706,480.111 613.106,482.231 611.515,487.926 609.002,496.636 608.946,496.789 608.877,496.929 606.54,502.984 601.8,505.681 591.834,511.376 586.306,514.056 M590.075,522.431 Q589.656,528.545 591.583,569.499 591.653,571.01 591.708,572.472 593.229,604.431 593.425,614.137 593.423,614.201 593.425,614.263 593.453,616.466 593.425,617.488 593.09,630.636 595.519,651.406 595.854,654.338 600.46,651.909 605.066,649.396 604.731,647.637 604.564,646.381 606.49,647.051 608.081,647.637 608.5,648.056 608.584,648.14 614.781,626.7 L619.806,635.075 Q619.89,635.159 622.738,616.65 L627.762,618.744 Q627.86,618.843 627.218,609.992 627.213,609.93 627.218,609.866 626.222,596.195 623.491,561.459 621.835,540.233 620.602,526.284 618.982,507.638 618.131,501.996 617.893,500.351 617.713,499.819 M641.833,604.883 L642.838,603.92 Q649.621,597.555 656.489,592.279 678.599,575.277 693.506,574.775 676.924,570.755 656.656,544.96 639.069,519.5 636.137,518.244 632.871,516.904 628.516,521.091 623.575,526.033 621.9,526.2 M527.681,519.5 Q528.658,519.657 530.696,519.751 533.021,519.835 536.726,519.835 543.259,519.751 546.106,519.5 551.382,518.997 552.053,518.83 555.402,517.909 555.738,515.313 M576.675,586.5 Q577.512,591.944 579.439,599.816 581.784,609.28 583.794,614.137 M483.294,583.988 Q483.294,584.071 483.629,592.614 483.88,598.728 486.225,602.831 486.979,604.148 488.109,605.428 491.54,609.258 498.452,612.714 508,617.571 517.213,617.906 L520.604,618.158 520.73,618.158 Q529.608,618.493 532.287,618.325 536.894,617.99 542.338,616.231 546.358,614.975 557.161,605.26 564.839,598.285 572.99,589.766 573.096,589.664 573.199,589.557 573.263,589.497 573.325,589.431 573.41,589.351 573.493,589.264 574.779,587.899 576.089,586.5 576.174,586.41 576.256,586.333 576.29,586.284 576.34,586.249 576.353,586.2 576.382,586.165 586.243,575.651 587.563,572.681 M520.563,618.744 Q519.809,622.345 518.385,630.553 516.961,637.671 514.7,641.356 M637.394,609.113 L641.833,604.883 M628.181,675.694 Q628.098,675.861 619.639,697.887 613.609,713.549 611.431,722.594 608.751,733.565 606.406,766.228 604.061,798.053 605.15,805.088 M556.91,718.741 Q557.412,720.584 559.088,721.086 559.59,721.254 560.93,721.254 563.108,721.254 563.945,720.249 564.28,719.914 565.62,716.815 M523.41,706.598 Q523.242,721.84 524.331,724.185 526.09,728.373 535.973,728.373 540.746,728.373 541.165,728.289 541.667,728.205 543.51,727.116 M524.666,758.104 Q523.829,760.616 523.829,763.38 523.829,767.986 527.514,768.238 529.943,768.321 537.647,768.154 M521.735,792.86 Q526.006,795.791 528.77,796.461 530.78,796.88 534.297,796.21 M564.531,911.031 Q558.25,913.963 541.416,917.145 524.415,920.328 506.325,921.919 490.664,923.343 453.814,922.589 426.009,922.086 410.012,921.081 397.701,920.328 372.744,917.731 366.546,917.061 361.94,918.066 358.674,918.82 357.669,918.15 M478.269,462.131 Q475.086,460.205 471.317,458.195 463.78,454.259 461.519,454.594 459.09,454.929 461.1,466.905 462.775,477.122 464.45,481.394 M468.637,492.7 Q469.307,495.464 471.066,500.991 472.071,505.43 469.475,507.356 466.277,509.74 463.236,511.963 L463.194,512.004 Q417.498,545.935 411.687,547.975 406.579,549.483 405.323,549.901 403.564,550.571 403.312,552.162 402.894,555.429 402.726,566.651 402.475,579.549 403.312,582.313 406.16,593.703 428.102,626.114 449.626,657.855 462.356,670.25 M470.312,521.594 Q472.909,522.934 478.101,523.604 478.312,523.636 478.52,523.646 483.421,524.347 488.319,524.106 491.417,523.939 498.62,522.766 504.482,521.761 506.325,522.012 M469.894,543.369 Q468.889,545.044 458.085,555.848 448.286,565.646 445.606,568.075 M490.329,562.966 Q494.097,562.966 498.285,562.129 L514.616,562.129 Q509.591,567.489 506.744,570.336 501.468,575.529 500.211,575.529 497.95,575.529 494.6,570.839 491.166,565.479 489.91,564.223 M436.394,563.469 Q437.831,566.941 440.916,571.341 440.95,571.39 441,571.425 448.678,582.436 466.544,599.23 474.843,607.024 480.949,612.965 495.077,626.67 497.531,630.469 M469.475,693.7 Q468.889,707.016 471.569,713.381 473.244,717.234 478.352,721.589 483.629,725.86 488.319,727.2 M483.713,734.738 Q483.796,737.334 483.377,748.054 483.21,758.104 484.55,760.7 486.141,763.799 490.077,766.395 493.93,768.908 496.275,768.656 M489.575,772.006 Q489.659,774.77 489.659,779.041 489.826,782.224 491.25,784.15 491.417,784.401 495.94,787.5 498.955,789.594 498.787,793.363 498.62,796.21 496.861,803.245 495.354,809.108 495.856,810.95 M475.338,823.094 Q455.74,819.493 432.039,815.808 384.72,808.521 364.871,808.521 351.639,808.521 336.564,805.757 324.671,803.58 322.159,804.334 317.804,805.674 313.7,812.541 309.596,819.493 309.931,825.188 310.182,829.04 311.522,839.257 312.611,848.386 311.606,851.988 M474.919,847.381 Q467.214,848.638 431.704,849.391 393.179,850.229 386.981,850.731 380.114,851.318 358.255,854.835 338.406,858.017 330.45,858.269 320.986,858.604 312.611,857.431 308.256,856.845 301.975,855.338 298.709,854.584 295.359,856.845 293.6,858.101 289.412,862.456 284.639,867.398 288.994,877.95 289.831,880.044 288.407,892.02 286.816,904.08 287.737,906.425 L290.669,913.544 Q293.935,922.505 295.275,931.969 M354.319,906.425 Q355.491,910.194 357.669,920.998 360.014,932.555 359.762,934.9" test="Avatar Man"/>
      <path id="Layer2_0_2_STROKES" stroke="#FF0" stroke-width="1.675" stroke-linejoin="round" stroke-linecap="round" fill="none" d="M530.529,522.766 Q529.691,527.456 531.366,530.89 533.125,534.491 536.391,534.491 537.731,534.491 539.574,533.486 541.667,532.314 542.254,530.723 M478.185,526.535 Q477.347,532.398 477.347,532.816 477.347,534.52 478.604,536.334 479.272,537.282 480.279,538.26 483.377,541.191 486.56,541.191 488.235,541.191 489.324,539.516 489.994,538.595 491.166,536.585" test="Avatar Man"/>
      <path id="Layer2_0_3_STROKES" stroke="#FFF" stroke-width="1.675" stroke-linejoin="round" stroke-linecap="round" fill="none" d="M559.841,568.41 Q565.453,570.671 565.704,574.44 565.72,574.678 565.746,574.943 565.741,575.006 565.746,575.068 L565.746,575.194 Q565.777,577.373 565.285,581.391 M552.304,583.485 Q557.823,582.168 561.181,578.125 562.307,576.772 563.191,575.11" test="Avatar Man"/>
      <path id="Layer2_0_4_STROKES" stroke="#F90" stroke-width="1.675" stroke-linejoin="round" stroke-linecap="round" fill="none" d="M495.437,813.463 Q497.196,813.295 512.522,819.576 531.618,825.774 551.55,825.606 570.729,825.439 587.646,820.581 601.884,816.478 603.056,816.813 608.249,818.152 612.353,827.365 617.545,838.839 614.781,853.663 611.348,872.339 602.554,886.074 592.252,902.07 577.094,906.844 L565.201,910.529 Q565.034,910.529 566.206,909.272 567.714,907.598 566.206,906.425 559.004,897.129 552.639,889.173 540.16,873.511 531.869,869.994 519.222,864.634 506.827,858.353 491.836,850.564 488.737,846.963 485.89,843.613 485.304,833.814 485.136,823.68 484.969,821.838 484.718,819.325 487.732,817.315 489.407,816.142 495.437,813.463Z" test="Avatar Man"/>
    </g>
    <g id="Avatar-Lady">
      <path fill="#000" stroke="none" d="M251.593,761.676 Q247.881,761.211 244.763,761.434 236.621,762.516 233.169,762.866 227.527,763.439 221.394,761.68 217.746,760.944 212.479,758.502 202.029,753.608 192.441,744.629 182.972,735.763 176.073,725.024 L174.408,726.214 Q174.628,732.571 172.411,747.598 170.775,759.021 171.195,767.458 171.269,769.029 171.418,770.498 171.726,773.529 173.888,788.111 176.025,809.161 174.277,817.08 173.115,822.387 171.338,828.352 170.343,832.792 170.959,838.854 171.302,842.23 172.486,846.355 L172.495,846.439 Q173.586,850.255 175.379,854.738 179.048,864.063 179.535,868.863 179.792,871.389 179.114,873.925 178.741,875.281 178.216,875.972 L179.784,877.174 Q180.016,879.09 180.104,882.841 180.113,883.029 180.138,883.178 180.265,888.36 180.168,896.871 L180.176,896.955 Q180.144,900.36 180.069,904.282 L183.761,906.289 Q186.017,902.439 191.844,894.579 200.005,883.628 201.911,879.776 L202.246,878.892 Q205.49,874.819 207.971,866.571 210.784,855.737 212.811,848.896 213.252,847.376 213.615,845.922 213.816,845.403 213.933,844.868 214.014,844.755 213.992,844.607 214.064,844.542 214.059,844.43 L214.059,844.43 Q218.071,830.798 220.653,822.239 225.981,804.344 229.152,796.195 230.609,792.396 232.702,788.434 233.535,786.832 234.415,785.197 L234.634,784.835 234.709,784.742 Q236.998,780.939 239.793,776.995 246.263,767.831 251.377,763.739 L251.593,761.676 M216.022,613.271 L214.184,601.038 213.763,601.08 Q204.332,602.038 198.835,603.192 187.765,605.592 179.224,610.287 171.021,614.948 163.654,621.991 160.863,624.628 158.172,627.482 158.174,627.522 158.096,627.575 157.909,627.808 157.634,628.047 153.666,632.513 150.002,637.499 143.716,645.963 141.539,654.691 139.355,663.335 139.386,672.859 L139.281,676.017 Q141.98,676.106 145.261,676.261 150.651,676.564 158.43,680.283 158.832,680.496 164.018,683.374 164.067,683.386 164.102,683.365 165.862,684.396 168.164,685.675 165.862,684.396 164.102,683.365 164.067,683.386 164.018,683.374 158.832,680.496 158.43,680.283 150.651,676.564 145.261,676.261 141.98,676.106 139.281,676.017 L137.724,687.49 Q139.477,687.698 141.346,687.973 155.497,689.938 160.86,689.139 155.497,689.938 141.346,687.973 139.477,687.698 137.724,687.49 137.551,687.461 137.379,687.44 125.644,685.945 119.365,686.802 L115.263,691.642 Q117.587,693.628 122.767,697.685 129.657,703.043 133.92,705.315 134.745,705.706 135.437,706.012 141.319,708.647 147.878,707.896 152.669,707.324 159.626,707.979 165.117,708.442 166.741,707.682 L172.191,708.574 170.964,715.76 175.963,724.78 Q176.051,724.917 176.073,725.024 182.972,735.763 192.441,744.629 202.029,753.608 212.479,758.502 217.746,760.944 221.394,761.68 227.527,763.439 233.169,762.866 236.621,762.516 244.763,761.434 247.881,761.211 251.593,761.676 L251.677,761.667 Q254.58,762.097 257.843,762.913 267.784,765.306 270.707,765.605 276.99,766.328 280.499,764.865 282.124,764.105 286.363,760.612 288.953,758.478 290.297,750.77 291.689,741.016 292.767,735.717 293.979,730.065 299.528,718.527 300.259,717 300.93,715.578 305.476,705.907 307.123,701.168 307.304,700.656 307.45,700.199 309.956,692.203 306.699,682.751 304.17,675.437 299.784,670.778 L293.38,663.007 Q292.872,663.412 292.177,663.724 286.95,665.871 286.63,660.204 L281.861,658.477 266.508,663.098 Q266.629,663.518 266.762,663.923 266.516,663.685 266.205,663.469 263.456,660.863 259.326,658.553 250.232,653.607 242.538,655.75 235.097,657.866 222.899,666.761 211.241,675.836 205.344,679.858 204.556,680.47 203.838,680.946 199.859,683.647 185.531,692.503 184.093,693.398 182.805,694.141 179.081,696.554 176.739,698.075 174.276,699.847 173.51,700.614 174.276,699.847 176.739,698.075 179.081,696.554 182.805,694.141 184.093,693.398 185.531,692.503 199.859,683.647 203.838,680.946 204.556,680.47 205.344,679.858 211.241,675.836 222.899,666.761 235.097,657.866 242.538,655.75 250.232,653.607 259.326,658.553 263.456,660.863 266.205,663.469 L266.508,663.098 Q266.443,662.894 266.381,662.686 265.355,659.404 264.467,655.564 262.457,646.666 263.361,643.002 264.081,640.036 270.854,636.371 276.887,632.951 276.278,631.141 274.595,626.293 266.466,619.122 L258.692,612.936 Q246.457,622.871 235.293,632.156 223.617,641.977 213.14,651.079 195.513,666.82 189.079,672.152 181.54,678.411 175.368,682.051 173.319,683.305 171.421,684.238 173.319,683.305 175.368,682.051 181.54,678.411 189.079,672.152 195.513,666.82 213.14,651.079 223.617,641.977 235.293,632.156 L229.092,624.704 Q228.232,623.77 223.088,619.189 217.48,614.229 216.022,613.271 M252.551,672.257 Q251.244,671.114 247.226,670.926 244.182,670.784 235.538,676.451 232.766,678.308 229.422,680.73 215.635,690.722 213.277,690.962 215.635,690.722 229.422,680.73 232.766,678.308 235.538,676.451 244.182,670.784 247.226,670.926 251.244,671.114 252.551,672.257 253.858,673.4 258.055,675.356 253.858,673.4 252.551,672.257 M248.556,686.529 Q250.43,684.042 250.276,682.526 250.233,682.105 247.914,680.214 250.233,682.105 250.276,682.526 250.43,684.042 248.556,686.529 246.539,689.286 244.434,689.499 238.287,690.123 237.842,685.745 237.774,685.071 237.833,684.81 238.034,684.279 239.159,681.953 238.034,684.279 237.833,684.81 237.774,685.071 237.842,685.745 238.287,690.123 244.434,689.499 246.539,689.286 248.556,686.529 M235.265,740.791 Q234.953,741.639 234.418,742.493 232.964,744.937 232.022,745.714 232.964,744.937 234.418,742.493 234.953,741.639 235.265,740.791 236.402,738.584 236.219,736.781 L235.677,734.794 236.219,736.781 Q236.402,738.584 235.265,740.791 M273.945,707.855 Q276.077,707.638 278.801,706.256 281.753,704.865 285.364,702.187 290.514,698.285 291.62,695.937 292.05,695.151 291.988,694.538 291.92,693.865 290.005,691.762 288.174,689.651 287.475,689.467 288.174,689.651 290.005,691.762 291.92,693.865 291.988,694.538 292.05,695.151 291.62,695.937 290.514,698.285 285.364,702.187 281.753,704.865 278.801,706.256 276.077,707.638 273.945,707.855 270.661,708.188 268.232,706.053 264.395,702.614 264.126,702.472 264.395,702.614 268.232,706.053 270.661,708.188 273.945,707.855 M293.553,709.947 Q293.484,709.273 292.363,708.281 293.484,709.273 293.553,709.947 293.664,711.041 293.337,712.01 293.01,712.979 292.245,713.823 290.631,715.518 288.189,715.766 287.263,715.86 285.249,715.299 283.32,714.729 282.055,714.007 283.32,714.729 285.249,715.299 287.263,715.86 288.189,715.766 290.631,715.518 292.245,713.823 293.01,712.979 293.337,712.01 293.664,711.041 293.553,709.947 M256.222,743.597 Q259.901,742.968 263.664,742.33 259.901,742.968 256.222,743.597 246.188,746.147 237.069,741.798 246.188,746.147 256.222,743.597 M191.057,643.878 Q186.731,639.809 180.345,638.076 174.043,636.334 168.731,637.639 174.043,636.334 180.345,638.076 186.731,639.809 191.057,643.878Z" test="Avatar Lady" stroke-width="1.693"/>
      <path id="Layer1_0_1_STROKES" stroke="#009EFF" stroke-width="1.693" stroke-linejoin="round" stroke-linecap="round" fill="none" d="M281.861,658.477 Q280.449,654.622 283.41,652.79 286.279,650.883 289.048,649.666 M256.656,608.804 Q256.832,608.021 256.789,607.6 256.703,606.758 253.378,601.651 249.453,595.67 248.828,594.542 246.531,590.352 241.957,589.711 237.283,589.76 235.606,589.164 236.071,590.393 236.49,594.519 L236.938,600.599 Q236.694,600.708 234.773,600.223 232.684,599.755 231.757,599.849 228.474,600.182 226.688,600.193 222.427,600.115 217.712,600.594 L214.184,601.038 M216.022,613.271 Q217.48,614.229 223.088,619.189 228.232,623.77 229.092,624.704 M235.606,589.164 Q235.594,589.081 235.514,589.089 L235.488,588.836 Q235.587,588.995 235.606,589.164Z M213.763,601.08 Q213.746,600.912 213.83,600.903 214.008,601.05 214.184,601.038 L213.763,601.08 Q204.332,602.038 198.835,603.192 187.765,605.592 179.224,610.287 171.021,614.948 163.654,621.991 160.863,624.628 158.214,627.478 158.174,627.522 158.139,627.57 157.909,627.808 157.676,628.043 153.666,632.513 150.002,637.499 143.716,645.963 141.539,654.691 139.355,663.335 139.386,672.859 M139.286,676.06 Q141.98,676.106 145.261,676.261 150.651,676.564 158.43,680.283 158.832,680.496 164.018,683.374 164.067,683.386 164.106,683.407 165.862,684.396 168.164,685.675 M258.055,675.356 Q253.858,673.4 252.551,672.257 251.244,671.114 247.226,670.926 244.182,670.784 235.542,676.494 232.766,678.308 229.422,680.73 215.635,690.722 213.277,690.962 M264.126,702.472 Q264.395,702.614 268.232,706.053 270.661,708.188 273.945,707.855 276.077,707.638 278.848,706.293 281.753,704.865 285.364,702.187 290.514,698.285 291.662,695.933 292.05,695.151 291.988,694.538 291.92,693.865 290.005,691.762 288.174,689.651 287.475,689.467 M299.784,670.778 Q304.17,675.437 306.699,682.751 309.956,692.203 307.45,700.199 307.304,700.656 307.123,701.168 305.476,705.907 300.93,715.578 300.259,717 299.528,718.527 293.979,730.065 292.767,735.717 291.689,741.016 290.297,750.77 288.953,758.478 286.363,760.612 282.124,764.105 280.499,764.865 276.99,766.328 270.707,765.605 267.784,765.306 257.843,762.913 254.58,762.097 251.681,761.709 L251.597,761.718 M251.377,763.739 Q246.263,767.831 239.793,776.995 236.998,780.939 234.752,784.738 L234.676,784.831 234.458,785.193 Q233.535,786.832 232.702,788.434 230.609,792.396 229.152,796.195 225.981,804.344 220.653,822.239 218.071,830.798 214.101,844.426 L214.063,844.472 Q214.064,844.542 214.034,844.603 214.014,844.755 213.98,844.906 213.816,845.403 213.657,845.917 213.252,847.376 212.811,848.896 210.784,855.737 207.971,866.571 205.49,874.819 202.246,878.892 M201.911,879.776 Q200.005,883.628 191.844,894.579 186.017,902.439 183.765,906.331 183.055,907.593 182.703,908.438 M282.055,714.007 Q283.32,714.729 285.249,715.299 287.263,715.86 288.189,715.766 290.631,715.518 292.245,713.823 293.01,712.979 293.337,712.01 293.664,711.041 293.553,709.947 293.484,709.273 292.363,708.281 M251.597,761.718 Q247.881,761.211 244.763,761.434 236.621,762.516 233.169,762.866 227.527,763.439 221.394,761.68 217.746,760.944 212.479,758.502 202.029,753.608 192.441,744.629 182.972,735.763 176.12,725.062 M174.408,726.214 Q174.628,732.571 172.411,747.598 170.775,759.021 171.195,767.458 171.269,769.029 171.418,770.498 171.726,773.529 173.888,788.111 176.025,809.161 174.277,817.08 173.115,822.387 171.338,828.352 170.343,832.792 170.959,838.854 171.302,842.23 172.49,846.397 L172.495,846.439 Q173.586,850.255 175.379,854.738 179.048,864.063 179.535,868.863 179.792,871.389 179.114,873.925 178.741,875.281 178.22,876.015 M179.784,877.174 Q180.016,879.09 180.108,882.883 180.113,883.029 180.138,883.178 180.265,888.36 180.172,896.913 L180.176,896.955 Q180.144,900.36 180.069,904.282 M230.124,798.223 L230.106,803.074 Q230.191,803.916 231.123,807.224 232.054,810.532 232.14,811.374 232.225,812.216 233.53,817.528 234.751,822.849 234.836,823.691 235.555,830.763 228.292,861.445 220.945,892.135 221.586,898.45 222.21,904.597 232.951,918.223 241.347,928.854 251.653,939.037 259.117,946.36 278.271,981.675 278.382,982.77 279.081,982.954 279.688,983.063 279.712,982.465 M194.641,938.871 Q196.865,939.836 208.897,949.418 221.781,959.849 222.029,962.291 222.337,965.322 244.606,978.544 266.875,991.765 267.217,995.133 267.32,996.143 267.648,996.025 267.976,995.906 267.993,996.075 L268.607,995.417 M191.057,643.878 Q186.731,639.809 180.345,638.076 174.043,636.334 168.731,637.639 M139.286,676.06 Q139.203,676.078 139.117,676.077 139.03,676.075 138.949,676.094 134.854,676.008 132.157,676.23 124.899,676.797 119.875,679.264 113.64,682.364 112.933,682.946 111.756,683.917 112.079,686.266 112.504,688.775 113.947,690.415 114.343,690.813 115.073,691.449 115.165,691.521 115.258,691.6 L115.305,691.638 M119.365,686.802 Q125.644,685.945 137.379,687.44 137.551,687.461 137.724,687.49 M115.305,691.638 Q117.587,693.628 122.767,697.685 129.657,703.043 133.962,705.311 134.745,705.706 135.437,706.012 141.319,708.647 147.878,707.896 152.669,707.324 159.626,707.979 165.117,708.442 166.741,707.682 M170.964,715.76 L175.963,724.78 Q176.051,724.917 176.12,725.062 M130.788,711.333 Q128.326,714.73 127.688,732.744 127.414,740.939 127.358,742.901 127.372,746.387 127.765,750.26 128.244,754.976 131.249,765.304 134.17,775.641 134.769,781.535 134.831,782.148 134.897,782.798 135.114,785.607 135.109,789.071 135.112,794.75 134.527,802.189 134.117,807.404 133.42,813.487 130.985,834.747 132.729,851.923 133.011,854.702 135.189,863.583 137.316,871.959 137.31,873.576 M137.724,687.49 Q139.477,687.698 141.346,687.973 155.497,689.938 160.86,689.139 M152.877,727.805 L153.259,729.892 Q153.456,731.829 152.723,737.178 151.998,742.611 152.275,747.006 152.518,751.915 153.356,760.167 153.45,761.093 154.086,764.006 154.73,767.003 154.842,768.098 154.848,768.158 154.854,768.224 155.069,770.489 154.919,774.725 154.834,779.753 154.205,781.093 153.541,782.096 152.357,784.683 151.514,786.427 151.12,787.573 150.726,788.719 150.781,789.266 M156.881,824.206 Q156.95,824.879 156.64,831.886 156.247,838.902 156.349,839.912 156.537,841.765 158.575,846.747 159.56,849.262 160.084,850.719 160.571,852.162 160.613,852.58 160.904,855.442 159.001,860.995 157.29,865.933 155.786,867.872 M134.897,782.798 Q130.158,783.875 125.156,789.912 120.516,795.453 119.674,801.272 119.433,802.969 119.511,804.692 119.722,810.115 121.307,866.779 123.017,922.155 123.531,928.058 123.933,932.015 124.036,938.895 124.061,939.905 124.103,940.802 L124.111,940.887 Q124.317,943.766 124.872,945.446 125.362,946.927 165.353,994.758 205.039,1042.109 205.465,1045.469 M117.619,801.141 Q109.955,806.087 102.223,810.36 91.183,816.415 84.827,817.486 71.549,819.089 56.022,820.326 25.043,822.706 13.882,820.862 M178.22,876.015 Q177.737,876.702 177.105,876.766 M180.069,904.282 L180.074,904.324 Q180.059,906.274 180.017,908.371 179.79,919.572 179.316,934.558 179.245,938.053 189.939,953.725 203.114,972.889 206.096,978.796 226.453,1019.263 228.781,1037.997 M28.892,921.76 Q35.57,922.188 52.419,926.431 70.76,931.119 80.914,935.618 94.718,941.702 98.298,942.614 105.729,944.582 114.972,942.623 118.719,941.817 121.858,940.903" test="Avatar Lady"/>
      <path id="Layer1_0_2_STROKES" stroke="#FFBC00" stroke-width="1.693" stroke-linejoin="round" stroke-linecap="round" fill="none" d="M235.335,632.151 Q246.457,622.871 258.692,612.936 L266.466,619.122 Q274.595,626.293 276.278,631.141 276.887,632.951 270.854,636.371 264.081,640.036 263.361,643.002 262.457,646.666 264.467,655.564 265.355,659.404 266.381,662.686 266.443,662.894 266.508,663.098 M171.421,684.238 Q173.319,683.305 175.372,682.093 181.54,678.411 189.079,672.152 195.513,666.82 213.14,651.079 223.617,641.977 235.335,632.151 M266.247,663.465 Q266.516,663.685 266.762,663.923 266.629,663.518 266.508,663.098 M266.247,663.465 Q263.456,660.863 259.326,658.553 250.232,653.607 242.538,655.75 235.097,657.866 222.899,666.761 211.241,675.836 205.39,679.895 204.556,680.47 203.838,680.946 199.859,683.647 185.531,692.503 184.093,693.398 182.809,694.183 179.081,696.554 176.786,698.112 174.276,699.847 173.51,700.614" test="Avatar Lady"/>
      <path id="Layer1_0_3_STROKES" stroke="#FF0" stroke-width="1.693" stroke-linejoin="round" stroke-linecap="round" fill="none" d="M286.63,660.204 Q286.95,665.871 292.177,663.724 292.872,663.412 293.422,663.003 295.343,661.514 295.327,658.726 295.289,655.837 292.433,655.362 M239.159,681.953 Q238.034,684.279 237.833,684.81 237.774,685.071 237.842,685.745 238.287,690.123 244.434,689.499 246.539,689.286 248.556,686.529 250.43,684.042 250.276,682.526 250.233,682.105 247.914,680.214" test="Avatar Lady"/>
      <path id="Layer1_0_4_STROKES" stroke="#FFF" stroke-width="1.693" stroke-linejoin="round" stroke-linecap="round" fill="none" d="M235.677,734.794 L236.219,736.781 Q236.402,738.584 235.312,740.828 234.953,741.639 234.418,742.493 232.964,744.937 232.022,745.714 M237.069,741.798 Q246.188,746.147 256.222,743.597 259.901,742.968 263.664,742.33" test="Avatar Lady"/>
    </g>
  </g>
</svg>