<?xml version="1.0" encoding="utf-8"?>
<svg id="EdithAnim13" image-rendering="inherit" baseProfile="basic" version="1.1" x="0px" y="0px" width="800" height="600" xmlns="http://www.w3.org/2000/svg" xmlns:xlink="http://www.w3.org/1999/xlink">
  <g id="22_Avatarf92r1" overflow="visible">
    <g id="Avatar-Manf0r1">
      <g id="Tailf0r1">
        <path id="Layer3_0_1_STROKES" stroke="#009EFF" stroke-width="2.307" stroke-linejoin="round" stroke-linecap="round" fill="none" d="M649.494,602.977 Q648.333,586.026 647.695,569.066 647.123,552.62 641.784,537.085 635.916,520.166 619.556,512.466 599.675,503.189 596.791,523.924 596.371,526.945 598.345,529.597 603.014,535.969 609.653,540.049 616.595,537.516 621.814,542.304 628.097,548.117 630.861,556.832 637.32,577.397 642.464,598.134 643.918,603.936 642.94,609.822" test="Tail_2.3242325232423263e+312.3242325232423263e+31_2.3242325232423263e+312.3242325232423263e+31_2.3242325232423263e+312.3242325232423263e+31_2.3242325232423263e+312.3242325232423263e+31_2.3242325232423263e+312.3242325232423263e+31_2.3242325232423263e+312.3242325232423263e+31_2.3242325232423263e+312.3242325232423263e+31_2.3242325232423263e+312.3242325232423263e+31_2.3242325232423263e+312.3242325232423263e+31_2.3242325232423263e+312.3242325232423263e+31_2.3242325232423263e+312.3242325232423263e+31_2.3242325232423263e+312.3242325232423263e+31_2.3242325232423263e+312.3242325232423263e+31_1"/>
      </g>
      <path fill="#000" stroke="none" d="M611.115,516.737 Q607.006,507.513 601.808,506.172 600.634,505.836 586.379,509.945 569.442,514.808 550.24,514.976 530.284,515.143 511.166,508.939 495.821,502.65 494.061,502.818 488.023,505.501 486.346,506.675 483.328,508.687 483.579,511.203 483.747,513.047 483.915,523.193 484.502,533.004 487.353,536.358 490.455,539.963 505.464,547.761 517.874,554.05 530.535,559.416 538.836,562.938 551.33,578.618 557.703,586.584 564.914,595.891 566.423,597.065 564.914,598.742 563.74,600 563.908,600 L575.814,596.31 Q590.991,591.531 601.305,575.515 610.109,561.764 613.547,543.066 616.314,528.224 611.115,516.737 M616.482,167.837 L613.463,166.579 Q613.419,166.685 613.379,166.747 612.47,169.068 611.87,171.191 610.277,176.893 607.761,185.613 607.704,185.766 607.593,185.865 605.296,191.969 600.55,194.669 590.572,200.371 585.038,203.054 L588.811,211.439 Q588.392,217.56 590.32,258.562 590.391,260.075 590.404,261.497 591.969,293.536 592.165,303.255 592.163,303.318 592.165,303.338 592.194,305.586 592.165,306.609 591.83,319.773 594.261,340.568 594.597,343.503 599.208,341.071 603.82,338.555 603.485,336.795 603.317,335.537 605.246,336.208 606.839,336.795 607.258,337.214 607.342,337.298 613.547,315.832 L618.578,324.217 Q618.662,324.301 621.513,305.77 L626.544,307.866 Q626.641,307.965 625.957,299.062 625.993,299.042 625.957,298.978 625.001,285.29 622.267,250.513 620.609,229.262 619.332,215.296 617.753,196.627 616.901,190.979 616.663,189.333 616.482,188.799 616.663,189.333 616.901,190.979 617.753,196.627 619.332,215.296 L620.674,215.212 Q622.351,215.044 627.298,210.097 631.658,205.905 634.929,207.246 637.863,208.504 655.472,233.994 675.763,259.82 692.366,263.845 677.44,264.348 655.304,281.37 648.428,286.652 641.637,293.025 L640.63,293.947 Q641.824,306.692 645.745,350.294 L646.668,350.211 Q651.028,347.779 681.549,323.798 710.98,300.571 720.456,292.354 727.499,286.233 733.285,276.59 736.219,271.643 739.741,265.522 741.418,263.593 745.024,260.91 747.958,258.227 748.126,253.783 748.294,249.423 716.431,228.88 681.13,206.911 674.338,201.796 654.382,186.787 645.074,180.75 633.986,173.48 626.46,170.268 620.206,167.607 616.482,167.837 M556.864,162.722 Q559.38,162.303 561.727,161.883 565.501,161.883 565.249,166.495 572.46,165.657 575.311,166.495 578.33,167.418 578.246,170.688 L582.942,172.868 Q586.238,166.458 594.261,161.129 598.873,158.026 602.814,157.02 602.876,157.007 602.898,156.936 L601.808,150.228 Q603.066,150.144 600.634,147.21 596.19,142.095 592.584,137.651 587.721,131.614 570.783,126.163 555.942,121.384 547.725,121.3 521.396,121.048 503.284,128.427 492.048,133.039 481.986,146.958 480.058,149.596 478.464,151.989 473.968,159.116 472.595,164.483 L472.595,166.495 Q472.763,166.495 473.517,166.747 474.356,166.914 474.943,166.914 477.961,166.914 480.98,164.483 484.418,161.632 487.688,161.045 L487.688,163.141 491.461,163.141 Q493.977,162.638 498.756,161.213 502.446,160.039 503.2,160.206 L503.2,162.303 Q504.039,162.303 507.393,162.722 512.927,162.722 518.293,159.787 L522.486,159.787 522.486,161.464 529.194,161.464 Q540.262,158.11 540.933,158.11 542.023,158.11 543.029,158.865 544.203,159.703 546.383,159.787 546.383,161.883 545.964,162.722 L556.864,162.722Z" test="Avatar Man" stroke-width="1.677"/>
      <path id="Layer2_0_1_STROKES" stroke="#009EFF" stroke-width="1.677" stroke-linejoin="round" stroke-linecap="round" fill="none" d="M578.246,170.688 Q578.33,167.418 575.311,166.495 572.46,165.657 565.249,166.495 565.501,161.883 561.727,161.883 559.38,162.303 556.864,162.722 L545.964,162.722 Q546.383,161.883 546.383,159.787 544.203,159.703 543.029,158.865 542.023,158.11 540.933,158.11 540.262,158.11 529.194,161.464 L522.486,161.464 522.486,159.787 518.293,159.787 Q512.927,162.722 507.393,162.722 504.039,162.303 503.2,162.303 L503.2,160.206 Q502.446,160.039 498.756,161.213 493.977,162.638 491.461,163.141 L487.688,163.141 487.688,161.045 Q484.418,161.632 480.98,164.483 477.961,166.914 474.943,166.914 474.356,166.914 473.517,166.747 472.763,166.495 472.595,166.495 L472.595,164.483 Q473.968,159.116 478.506,152.031 480.058,149.596 481.986,146.958 492.048,133.039 503.284,128.427 521.396,121.048 547.725,121.3 555.942,121.384 570.783,126.163 587.721,131.614 592.584,137.651 596.19,142.095 600.634,147.21 603.066,150.144 601.808,150.228 M602.94,156.978 Q603.002,156.985 603.066,156.978 605.601,156.418 611.031,156.098 614.972,155.93 617.404,154.337 618.745,153.498 620.674,151.905 621.429,151.486 618.326,156.852 616.901,159.284 615.727,161.632 615.009,163.042 614.427,164.399 614.288,164.679 614.176,164.944 613.931,165.467 613.714,165.992 613.584,166.287 613.463,166.579 M616.482,167.837 Q620.206,167.607 626.502,170.31 633.986,173.48 645.074,180.75 654.382,186.787 674.338,201.796 681.13,206.911 716.431,228.88 748.294,249.423 748.126,253.783 747.958,258.227 745.024,260.91 741.418,263.593 739.741,265.522 736.219,271.643 733.285,276.59 727.499,286.233 720.456,292.354 710.98,300.571 681.549,323.798 651.028,347.779 646.668,350.211 646.233,350.494 645.829,350.756 640.949,353.922 638.786,355.158 634.929,357.422 631.575,356.919 M615.727,161.632 Q614.42,163.064 613.337,163.896 612.242,164.694 611.367,164.902 608.18,165.154 604.323,165.741 599.376,166.495 596.693,168.34 593.087,171.442 589.65,174.126 585.373,177.48 582.69,179.073 L580.845,179.995 Q581.249,176.296 582.983,172.91 M577.407,170.688 L578.246,170.688 M582.983,172.91 Q586.238,166.458 594.261,161.129 598.873,158.026 602.814,157.02 602.876,157.007 602.94,156.978 M613.463,166.579 Q613.419,166.685 613.379,166.789 612.47,169.068 611.87,171.191 610.277,176.893 607.761,185.613 607.704,185.766 607.635,185.906 605.296,191.969 600.55,194.669 590.572,200.371 585.038,203.054 M588.811,211.439 Q588.392,217.56 590.32,258.562 590.391,260.075 590.446,261.539 591.969,293.536 592.165,303.255 592.163,303.318 592.165,303.38 592.194,305.586 592.165,306.609 591.83,319.773 594.261,340.568 594.597,343.503 599.208,341.071 603.82,338.555 603.485,336.795 603.317,335.537 605.246,336.208 606.839,336.795 607.258,337.214 607.342,337.298 613.547,315.832 L618.578,324.217 Q618.662,324.301 621.513,305.77 L626.544,307.866 Q626.641,307.965 625.998,299.104 625.993,299.042 625.998,298.978 625.001,285.29 622.267,250.513 620.609,229.262 619.374,215.296 617.753,196.627 616.901,190.979 616.663,189.333 616.482,188.799 M640.63,293.989 L641.637,293.025 Q648.428,286.652 655.304,281.37 677.44,264.348 692.366,263.845 675.763,259.82 655.472,233.994 637.863,208.504 634.929,207.246 631.658,205.905 627.298,210.097 622.351,215.044 620.674,215.212 M526.343,208.504 Q527.32,208.662 529.361,208.756 531.689,208.839 535.399,208.839 541.939,208.756 544.79,208.504 550.072,208.001 550.743,207.833 554.097,206.911 554.433,204.312 M575.395,275.584 Q576.234,281.034 578.162,288.916 580.51,298.391 582.522,303.255 M481.902,273.069 Q481.902,273.152 482.238,281.705 482.489,287.826 484.837,291.935 485.592,293.253 486.724,294.534 490.158,298.369 497.079,301.829 506.638,306.692 515.862,307.028 L519.257,307.279 519.383,307.279 Q528.271,307.615 530.955,307.447 535.566,307.112 541.017,305.351 545.041,304.093 555.858,294.366 563.545,287.383 571.706,278.854 571.811,278.752 571.915,278.645 571.979,278.584 572.041,278.519 572.127,278.438 572.209,278.351 573.497,276.984 574.808,275.584 574.894,275.493 574.976,275.416 575.009,275.368 575.06,275.332 575.073,275.284 575.102,275.249 584.974,264.722 586.296,261.749 M519.216,307.866 Q518.461,311.472 517.035,319.689 515.61,326.816 513.346,330.506 M636.186,298.224 L640.63,293.989 M626.963,364.884 Q626.879,365.052 618.41,387.105 612.373,402.784 610.193,411.84 607.51,422.825 605.162,455.526 602.814,487.389 603.904,494.433 M555.606,407.983 Q556.11,409.828 557.787,410.331 558.29,410.499 559.631,410.499 561.811,410.499 562.65,409.492 562.985,409.157 564.327,406.055 M522.066,395.825 Q521.899,411.086 522.989,413.433 524.75,417.626 534.644,417.626 539.423,417.626 539.843,417.542 540.346,417.458 542.19,416.368 M523.324,447.393 Q522.486,449.908 522.486,452.675 522.486,457.287 526.175,457.539 528.607,457.622 536.321,457.455 M520.389,482.19 Q524.666,485.125 527.433,485.796 529.445,486.215 532.967,485.544 M563.237,600.503 Q556.948,603.438 540.094,606.624 523.073,609.81 504.961,611.403 489.281,612.829 452.387,612.074 424.549,611.571 408.534,610.565 396.208,609.81 371.22,607.211 365.015,606.54 360.404,607.546 357.133,608.301 356.127,607.63 M476.871,151.067 Q473.685,149.138 469.912,147.126 462.365,143.185 460.101,143.52 457.67,143.856 459.682,155.846 461.359,166.076 463.036,170.352 M467.229,181.672 Q467.899,184.439 469.66,189.973 470.666,194.417 468.067,196.346 464.866,198.732 461.82,200.958 L461.778,200 Q416.028,234.97 410.211,237.013 405.096,238.522 403.838,238.942 402.077,239.612 401.826,241.206 401.406,244.476 401.239,255.712 400.987,268.624 401.826,271.392 404.676,282.795 426.645,315.245 448.195,347.024 460.94,359.434 M468.906,210.6 Q471.505,211.942 476.704,212.613 476.915,212.645 477.123,212.655 482.03,213.357 486.933,213.116 490.036,212.948 497.247,211.774 503.116,210.768 504.961,211.02 M468.486,232.401 Q467.48,234.078 456.663,244.895 446.853,254.705 444.17,257.137 M488.946,252.022 Q492.719,252.022 496.911,251.184 L513.262,251.184 Q508.231,256.55 505.38,259.401 500.098,264.6 498.84,264.6 496.576,264.6 493.222,259.904 489.784,254.538 488.526,253.28 M434.946,252.525 Q436.385,256.002 439.474,260.407 439.508,260.456 439.558,260.491 447.245,271.516 465.132,288.329 473.442,296.132 479.554,302.081 493.7,315.802 496.157,319.605 M468.067,382.912 Q467.48,396.244 470.163,402.617 471.84,406.474 476.955,410.834 482.238,415.11 486.933,416.452 M482.322,423 Q482.405,426.598 481.986,437.331 481.818,447.393 483.16,449.992 484.753,453.094 488.694,455.694 492.551,458.209 494.899,457.958 M488.191,461.312 Q488.275,464.079 488.275,468.355 488.443,471.541 489.868,473.47 490.036,473.722 494.564,476.824 497.582,478.92 497.415,482.694 497.247,485.544 495.486,492.588 493.977,498.457 494.48,500.302 M473.937,512.46 Q454.316,508.855 430.586,505.165 383.211,497.87 363.338,497.87 350.09,497.87 334.997,495.103 323.09,492.923 320.575,493.678 316.215,495.019 312.106,501.895 307.997,508.855 308.333,514.557 308.584,518.414 309.926,528.643 311.016,537.783 310.01,541.389 M473.517,536.777 Q465.803,538.035 430.251,538.789 391.68,539.628 385.475,540.131 378.599,540.718 356.714,544.239 336.842,547.426 328.876,547.677 319.401,548.013 311.016,546.839 306.656,546.252 300.367,544.743 297.097,543.988 293.743,546.252 291.982,547.51 287.79,551.87 283.01,556.817 287.37,567.382 288.209,569.478 286.783,581.469 285.19,593.543 286.113,595.891 L289.047,603.018 Q292.317,611.99 293.659,621.465 M352.773,595.891 Q353.947,599.664 356.127,610.481 358.475,622.052 358.224,624.4" test="Avatar Man"/>
      <path id="Layer2_0_2_STROKES" stroke="#FF0" stroke-width="1.677" stroke-linejoin="round" stroke-linecap="round" fill="none" d="M529.194,211.774 Q528.355,216.47 530.032,219.908 531.793,223.513 535.063,223.513 536.405,223.513 538.249,222.507 540.346,221.333 540.933,219.74 M476.787,215.547 Q475.949,221.417 475.949,221.836 475.949,223.542 477.207,225.358 477.876,226.307 478.884,227.286 481.986,230.221 485.172,230.221 486.849,230.221 487.939,228.544 488.61,227.622 489.784,225.609" test="Avatar Man"/>
      <path id="Layer2_0_3_STROKES" stroke="#FFF" stroke-width="1.677" stroke-linejoin="round" stroke-linecap="round" fill="none" d="M558.541,257.472 Q564.159,259.736 564.411,263.51 564.427,263.748 564.453,264.013 564.448,264.076 564.453,264.138 L564.453,264.264 Q564.484,266.446 563.991,270.469 M550.995,272.565 Q556.52,271.247 559.883,267.199 561.01,265.844 561.895,264.18" test="Avatar Man"/>
      <path id="Layer2_0_4_STROKES" stroke="#F90" stroke-width="1.677" stroke-linejoin="round" stroke-linecap="round" fill="none" d="M494.061,502.818 Q495.821,502.65 511.166,508.939 530.284,515.143 550.24,514.976 569.442,514.808 586.379,509.945 600.634,505.836 601.808,506.172 607.006,507.513 611.115,516.737 616.314,528.224 613.547,543.066 610.109,561.764 601.305,575.515 590.991,591.531 575.814,596.31 L563.908,600 Q563.74,600 564.914,598.742 566.423,597.065 564.914,595.891 557.703,586.584 551.33,578.618 538.836,562.938 530.535,559.416 517.874,554.05 505.464,547.761 490.455,539.963 487.353,536.358 484.502,533.004 483.915,523.193 483.747,513.047 483.579,511.203 483.328,508.687 486.346,506.675 488.023,505.501 494.061,502.818Z" test="Avatar Man"/>
    </g>
    <g id="Avatar-Lady">
      <path fill="#000" stroke="none" d="M250.983,407.997 Q247.266,407.531 244.144,407.754 235.993,408.836 232.537,409.187 226.889,409.76 220.748,407.998 217.096,407.261 211.824,404.815 201.362,399.914 191.763,390.923 182.285,382.046 175.379,371.293 L173.711,372.484 Q173.931,378.85 171.709,393.894 170.071,405.33 170.49,413.777 170.564,415.35 170.713,416.82 171.021,419.855 173.183,434.455 175.32,455.53 173.569,463.457 172.405,468.771 170.626,474.742 169.629,479.187 170.245,485.257 170.587,488.637 171.773,492.767 L171.781,492.851 Q172.874,496.671 174.668,501.16 178.34,510.497 178.828,515.302 179.084,517.831 178.405,520.37 178.032,521.727 177.506,522.42 L179.076,523.623 Q179.308,525.541 179.395,529.297 179.404,529.485 179.43,529.634 179.556,534.822 179.457,543.343 L179.466,543.427 Q179.433,546.836 179.358,550.763 L183.054,552.773 Q185.313,548.919 191.148,541.05 199.32,530.087 201.228,526.231 L201.564,525.345 Q204.813,521.268 207.297,513.011 210.114,502.164 212.145,495.315 212.587,493.793 212.95,492.338 213.151,491.818 213.269,491.283 213.349,491.17 213.328,491.022 213.399,490.957 213.395,490.845 L213.395,490.845 Q217.414,477.197 219,468.628 225.336,450.712 228.511,442.555 229.97,438.751 232.067,434.785 232.901,433.181 233.782,431.545 L234.001,431.182 234.077,431.089 Q236.368,427.281 239.167,423.334 245.646,414.16 250.766,410.063 L250.983,407.997 M215.387,259.414 L213.549,247.166 213.127,247.209 Q203.686,248.166 198.182,249.321 187.098,251.722 178.547,256.422 170.333,261.088 162.958,268.138 160.163,270.777 157.468,273.635 157.471,273.675 157.392,273.727 157.205,273.961 156.929,274.2 152.956,278.671 149.287,283.662 142.993,292.136 140.813,300.874 138.624,309.527 138.655,319.063 L138.55,322.225 Q141.252,322.314 144.536,322.469 149.932,322.774 157.72,326.498 158.123,326.711 163.314,329.593 163.363,329.605 163.398,329.584 165.16,330.616 167.465,331.897 165.16,330.616 163.398,329.584 163.363,329.605 163.314,329.593 158.123,326.711 157.72,326.498 149.932,322.774 144.536,322.469 141.252,322.314 138.55,322.225 L136.989,333.71 Q138.744,333.919 140.615,334.194 154.782,336.164 160.152,335.364 154.782,336.164 140.615,334.194 138.744,333.919 136.989,333.71 136.816,333.682 136.643,333.66 124.895,332.162 118.608,333.02 L114.501,337.865 Q116.828,339.854 122.013,343.916 128.91,349.281 133.178,351.556 134.005,351.948 134.697,352.254 140.585,354.893 147.152,354.142 151.949,353.57 158.914,354.226 164.412,354.691 166.038,353.93 L171.494,354.824 170.265,362.018 175.269,371.049 Q175.356,371.187 175.379,371.293 182.285,382.046 191.763,390.923 201.362,399.914 211.824,404.815 217.096,407.261 220.748,407.998 226.889,409.76 232.537,409.187 235.993,408.836 244.144,407.754 247.266,407.531 250.983,407.997 L251.067,407.989 Q253.974,408.42 257.24,409.236 267.192,411.634 270.118,411.933 276.409,412.658 279.923,411.194 281.549,410.433 285.793,406.937 288.387,404.8 289.734,397.083 291.128,387.318 292.208,382.013 293.423,376.354 298.98,364.804 299.712,363.275 300.383,361.851 304.936,352.169 306.585,347.425 306.767,346.913 306.913,346.455 309.422,338.45 306.163,328.987 303.632,321.664 299.241,316 L292.831,309.217 Q292.322,309.623 291.626,309.936 286.393,312.085 286.073,306.411 L281.299,304.681 265.927,309.306 Q266.048,309.726 266.181,310.132 265.935,309.893 265.624,309.677 262.872,307.068 258.737,304.755 249.633,299.802 241.93,301.946 234.48,304.064 222.267,312.968 210.594,322.052 204.689,326.078 203.9,326.691 203.182,327.167 199.198,329.871 184.852,338.735 183.411,339.631 182.122,340.375 178.393,342.79 176.049,344.312 173.582,346.087 172.815,346.855 173.582,346.087 176.049,344.312 178.393,342.79 182.122,340.375 183.411,339.631 184.852,338.735 199.198,329.871 203.182,327.167 203.9,326.691 204.689,326.078 210.594,322.052 222.267,312.968 234.48,304.064 241.93,301.946 249.633,299.802 258.737,304.755 262.872,307.068 265.624,309.677 L265.927,309.306 Q265.862,309.101 265.8,308.893 264.773,305.607 263.884,301.763 261.874,292.854 262.779,289.185 263.5,286.216 270.282,282.548 276.322,279.124 275.713,277.313 274.028,272.459 265.89,265.278 L258.108,259.084 Q245.858,269.029 234.679,278.323 222.988,288.155 212.498,297.266 194.849,313.023 188.406,318.361 180.857,324.626 174.677,328.27 172.626,329.525 170.726,330.459 172.626,329.525 174.677,328.27 180.857,324.626 188.406,318.361 194.849,313.023 212.498,297.266 222.988,288.155 234.679,278.323 L228.472,270.862 Q227.611,269.927 222.461,265.339 216.847,260.373 215.387,259.414 M251.952,318.473 Q250.644,317.329 246.622,317.14 243.574,316.998 234.919,322.671 232.144,324.53 228.795,326.954 214.991,336.956 212.63,337.196 214.991,336.956 228.795,326.954 232.144,324.53 234.919,322.671 243.574,316.998 246.622,317.14 250.644,317.329 251.952,318.473 253.261,319.618 257.462,321.577 253.261,319.618 251.952,318.473 M247.951,332.762 Q249.828,330.272 249.674,328.754 249.631,328.333 247.31,326.439 249.631,328.333 249.674,328.754 249.828,330.272 247.951,332.762 245.931,335.521 243.824,335.735 237.67,336.359 237.225,331.976 237.157,331.301 237.216,331.04 237.417,330.508 238.544,328.18 237.417,330.508 237.216,331.04 237.157,331.301 237.225,331.976 237.67,336.359 243.824,335.735 245.931,335.521 247.951,332.762 M234.639,387.086 Q234.326,387.935 233.79,388.79 232.334,391.237 231.391,392.014 232.334,391.237 233.79,388.79 234.326,387.935 234.639,387.086 235.777,384.877 235.594,383.071 L235.052,381.082 235.594,383.071 Q235.777,384.877 234.639,387.086 M273.367,354.116 Q275.502,353.899 278.23,352.515 281.185,351.124 284.8,348.442 289.957,344.536 291.064,342.186 291.496,341.4 291.433,340.786 291.365,340.111 289.448,338.006 287.616,335.893 286.916,335.708 287.616,335.893 289.448,338.006 291.365,340.111 291.433,340.786 291.496,341.4 291.064,342.186 289.957,344.536 284.8,348.442 281.185,351.124 278.23,352.515 275.502,353.899 273.367,354.116 270.08,354.449 267.648,352.311 263.807,348.868 263.537,348.725 263.807,348.868 267.648,352.311 270.08,354.449 273.367,354.116 M292.998,356.213 Q292.93,355.538 291.807,354.545 292.93,355.538 292.998,356.213 293.109,357.309 292.782,358.279 292.454,359.249 291.688,360.093 290.072,361.79 287.627,362.038 286.7,362.132 284.684,361.57 282.753,360 281.487,360.276 282.753,360 284.684,361.57 286.7,362.132 287.627,362.038 290.072,361.79 291.688,360.093 292.454,359.249 292.782,358.279 293.109,357.309 292.998,356.213 M255.619,389.897 Q259.303,389.268 263.071,388.631 259.303,389.268 255.619,389.897 245.573,392.449 236.444,388.095 245.573,392.449 255.619,389.897 M190.39,290.054 Q186.059,285.98 179.666,284.243 173.357,282.499 168.038,283.805 173.357,282.499 179.666,284.243 186.059,285.98 190.39,290.054Z" test="Avatar Lady" stroke-width="1.695"/>
      <path id="Layer1_0_1_STROKES" stroke="#009EFF" stroke-width="1.695" stroke-linejoin="round" stroke-linecap="round" fill="none" d="M281.299,304.681 Q279.885,300.821 282.851,298.988 285.723,297.078 288.495,295.86 M256.07,254.947 Q256.246,254.163 256.203,253.741 256.118,252.898 252.789,247.785 248.86,241.796 248.234,240.667 245.935,236.472 241.356,235.829 236.677,235.878 234.998,235.281 235.464,236.512 235.882,240.642 L236.329,246.729 Q236.085,246.839 234.162,246.353 232.07,245.884 231.143,245.978 227.856,246.311 226.068,246.322 221.802,246.244 217.081,246.722 L213.549,247.166 M215.387,259.414 Q216.847,260.373 222.461,265.339 227.611,269.927 228.472,270.862 M234.998,235.281 Q234.986,235.197 234.905,235.206 L234.88,234.953 Q234.979,235.111 234.998,235.281Z M213.127,247.209 Q213.11,247.04 213.195,247.031 213.373,247.179 213.549,247.166 L213.127,247.209 Q203.686,248.166 198.182,249.321 187.098,251.722 178.547,256.422 170.333,261.088 162.958,268.138 160.163,270.777 157.51,273.63 157.471,273.675 157.435,273.723 157.205,273.961 156.972,274.196 152.956,278.671 149.287,283.662 142.993,292.136 140.813,300.874 138.624,309.527 138.655,319.063 M138.554,322.267 Q141.252,322.314 144.536,322.469 149.932,322.774 157.72,326.498 158.123,326.711 163.314,329.593 163.363,329.605 163.403,329.626 165.16,330.616 167.465,331.897 M257.462,321.577 Q253.261,319.618 251.952,318.473 250.644,317.329 246.622,317.14 243.574,316.998 234.923,322.713 232.144,324.53 228.795,326.954 214.991,336.956 212.63,337.196 M263.537,348.725 Q263.807,348.868 267.648,352.311 270.08,354.449 273.367,354.116 275.502,353.899 278.276,352.553 281.185,351.124 284.8,348.442 289.957,344.536 291.107,342.182 291.496,341.4 291.433,340.786 291.365,340.111 289.448,338.006 287.616,335.893 286.916,335.708 M299.241,316 Q303.632,321.664 306.163,328.987 309.422,338.45 306.913,346.455 306.767,346.913 306.585,347.425 304.936,352.169 300.383,361.851 299.712,363.275 298.98,364.804 293.423,376.354 292.208,382.013 291.128,387.318 289.734,397.083 288.387,404.8 285.793,406.937 281.549,410.433 279.923,411.194 276.409,412.658 270.118,411.933 267.192,411.634 257.24,409.236 253.974,408.42 251.071,408.031 L250.987,408.04 M250.766,410.063 Q245.646,414.16 239.167,423.334 236.368,427.281 234.119,431.085 L234.043,431.178 233.824,431.54 Q232.901,433.181 232.067,434.785 229.97,438.751 228.511,442.555 225.336,450.712 219,468.628 217.414,477.197 213.437,490.84 L213.399,490.887 Q213.399,490.957 213.37,491.018 213.349,491.17 213.315,491.321 213.151,491.818 212.992,492.333 212.587,493.793 212.145,495.315 210.114,502.164 207.297,513.011 204.813,521.268 201.564,525.345 M201.228,526.231 Q199.32,530.087 191.148,541.05 185.313,548.919 183.058,552.815 182.347,554.078 181.995,554.924 M281.487,360.276 Q282.753,360 284.684,361.57 286.7,362.132 287.627,362.038 290.072,361.79 291.688,360.093 292.454,359.249 292.782,358.279 293.109,357.309 292.998,356.213 292.93,355.538 291.807,354.545 M250.987,408.04 Q247.266,407.531 244.144,407.754 235.993,408.836 232.537,409.187 226.889,409.76 220.748,407.998 217.096,407.261 211.824,404.815 201.362,399.914 191.763,390.923 182.285,382.046 175.425,371.331 M173.711,372.484 Q173.931,378.85 171.709,393.894 170.071,405.33 170.49,413.777 170.564,415.35 170.713,416.82 171.021,419.855 173.183,434.455 175.32,455.53 173.569,463.457 172.405,468.771 170.626,474.742 169.629,479.187 170.245,485.257 170.587,488.637 171.777,492.809 L171.781,492.851 Q172.874,496.671 174.668,501.16 178.34,510.497 178.828,515.302 179.084,517.831 178.405,520.37 178.032,521.727 177.51,522.462 M179.076,523.623 Q179.308,525.541 179.4,529.339 179.404,529.485 179.43,529.634 179.556,534.822 179.462,543.385 L179.466,543.427 Q179.433,546.836 179.358,550.763 M229.484,444.585 L229.465,449.442 Q229.551,450.285 230.483,453.597 231.415,456.909 231.501,457.752 231.586,458.595 232.892,463.913 234.114,469.24 234.199,470.083 234.917,477.164 227.642,507.881 220.283,538.606 220.924,544.929 221.548,551.083 232.301,564.726 240.705,575.371 251.022,585.567 258.494,592.9 277.666,628.259 277.777,629.355 278.477,629.539 279.084,629.648 279.109,629.049 M193.942,585.394 Q196.17,586.361 208.215,595.955 221.112,606.4 221.36,608.845 221.668,611.88 243.962,625.119 266.256,638.358 266.598,641.731 266.7,642.742 267.029,642.624 267.358,642.505 267.375,642.674 L267.989,642.015 M190.39,290.054 Q186.059,285.98 179.666,284.243 173.357,282.499 168.038,283.805 M138.554,322.267 Q138.471,322.286 138.385,322.284 138.298,322.283 138.217,322.301 134.116,322.215 131.417,322.437 124.15,323.004 119.12,325.473 112.877,328.576 112.17,329.159 110.991,330.13 111.314,332.482 111.739,334.994 113.184,336.636 113.58,337.035 114.311,337.671 114.403,337.744 114.496,337.823 L114.543,337.861 M118.608,333.02 Q124.895,332.162 136.643,333.66 136.816,333.682 136.989,333.71 M114.543,337.861 Q116.828,339.854 122.013,343.916 128.91,349.281 133.22,351.552 134.005,351.948 134.697,352.254 140.585,354.893 147.152,354.142 151.949,353.57 158.914,354.226 164.412,354.691 166.038,353.93 M170.265,362.018 L175.269,371.049 Q175.356,371.187 175.425,371.331 M130.042,357.581 Q127.576,360.982 126.936,379.017 126.66,387.221 126.604,389.186 126.618,392.676 127.011,396.554 127.49,401.275 130.497,411.616 133.421,421.965 134.019,427.866 134.081,428.48 134.147,429.13 134.364,431.943 134.359,435.411 134.361,441.097 133.774,448.544 133.364,453.765 132.665,459.856 130.224,481.14 131.968,498.337 132.251,501.119 134.43,510.011 136.558,518.397 136.552,520.015 M136.989,333.71 Q138.744,333.919 140.615,334.194 154.782,336.164 160.152,335.364 M152.155,374.075 L152.537,376.165 Q152.734,378.104 151,383.459 151.273,388.898 151.549,393.299 151.792,398.214 152.63,406.475 152.724,407.402 153.361,410.319 154.006,413.319 154.117,414.415 154.123,414.476 154.13,414.542 154.344,416.809 154.194,421.05 154.108,426.084 153.478,427.425 152.813,428.43 151.628,431.02 150.783,432.766 150.388,433.913 149.994,435.061 150.049,435.608 M156.152,470.589 Q156.221,471.264 155.91,478.279 155.515,485.303 155.618,486.314 155.806,488.169 157.845,493.157 158.831,495.675 159.356,497.135 159.843,498.579 159.885,498.997 160.176,501.863 158.27,507.422 156.557,512.365 155.05,514.307 M134.147,429.13 Q129.402,430.208 124.394,436.252 119.748,441.799 118.905,447.625 118.663,449.324 118.741,451.048 118.951,456.477 120.531,513.209 122.237,568.65 122.751,574.559 123.153,578.522 123.255,585.41 123.279,586.421 123.321,587.319 L123.33,587.404 Q123.535,590.287 124.091,591.968 124.582,593.451 164.613,641.343 204.34,688.755 204.767,692.118 M116.847,447.493 Q109.173,452.444 101.431,456.721 90.378,462.782 84.014,463.853 70.72,465.457 55.175,466.693 24.16,469.072 12.986,467.225 M177.51,522.462 Q177.026,523.15 176.394,523.214 M179.358,550.763 L179.363,550.805 Q179.348,552.757 179.305,554.856 179.076,566.07 178.6,581.074 178.529,584.573 189.234,600.265 202.422,619.453 205.406,625.367 225.783,665.884 228.111,684.641 M28.001,568.243 Q34.687,568.672 51.556,572.923 69.917,577.619 80.083,582.123 93.902,588.217 97.486,589.13 104.925,591.101 114.18,589.141 117.931,588.334 121.074,587.419" test="Avatar Lady"/>
      <path id="Layer1_0_2_STROKES" stroke="#FFBC00" stroke-width="1.695" stroke-linejoin="round" stroke-linecap="round" fill="none" d="M234.721,278.319 Q245.858,269.029 258.108,259.084 L265.89,265.278 Q274.028,272.459 275.713,277.313 276.322,279.124 270.282,282.548 263.5,286.216 262.779,289.185 261.874,292.854 263.884,301.763 264.773,305.607 265.8,308.893 265.862,309.101 265.927,309.306 M170.726,330.459 Q172.626,329.525 174.682,328.312 180.857,324.626 188.406,318.361 194.849,313.023 212.498,297.266 222.988,288.155 234.721,278.319 M265.666,309.673 Q265.935,309.893 266.181,310.132 266.048,309.726 265.927,309.306 M265.666,309.673 Q262.872,307.068 258.737,304.755 249.633,299.802 241.93,301.946 234.48,304.064 222.267,312.968 210.594,322.052 204.736,326.115 203.9,326.691 203.182,327.167 199.198,329.871 184.852,338.735 183.411,339.631 182.127,340.417 178.393,342.79 176.095,344.35 173.582,346.087 172.815,346.855" test="Avatar Lady"/>
      <path id="Layer1_0_3_STROKES" stroke="#FF0" stroke-width="1.695" stroke-linejoin="round" stroke-linecap="round" fill="none" d="M286.073,306.411 Q286.393,312.085 291.626,309.936 292.322,309.623 292.873,309.213 294.796,307.723 294.781,304.932 294.743,302.04 291.884,301.563 M238.544,328.18 Q237.417,330.508 237.216,331.04 237.157,331.301 237.225,331.976 237.67,336.359 243.824,335.735 245.931,335.521 247.951,332.762 249.828,330.272 249.674,328.754 249.631,328.333 247.31,326.439" test="Avatar Lady"/>
      <path id="Layer1_0_4_STROKES" stroke="#FFF" stroke-width="1.695" stroke-linejoin="round" stroke-linecap="round" fill="none" d="M235.052,381.082 L235.594,383.071 Q235.777,384.877 234.685,387.124 234.326,387.935 233.79,388.79 232.334,391.237 231.391,392.014 M236.444,388.095 Q245.573,392.449 255.619,389.897 259.303,389.268 263.071,388.631" test="Avatar Lady"/>
    </g>
  </g>
</svg>