<?xml version="1.0" encoding="utf-8"?>
<svg id="EdithAnim13" image-rendering="inherit" baseProfile="basic" version="1.1" x="0px" y="0px" width="800" height="600" xmlns="http://www.w3.org/2000/svg" xmlns:xlink="http://www.w3.org/1999/xlink">
  <g id="22_Avatarf96r1" overflow="visible">
    <g id="Avatar-Manf0r1">
      <g id="Tailf0r1">
        <path id="Layer3_0_1_STROKES" stroke="#009EFF" stroke-width="2.311" stroke-linejoin="round" stroke-linecap="round" fill="none" d="M647.247,604.013 Q646.089,587.033 645.453,570.043 644.884,553.568 639.539,538.006 633.665,521.056 617.279,513.339 597.365,504.042 594.472,524.812 594.05,527.838 596.027,530.495 600.703,536.879 607.352,540.967 614.306,538.432 619.533,543.229 625.826,549.054 628.593,557.784 635.059,578.386 640.207,599.16 641.662,604.972 640.68,610.868" test="Tail_2.3242325232423263e+312.3242325232423263e+31_2.3242325232423263e+312.3242325232423263e+31_2.3242325232423263e+312.3242325232423263e+31_2.3242325232423263e+312.3242325232423263e+31_2.3242325232423263e+312.3242325232423263e+31_2.3242325232423263e+312.3242325232423263e+31_2.3242325232423263e+312.3242325232423263e+31_2.3242325232423263e+312.3242325232423263e+31_2.3242325232423263e+312.3242325232423263e+31_2.3242325232423263e+312.3242325232423263e+31_2.3242325232423263e+312.3242325232423263e+31_2.3242325232423263e+312.3242325232423263e+31_2.3242325232423263e+312.3242325232423263e+31_2324232523242325"/>
      </g>
      <path fill="#000" stroke="none" d="M608.834,517.644 Q604.718,508.404 599.51,507.06 598.334,506.724 584.054,510.84 567.086,515.712 547.85,515.88 527.858,516.048 508.706,509.832 493.334,503.532 491.57,503.7 485.522,506.388 483.842,507.564 480.818,509.58 481.07,512.1 481.238,513.948 481.406,524.112 481.994,533.94 484.85,537.3 487.958,540.912 502.994,548.724 515.426,555.024 528.11,560.4 536.426,563.928 548.942,579.636 555.326,587.616 562.55,596.94 564.062,598.116 562.55,599.796 561.374,601.056 561.542,601.056 L573.47,597.36 Q588.674,592.572 599.006,576.528 607.826,562.752 611.27,544.02 614.042,529.152 608.834,517.644 M614.21,168.12 L611.186,166.86 Q611.142,166.966 611.102,167.028 610.191,169.353 609.59,171.48 607.994,177.192 605.474,185.928 605.417,186.081 605.306,186.18 603.004,192.295 598.25,195 588.254,200.712 582.71,203.4 L586.49,211.8 Q586.07,217.932 588.002,259.008 588.073,260.523 588.086,261.948 589.653,294.044 589.85,303.78 589.848,303.844 589.85,303.864 589.879,306.115 589.85,307.14 589.514,320.328 591.95,341.16 592.286,344.1 596.906,341.664 601.526,339.144 601.19,337.38 601.022,336.12 602.954,336.792 604.55,337.38 604.97,337.8 605.054,337.884 611.27,316.38 L616.31,324.78 Q616.394,324.864 619.25,306.3 L624.29,308.4 Q624.387,308.499 623.702,299.58 623.739,299.56 623.702,299.496 622.744,285.784 620.006,250.944 618.344,229.655 617.066,215.664 615.483,196.962 614.63,191.304 614.391,189.654 614.21,189.12 614.391,189.654 614.63,191.304 615.483,196.962 617.066,215.664 L618.41,215.58 Q620.09,215.412 625.046,210.456 629.414,206.256 632.69,207.6 635.63,208.86 653.27,234.396 673.598,260.268 690.23,264.3 675.278,264.804 653.102,281.856 646.214,287.148 639.41,293.532 L638.402,294.456 Q639.598,307.224 643.526,350.904 L644.45,350.82 Q648.818,348.384 679.394,324.36 708.878,301.092 718.37,292.86 725.426,286.728 731.222,277.068 734.162,272.112 737.69,265.98 739.37,264.048 742.982,261.36 745.922,258.672 746.09,254.22 746.258,249.852 714.338,229.272 678.974,207.264 672.17,202.14 652.178,187.104 642.854,181.056 631.746,173.773 624.206,170.556 617.941,167.89 614.21,168.12 M554.486,162.996 Q557.006,162.576 559.358,162.156 563.138,162.156 562.886,166.776 570.11,165.936 572.966,166.776 575.99,167.7 575.906,170.976 L580.61,173.16 Q583.913,166.739 591.95,161.4 596.57,158.292 600.518,157.284 600.58,157.271 600.602,157.2 L599.51,150.48 Q600.77,150.396 598.334,147.456 593.882,142.332 590.27,137.88 585.398,131.832 568.43,126.372 553.562,121.584 545.33,121.5 518.954,121.248 500.81,128.64 489.554,133.26 479.474,147.204 477.542,149.847 475.946,152.244 471.442,159.384 470.066,164.76 L470.066,166.776 Q470.234,166.776 470.99,167.028 471.83,167.196 472.418,167.196 475.442,167.196 478.466,164.76 481.91,161.904 485.186,161.316 L485.186,163.416 488.966,163.416 Q491.486,162.912 496.274,161.484 499.97,160.308 500.726,160.476 L500.726,162.576 Q501.566,162.576 504.926,162.996 510.47,162.996 515.846,160.056 L520.046,160.056 520.046,161.736 526.766,161.736 Q537.854,158.376 538.526,158.376 539.618,158.376 540.626,159.132 541.802,159.972 543.986,160.056 543.986,162.156 543.566,162.996 L554.486,162.996Z" test="Avatar Man" stroke-width="1.68"/>
      <path id="Layer2_0_1_STROKES" stroke="#009EFF" stroke-width="1.68" stroke-linejoin="round" stroke-linecap="round" fill="none" d="M575.906,170.976 Q575.99,167.7 572.966,166.776 570.11,165.936 562.886,166.776 563.138,162.156 559.358,162.156 557.006,162.576 554.486,162.996 L543.566,162.996 Q543.986,162.156 543.986,160.056 541.802,159.972 540.626,159.132 539.618,158.376 538.526,158.376 537.854,158.376 526.766,161.736 L520.046,161.736 520.046,160.056 515.846,160.056 Q510.47,162.996 504.926,162.996 501.566,162.576 500.726,162.576 L500.726,160.476 Q499.97,160.308 496.274,161.484 491.486,162.912 488.966,163.416 L485.186,163.416 485.186,161.316 Q481.91,161.904 478.466,164.76 475.442,167.196 472.418,167.196 471.83,167.196 470.99,167.028 470.234,166.776 470.066,166.776 L470.066,164.76 Q471.442,159.384 475.988,152.286 477.542,149.847 479.474,147.204 489.554,133.26 500.81,128.64 518.954,121.248 545.33,121.5 553.562,121.584 568.43,126.372 585.398,131.832 590.27,137.88 593.882,142.332 598.334,147.456 600.77,150.396 599.51,150.48 M600.644,157.242 Q600.706,157.249 600.77,157.242 603.31,156.681 608.75,156.36 612.698,156.192 615.134,154.596 616.478,153.756 618.41,152.16 619.166,151.74 616.058,157.116 614.63,159.552 613.454,161.904 612.735,163.317 612.152,164.676 612.013,164.957 611.9,165.222 611.655,165.746 611.438,166.272 611.307,166.568 611.186,166.86 M614.21,168.12 Q617.941,167.89 624.248,170.598 631.746,173.773 642.854,181.056 652.178,187.104 672.17,202.14 678.974,207.264 714.338,229.272 746.258,249.852 746.09,254.22 745.922,258.672 742.982,261.36 739.37,264.048 737.69,265.98 734.162,272.112 731.222,277.068 725.426,286.728 718.37,292.86 708.878,301.092 679.394,324.36 648.818,348.384 644.45,350.82 644.015,351.104 643.61,351.366 638.721,354.538 636.554,355.776 632.69,358.044 629.33,357.54 M613.454,161.904 Q612.145,163.339 611.06,164.172 609.963,164.972 609.086,165.18 605.894,165.432 602.03,166.02 597.074,166.776 594.386,168.624 590.774,171.732 587.33,174.42 583.046,177.78 580.358,179.376 L578.51,180.3 Q578.915,176.594 580.652,173.202 M575.066,170.976 L575.906,170.976 M580.652,173.202 Q583.913,166.739 591.95,161.4 596.57,158.292 600.518,157.284 600.58,157.271 600.644,157.242 M611.186,166.86 Q611.142,166.966 611.102,167.07 610.191,169.353 609.59,171.48 607.994,177.192 605.474,185.928 605.417,186.081 605.348,186.222 603.004,192.295 598.25,195 588.254,200.712 582.71,203.4 M586.49,211.8 Q586.07,217.932 588.002,259.008 588.073,260.523 588.128,261.99 589.653,294.044 589.85,303.78 589.848,303.844 589.85,303.906 589.879,306.115 589.85,307.14 589.514,320.328 591.95,341.16 592.286,344.1 596.906,341.664 601.526,339.144 601.19,337.38 601.022,336.12 602.954,336.792 604.55,337.38 604.97,337.8 605.054,337.884 611.27,316.38 L616.31,324.78 Q616.394,324.864 619.25,306.3 L624.29,308.4 Q624.387,308.499 623.744,299.622 623.739,299.56 623.744,299.496 622.744,285.784 620.006,250.944 618.344,229.655 617.108,215.664 615.483,196.962 614.63,191.304 614.391,189.654 614.21,189.12 M638.402,294.498 L639.41,293.532 Q646.214,287.148 653.102,281.856 675.278,264.804 690.23,264.3 673.598,260.268 653.27,234.396 635.63,208.86 632.69,207.6 629.414,206.256 625.046,210.456 620.09,215.412 618.41,215.58 M523.91,208.86 Q524.889,209.018 526.934,209.112 529.266,209.196 532.982,209.196 539.534,209.112 542.39,208.86 547.682,208.356 548.354,208.188 551.714,207.264 552.05,204.66 M573.05,276.06 Q573.89,281.52 575.822,289.416 578.174,298.908 580.19,303.78 M479.39,273.54 Q479.39,273.624 479.726,282.192 479.978,288.324 482.33,292.44 483.086,293.76 484.22,295.044 487.661,298.886 494.594,302.352 504.17,307.224 513.41,307.56 L516.812,307.812 516.938,307.812 Q525.842,308.148 528.53,307.98 533.15,307.644 538.61,305.88 542.642,304.62 553.478,294.876 561.179,287.88 569.354,279.336 569.46,279.234 569.564,279.126 569.628,279.066 569.69,279 569.776,278.919 569.858,278.832 571.148,277.463 572.462,276.06 572.548,275.969 572.63,275.892 572.664,275.843 572.714,275.808 572.727,275.759 572.756,275.724 582.646,265.179 583.97,262.2 M516.77,308.4 Q516.014,312.012 514.586,320.244 513.158,327.384 510.89,331.08 M633.95,298.74 L638.402,294.498 M624.71,365.52 Q624.626,365.688 616.142,387.78 610.094,403.488 607.91,412.56 605.222,423.564 602.87,456.324 600.518,488.244 601.61,495.3 M553.226,408.696 Q553.73,410.544 555.41,411.048 555.914,411.216 557.258,411.216 559.442,411.216 560.282,410.208 560.618,409.872 561.962,406.764 M519.626,396.516 Q519.458,411.804 520.55,414.156 522.314,418.356 532.226,418.356 537.014,418.356 537.434,418.272 537.938,418.188 539.786,417.096 M520.886,448.176 Q520.046,450.696 520.046,453.468 520.046,458.088 523.742,458.34 526.178,458.424 533.906,458.256 M517.946,483.036 Q522.23,485.976 525.002,486.648 527.018,487.068 530.546,486.396 M560.87,601.56 Q554.57,604.5 537.686,607.692 520.634,610.884 502.49,612.48 486.782,613.908 449.822,613.152 421.934,612.648 405.89,611.64 393.542,610.884 368.51,608.28 362.294,607.608 357.674,608.616 354.398,609.372 353.39,608.7 M474.35,151.32 Q471.158,149.388 467.378,147.372 459.818,143.424 457.55,143.76 455.114,144.096 457.13,156.108 458.81,166.356 460.49,170.64 M464.69,181.98 Q465.362,184.752 467.126,190.296 468.134,194.748 465.53,196.68 462.323,199.071 459.272,201.3 L459.23,201.342 Q413.398,235.374 407.57,237.42 402.446,238.932 401.186,239.352 399.422,240.024 399.17,241.62 398.75,244.896 398.582,256.152 398.33,269.088 399.17,271.86 402.026,283.284 424.034,315.792 445.622,347.628 458.39,360.06 M466.37,210.96 Q468.974,212.304 474.182,212.976 474.394,213.008 474.602,213.018 479.518,213.722 484.43,213.48 487.538,213.312 494.762,212.136 500.642,211.128 502.49,211.38 M465.95,232.8 Q464.942,234.48 454.106,245.316 444.278,255.144 441.59,257.58 M486.446,252.456 Q490.226,252.456 494.426,251.616 L510.806,251.616 Q505.766,256.992 502.91,259.848 497.618,265.056 496.358,265.056 494.09,265.056 490.73,260.352 487.286,254.976 486.026,253.716 M432.35,252.96 Q433.791,256.443 436.886,260.856 436.92,260.905 436.97,260.94 444.671,271.984 462.59,288.828 470.914,296.645 477.038,302.604 491.209,316.35 493.67,320.16 M465.53,383.58 Q464.942,396.936 467.63,403.32 469.31,407.184 474.434,411.552 479.726,415.836 484.43,417.18 M479.81,424.74 Q479.894,427.344 479.474,438.096 479.306,448.176 480.65,450.78 482.246,453.888 486.194,456.492 490.058,459.012 492.41,458.76 M485.69,462.12 Q485.774,464.892 485.774,469.176 485.942,472.368 487.37,474.3 487.538,474.552 492.074,477.66 495.098,479.76 494.93,483.54 494.762,486.396 492.998,493.452 491.486,499.332 491.99,501.18 M471.41,513.36 Q451.754,509.748 427.982,506.052 380.522,498.744 360.614,498.744 347.342,498.744 332.222,495.972 320.294,493.788 317.774,494.544 313.406,495.888 309.29,502.776 305.174,509.748 305.51,515.46 305.762,519.324 307.106,529.572 308.198,538.728 307.19,542.34 M470.99,537.72 Q463.262,538.98 427.646,539.736 389.006,540.576 382.79,541.08 375.902,541.668 353.978,545.196 334.07,548.388 326.09,548.64 316.598,548.976 308.198,547.8 303.83,547.212 297.53,545.7 294.254,544.944 290.894,547.212 289.13,548.472 284.93,552.84 280.142,557.796 284.51,568.38 285.35,570.48 283.922,582.492 282.326,594.588 283.25,596.94 L286.19,604.08 Q289.466,613.068 290.81,622.56 M350.03,596.94 Q351.206,600.72 353.39,611.556 355.742,623.148 355.49,625.5" test="Avatar Man"/>
      <path id="Layer2_0_2_STROKES" stroke="#FF0" stroke-width="1.68" stroke-linejoin="round" stroke-linecap="round" fill="none" d="M526.766,212.136 Q525.926,216.84 527.606,220.284 529.37,223.896 532.646,223.896 533.99,223.896 535.838,222.888 537.938,221.712 538.526,220.116 M474.266,215.916 Q473.426,221.796 473.426,222.216 473.426,223.925 474.686,225.744 475.356,226.695 476.366,227.676 479.474,230.616 482.666,230.616 484.346,230.616 485.438,228.936 486.11,228.012 487.286,225.996" test="Avatar Man"/>
      <path id="Layer2_0_3_STROKES" stroke="#FFF" stroke-width="1.68" stroke-linejoin="round" stroke-linecap="round" fill="none" d="M556.166,257.916 Q561.794,260.184 562.046,263.964 562.063,264.203 562.088,264.468 562.083,264.532 562.088,264.594 L562.088,264.72 Q562.12,266.906 561.626,270.936 M548.606,273.036 Q554.142,271.716 557.51,267.66 558.639,266.303 559.526,264.636" test="Avatar Man"/>
      <path id="Layer2_0_4_STROKES" stroke="#F90" stroke-width="1.68" stroke-linejoin="round" stroke-linecap="round" fill="none" d="M491.57,503.7 Q493.334,503.532 508.706,509.832 527.858,516.048 547.85,515.88 567.086,515.712 584.054,510.84 598.334,506.724 599.51,507.06 604.718,508.404 608.834,517.644 614.042,529.152 611.27,544.02 607.826,562.752 599.006,576.528 588.674,592.572 573.47,597.36 L561.542,601.056 Q561.374,601.056 562.55,599.796 564.062,598.116 562.55,596.94 555.326,587.616 548.942,579.636 536.426,563.928 528.11,560.4 515.426,555.024 502.994,548.724 487.958,540.912 484.85,537.3 481.994,533.94 481.406,524.112 481.238,513.948 481.07,512.1 480.818,509.58 483.842,507.564 485.522,506.388 491.57,503.7Z" test="Avatar Man"/>
    </g>
    <g id="Avatar-Lady">
      <path fill="#000" stroke="none" d="M250.048,410.96 Q246.326,410.479 243.197,410.691 235.025,411.745 231.561,412.083 225.899,412.636 219.753,410.847 216.097,410.095 210.823,407.624 200.359,402.675 190.774,393.63 181.31,384.699 174.431,373.899 L172.756,375.086 Q172.952,381.465 170.67,396.531 168.984,407.983 169.373,416.448 169.441,418.025 169.585,419.499 169.882,422.541 171.994,437.178 174.056,458.303 172.272,466.24 171.085,471.559 169.28,477.536 168.264,481.986 168.858,488.07 169.189,491.458 170.361,495.601 L170.37,495.685 Q171.45,499.517 173.231,504.022 176.875,513.391 177.346,518.207 177.593,520.742 176.903,523.283 176.524,524.642 175.994,525.334 L177.563,526.546 Q177.788,528.469 177.862,532.232 177.87,532.421 177.895,532.57 178.001,537.768 177.871,546.307 L177.879,546.391 Q177.834,549.806 177.744,553.741 L181.439,555.768 Q183.718,551.915 189.594,544.053 197.823,533.098 199.749,529.242 L200.089,528.356 Q203.36,524.283 205.88,516.018 208.744,505.161 210.804,498.306 211.253,496.783 211.622,495.326 211.826,494.806 211.946,494.27 212.027,494.157 212.006,494.008 212.078,493.943 212.074,493.831 L212.074,493.831 Q216.152,480.172 218.774,471.595 224.189,453.664 227.402,445.502 228.878,441.697 230.994,437.73 231.835,436.126 232.725,434.49 L232.945,434.127 233.021,434.034 Q235.332,430.228 238.151,426.283 244.677,417.115 249.823,413.03 L250.048,410.96 M214.94,261.947 L213.144,249.668 212.722,249.709 Q203.258,250.633 197.739,251.769 186.624,254.134 178.038,258.811 169.79,263.455 162.373,270.492 159.563,273.125 156.852,275.978 156.855,276.019 156.776,276.071 156.587,276.304 156.31,276.543 152.312,281.008 148.617,285.995 142.278,294.462 140.061,303.209 137.836,311.872 137.831,321.427 L137.713,324.594 Q140.42,324.693 143.711,324.862 149.117,325.187 156.906,328.948 157.309,329.163 162.499,332.07 162.548,332.082 162.584,332.062 164.345,333.103 166.65,334.394 164.345,333.103 162.584,332.062 162.548,332.082 162.499,332.07 157.309,329.163 156.906,328.948 149.117,325.187 143.711,324.862 140.42,324.693 137.713,324.594 L136.107,336.097 Q137.864,336.312 139.738,336.595 153.926,338.622 159.309,337.841 153.926,338.622 139.738,336.595 137.864,336.312 136.107,336.097 135.933,336.068 135.76,336.045 123.994,334.5 117.692,335.336 L113.558,340.175 Q115.882,342.176 121.062,346.267 127.953,351.668 132.221,353.964 133.048,354.359 133.74,354.669 139.63,357.335 146.213,356.607 151.021,356.052 157.998,356.736 163.505,357.222 165.137,356.466 L170.601,357.382 169.342,364.586 174.322,373.654 Q174.409,373.792 174.431,373.899 181.31,384.699 190.774,393.63 200.359,402.675 210.823,407.624 216.097,410.095 219.753,410.847 225.899,412.636 231.561,412.083 235.025,411.745 243.197,410.691 246.326,410.479 250.048,410.96 L250.132,410.952 Q253.043,411.395 256.313,412.225 266.276,414.665 269.207,414.976 275.507,415.726 279.034,414.272 280.666,413.516 284.932,410.028 287.539,407.897 288.917,400.17 290.351,390.391 291.453,385.08 292.691,379.414 298.303,367.862 299.042,366.332 299.72,364.908 304.318,355.224 305.989,350.477 306.172,349.964 306.321,349.506 308.865,341.495 305.635,332 303.126,324.653 298.744,319.962 L292.351,312.141 Q291.839,312.546 291.141,312.856 285.89,314.99 285.59,309.304 L280.813,307.552 265.393,312.129 Q265.512,312.55 265.644,312.957 265.399,312.717 265.088,312.5 262.341,309.874 258.206,307.541 249.102,302.544 241.376,304.663 233.903,306.758 221.632,315.633 209.901,324.691 203.97,328.703 203.177,329.315 202.456,329.79 198.453,332.484 184.046,341.312 182.599,342.204 181.305,342.944 177.559,345.35 175.204,346.867 172.726,348.636 171.954,349.402 172.726,348.636 175.204,346.867 177.559,345.35 181.305,342.944 182.599,342.204 184.046,341.312 198.453,332.484 202.456,329.79 203.177,329.315 203.97,328.703 209.901,324.691 221.632,315.633 233.903,306.758 241.376,304.663 249.102,302.544 258.206,307.541 262.341,309.874 265.088,312.5 L265.393,312.129 Q265.328,311.923 265.267,311.714 264.251,308.418 263.375,304.563 261.393,295.629 262.314,291.956 263.048,288.984 269.857,285.333 275.922,281.926 275.318,280.108 273.649,275.238 265.522,268.013 L257.747,261.777 Q245.435,271.696 234.2,280.967 222.448,290.774 211.903,299.863 194.159,315.586 187.684,320.91 180.096,327.16 173.89,330.787 171.83,332.037 169.923,332.966 171.83,332.037 173.89,330.787 180.096,327.16 187.684,320.91 194.159,315.586 211.903,299.863 222.448,290.774 234.2,280.967 L228.008,273.467 Q227.148,272.527 222.006,267.911 216.4,262.914 214.94,261.947 M251.356,321.262 Q250.049,320.11 246.02,319.906 242.966,319.752 234.273,325.404 231.485,327.256 228.121,329.672 214.251,339.642 211.885,339.873 214.251,339.642 228.121,329.672 231.485,327.256 234.273,325.404 242.966,319.752 246.02,319.906 250.049,320.11 251.356,321.262 252.663,322.414 256.865,324.392 252.663,322.414 251.356,321.262 M247.293,335.563 Q249.183,333.076 249.034,331.555 248.993,331.132 246.674,329.226 248.993,331.132 249.034,331.555 249.183,333.076 247.293,335.563 245.259,338.321 243.146,338.527 236.978,339.13 236.549,334.736 236.483,334.06 236.543,333.798 236.747,333.266 237.884,330.937 236.747,333.266 236.543,333.798 236.483,334.06 236.549,334.736 236.978,339.13 243.146,338.527 245.259,338.321 247.293,335.563 M233.75,389.946 Q233.433,390.795 232.893,391.65 231.425,394.097 230.477,394.872 231.425,394.097 232.893,391.65 233.433,390.795 233.75,389.946 234.899,387.736 234.722,385.927 L234.186,383.932 234.722,385.927 Q234.899,387.736 233.75,389.946 M272.68,357.056 Q274.819,356.847 277.558,355.47 280.524,354.087 284.157,351.414 289.338,347.52 290.457,345.169 290.892,344.382 290.832,343.767 290.766,343.091 288.853,340.975 287.025,338.85 286.324,338.662 287.025,338.85 288.853,340.975 290.766,343.091 290.832,343.767 290.892,344.382 290.457,345.169 289.338,347.52 284.157,351.414 280.524,354.087 277.558,355.47 274.819,356.847 272.68,357.056 269.384,357.377 266.956,355.226 263.12,351.762 262.85,351.617 263.12,351.762 266.956,355.226 269.384,357.377 272.68,357.056 M292.342,359.231 Q292.276,358.555 291.154,357.555 292.276,358.555 292.342,359.231 292.449,360.329 292.117,361.3 291.785,362.27 291.015,363.114 289.389,364.808 286.938,365.047 286.009,365.138 283.991,364.567 282.058,363.988 280.792,363.259 282.058,363.988 283.991,364.567 286.009,365.138 286.938,365.047 289.389,364.808 291.015,363.114 291.785,362.27 292.117,361.3 292.449,360.329 292.342,359.231 M254.762,392.842 Q258.455,392.225 262.233,391.601 258.455,392.225 254.762,392.842 244.686,395.361 235.555,390.964 244.686,395.361 254.762,392.842 M189.778,292.555 Q185.454,288.456 179.054,286.692 172.739,284.92 167.405,286.208 172.739,284.92 179.054,286.692 185.454,288.456 189.778,292.555Z" test="Avatar Lady" stroke-width="1.698"/>
      <path id="Layer1_0_1_STROKES" stroke="#009EFF" stroke-width="1.698" stroke-linejoin="round" stroke-linecap="round" fill="none" d="M280.813,307.552 Q279.411,303.68 282.389,301.853 285.274,299.951 288.057,298.741 M255.721,257.624 Q255.9,256.839 255.859,256.417 255.776,255.572 252.46,250.436 248.546,244.42 247.923,243.287 245.635,239.074 241.049,238.413 236.361,238.444 234.681,237.84 235.143,239.075 235.547,243.215 L235.972,249.316 Q235.727,249.425 233.802,248.931 231.708,248.453 230.778,248.543 227.483,248.865 225.692,248.869 221.417,248.775 216.685,249.237 L213.144,249.668 M214.94,261.947 Q216.4,262.914 222.006,267.911 227.148,272.527 228.008,273.467 M234.681,237.84 Q234.669,237.756 234.588,237.764 L234.563,237.511 Q234.662,237.67 234.681,237.84Z M212.722,249.709 Q212.705,249.54 212.79,249.532 212.968,249.68 213.144,249.668 L212.722,249.709 Q203.258,250.633 197.739,251.769 186.624,254.134 178.038,258.811 169.79,263.455 162.373,270.492 159.563,273.125 156.895,275.974 156.855,276.019 156.818,276.067 156.587,276.304 156.353,276.539 152.312,281.008 148.617,285.995 142.278,294.462 140.061,303.209 137.836,311.872 137.831,321.427 M137.717,324.637 Q140.42,324.693 143.711,324.862 149.117,325.187 156.906,328.948 157.309,329.163 162.499,332.07 162.548,332.082 162.588,332.104 164.345,333.103 166.65,334.394 M256.865,324.392 Q252.663,322.414 251.356,321.262 250.049,320.11 246.02,319.906 242.966,319.752 234.277,325.446 231.485,327.256 228.121,329.672 214.251,339.642 211.885,339.873 M262.85,351.617 Q263.12,351.762 266.956,355.226 269.384,357.377 272.68,357.056 274.819,356.847 277.604,355.508 280.524,354.087 284.157,351.414 289.338,347.52 290.499,345.164 290.892,344.382 290.832,343.767 290.766,343.091 288.853,340.975 287.025,338.85 286.324,338.662 M298.744,319.962 Q303.126,324.653 305.635,332 308.865,341.495 306.321,349.506 306.172,349.964 305.989,350.477 304.318,355.224 299.72,364.908 299.042,366.332 298.303,367.862 292.691,379.414 291.453,385.08 290.351,390.391 288.917,400.17 287.539,407.897 284.932,410.028 280.666,413.516 279.034,414.272 275.507,415.726 269.207,414.976 266.276,414.665 256.313,412.225 253.043,411.395 250.136,410.994 L250.052,411.003 M249.823,413.03 Q244.677,417.115 238.151,426.283 235.332,430.228 233.064,434.03 L232.987,434.123 232.767,434.486 Q231.835,436.126 230.994,437.73 228.878,441.697 227.402,445.502 224.189,453.664 218.774,471.595 216.152,480.172 212.116,493.827 L212.078,493.874 Q212.078,493.943 212.048,494.004 212.027,494.157 211.992,494.308 211.826,494.806 211.665,495.321 211.253,496.783 210.804,498.306 208.744,505.161 205.88,516.018 203.36,524.283 200.089,528.356 M199.749,529.242 Q197.823,533.098 189.594,544.053 183.718,551.915 181.443,555.811 180.726,557.073 180.37,557.92 M280.792,363.259 Q282.058,363.988 283.991,364.567 286.009,365.138 286.938,365.047 289.389,364.808 291.015,363.114 291.785,362.27 292.117,361.3 292.449,360.329 292.342,359.231 292.276,358.555 291.154,357.555 M250.052,411.003 Q246.326,410.479 243.197,410.691 235.025,411.745 231.561,412.083 225.899,412.636 219.753,410.847 216.097,410.095 210.823,407.624 200.359,402.675 190.774,393.63 181.31,384.699 174.478,373.937 M172.756,375.086 Q172.952,381.465 170.67,396.531 168.984,407.983 169.373,416.448 169.441,418.025 169.585,419.499 169.882,422.541 171.994,437.178 174.056,458.303 172.272,466.24 171.085,471.559 169.28,477.536 168.264,481.986 168.858,488.07 169.189,491.458 170.365,495.643 L170.37,495.685 Q171.45,499.517 173.231,504.022 176.875,513.391 177.346,518.207 177.593,520.742 176.903,523.283 176.524,524.642 175.998,525.376 M177.563,526.546 Q177.788,528.469 177.866,532.274 177.87,532.421 177.895,532.57 178.001,537.768 177.875,546.349 L177.879,546.391 Q177.834,549.806 177.744,553.741 M228.369,447.54 L228.332,452.406 Q228.414,453.251 229.336,456.574 230.257,459.896 230.34,460.741 230.422,461.586 231.711,466.92 232.915,472.262 232.997,473.107 233.69,480.205 226.285,510.955 218.796,541.714 219.415,548.051 220.017,554.22 230.739,567.931 239.12,578.629 249.419,588.884 256.879,596.259 275.956,631.761 276.063,632.859 276.764,633.046 277.372,633.158 277.398,632.558 M192.227,588.496 Q194.455,589.473 206.488,599.132 219.372,609.646 219.611,612.097 219.908,615.139 242.196,628.488 264.485,641.838 264.815,645.218 264.914,646.232 265.244,646.114 265.573,645.997 265.59,646.166 L266.208,645.508 M189.778,292.555 Q185.454,288.456 179.054,286.692 172.739,284.92 167.405,286.208 M137.717,324.637 Q137.634,324.655 137.548,324.653 137.461,324.651 137.379,324.67 133.271,324.567 130.566,324.78 123.282,325.321 118.233,327.776 111.966,330.862 111.255,331.443 110.07,332.412 110.385,334.769 110.802,337.288 112.243,338.939 112.638,339.34 113.368,339.98 113.46,340.053 113.553,340.133 L113.6,340.171 M117.692,335.336 Q123.994,334.5 135.76,336.045 135.933,336.068 136.107,336.097 M113.6,340.171 Q115.882,342.176 121.062,346.267 127.953,351.668 132.263,353.96 133.048,354.359 133.74,354.669 139.63,357.335 146.213,356.607 151.021,356.052 157.998,356.736 163.505,357.222 165.137,356.466 M169.342,364.586 L174.322,373.654 Q174.409,373.792 174.478,373.937 M129.056,359.988 Q126.572,363.387 125.863,381.456 125.556,389.675 125.492,391.643 125.493,395.141 125.872,399.028 126.334,403.76 129.309,414.133 132.199,424.514 132.777,430.429 132.837,431.044 132.9,431.696 133.107,434.515 133.088,437.99 133.069,443.687 132.453,451.147 132.022,456.377 131.299,462.477 128.774,483.794 130.457,501.032 130.729,503.821 132.879,512.738 134.98,521.149 134.968,522.771 M136.107,336.097 Q137.864,336.312 139.738,336.595 153.926,338.622 159.309,337.841 M151.151,376.598 L151.526,378.694 Q151.716,380.638 150.96,386.001 150.212,391.448 150.472,395.858 150.697,400.784 151.505,409.065 151.596,409.995 152.223,412.919 152.858,415.928 152.965,417.027 152.971,417.087 152.977,417.153 153.184,419.426 153.017,423.675 152.912,428.719 152.276,430.06 151.606,431.064 150.409,433.655 149.555,435.402 149.156,436.55 148.756,437.698 148.81,438.247 M154.793,473.32 Q154.859,473.996 154.522,481.024 154.1,488.061 154.199,489.075 154.38,490.934 156.404,495.94 157.383,498.466 157.903,499.931 158.386,501.38 158.427,501.799 158.707,504.672 156.776,510.235 155.041,515.181 153.525,517.121 M132.9,431.696 Q128.142,432.758 123.101,438.795 118.424,444.336 117.558,450.17 117.309,451.871 117.381,453.599 117.571,459.04 118.941,515.891 120.441,571.449 120.934,577.372 121.322,581.343 121.399,588.246 121.419,589.259 121.458,590.159 L121.466,590.244 Q121.661,593.133 122.211,594.82 122.698,596.308 162.629,644.446 202.257,692.101 202.671,695.473 M115.497,450.03 Q107.789,454.962 100.015,459.219 88.917,465.25 82.536,466.299 69.21,467.857 53.629,469.037 22.543,471.304 11.354,469.411 M175.998,525.376 Q175.511,526.064 174.877,526.126 M177.744,553.741 L177.748,553.783 Q177.726,555.738 177.675,557.842 177.404,569.078 176.87,584.109 176.786,587.615 187.453,603.379 200.595,622.654 203.563,628.592 223.828,669.266 226.09,688.068 M26.019,570.687 Q32.717,571.142 49.603,575.464 67.984,580.238 78.153,584.79 91.976,590.948 95.565,591.877 103.011,593.88 112.292,591.95 116.053,591.156 119.206,590.251" test="Avatar Lady"/>
      <path id="Layer1_0_2_STROKES" stroke="#FFBC00" stroke-width="1.698" stroke-linejoin="round" stroke-linecap="round" fill="none" d="M234.242,280.962 Q245.435,271.696 257.747,261.777 L265.522,268.013 Q273.649,275.238 275.318,280.108 275.922,281.926 269.857,285.333 263.048,288.984 262.314,291.956 261.393,295.629 263.375,304.563 264.251,308.418 265.267,311.714 265.328,311.923 265.393,312.129 M169.923,332.966 Q171.83,332.037 173.894,330.829 180.096,327.16 187.684,320.91 194.159,315.586 211.903,299.863 222.448,290.774 234.242,280.962 M265.13,312.495 Q265.399,312.717 265.644,312.957 265.512,312.55 265.393,312.129 M265.13,312.495 Q262.341,309.874 258.206,307.541 249.102,302.544 241.376,304.663 233.903,306.758 221.632,315.633 209.901,324.691 204.017,328.741 203.177,329.315 202.456,329.79 198.453,332.484 184.046,341.312 182.599,342.204 181.309,342.987 177.559,345.35 175.251,346.905 172.726,348.636 171.954,349.402" test="Avatar Lady"/>
      <path id="Layer1_0_3_STROKES" stroke="#FF0" stroke-width="1.698" stroke-linejoin="round" stroke-linecap="round" fill="none" d="M285.59,309.304 Q285.89,314.99 291.141,312.856 291.839,312.546 292.393,312.137 294.326,310.652 294.321,307.854 294.294,304.956 291.431,304.468 M237.884,330.937 Q236.747,333.266 236.543,333.798 236.483,334.06 236.549,334.736 236.978,339.13 243.146,338.527 245.259,338.321 247.293,335.563 249.183,333.076 249.034,331.555 248.993,331.132 246.674,329.226" test="Avatar Lady"/>
      <path id="Layer1_0_4_STROKES" stroke="#FFF" stroke-width="1.698" stroke-linejoin="round" stroke-linecap="round" fill="none" d="M234.186,383.932 L234.722,385.927 Q234.899,387.736 233.796,389.984 233.433,390.795 232.893,391.65 231.425,394.097 230.477,394.872 M235.555,390.964 Q244.686,395.361 254.762,392.842 258.455,392.225 262.233,391.601" test="Avatar Lady"/>
    </g>
  </g>
</svg>