<?xml version="1.0" encoding="utf-8"?>
<svg id="EdithAnim13" image-rendering="inherit" baseProfile="basic" version="1.1" x="0px" y="0px" width="800" height="600" xmlns="http://www.w3.org/2000/svg" xmlns:xlink="http://www.w3.org/1999/xlink">
  <g id="22_Avatarf97r1" overflow="visible">
    <g id="Avatar-Manf0r1">
      <g id="Tailf0r1">
        <path id="Layer3_0_1_STROKES" stroke="#009EFF" stroke-width="2.311" stroke-linejoin="round" stroke-linecap="round" fill="none" d="M646.397,604.213 Q645.239,587.233 644.603,570.243 644.034,553.768 638.689,538.206 632.815,521.256 616.429,513.539 596.515,504.242 593.622,525.012 593.2,528.038 595.177,530.695 599.853,537.079 606.502,541.167 613.456,538.632 618.683,543.429 624.976,549.254 627.743,557.984 634.209,578.586 639.357,599.36 640.812,605.172 639.83,611.068" test="Tail_2.3242325232423263e+312.3242325232423263e+31_2.3242325232423263e+312.3242325232423263e+31_2.3242325232423263e+312.3242325232423263e+31_2.3242325232423263e+312.3242325232423263e+31_2.3242325232423263e+312.3242325232423263e+31_2.3242325232423263e+312.3242325232423263e+31_2.3242325232423263e+312.3242325232423263e+31_2.3242325232423263e+312.3242325232423263e+31_2.3242325232423263e+312.3242325232423263e+31_2.3242325232423263e+312.3242325232423263e+31_2.3242325232423263e+312.3242325232423263e+31_2.3242325232423263e+312.3242325232423263e+31_2.3242325232423263e+312.3242325232423263e+31_23242325232423262324232523242326"/>
      </g>
      <path fill="#000" stroke="none" d="M607.984,517.844 Q603.868,508.604 598.66,507.26 597.484,506.924 583.204,511.04 566.236,515.912 547,516.08 527.008,516.248 507.856,510.032 492.484,503.732 490.72,503.9 484.672,506.588 482.992,507.764 479.968,509.78 480.22,512.3 480.388,514.148 480.556,524.312 481.144,534.14 484,537.5 487.108,541.112 502.144,548.924 514.576,555.224 527.26,560.6 535.576,564.128 548.092,579.836 554.476,587.816 561.7,597.14 563.212,598.316 561.7,599.996 560.524,601.256 560.692,601.256 L572.62,597.56 Q587.824,592.772 598.156,576.728 606.976,562.952 610.42,544.22 613.192,529.352 607.984,517.844 M613.36,168.32 L610.336,167.06 Q610.292,167.166 610.252,167.228 609.341,169.553 608.74,171.68 607.144,177.392 604.624,186.128 604.567,186.281 604.456,186.38 602.154,192.495 597.4,195.2 587.404,200.912 581.86,203.6 L585.64,212 Q585.22,218.132 587.152,259.208 587.223,260.723 587.236,262.148 588.803,294.244 589,303.98 588.998,304.044 589,304.064 589.029,306.315 589,307.34 588.664,320.528 591.1,341.36 591.436,344.3 596.056,341.864 600.676,339.344 600.34,337.58 600.172,336.32 602.104,336.992 603.7,337.58 604.12,338 604.204,338.084 610.42,316.58 L615.46,324.98 Q615.544,325.064 618.4,306.5 L623.44,308.6 Q623.537,308.699 622.852,299.78 622.889,299.76 622.852,299.696 621.894,285.984 619.156,251.144 617.494,229.855 616.216,215.864 614.633,197.162 613.78,191.504 613.541,189.854 613.36,189.32 613.541,189.854 613.78,191.504 614.633,197.162 616.216,215.864 L617.56,215.78 Q619.24,215.612 624.196,210.656 628.564,206.456 631.84,207.8 634.78,209.06 652.42,234.596 672.748,260.468 689.38,264.5 674.428,265.004 652.252,282.056 645.364,287.348 638.56,293.732 L637.552,294.656 Q638.748,307.424 642.676,351.104 L643.6,351.02 Q647.968,348.584 678.544,324.56 708.028,301.292 717.52,293.06 724.576,286.928 730.372,277.268 733.312,272.312 736.84,266.18 738.52,264.248 742.132,261.56 745.072,258.872 745.24,254.42 745.408,250.052 713.488,229.472 678.124,207.464 671.32,202.34 651.328,187.304 642.004,181.256 630.896,173.973 623.356,170.756 617.091,168.09 613.36,168.32 M553.636,163.196 Q556.156,162.776 558.508,162.356 562.288,162.356 562.036,166.976 569.26,166.136 572.116,166.976 575.14,167.9 575.056,171.176 L579.76,173.36 Q583.063,166.939 591.1,161.6 595.72,158.492 599.668,157.484 599.73,157.471 599.752,157.4 L598.66,150.68 Q599.92,150.596 597.484,147.656 593.032,142.532 589.42,138.08 584.548,132.032 567.58,126.572 552.712,121.784 544.48,121.7 518.104,121.448 499.96,128.84 488.704,133.46 478.624,147.404 476.692,150.047 475.096,152.444 470.592,159.584 469.216,164.96 L469.216,166.976 Q469.384,166.976 470.14,167.228 470.98,167.396 471.568,167.396 474.592,167.396 477.616,164.96 481.06,162.104 484.336,161.516 L484.336,163.616 488.116,163.616 Q490.636,163.112 495.424,161.684 499.12,160.508 499.876,160.676 L499.876,162.776 Q500.716,162.776 504.076,163.196 509.62,163.196 514.996,160.256 L519.196,160.256 519.196,161.936 525.916,161.936 Q537.004,158.576 537.676,158.576 538.768,158.576 539.776,159.332 540.952,160.172 543.136,160.256 543.136,162.356 542.716,163.196 L553.636,163.196Z" test="Avatar Man" stroke-width="1.68"/>
      <path id="Layer2_0_1_STROKES" stroke="#009EFF" stroke-width="1.68" stroke-linejoin="round" stroke-linecap="round" fill="none" d="M575.056,171.176 Q575.14,167.9 572.116,166.976 569.26,166.136 562.036,166.976 562.288,162.356 558.508,162.356 556.156,162.776 553.636,163.196 L542.716,163.196 Q543.136,162.356 543.136,160.256 540.952,160.172 539.776,159.332 538.768,158.576 537.676,158.576 537.004,158.576 525.916,161.936 L519.196,161.936 519.196,160.256 514.996,160.256 Q509.62,163.196 504.076,163.196 500.716,162.776 499.876,162.776 L499.876,160.676 Q499.12,160.508 495.424,161.684 490.636,163.112 488.116,163.616 L484.336,163.616 484.336,161.516 Q481.06,162.104 477.616,164.96 474.592,167.396 471.568,167.396 470.98,167.396 470.14,167.228 469.384,166.976 469.216,166.976 L469.216,164.96 Q470.592,159.584 475.138,152.486 476.692,150.047 478.624,147.404 488.704,133.46 499.96,128.84 518.104,121.448 544.48,121.7 552.712,121.784 567.58,126.572 584.548,132.032 589.42,138.08 593.032,142.532 597.484,147.656 599.92,150.596 598.66,150.68 M599.794,157.442 Q599.856,157.449 599.92,157.442 602.46,156.881 607.9,156.56 611.848,156.392 614.284,154.796 615.628,153.956 617.56,152.36 618.316,151.94 615.208,157.316 613.78,159.752 612.604,162.104 611.885,163.517 611.302,164.876 611.163,165.157 611.05,165.422 610.805,165.946 610.588,166.472 610.457,166.768 610.336,167.06 M613.36,168.32 Q617.091,168.09 623.398,170.798 630.896,173.973 642.004,181.256 651.328,187.304 671.32,202.34 678.124,207.464 713.488,229.472 745.408,250.052 745.24,254.42 745.072,258.872 742.132,261.56 738.52,264.248 736.84,266.18 733.312,272.312 730.372,277.268 724.576,286.928 717.52,293.06 708.028,301.292 678.544,324.56 647.968,348.584 643.6,351.02 643.165,351.304 642.76,351.566 637.871,354.738 635.704,355.976 631.84,358.244 628.48,357.74 M612.604,162.104 Q611.295,163.539 610.21,164.372 609.113,165.172 608.236,165.38 605.044,165.632 601.18,166.22 596.224,166.976 593.536,168.824 589.924,171.932 586.48,174.62 582.196,177.98 579.508,179.576 L577.66,180.5 Q578.065,176.794 579.802,173.402 M574.216,171.176 L575.056,171.176 M579.802,173.402 Q583.063,166.939 591.1,161.6 595.72,158.492 599.668,157.484 599.73,157.471 599.794,157.442 M610.336,167.06 Q610.292,167.166 610.252,167.27 609.341,169.553 608.74,171.68 607.144,177.392 604.624,186.128 604.567,186.281 604.498,186.422 602.154,192.495 597.4,195.2 587.404,200.912 581.86,203.6 M585.64,212 Q585.22,218.132 587.152,259.208 587.223,260.723 587.278,262.19 588.803,294.244 589,303.98 588.998,304.044 589,304.106 589.029,306.315 589,307.34 588.664,320.528 591.1,341.36 591.436,344.3 596.056,341.864 600.676,339.344 600.34,337.58 600.172,336.32 602.104,336.992 603.7,337.58 604.12,338 604.204,338.084 610.42,316.58 L615.46,324.98 Q615.544,325.064 618.4,306.5 L623.44,308.6 Q623.537,308.699 622.894,299.822 622.889,299.76 622.894,299.696 621.894,285.984 619.156,251.144 617.494,229.855 616.258,215.864 614.633,197.162 613.78,191.504 613.541,189.854 613.36,189.32 M637.552,294.698 L638.56,293.732 Q645.364,287.348 652.252,282.056 674.428,265.004 689.38,264.5 672.748,260.468 652.42,234.596 634.78,209.06 631.84,207.8 628.564,206.456 624.196,210.656 619.24,215.612 617.56,215.78 M523.06,209.06 Q524.039,209.218 526.084,209.312 528.416,209.396 532.132,209.396 538.684,209.312 541.54,209.06 546.832,208.556 547.504,208.388 550.864,207.464 551.2,204.86 M572.2,276.26 Q573.04,281.72 574.972,289.616 577.324,299.108 579.34,303.98 M478.54,273.74 Q478.54,273.824 478.876,282.392 479.128,288.524 481.48,292.64 482.236,293.96 483.37,295.244 486.811,299.086 493.744,302.552 503.32,307.424 512.56,307.76 L515.962,308.012 516.088,308.012 Q524.992,308.348 527.68,308.18 532.3,307.844 537.76,306.08 541.792,304.82 552.628,295.076 560.329,288.08 568.504,279.536 568.61,279.434 568.714,279.326 568.778,279.266 568.84,279.2 568.926,279.119 569.008,279.032 570.298,277.663 571.612,276.26 571.698,276.169 571.78,276.092 571.814,276.043 571.864,276.008 571.877,275.959 571.906,275.924 581.796,265.379 583.12,262.4 M515.92,308.6 Q515.164,312.212 513.736,320.444 512.308,327.584 510.04,331.28 M633.1,298.94 L637.552,294.698 M623.86,365.72 Q623.776,365.888 615.292,387.98 609.244,403.688 607.06,412.76 604.372,423.764 602.02,456.524 599.668,488.444 600.76,495.5 M552.376,408.896 Q552.88,410.744 554.56,411.248 555.064,411.416 556.408,411.416 558.592,411.416 559.432,410.408 559.768,410.072 561.112,406.964 M518.776,396.716 Q518.608,412.004 519.7,414.356 521.464,418.556 531.376,418.556 536.164,418.556 536.584,418.472 537.088,418.388 538.936,417.296 M520.036,448.376 Q519.196,450.896 519.196,453.668 519.196,458.288 522.892,458.54 525.328,458.624 533.056,458.456 M517.096,483.236 Q521.38,486.176 524.152,486.848 526.168,487.268 529.696,486.596 M560.02,601.76 Q553.72,604.7 536.836,607.892 519.784,611.084 501.64,612.68 485.932,614.108 448.972,613.352 421.084,612.848 405.04,611.84 392.692,611.084 367.66,608.48 361.444,607.808 356.824,608.816 353.548,609.572 352.54,608.9 M473.5,151.52 Q470.308,149.588 466.528,147.572 458.968,143.624 456.7,143.96 454.264,144.296 456.28,156.308 457.96,166.556 459.64,170.84 M463.84,182.18 Q464.512,184.952 466.276,190.496 467.284,194.948 464.68,196.88 461.473,199.271 458.422,201.5 L458.38,201.542 Q412.548,235.574 406.72,237.62 401.596,239.132 400.336,239.552 398.572,240.224 398.32,241.82 397.9,245.096 397.732,256.352 397.48,269.288 398.32,272.06 401.176,283.484 423.184,315.992 444.772,347.828 457.54,360.26 M465.52,211.16 Q468.124,212.504 473.332,213.176 473.544,213.208 473.752,213.218 478.668,213.922 483.58,213.68 486.688,213.512 493.912,212.336 499.792,211.328 501.64,211.58 M465.1,233 Q464.092,234.68 453.256,245.516 443.428,255.344 440.74,257.78 M485.596,252.656 Q489.376,252.656 493.576,251.816 L509.956,251.816 Q504.916,257.192 502.06,260.048 496.768,265.256 495.508,265.256 493.24,265.256 489.88,260.552 486.436,255.176 485.176,253.916 M431.5,253.16 Q432.941,256.643 436.036,261.056 436.07,261.105 436.12,261.14 443.821,272.184 461.74,289.028 470.064,296.845 476.188,302.804 490.359,316.55 492.82,320.36 M464.68,383.78 Q464.092,397.136 466.78,403.52 468.46,407.384 473.584,411.752 478.876,416.036 483.58,417.38 M478.96,424.94 Q479.044,427.544 478.624,438.296 478.456,448.376 479.8,450.98 481.396,454.088 485.344,456.692 489.208,459.212 491.56,458.96 M484.84,462.32 Q484.924,465.092 484.924,469.376 485.092,472.568 486.52,474.5 486.688,474.752 491.224,477.86 494.248,479.96 494.08,483.74 493.912,486.596 492.148,493.652 490.636,499.532 491.14,501.38 M470.56,513.56 Q450.904,509.948 427.132,506.252 379.672,498.944 359.764,498.944 346.492,498.944 331.372,496.172 319.444,493.988 316.924,494.744 312.556,496.088 308.44,502.976 304.324,509.948 304.66,515.66 304.912,519.524 306.256,529.772 307.348,538.928 306.34,542.54 M470.14,537.92 Q462.412,539.18 426.796,539.936 388.156,540.776 381.94,541.28 375.052,541.868 353.128,545.396 333.22,548.588 325.24,548.84 315.748,549.176 307.348,548 302.98,547.412 296.68,545.9 293.404,545.144 290.044,547.412 288.28,548.672 284.08,553.04 279.292,557.996 283.66,568.58 284.5,570.68 283.072,582.692 281.476,594.788 282.4,597.14 L285.34,604.28 Q288.616,613.268 289.96,622.76 M349.18,597.14 Q350.356,600.92 352.54,611.756 354.892,623.348 354.64,625.7" test="Avatar Man"/>
      <path id="Layer2_0_2_STROKES" stroke="#FF0" stroke-width="1.68" stroke-linejoin="round" stroke-linecap="round" fill="none" d="M525.916,212.336 Q525.076,217.04 526.756,220.484 528.52,224.096 531.796,224.096 533.14,224.096 534.988,223.088 537.088,221.912 537.676,220.316 M473.416,216.116 Q472.576,221.996 472.576,222.416 472.576,224.125 473.836,225.944 474.506,226.895 475.516,227.876 478.624,230.816 481.816,230.816 483.496,230.816 484.588,229.136 485.26,228.212 486.436,226.196" test="Avatar Man"/>
      <path id="Layer2_0_3_STROKES" stroke="#FFF" stroke-width="1.68" stroke-linejoin="round" stroke-linecap="round" fill="none" d="M555.316,258.116 Q560.944,260.384 561.196,264.164 561.213,264.403 561.238,264.668 561.233,264.732 561.238,264.794 L561.238,264.92 Q561.27,267.106 560.776,271.136 M547.756,273.236 Q553.292,271.916 556.66,267.86 557.789,266.503 558.676,264.836" test="Avatar Man"/>
      <path id="Layer2_0_4_STROKES" stroke="#F90" stroke-width="1.68" stroke-linejoin="round" stroke-linecap="round" fill="none" d="M490.72,503.9 Q492.484,503.732 507.856,510.032 527.008,516.248 547,516.08 566.236,515.912 583.204,511.04 597.484,506.924 598.66,507.26 603.868,508.604 607.984,517.844 613.192,529.352 610.42,544.22 606.976,562.952 598.156,576.728 587.824,592.772 572.62,597.56 L560.692,601.256 Q560.524,601.256 561.7,599.996 563.212,598.316 561.7,597.14 554.476,587.816 548.092,579.836 535.576,564.128 527.26,560.6 514.576,555.224 502.144,548.924 487.108,541.112 484,537.5 481.144,534.14 480.556,524.312 480.388,514.148 480.22,512.3 479.968,509.78 482.992,507.764 484.672,506.588 490.72,503.9Z" test="Avatar Man"/>
    </g>
    <g id="Avatar-Lady">
      <path fill="#000" stroke="none" d="M249.807,411.891 Q246.083,411.407 242.952,411.617 234.776,412.666 231.309,413.002 225.644,413.552 219.496,411.758 215.839,411.003 210.563,408.528 200.097,403.569 190.513,394.513 181.05,385.572 174.174,374.761 L172.497,375.948 Q172.689,382.33 170.396,397.403 168.703,408.86 169.085,417.33 169.153,418.907 169.296,420.382 169.591,423.426 171.695,438.072 173.745,459.209 171.954,467.149 170.763,472.471 168.954,478.45 167.934,482.901 168.525,488.989 168.854,492.38 170.024,496.525 L170.032,496.609 Q171.111,500.444 172.889,504.952 176.53,514.328 176.997,519.148 177.243,521.684 176.551,524.226 176.171,525.586 175.64,526.278 L177.209,527.491 Q177.433,529.415 177.505,533.18 177.513,533.369 177.538,533.519 177.641,538.72 177.505,547.262 L177.513,547.347 Q177.466,550.764 177.373,554.7 L181.069,556.731 Q183.351,552.878 189.235,545.015 197.475,534.06 199.406,530.203 L199.746,529.316 Q203.021,525.244 205.548,516.976 208.42,506.115 210.486,499.257 210.936,497.734 211.307,496.276 211.511,495.756 211.631,495.221 211.712,495.107 211.691,494.959 211.763,494.894 211.759,494.781 L211.759,494.781 Q215.848,481.117 218.478,472.537 223.907,454.6 227.127,446.436 228.606,442.63 230.725,438.662 231.568,437.058 232.459,435.422 L232.68,435.059 232.757,434.966 Q235.071,431.159 237.894,427.214 244.429,418.045 249.581,413.961 L249.807,411.891 M214.777,262.776 L212.988,250.489 212.565,250.53 Q203.095,251.449 197.572,252.582 186.45,254.941 177.857,259.615 169.602,264.256 162.176,271.292 159.363,273.925 156.649,276.778 156.651,276.818 156.573,276.87 156.384,277.104 156.106,277.342 152.103,281.807 148.403,286.795 142.055,295.262 139.832,304.012 137.6,312.678 137.588,322.238 L137.469,325.407 Q140.177,325.508 143.469,325.679 148.878,326.007 156.668,329.775 157.071,329.99 162.263,332.902 162.312,332.915 162.347,332.894 164.109,333.937 166.415,335.231 164.109,333.937 162.347,332.894 162.312,332.915 162.263,332.902 157.071,329.99 156.668,329.775 148.878,326.007 143.469,325.679 140.177,325.508 137.469,325.407 L135.854,336.915 Q137.612,337.132 139.487,337.416 153.681,339.453 159.067,338.674 153.681,339.453 139.487,337.416 137.612,337.132 135.854,336.915 135.68,336.885 135.507,336.863 123.736,335.309 117.429,336.141 L113.29,340.981 Q115.615,342.984 120.795,347.08 127.686,352.489 131.954,354.789 132.781,355.185 133.474,355.495 139.366,358.166 145.952,357.442 150.763,356.89 157.743,357.579 163.253,358.069 164.886,357.313 L170.352,358.234 169.088,365.44 174.065,374.516 Q174.152,374.654 174.174,374.761 181.05,385.572 190.513,394.513 200.097,403.569 210.563,408.528 215.839,411.003 219.496,411.758 225.644,413.552 231.309,413.002 234.776,412.666 242.952,411.617 246.083,411.407 249.807,411.891 L249.891,411.883 Q252.804,412.327 256.075,413.161 266.041,415.608 268.973,415.921 275.277,416.675 278.806,415.223 280.439,414.468 284.71,410.981 287.32,408.85 288.704,401.12 290.144,391.337 291.251,386.023 292.493,380.355 298.115,368.801 298.856,367.271 299.535,365.846 304.142,356.16 305.816,351.411 306.001,350.898 306.149,350.44 308.7,342.426 305.474,332.924 302.969,325.572 298.588,320.876 L292.196,313.047 Q291.684,313.451 290.985,313.762 285.729,315.893 285.434,310.203 L280.655,308.448 265.224,313.017 Q265.343,313.439 265.475,313.846 265.229,313.605 264.918,313.388 262.171,310.759 258.036,308.423 248.93,303.417 241.198,305.532 233.72,307.623 221.437,316.495 209.695,325.551 203.758,329.561 202.964,330.172 202.242,330.647 198.236,333.34 183.815,342.163 182.367,343.055 181.071,343.795 177.322,346.2 174.965,347.715 172.484,349.484 171.712,350.25 172.484,349.484 174.965,347.715 177.322,346.2 181.071,343.795 182.367,343.055 183.815,342.163 198.236,333.34 202.242,330.647 202.964,330.172 203.758,329.561 209.695,325.551 221.437,316.495 233.72,307.623 241.198,305.532 248.93,303.417 258.036,308.423 262.171,310.759 264.918,313.388 L265.224,313.017 Q265.159,312.811 265.098,312.602 264.083,309.304 263.209,305.446 261.233,296.506 262.156,292.831 262.892,289.858 269.707,286.21 275.778,282.805 275.175,280.986 273.507,276.112 265.381,268.878 L257.606,262.634 Q245.281,272.55 234.034,281.818 222.27,291.623 211.713,300.711 193.95,316.43 187.468,321.753 179.872,328.001 173.661,331.626 171.599,332.876 169.69,333.804 171.599,332.876 173.661,331.626 179.872,328.001 187.468,321.753 193.95,316.43 211.713,300.711 222.27,291.623 234.034,281.818 L227.844,274.311 Q226.984,273.37 221.842,268.748 216.236,263.744 214.777,262.776 M251.174,322.146 Q249.867,320.992 245.836,320.786 242.78,320.63 234.079,326.279 231.288,328.13 227.921,330.546 214.037,340.512 211.67,340.742 214.037,340.512 227.921,330.546 231.288,328.13 234.079,326.279 242.78,320.63 245.836,320.786 249.867,320.992 251.174,322.146 252.48,323.299 256.684,325.281 252.48,323.299 251.174,322.146 M247.099,336.452 Q248.991,333.965 248.844,332.443 248.803,332.02 246.484,330.111 248.803,332.02 248.844,332.443 248.991,333.965 247.099,336.452 245.062,339.21 242.948,339.415 236.776,340.014 236.35,335.617 236.284,334.941 236.344,334.679 236.549,334.147 237.688,331.818 236.549,334.147 236.344,334.679 236.284,334.941 236.35,335.617 236.776,340.014 242.948,339.415 245.062,339.21 247.099,336.452 M233.514,390.855 Q233.197,391.705 232.655,392.559 231.185,395.006 230.236,395.781 231.185,395.006 232.655,392.559 233.197,391.705 233.514,390.855 234.665,388.645 234.489,386.834 L233.954,384.838 234.489,386.834 Q234.665,388.645 233.514,390.855 M272.485,357.972 Q274.626,357.765 277.367,356.389 280.336,355.007 283.972,352.335 289.159,348.442 290.28,346.09 290.715,345.304 290.656,344.688 290.59,344.012 288.678,341.893 286.85,339.766 286.149,339.578 286.85,339.766 288.678,341.893 290.59,344.012 290.656,344.688 290.715,345.304 290.28,346.09 289.159,348.442 283.972,352.335 280.336,355.007 277.367,356.389 274.626,357.765 272.485,357.972 269.188,358.292 266.76,356.138 262.924,352.669 262.654,352.525 262.924,352.669 266.76,356.138 269.188,358.292 272.485,357.972 M292.156,360.161 Q292.091,359.485 290.97,358.484 292.091,359.485 292.156,360.161 292.263,361.26 291.93,362.231 291.598,363.202 290.826,364.045 289.198,365.739 286.746,365.977 285.816,366.067 283.798,365.495 281.864,364.915 280.598,364.184 281.864,364.915 283.798,365.495 285.816,366.067 286.746,365.977 289.198,365.739 290.826,364.045 291.598,363.202 291.93,362.231 292.263,361.26 292.156,360.161 M254.535,393.766 Q258.231,393.152 262.011,392.529 258.231,393.152 254.535,393.766 244.452,396.28 235.32,391.874 244.452,396.28 254.535,393.766 M189.581,293.384 Q185.257,289.28 178.856,287.511 172.538,285.734 167.201,287.02 172.538,285.734 178.856,287.511 185.257,289.28 189.581,293.384Z" test="Avatar Lady" stroke-width="1.699"/>
      <path id="Layer1_0_1_STROKES" stroke="#009EFF" stroke-width="1.699" stroke-linejoin="round" stroke-linecap="round" fill="none" d="M280.655,308.448 Q279.255,304.572 282.235,302.747 285.123,300.845 287.908,299.637 M255.582,258.478 Q255.761,257.692 255.72,257.269 255.638,256.424 252.323,251.283 248.411,245.262 247.789,244.127 245.502,239.911 240.915,239.246 236.223,239.275 234.543,238.67 235.004,239.905 235.406,244.048 L235.827,250.152 Q235.582,250.261 233.656,249.765 231.562,249.285 230.631,249.376 227.334,249.695 225.542,249.699 221.265,249.601 216.531,250.06 L212.988,250.489 M214.777,262.776 Q216.236,263.744 221.842,268.748 226.984,273.37 227.844,274.311 M234.543,238.67 Q234.532,238.585 234.45,238.593 L234.426,238.34 Q234.525,238.499 234.543,238.67Z M212.565,250.53 Q212.549,250.361 212.633,250.353 212.811,250.501 212.988,250.489 L212.565,250.53 Q203.095,251.449 197.572,252.582 186.45,254.941 177.857,259.615 169.602,264.256 162.176,271.292 159.363,273.925 156.691,276.774 156.651,276.818 156.615,276.866 156.384,277.104 156.149,277.338 152.103,281.807 148.403,286.795 142.055,295.262 139.832,304.012 137.6,312.678 137.588,322.238 M137.473,325.449 Q140.177,325.508 143.469,325.679 148.878,326.007 156.668,329.775 157.071,329.99 162.263,332.902 162.312,332.915 162.352,332.937 164.109,333.937 166.415,335.231 M256.684,325.281 Q252.48,323.299 251.174,322.146 249.867,320.992 245.836,320.786 242.78,320.63 234.083,326.321 231.288,328.13 227.921,330.546 214.037,340.512 211.67,340.742 M262.654,352.525 Q262.924,352.669 266.76,356.138 269.188,358.292 272.485,357.972 274.626,357.765 277.414,356.428 280.336,355.007 283.972,352.335 289.159,348.442 290.322,346.086 290.715,345.304 290.656,344.688 290.59,344.012 288.678,341.893 286.85,339.766 286.149,339.578 M298.588,320.876 Q302.969,325.572 305.474,332.924 308.7,342.426 306.149,350.44 306.001,350.898 305.816,351.411 304.142,356.16 299.535,365.846 298.856,367.271 298.115,368.801 292.493,380.355 291.251,386.023 290.144,391.337 288.704,401.12 287.32,408.85 284.71,410.981 280.439,414.468 278.806,415.223 275.277,416.675 268.973,415.921 266.041,415.608 256.075,413.161 252.804,412.327 249.895,411.925 L249.811,411.933 M249.581,413.961 Q244.429,418.045 237.894,427.214 235.071,431.159 232.799,434.962 L232.722,435.055 232.502,435.418 Q231.568,437.058 230.725,438.662 228.606,442.63 227.127,446.436 223.907,454.6 218.478,472.537 215.848,481.117 211.802,494.777 L211.763,494.824 Q211.763,494.894 211.733,494.955 211.712,495.107 211.678,495.259 211.511,495.756 211.349,496.272 210.936,497.734 210.486,499.257 208.42,506.115 205.548,516.976 203.021,525.244 199.746,529.316 M199.406,530.203 Q197.475,534.06 189.235,545.015 183.351,552.878 181.073,556.774 180.354,558.037 179.998,558.884 M280.598,364.184 Q281.864,364.915 283.798,365.495 285.816,366.067 286.746,365.977 289.198,365.739 290.826,364.045 291.598,363.202 291.93,362.231 292.263,361.26 292.156,360.161 292.091,359.485 290.97,358.484 M249.811,411.933 Q246.083,411.407 242.952,411.617 234.776,412.666 231.309,413.002 225.644,413.552 219.496,411.758 215.839,411.003 210.563,408.528 200.097,403.569 190.513,394.513 181.05,385.572 174.221,374.799 M172.497,375.948 Q172.689,382.33 170.396,397.403 168.703,408.86 169.085,417.33 169.153,418.907 169.296,420.382 169.591,423.426 171.695,438.072 173.745,459.209 171.954,467.149 170.763,472.471 168.954,478.45 167.934,482.901 168.525,488.989 168.854,492.38 170.028,496.567 L170.032,496.609 Q171.111,500.444 172.889,504.952 176.53,514.328 176.997,519.148 177.243,521.684 176.551,524.226 176.171,525.586 175.645,526.32 M177.209,527.491 Q177.433,529.415 177.509,533.223 177.513,533.369 177.538,533.519 177.641,538.72 177.509,547.305 L177.513,547.347 Q177.466,550.764 177.373,554.7 M228.093,448.476 L228.053,453.345 Q228.135,454.19 229.055,457.515 229.974,460.84 230.056,461.685 230.138,462.531 231.424,467.868 232.625,473.214 232.707,474.059 233.396,481.161 225.968,511.923 218.454,542.694 219.069,549.035 219.668,555.207 230.387,568.932 238.765,579.641 249.064,589.908 256.522,597.292 275.586,632.825 275.693,633.924 276.394,634.112 277.002,634.224 277.029,633.624 M191.841,589.483 Q194.07,590.462 206.103,600.134 218.987,610.662 219.224,613.114 219.52,616.158 241.811,629.529 264.103,642.9 264.431,646.282 264.529,647.296 264.859,647.179 265.189,647.062 265.206,647.231 L265.825,646.573 M189.581,293.384 Q185.257,289.28 178.856,287.511 172.538,285.734 167.201,287.02 M137.473,325.449 Q137.389,325.468 137.304,325.466 137.216,325.464 137.134,325.482 133.024,325.377 130.317,325.589 123.029,326.125 117.976,328.578 111.703,331.661 110.992,332.242 109.805,333.211 110.12,335.57 110.535,338.09 111.975,339.742 112.371,340.145 113.1,340.786 113.193,340.858 113.286,340.938 L113.332,340.976 M117.429,336.141 Q123.736,335.309 135.507,336.863 135.68,336.885 135.854,336.915 M113.332,340.976 Q115.615,342.984 120.795,347.08 127.686,352.489 131.997,354.784 132.781,355.185 133.474,355.495 139.366,358.166 145.952,357.442 150.763,356.89 157.743,357.579 163.253,358.069 164.886,357.313 M169.088,365.44 L174.065,374.516 Q174.152,374.654 174.221,374.799 M128.783,360.814 Q126.297,364.213 125.575,382.291 125.263,390.514 125.198,392.484 125.196,395.983 125.573,399.872 126.032,404.607 129.002,414.987 131.887,425.376 132.461,431.294 132.521,431.91 132.584,432.562 132.789,435.383 132.768,438.86 132.746,444.56 132.124,452.023 131.69,457.256 130.962,463.359 128.422,484.685 130.095,501.933 130.365,504.724 132.511,513.647 134.607,522.064 134.594,523.687 M135.854,336.915 Q137.612,337.132 139.487,337.416 153.681,339.453 159.067,338.674 M150.879,377.447 L151.254,379.545 Q151.442,381.489 150.682,386.854 149.931,392.304 150.188,396.717 150.41,401.645 151.214,409.931 151.304,410.861 151.929,413.788 152.562,416.799 152.669,417.898 152.675,417.959 152.681,418.025 152.886,420.299 152.717,424.55 152.609,429.596 151.971,430.938 151.3,431.942 150.1,434.533 149.246,436.281 148.845,437.429 148.444,438.577 148.498,439.127 M154.462,474.223 Q154.527,474.899 154.185,481.931 153.758,488.97 153.857,489.985 154.037,491.845 156.059,496.855 157.037,499.384 157.556,500.849 158.038,502.299 158.079,502.719 158.358,505.593 156.422,511.158 154.683,516.106 153.164,518.045 M132.584,432.562 Q127.822,433.622 122.775,439.659 118.092,445.199 117.221,451.036 116.972,452.738 117.042,454.467 117.229,459.911 118.563,516.792 120.029,572.381 120.518,578.307 120.903,582.281 120.976,589.187 120.996,590.201 121.033,591.102 L121.042,591.186 Q121.235,594.078 121.785,595.766 122.27,597.255 162.191,645.444 201.81,693.15 202.222,696.524 M115.159,450.895 Q107.444,455.825 99.664,460.078 88.556,466.106 82.171,467.152 68.837,468.701 53.247,469.872 22.143,472.12 10.949,470.219 M175.645,526.32 Q175.156,527.007 174.522,527.069 M177.373,554.7 L177.377,554.743 Q177.353,556.699 177.301,558.804 177.023,570.045 176.479,585.084 176.393,588.592 187.055,604.371 200.192,623.665 203.158,629.608 223.407,670.316 225.658,689.13 M25.557,571.558 Q32.258,572.017 49.151,576.353 67.537,581.141 77.709,585.702 91.536,591.872 95.126,592.804 102.575,594.812 111.861,592.888 115.625,592.096 118.781,591.192" test="Avatar Lady"/>
      <path id="Layer1_0_2_STROKES" stroke="#FFBC00" stroke-width="1.699" stroke-linejoin="round" stroke-linecap="round" fill="none" d="M234.076,281.814 Q245.281,272.55 257.606,262.634 L265.381,268.878 Q273.507,276.112 275.175,280.986 275.778,282.805 269.707,286.21 262.892,289.858 262.156,292.831 261.233,296.506 263.209,305.446 264.083,309.304 265.098,312.602 265.159,312.811 265.224,313.017 M169.69,333.804 Q171.599,332.876 173.665,331.669 179.872,328.001 187.468,321.753 193.95,316.43 211.713,300.711 222.27,291.623 234.076,281.814 M264.96,313.384 Q265.229,313.605 265.475,313.846 265.343,313.439 265.224,313.017 M264.96,313.384 Q262.171,310.759 258.036,308.423 248.93,303.417 241.198,305.532 233.72,307.623 221.437,316.495 209.695,325.551 203.804,329.599 202.964,330.172 202.242,330.647 198.236,333.34 183.815,342.163 182.367,343.055 181.075,343.837 177.322,346.2 175.011,347.754 172.484,349.484 171.712,350.25" test="Avatar Lady"/>
      <path id="Layer1_0_3_STROKES" stroke="#FF0" stroke-width="1.699" stroke-linejoin="round" stroke-linecap="round" fill="none" d="M285.434,310.203 Q285.729,315.893 290.985,313.762 291.684,313.451 292.238,313.043 294.173,311.558 294.169,308.759 294.144,305.859 291.28,305.369 M237.688,331.818 Q236.549,334.147 236.344,334.679 236.284,334.941 236.35,335.617 236.776,340.014 242.948,339.415 245.062,339.21 247.099,336.452 248.991,333.965 248.844,332.443 248.803,332.02 246.484,330.111" test="Avatar Lady"/>
      <path id="Layer1_0_4_STROKES" stroke="#FFF" stroke-width="1.699" stroke-linejoin="round" stroke-linecap="round" fill="none" d="M233.954,384.838 L234.489,386.834 Q234.665,388.645 233.56,390.893 233.197,391.705 232.655,392.559 231.185,395.006 230.236,395.781 M235.32,391.874 Q244.452,396.28 254.535,393.766 258.231,393.152 262.011,392.529" test="Avatar Lady"/>
    </g>
  </g>
</svg>