<?xml version="1.0" encoding="utf-8"?>
<svg id="EdithAnim08" image-rendering="inherit" baseProfile="basic" version="1.1" x="0px" y="0px" width="800" height="600" xmlns="http://www.w3.org/2000/svg" xmlns:xlink="http://www.w3.org/1999/xlink">
  <g id="No-Rear-To-Rearf0r1" overflow="visible">
    <g id="RightBum">
      <path id="Layer2_0_1_STROKES" stroke="#F0F" stroke-width="3" stroke-linejoin="round" stroke-linecap="round" fill="none" d="M1049.625,168.075 L1057.875,200.475 Q1065.75,236.1 1063.875,252.525 1061.7,271.5 1057.575,292.875 1053.75,312.825 1049.625,327.525 1047,336.9 1044.3,346.875 1043.775,348.225 1043.325,348.825 L1067.85,342.75 M1111.125,193.275 L1029.75,156.975 M1111.125,327.525 L1139.625,323.775 M1036.35,333.75 L1037.1,336.825 Q1038.75,342.825 1040.625,347.1 1042.05,350.325 1043.325,348.825" test="RightBum"/>
      <path id="Layer2_0_2_STROKES" stroke="#F90" stroke-width="3" stroke-linejoin="round" stroke-linecap="round" fill="none" d="M1067.85,342.75 L1070.175,329.25 Q1071.075,324 1071.825,310.95 1072.575,296.475 1073.55,289.35 1076.925,262.875 1089.675,253.275 1096.8,247.875 1103.775,245.4 1109.325,243.375 1114.8,243.225 1119.675,243.15 1125.675,245.25 M1029.75,156.975 Q944.925,119.025 925.125,111.225 912.675,106.35 902.025,103.95 890.85,101.475 881.775,101.775 862.725,102.45 848.175,115.275 832.5,128.925 824.925,146.925 816.9,166.125 820.8,184.275 824.1,199.875 835.725,209.625 841.575,214.5 846.825,216.525 863.775,205.875 880.65,205.275 M1067.85,342.75 L1060.2,387.225 Q1060.725,388.05 1060.125,387.6 L1058.175,398.775 Q1053.525,400.125 1048.2,402.975 1037.4,408.675 1033.65,416.025 1030.275,422.625 1029.825,428.625 1029.525,432.45 1030.425,436.05 1033.2,447.525 1048.125,450.225 1062,452.775 1071.825,446.025 1077.075,442.35 1082.625,435.75 1087.05,431.025 1089.45,429.45 1090.275,428.925 1091.175,428.625 1093.35,427.95 1095.9,428.625 1097.7,429.075 1099.65,430.275 1106.1,434.025 1107.675,433.425 1107.975,433.35 1111.125,428.775 1113.525,425.4 1110.15,420.225 1107.675,416.4 1103.775,413.7 1103.475,413.475 1103.175,413.25 1098.525,411.375 1096.65,410.025 1093.425,407.625 1093.125,400.725 1092.825,393.9 1101.975,353.625 L1111.125,314.775 1114.425,314.925 Q1119.675,315.075 1129.65,314.775 M1044.9,336.825 L1038.075,333 Q1037.175,333.375 1036.35,333.75 1031.55,335.775 1029.15,336.825 1033.95,351.375 1050.375,374.025 1054.125,379.2 1059.15,385.8 1059.825,386.7 1060.2,387.225 L1060.125,387.6 Q1059.75,387.375 1059.15,386.775 M1029.15,336.825 Q1023.075,339.6 1020.3,342 1016.85,344.925 1016.175,348.9 1014.825,356.4 1023.15,368.325 1033.5,383.1 1055.625,398.775 M1036.35,333.75 L1035.825,331.725 1038.075,333 Q1039.5,332.4 1041.15,331.725 M846.825,216.525 Q842.7,219.075 838.575,222.225 824.775,232.95 818.25,242.25 814.275,247.95 813,253.125 809.475,266.775 810,278.775 810.525,290.775 813.825,305.55 815.775,310.275 818.25,315.075 819,316.575 819.825,318.075 830.775,338.4 846.075,352.725 862.425,368.025 884.025,373.575 893.925,376.05 902.025,376.2 907.5,376.275 912.15,375.225 911.55,375.9 950.025,405.375 965.25,417.075 980.55,428.625 984.6,431.7 988.65,434.775 L979.65,448.275 M954.15,410.25 L943.65,421.725" test="RightBum"/>
    </g>
    <g id="LeftBum">
      <path id="Layer1_0_1_STROKES" stroke="#FEB7AE" stroke-width="3" stroke-linejoin="round" stroke-linecap="round" fill="none" d="M-222.35,150 Q-200.825,136.05 -178.325,125.025 -155.975,114.15 -134.9,107.175 -107.675,98.175 -89.45,98.25 -66.5,98.325 -49.925,103.95 -30.425,110.625 -15.35,126.3 -8.15,133.725 -6.35,149.85 -5,161.625 -6.65,175.8 -7.925,186.525 -15.05,195.675 -19.25,201 -28.925,211.95 -27.425,213.45 -26.075,214.875 -19.475,221.925 -14.3,231.3 -10.775,237.675 -8.9,245.775 -7.25,252.9 -6.8,261.375 -6.125,274.575 -8.45,287.7 -8.975,290.475 -9.65,293.25 -18.65,332.775 -41.3,356.25 -58.7,374.25 -81.425,385.5 -81.725,385.65 -99.05,393.6 -109.1,398.25 -115.325,402.3 -124.625,408.3 -131.825,413.925 -138.35,419.025 -146.3,426.3 -153.125,432.45 -155.525,439.5 -158.45,447.975 -153.35,454.05 -151.775,456 -146.375,458.775 -140.975,461.55 -141.35,460.275 M-111.8,199.8 Q-97.325,188.925 -76.1,189.6 -55.4,190.275 -41.3,201.3 -33.95,207.075 -28.925,211.95 M-333.8,243.3 Q-328.325,243.15 -320.45,244.275 -315.95,244.95 -307.1,246.375 -300.725,247.2 -291.8,248.025 -286.7,248.475 -276.5,249.3 -269.9,249.825 -261.5,251.925 -259.85,252.3 -256.625,252.525 -254.45,252.6 -253.25,253.425 -250.4,255.375 -243.8,269.25 -236.9,283.8 -233.3,294.6 -230.225,303.9 -226.175,321.075 -224.375,328.65 -220.25,339.075 -215,352.35 -213.575,356.775 -213.125,358.125 -211.1,366.975 -209,375.525 -207.8,376.8 -205.775,379.05 -206.15,380.025 -206.15,380.175 -203.15,380.775 -198.275,381.75 -192.2,387.075 -186.125,392.25 -182.6,398.55 -178.625,405.375 -179.9,409.95 -181.4,415.275 -189.8,416.025 -193.925,418.125 -200.975,416.55 -208.85,414.225 -212.375,413.775 -219.65,412.8 -229.1,414.675 -235.175,415.65 -238.025,416.25 -242.75,417.3 -246.5,419.4 -249.275,421.05 -252.875,423.825 -254.9,425.4 -258.875,428.625 -260.975,425.55 -258.425,418.875 -254.975,411.675 -253.925,409.35 -253.1,407.475 -250.325,404.85 -247.625,402.15 -246.95,400.65 -245.675,397.95 -247.4,390.075 -248.075,386.925 -250.25,379.35 -251.825,373.5 -255.725,366.75 -258.05,362.775 -263.3,355.125 M-248.3,397.275 Q-248.825,397.65 -256.775,401.1 -263.075,403.8 -264.875,406.575 -267.875,411.375 -268.4,415.65 -269.225,422.775 -265.85,436.275 -265.475,437.775 -265.025,439.2 -264.05,442.275 -262.7,445.2 -261.125,448.725 -258.95,452.025 -257.6,454.125 -248.3,465.75 M-263.3,355.125 Q-264.575,353.175 -269.225,347.325 -272.9,342.525 -274.85,339.225 -276.2,336.45 -277.025,334.95 -278.45,332.1 -279.8,331.275 -281.375,330.3 -285.2,330.225 -289.4,330.375 -290.825,330.3 -295.325,330.075 -302.075,330.525 -312.65,331.275 -313.325,331.275 -330.95,332.1 -342.35,330.375 -345.275,330 -352.55,327.225 -358.925,324.75 -362.825,324.75 M-232.85,465.3 Q-236.3,465 -239.9,461.325 -242.9,458.25 -244.85,454.275 -247.025,449.7 -247.925,445.35 -247.925,445.275 -247.925,445.2 -248.675,441.825 -248.45,439.2 -248.375,437.625 -247.925,436.35 -245.45,428.775 -238.25,424.05 -234.275,421.425 -223.85,417.3" test="LeftBum"/>
      <path id="Layer1_0_2_STROKES" stroke="#0FF" stroke-width="3" stroke-linejoin="round" stroke-linecap="round" fill="none" d="M-222.35,150 L-216.575,153.6 Q-209.525,158.175 -203.375,163.65 -183.575,181.05 -179.675,199.8 -176.45,214.8 -169.025,248.325 -163.625,278.775 -165.8,303.3 -168.875,336.825 -170.6,346.275 -173.3,361.2 -179.675,369.75 L-191.3,385.8 M-263.3,355.125 L-265.85,392.25 -248.3,397.275 M-341.3,196.275 Q-329.6,193.2 -301.325,183.15 -276.275,174.3 -261.35,171.075 -253.625,169.425 -247.25,166.2 -242.3,163.65 -234.65,158.325 -228.5,154.05 -222.35,150" test="LeftBum"/>
    </g>
  </g>
</svg>