<?xml version="1.0" encoding="utf-8"?>
<svg id="EdithAnim08" image-rendering="inherit" baseProfile="basic" version="1.1" x="0px" y="0px" width="800" height="600" xmlns="http://www.w3.org/2000/svg" xmlns:xlink="http://www.w3.org/1999/xlink">
  <g id="No-Rear-To-Rearf1r1" overflow="visible">
    <g id="RightBum">
      <path id="Layer2_0_1_STROKES" stroke="#F0F" stroke-width="3" stroke-linejoin="round" stroke-linecap="round" fill="none" d="M1047.225,168.075 L1055.475,200.475 Q1063.35,236.1 1061.475,252.525 1059.3,271.5 1055.175,292.875 1051.35,312.825 1047.225,327.525 1044.6,336.9 1041.9,346.875 1041.375,348.225 1040.925,348.825 L1065.45,342.75 M1108.725,193.275 L1027.35,156.975 M1108.725,327.525 L1137.225,323.775 M1033.95,333.75 L1034.7,336.825 Q1036.35,342.825 1038.225,347.1 1039.65,350.325 1040.925,348.825" test="RightBum"/>
      <path id="Layer2_0_2_STROKES" stroke="#F90" stroke-width="3" stroke-linejoin="round" stroke-linecap="round" fill="none" d="M1065.45,342.75 L1067.775,329.25 Q1068.675,324 1069.425,310.95 1070.175,296.475 1071.15,289.35 1074.525,262.875 1087.275,253.275 1094.4,247.875 1101.375,245.4 1106.925,243.375 1112.4,243.225 1117.275,243.15 1123.275,245.25 M1027.35,156.975 Q942.525,119.025 922.725,111.225 910.275,106.35 899.625,103.95 888.45,101.475 879.375,101.775 860.325,102.45 845.775,115.275 830.1,128.925 822.525,146.925 814.5,166.125 818.4,184.275 821.7,199.875 833.325,209.625 839.175,214.5 844.425,216.525 861.375,205.875 878.25,205.275 M1065.45,342.75 L1057.8,387.225 Q1058.325,388.05 1057.725,387.6 L1055.775,398.775 Q1051.125,400.125 1045.8,402.975 1035,408.675 1031.25,416.025 1027.875,422.625 1027.425,428.625 1027.125,432.45 1028.025,436.05 1030.8,447.525 1045.725,450.225 1059.6,452.775 1069.425,446.025 1074.675,442.35 1080.225,435.75 1084.65,431.025 1087.05,429.45 1087.875,428.925 1088.775,428.625 1090.95,427.95 1093.5,428.625 1095.3,429.075 1097.25,430.275 1103.7,434.025 1105.275,433.425 1105.575,433.35 1108.725,428.775 1111.125,425.4 1107.75,420.225 1105.275,416.4 1101.375,413.7 1101.075,413.475 1100.775,413.25 1096.125,411.375 1094.25,410.025 1091.025,407.625 1090.725,400.725 1090.425,393.9 1099.575,353.625 L1108.725,314.775 1112.025,314.925 Q1117.275,315.075 1127.25,314.775 M1042.5,336.825 L1035.675,333 Q1034.775,333.375 1033.95,333.75 1029.15,335.775 1026.75,336.825 1031.55,351.375 1047.975,374.025 1051.725,379.2 1056.75,385.8 1057.425,386.7 1057.8,387.225 L1057.725,387.6 Q1057.35,387.375 1056.75,386.775 M1026.75,336.825 Q1020.675,339.6 1017.9,342 1014.45,344.925 1013.775,348.9 1012.425,356.4 1020.75,368.325 1031.1,383.1 1053.225,398.775 M1033.95,333.75 L1033.425,331.725 1035.675,333 Q1037.1,332.4 1038.75,331.725 M844.425,216.525 Q840.3,219.075 836.175,222.225 822.375,232.95 815.85,242.25 811.875,247.95 810.6,253.125 807.075,266.775 807.6,278.775 808.125,290.775 811.425,305.55 813.375,310.275 815.85,315.075 816.6,316.575 817.425,318.075 828.375,338.4 843.675,352.725 860.025,368.025 881.625,373.575 891.525,376.05 899.625,376.2 905.1,376.275 909.75,375.225 909.15,375.9 947.625,405.375 962.85,417.075 978.15,428.625 982.2,431.7 986.25,434.775 L977.25,448.275 M951.75,410.25 L941.25,421.725" test="RightBum"/>
    </g>
    <g id="LeftBum">
      <path id="Layer1_0_1_STROKES" stroke="#FEB7AE" stroke-width="3" stroke-linejoin="round" stroke-linecap="round" fill="none" d="M-219.85,150 Q-198.325,136.05 -175.825,125.025 -153.475,114.15 -132.4,107.175 -105.175,98.175 -86.95,98.25 -64,98.325 -47.425,103.95 -27.925,110.625 -12.85,126.3 -5.65,133.725 -3.85,149.85 -2.5,161.625 -4.15,175.8 -5.425,186.525 -12.55,195.675 -16.75,201 -26.425,211.95 -24.925,213.45 -23.575,214.875 -16.975,221.925 -11.8,231.3 -8.275,237.675 -6.4,245.775 -4.75,252.9 -4.3,261.375 -3.625,274.575 -5.95,287.7 -6.475,290.475 -7.15,293.25 -16.15,332.775 -38.8,356.25 -56.2,374.25 -78.925,385.5 -79.225,385.65 -96.55,393.6 -106.6,398.25 -112.825,402.3 -122.125,408.3 -129.325,413.925 -135.85,419.025 -143.8,426.3 -150.625,432.45 -153.025,439.5 -155.95,447.975 -150.85,454.05 -149.275,456 -143.875,458.775 -138.475,461.55 -138.85,460.275 M-109.3,199.8 Q-94.825,188.925 -73.6,189.6 -52.9,190.275 -38.8,201.3 -31.45,207.075 -26.425,211.95 M-331.3,243.3 Q-325.825,243.15 -317.95,244.275 -313.45,244.95 -304.6,246.375 -298.225,247.2 -289.3,248.025 -284.2,248.475 -274,249.3 -267.4,249.825 -259,251.925 -257.35,252.3 -254.125,252.525 -251.95,252.6 -250.75,253.425 -247.9,255.375 -241.3,269.25 -234.4,283.8 -230.8,294.6 -227.725,303.9 -223.675,321.075 -221.875,328.65 -217.75,339.075 -212.5,352.35 -211.075,356.775 -210.625,358.125 -208.6,366.975 -206.5,375.525 -205.3,376.8 -203.275,379.05 -203.65,380.025 -203.65,380.175 -200.65,380.775 -195.775,381.75 -189.7,387.075 -183.625,392.25 -180.1,398.55 -176.125,405.375 -177.4,409.95 -178.9,415.275 -187.3,416.025 -191.425,418.125 -198.475,416.55 -206.35,414.225 -209.875,413.775 -217.15,412.8 -226.6,414.675 -232.675,415.65 -235.525,416.25 -240.25,417.3 -244,419.4 -246.775,421.05 -250.375,423.825 -252.4,425.4 -256.375,428.625 -258.475,425.55 -255.925,418.875 -252.475,411.675 -251.425,409.35 -250.6,407.475 -247.825,404.85 -245.125,402.15 -244.45,400.65 -243.175,397.95 -244.9,390.075 -245.575,386.925 -247.75,379.35 -249.325,373.5 -253.225,366.75 -255.55,362.775 -260.8,355.125 M-245.8,397.275 Q-246.325,397.65 -254.275,401.1 -260.575,403.8 -262.375,406.575 -265.375,411.375 -265.9,415.65 -266.725,422.775 -263.35,436.275 -262.975,437.775 -262.525,439.2 -261.55,442.275 -260.2,445.2 -258.625,448.725 -256.45,452.025 -255.1,454.125 -245.8,465.75 M-260.8,355.125 Q-262.075,353.175 -266.725,347.325 -270.4,342.525 -272.35,339.225 -273.7,336.45 -274.525,334.95 -275.95,332.1 -277.3,331.275 -278.875,330.3 -282.7,330.225 -286.9,330.375 -288.325,330.3 -292.825,330.075 -299.575,330.525 -310.15,331.275 -310.825,331.275 -328.45,332.1 -339.85,330.375 -342.775,330 -350.05,327.225 -356.425,324.75 -360.325,324.75 M-230.35,465.3 Q-233.8,465 -237.4,461.325 -240.4,458.25 -242.35,454.275 -244.525,449.7 -245.425,445.35 -245.425,445.275 -245.425,445.2 -246.175,441.825 -245.95,439.2 -245.875,437.625 -245.425,436.35 -242.95,428.775 -235.75,424.05 -231.775,421.425 -221.35,417.3" test="LeftBum"/>
      <path id="Layer1_0_2_STROKES" stroke="#0FF" stroke-width="3" stroke-linejoin="round" stroke-linecap="round" fill="none" d="M-219.85,150 L-214.075,153.6 Q-207.025,158.175 -200.875,163.65 -181.075,181.05 -177.175,199.8 -173.95,214.8 -166.525,248.325 -161.125,278.775 -163.3,303.3 -166.375,336.825 -168.1,346.275 -170.8,361.2 -177.175,369.75 L-188.8,385.8 M-260.8,355.125 L-263.35,392.25 -245.8,397.275 M-338.8,196.275 Q-327.1,193.2 -298.825,183.15 -273.775,174.3 -258.85,171.075 -251.125,169.425 -244.75,166.2 -239.8,163.65 -232.15,158.325 -226,154.05 -219.85,150" test="LeftBum"/>
    </g>
  </g>
</svg>