<?xml version="1.0" encoding="utf-8"?>
<svg id="EdithAnim08" image-rendering="inherit" baseProfile="basic" version="1.1" x="0px" y="0px" width="800" height="600" xmlns="http://www.w3.org/2000/svg" xmlns:xlink="http://www.w3.org/1999/xlink">
  <g id="No-Rear-To-Rearf101r1" overflow="visible">
    <g id="RightBum">
      <path id="Layer2_0_1_STROKES" stroke="#F0F" stroke-width="3" stroke-linejoin="round" stroke-linecap="round" fill="none" d="M843.075,168.075 L851.325,200.475 Q859.2,236.1 857.325,252.525 855.15,271.5 851.025,292.875 847.2,312.825 843.075,327.525 840.45,336.9 837.75,346.875 837.225,348.225 836.775,348.825 L861.3,342.75 M904.575,193.275 L823.2,156.975 M904.575,327.525 L933.075,323.775 M829.8,333.75 L830.55,336.825 Q832.2,342.825 834.075,347.1 835.5,350.325 836.775,348.825" test="RightBum"/>
      <path id="Layer2_0_2_STROKES" stroke="#F90" stroke-width="3" stroke-linejoin="round" stroke-linecap="round" fill="none" d="M861.3,342.75 L863.625,329.25 Q864.525,324 865.275,310.95 866.025,296.475 867,289.35 870.375,262.875 883.125,253.275 890.25,247.875 897.225,245.4 902.775,243.375 908.25,243.225 913.125,243.15 919.125,245.25 M823.2,156.975 Q738.375,119.025 718.575,111.225 706.125,106.35 695.475,103.95 684.3,101.475 675.225,101.775 656.175,102.45 641.625,115.275 625.95,128.925 618.375,146.925 610.35,166.125 614.25,184.275 617.55,199.875 629.175,209.625 635.025,214.5 640.275,216.525 657.225,205.875 674.1,205.275 M861.3,342.75 L853.65,387.225 Q854.175,388.05 853.575,387.6 L851.625,398.775 Q846.975,400.125 841.65,402.975 830.85,408.675 827.1,416.025 823.725,422.625 823.275,428.625 822.975,432.45 823.875,436.05 826.65,447.525 841.575,450.225 855.45,452.775 865.275,446.025 870.525,442.35 876.075,435.75 880.5,431.025 882.9,429.45 883.725,428.925 884.625,428.625 886.8,427.95 889.35,428.625 891.15,429.075 893.1,430.275 899.55,434.025 901.125,433.425 901.425,433.35 904.575,428.775 906.975,425.4 903.6,420.225 901.125,416.4 897.225,413.7 896.925,413.475 896.625,413.25 891.975,411.375 890.1,410.025 886.875,407.625 886.575,400.725 886.275,393.9 895.425,353.625 L904.575,314.775 907.875,314.925 Q913.125,315.075 923.1,314.775 M838.35,336.825 L831.525,333 Q830.625,333.375 829.8,333.75 825,335.775 822.6,336.825 827.4,351.375 843.825,374.025 847.575,379.2 852.6,385.8 853.275,386.7 853.65,387.225 L853.575,387.6 Q853.2,387.375 852.6,386.775 M822.6,336.825 Q816.525,339.6 813.75,342 810.3,344.925 809.625,348.9 808.275,356.4 816.6,368.325 826.95,383.1 849.075,398.775 M829.8,333.75 L829.275,331.725 831.525,333 Q832.95,332.4 834.6,331.725 M640.275,216.525 Q636.15,219.075 632.025,222.225 618.225,232.95 611.7,242.25 607.725,247.95 606.45,253.125 602.925,266.775 603.45,278.775 603.975,290.775 607.275,305.55 609.225,310.275 611.7,315.075 612.45,316.575 613.275,318.075 624.225,338.4 639.525,352.725 655.875,368.025 677.475,373.575 687.375,376.05 695.475,376.2 700.95,376.275 705.6,375.225 705,375.9 743.475,405.375 758.7,417.075 774,428.625 778.05,431.7 782.1,434.775 L773.1,448.275 M747.6,410.25 L737.1,421.725" test="RightBum"/>
    </g>
    <g id="LeftBum">
      <path id="Layer1_0_1_STROKES" stroke="#FEB7AE" stroke-width="3" stroke-linejoin="round" stroke-linecap="round" fill="none" d="M-12.4,150 Q9.125,136.05 31.625,125.025 53.975,114.15 75.05,107.175 102.275,98.175 120.5,98.25 143.45,98.325 160.025,103.95 179.525,110.625 194.6,126.3 201.8,133.725 203.6,149.85 204.95,161.625 203.3,175.8 202.025,186.525 194.9,195.675 190.7,201 181.025,211.95 182.525,213.45 183.875,214.875 190.475,221.925 195.65,231.3 199.175,237.675 201.05,245.775 202.7,252.9 203.15,261.375 203.825,274.575 201.5,287.7 200.975,290.475 200.3,293.25 191.3,332.775 168.65,356.25 151.25,374.25 128.525,385.5 128.225,385.65 110.9,393.6 100.85,398.25 94.625,402.3 85.325,408.3 78.125,413.925 71.6,419.025 63.65,426.3 56.825,432.45 54.425,439.5 51.5,447.975 56.6,454.05 58.175,456 63.575,458.775 68.975,461.55 68.6,460.275 M98.15,199.8 Q112.625,188.925 133.85,189.6 154.55,190.275 168.65,201.3 176,207.075 181.025,211.95 M-123.85,243.3 Q-118.375,243.15 -110.5,244.275 -106,244.95 -97.15,246.375 -90.775,247.2 -81.85,248.025 -76.75,248.475 -66.55,249.3 -59.95,249.825 -51.55,251.925 -49.9,252.3 -46.675,252.525 -44.5,252.6 -43.3,253.425 -40.45,255.375 -33.85,269.25 -26.95,283.8 -23.35,294.6 -20.275,303.9 -16.225,321.075 -14.425,328.65 -10.3,339.075 -5.05,352.35 -3.625,356.775 -3.175,358.125 -1.15,366.975 .95,375.525 2.15,376.8 4.175,379.05 3.8,380.025 3.8,380.175 6.8,380.775 11.675,381.75 17.75,387.075 23.825,392.25 27.35,398.55 31.325,405.375 30.05,409.95 28.55,415.275 20.15,416.025 16.025,418.125 8.975,416.55 1.1,414.225 -2.425,413.775 -9.7,412.8 -19.15,414.675 -25.225,415.65 -28.075,416.25 -32.8,417.3 -36.55,419.4 -39.325,421.05 -42.925,423.825 -44.95,425.4 -48.925,428.625 -51.025,425.55 -48.475,418.875 -45.025,411.675 -43.975,409.35 -43.15,407.475 -40.375,404.85 -37.675,402.15 -37,400.65 -35.725,397.95 -37.45,390.075 -38.125,386.925 -40.3,379.35 -41.875,373.5 -45.775,366.75 -48.1,362.775 -53.35,355.125 M-38.35,397.275 Q-38.875,397.65 -46.825,401.1 -53.125,403.8 -54.925,406.575 -57.925,411.375 -58.45,415.65 -59.275,422.775 -55.9,436.275 -55.525,437.775 -55.075,439.2 -54.1,442.275 -52.75,445.2 -51.175,448.725 -49,452.025 -47.65,454.125 -38.35,465.75 M-53.35,355.125 Q-54.625,353.175 -59.275,347.325 -62.95,342.525 -64.9,339.225 -66.25,336.45 -67.075,334.95 -68.5,332.1 -69.85,331.275 -71.425,330.3 -75.25,330.225 -79.45,330.375 -80.875,330.3 -85.375,330.075 -92.125,330.525 -102.7,331.275 -103.375,331.275 -121,332.1 -132.4,330.375 -135.325,330 -142.6,327.225 -148.975,324.75 -152.875,324.75 M-22.9,465.3 Q-26.35,465 -29.95,461.325 -32.95,458.25 -34.9,454.275 -37.075,449.7 -37.975,445.35 -37.975,445.275 -37.975,445.2 -38.725,441.825 -38.5,439.2 -38.425,437.625 -37.975,436.35 -35.5,428.775 -28.3,424.05 -24.325,421.425 -13.9,417.3" test="LeftBum"/>
      <path id="Layer1_0_2_STROKES" stroke="#0FF" stroke-width="3" stroke-linejoin="round" stroke-linecap="round" fill="none" d="M-12.4,150 L-6.625,153.6 Q0.425,158.175 6.575,163.65 26.375,181.05 30.275,199.8 33.5,214.8 40.925,248.325 46.325,278.775 44.15,303.3 41.075,336.825 39.35,346.275 36.65,361.2 30.275,369.75 L18.65,385.8 M-53.35,355.125 L-55.9,392.25 -38.35,397.275 M-131.35,196.275 Q-119.65,193.2 -91.375,183.15 -66.325,174.3 -51.4,171.075 -43.675,169.425 -37.3,166.2 -32.35,163.65 -24.7,158.325 -18.55,154.05 -12.4,150" test="LeftBum"/>
    </g>
  </g>
</svg>