<?xml version="1.0" encoding="utf-8"?>
<svg id="EdithAnim08" image-rendering="inherit" baseProfile="basic" version="1.1" x="0px" y="0px" width="800" height="600" xmlns="http://www.w3.org/2000/svg" xmlns:xlink="http://www.w3.org/1999/xlink">
  <g id="No-Rear-To-Rearf102r1" overflow="visible">
    <g id="RightBum">
      <path id="Layer2_0_1_STROKES" stroke="#F0F" stroke-width="3" stroke-linejoin="round" stroke-linecap="round" fill="none" d="M841.375,168.075 L849.625,200.475 Q857.5,236.1 855.625,252.525 853.45,271.5 849.325,292.875 845.5,312.825 841.375,327.525 838.75,336.9 836.05,346.875 835.525,348.225 835.075,348.825 L859.6,342.75 M902.875,193.275 L821.5,156.975 M902.875,327.525 L931.375,323.775 M828.1,333.75 L828.85,336.825 Q830.5,342.825 832.375,347.1 833.8,350.325 835.075,348.825" test="RightBum"/>
      <path id="Layer2_0_2_STROKES" stroke="#F90" stroke-width="3" stroke-linejoin="round" stroke-linecap="round" fill="none" d="M859.6,342.75 L861.925,329.25 Q862.825,324 863.575,310.95 864.325,296.475 865.3,289.35 868.675,262.875 881.425,253.275 888.55,247.875 895.525,245.4 901.075,243.375 906.55,243.225 911.425,243.15 917.425,245.25 M821.5,156.975 Q736.675,119.025 716.875,111.225 704.425,106.35 693.775,103.95 682.6,101.475 673.525,101.775 654.475,102.45 639.925,115.275 624.25,128.925 616.675,146.925 608.65,166.125 612.55,184.275 615.85,199.875 627.475,209.625 633.325,214.5 638.575,216.525 655.525,205.875 672.4,205.275 M859.6,342.75 L851.95,387.225 Q852.475,388.05 851.875,387.6 L849.925,398.775 Q845.275,400.125 839.95,402.975 829.15,408.675 825.4,416.025 822.025,422.625 821.575,428.625 821.275,432.45 822.175,436.05 824.95,447.525 839.875,450.225 853.75,452.775 863.575,446.025 868.825,442.35 874.375,435.75 878.8,431.025 881.2,429.45 882.025,428.925 882.925,428.625 885.1,427.95 887.65,428.625 889.45,429.075 891.4,430.275 897.85,434.025 899.425,433.425 899.725,433.35 902.875,428.775 905.275,425.4 901.9,420.225 899.425,416.4 895.525,413.7 895.225,413.475 894.925,413.25 890.275,411.375 888.4,410.025 885.175,407.625 884.875,400.725 884.575,393.9 893.725,353.625 L902.875,314.775 906.175,314.925 Q911.425,315.075 921.4,314.775 M836.65,336.825 L829.825,333 Q828.925,333.375 828.1,333.75 823.3,335.775 820.9,336.825 825.7,351.375 842.125,374.025 845.875,379.2 850.9,385.8 851.575,386.7 851.95,387.225 L851.875,387.6 Q851.5,387.375 850.9,386.775 M820.9,336.825 Q814.825,339.6 812.05,342 808.6,344.925 807.925,348.9 806.575,356.4 814.9,368.325 825.25,383.1 847.375,398.775 M828.1,333.75 L827.575,331.725 829.825,333 Q831.25,332.4 832.9,331.725 M638.575,216.525 Q634.45,219.075 630.325,222.225 616.525,232.95 610,242.25 606.025,247.95 604.75,253.125 601.225,266.775 601.75,278.775 602.275,290.775 605.575,305.55 607.525,310.275 610,315.075 610.75,316.575 611.575,318.075 622.525,338.4 637.825,352.725 654.175,368.025 675.775,373.575 685.675,376.05 693.775,376.2 699.25,376.275 703.9,375.225 703.3,375.9 741.775,405.375 757,417.075 772.3,428.625 776.35,431.7 780.4,434.775 L771.4,448.275 M745.9,410.25 L735.4,421.725" test="RightBum"/>
    </g>
    <g id="LeftBum">
      <path id="Layer1_0_1_STROKES" stroke="#FEB7AE" stroke-width="3" stroke-linejoin="round" stroke-linecap="round" fill="none" d="M-10.7,150 Q10.825,136.05 33.325,125.025 55.675,114.15 76.75,107.175 103.975,98.175 122.2,98.25 145.15,98.325 161.725,103.95 181.225,110.625 196.3,126.3 203.5,133.725 205.3,149.85 206.65,161.625 205,175.8 203.725,186.525 196.6,195.675 192.4,201 182.725,211.95 184.225,213.45 185.575,214.875 192.175,221.925 197.35,231.3 200.875,237.675 202.75,245.775 204.4,252.9 204.85,261.375 205.525,274.575 203.2,287.7 202.675,290.475 202,293.25 193,332.775 170.35,356.25 152.95,374.25 130.225,385.5 129.925,385.65 112.6,393.6 102.55,398.25 96.325,402.3 87.025,408.3 79.825,413.925 73.3,419.025 65.35,426.3 58.525,432.45 56.125,439.5 53.2,447.975 58.3,454.05 59.875,456 65.275,458.775 70.675,461.55 70.3,460.275 M99.85,199.8 Q114.325,188.925 135.55,189.6 156.25,190.275 170.35,201.3 177.7,207.075 182.725,211.95 M-122.15,243.3 Q-116.675,243.15 -108.8,244.275 -104.3,244.95 -95.45,246.375 -89.075,247.2 -80.15,248.025 -75.05,248.475 -64.85,249.3 -58.25,249.825 -49.85,251.925 -48.2,252.3 -44.975,252.525 -42.8,252.6 -41.6,253.425 -38.75,255.375 -32.15,269.25 -25.25,283.8 -21.65,294.6 -18.575,303.9 -14.525,321.075 -12.725,328.65 -8.6,339.075 -3.35,352.35 -1.925,356.775 -1.475,358.125 .55,366.975 2.65,375.525 3.85,376.8 5.875,379.05 5.5,380.025 5.5,380.175 8.5,380.775 13.375,381.75 19.45,387.075 25.525,392.25 29.05,398.55 33.025,405.375 31.75,409.95 30.25,415.275 21.85,416.025 17.725,418.125 10.675,416.55 2.8,414.225 -.725,413.775 -8,412.8 -17.45,414.675 -23.525,415.65 -26.375,416.25 -31.1,417.3 -34.85,419.4 -37.625,421.05 -41.225,423.825 -43.25,425.4 -47.225,428.625 -49.325,425.55 -46.775,418.875 -43.325,411.675 -42.275,409.35 -41.45,407.475 -38.675,404.85 -35.975,402.15 -35.3,400.65 -34.025,397.95 -35.75,390.075 -36.425,386.925 -38.6,379.35 -40.175,373.5 -44.075,366.75 -46.4,362.775 -51.65,355.125 M-36.65,397.275 Q-37.175,397.65 -45.125,401.1 -51.425,403.8 -53.225,406.575 -56.225,411.375 -56.75,415.65 -57.575,422.775 -54.2,436.275 -53.825,437.775 -53.375,439.2 -52.4,442.275 -51.05,445.2 -49.475,448.725 -47.3,452.025 -45.95,454.125 -36.65,465.75 M-51.65,355.125 Q-52.925,353.175 -57.575,347.325 -61.25,342.525 -63.2,339.225 -64.55,336.45 -65.375,334.95 -66.8,332.1 -68.15,331.275 -69.725,330.3 -73.55,330.225 -77.75,330.375 -79.175,330.3 -83.675,330.075 -90.425,330.525 -101,331.275 -101.675,331.275 -119.3,332.1 -130.7,330.375 -133.625,330 -140.9,327.225 -147.275,324.75 -151.175,324.75 M-21.2,465.3 Q-24.65,465 -28.25,461.325 -31.25,458.25 -33.2,454.275 -35.375,449.7 -36.275,445.35 -36.275,445.275 -36.275,445.2 -37.025,441.825 -36.8,439.2 -36.725,437.625 -36.275,436.35 -33.8,428.775 -26.6,424.05 -22.625,421.425 -12.2,417.3" test="LeftBum"/>
      <path id="Layer1_0_2_STROKES" stroke="#0FF" stroke-width="3" stroke-linejoin="round" stroke-linecap="round" fill="none" d="M-10.7,150 L-4.925,153.6 Q2.125,158.175 8.275,163.65 28.075,181.05 31.975,199.8 35.2,214.8 42.625,248.325 48.025,278.775 45.85,303.3 42.775,336.825 41.05,346.275 38.35,361.2 31.975,369.75 L20.35,385.8 M-51.65,355.125 L-54.2,392.25 -36.65,397.275 M-129.65,196.275 Q-117.95,193.2 -89.675,183.15 -64.625,174.3 -49.7,171.075 -41.975,169.425 -35.6,166.2 -30.65,163.65 -23,158.325 -16.85,154.05 -10.7,150" test="LeftBum"/>
    </g>
  </g>
</svg>