<?xml version="1.0" encoding="utf-8"?>
<svg id="EdithAnim08" image-rendering="inherit" baseProfile="basic" version="1.1" x="0px" y="0px" width="800" height="600" xmlns="http://www.w3.org/2000/svg" xmlns:xlink="http://www.w3.org/1999/xlink">
  <g id="No-Rear-To-Rearf104r1" overflow="visible">
    <g id="RightBum">
      <path id="Layer2_0_1_STROKES" stroke="#F0F" stroke-width="3" stroke-linejoin="round" stroke-linecap="round" fill="none" d="M838.025,168.075 L846.275,200.475 Q854.15,236.1 852.275,252.525 850.1,271.5 845.975,292.875 842.15,312.825 838.025,327.525 835.4,336.9 832.7,346.875 832.175,348.225 831.725,348.825 L856.25,342.75 M899.525,193.275 L818.15,156.975 M899.525,327.525 L928.025,323.775 M824.75,333.75 L825.5,336.825 Q827.15,342.825 829.025,347.1 830.45,350.325 831.725,348.825" test="RightBum"/>
      <path id="Layer2_0_2_STROKES" stroke="#F90" stroke-width="3" stroke-linejoin="round" stroke-linecap="round" fill="none" d="M856.25,342.75 L858.575,329.25 Q859.475,324 860.225,310.95 860.975,296.475 861.95,289.35 865.325,262.875 878.075,253.275 885.2,247.875 892.175,245.4 897.725,243.375 903.2,243.225 908.075,243.15 914.075,245.25 M818.15,156.975 Q733.325,119.025 713.525,111.225 701.075,106.35 690.425,103.95 679.25,101.475 670.175,101.775 651.125,102.45 636.575,115.275 620.9,128.925 613.325,146.925 605.3,166.125 609.2,184.275 612.5,199.875 624.125,209.625 629.975,214.5 635.225,216.525 652.175,205.875 669.05,205.275 M856.25,342.75 L848.6,387.225 Q849.125,388.05 848.525,387.6 L846.575,398.775 Q841.925,400.125 836.6,402.975 825.8,408.675 822.05,416.025 818.675,422.625 818.225,428.625 817.925,432.45 818.825,436.05 821.6,447.525 836.525,450.225 850.4,452.775 860.225,446.025 865.475,442.35 871.025,435.75 875.45,431.025 877.85,429.45 878.675,428.925 879.575,428.625 881.75,427.95 884.3,428.625 886.1,429.075 888.05,430.275 894.5,434.025 896.075,433.425 896.375,433.35 899.525,428.775 901.925,425.4 898.55,420.225 896.075,416.4 892.175,413.7 891.875,413.475 891.575,413.25 886.925,411.375 885.05,410.025 881.825,407.625 881.525,400.725 881.225,393.9 890.375,353.625 L899.525,314.775 902.825,314.925 Q908.075,315.075 918.05,314.775 M833.3,336.825 L826.475,333 Q825.575,333.375 824.75,333.75 819.95,335.775 817.55,336.825 822.35,351.375 838.775,374.025 842.525,379.2 847.55,385.8 848.225,386.7 848.6,387.225 L848.525,387.6 Q848.15,387.375 847.55,386.775 M817.55,336.825 Q811.475,339.6 808.7,342 805.25,344.925 804.575,348.9 803.225,356.4 811.55,368.325 821.9,383.1 844.025,398.775 M824.75,333.75 L824.225,331.725 826.475,333 Q827.9,332.4 829.55,331.725 M635.225,216.525 Q631.1,219.075 626.975,222.225 613.175,232.95 606.65,242.25 602.675,247.95 601.4,253.125 597.875,266.775 598.4,278.775 598.925,290.775 602.225,305.55 604.175,310.275 606.65,315.075 607.4,316.575 608.225,318.075 619.175,338.4 634.475,352.725 650.825,368.025 672.425,373.575 682.325,376.05 690.425,376.2 695.9,376.275 700.55,375.225 699.95,375.9 738.425,405.375 753.65,417.075 768.95,428.625 773,431.7 777.05,434.775 L768.05,448.275 M742.55,410.25 L732.05,421.725" test="RightBum"/>
    </g>
    <g id="LeftBum">
      <path id="Layer1_0_1_STROKES" stroke="#FEB7AE" stroke-width="3" stroke-linejoin="round" stroke-linecap="round" fill="none" d="M-7.25,150 Q14.275,136.05 36.775,125.025 59.125,114.15 80.2,107.175 107.425,98.175 125.65,98.25 148.6,98.325 165.175,103.95 184.675,110.625 199.75,126.3 206.95,133.725 208.75,149.85 210.1,161.625 208.45,175.8 207.175,186.525 200.05,195.675 195.85,201 186.175,211.95 187.675,213.45 189.025,214.875 195.625,221.925 200.8,231.3 204.325,237.675 206.2,245.775 207.85,252.9 208.3,261.375 208.975,274.575 206.65,287.7 206.125,290.475 205.45,293.25 196.45,332.775 173.8,356.25 156.4,374.25 133.675,385.5 133.375,385.65 116.05,393.6 106,398.25 99.775,402.3 90.475,408.3 83.275,413.925 76.75,419.025 68.8,426.3 61.975,432.45 59.575,439.5 56.65,447.975 61.75,454.05 63.325,456 68.725,458.775 74.125,461.55 73.75,460.275 M103.3,199.8 Q117.775,188.925 139,189.6 159.7,190.275 173.8,201.3 181.15,207.075 186.175,211.95 M-118.7,243.3 Q-113.225,243.15 -105.35,244.275 -100.85,244.95 -92,246.375 -85.625,247.2 -76.7,248.025 -71.6,248.475 -61.4,249.3 -54.8,249.825 -46.4,251.925 -44.75,252.3 -41.525,252.525 -39.35,252.6 -38.15,253.425 -35.3,255.375 -28.7,269.25 -21.8,283.8 -18.2,294.6 -15.125,303.9 -11.075,321.075 -9.275,328.65 -5.15,339.075 .1,352.35 1.525,356.775 1.975,358.125 4,366.975 6.1,375.525 7.3,376.8 9.325,379.05 8.95,380.025 8.95,380.175 11.95,380.775 16.825,381.75 22.9,387.075 28.975,392.25 32.5,398.55 36.475,405.375 35.2,409.95 33.7,415.275 25.3,416.025 21.175,418.125 14.125,416.55 6.25,414.225 2.725,413.775 -4.55,412.8 -14,414.675 -20.075,415.65 -22.925,416.25 -27.65,417.3 -31.4,419.4 -34.175,421.05 -37.775,423.825 -39.8,425.4 -43.775,428.625 -45.875,425.55 -43.325,418.875 -39.875,411.675 -38.825,409.35 -38,407.475 -35.225,404.85 -32.525,402.15 -31.85,400.65 -30.575,397.95 -32.3,390.075 -32.975,386.925 -35.15,379.35 -36.725,373.5 -40.625,366.75 -42.95,362.775 -48.2,355.125 M-33.2,397.275 Q-33.725,397.65 -41.675,401.1 -47.975,403.8 -49.775,406.575 -52.775,411.375 -53.3,415.65 -54.125,422.775 -50.75,436.275 -50.375,437.775 -49.925,439.2 -48.95,442.275 -47.6,445.2 -46.025,448.725 -43.85,452.025 -42.5,454.125 -33.2,465.75 M-48.2,355.125 Q-49.475,353.175 -54.125,347.325 -57.8,342.525 -59.75,339.225 -61.1,336.45 -61.925,334.95 -63.35,332.1 -64.7,331.275 -66.275,330.3 -70.1,330.225 -74.3,330.375 -75.725,330.3 -80.225,330.075 -86.975,330.525 -97.55,331.275 -98.225,331.275 -115.85,332.1 -127.25,330.375 -130.175,330 -137.45,327.225 -143.825,324.75 -147.725,324.75 M-17.75,465.3 Q-21.2,465 -24.8,461.325 -27.8,458.25 -29.75,454.275 -31.925,449.7 -32.825,445.35 -32.825,445.275 -32.825,445.2 -33.575,441.825 -33.35,439.2 -33.275,437.625 -32.825,436.35 -30.35,428.775 -23.15,424.05 -19.175,421.425 -8.75,417.3" test="LeftBum"/>
      <path id="Layer1_0_2_STROKES" stroke="#0FF" stroke-width="3" stroke-linejoin="round" stroke-linecap="round" fill="none" d="M-7.25,150 L-1.475,153.6 Q5.575,158.175 11.725,163.65 31.525,181.05 35.425,199.8 38.65,214.8 46.075,248.325 51.475,278.775 49.3,303.3 46.225,336.825 44.5,346.275 41.8,361.2 35.425,369.75 L23.8,385.8 M-48.2,355.125 L-50.75,392.25 -33.2,397.275 M-126.2,196.275 Q-114.5,193.2 -86.225,183.15 -61.175,174.3 -46.25,171.075 -38.525,169.425 -32.15,166.2 -27.2,163.65 -19.55,158.325 -13.4,154.05 -7.25,150" test="LeftBum"/>
    </g>
  </g>
</svg>