<?xml version="1.0" encoding="utf-8"?>
<svg id="EdithAnim08" image-rendering="inherit" baseProfile="basic" version="1.1" x="0px" y="0px" width="800" height="600" xmlns="http://www.w3.org/2000/svg" xmlns:xlink="http://www.w3.org/1999/xlink">
  <g id="No-Rear-To-Rearf107r1" overflow="visible">
    <g id="RightBum">
      <path id="Layer2_0_1_STROKES" stroke="#F0F" stroke-width="3" stroke-linejoin="round" stroke-linecap="round" fill="none" d="M833.025,168.075 L841.275,200.475 Q849.15,236.1 847.275,252.525 845.1,271.5 840.975,292.875 837.15,312.825 833.025,327.525 830.4,336.9 827.7,346.875 827.175,348.225 826.725,348.825 L851.25,342.75 M894.525,193.275 L813.15,156.975 M894.525,327.525 L923.025,323.775 M819.75,333.75 L820.5,336.825 Q822.15,342.825 824.025,347.1 825.45,350.325 826.725,348.825" test="RightBum"/>
      <path id="Layer2_0_2_STROKES" stroke="#F90" stroke-width="3" stroke-linejoin="round" stroke-linecap="round" fill="none" d="M851.25,342.75 L853.575,329.25 Q854.475,324 855.225,310.95 855.975,296.475 856.95,289.35 860.325,262.875 873.075,253.275 880.2,247.875 887.175,245.4 892.725,243.375 898.2,243.225 903.075,243.15 909.075,245.25 M813.15,156.975 Q728.325,119.025 708.525,111.225 696.075,106.35 685.425,103.95 674.25,101.475 665.175,101.775 646.125,102.45 631.575,115.275 615.9,128.925 608.325,146.925 600.3,166.125 604.2,184.275 607.5,199.875 619.125,209.625 624.975,214.5 630.225,216.525 647.175,205.875 664.05,205.275 M851.25,342.75 L843.6,387.225 Q844.125,388.05 843.525,387.6 L841.575,398.775 Q836.925,400.125 831.6,402.975 820.8,408.675 817.05,416.025 813.675,422.625 813.225,428.625 812.925,432.45 813.825,436.05 816.6,447.525 831.525,450.225 845.4,452.775 855.225,446.025 860.475,442.35 866.025,435.75 870.45,431.025 872.85,429.45 873.675,428.925 874.575,428.625 876.75,427.95 879.3,428.625 881.1,429.075 883.05,430.275 889.5,434.025 891.075,433.425 891.375,433.35 894.525,428.775 896.925,425.4 893.55,420.225 891.075,416.4 887.175,413.7 886.875,413.475 886.575,413.25 881.925,411.375 880.05,410.025 876.825,407.625 876.525,400.725 876.225,393.9 885.375,353.625 L894.525,314.775 897.825,314.925 Q903.075,315.075 913.05,314.775 M828.3,336.825 L821.475,333 Q820.575,333.375 819.75,333.75 814.95,335.775 812.55,336.825 817.35,351.375 833.775,374.025 837.525,379.2 842.55,385.8 843.225,386.7 843.6,387.225 L843.525,387.6 Q843.15,387.375 842.55,386.775 M812.55,336.825 Q806.475,339.6 803.7,342 800.25,344.925 799.575,348.9 798.225,356.4 806.55,368.325 816.9,383.1 839.025,398.775 M819.75,333.75 L819.225,331.725 821.475,333 Q822.9,332.4 824.55,331.725 M630.225,216.525 Q626.1,219.075 621.975,222.225 608.175,232.95 601.65,242.25 597.675,247.95 596.4,253.125 592.875,266.775 593.4,278.775 593.925,290.775 597.225,305.55 599.175,310.275 601.65,315.075 602.4,316.575 603.225,318.075 614.175,338.4 629.475,352.725 645.825,368.025 667.425,373.575 677.325,376.05 685.425,376.2 690.9,376.275 695.55,375.225 694.95,375.9 733.425,405.375 748.65,417.075 763.95,428.625 768,431.7 772.05,434.775 L763.05,448.275 M737.55,410.25 L727.05,421.725" test="RightBum"/>
    </g>
    <g id="LeftBum">
      <path id="Layer1_0_1_STROKES" stroke="#FEB7AE" stroke-width="3" stroke-linejoin="round" stroke-linecap="round" fill="none" d="M-2.2,150 Q19.325,136.05 41.825,125.025 64.175,114.15 85.25,107.175 112.475,98.175 130.7,98.25 153.65,98.325 170.225,103.95 189.725,110.625 204.8,126.3 212,133.725 213.8,149.85 215.15,161.625 213.5,175.8 212.225,186.525 205.1,195.675 200.9,201 191.225,211.95 192.725,213.45 194.075,214.875 200.675,221.925 205.85,231.3 209.375,237.675 211.25,245.775 212.9,252.9 213.35,261.375 214.025,274.575 211.7,287.7 211.175,290.475 210.5,293.25 201.5,332.775 178.85,356.25 161.45,374.25 138.725,385.5 138.425,385.65 121.1,393.6 111.05,398.25 104.825,402.3 95.525,408.3 88.325,413.925 81.8,419.025 73.85,426.3 67.025,432.45 64.625,439.5 61.7,447.975 66.8,454.05 68.375,456 73.775,458.775 79.175,461.55 78.8,460.275 M108.35,199.8 Q122.825,188.925 144.05,189.6 164.75,190.275 178.85,201.3 186.2,207.075 191.225,211.95 M-113.65,243.3 Q-108.175,243.15 -100.3,244.275 -95.8,244.95 -86.95,246.375 -80.575,247.2 -71.65,248.025 -66.55,248.475 -56.35,249.3 -49.75,249.825 -41.35,251.925 -39.7,252.3 -36.475,252.525 -34.3,252.6 -33.1,253.425 -30.25,255.375 -23.65,269.25 -16.75,283.8 -13.15,294.6 -10.075,303.9 -6.025,321.075 -4.225,328.65 -.1,339.075 5.15,352.35 6.575,356.775 7.025,358.125 9.05,366.975 11.15,375.525 12.35,376.8 14.375,379.05 14,380.025 14,380.175 17,380.775 21.875,381.75 27.95,387.075 34.025,392.25 37.55,398.55 41.525,405.375 40.25,409.95 38.75,415.275 30.35,416.025 26.225,418.125 19.175,416.55 11.3,414.225 7.775,413.775 .5,412.8 -8.95,414.675 -15.025,415.65 -17.875,416.25 -22.6,417.3 -26.35,419.4 -29.125,421.05 -32.725,423.825 -34.75,425.4 -38.725,428.625 -40.825,425.55 -38.275,418.875 -34.825,411.675 -33.775,409.35 -32.95,407.475 -30.175,404.85 -27.475,402.15 -26.8,400.65 -25.525,397.95 -27.25,390.075 -27.925,386.925 -30.1,379.35 -31.675,373.5 -35.575,366.75 -37.9,362.775 -43.15,355.125 M-28.15,397.275 Q-28.675,397.65 -36.625,401.1 -42.925,403.8 -44.725,406.575 -47.725,411.375 -48.25,415.65 -49.075,422.775 -45.7,436.275 -45.325,437.775 -44.875,439.2 -43.9,442.275 -42.55,445.2 -40.975,448.725 -38.8,452.025 -37.45,454.125 -28.15,465.75 M-43.15,355.125 Q-44.425,353.175 -49.075,347.325 -52.75,342.525 -54.7,339.225 -56.05,336.45 -56.875,334.95 -58.3,332.1 -59.65,331.275 -61.225,330.3 -65.05,330.225 -69.25,330.375 -70.675,330.3 -75.175,330.075 -81.925,330.525 -92.5,331.275 -93.175,331.275 -110.8,332.1 -122.2,330.375 -125.125,330 -132.4,327.225 -138.775,324.75 -142.675,324.75 M-12.7,465.3 Q-16.15,465 -19.75,461.325 -22.75,458.25 -24.7,454.275 -26.875,449.7 -27.775,445.35 -27.775,445.275 -27.775,445.2 -28.525,441.825 -28.3,439.2 -28.225,437.625 -27.775,436.35 -25.3,428.775 -18.1,424.05 -14.125,421.425 -3.7,417.3" test="LeftBum"/>
      <path id="Layer1_0_2_STROKES" stroke="#0FF" stroke-width="3" stroke-linejoin="round" stroke-linecap="round" fill="none" d="M-2.2,150 L3.575,153.6 Q10.625,158.175 16.775,163.65 36.575,181.05 40.475,199.8 43.7,214.8 51.125,248.325 56.525,278.775 54.35,303.3 51.275,336.825 49.55,346.275 46.85,361.2 40.475,369.75 L28.85,385.8 M-43.15,355.125 L-45.7,392.25 -28.15,397.275 M-121.15,196.275 Q-109.45,193.2 -81.175,183.15 -56.125,174.3 -41.2,171.075 -33.475,169.425 -27.1,166.2 -22.15,163.65 -14.5,158.325 -8.35,154.05 -2.2,150" test="LeftBum"/>
    </g>
  </g>
</svg>