<?xml version="1.0" encoding="utf-8"?>
<svg id="EdithAnim08" image-rendering="inherit" baseProfile="basic" version="1.1" x="0px" y="0px" width="800" height="600" xmlns="http://www.w3.org/2000/svg" xmlns:xlink="http://www.w3.org/1999/xlink">
  <g id="No-Rear-To-Rearf108r1" overflow="visible">
    <g id="RightBum">
      <path id="Layer2_0_1_STROKES" stroke="#F0F" stroke-width="3" stroke-linejoin="round" stroke-linecap="round" fill="none" d="M831.375,168.075 L839.625,200.475 Q847.5,236.1 845.625,252.525 843.45,271.5 839.325,292.875 835.5,312.825 831.375,327.525 828.75,336.9 826.05,346.875 825.525,348.225 825.075,348.825 L849.6,342.75 M892.875,193.275 L811.5,156.975 M892.875,327.525 L921.375,323.775 M818.1,333.75 L818.85,336.825 Q820.5,342.825 822.375,347.1 823.8,350.325 825.075,348.825" test="RightBum"/>
      <path id="Layer2_0_2_STROKES" stroke="#F90" stroke-width="3" stroke-linejoin="round" stroke-linecap="round" fill="none" d="M849.6,342.75 L851.925,329.25 Q852.825,324 853.575,310.95 854.325,296.475 855.3,289.35 858.675,262.875 871.425,253.275 878.55,247.875 885.525,245.4 891.075,243.375 896.55,243.225 901.425,243.15 907.425,245.25 M811.5,156.975 Q726.675,119.025 706.875,111.225 694.425,106.35 683.775,103.95 672.6,101.475 663.525,101.775 644.475,102.45 629.925,115.275 614.25,128.925 606.675,146.925 598.65,166.125 602.55,184.275 605.85,199.875 617.475,209.625 623.325,214.5 628.575,216.525 645.525,205.875 662.4,205.275 M849.6,342.75 L841.95,387.225 Q842.475,388.05 841.875,387.6 L839.925,398.775 Q835.275,400.125 829.95,402.975 819.15,408.675 815.4,416.025 812.025,422.625 811.575,428.625 811.275,432.45 812.175,436.05 814.95,447.525 829.875,450.225 843.75,452.775 853.575,446.025 858.825,442.35 864.375,435.75 868.8,431.025 871.2,429.45 872.025,428.925 872.925,428.625 875.1,427.95 877.65,428.625 879.45,429.075 881.4,430.275 887.85,434.025 889.425,433.425 889.725,433.35 892.875,428.775 895.275,425.4 891.9,420.225 889.425,416.4 885.525,413.7 885.225,413.475 884.925,413.25 880.275,411.375 878.4,410.025 875.175,407.625 874.875,400.725 874.575,393.9 883.725,353.625 L892.875,314.775 896.175,314.925 Q901.425,315.075 911.4,314.775 M826.65,336.825 L819.825,333 Q818.925,333.375 818.1,333.75 813.3,335.775 810.9,336.825 815.7,351.375 832.125,374.025 835.875,379.2 840.9,385.8 841.575,386.7 841.95,387.225 L841.875,387.6 Q841.5,387.375 840.9,386.775 M810.9,336.825 Q804.825,339.6 802.05,342 798.6,344.925 797.925,348.9 796.575,356.4 804.9,368.325 815.25,383.1 837.375,398.775 M818.1,333.75 L817.575,331.725 819.825,333 Q821.25,332.4 822.9,331.725 M628.575,216.525 Q624.45,219.075 620.325,222.225 606.525,232.95 600,242.25 596.025,247.95 594.75,253.125 591.225,266.775 591.75,278.775 592.275,290.775 595.575,305.55 597.525,310.275 600,315.075 600.75,316.575 601.575,318.075 612.525,338.4 627.825,352.725 644.175,368.025 665.775,373.575 675.675,376.05 683.775,376.2 689.25,376.275 693.9,375.225 693.3,375.9 731.775,405.375 747,417.075 762.3,428.625 766.35,431.7 770.4,434.775 L761.4,448.275 M735.9,410.25 L725.4,421.725" test="RightBum"/>
    </g>
    <g id="LeftBum">
      <path id="Layer1_0_1_STROKES" stroke="#FEB7AE" stroke-width="3" stroke-linejoin="round" stroke-linecap="round" fill="none" d="M-.5,150 Q21.025,136.05 43.525,125.025 65.875,114.15 86.95,107.175 114.175,98.175 132.4,98.25 155.35,98.325 171.925,103.95 191.425,110.625 206.5,126.3 213.7,133.725 215.5,149.85 216.85,161.625 215.2,175.8 213.925,186.525 206.8,195.675 202.6,201 192.925,211.95 194.425,213.45 195.775,214.875 202.375,221.925 207.55,231.3 211.075,237.675 212.95,245.775 214.6,252.9 215.05,261.375 215.725,274.575 213.4,287.7 212.875,290.475 212.2,293.25 203.2,332.775 180.55,356.25 163.15,374.25 140.425,385.5 140.125,385.65 122.8,393.6 112.75,398.25 106.525,402.3 97.225,408.3 90.025,413.925 83.5,419.025 75.55,426.3 68.725,432.45 66.325,439.5 63.4,447.975 68.5,454.05 70.075,456 75.475,458.775 80.875,461.55 80.5,460.275 M110.05,199.8 Q124.525,188.925 145.75,189.6 166.45,190.275 180.55,201.3 187.9,207.075 192.925,211.95 M-111.95,243.3 Q-106.475,243.15 -98.6,244.275 -94.1,244.95 -85.25,246.375 -78.875,247.2 -69.95,248.025 -64.85,248.475 -54.65,249.3 -48.05,249.825 -39.65,251.925 -38,252.3 -34.775,252.525 -32.6,252.6 -31.4,253.425 -28.55,255.375 -21.95,269.25 -15.05,283.8 -11.45,294.6 -8.375,303.9 -4.325,321.075 -2.525,328.65 1.6,339.075 6.85,352.35 8.275,356.775 8.725,358.125 10.75,366.975 12.85,375.525 14.05,376.8 16.075,379.05 15.7,380.025 15.7,380.175 18.7,380.775 23.575,381.75 29.65,387.075 35.725,392.25 39.25,398.55 43.225,405.375 41.95,409.95 40.45,415.275 32.05,416.025 27.925,418.125 20.875,416.55 13,414.225 9.475,413.775 2.2,412.8 -7.25,414.675 -13.325,415.65 -16.175,416.25 -20.9,417.3 -24.65,419.4 -27.425,421.05 -31.025,423.825 -33.05,425.4 -37.025,428.625 -39.125,425.55 -36.575,418.875 -33.125,411.675 -32.075,409.35 -31.25,407.475 -28.475,404.85 -25.775,402.15 -25.1,400.65 -23.825,397.95 -25.55,390.075 -26.225,386.925 -28.4,379.35 -29.975,373.5 -33.875,366.75 -36.2,362.775 -41.45,355.125 M-26.45,397.275 Q-26.975,397.65 -34.925,401.1 -41.225,403.8 -43.025,406.575 -46.025,411.375 -46.55,415.65 -47.375,422.775 -44,436.275 -43.625,437.775 -43.175,439.2 -42.2,442.275 -40.85,445.2 -39.275,448.725 -37.1,452.025 -35.75,454.125 -26.45,465.75 M-41.45,355.125 Q-42.725,353.175 -47.375,347.325 -51.05,342.525 -53,339.225 -54.35,336.45 -55.175,334.95 -56.6,332.1 -57.95,331.275 -59.525,330.3 -63.35,330.225 -67.55,330.375 -68.975,330.3 -73.475,330.075 -80.225,330.525 -90.8,331.275 -91.475,331.275 -109.1,332.1 -120.5,330.375 -123.425,330 -130.7,327.225 -137.075,324.75 -140.975,324.75 M-11,465.3 Q-14.45,465 -18.05,461.325 -21.05,458.25 -23,454.275 -25.175,449.7 -26.075,445.35 -26.075,445.275 -26.075,445.2 -26.825,441.825 -26.6,439.2 -26.525,437.625 -26.075,436.35 -23.6,428.775 -16.4,424.05 -12.425,421.425 -2,417.3" test="LeftBum"/>
      <path id="Layer1_0_2_STROKES" stroke="#0FF" stroke-width="3" stroke-linejoin="round" stroke-linecap="round" fill="none" d="M-.5,150 L5.275,153.6 Q12.325,158.175 18.475,163.65 38.275,181.05 42.175,199.8 45.4,214.8 52.825,248.325 58.225,278.775 56.05,303.3 52.975,336.825 51.25,346.275 48.55,361.2 42.175,369.75 L30.55,385.8 M-41.45,355.125 L-44,392.25 -26.45,397.275 M-119.45,196.275 Q-107.75,193.2 -79.475,183.15 -54.425,174.3 -39.5,171.075 -31.775,169.425 -25.4,166.2 -20.45,163.65 -12.8,158.325 -6.65,154.05 -.5,150" test="LeftBum"/>
    </g>
  </g>
</svg>