<?xml version="1.0" encoding="utf-8"?>
<svg id="EdithAnim08" image-rendering="inherit" baseProfile="basic" version="1.1" x="0px" y="0px" width="800" height="600" xmlns="http://www.w3.org/2000/svg" xmlns:xlink="http://www.w3.org/1999/xlink">
  <g id="No-Rear-To-Rearf110r1" overflow="visible">
    <g id="RightBum">
      <path id="Layer2_0_1_STROKES" stroke="#F0F" stroke-width="3" stroke-linejoin="round" stroke-linecap="round" fill="none" d="M828.125,168.075 L836.375,200.475 Q844.25,236.1 842.375,252.525 840.2,271.5 836.075,292.875 832.25,312.825 828.125,327.525 825.5,336.9 822.8,346.875 822.275,348.225 821.825,348.825 L846.35,342.75 M889.625,193.275 L808.25,156.975 M889.625,327.525 L918.125,323.775 M814.85,333.75 L815.6,336.825 Q817.25,342.825 819.125,347.1 820.55,350.325 821.825,348.825" test="RightBum"/>
      <path id="Layer2_0_2_STROKES" stroke="#F90" stroke-width="3" stroke-linejoin="round" stroke-linecap="round" fill="none" d="M846.35,342.75 L848.675,329.25 Q849.575,324 850.325,310.95 851.075,296.475 852.05,289.35 855.425,262.875 868.175,253.275 875.3,247.875 882.275,245.4 887.825,243.375 893.3,243.225 898.175,243.15 904.175,245.25 M808.25,156.975 Q723.425,119.025 703.625,111.225 691.175,106.35 680.525,103.95 669.35,101.475 660.275,101.775 641.225,102.45 626.675,115.275 611,128.925 603.425,146.925 595.4,166.125 599.3,184.275 602.6,199.875 614.225,209.625 620.075,214.5 625.325,216.525 642.275,205.875 659.15,205.275 M846.35,342.75 L838.7,387.225 Q839.225,388.05 838.625,387.6 L836.675,398.775 Q832.025,400.125 826.7,402.975 815.9,408.675 812.15,416.025 808.775,422.625 808.325,428.625 808.025,432.45 808.925,436.05 811.7,447.525 826.625,450.225 840.5,452.775 850.325,446.025 855.575,442.35 861.125,435.75 865.55,431.025 867.95,429.45 868.775,428.925 869.675,428.625 871.85,427.95 874.4,428.625 876.2,429.075 878.15,430.275 884.6,434.025 886.175,433.425 886.475,433.35 889.625,428.775 892.025,425.4 888.65,420.225 886.175,416.4 882.275,413.7 881.975,413.475 881.675,413.25 877.025,411.375 875.15,410.025 871.925,407.625 871.625,400.725 871.325,393.9 880.475,353.625 L889.625,314.775 892.925,314.925 Q898.175,315.075 908.15,314.775 M823.4,336.825 L816.575,333 Q815.675,333.375 814.85,333.75 810.05,335.775 807.65,336.825 812.45,351.375 828.875,374.025 832.625,379.2 837.65,385.8 838.325,386.7 838.7,387.225 L838.625,387.6 Q838.25,387.375 837.65,386.775 M807.65,336.825 Q801.575,339.6 798.8,342 795.35,344.925 794.675,348.9 793.325,356.4 801.65,368.325 812,383.1 834.125,398.775 M814.85,333.75 L814.325,331.725 816.575,333 Q818,332.4 819.65,331.725 M625.325,216.525 Q621.2,219.075 617.075,222.225 603.275,232.95 596.75,242.25 592.775,247.95 591.5,253.125 587.975,266.775 588.5,278.775 589.025,290.775 592.325,305.55 594.275,310.275 596.75,315.075 597.5,316.575 598.325,318.075 609.275,338.4 624.575,352.725 640.925,368.025 662.525,373.575 672.425,376.05 680.525,376.2 686,376.275 690.65,375.225 690.05,375.9 728.525,405.375 743.75,417.075 759.05,428.625 763.1,431.7 767.15,434.775 L758.15,448.275 M732.65,410.25 L722.15,421.725" test="RightBum"/>
    </g>
    <g id="LeftBum">
      <path id="Layer1_0_1_STROKES" stroke="#FEB7AE" stroke-width="3" stroke-linejoin="round" stroke-linecap="round" fill="none" d="M2.8,150 Q24.325,136.05 46.825,125.025 69.175,114.15 90.25,107.175 117.475,98.175 135.7,98.25 158.65,98.325 175.225,103.95 194.725,110.625 209.8,126.3 217,133.725 218.8,149.85 220.15,161.625 218.5,175.8 217.225,186.525 210.1,195.675 205.9,201 196.225,211.95 197.725,213.45 199.075,214.875 205.675,221.925 210.85,231.3 214.375,237.675 216.25,245.775 217.9,252.9 218.35,261.375 219.025,274.575 216.7,287.7 216.175,290.475 215.5,293.25 206.5,332.775 183.85,356.25 166.45,374.25 143.725,385.5 143.425,385.65 126.1,393.6 116.05,398.25 109.825,402.3 100.525,408.3 93.325,413.925 86.8,419.025 78.85,426.3 72.025,432.45 69.625,439.5 66.7,447.975 71.8,454.05 73.375,456 78.775,458.775 84.175,461.55 83.8,460.275 M113.35,199.8 Q127.825,188.925 149.05,189.6 169.75,190.275 183.85,201.3 191.2,207.075 196.225,211.95 M-108.65,243.3 Q-103.175,243.15 -95.3,244.275 -90.8,244.95 -81.95,246.375 -75.575,247.2 -66.65,248.025 -61.55,248.475 -51.35,249.3 -44.75,249.825 -36.35,251.925 -34.7,252.3 -31.475,252.525 -29.3,252.6 -28.1,253.425 -25.25,255.375 -18.65,269.25 -11.75,283.8 -8.15,294.6 -5.075,303.9 -1.025,321.075 .775,328.65 4.9,339.075 10.15,352.35 11.575,356.775 12.025,358.125 14.05,366.975 16.15,375.525 17.35,376.8 19.375,379.05 19,380.025 19,380.175 22,380.775 26.875,381.75 32.95,387.075 39.025,392.25 42.55,398.55 46.525,405.375 45.25,409.95 43.75,415.275 35.35,416.025 31.225,418.125 24.175,416.55 16.3,414.225 12.775,413.775 5.5,412.8 -3.95,414.675 -10.025,415.65 -12.875,416.25 -17.6,417.3 -21.35,419.4 -24.125,421.05 -27.725,423.825 -29.75,425.4 -33.725,428.625 -35.825,425.55 -33.275,418.875 -29.825,411.675 -28.775,409.35 -27.95,407.475 -25.175,404.85 -22.475,402.15 -21.8,400.65 -20.525,397.95 -22.25,390.075 -22.925,386.925 -25.1,379.35 -26.675,373.5 -30.575,366.75 -32.9,362.775 -38.15,355.125 M-23.15,397.275 Q-23.675,397.65 -31.625,401.1 -37.925,403.8 -39.725,406.575 -42.725,411.375 -43.25,415.65 -44.075,422.775 -40.7,436.275 -40.325,437.775 -39.875,439.2 -38.9,442.275 -37.55,445.2 -35.975,448.725 -33.8,452.025 -32.45,454.125 -23.15,465.75 M-38.15,355.125 Q-39.425,353.175 -44.075,347.325 -47.75,342.525 -49.7,339.225 -51.05,336.45 -51.875,334.95 -53.3,332.1 -54.65,331.275 -56.225,330.3 -60.05,330.225 -64.25,330.375 -65.675,330.3 -70.175,330.075 -76.925,330.525 -87.5,331.275 -88.175,331.275 -105.8,332.1 -117.2,330.375 -120.125,330 -127.4,327.225 -133.775,324.75 -137.675,324.75 M-7.7,465.3 Q-11.15,465 -14.75,461.325 -17.75,458.25 -19.7,454.275 -21.875,449.7 -22.775,445.35 -22.775,445.275 -22.775,445.2 -23.525,441.825 -23.3,439.2 -23.225,437.625 -22.775,436.35 -20.3,428.775 -13.1,424.05 -9.125,421.425 1.3,417.3" test="LeftBum"/>
      <path id="Layer1_0_2_STROKES" stroke="#0FF" stroke-width="3" stroke-linejoin="round" stroke-linecap="round" fill="none" d="M2.8,150 L8.575,153.6 Q15.625,158.175 21.775,163.65 41.575,181.05 45.475,199.8 48.7,214.8 56.125,248.325 61.525,278.775 59.35,303.3 56.275,336.825 54.55,346.275 51.85,361.2 45.475,369.75 L33.85,385.8 M-38.15,355.125 L-40.7,392.25 -23.15,397.275 M-116.15,196.275 Q-104.45,193.2 -76.175,183.15 -51.125,174.3 -36.2,171.075 -28.475,169.425 -22.1,166.2 -17.15,163.65 -9.5,158.325 -3.35,154.05 2.8,150" test="LeftBum"/>
    </g>
  </g>
</svg>