<?xml version="1.0" encoding="utf-8"?>
<svg id="EdithAnim08" image-rendering="inherit" baseProfile="basic" version="1.1" x="0px" y="0px" width="800" height="600" xmlns="http://www.w3.org/2000/svg" xmlns:xlink="http://www.w3.org/1999/xlink">
  <g id="No-Rear-To-Rearf113r1" overflow="visible">
    <g id="RightBum">
      <path id="Layer2_0_1_STROKES" stroke="#F0F" stroke-width="3" stroke-linejoin="round" stroke-linecap="round" fill="none" d="M823.275,168.075 L831.525,200.475 Q839.4,236.1 837.525,252.525 835.35,271.5 831.225,292.875 827.4,312.825 823.275,327.525 820.65,336.9 817.95,346.875 817.425,348.225 816.975,348.825 L841.5,342.75 M884.775,193.275 L803.4,156.975 M884.775,327.525 L913.275,323.775 M810,333.75 L810.75,336.825 Q812.4,342.825 814.275,347.1 815.7,350.325 816.975,348.825" test="RightBum"/>
      <path id="Layer2_0_2_STROKES" stroke="#F90" stroke-width="3" stroke-linejoin="round" stroke-linecap="round" fill="none" d="M841.5,342.75 L843.825,329.25 Q844.725,324 845.475,310.95 846.225,296.475 847.2,289.35 850.575,262.875 863.325,253.275 870.45,247.875 877.425,245.4 882.975,243.375 888.45,243.225 893.325,243.15 899.325,245.25 M803.4,156.975 Q718.575,119.025 698.775,111.225 686.325,106.35 675.675,103.95 664.5,101.475 655.425,101.775 636.375,102.45 621.825,115.275 606.15,128.925 598.575,146.925 590.55,166.125 594.45,184.275 597.75,199.875 609.375,209.625 615.225,214.5 620.475,216.525 637.425,205.875 654.3,205.275 M841.5,342.75 L833.85,387.225 Q834.375,388.05 833.775,387.6 L831.825,398.775 Q827.175,400.125 821.85,402.975 811.05,408.675 807.3,416.025 803.925,422.625 803.475,428.625 803.175,432.45 804.075,436.05 806.85,447.525 821.775,450.225 835.65,452.775 845.475,446.025 850.725,442.35 856.275,435.75 860.7,431.025 863.1,429.45 863.925,428.925 864.825,428.625 867,427.95 869.55,428.625 871.35,429.075 873.3,430.275 879.75,434.025 881.325,433.425 881.625,433.35 884.775,428.775 887.175,425.4 883.8,420.225 881.325,416.4 877.425,413.7 877.125,413.475 876.825,413.25 872.175,411.375 870.3,410.025 867.075,407.625 866.775,400.725 866.475,393.9 875.625,353.625 L884.775,314.775 888.075,314.925 Q893.325,315.075 903.3,314.775 M818.55,336.825 L811.725,333 Q810.825,333.375 810,333.75 805.2,335.775 802.8,336.825 807.6,351.375 824.025,374.025 827.775,379.2 832.8,385.8 833.475,386.7 833.85,387.225 L833.775,387.6 Q833.4,387.375 832.8,386.775 M802.8,336.825 Q796.725,339.6 793.95,342 790.5,344.925 789.825,348.9 788.475,356.4 796.8,368.325 807.15,383.1 829.275,398.775 M810,333.75 L809.475,331.725 811.725,333 Q813.15,332.4 814.8,331.725 M620.475,216.525 Q616.35,219.075 612.225,222.225 598.425,232.95 591.9,242.25 587.925,247.95 586.65,253.125 583.125,266.775 583.65,278.775 584.175,290.775 587.475,305.55 589.425,310.275 591.9,315.075 592.65,316.575 593.475,318.075 604.425,338.4 619.725,352.725 636.075,368.025 657.675,373.575 667.575,376.05 675.675,376.2 681.15,376.275 685.8,375.225 685.2,375.9 723.675,405.375 738.9,417.075 754.2,428.625 758.25,431.7 762.3,434.775 L753.3,448.275 M727.8,410.25 L717.3,421.725" test="RightBum"/>
    </g>
    <g id="LeftBum">
      <path id="Layer1_0_1_STROKES" stroke="#FEB7AE" stroke-width="3" stroke-linejoin="round" stroke-linecap="round" fill="none" d="M7.75,150 Q29.275,136.05 51.775,125.025 74.125,114.15 95.2,107.175 122.425,98.175 140.65,98.25 163.6,98.325 180.175,103.95 199.675,110.625 214.75,126.3 221.95,133.725 223.75,149.85 225.1,161.625 223.45,175.8 222.175,186.525 215.05,195.675 210.85,201 201.175,211.95 202.675,213.45 204.025,214.875 210.625,221.925 215.8,231.3 219.325,237.675 221.2,245.775 222.85,252.9 223.3,261.375 223.975,274.575 221.65,287.7 221.125,290.475 220.45,293.25 211.45,332.775 188.8,356.25 171.4,374.25 148.675,385.5 148.375,385.65 131.05,393.6 121,398.25 114.775,402.3 105.475,408.3 98.275,413.925 91.75,419.025 83.8,426.3 76.975,432.45 74.575,439.5 71.65,447.975 76.75,454.05 78.325,456 83.725,458.775 89.125,461.55 88.75,460.275 M118.3,199.8 Q132.775,188.925 154,189.6 174.7,190.275 188.8,201.3 196.15,207.075 201.175,211.95 M-103.7,243.3 Q-98.225,243.15 -90.35,244.275 -85.85,244.95 -77,246.375 -70.625,247.2 -61.7,248.025 -56.6,248.475 -46.4,249.3 -39.8,249.825 -31.4,251.925 -29.75,252.3 -26.525,252.525 -24.35,252.6 -23.15,253.425 -20.3,255.375 -13.7,269.25 -6.8,283.8 -3.2,294.6 -.125,303.9 3.925,321.075 5.725,328.65 9.85,339.075 15.1,352.35 16.525,356.775 16.975,358.125 19,366.975 21.1,375.525 22.3,376.8 24.325,379.05 23.95,380.025 23.95,380.175 26.95,380.775 31.825,381.75 37.9,387.075 43.975,392.25 47.5,398.55 51.475,405.375 50.2,409.95 48.7,415.275 40.3,416.025 36.175,418.125 29.125,416.55 21.25,414.225 17.725,413.775 10.45,412.8 1,414.675 -5.075,415.65 -7.925,416.25 -12.65,417.3 -16.4,419.4 -19.175,421.05 -22.775,423.825 -24.8,425.4 -28.775,428.625 -30.875,425.55 -28.325,418.875 -24.875,411.675 -23.825,409.35 -23,407.475 -20.225,404.85 -17.525,402.15 -16.85,400.65 -15.575,397.95 -17.3,390.075 -17.975,386.925 -20.15,379.35 -21.725,373.5 -25.625,366.75 -27.95,362.775 -33.2,355.125 M-18.2,397.275 Q-18.725,397.65 -26.675,401.1 -32.975,403.8 -34.775,406.575 -37.775,411.375 -38.3,415.65 -39.125,422.775 -35.75,436.275 -35.375,437.775 -34.925,439.2 -33.95,442.275 -32.6,445.2 -31.025,448.725 -28.85,452.025 -27.5,454.125 -18.2,465.75 M-33.2,355.125 Q-34.475,353.175 -39.125,347.325 -42.8,342.525 -44.75,339.225 -46.1,336.45 -46.925,334.95 -48.35,332.1 -49.7,331.275 -51.275,330.3 -55.1,330.225 -59.3,330.375 -60.725,330.3 -65.225,330.075 -71.975,330.525 -82.55,331.275 -83.225,331.275 -100.85,332.1 -112.25,330.375 -115.175,330 -122.45,327.225 -128.825,324.75 -132.725,324.75 M-2.75,465.3 Q-6.2,465 -9.8,461.325 -12.8,458.25 -14.75,454.275 -16.925,449.7 -17.825,445.35 -17.825,445.275 -17.825,445.2 -18.575,441.825 -18.35,439.2 -18.275,437.625 -17.825,436.35 -15.35,428.775 -8.15,424.05 -4.175,421.425 6.25,417.3" test="LeftBum"/>
      <path id="Layer1_0_2_STROKES" stroke="#0FF" stroke-width="3" stroke-linejoin="round" stroke-linecap="round" fill="none" d="M7.75,150 L13.525,153.6 Q20.575,158.175 26.725,163.65 46.525,181.05 50.425,199.8 53.65,214.8 61.075,248.325 66.475,278.775 64.3,303.3 61.225,336.825 59.5,346.275 56.8,361.2 50.425,369.75 L38.8,385.8 M-33.2,355.125 L-35.75,392.25 -18.2,397.275 M-111.2,196.275 Q-99.5,193.2 -71.225,183.15 -46.175,174.3 -31.25,171.075 -23.525,169.425 -17.15,166.2 -12.2,163.65 -4.55,158.325 1.6,154.05 7.75,150" test="LeftBum"/>
    </g>
  </g>
</svg>