<?xml version="1.0" encoding="utf-8"?>
<svg id="EdithAnim08" image-rendering="inherit" baseProfile="basic" version="1.1" x="0px" y="0px" width="800" height="600" xmlns="http://www.w3.org/2000/svg" xmlns:xlink="http://www.w3.org/1999/xlink">
  <g id="No-Rear-To-Rearf116r1" overflow="visible">
    <g id="RightBum">
      <path id="Layer2_0_1_STROKES" stroke="#F0F" stroke-width="3" stroke-linejoin="round" stroke-linecap="round" fill="none" d="M818.475,168.075 L826.725,200.475 Q834.6,236.1 832.725,252.525 830.55,271.5 826.425,292.875 822.6,312.825 818.475,327.525 815.85,336.9 813.15,346.875 812.625,348.225 812.175,348.825 L836.7,342.75 M879.975,193.275 L798.6,156.975 M879.975,327.525 L908.475,323.775 M805.2,333.75 L805.95,336.825 Q807.6,342.825 809.475,347.1 810.9,350.325 812.175,348.825" test="RightBum"/>
      <path id="Layer2_0_2_STROKES" stroke="#F90" stroke-width="3" stroke-linejoin="round" stroke-linecap="round" fill="none" d="M836.7,342.75 L839.025,329.25 Q839.925,324 840.675,310.95 841.425,296.475 842.4,289.35 845.775,262.875 858.525,253.275 865.65,247.875 872.625,245.4 878.175,243.375 883.65,243.225 888.525,243.15 894.525,245.25 M798.6,156.975 Q713.775,119.025 693.975,111.225 681.525,106.35 670.875,103.95 659.7,101.475 650.625,101.775 631.575,102.45 617.025,115.275 601.35,128.925 593.775,146.925 585.75,166.125 589.65,184.275 592.95,199.875 604.575,209.625 610.425,214.5 615.675,216.525 632.625,205.875 649.5,205.275 M836.7,342.75 L829.05,387.225 Q829.575,388.05 828.975,387.6 L827.025,398.775 Q822.375,400.125 817.05,402.975 806.25,408.675 802.5,416.025 799.125,422.625 798.675,428.625 798.375,432.45 799.275,436.05 802.05,447.525 816.975,450.225 830.85,452.775 840.675,446.025 845.925,442.35 851.475,435.75 855.9,431.025 858.3,429.45 859.125,428.925 860.025,428.625 862.2,427.95 864.75,428.625 866.55,429.075 868.5,430.275 874.95,434.025 876.525,433.425 876.825,433.35 879.975,428.775 882.375,425.4 879,420.225 876.525,416.4 872.625,413.7 872.325,413.475 872.025,413.25 867.375,411.375 865.5,410.025 862.275,407.625 861.975,400.725 861.675,393.9 870.825,353.625 L879.975,314.775 883.275,314.925 Q888.525,315.075 898.5,314.775 M813.75,336.825 L806.925,333 Q806.025,333.375 805.2,333.75 800.4,335.775 798,336.825 802.8,351.375 819.225,374.025 822.975,379.2 828,385.8 828.675,386.7 829.05,387.225 L828.975,387.6 Q828.6,387.375 828,386.775 M798,336.825 Q791.925,339.6 789.15,342 785.7,344.925 785.025,348.9 783.675,356.4 792,368.325 802.35,383.1 824.475,398.775 M805.2,333.75 L804.675,331.725 806.925,333 Q808.35,332.4 810,331.725 M615.675,216.525 Q611.55,219.075 607.425,222.225 593.625,232.95 587.1,242.25 583.125,247.95 581.85,253.125 578.325,266.775 578.85,278.775 579.375,290.775 582.675,305.55 584.625,310.275 587.1,315.075 587.85,316.575 588.675,318.075 599.625,338.4 614.925,352.725 631.275,368.025 652.875,373.575 662.775,376.05 670.875,376.2 676.35,376.275 681,375.225 680.4,375.9 718.875,405.375 734.1,417.075 749.4,428.625 753.45,431.7 757.5,434.775 L748.5,448.275 M723,410.25 L712.5,421.725" test="RightBum"/>
    </g>
    <g id="LeftBum">
      <path id="Layer1_0_1_STROKES" stroke="#FEB7AE" stroke-width="3" stroke-linejoin="round" stroke-linecap="round" fill="none" d="M12.6,150 Q34.125,136.05 56.625,125.025 78.975,114.15 100.05,107.175 127.275,98.175 145.5,98.25 168.45,98.325 185.025,103.95 204.525,110.625 219.6,126.3 226.8,133.725 228.6,149.85 229.95,161.625 228.3,175.8 227.025,186.525 219.9,195.675 215.7,201 206.025,211.95 207.525,213.45 208.875,214.875 215.475,221.925 220.65,231.3 224.175,237.675 226.05,245.775 227.7,252.9 228.15,261.375 228.825,274.575 226.5,287.7 225.975,290.475 225.3,293.25 216.3,332.775 193.65,356.25 176.25,374.25 153.525,385.5 153.225,385.65 135.9,393.6 125.85,398.25 119.625,402.3 110.325,408.3 103.125,413.925 96.6,419.025 88.65,426.3 81.825,432.45 79.425,439.5 76.5,447.975 81.6,454.05 83.175,456 88.575,458.775 93.975,461.55 93.6,460.275 M123.15,199.8 Q137.625,188.925 158.85,189.6 179.55,190.275 193.65,201.3 201,207.075 206.025,211.95 M-98.85,243.3 Q-93.375,243.15 -85.5,244.275 -81,244.95 -72.15,246.375 -65.775,247.2 -56.85,248.025 -51.75,248.475 -41.55,249.3 -34.95,249.825 -26.55,251.925 -24.9,252.3 -21.675,252.525 -19.5,252.6 -18.3,253.425 -15.45,255.375 -8.85,269.25 -1.95,283.8 1.65,294.6 4.725,303.9 8.775,321.075 10.575,328.65 14.7,339.075 19.95,352.35 21.375,356.775 21.825,358.125 23.85,366.975 25.95,375.525 27.15,376.8 29.175,379.05 28.8,380.025 28.8,380.175 31.8,380.775 36.675,381.75 42.75,387.075 48.825,392.25 52.35,398.55 56.325,405.375 55.05,409.95 53.55,415.275 45.15,416.025 41.025,418.125 33.975,416.55 26.1,414.225 22.575,413.775 15.3,412.8 5.85,414.675 -.225,415.65 -3.075,416.25 -7.8,417.3 -11.55,419.4 -14.325,421.05 -17.925,423.825 -19.95,425.4 -23.925,428.625 -26.025,425.55 -23.475,418.875 -20.025,411.675 -18.975,409.35 -18.15,407.475 -15.375,404.85 -12.675,402.15 -12,400.65 -10.725,397.95 -12.45,390.075 -13.125,386.925 -15.3,379.35 -16.875,373.5 -20.775,366.75 -23.1,362.775 -28.35,355.125 M-13.35,397.275 Q-13.875,397.65 -21.825,401.1 -28.125,403.8 -29.925,406.575 -32.925,411.375 -33.45,415.65 -34.275,422.775 -30.9,436.275 -30.525,437.775 -30.075,439.2 -29.1,442.275 -27.75,445.2 -26.175,448.725 -24,452.025 -22.65,454.125 -13.35,465.75 M-28.35,355.125 Q-29.625,353.175 -34.275,347.325 -37.95,342.525 -39.9,339.225 -41.25,336.45 -42.075,334.95 -43.5,332.1 -44.85,331.275 -46.425,330.3 -50.25,330.225 -54.45,330.375 -55.875,330.3 -60.375,330.075 -67.125,330.525 -77.7,331.275 -78.375,331.275 -96,332.1 -107.4,330.375 -110.325,330 -117.6,327.225 -123.975,324.75 -127.875,324.75 M2.1,465.3 Q-1.35,465 -4.95,461.325 -7.95,458.25 -9.9,454.275 -12.075,449.7 -12.975,445.35 -12.975,445.275 -12.975,445.2 -13.725,441.825 -13.5,439.2 -13.425,437.625 -12.975,436.35 -10.5,428.775 -3.3,424.05 .675,421.425 11.1,417.3" test="LeftBum"/>
      <path id="Layer1_0_2_STROKES" stroke="#0FF" stroke-width="3" stroke-linejoin="round" stroke-linecap="round" fill="none" d="M12.6,150 L18.375,153.6 Q25.425,158.175 31.575,163.65 51.375,181.05 55.275,199.8 58.5,214.8 65.925,248.325 71.325,278.775 69.15,303.3 66.075,336.825 64.35,346.275 61.65,361.2 55.275,369.75 L43.65,385.8 M-28.35,355.125 L-30.9,392.25 -13.35,397.275 M-106.35,196.275 Q-94.65,193.2 -66.375,183.15 -41.325,174.3 -26.4,171.075 -18.675,169.425 -12.3,166.2 -7.35,163.65 .3,158.325 6.45,154.05 12.6,150" test="LeftBum"/>
    </g>
  </g>
</svg>