<?xml version="1.0" encoding="utf-8"?>
<svg id="EdithAnim08" image-rendering="inherit" baseProfile="basic" version="1.1" x="0px" y="0px" width="800" height="600" xmlns="http://www.w3.org/2000/svg" xmlns:xlink="http://www.w3.org/1999/xlink">
  <g id="No-Rear-To-Rearf117r1" overflow="visible">
    <g id="RightBum">
      <path id="Layer2_0_1_STROKES" stroke="#F0F" stroke-width="3" stroke-linejoin="round" stroke-linecap="round" fill="none" d="M816.875,168.075 L825.125,200.475 Q833,236.1 831.125,252.525 828.95,271.5 824.825,292.875 821,312.825 816.875,327.525 814.25,336.9 811.55,346.875 811.025,348.225 810.575,348.825 L835.1,342.75 M878.375,193.275 L797,156.975 M878.375,327.525 L906.875,323.775 M803.6,333.75 L804.35,336.825 Q806,342.825 807.875,347.1 809.3,350.325 810.575,348.825" test="RightBum"/>
      <path id="Layer2_0_2_STROKES" stroke="#F90" stroke-width="3" stroke-linejoin="round" stroke-linecap="round" fill="none" d="M835.1,342.75 L837.425,329.25 Q838.325,324 839.075,310.95 839.825,296.475 840.8,289.35 844.175,262.875 856.925,253.275 864.05,247.875 871.025,245.4 876.575,243.375 882.05,243.225 886.925,243.15 892.925,245.25 M797,156.975 Q712.175,119.025 692.375,111.225 679.925,106.35 669.275,103.95 658.1,101.475 649.025,101.775 629.975,102.45 615.425,115.275 599.75,128.925 592.175,146.925 584.15,166.125 588.05,184.275 591.35,199.875 602.975,209.625 608.825,214.5 614.075,216.525 631.025,205.875 647.9,205.275 M835.1,342.75 L827.45,387.225 Q827.975,388.05 827.375,387.6 L825.425,398.775 Q820.775,400.125 815.45,402.975 804.65,408.675 800.9,416.025 797.525,422.625 797.075,428.625 796.775,432.45 797.675,436.05 800.45,447.525 815.375,450.225 829.25,452.775 839.075,446.025 844.325,442.35 849.875,435.75 854.3,431.025 856.7,429.45 857.525,428.925 858.425,428.625 860.6,427.95 863.15,428.625 864.95,429.075 866.9,430.275 873.35,434.025 874.925,433.425 875.225,433.35 878.375,428.775 880.775,425.4 877.4,420.225 874.925,416.4 871.025,413.7 870.725,413.475 870.425,413.25 865.775,411.375 863.9,410.025 860.675,407.625 860.375,400.725 860.075,393.9 869.225,353.625 L878.375,314.775 881.675,314.925 Q886.925,315.075 896.9,314.775 M812.15,336.825 L805.325,333 Q804.425,333.375 803.6,333.75 798.8,335.775 796.4,336.825 801.2,351.375 817.625,374.025 821.375,379.2 826.4,385.8 827.075,386.7 827.45,387.225 L827.375,387.6 Q827,387.375 826.4,386.775 M796.4,336.825 Q790.325,339.6 787.55,342 784.1,344.925 783.425,348.9 782.075,356.4 790.4,368.325 800.75,383.1 822.875,398.775 M803.6,333.75 L803.075,331.725 805.325,333 Q806.75,332.4 808.4,331.725 M614.075,216.525 Q609.95,219.075 605.825,222.225 592.025,232.95 585.5,242.25 581.525,247.95 580.25,253.125 576.725,266.775 577.25,278.775 577.775,290.775 581.075,305.55 583.025,310.275 585.5,315.075 586.25,316.575 587.075,318.075 598.025,338.4 613.325,352.725 629.675,368.025 651.275,373.575 661.175,376.05 669.275,376.2 674.75,376.275 679.4,375.225 678.8,375.9 717.275,405.375 732.5,417.075 747.8,428.625 751.85,431.7 755.9,434.775 L746.9,448.275 M721.4,410.25 L710.9,421.725" test="RightBum"/>
    </g>
    <g id="LeftBum">
      <path id="Layer1_0_1_STROKES" stroke="#FEB7AE" stroke-width="3" stroke-linejoin="round" stroke-linecap="round" fill="none" d="M14.25,150 Q35.775,136.05 58.275,125.025 80.625,114.15 101.7,107.175 128.925,98.175 147.15,98.25 170.1,98.325 186.675,103.95 206.175,110.625 221.25,126.3 228.45,133.725 230.25,149.85 231.6,161.625 229.95,175.8 228.675,186.525 221.55,195.675 217.35,201 207.675,211.95 209.175,213.45 210.525,214.875 217.125,221.925 222.3,231.3 225.825,237.675 227.7,245.775 229.35,252.9 229.8,261.375 230.475,274.575 228.15,287.7 227.625,290.475 226.95,293.25 217.95,332.775 195.3,356.25 177.9,374.25 155.175,385.5 154.875,385.65 137.55,393.6 127.5,398.25 121.275,402.3 111.975,408.3 104.775,413.925 98.25,419.025 90.3,426.3 83.475,432.45 81.075,439.5 78.15,447.975 83.25,454.05 84.825,456 90.225,458.775 95.625,461.55 95.25,460.275 M124.8,199.8 Q139.275,188.925 160.5,189.6 181.2,190.275 195.3,201.3 202.65,207.075 207.675,211.95 M-97.2,243.3 Q-91.725,243.15 -83.85,244.275 -79.35,244.95 -70.5,246.375 -64.125,247.2 -55.2,248.025 -50.1,248.475 -39.9,249.3 -33.3,249.825 -24.9,251.925 -23.25,252.3 -20.025,252.525 -17.85,252.6 -16.65,253.425 -13.8,255.375 -7.2,269.25 -.3,283.8 3.3,294.6 6.375,303.9 10.425,321.075 12.225,328.65 16.35,339.075 21.6,352.35 23.025,356.775 23.475,358.125 25.5,366.975 27.6,375.525 28.8,376.8 30.825,379.05 30.45,380.025 30.45,380.175 33.45,380.775 38.325,381.75 44.4,387.075 50.475,392.25 54,398.55 57.975,405.375 56.7,409.95 55.2,415.275 46.8,416.025 42.675,418.125 35.625,416.55 27.75,414.225 24.225,413.775 16.95,412.8 7.5,414.675 1.425,415.65 -1.425,416.25 -6.15,417.3 -9.9,419.4 -12.675,421.05 -16.275,423.825 -18.3,425.4 -22.275,428.625 -24.375,425.55 -21.825,418.875 -18.375,411.675 -17.325,409.35 -16.5,407.475 -13.725,404.85 -11.025,402.15 -10.35,400.65 -9.075,397.95 -10.8,390.075 -11.475,386.925 -13.65,379.35 -15.225,373.5 -19.125,366.75 -21.45,362.775 -26.7,355.125 M-11.7,397.275 Q-12.225,397.65 -20.175,401.1 -26.475,403.8 -28.275,406.575 -31.275,411.375 -31.8,415.65 -32.625,422.775 -29.25,436.275 -28.875,437.775 -28.425,439.2 -27.45,442.275 -26.1,445.2 -24.525,448.725 -22.35,452.025 -21,454.125 -11.7,465.75 M-26.7,355.125 Q-27.975,353.175 -32.625,347.325 -36.3,342.525 -38.25,339.225 -39.6,336.45 -40.425,334.95 -41.85,332.1 -43.2,331.275 -44.775,330.3 -48.6,330.225 -52.8,330.375 -54.225,330.3 -58.725,330.075 -65.475,330.525 -76.05,331.275 -76.725,331.275 -94.35,332.1 -105.75,330.375 -108.675,330 -115.95,327.225 -122.325,324.75 -126.225,324.75 M3.75,465.3 Q0.3,465 -3.3,461.325 -6.3,458.25 -8.25,454.275 -10.425,449.7 -11.325,445.35 -11.325,445.275 -11.325,445.2 -12.075,441.825 -11.85,439.2 -11.775,437.625 -11.325,436.35 -8.85,428.775 -1.65,424.05 2.325,421.425 12.75,417.3" test="LeftBum"/>
      <path id="Layer1_0_2_STROKES" stroke="#0FF" stroke-width="3" stroke-linejoin="round" stroke-linecap="round" fill="none" d="M14.25,150 L20.025,153.6 Q27.075,158.175 33.225,163.65 53.025,181.05 56.925,199.8 60.15,214.8 67.575,248.325 72.975,278.775 70.8,303.3 67.725,336.825 66,346.275 63.3,361.2 56.925,369.75 L45.3,385.8 M-26.7,355.125 L-29.25,392.25 -11.7,397.275 M-104.7,196.275 Q-93,193.2 -64.725,183.15 -39.675,174.3 -24.75,171.075 -17.025,169.425 -10.65,166.2 -5.7,163.65 1.95,158.325 8.1,154.05 14.25,150" test="LeftBum"/>
    </g>
  </g>
</svg>