<?xml version="1.0" encoding="utf-8"?>
<svg id="EdithAnim08" image-rendering="inherit" baseProfile="basic" version="1.1" x="0px" y="0px" width="800" height="600" xmlns="http://www.w3.org/2000/svg" xmlns:xlink="http://www.w3.org/1999/xlink">
  <g id="No-Rear-To-Rearf118r1" overflow="visible">
    <g id="RightBum">
      <path id="Layer2_0_1_STROKES" stroke="#F0F" stroke-width="3" stroke-linejoin="round" stroke-linecap="round" fill="none" d="M815.275,168.075 L823.525,200.475 Q831.4,236.1 829.525,252.525 827.35,271.5 823.225,292.875 819.4,312.825 815.275,327.525 812.65,336.9 809.95,346.875 809.425,348.225 808.975,348.825 L833.5,342.75 M876.775,193.275 L795.4,156.975 M876.775,327.525 L905.275,323.775 M802,333.75 L802.75,336.825 Q804.4,342.825 806.275,347.1 807.7,350.325 808.975,348.825" test="RightBum"/>
      <path id="Layer2_0_2_STROKES" stroke="#F90" stroke-width="3" stroke-linejoin="round" stroke-linecap="round" fill="none" d="M833.5,342.75 L835.825,329.25 Q836.725,324 837.475,310.95 838.225,296.475 839.2,289.35 842.575,262.875 855.325,253.275 862.45,247.875 869.425,245.4 874.975,243.375 880.45,243.225 885.325,243.15 891.325,245.25 M795.4,156.975 Q710.575,119.025 690.775,111.225 678.325,106.35 667.675,103.95 656.5,101.475 647.425,101.775 628.375,102.45 613.825,115.275 598.15,128.925 590.575,146.925 582.55,166.125 586.45,184.275 589.75,199.875 601.375,209.625 607.225,214.5 612.475,216.525 629.425,205.875 646.3,205.275 M833.5,342.75 L825.85,387.225 Q826.375,388.05 825.775,387.6 L823.825,398.775 Q819.175,400.125 813.85,402.975 803.05,408.675 799.3,416.025 795.925,422.625 795.475,428.625 795.175,432.45 796.075,436.05 798.85,447.525 813.775,450.225 827.65,452.775 837.475,446.025 842.725,442.35 848.275,435.75 852.7,431.025 855.1,429.45 855.925,428.925 856.825,428.625 859,427.95 861.55,428.625 863.35,429.075 865.3,430.275 871.75,434.025 873.325,433.425 873.625,433.35 876.775,428.775 879.175,425.4 875.8,420.225 873.325,416.4 869.425,413.7 869.125,413.475 868.825,413.25 864.175,411.375 862.3,410.025 859.075,407.625 858.775,400.725 858.475,393.9 867.625,353.625 L876.775,314.775 880.075,314.925 Q885.325,315.075 895.3,314.775 M810.55,336.825 L803.725,333 Q802.825,333.375 802,333.75 797.2,335.775 794.8,336.825 799.6,351.375 816.025,374.025 819.775,379.2 824.8,385.8 825.475,386.7 825.85,387.225 L825.775,387.6 Q825.4,387.375 824.8,386.775 M794.8,336.825 Q788.725,339.6 785.95,342 782.5,344.925 781.825,348.9 780.475,356.4 788.8,368.325 799.15,383.1 821.275,398.775 M802,333.75 L801.475,331.725 803.725,333 Q805.15,332.4 806.8,331.725 M612.475,216.525 Q608.35,219.075 604.225,222.225 590.425,232.95 583.9,242.25 579.925,247.95 578.65,253.125 575.125,266.775 575.65,278.775 576.175,290.775 579.475,305.55 581.425,310.275 583.9,315.075 584.65,316.575 585.475,318.075 596.425,338.4 611.725,352.725 628.075,368.025 649.675,373.575 659.575,376.05 667.675,376.2 673.15,376.275 677.8,375.225 677.2,375.9 715.675,405.375 730.9,417.075 746.2,428.625 750.25,431.7 754.3,434.775 L745.3,448.275 M719.8,410.25 L709.3,421.725" test="RightBum"/>
    </g>
    <g id="LeftBum">
      <path id="Layer1_0_1_STROKES" stroke="#FEB7AE" stroke-width="3" stroke-linejoin="round" stroke-linecap="round" fill="none" d="M15.85,150 Q37.375,136.05 59.875,125.025 82.225,114.15 103.3,107.175 130.525,98.175 148.75,98.25 171.7,98.325 188.275,103.95 207.775,110.625 222.85,126.3 230.05,133.725 231.85,149.85 233.2,161.625 231.55,175.8 230.275,186.525 223.15,195.675 218.95,201 209.275,211.95 210.775,213.45 212.125,214.875 218.725,221.925 223.9,231.3 227.425,237.675 229.3,245.775 230.95,252.9 231.4,261.375 232.075,274.575 229.75,287.7 229.225,290.475 228.55,293.25 219.55,332.775 196.9,356.25 179.5,374.25 156.775,385.5 156.475,385.65 139.15,393.6 129.1,398.25 122.875,402.3 113.575,408.3 106.375,413.925 99.85,419.025 91.9,426.3 85.075,432.45 82.675,439.5 79.75,447.975 84.85,454.05 86.425,456 91.825,458.775 97.225,461.55 96.85,460.275 M126.4,199.8 Q140.875,188.925 162.1,189.6 182.8,190.275 196.9,201.3 204.25,207.075 209.275,211.95 M-95.6,243.3 Q-90.125,243.15 -82.25,244.275 -77.75,244.95 -68.9,246.375 -62.525,247.2 -53.6,248.025 -48.5,248.475 -38.3,249.3 -31.7,249.825 -23.3,251.925 -21.65,252.3 -18.425,252.525 -16.25,252.6 -15.05,253.425 -12.2,255.375 -5.6,269.25 1.3,283.8 4.9,294.6 7.975,303.9 12.025,321.075 13.825,328.65 17.95,339.075 23.2,352.35 24.625,356.775 25.075,358.125 27.1,366.975 29.2,375.525 30.4,376.8 32.425,379.05 32.05,380.025 32.05,380.175 35.05,380.775 39.925,381.75 46,387.075 52.075,392.25 55.6,398.55 59.575,405.375 58.3,409.95 56.8,415.275 48.4,416.025 44.275,418.125 37.225,416.55 29.35,414.225 25.825,413.775 18.55,412.8 9.1,414.675 3.025,415.65 .175,416.25 -4.55,417.3 -8.3,419.4 -11.075,421.05 -14.675,423.825 -16.7,425.4 -20.675,428.625 -22.775,425.55 -20.225,418.875 -16.775,411.675 -15.725,409.35 -14.9,407.475 -12.125,404.85 -9.425,402.15 -8.75,400.65 -7.475,397.95 -9.2,390.075 -9.875,386.925 -12.05,379.35 -13.625,373.5 -17.525,366.75 -19.85,362.775 -25.1,355.125 M-10.1,397.275 Q-10.625,397.65 -18.575,401.1 -24.875,403.8 -26.675,406.575 -29.675,411.375 -30.2,415.65 -31.025,422.775 -27.65,436.275 -27.275,437.775 -26.825,439.2 -25.85,442.275 -24.5,445.2 -22.925,448.725 -20.75,452.025 -19.4,454.125 -10.1,465.75 M-25.1,355.125 Q-26.375,353.175 -31.025,347.325 -34.7,342.525 -36.65,339.225 -38,336.45 -38.825,334.95 -40.25,332.1 -41.6,331.275 -43.175,330.3 -47,330.225 -51.2,330.375 -52.625,330.3 -57.125,330.075 -63.875,330.525 -74.45,331.275 -75.125,331.275 -92.75,332.1 -104.15,330.375 -107.075,330 -114.35,327.225 -120.725,324.75 -124.625,324.75 M5.35,465.3 Q1.9,465 -1.7,461.325 -4.7,458.25 -6.65,454.275 -8.825,449.7 -9.725,445.35 -9.725,445.275 -9.725,445.2 -10.475,441.825 -10.25,439.2 -10.175,437.625 -9.725,436.35 -7.25,428.775 -.05,424.05 3.925,421.425 14.35,417.3" test="LeftBum"/>
      <path id="Layer1_0_2_STROKES" stroke="#0FF" stroke-width="3" stroke-linejoin="round" stroke-linecap="round" fill="none" d="M15.85,150 L21.625,153.6 Q28.675,158.175 34.825,163.65 54.625,181.05 58.525,199.8 61.75,214.8 69.175,248.325 74.575,278.775 72.4,303.3 69.325,336.825 67.6,346.275 64.9,361.2 58.525,369.75 L46.9,385.8 M-25.1,355.125 L-27.65,392.25 -10.1,397.275 M-103.1,196.275 Q-91.4,193.2 -63.125,183.15 -38.075,174.3 -23.15,171.075 -15.425,169.425 -9.05,166.2 -4.1,163.65 3.55,158.325 9.7,154.05 15.85,150" test="LeftBum"/>
    </g>
  </g>
</svg>