<?xml version="1.0" encoding="utf-8"?>
<svg id="EdithAnim08" image-rendering="inherit" baseProfile="basic" version="1.1" x="0px" y="0px" width="800" height="600" xmlns="http://www.w3.org/2000/svg" xmlns:xlink="http://www.w3.org/1999/xlink">
  <g id="No-Rear-To-Rearf121r1" overflow="visible">
    <g id="RightBum">
      <path id="Layer2_0_1_STROKES" stroke="#F0F" stroke-width="3" stroke-linejoin="round" stroke-linecap="round" fill="none" d="M810.625,168.075 L818.875,200.475 Q826.75,236.1 824.875,252.525 822.7,271.5 818.575,292.875 814.75,312.825 810.625,327.525 808,336.9 805.3,346.875 804.775,348.225 804.325,348.825 L828.85,342.75 M872.125,193.275 L790.75,156.975 M872.125,327.525 L900.625,323.775 M797.35,333.75 L798.1,336.825 Q799.75,342.825 801.625,347.1 803.05,350.325 804.325,348.825" test="RightBum"/>
      <path id="Layer2_0_2_STROKES" stroke="#F90" stroke-width="3" stroke-linejoin="round" stroke-linecap="round" fill="none" d="M828.85,342.75 L831.175,329.25 Q832.075,324 832.825,310.95 833.575,296.475 834.55,289.35 837.925,262.875 850.675,253.275 857.8,247.875 864.775,245.4 870.325,243.375 875.8,243.225 880.675,243.15 886.675,245.25 M790.75,156.975 Q705.925,119.025 686.125,111.225 673.675,106.35 663.025,103.95 651.85,101.475 642.775,101.775 623.725,102.45 609.175,115.275 593.5,128.925 585.925,146.925 577.9,166.125 581.8,184.275 585.1,199.875 596.725,209.625 602.575,214.5 607.825,216.525 624.775,205.875 641.65,205.275 M828.85,342.75 L821.2,387.225 Q821.725,388.05 821.125,387.6 L819.175,398.775 Q814.525,400.125 809.2,402.975 798.4,408.675 794.65,416.025 791.275,422.625 790.825,428.625 790.525,432.45 791.425,436.05 794.2,447.525 809.125,450.225 823,452.775 832.825,446.025 838.075,442.35 843.625,435.75 848.05,431.025 850.45,429.45 851.275,428.925 852.175,428.625 854.35,427.95 856.9,428.625 858.7,429.075 860.65,430.275 867.1,434.025 868.675,433.425 868.975,433.35 872.125,428.775 874.525,425.4 871.15,420.225 868.675,416.4 864.775,413.7 864.475,413.475 864.175,413.25 859.525,411.375 857.65,410.025 854.425,407.625 854.125,400.725 853.825,393.9 862.975,353.625 L872.125,314.775 875.425,314.925 Q880.675,315.075 890.65,314.775 M805.9,336.825 L799.075,333 Q798.175,333.375 797.35,333.75 792.55,335.775 790.15,336.825 794.95,351.375 811.375,374.025 815.125,379.2 820.15,385.8 820.825,386.7 821.2,387.225 L821.125,387.6 Q820.75,387.375 820.15,386.775 M790.15,336.825 Q784.075,339.6 781.3,342 777.85,344.925 777.175,348.9 775.825,356.4 784.15,368.325 794.5,383.1 816.625,398.775 M797.35,333.75 L796.825,331.725 799.075,333 Q800.5,332.4 802.15,331.725 M607.825,216.525 Q603.7,219.075 599.575,222.225 585.775,232.95 579.25,242.25 575.275,247.95 574,253.125 570.475,266.775 571,278.775 571.525,290.775 574.825,305.55 576.775,310.275 579.25,315.075 580,316.575 580.825,318.075 591.775,338.4 607.075,352.725 623.425,368.025 645.025,373.575 654.925,376.05 663.025,376.2 668.5,376.275 673.15,375.225 672.55,375.9 711.025,405.375 726.25,417.075 741.55,428.625 745.6,431.7 749.65,434.775 L740.65,448.275 M715.15,410.25 L704.65,421.725" test="RightBum"/>
    </g>
    <g id="LeftBum">
      <path id="Layer1_0_1_STROKES" stroke="#FEB7AE" stroke-width="3" stroke-linejoin="round" stroke-linecap="round" fill="none" d="M20.6,150 Q42.125,136.05 64.625,125.025 86.975,114.15 108.05,107.175 135.275,98.175 153.5,98.25 176.45,98.325 193.025,103.95 212.525,110.625 227.6,126.3 234.8,133.725 236.6,149.85 237.95,161.625 236.3,175.8 235.025,186.525 227.9,195.675 223.7,201 214.025,211.95 215.525,213.45 216.875,214.875 223.475,221.925 228.65,231.3 232.175,237.675 234.05,245.775 235.7,252.9 236.15,261.375 236.825,274.575 234.5,287.7 233.975,290.475 233.3,293.25 224.3,332.775 201.65,356.25 184.25,374.25 161.525,385.5 161.225,385.65 143.9,393.6 133.85,398.25 127.625,402.3 118.325,408.3 111.125,413.925 104.6,419.025 96.65,426.3 89.825,432.45 87.425,439.5 84.5,447.975 89.6,454.05 91.175,456 96.575,458.775 101.975,461.55 101.6,460.275 M131.15,199.8 Q145.625,188.925 166.85,189.6 187.55,190.275 201.65,201.3 209,207.075 214.025,211.95 M-90.85,243.3 Q-85.375,243.15 -77.5,244.275 -73,244.95 -64.15,246.375 -57.775,247.2 -48.85,248.025 -43.75,248.475 -33.55,249.3 -26.95,249.825 -18.55,251.925 -16.9,252.3 -13.675,252.525 -11.5,252.6 -10.3,253.425 -7.45,255.375 -.85,269.25 6.05,283.8 9.65,294.6 12.725,303.9 16.775,321.075 18.575,328.65 22.7,339.075 27.95,352.35 29.375,356.775 29.825,358.125 31.85,366.975 33.95,375.525 35.15,376.8 37.175,379.05 36.8,380.025 36.8,380.175 39.8,380.775 44.675,381.75 50.75,387.075 56.825,392.25 60.35,398.55 64.325,405.375 63.05,409.95 61.55,415.275 53.15,416.025 49.025,418.125 41.975,416.55 34.1,414.225 30.575,413.775 23.3,412.8 13.85,414.675 7.775,415.65 4.925,416.25 .2,417.3 -3.55,419.4 -6.325,421.05 -9.925,423.825 -11.95,425.4 -15.925,428.625 -18.025,425.55 -15.475,418.875 -12.025,411.675 -10.975,409.35 -10.15,407.475 -7.375,404.85 -4.675,402.15 -4,400.65 -2.725,397.95 -4.45,390.075 -5.125,386.925 -7.3,379.35 -8.875,373.5 -12.775,366.75 -15.1,362.775 -20.35,355.125 M-5.35,397.275 Q-5.875,397.65 -13.825,401.1 -20.125,403.8 -21.925,406.575 -24.925,411.375 -25.45,415.65 -26.275,422.775 -22.9,436.275 -22.525,437.775 -22.075,439.2 -21.1,442.275 -19.75,445.2 -18.175,448.725 -16,452.025 -14.65,454.125 -5.35,465.75 M-20.35,355.125 Q-21.625,353.175 -26.275,347.325 -29.95,342.525 -31.9,339.225 -33.25,336.45 -34.075,334.95 -35.5,332.1 -36.85,331.275 -38.425,330.3 -42.25,330.225 -46.45,330.375 -47.875,330.3 -52.375,330.075 -59.125,330.525 -69.7,331.275 -70.375,331.275 -88,332.1 -99.4,330.375 -102.325,330 -109.6,327.225 -115.975,324.75 -119.875,324.75 M10.1,465.3 Q6.65,465 3.05,461.325 .05,458.25 -1.9,454.275 -4.075,449.7 -4.975,445.35 -4.975,445.275 -4.975,445.2 -5.725,441.825 -5.5,439.2 -5.425,437.625 -4.975,436.35 -2.5,428.775 4.7,424.05 8.675,421.425 19.1,417.3" test="LeftBum"/>
      <path id="Layer1_0_2_STROKES" stroke="#0FF" stroke-width="3" stroke-linejoin="round" stroke-linecap="round" fill="none" d="M20.6,150 L26.375,153.6 Q33.425,158.175 39.575,163.65 59.375,181.05 63.275,199.8 66.5,214.8 73.925,248.325 79.325,278.775 77.15,303.3 74.075,336.825 72.35,346.275 69.65,361.2 63.275,369.75 L51.65,385.8 M-20.35,355.125 L-22.9,392.25 -5.35,397.275 M-98.35,196.275 Q-86.65,193.2 -58.375,183.15 -33.325,174.3 -18.4,171.075 -10.675,169.425 -4.3,166.2 .65,163.65 8.3,158.325 14.45,154.05 20.6,150" test="LeftBum"/>
    </g>
  </g>
</svg>