<?xml version="1.0" encoding="utf-8"?>
<svg id="EdithAnim08" image-rendering="inherit" baseProfile="basic" version="1.1" x="0px" y="0px" width="800" height="600" xmlns="http://www.w3.org/2000/svg" xmlns:xlink="http://www.w3.org/1999/xlink">
  <g id="No-Rear-To-Rearf122r1" overflow="visible">
    <g id="RightBum">
      <path id="Layer2_0_1_STROKES" stroke="#F0F" stroke-width="3" stroke-linejoin="round" stroke-linecap="round" fill="none" d="M809.075,168.075 L817.325,200.475 Q825.2,236.1 823.325,252.525 821.15,271.5 817.025,292.875 813.2,312.825 809.075,327.525 806.45,336.9 803.75,346.875 803.225,348.225 802.775,348.825 L827.3,342.75 M870.575,193.275 L789.2,156.975 M870.575,327.525 L899.075,323.775 M795.8,333.75 L796.55,336.825 Q798.2,342.825 800.075,347.1 801.5,350.325 802.775,348.825" test="RightBum"/>
      <path id="Layer2_0_2_STROKES" stroke="#F90" stroke-width="3" stroke-linejoin="round" stroke-linecap="round" fill="none" d="M827.3,342.75 L829.625,329.25 Q830.525,324 831.275,310.95 832.025,296.475 833,289.35 836.375,262.875 849.125,253.275 856.25,247.875 863.225,245.4 868.775,243.375 874.25,243.225 879.125,243.15 885.125,245.25 M789.2,156.975 Q704.375,119.025 684.575,111.225 672.125,106.35 661.475,103.95 650.3,101.475 641.225,101.775 622.175,102.45 607.625,115.275 591.95,128.925 584.375,146.925 576.35,166.125 580.25,184.275 583.55,199.875 595.175,209.625 601.025,214.5 606.275,216.525 623.225,205.875 640.1,205.275 M827.3,342.75 L819.65,387.225 Q820.175,388.05 819.575,387.6 L817.625,398.775 Q812.975,400.125 807.65,402.975 796.85,408.675 793.1,416.025 789.725,422.625 789.275,428.625 788.975,432.45 789.875,436.05 792.65,447.525 807.575,450.225 821.45,452.775 831.275,446.025 836.525,442.35 842.075,435.75 846.5,431.025 848.9,429.45 849.725,428.925 850.625,428.625 852.8,427.95 855.35,428.625 857.15,429.075 859.1,430.275 865.55,434.025 867.125,433.425 867.425,433.35 870.575,428.775 872.975,425.4 869.6,420.225 867.125,416.4 863.225,413.7 862.925,413.475 862.625,413.25 857.975,411.375 856.1,410.025 852.875,407.625 852.575,400.725 852.275,393.9 861.425,353.625 L870.575,314.775 873.875,314.925 Q879.125,315.075 889.1,314.775 M804.35,336.825 L797.525,333 Q796.625,333.375 795.8,333.75 791,335.775 788.6,336.825 793.4,351.375 809.825,374.025 813.575,379.2 818.6,385.8 819.275,386.7 819.65,387.225 L819.575,387.6 Q819.2,387.375 818.6,386.775 M788.6,336.825 Q782.525,339.6 779.75,342 776.3,344.925 775.625,348.9 774.275,356.4 782.6,368.325 792.95,383.1 815.075,398.775 M795.8,333.75 L795.275,331.725 797.525,333 Q798.95,332.4 800.6,331.725 M606.275,216.525 Q602.15,219.075 598.025,222.225 584.225,232.95 577.7,242.25 573.725,247.95 572.45,253.125 568.925,266.775 569.45,278.775 569.975,290.775 573.275,305.55 575.225,310.275 577.7,315.075 578.45,316.575 579.275,318.075 590.225,338.4 605.525,352.725 621.875,368.025 643.475,373.575 653.375,376.05 661.475,376.2 666.95,376.275 671.6,375.225 671,375.9 709.475,405.375 724.7,417.075 740,428.625 744.05,431.7 748.1,434.775 L739.1,448.275 M713.6,410.25 L703.1,421.725" test="RightBum"/>
    </g>
    <g id="LeftBum">
      <path id="Layer1_0_1_STROKES" stroke="#FEB7AE" stroke-width="3" stroke-linejoin="round" stroke-linecap="round" fill="none" d="M22.15,150 Q43.675,136.05 66.175,125.025 88.525,114.15 109.6,107.175 136.825,98.175 155.05,98.25 178,98.325 194.575,103.95 214.075,110.625 229.15,126.3 236.35,133.725 238.15,149.85 239.5,161.625 237.85,175.8 236.575,186.525 229.45,195.675 225.25,201 215.575,211.95 217.075,213.45 218.425,214.875 225.025,221.925 230.2,231.3 233.725,237.675 235.6,245.775 237.25,252.9 237.7,261.375 238.375,274.575 236.05,287.7 235.525,290.475 234.85,293.25 225.85,332.775 203.2,356.25 185.8,374.25 163.075,385.5 162.775,385.65 145.45,393.6 135.4,398.25 129.175,402.3 119.875,408.3 112.675,413.925 106.15,419.025 98.2,426.3 91.375,432.45 88.975,439.5 86.05,447.975 91.15,454.05 92.725,456 98.125,458.775 103.525,461.55 103.15,460.275 M132.7,199.8 Q147.175,188.925 168.4,189.6 189.1,190.275 203.2,201.3 210.55,207.075 215.575,211.95 M-89.3,243.3 Q-83.825,243.15 -75.95,244.275 -71.45,244.95 -62.6,246.375 -56.225,247.2 -47.3,248.025 -42.2,248.475 -32,249.3 -25.4,249.825 -17,251.925 -15.35,252.3 -12.125,252.525 -9.95,252.6 -8.75,253.425 -5.9,255.375 .7,269.25 7.6,283.8 11.2,294.6 14.275,303.9 18.325,321.075 20.125,328.65 24.25,339.075 29.5,352.35 30.925,356.775 31.375,358.125 33.4,366.975 35.5,375.525 36.7,376.8 38.725,379.05 38.35,380.025 38.35,380.175 41.35,380.775 46.225,381.75 52.3,387.075 58.375,392.25 61.9,398.55 65.875,405.375 64.6,409.95 63.1,415.275 54.7,416.025 50.575,418.125 43.525,416.55 35.65,414.225 32.125,413.775 24.85,412.8 15.4,414.675 9.325,415.65 6.475,416.25 1.75,417.3 -2,419.4 -4.775,421.05 -8.375,423.825 -10.4,425.4 -14.375,428.625 -16.475,425.55 -13.925,418.875 -10.475,411.675 -9.425,409.35 -8.6,407.475 -5.825,404.85 -3.125,402.15 -2.45,400.65 -1.175,397.95 -2.9,390.075 -3.575,386.925 -5.75,379.35 -7.325,373.5 -11.225,366.75 -13.55,362.775 -18.8,355.125 M-3.8,397.275 Q-4.325,397.65 -12.275,401.1 -18.575,403.8 -20.375,406.575 -23.375,411.375 -23.9,415.65 -24.725,422.775 -21.35,436.275 -20.975,437.775 -20.525,439.2 -19.55,442.275 -18.2,445.2 -16.625,448.725 -14.45,452.025 -13.1,454.125 -3.8,465.75 M-18.8,355.125 Q-20.075,353.175 -24.725,347.325 -28.4,342.525 -30.35,339.225 -31.7,336.45 -32.525,334.95 -33.95,332.1 -35.3,331.275 -36.875,330.3 -40.7,330.225 -44.9,330.375 -46.325,330.3 -50.825,330.075 -57.575,330.525 -68.15,331.275 -68.825,331.275 -86.45,332.1 -97.85,330.375 -100.775,330 -108.05,327.225 -114.425,324.75 -118.325,324.75 M11.65,465.3 Q8.2,465 4.6,461.325 1.6,458.25 -.35,454.275 -2.525,449.7 -3.425,445.35 -3.425,445.275 -3.425,445.2 -4.175,441.825 -3.95,439.2 -3.875,437.625 -3.425,436.35 -.95,428.775 6.25,424.05 10.225,421.425 20.65,417.3" test="LeftBum"/>
      <path id="Layer1_0_2_STROKES" stroke="#0FF" stroke-width="3" stroke-linejoin="round" stroke-linecap="round" fill="none" d="M22.15,150 L27.925,153.6 Q34.975,158.175 41.125,163.65 60.925,181.05 64.825,199.8 68.05,214.8 75.475,248.325 80.875,278.775 78.7,303.3 75.625,336.825 73.9,346.275 71.2,361.2 64.825,369.75 L53.2,385.8 M-18.8,355.125 L-21.35,392.25 -3.8,397.275 M-96.8,196.275 Q-85.1,193.2 -56.825,183.15 -31.775,174.3 -16.85,171.075 -9.125,169.425 -2.75,166.2 2.2,163.65 9.85,158.325 16,154.05 22.15,150" test="LeftBum"/>
    </g>
  </g>
</svg>