<?xml version="1.0" encoding="utf-8"?>
<svg id="EdithAnim08" image-rendering="inherit" baseProfile="basic" version="1.1" x="0px" y="0px" width="800" height="600" xmlns="http://www.w3.org/2000/svg" xmlns:xlink="http://www.w3.org/1999/xlink">
  <g id="No-Rear-To-Rearf123r1" overflow="visible">
    <g id="RightBum">
      <path id="Layer2_0_1_STROKES" stroke="#F0F" stroke-width="3" stroke-linejoin="round" stroke-linecap="round" fill="none" d="M807.525,168.075 L815.775,200.475 Q823.65,236.1 821.775,252.525 819.6,271.5 815.475,292.875 811.65,312.825 807.525,327.525 804.9,336.9 802.2,346.875 801.675,348.225 801.225,348.825 L825.75,342.75 M869.025,193.275 L787.65,156.975 M869.025,327.525 L897.525,323.775 M794.25,333.75 L795,336.825 Q796.65,342.825 798.525,347.1 799.95,350.325 801.225,348.825" test="RightBum"/>
      <path id="Layer2_0_2_STROKES" stroke="#F90" stroke-width="3" stroke-linejoin="round" stroke-linecap="round" fill="none" d="M825.75,342.75 L828.075,329.25 Q828.975,324 829.725,310.95 830.475,296.475 831.45,289.35 834.825,262.875 847.575,253.275 854.7,247.875 861.675,245.4 867.225,243.375 872.7,243.225 877.575,243.15 883.575,245.25 M787.65,156.975 Q702.825,119.025 683.025,111.225 670.575,106.35 659.925,103.95 648.75,101.475 639.675,101.775 620.625,102.45 606.075,115.275 590.4,128.925 582.825,146.925 574.8,166.125 578.7,184.275 582,199.875 593.625,209.625 599.475,214.5 604.725,216.525 621.675,205.875 638.55,205.275 M825.75,342.75 L818.1,387.225 Q818.625,388.05 818.025,387.6 L816.075,398.775 Q811.425,400.125 806.1,402.975 795.3,408.675 791.55,416.025 788.175,422.625 787.725,428.625 787.425,432.45 788.325,436.05 791.1,447.525 806.025,450.225 819.9,452.775 829.725,446.025 834.975,442.35 840.525,435.75 844.95,431.025 847.35,429.45 848.175,428.925 849.075,428.625 851.25,427.95 853.8,428.625 855.6,429.075 857.55,430.275 864,434.025 865.575,433.425 865.875,433.35 869.025,428.775 871.425,425.4 868.05,420.225 865.575,416.4 861.675,413.7 861.375,413.475 861.075,413.25 856.425,411.375 854.55,410.025 851.325,407.625 851.025,400.725 850.725,393.9 859.875,353.625 L869.025,314.775 872.325,314.925 Q877.575,315.075 887.55,314.775 M802.8,336.825 L795.975,333 Q795.075,333.375 794.25,333.75 789.45,335.775 787.05,336.825 791.85,351.375 808.275,374.025 812.025,379.2 817.05,385.8 817.725,386.7 818.1,387.225 L818.025,387.6 Q817.65,387.375 817.05,386.775 M787.05,336.825 Q780.975,339.6 778.2,342 774.75,344.925 774.075,348.9 772.725,356.4 781.05,368.325 791.4,383.1 813.525,398.775 M794.25,333.75 L793.725,331.725 795.975,333 Q797.4,332.4 799.05,331.725 M604.725,216.525 Q600.6,219.075 596.475,222.225 582.675,232.95 576.15,242.25 572.175,247.95 570.9,253.125 567.375,266.775 567.9,278.775 568.425,290.775 571.725,305.55 573.675,310.275 576.15,315.075 576.9,316.575 577.725,318.075 588.675,338.4 603.975,352.725 620.325,368.025 641.925,373.575 651.825,376.05 659.925,376.2 665.4,376.275 670.05,375.225 669.45,375.9 707.925,405.375 723.15,417.075 738.45,428.625 742.5,431.7 746.55,434.775 L737.55,448.275 M712.05,410.25 L701.55,421.725" test="RightBum"/>
    </g>
    <g id="LeftBum">
      <path id="Layer1_0_1_STROKES" stroke="#FEB7AE" stroke-width="3" stroke-linejoin="round" stroke-linecap="round" fill="none" d="M23.75,150 Q45.275,136.05 67.775,125.025 90.125,114.15 111.2,107.175 138.425,98.175 156.65,98.25 179.6,98.325 196.175,103.95 215.675,110.625 230.75,126.3 237.95,133.725 239.75,149.85 241.1,161.625 239.45,175.8 238.175,186.525 231.05,195.675 226.85,201 217.175,211.95 218.675,213.45 220.025,214.875 226.625,221.925 231.8,231.3 235.325,237.675 237.2,245.775 238.85,252.9 239.3,261.375 239.975,274.575 237.65,287.7 237.125,290.475 236.45,293.25 227.45,332.775 204.8,356.25 187.4,374.25 164.675,385.5 164.375,385.65 147.05,393.6 137,398.25 130.775,402.3 121.475,408.3 114.275,413.925 107.75,419.025 99.8,426.3 92.975,432.45 90.575,439.5 87.65,447.975 92.75,454.05 94.325,456 99.725,458.775 105.125,461.55 104.75,460.275 M134.3,199.8 Q148.775,188.925 170,189.6 190.7,190.275 204.8,201.3 212.15,207.075 217.175,211.95 M-87.7,243.3 Q-82.225,243.15 -74.35,244.275 -69.85,244.95 -61,246.375 -54.625,247.2 -45.7,248.025 -40.6,248.475 -30.4,249.3 -23.8,249.825 -15.4,251.925 -13.75,252.3 -10.525,252.525 -8.35,252.6 -7.15,253.425 -4.3,255.375 2.3,269.25 9.2,283.8 12.8,294.6 15.875,303.9 19.925,321.075 21.725,328.65 25.85,339.075 31.1,352.35 32.525,356.775 32.975,358.125 35,366.975 37.1,375.525 38.3,376.8 40.325,379.05 39.95,380.025 39.95,380.175 42.95,380.775 47.825,381.75 53.9,387.075 59.975,392.25 63.5,398.55 67.475,405.375 66.2,409.95 64.7,415.275 56.3,416.025 52.175,418.125 45.125,416.55 37.25,414.225 33.725,413.775 26.45,412.8 17,414.675 10.925,415.65 8.075,416.25 3.35,417.3 -.4,419.4 -3.175,421.05 -6.775,423.825 -8.8,425.4 -12.775,428.625 -14.875,425.55 -12.325,418.875 -8.875,411.675 -7.825,409.35 -7,407.475 -4.225,404.85 -1.525,402.15 -.85,400.65 .425,397.95 -1.3,390.075 -1.975,386.925 -4.15,379.35 -5.725,373.5 -9.625,366.75 -11.95,362.775 -17.2,355.125 M-2.2,397.275 Q-2.725,397.65 -10.675,401.1 -16.975,403.8 -18.775,406.575 -21.775,411.375 -22.3,415.65 -23.125,422.775 -19.75,436.275 -19.375,437.775 -18.925,439.2 -17.95,442.275 -16.6,445.2 -15.025,448.725 -12.85,452.025 -11.5,454.125 -2.2,465.75 M-17.2,355.125 Q-18.475,353.175 -23.125,347.325 -26.8,342.525 -28.75,339.225 -30.1,336.45 -30.925,334.95 -32.35,332.1 -33.7,331.275 -35.275,330.3 -39.1,330.225 -43.3,330.375 -44.725,330.3 -49.225,330.075 -55.975,330.525 -66.55,331.275 -67.225,331.275 -84.85,332.1 -96.25,330.375 -99.175,330 -106.45,327.225 -112.825,324.75 -116.725,324.75 M13.25,465.3 Q9.8,465 6.2,461.325 3.2,458.25 1.25,454.275 -.925,449.7 -1.825,445.35 -1.825,445.275 -1.825,445.2 -2.575,441.825 -2.35,439.2 -2.275,437.625 -1.825,436.35 .65,428.775 7.85,424.05 11.825,421.425 22.25,417.3" test="LeftBum"/>
      <path id="Layer1_0_2_STROKES" stroke="#0FF" stroke-width="3" stroke-linejoin="round" stroke-linecap="round" fill="none" d="M23.75,150 L29.525,153.6 Q36.575,158.175 42.725,163.65 62.525,181.05 66.425,199.8 69.65,214.8 77.075,248.325 82.475,278.775 80.3,303.3 77.225,336.825 75.5,346.275 72.8,361.2 66.425,369.75 L54.8,385.8 M-17.2,355.125 L-19.75,392.25 -2.2,397.275 M-95.2,196.275 Q-83.5,193.2 -55.225,183.15 -30.175,174.3 -15.25,171.075 -7.525,169.425 -1.15,166.2 3.8,163.65 11.45,158.325 17.6,154.05 23.75,150" test="LeftBum"/>
    </g>
  </g>
</svg>