<?xml version="1.0" encoding="utf-8"?>
<svg id="EdithAnim08" image-rendering="inherit" baseProfile="basic" version="1.1" x="0px" y="0px" width="800" height="600" xmlns="http://www.w3.org/2000/svg" xmlns:xlink="http://www.w3.org/1999/xlink">
  <g id="No-Rear-To-Rearf124r1" overflow="visible">
    <g id="RightBum">
      <path id="Layer2_0_1_STROKES" stroke="#F0F" stroke-width="3" stroke-linejoin="round" stroke-linecap="round" fill="none" d="M805.975,168.075 L814.225,200.475 Q822.1,236.1 820.225,252.525 818.05,271.5 813.925,292.875 810.1,312.825 805.975,327.525 803.35,336.9 800.65,346.875 800.125,348.225 799.675,348.825 L824.2,342.75 M867.475,193.275 L786.1,156.975 M867.475,327.525 L895.975,323.775 M792.7,333.75 L793.45,336.825 Q795.1,342.825 796.975,347.1 798.4,350.325 799.675,348.825" test="RightBum"/>
      <path id="Layer2_0_2_STROKES" stroke="#F90" stroke-width="3" stroke-linejoin="round" stroke-linecap="round" fill="none" d="M824.2,342.75 L826.525,329.25 Q827.425,324 828.175,310.95 828.925,296.475 829.9,289.35 833.275,262.875 846.025,253.275 853.15,247.875 860.125,245.4 865.675,243.375 871.15,243.225 876.025,243.15 882.025,245.25 M786.1,156.975 Q701.275,119.025 681.475,111.225 669.025,106.35 658.375,103.95 647.2,101.475 638.125,101.775 619.075,102.45 604.525,115.275 588.85,128.925 581.275,146.925 573.25,166.125 577.15,184.275 580.45,199.875 592.075,209.625 597.925,214.5 603.175,216.525 620.125,205.875 637,205.275 M824.2,342.75 L816.55,387.225 Q817.075,388.05 816.475,387.6 L814.525,398.775 Q809.875,400.125 804.55,402.975 793.75,408.675 790,416.025 786.625,422.625 786.175,428.625 785.875,432.45 786.775,436.05 789.55,447.525 804.475,450.225 818.35,452.775 828.175,446.025 833.425,442.35 838.975,435.75 843.4,431.025 845.8,429.45 846.625,428.925 847.525,428.625 849.7,427.95 852.25,428.625 854.05,429.075 856,430.275 862.45,434.025 864.025,433.425 864.325,433.35 867.475,428.775 869.875,425.4 866.5,420.225 864.025,416.4 860.125,413.7 859.825,413.475 859.525,413.25 854.875,411.375 853,410.025 849.775,407.625 849.475,400.725 849.175,393.9 858.325,353.625 L867.475,314.775 870.775,314.925 Q876.025,315.075 886,314.775 M801.25,336.825 L794.425,333 Q793.525,333.375 792.7,333.75 787.9,335.775 785.5,336.825 790.3,351.375 806.725,374.025 810.475,379.2 815.5,385.8 816.175,386.7 816.55,387.225 L816.475,387.6 Q816.1,387.375 815.5,386.775 M785.5,336.825 Q779.425,339.6 776.65,342 773.2,344.925 772.525,348.9 771.175,356.4 779.5,368.325 789.85,383.1 811.975,398.775 M792.7,333.75 L792.175,331.725 794.425,333 Q795.85,332.4 797.5,331.725 M603.175,216.525 Q599.05,219.075 594.925,222.225 581.125,232.95 574.6,242.25 570.625,247.95 569.35,253.125 565.825,266.775 566.35,278.775 566.875,290.775 570.175,305.55 572.125,310.275 574.6,315.075 575.35,316.575 576.175,318.075 587.125,338.4 602.425,352.725 618.775,368.025 640.375,373.575 650.275,376.05 658.375,376.2 663.85,376.275 668.5,375.225 667.9,375.9 706.375,405.375 721.6,417.075 736.9,428.625 740.95,431.7 745,434.775 L736,448.275 M710.5,410.25 L700,421.725" test="RightBum"/>
    </g>
    <g id="LeftBum">
      <path id="Layer1_0_1_STROKES" stroke="#FEB7AE" stroke-width="3" stroke-linejoin="round" stroke-linecap="round" fill="none" d="M25.3,150 Q46.825,136.05 69.325,125.025 91.675,114.15 112.75,107.175 139.975,98.175 158.2,98.25 181.15,98.325 197.725,103.95 217.225,110.625 232.3,126.3 239.5,133.725 241.3,149.85 242.65,161.625 241,175.8 239.725,186.525 232.6,195.675 228.4,201 218.725,211.95 220.225,213.45 221.575,214.875 228.175,221.925 233.35,231.3 236.875,237.675 238.75,245.775 240.4,252.9 240.85,261.375 241.525,274.575 239.2,287.7 238.675,290.475 238,293.25 229,332.775 206.35,356.25 188.95,374.25 166.225,385.5 165.925,385.65 148.6,393.6 138.55,398.25 132.325,402.3 123.025,408.3 115.825,413.925 109.3,419.025 101.35,426.3 94.525,432.45 92.125,439.5 89.2,447.975 94.3,454.05 95.875,456 101.275,458.775 106.675,461.55 106.3,460.275 M135.85,199.8 Q150.325,188.925 171.55,189.6 192.25,190.275 206.35,201.3 213.7,207.075 218.725,211.95 M-86.15,243.3 Q-80.675,243.15 -72.8,244.275 -68.3,244.95 -59.45,246.375 -53.075,247.2 -44.15,248.025 -39.05,248.475 -28.85,249.3 -22.25,249.825 -13.85,251.925 -12.2,252.3 -8.975,252.525 -6.8,252.6 -5.6,253.425 -2.75,255.375 3.85,269.25 10.75,283.8 14.35,294.6 17.425,303.9 21.475,321.075 23.275,328.65 27.4,339.075 32.65,352.35 34.075,356.775 34.525,358.125 36.55,366.975 38.65,375.525 39.85,376.8 41.875,379.05 41.5,380.025 41.5,380.175 44.5,380.775 49.375,381.75 55.45,387.075 61.525,392.25 65.05,398.55 69.025,405.375 67.75,409.95 66.25,415.275 57.85,416.025 53.725,418.125 46.675,416.55 38.8,414.225 35.275,413.775 28,412.8 18.55,414.675 12.475,415.65 9.625,416.25 4.9,417.3 1.15,419.4 -1.625,421.05 -5.225,423.825 -7.25,425.4 -11.225,428.625 -13.325,425.55 -10.775,418.875 -7.325,411.675 -6.275,409.35 -5.45,407.475 -2.675,404.85 .025,402.15 .7,400.65 1.975,397.95 .25,390.075 -.425,386.925 -2.6,379.35 -4.175,373.5 -8.075,366.75 -10.4,362.775 -15.65,355.125 M-.65,397.275 Q-1.175,397.65 -9.125,401.1 -15.425,403.8 -17.225,406.575 -20.225,411.375 -20.75,415.65 -21.575,422.775 -18.2,436.275 -17.825,437.775 -17.375,439.2 -16.4,442.275 -15.05,445.2 -13.475,448.725 -11.3,452.025 -9.95,454.125 -.65,465.75 M-15.65,355.125 Q-16.925,353.175 -21.575,347.325 -25.25,342.525 -27.2,339.225 -28.55,336.45 -29.375,334.95 -30.8,332.1 -32.15,331.275 -33.725,330.3 -37.55,330.225 -41.75,330.375 -43.175,330.3 -47.675,330.075 -54.425,330.525 -65,331.275 -65.675,331.275 -83.3,332.1 -94.7,330.375 -97.625,330 -104.9,327.225 -111.275,324.75 -115.175,324.75 M14.8,465.3 Q11.35,465 7.75,461.325 4.75,458.25 2.8,454.275 .625,449.7 -.275,445.35 -.275,445.275 -.275,445.2 -1.025,441.825 -.8,439.2 -.725,437.625 -.275,436.35 2.2,428.775 9.4,424.05 13.375,421.425 23.8,417.3" test="LeftBum"/>
      <path id="Layer1_0_2_STROKES" stroke="#0FF" stroke-width="3" stroke-linejoin="round" stroke-linecap="round" fill="none" d="M25.3,150 L31.075,153.6 Q38.125,158.175 44.275,163.65 64.075,181.05 67.975,199.8 71.2,214.8 78.625,248.325 84.025,278.775 81.85,303.3 78.775,336.825 77.05,346.275 74.35,361.2 67.975,369.75 L56.35,385.8 M-15.65,355.125 L-18.2,392.25 -.65,397.275 M-93.65,196.275 Q-81.95,193.2 -53.675,183.15 -28.625,174.3 -13.7,171.075 -5.975,169.425 .4,166.2 5.35,163.65 13,158.325 19.15,154.05 25.3,150" test="LeftBum"/>
    </g>
  </g>
</svg>