<?xml version="1.0" encoding="utf-8"?>
<svg id="EdithAnim08" image-rendering="inherit" baseProfile="basic" version="1.1" x="0px" y="0px" width="800" height="600" xmlns="http://www.w3.org/2000/svg" xmlns:xlink="http://www.w3.org/1999/xlink">
  <g id="No-Rear-To-Rearf128r1" overflow="visible">
    <g id="RightBum">
      <path id="Layer2_0_1_STROKES" stroke="#F0F" stroke-width="3" stroke-linejoin="round" stroke-linecap="round" fill="none" d="M799.925,168.075 L808.175,200.475 Q816.05,236.1 814.175,252.525 812,271.5 807.875,292.875 804.05,312.825 799.925,327.525 797.3,336.9 794.6,346.875 794.075,348.225 793.625,348.825 L818.15,342.75 M861.425,193.275 L780.05,156.975 M861.425,327.525 L889.925,323.775 M786.65,333.75 L787.4,336.825 Q789.05,342.825 790.925,347.1 792.35,350.325 793.625,348.825" test="RightBum"/>
      <path id="Layer2_0_2_STROKES" stroke="#F90" stroke-width="3" stroke-linejoin="round" stroke-linecap="round" fill="none" d="M818.15,342.75 L820.475,329.25 Q821.375,324 822.125,310.95 822.875,296.475 823.85,289.35 827.225,262.875 839.975,253.275 847.1,247.875 854.075,245.4 859.625,243.375 865.1,243.225 869.975,243.15 875.975,245.25 M780.05,156.975 Q695.225,119.025 675.425,111.225 662.975,106.35 652.325,103.95 641.15,101.475 632.075,101.775 613.025,102.45 598.475,115.275 582.8,128.925 575.225,146.925 567.2,166.125 571.1,184.275 574.4,199.875 586.025,209.625 591.875,214.5 597.125,216.525 614.075,205.875 630.95,205.275 M818.15,342.75 L810.5,387.225 Q811.025,388.05 810.425,387.6 L808.475,398.775 Q803.825,400.125 798.5,402.975 787.7,408.675 783.95,416.025 780.575,422.625 780.125,428.625 779.825,432.45 780.725,436.05 783.5,447.525 798.425,450.225 812.3,452.775 822.125,446.025 827.375,442.35 832.925,435.75 837.35,431.025 839.75,429.45 840.575,428.925 841.475,428.625 843.65,427.95 846.2,428.625 848,429.075 849.95,430.275 856.4,434.025 857.975,433.425 858.275,433.35 861.425,428.775 863.825,425.4 860.45,420.225 857.975,416.4 854.075,413.7 853.775,413.475 853.475,413.25 848.825,411.375 846.95,410.025 843.725,407.625 843.425,400.725 843.125,393.9 852.275,353.625 L861.425,314.775 864.725,314.925 Q869.975,315.075 879.95,314.775 M795.2,336.825 L788.375,333 Q787.475,333.375 786.65,333.75 781.85,335.775 779.45,336.825 784.25,351.375 800.675,374.025 804.425,379.2 809.45,385.8 810.125,386.7 810.5,387.225 L810.425,387.6 Q810.05,387.375 809.45,386.775 M779.45,336.825 Q773.375,339.6 770.6,342 767.15,344.925 766.475,348.9 765.125,356.4 773.45,368.325 783.8,383.1 805.925,398.775 M786.65,333.75 L786.125,331.725 788.375,333 Q789.8,332.4 791.45,331.725 M597.125,216.525 Q593,219.075 588.875,222.225 575.075,232.95 568.55,242.25 564.575,247.95 563.3,253.125 559.775,266.775 560.3,278.775 560.825,290.775 564.125,305.55 566.075,310.275 568.55,315.075 569.3,316.575 570.125,318.075 581.075,338.4 596.375,352.725 612.725,368.025 634.325,373.575 644.225,376.05 652.325,376.2 657.8,376.275 662.45,375.225 661.85,375.9 700.325,405.375 715.55,417.075 730.85,428.625 734.9,431.7 738.95,434.775 L729.95,448.275 M704.45,410.25 L693.95,421.725" test="RightBum"/>
    </g>
    <g id="LeftBum">
      <path id="Layer1_0_1_STROKES" stroke="#FEB7AE" stroke-width="3" stroke-linejoin="round" stroke-linecap="round" fill="none" d="M31.5,150 Q53.025,136.05 75.525,125.025 97.875,114.15 118.95,107.175 146.175,98.175 164.4,98.25 187.35,98.325 203.925,103.95 223.425,110.625 238.5,126.3 245.7,133.725 247.5,149.85 248.85,161.625 247.2,175.8 245.925,186.525 238.8,195.675 234.6,201 224.925,211.95 226.425,213.45 227.775,214.875 234.375,221.925 239.55,231.3 243.075,237.675 244.95,245.775 246.6,252.9 247.05,261.375 247.725,274.575 245.4,287.7 244.875,290.475 244.2,293.25 235.2,332.775 212.55,356.25 195.15,374.25 172.425,385.5 172.125,385.65 154.8,393.6 144.75,398.25 138.525,402.3 129.225,408.3 122.025,413.925 115.5,419.025 107.55,426.3 100.725,432.45 98.325,439.5 95.4,447.975 100.5,454.05 102.075,456 107.475,458.775 112.875,461.55 112.5,460.275 M142.05,199.8 Q156.525,188.925 177.75,189.6 198.45,190.275 212.55,201.3 219.9,207.075 224.925,211.95 M-79.95,243.3 Q-74.475,243.15 -66.6,244.275 -62.1,244.95 -53.25,246.375 -46.875,247.2 -37.95,248.025 -32.85,248.475 -22.65,249.3 -16.05,249.825 -7.65,251.925 -6,252.3 -2.775,252.525 -.6,252.6 .6,253.425 3.45,255.375 10.05,269.25 16.95,283.8 20.55,294.6 23.625,303.9 27.675,321.075 29.475,328.65 33.6,339.075 38.85,352.35 40.275,356.775 40.725,358.125 42.75,366.975 44.85,375.525 46.05,376.8 48.075,379.05 47.7,380.025 47.7,380.175 50.7,380.775 55.575,381.75 61.65,387.075 67.725,392.25 71.25,398.55 75.225,405.375 73.95,409.95 72.45,415.275 64.05,416.025 59.925,418.125 52.875,416.55 45,414.225 41.475,413.775 34.2,412.8 24.75,414.675 18.675,415.65 15.825,416.25 11.1,417.3 7.35,419.4 4.575,421.05 .975,423.825 -1.05,425.4 -5.025,428.625 -7.125,425.55 -4.575,418.875 -1.125,411.675 -.075,409.35 .75,407.475 3.525,404.85 6.225,402.15 6.9,400.65 8.175,397.95 6.45,390.075 5.775,386.925 3.6,379.35 2.025,373.5 -1.875,366.75 -4.2,362.775 -9.45,355.125 M5.55,397.275 Q5.025,397.65 -2.925,401.1 -9.225,403.8 -11.025,406.575 -14.025,411.375 -14.55,415.65 -15.375,422.775 -12,436.275 -11.625,437.775 -11.175,439.2 -10.2,442.275 -8.85,445.2 -7.275,448.725 -5.1,452.025 -3.75,454.125 5.55,465.75 M-9.45,355.125 Q-10.725,353.175 -15.375,347.325 -19.05,342.525 -21,339.225 -22.35,336.45 -23.175,334.95 -24.6,332.1 -25.95,331.275 -27.525,330.3 -31.35,330.225 -35.55,330.375 -36.975,330.3 -41.475,330.075 -48.225,330.525 -58.8,331.275 -59.475,331.275 -77.1,332.1 -88.5,330.375 -91.425,330 -98.7,327.225 -105.075,324.75 -108.975,324.75 M21,465.3 Q17.55,465 13.95,461.325 10.95,458.25 9,454.275 6.825,449.7 5.925,445.35 5.925,445.275 5.925,445.2 5.175,441.825 5.4,439.2 5.475,437.625 5.925,436.35 8.4,428.775 15.6,424.05 19.575,421.425 30,417.3" test="LeftBum"/>
      <path id="Layer1_0_2_STROKES" stroke="#0FF" stroke-width="3" stroke-linejoin="round" stroke-linecap="round" fill="none" d="M31.5,150 L37.275,153.6 Q44.325,158.175 50.475,163.65 70.275,181.05 74.175,199.8 77.4,214.8 84.825,248.325 90.225,278.775 88.05,303.3 84.975,336.825 83.25,346.275 80.55,361.2 74.175,369.75 L62.55,385.8 M-9.45,355.125 L-12,392.25 5.55,397.275 M-87.45,196.275 Q-75.75,193.2 -47.475,183.15 -22.425,174.3 -7.5,171.075 .225,169.425 6.6,166.2 11.55,163.65 19.2,158.325 25.35,154.05 31.5,150" test="LeftBum"/>
    </g>
  </g>
</svg>