<?xml version="1.0" encoding="utf-8"?>
<svg id="EdithAnim08" image-rendering="inherit" baseProfile="basic" version="1.1" x="0px" y="0px" width="800" height="600" xmlns="http://www.w3.org/2000/svg" xmlns:xlink="http://www.w3.org/1999/xlink">
  <g id="No-Rear-To-Rearf130r1" overflow="visible">
    <g id="RightBum">
      <path id="Layer2_0_1_STROKES" stroke="#F0F" stroke-width="3" stroke-linejoin="round" stroke-linecap="round" fill="none" d="M796.925,168.075 L805.175,200.475 Q813.05,236.1 811.175,252.525 809,271.5 804.875,292.875 801.05,312.825 796.925,327.525 794.3,336.9 791.6,346.875 791.075,348.225 790.625,348.825 L815.15,342.75 M858.425,193.275 L777.05,156.975 M858.425,327.525 L886.925,323.775 M783.65,333.75 L784.4,336.825 Q786.05,342.825 787.925,347.1 789.35,350.325 790.625,348.825" test="RightBum"/>
      <path id="Layer2_0_2_STROKES" stroke="#F90" stroke-width="3" stroke-linejoin="round" stroke-linecap="round" fill="none" d="M815.15,342.75 L817.475,329.25 Q818.375,324 819.125,310.95 819.875,296.475 820.85,289.35 824.225,262.875 836.975,253.275 844.1,247.875 851.075,245.4 856.625,243.375 862.1,243.225 866.975,243.15 872.975,245.25 M777.05,156.975 Q692.225,119.025 672.425,111.225 659.975,106.35 649.325,103.95 638.15,101.475 629.075,101.775 610.025,102.45 595.475,115.275 579.8,128.925 572.225,146.925 564.2,166.125 568.1,184.275 571.4,199.875 583.025,209.625 588.875,214.5 594.125,216.525 611.075,205.875 627.95,205.275 M815.15,342.75 L807.5,387.225 Q808.025,388.05 807.425,387.6 L805.475,398.775 Q800.825,400.125 795.5,402.975 784.7,408.675 780.95,416.025 777.575,422.625 777.125,428.625 776.825,432.45 777.725,436.05 780.5,447.525 795.425,450.225 809.3,452.775 819.125,446.025 824.375,442.35 829.925,435.75 834.35,431.025 836.75,429.45 837.575,428.925 838.475,428.625 840.65,427.95 843.2,428.625 845,429.075 846.95,430.275 853.4,434.025 854.975,433.425 855.275,433.35 858.425,428.775 860.825,425.4 857.45,420.225 854.975,416.4 851.075,413.7 850.775,413.475 850.475,413.25 845.825,411.375 843.95,410.025 840.725,407.625 840.425,400.725 840.125,393.9 849.275,353.625 L858.425,314.775 861.725,314.925 Q866.975,315.075 876.95,314.775 M792.2,336.825 L785.375,333 Q784.475,333.375 783.65,333.75 778.85,335.775 776.45,336.825 781.25,351.375 797.675,374.025 801.425,379.2 806.45,385.8 807.125,386.7 807.5,387.225 L807.425,387.6 Q807.05,387.375 806.45,386.775 M776.45,336.825 Q770.375,339.6 767.6,342 764.15,344.925 763.475,348.9 762.125,356.4 770.45,368.325 780.8,383.1 802.925,398.775 M783.65,333.75 L783.125,331.725 785.375,333 Q786.8,332.4 788.45,331.725 M594.125,216.525 Q590,219.075 585.875,222.225 572.075,232.95 565.55,242.25 561.575,247.95 560.3,253.125 556.775,266.775 557.3,278.775 557.825,290.775 561.125,305.55 563.075,310.275 565.55,315.075 566.3,316.575 567.125,318.075 578.075,338.4 593.375,352.725 609.725,368.025 631.325,373.575 641.225,376.05 649.325,376.2 654.8,376.275 659.45,375.225 658.85,375.9 697.325,405.375 712.55,417.075 727.85,428.625 731.9,431.7 735.95,434.775 L726.95,448.275 M701.45,410.25 L690.95,421.725" test="RightBum"/>
    </g>
    <g id="LeftBum">
      <path id="Layer1_0_1_STROKES" stroke="#FEB7AE" stroke-width="3" stroke-linejoin="round" stroke-linecap="round" fill="none" d="M34.5,150 Q56.025,136.05 78.525,125.025 100.875,114.15 121.95,107.175 149.175,98.175 167.4,98.25 190.35,98.325 206.925,103.95 226.425,110.625 241.5,126.3 248.7,133.725 250.5,149.85 251.85,161.625 250.2,175.8 248.925,186.525 241.8,195.675 237.6,201 227.925,211.95 229.425,213.45 230.775,214.875 237.375,221.925 242.55,231.3 246.075,237.675 247.95,245.775 249.6,252.9 250.05,261.375 250.725,274.575 248.4,287.7 247.875,290.475 247.2,293.25 238.2,332.775 215.55,356.25 198.15,374.25 175.425,385.5 175.125,385.65 157.8,393.6 147.75,398.25 141.525,402.3 132.225,408.3 125.025,413.925 118.5,419.025 110.55,426.3 103.725,432.45 101.325,439.5 98.4,447.975 103.5,454.05 105.075,456 110.475,458.775 115.875,461.55 115.5,460.275 M145.05,199.8 Q159.525,188.925 180.75,189.6 201.45,190.275 215.55,201.3 222.9,207.075 227.925,211.95 M-76.95,243.3 Q-71.475,243.15 -63.6,244.275 -59.1,244.95 -50.25,246.375 -43.875,247.2 -34.95,248.025 -29.85,248.475 -19.65,249.3 -13.05,249.825 -4.65,251.925 -3,252.3 .225,252.525 2.4,252.6 3.6,253.425 6.45,255.375 13.05,269.25 19.95,283.8 23.55,294.6 26.625,303.9 30.675,321.075 32.475,328.65 36.6,339.075 41.85,352.35 43.275,356.775 43.725,358.125 45.75,366.975 47.85,375.525 49.05,376.8 51.075,379.05 50.7,380.025 50.7,380.175 53.7,380.775 58.575,381.75 64.65,387.075 70.725,392.25 74.25,398.55 78.225,405.375 76.95,409.95 75.45,415.275 67.05,416.025 62.925,418.125 55.875,416.55 48,414.225 44.475,413.775 37.2,412.8 27.75,414.675 21.675,415.65 18.825,416.25 14.1,417.3 10.35,419.4 7.575,421.05 3.975,423.825 1.95,425.4 -2.025,428.625 -4.125,425.55 -1.575,418.875 1.875,411.675 2.925,409.35 3.75,407.475 6.525,404.85 9.225,402.15 9.9,400.65 11.175,397.95 9.45,390.075 8.775,386.925 6.6,379.35 5.025,373.5 1.125,366.75 -1.2,362.775 -6.45,355.125 M8.55,397.275 Q8.025,397.65 .075,401.1 -6.225,403.8 -8.025,406.575 -11.025,411.375 -11.55,415.65 -12.375,422.775 -9,436.275 -8.625,437.775 -8.175,439.2 -7.2,442.275 -5.85,445.2 -4.275,448.725 -2.1,452.025 -.75,454.125 8.55,465.75 M-6.45,355.125 Q-7.725,353.175 -12.375,347.325 -16.05,342.525 -18,339.225 -19.35,336.45 -20.175,334.95 -21.6,332.1 -22.95,331.275 -24.525,330.3 -28.35,330.225 -32.55,330.375 -33.975,330.3 -38.475,330.075 -45.225,330.525 -55.8,331.275 -56.475,331.275 -74.1,332.1 -85.5,330.375 -88.425,330 -95.7,327.225 -102.075,324.75 -105.975,324.75 M24,465.3 Q20.55,465 16.95,461.325 13.95,458.25 12,454.275 9.825,449.7 8.925,445.35 8.925,445.275 8.925,445.2 8.175,441.825 8.4,439.2 8.475,437.625 8.925,436.35 11.4,428.775 18.6,424.05 22.575,421.425 33,417.3" test="LeftBum"/>
      <path id="Layer1_0_2_STROKES" stroke="#0FF" stroke-width="3" stroke-linejoin="round" stroke-linecap="round" fill="none" d="M34.5,150 L40.275,153.6 Q47.325,158.175 53.475,163.65 73.275,181.05 77.175,199.8 80.4,214.8 87.825,248.325 93.225,278.775 91.05,303.3 87.975,336.825 86.25,346.275 83.55,361.2 77.175,369.75 L65.55,385.8 M-6.45,355.125 L-9,392.25 8.55,397.275 M-84.45,196.275 Q-72.75,193.2 -44.475,183.15 -19.425,174.3 -4.5,171.075 3.225,169.425 9.6,166.2 14.55,163.65 22.2,158.325 28.35,154.05 34.5,150" test="LeftBum"/>
    </g>
  </g>
</svg>