<?xml version="1.0" encoding="utf-8"?>
<svg id="EdithAnim08" image-rendering="inherit" baseProfile="basic" version="1.1" x="0px" y="0px" width="800" height="600" xmlns="http://www.w3.org/2000/svg" xmlns:xlink="http://www.w3.org/1999/xlink">
  <g id="No-Rear-To-Rearf131r1" overflow="visible">
    <g id="RightBum">
      <path id="Layer2_0_1_STROKES" stroke="#F0F" stroke-width="3" stroke-linejoin="round" stroke-linecap="round" fill="none" d="M795.425,168.075 L803.675,200.475 Q811.55,236.1 809.675,252.525 807.5,271.5 803.375,292.875 799.55,312.825 795.425,327.525 792.8,336.9 790.1,346.875 789.575,348.225 789.125,348.825 L813.65,342.75 M856.925,193.275 L775.55,156.975 M856.925,327.525 L885.425,323.775 M782.15,333.75 L782.9,336.825 Q784.55,342.825 786.425,347.1 787.85,350.325 789.125,348.825" test="RightBum"/>
      <path id="Layer2_0_2_STROKES" stroke="#F90" stroke-width="3" stroke-linejoin="round" stroke-linecap="round" fill="none" d="M813.65,342.75 L815.975,329.25 Q816.875,324 817.625,310.95 818.375,296.475 819.35,289.35 822.725,262.875 835.475,253.275 842.6,247.875 849.575,245.4 855.125,243.375 860.6,243.225 865.475,243.15 871.475,245.25 M775.55,156.975 Q690.725,119.025 670.925,111.225 658.475,106.35 647.825,103.95 636.65,101.475 627.575,101.775 608.525,102.45 593.975,115.275 578.3,128.925 570.725,146.925 562.7,166.125 566.6,184.275 569.9,199.875 581.525,209.625 587.375,214.5 592.625,216.525 609.575,205.875 626.45,205.275 M813.65,342.75 L806,387.225 Q806.525,388.05 805.925,387.6 L803.975,398.775 Q799.325,400.125 794,402.975 783.2,408.675 779.45,416.025 776.075,422.625 775.625,428.625 775.325,432.45 776.225,436.05 779,447.525 793.925,450.225 807.8,452.775 817.625,446.025 822.875,442.35 828.425,435.75 832.85,431.025 835.25,429.45 836.075,428.925 836.975,428.625 839.15,427.95 841.7,428.625 843.5,429.075 845.45,430.275 851.9,434.025 853.475,433.425 853.775,433.35 856.925,428.775 859.325,425.4 855.95,420.225 853.475,416.4 849.575,413.7 849.275,413.475 848.975,413.25 844.325,411.375 842.45,410.025 839.225,407.625 838.925,400.725 838.625,393.9 847.775,353.625 L856.925,314.775 860.225,314.925 Q865.475,315.075 875.45,314.775 M790.7,336.825 L783.875,333 Q782.975,333.375 782.15,333.75 777.35,335.775 774.95,336.825 779.75,351.375 796.175,374.025 799.925,379.2 804.95,385.8 805.625,386.7 806,387.225 L805.925,387.6 Q805.55,387.375 804.95,386.775 M774.95,336.825 Q768.875,339.6 766.1,342 762.65,344.925 761.975,348.9 760.625,356.4 768.95,368.325 779.3,383.1 801.425,398.775 M782.15,333.75 L781.625,331.725 783.875,333 Q785.3,332.4 786.95,331.725 M592.625,216.525 Q588.5,219.075 584.375,222.225 570.575,232.95 564.05,242.25 560.075,247.95 558.8,253.125 555.275,266.775 555.8,278.775 556.325,290.775 559.625,305.55 561.575,310.275 564.05,315.075 564.8,316.575 565.625,318.075 576.575,338.4 591.875,352.725 608.225,368.025 629.825,373.575 639.725,376.05 647.825,376.2 653.3,376.275 657.95,375.225 657.35,375.9 695.825,405.375 711.05,417.075 726.35,428.625 730.4,431.7 734.45,434.775 L725.45,448.275 M699.95,410.25 L689.45,421.725" test="RightBum"/>
    </g>
    <g id="LeftBum">
      <path id="Layer1_0_1_STROKES" stroke="#FEB7AE" stroke-width="3" stroke-linejoin="round" stroke-linecap="round" fill="none" d="M36.05,150 Q57.575,136.05 80.075,125.025 102.425,114.15 123.5,107.175 150.725,98.175 168.95,98.25 191.9,98.325 208.475,103.95 227.975,110.625 243.05,126.3 250.25,133.725 252.05,149.85 253.4,161.625 251.75,175.8 250.475,186.525 243.35,195.675 239.15,201 229.475,211.95 230.975,213.45 232.325,214.875 238.925,221.925 244.1,231.3 247.625,237.675 249.5,245.775 251.15,252.9 251.6,261.375 252.275,274.575 249.95,287.7 249.425,290.475 248.75,293.25 239.75,332.775 217.1,356.25 199.7,374.25 176.975,385.5 176.675,385.65 159.35,393.6 149.3,398.25 143.075,402.3 133.775,408.3 126.575,413.925 120.05,419.025 112.1,426.3 105.275,432.45 102.875,439.5 99.95,447.975 105.05,454.05 106.625,456 112.025,458.775 117.425,461.55 117.05,460.275 M146.6,199.8 Q161.075,188.925 182.3,189.6 203,190.275 217.1,201.3 224.45,207.075 229.475,211.95 M-75.4,243.3 Q-69.925,243.15 -62.05,244.275 -57.55,244.95 -48.7,246.375 -42.325,247.2 -33.4,248.025 -28.3,248.475 -18.1,249.3 -11.5,249.825 -3.1,251.925 -1.45,252.3 1.775,252.525 3.95,252.6 5.15,253.425 8,255.375 14.6,269.25 21.5,283.8 25.1,294.6 28.175,303.9 32.225,321.075 34.025,328.65 38.15,339.075 43.4,352.35 44.825,356.775 45.275,358.125 47.3,366.975 49.4,375.525 50.6,376.8 52.625,379.05 52.25,380.025 52.25,380.175 55.25,380.775 60.125,381.75 66.2,387.075 72.275,392.25 75.8,398.55 79.775,405.375 78.5,409.95 77,415.275 68.6,416.025 64.475,418.125 57.425,416.55 49.55,414.225 46.025,413.775 38.75,412.8 29.3,414.675 23.225,415.65 20.375,416.25 15.65,417.3 11.9,419.4 9.125,421.05 5.525,423.825 3.5,425.4 -.475,428.625 -2.575,425.55 -.025,418.875 3.425,411.675 4.475,409.35 5.3,407.475 8.075,404.85 10.775,402.15 11.45,400.65 12.725,397.95 11,390.075 10.325,386.925 8.15,379.35 6.575,373.5 2.675,366.75 .35,362.775 -4.9,355.125 M10.1,397.275 Q9.575,397.65 1.625,401.1 -4.675,403.8 -6.475,406.575 -9.475,411.375 -10,415.65 -10.825,422.775 -7.45,436.275 -7.075,437.775 -6.625,439.2 -5.65,442.275 -4.3,445.2 -2.725,448.725 -.55,452.025 .8,454.125 10.1,465.75 M-4.9,355.125 Q-6.175,353.175 -10.825,347.325 -14.5,342.525 -16.45,339.225 -17.8,336.45 -18.625,334.95 -20.05,332.1 -21.4,331.275 -22.975,330.3 -26.8,330.225 -31,330.375 -32.425,330.3 -36.925,330.075 -43.675,330.525 -54.25,331.275 -54.925,331.275 -72.55,332.1 -83.95,330.375 -86.875,330 -94.15,327.225 -100.525,324.75 -104.425,324.75 M25.55,465.3 Q22.1,465 18.5,461.325 15.5,458.25 13.55,454.275 11.375,449.7 10.475,445.35 10.475,445.275 10.475,445.2 9.725,441.825 9.95,439.2 10.025,437.625 10.475,436.35 12.95,428.775 20.15,424.05 24.125,421.425 34.55,417.3" test="LeftBum"/>
      <path id="Layer1_0_2_STROKES" stroke="#0FF" stroke-width="3" stroke-linejoin="round" stroke-linecap="round" fill="none" d="M36.05,150 L41.825,153.6 Q48.875,158.175 55.025,163.65 74.825,181.05 78.725,199.8 81.95,214.8 89.375,248.325 94.775,278.775 92.6,303.3 89.525,336.825 87.8,346.275 85.1,361.2 78.725,369.75 L67.1,385.8 M-4.9,355.125 L-7.45,392.25 10.1,397.275 M-82.9,196.275 Q-71.2,193.2 -42.925,183.15 -17.875,174.3 -2.95,171.075 4.775,169.425 11.15,166.2 16.1,163.65 23.75,158.325 29.9,154.05 36.05,150" test="LeftBum"/>
    </g>
  </g>
</svg>