<?xml version="1.0" encoding="utf-8"?>
<svg id="EdithAnim08" image-rendering="inherit" baseProfile="basic" version="1.1" x="0px" y="0px" width="800" height="600" xmlns="http://www.w3.org/2000/svg" xmlns:xlink="http://www.w3.org/1999/xlink">
  <g id="No-Rear-To-Rearf132r1" overflow="visible">
    <g id="RightBum">
      <path id="Layer2_0_1_STROKES" stroke="#F0F" stroke-width="3" stroke-linejoin="round" stroke-linecap="round" fill="none" d="M793.925,168.075 L802.175,200.475 Q810.05,236.1 808.175,252.525 806,271.5 801.875,292.875 798.05,312.825 793.925,327.525 791.3,336.9 788.6,346.875 788.075,348.225 787.625,348.825 L812.15,342.75 M855.425,193.275 L774.05,156.975 M855.425,327.525 L883.925,323.775 M780.65,333.75 L781.4,336.825 Q783.05,342.825 784.925,347.1 786.35,350.325 787.625,348.825" test="RightBum"/>
      <path id="Layer2_0_2_STROKES" stroke="#F90" stroke-width="3" stroke-linejoin="round" stroke-linecap="round" fill="none" d="M812.15,342.75 L814.475,329.25 Q815.375,324 816.125,310.95 816.875,296.475 817.85,289.35 821.225,262.875 833.975,253.275 841.1,247.875 848.075,245.4 853.625,243.375 859.1,243.225 863.975,243.15 869.975,245.25 M774.05,156.975 Q689.225,119.025 669.425,111.225 656.975,106.35 646.325,103.95 635.15,101.475 626.075,101.775 607.025,102.45 592.475,115.275 576.8,128.925 569.225,146.925 561.2,166.125 565.1,184.275 568.4,199.875 580.025,209.625 585.875,214.5 591.125,216.525 608.075,205.875 624.95,205.275 M812.15,342.75 L804.5,387.225 Q805.025,388.05 804.425,387.6 L802.475,398.775 Q797.825,400.125 792.5,402.975 781.7,408.675 777.95,416.025 774.575,422.625 774.125,428.625 773.825,432.45 774.725,436.05 777.5,447.525 792.425,450.225 806.3,452.775 816.125,446.025 821.375,442.35 826.925,435.75 831.35,431.025 833.75,429.45 834.575,428.925 835.475,428.625 837.65,427.95 840.2,428.625 842,429.075 843.95,430.275 850.4,434.025 851.975,433.425 852.275,433.35 855.425,428.775 857.825,425.4 854.45,420.225 851.975,416.4 848.075,413.7 847.775,413.475 847.475,413.25 842.825,411.375 840.95,410.025 837.725,407.625 837.425,400.725 837.125,393.9 846.275,353.625 L855.425,314.775 858.725,314.925 Q863.975,315.075 873.95,314.775 M789.2,336.825 L782.375,333 Q781.475,333.375 780.65,333.75 775.85,335.775 773.45,336.825 778.25,351.375 794.675,374.025 798.425,379.2 803.45,385.8 804.125,386.7 804.5,387.225 L804.425,387.6 Q804.05,387.375 803.45,386.775 M773.45,336.825 Q767.375,339.6 764.6,342 761.15,344.925 760.475,348.9 759.125,356.4 767.45,368.325 777.8,383.1 799.925,398.775 M780.65,333.75 L780.125,331.725 782.375,333 Q783.8,332.4 785.45,331.725 M591.125,216.525 Q587,219.075 582.875,222.225 569.075,232.95 562.55,242.25 558.575,247.95 557.3,253.125 553.775,266.775 554.3,278.775 554.825,290.775 558.125,305.55 560.075,310.275 562.55,315.075 563.3,316.575 564.125,318.075 575.075,338.4 590.375,352.725 606.725,368.025 628.325,373.575 638.225,376.05 646.325,376.2 651.8,376.275 656.45,375.225 655.85,375.9 694.325,405.375 709.55,417.075 724.85,428.625 728.9,431.7 732.95,434.775 L723.95,448.275 M698.45,410.25 L687.95,421.725" test="RightBum"/>
    </g>
    <g id="LeftBum">
      <path id="Layer1_0_1_STROKES" stroke="#FEB7AE" stroke-width="3" stroke-linejoin="round" stroke-linecap="round" fill="none" d="M37.55,150 Q59.075,136.05 81.575,125.025 103.925,114.15 125,107.175 152.225,98.175 170.45,98.25 193.4,98.325 209.975,103.95 229.475,110.625 244.55,126.3 251.75,133.725 253.55,149.85 254.9,161.625 253.25,175.8 251.975,186.525 244.85,195.675 240.65,201 230.975,211.95 232.475,213.45 233.825,214.875 240.425,221.925 245.6,231.3 249.125,237.675 251,245.775 252.65,252.9 253.1,261.375 253.775,274.575 251.45,287.7 250.925,290.475 250.25,293.25 241.25,332.775 218.6,356.25 201.2,374.25 178.475,385.5 178.175,385.65 160.85,393.6 150.8,398.25 144.575,402.3 135.275,408.3 128.075,413.925 121.55,419.025 113.6,426.3 106.775,432.45 104.375,439.5 101.45,447.975 106.55,454.05 108.125,456 113.525,458.775 118.925,461.55 118.55,460.275 M148.1,199.8 Q162.575,188.925 183.8,189.6 204.5,190.275 218.6,201.3 225.95,207.075 230.975,211.95 M-73.9,243.3 Q-68.425,243.15 -60.55,244.275 -56.05,244.95 -47.2,246.375 -40.825,247.2 -31.9,248.025 -26.8,248.475 -16.6,249.3 -10,249.825 -1.6,251.925 .05,252.3 3.275,252.525 5.45,252.6 6.65,253.425 9.5,255.375 16.1,269.25 23,283.8 26.6,294.6 29.675,303.9 33.725,321.075 35.525,328.65 39.65,339.075 44.9,352.35 46.325,356.775 46.775,358.125 48.8,366.975 50.9,375.525 52.1,376.8 54.125,379.05 53.75,380.025 53.75,380.175 56.75,380.775 61.625,381.75 67.7,387.075 73.775,392.25 77.3,398.55 81.275,405.375 80,409.95 78.5,415.275 70.1,416.025 65.975,418.125 58.925,416.55 51.05,414.225 47.525,413.775 40.25,412.8 30.8,414.675 24.725,415.65 21.875,416.25 17.15,417.3 13.4,419.4 10.625,421.05 7.025,423.825 5,425.4 1.025,428.625 -1.075,425.55 1.475,418.875 4.925,411.675 5.975,409.35 6.8,407.475 9.575,404.85 12.275,402.15 12.95,400.65 14.225,397.95 12.5,390.075 11.825,386.925 9.65,379.35 8.075,373.5 4.175,366.75 1.85,362.775 -3.4,355.125 M11.6,397.275 Q11.075,397.65 3.125,401.1 -3.175,403.8 -4.975,406.575 -7.975,411.375 -8.5,415.65 -9.325,422.775 -5.95,436.275 -5.575,437.775 -5.125,439.2 -4.15,442.275 -2.8,445.2 -1.225,448.725 .95,452.025 2.3,454.125 11.6,465.75 M-3.4,355.125 Q-4.675,353.175 -9.325,347.325 -13,342.525 -14.95,339.225 -16.3,336.45 -17.125,334.95 -18.55,332.1 -19.9,331.275 -21.475,330.3 -25.3,330.225 -29.5,330.375 -30.925,330.3 -35.425,330.075 -42.175,330.525 -52.75,331.275 -53.425,331.275 -71.05,332.1 -82.45,330.375 -85.375,330 -92.65,327.225 -99.025,324.75 -102.925,324.75 M27.05,465.3 Q23.6,465 20,461.325 17,458.25 15.05,454.275 12.875,449.7 11.975,445.35 11.975,445.275 11.975,445.2 11.225,441.825 11.45,439.2 11.525,437.625 11.975,436.35 14.45,428.775 21.65,424.05 25.625,421.425 36.05,417.3" test="LeftBum"/>
      <path id="Layer1_0_2_STROKES" stroke="#0FF" stroke-width="3" stroke-linejoin="round" stroke-linecap="round" fill="none" d="M37.55,150 L43.325,153.6 Q50.375,158.175 56.525,163.65 76.325,181.05 80.225,199.8 83.45,214.8 90.875,248.325 96.275,278.775 94.1,303.3 91.025,336.825 89.3,346.275 86.6,361.2 80.225,369.75 L68.6,385.8 M-3.4,355.125 L-5.95,392.25 11.6,397.275 M-81.4,196.275 Q-69.7,193.2 -41.425,183.15 -16.375,174.3 -1.45,171.075 6.275,169.425 12.65,166.2 17.6,163.65 25.25,158.325 31.4,154.05 37.55,150" test="LeftBum"/>
    </g>
  </g>
</svg>