<?xml version="1.0" encoding="utf-8"?>
<svg id="EdithAnim08" image-rendering="inherit" baseProfile="basic" version="1.1" x="0px" y="0px" width="800" height="600" xmlns="http://www.w3.org/2000/svg" xmlns:xlink="http://www.w3.org/1999/xlink">
  <g id="No-Rear-To-Rearf135r1" overflow="visible">
    <g id="RightBum">
      <path id="Layer2_0_1_STROKES" stroke="#F0F" stroke-width="3" stroke-linejoin="round" stroke-linecap="round" fill="none" d="M789.525,168.075 L797.775,200.475 Q805.65,236.1 803.775,252.525 801.6,271.5 797.475,292.875 793.65,312.825 789.525,327.525 786.9,336.9 784.2,346.875 783.675,348.225 783.225,348.825 L807.75,342.75 M851.025,193.275 L769.65,156.975 M851.025,327.525 L879.525,323.775 M776.25,333.75 L777,336.825 Q778.65,342.825 780.525,347.1 781.95,350.325 783.225,348.825" test="RightBum"/>
      <path id="Layer2_0_2_STROKES" stroke="#F90" stroke-width="3" stroke-linejoin="round" stroke-linecap="round" fill="none" d="M807.75,342.75 L810.075,329.25 Q810.975,324 811.725,310.95 812.475,296.475 813.45,289.35 816.825,262.875 829.575,253.275 836.7,247.875 843.675,245.4 849.225,243.375 854.7,243.225 859.575,243.15 865.575,245.25 M769.65,156.975 Q684.825,119.025 665.025,111.225 652.575,106.35 641.925,103.95 630.75,101.475 621.675,101.775 602.625,102.45 588.075,115.275 572.4,128.925 564.825,146.925 556.8,166.125 560.7,184.275 564,199.875 575.625,209.625 581.475,214.5 586.725,216.525 603.675,205.875 620.55,205.275 M807.75,342.75 L800.1,387.225 Q800.625,388.05 800.025,387.6 L798.075,398.775 Q793.425,400.125 788.1,402.975 777.3,408.675 773.55,416.025 770.175,422.625 769.725,428.625 769.425,432.45 770.325,436.05 773.1,447.525 788.025,450.225 801.9,452.775 811.725,446.025 816.975,442.35 822.525,435.75 826.95,431.025 829.35,429.45 830.175,428.925 831.075,428.625 833.25,427.95 835.8,428.625 837.6,429.075 839.55,430.275 846,434.025 847.575,433.425 847.875,433.35 851.025,428.775 853.425,425.4 850.05,420.225 847.575,416.4 843.675,413.7 843.375,413.475 843.075,413.25 838.425,411.375 836.55,410.025 833.325,407.625 833.025,400.725 832.725,393.9 841.875,353.625 L851.025,314.775 854.325,314.925 Q859.575,315.075 869.55,314.775 M784.8,336.825 L777.975,333 Q777.075,333.375 776.25,333.75 771.45,335.775 769.05,336.825 773.85,351.375 790.275,374.025 794.025,379.2 799.05,385.8 799.725,386.7 800.1,387.225 L800.025,387.6 Q799.65,387.375 799.05,386.775 M769.05,336.825 Q762.975,339.6 760.2,342 756.75,344.925 756.075,348.9 754.725,356.4 763.05,368.325 773.4,383.1 795.525,398.775 M776.25,333.75 L775.725,331.725 777.975,333 Q779.4,332.4 781.05,331.725 M586.725,216.525 Q582.6,219.075 578.475,222.225 564.675,232.95 558.15,242.25 554.175,247.95 552.9,253.125 549.375,266.775 549.9,278.775 550.425,290.775 553.725,305.55 555.675,310.275 558.15,315.075 558.9,316.575 559.725,318.075 570.675,338.4 585.975,352.725 602.325,368.025 623.925,373.575 633.825,376.05 641.925,376.2 647.4,376.275 652.05,375.225 651.45,375.9 689.925,405.375 705.15,417.075 720.45,428.625 724.5,431.7 728.55,434.775 L719.55,448.275 M694.05,410.25 L683.55,421.725" test="RightBum"/>
    </g>
    <g id="LeftBum">
      <path id="Layer1_0_1_STROKES" stroke="#FEB7AE" stroke-width="3" stroke-linejoin="round" stroke-linecap="round" fill="none" d="M42,150 Q63.525,136.05 86.025,125.025 108.375,114.15 129.45,107.175 156.675,98.175 174.9,98.25 197.85,98.325 214.425,103.95 233.925,110.625 249,126.3 256.2,133.725 258,149.85 259.35,161.625 257.7,175.8 256.425,186.525 249.3,195.675 245.1,201 235.425,211.95 236.925,213.45 238.275,214.875 244.875,221.925 250.05,231.3 253.575,237.675 255.45,245.775 257.1,252.9 257.55,261.375 258.225,274.575 255.9,287.7 255.375,290.475 254.7,293.25 245.7,332.775 223.05,356.25 205.65,374.25 182.925,385.5 182.625,385.65 165.3,393.6 155.25,398.25 149.025,402.3 139.725,408.3 132.525,413.925 126,419.025 118.05,426.3 111.225,432.45 108.825,439.5 105.9,447.975 111,454.05 112.575,456 117.975,458.775 123.375,461.55 123,460.275 M152.55,199.8 Q167.025,188.925 188.25,189.6 208.95,190.275 223.05,201.3 230.4,207.075 235.425,211.95 M-69.45,243.3 Q-63.975,243.15 -56.1,244.275 -51.6,244.95 -42.75,246.375 -36.375,247.2 -27.45,248.025 -22.35,248.475 -12.15,249.3 -5.55,249.825 2.85,251.925 4.5,252.3 7.725,252.525 9.9,252.6 11.1,253.425 13.95,255.375 20.55,269.25 27.45,283.8 31.05,294.6 34.125,303.9 38.175,321.075 39.975,328.65 44.1,339.075 49.35,352.35 50.775,356.775 51.225,358.125 53.25,366.975 55.35,375.525 56.55,376.8 58.575,379.05 58.2,380.025 58.2,380.175 61.2,380.775 66.075,381.75 72.15,387.075 78.225,392.25 81.75,398.55 85.725,405.375 84.45,409.95 82.95,415.275 74.55,416.025 70.425,418.125 63.375,416.55 55.5,414.225 51.975,413.775 44.7,412.8 35.25,414.675 29.175,415.65 26.325,416.25 21.6,417.3 17.85,419.4 15.075,421.05 11.475,423.825 9.45,425.4 5.475,428.625 3.375,425.55 5.925,418.875 9.375,411.675 10.425,409.35 11.25,407.475 14.025,404.85 16.725,402.15 17.4,400.65 18.675,397.95 16.95,390.075 16.275,386.925 14.1,379.35 12.525,373.5 8.625,366.75 6.3,362.775 1.05,355.125 M16.05,397.275 Q15.525,397.65 7.575,401.1 1.275,403.8 -.525,406.575 -3.525,411.375 -4.05,415.65 -4.875,422.775 -1.5,436.275 -1.125,437.775 -.675,439.2 .3,442.275 1.65,445.2 3.225,448.725 5.4,452.025 6.75,454.125 16.05,465.75 M1.05,355.125 Q-.225,353.175 -4.875,347.325 -8.55,342.525 -10.5,339.225 -11.85,336.45 -12.675,334.95 -14.1,332.1 -15.45,331.275 -17.025,330.3 -20.85,330.225 -25.05,330.375 -26.475,330.3 -30.975,330.075 -37.725,330.525 -48.3,331.275 -48.975,331.275 -66.6,332.1 -78,330.375 -80.925,330 -88.2,327.225 -94.575,324.75 -98.475,324.75 M31.5,465.3 Q28.05,465 24.45,461.325 21.45,458.25 19.5,454.275 17.325,449.7 16.425,445.35 16.425,445.275 16.425,445.2 15.675,441.825 15.9,439.2 15.975,437.625 16.425,436.35 18.9,428.775 26.1,424.05 30.075,421.425 40.5,417.3" test="LeftBum"/>
      <path id="Layer1_0_2_STROKES" stroke="#0FF" stroke-width="3" stroke-linejoin="round" stroke-linecap="round" fill="none" d="M42,150 L47.775,153.6 Q54.825,158.175 60.975,163.65 80.775,181.05 84.675,199.8 87.9,214.8 95.325,248.325 100.725,278.775 98.55,303.3 95.475,336.825 93.75,346.275 91.05,361.2 84.675,369.75 L73.05,385.8 M1.05,355.125 L-1.5,392.25 16.05,397.275 M-76.95,196.275 Q-65.25,193.2 -36.975,183.15 -11.925,174.3 3,171.075 10.725,169.425 17.1,166.2 22.05,163.65 29.7,158.325 35.85,154.05 42,150" test="LeftBum"/>
    </g>
  </g>
</svg>