<?xml version="1.0" encoding="utf-8"?>
<svg id="EdithAnim08" image-rendering="inherit" baseProfile="basic" version="1.1" x="0px" y="0px" width="800" height="600" xmlns="http://www.w3.org/2000/svg" xmlns:xlink="http://www.w3.org/1999/xlink">
  <g id="No-Rear-To-Rearf137r1" overflow="visible">
    <g id="RightBum">
      <path id="Layer2_0_1_STROKES" stroke="#F0F" stroke-width="3" stroke-linejoin="round" stroke-linecap="round" fill="none" d="M786.625,168.075 L794.875,200.475 Q802.75,236.1 800.875,252.525 798.7,271.5 794.575,292.875 790.75,312.825 786.625,327.525 784,336.9 781.3,346.875 780.775,348.225 780.325,348.825 L804.85,342.75 M848.125,193.275 L766.75,156.975 M848.125,327.525 L876.625,323.775 M773.35,333.75 L774.1,336.825 Q775.75,342.825 777.625,347.1 779.05,350.325 780.325,348.825" test="RightBum"/>
      <path id="Layer2_0_2_STROKES" stroke="#F90" stroke-width="3" stroke-linejoin="round" stroke-linecap="round" fill="none" d="M804.85,342.75 L807.175,329.25 Q808.075,324 808.825,310.95 809.575,296.475 810.55,289.35 813.925,262.875 826.675,253.275 833.8,247.875 840.775,245.4 846.325,243.375 851.8,243.225 856.675,243.15 862.675,245.25 M766.75,156.975 Q681.925,119.025 662.125,111.225 649.675,106.35 639.025,103.95 627.85,101.475 618.775,101.775 599.725,102.45 585.175,115.275 569.5,128.925 561.925,146.925 553.9,166.125 557.8,184.275 561.1,199.875 572.725,209.625 578.575,214.5 583.825,216.525 600.775,205.875 617.65,205.275 M804.85,342.75 L797.2,387.225 Q797.725,388.05 797.125,387.6 L795.175,398.775 Q790.525,400.125 785.2,402.975 774.4,408.675 770.65,416.025 767.275,422.625 766.825,428.625 766.525,432.45 767.425,436.05 770.2,447.525 785.125,450.225 799,452.775 808.825,446.025 814.075,442.35 819.625,435.75 824.05,431.025 826.45,429.45 827.275,428.925 828.175,428.625 830.35,427.95 832.9,428.625 834.7,429.075 836.65,430.275 843.1,434.025 844.675,433.425 844.975,433.35 848.125,428.775 850.525,425.4 847.15,420.225 844.675,416.4 840.775,413.7 840.475,413.475 840.175,413.25 835.525,411.375 833.65,410.025 830.425,407.625 830.125,400.725 829.825,393.9 838.975,353.625 L848.125,314.775 851.425,314.925 Q856.675,315.075 866.65,314.775 M781.9,336.825 L775.075,333 Q774.175,333.375 773.35,333.75 768.55,335.775 766.15,336.825 770.95,351.375 787.375,374.025 791.125,379.2 796.15,385.8 796.825,386.7 797.2,387.225 L797.125,387.6 Q796.75,387.375 796.15,386.775 M766.15,336.825 Q760.075,339.6 757.3,342 753.85,344.925 753.175,348.9 751.825,356.4 760.15,368.325 770.5,383.1 792.625,398.775 M773.35,333.75 L772.825,331.725 775.075,333 Q776.5,332.4 778.15,331.725 M583.825,216.525 Q579.7,219.075 575.575,222.225 561.775,232.95 555.25,242.25 551.275,247.95 550,253.125 546.475,266.775 547,278.775 547.525,290.775 550.825,305.55 552.775,310.275 555.25,315.075 556,316.575 556.825,318.075 567.775,338.4 583.075,352.725 599.425,368.025 621.025,373.575 630.925,376.05 639.025,376.2 644.5,376.275 649.15,375.225 648.55,375.9 687.025,405.375 702.25,417.075 717.55,428.625 721.6,431.7 725.65,434.775 L716.65,448.275 M691.15,410.25 L680.65,421.725" test="RightBum"/>
    </g>
    <g id="LeftBum">
      <path id="Layer1_0_1_STROKES" stroke="#FEB7AE" stroke-width="3" stroke-linejoin="round" stroke-linecap="round" fill="none" d="M44.95,150 Q66.475,136.05 88.975,125.025 111.325,114.15 132.4,107.175 159.625,98.175 177.85,98.25 200.8,98.325 217.375,103.95 236.875,110.625 251.95,126.3 259.15,133.725 260.95,149.85 262.3,161.625 260.65,175.8 259.375,186.525 252.25,195.675 248.05,201 238.375,211.95 239.875,213.45 241.225,214.875 247.825,221.925 253,231.3 256.525,237.675 258.4,245.775 260.05,252.9 260.5,261.375 261.175,274.575 258.85,287.7 258.325,290.475 257.65,293.25 248.65,332.775 226,356.25 208.6,374.25 185.875,385.5 185.575,385.65 168.25,393.6 158.2,398.25 151.975,402.3 142.675,408.3 135.475,413.925 128.95,419.025 121,426.3 114.175,432.45 111.775,439.5 108.85,447.975 113.95,454.05 115.525,456 120.925,458.775 126.325,461.55 125.95,460.275 M155.5,199.8 Q169.975,188.925 191.2,189.6 211.9,190.275 226,201.3 233.35,207.075 238.375,211.95 M-66.5,243.3 Q-61.025,243.15 -53.15,244.275 -48.65,244.95 -39.8,246.375 -33.425,247.2 -24.5,248.025 -19.4,248.475 -9.2,249.3 -2.6,249.825 5.8,251.925 7.45,252.3 10.675,252.525 12.85,252.6 14.05,253.425 16.9,255.375 23.5,269.25 30.4,283.8 34,294.6 37.075,303.9 41.125,321.075 42.925,328.65 47.05,339.075 52.3,352.35 53.725,356.775 54.175,358.125 56.2,366.975 58.3,375.525 59.5,376.8 61.525,379.05 61.15,380.025 61.15,380.175 64.15,380.775 69.025,381.75 75.1,387.075 81.175,392.25 84.7,398.55 88.675,405.375 87.4,409.95 85.9,415.275 77.5,416.025 73.375,418.125 66.325,416.55 58.45,414.225 54.925,413.775 47.65,412.8 38.2,414.675 32.125,415.65 29.275,416.25 24.55,417.3 20.8,419.4 18.025,421.05 14.425,423.825 12.4,425.4 8.425,428.625 6.325,425.55 8.875,418.875 12.325,411.675 13.375,409.35 14.2,407.475 16.975,404.85 19.675,402.15 20.35,400.65 21.625,397.95 19.9,390.075 19.225,386.925 17.05,379.35 15.475,373.5 11.575,366.75 9.25,362.775 4,355.125 M19,397.275 Q18.475,397.65 10.525,401.1 4.225,403.8 2.425,406.575 -.575,411.375 -1.1,415.65 -1.925,422.775 1.45,436.275 1.825,437.775 2.275,439.2 3.25,442.275 4.6,445.2 6.175,448.725 8.35,452.025 9.7,454.125 19,465.75 M4,355.125 Q2.725,353.175 -1.925,347.325 -5.6,342.525 -7.55,339.225 -8.9,336.45 -9.725,334.95 -11.15,332.1 -12.5,331.275 -14.075,330.3 -17.9,330.225 -22.1,330.375 -23.525,330.3 -28.025,330.075 -34.775,330.525 -45.35,331.275 -46.025,331.275 -63.65,332.1 -75.05,330.375 -77.975,330 -85.25,327.225 -91.625,324.75 -95.525,324.75 M34.45,465.3 Q31,465 27.4,461.325 24.4,458.25 22.45,454.275 20.275,449.7 19.375,445.35 19.375,445.275 19.375,445.2 18.625,441.825 18.85,439.2 18.925,437.625 19.375,436.35 21.85,428.775 29.05,424.05 33.025,421.425 43.45,417.3" test="LeftBum"/>
      <path id="Layer1_0_2_STROKES" stroke="#0FF" stroke-width="3" stroke-linejoin="round" stroke-linecap="round" fill="none" d="M44.95,150 L50.725,153.6 Q57.775,158.175 63.925,163.65 83.725,181.05 87.625,199.8 90.85,214.8 98.275,248.325 103.675,278.775 101.5,303.3 98.425,336.825 96.7,346.275 94,361.2 87.625,369.75 L76,385.8 M4,355.125 L1.45,392.25 19,397.275 M-74,196.275 Q-62.3,193.2 -34.025,183.15 -8.975,174.3 5.95,171.075 13.675,169.425 20.05,166.2 25,163.65 32.65,158.325 38.8,154.05 44.95,150" test="LeftBum"/>
    </g>
  </g>
</svg>