<?xml version="1.0" encoding="utf-8"?>
<svg id="EdithAnim08" image-rendering="inherit" baseProfile="basic" version="1.1" x="0px" y="0px" width="800" height="600" xmlns="http://www.w3.org/2000/svg" xmlns:xlink="http://www.w3.org/1999/xlink">
  <g id="No-Rear-To-Rearf139r1" overflow="visible">
    <g id="RightBum">
      <path id="Layer2_0_1_STROKES" stroke="#F0F" stroke-width="3" stroke-linejoin="round" stroke-linecap="round" fill="none" d="M783.775,168.075 L792.025,200.475 Q799.9,236.1 798.025,252.525 795.85,271.5 791.725,292.875 787.9,312.825 783.775,327.525 781.15,336.9 778.45,346.875 777.925,348.225 777.475,348.825 L802,342.75 M845.275,193.275 L763.9,156.975 M845.275,327.525 L873.775,323.775 M770.5,333.75 L771.25,336.825 Q772.9,342.825 774.775,347.1 776.2,350.325 777.475,348.825" test="RightBum"/>
      <path id="Layer2_0_2_STROKES" stroke="#F90" stroke-width="3" stroke-linejoin="round" stroke-linecap="round" fill="none" d="M802,342.75 L804.325,329.25 Q805.225,324 805.975,310.95 806.725,296.475 807.7,289.35 811.075,262.875 823.825,253.275 830.95,247.875 837.925,245.4 843.475,243.375 848.95,243.225 853.825,243.15 859.825,245.25 M763.9,156.975 Q679.075,119.025 659.275,111.225 646.825,106.35 636.175,103.95 625,101.475 615.925,101.775 596.875,102.45 582.325,115.275 566.65,128.925 559.075,146.925 551.05,166.125 554.95,184.275 558.25,199.875 569.875,209.625 575.725,214.5 580.975,216.525 597.925,205.875 614.8,205.275 M802,342.75 L794.35,387.225 Q794.875,388.05 794.275,387.6 L792.325,398.775 Q787.675,400.125 782.35,402.975 771.55,408.675 767.8,416.025 764.425,422.625 763.975,428.625 763.675,432.45 764.575,436.05 767.35,447.525 782.275,450.225 796.15,452.775 805.975,446.025 811.225,442.35 816.775,435.75 821.2,431.025 823.6,429.45 824.425,428.925 825.325,428.625 827.5,427.95 830.05,428.625 831.85,429.075 833.8,430.275 840.25,434.025 841.825,433.425 842.125,433.35 845.275,428.775 847.675,425.4 844.3,420.225 841.825,416.4 837.925,413.7 837.625,413.475 837.325,413.25 832.675,411.375 830.8,410.025 827.575,407.625 827.275,400.725 826.975,393.9 836.125,353.625 L845.275,314.775 848.575,314.925 Q853.825,315.075 863.8,314.775 M779.05,336.825 L772.225,333 Q771.325,333.375 770.5,333.75 765.7,335.775 763.3,336.825 768.1,351.375 784.525,374.025 788.275,379.2 793.3,385.8 793.975,386.7 794.35,387.225 L794.275,387.6 Q793.9,387.375 793.3,386.775 M763.3,336.825 Q757.225,339.6 754.45,342 751,344.925 750.325,348.9 748.975,356.4 757.3,368.325 767.65,383.1 789.775,398.775 M770.5,333.75 L769.975,331.725 772.225,333 Q773.65,332.4 775.3,331.725 M580.975,216.525 Q576.85,219.075 572.725,222.225 558.925,232.95 552.4,242.25 548.425,247.95 547.15,253.125 543.625,266.775 544.15,278.775 544.675,290.775 547.975,305.55 549.925,310.275 552.4,315.075 553.15,316.575 553.975,318.075 564.925,338.4 580.225,352.725 596.575,368.025 618.175,373.575 628.075,376.05 636.175,376.2 641.65,376.275 646.3,375.225 645.7,375.9 684.175,405.375 699.4,417.075 714.7,428.625 718.75,431.7 722.8,434.775 L713.8,448.275 M688.3,410.25 L677.8,421.725" test="RightBum"/>
    </g>
    <g id="LeftBum">
      <path id="Layer1_0_1_STROKES" stroke="#FEB7AE" stroke-width="3" stroke-linejoin="round" stroke-linecap="round" fill="none" d="M47.9,150 Q69.425,136.05 91.925,125.025 114.275,114.15 135.35,107.175 162.575,98.175 180.8,98.25 203.75,98.325 220.325,103.95 239.825,110.625 254.9,126.3 262.1,133.725 263.9,149.85 265.25,161.625 263.6,175.8 262.325,186.525 255.2,195.675 251,201 241.325,211.95 242.825,213.45 244.175,214.875 250.775,221.925 255.95,231.3 259.475,237.675 261.35,245.775 263,252.9 263.45,261.375 264.125,274.575 261.8,287.7 261.275,290.475 260.6,293.25 251.6,332.775 228.95,356.25 211.55,374.25 188.825,385.5 188.525,385.65 171.2,393.6 161.15,398.25 154.925,402.3 145.625,408.3 138.425,413.925 131.9,419.025 123.95,426.3 117.125,432.45 114.725,439.5 111.8,447.975 116.9,454.05 118.475,456 123.875,458.775 129.275,461.55 128.9,460.275 M158.45,199.8 Q172.925,188.925 194.15,189.6 214.85,190.275 228.95,201.3 236.3,207.075 241.325,211.95 M-63.55,243.3 Q-58.075,243.15 -50.2,244.275 -45.7,244.95 -36.85,246.375 -30.475,247.2 -21.55,248.025 -16.45,248.475 -6.25,249.3 .35,249.825 8.75,251.925 10.4,252.3 13.625,252.525 15.8,252.6 17,253.425 19.85,255.375 26.45,269.25 33.35,283.8 36.95,294.6 40.025,303.9 44.075,321.075 45.875,328.65 50,339.075 55.25,352.35 56.675,356.775 57.125,358.125 59.15,366.975 61.25,375.525 62.45,376.8 64.475,379.05 64.1,380.025 64.1,380.175 67.1,380.775 71.975,381.75 78.05,387.075 84.125,392.25 87.65,398.55 91.625,405.375 90.35,409.95 88.85,415.275 80.45,416.025 76.325,418.125 69.275,416.55 61.4,414.225 57.875,413.775 50.6,412.8 41.15,414.675 35.075,415.65 32.225,416.25 27.5,417.3 23.75,419.4 20.975,421.05 17.375,423.825 15.35,425.4 11.375,428.625 9.275,425.55 11.825,418.875 15.275,411.675 16.325,409.35 17.15,407.475 19.925,404.85 22.625,402.15 23.3,400.65 24.575,397.95 22.85,390.075 22.175,386.925 20,379.35 18.425,373.5 14.525,366.75 12.2,362.775 6.95,355.125 M21.95,397.275 Q21.425,397.65 13.475,401.1 7.175,403.8 5.375,406.575 2.375,411.375 1.85,415.65 1.025,422.775 4.4,436.275 4.775,437.775 5.225,439.2 6.2,442.275 7.55,445.2 9.125,448.725 11.3,452.025 12.65,454.125 21.95,465.75 M6.95,355.125 Q5.675,353.175 1.025,347.325 -2.65,342.525 -4.6,339.225 -5.95,336.45 -6.775,334.95 -8.2,332.1 -9.55,331.275 -11.125,330.3 -14.95,330.225 -19.15,330.375 -20.575,330.3 -25.075,330.075 -31.825,330.525 -42.4,331.275 -43.075,331.275 -60.7,332.1 -72.1,330.375 -75.025,330 -82.3,327.225 -88.675,324.75 -92.575,324.75 M37.4,465.3 Q33.95,465 30.35,461.325 27.35,458.25 25.4,454.275 23.225,449.7 22.325,445.35 22.325,445.275 22.325,445.2 21.575,441.825 21.8,439.2 21.875,437.625 22.325,436.35 24.8,428.775 32,424.05 35.975,421.425 46.4,417.3" test="LeftBum"/>
      <path id="Layer1_0_2_STROKES" stroke="#0FF" stroke-width="3" stroke-linejoin="round" stroke-linecap="round" fill="none" d="M47.9,150 L53.675,153.6 Q60.725,158.175 66.875,163.65 86.675,181.05 90.575,199.8 93.8,214.8 101.225,248.325 106.625,278.775 104.45,303.3 101.375,336.825 99.65,346.275 96.95,361.2 90.575,369.75 L78.95,385.8 M6.95,355.125 L4.4,392.25 21.95,397.275 M-71.05,196.275 Q-59.35,193.2 -31.075,183.15 -6.025,174.3 8.9,171.075 16.625,169.425 23,166.2 27.95,163.65 35.6,158.325 41.75,154.05 47.9,150" test="LeftBum"/>
    </g>
  </g>
</svg>