<?xml version="1.0" encoding="utf-8"?>
<svg id="EdithAnim08" image-rendering="inherit" baseProfile="basic" version="1.1" x="0px" y="0px" width="800" height="600" xmlns="http://www.w3.org/2000/svg" xmlns:xlink="http://www.w3.org/1999/xlink">
  <g id="No-Rear-To-Rearf14r1" overflow="visible">
    <g id="RightBum">
      <path id="Layer2_0_1_STROKES" stroke="#F0F" stroke-width="3" stroke-linejoin="round" stroke-linecap="round" fill="none" d="M1016.725,168.075 L1024.975,200.475 Q1032.85,236.1 1030.975,252.525 1028.8,271.5 1024.675,292.875 1020.85,312.825 1016.725,327.525 1014.1,336.9 1011.4,346.875 1010.875,348.225 1010.425,348.825 L1034.95,342.75 M1078.225,193.275 L996.85,156.975 M1078.225,327.525 L1106.725,323.775 M1003.45,333.75 L1004.2,336.825 Q1005.85,342.825 1007.725,347.1 1009.15,350.325 1010.425,348.825" test="RightBum"/>
      <path id="Layer2_0_2_STROKES" stroke="#F90" stroke-width="3" stroke-linejoin="round" stroke-linecap="round" fill="none" d="M1034.95,342.75 L1037.275,329.25 Q1038.175,324 1038.925,310.95 1039.675,296.475 1040.65,289.35 1044.025,262.875 1056.775,253.275 1063.9,247.875 1070.875,245.4 1076.425,243.375 1081.9,243.225 1086.775,243.15 1092.775,245.25 M996.85,156.975 Q912.025,119.025 892.225,111.225 879.775,106.35 869.125,103.95 857.95,101.475 848.875,101.775 829.825,102.45 815.275,115.275 799.6,128.925 792.025,146.925 784,166.125 787.9,184.275 791.2,199.875 802.825,209.625 808.675,214.5 813.925,216.525 830.875,205.875 847.75,205.275 M1034.95,342.75 L1027.3,387.225 Q1027.825,388.05 1027.225,387.6 L1025.275,398.775 Q1020.625,400.125 1015.3,402.975 1004.5,408.675 1000.75,416.025 997.375,422.625 996.925,428.625 996.625,432.45 997.525,436.05 1000.3,447.525 1015.225,450.225 1029.1,452.775 1038.925,446.025 1044.175,442.35 1049.725,435.75 1054.15,431.025 1056.55,429.45 1057.375,428.925 1058.275,428.625 1060.45,427.95 1063,428.625 1064.8,429.075 1066.75,430.275 1073.2,434.025 1074.775,433.425 1075.075,433.35 1078.225,428.775 1080.625,425.4 1077.25,420.225 1074.775,416.4 1070.875,413.7 1070.575,413.475 1070.275,413.25 1065.625,411.375 1063.75,410.025 1060.525,407.625 1060.225,400.725 1059.925,393.9 1069.075,353.625 L1078.225,314.775 1081.525,314.925 Q1086.775,315.075 1096.75,314.775 M1012,336.825 L1005.175,333 Q1004.275,333.375 1003.45,333.75 998.65,335.775 996.25,336.825 1001.05,351.375 1017.475,374.025 1021.225,379.2 1026.25,385.8 1026.925,386.7 1027.3,387.225 L1027.225,387.6 Q1026.85,387.375 1026.25,386.775 M996.25,336.825 Q990.175,339.6 987.4,342 983.95,344.925 983.275,348.9 981.925,356.4 990.25,368.325 1000.6,383.1 1022.725,398.775 M1003.45,333.75 L1002.925,331.725 1005.175,333 Q1006.6,332.4 1008.25,331.725 M813.925,216.525 Q809.8,219.075 805.675,222.225 791.875,232.95 785.35,242.25 781.375,247.95 780.1,253.125 776.575,266.775 777.1,278.775 777.625,290.775 780.925,305.55 782.875,310.275 785.35,315.075 786.1,316.575 786.925,318.075 797.875,338.4 813.175,352.725 829.525,368.025 851.125,373.575 861.025,376.05 869.125,376.2 874.6,376.275 879.25,375.225 878.65,375.9 917.125,405.375 932.35,417.075 947.65,428.625 951.7,431.7 955.75,434.775 L946.75,448.275 M921.25,410.25 L910.75,421.725" test="RightBum"/>
    </g>
    <g id="LeftBum">
      <path id="Layer1_0_1_STROKES" stroke="#FEB7AE" stroke-width="3" stroke-linejoin="round" stroke-linecap="round" fill="none" d="M-188.9,150 Q-167.375,136.05 -144.875,125.025 -122.525,114.15 -101.45,107.175 -74.225,98.175 -56,98.25 -33.05,98.325 -16.475,103.95 3.025,110.625 18.1,126.3 25.3,133.725 27.1,149.85 28.45,161.625 26.8,175.8 25.525,186.525 18.4,195.675 14.2,201 4.525,211.95 6.025,213.45 7.375,214.875 13.975,221.925 19.15,231.3 22.675,237.675 24.55,245.775 26.2,252.9 26.65,261.375 27.325,274.575 25,287.7 24.475,290.475 23.8,293.25 14.8,332.775 -7.85,356.25 -25.25,374.25 -47.975,385.5 -48.275,385.65 -65.6,393.6 -75.65,398.25 -81.875,402.3 -91.175,408.3 -98.375,413.925 -104.9,419.025 -112.85,426.3 -119.675,432.45 -122.075,439.5 -125,447.975 -119.9,454.05 -118.325,456 -112.925,458.775 -107.525,461.55 -107.9,460.275 M-78.35,199.8 Q-63.875,188.925 -42.65,189.6 -21.95,190.275 -7.85,201.3 -.5,207.075 4.525,211.95 M-300.35,243.3 Q-294.875,243.15 -287,244.275 -282.5,244.95 -273.65,246.375 -267.275,247.2 -258.35,248.025 -253.25,248.475 -243.05,249.3 -236.45,249.825 -228.05,251.925 -226.4,252.3 -223.175,252.525 -221,252.6 -219.8,253.425 -216.95,255.375 -210.35,269.25 -203.45,283.8 -199.85,294.6 -196.775,303.9 -192.725,321.075 -190.925,328.65 -186.8,339.075 -181.55,352.35 -180.125,356.775 -179.675,358.125 -177.65,366.975 -175.55,375.525 -174.35,376.8 -172.325,379.05 -172.7,380.025 -172.7,380.175 -169.7,380.775 -164.825,381.75 -158.75,387.075 -152.675,392.25 -149.15,398.55 -145.175,405.375 -146.45,409.95 -147.95,415.275 -156.35,416.025 -160.475,418.125 -167.525,416.55 -175.4,414.225 -178.925,413.775 -186.2,412.8 -195.65,414.675 -201.725,415.65 -204.575,416.25 -209.3,417.3 -213.05,419.4 -215.825,421.05 -219.425,423.825 -221.45,425.4 -225.425,428.625 -227.525,425.55 -224.975,418.875 -221.525,411.675 -220.475,409.35 -219.65,407.475 -216.875,404.85 -214.175,402.15 -213.5,400.65 -212.225,397.95 -213.95,390.075 -214.625,386.925 -216.8,379.35 -218.375,373.5 -222.275,366.75 -224.6,362.775 -229.85,355.125 M-214.85,397.275 Q-215.375,397.65 -223.325,401.1 -229.625,403.8 -231.425,406.575 -234.425,411.375 -234.95,415.65 -235.775,422.775 -232.4,436.275 -232.025,437.775 -231.575,439.2 -230.6,442.275 -229.25,445.2 -227.675,448.725 -225.5,452.025 -224.15,454.125 -214.85,465.75 M-229.85,355.125 Q-231.125,353.175 -235.775,347.325 -239.45,342.525 -241.4,339.225 -242.75,336.45 -243.575,334.95 -245,332.1 -246.35,331.275 -247.925,330.3 -251.75,330.225 -255.95,330.375 -257.375,330.3 -261.875,330.075 -268.625,330.525 -279.2,331.275 -279.875,331.275 -297.5,332.1 -308.9,330.375 -311.825,330 -319.1,327.225 -325.475,324.75 -329.375,324.75 M-199.4,465.3 Q-202.85,465 -206.45,461.325 -209.45,458.25 -211.4,454.275 -213.575,449.7 -214.475,445.35 -214.475,445.275 -214.475,445.2 -215.225,441.825 -215,439.2 -214.925,437.625 -214.475,436.35 -212,428.775 -204.8,424.05 -200.825,421.425 -190.4,417.3" test="LeftBum"/>
      <path id="Layer1_0_2_STROKES" stroke="#0FF" stroke-width="3" stroke-linejoin="round" stroke-linecap="round" fill="none" d="M-188.9,150 L-183.125,153.6 Q-176.075,158.175 -169.925,163.65 -150.125,181.05 -146.225,199.8 -143,214.8 -135.575,248.325 -130.175,278.775 -132.35,303.3 -135.425,336.825 -137.15,346.275 -139.85,361.2 -146.225,369.75 L-157.85,385.8 M-229.85,355.125 L-232.4,392.25 -214.85,397.275 M-307.85,196.275 Q-296.15,193.2 -267.875,183.15 -242.825,174.3 -227.9,171.075 -220.175,169.425 -213.8,166.2 -208.85,163.65 -201.2,158.325 -195.05,154.05 -188.9,150" test="LeftBum"/>
    </g>
  </g>
</svg>