<?xml version="1.0" encoding="utf-8"?>
<svg id="EdithAnim08" image-rendering="inherit" baseProfile="basic" version="1.1" x="0px" y="0px" width="800" height="600" xmlns="http://www.w3.org/2000/svg" xmlns:xlink="http://www.w3.org/1999/xlink">
  <g id="No-Rear-To-Rearf143r1" overflow="visible">
    <g id="RightBum">
      <path id="Layer2_0_1_STROKES" stroke="#F0F" stroke-width="3" stroke-linejoin="round" stroke-linecap="round" fill="none" d="M778.125,168.075 L786.375,200.475 Q794.25,236.1 792.375,252.525 790.2,271.5 786.075,292.875 782.25,312.825 778.125,327.525 775.5,336.9 772.8,346.875 772.275,348.225 771.825,348.825 L796.35,342.75 M839.625,193.275 L758.25,156.975 M839.625,327.525 L868.125,323.775 M764.85,333.75 L765.6,336.825 Q767.25,342.825 769.125,347.1 770.55,350.325 771.825,348.825" test="RightBum"/>
      <path id="Layer2_0_2_STROKES" stroke="#F90" stroke-width="3" stroke-linejoin="round" stroke-linecap="round" fill="none" d="M796.35,342.75 L798.675,329.25 Q799.575,324 800.325,310.95 801.075,296.475 802.05,289.35 805.425,262.875 818.175,253.275 825.3,247.875 832.275,245.4 837.825,243.375 843.3,243.225 848.175,243.15 854.175,245.25 M758.25,156.975 Q673.425,119.025 653.625,111.225 641.175,106.35 630.525,103.95 619.35,101.475 610.275,101.775 591.225,102.45 576.675,115.275 561,128.925 553.425,146.925 545.4,166.125 549.3,184.275 552.6,199.875 564.225,209.625 570.075,214.5 575.325,216.525 592.275,205.875 609.15,205.275 M796.35,342.75 L788.7,387.225 Q789.225,388.05 788.625,387.6 L786.675,398.775 Q782.025,400.125 776.7,402.975 765.9,408.675 762.15,416.025 758.775,422.625 758.325,428.625 758.025,432.45 758.925,436.05 761.7,447.525 776.625,450.225 790.5,452.775 800.325,446.025 805.575,442.35 811.125,435.75 815.55,431.025 817.95,429.45 818.775,428.925 819.675,428.625 821.85,427.95 824.4,428.625 826.2,429.075 828.15,430.275 834.6,434.025 836.175,433.425 836.475,433.35 839.625,428.775 842.025,425.4 838.65,420.225 836.175,416.4 832.275,413.7 831.975,413.475 831.675,413.25 827.025,411.375 825.15,410.025 821.925,407.625 821.625,400.725 821.325,393.9 830.475,353.625 L839.625,314.775 842.925,314.925 Q848.175,315.075 858.15,314.775 M773.4,336.825 L766.575,333 Q765.675,333.375 764.85,333.75 760.05,335.775 757.65,336.825 762.45,351.375 778.875,374.025 782.625,379.2 787.65,385.8 788.325,386.7 788.7,387.225 L788.625,387.6 Q788.25,387.375 787.65,386.775 M757.65,336.825 Q751.575,339.6 748.8,342 745.35,344.925 744.675,348.9 743.325,356.4 751.65,368.325 762,383.1 784.125,398.775 M764.85,333.75 L764.325,331.725 766.575,333 Q768,332.4 769.65,331.725 M575.325,216.525 Q571.2,219.075 567.075,222.225 553.275,232.95 546.75,242.25 542.775,247.95 541.5,253.125 537.975,266.775 538.5,278.775 539.025,290.775 542.325,305.55 544.275,310.275 546.75,315.075 547.5,316.575 548.325,318.075 559.275,338.4 574.575,352.725 590.925,368.025 612.525,373.575 622.425,376.05 630.525,376.2 636,376.275 640.65,375.225 640.05,375.9 678.525,405.375 693.75,417.075 709.05,428.625 713.1,431.7 717.15,434.775 L708.15,448.275 M682.65,410.25 L672.15,421.725" test="RightBum"/>
    </g>
    <g id="LeftBum">
      <path id="Layer1_0_1_STROKES" stroke="#FEB7AE" stroke-width="3" stroke-linejoin="round" stroke-linecap="round" fill="none" d="M53.6,150 Q75.125,136.05 97.625,125.025 119.975,114.15 141.05,107.175 168.275,98.175 186.5,98.25 209.45,98.325 226.025,103.95 245.525,110.625 260.6,126.3 267.8,133.725 269.6,149.85 270.95,161.625 269.3,175.8 268.025,186.525 260.9,195.675 256.7,201 247.025,211.95 248.525,213.45 249.875,214.875 256.475,221.925 261.65,231.3 265.175,237.675 267.05,245.775 268.7,252.9 269.15,261.375 269.825,274.575 267.5,287.7 266.975,290.475 266.3,293.25 257.3,332.775 234.65,356.25 217.25,374.25 194.525,385.5 194.225,385.65 176.9,393.6 166.85,398.25 160.625,402.3 151.325,408.3 144.125,413.925 137.6,419.025 129.65,426.3 122.825,432.45 120.425,439.5 117.5,447.975 122.6,454.05 124.175,456 129.575,458.775 134.975,461.55 134.6,460.275 M164.15,199.8 Q178.625,188.925 199.85,189.6 220.55,190.275 234.65,201.3 242,207.075 247.025,211.95 M-57.85,243.3 Q-52.375,243.15 -44.5,244.275 -40,244.95 -31.15,246.375 -24.775,247.2 -15.85,248.025 -10.75,248.475 -.55,249.3 6.05,249.825 14.45,251.925 16.1,252.3 19.325,252.525 21.5,252.6 22.7,253.425 25.55,255.375 32.15,269.25 39.05,283.8 42.65,294.6 45.725,303.9 49.775,321.075 51.575,328.65 55.7,339.075 60.95,352.35 62.375,356.775 62.825,358.125 64.85,366.975 66.95,375.525 68.15,376.8 70.175,379.05 69.8,380.025 69.8,380.175 72.8,380.775 77.675,381.75 83.75,387.075 89.825,392.25 93.35,398.55 97.325,405.375 96.05,409.95 94.55,415.275 86.15,416.025 82.025,418.125 74.975,416.55 67.1,414.225 63.575,413.775 56.3,412.8 46.85,414.675 40.775,415.65 37.925,416.25 33.2,417.3 29.45,419.4 26.675,421.05 23.075,423.825 21.05,425.4 17.075,428.625 14.975,425.55 17.525,418.875 20.975,411.675 22.025,409.35 22.85,407.475 25.625,404.85 28.325,402.15 29,400.65 30.275,397.95 28.55,390.075 27.875,386.925 25.7,379.35 24.125,373.5 20.225,366.75 17.9,362.775 12.65,355.125 M27.65,397.275 Q27.125,397.65 19.175,401.1 12.875,403.8 11.075,406.575 8.075,411.375 7.55,415.65 6.725,422.775 10.1,436.275 10.475,437.775 10.925,439.2 11.9,442.275 13.25,445.2 14.825,448.725 17,452.025 18.35,454.125 27.65,465.75 M12.65,355.125 Q11.375,353.175 6.725,347.325 3.05,342.525 1.1,339.225 -.25,336.45 -1.075,334.95 -2.5,332.1 -3.85,331.275 -5.425,330.3 -9.25,330.225 -13.45,330.375 -14.875,330.3 -19.375,330.075 -26.125,330.525 -36.7,331.275 -37.375,331.275 -55,332.1 -66.4,330.375 -69.325,330 -76.6,327.225 -82.975,324.75 -86.875,324.75 M43.1,465.3 Q39.65,465 36.05,461.325 33.05,458.25 31.1,454.275 28.925,449.7 28.025,445.35 28.025,445.275 28.025,445.2 27.275,441.825 27.5,439.2 27.575,437.625 28.025,436.35 30.5,428.775 37.7,424.05 41.675,421.425 52.1,417.3" test="LeftBum"/>
      <path id="Layer1_0_2_STROKES" stroke="#0FF" stroke-width="3" stroke-linejoin="round" stroke-linecap="round" fill="none" d="M53.6,150 L59.375,153.6 Q66.425,158.175 72.575,163.65 92.375,181.05 96.275,199.8 99.5,214.8 106.925,248.325 112.325,278.775 110.15,303.3 107.075,336.825 105.35,346.275 102.65,361.2 96.275,369.75 L84.65,385.8 M12.65,355.125 L10.1,392.25 27.65,397.275 M-65.35,196.275 Q-53.65,193.2 -25.375,183.15 -.325,174.3 14.6,171.075 22.325,169.425 28.7,166.2 33.65,163.65 41.3,158.325 47.45,154.05 53.6,150" test="LeftBum"/>
    </g>
  </g>
</svg>