<?xml version="1.0" encoding="utf-8"?>
<svg id="EdithAnim08" image-rendering="inherit" baseProfile="basic" version="1.1" x="0px" y="0px" width="800" height="600" xmlns="http://www.w3.org/2000/svg" xmlns:xlink="http://www.w3.org/1999/xlink">
  <g id="No-Rear-To-Rearf147r1" overflow="visible">
    <g id="RightBum">
      <path id="Layer2_0_1_STROKES" stroke="#F0F" stroke-width="3" stroke-linejoin="round" stroke-linecap="round" fill="none" d="M772.575,168.075 L780.825,200.475 Q788.7,236.1 786.825,252.525 784.65,271.5 780.525,292.875 776.7,312.825 772.575,327.525 769.95,336.9 767.25,346.875 766.725,348.225 766.275,348.825 L790.8,342.75 M834.075,193.275 L752.7,156.975 M834.075,327.525 L862.575,323.775 M759.3,333.75 L760.05,336.825 Q761.7,342.825 763.575,347.1 765,350.325 766.275,348.825" test="RightBum"/>
      <path id="Layer2_0_2_STROKES" stroke="#F90" stroke-width="3" stroke-linejoin="round" stroke-linecap="round" fill="none" d="M790.8,342.75 L793.125,329.25 Q794.025,324 794.775,310.95 795.525,296.475 796.5,289.35 799.875,262.875 812.625,253.275 819.75,247.875 826.725,245.4 832.275,243.375 837.75,243.225 842.625,243.15 848.625,245.25 M752.7,156.975 Q667.875,119.025 648.075,111.225 635.625,106.35 624.975,103.95 613.8,101.475 604.725,101.775 585.675,102.45 571.125,115.275 555.45,128.925 547.875,146.925 539.85,166.125 543.75,184.275 547.05,199.875 558.675,209.625 564.525,214.5 569.775,216.525 586.725,205.875 603.6,205.275 M790.8,342.75 L783.15,387.225 Q783.675,388.05 783.075,387.6 L781.125,398.775 Q776.475,400.125 771.15,402.975 760.35,408.675 756.6,416.025 753.225,422.625 752.775,428.625 752.475,432.45 753.375,436.05 756.15,447.525 771.075,450.225 784.95,452.775 794.775,446.025 800.025,442.35 805.575,435.75 810,431.025 812.4,429.45 813.225,428.925 814.125,428.625 816.3,427.95 818.85,428.625 820.65,429.075 822.6,430.275 829.05,434.025 830.625,433.425 830.925,433.35 834.075,428.775 836.475,425.4 833.1,420.225 830.625,416.4 826.725,413.7 826.425,413.475 826.125,413.25 821.475,411.375 819.6,410.025 816.375,407.625 816.075,400.725 815.775,393.9 824.925,353.625 L834.075,314.775 837.375,314.925 Q842.625,315.075 852.6,314.775 M767.85,336.825 L761.025,333 Q760.125,333.375 759.3,333.75 754.5,335.775 752.1,336.825 756.9,351.375 773.325,374.025 777.075,379.2 782.1,385.8 782.775,386.7 783.15,387.225 L783.075,387.6 Q782.7,387.375 782.1,386.775 M752.1,336.825 Q746.025,339.6 743.25,342 739.8,344.925 739.125,348.9 737.775,356.4 746.1,368.325 756.45,383.1 778.575,398.775 M759.3,333.75 L758.775,331.725 761.025,333 Q762.45,332.4 764.1,331.725 M569.775,216.525 Q565.65,219.075 561.525,222.225 547.725,232.95 541.2,242.25 537.225,247.95 535.95,253.125 532.425,266.775 532.95,278.775 533.475,290.775 536.775,305.55 538.725,310.275 541.2,315.075 541.95,316.575 542.775,318.075 553.725,338.4 569.025,352.725 585.375,368.025 606.975,373.575 616.875,376.05 624.975,376.2 630.45,376.275 635.1,375.225 634.5,375.9 672.975,405.375 688.2,417.075 703.5,428.625 707.55,431.7 711.6,434.775 L702.6,448.275 M677.1,410.25 L666.6,421.725" test="RightBum"/>
    </g>
    <g id="LeftBum">
      <path id="Layer1_0_1_STROKES" stroke="#FEB7AE" stroke-width="3" stroke-linejoin="round" stroke-linecap="round" fill="none" d="M59.25,150 Q80.775,136.05 103.275,125.025 125.625,114.15 146.7,107.175 173.925,98.175 192.15,98.25 215.1,98.325 231.675,103.95 251.175,110.625 266.25,126.3 273.45,133.725 275.25,149.85 276.6,161.625 274.95,175.8 273.675,186.525 266.55,195.675 262.35,201 252.675,211.95 254.175,213.45 255.525,214.875 262.125,221.925 267.3,231.3 270.825,237.675 272.7,245.775 274.35,252.9 274.8,261.375 275.475,274.575 273.15,287.7 272.625,290.475 271.95,293.25 262.95,332.775 240.3,356.25 222.9,374.25 200.175,385.5 199.875,385.65 182.55,393.6 172.5,398.25 166.275,402.3 156.975,408.3 149.775,413.925 143.25,419.025 135.3,426.3 128.475,432.45 126.075,439.5 123.15,447.975 128.25,454.05 129.825,456 135.225,458.775 140.625,461.55 140.25,460.275 M169.8,199.8 Q184.275,188.925 205.5,189.6 226.2,190.275 240.3,201.3 247.65,207.075 252.675,211.95 M-52.2,243.3 Q-46.725,243.15 -38.85,244.275 -34.35,244.95 -25.5,246.375 -19.125,247.2 -10.2,248.025 -5.1,248.475 5.1,249.3 11.7,249.825 20.1,251.925 21.75,252.3 24.975,252.525 27.15,252.6 28.35,253.425 31.2,255.375 37.8,269.25 44.7,283.8 48.3,294.6 51.375,303.9 55.425,321.075 57.225,328.65 61.35,339.075 66.6,352.35 68.025,356.775 68.475,358.125 70.5,366.975 72.6,375.525 73.8,376.8 75.825,379.05 75.45,380.025 75.45,380.175 78.45,380.775 83.325,381.75 89.4,387.075 95.475,392.25 99,398.55 102.975,405.375 101.7,409.95 100.2,415.275 91.8,416.025 87.675,418.125 80.625,416.55 72.75,414.225 69.225,413.775 61.95,412.8 52.5,414.675 46.425,415.65 43.575,416.25 38.85,417.3 35.1,419.4 32.325,421.05 28.725,423.825 26.7,425.4 22.725,428.625 20.625,425.55 23.175,418.875 26.625,411.675 27.675,409.35 28.5,407.475 31.275,404.85 33.975,402.15 34.65,400.65 35.925,397.95 34.2,390.075 33.525,386.925 31.35,379.35 29.775,373.5 25.875,366.75 23.55,362.775 18.3,355.125 M33.3,397.275 Q32.775,397.65 24.825,401.1 18.525,403.8 16.725,406.575 13.725,411.375 13.2,415.65 12.375,422.775 15.75,436.275 16.125,437.775 16.575,439.2 17.55,442.275 18.9,445.2 20.475,448.725 22.65,452.025 24,454.125 33.3,465.75 M18.3,355.125 Q17.025,353.175 12.375,347.325 8.7,342.525 6.75,339.225 5.4,336.45 4.575,334.95 3.15,332.1 1.8,331.275 .225,330.3 -3.6,330.225 -7.8,330.375 -9.225,330.3 -13.725,330.075 -20.475,330.525 -31.05,331.275 -31.725,331.275 -49.35,332.1 -60.75,330.375 -63.675,330 -70.95,327.225 -77.325,324.75 -81.225,324.75 M48.75,465.3 Q45.3,465 41.7,461.325 38.7,458.25 36.75,454.275 34.575,449.7 33.675,445.35 33.675,445.275 33.675,445.2 32.925,441.825 33.15,439.2 33.225,437.625 33.675,436.35 36.15,428.775 43.35,424.05 47.325,421.425 57.75,417.3" test="LeftBum"/>
      <path id="Layer1_0_2_STROKES" stroke="#0FF" stroke-width="3" stroke-linejoin="round" stroke-linecap="round" fill="none" d="M59.25,150 L65.025,153.6 Q72.075,158.175 78.225,163.65 98.025,181.05 101.925,199.8 105.15,214.8 112.575,248.325 117.975,278.775 115.8,303.3 112.725,336.825 111,346.275 108.3,361.2 101.925,369.75 L90.3,385.8 M18.3,355.125 L15.75,392.25 33.3,397.275 M-59.7,196.275 Q-48,193.2 -19.725,183.15 5.325,174.3 20.25,171.075 27.975,169.425 34.35,166.2 39.3,163.65 46.95,158.325 53.1,154.05 59.25,150" test="LeftBum"/>
    </g>
  </g>
</svg>