<?xml version="1.0" encoding="utf-8"?>
<svg id="EdithAnim08" image-rendering="inherit" baseProfile="basic" version="1.1" x="0px" y="0px" width="800" height="600" xmlns="http://www.w3.org/2000/svg" xmlns:xlink="http://www.w3.org/1999/xlink">
  <g id="No-Rear-To-Rearf149r1" overflow="visible">
    <g id="RightBum">
      <path id="Layer2_0_1_STROKES" stroke="#F0F" stroke-width="3" stroke-linejoin="round" stroke-linecap="round" fill="none" d="M769.825,168.075 L778.075,200.475 Q785.95,236.1 784.075,252.525 781.9,271.5 777.775,292.875 773.95,312.825 769.825,327.525 767.2,336.9 764.5,346.875 763.975,348.225 763.525,348.825 L788.05,342.75 M831.325,193.275 L749.95,156.975 M831.325,327.525 L859.825,323.775 M756.55,333.75 L757.3,336.825 Q758.95,342.825 760.825,347.1 762.25,350.325 763.525,348.825" test="RightBum"/>
      <path id="Layer2_0_2_STROKES" stroke="#F90" stroke-width="3" stroke-linejoin="round" stroke-linecap="round" fill="none" d="M788.05,342.75 L790.375,329.25 Q791.275,324 792.025,310.95 792.775,296.475 793.75,289.35 797.125,262.875 809.875,253.275 817,247.875 823.975,245.4 829.525,243.375 835,243.225 839.875,243.15 845.875,245.25 M749.95,156.975 Q665.125,119.025 645.325,111.225 632.875,106.35 622.225,103.95 611.05,101.475 601.975,101.775 582.925,102.45 568.375,115.275 552.7,128.925 545.125,146.925 537.1,166.125 541,184.275 544.3,199.875 555.925,209.625 561.775,214.5 567.025,216.525 583.975,205.875 600.85,205.275 M788.05,342.75 L780.4,387.225 Q780.925,388.05 780.325,387.6 L778.375,398.775 Q773.725,400.125 768.4,402.975 757.6,408.675 753.85,416.025 750.475,422.625 750.025,428.625 749.725,432.45 750.625,436.05 753.4,447.525 768.325,450.225 782.2,452.775 792.025,446.025 797.275,442.35 802.825,435.75 807.25,431.025 809.65,429.45 810.475,428.925 811.375,428.625 813.55,427.95 816.1,428.625 817.9,429.075 819.85,430.275 826.3,434.025 827.875,433.425 828.175,433.35 831.325,428.775 833.725,425.4 830.35,420.225 827.875,416.4 823.975,413.7 823.675,413.475 823.375,413.25 818.725,411.375 816.85,410.025 813.625,407.625 813.325,400.725 813.025,393.9 822.175,353.625 L831.325,314.775 834.625,314.925 Q839.875,315.075 849.85,314.775 M765.1,336.825 L758.275,333 Q757.375,333.375 756.55,333.75 751.75,335.775 749.35,336.825 754.15,351.375 770.575,374.025 774.325,379.2 779.35,385.8 780.025,386.7 780.4,387.225 L780.325,387.6 Q779.95,387.375 779.35,386.775 M749.35,336.825 Q743.275,339.6 740.5,342 737.05,344.925 736.375,348.9 735.025,356.4 743.35,368.325 753.7,383.1 775.825,398.775 M756.55,333.75 L756.025,331.725 758.275,333 Q759.7,332.4 761.35,331.725 M567.025,216.525 Q562.9,219.075 558.775,222.225 544.975,232.95 538.45,242.25 534.475,247.95 533.2,253.125 529.675,266.775 530.2,278.775 530.725,290.775 534.025,305.55 535.975,310.275 538.45,315.075 539.2,316.575 540.025,318.075 550.975,338.4 566.275,352.725 582.625,368.025 604.225,373.575 614.125,376.05 622.225,376.2 627.7,376.275 632.35,375.225 631.75,375.9 670.225,405.375 685.45,417.075 700.75,428.625 704.8,431.7 708.85,434.775 L699.85,448.275 M674.35,410.25 L663.85,421.725" test="RightBum"/>
    </g>
    <g id="LeftBum">
      <path id="Layer1_0_1_STROKES" stroke="#FEB7AE" stroke-width="3" stroke-linejoin="round" stroke-linecap="round" fill="none" d="M62.05,150 Q83.575,136.05 106.075,125.025 128.425,114.15 149.5,107.175 176.725,98.175 194.95,98.25 217.9,98.325 234.475,103.95 253.975,110.625 269.05,126.3 276.25,133.725 278.05,149.85 279.4,161.625 277.75,175.8 276.475,186.525 269.35,195.675 265.15,201 255.475,211.95 256.975,213.45 258.325,214.875 264.925,221.925 270.1,231.3 273.625,237.675 275.5,245.775 277.15,252.9 277.6,261.375 278.275,274.575 275.95,287.7 275.425,290.475 274.75,293.25 265.75,332.775 243.1,356.25 225.7,374.25 202.975,385.5 202.675,385.65 185.35,393.6 175.3,398.25 169.075,402.3 159.775,408.3 152.575,413.925 146.05,419.025 138.1,426.3 131.275,432.45 128.875,439.5 125.95,447.975 131.05,454.05 132.625,456 138.025,458.775 143.425,461.55 143.05,460.275 M172.6,199.8 Q187.075,188.925 208.3,189.6 229,190.275 243.1,201.3 250.45,207.075 255.475,211.95 M-49.4,243.3 Q-43.925,243.15 -36.05,244.275 -31.55,244.95 -22.7,246.375 -16.325,247.2 -7.4,248.025 -2.3,248.475 7.9,249.3 14.5,249.825 22.9,251.925 24.55,252.3 27.775,252.525 29.95,252.6 31.15,253.425 34,255.375 40.6,269.25 47.5,283.8 51.1,294.6 54.175,303.9 58.225,321.075 60.025,328.65 64.15,339.075 69.4,352.35 70.825,356.775 71.275,358.125 73.3,366.975 75.4,375.525 76.6,376.8 78.625,379.05 78.25,380.025 78.25,380.175 81.25,380.775 86.125,381.75 92.2,387.075 98.275,392.25 101.8,398.55 105.775,405.375 104.5,409.95 103,415.275 94.6,416.025 90.475,418.125 83.425,416.55 75.55,414.225 72.025,413.775 64.75,412.8 55.3,414.675 49.225,415.65 46.375,416.25 41.65,417.3 37.9,419.4 35.125,421.05 31.525,423.825 29.5,425.4 25.525,428.625 23.425,425.55 25.975,418.875 29.425,411.675 30.475,409.35 31.3,407.475 34.075,404.85 36.775,402.15 37.45,400.65 38.725,397.95 37,390.075 36.325,386.925 34.15,379.35 32.575,373.5 28.675,366.75 26.35,362.775 21.1,355.125 M36.1,397.275 Q35.575,397.65 27.625,401.1 21.325,403.8 19.525,406.575 16.525,411.375 16,415.65 15.175,422.775 18.55,436.275 18.925,437.775 19.375,439.2 20.35,442.275 21.7,445.2 23.275,448.725 25.45,452.025 26.8,454.125 36.1,465.75 M21.1,355.125 Q19.825,353.175 15.175,347.325 11.5,342.525 9.55,339.225 8.2,336.45 7.375,334.95 5.95,332.1 4.6,331.275 3.025,330.3 -.8,330.225 -5,330.375 -6.425,330.3 -10.925,330.075 -17.675,330.525 -28.25,331.275 -28.925,331.275 -46.55,332.1 -57.95,330.375 -60.875,330 -68.15,327.225 -74.525,324.75 -78.425,324.75 M51.55,465.3 Q48.1,465 44.5,461.325 41.5,458.25 39.55,454.275 37.375,449.7 36.475,445.35 36.475,445.275 36.475,445.2 35.725,441.825 35.95,439.2 36.025,437.625 36.475,436.35 38.95,428.775 46.15,424.05 50.125,421.425 60.55,417.3" test="LeftBum"/>
      <path id="Layer1_0_2_STROKES" stroke="#0FF" stroke-width="3" stroke-linejoin="round" stroke-linecap="round" fill="none" d="M62.05,150 L67.825,153.6 Q74.875,158.175 81.025,163.65 100.825,181.05 104.725,199.8 107.95,214.8 115.375,248.325 120.775,278.775 118.6,303.3 115.525,336.825 113.8,346.275 111.1,361.2 104.725,369.75 L93.1,385.8 M21.1,355.125 L18.55,392.25 36.1,397.275 M-56.9,196.275 Q-45.2,193.2 -16.925,183.15 8.125,174.3 23.05,171.075 30.775,169.425 37.15,166.2 42.1,163.65 49.75,158.325 55.9,154.05 62.05,150" test="LeftBum"/>
    </g>
  </g>
</svg>