<?xml version="1.0" encoding="utf-8"?>
<svg id="EdithAnim08" image-rendering="inherit" baseProfile="basic" version="1.1" x="0px" y="0px" width="800" height="600" xmlns="http://www.w3.org/2000/svg" xmlns:xlink="http://www.w3.org/1999/xlink">
  <g id="No-Rear-To-Rearf151r1" overflow="visible">
    <g id="RightBum">
      <path id="Layer2_0_1_STROKES" stroke="#F0F" stroke-width="3" stroke-linejoin="round" stroke-linecap="round" fill="none" d="M767.125,168.075 L775.375,200.475 Q783.25,236.1 781.375,252.525 779.2,271.5 775.075,292.875 771.25,312.825 767.125,327.525 764.5,336.9 761.8,346.875 761.275,348.225 760.825,348.825 L785.35,342.75 M828.625,193.275 L747.25,156.975 M828.625,327.525 L857.125,323.775 M753.85,333.75 L754.6,336.825 Q756.25,342.825 758.125,347.1 759.55,350.325 760.825,348.825" test="RightBum"/>
      <path id="Layer2_0_2_STROKES" stroke="#F90" stroke-width="3" stroke-linejoin="round" stroke-linecap="round" fill="none" d="M785.35,342.75 L787.675,329.25 Q788.575,324 789.325,310.95 790.075,296.475 791.05,289.35 794.425,262.875 807.175,253.275 814.3,247.875 821.275,245.4 826.825,243.375 832.3,243.225 837.175,243.15 843.175,245.25 M747.25,156.975 Q662.425,119.025 642.625,111.225 630.175,106.35 619.525,103.95 608.35,101.475 599.275,101.775 580.225,102.45 565.675,115.275 550,128.925 542.425,146.925 534.4,166.125 538.3,184.275 541.6,199.875 553.225,209.625 559.075,214.5 564.325,216.525 581.275,205.875 598.15,205.275 M785.35,342.75 L777.7,387.225 Q778.225,388.05 777.625,387.6 L775.675,398.775 Q771.025,400.125 765.7,402.975 754.9,408.675 751.15,416.025 747.775,422.625 747.325,428.625 747.025,432.45 747.925,436.05 750.7,447.525 765.625,450.225 779.5,452.775 789.325,446.025 794.575,442.35 800.125,435.75 804.55,431.025 806.95,429.45 807.775,428.925 808.675,428.625 810.85,427.95 813.4,428.625 815.2,429.075 817.15,430.275 823.6,434.025 825.175,433.425 825.475,433.35 828.625,428.775 831.025,425.4 827.65,420.225 825.175,416.4 821.275,413.7 820.975,413.475 820.675,413.25 816.025,411.375 814.15,410.025 810.925,407.625 810.625,400.725 810.325,393.9 819.475,353.625 L828.625,314.775 831.925,314.925 Q837.175,315.075 847.15,314.775 M762.4,336.825 L755.575,333 Q754.675,333.375 753.85,333.75 749.05,335.775 746.65,336.825 751.45,351.375 767.875,374.025 771.625,379.2 776.65,385.8 777.325,386.7 777.7,387.225 L777.625,387.6 Q777.25,387.375 776.65,386.775 M746.65,336.825 Q740.575,339.6 737.8,342 734.35,344.925 733.675,348.9 732.325,356.4 740.65,368.325 751,383.1 773.125,398.775 M753.85,333.75 L753.325,331.725 755.575,333 Q757,332.4 758.65,331.725 M564.325,216.525 Q560.2,219.075 556.075,222.225 542.275,232.95 535.75,242.25 531.775,247.95 530.5,253.125 526.975,266.775 527.5,278.775 528.025,290.775 531.325,305.55 533.275,310.275 535.75,315.075 536.5,316.575 537.325,318.075 548.275,338.4 563.575,352.725 579.925,368.025 601.525,373.575 611.425,376.05 619.525,376.2 625,376.275 629.65,375.225 629.05,375.9 667.525,405.375 682.75,417.075 698.05,428.625 702.1,431.7 706.15,434.775 L697.15,448.275 M671.65,410.25 L661.15,421.725" test="RightBum"/>
    </g>
    <g id="LeftBum">
      <path id="Layer1_0_1_STROKES" stroke="#FEB7AE" stroke-width="3" stroke-linejoin="round" stroke-linecap="round" fill="none" d="M64.75,150 Q86.275,136.05 108.775,125.025 131.125,114.15 152.2,107.175 179.425,98.175 197.65,98.25 220.6,98.325 237.175,103.95 256.675,110.625 271.75,126.3 278.95,133.725 280.75,149.85 282.1,161.625 280.45,175.8 279.175,186.525 272.05,195.675 267.85,201 258.175,211.95 259.675,213.45 261.025,214.875 267.625,221.925 272.8,231.3 276.325,237.675 278.2,245.775 279.85,252.9 280.3,261.375 280.975,274.575 278.65,287.7 278.125,290.475 277.45,293.25 268.45,332.775 245.8,356.25 228.4,374.25 205.675,385.5 205.375,385.65 188.05,393.6 178,398.25 171.775,402.3 162.475,408.3 155.275,413.925 148.75,419.025 140.8,426.3 133.975,432.45 131.575,439.5 128.65,447.975 133.75,454.05 135.325,456 140.725,458.775 146.125,461.55 145.75,460.275 M175.3,199.8 Q189.775,188.925 211,189.6 231.7,190.275 245.8,201.3 253.15,207.075 258.175,211.95 M-46.7,243.3 Q-41.225,243.15 -33.35,244.275 -28.85,244.95 -20,246.375 -13.625,247.2 -4.7,248.025 .4,248.475 10.6,249.3 17.2,249.825 25.6,251.925 27.25,252.3 30.475,252.525 32.65,252.6 33.85,253.425 36.7,255.375 43.3,269.25 50.2,283.8 53.8,294.6 56.875,303.9 60.925,321.075 62.725,328.65 66.85,339.075 72.1,352.35 73.525,356.775 73.975,358.125 76,366.975 78.1,375.525 79.3,376.8 81.325,379.05 80.95,380.025 80.95,380.175 83.95,380.775 88.825,381.75 94.9,387.075 100.975,392.25 104.5,398.55 108.475,405.375 107.2,409.95 105.7,415.275 97.3,416.025 93.175,418.125 86.125,416.55 78.25,414.225 74.725,413.775 67.45,412.8 58,414.675 51.925,415.65 49.075,416.25 44.35,417.3 40.6,419.4 37.825,421.05 34.225,423.825 32.2,425.4 28.225,428.625 26.125,425.55 28.675,418.875 32.125,411.675 33.175,409.35 34,407.475 36.775,404.85 39.475,402.15 40.15,400.65 41.425,397.95 39.7,390.075 39.025,386.925 36.85,379.35 35.275,373.5 31.375,366.75 29.05,362.775 23.8,355.125 M38.8,397.275 Q38.275,397.65 30.325,401.1 24.025,403.8 22.225,406.575 19.225,411.375 18.7,415.65 17.875,422.775 21.25,436.275 21.625,437.775 22.075,439.2 23.05,442.275 24.4,445.2 25.975,448.725 28.15,452.025 29.5,454.125 38.8,465.75 M23.8,355.125 Q22.525,353.175 17.875,347.325 14.2,342.525 12.25,339.225 10.9,336.45 10.075,334.95 8.65,332.1 7.3,331.275 5.725,330.3 1.9,330.225 -2.3,330.375 -3.725,330.3 -8.225,330.075 -14.975,330.525 -25.55,331.275 -26.225,331.275 -43.85,332.1 -55.25,330.375 -58.175,330 -65.45,327.225 -71.825,324.75 -75.725,324.75 M54.25,465.3 Q50.8,465 47.2,461.325 44.2,458.25 42.25,454.275 40.075,449.7 39.175,445.35 39.175,445.275 39.175,445.2 38.425,441.825 38.65,439.2 38.725,437.625 39.175,436.35 41.65,428.775 48.85,424.05 52.825,421.425 63.25,417.3" test="LeftBum"/>
      <path id="Layer1_0_2_STROKES" stroke="#0FF" stroke-width="3" stroke-linejoin="round" stroke-linecap="round" fill="none" d="M64.75,150 L70.525,153.6 Q77.575,158.175 83.725,163.65 103.525,181.05 107.425,199.8 110.65,214.8 118.075,248.325 123.475,278.775 121.3,303.3 118.225,336.825 116.5,346.275 113.8,361.2 107.425,369.75 L95.8,385.8 M23.8,355.125 L21.25,392.25 38.8,397.275 M-54.2,196.275 Q-42.5,193.2 -14.225,183.15 10.825,174.3 25.75,171.075 33.475,169.425 39.85,166.2 44.8,163.65 52.45,158.325 58.6,154.05 64.75,150" test="LeftBum"/>
    </g>
  </g>
</svg>