<?xml version="1.0" encoding="utf-8"?>
<svg id="EdithAnim08" image-rendering="inherit" baseProfile="basic" version="1.1" x="0px" y="0px" width="800" height="600" xmlns="http://www.w3.org/2000/svg" xmlns:xlink="http://www.w3.org/1999/xlink">
  <g id="No-Rear-To-Rearf152r1" overflow="visible">
    <g id="RightBum">
      <path id="Layer2_0_1_STROKES" stroke="#F0F" stroke-width="3" stroke-linejoin="round" stroke-linecap="round" fill="none" d="M765.825,168.075 L774.075,200.475 Q781.95,236.1 780.075,252.525 777.9,271.5 773.775,292.875 769.95,312.825 765.825,327.525 763.2,336.9 760.5,346.875 759.975,348.225 759.525,348.825 L784.05,342.75 M827.325,193.275 L745.95,156.975 M827.325,327.525 L855.825,323.775 M752.55,333.75 L753.3,336.825 Q754.95,342.825 756.825,347.1 758.25,350.325 759.525,348.825" test="RightBum"/>
      <path id="Layer2_0_2_STROKES" stroke="#F90" stroke-width="3" stroke-linejoin="round" stroke-linecap="round" fill="none" d="M784.05,342.75 L786.375,329.25 Q787.275,324 788.025,310.95 788.775,296.475 789.75,289.35 793.125,262.875 805.875,253.275 813,247.875 819.975,245.4 825.525,243.375 831,243.225 835.875,243.15 841.875,245.25 M745.95,156.975 Q661.125,119.025 641.325,111.225 628.875,106.35 618.225,103.95 607.05,101.475 597.975,101.775 578.925,102.45 564.375,115.275 548.7,128.925 541.125,146.925 533.1,166.125 537,184.275 540.3,199.875 551.925,209.625 557.775,214.5 563.025,216.525 579.975,205.875 596.85,205.275 M784.05,342.75 L776.4,387.225 Q776.925,388.05 776.325,387.6 L774.375,398.775 Q769.725,400.125 764.4,402.975 753.6,408.675 749.85,416.025 746.475,422.625 746.025,428.625 745.725,432.45 746.625,436.05 749.4,447.525 764.325,450.225 778.2,452.775 788.025,446.025 793.275,442.35 798.825,435.75 803.25,431.025 805.65,429.45 806.475,428.925 807.375,428.625 809.55,427.95 812.1,428.625 813.9,429.075 815.85,430.275 822.3,434.025 823.875,433.425 824.175,433.35 827.325,428.775 829.725,425.4 826.35,420.225 823.875,416.4 819.975,413.7 819.675,413.475 819.375,413.25 814.725,411.375 812.85,410.025 809.625,407.625 809.325,400.725 809.025,393.9 818.175,353.625 L827.325,314.775 830.625,314.925 Q835.875,315.075 845.85,314.775 M761.1,336.825 L754.275,333 Q753.375,333.375 752.55,333.75 747.75,335.775 745.35,336.825 750.15,351.375 766.575,374.025 770.325,379.2 775.35,385.8 776.025,386.7 776.4,387.225 L776.325,387.6 Q775.95,387.375 775.35,386.775 M745.35,336.825 Q739.275,339.6 736.5,342 733.05,344.925 732.375,348.9 731.025,356.4 739.35,368.325 749.7,383.1 771.825,398.775 M752.55,333.75 L752.025,331.725 754.275,333 Q755.7,332.4 757.35,331.725 M563.025,216.525 Q558.9,219.075 554.775,222.225 540.975,232.95 534.45,242.25 530.475,247.95 529.2,253.125 525.675,266.775 526.2,278.775 526.725,290.775 530.025,305.55 531.975,310.275 534.45,315.075 535.2,316.575 536.025,318.075 546.975,338.4 562.275,352.725 578.625,368.025 600.225,373.575 610.125,376.05 618.225,376.2 623.7,376.275 628.35,375.225 627.75,375.9 666.225,405.375 681.45,417.075 696.75,428.625 700.8,431.7 704.85,434.775 L695.85,448.275 M670.35,410.25 L659.85,421.725" test="RightBum"/>
    </g>
    <g id="LeftBum">
      <path id="Layer1_0_1_STROKES" stroke="#FEB7AE" stroke-width="3" stroke-linejoin="round" stroke-linecap="round" fill="none" d="M66.15,150 Q87.675,136.05 110.175,125.025 132.525,114.15 153.6,107.175 180.825,98.175 199.05,98.25 222,98.325 238.575,103.95 258.075,110.625 273.15,126.3 280.35,133.725 282.15,149.85 283.5,161.625 281.85,175.8 280.575,186.525 273.45,195.675 269.25,201 259.575,211.95 261.075,213.45 262.425,214.875 269.025,221.925 274.2,231.3 277.725,237.675 279.6,245.775 281.25,252.9 281.7,261.375 282.375,274.575 280.05,287.7 279.525,290.475 278.85,293.25 269.85,332.775 247.2,356.25 229.8,374.25 207.075,385.5 206.775,385.65 189.45,393.6 179.4,398.25 173.175,402.3 163.875,408.3 156.675,413.925 150.15,419.025 142.2,426.3 135.375,432.45 132.975,439.5 130.05,447.975 135.15,454.05 136.725,456 142.125,458.775 147.525,461.55 147.15,460.275 M176.7,199.8 Q191.175,188.925 212.4,189.6 233.1,190.275 247.2,201.3 254.55,207.075 259.575,211.95 M-45.3,243.3 Q-39.825,243.15 -31.95,244.275 -27.45,244.95 -18.6,246.375 -12.225,247.2 -3.3,248.025 1.8,248.475 12,249.3 18.6,249.825 27,251.925 28.65,252.3 31.875,252.525 34.05,252.6 35.25,253.425 38.1,255.375 44.7,269.25 51.6,283.8 55.2,294.6 58.275,303.9 62.325,321.075 64.125,328.65 68.25,339.075 73.5,352.35 74.925,356.775 75.375,358.125 77.4,366.975 79.5,375.525 80.7,376.8 82.725,379.05 82.35,380.025 82.35,380.175 85.35,380.775 90.225,381.75 96.3,387.075 102.375,392.25 105.9,398.55 109.875,405.375 108.6,409.95 107.1,415.275 98.7,416.025 94.575,418.125 87.525,416.55 79.65,414.225 76.125,413.775 68.85,412.8 59.4,414.675 53.325,415.65 50.475,416.25 45.75,417.3 42,419.4 39.225,421.05 35.625,423.825 33.6,425.4 29.625,428.625 27.525,425.55 30.075,418.875 33.525,411.675 34.575,409.35 35.4,407.475 38.175,404.85 40.875,402.15 41.55,400.65 42.825,397.95 41.1,390.075 40.425,386.925 38.25,379.35 36.675,373.5 32.775,366.75 30.45,362.775 25.2,355.125 M40.2,397.275 Q39.675,397.65 31.725,401.1 25.425,403.8 23.625,406.575 20.625,411.375 20.1,415.65 19.275,422.775 22.65,436.275 23.025,437.775 23.475,439.2 24.45,442.275 25.8,445.2 27.375,448.725 29.55,452.025 30.9,454.125 40.2,465.75 M25.2,355.125 Q23.925,353.175 19.275,347.325 15.6,342.525 13.65,339.225 12.3,336.45 11.475,334.95 10.05,332.1 8.7,331.275 7.125,330.3 3.3,330.225 -.9,330.375 -2.325,330.3 -6.825,330.075 -13.575,330.525 -24.15,331.275 -24.825,331.275 -42.45,332.1 -53.85,330.375 -56.775,330 -64.05,327.225 -70.425,324.75 -74.325,324.75 M55.65,465.3 Q52.2,465 48.6,461.325 45.6,458.25 43.65,454.275 41.475,449.7 40.575,445.35 40.575,445.275 40.575,445.2 39.825,441.825 40.05,439.2 40.125,437.625 40.575,436.35 43.05,428.775 50.25,424.05 54.225,421.425 64.65,417.3" test="LeftBum"/>
      <path id="Layer1_0_2_STROKES" stroke="#0FF" stroke-width="3" stroke-linejoin="round" stroke-linecap="round" fill="none" d="M66.15,150 L71.925,153.6 Q78.975,158.175 85.125,163.65 104.925,181.05 108.825,199.8 112.05,214.8 119.475,248.325 124.875,278.775 122.7,303.3 119.625,336.825 117.9,346.275 115.2,361.2 108.825,369.75 L97.2,385.8 M25.2,355.125 L22.65,392.25 40.2,397.275 M-52.8,196.275 Q-41.1,193.2 -12.825,183.15 12.225,174.3 27.15,171.075 34.875,169.425 41.25,166.2 46.2,163.65 53.85,158.325 60,154.05 66.15,150" test="LeftBum"/>
    </g>
  </g>
</svg>