<?xml version="1.0" encoding="utf-8"?>
<svg id="EdithAnim08" image-rendering="inherit" baseProfile="basic" version="1.1" x="0px" y="0px" width="800" height="600" xmlns="http://www.w3.org/2000/svg" xmlns:xlink="http://www.w3.org/1999/xlink">
  <g id="No-Rear-To-Rearf153r1" overflow="visible">
    <g id="RightBum">
      <path id="Layer2_0_1_STROKES" stroke="#F0F" stroke-width="3" stroke-linejoin="round" stroke-linecap="round" fill="none" d="M764.475,168.075 L772.725,200.475 Q780.6,236.1 778.725,252.525 776.55,271.5 772.425,292.875 768.6,312.825 764.475,327.525 761.85,336.9 759.15,346.875 758.625,348.225 758.175,348.825 L782.7,342.75 M825.975,193.275 L744.6,156.975 M825.975,327.525 L854.475,323.775 M751.2,333.75 L751.95,336.825 Q753.6,342.825 755.475,347.1 756.9,350.325 758.175,348.825" test="RightBum"/>
      <path id="Layer2_0_2_STROKES" stroke="#F90" stroke-width="3" stroke-linejoin="round" stroke-linecap="round" fill="none" d="M782.7,342.75 L785.025,329.25 Q785.925,324 786.675,310.95 787.425,296.475 788.4,289.35 791.775,262.875 804.525,253.275 811.65,247.875 818.625,245.4 824.175,243.375 829.65,243.225 834.525,243.15 840.525,245.25 M744.6,156.975 Q659.775,119.025 639.975,111.225 627.525,106.35 616.875,103.95 605.7,101.475 596.625,101.775 577.575,102.45 563.025,115.275 547.35,128.925 539.775,146.925 531.75,166.125 535.65,184.275 538.95,199.875 550.575,209.625 556.425,214.5 561.675,216.525 578.625,205.875 595.5,205.275 M782.7,342.75 L775.05,387.225 Q775.575,388.05 774.975,387.6 L773.025,398.775 Q768.375,400.125 763.05,402.975 752.25,408.675 748.5,416.025 745.125,422.625 744.675,428.625 744.375,432.45 745.275,436.05 748.05,447.525 762.975,450.225 776.85,452.775 786.675,446.025 791.925,442.35 797.475,435.75 801.9,431.025 804.3,429.45 805.125,428.925 806.025,428.625 808.2,427.95 810.75,428.625 812.55,429.075 814.5,430.275 820.95,434.025 822.525,433.425 822.825,433.35 825.975,428.775 828.375,425.4 825,420.225 822.525,416.4 818.625,413.7 818.325,413.475 818.025,413.25 813.375,411.375 811.5,410.025 808.275,407.625 807.975,400.725 807.675,393.9 816.825,353.625 L825.975,314.775 829.275,314.925 Q834.525,315.075 844.5,314.775 M759.75,336.825 L752.925,333 Q752.025,333.375 751.2,333.75 746.4,335.775 744,336.825 748.8,351.375 765.225,374.025 768.975,379.2 774,385.8 774.675,386.7 775.05,387.225 L774.975,387.6 Q774.6,387.375 774,386.775 M744,336.825 Q737.925,339.6 735.15,342 731.7,344.925 731.025,348.9 729.675,356.4 738,368.325 748.35,383.1 770.475,398.775 M751.2,333.75 L750.675,331.725 752.925,333 Q754.35,332.4 756,331.725 M561.675,216.525 Q557.55,219.075 553.425,222.225 539.625,232.95 533.1,242.25 529.125,247.95 527.85,253.125 524.325,266.775 524.85,278.775 525.375,290.775 528.675,305.55 530.625,310.275 533.1,315.075 533.85,316.575 534.675,318.075 545.625,338.4 560.925,352.725 577.275,368.025 598.875,373.575 608.775,376.05 616.875,376.2 622.35,376.275 627,375.225 626.4,375.9 664.875,405.375 680.1,417.075 695.4,428.625 699.45,431.7 703.5,434.775 L694.5,448.275 M669,410.25 L658.5,421.725" test="RightBum"/>
    </g>
    <g id="LeftBum">
      <path id="Layer1_0_1_STROKES" stroke="#FEB7AE" stroke-width="3" stroke-linejoin="round" stroke-linecap="round" fill="none" d="M67.5,150 Q89.025,136.05 111.525,125.025 133.875,114.15 154.95,107.175 182.175,98.175 200.4,98.25 223.35,98.325 239.925,103.95 259.425,110.625 274.5,126.3 281.7,133.725 283.5,149.85 284.85,161.625 283.2,175.8 281.925,186.525 274.8,195.675 270.6,201 260.925,211.95 262.425,213.45 263.775,214.875 270.375,221.925 275.55,231.3 279.075,237.675 280.95,245.775 282.6,252.9 283.05,261.375 283.725,274.575 281.4,287.7 280.875,290.475 280.2,293.25 271.2,332.775 248.55,356.25 231.15,374.25 208.425,385.5 208.125,385.65 190.8,393.6 180.75,398.25 174.525,402.3 165.225,408.3 158.025,413.925 151.5,419.025 143.55,426.3 136.725,432.45 134.325,439.5 131.4,447.975 136.5,454.05 138.075,456 143.475,458.775 148.875,461.55 148.5,460.275 M178.05,199.8 Q192.525,188.925 213.75,189.6 234.45,190.275 248.55,201.3 255.9,207.075 260.925,211.95 M-43.95,243.3 Q-38.475,243.15 -30.6,244.275 -26.1,244.95 -17.25,246.375 -10.875,247.2 -1.95,248.025 3.15,248.475 13.35,249.3 19.95,249.825 28.35,251.925 30,252.3 33.225,252.525 35.4,252.6 36.6,253.425 39.45,255.375 46.05,269.25 52.95,283.8 56.55,294.6 59.625,303.9 63.675,321.075 65.475,328.65 69.6,339.075 74.85,352.35 76.275,356.775 76.725,358.125 78.75,366.975 80.85,375.525 82.05,376.8 84.075,379.05 83.7,380.025 83.7,380.175 86.7,380.775 91.575,381.75 97.65,387.075 103.725,392.25 107.25,398.55 111.225,405.375 109.95,409.95 108.45,415.275 100.05,416.025 95.925,418.125 88.875,416.55 81,414.225 77.475,413.775 70.2,412.8 60.75,414.675 54.675,415.65 51.825,416.25 47.1,417.3 43.35,419.4 40.575,421.05 36.975,423.825 34.95,425.4 30.975,428.625 28.875,425.55 31.425,418.875 34.875,411.675 35.925,409.35 36.75,407.475 39.525,404.85 42.225,402.15 42.9,400.65 44.175,397.95 42.45,390.075 41.775,386.925 39.6,379.35 38.025,373.5 34.125,366.75 31.8,362.775 26.55,355.125 M41.55,397.275 Q41.025,397.65 33.075,401.1 26.775,403.8 24.975,406.575 21.975,411.375 21.45,415.65 20.625,422.775 24,436.275 24.375,437.775 24.825,439.2 25.8,442.275 27.15,445.2 28.725,448.725 30.9,452.025 32.25,454.125 41.55,465.75 M26.55,355.125 Q25.275,353.175 20.625,347.325 16.95,342.525 15,339.225 13.65,336.45 12.825,334.95 11.4,332.1 10.05,331.275 8.475,330.3 4.65,330.225 .45,330.375 -.975,330.3 -5.475,330.075 -12.225,330.525 -22.8,331.275 -23.475,331.275 -41.1,332.1 -52.5,330.375 -55.425,330 -62.7,327.225 -69.075,324.75 -72.975,324.75 M57,465.3 Q53.55,465 49.95,461.325 46.95,458.25 45,454.275 42.825,449.7 41.925,445.35 41.925,445.275 41.925,445.2 41.175,441.825 41.4,439.2 41.475,437.625 41.925,436.35 44.4,428.775 51.6,424.05 55.575,421.425 66,417.3" test="LeftBum"/>
      <path id="Layer1_0_2_STROKES" stroke="#0FF" stroke-width="3" stroke-linejoin="round" stroke-linecap="round" fill="none" d="M67.5,150 L73.275,153.6 Q80.325,158.175 86.475,163.65 106.275,181.05 110.175,199.8 113.4,214.8 120.825,248.325 126.225,278.775 124.05,303.3 120.975,336.825 119.25,346.275 116.55,361.2 110.175,369.75 L98.55,385.8 M26.55,355.125 L24,392.25 41.55,397.275 M-51.45,196.275 Q-39.75,193.2 -11.475,183.15 13.575,174.3 28.5,171.075 36.225,169.425 42.6,166.2 47.55,163.65 55.2,158.325 61.35,154.05 67.5,150" test="LeftBum"/>
    </g>
  </g>
</svg>