<?xml version="1.0" encoding="utf-8"?>
<svg id="EdithAnim08" image-rendering="inherit" baseProfile="basic" version="1.1" x="0px" y="0px" width="800" height="600" xmlns="http://www.w3.org/2000/svg" xmlns:xlink="http://www.w3.org/1999/xlink">
  <g id="No-Rear-To-Rearf154r1" overflow="visible">
    <g id="RightBum">
      <path id="Layer2_0_1_STROKES" stroke="#F0F" stroke-width="3" stroke-linejoin="round" stroke-linecap="round" fill="none" d="M763.125,168.075 L771.375,200.475 Q779.25,236.1 777.375,252.525 775.2,271.5 771.075,292.875 767.25,312.825 763.125,327.525 760.5,336.9 757.8,346.875 757.275,348.225 756.825,348.825 L781.35,342.75 M824.625,193.275 L743.25,156.975 M824.625,327.525 L853.125,323.775 M749.85,333.75 L750.6,336.825 Q752.25,342.825 754.125,347.1 755.55,350.325 756.825,348.825" test="RightBum"/>
      <path id="Layer2_0_2_STROKES" stroke="#F90" stroke-width="3" stroke-linejoin="round" stroke-linecap="round" fill="none" d="M781.35,342.75 L783.675,329.25 Q784.575,324 785.325,310.95 786.075,296.475 787.05,289.35 790.425,262.875 803.175,253.275 810.3,247.875 817.275,245.4 822.825,243.375 828.3,243.225 833.175,243.15 839.175,245.25 M743.25,156.975 Q658.425,119.025 638.625,111.225 626.175,106.35 615.525,103.95 604.35,101.475 595.275,101.775 576.225,102.45 561.675,115.275 546,128.925 538.425,146.925 530.4,166.125 534.3,184.275 537.6,199.875 549.225,209.625 555.075,214.5 560.325,216.525 577.275,205.875 594.15,205.275 M781.35,342.75 L773.7,387.225 Q774.225,388.05 773.625,387.6 L771.675,398.775 Q767.025,400.125 761.7,402.975 750.9,408.675 747.15,416.025 743.775,422.625 743.325,428.625 743.025,432.45 743.925,436.05 746.7,447.525 761.625,450.225 775.5,452.775 785.325,446.025 790.575,442.35 796.125,435.75 800.55,431.025 802.95,429.45 803.775,428.925 804.675,428.625 806.85,427.95 809.4,428.625 811.2,429.075 813.15,430.275 819.6,434.025 821.175,433.425 821.475,433.35 824.625,428.775 827.025,425.4 823.65,420.225 821.175,416.4 817.275,413.7 816.975,413.475 816.675,413.25 812.025,411.375 810.15,410.025 806.925,407.625 806.625,400.725 806.325,393.9 815.475,353.625 L824.625,314.775 827.925,314.925 Q833.175,315.075 843.15,314.775 M758.4,336.825 L751.575,333 Q750.675,333.375 749.85,333.75 745.05,335.775 742.65,336.825 747.45,351.375 763.875,374.025 767.625,379.2 772.65,385.8 773.325,386.7 773.7,387.225 L773.625,387.6 Q773.25,387.375 772.65,386.775 M742.65,336.825 Q736.575,339.6 733.8,342 730.35,344.925 729.675,348.9 728.325,356.4 736.65,368.325 747,383.1 769.125,398.775 M749.85,333.75 L749.325,331.725 751.575,333 Q753,332.4 754.65,331.725 M560.325,216.525 Q556.2,219.075 552.075,222.225 538.275,232.95 531.75,242.25 527.775,247.95 526.5,253.125 522.975,266.775 523.5,278.775 524.025,290.775 527.325,305.55 529.275,310.275 531.75,315.075 532.5,316.575 533.325,318.075 544.275,338.4 559.575,352.725 575.925,368.025 597.525,373.575 607.425,376.05 615.525,376.2 621,376.275 625.65,375.225 625.05,375.9 663.525,405.375 678.75,417.075 694.05,428.625 698.1,431.7 702.15,434.775 L693.15,448.275 M667.65,410.25 L657.15,421.725" test="RightBum"/>
    </g>
    <g id="LeftBum">
      <path id="Layer1_0_1_STROKES" stroke="#FEB7AE" stroke-width="3" stroke-linejoin="round" stroke-linecap="round" fill="none" d="M68.85,150 Q90.375,136.05 112.875,125.025 135.225,114.15 156.3,107.175 183.525,98.175 201.75,98.25 224.7,98.325 241.275,103.95 260.775,110.625 275.85,126.3 283.05,133.725 284.85,149.85 286.2,161.625 284.55,175.8 283.275,186.525 276.15,195.675 271.95,201 262.275,211.95 263.775,213.45 265.125,214.875 271.725,221.925 276.9,231.3 280.425,237.675 282.3,245.775 283.95,252.9 284.4,261.375 285.075,274.575 282.75,287.7 282.225,290.475 281.55,293.25 272.55,332.775 249.9,356.25 232.5,374.25 209.775,385.5 209.475,385.65 192.15,393.6 182.1,398.25 175.875,402.3 166.575,408.3 159.375,413.925 152.85,419.025 144.9,426.3 138.075,432.45 135.675,439.5 132.75,447.975 137.85,454.05 139.425,456 144.825,458.775 150.225,461.55 149.85,460.275 M179.4,199.8 Q193.875,188.925 215.1,189.6 235.8,190.275 249.9,201.3 257.25,207.075 262.275,211.95 M-42.6,243.3 Q-37.125,243.15 -29.25,244.275 -24.75,244.95 -15.9,246.375 -9.525,247.2 -.6,248.025 4.5,248.475 14.7,249.3 21.3,249.825 29.7,251.925 31.35,252.3 34.575,252.525 36.75,252.6 37.95,253.425 40.8,255.375 47.4,269.25 54.3,283.8 57.9,294.6 60.975,303.9 65.025,321.075 66.825,328.65 70.95,339.075 76.2,352.35 77.625,356.775 78.075,358.125 80.1,366.975 82.2,375.525 83.4,376.8 85.425,379.05 85.05,380.025 85.05,380.175 88.05,380.775 92.925,381.75 99,387.075 105.075,392.25 108.6,398.55 112.575,405.375 111.3,409.95 109.8,415.275 101.4,416.025 97.275,418.125 90.225,416.55 82.35,414.225 78.825,413.775 71.55,412.8 62.1,414.675 56.025,415.65 53.175,416.25 48.45,417.3 44.7,419.4 41.925,421.05 38.325,423.825 36.3,425.4 32.325,428.625 30.225,425.55 32.775,418.875 36.225,411.675 37.275,409.35 38.1,407.475 40.875,404.85 43.575,402.15 44.25,400.65 45.525,397.95 43.8,390.075 43.125,386.925 40.95,379.35 39.375,373.5 35.475,366.75 33.15,362.775 27.9,355.125 M42.9,397.275 Q42.375,397.65 34.425,401.1 28.125,403.8 26.325,406.575 23.325,411.375 22.8,415.65 21.975,422.775 25.35,436.275 25.725,437.775 26.175,439.2 27.15,442.275 28.5,445.2 30.075,448.725 32.25,452.025 33.6,454.125 42.9,465.75 M27.9,355.125 Q26.625,353.175 21.975,347.325 18.3,342.525 16.35,339.225 15,336.45 14.175,334.95 12.75,332.1 11.4,331.275 9.825,330.3 6,330.225 1.8,330.375 .375,330.3 -4.125,330.075 -10.875,330.525 -21.45,331.275 -22.125,331.275 -39.75,332.1 -51.15,330.375 -54.075,330 -61.35,327.225 -67.725,324.75 -71.625,324.75 M58.35,465.3 Q54.9,465 51.3,461.325 48.3,458.25 46.35,454.275 44.175,449.7 43.275,445.35 43.275,445.275 43.275,445.2 42.525,441.825 42.75,439.2 42.825,437.625 43.275,436.35 45.75,428.775 52.95,424.05 56.925,421.425 67.35,417.3" test="LeftBum"/>
      <path id="Layer1_0_2_STROKES" stroke="#0FF" stroke-width="3" stroke-linejoin="round" stroke-linecap="round" fill="none" d="M68.85,150 L74.625,153.6 Q81.675,158.175 87.825,163.65 107.625,181.05 111.525,199.8 114.75,214.8 122.175,248.325 127.575,278.775 125.4,303.3 122.325,336.825 120.6,346.275 117.9,361.2 111.525,369.75 L99.9,385.8 M27.9,355.125 L25.35,392.25 42.9,397.275 M-50.1,196.275 Q-38.4,193.2 -10.125,183.15 14.925,174.3 29.85,171.075 37.575,169.425 43.95,166.2 48.9,163.65 56.55,158.325 62.7,154.05 68.85,150" test="LeftBum"/>
    </g>
  </g>
</svg>