<?xml version="1.0" encoding="utf-8"?>
<svg id="EdithAnim08" image-rendering="inherit" baseProfile="basic" version="1.1" x="0px" y="0px" width="800" height="600" xmlns="http://www.w3.org/2000/svg" xmlns:xlink="http://www.w3.org/1999/xlink">
  <g id="No-Rear-To-Rearf156r1" overflow="visible">
    <g id="RightBum">
      <path id="Layer2_0_1_STROKES" stroke="#F0F" stroke-width="3" stroke-linejoin="round" stroke-linecap="round" fill="none" d="M760.525,168.075 L768.775,200.475 Q776.65,236.1 774.775,252.525 772.6,271.5 768.475,292.875 764.65,312.825 760.525,327.525 757.9,336.9 755.2,346.875 754.675,348.225 754.225,348.825 L778.75,342.75 M822.025,193.275 L740.65,156.975 M822.025,327.525 L850.525,323.775 M747.25,333.75 L748,336.825 Q749.65,342.825 751.525,347.1 752.95,350.325 754.225,348.825" test="RightBum"/>
      <path id="Layer2_0_2_STROKES" stroke="#F90" stroke-width="3" stroke-linejoin="round" stroke-linecap="round" fill="none" d="M778.75,342.75 L781.075,329.25 Q781.975,324 782.725,310.95 783.475,296.475 784.45,289.35 787.825,262.875 800.575,253.275 807.7,247.875 814.675,245.4 820.225,243.375 825.7,243.225 830.575,243.15 836.575,245.25 M740.65,156.975 Q655.825,119.025 636.025,111.225 623.575,106.35 612.925,103.95 601.75,101.475 592.675,101.775 573.625,102.45 559.075,115.275 543.4,128.925 535.825,146.925 527.8,166.125 531.7,184.275 535,199.875 546.625,209.625 552.475,214.5 557.725,216.525 574.675,205.875 591.55,205.275 M778.75,342.75 L771.1,387.225 Q771.625,388.05 771.025,387.6 L769.075,398.775 Q764.425,400.125 759.1,402.975 748.3,408.675 744.55,416.025 741.175,422.625 740.725,428.625 740.425,432.45 741.325,436.05 744.1,447.525 759.025,450.225 772.9,452.775 782.725,446.025 787.975,442.35 793.525,435.75 797.95,431.025 800.35,429.45 801.175,428.925 802.075,428.625 804.25,427.95 806.8,428.625 808.6,429.075 810.55,430.275 817,434.025 818.575,433.425 818.875,433.35 822.025,428.775 824.425,425.4 821.05,420.225 818.575,416.4 814.675,413.7 814.375,413.475 814.075,413.25 809.425,411.375 807.55,410.025 804.325,407.625 804.025,400.725 803.725,393.9 812.875,353.625 L822.025,314.775 825.325,314.925 Q830.575,315.075 840.55,314.775 M755.8,336.825 L748.975,333 Q748.075,333.375 747.25,333.75 742.45,335.775 740.05,336.825 744.85,351.375 761.275,374.025 765.025,379.2 770.05,385.8 770.725,386.7 771.1,387.225 L771.025,387.6 Q770.65,387.375 770.05,386.775 M740.05,336.825 Q733.975,339.6 731.2,342 727.75,344.925 727.075,348.9 725.725,356.4 734.05,368.325 744.4,383.1 766.525,398.775 M747.25,333.75 L746.725,331.725 748.975,333 Q750.4,332.4 752.05,331.725 M557.725,216.525 Q553.6,219.075 549.475,222.225 535.675,232.95 529.15,242.25 525.175,247.95 523.9,253.125 520.375,266.775 520.9,278.775 521.425,290.775 524.725,305.55 526.675,310.275 529.15,315.075 529.9,316.575 530.725,318.075 541.675,338.4 556.975,352.725 573.325,368.025 594.925,373.575 604.825,376.05 612.925,376.2 618.4,376.275 623.05,375.225 622.45,375.9 660.925,405.375 676.15,417.075 691.45,428.625 695.5,431.7 699.55,434.775 L690.55,448.275 M665.05,410.25 L654.55,421.725" test="RightBum"/>
    </g>
    <g id="LeftBum">
      <path id="Layer1_0_1_STROKES" stroke="#FEB7AE" stroke-width="3" stroke-linejoin="round" stroke-linecap="round" fill="none" d="M71.5,150 Q93.025,136.05 115.525,125.025 137.875,114.15 158.95,107.175 186.175,98.175 204.4,98.25 227.35,98.325 243.925,103.95 263.425,110.625 278.5,126.3 285.7,133.725 287.5,149.85 288.85,161.625 287.2,175.8 285.925,186.525 278.8,195.675 274.6,201 264.925,211.95 266.425,213.45 267.775,214.875 274.375,221.925 279.55,231.3 283.075,237.675 284.95,245.775 286.6,252.9 287.05,261.375 287.725,274.575 285.4,287.7 284.875,290.475 284.2,293.25 275.2,332.775 252.55,356.25 235.15,374.25 212.425,385.5 212.125,385.65 194.8,393.6 184.75,398.25 178.525,402.3 169.225,408.3 162.025,413.925 155.5,419.025 147.55,426.3 140.725,432.45 138.325,439.5 135.4,447.975 140.5,454.05 142.075,456 147.475,458.775 152.875,461.55 152.5,460.275 M182.05,199.8 Q196.525,188.925 217.75,189.6 238.45,190.275 252.55,201.3 259.9,207.075 264.925,211.95 M-39.95,243.3 Q-34.475,243.15 -26.6,244.275 -22.1,244.95 -13.25,246.375 -6.875,247.2 2.05,248.025 7.15,248.475 17.35,249.3 23.95,249.825 32.35,251.925 34,252.3 37.225,252.525 39.4,252.6 40.6,253.425 43.45,255.375 50.05,269.25 56.95,283.8 60.55,294.6 63.625,303.9 67.675,321.075 69.475,328.65 73.6,339.075 78.85,352.35 80.275,356.775 80.725,358.125 82.75,366.975 84.85,375.525 86.05,376.8 88.075,379.05 87.7,380.025 87.7,380.175 90.7,380.775 95.575,381.75 101.65,387.075 107.725,392.25 111.25,398.55 115.225,405.375 113.95,409.95 112.45,415.275 104.05,416.025 99.925,418.125 92.875,416.55 85,414.225 81.475,413.775 74.2,412.8 64.75,414.675 58.675,415.65 55.825,416.25 51.1,417.3 47.35,419.4 44.575,421.05 40.975,423.825 38.95,425.4 34.975,428.625 32.875,425.55 35.425,418.875 38.875,411.675 39.925,409.35 40.75,407.475 43.525,404.85 46.225,402.15 46.9,400.65 48.175,397.95 46.45,390.075 45.775,386.925 43.6,379.35 42.025,373.5 38.125,366.75 35.8,362.775 30.55,355.125 M45.55,397.275 Q45.025,397.65 37.075,401.1 30.775,403.8 28.975,406.575 25.975,411.375 25.45,415.65 24.625,422.775 28,436.275 28.375,437.775 28.825,439.2 29.8,442.275 31.15,445.2 32.725,448.725 34.9,452.025 36.25,454.125 45.55,465.75 M30.55,355.125 Q29.275,353.175 24.625,347.325 20.95,342.525 19,339.225 17.65,336.45 16.825,334.95 15.4,332.1 14.05,331.275 12.475,330.3 8.65,330.225 4.45,330.375 3.025,330.3 -1.475,330.075 -8.225,330.525 -18.8,331.275 -19.475,331.275 -37.1,332.1 -48.5,330.375 -51.425,330 -58.7,327.225 -65.075,324.75 -68.975,324.75 M61,465.3 Q57.55,465 53.95,461.325 50.95,458.25 49,454.275 46.825,449.7 45.925,445.35 45.925,445.275 45.925,445.2 45.175,441.825 45.4,439.2 45.475,437.625 45.925,436.35 48.4,428.775 55.6,424.05 59.575,421.425 70,417.3" test="LeftBum"/>
      <path id="Layer1_0_2_STROKES" stroke="#0FF" stroke-width="3" stroke-linejoin="round" stroke-linecap="round" fill="none" d="M71.5,150 L77.275,153.6 Q84.325,158.175 90.475,163.65 110.275,181.05 114.175,199.8 117.4,214.8 124.825,248.325 130.225,278.775 128.05,303.3 124.975,336.825 123.25,346.275 120.55,361.2 114.175,369.75 L102.55,385.8 M30.55,355.125 L28,392.25 45.55,397.275 M-47.45,196.275 Q-35.75,193.2 -7.475,183.15 17.575,174.3 32.5,171.075 40.225,169.425 46.6,166.2 51.55,163.65 59.2,158.325 65.35,154.05 71.5,150" test="LeftBum"/>
    </g>
  </g>
</svg>