<?xml version="1.0" encoding="utf-8"?>
<svg id="EdithAnim08" image-rendering="inherit" baseProfile="basic" version="1.1" x="0px" y="0px" width="800" height="600" xmlns="http://www.w3.org/2000/svg" xmlns:xlink="http://www.w3.org/1999/xlink">
  <g id="No-Rear-To-Rearf157r1" overflow="visible">
    <g id="RightBum">
      <path id="Layer2_0_1_STROKES" stroke="#F0F" stroke-width="3" stroke-linejoin="round" stroke-linecap="round" fill="none" d="M759.175,168.075 L767.425,200.475 Q775.3,236.1 773.425,252.525 771.25,271.5 767.125,292.875 763.3,312.825 759.175,327.525 756.55,336.9 753.85,346.875 753.325,348.225 752.875,348.825 L777.4,342.75 M820.675,193.275 L739.3,156.975 M820.675,327.525 L849.175,323.775 M745.9,333.75 L746.65,336.825 Q748.3,342.825 750.175,347.1 751.6,350.325 752.875,348.825" test="RightBum"/>
      <path id="Layer2_0_2_STROKES" stroke="#F90" stroke-width="3" stroke-linejoin="round" stroke-linecap="round" fill="none" d="M777.4,342.75 L779.725,329.25 Q780.625,324 781.375,310.95 782.125,296.475 783.1,289.35 786.475,262.875 799.225,253.275 806.35,247.875 813.325,245.4 818.875,243.375 824.35,243.225 829.225,243.15 835.225,245.25 M739.3,156.975 Q654.475,119.025 634.675,111.225 622.225,106.35 611.575,103.95 600.4,101.475 591.325,101.775 572.275,102.45 557.725,115.275 542.05,128.925 534.475,146.925 526.45,166.125 530.35,184.275 533.65,199.875 545.275,209.625 551.125,214.5 556.375,216.525 573.325,205.875 590.2,205.275 M777.4,342.75 L769.75,387.225 Q770.275,388.05 769.675,387.6 L767.725,398.775 Q763.075,400.125 757.75,402.975 746.95,408.675 743.2,416.025 739.825,422.625 739.375,428.625 739.075,432.45 739.975,436.05 742.75,447.525 757.675,450.225 771.55,452.775 781.375,446.025 786.625,442.35 792.175,435.75 796.6,431.025 799,429.45 799.825,428.925 800.725,428.625 802.9,427.95 805.45,428.625 807.25,429.075 809.2,430.275 815.65,434.025 817.225,433.425 817.525,433.35 820.675,428.775 823.075,425.4 819.7,420.225 817.225,416.4 813.325,413.7 813.025,413.475 812.725,413.25 808.075,411.375 806.2,410.025 802.975,407.625 802.675,400.725 802.375,393.9 811.525,353.625 L820.675,314.775 823.975,314.925 Q829.225,315.075 839.2,314.775 M754.45,336.825 L747.625,333 Q746.725,333.375 745.9,333.75 741.1,335.775 738.7,336.825 743.5,351.375 759.925,374.025 763.675,379.2 768.7,385.8 769.375,386.7 769.75,387.225 L769.675,387.6 Q769.3,387.375 768.7,386.775 M738.7,336.825 Q732.625,339.6 729.85,342 726.4,344.925 725.725,348.9 724.375,356.4 732.7,368.325 743.05,383.1 765.175,398.775 M745.9,333.75 L745.375,331.725 747.625,333 Q749.05,332.4 750.7,331.725 M556.375,216.525 Q552.25,219.075 548.125,222.225 534.325,232.95 527.8,242.25 523.825,247.95 522.55,253.125 519.025,266.775 519.55,278.775 520.075,290.775 523.375,305.55 525.325,310.275 527.8,315.075 528.55,316.575 529.375,318.075 540.325,338.4 555.625,352.725 571.975,368.025 593.575,373.575 603.475,376.05 611.575,376.2 617.05,376.275 621.7,375.225 621.1,375.9 659.575,405.375 674.8,417.075 690.1,428.625 694.15,431.7 698.2,434.775 L689.2,448.275 M663.7,410.25 L653.2,421.725" test="RightBum"/>
    </g>
    <g id="LeftBum">
      <path id="Layer1_0_1_STROKES" stroke="#FEB7AE" stroke-width="3" stroke-linejoin="round" stroke-linecap="round" fill="none" d="M72.85,150 Q94.375,136.05 116.875,125.025 139.225,114.15 160.3,107.175 187.525,98.175 205.75,98.25 228.7,98.325 245.275,103.95 264.775,110.625 279.85,126.3 287.05,133.725 288.85,149.85 290.2,161.625 288.55,175.8 287.275,186.525 280.15,195.675 275.95,201 266.275,211.95 267.775,213.45 269.125,214.875 275.725,221.925 280.9,231.3 284.425,237.675 286.3,245.775 287.95,252.9 288.4,261.375 289.075,274.575 286.75,287.7 286.225,290.475 285.55,293.25 276.55,332.775 253.9,356.25 236.5,374.25 213.775,385.5 213.475,385.65 196.15,393.6 186.1,398.25 179.875,402.3 170.575,408.3 163.375,413.925 156.85,419.025 148.9,426.3 142.075,432.45 139.675,439.5 136.75,447.975 141.85,454.05 143.425,456 148.825,458.775 154.225,461.55 153.85,460.275 M183.4,199.8 Q197.875,188.925 219.1,189.6 239.8,190.275 253.9,201.3 261.25,207.075 266.275,211.95 M-38.6,243.3 Q-33.125,243.15 -25.25,244.275 -20.75,244.95 -11.9,246.375 -5.525,247.2 3.4,248.025 8.5,248.475 18.7,249.3 25.3,249.825 33.7,251.925 35.35,252.3 38.575,252.525 40.75,252.6 41.95,253.425 44.8,255.375 51.4,269.25 58.3,283.8 61.9,294.6 64.975,303.9 69.025,321.075 70.825,328.65 74.95,339.075 80.2,352.35 81.625,356.775 82.075,358.125 84.1,366.975 86.2,375.525 87.4,376.8 89.425,379.05 89.05,380.025 89.05,380.175 92.05,380.775 96.925,381.75 103,387.075 109.075,392.25 112.6,398.55 116.575,405.375 115.3,409.95 113.8,415.275 105.4,416.025 101.275,418.125 94.225,416.55 86.35,414.225 82.825,413.775 75.55,412.8 66.1,414.675 60.025,415.65 57.175,416.25 52.45,417.3 48.7,419.4 45.925,421.05 42.325,423.825 40.3,425.4 36.325,428.625 34.225,425.55 36.775,418.875 40.225,411.675 41.275,409.35 42.1,407.475 44.875,404.85 47.575,402.15 48.25,400.65 49.525,397.95 47.8,390.075 47.125,386.925 44.95,379.35 43.375,373.5 39.475,366.75 37.15,362.775 31.9,355.125 M46.9,397.275 Q46.375,397.65 38.425,401.1 32.125,403.8 30.325,406.575 27.325,411.375 26.8,415.65 25.975,422.775 29.35,436.275 29.725,437.775 30.175,439.2 31.15,442.275 32.5,445.2 34.075,448.725 36.25,452.025 37.6,454.125 46.9,465.75 M31.9,355.125 Q30.625,353.175 25.975,347.325 22.3,342.525 20.35,339.225 19,336.45 18.175,334.95 16.75,332.1 15.4,331.275 13.825,330.3 10,330.225 5.8,330.375 4.375,330.3 -.125,330.075 -6.875,330.525 -17.45,331.275 -18.125,331.275 -35.75,332.1 -47.15,330.375 -50.075,330 -57.35,327.225 -63.725,324.75 -67.625,324.75 M62.35,465.3 Q58.9,465 55.3,461.325 52.3,458.25 50.35,454.275 48.175,449.7 47.275,445.35 47.275,445.275 47.275,445.2 46.525,441.825 46.75,439.2 46.825,437.625 47.275,436.35 49.75,428.775 56.95,424.05 60.925,421.425 71.35,417.3" test="LeftBum"/>
      <path id="Layer1_0_2_STROKES" stroke="#0FF" stroke-width="3" stroke-linejoin="round" stroke-linecap="round" fill="none" d="M72.85,150 L78.625,153.6 Q85.675,158.175 91.825,163.65 111.625,181.05 115.525,199.8 118.75,214.8 126.175,248.325 131.575,278.775 129.4,303.3 126.325,336.825 124.6,346.275 121.9,361.2 115.525,369.75 L103.9,385.8 M31.9,355.125 L29.35,392.25 46.9,397.275 M-46.1,196.275 Q-34.4,193.2 -6.125,183.15 18.925,174.3 33.85,171.075 41.575,169.425 47.95,166.2 52.9,163.65 60.55,158.325 66.7,154.05 72.85,150" test="LeftBum"/>
    </g>
  </g>
</svg>