<?xml version="1.0" encoding="utf-8"?>
<svg id="EdithAnim08" image-rendering="inherit" baseProfile="basic" version="1.1" x="0px" y="0px" width="800" height="600" xmlns="http://www.w3.org/2000/svg" xmlns:xlink="http://www.w3.org/1999/xlink">
  <g id="No-Rear-To-Rearf158r1" overflow="visible">
    <g id="RightBum">
      <path id="Layer2_0_1_STROKES" stroke="#F0F" stroke-width="3" stroke-linejoin="round" stroke-linecap="round" fill="none" d="M757.925,168.075 L766.175,200.475 Q774.05,236.1 772.175,252.525 770,271.5 765.875,292.875 762.05,312.825 757.925,327.525 755.3,336.9 752.6,346.875 752.075,348.225 751.625,348.825 L776.15,342.75 M819.425,193.275 L738.05,156.975 M819.425,327.525 L847.925,323.775 M744.65,333.75 L745.4,336.825 Q747.05,342.825 748.925,347.1 750.35,350.325 751.625,348.825" test="RightBum"/>
      <path id="Layer2_0_2_STROKES" stroke="#F90" stroke-width="3" stroke-linejoin="round" stroke-linecap="round" fill="none" d="M776.15,342.75 L778.475,329.25 Q779.375,324 780.125,310.95 780.875,296.475 781.85,289.35 785.225,262.875 797.975,253.275 805.1,247.875 812.075,245.4 817.625,243.375 823.1,243.225 827.975,243.15 833.975,245.25 M738.05,156.975 Q653.225,119.025 633.425,111.225 620.975,106.35 610.325,103.95 599.15,101.475 590.075,101.775 571.025,102.45 556.475,115.275 540.8,128.925 533.225,146.925 525.2,166.125 529.1,184.275 532.4,199.875 544.025,209.625 549.875,214.5 555.125,216.525 572.075,205.875 588.95,205.275 M776.15,342.75 L768.5,387.225 Q769.025,388.05 768.425,387.6 L766.475,398.775 Q761.825,400.125 756.5,402.975 745.7,408.675 741.95,416.025 738.575,422.625 738.125,428.625 737.825,432.45 738.725,436.05 741.5,447.525 756.425,450.225 770.3,452.775 780.125,446.025 785.375,442.35 790.925,435.75 795.35,431.025 797.75,429.45 798.575,428.925 799.475,428.625 801.65,427.95 804.2,428.625 806,429.075 807.95,430.275 814.4,434.025 815.975,433.425 816.275,433.35 819.425,428.775 821.825,425.4 818.45,420.225 815.975,416.4 812.075,413.7 811.775,413.475 811.475,413.25 806.825,411.375 804.95,410.025 801.725,407.625 801.425,400.725 801.125,393.9 810.275,353.625 L819.425,314.775 822.725,314.925 Q827.975,315.075 837.95,314.775 M753.2,336.825 L746.375,333 Q745.475,333.375 744.65,333.75 739.85,335.775 737.45,336.825 742.25,351.375 758.675,374.025 762.425,379.2 767.45,385.8 768.125,386.7 768.5,387.225 L768.425,387.6 Q768.05,387.375 767.45,386.775 M737.45,336.825 Q731.375,339.6 728.6,342 725.15,344.925 724.475,348.9 723.125,356.4 731.45,368.325 741.8,383.1 763.925,398.775 M744.65,333.75 L744.125,331.725 746.375,333 Q747.8,332.4 749.45,331.725 M555.125,216.525 Q551,219.075 546.875,222.225 533.075,232.95 526.55,242.25 522.575,247.95 521.3,253.125 517.775,266.775 518.3,278.775 518.825,290.775 522.125,305.55 524.075,310.275 526.55,315.075 527.3,316.575 528.125,318.075 539.075,338.4 554.375,352.725 570.725,368.025 592.325,373.575 602.225,376.05 610.325,376.2 615.8,376.275 620.45,375.225 619.85,375.9 658.325,405.375 673.55,417.075 688.85,428.625 692.9,431.7 696.95,434.775 L687.95,448.275 M662.45,410.25 L651.95,421.725" test="RightBum"/>
    </g>
    <g id="LeftBum">
      <path id="Layer1_0_1_STROKES" stroke="#FEB7AE" stroke-width="3" stroke-linejoin="round" stroke-linecap="round" fill="none" d="M74.15,150 Q95.675,136.05 118.175,125.025 140.525,114.15 161.6,107.175 188.825,98.175 207.05,98.25 230,98.325 246.575,103.95 266.075,110.625 281.15,126.3 288.35,133.725 290.15,149.85 291.5,161.625 289.85,175.8 288.575,186.525 281.45,195.675 277.25,201 267.575,211.95 269.075,213.45 270.425,214.875 277.025,221.925 282.2,231.3 285.725,237.675 287.6,245.775 289.25,252.9 289.7,261.375 290.375,274.575 288.05,287.7 287.525,290.475 286.85,293.25 277.85,332.775 255.2,356.25 237.8,374.25 215.075,385.5 214.775,385.65 197.45,393.6 187.4,398.25 181.175,402.3 171.875,408.3 164.675,413.925 158.15,419.025 150.2,426.3 143.375,432.45 140.975,439.5 138.05,447.975 143.15,454.05 144.725,456 150.125,458.775 155.525,461.55 155.15,460.275 M184.7,199.8 Q199.175,188.925 220.4,189.6 241.1,190.275 255.2,201.3 262.55,207.075 267.575,211.95 M-37.3,243.3 Q-31.825,243.15 -23.95,244.275 -19.45,244.95 -10.6,246.375 -4.225,247.2 4.7,248.025 9.8,248.475 20,249.3 26.6,249.825 35,251.925 36.65,252.3 39.875,252.525 42.05,252.6 43.25,253.425 46.1,255.375 52.7,269.25 59.6,283.8 63.2,294.6 66.275,303.9 70.325,321.075 72.125,328.65 76.25,339.075 81.5,352.35 82.925,356.775 83.375,358.125 85.4,366.975 87.5,375.525 88.7,376.8 90.725,379.05 90.35,380.025 90.35,380.175 93.35,380.775 98.225,381.75 104.3,387.075 110.375,392.25 113.9,398.55 117.875,405.375 116.6,409.95 115.1,415.275 106.7,416.025 102.575,418.125 95.525,416.55 87.65,414.225 84.125,413.775 76.85,412.8 67.4,414.675 61.325,415.65 58.475,416.25 53.75,417.3 50,419.4 47.225,421.05 43.625,423.825 41.6,425.4 37.625,428.625 35.525,425.55 38.075,418.875 41.525,411.675 42.575,409.35 43.4,407.475 46.175,404.85 48.875,402.15 49.55,400.65 50.825,397.95 49.1,390.075 48.425,386.925 46.25,379.35 44.675,373.5 40.775,366.75 38.45,362.775 33.2,355.125 M48.2,397.275 Q47.675,397.65 39.725,401.1 33.425,403.8 31.625,406.575 28.625,411.375 28.1,415.65 27.275,422.775 30.65,436.275 31.025,437.775 31.475,439.2 32.45,442.275 33.8,445.2 35.375,448.725 37.55,452.025 38.9,454.125 48.2,465.75 M33.2,355.125 Q31.925,353.175 27.275,347.325 23.6,342.525 21.65,339.225 20.3,336.45 19.475,334.95 18.05,332.1 16.7,331.275 15.125,330.3 11.3,330.225 7.1,330.375 5.675,330.3 1.175,330.075 -5.575,330.525 -16.15,331.275 -16.825,331.275 -34.45,332.1 -45.85,330.375 -48.775,330 -56.05,327.225 -62.425,324.75 -66.325,324.75 M63.65,465.3 Q60.2,465 56.6,461.325 53.6,458.25 51.65,454.275 49.475,449.7 48.575,445.35 48.575,445.275 48.575,445.2 47.825,441.825 48.05,439.2 48.125,437.625 48.575,436.35 51.05,428.775 58.25,424.05 62.225,421.425 72.65,417.3" test="LeftBum"/>
      <path id="Layer1_0_2_STROKES" stroke="#0FF" stroke-width="3" stroke-linejoin="round" stroke-linecap="round" fill="none" d="M74.15,150 L79.925,153.6 Q86.975,158.175 93.125,163.65 112.925,181.05 116.825,199.8 120.05,214.8 127.475,248.325 132.875,278.775 130.7,303.3 127.625,336.825 125.9,346.275 123.2,361.2 116.825,369.75 L105.2,385.8 M33.2,355.125 L30.65,392.25 48.2,397.275 M-44.8,196.275 Q-33.1,193.2 -4.825,183.15 20.225,174.3 35.15,171.075 42.875,169.425 49.25,166.2 54.2,163.65 61.85,158.325 68,154.05 74.15,150" test="LeftBum"/>
    </g>
  </g>
</svg>