<?xml version="1.0" encoding="utf-8"?>
<svg id="EdithAnim08" image-rendering="inherit" baseProfile="basic" version="1.1" x="0px" y="0px" width="800" height="600" xmlns="http://www.w3.org/2000/svg" xmlns:xlink="http://www.w3.org/1999/xlink">
  <g id="No-Rear-To-Rearf159r1" overflow="visible">
    <g id="RightBum">
      <path id="Layer2_0_1_STROKES" stroke="#F0F" stroke-width="3" stroke-linejoin="round" stroke-linecap="round" fill="none" d="M756.625,168.075 L764.875,200.475 Q772.75,236.1 770.875,252.525 768.7,271.5 764.575,292.875 760.75,312.825 756.625,327.525 754,336.9 751.3,346.875 750.775,348.225 750.325,348.825 L774.85,342.75 M818.125,193.275 L736.75,156.975 M818.125,327.525 L846.625,323.775 M743.35,333.75 L744.1,336.825 Q745.75,342.825 747.625,347.1 749.05,350.325 750.325,348.825" test="RightBum"/>
      <path id="Layer2_0_2_STROKES" stroke="#F90" stroke-width="3" stroke-linejoin="round" stroke-linecap="round" fill="none" d="M774.85,342.75 L777.175,329.25 Q778.075,324 778.825,310.95 779.575,296.475 780.55,289.35 783.925,262.875 796.675,253.275 803.8,247.875 810.775,245.4 816.325,243.375 821.8,243.225 826.675,243.15 832.675,245.25 M736.75,156.975 Q651.925,119.025 632.125,111.225 619.675,106.35 609.025,103.95 597.85,101.475 588.775,101.775 569.725,102.45 555.175,115.275 539.5,128.925 531.925,146.925 523.9,166.125 527.8,184.275 531.1,199.875 542.725,209.625 548.575,214.5 553.825,216.525 570.775,205.875 587.65,205.275 M774.85,342.75 L767.2,387.225 Q767.725,388.05 767.125,387.6 L765.175,398.775 Q760.525,400.125 755.2,402.975 744.4,408.675 740.65,416.025 737.275,422.625 736.825,428.625 736.525,432.45 737.425,436.05 740.2,447.525 755.125,450.225 769,452.775 778.825,446.025 784.075,442.35 789.625,435.75 794.05,431.025 796.45,429.45 797.275,428.925 798.175,428.625 800.35,427.95 802.9,428.625 804.7,429.075 806.65,430.275 813.1,434.025 814.675,433.425 814.975,433.35 818.125,428.775 820.525,425.4 817.15,420.225 814.675,416.4 810.775,413.7 810.475,413.475 810.175,413.25 805.525,411.375 803.65,410.025 800.425,407.625 800.125,400.725 799.825,393.9 808.975,353.625 L818.125,314.775 821.425,314.925 Q826.675,315.075 836.65,314.775 M751.9,336.825 L745.075,333 Q744.175,333.375 743.35,333.75 738.55,335.775 736.15,336.825 740.95,351.375 757.375,374.025 761.125,379.2 766.15,385.8 766.825,386.7 767.2,387.225 L767.125,387.6 Q766.75,387.375 766.15,386.775 M736.15,336.825 Q730.075,339.6 727.3,342 723.85,344.925 723.175,348.9 721.825,356.4 730.15,368.325 740.5,383.1 762.625,398.775 M743.35,333.75 L742.825,331.725 745.075,333 Q746.5,332.4 748.15,331.725 M553.825,216.525 Q549.7,219.075 545.575,222.225 531.775,232.95 525.25,242.25 521.275,247.95 520,253.125 516.475,266.775 517,278.775 517.525,290.775 520.825,305.55 522.775,310.275 525.25,315.075 526,316.575 526.825,318.075 537.775,338.4 553.075,352.725 569.425,368.025 591.025,373.575 600.925,376.05 609.025,376.2 614.5,376.275 619.15,375.225 618.55,375.9 657.025,405.375 672.25,417.075 687.55,428.625 691.6,431.7 695.65,434.775 L686.65,448.275 M661.15,410.25 L650.65,421.725" test="RightBum"/>
    </g>
    <g id="LeftBum">
      <path id="Layer1_0_1_STROKES" stroke="#FEB7AE" stroke-width="3" stroke-linejoin="round" stroke-linecap="round" fill="none" d="M75.5,150 Q97.025,136.05 119.525,125.025 141.875,114.15 162.95,107.175 190.175,98.175 208.4,98.25 231.35,98.325 247.925,103.95 267.425,110.625 282.5,126.3 289.7,133.725 291.5,149.85 292.85,161.625 291.2,175.8 289.925,186.525 282.8,195.675 278.6,201 268.925,211.95 270.425,213.45 271.775,214.875 278.375,221.925 283.55,231.3 287.075,237.675 288.95,245.775 290.6,252.9 291.05,261.375 291.725,274.575 289.4,287.7 288.875,290.475 288.2,293.25 279.2,332.775 256.55,356.25 239.15,374.25 216.425,385.5 216.125,385.65 198.8,393.6 188.75,398.25 182.525,402.3 173.225,408.3 166.025,413.925 159.5,419.025 151.55,426.3 144.725,432.45 142.325,439.5 139.4,447.975 144.5,454.05 146.075,456 151.475,458.775 156.875,461.55 156.5,460.275 M186.05,199.8 Q200.525,188.925 221.75,189.6 242.45,190.275 256.55,201.3 263.9,207.075 268.925,211.95 M-35.95,243.3 Q-30.475,243.15 -22.6,244.275 -18.1,244.95 -9.25,246.375 -2.875,247.2 6.05,248.025 11.15,248.475 21.35,249.3 27.95,249.825 36.35,251.925 38,252.3 41.225,252.525 43.4,252.6 44.6,253.425 47.45,255.375 54.05,269.25 60.95,283.8 64.55,294.6 67.625,303.9 71.675,321.075 73.475,328.65 77.6,339.075 82.85,352.35 84.275,356.775 84.725,358.125 86.75,366.975 88.85,375.525 90.05,376.8 92.075,379.05 91.7,380.025 91.7,380.175 94.7,380.775 99.575,381.75 105.65,387.075 111.725,392.25 115.25,398.55 119.225,405.375 117.95,409.95 116.45,415.275 108.05,416.025 103.925,418.125 96.875,416.55 89,414.225 85.475,413.775 78.2,412.8 68.75,414.675 62.675,415.65 59.825,416.25 55.1,417.3 51.35,419.4 48.575,421.05 44.975,423.825 42.95,425.4 38.975,428.625 36.875,425.55 39.425,418.875 42.875,411.675 43.925,409.35 44.75,407.475 47.525,404.85 50.225,402.15 50.9,400.65 52.175,397.95 50.45,390.075 49.775,386.925 47.6,379.35 46.025,373.5 42.125,366.75 39.8,362.775 34.55,355.125 M49.55,397.275 Q49.025,397.65 41.075,401.1 34.775,403.8 32.975,406.575 29.975,411.375 29.45,415.65 28.625,422.775 32,436.275 32.375,437.775 32.825,439.2 33.8,442.275 35.15,445.2 36.725,448.725 38.9,452.025 40.25,454.125 49.55,465.75 M34.55,355.125 Q33.275,353.175 28.625,347.325 24.95,342.525 23,339.225 21.65,336.45 20.825,334.95 19.4,332.1 18.05,331.275 16.475,330.3 12.65,330.225 8.45,330.375 7.025,330.3 2.525,330.075 -4.225,330.525 -14.8,331.275 -15.475,331.275 -33.1,332.1 -44.5,330.375 -47.425,330 -54.7,327.225 -61.075,324.75 -64.975,324.75 M65,465.3 Q61.55,465 57.95,461.325 54.95,458.25 53,454.275 50.825,449.7 49.925,445.35 49.925,445.275 49.925,445.2 49.175,441.825 49.4,439.2 49.475,437.625 49.925,436.35 52.4,428.775 59.6,424.05 63.575,421.425 74,417.3" test="LeftBum"/>
      <path id="Layer1_0_2_STROKES" stroke="#0FF" stroke-width="3" stroke-linejoin="round" stroke-linecap="round" fill="none" d="M75.5,150 L81.275,153.6 Q88.325,158.175 94.475,163.65 114.275,181.05 118.175,199.8 121.4,214.8 128.825,248.325 134.225,278.775 132.05,303.3 128.975,336.825 127.25,346.275 124.55,361.2 118.175,369.75 L106.55,385.8 M34.55,355.125 L32,392.25 49.55,397.275 M-43.45,196.275 Q-31.75,193.2 -3.475,183.15 21.575,174.3 36.5,171.075 44.225,169.425 50.6,166.2 55.55,163.65 63.2,158.325 69.35,154.05 75.5,150" test="LeftBum"/>
    </g>
  </g>
</svg>