<?xml version="1.0" encoding="utf-8"?>
<svg id="EdithAnim08" image-rendering="inherit" baseProfile="basic" version="1.1" x="0px" y="0px" width="800" height="600" xmlns="http://www.w3.org/2000/svg" xmlns:xlink="http://www.w3.org/1999/xlink">
  <g id="No-Rear-To-Rearf162r1" overflow="visible">
    <g id="RightBum">
      <path id="Layer2_0_1_STROKES" stroke="#F0F" stroke-width="3" stroke-linejoin="round" stroke-linecap="round" fill="none" d="M752.775,168.075 L761.025,200.475 Q768.9,236.1 767.025,252.525 764.85,271.5 760.725,292.875 756.9,312.825 752.775,327.525 750.15,336.9 747.45,346.875 746.925,348.225 746.475,348.825 L771,342.75 M814.275,193.275 L732.9,156.975 M814.275,327.525 L842.775,323.775 M739.5,333.75 L740.25,336.825 Q741.9,342.825 743.775,347.1 745.2,350.325 746.475,348.825" test="RightBum"/>
      <path id="Layer2_0_2_STROKES" stroke="#F90" stroke-width="3" stroke-linejoin="round" stroke-linecap="round" fill="none" d="M771,342.75 L773.325,329.25 Q774.225,324 774.975,310.95 775.725,296.475 776.7,289.35 780.075,262.875 792.825,253.275 799.95,247.875 806.925,245.4 812.475,243.375 817.95,243.225 822.825,243.15 828.825,245.25 M732.9,156.975 Q648.075,119.025 628.275,111.225 615.825,106.35 605.175,103.95 594,101.475 584.925,101.775 565.875,102.45 551.325,115.275 535.65,128.925 528.075,146.925 520.05,166.125 523.95,184.275 527.25,199.875 538.875,209.625 544.725,214.5 549.975,216.525 566.925,205.875 583.8,205.275 M771,342.75 L763.35,387.225 Q763.875,388.05 763.275,387.6 L761.325,398.775 Q756.675,400.125 751.35,402.975 740.55,408.675 736.8,416.025 733.425,422.625 732.975,428.625 732.675,432.45 733.575,436.05 736.35,447.525 751.275,450.225 765.15,452.775 774.975,446.025 780.225,442.35 785.775,435.75 790.2,431.025 792.6,429.45 793.425,428.925 794.325,428.625 796.5,427.95 799.05,428.625 800.85,429.075 802.8,430.275 809.25,434.025 810.825,433.425 811.125,433.35 814.275,428.775 816.675,425.4 813.3,420.225 810.825,416.4 806.925,413.7 806.625,413.475 806.325,413.25 801.675,411.375 799.8,410.025 796.575,407.625 796.275,400.725 795.975,393.9 805.125,353.625 L814.275,314.775 817.575,314.925 Q822.825,315.075 832.8,314.775 M748.05,336.825 L741.225,333 Q740.325,333.375 739.5,333.75 734.7,335.775 732.3,336.825 737.1,351.375 753.525,374.025 757.275,379.2 762.3,385.8 762.975,386.7 763.35,387.225 L763.275,387.6 Q762.9,387.375 762.3,386.775 M732.3,336.825 Q726.225,339.6 723.45,342 720,344.925 719.325,348.9 717.975,356.4 726.3,368.325 736.65,383.1 758.775,398.775 M739.5,333.75 L738.975,331.725 741.225,333 Q742.65,332.4 744.3,331.725 M549.975,216.525 Q545.85,219.075 541.725,222.225 527.925,232.95 521.4,242.25 517.425,247.95 516.15,253.125 512.625,266.775 513.15,278.775 513.675,290.775 516.975,305.55 518.925,310.275 521.4,315.075 522.15,316.575 522.975,318.075 533.925,338.4 549.225,352.725 565.575,368.025 587.175,373.575 597.075,376.05 605.175,376.2 610.65,376.275 615.3,375.225 614.7,375.9 653.175,405.375 668.4,417.075 683.7,428.625 687.75,431.7 691.8,434.775 L682.8,448.275 M657.3,410.25 L646.8,421.725" test="RightBum"/>
    </g>
    <g id="LeftBum">
      <path id="Layer1_0_1_STROKES" stroke="#FEB7AE" stroke-width="3" stroke-linejoin="round" stroke-linecap="round" fill="none" d="M79.35,150 Q100.875,136.05 123.375,125.025 145.725,114.15 166.8,107.175 194.025,98.175 212.25,98.25 235.2,98.325 251.775,103.95 271.275,110.625 286.35,126.3 293.55,133.725 295.35,149.85 296.7,161.625 295.05,175.8 293.775,186.525 286.65,195.675 282.45,201 272.775,211.95 274.275,213.45 275.625,214.875 282.225,221.925 287.4,231.3 290.925,237.675 292.8,245.775 294.45,252.9 294.9,261.375 295.575,274.575 293.25,287.7 292.725,290.475 292.05,293.25 283.05,332.775 260.4,356.25 243,374.25 220.275,385.5 219.975,385.65 202.65,393.6 192.6,398.25 186.375,402.3 177.075,408.3 169.875,413.925 163.35,419.025 155.4,426.3 148.575,432.45 146.175,439.5 143.25,447.975 148.35,454.05 149.925,456 155.325,458.775 160.725,461.55 160.35,460.275 M189.9,199.8 Q204.375,188.925 225.6,189.6 246.3,190.275 260.4,201.3 267.75,207.075 272.775,211.95 M-32.1,243.3 Q-26.625,243.15 -18.75,244.275 -14.25,244.95 -5.4,246.375 .975,247.2 9.9,248.025 15,248.475 25.2,249.3 31.8,249.825 40.2,251.925 41.85,252.3 45.075,252.525 47.25,252.6 48.45,253.425 51.3,255.375 57.9,269.25 64.8,283.8 68.4,294.6 71.475,303.9 75.525,321.075 77.325,328.65 81.45,339.075 86.7,352.35 88.125,356.775 88.575,358.125 90.6,366.975 92.7,375.525 93.9,376.8 95.925,379.05 95.55,380.025 95.55,380.175 98.55,380.775 103.425,381.75 109.5,387.075 115.575,392.25 119.1,398.55 123.075,405.375 121.8,409.95 120.3,415.275 111.9,416.025 107.775,418.125 100.725,416.55 92.85,414.225 89.325,413.775 82.05,412.8 72.6,414.675 66.525,415.65 63.675,416.25 58.95,417.3 55.2,419.4 52.425,421.05 48.825,423.825 46.8,425.4 42.825,428.625 40.725,425.55 43.275,418.875 46.725,411.675 47.775,409.35 48.6,407.475 51.375,404.85 54.075,402.15 54.75,400.65 56.025,397.95 54.3,390.075 53.625,386.925 51.45,379.35 49.875,373.5 45.975,366.75 43.65,362.775 38.4,355.125 M53.4,397.275 Q52.875,397.65 44.925,401.1 38.625,403.8 36.825,406.575 33.825,411.375 33.3,415.65 32.475,422.775 35.85,436.275 36.225,437.775 36.675,439.2 37.65,442.275 39,445.2 40.575,448.725 42.75,452.025 44.1,454.125 53.4,465.75 M38.4,355.125 Q37.125,353.175 32.475,347.325 28.8,342.525 26.85,339.225 25.5,336.45 24.675,334.95 23.25,332.1 21.9,331.275 20.325,330.3 16.5,330.225 12.3,330.375 10.875,330.3 6.375,330.075 -.375,330.525 -10.95,331.275 -11.625,331.275 -29.25,332.1 -40.65,330.375 -43.575,330 -50.85,327.225 -57.225,324.75 -61.125,324.75 M68.85,465.3 Q65.4,465 61.8,461.325 58.8,458.25 56.85,454.275 54.675,449.7 53.775,445.35 53.775,445.275 53.775,445.2 53.025,441.825 53.25,439.2 53.325,437.625 53.775,436.35 56.25,428.775 63.45,424.05 67.425,421.425 77.85,417.3" test="LeftBum"/>
      <path id="Layer1_0_2_STROKES" stroke="#0FF" stroke-width="3" stroke-linejoin="round" stroke-linecap="round" fill="none" d="M79.35,150 L85.125,153.6 Q92.175,158.175 98.325,163.65 118.125,181.05 122.025,199.8 125.25,214.8 132.675,248.325 138.075,278.775 135.9,303.3 132.825,336.825 131.1,346.275 128.4,361.2 122.025,369.75 L110.4,385.8 M38.4,355.125 L35.85,392.25 53.4,397.275 M-39.6,196.275 Q-27.9,193.2 .375,183.15 25.425,174.3 40.35,171.075 48.075,169.425 54.45,166.2 59.4,163.65 67.05,158.325 73.2,154.05 79.35,150" test="LeftBum"/>
    </g>
  </g>
</svg>