<?xml version="1.0" encoding="utf-8"?>
<svg id="EdithAnim08" image-rendering="inherit" baseProfile="basic" version="1.1" x="0px" y="0px" width="800" height="600" xmlns="http://www.w3.org/2000/svg" xmlns:xlink="http://www.w3.org/1999/xlink">
  <g id="No-Rear-To-Rearf163r1" overflow="visible">
    <g id="RightBum">
      <path id="Layer2_0_1_STROKES" stroke="#F0F" stroke-width="3" stroke-linejoin="round" stroke-linecap="round" fill="none" d="M751.525,168.075 L759.775,200.475 Q767.65,236.1 765.775,252.525 763.6,271.5 759.475,292.875 755.65,312.825 751.525,327.525 748.9,336.9 746.2,346.875 745.675,348.225 745.225,348.825 L769.75,342.75 M813.025,193.275 L731.65,156.975 M813.025,327.525 L841.525,323.775 M738.25,333.75 L739,336.825 Q740.65,342.825 742.525,347.1 743.95,350.325 745.225,348.825" test="RightBum"/>
      <path id="Layer2_0_2_STROKES" stroke="#F90" stroke-width="3" stroke-linejoin="round" stroke-linecap="round" fill="none" d="M769.75,342.75 L772.075,329.25 Q772.975,324 773.725,310.95 774.475,296.475 775.45,289.35 778.825,262.875 791.575,253.275 798.7,247.875 805.675,245.4 811.225,243.375 816.7,243.225 821.575,243.15 827.575,245.25 M731.65,156.975 Q646.825,119.025 627.025,111.225 614.575,106.35 603.925,103.95 592.75,101.475 583.675,101.775 564.625,102.45 550.075,115.275 534.4,128.925 526.825,146.925 518.8,166.125 522.7,184.275 526,199.875 537.625,209.625 543.475,214.5 548.725,216.525 565.675,205.875 582.55,205.275 M769.75,342.75 L762.1,387.225 Q762.625,388.05 762.025,387.6 L760.075,398.775 Q755.425,400.125 750.1,402.975 739.3,408.675 735.55,416.025 732.175,422.625 731.725,428.625 731.425,432.45 732.325,436.05 735.1,447.525 750.025,450.225 763.9,452.775 773.725,446.025 778.975,442.35 784.525,435.75 788.95,431.025 791.35,429.45 792.175,428.925 793.075,428.625 795.25,427.95 797.8,428.625 799.6,429.075 801.55,430.275 808,434.025 809.575,433.425 809.875,433.35 813.025,428.775 815.425,425.4 812.05,420.225 809.575,416.4 805.675,413.7 805.375,413.475 805.075,413.25 800.425,411.375 798.55,410.025 795.325,407.625 795.025,400.725 794.725,393.9 803.875,353.625 L813.025,314.775 816.325,314.925 Q821.575,315.075 831.55,314.775 M746.8,336.825 L739.975,333 Q739.075,333.375 738.25,333.75 733.45,335.775 731.05,336.825 735.85,351.375 752.275,374.025 756.025,379.2 761.05,385.8 761.725,386.7 762.1,387.225 L762.025,387.6 Q761.65,387.375 761.05,386.775 M731.05,336.825 Q724.975,339.6 722.2,342 718.75,344.925 718.075,348.9 716.725,356.4 725.05,368.325 735.4,383.1 757.525,398.775 M738.25,333.75 L737.725,331.725 739.975,333 Q741.4,332.4 743.05,331.725 M548.725,216.525 Q544.6,219.075 540.475,222.225 526.675,232.95 520.15,242.25 516.175,247.95 514.9,253.125 511.375,266.775 511.9,278.775 512.425,290.775 515.725,305.55 517.675,310.275 520.15,315.075 520.9,316.575 521.725,318.075 532.675,338.4 547.975,352.725 564.325,368.025 585.925,373.575 595.825,376.05 603.925,376.2 609.4,376.275 614.05,375.225 613.45,375.9 651.925,405.375 667.15,417.075 682.45,428.625 686.5,431.7 690.55,434.775 L681.55,448.275 M656.05,410.25 L645.55,421.725" test="RightBum"/>
    </g>
    <g id="LeftBum">
      <path id="Layer1_0_1_STROKES" stroke="#FEB7AE" stroke-width="3" stroke-linejoin="round" stroke-linecap="round" fill="none" d="M80.65,150 Q102.175,136.05 124.675,125.025 147.025,114.15 168.1,107.175 195.325,98.175 213.55,98.25 236.5,98.325 253.075,103.95 272.575,110.625 287.65,126.3 294.85,133.725 296.65,149.85 298,161.625 296.35,175.8 295.075,186.525 287.95,195.675 283.75,201 274.075,211.95 275.575,213.45 276.925,214.875 283.525,221.925 288.7,231.3 292.225,237.675 294.1,245.775 295.75,252.9 296.2,261.375 296.875,274.575 294.55,287.7 294.025,290.475 293.35,293.25 284.35,332.775 261.7,356.25 244.3,374.25 221.575,385.5 221.275,385.65 203.95,393.6 193.9,398.25 187.675,402.3 178.375,408.3 171.175,413.925 164.65,419.025 156.7,426.3 149.875,432.45 147.475,439.5 144.55,447.975 149.65,454.05 151.225,456 156.625,458.775 162.025,461.55 161.65,460.275 M191.2,199.8 Q205.675,188.925 226.9,189.6 247.6,190.275 261.7,201.3 269.05,207.075 274.075,211.95 M-30.8,243.3 Q-25.325,243.15 -17.45,244.275 -12.95,244.95 -4.1,246.375 2.275,247.2 11.2,248.025 16.3,248.475 26.5,249.3 33.1,249.825 41.5,251.925 43.15,252.3 46.375,252.525 48.55,252.6 49.75,253.425 52.6,255.375 59.2,269.25 66.1,283.8 69.7,294.6 72.775,303.9 76.825,321.075 78.625,328.65 82.75,339.075 88,352.35 89.425,356.775 89.875,358.125 91.9,366.975 94,375.525 95.2,376.8 97.225,379.05 96.85,380.025 96.85,380.175 99.85,380.775 104.725,381.75 110.8,387.075 116.875,392.25 120.4,398.55 124.375,405.375 123.1,409.95 121.6,415.275 113.2,416.025 109.075,418.125 102.025,416.55 94.15,414.225 90.625,413.775 83.35,412.8 73.9,414.675 67.825,415.65 64.975,416.25 60.25,417.3 56.5,419.4 53.725,421.05 50.125,423.825 48.1,425.4 44.125,428.625 42.025,425.55 44.575,418.875 48.025,411.675 49.075,409.35 49.9,407.475 52.675,404.85 55.375,402.15 56.05,400.65 57.325,397.95 55.6,390.075 54.925,386.925 52.75,379.35 51.175,373.5 47.275,366.75 44.95,362.775 39.7,355.125 M54.7,397.275 Q54.175,397.65 46.225,401.1 39.925,403.8 38.125,406.575 35.125,411.375 34.6,415.65 33.775,422.775 37.15,436.275 37.525,437.775 37.975,439.2 38.95,442.275 40.3,445.2 41.875,448.725 44.05,452.025 45.4,454.125 54.7,465.75 M39.7,355.125 Q38.425,353.175 33.775,347.325 30.1,342.525 28.15,339.225 26.8,336.45 25.975,334.95 24.55,332.1 23.2,331.275 21.625,330.3 17.8,330.225 13.6,330.375 12.175,330.3 7.675,330.075 .925,330.525 -9.65,331.275 -10.325,331.275 -27.95,332.1 -39.35,330.375 -42.275,330 -49.55,327.225 -55.925,324.75 -59.825,324.75 M70.15,465.3 Q66.7,465 63.1,461.325 60.1,458.25 58.15,454.275 55.975,449.7 55.075,445.35 55.075,445.275 55.075,445.2 54.325,441.825 54.55,439.2 54.625,437.625 55.075,436.35 57.55,428.775 64.75,424.05 68.725,421.425 79.15,417.3" test="LeftBum"/>
      <path id="Layer1_0_2_STROKES" stroke="#0FF" stroke-width="3" stroke-linejoin="round" stroke-linecap="round" fill="none" d="M80.65,150 L86.425,153.6 Q93.475,158.175 99.625,163.65 119.425,181.05 123.325,199.8 126.55,214.8 133.975,248.325 139.375,278.775 137.2,303.3 134.125,336.825 132.4,346.275 129.7,361.2 123.325,369.75 L111.7,385.8 M39.7,355.125 L37.15,392.25 54.7,397.275 M-38.3,196.275 Q-26.6,193.2 1.675,183.15 26.725,174.3 41.65,171.075 49.375,169.425 55.75,166.2 60.7,163.65 68.35,158.325 74.5,154.05 80.65,150" test="LeftBum"/>
    </g>
  </g>
</svg>