<?xml version="1.0" encoding="utf-8"?>
<svg id="EdithAnim08" image-rendering="inherit" baseProfile="basic" version="1.1" x="0px" y="0px" width="800" height="600" xmlns="http://www.w3.org/2000/svg" xmlns:xlink="http://www.w3.org/1999/xlink">
  <g id="No-Rear-To-Rearf166r1" overflow="visible">
    <g id="RightBum">
      <path id="Layer2_0_1_STROKES" stroke="#F0F" stroke-width="3" stroke-linejoin="round" stroke-linecap="round" fill="none" d="M747.775,168.075 L756.025,200.475 Q763.9,236.1 762.025,252.525 759.85,271.5 755.725,292.875 751.9,312.825 747.775,327.525 745.15,336.9 742.45,346.875 741.925,348.225 741.475,348.825 L766,342.75 M809.275,193.275 L727.9,156.975 M809.275,327.525 L837.775,323.775 M734.5,333.75 L735.25,336.825 Q736.9,342.825 738.775,347.1 740.2,350.325 741.475,348.825" test="RightBum"/>
      <path id="Layer2_0_2_STROKES" stroke="#F90" stroke-width="3" stroke-linejoin="round" stroke-linecap="round" fill="none" d="M766,342.75 L768.325,329.25 Q769.225,324 769.975,310.95 770.725,296.475 771.7,289.35 775.075,262.875 787.825,253.275 794.95,247.875 801.925,245.4 807.475,243.375 812.95,243.225 817.825,243.15 823.825,245.25 M727.9,156.975 Q643.075,119.025 623.275,111.225 610.825,106.35 600.175,103.95 589,101.475 579.925,101.775 560.875,102.45 546.325,115.275 530.65,128.925 523.075,146.925 515.05,166.125 518.95,184.275 522.25,199.875 533.875,209.625 539.725,214.5 544.975,216.525 561.925,205.875 578.8,205.275 M766,342.75 L758.35,387.225 Q758.875,388.05 758.275,387.6 L756.325,398.775 Q751.675,400.125 746.35,402.975 735.55,408.675 731.8,416.025 728.425,422.625 727.975,428.625 727.675,432.45 728.575,436.05 731.35,447.525 746.275,450.225 760.15,452.775 769.975,446.025 775.225,442.35 780.775,435.75 785.2,431.025 787.6,429.45 788.425,428.925 789.325,428.625 791.5,427.95 794.05,428.625 795.85,429.075 797.8,430.275 804.25,434.025 805.825,433.425 806.125,433.35 809.275,428.775 811.675,425.4 808.3,420.225 805.825,416.4 801.925,413.7 801.625,413.475 801.325,413.25 796.675,411.375 794.8,410.025 791.575,407.625 791.275,400.725 790.975,393.9 800.125,353.625 L809.275,314.775 812.575,314.925 Q817.825,315.075 827.8,314.775 M743.05,336.825 L736.225,333 Q735.325,333.375 734.5,333.75 729.7,335.775 727.3,336.825 732.1,351.375 748.525,374.025 752.275,379.2 757.3,385.8 757.975,386.7 758.35,387.225 L758.275,387.6 Q757.9,387.375 757.3,386.775 M727.3,336.825 Q721.225,339.6 718.45,342 715,344.925 714.325,348.9 712.975,356.4 721.3,368.325 731.65,383.1 753.775,398.775 M734.5,333.75 L733.975,331.725 736.225,333 Q737.65,332.4 739.3,331.725 M544.975,216.525 Q540.85,219.075 536.725,222.225 522.925,232.95 516.4,242.25 512.425,247.95 511.15,253.125 507.625,266.775 508.15,278.775 508.675,290.775 511.975,305.55 513.925,310.275 516.4,315.075 517.15,316.575 517.975,318.075 528.925,338.4 544.225,352.725 560.575,368.025 582.175,373.575 592.075,376.05 600.175,376.2 605.65,376.275 610.3,375.225 609.7,375.9 648.175,405.375 663.4,417.075 678.7,428.625 682.75,431.7 686.8,434.775 L677.8,448.275 M652.3,410.25 L641.8,421.725" test="RightBum"/>
    </g>
    <g id="LeftBum">
      <path id="Layer1_0_1_STROKES" stroke="#FEB7AE" stroke-width="3" stroke-linejoin="round" stroke-linecap="round" fill="none" d="M84.45,150 Q105.975,136.05 128.475,125.025 150.825,114.15 171.9,107.175 199.125,98.175 217.35,98.25 240.3,98.325 256.875,103.95 276.375,110.625 291.45,126.3 298.65,133.725 300.45,149.85 301.8,161.625 300.15,175.8 298.875,186.525 291.75,195.675 287.55,201 277.875,211.95 279.375,213.45 280.725,214.875 287.325,221.925 292.5,231.3 296.025,237.675 297.9,245.775 299.55,252.9 300,261.375 300.675,274.575 298.35,287.7 297.825,290.475 297.15,293.25 288.15,332.775 265.5,356.25 248.1,374.25 225.375,385.5 225.075,385.65 207.75,393.6 197.7,398.25 191.475,402.3 182.175,408.3 174.975,413.925 168.45,419.025 160.5,426.3 153.675,432.45 151.275,439.5 148.35,447.975 153.45,454.05 155.025,456 160.425,458.775 165.825,461.55 165.45,460.275 M195,199.8 Q209.475,188.925 230.7,189.6 251.4,190.275 265.5,201.3 272.85,207.075 277.875,211.95 M-27,243.3 Q-21.525,243.15 -13.65,244.275 -9.15,244.95 -.3,246.375 6.075,247.2 15,248.025 20.1,248.475 30.3,249.3 36.9,249.825 45.3,251.925 46.95,252.3 50.175,252.525 52.35,252.6 53.55,253.425 56.4,255.375 63,269.25 69.9,283.8 73.5,294.6 76.575,303.9 80.625,321.075 82.425,328.65 86.55,339.075 91.8,352.35 93.225,356.775 93.675,358.125 95.7,366.975 97.8,375.525 99,376.8 101.025,379.05 100.65,380.025 100.65,380.175 103.65,380.775 108.525,381.75 114.6,387.075 120.675,392.25 124.2,398.55 128.175,405.375 126.9,409.95 125.4,415.275 117,416.025 112.875,418.125 105.825,416.55 97.95,414.225 94.425,413.775 87.15,412.8 77.7,414.675 71.625,415.65 68.775,416.25 64.05,417.3 60.3,419.4 57.525,421.05 53.925,423.825 51.9,425.4 47.925,428.625 45.825,425.55 48.375,418.875 51.825,411.675 52.875,409.35 53.7,407.475 56.475,404.85 59.175,402.15 59.85,400.65 61.125,397.95 59.4,390.075 58.725,386.925 56.55,379.35 54.975,373.5 51.075,366.75 48.75,362.775 43.5,355.125 M58.5,397.275 Q57.975,397.65 50.025,401.1 43.725,403.8 41.925,406.575 38.925,411.375 38.4,415.65 37.575,422.775 40.95,436.275 41.325,437.775 41.775,439.2 42.75,442.275 44.1,445.2 45.675,448.725 47.85,452.025 49.2,454.125 58.5,465.75 M43.5,355.125 Q42.225,353.175 37.575,347.325 33.9,342.525 31.95,339.225 30.6,336.45 29.775,334.95 28.35,332.1 27,331.275 25.425,330.3 21.6,330.225 17.4,330.375 15.975,330.3 11.475,330.075 4.725,330.525 -5.85,331.275 -6.525,331.275 -24.15,332.1 -35.55,330.375 -38.475,330 -45.75,327.225 -52.125,324.75 -56.025,324.75 M73.95,465.3 Q70.5,465 66.9,461.325 63.9,458.25 61.95,454.275 59.775,449.7 58.875,445.35 58.875,445.275 58.875,445.2 58.125,441.825 58.35,439.2 58.425,437.625 58.875,436.35 61.35,428.775 68.55,424.05 72.525,421.425 82.95,417.3" test="LeftBum"/>
      <path id="Layer1_0_2_STROKES" stroke="#0FF" stroke-width="3" stroke-linejoin="round" stroke-linecap="round" fill="none" d="M84.45,150 L90.225,153.6 Q97.275,158.175 103.425,163.65 123.225,181.05 127.125,199.8 130.35,214.8 137.775,248.325 143.175,278.775 141,303.3 137.925,336.825 136.2,346.275 133.5,361.2 127.125,369.75 L115.5,385.8 M43.5,355.125 L40.95,392.25 58.5,397.275 M-34.5,196.275 Q-22.8,193.2 5.475,183.15 30.525,174.3 45.45,171.075 53.175,169.425 59.55,166.2 64.5,163.65 72.15,158.325 78.3,154.05 84.45,150" test="LeftBum"/>
    </g>
  </g>
</svg>