<?xml version="1.0" encoding="utf-8"?>
<svg id="EdithAnim08" image-rendering="inherit" baseProfile="basic" version="1.1" x="0px" y="0px" width="800" height="600" xmlns="http://www.w3.org/2000/svg" xmlns:xlink="http://www.w3.org/1999/xlink">
  <g id="No-Rear-To-Rearf167r1" overflow="visible">
    <g id="RightBum">
      <path id="Layer2_0_1_STROKES" stroke="#F0F" stroke-width="3" stroke-linejoin="round" stroke-linecap="round" fill="none" d="M746.525,168.075 L754.775,200.475 Q762.65,236.1 760.775,252.525 758.6,271.5 754.475,292.875 750.65,312.825 746.525,327.525 743.9,336.9 741.2,346.875 740.675,348.225 740.225,348.825 L764.75,342.75 M808.025,193.275 L726.65,156.975 M808.025,327.525 L836.525,323.775 M733.25,333.75 L734,336.825 Q735.65,342.825 737.525,347.1 738.95,350.325 740.225,348.825" test="RightBum"/>
      <path id="Layer2_0_2_STROKES" stroke="#F90" stroke-width="3" stroke-linejoin="round" stroke-linecap="round" fill="none" d="M764.75,342.75 L767.075,329.25 Q767.975,324 768.725,310.95 769.475,296.475 770.45,289.35 773.825,262.875 786.575,253.275 793.7,247.875 800.675,245.4 806.225,243.375 811.7,243.225 816.575,243.15 822.575,245.25 M726.65,156.975 Q641.825,119.025 622.025,111.225 609.575,106.35 598.925,103.95 587.75,101.475 578.675,101.775 559.625,102.45 545.075,115.275 529.4,128.925 521.825,146.925 513.8,166.125 517.7,184.275 521,199.875 532.625,209.625 538.475,214.5 543.725,216.525 560.675,205.875 577.55,205.275 M764.75,342.75 L757.1,387.225 Q757.625,388.05 757.025,387.6 L755.075,398.775 Q750.425,400.125 745.1,402.975 734.3,408.675 730.55,416.025 727.175,422.625 726.725,428.625 726.425,432.45 727.325,436.05 730.1,447.525 745.025,450.225 758.9,452.775 768.725,446.025 773.975,442.35 779.525,435.75 783.95,431.025 786.35,429.45 787.175,428.925 788.075,428.625 790.25,427.95 792.8,428.625 794.6,429.075 796.55,430.275 803,434.025 804.575,433.425 804.875,433.35 808.025,428.775 810.425,425.4 807.05,420.225 804.575,416.4 800.675,413.7 800.375,413.475 800.075,413.25 795.425,411.375 793.55,410.025 790.325,407.625 790.025,400.725 789.725,393.9 798.875,353.625 L808.025,314.775 811.325,314.925 Q816.575,315.075 826.55,314.775 M741.8,336.825 L734.975,333 Q734.075,333.375 733.25,333.75 728.45,335.775 726.05,336.825 730.85,351.375 747.275,374.025 751.025,379.2 756.05,385.8 756.725,386.7 757.1,387.225 L757.025,387.6 Q756.65,387.375 756.05,386.775 M726.05,336.825 Q719.975,339.6 717.2,342 713.75,344.925 713.075,348.9 711.725,356.4 720.05,368.325 730.4,383.1 752.525,398.775 M733.25,333.75 L732.725,331.725 734.975,333 Q736.4,332.4 738.05,331.725 M543.725,216.525 Q539.6,219.075 535.475,222.225 521.675,232.95 515.15,242.25 511.175,247.95 509.9,253.125 506.375,266.775 506.9,278.775 507.425,290.775 510.725,305.55 512.675,310.275 515.15,315.075 515.9,316.575 516.725,318.075 527.675,338.4 542.975,352.725 559.325,368.025 580.925,373.575 590.825,376.05 598.925,376.2 604.4,376.275 609.05,375.225 608.45,375.9 646.925,405.375 662.15,417.075 677.45,428.625 681.5,431.7 685.55,434.775 L676.55,448.275 M651.05,410.25 L640.55,421.725" test="RightBum"/>
    </g>
    <g id="LeftBum">
      <path id="Layer1_0_1_STROKES" stroke="#FEB7AE" stroke-width="3" stroke-linejoin="round" stroke-linecap="round" fill="none" d="M85.7,150 Q107.225,136.05 129.725,125.025 152.075,114.15 173.15,107.175 200.375,98.175 218.6,98.25 241.55,98.325 258.125,103.95 277.625,110.625 292.7,126.3 299.9,133.725 301.7,149.85 303.05,161.625 301.4,175.8 300.125,186.525 293,195.675 288.8,201 279.125,211.95 280.625,213.45 281.975,214.875 288.575,221.925 293.75,231.3 297.275,237.675 299.15,245.775 300.8,252.9 301.25,261.375 301.925,274.575 299.6,287.7 299.075,290.475 298.4,293.25 289.4,332.775 266.75,356.25 249.35,374.25 226.625,385.5 226.325,385.65 209,393.6 198.95,398.25 192.725,402.3 183.425,408.3 176.225,413.925 169.7,419.025 161.75,426.3 154.925,432.45 152.525,439.5 149.6,447.975 154.7,454.05 156.275,456 161.675,458.775 167.075,461.55 166.7,460.275 M196.25,199.8 Q210.725,188.925 231.95,189.6 252.65,190.275 266.75,201.3 274.1,207.075 279.125,211.95 M-25.75,243.3 Q-20.275,243.15 -12.4,244.275 -7.9,244.95 .95,246.375 7.325,247.2 16.25,248.025 21.35,248.475 31.55,249.3 38.15,249.825 46.55,251.925 48.2,252.3 51.425,252.525 53.6,252.6 54.8,253.425 57.65,255.375 64.25,269.25 71.15,283.8 74.75,294.6 77.825,303.9 81.875,321.075 83.675,328.65 87.8,339.075 93.05,352.35 94.475,356.775 94.925,358.125 96.95,366.975 99.05,375.525 100.25,376.8 102.275,379.05 101.9,380.025 101.9,380.175 104.9,380.775 109.775,381.75 115.85,387.075 121.925,392.25 125.45,398.55 129.425,405.375 128.15,409.95 126.65,415.275 118.25,416.025 114.125,418.125 107.075,416.55 99.2,414.225 95.675,413.775 88.4,412.8 78.95,414.675 72.875,415.65 70.025,416.25 65.3,417.3 61.55,419.4 58.775,421.05 55.175,423.825 53.15,425.4 49.175,428.625 47.075,425.55 49.625,418.875 53.075,411.675 54.125,409.35 54.95,407.475 57.725,404.85 60.425,402.15 61.1,400.65 62.375,397.95 60.65,390.075 59.975,386.925 57.8,379.35 56.225,373.5 52.325,366.75 50,362.775 44.75,355.125 M59.75,397.275 Q59.225,397.65 51.275,401.1 44.975,403.8 43.175,406.575 40.175,411.375 39.65,415.65 38.825,422.775 42.2,436.275 42.575,437.775 43.025,439.2 44,442.275 45.35,445.2 46.925,448.725 49.1,452.025 50.45,454.125 59.75,465.75 M44.75,355.125 Q43.475,353.175 38.825,347.325 35.15,342.525 33.2,339.225 31.85,336.45 31.025,334.95 29.6,332.1 28.25,331.275 26.675,330.3 22.85,330.225 18.65,330.375 17.225,330.3 12.725,330.075 5.975,330.525 -4.6,331.275 -5.275,331.275 -22.9,332.1 -34.3,330.375 -37.225,330 -44.5,327.225 -50.875,324.75 -54.775,324.75 M75.2,465.3 Q71.75,465 68.15,461.325 65.15,458.25 63.2,454.275 61.025,449.7 60.125,445.35 60.125,445.275 60.125,445.2 59.375,441.825 59.6,439.2 59.675,437.625 60.125,436.35 62.6,428.775 69.8,424.05 73.775,421.425 84.2,417.3" test="LeftBum"/>
      <path id="Layer1_0_2_STROKES" stroke="#0FF" stroke-width="3" stroke-linejoin="round" stroke-linecap="round" fill="none" d="M85.7,150 L91.475,153.6 Q98.525,158.175 104.675,163.65 124.475,181.05 128.375,199.8 131.6,214.8 139.025,248.325 144.425,278.775 142.25,303.3 139.175,336.825 137.45,346.275 134.75,361.2 128.375,369.75 L116.75,385.8 M44.75,355.125 L42.2,392.25 59.75,397.275 M-33.25,196.275 Q-21.55,193.2 6.725,183.15 31.775,174.3 46.7,171.075 54.425,169.425 60.8,166.2 65.75,163.65 73.4,158.325 79.55,154.05 85.7,150" test="LeftBum"/>
    </g>
  </g>
</svg>