<?xml version="1.0" encoding="utf-8"?>
<svg id="EdithAnim08" image-rendering="inherit" baseProfile="basic" version="1.1" x="0px" y="0px" width="800" height="600" xmlns="http://www.w3.org/2000/svg" xmlns:xlink="http://www.w3.org/1999/xlink">
  <g id="No-Rear-To-Rearf168r1" overflow="visible">
    <g id="RightBum">
      <path id="Layer2_0_1_STROKES" stroke="#F0F" stroke-width="3" stroke-linejoin="round" stroke-linecap="round" fill="none" d="M745.275,168.075 L753.525,200.475 Q761.4,236.1 759.525,252.525 757.35,271.5 753.225,292.875 749.4,312.825 745.275,327.525 742.65,336.9 739.95,346.875 739.425,348.225 738.975,348.825 L763.5,342.75 M806.775,193.275 L725.4,156.975 M806.775,327.525 L835.275,323.775 M732,333.75 L732.75,336.825 Q734.4,342.825 736.275,347.1 737.7,350.325 738.975,348.825" test="RightBum"/>
      <path id="Layer2_0_2_STROKES" stroke="#F90" stroke-width="3" stroke-linejoin="round" stroke-linecap="round" fill="none" d="M763.5,342.75 L765.825,329.25 Q766.725,324 767.475,310.95 768.225,296.475 769.2,289.35 772.575,262.875 785.325,253.275 792.45,247.875 799.425,245.4 804.975,243.375 810.45,243.225 815.325,243.15 821.325,245.25 M725.4,156.975 Q640.575,119.025 620.775,111.225 608.325,106.35 597.675,103.95 586.5,101.475 577.425,101.775 558.375,102.45 543.825,115.275 528.15,128.925 520.575,146.925 512.55,166.125 516.45,184.275 519.75,199.875 531.375,209.625 537.225,214.5 542.475,216.525 559.425,205.875 576.3,205.275 M763.5,342.75 L755.85,387.225 Q756.375,388.05 755.775,387.6 L753.825,398.775 Q749.175,400.125 743.85,402.975 733.05,408.675 729.3,416.025 725.925,422.625 725.475,428.625 725.175,432.45 726.075,436.05 728.85,447.525 743.775,450.225 757.65,452.775 767.475,446.025 772.725,442.35 778.275,435.75 782.7,431.025 785.1,429.45 785.925,428.925 786.825,428.625 789,427.95 791.55,428.625 793.35,429.075 795.3,430.275 801.75,434.025 803.325,433.425 803.625,433.35 806.775,428.775 809.175,425.4 805.8,420.225 803.325,416.4 799.425,413.7 799.125,413.475 798.825,413.25 794.175,411.375 792.3,410.025 789.075,407.625 788.775,400.725 788.475,393.9 797.625,353.625 L806.775,314.775 810.075,314.925 Q815.325,315.075 825.3,314.775 M740.55,336.825 L733.725,333 Q732.825,333.375 732,333.75 727.2,335.775 724.8,336.825 729.6,351.375 746.025,374.025 749.775,379.2 754.8,385.8 755.475,386.7 755.85,387.225 L755.775,387.6 Q755.4,387.375 754.8,386.775 M724.8,336.825 Q718.725,339.6 715.95,342 712.5,344.925 711.825,348.9 710.475,356.4 718.8,368.325 729.15,383.1 751.275,398.775 M732,333.75 L731.475,331.725 733.725,333 Q735.15,332.4 736.8,331.725 M542.475,216.525 Q538.35,219.075 534.225,222.225 520.425,232.95 513.9,242.25 509.925,247.95 508.65,253.125 505.125,266.775 505.65,278.775 506.175,290.775 509.475,305.55 511.425,310.275 513.9,315.075 514.65,316.575 515.475,318.075 526.425,338.4 541.725,352.725 558.075,368.025 579.675,373.575 589.575,376.05 597.675,376.2 603.15,376.275 607.8,375.225 607.2,375.9 645.675,405.375 660.9,417.075 676.2,428.625 680.25,431.7 684.3,434.775 L675.3,448.275 M649.8,410.25 L639.3,421.725" test="RightBum"/>
    </g>
    <g id="LeftBum">
      <path id="Layer1_0_1_STROKES" stroke="#FEB7AE" stroke-width="3" stroke-linejoin="round" stroke-linecap="round" fill="none" d="M87,150 Q108.525,136.05 131.025,125.025 153.375,114.15 174.45,107.175 201.675,98.175 219.9,98.25 242.85,98.325 259.425,103.95 278.925,110.625 294,126.3 301.2,133.725 303,149.85 304.35,161.625 302.7,175.8 301.425,186.525 294.3,195.675 290.1,201 280.425,211.95 281.925,213.45 283.275,214.875 289.875,221.925 295.05,231.3 298.575,237.675 300.45,245.775 302.1,252.9 302.55,261.375 303.225,274.575 300.9,287.7 300.375,290.475 299.7,293.25 290.7,332.775 268.05,356.25 250.65,374.25 227.925,385.5 227.625,385.65 210.3,393.6 200.25,398.25 194.025,402.3 184.725,408.3 177.525,413.925 171,419.025 163.05,426.3 156.225,432.45 153.825,439.5 150.9,447.975 156,454.05 157.575,456 162.975,458.775 168.375,461.55 168,460.275 M197.55,199.8 Q212.025,188.925 233.25,189.6 253.95,190.275 268.05,201.3 275.4,207.075 280.425,211.95 M-24.45,243.3 Q-18.975,243.15 -11.1,244.275 -6.6,244.95 2.25,246.375 8.625,247.2 17.55,248.025 22.65,248.475 32.85,249.3 39.45,249.825 47.85,251.925 49.5,252.3 52.725,252.525 54.9,252.6 56.1,253.425 58.95,255.375 65.55,269.25 72.45,283.8 76.05,294.6 79.125,303.9 83.175,321.075 84.975,328.65 89.1,339.075 94.35,352.35 95.775,356.775 96.225,358.125 98.25,366.975 100.35,375.525 101.55,376.8 103.575,379.05 103.2,380.025 103.2,380.175 106.2,380.775 111.075,381.75 117.15,387.075 123.225,392.25 126.75,398.55 130.725,405.375 129.45,409.95 127.95,415.275 119.55,416.025 115.425,418.125 108.375,416.55 100.5,414.225 96.975,413.775 89.7,412.8 80.25,414.675 74.175,415.65 71.325,416.25 66.6,417.3 62.85,419.4 60.075,421.05 56.475,423.825 54.45,425.4 50.475,428.625 48.375,425.55 50.925,418.875 54.375,411.675 55.425,409.35 56.25,407.475 59.025,404.85 61.725,402.15 62.4,400.65 63.675,397.95 61.95,390.075 61.275,386.925 59.1,379.35 57.525,373.5 53.625,366.75 51.3,362.775 46.05,355.125 M61.05,397.275 Q60.525,397.65 52.575,401.1 46.275,403.8 44.475,406.575 41.475,411.375 40.95,415.65 40.125,422.775 43.5,436.275 43.875,437.775 44.325,439.2 45.3,442.275 46.65,445.2 48.225,448.725 50.4,452.025 51.75,454.125 61.05,465.75 M46.05,355.125 Q44.775,353.175 40.125,347.325 36.45,342.525 34.5,339.225 33.15,336.45 32.325,334.95 30.9,332.1 29.55,331.275 27.975,330.3 24.15,330.225 19.95,330.375 18.525,330.3 14.025,330.075 7.275,330.525 -3.3,331.275 -3.975,331.275 -21.6,332.1 -33,330.375 -35.925,330 -43.2,327.225 -49.575,324.75 -53.475,324.75 M76.5,465.3 Q73.05,465 69.45,461.325 66.45,458.25 64.5,454.275 62.325,449.7 61.425,445.35 61.425,445.275 61.425,445.2 60.675,441.825 60.9,439.2 60.975,437.625 61.425,436.35 63.9,428.775 71.1,424.05 75.075,421.425 85.5,417.3" test="LeftBum"/>
      <path id="Layer1_0_2_STROKES" stroke="#0FF" stroke-width="3" stroke-linejoin="round" stroke-linecap="round" fill="none" d="M87,150 L92.775,153.6 Q99.825,158.175 105.975,163.65 125.775,181.05 129.675,199.8 132.9,214.8 140.325,248.325 145.725,278.775 143.55,303.3 140.475,336.825 138.75,346.275 136.05,361.2 129.675,369.75 L118.05,385.8 M46.05,355.125 L43.5,392.25 61.05,397.275 M-31.95,196.275 Q-20.25,193.2 8.025,183.15 33.075,174.3 48,171.075 55.725,169.425 62.1,166.2 67.05,163.65 74.7,158.325 80.85,154.05 87,150" test="LeftBum"/>
    </g>
  </g>
</svg>