<?xml version="1.0" encoding="utf-8"?>
<svg id="EdithAnim08" image-rendering="inherit" baseProfile="basic" version="1.1" x="0px" y="0px" width="800" height="600" xmlns="http://www.w3.org/2000/svg" xmlns:xlink="http://www.w3.org/1999/xlink">
  <g id="No-Rear-To-Rearf169r1" overflow="visible">
    <g id="RightBum">
      <path id="Layer2_0_1_STROKES" stroke="#F0F" stroke-width="3" stroke-linejoin="round" stroke-linecap="round" fill="none" d="M744.075,168.075 L752.325,200.475 Q760.2,236.1 758.325,252.525 756.15,271.5 752.025,292.875 748.2,312.825 744.075,327.525 741.45,336.9 738.75,346.875 738.225,348.225 737.775,348.825 L762.3,342.75 M805.575,193.275 L724.2,156.975 M805.575,327.525 L834.075,323.775 M730.8,333.75 L731.55,336.825 Q733.2,342.825 735.075,347.1 736.5,350.325 737.775,348.825" test="RightBum"/>
      <path id="Layer2_0_2_STROKES" stroke="#F90" stroke-width="3" stroke-linejoin="round" stroke-linecap="round" fill="none" d="M762.3,342.75 L764.625,329.25 Q765.525,324 766.275,310.95 767.025,296.475 768,289.35 771.375,262.875 784.125,253.275 791.25,247.875 798.225,245.4 803.775,243.375 809.25,243.225 814.125,243.15 820.125,245.25 M724.2,156.975 Q639.375,119.025 619.575,111.225 607.125,106.35 596.475,103.95 585.3,101.475 576.225,101.775 557.175,102.45 542.625,115.275 526.95,128.925 519.375,146.925 511.35,166.125 515.25,184.275 518.55,199.875 530.175,209.625 536.025,214.5 541.275,216.525 558.225,205.875 575.1,205.275 M762.3,342.75 L754.65,387.225 Q755.175,388.05 754.575,387.6 L752.625,398.775 Q747.975,400.125 742.65,402.975 731.85,408.675 728.1,416.025 724.725,422.625 724.275,428.625 723.975,432.45 724.875,436.05 727.65,447.525 742.575,450.225 756.45,452.775 766.275,446.025 771.525,442.35 777.075,435.75 781.5,431.025 783.9,429.45 784.725,428.925 785.625,428.625 787.8,427.95 790.35,428.625 792.15,429.075 794.1,430.275 800.55,434.025 802.125,433.425 802.425,433.35 805.575,428.775 807.975,425.4 804.6,420.225 802.125,416.4 798.225,413.7 797.925,413.475 797.625,413.25 792.975,411.375 791.1,410.025 787.875,407.625 787.575,400.725 787.275,393.9 796.425,353.625 L805.575,314.775 808.875,314.925 Q814.125,315.075 824.1,314.775 M739.35,336.825 L732.525,333 Q731.625,333.375 730.8,333.75 726,335.775 723.6,336.825 728.4,351.375 744.825,374.025 748.575,379.2 753.6,385.8 754.275,386.7 754.65,387.225 L754.575,387.6 Q754.2,387.375 753.6,386.775 M723.6,336.825 Q717.525,339.6 714.75,342 711.3,344.925 710.625,348.9 709.275,356.4 717.6,368.325 727.95,383.1 750.075,398.775 M730.8,333.75 L730.275,331.725 732.525,333 Q733.95,332.4 735.6,331.725 M541.275,216.525 Q537.15,219.075 533.025,222.225 519.225,232.95 512.7,242.25 508.725,247.95 507.45,253.125 503.925,266.775 504.45,278.775 504.975,290.775 508.275,305.55 510.225,310.275 512.7,315.075 513.45,316.575 514.275,318.075 525.225,338.4 540.525,352.725 556.875,368.025 578.475,373.575 588.375,376.05 596.475,376.2 601.95,376.275 606.6,375.225 606,375.9 644.475,405.375 659.7,417.075 675,428.625 679.05,431.7 683.1,434.775 L674.1,448.275 M648.6,410.25 L638.1,421.725" test="RightBum"/>
    </g>
    <g id="LeftBum">
      <path id="Layer1_0_1_STROKES" stroke="#FEB7AE" stroke-width="3" stroke-linejoin="round" stroke-linecap="round" fill="none" d="M88.2,150 Q109.725,136.05 132.225,125.025 154.575,114.15 175.65,107.175 202.875,98.175 221.1,98.25 244.05,98.325 260.625,103.95 280.125,110.625 295.2,126.3 302.4,133.725 304.2,149.85 305.55,161.625 303.9,175.8 302.625,186.525 295.5,195.675 291.3,201 281.625,211.95 283.125,213.45 284.475,214.875 291.075,221.925 296.25,231.3 299.775,237.675 301.65,245.775 303.3,252.9 303.75,261.375 304.425,274.575 302.1,287.7 301.575,290.475 300.9,293.25 291.9,332.775 269.25,356.25 251.85,374.25 229.125,385.5 228.825,385.65 211.5,393.6 201.45,398.25 195.225,402.3 185.925,408.3 178.725,413.925 172.2,419.025 164.25,426.3 157.425,432.45 155.025,439.5 152.1,447.975 157.2,454.05 158.775,456 164.175,458.775 169.575,461.55 169.2,460.275 M198.75,199.8 Q213.225,188.925 234.45,189.6 255.15,190.275 269.25,201.3 276.6,207.075 281.625,211.95 M-23.25,243.3 Q-17.775,243.15 -9.9,244.275 -5.4,244.95 3.45,246.375 9.825,247.2 18.75,248.025 23.85,248.475 34.05,249.3 40.65,249.825 49.05,251.925 50.7,252.3 53.925,252.525 56.1,252.6 57.3,253.425 60.15,255.375 66.75,269.25 73.65,283.8 77.25,294.6 80.325,303.9 84.375,321.075 86.175,328.65 90.3,339.075 95.55,352.35 96.975,356.775 97.425,358.125 99.45,366.975 101.55,375.525 102.75,376.8 104.775,379.05 104.4,380.025 104.4,380.175 107.4,380.775 112.275,381.75 118.35,387.075 124.425,392.25 127.95,398.55 131.925,405.375 130.65,409.95 129.15,415.275 120.75,416.025 116.625,418.125 109.575,416.55 101.7,414.225 98.175,413.775 90.9,412.8 81.45,414.675 75.375,415.65 72.525,416.25 67.8,417.3 64.05,419.4 61.275,421.05 57.675,423.825 55.65,425.4 51.675,428.625 49.575,425.55 52.125,418.875 55.575,411.675 56.625,409.35 57.45,407.475 60.225,404.85 62.925,402.15 63.6,400.65 64.875,397.95 63.15,390.075 62.475,386.925 60.3,379.35 58.725,373.5 54.825,366.75 52.5,362.775 47.25,355.125 M62.25,397.275 Q61.725,397.65 53.775,401.1 47.475,403.8 45.675,406.575 42.675,411.375 42.15,415.65 41.325,422.775 44.7,436.275 45.075,437.775 45.525,439.2 46.5,442.275 47.85,445.2 49.425,448.725 51.6,452.025 52.95,454.125 62.25,465.75 M47.25,355.125 Q45.975,353.175 41.325,347.325 37.65,342.525 35.7,339.225 34.35,336.45 33.525,334.95 32.1,332.1 30.75,331.275 29.175,330.3 25.35,330.225 21.15,330.375 19.725,330.3 15.225,330.075 8.475,330.525 -2.1,331.275 -2.775,331.275 -20.4,332.1 -31.8,330.375 -34.725,330 -42,327.225 -48.375,324.75 -52.275,324.75 M77.7,465.3 Q74.25,465 70.65,461.325 67.65,458.25 65.7,454.275 63.525,449.7 62.625,445.35 62.625,445.275 62.625,445.2 61.875,441.825 62.1,439.2 62.175,437.625 62.625,436.35 65.1,428.775 72.3,424.05 76.275,421.425 86.7,417.3" test="LeftBum"/>
      <path id="Layer1_0_2_STROKES" stroke="#0FF" stroke-width="3" stroke-linejoin="round" stroke-linecap="round" fill="none" d="M88.2,150 L93.975,153.6 Q101.025,158.175 107.175,163.65 126.975,181.05 130.875,199.8 134.1,214.8 141.525,248.325 146.925,278.775 144.75,303.3 141.675,336.825 139.95,346.275 137.25,361.2 130.875,369.75 L119.25,385.8 M47.25,355.125 L44.7,392.25 62.25,397.275 M-30.75,196.275 Q-19.05,193.2 9.225,183.15 34.275,174.3 49.2,171.075 56.925,169.425 63.3,166.2 68.25,163.65 75.9,158.325 82.05,154.05 88.2,150" test="LeftBum"/>
    </g>
  </g>
</svg>