<?xml version="1.0" encoding="utf-8"?>
<svg id="EdithAnim08" image-rendering="inherit" baseProfile="basic" version="1.1" x="0px" y="0px" width="800" height="600" xmlns="http://www.w3.org/2000/svg" xmlns:xlink="http://www.w3.org/1999/xlink">
  <g id="No-Rear-To-Rearf171r1" overflow="visible">
    <g id="RightBum">
      <path id="Layer2_0_1_STROKES" stroke="#F0F" stroke-width="3" stroke-linejoin="round" stroke-linecap="round" fill="none" d="M741.675,168.075 L749.925,200.475 Q757.8,236.1 755.925,252.525 753.75,271.5 749.625,292.875 745.8,312.825 741.675,327.525 739.05,336.9 736.35,346.875 735.825,348.225 735.375,348.825 L759.9,342.75 M803.175,193.275 L721.8,156.975 M803.175,327.525 L831.675,323.775 M728.4,333.75 L729.15,336.825 Q730.8,342.825 732.675,347.1 734.1,350.325 735.375,348.825" test="RightBum"/>
      <path id="Layer2_0_2_STROKES" stroke="#F90" stroke-width="3" stroke-linejoin="round" stroke-linecap="round" fill="none" d="M759.9,342.75 L762.225,329.25 Q763.125,324 763.875,310.95 764.625,296.475 765.6,289.35 768.975,262.875 781.725,253.275 788.85,247.875 795.825,245.4 801.375,243.375 806.85,243.225 811.725,243.15 817.725,245.25 M721.8,156.975 Q636.975,119.025 617.175,111.225 604.725,106.35 594.075,103.95 582.9,101.475 573.825,101.775 554.775,102.45 540.225,115.275 524.55,128.925 516.975,146.925 508.95,166.125 512.85,184.275 516.15,199.875 527.775,209.625 533.625,214.5 538.875,216.525 555.825,205.875 572.7,205.275 M759.9,342.75 L752.25,387.225 Q752.775,388.05 752.175,387.6 L750.225,398.775 Q745.575,400.125 740.25,402.975 729.45,408.675 725.7,416.025 722.325,422.625 721.875,428.625 721.575,432.45 722.475,436.05 725.25,447.525 740.175,450.225 754.05,452.775 763.875,446.025 769.125,442.35 774.675,435.75 779.1,431.025 781.5,429.45 782.325,428.925 783.225,428.625 785.4,427.95 787.95,428.625 789.75,429.075 791.7,430.275 798.15,434.025 799.725,433.425 800.025,433.35 803.175,428.775 805.575,425.4 802.2,420.225 799.725,416.4 795.825,413.7 795.525,413.475 795.225,413.25 790.575,411.375 788.7,410.025 785.475,407.625 785.175,400.725 784.875,393.9 794.025,353.625 L803.175,314.775 806.475,314.925 Q811.725,315.075 821.7,314.775 M736.95,336.825 L730.125,333 Q729.225,333.375 728.4,333.75 723.6,335.775 721.2,336.825 726,351.375 742.425,374.025 746.175,379.2 751.2,385.8 751.875,386.7 752.25,387.225 L752.175,387.6 Q751.8,387.375 751.2,386.775 M721.2,336.825 Q715.125,339.6 712.35,342 708.9,344.925 708.225,348.9 706.875,356.4 715.2,368.325 725.55,383.1 747.675,398.775 M728.4,333.75 L727.875,331.725 730.125,333 Q731.55,332.4 733.2,331.725 M538.875,216.525 Q534.75,219.075 530.625,222.225 516.825,232.95 510.3,242.25 506.325,247.95 505.05,253.125 501.525,266.775 502.05,278.775 502.575,290.775 505.875,305.55 507.825,310.275 510.3,315.075 511.05,316.575 511.875,318.075 522.825,338.4 538.125,352.725 554.475,368.025 576.075,373.575 585.975,376.05 594.075,376.2 599.55,376.275 604.2,375.225 603.6,375.9 642.075,405.375 657.3,417.075 672.6,428.625 676.65,431.7 680.7,434.775 L671.7,448.275 M646.2,410.25 L635.7,421.725" test="RightBum"/>
    </g>
    <g id="LeftBum">
      <path id="Layer1_0_1_STROKES" stroke="#FEB7AE" stroke-width="3" stroke-linejoin="round" stroke-linecap="round" fill="none" d="M90.7,150 Q112.225,136.05 134.725,125.025 157.075,114.15 178.15,107.175 205.375,98.175 223.6,98.25 246.55,98.325 263.125,103.95 282.625,110.625 297.7,126.3 304.9,133.725 306.7,149.85 308.05,161.625 306.4,175.8 305.125,186.525 298,195.675 293.8,201 284.125,211.95 285.625,213.45 286.975,214.875 293.575,221.925 298.75,231.3 302.275,237.675 304.15,245.775 305.8,252.9 306.25,261.375 306.925,274.575 304.6,287.7 304.075,290.475 303.4,293.25 294.4,332.775 271.75,356.25 254.35,374.25 231.625,385.5 231.325,385.65 214,393.6 203.95,398.25 197.725,402.3 188.425,408.3 181.225,413.925 174.7,419.025 166.75,426.3 159.925,432.45 157.525,439.5 154.6,447.975 159.7,454.05 161.275,456 166.675,458.775 172.075,461.55 171.7,460.275 M201.25,199.8 Q215.725,188.925 236.95,189.6 257.65,190.275 271.75,201.3 279.1,207.075 284.125,211.95 M-20.75,243.3 Q-15.275,243.15 -7.4,244.275 -2.9,244.95 5.95,246.375 12.325,247.2 21.25,248.025 26.35,248.475 36.55,249.3 43.15,249.825 51.55,251.925 53.2,252.3 56.425,252.525 58.6,252.6 59.8,253.425 62.65,255.375 69.25,269.25 76.15,283.8 79.75,294.6 82.825,303.9 86.875,321.075 88.675,328.65 92.8,339.075 98.05,352.35 99.475,356.775 99.925,358.125 101.95,366.975 104.05,375.525 105.25,376.8 107.275,379.05 106.9,380.025 106.9,380.175 109.9,380.775 114.775,381.75 120.85,387.075 126.925,392.25 130.45,398.55 134.425,405.375 133.15,409.95 131.65,415.275 123.25,416.025 119.125,418.125 112.075,416.55 104.2,414.225 100.675,413.775 93.4,412.8 83.95,414.675 77.875,415.65 75.025,416.25 70.3,417.3 66.55,419.4 63.775,421.05 60.175,423.825 58.15,425.4 54.175,428.625 52.075,425.55 54.625,418.875 58.075,411.675 59.125,409.35 59.95,407.475 62.725,404.85 65.425,402.15 66.1,400.65 67.375,397.95 65.65,390.075 64.975,386.925 62.8,379.35 61.225,373.5 57.325,366.75 55,362.775 49.75,355.125 M64.75,397.275 Q64.225,397.65 56.275,401.1 49.975,403.8 48.175,406.575 45.175,411.375 44.65,415.65 43.825,422.775 47.2,436.275 47.575,437.775 48.025,439.2 49,442.275 50.35,445.2 51.925,448.725 54.1,452.025 55.45,454.125 64.75,465.75 M49.75,355.125 Q48.475,353.175 43.825,347.325 40.15,342.525 38.2,339.225 36.85,336.45 36.025,334.95 34.6,332.1 33.25,331.275 31.675,330.3 27.85,330.225 23.65,330.375 22.225,330.3 17.725,330.075 10.975,330.525 .4,331.275 -.275,331.275 -17.9,332.1 -29.3,330.375 -32.225,330 -39.5,327.225 -45.875,324.75 -49.775,324.75 M80.2,465.3 Q76.75,465 73.15,461.325 70.15,458.25 68.2,454.275 66.025,449.7 65.125,445.35 65.125,445.275 65.125,445.2 64.375,441.825 64.6,439.2 64.675,437.625 65.125,436.35 67.6,428.775 74.8,424.05 78.775,421.425 89.2,417.3" test="LeftBum"/>
      <path id="Layer1_0_2_STROKES" stroke="#0FF" stroke-width="3" stroke-linejoin="round" stroke-linecap="round" fill="none" d="M90.7,150 L96.475,153.6 Q103.525,158.175 109.675,163.65 129.475,181.05 133.375,199.8 136.6,214.8 144.025,248.325 149.425,278.775 147.25,303.3 144.175,336.825 142.45,346.275 139.75,361.2 133.375,369.75 L121.75,385.8 M49.75,355.125 L47.2,392.25 64.75,397.275 M-28.25,196.275 Q-16.55,193.2 11.725,183.15 36.775,174.3 51.7,171.075 59.425,169.425 65.8,166.2 70.75,163.65 78.4,158.325 84.55,154.05 90.7,150" test="LeftBum"/>
    </g>
  </g>
</svg>