<?xml version="1.0" encoding="utf-8"?>
<svg id="EdithAnim08" image-rendering="inherit" baseProfile="basic" version="1.1" x="0px" y="0px" width="800" height="600" xmlns="http://www.w3.org/2000/svg" xmlns:xlink="http://www.w3.org/1999/xlink">
  <g id="No-Rear-To-Rearf172r1" overflow="visible">
    <g id="RightBum">
      <path id="Layer2_0_1_STROKES" stroke="#F0F" stroke-width="3" stroke-linejoin="round" stroke-linecap="round" fill="none" d="M740.425,168.075 L748.675,200.475 Q756.55,236.1 754.675,252.525 752.5,271.5 748.375,292.875 744.55,312.825 740.425,327.525 737.8,336.9 735.1,346.875 734.575,348.225 734.125,348.825 L758.65,342.75 M801.925,193.275 L720.55,156.975 M801.925,327.525 L830.425,323.775 M727.15,333.75 L727.9,336.825 Q729.55,342.825 731.425,347.1 732.85,350.325 734.125,348.825" test="RightBum"/>
      <path id="Layer2_0_2_STROKES" stroke="#F90" stroke-width="3" stroke-linejoin="round" stroke-linecap="round" fill="none" d="M758.65,342.75 L760.975,329.25 Q761.875,324 762.625,310.95 763.375,296.475 764.35,289.35 767.725,262.875 780.475,253.275 787.6,247.875 794.575,245.4 800.125,243.375 805.6,243.225 810.475,243.15 816.475,245.25 M720.55,156.975 Q635.725,119.025 615.925,111.225 603.475,106.35 592.825,103.95 581.65,101.475 572.575,101.775 553.525,102.45 538.975,115.275 523.3,128.925 515.725,146.925 507.7,166.125 511.6,184.275 514.9,199.875 526.525,209.625 532.375,214.5 537.625,216.525 554.575,205.875 571.45,205.275 M758.65,342.75 L751,387.225 Q751.525,388.05 750.925,387.6 L748.975,398.775 Q744.325,400.125 739,402.975 728.2,408.675 724.45,416.025 721.075,422.625 720.625,428.625 720.325,432.45 721.225,436.05 724,447.525 738.925,450.225 752.8,452.775 762.625,446.025 767.875,442.35 773.425,435.75 777.85,431.025 780.25,429.45 781.075,428.925 781.975,428.625 784.15,427.95 786.7,428.625 788.5,429.075 790.45,430.275 796.9,434.025 798.475,433.425 798.775,433.35 801.925,428.775 804.325,425.4 800.95,420.225 798.475,416.4 794.575,413.7 794.275,413.475 793.975,413.25 789.325,411.375 787.45,410.025 784.225,407.625 783.925,400.725 783.625,393.9 792.775,353.625 L801.925,314.775 805.225,314.925 Q810.475,315.075 820.45,314.775 M735.7,336.825 L728.875,333 Q727.975,333.375 727.15,333.75 722.35,335.775 719.95,336.825 724.75,351.375 741.175,374.025 744.925,379.2 749.95,385.8 750.625,386.7 751,387.225 L750.925,387.6 Q750.55,387.375 749.95,386.775 M719.95,336.825 Q713.875,339.6 711.1,342 707.65,344.925 706.975,348.9 705.625,356.4 713.95,368.325 724.3,383.1 746.425,398.775 M727.15,333.75 L726.625,331.725 728.875,333 Q730.3,332.4 731.95,331.725 M537.625,216.525 Q533.5,219.075 529.375,222.225 515.575,232.95 509.05,242.25 505.075,247.95 503.8,253.125 500.275,266.775 500.8,278.775 501.325,290.775 504.625,305.55 506.575,310.275 509.05,315.075 509.8,316.575 510.625,318.075 521.575,338.4 536.875,352.725 553.225,368.025 574.825,373.575 584.725,376.05 592.825,376.2 598.3,376.275 602.95,375.225 602.35,375.9 640.825,405.375 656.05,417.075 671.35,428.625 675.4,431.7 679.45,434.775 L670.45,448.275 M644.95,410.25 L634.45,421.725" test="RightBum"/>
    </g>
    <g id="LeftBum">
      <path id="Layer1_0_1_STROKES" stroke="#FEB7AE" stroke-width="3" stroke-linejoin="round" stroke-linecap="round" fill="none" d="M91.9,150 Q113.425,136.05 135.925,125.025 158.275,114.15 179.35,107.175 206.575,98.175 224.8,98.25 247.75,98.325 264.325,103.95 283.825,110.625 298.9,126.3 306.1,133.725 307.9,149.85 309.25,161.625 307.6,175.8 306.325,186.525 299.2,195.675 295,201 285.325,211.95 286.825,213.45 288.175,214.875 294.775,221.925 299.95,231.3 303.475,237.675 305.35,245.775 307,252.9 307.45,261.375 308.125,274.575 305.8,287.7 305.275,290.475 304.6,293.25 295.6,332.775 272.95,356.25 255.55,374.25 232.825,385.5 232.525,385.65 215.2,393.6 205.15,398.25 198.925,402.3 189.625,408.3 182.425,413.925 175.9,419.025 167.95,426.3 161.125,432.45 158.725,439.5 155.8,447.975 160.9,454.05 162.475,456 167.875,458.775 173.275,461.55 172.9,460.275 M202.45,199.8 Q216.925,188.925 238.15,189.6 258.85,190.275 272.95,201.3 280.3,207.075 285.325,211.95 M-19.55,243.3 Q-14.075,243.15 -6.2,244.275 -1.7,244.95 7.15,246.375 13.525,247.2 22.45,248.025 27.55,248.475 37.75,249.3 44.35,249.825 52.75,251.925 54.4,252.3 57.625,252.525 59.8,252.6 61,253.425 63.85,255.375 70.45,269.25 77.35,283.8 80.95,294.6 84.025,303.9 88.075,321.075 89.875,328.65 94,339.075 99.25,352.35 100.675,356.775 101.125,358.125 103.15,366.975 105.25,375.525 106.45,376.8 108.475,379.05 108.1,380.025 108.1,380.175 111.1,380.775 115.975,381.75 122.05,387.075 128.125,392.25 131.65,398.55 135.625,405.375 134.35,409.95 132.85,415.275 124.45,416.025 120.325,418.125 113.275,416.55 105.4,414.225 101.875,413.775 94.6,412.8 85.15,414.675 79.075,415.65 76.225,416.25 71.5,417.3 67.75,419.4 64.975,421.05 61.375,423.825 59.35,425.4 55.375,428.625 53.275,425.55 55.825,418.875 59.275,411.675 60.325,409.35 61.15,407.475 63.925,404.85 66.625,402.15 67.3,400.65 68.575,397.95 66.85,390.075 66.175,386.925 64,379.35 62.425,373.5 58.525,366.75 56.2,362.775 50.95,355.125 M65.95,397.275 Q65.425,397.65 57.475,401.1 51.175,403.8 49.375,406.575 46.375,411.375 45.85,415.65 45.025,422.775 48.4,436.275 48.775,437.775 49.225,439.2 50.2,442.275 51.55,445.2 53.125,448.725 55.3,452.025 56.65,454.125 65.95,465.75 M50.95,355.125 Q49.675,353.175 45.025,347.325 41.35,342.525 39.4,339.225 38.05,336.45 37.225,334.95 35.8,332.1 34.45,331.275 32.875,330.3 29.05,330.225 24.85,330.375 23.425,330.3 18.925,330.075 12.175,330.525 1.6,331.275 .925,331.275 -16.7,332.1 -28.1,330.375 -31.025,330 -38.3,327.225 -44.675,324.75 -48.575,324.75 M81.4,465.3 Q77.95,465 74.35,461.325 71.35,458.25 69.4,454.275 67.225,449.7 66.325,445.35 66.325,445.275 66.325,445.2 65.575,441.825 65.8,439.2 65.875,437.625 66.325,436.35 68.8,428.775 76,424.05 79.975,421.425 90.4,417.3" test="LeftBum"/>
      <path id="Layer1_0_2_STROKES" stroke="#0FF" stroke-width="3" stroke-linejoin="round" stroke-linecap="round" fill="none" d="M91.9,150 L97.675,153.6 Q104.725,158.175 110.875,163.65 130.675,181.05 134.575,199.8 137.8,214.8 145.225,248.325 150.625,278.775 148.45,303.3 145.375,336.825 143.65,346.275 140.95,361.2 134.575,369.75 L122.95,385.8 M50.95,355.125 L48.4,392.25 65.95,397.275 M-27.05,196.275 Q-15.35,193.2 12.925,183.15 37.975,174.3 52.9,171.075 60.625,169.425 67,166.2 71.95,163.65 79.6,158.325 85.75,154.05 91.9,150" test="LeftBum"/>
    </g>
  </g>
</svg>