<?xml version="1.0" encoding="utf-8"?>
<svg id="EdithAnim08" image-rendering="inherit" baseProfile="basic" version="1.1" x="0px" y="0px" width="800" height="600" xmlns="http://www.w3.org/2000/svg" xmlns:xlink="http://www.w3.org/1999/xlink">
  <g id="No-Rear-To-Rearf173r1" overflow="visible">
    <g id="RightBum">
      <path id="Layer2_0_1_STROKES" stroke="#F0F" stroke-width="3" stroke-linejoin="round" stroke-linecap="round" fill="none" d="M739.275,168.075 L747.525,200.475 Q755.4,236.1 753.525,252.525 751.35,271.5 747.225,292.875 743.4,312.825 739.275,327.525 736.65,336.9 733.95,346.875 733.425,348.225 732.975,348.825 L757.5,342.75 M800.775,193.275 L719.4,156.975 M800.775,327.525 L829.275,323.775 M726,333.75 L726.75,336.825 Q728.4,342.825 730.275,347.1 731.7,350.325 732.975,348.825" test="RightBum"/>
      <path id="Layer2_0_2_STROKES" stroke="#F90" stroke-width="3" stroke-linejoin="round" stroke-linecap="round" fill="none" d="M757.5,342.75 L759.825,329.25 Q760.725,324 761.475,310.95 762.225,296.475 763.2,289.35 766.575,262.875 779.325,253.275 786.45,247.875 793.425,245.4 798.975,243.375 804.45,243.225 809.325,243.15 815.325,245.25 M719.4,156.975 Q634.575,119.025 614.775,111.225 602.325,106.35 591.675,103.95 580.5,101.475 571.425,101.775 552.375,102.45 537.825,115.275 522.15,128.925 514.575,146.925 506.55,166.125 510.45,184.275 513.75,199.875 525.375,209.625 531.225,214.5 536.475,216.525 553.425,205.875 570.3,205.275 M757.5,342.75 L749.85,387.225 Q750.375,388.05 749.775,387.6 L747.825,398.775 Q743.175,400.125 737.85,402.975 727.05,408.675 723.3,416.025 719.925,422.625 719.475,428.625 719.175,432.45 720.075,436.05 722.85,447.525 737.775,450.225 751.65,452.775 761.475,446.025 766.725,442.35 772.275,435.75 776.7,431.025 779.1,429.45 779.925,428.925 780.825,428.625 783,427.95 785.55,428.625 787.35,429.075 789.3,430.275 795.75,434.025 797.325,433.425 797.625,433.35 800.775,428.775 803.175,425.4 799.8,420.225 797.325,416.4 793.425,413.7 793.125,413.475 792.825,413.25 788.175,411.375 786.3,410.025 783.075,407.625 782.775,400.725 782.475,393.9 791.625,353.625 L800.775,314.775 804.075,314.925 Q809.325,315.075 819.3,314.775 M734.55,336.825 L727.725,333 Q726.825,333.375 726,333.75 721.2,335.775 718.8,336.825 723.6,351.375 740.025,374.025 743.775,379.2 748.8,385.8 749.475,386.7 749.85,387.225 L749.775,387.6 Q749.4,387.375 748.8,386.775 M718.8,336.825 Q712.725,339.6 709.95,342 706.5,344.925 705.825,348.9 704.475,356.4 712.8,368.325 723.15,383.1 745.275,398.775 M726,333.75 L725.475,331.725 727.725,333 Q729.15,332.4 730.8,331.725 M536.475,216.525 Q532.35,219.075 528.225,222.225 514.425,232.95 507.9,242.25 503.925,247.95 502.65,253.125 499.125,266.775 499.65,278.775 500.175,290.775 503.475,305.55 505.425,310.275 507.9,315.075 508.65,316.575 509.475,318.075 520.425,338.4 535.725,352.725 552.075,368.025 573.675,373.575 583.575,376.05 591.675,376.2 597.15,376.275 601.8,375.225 601.2,375.9 639.675,405.375 654.9,417.075 670.2,428.625 674.25,431.7 678.3,434.775 L669.3,448.275 M643.8,410.25 L633.3,421.725" test="RightBum"/>
    </g>
    <g id="LeftBum">
      <path id="Layer1_0_1_STROKES" stroke="#FEB7AE" stroke-width="3" stroke-linejoin="round" stroke-linecap="round" fill="none" d="M93.1,150 Q114.625,136.05 137.125,125.025 159.475,114.15 180.55,107.175 207.775,98.175 226,98.25 248.95,98.325 265.525,103.95 285.025,110.625 300.1,126.3 307.3,133.725 309.1,149.85 310.45,161.625 308.8,175.8 307.525,186.525 300.4,195.675 296.2,201 286.525,211.95 288.025,213.45 289.375,214.875 295.975,221.925 301.15,231.3 304.675,237.675 306.55,245.775 308.2,252.9 308.65,261.375 309.325,274.575 307,287.7 306.475,290.475 305.8,293.25 296.8,332.775 274.15,356.25 256.75,374.25 234.025,385.5 233.725,385.65 216.4,393.6 206.35,398.25 200.125,402.3 190.825,408.3 183.625,413.925 177.1,419.025 169.15,426.3 162.325,432.45 159.925,439.5 157,447.975 162.1,454.05 163.675,456 169.075,458.775 174.475,461.55 174.1,460.275 M203.65,199.8 Q218.125,188.925 239.35,189.6 260.05,190.275 274.15,201.3 281.5,207.075 286.525,211.95 M-18.35,243.3 Q-12.875,243.15 -5,244.275 -.5,244.95 8.35,246.375 14.725,247.2 23.65,248.025 28.75,248.475 38.95,249.3 45.55,249.825 53.95,251.925 55.6,252.3 58.825,252.525 61,252.6 62.2,253.425 65.05,255.375 71.65,269.25 78.55,283.8 82.15,294.6 85.225,303.9 89.275,321.075 91.075,328.65 95.2,339.075 100.45,352.35 101.875,356.775 102.325,358.125 104.35,366.975 106.45,375.525 107.65,376.8 109.675,379.05 109.3,380.025 109.3,380.175 112.3,380.775 117.175,381.75 123.25,387.075 129.325,392.25 132.85,398.55 136.825,405.375 135.55,409.95 134.05,415.275 125.65,416.025 121.525,418.125 114.475,416.55 106.6,414.225 103.075,413.775 95.8,412.8 86.35,414.675 80.275,415.65 77.425,416.25 72.7,417.3 68.95,419.4 66.175,421.05 62.575,423.825 60.55,425.4 56.575,428.625 54.475,425.55 57.025,418.875 60.475,411.675 61.525,409.35 62.35,407.475 65.125,404.85 67.825,402.15 68.5,400.65 69.775,397.95 68.05,390.075 67.375,386.925 65.2,379.35 63.625,373.5 59.725,366.75 57.4,362.775 52.15,355.125 M67.15,397.275 Q66.625,397.65 58.675,401.1 52.375,403.8 50.575,406.575 47.575,411.375 47.05,415.65 46.225,422.775 49.6,436.275 49.975,437.775 50.425,439.2 51.4,442.275 52.75,445.2 54.325,448.725 56.5,452.025 57.85,454.125 67.15,465.75 M52.15,355.125 Q50.875,353.175 46.225,347.325 42.55,342.525 40.6,339.225 39.25,336.45 38.425,334.95 37,332.1 35.65,331.275 34.075,330.3 30.25,330.225 26.05,330.375 24.625,330.3 20.125,330.075 13.375,330.525 2.8,331.275 2.125,331.275 -15.5,332.1 -26.9,330.375 -29.825,330 -37.1,327.225 -43.475,324.75 -47.375,324.75 M82.6,465.3 Q79.15,465 75.55,461.325 72.55,458.25 70.6,454.275 68.425,449.7 67.525,445.35 67.525,445.275 67.525,445.2 66.775,441.825 67,439.2 67.075,437.625 67.525,436.35 70,428.775 77.2,424.05 81.175,421.425 91.6,417.3" test="LeftBum"/>
      <path id="Layer1_0_2_STROKES" stroke="#0FF" stroke-width="3" stroke-linejoin="round" stroke-linecap="round" fill="none" d="M93.1,150 L98.875,153.6 Q105.925,158.175 112.075,163.65 131.875,181.05 135.775,199.8 139,214.8 146.425,248.325 151.825,278.775 149.65,303.3 146.575,336.825 144.85,346.275 142.15,361.2 135.775,369.75 L124.15,385.8 M52.15,355.125 L49.6,392.25 67.15,397.275 M-25.85,196.275 Q-14.15,193.2 14.125,183.15 39.175,174.3 54.1,171.075 61.825,169.425 68.2,166.2 73.15,163.65 80.8,158.325 86.95,154.05 93.1,150" test="LeftBum"/>
    </g>
  </g>
</svg>