<?xml version="1.0" encoding="utf-8"?>
<svg id="EdithAnim08" image-rendering="inherit" baseProfile="basic" version="1.1" x="0px" y="0px" width="800" height="600" xmlns="http://www.w3.org/2000/svg" xmlns:xlink="http://www.w3.org/1999/xlink">
  <g id="No-Rear-To-Rearf177r1" overflow="visible">
    <g id="RightBum">
      <path id="Layer2_0_1_STROKES" stroke="#F0F" stroke-width="3" stroke-linejoin="round" stroke-linecap="round" fill="none" d="M734.525,168.075 L742.775,200.475 Q750.65,236.1 748.775,252.525 746.6,271.5 742.475,292.875 738.65,312.825 734.525,327.525 731.9,336.9 729.2,346.875 728.675,348.225 728.225,348.825 L752.75,342.75 M796.025,193.275 L714.65,156.975 M796.025,327.525 L824.525,323.775 M721.25,333.75 L722,336.825 Q723.65,342.825 725.525,347.1 726.95,350.325 728.225,348.825" test="RightBum"/>
      <path id="Layer2_0_2_STROKES" stroke="#F90" stroke-width="3" stroke-linejoin="round" stroke-linecap="round" fill="none" d="M752.75,342.75 L755.075,329.25 Q755.975,324 756.725,310.95 757.475,296.475 758.45,289.35 761.825,262.875 774.575,253.275 781.7,247.875 788.675,245.4 794.225,243.375 799.7,243.225 804.575,243.15 810.575,245.25 M714.65,156.975 Q629.825,119.025 610.025,111.225 597.575,106.35 586.925,103.95 575.75,101.475 566.675,101.775 547.625,102.45 533.075,115.275 517.4,128.925 509.825,146.925 501.8,166.125 505.7,184.275 509,199.875 520.625,209.625 526.475,214.5 531.725,216.525 548.675,205.875 565.55,205.275 M752.75,342.75 L745.1,387.225 Q745.625,388.05 745.025,387.6 L743.075,398.775 Q738.425,400.125 733.1,402.975 722.3,408.675 718.55,416.025 715.175,422.625 714.725,428.625 714.425,432.45 715.325,436.05 718.1,447.525 733.025,450.225 746.9,452.775 756.725,446.025 761.975,442.35 767.525,435.75 771.95,431.025 774.35,429.45 775.175,428.925 776.075,428.625 778.25,427.95 780.8,428.625 782.6,429.075 784.55,430.275 791,434.025 792.575,433.425 792.875,433.35 796.025,428.775 798.425,425.4 795.05,420.225 792.575,416.4 788.675,413.7 788.375,413.475 788.075,413.25 783.425,411.375 781.55,410.025 778.325,407.625 778.025,400.725 777.725,393.9 786.875,353.625 L796.025,314.775 799.325,314.925 Q804.575,315.075 814.55,314.775 M729.8,336.825 L722.975,333 Q722.075,333.375 721.25,333.75 716.45,335.775 714.05,336.825 718.85,351.375 735.275,374.025 739.025,379.2 744.05,385.8 744.725,386.7 745.1,387.225 L745.025,387.6 Q744.65,387.375 744.05,386.775 M714.05,336.825 Q707.975,339.6 705.2,342 701.75,344.925 701.075,348.9 699.725,356.4 708.05,368.325 718.4,383.1 740.525,398.775 M721.25,333.75 L720.725,331.725 722.975,333 Q724.4,332.4 726.05,331.725 M531.725,216.525 Q527.6,219.075 523.475,222.225 509.675,232.95 503.15,242.25 499.175,247.95 497.9,253.125 494.375,266.775 494.9,278.775 495.425,290.775 498.725,305.55 500.675,310.275 503.15,315.075 503.9,316.575 504.725,318.075 515.675,338.4 530.975,352.725 547.325,368.025 568.925,373.575 578.825,376.05 586.925,376.2 592.4,376.275 597.05,375.225 596.45,375.9 634.925,405.375 650.15,417.075 665.45,428.625 669.5,431.7 673.55,434.775 L664.55,448.275 M639.05,410.25 L628.55,421.725" test="RightBum"/>
    </g>
    <g id="LeftBum">
      <path id="Layer1_0_1_STROKES" stroke="#FEB7AE" stroke-width="3" stroke-linejoin="round" stroke-linecap="round" fill="none" d="M97.9,150 Q119.425,136.05 141.925,125.025 164.275,114.15 185.35,107.175 212.575,98.175 230.8,98.25 253.75,98.325 270.325,103.95 289.825,110.625 304.9,126.3 312.1,133.725 313.9,149.85 315.25,161.625 313.6,175.8 312.325,186.525 305.2,195.675 301,201 291.325,211.95 292.825,213.45 294.175,214.875 300.775,221.925 305.95,231.3 309.475,237.675 311.35,245.775 313,252.9 313.45,261.375 314.125,274.575 311.8,287.7 311.275,290.475 310.6,293.25 301.6,332.775 278.95,356.25 261.55,374.25 238.825,385.5 238.525,385.65 221.2,393.6 211.15,398.25 204.925,402.3 195.625,408.3 188.425,413.925 181.9,419.025 173.95,426.3 167.125,432.45 164.725,439.5 161.8,447.975 166.9,454.05 168.475,456 173.875,458.775 179.275,461.55 178.9,460.275 M208.45,199.8 Q222.925,188.925 244.15,189.6 264.85,190.275 278.95,201.3 286.3,207.075 291.325,211.95 M-13.55,243.3 Q-8.075,243.15 -.2,244.275 4.3,244.95 13.15,246.375 19.525,247.2 28.45,248.025 33.55,248.475 43.75,249.3 50.35,249.825 58.75,251.925 60.4,252.3 63.625,252.525 65.8,252.6 67,253.425 69.85,255.375 76.45,269.25 83.35,283.8 86.95,294.6 90.025,303.9 94.075,321.075 95.875,328.65 100,339.075 105.25,352.35 106.675,356.775 107.125,358.125 109.15,366.975 111.25,375.525 112.45,376.8 114.475,379.05 114.1,380.025 114.1,380.175 117.1,380.775 121.975,381.75 128.05,387.075 134.125,392.25 137.65,398.55 141.625,405.375 140.35,409.95 138.85,415.275 130.45,416.025 126.325,418.125 119.275,416.55 111.4,414.225 107.875,413.775 100.6,412.8 91.15,414.675 85.075,415.65 82.225,416.25 77.5,417.3 73.75,419.4 70.975,421.05 67.375,423.825 65.35,425.4 61.375,428.625 59.275,425.55 61.825,418.875 65.275,411.675 66.325,409.35 67.15,407.475 69.925,404.85 72.625,402.15 73.3,400.65 74.575,397.95 72.85,390.075 72.175,386.925 70,379.35 68.425,373.5 64.525,366.75 62.2,362.775 56.95,355.125 M71.95,397.275 Q71.425,397.65 63.475,401.1 57.175,403.8 55.375,406.575 52.375,411.375 51.85,415.65 51.025,422.775 54.4,436.275 54.775,437.775 55.225,439.2 56.2,442.275 57.55,445.2 59.125,448.725 61.3,452.025 62.65,454.125 71.95,465.75 M56.95,355.125 Q55.675,353.175 51.025,347.325 47.35,342.525 45.4,339.225 44.05,336.45 43.225,334.95 41.8,332.1 40.45,331.275 38.875,330.3 35.05,330.225 30.85,330.375 29.425,330.3 24.925,330.075 18.175,330.525 7.6,331.275 6.925,331.275 -10.7,332.1 -22.1,330.375 -25.025,330 -32.3,327.225 -38.675,324.75 -42.575,324.75 M87.4,465.3 Q83.95,465 80.35,461.325 77.35,458.25 75.4,454.275 73.225,449.7 72.325,445.35 72.325,445.275 72.325,445.2 71.575,441.825 71.8,439.2 71.875,437.625 72.325,436.35 74.8,428.775 82,424.05 85.975,421.425 96.4,417.3" test="LeftBum"/>
      <path id="Layer1_0_2_STROKES" stroke="#0FF" stroke-width="3" stroke-linejoin="round" stroke-linecap="round" fill="none" d="M97.9,150 L103.675,153.6 Q110.725,158.175 116.875,163.65 136.675,181.05 140.575,199.8 143.8,214.8 151.225,248.325 156.625,278.775 154.45,303.3 151.375,336.825 149.65,346.275 146.95,361.2 140.575,369.75 L128.95,385.8 M56.95,355.125 L54.4,392.25 71.95,397.275 M-21.05,196.275 Q-9.35,193.2 18.925,183.15 43.975,174.3 58.9,171.075 66.625,169.425 73,166.2 77.95,163.65 85.6,158.325 91.75,154.05 97.9,150" test="LeftBum"/>
    </g>
  </g>
</svg>