<?xml version="1.0" encoding="utf-8"?>
<svg id="EdithAnim08" image-rendering="inherit" baseProfile="basic" version="1.1" x="0px" y="0px" width="800" height="600" xmlns="http://www.w3.org/2000/svg" xmlns:xlink="http://www.w3.org/1999/xlink">
  <g id="No-Rear-To-Rearf179r1" overflow="visible">
    <g id="RightBum">
      <path id="Layer2_0_1_STROKES" stroke="#F0F" stroke-width="3" stroke-linejoin="round" stroke-linecap="round" fill="none" d="M732.225,168.075 L740.475,200.475 Q748.35,236.1 746.475,252.525 744.3,271.5 740.175,292.875 736.35,312.825 732.225,327.525 729.6,336.9 726.9,346.875 726.375,348.225 725.925,348.825 L750.45,342.75 M793.725,193.275 L712.35,156.975 M793.725,327.525 L822.225,323.775 M718.95,333.75 L719.7,336.825 Q721.35,342.825 723.225,347.1 724.65,350.325 725.925,348.825" test="RightBum"/>
      <path id="Layer2_0_2_STROKES" stroke="#F90" stroke-width="3" stroke-linejoin="round" stroke-linecap="round" fill="none" d="M750.45,342.75 L752.775,329.25 Q753.675,324 754.425,310.95 755.175,296.475 756.15,289.35 759.525,262.875 772.275,253.275 779.4,247.875 786.375,245.4 791.925,243.375 797.4,243.225 802.275,243.15 808.275,245.25 M712.35,156.975 Q627.525,119.025 607.725,111.225 595.275,106.35 584.625,103.95 573.45,101.475 564.375,101.775 545.325,102.45 530.775,115.275 515.1,128.925 507.525,146.925 499.5,166.125 503.4,184.275 506.7,199.875 518.325,209.625 524.175,214.5 529.425,216.525 546.375,205.875 563.25,205.275 M750.45,342.75 L742.8,387.225 Q743.325,388.05 742.725,387.6 L740.775,398.775 Q736.125,400.125 730.8,402.975 720,408.675 716.25,416.025 712.875,422.625 712.425,428.625 712.125,432.45 713.025,436.05 715.8,447.525 730.725,450.225 744.6,452.775 754.425,446.025 759.675,442.35 765.225,435.75 769.65,431.025 772.05,429.45 772.875,428.925 773.775,428.625 775.95,427.95 778.5,428.625 780.3,429.075 782.25,430.275 788.7,434.025 790.275,433.425 790.575,433.35 793.725,428.775 796.125,425.4 792.75,420.225 790.275,416.4 786.375,413.7 786.075,413.475 785.775,413.25 781.125,411.375 779.25,410.025 776.025,407.625 775.725,400.725 775.425,393.9 784.575,353.625 L793.725,314.775 797.025,314.925 Q802.275,315.075 812.25,314.775 M727.5,336.825 L720.675,333 Q719.775,333.375 718.95,333.75 714.15,335.775 711.75,336.825 716.55,351.375 732.975,374.025 736.725,379.2 741.75,385.8 742.425,386.7 742.8,387.225 L742.725,387.6 Q742.35,387.375 741.75,386.775 M711.75,336.825 Q705.675,339.6 702.9,342 699.45,344.925 698.775,348.9 697.425,356.4 705.75,368.325 716.1,383.1 738.225,398.775 M718.95,333.75 L718.425,331.725 720.675,333 Q722.1,332.4 723.75,331.725 M529.425,216.525 Q525.3,219.075 521.175,222.225 507.375,232.95 500.85,242.25 496.875,247.95 495.6,253.125 492.075,266.775 492.6,278.775 493.125,290.775 496.425,305.55 498.375,310.275 500.85,315.075 501.6,316.575 502.425,318.075 513.375,338.4 528.675,352.725 545.025,368.025 566.625,373.575 576.525,376.05 584.625,376.2 590.1,376.275 594.75,375.225 594.15,375.9 632.625,405.375 647.85,417.075 663.15,428.625 667.2,431.7 671.25,434.775 L662.25,448.275 M636.75,410.25 L626.25,421.725" test="RightBum"/>
    </g>
    <g id="LeftBum">
      <path id="Layer1_0_1_STROKES" stroke="#FEB7AE" stroke-width="3" stroke-linejoin="round" stroke-linecap="round" fill="none" d="M100.25,150 Q121.775,136.05 144.275,125.025 166.625,114.15 187.7,107.175 214.925,98.175 233.15,98.25 256.1,98.325 272.675,103.95 292.175,110.625 307.25,126.3 314.45,133.725 316.25,149.85 317.6,161.625 315.95,175.8 314.675,186.525 307.55,195.675 303.35,201 293.675,211.95 295.175,213.45 296.525,214.875 303.125,221.925 308.3,231.3 311.825,237.675 313.7,245.775 315.35,252.9 315.8,261.375 316.475,274.575 314.15,287.7 313.625,290.475 312.95,293.25 303.95,332.775 281.3,356.25 263.9,374.25 241.175,385.5 240.875,385.65 223.55,393.6 213.5,398.25 207.275,402.3 197.975,408.3 190.775,413.925 184.25,419.025 176.3,426.3 169.475,432.45 167.075,439.5 164.15,447.975 169.25,454.05 170.825,456 176.225,458.775 181.625,461.55 181.25,460.275 M210.8,199.8 Q225.275,188.925 246.5,189.6 267.2,190.275 281.3,201.3 288.65,207.075 293.675,211.95 M-11.2,243.3 Q-5.725,243.15 2.15,244.275 6.65,244.95 15.5,246.375 21.875,247.2 30.8,248.025 35.9,248.475 46.1,249.3 52.7,249.825 61.1,251.925 62.75,252.3 65.975,252.525 68.15,252.6 69.35,253.425 72.2,255.375 78.8,269.25 85.7,283.8 89.3,294.6 92.375,303.9 96.425,321.075 98.225,328.65 102.35,339.075 107.6,352.35 109.025,356.775 109.475,358.125 111.5,366.975 113.6,375.525 114.8,376.8 116.825,379.05 116.45,380.025 116.45,380.175 119.45,380.775 124.325,381.75 130.4,387.075 136.475,392.25 140,398.55 143.975,405.375 142.7,409.95 141.2,415.275 132.8,416.025 128.675,418.125 121.625,416.55 113.75,414.225 110.225,413.775 102.95,412.8 93.5,414.675 87.425,415.65 84.575,416.25 79.85,417.3 76.1,419.4 73.325,421.05 69.725,423.825 67.7,425.4 63.725,428.625 61.625,425.55 64.175,418.875 67.625,411.675 68.675,409.35 69.5,407.475 72.275,404.85 74.975,402.15 75.65,400.65 76.925,397.95 75.2,390.075 74.525,386.925 72.35,379.35 70.775,373.5 66.875,366.75 64.55,362.775 59.3,355.125 M74.3,397.275 Q73.775,397.65 65.825,401.1 59.525,403.8 57.725,406.575 54.725,411.375 54.2,415.65 53.375,422.775 56.75,436.275 57.125,437.775 57.575,439.2 58.55,442.275 59.9,445.2 61.475,448.725 63.65,452.025 65,454.125 74.3,465.75 M59.3,355.125 Q58.025,353.175 53.375,347.325 49.7,342.525 47.75,339.225 46.4,336.45 45.575,334.95 44.15,332.1 42.8,331.275 41.225,330.3 37.4,330.225 33.2,330.375 31.775,330.3 27.275,330.075 20.525,330.525 9.95,331.275 9.275,331.275 -8.35,332.1 -19.75,330.375 -22.675,330 -29.95,327.225 -36.325,324.75 -40.225,324.75 M89.75,465.3 Q86.3,465 82.7,461.325 79.7,458.25 77.75,454.275 75.575,449.7 74.675,445.35 74.675,445.275 74.675,445.2 73.925,441.825 74.15,439.2 74.225,437.625 74.675,436.35 77.15,428.775 84.35,424.05 88.325,421.425 98.75,417.3" test="LeftBum"/>
      <path id="Layer1_0_2_STROKES" stroke="#0FF" stroke-width="3" stroke-linejoin="round" stroke-linecap="round" fill="none" d="M100.25,150 L106.025,153.6 Q113.075,158.175 119.225,163.65 139.025,181.05 142.925,199.8 146.15,214.8 153.575,248.325 158.975,278.775 156.8,303.3 153.725,336.825 152,346.275 149.3,361.2 142.925,369.75 L131.3,385.8 M59.3,355.125 L56.75,392.25 74.3,397.275 M-18.7,196.275 Q-7,193.2 21.275,183.15 46.325,174.3 61.25,171.075 68.975,169.425 75.35,166.2 80.3,163.65 87.95,158.325 94.1,154.05 100.25,150" test="LeftBum"/>
    </g>
  </g>
</svg>