<?xml version="1.0" encoding="utf-8"?>
<svg id="EdithAnim08" image-rendering="inherit" baseProfile="basic" version="1.1" x="0px" y="0px" width="800" height="600" xmlns="http://www.w3.org/2000/svg" xmlns:xlink="http://www.w3.org/1999/xlink">
  <g id="No-Rear-To-Rearf18r1" overflow="visible">
    <g id="RightBum">
      <path id="Layer2_0_1_STROKES" stroke="#F0F" stroke-width="3" stroke-linejoin="round" stroke-linecap="round" fill="none" d="M1007.575,168.075 L1015.825,200.475 Q1023.7,236.1 1021.825,252.525 1019.65,271.5 1015.525,292.875 1011.7,312.825 1007.575,327.525 1004.95,336.9 1002.25,346.875 1001.725,348.225 1001.275,348.825 L1025.8,342.75 M1069.075,193.275 L987.7,156.975 M1069.075,327.525 L1097.575,323.775 M994.3,333.75 L995.05,336.825 Q996.7,342.825 998.575,347.1 1000,350.325 1001.275,348.825" test="RightBum"/>
      <path id="Layer2_0_2_STROKES" stroke="#F90" stroke-width="3" stroke-linejoin="round" stroke-linecap="round" fill="none" d="M1025.8,342.75 L1028.125,329.25 Q1029.025,324 1029.775,310.95 1030.525,296.475 1031.5,289.35 1034.875,262.875 1047.625,253.275 1054.75,247.875 1061.725,245.4 1067.275,243.375 1072.75,243.225 1077.625,243.15 1083.625,245.25 M987.7,156.975 Q902.875,119.025 883.075,111.225 870.625,106.35 859.975,103.95 848.8,101.475 839.725,101.775 820.675,102.45 806.125,115.275 790.45,128.925 782.875,146.925 774.85,166.125 778.75,184.275 782.05,199.875 793.675,209.625 799.525,214.5 804.775,216.525 821.725,205.875 838.6,205.275 M1025.8,342.75 L1018.15,387.225 Q1018.675,388.05 1018.075,387.6 L1016.125,398.775 Q1011.475,400.125 1006.15,402.975 995.35,408.675 991.6,416.025 988.225,422.625 987.775,428.625 987.475,432.45 988.375,436.05 991.15,447.525 1006.075,450.225 1019.95,452.775 1029.775,446.025 1035.025,442.35 1040.575,435.75 1045,431.025 1047.4,429.45 1048.225,428.925 1049.125,428.625 1051.3,427.95 1053.85,428.625 1055.65,429.075 1057.6,430.275 1064.05,434.025 1065.625,433.425 1065.925,433.35 1069.075,428.775 1071.475,425.4 1068.1,420.225 1065.625,416.4 1061.725,413.7 1061.425,413.475 1061.125,413.25 1056.475,411.375 1054.6,410.025 1051.375,407.625 1051.075,400.725 1050.775,393.9 1059.925,353.625 L1069.075,314.775 1072.375,314.925 Q1077.625,315.075 1087.6,314.775 M1002.85,336.825 L996.025,333 Q995.125,333.375 994.3,333.75 989.5,335.775 987.1,336.825 991.9,351.375 1008.325,374.025 1012.075,379.2 1017.1,385.8 1017.775,386.7 1018.15,387.225 L1018.075,387.6 Q1017.7,387.375 1017.1,386.775 M987.1,336.825 Q981.025,339.6 978.25,342 974.8,344.925 974.125,348.9 972.775,356.4 981.1,368.325 991.45,383.1 1013.575,398.775 M994.3,333.75 L993.775,331.725 996.025,333 Q997.45,332.4 999.1,331.725 M804.775,216.525 Q800.65,219.075 796.525,222.225 782.725,232.95 776.2,242.25 772.225,247.95 770.95,253.125 767.425,266.775 767.95,278.775 768.475,290.775 771.775,305.55 773.725,310.275 776.2,315.075 776.95,316.575 777.775,318.075 788.725,338.4 804.025,352.725 820.375,368.025 841.975,373.575 851.875,376.05 859.975,376.2 865.45,376.275 870.1,375.225 869.5,375.9 907.975,405.375 923.2,417.075 938.5,428.625 942.55,431.7 946.6,434.775 L937.6,448.275 M912.1,410.25 L901.6,421.725" test="RightBum"/>
    </g>
    <g id="LeftBum">
      <path id="Layer1_0_1_STROKES" stroke="#FEB7AE" stroke-width="3" stroke-linejoin="round" stroke-linecap="round" fill="none" d="M-179.6,150 Q-158.075,136.05 -135.575,125.025 -113.225,114.15 -92.15,107.175 -64.925,98.175 -46.7,98.25 -23.75,98.325 -7.175,103.95 12.325,110.625 27.4,126.3 34.6,133.725 36.4,149.85 37.75,161.625 36.1,175.8 34.825,186.525 27.7,195.675 23.5,201 13.825,211.95 15.325,213.45 16.675,214.875 23.275,221.925 28.45,231.3 31.975,237.675 33.85,245.775 35.5,252.9 35.95,261.375 36.625,274.575 34.3,287.7 33.775,290.475 33.1,293.25 24.1,332.775 1.45,356.25 -15.95,374.25 -38.675,385.5 -38.975,385.65 -56.3,393.6 -66.35,398.25 -72.575,402.3 -81.875,408.3 -89.075,413.925 -95.6,419.025 -103.55,426.3 -110.375,432.45 -112.775,439.5 -115.7,447.975 -110.6,454.05 -109.025,456 -103.625,458.775 -98.225,461.55 -98.6,460.275 M-69.05,199.8 Q-54.575,188.925 -33.35,189.6 -12.65,190.275 1.45,201.3 8.8,207.075 13.825,211.95 M-291.05,243.3 Q-285.575,243.15 -277.7,244.275 -273.2,244.95 -264.35,246.375 -257.975,247.2 -249.05,248.025 -243.95,248.475 -233.75,249.3 -227.15,249.825 -218.75,251.925 -217.1,252.3 -213.875,252.525 -211.7,252.6 -210.5,253.425 -207.65,255.375 -201.05,269.25 -194.15,283.8 -190.55,294.6 -187.475,303.9 -183.425,321.075 -181.625,328.65 -177.5,339.075 -172.25,352.35 -170.825,356.775 -170.375,358.125 -168.35,366.975 -166.25,375.525 -165.05,376.8 -163.025,379.05 -163.4,380.025 -163.4,380.175 -160.4,380.775 -155.525,381.75 -149.45,387.075 -143.375,392.25 -139.85,398.55 -135.875,405.375 -137.15,409.95 -138.65,415.275 -147.05,416.025 -151.175,418.125 -158.225,416.55 -166.1,414.225 -169.625,413.775 -176.9,412.8 -186.35,414.675 -192.425,415.65 -195.275,416.25 -200,417.3 -203.75,419.4 -206.525,421.05 -210.125,423.825 -212.15,425.4 -216.125,428.625 -218.225,425.55 -215.675,418.875 -212.225,411.675 -211.175,409.35 -210.35,407.475 -207.575,404.85 -204.875,402.15 -204.2,400.65 -202.925,397.95 -204.65,390.075 -205.325,386.925 -207.5,379.35 -209.075,373.5 -212.975,366.75 -215.3,362.775 -220.55,355.125 M-205.55,397.275 Q-206.075,397.65 -214.025,401.1 -220.325,403.8 -222.125,406.575 -225.125,411.375 -225.65,415.65 -226.475,422.775 -223.1,436.275 -222.725,437.775 -222.275,439.2 -221.3,442.275 -219.95,445.2 -218.375,448.725 -216.2,452.025 -214.85,454.125 -205.55,465.75 M-220.55,355.125 Q-221.825,353.175 -226.475,347.325 -230.15,342.525 -232.1,339.225 -233.45,336.45 -234.275,334.95 -235.7,332.1 -237.05,331.275 -238.625,330.3 -242.45,330.225 -246.65,330.375 -248.075,330.3 -252.575,330.075 -259.325,330.525 -269.9,331.275 -270.575,331.275 -288.2,332.1 -299.6,330.375 -302.525,330 -309.8,327.225 -316.175,324.75 -320.075,324.75 M-190.1,465.3 Q-193.55,465 -197.15,461.325 -200.15,458.25 -202.1,454.275 -204.275,449.7 -205.175,445.35 -205.175,445.275 -205.175,445.2 -205.925,441.825 -205.7,439.2 -205.625,437.625 -205.175,436.35 -202.7,428.775 -195.5,424.05 -191.525,421.425 -181.1,417.3" test="LeftBum"/>
      <path id="Layer1_0_2_STROKES" stroke="#0FF" stroke-width="3" stroke-linejoin="round" stroke-linecap="round" fill="none" d="M-179.6,150 L-173.825,153.6 Q-166.775,158.175 -160.625,163.65 -140.825,181.05 -136.925,199.8 -133.7,214.8 -126.275,248.325 -120.875,278.775 -123.05,303.3 -126.125,336.825 -127.85,346.275 -130.55,361.2 -136.925,369.75 L-148.55,385.8 M-220.55,355.125 L-223.1,392.25 -205.55,397.275 M-298.55,196.275 Q-286.85,193.2 -258.575,183.15 -233.525,174.3 -218.6,171.075 -210.875,169.425 -204.5,166.2 -199.55,163.65 -191.9,158.325 -185.75,154.05 -179.6,150" test="LeftBum"/>
    </g>
  </g>
</svg>