<?xml version="1.0" encoding="utf-8"?>
<svg id="EdithAnim08" image-rendering="inherit" baseProfile="basic" version="1.1" x="0px" y="0px" width="800" height="600" xmlns="http://www.w3.org/2000/svg" xmlns:xlink="http://www.w3.org/1999/xlink">
  <g id="No-Rear-To-Rearf189r1" overflow="visible">
    <g id="RightBum">
      <path id="Layer2_0_1_STROKES" stroke="#F0F" stroke-width="3" stroke-linejoin="round" stroke-linecap="round" fill="none" d="M721.075,168.075 L729.325,200.475 Q737.2,236.1 735.325,252.525 733.15,271.5 729.025,292.875 725.2,312.825 721.075,327.525 718.45,336.9 715.75,346.875 715.225,348.225 714.775,348.825 L739.3,342.75 M782.575,193.275 L701.2,156.975 M782.575,327.525 L811.075,323.775 M707.8,333.75 L708.55,336.825 Q710.2,342.825 712.075,347.1 713.5,350.325 714.775,348.825" test="RightBum"/>
      <path id="Layer2_0_2_STROKES" stroke="#F90" stroke-width="3" stroke-linejoin="round" stroke-linecap="round" fill="none" d="M739.3,342.75 L741.625,329.25 Q742.525,324 743.275,310.95 744.025,296.475 745,289.35 748.375,262.875 761.125,253.275 768.25,247.875 775.225,245.4 780.775,243.375 786.25,243.225 791.125,243.15 797.125,245.25 M701.2,156.975 Q616.375,119.025 596.575,111.225 584.125,106.35 573.475,103.95 562.3,101.475 553.225,101.775 534.175,102.45 519.625,115.275 503.95,128.925 496.375,146.925 488.35,166.125 492.25,184.275 495.55,199.875 507.175,209.625 513.025,214.5 518.275,216.525 535.225,205.875 552.1,205.275 M739.3,342.75 L731.65,387.225 Q732.175,388.05 731.575,387.6 L729.625,398.775 Q724.975,400.125 719.65,402.975 708.85,408.675 705.1,416.025 701.725,422.625 701.275,428.625 700.975,432.45 701.875,436.05 704.65,447.525 719.575,450.225 733.45,452.775 743.275,446.025 748.525,442.35 754.075,435.75 758.5,431.025 760.9,429.45 761.725,428.925 762.625,428.625 764.8,427.95 767.35,428.625 769.15,429.075 771.1,430.275 777.55,434.025 779.125,433.425 779.425,433.35 782.575,428.775 784.975,425.4 781.6,420.225 779.125,416.4 775.225,413.7 774.925,413.475 774.625,413.25 769.975,411.375 768.1,410.025 764.875,407.625 764.575,400.725 764.275,393.9 773.425,353.625 L782.575,314.775 785.875,314.925 Q791.125,315.075 801.1,314.775 M716.35,336.825 L709.525,333 Q708.625,333.375 707.8,333.75 703,335.775 700.6,336.825 705.4,351.375 721.825,374.025 725.575,379.2 730.6,385.8 731.275,386.7 731.65,387.225 L731.575,387.6 Q731.2,387.375 730.6,386.775 M700.6,336.825 Q694.525,339.6 691.75,342 688.3,344.925 687.625,348.9 686.275,356.4 694.6,368.325 704.95,383.1 727.075,398.775 M707.8,333.75 L707.275,331.725 709.525,333 Q710.95,332.4 712.6,331.725 M518.275,216.525 Q514.15,219.075 510.025,222.225 496.225,232.95 489.7,242.25 485.725,247.95 484.45,253.125 480.925,266.775 481.45,278.775 481.975,290.775 485.275,305.55 487.225,310.275 489.7,315.075 490.45,316.575 491.275,318.075 502.225,338.4 517.525,352.725 533.875,368.025 555.475,373.575 565.375,376.05 573.475,376.2 578.95,376.275 583.6,375.225 583,375.9 621.475,405.375 636.7,417.075 652,428.625 656.05,431.7 660.1,434.775 L651.1,448.275 M625.6,410.25 L615.1,421.725" test="RightBum"/>
    </g>
    <g id="LeftBum">
      <path id="Layer1_0_1_STROKES" stroke="#FEB7AE" stroke-width="3" stroke-linejoin="round" stroke-linecap="round" fill="none" d="M111.55,150 Q133.075,136.05 155.575,125.025 177.925,114.15 199,107.175 226.225,98.175 244.45,98.25 267.4,98.325 283.975,103.95 303.475,110.625 318.55,126.3 325.75,133.725 327.55,149.85 328.9,161.625 327.25,175.8 325.975,186.525 318.85,195.675 314.65,201 304.975,211.95 306.475,213.45 307.825,214.875 314.425,221.925 319.6,231.3 323.125,237.675 325,245.775 326.65,252.9 327.1,261.375 327.775,274.575 325.45,287.7 324.925,290.475 324.25,293.25 315.25,332.775 292.6,356.25 275.2,374.25 252.475,385.5 252.175,385.65 234.85,393.6 224.8,398.25 218.575,402.3 209.275,408.3 202.075,413.925 195.55,419.025 187.6,426.3 180.775,432.45 178.375,439.5 175.45,447.975 180.55,454.05 182.125,456 187.525,458.775 192.925,461.55 192.55,460.275 M222.1,199.8 Q236.575,188.925 257.8,189.6 278.5,190.275 292.6,201.3 299.95,207.075 304.975,211.95 M0.1,243.3 Q5.575,243.15 13.45,244.275 17.95,244.95 26.8,246.375 33.175,247.2 42.1,248.025 47.2,248.475 57.4,249.3 64,249.825 72.4,251.925 74.05,252.3 77.275,252.525 79.45,252.6 80.65,253.425 83.5,255.375 90.1,269.25 97,283.8 100.6,294.6 103.675,303.9 107.725,321.075 109.525,328.65 113.65,339.075 118.9,352.35 120.325,356.775 120.775,358.125 122.8,366.975 124.9,375.525 126.1,376.8 128.125,379.05 127.75,380.025 127.75,380.175 130.75,380.775 135.625,381.75 141.7,387.075 147.775,392.25 151.3,398.55 155.275,405.375 154,409.95 152.5,415.275 144.1,416.025 139.975,418.125 132.925,416.55 125.05,414.225 121.525,413.775 114.25,412.8 104.8,414.675 98.725,415.65 95.875,416.25 91.15,417.3 87.4,419.4 84.625,421.05 81.025,423.825 79,425.4 75.025,428.625 72.925,425.55 75.475,418.875 78.925,411.675 79.975,409.35 80.8,407.475 83.575,404.85 86.275,402.15 86.95,400.65 88.225,397.95 86.5,390.075 85.825,386.925 83.65,379.35 82.075,373.5 78.175,366.75 75.85,362.775 70.6,355.125 M85.6,397.275 Q85.075,397.65 77.125,401.1 70.825,403.8 69.025,406.575 66.025,411.375 65.5,415.65 64.675,422.775 68.05,436.275 68.425,437.775 68.875,439.2 69.85,442.275 71.2,445.2 72.775,448.725 74.95,452.025 76.3,454.125 85.6,465.75 M70.6,355.125 Q69.325,353.175 64.675,347.325 61,342.525 59.05,339.225 57.7,336.45 56.875,334.95 55.45,332.1 54.1,331.275 52.525,330.3 48.7,330.225 44.5,330.375 43.075,330.3 38.575,330.075 31.825,330.525 21.25,331.275 20.575,331.275 2.95,332.1 -8.45,330.375 -11.375,330 -18.65,327.225 -25.025,324.75 -28.925,324.75 M101.05,465.3 Q97.6,465 94,461.325 91,458.25 89.05,454.275 86.875,449.7 85.975,445.35 85.975,445.275 85.975,445.2 85.225,441.825 85.45,439.2 85.525,437.625 85.975,436.35 88.45,428.775 95.65,424.05 99.625,421.425 110.05,417.3" test="LeftBum"/>
      <path id="Layer1_0_2_STROKES" stroke="#0FF" stroke-width="3" stroke-linejoin="round" stroke-linecap="round" fill="none" d="M111.55,150 L117.325,153.6 Q124.375,158.175 130.525,163.65 150.325,181.05 154.225,199.8 157.45,214.8 164.875,248.325 170.275,278.775 168.1,303.3 165.025,336.825 163.3,346.275 160.6,361.2 154.225,369.75 L142.6,385.8 M70.6,355.125 L68.05,392.25 85.6,397.275 M-7.4,196.275 Q4.3,193.2 32.575,183.15 57.625,174.3 72.55,171.075 80.275,169.425 86.65,166.2 91.6,163.65 99.25,158.325 105.4,154.05 111.55,150" test="LeftBum"/>
    </g>
  </g>
</svg>