<?xml version="1.0" encoding="utf-8"?>
<svg id="EdithAnim08" image-rendering="inherit" baseProfile="basic" version="1.1" x="0px" y="0px" width="800" height="600" xmlns="http://www.w3.org/2000/svg" xmlns:xlink="http://www.w3.org/1999/xlink">
  <g id="No-Rear-To-Rearf19r1" overflow="visible">
    <g id="RightBum">
      <path id="Layer2_0_1_STROKES" stroke="#F0F" stroke-width="3" stroke-linejoin="round" stroke-linecap="round" fill="none" d="M1005.325,168.075 L1013.575,200.475 Q1021.45,236.1 1019.575,252.525 1017.4,271.5 1013.275,292.875 1009.45,312.825 1005.325,327.525 1002.7,336.9 1000,346.875 999.475,348.225 999.025,348.825 L1023.55,342.75 M1066.825,193.275 L985.45,156.975 M1066.825,327.525 L1095.325,323.775 M992.05,333.75 L992.8,336.825 Q994.45,342.825 996.325,347.1 997.75,350.325 999.025,348.825" test="RightBum"/>
      <path id="Layer2_0_2_STROKES" stroke="#F90" stroke-width="3" stroke-linejoin="round" stroke-linecap="round" fill="none" d="M1023.55,342.75 L1025.875,329.25 Q1026.775,324 1027.525,310.95 1028.275,296.475 1029.25,289.35 1032.625,262.875 1045.375,253.275 1052.5,247.875 1059.475,245.4 1065.025,243.375 1070.5,243.225 1075.375,243.15 1081.375,245.25 M985.45,156.975 Q900.625,119.025 880.825,111.225 868.375,106.35 857.725,103.95 846.55,101.475 837.475,101.775 818.425,102.45 803.875,115.275 788.2,128.925 780.625,146.925 772.6,166.125 776.5,184.275 779.8,199.875 791.425,209.625 797.275,214.5 802.525,216.525 819.475,205.875 836.35,205.275 M1023.55,342.75 L1015.9,387.225 Q1016.425,388.05 1015.825,387.6 L1013.875,398.775 Q1009.225,400.125 1003.9,402.975 993.1,408.675 989.35,416.025 985.975,422.625 985.525,428.625 985.225,432.45 986.125,436.05 988.9,447.525 1003.825,450.225 1017.7,452.775 1027.525,446.025 1032.775,442.35 1038.325,435.75 1042.75,431.025 1045.15,429.45 1045.975,428.925 1046.875,428.625 1049.05,427.95 1051.6,428.625 1053.4,429.075 1055.35,430.275 1061.8,434.025 1063.375,433.425 1063.675,433.35 1066.825,428.775 1069.225,425.4 1065.85,420.225 1063.375,416.4 1059.475,413.7 1059.175,413.475 1058.875,413.25 1054.225,411.375 1052.35,410.025 1049.125,407.625 1048.825,400.725 1048.525,393.9 1057.675,353.625 L1066.825,314.775 1070.125,314.925 Q1075.375,315.075 1085.35,314.775 M1000.6,336.825 L993.775,333 Q992.875,333.375 992.05,333.75 987.25,335.775 984.85,336.825 989.65,351.375 1006.075,374.025 1009.825,379.2 1014.85,385.8 1015.525,386.7 1015.9,387.225 L1015.825,387.6 Q1015.45,387.375 1014.85,386.775 M984.85,336.825 Q978.775,339.6 976,342 972.55,344.925 971.875,348.9 970.525,356.4 978.85,368.325 989.2,383.1 1011.325,398.775 M992.05,333.75 L991.525,331.725 993.775,333 Q995.2,332.4 996.85,331.725 M802.525,216.525 Q798.4,219.075 794.275,222.225 780.475,232.95 773.95,242.25 769.975,247.95 768.7,253.125 765.175,266.775 765.7,278.775 766.225,290.775 769.525,305.55 771.475,310.275 773.95,315.075 774.7,316.575 775.525,318.075 786.475,338.4 801.775,352.725 818.125,368.025 839.725,373.575 849.625,376.05 857.725,376.2 863.2,376.275 867.85,375.225 867.25,375.9 905.725,405.375 920.95,417.075 936.25,428.625 940.3,431.7 944.35,434.775 L935.35,448.275 M909.85,410.25 L899.35,421.725" test="RightBum"/>
    </g>
    <g id="LeftBum">
      <path id="Layer1_0_1_STROKES" stroke="#FEB7AE" stroke-width="3" stroke-linejoin="round" stroke-linecap="round" fill="none" d="M-177.3,150 Q-155.775,136.05 -133.275,125.025 -110.925,114.15 -89.85,107.175 -62.625,98.175 -44.4,98.25 -21.45,98.325 -4.875,103.95 14.625,110.625 29.7,126.3 36.9,133.725 38.7,149.85 40.05,161.625 38.4,175.8 37.125,186.525 30,195.675 25.8,201 16.125,211.95 17.625,213.45 18.975,214.875 25.575,221.925 30.75,231.3 34.275,237.675 36.15,245.775 37.8,252.9 38.25,261.375 38.925,274.575 36.6,287.7 36.075,290.475 35.4,293.25 26.4,332.775 3.75,356.25 -13.65,374.25 -36.375,385.5 -36.675,385.65 -54,393.6 -64.05,398.25 -70.275,402.3 -79.575,408.3 -86.775,413.925 -93.3,419.025 -101.25,426.3 -108.075,432.45 -110.475,439.5 -113.4,447.975 -108.3,454.05 -106.725,456 -101.325,458.775 -95.925,461.55 -96.3,460.275 M-66.75,199.8 Q-52.275,188.925 -31.05,189.6 -10.35,190.275 3.75,201.3 11.1,207.075 16.125,211.95 M-288.75,243.3 Q-283.275,243.15 -275.4,244.275 -270.9,244.95 -262.05,246.375 -255.675,247.2 -246.75,248.025 -241.65,248.475 -231.45,249.3 -224.85,249.825 -216.45,251.925 -214.8,252.3 -211.575,252.525 -209.4,252.6 -208.2,253.425 -205.35,255.375 -198.75,269.25 -191.85,283.8 -188.25,294.6 -185.175,303.9 -181.125,321.075 -179.325,328.65 -175.2,339.075 -169.95,352.35 -168.525,356.775 -168.075,358.125 -166.05,366.975 -163.95,375.525 -162.75,376.8 -160.725,379.05 -161.1,380.025 -161.1,380.175 -158.1,380.775 -153.225,381.75 -147.15,387.075 -141.075,392.25 -137.55,398.55 -133.575,405.375 -134.85,409.95 -136.35,415.275 -144.75,416.025 -148.875,418.125 -155.925,416.55 -163.8,414.225 -167.325,413.775 -174.6,412.8 -184.05,414.675 -190.125,415.65 -192.975,416.25 -197.7,417.3 -201.45,419.4 -204.225,421.05 -207.825,423.825 -209.85,425.4 -213.825,428.625 -215.925,425.55 -213.375,418.875 -209.925,411.675 -208.875,409.35 -208.05,407.475 -205.275,404.85 -202.575,402.15 -201.9,400.65 -200.625,397.95 -202.35,390.075 -203.025,386.925 -205.2,379.35 -206.775,373.5 -210.675,366.75 -213,362.775 -218.25,355.125 M-203.25,397.275 Q-203.775,397.65 -211.725,401.1 -218.025,403.8 -219.825,406.575 -222.825,411.375 -223.35,415.65 -224.175,422.775 -220.8,436.275 -220.425,437.775 -219.975,439.2 -219,442.275 -217.65,445.2 -216.075,448.725 -213.9,452.025 -212.55,454.125 -203.25,465.75 M-218.25,355.125 Q-219.525,353.175 -224.175,347.325 -227.85,342.525 -229.8,339.225 -231.15,336.45 -231.975,334.95 -233.4,332.1 -234.75,331.275 -236.325,330.3 -240.15,330.225 -244.35,330.375 -245.775,330.3 -250.275,330.075 -257.025,330.525 -267.6,331.275 -268.275,331.275 -285.9,332.1 -297.3,330.375 -300.225,330 -307.5,327.225 -313.875,324.75 -317.775,324.75 M-187.8,465.3 Q-191.25,465 -194.85,461.325 -197.85,458.25 -199.8,454.275 -201.975,449.7 -202.875,445.35 -202.875,445.275 -202.875,445.2 -203.625,441.825 -203.4,439.2 -203.325,437.625 -202.875,436.35 -200.4,428.775 -193.2,424.05 -189.225,421.425 -178.8,417.3" test="LeftBum"/>
      <path id="Layer1_0_2_STROKES" stroke="#0FF" stroke-width="3" stroke-linejoin="round" stroke-linecap="round" fill="none" d="M-177.3,150 L-171.525,153.6 Q-164.475,158.175 -158.325,163.65 -138.525,181.05 -134.625,199.8 -131.4,214.8 -123.975,248.325 -118.575,278.775 -120.75,303.3 -123.825,336.825 -125.55,346.275 -128.25,361.2 -134.625,369.75 L-146.25,385.8 M-218.25,355.125 L-220.8,392.25 -203.25,397.275 M-296.25,196.275 Q-284.55,193.2 -256.275,183.15 -231.225,174.3 -216.3,171.075 -208.575,169.425 -202.2,166.2 -197.25,163.65 -189.6,158.325 -183.45,154.05 -177.3,150" test="LeftBum"/>
    </g>
  </g>
</svg>