<?xml version="1.0" encoding="utf-8"?>
<svg id="EdithAnim08" image-rendering="inherit" baseProfile="basic" version="1.1" x="0px" y="0px" width="800" height="600" xmlns="http://www.w3.org/2000/svg" xmlns:xlink="http://www.w3.org/1999/xlink">
  <g id="No-Rear-To-Rearf190r1" overflow="visible">
    <g id="RightBum">
      <path id="Layer2_0_1_STROKES" stroke="#F0F" stroke-width="3" stroke-linejoin="round" stroke-linecap="round" fill="none" d="M720.025,168.075 L728.275,200.475 Q736.15,236.1 734.275,252.525 732.1,271.5 727.975,292.875 724.15,312.825 720.025,327.525 717.4,336.9 714.7,346.875 714.175,348.225 713.725,348.825 L738.25,342.75 M781.525,193.275 L700.15,156.975 M781.525,327.525 L810.025,323.775 M706.75,333.75 L707.5,336.825 Q709.15,342.825 711.025,347.1 712.45,350.325 713.725,348.825" test="RightBum"/>
      <path id="Layer2_0_2_STROKES" stroke="#F90" stroke-width="3" stroke-linejoin="round" stroke-linecap="round" fill="none" d="M738.25,342.75 L740.575,329.25 Q741.475,324 742.225,310.95 742.975,296.475 743.95,289.35 747.325,262.875 760.075,253.275 767.2,247.875 774.175,245.4 779.725,243.375 785.2,243.225 790.075,243.15 796.075,245.25 M700.15,156.975 Q615.325,119.025 595.525,111.225 583.075,106.35 572.425,103.95 561.25,101.475 552.175,101.775 533.125,102.45 518.575,115.275 502.9,128.925 495.325,146.925 487.3,166.125 491.2,184.275 494.5,199.875 506.125,209.625 511.975,214.5 517.225,216.525 534.175,205.875 551.05,205.275 M738.25,342.75 L730.6,387.225 Q731.125,388.05 730.525,387.6 L728.575,398.775 Q723.925,400.125 718.6,402.975 707.8,408.675 704.05,416.025 700.675,422.625 700.225,428.625 699.925,432.45 700.825,436.05 703.6,447.525 718.525,450.225 732.4,452.775 742.225,446.025 747.475,442.35 753.025,435.75 757.45,431.025 759.85,429.45 760.675,428.925 761.575,428.625 763.75,427.95 766.3,428.625 768.1,429.075 770.05,430.275 776.5,434.025 778.075,433.425 778.375,433.35 781.525,428.775 783.925,425.4 780.55,420.225 778.075,416.4 774.175,413.7 773.875,413.475 773.575,413.25 768.925,411.375 767.05,410.025 763.825,407.625 763.525,400.725 763.225,393.9 772.375,353.625 L781.525,314.775 784.825,314.925 Q790.075,315.075 800.05,314.775 M715.3,336.825 L708.475,333 Q707.575,333.375 706.75,333.75 701.95,335.775 699.55,336.825 704.35,351.375 720.775,374.025 724.525,379.2 729.55,385.8 730.225,386.7 730.6,387.225 L730.525,387.6 Q730.15,387.375 729.55,386.775 M699.55,336.825 Q693.475,339.6 690.7,342 687.25,344.925 686.575,348.9 685.225,356.4 693.55,368.325 703.9,383.1 726.025,398.775 M706.75,333.75 L706.225,331.725 708.475,333 Q709.9,332.4 711.55,331.725 M517.225,216.525 Q513.1,219.075 508.975,222.225 495.175,232.95 488.65,242.25 484.675,247.95 483.4,253.125 479.875,266.775 480.4,278.775 480.925,290.775 484.225,305.55 486.175,310.275 488.65,315.075 489.4,316.575 490.225,318.075 501.175,338.4 516.475,352.725 532.825,368.025 554.425,373.575 564.325,376.05 572.425,376.2 577.9,376.275 582.55,375.225 581.95,375.9 620.425,405.375 635.65,417.075 650.95,428.625 655,431.7 659.05,434.775 L650.05,448.275 M624.55,410.25 L614.05,421.725" test="RightBum"/>
    </g>
    <g id="LeftBum">
      <path id="Layer1_0_1_STROKES" stroke="#FEB7AE" stroke-width="3" stroke-linejoin="round" stroke-linecap="round" fill="none" d="M112.65,150 Q134.175,136.05 156.675,125.025 179.025,114.15 200.1,107.175 227.325,98.175 245.55,98.25 268.5,98.325 285.075,103.95 304.575,110.625 319.65,126.3 326.85,133.725 328.65,149.85 330,161.625 328.35,175.8 327.075,186.525 319.95,195.675 315.75,201 306.075,211.95 307.575,213.45 308.925,214.875 315.525,221.925 320.7,231.3 324.225,237.675 326.1,245.775 327.75,252.9 328.2,261.375 328.875,274.575 326.55,287.7 326.025,290.475 325.35,293.25 316.35,332.775 293.7,356.25 276.3,374.25 253.575,385.5 253.275,385.65 235.95,393.6 225.9,398.25 219.675,402.3 210.375,408.3 203.175,413.925 196.65,419.025 188.7,426.3 181.875,432.45 179.475,439.5 176.55,447.975 181.65,454.05 183.225,456 188.625,458.775 194.025,461.55 193.65,460.275 M223.2,199.8 Q237.675,188.925 258.9,189.6 279.6,190.275 293.7,201.3 301.05,207.075 306.075,211.95 M1.2,243.3 Q6.675,243.15 14.55,244.275 19.05,244.95 27.9,246.375 34.275,247.2 43.2,248.025 48.3,248.475 58.5,249.3 65.1,249.825 73.5,251.925 75.15,252.3 78.375,252.525 80.55,252.6 81.75,253.425 84.6,255.375 91.2,269.25 98.1,283.8 101.7,294.6 104.775,303.9 108.825,321.075 110.625,328.65 114.75,339.075 120,352.35 121.425,356.775 121.875,358.125 123.9,366.975 126,375.525 127.2,376.8 129.225,379.05 128.85,380.025 128.85,380.175 131.85,380.775 136.725,381.75 142.8,387.075 148.875,392.25 152.4,398.55 156.375,405.375 155.1,409.95 153.6,415.275 145.2,416.025 141.075,418.125 134.025,416.55 126.15,414.225 122.625,413.775 115.35,412.8 105.9,414.675 99.825,415.65 96.975,416.25 92.25,417.3 88.5,419.4 85.725,421.05 82.125,423.825 80.1,425.4 76.125,428.625 74.025,425.55 76.575,418.875 80.025,411.675 81.075,409.35 81.9,407.475 84.675,404.85 87.375,402.15 88.05,400.65 89.325,397.95 87.6,390.075 86.925,386.925 84.75,379.35 83.175,373.5 79.275,366.75 76.95,362.775 71.7,355.125 M86.7,397.275 Q86.175,397.65 78.225,401.1 71.925,403.8 70.125,406.575 67.125,411.375 66.6,415.65 65.775,422.775 69.15,436.275 69.525,437.775 69.975,439.2 70.95,442.275 72.3,445.2 73.875,448.725 76.05,452.025 77.4,454.125 86.7,465.75 M71.7,355.125 Q70.425,353.175 65.775,347.325 62.1,342.525 60.15,339.225 58.8,336.45 57.975,334.95 56.55,332.1 55.2,331.275 53.625,330.3 49.8,330.225 45.6,330.375 44.175,330.3 39.675,330.075 32.925,330.525 22.35,331.275 21.675,331.275 4.05,332.1 -7.35,330.375 -10.275,330 -17.55,327.225 -23.925,324.75 -27.825,324.75 M102.15,465.3 Q98.7,465 95.1,461.325 92.1,458.25 90.15,454.275 87.975,449.7 87.075,445.35 87.075,445.275 87.075,445.2 86.325,441.825 86.55,439.2 86.625,437.625 87.075,436.35 89.55,428.775 96.75,424.05 100.725,421.425 111.15,417.3" test="LeftBum"/>
      <path id="Layer1_0_2_STROKES" stroke="#0FF" stroke-width="3" stroke-linejoin="round" stroke-linecap="round" fill="none" d="M112.65,150 L118.425,153.6 Q125.475,158.175 131.625,163.65 151.425,181.05 155.325,199.8 158.55,214.8 165.975,248.325 171.375,278.775 169.2,303.3 166.125,336.825 164.4,346.275 161.7,361.2 155.325,369.75 L143.7,385.8 M71.7,355.125 L69.15,392.25 86.7,397.275 M-6.3,196.275 Q5.4,193.2 33.675,183.15 58.725,174.3 73.65,171.075 81.375,169.425 87.75,166.2 92.7,163.65 100.35,158.325 106.5,154.05 112.65,150" test="LeftBum"/>
    </g>
  </g>
</svg>