<?xml version="1.0" encoding="utf-8"?>
<svg id="EdithAnim08" image-rendering="inherit" baseProfile="basic" version="1.1" x="0px" y="0px" width="800" height="600" xmlns="http://www.w3.org/2000/svg" xmlns:xlink="http://www.w3.org/1999/xlink">
  <g id="No-Rear-To-Rearf193r1" overflow="visible">
    <g id="RightBum">
      <path id="Layer2_0_1_STROKES" stroke="#F0F" stroke-width="3" stroke-linejoin="round" stroke-linecap="round" fill="none" d="M716.825,168.075 L725.075,200.475 Q732.95,236.1 731.075,252.525 728.9,271.5 724.775,292.875 720.95,312.825 716.825,327.525 714.2,336.9 711.5,346.875 710.975,348.225 710.525,348.825 L735.05,342.75 M778.325,193.275 L696.95,156.975 M778.325,327.525 L806.825,323.775 M703.55,333.75 L704.3,336.825 Q705.95,342.825 707.825,347.1 709.25,350.325 710.525,348.825" test="RightBum"/>
      <path id="Layer2_0_2_STROKES" stroke="#F90" stroke-width="3" stroke-linejoin="round" stroke-linecap="round" fill="none" d="M735.05,342.75 L737.375,329.25 Q738.275,324 739.025,310.95 739.775,296.475 740.75,289.35 744.125,262.875 756.875,253.275 764,247.875 770.975,245.4 776.525,243.375 782,243.225 786.875,243.15 792.875,245.25 M696.95,156.975 Q612.125,119.025 592.325,111.225 579.875,106.35 569.225,103.95 558.05,101.475 548.975,101.775 529.925,102.45 515.375,115.275 499.7,128.925 492.125,146.925 484.1,166.125 488,184.275 491.3,199.875 502.925,209.625 508.775,214.5 514.025,216.525 530.975,205.875 547.85,205.275 M735.05,342.75 L727.4,387.225 Q727.925,388.05 727.325,387.6 L725.375,398.775 Q720.725,400.125 715.4,402.975 704.6,408.675 700.85,416.025 697.475,422.625 697.025,428.625 696.725,432.45 697.625,436.05 700.4,447.525 715.325,450.225 729.2,452.775 739.025,446.025 744.275,442.35 749.825,435.75 754.25,431.025 756.65,429.45 757.475,428.925 758.375,428.625 760.55,427.95 763.1,428.625 764.9,429.075 766.85,430.275 773.3,434.025 774.875,433.425 775.175,433.35 778.325,428.775 780.725,425.4 777.35,420.225 774.875,416.4 770.975,413.7 770.675,413.475 770.375,413.25 765.725,411.375 763.85,410.025 760.625,407.625 760.325,400.725 760.025,393.9 769.175,353.625 L778.325,314.775 781.625,314.925 Q786.875,315.075 796.85,314.775 M712.1,336.825 L705.275,333 Q704.375,333.375 703.55,333.75 698.75,335.775 696.35,336.825 701.15,351.375 717.575,374.025 721.325,379.2 726.35,385.8 727.025,386.7 727.4,387.225 L727.325,387.6 Q726.95,387.375 726.35,386.775 M696.35,336.825 Q690.275,339.6 687.5,342 684.05,344.925 683.375,348.9 682.025,356.4 690.35,368.325 700.7,383.1 722.825,398.775 M703.55,333.75 L703.025,331.725 705.275,333 Q706.7,332.4 708.35,331.725 M514.025,216.525 Q509.9,219.075 505.775,222.225 491.975,232.95 485.45,242.25 481.475,247.95 480.2,253.125 476.675,266.775 477.2,278.775 477.725,290.775 481.025,305.55 482.975,310.275 485.45,315.075 486.2,316.575 487.025,318.075 497.975,338.4 513.275,352.725 529.625,368.025 551.225,373.575 561.125,376.05 569.225,376.2 574.7,376.275 579.35,375.225 578.75,375.9 617.225,405.375 632.45,417.075 647.75,428.625 651.8,431.7 655.85,434.775 L646.85,448.275 M621.35,410.25 L610.85,421.725" test="RightBum"/>
    </g>
    <g id="LeftBum">
      <path id="Layer1_0_1_STROKES" stroke="#FEB7AE" stroke-width="3" stroke-linejoin="round" stroke-linecap="round" fill="none" d="M115.9,150 Q137.425,136.05 159.925,125.025 182.275,114.15 203.35,107.175 230.575,98.175 248.8,98.25 271.75,98.325 288.325,103.95 307.825,110.625 322.9,126.3 330.1,133.725 331.9,149.85 333.25,161.625 331.6,175.8 330.325,186.525 323.2,195.675 319,201 309.325,211.95 310.825,213.45 312.175,214.875 318.775,221.925 323.95,231.3 327.475,237.675 329.35,245.775 331,252.9 331.45,261.375 332.125,274.575 329.8,287.7 329.275,290.475 328.6,293.25 319.6,332.775 296.95,356.25 279.55,374.25 256.825,385.5 256.525,385.65 239.2,393.6 229.15,398.25 222.925,402.3 213.625,408.3 206.425,413.925 199.9,419.025 191.95,426.3 185.125,432.45 182.725,439.5 179.8,447.975 184.9,454.05 186.475,456 191.875,458.775 197.275,461.55 196.9,460.275 M226.45,199.8 Q240.925,188.925 262.15,189.6 282.85,190.275 296.95,201.3 304.3,207.075 309.325,211.95 M4.45,243.3 Q9.925,243.15 17.8,244.275 22.3,244.95 31.15,246.375 37.525,247.2 46.45,248.025 51.55,248.475 61.75,249.3 68.35,249.825 76.75,251.925 78.4,252.3 81.625,252.525 83.8,252.6 85,253.425 87.85,255.375 94.45,269.25 101.35,283.8 104.95,294.6 108.025,303.9 112.075,321.075 113.875,328.65 118,339.075 123.25,352.35 124.675,356.775 125.125,358.125 127.15,366.975 129.25,375.525 130.45,376.8 132.475,379.05 132.1,380.025 132.1,380.175 135.1,380.775 139.975,381.75 146.05,387.075 152.125,392.25 155.65,398.55 159.625,405.375 158.35,409.95 156.85,415.275 148.45,416.025 144.325,418.125 137.275,416.55 129.4,414.225 125.875,413.775 118.6,412.8 109.15,414.675 103.075,415.65 100.225,416.25 95.5,417.3 91.75,419.4 88.975,421.05 85.375,423.825 83.35,425.4 79.375,428.625 77.275,425.55 79.825,418.875 83.275,411.675 84.325,409.35 85.15,407.475 87.925,404.85 90.625,402.15 91.3,400.65 92.575,397.95 90.85,390.075 90.175,386.925 88,379.35 86.425,373.5 82.525,366.75 80.2,362.775 74.95,355.125 M89.95,397.275 Q89.425,397.65 81.475,401.1 75.175,403.8 73.375,406.575 70.375,411.375 69.85,415.65 69.025,422.775 72.4,436.275 72.775,437.775 73.225,439.2 74.2,442.275 75.55,445.2 77.125,448.725 79.3,452.025 80.65,454.125 89.95,465.75 M74.95,355.125 Q73.675,353.175 69.025,347.325 65.35,342.525 63.4,339.225 62.05,336.45 61.225,334.95 59.8,332.1 58.45,331.275 56.875,330.3 53.05,330.225 48.85,330.375 47.425,330.3 42.925,330.075 36.175,330.525 25.6,331.275 24.925,331.275 7.3,332.1 -4.1,330.375 -7.025,330 -14.3,327.225 -20.675,324.75 -24.575,324.75 M105.4,465.3 Q101.95,465 98.35,461.325 95.35,458.25 93.4,454.275 91.225,449.7 90.325,445.35 90.325,445.275 90.325,445.2 89.575,441.825 89.8,439.2 89.875,437.625 90.325,436.35 92.8,428.775 100,424.05 103.975,421.425 114.4,417.3" test="LeftBum"/>
      <path id="Layer1_0_2_STROKES" stroke="#0FF" stroke-width="3" stroke-linejoin="round" stroke-linecap="round" fill="none" d="M115.9,150 L121.675,153.6 Q128.725,158.175 134.875,163.65 154.675,181.05 158.575,199.8 161.8,214.8 169.225,248.325 174.625,278.775 172.45,303.3 169.375,336.825 167.65,346.275 164.95,361.2 158.575,369.75 L146.95,385.8 M74.95,355.125 L72.4,392.25 89.95,397.275 M-3.05,196.275 Q8.65,193.2 36.925,183.15 61.975,174.3 76.9,171.075 84.625,169.425 91,166.2 95.95,163.65 103.6,158.325 109.75,154.05 115.9,150" test="LeftBum"/>
    </g>
  </g>
</svg>