<?xml version="1.0" encoding="utf-8"?>
<svg id="EdithAnim08" image-rendering="inherit" baseProfile="basic" version="1.1" x="0px" y="0px" width="800" height="600" xmlns="http://www.w3.org/2000/svg" xmlns:xlink="http://www.w3.org/1999/xlink">
  <g id="No-Rear-To-Rearf196r1" overflow="visible">
    <g id="RightBum">
      <path id="Layer2_0_1_STROKES" stroke="#F0F" stroke-width="3" stroke-linejoin="round" stroke-linecap="round" fill="none" d="M713.725,168.075 L721.975,200.475 Q729.85,236.1 727.975,252.525 725.8,271.5 721.675,292.875 717.85,312.825 713.725,327.525 711.1,336.9 708.4,346.875 707.875,348.225 707.425,348.825 L731.95,342.75 M775.225,193.275 L693.85,156.975 M775.225,327.525 L803.725,323.775 M700.45,333.75 L701.2,336.825 Q702.85,342.825 704.725,347.1 706.15,350.325 707.425,348.825" test="RightBum"/>
      <path id="Layer2_0_2_STROKES" stroke="#F90" stroke-width="3" stroke-linejoin="round" stroke-linecap="round" fill="none" d="M731.95,342.75 L734.275,329.25 Q735.175,324 735.925,310.95 736.675,296.475 737.65,289.35 741.025,262.875 753.775,253.275 760.9,247.875 767.875,245.4 773.425,243.375 778.9,243.225 783.775,243.15 789.775,245.25 M693.85,156.975 Q609.025,119.025 589.225,111.225 576.775,106.35 566.125,103.95 554.95,101.475 545.875,101.775 526.825,102.45 512.275,115.275 496.6,128.925 489.025,146.925 481,166.125 484.9,184.275 488.2,199.875 499.825,209.625 505.675,214.5 510.925,216.525 527.875,205.875 544.75,205.275 M731.95,342.75 L724.3,387.225 Q724.825,388.05 724.225,387.6 L722.275,398.775 Q717.625,400.125 712.3,402.975 701.5,408.675 697.75,416.025 694.375,422.625 693.925,428.625 693.625,432.45 694.525,436.05 697.3,447.525 712.225,450.225 726.1,452.775 735.925,446.025 741.175,442.35 746.725,435.75 751.15,431.025 753.55,429.45 754.375,428.925 755.275,428.625 757.45,427.95 760,428.625 761.8,429.075 763.75,430.275 770.2,434.025 771.775,433.425 772.075,433.35 775.225,428.775 777.625,425.4 774.25,420.225 771.775,416.4 767.875,413.7 767.575,413.475 767.275,413.25 762.625,411.375 760.75,410.025 757.525,407.625 757.225,400.725 756.925,393.9 766.075,353.625 L775.225,314.775 778.525,314.925 Q783.775,315.075 793.75,314.775 M709,336.825 L702.175,333 Q701.275,333.375 700.45,333.75 695.65,335.775 693.25,336.825 698.05,351.375 714.475,374.025 718.225,379.2 723.25,385.8 723.925,386.7 724.3,387.225 L724.225,387.6 Q723.85,387.375 723.25,386.775 M693.25,336.825 Q687.175,339.6 684.4,342 680.95,344.925 680.275,348.9 678.925,356.4 687.25,368.325 697.6,383.1 719.725,398.775 M700.45,333.75 L699.925,331.725 702.175,333 Q703.6,332.4 705.25,331.725 M510.925,216.525 Q506.8,219.075 502.675,222.225 488.875,232.95 482.35,242.25 478.375,247.95 477.1,253.125 473.575,266.775 474.1,278.775 474.625,290.775 477.925,305.55 479.875,310.275 482.35,315.075 483.1,316.575 483.925,318.075 494.875,338.4 510.175,352.725 526.525,368.025 548.125,373.575 558.025,376.05 566.125,376.2 571.6,376.275 576.25,375.225 575.65,375.9 614.125,405.375 629.35,417.075 644.65,428.625 648.7,431.7 652.75,434.775 L643.75,448.275 M618.25,410.25 L607.75,421.725" test="RightBum"/>
    </g>
    <g id="LeftBum">
      <path id="Layer1_0_1_STROKES" stroke="#FEB7AE" stroke-width="3" stroke-linejoin="round" stroke-linecap="round" fill="none" d="M119.05,150 Q140.575,136.05 163.075,125.025 185.425,114.15 206.5,107.175 233.725,98.175 251.95,98.25 274.9,98.325 291.475,103.95 310.975,110.625 326.05,126.3 333.25,133.725 335.05,149.85 336.4,161.625 334.75,175.8 333.475,186.525 326.35,195.675 322.15,201 312.475,211.95 313.975,213.45 315.325,214.875 321.925,221.925 327.1,231.3 330.625,237.675 332.5,245.775 334.15,252.9 334.6,261.375 335.275,274.575 332.95,287.7 332.425,290.475 331.75,293.25 322.75,332.775 300.1,356.25 282.7,374.25 259.975,385.5 259.675,385.65 242.35,393.6 232.3,398.25 226.075,402.3 216.775,408.3 209.575,413.925 203.05,419.025 195.1,426.3 188.275,432.45 185.875,439.5 182.95,447.975 188.05,454.05 189.625,456 195.025,458.775 200.425,461.55 200.05,460.275 M229.6,199.8 Q244.075,188.925 265.3,189.6 286,190.275 300.1,201.3 307.45,207.075 312.475,211.95 M7.6,243.3 Q13.075,243.15 20.95,244.275 25.45,244.95 34.3,246.375 40.675,247.2 49.6,248.025 54.7,248.475 64.9,249.3 71.5,249.825 79.9,251.925 81.55,252.3 84.775,252.525 86.95,252.6 88.15,253.425 91,255.375 97.6,269.25 104.5,283.8 108.1,294.6 111.175,303.9 115.225,321.075 117.025,328.65 121.15,339.075 126.4,352.35 127.825,356.775 128.275,358.125 130.3,366.975 132.4,375.525 133.6,376.8 135.625,379.05 135.25,380.025 135.25,380.175 138.25,380.775 143.125,381.75 149.2,387.075 155.275,392.25 158.8,398.55 162.775,405.375 161.5,409.95 160,415.275 151.6,416.025 147.475,418.125 140.425,416.55 132.55,414.225 129.025,413.775 121.75,412.8 112.3,414.675 106.225,415.65 103.375,416.25 98.65,417.3 94.9,419.4 92.125,421.05 88.525,423.825 86.5,425.4 82.525,428.625 80.425,425.55 82.975,418.875 86.425,411.675 87.475,409.35 88.3,407.475 91.075,404.85 93.775,402.15 94.45,400.65 95.725,397.95 94,390.075 93.325,386.925 91.15,379.35 89.575,373.5 85.675,366.75 83.35,362.775 78.1,355.125 M93.1,397.275 Q92.575,397.65 84.625,401.1 78.325,403.8 76.525,406.575 73.525,411.375 73,415.65 72.175,422.775 75.55,436.275 75.925,437.775 76.375,439.2 77.35,442.275 78.7,445.2 80.275,448.725 82.45,452.025 83.8,454.125 93.1,465.75 M78.1,355.125 Q76.825,353.175 72.175,347.325 68.5,342.525 66.55,339.225 65.2,336.45 64.375,334.95 62.95,332.1 61.6,331.275 60.025,330.3 56.2,330.225 52,330.375 50.575,330.3 46.075,330.075 39.325,330.525 28.75,331.275 28.075,331.275 10.45,332.1 -.95,330.375 -3.875,330 -11.15,327.225 -17.525,324.75 -21.425,324.75 M108.55,465.3 Q105.1,465 101.5,461.325 98.5,458.25 96.55,454.275 94.375,449.7 93.475,445.35 93.475,445.275 93.475,445.2 92.725,441.825 92.95,439.2 93.025,437.625 93.475,436.35 95.95,428.775 103.15,424.05 107.125,421.425 117.55,417.3" test="LeftBum"/>
      <path id="Layer1_0_2_STROKES" stroke="#0FF" stroke-width="3" stroke-linejoin="round" stroke-linecap="round" fill="none" d="M119.05,150 L124.825,153.6 Q131.875,158.175 138.025,163.65 157.825,181.05 161.725,199.8 164.95,214.8 172.375,248.325 177.775,278.775 175.6,303.3 172.525,336.825 170.8,346.275 168.1,361.2 161.725,369.75 L150.1,385.8 M78.1,355.125 L75.55,392.25 93.1,397.275 M0.1,196.275 Q11.8,193.2 40.075,183.15 65.125,174.3 80.05,171.075 87.775,169.425 94.15,166.2 99.1,163.65 106.75,158.325 112.9,154.05 119.05,150" test="LeftBum"/>
    </g>
  </g>
</svg>