<?xml version="1.0" encoding="utf-8"?>
<svg id="EdithAnim08" image-rendering="inherit" baseProfile="basic" version="1.1" x="0px" y="0px" width="800" height="600" xmlns="http://www.w3.org/2000/svg" xmlns:xlink="http://www.w3.org/1999/xlink">
  <g id="No-Rear-To-Rearf197r1" overflow="visible">
    <g id="RightBum">
      <path id="Layer2_0_1_STROKES" stroke="#F0F" stroke-width="3" stroke-linejoin="round" stroke-linecap="round" fill="none" d="M712.675,168.075 L720.925,200.475 Q728.8,236.1 726.925,252.525 724.75,271.5 720.625,292.875 716.8,312.825 712.675,327.525 710.05,336.9 707.35,346.875 706.825,348.225 706.375,348.825 L730.9,342.75 M774.175,193.275 L692.8,156.975 M774.175,327.525 L802.675,323.775 M699.4,333.75 L700.15,336.825 Q701.8,342.825 703.675,347.1 705.1,350.325 706.375,348.825" test="RightBum"/>
      <path id="Layer2_0_2_STROKES" stroke="#F90" stroke-width="3" stroke-linejoin="round" stroke-linecap="round" fill="none" d="M730.9,342.75 L733.225,329.25 Q734.125,324 734.875,310.95 735.625,296.475 736.6,289.35 739.975,262.875 752.725,253.275 759.85,247.875 766.825,245.4 772.375,243.375 777.85,243.225 782.725,243.15 788.725,245.25 M692.8,156.975 Q607.975,119.025 588.175,111.225 575.725,106.35 565.075,103.95 553.9,101.475 544.825,101.775 525.775,102.45 511.225,115.275 495.55,128.925 487.975,146.925 479.95,166.125 483.85,184.275 487.15,199.875 498.775,209.625 504.625,214.5 509.875,216.525 526.825,205.875 543.7,205.275 M730.9,342.75 L723.25,387.225 Q723.775,388.05 723.175,387.6 L721.225,398.775 Q716.575,400.125 711.25,402.975 700.45,408.675 696.7,416.025 693.325,422.625 692.875,428.625 692.575,432.45 693.475,436.05 696.25,447.525 711.175,450.225 725.05,452.775 734.875,446.025 740.125,442.35 745.675,435.75 750.1,431.025 752.5,429.45 753.325,428.925 754.225,428.625 756.4,427.95 758.95,428.625 760.75,429.075 762.7,430.275 769.15,434.025 770.725,433.425 771.025,433.35 774.175,428.775 776.575,425.4 773.2,420.225 770.725,416.4 766.825,413.7 766.525,413.475 766.225,413.25 761.575,411.375 759.7,410.025 756.475,407.625 756.175,400.725 755.875,393.9 765.025,353.625 L774.175,314.775 777.475,314.925 Q782.725,315.075 792.7,314.775 M707.95,336.825 L701.125,333 Q700.225,333.375 699.4,333.75 694.6,335.775 692.2,336.825 697,351.375 713.425,374.025 717.175,379.2 722.2,385.8 722.875,386.7 723.25,387.225 L723.175,387.6 Q722.8,387.375 722.2,386.775 M692.2,336.825 Q686.125,339.6 683.35,342 679.9,344.925 679.225,348.9 677.875,356.4 686.2,368.325 696.55,383.1 718.675,398.775 M699.4,333.75 L698.875,331.725 701.125,333 Q702.55,332.4 704.2,331.725 M509.875,216.525 Q505.75,219.075 501.625,222.225 487.825,232.95 481.3,242.25 477.325,247.95 476.05,253.125 472.525,266.775 473.05,278.775 473.575,290.775 476.875,305.55 478.825,310.275 481.3,315.075 482.05,316.575 482.875,318.075 493.825,338.4 509.125,352.725 525.475,368.025 547.075,373.575 556.975,376.05 565.075,376.2 570.55,376.275 575.2,375.225 574.6,375.9 613.075,405.375 628.3,417.075 643.6,428.625 647.65,431.7 651.7,434.775 L642.7,448.275 M617.2,410.25 L606.7,421.725" test="RightBum"/>
    </g>
    <g id="LeftBum">
      <path id="Layer1_0_1_STROKES" stroke="#FEB7AE" stroke-width="3" stroke-linejoin="round" stroke-linecap="round" fill="none" d="M120.1,150 Q141.625,136.05 164.125,125.025 186.475,114.15 207.55,107.175 234.775,98.175 253,98.25 275.95,98.325 292.525,103.95 312.025,110.625 327.1,126.3 334.3,133.725 336.1,149.85 337.45,161.625 335.8,175.8 334.525,186.525 327.4,195.675 323.2,201 313.525,211.95 315.025,213.45 316.375,214.875 322.975,221.925 328.15,231.3 331.675,237.675 333.55,245.775 335.2,252.9 335.65,261.375 336.325,274.575 334,287.7 333.475,290.475 332.8,293.25 323.8,332.775 301.15,356.25 283.75,374.25 261.025,385.5 260.725,385.65 243.4,393.6 233.35,398.25 227.125,402.3 217.825,408.3 210.625,413.925 204.1,419.025 196.15,426.3 189.325,432.45 186.925,439.5 184,447.975 189.1,454.05 190.675,456 196.075,458.775 201.475,461.55 201.1,460.275 M230.65,199.8 Q245.125,188.925 266.35,189.6 287.05,190.275 301.15,201.3 308.5,207.075 313.525,211.95 M8.65,243.3 Q14.125,243.15 22,244.275 26.5,244.95 35.35,246.375 41.725,247.2 50.65,248.025 55.75,248.475 65.95,249.3 72.55,249.825 80.95,251.925 82.6,252.3 85.825,252.525 88,252.6 89.2,253.425 92.05,255.375 98.65,269.25 105.55,283.8 109.15,294.6 112.225,303.9 116.275,321.075 118.075,328.65 122.2,339.075 127.45,352.35 128.875,356.775 129.325,358.125 131.35,366.975 133.45,375.525 134.65,376.8 136.675,379.05 136.3,380.025 136.3,380.175 139.3,380.775 144.175,381.75 150.25,387.075 156.325,392.25 159.85,398.55 163.825,405.375 162.55,409.95 161.05,415.275 152.65,416.025 148.525,418.125 141.475,416.55 133.6,414.225 130.075,413.775 122.8,412.8 113.35,414.675 107.275,415.65 104.425,416.25 99.7,417.3 95.95,419.4 93.175,421.05 89.575,423.825 87.55,425.4 83.575,428.625 81.475,425.55 84.025,418.875 87.475,411.675 88.525,409.35 89.35,407.475 92.125,404.85 94.825,402.15 95.5,400.65 96.775,397.95 95.05,390.075 94.375,386.925 92.2,379.35 90.625,373.5 86.725,366.75 84.4,362.775 79.15,355.125 M94.15,397.275 Q93.625,397.65 85.675,401.1 79.375,403.8 77.575,406.575 74.575,411.375 74.05,415.65 73.225,422.775 76.6,436.275 76.975,437.775 77.425,439.2 78.4,442.275 79.75,445.2 81.325,448.725 83.5,452.025 84.85,454.125 94.15,465.75 M79.15,355.125 Q77.875,353.175 73.225,347.325 69.55,342.525 67.6,339.225 66.25,336.45 65.425,334.95 64,332.1 62.65,331.275 61.075,330.3 57.25,330.225 53.05,330.375 51.625,330.3 47.125,330.075 40.375,330.525 29.8,331.275 29.125,331.275 11.5,332.1 .1,330.375 -2.825,330 -10.1,327.225 -16.475,324.75 -20.375,324.75 M109.6,465.3 Q106.15,465 102.55,461.325 99.55,458.25 97.6,454.275 95.425,449.7 94.525,445.35 94.525,445.275 94.525,445.2 93.775,441.825 94,439.2 94.075,437.625 94.525,436.35 97,428.775 104.2,424.05 108.175,421.425 118.6,417.3" test="LeftBum"/>
      <path id="Layer1_0_2_STROKES" stroke="#0FF" stroke-width="3" stroke-linejoin="round" stroke-linecap="round" fill="none" d="M120.1,150 L125.875,153.6 Q132.925,158.175 139.075,163.65 158.875,181.05 162.775,199.8 166,214.8 173.425,248.325 178.825,278.775 176.65,303.3 173.575,336.825 171.85,346.275 169.15,361.2 162.775,369.75 L151.15,385.8 M79.15,355.125 L76.6,392.25 94.15,397.275 M1.15,196.275 Q12.85,193.2 41.125,183.15 66.175,174.3 81.1,171.075 88.825,169.425 95.2,166.2 100.15,163.65 107.8,158.325 113.95,154.05 120.1,150" test="LeftBum"/>
    </g>
  </g>
</svg>