<?xml version="1.0" encoding="utf-8"?>
<svg id="EdithAnim08" image-rendering="inherit" baseProfile="basic" version="1.1" x="0px" y="0px" width="800" height="600" xmlns="http://www.w3.org/2000/svg" xmlns:xlink="http://www.w3.org/1999/xlink">
  <g id="No-Rear-To-Rearf198r1" overflow="visible">
    <g id="RightBum">
      <path id="Layer2_0_1_STROKES" stroke="#F0F" stroke-width="3" stroke-linejoin="round" stroke-linecap="round" fill="none" d="M711.675,168.075 L719.925,200.475 Q727.8,236.1 725.925,252.525 723.75,271.5 719.625,292.875 715.8,312.825 711.675,327.525 709.05,336.9 706.35,346.875 705.825,348.225 705.375,348.825 L729.9,342.75 M773.175,193.275 L691.8,156.975 M773.175,327.525 L801.675,323.775 M698.4,333.75 L699.15,336.825 Q700.8,342.825 702.675,347.1 704.1,350.325 705.375,348.825" test="RightBum"/>
      <path id="Layer2_0_2_STROKES" stroke="#F90" stroke-width="3" stroke-linejoin="round" stroke-linecap="round" fill="none" d="M729.9,342.75 L732.225,329.25 Q733.125,324 733.875,310.95 734.625,296.475 735.6,289.35 738.975,262.875 751.725,253.275 758.85,247.875 765.825,245.4 771.375,243.375 776.85,243.225 781.725,243.15 787.725,245.25 M691.8,156.975 Q606.975,119.025 587.175,111.225 574.725,106.35 564.075,103.95 552.9,101.475 543.825,101.775 524.775,102.45 510.225,115.275 494.55,128.925 486.975,146.925 478.95,166.125 482.85,184.275 486.15,199.875 497.775,209.625 503.625,214.5 508.875,216.525 525.825,205.875 542.7,205.275 M729.9,342.75 L722.25,387.225 Q722.775,388.05 722.175,387.6 L720.225,398.775 Q715.575,400.125 710.25,402.975 699.45,408.675 695.7,416.025 692.325,422.625 691.875,428.625 691.575,432.45 692.475,436.05 695.25,447.525 710.175,450.225 724.05,452.775 733.875,446.025 739.125,442.35 744.675,435.75 749.1,431.025 751.5,429.45 752.325,428.925 753.225,428.625 755.4,427.95 757.95,428.625 759.75,429.075 761.7,430.275 768.15,434.025 769.725,433.425 770.025,433.35 773.175,428.775 775.575,425.4 772.2,420.225 769.725,416.4 765.825,413.7 765.525,413.475 765.225,413.25 760.575,411.375 758.7,410.025 755.475,407.625 755.175,400.725 754.875,393.9 764.025,353.625 L773.175,314.775 776.475,314.925 Q781.725,315.075 791.7,314.775 M706.95,336.825 L700.125,333 Q699.225,333.375 698.4,333.75 693.6,335.775 691.2,336.825 696,351.375 712.425,374.025 716.175,379.2 721.2,385.8 721.875,386.7 722.25,387.225 L722.175,387.6 Q721.8,387.375 721.2,386.775 M691.2,336.825 Q685.125,339.6 682.35,342 678.9,344.925 678.225,348.9 676.875,356.4 685.2,368.325 695.55,383.1 717.675,398.775 M698.4,333.75 L697.875,331.725 700.125,333 Q701.55,332.4 703.2,331.725 M508.875,216.525 Q504.75,219.075 500.625,222.225 486.825,232.95 480.3,242.25 476.325,247.95 475.05,253.125 471.525,266.775 472.05,278.775 472.575,290.775 475.875,305.55 477.825,310.275 480.3,315.075 481.05,316.575 481.875,318.075 492.825,338.4 508.125,352.725 524.475,368.025 546.075,373.575 555.975,376.05 564.075,376.2 569.55,376.275 574.2,375.225 573.6,375.9 612.075,405.375 627.3,417.075 642.6,428.625 646.65,431.7 650.7,434.775 L641.7,448.275 M616.2,410.25 L605.7,421.725" test="RightBum"/>
    </g>
    <g id="LeftBum">
      <path id="Layer1_0_1_STROKES" stroke="#FEB7AE" stroke-width="3" stroke-linejoin="round" stroke-linecap="round" fill="none" d="M121.15,150 Q142.675,136.05 165.175,125.025 187.525,114.15 208.6,107.175 235.825,98.175 254.05,98.25 277,98.325 293.575,103.95 313.075,110.625 328.15,126.3 335.35,133.725 337.15,149.85 338.5,161.625 336.85,175.8 335.575,186.525 328.45,195.675 324.25,201 314.575,211.95 316.075,213.45 317.425,214.875 324.025,221.925 329.2,231.3 332.725,237.675 334.6,245.775 336.25,252.9 336.7,261.375 337.375,274.575 335.05,287.7 334.525,290.475 333.85,293.25 324.85,332.775 302.2,356.25 284.8,374.25 262.075,385.5 261.775,385.65 244.45,393.6 234.4,398.25 228.175,402.3 218.875,408.3 211.675,413.925 205.15,419.025 197.2,426.3 190.375,432.45 187.975,439.5 185.05,447.975 190.15,454.05 191.725,456 197.125,458.775 202.525,461.55 202.15,460.275 M231.7,199.8 Q246.175,188.925 267.4,189.6 288.1,190.275 302.2,201.3 309.55,207.075 314.575,211.95 M9.7,243.3 Q15.175,243.15 23.05,244.275 27.55,244.95 36.4,246.375 42.775,247.2 51.7,248.025 56.8,248.475 67,249.3 73.6,249.825 82,251.925 83.65,252.3 86.875,252.525 89.05,252.6 90.25,253.425 93.1,255.375 99.7,269.25 106.6,283.8 110.2,294.6 113.275,303.9 117.325,321.075 119.125,328.65 123.25,339.075 128.5,352.35 129.925,356.775 130.375,358.125 132.4,366.975 134.5,375.525 135.7,376.8 137.725,379.05 137.35,380.025 137.35,380.175 140.35,380.775 145.225,381.75 151.3,387.075 157.375,392.25 160.9,398.55 164.875,405.375 163.6,409.95 162.1,415.275 153.7,416.025 149.575,418.125 142.525,416.55 134.65,414.225 131.125,413.775 123.85,412.8 114.4,414.675 108.325,415.65 105.475,416.25 100.75,417.3 97,419.4 94.225,421.05 90.625,423.825 88.6,425.4 84.625,428.625 82.525,425.55 85.075,418.875 88.525,411.675 89.575,409.35 90.4,407.475 93.175,404.85 95.875,402.15 96.55,400.65 97.825,397.95 96.1,390.075 95.425,386.925 93.25,379.35 91.675,373.5 87.775,366.75 85.45,362.775 80.2,355.125 M95.2,397.275 Q94.675,397.65 86.725,401.1 80.425,403.8 78.625,406.575 75.625,411.375 75.1,415.65 74.275,422.775 77.65,436.275 78.025,437.775 78.475,439.2 79.45,442.275 80.8,445.2 82.375,448.725 84.55,452.025 85.9,454.125 95.2,465.75 M80.2,355.125 Q78.925,353.175 74.275,347.325 70.6,342.525 68.65,339.225 67.3,336.45 66.475,334.95 65.05,332.1 63.7,331.275 62.125,330.3 58.3,330.225 54.1,330.375 52.675,330.3 48.175,330.075 41.425,330.525 30.85,331.275 30.175,331.275 12.55,332.1 1.15,330.375 -1.775,330 -9.05,327.225 -15.425,324.75 -19.325,324.75 M110.65,465.3 Q107.2,465 103.6,461.325 100.6,458.25 98.65,454.275 96.475,449.7 95.575,445.35 95.575,445.275 95.575,445.2 94.825,441.825 95.05,439.2 95.125,437.625 95.575,436.35 98.05,428.775 105.25,424.05 109.225,421.425 119.65,417.3" test="LeftBum"/>
      <path id="Layer1_0_2_STROKES" stroke="#0FF" stroke-width="3" stroke-linejoin="round" stroke-linecap="round" fill="none" d="M121.15,150 L126.925,153.6 Q133.975,158.175 140.125,163.65 159.925,181.05 163.825,199.8 167.05,214.8 174.475,248.325 179.875,278.775 177.7,303.3 174.625,336.825 172.9,346.275 170.2,361.2 163.825,369.75 L152.2,385.8 M80.2,355.125 L77.65,392.25 95.2,397.275 M2.2,196.275 Q13.9,193.2 42.175,183.15 67.225,174.3 82.15,171.075 89.875,169.425 96.25,166.2 101.2,163.65 108.85,158.325 115,154.05 121.15,150" test="LeftBum"/>
    </g>
  </g>
</svg>