<?xml version="1.0" encoding="utf-8"?>
<svg id="EdithAnim08" image-rendering="inherit" baseProfile="basic" version="1.1" x="0px" y="0px" width="800" height="600" xmlns="http://www.w3.org/2000/svg" xmlns:xlink="http://www.w3.org/1999/xlink">
  <g id="No-Rear-To-Rearf2r1" overflow="visible">
    <g id="RightBum">
      <path id="Layer2_0_1_STROKES" stroke="#F0F" stroke-width="3" stroke-linejoin="round" stroke-linecap="round" fill="none" d="M1044.875,168.075 L1053.125,200.475 Q1061,236.1 1059.125,252.525 1056.95,271.5 1052.825,292.875 1049,312.825 1044.875,327.525 1042.25,336.9 1039.55,346.875 1039.025,348.225 1038.575,348.825 L1063.1,342.75 M1106.375,193.275 L1025,156.975 M1106.375,327.525 L1134.875,323.775 M1031.6,333.75 L1032.35,336.825 Q1034,342.825 1035.875,347.1 1037.3,350.325 1038.575,348.825" test="RightBum"/>
      <path id="Layer2_0_2_STROKES" stroke="#F90" stroke-width="3" stroke-linejoin="round" stroke-linecap="round" fill="none" d="M1063.1,342.75 L1065.425,329.25 Q1066.325,324 1067.075,310.95 1067.825,296.475 1068.8,289.35 1072.175,262.875 1084.925,253.275 1092.05,247.875 1099.025,245.4 1104.575,243.375 1110.05,243.225 1114.925,243.15 1120.925,245.25 M1025,156.975 Q940.175,119.025 920.375,111.225 907.925,106.35 897.275,103.95 886.1,101.475 877.025,101.775 857.975,102.45 843.425,115.275 827.75,128.925 820.175,146.925 812.15,166.125 816.05,184.275 819.35,199.875 830.975,209.625 836.825,214.5 842.075,216.525 859.025,205.875 875.9,205.275 M1063.1,342.75 L1055.45,387.225 Q1055.975,388.05 1055.375,387.6 L1053.425,398.775 Q1048.775,400.125 1043.45,402.975 1032.65,408.675 1028.9,416.025 1025.525,422.625 1025.075,428.625 1024.775,432.45 1025.675,436.05 1028.45,447.525 1043.375,450.225 1057.25,452.775 1067.075,446.025 1072.325,442.35 1077.875,435.75 1082.3,431.025 1084.7,429.45 1085.525,428.925 1086.425,428.625 1088.6,427.95 1091.15,428.625 1092.95,429.075 1094.9,430.275 1101.35,434.025 1102.925,433.425 1103.225,433.35 1106.375,428.775 1108.775,425.4 1105.4,420.225 1102.925,416.4 1099.025,413.7 1098.725,413.475 1098.425,413.25 1093.775,411.375 1091.9,410.025 1088.675,407.625 1088.375,400.725 1088.075,393.9 1097.225,353.625 L1106.375,314.775 1109.675,314.925 Q1114.925,315.075 1124.9,314.775 M1040.15,336.825 L1033.325,333 Q1032.425,333.375 1031.6,333.75 1026.8,335.775 1024.4,336.825 1029.2,351.375 1045.625,374.025 1049.375,379.2 1054.4,385.8 1055.075,386.7 1055.45,387.225 L1055.375,387.6 Q1055,387.375 1054.4,386.775 M1024.4,336.825 Q1018.325,339.6 1015.55,342 1012.1,344.925 1011.425,348.9 1010.075,356.4 1018.4,368.325 1028.75,383.1 1050.875,398.775 M1031.6,333.75 L1031.075,331.725 1033.325,333 Q1034.75,332.4 1036.4,331.725 M842.075,216.525 Q837.95,219.075 833.825,222.225 820.025,232.95 813.5,242.25 809.525,247.95 808.25,253.125 804.725,266.775 805.25,278.775 805.775,290.775 809.075,305.55 811.025,310.275 813.5,315.075 814.25,316.575 815.075,318.075 826.025,338.4 841.325,352.725 857.675,368.025 879.275,373.575 889.175,376.05 897.275,376.2 902.75,376.275 907.4,375.225 906.8,375.9 945.275,405.375 960.5,417.075 975.8,428.625 979.85,431.7 983.9,434.775 L974.9,448.275 M949.4,410.25 L938.9,421.725" test="RightBum"/>
    </g>
    <g id="LeftBum">
      <path id="Layer1_0_1_STROKES" stroke="#FEB7AE" stroke-width="3" stroke-linejoin="round" stroke-linecap="round" fill="none" d="M-217.45,150 Q-195.925,136.05 -173.425,125.025 -151.075,114.15 -130,107.175 -102.775,98.175 -84.55,98.25 -61.6,98.325 -45.025,103.95 -25.525,110.625 -10.45,126.3 -3.25,133.725 -1.45,149.85 -.1,161.625 -1.75,175.8 -3.025,186.525 -10.15,195.675 -14.35,201 -24.025,211.95 -22.525,213.45 -21.175,214.875 -14.575,221.925 -9.4,231.3 -5.875,237.675 -4,245.775 -2.35,252.9 -1.9,261.375 -1.225,274.575 -3.55,287.7 -4.075,290.475 -4.75,293.25 -13.75,332.775 -36.4,356.25 -53.8,374.25 -76.525,385.5 -76.825,385.65 -94.15,393.6 -104.2,398.25 -110.425,402.3 -119.725,408.3 -126.925,413.925 -133.45,419.025 -141.4,426.3 -148.225,432.45 -150.625,439.5 -153.55,447.975 -148.45,454.05 -146.875,456 -141.475,458.775 -136.075,461.55 -136.45,460.275 M-106.9,199.8 Q-92.425,188.925 -71.2,189.6 -50.5,190.275 -36.4,201.3 -29.05,207.075 -24.025,211.95 M-328.9,243.3 Q-323.425,243.15 -315.55,244.275 -311.05,244.95 -302.2,246.375 -295.825,247.2 -286.9,248.025 -281.8,248.475 -271.6,249.3 -265,249.825 -256.6,251.925 -254.95,252.3 -251.725,252.525 -249.55,252.6 -248.35,253.425 -245.5,255.375 -238.9,269.25 -232,283.8 -228.4,294.6 -225.325,303.9 -221.275,321.075 -219.475,328.65 -215.35,339.075 -210.1,352.35 -208.675,356.775 -208.225,358.125 -206.2,366.975 -204.1,375.525 -202.9,376.8 -200.875,379.05 -201.25,380.025 -201.25,380.175 -198.25,380.775 -193.375,381.75 -187.3,387.075 -181.225,392.25 -177.7,398.55 -173.725,405.375 -175,409.95 -176.5,415.275 -184.9,416.025 -189.025,418.125 -196.075,416.55 -203.95,414.225 -207.475,413.775 -214.75,412.8 -224.2,414.675 -230.275,415.65 -233.125,416.25 -237.85,417.3 -241.6,419.4 -244.375,421.05 -247.975,423.825 -250,425.4 -253.975,428.625 -256.075,425.55 -253.525,418.875 -250.075,411.675 -249.025,409.35 -248.2,407.475 -245.425,404.85 -242.725,402.15 -242.05,400.65 -240.775,397.95 -242.5,390.075 -243.175,386.925 -245.35,379.35 -246.925,373.5 -250.825,366.75 -253.15,362.775 -258.4,355.125 M-243.4,397.275 Q-243.925,397.65 -251.875,401.1 -258.175,403.8 -259.975,406.575 -262.975,411.375 -263.5,415.65 -264.325,422.775 -260.95,436.275 -260.575,437.775 -260.125,439.2 -259.15,442.275 -257.8,445.2 -256.225,448.725 -254.05,452.025 -252.7,454.125 -243.4,465.75 M-258.4,355.125 Q-259.675,353.175 -264.325,347.325 -268,342.525 -269.95,339.225 -271.3,336.45 -272.125,334.95 -273.55,332.1 -274.9,331.275 -276.475,330.3 -280.3,330.225 -284.5,330.375 -285.925,330.3 -290.425,330.075 -297.175,330.525 -307.75,331.275 -308.425,331.275 -326.05,332.1 -337.45,330.375 -340.375,330 -347.65,327.225 -354.025,324.75 -357.925,324.75 M-227.95,465.3 Q-231.4,465 -235,461.325 -238,458.25 -239.95,454.275 -242.125,449.7 -243.025,445.35 -243.025,445.275 -243.025,445.2 -243.775,441.825 -243.55,439.2 -243.475,437.625 -243.025,436.35 -240.55,428.775 -233.35,424.05 -229.375,421.425 -218.95,417.3" test="LeftBum"/>
      <path id="Layer1_0_2_STROKES" stroke="#0FF" stroke-width="3" stroke-linejoin="round" stroke-linecap="round" fill="none" d="M-217.45,150 L-211.675,153.6 Q-204.625,158.175 -198.475,163.65 -178.675,181.05 -174.775,199.8 -171.55,214.8 -164.125,248.325 -158.725,278.775 -160.9,303.3 -163.975,336.825 -165.7,346.275 -168.4,361.2 -174.775,369.75 L-186.4,385.8 M-258.4,355.125 L-260.95,392.25 -243.4,397.275 M-336.4,196.275 Q-324.7,193.2 -296.425,183.15 -271.375,174.3 -256.45,171.075 -248.725,169.425 -242.35,166.2 -237.4,163.65 -229.75,158.325 -223.6,154.05 -217.45,150" test="LeftBum"/>
    </g>
  </g>
</svg>