<?xml version="1.0" encoding="utf-8"?>
<svg id="EdithAnim08" image-rendering="inherit" baseProfile="basic" version="1.1" x="0px" y="0px" width="800" height="600" xmlns="http://www.w3.org/2000/svg" xmlns:xlink="http://www.w3.org/1999/xlink">
  <g id="No-Rear-To-Rearf20r1" overflow="visible">
    <g id="RightBum">
      <path id="Layer2_0_1_STROKES" stroke="#F0F" stroke-width="3" stroke-linejoin="round" stroke-linecap="round" fill="none" d="M1003.075,168.075 L1011.325,200.475 Q1019.2,236.1 1017.325,252.525 1015.15,271.5 1011.025,292.875 1007.2,312.825 1003.075,327.525 1000.45,336.9 997.75,346.875 997.225,348.225 996.775,348.825 L1021.3,342.75 M1064.575,193.275 L983.2,156.975 M1064.575,327.525 L1093.075,323.775 M989.8,333.75 L990.55,336.825 Q992.2,342.825 994.075,347.1 995.5,350.325 996.775,348.825" test="RightBum"/>
      <path id="Layer2_0_2_STROKES" stroke="#F90" stroke-width="3" stroke-linejoin="round" stroke-linecap="round" fill="none" d="M1021.3,342.75 L1023.625,329.25 Q1024.525,324 1025.275,310.95 1026.025,296.475 1027,289.35 1030.375,262.875 1043.125,253.275 1050.25,247.875 1057.225,245.4 1062.775,243.375 1068.25,243.225 1073.125,243.15 1079.125,245.25 M983.2,156.975 Q898.375,119.025 878.575,111.225 866.125,106.35 855.475,103.95 844.3,101.475 835.225,101.775 816.175,102.45 801.625,115.275 785.95,128.925 778.375,146.925 770.35,166.125 774.25,184.275 777.55,199.875 789.175,209.625 795.025,214.5 800.275,216.525 817.225,205.875 834.1,205.275 M1021.3,342.75 L1013.65,387.225 Q1014.175,388.05 1013.575,387.6 L1011.625,398.775 Q1006.975,400.125 1001.65,402.975 990.85,408.675 987.1,416.025 983.725,422.625 983.275,428.625 982.975,432.45 983.875,436.05 986.65,447.525 1001.575,450.225 1015.45,452.775 1025.275,446.025 1030.525,442.35 1036.075,435.75 1040.5,431.025 1042.9,429.45 1043.725,428.925 1044.625,428.625 1046.8,427.95 1049.35,428.625 1051.15,429.075 1053.1,430.275 1059.55,434.025 1061.125,433.425 1061.425,433.35 1064.575,428.775 1066.975,425.4 1063.6,420.225 1061.125,416.4 1057.225,413.7 1056.925,413.475 1056.625,413.25 1051.975,411.375 1050.1,410.025 1046.875,407.625 1046.575,400.725 1046.275,393.9 1055.425,353.625 L1064.575,314.775 1067.875,314.925 Q1073.125,315.075 1083.1,314.775 M998.35,336.825 L991.525,333 Q990.625,333.375 989.8,333.75 985,335.775 982.6,336.825 987.4,351.375 1003.825,374.025 1007.575,379.2 1012.6,385.8 1013.275,386.7 1013.65,387.225 L1013.575,387.6 Q1013.2,387.375 1012.6,386.775 M982.6,336.825 Q976.525,339.6 973.75,342 970.3,344.925 969.625,348.9 968.275,356.4 976.6,368.325 986.95,383.1 1009.075,398.775 M989.8,333.75 L989.275,331.725 991.525,333 Q992.95,332.4 994.6,331.725 M800.275,216.525 Q796.15,219.075 792.025,222.225 778.225,232.95 771.7,242.25 767.725,247.95 766.45,253.125 762.925,266.775 763.45,278.775 763.975,290.775 767.275,305.55 769.225,310.275 771.7,315.075 772.45,316.575 773.275,318.075 784.225,338.4 799.525,352.725 815.875,368.025 837.475,373.575 847.375,376.05 855.475,376.2 860.95,376.275 865.6,375.225 865,375.9 903.475,405.375 918.7,417.075 934,428.625 938.05,431.7 942.1,434.775 L933.1,448.275 M907.6,410.25 L897.1,421.725" test="RightBum"/>
    </g>
    <g id="LeftBum">
      <path id="Layer1_0_1_STROKES" stroke="#FEB7AE" stroke-width="3" stroke-linejoin="round" stroke-linecap="round" fill="none" d="M-175,150 Q-153.475,136.05 -130.975,125.025 -108.625,114.15 -87.55,107.175 -60.325,98.175 -42.1,98.25 -19.15,98.325 -2.575,103.95 16.925,110.625 32,126.3 39.2,133.725 41,149.85 42.35,161.625 40.7,175.8 39.425,186.525 32.3,195.675 28.1,201 18.425,211.95 19.925,213.45 21.275,214.875 27.875,221.925 33.05,231.3 36.575,237.675 38.45,245.775 40.1,252.9 40.55,261.375 41.225,274.575 38.9,287.7 38.375,290.475 37.7,293.25 28.7,332.775 6.05,356.25 -11.35,374.25 -34.075,385.5 -34.375,385.65 -51.7,393.6 -61.75,398.25 -67.975,402.3 -77.275,408.3 -84.475,413.925 -91,419.025 -98.95,426.3 -105.775,432.45 -108.175,439.5 -111.1,447.975 -106,454.05 -104.425,456 -99.025,458.775 -93.625,461.55 -94,460.275 M-64.45,199.8 Q-49.975,188.925 -28.75,189.6 -8.05,190.275 6.05,201.3 13.4,207.075 18.425,211.95 M-286.45,243.3 Q-280.975,243.15 -273.1,244.275 -268.6,244.95 -259.75,246.375 -253.375,247.2 -244.45,248.025 -239.35,248.475 -229.15,249.3 -222.55,249.825 -214.15,251.925 -212.5,252.3 -209.275,252.525 -207.1,252.6 -205.9,253.425 -203.05,255.375 -196.45,269.25 -189.55,283.8 -185.95,294.6 -182.875,303.9 -178.825,321.075 -177.025,328.65 -172.9,339.075 -167.65,352.35 -166.225,356.775 -165.775,358.125 -163.75,366.975 -161.65,375.525 -160.45,376.8 -158.425,379.05 -158.8,380.025 -158.8,380.175 -155.8,380.775 -150.925,381.75 -144.85,387.075 -138.775,392.25 -135.25,398.55 -131.275,405.375 -132.55,409.95 -134.05,415.275 -142.45,416.025 -146.575,418.125 -153.625,416.55 -161.5,414.225 -165.025,413.775 -172.3,412.8 -181.75,414.675 -187.825,415.65 -190.675,416.25 -195.4,417.3 -199.15,419.4 -201.925,421.05 -205.525,423.825 -207.55,425.4 -211.525,428.625 -213.625,425.55 -211.075,418.875 -207.625,411.675 -206.575,409.35 -205.75,407.475 -202.975,404.85 -200.275,402.15 -199.6,400.65 -198.325,397.95 -200.05,390.075 -200.725,386.925 -202.9,379.35 -204.475,373.5 -208.375,366.75 -210.7,362.775 -215.95,355.125 M-200.95,397.275 Q-201.475,397.65 -209.425,401.1 -215.725,403.8 -217.525,406.575 -220.525,411.375 -221.05,415.65 -221.875,422.775 -218.5,436.275 -218.125,437.775 -217.675,439.2 -216.7,442.275 -215.35,445.2 -213.775,448.725 -211.6,452.025 -210.25,454.125 -200.95,465.75 M-215.95,355.125 Q-217.225,353.175 -221.875,347.325 -225.55,342.525 -227.5,339.225 -228.85,336.45 -229.675,334.95 -231.1,332.1 -232.45,331.275 -234.025,330.3 -237.85,330.225 -242.05,330.375 -243.475,330.3 -247.975,330.075 -254.725,330.525 -265.3,331.275 -265.975,331.275 -283.6,332.1 -295,330.375 -297.925,330 -305.2,327.225 -311.575,324.75 -315.475,324.75 M-185.5,465.3 Q-188.95,465 -192.55,461.325 -195.55,458.25 -197.5,454.275 -199.675,449.7 -200.575,445.35 -200.575,445.275 -200.575,445.2 -201.325,441.825 -201.1,439.2 -201.025,437.625 -200.575,436.35 -198.1,428.775 -190.9,424.05 -186.925,421.425 -176.5,417.3" test="LeftBum"/>
      <path id="Layer1_0_2_STROKES" stroke="#0FF" stroke-width="3" stroke-linejoin="round" stroke-linecap="round" fill="none" d="M-175,150 L-169.225,153.6 Q-162.175,158.175 -156.025,163.65 -136.225,181.05 -132.325,199.8 -129.1,214.8 -121.675,248.325 -116.275,278.775 -118.45,303.3 -121.525,336.825 -123.25,346.275 -125.95,361.2 -132.325,369.75 L-143.95,385.8 M-215.95,355.125 L-218.5,392.25 -200.95,397.275 M-293.95,196.275 Q-282.25,193.2 -253.975,183.15 -228.925,174.3 -214,171.075 -206.275,169.425 -199.9,166.2 -194.95,163.65 -187.3,158.325 -181.15,154.05 -175,150" test="LeftBum"/>
    </g>
  </g>
</svg>