<?xml version="1.0" encoding="utf-8"?>
<svg id="EdithAnim08" image-rendering="inherit" baseProfile="basic" version="1.1" x="0px" y="0px" width="800" height="600" xmlns="http://www.w3.org/2000/svg" xmlns:xlink="http://www.w3.org/1999/xlink">
  <g id="No-Rear-To-Rearf202r1" overflow="visible">
    <g id="RightBum">
      <path id="Layer2_0_1_STROKES" stroke="#F0F" stroke-width="3" stroke-linejoin="round" stroke-linecap="round" fill="none" d="M707.675,168.075 L715.925,200.475 Q723.8,236.1 721.925,252.525 719.75,271.5 715.625,292.875 711.8,312.825 707.675,327.525 705.05,336.9 702.35,346.875 701.825,348.225 701.375,348.825 L725.9,342.75 M769.175,193.275 L687.8,156.975 M769.175,327.525 L797.675,323.775 M694.4,333.75 L695.15,336.825 Q696.8,342.825 698.675,347.1 700.1,350.325 701.375,348.825" test="RightBum"/>
      <path id="Layer2_0_2_STROKES" stroke="#F90" stroke-width="3" stroke-linejoin="round" stroke-linecap="round" fill="none" d="M725.9,342.75 L728.225,329.25 Q729.125,324 729.875,310.95 730.625,296.475 731.6,289.35 734.975,262.875 747.725,253.275 754.85,247.875 761.825,245.4 767.375,243.375 772.85,243.225 777.725,243.15 783.725,245.25 M687.8,156.975 Q602.975,119.025 583.175,111.225 570.725,106.35 560.075,103.95 548.9,101.475 539.825,101.775 520.775,102.45 506.225,115.275 490.55,128.925 482.975,146.925 474.95,166.125 478.85,184.275 482.15,199.875 493.775,209.625 499.625,214.5 504.875,216.525 521.825,205.875 538.7,205.275 M725.9,342.75 L718.25,387.225 Q718.775,388.05 718.175,387.6 L716.225,398.775 Q711.575,400.125 706.25,402.975 695.45,408.675 691.7,416.025 688.325,422.625 687.875,428.625 687.575,432.45 688.475,436.05 691.25,447.525 706.175,450.225 720.05,452.775 729.875,446.025 735.125,442.35 740.675,435.75 745.1,431.025 747.5,429.45 748.325,428.925 749.225,428.625 751.4,427.95 753.95,428.625 755.75,429.075 757.7,430.275 764.15,434.025 765.725,433.425 766.025,433.35 769.175,428.775 771.575,425.4 768.2,420.225 765.725,416.4 761.825,413.7 761.525,413.475 761.225,413.25 756.575,411.375 754.7,410.025 751.475,407.625 751.175,400.725 750.875,393.9 760.025,353.625 L769.175,314.775 772.475,314.925 Q777.725,315.075 787.7,314.775 M702.95,336.825 L696.125,333 Q695.225,333.375 694.4,333.75 689.6,335.775 687.2,336.825 692,351.375 708.425,374.025 712.175,379.2 717.2,385.8 717.875,386.7 718.25,387.225 L718.175,387.6 Q717.8,387.375 717.2,386.775 M687.2,336.825 Q681.125,339.6 678.35,342 674.9,344.925 674.225,348.9 672.875,356.4 681.2,368.325 691.55,383.1 713.675,398.775 M694.4,333.75 L693.875,331.725 696.125,333 Q697.55,332.4 699.2,331.725 M504.875,216.525 Q500.75,219.075 496.625,222.225 482.825,232.95 476.3,242.25 472.325,247.95 471.05,253.125 467.525,266.775 468.05,278.775 468.575,290.775 471.875,305.55 473.825,310.275 476.3,315.075 477.05,316.575 477.875,318.075 488.825,338.4 504.125,352.725 520.475,368.025 542.075,373.575 551.975,376.05 560.075,376.2 565.55,376.275 570.2,375.225 569.6,375.9 608.075,405.375 623.3,417.075 638.6,428.625 642.65,431.7 646.7,434.775 L637.7,448.275 M612.2,410.25 L601.7,421.725" test="RightBum"/>
    </g>
    <g id="LeftBum">
      <path id="Layer1_0_1_STROKES" stroke="#FEB7AE" stroke-width="3" stroke-linejoin="round" stroke-linecap="round" fill="none" d="M125.2,150 Q146.725,136.05 169.225,125.025 191.575,114.15 212.65,107.175 239.875,98.175 258.1,98.25 281.05,98.325 297.625,103.95 317.125,110.625 332.2,126.3 339.4,133.725 341.2,149.85 342.55,161.625 340.9,175.8 339.625,186.525 332.5,195.675 328.3,201 318.625,211.95 320.125,213.45 321.475,214.875 328.075,221.925 333.25,231.3 336.775,237.675 338.65,245.775 340.3,252.9 340.75,261.375 341.425,274.575 339.1,287.7 338.575,290.475 337.9,293.25 328.9,332.775 306.25,356.25 288.85,374.25 266.125,385.5 265.825,385.65 248.5,393.6 238.45,398.25 232.225,402.3 222.925,408.3 215.725,413.925 209.2,419.025 201.25,426.3 194.425,432.45 192.025,439.5 189.1,447.975 194.2,454.05 195.775,456 201.175,458.775 206.575,461.55 206.2,460.275 M235.75,199.8 Q250.225,188.925 271.45,189.6 292.15,190.275 306.25,201.3 313.6,207.075 318.625,211.95 M13.75,243.3 Q19.225,243.15 27.1,244.275 31.6,244.95 40.45,246.375 46.825,247.2 55.75,248.025 60.85,248.475 71.05,249.3 77.65,249.825 86.05,251.925 87.7,252.3 90.925,252.525 93.1,252.6 94.3,253.425 97.15,255.375 103.75,269.25 110.65,283.8 114.25,294.6 117.325,303.9 121.375,321.075 123.175,328.65 127.3,339.075 132.55,352.35 133.975,356.775 134.425,358.125 136.45,366.975 138.55,375.525 139.75,376.8 141.775,379.05 141.4,380.025 141.4,380.175 144.4,380.775 149.275,381.75 155.35,387.075 161.425,392.25 164.95,398.55 168.925,405.375 167.65,409.95 166.15,415.275 157.75,416.025 153.625,418.125 146.575,416.55 138.7,414.225 135.175,413.775 127.9,412.8 118.45,414.675 112.375,415.65 109.525,416.25 104.8,417.3 101.05,419.4 98.275,421.05 94.675,423.825 92.65,425.4 88.675,428.625 86.575,425.55 89.125,418.875 92.575,411.675 93.625,409.35 94.45,407.475 97.225,404.85 99.925,402.15 100.6,400.65 101.875,397.95 100.15,390.075 99.475,386.925 97.3,379.35 95.725,373.5 91.825,366.75 89.5,362.775 84.25,355.125 M99.25,397.275 Q98.725,397.65 90.775,401.1 84.475,403.8 82.675,406.575 79.675,411.375 79.15,415.65 78.325,422.775 81.7,436.275 82.075,437.775 82.525,439.2 83.5,442.275 84.85,445.2 86.425,448.725 88.6,452.025 89.95,454.125 99.25,465.75 M84.25,355.125 Q82.975,353.175 78.325,347.325 74.65,342.525 72.7,339.225 71.35,336.45 70.525,334.95 69.1,332.1 67.75,331.275 66.175,330.3 62.35,330.225 58.15,330.375 56.725,330.3 52.225,330.075 45.475,330.525 34.9,331.275 34.225,331.275 16.6,332.1 5.2,330.375 2.275,330 -5,327.225 -11.375,324.75 -15.275,324.75 M114.7,465.3 Q111.25,465 107.65,461.325 104.65,458.25 102.7,454.275 100.525,449.7 99.625,445.35 99.625,445.275 99.625,445.2 98.875,441.825 99.1,439.2 99.175,437.625 99.625,436.35 102.1,428.775 109.3,424.05 113.275,421.425 123.7,417.3" test="LeftBum"/>
      <path id="Layer1_0_2_STROKES" stroke="#0FF" stroke-width="3" stroke-linejoin="round" stroke-linecap="round" fill="none" d="M125.2,150 L130.975,153.6 Q138.025,158.175 144.175,163.65 163.975,181.05 167.875,199.8 171.1,214.8 178.525,248.325 183.925,278.775 181.75,303.3 178.675,336.825 176.95,346.275 174.25,361.2 167.875,369.75 L156.25,385.8 M84.25,355.125 L81.7,392.25 99.25,397.275 M6.25,196.275 Q17.95,193.2 46.225,183.15 71.275,174.3 86.2,171.075 93.925,169.425 100.3,166.2 105.25,163.65 112.9,158.325 119.05,154.05 125.2,150" test="LeftBum"/>
    </g>
  </g>
</svg>