<?xml version="1.0" encoding="utf-8"?>
<svg id="EdithAnim08" image-rendering="inherit" baseProfile="basic" version="1.1" x="0px" y="0px" width="800" height="600" xmlns="http://www.w3.org/2000/svg" xmlns:xlink="http://www.w3.org/1999/xlink">
  <g id="No-Rear-To-Rearf203r1" overflow="visible">
    <g id="RightBum">
      <path id="Layer2_0_1_STROKES" stroke="#F0F" stroke-width="3" stroke-linejoin="round" stroke-linecap="round" fill="none" d="M706.675,168.075 L714.925,200.475 Q722.8,236.1 720.925,252.525 718.75,271.5 714.625,292.875 710.8,312.825 706.675,327.525 704.05,336.9 701.35,346.875 700.825,348.225 700.375,348.825 L724.9,342.75 M768.175,193.275 L686.8,156.975 M768.175,327.525 L796.675,323.775 M693.4,333.75 L694.15,336.825 Q695.8,342.825 697.675,347.1 699.1,350.325 700.375,348.825" test="RightBum"/>
      <path id="Layer2_0_2_STROKES" stroke="#F90" stroke-width="3" stroke-linejoin="round" stroke-linecap="round" fill="none" d="M724.9,342.75 L727.225,329.25 Q728.125,324 728.875,310.95 729.625,296.475 730.6,289.35 733.975,262.875 746.725,253.275 753.85,247.875 760.825,245.4 766.375,243.375 771.85,243.225 776.725,243.15 782.725,245.25 M686.8,156.975 Q601.975,119.025 582.175,111.225 569.725,106.35 559.075,103.95 547.9,101.475 538.825,101.775 519.775,102.45 505.225,115.275 489.55,128.925 481.975,146.925 473.95,166.125 477.85,184.275 481.15,199.875 492.775,209.625 498.625,214.5 503.875,216.525 520.825,205.875 537.7,205.275 M724.9,342.75 L717.25,387.225 Q717.775,388.05 717.175,387.6 L715.225,398.775 Q710.575,400.125 705.25,402.975 694.45,408.675 690.7,416.025 687.325,422.625 686.875,428.625 686.575,432.45 687.475,436.05 690.25,447.525 705.175,450.225 719.05,452.775 728.875,446.025 734.125,442.35 739.675,435.75 744.1,431.025 746.5,429.45 747.325,428.925 748.225,428.625 750.4,427.95 752.95,428.625 754.75,429.075 756.7,430.275 763.15,434.025 764.725,433.425 765.025,433.35 768.175,428.775 770.575,425.4 767.2,420.225 764.725,416.4 760.825,413.7 760.525,413.475 760.225,413.25 755.575,411.375 753.7,410.025 750.475,407.625 750.175,400.725 749.875,393.9 759.025,353.625 L768.175,314.775 771.475,314.925 Q776.725,315.075 786.7,314.775 M701.95,336.825 L695.125,333 Q694.225,333.375 693.4,333.75 688.6,335.775 686.2,336.825 691,351.375 707.425,374.025 711.175,379.2 716.2,385.8 716.875,386.7 717.25,387.225 L717.175,387.6 Q716.8,387.375 716.2,386.775 M686.2,336.825 Q680.125,339.6 677.35,342 673.9,344.925 673.225,348.9 671.875,356.4 680.2,368.325 690.55,383.1 712.675,398.775 M693.4,333.75 L692.875,331.725 695.125,333 Q696.55,332.4 698.2,331.725 M503.875,216.525 Q499.75,219.075 495.625,222.225 481.825,232.95 475.3,242.25 471.325,247.95 470.05,253.125 466.525,266.775 467.05,278.775 467.575,290.775 470.875,305.55 472.825,310.275 475.3,315.075 476.05,316.575 476.875,318.075 487.825,338.4 503.125,352.725 519.475,368.025 541.075,373.575 550.975,376.05 559.075,376.2 564.55,376.275 569.2,375.225 568.6,375.9 607.075,405.375 622.3,417.075 637.6,428.625 641.65,431.7 645.7,434.775 L636.7,448.275 M611.2,410.25 L600.7,421.725" test="RightBum"/>
    </g>
    <g id="LeftBum">
      <path id="Layer1_0_1_STROKES" stroke="#FEB7AE" stroke-width="3" stroke-linejoin="round" stroke-linecap="round" fill="none" d="M126.25,150 Q147.775,136.05 170.275,125.025 192.625,114.15 213.7,107.175 240.925,98.175 259.15,98.25 282.1,98.325 298.675,103.95 318.175,110.625 333.25,126.3 340.45,133.725 342.25,149.85 343.6,161.625 341.95,175.8 340.675,186.525 333.55,195.675 329.35,201 319.675,211.95 321.175,213.45 322.525,214.875 329.125,221.925 334.3,231.3 337.825,237.675 339.7,245.775 341.35,252.9 341.8,261.375 342.475,274.575 340.15,287.7 339.625,290.475 338.95,293.25 329.95,332.775 307.3,356.25 289.9,374.25 267.175,385.5 266.875,385.65 249.55,393.6 239.5,398.25 233.275,402.3 223.975,408.3 216.775,413.925 210.25,419.025 202.3,426.3 195.475,432.45 193.075,439.5 190.15,447.975 195.25,454.05 196.825,456 202.225,458.775 207.625,461.55 207.25,460.275 M236.8,199.8 Q251.275,188.925 272.5,189.6 293.2,190.275 307.3,201.3 314.65,207.075 319.675,211.95 M14.8,243.3 Q20.275,243.15 28.15,244.275 32.65,244.95 41.5,246.375 47.875,247.2 56.8,248.025 61.9,248.475 72.1,249.3 78.7,249.825 87.1,251.925 88.75,252.3 91.975,252.525 94.15,252.6 95.35,253.425 98.2,255.375 104.8,269.25 111.7,283.8 115.3,294.6 118.375,303.9 122.425,321.075 124.225,328.65 128.35,339.075 133.6,352.35 135.025,356.775 135.475,358.125 137.5,366.975 139.6,375.525 140.8,376.8 142.825,379.05 142.45,380.025 142.45,380.175 145.45,380.775 150.325,381.75 156.4,387.075 162.475,392.25 166,398.55 169.975,405.375 168.7,409.95 167.2,415.275 158.8,416.025 154.675,418.125 147.625,416.55 139.75,414.225 136.225,413.775 128.95,412.8 119.5,414.675 113.425,415.65 110.575,416.25 105.85,417.3 102.1,419.4 99.325,421.05 95.725,423.825 93.7,425.4 89.725,428.625 87.625,425.55 90.175,418.875 93.625,411.675 94.675,409.35 95.5,407.475 98.275,404.85 100.975,402.15 101.65,400.65 102.925,397.95 101.2,390.075 100.525,386.925 98.35,379.35 96.775,373.5 92.875,366.75 90.55,362.775 85.3,355.125 M100.3,397.275 Q99.775,397.65 91.825,401.1 85.525,403.8 83.725,406.575 80.725,411.375 80.2,415.65 79.375,422.775 82.75,436.275 83.125,437.775 83.575,439.2 84.55,442.275 85.9,445.2 87.475,448.725 89.65,452.025 91,454.125 100.3,465.75 M85.3,355.125 Q84.025,353.175 79.375,347.325 75.7,342.525 73.75,339.225 72.4,336.45 71.575,334.95 70.15,332.1 68.8,331.275 67.225,330.3 63.4,330.225 59.2,330.375 57.775,330.3 53.275,330.075 46.525,330.525 35.95,331.275 35.275,331.275 17.65,332.1 6.25,330.375 3.325,330 -3.95,327.225 -10.325,324.75 -14.225,324.75 M115.75,465.3 Q112.3,465 108.7,461.325 105.7,458.25 103.75,454.275 101.575,449.7 100.675,445.35 100.675,445.275 100.675,445.2 99.925,441.825 100.15,439.2 100.225,437.625 100.675,436.35 103.15,428.775 110.35,424.05 114.325,421.425 124.75,417.3" test="LeftBum"/>
      <path id="Layer1_0_2_STROKES" stroke="#0FF" stroke-width="3" stroke-linejoin="round" stroke-linecap="round" fill="none" d="M126.25,150 L132.025,153.6 Q139.075,158.175 145.225,163.65 165.025,181.05 168.925,199.8 172.15,214.8 179.575,248.325 184.975,278.775 182.8,303.3 179.725,336.825 178,346.275 175.3,361.2 168.925,369.75 L157.3,385.8 M85.3,355.125 L82.75,392.25 100.3,397.275 M7.3,196.275 Q19,193.2 47.275,183.15 72.325,174.3 87.25,171.075 94.975,169.425 101.35,166.2 106.3,163.65 113.95,158.325 120.1,154.05 126.25,150" test="LeftBum"/>
    </g>
  </g>
</svg>