<?xml version="1.0" encoding="utf-8"?>
<svg id="EdithAnim08" image-rendering="inherit" baseProfile="basic" version="1.1" x="0px" y="0px" width="800" height="600" xmlns="http://www.w3.org/2000/svg" xmlns:xlink="http://www.w3.org/1999/xlink">
  <g id="No-Rear-To-Rearf204r1" overflow="visible">
    <g id="RightBum">
      <path id="Layer2_0_1_STROKES" stroke="#F0F" stroke-width="3" stroke-linejoin="round" stroke-linecap="round" fill="none" d="M705.725,168.075 L713.975,200.475 Q721.85,236.1 719.975,252.525 717.8,271.5 713.675,292.875 709.85,312.825 705.725,327.525 703.1,336.9 700.4,346.875 699.875,348.225 699.425,348.825 L723.95,342.75 M767.225,193.275 L685.85,156.975 M767.225,327.525 L795.725,323.775 M692.45,333.75 L693.2,336.825 Q694.85,342.825 696.725,347.1 698.15,350.325 699.425,348.825" test="RightBum"/>
      <path id="Layer2_0_2_STROKES" stroke="#F90" stroke-width="3" stroke-linejoin="round" stroke-linecap="round" fill="none" d="M723.95,342.75 L726.275,329.25 Q727.175,324 727.925,310.95 728.675,296.475 729.65,289.35 733.025,262.875 745.775,253.275 752.9,247.875 759.875,245.4 765.425,243.375 770.9,243.225 775.775,243.15 781.775,245.25 M685.85,156.975 Q601.025,119.025 581.225,111.225 568.775,106.35 558.125,103.95 546.95,101.475 537.875,101.775 518.825,102.45 504.275,115.275 488.6,128.925 481.025,146.925 473,166.125 476.9,184.275 480.2,199.875 491.825,209.625 497.675,214.5 502.925,216.525 519.875,205.875 536.75,205.275 M723.95,342.75 L716.3,387.225 Q716.825,388.05 716.225,387.6 L714.275,398.775 Q709.625,400.125 704.3,402.975 693.5,408.675 689.75,416.025 686.375,422.625 685.925,428.625 685.625,432.45 686.525,436.05 689.3,447.525 704.225,450.225 718.1,452.775 727.925,446.025 733.175,442.35 738.725,435.75 743.15,431.025 745.55,429.45 746.375,428.925 747.275,428.625 749.45,427.95 752,428.625 753.8,429.075 755.75,430.275 762.2,434.025 763.775,433.425 764.075,433.35 767.225,428.775 769.625,425.4 766.25,420.225 763.775,416.4 759.875,413.7 759.575,413.475 759.275,413.25 754.625,411.375 752.75,410.025 749.525,407.625 749.225,400.725 748.925,393.9 758.075,353.625 L767.225,314.775 770.525,314.925 Q775.775,315.075 785.75,314.775 M701,336.825 L694.175,333 Q693.275,333.375 692.45,333.75 687.65,335.775 685.25,336.825 690.05,351.375 706.475,374.025 710.225,379.2 715.25,385.8 715.925,386.7 716.3,387.225 L716.225,387.6 Q715.85,387.375 715.25,386.775 M685.25,336.825 Q679.175,339.6 676.4,342 672.95,344.925 672.275,348.9 670.925,356.4 679.25,368.325 689.6,383.1 711.725,398.775 M692.45,333.75 L691.925,331.725 694.175,333 Q695.6,332.4 697.25,331.725 M502.925,216.525 Q498.8,219.075 494.675,222.225 480.875,232.95 474.35,242.25 470.375,247.95 469.1,253.125 465.575,266.775 466.1,278.775 466.625,290.775 469.925,305.55 471.875,310.275 474.35,315.075 475.1,316.575 475.925,318.075 486.875,338.4 502.175,352.725 518.525,368.025 540.125,373.575 550.025,376.05 558.125,376.2 563.6,376.275 568.25,375.225 567.65,375.9 606.125,405.375 621.35,417.075 636.65,428.625 640.7,431.7 644.75,434.775 L635.75,448.275 M610.25,410.25 L599.75,421.725" test="RightBum"/>
    </g>
    <g id="LeftBum">
      <path id="Layer1_0_1_STROKES" stroke="#FEB7AE" stroke-width="3" stroke-linejoin="round" stroke-linecap="round" fill="none" d="M127.2,150 Q148.725,136.05 171.225,125.025 193.575,114.15 214.65,107.175 241.875,98.175 260.1,98.25 283.05,98.325 299.625,103.95 319.125,110.625 334.2,126.3 341.4,133.725 343.2,149.85 344.55,161.625 342.9,175.8 341.625,186.525 334.5,195.675 330.3,201 320.625,211.95 322.125,213.45 323.475,214.875 330.075,221.925 335.25,231.3 338.775,237.675 340.65,245.775 342.3,252.9 342.75,261.375 343.425,274.575 341.1,287.7 340.575,290.475 339.9,293.25 330.9,332.775 308.25,356.25 290.85,374.25 268.125,385.5 267.825,385.65 250.5,393.6 240.45,398.25 234.225,402.3 224.925,408.3 217.725,413.925 211.2,419.025 203.25,426.3 196.425,432.45 194.025,439.5 191.1,447.975 196.2,454.05 197.775,456 203.175,458.775 208.575,461.55 208.2,460.275 M237.75,199.8 Q252.225,188.925 273.45,189.6 294.15,190.275 308.25,201.3 315.6,207.075 320.625,211.95 M15.75,243.3 Q21.225,243.15 29.1,244.275 33.6,244.95 42.45,246.375 48.825,247.2 57.75,248.025 62.85,248.475 73.05,249.3 79.65,249.825 88.05,251.925 89.7,252.3 92.925,252.525 95.1,252.6 96.3,253.425 99.15,255.375 105.75,269.25 112.65,283.8 116.25,294.6 119.325,303.9 123.375,321.075 125.175,328.65 129.3,339.075 134.55,352.35 135.975,356.775 136.425,358.125 138.45,366.975 140.55,375.525 141.75,376.8 143.775,379.05 143.4,380.025 143.4,380.175 146.4,380.775 151.275,381.75 157.35,387.075 163.425,392.25 166.95,398.55 170.925,405.375 169.65,409.95 168.15,415.275 159.75,416.025 155.625,418.125 148.575,416.55 140.7,414.225 137.175,413.775 129.9,412.8 120.45,414.675 114.375,415.65 111.525,416.25 106.8,417.3 103.05,419.4 100.275,421.05 96.675,423.825 94.65,425.4 90.675,428.625 88.575,425.55 91.125,418.875 94.575,411.675 95.625,409.35 96.45,407.475 99.225,404.85 101.925,402.15 102.6,400.65 103.875,397.95 102.15,390.075 101.475,386.925 99.3,379.35 97.725,373.5 93.825,366.75 91.5,362.775 86.25,355.125 M101.25,397.275 Q100.725,397.65 92.775,401.1 86.475,403.8 84.675,406.575 81.675,411.375 81.15,415.65 80.325,422.775 83.7,436.275 84.075,437.775 84.525,439.2 85.5,442.275 86.85,445.2 88.425,448.725 90.6,452.025 91.95,454.125 101.25,465.75 M86.25,355.125 Q84.975,353.175 80.325,347.325 76.65,342.525 74.7,339.225 73.35,336.45 72.525,334.95 71.1,332.1 69.75,331.275 68.175,330.3 64.35,330.225 60.15,330.375 58.725,330.3 54.225,330.075 47.475,330.525 36.9,331.275 36.225,331.275 18.6,332.1 7.2,330.375 4.275,330 -3,327.225 -9.375,324.75 -13.275,324.75 M116.7,465.3 Q113.25,465 109.65,461.325 106.65,458.25 104.7,454.275 102.525,449.7 101.625,445.35 101.625,445.275 101.625,445.2 100.875,441.825 101.1,439.2 101.175,437.625 101.625,436.35 104.1,428.775 111.3,424.05 115.275,421.425 125.7,417.3" test="LeftBum"/>
      <path id="Layer1_0_2_STROKES" stroke="#0FF" stroke-width="3" stroke-linejoin="round" stroke-linecap="round" fill="none" d="M127.2,150 L132.975,153.6 Q140.025,158.175 146.175,163.65 165.975,181.05 169.875,199.8 173.1,214.8 180.525,248.325 185.925,278.775 183.75,303.3 180.675,336.825 178.95,346.275 176.25,361.2 169.875,369.75 L158.25,385.8 M86.25,355.125 L83.7,392.25 101.25,397.275 M8.25,196.275 Q19.95,193.2 48.225,183.15 73.275,174.3 88.2,171.075 95.925,169.425 102.3,166.2 107.25,163.65 114.9,158.325 121.05,154.05 127.2,150" test="LeftBum"/>
    </g>
  </g>
</svg>