<?xml version="1.0" encoding="utf-8"?>
<svg id="EdithAnim08" image-rendering="inherit" baseProfile="basic" version="1.1" x="0px" y="0px" width="800" height="600" xmlns="http://www.w3.org/2000/svg" xmlns:xlink="http://www.w3.org/1999/xlink">
  <g id="No-Rear-To-Rearf205r1" overflow="visible">
    <g id="RightBum">
      <path id="Layer2_0_1_STROKES" stroke="#F0F" stroke-width="3" stroke-linejoin="round" stroke-linecap="round" fill="none" d="M704.725,168.075 L712.975,200.475 Q720.85,236.1 718.975,252.525 716.8,271.5 712.675,292.875 708.85,312.825 704.725,327.525 702.1,336.9 699.4,346.875 698.875,348.225 698.425,348.825 L722.95,342.75 M766.225,193.275 L684.85,156.975 M766.225,327.525 L794.725,323.775 M691.45,333.75 L692.2,336.825 Q693.85,342.825 695.725,347.1 697.15,350.325 698.425,348.825" test="RightBum"/>
      <path id="Layer2_0_2_STROKES" stroke="#F90" stroke-width="3" stroke-linejoin="round" stroke-linecap="round" fill="none" d="M722.95,342.75 L725.275,329.25 Q726.175,324 726.925,310.95 727.675,296.475 728.65,289.35 732.025,262.875 744.775,253.275 751.9,247.875 758.875,245.4 764.425,243.375 769.9,243.225 774.775,243.15 780.775,245.25 M684.85,156.975 Q600.025,119.025 580.225,111.225 567.775,106.35 557.125,103.95 545.95,101.475 536.875,101.775 517.825,102.45 503.275,115.275 487.6,128.925 480.025,146.925 472,166.125 475.9,184.275 479.2,199.875 490.825,209.625 496.675,214.5 501.925,216.525 518.875,205.875 535.75,205.275 M722.95,342.75 L715.3,387.225 Q715.825,388.05 715.225,387.6 L713.275,398.775 Q708.625,400.125 703.3,402.975 692.5,408.675 688.75,416.025 685.375,422.625 684.925,428.625 684.625,432.45 685.525,436.05 688.3,447.525 703.225,450.225 717.1,452.775 726.925,446.025 732.175,442.35 737.725,435.75 742.15,431.025 744.55,429.45 745.375,428.925 746.275,428.625 748.45,427.95 751,428.625 752.8,429.075 754.75,430.275 761.2,434.025 762.775,433.425 763.075,433.35 766.225,428.775 768.625,425.4 765.25,420.225 762.775,416.4 758.875,413.7 758.575,413.475 758.275,413.25 753.625,411.375 751.75,410.025 748.525,407.625 748.225,400.725 747.925,393.9 757.075,353.625 L766.225,314.775 769.525,314.925 Q774.775,315.075 784.75,314.775 M700,336.825 L693.175,333 Q692.275,333.375 691.45,333.75 686.65,335.775 684.25,336.825 689.05,351.375 705.475,374.025 709.225,379.2 714.25,385.8 714.925,386.7 715.3,387.225 L715.225,387.6 Q714.85,387.375 714.25,386.775 M684.25,336.825 Q678.175,339.6 675.4,342 671.95,344.925 671.275,348.9 669.925,356.4 678.25,368.325 688.6,383.1 710.725,398.775 M691.45,333.75 L690.925,331.725 693.175,333 Q694.6,332.4 696.25,331.725 M501.925,216.525 Q497.8,219.075 493.675,222.225 479.875,232.95 473.35,242.25 469.375,247.95 468.1,253.125 464.575,266.775 465.1,278.775 465.625,290.775 468.925,305.55 470.875,310.275 473.35,315.075 474.1,316.575 474.925,318.075 485.875,338.4 501.175,352.725 517.525,368.025 539.125,373.575 549.025,376.05 557.125,376.2 562.6,376.275 567.25,375.225 566.65,375.9 605.125,405.375 620.35,417.075 635.65,428.625 639.7,431.7 643.75,434.775 L634.75,448.275 M609.25,410.25 L598.75,421.725" test="RightBum"/>
    </g>
    <g id="LeftBum">
      <path id="Layer1_0_1_STROKES" stroke="#FEB7AE" stroke-width="3" stroke-linejoin="round" stroke-linecap="round" fill="none" d="M128.2,150 Q149.725,136.05 172.225,125.025 194.575,114.15 215.65,107.175 242.875,98.175 261.1,98.25 284.05,98.325 300.625,103.95 320.125,110.625 335.2,126.3 342.4,133.725 344.2,149.85 345.55,161.625 343.9,175.8 342.625,186.525 335.5,195.675 331.3,201 321.625,211.95 323.125,213.45 324.475,214.875 331.075,221.925 336.25,231.3 339.775,237.675 341.65,245.775 343.3,252.9 343.75,261.375 344.425,274.575 342.1,287.7 341.575,290.475 340.9,293.25 331.9,332.775 309.25,356.25 291.85,374.25 269.125,385.5 268.825,385.65 251.5,393.6 241.45,398.25 235.225,402.3 225.925,408.3 218.725,413.925 212.2,419.025 204.25,426.3 197.425,432.45 195.025,439.5 192.1,447.975 197.2,454.05 198.775,456 204.175,458.775 209.575,461.55 209.2,460.275 M238.75,199.8 Q253.225,188.925 274.45,189.6 295.15,190.275 309.25,201.3 316.6,207.075 321.625,211.95 M16.75,243.3 Q22.225,243.15 30.1,244.275 34.6,244.95 43.45,246.375 49.825,247.2 58.75,248.025 63.85,248.475 74.05,249.3 80.65,249.825 89.05,251.925 90.7,252.3 93.925,252.525 96.1,252.6 97.3,253.425 100.15,255.375 106.75,269.25 113.65,283.8 117.25,294.6 120.325,303.9 124.375,321.075 126.175,328.65 130.3,339.075 135.55,352.35 136.975,356.775 137.425,358.125 139.45,366.975 141.55,375.525 142.75,376.8 144.775,379.05 144.4,380.025 144.4,380.175 147.4,380.775 152.275,381.75 158.35,387.075 164.425,392.25 167.95,398.55 171.925,405.375 170.65,409.95 169.15,415.275 160.75,416.025 156.625,418.125 149.575,416.55 141.7,414.225 138.175,413.775 130.9,412.8 121.45,414.675 115.375,415.65 112.525,416.25 107.8,417.3 104.05,419.4 101.275,421.05 97.675,423.825 95.65,425.4 91.675,428.625 89.575,425.55 92.125,418.875 95.575,411.675 96.625,409.35 97.45,407.475 100.225,404.85 102.925,402.15 103.6,400.65 104.875,397.95 103.15,390.075 102.475,386.925 100.3,379.35 98.725,373.5 94.825,366.75 92.5,362.775 87.25,355.125 M102.25,397.275 Q101.725,397.65 93.775,401.1 87.475,403.8 85.675,406.575 82.675,411.375 82.15,415.65 81.325,422.775 84.7,436.275 85.075,437.775 85.525,439.2 86.5,442.275 87.85,445.2 89.425,448.725 91.6,452.025 92.95,454.125 102.25,465.75 M87.25,355.125 Q85.975,353.175 81.325,347.325 77.65,342.525 75.7,339.225 74.35,336.45 73.525,334.95 72.1,332.1 70.75,331.275 69.175,330.3 65.35,330.225 61.15,330.375 59.725,330.3 55.225,330.075 48.475,330.525 37.9,331.275 37.225,331.275 19.6,332.1 8.2,330.375 5.275,330 -2,327.225 -8.375,324.75 -12.275,324.75 M117.7,465.3 Q114.25,465 110.65,461.325 107.65,458.25 105.7,454.275 103.525,449.7 102.625,445.35 102.625,445.275 102.625,445.2 101.875,441.825 102.1,439.2 102.175,437.625 102.625,436.35 105.1,428.775 112.3,424.05 116.275,421.425 126.7,417.3" test="LeftBum"/>
      <path id="Layer1_0_2_STROKES" stroke="#0FF" stroke-width="3" stroke-linejoin="round" stroke-linecap="round" fill="none" d="M128.2,150 L133.975,153.6 Q141.025,158.175 147.175,163.65 166.975,181.05 170.875,199.8 174.1,214.8 181.525,248.325 186.925,278.775 184.75,303.3 181.675,336.825 179.95,346.275 177.25,361.2 170.875,369.75 L159.25,385.8 M87.25,355.125 L84.7,392.25 102.25,397.275 M9.25,196.275 Q20.95,193.2 49.225,183.15 74.275,174.3 89.2,171.075 96.925,169.425 103.3,166.2 108.25,163.65 115.9,158.325 122.05,154.05 128.2,150" test="LeftBum"/>
    </g>
  </g>
</svg>