<?xml version="1.0" encoding="utf-8"?>
<svg id="EdithAnim08" image-rendering="inherit" baseProfile="basic" version="1.1" x="0px" y="0px" width="800" height="600" xmlns="http://www.w3.org/2000/svg" xmlns:xlink="http://www.w3.org/1999/xlink">
  <g id="No-Rear-To-Rearf206r1" overflow="visible">
    <g id="RightBum">
      <path id="Layer2_0_1_STROKES" stroke="#F0F" stroke-width="3" stroke-linejoin="round" stroke-linecap="round" fill="none" d="M703.775,168.075 L712.025,200.475 Q719.9,236.1 718.025,252.525 715.85,271.5 711.725,292.875 707.9,312.825 703.775,327.525 701.15,336.9 698.45,346.875 697.925,348.225 697.475,348.825 L722,342.75 M765.275,193.275 L683.9,156.975 M765.275,327.525 L793.775,323.775 M690.5,333.75 L691.25,336.825 Q692.9,342.825 694.775,347.1 696.2,350.325 697.475,348.825" test="RightBum"/>
      <path id="Layer2_0_2_STROKES" stroke="#F90" stroke-width="3" stroke-linejoin="round" stroke-linecap="round" fill="none" d="M722,342.75 L724.325,329.25 Q725.225,324 725.975,310.95 726.725,296.475 727.7,289.35 731.075,262.875 743.825,253.275 750.95,247.875 757.925,245.4 763.475,243.375 768.95,243.225 773.825,243.15 779.825,245.25 M683.9,156.975 Q599.075,119.025 579.275,111.225 566.825,106.35 556.175,103.95 545,101.475 535.925,101.775 516.875,102.45 502.325,115.275 486.65,128.925 479.075,146.925 471.05,166.125 474.95,184.275 478.25,199.875 489.875,209.625 495.725,214.5 500.975,216.525 517.925,205.875 534.8,205.275 M722,342.75 L714.35,387.225 Q714.875,388.05 714.275,387.6 L712.325,398.775 Q707.675,400.125 702.35,402.975 691.55,408.675 687.8,416.025 684.425,422.625 683.975,428.625 683.675,432.45 684.575,436.05 687.35,447.525 702.275,450.225 716.15,452.775 725.975,446.025 731.225,442.35 736.775,435.75 741.2,431.025 743.6,429.45 744.425,428.925 745.325,428.625 747.5,427.95 750.05,428.625 751.85,429.075 753.8,430.275 760.25,434.025 761.825,433.425 762.125,433.35 765.275,428.775 767.675,425.4 764.3,420.225 761.825,416.4 757.925,413.7 757.625,413.475 757.325,413.25 752.675,411.375 750.8,410.025 747.575,407.625 747.275,400.725 746.975,393.9 756.125,353.625 L765.275,314.775 768.575,314.925 Q773.825,315.075 783.8,314.775 M699.05,336.825 L692.225,333 Q691.325,333.375 690.5,333.75 685.7,335.775 683.3,336.825 688.1,351.375 704.525,374.025 708.275,379.2 713.3,385.8 713.975,386.7 714.35,387.225 L714.275,387.6 Q713.9,387.375 713.3,386.775 M683.3,336.825 Q677.225,339.6 674.45,342 671,344.925 670.325,348.9 668.975,356.4 677.3,368.325 687.65,383.1 709.775,398.775 M690.5,333.75 L689.975,331.725 692.225,333 Q693.65,332.4 695.3,331.725 M500.975,216.525 Q496.85,219.075 492.725,222.225 478.925,232.95 472.4,242.25 468.425,247.95 467.15,253.125 463.625,266.775 464.15,278.775 464.675,290.775 467.975,305.55 469.925,310.275 472.4,315.075 473.15,316.575 473.975,318.075 484.925,338.4 500.225,352.725 516.575,368.025 538.175,373.575 548.075,376.05 556.175,376.2 561.65,376.275 566.3,375.225 565.7,375.9 604.175,405.375 619.4,417.075 634.7,428.625 638.75,431.7 642.8,434.775 L633.8,448.275 M608.3,410.25 L597.8,421.725" test="RightBum"/>
    </g>
    <g id="LeftBum">
      <path id="Layer1_0_1_STROKES" stroke="#FEB7AE" stroke-width="3" stroke-linejoin="round" stroke-linecap="round" fill="none" d="M129.2,150 Q150.725,136.05 173.225,125.025 195.575,114.15 216.65,107.175 243.875,98.175 262.1,98.25 285.05,98.325 301.625,103.95 321.125,110.625 336.2,126.3 343.4,133.725 345.2,149.85 346.55,161.625 344.9,175.8 343.625,186.525 336.5,195.675 332.3,201 322.625,211.95 324.125,213.45 325.475,214.875 332.075,221.925 337.25,231.3 340.775,237.675 342.65,245.775 344.3,252.9 344.75,261.375 345.425,274.575 343.1,287.7 342.575,290.475 341.9,293.25 332.9,332.775 310.25,356.25 292.85,374.25 270.125,385.5 269.825,385.65 252.5,393.6 242.45,398.25 236.225,402.3 226.925,408.3 219.725,413.925 213.2,419.025 205.25,426.3 198.425,432.45 196.025,439.5 193.1,447.975 198.2,454.05 199.775,456 205.175,458.775 210.575,461.55 210.2,460.275 M239.75,199.8 Q254.225,188.925 275.45,189.6 296.15,190.275 310.25,201.3 317.6,207.075 322.625,211.95 M17.75,243.3 Q23.225,243.15 31.1,244.275 35.6,244.95 44.45,246.375 50.825,247.2 59.75,248.025 64.85,248.475 75.05,249.3 81.65,249.825 90.05,251.925 91.7,252.3 94.925,252.525 97.1,252.6 98.3,253.425 101.15,255.375 107.75,269.25 114.65,283.8 118.25,294.6 121.325,303.9 125.375,321.075 127.175,328.65 131.3,339.075 136.55,352.35 137.975,356.775 138.425,358.125 140.45,366.975 142.55,375.525 143.75,376.8 145.775,379.05 145.4,380.025 145.4,380.175 148.4,380.775 153.275,381.75 159.35,387.075 165.425,392.25 168.95,398.55 172.925,405.375 171.65,409.95 170.15,415.275 161.75,416.025 157.625,418.125 150.575,416.55 142.7,414.225 139.175,413.775 131.9,412.8 122.45,414.675 116.375,415.65 113.525,416.25 108.8,417.3 105.05,419.4 102.275,421.05 98.675,423.825 96.65,425.4 92.675,428.625 90.575,425.55 93.125,418.875 96.575,411.675 97.625,409.35 98.45,407.475 101.225,404.85 103.925,402.15 104.6,400.65 105.875,397.95 104.15,390.075 103.475,386.925 101.3,379.35 99.725,373.5 95.825,366.75 93.5,362.775 88.25,355.125 M103.25,397.275 Q102.725,397.65 94.775,401.1 88.475,403.8 86.675,406.575 83.675,411.375 83.15,415.65 82.325,422.775 85.7,436.275 86.075,437.775 86.525,439.2 87.5,442.275 88.85,445.2 90.425,448.725 92.6,452.025 93.95,454.125 103.25,465.75 M88.25,355.125 Q86.975,353.175 82.325,347.325 78.65,342.525 76.7,339.225 75.35,336.45 74.525,334.95 73.1,332.1 71.75,331.275 70.175,330.3 66.35,330.225 62.15,330.375 60.725,330.3 56.225,330.075 49.475,330.525 38.9,331.275 38.225,331.275 20.6,332.1 9.2,330.375 6.275,330 -1,327.225 -7.375,324.75 -11.275,324.75 M118.7,465.3 Q115.25,465 111.65,461.325 108.65,458.25 106.7,454.275 104.525,449.7 103.625,445.35 103.625,445.275 103.625,445.2 102.875,441.825 103.1,439.2 103.175,437.625 103.625,436.35 106.1,428.775 113.3,424.05 117.275,421.425 127.7,417.3" test="LeftBum"/>
      <path id="Layer1_0_2_STROKES" stroke="#0FF" stroke-width="3" stroke-linejoin="round" stroke-linecap="round" fill="none" d="M129.2,150 L134.975,153.6 Q142.025,158.175 148.175,163.65 167.975,181.05 171.875,199.8 175.1,214.8 182.525,248.325 187.925,278.775 185.75,303.3 182.675,336.825 180.95,346.275 178.25,361.2 171.875,369.75 L160.25,385.8 M88.25,355.125 L85.7,392.25 103.25,397.275 M10.25,196.275 Q21.95,193.2 50.225,183.15 75.275,174.3 90.2,171.075 97.925,169.425 104.3,166.2 109.25,163.65 116.9,158.325 123.05,154.05 129.2,150" test="LeftBum"/>
    </g>
  </g>
</svg>