<?xml version="1.0" encoding="utf-8"?>
<svg id="EdithAnim08" image-rendering="inherit" baseProfile="basic" version="1.1" x="0px" y="0px" width="800" height="600" xmlns="http://www.w3.org/2000/svg" xmlns:xlink="http://www.w3.org/1999/xlink">
  <g id="No-Rear-To-Rearf207r1" overflow="visible">
    <g id="RightBum">
      <path id="Layer2_0_1_STROKES" stroke="#F0F" stroke-width="3" stroke-linejoin="round" stroke-linecap="round" fill="none" d="M702.825,168.075 L711.075,200.475 Q718.95,236.1 717.075,252.525 714.9,271.5 710.775,292.875 706.95,312.825 702.825,327.525 700.2,336.9 697.5,346.875 696.975,348.225 696.525,348.825 L721.05,342.75 M764.325,193.275 L682.95,156.975 M764.325,327.525 L792.825,323.775 M689.55,333.75 L690.3,336.825 Q691.95,342.825 693.825,347.1 695.25,350.325 696.525,348.825" test="RightBum"/>
      <path id="Layer2_0_2_STROKES" stroke="#F90" stroke-width="3" stroke-linejoin="round" stroke-linecap="round" fill="none" d="M721.05,342.75 L723.375,329.25 Q724.275,324 725.025,310.95 725.775,296.475 726.75,289.35 730.125,262.875 742.875,253.275 750,247.875 756.975,245.4 762.525,243.375 768,243.225 772.875,243.15 778.875,245.25 M682.95,156.975 Q598.125,119.025 578.325,111.225 565.875,106.35 555.225,103.95 544.05,101.475 534.975,101.775 515.925,102.45 501.375,115.275 485.7,128.925 478.125,146.925 470.1,166.125 474,184.275 477.3,199.875 488.925,209.625 494.775,214.5 500.025,216.525 516.975,205.875 533.85,205.275 M721.05,342.75 L713.4,387.225 Q713.925,388.05 713.325,387.6 L711.375,398.775 Q706.725,400.125 701.4,402.975 690.6,408.675 686.85,416.025 683.475,422.625 683.025,428.625 682.725,432.45 683.625,436.05 686.4,447.525 701.325,450.225 715.2,452.775 725.025,446.025 730.275,442.35 735.825,435.75 740.25,431.025 742.65,429.45 743.475,428.925 744.375,428.625 746.55,427.95 749.1,428.625 750.9,429.075 752.85,430.275 759.3,434.025 760.875,433.425 761.175,433.35 764.325,428.775 766.725,425.4 763.35,420.225 760.875,416.4 756.975,413.7 756.675,413.475 756.375,413.25 751.725,411.375 749.85,410.025 746.625,407.625 746.325,400.725 746.025,393.9 755.175,353.625 L764.325,314.775 767.625,314.925 Q772.875,315.075 782.85,314.775 M698.1,336.825 L691.275,333 Q690.375,333.375 689.55,333.75 684.75,335.775 682.35,336.825 687.15,351.375 703.575,374.025 707.325,379.2 712.35,385.8 713.025,386.7 713.4,387.225 L713.325,387.6 Q712.95,387.375 712.35,386.775 M682.35,336.825 Q676.275,339.6 673.5,342 670.05,344.925 669.375,348.9 668.025,356.4 676.35,368.325 686.7,383.1 708.825,398.775 M689.55,333.75 L689.025,331.725 691.275,333 Q692.7,332.4 694.35,331.725 M500.025,216.525 Q495.9,219.075 491.775,222.225 477.975,232.95 471.45,242.25 467.475,247.95 466.2,253.125 462.675,266.775 463.2,278.775 463.725,290.775 467.025,305.55 468.975,310.275 471.45,315.075 472.2,316.575 473.025,318.075 483.975,338.4 499.275,352.725 515.625,368.025 537.225,373.575 547.125,376.05 555.225,376.2 560.7,376.275 565.35,375.225 564.75,375.9 603.225,405.375 618.45,417.075 633.75,428.625 637.8,431.7 641.85,434.775 L632.85,448.275 M607.35,410.25 L596.85,421.725" test="RightBum"/>
    </g>
    <g id="LeftBum">
      <path id="Layer1_0_1_STROKES" stroke="#FEB7AE" stroke-width="3" stroke-linejoin="round" stroke-linecap="round" fill="none" d="M130.15,150 Q151.675,136.05 174.175,125.025 196.525,114.15 217.6,107.175 244.825,98.175 263.05,98.25 286,98.325 302.575,103.95 322.075,110.625 337.15,126.3 344.35,133.725 346.15,149.85 347.5,161.625 345.85,175.8 344.575,186.525 337.45,195.675 333.25,201 323.575,211.95 325.075,213.45 326.425,214.875 333.025,221.925 338.2,231.3 341.725,237.675 343.6,245.775 345.25,252.9 345.7,261.375 346.375,274.575 344.05,287.7 343.525,290.475 342.85,293.25 333.85,332.775 311.2,356.25 293.8,374.25 271.075,385.5 270.775,385.65 253.45,393.6 243.4,398.25 237.175,402.3 227.875,408.3 220.675,413.925 214.15,419.025 206.2,426.3 199.375,432.45 196.975,439.5 194.05,447.975 199.15,454.05 200.725,456 206.125,458.775 211.525,461.55 211.15,460.275 M240.7,199.8 Q255.175,188.925 276.4,189.6 297.1,190.275 311.2,201.3 318.55,207.075 323.575,211.95 M18.7,243.3 Q24.175,243.15 32.05,244.275 36.55,244.95 45.4,246.375 51.775,247.2 60.7,248.025 65.8,248.475 76,249.3 82.6,249.825 91,251.925 92.65,252.3 95.875,252.525 98.05,252.6 99.25,253.425 102.1,255.375 108.7,269.25 115.6,283.8 119.2,294.6 122.275,303.9 126.325,321.075 128.125,328.65 132.25,339.075 137.5,352.35 138.925,356.775 139.375,358.125 141.4,366.975 143.5,375.525 144.7,376.8 146.725,379.05 146.35,380.025 146.35,380.175 149.35,380.775 154.225,381.75 160.3,387.075 166.375,392.25 169.9,398.55 173.875,405.375 172.6,409.95 171.1,415.275 162.7,416.025 158.575,418.125 151.525,416.55 143.65,414.225 140.125,413.775 132.85,412.8 123.4,414.675 117.325,415.65 114.475,416.25 109.75,417.3 106,419.4 103.225,421.05 99.625,423.825 97.6,425.4 93.625,428.625 91.525,425.55 94.075,418.875 97.525,411.675 98.575,409.35 99.4,407.475 102.175,404.85 104.875,402.15 105.55,400.65 106.825,397.95 105.1,390.075 104.425,386.925 102.25,379.35 100.675,373.5 96.775,366.75 94.45,362.775 89.2,355.125 M104.2,397.275 Q103.675,397.65 95.725,401.1 89.425,403.8 87.625,406.575 84.625,411.375 84.1,415.65 83.275,422.775 86.65,436.275 87.025,437.775 87.475,439.2 88.45,442.275 89.8,445.2 91.375,448.725 93.55,452.025 94.9,454.125 104.2,465.75 M89.2,355.125 Q87.925,353.175 83.275,347.325 79.6,342.525 77.65,339.225 76.3,336.45 75.475,334.95 74.05,332.1 72.7,331.275 71.125,330.3 67.3,330.225 63.1,330.375 61.675,330.3 57.175,330.075 50.425,330.525 39.85,331.275 39.175,331.275 21.55,332.1 10.15,330.375 7.225,330 -.05,327.225 -6.425,324.75 -10.325,324.75 M119.65,465.3 Q116.2,465 112.6,461.325 109.6,458.25 107.65,454.275 105.475,449.7 104.575,445.35 104.575,445.275 104.575,445.2 103.825,441.825 104.05,439.2 104.125,437.625 104.575,436.35 107.05,428.775 114.25,424.05 118.225,421.425 128.65,417.3" test="LeftBum"/>
      <path id="Layer1_0_2_STROKES" stroke="#0FF" stroke-width="3" stroke-linejoin="round" stroke-linecap="round" fill="none" d="M130.15,150 L135.925,153.6 Q142.975,158.175 149.125,163.65 168.925,181.05 172.825,199.8 176.05,214.8 183.475,248.325 188.875,278.775 186.7,303.3 183.625,336.825 181.9,346.275 179.2,361.2 172.825,369.75 L161.2,385.8 M89.2,355.125 L86.65,392.25 104.2,397.275 M11.2,196.275 Q22.9,193.2 51.175,183.15 76.225,174.3 91.15,171.075 98.875,169.425 105.25,166.2 110.2,163.65 117.85,158.325 124,154.05 130.15,150" test="LeftBum"/>
    </g>
  </g>
</svg>