<?xml version="1.0" encoding="utf-8"?>
<svg id="EdithAnim08" image-rendering="inherit" baseProfile="basic" version="1.1" x="0px" y="0px" width="800" height="600" xmlns="http://www.w3.org/2000/svg" xmlns:xlink="http://www.w3.org/1999/xlink">
  <g id="No-Rear-To-Rearf208r1" overflow="visible">
    <g id="RightBum">
      <path id="Layer2_0_1_STROKES" stroke="#F0F" stroke-width="3" stroke-linejoin="round" stroke-linecap="round" fill="none" d="M701.875,168.075 L710.125,200.475 Q718,236.1 716.125,252.525 713.95,271.5 709.825,292.875 706,312.825 701.875,327.525 699.25,336.9 696.55,346.875 696.025,348.225 695.575,348.825 L720.1,342.75 M763.375,193.275 L682,156.975 M763.375,327.525 L791.875,323.775 M688.6,333.75 L689.35,336.825 Q691,342.825 692.875,347.1 694.3,350.325 695.575,348.825" test="RightBum"/>
      <path id="Layer2_0_2_STROKES" stroke="#F90" stroke-width="3" stroke-linejoin="round" stroke-linecap="round" fill="none" d="M720.1,342.75 L722.425,329.25 Q723.325,324 724.075,310.95 724.825,296.475 725.8,289.35 729.175,262.875 741.925,253.275 749.05,247.875 756.025,245.4 761.575,243.375 767.05,243.225 771.925,243.15 777.925,245.25 M682,156.975 Q597.175,119.025 577.375,111.225 564.925,106.35 554.275,103.95 543.1,101.475 534.025,101.775 514.975,102.45 500.425,115.275 484.75,128.925 477.175,146.925 469.15,166.125 473.05,184.275 476.35,199.875 487.975,209.625 493.825,214.5 499.075,216.525 516.025,205.875 532.9,205.275 M720.1,342.75 L712.45,387.225 Q712.975,388.05 712.375,387.6 L710.425,398.775 Q705.775,400.125 700.45,402.975 689.65,408.675 685.9,416.025 682.525,422.625 682.075,428.625 681.775,432.45 682.675,436.05 685.45,447.525 700.375,450.225 714.25,452.775 724.075,446.025 729.325,442.35 734.875,435.75 739.3,431.025 741.7,429.45 742.525,428.925 743.425,428.625 745.6,427.95 748.15,428.625 749.95,429.075 751.9,430.275 758.35,434.025 759.925,433.425 760.225,433.35 763.375,428.775 765.775,425.4 762.4,420.225 759.925,416.4 756.025,413.7 755.725,413.475 755.425,413.25 750.775,411.375 748.9,410.025 745.675,407.625 745.375,400.725 745.075,393.9 754.225,353.625 L763.375,314.775 766.675,314.925 Q771.925,315.075 781.9,314.775 M697.15,336.825 L690.325,333 Q689.425,333.375 688.6,333.75 683.8,335.775 681.4,336.825 686.2,351.375 702.625,374.025 706.375,379.2 711.4,385.8 712.075,386.7 712.45,387.225 L712.375,387.6 Q712,387.375 711.4,386.775 M681.4,336.825 Q675.325,339.6 672.55,342 669.1,344.925 668.425,348.9 667.075,356.4 675.4,368.325 685.75,383.1 707.875,398.775 M688.6,333.75 L688.075,331.725 690.325,333 Q691.75,332.4 693.4,331.725 M499.075,216.525 Q494.95,219.075 490.825,222.225 477.025,232.95 470.5,242.25 466.525,247.95 465.25,253.125 461.725,266.775 462.25,278.775 462.775,290.775 466.075,305.55 468.025,310.275 470.5,315.075 471.25,316.575 472.075,318.075 483.025,338.4 498.325,352.725 514.675,368.025 536.275,373.575 546.175,376.05 554.275,376.2 559.75,376.275 564.4,375.225 563.8,375.9 602.275,405.375 617.5,417.075 632.8,428.625 636.85,431.7 640.9,434.775 L631.9,448.275 M606.4,410.25 L595.9,421.725" test="RightBum"/>
    </g>
    <g id="LeftBum">
      <path id="Layer1_0_1_STROKES" stroke="#FEB7AE" stroke-width="3" stroke-linejoin="round" stroke-linecap="round" fill="none" d="M131.1,150 Q152.625,136.05 175.125,125.025 197.475,114.15 218.55,107.175 245.775,98.175 264,98.25 286.95,98.325 303.525,103.95 323.025,110.625 338.1,126.3 345.3,133.725 347.1,149.85 348.45,161.625 346.8,175.8 345.525,186.525 338.4,195.675 334.2,201 324.525,211.95 326.025,213.45 327.375,214.875 333.975,221.925 339.15,231.3 342.675,237.675 344.55,245.775 346.2,252.9 346.65,261.375 347.325,274.575 345,287.7 344.475,290.475 343.8,293.25 334.8,332.775 312.15,356.25 294.75,374.25 272.025,385.5 271.725,385.65 254.4,393.6 244.35,398.25 238.125,402.3 228.825,408.3 221.625,413.925 215.1,419.025 207.15,426.3 200.325,432.45 197.925,439.5 195,447.975 200.1,454.05 201.675,456 207.075,458.775 212.475,461.55 212.1,460.275 M241.65,199.8 Q256.125,188.925 277.35,189.6 298.05,190.275 312.15,201.3 319.5,207.075 324.525,211.95 M19.65,243.3 Q25.125,243.15 33,244.275 37.5,244.95 46.35,246.375 52.725,247.2 61.65,248.025 66.75,248.475 76.95,249.3 83.55,249.825 91.95,251.925 93.6,252.3 96.825,252.525 99,252.6 100.2,253.425 103.05,255.375 109.65,269.25 116.55,283.8 120.15,294.6 123.225,303.9 127.275,321.075 129.075,328.65 133.2,339.075 138.45,352.35 139.875,356.775 140.325,358.125 142.35,366.975 144.45,375.525 145.65,376.8 147.675,379.05 147.3,380.025 147.3,380.175 150.3,380.775 155.175,381.75 161.25,387.075 167.325,392.25 170.85,398.55 174.825,405.375 173.55,409.95 172.05,415.275 163.65,416.025 159.525,418.125 152.475,416.55 144.6,414.225 141.075,413.775 133.8,412.8 124.35,414.675 118.275,415.65 115.425,416.25 110.7,417.3 106.95,419.4 104.175,421.05 100.575,423.825 98.55,425.4 94.575,428.625 92.475,425.55 95.025,418.875 98.475,411.675 99.525,409.35 100.35,407.475 103.125,404.85 105.825,402.15 106.5,400.65 107.775,397.95 106.05,390.075 105.375,386.925 103.2,379.35 101.625,373.5 97.725,366.75 95.4,362.775 90.15,355.125 M105.15,397.275 Q104.625,397.65 96.675,401.1 90.375,403.8 88.575,406.575 85.575,411.375 85.05,415.65 84.225,422.775 87.6,436.275 87.975,437.775 88.425,439.2 89.4,442.275 90.75,445.2 92.325,448.725 94.5,452.025 95.85,454.125 105.15,465.75 M90.15,355.125 Q88.875,353.175 84.225,347.325 80.55,342.525 78.6,339.225 77.25,336.45 76.425,334.95 75,332.1 73.65,331.275 72.075,330.3 68.25,330.225 64.05,330.375 62.625,330.3 58.125,330.075 51.375,330.525 40.8,331.275 40.125,331.275 22.5,332.1 11.1,330.375 8.175,330 .9,327.225 -5.475,324.75 -9.375,324.75 M120.6,465.3 Q117.15,465 113.55,461.325 110.55,458.25 108.6,454.275 106.425,449.7 105.525,445.35 105.525,445.275 105.525,445.2 104.775,441.825 105,439.2 105.075,437.625 105.525,436.35 108,428.775 115.2,424.05 119.175,421.425 129.6,417.3" test="LeftBum"/>
      <path id="Layer1_0_2_STROKES" stroke="#0FF" stroke-width="3" stroke-linejoin="round" stroke-linecap="round" fill="none" d="M131.1,150 L136.875,153.6 Q143.925,158.175 150.075,163.65 169.875,181.05 173.775,199.8 177,214.8 184.425,248.325 189.825,278.775 187.65,303.3 184.575,336.825 182.85,346.275 180.15,361.2 173.775,369.75 L162.15,385.8 M90.15,355.125 L87.6,392.25 105.15,397.275 M12.15,196.275 Q23.85,193.2 52.125,183.15 77.175,174.3 92.1,171.075 99.825,169.425 106.2,166.2 111.15,163.65 118.8,158.325 124.95,154.05 131.1,150" test="LeftBum"/>
    </g>
  </g>
</svg>