<?xml version="1.0" encoding="utf-8"?>
<svg id="EdithAnim08" image-rendering="inherit" baseProfile="basic" version="1.1" x="0px" y="0px" width="800" height="600" xmlns="http://www.w3.org/2000/svg" xmlns:xlink="http://www.w3.org/1999/xlink">
  <g id="No-Rear-To-Rearf211r1" overflow="visible">
    <g id="RightBum">
      <path id="Layer2_0_1_STROKES" stroke="#F0F" stroke-width="3" stroke-linejoin="round" stroke-linecap="round" fill="none" d="M699.075,168.075 L707.325,200.475 Q715.2,236.1 713.325,252.525 711.15,271.5 707.025,292.875 703.2,312.825 699.075,327.525 696.45,336.9 693.75,346.875 693.225,348.225 692.775,348.825 L717.3,342.75 M760.575,193.275 L679.2,156.975 M760.575,327.525 L789.075,323.775 M685.8,333.75 L686.55,336.825 Q688.2,342.825 690.075,347.1 691.5,350.325 692.775,348.825" test="RightBum"/>
      <path id="Layer2_0_2_STROKES" stroke="#F90" stroke-width="3" stroke-linejoin="round" stroke-linecap="round" fill="none" d="M717.3,342.75 L719.625,329.25 Q720.525,324 721.275,310.95 722.025,296.475 723,289.35 726.375,262.875 739.125,253.275 746.25,247.875 753.225,245.4 758.775,243.375 764.25,243.225 769.125,243.15 775.125,245.25 M679.2,156.975 Q594.375,119.025 574.575,111.225 562.125,106.35 551.475,103.95 540.3,101.475 531.225,101.775 512.175,102.45 497.625,115.275 481.95,128.925 474.375,146.925 466.35,166.125 470.25,184.275 473.55,199.875 485.175,209.625 491.025,214.5 496.275,216.525 513.225,205.875 530.1,205.275 M717.3,342.75 L709.65,387.225 Q710.175,388.05 709.575,387.6 L707.625,398.775 Q702.975,400.125 697.65,402.975 686.85,408.675 683.1,416.025 679.725,422.625 679.275,428.625 678.975,432.45 679.875,436.05 682.65,447.525 697.575,450.225 711.45,452.775 721.275,446.025 726.525,442.35 732.075,435.75 736.5,431.025 738.9,429.45 739.725,428.925 740.625,428.625 742.8,427.95 745.35,428.625 747.15,429.075 749.1,430.275 755.55,434.025 757.125,433.425 757.425,433.35 760.575,428.775 762.975,425.4 759.6,420.225 757.125,416.4 753.225,413.7 752.925,413.475 752.625,413.25 747.975,411.375 746.1,410.025 742.875,407.625 742.575,400.725 742.275,393.9 751.425,353.625 L760.575,314.775 763.875,314.925 Q769.125,315.075 779.1,314.775 M694.35,336.825 L687.525,333 Q686.625,333.375 685.8,333.75 681,335.775 678.6,336.825 683.4,351.375 699.825,374.025 703.575,379.2 708.6,385.8 709.275,386.7 709.65,387.225 L709.575,387.6 Q709.2,387.375 708.6,386.775 M678.6,336.825 Q672.525,339.6 669.75,342 666.3,344.925 665.625,348.9 664.275,356.4 672.6,368.325 682.95,383.1 705.075,398.775 M685.8,333.75 L685.275,331.725 687.525,333 Q688.95,332.4 690.6,331.725 M496.275,216.525 Q492.15,219.075 488.025,222.225 474.225,232.95 467.7,242.25 463.725,247.95 462.45,253.125 458.925,266.775 459.45,278.775 459.975,290.775 463.275,305.55 465.225,310.275 467.7,315.075 468.45,316.575 469.275,318.075 480.225,338.4 495.525,352.725 511.875,368.025 533.475,373.575 543.375,376.05 551.475,376.2 556.95,376.275 561.6,375.225 561,375.9 599.475,405.375 614.7,417.075 630,428.625 634.05,431.7 638.1,434.775 L629.1,448.275 M603.6,410.25 L593.1,421.725" test="RightBum"/>
    </g>
    <g id="LeftBum">
      <path id="Layer1_0_1_STROKES" stroke="#FEB7AE" stroke-width="3" stroke-linejoin="round" stroke-linecap="round" fill="none" d="M133.95,150 Q155.475,136.05 177.975,125.025 200.325,114.15 221.4,107.175 248.625,98.175 266.85,98.25 289.8,98.325 306.375,103.95 325.875,110.625 340.95,126.3 348.15,133.725 349.95,149.85 351.3,161.625 349.65,175.8 348.375,186.525 341.25,195.675 337.05,201 327.375,211.95 328.875,213.45 330.225,214.875 336.825,221.925 342,231.3 345.525,237.675 347.4,245.775 349.05,252.9 349.5,261.375 350.175,274.575 347.85,287.7 347.325,290.475 346.65,293.25 337.65,332.775 315,356.25 297.6,374.25 274.875,385.5 274.575,385.65 257.25,393.6 247.2,398.25 240.975,402.3 231.675,408.3 224.475,413.925 217.95,419.025 210,426.3 203.175,432.45 200.775,439.5 197.85,447.975 202.95,454.05 204.525,456 209.925,458.775 215.325,461.55 214.95,460.275 M244.5,199.8 Q258.975,188.925 280.2,189.6 300.9,190.275 315,201.3 322.35,207.075 327.375,211.95 M22.5,243.3 Q27.975,243.15 35.85,244.275 40.35,244.95 49.2,246.375 55.575,247.2 64.5,248.025 69.6,248.475 79.8,249.3 86.4,249.825 94.8,251.925 96.45,252.3 99.675,252.525 101.85,252.6 103.05,253.425 105.9,255.375 112.5,269.25 119.4,283.8 123,294.6 126.075,303.9 130.125,321.075 131.925,328.65 136.05,339.075 141.3,352.35 142.725,356.775 143.175,358.125 145.2,366.975 147.3,375.525 148.5,376.8 150.525,379.05 150.15,380.025 150.15,380.175 153.15,380.775 158.025,381.75 164.1,387.075 170.175,392.25 173.7,398.55 177.675,405.375 176.4,409.95 174.9,415.275 166.5,416.025 162.375,418.125 155.325,416.55 147.45,414.225 143.925,413.775 136.65,412.8 127.2,414.675 121.125,415.65 118.275,416.25 113.55,417.3 109.8,419.4 107.025,421.05 103.425,423.825 101.4,425.4 97.425,428.625 95.325,425.55 97.875,418.875 101.325,411.675 102.375,409.35 103.2,407.475 105.975,404.85 108.675,402.15 109.35,400.65 110.625,397.95 108.9,390.075 108.225,386.925 106.05,379.35 104.475,373.5 100.575,366.75 98.25,362.775 93,355.125 M108,397.275 Q107.475,397.65 99.525,401.1 93.225,403.8 91.425,406.575 88.425,411.375 87.9,415.65 87.075,422.775 90.45,436.275 90.825,437.775 91.275,439.2 92.25,442.275 93.6,445.2 95.175,448.725 97.35,452.025 98.7,454.125 108,465.75 M93,355.125 Q91.725,353.175 87.075,347.325 83.4,342.525 81.45,339.225 80.1,336.45 79.275,334.95 77.85,332.1 76.5,331.275 74.925,330.3 71.1,330.225 66.9,330.375 65.475,330.3 60.975,330.075 54.225,330.525 43.65,331.275 42.975,331.275 25.35,332.1 13.95,330.375 11.025,330 3.75,327.225 -2.625,324.75 -6.525,324.75 M123.45,465.3 Q120,465 116.4,461.325 113.4,458.25 111.45,454.275 109.275,449.7 108.375,445.35 108.375,445.275 108.375,445.2 107.625,441.825 107.85,439.2 107.925,437.625 108.375,436.35 110.85,428.775 118.05,424.05 122.025,421.425 132.45,417.3" test="LeftBum"/>
      <path id="Layer1_0_2_STROKES" stroke="#0FF" stroke-width="3" stroke-linejoin="round" stroke-linecap="round" fill="none" d="M133.95,150 L139.725,153.6 Q146.775,158.175 152.925,163.65 172.725,181.05 176.625,199.8 179.85,214.8 187.275,248.325 192.675,278.775 190.5,303.3 187.425,336.825 185.7,346.275 183,361.2 176.625,369.75 L165,385.8 M93,355.125 L90.45,392.25 108,397.275 M15,196.275 Q26.7,193.2 54.975,183.15 80.025,174.3 94.95,171.075 102.675,169.425 109.05,166.2 114,163.65 121.65,158.325 127.8,154.05 133.95,150" test="LeftBum"/>
    </g>
  </g>
</svg>