<?xml version="1.0" encoding="utf-8"?>
<svg id="EdithAnim08" image-rendering="inherit" baseProfile="basic" version="1.1" x="0px" y="0px" width="800" height="600" xmlns="http://www.w3.org/2000/svg" xmlns:xlink="http://www.w3.org/1999/xlink">
  <g id="No-Rear-To-Rearf212r1" overflow="visible">
    <g id="RightBum">
      <path id="Layer2_0_1_STROKES" stroke="#F0F" stroke-width="3" stroke-linejoin="round" stroke-linecap="round" fill="none" d="M698.125,168.075 L706.375,200.475 Q714.25,236.1 712.375,252.525 710.2,271.5 706.075,292.875 702.25,312.825 698.125,327.525 695.5,336.9 692.8,346.875 692.275,348.225 691.825,348.825 L716.35,342.75 M759.625,193.275 L678.25,156.975 M759.625,327.525 L788.125,323.775 M684.85,333.75 L685.6,336.825 Q687.25,342.825 689.125,347.1 690.55,350.325 691.825,348.825" test="RightBum"/>
      <path id="Layer2_0_2_STROKES" stroke="#F90" stroke-width="3" stroke-linejoin="round" stroke-linecap="round" fill="none" d="M716.35,342.75 L718.675,329.25 Q719.575,324 720.325,310.95 721.075,296.475 722.05,289.35 725.425,262.875 738.175,253.275 745.3,247.875 752.275,245.4 757.825,243.375 763.3,243.225 768.175,243.15 774.175,245.25 M678.25,156.975 Q593.425,119.025 573.625,111.225 561.175,106.35 550.525,103.95 539.35,101.475 530.275,101.775 511.225,102.45 496.675,115.275 481,128.925 473.425,146.925 465.4,166.125 469.3,184.275 472.6,199.875 484.225,209.625 490.075,214.5 495.325,216.525 512.275,205.875 529.15,205.275 M716.35,342.75 L708.7,387.225 Q709.225,388.05 708.625,387.6 L706.675,398.775 Q702.025,400.125 696.7,402.975 685.9,408.675 682.15,416.025 678.775,422.625 678.325,428.625 678.025,432.45 678.925,436.05 681.7,447.525 696.625,450.225 710.5,452.775 720.325,446.025 725.575,442.35 731.125,435.75 735.55,431.025 737.95,429.45 738.775,428.925 739.675,428.625 741.85,427.95 744.4,428.625 746.2,429.075 748.15,430.275 754.6,434.025 756.175,433.425 756.475,433.35 759.625,428.775 762.025,425.4 758.65,420.225 756.175,416.4 752.275,413.7 751.975,413.475 751.675,413.25 747.025,411.375 745.15,410.025 741.925,407.625 741.625,400.725 741.325,393.9 750.475,353.625 L759.625,314.775 762.925,314.925 Q768.175,315.075 778.15,314.775 M693.4,336.825 L686.575,333 Q685.675,333.375 684.85,333.75 680.05,335.775 677.65,336.825 682.45,351.375 698.875,374.025 702.625,379.2 707.65,385.8 708.325,386.7 708.7,387.225 L708.625,387.6 Q708.25,387.375 707.65,386.775 M677.65,336.825 Q671.575,339.6 668.8,342 665.35,344.925 664.675,348.9 663.325,356.4 671.65,368.325 682,383.1 704.125,398.775 M684.85,333.75 L684.325,331.725 686.575,333 Q688,332.4 689.65,331.725 M495.325,216.525 Q491.2,219.075 487.075,222.225 473.275,232.95 466.75,242.25 462.775,247.95 461.5,253.125 457.975,266.775 458.5,278.775 459.025,290.775 462.325,305.55 464.275,310.275 466.75,315.075 467.5,316.575 468.325,318.075 479.275,338.4 494.575,352.725 510.925,368.025 532.525,373.575 542.425,376.05 550.525,376.2 556,376.275 560.65,375.225 560.05,375.9 598.525,405.375 613.75,417.075 629.05,428.625 633.1,431.7 637.15,434.775 L628.15,448.275 M602.65,410.25 L592.15,421.725" test="RightBum"/>
    </g>
    <g id="LeftBum">
      <path id="Layer1_0_1_STROKES" stroke="#FEB7AE" stroke-width="3" stroke-linejoin="round" stroke-linecap="round" fill="none" d="M134.9,150 Q156.425,136.05 178.925,125.025 201.275,114.15 222.35,107.175 249.575,98.175 267.8,98.25 290.75,98.325 307.325,103.95 326.825,110.625 341.9,126.3 349.1,133.725 350.9,149.85 352.25,161.625 350.6,175.8 349.325,186.525 342.2,195.675 338,201 328.325,211.95 329.825,213.45 331.175,214.875 337.775,221.925 342.95,231.3 346.475,237.675 348.35,245.775 350,252.9 350.45,261.375 351.125,274.575 348.8,287.7 348.275,290.475 347.6,293.25 338.6,332.775 315.95,356.25 298.55,374.25 275.825,385.5 275.525,385.65 258.2,393.6 248.15,398.25 241.925,402.3 232.625,408.3 225.425,413.925 218.9,419.025 210.95,426.3 204.125,432.45 201.725,439.5 198.8,447.975 203.9,454.05 205.475,456 210.875,458.775 216.275,461.55 215.9,460.275 M245.45,199.8 Q259.925,188.925 281.15,189.6 301.85,190.275 315.95,201.3 323.3,207.075 328.325,211.95 M23.45,243.3 Q28.925,243.15 36.8,244.275 41.3,244.95 50.15,246.375 56.525,247.2 65.45,248.025 70.55,248.475 80.75,249.3 87.35,249.825 95.75,251.925 97.4,252.3 100.625,252.525 102.8,252.6 104,253.425 106.85,255.375 113.45,269.25 120.35,283.8 123.95,294.6 127.025,303.9 131.075,321.075 132.875,328.65 137,339.075 142.25,352.35 143.675,356.775 144.125,358.125 146.15,366.975 148.25,375.525 149.45,376.8 151.475,379.05 151.1,380.025 151.1,380.175 154.1,380.775 158.975,381.75 165.05,387.075 171.125,392.25 174.65,398.55 178.625,405.375 177.35,409.95 175.85,415.275 167.45,416.025 163.325,418.125 156.275,416.55 148.4,414.225 144.875,413.775 137.6,412.8 128.15,414.675 122.075,415.65 119.225,416.25 114.5,417.3 110.75,419.4 107.975,421.05 104.375,423.825 102.35,425.4 98.375,428.625 96.275,425.55 98.825,418.875 102.275,411.675 103.325,409.35 104.15,407.475 106.925,404.85 109.625,402.15 110.3,400.65 111.575,397.95 109.85,390.075 109.175,386.925 107,379.35 105.425,373.5 101.525,366.75 99.2,362.775 93.95,355.125 M108.95,397.275 Q108.425,397.65 100.475,401.1 94.175,403.8 92.375,406.575 89.375,411.375 88.85,415.65 88.025,422.775 91.4,436.275 91.775,437.775 92.225,439.2 93.2,442.275 94.55,445.2 96.125,448.725 98.3,452.025 99.65,454.125 108.95,465.75 M93.95,355.125 Q92.675,353.175 88.025,347.325 84.35,342.525 82.4,339.225 81.05,336.45 80.225,334.95 78.8,332.1 77.45,331.275 75.875,330.3 72.05,330.225 67.85,330.375 66.425,330.3 61.925,330.075 55.175,330.525 44.6,331.275 43.925,331.275 26.3,332.1 14.9,330.375 11.975,330 4.7,327.225 -1.675,324.75 -5.575,324.75 M124.4,465.3 Q120.95,465 117.35,461.325 114.35,458.25 112.4,454.275 110.225,449.7 109.325,445.35 109.325,445.275 109.325,445.2 108.575,441.825 108.8,439.2 108.875,437.625 109.325,436.35 111.8,428.775 119,424.05 122.975,421.425 133.4,417.3" test="LeftBum"/>
      <path id="Layer1_0_2_STROKES" stroke="#0FF" stroke-width="3" stroke-linejoin="round" stroke-linecap="round" fill="none" d="M134.9,150 L140.675,153.6 Q147.725,158.175 153.875,163.65 173.675,181.05 177.575,199.8 180.8,214.8 188.225,248.325 193.625,278.775 191.45,303.3 188.375,336.825 186.65,346.275 183.95,361.2 177.575,369.75 L165.95,385.8 M93.95,355.125 L91.4,392.25 108.95,397.275 M15.95,196.275 Q27.65,193.2 55.925,183.15 80.975,174.3 95.9,171.075 103.625,169.425 110,166.2 114.95,163.65 122.6,158.325 128.75,154.05 134.9,150" test="LeftBum"/>
    </g>
  </g>
</svg>