<?xml version="1.0" encoding="utf-8"?>
<svg id="EdithAnim08" image-rendering="inherit" baseProfile="basic" version="1.1" x="0px" y="0px" width="800" height="600" xmlns="http://www.w3.org/2000/svg" xmlns:xlink="http://www.w3.org/1999/xlink">
  <g id="No-Rear-To-Rearf213r1" overflow="visible">
    <g id="RightBum">
      <path id="Layer2_0_1_STROKES" stroke="#F0F" stroke-width="3" stroke-linejoin="round" stroke-linecap="round" fill="none" d="M697.225,168.075 L705.475,200.475 Q713.35,236.1 711.475,252.525 709.3,271.5 705.175,292.875 701.35,312.825 697.225,327.525 694.6,336.9 691.9,346.875 691.375,348.225 690.925,348.825 L715.45,342.75 M758.725,193.275 L677.35,156.975 M758.725,327.525 L787.225,323.775 M683.95,333.75 L684.7,336.825 Q686.35,342.825 688.225,347.1 689.65,350.325 690.925,348.825" test="RightBum"/>
      <path id="Layer2_0_2_STROKES" stroke="#F90" stroke-width="3" stroke-linejoin="round" stroke-linecap="round" fill="none" d="M715.45,342.75 L717.775,329.25 Q718.675,324 719.425,310.95 720.175,296.475 721.15,289.35 724.525,262.875 737.275,253.275 744.4,247.875 751.375,245.4 756.925,243.375 762.4,243.225 767.275,243.15 773.275,245.25 M677.35,156.975 Q592.525,119.025 572.725,111.225 560.275,106.35 549.625,103.95 538.45,101.475 529.375,101.775 510.325,102.45 495.775,115.275 480.1,128.925 472.525,146.925 464.5,166.125 468.4,184.275 471.7,199.875 483.325,209.625 489.175,214.5 494.425,216.525 511.375,205.875 528.25,205.275 M715.45,342.75 L707.8,387.225 Q708.325,388.05 707.725,387.6 L705.775,398.775 Q701.125,400.125 695.8,402.975 685,408.675 681.25,416.025 677.875,422.625 677.425,428.625 677.125,432.45 678.025,436.05 680.8,447.525 695.725,450.225 709.6,452.775 719.425,446.025 724.675,442.35 730.225,435.75 734.65,431.025 737.05,429.45 737.875,428.925 738.775,428.625 740.95,427.95 743.5,428.625 745.3,429.075 747.25,430.275 753.7,434.025 755.275,433.425 755.575,433.35 758.725,428.775 761.125,425.4 757.75,420.225 755.275,416.4 751.375,413.7 751.075,413.475 750.775,413.25 746.125,411.375 744.25,410.025 741.025,407.625 740.725,400.725 740.425,393.9 749.575,353.625 L758.725,314.775 762.025,314.925 Q767.275,315.075 777.25,314.775 M692.5,336.825 L685.675,333 Q684.775,333.375 683.95,333.75 679.15,335.775 676.75,336.825 681.55,351.375 697.975,374.025 701.725,379.2 706.75,385.8 707.425,386.7 707.8,387.225 L707.725,387.6 Q707.35,387.375 706.75,386.775 M676.75,336.825 Q670.675,339.6 667.9,342 664.45,344.925 663.775,348.9 662.425,356.4 670.75,368.325 681.1,383.1 703.225,398.775 M683.95,333.75 L683.425,331.725 685.675,333 Q687.1,332.4 688.75,331.725 M494.425,216.525 Q490.3,219.075 486.175,222.225 472.375,232.95 465.85,242.25 461.875,247.95 460.6,253.125 457.075,266.775 457.6,278.775 458.125,290.775 461.425,305.55 463.375,310.275 465.85,315.075 466.6,316.575 467.425,318.075 478.375,338.4 493.675,352.725 510.025,368.025 531.625,373.575 541.525,376.05 549.625,376.2 555.1,376.275 559.75,375.225 559.15,375.9 597.625,405.375 612.85,417.075 628.15,428.625 632.2,431.7 636.25,434.775 L627.25,448.275 M601.75,410.25 L591.25,421.725" test="RightBum"/>
    </g>
    <g id="LeftBum">
      <path id="Layer1_0_1_STROKES" stroke="#FEB7AE" stroke-width="3" stroke-linejoin="round" stroke-linecap="round" fill="none" d="M135.85,150 Q157.375,136.05 179.875,125.025 202.225,114.15 223.3,107.175 250.525,98.175 268.75,98.25 291.7,98.325 308.275,103.95 327.775,110.625 342.85,126.3 350.05,133.725 351.85,149.85 353.2,161.625 351.55,175.8 350.275,186.525 343.15,195.675 338.95,201 329.275,211.95 330.775,213.45 332.125,214.875 338.725,221.925 343.9,231.3 347.425,237.675 349.3,245.775 350.95,252.9 351.4,261.375 352.075,274.575 349.75,287.7 349.225,290.475 348.55,293.25 339.55,332.775 316.9,356.25 299.5,374.25 276.775,385.5 276.475,385.65 259.15,393.6 249.1,398.25 242.875,402.3 233.575,408.3 226.375,413.925 219.85,419.025 211.9,426.3 205.075,432.45 202.675,439.5 199.75,447.975 204.85,454.05 206.425,456 211.825,458.775 217.225,461.55 216.85,460.275 M246.4,199.8 Q260.875,188.925 282.1,189.6 302.8,190.275 316.9,201.3 324.25,207.075 329.275,211.95 M24.4,243.3 Q29.875,243.15 37.75,244.275 42.25,244.95 51.1,246.375 57.475,247.2 66.4,248.025 71.5,248.475 81.7,249.3 88.3,249.825 96.7,251.925 98.35,252.3 101.575,252.525 103.75,252.6 104.95,253.425 107.8,255.375 114.4,269.25 121.3,283.8 124.9,294.6 127.975,303.9 132.025,321.075 133.825,328.65 137.95,339.075 143.2,352.35 144.625,356.775 145.075,358.125 147.1,366.975 149.2,375.525 150.4,376.8 152.425,379.05 152.05,380.025 152.05,380.175 155.05,380.775 159.925,381.75 166,387.075 172.075,392.25 175.6,398.55 179.575,405.375 178.3,409.95 176.8,415.275 168.4,416.025 164.275,418.125 157.225,416.55 149.35,414.225 145.825,413.775 138.55,412.8 129.1,414.675 123.025,415.65 120.175,416.25 115.45,417.3 111.7,419.4 108.925,421.05 105.325,423.825 103.3,425.4 99.325,428.625 97.225,425.55 99.775,418.875 103.225,411.675 104.275,409.35 105.1,407.475 107.875,404.85 110.575,402.15 111.25,400.65 112.525,397.95 110.8,390.075 110.125,386.925 107.95,379.35 106.375,373.5 102.475,366.75 100.15,362.775 94.9,355.125 M109.9,397.275 Q109.375,397.65 101.425,401.1 95.125,403.8 93.325,406.575 90.325,411.375 89.8,415.65 88.975,422.775 92.35,436.275 92.725,437.775 93.175,439.2 94.15,442.275 95.5,445.2 97.075,448.725 99.25,452.025 100.6,454.125 109.9,465.75 M94.9,355.125 Q93.625,353.175 88.975,347.325 85.3,342.525 83.35,339.225 82,336.45 81.175,334.95 79.75,332.1 78.4,331.275 76.825,330.3 73,330.225 68.8,330.375 67.375,330.3 62.875,330.075 56.125,330.525 45.55,331.275 44.875,331.275 27.25,332.1 15.85,330.375 12.925,330 5.65,327.225 -.725,324.75 -4.625,324.75 M125.35,465.3 Q121.9,465 118.3,461.325 115.3,458.25 113.35,454.275 111.175,449.7 110.275,445.35 110.275,445.275 110.275,445.2 109.525,441.825 109.75,439.2 109.825,437.625 110.275,436.35 112.75,428.775 119.95,424.05 123.925,421.425 134.35,417.3" test="LeftBum"/>
      <path id="Layer1_0_2_STROKES" stroke="#0FF" stroke-width="3" stroke-linejoin="round" stroke-linecap="round" fill="none" d="M135.85,150 L141.625,153.6 Q148.675,158.175 154.825,163.65 174.625,181.05 178.525,199.8 181.75,214.8 189.175,248.325 194.575,278.775 192.4,303.3 189.325,336.825 187.6,346.275 184.9,361.2 178.525,369.75 L166.9,385.8 M94.9,355.125 L92.35,392.25 109.9,397.275 M16.9,196.275 Q28.6,193.2 56.875,183.15 81.925,174.3 96.85,171.075 104.575,169.425 110.95,166.2 115.9,163.65 123.55,158.325 129.7,154.05 135.85,150" test="LeftBum"/>
    </g>
  </g>
</svg>