<?xml version="1.0" encoding="utf-8"?>
<svg id="EdithAnim08" image-rendering="inherit" baseProfile="basic" version="1.1" x="0px" y="0px" width="800" height="600" xmlns="http://www.w3.org/2000/svg" xmlns:xlink="http://www.w3.org/1999/xlink">
  <g id="No-Rear-To-Rearf214r1" overflow="visible">
    <g id="RightBum">
      <path id="Layer2_0_1_STROKES" stroke="#F0F" stroke-width="3" stroke-linejoin="round" stroke-linecap="round" fill="none" d="M696.325,168.075 L704.575,200.475 Q712.45,236.1 710.575,252.525 708.4,271.5 704.275,292.875 700.45,312.825 696.325,327.525 693.7,336.9 691,346.875 690.475,348.225 690.025,348.825 L714.55,342.75 M757.825,193.275 L676.45,156.975 M757.825,327.525 L786.325,323.775 M683.05,333.75 L683.8,336.825 Q685.45,342.825 687.325,347.1 688.75,350.325 690.025,348.825" test="RightBum"/>
      <path id="Layer2_0_2_STROKES" stroke="#F90" stroke-width="3" stroke-linejoin="round" stroke-linecap="round" fill="none" d="M714.55,342.75 L716.875,329.25 Q717.775,324 718.525,310.95 719.275,296.475 720.25,289.35 723.625,262.875 736.375,253.275 743.5,247.875 750.475,245.4 756.025,243.375 761.5,243.225 766.375,243.15 772.375,245.25 M676.45,156.975 Q591.625,119.025 571.825,111.225 559.375,106.35 548.725,103.95 537.55,101.475 528.475,101.775 509.425,102.45 494.875,115.275 479.2,128.925 471.625,146.925 463.6,166.125 467.5,184.275 470.8,199.875 482.425,209.625 488.275,214.5 493.525,216.525 510.475,205.875 527.35,205.275 M714.55,342.75 L706.9,387.225 Q707.425,388.05 706.825,387.6 L704.875,398.775 Q700.225,400.125 694.9,402.975 684.1,408.675 680.35,416.025 676.975,422.625 676.525,428.625 676.225,432.45 677.125,436.05 679.9,447.525 694.825,450.225 708.7,452.775 718.525,446.025 723.775,442.35 729.325,435.75 733.75,431.025 736.15,429.45 736.975,428.925 737.875,428.625 740.05,427.95 742.6,428.625 744.4,429.075 746.35,430.275 752.8,434.025 754.375,433.425 754.675,433.35 757.825,428.775 760.225,425.4 756.85,420.225 754.375,416.4 750.475,413.7 750.175,413.475 749.875,413.25 745.225,411.375 743.35,410.025 740.125,407.625 739.825,400.725 739.525,393.9 748.675,353.625 L757.825,314.775 761.125,314.925 Q766.375,315.075 776.35,314.775 M691.6,336.825 L684.775,333 Q683.875,333.375 683.05,333.75 678.25,335.775 675.85,336.825 680.65,351.375 697.075,374.025 700.825,379.2 705.85,385.8 706.525,386.7 706.9,387.225 L706.825,387.6 Q706.45,387.375 705.85,386.775 M675.85,336.825 Q669.775,339.6 667,342 663.55,344.925 662.875,348.9 661.525,356.4 669.85,368.325 680.2,383.1 702.325,398.775 M683.05,333.75 L682.525,331.725 684.775,333 Q686.2,332.4 687.85,331.725 M493.525,216.525 Q489.4,219.075 485.275,222.225 471.475,232.95 464.95,242.25 460.975,247.95 459.7,253.125 456.175,266.775 456.7,278.775 457.225,290.775 460.525,305.55 462.475,310.275 464.95,315.075 465.7,316.575 466.525,318.075 477.475,338.4 492.775,352.725 509.125,368.025 530.725,373.575 540.625,376.05 548.725,376.2 554.2,376.275 558.85,375.225 558.25,375.9 596.725,405.375 611.95,417.075 627.25,428.625 631.3,431.7 635.35,434.775 L626.35,448.275 M600.85,410.25 L590.35,421.725" test="RightBum"/>
    </g>
    <g id="LeftBum">
      <path id="Layer1_0_1_STROKES" stroke="#FEB7AE" stroke-width="3" stroke-linejoin="round" stroke-linecap="round" fill="none" d="M136.75,150 Q158.275,136.05 180.775,125.025 203.125,114.15 224.2,107.175 251.425,98.175 269.65,98.25 292.6,98.325 309.175,103.95 328.675,110.625 343.75,126.3 350.95,133.725 352.75,149.85 354.1,161.625 352.45,175.8 351.175,186.525 344.05,195.675 339.85,201 330.175,211.95 331.675,213.45 333.025,214.875 339.625,221.925 344.8,231.3 348.325,237.675 350.2,245.775 351.85,252.9 352.3,261.375 352.975,274.575 350.65,287.7 350.125,290.475 349.45,293.25 340.45,332.775 317.8,356.25 300.4,374.25 277.675,385.5 277.375,385.65 260.05,393.6 250,398.25 243.775,402.3 234.475,408.3 227.275,413.925 220.75,419.025 212.8,426.3 205.975,432.45 203.575,439.5 200.65,447.975 205.75,454.05 207.325,456 212.725,458.775 218.125,461.55 217.75,460.275 M247.3,199.8 Q261.775,188.925 283,189.6 303.7,190.275 317.8,201.3 325.15,207.075 330.175,211.95 M25.3,243.3 Q30.775,243.15 38.65,244.275 43.15,244.95 52,246.375 58.375,247.2 67.3,248.025 72.4,248.475 82.6,249.3 89.2,249.825 97.6,251.925 99.25,252.3 102.475,252.525 104.65,252.6 105.85,253.425 108.7,255.375 115.3,269.25 122.2,283.8 125.8,294.6 128.875,303.9 132.925,321.075 134.725,328.65 138.85,339.075 144.1,352.35 145.525,356.775 145.975,358.125 148,366.975 150.1,375.525 151.3,376.8 153.325,379.05 152.95,380.025 152.95,380.175 155.95,380.775 160.825,381.75 166.9,387.075 172.975,392.25 176.5,398.55 180.475,405.375 179.2,409.95 177.7,415.275 169.3,416.025 165.175,418.125 158.125,416.55 150.25,414.225 146.725,413.775 139.45,412.8 130,414.675 123.925,415.65 121.075,416.25 116.35,417.3 112.6,419.4 109.825,421.05 106.225,423.825 104.2,425.4 100.225,428.625 98.125,425.55 100.675,418.875 104.125,411.675 105.175,409.35 106,407.475 108.775,404.85 111.475,402.15 112.15,400.65 113.425,397.95 111.7,390.075 111.025,386.925 108.85,379.35 107.275,373.5 103.375,366.75 101.05,362.775 95.8,355.125 M110.8,397.275 Q110.275,397.65 102.325,401.1 96.025,403.8 94.225,406.575 91.225,411.375 90.7,415.65 89.875,422.775 93.25,436.275 93.625,437.775 94.075,439.2 95.05,442.275 96.4,445.2 97.975,448.725 100.15,452.025 101.5,454.125 110.8,465.75 M95.8,355.125 Q94.525,353.175 89.875,347.325 86.2,342.525 84.25,339.225 82.9,336.45 82.075,334.95 80.65,332.1 79.3,331.275 77.725,330.3 73.9,330.225 69.7,330.375 68.275,330.3 63.775,330.075 57.025,330.525 46.45,331.275 45.775,331.275 28.15,332.1 16.75,330.375 13.825,330 6.55,327.225 .175,324.75 -3.725,324.75 M126.25,465.3 Q122.8,465 119.2,461.325 116.2,458.25 114.25,454.275 112.075,449.7 111.175,445.35 111.175,445.275 111.175,445.2 110.425,441.825 110.65,439.2 110.725,437.625 111.175,436.35 113.65,428.775 120.85,424.05 124.825,421.425 135.25,417.3" test="LeftBum"/>
      <path id="Layer1_0_2_STROKES" stroke="#0FF" stroke-width="3" stroke-linejoin="round" stroke-linecap="round" fill="none" d="M136.75,150 L142.525,153.6 Q149.575,158.175 155.725,163.65 175.525,181.05 179.425,199.8 182.65,214.8 190.075,248.325 195.475,278.775 193.3,303.3 190.225,336.825 188.5,346.275 185.8,361.2 179.425,369.75 L167.8,385.8 M95.8,355.125 L93.25,392.25 110.8,397.275 M17.8,196.275 Q29.5,193.2 57.775,183.15 82.825,174.3 97.75,171.075 105.475,169.425 111.85,166.2 116.8,163.65 124.45,158.325 130.6,154.05 136.75,150" test="LeftBum"/>
    </g>
  </g>
</svg>