<?xml version="1.0" encoding="utf-8"?>
<svg id="EdithAnim08" image-rendering="inherit" baseProfile="basic" version="1.1" x="0px" y="0px" width="800" height="600" xmlns="http://www.w3.org/2000/svg" xmlns:xlink="http://www.w3.org/1999/xlink">
  <g id="No-Rear-To-Rearf216r1" overflow="visible">
    <g id="RightBum">
      <path id="Layer2_0_1_STROKES" stroke="#F0F" stroke-width="3" stroke-linejoin="round" stroke-linecap="round" fill="none" d="M694.525,168.075 L702.775,200.475 Q710.65,236.1 708.775,252.525 706.6,271.5 702.475,292.875 698.65,312.825 694.525,327.525 691.9,336.9 689.2,346.875 688.675,348.225 688.225,348.825 L712.75,342.75 M756.025,193.275 L674.65,156.975 M756.025,327.525 L784.525,323.775 M681.25,333.75 L682,336.825 Q683.65,342.825 685.525,347.1 686.95,350.325 688.225,348.825" test="RightBum"/>
      <path id="Layer2_0_2_STROKES" stroke="#F90" stroke-width="3" stroke-linejoin="round" stroke-linecap="round" fill="none" d="M712.75,342.75 L715.075,329.25 Q715.975,324 716.725,310.95 717.475,296.475 718.45,289.35 721.825,262.875 734.575,253.275 741.7,247.875 748.675,245.4 754.225,243.375 759.7,243.225 764.575,243.15 770.575,245.25 M674.65,156.975 Q589.825,119.025 570.025,111.225 557.575,106.35 546.925,103.95 535.75,101.475 526.675,101.775 507.625,102.45 493.075,115.275 477.4,128.925 469.825,146.925 461.8,166.125 465.7,184.275 469,199.875 480.625,209.625 486.475,214.5 491.725,216.525 508.675,205.875 525.55,205.275 M712.75,342.75 L705.1,387.225 Q705.625,388.05 705.025,387.6 L703.075,398.775 Q698.425,400.125 693.1,402.975 682.3,408.675 678.55,416.025 675.175,422.625 674.725,428.625 674.425,432.45 675.325,436.05 678.1,447.525 693.025,450.225 706.9,452.775 716.725,446.025 721.975,442.35 727.525,435.75 731.95,431.025 734.35,429.45 735.175,428.925 736.075,428.625 738.25,427.95 740.8,428.625 742.6,429.075 744.55,430.275 751,434.025 752.575,433.425 752.875,433.35 756.025,428.775 758.425,425.4 755.05,420.225 752.575,416.4 748.675,413.7 748.375,413.475 748.075,413.25 743.425,411.375 741.55,410.025 738.325,407.625 738.025,400.725 737.725,393.9 746.875,353.625 L756.025,314.775 759.325,314.925 Q764.575,315.075 774.55,314.775 M689.8,336.825 L682.975,333 Q682.075,333.375 681.25,333.75 676.45,335.775 674.05,336.825 678.85,351.375 695.275,374.025 699.025,379.2 704.05,385.8 704.725,386.7 705.1,387.225 L705.025,387.6 Q704.65,387.375 704.05,386.775 M674.05,336.825 Q667.975,339.6 665.2,342 661.75,344.925 661.075,348.9 659.725,356.4 668.05,368.325 678.4,383.1 700.525,398.775 M681.25,333.75 L680.725,331.725 682.975,333 Q684.4,332.4 686.05,331.725 M491.725,216.525 Q487.6,219.075 483.475,222.225 469.675,232.95 463.15,242.25 459.175,247.95 457.9,253.125 454.375,266.775 454.9,278.775 455.425,290.775 458.725,305.55 460.675,310.275 463.15,315.075 463.9,316.575 464.725,318.075 475.675,338.4 490.975,352.725 507.325,368.025 528.925,373.575 538.825,376.05 546.925,376.2 552.4,376.275 557.05,375.225 556.45,375.9 594.925,405.375 610.15,417.075 625.45,428.625 629.5,431.7 633.55,434.775 L624.55,448.275 M599.05,410.25 L588.55,421.725" test="RightBum"/>
    </g>
    <g id="LeftBum">
      <path id="Layer1_0_1_STROKES" stroke="#FEB7AE" stroke-width="3" stroke-linejoin="round" stroke-linecap="round" fill="none" d="M138.6,150 Q160.125,136.05 182.625,125.025 204.975,114.15 226.05,107.175 253.275,98.175 271.5,98.25 294.45,98.325 311.025,103.95 330.525,110.625 345.6,126.3 352.8,133.725 354.6,149.85 355.95,161.625 354.3,175.8 353.025,186.525 345.9,195.675 341.7,201 332.025,211.95 333.525,213.45 334.875,214.875 341.475,221.925 346.65,231.3 350.175,237.675 352.05,245.775 353.7,252.9 354.15,261.375 354.825,274.575 352.5,287.7 351.975,290.475 351.3,293.25 342.3,332.775 319.65,356.25 302.25,374.25 279.525,385.5 279.225,385.65 261.9,393.6 251.85,398.25 245.625,402.3 236.325,408.3 229.125,413.925 222.6,419.025 214.65,426.3 207.825,432.45 205.425,439.5 202.5,447.975 207.6,454.05 209.175,456 214.575,458.775 219.975,461.55 219.6,460.275 M249.15,199.8 Q263.625,188.925 284.85,189.6 305.55,190.275 319.65,201.3 327,207.075 332.025,211.95 M27.15,243.3 Q32.625,243.15 40.5,244.275 45,244.95 53.85,246.375 60.225,247.2 69.15,248.025 74.25,248.475 84.45,249.3 91.05,249.825 99.45,251.925 101.1,252.3 104.325,252.525 106.5,252.6 107.7,253.425 110.55,255.375 117.15,269.25 124.05,283.8 127.65,294.6 130.725,303.9 134.775,321.075 136.575,328.65 140.7,339.075 145.95,352.35 147.375,356.775 147.825,358.125 149.85,366.975 151.95,375.525 153.15,376.8 155.175,379.05 154.8,380.025 154.8,380.175 157.8,380.775 162.675,381.75 168.75,387.075 174.825,392.25 178.35,398.55 182.325,405.375 181.05,409.95 179.55,415.275 171.15,416.025 167.025,418.125 159.975,416.55 152.1,414.225 148.575,413.775 141.3,412.8 131.85,414.675 125.775,415.65 122.925,416.25 118.2,417.3 114.45,419.4 111.675,421.05 108.075,423.825 106.05,425.4 102.075,428.625 99.975,425.55 102.525,418.875 105.975,411.675 107.025,409.35 107.85,407.475 110.625,404.85 113.325,402.15 114,400.65 115.275,397.95 113.55,390.075 112.875,386.925 110.7,379.35 109.125,373.5 105.225,366.75 102.9,362.775 97.65,355.125 M112.65,397.275 Q112.125,397.65 104.175,401.1 97.875,403.8 96.075,406.575 93.075,411.375 92.55,415.65 91.725,422.775 95.1,436.275 95.475,437.775 95.925,439.2 96.9,442.275 98.25,445.2 99.825,448.725 102,452.025 103.35,454.125 112.65,465.75 M97.65,355.125 Q96.375,353.175 91.725,347.325 88.05,342.525 86.1,339.225 84.75,336.45 83.925,334.95 82.5,332.1 81.15,331.275 79.575,330.3 75.75,330.225 71.55,330.375 70.125,330.3 65.625,330.075 58.875,330.525 48.3,331.275 47.625,331.275 30,332.1 18.6,330.375 15.675,330 8.4,327.225 2.025,324.75 -1.875,324.75 M128.1,465.3 Q124.65,465 121.05,461.325 118.05,458.25 116.1,454.275 113.925,449.7 113.025,445.35 113.025,445.275 113.025,445.2 112.275,441.825 112.5,439.2 112.575,437.625 113.025,436.35 115.5,428.775 122.7,424.05 126.675,421.425 137.1,417.3" test="LeftBum"/>
      <path id="Layer1_0_2_STROKES" stroke="#0FF" stroke-width="3" stroke-linejoin="round" stroke-linecap="round" fill="none" d="M138.6,150 L144.375,153.6 Q151.425,158.175 157.575,163.65 177.375,181.05 181.275,199.8 184.5,214.8 191.925,248.325 197.325,278.775 195.15,303.3 192.075,336.825 190.35,346.275 187.65,361.2 181.275,369.75 L169.65,385.8 M97.65,355.125 L95.1,392.25 112.65,397.275 M19.65,196.275 Q31.35,193.2 59.625,183.15 84.675,174.3 99.6,171.075 107.325,169.425 113.7,166.2 118.65,163.65 126.3,158.325 132.45,154.05 138.6,150" test="LeftBum"/>
    </g>
  </g>
</svg>