<?xml version="1.0" encoding="utf-8"?>
<svg id="EdithAnim08" image-rendering="inherit" baseProfile="basic" version="1.1" x="0px" y="0px" width="800" height="600" xmlns="http://www.w3.org/2000/svg" xmlns:xlink="http://www.w3.org/1999/xlink">
  <g id="No-Rear-To-Rearf217r1" overflow="visible">
    <g id="RightBum">
      <path id="Layer2_0_1_STROKES" stroke="#F0F" stroke-width="3" stroke-linejoin="round" stroke-linecap="round" fill="none" d="M693.625,168.075 L701.875,200.475 Q709.75,236.1 707.875,252.525 705.7,271.5 701.575,292.875 697.75,312.825 693.625,327.525 691,336.9 688.3,346.875 687.775,348.225 687.325,348.825 L711.85,342.75 M755.125,193.275 L673.75,156.975 M755.125,327.525 L783.625,323.775 M680.35,333.75 L681.1,336.825 Q682.75,342.825 684.625,347.1 686.05,350.325 687.325,348.825" test="RightBum"/>
      <path id="Layer2_0_2_STROKES" stroke="#F90" stroke-width="3" stroke-linejoin="round" stroke-linecap="round" fill="none" d="M711.85,342.75 L714.175,329.25 Q715.075,324 715.825,310.95 716.575,296.475 717.55,289.35 720.925,262.875 733.675,253.275 740.8,247.875 747.775,245.4 753.325,243.375 758.8,243.225 763.675,243.15 769.675,245.25 M673.75,156.975 Q588.925,119.025 569.125,111.225 556.675,106.35 546.025,103.95 534.85,101.475 525.775,101.775 506.725,102.45 492.175,115.275 476.5,128.925 468.925,146.925 460.9,166.125 464.8,184.275 468.1,199.875 479.725,209.625 485.575,214.5 490.825,216.525 507.775,205.875 524.65,205.275 M711.85,342.75 L704.2,387.225 Q704.725,388.05 704.125,387.6 L702.175,398.775 Q697.525,400.125 692.2,402.975 681.4,408.675 677.65,416.025 674.275,422.625 673.825,428.625 673.525,432.45 674.425,436.05 677.2,447.525 692.125,450.225 706,452.775 715.825,446.025 721.075,442.35 726.625,435.75 731.05,431.025 733.45,429.45 734.275,428.925 735.175,428.625 737.35,427.95 739.9,428.625 741.7,429.075 743.65,430.275 750.1,434.025 751.675,433.425 751.975,433.35 755.125,428.775 757.525,425.4 754.15,420.225 751.675,416.4 747.775,413.7 747.475,413.475 747.175,413.25 742.525,411.375 740.65,410.025 737.425,407.625 737.125,400.725 736.825,393.9 745.975,353.625 L755.125,314.775 758.425,314.925 Q763.675,315.075 773.65,314.775 M688.9,336.825 L682.075,333 Q681.175,333.375 680.35,333.75 675.55,335.775 673.15,336.825 677.95,351.375 694.375,374.025 698.125,379.2 703.15,385.8 703.825,386.7 704.2,387.225 L704.125,387.6 Q703.75,387.375 703.15,386.775 M673.15,336.825 Q667.075,339.6 664.3,342 660.85,344.925 660.175,348.9 658.825,356.4 667.15,368.325 677.5,383.1 699.625,398.775 M680.35,333.75 L679.825,331.725 682.075,333 Q683.5,332.4 685.15,331.725 M490.825,216.525 Q486.7,219.075 482.575,222.225 468.775,232.95 462.25,242.25 458.275,247.95 457,253.125 453.475,266.775 454,278.775 454.525,290.775 457.825,305.55 459.775,310.275 462.25,315.075 463,316.575 463.825,318.075 474.775,338.4 490.075,352.725 506.425,368.025 528.025,373.575 537.925,376.05 546.025,376.2 551.5,376.275 556.15,375.225 555.55,375.9 594.025,405.375 609.25,417.075 624.55,428.625 628.6,431.7 632.65,434.775 L623.65,448.275 M598.15,410.25 L587.65,421.725" test="RightBum"/>
    </g>
    <g id="LeftBum">
      <path id="Layer1_0_1_STROKES" stroke="#FEB7AE" stroke-width="3" stroke-linejoin="round" stroke-linecap="round" fill="none" d="M139.5,150 Q161.025,136.05 183.525,125.025 205.875,114.15 226.95,107.175 254.175,98.175 272.4,98.25 295.35,98.325 311.925,103.95 331.425,110.625 346.5,126.3 353.7,133.725 355.5,149.85 356.85,161.625 355.2,175.8 353.925,186.525 346.8,195.675 342.6,201 332.925,211.95 334.425,213.45 335.775,214.875 342.375,221.925 347.55,231.3 351.075,237.675 352.95,245.775 354.6,252.9 355.05,261.375 355.725,274.575 353.4,287.7 352.875,290.475 352.2,293.25 343.2,332.775 320.55,356.25 303.15,374.25 280.425,385.5 280.125,385.65 262.8,393.6 252.75,398.25 246.525,402.3 237.225,408.3 230.025,413.925 223.5,419.025 215.55,426.3 208.725,432.45 206.325,439.5 203.4,447.975 208.5,454.05 210.075,456 215.475,458.775 220.875,461.55 220.5,460.275 M250.05,199.8 Q264.525,188.925 285.75,189.6 306.45,190.275 320.55,201.3 327.9,207.075 332.925,211.95 M28.05,243.3 Q33.525,243.15 41.4,244.275 45.9,244.95 54.75,246.375 61.125,247.2 70.05,248.025 75.15,248.475 85.35,249.3 91.95,249.825 100.35,251.925 102,252.3 105.225,252.525 107.4,252.6 108.6,253.425 111.45,255.375 118.05,269.25 124.95,283.8 128.55,294.6 131.625,303.9 135.675,321.075 137.475,328.65 141.6,339.075 146.85,352.35 148.275,356.775 148.725,358.125 150.75,366.975 152.85,375.525 154.05,376.8 156.075,379.05 155.7,380.025 155.7,380.175 158.7,380.775 163.575,381.75 169.65,387.075 175.725,392.25 179.25,398.55 183.225,405.375 181.95,409.95 180.45,415.275 172.05,416.025 167.925,418.125 160.875,416.55 153,414.225 149.475,413.775 142.2,412.8 132.75,414.675 126.675,415.65 123.825,416.25 119.1,417.3 115.35,419.4 112.575,421.05 108.975,423.825 106.95,425.4 102.975,428.625 100.875,425.55 103.425,418.875 106.875,411.675 107.925,409.35 108.75,407.475 111.525,404.85 114.225,402.15 114.9,400.65 116.175,397.95 114.45,390.075 113.775,386.925 111.6,379.35 110.025,373.5 106.125,366.75 103.8,362.775 98.55,355.125 M113.55,397.275 Q113.025,397.65 105.075,401.1 98.775,403.8 96.975,406.575 93.975,411.375 93.45,415.65 92.625,422.775 96,436.275 96.375,437.775 96.825,439.2 97.8,442.275 99.15,445.2 100.725,448.725 102.9,452.025 104.25,454.125 113.55,465.75 M98.55,355.125 Q97.275,353.175 92.625,347.325 88.95,342.525 87,339.225 85.65,336.45 84.825,334.95 83.4,332.1 82.05,331.275 80.475,330.3 76.65,330.225 72.45,330.375 71.025,330.3 66.525,330.075 59.775,330.525 49.2,331.275 48.525,331.275 30.9,332.1 19.5,330.375 16.575,330 9.3,327.225 2.925,324.75 -.975,324.75 M129,465.3 Q125.55,465 121.95,461.325 118.95,458.25 117,454.275 114.825,449.7 113.925,445.35 113.925,445.275 113.925,445.2 113.175,441.825 113.4,439.2 113.475,437.625 113.925,436.35 116.4,428.775 123.6,424.05 127.575,421.425 138,417.3" test="LeftBum"/>
      <path id="Layer1_0_2_STROKES" stroke="#0FF" stroke-width="3" stroke-linejoin="round" stroke-linecap="round" fill="none" d="M139.5,150 L145.275,153.6 Q152.325,158.175 158.475,163.65 178.275,181.05 182.175,199.8 185.4,214.8 192.825,248.325 198.225,278.775 196.05,303.3 192.975,336.825 191.25,346.275 188.55,361.2 182.175,369.75 L170.55,385.8 M98.55,355.125 L96,392.25 113.55,397.275 M20.55,196.275 Q32.25,193.2 60.525,183.15 85.575,174.3 100.5,171.075 108.225,169.425 114.6,166.2 119.55,163.65 127.2,158.325 133.35,154.05 139.5,150" test="LeftBum"/>
    </g>
  </g>
</svg>