<?xml version="1.0" encoding="utf-8"?>
<svg id="EdithAnim08" image-rendering="inherit" baseProfile="basic" version="1.1" x="0px" y="0px" width="800" height="600" xmlns="http://www.w3.org/2000/svg" xmlns:xlink="http://www.w3.org/1999/xlink">
  <g id="No-Rear-To-Rearf218r1" overflow="visible">
    <g id="RightBum">
      <path id="Layer2_0_1_STROKES" stroke="#F0F" stroke-width="3" stroke-linejoin="round" stroke-linecap="round" fill="none" d="M692.725,168.075 L700.975,200.475 Q708.85,236.1 706.975,252.525 704.8,271.5 700.675,292.875 696.85,312.825 692.725,327.525 690.1,336.9 687.4,346.875 686.875,348.225 686.425,348.825 L710.95,342.75 M754.225,193.275 L672.85,156.975 M754.225,327.525 L782.725,323.775 M679.45,333.75 L680.2,336.825 Q681.85,342.825 683.725,347.1 685.15,350.325 686.425,348.825" test="RightBum"/>
      <path id="Layer2_0_2_STROKES" stroke="#F90" stroke-width="3" stroke-linejoin="round" stroke-linecap="round" fill="none" d="M710.95,342.75 L713.275,329.25 Q714.175,324 714.925,310.95 715.675,296.475 716.65,289.35 720.025,262.875 732.775,253.275 739.9,247.875 746.875,245.4 752.425,243.375 757.9,243.225 762.775,243.15 768.775,245.25 M672.85,156.975 Q588.025,119.025 568.225,111.225 555.775,106.35 545.125,103.95 533.95,101.475 524.875,101.775 505.825,102.45 491.275,115.275 475.6,128.925 468.025,146.925 460,166.125 463.9,184.275 467.2,199.875 478.825,209.625 484.675,214.5 489.925,216.525 506.875,205.875 523.75,205.275 M710.95,342.75 L703.3,387.225 Q703.825,388.05 703.225,387.6 L701.275,398.775 Q696.625,400.125 691.3,402.975 680.5,408.675 676.75,416.025 673.375,422.625 672.925,428.625 672.625,432.45 673.525,436.05 676.3,447.525 691.225,450.225 705.1,452.775 714.925,446.025 720.175,442.35 725.725,435.75 730.15,431.025 732.55,429.45 733.375,428.925 734.275,428.625 736.45,427.95 739,428.625 740.8,429.075 742.75,430.275 749.2,434.025 750.775,433.425 751.075,433.35 754.225,428.775 756.625,425.4 753.25,420.225 750.775,416.4 746.875,413.7 746.575,413.475 746.275,413.25 741.625,411.375 739.75,410.025 736.525,407.625 736.225,400.725 735.925,393.9 745.075,353.625 L754.225,314.775 757.525,314.925 Q762.775,315.075 772.75,314.775 M688,336.825 L681.175,333 Q680.275,333.375 679.45,333.75 674.65,335.775 672.25,336.825 677.05,351.375 693.475,374.025 697.225,379.2 702.25,385.8 702.925,386.7 703.3,387.225 L703.225,387.6 Q702.85,387.375 702.25,386.775 M672.25,336.825 Q666.175,339.6 663.4,342 659.95,344.925 659.275,348.9 657.925,356.4 666.25,368.325 676.6,383.1 698.725,398.775 M679.45,333.75 L678.925,331.725 681.175,333 Q682.6,332.4 684.25,331.725 M489.925,216.525 Q485.8,219.075 481.675,222.225 467.875,232.95 461.35,242.25 457.375,247.95 456.1,253.125 452.575,266.775 453.1,278.775 453.625,290.775 456.925,305.55 458.875,310.275 461.35,315.075 462.1,316.575 462.925,318.075 473.875,338.4 489.175,352.725 505.525,368.025 527.125,373.575 537.025,376.05 545.125,376.2 550.6,376.275 555.25,375.225 554.65,375.9 593.125,405.375 608.35,417.075 623.65,428.625 627.7,431.7 631.75,434.775 L622.75,448.275 M597.25,410.25 L586.75,421.725" test="RightBum"/>
    </g>
    <g id="LeftBum">
      <path id="Layer1_0_1_STROKES" stroke="#FEB7AE" stroke-width="3" stroke-linejoin="round" stroke-linecap="round" fill="none" d="M140.4,150 Q161.925,136.05 184.425,125.025 206.775,114.15 227.85,107.175 255.075,98.175 273.3,98.25 296.25,98.325 312.825,103.95 332.325,110.625 347.4,126.3 354.6,133.725 356.4,149.85 357.75,161.625 356.1,175.8 354.825,186.525 347.7,195.675 343.5,201 333.825,211.95 335.325,213.45 336.675,214.875 343.275,221.925 348.45,231.3 351.975,237.675 353.85,245.775 355.5,252.9 355.95,261.375 356.625,274.575 354.3,287.7 353.775,290.475 353.1,293.25 344.1,332.775 321.45,356.25 304.05,374.25 281.325,385.5 281.025,385.65 263.7,393.6 253.65,398.25 247.425,402.3 238.125,408.3 230.925,413.925 224.4,419.025 216.45,426.3 209.625,432.45 207.225,439.5 204.3,447.975 209.4,454.05 210.975,456 216.375,458.775 221.775,461.55 221.4,460.275 M250.95,199.8 Q265.425,188.925 286.65,189.6 307.35,190.275 321.45,201.3 328.8,207.075 333.825,211.95 M28.95,243.3 Q34.425,243.15 42.3,244.275 46.8,244.95 55.65,246.375 62.025,247.2 70.95,248.025 76.05,248.475 86.25,249.3 92.85,249.825 101.25,251.925 102.9,252.3 106.125,252.525 108.3,252.6 109.5,253.425 112.35,255.375 118.95,269.25 125.85,283.8 129.45,294.6 132.525,303.9 136.575,321.075 138.375,328.65 142.5,339.075 147.75,352.35 149.175,356.775 149.625,358.125 151.65,366.975 153.75,375.525 154.95,376.8 156.975,379.05 156.6,380.025 156.6,380.175 159.6,380.775 164.475,381.75 170.55,387.075 176.625,392.25 180.15,398.55 184.125,405.375 182.85,409.95 181.35,415.275 172.95,416.025 168.825,418.125 161.775,416.55 153.9,414.225 150.375,413.775 143.1,412.8 133.65,414.675 127.575,415.65 124.725,416.25 120,417.3 116.25,419.4 113.475,421.05 109.875,423.825 107.85,425.4 103.875,428.625 101.775,425.55 104.325,418.875 107.775,411.675 108.825,409.35 109.65,407.475 112.425,404.85 115.125,402.15 115.8,400.65 117.075,397.95 115.35,390.075 114.675,386.925 112.5,379.35 110.925,373.5 107.025,366.75 104.7,362.775 99.45,355.125 M114.45,397.275 Q113.925,397.65 105.975,401.1 99.675,403.8 97.875,406.575 94.875,411.375 94.35,415.65 93.525,422.775 96.9,436.275 97.275,437.775 97.725,439.2 98.7,442.275 100.05,445.2 101.625,448.725 103.8,452.025 105.15,454.125 114.45,465.75 M99.45,355.125 Q98.175,353.175 93.525,347.325 89.85,342.525 87.9,339.225 86.55,336.45 85.725,334.95 84.3,332.1 82.95,331.275 81.375,330.3 77.55,330.225 73.35,330.375 71.925,330.3 67.425,330.075 60.675,330.525 50.1,331.275 49.425,331.275 31.8,332.1 20.4,330.375 17.475,330 10.2,327.225 3.825,324.75 -.075,324.75 M129.9,465.3 Q126.45,465 122.85,461.325 119.85,458.25 117.9,454.275 115.725,449.7 114.825,445.35 114.825,445.275 114.825,445.2 114.075,441.825 114.3,439.2 114.375,437.625 114.825,436.35 117.3,428.775 124.5,424.05 128.475,421.425 138.9,417.3" test="LeftBum"/>
      <path id="Layer1_0_2_STROKES" stroke="#0FF" stroke-width="3" stroke-linejoin="round" stroke-linecap="round" fill="none" d="M140.4,150 L146.175,153.6 Q153.225,158.175 159.375,163.65 179.175,181.05 183.075,199.8 186.3,214.8 193.725,248.325 199.125,278.775 196.95,303.3 193.875,336.825 192.15,346.275 189.45,361.2 183.075,369.75 L171.45,385.8 M99.45,355.125 L96.9,392.25 114.45,397.275 M21.45,196.275 Q33.15,193.2 61.425,183.15 86.475,174.3 101.4,171.075 109.125,169.425 115.5,166.2 120.45,163.65 128.1,158.325 134.25,154.05 140.4,150" test="LeftBum"/>
    </g>
  </g>
</svg>