<?xml version="1.0" encoding="utf-8"?>
<svg id="EdithAnim08" image-rendering="inherit" baseProfile="basic" version="1.1" x="0px" y="0px" width="800" height="600" xmlns="http://www.w3.org/2000/svg" xmlns:xlink="http://www.w3.org/1999/xlink">
  <g id="No-Rear-To-Rearf22r1" overflow="visible">
    <g id="RightBum">
      <path id="Layer2_0_1_STROKES" stroke="#F0F" stroke-width="3" stroke-linejoin="round" stroke-linecap="round" fill="none" d="M998.575,168.075 L1006.825,200.475 Q1014.7,236.1 1012.825,252.525 1010.65,271.5 1006.525,292.875 1002.7,312.825 998.575,327.525 995.95,336.9 993.25,346.875 992.725,348.225 992.275,348.825 L1016.8,342.75 M1060.075,193.275 L978.7,156.975 M1060.075,327.525 L1088.575,323.775 M985.3,333.75 L986.05,336.825 Q987.7,342.825 989.575,347.1 991,350.325 992.275,348.825" test="RightBum"/>
      <path id="Layer2_0_2_STROKES" stroke="#F90" stroke-width="3" stroke-linejoin="round" stroke-linecap="round" fill="none" d="M1016.8,342.75 L1019.125,329.25 Q1020.025,324 1020.775,310.95 1021.525,296.475 1022.5,289.35 1025.875,262.875 1038.625,253.275 1045.75,247.875 1052.725,245.4 1058.275,243.375 1063.75,243.225 1068.625,243.15 1074.625,245.25 M978.7,156.975 Q893.875,119.025 874.075,111.225 861.625,106.35 850.975,103.95 839.8,101.475 830.725,101.775 811.675,102.45 797.125,115.275 781.45,128.925 773.875,146.925 765.85,166.125 769.75,184.275 773.05,199.875 784.675,209.625 790.525,214.5 795.775,216.525 812.725,205.875 829.6,205.275 M1016.8,342.75 L1009.15,387.225 Q1009.675,388.05 1009.075,387.6 L1007.125,398.775 Q1002.475,400.125 997.15,402.975 986.35,408.675 982.6,416.025 979.225,422.625 978.775,428.625 978.475,432.45 979.375,436.05 982.15,447.525 997.075,450.225 1010.95,452.775 1020.775,446.025 1026.025,442.35 1031.575,435.75 1036,431.025 1038.4,429.45 1039.225,428.925 1040.125,428.625 1042.3,427.95 1044.85,428.625 1046.65,429.075 1048.6,430.275 1055.05,434.025 1056.625,433.425 1056.925,433.35 1060.075,428.775 1062.475,425.4 1059.1,420.225 1056.625,416.4 1052.725,413.7 1052.425,413.475 1052.125,413.25 1047.475,411.375 1045.6,410.025 1042.375,407.625 1042.075,400.725 1041.775,393.9 1050.925,353.625 L1060.075,314.775 1063.375,314.925 Q1068.625,315.075 1078.6,314.775 M993.85,336.825 L987.025,333 Q986.125,333.375 985.3,333.75 980.5,335.775 978.1,336.825 982.9,351.375 999.325,374.025 1003.075,379.2 1008.1,385.8 1008.775,386.7 1009.15,387.225 L1009.075,387.6 Q1008.7,387.375 1008.1,386.775 M978.1,336.825 Q972.025,339.6 969.25,342 965.8,344.925 965.125,348.9 963.775,356.4 972.1,368.325 982.45,383.1 1004.575,398.775 M985.3,333.75 L984.775,331.725 987.025,333 Q988.45,332.4 990.1,331.725 M795.775,216.525 Q791.65,219.075 787.525,222.225 773.725,232.95 767.2,242.25 763.225,247.95 761.95,253.125 758.425,266.775 758.95,278.775 759.475,290.775 762.775,305.55 764.725,310.275 767.2,315.075 767.95,316.575 768.775,318.075 779.725,338.4 795.025,352.725 811.375,368.025 832.975,373.575 842.875,376.05 850.975,376.2 856.45,376.275 861.1,375.225 860.5,375.9 898.975,405.375 914.2,417.075 929.5,428.625 933.55,431.7 937.6,434.775 L928.6,448.275 M903.1,410.25 L892.6,421.725" test="RightBum"/>
    </g>
    <g id="LeftBum">
      <path id="Layer1_0_1_STROKES" stroke="#FEB7AE" stroke-width="3" stroke-linejoin="round" stroke-linecap="round" fill="none" d="M-170.4,150 Q-148.875,136.05 -126.375,125.025 -104.025,114.15 -82.95,107.175 -55.725,98.175 -37.5,98.25 -14.55,98.325 2.025,103.95 21.525,110.625 36.6,126.3 43.8,133.725 45.6,149.85 46.95,161.625 45.3,175.8 44.025,186.525 36.9,195.675 32.7,201 23.025,211.95 24.525,213.45 25.875,214.875 32.475,221.925 37.65,231.3 41.175,237.675 43.05,245.775 44.7,252.9 45.15,261.375 45.825,274.575 43.5,287.7 42.975,290.475 42.3,293.25 33.3,332.775 10.65,356.25 -6.75,374.25 -29.475,385.5 -29.775,385.65 -47.1,393.6 -57.15,398.25 -63.375,402.3 -72.675,408.3 -79.875,413.925 -86.4,419.025 -94.35,426.3 -101.175,432.45 -103.575,439.5 -106.5,447.975 -101.4,454.05 -99.825,456 -94.425,458.775 -89.025,461.55 -89.4,460.275 M-59.85,199.8 Q-45.375,188.925 -24.15,189.6 -3.45,190.275 10.65,201.3 18,207.075 23.025,211.95 M-281.85,243.3 Q-276.375,243.15 -268.5,244.275 -264,244.95 -255.15,246.375 -248.775,247.2 -239.85,248.025 -234.75,248.475 -224.55,249.3 -217.95,249.825 -209.55,251.925 -207.9,252.3 -204.675,252.525 -202.5,252.6 -201.3,253.425 -198.45,255.375 -191.85,269.25 -184.95,283.8 -181.35,294.6 -178.275,303.9 -174.225,321.075 -172.425,328.65 -168.3,339.075 -163.05,352.35 -161.625,356.775 -161.175,358.125 -159.15,366.975 -157.05,375.525 -155.85,376.8 -153.825,379.05 -154.2,380.025 -154.2,380.175 -151.2,380.775 -146.325,381.75 -140.25,387.075 -134.175,392.25 -130.65,398.55 -126.675,405.375 -127.95,409.95 -129.45,415.275 -137.85,416.025 -141.975,418.125 -149.025,416.55 -156.9,414.225 -160.425,413.775 -167.7,412.8 -177.15,414.675 -183.225,415.65 -186.075,416.25 -190.8,417.3 -194.55,419.4 -197.325,421.05 -200.925,423.825 -202.95,425.4 -206.925,428.625 -209.025,425.55 -206.475,418.875 -203.025,411.675 -201.975,409.35 -201.15,407.475 -198.375,404.85 -195.675,402.15 -195,400.65 -193.725,397.95 -195.45,390.075 -196.125,386.925 -198.3,379.35 -199.875,373.5 -203.775,366.75 -206.1,362.775 -211.35,355.125 M-196.35,397.275 Q-196.875,397.65 -204.825,401.1 -211.125,403.8 -212.925,406.575 -215.925,411.375 -216.45,415.65 -217.275,422.775 -213.9,436.275 -213.525,437.775 -213.075,439.2 -212.1,442.275 -210.75,445.2 -209.175,448.725 -207,452.025 -205.65,454.125 -196.35,465.75 M-211.35,355.125 Q-212.625,353.175 -217.275,347.325 -220.95,342.525 -222.9,339.225 -224.25,336.45 -225.075,334.95 -226.5,332.1 -227.85,331.275 -229.425,330.3 -233.25,330.225 -237.45,330.375 -238.875,330.3 -243.375,330.075 -250.125,330.525 -260.7,331.275 -261.375,331.275 -279,332.1 -290.4,330.375 -293.325,330 -300.6,327.225 -306.975,324.75 -310.875,324.75 M-180.9,465.3 Q-184.35,465 -187.95,461.325 -190.95,458.25 -192.9,454.275 -195.075,449.7 -195.975,445.35 -195.975,445.275 -195.975,445.2 -196.725,441.825 -196.5,439.2 -196.425,437.625 -195.975,436.35 -193.5,428.775 -186.3,424.05 -182.325,421.425 -171.9,417.3" test="LeftBum"/>
      <path id="Layer1_0_2_STROKES" stroke="#0FF" stroke-width="3" stroke-linejoin="round" stroke-linecap="round" fill="none" d="M-170.4,150 L-164.625,153.6 Q-157.575,158.175 -151.425,163.65 -131.625,181.05 -127.725,199.8 -124.5,214.8 -117.075,248.325 -111.675,278.775 -113.85,303.3 -116.925,336.825 -118.65,346.275 -121.35,361.2 -127.725,369.75 L-139.35,385.8 M-211.35,355.125 L-213.9,392.25 -196.35,397.275 M-289.35,196.275 Q-277.65,193.2 -249.375,183.15 -224.325,174.3 -209.4,171.075 -201.675,169.425 -195.3,166.2 -190.35,163.65 -182.7,158.325 -176.55,154.05 -170.4,150" test="LeftBum"/>
    </g>
  </g>
</svg>