<?xml version="1.0" encoding="utf-8"?>
<svg id="EdithAnim08" image-rendering="inherit" baseProfile="basic" version="1.1" x="0px" y="0px" width="800" height="600" xmlns="http://www.w3.org/2000/svg" xmlns:xlink="http://www.w3.org/1999/xlink">
  <g id="No-Rear-To-Rearf221r1" overflow="visible">
    <g id="RightBum">
      <path id="Layer2_0_1_STROKES" stroke="#F0F" stroke-width="3" stroke-linejoin="round" stroke-linecap="round" fill="none" d="M690.125,168.075 L698.375,200.475 Q706.25,236.1 704.375,252.525 702.2,271.5 698.075,292.875 694.25,312.825 690.125,327.525 687.5,336.9 684.8,346.875 684.275,348.225 683.825,348.825 L708.35,342.75 M751.625,193.275 L670.25,156.975 M751.625,327.525 L780.125,323.775 M676.85,333.75 L677.6,336.825 Q679.25,342.825 681.125,347.1 682.55,350.325 683.825,348.825" test="RightBum"/>
      <path id="Layer2_0_2_STROKES" stroke="#F90" stroke-width="3" stroke-linejoin="round" stroke-linecap="round" fill="none" d="M708.35,342.75 L710.675,329.25 Q711.575,324 712.325,310.95 713.075,296.475 714.05,289.35 717.425,262.875 730.175,253.275 737.3,247.875 744.275,245.4 749.825,243.375 755.3,243.225 760.175,243.15 766.175,245.25 M670.25,156.975 Q585.425,119.025 565.625,111.225 553.175,106.35 542.525,103.95 531.35,101.475 522.275,101.775 503.225,102.45 488.675,115.275 473,128.925 465.425,146.925 457.4,166.125 461.3,184.275 464.6,199.875 476.225,209.625 482.075,214.5 487.325,216.525 504.275,205.875 521.15,205.275 M708.35,342.75 L700.7,387.225 Q701.225,388.05 700.625,387.6 L698.675,398.775 Q694.025,400.125 688.7,402.975 677.9,408.675 674.15,416.025 670.775,422.625 670.325,428.625 670.025,432.45 670.925,436.05 673.7,447.525 688.625,450.225 702.5,452.775 712.325,446.025 717.575,442.35 723.125,435.75 727.55,431.025 729.95,429.45 730.775,428.925 731.675,428.625 733.85,427.95 736.4,428.625 738.2,429.075 740.15,430.275 746.6,434.025 748.175,433.425 748.475,433.35 751.625,428.775 754.025,425.4 750.65,420.225 748.175,416.4 744.275,413.7 743.975,413.475 743.675,413.25 739.025,411.375 737.15,410.025 733.925,407.625 733.625,400.725 733.325,393.9 742.475,353.625 L751.625,314.775 754.925,314.925 Q760.175,315.075 770.15,314.775 M685.4,336.825 L678.575,333 Q677.675,333.375 676.85,333.75 672.05,335.775 669.65,336.825 674.45,351.375 690.875,374.025 694.625,379.2 699.65,385.8 700.325,386.7 700.7,387.225 L700.625,387.6 Q700.25,387.375 699.65,386.775 M669.65,336.825 Q663.575,339.6 660.8,342 657.35,344.925 656.675,348.9 655.325,356.4 663.65,368.325 674,383.1 696.125,398.775 M676.85,333.75 L676.325,331.725 678.575,333 Q680,332.4 681.65,331.725 M487.325,216.525 Q483.2,219.075 479.075,222.225 465.275,232.95 458.75,242.25 454.775,247.95 453.5,253.125 449.975,266.775 450.5,278.775 451.025,290.775 454.325,305.55 456.275,310.275 458.75,315.075 459.5,316.575 460.325,318.075 471.275,338.4 486.575,352.725 502.925,368.025 524.525,373.575 534.425,376.05 542.525,376.2 548,376.275 552.65,375.225 552.05,375.9 590.525,405.375 605.75,417.075 621.05,428.625 625.1,431.7 629.15,434.775 L620.15,448.275 M594.65,410.25 L584.15,421.725" test="RightBum"/>
    </g>
    <g id="LeftBum">
      <path id="Layer1_0_1_STROKES" stroke="#FEB7AE" stroke-width="3" stroke-linejoin="round" stroke-linecap="round" fill="none" d="M143.05,150 Q164.575,136.05 187.075,125.025 209.425,114.15 230.5,107.175 257.725,98.175 275.95,98.25 298.9,98.325 315.475,103.95 334.975,110.625 350.05,126.3 357.25,133.725 359.05,149.85 360.4,161.625 358.75,175.8 357.475,186.525 350.35,195.675 346.15,201 336.475,211.95 337.975,213.45 339.325,214.875 345.925,221.925 351.1,231.3 354.625,237.675 356.5,245.775 358.15,252.9 358.6,261.375 359.275,274.575 356.95,287.7 356.425,290.475 355.75,293.25 346.75,332.775 324.1,356.25 306.7,374.25 283.975,385.5 283.675,385.65 266.35,393.6 256.3,398.25 250.075,402.3 240.775,408.3 233.575,413.925 227.05,419.025 219.1,426.3 212.275,432.45 209.875,439.5 206.95,447.975 212.05,454.05 213.625,456 219.025,458.775 224.425,461.55 224.05,460.275 M253.6,199.8 Q268.075,188.925 289.3,189.6 310,190.275 324.1,201.3 331.45,207.075 336.475,211.95 M31.6,243.3 Q37.075,243.15 44.95,244.275 49.45,244.95 58.3,246.375 64.675,247.2 73.6,248.025 78.7,248.475 88.9,249.3 95.5,249.825 103.9,251.925 105.55,252.3 108.775,252.525 110.95,252.6 112.15,253.425 115,255.375 121.6,269.25 128.5,283.8 132.1,294.6 135.175,303.9 139.225,321.075 141.025,328.65 145.15,339.075 150.4,352.35 151.825,356.775 152.275,358.125 154.3,366.975 156.4,375.525 157.6,376.8 159.625,379.05 159.25,380.025 159.25,380.175 162.25,380.775 167.125,381.75 173.2,387.075 179.275,392.25 182.8,398.55 186.775,405.375 185.5,409.95 184,415.275 175.6,416.025 171.475,418.125 164.425,416.55 156.55,414.225 153.025,413.775 145.75,412.8 136.3,414.675 130.225,415.65 127.375,416.25 122.65,417.3 118.9,419.4 116.125,421.05 112.525,423.825 110.5,425.4 106.525,428.625 104.425,425.55 106.975,418.875 110.425,411.675 111.475,409.35 112.3,407.475 115.075,404.85 117.775,402.15 118.45,400.65 119.725,397.95 118,390.075 117.325,386.925 115.15,379.35 113.575,373.5 109.675,366.75 107.35,362.775 102.1,355.125 M117.1,397.275 Q116.575,397.65 108.625,401.1 102.325,403.8 100.525,406.575 97.525,411.375 97,415.65 96.175,422.775 99.55,436.275 99.925,437.775 100.375,439.2 101.35,442.275 102.7,445.2 104.275,448.725 106.45,452.025 107.8,454.125 117.1,465.75 M102.1,355.125 Q100.825,353.175 96.175,347.325 92.5,342.525 90.55,339.225 89.2,336.45 88.375,334.95 86.95,332.1 85.6,331.275 84.025,330.3 80.2,330.225 76,330.375 74.575,330.3 70.075,330.075 63.325,330.525 52.75,331.275 52.075,331.275 34.45,332.1 23.05,330.375 20.125,330 12.85,327.225 6.475,324.75 2.575,324.75 M132.55,465.3 Q129.1,465 125.5,461.325 122.5,458.25 120.55,454.275 118.375,449.7 117.475,445.35 117.475,445.275 117.475,445.2 116.725,441.825 116.95,439.2 117.025,437.625 117.475,436.35 119.95,428.775 127.15,424.05 131.125,421.425 141.55,417.3" test="LeftBum"/>
      <path id="Layer1_0_2_STROKES" stroke="#0FF" stroke-width="3" stroke-linejoin="round" stroke-linecap="round" fill="none" d="M143.05,150 L148.825,153.6 Q155.875,158.175 162.025,163.65 181.825,181.05 185.725,199.8 188.95,214.8 196.375,248.325 201.775,278.775 199.6,303.3 196.525,336.825 194.8,346.275 192.1,361.2 185.725,369.75 L174.1,385.8 M102.1,355.125 L99.55,392.25 117.1,397.275 M24.1,196.275 Q35.8,193.2 64.075,183.15 89.125,174.3 104.05,171.075 111.775,169.425 118.15,166.2 123.1,163.65 130.75,158.325 136.9,154.05 143.05,150" test="LeftBum"/>
    </g>
  </g>
</svg>