<?xml version="1.0" encoding="utf-8"?>
<svg id="EdithAnim08" image-rendering="inherit" baseProfile="basic" version="1.1" x="0px" y="0px" width="800" height="600" xmlns="http://www.w3.org/2000/svg" xmlns:xlink="http://www.w3.org/1999/xlink">
  <g id="No-Rear-To-Rearf222r1" overflow="visible">
    <g id="RightBum">
      <path id="Layer2_0_1_STROKES" stroke="#F0F" stroke-width="3" stroke-linejoin="round" stroke-linecap="round" fill="none" d="M689.275,168.075 L697.525,200.475 Q705.4,236.1 703.525,252.525 701.35,271.5 697.225,292.875 693.4,312.825 689.275,327.525 686.65,336.9 683.95,346.875 683.425,348.225 682.975,348.825 L707.5,342.75 M750.775,193.275 L669.4,156.975 M750.775,327.525 L779.275,323.775 M676,333.75 L676.75,336.825 Q678.4,342.825 680.275,347.1 681.7,350.325 682.975,348.825" test="RightBum"/>
      <path id="Layer2_0_2_STROKES" stroke="#F90" stroke-width="3" stroke-linejoin="round" stroke-linecap="round" fill="none" d="M707.5,342.75 L709.825,329.25 Q710.725,324 711.475,310.95 712.225,296.475 713.2,289.35 716.575,262.875 729.325,253.275 736.45,247.875 743.425,245.4 748.975,243.375 754.45,243.225 759.325,243.15 765.325,245.25 M669.4,156.975 Q584.575,119.025 564.775,111.225 552.325,106.35 541.675,103.95 530.5,101.475 521.425,101.775 502.375,102.45 487.825,115.275 472.15,128.925 464.575,146.925 456.55,166.125 460.45,184.275 463.75,199.875 475.375,209.625 481.225,214.5 486.475,216.525 503.425,205.875 520.3,205.275 M707.5,342.75 L699.85,387.225 Q700.375,388.05 699.775,387.6 L697.825,398.775 Q693.175,400.125 687.85,402.975 677.05,408.675 673.3,416.025 669.925,422.625 669.475,428.625 669.175,432.45 670.075,436.05 672.85,447.525 687.775,450.225 701.65,452.775 711.475,446.025 716.725,442.35 722.275,435.75 726.7,431.025 729.1,429.45 729.925,428.925 730.825,428.625 733,427.95 735.55,428.625 737.35,429.075 739.3,430.275 745.75,434.025 747.325,433.425 747.625,433.35 750.775,428.775 753.175,425.4 749.8,420.225 747.325,416.4 743.425,413.7 743.125,413.475 742.825,413.25 738.175,411.375 736.3,410.025 733.075,407.625 732.775,400.725 732.475,393.9 741.625,353.625 L750.775,314.775 754.075,314.925 Q759.325,315.075 769.3,314.775 M684.55,336.825 L677.725,333 Q676.825,333.375 676,333.75 671.2,335.775 668.8,336.825 673.6,351.375 690.025,374.025 693.775,379.2 698.8,385.8 699.475,386.7 699.85,387.225 L699.775,387.6 Q699.4,387.375 698.8,386.775 M668.8,336.825 Q662.725,339.6 659.95,342 656.5,344.925 655.825,348.9 654.475,356.4 662.8,368.325 673.15,383.1 695.275,398.775 M676,333.75 L675.475,331.725 677.725,333 Q679.15,332.4 680.8,331.725 M486.475,216.525 Q482.35,219.075 478.225,222.225 464.425,232.95 457.9,242.25 453.925,247.95 452.65,253.125 449.125,266.775 449.65,278.775 450.175,290.775 453.475,305.55 455.425,310.275 457.9,315.075 458.65,316.575 459.475,318.075 470.425,338.4 485.725,352.725 502.075,368.025 523.675,373.575 533.575,376.05 541.675,376.2 547.15,376.275 551.8,375.225 551.2,375.9 589.675,405.375 604.9,417.075 620.2,428.625 624.25,431.7 628.3,434.775 L619.3,448.275 M593.8,410.25 L583.3,421.725" test="RightBum"/>
    </g>
    <g id="LeftBum">
      <path id="Layer1_0_1_STROKES" stroke="#FEB7AE" stroke-width="3" stroke-linejoin="round" stroke-linecap="round" fill="none" d="M143.9,150 Q165.425,136.05 187.925,125.025 210.275,114.15 231.35,107.175 258.575,98.175 276.8,98.25 299.75,98.325 316.325,103.95 335.825,110.625 350.9,126.3 358.1,133.725 359.9,149.85 361.25,161.625 359.6,175.8 358.325,186.525 351.2,195.675 347,201 337.325,211.95 338.825,213.45 340.175,214.875 346.775,221.925 351.95,231.3 355.475,237.675 357.35,245.775 359,252.9 359.45,261.375 360.125,274.575 357.8,287.7 357.275,290.475 356.6,293.25 347.6,332.775 324.95,356.25 307.55,374.25 284.825,385.5 284.525,385.65 267.2,393.6 257.15,398.25 250.925,402.3 241.625,408.3 234.425,413.925 227.9,419.025 219.95,426.3 213.125,432.45 210.725,439.5 207.8,447.975 212.9,454.05 214.475,456 219.875,458.775 225.275,461.55 224.9,460.275 M254.45,199.8 Q268.925,188.925 290.15,189.6 310.85,190.275 324.95,201.3 332.3,207.075 337.325,211.95 M32.45,243.3 Q37.925,243.15 45.8,244.275 50.3,244.95 59.15,246.375 65.525,247.2 74.45,248.025 79.55,248.475 89.75,249.3 96.35,249.825 104.75,251.925 106.4,252.3 109.625,252.525 111.8,252.6 113,253.425 115.85,255.375 122.45,269.25 129.35,283.8 132.95,294.6 136.025,303.9 140.075,321.075 141.875,328.65 146,339.075 151.25,352.35 152.675,356.775 153.125,358.125 155.15,366.975 157.25,375.525 158.45,376.8 160.475,379.05 160.1,380.025 160.1,380.175 163.1,380.775 167.975,381.75 174.05,387.075 180.125,392.25 183.65,398.55 187.625,405.375 186.35,409.95 184.85,415.275 176.45,416.025 172.325,418.125 165.275,416.55 157.4,414.225 153.875,413.775 146.6,412.8 137.15,414.675 131.075,415.65 128.225,416.25 123.5,417.3 119.75,419.4 116.975,421.05 113.375,423.825 111.35,425.4 107.375,428.625 105.275,425.55 107.825,418.875 111.275,411.675 112.325,409.35 113.15,407.475 115.925,404.85 118.625,402.15 119.3,400.65 120.575,397.95 118.85,390.075 118.175,386.925 116,379.35 114.425,373.5 110.525,366.75 108.2,362.775 102.95,355.125 M117.95,397.275 Q117.425,397.65 109.475,401.1 103.175,403.8 101.375,406.575 98.375,411.375 97.85,415.65 97.025,422.775 100.4,436.275 100.775,437.775 101.225,439.2 102.2,442.275 103.55,445.2 105.125,448.725 107.3,452.025 108.65,454.125 117.95,465.75 M102.95,355.125 Q101.675,353.175 97.025,347.325 93.35,342.525 91.4,339.225 90.05,336.45 89.225,334.95 87.8,332.1 86.45,331.275 84.875,330.3 81.05,330.225 76.85,330.375 75.425,330.3 70.925,330.075 64.175,330.525 53.6,331.275 52.925,331.275 35.3,332.1 23.9,330.375 20.975,330 13.7,327.225 7.325,324.75 3.425,324.75 M133.4,465.3 Q129.95,465 126.35,461.325 123.35,458.25 121.4,454.275 119.225,449.7 118.325,445.35 118.325,445.275 118.325,445.2 117.575,441.825 117.8,439.2 117.875,437.625 118.325,436.35 120.8,428.775 128,424.05 131.975,421.425 142.4,417.3" test="LeftBum"/>
      <path id="Layer1_0_2_STROKES" stroke="#0FF" stroke-width="3" stroke-linejoin="round" stroke-linecap="round" fill="none" d="M143.9,150 L149.675,153.6 Q156.725,158.175 162.875,163.65 182.675,181.05 186.575,199.8 189.8,214.8 197.225,248.325 202.625,278.775 200.45,303.3 197.375,336.825 195.65,346.275 192.95,361.2 186.575,369.75 L174.95,385.8 M102.95,355.125 L100.4,392.25 117.95,397.275 M24.95,196.275 Q36.65,193.2 64.925,183.15 89.975,174.3 104.9,171.075 112.625,169.425 119,166.2 123.95,163.65 131.6,158.325 137.75,154.05 143.9,150" test="LeftBum"/>
    </g>
  </g>
</svg>