<?xml version="1.0" encoding="utf-8"?>
<svg id="EdithAnim08" image-rendering="inherit" baseProfile="basic" version="1.1" x="0px" y="0px" width="800" height="600" xmlns="http://www.w3.org/2000/svg" xmlns:xlink="http://www.w3.org/1999/xlink">
  <g id="No-Rear-To-Rearf224r1" overflow="visible">
    <g id="RightBum">
      <path id="Layer2_0_1_STROKES" stroke="#F0F" stroke-width="3" stroke-linejoin="round" stroke-linecap="round" fill="none" d="M687.625,168.075 L695.875,200.475 Q703.75,236.1 701.875,252.525 699.7,271.5 695.575,292.875 691.75,312.825 687.625,327.525 685,336.9 682.3,346.875 681.775,348.225 681.325,348.825 L705.85,342.75 M749.125,193.275 L667.75,156.975 M749.125,327.525 L777.625,323.775 M674.35,333.75 L675.1,336.825 Q676.75,342.825 678.625,347.1 680.05,350.325 681.325,348.825" test="RightBum"/>
      <path id="Layer2_0_2_STROKES" stroke="#F90" stroke-width="3" stroke-linejoin="round" stroke-linecap="round" fill="none" d="M705.85,342.75 L708.175,329.25 Q709.075,324 709.825,310.95 710.575,296.475 711.55,289.35 714.925,262.875 727.675,253.275 734.8,247.875 741.775,245.4 747.325,243.375 752.8,243.225 757.675,243.15 763.675,245.25 M667.75,156.975 Q582.925,119.025 563.125,111.225 550.675,106.35 540.025,103.95 528.85,101.475 519.775,101.775 500.725,102.45 486.175,115.275 470.5,128.925 462.925,146.925 454.9,166.125 458.8,184.275 462.1,199.875 473.725,209.625 479.575,214.5 484.825,216.525 501.775,205.875 518.65,205.275 M705.85,342.75 L698.2,387.225 Q698.725,388.05 698.125,387.6 L696.175,398.775 Q691.525,400.125 686.2,402.975 675.4,408.675 671.65,416.025 668.275,422.625 667.825,428.625 667.525,432.45 668.425,436.05 671.2,447.525 686.125,450.225 700,452.775 709.825,446.025 715.075,442.35 720.625,435.75 725.05,431.025 727.45,429.45 728.275,428.925 729.175,428.625 731.35,427.95 733.9,428.625 735.7,429.075 737.65,430.275 744.1,434.025 745.675,433.425 745.975,433.35 749.125,428.775 751.525,425.4 748.15,420.225 745.675,416.4 741.775,413.7 741.475,413.475 741.175,413.25 736.525,411.375 734.65,410.025 731.425,407.625 731.125,400.725 730.825,393.9 739.975,353.625 L749.125,314.775 752.425,314.925 Q757.675,315.075 767.65,314.775 M682.9,336.825 L676.075,333 Q675.175,333.375 674.35,333.75 669.55,335.775 667.15,336.825 671.95,351.375 688.375,374.025 692.125,379.2 697.15,385.8 697.825,386.7 698.2,387.225 L698.125,387.6 Q697.75,387.375 697.15,386.775 M667.15,336.825 Q661.075,339.6 658.3,342 654.85,344.925 654.175,348.9 652.825,356.4 661.15,368.325 671.5,383.1 693.625,398.775 M674.35,333.75 L673.825,331.725 676.075,333 Q677.5,332.4 679.15,331.725 M484.825,216.525 Q480.7,219.075 476.575,222.225 462.775,232.95 456.25,242.25 452.275,247.95 451,253.125 447.475,266.775 448,278.775 448.525,290.775 451.825,305.55 453.775,310.275 456.25,315.075 457,316.575 457.825,318.075 468.775,338.4 484.075,352.725 500.425,368.025 522.025,373.575 531.925,376.05 540.025,376.2 545.5,376.275 550.15,375.225 549.55,375.9 588.025,405.375 603.25,417.075 618.55,428.625 622.6,431.7 626.65,434.775 L617.65,448.275 M592.15,410.25 L581.65,421.725" test="RightBum"/>
    </g>
    <g id="LeftBum">
      <path id="Layer1_0_1_STROKES" stroke="#FEB7AE" stroke-width="3" stroke-linejoin="round" stroke-linecap="round" fill="none" d="M145.6,150 Q167.125,136.05 189.625,125.025 211.975,114.15 233.05,107.175 260.275,98.175 278.5,98.25 301.45,98.325 318.025,103.95 337.525,110.625 352.6,126.3 359.8,133.725 361.6,149.85 362.95,161.625 361.3,175.8 360.025,186.525 352.9,195.675 348.7,201 339.025,211.95 340.525,213.45 341.875,214.875 348.475,221.925 353.65,231.3 357.175,237.675 359.05,245.775 360.7,252.9 361.15,261.375 361.825,274.575 359.5,287.7 358.975,290.475 358.3,293.25 349.3,332.775 326.65,356.25 309.25,374.25 286.525,385.5 286.225,385.65 268.9,393.6 258.85,398.25 252.625,402.3 243.325,408.3 236.125,413.925 229.6,419.025 221.65,426.3 214.825,432.45 212.425,439.5 209.5,447.975 214.6,454.05 216.175,456 221.575,458.775 226.975,461.55 226.6,460.275 M256.15,199.8 Q270.625,188.925 291.85,189.6 312.55,190.275 326.65,201.3 334,207.075 339.025,211.95 M34.15,243.3 Q39.625,243.15 47.5,244.275 52,244.95 60.85,246.375 67.225,247.2 76.15,248.025 81.25,248.475 91.45,249.3 98.05,249.825 106.45,251.925 108.1,252.3 111.325,252.525 113.5,252.6 114.7,253.425 117.55,255.375 124.15,269.25 131.05,283.8 134.65,294.6 137.725,303.9 141.775,321.075 143.575,328.65 147.7,339.075 152.95,352.35 154.375,356.775 154.825,358.125 156.85,366.975 158.95,375.525 160.15,376.8 162.175,379.05 161.8,380.025 161.8,380.175 164.8,380.775 169.675,381.75 175.75,387.075 181.825,392.25 185.35,398.55 189.325,405.375 188.05,409.95 186.55,415.275 178.15,416.025 174.025,418.125 166.975,416.55 159.1,414.225 155.575,413.775 148.3,412.8 138.85,414.675 132.775,415.65 129.925,416.25 125.2,417.3 121.45,419.4 118.675,421.05 115.075,423.825 113.05,425.4 109.075,428.625 106.975,425.55 109.525,418.875 112.975,411.675 114.025,409.35 114.85,407.475 117.625,404.85 120.325,402.15 121,400.65 122.275,397.95 120.55,390.075 119.875,386.925 117.7,379.35 116.125,373.5 112.225,366.75 109.9,362.775 104.65,355.125 M119.65,397.275 Q119.125,397.65 111.175,401.1 104.875,403.8 103.075,406.575 100.075,411.375 99.55,415.65 98.725,422.775 102.1,436.275 102.475,437.775 102.925,439.2 103.9,442.275 105.25,445.2 106.825,448.725 109,452.025 110.35,454.125 119.65,465.75 M104.65,355.125 Q103.375,353.175 98.725,347.325 95.05,342.525 93.1,339.225 91.75,336.45 90.925,334.95 89.5,332.1 88.15,331.275 86.575,330.3 82.75,330.225 78.55,330.375 77.125,330.3 72.625,330.075 65.875,330.525 55.3,331.275 54.625,331.275 37,332.1 25.6,330.375 22.675,330 15.4,327.225 9.025,324.75 5.125,324.75 M135.1,465.3 Q131.65,465 128.05,461.325 125.05,458.25 123.1,454.275 120.925,449.7 120.025,445.35 120.025,445.275 120.025,445.2 119.275,441.825 119.5,439.2 119.575,437.625 120.025,436.35 122.5,428.775 129.7,424.05 133.675,421.425 144.1,417.3" test="LeftBum"/>
      <path id="Layer1_0_2_STROKES" stroke="#0FF" stroke-width="3" stroke-linejoin="round" stroke-linecap="round" fill="none" d="M145.6,150 L151.375,153.6 Q158.425,158.175 164.575,163.65 184.375,181.05 188.275,199.8 191.5,214.8 198.925,248.325 204.325,278.775 202.15,303.3 199.075,336.825 197.35,346.275 194.65,361.2 188.275,369.75 L176.65,385.8 M104.65,355.125 L102.1,392.25 119.65,397.275 M26.65,196.275 Q38.35,193.2 66.625,183.15 91.675,174.3 106.6,171.075 114.325,169.425 120.7,166.2 125.65,163.65 133.3,158.325 139.45,154.05 145.6,150" test="LeftBum"/>
    </g>
  </g>
</svg>