<?xml version="1.0" encoding="utf-8"?>
<svg id="EdithAnim08" image-rendering="inherit" baseProfile="basic" version="1.1" x="0px" y="0px" width="800" height="600" xmlns="http://www.w3.org/2000/svg" xmlns:xlink="http://www.w3.org/1999/xlink">
  <g id="No-Rear-To-Rearf23r1" overflow="visible">
    <g id="RightBum">
      <path id="Layer2_0_1_STROKES" stroke="#F0F" stroke-width="3" stroke-linejoin="round" stroke-linecap="round" fill="none" d="M996.325,168.075 L1004.575,200.475 Q1012.45,236.1 1010.575,252.525 1008.4,271.5 1004.275,292.875 1000.45,312.825 996.325,327.525 993.7,336.9 991,346.875 990.475,348.225 990.025,348.825 L1014.55,342.75 M1057.825,193.275 L976.45,156.975 M1057.825,327.525 L1086.325,323.775 M983.05,333.75 L983.8,336.825 Q985.45,342.825 987.325,347.1 988.75,350.325 990.025,348.825" test="RightBum"/>
      <path id="Layer2_0_2_STROKES" stroke="#F90" stroke-width="3" stroke-linejoin="round" stroke-linecap="round" fill="none" d="M1014.55,342.75 L1016.875,329.25 Q1017.775,324 1018.525,310.95 1019.275,296.475 1020.25,289.35 1023.625,262.875 1036.375,253.275 1043.5,247.875 1050.475,245.4 1056.025,243.375 1061.5,243.225 1066.375,243.15 1072.375,245.25 M976.45,156.975 Q891.625,119.025 871.825,111.225 859.375,106.35 848.725,103.95 837.55,101.475 828.475,101.775 809.425,102.45 794.875,115.275 779.2,128.925 771.625,146.925 763.6,166.125 767.5,184.275 770.8,199.875 782.425,209.625 788.275,214.5 793.525,216.525 810.475,205.875 827.35,205.275 M1014.55,342.75 L1006.9,387.225 Q1007.425,388.05 1006.825,387.6 L1004.875,398.775 Q1000.225,400.125 994.9,402.975 984.1,408.675 980.35,416.025 976.975,422.625 976.525,428.625 976.225,432.45 977.125,436.05 979.9,447.525 994.825,450.225 1008.7,452.775 1018.525,446.025 1023.775,442.35 1029.325,435.75 1033.75,431.025 1036.15,429.45 1036.975,428.925 1037.875,428.625 1040.05,427.95 1042.6,428.625 1044.4,429.075 1046.35,430.275 1052.8,434.025 1054.375,433.425 1054.675,433.35 1057.825,428.775 1060.225,425.4 1056.85,420.225 1054.375,416.4 1050.475,413.7 1050.175,413.475 1049.875,413.25 1045.225,411.375 1043.35,410.025 1040.125,407.625 1039.825,400.725 1039.525,393.9 1048.675,353.625 L1057.825,314.775 1061.125,314.925 Q1066.375,315.075 1076.35,314.775 M991.6,336.825 L984.775,333 Q983.875,333.375 983.05,333.75 978.25,335.775 975.85,336.825 980.65,351.375 997.075,374.025 1000.825,379.2 1005.85,385.8 1006.525,386.7 1006.9,387.225 L1006.825,387.6 Q1006.45,387.375 1005.85,386.775 M975.85,336.825 Q969.775,339.6 967,342 963.55,344.925 962.875,348.9 961.525,356.4 969.85,368.325 980.2,383.1 1002.325,398.775 M983.05,333.75 L982.525,331.725 984.775,333 Q986.2,332.4 987.85,331.725 M793.525,216.525 Q789.4,219.075 785.275,222.225 771.475,232.95 764.95,242.25 760.975,247.95 759.7,253.125 756.175,266.775 756.7,278.775 757.225,290.775 760.525,305.55 762.475,310.275 764.95,315.075 765.7,316.575 766.525,318.075 777.475,338.4 792.775,352.725 809.125,368.025 830.725,373.575 840.625,376.05 848.725,376.2 854.2,376.275 858.85,375.225 858.25,375.9 896.725,405.375 911.95,417.075 927.25,428.625 931.3,431.7 935.35,434.775 L926.35,448.275 M900.85,410.25 L890.35,421.725" test="RightBum"/>
    </g>
    <g id="LeftBum">
      <path id="Layer1_0_1_STROKES" stroke="#FEB7AE" stroke-width="3" stroke-linejoin="round" stroke-linecap="round" fill="none" d="M-168.15,150 Q-146.625,136.05 -124.125,125.025 -101.775,114.15 -80.7,107.175 -53.475,98.175 -35.25,98.25 -12.3,98.325 4.275,103.95 23.775,110.625 38.85,126.3 46.05,133.725 47.85,149.85 49.2,161.625 47.55,175.8 46.275,186.525 39.15,195.675 34.95,201 25.275,211.95 26.775,213.45 28.125,214.875 34.725,221.925 39.9,231.3 43.425,237.675 45.3,245.775 46.95,252.9 47.4,261.375 48.075,274.575 45.75,287.7 45.225,290.475 44.55,293.25 35.55,332.775 12.9,356.25 -4.5,374.25 -27.225,385.5 -27.525,385.65 -44.85,393.6 -54.9,398.25 -61.125,402.3 -70.425,408.3 -77.625,413.925 -84.15,419.025 -92.1,426.3 -98.925,432.45 -101.325,439.5 -104.25,447.975 -99.15,454.05 -97.575,456 -92.175,458.775 -86.775,461.55 -87.15,460.275 M-57.6,199.8 Q-43.125,188.925 -21.9,189.6 -1.2,190.275 12.9,201.3 20.25,207.075 25.275,211.95 M-279.6,243.3 Q-274.125,243.15 -266.25,244.275 -261.75,244.95 -252.9,246.375 -246.525,247.2 -237.6,248.025 -232.5,248.475 -222.3,249.3 -215.7,249.825 -207.3,251.925 -205.65,252.3 -202.425,252.525 -200.25,252.6 -199.05,253.425 -196.2,255.375 -189.6,269.25 -182.7,283.8 -179.1,294.6 -176.025,303.9 -171.975,321.075 -170.175,328.65 -166.05,339.075 -160.8,352.35 -159.375,356.775 -158.925,358.125 -156.9,366.975 -154.8,375.525 -153.6,376.8 -151.575,379.05 -151.95,380.025 -151.95,380.175 -148.95,380.775 -144.075,381.75 -138,387.075 -131.925,392.25 -128.4,398.55 -124.425,405.375 -125.7,409.95 -127.2,415.275 -135.6,416.025 -139.725,418.125 -146.775,416.55 -154.65,414.225 -158.175,413.775 -165.45,412.8 -174.9,414.675 -180.975,415.65 -183.825,416.25 -188.55,417.3 -192.3,419.4 -195.075,421.05 -198.675,423.825 -200.7,425.4 -204.675,428.625 -206.775,425.55 -204.225,418.875 -200.775,411.675 -199.725,409.35 -198.9,407.475 -196.125,404.85 -193.425,402.15 -192.75,400.65 -191.475,397.95 -193.2,390.075 -193.875,386.925 -196.05,379.35 -197.625,373.5 -201.525,366.75 -203.85,362.775 -209.1,355.125 M-194.1,397.275 Q-194.625,397.65 -202.575,401.1 -208.875,403.8 -210.675,406.575 -213.675,411.375 -214.2,415.65 -215.025,422.775 -211.65,436.275 -211.275,437.775 -210.825,439.2 -209.85,442.275 -208.5,445.2 -206.925,448.725 -204.75,452.025 -203.4,454.125 -194.1,465.75 M-209.1,355.125 Q-210.375,353.175 -215.025,347.325 -218.7,342.525 -220.65,339.225 -222,336.45 -222.825,334.95 -224.25,332.1 -225.6,331.275 -227.175,330.3 -231,330.225 -235.2,330.375 -236.625,330.3 -241.125,330.075 -247.875,330.525 -258.45,331.275 -259.125,331.275 -276.75,332.1 -288.15,330.375 -291.075,330 -298.35,327.225 -304.725,324.75 -308.625,324.75 M-178.65,465.3 Q-182.1,465 -185.7,461.325 -188.7,458.25 -190.65,454.275 -192.825,449.7 -193.725,445.35 -193.725,445.275 -193.725,445.2 -194.475,441.825 -194.25,439.2 -194.175,437.625 -193.725,436.35 -191.25,428.775 -184.05,424.05 -180.075,421.425 -169.65,417.3" test="LeftBum"/>
      <path id="Layer1_0_2_STROKES" stroke="#0FF" stroke-width="3" stroke-linejoin="round" stroke-linecap="round" fill="none" d="M-168.15,150 L-162.375,153.6 Q-155.325,158.175 -149.175,163.65 -129.375,181.05 -125.475,199.8 -122.25,214.8 -114.825,248.325 -109.425,278.775 -111.6,303.3 -114.675,336.825 -116.4,346.275 -119.1,361.2 -125.475,369.75 L-137.1,385.8 M-209.1,355.125 L-211.65,392.25 -194.1,397.275 M-287.1,196.275 Q-275.4,193.2 -247.125,183.15 -222.075,174.3 -207.15,171.075 -199.425,169.425 -193.05,166.2 -188.1,163.65 -180.45,158.325 -174.3,154.05 -168.15,150" test="LeftBum"/>
    </g>
  </g>
</svg>