<?xml version="1.0" encoding="utf-8"?>
<svg id="EdithAnim08" image-rendering="inherit" baseProfile="basic" version="1.1" x="0px" y="0px" width="800" height="600" xmlns="http://www.w3.org/2000/svg" xmlns:xlink="http://www.w3.org/1999/xlink">
  <g id="No-Rear-To-Rearf232r1" overflow="visible">
    <g id="RightBum">
      <path id="Layer2_0_1_STROKES" stroke="#F0F" stroke-width="3" stroke-linejoin="round" stroke-linecap="round" fill="none" d="M681.175,168.075 L689.425,200.475 Q697.3,236.1 695.425,252.525 693.25,271.5 689.125,292.875 685.3,312.825 681.175,327.525 678.55,336.9 675.85,346.875 675.325,348.225 674.875,348.825 L699.4,342.75 M742.675,193.275 L661.3,156.975 M742.675,327.525 L771.175,323.775 M667.9,333.75 L668.65,336.825 Q670.3,342.825 672.175,347.1 673.6,350.325 674.875,348.825" test="RightBum"/>
      <path id="Layer2_0_2_STROKES" stroke="#F90" stroke-width="3" stroke-linejoin="round" stroke-linecap="round" fill="none" d="M699.4,342.75 L701.725,329.25 Q702.625,324 703.375,310.95 704.125,296.475 705.1,289.35 708.475,262.875 721.225,253.275 728.35,247.875 735.325,245.4 740.875,243.375 746.35,243.225 751.225,243.15 757.225,245.25 M661.3,156.975 Q576.475,119.025 556.675,111.225 544.225,106.35 533.575,103.95 522.4,101.475 513.325,101.775 494.275,102.45 479.725,115.275 464.05,128.925 456.475,146.925 448.45,166.125 452.35,184.275 455.65,199.875 467.275,209.625 473.125,214.5 478.375,216.525 495.325,205.875 512.2,205.275 M699.4,342.75 L691.75,387.225 Q692.275,388.05 691.675,387.6 L689.725,398.775 Q685.075,400.125 679.75,402.975 668.95,408.675 665.2,416.025 661.825,422.625 661.375,428.625 661.075,432.45 661.975,436.05 664.75,447.525 679.675,450.225 693.55,452.775 703.375,446.025 708.625,442.35 714.175,435.75 718.6,431.025 721,429.45 721.825,428.925 722.725,428.625 724.9,427.95 727.45,428.625 729.25,429.075 731.2,430.275 737.65,434.025 739.225,433.425 739.525,433.35 742.675,428.775 745.075,425.4 741.7,420.225 739.225,416.4 735.325,413.7 735.025,413.475 734.725,413.25 730.075,411.375 728.2,410.025 724.975,407.625 724.675,400.725 724.375,393.9 733.525,353.625 L742.675,314.775 745.975,314.925 Q751.225,315.075 761.2,314.775 M676.45,336.825 L669.625,333 Q668.725,333.375 667.9,333.75 663.1,335.775 660.7,336.825 665.5,351.375 681.925,374.025 685.675,379.2 690.7,385.8 691.375,386.7 691.75,387.225 L691.675,387.6 Q691.3,387.375 690.7,386.775 M660.7,336.825 Q654.625,339.6 651.85,342 648.4,344.925 647.725,348.9 646.375,356.4 654.7,368.325 665.05,383.1 687.175,398.775 M667.9,333.75 L667.375,331.725 669.625,333 Q671.05,332.4 672.7,331.725 M478.375,216.525 Q474.25,219.075 470.125,222.225 456.325,232.95 449.8,242.25 445.825,247.95 444.55,253.125 441.025,266.775 441.55,278.775 442.075,290.775 445.375,305.55 447.325,310.275 449.8,315.075 450.55,316.575 451.375,318.075 462.325,338.4 477.625,352.725 493.975,368.025 515.575,373.575 525.475,376.05 533.575,376.2 539.05,376.275 543.7,375.225 543.1,375.9 581.575,405.375 596.8,417.075 612.1,428.625 616.15,431.7 620.2,434.775 L611.2,448.275 M585.7,410.25 L575.2,421.725" test="RightBum"/>
    </g>
    <g id="LeftBum">
      <path id="Layer1_0_1_STROKES" stroke="#FEB7AE" stroke-width="3" stroke-linejoin="round" stroke-linecap="round" fill="none" d="M152.15,150 Q173.675,136.05 196.175,125.025 218.525,114.15 239.6,107.175 266.825,98.175 285.05,98.25 308,98.325 324.575,103.95 344.075,110.625 359.15,126.3 366.35,133.725 368.15,149.85 369.5,161.625 367.85,175.8 366.575,186.525 359.45,195.675 355.25,201 345.575,211.95 347.075,213.45 348.425,214.875 355.025,221.925 360.2,231.3 363.725,237.675 365.6,245.775 367.25,252.9 367.7,261.375 368.375,274.575 366.05,287.7 365.525,290.475 364.85,293.25 355.85,332.775 333.2,356.25 315.8,374.25 293.075,385.5 292.775,385.65 275.45,393.6 265.4,398.25 259.175,402.3 249.875,408.3 242.675,413.925 236.15,419.025 228.2,426.3 221.375,432.45 218.975,439.5 216.05,447.975 221.15,454.05 222.725,456 228.125,458.775 233.525,461.55 233.15,460.275 M262.7,199.8 Q277.175,188.925 298.4,189.6 319.1,190.275 333.2,201.3 340.55,207.075 345.575,211.95 M40.7,243.3 Q46.175,243.15 54.05,244.275 58.55,244.95 67.4,246.375 73.775,247.2 82.7,248.025 87.8,248.475 98,249.3 104.6,249.825 113,251.925 114.65,252.3 117.875,252.525 120.05,252.6 121.25,253.425 124.1,255.375 130.7,269.25 137.6,283.8 141.2,294.6 144.275,303.9 148.325,321.075 150.125,328.65 154.25,339.075 159.5,352.35 160.925,356.775 161.375,358.125 163.4,366.975 165.5,375.525 166.7,376.8 168.725,379.05 168.35,380.025 168.35,380.175 171.35,380.775 176.225,381.75 182.3,387.075 188.375,392.25 191.9,398.55 195.875,405.375 194.6,409.95 193.1,415.275 184.7,416.025 180.575,418.125 173.525,416.55 165.65,414.225 162.125,413.775 154.85,412.8 145.4,414.675 139.325,415.65 136.475,416.25 131.75,417.3 128,419.4 125.225,421.05 121.625,423.825 119.6,425.4 115.625,428.625 113.525,425.55 116.075,418.875 119.525,411.675 120.575,409.35 121.4,407.475 124.175,404.85 126.875,402.15 127.55,400.65 128.825,397.95 127.1,390.075 126.425,386.925 124.25,379.35 122.675,373.5 118.775,366.75 116.45,362.775 111.2,355.125 M126.2,397.275 Q125.675,397.65 117.725,401.1 111.425,403.8 109.625,406.575 106.625,411.375 106.1,415.65 105.275,422.775 108.65,436.275 109.025,437.775 109.475,439.2 110.45,442.275 111.8,445.2 113.375,448.725 115.55,452.025 116.9,454.125 126.2,465.75 M111.2,355.125 Q109.925,353.175 105.275,347.325 101.6,342.525 99.65,339.225 98.3,336.45 97.475,334.95 96.05,332.1 94.7,331.275 93.125,330.3 89.3,330.225 85.1,330.375 83.675,330.3 79.175,330.075 72.425,330.525 61.85,331.275 61.175,331.275 43.55,332.1 32.15,330.375 29.225,330 21.95,327.225 15.575,324.75 11.675,324.75 M141.65,465.3 Q138.2,465 134.6,461.325 131.6,458.25 129.65,454.275 127.475,449.7 126.575,445.35 126.575,445.275 126.575,445.2 125.825,441.825 126.05,439.2 126.125,437.625 126.575,436.35 129.05,428.775 136.25,424.05 140.225,421.425 150.65,417.3" test="LeftBum"/>
      <path id="Layer1_0_2_STROKES" stroke="#0FF" stroke-width="3" stroke-linejoin="round" stroke-linecap="round" fill="none" d="M152.15,150 L157.925,153.6 Q164.975,158.175 171.125,163.65 190.925,181.05 194.825,199.8 198.05,214.8 205.475,248.325 210.875,278.775 208.7,303.3 205.625,336.825 203.9,346.275 201.2,361.2 194.825,369.75 L183.2,385.8 M111.2,355.125 L108.65,392.25 126.2,397.275 M33.2,196.275 Q44.9,193.2 73.175,183.15 98.225,174.3 113.15,171.075 120.875,169.425 127.25,166.2 132.2,163.65 139.85,158.325 146,154.05 152.15,150" test="LeftBum"/>
    </g>
  </g>
</svg>