<?xml version="1.0" encoding="utf-8"?>
<svg id="EdithAnim08" image-rendering="inherit" baseProfile="basic" version="1.1" x="0px" y="0px" width="800" height="600" xmlns="http://www.w3.org/2000/svg" xmlns:xlink="http://www.w3.org/1999/xlink">
  <g id="No-Rear-To-Rearf233r1" overflow="visible">
    <g id="RightBum">
      <path id="Layer2_0_1_STROKES" stroke="#F0F" stroke-width="3" stroke-linejoin="round" stroke-linecap="round" fill="none" d="M680.375,168.075 L688.625,200.475 Q696.5,236.1 694.625,252.525 692.45,271.5 688.325,292.875 684.5,312.825 680.375,327.525 677.75,336.9 675.05,346.875 674.525,348.225 674.075,348.825 L698.6,342.75 M741.875,193.275 L660.5,156.975 M741.875,327.525 L770.375,323.775 M667.1,333.75 L667.85,336.825 Q669.5,342.825 671.375,347.1 672.8,350.325 674.075,348.825" test="RightBum"/>
      <path id="Layer2_0_2_STROKES" stroke="#F90" stroke-width="3" stroke-linejoin="round" stroke-linecap="round" fill="none" d="M698.6,342.75 L700.925,329.25 Q701.825,324 702.575,310.95 703.325,296.475 704.3,289.35 707.675,262.875 720.425,253.275 727.55,247.875 734.525,245.4 740.075,243.375 745.55,243.225 750.425,243.15 756.425,245.25 M660.5,156.975 Q575.675,119.025 555.875,111.225 543.425,106.35 532.775,103.95 521.6,101.475 512.525,101.775 493.475,102.45 478.925,115.275 463.25,128.925 455.675,146.925 447.65,166.125 451.55,184.275 454.85,199.875 466.475,209.625 472.325,214.5 477.575,216.525 494.525,205.875 511.4,205.275 M698.6,342.75 L690.95,387.225 Q691.475,388.05 690.875,387.6 L688.925,398.775 Q684.275,400.125 678.95,402.975 668.15,408.675 664.4,416.025 661.025,422.625 660.575,428.625 660.275,432.45 661.175,436.05 663.95,447.525 678.875,450.225 692.75,452.775 702.575,446.025 707.825,442.35 713.375,435.75 717.8,431.025 720.2,429.45 721.025,428.925 721.925,428.625 724.1,427.95 726.65,428.625 728.45,429.075 730.4,430.275 736.85,434.025 738.425,433.425 738.725,433.35 741.875,428.775 744.275,425.4 740.9,420.225 738.425,416.4 734.525,413.7 734.225,413.475 733.925,413.25 729.275,411.375 727.4,410.025 724.175,407.625 723.875,400.725 723.575,393.9 732.725,353.625 L741.875,314.775 745.175,314.925 Q750.425,315.075 760.4,314.775 M675.65,336.825 L668.825,333 Q667.925,333.375 667.1,333.75 662.3,335.775 659.9,336.825 664.7,351.375 681.125,374.025 684.875,379.2 689.9,385.8 690.575,386.7 690.95,387.225 L690.875,387.6 Q690.5,387.375 689.9,386.775 M659.9,336.825 Q653.825,339.6 651.05,342 647.6,344.925 646.925,348.9 645.575,356.4 653.9,368.325 664.25,383.1 686.375,398.775 M667.1,333.75 L666.575,331.725 668.825,333 Q670.25,332.4 671.9,331.725 M477.575,216.525 Q473.45,219.075 469.325,222.225 455.525,232.95 449,242.25 445.025,247.95 443.75,253.125 440.225,266.775 440.75,278.775 441.275,290.775 444.575,305.55 446.525,310.275 449,315.075 449.75,316.575 450.575,318.075 461.525,338.4 476.825,352.725 493.175,368.025 514.775,373.575 524.675,376.05 532.775,376.2 538.25,376.275 542.9,375.225 542.3,375.9 580.775,405.375 596,417.075 611.3,428.625 615.35,431.7 619.4,434.775 L610.4,448.275 M584.9,410.25 L574.4,421.725" test="RightBum"/>
    </g>
    <g id="LeftBum">
      <path id="Layer1_0_1_STROKES" stroke="#FEB7AE" stroke-width="3" stroke-linejoin="round" stroke-linecap="round" fill="none" d="M152.95,150 Q174.475,136.05 196.975,125.025 219.325,114.15 240.4,107.175 267.625,98.175 285.85,98.25 308.8,98.325 325.375,103.95 344.875,110.625 359.95,126.3 367.15,133.725 368.95,149.85 370.3,161.625 368.65,175.8 367.375,186.525 360.25,195.675 356.05,201 346.375,211.95 347.875,213.45 349.225,214.875 355.825,221.925 361,231.3 364.525,237.675 366.4,245.775 368.05,252.9 368.5,261.375 369.175,274.575 366.85,287.7 366.325,290.475 365.65,293.25 356.65,332.775 334,356.25 316.6,374.25 293.875,385.5 293.575,385.65 276.25,393.6 266.2,398.25 259.975,402.3 250.675,408.3 243.475,413.925 236.95,419.025 229,426.3 222.175,432.45 219.775,439.5 216.85,447.975 221.95,454.05 223.525,456 228.925,458.775 234.325,461.55 233.95,460.275 M263.5,199.8 Q277.975,188.925 299.2,189.6 319.9,190.275 334,201.3 341.35,207.075 346.375,211.95 M41.5,243.3 Q46.975,243.15 54.85,244.275 59.35,244.95 68.2,246.375 74.575,247.2 83.5,248.025 88.6,248.475 98.8,249.3 105.4,249.825 113.8,251.925 115.45,252.3 118.675,252.525 120.85,252.6 122.05,253.425 124.9,255.375 131.5,269.25 138.4,283.8 142,294.6 145.075,303.9 149.125,321.075 150.925,328.65 155.05,339.075 160.3,352.35 161.725,356.775 162.175,358.125 164.2,366.975 166.3,375.525 167.5,376.8 169.525,379.05 169.15,380.025 169.15,380.175 172.15,380.775 177.025,381.75 183.1,387.075 189.175,392.25 192.7,398.55 196.675,405.375 195.4,409.95 193.9,415.275 185.5,416.025 181.375,418.125 174.325,416.55 166.45,414.225 162.925,413.775 155.65,412.8 146.2,414.675 140.125,415.65 137.275,416.25 132.55,417.3 128.8,419.4 126.025,421.05 122.425,423.825 120.4,425.4 116.425,428.625 114.325,425.55 116.875,418.875 120.325,411.675 121.375,409.35 122.2,407.475 124.975,404.85 127.675,402.15 128.35,400.65 129.625,397.95 127.9,390.075 127.225,386.925 125.05,379.35 123.475,373.5 119.575,366.75 117.25,362.775 112,355.125 M127,397.275 Q126.475,397.65 118.525,401.1 112.225,403.8 110.425,406.575 107.425,411.375 106.9,415.65 106.075,422.775 109.45,436.275 109.825,437.775 110.275,439.2 111.25,442.275 112.6,445.2 114.175,448.725 116.35,452.025 117.7,454.125 127,465.75 M112,355.125 Q110.725,353.175 106.075,347.325 102.4,342.525 100.45,339.225 99.1,336.45 98.275,334.95 96.85,332.1 95.5,331.275 93.925,330.3 90.1,330.225 85.9,330.375 84.475,330.3 79.975,330.075 73.225,330.525 62.65,331.275 61.975,331.275 44.35,332.1 32.95,330.375 30.025,330 22.75,327.225 16.375,324.75 12.475,324.75 M142.45,465.3 Q139,465 135.4,461.325 132.4,458.25 130.45,454.275 128.275,449.7 127.375,445.35 127.375,445.275 127.375,445.2 126.625,441.825 126.85,439.2 126.925,437.625 127.375,436.35 129.85,428.775 137.05,424.05 141.025,421.425 151.45,417.3" test="LeftBum"/>
      <path id="Layer1_0_2_STROKES" stroke="#0FF" stroke-width="3" stroke-linejoin="round" stroke-linecap="round" fill="none" d="M152.95,150 L158.725,153.6 Q165.775,158.175 171.925,163.65 191.725,181.05 195.625,199.8 198.85,214.8 206.275,248.325 211.675,278.775 209.5,303.3 206.425,336.825 204.7,346.275 202,361.2 195.625,369.75 L184,385.8 M112,355.125 L109.45,392.25 127,397.275 M34,196.275 Q45.7,193.2 73.975,183.15 99.025,174.3 113.95,171.075 121.675,169.425 128.05,166.2 133,163.65 140.65,158.325 146.8,154.05 152.95,150" test="LeftBum"/>
    </g>
  </g>
</svg>