<?xml version="1.0" encoding="utf-8"?>
<svg id="EdithAnim08" image-rendering="inherit" baseProfile="basic" version="1.1" x="0px" y="0px" width="800" height="600" xmlns="http://www.w3.org/2000/svg" xmlns:xlink="http://www.w3.org/1999/xlink">
  <g id="No-Rear-To-Rearf235r1" overflow="visible">
    <g id="RightBum">
      <path id="Layer2_0_1_STROKES" stroke="#F0F" stroke-width="3" stroke-linejoin="round" stroke-linecap="round" fill="none" d="M678.875,168.075 L687.125,200.475 Q695,236.1 693.125,252.525 690.95,271.5 686.825,292.875 683,312.825 678.875,327.525 676.25,336.9 673.55,346.875 673.025,348.225 672.575,348.825 L697.1,342.75 M740.375,193.275 L659,156.975 M740.375,327.525 L768.875,323.775 M665.6,333.75 L666.35,336.825 Q668,342.825 669.875,347.1 671.3,350.325 672.575,348.825" test="RightBum"/>
      <path id="Layer2_0_2_STROKES" stroke="#F90" stroke-width="3" stroke-linejoin="round" stroke-linecap="round" fill="none" d="M697.1,342.75 L699.425,329.25 Q700.325,324 701.075,310.95 701.825,296.475 702.8,289.35 706.175,262.875 718.925,253.275 726.05,247.875 733.025,245.4 738.575,243.375 744.05,243.225 748.925,243.15 754.925,245.25 M659,156.975 Q574.175,119.025 554.375,111.225 541.925,106.35 531.275,103.95 520.1,101.475 511.025,101.775 491.975,102.45 477.425,115.275 461.75,128.925 454.175,146.925 446.15,166.125 450.05,184.275 453.35,199.875 464.975,209.625 470.825,214.5 476.075,216.525 493.025,205.875 509.9,205.275 M697.1,342.75 L689.45,387.225 Q689.975,388.05 689.375,387.6 L687.425,398.775 Q682.775,400.125 677.45,402.975 666.65,408.675 662.9,416.025 659.525,422.625 659.075,428.625 658.775,432.45 659.675,436.05 662.45,447.525 677.375,450.225 691.25,452.775 701.075,446.025 706.325,442.35 711.875,435.75 716.3,431.025 718.7,429.45 719.525,428.925 720.425,428.625 722.6,427.95 725.15,428.625 726.95,429.075 728.9,430.275 735.35,434.025 736.925,433.425 737.225,433.35 740.375,428.775 742.775,425.4 739.4,420.225 736.925,416.4 733.025,413.7 732.725,413.475 732.425,413.25 727.775,411.375 725.9,410.025 722.675,407.625 722.375,400.725 722.075,393.9 731.225,353.625 L740.375,314.775 743.675,314.925 Q748.925,315.075 758.9,314.775 M674.15,336.825 L667.325,333 Q666.425,333.375 665.6,333.75 660.8,335.775 658.4,336.825 663.2,351.375 679.625,374.025 683.375,379.2 688.4,385.8 689.075,386.7 689.45,387.225 L689.375,387.6 Q689,387.375 688.4,386.775 M658.4,336.825 Q652.325,339.6 649.55,342 646.1,344.925 645.425,348.9 644.075,356.4 652.4,368.325 662.75,383.1 684.875,398.775 M665.6,333.75 L665.075,331.725 667.325,333 Q668.75,332.4 670.4,331.725 M476.075,216.525 Q471.95,219.075 467.825,222.225 454.025,232.95 447.5,242.25 443.525,247.95 442.25,253.125 438.725,266.775 439.25,278.775 439.775,290.775 443.075,305.55 445.025,310.275 447.5,315.075 448.25,316.575 449.075,318.075 460.025,338.4 475.325,352.725 491.675,368.025 513.275,373.575 523.175,376.05 531.275,376.2 536.75,376.275 541.4,375.225 540.8,375.9 579.275,405.375 594.5,417.075 609.8,428.625 613.85,431.7 617.9,434.775 L608.9,448.275 M583.4,410.25 L572.9,421.725" test="RightBum"/>
    </g>
    <g id="LeftBum">
      <path id="Layer1_0_1_STROKES" stroke="#FEB7AE" stroke-width="3" stroke-linejoin="round" stroke-linecap="round" fill="none" d="M154.5,150 Q176.025,136.05 198.525,125.025 220.875,114.15 241.95,107.175 269.175,98.175 287.4,98.25 310.35,98.325 326.925,103.95 346.425,110.625 361.5,126.3 368.7,133.725 370.5,149.85 371.85,161.625 370.2,175.8 368.925,186.525 361.8,195.675 357.6,201 347.925,211.95 349.425,213.45 350.775,214.875 357.375,221.925 362.55,231.3 366.075,237.675 367.95,245.775 369.6,252.9 370.05,261.375 370.725,274.575 368.4,287.7 367.875,290.475 367.2,293.25 358.2,332.775 335.55,356.25 318.15,374.25 295.425,385.5 295.125,385.65 277.8,393.6 267.75,398.25 261.525,402.3 252.225,408.3 245.025,413.925 238.5,419.025 230.55,426.3 223.725,432.45 221.325,439.5 218.4,447.975 223.5,454.05 225.075,456 230.475,458.775 235.875,461.55 235.5,460.275 M265.05,199.8 Q279.525,188.925 300.75,189.6 321.45,190.275 335.55,201.3 342.9,207.075 347.925,211.95 M43.05,243.3 Q48.525,243.15 56.4,244.275 60.9,244.95 69.75,246.375 76.125,247.2 85.05,248.025 90.15,248.475 100.35,249.3 106.95,249.825 115.35,251.925 117,252.3 120.225,252.525 122.4,252.6 123.6,253.425 126.45,255.375 133.05,269.25 139.95,283.8 143.55,294.6 146.625,303.9 150.675,321.075 152.475,328.65 156.6,339.075 161.85,352.35 163.275,356.775 163.725,358.125 165.75,366.975 167.85,375.525 169.05,376.8 171.075,379.05 170.7,380.025 170.7,380.175 173.7,380.775 178.575,381.75 184.65,387.075 190.725,392.25 194.25,398.55 198.225,405.375 196.95,409.95 195.45,415.275 187.05,416.025 182.925,418.125 175.875,416.55 168,414.225 164.475,413.775 157.2,412.8 147.75,414.675 141.675,415.65 138.825,416.25 134.1,417.3 130.35,419.4 127.575,421.05 123.975,423.825 121.95,425.4 117.975,428.625 115.875,425.55 118.425,418.875 121.875,411.675 122.925,409.35 123.75,407.475 126.525,404.85 129.225,402.15 129.9,400.65 131.175,397.95 129.45,390.075 128.775,386.925 126.6,379.35 125.025,373.5 121.125,366.75 118.8,362.775 113.55,355.125 M128.55,397.275 Q128.025,397.65 120.075,401.1 113.775,403.8 111.975,406.575 108.975,411.375 108.45,415.65 107.625,422.775 111,436.275 111.375,437.775 111.825,439.2 112.8,442.275 114.15,445.2 115.725,448.725 117.9,452.025 119.25,454.125 128.55,465.75 M113.55,355.125 Q112.275,353.175 107.625,347.325 103.95,342.525 102,339.225 100.65,336.45 99.825,334.95 98.4,332.1 97.05,331.275 95.475,330.3 91.65,330.225 87.45,330.375 86.025,330.3 81.525,330.075 74.775,330.525 64.2,331.275 63.525,331.275 45.9,332.1 34.5,330.375 31.575,330 24.3,327.225 17.925,324.75 14.025,324.75 M144,465.3 Q140.55,465 136.95,461.325 133.95,458.25 132,454.275 129.825,449.7 128.925,445.35 128.925,445.275 128.925,445.2 128.175,441.825 128.4,439.2 128.475,437.625 128.925,436.35 131.4,428.775 138.6,424.05 142.575,421.425 153,417.3" test="LeftBum"/>
      <path id="Layer1_0_2_STROKES" stroke="#0FF" stroke-width="3" stroke-linejoin="round" stroke-linecap="round" fill="none" d="M154.5,150 L160.275,153.6 Q167.325,158.175 173.475,163.65 193.275,181.05 197.175,199.8 200.4,214.8 207.825,248.325 213.225,278.775 211.05,303.3 207.975,336.825 206.25,346.275 203.55,361.2 197.175,369.75 L185.55,385.8 M113.55,355.125 L111,392.25 128.55,397.275 M35.55,196.275 Q47.25,193.2 75.525,183.15 100.575,174.3 115.5,171.075 123.225,169.425 129.6,166.2 134.55,163.65 142.2,158.325 148.35,154.05 154.5,150" test="LeftBum"/>
    </g>
  </g>
</svg>