<?xml version="1.0" encoding="utf-8"?>
<svg id="EdithAnim08" image-rendering="inherit" baseProfile="basic" version="1.1" x="0px" y="0px" width="800" height="600" xmlns="http://www.w3.org/2000/svg" xmlns:xlink="http://www.w3.org/1999/xlink">
  <g id="No-Rear-To-Rearf240r1" overflow="visible">
    <g id="RightBum">
      <path id="Layer2_0_1_STROKES" stroke="#F0F" stroke-width="3" stroke-linejoin="round" stroke-linecap="round" fill="none" d="M675.175,168.075 L683.425,200.475 Q691.3,236.1 689.425,252.525 687.25,271.5 683.125,292.875 679.3,312.825 675.175,327.525 672.55,336.9 669.85,346.875 669.325,348.225 668.875,348.825 L693.4,342.75 M736.675,193.275 L655.3,156.975 M736.675,327.525 L765.175,323.775 M661.9,333.75 L662.65,336.825 Q664.3,342.825 666.175,347.1 667.6,350.325 668.875,348.825" test="RightBum"/>
      <path id="Layer2_0_2_STROKES" stroke="#F90" stroke-width="3" stroke-linejoin="round" stroke-linecap="round" fill="none" d="M693.4,342.75 L695.725,329.25 Q696.625,324 697.375,310.95 698.125,296.475 699.1,289.35 702.475,262.875 715.225,253.275 722.35,247.875 729.325,245.4 734.875,243.375 740.35,243.225 745.225,243.15 751.225,245.25 M655.3,156.975 Q570.475,119.025 550.675,111.225 538.225,106.35 527.575,103.95 516.4,101.475 507.325,101.775 488.275,102.45 473.725,115.275 458.05,128.925 450.475,146.925 442.45,166.125 446.35,184.275 449.65,199.875 461.275,209.625 467.125,214.5 472.375,216.525 489.325,205.875 506.2,205.275 M693.4,342.75 L685.75,387.225 Q686.275,388.05 685.675,387.6 L683.725,398.775 Q679.075,400.125 673.75,402.975 662.95,408.675 659.2,416.025 655.825,422.625 655.375,428.625 655.075,432.45 655.975,436.05 658.75,447.525 673.675,450.225 687.55,452.775 697.375,446.025 702.625,442.35 708.175,435.75 712.6,431.025 715,429.45 715.825,428.925 716.725,428.625 718.9,427.95 721.45,428.625 723.25,429.075 725.2,430.275 731.65,434.025 733.225,433.425 733.525,433.35 736.675,428.775 739.075,425.4 735.7,420.225 733.225,416.4 729.325,413.7 729.025,413.475 728.725,413.25 724.075,411.375 722.2,410.025 718.975,407.625 718.675,400.725 718.375,393.9 727.525,353.625 L736.675,314.775 739.975,314.925 Q745.225,315.075 755.2,314.775 M670.45,336.825 L663.625,333 Q662.725,333.375 661.9,333.75 657.1,335.775 654.7,336.825 659.5,351.375 675.925,374.025 679.675,379.2 684.7,385.8 685.375,386.7 685.75,387.225 L685.675,387.6 Q685.3,387.375 684.7,386.775 M654.7,336.825 Q648.625,339.6 645.85,342 642.4,344.925 641.725,348.9 640.375,356.4 648.7,368.325 659.05,383.1 681.175,398.775 M661.9,333.75 L661.375,331.725 663.625,333 Q665.05,332.4 666.7,331.725 M472.375,216.525 Q468.25,219.075 464.125,222.225 450.325,232.95 443.8,242.25 439.825,247.95 438.55,253.125 435.025,266.775 435.55,278.775 436.075,290.775 439.375,305.55 441.325,310.275 443.8,315.075 444.55,316.575 445.375,318.075 456.325,338.4 471.625,352.725 487.975,368.025 509.575,373.575 519.475,376.05 527.575,376.2 533.05,376.275 537.7,375.225 537.1,375.9 575.575,405.375 590.8,417.075 606.1,428.625 610.15,431.7 614.2,434.775 L605.2,448.275 M579.7,410.25 L569.2,421.725" test="RightBum"/>
    </g>
    <g id="LeftBum">
      <path id="Layer1_0_1_STROKES" stroke="#FEB7AE" stroke-width="3" stroke-linejoin="round" stroke-linecap="round" fill="none" d="M158.25,150 Q179.775,136.05 202.275,125.025 224.625,114.15 245.7,107.175 272.925,98.175 291.15,98.25 314.1,98.325 330.675,103.95 350.175,110.625 365.25,126.3 372.45,133.725 374.25,149.85 375.6,161.625 373.95,175.8 372.675,186.525 365.55,195.675 361.35,201 351.675,211.95 353.175,213.45 354.525,214.875 361.125,221.925 366.3,231.3 369.825,237.675 371.7,245.775 373.35,252.9 373.8,261.375 374.475,274.575 372.15,287.7 371.625,290.475 370.95,293.25 361.95,332.775 339.3,356.25 321.9,374.25 299.175,385.5 298.875,385.65 281.55,393.6 271.5,398.25 265.275,402.3 255.975,408.3 248.775,413.925 242.25,419.025 234.3,426.3 227.475,432.45 225.075,439.5 222.15,447.975 227.25,454.05 228.825,456 234.225,458.775 239.625,461.55 239.25,460.275 M268.8,199.8 Q283.275,188.925 304.5,189.6 325.2,190.275 339.3,201.3 346.65,207.075 351.675,211.95 M46.8,243.3 Q52.275,243.15 60.15,244.275 64.65,244.95 73.5,246.375 79.875,247.2 88.8,248.025 93.9,248.475 104.1,249.3 110.7,249.825 119.1,251.925 120.75,252.3 123.975,252.525 126.15,252.6 127.35,253.425 130.2,255.375 136.8,269.25 143.7,283.8 147.3,294.6 150.375,303.9 154.425,321.075 156.225,328.65 160.35,339.075 165.6,352.35 167.025,356.775 167.475,358.125 169.5,366.975 171.6,375.525 172.8,376.8 174.825,379.05 174.45,380.025 174.45,380.175 177.45,380.775 182.325,381.75 188.4,387.075 194.475,392.25 198,398.55 201.975,405.375 200.7,409.95 199.2,415.275 190.8,416.025 186.675,418.125 179.625,416.55 171.75,414.225 168.225,413.775 160.95,412.8 151.5,414.675 145.425,415.65 142.575,416.25 137.85,417.3 134.1,419.4 131.325,421.05 127.725,423.825 125.7,425.4 121.725,428.625 119.625,425.55 122.175,418.875 125.625,411.675 126.675,409.35 127.5,407.475 130.275,404.85 132.975,402.15 133.65,400.65 134.925,397.95 133.2,390.075 132.525,386.925 130.35,379.35 128.775,373.5 124.875,366.75 122.55,362.775 117.3,355.125 M132.3,397.275 Q131.775,397.65 123.825,401.1 117.525,403.8 115.725,406.575 112.725,411.375 112.2,415.65 111.375,422.775 114.75,436.275 115.125,437.775 115.575,439.2 116.55,442.275 117.9,445.2 119.475,448.725 121.65,452.025 123,454.125 132.3,465.75 M117.3,355.125 Q116.025,353.175 111.375,347.325 107.7,342.525 105.75,339.225 104.4,336.45 103.575,334.95 102.15,332.1 100.8,331.275 99.225,330.3 95.4,330.225 91.2,330.375 89.775,330.3 85.275,330.075 78.525,330.525 67.95,331.275 67.275,331.275 49.65,332.1 38.25,330.375 35.325,330 28.05,327.225 21.675,324.75 17.775,324.75 M147.75,465.3 Q144.3,465 140.7,461.325 137.7,458.25 135.75,454.275 133.575,449.7 132.675,445.35 132.675,445.275 132.675,445.2 131.925,441.825 132.15,439.2 132.225,437.625 132.675,436.35 135.15,428.775 142.35,424.05 146.325,421.425 156.75,417.3" test="LeftBum"/>
      <path id="Layer1_0_2_STROKES" stroke="#0FF" stroke-width="3" stroke-linejoin="round" stroke-linecap="round" fill="none" d="M158.25,150 L164.025,153.6 Q171.075,158.175 177.225,163.65 197.025,181.05 200.925,199.8 204.15,214.8 211.575,248.325 216.975,278.775 214.8,303.3 211.725,336.825 210,346.275 207.3,361.2 200.925,369.75 L189.3,385.8 M117.3,355.125 L114.75,392.25 132.3,397.275 M39.3,196.275 Q51,193.2 79.275,183.15 104.325,174.3 119.25,171.075 126.975,169.425 133.35,166.2 138.3,163.65 145.95,158.325 152.1,154.05 158.25,150" test="LeftBum"/>
    </g>
  </g>
</svg>