<?xml version="1.0" encoding="utf-8"?>
<svg id="EdithAnim08" image-rendering="inherit" baseProfile="basic" version="1.1" x="0px" y="0px" width="800" height="600" xmlns="http://www.w3.org/2000/svg" xmlns:xlink="http://www.w3.org/1999/xlink">
  <g id="No-Rear-To-Rearf242r1" overflow="visible">
    <g id="RightBum">
      <path id="Layer2_0_1_STROKES" stroke="#F0F" stroke-width="3" stroke-linejoin="round" stroke-linecap="round" fill="none" d="M673.725,168.075 L681.975,200.475 Q689.85,236.1 687.975,252.525 685.8,271.5 681.675,292.875 677.85,312.825 673.725,327.525 671.1,336.9 668.4,346.875 667.875,348.225 667.425,348.825 L691.95,342.75 M735.225,193.275 L653.85,156.975 M735.225,327.525 L763.725,323.775 M660.45,333.75 L661.2,336.825 Q662.85,342.825 664.725,347.1 666.15,350.325 667.425,348.825" test="RightBum"/>
      <path id="Layer2_0_2_STROKES" stroke="#F90" stroke-width="3" stroke-linejoin="round" stroke-linecap="round" fill="none" d="M691.95,342.75 L694.275,329.25 Q695.175,324 695.925,310.95 696.675,296.475 697.65,289.35 701.025,262.875 713.775,253.275 720.9,247.875 727.875,245.4 733.425,243.375 738.9,243.225 743.775,243.15 749.775,245.25 M653.85,156.975 Q569.025,119.025 549.225,111.225 536.775,106.35 526.125,103.95 514.95,101.475 505.875,101.775 486.825,102.45 472.275,115.275 456.6,128.925 449.025,146.925 441,166.125 444.9,184.275 448.2,199.875 459.825,209.625 465.675,214.5 470.925,216.525 487.875,205.875 504.75,205.275 M691.95,342.75 L684.3,387.225 Q684.825,388.05 684.225,387.6 L682.275,398.775 Q677.625,400.125 672.3,402.975 661.5,408.675 657.75,416.025 654.375,422.625 653.925,428.625 653.625,432.45 654.525,436.05 657.3,447.525 672.225,450.225 686.1,452.775 695.925,446.025 701.175,442.35 706.725,435.75 711.15,431.025 713.55,429.45 714.375,428.925 715.275,428.625 717.45,427.95 720,428.625 721.8,429.075 723.75,430.275 730.2,434.025 731.775,433.425 732.075,433.35 735.225,428.775 737.625,425.4 734.25,420.225 731.775,416.4 727.875,413.7 727.575,413.475 727.275,413.25 722.625,411.375 720.75,410.025 717.525,407.625 717.225,400.725 716.925,393.9 726.075,353.625 L735.225,314.775 738.525,314.925 Q743.775,315.075 753.75,314.775 M669,336.825 L662.175,333 Q661.275,333.375 660.45,333.75 655.65,335.775 653.25,336.825 658.05,351.375 674.475,374.025 678.225,379.2 683.25,385.8 683.925,386.7 684.3,387.225 L684.225,387.6 Q683.85,387.375 683.25,386.775 M653.25,336.825 Q647.175,339.6 644.4,342 640.95,344.925 640.275,348.9 638.925,356.4 647.25,368.325 657.6,383.1 679.725,398.775 M660.45,333.75 L659.925,331.725 662.175,333 Q663.6,332.4 665.25,331.725 M470.925,216.525 Q466.8,219.075 462.675,222.225 448.875,232.95 442.35,242.25 438.375,247.95 437.1,253.125 433.575,266.775 434.1,278.775 434.625,290.775 437.925,305.55 439.875,310.275 442.35,315.075 443.1,316.575 443.925,318.075 454.875,338.4 470.175,352.725 486.525,368.025 508.125,373.575 518.025,376.05 526.125,376.2 531.6,376.275 536.25,375.225 535.65,375.9 574.125,405.375 589.35,417.075 604.65,428.625 608.7,431.7 612.75,434.775 L603.75,448.275 M578.25,410.25 L567.75,421.725" test="RightBum"/>
    </g>
    <g id="LeftBum">
      <path id="Layer1_0_1_STROKES" stroke="#FEB7AE" stroke-width="3" stroke-linejoin="round" stroke-linecap="round" fill="none" d="M159.75,150 Q181.275,136.05 203.775,125.025 226.125,114.15 247.2,107.175 274.425,98.175 292.65,98.25 315.6,98.325 332.175,103.95 351.675,110.625 366.75,126.3 373.95,133.725 375.75,149.85 377.1,161.625 375.45,175.8 374.175,186.525 367.05,195.675 362.85,201 353.175,211.95 354.675,213.45 356.025,214.875 362.625,221.925 367.8,231.3 371.325,237.675 373.2,245.775 374.85,252.9 375.3,261.375 375.975,274.575 373.65,287.7 373.125,290.475 372.45,293.25 363.45,332.775 340.8,356.25 323.4,374.25 300.675,385.5 300.375,385.65 283.05,393.6 273,398.25 266.775,402.3 257.475,408.3 250.275,413.925 243.75,419.025 235.8,426.3 228.975,432.45 226.575,439.5 223.65,447.975 228.75,454.05 230.325,456 235.725,458.775 241.125,461.55 240.75,460.275 M270.3,199.8 Q284.775,188.925 306,189.6 326.7,190.275 340.8,201.3 348.15,207.075 353.175,211.95 M48.3,243.3 Q53.775,243.15 61.65,244.275 66.15,244.95 75,246.375 81.375,247.2 90.3,248.025 95.4,248.475 105.6,249.3 112.2,249.825 120.6,251.925 122.25,252.3 125.475,252.525 127.65,252.6 128.85,253.425 131.7,255.375 138.3,269.25 145.2,283.8 148.8,294.6 151.875,303.9 155.925,321.075 157.725,328.65 161.85,339.075 167.1,352.35 168.525,356.775 168.975,358.125 171,366.975 173.1,375.525 174.3,376.8 176.325,379.05 175.95,380.025 175.95,380.175 178.95,380.775 183.825,381.75 189.9,387.075 195.975,392.25 199.5,398.55 203.475,405.375 202.2,409.95 200.7,415.275 192.3,416.025 188.175,418.125 181.125,416.55 173.25,414.225 169.725,413.775 162.45,412.8 153,414.675 146.925,415.65 144.075,416.25 139.35,417.3 135.6,419.4 132.825,421.05 129.225,423.825 127.2,425.4 123.225,428.625 121.125,425.55 123.675,418.875 127.125,411.675 128.175,409.35 129,407.475 131.775,404.85 134.475,402.15 135.15,400.65 136.425,397.95 134.7,390.075 134.025,386.925 131.85,379.35 130.275,373.5 126.375,366.75 124.05,362.775 118.8,355.125 M133.8,397.275 Q133.275,397.65 125.325,401.1 119.025,403.8 117.225,406.575 114.225,411.375 113.7,415.65 112.875,422.775 116.25,436.275 116.625,437.775 117.075,439.2 118.05,442.275 119.4,445.2 120.975,448.725 123.15,452.025 124.5,454.125 133.8,465.75 M118.8,355.125 Q117.525,353.175 112.875,347.325 109.2,342.525 107.25,339.225 105.9,336.45 105.075,334.95 103.65,332.1 102.3,331.275 100.725,330.3 96.9,330.225 92.7,330.375 91.275,330.3 86.775,330.075 80.025,330.525 69.45,331.275 68.775,331.275 51.15,332.1 39.75,330.375 36.825,330 29.55,327.225 23.175,324.75 19.275,324.75 M149.25,465.3 Q145.8,465 142.2,461.325 139.2,458.25 137.25,454.275 135.075,449.7 134.175,445.35 134.175,445.275 134.175,445.2 133.425,441.825 133.65,439.2 133.725,437.625 134.175,436.35 136.65,428.775 143.85,424.05 147.825,421.425 158.25,417.3" test="LeftBum"/>
      <path id="Layer1_0_2_STROKES" stroke="#0FF" stroke-width="3" stroke-linejoin="round" stroke-linecap="round" fill="none" d="M159.75,150 L165.525,153.6 Q172.575,158.175 178.725,163.65 198.525,181.05 202.425,199.8 205.65,214.8 213.075,248.325 218.475,278.775 216.3,303.3 213.225,336.825 211.5,346.275 208.8,361.2 202.425,369.75 L190.8,385.8 M118.8,355.125 L116.25,392.25 133.8,397.275 M40.8,196.275 Q52.5,193.2 80.775,183.15 105.825,174.3 120.75,171.075 128.475,169.425 134.85,166.2 139.8,163.65 147.45,158.325 153.6,154.05 159.75,150" test="LeftBum"/>
    </g>
  </g>
</svg>