<?xml version="1.0" encoding="utf-8"?>
<svg id="EdithAnim08" image-rendering="inherit" baseProfile="basic" version="1.1" x="0px" y="0px" width="800" height="600" xmlns="http://www.w3.org/2000/svg" xmlns:xlink="http://www.w3.org/1999/xlink">
  <g id="No-Rear-To-Rearf243r1" overflow="visible">
    <g id="RightBum">
      <path id="Layer2_0_1_STROKES" stroke="#F0F" stroke-width="3" stroke-linejoin="round" stroke-linecap="round" fill="none" d="M673.025,168.075 L681.275,200.475 Q689.15,236.1 687.275,252.525 685.1,271.5 680.975,292.875 677.15,312.825 673.025,327.525 670.4,336.9 667.7,346.875 667.175,348.225 666.725,348.825 L691.25,342.75 M734.525,193.275 L653.15,156.975 M734.525,327.525 L763.025,323.775 M659.75,333.75 L660.5,336.825 Q662.15,342.825 664.025,347.1 665.45,350.325 666.725,348.825" test="RightBum"/>
      <path id="Layer2_0_2_STROKES" stroke="#F90" stroke-width="3" stroke-linejoin="round" stroke-linecap="round" fill="none" d="M691.25,342.75 L693.575,329.25 Q694.475,324 695.225,310.95 695.975,296.475 696.95,289.35 700.325,262.875 713.075,253.275 720.2,247.875 727.175,245.4 732.725,243.375 738.2,243.225 743.075,243.15 749.075,245.25 M653.15,156.975 Q568.325,119.025 548.525,111.225 536.075,106.35 525.425,103.95 514.25,101.475 505.175,101.775 486.125,102.45 471.575,115.275 455.9,128.925 448.325,146.925 440.3,166.125 444.2,184.275 447.5,199.875 459.125,209.625 464.975,214.5 470.225,216.525 487.175,205.875 504.05,205.275 M691.25,342.75 L683.6,387.225 Q684.125,388.05 683.525,387.6 L681.575,398.775 Q676.925,400.125 671.6,402.975 660.8,408.675 657.05,416.025 653.675,422.625 653.225,428.625 652.925,432.45 653.825,436.05 656.6,447.525 671.525,450.225 685.4,452.775 695.225,446.025 700.475,442.35 706.025,435.75 710.45,431.025 712.85,429.45 713.675,428.925 714.575,428.625 716.75,427.95 719.3,428.625 721.1,429.075 723.05,430.275 729.5,434.025 731.075,433.425 731.375,433.35 734.525,428.775 736.925,425.4 733.55,420.225 731.075,416.4 727.175,413.7 726.875,413.475 726.575,413.25 721.925,411.375 720.05,410.025 716.825,407.625 716.525,400.725 716.225,393.9 725.375,353.625 L734.525,314.775 737.825,314.925 Q743.075,315.075 753.05,314.775 M668.3,336.825 L661.475,333 Q660.575,333.375 659.75,333.75 654.95,335.775 652.55,336.825 657.35,351.375 673.775,374.025 677.525,379.2 682.55,385.8 683.225,386.7 683.6,387.225 L683.525,387.6 Q683.15,387.375 682.55,386.775 M652.55,336.825 Q646.475,339.6 643.7,342 640.25,344.925 639.575,348.9 638.225,356.4 646.55,368.325 656.9,383.1 679.025,398.775 M659.75,333.75 L659.225,331.725 661.475,333 Q662.9,332.4 664.55,331.725 M470.225,216.525 Q466.1,219.075 461.975,222.225 448.175,232.95 441.65,242.25 437.675,247.95 436.4,253.125 432.875,266.775 433.4,278.775 433.925,290.775 437.225,305.55 439.175,310.275 441.65,315.075 442.4,316.575 443.225,318.075 454.175,338.4 469.475,352.725 485.825,368.025 507.425,373.575 517.325,376.05 525.425,376.2 530.9,376.275 535.55,375.225 534.95,375.9 573.425,405.375 588.65,417.075 603.95,428.625 608,431.7 612.05,434.775 L603.05,448.275 M577.55,410.25 L567.05,421.725" test="RightBum"/>
    </g>
    <g id="LeftBum">
      <path id="Layer1_0_1_STROKES" stroke="#FEB7AE" stroke-width="3" stroke-linejoin="round" stroke-linecap="round" fill="none" d="M160.45,150 Q181.975,136.05 204.475,125.025 226.825,114.15 247.9,107.175 275.125,98.175 293.35,98.25 316.3,98.325 332.875,103.95 352.375,110.625 367.45,126.3 374.65,133.725 376.45,149.85 377.8,161.625 376.15,175.8 374.875,186.525 367.75,195.675 363.55,201 353.875,211.95 355.375,213.45 356.725,214.875 363.325,221.925 368.5,231.3 372.025,237.675 373.9,245.775 375.55,252.9 376,261.375 376.675,274.575 374.35,287.7 373.825,290.475 373.15,293.25 364.15,332.775 341.5,356.25 324.1,374.25 301.375,385.5 301.075,385.65 283.75,393.6 273.7,398.25 267.475,402.3 258.175,408.3 250.975,413.925 244.45,419.025 236.5,426.3 229.675,432.45 227.275,439.5 224.35,447.975 229.45,454.05 231.025,456 236.425,458.775 241.825,461.55 241.45,460.275 M271,199.8 Q285.475,188.925 306.7,189.6 327.4,190.275 341.5,201.3 348.85,207.075 353.875,211.95 M49,243.3 Q54.475,243.15 62.35,244.275 66.85,244.95 75.7,246.375 82.075,247.2 91,248.025 96.1,248.475 106.3,249.3 112.9,249.825 121.3,251.925 122.95,252.3 126.175,252.525 128.35,252.6 129.55,253.425 132.4,255.375 139,269.25 145.9,283.8 149.5,294.6 152.575,303.9 156.625,321.075 158.425,328.65 162.55,339.075 167.8,352.35 169.225,356.775 169.675,358.125 171.7,366.975 173.8,375.525 175,376.8 177.025,379.05 176.65,380.025 176.65,380.175 179.65,380.775 184.525,381.75 190.6,387.075 196.675,392.25 200.2,398.55 204.175,405.375 202.9,409.95 201.4,415.275 193,416.025 188.875,418.125 181.825,416.55 173.95,414.225 170.425,413.775 163.15,412.8 153.7,414.675 147.625,415.65 144.775,416.25 140.05,417.3 136.3,419.4 133.525,421.05 129.925,423.825 127.9,425.4 123.925,428.625 121.825,425.55 124.375,418.875 127.825,411.675 128.875,409.35 129.7,407.475 132.475,404.85 135.175,402.15 135.85,400.65 137.125,397.95 135.4,390.075 134.725,386.925 132.55,379.35 130.975,373.5 127.075,366.75 124.75,362.775 119.5,355.125 M134.5,397.275 Q133.975,397.65 126.025,401.1 119.725,403.8 117.925,406.575 114.925,411.375 114.4,415.65 113.575,422.775 116.95,436.275 117.325,437.775 117.775,439.2 118.75,442.275 120.1,445.2 121.675,448.725 123.85,452.025 125.2,454.125 134.5,465.75 M119.5,355.125 Q118.225,353.175 113.575,347.325 109.9,342.525 107.95,339.225 106.6,336.45 105.775,334.95 104.35,332.1 103,331.275 101.425,330.3 97.6,330.225 93.4,330.375 91.975,330.3 87.475,330.075 80.725,330.525 70.15,331.275 69.475,331.275 51.85,332.1 40.45,330.375 37.525,330 30.25,327.225 23.875,324.75 19.975,324.75 M149.95,465.3 Q146.5,465 142.9,461.325 139.9,458.25 137.95,454.275 135.775,449.7 134.875,445.35 134.875,445.275 134.875,445.2 134.125,441.825 134.35,439.2 134.425,437.625 134.875,436.35 137.35,428.775 144.55,424.05 148.525,421.425 158.95,417.3" test="LeftBum"/>
      <path id="Layer1_0_2_STROKES" stroke="#0FF" stroke-width="3" stroke-linejoin="round" stroke-linecap="round" fill="none" d="M160.45,150 L166.225,153.6 Q173.275,158.175 179.425,163.65 199.225,181.05 203.125,199.8 206.35,214.8 213.775,248.325 219.175,278.775 217,303.3 213.925,336.825 212.2,346.275 209.5,361.2 203.125,369.75 L191.5,385.8 M119.5,355.125 L116.95,392.25 134.5,397.275 M41.5,196.275 Q53.2,193.2 81.475,183.15 106.525,174.3 121.45,171.075 129.175,169.425 135.55,166.2 140.5,163.65 148.15,158.325 154.3,154.05 160.45,150" test="LeftBum"/>
    </g>
  </g>
</svg>