<?xml version="1.0" encoding="utf-8"?>
<svg id="EdithAnim08" image-rendering="inherit" baseProfile="basic" version="1.1" x="0px" y="0px" width="800" height="600" xmlns="http://www.w3.org/2000/svg" xmlns:xlink="http://www.w3.org/1999/xlink">
  <g id="No-Rear-To-Rearf245r1" overflow="visible">
    <g id="RightBum">
      <path id="Layer2_0_1_STROKES" stroke="#F0F" stroke-width="3" stroke-linejoin="round" stroke-linecap="round" fill="none" d="M671.625,168.075 L679.875,200.475 Q687.75,236.1 685.875,252.525 683.7,271.5 679.575,292.875 675.75,312.825 671.625,327.525 669,336.9 666.3,346.875 665.775,348.225 665.325,348.825 L689.85,342.75 M733.125,193.275 L651.75,156.975 M733.125,327.525 L761.625,323.775 M658.35,333.75 L659.1,336.825 Q660.75,342.825 662.625,347.1 664.05,350.325 665.325,348.825" test="RightBum"/>
      <path id="Layer2_0_2_STROKES" stroke="#F90" stroke-width="3" stroke-linejoin="round" stroke-linecap="round" fill="none" d="M689.85,342.75 L692.175,329.25 Q693.075,324 693.825,310.95 694.575,296.475 695.55,289.35 698.925,262.875 711.675,253.275 718.8,247.875 725.775,245.4 731.325,243.375 736.8,243.225 741.675,243.15 747.675,245.25 M651.75,156.975 Q566.925,119.025 547.125,111.225 534.675,106.35 524.025,103.95 512.85,101.475 503.775,101.775 484.725,102.45 470.175,115.275 454.5,128.925 446.925,146.925 438.9,166.125 442.8,184.275 446.1,199.875 457.725,209.625 463.575,214.5 468.825,216.525 485.775,205.875 502.65,205.275 M689.85,342.75 L682.2,387.225 Q682.725,388.05 682.125,387.6 L680.175,398.775 Q675.525,400.125 670.2,402.975 659.4,408.675 655.65,416.025 652.275,422.625 651.825,428.625 651.525,432.45 652.425,436.05 655.2,447.525 670.125,450.225 684,452.775 693.825,446.025 699.075,442.35 704.625,435.75 709.05,431.025 711.45,429.45 712.275,428.925 713.175,428.625 715.35,427.95 717.9,428.625 719.7,429.075 721.65,430.275 728.1,434.025 729.675,433.425 729.975,433.35 733.125,428.775 735.525,425.4 732.15,420.225 729.675,416.4 725.775,413.7 725.475,413.475 725.175,413.25 720.525,411.375 718.65,410.025 715.425,407.625 715.125,400.725 714.825,393.9 723.975,353.625 L733.125,314.775 736.425,314.925 Q741.675,315.075 751.65,314.775 M666.9,336.825 L660.075,333 Q659.175,333.375 658.35,333.75 653.55,335.775 651.15,336.825 655.95,351.375 672.375,374.025 676.125,379.2 681.15,385.8 681.825,386.7 682.2,387.225 L682.125,387.6 Q681.75,387.375 681.15,386.775 M651.15,336.825 Q645.075,339.6 642.3,342 638.85,344.925 638.175,348.9 636.825,356.4 645.15,368.325 655.5,383.1 677.625,398.775 M658.35,333.75 L657.825,331.725 660.075,333 Q661.5,332.4 663.15,331.725 M468.825,216.525 Q464.7,219.075 460.575,222.225 446.775,232.95 440.25,242.25 436.275,247.95 435,253.125 431.475,266.775 432,278.775 432.525,290.775 435.825,305.55 437.775,310.275 440.25,315.075 441,316.575 441.825,318.075 452.775,338.4 468.075,352.725 484.425,368.025 506.025,373.575 515.925,376.05 524.025,376.2 529.5,376.275 534.15,375.225 533.55,375.9 572.025,405.375 587.25,417.075 602.55,428.625 606.6,431.7 610.65,434.775 L601.65,448.275 M576.15,410.25 L565.65,421.725" test="RightBum"/>
    </g>
    <g id="LeftBum">
      <path id="Layer1_0_1_STROKES" stroke="#FEB7AE" stroke-width="3" stroke-linejoin="round" stroke-linecap="round" fill="none" d="M161.85,150 Q183.375,136.05 205.875,125.025 228.225,114.15 249.3,107.175 276.525,98.175 294.75,98.25 317.7,98.325 334.275,103.95 353.775,110.625 368.85,126.3 376.05,133.725 377.85,149.85 379.2,161.625 377.55,175.8 376.275,186.525 369.15,195.675 364.95,201 355.275,211.95 356.775,213.45 358.125,214.875 364.725,221.925 369.9,231.3 373.425,237.675 375.3,245.775 376.95,252.9 377.4,261.375 378.075,274.575 375.75,287.7 375.225,290.475 374.55,293.25 365.55,332.775 342.9,356.25 325.5,374.25 302.775,385.5 302.475,385.65 285.15,393.6 275.1,398.25 268.875,402.3 259.575,408.3 252.375,413.925 245.85,419.025 237.9,426.3 231.075,432.45 228.675,439.5 225.75,447.975 230.85,454.05 232.425,456 237.825,458.775 243.225,461.55 242.85,460.275 M272.4,199.8 Q286.875,188.925 308.1,189.6 328.8,190.275 342.9,201.3 350.25,207.075 355.275,211.95 M50.4,243.3 Q55.875,243.15 63.75,244.275 68.25,244.95 77.1,246.375 83.475,247.2 92.4,248.025 97.5,248.475 107.7,249.3 114.3,249.825 122.7,251.925 124.35,252.3 127.575,252.525 129.75,252.6 130.95,253.425 133.8,255.375 140.4,269.25 147.3,283.8 150.9,294.6 153.975,303.9 158.025,321.075 159.825,328.65 163.95,339.075 169.2,352.35 170.625,356.775 171.075,358.125 173.1,366.975 175.2,375.525 176.4,376.8 178.425,379.05 178.05,380.025 178.05,380.175 181.05,380.775 185.925,381.75 192,387.075 198.075,392.25 201.6,398.55 205.575,405.375 204.3,409.95 202.8,415.275 194.4,416.025 190.275,418.125 183.225,416.55 175.35,414.225 171.825,413.775 164.55,412.8 155.1,414.675 149.025,415.65 146.175,416.25 141.45,417.3 137.7,419.4 134.925,421.05 131.325,423.825 129.3,425.4 125.325,428.625 123.225,425.55 125.775,418.875 129.225,411.675 130.275,409.35 131.1,407.475 133.875,404.85 136.575,402.15 137.25,400.65 138.525,397.95 136.8,390.075 136.125,386.925 133.95,379.35 132.375,373.5 128.475,366.75 126.15,362.775 120.9,355.125 M135.9,397.275 Q135.375,397.65 127.425,401.1 121.125,403.8 119.325,406.575 116.325,411.375 115.8,415.65 114.975,422.775 118.35,436.275 118.725,437.775 119.175,439.2 120.15,442.275 121.5,445.2 123.075,448.725 125.25,452.025 126.6,454.125 135.9,465.75 M120.9,355.125 Q119.625,353.175 114.975,347.325 111.3,342.525 109.35,339.225 108,336.45 107.175,334.95 105.75,332.1 104.4,331.275 102.825,330.3 99,330.225 94.8,330.375 93.375,330.3 88.875,330.075 82.125,330.525 71.55,331.275 70.875,331.275 53.25,332.1 41.85,330.375 38.925,330 31.65,327.225 25.275,324.75 21.375,324.75 M151.35,465.3 Q147.9,465 144.3,461.325 141.3,458.25 139.35,454.275 137.175,449.7 136.275,445.35 136.275,445.275 136.275,445.2 135.525,441.825 135.75,439.2 135.825,437.625 136.275,436.35 138.75,428.775 145.95,424.05 149.925,421.425 160.35,417.3" test="LeftBum"/>
      <path id="Layer1_0_2_STROKES" stroke="#0FF" stroke-width="3" stroke-linejoin="round" stroke-linecap="round" fill="none" d="M161.85,150 L167.625,153.6 Q174.675,158.175 180.825,163.65 200.625,181.05 204.525,199.8 207.75,214.8 215.175,248.325 220.575,278.775 218.4,303.3 215.325,336.825 213.6,346.275 210.9,361.2 204.525,369.75 L192.9,385.8 M120.9,355.125 L118.35,392.25 135.9,397.275 M42.9,196.275 Q54.6,193.2 82.875,183.15 107.925,174.3 122.85,171.075 130.575,169.425 136.95,166.2 141.9,163.65 149.55,158.325 155.7,154.05 161.85,150" test="LeftBum"/>
    </g>
  </g>
</svg>