<?xml version="1.0" encoding="utf-8"?>
<svg id="EdithAnim08" image-rendering="inherit" baseProfile="basic" version="1.1" x="0px" y="0px" width="800" height="600" xmlns="http://www.w3.org/2000/svg" xmlns:xlink="http://www.w3.org/1999/xlink">
  <g id="No-Rear-To-Rearf246r1" overflow="visible">
    <g id="RightBum">
      <path id="Layer2_0_1_STROKES" stroke="#F0F" stroke-width="3" stroke-linejoin="round" stroke-linecap="round" fill="none" d="M670.925,168.075 L679.175,200.475 Q687.05,236.1 685.175,252.525 683,271.5 678.875,292.875 675.05,312.825 670.925,327.525 668.3,336.9 665.6,346.875 665.075,348.225 664.625,348.825 L689.15,342.75 M732.425,193.275 L651.05,156.975 M732.425,327.525 L760.925,323.775 M657.65,333.75 L658.4,336.825 Q660.05,342.825 661.925,347.1 663.35,350.325 664.625,348.825" test="RightBum"/>
      <path id="Layer2_0_2_STROKES" stroke="#F90" stroke-width="3" stroke-linejoin="round" stroke-linecap="round" fill="none" d="M689.15,342.75 L691.475,329.25 Q692.375,324 693.125,310.95 693.875,296.475 694.85,289.35 698.225,262.875 710.975,253.275 718.1,247.875 725.075,245.4 730.625,243.375 736.1,243.225 740.975,243.15 746.975,245.25 M651.05,156.975 Q566.225,119.025 546.425,111.225 533.975,106.35 523.325,103.95 512.15,101.475 503.075,101.775 484.025,102.45 469.475,115.275 453.8,128.925 446.225,146.925 438.2,166.125 442.1,184.275 445.4,199.875 457.025,209.625 462.875,214.5 468.125,216.525 485.075,205.875 501.95,205.275 M689.15,342.75 L681.5,387.225 Q682.025,388.05 681.425,387.6 L679.475,398.775 Q674.825,400.125 669.5,402.975 658.7,408.675 654.95,416.025 651.575,422.625 651.125,428.625 650.825,432.45 651.725,436.05 654.5,447.525 669.425,450.225 683.3,452.775 693.125,446.025 698.375,442.35 703.925,435.75 708.35,431.025 710.75,429.45 711.575,428.925 712.475,428.625 714.65,427.95 717.2,428.625 719,429.075 720.95,430.275 727.4,434.025 728.975,433.425 729.275,433.35 732.425,428.775 734.825,425.4 731.45,420.225 728.975,416.4 725.075,413.7 724.775,413.475 724.475,413.25 719.825,411.375 717.95,410.025 714.725,407.625 714.425,400.725 714.125,393.9 723.275,353.625 L732.425,314.775 735.725,314.925 Q740.975,315.075 750.95,314.775 M666.2,336.825 L659.375,333 Q658.475,333.375 657.65,333.75 652.85,335.775 650.45,336.825 655.25,351.375 671.675,374.025 675.425,379.2 680.45,385.8 681.125,386.7 681.5,387.225 L681.425,387.6 Q681.05,387.375 680.45,386.775 M650.45,336.825 Q644.375,339.6 641.6,342 638.15,344.925 637.475,348.9 636.125,356.4 644.45,368.325 654.8,383.1 676.925,398.775 M657.65,333.75 L657.125,331.725 659.375,333 Q660.8,332.4 662.45,331.725 M468.125,216.525 Q464,219.075 459.875,222.225 446.075,232.95 439.55,242.25 435.575,247.95 434.3,253.125 430.775,266.775 431.3,278.775 431.825,290.775 435.125,305.55 437.075,310.275 439.55,315.075 440.3,316.575 441.125,318.075 452.075,338.4 467.375,352.725 483.725,368.025 505.325,373.575 515.225,376.05 523.325,376.2 528.8,376.275 533.45,375.225 532.85,375.9 571.325,405.375 586.55,417.075 601.85,428.625 605.9,431.7 609.95,434.775 L600.95,448.275 M575.45,410.25 L564.95,421.725" test="RightBum"/>
    </g>
    <g id="LeftBum">
      <path id="Layer1_0_1_STROKES" stroke="#FEB7AE" stroke-width="3" stroke-linejoin="round" stroke-linecap="round" fill="none" d="M162.55,150 Q184.075,136.05 206.575,125.025 228.925,114.15 250,107.175 277.225,98.175 295.45,98.25 318.4,98.325 334.975,103.95 354.475,110.625 369.55,126.3 376.75,133.725 378.55,149.85 379.9,161.625 378.25,175.8 376.975,186.525 369.85,195.675 365.65,201 355.975,211.95 357.475,213.45 358.825,214.875 365.425,221.925 370.6,231.3 374.125,237.675 376,245.775 377.65,252.9 378.1,261.375 378.775,274.575 376.45,287.7 375.925,290.475 375.25,293.25 366.25,332.775 343.6,356.25 326.2,374.25 303.475,385.5 303.175,385.65 285.85,393.6 275.8,398.25 269.575,402.3 260.275,408.3 253.075,413.925 246.55,419.025 238.6,426.3 231.775,432.45 229.375,439.5 226.45,447.975 231.55,454.05 233.125,456 238.525,458.775 243.925,461.55 243.55,460.275 M273.1,199.8 Q287.575,188.925 308.8,189.6 329.5,190.275 343.6,201.3 350.95,207.075 355.975,211.95 M51.1,243.3 Q56.575,243.15 64.45,244.275 68.95,244.95 77.8,246.375 84.175,247.2 93.1,248.025 98.2,248.475 108.4,249.3 115,249.825 123.4,251.925 125.05,252.3 128.275,252.525 130.45,252.6 131.65,253.425 134.5,255.375 141.1,269.25 148,283.8 151.6,294.6 154.675,303.9 158.725,321.075 160.525,328.65 164.65,339.075 169.9,352.35 171.325,356.775 171.775,358.125 173.8,366.975 175.9,375.525 177.1,376.8 179.125,379.05 178.75,380.025 178.75,380.175 181.75,380.775 186.625,381.75 192.7,387.075 198.775,392.25 202.3,398.55 206.275,405.375 205,409.95 203.5,415.275 195.1,416.025 190.975,418.125 183.925,416.55 176.05,414.225 172.525,413.775 165.25,412.8 155.8,414.675 149.725,415.65 146.875,416.25 142.15,417.3 138.4,419.4 135.625,421.05 132.025,423.825 130,425.4 126.025,428.625 123.925,425.55 126.475,418.875 129.925,411.675 130.975,409.35 131.8,407.475 134.575,404.85 137.275,402.15 137.95,400.65 139.225,397.95 137.5,390.075 136.825,386.925 134.65,379.35 133.075,373.5 129.175,366.75 126.85,362.775 121.6,355.125 M136.6,397.275 Q136.075,397.65 128.125,401.1 121.825,403.8 120.025,406.575 117.025,411.375 116.5,415.65 115.675,422.775 119.05,436.275 119.425,437.775 119.875,439.2 120.85,442.275 122.2,445.2 123.775,448.725 125.95,452.025 127.3,454.125 136.6,465.75 M121.6,355.125 Q120.325,353.175 115.675,347.325 112,342.525 110.05,339.225 108.7,336.45 107.875,334.95 106.45,332.1 105.1,331.275 103.525,330.3 99.7,330.225 95.5,330.375 94.075,330.3 89.575,330.075 82.825,330.525 72.25,331.275 71.575,331.275 53.95,332.1 42.55,330.375 39.625,330 32.35,327.225 25.975,324.75 22.075,324.75 M152.05,465.3 Q148.6,465 145,461.325 142,458.25 140.05,454.275 137.875,449.7 136.975,445.35 136.975,445.275 136.975,445.2 136.225,441.825 136.45,439.2 136.525,437.625 136.975,436.35 139.45,428.775 146.65,424.05 150.625,421.425 161.05,417.3" test="LeftBum"/>
      <path id="Layer1_0_2_STROKES" stroke="#0FF" stroke-width="3" stroke-linejoin="round" stroke-linecap="round" fill="none" d="M162.55,150 L168.325,153.6 Q175.375,158.175 181.525,163.65 201.325,181.05 205.225,199.8 208.45,214.8 215.875,248.325 221.275,278.775 219.1,303.3 216.025,336.825 214.3,346.275 211.6,361.2 205.225,369.75 L193.6,385.8 M121.6,355.125 L119.05,392.25 136.6,397.275 M43.6,196.275 Q55.3,193.2 83.575,183.15 108.625,174.3 123.55,171.075 131.275,169.425 137.65,166.2 142.6,163.65 150.25,158.325 156.4,154.05 162.55,150" test="LeftBum"/>
    </g>
  </g>
</svg>