<?xml version="1.0" encoding="utf-8"?>
<svg id="EdithAnim08" image-rendering="inherit" baseProfile="basic" version="1.1" x="0px" y="0px" width="800" height="600" xmlns="http://www.w3.org/2000/svg" xmlns:xlink="http://www.w3.org/1999/xlink">
  <g id="No-Rear-To-Rearf247r1" overflow="visible">
    <g id="RightBum">
      <path id="Layer2_0_1_STROKES" stroke="#F0F" stroke-width="3" stroke-linejoin="round" stroke-linecap="round" fill="none" d="M670.275,168.075 L678.525,200.475 Q686.4,236.1 684.525,252.525 682.35,271.5 678.225,292.875 674.4,312.825 670.275,327.525 667.65,336.9 664.95,346.875 664.425,348.225 663.975,348.825 L688.5,342.75 M731.775,193.275 L650.4,156.975 M731.775,327.525 L760.275,323.775 M657,333.75 L657.75,336.825 Q659.4,342.825 661.275,347.1 662.7,350.325 663.975,348.825" test="RightBum"/>
      <path id="Layer2_0_2_STROKES" stroke="#F90" stroke-width="3" stroke-linejoin="round" stroke-linecap="round" fill="none" d="M688.5,342.75 L690.825,329.25 Q691.725,324 692.475,310.95 693.225,296.475 694.2,289.35 697.575,262.875 710.325,253.275 717.45,247.875 724.425,245.4 729.975,243.375 735.45,243.225 740.325,243.15 746.325,245.25 M650.4,156.975 Q565.575,119.025 545.775,111.225 533.325,106.35 522.675,103.95 511.5,101.475 502.425,101.775 483.375,102.45 468.825,115.275 453.15,128.925 445.575,146.925 437.55,166.125 441.45,184.275 444.75,199.875 456.375,209.625 462.225,214.5 467.475,216.525 484.425,205.875 501.3,205.275 M688.5,342.75 L680.85,387.225 Q681.375,388.05 680.775,387.6 L678.825,398.775 Q674.175,400.125 668.85,402.975 658.05,408.675 654.3,416.025 650.925,422.625 650.475,428.625 650.175,432.45 651.075,436.05 653.85,447.525 668.775,450.225 682.65,452.775 692.475,446.025 697.725,442.35 703.275,435.75 707.7,431.025 710.1,429.45 710.925,428.925 711.825,428.625 714,427.95 716.55,428.625 718.35,429.075 720.3,430.275 726.75,434.025 728.325,433.425 728.625,433.35 731.775,428.775 734.175,425.4 730.8,420.225 728.325,416.4 724.425,413.7 724.125,413.475 723.825,413.25 719.175,411.375 717.3,410.025 714.075,407.625 713.775,400.725 713.475,393.9 722.625,353.625 L731.775,314.775 735.075,314.925 Q740.325,315.075 750.3,314.775 M665.55,336.825 L658.725,333 Q657.825,333.375 657,333.75 652.2,335.775 649.8,336.825 654.6,351.375 671.025,374.025 674.775,379.2 679.8,385.8 680.475,386.7 680.85,387.225 L680.775,387.6 Q680.4,387.375 679.8,386.775 M649.8,336.825 Q643.725,339.6 640.95,342 637.5,344.925 636.825,348.9 635.475,356.4 643.8,368.325 654.15,383.1 676.275,398.775 M657,333.75 L656.475,331.725 658.725,333 Q660.15,332.4 661.8,331.725 M467.475,216.525 Q463.35,219.075 459.225,222.225 445.425,232.95 438.9,242.25 434.925,247.95 433.65,253.125 430.125,266.775 430.65,278.775 431.175,290.775 434.475,305.55 436.425,310.275 438.9,315.075 439.65,316.575 440.475,318.075 451.425,338.4 466.725,352.725 483.075,368.025 504.675,373.575 514.575,376.05 522.675,376.2 528.15,376.275 532.8,375.225 532.2,375.9 570.675,405.375 585.9,417.075 601.2,428.625 605.25,431.7 609.3,434.775 L600.3,448.275 M574.8,410.25 L564.3,421.725" test="RightBum"/>
    </g>
    <g id="LeftBum">
      <path id="Layer1_0_1_STROKES" stroke="#FEB7AE" stroke-width="3" stroke-linejoin="round" stroke-linecap="round" fill="none" d="M163.25,150 Q184.775,136.05 207.275,125.025 229.625,114.15 250.7,107.175 277.925,98.175 296.15,98.25 319.1,98.325 335.675,103.95 355.175,110.625 370.25,126.3 377.45,133.725 379.25,149.85 380.6,161.625 378.95,175.8 377.675,186.525 370.55,195.675 366.35,201 356.675,211.95 358.175,213.45 359.525,214.875 366.125,221.925 371.3,231.3 374.825,237.675 376.7,245.775 378.35,252.9 378.8,261.375 379.475,274.575 377.15,287.7 376.625,290.475 375.95,293.25 366.95,332.775 344.3,356.25 326.9,374.25 304.175,385.5 303.875,385.65 286.55,393.6 276.5,398.25 270.275,402.3 260.975,408.3 253.775,413.925 247.25,419.025 239.3,426.3 232.475,432.45 230.075,439.5 227.15,447.975 232.25,454.05 233.825,456 239.225,458.775 244.625,461.55 244.25,460.275 M273.8,199.8 Q288.275,188.925 309.5,189.6 330.2,190.275 344.3,201.3 351.65,207.075 356.675,211.95 M51.8,243.3 Q57.275,243.15 65.15,244.275 69.65,244.95 78.5,246.375 84.875,247.2 93.8,248.025 98.9,248.475 109.1,249.3 115.7,249.825 124.1,251.925 125.75,252.3 128.975,252.525 131.15,252.6 132.35,253.425 135.2,255.375 141.8,269.25 148.7,283.8 152.3,294.6 155.375,303.9 159.425,321.075 161.225,328.65 165.35,339.075 170.6,352.35 172.025,356.775 172.475,358.125 174.5,366.975 176.6,375.525 177.8,376.8 179.825,379.05 179.45,380.025 179.45,380.175 182.45,380.775 187.325,381.75 193.4,387.075 199.475,392.25 203,398.55 206.975,405.375 205.7,409.95 204.2,415.275 195.8,416.025 191.675,418.125 184.625,416.55 176.75,414.225 173.225,413.775 165.95,412.8 156.5,414.675 150.425,415.65 147.575,416.25 142.85,417.3 139.1,419.4 136.325,421.05 132.725,423.825 130.7,425.4 126.725,428.625 124.625,425.55 127.175,418.875 130.625,411.675 131.675,409.35 132.5,407.475 135.275,404.85 137.975,402.15 138.65,400.65 139.925,397.95 138.2,390.075 137.525,386.925 135.35,379.35 133.775,373.5 129.875,366.75 127.55,362.775 122.3,355.125 M137.3,397.275 Q136.775,397.65 128.825,401.1 122.525,403.8 120.725,406.575 117.725,411.375 117.2,415.65 116.375,422.775 119.75,436.275 120.125,437.775 120.575,439.2 121.55,442.275 122.9,445.2 124.475,448.725 126.65,452.025 128,454.125 137.3,465.75 M122.3,355.125 Q121.025,353.175 116.375,347.325 112.7,342.525 110.75,339.225 109.4,336.45 108.575,334.95 107.15,332.1 105.8,331.275 104.225,330.3 100.4,330.225 96.2,330.375 94.775,330.3 90.275,330.075 83.525,330.525 72.95,331.275 72.275,331.275 54.65,332.1 43.25,330.375 40.325,330 33.05,327.225 26.675,324.75 22.775,324.75 M152.75,465.3 Q149.3,465 145.7,461.325 142.7,458.25 140.75,454.275 138.575,449.7 137.675,445.35 137.675,445.275 137.675,445.2 136.925,441.825 137.15,439.2 137.225,437.625 137.675,436.35 140.15,428.775 147.35,424.05 151.325,421.425 161.75,417.3" test="LeftBum"/>
      <path id="Layer1_0_2_STROKES" stroke="#0FF" stroke-width="3" stroke-linejoin="round" stroke-linecap="round" fill="none" d="M163.25,150 L169.025,153.6 Q176.075,158.175 182.225,163.65 202.025,181.05 205.925,199.8 209.15,214.8 216.575,248.325 221.975,278.775 219.8,303.3 216.725,336.825 215,346.275 212.3,361.2 205.925,369.75 L194.3,385.8 M122.3,355.125 L119.75,392.25 137.3,397.275 M44.3,196.275 Q56,193.2 84.275,183.15 109.325,174.3 124.25,171.075 131.975,169.425 138.35,166.2 143.3,163.65 150.95,158.325 157.1,154.05 163.25,150" test="LeftBum"/>
    </g>
  </g>
</svg>