<?xml version="1.0" encoding="utf-8"?>
<svg id="EdithAnim08" image-rendering="inherit" baseProfile="basic" version="1.1" x="0px" y="0px" width="800" height="600" xmlns="http://www.w3.org/2000/svg" xmlns:xlink="http://www.w3.org/1999/xlink">
  <g id="No-Rear-To-Rearf25r1" overflow="visible">
    <g id="RightBum">
      <path id="Layer2_0_1_STROKES" stroke="#F0F" stroke-width="3" stroke-linejoin="round" stroke-linecap="round" fill="none" d="M991.875,168.075 L1000.125,200.475 Q1008,236.1 1006.125,252.525 1003.95,271.5 999.825,292.875 996,312.825 991.875,327.525 989.25,336.9 986.55,346.875 986.025,348.225 985.575,348.825 L1010.1,342.75 M1053.375,193.275 L972,156.975 M1053.375,327.525 L1081.875,323.775 M978.6,333.75 L979.35,336.825 Q981,342.825 982.875,347.1 984.3,350.325 985.575,348.825" test="RightBum"/>
      <path id="Layer2_0_2_STROKES" stroke="#F90" stroke-width="3" stroke-linejoin="round" stroke-linecap="round" fill="none" d="M1010.1,342.75 L1012.425,329.25 Q1013.325,324 1014.075,310.95 1014.825,296.475 1015.8,289.35 1019.175,262.875 1031.925,253.275 1039.05,247.875 1046.025,245.4 1051.575,243.375 1057.05,243.225 1061.925,243.15 1067.925,245.25 M972,156.975 Q887.175,119.025 867.375,111.225 854.925,106.35 844.275,103.95 833.1,101.475 824.025,101.775 804.975,102.45 790.425,115.275 774.75,128.925 767.175,146.925 759.15,166.125 763.05,184.275 766.35,199.875 777.975,209.625 783.825,214.5 789.075,216.525 806.025,205.875 822.9,205.275 M1010.1,342.75 L1002.45,387.225 Q1002.975,388.05 1002.375,387.6 L1000.425,398.775 Q995.775,400.125 990.45,402.975 979.65,408.675 975.9,416.025 972.525,422.625 972.075,428.625 971.775,432.45 972.675,436.05 975.45,447.525 990.375,450.225 1004.25,452.775 1014.075,446.025 1019.325,442.35 1024.875,435.75 1029.3,431.025 1031.7,429.45 1032.525,428.925 1033.425,428.625 1035.6,427.95 1038.15,428.625 1039.95,429.075 1041.9,430.275 1048.35,434.025 1049.925,433.425 1050.225,433.35 1053.375,428.775 1055.775,425.4 1052.4,420.225 1049.925,416.4 1046.025,413.7 1045.725,413.475 1045.425,413.25 1040.775,411.375 1038.9,410.025 1035.675,407.625 1035.375,400.725 1035.075,393.9 1044.225,353.625 L1053.375,314.775 1056.675,314.925 Q1061.925,315.075 1071.9,314.775 M987.15,336.825 L980.325,333 Q979.425,333.375 978.6,333.75 973.8,335.775 971.4,336.825 976.2,351.375 992.625,374.025 996.375,379.2 1001.4,385.8 1002.075,386.7 1002.45,387.225 L1002.375,387.6 Q1002,387.375 1001.4,386.775 M971.4,336.825 Q965.325,339.6 962.55,342 959.1,344.925 958.425,348.9 957.075,356.4 965.4,368.325 975.75,383.1 997.875,398.775 M978.6,333.75 L978.075,331.725 980.325,333 Q981.75,332.4 983.4,331.725 M789.075,216.525 Q784.95,219.075 780.825,222.225 767.025,232.95 760.5,242.25 756.525,247.95 755.25,253.125 751.725,266.775 752.25,278.775 752.775,290.775 756.075,305.55 758.025,310.275 760.5,315.075 761.25,316.575 762.075,318.075 773.025,338.4 788.325,352.725 804.675,368.025 826.275,373.575 836.175,376.05 844.275,376.2 849.75,376.275 854.4,375.225 853.8,375.9 892.275,405.375 907.5,417.075 922.8,428.625 926.85,431.7 930.9,434.775 L921.9,448.275 M896.4,410.25 L885.9,421.725" test="RightBum"/>
    </g>
    <g id="LeftBum">
      <path id="Layer1_0_1_STROKES" stroke="#FEB7AE" stroke-width="3" stroke-linejoin="round" stroke-linecap="round" fill="none" d="M-163.6,150 Q-142.075,136.05 -119.575,125.025 -97.225,114.15 -76.15,107.175 -48.925,98.175 -30.7,98.25 -7.75,98.325 8.825,103.95 28.325,110.625 43.4,126.3 50.6,133.725 52.4,149.85 53.75,161.625 52.1,175.8 50.825,186.525 43.7,195.675 39.5,201 29.825,211.95 31.325,213.45 32.675,214.875 39.275,221.925 44.45,231.3 47.975,237.675 49.85,245.775 51.5,252.9 51.95,261.375 52.625,274.575 50.3,287.7 49.775,290.475 49.1,293.25 40.1,332.775 17.45,356.25 .05,374.25 -22.675,385.5 -22.975,385.65 -40.3,393.6 -50.35,398.25 -56.575,402.3 -65.875,408.3 -73.075,413.925 -79.6,419.025 -87.55,426.3 -94.375,432.45 -96.775,439.5 -99.7,447.975 -94.6,454.05 -93.025,456 -87.625,458.775 -82.225,461.55 -82.6,460.275 M-53.05,199.8 Q-38.575,188.925 -17.35,189.6 3.35,190.275 17.45,201.3 24.8,207.075 29.825,211.95 M-275.05,243.3 Q-269.575,243.15 -261.7,244.275 -257.2,244.95 -248.35,246.375 -241.975,247.2 -233.05,248.025 -227.95,248.475 -217.75,249.3 -211.15,249.825 -202.75,251.925 -201.1,252.3 -197.875,252.525 -195.7,252.6 -194.5,253.425 -191.65,255.375 -185.05,269.25 -178.15,283.8 -174.55,294.6 -171.475,303.9 -167.425,321.075 -165.625,328.65 -161.5,339.075 -156.25,352.35 -154.825,356.775 -154.375,358.125 -152.35,366.975 -150.25,375.525 -149.05,376.8 -147.025,379.05 -147.4,380.025 -147.4,380.175 -144.4,380.775 -139.525,381.75 -133.45,387.075 -127.375,392.25 -123.85,398.55 -119.875,405.375 -121.15,409.95 -122.65,415.275 -131.05,416.025 -135.175,418.125 -142.225,416.55 -150.1,414.225 -153.625,413.775 -160.9,412.8 -170.35,414.675 -176.425,415.65 -179.275,416.25 -184,417.3 -187.75,419.4 -190.525,421.05 -194.125,423.825 -196.15,425.4 -200.125,428.625 -202.225,425.55 -199.675,418.875 -196.225,411.675 -195.175,409.35 -194.35,407.475 -191.575,404.85 -188.875,402.15 -188.2,400.65 -186.925,397.95 -188.65,390.075 -189.325,386.925 -191.5,379.35 -193.075,373.5 -196.975,366.75 -199.3,362.775 -204.55,355.125 M-189.55,397.275 Q-190.075,397.65 -198.025,401.1 -204.325,403.8 -206.125,406.575 -209.125,411.375 -209.65,415.65 -210.475,422.775 -207.1,436.275 -206.725,437.775 -206.275,439.2 -205.3,442.275 -203.95,445.2 -202.375,448.725 -200.2,452.025 -198.85,454.125 -189.55,465.75 M-204.55,355.125 Q-205.825,353.175 -210.475,347.325 -214.15,342.525 -216.1,339.225 -217.45,336.45 -218.275,334.95 -219.7,332.1 -221.05,331.275 -222.625,330.3 -226.45,330.225 -230.65,330.375 -232.075,330.3 -236.575,330.075 -243.325,330.525 -253.9,331.275 -254.575,331.275 -272.2,332.1 -283.6,330.375 -286.525,330 -293.8,327.225 -300.175,324.75 -304.075,324.75 M-174.1,465.3 Q-177.55,465 -181.15,461.325 -184.15,458.25 -186.1,454.275 -188.275,449.7 -189.175,445.35 -189.175,445.275 -189.175,445.2 -189.925,441.825 -189.7,439.2 -189.625,437.625 -189.175,436.35 -186.7,428.775 -179.5,424.05 -175.525,421.425 -165.1,417.3" test="LeftBum"/>
      <path id="Layer1_0_2_STROKES" stroke="#0FF" stroke-width="3" stroke-linejoin="round" stroke-linecap="round" fill="none" d="M-163.6,150 L-157.825,153.6 Q-150.775,158.175 -144.625,163.65 -124.825,181.05 -120.925,199.8 -117.7,214.8 -110.275,248.325 -104.875,278.775 -107.05,303.3 -110.125,336.825 -111.85,346.275 -114.55,361.2 -120.925,369.75 L-132.55,385.8 M-204.55,355.125 L-207.1,392.25 -189.55,397.275 M-282.55,196.275 Q-270.85,193.2 -242.575,183.15 -217.525,174.3 -202.6,171.075 -194.875,169.425 -188.5,166.2 -183.55,163.65 -175.9,158.325 -169.75,154.05 -163.6,150" test="LeftBum"/>
    </g>
  </g>
</svg>