<?xml version="1.0" encoding="utf-8"?>
<svg id="EdithAnim08" image-rendering="inherit" baseProfile="basic" version="1.1" x="0px" y="0px" width="800" height="600" xmlns="http://www.w3.org/2000/svg" xmlns:xlink="http://www.w3.org/1999/xlink">
  <g id="No-Rear-To-Rearf254r1" overflow="visible">
    <g id="RightBum">
      <path id="Layer2_0_1_STROKES" stroke="#F0F" stroke-width="3" stroke-linejoin="round" stroke-linecap="round" fill="none" d="M665.725,168.075 L673.975,200.475 Q681.85,236.1 679.975,252.525 677.8,271.5 673.675,292.875 669.85,312.825 665.725,327.525 663.1,336.9 660.4,346.875 659.875,348.225 659.425,348.825 L683.95,342.75 M727.225,193.275 L645.85,156.975 M727.225,327.525 L755.725,323.775 M652.45,333.75 L653.2,336.825 Q654.85,342.825 656.725,347.1 658.15,350.325 659.425,348.825" test="RightBum"/>
      <path id="Layer2_0_2_STROKES" stroke="#F90" stroke-width="3" stroke-linejoin="round" stroke-linecap="round" fill="none" d="M683.95,342.75 L686.275,329.25 Q687.175,324 687.925,310.95 688.675,296.475 689.65,289.35 693.025,262.875 705.775,253.275 712.9,247.875 719.875,245.4 725.425,243.375 730.9,243.225 735.775,243.15 741.775,245.25 M645.85,156.975 Q561.025,119.025 541.225,111.225 528.775,106.35 518.125,103.95 506.95,101.475 497.875,101.775 478.825,102.45 464.275,115.275 448.6,128.925 441.025,146.925 433,166.125 436.9,184.275 440.2,199.875 451.825,209.625 457.675,214.5 462.925,216.525 479.875,205.875 496.75,205.275 M683.95,342.75 L676.3,387.225 Q676.825,388.05 676.225,387.6 L674.275,398.775 Q669.625,400.125 664.3,402.975 653.5,408.675 649.75,416.025 646.375,422.625 645.925,428.625 645.625,432.45 646.525,436.05 649.3,447.525 664.225,450.225 678.1,452.775 687.925,446.025 693.175,442.35 698.725,435.75 703.15,431.025 705.55,429.45 706.375,428.925 707.275,428.625 709.45,427.95 712,428.625 713.8,429.075 715.75,430.275 722.2,434.025 723.775,433.425 724.075,433.35 727.225,428.775 729.625,425.4 726.25,420.225 723.775,416.4 719.875,413.7 719.575,413.475 719.275,413.25 714.625,411.375 712.75,410.025 709.525,407.625 709.225,400.725 708.925,393.9 718.075,353.625 L727.225,314.775 730.525,314.925 Q735.775,315.075 745.75,314.775 M661,336.825 L654.175,333 Q653.275,333.375 652.45,333.75 647.65,335.775 645.25,336.825 650.05,351.375 666.475,374.025 670.225,379.2 675.25,385.8 675.925,386.7 676.3,387.225 L676.225,387.6 Q675.85,387.375 675.25,386.775 M645.25,336.825 Q639.175,339.6 636.4,342 632.95,344.925 632.275,348.9 630.925,356.4 639.25,368.325 649.6,383.1 671.725,398.775 M652.45,333.75 L651.925,331.725 654.175,333 Q655.6,332.4 657.25,331.725 M462.925,216.525 Q458.8,219.075 454.675,222.225 440.875,232.95 434.35,242.25 430.375,247.95 429.1,253.125 425.575,266.775 426.1,278.775 426.625,290.775 429.925,305.55 431.875,310.275 434.35,315.075 435.1,316.575 435.925,318.075 446.875,338.4 462.175,352.725 478.525,368.025 500.125,373.575 510.025,376.05 518.125,376.2 523.6,376.275 528.25,375.225 527.65,375.9 566.125,405.375 581.35,417.075 596.65,428.625 600.7,431.7 604.75,434.775 L595.75,448.275 M570.25,410.25 L559.75,421.725" test="RightBum"/>
    </g>
    <g id="LeftBum">
      <path id="Layer1_0_1_STROKES" stroke="#FEB7AE" stroke-width="3" stroke-linejoin="round" stroke-linecap="round" fill="none" d="M167.85,150 Q189.375,136.05 211.875,125.025 234.225,114.15 255.3,107.175 282.525,98.175 300.75,98.25 323.7,98.325 340.275,103.95 359.775,110.625 374.85,126.3 382.05,133.725 383.85,149.85 385.2,161.625 383.55,175.8 382.275,186.525 375.15,195.675 370.95,201 361.275,211.95 362.775,213.45 364.125,214.875 370.725,221.925 375.9,231.3 379.425,237.675 381.3,245.775 382.95,252.9 383.4,261.375 384.075,274.575 381.75,287.7 381.225,290.475 380.55,293.25 371.55,332.775 348.9,356.25 331.5,374.25 308.775,385.5 308.475,385.65 291.15,393.6 281.1,398.25 274.875,402.3 265.575,408.3 258.375,413.925 251.85,419.025 243.9,426.3 237.075,432.45 234.675,439.5 231.75,447.975 236.85,454.05 238.425,456 243.825,458.775 249.225,461.55 248.85,460.275 M278.4,199.8 Q292.875,188.925 314.1,189.6 334.8,190.275 348.9,201.3 356.25,207.075 361.275,211.95 M56.4,243.3 Q61.875,243.15 69.75,244.275 74.25,244.95 83.1,246.375 89.475,247.2 98.4,248.025 103.5,248.475 113.7,249.3 120.3,249.825 128.7,251.925 130.35,252.3 133.575,252.525 135.75,252.6 136.95,253.425 139.8,255.375 146.4,269.25 153.3,283.8 156.9,294.6 159.975,303.9 164.025,321.075 165.825,328.65 169.95,339.075 175.2,352.35 176.625,356.775 177.075,358.125 179.1,366.975 181.2,375.525 182.4,376.8 184.425,379.05 184.05,380.025 184.05,380.175 187.05,380.775 191.925,381.75 198,387.075 204.075,392.25 207.6,398.55 211.575,405.375 210.3,409.95 208.8,415.275 200.4,416.025 196.275,418.125 189.225,416.55 181.35,414.225 177.825,413.775 170.55,412.8 161.1,414.675 155.025,415.65 152.175,416.25 147.45,417.3 143.7,419.4 140.925,421.05 137.325,423.825 135.3,425.4 131.325,428.625 129.225,425.55 131.775,418.875 135.225,411.675 136.275,409.35 137.1,407.475 139.875,404.85 142.575,402.15 143.25,400.65 144.525,397.95 142.8,390.075 142.125,386.925 139.95,379.35 138.375,373.5 134.475,366.75 132.15,362.775 126.9,355.125 M141.9,397.275 Q141.375,397.65 133.425,401.1 127.125,403.8 125.325,406.575 122.325,411.375 121.8,415.65 120.975,422.775 124.35,436.275 124.725,437.775 125.175,439.2 126.15,442.275 127.5,445.2 129.075,448.725 131.25,452.025 132.6,454.125 141.9,465.75 M126.9,355.125 Q125.625,353.175 120.975,347.325 117.3,342.525 115.35,339.225 114,336.45 113.175,334.95 111.75,332.1 110.4,331.275 108.825,330.3 105,330.225 100.8,330.375 99.375,330.3 94.875,330.075 88.125,330.525 77.55,331.275 76.875,331.275 59.25,332.1 47.85,330.375 44.925,330 37.65,327.225 31.275,324.75 27.375,324.75 M157.35,465.3 Q153.9,465 150.3,461.325 147.3,458.25 145.35,454.275 143.175,449.7 142.275,445.35 142.275,445.275 142.275,445.2 141.525,441.825 141.75,439.2 141.825,437.625 142.275,436.35 144.75,428.775 151.95,424.05 155.925,421.425 166.35,417.3" test="LeftBum"/>
      <path id="Layer1_0_2_STROKES" stroke="#0FF" stroke-width="3" stroke-linejoin="round" stroke-linecap="round" fill="none" d="M167.85,150 L173.625,153.6 Q180.675,158.175 186.825,163.65 206.625,181.05 210.525,199.8 213.75,214.8 221.175,248.325 226.575,278.775 224.4,303.3 221.325,336.825 219.6,346.275 216.9,361.2 210.525,369.75 L198.9,385.8 M126.9,355.125 L124.35,392.25 141.9,397.275 M48.9,196.275 Q60.6,193.2 88.875,183.15 113.925,174.3 128.85,171.075 136.575,169.425 142.95,166.2 147.9,163.65 155.55,158.325 161.7,154.05 167.85,150" test="LeftBum"/>
    </g>
  </g>
</svg>