<?xml version="1.0" encoding="utf-8"?>
<svg id="EdithAnim08" image-rendering="inherit" baseProfile="basic" version="1.1" x="0px" y="0px" width="800" height="600" xmlns="http://www.w3.org/2000/svg" xmlns:xlink="http://www.w3.org/1999/xlink">
  <g id="No-Rear-To-Rearf26r1" overflow="visible">
    <g id="RightBum">
      <path id="Layer2_0_1_STROKES" stroke="#F0F" stroke-width="3" stroke-linejoin="round" stroke-linecap="round" fill="none" d="M989.675,168.075 L997.925,200.475 Q1005.8,236.1 1003.925,252.525 1001.75,271.5 997.625,292.875 993.8,312.825 989.675,327.525 987.05,336.9 984.35,346.875 983.825,348.225 983.375,348.825 L1007.9,342.75 M1051.175,193.275 L969.8,156.975 M1051.175,327.525 L1079.675,323.775 M976.4,333.75 L977.15,336.825 Q978.8,342.825 980.675,347.1 982.1,350.325 983.375,348.825" test="RightBum"/>
      <path id="Layer2_0_2_STROKES" stroke="#F90" stroke-width="3" stroke-linejoin="round" stroke-linecap="round" fill="none" d="M1007.9,342.75 L1010.225,329.25 Q1011.125,324 1011.875,310.95 1012.625,296.475 1013.6,289.35 1016.975,262.875 1029.725,253.275 1036.85,247.875 1043.825,245.4 1049.375,243.375 1054.85,243.225 1059.725,243.15 1065.725,245.25 M969.8,156.975 Q884.975,119.025 865.175,111.225 852.725,106.35 842.075,103.95 830.9,101.475 821.825,101.775 802.775,102.45 788.225,115.275 772.55,128.925 764.975,146.925 756.95,166.125 760.85,184.275 764.15,199.875 775.775,209.625 781.625,214.5 786.875,216.525 803.825,205.875 820.7,205.275 M1007.9,342.75 L1000.25,387.225 Q1000.775,388.05 1000.175,387.6 L998.225,398.775 Q993.575,400.125 988.25,402.975 977.45,408.675 973.7,416.025 970.325,422.625 969.875,428.625 969.575,432.45 970.475,436.05 973.25,447.525 988.175,450.225 1002.05,452.775 1011.875,446.025 1017.125,442.35 1022.675,435.75 1027.1,431.025 1029.5,429.45 1030.325,428.925 1031.225,428.625 1033.4,427.95 1035.95,428.625 1037.75,429.075 1039.7,430.275 1046.15,434.025 1047.725,433.425 1048.025,433.35 1051.175,428.775 1053.575,425.4 1050.2,420.225 1047.725,416.4 1043.825,413.7 1043.525,413.475 1043.225,413.25 1038.575,411.375 1036.7,410.025 1033.475,407.625 1033.175,400.725 1032.875,393.9 1042.025,353.625 L1051.175,314.775 1054.475,314.925 Q1059.725,315.075 1069.7,314.775 M984.95,336.825 L978.125,333 Q977.225,333.375 976.4,333.75 971.6,335.775 969.2,336.825 974,351.375 990.425,374.025 994.175,379.2 999.2,385.8 999.875,386.7 1000.25,387.225 L1000.175,387.6 Q999.8,387.375 999.2,386.775 M969.2,336.825 Q963.125,339.6 960.35,342 956.9,344.925 956.225,348.9 954.875,356.4 963.2,368.325 973.55,383.1 995.675,398.775 M976.4,333.75 L975.875,331.725 978.125,333 Q979.55,332.4 981.2,331.725 M786.875,216.525 Q782.75,219.075 778.625,222.225 764.825,232.95 758.3,242.25 754.325,247.95 753.05,253.125 749.525,266.775 750.05,278.775 750.575,290.775 753.875,305.55 755.825,310.275 758.3,315.075 759.05,316.575 759.875,318.075 770.825,338.4 786.125,352.725 802.475,368.025 824.075,373.575 833.975,376.05 842.075,376.2 847.55,376.275 852.2,375.225 851.6,375.9 890.075,405.375 905.3,417.075 920.6,428.625 924.65,431.7 928.7,434.775 L919.7,448.275 M894.2,410.25 L883.7,421.725" test="RightBum"/>
    </g>
    <g id="LeftBum">
      <path id="Layer1_0_1_STROKES" stroke="#FEB7AE" stroke-width="3" stroke-linejoin="round" stroke-linecap="round" fill="none" d="M-161.35,150 Q-139.825,136.05 -117.325,125.025 -94.975,114.15 -73.9,107.175 -46.675,98.175 -28.45,98.25 -5.5,98.325 11.075,103.95 30.575,110.625 45.65,126.3 52.85,133.725 54.65,149.85 56,161.625 54.35,175.8 53.075,186.525 45.95,195.675 41.75,201 32.075,211.95 33.575,213.45 34.925,214.875 41.525,221.925 46.7,231.3 50.225,237.675 52.1,245.775 53.75,252.9 54.2,261.375 54.875,274.575 52.55,287.7 52.025,290.475 51.35,293.25 42.35,332.775 19.7,356.25 2.3,374.25 -20.425,385.5 -20.725,385.65 -38.05,393.6 -48.1,398.25 -54.325,402.3 -63.625,408.3 -70.825,413.925 -77.35,419.025 -85.3,426.3 -92.125,432.45 -94.525,439.5 -97.45,447.975 -92.35,454.05 -90.775,456 -85.375,458.775 -79.975,461.55 -80.35,460.275 M-50.8,199.8 Q-36.325,188.925 -15.1,189.6 5.6,190.275 19.7,201.3 27.05,207.075 32.075,211.95 M-272.8,243.3 Q-267.325,243.15 -259.45,244.275 -254.95,244.95 -246.1,246.375 -239.725,247.2 -230.8,248.025 -225.7,248.475 -215.5,249.3 -208.9,249.825 -200.5,251.925 -198.85,252.3 -195.625,252.525 -193.45,252.6 -192.25,253.425 -189.4,255.375 -182.8,269.25 -175.9,283.8 -172.3,294.6 -169.225,303.9 -165.175,321.075 -163.375,328.65 -159.25,339.075 -154,352.35 -152.575,356.775 -152.125,358.125 -150.1,366.975 -148,375.525 -146.8,376.8 -144.775,379.05 -145.15,380.025 -145.15,380.175 -142.15,380.775 -137.275,381.75 -131.2,387.075 -125.125,392.25 -121.6,398.55 -117.625,405.375 -118.9,409.95 -120.4,415.275 -128.8,416.025 -132.925,418.125 -139.975,416.55 -147.85,414.225 -151.375,413.775 -158.65,412.8 -168.1,414.675 -174.175,415.65 -177.025,416.25 -181.75,417.3 -185.5,419.4 -188.275,421.05 -191.875,423.825 -193.9,425.4 -197.875,428.625 -199.975,425.55 -197.425,418.875 -193.975,411.675 -192.925,409.35 -192.1,407.475 -189.325,404.85 -186.625,402.15 -185.95,400.65 -184.675,397.95 -186.4,390.075 -187.075,386.925 -189.25,379.35 -190.825,373.5 -194.725,366.75 -197.05,362.775 -202.3,355.125 M-187.3,397.275 Q-187.825,397.65 -195.775,401.1 -202.075,403.8 -203.875,406.575 -206.875,411.375 -207.4,415.65 -208.225,422.775 -204.85,436.275 -204.475,437.775 -204.025,439.2 -203.05,442.275 -201.7,445.2 -200.125,448.725 -197.95,452.025 -196.6,454.125 -187.3,465.75 M-202.3,355.125 Q-203.575,353.175 -208.225,347.325 -211.9,342.525 -213.85,339.225 -215.2,336.45 -216.025,334.95 -217.45,332.1 -218.8,331.275 -220.375,330.3 -224.2,330.225 -228.4,330.375 -229.825,330.3 -234.325,330.075 -241.075,330.525 -251.65,331.275 -252.325,331.275 -269.95,332.1 -281.35,330.375 -284.275,330 -291.55,327.225 -297.925,324.75 -301.825,324.75 M-171.85,465.3 Q-175.3,465 -178.9,461.325 -181.9,458.25 -183.85,454.275 -186.025,449.7 -186.925,445.35 -186.925,445.275 -186.925,445.2 -187.675,441.825 -187.45,439.2 -187.375,437.625 -186.925,436.35 -184.45,428.775 -177.25,424.05 -173.275,421.425 -162.85,417.3" test="LeftBum"/>
      <path id="Layer1_0_2_STROKES" stroke="#0FF" stroke-width="3" stroke-linejoin="round" stroke-linecap="round" fill="none" d="M-161.35,150 L-155.575,153.6 Q-148.525,158.175 -142.375,163.65 -122.575,181.05 -118.675,199.8 -115.45,214.8 -108.025,248.325 -102.625,278.775 -104.8,303.3 -107.875,336.825 -109.6,346.275 -112.3,361.2 -118.675,369.75 L-130.3,385.8 M-202.3,355.125 L-204.85,392.25 -187.3,397.275 M-280.3,196.275 Q-268.6,193.2 -240.325,183.15 -215.275,174.3 -200.35,171.075 -192.625,169.425 -186.25,166.2 -181.3,163.65 -173.65,158.325 -167.5,154.05 -161.35,150" test="LeftBum"/>
    </g>
  </g>
</svg>