<?xml version="1.0" encoding="utf-8"?>
<svg id="EdithAnim08" image-rendering="inherit" baseProfile="basic" version="1.1" x="0px" y="0px" width="800" height="600" xmlns="http://www.w3.org/2000/svg" xmlns:xlink="http://www.w3.org/1999/xlink">
  <g id="No-Rear-To-Rearf264r1" overflow="visible">
    <g id="RightBum">
      <path id="Layer2_0_1_STROKES" stroke="#F0F" stroke-width="3" stroke-linejoin="round" stroke-linecap="round" fill="none" d="M659.825,168.075 L668.075,200.475 Q675.95,236.1 674.075,252.525 671.9,271.5 667.775,292.875 663.95,312.825 659.825,327.525 657.2,336.9 654.5,346.875 653.975,348.225 653.525,348.825 L678.05,342.75 M721.325,193.275 L639.95,156.975 M721.325,327.525 L749.825,323.775 M646.55,333.75 L647.3,336.825 Q648.95,342.825 650.825,347.1 652.25,350.325 653.525,348.825" test="RightBum"/>
      <path id="Layer2_0_2_STROKES" stroke="#F90" stroke-width="3" stroke-linejoin="round" stroke-linecap="round" fill="none" d="M678.05,342.75 L680.375,329.25 Q681.275,324 682.025,310.95 682.775,296.475 683.75,289.35 687.125,262.875 699.875,253.275 707,247.875 713.975,245.4 719.525,243.375 725,243.225 729.875,243.15 735.875,245.25 M639.95,156.975 Q555.125,119.025 535.325,111.225 522.875,106.35 512.225,103.95 501.05,101.475 491.975,101.775 472.925,102.45 458.375,115.275 442.7,128.925 435.125,146.925 427.1,166.125 431,184.275 434.3,199.875 445.925,209.625 451.775,214.5 457.025,216.525 473.975,205.875 490.85,205.275 M678.05,342.75 L670.4,387.225 Q670.925,388.05 670.325,387.6 L668.375,398.775 Q663.725,400.125 658.4,402.975 647.6,408.675 643.85,416.025 640.475,422.625 640.025,428.625 639.725,432.45 640.625,436.05 643.4,447.525 658.325,450.225 672.2,452.775 682.025,446.025 687.275,442.35 692.825,435.75 697.25,431.025 699.65,429.45 700.475,428.925 701.375,428.625 703.55,427.95 706.1,428.625 707.9,429.075 709.85,430.275 716.3,434.025 717.875,433.425 718.175,433.35 721.325,428.775 723.725,425.4 720.35,420.225 717.875,416.4 713.975,413.7 713.675,413.475 713.375,413.25 708.725,411.375 706.85,410.025 703.625,407.625 703.325,400.725 703.025,393.9 712.175,353.625 L721.325,314.775 724.625,314.925 Q729.875,315.075 739.85,314.775 M655.1,336.825 L648.275,333 Q647.375,333.375 646.55,333.75 641.75,335.775 639.35,336.825 644.15,351.375 660.575,374.025 664.325,379.2 669.35,385.8 670.025,386.7 670.4,387.225 L670.325,387.6 Q669.95,387.375 669.35,386.775 M639.35,336.825 Q633.275,339.6 630.5,342 627.05,344.925 626.375,348.9 625.025,356.4 633.35,368.325 643.7,383.1 665.825,398.775 M646.55,333.75 L646.025,331.725 648.275,333 Q649.7,332.4 651.35,331.725 M457.025,216.525 Q452.9,219.075 448.775,222.225 434.975,232.95 428.45,242.25 424.475,247.95 423.2,253.125 419.675,266.775 420.2,278.775 420.725,290.775 424.025,305.55 425.975,310.275 428.45,315.075 429.2,316.575 430.025,318.075 440.975,338.4 456.275,352.725 472.625,368.025 494.225,373.575 504.125,376.05 512.225,376.2 517.7,376.275 522.35,375.225 521.75,375.9 560.225,405.375 575.45,417.075 590.75,428.625 594.8,431.7 598.85,434.775 L589.85,448.275 M564.35,410.25 L553.85,421.725" test="RightBum"/>
    </g>
    <g id="LeftBum">
      <path id="Layer1_0_1_STROKES" stroke="#FEB7AE" stroke-width="3" stroke-linejoin="round" stroke-linecap="round" fill="none" d="M173.85,150 Q195.375,136.05 217.875,125.025 240.225,114.15 261.3,107.175 288.525,98.175 306.75,98.25 329.7,98.325 346.275,103.95 365.775,110.625 380.85,126.3 388.05,133.725 389.85,149.85 391.2,161.625 389.55,175.8 388.275,186.525 381.15,195.675 376.95,201 367.275,211.95 368.775,213.45 370.125,214.875 376.725,221.925 381.9,231.3 385.425,237.675 387.3,245.775 388.95,252.9 389.4,261.375 390.075,274.575 387.75,287.7 387.225,290.475 386.55,293.25 377.55,332.775 354.9,356.25 337.5,374.25 314.775,385.5 314.475,385.65 297.15,393.6 287.1,398.25 280.875,402.3 271.575,408.3 264.375,413.925 257.85,419.025 249.9,426.3 243.075,432.45 240.675,439.5 237.75,447.975 242.85,454.05 244.425,456 249.825,458.775 255.225,461.55 254.85,460.275 M284.4,199.8 Q298.875,188.925 320.1,189.6 340.8,190.275 354.9,201.3 362.25,207.075 367.275,211.95 M62.4,243.3 Q67.875,243.15 75.75,244.275 80.25,244.95 89.1,246.375 95.475,247.2 104.4,248.025 109.5,248.475 119.7,249.3 126.3,249.825 134.7,251.925 136.35,252.3 139.575,252.525 141.75,252.6 142.95,253.425 145.8,255.375 152.4,269.25 159.3,283.8 162.9,294.6 165.975,303.9 170.025,321.075 171.825,328.65 175.95,339.075 181.2,352.35 182.625,356.775 183.075,358.125 185.1,366.975 187.2,375.525 188.4,376.8 190.425,379.05 190.05,380.025 190.05,380.175 193.05,380.775 197.925,381.75 204,387.075 210.075,392.25 213.6,398.55 217.575,405.375 216.3,409.95 214.8,415.275 206.4,416.025 202.275,418.125 195.225,416.55 187.35,414.225 183.825,413.775 176.55,412.8 167.1,414.675 161.025,415.65 158.175,416.25 153.45,417.3 149.7,419.4 146.925,421.05 143.325,423.825 141.3,425.4 137.325,428.625 135.225,425.55 137.775,418.875 141.225,411.675 142.275,409.35 143.1,407.475 145.875,404.85 148.575,402.15 149.25,400.65 150.525,397.95 148.8,390.075 148.125,386.925 145.95,379.35 144.375,373.5 140.475,366.75 138.15,362.775 132.9,355.125 M147.9,397.275 Q147.375,397.65 139.425,401.1 133.125,403.8 131.325,406.575 128.325,411.375 127.8,415.65 126.975,422.775 130.35,436.275 130.725,437.775 131.175,439.2 132.15,442.275 133.5,445.2 135.075,448.725 137.25,452.025 138.6,454.125 147.9,465.75 M132.9,355.125 Q131.625,353.175 126.975,347.325 123.3,342.525 121.35,339.225 120,336.45 119.175,334.95 117.75,332.1 116.4,331.275 114.825,330.3 111,330.225 106.8,330.375 105.375,330.3 100.875,330.075 94.125,330.525 83.55,331.275 82.875,331.275 65.25,332.1 53.85,330.375 50.925,330 43.65,327.225 37.275,324.75 33.375,324.75 M163.35,465.3 Q159.9,465 156.3,461.325 153.3,458.25 151.35,454.275 149.175,449.7 148.275,445.35 148.275,445.275 148.275,445.2 147.525,441.825 147.75,439.2 147.825,437.625 148.275,436.35 150.75,428.775 157.95,424.05 161.925,421.425 172.35,417.3" test="LeftBum"/>
      <path id="Layer1_0_2_STROKES" stroke="#0FF" stroke-width="3" stroke-linejoin="round" stroke-linecap="round" fill="none" d="M173.85,150 L179.625,153.6 Q186.675,158.175 192.825,163.65 212.625,181.05 216.525,199.8 219.75,214.8 227.175,248.325 232.575,278.775 230.4,303.3 227.325,336.825 225.6,346.275 222.9,361.2 216.525,369.75 L204.9,385.8 M132.9,355.125 L130.35,392.25 147.9,397.275 M54.9,196.275 Q66.6,193.2 94.875,183.15 119.925,174.3 134.85,171.075 142.575,169.425 148.95,166.2 153.9,163.65 161.55,158.325 167.7,154.05 173.85,150" test="LeftBum"/>
    </g>
  </g>
</svg>