<?xml version="1.0" encoding="utf-8"?>
<svg id="EdithAnim08" image-rendering="inherit" baseProfile="basic" version="1.1" x="0px" y="0px" width="800" height="600" xmlns="http://www.w3.org/2000/svg" xmlns:xlink="http://www.w3.org/1999/xlink">
  <g id="No-Rear-To-Rearf267r1" overflow="visible">
    <g id="RightBum">
      <path id="Layer2_0_1_STROKES" stroke="#F0F" stroke-width="3" stroke-linejoin="round" stroke-linecap="round" fill="none" d="M658.175,168.075 L666.425,200.475 Q674.3,236.1 672.425,252.525 670.25,271.5 666.125,292.875 662.3,312.825 658.175,327.525 655.55,336.9 652.85,346.875 652.325,348.225 651.875,348.825 L676.4,342.75 M719.675,193.275 L638.3,156.975 M719.675,327.525 L748.175,323.775 M644.9,333.75 L645.65,336.825 Q647.3,342.825 649.175,347.1 650.6,350.325 651.875,348.825" test="RightBum"/>
      <path id="Layer2_0_2_STROKES" stroke="#F90" stroke-width="3" stroke-linejoin="round" stroke-linecap="round" fill="none" d="M676.4,342.75 L678.725,329.25 Q679.625,324 680.375,310.95 681.125,296.475 682.1,289.35 685.475,262.875 698.225,253.275 705.35,247.875 712.325,245.4 717.875,243.375 723.35,243.225 728.225,243.15 734.225,245.25 M638.3,156.975 Q553.475,119.025 533.675,111.225 521.225,106.35 510.575,103.95 499.4,101.475 490.325,101.775 471.275,102.45 456.725,115.275 441.05,128.925 433.475,146.925 425.45,166.125 429.35,184.275 432.65,199.875 444.275,209.625 450.125,214.5 455.375,216.525 472.325,205.875 489.2,205.275 M676.4,342.75 L668.75,387.225 Q669.275,388.05 668.675,387.6 L666.725,398.775 Q662.075,400.125 656.75,402.975 645.95,408.675 642.2,416.025 638.825,422.625 638.375,428.625 638.075,432.45 638.975,436.05 641.75,447.525 656.675,450.225 670.55,452.775 680.375,446.025 685.625,442.35 691.175,435.75 695.6,431.025 698,429.45 698.825,428.925 699.725,428.625 701.9,427.95 704.45,428.625 706.25,429.075 708.2,430.275 714.65,434.025 716.225,433.425 716.525,433.35 719.675,428.775 722.075,425.4 718.7,420.225 716.225,416.4 712.325,413.7 712.025,413.475 711.725,413.25 707.075,411.375 705.2,410.025 701.975,407.625 701.675,400.725 701.375,393.9 710.525,353.625 L719.675,314.775 722.975,314.925 Q728.225,315.075 738.2,314.775 M653.45,336.825 L646.625,333 Q645.725,333.375 644.9,333.75 640.1,335.775 637.7,336.825 642.5,351.375 658.925,374.025 662.675,379.2 667.7,385.8 668.375,386.7 668.75,387.225 L668.675,387.6 Q668.3,387.375 667.7,386.775 M637.7,336.825 Q631.625,339.6 628.85,342 625.4,344.925 624.725,348.9 623.375,356.4 631.7,368.325 642.05,383.1 664.175,398.775 M644.9,333.75 L644.375,331.725 646.625,333 Q648.05,332.4 649.7,331.725 M455.375,216.525 Q451.25,219.075 447.125,222.225 433.325,232.95 426.8,242.25 422.825,247.95 421.55,253.125 418.025,266.775 418.55,278.775 419.075,290.775 422.375,305.55 424.325,310.275 426.8,315.075 427.55,316.575 428.375,318.075 439.325,338.4 454.625,352.725 470.975,368.025 492.575,373.575 502.475,376.05 510.575,376.2 516.05,376.275 520.7,375.225 520.1,375.9 558.575,405.375 573.8,417.075 589.1,428.625 593.15,431.7 597.2,434.775 L588.2,448.275 M562.7,410.25 L552.2,421.725" test="RightBum"/>
    </g>
    <g id="LeftBum">
      <path id="Layer1_0_1_STROKES" stroke="#FEB7AE" stroke-width="3" stroke-linejoin="round" stroke-linecap="round" fill="none" d="M175.55,150 Q197.075,136.05 219.575,125.025 241.925,114.15 263,107.175 290.225,98.175 308.45,98.25 331.4,98.325 347.975,103.95 367.475,110.625 382.55,126.3 389.75,133.725 391.55,149.85 392.9,161.625 391.25,175.8 389.975,186.525 382.85,195.675 378.65,201 368.975,211.95 370.475,213.45 371.825,214.875 378.425,221.925 383.6,231.3 387.125,237.675 389,245.775 390.65,252.9 391.1,261.375 391.775,274.575 389.45,287.7 388.925,290.475 388.25,293.25 379.25,332.775 356.6,356.25 339.2,374.25 316.475,385.5 316.175,385.65 298.85,393.6 288.8,398.25 282.575,402.3 273.275,408.3 266.075,413.925 259.55,419.025 251.6,426.3 244.775,432.45 242.375,439.5 239.45,447.975 244.55,454.05 246.125,456 251.525,458.775 256.925,461.55 256.55,460.275 M286.1,199.8 Q300.575,188.925 321.8,189.6 342.5,190.275 356.6,201.3 363.95,207.075 368.975,211.95 M64.1,243.3 Q69.575,243.15 77.45,244.275 81.95,244.95 90.8,246.375 97.175,247.2 106.1,248.025 111.2,248.475 121.4,249.3 128,249.825 136.4,251.925 138.05,252.3 141.275,252.525 143.45,252.6 144.65,253.425 147.5,255.375 154.1,269.25 161,283.8 164.6,294.6 167.675,303.9 171.725,321.075 173.525,328.65 177.65,339.075 182.9,352.35 184.325,356.775 184.775,358.125 186.8,366.975 188.9,375.525 190.1,376.8 192.125,379.05 191.75,380.025 191.75,380.175 194.75,380.775 199.625,381.75 205.7,387.075 211.775,392.25 215.3,398.55 219.275,405.375 218,409.95 216.5,415.275 208.1,416.025 203.975,418.125 196.925,416.55 189.05,414.225 185.525,413.775 178.25,412.8 168.8,414.675 162.725,415.65 159.875,416.25 155.15,417.3 151.4,419.4 148.625,421.05 145.025,423.825 143,425.4 139.025,428.625 136.925,425.55 139.475,418.875 142.925,411.675 143.975,409.35 144.8,407.475 147.575,404.85 150.275,402.15 150.95,400.65 152.225,397.95 150.5,390.075 149.825,386.925 147.65,379.35 146.075,373.5 142.175,366.75 139.85,362.775 134.6,355.125 M149.6,397.275 Q149.075,397.65 141.125,401.1 134.825,403.8 133.025,406.575 130.025,411.375 129.5,415.65 128.675,422.775 132.05,436.275 132.425,437.775 132.875,439.2 133.85,442.275 135.2,445.2 136.775,448.725 138.95,452.025 140.3,454.125 149.6,465.75 M134.6,355.125 Q133.325,353.175 128.675,347.325 125,342.525 123.05,339.225 121.7,336.45 120.875,334.95 119.45,332.1 118.1,331.275 116.525,330.3 112.7,330.225 108.5,330.375 107.075,330.3 102.575,330.075 95.825,330.525 85.25,331.275 84.575,331.275 66.95,332.1 55.55,330.375 52.625,330 45.35,327.225 38.975,324.75 35.075,324.75 M165.05,465.3 Q161.6,465 158,461.325 155,458.25 153.05,454.275 150.875,449.7 149.975,445.35 149.975,445.275 149.975,445.2 149.225,441.825 149.45,439.2 149.525,437.625 149.975,436.35 152.45,428.775 159.65,424.05 163.625,421.425 174.05,417.3" test="LeftBum"/>
      <path id="Layer1_0_2_STROKES" stroke="#0FF" stroke-width="3" stroke-linejoin="round" stroke-linecap="round" fill="none" d="M175.55,150 L181.325,153.6 Q188.375,158.175 194.525,163.65 214.325,181.05 218.225,199.8 221.45,214.8 228.875,248.325 234.275,278.775 232.1,303.3 229.025,336.825 227.3,346.275 224.6,361.2 218.225,369.75 L206.6,385.8 M134.6,355.125 L132.05,392.25 149.6,397.275 M56.6,196.275 Q68.3,193.2 96.575,183.15 121.625,174.3 136.55,171.075 144.275,169.425 150.65,166.2 155.6,163.65 163.25,158.325 169.4,154.05 175.55,150" test="LeftBum"/>
    </g>
  </g>
</svg>