<?xml version="1.0" encoding="utf-8"?>
<svg id="EdithAnim08" image-rendering="inherit" baseProfile="basic" version="1.1" x="0px" y="0px" width="800" height="600" xmlns="http://www.w3.org/2000/svg" xmlns:xlink="http://www.w3.org/1999/xlink">
  <g id="No-Rear-To-Rearf27r1" overflow="visible">
    <g id="RightBum">
      <path id="Layer2_0_1_STROKES" stroke="#F0F" stroke-width="3" stroke-linejoin="round" stroke-linecap="round" fill="none" d="M987.425,168.075 L995.675,200.475 Q1003.55,236.1 1001.675,252.525 999.5,271.5 995.375,292.875 991.55,312.825 987.425,327.525 984.8,336.9 982.1,346.875 981.575,348.225 981.125,348.825 L1005.65,342.75 M1048.925,193.275 L967.55,156.975 M1048.925,327.525 L1077.425,323.775 M974.15,333.75 L974.9,336.825 Q976.55,342.825 978.425,347.1 979.85,350.325 981.125,348.825" test="RightBum"/>
      <path id="Layer2_0_2_STROKES" stroke="#F90" stroke-width="3" stroke-linejoin="round" stroke-linecap="round" fill="none" d="M1005.65,342.75 L1007.975,329.25 Q1008.875,324 1009.625,310.95 1010.375,296.475 1011.35,289.35 1014.725,262.875 1027.475,253.275 1034.6,247.875 1041.575,245.4 1047.125,243.375 1052.6,243.225 1057.475,243.15 1063.475,245.25 M967.55,156.975 Q882.725,119.025 862.925,111.225 850.475,106.35 839.825,103.95 828.65,101.475 819.575,101.775 800.525,102.45 785.975,115.275 770.3,128.925 762.725,146.925 754.7,166.125 758.6,184.275 761.9,199.875 773.525,209.625 779.375,214.5 784.625,216.525 801.575,205.875 818.45,205.275 M1005.65,342.75 L998,387.225 Q998.525,388.05 997.925,387.6 L995.975,398.775 Q991.325,400.125 986,402.975 975.2,408.675 971.45,416.025 968.075,422.625 967.625,428.625 967.325,432.45 968.225,436.05 971,447.525 985.925,450.225 999.8,452.775 1009.625,446.025 1014.875,442.35 1020.425,435.75 1024.85,431.025 1027.25,429.45 1028.075,428.925 1028.975,428.625 1031.15,427.95 1033.7,428.625 1035.5,429.075 1037.45,430.275 1043.9,434.025 1045.475,433.425 1045.775,433.35 1048.925,428.775 1051.325,425.4 1047.95,420.225 1045.475,416.4 1041.575,413.7 1041.275,413.475 1040.975,413.25 1036.325,411.375 1034.45,410.025 1031.225,407.625 1030.925,400.725 1030.625,393.9 1039.775,353.625 L1048.925,314.775 1052.225,314.925 Q1057.475,315.075 1067.45,314.775 M982.7,336.825 L975.875,333 Q974.975,333.375 974.15,333.75 969.35,335.775 966.95,336.825 971.75,351.375 988.175,374.025 991.925,379.2 996.95,385.8 997.625,386.7 998,387.225 L997.925,387.6 Q997.55,387.375 996.95,386.775 M966.95,336.825 Q960.875,339.6 958.1,342 954.65,344.925 953.975,348.9 952.625,356.4 960.95,368.325 971.3,383.1 993.425,398.775 M974.15,333.75 L973.625,331.725 975.875,333 Q977.3,332.4 978.95,331.725 M784.625,216.525 Q780.5,219.075 776.375,222.225 762.575,232.95 756.05,242.25 752.075,247.95 750.8,253.125 747.275,266.775 747.8,278.775 748.325,290.775 751.625,305.55 753.575,310.275 756.05,315.075 756.8,316.575 757.625,318.075 768.575,338.4 783.875,352.725 800.225,368.025 821.825,373.575 831.725,376.05 839.825,376.2 845.3,376.275 849.95,375.225 849.35,375.9 887.825,405.375 903.05,417.075 918.35,428.625 922.4,431.7 926.45,434.775 L917.45,448.275 M891.95,410.25 L881.45,421.725" test="RightBum"/>
    </g>
    <g id="LeftBum">
      <path id="Layer1_0_1_STROKES" stroke="#FEB7AE" stroke-width="3" stroke-linejoin="round" stroke-linecap="round" fill="none" d="M-159.1,150 Q-137.575,136.05 -115.075,125.025 -92.725,114.15 -71.65,107.175 -44.425,98.175 -26.2,98.25 -3.25,98.325 13.325,103.95 32.825,110.625 47.9,126.3 55.1,133.725 56.9,149.85 58.25,161.625 56.6,175.8 55.325,186.525 48.2,195.675 44,201 34.325,211.95 35.825,213.45 37.175,214.875 43.775,221.925 48.95,231.3 52.475,237.675 54.35,245.775 56,252.9 56.45,261.375 57.125,274.575 54.8,287.7 54.275,290.475 53.6,293.25 44.6,332.775 21.95,356.25 4.55,374.25 -18.175,385.5 -18.475,385.65 -35.8,393.6 -45.85,398.25 -52.075,402.3 -61.375,408.3 -68.575,413.925 -75.1,419.025 -83.05,426.3 -89.875,432.45 -92.275,439.5 -95.2,447.975 -90.1,454.05 -88.525,456 -83.125,458.775 -77.725,461.55 -78.1,460.275 M-48.55,199.8 Q-34.075,188.925 -12.85,189.6 7.85,190.275 21.95,201.3 29.3,207.075 34.325,211.95 M-270.55,243.3 Q-265.075,243.15 -257.2,244.275 -252.7,244.95 -243.85,246.375 -237.475,247.2 -228.55,248.025 -223.45,248.475 -213.25,249.3 -206.65,249.825 -198.25,251.925 -196.6,252.3 -193.375,252.525 -191.2,252.6 -190,253.425 -187.15,255.375 -180.55,269.25 -173.65,283.8 -170.05,294.6 -166.975,303.9 -162.925,321.075 -161.125,328.65 -157,339.075 -151.75,352.35 -150.325,356.775 -149.875,358.125 -147.85,366.975 -145.75,375.525 -144.55,376.8 -142.525,379.05 -142.9,380.025 -142.9,380.175 -139.9,380.775 -135.025,381.75 -128.95,387.075 -122.875,392.25 -119.35,398.55 -115.375,405.375 -116.65,409.95 -118.15,415.275 -126.55,416.025 -130.675,418.125 -137.725,416.55 -145.6,414.225 -149.125,413.775 -156.4,412.8 -165.85,414.675 -171.925,415.65 -174.775,416.25 -179.5,417.3 -183.25,419.4 -186.025,421.05 -189.625,423.825 -191.65,425.4 -195.625,428.625 -197.725,425.55 -195.175,418.875 -191.725,411.675 -190.675,409.35 -189.85,407.475 -187.075,404.85 -184.375,402.15 -183.7,400.65 -182.425,397.95 -184.15,390.075 -184.825,386.925 -187,379.35 -188.575,373.5 -192.475,366.75 -194.8,362.775 -200.05,355.125 M-185.05,397.275 Q-185.575,397.65 -193.525,401.1 -199.825,403.8 -201.625,406.575 -204.625,411.375 -205.15,415.65 -205.975,422.775 -202.6,436.275 -202.225,437.775 -201.775,439.2 -200.8,442.275 -199.45,445.2 -197.875,448.725 -195.7,452.025 -194.35,454.125 -185.05,465.75 M-200.05,355.125 Q-201.325,353.175 -205.975,347.325 -209.65,342.525 -211.6,339.225 -212.95,336.45 -213.775,334.95 -215.2,332.1 -216.55,331.275 -218.125,330.3 -221.95,330.225 -226.15,330.375 -227.575,330.3 -232.075,330.075 -238.825,330.525 -249.4,331.275 -250.075,331.275 -267.7,332.1 -279.1,330.375 -282.025,330 -289.3,327.225 -295.675,324.75 -299.575,324.75 M-169.6,465.3 Q-173.05,465 -176.65,461.325 -179.65,458.25 -181.6,454.275 -183.775,449.7 -184.675,445.35 -184.675,445.275 -184.675,445.2 -185.425,441.825 -185.2,439.2 -185.125,437.625 -184.675,436.35 -182.2,428.775 -175,424.05 -171.025,421.425 -160.6,417.3" test="LeftBum"/>
      <path id="Layer1_0_2_STROKES" stroke="#0FF" stroke-width="3" stroke-linejoin="round" stroke-linecap="round" fill="none" d="M-159.1,150 L-153.325,153.6 Q-146.275,158.175 -140.125,163.65 -120.325,181.05 -116.425,199.8 -113.2,214.8 -105.775,248.325 -100.375,278.775 -102.55,303.3 -105.625,336.825 -107.35,346.275 -110.05,361.2 -116.425,369.75 L-128.05,385.8 M-200.05,355.125 L-202.6,392.25 -185.05,397.275 M-278.05,196.275 Q-266.35,193.2 -238.075,183.15 -213.025,174.3 -198.1,171.075 -190.375,169.425 -184,166.2 -179.05,163.65 -171.4,158.325 -165.25,154.05 -159.1,150" test="LeftBum"/>
    </g>
  </g>
</svg>