<?xml version="1.0" encoding="utf-8"?>
<svg id="EdithAnim08" image-rendering="inherit" baseProfile="basic" version="1.1" x="0px" y="0px" width="800" height="600" xmlns="http://www.w3.org/2000/svg" xmlns:xlink="http://www.w3.org/1999/xlink">
  <g id="No-Rear-To-Rearf270r1" overflow="visible">
    <g id="RightBum">
      <path id="Layer2_0_1_STROKES" stroke="#F0F" stroke-width="3" stroke-linejoin="round" stroke-linecap="round" fill="none" d="M656.575,168.075 L664.825,200.475 Q672.7,236.1 670.825,252.525 668.65,271.5 664.525,292.875 660.7,312.825 656.575,327.525 653.95,336.9 651.25,346.875 650.725,348.225 650.275,348.825 L674.8,342.75 M718.075,193.275 L636.7,156.975 M718.075,327.525 L746.575,323.775 M643.3,333.75 L644.05,336.825 Q645.7,342.825 647.575,347.1 649,350.325 650.275,348.825" test="RightBum"/>
      <path id="Layer2_0_2_STROKES" stroke="#F90" stroke-width="3" stroke-linejoin="round" stroke-linecap="round" fill="none" d="M674.8,342.75 L677.125,329.25 Q678.025,324 678.775,310.95 679.525,296.475 680.5,289.35 683.875,262.875 696.625,253.275 703.75,247.875 710.725,245.4 716.275,243.375 721.75,243.225 726.625,243.15 732.625,245.25 M636.7,156.975 Q551.875,119.025 532.075,111.225 519.625,106.35 508.975,103.95 497.8,101.475 488.725,101.775 469.675,102.45 455.125,115.275 439.45,128.925 431.875,146.925 423.85,166.125 427.75,184.275 431.05,199.875 442.675,209.625 448.525,214.5 453.775,216.525 470.725,205.875 487.6,205.275 M674.8,342.75 L667.15,387.225 Q667.675,388.05 667.075,387.6 L665.125,398.775 Q660.475,400.125 655.15,402.975 644.35,408.675 640.6,416.025 637.225,422.625 636.775,428.625 636.475,432.45 637.375,436.05 640.15,447.525 655.075,450.225 668.95,452.775 678.775,446.025 684.025,442.35 689.575,435.75 694,431.025 696.4,429.45 697.225,428.925 698.125,428.625 700.3,427.95 702.85,428.625 704.65,429.075 706.6,430.275 713.05,434.025 714.625,433.425 714.925,433.35 718.075,428.775 720.475,425.4 717.1,420.225 714.625,416.4 710.725,413.7 710.425,413.475 710.125,413.25 705.475,411.375 703.6,410.025 700.375,407.625 700.075,400.725 699.775,393.9 708.925,353.625 L718.075,314.775 721.375,314.925 Q726.625,315.075 736.6,314.775 M651.85,336.825 L645.025,333 Q644.125,333.375 643.3,333.75 638.5,335.775 636.1,336.825 640.9,351.375 657.325,374.025 661.075,379.2 666.1,385.8 666.775,386.7 667.15,387.225 L667.075,387.6 Q666.7,387.375 666.1,386.775 M636.1,336.825 Q630.025,339.6 627.25,342 623.8,344.925 623.125,348.9 621.775,356.4 630.1,368.325 640.45,383.1 662.575,398.775 M643.3,333.75 L642.775,331.725 645.025,333 Q646.45,332.4 648.1,331.725 M453.775,216.525 Q449.65,219.075 445.525,222.225 431.725,232.95 425.2,242.25 421.225,247.95 419.95,253.125 416.425,266.775 416.95,278.775 417.475,290.775 420.775,305.55 422.725,310.275 425.2,315.075 425.95,316.575 426.775,318.075 437.725,338.4 453.025,352.725 469.375,368.025 490.975,373.575 500.875,376.05 508.975,376.2 514.45,376.275 519.1,375.225 518.5,375.9 556.975,405.375 572.2,417.075 587.5,428.625 591.55,431.7 595.6,434.775 L586.6,448.275 M561.1,410.25 L550.6,421.725" test="RightBum"/>
    </g>
    <g id="LeftBum">
      <path id="Layer1_0_1_STROKES" stroke="#FEB7AE" stroke-width="3" stroke-linejoin="round" stroke-linecap="round" fill="none" d="M177.15,150 Q198.675,136.05 221.175,125.025 243.525,114.15 264.6,107.175 291.825,98.175 310.05,98.25 333,98.325 349.575,103.95 369.075,110.625 384.15,126.3 391.35,133.725 393.15,149.85 394.5,161.625 392.85,175.8 391.575,186.525 384.45,195.675 380.25,201 370.575,211.95 372.075,213.45 373.425,214.875 380.025,221.925 385.2,231.3 388.725,237.675 390.6,245.775 392.25,252.9 392.7,261.375 393.375,274.575 391.05,287.7 390.525,290.475 389.85,293.25 380.85,332.775 358.2,356.25 340.8,374.25 318.075,385.5 317.775,385.65 300.45,393.6 290.4,398.25 284.175,402.3 274.875,408.3 267.675,413.925 261.15,419.025 253.2,426.3 246.375,432.45 243.975,439.5 241.05,447.975 246.15,454.05 247.725,456 253.125,458.775 258.525,461.55 258.15,460.275 M287.7,199.8 Q302.175,188.925 323.4,189.6 344.1,190.275 358.2,201.3 365.55,207.075 370.575,211.95 M65.7,243.3 Q71.175,243.15 79.05,244.275 83.55,244.95 92.4,246.375 98.775,247.2 107.7,248.025 112.8,248.475 123,249.3 129.6,249.825 138,251.925 139.65,252.3 142.875,252.525 145.05,252.6 146.25,253.425 149.1,255.375 155.7,269.25 162.6,283.8 166.2,294.6 169.275,303.9 173.325,321.075 175.125,328.65 179.25,339.075 184.5,352.35 185.925,356.775 186.375,358.125 188.4,366.975 190.5,375.525 191.7,376.8 193.725,379.05 193.35,380.025 193.35,380.175 196.35,380.775 201.225,381.75 207.3,387.075 213.375,392.25 216.9,398.55 220.875,405.375 219.6,409.95 218.1,415.275 209.7,416.025 205.575,418.125 198.525,416.55 190.65,414.225 187.125,413.775 179.85,412.8 170.4,414.675 164.325,415.65 161.475,416.25 156.75,417.3 153,419.4 150.225,421.05 146.625,423.825 144.6,425.4 140.625,428.625 138.525,425.55 141.075,418.875 144.525,411.675 145.575,409.35 146.4,407.475 149.175,404.85 151.875,402.15 152.55,400.65 153.825,397.95 152.1,390.075 151.425,386.925 149.25,379.35 147.675,373.5 143.775,366.75 141.45,362.775 136.2,355.125 M151.2,397.275 Q150.675,397.65 142.725,401.1 136.425,403.8 134.625,406.575 131.625,411.375 131.1,415.65 130.275,422.775 133.65,436.275 134.025,437.775 134.475,439.2 135.45,442.275 136.8,445.2 138.375,448.725 140.55,452.025 141.9,454.125 151.2,465.75 M136.2,355.125 Q134.925,353.175 130.275,347.325 126.6,342.525 124.65,339.225 123.3,336.45 122.475,334.95 121.05,332.1 119.7,331.275 118.125,330.3 114.3,330.225 110.1,330.375 108.675,330.3 104.175,330.075 97.425,330.525 86.85,331.275 86.175,331.275 68.55,332.1 57.15,330.375 54.225,330 46.95,327.225 40.575,324.75 36.675,324.75 M166.65,465.3 Q163.2,465 159.6,461.325 156.6,458.25 154.65,454.275 152.475,449.7 151.575,445.35 151.575,445.275 151.575,445.2 150.825,441.825 151.05,439.2 151.125,437.625 151.575,436.35 154.05,428.775 161.25,424.05 165.225,421.425 175.65,417.3" test="LeftBum"/>
      <path id="Layer1_0_2_STROKES" stroke="#0FF" stroke-width="3" stroke-linejoin="round" stroke-linecap="round" fill="none" d="M177.15,150 L182.925,153.6 Q189.975,158.175 196.125,163.65 215.925,181.05 219.825,199.8 223.05,214.8 230.475,248.325 235.875,278.775 233.7,303.3 230.625,336.825 228.9,346.275 226.2,361.2 219.825,369.75 L208.2,385.8 M136.2,355.125 L133.65,392.25 151.2,397.275 M58.2,196.275 Q69.9,193.2 98.175,183.15 123.225,174.3 138.15,171.075 145.875,169.425 152.25,166.2 157.2,163.65 164.85,158.325 171,154.05 177.15,150" test="LeftBum"/>
    </g>
  </g>
</svg>