<?xml version="1.0" encoding="utf-8"?>
<svg id="EdithAnim08" image-rendering="inherit" baseProfile="basic" version="1.1" x="0px" y="0px" width="800" height="600" xmlns="http://www.w3.org/2000/svg" xmlns:xlink="http://www.w3.org/1999/xlink">
  <g id="No-Rear-To-Rearf271r1" overflow="visible">
    <g id="RightBum">
      <path id="Layer2_0_1_STROKES" stroke="#F0F" stroke-width="3" stroke-linejoin="round" stroke-linecap="round" fill="none" d="M656.075,168.075 L664.325,200.475 Q672.2,236.1 670.325,252.525 668.15,271.5 664.025,292.875 660.2,312.825 656.075,327.525 653.45,336.9 650.75,346.875 650.225,348.225 649.775,348.825 L674.3,342.75 M717.575,193.275 L636.2,156.975 M717.575,327.525 L746.075,323.775 M642.8,333.75 L643.55,336.825 Q645.2,342.825 647.075,347.1 648.5,350.325 649.775,348.825" test="RightBum"/>
      <path id="Layer2_0_2_STROKES" stroke="#F90" stroke-width="3" stroke-linejoin="round" stroke-linecap="round" fill="none" d="M674.3,342.75 L676.625,329.25 Q677.525,324 678.275,310.95 679.025,296.475 680,289.35 683.375,262.875 696.125,253.275 703.25,247.875 710.225,245.4 715.775,243.375 721.25,243.225 726.125,243.15 732.125,245.25 M636.2,156.975 Q551.375,119.025 531.575,111.225 519.125,106.35 508.475,103.95 497.3,101.475 488.225,101.775 469.175,102.45 454.625,115.275 438.95,128.925 431.375,146.925 423.35,166.125 427.25,184.275 430.55,199.875 442.175,209.625 448.025,214.5 453.275,216.525 470.225,205.875 487.1,205.275 M674.3,342.75 L666.65,387.225 Q667.175,388.05 666.575,387.6 L664.625,398.775 Q659.975,400.125 654.65,402.975 643.85,408.675 640.1,416.025 636.725,422.625 636.275,428.625 635.975,432.45 636.875,436.05 639.65,447.525 654.575,450.225 668.45,452.775 678.275,446.025 683.525,442.35 689.075,435.75 693.5,431.025 695.9,429.45 696.725,428.925 697.625,428.625 699.8,427.95 702.35,428.625 704.15,429.075 706.1,430.275 712.55,434.025 714.125,433.425 714.425,433.35 717.575,428.775 719.975,425.4 716.6,420.225 714.125,416.4 710.225,413.7 709.925,413.475 709.625,413.25 704.975,411.375 703.1,410.025 699.875,407.625 699.575,400.725 699.275,393.9 708.425,353.625 L717.575,314.775 720.875,314.925 Q726.125,315.075 736.1,314.775 M651.35,336.825 L644.525,333 Q643.625,333.375 642.8,333.75 638,335.775 635.6,336.825 640.4,351.375 656.825,374.025 660.575,379.2 665.6,385.8 666.275,386.7 666.65,387.225 L666.575,387.6 Q666.2,387.375 665.6,386.775 M635.6,336.825 Q629.525,339.6 626.75,342 623.3,344.925 622.625,348.9 621.275,356.4 629.6,368.325 639.95,383.1 662.075,398.775 M642.8,333.75 L642.275,331.725 644.525,333 Q645.95,332.4 647.6,331.725 M453.275,216.525 Q449.15,219.075 445.025,222.225 431.225,232.95 424.7,242.25 420.725,247.95 419.45,253.125 415.925,266.775 416.45,278.775 416.975,290.775 420.275,305.55 422.225,310.275 424.7,315.075 425.45,316.575 426.275,318.075 437.225,338.4 452.525,352.725 468.875,368.025 490.475,373.575 500.375,376.05 508.475,376.2 513.95,376.275 518.6,375.225 518,375.9 556.475,405.375 571.7,417.075 587,428.625 591.05,431.7 595.1,434.775 L586.1,448.275 M560.6,410.25 L550.1,421.725" test="RightBum"/>
    </g>
    <g id="LeftBum">
      <path id="Layer1_0_1_STROKES" stroke="#FEB7AE" stroke-width="3" stroke-linejoin="round" stroke-linecap="round" fill="none" d="M177.65,150 Q199.175,136.05 221.675,125.025 244.025,114.15 265.1,107.175 292.325,98.175 310.55,98.25 333.5,98.325 350.075,103.95 369.575,110.625 384.65,126.3 391.85,133.725 393.65,149.85 395,161.625 393.35,175.8 392.075,186.525 384.95,195.675 380.75,201 371.075,211.95 372.575,213.45 373.925,214.875 380.525,221.925 385.7,231.3 389.225,237.675 391.1,245.775 392.75,252.9 393.2,261.375 393.875,274.575 391.55,287.7 391.025,290.475 390.35,293.25 381.35,332.775 358.7,356.25 341.3,374.25 318.575,385.5 318.275,385.65 300.95,393.6 290.9,398.25 284.675,402.3 275.375,408.3 268.175,413.925 261.65,419.025 253.7,426.3 246.875,432.45 244.475,439.5 241.55,447.975 246.65,454.05 248.225,456 253.625,458.775 259.025,461.55 258.65,460.275 M288.2,199.8 Q302.675,188.925 323.9,189.6 344.6,190.275 358.7,201.3 366.05,207.075 371.075,211.95 M66.2,243.3 Q71.675,243.15 79.55,244.275 84.05,244.95 92.9,246.375 99.275,247.2 108.2,248.025 113.3,248.475 123.5,249.3 130.1,249.825 138.5,251.925 140.15,252.3 143.375,252.525 145.55,252.6 146.75,253.425 149.6,255.375 156.2,269.25 163.1,283.8 166.7,294.6 169.775,303.9 173.825,321.075 175.625,328.65 179.75,339.075 185,352.35 186.425,356.775 186.875,358.125 188.9,366.975 191,375.525 192.2,376.8 194.225,379.05 193.85,380.025 193.85,380.175 196.85,380.775 201.725,381.75 207.8,387.075 213.875,392.25 217.4,398.55 221.375,405.375 220.1,409.95 218.6,415.275 210.2,416.025 206.075,418.125 199.025,416.55 191.15,414.225 187.625,413.775 180.35,412.8 170.9,414.675 164.825,415.65 161.975,416.25 157.25,417.3 153.5,419.4 150.725,421.05 147.125,423.825 145.1,425.4 141.125,428.625 139.025,425.55 141.575,418.875 145.025,411.675 146.075,409.35 146.9,407.475 149.675,404.85 152.375,402.15 153.05,400.65 154.325,397.95 152.6,390.075 151.925,386.925 149.75,379.35 148.175,373.5 144.275,366.75 141.95,362.775 136.7,355.125 M151.7,397.275 Q151.175,397.65 143.225,401.1 136.925,403.8 135.125,406.575 132.125,411.375 131.6,415.65 130.775,422.775 134.15,436.275 134.525,437.775 134.975,439.2 135.95,442.275 137.3,445.2 138.875,448.725 141.05,452.025 142.4,454.125 151.7,465.75 M136.7,355.125 Q135.425,353.175 130.775,347.325 127.1,342.525 125.15,339.225 123.8,336.45 122.975,334.95 121.55,332.1 120.2,331.275 118.625,330.3 114.8,330.225 110.6,330.375 109.175,330.3 104.675,330.075 97.925,330.525 87.35,331.275 86.675,331.275 69.05,332.1 57.65,330.375 54.725,330 47.45,327.225 41.075,324.75 37.175,324.75 M167.15,465.3 Q163.7,465 160.1,461.325 157.1,458.25 155.15,454.275 152.975,449.7 152.075,445.35 152.075,445.275 152.075,445.2 151.325,441.825 151.55,439.2 151.625,437.625 152.075,436.35 154.55,428.775 161.75,424.05 165.725,421.425 176.15,417.3" test="LeftBum"/>
      <path id="Layer1_0_2_STROKES" stroke="#0FF" stroke-width="3" stroke-linejoin="round" stroke-linecap="round" fill="none" d="M177.65,150 L183.425,153.6 Q190.475,158.175 196.625,163.65 216.425,181.05 220.325,199.8 223.55,214.8 230.975,248.325 236.375,278.775 234.2,303.3 231.125,336.825 229.4,346.275 226.7,361.2 220.325,369.75 L208.7,385.8 M136.7,355.125 L134.15,392.25 151.7,397.275 M58.7,196.275 Q70.4,193.2 98.675,183.15 123.725,174.3 138.65,171.075 146.375,169.425 152.75,166.2 157.7,163.65 165.35,158.325 171.5,154.05 177.65,150" test="LeftBum"/>
    </g>
  </g>
</svg>