<?xml version="1.0" encoding="utf-8"?>
<svg id="EdithAnim08" image-rendering="inherit" baseProfile="basic" version="1.1" x="0px" y="0px" width="800" height="600" xmlns="http://www.w3.org/2000/svg" xmlns:xlink="http://www.w3.org/1999/xlink">
  <g id="No-Rear-To-Rearf273r1" overflow="visible">
    <g id="RightBum">
      <path id="Layer2_0_1_STROKES" stroke="#F0F" stroke-width="3" stroke-linejoin="round" stroke-linecap="round" fill="none" d="M655.075,168.075 L663.325,200.475 Q671.2,236.1 669.325,252.525 667.15,271.5 663.025,292.875 659.2,312.825 655.075,327.525 652.45,336.9 649.75,346.875 649.225,348.225 648.775,348.825 L673.3,342.75 M716.575,193.275 L635.2,156.975 M716.575,327.525 L745.075,323.775 M641.8,333.75 L642.55,336.825 Q644.2,342.825 646.075,347.1 647.5,350.325 648.775,348.825" test="RightBum"/>
      <path id="Layer2_0_2_STROKES" stroke="#F90" stroke-width="3" stroke-linejoin="round" stroke-linecap="round" fill="none" d="M673.3,342.75 L675.625,329.25 Q676.525,324 677.275,310.95 678.025,296.475 679,289.35 682.375,262.875 695.125,253.275 702.25,247.875 709.225,245.4 714.775,243.375 720.25,243.225 725.125,243.15 731.125,245.25 M635.2,156.975 Q550.375,119.025 530.575,111.225 518.125,106.35 507.475,103.95 496.3,101.475 487.225,101.775 468.175,102.45 453.625,115.275 437.95,128.925 430.375,146.925 422.35,166.125 426.25,184.275 429.55,199.875 441.175,209.625 447.025,214.5 452.275,216.525 469.225,205.875 486.1,205.275 M673.3,342.75 L665.65,387.225 Q666.175,388.05 665.575,387.6 L663.625,398.775 Q658.975,400.125 653.65,402.975 642.85,408.675 639.1,416.025 635.725,422.625 635.275,428.625 634.975,432.45 635.875,436.05 638.65,447.525 653.575,450.225 667.45,452.775 677.275,446.025 682.525,442.35 688.075,435.75 692.5,431.025 694.9,429.45 695.725,428.925 696.625,428.625 698.8,427.95 701.35,428.625 703.15,429.075 705.1,430.275 711.55,434.025 713.125,433.425 713.425,433.35 716.575,428.775 718.975,425.4 715.6,420.225 713.125,416.4 709.225,413.7 708.925,413.475 708.625,413.25 703.975,411.375 702.1,410.025 698.875,407.625 698.575,400.725 698.275,393.9 707.425,353.625 L716.575,314.775 719.875,314.925 Q725.125,315.075 735.1,314.775 M650.35,336.825 L643.525,333 Q642.625,333.375 641.8,333.75 637,335.775 634.6,336.825 639.4,351.375 655.825,374.025 659.575,379.2 664.6,385.8 665.275,386.7 665.65,387.225 L665.575,387.6 Q665.2,387.375 664.6,386.775 M634.6,336.825 Q628.525,339.6 625.75,342 622.3,344.925 621.625,348.9 620.275,356.4 628.6,368.325 638.95,383.1 661.075,398.775 M641.8,333.75 L641.275,331.725 643.525,333 Q644.95,332.4 646.6,331.725 M452.275,216.525 Q448.15,219.075 444.025,222.225 430.225,232.95 423.7,242.25 419.725,247.95 418.45,253.125 414.925,266.775 415.45,278.775 415.975,290.775 419.275,305.55 421.225,310.275 423.7,315.075 424.45,316.575 425.275,318.075 436.225,338.4 451.525,352.725 467.875,368.025 489.475,373.575 499.375,376.05 507.475,376.2 512.95,376.275 517.6,375.225 517,375.9 555.475,405.375 570.7,417.075 586,428.625 590.05,431.7 594.1,434.775 L585.1,448.275 M559.6,410.25 L549.1,421.725" test="RightBum"/>
    </g>
    <g id="LeftBum">
      <path id="Layer1_0_1_STROKES" stroke="#FEB7AE" stroke-width="3" stroke-linejoin="round" stroke-linecap="round" fill="none" d="M178.65,150 Q200.175,136.05 222.675,125.025 245.025,114.15 266.1,107.175 293.325,98.175 311.55,98.25 334.5,98.325 351.075,103.95 370.575,110.625 385.65,126.3 392.85,133.725 394.65,149.85 396,161.625 394.35,175.8 393.075,186.525 385.95,195.675 381.75,201 372.075,211.95 373.575,213.45 374.925,214.875 381.525,221.925 386.7,231.3 390.225,237.675 392.1,245.775 393.75,252.9 394.2,261.375 394.875,274.575 392.55,287.7 392.025,290.475 391.35,293.25 382.35,332.775 359.7,356.25 342.3,374.25 319.575,385.5 319.275,385.65 301.95,393.6 291.9,398.25 285.675,402.3 276.375,408.3 269.175,413.925 262.65,419.025 254.7,426.3 247.875,432.45 245.475,439.5 242.55,447.975 247.65,454.05 249.225,456 254.625,458.775 260.025,461.55 259.65,460.275 M289.2,199.8 Q303.675,188.925 324.9,189.6 345.6,190.275 359.7,201.3 367.05,207.075 372.075,211.95 M67.2,243.3 Q72.675,243.15 80.55,244.275 85.05,244.95 93.9,246.375 100.275,247.2 109.2,248.025 114.3,248.475 124.5,249.3 131.1,249.825 139.5,251.925 141.15,252.3 144.375,252.525 146.55,252.6 147.75,253.425 150.6,255.375 157.2,269.25 164.1,283.8 167.7,294.6 170.775,303.9 174.825,321.075 176.625,328.65 180.75,339.075 186,352.35 187.425,356.775 187.875,358.125 189.9,366.975 192,375.525 193.2,376.8 195.225,379.05 194.85,380.025 194.85,380.175 197.85,380.775 202.725,381.75 208.8,387.075 214.875,392.25 218.4,398.55 222.375,405.375 221.1,409.95 219.6,415.275 211.2,416.025 207.075,418.125 200.025,416.55 192.15,414.225 188.625,413.775 181.35,412.8 171.9,414.675 165.825,415.65 162.975,416.25 158.25,417.3 154.5,419.4 151.725,421.05 148.125,423.825 146.1,425.4 142.125,428.625 140.025,425.55 142.575,418.875 146.025,411.675 147.075,409.35 147.9,407.475 150.675,404.85 153.375,402.15 154.05,400.65 155.325,397.95 153.6,390.075 152.925,386.925 150.75,379.35 149.175,373.5 145.275,366.75 142.95,362.775 137.7,355.125 M152.7,397.275 Q152.175,397.65 144.225,401.1 137.925,403.8 136.125,406.575 133.125,411.375 132.6,415.65 131.775,422.775 135.15,436.275 135.525,437.775 135.975,439.2 136.95,442.275 138.3,445.2 139.875,448.725 142.05,452.025 143.4,454.125 152.7,465.75 M137.7,355.125 Q136.425,353.175 131.775,347.325 128.1,342.525 126.15,339.225 124.8,336.45 123.975,334.95 122.55,332.1 121.2,331.275 119.625,330.3 115.8,330.225 111.6,330.375 110.175,330.3 105.675,330.075 98.925,330.525 88.35,331.275 87.675,331.275 70.05,332.1 58.65,330.375 55.725,330 48.45,327.225 42.075,324.75 38.175,324.75 M168.15,465.3 Q164.7,465 161.1,461.325 158.1,458.25 156.15,454.275 153.975,449.7 153.075,445.35 153.075,445.275 153.075,445.2 152.325,441.825 152.55,439.2 152.625,437.625 153.075,436.35 155.55,428.775 162.75,424.05 166.725,421.425 177.15,417.3" test="LeftBum"/>
      <path id="Layer1_0_2_STROKES" stroke="#0FF" stroke-width="3" stroke-linejoin="round" stroke-linecap="round" fill="none" d="M178.65,150 L184.425,153.6 Q191.475,158.175 197.625,163.65 217.425,181.05 221.325,199.8 224.55,214.8 231.975,248.325 237.375,278.775 235.2,303.3 232.125,336.825 230.4,346.275 227.7,361.2 221.325,369.75 L209.7,385.8 M137.7,355.125 L135.15,392.25 152.7,397.275 M59.7,196.275 Q71.4,193.2 99.675,183.15 124.725,174.3 139.65,171.075 147.375,169.425 153.75,166.2 158.7,163.65 166.35,158.325 172.5,154.05 178.65,150" test="LeftBum"/>
    </g>
  </g>
</svg>