<?xml version="1.0" encoding="utf-8"?>
<svg id="EdithAnim08" image-rendering="inherit" baseProfile="basic" version="1.1" x="0px" y="0px" width="800" height="600" xmlns="http://www.w3.org/2000/svg" xmlns:xlink="http://www.w3.org/1999/xlink">
  <g id="No-Rear-To-Rearf274r1" overflow="visible">
    <g id="RightBum">
      <path id="Layer2_0_1_STROKES" stroke="#F0F" stroke-width="3" stroke-linejoin="round" stroke-linecap="round" fill="none" d="M654.575,168.075 L662.825,200.475 Q670.7,236.1 668.825,252.525 666.65,271.5 662.525,292.875 658.7,312.825 654.575,327.525 651.95,336.9 649.25,346.875 648.725,348.225 648.275,348.825 L672.8,342.75 M716.075,193.275 L634.7,156.975 M716.075,327.525 L744.575,323.775 M641.3,333.75 L642.05,336.825 Q643.7,342.825 645.575,347.1 647,350.325 648.275,348.825" test="RightBum"/>
      <path id="Layer2_0_2_STROKES" stroke="#F90" stroke-width="3" stroke-linejoin="round" stroke-linecap="round" fill="none" d="M672.8,342.75 L675.125,329.25 Q676.025,324 676.775,310.95 677.525,296.475 678.5,289.35 681.875,262.875 694.625,253.275 701.75,247.875 708.725,245.4 714.275,243.375 719.75,243.225 724.625,243.15 730.625,245.25 M634.7,156.975 Q549.875,119.025 530.075,111.225 517.625,106.35 506.975,103.95 495.8,101.475 486.725,101.775 467.675,102.45 453.125,115.275 437.45,128.925 429.875,146.925 421.85,166.125 425.75,184.275 429.05,199.875 440.675,209.625 446.525,214.5 451.775,216.525 468.725,205.875 485.6,205.275 M672.8,342.75 L665.15,387.225 Q665.675,388.05 665.075,387.6 L663.125,398.775 Q658.475,400.125 653.15,402.975 642.35,408.675 638.6,416.025 635.225,422.625 634.775,428.625 634.475,432.45 635.375,436.05 638.15,447.525 653.075,450.225 666.95,452.775 676.775,446.025 682.025,442.35 687.575,435.75 692,431.025 694.4,429.45 695.225,428.925 696.125,428.625 698.3,427.95 700.85,428.625 702.65,429.075 704.6,430.275 711.05,434.025 712.625,433.425 712.925,433.35 716.075,428.775 718.475,425.4 715.1,420.225 712.625,416.4 708.725,413.7 708.425,413.475 708.125,413.25 703.475,411.375 701.6,410.025 698.375,407.625 698.075,400.725 697.775,393.9 706.925,353.625 L716.075,314.775 719.375,314.925 Q724.625,315.075 734.6,314.775 M649.85,336.825 L643.025,333 Q642.125,333.375 641.3,333.75 636.5,335.775 634.1,336.825 638.9,351.375 655.325,374.025 659.075,379.2 664.1,385.8 664.775,386.7 665.15,387.225 L665.075,387.6 Q664.7,387.375 664.1,386.775 M634.1,336.825 Q628.025,339.6 625.25,342 621.8,344.925 621.125,348.9 619.775,356.4 628.1,368.325 638.45,383.1 660.575,398.775 M641.3,333.75 L640.775,331.725 643.025,333 Q644.45,332.4 646.1,331.725 M451.775,216.525 Q447.65,219.075 443.525,222.225 429.725,232.95 423.2,242.25 419.225,247.95 417.95,253.125 414.425,266.775 414.95,278.775 415.475,290.775 418.775,305.55 420.725,310.275 423.2,315.075 423.95,316.575 424.775,318.075 435.725,338.4 451.025,352.725 467.375,368.025 488.975,373.575 498.875,376.05 506.975,376.2 512.45,376.275 517.1,375.225 516.5,375.9 554.975,405.375 570.2,417.075 585.5,428.625 589.55,431.7 593.6,434.775 L584.6,448.275 M559.1,410.25 L548.6,421.725" test="RightBum"/>
    </g>
    <g id="LeftBum">
      <path id="Layer1_0_1_STROKES" stroke="#FEB7AE" stroke-width="3" stroke-linejoin="round" stroke-linecap="round" fill="none" d="M179.15,150 Q200.675,136.05 223.175,125.025 245.525,114.15 266.6,107.175 293.825,98.175 312.05,98.25 335,98.325 351.575,103.95 371.075,110.625 386.15,126.3 393.35,133.725 395.15,149.85 396.5,161.625 394.85,175.8 393.575,186.525 386.45,195.675 382.25,201 372.575,211.95 374.075,213.45 375.425,214.875 382.025,221.925 387.2,231.3 390.725,237.675 392.6,245.775 394.25,252.9 394.7,261.375 395.375,274.575 393.05,287.7 392.525,290.475 391.85,293.25 382.85,332.775 360.2,356.25 342.8,374.25 320.075,385.5 319.775,385.65 302.45,393.6 292.4,398.25 286.175,402.3 276.875,408.3 269.675,413.925 263.15,419.025 255.2,426.3 248.375,432.45 245.975,439.5 243.05,447.975 248.15,454.05 249.725,456 255.125,458.775 260.525,461.55 260.15,460.275 M289.7,199.8 Q304.175,188.925 325.4,189.6 346.1,190.275 360.2,201.3 367.55,207.075 372.575,211.95 M67.7,243.3 Q73.175,243.15 81.05,244.275 85.55,244.95 94.4,246.375 100.775,247.2 109.7,248.025 114.8,248.475 125,249.3 131.6,249.825 140,251.925 141.65,252.3 144.875,252.525 147.05,252.6 148.25,253.425 151.1,255.375 157.7,269.25 164.6,283.8 168.2,294.6 171.275,303.9 175.325,321.075 177.125,328.65 181.25,339.075 186.5,352.35 187.925,356.775 188.375,358.125 190.4,366.975 192.5,375.525 193.7,376.8 195.725,379.05 195.35,380.025 195.35,380.175 198.35,380.775 203.225,381.75 209.3,387.075 215.375,392.25 218.9,398.55 222.875,405.375 221.6,409.95 220.1,415.275 211.7,416.025 207.575,418.125 200.525,416.55 192.65,414.225 189.125,413.775 181.85,412.8 172.4,414.675 166.325,415.65 163.475,416.25 158.75,417.3 155,419.4 152.225,421.05 148.625,423.825 146.6,425.4 142.625,428.625 140.525,425.55 143.075,418.875 146.525,411.675 147.575,409.35 148.4,407.475 151.175,404.85 153.875,402.15 154.55,400.65 155.825,397.95 154.1,390.075 153.425,386.925 151.25,379.35 149.675,373.5 145.775,366.75 143.45,362.775 138.2,355.125 M153.2,397.275 Q152.675,397.65 144.725,401.1 138.425,403.8 136.625,406.575 133.625,411.375 133.1,415.65 132.275,422.775 135.65,436.275 136.025,437.775 136.475,439.2 137.45,442.275 138.8,445.2 140.375,448.725 142.55,452.025 143.9,454.125 153.2,465.75 M138.2,355.125 Q136.925,353.175 132.275,347.325 128.6,342.525 126.65,339.225 125.3,336.45 124.475,334.95 123.05,332.1 121.7,331.275 120.125,330.3 116.3,330.225 112.1,330.375 110.675,330.3 106.175,330.075 99.425,330.525 88.85,331.275 88.175,331.275 70.55,332.1 59.15,330.375 56.225,330 48.95,327.225 42.575,324.75 38.675,324.75 M168.65,465.3 Q165.2,465 161.6,461.325 158.6,458.25 156.65,454.275 154.475,449.7 153.575,445.35 153.575,445.275 153.575,445.2 152.825,441.825 153.05,439.2 153.125,437.625 153.575,436.35 156.05,428.775 163.25,424.05 167.225,421.425 177.65,417.3" test="LeftBum"/>
      <path id="Layer1_0_2_STROKES" stroke="#0FF" stroke-width="3" stroke-linejoin="round" stroke-linecap="round" fill="none" d="M179.15,150 L184.925,153.6 Q191.975,158.175 198.125,163.65 217.925,181.05 221.825,199.8 225.05,214.8 232.475,248.325 237.875,278.775 235.7,303.3 232.625,336.825 230.9,346.275 228.2,361.2 221.825,369.75 L210.2,385.8 M138.2,355.125 L135.65,392.25 153.2,397.275 M60.2,196.275 Q71.9,193.2 100.175,183.15 125.225,174.3 140.15,171.075 147.875,169.425 154.25,166.2 159.2,163.65 166.85,158.325 173,154.05 179.15,150" test="LeftBum"/>
    </g>
  </g>
</svg>