<?xml version="1.0" encoding="utf-8"?>
<svg id="EdithAnim08" image-rendering="inherit" baseProfile="basic" version="1.1" x="0px" y="0px" width="800" height="600" xmlns="http://www.w3.org/2000/svg" xmlns:xlink="http://www.w3.org/1999/xlink">
  <g id="No-Rear-To-Rearf277r1" overflow="visible">
    <g id="RightBum">
      <path id="Layer2_0_1_STROKES" stroke="#F0F" stroke-width="3" stroke-linejoin="round" stroke-linecap="round" fill="none" d="M653.175,168.075 L661.425,200.475 Q669.3,236.1 667.425,252.525 665.25,271.5 661.125,292.875 657.3,312.825 653.175,327.525 650.55,336.9 647.85,346.875 647.325,348.225 646.875,348.825 L671.4,342.75 M714.675,193.275 L633.3,156.975 M714.675,327.525 L743.175,323.775 M639.9,333.75 L640.65,336.825 Q642.3,342.825 644.175,347.1 645.6,350.325 646.875,348.825" test="RightBum"/>
      <path id="Layer2_0_2_STROKES" stroke="#F90" stroke-width="3" stroke-linejoin="round" stroke-linecap="round" fill="none" d="M671.4,342.75 L673.725,329.25 Q674.625,324 675.375,310.95 676.125,296.475 677.1,289.35 680.475,262.875 693.225,253.275 700.35,247.875 707.325,245.4 712.875,243.375 718.35,243.225 723.225,243.15 729.225,245.25 M633.3,156.975 Q548.475,119.025 528.675,111.225 516.225,106.35 505.575,103.95 494.4,101.475 485.325,101.775 466.275,102.45 451.725,115.275 436.05,128.925 428.475,146.925 420.45,166.125 424.35,184.275 427.65,199.875 439.275,209.625 445.125,214.5 450.375,216.525 467.325,205.875 484.2,205.275 M671.4,342.75 L663.75,387.225 Q664.275,388.05 663.675,387.6 L661.725,398.775 Q657.075,400.125 651.75,402.975 640.95,408.675 637.2,416.025 633.825,422.625 633.375,428.625 633.075,432.45 633.975,436.05 636.75,447.525 651.675,450.225 665.55,452.775 675.375,446.025 680.625,442.35 686.175,435.75 690.6,431.025 693,429.45 693.825,428.925 694.725,428.625 696.9,427.95 699.45,428.625 701.25,429.075 703.2,430.275 709.65,434.025 711.225,433.425 711.525,433.35 714.675,428.775 717.075,425.4 713.7,420.225 711.225,416.4 707.325,413.7 707.025,413.475 706.725,413.25 702.075,411.375 700.2,410.025 696.975,407.625 696.675,400.725 696.375,393.9 705.525,353.625 L714.675,314.775 717.975,314.925 Q723.225,315.075 733.2,314.775 M648.45,336.825 L641.625,333 Q640.725,333.375 639.9,333.75 635.1,335.775 632.7,336.825 637.5,351.375 653.925,374.025 657.675,379.2 662.7,385.8 663.375,386.7 663.75,387.225 L663.675,387.6 Q663.3,387.375 662.7,386.775 M632.7,336.825 Q626.625,339.6 623.85,342 620.4,344.925 619.725,348.9 618.375,356.4 626.7,368.325 637.05,383.1 659.175,398.775 M639.9,333.75 L639.375,331.725 641.625,333 Q643.05,332.4 644.7,331.725 M450.375,216.525 Q446.25,219.075 442.125,222.225 428.325,232.95 421.8,242.25 417.825,247.95 416.55,253.125 413.025,266.775 413.55,278.775 414.075,290.775 417.375,305.55 419.325,310.275 421.8,315.075 422.55,316.575 423.375,318.075 434.325,338.4 449.625,352.725 465.975,368.025 487.575,373.575 497.475,376.05 505.575,376.2 511.05,376.275 515.7,375.225 515.1,375.9 553.575,405.375 568.8,417.075 584.1,428.625 588.15,431.7 592.2,434.775 L583.2,448.275 M557.7,410.25 L547.2,421.725" test="RightBum"/>
    </g>
    <g id="LeftBum">
      <path id="Layer1_0_1_STROKES" stroke="#FEB7AE" stroke-width="3" stroke-linejoin="round" stroke-linecap="round" fill="none" d="M180.6,150 Q202.125,136.05 224.625,125.025 246.975,114.15 268.05,107.175 295.275,98.175 313.5,98.25 336.45,98.325 353.025,103.95 372.525,110.625 387.6,126.3 394.8,133.725 396.6,149.85 397.95,161.625 396.3,175.8 395.025,186.525 387.9,195.675 383.7,201 374.025,211.95 375.525,213.45 376.875,214.875 383.475,221.925 388.65,231.3 392.175,237.675 394.05,245.775 395.7,252.9 396.15,261.375 396.825,274.575 394.5,287.7 393.975,290.475 393.3,293.25 384.3,332.775 361.65,356.25 344.25,374.25 321.525,385.5 321.225,385.65 303.9,393.6 293.85,398.25 287.625,402.3 278.325,408.3 271.125,413.925 264.6,419.025 256.65,426.3 249.825,432.45 247.425,439.5 244.5,447.975 249.6,454.05 251.175,456 256.575,458.775 261.975,461.55 261.6,460.275 M291.15,199.8 Q305.625,188.925 326.85,189.6 347.55,190.275 361.65,201.3 369,207.075 374.025,211.95 M69.15,243.3 Q74.625,243.15 82.5,244.275 87,244.95 95.85,246.375 102.225,247.2 111.15,248.025 116.25,248.475 126.45,249.3 133.05,249.825 141.45,251.925 143.1,252.3 146.325,252.525 148.5,252.6 149.7,253.425 152.55,255.375 159.15,269.25 166.05,283.8 169.65,294.6 172.725,303.9 176.775,321.075 178.575,328.65 182.7,339.075 187.95,352.35 189.375,356.775 189.825,358.125 191.85,366.975 193.95,375.525 195.15,376.8 197.175,379.05 196.8,380.025 196.8,380.175 199.8,380.775 204.675,381.75 210.75,387.075 216.825,392.25 220.35,398.55 224.325,405.375 223.05,409.95 221.55,415.275 213.15,416.025 209.025,418.125 201.975,416.55 194.1,414.225 190.575,413.775 183.3,412.8 173.85,414.675 167.775,415.65 164.925,416.25 160.2,417.3 156.45,419.4 153.675,421.05 150.075,423.825 148.05,425.4 144.075,428.625 141.975,425.55 144.525,418.875 147.975,411.675 149.025,409.35 149.85,407.475 152.625,404.85 155.325,402.15 156,400.65 157.275,397.95 155.55,390.075 154.875,386.925 152.7,379.35 151.125,373.5 147.225,366.75 144.9,362.775 139.65,355.125 M154.65,397.275 Q154.125,397.65 146.175,401.1 139.875,403.8 138.075,406.575 135.075,411.375 134.55,415.65 133.725,422.775 137.1,436.275 137.475,437.775 137.925,439.2 138.9,442.275 140.25,445.2 141.825,448.725 144,452.025 145.35,454.125 154.65,465.75 M139.65,355.125 Q138.375,353.175 133.725,347.325 130.05,342.525 128.1,339.225 126.75,336.45 125.925,334.95 124.5,332.1 123.15,331.275 121.575,330.3 117.75,330.225 113.55,330.375 112.125,330.3 107.625,330.075 100.875,330.525 90.3,331.275 89.625,331.275 72,332.1 60.6,330.375 57.675,330 50.4,327.225 44.025,324.75 40.125,324.75 M170.1,465.3 Q166.65,465 163.05,461.325 160.05,458.25 158.1,454.275 155.925,449.7 155.025,445.35 155.025,445.275 155.025,445.2 154.275,441.825 154.5,439.2 154.575,437.625 155.025,436.35 157.5,428.775 164.7,424.05 168.675,421.425 179.1,417.3" test="LeftBum"/>
      <path id="Layer1_0_2_STROKES" stroke="#0FF" stroke-width="3" stroke-linejoin="round" stroke-linecap="round" fill="none" d="M180.6,150 L186.375,153.6 Q193.425,158.175 199.575,163.65 219.375,181.05 223.275,199.8 226.5,214.8 233.925,248.325 239.325,278.775 237.15,303.3 234.075,336.825 232.35,346.275 229.65,361.2 223.275,369.75 L211.65,385.8 M139.65,355.125 L137.1,392.25 154.65,397.275 M61.65,196.275 Q73.35,193.2 101.625,183.15 126.675,174.3 141.6,171.075 149.325,169.425 155.7,166.2 160.65,163.65 168.3,158.325 174.45,154.05 180.6,150" test="LeftBum"/>
    </g>
  </g>
</svg>