<?xml version="1.0" encoding="utf-8"?>
<svg id="EdithAnim08" image-rendering="inherit" baseProfile="basic" version="1.1" x="0px" y="0px" width="800" height="600" xmlns="http://www.w3.org/2000/svg" xmlns:xlink="http://www.w3.org/1999/xlink">
  <g id="No-Rear-To-Rearf28r1" overflow="visible">
    <g id="RightBum">
      <path id="Layer2_0_1_STROKES" stroke="#F0F" stroke-width="3" stroke-linejoin="round" stroke-linecap="round" fill="none" d="M985.225,168.075 L993.475,200.475 Q1001.35,236.1 999.475,252.525 997.3,271.5 993.175,292.875 989.35,312.825 985.225,327.525 982.6,336.9 979.9,346.875 979.375,348.225 978.925,348.825 L1003.45,342.75 M1046.725,193.275 L965.35,156.975 M1046.725,327.525 L1075.225,323.775 M971.95,333.75 L972.7,336.825 Q974.35,342.825 976.225,347.1 977.65,350.325 978.925,348.825" test="RightBum"/>
      <path id="Layer2_0_2_STROKES" stroke="#F90" stroke-width="3" stroke-linejoin="round" stroke-linecap="round" fill="none" d="M1003.45,342.75 L1005.775,329.25 Q1006.675,324 1007.425,310.95 1008.175,296.475 1009.15,289.35 1012.525,262.875 1025.275,253.275 1032.4,247.875 1039.375,245.4 1044.925,243.375 1050.4,243.225 1055.275,243.15 1061.275,245.25 M965.35,156.975 Q880.525,119.025 860.725,111.225 848.275,106.35 837.625,103.95 826.45,101.475 817.375,101.775 798.325,102.45 783.775,115.275 768.1,128.925 760.525,146.925 752.5,166.125 756.4,184.275 759.7,199.875 771.325,209.625 777.175,214.5 782.425,216.525 799.375,205.875 816.25,205.275 M1003.45,342.75 L995.8,387.225 Q996.325,388.05 995.725,387.6 L993.775,398.775 Q989.125,400.125 983.8,402.975 973,408.675 969.25,416.025 965.875,422.625 965.425,428.625 965.125,432.45 966.025,436.05 968.8,447.525 983.725,450.225 997.6,452.775 1007.425,446.025 1012.675,442.35 1018.225,435.75 1022.65,431.025 1025.05,429.45 1025.875,428.925 1026.775,428.625 1028.95,427.95 1031.5,428.625 1033.3,429.075 1035.25,430.275 1041.7,434.025 1043.275,433.425 1043.575,433.35 1046.725,428.775 1049.125,425.4 1045.75,420.225 1043.275,416.4 1039.375,413.7 1039.075,413.475 1038.775,413.25 1034.125,411.375 1032.25,410.025 1029.025,407.625 1028.725,400.725 1028.425,393.9 1037.575,353.625 L1046.725,314.775 1050.025,314.925 Q1055.275,315.075 1065.25,314.775 M980.5,336.825 L973.675,333 Q972.775,333.375 971.95,333.75 967.15,335.775 964.75,336.825 969.55,351.375 985.975,374.025 989.725,379.2 994.75,385.8 995.425,386.7 995.8,387.225 L995.725,387.6 Q995.35,387.375 994.75,386.775 M964.75,336.825 Q958.675,339.6 955.9,342 952.45,344.925 951.775,348.9 950.425,356.4 958.75,368.325 969.1,383.1 991.225,398.775 M971.95,333.75 L971.425,331.725 973.675,333 Q975.1,332.4 976.75,331.725 M782.425,216.525 Q778.3,219.075 774.175,222.225 760.375,232.95 753.85,242.25 749.875,247.95 748.6,253.125 745.075,266.775 745.6,278.775 746.125,290.775 749.425,305.55 751.375,310.275 753.85,315.075 754.6,316.575 755.425,318.075 766.375,338.4 781.675,352.725 798.025,368.025 819.625,373.575 829.525,376.05 837.625,376.2 843.1,376.275 847.75,375.225 847.15,375.9 885.625,405.375 900.85,417.075 916.15,428.625 920.2,431.7 924.25,434.775 L915.25,448.275 M889.75,410.25 L879.25,421.725" test="RightBum"/>
    </g>
    <g id="LeftBum">
      <path id="Layer1_0_1_STROKES" stroke="#FEB7AE" stroke-width="3" stroke-linejoin="round" stroke-linecap="round" fill="none" d="M-156.85,150 Q-135.325,136.05 -112.825,125.025 -90.475,114.15 -69.4,107.175 -42.175,98.175 -23.95,98.25 -1,98.325 15.575,103.95 35.075,110.625 50.15,126.3 57.35,133.725 59.15,149.85 60.5,161.625 58.85,175.8 57.575,186.525 50.45,195.675 46.25,201 36.575,211.95 38.075,213.45 39.425,214.875 46.025,221.925 51.2,231.3 54.725,237.675 56.6,245.775 58.25,252.9 58.7,261.375 59.375,274.575 57.05,287.7 56.525,290.475 55.85,293.25 46.85,332.775 24.2,356.25 6.8,374.25 -15.925,385.5 -16.225,385.65 -33.55,393.6 -43.6,398.25 -49.825,402.3 -59.125,408.3 -66.325,413.925 -72.85,419.025 -80.8,426.3 -87.625,432.45 -90.025,439.5 -92.95,447.975 -87.85,454.05 -86.275,456 -80.875,458.775 -75.475,461.55 -75.85,460.275 M-46.3,199.8 Q-31.825,188.925 -10.6,189.6 10.1,190.275 24.2,201.3 31.55,207.075 36.575,211.95 M-268.3,243.3 Q-262.825,243.15 -254.95,244.275 -250.45,244.95 -241.6,246.375 -235.225,247.2 -226.3,248.025 -221.2,248.475 -211,249.3 -204.4,249.825 -196,251.925 -194.35,252.3 -191.125,252.525 -188.95,252.6 -187.75,253.425 -184.9,255.375 -178.3,269.25 -171.4,283.8 -167.8,294.6 -164.725,303.9 -160.675,321.075 -158.875,328.65 -154.75,339.075 -149.5,352.35 -148.075,356.775 -147.625,358.125 -145.6,366.975 -143.5,375.525 -142.3,376.8 -140.275,379.05 -140.65,380.025 -140.65,380.175 -137.65,380.775 -132.775,381.75 -126.7,387.075 -120.625,392.25 -117.1,398.55 -113.125,405.375 -114.4,409.95 -115.9,415.275 -124.3,416.025 -128.425,418.125 -135.475,416.55 -143.35,414.225 -146.875,413.775 -154.15,412.8 -163.6,414.675 -169.675,415.65 -172.525,416.25 -177.25,417.3 -181,419.4 -183.775,421.05 -187.375,423.825 -189.4,425.4 -193.375,428.625 -195.475,425.55 -192.925,418.875 -189.475,411.675 -188.425,409.35 -187.6,407.475 -184.825,404.85 -182.125,402.15 -181.45,400.65 -180.175,397.95 -181.9,390.075 -182.575,386.925 -184.75,379.35 -186.325,373.5 -190.225,366.75 -192.55,362.775 -197.8,355.125 M-182.8,397.275 Q-183.325,397.65 -191.275,401.1 -197.575,403.8 -199.375,406.575 -202.375,411.375 -202.9,415.65 -203.725,422.775 -200.35,436.275 -199.975,437.775 -199.525,439.2 -198.55,442.275 -197.2,445.2 -195.625,448.725 -193.45,452.025 -192.1,454.125 -182.8,465.75 M-197.8,355.125 Q-199.075,353.175 -203.725,347.325 -207.4,342.525 -209.35,339.225 -210.7,336.45 -211.525,334.95 -212.95,332.1 -214.3,331.275 -215.875,330.3 -219.7,330.225 -223.9,330.375 -225.325,330.3 -229.825,330.075 -236.575,330.525 -247.15,331.275 -247.825,331.275 -265.45,332.1 -276.85,330.375 -279.775,330 -287.05,327.225 -293.425,324.75 -297.325,324.75 M-167.35,465.3 Q-170.8,465 -174.4,461.325 -177.4,458.25 -179.35,454.275 -181.525,449.7 -182.425,445.35 -182.425,445.275 -182.425,445.2 -183.175,441.825 -182.95,439.2 -182.875,437.625 -182.425,436.35 -179.95,428.775 -172.75,424.05 -168.775,421.425 -158.35,417.3" test="LeftBum"/>
      <path id="Layer1_0_2_STROKES" stroke="#0FF" stroke-width="3" stroke-linejoin="round" stroke-linecap="round" fill="none" d="M-156.85,150 L-151.075,153.6 Q-144.025,158.175 -137.875,163.65 -118.075,181.05 -114.175,199.8 -110.95,214.8 -103.525,248.325 -98.125,278.775 -100.3,303.3 -103.375,336.825 -105.1,346.275 -107.8,361.2 -114.175,369.75 L-125.8,385.8 M-197.8,355.125 L-200.35,392.25 -182.8,397.275 M-275.8,196.275 Q-264.1,193.2 -235.825,183.15 -210.775,174.3 -195.85,171.075 -188.125,169.425 -181.75,166.2 -176.8,163.65 -169.15,158.325 -163,154.05 -156.85,150" test="LeftBum"/>
    </g>
  </g>
</svg>