<?xml version="1.0" encoding="utf-8"?>
<svg id="EdithAnim08" image-rendering="inherit" baseProfile="basic" version="1.1" x="0px" y="0px" width="800" height="600" xmlns="http://www.w3.org/2000/svg" xmlns:xlink="http://www.w3.org/1999/xlink">
  <g id="No-Rear-To-Rearf284r1" overflow="visible">
    <g id="RightBum">
      <path id="Layer2_0_1_STROKES" stroke="#F0F" stroke-width="3" stroke-linejoin="round" stroke-linecap="round" fill="none" d="M650.075,168.075 L658.325,200.475 Q666.2,236.1 664.325,252.525 662.15,271.5 658.025,292.875 654.2,312.825 650.075,327.525 647.45,336.9 644.75,346.875 644.225,348.225 643.775,348.825 L668.3,342.75 M711.575,193.275 L630.2,156.975 M711.575,327.525 L740.075,323.775 M636.8,333.75 L637.55,336.825 Q639.2,342.825 641.075,347.1 642.5,350.325 643.775,348.825" test="RightBum"/>
      <path id="Layer2_0_2_STROKES" stroke="#F90" stroke-width="3" stroke-linejoin="round" stroke-linecap="round" fill="none" d="M668.3,342.75 L670.625,329.25 Q671.525,324 672.275,310.95 673.025,296.475 674,289.35 677.375,262.875 690.125,253.275 697.25,247.875 704.225,245.4 709.775,243.375 715.25,243.225 720.125,243.15 726.125,245.25 M630.2,156.975 Q545.375,119.025 525.575,111.225 513.125,106.35 502.475,103.95 491.3,101.475 482.225,101.775 463.175,102.45 448.625,115.275 432.95,128.925 425.375,146.925 417.35,166.125 421.25,184.275 424.55,199.875 436.175,209.625 442.025,214.5 447.275,216.525 464.225,205.875 481.1,205.275 M668.3,342.75 L660.65,387.225 Q661.175,388.05 660.575,387.6 L658.625,398.775 Q653.975,400.125 648.65,402.975 637.85,408.675 634.1,416.025 630.725,422.625 630.275,428.625 629.975,432.45 630.875,436.05 633.65,447.525 648.575,450.225 662.45,452.775 672.275,446.025 677.525,442.35 683.075,435.75 687.5,431.025 689.9,429.45 690.725,428.925 691.625,428.625 693.8,427.95 696.35,428.625 698.15,429.075 700.1,430.275 706.55,434.025 708.125,433.425 708.425,433.35 711.575,428.775 713.975,425.4 710.6,420.225 708.125,416.4 704.225,413.7 703.925,413.475 703.625,413.25 698.975,411.375 697.1,410.025 693.875,407.625 693.575,400.725 693.275,393.9 702.425,353.625 L711.575,314.775 714.875,314.925 Q720.125,315.075 730.1,314.775 M645.35,336.825 L638.525,333 Q637.625,333.375 636.8,333.75 632,335.775 629.6,336.825 634.4,351.375 650.825,374.025 654.575,379.2 659.6,385.8 660.275,386.7 660.65,387.225 L660.575,387.6 Q660.2,387.375 659.6,386.775 M629.6,336.825 Q623.525,339.6 620.75,342 617.3,344.925 616.625,348.9 615.275,356.4 623.6,368.325 633.95,383.1 656.075,398.775 M636.8,333.75 L636.275,331.725 638.525,333 Q639.95,332.4 641.6,331.725 M447.275,216.525 Q443.15,219.075 439.025,222.225 425.225,232.95 418.7,242.25 414.725,247.95 413.45,253.125 409.925,266.775 410.45,278.775 410.975,290.775 414.275,305.55 416.225,310.275 418.7,315.075 419.45,316.575 420.275,318.075 431.225,338.4 446.525,352.725 462.875,368.025 484.475,373.575 494.375,376.05 502.475,376.2 507.95,376.275 512.6,375.225 512,375.9 550.475,405.375 565.7,417.075 581,428.625 585.05,431.7 589.1,434.775 L580.1,448.275 M554.6,410.25 L544.1,421.725" test="RightBum"/>
    </g>
    <g id="LeftBum">
      <path id="Layer1_0_1_STROKES" stroke="#FEB7AE" stroke-width="3" stroke-linejoin="round" stroke-linecap="round" fill="none" d="M183.75,150 Q205.275,136.05 227.775,125.025 250.125,114.15 271.2,107.175 298.425,98.175 316.65,98.25 339.6,98.325 356.175,103.95 375.675,110.625 390.75,126.3 397.95,133.725 399.75,149.85 401.1,161.625 399.45,175.8 398.175,186.525 391.05,195.675 386.85,201 377.175,211.95 378.675,213.45 380.025,214.875 386.625,221.925 391.8,231.3 395.325,237.675 397.2,245.775 398.85,252.9 399.3,261.375 399.975,274.575 397.65,287.7 397.125,290.475 396.45,293.25 387.45,332.775 364.8,356.25 347.4,374.25 324.675,385.5 324.375,385.65 307.05,393.6 297,398.25 290.775,402.3 281.475,408.3 274.275,413.925 267.75,419.025 259.8,426.3 252.975,432.45 250.575,439.5 247.65,447.975 252.75,454.05 254.325,456 259.725,458.775 265.125,461.55 264.75,460.275 M294.3,199.8 Q308.775,188.925 330,189.6 350.7,190.275 364.8,201.3 372.15,207.075 377.175,211.95 M72.3,243.3 Q77.775,243.15 85.65,244.275 90.15,244.95 99,246.375 105.375,247.2 114.3,248.025 119.4,248.475 129.6,249.3 136.2,249.825 144.6,251.925 146.25,252.3 149.475,252.525 151.65,252.6 152.85,253.425 155.7,255.375 162.3,269.25 169.2,283.8 172.8,294.6 175.875,303.9 179.925,321.075 181.725,328.65 185.85,339.075 191.1,352.35 192.525,356.775 192.975,358.125 195,366.975 197.1,375.525 198.3,376.8 200.325,379.05 199.95,380.025 199.95,380.175 202.95,380.775 207.825,381.75 213.9,387.075 219.975,392.25 223.5,398.55 227.475,405.375 226.2,409.95 224.7,415.275 216.3,416.025 212.175,418.125 205.125,416.55 197.25,414.225 193.725,413.775 186.45,412.8 177,414.675 170.925,415.65 168.075,416.25 163.35,417.3 159.6,419.4 156.825,421.05 153.225,423.825 151.2,425.4 147.225,428.625 145.125,425.55 147.675,418.875 151.125,411.675 152.175,409.35 153,407.475 155.775,404.85 158.475,402.15 159.15,400.65 160.425,397.95 158.7,390.075 158.025,386.925 155.85,379.35 154.275,373.5 150.375,366.75 148.05,362.775 142.8,355.125 M157.8,397.275 Q157.275,397.65 149.325,401.1 143.025,403.8 141.225,406.575 138.225,411.375 137.7,415.65 136.875,422.775 140.25,436.275 140.625,437.775 141.075,439.2 142.05,442.275 143.4,445.2 144.975,448.725 147.15,452.025 148.5,454.125 157.8,465.75 M142.8,355.125 Q141.525,353.175 136.875,347.325 133.2,342.525 131.25,339.225 129.9,336.45 129.075,334.95 127.65,332.1 126.3,331.275 124.725,330.3 120.9,330.225 116.7,330.375 115.275,330.3 110.775,330.075 104.025,330.525 93.45,331.275 92.775,331.275 75.15,332.1 63.75,330.375 60.825,330 53.55,327.225 47.175,324.75 43.275,324.75 M173.25,465.3 Q169.8,465 166.2,461.325 163.2,458.25 161.25,454.275 159.075,449.7 158.175,445.35 158.175,445.275 158.175,445.2 157.425,441.825 157.65,439.2 157.725,437.625 158.175,436.35 160.65,428.775 167.85,424.05 171.825,421.425 182.25,417.3" test="LeftBum"/>
      <path id="Layer1_0_2_STROKES" stroke="#0FF" stroke-width="3" stroke-linejoin="round" stroke-linecap="round" fill="none" d="M183.75,150 L189.525,153.6 Q196.575,158.175 202.725,163.65 222.525,181.05 226.425,199.8 229.65,214.8 237.075,248.325 242.475,278.775 240.3,303.3 237.225,336.825 235.5,346.275 232.8,361.2 226.425,369.75 L214.8,385.8 M142.8,355.125 L140.25,392.25 157.8,397.275 M64.8,196.275 Q76.5,193.2 104.775,183.15 129.825,174.3 144.75,171.075 152.475,169.425 158.85,166.2 163.8,163.65 171.45,158.325 177.6,154.05 183.75,150" test="LeftBum"/>
    </g>
  </g>
</svg>