<?xml version="1.0" encoding="utf-8"?>
<svg id="EdithAnim08" image-rendering="inherit" baseProfile="basic" version="1.1" x="0px" y="0px" width="800" height="600" xmlns="http://www.w3.org/2000/svg" xmlns:xlink="http://www.w3.org/1999/xlink">
  <g id="No-Rear-To-Rearf286r1" overflow="visible">
    <g id="RightBum">
      <path id="Layer2_0_1_STROKES" stroke="#F0F" stroke-width="3" stroke-linejoin="round" stroke-linecap="round" fill="none" d="M649.275,168.075 L657.525,200.475 Q665.4,236.1 663.525,252.525 661.35,271.5 657.225,292.875 653.4,312.825 649.275,327.525 646.65,336.9 643.95,346.875 643.425,348.225 642.975,348.825 L667.5,342.75 M710.775,193.275 L629.4,156.975 M710.775,327.525 L739.275,323.775 M636,333.75 L636.75,336.825 Q638.4,342.825 640.275,347.1 641.7,350.325 642.975,348.825" test="RightBum"/>
      <path id="Layer2_0_2_STROKES" stroke="#F90" stroke-width="3" stroke-linejoin="round" stroke-linecap="round" fill="none" d="M667.5,342.75 L669.825,329.25 Q670.725,324 671.475,310.95 672.225,296.475 673.2,289.35 676.575,262.875 689.325,253.275 696.45,247.875 703.425,245.4 708.975,243.375 714.45,243.225 719.325,243.15 725.325,245.25 M629.4,156.975 Q544.575,119.025 524.775,111.225 512.325,106.35 501.675,103.95 490.5,101.475 481.425,101.775 462.375,102.45 447.825,115.275 432.15,128.925 424.575,146.925 416.55,166.125 420.45,184.275 423.75,199.875 435.375,209.625 441.225,214.5 446.475,216.525 463.425,205.875 480.3,205.275 M667.5,342.75 L659.85,387.225 Q660.375,388.05 659.775,387.6 L657.825,398.775 Q653.175,400.125 647.85,402.975 637.05,408.675 633.3,416.025 629.925,422.625 629.475,428.625 629.175,432.45 630.075,436.05 632.85,447.525 647.775,450.225 661.65,452.775 671.475,446.025 676.725,442.35 682.275,435.75 686.7,431.025 689.1,429.45 689.925,428.925 690.825,428.625 693,427.95 695.55,428.625 697.35,429.075 699.3,430.275 705.75,434.025 707.325,433.425 707.625,433.35 710.775,428.775 713.175,425.4 709.8,420.225 707.325,416.4 703.425,413.7 703.125,413.475 702.825,413.25 698.175,411.375 696.3,410.025 693.075,407.625 692.775,400.725 692.475,393.9 701.625,353.625 L710.775,314.775 714.075,314.925 Q719.325,315.075 729.3,314.775 M644.55,336.825 L637.725,333 Q636.825,333.375 636,333.75 631.2,335.775 628.8,336.825 633.6,351.375 650.025,374.025 653.775,379.2 658.8,385.8 659.475,386.7 659.85,387.225 L659.775,387.6 Q659.4,387.375 658.8,386.775 M628.8,336.825 Q622.725,339.6 619.95,342 616.5,344.925 615.825,348.9 614.475,356.4 622.8,368.325 633.15,383.1 655.275,398.775 M636,333.75 L635.475,331.725 637.725,333 Q639.15,332.4 640.8,331.725 M446.475,216.525 Q442.35,219.075 438.225,222.225 424.425,232.95 417.9,242.25 413.925,247.95 412.65,253.125 409.125,266.775 409.65,278.775 410.175,290.775 413.475,305.55 415.425,310.275 417.9,315.075 418.65,316.575 419.475,318.075 430.425,338.4 445.725,352.725 462.075,368.025 483.675,373.575 493.575,376.05 501.675,376.2 507.15,376.275 511.8,375.225 511.2,375.9 549.675,405.375 564.9,417.075 580.2,428.625 584.25,431.7 588.3,434.775 L579.3,448.275 M553.8,410.25 L543.3,421.725" test="RightBum"/>
    </g>
    <g id="LeftBum">
      <path id="Layer1_0_1_STROKES" stroke="#FEB7AE" stroke-width="3" stroke-linejoin="round" stroke-linecap="round" fill="none" d="M184.6,150 Q206.125,136.05 228.625,125.025 250.975,114.15 272.05,107.175 299.275,98.175 317.5,98.25 340.45,98.325 357.025,103.95 376.525,110.625 391.6,126.3 398.8,133.725 400.6,149.85 401.95,161.625 400.3,175.8 399.025,186.525 391.9,195.675 387.7,201 378.025,211.95 379.525,213.45 380.875,214.875 387.475,221.925 392.65,231.3 396.175,237.675 398.05,245.775 399.7,252.9 400.15,261.375 400.825,274.575 398.5,287.7 397.975,290.475 397.3,293.25 388.3,332.775 365.65,356.25 348.25,374.25 325.525,385.5 325.225,385.65 307.9,393.6 297.85,398.25 291.625,402.3 282.325,408.3 275.125,413.925 268.6,419.025 260.65,426.3 253.825,432.45 251.425,439.5 248.5,447.975 253.6,454.05 255.175,456 260.575,458.775 265.975,461.55 265.6,460.275 M295.15,199.8 Q309.625,188.925 330.85,189.6 351.55,190.275 365.65,201.3 373,207.075 378.025,211.95 M73.15,243.3 Q78.625,243.15 86.5,244.275 91,244.95 99.85,246.375 106.225,247.2 115.15,248.025 120.25,248.475 130.45,249.3 137.05,249.825 145.45,251.925 147.1,252.3 150.325,252.525 152.5,252.6 153.7,253.425 156.55,255.375 163.15,269.25 170.05,283.8 173.65,294.6 176.725,303.9 180.775,321.075 182.575,328.65 186.7,339.075 191.95,352.35 193.375,356.775 193.825,358.125 195.85,366.975 197.95,375.525 199.15,376.8 201.175,379.05 200.8,380.025 200.8,380.175 203.8,380.775 208.675,381.75 214.75,387.075 220.825,392.25 224.35,398.55 228.325,405.375 227.05,409.95 225.55,415.275 217.15,416.025 213.025,418.125 205.975,416.55 198.1,414.225 194.575,413.775 187.3,412.8 177.85,414.675 171.775,415.65 168.925,416.25 164.2,417.3 160.45,419.4 157.675,421.05 154.075,423.825 152.05,425.4 148.075,428.625 145.975,425.55 148.525,418.875 151.975,411.675 153.025,409.35 153.85,407.475 156.625,404.85 159.325,402.15 160,400.65 161.275,397.95 159.55,390.075 158.875,386.925 156.7,379.35 155.125,373.5 151.225,366.75 148.9,362.775 143.65,355.125 M158.65,397.275 Q158.125,397.65 150.175,401.1 143.875,403.8 142.075,406.575 139.075,411.375 138.55,415.65 137.725,422.775 141.1,436.275 141.475,437.775 141.925,439.2 142.9,442.275 144.25,445.2 145.825,448.725 148,452.025 149.35,454.125 158.65,465.75 M143.65,355.125 Q142.375,353.175 137.725,347.325 134.05,342.525 132.1,339.225 130.75,336.45 129.925,334.95 128.5,332.1 127.15,331.275 125.575,330.3 121.75,330.225 117.55,330.375 116.125,330.3 111.625,330.075 104.875,330.525 94.3,331.275 93.625,331.275 76,332.1 64.6,330.375 61.675,330 54.4,327.225 48.025,324.75 44.125,324.75 M174.1,465.3 Q170.65,465 167.05,461.325 164.05,458.25 162.1,454.275 159.925,449.7 159.025,445.35 159.025,445.275 159.025,445.2 158.275,441.825 158.5,439.2 158.575,437.625 159.025,436.35 161.5,428.775 168.7,424.05 172.675,421.425 183.1,417.3" test="LeftBum"/>
      <path id="Layer1_0_2_STROKES" stroke="#0FF" stroke-width="3" stroke-linejoin="round" stroke-linecap="round" fill="none" d="M184.6,150 L190.375,153.6 Q197.425,158.175 203.575,163.65 223.375,181.05 227.275,199.8 230.5,214.8 237.925,248.325 243.325,278.775 241.15,303.3 238.075,336.825 236.35,346.275 233.65,361.2 227.275,369.75 L215.65,385.8 M143.65,355.125 L141.1,392.25 158.65,397.275 M65.65,196.275 Q77.35,193.2 105.625,183.15 130.675,174.3 145.6,171.075 153.325,169.425 159.7,166.2 164.65,163.65 172.3,158.325 178.45,154.05 184.6,150" test="LeftBum"/>
    </g>
  </g>
</svg>