<?xml version="1.0" encoding="utf-8"?>
<svg id="EdithAnim08" image-rendering="inherit" baseProfile="basic" version="1.1" x="0px" y="0px" width="800" height="600" xmlns="http://www.w3.org/2000/svg" xmlns:xlink="http://www.w3.org/1999/xlink">
  <g id="No-Rear-To-Rearf289r1" overflow="visible">
    <g id="RightBum">
      <path id="Layer2_0_1_STROKES" stroke="#F0F" stroke-width="3" stroke-linejoin="round" stroke-linecap="round" fill="none" d="M648.075,168.075 L656.325,200.475 Q664.2,236.1 662.325,252.525 660.15,271.5 656.025,292.875 652.2,312.825 648.075,327.525 645.45,336.9 642.75,346.875 642.225,348.225 641.775,348.825 L666.3,342.75 M709.575,193.275 L628.2,156.975 M709.575,327.525 L738.075,323.775 M634.8,333.75 L635.55,336.825 Q637.2,342.825 639.075,347.1 640.5,350.325 641.775,348.825" test="RightBum"/>
      <path id="Layer2_0_2_STROKES" stroke="#F90" stroke-width="3" stroke-linejoin="round" stroke-linecap="round" fill="none" d="M666.3,342.75 L668.625,329.25 Q669.525,324 670.275,310.95 671.025,296.475 672,289.35 675.375,262.875 688.125,253.275 695.25,247.875 702.225,245.4 707.775,243.375 713.25,243.225 718.125,243.15 724.125,245.25 M628.2,156.975 Q543.375,119.025 523.575,111.225 511.125,106.35 500.475,103.95 489.3,101.475 480.225,101.775 461.175,102.45 446.625,115.275 430.95,128.925 423.375,146.925 415.35,166.125 419.25,184.275 422.55,199.875 434.175,209.625 440.025,214.5 445.275,216.525 462.225,205.875 479.1,205.275 M666.3,342.75 L658.65,387.225 Q659.175,388.05 658.575,387.6 L656.625,398.775 Q651.975,400.125 646.65,402.975 635.85,408.675 632.1,416.025 628.725,422.625 628.275,428.625 627.975,432.45 628.875,436.05 631.65,447.525 646.575,450.225 660.45,452.775 670.275,446.025 675.525,442.35 681.075,435.75 685.5,431.025 687.9,429.45 688.725,428.925 689.625,428.625 691.8,427.95 694.35,428.625 696.15,429.075 698.1,430.275 704.55,434.025 706.125,433.425 706.425,433.35 709.575,428.775 711.975,425.4 708.6,420.225 706.125,416.4 702.225,413.7 701.925,413.475 701.625,413.25 696.975,411.375 695.1,410.025 691.875,407.625 691.575,400.725 691.275,393.9 700.425,353.625 L709.575,314.775 712.875,314.925 Q718.125,315.075 728.1,314.775 M643.35,336.825 L636.525,333 Q635.625,333.375 634.8,333.75 630,335.775 627.6,336.825 632.4,351.375 648.825,374.025 652.575,379.2 657.6,385.8 658.275,386.7 658.65,387.225 L658.575,387.6 Q658.2,387.375 657.6,386.775 M627.6,336.825 Q621.525,339.6 618.75,342 615.3,344.925 614.625,348.9 613.275,356.4 621.6,368.325 631.95,383.1 654.075,398.775 M634.8,333.75 L634.275,331.725 636.525,333 Q637.95,332.4 639.6,331.725 M445.275,216.525 Q441.15,219.075 437.025,222.225 423.225,232.95 416.7,242.25 412.725,247.95 411.45,253.125 407.925,266.775 408.45,278.775 408.975,290.775 412.275,305.55 414.225,310.275 416.7,315.075 417.45,316.575 418.275,318.075 429.225,338.4 444.525,352.725 460.875,368.025 482.475,373.575 492.375,376.05 500.475,376.2 505.95,376.275 510.6,375.225 510,375.9 548.475,405.375 563.7,417.075 579,428.625 583.05,431.7 587.1,434.775 L578.1,448.275 M552.6,410.25 L542.1,421.725" test="RightBum"/>
    </g>
    <g id="LeftBum">
      <path id="Layer1_0_1_STROKES" stroke="#FEB7AE" stroke-width="3" stroke-linejoin="round" stroke-linecap="round" fill="none" d="M185.8,150 Q207.325,136.05 229.825,125.025 252.175,114.15 273.25,107.175 300.475,98.175 318.7,98.25 341.65,98.325 358.225,103.95 377.725,110.625 392.8,126.3 400,133.725 401.8,149.85 403.15,161.625 401.5,175.8 400.225,186.525 393.1,195.675 388.9,201 379.225,211.95 380.725,213.45 382.075,214.875 388.675,221.925 393.85,231.3 397.375,237.675 399.25,245.775 400.9,252.9 401.35,261.375 402.025,274.575 399.7,287.7 399.175,290.475 398.5,293.25 389.5,332.775 366.85,356.25 349.45,374.25 326.725,385.5 326.425,385.65 309.1,393.6 299.05,398.25 292.825,402.3 283.525,408.3 276.325,413.925 269.8,419.025 261.85,426.3 255.025,432.45 252.625,439.5 249.7,447.975 254.8,454.05 256.375,456 261.775,458.775 267.175,461.55 266.8,460.275 M296.35,199.8 Q310.825,188.925 332.05,189.6 352.75,190.275 366.85,201.3 374.2,207.075 379.225,211.95 M74.35,243.3 Q79.825,243.15 87.7,244.275 92.2,244.95 101.05,246.375 107.425,247.2 116.35,248.025 121.45,248.475 131.65,249.3 138.25,249.825 146.65,251.925 148.3,252.3 151.525,252.525 153.7,252.6 154.9,253.425 157.75,255.375 164.35,269.25 171.25,283.8 174.85,294.6 177.925,303.9 181.975,321.075 183.775,328.65 187.9,339.075 193.15,352.35 194.575,356.775 195.025,358.125 197.05,366.975 199.15,375.525 200.35,376.8 202.375,379.05 202,380.025 202,380.175 205,380.775 209.875,381.75 215.95,387.075 222.025,392.25 225.55,398.55 229.525,405.375 228.25,409.95 226.75,415.275 218.35,416.025 214.225,418.125 207.175,416.55 199.3,414.225 195.775,413.775 188.5,412.8 179.05,414.675 172.975,415.65 170.125,416.25 165.4,417.3 161.65,419.4 158.875,421.05 155.275,423.825 153.25,425.4 149.275,428.625 147.175,425.55 149.725,418.875 153.175,411.675 154.225,409.35 155.05,407.475 157.825,404.85 160.525,402.15 161.2,400.65 162.475,397.95 160.75,390.075 160.075,386.925 157.9,379.35 156.325,373.5 152.425,366.75 150.1,362.775 144.85,355.125 M159.85,397.275 Q159.325,397.65 151.375,401.1 145.075,403.8 143.275,406.575 140.275,411.375 139.75,415.65 138.925,422.775 142.3,436.275 142.675,437.775 143.125,439.2 144.1,442.275 145.45,445.2 147.025,448.725 149.2,452.025 150.55,454.125 159.85,465.75 M144.85,355.125 Q143.575,353.175 138.925,347.325 135.25,342.525 133.3,339.225 131.95,336.45 131.125,334.95 129.7,332.1 128.35,331.275 126.775,330.3 122.95,330.225 118.75,330.375 117.325,330.3 112.825,330.075 106.075,330.525 95.5,331.275 94.825,331.275 77.2,332.1 65.8,330.375 62.875,330 55.6,327.225 49.225,324.75 45.325,324.75 M175.3,465.3 Q171.85,465 168.25,461.325 165.25,458.25 163.3,454.275 161.125,449.7 160.225,445.35 160.225,445.275 160.225,445.2 159.475,441.825 159.7,439.2 159.775,437.625 160.225,436.35 162.7,428.775 169.9,424.05 173.875,421.425 184.3,417.3" test="LeftBum"/>
      <path id="Layer1_0_2_STROKES" stroke="#0FF" stroke-width="3" stroke-linejoin="round" stroke-linecap="round" fill="none" d="M185.8,150 L191.575,153.6 Q198.625,158.175 204.775,163.65 224.575,181.05 228.475,199.8 231.7,214.8 239.125,248.325 244.525,278.775 242.35,303.3 239.275,336.825 237.55,346.275 234.85,361.2 228.475,369.75 L216.85,385.8 M144.85,355.125 L142.3,392.25 159.85,397.275 M66.85,196.275 Q78.55,193.2 106.825,183.15 131.875,174.3 146.8,171.075 154.525,169.425 160.9,166.2 165.85,163.65 173.5,158.325 179.65,154.05 185.8,150" test="LeftBum"/>
    </g>
  </g>
</svg>