<?xml version="1.0" encoding="utf-8"?>
<svg id="EdithAnim08" image-rendering="inherit" baseProfile="basic" version="1.1" x="0px" y="0px" width="800" height="600" xmlns="http://www.w3.org/2000/svg" xmlns:xlink="http://www.w3.org/1999/xlink">
  <g id="No-Rear-To-Rearf291r1" overflow="visible">
    <g id="RightBum">
      <path id="Layer2_0_1_STROKES" stroke="#F0F" stroke-width="3" stroke-linejoin="round" stroke-linecap="round" fill="none" d="M647.325,168.075 L655.575,200.475 Q663.45,236.1 661.575,252.525 659.4,271.5 655.275,292.875 651.45,312.825 647.325,327.525 644.7,336.9 642,346.875 641.475,348.225 641.025,348.825 L665.55,342.75 M708.825,193.275 L627.45,156.975 M708.825,327.525 L737.325,323.775 M634.05,333.75 L634.8,336.825 Q636.45,342.825 638.325,347.1 639.75,350.325 641.025,348.825" test="RightBum"/>
      <path id="Layer2_0_2_STROKES" stroke="#F90" stroke-width="3" stroke-linejoin="round" stroke-linecap="round" fill="none" d="M665.55,342.75 L667.875,329.25 Q668.775,324 669.525,310.95 670.275,296.475 671.25,289.35 674.625,262.875 687.375,253.275 694.5,247.875 701.475,245.4 707.025,243.375 712.5,243.225 717.375,243.15 723.375,245.25 M627.45,156.975 Q542.625,119.025 522.825,111.225 510.375,106.35 499.725,103.95 488.55,101.475 479.475,101.775 460.425,102.45 445.875,115.275 430.2,128.925 422.625,146.925 414.6,166.125 418.5,184.275 421.8,199.875 433.425,209.625 439.275,214.5 444.525,216.525 461.475,205.875 478.35,205.275 M665.55,342.75 L657.9,387.225 Q658.425,388.05 657.825,387.6 L655.875,398.775 Q651.225,400.125 645.9,402.975 635.1,408.675 631.35,416.025 627.975,422.625 627.525,428.625 627.225,432.45 628.125,436.05 630.9,447.525 645.825,450.225 659.7,452.775 669.525,446.025 674.775,442.35 680.325,435.75 684.75,431.025 687.15,429.45 687.975,428.925 688.875,428.625 691.05,427.95 693.6,428.625 695.4,429.075 697.35,430.275 703.8,434.025 705.375,433.425 705.675,433.35 708.825,428.775 711.225,425.4 707.85,420.225 705.375,416.4 701.475,413.7 701.175,413.475 700.875,413.25 696.225,411.375 694.35,410.025 691.125,407.625 690.825,400.725 690.525,393.9 699.675,353.625 L708.825,314.775 712.125,314.925 Q717.375,315.075 727.35,314.775 M642.6,336.825 L635.775,333 Q634.875,333.375 634.05,333.75 629.25,335.775 626.85,336.825 631.65,351.375 648.075,374.025 651.825,379.2 656.85,385.8 657.525,386.7 657.9,387.225 L657.825,387.6 Q657.45,387.375 656.85,386.775 M626.85,336.825 Q620.775,339.6 618,342 614.55,344.925 613.875,348.9 612.525,356.4 620.85,368.325 631.2,383.1 653.325,398.775 M634.05,333.75 L633.525,331.725 635.775,333 Q637.2,332.4 638.85,331.725 M444.525,216.525 Q440.4,219.075 436.275,222.225 422.475,232.95 415.95,242.25 411.975,247.95 410.7,253.125 407.175,266.775 407.7,278.775 408.225,290.775 411.525,305.55 413.475,310.275 415.95,315.075 416.7,316.575 417.525,318.075 428.475,338.4 443.775,352.725 460.125,368.025 481.725,373.575 491.625,376.05 499.725,376.2 505.2,376.275 509.85,375.225 509.25,375.9 547.725,405.375 562.95,417.075 578.25,428.625 582.3,431.7 586.35,434.775 L577.35,448.275 M551.85,410.25 L541.35,421.725" test="RightBum"/>
    </g>
    <g id="LeftBum">
      <path id="Layer1_0_1_STROKES" stroke="#FEB7AE" stroke-width="3" stroke-linejoin="round" stroke-linecap="round" fill="none" d="M186.55,150 Q208.075,136.05 230.575,125.025 252.925,114.15 274,107.175 301.225,98.175 319.45,98.25 342.4,98.325 358.975,103.95 378.475,110.625 393.55,126.3 400.75,133.725 402.55,149.85 403.9,161.625 402.25,175.8 400.975,186.525 393.85,195.675 389.65,201 379.975,211.95 381.475,213.45 382.825,214.875 389.425,221.925 394.6,231.3 398.125,237.675 400,245.775 401.65,252.9 402.1,261.375 402.775,274.575 400.45,287.7 399.925,290.475 399.25,293.25 390.25,332.775 367.6,356.25 350.2,374.25 327.475,385.5 327.175,385.65 309.85,393.6 299.8,398.25 293.575,402.3 284.275,408.3 277.075,413.925 270.55,419.025 262.6,426.3 255.775,432.45 253.375,439.5 250.45,447.975 255.55,454.05 257.125,456 262.525,458.775 267.925,461.55 267.55,460.275 M297.1,199.8 Q311.575,188.925 332.8,189.6 353.5,190.275 367.6,201.3 374.95,207.075 379.975,211.95 M75.1,243.3 Q80.575,243.15 88.45,244.275 92.95,244.95 101.8,246.375 108.175,247.2 117.1,248.025 122.2,248.475 132.4,249.3 139,249.825 147.4,251.925 149.05,252.3 152.275,252.525 154.45,252.6 155.65,253.425 158.5,255.375 165.1,269.25 172,283.8 175.6,294.6 178.675,303.9 182.725,321.075 184.525,328.65 188.65,339.075 193.9,352.35 195.325,356.775 195.775,358.125 197.8,366.975 199.9,375.525 201.1,376.8 203.125,379.05 202.75,380.025 202.75,380.175 205.75,380.775 210.625,381.75 216.7,387.075 222.775,392.25 226.3,398.55 230.275,405.375 229,409.95 227.5,415.275 219.1,416.025 214.975,418.125 207.925,416.55 200.05,414.225 196.525,413.775 189.25,412.8 179.8,414.675 173.725,415.65 170.875,416.25 166.15,417.3 162.4,419.4 159.625,421.05 156.025,423.825 154,425.4 150.025,428.625 147.925,425.55 150.475,418.875 153.925,411.675 154.975,409.35 155.8,407.475 158.575,404.85 161.275,402.15 161.95,400.65 163.225,397.95 161.5,390.075 160.825,386.925 158.65,379.35 157.075,373.5 153.175,366.75 150.85,362.775 145.6,355.125 M160.6,397.275 Q160.075,397.65 152.125,401.1 145.825,403.8 144.025,406.575 141.025,411.375 140.5,415.65 139.675,422.775 143.05,436.275 143.425,437.775 143.875,439.2 144.85,442.275 146.2,445.2 147.775,448.725 149.95,452.025 151.3,454.125 160.6,465.75 M145.6,355.125 Q144.325,353.175 139.675,347.325 136,342.525 134.05,339.225 132.7,336.45 131.875,334.95 130.45,332.1 129.1,331.275 127.525,330.3 123.7,330.225 119.5,330.375 118.075,330.3 113.575,330.075 106.825,330.525 96.25,331.275 95.575,331.275 77.95,332.1 66.55,330.375 63.625,330 56.35,327.225 49.975,324.75 46.075,324.75 M176.05,465.3 Q172.6,465 169,461.325 166,458.25 164.05,454.275 161.875,449.7 160.975,445.35 160.975,445.275 160.975,445.2 160.225,441.825 160.45,439.2 160.525,437.625 160.975,436.35 163.45,428.775 170.65,424.05 174.625,421.425 185.05,417.3" test="LeftBum"/>
      <path id="Layer1_0_2_STROKES" stroke="#0FF" stroke-width="3" stroke-linejoin="round" stroke-linecap="round" fill="none" d="M186.55,150 L192.325,153.6 Q199.375,158.175 205.525,163.65 225.325,181.05 229.225,199.8 232.45,214.8 239.875,248.325 245.275,278.775 243.1,303.3 240.025,336.825 238.3,346.275 235.6,361.2 229.225,369.75 L217.6,385.8 M145.6,355.125 L143.05,392.25 160.6,397.275 M67.6,196.275 Q79.3,193.2 107.575,183.15 132.625,174.3 147.55,171.075 155.275,169.425 161.65,166.2 166.6,163.65 174.25,158.325 180.4,154.05 186.55,150" test="LeftBum"/>
    </g>
  </g>
</svg>