<?xml version="1.0" encoding="utf-8"?>
<svg id="EdithAnim08" image-rendering="inherit" baseProfile="basic" version="1.1" x="0px" y="0px" width="800" height="600" xmlns="http://www.w3.org/2000/svg" xmlns:xlink="http://www.w3.org/1999/xlink">
  <g id="No-Rear-To-Rearf293r1" overflow="visible">
    <g id="RightBum">
      <path id="Layer2_0_1_STROKES" stroke="#F0F" stroke-width="3" stroke-linejoin="round" stroke-linecap="round" fill="none" d="M646.625,168.075 L654.875,200.475 Q662.75,236.1 660.875,252.525 658.7,271.5 654.575,292.875 650.75,312.825 646.625,327.525 644,336.9 641.3,346.875 640.775,348.225 640.325,348.825 L664.85,342.75 M708.125,193.275 L626.75,156.975 M708.125,327.525 L736.625,323.775 M633.35,333.75 L634.1,336.825 Q635.75,342.825 637.625,347.1 639.05,350.325 640.325,348.825" test="RightBum"/>
      <path id="Layer2_0_2_STROKES" stroke="#F90" stroke-width="3" stroke-linejoin="round" stroke-linecap="round" fill="none" d="M664.85,342.75 L667.175,329.25 Q668.075,324 668.825,310.95 669.575,296.475 670.55,289.35 673.925,262.875 686.675,253.275 693.8,247.875 700.775,245.4 706.325,243.375 711.8,243.225 716.675,243.15 722.675,245.25 M626.75,156.975 Q541.925,119.025 522.125,111.225 509.675,106.35 499.025,103.95 487.85,101.475 478.775,101.775 459.725,102.45 445.175,115.275 429.5,128.925 421.925,146.925 413.9,166.125 417.8,184.275 421.1,199.875 432.725,209.625 438.575,214.5 443.825,216.525 460.775,205.875 477.65,205.275 M664.85,342.75 L657.2,387.225 Q657.725,388.05 657.125,387.6 L655.175,398.775 Q650.525,400.125 645.2,402.975 634.4,408.675 630.65,416.025 627.275,422.625 626.825,428.625 626.525,432.45 627.425,436.05 630.2,447.525 645.125,450.225 659,452.775 668.825,446.025 674.075,442.35 679.625,435.75 684.05,431.025 686.45,429.45 687.275,428.925 688.175,428.625 690.35,427.95 692.9,428.625 694.7,429.075 696.65,430.275 703.1,434.025 704.675,433.425 704.975,433.35 708.125,428.775 710.525,425.4 707.15,420.225 704.675,416.4 700.775,413.7 700.475,413.475 700.175,413.25 695.525,411.375 693.65,410.025 690.425,407.625 690.125,400.725 689.825,393.9 698.975,353.625 L708.125,314.775 711.425,314.925 Q716.675,315.075 726.65,314.775 M641.9,336.825 L635.075,333 Q634.175,333.375 633.35,333.75 628.55,335.775 626.15,336.825 630.95,351.375 647.375,374.025 651.125,379.2 656.15,385.8 656.825,386.7 657.2,387.225 L657.125,387.6 Q656.75,387.375 656.15,386.775 M626.15,336.825 Q620.075,339.6 617.3,342 613.85,344.925 613.175,348.9 611.825,356.4 620.15,368.325 630.5,383.1 652.625,398.775 M633.35,333.75 L632.825,331.725 635.075,333 Q636.5,332.4 638.15,331.725 M443.825,216.525 Q439.7,219.075 435.575,222.225 421.775,232.95 415.25,242.25 411.275,247.95 410,253.125 406.475,266.775 407,278.775 407.525,290.775 410.825,305.55 412.775,310.275 415.25,315.075 416,316.575 416.825,318.075 427.775,338.4 443.075,352.725 459.425,368.025 481.025,373.575 490.925,376.05 499.025,376.2 504.5,376.275 509.15,375.225 508.55,375.9 547.025,405.375 562.25,417.075 577.55,428.625 581.6,431.7 585.65,434.775 L576.65,448.275 M551.15,410.25 L540.65,421.725" test="RightBum"/>
    </g>
    <g id="LeftBum">
      <path id="Layer1_0_1_STROKES" stroke="#FEB7AE" stroke-width="3" stroke-linejoin="round" stroke-linecap="round" fill="none" d="M187.25,150 Q208.775,136.05 231.275,125.025 253.625,114.15 274.7,107.175 301.925,98.175 320.15,98.25 343.1,98.325 359.675,103.95 379.175,110.625 394.25,126.3 401.45,133.725 403.25,149.85 404.6,161.625 402.95,175.8 401.675,186.525 394.55,195.675 390.35,201 380.675,211.95 382.175,213.45 383.525,214.875 390.125,221.925 395.3,231.3 398.825,237.675 400.7,245.775 402.35,252.9 402.8,261.375 403.475,274.575 401.15,287.7 400.625,290.475 399.95,293.25 390.95,332.775 368.3,356.25 350.9,374.25 328.175,385.5 327.875,385.65 310.55,393.6 300.5,398.25 294.275,402.3 284.975,408.3 277.775,413.925 271.25,419.025 263.3,426.3 256.475,432.45 254.075,439.5 251.15,447.975 256.25,454.05 257.825,456 263.225,458.775 268.625,461.55 268.25,460.275 M297.8,199.8 Q312.275,188.925 333.5,189.6 354.2,190.275 368.3,201.3 375.65,207.075 380.675,211.95 M75.8,243.3 Q81.275,243.15 89.15,244.275 93.65,244.95 102.5,246.375 108.875,247.2 117.8,248.025 122.9,248.475 133.1,249.3 139.7,249.825 148.1,251.925 149.75,252.3 152.975,252.525 155.15,252.6 156.35,253.425 159.2,255.375 165.8,269.25 172.7,283.8 176.3,294.6 179.375,303.9 183.425,321.075 185.225,328.65 189.35,339.075 194.6,352.35 196.025,356.775 196.475,358.125 198.5,366.975 200.6,375.525 201.8,376.8 203.825,379.05 203.45,380.025 203.45,380.175 206.45,380.775 211.325,381.75 217.4,387.075 223.475,392.25 227,398.55 230.975,405.375 229.7,409.95 228.2,415.275 219.8,416.025 215.675,418.125 208.625,416.55 200.75,414.225 197.225,413.775 189.95,412.8 180.5,414.675 174.425,415.65 171.575,416.25 166.85,417.3 163.1,419.4 160.325,421.05 156.725,423.825 154.7,425.4 150.725,428.625 148.625,425.55 151.175,418.875 154.625,411.675 155.675,409.35 156.5,407.475 159.275,404.85 161.975,402.15 162.65,400.65 163.925,397.95 162.2,390.075 161.525,386.925 159.35,379.35 157.775,373.5 153.875,366.75 151.55,362.775 146.3,355.125 M161.3,397.275 Q160.775,397.65 152.825,401.1 146.525,403.8 144.725,406.575 141.725,411.375 141.2,415.65 140.375,422.775 143.75,436.275 144.125,437.775 144.575,439.2 145.55,442.275 146.9,445.2 148.475,448.725 150.65,452.025 152,454.125 161.3,465.75 M146.3,355.125 Q145.025,353.175 140.375,347.325 136.7,342.525 134.75,339.225 133.4,336.45 132.575,334.95 131.15,332.1 129.8,331.275 128.225,330.3 124.4,330.225 120.2,330.375 118.775,330.3 114.275,330.075 107.525,330.525 96.95,331.275 96.275,331.275 78.65,332.1 67.25,330.375 64.325,330 57.05,327.225 50.675,324.75 46.775,324.75 M176.75,465.3 Q173.3,465 169.7,461.325 166.7,458.25 164.75,454.275 162.575,449.7 161.675,445.35 161.675,445.275 161.675,445.2 160.925,441.825 161.15,439.2 161.225,437.625 161.675,436.35 164.15,428.775 171.35,424.05 175.325,421.425 185.75,417.3" test="LeftBum"/>
      <path id="Layer1_0_2_STROKES" stroke="#0FF" stroke-width="3" stroke-linejoin="round" stroke-linecap="round" fill="none" d="M187.25,150 L193.025,153.6 Q200.075,158.175 206.225,163.65 226.025,181.05 229.925,199.8 233.15,214.8 240.575,248.325 245.975,278.775 243.8,303.3 240.725,336.825 239,346.275 236.3,361.2 229.925,369.75 L218.3,385.8 M146.3,355.125 L143.75,392.25 161.3,397.275 M68.3,196.275 Q80,193.2 108.275,183.15 133.325,174.3 148.25,171.075 155.975,169.425 162.35,166.2 167.3,163.65 174.95,158.325 181.1,154.05 187.25,150" test="LeftBum"/>
    </g>
  </g>
</svg>