<?xml version="1.0" encoding="utf-8"?>
<svg id="EdithAnim08" image-rendering="inherit" baseProfile="basic" version="1.1" x="0px" y="0px" width="800" height="600" xmlns="http://www.w3.org/2000/svg" xmlns:xlink="http://www.w3.org/1999/xlink">
  <g id="No-Rear-To-Rearf294r1" overflow="visible">
    <g id="RightBum">
      <path id="Layer2_0_1_STROKES" stroke="#F0F" stroke-width="3" stroke-linejoin="round" stroke-linecap="round" fill="none" d="M646.275,168.075 L654.525,200.475 Q662.4,236.1 660.525,252.525 658.35,271.5 654.225,292.875 650.4,312.825 646.275,327.525 643.65,336.9 640.95,346.875 640.425,348.225 639.975,348.825 L664.5,342.75 M707.775,193.275 L626.4,156.975 M707.775,327.525 L736.275,323.775 M633,333.75 L633.75,336.825 Q635.4,342.825 637.275,347.1 638.7,350.325 639.975,348.825" test="RightBum"/>
      <path id="Layer2_0_2_STROKES" stroke="#F90" stroke-width="3" stroke-linejoin="round" stroke-linecap="round" fill="none" d="M664.5,342.75 L666.825,329.25 Q667.725,324 668.475,310.95 669.225,296.475 670.2,289.35 673.575,262.875 686.325,253.275 693.45,247.875 700.425,245.4 705.975,243.375 711.45,243.225 716.325,243.15 722.325,245.25 M626.4,156.975 Q541.575,119.025 521.775,111.225 509.325,106.35 498.675,103.95 487.5,101.475 478.425,101.775 459.375,102.45 444.825,115.275 429.15,128.925 421.575,146.925 413.55,166.125 417.45,184.275 420.75,199.875 432.375,209.625 438.225,214.5 443.475,216.525 460.425,205.875 477.3,205.275 M664.5,342.75 L656.85,387.225 Q657.375,388.05 656.775,387.6 L654.825,398.775 Q650.175,400.125 644.85,402.975 634.05,408.675 630.3,416.025 626.925,422.625 626.475,428.625 626.175,432.45 627.075,436.05 629.85,447.525 644.775,450.225 658.65,452.775 668.475,446.025 673.725,442.35 679.275,435.75 683.7,431.025 686.1,429.45 686.925,428.925 687.825,428.625 690,427.95 692.55,428.625 694.35,429.075 696.3,430.275 702.75,434.025 704.325,433.425 704.625,433.35 707.775,428.775 710.175,425.4 706.8,420.225 704.325,416.4 700.425,413.7 700.125,413.475 699.825,413.25 695.175,411.375 693.3,410.025 690.075,407.625 689.775,400.725 689.475,393.9 698.625,353.625 L707.775,314.775 711.075,314.925 Q716.325,315.075 726.3,314.775 M641.55,336.825 L634.725,333 Q633.825,333.375 633,333.75 628.2,335.775 625.8,336.825 630.6,351.375 647.025,374.025 650.775,379.2 655.8,385.8 656.475,386.7 656.85,387.225 L656.775,387.6 Q656.4,387.375 655.8,386.775 M625.8,336.825 Q619.725,339.6 616.95,342 613.5,344.925 612.825,348.9 611.475,356.4 619.8,368.325 630.15,383.1 652.275,398.775 M633,333.75 L632.475,331.725 634.725,333 Q636.15,332.4 637.8,331.725 M443.475,216.525 Q439.35,219.075 435.225,222.225 421.425,232.95 414.9,242.25 410.925,247.95 409.65,253.125 406.125,266.775 406.65,278.775 407.175,290.775 410.475,305.55 412.425,310.275 414.9,315.075 415.65,316.575 416.475,318.075 427.425,338.4 442.725,352.725 459.075,368.025 480.675,373.575 490.575,376.05 498.675,376.2 504.15,376.275 508.8,375.225 508.2,375.9 546.675,405.375 561.9,417.075 577.2,428.625 581.25,431.7 585.3,434.775 L576.3,448.275 M550.8,410.25 L540.3,421.725" test="RightBum"/>
    </g>
    <g id="LeftBum">
      <path id="Layer1_0_1_STROKES" stroke="#FEB7AE" stroke-width="3" stroke-linejoin="round" stroke-linecap="round" fill="none" d="M187.65,150 Q209.175,136.05 231.675,125.025 254.025,114.15 275.1,107.175 302.325,98.175 320.55,98.25 343.5,98.325 360.075,103.95 379.575,110.625 394.65,126.3 401.85,133.725 403.65,149.85 405,161.625 403.35,175.8 402.075,186.525 394.95,195.675 390.75,201 381.075,211.95 382.575,213.45 383.925,214.875 390.525,221.925 395.7,231.3 399.225,237.675 401.1,245.775 402.75,252.9 403.2,261.375 403.875,274.575 401.55,287.7 401.025,290.475 400.35,293.25 391.35,332.775 368.7,356.25 351.3,374.25 328.575,385.5 328.275,385.65 310.95,393.6 300.9,398.25 294.675,402.3 285.375,408.3 278.175,413.925 271.65,419.025 263.7,426.3 256.875,432.45 254.475,439.5 251.55,447.975 256.65,454.05 258.225,456 263.625,458.775 269.025,461.55 268.65,460.275 M298.2,199.8 Q312.675,188.925 333.9,189.6 354.6,190.275 368.7,201.3 376.05,207.075 381.075,211.95 M76.2,243.3 Q81.675,243.15 89.55,244.275 94.05,244.95 102.9,246.375 109.275,247.2 118.2,248.025 123.3,248.475 133.5,249.3 140.1,249.825 148.5,251.925 150.15,252.3 153.375,252.525 155.55,252.6 156.75,253.425 159.6,255.375 166.2,269.25 173.1,283.8 176.7,294.6 179.775,303.9 183.825,321.075 185.625,328.65 189.75,339.075 195,352.35 196.425,356.775 196.875,358.125 198.9,366.975 201,375.525 202.2,376.8 204.225,379.05 203.85,380.025 203.85,380.175 206.85,380.775 211.725,381.75 217.8,387.075 223.875,392.25 227.4,398.55 231.375,405.375 230.1,409.95 228.6,415.275 220.2,416.025 216.075,418.125 209.025,416.55 201.15,414.225 197.625,413.775 190.35,412.8 180.9,414.675 174.825,415.65 171.975,416.25 167.25,417.3 163.5,419.4 160.725,421.05 157.125,423.825 155.1,425.4 151.125,428.625 149.025,425.55 151.575,418.875 155.025,411.675 156.075,409.35 156.9,407.475 159.675,404.85 162.375,402.15 163.05,400.65 164.325,397.95 162.6,390.075 161.925,386.925 159.75,379.35 158.175,373.5 154.275,366.75 151.95,362.775 146.7,355.125 M161.7,397.275 Q161.175,397.65 153.225,401.1 146.925,403.8 145.125,406.575 142.125,411.375 141.6,415.65 140.775,422.775 144.15,436.275 144.525,437.775 144.975,439.2 145.95,442.275 147.3,445.2 148.875,448.725 151.05,452.025 152.4,454.125 161.7,465.75 M146.7,355.125 Q145.425,353.175 140.775,347.325 137.1,342.525 135.15,339.225 133.8,336.45 132.975,334.95 131.55,332.1 130.2,331.275 128.625,330.3 124.8,330.225 120.6,330.375 119.175,330.3 114.675,330.075 107.925,330.525 97.35,331.275 96.675,331.275 79.05,332.1 67.65,330.375 64.725,330 57.45,327.225 51.075,324.75 47.175,324.75 M177.15,465.3 Q173.7,465 170.1,461.325 167.1,458.25 165.15,454.275 162.975,449.7 162.075,445.35 162.075,445.275 162.075,445.2 161.325,441.825 161.55,439.2 161.625,437.625 162.075,436.35 164.55,428.775 171.75,424.05 175.725,421.425 186.15,417.3" test="LeftBum"/>
      <path id="Layer1_0_2_STROKES" stroke="#0FF" stroke-width="3" stroke-linejoin="round" stroke-linecap="round" fill="none" d="M187.65,150 L193.425,153.6 Q200.475,158.175 206.625,163.65 226.425,181.05 230.325,199.8 233.55,214.8 240.975,248.325 246.375,278.775 244.2,303.3 241.125,336.825 239.4,346.275 236.7,361.2 230.325,369.75 L218.7,385.8 M146.7,355.125 L144.15,392.25 161.7,397.275 M68.7,196.275 Q80.4,193.2 108.675,183.15 133.725,174.3 148.65,171.075 156.375,169.425 162.75,166.2 167.7,163.65 175.35,158.325 181.5,154.05 187.65,150" test="LeftBum"/>
    </g>
  </g>
</svg>