<?xml version="1.0" encoding="utf-8"?>
<svg id="EdithAnim08" image-rendering="inherit" baseProfile="basic" version="1.1" x="0px" y="0px" width="800" height="600" xmlns="http://www.w3.org/2000/svg" xmlns:xlink="http://www.w3.org/1999/xlink">
  <g id="No-Rear-To-Rearf295r1" overflow="visible">
    <g id="RightBum">
      <path id="Layer2_0_1_STROKES" stroke="#F0F" stroke-width="3" stroke-linejoin="round" stroke-linecap="round" fill="none" d="M645.925,168.075 L654.175,200.475 Q662.05,236.1 660.175,252.525 658,271.5 653.875,292.875 650.05,312.825 645.925,327.525 643.3,336.9 640.6,346.875 640.075,348.225 639.625,348.825 L664.15,342.75 M707.425,193.275 L626.05,156.975 M707.425,327.525 L735.925,323.775 M632.65,333.75 L633.4,336.825 Q635.05,342.825 636.925,347.1 638.35,350.325 639.625,348.825" test="RightBum"/>
      <path id="Layer2_0_2_STROKES" stroke="#F90" stroke-width="3" stroke-linejoin="round" stroke-linecap="round" fill="none" d="M664.15,342.75 L666.475,329.25 Q667.375,324 668.125,310.95 668.875,296.475 669.85,289.35 673.225,262.875 685.975,253.275 693.1,247.875 700.075,245.4 705.625,243.375 711.1,243.225 715.975,243.15 721.975,245.25 M626.05,156.975 Q541.225,119.025 521.425,111.225 508.975,106.35 498.325,103.95 487.15,101.475 478.075,101.775 459.025,102.45 444.475,115.275 428.8,128.925 421.225,146.925 413.2,166.125 417.1,184.275 420.4,199.875 432.025,209.625 437.875,214.5 443.125,216.525 460.075,205.875 476.95,205.275 M664.15,342.75 L656.5,387.225 Q657.025,388.05 656.425,387.6 L654.475,398.775 Q649.825,400.125 644.5,402.975 633.7,408.675 629.95,416.025 626.575,422.625 626.125,428.625 625.825,432.45 626.725,436.05 629.5,447.525 644.425,450.225 658.3,452.775 668.125,446.025 673.375,442.35 678.925,435.75 683.35,431.025 685.75,429.45 686.575,428.925 687.475,428.625 689.65,427.95 692.2,428.625 694,429.075 695.95,430.275 702.4,434.025 703.975,433.425 704.275,433.35 707.425,428.775 709.825,425.4 706.45,420.225 703.975,416.4 700.075,413.7 699.775,413.475 699.475,413.25 694.825,411.375 692.95,410.025 689.725,407.625 689.425,400.725 689.125,393.9 698.275,353.625 L707.425,314.775 710.725,314.925 Q715.975,315.075 725.95,314.775 M641.2,336.825 L634.375,333 Q633.475,333.375 632.65,333.75 627.85,335.775 625.45,336.825 630.25,351.375 646.675,374.025 650.425,379.2 655.45,385.8 656.125,386.7 656.5,387.225 L656.425,387.6 Q656.05,387.375 655.45,386.775 M625.45,336.825 Q619.375,339.6 616.6,342 613.15,344.925 612.475,348.9 611.125,356.4 619.45,368.325 629.8,383.1 651.925,398.775 M632.65,333.75 L632.125,331.725 634.375,333 Q635.8,332.4 637.45,331.725 M443.125,216.525 Q439,219.075 434.875,222.225 421.075,232.95 414.55,242.25 410.575,247.95 409.3,253.125 405.775,266.775 406.3,278.775 406.825,290.775 410.125,305.55 412.075,310.275 414.55,315.075 415.3,316.575 416.125,318.075 427.075,338.4 442.375,352.725 458.725,368.025 480.325,373.575 490.225,376.05 498.325,376.2 503.8,376.275 508.45,375.225 507.85,375.9 546.325,405.375 561.55,417.075 576.85,428.625 580.9,431.7 584.95,434.775 L575.95,448.275 M550.45,410.25 L539.95,421.725" test="RightBum"/>
    </g>
    <g id="LeftBum">
      <path id="Layer1_0_1_STROKES" stroke="#FEB7AE" stroke-width="3" stroke-linejoin="round" stroke-linecap="round" fill="none" d="M187.95,150 Q209.475,136.05 231.975,125.025 254.325,114.15 275.4,107.175 302.625,98.175 320.85,98.25 343.8,98.325 360.375,103.95 379.875,110.625 394.95,126.3 402.15,133.725 403.95,149.85 405.3,161.625 403.65,175.8 402.375,186.525 395.25,195.675 391.05,201 381.375,211.95 382.875,213.45 384.225,214.875 390.825,221.925 396,231.3 399.525,237.675 401.4,245.775 403.05,252.9 403.5,261.375 404.175,274.575 401.85,287.7 401.325,290.475 400.65,293.25 391.65,332.775 369,356.25 351.6,374.25 328.875,385.5 328.575,385.65 311.25,393.6 301.2,398.25 294.975,402.3 285.675,408.3 278.475,413.925 271.95,419.025 264,426.3 257.175,432.45 254.775,439.5 251.85,447.975 256.95,454.05 258.525,456 263.925,458.775 269.325,461.55 268.95,460.275 M298.5,199.8 Q312.975,188.925 334.2,189.6 354.9,190.275 369,201.3 376.35,207.075 381.375,211.95 M76.5,243.3 Q81.975,243.15 89.85,244.275 94.35,244.95 103.2,246.375 109.575,247.2 118.5,248.025 123.6,248.475 133.8,249.3 140.4,249.825 148.8,251.925 150.45,252.3 153.675,252.525 155.85,252.6 157.05,253.425 159.9,255.375 166.5,269.25 173.4,283.8 177,294.6 180.075,303.9 184.125,321.075 185.925,328.65 190.05,339.075 195.3,352.35 196.725,356.775 197.175,358.125 199.2,366.975 201.3,375.525 202.5,376.8 204.525,379.05 204.15,380.025 204.15,380.175 207.15,380.775 212.025,381.75 218.1,387.075 224.175,392.25 227.7,398.55 231.675,405.375 230.4,409.95 228.9,415.275 220.5,416.025 216.375,418.125 209.325,416.55 201.45,414.225 197.925,413.775 190.65,412.8 181.2,414.675 175.125,415.65 172.275,416.25 167.55,417.3 163.8,419.4 161.025,421.05 157.425,423.825 155.4,425.4 151.425,428.625 149.325,425.55 151.875,418.875 155.325,411.675 156.375,409.35 157.2,407.475 159.975,404.85 162.675,402.15 163.35,400.65 164.625,397.95 162.9,390.075 162.225,386.925 160.05,379.35 158.475,373.5 154.575,366.75 152.25,362.775 147,355.125 M162,397.275 Q161.475,397.65 153.525,401.1 147.225,403.8 145.425,406.575 142.425,411.375 141.9,415.65 141.075,422.775 144.45,436.275 144.825,437.775 145.275,439.2 146.25,442.275 147.6,445.2 149.175,448.725 151.35,452.025 152.7,454.125 162,465.75 M147,355.125 Q145.725,353.175 141.075,347.325 137.4,342.525 135.45,339.225 134.1,336.45 133.275,334.95 131.85,332.1 130.5,331.275 128.925,330.3 125.1,330.225 120.9,330.375 119.475,330.3 114.975,330.075 108.225,330.525 97.65,331.275 96.975,331.275 79.35,332.1 67.95,330.375 65.025,330 57.75,327.225 51.375,324.75 47.475,324.75 M177.45,465.3 Q174,465 170.4,461.325 167.4,458.25 165.45,454.275 163.275,449.7 162.375,445.35 162.375,445.275 162.375,445.2 161.625,441.825 161.85,439.2 161.925,437.625 162.375,436.35 164.85,428.775 172.05,424.05 176.025,421.425 186.45,417.3" test="LeftBum"/>
      <path id="Layer1_0_2_STROKES" stroke="#0FF" stroke-width="3" stroke-linejoin="round" stroke-linecap="round" fill="none" d="M187.95,150 L193.725,153.6 Q200.775,158.175 206.925,163.65 226.725,181.05 230.625,199.8 233.85,214.8 241.275,248.325 246.675,278.775 244.5,303.3 241.425,336.825 239.7,346.275 237,361.2 230.625,369.75 L219,385.8 M147,355.125 L144.45,392.25 162,397.275 M69,196.275 Q80.7,193.2 108.975,183.15 134.025,174.3 148.95,171.075 156.675,169.425 163.05,166.2 168,163.65 175.65,158.325 181.8,154.05 187.95,150" test="LeftBum"/>
    </g>
  </g>
</svg>