<?xml version="1.0" encoding="utf-8"?>
<svg id="EdithAnim08" image-rendering="inherit" baseProfile="basic" version="1.1" x="0px" y="0px" width="800" height="600" xmlns="http://www.w3.org/2000/svg" xmlns:xlink="http://www.w3.org/1999/xlink">
  <g id="No-Rear-To-Rearf296r1" overflow="visible">
    <g id="RightBum">
      <path id="Layer2_0_1_STROKES" stroke="#F0F" stroke-width="3" stroke-linejoin="round" stroke-linecap="round" fill="none" d="M645.575,168.075 L653.825,200.475 Q661.7,236.1 659.825,252.525 657.65,271.5 653.525,292.875 649.7,312.825 645.575,327.525 642.95,336.9 640.25,346.875 639.725,348.225 639.275,348.825 L663.8,342.75 M707.075,193.275 L625.7,156.975 M707.075,327.525 L735.575,323.775 M632.3,333.75 L633.05,336.825 Q634.7,342.825 636.575,347.1 638,350.325 639.275,348.825" test="RightBum"/>
      <path id="Layer2_0_2_STROKES" stroke="#F90" stroke-width="3" stroke-linejoin="round" stroke-linecap="round" fill="none" d="M663.8,342.75 L666.125,329.25 Q667.025,324 667.775,310.95 668.525,296.475 669.5,289.35 672.875,262.875 685.625,253.275 692.75,247.875 699.725,245.4 705.275,243.375 710.75,243.225 715.625,243.15 721.625,245.25 M625.7,156.975 Q540.875,119.025 521.075,111.225 508.625,106.35 497.975,103.95 486.8,101.475 477.725,101.775 458.675,102.45 444.125,115.275 428.45,128.925 420.875,146.925 412.85,166.125 416.75,184.275 420.05,199.875 431.675,209.625 437.525,214.5 442.775,216.525 459.725,205.875 476.6,205.275 M663.8,342.75 L656.15,387.225 Q656.675,388.05 656.075,387.6 L654.125,398.775 Q649.475,400.125 644.15,402.975 633.35,408.675 629.6,416.025 626.225,422.625 625.775,428.625 625.475,432.45 626.375,436.05 629.15,447.525 644.075,450.225 657.95,452.775 667.775,446.025 673.025,442.35 678.575,435.75 683,431.025 685.4,429.45 686.225,428.925 687.125,428.625 689.3,427.95 691.85,428.625 693.65,429.075 695.6,430.275 702.05,434.025 703.625,433.425 703.925,433.35 707.075,428.775 709.475,425.4 706.1,420.225 703.625,416.4 699.725,413.7 699.425,413.475 699.125,413.25 694.475,411.375 692.6,410.025 689.375,407.625 689.075,400.725 688.775,393.9 697.925,353.625 L707.075,314.775 710.375,314.925 Q715.625,315.075 725.6,314.775 M640.85,336.825 L634.025,333 Q633.125,333.375 632.3,333.75 627.5,335.775 625.1,336.825 629.9,351.375 646.325,374.025 650.075,379.2 655.1,385.8 655.775,386.7 656.15,387.225 L656.075,387.6 Q655.7,387.375 655.1,386.775 M625.1,336.825 Q619.025,339.6 616.25,342 612.8,344.925 612.125,348.9 610.775,356.4 619.1,368.325 629.45,383.1 651.575,398.775 M632.3,333.75 L631.775,331.725 634.025,333 Q635.45,332.4 637.1,331.725 M442.775,216.525 Q438.65,219.075 434.525,222.225 420.725,232.95 414.2,242.25 410.225,247.95 408.95,253.125 405.425,266.775 405.95,278.775 406.475,290.775 409.775,305.55 411.725,310.275 414.2,315.075 414.95,316.575 415.775,318.075 426.725,338.4 442.025,352.725 458.375,368.025 479.975,373.575 489.875,376.05 497.975,376.2 503.45,376.275 508.1,375.225 507.5,375.9 545.975,405.375 561.2,417.075 576.5,428.625 580.55,431.7 584.6,434.775 L575.6,448.275 M550.1,410.25 L539.6,421.725" test="RightBum"/>
    </g>
    <g id="LeftBum">
      <path id="Layer1_0_1_STROKES" stroke="#FEB7AE" stroke-width="3" stroke-linejoin="round" stroke-linecap="round" fill="none" d="M188.3,150 Q209.825,136.05 232.325,125.025 254.675,114.15 275.75,107.175 302.975,98.175 321.2,98.25 344.15,98.325 360.725,103.95 380.225,110.625 395.3,126.3 402.5,133.725 404.3,149.85 405.65,161.625 404,175.8 402.725,186.525 395.6,195.675 391.4,201 381.725,211.95 383.225,213.45 384.575,214.875 391.175,221.925 396.35,231.3 399.875,237.675 401.75,245.775 403.4,252.9 403.85,261.375 404.525,274.575 402.2,287.7 401.675,290.475 401,293.25 392,332.775 369.35,356.25 351.95,374.25 329.225,385.5 328.925,385.65 311.6,393.6 301.55,398.25 295.325,402.3 286.025,408.3 278.825,413.925 272.3,419.025 264.35,426.3 257.525,432.45 255.125,439.5 252.2,447.975 257.3,454.05 258.875,456 264.275,458.775 269.675,461.55 269.3,460.275 M298.85,199.8 Q313.325,188.925 334.55,189.6 355.25,190.275 369.35,201.3 376.7,207.075 381.725,211.95 M76.85,243.3 Q82.325,243.15 90.2,244.275 94.7,244.95 103.55,246.375 109.925,247.2 118.85,248.025 123.95,248.475 134.15,249.3 140.75,249.825 149.15,251.925 150.8,252.3 154.025,252.525 156.2,252.6 157.4,253.425 160.25,255.375 166.85,269.25 173.75,283.8 177.35,294.6 180.425,303.9 184.475,321.075 186.275,328.65 190.4,339.075 195.65,352.35 197.075,356.775 197.525,358.125 199.55,366.975 201.65,375.525 202.85,376.8 204.875,379.05 204.5,380.025 204.5,380.175 207.5,380.775 212.375,381.75 218.45,387.075 224.525,392.25 228.05,398.55 232.025,405.375 230.75,409.95 229.25,415.275 220.85,416.025 216.725,418.125 209.675,416.55 201.8,414.225 198.275,413.775 191,412.8 181.55,414.675 175.475,415.65 172.625,416.25 167.9,417.3 164.15,419.4 161.375,421.05 157.775,423.825 155.75,425.4 151.775,428.625 149.675,425.55 152.225,418.875 155.675,411.675 156.725,409.35 157.55,407.475 160.325,404.85 163.025,402.15 163.7,400.65 164.975,397.95 163.25,390.075 162.575,386.925 160.4,379.35 158.825,373.5 154.925,366.75 152.6,362.775 147.35,355.125 M162.35,397.275 Q161.825,397.65 153.875,401.1 147.575,403.8 145.775,406.575 142.775,411.375 142.25,415.65 141.425,422.775 144.8,436.275 145.175,437.775 145.625,439.2 146.6,442.275 147.95,445.2 149.525,448.725 151.7,452.025 153.05,454.125 162.35,465.75 M147.35,355.125 Q146.075,353.175 141.425,347.325 137.75,342.525 135.8,339.225 134.45,336.45 133.625,334.95 132.2,332.1 130.85,331.275 129.275,330.3 125.45,330.225 121.25,330.375 119.825,330.3 115.325,330.075 108.575,330.525 98,331.275 97.325,331.275 79.7,332.1 68.3,330.375 65.375,330 58.1,327.225 51.725,324.75 47.825,324.75 M177.8,465.3 Q174.35,465 170.75,461.325 167.75,458.25 165.8,454.275 163.625,449.7 162.725,445.35 162.725,445.275 162.725,445.2 161.975,441.825 162.2,439.2 162.275,437.625 162.725,436.35 165.2,428.775 172.4,424.05 176.375,421.425 186.8,417.3" test="LeftBum"/>
      <path id="Layer1_0_2_STROKES" stroke="#0FF" stroke-width="3" stroke-linejoin="round" stroke-linecap="round" fill="none" d="M188.3,150 L194.075,153.6 Q201.125,158.175 207.275,163.65 227.075,181.05 230.975,199.8 234.2,214.8 241.625,248.325 247.025,278.775 244.85,303.3 241.775,336.825 240.05,346.275 237.35,361.2 230.975,369.75 L219.35,385.8 M147.35,355.125 L144.8,392.25 162.35,397.275 M69.35,196.275 Q81.05,193.2 109.325,183.15 134.375,174.3 149.3,171.075 157.025,169.425 163.4,166.2 168.35,163.65 176,158.325 182.15,154.05 188.3,150" test="LeftBum"/>
    </g>
  </g>
</svg>