<?xml version="1.0" encoding="utf-8"?>
<svg id="EdithAnim08" image-rendering="inherit" baseProfile="basic" version="1.1" x="0px" y="0px" width="800" height="600" xmlns="http://www.w3.org/2000/svg" xmlns:xlink="http://www.w3.org/1999/xlink">
  <g id="No-Rear-To-Rearf297r1" overflow="visible">
    <g id="RightBum">
      <path id="Layer2_0_1_STROKES" stroke="#F0F" stroke-width="3" stroke-linejoin="round" stroke-linecap="round" fill="none" d="M645.275,168.075 L653.525,200.475 Q661.4,236.1 659.525,252.525 657.35,271.5 653.225,292.875 649.4,312.825 645.275,327.525 642.65,336.9 639.95,346.875 639.425,348.225 638.975,348.825 L663.5,342.75 M706.775,193.275 L625.4,156.975 M706.775,327.525 L735.275,323.775 M632,333.75 L632.75,336.825 Q634.4,342.825 636.275,347.1 637.7,350.325 638.975,348.825" test="RightBum"/>
      <path id="Layer2_0_2_STROKES" stroke="#F90" stroke-width="3" stroke-linejoin="round" stroke-linecap="round" fill="none" d="M663.5,342.75 L665.825,329.25 Q666.725,324 667.475,310.95 668.225,296.475 669.2,289.35 672.575,262.875 685.325,253.275 692.45,247.875 699.425,245.4 704.975,243.375 710.45,243.225 715.325,243.15 721.325,245.25 M625.4,156.975 Q540.575,119.025 520.775,111.225 508.325,106.35 497.675,103.95 486.5,101.475 477.425,101.775 458.375,102.45 443.825,115.275 428.15,128.925 420.575,146.925 412.55,166.125 416.45,184.275 419.75,199.875 431.375,209.625 437.225,214.5 442.475,216.525 459.425,205.875 476.3,205.275 M663.5,342.75 L655.85,387.225 Q656.375,388.05 655.775,387.6 L653.825,398.775 Q649.175,400.125 643.85,402.975 633.05,408.675 629.3,416.025 625.925,422.625 625.475,428.625 625.175,432.45 626.075,436.05 628.85,447.525 643.775,450.225 657.65,452.775 667.475,446.025 672.725,442.35 678.275,435.75 682.7,431.025 685.1,429.45 685.925,428.925 686.825,428.625 689,427.95 691.55,428.625 693.35,429.075 695.3,430.275 701.75,434.025 703.325,433.425 703.625,433.35 706.775,428.775 709.175,425.4 705.8,420.225 703.325,416.4 699.425,413.7 699.125,413.475 698.825,413.25 694.175,411.375 692.3,410.025 689.075,407.625 688.775,400.725 688.475,393.9 697.625,353.625 L706.775,314.775 710.075,314.925 Q715.325,315.075 725.3,314.775 M640.55,336.825 L633.725,333 Q632.825,333.375 632,333.75 627.2,335.775 624.8,336.825 629.6,351.375 646.025,374.025 649.775,379.2 654.8,385.8 655.475,386.7 655.85,387.225 L655.775,387.6 Q655.4,387.375 654.8,386.775 M624.8,336.825 Q618.725,339.6 615.95,342 612.5,344.925 611.825,348.9 610.475,356.4 618.8,368.325 629.15,383.1 651.275,398.775 M632,333.75 L631.475,331.725 633.725,333 Q635.15,332.4 636.8,331.725 M442.475,216.525 Q438.35,219.075 434.225,222.225 420.425,232.95 413.9,242.25 409.925,247.95 408.65,253.125 405.125,266.775 405.65,278.775 406.175,290.775 409.475,305.55 411.425,310.275 413.9,315.075 414.65,316.575 415.475,318.075 426.425,338.4 441.725,352.725 458.075,368.025 479.675,373.575 489.575,376.05 497.675,376.2 503.15,376.275 507.8,375.225 507.2,375.9 545.675,405.375 560.9,417.075 576.2,428.625 580.25,431.7 584.3,434.775 L575.3,448.275 M549.8,410.25 L539.3,421.725" test="RightBum"/>
    </g>
    <g id="LeftBum">
      <path id="Layer1_0_1_STROKES" stroke="#FEB7AE" stroke-width="3" stroke-linejoin="round" stroke-linecap="round" fill="none" d="M188.65,150 Q210.175,136.05 232.675,125.025 255.025,114.15 276.1,107.175 303.325,98.175 321.55,98.25 344.5,98.325 361.075,103.95 380.575,110.625 395.65,126.3 402.85,133.725 404.65,149.85 406,161.625 404.35,175.8 403.075,186.525 395.95,195.675 391.75,201 382.075,211.95 383.575,213.45 384.925,214.875 391.525,221.925 396.7,231.3 400.225,237.675 402.1,245.775 403.75,252.9 404.2,261.375 404.875,274.575 402.55,287.7 402.025,290.475 401.35,293.25 392.35,332.775 369.7,356.25 352.3,374.25 329.575,385.5 329.275,385.65 311.95,393.6 301.9,398.25 295.675,402.3 286.375,408.3 279.175,413.925 272.65,419.025 264.7,426.3 257.875,432.45 255.475,439.5 252.55,447.975 257.65,454.05 259.225,456 264.625,458.775 270.025,461.55 269.65,460.275 M299.2,199.8 Q313.675,188.925 334.9,189.6 355.6,190.275 369.7,201.3 377.05,207.075 382.075,211.95 M77.2,243.3 Q82.675,243.15 90.55,244.275 95.05,244.95 103.9,246.375 110.275,247.2 119.2,248.025 124.3,248.475 134.5,249.3 141.1,249.825 149.5,251.925 151.15,252.3 154.375,252.525 156.55,252.6 157.75,253.425 160.6,255.375 167.2,269.25 174.1,283.8 177.7,294.6 180.775,303.9 184.825,321.075 186.625,328.65 190.75,339.075 196,352.35 197.425,356.775 197.875,358.125 199.9,366.975 202,375.525 203.2,376.8 205.225,379.05 204.85,380.025 204.85,380.175 207.85,380.775 212.725,381.75 218.8,387.075 224.875,392.25 228.4,398.55 232.375,405.375 231.1,409.95 229.6,415.275 221.2,416.025 217.075,418.125 210.025,416.55 202.15,414.225 198.625,413.775 191.35,412.8 181.9,414.675 175.825,415.65 172.975,416.25 168.25,417.3 164.5,419.4 161.725,421.05 158.125,423.825 156.1,425.4 152.125,428.625 150.025,425.55 152.575,418.875 156.025,411.675 157.075,409.35 157.9,407.475 160.675,404.85 163.375,402.15 164.05,400.65 165.325,397.95 163.6,390.075 162.925,386.925 160.75,379.35 159.175,373.5 155.275,366.75 152.95,362.775 147.7,355.125 M162.7,397.275 Q162.175,397.65 154.225,401.1 147.925,403.8 146.125,406.575 143.125,411.375 142.6,415.65 141.775,422.775 145.15,436.275 145.525,437.775 145.975,439.2 146.95,442.275 148.3,445.2 149.875,448.725 152.05,452.025 153.4,454.125 162.7,465.75 M147.7,355.125 Q146.425,353.175 141.775,347.325 138.1,342.525 136.15,339.225 134.8,336.45 133.975,334.95 132.55,332.1 131.2,331.275 129.625,330.3 125.8,330.225 121.6,330.375 120.175,330.3 115.675,330.075 108.925,330.525 98.35,331.275 97.675,331.275 80.05,332.1 68.65,330.375 65.725,330 58.45,327.225 52.075,324.75 48.175,324.75 M178.15,465.3 Q174.7,465 171.1,461.325 168.1,458.25 166.15,454.275 163.975,449.7 163.075,445.35 163.075,445.275 163.075,445.2 162.325,441.825 162.55,439.2 162.625,437.625 163.075,436.35 165.55,428.775 172.75,424.05 176.725,421.425 187.15,417.3" test="LeftBum"/>
      <path id="Layer1_0_2_STROKES" stroke="#0FF" stroke-width="3" stroke-linejoin="round" stroke-linecap="round" fill="none" d="M188.65,150 L194.425,153.6 Q201.475,158.175 207.625,163.65 227.425,181.05 231.325,199.8 234.55,214.8 241.975,248.325 247.375,278.775 245.2,303.3 242.125,336.825 240.4,346.275 237.7,361.2 231.325,369.75 L219.7,385.8 M147.7,355.125 L145.15,392.25 162.7,397.275 M69.7,196.275 Q81.4,193.2 109.675,183.15 134.725,174.3 149.65,171.075 157.375,169.425 163.75,166.2 168.7,163.65 176.35,158.325 182.5,154.05 188.65,150" test="LeftBum"/>
    </g>
  </g>
</svg>