<?xml version="1.0" encoding="utf-8"?>
<svg id="EdithAnim08" image-rendering="inherit" baseProfile="basic" version="1.1" x="0px" y="0px" width="800" height="600" xmlns="http://www.w3.org/2000/svg" xmlns:xlink="http://www.w3.org/1999/xlink">
  <g id="No-Rear-To-Rearf298r1" overflow="visible">
    <g id="RightBum">
      <path id="Layer2_0_1_STROKES" stroke="#F0F" stroke-width="3" stroke-linejoin="round" stroke-linecap="round" fill="none" d="M644.925,168.075 L653.175,200.475 Q661.05,236.1 659.175,252.525 657,271.5 652.875,292.875 649.05,312.825 644.925,327.525 642.3,336.9 639.6,346.875 639.075,348.225 638.625,348.825 L663.15,342.75 M706.425,193.275 L625.05,156.975 M706.425,327.525 L734.925,323.775 M631.65,333.75 L632.4,336.825 Q634.05,342.825 635.925,347.1 637.35,350.325 638.625,348.825" test="RightBum"/>
      <path id="Layer2_0_2_STROKES" stroke="#F90" stroke-width="3" stroke-linejoin="round" stroke-linecap="round" fill="none" d="M663.15,342.75 L665.475,329.25 Q666.375,324 667.125,310.95 667.875,296.475 668.85,289.35 672.225,262.875 684.975,253.275 692.1,247.875 699.075,245.4 704.625,243.375 710.1,243.225 714.975,243.15 720.975,245.25 M625.05,156.975 Q540.225,119.025 520.425,111.225 507.975,106.35 497.325,103.95 486.15,101.475 477.075,101.775 458.025,102.45 443.475,115.275 427.8,128.925 420.225,146.925 412.2,166.125 416.1,184.275 419.4,199.875 431.025,209.625 436.875,214.5 442.125,216.525 459.075,205.875 475.95,205.275 M663.15,342.75 L655.5,387.225 Q656.025,388.05 655.425,387.6 L653.475,398.775 Q648.825,400.125 643.5,402.975 632.7,408.675 628.95,416.025 625.575,422.625 625.125,428.625 624.825,432.45 625.725,436.05 628.5,447.525 643.425,450.225 657.3,452.775 667.125,446.025 672.375,442.35 677.925,435.75 682.35,431.025 684.75,429.45 685.575,428.925 686.475,428.625 688.65,427.95 691.2,428.625 693,429.075 694.95,430.275 701.4,434.025 702.975,433.425 703.275,433.35 706.425,428.775 708.825,425.4 705.45,420.225 702.975,416.4 699.075,413.7 698.775,413.475 698.475,413.25 693.825,411.375 691.95,410.025 688.725,407.625 688.425,400.725 688.125,393.9 697.275,353.625 L706.425,314.775 709.725,314.925 Q714.975,315.075 724.95,314.775 M640.2,336.825 L633.375,333 Q632.475,333.375 631.65,333.75 626.85,335.775 624.45,336.825 629.25,351.375 645.675,374.025 649.425,379.2 654.45,385.8 655.125,386.7 655.5,387.225 L655.425,387.6 Q655.05,387.375 654.45,386.775 M624.45,336.825 Q618.375,339.6 615.6,342 612.15,344.925 611.475,348.9 610.125,356.4 618.45,368.325 628.8,383.1 650.925,398.775 M631.65,333.75 L631.125,331.725 633.375,333 Q634.8,332.4 636.45,331.725 M442.125,216.525 Q438,219.075 433.875,222.225 420.075,232.95 413.55,242.25 409.575,247.95 408.3,253.125 404.775,266.775 405.3,278.775 405.825,290.775 409.125,305.55 411.075,310.275 413.55,315.075 414.3,316.575 415.125,318.075 426.075,338.4 441.375,352.725 457.725,368.025 479.325,373.575 489.225,376.05 497.325,376.2 502.8,376.275 507.45,375.225 506.85,375.9 545.325,405.375 560.55,417.075 575.85,428.625 579.9,431.7 583.95,434.775 L574.95,448.275 M549.45,410.25 L538.95,421.725" test="RightBum"/>
    </g>
    <g id="LeftBum">
      <path id="Layer1_0_1_STROKES" stroke="#FEB7AE" stroke-width="3" stroke-linejoin="round" stroke-linecap="round" fill="none" d="M188.95,150 Q210.475,136.05 232.975,125.025 255.325,114.15 276.4,107.175 303.625,98.175 321.85,98.25 344.8,98.325 361.375,103.95 380.875,110.625 395.95,126.3 403.15,133.725 404.95,149.85 406.3,161.625 404.65,175.8 403.375,186.525 396.25,195.675 392.05,201 382.375,211.95 383.875,213.45 385.225,214.875 391.825,221.925 397,231.3 400.525,237.675 402.4,245.775 404.05,252.9 404.5,261.375 405.175,274.575 402.85,287.7 402.325,290.475 401.65,293.25 392.65,332.775 370,356.25 352.6,374.25 329.875,385.5 329.575,385.65 312.25,393.6 302.2,398.25 295.975,402.3 286.675,408.3 279.475,413.925 272.95,419.025 265,426.3 258.175,432.45 255.775,439.5 252.85,447.975 257.95,454.05 259.525,456 264.925,458.775 270.325,461.55 269.95,460.275 M299.5,199.8 Q313.975,188.925 335.2,189.6 355.9,190.275 370,201.3 377.35,207.075 382.375,211.95 M77.5,243.3 Q82.975,243.15 90.85,244.275 95.35,244.95 104.2,246.375 110.575,247.2 119.5,248.025 124.6,248.475 134.8,249.3 141.4,249.825 149.8,251.925 151.45,252.3 154.675,252.525 156.85,252.6 158.05,253.425 160.9,255.375 167.5,269.25 174.4,283.8 178,294.6 181.075,303.9 185.125,321.075 186.925,328.65 191.05,339.075 196.3,352.35 197.725,356.775 198.175,358.125 200.2,366.975 202.3,375.525 203.5,376.8 205.525,379.05 205.15,380.025 205.15,380.175 208.15,380.775 213.025,381.75 219.1,387.075 225.175,392.25 228.7,398.55 232.675,405.375 231.4,409.95 229.9,415.275 221.5,416.025 217.375,418.125 210.325,416.55 202.45,414.225 198.925,413.775 191.65,412.8 182.2,414.675 176.125,415.65 173.275,416.25 168.55,417.3 164.8,419.4 162.025,421.05 158.425,423.825 156.4,425.4 152.425,428.625 150.325,425.55 152.875,418.875 156.325,411.675 157.375,409.35 158.2,407.475 160.975,404.85 163.675,402.15 164.35,400.65 165.625,397.95 163.9,390.075 163.225,386.925 161.05,379.35 159.475,373.5 155.575,366.75 153.25,362.775 148,355.125 M163,397.275 Q162.475,397.65 154.525,401.1 148.225,403.8 146.425,406.575 143.425,411.375 142.9,415.65 142.075,422.775 145.45,436.275 145.825,437.775 146.275,439.2 147.25,442.275 148.6,445.2 150.175,448.725 152.35,452.025 153.7,454.125 163,465.75 M148,355.125 Q146.725,353.175 142.075,347.325 138.4,342.525 136.45,339.225 135.1,336.45 134.275,334.95 132.85,332.1 131.5,331.275 129.925,330.3 126.1,330.225 121.9,330.375 120.475,330.3 115.975,330.075 109.225,330.525 98.65,331.275 97.975,331.275 80.35,332.1 68.95,330.375 66.025,330 58.75,327.225 52.375,324.75 48.475,324.75 M178.45,465.3 Q175,465 171.4,461.325 168.4,458.25 166.45,454.275 164.275,449.7 163.375,445.35 163.375,445.275 163.375,445.2 162.625,441.825 162.85,439.2 162.925,437.625 163.375,436.35 165.85,428.775 173.05,424.05 177.025,421.425 187.45,417.3" test="LeftBum"/>
      <path id="Layer1_0_2_STROKES" stroke="#0FF" stroke-width="3" stroke-linejoin="round" stroke-linecap="round" fill="none" d="M188.95,150 L194.725,153.6 Q201.775,158.175 207.925,163.65 227.725,181.05 231.625,199.8 234.85,214.8 242.275,248.325 247.675,278.775 245.5,303.3 242.425,336.825 240.7,346.275 238,361.2 231.625,369.75 L220,385.8 M148,355.125 L145.45,392.25 163,397.275 M70,196.275 Q81.7,193.2 109.975,183.15 135.025,174.3 149.95,171.075 157.675,169.425 164.05,166.2 169,163.65 176.65,158.325 182.8,154.05 188.95,150" test="LeftBum"/>
    </g>
  </g>
</svg>