<?xml version="1.0" encoding="utf-8"?>
<svg id="EdithAnim08" image-rendering="inherit" baseProfile="basic" version="1.1" x="0px" y="0px" width="800" height="600" xmlns="http://www.w3.org/2000/svg" xmlns:xlink="http://www.w3.org/1999/xlink">
  <g id="No-Rear-To-Rearf3r1" overflow="visible">
    <g id="RightBum">
      <path id="Layer2_0_1_STROKES" stroke="#F0F" stroke-width="3" stroke-linejoin="round" stroke-linecap="round" fill="none" d="M1042.475,168.075 L1050.725,200.475 Q1058.6,236.1 1056.725,252.525 1054.55,271.5 1050.425,292.875 1046.6,312.825 1042.475,327.525 1039.85,336.9 1037.15,346.875 1036.625,348.225 1036.175,348.825 L1060.7,342.75 M1103.975,193.275 L1022.6,156.975 M1103.975,327.525 L1132.475,323.775 M1029.2,333.75 L1029.95,336.825 Q1031.6,342.825 1033.475,347.1 1034.9,350.325 1036.175,348.825" test="RightBum"/>
      <path id="Layer2_0_2_STROKES" stroke="#F90" stroke-width="3" stroke-linejoin="round" stroke-linecap="round" fill="none" d="M1060.7,342.75 L1063.025,329.25 Q1063.925,324 1064.675,310.95 1065.425,296.475 1066.4,289.35 1069.775,262.875 1082.525,253.275 1089.65,247.875 1096.625,245.4 1102.175,243.375 1107.65,243.225 1112.525,243.15 1118.525,245.25 M1022.6,156.975 Q937.775,119.025 917.975,111.225 905.525,106.35 894.875,103.95 883.7,101.475 874.625,101.775 855.575,102.45 841.025,115.275 825.35,128.925 817.775,146.925 809.75,166.125 813.65,184.275 816.95,199.875 828.575,209.625 834.425,214.5 839.675,216.525 856.625,205.875 873.5,205.275 M1060.7,342.75 L1053.05,387.225 Q1053.575,388.05 1052.975,387.6 L1051.025,398.775 Q1046.375,400.125 1041.05,402.975 1030.25,408.675 1026.5,416.025 1023.125,422.625 1022.675,428.625 1022.375,432.45 1023.275,436.05 1026.05,447.525 1040.975,450.225 1054.85,452.775 1064.675,446.025 1069.925,442.35 1075.475,435.75 1079.9,431.025 1082.3,429.45 1083.125,428.925 1084.025,428.625 1086.2,427.95 1088.75,428.625 1090.55,429.075 1092.5,430.275 1098.95,434.025 1100.525,433.425 1100.825,433.35 1103.975,428.775 1106.375,425.4 1103,420.225 1100.525,416.4 1096.625,413.7 1096.325,413.475 1096.025,413.25 1091.375,411.375 1089.5,410.025 1086.275,407.625 1085.975,400.725 1085.675,393.9 1094.825,353.625 L1103.975,314.775 1107.275,314.925 Q1112.525,315.075 1122.5,314.775 M1037.75,336.825 L1030.925,333 Q1030.025,333.375 1029.2,333.75 1024.4,335.775 1022,336.825 1026.8,351.375 1043.225,374.025 1046.975,379.2 1052,385.8 1052.675,386.7 1053.05,387.225 L1052.975,387.6 Q1052.6,387.375 1052,386.775 M1022,336.825 Q1015.925,339.6 1013.15,342 1009.7,344.925 1009.025,348.9 1007.675,356.4 1016,368.325 1026.35,383.1 1048.475,398.775 M1029.2,333.75 L1028.675,331.725 1030.925,333 Q1032.35,332.4 1034,331.725 M839.675,216.525 Q835.55,219.075 831.425,222.225 817.625,232.95 811.1,242.25 807.125,247.95 805.85,253.125 802.325,266.775 802.85,278.775 803.375,290.775 806.675,305.55 808.625,310.275 811.1,315.075 811.85,316.575 812.675,318.075 823.625,338.4 838.925,352.725 855.275,368.025 876.875,373.575 886.775,376.05 894.875,376.2 900.35,376.275 905,375.225 904.4,375.9 942.875,405.375 958.1,417.075 973.4,428.625 977.45,431.7 981.5,434.775 L972.5,448.275 M947,410.25 L936.5,421.725" test="RightBum"/>
    </g>
    <g id="LeftBum">
      <path id="Layer1_0_1_STROKES" stroke="#FEB7AE" stroke-width="3" stroke-linejoin="round" stroke-linecap="round" fill="none" d="M-215,150 Q-193.475,136.05 -170.975,125.025 -148.625,114.15 -127.55,107.175 -100.325,98.175 -82.1,98.25 -59.15,98.325 -42.575,103.95 -23.075,110.625 -8,126.3 -.8,133.725 1,149.85 2.35,161.625 .7,175.8 -.575,186.525 -7.7,195.675 -11.9,201 -21.575,211.95 -20.075,213.45 -18.725,214.875 -12.125,221.925 -6.95,231.3 -3.425,237.675 -1.55,245.775 .1,252.9 .55,261.375 1.225,274.575 -1.1,287.7 -1.625,290.475 -2.3,293.25 -11.3,332.775 -33.95,356.25 -51.35,374.25 -74.075,385.5 -74.375,385.65 -91.7,393.6 -101.75,398.25 -107.975,402.3 -117.275,408.3 -124.475,413.925 -131,419.025 -138.95,426.3 -145.775,432.45 -148.175,439.5 -151.1,447.975 -146,454.05 -144.425,456 -139.025,458.775 -133.625,461.55 -134,460.275 M-104.45,199.8 Q-89.975,188.925 -68.75,189.6 -48.05,190.275 -33.95,201.3 -26.6,207.075 -21.575,211.95 M-326.45,243.3 Q-320.975,243.15 -313.1,244.275 -308.6,244.95 -299.75,246.375 -293.375,247.2 -284.45,248.025 -279.35,248.475 -269.15,249.3 -262.55,249.825 -254.15,251.925 -252.5,252.3 -249.275,252.525 -247.1,252.6 -245.9,253.425 -243.05,255.375 -236.45,269.25 -229.55,283.8 -225.95,294.6 -222.875,303.9 -218.825,321.075 -217.025,328.65 -212.9,339.075 -207.65,352.35 -206.225,356.775 -205.775,358.125 -203.75,366.975 -201.65,375.525 -200.45,376.8 -198.425,379.05 -198.8,380.025 -198.8,380.175 -195.8,380.775 -190.925,381.75 -184.85,387.075 -178.775,392.25 -175.25,398.55 -171.275,405.375 -172.55,409.95 -174.05,415.275 -182.45,416.025 -186.575,418.125 -193.625,416.55 -201.5,414.225 -205.025,413.775 -212.3,412.8 -221.75,414.675 -227.825,415.65 -230.675,416.25 -235.4,417.3 -239.15,419.4 -241.925,421.05 -245.525,423.825 -247.55,425.4 -251.525,428.625 -253.625,425.55 -251.075,418.875 -247.625,411.675 -246.575,409.35 -245.75,407.475 -242.975,404.85 -240.275,402.15 -239.6,400.65 -238.325,397.95 -240.05,390.075 -240.725,386.925 -242.9,379.35 -244.475,373.5 -248.375,366.75 -250.7,362.775 -255.95,355.125 M-240.95,397.275 Q-241.475,397.65 -249.425,401.1 -255.725,403.8 -257.525,406.575 -260.525,411.375 -261.05,415.65 -261.875,422.775 -258.5,436.275 -258.125,437.775 -257.675,439.2 -256.7,442.275 -255.35,445.2 -253.775,448.725 -251.6,452.025 -250.25,454.125 -240.95,465.75 M-255.95,355.125 Q-257.225,353.175 -261.875,347.325 -265.55,342.525 -267.5,339.225 -268.85,336.45 -269.675,334.95 -271.1,332.1 -272.45,331.275 -274.025,330.3 -277.85,330.225 -282.05,330.375 -283.475,330.3 -287.975,330.075 -294.725,330.525 -305.3,331.275 -305.975,331.275 -323.6,332.1 -335,330.375 -337.925,330 -345.2,327.225 -351.575,324.75 -355.475,324.75 M-225.5,465.3 Q-228.95,465 -232.55,461.325 -235.55,458.25 -237.5,454.275 -239.675,449.7 -240.575,445.35 -240.575,445.275 -240.575,445.2 -241.325,441.825 -241.1,439.2 -241.025,437.625 -240.575,436.35 -238.1,428.775 -230.9,424.05 -226.925,421.425 -216.5,417.3" test="LeftBum"/>
      <path id="Layer1_0_2_STROKES" stroke="#0FF" stroke-width="3" stroke-linejoin="round" stroke-linecap="round" fill="none" d="M-215,150 L-209.225,153.6 Q-202.175,158.175 -196.025,163.65 -176.225,181.05 -172.325,199.8 -169.1,214.8 -161.675,248.325 -156.275,278.775 -158.45,303.3 -161.525,336.825 -163.25,346.275 -165.95,361.2 -172.325,369.75 L-183.95,385.8 M-255.95,355.125 L-258.5,392.25 -240.95,397.275 M-333.95,196.275 Q-322.25,193.2 -293.975,183.15 -268.925,174.3 -254,171.075 -246.275,169.425 -239.9,166.2 -234.95,163.65 -227.3,158.325 -221.15,154.05 -215,150" test="LeftBum"/>
    </g>
  </g>
</svg>