<?xml version="1.0" encoding="utf-8"?>
<svg id="EdithAnim08" image-rendering="inherit" baseProfile="basic" version="1.1" x="0px" y="0px" width="800" height="600" xmlns="http://www.w3.org/2000/svg" xmlns:xlink="http://www.w3.org/1999/xlink">
  <g id="No-Rear-To-Rearf30r1" overflow="visible">
    <g id="RightBum">
      <path id="Layer2_0_1_STROKES" stroke="#F0F" stroke-width="3" stroke-linejoin="round" stroke-linecap="round" fill="none" d="M980.825,168.075 L989.075,200.475 Q996.95,236.1 995.075,252.525 992.9,271.5 988.775,292.875 984.95,312.825 980.825,327.525 978.2,336.9 975.5,346.875 974.975,348.225 974.525,348.825 L999.05,342.75 M1042.325,193.275 L960.95,156.975 M1042.325,327.525 L1070.825,323.775 M967.55,333.75 L968.3,336.825 Q969.95,342.825 971.825,347.1 973.25,350.325 974.525,348.825" test="RightBum"/>
      <path id="Layer2_0_2_STROKES" stroke="#F90" stroke-width="3" stroke-linejoin="round" stroke-linecap="round" fill="none" d="M999.05,342.75 L1001.375,329.25 Q1002.275,324 1003.025,310.95 1003.775,296.475 1004.75,289.35 1008.125,262.875 1020.875,253.275 1028,247.875 1034.975,245.4 1040.525,243.375 1046,243.225 1050.875,243.15 1056.875,245.25 M960.95,156.975 Q876.125,119.025 856.325,111.225 843.875,106.35 833.225,103.95 822.05,101.475 812.975,101.775 793.925,102.45 779.375,115.275 763.7,128.925 756.125,146.925 748.1,166.125 752,184.275 755.3,199.875 766.925,209.625 772.775,214.5 778.025,216.525 794.975,205.875 811.85,205.275 M999.05,342.75 L991.4,387.225 Q991.925,388.05 991.325,387.6 L989.375,398.775 Q984.725,400.125 979.4,402.975 968.6,408.675 964.85,416.025 961.475,422.625 961.025,428.625 960.725,432.45 961.625,436.05 964.4,447.525 979.325,450.225 993.2,452.775 1003.025,446.025 1008.275,442.35 1013.825,435.75 1018.25,431.025 1020.65,429.45 1021.475,428.925 1022.375,428.625 1024.55,427.95 1027.1,428.625 1028.9,429.075 1030.85,430.275 1037.3,434.025 1038.875,433.425 1039.175,433.35 1042.325,428.775 1044.725,425.4 1041.35,420.225 1038.875,416.4 1034.975,413.7 1034.675,413.475 1034.375,413.25 1029.725,411.375 1027.85,410.025 1024.625,407.625 1024.325,400.725 1024.025,393.9 1033.175,353.625 L1042.325,314.775 1045.625,314.925 Q1050.875,315.075 1060.85,314.775 M976.1,336.825 L969.275,333 Q968.375,333.375 967.55,333.75 962.75,335.775 960.35,336.825 965.15,351.375 981.575,374.025 985.325,379.2 990.35,385.8 991.025,386.7 991.4,387.225 L991.325,387.6 Q990.95,387.375 990.35,386.775 M960.35,336.825 Q954.275,339.6 951.5,342 948.05,344.925 947.375,348.9 946.025,356.4 954.35,368.325 964.7,383.1 986.825,398.775 M967.55,333.75 L967.025,331.725 969.275,333 Q970.7,332.4 972.35,331.725 M778.025,216.525 Q773.9,219.075 769.775,222.225 755.975,232.95 749.45,242.25 745.475,247.95 744.2,253.125 740.675,266.775 741.2,278.775 741.725,290.775 745.025,305.55 746.975,310.275 749.45,315.075 750.2,316.575 751.025,318.075 761.975,338.4 777.275,352.725 793.625,368.025 815.225,373.575 825.125,376.05 833.225,376.2 838.7,376.275 843.35,375.225 842.75,375.9 881.225,405.375 896.45,417.075 911.75,428.625 915.8,431.7 919.85,434.775 L910.85,448.275 M885.35,410.25 L874.85,421.725" test="RightBum"/>
    </g>
    <g id="LeftBum">
      <path id="Layer1_0_1_STROKES" stroke="#FEB7AE" stroke-width="3" stroke-linejoin="round" stroke-linecap="round" fill="none" d="M-152.35,150 Q-130.825,136.05 -108.325,125.025 -85.975,114.15 -64.9,107.175 -37.675,98.175 -19.45,98.25 3.5,98.325 20.075,103.95 39.575,110.625 54.65,126.3 61.85,133.725 63.65,149.85 65,161.625 63.35,175.8 62.075,186.525 54.95,195.675 50.75,201 41.075,211.95 42.575,213.45 43.925,214.875 50.525,221.925 55.7,231.3 59.225,237.675 61.1,245.775 62.75,252.9 63.2,261.375 63.875,274.575 61.55,287.7 61.025,290.475 60.35,293.25 51.35,332.775 28.7,356.25 11.3,374.25 -11.425,385.5 -11.725,385.65 -29.05,393.6 -39.1,398.25 -45.325,402.3 -54.625,408.3 -61.825,413.925 -68.35,419.025 -76.3,426.3 -83.125,432.45 -85.525,439.5 -88.45,447.975 -83.35,454.05 -81.775,456 -76.375,458.775 -70.975,461.55 -71.35,460.275 M-41.8,199.8 Q-27.325,188.925 -6.1,189.6 14.6,190.275 28.7,201.3 36.05,207.075 41.075,211.95 M-263.8,243.3 Q-258.325,243.15 -250.45,244.275 -245.95,244.95 -237.1,246.375 -230.725,247.2 -221.8,248.025 -216.7,248.475 -206.5,249.3 -199.9,249.825 -191.5,251.925 -189.85,252.3 -186.625,252.525 -184.45,252.6 -183.25,253.425 -180.4,255.375 -173.8,269.25 -166.9,283.8 -163.3,294.6 -160.225,303.9 -156.175,321.075 -154.375,328.65 -150.25,339.075 -145,352.35 -143.575,356.775 -143.125,358.125 -141.1,366.975 -139,375.525 -137.8,376.8 -135.775,379.05 -136.15,380.025 -136.15,380.175 -133.15,380.775 -128.275,381.75 -122.2,387.075 -116.125,392.25 -112.6,398.55 -108.625,405.375 -109.9,409.95 -111.4,415.275 -119.8,416.025 -123.925,418.125 -130.975,416.55 -138.85,414.225 -142.375,413.775 -149.65,412.8 -159.1,414.675 -165.175,415.65 -168.025,416.25 -172.75,417.3 -176.5,419.4 -179.275,421.05 -182.875,423.825 -184.9,425.4 -188.875,428.625 -190.975,425.55 -188.425,418.875 -184.975,411.675 -183.925,409.35 -183.1,407.475 -180.325,404.85 -177.625,402.15 -176.95,400.65 -175.675,397.95 -177.4,390.075 -178.075,386.925 -180.25,379.35 -181.825,373.5 -185.725,366.75 -188.05,362.775 -193.3,355.125 M-178.3,397.275 Q-178.825,397.65 -186.775,401.1 -193.075,403.8 -194.875,406.575 -197.875,411.375 -198.4,415.65 -199.225,422.775 -195.85,436.275 -195.475,437.775 -195.025,439.2 -194.05,442.275 -192.7,445.2 -191.125,448.725 -188.95,452.025 -187.6,454.125 -178.3,465.75 M-193.3,355.125 Q-194.575,353.175 -199.225,347.325 -202.9,342.525 -204.85,339.225 -206.2,336.45 -207.025,334.95 -208.45,332.1 -209.8,331.275 -211.375,330.3 -215.2,330.225 -219.4,330.375 -220.825,330.3 -225.325,330.075 -232.075,330.525 -242.65,331.275 -243.325,331.275 -260.95,332.1 -272.35,330.375 -275.275,330 -282.55,327.225 -288.925,324.75 -292.825,324.75 M-162.85,465.3 Q-166.3,465 -169.9,461.325 -172.9,458.25 -174.85,454.275 -177.025,449.7 -177.925,445.35 -177.925,445.275 -177.925,445.2 -178.675,441.825 -178.45,439.2 -178.375,437.625 -177.925,436.35 -175.45,428.775 -168.25,424.05 -164.275,421.425 -153.85,417.3" test="LeftBum"/>
      <path id="Layer1_0_2_STROKES" stroke="#0FF" stroke-width="3" stroke-linejoin="round" stroke-linecap="round" fill="none" d="M-152.35,150 L-146.575,153.6 Q-139.525,158.175 -133.375,163.65 -113.575,181.05 -109.675,199.8 -106.45,214.8 -99.025,248.325 -93.625,278.775 -95.8,303.3 -98.875,336.825 -100.6,346.275 -103.3,361.2 -109.675,369.75 L-121.3,385.8 M-193.3,355.125 L-195.85,392.25 -178.3,397.275 M-271.3,196.275 Q-259.6,193.2 -231.325,183.15 -206.275,174.3 -191.35,171.075 -183.625,169.425 -177.25,166.2 -172.3,163.65 -164.65,158.325 -158.5,154.05 -152.35,150" test="LeftBum"/>
    </g>
  </g>
</svg>