<?xml version="1.0" encoding="utf-8"?>
<svg id="EdithAnim08" image-rendering="inherit" baseProfile="basic" version="1.1" x="0px" y="0px" width="800" height="600" xmlns="http://www.w3.org/2000/svg" xmlns:xlink="http://www.w3.org/1999/xlink">
  <g id="No-Rear-To-Rearf31r1" overflow="visible">
    <g id="RightBum">
      <path id="Layer2_0_1_STROKES" stroke="#F0F" stroke-width="3" stroke-linejoin="round" stroke-linecap="round" fill="none" d="M978.675,168.075 L986.925,200.475 Q994.8,236.1 992.925,252.525 990.75,271.5 986.625,292.875 982.8,312.825 978.675,327.525 976.05,336.9 973.35,346.875 972.825,348.225 972.375,348.825 L996.9,342.75 M1040.175,193.275 L958.8,156.975 M1040.175,327.525 L1068.675,323.775 M965.4,333.75 L966.15,336.825 Q967.8,342.825 969.675,347.1 971.1,350.325 972.375,348.825" test="RightBum"/>
      <path id="Layer2_0_2_STROKES" stroke="#F90" stroke-width="3" stroke-linejoin="round" stroke-linecap="round" fill="none" d="M996.9,342.75 L999.225,329.25 Q1000.125,324 1000.875,310.95 1001.625,296.475 1002.6,289.35 1005.975,262.875 1018.725,253.275 1025.85,247.875 1032.825,245.4 1038.375,243.375 1043.85,243.225 1048.725,243.15 1054.725,245.25 M958.8,156.975 Q873.975,119.025 854.175,111.225 841.725,106.35 831.075,103.95 819.9,101.475 810.825,101.775 791.775,102.45 777.225,115.275 761.55,128.925 753.975,146.925 745.95,166.125 749.85,184.275 753.15,199.875 764.775,209.625 770.625,214.5 775.875,216.525 792.825,205.875 809.7,205.275 M996.9,342.75 L989.25,387.225 Q989.775,388.05 989.175,387.6 L987.225,398.775 Q982.575,400.125 977.25,402.975 966.45,408.675 962.7,416.025 959.325,422.625 958.875,428.625 958.575,432.45 959.475,436.05 962.25,447.525 977.175,450.225 991.05,452.775 1000.875,446.025 1006.125,442.35 1011.675,435.75 1016.1,431.025 1018.5,429.45 1019.325,428.925 1020.225,428.625 1022.4,427.95 1024.95,428.625 1026.75,429.075 1028.7,430.275 1035.15,434.025 1036.725,433.425 1037.025,433.35 1040.175,428.775 1042.575,425.4 1039.2,420.225 1036.725,416.4 1032.825,413.7 1032.525,413.475 1032.225,413.25 1027.575,411.375 1025.7,410.025 1022.475,407.625 1022.175,400.725 1021.875,393.9 1031.025,353.625 L1040.175,314.775 1043.475,314.925 Q1048.725,315.075 1058.7,314.775 M973.95,336.825 L967.125,333 Q966.225,333.375 965.4,333.75 960.6,335.775 958.2,336.825 963,351.375 979.425,374.025 983.175,379.2 988.2,385.8 988.875,386.7 989.25,387.225 L989.175,387.6 Q988.8,387.375 988.2,386.775 M958.2,336.825 Q952.125,339.6 949.35,342 945.9,344.925 945.225,348.9 943.875,356.4 952.2,368.325 962.55,383.1 984.675,398.775 M965.4,333.75 L964.875,331.725 967.125,333 Q968.55,332.4 970.2,331.725 M775.875,216.525 Q771.75,219.075 767.625,222.225 753.825,232.95 747.3,242.25 743.325,247.95 742.05,253.125 738.525,266.775 739.05,278.775 739.575,290.775 742.875,305.55 744.825,310.275 747.3,315.075 748.05,316.575 748.875,318.075 759.825,338.4 775.125,352.725 791.475,368.025 813.075,373.575 822.975,376.05 831.075,376.2 836.55,376.275 841.2,375.225 840.6,375.9 879.075,405.375 894.3,417.075 909.6,428.625 913.65,431.7 917.7,434.775 L908.7,448.275 M883.2,410.25 L872.7,421.725" test="RightBum"/>
    </g>
    <g id="LeftBum">
      <path id="Layer1_0_1_STROKES" stroke="#FEB7AE" stroke-width="3" stroke-linejoin="round" stroke-linecap="round" fill="none" d="M-150.15,150 Q-128.625,136.05 -106.125,125.025 -83.775,114.15 -62.7,107.175 -35.475,98.175 -17.25,98.25 5.7,98.325 22.275,103.95 41.775,110.625 56.85,126.3 64.05,133.725 65.85,149.85 67.2,161.625 65.55,175.8 64.275,186.525 57.15,195.675 52.95,201 43.275,211.95 44.775,213.45 46.125,214.875 52.725,221.925 57.9,231.3 61.425,237.675 63.3,245.775 64.95,252.9 65.4,261.375 66.075,274.575 63.75,287.7 63.225,290.475 62.55,293.25 53.55,332.775 30.9,356.25 13.5,374.25 -9.225,385.5 -9.525,385.65 -26.85,393.6 -36.9,398.25 -43.125,402.3 -52.425,408.3 -59.625,413.925 -66.15,419.025 -74.1,426.3 -80.925,432.45 -83.325,439.5 -86.25,447.975 -81.15,454.05 -79.575,456 -74.175,458.775 -68.775,461.55 -69.15,460.275 M-39.6,199.8 Q-25.125,188.925 -3.9,189.6 16.8,190.275 30.9,201.3 38.25,207.075 43.275,211.95 M-261.6,243.3 Q-256.125,243.15 -248.25,244.275 -243.75,244.95 -234.9,246.375 -228.525,247.2 -219.6,248.025 -214.5,248.475 -204.3,249.3 -197.7,249.825 -189.3,251.925 -187.65,252.3 -184.425,252.525 -182.25,252.6 -181.05,253.425 -178.2,255.375 -171.6,269.25 -164.7,283.8 -161.1,294.6 -158.025,303.9 -153.975,321.075 -152.175,328.65 -148.05,339.075 -142.8,352.35 -141.375,356.775 -140.925,358.125 -138.9,366.975 -136.8,375.525 -135.6,376.8 -133.575,379.05 -133.95,380.025 -133.95,380.175 -130.95,380.775 -126.075,381.75 -120,387.075 -113.925,392.25 -110.4,398.55 -106.425,405.375 -107.7,409.95 -109.2,415.275 -117.6,416.025 -121.725,418.125 -128.775,416.55 -136.65,414.225 -140.175,413.775 -147.45,412.8 -156.9,414.675 -162.975,415.65 -165.825,416.25 -170.55,417.3 -174.3,419.4 -177.075,421.05 -180.675,423.825 -182.7,425.4 -186.675,428.625 -188.775,425.55 -186.225,418.875 -182.775,411.675 -181.725,409.35 -180.9,407.475 -178.125,404.85 -175.425,402.15 -174.75,400.65 -173.475,397.95 -175.2,390.075 -175.875,386.925 -178.05,379.35 -179.625,373.5 -183.525,366.75 -185.85,362.775 -191.1,355.125 M-176.1,397.275 Q-176.625,397.65 -184.575,401.1 -190.875,403.8 -192.675,406.575 -195.675,411.375 -196.2,415.65 -197.025,422.775 -193.65,436.275 -193.275,437.775 -192.825,439.2 -191.85,442.275 -190.5,445.2 -188.925,448.725 -186.75,452.025 -185.4,454.125 -176.1,465.75 M-191.1,355.125 Q-192.375,353.175 -197.025,347.325 -200.7,342.525 -202.65,339.225 -204,336.45 -204.825,334.95 -206.25,332.1 -207.6,331.275 -209.175,330.3 -213,330.225 -217.2,330.375 -218.625,330.3 -223.125,330.075 -229.875,330.525 -240.45,331.275 -241.125,331.275 -258.75,332.1 -270.15,330.375 -273.075,330 -280.35,327.225 -286.725,324.75 -290.625,324.75 M-160.65,465.3 Q-164.1,465 -167.7,461.325 -170.7,458.25 -172.65,454.275 -174.825,449.7 -175.725,445.35 -175.725,445.275 -175.725,445.2 -176.475,441.825 -176.25,439.2 -176.175,437.625 -175.725,436.35 -173.25,428.775 -166.05,424.05 -162.075,421.425 -151.65,417.3" test="LeftBum"/>
      <path id="Layer1_0_2_STROKES" stroke="#0FF" stroke-width="3" stroke-linejoin="round" stroke-linecap="round" fill="none" d="M-150.15,150 L-144.375,153.6 Q-137.325,158.175 -131.175,163.65 -111.375,181.05 -107.475,199.8 -104.25,214.8 -96.825,248.325 -91.425,278.775 -93.6,303.3 -96.675,336.825 -98.4,346.275 -101.1,361.2 -107.475,369.75 L-119.1,385.8 M-191.1,355.125 L-193.65,392.25 -176.1,397.275 M-269.1,196.275 Q-257.4,193.2 -229.125,183.15 -204.075,174.3 -189.15,171.075 -181.425,169.425 -175.05,166.2 -170.1,163.65 -162.45,158.325 -156.3,154.05 -150.15,150" test="LeftBum"/>
    </g>
  </g>
</svg>