<?xml version="1.0" encoding="utf-8"?>
<svg id="EdithAnim08" image-rendering="inherit" baseProfile="basic" version="1.1" x="0px" y="0px" width="800" height="600" xmlns="http://www.w3.org/2000/svg" xmlns:xlink="http://www.w3.org/1999/xlink">
  <g id="No-Rear-To-Rearf35r1" overflow="visible">
    <g id="RightBum">
      <path id="Layer2_0_1_STROKES" stroke="#F0F" stroke-width="3" stroke-linejoin="round" stroke-linecap="round" fill="none" d="M969.975,168.075 L978.225,200.475 Q986.1,236.1 984.225,252.525 982.05,271.5 977.925,292.875 974.1,312.825 969.975,327.525 967.35,336.9 964.65,346.875 964.125,348.225 963.675,348.825 L988.2,342.75 M1031.475,193.275 L950.1,156.975 M1031.475,327.525 L1059.975,323.775 M956.7,333.75 L957.45,336.825 Q959.1,342.825 960.975,347.1 962.4,350.325 963.675,348.825" test="RightBum"/>
      <path id="Layer2_0_2_STROKES" stroke="#F90" stroke-width="3" stroke-linejoin="round" stroke-linecap="round" fill="none" d="M988.2,342.75 L990.525,329.25 Q991.425,324 992.175,310.95 992.925,296.475 993.9,289.35 997.275,262.875 1010.025,253.275 1017.15,247.875 1024.125,245.4 1029.675,243.375 1035.15,243.225 1040.025,243.15 1046.025,245.25 M950.1,156.975 Q865.275,119.025 845.475,111.225 833.025,106.35 822.375,103.95 811.2,101.475 802.125,101.775 783.075,102.45 768.525,115.275 752.85,128.925 745.275,146.925 737.25,166.125 741.15,184.275 744.45,199.875 756.075,209.625 761.925,214.5 767.175,216.525 784.125,205.875 801,205.275 M988.2,342.75 L980.55,387.225 Q981.075,388.05 980.475,387.6 L978.525,398.775 Q973.875,400.125 968.55,402.975 957.75,408.675 954,416.025 950.625,422.625 950.175,428.625 949.875,432.45 950.775,436.05 953.55,447.525 968.475,450.225 982.35,452.775 992.175,446.025 997.425,442.35 1002.975,435.75 1007.4,431.025 1009.8,429.45 1010.625,428.925 1011.525,428.625 1013.7,427.95 1016.25,428.625 1018.05,429.075 1020,430.275 1026.45,434.025 1028.025,433.425 1028.325,433.35 1031.475,428.775 1033.875,425.4 1030.5,420.225 1028.025,416.4 1024.125,413.7 1023.825,413.475 1023.525,413.25 1018.875,411.375 1017,410.025 1013.775,407.625 1013.475,400.725 1013.175,393.9 1022.325,353.625 L1031.475,314.775 1034.775,314.925 Q1040.025,315.075 1050,314.775 M965.25,336.825 L958.425,333 Q957.525,333.375 956.7,333.75 951.9,335.775 949.5,336.825 954.3,351.375 970.725,374.025 974.475,379.2 979.5,385.8 980.175,386.7 980.55,387.225 L980.475,387.6 Q980.1,387.375 979.5,386.775 M949.5,336.825 Q943.425,339.6 940.65,342 937.2,344.925 936.525,348.9 935.175,356.4 943.5,368.325 953.85,383.1 975.975,398.775 M956.7,333.75 L956.175,331.725 958.425,333 Q959.85,332.4 961.5,331.725 M767.175,216.525 Q763.05,219.075 758.925,222.225 745.125,232.95 738.6,242.25 734.625,247.95 733.35,253.125 729.825,266.775 730.35,278.775 730.875,290.775 734.175,305.55 736.125,310.275 738.6,315.075 739.35,316.575 740.175,318.075 751.125,338.4 766.425,352.725 782.775,368.025 804.375,373.575 814.275,376.05 822.375,376.2 827.85,376.275 832.5,375.225 831.9,375.9 870.375,405.375 885.6,417.075 900.9,428.625 904.95,431.7 909,434.775 L900,448.275 M874.5,410.25 L864,421.725" test="RightBum"/>
    </g>
    <g id="LeftBum">
      <path id="Layer1_0_1_STROKES" stroke="#FEB7AE" stroke-width="3" stroke-linejoin="round" stroke-linecap="round" fill="none" d="M-141.35,150 Q-119.825,136.05 -97.325,125.025 -74.975,114.15 -53.9,107.175 -26.675,98.175 -8.45,98.25 14.5,98.325 31.075,103.95 50.575,110.625 65.65,126.3 72.85,133.725 74.65,149.85 76,161.625 74.35,175.8 73.075,186.525 65.95,195.675 61.75,201 52.075,211.95 53.575,213.45 54.925,214.875 61.525,221.925 66.7,231.3 70.225,237.675 72.1,245.775 73.75,252.9 74.2,261.375 74.875,274.575 72.55,287.7 72.025,290.475 71.35,293.25 62.35,332.775 39.7,356.25 22.3,374.25 -.425,385.5 -.725,385.65 -18.05,393.6 -28.1,398.25 -34.325,402.3 -43.625,408.3 -50.825,413.925 -57.35,419.025 -65.3,426.3 -72.125,432.45 -74.525,439.5 -77.45,447.975 -72.35,454.05 -70.775,456 -65.375,458.775 -59.975,461.55 -60.35,460.275 M-30.8,199.8 Q-16.325,188.925 4.9,189.6 25.6,190.275 39.7,201.3 47.05,207.075 52.075,211.95 M-252.8,243.3 Q-247.325,243.15 -239.45,244.275 -234.95,244.95 -226.1,246.375 -219.725,247.2 -210.8,248.025 -205.7,248.475 -195.5,249.3 -188.9,249.825 -180.5,251.925 -178.85,252.3 -175.625,252.525 -173.45,252.6 -172.25,253.425 -169.4,255.375 -162.8,269.25 -155.9,283.8 -152.3,294.6 -149.225,303.9 -145.175,321.075 -143.375,328.65 -139.25,339.075 -134,352.35 -132.575,356.775 -132.125,358.125 -130.1,366.975 -128,375.525 -126.8,376.8 -124.775,379.05 -125.15,380.025 -125.15,380.175 -122.15,380.775 -117.275,381.75 -111.2,387.075 -105.125,392.25 -101.6,398.55 -97.625,405.375 -98.9,409.95 -100.4,415.275 -108.8,416.025 -112.925,418.125 -119.975,416.55 -127.85,414.225 -131.375,413.775 -138.65,412.8 -148.1,414.675 -154.175,415.65 -157.025,416.25 -161.75,417.3 -165.5,419.4 -168.275,421.05 -171.875,423.825 -173.9,425.4 -177.875,428.625 -179.975,425.55 -177.425,418.875 -173.975,411.675 -172.925,409.35 -172.1,407.475 -169.325,404.85 -166.625,402.15 -165.95,400.65 -164.675,397.95 -166.4,390.075 -167.075,386.925 -169.25,379.35 -170.825,373.5 -174.725,366.75 -177.05,362.775 -182.3,355.125 M-167.3,397.275 Q-167.825,397.65 -175.775,401.1 -182.075,403.8 -183.875,406.575 -186.875,411.375 -187.4,415.65 -188.225,422.775 -184.85,436.275 -184.475,437.775 -184.025,439.2 -183.05,442.275 -181.7,445.2 -180.125,448.725 -177.95,452.025 -176.6,454.125 -167.3,465.75 M-182.3,355.125 Q-183.575,353.175 -188.225,347.325 -191.9,342.525 -193.85,339.225 -195.2,336.45 -196.025,334.95 -197.45,332.1 -198.8,331.275 -200.375,330.3 -204.2,330.225 -208.4,330.375 -209.825,330.3 -214.325,330.075 -221.075,330.525 -231.65,331.275 -232.325,331.275 -249.95,332.1 -261.35,330.375 -264.275,330 -271.55,327.225 -277.925,324.75 -281.825,324.75 M-151.85,465.3 Q-155.3,465 -158.9,461.325 -161.9,458.25 -163.85,454.275 -166.025,449.7 -166.925,445.35 -166.925,445.275 -166.925,445.2 -167.675,441.825 -167.45,439.2 -167.375,437.625 -166.925,436.35 -164.45,428.775 -157.25,424.05 -153.275,421.425 -142.85,417.3" test="LeftBum"/>
      <path id="Layer1_0_2_STROKES" stroke="#0FF" stroke-width="3" stroke-linejoin="round" stroke-linecap="round" fill="none" d="M-141.35,150 L-135.575,153.6 Q-128.525,158.175 -122.375,163.65 -102.575,181.05 -98.675,199.8 -95.45,214.8 -88.025,248.325 -82.625,278.775 -84.8,303.3 -87.875,336.825 -89.6,346.275 -92.3,361.2 -98.675,369.75 L-110.3,385.8 M-182.3,355.125 L-184.85,392.25 -167.3,397.275 M-260.3,196.275 Q-248.6,193.2 -220.325,183.15 -195.275,174.3 -180.35,171.075 -172.625,169.425 -166.25,166.2 -161.3,163.65 -153.65,158.325 -147.5,154.05 -141.35,150" test="LeftBum"/>
    </g>
  </g>
</svg>