<?xml version="1.0" encoding="utf-8"?>
<svg id="EdithAnim08" image-rendering="inherit" baseProfile="basic" version="1.1" x="0px" y="0px" width="800" height="600" xmlns="http://www.w3.org/2000/svg" xmlns:xlink="http://www.w3.org/1999/xlink">
  <g id="No-Rear-To-Rearf353r1" overflow="visible">
    <g id="RightBum">
      <path id="Layer3_0_1_STROKES" stroke="#F0F" stroke-width="3" stroke-linejoin="round" stroke-linecap="round" fill="none" d="M644.625,168.075 L652.875,200.475 Q660.75,236.1 658.875,252.525 656.7,271.5 652.575,292.875 648.75,312.825 644.625,327.525 642,336.9 639.3,346.875 638.775,348.225 638.325,348.825 L662.85,342.75 M706.125,193.275 L624.75,156.975 M706.125,327.525 L734.625,323.775 M631.35,333.75 L632.1,336.825 Q633.75,342.825 635.625,347.1 637.05,350.325 638.325,348.825" test="RightBum"/>
      <path id="Layer3_0_2_STROKES" stroke="#F90" stroke-width="3" stroke-linejoin="round" stroke-linecap="round" fill="none" d="M662.85,342.75 L665.175,329.25 Q666.075,324 666.825,310.95 667.575,296.475 668.55,289.35 671.925,262.875 684.675,253.275 691.8,247.875 698.775,245.4 704.325,243.375 709.8,243.225 714.675,243.15 720.675,245.25 M624.75,156.975 Q539.925,119.025 520.125,111.225 507.675,106.35 497.025,103.95 485.85,101.475 476.775,101.775 457.725,102.45 443.175,115.275 427.5,128.925 419.925,146.925 411.9,166.125 415.8,184.275 419.1,199.875 430.725,209.625 436.575,214.5 441.825,216.525 458.775,205.875 475.65,205.275 M662.85,342.75 L655.2,387.225 Q655.725,388.05 655.125,387.6 L653.175,398.775 Q648.525,400.125 643.2,402.975 632.4,408.675 628.65,416.025 625.275,422.625 624.825,428.625 624.525,432.45 625.425,436.05 628.2,447.525 643.125,450.225 657,452.775 666.825,446.025 672.075,442.35 677.625,435.75 682.05,431.025 684.45,429.45 685.275,428.925 686.175,428.625 688.35,427.95 690.9,428.625 692.7,429.075 694.65,430.275 701.1,434.025 702.675,433.425 702.975,433.35 706.125,428.775 708.525,425.4 705.15,420.225 702.675,416.4 698.775,413.7 698.475,413.475 698.175,413.25 693.525,411.375 691.65,410.025 688.425,407.625 688.125,400.725 687.825,393.9 696.975,353.625 L706.125,314.775 709.425,314.925 Q714.675,315.075 724.65,314.775 M639.9,336.825 L633.075,333 Q632.175,333.375 631.35,333.75 626.55,335.775 624.15,336.825 628.95,351.375 645.375,374.025 649.125,379.2 654.15,385.8 654.825,386.7 655.2,387.225 L655.125,387.6 Q654.75,387.375 654.15,386.775 M624.15,336.825 Q618.075,339.6 615.3,342 611.85,344.925 611.175,348.9 609.825,356.4 618.15,368.325 628.5,383.1 650.625,398.775 M631.35,333.75 L630.825,331.725 633.075,333 Q634.5,332.4 636.15,331.725 M441.825,216.525 Q437.7,219.075 433.575,222.225 419.775,232.95 413.25,242.25 409.275,247.95 408,253.125 404.475,266.775 405,278.775 405.525,290.775 408.825,305.55 410.775,310.275 413.25,315.075 414,316.575 414.825,318.075 425.775,338.4 441.075,352.725 457.425,368.025 479.025,373.575 488.925,376.05 497.025,376.2 502.5,376.275 507.15,375.225 506.55,375.9 545.025,405.375 560.25,417.075 575.55,428.625 579.6,431.7 583.65,434.775 L574.65,448.275 M549.15,410.25 L538.65,421.725" test="RightBum"/>
    </g>
    <g id="LeftBum">
      <path id="Layer2_0_1_STROKES" stroke="#FEB7AE" stroke-width="3" stroke-linejoin="round" stroke-linecap="round" fill="none" d="M189.25,150 Q210.775,136.05 233.275,125.025 255.625,114.15 276.7,107.175 303.925,98.175 322.15,98.25 345.1,98.325 361.675,103.95 381.175,110.625 396.25,126.3 403.45,133.725 405.25,149.85 406.6,161.625 404.95,175.8 403.675,186.525 396.55,195.675 392.35,201 382.675,211.95 384.175,213.45 385.525,214.875 392.125,221.925 397.3,231.3 400.825,237.675 402.7,245.775 404.35,252.9 404.8,261.375 405.475,274.575 403.15,287.7 402.625,290.475 401.95,293.25 392.95,332.775 370.3,356.25 352.9,374.25 330.175,385.5 329.875,385.65 312.55,393.6 302.5,398.25 296.275,402.3 286.975,408.3 279.775,413.925 273.25,419.025 265.3,426.3 258.475,432.45 256.075,439.5 253.15,447.975 258.25,454.05 259.825,456 265.225,458.775 270.625,461.55 270.25,460.275 M299.8,199.8 Q314.275,188.925 335.5,189.6 356.2,190.275 370.3,201.3 377.65,207.075 382.675,211.95 M77.8,243.3 Q83.275,243.15 91.15,244.275 95.65,244.95 104.5,246.375 110.875,247.2 119.8,248.025 124.9,248.475 135.1,249.3 141.7,249.825 150.1,251.925 151.75,252.3 154.975,252.525 157.15,252.6 158.35,253.425 161.2,255.375 167.8,269.25 174.7,283.8 178.3,294.6 181.375,303.9 185.425,321.075 187.225,328.65 191.35,339.075 196.6,352.35 198.025,356.775 198.475,358.125 200.5,366.975 202.6,375.525 203.8,376.8 205.825,379.05 205.45,380.025 205.45,380.175 208.45,380.775 213.325,381.75 219.4,387.075 225.475,392.25 229,398.55 232.975,405.375 231.7,409.95 230.2,415.275 221.8,416.025 217.675,418.125 210.625,416.55 202.75,414.225 199.225,413.775 191.95,412.8 182.5,414.675 176.425,415.65 173.575,416.25 168.85,417.3 165.1,419.4 162.325,421.05 158.725,423.825 156.7,425.4 152.725,428.625 150.625,425.55 153.175,418.875 156.625,411.675 157.675,409.35 158.5,407.475 161.275,404.85 163.975,402.15 164.65,400.65 165.925,397.95 164.2,390.075 163.525,386.925 161.35,379.35 159.775,373.5 155.875,366.75 153.55,362.775 148.3,355.125 M163.3,397.275 Q162.775,397.65 154.825,401.1 148.525,403.8 146.725,406.575 143.725,411.375 143.2,415.65 142.375,422.775 145.75,436.275 146.125,437.775 146.575,439.2 147.55,442.275 148.9,445.2 150.475,448.725 152.65,452.025 154,454.125 163.3,465.75 M148.3,355.125 Q147.025,353.175 142.375,347.325 138.7,342.525 136.75,339.225 135.4,336.45 134.575,334.95 133.15,332.1 131.8,331.275 130.225,330.3 126.4,330.225 122.2,330.375 120.775,330.3 116.275,330.075 109.525,330.525 98.95,331.275 98.275,331.275 80.65,332.1 69.25,330.375 66.325,330 59.05,327.225 52.675,324.75 48.775,324.75 M178.75,465.3 Q175.3,465 171.7,461.325 168.7,458.25 166.75,454.275 164.575,449.7 163.675,445.35 163.675,445.275 163.675,445.2 162.925,441.825 163.15,439.2 163.225,437.625 163.675,436.35 166.15,428.775 173.35,424.05 177.325,421.425 187.75,417.3" test="LeftBum"/>
      <path id="Layer2_0_2_STROKES" stroke="#0FF" stroke-width="3" stroke-linejoin="round" stroke-linecap="round" fill="none" d="M189.25,150 L195.025,153.6 Q202.075,158.175 208.225,163.65 228.025,181.05 231.925,199.8 235.15,214.8 242.575,248.325 247.975,278.775 245.8,303.3 242.725,336.825 241,346.275 238.3,361.2 231.925,369.75 L220.3,385.8 M148.3,355.125 L145.75,392.25 163.3,397.275 M70.3,196.275 Q82,193.2 110.275,183.15 135.325,174.3 150.25,171.075 157.975,169.425 164.35,166.2 169.3,163.65 176.95,158.325 183.1,154.05 189.25,150" test="LeftBum"/>
    </g>
    <g id="StopSign">
      <path fill="#000" stroke="none" d="M536.528,113.665 Q480.391,57.528 401.05,57.484 321.709,57.528 265.572,113.665 209.434,169.802 209.434,249.1 209.434,328.484 265.572,384.621 321.709,440.759 401.05,440.716 480.391,440.759 536.528,384.621 592.666,328.484 592.666,249.1 592.666,169.802 536.528,113.665 M401.05,97.263 Q451.031,97.22 489.303,125.59 L278.702,336.233 Q250.375,297.919 250.375,247.938 250.375,185.515 294.501,141.389 338.628,97.263 401.05,97.263 M521.289,156.887 Q551.725,196.105 551.725,247.938 551.725,310.317 507.599,354.443 463.473,398.57 401.05,398.613 349.218,398.613 309,368.176 L521.289,156.887Z" test="StopSign" vector-effect="non-scaling-stroke" stroke-width="1"/>
      <path id="Layer1_0_1_STROKES" stroke="#F00" stroke-width="1" stroke-linejoin="round" stroke-linecap="round" fill="none" d="M250.375,247.938 Q250.375,185.515 294.501,141.389 338.628,97.263 401.05,97.263 451.031,97.22 489.303,125.59 L278.702,336.233 Q250.375,297.919 250.375,247.938Z M536.528,384.621 Q480.391,440.759 401.05,440.716 321.709,440.759 265.572,384.621 209.434,328.484 209.434,249.1 209.434,169.802 265.572,113.665 321.709,57.528 401.05,57.484 480.391,57.528 536.528,113.665 592.666,169.802 592.666,249.1 592.666,328.484 536.528,384.621Z M507.599,354.443 Q463.473,398.57 401.05,398.613 349.218,398.613 309,368.176 L521.289,156.887 Q551.725,196.105 551.725,247.938 551.725,310.317 507.599,354.443Z" test="StopSign" vector-effect="non-scaling-stroke"/>
    </g>
  </g>
</svg>