<?xml version="1.0" encoding="utf-8"?>
<svg id="EdithAnim08" image-rendering="inherit" baseProfile="basic" version="1.1" x="0px" y="0px" width="800" height="600" xmlns="http://www.w3.org/2000/svg" xmlns:xlink="http://www.w3.org/1999/xlink">
  <g id="No-Rear-To-Rearf38r1" overflow="visible">
    <g id="RightBum">
      <path id="Layer2_0_1_STROKES" stroke="#F0F" stroke-width="3" stroke-linejoin="round" stroke-linecap="round" fill="none" d="M963.575,168.075 L971.825,200.475 Q979.7,236.1 977.825,252.525 975.65,271.5 971.525,292.875 967.7,312.825 963.575,327.525 960.95,336.9 958.25,346.875 957.725,348.225 957.275,348.825 L981.8,342.75 M1025.075,193.275 L943.7,156.975 M1025.075,327.525 L1053.575,323.775 M950.3,333.75 L951.05,336.825 Q952.7,342.825 954.575,347.1 956,350.325 957.275,348.825" test="RightBum"/>
      <path id="Layer2_0_2_STROKES" stroke="#F90" stroke-width="3" stroke-linejoin="round" stroke-linecap="round" fill="none" d="M981.8,342.75 L984.125,329.25 Q985.025,324 985.775,310.95 986.525,296.475 987.5,289.35 990.875,262.875 1003.625,253.275 1010.75,247.875 1017.725,245.4 1023.275,243.375 1028.75,243.225 1033.625,243.15 1039.625,245.25 M943.7,156.975 Q858.875,119.025 839.075,111.225 826.625,106.35 815.975,103.95 804.8,101.475 795.725,101.775 776.675,102.45 762.125,115.275 746.45,128.925 738.875,146.925 730.85,166.125 734.75,184.275 738.05,199.875 749.675,209.625 755.525,214.5 760.775,216.525 777.725,205.875 794.6,205.275 M981.8,342.75 L974.15,387.225 Q974.675,388.05 974.075,387.6 L972.125,398.775 Q967.475,400.125 962.15,402.975 951.35,408.675 947.6,416.025 944.225,422.625 943.775,428.625 943.475,432.45 944.375,436.05 947.15,447.525 962.075,450.225 975.95,452.775 985.775,446.025 991.025,442.35 996.575,435.75 1001,431.025 1003.4,429.45 1004.225,428.925 1005.125,428.625 1007.3,427.95 1009.85,428.625 1011.65,429.075 1013.6,430.275 1020.05,434.025 1021.625,433.425 1021.925,433.35 1025.075,428.775 1027.475,425.4 1024.1,420.225 1021.625,416.4 1017.725,413.7 1017.425,413.475 1017.125,413.25 1012.475,411.375 1010.6,410.025 1007.375,407.625 1007.075,400.725 1006.775,393.9 1015.925,353.625 L1025.075,314.775 1028.375,314.925 Q1033.625,315.075 1043.6,314.775 M958.85,336.825 L952.025,333 Q951.125,333.375 950.3,333.75 945.5,335.775 943.1,336.825 947.9,351.375 964.325,374.025 968.075,379.2 973.1,385.8 973.775,386.7 974.15,387.225 L974.075,387.6 Q973.7,387.375 973.1,386.775 M943.1,336.825 Q937.025,339.6 934.25,342 930.8,344.925 930.125,348.9 928.775,356.4 937.1,368.325 947.45,383.1 969.575,398.775 M950.3,333.75 L949.775,331.725 952.025,333 Q953.45,332.4 955.1,331.725 M760.775,216.525 Q756.65,219.075 752.525,222.225 738.725,232.95 732.2,242.25 728.225,247.95 726.95,253.125 723.425,266.775 723.95,278.775 724.475,290.775 727.775,305.55 729.725,310.275 732.2,315.075 732.95,316.575 733.775,318.075 744.725,338.4 760.025,352.725 776.375,368.025 797.975,373.575 807.875,376.05 815.975,376.2 821.45,376.275 826.1,375.225 825.5,375.9 863.975,405.375 879.2,417.075 894.5,428.625 898.55,431.7 902.6,434.775 L893.6,448.275 M868.1,410.25 L857.6,421.725" test="RightBum"/>
    </g>
    <g id="LeftBum">
      <path id="Layer1_0_1_STROKES" stroke="#FEB7AE" stroke-width="3" stroke-linejoin="round" stroke-linecap="round" fill="none" d="M-134.8,150 Q-113.275,136.05 -90.775,125.025 -68.425,114.15 -47.35,107.175 -20.125,98.175 -1.9,98.25 21.05,98.325 37.625,103.95 57.125,110.625 72.2,126.3 79.4,133.725 81.2,149.85 82.55,161.625 80.9,175.8 79.625,186.525 72.5,195.675 68.3,201 58.625,211.95 60.125,213.45 61.475,214.875 68.075,221.925 73.25,231.3 76.775,237.675 78.65,245.775 80.3,252.9 80.75,261.375 81.425,274.575 79.1,287.7 78.575,290.475 77.9,293.25 68.9,332.775 46.25,356.25 28.85,374.25 6.125,385.5 5.825,385.65 -11.5,393.6 -21.55,398.25 -27.775,402.3 -37.075,408.3 -44.275,413.925 -50.8,419.025 -58.75,426.3 -65.575,432.45 -67.975,439.5 -70.9,447.975 -65.8,454.05 -64.225,456 -58.825,458.775 -53.425,461.55 -53.8,460.275 M-24.25,199.8 Q-9.775,188.925 11.45,189.6 32.15,190.275 46.25,201.3 53.6,207.075 58.625,211.95 M-246.25,243.3 Q-240.775,243.15 -232.9,244.275 -228.4,244.95 -219.55,246.375 -213.175,247.2 -204.25,248.025 -199.15,248.475 -188.95,249.3 -182.35,249.825 -173.95,251.925 -172.3,252.3 -169.075,252.525 -166.9,252.6 -165.7,253.425 -162.85,255.375 -156.25,269.25 -149.35,283.8 -145.75,294.6 -142.675,303.9 -138.625,321.075 -136.825,328.65 -132.7,339.075 -127.45,352.35 -126.025,356.775 -125.575,358.125 -123.55,366.975 -121.45,375.525 -120.25,376.8 -118.225,379.05 -118.6,380.025 -118.6,380.175 -115.6,380.775 -110.725,381.75 -104.65,387.075 -98.575,392.25 -95.05,398.55 -91.075,405.375 -92.35,409.95 -93.85,415.275 -102.25,416.025 -106.375,418.125 -113.425,416.55 -121.3,414.225 -124.825,413.775 -132.1,412.8 -141.55,414.675 -147.625,415.65 -150.475,416.25 -155.2,417.3 -158.95,419.4 -161.725,421.05 -165.325,423.825 -167.35,425.4 -171.325,428.625 -173.425,425.55 -170.875,418.875 -167.425,411.675 -166.375,409.35 -165.55,407.475 -162.775,404.85 -160.075,402.15 -159.4,400.65 -158.125,397.95 -159.85,390.075 -160.525,386.925 -162.7,379.35 -164.275,373.5 -168.175,366.75 -170.5,362.775 -175.75,355.125 M-160.75,397.275 Q-161.275,397.65 -169.225,401.1 -175.525,403.8 -177.325,406.575 -180.325,411.375 -180.85,415.65 -181.675,422.775 -178.3,436.275 -177.925,437.775 -177.475,439.2 -176.5,442.275 -175.15,445.2 -173.575,448.725 -171.4,452.025 -170.05,454.125 -160.75,465.75 M-175.75,355.125 Q-177.025,353.175 -181.675,347.325 -185.35,342.525 -187.3,339.225 -188.65,336.45 -189.475,334.95 -190.9,332.1 -192.25,331.275 -193.825,330.3 -197.65,330.225 -201.85,330.375 -203.275,330.3 -207.775,330.075 -214.525,330.525 -225.1,331.275 -225.775,331.275 -243.4,332.1 -254.8,330.375 -257.725,330 -265,327.225 -271.375,324.75 -275.275,324.75 M-145.3,465.3 Q-148.75,465 -152.35,461.325 -155.35,458.25 -157.3,454.275 -159.475,449.7 -160.375,445.35 -160.375,445.275 -160.375,445.2 -161.125,441.825 -160.9,439.2 -160.825,437.625 -160.375,436.35 -157.9,428.775 -150.7,424.05 -146.725,421.425 -136.3,417.3" test="LeftBum"/>
      <path id="Layer1_0_2_STROKES" stroke="#0FF" stroke-width="3" stroke-linejoin="round" stroke-linecap="round" fill="none" d="M-134.8,150 L-129.025,153.6 Q-121.975,158.175 -115.825,163.65 -96.025,181.05 -92.125,199.8 -88.9,214.8 -81.475,248.325 -76.075,278.775 -78.25,303.3 -81.325,336.825 -83.05,346.275 -85.75,361.2 -92.125,369.75 L-103.75,385.8 M-175.75,355.125 L-178.3,392.25 -160.75,397.275 M-253.75,196.275 Q-242.05,193.2 -213.775,183.15 -188.725,174.3 -173.8,171.075 -166.075,169.425 -159.7,166.2 -154.75,163.65 -147.1,158.325 -140.95,154.05 -134.8,150" test="LeftBum"/>
    </g>
  </g>
</svg>