<?xml version="1.0" encoding="utf-8"?>
<svg id="EdithAnim08" image-rendering="inherit" baseProfile="basic" version="1.1" x="0px" y="0px" width="800" height="600" xmlns="http://www.w3.org/2000/svg" xmlns:xlink="http://www.w3.org/1999/xlink">
  <g id="No-Rear-To-Rearf39r1" overflow="visible">
    <g id="RightBum">
      <path id="Layer2_0_1_STROKES" stroke="#F0F" stroke-width="3" stroke-linejoin="round" stroke-linecap="round" fill="none" d="M961.425,168.075 L969.675,200.475 Q977.55,236.1 975.675,252.525 973.5,271.5 969.375,292.875 965.55,312.825 961.425,327.525 958.8,336.9 956.1,346.875 955.575,348.225 955.125,348.825 L979.65,342.75 M1022.925,193.275 L941.55,156.975 M1022.925,327.525 L1051.425,323.775 M948.15,333.75 L948.9,336.825 Q950.55,342.825 952.425,347.1 953.85,350.325 955.125,348.825" test="RightBum"/>
      <path id="Layer2_0_2_STROKES" stroke="#F90" stroke-width="3" stroke-linejoin="round" stroke-linecap="round" fill="none" d="M979.65,342.75 L981.975,329.25 Q982.875,324 983.625,310.95 984.375,296.475 985.35,289.35 988.725,262.875 1001.475,253.275 1008.6,247.875 1015.575,245.4 1021.125,243.375 1026.6,243.225 1031.475,243.15 1037.475,245.25 M941.55,156.975 Q856.725,119.025 836.925,111.225 824.475,106.35 813.825,103.95 802.65,101.475 793.575,101.775 774.525,102.45 759.975,115.275 744.3,128.925 736.725,146.925 728.7,166.125 732.6,184.275 735.9,199.875 747.525,209.625 753.375,214.5 758.625,216.525 775.575,205.875 792.45,205.275 M979.65,342.75 L972,387.225 Q972.525,388.05 971.925,387.6 L969.975,398.775 Q965.325,400.125 960,402.975 949.2,408.675 945.45,416.025 942.075,422.625 941.625,428.625 941.325,432.45 942.225,436.05 945,447.525 959.925,450.225 973.8,452.775 983.625,446.025 988.875,442.35 994.425,435.75 998.85,431.025 1001.25,429.45 1002.075,428.925 1002.975,428.625 1005.15,427.95 1007.7,428.625 1009.5,429.075 1011.45,430.275 1017.9,434.025 1019.475,433.425 1019.775,433.35 1022.925,428.775 1025.325,425.4 1021.95,420.225 1019.475,416.4 1015.575,413.7 1015.275,413.475 1014.975,413.25 1010.325,411.375 1008.45,410.025 1005.225,407.625 1004.925,400.725 1004.625,393.9 1013.775,353.625 L1022.925,314.775 1026.225,314.925 Q1031.475,315.075 1041.45,314.775 M956.7,336.825 L949.875,333 Q948.975,333.375 948.15,333.75 943.35,335.775 940.95,336.825 945.75,351.375 962.175,374.025 965.925,379.2 970.95,385.8 971.625,386.7 972,387.225 L971.925,387.6 Q971.55,387.375 970.95,386.775 M940.95,336.825 Q934.875,339.6 932.1,342 928.65,344.925 927.975,348.9 926.625,356.4 934.95,368.325 945.3,383.1 967.425,398.775 M948.15,333.75 L947.625,331.725 949.875,333 Q951.3,332.4 952.95,331.725 M758.625,216.525 Q754.5,219.075 750.375,222.225 736.575,232.95 730.05,242.25 726.075,247.95 724.8,253.125 721.275,266.775 721.8,278.775 722.325,290.775 725.625,305.55 727.575,310.275 730.05,315.075 730.8,316.575 731.625,318.075 742.575,338.4 757.875,352.725 774.225,368.025 795.825,373.575 805.725,376.05 813.825,376.2 819.3,376.275 823.95,375.225 823.35,375.9 861.825,405.375 877.05,417.075 892.35,428.625 896.4,431.7 900.45,434.775 L891.45,448.275 M865.95,410.25 L855.45,421.725" test="RightBum"/>
    </g>
    <g id="LeftBum">
      <path id="Layer1_0_1_STROKES" stroke="#FEB7AE" stroke-width="3" stroke-linejoin="round" stroke-linecap="round" fill="none" d="M-132.65,150 Q-111.125,136.05 -88.625,125.025 -66.275,114.15 -45.2,107.175 -17.975,98.175 .25,98.25 23.2,98.325 39.775,103.95 59.275,110.625 74.35,126.3 81.55,133.725 83.35,149.85 84.7,161.625 83.05,175.8 81.775,186.525 74.65,195.675 70.45,201 60.775,211.95 62.275,213.45 63.625,214.875 70.225,221.925 75.4,231.3 78.925,237.675 80.8,245.775 82.45,252.9 82.9,261.375 83.575,274.575 81.25,287.7 80.725,290.475 80.05,293.25 71.05,332.775 48.4,356.25 31,374.25 8.275,385.5 7.975,385.65 -9.35,393.6 -19.4,398.25 -25.625,402.3 -34.925,408.3 -42.125,413.925 -48.65,419.025 -56.6,426.3 -63.425,432.45 -65.825,439.5 -68.75,447.975 -63.65,454.05 -62.075,456 -56.675,458.775 -51.275,461.55 -51.65,460.275 M-22.1,199.8 Q-7.625,188.925 13.6,189.6 34.3,190.275 48.4,201.3 55.75,207.075 60.775,211.95 M-244.1,243.3 Q-238.625,243.15 -230.75,244.275 -226.25,244.95 -217.4,246.375 -211.025,247.2 -202.1,248.025 -197,248.475 -186.8,249.3 -180.2,249.825 -171.8,251.925 -170.15,252.3 -166.925,252.525 -164.75,252.6 -163.55,253.425 -160.7,255.375 -154.1,269.25 -147.2,283.8 -143.6,294.6 -140.525,303.9 -136.475,321.075 -134.675,328.65 -130.55,339.075 -125.3,352.35 -123.875,356.775 -123.425,358.125 -121.4,366.975 -119.3,375.525 -118.1,376.8 -116.075,379.05 -116.45,380.025 -116.45,380.175 -113.45,380.775 -108.575,381.75 -102.5,387.075 -96.425,392.25 -92.9,398.55 -88.925,405.375 -90.2,409.95 -91.7,415.275 -100.1,416.025 -104.225,418.125 -111.275,416.55 -119.15,414.225 -122.675,413.775 -129.95,412.8 -139.4,414.675 -145.475,415.65 -148.325,416.25 -153.05,417.3 -156.8,419.4 -159.575,421.05 -163.175,423.825 -165.2,425.4 -169.175,428.625 -171.275,425.55 -168.725,418.875 -165.275,411.675 -164.225,409.35 -163.4,407.475 -160.625,404.85 -157.925,402.15 -157.25,400.65 -155.975,397.95 -157.7,390.075 -158.375,386.925 -160.55,379.35 -162.125,373.5 -166.025,366.75 -168.35,362.775 -173.6,355.125 M-158.6,397.275 Q-159.125,397.65 -167.075,401.1 -173.375,403.8 -175.175,406.575 -178.175,411.375 -178.7,415.65 -179.525,422.775 -176.15,436.275 -175.775,437.775 -175.325,439.2 -174.35,442.275 -173,445.2 -171.425,448.725 -169.25,452.025 -167.9,454.125 -158.6,465.75 M-173.6,355.125 Q-174.875,353.175 -179.525,347.325 -183.2,342.525 -185.15,339.225 -186.5,336.45 -187.325,334.95 -188.75,332.1 -190.1,331.275 -191.675,330.3 -195.5,330.225 -199.7,330.375 -201.125,330.3 -205.625,330.075 -212.375,330.525 -222.95,331.275 -223.625,331.275 -241.25,332.1 -252.65,330.375 -255.575,330 -262.85,327.225 -269.225,324.75 -273.125,324.75 M-143.15,465.3 Q-146.6,465 -150.2,461.325 -153.2,458.25 -155.15,454.275 -157.325,449.7 -158.225,445.35 -158.225,445.275 -158.225,445.2 -158.975,441.825 -158.75,439.2 -158.675,437.625 -158.225,436.35 -155.75,428.775 -148.55,424.05 -144.575,421.425 -134.15,417.3" test="LeftBum"/>
      <path id="Layer1_0_2_STROKES" stroke="#0FF" stroke-width="3" stroke-linejoin="round" stroke-linecap="round" fill="none" d="M-132.65,150 L-126.875,153.6 Q-119.825,158.175 -113.675,163.65 -93.875,181.05 -89.975,199.8 -86.75,214.8 -79.325,248.325 -73.925,278.775 -76.1,303.3 -79.175,336.825 -80.9,346.275 -83.6,361.2 -89.975,369.75 L-101.6,385.8 M-173.6,355.125 L-176.15,392.25 -158.6,397.275 M-251.6,196.275 Q-239.9,193.2 -211.625,183.15 -186.575,174.3 -171.65,171.075 -163.925,169.425 -157.55,166.2 -152.6,163.65 -144.95,158.325 -138.8,154.05 -132.65,150" test="LeftBum"/>
    </g>
  </g>
</svg>