<?xml version="1.0" encoding="utf-8"?>
<svg id="EdithAnim08" image-rendering="inherit" baseProfile="basic" version="1.1" x="0px" y="0px" width="800" height="600" xmlns="http://www.w3.org/2000/svg" xmlns:xlink="http://www.w3.org/1999/xlink">
  <g id="No-Rear-To-Rearf40r1" overflow="visible">
    <g id="RightBum">
      <path id="Layer2_0_1_STROKES" stroke="#F0F" stroke-width="3" stroke-linejoin="round" stroke-linecap="round" fill="none" d="M959.325,168.075 L967.575,200.475 Q975.45,236.1 973.575,252.525 971.4,271.5 967.275,292.875 963.45,312.825 959.325,327.525 956.7,336.9 954,346.875 953.475,348.225 953.025,348.825 L977.55,342.75 M1020.825,193.275 L939.45,156.975 M1020.825,327.525 L1049.325,323.775 M946.05,333.75 L946.8,336.825 Q948.45,342.825 950.325,347.1 951.75,350.325 953.025,348.825" test="RightBum"/>
      <path id="Layer2_0_2_STROKES" stroke="#F90" stroke-width="3" stroke-linejoin="round" stroke-linecap="round" fill="none" d="M977.55,342.75 L979.875,329.25 Q980.775,324 981.525,310.95 982.275,296.475 983.25,289.35 986.625,262.875 999.375,253.275 1006.5,247.875 1013.475,245.4 1019.025,243.375 1024.5,243.225 1029.375,243.15 1035.375,245.25 M939.45,156.975 Q854.625,119.025 834.825,111.225 822.375,106.35 811.725,103.95 800.55,101.475 791.475,101.775 772.425,102.45 757.875,115.275 742.2,128.925 734.625,146.925 726.6,166.125 730.5,184.275 733.8,199.875 745.425,209.625 751.275,214.5 756.525,216.525 773.475,205.875 790.35,205.275 M977.55,342.75 L969.9,387.225 Q970.425,388.05 969.825,387.6 L967.875,398.775 Q963.225,400.125 957.9,402.975 947.1,408.675 943.35,416.025 939.975,422.625 939.525,428.625 939.225,432.45 940.125,436.05 942.9,447.525 957.825,450.225 971.7,452.775 981.525,446.025 986.775,442.35 992.325,435.75 996.75,431.025 999.15,429.45 999.975,428.925 1000.875,428.625 1003.05,427.95 1005.6,428.625 1007.4,429.075 1009.35,430.275 1015.8,434.025 1017.375,433.425 1017.675,433.35 1020.825,428.775 1023.225,425.4 1019.85,420.225 1017.375,416.4 1013.475,413.7 1013.175,413.475 1012.875,413.25 1008.225,411.375 1006.35,410.025 1003.125,407.625 1002.825,400.725 1002.525,393.9 1011.675,353.625 L1020.825,314.775 1024.125,314.925 Q1029.375,315.075 1039.35,314.775 M954.6,336.825 L947.775,333 Q946.875,333.375 946.05,333.75 941.25,335.775 938.85,336.825 943.65,351.375 960.075,374.025 963.825,379.2 968.85,385.8 969.525,386.7 969.9,387.225 L969.825,387.6 Q969.45,387.375 968.85,386.775 M938.85,336.825 Q932.775,339.6 930,342 926.55,344.925 925.875,348.9 924.525,356.4 932.85,368.325 943.2,383.1 965.325,398.775 M946.05,333.75 L945.525,331.725 947.775,333 Q949.2,332.4 950.85,331.725 M756.525,216.525 Q752.4,219.075 748.275,222.225 734.475,232.95 727.95,242.25 723.975,247.95 722.7,253.125 719.175,266.775 719.7,278.775 720.225,290.775 723.525,305.55 725.475,310.275 727.95,315.075 728.7,316.575 729.525,318.075 740.475,338.4 755.775,352.725 772.125,368.025 793.725,373.575 803.625,376.05 811.725,376.2 817.2,376.275 821.85,375.225 821.25,375.9 859.725,405.375 874.95,417.075 890.25,428.625 894.3,431.7 898.35,434.775 L889.35,448.275 M863.85,410.25 L853.35,421.725" test="RightBum"/>
    </g>
    <g id="LeftBum">
      <path id="Layer1_0_1_STROKES" stroke="#FEB7AE" stroke-width="3" stroke-linejoin="round" stroke-linecap="round" fill="none" d="M-130.5,150 Q-108.975,136.05 -86.475,125.025 -64.125,114.15 -43.05,107.175 -15.825,98.175 2.4,98.25 25.35,98.325 41.925,103.95 61.425,110.625 76.5,126.3 83.7,133.725 85.5,149.85 86.85,161.625 85.2,175.8 83.925,186.525 76.8,195.675 72.6,201 62.925,211.95 64.425,213.45 65.775,214.875 72.375,221.925 77.55,231.3 81.075,237.675 82.95,245.775 84.6,252.9 85.05,261.375 85.725,274.575 83.4,287.7 82.875,290.475 82.2,293.25 73.2,332.775 50.55,356.25 33.15,374.25 10.425,385.5 10.125,385.65 -7.2,393.6 -17.25,398.25 -23.475,402.3 -32.775,408.3 -39.975,413.925 -46.5,419.025 -54.45,426.3 -61.275,432.45 -63.675,439.5 -66.6,447.975 -61.5,454.05 -59.925,456 -54.525,458.775 -49.125,461.55 -49.5,460.275 M-19.95,199.8 Q-5.475,188.925 15.75,189.6 36.45,190.275 50.55,201.3 57.9,207.075 62.925,211.95 M-241.95,243.3 Q-236.475,243.15 -228.6,244.275 -224.1,244.95 -215.25,246.375 -208.875,247.2 -199.95,248.025 -194.85,248.475 -184.65,249.3 -178.05,249.825 -169.65,251.925 -168,252.3 -164.775,252.525 -162.6,252.6 -161.4,253.425 -158.55,255.375 -151.95,269.25 -145.05,283.8 -141.45,294.6 -138.375,303.9 -134.325,321.075 -132.525,328.65 -128.4,339.075 -123.15,352.35 -121.725,356.775 -121.275,358.125 -119.25,366.975 -117.15,375.525 -115.95,376.8 -113.925,379.05 -114.3,380.025 -114.3,380.175 -111.3,380.775 -106.425,381.75 -100.35,387.075 -94.275,392.25 -90.75,398.55 -86.775,405.375 -88.05,409.95 -89.55,415.275 -97.95,416.025 -102.075,418.125 -109.125,416.55 -117,414.225 -120.525,413.775 -127.8,412.8 -137.25,414.675 -143.325,415.65 -146.175,416.25 -150.9,417.3 -154.65,419.4 -157.425,421.05 -161.025,423.825 -163.05,425.4 -167.025,428.625 -169.125,425.55 -166.575,418.875 -163.125,411.675 -162.075,409.35 -161.25,407.475 -158.475,404.85 -155.775,402.15 -155.1,400.65 -153.825,397.95 -155.55,390.075 -156.225,386.925 -158.4,379.35 -159.975,373.5 -163.875,366.75 -166.2,362.775 -171.45,355.125 M-156.45,397.275 Q-156.975,397.65 -164.925,401.1 -171.225,403.8 -173.025,406.575 -176.025,411.375 -176.55,415.65 -177.375,422.775 -174,436.275 -173.625,437.775 -173.175,439.2 -172.2,442.275 -170.85,445.2 -169.275,448.725 -167.1,452.025 -165.75,454.125 -156.45,465.75 M-171.45,355.125 Q-172.725,353.175 -177.375,347.325 -181.05,342.525 -183,339.225 -184.35,336.45 -185.175,334.95 -186.6,332.1 -187.95,331.275 -189.525,330.3 -193.35,330.225 -197.55,330.375 -198.975,330.3 -203.475,330.075 -210.225,330.525 -220.8,331.275 -221.475,331.275 -239.1,332.1 -250.5,330.375 -253.425,330 -260.7,327.225 -267.075,324.75 -270.975,324.75 M-141,465.3 Q-144.45,465 -148.05,461.325 -151.05,458.25 -153,454.275 -155.175,449.7 -156.075,445.35 -156.075,445.275 -156.075,445.2 -156.825,441.825 -156.6,439.2 -156.525,437.625 -156.075,436.35 -153.6,428.775 -146.4,424.05 -142.425,421.425 -132,417.3" test="LeftBum"/>
      <path id="Layer1_0_2_STROKES" stroke="#0FF" stroke-width="3" stroke-linejoin="round" stroke-linecap="round" fill="none" d="M-130.5,150 L-124.725,153.6 Q-117.675,158.175 -111.525,163.65 -91.725,181.05 -87.825,199.8 -84.6,214.8 -77.175,248.325 -71.775,278.775 -73.95,303.3 -77.025,336.825 -78.75,346.275 -81.45,361.2 -87.825,369.75 L-99.45,385.8 M-171.45,355.125 L-174,392.25 -156.45,397.275 M-249.45,196.275 Q-237.75,193.2 -209.475,183.15 -184.425,174.3 -169.5,171.075 -161.775,169.425 -155.4,166.2 -150.45,163.65 -142.8,158.325 -136.65,154.05 -130.5,150" test="LeftBum"/>
    </g>
  </g>
</svg>