<?xml version="1.0" encoding="utf-8"?>
<svg id="EdithAnim08" image-rendering="inherit" baseProfile="basic" version="1.1" x="0px" y="0px" width="800" height="600" xmlns="http://www.w3.org/2000/svg" xmlns:xlink="http://www.w3.org/1999/xlink">
  <g id="No-Rear-To-Rearf43r1" overflow="visible">
    <g id="RightBum">
      <path id="Layer2_0_1_STROKES" stroke="#F0F" stroke-width="3" stroke-linejoin="round" stroke-linecap="round" fill="none" d="M952.975,168.075 L961.225,200.475 Q969.1,236.1 967.225,252.525 965.05,271.5 960.925,292.875 957.1,312.825 952.975,327.525 950.35,336.9 947.65,346.875 947.125,348.225 946.675,348.825 L971.2,342.75 M1014.475,193.275 L933.1,156.975 M1014.475,327.525 L1042.975,323.775 M939.7,333.75 L940.45,336.825 Q942.1,342.825 943.975,347.1 945.4,350.325 946.675,348.825" test="RightBum"/>
      <path id="Layer2_0_2_STROKES" stroke="#F90" stroke-width="3" stroke-linejoin="round" stroke-linecap="round" fill="none" d="M971.2,342.75 L973.525,329.25 Q974.425,324 975.175,310.95 975.925,296.475 976.9,289.35 980.275,262.875 993.025,253.275 1000.15,247.875 1007.125,245.4 1012.675,243.375 1018.15,243.225 1023.025,243.15 1029.025,245.25 M933.1,156.975 Q848.275,119.025 828.475,111.225 816.025,106.35 805.375,103.95 794.2,101.475 785.125,101.775 766.075,102.45 751.525,115.275 735.85,128.925 728.275,146.925 720.25,166.125 724.15,184.275 727.45,199.875 739.075,209.625 744.925,214.5 750.175,216.525 767.125,205.875 784,205.275 M971.2,342.75 L963.55,387.225 Q964.075,388.05 963.475,387.6 L961.525,398.775 Q956.875,400.125 951.55,402.975 940.75,408.675 937,416.025 933.625,422.625 933.175,428.625 932.875,432.45 933.775,436.05 936.55,447.525 951.475,450.225 965.35,452.775 975.175,446.025 980.425,442.35 985.975,435.75 990.4,431.025 992.8,429.45 993.625,428.925 994.525,428.625 996.7,427.95 999.25,428.625 1001.05,429.075 1003,430.275 1009.45,434.025 1011.025,433.425 1011.325,433.35 1014.475,428.775 1016.875,425.4 1013.5,420.225 1011.025,416.4 1007.125,413.7 1006.825,413.475 1006.525,413.25 1001.875,411.375 1000,410.025 996.775,407.625 996.475,400.725 996.175,393.9 1005.325,353.625 L1014.475,314.775 1017.775,314.925 Q1023.025,315.075 1033,314.775 M948.25,336.825 L941.425,333 Q940.525,333.375 939.7,333.75 934.9,335.775 932.5,336.825 937.3,351.375 953.725,374.025 957.475,379.2 962.5,385.8 963.175,386.7 963.55,387.225 L963.475,387.6 Q963.1,387.375 962.5,386.775 M932.5,336.825 Q926.425,339.6 923.65,342 920.2,344.925 919.525,348.9 918.175,356.4 926.5,368.325 936.85,383.1 958.975,398.775 M939.7,333.75 L939.175,331.725 941.425,333 Q942.85,332.4 944.5,331.725 M750.175,216.525 Q746.05,219.075 741.925,222.225 728.125,232.95 721.6,242.25 717.625,247.95 716.35,253.125 712.825,266.775 713.35,278.775 713.875,290.775 717.175,305.55 719.125,310.275 721.6,315.075 722.35,316.575 723.175,318.075 734.125,338.4 749.425,352.725 765.775,368.025 787.375,373.575 797.275,376.05 805.375,376.2 810.85,376.275 815.5,375.225 814.9,375.9 853.375,405.375 868.6,417.075 883.9,428.625 887.95,431.7 892,434.775 L883,448.275 M857.5,410.25 L847,421.725" test="RightBum"/>
    </g>
    <g id="LeftBum">
      <path id="Layer1_0_1_STROKES" stroke="#FEB7AE" stroke-width="3" stroke-linejoin="round" stroke-linecap="round" fill="none" d="M-124.05,150 Q-102.525,136.05 -80.025,125.025 -57.675,114.15 -36.6,107.175 -9.375,98.175 8.85,98.25 31.8,98.325 48.375,103.95 67.875,110.625 82.95,126.3 90.15,133.725 91.95,149.85 93.3,161.625 91.65,175.8 90.375,186.525 83.25,195.675 79.05,201 69.375,211.95 70.875,213.45 72.225,214.875 78.825,221.925 84,231.3 87.525,237.675 89.4,245.775 91.05,252.9 91.5,261.375 92.175,274.575 89.85,287.7 89.325,290.475 88.65,293.25 79.65,332.775 57,356.25 39.6,374.25 16.875,385.5 16.575,385.65 -.75,393.6 -10.8,398.25 -17.025,402.3 -26.325,408.3 -33.525,413.925 -40.05,419.025 -48,426.3 -54.825,432.45 -57.225,439.5 -60.15,447.975 -55.05,454.05 -53.475,456 -48.075,458.775 -42.675,461.55 -43.05,460.275 M-13.5,199.8 Q0.975,188.925 22.2,189.6 42.9,190.275 57,201.3 64.35,207.075 69.375,211.95 M-235.5,243.3 Q-230.025,243.15 -222.15,244.275 -217.65,244.95 -208.8,246.375 -202.425,247.2 -193.5,248.025 -188.4,248.475 -178.2,249.3 -171.6,249.825 -163.2,251.925 -161.55,252.3 -158.325,252.525 -156.15,252.6 -154.95,253.425 -152.1,255.375 -145.5,269.25 -138.6,283.8 -135,294.6 -131.925,303.9 -127.875,321.075 -126.075,328.65 -121.95,339.075 -116.7,352.35 -115.275,356.775 -114.825,358.125 -112.8,366.975 -110.7,375.525 -109.5,376.8 -107.475,379.05 -107.85,380.025 -107.85,380.175 -104.85,380.775 -99.975,381.75 -93.9,387.075 -87.825,392.25 -84.3,398.55 -80.325,405.375 -81.6,409.95 -83.1,415.275 -91.5,416.025 -95.625,418.125 -102.675,416.55 -110.55,414.225 -114.075,413.775 -121.35,412.8 -130.8,414.675 -136.875,415.65 -139.725,416.25 -144.45,417.3 -148.2,419.4 -150.975,421.05 -154.575,423.825 -156.6,425.4 -160.575,428.625 -162.675,425.55 -160.125,418.875 -156.675,411.675 -155.625,409.35 -154.8,407.475 -152.025,404.85 -149.325,402.15 -148.65,400.65 -147.375,397.95 -149.1,390.075 -149.775,386.925 -151.95,379.35 -153.525,373.5 -157.425,366.75 -159.75,362.775 -165,355.125 M-150,397.275 Q-150.525,397.65 -158.475,401.1 -164.775,403.8 -166.575,406.575 -169.575,411.375 -170.1,415.65 -170.925,422.775 -167.55,436.275 -167.175,437.775 -166.725,439.2 -165.75,442.275 -164.4,445.2 -162.825,448.725 -160.65,452.025 -159.3,454.125 -150,465.75 M-165,355.125 Q-166.275,353.175 -170.925,347.325 -174.6,342.525 -176.55,339.225 -177.9,336.45 -178.725,334.95 -180.15,332.1 -181.5,331.275 -183.075,330.3 -186.9,330.225 -191.1,330.375 -192.525,330.3 -197.025,330.075 -203.775,330.525 -214.35,331.275 -215.025,331.275 -232.65,332.1 -244.05,330.375 -246.975,330 -254.25,327.225 -260.625,324.75 -264.525,324.75 M-134.55,465.3 Q-138,465 -141.6,461.325 -144.6,458.25 -146.55,454.275 -148.725,449.7 -149.625,445.35 -149.625,445.275 -149.625,445.2 -150.375,441.825 -150.15,439.2 -150.075,437.625 -149.625,436.35 -147.15,428.775 -139.95,424.05 -135.975,421.425 -125.55,417.3" test="LeftBum"/>
      <path id="Layer1_0_2_STROKES" stroke="#0FF" stroke-width="3" stroke-linejoin="round" stroke-linecap="round" fill="none" d="M-124.05,150 L-118.275,153.6 Q-111.225,158.175 -105.075,163.65 -85.275,181.05 -81.375,199.8 -78.15,214.8 -70.725,248.325 -65.325,278.775 -67.5,303.3 -70.575,336.825 -72.3,346.275 -75,361.2 -81.375,369.75 L-93,385.8 M-165,355.125 L-167.55,392.25 -150,397.275 M-243,196.275 Q-231.3,193.2 -203.025,183.15 -177.975,174.3 -163.05,171.075 -155.325,169.425 -148.95,166.2 -144,163.65 -136.35,158.325 -130.2,154.05 -124.05,150" test="LeftBum"/>
    </g>
  </g>
</svg>