<?xml version="1.0" encoding="utf-8"?>
<svg id="EdithAnim08" image-rendering="inherit" baseProfile="basic" version="1.1" x="0px" y="0px" width="800" height="600" xmlns="http://www.w3.org/2000/svg" xmlns:xlink="http://www.w3.org/1999/xlink">
  <g id="No-Rear-To-Rearf44r1" overflow="visible">
    <g id="RightBum">
      <path id="Layer2_0_1_STROKES" stroke="#F0F" stroke-width="3" stroke-linejoin="round" stroke-linecap="round" fill="none" d="M950.875,168.075 L959.125,200.475 Q967,236.1 965.125,252.525 962.95,271.5 958.825,292.875 955,312.825 950.875,327.525 948.25,336.9 945.55,346.875 945.025,348.225 944.575,348.825 L969.1,342.75 M1012.375,193.275 L931,156.975 M1012.375,327.525 L1040.875,323.775 M937.6,333.75 L938.35,336.825 Q940,342.825 941.875,347.1 943.3,350.325 944.575,348.825" test="RightBum"/>
      <path id="Layer2_0_2_STROKES" stroke="#F90" stroke-width="3" stroke-linejoin="round" stroke-linecap="round" fill="none" d="M969.1,342.75 L971.425,329.25 Q972.325,324 973.075,310.95 973.825,296.475 974.8,289.35 978.175,262.875 990.925,253.275 998.05,247.875 1005.025,245.4 1010.575,243.375 1016.05,243.225 1020.925,243.15 1026.925,245.25 M931,156.975 Q846.175,119.025 826.375,111.225 813.925,106.35 803.275,103.95 792.1,101.475 783.025,101.775 763.975,102.45 749.425,115.275 733.75,128.925 726.175,146.925 718.15,166.125 722.05,184.275 725.35,199.875 736.975,209.625 742.825,214.5 748.075,216.525 765.025,205.875 781.9,205.275 M969.1,342.75 L961.45,387.225 Q961.975,388.05 961.375,387.6 L959.425,398.775 Q954.775,400.125 949.45,402.975 938.65,408.675 934.9,416.025 931.525,422.625 931.075,428.625 930.775,432.45 931.675,436.05 934.45,447.525 949.375,450.225 963.25,452.775 973.075,446.025 978.325,442.35 983.875,435.75 988.3,431.025 990.7,429.45 991.525,428.925 992.425,428.625 994.6,427.95 997.15,428.625 998.95,429.075 1000.9,430.275 1007.35,434.025 1008.925,433.425 1009.225,433.35 1012.375,428.775 1014.775,425.4 1011.4,420.225 1008.925,416.4 1005.025,413.7 1004.725,413.475 1004.425,413.25 999.775,411.375 997.9,410.025 994.675,407.625 994.375,400.725 994.075,393.9 1003.225,353.625 L1012.375,314.775 1015.675,314.925 Q1020.925,315.075 1030.9,314.775 M946.15,336.825 L939.325,333 Q938.425,333.375 937.6,333.75 932.8,335.775 930.4,336.825 935.2,351.375 951.625,374.025 955.375,379.2 960.4,385.8 961.075,386.7 961.45,387.225 L961.375,387.6 Q961,387.375 960.4,386.775 M930.4,336.825 Q924.325,339.6 921.55,342 918.1,344.925 917.425,348.9 916.075,356.4 924.4,368.325 934.75,383.1 956.875,398.775 M937.6,333.75 L937.075,331.725 939.325,333 Q940.75,332.4 942.4,331.725 M748.075,216.525 Q743.95,219.075 739.825,222.225 726.025,232.95 719.5,242.25 715.525,247.95 714.25,253.125 710.725,266.775 711.25,278.775 711.775,290.775 715.075,305.55 717.025,310.275 719.5,315.075 720.25,316.575 721.075,318.075 732.025,338.4 747.325,352.725 763.675,368.025 785.275,373.575 795.175,376.05 803.275,376.2 808.75,376.275 813.4,375.225 812.8,375.9 851.275,405.375 866.5,417.075 881.8,428.625 885.85,431.7 889.9,434.775 L880.9,448.275 M855.4,410.25 L844.9,421.725" test="RightBum"/>
    </g>
    <g id="LeftBum">
      <path id="Layer1_0_1_STROKES" stroke="#FEB7AE" stroke-width="3" stroke-linejoin="round" stroke-linecap="round" fill="none" d="M-121.95,150 Q-100.425,136.05 -77.925,125.025 -55.575,114.15 -34.5,107.175 -7.275,98.175 10.95,98.25 33.9,98.325 50.475,103.95 69.975,110.625 85.05,126.3 92.25,133.725 94.05,149.85 95.4,161.625 93.75,175.8 92.475,186.525 85.35,195.675 81.15,201 71.475,211.95 72.975,213.45 74.325,214.875 80.925,221.925 86.1,231.3 89.625,237.675 91.5,245.775 93.15,252.9 93.6,261.375 94.275,274.575 91.95,287.7 91.425,290.475 90.75,293.25 81.75,332.775 59.1,356.25 41.7,374.25 18.975,385.5 18.675,385.65 1.35,393.6 -8.7,398.25 -14.925,402.3 -24.225,408.3 -31.425,413.925 -37.95,419.025 -45.9,426.3 -52.725,432.45 -55.125,439.5 -58.05,447.975 -52.95,454.05 -51.375,456 -45.975,458.775 -40.575,461.55 -40.95,460.275 M-11.4,199.8 Q3.075,188.925 24.3,189.6 45,190.275 59.1,201.3 66.45,207.075 71.475,211.95 M-233.4,243.3 Q-227.925,243.15 -220.05,244.275 -215.55,244.95 -206.7,246.375 -200.325,247.2 -191.4,248.025 -186.3,248.475 -176.1,249.3 -169.5,249.825 -161.1,251.925 -159.45,252.3 -156.225,252.525 -154.05,252.6 -152.85,253.425 -150,255.375 -143.4,269.25 -136.5,283.8 -132.9,294.6 -129.825,303.9 -125.775,321.075 -123.975,328.65 -119.85,339.075 -114.6,352.35 -113.175,356.775 -112.725,358.125 -110.7,366.975 -108.6,375.525 -107.4,376.8 -105.375,379.05 -105.75,380.025 -105.75,380.175 -102.75,380.775 -97.875,381.75 -91.8,387.075 -85.725,392.25 -82.2,398.55 -78.225,405.375 -79.5,409.95 -81,415.275 -89.4,416.025 -93.525,418.125 -100.575,416.55 -108.45,414.225 -111.975,413.775 -119.25,412.8 -128.7,414.675 -134.775,415.65 -137.625,416.25 -142.35,417.3 -146.1,419.4 -148.875,421.05 -152.475,423.825 -154.5,425.4 -158.475,428.625 -160.575,425.55 -158.025,418.875 -154.575,411.675 -153.525,409.35 -152.7,407.475 -149.925,404.85 -147.225,402.15 -146.55,400.65 -145.275,397.95 -147,390.075 -147.675,386.925 -149.85,379.35 -151.425,373.5 -155.325,366.75 -157.65,362.775 -162.9,355.125 M-147.9,397.275 Q-148.425,397.65 -156.375,401.1 -162.675,403.8 -164.475,406.575 -167.475,411.375 -168,415.65 -168.825,422.775 -165.45,436.275 -165.075,437.775 -164.625,439.2 -163.65,442.275 -162.3,445.2 -160.725,448.725 -158.55,452.025 -157.2,454.125 -147.9,465.75 M-162.9,355.125 Q-164.175,353.175 -168.825,347.325 -172.5,342.525 -174.45,339.225 -175.8,336.45 -176.625,334.95 -178.05,332.1 -179.4,331.275 -180.975,330.3 -184.8,330.225 -189,330.375 -190.425,330.3 -194.925,330.075 -201.675,330.525 -212.25,331.275 -212.925,331.275 -230.55,332.1 -241.95,330.375 -244.875,330 -252.15,327.225 -258.525,324.75 -262.425,324.75 M-132.45,465.3 Q-135.9,465 -139.5,461.325 -142.5,458.25 -144.45,454.275 -146.625,449.7 -147.525,445.35 -147.525,445.275 -147.525,445.2 -148.275,441.825 -148.05,439.2 -147.975,437.625 -147.525,436.35 -145.05,428.775 -137.85,424.05 -133.875,421.425 -123.45,417.3" test="LeftBum"/>
      <path id="Layer1_0_2_STROKES" stroke="#0FF" stroke-width="3" stroke-linejoin="round" stroke-linecap="round" fill="none" d="M-121.95,150 L-116.175,153.6 Q-109.125,158.175 -102.975,163.65 -83.175,181.05 -79.275,199.8 -76.05,214.8 -68.625,248.325 -63.225,278.775 -65.4,303.3 -68.475,336.825 -70.2,346.275 -72.9,361.2 -79.275,369.75 L-90.9,385.8 M-162.9,355.125 L-165.45,392.25 -147.9,397.275 M-240.9,196.275 Q-229.2,193.2 -200.925,183.15 -175.875,174.3 -160.95,171.075 -153.225,169.425 -146.85,166.2 -141.9,163.65 -134.25,158.325 -128.1,154.05 -121.95,150" test="LeftBum"/>
    </g>
  </g>
</svg>