<?xml version="1.0" encoding="utf-8"?>
<svg id="EdithAnim08" image-rendering="inherit" baseProfile="basic" version="1.1" x="0px" y="0px" width="800" height="600" xmlns="http://www.w3.org/2000/svg" xmlns:xlink="http://www.w3.org/1999/xlink">
  <g id="No-Rear-To-Rearf451r1" overflow="visible">
    <g id="RightBum">
      <path id="Layer3_0_1_STROKES" stroke="#F0F" stroke-width="3.006" stroke-linejoin="round" stroke-linecap="round" fill="none" d="M646.237,167.519 L654.503,199.984 Q662.394,235.68 660.515,252.138 658.336,271.151 654.203,292.569 650.37,312.559 646.237,327.288 643.606,336.682 640.901,346.677 640.375,348.03 639.924,348.631 L664.498,342.544 M707.86,192.77 L626.322,156.397 M707.86,327.288 L736.417,323.531 M632.935,333.526 L633.687,336.607 Q635.34,342.619 637.219,346.902 638.647,350.134 639.924,348.631" test="RightBum"/>
      <path id="Layer3_0_2_STROKES" stroke="#F90" stroke-width="3.006" stroke-linejoin="round" stroke-linecap="round" fill="none" d="M664.498,342.544 L666.828,329.017 Q667.73,323.756 668.481,310.68 669.233,296.176 670.21,289.037 673.591,262.509 686.367,252.89 693.506,247.479 700.495,244 706.056,242.97 711.542,242.82 716.427,242.745 722.439,244.849 M626.322,156.397 Q541.327,118.371 521.488,110.556 509.013,105.671 498.341,103.266 487.144,100.786 478.051,101.087 458.963,101.763 444.384,114.614 428.677,128.291 421.087,146.327 413.046,165.565 416.954,183.752 420.261,199.383 431.909,209.152 437.771,214.037 443.031,216.066 460.015,205.395 476.924,204.794 M664.498,342.544 L656.833,387.108 Q657.359,387.934 656.758,387.483 L654.804,398.681 Q650.144,400.033 644.809,402.889 633.987,408.601 630.23,415.965 626.848,422.578 626.397,428.59 626.096,432.423 626.998,436.03 629.779,447.528 644.734,450.234 658.636,452.789 668.481,446.025 673.742,442.343 679.303,435.73 683.737,430.995 686.141,429.417 686.968,428.891 687.87,428.59 690.049,427.914 692.604,428.59 694.408,429.041 696.362,430.244 702.825,434.001 704.403,433.4 704.703,433.325 707.86,428.741 710.264,425.359 706.883,420.174 704.403,416.341 700.495,413.636 700.194,413.41 699.894,413.185 695.234,411.306 693.356,409.953 690.124,407.548 689.824,400.635 689.523,393.796 698.691,353.44 L707.86,314.513 711.166,314.663 Q716.427,314.813 726.422,314.513 M641.502,336.607 L634.664,332.774 Q633.762,333.15 632.935,333.526 628.126,335.555 625.721,336.607 630.53,351.186 646.988,373.881 650.746,379.067 655.781,385.68 656.457,386.582 656.833,387.108 L656.758,387.483 Q656.382,387.258 655.781,386.657 M625.721,336.607 Q619.634,339.387 616.853,341.792 613.396,344.723 612.72,348.706 611.367,356.221 619.709,368.17 630.079,382.974 652.249,398.681 M632.935,333.526 L632.409,331.497 634.664,332.774 Q636.091,332.173 637.745,331.497 M443.031,216.066 Q438.898,218.621 434.765,221.778 420.937,232.524 414.399,241.843 410.416,247.554 409.138,252.739 405.606,266.417 406.132,278.441 406.658,290.465 409.965,305.269 411.919,310.004 414.399,314.813 415.15,316.316 415.977,317.819 426.949,338.185 442.28,352.539 458.662,367.869 480.305,373.43 490.225,375.91 498.341,376.061 503.827,376.136 508.487,375.084 507.886,375.76 546.437,405.294 561.693,417.017 577.024,428.59 581.082,431.672 585.14,434.753 L576.122,448.28 M550.571,410.179 L540.05,421.677" test="RightBum"/>
    </g>
    <g id="LeftBum">
      <path id="Layer2_0_1_STROKES" stroke="#FEB7AE" stroke-width="3.006" stroke-linejoin="round" stroke-linecap="round" fill="none" d="M187.724,149.436 Q209.292,135.458 231.837,124.411 254.232,113.514 275.349,106.525 302.628,97.507 320.89,97.583 343.886,97.658 360.494,103.294 380.033,109.982 395.138,125.689 402.352,133.128 404.156,149.286 405.509,161.084 403.855,175.288 402.578,186.034 395.438,195.202 391.23,200.538 381.536,211.51 383.039,213.013 384.391,214.441 391.005,221.505 396.19,230.899 399.722,237.286 401.601,245.403 403.254,252.542 403.705,261.034 404.381,274.26 402.052,287.411 401.526,290.192 400.849,292.972 391.831,332.577 369.136,356.099 351.701,374.135 328.931,385.407 328.63,385.557 311.27,393.523 301.2,398.183 294.963,402.241 285.644,408.253 278.43,413.889 271.892,418 263.926,426.289 257.087,432.451 254.682,439.515 251.752,448.007 256.862,454.094 258.44,456.048 263.851,458.829 269.262,461.609 268.886,460.332 M298.495,199.336 Q312,188.439 334.266,189.115 355.008,189.792 369.136,200.839 376.501,206.625 381.536,211.51 M76.051,242.923 Q81.537,242.772 89.428,243.9 93.937,244.576 102.804,246.004 109.192,246.83 118.135,247.657 123.245,248.108 133.466,248.935 140.079,249.461 148.496,251.565 150.149,251.941 153.38,252.166 155.56,252.241 156.762,253.068 159.618,255.022 166.231,268.924 173.145,283.504 176.752,294.325 179.833,303.644 183.891,320.853 185.695,328.443 189.828,338.889 195.089,352.191 196.516,356.625 196.967,357.977 198.996,366.845 201.101,375.412 202.303,376.69 204.332,378.944 203.956,379.921 203.956,380.071 206.962,380.673 211.847,381.65 217.934,386.985 224.021,392.17 227.553,398.483 231.536,405.322 230.259,409.906 228.756,415.242 220.339,415.993 216.206,418.097 209.142,416.519 201.251,414.189 197.719,413.739 190.429,412.762 180.96,414.64 174.873,415.617 172.017,416.218 167.283,417.271 163.526,419.375 160.745,421.028 157.138,423.809 155.109,425.387 151.126,428.618 149.022,425.537 151.577,418.849 155.034,411.634 156.086,409.305 156.912,407.426 159.693,404.796 162.398,402.09 163.075,400.587 164.352,397.882 162.624,389.991 161.947,386.835 159.768,379.245 158.19,373.383 154.282,366.62 151.952,362.637 146.692,354.971 M161.722,397.206 Q161.196,397.581 153.23,401.038 146.917,403.744 145.114,406.524 142.108,411.334 141.582,415.617 140.755,422.757 144.137,436.284 144.513,437.787 144.963,439.214 145.94,442.296 147.293,445.226 148.871,448.758 151.051,452.065 152.403,454.169 161.722,465.818 M146.692,354.971 Q145.414,353.017 140.755,347.156 137.073,342.346 135.119,339.039 133.766,336.259 132.939,334.756 131.512,331.9 130.159,331.074 128.581,330.097 124.748,330.021 120.54,330.172 119.112,330.097 114.603,329.871 107.839,330.322 97.243,331.074 96.567,331.074 78.907,331.9 67.484,330.172 64.553,329.796 57.263,327.015 50.876,324.535 46.968,324.535 M177.203,465.367 Q173.746,465.066 170.139,461.384 167.133,458.303 165.179,454.32 162,449.735 162.098,445.377 162.098,445.302 162.098,445.226 161.346,441.845 161.572,439.214 161.647,437.636 162.098,436.359 164.578,428.769 171.792,424.034 175.775,421.404 186.221,417.271" test="LeftBum"/>
      <path id="Layer2_0_2_STROKES" stroke="#0FF" stroke-width="3.006" stroke-linejoin="round" stroke-linecap="round" fill="none" d="M187.724,149.436 L193.51,153.043 Q200.574,157.627 206.737,163.113 226.576,180.548 230.484,199.336 233.716,214.366 241.155,247.958 246.566,278.469 244.387,303.043 241.306,336.635 239.577,346.104 236.872,361.058 230.484,369.626 L218.836,385.708 M146.692,354.971 L144.137,392.17 161.722,397.206 M68.536,195.804 Q80.259,192.722 108.591,182.652 133.691,173.785 148.646,170.553 156.386,168.9 162.774,165.668 167.734,163.113 175.399,157.778 181.562,153.494 187.724,149.436" test="LeftBum"/>
    </g>
    <g id="StopSign">
      <path fill="#000" stroke="none" d="M536.843,111.65 Q480.575,55.383 401.05,55.339 321.525,55.383 265.257,111.65 208.989,167.918 208.989,247.4 208.989,326.969 265.257,383.236 321.525,439.504 401.05,439.461 480.575,439.504 536.843,383.236 593.111,326.969 593.111,247.4 593.111,167.918 536.843,111.65 M401.05,95.21 Q451.147,95.167 489.508,123.603 L278.418,334.736 Q250.025,296.332 250.025,246.235 250.025,183.667 294.254,139.439 338.483,95.21 401.05,95.21 M521.568,154.973 Q552.075,194.282 552.075,246.235 552.075,308.759 507.846,352.988 463.618,397.217 401.05,397.26 349.097,397.26 309.788,366.753 L521.568,154.973Z" test="StopSign" vector-effect="non-scaling-stroke" stroke-width="1"/>
      <path id="Layer1_0_1_STROKES" stroke="#F00" stroke-width="1" stroke-linejoin="round" stroke-linecap="round" fill="none" d="M250.025,246.235 Q250.025,183.667 294.254,139.439 338.483,95.21 401.05,95.21 451.147,95.167 489.508,123.603 L278.418,334.736 Q250.025,296.332 250.025,246.235Z M536.843,383.236 Q480.575,439.504 401.05,439.461 321.525,439.504 265.257,383.236 208.989,326.969 208.989,247.4 208.989,167.918 265.257,111.65 321.525,55.383 401.05,55.339 480.575,55.383 536.843,111.65 593.111,167.918 593.111,247.4 593.111,326.969 536.843,383.236Z M507.846,352.988 Q463.618,397.217 401.05,397.26 349.097,397.26 309.788,366.753 L521.568,154.973 Q552.075,194.282 552.075,246.235 552.075,308.759 507.846,352.988Z" test="StopSign" vector-effect="non-scaling-stroke"/>
    </g>
  </g>
</svg>