<?xml version="1.0" encoding="utf-8"?>
<svg id="EdithAnim08" image-rendering="inherit" baseProfile="basic" version="1.1" x="0px" y="0px" width="800" height="600" xmlns="http://www.w3.org/2000/svg" xmlns:xlink="http://www.w3.org/1999/xlink">
  <g id="No-Rear-To-Rearf453r1" overflow="visible">
    <g id="RightBum">
      <path id="Layer3_0_1_STROKES" stroke="#F0F" stroke-width="3.024" stroke-linejoin="round" stroke-linecap="round" fill="none" d="M651.122,166.002 L659.438,198.662 Q667.376,234.572 665.486,251.128 663.293,270.255 659.135,291.801 655.28,311.91 651.122,326.728 648.476,336.178 645.754,346.233 645.225,347.594 644.771,348.198 L669.492,342.075 M713.114,191.404 L631.088,154.814 M713.114,326.728 L741.842,322.948 M637.74,333.003 L638.496,336.102 Q640.16,342.15 642.05,346.46 643.486,349.71 644.771,348.198" test="RightBum"/>
      <path id="Layer3_0_2_STROKES" stroke="#F90" stroke-width="3.024" stroke-linejoin="round" stroke-linecap="round" fill="none" d="M669.492,342.075 L671.836,328.467 Q672.743,323.175 673.499,310.02 674.255,295.43 675.238,288.248 678.64,261.561 691.492,251.884 698.674,246.441 705.705,243.946 711.299,241.905 716.818,241.754 721.732,241.678 727.78,243.795 M631.088,154.814 Q545.584,116.56 525.626,108.698 513.076,103.784 502.341,101.364 491.076,98.87 481.929,99.172 462.726,99.852 448.06,112.78 432.26,126.539 424.624,144.683 416.535,164.037 420.466,182.332 423.792,198.057 435.51,207.885 441.407,212.799 446.699,214.84 463.785,204.105 480.795,203.5 M669.492,342.075 L661.781,386.906 Q662.31,387.737 661.706,387.284 L659.74,398.548 Q655.053,399.909 649.685,402.782 638.799,408.527 635.019,415.936 631.617,422.589 631.163,428.637 630.861,432.492 631.768,436.121 634.565,447.688 649.61,450.41 663.596,452.98 673.499,446.176 678.791,442.472 684.386,435.819 688.846,431.056 691.265,429.468 692.097,428.939 693.004,428.637 695.196,427.956 697.767,428.637 699.581,429.09 701.547,430.3 708.048,434.08 709.636,433.475 709.938,433.4 713.114,428.788 715.533,425.386 712.131,420.17 709.636,416.314 705.705,413.592 705.402,413.366 705.1,413.139 700.413,411.249 698.523,409.888 695.272,407.469 694.97,400.514 694.667,393.634 703.89,353.037 L713.114,313.876 716.44,314.027 Q721.732,314.178 731.787,313.876 M646.359,336.102 L639.479,332.247 Q638.572,332.625 637.74,333.003 632.902,335.044 630.483,336.102 635.321,350.769 651.878,373.6 655.658,378.816 660.723,385.469 661.403,386.376 661.781,386.906 L661.706,387.284 Q661.328,387.057 660.723,386.452 M630.483,336.102 Q624.359,338.9 621.562,341.319 618.084,344.267 617.404,348.274 616.043,355.834 624.435,367.854 634.868,382.748 657.17,398.548 M637.74,333.003 L637.211,330.962 639.479,332.247 Q640.916,331.642 642.579,330.962 M446.699,214.84 Q442.541,217.41 438.383,220.586 424.473,231.396 417.896,240.771 413.889,246.516 412.604,251.733 409.05,265.492 409.58,277.588 410.109,289.684 413.435,304.577 415.401,309.34 417.896,314.178 418.652,315.69 419.483,317.202 430.521,337.69 445.943,352.13 462.424,367.552 484.197,373.146 494.176,375.641 502.341,375.792 507.86,375.868 512.547,374.81 511.942,375.49 550.725,405.201 566.072,416.994 581.494,428.637 585.576,431.736 589.659,434.836 L580.587,448.444 M554.883,410.115 L544.299,421.682" test="RightBum"/>
    </g>
    <g id="LeftBum">
      <path id="Layer2_0_1_STROKES" stroke="#FEB7AE" stroke-width="3.022" stroke-linejoin="round" stroke-linecap="round" fill="none" d="M183.071,147.682 Q204.753,133.63 227.418,122.524 249.932,111.569 271.162,104.543 298.587,95.477 316.945,95.552 340.064,95.628 356.76,101.294 376.403,108.018 391.589,123.808 398.841,131.288 400.655,147.531 402.015,159.392 400.352,173.671 399.068,184.475 391.891,193.692 387.66,199.056 377.914,210.086 379.425,211.597 380.785,213.033 387.433,220.134 392.646,229.578 396.197,236 398.086,244.159 399.748,251.337 400.201,259.874 400.881,273.171 398.539,286.392 398.01,289.187 397.33,291.982 388.264,331.797 365.448,355.444 347.921,373.576 325.029,384.909 324.727,385.06 307.275,393.068 297.151,397.752 290.88,401.832 281.512,407.876 274.259,413.542 267.687,418.68 259.678,426.008 252.803,432.203 250.386,439.305 247.439,447.842 252.577,453.962 254.163,455.926 259.603,458.721 265.042,461.517 264.665,460.232 M294.431,197.847 Q309.012,186.892 330.393,187.572 351.245,188.252 365.448,199.358 372.852,205.176 377.914,210.086 M70.803,241.666 Q76.318,241.515 84.251,242.648 88.784,243.328 97.699,244.764 104.121,245.595 113.111,246.426 118.249,246.879 128.524,247.71 135.172,248.239 143.634,250.354 145.296,250.732 148.544,250.959 150.735,251.034 151.944,251.865 154.815,253.83 161.463,267.807 168.414,282.463 172.04,293.342 175.138,302.711 179.218,320.012 181.031,327.642 185.186,338.144 190.474,351.516 191.91,355.973 192.363,357.333 194.403,366.248 196.519,374.861 197.727,376.145 199.767,378.412 199.389,379.394 199.389,379.545 202.411,380.149 207.322,381.131 213.442,386.496 219.561,391.708 223.112,398.055 227.116,404.93 225.832,409.538 224.321,414.902 215.859,415.658 211.704,417.773 204.602,416.187 196.67,413.845 193.119,413.391 185.79,412.409 176.271,414.298 170.152,415.28 167.281,415.885 162.521,416.942 158.743,419.058 155.948,420.72 152.322,423.515 150.282,425.102 146.278,428.35 144.162,425.253 146.731,418.529 150.206,411.276 151.264,408.934 152.095,407.045 154.89,404.401 157.61,401.681 158.29,400.17 159.575,397.45 157.837,389.518 157.157,386.344 154.966,378.714 153.379,372.821 149.451,366.021 147.109,362.017 141.82,354.311 M156.93,396.77 Q156.401,397.148 148.393,400.623 142.047,403.343 140.234,406.139 137.212,410.974 136.683,415.28 135.852,422.457 139.252,436.056 139.629,437.567 140.083,439.003 141.065,442.1 142.425,445.047 144.011,448.598 146.202,451.922 147.562,454.037 156.93,465.747 M141.82,354.311 Q140.536,352.347 135.852,346.454 132.15,341.619 130.186,338.295 128.826,335.499 127.995,333.988 126.559,331.117 125.199,330.286 123.613,329.304 119.76,329.229 115.529,329.38 114.093,329.304 109.56,329.078 102.761,329.531 92.108,330.286 91.428,330.286 73.674,331.117 62.191,329.38 59.244,329.002 51.916,326.207 45.494,323.713 41.565,323.713 M172.494,465.294 Q169.018,464.992 165.392,461.29 162.37,458.193 160.406,454.188 158.215,449.58 157.308,445.198 157.308,445.122 157.308,445.047 156.553,441.647 156.779,439.003 156.855,437.416 157.308,436.132 159.801,428.501 167.054,423.742 171.058,421.097 181.56,416.942" test="LeftBum"/>
      <path id="Layer2_0_2_STROKES" stroke="#0FF" stroke-width="3.022" stroke-linejoin="round" stroke-linecap="round" fill="none" d="M183.071,147.682 L188.888,151.308 Q195.99,155.917 202.185,161.432 222.13,178.96 226.059,197.847 229.307,212.957 236.787,246.728 242.226,277.401 240.035,302.106 236.938,335.877 235.2,345.396 232.48,360.431 226.059,369.044 L214.348,385.211 M141.82,354.311 L139.252,391.708 156.93,396.77 M63.248,194.296 Q75.034,191.199 103.516,181.075 128.75,172.16 143.785,168.912 151.566,167.249 157.988,164.001 162.974,161.432 170.68,156.068 176.876,151.762 183.071,147.682" test="LeftBum"/>
    </g>
    <g id="StopSign">
      <path fill="#000" stroke="none" d="M537.787,105.556 Q481.128,48.898 401.05,48.854 320.972,48.898 264.313,105.556 207.654,162.215 207.654,242.25 207.654,322.372 264.313,379.031 320.972,435.689 401.05,435.646 481.128,435.689 537.787,379.031 594.446,322.372 594.446,242.25 594.446,162.215 537.787,105.556 M401.05,89.002 Q451.495,88.958 490.123,117.592 L277.565,330.193 Q248.975,291.522 248.975,241.077 248.975,178.074 293.511,133.538 338.048,89.002 401.05,89.002 M522.406,149.18 Q553.125,188.763 553.125,241.077 553.125,304.036 508.589,348.572 464.053,393.108 401.05,393.152 348.736,393.152 309.153,362.433 L522.406,149.18Z" test="StopSign" vector-effect="non-scaling-stroke" stroke-width="1"/>
      <path id="Layer1_0_1_STROKES" stroke="#F00" stroke-width="1" stroke-linejoin="round" stroke-linecap="round" fill="none" d="M248.975,241.077 Q248.975,178.074 293.511,133.538 338.048,89.002 401.05,89.002 451.495,88.958 490.123,117.592 L277.565,330.193 Q248.975,291.522 248.975,241.077Z M537.787,379.031 Q481.128,435.689 401.05,435.646 320.972,435.689 264.313,379.031 207.654,322.372 207.654,242.25 207.654,162.215 264.313,105.556 320.972,48.898 401.05,48.854 481.128,48.898 537.787,105.556 594.446,162.215 594.446,242.25 594.446,322.372 537.787,379.031Z M508.589,348.572 Q464.053,393.108 401.05,393.152 348.736,393.152 309.153,362.433 L522.406,149.18 Q553.125,188.763 553.125,241.077 553.125,304.036 508.589,348.572Z" test="StopSign" vector-effect="non-scaling-stroke"/>
    </g>
  </g>
</svg>