<?xml version="1.0" encoding="utf-8"?>
<svg id="EdithAnim08" image-rendering="inherit" baseProfile="basic" version="1.1" x="0px" y="0px" width="800" height="600" xmlns="http://www.w3.org/2000/svg" xmlns:xlink="http://www.w3.org/1999/xlink">
  <g id="No-Rear-To-Rearf455r1" overflow="visible">
    <g id="RightBum">
      <path id="Layer3_0_1_STROKES" stroke="#F0F" stroke-width="3.056" stroke-linejoin="round" stroke-linecap="round" fill="none" d="M659.1,163.206 L667.504,196.21 Q675.526,232.5 673.616,249.232 671.401,268.561 667.199,290.335 663.302,310.658 659.1,325.632 656.426,335.182 653.676,345.343 653.141,346.718 652.683,347.33 L677.666,341.141 M721.748,188.876 L638.854,151.898 M721.748,325.632 L750.78,321.812 M645.578,331.973 L646.342,335.106 Q648.022,341.218 649.932,345.572 651.384,348.858 652.683,347.33" test="RightBum"/>
      <path id="Layer3_0_2_STROKES" stroke="#F90" stroke-width="3.056" stroke-linejoin="round" stroke-linecap="round" fill="none" d="M677.666,341.141 L680.034,327.389 Q680.951,322.041 681.715,308.748 682.479,294.002 683.472,286.744 686.91,259.775 699.898,249.996 707.156,244.495 714.261,241.974 719.915,239.911 725.492,239.758 730.458,239.682 736.57,241.821 M638.854,151.898 Q552.446,113.24 532.276,105.294 519.594,100.328 508.745,97.884 497.362,95.362 488.117,95.668 468.712,96.356 453.89,109.42 437.922,123.325 430.206,141.661 422.031,161.219 426.004,179.708 429.366,195.599 441.208,205.531 447.167,210.497 452.515,212.56 469.781,201.711 486.971,201.1 M677.666,341.141 L669.873,386.446 Q670.408,387.287 669.796,386.828 L667.81,398.212 Q663.073,399.587 657.649,402.49 646.647,408.297 642.827,415.784 639.389,422.507 638.931,428.619 638.625,432.516 639.542,436.183 642.369,447.872 657.572,450.622 671.706,453.22 681.715,446.344 687.063,442.6 692.716,435.877 697.224,431.064 699.669,429.46 700.509,428.925 701.426,428.619 703.642,427.932 706.239,428.619 708.073,429.078 710.059,430.3 716.63,434.12 718.234,433.509 718.54,433.432 721.748,428.772 724.193,425.334 720.755,420.062 718.234,416.166 714.261,413.416 713.956,413.186 713.65,412.957 708.913,411.047 707.003,409.672 703.718,407.227 703.412,400.198 703.107,393.246 712.428,352.219 L721.748,312.644 725.11,312.797 Q730.458,312.95 740.619,312.644 M654.287,335.106 L647.335,331.209 Q646.418,331.591 645.578,331.973 640.688,334.036 638.243,335.106 643.133,349.927 659.864,373 663.684,378.272 668.803,384.995 669.491,385.912 669.873,386.446 L669.796,386.828 Q669.414,386.599 668.803,385.988 M638.243,335.106 Q632.055,337.932 629.228,340.377 625.714,343.357 625.026,347.406 623.651,355.046 632.131,367.194 642.674,382.244 665.212,398.212 M645.578,331.973 L645.043,329.91 647.335,331.209 Q648.786,330.598 650.467,329.91 M452.515,212.56 Q448.313,215.158 444.111,218.366 430.053,229.292 423.406,238.765 419.357,244.572 418.058,249.843 414.468,263.748 415.002,275.972 415.537,288.196 418.899,303.247 420.885,308.06 423.406,312.95 424.17,314.478 425.011,316.006 436.165,336.71 451.751,351.302 468.406,366.888 490.409,372.542 500.494,375.063 508.745,375.216 514.322,375.292 519.059,374.222 518.448,374.91 557.641,404.935 573.15,416.854 588.736,428.619 592.862,431.752 596.987,434.884 L587.819,448.636 M561.843,409.901 L551.147,421.59" test="RightBum"/>
    </g>
    <g id="LeftBum">
      <path id="Layer2_0_1_STROKES" stroke="#FEB7AE" stroke-width="3.048" stroke-linejoin="round" stroke-linecap="round" fill="none" d="M175.54,144.888 Q197.41,130.715 220.27,119.513 242.977,108.464 264.39,101.378 292.05,92.234 310.567,92.31 333.884,92.386 350.724,98.101 370.536,104.883 385.852,120.809 393.168,128.353 394.996,144.736 396.368,156.699 394.692,171.101 393.396,181.997 386.157,191.294 381.89,196.704 372.06,207.829 373.584,209.353 374.956,210.801 381.661,217.964 386.919,227.489 390.501,233.966 392.406,242.195 394.082,249.434 394.539,258.045 395.225,271.456 392.863,284.791 392.329,287.611 391.644,290.43 382.5,330.587 359.487,354.438 341.809,372.726 318.72,384.156 318.415,384.308 300.813,392.386 290.602,397.11 284.278,401.225 274.829,407.321 267.514,413.036 260.884,418.217 252.807,425.609 245.873,431.857 243.435,439.02 240.463,447.631 245.644,453.803 247.245,455.784 252.731,458.603 258.217,461.423 257.836,460.127 M287.859,195.485 Q302.566,184.436 324.13,185.122 345.162,185.807 359.487,197.009 366.955,202.876 372.06,207.829 M62.307,239.681 Q67.87,239.528 75.871,240.671 80.443,241.357 89.434,242.805 95.911,243.643 104.979,244.481 110.161,244.939 120.524,245.777 127.23,246.31 135.764,248.444 137.44,248.825 140.717,249.053 142.927,249.13 144.146,249.968 147.042,251.949 153.747,266.046 160.758,280.829 164.415,291.802 167.539,301.25 171.654,318.7 173.483,326.396 177.674,336.988 183.008,350.476 184.456,354.971 184.913,356.343 186.97,365.335 189.104,374.021 190.323,375.317 192.381,377.603 192,378.593 192,378.746 195.048,379.355 200.001,380.346 206.173,385.756 212.345,391.014 215.926,397.415 219.965,404.349 218.67,408.997 217.146,414.407 208.611,415.169 204.42,417.303 197.257,415.703 189.256,413.341 185.675,412.883 178.284,411.893 168.682,413.798 162.51,414.788 159.615,415.398 154.814,416.465 151.004,418.598 148.185,420.275 144.527,423.094 142.47,424.694 138.431,427.971 136.297,424.847 138.888,418.065 142.393,410.75 143.46,408.388 144.298,406.483 147.118,403.816 149.861,401.072 150.547,399.548 151.842,396.805 150.09,388.804 149.404,385.604 147.194,377.908 145.594,371.964 141.631,365.106 139.269,361.067 133.935,353.295 M149.175,396.119 Q148.642,396.5 140.565,400.006 134.164,402.749 132.335,405.568 129.287,410.445 128.754,414.788 127.915,422.027 131.344,435.743 131.725,437.267 132.183,438.715 133.173,441.839 134.545,444.811 136.145,448.393 138.355,451.745 139.726,453.879 149.175,465.69 M133.935,353.295 Q132.64,351.314 127.915,345.37 124.182,340.493 122.2,337.141 120.829,334.321 119.991,332.797 118.543,329.902 117.171,329.063 115.571,328.073 111.685,327.997 107.418,328.149 105.97,328.073 101.398,327.844 94.54,328.301 83.796,329.063 83.11,329.063 65.203,329.902 53.62,328.149 50.649,327.768 43.257,324.949 36.78,322.434 32.818,322.434 M164.872,465.233 Q161.367,464.928 157.71,461.194 154.662,458.07 152.68,454.031 150.471,449.383 149.556,444.964 149.556,444.887 149.556,444.811 148.794,441.382 149.023,438.715 149.099,437.115 149.556,435.82 152.071,428.123 159.386,423.323 163.425,420.656 174.016,416.465" test="LeftBum"/>
      <path id="Layer2_0_2_STROKES" stroke="#0FF" stroke-width="3.048" stroke-linejoin="round" stroke-linecap="round" fill="none" d="M175.54,144.888 L181.408,148.546 Q188.571,153.194 194.819,158.756 214.936,176.435 218.898,195.485 222.175,210.725 229.719,244.786 235.205,275.723 232.995,300.641 229.871,334.702 228.118,344.303 225.375,359.467 218.898,368.154 L207.087,384.461 M133.935,353.295 L131.344,391.014 149.175,396.119 M54.687,191.903 Q66.574,188.779 95.302,178.568 120.753,169.577 135.916,166.3 143.765,164.624 150.242,161.347 155.271,158.756 163.044,153.346 169.292,149.003 175.54,144.888" test="LeftBum"/>
    </g>
    <g id="StopSign">
      <path fill="#000" stroke="none" d="M539.568,95.176 Q482.192,37.8 401.1,37.756 320.008,37.8 262.632,95.176 205.256,152.552 205.256,233.6 205.256,314.736 262.632,372.112 320.008,429.488 401.1,429.444 482.192,429.488 539.568,372.112 596.944,314.736 596.944,233.6 596.944,152.552 539.568,95.176 M401.1,78.412 Q452.184,78.368 491.3,107.364 L276.052,322.656 Q247.1,283.496 247.1,232.412 247.1,168.612 292.2,123.512 337.3,78.412 401.1,78.412 M523.992,139.352 Q555.1,179.436 555.1,232.412 555.1,296.168 510,341.268 464.9,386.368 401.1,386.412 348.124,386.412 308.04,355.304 L523.992,139.352Z" test="StopSign" vector-effect="non-scaling-stroke" stroke-width="1"/>
      <path id="Layer1_0_1_STROKES" stroke="#F00" stroke-width="1" stroke-linejoin="round" stroke-linecap="round" fill="none" d="M247.1,232.412 Q247.1,168.612 292.2,123.512 337.3,78.412 401.1,78.412 452.184,78.368 491.3,107.364 L276.052,322.656 Q247.1,283.496 247.1,232.412Z M539.568,372.112 Q482.192,429.488 401.1,429.444 320.008,429.488 262.632,372.112 205.256,314.736 205.256,233.6 205.256,152.552 262.632,95.176 320.008,37.8 401.1,37.756 482.192,37.8 539.568,95.176 596.944,152.552 596.944,233.6 596.944,314.736 539.568,372.112Z M510,341.268 Q464.9,386.368 401.1,386.412 348.124,386.412 308.04,355.304 L523.992,139.352 Q555.1,179.436 555.1,232.412 555.1,296.168 510,341.268Z" test="StopSign" vector-effect="non-scaling-stroke"/>
    </g>
  </g>
</svg>