<?xml version="1.0" encoding="utf-8"?>
<svg id="EdithAnim08" image-rendering="inherit" baseProfile="basic" version="1.1" x="0px" y="0px" width="800" height="600" xmlns="http://www.w3.org/2000/svg" xmlns:xlink="http://www.w3.org/1999/xlink">
  <g id="No-Rear-To-Rearf460r1" overflow="visible">
    <g id="RightBum">
      <path id="Layer3_0_1_STROKES" stroke="#F0F" stroke-width="3.186" stroke-linejoin="round" stroke-linecap="round" fill="none" d="M693.336,151.85 L702.098,186.259 Q710.461,224.092 708.47,241.536 706.16,261.687 701.779,284.387 697.717,305.574 693.336,321.186 690.548,331.142 687.681,341.735 687.123,343.169 686.646,343.806 L712.691,337.355 M758.649,178.612 L672.229,140.062 M758.649,321.186 L788.916,317.203 M679.238,327.797 L680.035,331.062 Q681.787,337.434 683.778,341.974 685.292,345.399 686.646,343.806" test="RightBum"/>
      <path id="Layer3_0_2_STROKES" stroke="#F90" stroke-width="3.186" stroke-linejoin="round" stroke-linecap="round" fill="none" d="M712.691,337.355 L715.16,323.018 Q716.116,317.442 716.913,303.583 717.709,288.211 718.745,280.644 722.329,252.527 735.869,242.332 743.436,236.597 750.843,233.969 756.738,231.818 762.552,231.659 767.729,231.58 774.101,233.81 M672.229,140.062 Q582.145,99.759 561.117,91.475 547.895,86.298 536.585,83.749 524.717,81.121 515.079,81.439 494.848,82.156 479.396,95.776 462.749,110.273 454.705,129.389 446.182,149.779 450.324,169.054 453.829,185.621 466.174,195.976 472.387,201.153 477.963,203.304 495.963,191.993 513.885,191.356 M712.691,337.355 L704.567,384.587 Q705.124,385.463 704.487,384.985 L702.416,396.853 Q697.478,398.287 691.823,401.314 680.353,407.367 676.371,415.173 672.786,422.182 672.309,428.554 671.99,432.616 672.946,436.439 675.893,448.626 691.743,451.493 706.478,454.201 716.913,447.033 722.488,443.13 728.382,436.121 733.082,431.103 735.63,429.43 736.506,428.873 737.462,428.554 739.772,427.837 742.48,428.554 744.392,429.032 746.463,430.306 753.313,434.289 754.985,433.652 755.304,433.572 758.649,428.713 761.198,425.129 757.614,419.633 754.985,415.571 750.843,412.704 750.525,412.465 750.206,412.226 745.268,410.234 743.277,408.801 739.852,406.252 739.533,398.924 739.215,391.676 748.932,348.904 L758.649,307.645 762.154,307.805 Q767.729,307.964 778.323,307.645 M688.318,331.062 L681.07,327 Q680.114,327.398 679.238,327.797 674.141,329.947 671.592,331.062 676.689,346.514 694.133,370.569 698.115,376.065 703.452,383.074 704.169,384.03 704.567,384.587 L704.487,384.985 Q704.089,384.746 703.452,384.109 M671.592,331.062 Q665.14,334.009 662.193,336.558 658.529,339.665 657.812,343.886 656.379,351.851 665.22,364.515 676.211,380.206 699.708,396.853 M679.238,327.797 L678.681,325.646 681.07,327 Q682.583,326.363 684.336,325.646 M477.963,203.304 Q473.582,206.012 469.201,209.357 454.545,220.747 447.616,230.624 443.394,236.677 442.04,242.173 438.297,256.669 438.854,269.413 439.412,282.157 442.917,297.848 444.987,302.866 447.616,307.964 448.412,309.557 449.289,311.15 460.917,332.735 477.166,347.948 494.53,364.197 517.469,370.091 527.983,372.719 536.585,372.879 542.399,372.958 547.338,371.843 546.701,372.56 587.561,403.862 603.73,416.288 619.979,428.554 624.28,431.82 628.581,435.085 L619.023,449.422 M591.942,409.04 L580.791,421.226" test="RightBum"/>
    </g>
    <g id="LeftBum">
      <path id="Layer2_0_1_STROKES" stroke="#FEB7AE" stroke-width="3.164" stroke-linejoin="round" stroke-linecap="round" fill="none" d="M143.067,132.784 Q165.769,118.071 189.499,106.444 213.071,94.974 235.298,87.618 264.011,78.126 283.232,78.205 307.437,78.284 324.918,84.217 345.484,91.256 361.383,107.788 368.977,115.619 370.875,132.626 372.299,145.045 370.559,159.994 369.214,171.306 361.7,180.956 357.27,186.572 347.066,198.121 348.648,199.703 350.072,201.206 357.033,208.641 362.491,218.528 366.208,225.252 368.186,233.795 369.926,241.309 370.401,250.248 371.113,264.169 368.66,278.012 368.107,280.938 367.395,283.865 357.903,325.551 334.015,350.309 315.663,369.293 291.696,381.158 291.38,381.316 273.108,389.701 262.508,394.605 255.943,398.876 246.135,405.204 238.541,411.137 231.659,416.516 223.275,424.188 216.077,430.675 213.545,438.11 210.46,447.048 215.839,453.455 217.5,455.512 223.196,458.439 228.891,461.365 228.495,460.021 M259.661,185.306 Q274.927,173.837 297.312,174.549 319.144,175.261 334.015,186.888 341.766,192.979 347.066,198.121 M25.525,231.184 Q31.299,231.026 39.604,232.213 44.35,232.925 53.684,234.428 60.408,235.298 69.821,236.168 75.199,236.642 85.957,237.512 92.918,238.066 101.777,240.281 103.517,240.676 106.919,240.914 109.212,240.993 110.478,241.863 113.484,243.92 120.445,258.553 127.722,273.898 131.519,285.289 134.762,295.097 139.033,313.211 140.932,321.2 145.282,332.195 150.819,346.196 152.322,350.863 152.797,352.287 154.932,361.62 157.147,370.638 158.413,371.982 160.548,374.355 160.153,375.384 160.153,375.542 163.317,376.175 168.458,377.203 174.865,382.819 181.273,388.277 184.99,394.921 189.183,402.12 187.838,406.945 186.256,412.561 177.397,413.352 173.046,415.567 165.611,413.905 157.305,411.453 153.588,410.979 145.915,409.95 135.948,411.928 129.541,412.956 126.535,413.589 121.552,414.696 117.597,416.911 114.67,418.651 110.874,421.578 108.738,423.239 104.545,426.641 102.331,423.397 105.02,416.358 108.659,408.764 109.766,406.312 110.636,404.334 113.563,401.566 116.411,398.718 117.122,397.136 118.467,394.289 116.648,385.983 115.936,382.661 113.642,374.672 111.981,368.502 107.868,361.383 105.416,357.191 99.879,349.123 M115.699,393.577 Q115.145,393.972 106.76,397.611 100.116,400.458 98.218,403.385 95.054,408.448 94.5,412.956 93.63,420.471 97.189,434.709 97.585,436.291 98.059,437.794 99.088,441.037 100.511,444.122 102.173,447.839 104.466,451.32 105.89,453.535 115.699,465.795 M99.879,349.123 Q98.534,347.066 93.63,340.896 89.754,335.834 87.697,332.353 86.273,329.427 85.403,327.845 83.9,324.839 82.477,323.969 80.816,322.94 76.781,322.861 72.352,323.02 70.849,322.94 66.103,322.703 58.984,323.178 47.831,323.969 47.119,323.969 28.53,324.839 16.507,323.02 13.422,322.624 5.75,319.697 -.974,317.087 -5.087,317.087 M131.993,465.32 Q128.355,465.004 124.558,461.128 121.394,457.885 119.337,453.693 117.043,448.868 116.094,444.28 116.094,444.201 116.094,444.122 115.303,440.562 115.54,437.794 115.62,436.133 116.094,434.788 118.704,426.799 126.298,421.815 130.49,419.047 141.485,414.696" test="LeftBum"/>
      <path id="Layer2_0_2_STROKES" stroke="#0FF" stroke-width="3.164" stroke-linejoin="round" stroke-linecap="round" fill="none" d="M143.067,132.784 L149.158,136.581 Q156.593,141.406 163.08,147.18 183.962,165.531 188.075,185.306 191.476,201.126 199.307,236.484 205.003,268.599 202.709,294.464 199.466,329.822 197.646,339.789 194.799,355.53 188.075,364.547 L175.815,381.474 M99.879,349.123 L97.189,388.277 115.699,393.577 M17.615,181.589 Q29.954,178.346 59.775,167.746 86.194,158.412 101.935,155.011 110.083,153.271 116.806,149.87 122.027,147.18 130.095,141.564 136.581,137.055 143.067,132.784" test="LeftBum"/>
    </g>
    <g id="StopSign">
      <path fill="#000" stroke="none" d="M546.806,51.24 Q486.431,-9.135 401.1,-9.181 315.769,-9.135 255.394,51.24 195.019,111.615 195.019,196.9 195.019,282.277 255.394,342.652 315.769,403.028 401.1,402.981 486.431,403.028 546.806,342.652 607.181,282.277 607.181,196.9 607.181,111.615 546.806,51.24 M401.1,33.6 Q454.854,33.554 496.015,64.065 L269.515,290.611 Q239.05,249.404 239.05,195.65 239.05,128.515 286.508,81.057 333.965,33.6 401.1,33.6 M530.416,97.725 Q563.15,139.905 563.15,195.65 563.15,262.739 515.693,310.196 468.235,357.654 401.1,357.7 345.355,357.7 303.176,324.966 L530.416,97.725Z" test="StopSign" vector-effect="non-scaling-stroke" stroke-width="1"/>
      <path id="Layer1_0_1_STROKES" stroke="#F00" stroke-width="1" stroke-linejoin="round" stroke-linecap="round" fill="none" d="M239.05,195.65 Q239.05,128.515 286.508,81.057 333.965,33.6 401.1,33.6 454.854,33.554 496.015,64.065 L269.515,290.611 Q239.05,249.404 239.05,195.65Z M546.806,342.652 Q486.431,403.028 401.1,402.981 315.769,403.028 255.394,342.652 195.019,282.277 195.019,196.9 195.019,111.615 255.394,51.24 315.769,-9.135 401.1,-9.181 486.431,-9.135 546.806,51.24 607.181,111.615 607.181,196.9 607.181,282.277 546.806,342.652Z M515.693,310.196 Q468.235,357.654 401.1,357.7 345.355,357.7 303.176,324.966 L530.416,97.725 Q563.15,139.905 563.15,195.65 563.15,262.739 515.693,310.196Z" test="StopSign" vector-effect="non-scaling-stroke"/>
    </g>
  </g>
</svg>