<?xml version="1.0" encoding="utf-8"?>
<svg id="EdithAnim08" image-rendering="inherit" baseProfile="basic" version="1.1" x="0px" y="0px" width="800" height="600" xmlns="http://www.w3.org/2000/svg" xmlns:xlink="http://www.w3.org/1999/xlink">
  <g id="No-Rear-To-Rearf461r1" overflow="visible">
    <g id="RightBum">
      <path id="Layer3_0_1_STROKES" stroke="#F0F" stroke-width="3.22" stroke-linejoin="round" stroke-linecap="round" fill="none" d="M702.586,148.835 L711.441,183.61 Q719.893,221.848 717.881,239.478 715.546,259.844 711.119,282.787 707.013,304.2 702.586,319.977 699.768,330.04 696.87,340.746 696.307,342.196 695.824,342.84 L722.147,336.319 M768.596,175.883 L681.253,136.92 M768.596,319.977 L799.186,315.953 M688.337,326.659 L689.142,329.96 Q690.913,336.4 692.926,340.988 694.455,344.45 695.824,342.84" test="RightBum"/>
      <path id="Layer3_0_2_STROKES" stroke="#F90" stroke-width="3.22" stroke-linejoin="round" stroke-linecap="round" fill="none" d="M722.147,336.319 L724.643,321.829 Q725.609,316.194 726.414,302.187 727.219,286.65 728.265,279.003 731.888,250.587 745.573,240.283 753.22,234.486 760.707,231.83 766.664,229.657 772.54,229.496 777.773,229.415 784.213,231.669 M681.253,136.92 Q590.208,96.187 568.956,87.815 555.593,82.583 544.162,80.007 532.167,77.35 522.427,77.672 501.98,78.397 486.362,92.162 469.538,106.813 461.408,126.133 452.794,146.741 456.98,166.222 460.522,182.967 473,193.431 479.279,198.664 484.914,200.837 503.107,189.407 521.219,188.763 M722.147,336.319 L713.936,384.056 Q714.5,384.941 713.856,384.458 L711.763,396.453 Q706.772,397.902 701.056,400.961 689.464,407.078 685.439,414.968 681.817,422.052 681.334,428.492 681.012,432.597 681.978,436.461 684.956,448.778 700.976,451.676 715.868,454.413 726.414,447.168 732.049,443.223 738.006,436.139 742.755,431.068 745.331,429.377 746.217,428.814 747.183,428.492 749.517,427.767 752.254,428.492 754.186,428.975 756.279,430.263 763.202,434.288 764.893,433.644 765.215,433.563 768.596,428.653 771.172,425.03 767.549,419.476 764.893,415.37 760.707,412.472 760.385,412.231 760.063,411.989 755.072,409.977 753.059,408.528 749.598,405.952 749.276,398.546 748.954,391.22 758.775,347.992 L768.596,306.293 772.138,306.453 Q777.773,306.615 788.479,306.293 M697.514,329.96 L690.189,325.854 Q689.223,326.256 688.337,326.659 683.185,328.833 680.609,329.96 685.761,345.577 703.391,369.888 707.416,375.442 712.809,382.526 713.534,383.492 713.936,384.056 L713.856,384.458 Q713.453,384.217 712.809,383.573 M680.609,329.96 Q674.089,332.938 671.11,335.514 667.407,338.654 666.683,342.92 665.234,350.97 674.169,363.77 685.278,379.628 709.026,396.453 M688.337,326.659 L687.774,324.486 690.189,325.854 Q691.718,325.21 693.489,324.486 M484.914,200.837 Q480.486,203.575 476.059,206.955 461.246,218.467 454.243,228.449 449.977,234.567 448.608,240.122 444.824,254.772 445.388,267.653 445.952,280.532 449.494,296.391 451.587,301.463 454.243,306.615 455.048,308.225 455.934,309.835 467.687,331.65 484.109,347.025 501.658,363.448 524.842,369.405 535.468,372.061 544.162,372.222 550.038,372.303 555.029,371.176 554.385,371.9 595.682,403.537 612.023,416.095 628.445,428.492 632.792,431.792 637.139,435.093 L627.479,449.583 M600.109,408.769 L588.839,421.086" test="RightBum"/>
    </g>
    <g id="LeftBum">
      <path id="Layer2_0_1_STROKES" stroke="#FEB7AE" stroke-width="3.196" stroke-linejoin="round" stroke-linecap="round" fill="none" d="M134.211,129.426 Q157.142,114.565 181.112,102.819 204.922,91.234 227.374,83.803 256.378,74.215 275.794,74.295 300.243,74.375 317.901,80.367 338.675,87.479 354.735,104.178 362.405,112.088 364.323,129.266 365.761,141.811 364.003,156.912 362.645,168.337 355.054,178.085 350.58,183.758 340.273,195.423 341.871,197.021 343.309,198.54 350.34,206.05 355.853,216.038 359.609,222.829 361.606,231.458 363.364,239.049 363.843,248.078 364.563,262.14 362.086,276.122 361.526,279.079 360.807,282.035 351.219,324.142 327.089,349.151 308.553,368.327 284.343,380.312 284.023,380.472 265.566,388.941 254.86,393.895 248.228,398.21 238.321,404.602 230.65,410.594 223.699,416.027 215.229,423.778 207.959,430.329 205.402,437.84 202.286,446.869 207.719,453.341 209.397,455.418 215.15,458.374 220.902,461.331 220.503,459.972 M251.983,182.48 Q267.404,170.894 290.016,171.613 312.068,172.332 327.089,184.078 334.92,190.23 340.273,195.423 M15.479,228.822 Q21.312,228.662 29.702,229.86 34.496,230.579 43.924,232.098 50.715,232.976 60.223,233.855 65.657,234.335 76.523,235.214 83.554,235.773 92.503,238.01 94.261,238.41 97.697,238.649 100.014,238.729 101.292,239.608 104.328,241.686 111.359,256.467 118.71,271.968 122.545,283.473 125.821,293.381 130.136,311.678 132.054,319.748 136.448,330.854 142.041,344.996 143.559,349.71 144.039,351.149 146.196,360.577 148.433,369.685 149.711,371.044 151.869,373.441 151.469,374.479 151.469,374.639 154.665,375.278 159.859,376.317 166.331,381.99 172.803,387.503 176.558,394.215 180.793,401.486 179.434,406.359 177.836,412.032 168.887,412.831 164.493,415.069 156.982,413.391 148.593,410.914 144.838,410.434 137.087,409.396 127.02,411.393 120.548,412.432 117.512,413.071 112.478,414.19 108.483,416.427 105.527,418.185 101.692,421.141 99.534,422.819 95.3,426.255 93.062,422.979 95.779,415.868 99.454,408.197 100.573,405.72 101.452,403.723 104.408,400.926 107.285,398.05 108.004,396.452 109.362,393.575 107.524,385.186 106.805,381.83 104.488,373.76 102.81,367.528 98.655,360.337 96.178,356.102 90.585,347.953 M106.565,392.856 Q106.006,393.256 97.537,396.931 90.825,399.808 88.908,402.764 85.712,407.878 85.152,412.432 84.273,420.022 87.869,434.404 88.268,436.002 88.748,437.52 89.786,440.796 91.225,443.912 92.903,447.668 95.22,451.183 96.658,453.421 106.565,465.805 M90.585,347.953 Q89.227,345.875 84.273,339.643 80.358,334.529 78.281,331.014 76.843,328.057 75.964,326.459 74.446,323.423 73.007,322.544 71.33,321.506 67.255,321.426 62.78,321.586 61.262,321.506 56.468,321.266 49.277,321.745 38.011,322.544 37.292,322.544 18.516,323.423 6.371,321.586 3.255,321.186 -4.496,318.23 -11.287,315.593 -15.442,315.593 M123.025,465.326 Q119.349,465.006 115.514,461.091 112.318,457.815 110.241,453.58 107.924,448.706 106.965,444.072 106.965,443.992 106.965,443.912 106.166,440.317 106.406,437.52 106.486,435.843 106.965,434.484 109.602,426.414 117.272,421.381 121.507,418.584 132.613,414.19" test="LeftBum"/>
      <path id="Layer2_0_2_STROKES" stroke="#0FF" stroke-width="3.196" stroke-linejoin="round" stroke-linecap="round" fill="none" d="M134.211,129.426 L140.363,133.261 Q147.874,138.135 154.426,143.968 175.519,162.505 179.674,182.48 183.11,198.46 191.02,234.175 196.773,266.614 194.455,292.742 191.18,328.457 189.342,338.524 186.465,354.424 179.674,363.533 L167.289,380.632 M90.585,347.953 L87.869,387.503 106.565,392.856 M7.489,178.724 Q19.954,175.448 50.076,164.742 76.763,155.314 92.663,151.878 100.893,150.12 107.684,146.684 112.957,143.968 121.107,138.295 127.659,133.741 134.211,129.426" test="LeftBum"/>
    </g>
    <g id="StopSign">
      <path fill="#000" stroke="none" d="M548.802,39.195 Q487.579,-22.027 401.05,-22.074 314.521,-22.027 253.298,39.195 192.076,100.418 192.076,186.9 192.076,273.476 253.298,334.699 314.521,395.921 401.05,395.874 487.579,395.921 548.802,334.699 610.024,273.476 610.024,186.9 610.024,100.418 548.802,39.195 M401.05,21.307 Q455.559,21.26 497.298,52.2 L267.618,281.927 Q236.725,240.141 236.725,185.632 236.725,117.555 284.849,69.431 332.973,21.307 401.05,21.307 M532.181,86.333 Q565.375,129.105 565.375,185.632 565.375,253.663 517.251,301.787 469.128,349.91 401.05,349.957 344.522,349.957 301.751,316.764 L532.181,86.333Z" test="StopSign" vector-effect="non-scaling-stroke" stroke-width="1"/>
      <path id="Layer1_0_1_STROKES" stroke="#F00" stroke-width="1" stroke-linejoin="round" stroke-linecap="round" fill="none" d="M236.725,185.632 Q236.725,117.555 284.849,69.431 332.973,21.307 401.05,21.307 455.559,21.26 497.298,52.2 L267.618,281.927 Q236.725,240.141 236.725,185.632Z M548.802,334.699 Q487.579,395.921 401.05,395.874 314.521,395.921 253.298,334.699 192.076,273.476 192.076,186.9 192.076,100.418 253.298,39.195 314.521,-22.027 401.05,-22.074 487.579,-22.027 548.802,39.195 610.024,100.418 610.024,186.9 610.024,273.476 548.802,334.699Z M517.251,301.787 Q469.128,349.91 401.05,349.957 344.522,349.957 301.751,316.764 L532.181,86.333 Q565.375,129.105 565.375,185.632 565.375,253.663 517.251,301.787Z" test="StopSign" vector-effect="non-scaling-stroke"/>
    </g>
  </g>
</svg>