<?xml version="1.0" encoding="utf-8"?>
<svg id="EdithAnim08" image-rendering="inherit" baseProfile="basic" version="1.1" x="0px" y="0px" width="800" height="600" xmlns="http://www.w3.org/2000/svg" xmlns:xlink="http://www.w3.org/1999/xlink">
  <g id="No-Rear-To-Rearf464r1" overflow="visible">
    <g id="RightBum">
      <path id="Layer3_0_1_STROKES" stroke="#F0F" stroke-width="3.344" stroke-linejoin="round" stroke-linecap="round" fill="none" d="M735.16,137.984 L744.356,174.1 Q753.134,213.81 751.044,232.118 748.619,253.269 744.021,277.095 739.758,299.332 735.16,315.718 732.234,326.168 729.224,337.287 728.639,338.792 728.137,339.46 L755.474,332.689 M803.712,166.074 L713.006,125.612 M803.712,315.718 L835.48,311.538 M720.362,322.657 L721.198,326.084 Q723.038,332.772 725.128,337.538 726.716,341.132 728.137,339.46" test="RightBum"/>
      <path id="Layer3_0_2_STROKES" stroke="#F90" stroke-width="3.344" stroke-linejoin="round" stroke-linecap="round" fill="none" d="M755.474,332.689 L758.066,317.641 Q759.069,311.789 759.905,297.242 760.741,281.108 761.828,273.166 765.59,243.655 779.802,232.954 787.744,226.935 795.519,224.176 801.705,221.919 807.808,221.752 813.242,221.668 819.93,224.009 M713.006,125.612 Q618.454,83.31 596.384,74.616 582.506,69.182 570.635,66.506 558.178,63.748 548.063,64.082 526.828,64.834 510.61,79.13 493.138,94.345 484.694,114.409 475.749,135.811 480.096,156.042 483.774,173.431 496.732,184.299 503.253,189.733 509.105,191.99 527,180.119 546.809,179.45 M755.474,332.689 L746.947,382.264 Q747.532,383.183 746.864,382.682 L744.69,395.138 Q739.507,396.643 733.571,399.82 721.533,406.173 717.353,414.366 713.591,421.723 713.089,428.411 712.755,432.674 713.758,436.687 716.851,449.478 733.488,452.488 748.954,455.33 759.905,447.806 765.757,443.71 771.944,436.353 776.876,431.086 779.551,429.33 780.471,428.745 781.474,428.411 783.898,427.658 786.741,428.411 788.747,428.912 790.921,430.25 798.11,434.43 799.866,433.761 800.2,433.678 803.712,428.578 806.387,424.816 802.625,419.048 799.866,414.784 795.519,411.774 795.184,411.524 794.85,411.273 789.667,409.183 787.577,407.678 783.982,405.003 783.648,397.312 783.313,389.704 793.512,344.811 L803.712,301.506 807.39,301.673 Q813.242,301.84 824.361,301.506 M729.893,326.084 L722.285,321.821 Q721.282,322.239 720.362,322.657 715.012,324.914 712.337,326.084 717.687,342.303 735.996,367.55 740.176,373.318 745.777,380.675 746.529,381.678 746.947,382.264 L746.864,382.682 Q746.446,382.431 745.777,381.762 M712.337,326.084 Q705.565,329.178 702.472,331.853 698.626,335.113 697.874,339.544 696.369,347.904 705.649,361.196 717.186,377.666 741.848,395.138 M720.362,322.657 L719.777,320.4 722.285,321.821 Q723.874,321.152 725.713,320.4 M509.105,191.99 Q504.507,194.832 499.909,198.344 484.527,210.298 477.254,220.665 472.823,227.018 471.402,232.787 467.472,248.002 468.058,261.378 468.643,274.754 472.321,291.223 474.495,296.49 477.254,301.84 478.09,303.512 479.009,305.184 491.215,327.84 508.269,343.808 526.494,360.862 550.571,367.048 561.606,369.807 570.635,369.974 576.738,370.058 581.921,368.888 581.252,369.64 624.139,402.495 641.11,415.536 658.164,428.411 662.678,431.838 667.193,435.266 L657.161,450.314 M628.737,407.929 L617.033,420.72" test="RightBum"/>
    </g>
    <g id="LeftBum">
      <path id="Layer2_0_1_STROKES" stroke="#FEB7AE" stroke-width="3.306" stroke-linejoin="round" stroke-linecap="round" fill="none" d="M103.314,117.886 Q127.034,102.513 151.829,90.364 176.459,78.379 199.684,70.693 229.686,60.775 249.77,60.858 275.061,60.94 293.326,67.139 314.815,74.495 331.428,91.769 339.362,99.951 341.346,117.721 342.834,130.697 341.015,146.318 339.61,158.137 331.758,168.22 327.13,174.088 316.468,186.155 318.121,187.808 319.609,189.378 326.882,197.147 332.585,207.479 336.469,214.504 338.536,223.43 340.354,231.282 340.85,240.621 341.594,255.168 339.032,269.631 338.453,272.689 337.709,275.748 327.791,319.304 302.831,345.174 283.656,365.01 258.613,377.407 258.283,377.572 239.19,386.333 228.115,391.458 221.255,395.921 211.007,402.533 203.072,408.731 195.882,414.352 187.121,422.369 179.6,429.146 176.955,436.915 173.732,446.254 179.352,452.949 181.087,455.098 187.038,458.156 192.989,461.214 192.576,459.809 M225.14,172.766 Q241.091,160.781 264.481,161.525 287.293,162.269 302.831,174.419 310.931,180.783 316.468,186.155 M-19.504,220.703 Q-13.471,220.537 -4.792,221.777 .167,222.521 9.919,224.091 16.945,225 26.78,225.91 32.4,226.405 43.641,227.315 50.914,227.893 60.171,230.207 61.989,230.621 65.543,230.869 67.94,230.951 69.262,231.86 72.403,234.009 79.676,249.3 87.28,265.334 91.247,277.235 94.636,287.484 99.099,306.411 101.082,314.758 105.628,326.247 111.414,340.876 112.984,345.752 113.48,347.24 115.711,356.992 118.026,366.415 119.348,367.82 121.579,370.299 121.166,371.374 121.166,371.539 124.472,372.2 129.844,373.275 136.539,379.143 143.234,384.846 147.118,391.788 151.499,399.309 150.094,404.351 148.441,410.219 139.184,411.046 134.638,413.36 126.869,411.624 118.191,409.062 114.306,408.566 106.289,407.492 95.875,409.558 89.181,410.632 86.04,411.294 80.833,412.451 76.701,414.765 73.642,416.583 69.675,419.641 67.444,421.377 63.063,424.931 60.749,421.542 63.559,414.186 67.361,406.252 68.518,403.69 69.427,401.623 72.485,398.731 75.461,395.755 76.205,394.102 77.61,391.127 75.709,382.449 74.965,378.977 72.568,370.63 70.832,364.183 66.535,356.745 63.972,352.364 58.187,343.934 M74.717,390.383 Q74.138,390.796 65.377,394.598 58.435,397.574 56.451,400.632 53.145,405.921 52.567,410.632 51.658,418.484 55.377,433.361 55.79,435.014 56.286,436.584 57.36,439.973 58.848,443.196 60.584,447.081 62.981,450.718 64.468,453.032 74.717,465.843 M58.187,343.934 Q56.782,341.785 51.658,335.338 47.608,330.049 45.459,326.412 43.971,323.354 43.062,321.701 41.492,318.56 40.004,317.651 38.268,316.577 34.053,316.494 29.425,316.659 27.854,316.577 22.895,316.329 15.457,316.825 3.803,317.651 3.059,317.651 -16.363,318.56 -28.926,316.659 -32.15,316.246 -40.167,313.188 -47.192,310.461 -51.49,310.461 M91.743,465.347 Q87.941,465.016 83.974,460.966 80.668,457.578 78.519,453.197 76.122,448.155 75.13,443.362 75.13,443.279 75.13,443.196 74.304,439.477 74.552,436.584 74.634,434.849 75.13,433.444 77.858,425.096 85.792,419.889 90.172,416.996 101.661,412.451" test="LeftBum"/>
      <path id="Layer2_0_2_STROKES" stroke="#0FF" stroke-width="3.306" stroke-linejoin="round" stroke-linecap="round" fill="none" d="M103.314,117.886 L109.678,121.853 Q117.447,126.895 124.224,132.928 146.044,152.103 150.342,172.766 153.896,189.296 162.078,226.24 168.029,259.796 165.632,286.823 162.243,323.767 160.342,334.181 157.367,350.628 150.342,360.051 L137.531,377.738 M58.187,343.934 L55.377,384.846 74.717,390.383 M-27.769,168.881 Q-14.876,165.492 16.283,154.417 43.888,144.665 60.336,141.111 68.849,139.292 75.874,135.738 81.329,132.928 89.759,127.06 96.537,122.349 103.314,117.886" test="LeftBum"/>
    </g>
    <g id="StopSign">
      <path fill="#000" stroke="none" d="M555.775,-2.626 Q491.683,-66.717 401.1,-66.767 310.517,-66.717 246.425,-2.626 182.333,61.466 182.333,152 182.333,242.633 246.425,306.724 310.517,370.816 401.1,370.767 491.683,370.816 555.775,306.724 619.867,242.633 619.867,152 619.867,61.466 555.775,-2.626 M401.1,-21.352 Q458.163,-21.401 501.858,10.989 L261.416,251.48 Q229.075,207.736 229.075,150.673 229.075,79.405 279.454,29.027 329.833,-21.352 401.1,-21.352 M538.376,46.721 Q573.125,91.496 573.125,150.673 573.125,221.891 522.746,272.27 472.368,322.649 401.1,322.698 341.923,322.698 297.148,287.949 L538.376,46.721Z" test="StopSign" vector-effect="non-scaling-stroke" stroke-width="1"/>
      <path id="Layer1_0_1_STROKES" stroke="#F00" stroke-width="1" stroke-linejoin="round" stroke-linecap="round" fill="none" d="M229.075,150.673 Q229.075,79.405 279.454,29.027 329.833,-21.352 401.1,-21.352 458.163,-21.401 501.858,10.989 L261.416,251.48 Q229.075,207.736 229.075,150.673Z M555.775,306.724 Q491.683,370.816 401.1,370.767 310.517,370.816 246.425,306.724 182.333,242.633 182.333,152 182.333,61.466 246.425,-2.626 310.517,-66.717 401.1,-66.767 491.683,-66.717 555.775,-2.626 619.867,61.466 619.867,152 619.867,242.633 555.775,306.724Z M522.746,272.27 Q472.368,322.649 401.1,322.698 341.923,322.698 297.148,287.949 L538.376,46.721 Q573.125,91.496 573.125,150.673 573.125,221.891 522.746,272.27Z" test="StopSign" vector-effect="non-scaling-stroke"/>
    </g>
  </g>
</svg>