<?xml version="1.0" encoding="utf-8"?>
<svg id="EdithAnim08" image-rendering="inherit" baseProfile="basic" version="1.1" x="0px" y="0px" width="800" height="600" xmlns="http://www.w3.org/2000/svg" xmlns:xlink="http://www.w3.org/1999/xlink">
  <g id="No-Rear-To-Rearf466r1" overflow="visible">
    <g id="RightBum">
      <path id="Layer3_0_1_STROKES" stroke="#F0F" stroke-width="3.442" stroke-linejoin="round" stroke-linecap="round" fill="none" d="M760.917,129.425 L770.382,166.599 Q779.417,207.473 777.266,226.318 774.771,248.088 770.038,272.613 765.649,295.502 760.917,312.368 757.905,323.124 754.807,334.569 754.205,336.118 753.688,336.806 L781.827,329.836 M831.478,158.338 L738.113,116.69 M831.478,312.368 L864.177,308.065 M745.686,319.51 L746.546,323.038 Q748.439,329.922 750.591,334.827 752.226,338.527 753.688,336.806" test="RightBum"/>
      <path id="Layer3_0_2_STROKES" stroke="#F90" stroke-width="3.442" stroke-linejoin="round" stroke-linecap="round" fill="none" d="M781.827,329.836 L784.494,314.347 Q785.527,308.323 786.387,293.351 787.248,276.743 788.367,268.568 792.239,238.193 806.867,227.178 815.042,220.983 823.045,218.143 829.412,215.82 835.694,215.648 841.287,215.562 848.171,217.971 M738.113,116.69 Q640.791,73.149 618.074,64.2 603.789,58.606 591.57,55.853 578.749,53.013 568.337,53.357 546.48,54.132 529.786,68.846 511.802,84.507 503.111,105.159 493.903,127.188 498.378,148.012 502.164,165.911 515.502,177.097 522.214,182.69 528.237,185.014 547.685,172.795 567.046,172.106 M781.827,329.836 L773.05,380.864 Q773.652,381.81 772.964,381.294 L770.726,394.115 Q765.391,395.664 759.282,398.934 746.89,405.474 742.588,413.907 738.716,421.479 738.199,428.363 737.855,432.752 738.888,436.882 742.072,450.048 759.196,453.146 775.115,456.071 786.387,448.327 792.411,444.11 798.779,436.538 803.856,431.117 806.609,429.31 807.556,428.707 808.588,428.363 811.084,427.589 814.009,428.363 816.075,428.879 818.312,430.256 825.712,434.559 827.519,433.87 827.863,433.784 831.478,428.535 834.231,424.663 830.359,418.726 827.519,414.337 823.045,411.239 822.7,410.981 822.356,410.723 817.021,408.572 814.87,407.023 811.17,404.269 810.826,396.353 810.481,388.522 820.979,342.313 L831.478,297.739 835.264,297.911 Q841.287,298.083 852.732,297.739 M755.495,323.038 L747.665,318.649 Q746.632,319.08 745.686,319.51 740.179,321.833 737.425,323.038 742.932,339.732 761.777,365.719 766.08,371.656 771.845,379.229 772.619,380.261 773.05,380.864 L772.964,381.294 Q772.533,381.036 771.845,380.347 M737.425,323.038 Q730.455,326.222 727.271,328.975 723.313,332.331 722.538,336.892 720.989,345.497 730.541,359.179 742.416,376.131 767.801,394.115 M745.686,319.51 L745.083,317.187 747.665,318.649 Q749.3,317.961 751.193,317.187 M528.237,185.014 Q523.505,187.939 518.772,191.554 502.939,203.859 495.452,214.529 490.892,221.069 489.429,227.006 485.384,242.667 485.987,256.435 486.589,270.203 490.375,287.155 492.613,292.576 495.452,298.083 496.313,299.804 497.259,301.525 509.823,324.845 527.377,341.281 546.136,358.835 570.918,365.202 582.277,368.042 591.57,368.214 597.852,368.3 603.187,367.096 602.498,367.87 646.642,401.688 664.11,415.111 681.665,428.363 686.311,431.891 690.958,435.419 L680.632,450.908 M651.375,407.281 L639.328,420.447" test="RightBum"/>
    </g>
    <g id="LeftBum">
      <path id="Layer2_0_1_STROKES" stroke="#FEB7AE" stroke-width="3.392" stroke-linejoin="round" stroke-linecap="round" fill="none" d="M78.922,108.702 Q103.259,92.929 128.699,80.464 153.97,68.168 177.798,60.281 208.581,50.105 229.187,50.19 255.136,50.275 273.877,56.635 295.925,64.182 312.97,81.905 321.11,90.3 323.146,108.532 324.672,121.846 322.806,137.873 321.365,150 313.309,160.345 308.56,166.366 297.621,178.747 299.317,180.443 300.843,182.054 308.306,190.025 314.157,200.625 318.142,207.833 320.262,216.992 322.128,225.048 322.637,234.63 323.4,249.555 320.771,264.395 320.178,267.532 319.414,270.67 309.238,315.36 283.629,341.902 263.955,362.254 238.261,374.974 237.922,375.144 218.333,384.132 206.97,389.39 199.931,393.969 189.416,400.753 181.275,407.113 173.898,412.88 164.909,421.105 157.192,428.059 154.478,436.03 151.171,445.612 156.938,452.481 158.718,454.686 164.824,457.824 170.93,460.961 170.506,459.52 M203.917,165.009 Q220.283,152.713 244.282,153.476 267.686,154.24 283.629,166.705 291.939,173.235 297.621,178.747 M-47.091,214.193 Q-40.901,214.024 -31.997,215.296 -26.909,216.059 -16.902,217.67 -9.694,218.603 .397,219.536 6.163,220.044 17.696,220.977 25.158,221.571 34.656,223.945 36.522,224.369 40.168,224.624 42.627,224.708 43.984,225.641 47.206,227.846 54.669,243.534 62.47,259.985 66.541,272.196 70.018,282.712 74.597,302.131 76.632,310.696 81.296,322.483 87.232,337.492 88.843,342.496 89.352,344.022 91.642,354.028 94.016,363.696 95.373,365.137 97.662,367.681 97.238,368.784 97.238,368.953 100.63,369.632 106.142,370.734 113.011,376.755 119.88,382.606 123.866,389.729 128.36,397.446 126.918,402.619 125.222,408.64 115.725,409.488 111.061,411.862 103.09,410.081 94.186,407.452 90.2,406.944 81.974,405.841 71.29,407.961 64.421,409.064 61.198,409.742 55.856,410.929 51.616,413.304 48.478,415.169 44.408,418.307 42.118,420.088 37.624,423.734 35.25,420.257 38.133,412.71 42.034,404.569 43.221,401.94 44.154,399.82 47.291,396.852 50.344,393.8 51.107,392.104 52.549,389.051 50.598,380.147 49.835,376.585 47.376,368.02 45.595,361.406 41.186,353.774 38.557,349.28 32.621,340.63 M49.581,388.288 Q48.987,388.712 39.998,392.612 32.875,395.665 30.84,398.803 27.448,404.23 26.854,409.064 25.922,417.12 29.738,432.384 30.162,434.08 30.67,435.691 31.773,439.168 33.299,442.475 35.08,446.46 37.539,450.192 39.066,452.566 49.581,465.71 M32.621,340.63 Q31.179,338.425 25.922,331.811 21.766,326.384 19.562,322.652 18.035,319.515 17.102,317.819 15.491,314.596 13.965,313.664 12.184,312.561 7.859,312.476 3.11,312.646 1.499,312.561 -3.589,312.307 -11.221,312.816 -23.178,313.664 -23.941,313.664 -43.869,314.596 -56.758,312.646 -60.066,312.222 -68.291,309.084 -75.499,306.286 -79.909,306.286 M67.05,465.201 Q63.149,464.862 59.078,460.707 55.686,457.23 53.482,452.736 51.022,447.563 50.005,442.644 50.005,442.56 50.005,442.475 49.157,438.659 49.411,435.691 49.496,433.91 50.005,432.468 52.803,423.904 60.944,418.561 65.438,415.593 77.226,410.929" test="LeftBum"/>
      <path id="Layer2_0_2_STROKES" stroke="#0FF" stroke-width="3.392" stroke-linejoin="round" stroke-linecap="round" fill="none" d="M78.922,108.702 L85.451,112.772 Q93.422,117.945 100.376,124.136 122.763,143.809 127.173,165.009 130.819,181.969 139.214,219.875 145.32,254.304 142.861,282.033 139.384,319.939 137.434,330.624 134.381,347.499 127.173,357.166 L114.029,375.313 M32.621,340.63 L29.738,382.606 49.581,388.288 M-55.571,161.024 Q-42.342,157.547 -10.373,146.184 17.95,136.177 34.826,132.531 43.56,130.665 50.768,127.019 56.365,124.136 65.014,118.115 71.968,113.281 78.922,108.702" test="LeftBum"/>
    </g>
    <g id="StopSign">
      <path fill="#000" stroke="none" d="M561.125,-35.624 Q494.817,-101.932 401.1,-101.983 307.383,-101.932 241.075,-35.624 174.767,30.684 174.767,124.35 174.767,218.117 241.075,284.426 307.383,350.734 401.1,350.683 494.817,350.734 561.125,284.426 627.433,218.117 627.433,124.35 627.433,30.684 561.125,-35.624 M401.1,-54.998 Q460.137,-55.049 505.343,-21.539 L256.584,227.27 Q223.125,182.014 223.125,122.977 223.125,49.245 275.246,-2.877 327.368,-54.998 401.1,-54.998 M543.124,15.429 Q579.075,61.754 579.075,122.977 579.075,196.659 526.954,248.78 474.833,300.901 401.1,300.952 339.877,300.952 293.552,265.001 L543.124,15.429Z" test="StopSign" stroke-width="1.017"/>
      <path id="Layer1_0_1_STROKES" stroke="#F00" stroke-width="1.017" stroke-linejoin="round" stroke-linecap="round" fill="none" d="M223.125,122.977 Q223.125,49.245 275.246,-2.877 327.368,-54.998 401.1,-54.998 460.137,-55.049 505.343,-21.539 L256.584,227.27 Q223.125,182.014 223.125,122.977Z M561.125,284.426 Q494.817,350.734 401.1,350.683 307.383,350.734 241.075,284.426 174.767,218.117 174.767,124.35 174.767,30.684 241.075,-35.624 307.383,-101.932 401.1,-101.983 494.817,-101.932 561.125,-35.624 627.433,30.684 627.433,124.35 627.433,218.117 561.125,284.426Z M526.954,248.78 Q474.833,300.901 401.1,300.952 339.877,300.952 293.552,265.001 L543.124,15.429 Q579.075,61.754 579.075,122.977 579.075,196.659 526.954,248.78Z" test="StopSign"/>
    </g>
  </g>
</svg>