<?xml version="1.0" encoding="utf-8"?>
<svg id="EdithAnim08" image-rendering="inherit" baseProfile="basic" version="1.1" x="0px" y="0px" width="800" height="600" xmlns="http://www.w3.org/2000/svg" xmlns:xlink="http://www.w3.org/1999/xlink">
  <g id="No-Rear-To-Rearf470r1" overflow="visible">
    <g id="RightBum">
      <path id="Layer3_0_1_STROKES" stroke="#F0F" stroke-width="3.676" stroke-linejoin="round" stroke-linecap="round" fill="none" d="M822.021,108.955 L832.13,148.656 Q841.779,192.308 839.482,212.435 836.817,235.685 831.762,261.877 827.075,286.322 822.021,304.335 818.804,315.822 815.496,328.045 814.853,329.699 814.301,330.434 L844.353,322.99 M897.379,139.834 L797.667,95.354 M897.379,304.335 L932.301,299.74 M805.755,311.962 L806.674,315.73 Q808.695,323.082 810.993,328.32 812.739,332.272 814.301,330.434" test="RightBum"/>
      <path id="Layer3_0_2_STROKES" stroke="#F90" stroke-width="3.676" stroke-linejoin="round" stroke-linecap="round" fill="none" d="M844.353,322.99 L847.202,306.448 Q848.304,300.015 849.223,284.025 850.142,266.288 851.337,257.557 855.473,225.117 871.096,213.354 879.826,206.737 888.373,203.704 895.173,201.223 901.882,201.039 907.856,200.947 915.208,203.52 M797.667,95.354 Q693.728,48.852 669.467,39.295 654.212,33.321 641.162,30.381 627.469,27.348 616.349,27.715 593.006,28.543 575.178,44.257 555.97,60.983 546.689,83.039 536.855,106.566 541.634,128.806 545.678,147.921 559.922,159.868 567.09,165.841 573.523,168.323 594.293,155.273 614.97,154.537 M844.353,322.99 L834.979,377.487 Q835.622,378.498 834.887,377.946 L832.498,391.64 Q826.8,393.294 820.275,396.786 807.041,403.77 802.446,412.777 798.311,420.864 797.759,428.216 797.392,432.903 798.495,437.314 801.895,451.375 820.183,454.683 837.184,457.808 849.223,449.537 855.656,445.033 862.457,436.946 867.879,431.157 870.82,429.227 871.831,428.583 872.934,428.216 875.599,427.389 878.723,428.216 880.929,428.767 883.318,430.237 891.222,434.833 893.152,434.097 893.519,434.005 897.379,428.4 900.32,424.264 896.184,417.923 893.152,413.236 888.373,409.928 888.005,409.652 887.638,409.376 881.94,407.079 879.642,405.424 875.691,402.484 875.323,394.029 874.955,385.666 886.167,336.316 L897.379,288.712 901.423,288.895 Q907.856,289.079 920.078,288.712 M816.231,315.73 L807.868,311.043 Q806.766,311.503 805.755,311.962 799.873,314.444 796.932,315.73 802.814,333.559 822.94,361.313 827.535,367.654 833.692,375.741 834.519,376.844 834.979,377.487 L834.887,377.946 Q834.427,377.671 833.692,376.936 M796.932,315.73 Q789.488,319.13 786.088,322.071 781.861,325.655 781.034,330.526 779.379,339.716 789.58,354.328 802.262,372.432 829.373,391.64 M805.755,311.962 L805.111,309.481 807.868,311.043 Q809.614,310.308 811.636,309.481 M573.523,168.323 Q568.469,171.447 563.414,175.307 546.505,188.449 538.509,199.844 533.639,206.829 532.076,213.17 527.757,229.896 528.4,244.599 529.044,259.304 533.087,277.408 535.477,283.198 538.509,289.079 539.428,290.917 540.439,292.755 553.857,317.66 572.604,335.213 592.639,353.961 619.106,360.761 631.237,363.794 641.162,363.978 647.87,364.07 653.568,362.783 652.833,363.61 699.978,399.727 718.633,414.063 737.381,428.216 742.344,431.984 747.306,435.751 L736.278,452.294 M705.032,405.7 L692.166,419.761" test="RightBum"/>
    </g>
    <g id="LeftBum">
      <path id="Layer2_0_1_STROKES" stroke="#FEB7AE" stroke-width="3.6" stroke-linejoin="round" stroke-linecap="round" fill="none" d="M20.88,86.9 Q46.71,70.16 73.71,56.93 100.53,43.88 125.82,35.51 158.49,24.71 180.36,24.8 207.9,24.89 227.79,31.64 251.19,39.65 269.28,58.46 277.92,67.37 280.08,86.72 281.7,100.85 279.72,117.86 278.19,130.73 269.64,141.71 264.6,148.1 252.99,161.24 254.79,163.04 256.41,164.75 264.33,173.21 270.54,184.46 274.77,192.11 277.02,201.83 279,210.38 279.54,220.55 280.35,236.39 277.56,252.14 276.93,255.47 276.12,258.8 265.32,306.23 238.14,334.4 217.26,356 189.99,369.5 189.63,369.68 168.84,379.22 156.78,384.8 149.31,389.66 138.15,396.86 129.51,403.61 121.68,409.73 112.14,418.46 103.95,425.84 101.07,434.3 97.56,444.47 103.68,451.76 105.57,454.1 112.05,457.43 118.53,460.76 118.08,459.23 M153.54,146.66 Q170.91,133.61 196.38,134.42 221.22,135.23 238.14,148.46 246.96,155.39 252.99,161.24 M-112.86,198.86 Q-106.29,198.68 -96.84,200.03 -91.44,200.84 -80.82,202.55 -73.17,203.54 -62.46,204.53 -56.34,205.07 -44.1,206.06 -36.18,206.69 -26.1,209.21 -24.12,209.66 -20.25,209.93 -17.64,210.02 -16.2,211.01 -12.78,213.35 -4.86,230 3.42,247.46 7.74,260.42 11.43,271.58 16.29,292.19 18.45,301.28 23.4,313.79 29.7,329.72 31.41,335.03 31.95,336.65 34.38,347.27 36.9,357.53 38.34,359.06 40.77,361.76 40.32,362.93 40.32,363.11 43.92,363.83 49.77,365 57.06,371.39 64.35,377.6 68.58,385.16 73.35,393.35 71.82,398.84 70.02,405.23 59.94,406.13 54.99,408.65 46.53,406.76 37.08,403.97 32.85,403.43 24.12,402.26 12.78,404.51 5.49,405.68 2.07,406.4 -3.6,407.66 -8.1,410.18 -11.43,412.16 -15.75,415.49 -18.18,417.38 -22.95,421.25 -25.47,417.56 -22.41,409.55 -18.27,400.91 -17.01,398.12 -16.02,395.87 -12.69,392.72 -9.45,389.48 -8.64,387.68 -7.11,384.44 -9.18,374.99 -9.99,371.21 -12.6,362.12 -14.49,355.1 -19.17,347 -21.96,342.23 -28.26,333.05 M-10.26,383.63 Q-10.89,384.08 -20.43,388.22 -27.99,391.46 -30.15,394.79 -33.75,400.55 -34.38,405.68 -35.37,414.23 -31.32,430.43 -30.87,432.23 -30.33,433.94 -29.16,437.63 -27.54,441.14 -25.65,445.37 -23.04,449.33 -21.42,451.85 -10.26,465.8 M-28.26,333.05 Q-29.79,330.71 -35.37,323.69 -39.78,317.93 -42.12,313.97 -43.74,310.64 -44.73,308.84 -46.44,305.42 -48.06,304.43 -49.95,303.26 -54.54,303.17 -59.58,303.35 -61.29,303.26 -66.69,302.99 -74.79,303.53 -87.48,304.43 -88.29,304.43 -109.44,305.42 -123.12,303.35 -126.63,302.9 -135.36,299.57 -143.01,296.6 -147.69,296.6 M8.28,465.26 Q4.14,464.9 -.18,460.49 -3.78,456.8 -6.12,452.03 -8.73,446.54 -9.81,441.32 -9.81,441.23 -9.81,441.14 -10.71,437.09 -10.44,433.94 -10.35,432.05 -9.81,430.52 -6.84,421.43 1.8,415.76 6.57,412.61 19.08,407.66" test="LeftBum"/>
      <path id="Layer2_0_2_STROKES" stroke="#0FF" stroke-width="3.6" stroke-linejoin="round" stroke-linecap="round" fill="none" d="M20.88,86.9 L27.81,91.22 Q36.27,96.71 43.65,103.28 67.41,124.16 72.09,146.66 75.96,164.66 84.87,204.89 91.35,241.43 88.74,270.86 85.05,311.09 82.98,322.43 79.74,340.34 72.09,350.6 L58.14,369.86 M-28.26,333.05 L-31.32,377.6 -10.26,383.63 M-121.86,142.43 Q-107.82,138.74 -73.89,126.68 -43.83,116.06 -25.92,112.19 -16.65,110.21 -9,106.34 -3.06,103.28 6.12,96.89 13.5,91.76 20.88,86.9" test="LeftBum"/>
    </g>
    <g id="StopSign">
      <path fill="#000" stroke="none" d="M574.235,-114.33 Q502.515,-186.05 401.15,-186.105 299.785,-186.05 228.065,-114.33 156.345,-42.61 156.345,58.7 156.345,160.12 228.065,231.84 299.785,303.56 401.15,303.505 502.515,303.56 574.235,231.84 645.955,160.12 645.955,58.7 645.955,-42.61 574.235,-114.33 M401.15,-135.285 Q465.005,-135.34 513.9,-99.095 L244.84,170.02 Q208.65,121.07 208.65,57.215 208.65,-22.535 265.025,-78.91 321.4,-135.285 401.15,-135.285 M554.765,-59.11 Q593.65,-9.005 593.65,57.215 593.65,136.91 537.275,193.285 480.9,249.66 401.15,249.715 334.93,249.715 284.825,210.83 L554.765,-59.11Z" test="StopSign" stroke-width="1.1"/>
      <path id="Layer1_0_1_STROKES" stroke="#F00" stroke-width="1.1" stroke-linejoin="round" stroke-linecap="round" fill="none" d="M208.65,57.215 Q208.65,-22.535 265.025,-78.91 321.4,-135.285 401.15,-135.285 465.005,-135.34 513.9,-99.095 L244.84,170.02 Q208.65,121.07 208.65,57.215Z M574.235,231.84 Q502.515,303.56 401.15,303.505 299.785,303.56 228.065,231.84 156.345,160.12 156.345,58.7 156.345,-42.61 228.065,-114.33 299.785,-186.05 401.15,-186.105 502.515,-186.05 574.235,-114.33 645.955,-42.61 645.955,58.7 645.955,160.12 574.235,231.84Z M537.275,193.285 Q480.9,249.66 401.15,249.715 334.93,249.715 284.825,210.83 L554.765,-59.11 Q593.65,-9.005 593.65,57.215 593.65,136.91 537.275,193.285Z" test="StopSign"/>
    </g>
  </g>
</svg>