<?xml version="1.0" encoding="utf-8"?>
<svg id="EdithAnim08" image-rendering="inherit" baseProfile="basic" version="1.1" x="0px" y="0px" width="800" height="600" xmlns="http://www.w3.org/2000/svg" xmlns:xlink="http://www.w3.org/1999/xlink">
  <g id="No-Rear-To-Rearf479r1" overflow="visible">
    <g id="RightBum">
      <path id="Layer3_0_1_STROKES" stroke="#F0F" stroke-width="4.378" stroke-linejoin="round" stroke-linecap="round" fill="none" d="M1006.734,47.544 L1018.773,94.826 Q1030.266,146.815 1027.529,170.785 1024.355,198.476 1018.336,229.669 1012.754,258.783 1006.734,280.235 1002.903,293.916 998.963,308.473 998.197,310.443 997.54,311.319 L1033.33,302.453 M1096.483,84.319 L977.73,31.345 M1096.483,280.235 L1138.074,274.762 M987.361,289.319 L988.456,293.807 Q990.864,302.563 993.6,308.801 995.68,313.508 997.54,311.319" test="RightBum"/>
      <path id="Layer3_0_2_STROKES" stroke="#F90" stroke-width="4.378" stroke-linejoin="round" stroke-linecap="round" fill="none" d="M1033.33,302.453 L1036.723,282.752 Q1038.037,275.091 1039.131,256.046 1040.226,234.922 1041.649,224.525 1046.574,185.889 1065.18,171.879 1075.578,163 1085.757,160.387 1093.856,157.432 1101.846,157.213 1108.96,157.104 1117.716,160.168 M977.73,31.345 Q853.942,-24.036 825.047,-35.419 806.878,-42.533 791.336,-46.036 775.028,-49.648 761.785,-49.21 733.985,-48.225 712.751,-29.509 689.876,-9.589 678.822,16.679 667.111,44.698 672.802,71.185 677.618,93.951 694.583,108.179 703.12,115.294 710.781,118.249 735.517,102.707 760.143,101.831 M1033.33,302.453 L1022.166,367.357 Q1022.933,368.561 1022.057,367.904 L1019.211,384.212 Q1012.425,386.182 1004.654,390.341 988.894,398.66 983.421,409.386 978.496,419.017 977.839,427.773 977.401,433.355 978.715,438.609 982.764,455.355 1004.545,459.295 1024.793,463.016 1039.131,453.166 1046.793,447.803 1054.892,438.171 1061.35,431.276 1064.852,428.977 1066.056,428.211 1067.369,427.773 1070.543,426.788 1074.265,427.773 1076.891,428.43 1079.737,430.181 1089.15,435.654 1091.448,434.778 1091.886,434.669 1096.483,427.992 1099.985,423.067 1095.06,415.515 1091.448,409.933 1085.757,405.993 1085.319,405.664 1084.881,405.336 1078.095,402.6 1075.359,400.63 1070.653,397.127 1070.215,387.058 1069.777,377.098 1083.13,318.323 L1096.483,261.628 1101.299,261.847 Q1108.96,262.066 1123.517,261.628 M999.839,293.807 L989.879,288.225 Q988.565,288.772 987.361,289.319 980.357,292.274 976.854,293.807 983.859,315.04 1007.828,348.094 1013.301,355.646 1020.634,365.277 1021.619,366.591 1022.166,367.357 L1022.057,367.904 Q1021.51,367.576 1020.634,366.7 M976.854,293.807 Q967.989,297.856 963.939,301.359 958.904,305.627 957.919,311.428 955.949,322.373 968.098,339.776 983.202,361.337 1015.49,384.212 M987.361,289.319 L986.595,286.364 989.879,288.225 Q991.958,287.349 994.366,286.364 M710.781,118.249 Q704.761,121.97 698.742,126.567 678.603,142.218 669.081,155.79 663.28,164.108 661.419,171.66 656.275,191.58 657.041,209.092 657.807,226.604 662.623,248.166 665.469,255.061 669.081,262.066 670.175,264.255 671.379,266.444 687.359,296.105 709.687,317.01 733.547,339.338 765.068,347.437 779.516,351.049 791.336,351.268 799.326,351.377 806.112,349.845 805.237,350.83 861.384,393.844 883.603,410.918 905.93,427.773 911.841,432.261 917.751,436.748 L904.617,456.449 M867.404,400.958 L852.081,417.704" test="RightBum"/>
    </g>
    <g id="LeftBum">
      <path id="Layer2_0_1_STROKES" stroke="#FEB7AE" stroke-width="4.224" stroke-linejoin="round" stroke-linecap="round" fill="none" d="M-154.195,21.194 Q-123.888,1.552 -92.208,-13.971 -60.739,-29.283 -31.065,-39.104 7.268,-51.776 32.928,-51.67 65.242,-51.564 88.58,-43.644 116.036,-34.246 137.261,-12.176 147.399,-1.721 149.933,20.983 151.834,37.562 149.511,57.52 147.716,72.621 137.684,85.504 131.77,93.002 118.148,108.42 120.26,110.532 122.16,112.538 131.453,122.464 138.74,135.664 143.703,144.64 146.343,156.045 148.666,166.077 149.3,178.01 150.25,196.596 146.976,215.076 146.237,218.983 145.287,222.89 132.615,278.541 100.724,311.594 76.224,336.938 44.228,352.778 43.805,352.989 19.412,364.183 5.261,370.73 -3.504,376.432 -16.598,384.88 -26.736,392.8 -35.923,399.981 -47.116,410.224 -56.726,418.884 -60.105,428.81 -64.224,440.743 -57.043,449.296 -54.825,452.042 -47.222,455.949 -39.619,459.856 -40.147,458.061 M1.46,91.312 Q21.84,76 51.725,76.951 80.871,77.901 100.724,93.424 111.072,101.556 118.148,108.42 M-311.116,152.56 Q-303.408,152.349 -292.32,153.933 -285.984,154.884 -273.523,156.89 -264.547,158.052 -251.98,159.213 -244.8,159.847 -230.438,161.008 -221.145,161.748 -209.318,164.704 -206.995,165.232 -202.454,165.549 -199.392,165.655 -197.702,166.816 -193.689,169.562 -184.396,189.098 -174.681,209.584 -169.612,224.791 -165.283,237.885 -159.58,262.068 -157.046,272.733 -151.238,287.412 -143.846,306.103 -141.84,312.333 -141.206,314.234 -138.355,326.695 -135.398,338.733 -133.708,340.528 -130.857,343.696 -131.385,345.069 -131.385,345.28 -127.161,346.125 -120.297,347.498 -111.744,354.996 -103.19,362.282 -98.227,371.152 -92.63,380.762 -94.425,387.204 -96.537,394.701 -108.364,395.757 -114.172,398.714 -124.099,396.496 -135.187,393.223 -140.15,392.589 -150.393,391.216 -163.699,393.856 -172.252,395.229 -176.265,396.074 -182.918,397.552 -188.198,400.509 -192.105,402.832 -197.174,406.74 -200.025,408.957 -205.622,413.498 -208.579,409.168 -204.988,399.77 -200.131,389.632 -198.652,386.359 -197.491,383.719 -193.584,380.023 -189.782,376.221 -188.832,374.109 -187.036,370.308 -189.465,359.22 -190.416,354.784 -193.478,344.119 -195.696,335.882 -201.187,326.378 -204.46,320.781 -211.852,310.01 M-190.732,369.357 Q-191.472,369.885 -202.665,374.743 -211.536,378.544 -214.07,382.452 -218.294,389.21 -219.033,395.229 -220.195,405.261 -215.443,424.269 -214.915,426.381 -214.281,428.388 -212.908,432.717 -211.008,436.836 -208.79,441.799 -205.728,446.445 -203.827,449.402 -190.732,465.77 M-211.852,310.01 Q-213.648,307.264 -220.195,299.028 -225.369,292.269 -228.115,287.623 -230.016,283.716 -231.177,281.604 -233.184,277.591 -235.084,276.429 -237.302,275.056 -242.688,274.951 -248.601,275.162 -250.608,275.056 -256.944,274.74 -266.448,275.373 -281.337,276.429 -282.288,276.429 -307.104,277.591 -323.155,275.162 -327.273,274.634 -337.516,270.727 -346.492,267.242 -351.984,267.242 M-168.979,465.136 Q-173.836,464.714 -178.905,459.54 -183.129,455.21 -185.875,449.613 -188.937,443.172 -190.204,437.047 -190.204,436.941 -190.204,436.836 -191.26,432.084 -190.944,428.388 -190.838,426.17 -190.204,424.375 -186.72,413.709 -176.582,407.056 -170.985,403.36 -156.307,397.552" test="LeftBum"/>
      <path id="Layer2_0_2_STROKES" stroke="#0FF" stroke-width="4.224" stroke-linejoin="round" stroke-linecap="round" fill="none" d="M-154.195,21.194 L-146.064,26.263 Q-136.137,32.704 -127.478,40.413 -99.6,64.912 -94.108,91.312 -89.568,112.432 -79.113,159.636 -71.51,202.509 -74.572,237.04 -78.902,284.244 -81.331,297.549 -85.132,318.564 -94.108,330.602 L-110.476,353.2 M-211.852,310.01 L-215.443,362.282 -190.732,369.357 M-321.676,86.349 Q-305.203,82.02 -265.392,67.869 -230.121,55.408 -209.107,50.868 -198.23,48.544 -189.254,44.004 -182.284,40.413 -171.513,32.916 -162.854,26.896 -154.195,21.194" test="LeftBum"/>
    </g>
    <g id="StopSign">
      <path fill="#000" stroke="none" d="M613.515,-351.598 Q525.56,-439.552 401.25,-439.62 276.94,-439.552 188.985,-351.598 101.03,-263.643 101.03,-139.4 101.03,-15.022 188.985,72.933 276.94,160.887 401.25,160.82 525.56,160.887 613.515,72.933 701.47,-15.022 701.47,-139.4 701.47,-263.643 613.515,-351.598 M401.25,-377.296 Q479.559,-377.364 539.523,-332.914 L209.557,-2.881 Q165.175,-62.912 165.175,-141.221 165.175,-239.024 234.311,-308.16 303.448,-377.296 401.25,-377.296 M589.638,-283.878 Q637.325,-222.431 637.325,-141.221 637.325,-43.486 568.189,25.65 499.053,94.786 401.25,94.854 320.04,94.854 258.593,47.167 L589.638,-283.878Z" test="StopSign" stroke-width="1.349"/>
      <path id="Layer1_0_1_STROKES" stroke="#F00" stroke-width="1.349" stroke-linejoin="round" stroke-linecap="round" fill="none" d="M165.175,-141.221 Q165.175,-239.024 234.311,-308.16 303.448,-377.296 401.25,-377.296 479.559,-377.364 539.523,-332.914 L209.557,-2.881 Q165.175,-62.912 165.175,-141.221Z M613.515,72.933 Q525.56,160.887 401.25,160.82 276.94,160.887 188.985,72.933 101.03,-15.022 101.03,-139.4 101.03,-263.643 188.985,-351.598 276.94,-439.552 401.25,-439.62 525.56,-439.552 613.515,-351.598 701.47,-263.643 701.47,-139.4 701.47,-15.022 613.515,72.933Z M568.189,25.65 Q499.053,94.786 401.25,94.854 320.04,94.854 258.593,47.167 L589.638,-283.878 Q637.325,-222.431 637.325,-141.221 637.325,-43.486 568.189,25.65Z" test="StopSign"/>
    </g>
  </g>
</svg>