<?xml version="1.0" encoding="utf-8"?>
<svg id="EdithAnim08" image-rendering="inherit" baseProfile="basic" version="1.1" x="0px" y="0px" width="800" height="600" xmlns="http://www.w3.org/2000/svg" xmlns:xlink="http://www.w3.org/1999/xlink">
  <g id="No-Rear-To-Rearf480r1" overflow="visible">
    <g id="RightBum">
      <path id="Layer3_0_1_STROKES" stroke="#F0F" stroke-width="4.472" stroke-linejoin="round" stroke-linecap="round" fill="none" d="M1031.3,39.372 L1043.598,87.67 Q1055.337,140.775 1052.542,165.259 1049.3,193.544 1043.151,225.407 1037.449,255.146 1031.3,277.059 1027.387,291.034 1023.362,305.903 1022.579,307.916 1021.909,308.81 L1058.467,299.754 M1122.976,76.937 L1001.673,22.826 M1122.976,277.059 L1165.46,271.469 M1011.511,286.338 L1012.629,290.922 Q1015.089,299.866 1017.884,306.239 1020.008,311.046 1021.909,308.81" test="RightBum"/>
      <path id="Layer3_0_2_STROKES" stroke="#F90" stroke-width="4.472" stroke-linejoin="round" stroke-linecap="round" fill="none" d="M1058.467,299.754 L1061.933,279.63 Q1063.275,271.804 1064.393,252.351 1065.511,230.774 1066.964,220.153 1071.995,180.687 1091.001,166.377 1101.622,158.327 1112.019,154.638 1120.293,151.619 1128.454,151.396 1135.721,151.284 1144.665,154.414 M1001.673,22.826 Q875.227,-33.745 845.712,-45.372 827.153,-52.639 811.277,-56.217 794.619,-59.906 781.091,-59.459 752.694,-58.453 731.005,-39.335 707.639,-18.987 696.347,7.845 684.384,36.465 690.198,63.521 695.117,86.775 712.446,101.309 721.167,108.576 728.993,111.595 754.259,95.719 779.414,94.825 M1058.467,299.754 L1047.064,366.052 Q1047.846,367.282 1046.952,366.611 L1044.045,383.269 Q1037.113,385.281 1029.176,389.53 1013.076,398.027 1007.486,408.983 1002.455,418.821 1001.785,427.765 1001.337,433.467 1002.679,438.834 1006.816,455.939 1029.064,459.964 1049.747,463.765 1064.393,453.703 1072.219,448.225 1080.492,438.386 1087.088,431.343 1090.666,428.995 1091.895,428.213 1093.237,427.765 1096.479,426.759 1100.28,427.765 1102.964,428.436 1105.87,430.225 1115.485,435.815 1117.833,434.921 1118.28,434.809 1122.976,427.989 1126.553,422.958 1121.522,415.244 1117.833,409.542 1112.019,405.517 1111.572,405.182 1111.125,404.846 1104.193,402.051 1101.398,400.039 1096.591,396.461 1096.144,386.176 1095.697,376.002 1109.336,315.965 L1122.976,258.053 1127.895,258.277 Q1135.721,258.5 1150.59,258.053 M1024.256,290.922 L1014.083,285.22 Q1012.741,285.779 1011.511,286.338 1004.356,289.357 1000.778,290.922 1007.934,312.611 1032.418,346.375 1038.008,354.089 1045.498,363.928 1046.505,365.269 1047.064,366.052 L1046.952,366.611 Q1046.393,366.275 1045.498,365.381 M1000.778,290.922 Q991.723,295.059 987.586,298.636 982.443,302.997 981.437,308.922 979.425,320.102 991.834,337.878 1007.263,359.903 1040.244,383.269 M1011.511,286.338 L1010.729,283.32 1014.083,285.22 Q1016.207,284.326 1018.666,283.32 M728.993,111.595 Q722.844,115.396 716.695,120.092 696.123,136.079 686.397,149.942 680.471,158.439 678.571,166.153 673.316,186.501 674.099,204.389 674.881,222.277 679.801,244.302 682.707,251.345 686.397,258.5 687.515,260.736 688.745,262.972 705.067,293.27 727.875,314.624 752.247,337.431 784.445,345.704 799.203,349.394 811.277,349.617 819.439,349.729 826.37,348.164 825.476,349.17 882.829,393.107 905.525,410.548 928.332,427.765 934.369,432.349 940.406,436.933 L926.99,457.057 M888.978,400.374 L873.326,417.48" test="RightBum"/>
    </g>
    <g id="LeftBum">
      <path id="Layer2_0_1_STROKES" stroke="#FEB7AE" stroke-width="4.306" stroke-linejoin="round" stroke-linecap="round" fill="none" d="M-177.486,12.536 Q-146.591,-7.487 -114.296,-23.311 -82.216,-38.921 -51.966,-48.932 -12.889,-61.85 13.27,-61.743 46.211,-61.635 70.001,-53.561 97.99,-43.98 119.628,-21.481 129.962,-10.824 132.546,12.321 134.484,29.222 132.115,49.568 130.285,64.962 120.058,78.095 114.03,85.738 100.143,101.455 102.296,103.608 104.234,105.653 113.707,115.772 121.135,129.229 126.194,138.379 128.886,150.005 131.254,160.232 131.9,172.396 132.869,191.343 129.532,210.181 128.778,214.164 127.809,218.148 114.891,274.879 82.381,308.573 57.406,334.41 24.788,350.557 24.358,350.772 -.51,362.183 -14.935,368.858 -23.87,374.671 -37.218,383.283 -47.553,391.356 -56.918,398.677 -68.329,409.119 -78.125,417.946 -81.57,428.065 -85.768,440.229 -78.448,448.949 -76.188,451.748 -68.437,455.731 -60.686,459.714 -61.224,457.884 M-18.81,84.016 Q1.966,68.406 32.431,69.375 62.143,70.344 82.381,86.169 92.931,94.458 100.143,101.455 M-337.454,146.453 Q-329.596,146.237 -318.292,147.852 -311.833,148.821 -299.131,150.866 -289.98,152.05 -277.17,153.235 -269.85,153.88 -255.209,155.065 -245.736,155.818 -233.68,158.832 -231.311,159.371 -226.682,159.694 -223.56,159.801 -221.838,160.985 -217.747,163.784 -208.274,183.7 -198.37,204.584 -193.203,220.085 -188.789,233.434 -182.976,258.086 -180.393,268.958 -174.472,283.922 -166.936,302.976 -164.891,309.327 -164.245,311.265 -161.339,323.967 -158.324,336.24 -156.602,338.07 -153.696,341.299 -154.234,342.699 -154.234,342.914 -149.928,343.775 -142.931,345.174 -134.211,352.818 -125.491,360.246 -120.432,369.288 -114.726,379.084 -116.556,385.651 -118.709,393.294 -130.766,394.371 -136.687,397.385 -146.806,395.124 -158.109,391.787 -163.169,391.141 -173.611,389.742 -187.175,392.433 -195.894,393.832 -199.985,394.694 -206.767,396.201 -212.149,399.215 -216.133,401.583 -221.3,405.566 -224.206,407.827 -229.912,412.456 -232.926,408.042 -229.266,398.461 -224.314,388.127 -222.807,384.79 -221.623,382.098 -217.64,378.331 -213.764,374.455 -212.795,372.302 -210.965,368.427 -213.441,357.124 -214.41,352.602 -217.532,341.73 -219.793,333.333 -225.39,323.645 -228.728,317.939 -236.263,306.959 M-214.733,367.458 Q-215.487,367.996 -226.898,372.948 -235.94,376.824 -238.524,380.807 -242.83,387.696 -243.583,393.832 -244.767,404.059 -239.923,423.436 -239.385,425.589 -238.739,427.634 -237.34,432.048 -235.402,436.246 -233.141,441.306 -230.019,446.043 -228.082,449.057 -214.733,465.743 M-236.263,306.959 Q-238.093,304.16 -244.767,295.763 -250.042,288.874 -252.841,284.137 -254.779,280.154 -255.963,278.001 -258.008,273.91 -259.946,272.726 -262.207,271.327 -267.697,271.219 -273.725,271.434 -275.771,271.327 -282.23,271.004 -291.918,271.65 -307.097,272.726 -308.066,272.726 -333.363,273.91 -349.726,271.434 -353.925,270.896 -364.367,266.913 -373.517,263.361 -379.115,263.361 M-192.557,465.097 Q-197.509,464.666 -202.676,459.391 -206.982,454.977 -209.781,449.272 -212.903,442.705 -214.195,436.462 -214.195,436.354 -214.195,436.246 -215.271,431.402 -214.948,427.634 -214.841,425.374 -214.195,423.544 -210.642,412.671 -200.308,405.889 -194.603,402.121 -179.639,396.201" test="LeftBum"/>
      <path id="Layer2_0_2_STROKES" stroke="#0FF" stroke-width="4.306" stroke-linejoin="round" stroke-linecap="round" fill="none" d="M-177.486,12.536 L-169.197,17.703 Q-159.078,24.27 -150.251,32.128 -121.831,57.103 -116.233,84.016 -111.604,105.546 -100.947,153.665 -93.196,197.371 -96.318,232.573 -100.732,280.692 -103.208,294.256 -107.083,315.678 -116.233,327.951 L-132.919,350.988 M-236.263,306.959 L-239.923,360.246 -214.733,367.458 M-348.219,78.956 Q-331.426,74.542 -290.842,60.117 -254.887,47.415 -233.464,42.786 -222.376,40.417 -213.226,35.788 -206.121,32.128 -195.141,24.485 -186.313,18.349 -177.486,12.536" test="LeftBum"/>
    </g>
    <g id="StopSign">
      <path fill="#000" stroke="none" d="M618.708,-383.139 Q528.601,-473.245 401.25,-473.314 273.899,-473.245 183.792,-383.139 93.686,-293.032 93.686,-165.75 93.686,-38.33 183.792,51.777 273.899,141.883 401.25,141.814 528.601,141.883 618.708,51.777 708.814,-38.33 708.814,-165.75 708.814,-293.032 618.708,-383.139 M401.25,-409.466 Q481.475,-409.535 542.905,-363.998 L204.868,-25.892 Q159.4,-87.391 159.4,-167.616 159.4,-267.811 230.228,-338.638 301.055,-409.466 401.25,-409.466 M594.246,-313.762 Q643.1,-250.812 643.1,-167.616 643.1,-67.49 572.273,3.338 501.445,74.165 401.25,74.234 318.054,74.234 255.104,25.381 L594.246,-313.762Z" test="StopSign" stroke-width="1.382"/>
      <path id="Layer1_0_1_STROKES" stroke="#F00" stroke-width="1.382" stroke-linejoin="round" stroke-linecap="round" fill="none" d="M159.4,-167.616 Q159.4,-267.811 230.228,-338.638 301.055,-409.466 401.25,-409.466 481.475,-409.535 542.905,-363.998 L204.868,-25.892 Q159.4,-87.391 159.4,-167.616Z M618.708,51.777 Q528.601,141.883 401.25,141.814 273.899,141.883 183.792,51.777 93.686,-38.33 93.686,-165.75 93.686,-293.032 183.792,-383.139 273.899,-473.245 401.25,-473.314 528.601,-473.245 618.708,-383.139 708.814,-293.032 708.814,-165.75 708.814,-38.33 618.708,51.777Z M572.273,3.338 Q501.445,74.165 401.25,74.234 318.054,74.234 255.104,25.381 L594.246,-313.762 Q643.1,-250.812 643.1,-167.616 643.1,-67.49 572.273,3.338Z" test="StopSign"/>
    </g>
  </g>
</svg>