<?xml version="1.0" encoding="utf-8"?>
<svg id="EdithAnim08" image-rendering="inherit" baseProfile="basic" version="1.1" x="0px" y="0px" width="800" height="600" xmlns="http://www.w3.org/2000/svg" xmlns:xlink="http://www.w3.org/1999/xlink">
  <g id="No-Rear-To-Rearf482r1" overflow="visible">
    <g id="RightBum">
      <path id="Layer3_0_1_STROKES" stroke="#F0F" stroke-width="4.668" stroke-linejoin="round" stroke-linecap="round" fill="none" d="M1082.764,22.204 L1095.601,72.619 Q1107.854,128.051 1104.937,153.609 1101.552,183.134 1095.134,216.393 1089.182,247.435 1082.764,270.309 1078.679,284.896 1074.478,300.417 1073.661,302.518 1072.961,303.451 L1111.122,293 M1178.458,61.415 L1051.838,4.933 M1178.458,270.309 L1222.804,264.474 M1062.108,279.995 L1063.275,284.779 Q1065.842,294.115 1068.76,300.767 1070.977,305.785 1072.961,303.451" test="RightBum"/>
      <path id="Layer3_0_2_STROKES" stroke="#F90" stroke-width="4.668" stroke-linejoin="round" stroke-linecap="round" fill="none" d="M1111.122,293 L1114.74,272.993 Q1116.14,264.824 1117.307,244.518 1118.474,221.995 1119.991,210.908 1125.243,169.713 1145.082,154.776 1156.168,146.373 1167.021,142.522 1175.657,139.371 1184.176,139.138 1191.762,139.021 1201.097,142.289 M1051.838,4.933 Q919.851,-54.118 889.042,-66.254 869.67,-73.84 853.098,-77.574 835.71,-81.425 821.589,-80.959 791.947,-79.908 769.307,-59.953 744.917,-38.713 733.131,-10.705 720.644,19.17 726.712,47.411 731.847,71.685 749.935,86.856 759.038,94.442 767.207,97.592 793.581,81.021 819.839,80.087 M1111.122,293 L1099.218,363.202 Q1100.035,364.485 1099.102,363.785 L1096.067,381.174 Q1088.832,383.274 1080.546,387.709 1063.742,396.578 1057.907,408.015 1052.655,418.284 1051.955,427.62 1051.488,433.572 1052.889,439.173 1057.206,457.029 1080.43,461.23 1102.019,465.198 1117.307,454.695 1125.476,448.976 1134.112,438.707 1140.997,431.355 1144.731,428.904 1146.015,428.087 1147.416,427.62 1150.8,426.57 1154.768,427.62 1157.568,428.32 1160.603,430.188 1170.639,436.023 1173.09,435.089 1173.556,434.972 1178.458,427.854 1182.192,422.602 1176.941,414.55 1173.09,408.598 1167.021,404.397 1166.554,404.047 1166.087,403.697 1158.852,400.779 1155.935,398.679 1150.917,394.944 1150.45,384.208 1149.983,373.588 1164.22,310.92 L1178.458,250.469 1183.593,250.703 Q1191.762,250.936 1207.283,250.469 M1075.412,284.779 L1064.792,278.828 Q1063.392,279.411 1062.108,279.995 1054.639,283.145 1050.905,284.779 1058.373,307.419 1083.931,342.663 1089.766,350.715 1097.585,360.984 1098.635,362.385 1099.218,363.202 L1099.102,363.785 Q1098.518,363.435 1097.585,362.501 M1050.905,284.779 Q1041.452,289.097 1037.134,292.832 1031.766,297.383 1030.716,303.568 1028.615,315.238 1041.569,333.793 1057.673,356.783 1092.1,381.174 M1062.108,279.995 L1061.291,276.844 1064.792,278.828 Q1067.009,277.894 1069.577,276.844 M767.207,97.592 Q760.788,101.56 754.37,106.462 732.897,123.15 722.744,137.621 716.559,146.49 714.575,154.542 709.09,175.782 709.907,194.454 710.724,213.126 715.859,236.115 718.893,243.468 722.744,250.936 723.911,253.27 725.195,255.604 742.233,287.23 766.04,309.52 791.48,333.327 825.09,341.962 840.495,345.813 853.098,346.047 861.617,346.164 868.853,344.53 867.919,345.58 927.786,391.443 951.476,409.648 975.283,427.62 981.585,432.405 987.887,437.19 L973.883,458.196 M934.205,399.029 L917.867,416.884" test="RightBum"/>
    </g>
    <g id="LeftBum">
      <path id="Layer2_0_1_STROKES" stroke="#FEB7AE" stroke-width="4.48" stroke-linejoin="round" stroke-linecap="round" fill="none" d="M-226.346,-5.72 Q-194.202,-26.552 -160.602,-43.016 -127.226,-59.256 -95.754,-69.672 -55.098,-83.112 -27.882,-83 6.39,-82.888 31.142,-74.488 60.262,-64.52 82.774,-41.112 93.526,-30.024 96.214,-5.944 98.23,11.64 95.766,32.808 93.862,48.824 83.222,62.488 76.95,70.44 62.502,86.792 64.742,89.032 66.758,91.16 76.614,101.688 84.342,115.688 89.606,125.208 92.406,137.304 94.87,147.944 95.542,160.6 96.55,180.312 93.078,199.912 92.294,204.056 91.286,208.2 77.846,267.224 44.022,302.28 18.038,329.16 -15.898,345.96 -16.346,346.184 -42.218,358.056 -57.226,365 -66.522,371.048 -80.41,380.008 -91.162,388.408 -100.906,396.024 -112.778,406.888 -122.97,416.072 -126.554,426.6 -130.922,439.256 -123.306,448.328 -120.954,451.24 -112.89,455.384 -104.826,459.528 -105.386,457.624 M-61.258,68.648 Q-39.642,52.408 -7.946,53.416 22.966,54.424 44.022,70.888 54.998,79.512 62.502,86.792 M-392.778,133.608 Q-384.602,133.384 -372.842,135.064 -366.122,136.072 -352.906,138.2 -343.386,139.432 -330.058,140.664 -322.442,141.336 -307.21,142.568 -297.354,143.352 -284.81,146.488 -282.346,147.048 -277.53,147.384 -274.282,147.496 -272.49,148.728 -268.234,151.64 -258.378,172.36 -248.074,194.088 -242.698,210.216 -238.106,224.104 -232.058,249.752 -229.37,261.064 -223.21,276.632 -215.37,296.456 -213.242,303.064 -212.57,305.08 -209.546,318.296 -206.41,331.064 -204.618,332.968 -201.594,336.328 -202.154,337.784 -202.154,338.008 -197.674,338.904 -190.394,340.36 -181.322,348.312 -172.25,356.04 -166.986,365.448 -161.05,375.64 -162.954,382.472 -165.194,390.424 -177.738,391.544 -183.898,394.68 -194.426,392.328 -206.186,388.856 -211.45,388.184 -222.314,386.728 -236.426,389.528 -245.498,390.984 -249.754,391.88 -256.81,393.448 -262.41,396.584 -266.554,399.048 -271.93,403.192 -274.954,405.544 -280.89,410.36 -284.026,405.768 -280.218,395.8 -275.066,385.048 -273.498,381.576 -272.266,378.776 -268.122,374.856 -264.09,370.824 -263.082,368.584 -261.178,364.552 -263.754,352.792 -264.762,348.088 -268.01,336.776 -270.362,328.04 -276.186,317.96 -279.658,312.024 -287.498,300.6 M-265.098,363.544 Q-265.882,364.104 -277.754,369.256 -287.162,373.288 -289.85,377.432 -294.33,384.6 -295.114,390.984 -296.346,401.624 -291.306,421.784 -290.746,424.024 -290.074,426.152 -288.618,430.744 -286.602,435.112 -284.25,440.376 -281.002,445.304 -278.986,448.44 -265.098,465.8 M-287.498,300.6 Q-289.402,297.688 -296.346,288.952 -301.834,281.784 -304.746,276.856 -306.762,272.712 -307.994,270.472 -310.122,266.216 -312.138,264.984 -314.49,263.528 -320.202,263.416 -326.474,263.64 -328.602,263.528 -335.322,263.192 -345.402,263.864 -361.194,264.984 -362.202,264.984 -388.522,266.216 -405.546,263.64 -409.914,263.08 -420.778,258.936 -430.298,255.24 -436.122,255.24 M-242.026,465.128 Q-247.178,464.68 -252.554,459.192 -257.034,454.6 -259.946,448.664 -263.194,441.832 -264.538,435.336 -264.538,435.224 -264.538,435.112 -265.658,430.072 -265.322,426.152 -265.21,423.8 -264.538,421.896 -260.842,410.584 -250.09,403.528 -244.154,399.608 -228.586,393.448" test="LeftBum"/>
      <path id="Layer2_0_2_STROKES" stroke="#0FF" stroke-width="4.48" stroke-linejoin="round" stroke-linecap="round" fill="none" d="M-226.346,-5.72 L-217.722,-.344 Q-207.194,6.488 -198.01,14.664 -168.442,40.648 -162.618,68.648 -157.802,91.048 -146.714,141.112 -138.65,186.584 -141.898,223.208 -146.49,273.272 -149.066,287.384 -153.098,309.672 -162.618,322.44 L-179.978,346.408 M-287.498,300.6 L-291.306,356.04 -265.098,363.544 M-403.978,63.384 Q-386.506,58.792 -344.282,43.784 -306.874,30.568 -284.586,25.752 -273.05,23.288 -263.53,18.472 -256.138,14.664 -244.714,6.712 -235.53,.328 -226.346,-5.72" test="LeftBum"/>
    </g>
    <g id="StopSign">
      <path fill="#000" stroke="none" d="M629.722,-449.35 Q535.052,-544.02 401.25,-544.093 267.448,-544.02 172.778,-449.35 78.107,-354.679 78.107,-220.95 78.107,-87.076 172.778,7.595 267.448,102.265 401.25,102.193 535.052,102.265 629.722,7.595 724.393,-87.076 724.393,-220.95 724.393,-354.679 629.722,-449.35 M401.25,-477.01 Q485.539,-477.083 550.08,-429.239 L194.921,-74.008 Q147.15,-138.622 147.15,-222.91 147.15,-328.18 221.565,-402.595 295.98,-477.01 401.25,-477.01 M604.022,-376.459 Q655.35,-310.321 655.35,-222.91 655.35,-117.713 580.935,-43.298 506.52,31.117 401.25,31.19 313.84,31.19 247.701,-20.138 L604.022,-376.459Z" test="StopSign" stroke-width="1.452"/>
      <path id="Layer1_0_1_STROKES" stroke="#F00" stroke-width="1.452" stroke-linejoin="round" stroke-linecap="round" fill="none" d="M147.15,-222.91 Q147.15,-328.18 221.565,-402.595 295.98,-477.01 401.25,-477.01 485.539,-477.083 550.08,-429.239 L194.921,-74.008 Q147.15,-138.622 147.15,-222.91Z M629.722,7.595 Q535.052,102.265 401.25,102.193 267.448,102.265 172.778,7.595 78.107,-87.076 78.107,-220.95 78.107,-354.679 172.778,-449.35 267.448,-544.02 401.25,-544.093 535.052,-544.02 629.722,-449.35 724.393,-354.679 724.393,-220.95 724.393,-87.076 629.722,7.595Z M580.935,-43.298 Q506.52,31.117 401.25,31.19 313.84,31.19 247.701,-20.138 L604.022,-376.459 Q655.35,-310.321 655.35,-222.91 655.35,-117.713 580.935,-43.298Z" test="StopSign"/>
    </g>
  </g>
</svg>