<?xml version="1.0" encoding="utf-8"?>
<svg id="EdithAnim08" image-rendering="inherit" baseProfile="basic" version="1.1" x="0px" y="0px" width="800" height="600" xmlns="http://www.w3.org/2000/svg" xmlns:xlink="http://www.w3.org/1999/xlink">
  <g id="No-Rear-To-Rearf483r1" overflow="visible">
    <g id="RightBum">
      <path id="Layer3_0_1_STROKES" stroke="#F0F" stroke-width="4.77" stroke-linejoin="round" stroke-linecap="round" fill="none" d="M1109.762,13.258 L1122.879,64.774 Q1135.401,121.418 1132.419,147.534 1128.961,177.704 1122.402,211.69 1116.321,243.411 1109.762,266.784 1105.588,281.69 1101.295,297.55 1100.46,299.697 1099.745,300.651 L1138.74,290.992 M1207.547,53.326 L1078.161,-4.391 M1207.547,266.784 L1252.862,260.821 M1088.655,276.682 L1089.847,281.571 Q1092.471,291.111 1095.452,297.908 1097.718,303.036 1099.745,300.651" test="RightBum"/>
      <path id="Layer3_0_2_STROKES" stroke="#F90" stroke-width="4.77" stroke-linejoin="round" stroke-linecap="round" fill="none" d="M1138.74,290.992 L1142.436,269.527 Q1143.867,261.179 1145.06,240.43 1146.252,217.414 1147.803,206.086 1153.169,163.99 1173.441,148.726 1184.77,140.14 1195.86,136.205 1204.685,132.985 1213.39,132.747 1221.141,132.628 1230.681,135.967 M1078.161,-4.391 Q943.289,-64.731 911.807,-77.133 892.011,-84.884 875.078,-88.7 857.31,-92.636 842.88,-92.159 812.591,-91.085 789.456,-70.694 764.533,-48.99 752.489,-20.37 739.729,10.158 745.93,39.016 751.177,63.82 769.661,79.323 778.962,87.074 787.31,90.294 814.26,73.36 841.092,72.406 M1138.74,290.992 L1126.576,361.707 Q1127.411,363.018 1126.457,362.303 L1123.356,380.071 Q1115.963,382.218 1107.496,386.749 1090.324,395.812 1084.362,407.499 1078.995,417.993 1078.28,427.533 1077.803,433.614 1079.234,439.338 1083.646,457.584 1107.377,461.877 1129.438,465.931 1145.06,455.199 1153.407,449.355 1162.232,438.862 1169.268,431.349 1173.084,428.845 1174.395,428.01 1175.826,427.533 1179.285,426.46 1183.339,427.533 1186.201,428.248 1189.302,430.156 1199.557,436.119 1202.061,435.165 1202.538,435.045 1207.547,427.771 1211.363,422.405 1205.997,414.177 1202.061,408.095 1195.86,403.802 1195.383,403.444 1194.906,403.087 1187.513,400.105 1184.532,397.959 1179.404,394.143 1178.927,383.172 1178.45,372.32 1192.998,308.283 L1207.547,246.511 1212.794,246.75 Q1221.141,246.988 1237.002,246.511 M1102.249,281.571 L1091.397,275.489 Q1089.966,276.085 1088.655,276.682 1081.023,279.901 1077.207,281.571 1084.839,304.705 1110.954,340.719 1116.917,348.947 1124.907,359.441 1125.98,360.872 1126.576,361.707 L1126.457,362.303 Q1125.861,361.945 1124.907,360.991 M1077.207,281.571 Q1067.547,285.983 1063.135,289.799 1057.65,294.45 1056.576,300.77 1054.43,312.695 1067.667,331.656 1084.123,355.148 1119.302,380.071 M1088.655,276.682 L1087.82,273.462 1091.397,275.489 Q1093.663,274.535 1096.287,273.462 M787.31,90.294 Q780.751,94.348 774.192,99.357 752.25,116.41 741.876,131.197 735.555,140.26 733.528,148.488 727.923,170.191 728.758,189.271 729.593,208.351 734.84,231.844 737.94,239.356 741.876,246.988 743.068,249.373 744.38,251.758 761.79,284.075 786.117,306.852 812.114,331.179 846.458,340.003 862.199,343.939 875.078,344.177 883.783,344.296 891.177,342.627 890.223,343.7 951.398,390.565 975.606,409.168 999.933,427.533 1006.372,432.422 1012.812,437.311 L998.502,458.776 M957.957,398.317 L941.262,416.562" test="RightBum"/>
    </g>
    <g id="LeftBum">
      <path id="Layer2_0_1_STROKES" stroke="#FEB7AE" stroke-width="4.572" stroke-linejoin="round" stroke-linecap="round" fill="none" d="M-251.914,-15.368 Q-219.11,-36.628 -184.82,-53.43 -150.759,-70.003 -118.641,-80.633 -77.15,-94.349 -49.375,-94.235 -14.399,-94.121 10.861,-85.548 40.579,-75.375 63.554,-51.487 74.526,-40.171 77.27,-15.597 79.327,2.349 76.812,23.951 74.869,40.296 64.011,54.241 57.61,62.356 42.865,79.044 45.151,81.33 47.209,83.502 57.267,94.246 65.154,108.533 70.526,118.249 73.383,130.593 75.898,141.452 76.584,154.368 77.612,174.484 74.069,194.487 73.269,198.716 72.24,202.945 58.524,263.181 24.006,298.957 -2.512,326.389 -37.145,343.534 -37.602,343.763 -64.005,355.878 -79.321,362.965 -88.808,369.137 -102.981,378.281 -113.954,386.854 -123.898,394.626 -136.014,405.713 -146.415,415.086 -150.073,425.83 -154.531,438.746 -146.758,448.004 -144.358,450.976 -136.128,455.205 -127.899,459.434 -128.47,457.491 M-83.436,60.527 Q-61.376,43.954 -29.029,44.982 2.517,46.011 24.006,62.813 35.207,71.614 42.865,79.044 M-421.764,126.821 Q-413.42,126.593 -401.419,128.307 -394.561,129.336 -381.073,131.508 -371.358,132.765 -357.756,134.022 -349.984,134.708 -334.439,135.965 -324.381,136.765 -311.579,139.966 -309.064,140.537 -304.149,140.88 -300.835,140.994 -299.006,142.252 -294.663,145.224 -284.604,166.369 -274.089,188.543 -268.602,205.002 -263.916,219.176 -257.744,245.35 -255,256.895 -248.714,272.782 -240.713,293.013 -238.541,299.757 -237.855,301.815 -234.769,315.302 -231.569,328.332 -229.74,330.275 -226.654,333.704 -227.226,335.19 -227.226,335.419 -222.654,336.333 -215.224,337.819 -205.966,345.934 -196.707,353.821 -191.335,363.422 -185.277,373.824 -187.221,380.796 -189.507,388.911 -202.308,390.054 -208.595,393.255 -219.339,390.854 -231.34,387.311 -236.712,386.625 -247.8,385.139 -262.201,387.997 -271.46,389.483 -275.803,390.397 -283.004,391.997 -288.719,395.198 -292.948,397.712 -298.434,401.941 -301.521,404.342 -307.578,409.257 -310.779,404.57 -306.893,394.398 -301.635,383.425 -300.035,379.881 -298.777,377.024 -294.548,373.023 -290.433,368.909 -289.405,366.623 -287.462,362.508 -290.091,350.506 -291.119,345.706 -294.434,334.161 -296.834,325.246 -302.778,314.959 -306.321,308.901 -314.322,297.243 M-291.462,361.479 Q-292.262,362.051 -304.378,367.308 -313.979,371.423 -316.722,375.652 -321.294,382.968 -322.095,389.483 -323.352,400.341 -318.208,420.915 -317.637,423.201 -316.951,425.373 -315.465,430.059 -313.408,434.517 -311.007,439.889 -307.693,444.918 -305.635,448.119 -291.462,465.835 M-314.322,297.243 Q-316.265,294.271 -323.352,285.355 -328.953,278.04 -331.924,273.011 -333.982,268.782 -335.239,266.496 -337.411,262.152 -339.468,260.895 -341.868,259.409 -347.698,259.295 -354.099,259.524 -356.27,259.409 -363.128,259.066 -373.415,259.752 -389.532,260.895 -390.56,260.895 -417.421,262.152 -434.794,259.524 -439.252,258.952 -450.339,254.723 -460.055,250.951 -465.998,250.951 M-267.916,465.149 Q-273.174,464.692 -278.661,459.091 -283.233,454.405 -286.204,448.347 -289.519,441.375 -290.891,434.745 -290.891,434.631 -290.891,434.517 -292.034,429.373 -291.691,425.373 -291.576,422.973 -290.891,421.029 -287.119,409.485 -276.146,402.284 -270.088,398.284 -254.2,391.997" test="LeftBum"/>
      <path id="Layer2_0_2_STROKES" stroke="#0FF" stroke-width="4.572" stroke-linejoin="round" stroke-linecap="round" fill="none" d="M-251.914,-15.368 L-243.113,-9.882 Q-232.369,-2.909 -222.996,5.435 -192.821,31.952 -186.878,60.527 -181.963,83.387 -170.647,134.479 -162.417,180.885 -165.732,218.261 -170.418,269.353 -173.047,283.755 -177.162,306.501 -186.878,319.531 L-204.594,343.991 M-314.322,297.243 L-318.208,353.821 -291.462,361.479 M-433.194,55.155 Q-415.363,50.469 -372.272,35.153 -334.096,21.665 -311.35,16.75 -299.577,14.236 -289.862,9.321 -282.318,5.435 -270.66,-2.681 -261.287,-9.196 -251.914,-15.368" test="LeftBum"/>
    </g>
    <g id="StopSign">
      <path fill="#000" stroke="none" d="M635.437,-483.962 Q538.419,-580.98 401.3,-581.054 264.181,-580.98 167.163,-483.962 70.146,-386.945 70.146,-249.9 70.146,-112.706 167.163,-15.689 264.181,81.329 401.3,81.254 538.419,81.329 635.437,-15.689 732.454,-112.706 732.454,-249.9 732.454,-386.945 635.437,-483.962 M401.3,-512.309 Q487.678,-512.383 553.82,-463.354 L189.855,-99.314 Q140.9,-165.53 140.9,-251.909 140.9,-359.789 217.16,-436.049 293.42,-512.309 401.3,-512.309 M609.099,-409.265 Q661.7,-341.486 661.7,-251.909 661.7,-144.103 585.44,-67.843 509.18,8.417 401.3,8.491 311.722,8.491 243.944,-44.11 L609.099,-409.265Z" test="StopSign" stroke-width="1.488"/>
      <path id="Layer1_0_1_STROKES" stroke="#F00" stroke-width="1.488" stroke-linejoin="round" stroke-linecap="round" fill="none" d="M140.9,-251.909 Q140.9,-359.789 217.16,-436.049 293.42,-512.309 401.3,-512.309 487.678,-512.383 553.82,-463.354 L189.855,-99.314 Q140.9,-165.53 140.9,-251.909Z M635.437,-15.689 Q538.419,81.329 401.3,81.254 264.181,81.329 167.163,-15.689 70.146,-112.706 70.146,-249.9 70.146,-386.945 167.163,-483.962 264.181,-580.98 401.3,-581.054 538.419,-580.98 635.437,-483.962 732.454,-386.945 732.454,-249.9 732.454,-112.706 635.437,-15.689Z M585.44,-67.843 Q509.18,8.417 401.3,8.491 311.722,8.491 243.944,-44.11 L609.099,-409.265 Q661.7,-341.486 661.7,-251.909 661.7,-144.103 585.44,-67.843Z" test="StopSign"/>
    </g>
  </g>
</svg>