<?xml version="1.0" encoding="utf-8"?>
<svg id="EdithAnim08" image-rendering="inherit" baseProfile="basic" version="1.1" x="0px" y="0px" width="800" height="600" xmlns="http://www.w3.org/2000/svg" xmlns:xlink="http://www.w3.org/1999/xlink">
  <g id="No-Rear-To-Rearf54r1" overflow="visible">
    <g id="RightBum">
      <path id="Layer2_0_1_STROKES" stroke="#F0F" stroke-width="3" stroke-linejoin="round" stroke-linecap="round" fill="none" d="M930.325,168.075 L938.575,200.475 Q946.45,236.1 944.575,252.525 942.4,271.5 938.275,292.875 934.45,312.825 930.325,327.525 927.7,336.9 925,346.875 924.475,348.225 924.025,348.825 L948.55,342.75 M991.825,193.275 L910.45,156.975 M991.825,327.525 L1020.325,323.775 M917.05,333.75 L917.8,336.825 Q919.45,342.825 921.325,347.1 922.75,350.325 924.025,348.825" test="RightBum"/>
      <path id="Layer2_0_2_STROKES" stroke="#F90" stroke-width="3" stroke-linejoin="round" stroke-linecap="round" fill="none" d="M948.55,342.75 L950.875,329.25 Q951.775,324 952.525,310.95 953.275,296.475 954.25,289.35 957.625,262.875 970.375,253.275 977.5,247.875 984.475,245.4 990.025,243.375 995.5,243.225 1000.375,243.15 1006.375,245.25 M910.45,156.975 Q825.625,119.025 805.825,111.225 793.375,106.35 782.725,103.95 771.55,101.475 762.475,101.775 743.425,102.45 728.875,115.275 713.2,128.925 705.625,146.925 697.6,166.125 701.5,184.275 704.8,199.875 716.425,209.625 722.275,214.5 727.525,216.525 744.475,205.875 761.35,205.275 M948.55,342.75 L940.9,387.225 Q941.425,388.05 940.825,387.6 L938.875,398.775 Q934.225,400.125 928.9,402.975 918.1,408.675 914.35,416.025 910.975,422.625 910.525,428.625 910.225,432.45 911.125,436.05 913.9,447.525 928.825,450.225 942.7,452.775 952.525,446.025 957.775,442.35 963.325,435.75 967.75,431.025 970.15,429.45 970.975,428.925 971.875,428.625 974.05,427.95 976.6,428.625 978.4,429.075 980.35,430.275 986.8,434.025 988.375,433.425 988.675,433.35 991.825,428.775 994.225,425.4 990.85,420.225 988.375,416.4 984.475,413.7 984.175,413.475 983.875,413.25 979.225,411.375 977.35,410.025 974.125,407.625 973.825,400.725 973.525,393.9 982.675,353.625 L991.825,314.775 995.125,314.925 Q1000.375,315.075 1010.35,314.775 M925.6,336.825 L918.775,333 Q917.875,333.375 917.05,333.75 912.25,335.775 909.85,336.825 914.65,351.375 931.075,374.025 934.825,379.2 939.85,385.8 940.525,386.7 940.9,387.225 L940.825,387.6 Q940.45,387.375 939.85,386.775 M909.85,336.825 Q903.775,339.6 901,342 897.55,344.925 896.875,348.9 895.525,356.4 903.85,368.325 914.2,383.1 936.325,398.775 M917.05,333.75 L916.525,331.725 918.775,333 Q920.2,332.4 921.85,331.725 M727.525,216.525 Q723.4,219.075 719.275,222.225 705.475,232.95 698.95,242.25 694.975,247.95 693.7,253.125 690.175,266.775 690.7,278.775 691.225,290.775 694.525,305.55 696.475,310.275 698.95,315.075 699.7,316.575 700.525,318.075 711.475,338.4 726.775,352.725 743.125,368.025 764.725,373.575 774.625,376.05 782.725,376.2 788.2,376.275 792.85,375.225 792.25,375.9 830.725,405.375 845.95,417.075 861.25,428.625 865.3,431.7 869.35,434.775 L860.35,448.275 M834.85,410.25 L824.35,421.725" test="RightBum"/>
    </g>
    <g id="LeftBum">
      <path id="Layer1_0_1_STROKES" stroke="#FEB7AE" stroke-width="3" stroke-linejoin="round" stroke-linecap="round" fill="none" d="M-101.05,150 Q-79.525,136.05 -57.025,125.025 -34.675,114.15 -13.6,107.175 13.625,98.175 31.85,98.25 54.8,98.325 71.375,103.95 90.875,110.625 105.95,126.3 113.15,133.725 114.95,149.85 116.3,161.625 114.65,175.8 113.375,186.525 106.25,195.675 102.05,201 92.375,211.95 93.875,213.45 95.225,214.875 101.825,221.925 107,231.3 110.525,237.675 112.4,245.775 114.05,252.9 114.5,261.375 115.175,274.575 112.85,287.7 112.325,290.475 111.65,293.25 102.65,332.775 80,356.25 62.6,374.25 39.875,385.5 39.575,385.65 22.25,393.6 12.2,398.25 5.975,402.3 -3.325,408.3 -10.525,413.925 -17.05,419.025 -25,426.3 -31.825,432.45 -34.225,439.5 -37.15,447.975 -32.05,454.05 -30.475,456 -25.075,458.775 -19.675,461.55 -20.05,460.275 M9.5,199.8 Q23.975,188.925 45.2,189.6 65.9,190.275 80,201.3 87.35,207.075 92.375,211.95 M-212.5,243.3 Q-207.025,243.15 -199.15,244.275 -194.65,244.95 -185.8,246.375 -179.425,247.2 -170.5,248.025 -165.4,248.475 -155.2,249.3 -148.6,249.825 -140.2,251.925 -138.55,252.3 -135.325,252.525 -133.15,252.6 -131.95,253.425 -129.1,255.375 -122.5,269.25 -115.6,283.8 -112,294.6 -108.925,303.9 -104.875,321.075 -103.075,328.65 -98.95,339.075 -93.7,352.35 -92.275,356.775 -91.825,358.125 -89.8,366.975 -87.7,375.525 -86.5,376.8 -84.475,379.05 -84.85,380.025 -84.85,380.175 -81.85,380.775 -76.975,381.75 -70.9,387.075 -64.825,392.25 -61.3,398.55 -57.325,405.375 -58.6,409.95 -60.1,415.275 -68.5,416.025 -72.625,418.125 -79.675,416.55 -87.55,414.225 -91.075,413.775 -98.35,412.8 -107.8,414.675 -113.875,415.65 -116.725,416.25 -121.45,417.3 -125.2,419.4 -127.975,421.05 -131.575,423.825 -133.6,425.4 -137.575,428.625 -139.675,425.55 -137.125,418.875 -133.675,411.675 -132.625,409.35 -131.8,407.475 -129.025,404.85 -126.325,402.15 -125.65,400.65 -124.375,397.95 -126.1,390.075 -126.775,386.925 -128.95,379.35 -130.525,373.5 -134.425,366.75 -136.75,362.775 -142,355.125 M-127,397.275 Q-127.525,397.65 -135.475,401.1 -141.775,403.8 -143.575,406.575 -146.575,411.375 -147.1,415.65 -147.925,422.775 -144.55,436.275 -144.175,437.775 -143.725,439.2 -142.75,442.275 -141.4,445.2 -139.825,448.725 -137.65,452.025 -136.3,454.125 -127,465.75 M-142,355.125 Q-143.275,353.175 -147.925,347.325 -151.6,342.525 -153.55,339.225 -154.9,336.45 -155.725,334.95 -157.15,332.1 -158.5,331.275 -160.075,330.3 -163.9,330.225 -168.1,330.375 -169.525,330.3 -174.025,330.075 -180.775,330.525 -191.35,331.275 -192.025,331.275 -209.65,332.1 -221.05,330.375 -223.975,330 -231.25,327.225 -237.625,324.75 -241.525,324.75 M-111.55,465.3 Q-115,465 -118.6,461.325 -121.6,458.25 -123.55,454.275 -125.725,449.7 -126.625,445.35 -126.625,445.275 -126.625,445.2 -127.375,441.825 -127.15,439.2 -127.075,437.625 -126.625,436.35 -124.15,428.775 -116.95,424.05 -112.975,421.425 -102.55,417.3" test="LeftBum"/>
      <path id="Layer1_0_2_STROKES" stroke="#0FF" stroke-width="3" stroke-linejoin="round" stroke-linecap="round" fill="none" d="M-101.05,150 L-95.275,153.6 Q-88.225,158.175 -82.075,163.65 -62.275,181.05 -58.375,199.8 -55.15,214.8 -47.725,248.325 -42.325,278.775 -44.5,303.3 -47.575,336.825 -49.3,346.275 -52,361.2 -58.375,369.75 L-70,385.8 M-142,355.125 L-144.55,392.25 -127,397.275 M-220,196.275 Q-208.3,193.2 -180.025,183.15 -154.975,174.3 -140.05,171.075 -132.325,169.425 -125.95,166.2 -121,163.65 -113.35,158.325 -107.2,154.05 -101.05,150" test="LeftBum"/>
    </g>
  </g>
</svg>