<?xml version="1.0" encoding="utf-8"?>
<svg id="EdithAnim08" image-rendering="inherit" baseProfile="basic" version="1.1" x="0px" y="0px" width="800" height="600" xmlns="http://www.w3.org/2000/svg" xmlns:xlink="http://www.w3.org/1999/xlink">
  <g id="No-Rear-To-Rearf56r1" overflow="visible">
    <g id="RightBum">
      <path id="Layer2_0_1_STROKES" stroke="#F0F" stroke-width="3" stroke-linejoin="round" stroke-linecap="round" fill="none" d="M926.325,168.075 L934.575,200.475 Q942.45,236.1 940.575,252.525 938.4,271.5 934.275,292.875 930.45,312.825 926.325,327.525 923.7,336.9 921,346.875 920.475,348.225 920.025,348.825 L944.55,342.75 M987.825,193.275 L906.45,156.975 M987.825,327.525 L1016.325,323.775 M913.05,333.75 L913.8,336.825 Q915.45,342.825 917.325,347.1 918.75,350.325 920.025,348.825" test="RightBum"/>
      <path id="Layer2_0_2_STROKES" stroke="#F90" stroke-width="3" stroke-linejoin="round" stroke-linecap="round" fill="none" d="M944.55,342.75 L946.875,329.25 Q947.775,324 948.525,310.95 949.275,296.475 950.25,289.35 953.625,262.875 966.375,253.275 973.5,247.875 980.475,245.4 986.025,243.375 991.5,243.225 996.375,243.15 1002.375,245.25 M906.45,156.975 Q821.625,119.025 801.825,111.225 789.375,106.35 778.725,103.95 767.55,101.475 758.475,101.775 739.425,102.45 724.875,115.275 709.2,128.925 701.625,146.925 693.6,166.125 697.5,184.275 700.8,199.875 712.425,209.625 718.275,214.5 723.525,216.525 740.475,205.875 757.35,205.275 M944.55,342.75 L936.9,387.225 Q937.425,388.05 936.825,387.6 L934.875,398.775 Q930.225,400.125 924.9,402.975 914.1,408.675 910.35,416.025 906.975,422.625 906.525,428.625 906.225,432.45 907.125,436.05 909.9,447.525 924.825,450.225 938.7,452.775 948.525,446.025 953.775,442.35 959.325,435.75 963.75,431.025 966.15,429.45 966.975,428.925 967.875,428.625 970.05,427.95 972.6,428.625 974.4,429.075 976.35,430.275 982.8,434.025 984.375,433.425 984.675,433.35 987.825,428.775 990.225,425.4 986.85,420.225 984.375,416.4 980.475,413.7 980.175,413.475 979.875,413.25 975.225,411.375 973.35,410.025 970.125,407.625 969.825,400.725 969.525,393.9 978.675,353.625 L987.825,314.775 991.125,314.925 Q996.375,315.075 1006.35,314.775 M921.6,336.825 L914.775,333 Q913.875,333.375 913.05,333.75 908.25,335.775 905.85,336.825 910.65,351.375 927.075,374.025 930.825,379.2 935.85,385.8 936.525,386.7 936.9,387.225 L936.825,387.6 Q936.45,387.375 935.85,386.775 M905.85,336.825 Q899.775,339.6 897,342 893.55,344.925 892.875,348.9 891.525,356.4 899.85,368.325 910.2,383.1 932.325,398.775 M913.05,333.75 L912.525,331.725 914.775,333 Q916.2,332.4 917.85,331.725 M723.525,216.525 Q719.4,219.075 715.275,222.225 701.475,232.95 694.95,242.25 690.975,247.95 689.7,253.125 686.175,266.775 686.7,278.775 687.225,290.775 690.525,305.55 692.475,310.275 694.95,315.075 695.7,316.575 696.525,318.075 707.475,338.4 722.775,352.725 739.125,368.025 760.725,373.575 770.625,376.05 778.725,376.2 784.2,376.275 788.85,375.225 788.25,375.9 826.725,405.375 841.95,417.075 857.25,428.625 861.3,431.7 865.35,434.775 L856.35,448.275 M830.85,410.25 L820.35,421.725" test="RightBum"/>
    </g>
    <g id="LeftBum">
      <path id="Layer1_0_1_STROKES" stroke="#FEB7AE" stroke-width="3" stroke-linejoin="round" stroke-linecap="round" fill="none" d="M-96.95,150 Q-75.425,136.05 -52.925,125.025 -30.575,114.15 -9.5,107.175 17.725,98.175 35.95,98.25 58.9,98.325 75.475,103.95 94.975,110.625 110.05,126.3 117.25,133.725 119.05,149.85 120.4,161.625 118.75,175.8 117.475,186.525 110.35,195.675 106.15,201 96.475,211.95 97.975,213.45 99.325,214.875 105.925,221.925 111.1,231.3 114.625,237.675 116.5,245.775 118.15,252.9 118.6,261.375 119.275,274.575 116.95,287.7 116.425,290.475 115.75,293.25 106.75,332.775 84.1,356.25 66.7,374.25 43.975,385.5 43.675,385.65 26.35,393.6 16.3,398.25 10.075,402.3 .775,408.3 -6.425,413.925 -12.95,419.025 -20.9,426.3 -27.725,432.45 -30.125,439.5 -33.05,447.975 -27.95,454.05 -26.375,456 -20.975,458.775 -15.575,461.55 -15.95,460.275 M13.6,199.8 Q28.075,188.925 49.3,189.6 70,190.275 84.1,201.3 91.45,207.075 96.475,211.95 M-208.4,243.3 Q-202.925,243.15 -195.05,244.275 -190.55,244.95 -181.7,246.375 -175.325,247.2 -166.4,248.025 -161.3,248.475 -151.1,249.3 -144.5,249.825 -136.1,251.925 -134.45,252.3 -131.225,252.525 -129.05,252.6 -127.85,253.425 -125,255.375 -118.4,269.25 -111.5,283.8 -107.9,294.6 -104.825,303.9 -100.775,321.075 -98.975,328.65 -94.85,339.075 -89.6,352.35 -88.175,356.775 -87.725,358.125 -85.7,366.975 -83.6,375.525 -82.4,376.8 -80.375,379.05 -80.75,380.025 -80.75,380.175 -77.75,380.775 -72.875,381.75 -66.8,387.075 -60.725,392.25 -57.2,398.55 -53.225,405.375 -54.5,409.95 -56,415.275 -64.4,416.025 -68.525,418.125 -75.575,416.55 -83.45,414.225 -86.975,413.775 -94.25,412.8 -103.7,414.675 -109.775,415.65 -112.625,416.25 -117.35,417.3 -121.1,419.4 -123.875,421.05 -127.475,423.825 -129.5,425.4 -133.475,428.625 -135.575,425.55 -133.025,418.875 -129.575,411.675 -128.525,409.35 -127.7,407.475 -124.925,404.85 -122.225,402.15 -121.55,400.65 -120.275,397.95 -122,390.075 -122.675,386.925 -124.85,379.35 -126.425,373.5 -130.325,366.75 -132.65,362.775 -137.9,355.125 M-122.9,397.275 Q-123.425,397.65 -131.375,401.1 -137.675,403.8 -139.475,406.575 -142.475,411.375 -143,415.65 -143.825,422.775 -140.45,436.275 -140.075,437.775 -139.625,439.2 -138.65,442.275 -137.3,445.2 -135.725,448.725 -133.55,452.025 -132.2,454.125 -122.9,465.75 M-137.9,355.125 Q-139.175,353.175 -143.825,347.325 -147.5,342.525 -149.45,339.225 -150.8,336.45 -151.625,334.95 -153.05,332.1 -154.4,331.275 -155.975,330.3 -159.8,330.225 -164,330.375 -165.425,330.3 -169.925,330.075 -176.675,330.525 -187.25,331.275 -187.925,331.275 -205.55,332.1 -216.95,330.375 -219.875,330 -227.15,327.225 -233.525,324.75 -237.425,324.75 M-107.45,465.3 Q-110.9,465 -114.5,461.325 -117.5,458.25 -119.45,454.275 -121.625,449.7 -122.525,445.35 -122.525,445.275 -122.525,445.2 -123.275,441.825 -123.05,439.2 -122.975,437.625 -122.525,436.35 -120.05,428.775 -112.85,424.05 -108.875,421.425 -98.45,417.3" test="LeftBum"/>
      <path id="Layer1_0_2_STROKES" stroke="#0FF" stroke-width="3" stroke-linejoin="round" stroke-linecap="round" fill="none" d="M-96.95,150 L-91.175,153.6 Q-84.125,158.175 -77.975,163.65 -58.175,181.05 -54.275,199.8 -51.05,214.8 -43.625,248.325 -38.225,278.775 -40.4,303.3 -43.475,336.825 -45.2,346.275 -47.9,361.2 -54.275,369.75 L-65.9,385.8 M-137.9,355.125 L-140.45,392.25 -122.9,397.275 M-215.9,196.275 Q-204.2,193.2 -175.925,183.15 -150.875,174.3 -135.95,171.075 -128.225,169.425 -121.85,166.2 -116.9,163.65 -109.25,158.325 -103.1,154.05 -96.95,150" test="LeftBum"/>
    </g>
  </g>
</svg>