<?xml version="1.0" encoding="utf-8"?>
<svg id="EdithAnim08" image-rendering="inherit" baseProfile="basic" version="1.1" x="0px" y="0px" width="800" height="600" xmlns="http://www.w3.org/2000/svg" xmlns:xlink="http://www.w3.org/1999/xlink">
  <g id="No-Rear-To-Rearf58r1" overflow="visible">
    <g id="RightBum">
      <path id="Layer2_0_1_STROKES" stroke="#F0F" stroke-width="3" stroke-linejoin="round" stroke-linecap="round" fill="none" d="M922.325,168.075 L930.575,200.475 Q938.45,236.1 936.575,252.525 934.4,271.5 930.275,292.875 926.45,312.825 922.325,327.525 919.7,336.9 917,346.875 916.475,348.225 916.025,348.825 L940.55,342.75 M983.825,193.275 L902.45,156.975 M983.825,327.525 L1012.325,323.775 M909.05,333.75 L909.8,336.825 Q911.45,342.825 913.325,347.1 914.75,350.325 916.025,348.825" test="RightBum"/>
      <path id="Layer2_0_2_STROKES" stroke="#F90" stroke-width="3" stroke-linejoin="round" stroke-linecap="round" fill="none" d="M940.55,342.75 L942.875,329.25 Q943.775,324 944.525,310.95 945.275,296.475 946.25,289.35 949.625,262.875 962.375,253.275 969.5,247.875 976.475,245.4 982.025,243.375 987.5,243.225 992.375,243.15 998.375,245.25 M902.45,156.975 Q817.625,119.025 797.825,111.225 785.375,106.35 774.725,103.95 763.55,101.475 754.475,101.775 735.425,102.45 720.875,115.275 705.2,128.925 697.625,146.925 689.6,166.125 693.5,184.275 696.8,199.875 708.425,209.625 714.275,214.5 719.525,216.525 736.475,205.875 753.35,205.275 M940.55,342.75 L932.9,387.225 Q933.425,388.05 932.825,387.6 L930.875,398.775 Q926.225,400.125 920.9,402.975 910.1,408.675 906.35,416.025 902.975,422.625 902.525,428.625 902.225,432.45 903.125,436.05 905.9,447.525 920.825,450.225 934.7,452.775 944.525,446.025 949.775,442.35 955.325,435.75 959.75,431.025 962.15,429.45 962.975,428.925 963.875,428.625 966.05,427.95 968.6,428.625 970.4,429.075 972.35,430.275 978.8,434.025 980.375,433.425 980.675,433.35 983.825,428.775 986.225,425.4 982.85,420.225 980.375,416.4 976.475,413.7 976.175,413.475 975.875,413.25 971.225,411.375 969.35,410.025 966.125,407.625 965.825,400.725 965.525,393.9 974.675,353.625 L983.825,314.775 987.125,314.925 Q992.375,315.075 1002.35,314.775 M917.6,336.825 L910.775,333 Q909.875,333.375 909.05,333.75 904.25,335.775 901.85,336.825 906.65,351.375 923.075,374.025 926.825,379.2 931.85,385.8 932.525,386.7 932.9,387.225 L932.825,387.6 Q932.45,387.375 931.85,386.775 M901.85,336.825 Q895.775,339.6 893,342 889.55,344.925 888.875,348.9 887.525,356.4 895.85,368.325 906.2,383.1 928.325,398.775 M909.05,333.75 L908.525,331.725 910.775,333 Q912.2,332.4 913.85,331.725 M719.525,216.525 Q715.4,219.075 711.275,222.225 697.475,232.95 690.95,242.25 686.975,247.95 685.7,253.125 682.175,266.775 682.7,278.775 683.225,290.775 686.525,305.55 688.475,310.275 690.95,315.075 691.7,316.575 692.525,318.075 703.475,338.4 718.775,352.725 735.125,368.025 756.725,373.575 766.625,376.05 774.725,376.2 780.2,376.275 784.85,375.225 784.25,375.9 822.725,405.375 837.95,417.075 853.25,428.625 857.3,431.7 861.35,434.775 L852.35,448.275 M826.85,410.25 L816.35,421.725" test="RightBum"/>
    </g>
    <g id="LeftBum">
      <path id="Layer1_0_1_STROKES" stroke="#FEB7AE" stroke-width="3" stroke-linejoin="round" stroke-linecap="round" fill="none" d="M-92.9,150 Q-71.375,136.05 -48.875,125.025 -26.525,114.15 -5.45,107.175 21.775,98.175 40,98.25 62.95,98.325 79.525,103.95 99.025,110.625 114.1,126.3 121.3,133.725 123.1,149.85 124.45,161.625 122.8,175.8 121.525,186.525 114.4,195.675 110.2,201 100.525,211.95 102.025,213.45 103.375,214.875 109.975,221.925 115.15,231.3 118.675,237.675 120.55,245.775 122.2,252.9 122.65,261.375 123.325,274.575 121,287.7 120.475,290.475 119.8,293.25 110.8,332.775 88.15,356.25 70.75,374.25 48.025,385.5 47.725,385.65 30.4,393.6 20.35,398.25 14.125,402.3 4.825,408.3 -2.375,413.925 -8.9,419.025 -16.85,426.3 -23.675,432.45 -26.075,439.5 -29,447.975 -23.9,454.05 -22.325,456 -16.925,458.775 -11.525,461.55 -11.9,460.275 M17.65,199.8 Q32.125,188.925 53.35,189.6 74.05,190.275 88.15,201.3 95.5,207.075 100.525,211.95 M-204.35,243.3 Q-198.875,243.15 -191,244.275 -186.5,244.95 -177.65,246.375 -171.275,247.2 -162.35,248.025 -157.25,248.475 -147.05,249.3 -140.45,249.825 -132.05,251.925 -130.4,252.3 -127.175,252.525 -125,252.6 -123.8,253.425 -120.95,255.375 -114.35,269.25 -107.45,283.8 -103.85,294.6 -100.775,303.9 -96.725,321.075 -94.925,328.65 -90.8,339.075 -85.55,352.35 -84.125,356.775 -83.675,358.125 -81.65,366.975 -79.55,375.525 -78.35,376.8 -76.325,379.05 -76.7,380.025 -76.7,380.175 -73.7,380.775 -68.825,381.75 -62.75,387.075 -56.675,392.25 -53.15,398.55 -49.175,405.375 -50.45,409.95 -51.95,415.275 -60.35,416.025 -64.475,418.125 -71.525,416.55 -79.4,414.225 -82.925,413.775 -90.2,412.8 -99.65,414.675 -105.725,415.65 -108.575,416.25 -113.3,417.3 -117.05,419.4 -119.825,421.05 -123.425,423.825 -125.45,425.4 -129.425,428.625 -131.525,425.55 -128.975,418.875 -125.525,411.675 -124.475,409.35 -123.65,407.475 -120.875,404.85 -118.175,402.15 -117.5,400.65 -116.225,397.95 -117.95,390.075 -118.625,386.925 -120.8,379.35 -122.375,373.5 -126.275,366.75 -128.6,362.775 -133.85,355.125 M-118.85,397.275 Q-119.375,397.65 -127.325,401.1 -133.625,403.8 -135.425,406.575 -138.425,411.375 -138.95,415.65 -139.775,422.775 -136.4,436.275 -136.025,437.775 -135.575,439.2 -134.6,442.275 -133.25,445.2 -131.675,448.725 -129.5,452.025 -128.15,454.125 -118.85,465.75 M-133.85,355.125 Q-135.125,353.175 -139.775,347.325 -143.45,342.525 -145.4,339.225 -146.75,336.45 -147.575,334.95 -149,332.1 -150.35,331.275 -151.925,330.3 -155.75,330.225 -159.95,330.375 -161.375,330.3 -165.875,330.075 -172.625,330.525 -183.2,331.275 -183.875,331.275 -201.5,332.1 -212.9,330.375 -215.825,330 -223.1,327.225 -229.475,324.75 -233.375,324.75 M-103.4,465.3 Q-106.85,465 -110.45,461.325 -113.45,458.25 -115.4,454.275 -117.575,449.7 -118.475,445.35 -118.475,445.275 -118.475,445.2 -119.225,441.825 -119,439.2 -118.925,437.625 -118.475,436.35 -116,428.775 -108.8,424.05 -104.825,421.425 -94.4,417.3" test="LeftBum"/>
      <path id="Layer1_0_2_STROKES" stroke="#0FF" stroke-width="3" stroke-linejoin="round" stroke-linecap="round" fill="none" d="M-92.9,150 L-87.125,153.6 Q-80.075,158.175 -73.925,163.65 -54.125,181.05 -50.225,199.8 -47,214.8 -39.575,248.325 -34.175,278.775 -36.35,303.3 -39.425,336.825 -41.15,346.275 -43.85,361.2 -50.225,369.75 L-61.85,385.8 M-133.85,355.125 L-136.4,392.25 -118.85,397.275 M-211.85,196.275 Q-200.15,193.2 -171.875,183.15 -146.825,174.3 -131.9,171.075 -124.175,169.425 -117.8,166.2 -112.85,163.65 -105.2,158.325 -99.05,154.05 -92.9,150" test="LeftBum"/>
    </g>
  </g>
</svg>