<?xml version="1.0" encoding="utf-8"?>
<svg id="EdithAnim08" image-rendering="inherit" baseProfile="basic" version="1.1" x="0px" y="0px" width="800" height="600" xmlns="http://www.w3.org/2000/svg" xmlns:xlink="http://www.w3.org/1999/xlink">
  <g id="No-Rear-To-Rearf59r1" overflow="visible">
    <g id="RightBum">
      <path id="Layer2_0_1_STROKES" stroke="#F0F" stroke-width="3" stroke-linejoin="round" stroke-linecap="round" fill="none" d="M920.325,168.075 L928.575,200.475 Q936.45,236.1 934.575,252.525 932.4,271.5 928.275,292.875 924.45,312.825 920.325,327.525 917.7,336.9 915,346.875 914.475,348.225 914.025,348.825 L938.55,342.75 M981.825,193.275 L900.45,156.975 M981.825,327.525 L1010.325,323.775 M907.05,333.75 L907.8,336.825 Q909.45,342.825 911.325,347.1 912.75,350.325 914.025,348.825" test="RightBum"/>
      <path id="Layer2_0_2_STROKES" stroke="#F90" stroke-width="3" stroke-linejoin="round" stroke-linecap="round" fill="none" d="M938.55,342.75 L940.875,329.25 Q941.775,324 942.525,310.95 943.275,296.475 944.25,289.35 947.625,262.875 960.375,253.275 967.5,247.875 974.475,245.4 980.025,243.375 985.5,243.225 990.375,243.15 996.375,245.25 M900.45,156.975 Q815.625,119.025 795.825,111.225 783.375,106.35 772.725,103.95 761.55,101.475 752.475,101.775 733.425,102.45 718.875,115.275 703.2,128.925 695.625,146.925 687.6,166.125 691.5,184.275 694.8,199.875 706.425,209.625 712.275,214.5 717.525,216.525 734.475,205.875 751.35,205.275 M938.55,342.75 L930.9,387.225 Q931.425,388.05 930.825,387.6 L928.875,398.775 Q924.225,400.125 918.9,402.975 908.1,408.675 904.35,416.025 900.975,422.625 900.525,428.625 900.225,432.45 901.125,436.05 903.9,447.525 918.825,450.225 932.7,452.775 942.525,446.025 947.775,442.35 953.325,435.75 957.75,431.025 960.15,429.45 960.975,428.925 961.875,428.625 964.05,427.95 966.6,428.625 968.4,429.075 970.35,430.275 976.8,434.025 978.375,433.425 978.675,433.35 981.825,428.775 984.225,425.4 980.85,420.225 978.375,416.4 974.475,413.7 974.175,413.475 973.875,413.25 969.225,411.375 967.35,410.025 964.125,407.625 963.825,400.725 963.525,393.9 972.675,353.625 L981.825,314.775 985.125,314.925 Q990.375,315.075 1000.35,314.775 M915.6,336.825 L908.775,333 Q907.875,333.375 907.05,333.75 902.25,335.775 899.85,336.825 904.65,351.375 921.075,374.025 924.825,379.2 929.85,385.8 930.525,386.7 930.9,387.225 L930.825,387.6 Q930.45,387.375 929.85,386.775 M899.85,336.825 Q893.775,339.6 891,342 887.55,344.925 886.875,348.9 885.525,356.4 893.85,368.325 904.2,383.1 926.325,398.775 M907.05,333.75 L906.525,331.725 908.775,333 Q910.2,332.4 911.85,331.725 M717.525,216.525 Q713.4,219.075 709.275,222.225 695.475,232.95 688.95,242.25 684.975,247.95 683.7,253.125 680.175,266.775 680.7,278.775 681.225,290.775 684.525,305.55 686.475,310.275 688.95,315.075 689.7,316.575 690.525,318.075 701.475,338.4 716.775,352.725 733.125,368.025 754.725,373.575 764.625,376.05 772.725,376.2 778.2,376.275 782.85,375.225 782.25,375.9 820.725,405.375 835.95,417.075 851.25,428.625 855.3,431.7 859.35,434.775 L850.35,448.275 M824.85,410.25 L814.35,421.725" test="RightBum"/>
    </g>
    <g id="LeftBum">
      <path id="Layer1_0_1_STROKES" stroke="#FEB7AE" stroke-width="3" stroke-linejoin="round" stroke-linecap="round" fill="none" d="M-90.85,150 Q-69.325,136.05 -46.825,125.025 -24.475,114.15 -3.4,107.175 23.825,98.175 42.05,98.25 65,98.325 81.575,103.95 101.075,110.625 116.15,126.3 123.35,133.725 125.15,149.85 126.5,161.625 124.85,175.8 123.575,186.525 116.45,195.675 112.25,201 102.575,211.95 104.075,213.45 105.425,214.875 112.025,221.925 117.2,231.3 120.725,237.675 122.6,245.775 124.25,252.9 124.7,261.375 125.375,274.575 123.05,287.7 122.525,290.475 121.85,293.25 112.85,332.775 90.2,356.25 72.8,374.25 50.075,385.5 49.775,385.65 32.45,393.6 22.4,398.25 16.175,402.3 6.875,408.3 -.325,413.925 -6.85,419.025 -14.8,426.3 -21.625,432.45 -24.025,439.5 -26.95,447.975 -21.85,454.05 -20.275,456 -14.875,458.775 -9.475,461.55 -9.85,460.275 M19.7,199.8 Q34.175,188.925 55.4,189.6 76.1,190.275 90.2,201.3 97.55,207.075 102.575,211.95 M-202.3,243.3 Q-196.825,243.15 -188.95,244.275 -184.45,244.95 -175.6,246.375 -169.225,247.2 -160.3,248.025 -155.2,248.475 -145,249.3 -138.4,249.825 -130,251.925 -128.35,252.3 -125.125,252.525 -122.95,252.6 -121.75,253.425 -118.9,255.375 -112.3,269.25 -105.4,283.8 -101.8,294.6 -98.725,303.9 -94.675,321.075 -92.875,328.65 -88.75,339.075 -83.5,352.35 -82.075,356.775 -81.625,358.125 -79.6,366.975 -77.5,375.525 -76.3,376.8 -74.275,379.05 -74.65,380.025 -74.65,380.175 -71.65,380.775 -66.775,381.75 -60.7,387.075 -54.625,392.25 -51.1,398.55 -47.125,405.375 -48.4,409.95 -49.9,415.275 -58.3,416.025 -62.425,418.125 -69.475,416.55 -77.35,414.225 -80.875,413.775 -88.15,412.8 -97.6,414.675 -103.675,415.65 -106.525,416.25 -111.25,417.3 -115,419.4 -117.775,421.05 -121.375,423.825 -123.4,425.4 -127.375,428.625 -129.475,425.55 -126.925,418.875 -123.475,411.675 -122.425,409.35 -121.6,407.475 -118.825,404.85 -116.125,402.15 -115.45,400.65 -114.175,397.95 -115.9,390.075 -116.575,386.925 -118.75,379.35 -120.325,373.5 -124.225,366.75 -126.55,362.775 -131.8,355.125 M-116.8,397.275 Q-117.325,397.65 -125.275,401.1 -131.575,403.8 -133.375,406.575 -136.375,411.375 -136.9,415.65 -137.725,422.775 -134.35,436.275 -133.975,437.775 -133.525,439.2 -132.55,442.275 -131.2,445.2 -129.625,448.725 -127.45,452.025 -126.1,454.125 -116.8,465.75 M-131.8,355.125 Q-133.075,353.175 -137.725,347.325 -141.4,342.525 -143.35,339.225 -144.7,336.45 -145.525,334.95 -146.95,332.1 -148.3,331.275 -149.875,330.3 -153.7,330.225 -157.9,330.375 -159.325,330.3 -163.825,330.075 -170.575,330.525 -181.15,331.275 -181.825,331.275 -199.45,332.1 -210.85,330.375 -213.775,330 -221.05,327.225 -227.425,324.75 -231.325,324.75 M-101.35,465.3 Q-104.8,465 -108.4,461.325 -111.4,458.25 -113.35,454.275 -115.525,449.7 -116.425,445.35 -116.425,445.275 -116.425,445.2 -117.175,441.825 -116.95,439.2 -116.875,437.625 -116.425,436.35 -113.95,428.775 -106.75,424.05 -102.775,421.425 -92.35,417.3" test="LeftBum"/>
      <path id="Layer1_0_2_STROKES" stroke="#0FF" stroke-width="3" stroke-linejoin="round" stroke-linecap="round" fill="none" d="M-90.85,150 L-85.075,153.6 Q-78.025,158.175 -71.875,163.65 -52.075,181.05 -48.175,199.8 -44.95,214.8 -37.525,248.325 -32.125,278.775 -34.3,303.3 -37.375,336.825 -39.1,346.275 -41.8,361.2 -48.175,369.75 L-59.8,385.8 M-131.8,355.125 L-134.35,392.25 -116.8,397.275 M-209.8,196.275 Q-198.1,193.2 -169.825,183.15 -144.775,174.3 -129.85,171.075 -122.125,169.425 -115.75,166.2 -110.8,163.65 -103.15,158.325 -97,154.05 -90.85,150" test="LeftBum"/>
    </g>
  </g>
</svg>