<?xml version="1.0" encoding="utf-8"?>
<svg id="EdithAnim08" image-rendering="inherit" baseProfile="basic" version="1.1" x="0px" y="0px" width="800" height="600" xmlns="http://www.w3.org/2000/svg" xmlns:xlink="http://www.w3.org/1999/xlink">
  <g id="No-Rear-To-Rearf61r1" overflow="visible">
    <g id="RightBum">
      <path id="Layer2_0_1_STROKES" stroke="#F0F" stroke-width="3" stroke-linejoin="round" stroke-linecap="round" fill="none" d="M916.375,168.075 L924.625,200.475 Q932.5,236.1 930.625,252.525 928.45,271.5 924.325,292.875 920.5,312.825 916.375,327.525 913.75,336.9 911.05,346.875 910.525,348.225 910.075,348.825 L934.6,342.75 M977.875,193.275 L896.5,156.975 M977.875,327.525 L1006.375,323.775 M903.1,333.75 L903.85,336.825 Q905.5,342.825 907.375,347.1 908.8,350.325 910.075,348.825" test="RightBum"/>
      <path id="Layer2_0_2_STROKES" stroke="#F90" stroke-width="3" stroke-linejoin="round" stroke-linecap="round" fill="none" d="M934.6,342.75 L936.925,329.25 Q937.825,324 938.575,310.95 939.325,296.475 940.3,289.35 943.675,262.875 956.425,253.275 963.55,247.875 970.525,245.4 976.075,243.375 981.55,243.225 986.425,243.15 992.425,245.25 M896.5,156.975 Q811.675,119.025 791.875,111.225 779.425,106.35 768.775,103.95 757.6,101.475 748.525,101.775 729.475,102.45 714.925,115.275 699.25,128.925 691.675,146.925 683.65,166.125 687.55,184.275 690.85,199.875 702.475,209.625 708.325,214.5 713.575,216.525 730.525,205.875 747.4,205.275 M934.6,342.75 L926.95,387.225 Q927.475,388.05 926.875,387.6 L924.925,398.775 Q920.275,400.125 914.95,402.975 904.15,408.675 900.4,416.025 897.025,422.625 896.575,428.625 896.275,432.45 897.175,436.05 899.95,447.525 914.875,450.225 928.75,452.775 938.575,446.025 943.825,442.35 949.375,435.75 953.8,431.025 956.2,429.45 957.025,428.925 957.925,428.625 960.1,427.95 962.65,428.625 964.45,429.075 966.4,430.275 972.85,434.025 974.425,433.425 974.725,433.35 977.875,428.775 980.275,425.4 976.9,420.225 974.425,416.4 970.525,413.7 970.225,413.475 969.925,413.25 965.275,411.375 963.4,410.025 960.175,407.625 959.875,400.725 959.575,393.9 968.725,353.625 L977.875,314.775 981.175,314.925 Q986.425,315.075 996.4,314.775 M911.65,336.825 L904.825,333 Q903.925,333.375 903.1,333.75 898.3,335.775 895.9,336.825 900.7,351.375 917.125,374.025 920.875,379.2 925.9,385.8 926.575,386.7 926.95,387.225 L926.875,387.6 Q926.5,387.375 925.9,386.775 M895.9,336.825 Q889.825,339.6 887.05,342 883.6,344.925 882.925,348.9 881.575,356.4 889.9,368.325 900.25,383.1 922.375,398.775 M903.1,333.75 L902.575,331.725 904.825,333 Q906.25,332.4 907.9,331.725 M713.575,216.525 Q709.45,219.075 705.325,222.225 691.525,232.95 685,242.25 681.025,247.95 679.75,253.125 676.225,266.775 676.75,278.775 677.275,290.775 680.575,305.55 682.525,310.275 685,315.075 685.75,316.575 686.575,318.075 697.525,338.4 712.825,352.725 729.175,368.025 750.775,373.575 760.675,376.05 768.775,376.2 774.25,376.275 778.9,375.225 778.3,375.9 816.775,405.375 832,417.075 847.3,428.625 851.35,431.7 855.4,434.775 L846.4,448.275 M820.9,410.25 L810.4,421.725" test="RightBum"/>
    </g>
    <g id="LeftBum">
      <path id="Layer1_0_1_STROKES" stroke="#FEB7AE" stroke-width="3" stroke-linejoin="round" stroke-linecap="round" fill="none" d="M-86.85,150 Q-65.325,136.05 -42.825,125.025 -20.475,114.15 .6,107.175 27.825,98.175 46.05,98.25 69,98.325 85.575,103.95 105.075,110.625 120.15,126.3 127.35,133.725 129.15,149.85 130.5,161.625 128.85,175.8 127.575,186.525 120.45,195.675 116.25,201 106.575,211.95 108.075,213.45 109.425,214.875 116.025,221.925 121.2,231.3 124.725,237.675 126.6,245.775 128.25,252.9 128.7,261.375 129.375,274.575 127.05,287.7 126.525,290.475 125.85,293.25 116.85,332.775 94.2,356.25 76.8,374.25 54.075,385.5 53.775,385.65 36.45,393.6 26.4,398.25 20.175,402.3 10.875,408.3 3.675,413.925 -2.85,419.025 -10.8,426.3 -17.625,432.45 -20.025,439.5 -22.95,447.975 -17.85,454.05 -16.275,456 -10.875,458.775 -5.475,461.55 -5.85,460.275 M23.7,199.8 Q38.175,188.925 59.4,189.6 80.1,190.275 94.2,201.3 101.55,207.075 106.575,211.95 M-198.3,243.3 Q-192.825,243.15 -184.95,244.275 -180.45,244.95 -171.6,246.375 -165.225,247.2 -156.3,248.025 -151.2,248.475 -141,249.3 -134.4,249.825 -126,251.925 -124.35,252.3 -121.125,252.525 -118.95,252.6 -117.75,253.425 -114.9,255.375 -108.3,269.25 -101.4,283.8 -97.8,294.6 -94.725,303.9 -90.675,321.075 -88.875,328.65 -84.75,339.075 -79.5,352.35 -78.075,356.775 -77.625,358.125 -75.6,366.975 -73.5,375.525 -72.3,376.8 -70.275,379.05 -70.65,380.025 -70.65,380.175 -67.65,380.775 -62.775,381.75 -56.7,387.075 -50.625,392.25 -47.1,398.55 -43.125,405.375 -44.4,409.95 -45.9,415.275 -54.3,416.025 -58.425,418.125 -65.475,416.55 -73.35,414.225 -76.875,413.775 -84.15,412.8 -93.6,414.675 -99.675,415.65 -102.525,416.25 -107.25,417.3 -111,419.4 -113.775,421.05 -117.375,423.825 -119.4,425.4 -123.375,428.625 -125.475,425.55 -122.925,418.875 -119.475,411.675 -118.425,409.35 -117.6,407.475 -114.825,404.85 -112.125,402.15 -111.45,400.65 -110.175,397.95 -111.9,390.075 -112.575,386.925 -114.75,379.35 -116.325,373.5 -120.225,366.75 -122.55,362.775 -127.8,355.125 M-112.8,397.275 Q-113.325,397.65 -121.275,401.1 -127.575,403.8 -129.375,406.575 -132.375,411.375 -132.9,415.65 -133.725,422.775 -130.35,436.275 -129.975,437.775 -129.525,439.2 -128.55,442.275 -127.2,445.2 -125.625,448.725 -123.45,452.025 -122.1,454.125 -112.8,465.75 M-127.8,355.125 Q-129.075,353.175 -133.725,347.325 -137.4,342.525 -139.35,339.225 -140.7,336.45 -141.525,334.95 -142.95,332.1 -144.3,331.275 -145.875,330.3 -149.7,330.225 -153.9,330.375 -155.325,330.3 -159.825,330.075 -166.575,330.525 -177.15,331.275 -177.825,331.275 -195.45,332.1 -206.85,330.375 -209.775,330 -217.05,327.225 -223.425,324.75 -227.325,324.75 M-97.35,465.3 Q-100.8,465 -104.4,461.325 -107.4,458.25 -109.35,454.275 -111.525,449.7 -112.425,445.35 -112.425,445.275 -112.425,445.2 -113.175,441.825 -112.95,439.2 -112.875,437.625 -112.425,436.35 -109.95,428.775 -102.75,424.05 -98.775,421.425 -88.35,417.3" test="LeftBum"/>
      <path id="Layer1_0_2_STROKES" stroke="#0FF" stroke-width="3" stroke-linejoin="round" stroke-linecap="round" fill="none" d="M-86.85,150 L-81.075,153.6 Q-74.025,158.175 -67.875,163.65 -48.075,181.05 -44.175,199.8 -40.95,214.8 -33.525,248.325 -28.125,278.775 -30.3,303.3 -33.375,336.825 -35.1,346.275 -37.8,361.2 -44.175,369.75 L-55.8,385.8 M-127.8,355.125 L-130.35,392.25 -112.8,397.275 M-205.8,196.275 Q-194.1,193.2 -165.825,183.15 -140.775,174.3 -125.85,171.075 -118.125,169.425 -111.75,166.2 -106.8,163.65 -99.15,158.325 -93,154.05 -86.85,150" test="LeftBum"/>
    </g>
  </g>
</svg>