<?xml version="1.0" encoding="utf-8"?>
<svg id="EdithAnim08" image-rendering="inherit" baseProfile="basic" version="1.1" x="0px" y="0px" width="800" height="600" xmlns="http://www.w3.org/2000/svg" xmlns:xlink="http://www.w3.org/1999/xlink">
  <g id="No-Rear-To-Rearf63r1" overflow="visible">
    <g id="RightBum">
      <path id="Layer2_0_1_STROKES" stroke="#F0F" stroke-width="3" stroke-linejoin="round" stroke-linecap="round" fill="none" d="M912.425,168.075 L920.675,200.475 Q928.55,236.1 926.675,252.525 924.5,271.5 920.375,292.875 916.55,312.825 912.425,327.525 909.8,336.9 907.1,346.875 906.575,348.225 906.125,348.825 L930.65,342.75 M973.925,193.275 L892.55,156.975 M973.925,327.525 L1002.425,323.775 M899.15,333.75 L899.9,336.825 Q901.55,342.825 903.425,347.1 904.85,350.325 906.125,348.825" test="RightBum"/>
      <path id="Layer2_0_2_STROKES" stroke="#F90" stroke-width="3" stroke-linejoin="round" stroke-linecap="round" fill="none" d="M930.65,342.75 L932.975,329.25 Q933.875,324 934.625,310.95 935.375,296.475 936.35,289.35 939.725,262.875 952.475,253.275 959.6,247.875 966.575,245.4 972.125,243.375 977.6,243.225 982.475,243.15 988.475,245.25 M892.55,156.975 Q807.725,119.025 787.925,111.225 775.475,106.35 764.825,103.95 753.65,101.475 744.575,101.775 725.525,102.45 710.975,115.275 695.3,128.925 687.725,146.925 679.7,166.125 683.6,184.275 686.9,199.875 698.525,209.625 704.375,214.5 709.625,216.525 726.575,205.875 743.45,205.275 M930.65,342.75 L923,387.225 Q923.525,388.05 922.925,387.6 L920.975,398.775 Q916.325,400.125 911,402.975 900.2,408.675 896.45,416.025 893.075,422.625 892.625,428.625 892.325,432.45 893.225,436.05 896,447.525 910.925,450.225 924.8,452.775 934.625,446.025 939.875,442.35 945.425,435.75 949.85,431.025 952.25,429.45 953.075,428.925 953.975,428.625 956.15,427.95 958.7,428.625 960.5,429.075 962.45,430.275 968.9,434.025 970.475,433.425 970.775,433.35 973.925,428.775 976.325,425.4 972.95,420.225 970.475,416.4 966.575,413.7 966.275,413.475 965.975,413.25 961.325,411.375 959.45,410.025 956.225,407.625 955.925,400.725 955.625,393.9 964.775,353.625 L973.925,314.775 977.225,314.925 Q982.475,315.075 992.45,314.775 M907.7,336.825 L900.875,333 Q899.975,333.375 899.15,333.75 894.35,335.775 891.95,336.825 896.75,351.375 913.175,374.025 916.925,379.2 921.95,385.8 922.625,386.7 923,387.225 L922.925,387.6 Q922.55,387.375 921.95,386.775 M891.95,336.825 Q885.875,339.6 883.1,342 879.65,344.925 878.975,348.9 877.625,356.4 885.95,368.325 896.3,383.1 918.425,398.775 M899.15,333.75 L898.625,331.725 900.875,333 Q902.3,332.4 903.95,331.725 M709.625,216.525 Q705.5,219.075 701.375,222.225 687.575,232.95 681.05,242.25 677.075,247.95 675.8,253.125 672.275,266.775 672.8,278.775 673.325,290.775 676.625,305.55 678.575,310.275 681.05,315.075 681.8,316.575 682.625,318.075 693.575,338.4 708.875,352.725 725.225,368.025 746.825,373.575 756.725,376.05 764.825,376.2 770.3,376.275 774.95,375.225 774.35,375.9 812.825,405.375 828.05,417.075 843.35,428.625 847.4,431.7 851.45,434.775 L842.45,448.275 M816.95,410.25 L806.45,421.725" test="RightBum"/>
    </g>
    <g id="LeftBum">
      <path id="Layer1_0_1_STROKES" stroke="#FEB7AE" stroke-width="3" stroke-linejoin="round" stroke-linecap="round" fill="none" d="M-82.85,150 Q-61.325,136.05 -38.825,125.025 -16.475,114.15 4.6,107.175 31.825,98.175 50.05,98.25 73,98.325 89.575,103.95 109.075,110.625 124.15,126.3 131.35,133.725 133.15,149.85 134.5,161.625 132.85,175.8 131.575,186.525 124.45,195.675 120.25,201 110.575,211.95 112.075,213.45 113.425,214.875 120.025,221.925 125.2,231.3 128.725,237.675 130.6,245.775 132.25,252.9 132.7,261.375 133.375,274.575 131.05,287.7 130.525,290.475 129.85,293.25 120.85,332.775 98.2,356.25 80.8,374.25 58.075,385.5 57.775,385.65 40.45,393.6 30.4,398.25 24.175,402.3 14.875,408.3 7.675,413.925 1.15,419.025 -6.8,426.3 -13.625,432.45 -16.025,439.5 -18.95,447.975 -13.85,454.05 -12.275,456 -6.875,458.775 -1.475,461.55 -1.85,460.275 M27.7,199.8 Q42.175,188.925 63.4,189.6 84.1,190.275 98.2,201.3 105.55,207.075 110.575,211.95 M-194.3,243.3 Q-188.825,243.15 -180.95,244.275 -176.45,244.95 -167.6,246.375 -161.225,247.2 -152.3,248.025 -147.2,248.475 -137,249.3 -130.4,249.825 -122,251.925 -120.35,252.3 -117.125,252.525 -114.95,252.6 -113.75,253.425 -110.9,255.375 -104.3,269.25 -97.4,283.8 -93.8,294.6 -90.725,303.9 -86.675,321.075 -84.875,328.65 -80.75,339.075 -75.5,352.35 -74.075,356.775 -73.625,358.125 -71.6,366.975 -69.5,375.525 -68.3,376.8 -66.275,379.05 -66.65,380.025 -66.65,380.175 -63.65,380.775 -58.775,381.75 -52.7,387.075 -46.625,392.25 -43.1,398.55 -39.125,405.375 -40.4,409.95 -41.9,415.275 -50.3,416.025 -54.425,418.125 -61.475,416.55 -69.35,414.225 -72.875,413.775 -80.15,412.8 -89.6,414.675 -95.675,415.65 -98.525,416.25 -103.25,417.3 -107,419.4 -109.775,421.05 -113.375,423.825 -115.4,425.4 -119.375,428.625 -121.475,425.55 -118.925,418.875 -115.475,411.675 -114.425,409.35 -113.6,407.475 -110.825,404.85 -108.125,402.15 -107.45,400.65 -106.175,397.95 -107.9,390.075 -108.575,386.925 -110.75,379.35 -112.325,373.5 -116.225,366.75 -118.55,362.775 -123.8,355.125 M-108.8,397.275 Q-109.325,397.65 -117.275,401.1 -123.575,403.8 -125.375,406.575 -128.375,411.375 -128.9,415.65 -129.725,422.775 -126.35,436.275 -125.975,437.775 -125.525,439.2 -124.55,442.275 -123.2,445.2 -121.625,448.725 -119.45,452.025 -118.1,454.125 -108.8,465.75 M-123.8,355.125 Q-125.075,353.175 -129.725,347.325 -133.4,342.525 -135.35,339.225 -136.7,336.45 -137.525,334.95 -138.95,332.1 -140.3,331.275 -141.875,330.3 -145.7,330.225 -149.9,330.375 -151.325,330.3 -155.825,330.075 -162.575,330.525 -173.15,331.275 -173.825,331.275 -191.45,332.1 -202.85,330.375 -205.775,330 -213.05,327.225 -219.425,324.75 -223.325,324.75 M-93.35,465.3 Q-96.8,465 -100.4,461.325 -103.4,458.25 -105.35,454.275 -107.525,449.7 -108.425,445.35 -108.425,445.275 -108.425,445.2 -109.175,441.825 -108.95,439.2 -108.875,437.625 -108.425,436.35 -105.95,428.775 -98.75,424.05 -94.775,421.425 -84.35,417.3" test="LeftBum"/>
      <path id="Layer1_0_2_STROKES" stroke="#0FF" stroke-width="3" stroke-linejoin="round" stroke-linecap="round" fill="none" d="M-82.85,150 L-77.075,153.6 Q-70.025,158.175 -63.875,163.65 -44.075,181.05 -40.175,199.8 -36.95,214.8 -29.525,248.325 -24.125,278.775 -26.3,303.3 -29.375,336.825 -31.1,346.275 -33.8,361.2 -40.175,369.75 L-51.8,385.8 M-123.8,355.125 L-126.35,392.25 -108.8,397.275 M-201.8,196.275 Q-190.1,193.2 -161.825,183.15 -136.775,174.3 -121.85,171.075 -114.125,169.425 -107.75,166.2 -102.8,163.65 -95.15,158.325 -89,154.05 -82.85,150" test="LeftBum"/>
    </g>
  </g>
</svg>