<?xml version="1.0" encoding="utf-8"?>
<svg id="EdithAnim08" image-rendering="inherit" baseProfile="basic" version="1.1" x="0px" y="0px" width="800" height="600" xmlns="http://www.w3.org/2000/svg" xmlns:xlink="http://www.w3.org/1999/xlink">
  <g id="No-Rear-To-Rearf65r1" overflow="visible">
    <g id="RightBum">
      <path id="Layer2_0_1_STROKES" stroke="#F0F" stroke-width="3" stroke-linejoin="round" stroke-linecap="round" fill="none" d="M908.525,168.075 L916.775,200.475 Q924.65,236.1 922.775,252.525 920.6,271.5 916.475,292.875 912.65,312.825 908.525,327.525 905.9,336.9 903.2,346.875 902.675,348.225 902.225,348.825 L926.75,342.75 M970.025,193.275 L888.65,156.975 M970.025,327.525 L998.525,323.775 M895.25,333.75 L896,336.825 Q897.65,342.825 899.525,347.1 900.95,350.325 902.225,348.825" test="RightBum"/>
      <path id="Layer2_0_2_STROKES" stroke="#F90" stroke-width="3" stroke-linejoin="round" stroke-linecap="round" fill="none" d="M926.75,342.75 L929.075,329.25 Q929.975,324 930.725,310.95 931.475,296.475 932.45,289.35 935.825,262.875 948.575,253.275 955.7,247.875 962.675,245.4 968.225,243.375 973.7,243.225 978.575,243.15 984.575,245.25 M888.65,156.975 Q803.825,119.025 784.025,111.225 771.575,106.35 760.925,103.95 749.75,101.475 740.675,101.775 721.625,102.45 707.075,115.275 691.4,128.925 683.825,146.925 675.8,166.125 679.7,184.275 683,199.875 694.625,209.625 700.475,214.5 705.725,216.525 722.675,205.875 739.55,205.275 M926.75,342.75 L919.1,387.225 Q919.625,388.05 919.025,387.6 L917.075,398.775 Q912.425,400.125 907.1,402.975 896.3,408.675 892.55,416.025 889.175,422.625 888.725,428.625 888.425,432.45 889.325,436.05 892.1,447.525 907.025,450.225 920.9,452.775 930.725,446.025 935.975,442.35 941.525,435.75 945.95,431.025 948.35,429.45 949.175,428.925 950.075,428.625 952.25,427.95 954.8,428.625 956.6,429.075 958.55,430.275 965,434.025 966.575,433.425 966.875,433.35 970.025,428.775 972.425,425.4 969.05,420.225 966.575,416.4 962.675,413.7 962.375,413.475 962.075,413.25 957.425,411.375 955.55,410.025 952.325,407.625 952.025,400.725 951.725,393.9 960.875,353.625 L970.025,314.775 973.325,314.925 Q978.575,315.075 988.55,314.775 M903.8,336.825 L896.975,333 Q896.075,333.375 895.25,333.75 890.45,335.775 888.05,336.825 892.85,351.375 909.275,374.025 913.025,379.2 918.05,385.8 918.725,386.7 919.1,387.225 L919.025,387.6 Q918.65,387.375 918.05,386.775 M888.05,336.825 Q881.975,339.6 879.2,342 875.75,344.925 875.075,348.9 873.725,356.4 882.05,368.325 892.4,383.1 914.525,398.775 M895.25,333.75 L894.725,331.725 896.975,333 Q898.4,332.4 900.05,331.725 M705.725,216.525 Q701.6,219.075 697.475,222.225 683.675,232.95 677.15,242.25 673.175,247.95 671.9,253.125 668.375,266.775 668.9,278.775 669.425,290.775 672.725,305.55 674.675,310.275 677.15,315.075 677.9,316.575 678.725,318.075 689.675,338.4 704.975,352.725 721.325,368.025 742.925,373.575 752.825,376.05 760.925,376.2 766.4,376.275 771.05,375.225 770.45,375.9 808.925,405.375 824.15,417.075 839.45,428.625 843.5,431.7 847.55,434.775 L838.55,448.275 M813.05,410.25 L802.55,421.725" test="RightBum"/>
    </g>
    <g id="LeftBum">
      <path id="Layer1_0_1_STROKES" stroke="#FEB7AE" stroke-width="3" stroke-linejoin="round" stroke-linecap="round" fill="none" d="M-78.9,150 Q-57.375,136.05 -34.875,125.025 -12.525,114.15 8.55,107.175 35.775,98.175 54,98.25 76.95,98.325 93.525,103.95 113.025,110.625 128.1,126.3 135.3,133.725 137.1,149.85 138.45,161.625 136.8,175.8 135.525,186.525 128.4,195.675 124.2,201 114.525,211.95 116.025,213.45 117.375,214.875 123.975,221.925 129.15,231.3 132.675,237.675 134.55,245.775 136.2,252.9 136.65,261.375 137.325,274.575 135,287.7 134.475,290.475 133.8,293.25 124.8,332.775 102.15,356.25 84.75,374.25 62.025,385.5 61.725,385.65 44.4,393.6 34.35,398.25 28.125,402.3 18.825,408.3 11.625,413.925 5.1,419.025 -2.85,426.3 -9.675,432.45 -12.075,439.5 -15,447.975 -9.9,454.05 -8.325,456 -2.925,458.775 2.475,461.55 2.1,460.275 M31.65,199.8 Q46.125,188.925 67.35,189.6 88.05,190.275 102.15,201.3 109.5,207.075 114.525,211.95 M-190.35,243.3 Q-184.875,243.15 -177,244.275 -172.5,244.95 -163.65,246.375 -157.275,247.2 -148.35,248.025 -143.25,248.475 -133.05,249.3 -126.45,249.825 -118.05,251.925 -116.4,252.3 -113.175,252.525 -111,252.6 -109.8,253.425 -106.95,255.375 -100.35,269.25 -93.45,283.8 -89.85,294.6 -86.775,303.9 -82.725,321.075 -80.925,328.65 -76.8,339.075 -71.55,352.35 -70.125,356.775 -69.675,358.125 -67.65,366.975 -65.55,375.525 -64.35,376.8 -62.325,379.05 -62.7,380.025 -62.7,380.175 -59.7,380.775 -54.825,381.75 -48.75,387.075 -42.675,392.25 -39.15,398.55 -35.175,405.375 -36.45,409.95 -37.95,415.275 -46.35,416.025 -50.475,418.125 -57.525,416.55 -65.4,414.225 -68.925,413.775 -76.2,412.8 -85.65,414.675 -91.725,415.65 -94.575,416.25 -99.3,417.3 -103.05,419.4 -105.825,421.05 -109.425,423.825 -111.45,425.4 -115.425,428.625 -117.525,425.55 -114.975,418.875 -111.525,411.675 -110.475,409.35 -109.65,407.475 -106.875,404.85 -104.175,402.15 -103.5,400.65 -102.225,397.95 -103.95,390.075 -104.625,386.925 -106.8,379.35 -108.375,373.5 -112.275,366.75 -114.6,362.775 -119.85,355.125 M-104.85,397.275 Q-105.375,397.65 -113.325,401.1 -119.625,403.8 -121.425,406.575 -124.425,411.375 -124.95,415.65 -125.775,422.775 -122.4,436.275 -122.025,437.775 -121.575,439.2 -120.6,442.275 -119.25,445.2 -117.675,448.725 -115.5,452.025 -114.15,454.125 -104.85,465.75 M-119.85,355.125 Q-121.125,353.175 -125.775,347.325 -129.45,342.525 -131.4,339.225 -132.75,336.45 -133.575,334.95 -135,332.1 -136.35,331.275 -137.925,330.3 -141.75,330.225 -145.95,330.375 -147.375,330.3 -151.875,330.075 -158.625,330.525 -169.2,331.275 -169.875,331.275 -187.5,332.1 -198.9,330.375 -201.825,330 -209.1,327.225 -215.475,324.75 -219.375,324.75 M-89.4,465.3 Q-92.85,465 -96.45,461.325 -99.45,458.25 -101.4,454.275 -103.575,449.7 -104.475,445.35 -104.475,445.275 -104.475,445.2 -105.225,441.825 -105,439.2 -104.925,437.625 -104.475,436.35 -102,428.775 -94.8,424.05 -90.825,421.425 -80.4,417.3" test="LeftBum"/>
      <path id="Layer1_0_2_STROKES" stroke="#0FF" stroke-width="3" stroke-linejoin="round" stroke-linecap="round" fill="none" d="M-78.9,150 L-73.125,153.6 Q-66.075,158.175 -59.925,163.65 -40.125,181.05 -36.225,199.8 -33,214.8 -25.575,248.325 -20.175,278.775 -22.35,303.3 -25.425,336.825 -27.15,346.275 -29.85,361.2 -36.225,369.75 L-47.85,385.8 M-119.85,355.125 L-122.4,392.25 -104.85,397.275 M-197.85,196.275 Q-186.15,193.2 -157.875,183.15 -132.825,174.3 -117.9,171.075 -110.175,169.425 -103.8,166.2 -98.85,163.65 -91.2,158.325 -85.05,154.05 -78.9,150" test="LeftBum"/>
    </g>
  </g>
</svg>