<?xml version="1.0" encoding="utf-8"?>
<svg id="EdithAnim08" image-rendering="inherit" baseProfile="basic" version="1.1" x="0px" y="0px" width="800" height="600" xmlns="http://www.w3.org/2000/svg" xmlns:xlink="http://www.w3.org/1999/xlink">
  <g id="No-Rear-To-Rearf66r1" overflow="visible">
    <g id="RightBum">
      <path id="Layer2_0_1_STROKES" stroke="#F0F" stroke-width="3" stroke-linejoin="round" stroke-linecap="round" fill="none" d="M906.575,168.075 L914.825,200.475 Q922.7,236.1 920.825,252.525 918.65,271.5 914.525,292.875 910.7,312.825 906.575,327.525 903.95,336.9 901.25,346.875 900.725,348.225 900.275,348.825 L924.8,342.75 M968.075,193.275 L886.7,156.975 M968.075,327.525 L996.575,323.775 M893.3,333.75 L894.05,336.825 Q895.7,342.825 897.575,347.1 899,350.325 900.275,348.825" test="RightBum"/>
      <path id="Layer2_0_2_STROKES" stroke="#F90" stroke-width="3" stroke-linejoin="round" stroke-linecap="round" fill="none" d="M924.8,342.75 L927.125,329.25 Q928.025,324 928.775,310.95 929.525,296.475 930.5,289.35 933.875,262.875 946.625,253.275 953.75,247.875 960.725,245.4 966.275,243.375 971.75,243.225 976.625,243.15 982.625,245.25 M886.7,156.975 Q801.875,119.025 782.075,111.225 769.625,106.35 758.975,103.95 747.8,101.475 738.725,101.775 719.675,102.45 705.125,115.275 689.45,128.925 681.875,146.925 673.85,166.125 677.75,184.275 681.05,199.875 692.675,209.625 698.525,214.5 703.775,216.525 720.725,205.875 737.6,205.275 M924.8,342.75 L917.15,387.225 Q917.675,388.05 917.075,387.6 L915.125,398.775 Q910.475,400.125 905.15,402.975 894.35,408.675 890.6,416.025 887.225,422.625 886.775,428.625 886.475,432.45 887.375,436.05 890.15,447.525 905.075,450.225 918.95,452.775 928.775,446.025 934.025,442.35 939.575,435.75 944,431.025 946.4,429.45 947.225,428.925 948.125,428.625 950.3,427.95 952.85,428.625 954.65,429.075 956.6,430.275 963.05,434.025 964.625,433.425 964.925,433.35 968.075,428.775 970.475,425.4 967.1,420.225 964.625,416.4 960.725,413.7 960.425,413.475 960.125,413.25 955.475,411.375 953.6,410.025 950.375,407.625 950.075,400.725 949.775,393.9 958.925,353.625 L968.075,314.775 971.375,314.925 Q976.625,315.075 986.6,314.775 M901.85,336.825 L895.025,333 Q894.125,333.375 893.3,333.75 888.5,335.775 886.1,336.825 890.9,351.375 907.325,374.025 911.075,379.2 916.1,385.8 916.775,386.7 917.15,387.225 L917.075,387.6 Q916.7,387.375 916.1,386.775 M886.1,336.825 Q880.025,339.6 877.25,342 873.8,344.925 873.125,348.9 871.775,356.4 880.1,368.325 890.45,383.1 912.575,398.775 M893.3,333.75 L892.775,331.725 895.025,333 Q896.45,332.4 898.1,331.725 M703.775,216.525 Q699.65,219.075 695.525,222.225 681.725,232.95 675.2,242.25 671.225,247.95 669.95,253.125 666.425,266.775 666.95,278.775 667.475,290.775 670.775,305.55 672.725,310.275 675.2,315.075 675.95,316.575 676.775,318.075 687.725,338.4 703.025,352.725 719.375,368.025 740.975,373.575 750.875,376.05 758.975,376.2 764.45,376.275 769.1,375.225 768.5,375.9 806.975,405.375 822.2,417.075 837.5,428.625 841.55,431.7 845.6,434.775 L836.6,448.275 M811.1,410.25 L800.6,421.725" test="RightBum"/>
    </g>
    <g id="LeftBum">
      <path id="Layer1_0_1_STROKES" stroke="#FEB7AE" stroke-width="3" stroke-linejoin="round" stroke-linecap="round" fill="none" d="M-76.9,150 Q-55.375,136.05 -32.875,125.025 -10.525,114.15 10.55,107.175 37.775,98.175 56,98.25 78.95,98.325 95.525,103.95 115.025,110.625 130.1,126.3 137.3,133.725 139.1,149.85 140.45,161.625 138.8,175.8 137.525,186.525 130.4,195.675 126.2,201 116.525,211.95 118.025,213.45 119.375,214.875 125.975,221.925 131.15,231.3 134.675,237.675 136.55,245.775 138.2,252.9 138.65,261.375 139.325,274.575 137,287.7 136.475,290.475 135.8,293.25 126.8,332.775 104.15,356.25 86.75,374.25 64.025,385.5 63.725,385.65 46.4,393.6 36.35,398.25 30.125,402.3 20.825,408.3 13.625,413.925 7.1,419.025 -.85,426.3 -7.675,432.45 -10.075,439.5 -13,447.975 -7.9,454.05 -6.325,456 -.925,458.775 4.475,461.55 4.1,460.275 M33.65,199.8 Q48.125,188.925 69.35,189.6 90.05,190.275 104.15,201.3 111.5,207.075 116.525,211.95 M-188.35,243.3 Q-182.875,243.15 -175,244.275 -170.5,244.95 -161.65,246.375 -155.275,247.2 -146.35,248.025 -141.25,248.475 -131.05,249.3 -124.45,249.825 -116.05,251.925 -114.4,252.3 -111.175,252.525 -109,252.6 -107.8,253.425 -104.95,255.375 -98.35,269.25 -91.45,283.8 -87.85,294.6 -84.775,303.9 -80.725,321.075 -78.925,328.65 -74.8,339.075 -69.55,352.35 -68.125,356.775 -67.675,358.125 -65.65,366.975 -63.55,375.525 -62.35,376.8 -60.325,379.05 -60.7,380.025 -60.7,380.175 -57.7,380.775 -52.825,381.75 -46.75,387.075 -40.675,392.25 -37.15,398.55 -33.175,405.375 -34.45,409.95 -35.95,415.275 -44.35,416.025 -48.475,418.125 -55.525,416.55 -63.4,414.225 -66.925,413.775 -74.2,412.8 -83.65,414.675 -89.725,415.65 -92.575,416.25 -97.3,417.3 -101.05,419.4 -103.825,421.05 -107.425,423.825 -109.45,425.4 -113.425,428.625 -115.525,425.55 -112.975,418.875 -109.525,411.675 -108.475,409.35 -107.65,407.475 -104.875,404.85 -102.175,402.15 -101.5,400.65 -100.225,397.95 -101.95,390.075 -102.625,386.925 -104.8,379.35 -106.375,373.5 -110.275,366.75 -112.6,362.775 -117.85,355.125 M-102.85,397.275 Q-103.375,397.65 -111.325,401.1 -117.625,403.8 -119.425,406.575 -122.425,411.375 -122.95,415.65 -123.775,422.775 -120.4,436.275 -120.025,437.775 -119.575,439.2 -118.6,442.275 -117.25,445.2 -115.675,448.725 -113.5,452.025 -112.15,454.125 -102.85,465.75 M-117.85,355.125 Q-119.125,353.175 -123.775,347.325 -127.45,342.525 -129.4,339.225 -130.75,336.45 -131.575,334.95 -133,332.1 -134.35,331.275 -135.925,330.3 -139.75,330.225 -143.95,330.375 -145.375,330.3 -149.875,330.075 -156.625,330.525 -167.2,331.275 -167.875,331.275 -185.5,332.1 -196.9,330.375 -199.825,330 -207.1,327.225 -213.475,324.75 -217.375,324.75 M-87.4,465.3 Q-90.85,465 -94.45,461.325 -97.45,458.25 -99.4,454.275 -101.575,449.7 -102.475,445.35 -102.475,445.275 -102.475,445.2 -103.225,441.825 -103,439.2 -102.925,437.625 -102.475,436.35 -100,428.775 -92.8,424.05 -88.825,421.425 -78.4,417.3" test="LeftBum"/>
      <path id="Layer1_0_2_STROKES" stroke="#0FF" stroke-width="3" stroke-linejoin="round" stroke-linecap="round" fill="none" d="M-76.9,150 L-71.125,153.6 Q-64.075,158.175 -57.925,163.65 -38.125,181.05 -34.225,199.8 -31,214.8 -23.575,248.325 -18.175,278.775 -20.35,303.3 -23.425,336.825 -25.15,346.275 -27.85,361.2 -34.225,369.75 L-45.85,385.8 M-117.85,355.125 L-120.4,392.25 -102.85,397.275 M-195.85,196.275 Q-184.15,193.2 -155.875,183.15 -130.825,174.3 -115.9,171.075 -108.175,169.425 -101.8,166.2 -96.85,163.65 -89.2,158.325 -83.05,154.05 -76.9,150" test="LeftBum"/>
    </g>
  </g>
</svg>