<?xml version="1.0" encoding="utf-8"?>
<svg id="EdithAnim08" image-rendering="inherit" baseProfile="basic" version="1.1" x="0px" y="0px" width="800" height="600" xmlns="http://www.w3.org/2000/svg" xmlns:xlink="http://www.w3.org/1999/xlink">
  <g id="No-Rear-To-Rearf67r1" overflow="visible">
    <g id="RightBum">
      <path id="Layer2_0_1_STROKES" stroke="#F0F" stroke-width="3" stroke-linejoin="round" stroke-linecap="round" fill="none" d="M904.675,168.075 L912.925,200.475 Q920.8,236.1 918.925,252.525 916.75,271.5 912.625,292.875 908.8,312.825 904.675,327.525 902.05,336.9 899.35,346.875 898.825,348.225 898.375,348.825 L922.9,342.75 M966.175,193.275 L884.8,156.975 M966.175,327.525 L994.675,323.775 M891.4,333.75 L892.15,336.825 Q893.8,342.825 895.675,347.1 897.1,350.325 898.375,348.825" test="RightBum"/>
      <path id="Layer2_0_2_STROKES" stroke="#F90" stroke-width="3" stroke-linejoin="round" stroke-linecap="round" fill="none" d="M922.9,342.75 L925.225,329.25 Q926.125,324 926.875,310.95 927.625,296.475 928.6,289.35 931.975,262.875 944.725,253.275 951.85,247.875 958.825,245.4 964.375,243.375 969.85,243.225 974.725,243.15 980.725,245.25 M884.8,156.975 Q799.975,119.025 780.175,111.225 767.725,106.35 757.075,103.95 745.9,101.475 736.825,101.775 717.775,102.45 703.225,115.275 687.55,128.925 679.975,146.925 671.95,166.125 675.85,184.275 679.15,199.875 690.775,209.625 696.625,214.5 701.875,216.525 718.825,205.875 735.7,205.275 M922.9,342.75 L915.25,387.225 Q915.775,388.05 915.175,387.6 L913.225,398.775 Q908.575,400.125 903.25,402.975 892.45,408.675 888.7,416.025 885.325,422.625 884.875,428.625 884.575,432.45 885.475,436.05 888.25,447.525 903.175,450.225 917.05,452.775 926.875,446.025 932.125,442.35 937.675,435.75 942.1,431.025 944.5,429.45 945.325,428.925 946.225,428.625 948.4,427.95 950.95,428.625 952.75,429.075 954.7,430.275 961.15,434.025 962.725,433.425 963.025,433.35 966.175,428.775 968.575,425.4 965.2,420.225 962.725,416.4 958.825,413.7 958.525,413.475 958.225,413.25 953.575,411.375 951.7,410.025 948.475,407.625 948.175,400.725 947.875,393.9 957.025,353.625 L966.175,314.775 969.475,314.925 Q974.725,315.075 984.7,314.775 M899.95,336.825 L893.125,333 Q892.225,333.375 891.4,333.75 886.6,335.775 884.2,336.825 889,351.375 905.425,374.025 909.175,379.2 914.2,385.8 914.875,386.7 915.25,387.225 L915.175,387.6 Q914.8,387.375 914.2,386.775 M884.2,336.825 Q878.125,339.6 875.35,342 871.9,344.925 871.225,348.9 869.875,356.4 878.2,368.325 888.55,383.1 910.675,398.775 M891.4,333.75 L890.875,331.725 893.125,333 Q894.55,332.4 896.2,331.725 M701.875,216.525 Q697.75,219.075 693.625,222.225 679.825,232.95 673.3,242.25 669.325,247.95 668.05,253.125 664.525,266.775 665.05,278.775 665.575,290.775 668.875,305.55 670.825,310.275 673.3,315.075 674.05,316.575 674.875,318.075 685.825,338.4 701.125,352.725 717.475,368.025 739.075,373.575 748.975,376.05 757.075,376.2 762.55,376.275 767.2,375.225 766.6,375.9 805.075,405.375 820.3,417.075 835.6,428.625 839.65,431.7 843.7,434.775 L834.7,448.275 M809.2,410.25 L798.7,421.725" test="RightBum"/>
    </g>
    <g id="LeftBum">
      <path id="Layer1_0_1_STROKES" stroke="#FEB7AE" stroke-width="3" stroke-linejoin="round" stroke-linecap="round" fill="none" d="M-74.95,150 Q-53.425,136.05 -30.925,125.025 -8.575,114.15 12.5,107.175 39.725,98.175 57.95,98.25 80.9,98.325 97.475,103.95 116.975,110.625 132.05,126.3 139.25,133.725 141.05,149.85 142.4,161.625 140.75,175.8 139.475,186.525 132.35,195.675 128.15,201 118.475,211.95 119.975,213.45 121.325,214.875 127.925,221.925 133.1,231.3 136.625,237.675 138.5,245.775 140.15,252.9 140.6,261.375 141.275,274.575 138.95,287.7 138.425,290.475 137.75,293.25 128.75,332.775 106.1,356.25 88.7,374.25 65.975,385.5 65.675,385.65 48.35,393.6 38.3,398.25 32.075,402.3 22.775,408.3 15.575,413.925 9.05,419.025 1.1,426.3 -5.725,432.45 -8.125,439.5 -11.05,447.975 -5.95,454.05 -4.375,456 1.025,458.775 6.425,461.55 6.05,460.275 M35.6,199.8 Q50.075,188.925 71.3,189.6 92,190.275 106.1,201.3 113.45,207.075 118.475,211.95 M-186.4,243.3 Q-180.925,243.15 -173.05,244.275 -168.55,244.95 -159.7,246.375 -153.325,247.2 -144.4,248.025 -139.3,248.475 -129.1,249.3 -122.5,249.825 -114.1,251.925 -112.45,252.3 -109.225,252.525 -107.05,252.6 -105.85,253.425 -103,255.375 -96.4,269.25 -89.5,283.8 -85.9,294.6 -82.825,303.9 -78.775,321.075 -76.975,328.65 -72.85,339.075 -67.6,352.35 -66.175,356.775 -65.725,358.125 -63.7,366.975 -61.6,375.525 -60.4,376.8 -58.375,379.05 -58.75,380.025 -58.75,380.175 -55.75,380.775 -50.875,381.75 -44.8,387.075 -38.725,392.25 -35.2,398.55 -31.225,405.375 -32.5,409.95 -34,415.275 -42.4,416.025 -46.525,418.125 -53.575,416.55 -61.45,414.225 -64.975,413.775 -72.25,412.8 -81.7,414.675 -87.775,415.65 -90.625,416.25 -95.35,417.3 -99.1,419.4 -101.875,421.05 -105.475,423.825 -107.5,425.4 -111.475,428.625 -113.575,425.55 -111.025,418.875 -107.575,411.675 -106.525,409.35 -105.7,407.475 -102.925,404.85 -100.225,402.15 -99.55,400.65 -98.275,397.95 -100,390.075 -100.675,386.925 -102.85,379.35 -104.425,373.5 -108.325,366.75 -110.65,362.775 -115.9,355.125 M-100.9,397.275 Q-101.425,397.65 -109.375,401.1 -115.675,403.8 -117.475,406.575 -120.475,411.375 -121,415.65 -121.825,422.775 -118.45,436.275 -118.075,437.775 -117.625,439.2 -116.65,442.275 -115.3,445.2 -113.725,448.725 -111.55,452.025 -110.2,454.125 -100.9,465.75 M-115.9,355.125 Q-117.175,353.175 -121.825,347.325 -125.5,342.525 -127.45,339.225 -128.8,336.45 -129.625,334.95 -131.05,332.1 -132.4,331.275 -133.975,330.3 -137.8,330.225 -142,330.375 -143.425,330.3 -147.925,330.075 -154.675,330.525 -165.25,331.275 -165.925,331.275 -183.55,332.1 -194.95,330.375 -197.875,330 -205.15,327.225 -211.525,324.75 -215.425,324.75 M-85.45,465.3 Q-88.9,465 -92.5,461.325 -95.5,458.25 -97.45,454.275 -99.625,449.7 -100.525,445.35 -100.525,445.275 -100.525,445.2 -101.275,441.825 -101.05,439.2 -100.975,437.625 -100.525,436.35 -98.05,428.775 -90.85,424.05 -86.875,421.425 -76.45,417.3" test="LeftBum"/>
      <path id="Layer1_0_2_STROKES" stroke="#0FF" stroke-width="3" stroke-linejoin="round" stroke-linecap="round" fill="none" d="M-74.95,150 L-69.175,153.6 Q-62.125,158.175 -55.975,163.65 -36.175,181.05 -32.275,199.8 -29.05,214.8 -21.625,248.325 -16.225,278.775 -18.4,303.3 -21.475,336.825 -23.2,346.275 -25.9,361.2 -32.275,369.75 L-43.9,385.8 M-115.9,355.125 L-118.45,392.25 -100.9,397.275 M-193.9,196.275 Q-182.2,193.2 -153.925,183.15 -128.875,174.3 -113.95,171.075 -106.225,169.425 -99.85,166.2 -94.9,163.65 -87.25,158.325 -81.1,154.05 -74.95,150" test="LeftBum"/>
    </g>
  </g>
</svg>