<?xml version="1.0" encoding="utf-8"?>
<svg id="EdithAnim08" image-rendering="inherit" baseProfile="basic" version="1.1" x="0px" y="0px" width="800" height="600" xmlns="http://www.w3.org/2000/svg" xmlns:xlink="http://www.w3.org/1999/xlink">
  <g id="No-Rear-To-Rearf68r1" overflow="visible">
    <g id="RightBum">
      <path id="Layer2_0_1_STROKES" stroke="#F0F" stroke-width="3" stroke-linejoin="round" stroke-linecap="round" fill="none" d="M902.725,168.075 L910.975,200.475 Q918.85,236.1 916.975,252.525 914.8,271.5 910.675,292.875 906.85,312.825 902.725,327.525 900.1,336.9 897.4,346.875 896.875,348.225 896.425,348.825 L920.95,342.75 M964.225,193.275 L882.85,156.975 M964.225,327.525 L992.725,323.775 M889.45,333.75 L890.2,336.825 Q891.85,342.825 893.725,347.1 895.15,350.325 896.425,348.825" test="RightBum"/>
      <path id="Layer2_0_2_STROKES" stroke="#F90" stroke-width="3" stroke-linejoin="round" stroke-linecap="round" fill="none" d="M920.95,342.75 L923.275,329.25 Q924.175,324 924.925,310.95 925.675,296.475 926.65,289.35 930.025,262.875 942.775,253.275 949.9,247.875 956.875,245.4 962.425,243.375 967.9,243.225 972.775,243.15 978.775,245.25 M882.85,156.975 Q798.025,119.025 778.225,111.225 765.775,106.35 755.125,103.95 743.95,101.475 734.875,101.775 715.825,102.45 701.275,115.275 685.6,128.925 678.025,146.925 670,166.125 673.9,184.275 677.2,199.875 688.825,209.625 694.675,214.5 699.925,216.525 716.875,205.875 733.75,205.275 M920.95,342.75 L913.3,387.225 Q913.825,388.05 913.225,387.6 L911.275,398.775 Q906.625,400.125 901.3,402.975 890.5,408.675 886.75,416.025 883.375,422.625 882.925,428.625 882.625,432.45 883.525,436.05 886.3,447.525 901.225,450.225 915.1,452.775 924.925,446.025 930.175,442.35 935.725,435.75 940.15,431.025 942.55,429.45 943.375,428.925 944.275,428.625 946.45,427.95 949,428.625 950.8,429.075 952.75,430.275 959.2,434.025 960.775,433.425 961.075,433.35 964.225,428.775 966.625,425.4 963.25,420.225 960.775,416.4 956.875,413.7 956.575,413.475 956.275,413.25 951.625,411.375 949.75,410.025 946.525,407.625 946.225,400.725 945.925,393.9 955.075,353.625 L964.225,314.775 967.525,314.925 Q972.775,315.075 982.75,314.775 M898,336.825 L891.175,333 Q890.275,333.375 889.45,333.75 884.65,335.775 882.25,336.825 887.05,351.375 903.475,374.025 907.225,379.2 912.25,385.8 912.925,386.7 913.3,387.225 L913.225,387.6 Q912.85,387.375 912.25,386.775 M882.25,336.825 Q876.175,339.6 873.4,342 869.95,344.925 869.275,348.9 867.925,356.4 876.25,368.325 886.6,383.1 908.725,398.775 M889.45,333.75 L888.925,331.725 891.175,333 Q892.6,332.4 894.25,331.725 M699.925,216.525 Q695.8,219.075 691.675,222.225 677.875,232.95 671.35,242.25 667.375,247.95 666.1,253.125 662.575,266.775 663.1,278.775 663.625,290.775 666.925,305.55 668.875,310.275 671.35,315.075 672.1,316.575 672.925,318.075 683.875,338.4 699.175,352.725 715.525,368.025 737.125,373.575 747.025,376.05 755.125,376.2 760.6,376.275 765.25,375.225 764.65,375.9 803.125,405.375 818.35,417.075 833.65,428.625 837.7,431.7 841.75,434.775 L832.75,448.275 M807.25,410.25 L796.75,421.725" test="RightBum"/>
    </g>
    <g id="LeftBum">
      <path id="Layer1_0_1_STROKES" stroke="#FEB7AE" stroke-width="3" stroke-linejoin="round" stroke-linecap="round" fill="none" d="M-73,150 Q-51.475,136.05 -28.975,125.025 -6.625,114.15 14.45,107.175 41.675,98.175 59.9,98.25 82.85,98.325 99.425,103.95 118.925,110.625 134,126.3 141.2,133.725 143,149.85 144.35,161.625 142.7,175.8 141.425,186.525 134.3,195.675 130.1,201 120.425,211.95 121.925,213.45 123.275,214.875 129.875,221.925 135.05,231.3 138.575,237.675 140.45,245.775 142.1,252.9 142.55,261.375 143.225,274.575 140.9,287.7 140.375,290.475 139.7,293.25 130.7,332.775 108.05,356.25 90.65,374.25 67.925,385.5 67.625,385.65 50.3,393.6 40.25,398.25 34.025,402.3 24.725,408.3 17.525,413.925 11,419.025 3.05,426.3 -3.775,432.45 -6.175,439.5 -9.1,447.975 -4,454.05 -2.425,456 2.975,458.775 8.375,461.55 8,460.275 M37.55,199.8 Q52.025,188.925 73.25,189.6 93.95,190.275 108.05,201.3 115.4,207.075 120.425,211.95 M-184.45,243.3 Q-178.975,243.15 -171.1,244.275 -166.6,244.95 -157.75,246.375 -151.375,247.2 -142.45,248.025 -137.35,248.475 -127.15,249.3 -120.55,249.825 -112.15,251.925 -110.5,252.3 -107.275,252.525 -105.1,252.6 -103.9,253.425 -101.05,255.375 -94.45,269.25 -87.55,283.8 -83.95,294.6 -80.875,303.9 -76.825,321.075 -75.025,328.65 -70.9,339.075 -65.65,352.35 -64.225,356.775 -63.775,358.125 -61.75,366.975 -59.65,375.525 -58.45,376.8 -56.425,379.05 -56.8,380.025 -56.8,380.175 -53.8,380.775 -48.925,381.75 -42.85,387.075 -36.775,392.25 -33.25,398.55 -29.275,405.375 -30.55,409.95 -32.05,415.275 -40.45,416.025 -44.575,418.125 -51.625,416.55 -59.5,414.225 -63.025,413.775 -70.3,412.8 -79.75,414.675 -85.825,415.65 -88.675,416.25 -93.4,417.3 -97.15,419.4 -99.925,421.05 -103.525,423.825 -105.55,425.4 -109.525,428.625 -111.625,425.55 -109.075,418.875 -105.625,411.675 -104.575,409.35 -103.75,407.475 -100.975,404.85 -98.275,402.15 -97.6,400.65 -96.325,397.95 -98.05,390.075 -98.725,386.925 -100.9,379.35 -102.475,373.5 -106.375,366.75 -108.7,362.775 -113.95,355.125 M-98.95,397.275 Q-99.475,397.65 -107.425,401.1 -113.725,403.8 -115.525,406.575 -118.525,411.375 -119.05,415.65 -119.875,422.775 -116.5,436.275 -116.125,437.775 -115.675,439.2 -114.7,442.275 -113.35,445.2 -111.775,448.725 -109.6,452.025 -108.25,454.125 -98.95,465.75 M-113.95,355.125 Q-115.225,353.175 -119.875,347.325 -123.55,342.525 -125.5,339.225 -126.85,336.45 -127.675,334.95 -129.1,332.1 -130.45,331.275 -132.025,330.3 -135.85,330.225 -140.05,330.375 -141.475,330.3 -145.975,330.075 -152.725,330.525 -163.3,331.275 -163.975,331.275 -181.6,332.1 -193,330.375 -195.925,330 -203.2,327.225 -209.575,324.75 -213.475,324.75 M-83.5,465.3 Q-86.95,465 -90.55,461.325 -93.55,458.25 -95.5,454.275 -97.675,449.7 -98.575,445.35 -98.575,445.275 -98.575,445.2 -99.325,441.825 -99.1,439.2 -99.025,437.625 -98.575,436.35 -96.1,428.775 -88.9,424.05 -84.925,421.425 -74.5,417.3" test="LeftBum"/>
      <path id="Layer1_0_2_STROKES" stroke="#0FF" stroke-width="3" stroke-linejoin="round" stroke-linecap="round" fill="none" d="M-73,150 L-67.225,153.6 Q-60.175,158.175 -54.025,163.65 -34.225,181.05 -30.325,199.8 -27.1,214.8 -19.675,248.325 -14.275,278.775 -16.45,303.3 -19.525,336.825 -21.25,346.275 -23.95,361.2 -30.325,369.75 L-41.95,385.8 M-113.95,355.125 L-116.5,392.25 -98.95,397.275 M-191.95,196.275 Q-180.25,193.2 -151.975,183.15 -126.925,174.3 -112,171.075 -104.275,169.425 -97.9,166.2 -92.95,163.65 -85.3,158.325 -79.15,154.05 -73,150" test="LeftBum"/>
    </g>
  </g>
</svg>