<?xml version="1.0" encoding="utf-8"?>
<svg id="EdithAnim08" image-rendering="inherit" baseProfile="basic" version="1.1" x="0px" y="0px" width="800" height="600" xmlns="http://www.w3.org/2000/svg" xmlns:xlink="http://www.w3.org/1999/xlink">
  <g id="No-Rear-To-Rearf7r1" overflow="visible">
    <g id="RightBum">
      <path id="Layer2_0_1_STROKES" stroke="#F0F" stroke-width="3" stroke-linejoin="round" stroke-linecap="round" fill="none" d="M1033.025,168.075 L1041.275,200.475 Q1049.15,236.1 1047.275,252.525 1045.1,271.5 1040.975,292.875 1037.15,312.825 1033.025,327.525 1030.4,336.9 1027.7,346.875 1027.175,348.225 1026.725,348.825 L1051.25,342.75 M1094.525,193.275 L1013.15,156.975 M1094.525,327.525 L1123.025,323.775 M1019.75,333.75 L1020.5,336.825 Q1022.15,342.825 1024.025,347.1 1025.45,350.325 1026.725,348.825" test="RightBum"/>
      <path id="Layer2_0_2_STROKES" stroke="#F90" stroke-width="3" stroke-linejoin="round" stroke-linecap="round" fill="none" d="M1051.25,342.75 L1053.575,329.25 Q1054.475,324 1055.225,310.95 1055.975,296.475 1056.95,289.35 1060.325,262.875 1073.075,253.275 1080.2,247.875 1087.175,245.4 1092.725,243.375 1098.2,243.225 1103.075,243.15 1109.075,245.25 M1013.15,156.975 Q928.325,119.025 908.525,111.225 896.075,106.35 885.425,103.95 874.25,101.475 865.175,101.775 846.125,102.45 831.575,115.275 815.9,128.925 808.325,146.925 800.3,166.125 804.2,184.275 807.5,199.875 819.125,209.625 824.975,214.5 830.225,216.525 847.175,205.875 864.05,205.275 M1051.25,342.75 L1043.6,387.225 Q1044.125,388.05 1043.525,387.6 L1041.575,398.775 Q1036.925,400.125 1031.6,402.975 1020.8,408.675 1017.05,416.025 1013.675,422.625 1013.225,428.625 1012.925,432.45 1013.825,436.05 1016.6,447.525 1031.525,450.225 1045.4,452.775 1055.225,446.025 1060.475,442.35 1066.025,435.75 1070.45,431.025 1072.85,429.45 1073.675,428.925 1074.575,428.625 1076.75,427.95 1079.3,428.625 1081.1,429.075 1083.05,430.275 1089.5,434.025 1091.075,433.425 1091.375,433.35 1094.525,428.775 1096.925,425.4 1093.55,420.225 1091.075,416.4 1087.175,413.7 1086.875,413.475 1086.575,413.25 1081.925,411.375 1080.05,410.025 1076.825,407.625 1076.525,400.725 1076.225,393.9 1085.375,353.625 L1094.525,314.775 1097.825,314.925 Q1103.075,315.075 1113.05,314.775 M1028.3,336.825 L1021.475,333 Q1020.575,333.375 1019.75,333.75 1014.95,335.775 1012.55,336.825 1017.35,351.375 1033.775,374.025 1037.525,379.2 1042.55,385.8 1043.225,386.7 1043.6,387.225 L1043.525,387.6 Q1043.15,387.375 1042.55,386.775 M1012.55,336.825 Q1006.475,339.6 1003.7,342 1000.25,344.925 999.575,348.9 998.225,356.4 1006.55,368.325 1016.9,383.1 1039.025,398.775 M1019.75,333.75 L1019.225,331.725 1021.475,333 Q1022.9,332.4 1024.55,331.725 M830.225,216.525 Q826.1,219.075 821.975,222.225 808.175,232.95 801.65,242.25 797.675,247.95 796.4,253.125 792.875,266.775 793.4,278.775 793.925,290.775 797.225,305.55 799.175,310.275 801.65,315.075 802.4,316.575 803.225,318.075 814.175,338.4 829.475,352.725 845.825,368.025 867.425,373.575 877.325,376.05 885.425,376.2 890.9,376.275 895.55,375.225 894.95,375.9 933.425,405.375 948.65,417.075 963.95,428.625 968,431.7 972.05,434.775 L963.05,448.275 M937.55,410.25 L927.05,421.725" test="RightBum"/>
    </g>
    <g id="LeftBum">
      <path id="Layer1_0_1_STROKES" stroke="#FEB7AE" stroke-width="3" stroke-linejoin="round" stroke-linecap="round" fill="none" d="M-205.45,150 Q-183.925,136.05 -161.425,125.025 -139.075,114.15 -118,107.175 -90.775,98.175 -72.55,98.25 -49.6,98.325 -33.025,103.95 -13.525,110.625 1.55,126.3 8.75,133.725 10.55,149.85 11.9,161.625 10.25,175.8 8.975,186.525 1.85,195.675 -2.35,201 -12.025,211.95 -10.525,213.45 -9.175,214.875 -2.575,221.925 2.6,231.3 6.125,237.675 8,245.775 9.65,252.9 10.1,261.375 10.775,274.575 8.45,287.7 7.925,290.475 7.25,293.25 -1.75,332.775 -24.4,356.25 -41.8,374.25 -64.525,385.5 -64.825,385.65 -82.15,393.6 -92.2,398.25 -98.425,402.3 -107.725,408.3 -114.925,413.925 -121.45,419.025 -129.4,426.3 -136.225,432.45 -138.625,439.5 -141.55,447.975 -136.45,454.05 -134.875,456 -129.475,458.775 -124.075,461.55 -124.45,460.275 M-94.9,199.8 Q-80.425,188.925 -59.2,189.6 -38.5,190.275 -24.4,201.3 -17.05,207.075 -12.025,211.95 M-316.9,243.3 Q-311.425,243.15 -303.55,244.275 -299.05,244.95 -290.2,246.375 -283.825,247.2 -274.9,248.025 -269.8,248.475 -259.6,249.3 -253,249.825 -244.6,251.925 -242.95,252.3 -239.725,252.525 -237.55,252.6 -236.35,253.425 -233.5,255.375 -226.9,269.25 -220,283.8 -216.4,294.6 -213.325,303.9 -209.275,321.075 -207.475,328.65 -203.35,339.075 -198.1,352.35 -196.675,356.775 -196.225,358.125 -194.2,366.975 -192.1,375.525 -190.9,376.8 -188.875,379.05 -189.25,380.025 -189.25,380.175 -186.25,380.775 -181.375,381.75 -175.3,387.075 -169.225,392.25 -165.7,398.55 -161.725,405.375 -163,409.95 -164.5,415.275 -172.9,416.025 -177.025,418.125 -184.075,416.55 -191.95,414.225 -195.475,413.775 -202.75,412.8 -212.2,414.675 -218.275,415.65 -221.125,416.25 -225.85,417.3 -229.6,419.4 -232.375,421.05 -235.975,423.825 -238,425.4 -241.975,428.625 -244.075,425.55 -241.525,418.875 -238.075,411.675 -237.025,409.35 -236.2,407.475 -233.425,404.85 -230.725,402.15 -230.05,400.65 -228.775,397.95 -230.5,390.075 -231.175,386.925 -233.35,379.35 -234.925,373.5 -238.825,366.75 -241.15,362.775 -246.4,355.125 M-231.4,397.275 Q-231.925,397.65 -239.875,401.1 -246.175,403.8 -247.975,406.575 -250.975,411.375 -251.5,415.65 -252.325,422.775 -248.95,436.275 -248.575,437.775 -248.125,439.2 -247.15,442.275 -245.8,445.2 -244.225,448.725 -242.05,452.025 -240.7,454.125 -231.4,465.75 M-246.4,355.125 Q-247.675,353.175 -252.325,347.325 -256,342.525 -257.95,339.225 -259.3,336.45 -260.125,334.95 -261.55,332.1 -262.9,331.275 -264.475,330.3 -268.3,330.225 -272.5,330.375 -273.925,330.3 -278.425,330.075 -285.175,330.525 -295.75,331.275 -296.425,331.275 -314.05,332.1 -325.45,330.375 -328.375,330 -335.65,327.225 -342.025,324.75 -345.925,324.75 M-215.95,465.3 Q-219.4,465 -223,461.325 -226,458.25 -227.95,454.275 -230.125,449.7 -231.025,445.35 -231.025,445.275 -231.025,445.2 -231.775,441.825 -231.55,439.2 -231.475,437.625 -231.025,436.35 -228.55,428.775 -221.35,424.05 -217.375,421.425 -206.95,417.3" test="LeftBum"/>
      <path id="Layer1_0_2_STROKES" stroke="#0FF" stroke-width="3" stroke-linejoin="round" stroke-linecap="round" fill="none" d="M-205.45,150 L-199.675,153.6 Q-192.625,158.175 -186.475,163.65 -166.675,181.05 -162.775,199.8 -159.55,214.8 -152.125,248.325 -146.725,278.775 -148.9,303.3 -151.975,336.825 -153.7,346.275 -156.4,361.2 -162.775,369.75 L-174.4,385.8 M-246.4,355.125 L-248.95,392.25 -231.4,397.275 M-324.4,196.275 Q-312.7,193.2 -284.425,183.15 -259.375,174.3 -244.45,171.075 -236.725,169.425 -230.35,166.2 -225.4,163.65 -217.75,158.325 -211.6,154.05 -205.45,150" test="LeftBum"/>
    </g>
  </g>
</svg>