<?xml version="1.0" encoding="utf-8"?>
<svg id="EdithAnim08" image-rendering="inherit" baseProfile="basic" version="1.1" x="0px" y="0px" width="800" height="600" xmlns="http://www.w3.org/2000/svg" xmlns:xlink="http://www.w3.org/1999/xlink">
  <g id="No-Rear-To-Rearf70r1" overflow="visible">
    <g id="RightBum">
      <path id="Layer2_0_1_STROKES" stroke="#F0F" stroke-width="3" stroke-linejoin="round" stroke-linecap="round" fill="none" d="M898.875,168.075 L907.125,200.475 Q915,236.1 913.125,252.525 910.95,271.5 906.825,292.875 903,312.825 898.875,327.525 896.25,336.9 893.55,346.875 893.025,348.225 892.575,348.825 L917.1,342.75 M960.375,193.275 L879,156.975 M960.375,327.525 L988.875,323.775 M885.6,333.75 L886.35,336.825 Q888,342.825 889.875,347.1 891.3,350.325 892.575,348.825" test="RightBum"/>
      <path id="Layer2_0_2_STROKES" stroke="#F90" stroke-width="3" stroke-linejoin="round" stroke-linecap="round" fill="none" d="M917.1,342.75 L919.425,329.25 Q920.325,324 921.075,310.95 921.825,296.475 922.8,289.35 926.175,262.875 938.925,253.275 946.05,247.875 953.025,245.4 958.575,243.375 964.05,243.225 968.925,243.15 974.925,245.25 M879,156.975 Q794.175,119.025 774.375,111.225 761.925,106.35 751.275,103.95 740.1,101.475 731.025,101.775 711.975,102.45 697.425,115.275 681.75,128.925 674.175,146.925 666.15,166.125 670.05,184.275 673.35,199.875 684.975,209.625 690.825,214.5 696.075,216.525 713.025,205.875 729.9,205.275 M917.1,342.75 L909.45,387.225 Q909.975,388.05 909.375,387.6 L907.425,398.775 Q902.775,400.125 897.45,402.975 886.65,408.675 882.9,416.025 879.525,422.625 879.075,428.625 878.775,432.45 879.675,436.05 882.45,447.525 897.375,450.225 911.25,452.775 921.075,446.025 926.325,442.35 931.875,435.75 936.3,431.025 938.7,429.45 939.525,428.925 940.425,428.625 942.6,427.95 945.15,428.625 946.95,429.075 948.9,430.275 955.35,434.025 956.925,433.425 957.225,433.35 960.375,428.775 962.775,425.4 959.4,420.225 956.925,416.4 953.025,413.7 952.725,413.475 952.425,413.25 947.775,411.375 945.9,410.025 942.675,407.625 942.375,400.725 942.075,393.9 951.225,353.625 L960.375,314.775 963.675,314.925 Q968.925,315.075 978.9,314.775 M894.15,336.825 L887.325,333 Q886.425,333.375 885.6,333.75 880.8,335.775 878.4,336.825 883.2,351.375 899.625,374.025 903.375,379.2 908.4,385.8 909.075,386.7 909.45,387.225 L909.375,387.6 Q909,387.375 908.4,386.775 M878.4,336.825 Q872.325,339.6 869.55,342 866.1,344.925 865.425,348.9 864.075,356.4 872.4,368.325 882.75,383.1 904.875,398.775 M885.6,333.75 L885.075,331.725 887.325,333 Q888.75,332.4 890.4,331.725 M696.075,216.525 Q691.95,219.075 687.825,222.225 674.025,232.95 667.5,242.25 663.525,247.95 662.25,253.125 658.725,266.775 659.25,278.775 659.775,290.775 663.075,305.55 665.025,310.275 667.5,315.075 668.25,316.575 669.075,318.075 680.025,338.4 695.325,352.725 711.675,368.025 733.275,373.575 743.175,376.05 751.275,376.2 756.75,376.275 761.4,375.225 760.8,375.9 799.275,405.375 814.5,417.075 829.8,428.625 833.85,431.7 837.9,434.775 L828.9,448.275 M803.4,410.25 L792.9,421.725" test="RightBum"/>
    </g>
    <g id="LeftBum">
      <path id="Layer1_0_1_STROKES" stroke="#FEB7AE" stroke-width="3" stroke-linejoin="round" stroke-linecap="round" fill="none" d="M-69.1,150 Q-47.575,136.05 -25.075,125.025 -2.725,114.15 18.35,107.175 45.575,98.175 63.8,98.25 86.75,98.325 103.325,103.95 122.825,110.625 137.9,126.3 145.1,133.725 146.9,149.85 148.25,161.625 146.6,175.8 145.325,186.525 138.2,195.675 134,201 124.325,211.95 125.825,213.45 127.175,214.875 133.775,221.925 138.95,231.3 142.475,237.675 144.35,245.775 146,252.9 146.45,261.375 147.125,274.575 144.8,287.7 144.275,290.475 143.6,293.25 134.6,332.775 111.95,356.25 94.55,374.25 71.825,385.5 71.525,385.65 54.2,393.6 44.15,398.25 37.925,402.3 28.625,408.3 21.425,413.925 14.9,419.025 6.95,426.3 .125,432.45 -2.275,439.5 -5.2,447.975 -.1,454.05 1.475,456 6.875,458.775 12.275,461.55 11.9,460.275 M41.45,199.8 Q55.925,188.925 77.15,189.6 97.85,190.275 111.95,201.3 119.3,207.075 124.325,211.95 M-180.55,243.3 Q-175.075,243.15 -167.2,244.275 -162.7,244.95 -153.85,246.375 -147.475,247.2 -138.55,248.025 -133.45,248.475 -123.25,249.3 -116.65,249.825 -108.25,251.925 -106.6,252.3 -103.375,252.525 -101.2,252.6 -100,253.425 -97.15,255.375 -90.55,269.25 -83.65,283.8 -80.05,294.6 -76.975,303.9 -72.925,321.075 -71.125,328.65 -67,339.075 -61.75,352.35 -60.325,356.775 -59.875,358.125 -57.85,366.975 -55.75,375.525 -54.55,376.8 -52.525,379.05 -52.9,380.025 -52.9,380.175 -49.9,380.775 -45.025,381.75 -38.95,387.075 -32.875,392.25 -29.35,398.55 -25.375,405.375 -26.65,409.95 -28.15,415.275 -36.55,416.025 -40.675,418.125 -47.725,416.55 -55.6,414.225 -59.125,413.775 -66.4,412.8 -75.85,414.675 -81.925,415.65 -84.775,416.25 -89.5,417.3 -93.25,419.4 -96.025,421.05 -99.625,423.825 -101.65,425.4 -105.625,428.625 -107.725,425.55 -105.175,418.875 -101.725,411.675 -100.675,409.35 -99.85,407.475 -97.075,404.85 -94.375,402.15 -93.7,400.65 -92.425,397.95 -94.15,390.075 -94.825,386.925 -97,379.35 -98.575,373.5 -102.475,366.75 -104.8,362.775 -110.05,355.125 M-95.05,397.275 Q-95.575,397.65 -103.525,401.1 -109.825,403.8 -111.625,406.575 -114.625,411.375 -115.15,415.65 -115.975,422.775 -112.6,436.275 -112.225,437.775 -111.775,439.2 -110.8,442.275 -109.45,445.2 -107.875,448.725 -105.7,452.025 -104.35,454.125 -95.05,465.75 M-110.05,355.125 Q-111.325,353.175 -115.975,347.325 -119.65,342.525 -121.6,339.225 -122.95,336.45 -123.775,334.95 -125.2,332.1 -126.55,331.275 -128.125,330.3 -131.95,330.225 -136.15,330.375 -137.575,330.3 -142.075,330.075 -148.825,330.525 -159.4,331.275 -160.075,331.275 -177.7,332.1 -189.1,330.375 -192.025,330 -199.3,327.225 -205.675,324.75 -209.575,324.75 M-79.6,465.3 Q-83.05,465 -86.65,461.325 -89.65,458.25 -91.6,454.275 -93.775,449.7 -94.675,445.35 -94.675,445.275 -94.675,445.2 -95.425,441.825 -95.2,439.2 -95.125,437.625 -94.675,436.35 -92.2,428.775 -85,424.05 -81.025,421.425 -70.6,417.3" test="LeftBum"/>
      <path id="Layer1_0_2_STROKES" stroke="#0FF" stroke-width="3" stroke-linejoin="round" stroke-linecap="round" fill="none" d="M-69.1,150 L-63.325,153.6 Q-56.275,158.175 -50.125,163.65 -30.325,181.05 -26.425,199.8 -23.2,214.8 -15.775,248.325 -10.375,278.775 -12.55,303.3 -15.625,336.825 -17.35,346.275 -20.05,361.2 -26.425,369.75 L-38.05,385.8 M-110.05,355.125 L-112.6,392.25 -95.05,397.275 M-188.05,196.275 Q-176.35,193.2 -148.075,183.15 -123.025,174.3 -108.1,171.075 -100.375,169.425 -94,166.2 -89.05,163.65 -81.4,158.325 -75.25,154.05 -69.1,150" test="LeftBum"/>
    </g>
  </g>
</svg>