<?xml version="1.0" encoding="utf-8"?>
<svg id="EdithAnim08" image-rendering="inherit" baseProfile="basic" version="1.1" x="0px" y="0px" width="800" height="600" xmlns="http://www.w3.org/2000/svg" xmlns:xlink="http://www.w3.org/1999/xlink">
  <g id="No-Rear-To-Rearf72r1" overflow="visible">
    <g id="RightBum">
      <path id="Layer2_0_1_STROKES" stroke="#F0F" stroke-width="3" stroke-linejoin="round" stroke-linecap="round" fill="none" d="M895.075,168.075 L903.325,200.475 Q911.2,236.1 909.325,252.525 907.15,271.5 903.025,292.875 899.2,312.825 895.075,327.525 892.45,336.9 889.75,346.875 889.225,348.225 888.775,348.825 L913.3,342.75 M956.575,193.275 L875.2,156.975 M956.575,327.525 L985.075,323.775 M881.8,333.75 L882.55,336.825 Q884.2,342.825 886.075,347.1 887.5,350.325 888.775,348.825" test="RightBum"/>
      <path id="Layer2_0_2_STROKES" stroke="#F90" stroke-width="3" stroke-linejoin="round" stroke-linecap="round" fill="none" d="M913.3,342.75 L915.625,329.25 Q916.525,324 917.275,310.95 918.025,296.475 919,289.35 922.375,262.875 935.125,253.275 942.25,247.875 949.225,245.4 954.775,243.375 960.25,243.225 965.125,243.15 971.125,245.25 M875.2,156.975 Q790.375,119.025 770.575,111.225 758.125,106.35 747.475,103.95 736.3,101.475 727.225,101.775 708.175,102.45 693.625,115.275 677.95,128.925 670.375,146.925 662.35,166.125 666.25,184.275 669.55,199.875 681.175,209.625 687.025,214.5 692.275,216.525 709.225,205.875 726.1,205.275 M913.3,342.75 L905.65,387.225 Q906.175,388.05 905.575,387.6 L903.625,398.775 Q898.975,400.125 893.65,402.975 882.85,408.675 879.1,416.025 875.725,422.625 875.275,428.625 874.975,432.45 875.875,436.05 878.65,447.525 893.575,450.225 907.45,452.775 917.275,446.025 922.525,442.35 928.075,435.75 932.5,431.025 934.9,429.45 935.725,428.925 936.625,428.625 938.8,427.95 941.35,428.625 943.15,429.075 945.1,430.275 951.55,434.025 953.125,433.425 953.425,433.35 956.575,428.775 958.975,425.4 955.6,420.225 953.125,416.4 949.225,413.7 948.925,413.475 948.625,413.25 943.975,411.375 942.1,410.025 938.875,407.625 938.575,400.725 938.275,393.9 947.425,353.625 L956.575,314.775 959.875,314.925 Q965.125,315.075 975.1,314.775 M890.35,336.825 L883.525,333 Q882.625,333.375 881.8,333.75 877,335.775 874.6,336.825 879.4,351.375 895.825,374.025 899.575,379.2 904.6,385.8 905.275,386.7 905.65,387.225 L905.575,387.6 Q905.2,387.375 904.6,386.775 M874.6,336.825 Q868.525,339.6 865.75,342 862.3,344.925 861.625,348.9 860.275,356.4 868.6,368.325 878.95,383.1 901.075,398.775 M881.8,333.75 L881.275,331.725 883.525,333 Q884.95,332.4 886.6,331.725 M692.275,216.525 Q688.15,219.075 684.025,222.225 670.225,232.95 663.7,242.25 659.725,247.95 658.45,253.125 654.925,266.775 655.45,278.775 655.975,290.775 659.275,305.55 661.225,310.275 663.7,315.075 664.45,316.575 665.275,318.075 676.225,338.4 691.525,352.725 707.875,368.025 729.475,373.575 739.375,376.05 747.475,376.2 752.95,376.275 757.6,375.225 757,375.9 795.475,405.375 810.7,417.075 826,428.625 830.05,431.7 834.1,434.775 L825.1,448.275 M799.6,410.25 L789.1,421.725" test="RightBum"/>
    </g>
    <g id="LeftBum">
      <path id="Layer1_0_1_STROKES" stroke="#FEB7AE" stroke-width="3" stroke-linejoin="round" stroke-linecap="round" fill="none" d="M-65.25,150 Q-43.725,136.05 -21.225,125.025 1.125,114.15 22.2,107.175 49.425,98.175 67.65,98.25 90.6,98.325 107.175,103.95 126.675,110.625 141.75,126.3 148.95,133.725 150.75,149.85 152.1,161.625 150.45,175.8 149.175,186.525 142.05,195.675 137.85,201 128.175,211.95 129.675,213.45 131.025,214.875 137.625,221.925 142.8,231.3 146.325,237.675 148.2,245.775 149.85,252.9 150.3,261.375 150.975,274.575 148.65,287.7 148.125,290.475 147.45,293.25 138.45,332.775 115.8,356.25 98.4,374.25 75.675,385.5 75.375,385.65 58.05,393.6 48,398.25 41.775,402.3 32.475,408.3 25.275,413.925 18.75,419.025 10.8,426.3 3.975,432.45 1.575,439.5 -1.35,447.975 3.75,454.05 5.325,456 10.725,458.775 16.125,461.55 15.75,460.275 M45.3,199.8 Q59.775,188.925 81,189.6 101.7,190.275 115.8,201.3 123.15,207.075 128.175,211.95 M-176.7,243.3 Q-171.225,243.15 -163.35,244.275 -158.85,244.95 -150,246.375 -143.625,247.2 -134.7,248.025 -129.6,248.475 -119.4,249.3 -112.8,249.825 -104.4,251.925 -102.75,252.3 -99.525,252.525 -97.35,252.6 -96.15,253.425 -93.3,255.375 -86.7,269.25 -79.8,283.8 -76.2,294.6 -73.125,303.9 -69.075,321.075 -67.275,328.65 -63.15,339.075 -57.9,352.35 -56.475,356.775 -56.025,358.125 -54,366.975 -51.9,375.525 -50.7,376.8 -48.675,379.05 -49.05,380.025 -49.05,380.175 -46.05,380.775 -41.175,381.75 -35.1,387.075 -29.025,392.25 -25.5,398.55 -21.525,405.375 -22.8,409.95 -24.3,415.275 -32.7,416.025 -36.825,418.125 -43.875,416.55 -51.75,414.225 -55.275,413.775 -62.55,412.8 -72,414.675 -78.075,415.65 -80.925,416.25 -85.65,417.3 -89.4,419.4 -92.175,421.05 -95.775,423.825 -97.8,425.4 -101.775,428.625 -103.875,425.55 -101.325,418.875 -97.875,411.675 -96.825,409.35 -96,407.475 -93.225,404.85 -90.525,402.15 -89.85,400.65 -88.575,397.95 -90.3,390.075 -90.975,386.925 -93.15,379.35 -94.725,373.5 -98.625,366.75 -100.95,362.775 -106.2,355.125 M-91.2,397.275 Q-91.725,397.65 -99.675,401.1 -105.975,403.8 -107.775,406.575 -110.775,411.375 -111.3,415.65 -112.125,422.775 -108.75,436.275 -108.375,437.775 -107.925,439.2 -106.95,442.275 -105.6,445.2 -104.025,448.725 -101.85,452.025 -100.5,454.125 -91.2,465.75 M-106.2,355.125 Q-107.475,353.175 -112.125,347.325 -115.8,342.525 -117.75,339.225 -119.1,336.45 -119.925,334.95 -121.35,332.1 -122.7,331.275 -124.275,330.3 -128.1,330.225 -132.3,330.375 -133.725,330.3 -138.225,330.075 -144.975,330.525 -155.55,331.275 -156.225,331.275 -173.85,332.1 -185.25,330.375 -188.175,330 -195.45,327.225 -201.825,324.75 -205.725,324.75 M-75.75,465.3 Q-79.2,465 -82.8,461.325 -85.8,458.25 -87.75,454.275 -89.925,449.7 -90.825,445.35 -90.825,445.275 -90.825,445.2 -91.575,441.825 -91.35,439.2 -91.275,437.625 -90.825,436.35 -88.35,428.775 -81.15,424.05 -77.175,421.425 -66.75,417.3" test="LeftBum"/>
      <path id="Layer1_0_2_STROKES" stroke="#0FF" stroke-width="3" stroke-linejoin="round" stroke-linecap="round" fill="none" d="M-65.25,150 L-59.475,153.6 Q-52.425,158.175 -46.275,163.65 -26.475,181.05 -22.575,199.8 -19.35,214.8 -11.925,248.325 -6.525,278.775 -8.7,303.3 -11.775,336.825 -13.5,346.275 -16.2,361.2 -22.575,369.75 L-34.2,385.8 M-106.2,355.125 L-108.75,392.25 -91.2,397.275 M-184.2,196.275 Q-172.5,193.2 -144.225,183.15 -119.175,174.3 -104.25,171.075 -96.525,169.425 -90.15,166.2 -85.2,163.65 -77.55,158.325 -71.4,154.05 -65.25,150" test="LeftBum"/>
    </g>
  </g>
</svg>