<?xml version="1.0" encoding="utf-8"?>
<svg id="EdithAnim08" image-rendering="inherit" baseProfile="basic" version="1.1" x="0px" y="0px" width="800" height="600" xmlns="http://www.w3.org/2000/svg" xmlns:xlink="http://www.w3.org/1999/xlink">
  <g id="No-Rear-To-Rearf81r1" overflow="visible">
    <g id="RightBum">
      <path id="Layer2_0_1_STROKES" stroke="#F0F" stroke-width="3" stroke-linejoin="round" stroke-linecap="round" fill="none" d="M878.325,168.075 L886.575,200.475 Q894.45,236.1 892.575,252.525 890.4,271.5 886.275,292.875 882.45,312.825 878.325,327.525 875.7,336.9 873,346.875 872.475,348.225 872.025,348.825 L896.55,342.75 M939.825,193.275 L858.45,156.975 M939.825,327.525 L968.325,323.775 M865.05,333.75 L865.8,336.825 Q867.45,342.825 869.325,347.1 870.75,350.325 872.025,348.825" test="RightBum"/>
      <path id="Layer2_0_2_STROKES" stroke="#F90" stroke-width="3" stroke-linejoin="round" stroke-linecap="round" fill="none" d="M896.55,342.75 L898.875,329.25 Q899.775,324 900.525,310.95 901.275,296.475 902.25,289.35 905.625,262.875 918.375,253.275 925.5,247.875 932.475,245.4 938.025,243.375 943.5,243.225 948.375,243.15 954.375,245.25 M858.45,156.975 Q773.625,119.025 753.825,111.225 741.375,106.35 730.725,103.95 719.55,101.475 710.475,101.775 691.425,102.45 676.875,115.275 661.2,128.925 653.625,146.925 645.6,166.125 649.5,184.275 652.8,199.875 664.425,209.625 670.275,214.5 675.525,216.525 692.475,205.875 709.35,205.275 M896.55,342.75 L888.9,387.225 Q889.425,388.05 888.825,387.6 L886.875,398.775 Q882.225,400.125 876.9,402.975 866.1,408.675 862.35,416.025 858.975,422.625 858.525,428.625 858.225,432.45 859.125,436.05 861.9,447.525 876.825,450.225 890.7,452.775 900.525,446.025 905.775,442.35 911.325,435.75 915.75,431.025 918.15,429.45 918.975,428.925 919.875,428.625 922.05,427.95 924.6,428.625 926.4,429.075 928.35,430.275 934.8,434.025 936.375,433.425 936.675,433.35 939.825,428.775 942.225,425.4 938.85,420.225 936.375,416.4 932.475,413.7 932.175,413.475 931.875,413.25 927.225,411.375 925.35,410.025 922.125,407.625 921.825,400.725 921.525,393.9 930.675,353.625 L939.825,314.775 943.125,314.925 Q948.375,315.075 958.35,314.775 M873.6,336.825 L866.775,333 Q865.875,333.375 865.05,333.75 860.25,335.775 857.85,336.825 862.65,351.375 879.075,374.025 882.825,379.2 887.85,385.8 888.525,386.7 888.9,387.225 L888.825,387.6 Q888.45,387.375 887.85,386.775 M857.85,336.825 Q851.775,339.6 849,342 845.55,344.925 844.875,348.9 843.525,356.4 851.85,368.325 862.2,383.1 884.325,398.775 M865.05,333.75 L864.525,331.725 866.775,333 Q868.2,332.4 869.85,331.725 M675.525,216.525 Q671.4,219.075 667.275,222.225 653.475,232.95 646.95,242.25 642.975,247.95 641.7,253.125 638.175,266.775 638.7,278.775 639.225,290.775 642.525,305.55 644.475,310.275 646.95,315.075 647.7,316.575 648.525,318.075 659.475,338.4 674.775,352.725 691.125,368.025 712.725,373.575 722.625,376.05 730.725,376.2 736.2,376.275 740.85,375.225 740.25,375.9 778.725,405.375 793.95,417.075 809.25,428.625 813.3,431.7 817.35,434.775 L808.35,448.275 M782.85,410.25 L772.35,421.725" test="RightBum"/>
    </g>
    <g id="LeftBum">
      <path id="Layer1_0_1_STROKES" stroke="#FEB7AE" stroke-width="3" stroke-linejoin="round" stroke-linecap="round" fill="none" d="M-48.2,150 Q-26.675,136.05 -4.175,125.025 18.175,114.15 39.25,107.175 66.475,98.175 84.7,98.25 107.65,98.325 124.225,103.95 143.725,110.625 158.8,126.3 166,133.725 167.8,149.85 169.15,161.625 167.5,175.8 166.225,186.525 159.1,195.675 154.9,201 145.225,211.95 146.725,213.45 148.075,214.875 154.675,221.925 159.85,231.3 163.375,237.675 165.25,245.775 166.9,252.9 167.35,261.375 168.025,274.575 165.7,287.7 165.175,290.475 164.5,293.25 155.5,332.775 132.85,356.25 115.45,374.25 92.725,385.5 92.425,385.65 75.1,393.6 65.05,398.25 58.825,402.3 49.525,408.3 42.325,413.925 35.8,419.025 27.85,426.3 21.025,432.45 18.625,439.5 15.7,447.975 20.8,454.05 22.375,456 27.775,458.775 33.175,461.55 32.8,460.275 M62.35,199.8 Q76.825,188.925 98.05,189.6 118.75,190.275 132.85,201.3 140.2,207.075 145.225,211.95 M-159.65,243.3 Q-154.175,243.15 -146.3,244.275 -141.8,244.95 -132.95,246.375 -126.575,247.2 -117.65,248.025 -112.55,248.475 -102.35,249.3 -95.75,249.825 -87.35,251.925 -85.7,252.3 -82.475,252.525 -80.3,252.6 -79.1,253.425 -76.25,255.375 -69.65,269.25 -62.75,283.8 -59.15,294.6 -56.075,303.9 -52.025,321.075 -50.225,328.65 -46.1,339.075 -40.85,352.35 -39.425,356.775 -38.975,358.125 -36.95,366.975 -34.85,375.525 -33.65,376.8 -31.625,379.05 -32,380.025 -32,380.175 -29,380.775 -24.125,381.75 -18.05,387.075 -11.975,392.25 -8.45,398.55 -4.475,405.375 -5.75,409.95 -7.25,415.275 -15.65,416.025 -19.775,418.125 -26.825,416.55 -34.7,414.225 -38.225,413.775 -45.5,412.8 -54.95,414.675 -61.025,415.65 -63.875,416.25 -68.6,417.3 -72.35,419.4 -75.125,421.05 -78.725,423.825 -80.75,425.4 -84.725,428.625 -86.825,425.55 -84.275,418.875 -80.825,411.675 -79.775,409.35 -78.95,407.475 -76.175,404.85 -73.475,402.15 -72.8,400.65 -71.525,397.95 -73.25,390.075 -73.925,386.925 -76.1,379.35 -77.675,373.5 -81.575,366.75 -83.9,362.775 -89.15,355.125 M-74.15,397.275 Q-74.675,397.65 -82.625,401.1 -88.925,403.8 -90.725,406.575 -93.725,411.375 -94.25,415.65 -95.075,422.775 -91.7,436.275 -91.325,437.775 -90.875,439.2 -89.9,442.275 -88.55,445.2 -86.975,448.725 -84.8,452.025 -83.45,454.125 -74.15,465.75 M-89.15,355.125 Q-90.425,353.175 -95.075,347.325 -98.75,342.525 -100.7,339.225 -102.05,336.45 -102.875,334.95 -104.3,332.1 -105.65,331.275 -107.225,330.3 -111.05,330.225 -115.25,330.375 -116.675,330.3 -121.175,330.075 -127.925,330.525 -138.5,331.275 -139.175,331.275 -156.8,332.1 -168.2,330.375 -171.125,330 -178.4,327.225 -184.775,324.75 -188.675,324.75 M-58.7,465.3 Q-62.15,465 -65.75,461.325 -68.75,458.25 -70.7,454.275 -72.875,449.7 -73.775,445.35 -73.775,445.275 -73.775,445.2 -74.525,441.825 -74.3,439.2 -74.225,437.625 -73.775,436.35 -71.3,428.775 -64.1,424.05 -60.125,421.425 -49.7,417.3" test="LeftBum"/>
      <path id="Layer1_0_2_STROKES" stroke="#0FF" stroke-width="3" stroke-linejoin="round" stroke-linecap="round" fill="none" d="M-48.2,150 L-42.425,153.6 Q-35.375,158.175 -29.225,163.65 -9.425,181.05 -5.525,199.8 -2.3,214.8 5.125,248.325 10.525,278.775 8.35,303.3 5.275,336.825 3.55,346.275 .85,361.2 -5.525,369.75 L-17.15,385.8 M-89.15,355.125 L-91.7,392.25 -74.15,397.275 M-167.15,196.275 Q-155.45,193.2 -127.175,183.15 -102.125,174.3 -87.2,171.075 -79.475,169.425 -73.1,166.2 -68.15,163.65 -60.5,158.325 -54.35,154.05 -48.2,150" test="LeftBum"/>
    </g>
  </g>
</svg>