<?xml version="1.0" encoding="utf-8"?>
<svg id="EdithAnim08" image-rendering="inherit" baseProfile="basic" version="1.1" x="0px" y="0px" width="800" height="600" xmlns="http://www.w3.org/2000/svg" xmlns:xlink="http://www.w3.org/1999/xlink">
  <g id="No-Rear-To-Rearf83r1" overflow="visible">
    <g id="RightBum">
      <path id="Layer2_0_1_STROKES" stroke="#F0F" stroke-width="3" stroke-linejoin="round" stroke-linecap="round" fill="none" d="M874.675,168.075 L882.925,200.475 Q890.8,236.1 888.925,252.525 886.75,271.5 882.625,292.875 878.8,312.825 874.675,327.525 872.05,336.9 869.35,346.875 868.825,348.225 868.375,348.825 L892.9,342.75 M936.175,193.275 L854.8,156.975 M936.175,327.525 L964.675,323.775 M861.4,333.75 L862.15,336.825 Q863.8,342.825 865.675,347.1 867.1,350.325 868.375,348.825" test="RightBum"/>
      <path id="Layer2_0_2_STROKES" stroke="#F90" stroke-width="3" stroke-linejoin="round" stroke-linecap="round" fill="none" d="M892.9,342.75 L895.225,329.25 Q896.125,324 896.875,310.95 897.625,296.475 898.6,289.35 901.975,262.875 914.725,253.275 921.85,247.875 928.825,245.4 934.375,243.375 939.85,243.225 944.725,243.15 950.725,245.25 M854.8,156.975 Q769.975,119.025 750.175,111.225 737.725,106.35 727.075,103.95 715.9,101.475 706.825,101.775 687.775,102.45 673.225,115.275 657.55,128.925 649.975,146.925 641.95,166.125 645.85,184.275 649.15,199.875 660.775,209.625 666.625,214.5 671.875,216.525 688.825,205.875 705.7,205.275 M892.9,342.75 L885.25,387.225 Q885.775,388.05 885.175,387.6 L883.225,398.775 Q878.575,400.125 873.25,402.975 862.45,408.675 858.7,416.025 855.325,422.625 854.875,428.625 854.575,432.45 855.475,436.05 858.25,447.525 873.175,450.225 887.05,452.775 896.875,446.025 902.125,442.35 907.675,435.75 912.1,431.025 914.5,429.45 915.325,428.925 916.225,428.625 918.4,427.95 920.95,428.625 922.75,429.075 924.7,430.275 931.15,434.025 932.725,433.425 933.025,433.35 936.175,428.775 938.575,425.4 935.2,420.225 932.725,416.4 928.825,413.7 928.525,413.475 928.225,413.25 923.575,411.375 921.7,410.025 918.475,407.625 918.175,400.725 917.875,393.9 927.025,353.625 L936.175,314.775 939.475,314.925 Q944.725,315.075 954.7,314.775 M869.95,336.825 L863.125,333 Q862.225,333.375 861.4,333.75 856.6,335.775 854.2,336.825 859,351.375 875.425,374.025 879.175,379.2 884.2,385.8 884.875,386.7 885.25,387.225 L885.175,387.6 Q884.8,387.375 884.2,386.775 M854.2,336.825 Q848.125,339.6 845.35,342 841.9,344.925 841.225,348.9 839.875,356.4 848.2,368.325 858.55,383.1 880.675,398.775 M861.4,333.75 L860.875,331.725 863.125,333 Q864.55,332.4 866.2,331.725 M671.875,216.525 Q667.75,219.075 663.625,222.225 649.825,232.95 643.3,242.25 639.325,247.95 638.05,253.125 634.525,266.775 635.05,278.775 635.575,290.775 638.875,305.55 640.825,310.275 643.3,315.075 644.05,316.575 644.875,318.075 655.825,338.4 671.125,352.725 687.475,368.025 709.075,373.575 718.975,376.05 727.075,376.2 732.55,376.275 737.2,375.225 736.6,375.9 775.075,405.375 790.3,417.075 805.6,428.625 809.65,431.7 813.7,434.775 L804.7,448.275 M779.2,410.25 L768.7,421.725" test="RightBum"/>
    </g>
    <g id="LeftBum">
      <path id="Layer1_0_1_STROKES" stroke="#FEB7AE" stroke-width="3" stroke-linejoin="round" stroke-linecap="round" fill="none" d="M-44.45,150 Q-22.925,136.05 -.425,125.025 21.925,114.15 43,107.175 70.225,98.175 88.45,98.25 111.4,98.325 127.975,103.95 147.475,110.625 162.55,126.3 169.75,133.725 171.55,149.85 172.9,161.625 171.25,175.8 169.975,186.525 162.85,195.675 158.65,201 148.975,211.95 150.475,213.45 151.825,214.875 158.425,221.925 163.6,231.3 167.125,237.675 169,245.775 170.65,252.9 171.1,261.375 171.775,274.575 169.45,287.7 168.925,290.475 168.25,293.25 159.25,332.775 136.6,356.25 119.2,374.25 96.475,385.5 96.175,385.65 78.85,393.6 68.8,398.25 62.575,402.3 53.275,408.3 46.075,413.925 39.55,419.025 31.6,426.3 24.775,432.45 22.375,439.5 19.45,447.975 24.55,454.05 26.125,456 31.525,458.775 36.925,461.55 36.55,460.275 M66.1,199.8 Q80.575,188.925 101.8,189.6 122.5,190.275 136.6,201.3 143.95,207.075 148.975,211.95 M-155.9,243.3 Q-150.425,243.15 -142.55,244.275 -138.05,244.95 -129.2,246.375 -122.825,247.2 -113.9,248.025 -108.8,248.475 -98.6,249.3 -92,249.825 -83.6,251.925 -81.95,252.3 -78.725,252.525 -76.55,252.6 -75.35,253.425 -72.5,255.375 -65.9,269.25 -59,283.8 -55.4,294.6 -52.325,303.9 -48.275,321.075 -46.475,328.65 -42.35,339.075 -37.1,352.35 -35.675,356.775 -35.225,358.125 -33.2,366.975 -31.1,375.525 -29.9,376.8 -27.875,379.05 -28.25,380.025 -28.25,380.175 -25.25,380.775 -20.375,381.75 -14.3,387.075 -8.225,392.25 -4.7,398.55 -.725,405.375 -2,409.95 -3.5,415.275 -11.9,416.025 -16.025,418.125 -23.075,416.55 -30.95,414.225 -34.475,413.775 -41.75,412.8 -51.2,414.675 -57.275,415.65 -60.125,416.25 -64.85,417.3 -68.6,419.4 -71.375,421.05 -74.975,423.825 -77,425.4 -80.975,428.625 -83.075,425.55 -80.525,418.875 -77.075,411.675 -76.025,409.35 -75.2,407.475 -72.425,404.85 -69.725,402.15 -69.05,400.65 -67.775,397.95 -69.5,390.075 -70.175,386.925 -72.35,379.35 -73.925,373.5 -77.825,366.75 -80.15,362.775 -85.4,355.125 M-70.4,397.275 Q-70.925,397.65 -78.875,401.1 -85.175,403.8 -86.975,406.575 -89.975,411.375 -90.5,415.65 -91.325,422.775 -87.95,436.275 -87.575,437.775 -87.125,439.2 -86.15,442.275 -84.8,445.2 -83.225,448.725 -81.05,452.025 -79.7,454.125 -70.4,465.75 M-85.4,355.125 Q-86.675,353.175 -91.325,347.325 -95,342.525 -96.95,339.225 -98.3,336.45 -99.125,334.95 -100.55,332.1 -101.9,331.275 -103.475,330.3 -107.3,330.225 -111.5,330.375 -112.925,330.3 -117.425,330.075 -124.175,330.525 -134.75,331.275 -135.425,331.275 -153.05,332.1 -164.45,330.375 -167.375,330 -174.65,327.225 -181.025,324.75 -184.925,324.75 M-54.95,465.3 Q-58.4,465 -62,461.325 -65,458.25 -66.95,454.275 -69.125,449.7 -70.025,445.35 -70.025,445.275 -70.025,445.2 -70.775,441.825 -70.55,439.2 -70.475,437.625 -70.025,436.35 -67.55,428.775 -60.35,424.05 -56.375,421.425 -45.95,417.3" test="LeftBum"/>
      <path id="Layer1_0_2_STROKES" stroke="#0FF" stroke-width="3" stroke-linejoin="round" stroke-linecap="round" fill="none" d="M-44.45,150 L-38.675,153.6 Q-31.625,158.175 -25.475,163.65 -5.675,181.05 -1.775,199.8 1.45,214.8 8.875,248.325 14.275,278.775 12.1,303.3 9.025,336.825 7.3,346.275 4.6,361.2 -1.775,369.75 L-13.4,385.8 M-85.4,355.125 L-87.95,392.25 -70.4,397.275 M-163.4,196.275 Q-151.7,193.2 -123.425,183.15 -98.375,174.3 -83.45,171.075 -75.725,169.425 -69.35,166.2 -64.4,163.65 -56.75,158.325 -50.6,154.05 -44.45,150" test="LeftBum"/>
    </g>
  </g>
</svg>