<?xml version="1.0" encoding="utf-8"?>
<svg id="EdithAnim08" image-rendering="inherit" baseProfile="basic" version="1.1" x="0px" y="0px" width="800" height="600" xmlns="http://www.w3.org/2000/svg" xmlns:xlink="http://www.w3.org/1999/xlink">
  <g id="No-Rear-To-Rearf84r1" overflow="visible">
    <g id="RightBum">
      <path id="Layer2_0_1_STROKES" stroke="#F0F" stroke-width="3" stroke-linejoin="round" stroke-linecap="round" fill="none" d="M872.825,168.075 L881.075,200.475 Q888.95,236.1 887.075,252.525 884.9,271.5 880.775,292.875 876.95,312.825 872.825,327.525 870.2,336.9 867.5,346.875 866.975,348.225 866.525,348.825 L891.05,342.75 M934.325,193.275 L852.95,156.975 M934.325,327.525 L962.825,323.775 M859.55,333.75 L860.3,336.825 Q861.95,342.825 863.825,347.1 865.25,350.325 866.525,348.825" test="RightBum"/>
      <path id="Layer2_0_2_STROKES" stroke="#F90" stroke-width="3" stroke-linejoin="round" stroke-linecap="round" fill="none" d="M891.05,342.75 L893.375,329.25 Q894.275,324 895.025,310.95 895.775,296.475 896.75,289.35 900.125,262.875 912.875,253.275 920,247.875 926.975,245.4 932.525,243.375 938,243.225 942.875,243.15 948.875,245.25 M852.95,156.975 Q768.125,119.025 748.325,111.225 735.875,106.35 725.225,103.95 714.05,101.475 704.975,101.775 685.925,102.45 671.375,115.275 655.7,128.925 648.125,146.925 640.1,166.125 644,184.275 647.3,199.875 658.925,209.625 664.775,214.5 670.025,216.525 686.975,205.875 703.85,205.275 M891.05,342.75 L883.4,387.225 Q883.925,388.05 883.325,387.6 L881.375,398.775 Q876.725,400.125 871.4,402.975 860.6,408.675 856.85,416.025 853.475,422.625 853.025,428.625 852.725,432.45 853.625,436.05 856.4,447.525 871.325,450.225 885.2,452.775 895.025,446.025 900.275,442.35 905.825,435.75 910.25,431.025 912.65,429.45 913.475,428.925 914.375,428.625 916.55,427.95 919.1,428.625 920.9,429.075 922.85,430.275 929.3,434.025 930.875,433.425 931.175,433.35 934.325,428.775 936.725,425.4 933.35,420.225 930.875,416.4 926.975,413.7 926.675,413.475 926.375,413.25 921.725,411.375 919.85,410.025 916.625,407.625 916.325,400.725 916.025,393.9 925.175,353.625 L934.325,314.775 937.625,314.925 Q942.875,315.075 952.85,314.775 M868.1,336.825 L861.275,333 Q860.375,333.375 859.55,333.75 854.75,335.775 852.35,336.825 857.15,351.375 873.575,374.025 877.325,379.2 882.35,385.8 883.025,386.7 883.4,387.225 L883.325,387.6 Q882.95,387.375 882.35,386.775 M852.35,336.825 Q846.275,339.6 843.5,342 840.05,344.925 839.375,348.9 838.025,356.4 846.35,368.325 856.7,383.1 878.825,398.775 M859.55,333.75 L859.025,331.725 861.275,333 Q862.7,332.4 864.35,331.725 M670.025,216.525 Q665.9,219.075 661.775,222.225 647.975,232.95 641.45,242.25 637.475,247.95 636.2,253.125 632.675,266.775 633.2,278.775 633.725,290.775 637.025,305.55 638.975,310.275 641.45,315.075 642.2,316.575 643.025,318.075 653.975,338.4 669.275,352.725 685.625,368.025 707.225,373.575 717.125,376.05 725.225,376.2 730.7,376.275 735.35,375.225 734.75,375.9 773.225,405.375 788.45,417.075 803.75,428.625 807.8,431.7 811.85,434.775 L802.85,448.275 M777.35,410.25 L766.85,421.725" test="RightBum"/>
    </g>
    <g id="LeftBum">
      <path id="Layer1_0_1_STROKES" stroke="#FEB7AE" stroke-width="3" stroke-linejoin="round" stroke-linecap="round" fill="none" d="M-42.6,150 Q-21.075,136.05 1.425,125.025 23.775,114.15 44.85,107.175 72.075,98.175 90.3,98.25 113.25,98.325 129.825,103.95 149.325,110.625 164.4,126.3 171.6,133.725 173.4,149.85 174.75,161.625 173.1,175.8 171.825,186.525 164.7,195.675 160.5,201 150.825,211.95 152.325,213.45 153.675,214.875 160.275,221.925 165.45,231.3 168.975,237.675 170.85,245.775 172.5,252.9 172.95,261.375 173.625,274.575 171.3,287.7 170.775,290.475 170.1,293.25 161.1,332.775 138.45,356.25 121.05,374.25 98.325,385.5 98.025,385.65 80.7,393.6 70.65,398.25 64.425,402.3 55.125,408.3 47.925,413.925 41.4,419.025 33.45,426.3 26.625,432.45 24.225,439.5 21.3,447.975 26.4,454.05 27.975,456 33.375,458.775 38.775,461.55 38.4,460.275 M67.95,199.8 Q82.425,188.925 103.65,189.6 124.35,190.275 138.45,201.3 145.8,207.075 150.825,211.95 M-154.05,243.3 Q-148.575,243.15 -140.7,244.275 -136.2,244.95 -127.35,246.375 -120.975,247.2 -112.05,248.025 -106.95,248.475 -96.75,249.3 -90.15,249.825 -81.75,251.925 -80.1,252.3 -76.875,252.525 -74.7,252.6 -73.5,253.425 -70.65,255.375 -64.05,269.25 -57.15,283.8 -53.55,294.6 -50.475,303.9 -46.425,321.075 -44.625,328.65 -40.5,339.075 -35.25,352.35 -33.825,356.775 -33.375,358.125 -31.35,366.975 -29.25,375.525 -28.05,376.8 -26.025,379.05 -26.4,380.025 -26.4,380.175 -23.4,380.775 -18.525,381.75 -12.45,387.075 -6.375,392.25 -2.85,398.55 1.125,405.375 -.15,409.95 -1.65,415.275 -10.05,416.025 -14.175,418.125 -21.225,416.55 -29.1,414.225 -32.625,413.775 -39.9,412.8 -49.35,414.675 -55.425,415.65 -58.275,416.25 -63,417.3 -66.75,419.4 -69.525,421.05 -73.125,423.825 -75.15,425.4 -79.125,428.625 -81.225,425.55 -78.675,418.875 -75.225,411.675 -74.175,409.35 -73.35,407.475 -70.575,404.85 -67.875,402.15 -67.2,400.65 -65.925,397.95 -67.65,390.075 -68.325,386.925 -70.5,379.35 -72.075,373.5 -75.975,366.75 -78.3,362.775 -83.55,355.125 M-68.55,397.275 Q-69.075,397.65 -77.025,401.1 -83.325,403.8 -85.125,406.575 -88.125,411.375 -88.65,415.65 -89.475,422.775 -86.1,436.275 -85.725,437.775 -85.275,439.2 -84.3,442.275 -82.95,445.2 -81.375,448.725 -79.2,452.025 -77.85,454.125 -68.55,465.75 M-83.55,355.125 Q-84.825,353.175 -89.475,347.325 -93.15,342.525 -95.1,339.225 -96.45,336.45 -97.275,334.95 -98.7,332.1 -100.05,331.275 -101.625,330.3 -105.45,330.225 -109.65,330.375 -111.075,330.3 -115.575,330.075 -122.325,330.525 -132.9,331.275 -133.575,331.275 -151.2,332.1 -162.6,330.375 -165.525,330 -172.8,327.225 -179.175,324.75 -183.075,324.75 M-53.1,465.3 Q-56.55,465 -60.15,461.325 -63.15,458.25 -65.1,454.275 -67.275,449.7 -68.175,445.35 -68.175,445.275 -68.175,445.2 -68.925,441.825 -68.7,439.2 -68.625,437.625 -68.175,436.35 -65.7,428.775 -58.5,424.05 -54.525,421.425 -44.1,417.3" test="LeftBum"/>
      <path id="Layer1_0_2_STROKES" stroke="#0FF" stroke-width="3" stroke-linejoin="round" stroke-linecap="round" fill="none" d="M-42.6,150 L-36.825,153.6 Q-29.775,158.175 -23.625,163.65 -3.825,181.05 .075,199.8 3.3,214.8 10.725,248.325 16.125,278.775 13.95,303.3 10.875,336.825 9.15,346.275 6.45,361.2 .075,369.75 L-11.55,385.8 M-83.55,355.125 L-86.1,392.25 -68.55,397.275 M-161.55,196.275 Q-149.85,193.2 -121.575,183.15 -96.525,174.3 -81.6,171.075 -73.875,169.425 -67.5,166.2 -62.55,163.65 -54.9,158.325 -48.75,154.05 -42.6,150" test="LeftBum"/>
    </g>
  </g>
</svg>