<?xml version="1.0" encoding="utf-8"?>
<svg id="EdithAnim08" image-rendering="inherit" baseProfile="basic" version="1.1" x="0px" y="0px" width="800" height="600" xmlns="http://www.w3.org/2000/svg" xmlns:xlink="http://www.w3.org/1999/xlink">
  <g id="No-Rear-To-Rearf85r1" overflow="visible">
    <g id="RightBum">
      <path id="Layer2_0_1_STROKES" stroke="#F0F" stroke-width="3" stroke-linejoin="round" stroke-linecap="round" fill="none" d="M871.025,168.075 L879.275,200.475 Q887.15,236.1 885.275,252.525 883.1,271.5 878.975,292.875 875.15,312.825 871.025,327.525 868.4,336.9 865.7,346.875 865.175,348.225 864.725,348.825 L889.25,342.75 M932.525,193.275 L851.15,156.975 M932.525,327.525 L961.025,323.775 M857.75,333.75 L858.5,336.825 Q860.15,342.825 862.025,347.1 863.45,350.325 864.725,348.825" test="RightBum"/>
      <path id="Layer2_0_2_STROKES" stroke="#F90" stroke-width="3" stroke-linejoin="round" stroke-linecap="round" fill="none" d="M889.25,342.75 L891.575,329.25 Q892.475,324 893.225,310.95 893.975,296.475 894.95,289.35 898.325,262.875 911.075,253.275 918.2,247.875 925.175,245.4 930.725,243.375 936.2,243.225 941.075,243.15 947.075,245.25 M851.15,156.975 Q766.325,119.025 746.525,111.225 734.075,106.35 723.425,103.95 712.25,101.475 703.175,101.775 684.125,102.45 669.575,115.275 653.9,128.925 646.325,146.925 638.3,166.125 642.2,184.275 645.5,199.875 657.125,209.625 662.975,214.5 668.225,216.525 685.175,205.875 702.05,205.275 M889.25,342.75 L881.6,387.225 Q882.125,388.05 881.525,387.6 L879.575,398.775 Q874.925,400.125 869.6,402.975 858.8,408.675 855.05,416.025 851.675,422.625 851.225,428.625 850.925,432.45 851.825,436.05 854.6,447.525 869.525,450.225 883.4,452.775 893.225,446.025 898.475,442.35 904.025,435.75 908.45,431.025 910.85,429.45 911.675,428.925 912.575,428.625 914.75,427.95 917.3,428.625 919.1,429.075 921.05,430.275 927.5,434.025 929.075,433.425 929.375,433.35 932.525,428.775 934.925,425.4 931.55,420.225 929.075,416.4 925.175,413.7 924.875,413.475 924.575,413.25 919.925,411.375 918.05,410.025 914.825,407.625 914.525,400.725 914.225,393.9 923.375,353.625 L932.525,314.775 935.825,314.925 Q941.075,315.075 951.05,314.775 M866.3,336.825 L859.475,333 Q858.575,333.375 857.75,333.75 852.95,335.775 850.55,336.825 855.35,351.375 871.775,374.025 875.525,379.2 880.55,385.8 881.225,386.7 881.6,387.225 L881.525,387.6 Q881.15,387.375 880.55,386.775 M850.55,336.825 Q844.475,339.6 841.7,342 838.25,344.925 837.575,348.9 836.225,356.4 844.55,368.325 854.9,383.1 877.025,398.775 M857.75,333.75 L857.225,331.725 859.475,333 Q860.9,332.4 862.55,331.725 M668.225,216.525 Q664.1,219.075 659.975,222.225 646.175,232.95 639.65,242.25 635.675,247.95 634.4,253.125 630.875,266.775 631.4,278.775 631.925,290.775 635.225,305.55 637.175,310.275 639.65,315.075 640.4,316.575 641.225,318.075 652.175,338.4 667.475,352.725 683.825,368.025 705.425,373.575 715.325,376.05 723.425,376.2 728.9,376.275 733.55,375.225 732.95,375.9 771.425,405.375 786.65,417.075 801.95,428.625 806,431.7 810.05,434.775 L801.05,448.275 M775.55,410.25 L765.05,421.725" test="RightBum"/>
    </g>
    <g id="LeftBum">
      <path id="Layer1_0_1_STROKES" stroke="#FEB7AE" stroke-width="3" stroke-linejoin="round" stroke-linecap="round" fill="none" d="M-40.8,150 Q-19.275,136.05 3.225,125.025 25.575,114.15 46.65,107.175 73.875,98.175 92.1,98.25 115.05,98.325 131.625,103.95 151.125,110.625 166.2,126.3 173.4,133.725 175.2,149.85 176.55,161.625 174.9,175.8 173.625,186.525 166.5,195.675 162.3,201 152.625,211.95 154.125,213.45 155.475,214.875 162.075,221.925 167.25,231.3 170.775,237.675 172.65,245.775 174.3,252.9 174.75,261.375 175.425,274.575 173.1,287.7 172.575,290.475 171.9,293.25 162.9,332.775 140.25,356.25 122.85,374.25 100.125,385.5 99.825,385.65 82.5,393.6 72.45,398.25 66.225,402.3 56.925,408.3 49.725,413.925 43.2,419.025 35.25,426.3 28.425,432.45 26.025,439.5 23.1,447.975 28.2,454.05 29.775,456 35.175,458.775 40.575,461.55 40.2,460.275 M69.75,199.8 Q84.225,188.925 105.45,189.6 126.15,190.275 140.25,201.3 147.6,207.075 152.625,211.95 M-152.25,243.3 Q-146.775,243.15 -138.9,244.275 -134.4,244.95 -125.55,246.375 -119.175,247.2 -110.25,248.025 -105.15,248.475 -94.95,249.3 -88.35,249.825 -79.95,251.925 -78.3,252.3 -75.075,252.525 -72.9,252.6 -71.7,253.425 -68.85,255.375 -62.25,269.25 -55.35,283.8 -51.75,294.6 -48.675,303.9 -44.625,321.075 -42.825,328.65 -38.7,339.075 -33.45,352.35 -32.025,356.775 -31.575,358.125 -29.55,366.975 -27.45,375.525 -26.25,376.8 -24.225,379.05 -24.6,380.025 -24.6,380.175 -21.6,380.775 -16.725,381.75 -10.65,387.075 -4.575,392.25 -1.05,398.55 2.925,405.375 1.65,409.95 .15,415.275 -8.25,416.025 -12.375,418.125 -19.425,416.55 -27.3,414.225 -30.825,413.775 -38.1,412.8 -47.55,414.675 -53.625,415.65 -56.475,416.25 -61.2,417.3 -64.95,419.4 -67.725,421.05 -71.325,423.825 -73.35,425.4 -77.325,428.625 -79.425,425.55 -76.875,418.875 -73.425,411.675 -72.375,409.35 -71.55,407.475 -68.775,404.85 -66.075,402.15 -65.4,400.65 -64.125,397.95 -65.85,390.075 -66.525,386.925 -68.7,379.35 -70.275,373.5 -74.175,366.75 -76.5,362.775 -81.75,355.125 M-66.75,397.275 Q-67.275,397.65 -75.225,401.1 -81.525,403.8 -83.325,406.575 -86.325,411.375 -86.85,415.65 -87.675,422.775 -84.3,436.275 -83.925,437.775 -83.475,439.2 -82.5,442.275 -81.15,445.2 -79.575,448.725 -77.4,452.025 -76.05,454.125 -66.75,465.75 M-81.75,355.125 Q-83.025,353.175 -87.675,347.325 -91.35,342.525 -93.3,339.225 -94.65,336.45 -95.475,334.95 -96.9,332.1 -98.25,331.275 -99.825,330.3 -103.65,330.225 -107.85,330.375 -109.275,330.3 -113.775,330.075 -120.525,330.525 -131.1,331.275 -131.775,331.275 -149.4,332.1 -160.8,330.375 -163.725,330 -171,327.225 -177.375,324.75 -181.275,324.75 M-51.3,465.3 Q-54.75,465 -58.35,461.325 -61.35,458.25 -63.3,454.275 -65.475,449.7 -66.375,445.35 -66.375,445.275 -66.375,445.2 -67.125,441.825 -66.9,439.2 -66.825,437.625 -66.375,436.35 -63.9,428.775 -56.7,424.05 -52.725,421.425 -42.3,417.3" test="LeftBum"/>
      <path id="Layer1_0_2_STROKES" stroke="#0FF" stroke-width="3" stroke-linejoin="round" stroke-linecap="round" fill="none" d="M-40.8,150 L-35.025,153.6 Q-27.975,158.175 -21.825,163.65 -2.025,181.05 1.875,199.8 5.1,214.8 12.525,248.325 17.925,278.775 15.75,303.3 12.675,336.825 10.95,346.275 8.25,361.2 1.875,369.75 L-9.75,385.8 M-81.75,355.125 L-84.3,392.25 -66.75,397.275 M-159.75,196.275 Q-148.05,193.2 -119.775,183.15 -94.725,174.3 -79.8,171.075 -72.075,169.425 -65.7,166.2 -60.75,163.65 -53.1,158.325 -46.95,154.05 -40.8,150" test="LeftBum"/>
    </g>
  </g>
</svg>