<?xml version="1.0" encoding="utf-8"?>
<svg id="EdithAnim08" image-rendering="inherit" baseProfile="basic" version="1.1" x="0px" y="0px" width="800" height="600" xmlns="http://www.w3.org/2000/svg" xmlns:xlink="http://www.w3.org/1999/xlink">
  <g id="No-Rear-To-Rearf87r1" overflow="visible">
    <g id="RightBum">
      <path id="Layer2_0_1_STROKES" stroke="#F0F" stroke-width="3" stroke-linejoin="round" stroke-linecap="round" fill="none" d="M867.425,168.075 L875.675,200.475 Q883.55,236.1 881.675,252.525 879.5,271.5 875.375,292.875 871.55,312.825 867.425,327.525 864.8,336.9 862.1,346.875 861.575,348.225 861.125,348.825 L885.65,342.75 M928.925,193.275 L847.55,156.975 M928.925,327.525 L957.425,323.775 M854.15,333.75 L854.9,336.825 Q856.55,342.825 858.425,347.1 859.85,350.325 861.125,348.825" test="RightBum"/>
      <path id="Layer2_0_2_STROKES" stroke="#F90" stroke-width="3" stroke-linejoin="round" stroke-linecap="round" fill="none" d="M885.65,342.75 L887.975,329.25 Q888.875,324 889.625,310.95 890.375,296.475 891.35,289.35 894.725,262.875 907.475,253.275 914.6,247.875 921.575,245.4 927.125,243.375 932.6,243.225 937.475,243.15 943.475,245.25 M847.55,156.975 Q762.725,119.025 742.925,111.225 730.475,106.35 719.825,103.95 708.65,101.475 699.575,101.775 680.525,102.45 665.975,115.275 650.3,128.925 642.725,146.925 634.7,166.125 638.6,184.275 641.9,199.875 653.525,209.625 659.375,214.5 664.625,216.525 681.575,205.875 698.45,205.275 M885.65,342.75 L878,387.225 Q878.525,388.05 877.925,387.6 L875.975,398.775 Q871.325,400.125 866,402.975 855.2,408.675 851.45,416.025 848.075,422.625 847.625,428.625 847.325,432.45 848.225,436.05 851,447.525 865.925,450.225 879.8,452.775 889.625,446.025 894.875,442.35 900.425,435.75 904.85,431.025 907.25,429.45 908.075,428.925 908.975,428.625 911.15,427.95 913.7,428.625 915.5,429.075 917.45,430.275 923.9,434.025 925.475,433.425 925.775,433.35 928.925,428.775 931.325,425.4 927.95,420.225 925.475,416.4 921.575,413.7 921.275,413.475 920.975,413.25 916.325,411.375 914.45,410.025 911.225,407.625 910.925,400.725 910.625,393.9 919.775,353.625 L928.925,314.775 932.225,314.925 Q937.475,315.075 947.45,314.775 M862.7,336.825 L855.875,333 Q854.975,333.375 854.15,333.75 849.35,335.775 846.95,336.825 851.75,351.375 868.175,374.025 871.925,379.2 876.95,385.8 877.625,386.7 878,387.225 L877.925,387.6 Q877.55,387.375 876.95,386.775 M846.95,336.825 Q840.875,339.6 838.1,342 834.65,344.925 833.975,348.9 832.625,356.4 840.95,368.325 851.3,383.1 873.425,398.775 M854.15,333.75 L853.625,331.725 855.875,333 Q857.3,332.4 858.95,331.725 M664.625,216.525 Q660.5,219.075 656.375,222.225 642.575,232.95 636.05,242.25 632.075,247.95 630.8,253.125 627.275,266.775 627.8,278.775 628.325,290.775 631.625,305.55 633.575,310.275 636.05,315.075 636.8,316.575 637.625,318.075 648.575,338.4 663.875,352.725 680.225,368.025 701.825,373.575 711.725,376.05 719.825,376.2 725.3,376.275 729.95,375.225 729.35,375.9 767.825,405.375 783.05,417.075 798.35,428.625 802.4,431.7 806.45,434.775 L797.45,448.275 M771.95,410.25 L761.45,421.725" test="RightBum"/>
    </g>
    <g id="LeftBum">
      <path id="Layer1_0_1_STROKES" stroke="#FEB7AE" stroke-width="3" stroke-linejoin="round" stroke-linecap="round" fill="none" d="M-37.2,150 Q-15.675,136.05 6.825,125.025 29.175,114.15 50.25,107.175 77.475,98.175 95.7,98.25 118.65,98.325 135.225,103.95 154.725,110.625 169.8,126.3 177,133.725 178.8,149.85 180.15,161.625 178.5,175.8 177.225,186.525 170.1,195.675 165.9,201 156.225,211.95 157.725,213.45 159.075,214.875 165.675,221.925 170.85,231.3 174.375,237.675 176.25,245.775 177.9,252.9 178.35,261.375 179.025,274.575 176.7,287.7 176.175,290.475 175.5,293.25 166.5,332.775 143.85,356.25 126.45,374.25 103.725,385.5 103.425,385.65 86.1,393.6 76.05,398.25 69.825,402.3 60.525,408.3 53.325,413.925 46.8,419.025 38.85,426.3 32.025,432.45 29.625,439.5 26.7,447.975 31.8,454.05 33.375,456 38.775,458.775 44.175,461.55 43.8,460.275 M73.35,199.8 Q87.825,188.925 109.05,189.6 129.75,190.275 143.85,201.3 151.2,207.075 156.225,211.95 M-148.65,243.3 Q-143.175,243.15 -135.3,244.275 -130.8,244.95 -121.95,246.375 -115.575,247.2 -106.65,248.025 -101.55,248.475 -91.35,249.3 -84.75,249.825 -76.35,251.925 -74.7,252.3 -71.475,252.525 -69.3,252.6 -68.1,253.425 -65.25,255.375 -58.65,269.25 -51.75,283.8 -48.15,294.6 -45.075,303.9 -41.025,321.075 -39.225,328.65 -35.1,339.075 -29.85,352.35 -28.425,356.775 -27.975,358.125 -25.95,366.975 -23.85,375.525 -22.65,376.8 -20.625,379.05 -21,380.025 -21,380.175 -18,380.775 -13.125,381.75 -7.05,387.075 -.975,392.25 2.55,398.55 6.525,405.375 5.25,409.95 3.75,415.275 -4.65,416.025 -8.775,418.125 -15.825,416.55 -23.7,414.225 -27.225,413.775 -34.5,412.8 -43.95,414.675 -50.025,415.65 -52.875,416.25 -57.6,417.3 -61.35,419.4 -64.125,421.05 -67.725,423.825 -69.75,425.4 -73.725,428.625 -75.825,425.55 -73.275,418.875 -69.825,411.675 -68.775,409.35 -67.95,407.475 -65.175,404.85 -62.475,402.15 -61.8,400.65 -60.525,397.95 -62.25,390.075 -62.925,386.925 -65.1,379.35 -66.675,373.5 -70.575,366.75 -72.9,362.775 -78.15,355.125 M-63.15,397.275 Q-63.675,397.65 -71.625,401.1 -77.925,403.8 -79.725,406.575 -82.725,411.375 -83.25,415.65 -84.075,422.775 -80.7,436.275 -80.325,437.775 -79.875,439.2 -78.9,442.275 -77.55,445.2 -75.975,448.725 -73.8,452.025 -72.45,454.125 -63.15,465.75 M-78.15,355.125 Q-79.425,353.175 -84.075,347.325 -87.75,342.525 -89.7,339.225 -91.05,336.45 -91.875,334.95 -93.3,332.1 -94.65,331.275 -96.225,330.3 -100.05,330.225 -104.25,330.375 -105.675,330.3 -110.175,330.075 -116.925,330.525 -127.5,331.275 -128.175,331.275 -145.8,332.1 -157.2,330.375 -160.125,330 -167.4,327.225 -173.775,324.75 -177.675,324.75 M-47.7,465.3 Q-51.15,465 -54.75,461.325 -57.75,458.25 -59.7,454.275 -61.875,449.7 -62.775,445.35 -62.775,445.275 -62.775,445.2 -63.525,441.825 -63.3,439.2 -63.225,437.625 -62.775,436.35 -60.3,428.775 -53.1,424.05 -49.125,421.425 -38.7,417.3" test="LeftBum"/>
      <path id="Layer1_0_2_STROKES" stroke="#0FF" stroke-width="3" stroke-linejoin="round" stroke-linecap="round" fill="none" d="M-37.2,150 L-31.425,153.6 Q-24.375,158.175 -18.225,163.65 1.575,181.05 5.475,199.8 8.7,214.8 16.125,248.325 21.525,278.775 19.35,303.3 16.275,336.825 14.55,346.275 11.85,361.2 5.475,369.75 L-6.15,385.8 M-78.15,355.125 L-80.7,392.25 -63.15,397.275 M-156.15,196.275 Q-144.45,193.2 -116.175,183.15 -91.125,174.3 -76.2,171.075 -68.475,169.425 -62.1,166.2 -57.15,163.65 -49.5,158.325 -43.35,154.05 -37.2,150" test="LeftBum"/>
    </g>
  </g>
</svg>