<?xml version="1.0" encoding="utf-8"?>
<svg id="EdithAnim08" image-rendering="inherit" baseProfile="basic" version="1.1" x="0px" y="0px" width="800" height="600" xmlns="http://www.w3.org/2000/svg" xmlns:xlink="http://www.w3.org/1999/xlink">
  <g id="No-Rear-To-Rearf89r1" overflow="visible">
    <g id="RightBum">
      <path id="Layer2_0_1_STROKES" stroke="#F0F" stroke-width="3" stroke-linejoin="round" stroke-linecap="round" fill="none" d="M863.875,168.075 L872.125,200.475 Q880,236.1 878.125,252.525 875.95,271.5 871.825,292.875 868,312.825 863.875,327.525 861.25,336.9 858.55,346.875 858.025,348.225 857.575,348.825 L882.1,342.75 M925.375,193.275 L844,156.975 M925.375,327.525 L953.875,323.775 M850.6,333.75 L851.35,336.825 Q853,342.825 854.875,347.1 856.3,350.325 857.575,348.825" test="RightBum"/>
      <path id="Layer2_0_2_STROKES" stroke="#F90" stroke-width="3" stroke-linejoin="round" stroke-linecap="round" fill="none" d="M882.1,342.75 L884.425,329.25 Q885.325,324 886.075,310.95 886.825,296.475 887.8,289.35 891.175,262.875 903.925,253.275 911.05,247.875 918.025,245.4 923.575,243.375 929.05,243.225 933.925,243.15 939.925,245.25 M844,156.975 Q759.175,119.025 739.375,111.225 726.925,106.35 716.275,103.95 705.1,101.475 696.025,101.775 676.975,102.45 662.425,115.275 646.75,128.925 639.175,146.925 631.15,166.125 635.05,184.275 638.35,199.875 649.975,209.625 655.825,214.5 661.075,216.525 678.025,205.875 694.9,205.275 M882.1,342.75 L874.45,387.225 Q874.975,388.05 874.375,387.6 L872.425,398.775 Q867.775,400.125 862.45,402.975 851.65,408.675 847.9,416.025 844.525,422.625 844.075,428.625 843.775,432.45 844.675,436.05 847.45,447.525 862.375,450.225 876.25,452.775 886.075,446.025 891.325,442.35 896.875,435.75 901.3,431.025 903.7,429.45 904.525,428.925 905.425,428.625 907.6,427.95 910.15,428.625 911.95,429.075 913.9,430.275 920.35,434.025 921.925,433.425 922.225,433.35 925.375,428.775 927.775,425.4 924.4,420.225 921.925,416.4 918.025,413.7 917.725,413.475 917.425,413.25 912.775,411.375 910.9,410.025 907.675,407.625 907.375,400.725 907.075,393.9 916.225,353.625 L925.375,314.775 928.675,314.925 Q933.925,315.075 943.9,314.775 M859.15,336.825 L852.325,333 Q851.425,333.375 850.6,333.75 845.8,335.775 843.4,336.825 848.2,351.375 864.625,374.025 868.375,379.2 873.4,385.8 874.075,386.7 874.45,387.225 L874.375,387.6 Q874,387.375 873.4,386.775 M843.4,336.825 Q837.325,339.6 834.55,342 831.1,344.925 830.425,348.9 829.075,356.4 837.4,368.325 847.75,383.1 869.875,398.775 M850.6,333.75 L850.075,331.725 852.325,333 Q853.75,332.4 855.4,331.725 M661.075,216.525 Q656.95,219.075 652.825,222.225 639.025,232.95 632.5,242.25 628.525,247.95 627.25,253.125 623.725,266.775 624.25,278.775 624.775,290.775 628.075,305.55 630.025,310.275 632.5,315.075 633.25,316.575 634.075,318.075 645.025,338.4 660.325,352.725 676.675,368.025 698.275,373.575 708.175,376.05 716.275,376.2 721.75,376.275 726.4,375.225 725.8,375.9 764.275,405.375 779.5,417.075 794.8,428.625 798.85,431.7 802.9,434.775 L793.9,448.275 M768.4,410.25 L757.9,421.725" test="RightBum"/>
    </g>
    <g id="LeftBum">
      <path id="Layer1_0_1_STROKES" stroke="#FEB7AE" stroke-width="3" stroke-linejoin="round" stroke-linecap="round" fill="none" d="M-33.55,150 Q-12.025,136.05 10.475,125.025 32.825,114.15 53.9,107.175 81.125,98.175 99.35,98.25 122.3,98.325 138.875,103.95 158.375,110.625 173.45,126.3 180.65,133.725 182.45,149.85 183.8,161.625 182.15,175.8 180.875,186.525 173.75,195.675 169.55,201 159.875,211.95 161.375,213.45 162.725,214.875 169.325,221.925 174.5,231.3 178.025,237.675 179.9,245.775 181.55,252.9 182,261.375 182.675,274.575 180.35,287.7 179.825,290.475 179.15,293.25 170.15,332.775 147.5,356.25 130.1,374.25 107.375,385.5 107.075,385.65 89.75,393.6 79.7,398.25 73.475,402.3 64.175,408.3 56.975,413.925 50.45,419.025 42.5,426.3 35.675,432.45 33.275,439.5 30.35,447.975 35.45,454.05 37.025,456 42.425,458.775 47.825,461.55 47.45,460.275 M77,199.8 Q91.475,188.925 112.7,189.6 133.4,190.275 147.5,201.3 154.85,207.075 159.875,211.95 M-145,243.3 Q-139.525,243.15 -131.65,244.275 -127.15,244.95 -118.3,246.375 -111.925,247.2 -103,248.025 -97.9,248.475 -87.7,249.3 -81.1,249.825 -72.7,251.925 -71.05,252.3 -67.825,252.525 -65.65,252.6 -64.45,253.425 -61.6,255.375 -55,269.25 -48.1,283.8 -44.5,294.6 -41.425,303.9 -37.375,321.075 -35.575,328.65 -31.45,339.075 -26.2,352.35 -24.775,356.775 -24.325,358.125 -22.3,366.975 -20.2,375.525 -19,376.8 -16.975,379.05 -17.35,380.025 -17.35,380.175 -14.35,380.775 -9.475,381.75 -3.4,387.075 2.675,392.25 6.2,398.55 10.175,405.375 8.9,409.95 7.4,415.275 -1,416.025 -5.125,418.125 -12.175,416.55 -20.05,414.225 -23.575,413.775 -30.85,412.8 -40.3,414.675 -46.375,415.65 -49.225,416.25 -53.95,417.3 -57.7,419.4 -60.475,421.05 -64.075,423.825 -66.1,425.4 -70.075,428.625 -72.175,425.55 -69.625,418.875 -66.175,411.675 -65.125,409.35 -64.3,407.475 -61.525,404.85 -58.825,402.15 -58.15,400.65 -56.875,397.95 -58.6,390.075 -59.275,386.925 -61.45,379.35 -63.025,373.5 -66.925,366.75 -69.25,362.775 -74.5,355.125 M-59.5,397.275 Q-60.025,397.65 -67.975,401.1 -74.275,403.8 -76.075,406.575 -79.075,411.375 -79.6,415.65 -80.425,422.775 -77.05,436.275 -76.675,437.775 -76.225,439.2 -75.25,442.275 -73.9,445.2 -72.325,448.725 -70.15,452.025 -68.8,454.125 -59.5,465.75 M-74.5,355.125 Q-75.775,353.175 -80.425,347.325 -84.1,342.525 -86.05,339.225 -87.4,336.45 -88.225,334.95 -89.65,332.1 -91,331.275 -92.575,330.3 -96.4,330.225 -100.6,330.375 -102.025,330.3 -106.525,330.075 -113.275,330.525 -123.85,331.275 -124.525,331.275 -142.15,332.1 -153.55,330.375 -156.475,330 -163.75,327.225 -170.125,324.75 -174.025,324.75 M-44.05,465.3 Q-47.5,465 -51.1,461.325 -54.1,458.25 -56.05,454.275 -58.225,449.7 -59.125,445.35 -59.125,445.275 -59.125,445.2 -59.875,441.825 -59.65,439.2 -59.575,437.625 -59.125,436.35 -56.65,428.775 -49.45,424.05 -45.475,421.425 -35.05,417.3" test="LeftBum"/>
      <path id="Layer1_0_2_STROKES" stroke="#0FF" stroke-width="3" stroke-linejoin="round" stroke-linecap="round" fill="none" d="M-33.55,150 L-27.775,153.6 Q-20.725,158.175 -14.575,163.65 5.225,181.05 9.125,199.8 12.35,214.8 19.775,248.325 25.175,278.775 23,303.3 19.925,336.825 18.2,346.275 15.5,361.2 9.125,369.75 L-2.5,385.8 M-74.5,355.125 L-77.05,392.25 -59.5,397.275 M-152.5,196.275 Q-140.8,193.2 -112.525,183.15 -87.475,174.3 -72.55,171.075 -64.825,169.425 -58.45,166.2 -53.5,163.65 -45.85,158.325 -39.7,154.05 -33.55,150" test="LeftBum"/>
    </g>
  </g>
</svg>