<?xml version="1.0" encoding="utf-8"?>
<svg id="EdithAnim08" image-rendering="inherit" baseProfile="basic" version="1.1" x="0px" y="0px" width="800" height="600" xmlns="http://www.w3.org/2000/svg" xmlns:xlink="http://www.w3.org/1999/xlink">
  <g id="No-Rear-To-Rearf90r1" overflow="visible">
    <g id="RightBum">
      <path id="Layer2_0_1_STROKES" stroke="#F0F" stroke-width="3" stroke-linejoin="round" stroke-linecap="round" fill="none" d="M862.075,168.075 L870.325,200.475 Q878.2,236.1 876.325,252.525 874.15,271.5 870.025,292.875 866.2,312.825 862.075,327.525 859.45,336.9 856.75,346.875 856.225,348.225 855.775,348.825 L880.3,342.75 M923.575,193.275 L842.2,156.975 M923.575,327.525 L952.075,323.775 M848.8,333.75 L849.55,336.825 Q851.2,342.825 853.075,347.1 854.5,350.325 855.775,348.825" test="RightBum"/>
      <path id="Layer2_0_2_STROKES" stroke="#F90" stroke-width="3" stroke-linejoin="round" stroke-linecap="round" fill="none" d="M880.3,342.75 L882.625,329.25 Q883.525,324 884.275,310.95 885.025,296.475 886,289.35 889.375,262.875 902.125,253.275 909.25,247.875 916.225,245.4 921.775,243.375 927.25,243.225 932.125,243.15 938.125,245.25 M842.2,156.975 Q757.375,119.025 737.575,111.225 725.125,106.35 714.475,103.95 703.3,101.475 694.225,101.775 675.175,102.45 660.625,115.275 644.95,128.925 637.375,146.925 629.35,166.125 633.25,184.275 636.55,199.875 648.175,209.625 654.025,214.5 659.275,216.525 676.225,205.875 693.1,205.275 M880.3,342.75 L872.65,387.225 Q873.175,388.05 872.575,387.6 L870.625,398.775 Q865.975,400.125 860.65,402.975 849.85,408.675 846.1,416.025 842.725,422.625 842.275,428.625 841.975,432.45 842.875,436.05 845.65,447.525 860.575,450.225 874.45,452.775 884.275,446.025 889.525,442.35 895.075,435.75 899.5,431.025 901.9,429.45 902.725,428.925 903.625,428.625 905.8,427.95 908.35,428.625 910.15,429.075 912.1,430.275 918.55,434.025 920.125,433.425 920.425,433.35 923.575,428.775 925.975,425.4 922.6,420.225 920.125,416.4 916.225,413.7 915.925,413.475 915.625,413.25 910.975,411.375 909.1,410.025 905.875,407.625 905.575,400.725 905.275,393.9 914.425,353.625 L923.575,314.775 926.875,314.925 Q932.125,315.075 942.1,314.775 M857.35,336.825 L850.525,333 Q849.625,333.375 848.8,333.75 844,335.775 841.6,336.825 846.4,351.375 862.825,374.025 866.575,379.2 871.6,385.8 872.275,386.7 872.65,387.225 L872.575,387.6 Q872.2,387.375 871.6,386.775 M841.6,336.825 Q835.525,339.6 832.75,342 829.3,344.925 828.625,348.9 827.275,356.4 835.6,368.325 845.95,383.1 868.075,398.775 M848.8,333.75 L848.275,331.725 850.525,333 Q851.95,332.4 853.6,331.725 M659.275,216.525 Q655.15,219.075 651.025,222.225 637.225,232.95 630.7,242.25 626.725,247.95 625.45,253.125 621.925,266.775 622.45,278.775 622.975,290.775 626.275,305.55 628.225,310.275 630.7,315.075 631.45,316.575 632.275,318.075 643.225,338.4 658.525,352.725 674.875,368.025 696.475,373.575 706.375,376.05 714.475,376.2 719.95,376.275 724.6,375.225 724,375.9 762.475,405.375 777.7,417.075 793,428.625 797.05,431.7 801.1,434.775 L792.1,448.275 M766.6,410.25 L756.1,421.725" test="RightBum"/>
    </g>
    <g id="LeftBum">
      <path id="Layer1_0_1_STROKES" stroke="#FEB7AE" stroke-width="3" stroke-linejoin="round" stroke-linecap="round" fill="none" d="M-31.75,150 Q-10.225,136.05 12.275,125.025 34.625,114.15 55.7,107.175 82.925,98.175 101.15,98.25 124.1,98.325 140.675,103.95 160.175,110.625 175.25,126.3 182.45,133.725 184.25,149.85 185.6,161.625 183.95,175.8 182.675,186.525 175.55,195.675 171.35,201 161.675,211.95 163.175,213.45 164.525,214.875 171.125,221.925 176.3,231.3 179.825,237.675 181.7,245.775 183.35,252.9 183.8,261.375 184.475,274.575 182.15,287.7 181.625,290.475 180.95,293.25 171.95,332.775 149.3,356.25 131.9,374.25 109.175,385.5 108.875,385.65 91.55,393.6 81.5,398.25 75.275,402.3 65.975,408.3 58.775,413.925 52.25,419.025 44.3,426.3 37.475,432.45 35.075,439.5 32.15,447.975 37.25,454.05 38.825,456 44.225,458.775 49.625,461.55 49.25,460.275 M78.8,199.8 Q93.275,188.925 114.5,189.6 135.2,190.275 149.3,201.3 156.65,207.075 161.675,211.95 M-143.2,243.3 Q-137.725,243.15 -129.85,244.275 -125.35,244.95 -116.5,246.375 -110.125,247.2 -101.2,248.025 -96.1,248.475 -85.9,249.3 -79.3,249.825 -70.9,251.925 -69.25,252.3 -66.025,252.525 -63.85,252.6 -62.65,253.425 -59.8,255.375 -53.2,269.25 -46.3,283.8 -42.7,294.6 -39.625,303.9 -35.575,321.075 -33.775,328.65 -29.65,339.075 -24.4,352.35 -22.975,356.775 -22.525,358.125 -20.5,366.975 -18.4,375.525 -17.2,376.8 -15.175,379.05 -15.55,380.025 -15.55,380.175 -12.55,380.775 -7.675,381.75 -1.6,387.075 4.475,392.25 8,398.55 11.975,405.375 10.7,409.95 9.2,415.275 .8,416.025 -3.325,418.125 -10.375,416.55 -18.25,414.225 -21.775,413.775 -29.05,412.8 -38.5,414.675 -44.575,415.65 -47.425,416.25 -52.15,417.3 -55.9,419.4 -58.675,421.05 -62.275,423.825 -64.3,425.4 -68.275,428.625 -70.375,425.55 -67.825,418.875 -64.375,411.675 -63.325,409.35 -62.5,407.475 -59.725,404.85 -57.025,402.15 -56.35,400.65 -55.075,397.95 -56.8,390.075 -57.475,386.925 -59.65,379.35 -61.225,373.5 -65.125,366.75 -67.45,362.775 -72.7,355.125 M-57.7,397.275 Q-58.225,397.65 -66.175,401.1 -72.475,403.8 -74.275,406.575 -77.275,411.375 -77.8,415.65 -78.625,422.775 -75.25,436.275 -74.875,437.775 -74.425,439.2 -73.45,442.275 -72.1,445.2 -70.525,448.725 -68.35,452.025 -67,454.125 -57.7,465.75 M-72.7,355.125 Q-73.975,353.175 -78.625,347.325 -82.3,342.525 -84.25,339.225 -85.6,336.45 -86.425,334.95 -87.85,332.1 -89.2,331.275 -90.775,330.3 -94.6,330.225 -98.8,330.375 -100.225,330.3 -104.725,330.075 -111.475,330.525 -122.05,331.275 -122.725,331.275 -140.35,332.1 -151.75,330.375 -154.675,330 -161.95,327.225 -168.325,324.75 -172.225,324.75 M-42.25,465.3 Q-45.7,465 -49.3,461.325 -52.3,458.25 -54.25,454.275 -56.425,449.7 -57.325,445.35 -57.325,445.275 -57.325,445.2 -58.075,441.825 -57.85,439.2 -57.775,437.625 -57.325,436.35 -54.85,428.775 -47.65,424.05 -43.675,421.425 -33.25,417.3" test="LeftBum"/>
      <path id="Layer1_0_2_STROKES" stroke="#0FF" stroke-width="3" stroke-linejoin="round" stroke-linecap="round" fill="none" d="M-31.75,150 L-25.975,153.6 Q-18.925,158.175 -12.775,163.65 7.025,181.05 10.925,199.8 14.15,214.8 21.575,248.325 26.975,278.775 24.8,303.3 21.725,336.825 20,346.275 17.3,361.2 10.925,369.75 L-.7,385.8 M-72.7,355.125 L-75.25,392.25 -57.7,397.275 M-150.7,196.275 Q-139,193.2 -110.725,183.15 -85.675,174.3 -70.75,171.075 -63.025,169.425 -56.65,166.2 -51.7,163.65 -44.05,158.325 -37.9,154.05 -31.75,150" test="LeftBum"/>
    </g>
  </g>
</svg>