<?xml version="1.0" encoding="utf-8"?>
<svg id="EdithAnim08" image-rendering="inherit" baseProfile="basic" version="1.1" x="0px" y="0px" width="800" height="600" xmlns="http://www.w3.org/2000/svg" xmlns:xlink="http://www.w3.org/1999/xlink">
  <g id="No-Rear-To-Rearf92r1" overflow="visible">
    <g id="RightBum">
      <path id="Layer2_0_1_STROKES" stroke="#F0F" stroke-width="3" stroke-linejoin="round" stroke-linecap="round" fill="none" d="M858.575,168.075 L866.825,200.475 Q874.7,236.1 872.825,252.525 870.65,271.5 866.525,292.875 862.7,312.825 858.575,327.525 855.95,336.9 853.25,346.875 852.725,348.225 852.275,348.825 L876.8,342.75 M920.075,193.275 L838.7,156.975 M920.075,327.525 L948.575,323.775 M845.3,333.75 L846.05,336.825 Q847.7,342.825 849.575,347.1 851,350.325 852.275,348.825" test="RightBum"/>
      <path id="Layer2_0_2_STROKES" stroke="#F90" stroke-width="3" stroke-linejoin="round" stroke-linecap="round" fill="none" d="M876.8,342.75 L879.125,329.25 Q880.025,324 880.775,310.95 881.525,296.475 882.5,289.35 885.875,262.875 898.625,253.275 905.75,247.875 912.725,245.4 918.275,243.375 923.75,243.225 928.625,243.15 934.625,245.25 M838.7,156.975 Q753.875,119.025 734.075,111.225 721.625,106.35 710.975,103.95 699.8,101.475 690.725,101.775 671.675,102.45 657.125,115.275 641.45,128.925 633.875,146.925 625.85,166.125 629.75,184.275 633.05,199.875 644.675,209.625 650.525,214.5 655.775,216.525 672.725,205.875 689.6,205.275 M876.8,342.75 L869.15,387.225 Q869.675,388.05 869.075,387.6 L867.125,398.775 Q862.475,400.125 857.15,402.975 846.35,408.675 842.6,416.025 839.225,422.625 838.775,428.625 838.475,432.45 839.375,436.05 842.15,447.525 857.075,450.225 870.95,452.775 880.775,446.025 886.025,442.35 891.575,435.75 896,431.025 898.4,429.45 899.225,428.925 900.125,428.625 902.3,427.95 904.85,428.625 906.65,429.075 908.6,430.275 915.05,434.025 916.625,433.425 916.925,433.35 920.075,428.775 922.475,425.4 919.1,420.225 916.625,416.4 912.725,413.7 912.425,413.475 912.125,413.25 907.475,411.375 905.6,410.025 902.375,407.625 902.075,400.725 901.775,393.9 910.925,353.625 L920.075,314.775 923.375,314.925 Q928.625,315.075 938.6,314.775 M853.85,336.825 L847.025,333 Q846.125,333.375 845.3,333.75 840.5,335.775 838.1,336.825 842.9,351.375 859.325,374.025 863.075,379.2 868.1,385.8 868.775,386.7 869.15,387.225 L869.075,387.6 Q868.7,387.375 868.1,386.775 M838.1,336.825 Q832.025,339.6 829.25,342 825.8,344.925 825.125,348.9 823.775,356.4 832.1,368.325 842.45,383.1 864.575,398.775 M845.3,333.75 L844.775,331.725 847.025,333 Q848.45,332.4 850.1,331.725 M655.775,216.525 Q651.65,219.075 647.525,222.225 633.725,232.95 627.2,242.25 623.225,247.95 621.95,253.125 618.425,266.775 618.95,278.775 619.475,290.775 622.775,305.55 624.725,310.275 627.2,315.075 627.95,316.575 628.775,318.075 639.725,338.4 655.025,352.725 671.375,368.025 692.975,373.575 702.875,376.05 710.975,376.2 716.45,376.275 721.1,375.225 720.5,375.9 758.975,405.375 774.2,417.075 789.5,428.625 793.55,431.7 797.6,434.775 L788.6,448.275 M763.1,410.25 L752.6,421.725" test="RightBum"/>
    </g>
    <g id="LeftBum">
      <path id="Layer1_0_1_STROKES" stroke="#FEB7AE" stroke-width="3" stroke-linejoin="round" stroke-linecap="round" fill="none" d="M-28.15,150 Q-6.625,136.05 15.875,125.025 38.225,114.15 59.3,107.175 86.525,98.175 104.75,98.25 127.7,98.325 144.275,103.95 163.775,110.625 178.85,126.3 186.05,133.725 187.85,149.85 189.2,161.625 187.55,175.8 186.275,186.525 179.15,195.675 174.95,201 165.275,211.95 166.775,213.45 168.125,214.875 174.725,221.925 179.9,231.3 183.425,237.675 185.3,245.775 186.95,252.9 187.4,261.375 188.075,274.575 185.75,287.7 185.225,290.475 184.55,293.25 175.55,332.775 152.9,356.25 135.5,374.25 112.775,385.5 112.475,385.65 95.15,393.6 85.1,398.25 78.875,402.3 69.575,408.3 62.375,413.925 55.85,419.025 47.9,426.3 41.075,432.45 38.675,439.5 35.75,447.975 40.85,454.05 42.425,456 47.825,458.775 53.225,461.55 52.85,460.275 M82.4,199.8 Q96.875,188.925 118.1,189.6 138.8,190.275 152.9,201.3 160.25,207.075 165.275,211.95 M-139.6,243.3 Q-134.125,243.15 -126.25,244.275 -121.75,244.95 -112.9,246.375 -106.525,247.2 -97.6,248.025 -92.5,248.475 -82.3,249.3 -75.7,249.825 -67.3,251.925 -65.65,252.3 -62.425,252.525 -60.25,252.6 -59.05,253.425 -56.2,255.375 -49.6,269.25 -42.7,283.8 -39.1,294.6 -36.025,303.9 -31.975,321.075 -30.175,328.65 -26.05,339.075 -20.8,352.35 -19.375,356.775 -18.925,358.125 -16.9,366.975 -14.8,375.525 -13.6,376.8 -11.575,379.05 -11.95,380.025 -11.95,380.175 -8.95,380.775 -4.075,381.75 2,387.075 8.075,392.25 11.6,398.55 15.575,405.375 14.3,409.95 12.8,415.275 4.4,416.025 .275,418.125 -6.775,416.55 -14.65,414.225 -18.175,413.775 -25.45,412.8 -34.9,414.675 -40.975,415.65 -43.825,416.25 -48.55,417.3 -52.3,419.4 -55.075,421.05 -58.675,423.825 -60.7,425.4 -64.675,428.625 -66.775,425.55 -64.225,418.875 -60.775,411.675 -59.725,409.35 -58.9,407.475 -56.125,404.85 -53.425,402.15 -52.75,400.65 -51.475,397.95 -53.2,390.075 -53.875,386.925 -56.05,379.35 -57.625,373.5 -61.525,366.75 -63.85,362.775 -69.1,355.125 M-54.1,397.275 Q-54.625,397.65 -62.575,401.1 -68.875,403.8 -70.675,406.575 -73.675,411.375 -74.2,415.65 -75.025,422.775 -71.65,436.275 -71.275,437.775 -70.825,439.2 -69.85,442.275 -68.5,445.2 -66.925,448.725 -64.75,452.025 -63.4,454.125 -54.1,465.75 M-69.1,355.125 Q-70.375,353.175 -75.025,347.325 -78.7,342.525 -80.65,339.225 -82,336.45 -82.825,334.95 -84.25,332.1 -85.6,331.275 -87.175,330.3 -91,330.225 -95.2,330.375 -96.625,330.3 -101.125,330.075 -107.875,330.525 -118.45,331.275 -119.125,331.275 -136.75,332.1 -148.15,330.375 -151.075,330 -158.35,327.225 -164.725,324.75 -168.625,324.75 M-38.65,465.3 Q-42.1,465 -45.7,461.325 -48.7,458.25 -50.65,454.275 -52.825,449.7 -53.725,445.35 -53.725,445.275 -53.725,445.2 -54.475,441.825 -54.25,439.2 -54.175,437.625 -53.725,436.35 -51.25,428.775 -44.05,424.05 -40.075,421.425 -29.65,417.3" test="LeftBum"/>
      <path id="Layer1_0_2_STROKES" stroke="#0FF" stroke-width="3" stroke-linejoin="round" stroke-linecap="round" fill="none" d="M-28.15,150 L-22.375,153.6 Q-15.325,158.175 -9.175,163.65 10.625,181.05 14.525,199.8 17.75,214.8 25.175,248.325 30.575,278.775 28.4,303.3 25.325,336.825 23.6,346.275 20.9,361.2 14.525,369.75 L2.9,385.8 M-69.1,355.125 L-71.65,392.25 -54.1,397.275 M-147.1,196.275 Q-135.4,193.2 -107.125,183.15 -82.075,174.3 -67.15,171.075 -59.425,169.425 -53.05,166.2 -48.1,163.65 -40.45,158.325 -34.3,154.05 -28.15,150" test="LeftBum"/>
    </g>
  </g>
</svg>