<?xml version="1.0" encoding="utf-8"?>
<svg id="EdithAnim08" image-rendering="inherit" baseProfile="basic" version="1.1" x="0px" y="0px" width="800" height="600" xmlns="http://www.w3.org/2000/svg" xmlns:xlink="http://www.w3.org/1999/xlink">
  <g id="No-Rear-To-Rearf93r1" overflow="visible">
    <g id="RightBum">
      <path id="Layer2_0_1_STROKES" stroke="#F0F" stroke-width="3" stroke-linejoin="round" stroke-linecap="round" fill="none" d="M856.825,168.075 L865.075,200.475 Q872.95,236.1 871.075,252.525 868.9,271.5 864.775,292.875 860.95,312.825 856.825,327.525 854.2,336.9 851.5,346.875 850.975,348.225 850.525,348.825 L875.05,342.75 M918.325,193.275 L836.95,156.975 M918.325,327.525 L946.825,323.775 M843.55,333.75 L844.3,336.825 Q845.95,342.825 847.825,347.1 849.25,350.325 850.525,348.825" test="RightBum"/>
      <path id="Layer2_0_2_STROKES" stroke="#F90" stroke-width="3" stroke-linejoin="round" stroke-linecap="round" fill="none" d="M875.05,342.75 L877.375,329.25 Q878.275,324 879.025,310.95 879.775,296.475 880.75,289.35 884.125,262.875 896.875,253.275 904,247.875 910.975,245.4 916.525,243.375 922,243.225 926.875,243.15 932.875,245.25 M836.95,156.975 Q752.125,119.025 732.325,111.225 719.875,106.35 709.225,103.95 698.05,101.475 688.975,101.775 669.925,102.45 655.375,115.275 639.7,128.925 632.125,146.925 624.1,166.125 628,184.275 631.3,199.875 642.925,209.625 648.775,214.5 654.025,216.525 670.975,205.875 687.85,205.275 M875.05,342.75 L867.4,387.225 Q867.925,388.05 867.325,387.6 L865.375,398.775 Q860.725,400.125 855.4,402.975 844.6,408.675 840.85,416.025 837.475,422.625 837.025,428.625 836.725,432.45 837.625,436.05 840.4,447.525 855.325,450.225 869.2,452.775 879.025,446.025 884.275,442.35 889.825,435.75 894.25,431.025 896.65,429.45 897.475,428.925 898.375,428.625 900.55,427.95 903.1,428.625 904.9,429.075 906.85,430.275 913.3,434.025 914.875,433.425 915.175,433.35 918.325,428.775 920.725,425.4 917.35,420.225 914.875,416.4 910.975,413.7 910.675,413.475 910.375,413.25 905.725,411.375 903.85,410.025 900.625,407.625 900.325,400.725 900.025,393.9 909.175,353.625 L918.325,314.775 921.625,314.925 Q926.875,315.075 936.85,314.775 M852.1,336.825 L845.275,333 Q844.375,333.375 843.55,333.75 838.75,335.775 836.35,336.825 841.15,351.375 857.575,374.025 861.325,379.2 866.35,385.8 867.025,386.7 867.4,387.225 L867.325,387.6 Q866.95,387.375 866.35,386.775 M836.35,336.825 Q830.275,339.6 827.5,342 824.05,344.925 823.375,348.9 822.025,356.4 830.35,368.325 840.7,383.1 862.825,398.775 M843.55,333.75 L843.025,331.725 845.275,333 Q846.7,332.4 848.35,331.725 M654.025,216.525 Q649.9,219.075 645.775,222.225 631.975,232.95 625.45,242.25 621.475,247.95 620.2,253.125 616.675,266.775 617.2,278.775 617.725,290.775 621.025,305.55 622.975,310.275 625.45,315.075 626.2,316.575 627.025,318.075 637.975,338.4 653.275,352.725 669.625,368.025 691.225,373.575 701.125,376.05 709.225,376.2 714.7,376.275 719.35,375.225 718.75,375.9 757.225,405.375 772.45,417.075 787.75,428.625 791.8,431.7 795.85,434.775 L786.85,448.275 M761.35,410.25 L750.85,421.725" test="RightBum"/>
    </g>
    <g id="LeftBum">
      <path id="Layer1_0_1_STROKES" stroke="#FEB7AE" stroke-width="3" stroke-linejoin="round" stroke-linecap="round" fill="none" d="M-26.4,150 Q-4.875,136.05 17.625,125.025 39.975,114.15 61.05,107.175 88.275,98.175 106.5,98.25 129.45,98.325 146.025,103.95 165.525,110.625 180.6,126.3 187.8,133.725 189.6,149.85 190.95,161.625 189.3,175.8 188.025,186.525 180.9,195.675 176.7,201 167.025,211.95 168.525,213.45 169.875,214.875 176.475,221.925 181.65,231.3 185.175,237.675 187.05,245.775 188.7,252.9 189.15,261.375 189.825,274.575 187.5,287.7 186.975,290.475 186.3,293.25 177.3,332.775 154.65,356.25 137.25,374.25 114.525,385.5 114.225,385.65 96.9,393.6 86.85,398.25 80.625,402.3 71.325,408.3 64.125,413.925 57.6,419.025 49.65,426.3 42.825,432.45 40.425,439.5 37.5,447.975 42.6,454.05 44.175,456 49.575,458.775 54.975,461.55 54.6,460.275 M84.15,199.8 Q98.625,188.925 119.85,189.6 140.55,190.275 154.65,201.3 162,207.075 167.025,211.95 M-137.85,243.3 Q-132.375,243.15 -124.5,244.275 -120,244.95 -111.15,246.375 -104.775,247.2 -95.85,248.025 -90.75,248.475 -80.55,249.3 -73.95,249.825 -65.55,251.925 -63.9,252.3 -60.675,252.525 -58.5,252.6 -57.3,253.425 -54.45,255.375 -47.85,269.25 -40.95,283.8 -37.35,294.6 -34.275,303.9 -30.225,321.075 -28.425,328.65 -24.3,339.075 -19.05,352.35 -17.625,356.775 -17.175,358.125 -15.15,366.975 -13.05,375.525 -11.85,376.8 -9.825,379.05 -10.2,380.025 -10.2,380.175 -7.2,380.775 -2.325,381.75 3.75,387.075 9.825,392.25 13.35,398.55 17.325,405.375 16.05,409.95 14.55,415.275 6.15,416.025 2.025,418.125 -5.025,416.55 -12.9,414.225 -16.425,413.775 -23.7,412.8 -33.15,414.675 -39.225,415.65 -42.075,416.25 -46.8,417.3 -50.55,419.4 -53.325,421.05 -56.925,423.825 -58.95,425.4 -62.925,428.625 -65.025,425.55 -62.475,418.875 -59.025,411.675 -57.975,409.35 -57.15,407.475 -54.375,404.85 -51.675,402.15 -51,400.65 -49.725,397.95 -51.45,390.075 -52.125,386.925 -54.3,379.35 -55.875,373.5 -59.775,366.75 -62.1,362.775 -67.35,355.125 M-52.35,397.275 Q-52.875,397.65 -60.825,401.1 -67.125,403.8 -68.925,406.575 -71.925,411.375 -72.45,415.65 -73.275,422.775 -69.9,436.275 -69.525,437.775 -69.075,439.2 -68.1,442.275 -66.75,445.2 -65.175,448.725 -63,452.025 -61.65,454.125 -52.35,465.75 M-67.35,355.125 Q-68.625,353.175 -73.275,347.325 -76.95,342.525 -78.9,339.225 -80.25,336.45 -81.075,334.95 -82.5,332.1 -83.85,331.275 -85.425,330.3 -89.25,330.225 -93.45,330.375 -94.875,330.3 -99.375,330.075 -106.125,330.525 -116.7,331.275 -117.375,331.275 -135,332.1 -146.4,330.375 -149.325,330 -156.6,327.225 -162.975,324.75 -166.875,324.75 M-36.9,465.3 Q-40.35,465 -43.95,461.325 -46.95,458.25 -48.9,454.275 -51.075,449.7 -51.975,445.35 -51.975,445.275 -51.975,445.2 -52.725,441.825 -52.5,439.2 -52.425,437.625 -51.975,436.35 -49.5,428.775 -42.3,424.05 -38.325,421.425 -27.9,417.3" test="LeftBum"/>
      <path id="Layer1_0_2_STROKES" stroke="#0FF" stroke-width="3" stroke-linejoin="round" stroke-linecap="round" fill="none" d="M-26.4,150 L-20.625,153.6 Q-13.575,158.175 -7.425,163.65 12.375,181.05 16.275,199.8 19.5,214.8 26.925,248.325 32.325,278.775 30.15,303.3 27.075,336.825 25.35,346.275 22.65,361.2 16.275,369.75 L4.65,385.8 M-67.35,355.125 L-69.9,392.25 -52.35,397.275 M-145.35,196.275 Q-133.65,193.2 -105.375,183.15 -80.325,174.3 -65.4,171.075 -57.675,169.425 -51.3,166.2 -46.35,163.65 -38.7,158.325 -32.55,154.05 -26.4,150" test="LeftBum"/>
    </g>
  </g>
</svg>