<?xml version="1.0" encoding="utf-8"?>
<svg id="EdithAnim08" image-rendering="inherit" baseProfile="basic" version="1.1" x="0px" y="0px" width="800" height="600" xmlns="http://www.w3.org/2000/svg" xmlns:xlink="http://www.w3.org/1999/xlink">
  <g id="No-Rear-To-Rearf94r1" overflow="visible">
    <g id="RightBum">
      <path id="Layer2_0_1_STROKES" stroke="#F0F" stroke-width="3" stroke-linejoin="round" stroke-linecap="round" fill="none" d="M855.075,168.075 L863.325,200.475 Q871.2,236.1 869.325,252.525 867.15,271.5 863.025,292.875 859.2,312.825 855.075,327.525 852.45,336.9 849.75,346.875 849.225,348.225 848.775,348.825 L873.3,342.75 M916.575,193.275 L835.2,156.975 M916.575,327.525 L945.075,323.775 M841.8,333.75 L842.55,336.825 Q844.2,342.825 846.075,347.1 847.5,350.325 848.775,348.825" test="RightBum"/>
      <path id="Layer2_0_2_STROKES" stroke="#F90" stroke-width="3" stroke-linejoin="round" stroke-linecap="round" fill="none" d="M873.3,342.75 L875.625,329.25 Q876.525,324 877.275,310.95 878.025,296.475 879,289.35 882.375,262.875 895.125,253.275 902.25,247.875 909.225,245.4 914.775,243.375 920.25,243.225 925.125,243.15 931.125,245.25 M835.2,156.975 Q750.375,119.025 730.575,111.225 718.125,106.35 707.475,103.95 696.3,101.475 687.225,101.775 668.175,102.45 653.625,115.275 637.95,128.925 630.375,146.925 622.35,166.125 626.25,184.275 629.55,199.875 641.175,209.625 647.025,214.5 652.275,216.525 669.225,205.875 686.1,205.275 M873.3,342.75 L865.65,387.225 Q866.175,388.05 865.575,387.6 L863.625,398.775 Q858.975,400.125 853.65,402.975 842.85,408.675 839.1,416.025 835.725,422.625 835.275,428.625 834.975,432.45 835.875,436.05 838.65,447.525 853.575,450.225 867.45,452.775 877.275,446.025 882.525,442.35 888.075,435.75 892.5,431.025 894.9,429.45 895.725,428.925 896.625,428.625 898.8,427.95 901.35,428.625 903.15,429.075 905.1,430.275 911.55,434.025 913.125,433.425 913.425,433.35 916.575,428.775 918.975,425.4 915.6,420.225 913.125,416.4 909.225,413.7 908.925,413.475 908.625,413.25 903.975,411.375 902.1,410.025 898.875,407.625 898.575,400.725 898.275,393.9 907.425,353.625 L916.575,314.775 919.875,314.925 Q925.125,315.075 935.1,314.775 M850.35,336.825 L843.525,333 Q842.625,333.375 841.8,333.75 837,335.775 834.6,336.825 839.4,351.375 855.825,374.025 859.575,379.2 864.6,385.8 865.275,386.7 865.65,387.225 L865.575,387.6 Q865.2,387.375 864.6,386.775 M834.6,336.825 Q828.525,339.6 825.75,342 822.3,344.925 821.625,348.9 820.275,356.4 828.6,368.325 838.95,383.1 861.075,398.775 M841.8,333.75 L841.275,331.725 843.525,333 Q844.95,332.4 846.6,331.725 M652.275,216.525 Q648.15,219.075 644.025,222.225 630.225,232.95 623.7,242.25 619.725,247.95 618.45,253.125 614.925,266.775 615.45,278.775 615.975,290.775 619.275,305.55 621.225,310.275 623.7,315.075 624.45,316.575 625.275,318.075 636.225,338.4 651.525,352.725 667.875,368.025 689.475,373.575 699.375,376.05 707.475,376.2 712.95,376.275 717.6,375.225 717,375.9 755.475,405.375 770.7,417.075 786,428.625 790.05,431.7 794.1,434.775 L785.1,448.275 M759.6,410.25 L749.1,421.725" test="RightBum"/>
    </g>
    <g id="LeftBum">
      <path id="Layer1_0_1_STROKES" stroke="#FEB7AE" stroke-width="3" stroke-linejoin="round" stroke-linecap="round" fill="none" d="M-24.6,150 Q-3.075,136.05 19.425,125.025 41.775,114.15 62.85,107.175 90.075,98.175 108.3,98.25 131.25,98.325 147.825,103.95 167.325,110.625 182.4,126.3 189.6,133.725 191.4,149.85 192.75,161.625 191.1,175.8 189.825,186.525 182.7,195.675 178.5,201 168.825,211.95 170.325,213.45 171.675,214.875 178.275,221.925 183.45,231.3 186.975,237.675 188.85,245.775 190.5,252.9 190.95,261.375 191.625,274.575 189.3,287.7 188.775,290.475 188.1,293.25 179.1,332.775 156.45,356.25 139.05,374.25 116.325,385.5 116.025,385.65 98.7,393.6 88.65,398.25 82.425,402.3 73.125,408.3 65.925,413.925 59.4,419.025 51.45,426.3 44.625,432.45 42.225,439.5 39.3,447.975 44.4,454.05 45.975,456 51.375,458.775 56.775,461.55 56.4,460.275 M85.95,199.8 Q100.425,188.925 121.65,189.6 142.35,190.275 156.45,201.3 163.8,207.075 168.825,211.95 M-136.05,243.3 Q-130.575,243.15 -122.7,244.275 -118.2,244.95 -109.35,246.375 -102.975,247.2 -94.05,248.025 -88.95,248.475 -78.75,249.3 -72.15,249.825 -63.75,251.925 -62.1,252.3 -58.875,252.525 -56.7,252.6 -55.5,253.425 -52.65,255.375 -46.05,269.25 -39.15,283.8 -35.55,294.6 -32.475,303.9 -28.425,321.075 -26.625,328.65 -22.5,339.075 -17.25,352.35 -15.825,356.775 -15.375,358.125 -13.35,366.975 -11.25,375.525 -10.05,376.8 -8.025,379.05 -8.4,380.025 -8.4,380.175 -5.4,380.775 -.525,381.75 5.55,387.075 11.625,392.25 15.15,398.55 19.125,405.375 17.85,409.95 16.35,415.275 7.95,416.025 3.825,418.125 -3.225,416.55 -11.1,414.225 -14.625,413.775 -21.9,412.8 -31.35,414.675 -37.425,415.65 -40.275,416.25 -45,417.3 -48.75,419.4 -51.525,421.05 -55.125,423.825 -57.15,425.4 -61.125,428.625 -63.225,425.55 -60.675,418.875 -57.225,411.675 -56.175,409.35 -55.35,407.475 -52.575,404.85 -49.875,402.15 -49.2,400.65 -47.925,397.95 -49.65,390.075 -50.325,386.925 -52.5,379.35 -54.075,373.5 -57.975,366.75 -60.3,362.775 -65.55,355.125 M-50.55,397.275 Q-51.075,397.65 -59.025,401.1 -65.325,403.8 -67.125,406.575 -70.125,411.375 -70.65,415.65 -71.475,422.775 -68.1,436.275 -67.725,437.775 -67.275,439.2 -66.3,442.275 -64.95,445.2 -63.375,448.725 -61.2,452.025 -59.85,454.125 -50.55,465.75 M-65.55,355.125 Q-66.825,353.175 -71.475,347.325 -75.15,342.525 -77.1,339.225 -78.45,336.45 -79.275,334.95 -80.7,332.1 -82.05,331.275 -83.625,330.3 -87.45,330.225 -91.65,330.375 -93.075,330.3 -97.575,330.075 -104.325,330.525 -114.9,331.275 -115.575,331.275 -133.2,332.1 -144.6,330.375 -147.525,330 -154.8,327.225 -161.175,324.75 -165.075,324.75 M-35.1,465.3 Q-38.55,465 -42.15,461.325 -45.15,458.25 -47.1,454.275 -49.275,449.7 -50.175,445.35 -50.175,445.275 -50.175,445.2 -50.925,441.825 -50.7,439.2 -50.625,437.625 -50.175,436.35 -47.7,428.775 -40.5,424.05 -36.525,421.425 -26.1,417.3" test="LeftBum"/>
      <path id="Layer1_0_2_STROKES" stroke="#0FF" stroke-width="3" stroke-linejoin="round" stroke-linecap="round" fill="none" d="M-24.6,150 L-18.825,153.6 Q-11.775,158.175 -5.625,163.65 14.175,181.05 18.075,199.8 21.3,214.8 28.725,248.325 34.125,278.775 31.95,303.3 28.875,336.825 27.15,346.275 24.45,361.2 18.075,369.75 L6.45,385.8 M-65.55,355.125 L-68.1,392.25 -50.55,397.275 M-143.55,196.275 Q-131.85,193.2 -103.575,183.15 -78.525,174.3 -63.6,171.075 -55.875,169.425 -49.5,166.2 -44.55,163.65 -36.9,158.325 -30.75,154.05 -24.6,150" test="LeftBum"/>
    </g>
  </g>
</svg>