<?xml version="1.0" encoding="utf-8"?>
<svg id="EdithAnim08" image-rendering="inherit" baseProfile="basic" version="1.1" x="0px" y="0px" width="800" height="600" xmlns="http://www.w3.org/2000/svg" xmlns:xlink="http://www.w3.org/1999/xlink">
  <g id="No-Rear-To-Rearf95r1" overflow="visible">
    <g id="RightBum">
      <path id="Layer2_0_1_STROKES" stroke="#F0F" stroke-width="3" stroke-linejoin="round" stroke-linecap="round" fill="none" d="M853.325,168.075 L861.575,200.475 Q869.45,236.1 867.575,252.525 865.4,271.5 861.275,292.875 857.45,312.825 853.325,327.525 850.7,336.9 848,346.875 847.475,348.225 847.025,348.825 L871.55,342.75 M914.825,193.275 L833.45,156.975 M914.825,327.525 L943.325,323.775 M840.05,333.75 L840.8,336.825 Q842.45,342.825 844.325,347.1 845.75,350.325 847.025,348.825" test="RightBum"/>
      <path id="Layer2_0_2_STROKES" stroke="#F90" stroke-width="3" stroke-linejoin="round" stroke-linecap="round" fill="none" d="M871.55,342.75 L873.875,329.25 Q874.775,324 875.525,310.95 876.275,296.475 877.25,289.35 880.625,262.875 893.375,253.275 900.5,247.875 907.475,245.4 913.025,243.375 918.5,243.225 923.375,243.15 929.375,245.25 M833.45,156.975 Q748.625,119.025 728.825,111.225 716.375,106.35 705.725,103.95 694.55,101.475 685.475,101.775 666.425,102.45 651.875,115.275 636.2,128.925 628.625,146.925 620.6,166.125 624.5,184.275 627.8,199.875 639.425,209.625 645.275,214.5 650.525,216.525 667.475,205.875 684.35,205.275 M871.55,342.75 L863.9,387.225 Q864.425,388.05 863.825,387.6 L861.875,398.775 Q857.225,400.125 851.9,402.975 841.1,408.675 837.35,416.025 833.975,422.625 833.525,428.625 833.225,432.45 834.125,436.05 836.9,447.525 851.825,450.225 865.7,452.775 875.525,446.025 880.775,442.35 886.325,435.75 890.75,431.025 893.15,429.45 893.975,428.925 894.875,428.625 897.05,427.95 899.6,428.625 901.4,429.075 903.35,430.275 909.8,434.025 911.375,433.425 911.675,433.35 914.825,428.775 917.225,425.4 913.85,420.225 911.375,416.4 907.475,413.7 907.175,413.475 906.875,413.25 902.225,411.375 900.35,410.025 897.125,407.625 896.825,400.725 896.525,393.9 905.675,353.625 L914.825,314.775 918.125,314.925 Q923.375,315.075 933.35,314.775 M848.6,336.825 L841.775,333 Q840.875,333.375 840.05,333.75 835.25,335.775 832.85,336.825 837.65,351.375 854.075,374.025 857.825,379.2 862.85,385.8 863.525,386.7 863.9,387.225 L863.825,387.6 Q863.45,387.375 862.85,386.775 M832.85,336.825 Q826.775,339.6 824,342 820.55,344.925 819.875,348.9 818.525,356.4 826.85,368.325 837.2,383.1 859.325,398.775 M840.05,333.75 L839.525,331.725 841.775,333 Q843.2,332.4 844.85,331.725 M650.525,216.525 Q646.4,219.075 642.275,222.225 628.475,232.95 621.95,242.25 617.975,247.95 616.7,253.125 613.175,266.775 613.7,278.775 614.225,290.775 617.525,305.55 619.475,310.275 621.95,315.075 622.7,316.575 623.525,318.075 634.475,338.4 649.775,352.725 666.125,368.025 687.725,373.575 697.625,376.05 705.725,376.2 711.2,376.275 715.85,375.225 715.25,375.9 753.725,405.375 768.95,417.075 784.25,428.625 788.3,431.7 792.35,434.775 L783.35,448.275 M757.85,410.25 L747.35,421.725" test="RightBum"/>
    </g>
    <g id="LeftBum">
      <path id="Layer1_0_1_STROKES" stroke="#FEB7AE" stroke-width="3" stroke-linejoin="round" stroke-linecap="round" fill="none" d="M-22.85,150 Q-1.325,136.05 21.175,125.025 43.525,114.15 64.6,107.175 91.825,98.175 110.05,98.25 133,98.325 149.575,103.95 169.075,110.625 184.15,126.3 191.35,133.725 193.15,149.85 194.5,161.625 192.85,175.8 191.575,186.525 184.45,195.675 180.25,201 170.575,211.95 172.075,213.45 173.425,214.875 180.025,221.925 185.2,231.3 188.725,237.675 190.6,245.775 192.25,252.9 192.7,261.375 193.375,274.575 191.05,287.7 190.525,290.475 189.85,293.25 180.85,332.775 158.2,356.25 140.8,374.25 118.075,385.5 117.775,385.65 100.45,393.6 90.4,398.25 84.175,402.3 74.875,408.3 67.675,413.925 61.15,419.025 53.2,426.3 46.375,432.45 43.975,439.5 41.05,447.975 46.15,454.05 47.725,456 53.125,458.775 58.525,461.55 58.15,460.275 M87.7,199.8 Q102.175,188.925 123.4,189.6 144.1,190.275 158.2,201.3 165.55,207.075 170.575,211.95 M-134.3,243.3 Q-128.825,243.15 -120.95,244.275 -116.45,244.95 -107.6,246.375 -101.225,247.2 -92.3,248.025 -87.2,248.475 -77,249.3 -70.4,249.825 -62,251.925 -60.35,252.3 -57.125,252.525 -54.95,252.6 -53.75,253.425 -50.9,255.375 -44.3,269.25 -37.4,283.8 -33.8,294.6 -30.725,303.9 -26.675,321.075 -24.875,328.65 -20.75,339.075 -15.5,352.35 -14.075,356.775 -13.625,358.125 -11.6,366.975 -9.5,375.525 -8.3,376.8 -6.275,379.05 -6.65,380.025 -6.65,380.175 -3.65,380.775 1.225,381.75 7.3,387.075 13.375,392.25 16.9,398.55 20.875,405.375 19.6,409.95 18.1,415.275 9.7,416.025 5.575,418.125 -1.475,416.55 -9.35,414.225 -12.875,413.775 -20.15,412.8 -29.6,414.675 -35.675,415.65 -38.525,416.25 -43.25,417.3 -47,419.4 -49.775,421.05 -53.375,423.825 -55.4,425.4 -59.375,428.625 -61.475,425.55 -58.925,418.875 -55.475,411.675 -54.425,409.35 -53.6,407.475 -50.825,404.85 -48.125,402.15 -47.45,400.65 -46.175,397.95 -47.9,390.075 -48.575,386.925 -50.75,379.35 -52.325,373.5 -56.225,366.75 -58.55,362.775 -63.8,355.125 M-48.8,397.275 Q-49.325,397.65 -57.275,401.1 -63.575,403.8 -65.375,406.575 -68.375,411.375 -68.9,415.65 -69.725,422.775 -66.35,436.275 -65.975,437.775 -65.525,439.2 -64.55,442.275 -63.2,445.2 -61.625,448.725 -59.45,452.025 -58.1,454.125 -48.8,465.75 M-63.8,355.125 Q-65.075,353.175 -69.725,347.325 -73.4,342.525 -75.35,339.225 -76.7,336.45 -77.525,334.95 -78.95,332.1 -80.3,331.275 -81.875,330.3 -85.7,330.225 -89.9,330.375 -91.325,330.3 -95.825,330.075 -102.575,330.525 -113.15,331.275 -113.825,331.275 -131.45,332.1 -142.85,330.375 -145.775,330 -153.05,327.225 -159.425,324.75 -163.325,324.75 M-33.35,465.3 Q-36.8,465 -40.4,461.325 -43.4,458.25 -45.35,454.275 -47.525,449.7 -48.425,445.35 -48.425,445.275 -48.425,445.2 -49.175,441.825 -48.95,439.2 -48.875,437.625 -48.425,436.35 -45.95,428.775 -38.75,424.05 -34.775,421.425 -24.35,417.3" test="LeftBum"/>
      <path id="Layer1_0_2_STROKES" stroke="#0FF" stroke-width="3" stroke-linejoin="round" stroke-linecap="round" fill="none" d="M-22.85,150 L-17.075,153.6 Q-10.025,158.175 -3.875,163.65 15.925,181.05 19.825,199.8 23.05,214.8 30.475,248.325 35.875,278.775 33.7,303.3 30.625,336.825 28.9,346.275 26.2,361.2 19.825,369.75 L8.2,385.8 M-63.8,355.125 L-66.35,392.25 -48.8,397.275 M-141.8,196.275 Q-130.1,193.2 -101.825,183.15 -76.775,174.3 -61.85,171.075 -54.125,169.425 -47.75,166.2 -42.8,163.65 -35.15,158.325 -29,154.05 -22.85,150" test="LeftBum"/>
    </g>
  </g>
</svg>