<?xml version="1.0" encoding="utf-8"?>
<svg id="EdithAnim08" image-rendering="inherit" baseProfile="basic" version="1.1" x="0px" y="0px" width="800" height="600" xmlns="http://www.w3.org/2000/svg" xmlns:xlink="http://www.w3.org/1999/xlink">
  <g id="No-Rear-To-Rearf97r1" overflow="visible">
    <g id="RightBum">
      <path id="Layer2_0_1_STROKES" stroke="#F0F" stroke-width="3" stroke-linejoin="round" stroke-linecap="round" fill="none" d="M849.875,168.075 L858.125,200.475 Q866,236.1 864.125,252.525 861.95,271.5 857.825,292.875 854,312.825 849.875,327.525 847.25,336.9 844.55,346.875 844.025,348.225 843.575,348.825 L868.1,342.75 M911.375,193.275 L830,156.975 M911.375,327.525 L939.875,323.775 M836.6,333.75 L837.35,336.825 Q839,342.825 840.875,347.1 842.3,350.325 843.575,348.825" test="RightBum"/>
      <path id="Layer2_0_2_STROKES" stroke="#F90" stroke-width="3" stroke-linejoin="round" stroke-linecap="round" fill="none" d="M868.1,342.75 L870.425,329.25 Q871.325,324 872.075,310.95 872.825,296.475 873.8,289.35 877.175,262.875 889.925,253.275 897.05,247.875 904.025,245.4 909.575,243.375 915.05,243.225 919.925,243.15 925.925,245.25 M830,156.975 Q745.175,119.025 725.375,111.225 712.925,106.35 702.275,103.95 691.1,101.475 682.025,101.775 662.975,102.45 648.425,115.275 632.75,128.925 625.175,146.925 617.15,166.125 621.05,184.275 624.35,199.875 635.975,209.625 641.825,214.5 647.075,216.525 664.025,205.875 680.9,205.275 M868.1,342.75 L860.45,387.225 Q860.975,388.05 860.375,387.6 L858.425,398.775 Q853.775,400.125 848.45,402.975 837.65,408.675 833.9,416.025 830.525,422.625 830.075,428.625 829.775,432.45 830.675,436.05 833.45,447.525 848.375,450.225 862.25,452.775 872.075,446.025 877.325,442.35 882.875,435.75 887.3,431.025 889.7,429.45 890.525,428.925 891.425,428.625 893.6,427.95 896.15,428.625 897.95,429.075 899.9,430.275 906.35,434.025 907.925,433.425 908.225,433.35 911.375,428.775 913.775,425.4 910.4,420.225 907.925,416.4 904.025,413.7 903.725,413.475 903.425,413.25 898.775,411.375 896.9,410.025 893.675,407.625 893.375,400.725 893.075,393.9 902.225,353.625 L911.375,314.775 914.675,314.925 Q919.925,315.075 929.9,314.775 M845.15,336.825 L838.325,333 Q837.425,333.375 836.6,333.75 831.8,335.775 829.4,336.825 834.2,351.375 850.625,374.025 854.375,379.2 859.4,385.8 860.075,386.7 860.45,387.225 L860.375,387.6 Q860,387.375 859.4,386.775 M829.4,336.825 Q823.325,339.6 820.55,342 817.1,344.925 816.425,348.9 815.075,356.4 823.4,368.325 833.75,383.1 855.875,398.775 M836.6,333.75 L836.075,331.725 838.325,333 Q839.75,332.4 841.4,331.725 M647.075,216.525 Q642.95,219.075 638.825,222.225 625.025,232.95 618.5,242.25 614.525,247.95 613.25,253.125 609.725,266.775 610.25,278.775 610.775,290.775 614.075,305.55 616.025,310.275 618.5,315.075 619.25,316.575 620.075,318.075 631.025,338.4 646.325,352.725 662.675,368.025 684.275,373.575 694.175,376.05 702.275,376.2 707.75,376.275 712.4,375.225 711.8,375.9 750.275,405.375 765.5,417.075 780.8,428.625 784.85,431.7 788.9,434.775 L779.9,448.275 M754.4,410.25 L743.9,421.725" test="RightBum"/>
    </g>
    <g id="LeftBum">
      <path id="Layer1_0_1_STROKES" stroke="#FEB7AE" stroke-width="3" stroke-linejoin="round" stroke-linecap="round" fill="none" d="M-19.35,150 Q2.175,136.05 24.675,125.025 47.025,114.15 68.1,107.175 95.325,98.175 113.55,98.25 136.5,98.325 153.075,103.95 172.575,110.625 187.65,126.3 194.85,133.725 196.65,149.85 198,161.625 196.35,175.8 195.075,186.525 187.95,195.675 183.75,201 174.075,211.95 175.575,213.45 176.925,214.875 183.525,221.925 188.7,231.3 192.225,237.675 194.1,245.775 195.75,252.9 196.2,261.375 196.875,274.575 194.55,287.7 194.025,290.475 193.35,293.25 184.35,332.775 161.7,356.25 144.3,374.25 121.575,385.5 121.275,385.65 103.95,393.6 93.9,398.25 87.675,402.3 78.375,408.3 71.175,413.925 64.65,419.025 56.7,426.3 49.875,432.45 47.475,439.5 44.55,447.975 49.65,454.05 51.225,456 56.625,458.775 62.025,461.55 61.65,460.275 M91.2,199.8 Q105.675,188.925 126.9,189.6 147.6,190.275 161.7,201.3 169.05,207.075 174.075,211.95 M-130.8,243.3 Q-125.325,243.15 -117.45,244.275 -112.95,244.95 -104.1,246.375 -97.725,247.2 -88.8,248.025 -83.7,248.475 -73.5,249.3 -66.9,249.825 -58.5,251.925 -56.85,252.3 -53.625,252.525 -51.45,252.6 -50.25,253.425 -47.4,255.375 -40.8,269.25 -33.9,283.8 -30.3,294.6 -27.225,303.9 -23.175,321.075 -21.375,328.65 -17.25,339.075 -12,352.35 -10.575,356.775 -10.125,358.125 -8.1,366.975 -6,375.525 -4.8,376.8 -2.775,379.05 -3.15,380.025 -3.15,380.175 -.15,380.775 4.725,381.75 10.8,387.075 16.875,392.25 20.4,398.55 24.375,405.375 23.1,409.95 21.6,415.275 13.2,416.025 9.075,418.125 2.025,416.55 -5.85,414.225 -9.375,413.775 -16.65,412.8 -26.1,414.675 -32.175,415.65 -35.025,416.25 -39.75,417.3 -43.5,419.4 -46.275,421.05 -49.875,423.825 -51.9,425.4 -55.875,428.625 -57.975,425.55 -55.425,418.875 -51.975,411.675 -50.925,409.35 -50.1,407.475 -47.325,404.85 -44.625,402.15 -43.95,400.65 -42.675,397.95 -44.4,390.075 -45.075,386.925 -47.25,379.35 -48.825,373.5 -52.725,366.75 -55.05,362.775 -60.3,355.125 M-45.3,397.275 Q-45.825,397.65 -53.775,401.1 -60.075,403.8 -61.875,406.575 -64.875,411.375 -65.4,415.65 -66.225,422.775 -62.85,436.275 -62.475,437.775 -62.025,439.2 -61.05,442.275 -59.7,445.2 -58.125,448.725 -55.95,452.025 -54.6,454.125 -45.3,465.75 M-60.3,355.125 Q-61.575,353.175 -66.225,347.325 -69.9,342.525 -71.85,339.225 -73.2,336.45 -74.025,334.95 -75.45,332.1 -76.8,331.275 -78.375,330.3 -82.2,330.225 -86.4,330.375 -87.825,330.3 -92.325,330.075 -99.075,330.525 -109.65,331.275 -110.325,331.275 -127.95,332.1 -139.35,330.375 -142.275,330 -149.55,327.225 -155.925,324.75 -159.825,324.75 M-29.85,465.3 Q-33.3,465 -36.9,461.325 -39.9,458.25 -41.85,454.275 -44.025,449.7 -44.925,445.35 -44.925,445.275 -44.925,445.2 -45.675,441.825 -45.45,439.2 -45.375,437.625 -44.925,436.35 -42.45,428.775 -35.25,424.05 -31.275,421.425 -20.85,417.3" test="LeftBum"/>
      <path id="Layer1_0_2_STROKES" stroke="#0FF" stroke-width="3" stroke-linejoin="round" stroke-linecap="round" fill="none" d="M-19.35,150 L-13.575,153.6 Q-6.525,158.175 -.375,163.65 19.425,181.05 23.325,199.8 26.55,214.8 33.975,248.325 39.375,278.775 37.2,303.3 34.125,336.825 32.4,346.275 29.7,361.2 23.325,369.75 L11.7,385.8 M-60.3,355.125 L-62.85,392.25 -45.3,397.275 M-138.3,196.275 Q-126.6,193.2 -98.325,183.15 -73.275,174.3 -58.35,171.075 -50.625,169.425 -44.25,166.2 -39.3,163.65 -31.65,158.325 -25.5,154.05 -19.35,150" test="LeftBum"/>
    </g>
  </g>
</svg>