<?xml version="1.0" encoding="utf-8"?>
<svg id="EdithAnim12" image-rendering="inherit" baseProfile="basic" version="1.1" x="0px" y="0px" width="800" height="600" xmlns="http://www.w3.org/2000/svg" xmlns:xlink="http://www.w3.org/1999/xlink">
  <g id="14_JurorParrotf0r1" overflow="visible">
    <g id="JurorsBack">
      <path fill="#000" stroke="none" d="M1443.82,132.28 Q1441.82,132.96 1439.9,133.8 1422.5,140.68 1410.74,155.16 1398.38,170.36 1399.22,190 1400.02,209.2 1410.02,225.68 1415.22,234.28 1431.38,242.24 1439.7,246.32 1446.46,248.08 1452.7,249.68 1457.62,249.28 1460.3,249.08 1463.58,247.76 1471.86,244.44 1484.02,234.2 1490.94,228.36 1496.06,222.64 1501.26,216.84 1502.18,213.84 1505.82,202.2 1505.5,189.96 1504.94,170.36 1493.74,154.52 1488.66,147.4 1481.02,142.84 1464.18,132.76 1444.42,134.16 L1443.82,132.28 M1427.82,182 L1423.86,184.92 1427.82,182 M1464.46,173.04 L1460.46,175.96 1464.46,173.04 M1459.9,226.92 Q1458.78,226.72 1457.66,226.56 1458.78,226.72 1459.9,226.92 1471.42,228.52 1477.5,218.56 1471.42,228.52 1459.9,226.92 M1224.06,138.16 Q1215.5,140.36 1208.1,145.2 1200.82,149.92 1194.54,156.12 1188.14,162.52 1184.06,170.68 1179.94,179.04 1178.94,188.2 1177.94,197.32 1180.02,206.2 1182.1,215.28 1186.66,223.28 1191.22,231.24 1197.74,237.68 1204.5,244.32 1212.94,248.56 1217.58,250.96 1222.58,252.28 1226.38,253.24 1230.38,253.6 1232.86,253.52 1235.34,253.24 1242.14,252.44 1248.7,250.24 1257.7,247.24 1265.26,241.4 1272.78,235.52 1277.42,227 1281.7,219.12 1283.82,210.48 1285.94,201.84 1285.18,192.92 1284.38,183.56 1280.22,175 1276.26,166.8 1270.3,159.96 1264.5,153.32 1257.86,147.48 1250.74,141.32 1241.62,138.52 1232.94,135.76 1224.06,138.16 M1249.42,177.28 Q1251.46,178.6 1251.46,180.44 1251.46,178.6 1249.42,177.28 1247.34,175.96 1244.42,175.96 1247.34,175.96 1249.42,177.28 M1218.22,174.8 Q1220.1,175.92 1220.1,177.52 1220.1,175.92 1218.22,174.8 1216.34,173.68 1213.7,173.68 1216.34,173.68 1218.22,174.8 M1211.66,231.04 Q1211.54,231.16 1211.54,231.4 1211.54,231.16 1211.66,231.04 1215.1,227.84 1218.18,231.04 1215.1,227.84 1211.66,231.04 M1000.06,141.76 L1000.34,142.48 1005.18,141.12 1000.34,142.48 Q993.82,144.96 988.1,149 981.58,153.68 976.98,160.24 972.86,166.08 970.34,172.88 967.94,179.48 967.22,186.48 966.46,193.64 967.5,200.64 968.62,208.08 971.9,214.88 975.02,221.44 980.34,226.48 985.7,231.56 992.34,235.04 996.7,237.36 1001.46,238.56 1004.3,239.24 1007.3,239.56 1014.14,240.56 1020.98,239.12 1021.54,239 1022.14,238.88 1028.66,237.32 1034.7,234.24 1041.14,230.84 1046.38,225.88 1051.66,220.8 1055.42,214.28 1059.02,208.16 1060.74,201.24 1062.46,194.4 1061.98,187.4 1061.46,180.08 1059.3,173.16 1057.18,166.36 1053.34,160.48 1049.5,154.56 1044.34,149.48 1038.86,144.16 1031.98,141 1024.94,137.76 1017.02,137.56 1010.3,138.24 1003.66,140.32 1002.06,140.8 1000.42,141.16 L1000.06,141.76 M1013.18,174.08 L1018.62,174.72 1013.18,174.08 M1017.62,221.96 Q1019.58,220.56 1019.58,218.56 1019.58,220.56 1017.62,221.96 1015.66,223.36 1012.86,223.36 1015.66,223.36 1017.62,221.96 M993.34,179.96 L987.9,179.32 993.34,179.96 M1857.58,135.88 Q1849.18,137.76 1841.54,142 1833.26,146.64 1827.3,154.04 1821.7,161 1819.26,169.56 1816.7,178.36 1816.3,187.6 1815.9,196.6 1817.06,205.56 1818.18,214.44 1823.18,221.88 1828.34,229.56 1835.86,234.8 1843.14,239.92 1851.46,243.08 1860.3,246.36 1869.74,246.8 1878.74,247.56 1887.14,244.16 1895.94,240.68 1902.26,233.48 1908.62,226.28 1912.58,217.72 1916.54,209.12 1918.18,199.68 1919.74,190.68 1918.62,181.56 1917.46,172.04 1913.18,163.36 1908.94,154.88 1901.98,148.52 1896.06,143.08 1889.22,138.84 1882.7,134.76 1875.38,132.28 L1874.78,134.16 Q1866.06,134.12 1857.58,135.88 M1882.46,177.52 L1886.3,180.44 1882.46,177.52 M1850.78,180.44 L1854.62,183.36 1850.78,180.44 M1850.7,221.72 Q1851.38,221.56 1852.06,221.44 1851.38,221.56 1850.7,221.72 1845.46,223.2 1842.78,218.56 1845.46,223.2 1850.7,221.72 M1633.9,166.6 Q1629.94,174.52 1628.42,183.12 1626.86,191.84 1628.14,200.56 1629.5,209.92 1634.18,217.96 1638.82,225.92 1646.14,231.4 1653.74,237 1662.78,239.28 1664.46,239.68 1666.1,239.96 1671.98,240.88 1677.9,240.08 1679.58,239.8 1681.26,239.44 1690.34,237.48 1698.22,232.84 1706.34,228.2 1712.06,220.96 1717.82,213.68 1720.5,204.8 1723.1,196.32 1722.42,187.36 1721.74,178.64 1718.54,170.6 1715.06,162 1709.26,154.76 1703.62,147.76 1695.74,143.36 1687.98,139.04 1679.02,139.12 1669.7,139.2 1660.62,141.12 L1660.26,141.76 1660.54,142.48 1665.38,141.12 1660.54,142.48 Q1652.42,146.08 1645.5,151.88 1638.14,158.08 1633.9,166.6 M1653.54,179.96 L1648.1,179.32 1653.54,179.96 M1673.38,174.08 L1678.82,174.72 1673.38,174.08 M1673.06,223.36 Q1675.86,223.36 1677.82,221.96 1679.78,220.56 1679.78,218.56 1679.78,220.56 1677.82,221.96 1675.86,223.36 1673.06,223.36Z" test="JurorsBack" vector-effect="non-scaling-stroke" stroke-width="1"/>
      <path id="Layer3_0_1_STROKES" stroke="#FFF" stroke-width="1.6" stroke-linejoin="round" stroke-linecap="round" fill="none" d="M1660.54,142.48 Q1652.42,146.08 1645.5,151.88 1638.14,158.08 1633.9,166.6 1629.94,174.52 1628.42,183.12 1626.86,191.84 1628.14,200.56 1629.5,209.92 1634.18,217.96 1638.82,225.92 1646.14,231.4 1653.74,237 1662.78,239.28 1664.46,239.68 1666.1,239.96 1671.98,240.88 1677.9,240.08 1679.58,239.8 1681.26,239.44 1690.34,237.48 1698.22,232.84 1706.34,228.2 1712.06,220.96 1717.82,213.68 1720.5,204.8 1723.1,196.32 1722.42,187.36 1721.74,178.64 1718.54,170.6 1715.06,162 1709.26,154.76 1703.62,147.76 1695.74,143.36 1687.98,139.04 1679.02,139.12 1669.7,139.2 1660.62,141.12 L1660.26,141.76 M1665.38,141.12 L1660.54,142.48 M1653.54,179.96 L1648.1,179.32 M1673.38,174.08 L1678.82,174.72 M1673.06,223.36 Q1675.86,223.36 1677.82,221.96 1679.78,220.56 1679.78,218.56 M1874.78,134.16 Q1866.06,134.12 1857.58,135.88 1849.18,137.76 1841.54,142 1833.26,146.64 1827.3,154.04 1821.7,161 1819.26,169.56 1816.7,178.36 1816.3,187.6 1815.9,196.6 1817.06,205.56 1818.18,214.44 1823.18,221.88 1828.34,229.56 1835.86,234.8 1843.14,239.92 1851.46,243.08 1860.3,246.36 1869.74,246.8 1878.74,247.56 1887.14,244.16 1895.94,240.68 1902.26,233.48 1908.62,226.28 1912.58,217.72 1916.54,209.12 1918.18,199.68 1919.74,190.68 1918.62,181.56 1917.46,172.04 1913.18,163.36 1908.94,154.88 1901.98,148.52 1896.06,143.08 1889.22,138.84 1882.7,134.76 1875.38,132.28 L1866.78,130.8 M1882.46,177.52 L1886.3,180.44 M1850.78,180.44 L1854.62,183.36 M1842.78,218.56 Q1845.46,223.2 1850.7,221.72 1851.38,221.56 1852.06,221.44 M1872.42,251.72 Q1873.22,252.72 1874.06,253.76 1897.22,283.08 1908.74,320.04 1915.74,342.56 1922.78,364.96 M1812.38,366.68 Q1816.78,322.92 1838.74,285.92 1849.58,267.6 1864.22,253.76 1865.3,252.72 1866.38,251.72 M1625.9,372.16 Q1630.38,345.08 1637.94,319.12 1641.22,307.84 1644.34,296.44 1651.22,271.32 1661.38,249 1662.74,246.04 1664.22,243.28 M1679.9,243.28 Q1688.74,257.88 1695.02,275.36 1703.94,300.2 1711.86,325.96 1717.14,343.08 1722.34,360.28 M1005.18,141.12 L1000.34,142.48 Q993.82,144.96 988.1,149 981.58,153.68 976.98,160.24 972.86,166.08 970.34,172.88 967.94,179.48 967.22,186.48 966.46,193.64 967.5,200.64 968.62,208.08 971.9,214.88 975.02,221.44 980.34,226.48 985.7,231.56 992.34,235.04 996.7,237.36 1001.46,238.56 1004.3,239.24 1007.3,239.56 1014.14,240.56 1020.98,239.12 1021.54,239 1022.14,238.88 1028.66,237.32 1034.7,234.24 1041.14,230.84 1046.38,225.88 1051.66,220.8 1055.42,214.28 1059.02,208.16 1060.74,201.24 1062.46,194.4 1061.98,187.4 1061.46,180.08 1059.3,173.16 1057.18,166.36 1053.34,160.48 1049.5,154.56 1044.34,149.48 1038.86,144.16 1031.98,141 1024.94,137.76 1017.02,137.56 1010.3,138.24 1003.66,140.32 1002.06,140.8 1000.42,141.16 L1000.06,141.76 M1013.18,174.08 L1018.62,174.72 M1012.86,223.36 Q1015.66,223.36 1017.62,221.96 1019.58,220.56 1019.58,218.56 M1230.38,253.6 Q1232.86,253.52 1235.34,253.24 1242.14,252.44 1248.7,250.24 1257.7,247.24 1265.26,241.4 1272.78,235.52 1277.42,227 1281.7,219.12 1283.82,210.48 1285.94,201.84 1285.18,192.92 1284.38,183.56 1280.22,175 1276.26,166.8 1270.3,159.96 1264.5,153.32 1257.86,147.48 1250.74,141.32 1241.62,138.52 1232.94,135.76 1224.06,138.16 1215.5,140.36 1208.1,145.2 1200.82,149.92 1194.54,156.12 1188.14,162.52 1184.06,170.68 1179.94,179.04 1178.94,188.2 1177.94,197.32 1180.02,206.2 1182.1,215.28 1186.66,223.28 1191.22,231.24 1197.74,237.68 1204.5,244.32 1212.94,248.56 1217.58,250.96 1222.58,252.28 1226.38,253.24 1230.38,253.6Z M1244.42,175.96 Q1247.34,175.96 1249.42,177.28 1251.46,178.6 1251.46,180.44 M1213.7,173.68 Q1216.34,173.68 1218.22,174.8 1220.1,175.92 1220.1,177.52 M1444.42,134.16 Q1464.18,132.76 1481.02,142.84 1488.66,147.4 1493.74,154.52 1504.94,170.36 1505.5,189.96 1505.82,202.2 1502.18,213.84 1501.26,216.84 1496.06,222.64 1490.94,228.36 1484.02,234.2 1471.86,244.44 1463.58,247.76 1460.3,249.08 1457.62,249.28 1452.7,249.68 1446.46,248.08 1439.7,246.32 1431.38,242.24 1415.22,234.28 1410.02,225.68 1400.02,209.2 1399.22,190 1398.38,170.36 1410.74,155.16 1422.5,140.68 1439.9,133.8 1441.82,132.96 1443.82,132.28 M1427.82,182 L1423.86,184.92 M1464.46,173.04 L1460.46,175.96 M1477.5,218.56 Q1471.42,228.52 1459.9,226.92 1458.78,226.72 1457.66,226.56 M993.34,179.96 L987.9,179.32 M966.42,346.92 Q967.38,341.12 968.98,335.4 974.98,313.76 981.02,292.04 987.54,268.72 997.1,247.36 997.74,245.92 999.78,241.88 M1503.7,355.32 Q1500.58,329.04 1490.98,305.6 1481.58,282.52 1471.22,259.96 1469.18,255.56 1466.7,251.88 M1444.66,251.88 Q1441.78,258.64 1440.3,266.36 1438.42,276.12 1436.02,285.6 1430.38,307.8 1425.98,330.48 1423.58,343 1421.22,355.32 M1237.74,256.8 Q1242.26,263.72 1246.02,271.36 1255.18,290.04 1263.62,308.92 1271.14,325.76 1275.98,344 M1218.18,231.04 Q1215.1,227.84 1211.66,231.04 1211.54,231.16 1211.54,231.4 M1180.66,344 Q1182.62,337.76 1185.14,331.72 1194.26,310.16 1203.54,288.52 1210.34,272.6 1218.94,258.2 1219.34,257.48 1219.78,256.8 M1023.54,242.28 Q1031.02,253.12 1034.82,262.76 1043.7,285.28 1051.62,308.68 1056.9,324.16 1062.14,339.72" test="JurorsBack"/>
    </g>
    <g id="Tween-1">
      <g id="JurorsFront">
        <path fill="#000" stroke="none" d="M1392.676,275.215 Q1385.947,275.896 1379.299,277.979 1377.697,278.459 1376.055,278.82 L1375.695,279.42 1375.935,280.101 1380.821,278.78 1375.935,280.101 Q1369.447,282.624 1363.72,286.669 1357.192,291.355 1352.586,297.924 1348.461,303.771 1345.937,310.579 1343.534,317.188 1342.814,324.196 1342.053,331.365 1343.094,338.374 1344.215,345.823 1347.499,352.632 1350.623,359.2 1355.95,364.246 1361.317,369.333 1367.965,372.817 1372.335,375.139 1377.056,376.301 1379.944,377.041 1382.944,377.343 1389.792,378.344 1396.641,376.902 1397.21,376.781 1397.762,376.622 1404.332,375.113 1410.378,372.016 1416.826,368.612 1422.073,363.646 1427.359,358.559 1431.124,352.031 1434.728,345.903 1436.45,338.975 1438.173,332.126 1437.692,325.117 1437.171,317.788 1435.009,310.86 1432.886,304.051 1429.041,298.164 1425.196,292.236 1420.03,287.15 1414.543,281.823 1407.654,278.659 1400.606,275.415 1392.676,275.215 M1368.966,317.668 L1363.519,317.027 1368.966,317.668 M1388.831,311.781 L1394.278,312.422 1388.831,311.781 M1388.511,361.122 Q1391.314,361.122 1393.277,359.721 1395.239,358.319 1395.239,356.316 1395.239,358.319 1393.277,359.721 1391.314,361.122 1388.511,361.122 M1169.637,260.917 L1169.037,262.84 Q1131.109,260.757 1116.09,295.16 1107.6,314.664 1112.326,335.33 1118.614,362.885 1146.208,372.817 1150.813,374.409 1155.94,375.621 1158.266,376.159 1160.666,376.622 1161.674,376.808 1163.189,376.862 1164.682,376.854 1166.594,376.622 1167.926,376.465 1169.197,376.261 1200.219,371.234 1210.288,337.573 1220.781,302.489 1194.869,276.377 1184.135,265.643 1169.637,260.917 M1176.726,306.254 L1180.571,309.178 1176.726,306.254 M1145.007,309.178 L1148.851,312.101 1145.007,309.178 M1144.927,350.509 Q1145.607,350.349 1146.288,350.229 1145.607,350.349 1144.927,350.509 1139.64,351.991 1136.997,347.345 1139.64,351.991 1144.927,350.509 M993.778,356.917 Q998.984,337.453 990.494,319.31 983.765,304.932 973.152,293.158 962.539,281.423 946.959,279.701 926.053,279.941 946.839,280.021 927.495,282.544 911.755,293.959 894.814,306.214 890.769,326.599 886.764,346.825 895.014,365.528 902.704,383.07 918.564,393.883 925.682,398.687 933.823,399.931 936.687,400.371 939.67,400.371 942.062,400.691 944.356,400.772 961.21,401.351 974.233,389.278 988.691,375.941 993.778,356.917 M938.389,327 Q940.271,328.121 940.271,329.723 940.271,328.121 938.389,327 936.506,325.878 933.863,325.878 936.506,325.878 938.389,327 M960.616,327.841 Q962.699,329.162 962.699,331.005 962.699,329.162 960.616,327.841 958.574,326.519 955.65,326.519 958.574,326.519 960.616,327.841 M912.076,361.763 L931.3,368.171 912.076,361.763 M1888.695,271.811 L1888.094,269.888 Q1886.092,270.609 1884.169,271.45 1866.748,278.339 1854.973,292.837 1842.597,308.056 1843.439,327.721 1844.24,346.945 1854.252,363.445 1859.459,372.056 1875.639,380.026 1883.958,384.102 1890.698,385.833 1896.983,387.459 1901.912,387.075 1904.594,386.859 1907.879,385.553 1916.184,382.243 1928.345,371.976 1935.273,366.129 1940.4,360.402 1945.606,354.594 1946.527,351.59 1950.172,339.936 1949.851,327.681 1949.291,308.056 1938.077,292.196 1932.99,285.067 1925.341,280.502 1908.48,270.409 1888.695,271.811 M1872.074,319.711 L1868.109,322.634 1872.074,319.711 M1908.76,310.739 L1904.755,313.663 1908.76,310.739 M1904.194,364.687 Q1903.073,364.487 1901.952,364.326 1903.073,364.487 1904.194,364.687 1915.729,366.289 1921.816,356.316 1915.729,366.289 1904.194,364.687 M1668.62,276.176 Q1659.929,273.413 1651.038,275.816 1642.468,278.019 1635.058,282.865 1627.769,287.591 1621.481,293.798 1615.073,300.206 1610.988,308.377 1606.863,316.747 1605.862,325.918 1604.861,335.05 1606.943,343.941 1609.026,353.032 1613.592,361.042 1618.157,369.012 1624.685,375.46 1631.454,382.109 1639.904,386.354 1644.567,388.753 1649.516,390.039 1653.361,391.052 1657.366,391.4 1659.861,391.304 1662.332,391 1669.126,390.24 1675.709,388.036 1684.72,385.032 1692.29,379.185 1699.819,373.298 1704.465,364.767 1708.75,356.877 1710.873,348.226 1712.996,339.576 1712.235,330.644 1711.434,321.273 1707.269,312.702 1703.304,304.492 1697.336,297.643 1691.529,290.995 1684.881,285.148 1677.752,278.98 1668.62,276.176 M1676.39,314.985 Q1678.473,316.306 1678.473,318.149 1678.473,316.306 1676.39,314.985 1674.347,313.663 1671.424,313.663 1674.347,313.663 1676.39,314.985 M1645.191,312.502 Q1647.073,313.623 1647.073,315.225 1647.073,313.623 1645.191,312.502 1643.309,311.38 1640.665,311.38 1643.309,311.38 1645.191,312.502 M1638.623,368.812 Q1638.503,368.932 1638.503,369.172 1638.503,368.932 1638.623,368.812 1642.067,365.608 1645.151,368.812 1642.067,365.608 1638.623,368.812 M2090.026,289.553 Q2082.657,295.761 2078.412,304.291 2074.447,312.221 2072.925,320.832 2071.363,329.563 2072.645,338.294 2074.006,347.666 2078.692,355.716 2083.338,363.686 2090.667,369.172 2098.277,374.779 2107.328,377.062 2108.991,377.467 2110.652,377.703 2116.531,378.659 2122.427,377.823 2124.134,377.602 2125.831,377.222 2134.922,375.26 2142.812,370.614 2150.942,365.968 2156.67,358.719 2162.437,351.43 2165.12,342.539 2167.723,334.049 2167.043,325.077 2166.362,316.347 2163.158,308.296 2159.673,299.686 2153.866,292.437 2148.219,285.428 2140.329,281.022 2132.56,276.697 2123.588,276.777 2114.257,276.857 2105.165,278.78 L2104.805,279.42 2105.085,280.141 2109.931,278.78 2105.085,280.141 Q2096.955,283.746 2090.026,289.553 M2117.941,311.781 L2123.388,312.422 2117.941,311.781 M2098.076,317.668 L2092.63,317.027 2098.076,317.668 M2117.621,361.122 Q2120.424,361.122 2122.387,359.721 2124.349,358.319 2124.349,356.316 2124.349,358.319 2122.387,359.721 2120.424,361.122 2117.621,361.122Z" test="JurorsFront" vector-effect="non-scaling-stroke" stroke-width="1"/>
        <path id="Layer4_0_1_STROKES" stroke="#FFF" stroke-width="1.602" stroke-linejoin="round" stroke-linecap="round" fill="none" d="M2105.085,280.141 Q2096.955,283.746 2090.026,289.553 2082.657,295.761 2078.412,304.291 2074.447,312.221 2072.925,320.832 2071.363,329.563 2072.645,338.294 2074.006,347.666 2078.692,355.716 2083.338,363.686 2090.667,369.172 2098.277,374.779 2107.328,377.062 2108.991,377.467 2110.652,377.723 2116.531,378.659 2122.447,377.843 2124.134,377.602 2125.831,377.222 2134.922,375.26 2142.812,370.614 2150.942,365.968 2156.67,358.719 2162.437,351.43 2165.12,342.539 2167.723,334.049 2167.043,325.077 2166.362,316.347 2163.158,308.296 2159.673,299.686 2153.866,292.437 2148.219,285.428 2140.329,281.022 2132.56,276.697 2123.588,276.777 2114.257,276.857 2105.165,278.78 L2104.805,279.42 M2109.931,278.78 L2105.085,280.141 M2117.941,311.781 L2123.388,312.422 M2098.076,317.668 L2092.63,317.027 M1657.366,391.4 Q1659.861,391.304 1662.332,391.02 1669.126,390.24 1675.709,388.036 1684.72,385.032 1692.29,379.185 1699.819,373.298 1704.465,364.767 1708.75,356.877 1710.873,348.226 1712.996,339.576 1712.235,330.644 1711.434,321.273 1707.269,312.702 1703.304,304.492 1697.336,297.643 1691.529,290.995 1684.881,285.148 1677.752,278.98 1668.62,276.176 1659.929,273.413 1651.038,275.816 1642.468,278.019 1635.058,282.865 1627.769,287.591 1621.481,293.798 1615.073,300.206 1610.988,308.377 1606.863,316.747 1605.862,325.918 1604.861,335.05 1606.943,343.941 1609.026,353.032 1613.592,361.042 1618.157,369.012 1624.685,375.46 1631.454,382.109 1639.904,386.354 1644.567,388.753 1649.536,390.059 1653.361,391.052 1657.366,391.4Z M1671.424,313.663 Q1674.347,313.663 1676.41,314.985 1678.473,316.306 1678.473,318.149 M1640.665,311.38 Q1643.309,311.38 1645.191,312.502 1647.073,313.623 1647.073,315.225 M1888.695,271.811 Q1908.48,270.409 1925.341,280.502 1932.99,285.067 1938.077,292.196 1949.291,308.056 1949.851,327.681 1950.172,339.936 1946.527,351.59 1945.606,354.594 1940.4,360.402 1935.273,366.129 1928.345,371.976 1916.184,382.243 1907.879,385.553 1904.594,386.859 1901.912,387.075 1896.983,387.459 1890.718,385.853 1883.958,384.102 1875.639,380.026 1859.459,372.056 1854.252,363.445 1844.24,346.945 1843.439,327.721 1842.597,308.056 1854.973,292.837 1866.748,278.339 1884.169,271.45 1886.092,270.609 1888.094,269.909 M1872.074,319.711 L1868.109,322.634 M1908.76,310.739 L1904.755,313.663 M1921.816,356.316 Q1915.729,366.289 1904.194,364.687 1903.073,364.487 1901.952,364.326 M1948.049,493.247 Q1944.925,466.935 1935.313,443.465 1925.902,420.356 1915.529,397.768 1913.487,393.363 1911.003,389.678 M1888.935,389.678 Q1886.065,396.441 1884.57,404.176 1882.688,413.948 1880.285,423.44 1874.637,445.668 1870.232,468.376 1867.829,480.912 1865.466,493.247 M1607.584,481.913 Q1609.547,475.665 1612.07,469.618 1621.201,448.031 1630.493,426.364 1637.316,410.41 1645.892,396.006 1646.308,395.303 1646.733,394.604 M1664.735,394.604 Q1669.255,401.552 1673.026,409.182 1682.197,427.886 1690.648,446.789 1698.177,463.65 1703.023,481.913 M1645.151,368.812 Q1642.067,365.608 1638.623,368.812 1638.503,368.932 1638.503,369.172 M2117.621,361.122 Q2120.424,361.122 2122.387,359.721 2124.349,358.319 2124.349,356.316 M2070.402,510.108 Q2074.887,482.995 2082.457,457.002 2085.741,445.708 2088.865,434.294 2095.754,409.142 2105.926,386.794 2107.285,383.838 2108.77,381.067 M2124.469,381.067 Q2133.335,395.68 2139.608,413.187 2148.539,438.058 2156.469,463.851 2161.756,480.992 2166.962,498.214 M933.863,325.878 Q936.506,325.878 938.389,327 940.271,328.121 940.271,329.723 M955.65,326.519 Q958.574,326.519 960.636,327.841 962.699,329.162 962.699,331.005 M946.839,280.021 Q927.495,282.544 911.755,293.959 894.814,306.214 890.769,326.599 886.764,346.825 895.014,365.528 902.704,383.07 918.564,393.883 925.682,398.687 933.823,399.931 936.687,400.371 939.67,400.371 942.062,400.691 944.376,400.772 961.21,401.351 974.233,389.278 988.691,375.941 993.778,356.917 998.984,337.453 990.494,319.31 983.765,304.932 973.152,293.158 962.539,281.423 946.979,279.701 M1169.637,260.937 L1161.027,259.476 M1169.037,262.84 Q1131.109,260.757 1116.09,295.16 1107.6,314.664 1112.326,335.33 1118.614,362.885 1146.208,372.817 1150.813,374.409 1155.94,375.621 1158.266,376.159 1160.686,376.622 1161.674,376.808 1163.189,376.862 1164.682,376.854 1166.614,376.622 1167.926,376.465 1169.197,376.261 1200.219,371.234 1210.288,337.573 1220.781,302.489 1194.869,276.377 1184.135,265.643 1169.637,260.937 M1176.726,306.254 L1180.571,309.178 M1145.007,309.178 L1148.851,312.101 M1136.997,347.345 Q1139.64,351.991 1144.927,350.509 1145.607,350.349 1146.288,350.229 M1375.955,280.121 Q1369.447,282.624 1363.72,286.669 1357.192,291.355 1352.586,297.924 1348.461,303.771 1345.937,310.579 1343.534,317.188 1342.814,324.196 1342.053,331.365 1343.094,338.374 1344.215,345.823 1347.499,352.632 1350.623,359.2 1355.95,364.246 1361.317,369.333 1367.965,372.817 1372.335,375.139 1377.076,376.321 1379.944,377.041 1382.944,377.343 1389.792,378.344 1396.641,376.902 1397.21,376.781 1397.782,376.642 1404.332,375.113 1410.378,372.016 1416.826,368.612 1422.073,363.646 1427.359,358.559 1431.124,352.031 1434.728,345.903 1436.45,338.975 1438.173,332.126 1437.692,325.117 1437.171,317.788 1435.009,310.86 1432.886,304.051 1429.041,298.164 1425.196,292.236 1420.03,287.15 1414.543,281.823 1407.654,278.659 1400.606,275.415 1392.676,275.215 1385.947,275.896 1379.299,277.979 1377.697,278.459 1376.055,278.82 L1375.695,279.42 M1380.821,278.78 L1375.955,280.121 M1368.966,317.668 L1363.519,317.027 M1388.831,311.781 L1394.278,312.422 M890.329,490.924 Q898.299,471.741 907.15,452.997 915.36,435.615 923.891,418.674 926.735,413.007 930.979,405.137 M1388.511,361.122 Q1391.314,361.122 1393.277,359.721 1395.239,358.319 1395.239,356.316 M1399.204,380.066 Q1406.68,390.937 1410.498,400.572 1419.389,423.12 1427.319,446.549 1432.606,462.048 1437.852,477.628 M1342.013,484.837 Q1342.974,479.03 1344.576,473.302 1350.583,451.635 1356.631,429.888 1363.159,406.539 1372.731,385.152 1373.385,383.695 1375.414,379.666 M1171.82,380.226 Q1193.182,412.903 1202.839,446.589 1208.926,467.936 1215.374,488.962 M1106.879,488.962 Q1114.368,444.987 1136.236,407.54 1143.698,394.713 1152.977,380.226 M946.559,405.137 Q951.403,414.792 955.33,422.319 964.541,439.901 972.832,457.923 980.241,473.983 985.367,490.924 M912.076,361.763 L931.3,368.171" test="JurorsFront"/>
      </g>
    </g>
    <g id="Parrot">
      <path id="Layer2_0_1_STROKES" stroke="#FFF" stroke-width="2" stroke-linejoin="round" stroke-linecap="round" fill="none" d="M2499.65,248 Q2503.35,248.45 2506.65,251.4 2510.65,254.95 2509.15,260.6 2507.65,266.25 2504.85,269.1 2502.05,271.9 2498.45,271.8 2494.8,271.7 2492.2,269.6 2489.55,267.5 2488.9,263.95 2488.3,260.55 2489.15,257.4 2489.95,254.55 2491,252.85 2492,251.1 2494.1,250 2496.15,248.85 2499.65,248Z M2500.05,259.75 Q2499.55,259.1 2498.8,259 2498,258.9 2497.95,258.9 2497.65,258.9 2497.3,259.2 2496.45,259.95 2497.15,261.45 2497.75,262.7 2499.1,262.2 2500.05,261.85 2500.2,261.15 2500.35,260.65 2500.35,260.45 2500.4,260.05 2500.05,259.75Z M2455.3,250.5 Q2457.5,250.3 2460.45,253.7 2463.35,257 2463.15,261.65 2462.95,266.2 2460.85,269 2458.8,271.75 2455.25,271.65 2451.65,271.5 2448.85,269.25 2445.7,266.85 2445.85,263.05 2446.1,257.85 2447.85,254.75 2450.25,250.45 2455.3,250.5Z M2457.95,261.3 Q2457.6,260.7 2456.95,260.65 2456.2,260.55 2456.15,260.55 2455.95,260.55 2455.6,260.8 2454.85,261.5 2455.5,262.85 2456.05,264 2457.15,263.5 2457.95,263.2 2458.1,262.55 2458.2,262.15 2458.2,261.95 2458.3,261.6 2457.95,261.3Z" test="Parrot"/>
      <path id="Layer2_0_2_STROKES" stroke="#F00" stroke-width="2" stroke-linejoin="round" stroke-linecap="round" fill="none" d="M2521.2,278.4 Q2524.2,279 2524.95,279.1 2525.7,279.2 2527.2,279.2 2529.35,279.2 2533.2,276.8 M2514.8,304 L2516.25,304.4 Q2517.95,304.8 2519.2,304.8 2519.95,304.8 2522.05,303.4 2524,302.1 2524.4,301.6 M2557.2,327.3 Q2548.35,317.7 2545.45,305.05 2543,294.25 2544.5,278.6 2545.85,264.8 2538.8,251.9 2531,237.65 2518.25,232.15 2505.5,226.6 2495.65,225.65 2485.8,224.65 2476.4,228.1 2466.95,231.55 2460.05,238.5 2453.2,245.35 2452.95,246.9 M2451.1,316.4 Q2450.65,329.45 2444.15,340.05 M2483.6,304.8 Q2485.85,307.3 2487.3,310.05 2487.5,310.4 2490,310.4 2491.3,310.4 2493.05,309.9 2493.4,309.8 2496.4,308.8" test="Parrot"/>
      <path id="Layer2_0_3_STROKES" stroke="#0FF" stroke-width="2" stroke-linejoin="round" stroke-linecap="round" fill="none" d="M2448.75,333.45 L2448.1,337.35 Q2449,337.8 2450.1,337.9 2450.8,338 2452.3,338 2456.45,338 2459.55,334.45 2462.7,330.85 2465,330.85 2465.8,330.85 2470.2,331.5 2474.55,332.15 2475.4,332.15 2480.35,332.15 2481.35,329.9 2482.3,327.6 2486.1,327.6 2486.95,327.6 2490.05,328.25 2493.2,328.9 2494,328.9 2494.55,328.9 2496.5,326.95 2498.4,325 2500.8,325 2501.65,325 2504.9,325.65 2508.15,326.3 2508.95,326.3 2509.85,326.3 2512.35,325 2513.6,324.35 2514.8,323.7 2514.95,323.7 2517.95,325 2521.3,326.3 2522.9,326.3 2524.95,326.3 2527.6,325.35 2528.9,324.85 2530.05,324.35 2532.05,324.35 2542.1,326.65 2550.45,328.55 2554.2,328.85 2554.95,328.9 2555.5,328.9 M2484.55,351.75 Q2484,353.6 2482.2,370.4 2480.45,386.65 2479.35,389.5 2477.8,393.7 2477.25,404.4 2476.65,415.75 2478.05,422.7 2479.6,430.4 2486.85,451.45 2494.3,473.05 2497.6,478.7 2499.15,481.4 2503.85,488.7 2507.65,494.6 2510.6,500.2 2514.5,507.6 2517.6,510.55 2520.75,513.6 2525.6,514.55 2528.85,515.2 2533.9,516.4 2537.3,516.8 2537.3,513.9 2537.3,505.8 2545.75,510 2551.7,512.95 2553.75,513.35 2557.05,514 2558.8,511.3 2560.1,509.35 2561.85,506 2563.75,503.4 2567.9,502.15 2570.6,501.35 2573,503.15 2573.65,503.65 2575.1,498.25 2576.75,492.15 2579.35,485.45 L2581.6,480 Q2582.25,476.1 2584.2,467 2585.9,459 2585.1,448.9 2584.1,436.7 2579.65,427.3 2579.4,426.8 2568.25,404.75 2561.15,390.65 2558.8,383.65 2557.05,378.4 2553.7,371.05 2551.35,365.95 2551,362.8 M2586.65,383.3 Q2586.05,382.95 2585.15,382.95 2585,382.95 2577.35,385.55 2575.7,384.65 2573.7,383.6 2573.35,385.5 2572,386.95 2570.85,388.15 2570.1,388.15 2568.45,388.15 2567.1,386.95 2566,386 2565.9,386.2 2565.05,387.1 2563.8,387.7 2562.35,388.35 2561.35,388.15 M2558.75,332.15 Q2585.8,358 2586.1,382.95 L2586.75,382.95 M2444.15,340.05 Q2439.7,351.95 2436.05,364.25 2432.4,376.5 2429.35,388.95 2427.4,396.85 2425,404.65 2421.15,417.1 2420.2,430.05 2420,433.1 2420.2,436.05 2420.95,448.9 2418.9,461.8 2418.25,466.1 2416.35,470 2414.95,472.85 2413.6,475.65 2411.85,473.3 2411.35,470.2 2407.4,445.8 2409.25,421.35 2409.55,417.45 2410.25,413.55 2411.45,407.1 2412.5,400.65 2413.5,394.7 2415.7,389.05 2420.25,377.3 2425.1,365.75 2431.5,350.7 2444.15,340.05Z M2431.1,400.55 Q2433.7,403 2436.75,403.6 2437.65,403.8 2440.95,403.8 2442.8,403.8 2443.65,402.2 2444.5,400.55 2447.45,400.55 2449.4,400.55 2453.7,400.95 2457.55,401.2 2459.8,400.55 2465.35,399 2470.4,398.65 2471.75,398.55 2476.05,398.55" test="Parrot"/>
      <path id="Layer2_0_4_STROKES" stroke="#0F0" stroke-width="2" stroke-linejoin="round" stroke-linecap="round" fill="none" d="M2590.5,409.55 Q2591.3,408.3 2591.3,406.1 2591.3,404.55 2589.15,394.95 2586.9,385.2 2586.1,383.6" test="Parrot"/>
      <path id="Layer2_0_5_STROKES" stroke="#FF0" stroke-width="2" stroke-linejoin="round" stroke-linecap="round" fill="none" d="M2587.4,442.8 L2593.25,442.8 Q2592.95,441.4 2594,437.6 2595.2,433.45 2595.2,432.4 2595.2,426.1 2593.3,418.05 2591.7,411.25 2590.5,409.55 M2451.4,277.45 Q2440.9,282.8 2439.8,292.5 2439.3,296.95 2439,301.5 2454.55,304.15 2460.65,299.8 2462.7,292.9 2459.6,287.65 2456.45,282.35 2454.95,280.9 2453.45,279.4 2451.4,277.45Z M2444.85,302.8 Q2442.8,313.2 2453.7,313.9 2455.7,313.75 2457.35,312.95 2461.35,310.05 2459.8,301.4 M2423.95,457.2 Q2426.7,459.55 2427.85,460.9 2428.15,461.1 2431.4,461.1 2434,461.1 2442.6,457.85 2449.55,455.25 2451.6,454.75 2451.85,454.65 2452,454.65 2452.05,455.6 2456.6,455.85 2457.55,455.9 2462.4,455.9 2464.3,455.9 2468.25,454.95 2472.2,453.95 2473.75,453.95 2476.15,453.95 2476.35,453.9 2477.6,453.5 2478,451.25 2485.8,453.05 2483.85,452.55 M2451.6,454.75 Q2451.35,454.85 2451.55,455.2 2452,455.9 2452,454.65 M2437.6,501.5 Q2433.65,504.55 2432.75,507.05 2432.4,508.1 2432.4,512.2 2432.4,517.6 2435.55,519.35 2437.95,520.65 2447.45,521.65 2447.45,520.05 2447.15,518.7 2449.15,519.45 2452,520.35 L2455.25,520.35 Q2453.95,518.65 2452.9,517.25 2455.15,518.05 2457.2,519.05 L2461.75,519.05 2461.75,515.8 Q2458.15,512.6 2457,506.9 2456.4,501.35 2455.9,500.2 2455.25,500.2 2453.95,499.55 M2469.55,502.15 Q2468.7,512.35 2470.45,515.35 2471.95,517.95 2478,518.4 L2478,514.5 Q2477.45,513.4 2476.9,510.5 2477.05,510.7 2477.15,510.95 2480,516.7 2485.15,517.75 L2485.15,512.6 Q2485.8,513.65 2486.6,514.65 2489.2,517.75 2492.3,518.4 L2493,518.4 Q2493.35,516.3 2492.25,512.55 2491,508.4 2491,506.7 2491,503.25 2493.65,501.5 M2506,507.35 Q2505.2,520.15 2514.45,543.75 2518.4,553.85 2522.3,560.3 2526.5,567.2 2529.1,567.2 2532.8,567.2 2533.7,566.8 2536.75,565.45 2537.2,560.05 2539.55,561.2 2545.65,562 2551,562 2552.75,556.5 2553.85,553.1 2554.05,552.7 2555,550.95 2556.8,550.95 2557.5,550.95 2564.6,553.55 2565.7,553.55 2567.55,550.3 2569.55,546.8 2571.1,546.4 2574.8,545.35 2580,544.6 2583.7,543.65 2585.45,539.9 2586.5,539.9 2588.3,540.25 2590.1,540.55 2590.65,540.55 L2590.65,519.05 Q2588.05,510.15 2585.3,498 2583.2,488.8 2581.55,484.6" test="Parrot"/>
      <path id="Layer2_0_6_STROKES" stroke="#F0F" stroke-width="2" stroke-linejoin="round" stroke-linecap="round" fill="none" d="M2413.6,475.65 L2414.6,484.75 Q2416.2,494.6 2419.45,498.25 2421.1,500.1 2422.05,502.4 2422.6,503.65 2423.2,505.55 2423.7,506.9 2424.55,507.05 2425.6,507.2 2427.9,506.05 2430.95,504.55 2433.5,501.6 2435.25,499.55 2437.65,499.55 2439.95,499.55 2445.75,500.45 2450.9,500.9 2453.3,498.9 2455.65,496.95 2460.4,498.1 2463.1,498.75 2468.95,500.2 2471.9,500.55 2476.25,501.4 2479.75,501.8 2482.6,500.2 2485.55,498.55 2488.55,498.65 2490.45,498.75 2495,499.55 2497.6,499.9 2500.45,500.95 2502.25,501.3 2503.45,498.9 M2586.75,484.6 Q2589.1,472.6 2590.45,464.3 2591.55,457.8 2593.25,445.4 M2548.35,629.75 Q2551.15,637.85 2551.9,639.05 2553,640.8 2555.8,640.8 2556.85,640.8 2557.15,640.7 2558.55,640.05 2560.05,637.55 2578.75,656.4 2579.95,656.4 2587.45,656.4 2590.65,643.45 2592.6,635.65 2592.6,626.2 2592.6,620.25 2591.3,614.6 2590.45,610.9 2588.7,606.3" test="Parrot"/>
      <path id="Layer2_0_7_STROKES" stroke="#F60" stroke-width="2" stroke-linejoin="round" stroke-linecap="round" fill="none" d="M2530.7,571.75 Q2530.2,570.95 2529.65,570.15 2528.5,568.5 2528.1,568.5 L2528.1,571.75 Q2529.35,579.35 2537.7,601.8 2547.55,628.45 2552.55,628.45 2554.7,628.45 2559.6,624.25 2564.15,620 2564.25,620 2565.1,620 2567.5,620.65 2569.95,621.3 2570.75,621.3 2573.2,621.3 2575.6,616.4 2577.25,613 2577.65,610.85 2583.3,610.85 2586.15,607.95 2589,605 2591.95,605 2591.95,602.75 2592.3,597.75 2592.6,592.75 2592.6,592.25 2592.6,587.7 2589.7,577.6 2586.4,566.2 2586.1,563.95 2585.6,560.45 2585.8,554.4 2586.1,548.05 2586.1,545.75 L2585.45,545.75" test="Parrot"/>
    </g>
    <g id="JuryBoxFront">
      <path fill="#000" stroke="none" d="M834.7,514.35 L812.4,488.3 810.55,617.25 Q818.728,617.251 830.2,617.25 L834.7,514.35 M3776.75,500.95 L3775.4,500.95 3757.55,518.5 3757.55,613 Q3768.034,613.017 3776.75,613 L3776.75,500.95 M3605.3,512.95 Q3530.8,514.65 3456.45,518.9 3381,522.55 3305.5,523 3228.1,523.45 3150.7,523.35 3075.2,523.25 2999.7,523 2919.9,522.75 2840.1,521.8 2761.4,520.9 2682.75,519.6 2604.65,518.35 2526.55,520.35 2449.25,522.3 2371.9,526.5 2296.65,529.75 2221.25,528.6 2141.85,527.35 2062.5,522.45 1988.55,517.5 1914.3,516.45 1840.4,515.45 1766.45,516.1 1687.1,516.8 1607.75,518 1528.1,519.25 1448.5,520.45 1369.45,521.65 1290.3,522.95 1213.3,524.25 1136.25,524.85 1059.5,525.45 982.55,523.95 908.4,522.5 834.7,514.35 L830.2,617.25 Q1036.158,617.16 2305,615.15 3512.873,613.195 3757.55,613 L3757.55,518.5 Q3681.6,511.25 3605.3,512.95 M3437.6,502.85 Q3432.394,503.094 3427.2,503.3 3351.25,505.8 3275.3,505.8 3252.286,505.8 3229.25,505.8 3173.721,505.815 3118.15,505.85 3109.912,505.856 3101.65,505.85 3030.357,505.781 2959,504.75 2936.125,504.422 2913.25,503.75 2890.368,503.598 2867.45,503.4 2850.302,503.302 2833.1,503.15 2815.936,502.697 2798.75,502.45 2719.05,501.35 2639.3,500.55 2577.263,499.94 2515.25,502.65 2506.156,503.077 2497.05,503.55 2422,507 2347.1,510.95 L2187.05,511.75 Q2106.75,507.9 2026.55,502.95 1953.9,497.9 1880.8,497.2 1801.75,496.4 1722.8,497.5 1645.7,498.6 1568.5,500.15 1495.85,501.65 1423.15,503.2 1349.25,504.75 1275.25,505.95 1197.3,507.2 1119.15,506.2 1043.45,505.25 967.85,500.25 890.05,495.6 812.4,488.3 L834.7,514.35 Q908.4,522.5 982.55,523.95 1059.5,525.45 1136.25,524.85 1213.3,524.25 1290.3,522.95 1369.45,521.65 1448.5,520.45 1528.1,519.25 1607.75,518 1687.1,516.8 1766.45,516.1 1840.4,515.45 1914.3,516.45 1988.55,517.5 2062.5,522.45 2141.85,527.35 2221.25,528.6 2296.65,529.75 2371.9,526.5 2449.25,522.3 2526.55,520.35 2604.65,518.35 2682.75,519.6 2761.4,520.9 2840.1,521.8 2919.9,522.75 2999.7,523 3075.2,523.25 3150.7,523.35 3228.1,523.45 3305.5,523 3381,522.55 3456.45,518.9 3530.8,514.65 3605.3,512.95 3681.6,511.25 3757.55,518.5 L3775.4,500.95 3775.45,500.15 Q3757.062,498.494 3738.65,496.85 3724.552,495.536 3710.45,494.6 3650.485,490.798 3590.3,494.4 3514.031,499.691 3437.6,502.85Z" test="JuryBoxFront"/>
      <path id="Layer1_0_1_STROKES" stroke="#F60" stroke-width="2" stroke-linejoin="round" stroke-linecap="round" fill="none" d="M3775.475,500.175 Q3757.062,498.494 3738.65,496.85 3724.552,495.536 3710.45,494.625 3650.485,490.798 3590.3,494.4 3514.031,499.691 3437.6,502.875 3432.394,503.094 3427.2,503.3 3351.25,505.8 3275.3,505.8 3252.286,505.8 3229.275,505.8 3173.721,505.815 3118.15,505.85 3109.912,505.856 3101.675,505.85 3030.357,505.781 2959,504.75 2936.125,504.422 2913.25,503.775 2890.368,503.598 2867.475,503.425 2850.302,503.302 2833.125,503.175 2815.936,502.697 2798.75,502.45 2719.05,501.35 2639.3,500.55 2577.263,499.94 2515.275,502.675 2506.156,503.077 2497.05,503.55 2422,507 2347.1,510.95 L2187.05,511.75 Q2106.75,507.9 2026.55,502.95 1953.9,497.9 1880.8,497.2 1801.75,496.4 1722.8,497.5 1645.7,498.6 1568.5,500.15 1495.85,501.65 1423.15,503.2 1349.25,504.75 1275.25,505.95 1197.3,507.2 1119.15,506.2 1043.45,505.25 967.85,500.25 890.05,495.6 812.4,488.3 L834.7,514.35 Q908.4,522.5 982.55,523.95 1059.5,525.45 1136.25,524.85 1213.3,524.25 1290.3,522.95 1369.45,521.65 1448.5,520.45 1528.1,519.25 1607.75,518 1687.1,516.8 1766.45,516.1 1840.4,515.45 1914.3,516.45 1988.55,517.5 2062.5,522.45 2141.85,527.35 2221.25,528.6 2296.65,529.75 2371.9,526.5 2449.25,522.3 2526.55,520.35 2604.65,518.35 2682.75,519.6 2761.4,520.9 2840.1,521.8 2919.9,522.75 2999.7,523 3075.2,523.25 3150.7,523.35 3228.1,523.45 3305.5,523 3381,522.55 3456.45,518.9 3530.8,514.65 3605.3,512.95 3681.6,511.25 3757.55,518.5 L3775.4,500.95 M3775.475,500.175 Q3776.112,500.242 3776.75,500.3 L3776.75,500.95 3776.75,613 3776.75,624.2 M3757.55,624.2 L3757.55,613.025 M830.2,617.25 L829.9,624.2 M3757.55,613.025 L3757.55,518.5 M810.45,624.2 L810.55,617.25 812.4,488.3 M834.7,514.35 L830.2,617.25" test="JuryBoxFront"/>
    </g>
  </g>
</svg>