<?xml version="1.0" encoding="utf-8"?>
<svg id="EdithAnim12" image-rendering="inherit" baseProfile="basic" version="1.1" x="0px" y="0px" width="800" height="600" xmlns="http://www.w3.org/2000/svg" xmlns:xlink="http://www.w3.org/1999/xlink">
  <g id="14_JurorParrotf1r1" overflow="visible">
    <g id="JurorsBack">
      <path fill="#000" stroke="none" d="M1408.37,132.28 Q1406.37,132.96 1404.45,133.8 1387.05,140.68 1375.29,155.16 1362.93,170.36 1363.77,190 1364.57,209.2 1374.57,225.68 1379.77,234.28 1395.93,242.24 1404.25,246.32 1411.01,248.08 1417.25,249.68 1422.17,249.28 1424.85,249.08 1428.13,247.76 1436.41,244.44 1448.57,234.2 1455.49,228.36 1460.61,222.64 1465.81,216.84 1466.73,213.84 1470.37,202.2 1470.05,189.96 1469.49,170.36 1458.29,154.52 1453.21,147.4 1445.57,142.84 1428.73,132.76 1408.97,134.16 L1408.37,132.28 M1392.37,182 L1388.41,184.92 1392.37,182 M1429.01,173.04 L1425.01,175.96 1429.01,173.04 M1424.45,226.92 Q1423.33,226.72 1422.21,226.56 1423.33,226.72 1424.45,226.92 1435.97,228.52 1442.05,218.56 1435.97,228.52 1424.45,226.92 M1188.61,138.16 Q1180.05,140.36 1172.65,145.2 1165.37,149.92 1159.09,156.12 1152.69,162.52 1148.61,170.68 1144.49,179.04 1143.49,188.2 1142.49,197.32 1144.57,206.2 1146.65,215.28 1151.21,223.28 1155.77,231.24 1162.29,237.68 1169.05,244.32 1177.49,248.56 1182.13,250.96 1187.13,252.28 1190.93,253.24 1194.93,253.6 1197.41,253.52 1199.89,253.24 1206.69,252.44 1213.25,250.24 1222.25,247.24 1229.81,241.4 1237.33,235.52 1241.97,227 1246.25,219.12 1248.37,210.48 1250.49,201.84 1249.73,192.92 1248.93,183.56 1244.77,175 1240.81,166.8 1234.85,159.96 1229.05,153.32 1222.41,147.48 1215.29,141.32 1206.17,138.52 1197.49,135.76 1188.61,138.16 M1213.97,177.28 Q1216.01,178.6 1216.01,180.44 1216.01,178.6 1213.97,177.28 1211.89,175.96 1208.97,175.96 1211.89,175.96 1213.97,177.28 M1182.77,174.8 Q1184.65,175.92 1184.65,177.52 1184.65,175.92 1182.77,174.8 1180.89,173.68 1178.25,173.68 1180.89,173.68 1182.77,174.8 M1176.21,231.04 Q1176.09,231.16 1176.09,231.4 1176.09,231.16 1176.21,231.04 1179.65,227.84 1182.73,231.04 1179.65,227.84 1176.21,231.04 M964.61,141.76 L964.89,142.48 969.73,141.12 964.89,142.48 Q958.37,144.96 952.65,149 946.13,153.68 941.53,160.24 937.41,166.08 934.89,172.88 932.49,179.48 931.77,186.48 931.01,193.64 932.05,200.64 933.17,208.08 936.45,214.88 939.57,221.44 944.89,226.48 950.25,231.56 956.89,235.04 961.25,237.36 966.01,238.56 968.85,239.24 971.85,239.56 978.69,240.56 985.53,239.12 986.09,239 986.69,238.88 993.21,237.32 999.25,234.24 1005.69,230.84 1010.93,225.88 1016.21,220.8 1019.97,214.28 1023.57,208.16 1025.29,201.24 1027.01,194.4 1026.53,187.4 1026.01,180.08 1023.85,173.16 1021.73,166.36 1017.89,160.48 1014.05,154.56 1008.89,149.48 1003.41,144.16 996.53,141 989.49,137.76 981.57,137.56 974.85,138.24 968.21,140.32 966.61,140.8 964.97,141.16 L964.61,141.76 M977.73,174.08 L983.17,174.72 977.73,174.08 M982.17,221.96 Q984.13,220.56 984.13,218.56 984.13,220.56 982.17,221.96 980.21,223.36 977.41,223.36 980.21,223.36 982.17,221.96 M957.89,179.96 L952.45,179.32 957.89,179.96 M1822.13,135.88 Q1813.73,137.76 1806.09,142 1797.81,146.64 1791.85,154.04 1786.25,161 1783.81,169.56 1781.25,178.36 1780.85,187.6 1780.45,196.6 1781.61,205.56 1782.73,214.44 1787.73,221.88 1792.89,229.56 1800.41,234.8 1807.69,239.92 1816.01,243.08 1824.85,246.36 1834.29,246.8 1843.29,247.56 1851.69,244.16 1860.49,240.68 1866.81,233.48 1873.17,226.28 1877.13,217.72 1881.09,209.12 1882.73,199.68 1884.29,190.68 1883.17,181.56 1882.01,172.04 1877.73,163.36 1873.49,154.88 1866.53,148.52 1860.61,143.08 1853.77,138.84 1847.25,134.76 1839.93,132.28 L1839.33,134.16 Q1830.61,134.12 1822.13,135.88 M1847.01,177.52 L1850.85,180.44 1847.01,177.52 M1815.33,180.44 L1819.17,183.36 1815.33,180.44 M1815.25,221.72 Q1815.93,221.56 1816.61,221.44 1815.93,221.56 1815.25,221.72 1810.01,223.2 1807.33,218.56 1810.01,223.2 1815.25,221.72 M1598.45,166.6 Q1594.49,174.52 1592.97,183.12 1591.41,191.84 1592.69,200.56 1594.05,209.92 1598.73,217.96 1603.37,225.92 1610.69,231.4 1618.29,237 1627.33,239.28 1629.01,239.68 1630.65,239.96 1636.53,240.88 1642.45,240.08 1644.13,239.8 1645.81,239.44 1654.89,237.48 1662.77,232.84 1670.89,228.2 1676.61,220.96 1682.37,213.68 1685.05,204.8 1687.65,196.32 1686.97,187.36 1686.29,178.64 1683.09,170.6 1679.61,162 1673.81,154.76 1668.17,147.76 1660.29,143.36 1652.53,139.04 1643.57,139.12 1634.25,139.2 1625.17,141.12 L1624.81,141.76 1625.09,142.48 1629.93,141.12 1625.09,142.48 Q1616.97,146.08 1610.05,151.88 1602.69,158.08 1598.45,166.6 M1618.09,179.96 L1612.65,179.32 1618.09,179.96 M1637.93,174.08 L1643.37,174.72 1637.93,174.08 M1637.61,223.36 Q1640.41,223.36 1642.37,221.96 1644.33,220.56 1644.33,218.56 1644.33,220.56 1642.37,221.96 1640.41,223.36 1637.61,223.36Z" test="JurorsBack" vector-effect="non-scaling-stroke" stroke-width="1"/>
      <path id="Layer3_0_1_STROKES" stroke="#FFF" stroke-width="1.6" stroke-linejoin="round" stroke-linecap="round" fill="none" d="M1625.09,142.48 Q1616.97,146.08 1610.05,151.88 1602.69,158.08 1598.45,166.6 1594.49,174.52 1592.97,183.12 1591.41,191.84 1592.69,200.56 1594.05,209.92 1598.73,217.96 1603.37,225.92 1610.69,231.4 1618.29,237 1627.33,239.28 1629.01,239.68 1630.65,239.96 1636.53,240.88 1642.45,240.08 1644.13,239.8 1645.81,239.44 1654.89,237.48 1662.77,232.84 1670.89,228.2 1676.61,220.96 1682.37,213.68 1685.05,204.8 1687.65,196.32 1686.97,187.36 1686.29,178.64 1683.09,170.6 1679.61,162 1673.81,154.76 1668.17,147.76 1660.29,143.36 1652.53,139.04 1643.57,139.12 1634.25,139.2 1625.17,141.12 L1624.81,141.76 M1629.93,141.12 L1625.09,142.48 M1618.09,179.96 L1612.65,179.32 M1637.93,174.08 L1643.37,174.72 M1637.61,223.36 Q1640.41,223.36 1642.37,221.96 1644.33,220.56 1644.33,218.56 M1839.33,134.16 Q1830.61,134.12 1822.13,135.88 1813.73,137.76 1806.09,142 1797.81,146.64 1791.85,154.04 1786.25,161 1783.81,169.56 1781.25,178.36 1780.85,187.6 1780.45,196.6 1781.61,205.56 1782.73,214.44 1787.73,221.88 1792.89,229.56 1800.41,234.8 1807.69,239.92 1816.01,243.08 1824.85,246.36 1834.29,246.8 1843.29,247.56 1851.69,244.16 1860.49,240.68 1866.81,233.48 1873.17,226.28 1877.13,217.72 1881.09,209.12 1882.73,199.68 1884.29,190.68 1883.17,181.56 1882.01,172.04 1877.73,163.36 1873.49,154.88 1866.53,148.52 1860.61,143.08 1853.77,138.84 1847.25,134.76 1839.93,132.28 L1831.33,130.8 M1847.01,177.52 L1850.85,180.44 M1815.33,180.44 L1819.17,183.36 M1807.33,218.56 Q1810.01,223.2 1815.25,221.72 1815.93,221.56 1816.61,221.44 M1836.97,251.72 Q1837.77,252.72 1838.61,253.76 1861.77,283.08 1873.29,320.04 1880.29,342.56 1887.33,364.96 M1776.93,366.68 Q1781.33,322.92 1803.29,285.92 1814.13,267.6 1828.77,253.76 1829.85,252.72 1830.93,251.72 M1590.45,372.16 Q1594.93,345.08 1602.49,319.12 1605.77,307.84 1608.89,296.44 1615.77,271.32 1625.93,249 1627.29,246.04 1628.77,243.28 M1644.45,243.28 Q1653.29,257.88 1659.57,275.36 1668.49,300.2 1676.41,325.96 1681.69,343.08 1686.89,360.28 M969.73,141.12 L964.89,142.48 Q958.37,144.96 952.65,149 946.13,153.68 941.53,160.24 937.41,166.08 934.89,172.88 932.49,179.48 931.77,186.48 931.01,193.64 932.05,200.64 933.17,208.08 936.45,214.88 939.57,221.44 944.89,226.48 950.25,231.56 956.89,235.04 961.25,237.36 966.01,238.56 968.85,239.24 971.85,239.56 978.69,240.56 985.53,239.12 986.09,239 986.69,238.88 993.21,237.32 999.25,234.24 1005.69,230.84 1010.93,225.88 1016.21,220.8 1019.97,214.28 1023.57,208.16 1025.29,201.24 1027.01,194.4 1026.53,187.4 1026.01,180.08 1023.85,173.16 1021.73,166.36 1017.89,160.48 1014.05,154.56 1008.89,149.48 1003.41,144.16 996.53,141 989.49,137.76 981.57,137.56 974.85,138.24 968.21,140.32 966.61,140.8 964.97,141.16 L964.61,141.76 M977.73,174.08 L983.17,174.72 M977.41,223.36 Q980.21,223.36 982.17,221.96 984.13,220.56 984.13,218.56 M1194.93,253.6 Q1197.41,253.52 1199.89,253.24 1206.69,252.44 1213.25,250.24 1222.25,247.24 1229.81,241.4 1237.33,235.52 1241.97,227 1246.25,219.12 1248.37,210.48 1250.49,201.84 1249.73,192.92 1248.93,183.56 1244.77,175 1240.81,166.8 1234.85,159.96 1229.05,153.32 1222.41,147.48 1215.29,141.32 1206.17,138.52 1197.49,135.76 1188.61,138.16 1180.05,140.36 1172.65,145.2 1165.37,149.92 1159.09,156.12 1152.69,162.52 1148.61,170.68 1144.49,179.04 1143.49,188.2 1142.49,197.32 1144.57,206.2 1146.65,215.28 1151.21,223.28 1155.77,231.24 1162.29,237.68 1169.05,244.32 1177.49,248.56 1182.13,250.96 1187.13,252.28 1190.93,253.24 1194.93,253.6Z M1208.97,175.96 Q1211.89,175.96 1213.97,177.28 1216.01,178.6 1216.01,180.44 M1178.25,173.68 Q1180.89,173.68 1182.77,174.8 1184.65,175.92 1184.65,177.52 M1408.97,134.16 Q1428.73,132.76 1445.57,142.84 1453.21,147.4 1458.29,154.52 1469.49,170.36 1470.05,189.96 1470.37,202.2 1466.73,213.84 1465.81,216.84 1460.61,222.64 1455.49,228.36 1448.57,234.2 1436.41,244.44 1428.13,247.76 1424.85,249.08 1422.17,249.28 1417.25,249.68 1411.01,248.08 1404.25,246.32 1395.93,242.24 1379.77,234.28 1374.57,225.68 1364.57,209.2 1363.77,190 1362.93,170.36 1375.29,155.16 1387.05,140.68 1404.45,133.8 1406.37,132.96 1408.37,132.28 M1392.37,182 L1388.41,184.92 M1429.01,173.04 L1425.01,175.96 M1442.05,218.56 Q1435.97,228.52 1424.45,226.92 1423.33,226.72 1422.21,226.56 M957.89,179.96 L952.45,179.32 M930.97,346.92 Q931.93,341.12 933.53,335.4 939.53,313.76 945.57,292.04 952.09,268.72 961.65,247.36 962.29,245.92 964.33,241.88 M1468.25,355.32 Q1465.13,329.04 1455.53,305.6 1446.13,282.52 1435.77,259.96 1433.73,255.56 1431.25,251.88 M1409.21,251.88 Q1406.33,258.64 1404.85,266.36 1402.97,276.12 1400.57,285.6 1394.93,307.8 1390.53,330.48 1388.13,343 1385.77,355.32 M1202.29,256.8 Q1206.81,263.72 1210.57,271.36 1219.73,290.04 1228.17,308.92 1235.69,325.76 1240.53,344 M1182.73,231.04 Q1179.65,227.84 1176.21,231.04 1176.09,231.16 1176.09,231.4 M1145.21,344 Q1147.17,337.76 1149.69,331.72 1158.81,310.16 1168.09,288.52 1174.89,272.6 1183.49,258.2 1183.89,257.48 1184.33,256.8 M988.09,242.28 Q995.57,253.12 999.37,262.76 1008.25,285.28 1016.17,308.68 1021.45,324.16 1026.69,339.72" test="JurorsBack"/>
    </g>
    <g id="Tween-1">
      <g id="JurorsFront">
        <path fill="#000" stroke="none" d="M1355.226,275.215 Q1348.497,275.896 1341.849,277.979 1340.247,278.459 1338.605,278.82 L1338.245,279.42 1338.485,280.101 1343.371,278.78 1338.485,280.101 Q1331.997,282.624 1326.27,286.669 1319.742,291.355 1315.136,297.924 1311.011,303.771 1308.487,310.579 1306.084,317.188 1305.364,324.196 1304.603,331.365 1305.644,338.374 1306.765,345.823 1310.049,352.632 1313.173,359.2 1318.5,364.246 1323.867,369.333 1330.515,372.817 1334.885,375.139 1339.606,376.301 1342.494,377.041 1345.494,377.343 1352.342,378.344 1359.191,376.902 1359.76,376.781 1360.312,376.622 1366.882,375.113 1372.928,372.016 1379.376,368.612 1384.623,363.646 1389.909,358.559 1393.674,352.031 1397.278,345.903 1399,338.975 1400.723,332.126 1400.242,325.117 1399.721,317.788 1397.559,310.86 1395.436,304.051 1391.591,298.164 1387.746,292.236 1382.58,287.15 1377.093,281.823 1370.205,278.659 1363.156,275.415 1355.226,275.215 M1331.516,317.668 L1326.069,317.027 1331.516,317.668 M1351.381,311.781 L1356.828,312.422 1351.381,311.781 M1351.061,361.122 Q1353.864,361.122 1355.827,359.721 1357.789,358.319 1357.789,356.316 1357.789,358.319 1355.827,359.721 1353.864,361.122 1351.061,361.122 M1132.187,260.917 L1131.587,262.84 Q1093.659,260.757 1078.641,295.16 1070.15,314.664 1074.876,335.33 1081.164,362.885 1108.758,372.817 1113.363,374.409 1118.49,375.621 1120.816,376.159 1123.216,376.622 1124.224,376.808 1125.739,376.862 1127.232,376.854 1129.144,376.622 1130.476,376.465 1131.747,376.261 1162.769,371.234 1172.838,337.573 1183.331,302.489 1157.419,276.377 1146.685,265.643 1132.187,260.917 M1139.276,306.254 L1143.121,309.178 1139.276,306.254 M1107.557,309.178 L1111.401,312.101 1107.557,309.178 M1107.477,350.509 Q1108.157,350.349 1108.838,350.229 1108.157,350.349 1107.477,350.509 1102.19,351.991 1099.547,347.345 1102.19,351.991 1107.477,350.509 M956.328,356.917 Q961.534,337.453 953.044,319.31 946.315,304.932 935.702,293.158 925.089,281.423 909.509,279.701 888.603,279.941 909.389,280.021 890.045,282.544 874.305,293.959 857.364,306.214 853.319,326.599 849.314,346.825 857.565,365.528 865.254,383.07 881.114,393.883 888.232,398.687 896.373,399.931 899.237,400.371 902.22,400.371 904.612,400.691 906.906,400.772 923.76,401.351 936.783,389.278 951.241,375.941 956.328,356.917 M900.939,327 Q902.821,328.121 902.821,329.723 902.821,328.121 900.939,327 899.056,325.878 896.413,325.878 899.056,325.878 900.939,327 M923.166,327.841 Q925.249,329.162 925.249,331.005 925.249,329.162 923.166,327.841 921.124,326.519 918.2,326.519 921.124,326.519 923.166,327.841 M874.626,361.763 L893.85,368.171 874.626,361.763 M1851.245,271.811 L1850.644,269.888 Q1848.642,270.609 1846.719,271.45 1829.298,278.339 1817.523,292.837 1805.148,308.056 1805.989,327.721 1806.79,346.945 1816.802,363.445 1822.009,372.056 1838.189,380.026 1846.508,384.102 1853.248,385.833 1859.533,387.459 1864.462,387.075 1867.144,386.859 1870.429,385.553 1878.734,382.243 1890.895,371.976 1897.823,366.129 1902.95,360.402 1908.156,354.594 1909.077,351.59 1912.722,339.936 1912.401,327.681 1911.841,308.056 1900.627,292.196 1895.54,285.067 1887.891,280.502 1871.03,270.409 1851.245,271.811 M1834.624,319.711 L1830.659,322.634 1834.624,319.711 M1871.31,310.739 L1867.305,313.663 1871.31,310.739 M1866.744,364.687 Q1865.623,364.487 1864.502,364.326 1865.623,364.487 1866.744,364.687 1878.279,366.289 1884.366,356.316 1878.279,366.289 1866.744,364.687 M1631.17,276.176 Q1622.479,273.413 1613.588,275.816 1605.018,278.019 1597.608,282.865 1590.319,287.591 1584.031,293.798 1577.623,300.206 1573.538,308.377 1569.413,316.747 1568.412,325.918 1567.411,335.05 1569.493,343.941 1571.576,353.032 1576.142,361.042 1580.707,369.012 1587.235,375.46 1594.004,382.109 1602.454,386.354 1607.117,388.753 1612.066,390.039 1615.911,391.052 1619.916,391.4 1622.411,391.304 1624.882,391 1631.676,390.24 1638.259,388.036 1647.27,385.032 1654.84,379.185 1662.369,373.298 1667.015,364.767 1671.3,356.877 1673.423,348.226 1675.546,339.576 1674.785,330.644 1673.984,321.273 1669.819,312.702 1665.854,304.492 1659.886,297.643 1654.079,290.995 1647.431,285.148 1640.302,278.98 1631.17,276.176 M1638.94,314.985 Q1641.023,316.306 1641.023,318.149 1641.023,316.306 1638.94,314.985 1636.897,313.663 1633.974,313.663 1636.897,313.663 1638.94,314.985 M1607.741,312.502 Q1609.623,313.623 1609.623,315.225 1609.623,313.623 1607.741,312.502 1605.859,311.38 1603.215,311.38 1605.859,311.38 1607.741,312.502 M1601.173,368.812 Q1601.053,368.932 1601.053,369.172 1601.053,368.932 1601.173,368.812 1604.617,365.608 1607.701,368.812 1604.617,365.608 1601.173,368.812 M2052.576,289.553 Q2045.207,295.761 2040.962,304.291 2036.997,312.221 2035.475,320.832 2033.913,329.563 2035.195,338.294 2036.556,347.666 2041.242,355.716 2045.888,363.686 2053.217,369.172 2060.827,374.779 2069.878,377.062 2071.541,377.467 2073.202,377.703 2079.081,378.659 2084.977,377.823 2086.684,377.602 2088.381,377.222 2097.472,375.26 2105.362,370.614 2113.492,365.968 2119.22,358.719 2124.987,351.43 2127.67,342.539 2130.273,334.049 2129.593,325.077 2128.912,316.347 2125.708,308.296 2122.223,299.686 2116.416,292.437 2110.769,285.428 2102.879,281.022 2095.11,276.697 2086.138,276.777 2076.807,276.857 2067.715,278.78 L2067.355,279.42 2067.635,280.141 2072.481,278.78 2067.635,280.141 Q2059.505,283.746 2052.576,289.553 M2080.491,311.781 L2085.938,312.422 2080.491,311.781 M2060.626,317.668 L2055.18,317.027 2060.626,317.668 M2080.171,361.122 Q2082.974,361.122 2084.937,359.721 2086.899,358.319 2086.899,356.316 2086.899,358.319 2084.937,359.721 2082.974,361.122 2080.171,361.122Z" test="JurorsFront" vector-effect="non-scaling-stroke" stroke-width="1"/>
        <path id="Layer4_0_1_STROKES" stroke="#FFF" stroke-width="1.602" stroke-linejoin="round" stroke-linecap="round" fill="none" d="M2067.635,280.141 Q2059.505,283.746 2052.576,289.553 2045.207,295.761 2040.962,304.291 2036.997,312.221 2035.475,320.832 2033.913,329.563 2035.195,338.294 2036.556,347.666 2041.242,355.716 2045.888,363.686 2053.217,369.172 2060.827,374.779 2069.878,377.062 2071.541,377.467 2073.202,377.723 2079.081,378.659 2084.997,377.843 2086.684,377.602 2088.381,377.222 2097.472,375.26 2105.362,370.614 2113.492,365.968 2119.22,358.719 2124.987,351.43 2127.67,342.539 2130.273,334.049 2129.593,325.077 2128.912,316.347 2125.708,308.296 2122.223,299.686 2116.416,292.437 2110.769,285.428 2102.879,281.022 2095.11,276.697 2086.138,276.777 2076.807,276.857 2067.715,278.78 L2067.355,279.42 M2072.481,278.78 L2067.635,280.141 M2080.491,311.781 L2085.938,312.422 M2060.626,317.668 L2055.18,317.027 M1619.916,391.4 Q1622.411,391.304 1624.882,391.02 1631.676,390.24 1638.259,388.036 1647.27,385.032 1654.84,379.185 1662.369,373.298 1667.015,364.767 1671.3,356.877 1673.423,348.226 1675.546,339.576 1674.785,330.644 1673.984,321.273 1669.819,312.702 1665.854,304.492 1659.886,297.643 1654.079,290.995 1647.431,285.148 1640.302,278.98 1631.17,276.176 1622.479,273.413 1613.588,275.816 1605.018,278.019 1597.608,282.865 1590.319,287.591 1584.031,293.798 1577.623,300.206 1573.538,308.377 1569.413,316.747 1568.412,325.918 1567.411,335.05 1569.493,343.941 1571.576,353.032 1576.142,361.042 1580.707,369.012 1587.235,375.46 1594.004,382.109 1602.454,386.354 1607.117,388.753 1612.086,390.059 1615.911,391.052 1619.916,391.4Z M1633.974,313.663 Q1636.897,313.663 1638.96,314.985 1641.023,316.306 1641.023,318.149 M1603.215,311.38 Q1605.859,311.38 1607.741,312.502 1609.623,313.623 1609.623,315.225 M1851.245,271.811 Q1871.03,270.409 1887.891,280.502 1895.54,285.067 1900.627,292.196 1911.841,308.056 1912.401,327.681 1912.722,339.936 1909.077,351.59 1908.156,354.594 1902.95,360.402 1897.823,366.129 1890.895,371.976 1878.734,382.243 1870.429,385.553 1867.144,386.859 1864.462,387.075 1859.533,387.459 1853.268,385.853 1846.508,384.102 1838.189,380.026 1822.009,372.056 1816.802,363.445 1806.79,346.945 1805.989,327.721 1805.148,308.056 1817.523,292.837 1829.298,278.339 1846.719,271.45 1848.642,270.609 1850.644,269.909 M1834.624,319.711 L1830.659,322.634 M1871.31,310.739 L1867.305,313.663 M1884.366,356.316 Q1878.279,366.289 1866.744,364.687 1865.623,364.487 1864.502,364.326 M1910.599,493.247 Q1907.475,466.935 1897.863,443.465 1888.452,420.356 1878.079,397.768 1876.037,393.363 1873.553,389.678 M1851.485,389.678 Q1848.615,396.441 1847.12,404.176 1845.238,413.948 1842.835,423.44 1837.188,445.668 1832.782,468.376 1830.379,480.912 1828.016,493.247 M1570.134,481.913 Q1572.097,475.665 1574.62,469.618 1583.751,448.031 1593.043,426.364 1599.866,410.41 1608.442,396.006 1608.858,395.303 1609.283,394.604 M1627.285,394.604 Q1631.805,401.552 1635.576,409.182 1644.747,427.886 1653.198,446.789 1660.727,463.65 1665.573,481.913 M1607.701,368.812 Q1604.617,365.608 1601.173,368.812 1601.053,368.932 1601.053,369.172 M2080.171,361.122 Q2082.974,361.122 2084.937,359.721 2086.899,358.319 2086.899,356.316 M2032.952,510.108 Q2037.438,482.995 2045.007,457.002 2048.291,445.708 2051.415,434.294 2058.304,409.142 2068.476,386.794 2069.835,383.838 2071.32,381.067 M2087.019,381.067 Q2095.885,395.68 2102.158,413.187 2111.089,438.058 2119.019,463.851 2124.306,480.992 2129.512,498.214 M896.413,325.878 Q899.056,325.878 900.939,327 902.821,328.121 902.821,329.723 M918.2,326.519 Q921.124,326.519 923.186,327.841 925.249,329.162 925.249,331.005 M909.389,280.021 Q890.045,282.544 874.305,293.959 857.364,306.214 853.319,326.599 849.314,346.825 857.565,365.528 865.254,383.07 881.114,393.883 888.232,398.687 896.373,399.931 899.237,400.371 902.22,400.371 904.612,400.691 906.926,400.772 923.76,401.351 936.783,389.278 951.241,375.941 956.328,356.917 961.534,337.453 953.044,319.31 946.315,304.932 935.702,293.158 925.089,281.423 909.529,279.701 M1132.187,260.937 L1123.577,259.476 M1131.587,262.84 Q1093.659,260.757 1078.641,295.16 1070.15,314.664 1074.876,335.33 1081.164,362.885 1108.758,372.817 1113.363,374.409 1118.49,375.621 1120.816,376.159 1123.236,376.622 1124.224,376.808 1125.739,376.862 1127.232,376.854 1129.164,376.622 1130.476,376.465 1131.747,376.261 1162.769,371.234 1172.838,337.573 1183.331,302.489 1157.419,276.377 1146.685,265.643 1132.187,260.937 M1139.276,306.254 L1143.121,309.178 M1107.557,309.178 L1111.401,312.101 M1099.547,347.345 Q1102.19,351.991 1107.477,350.509 1108.157,350.349 1108.838,350.229 M1338.505,280.121 Q1331.997,282.624 1326.27,286.669 1319.742,291.355 1315.136,297.924 1311.011,303.771 1308.487,310.579 1306.084,317.188 1305.364,324.196 1304.603,331.365 1305.644,338.374 1306.765,345.823 1310.049,352.632 1313.173,359.2 1318.5,364.246 1323.867,369.333 1330.515,372.817 1334.885,375.139 1339.626,376.321 1342.494,377.041 1345.494,377.343 1352.342,378.344 1359.191,376.902 1359.76,376.781 1360.332,376.642 1366.882,375.113 1372.928,372.016 1379.376,368.612 1384.623,363.646 1389.909,358.559 1393.674,352.031 1397.278,345.903 1399,338.975 1400.723,332.126 1400.242,325.117 1399.721,317.788 1397.559,310.86 1395.436,304.051 1391.591,298.164 1387.746,292.236 1382.58,287.15 1377.093,281.823 1370.205,278.659 1363.156,275.415 1355.226,275.215 1348.497,275.896 1341.849,277.979 1340.247,278.459 1338.605,278.82 L1338.245,279.42 M1343.371,278.78 L1338.505,280.121 M1331.516,317.668 L1326.069,317.027 M1351.381,311.781 L1356.828,312.422 M852.879,490.924 Q860.849,471.741 869.7,452.997 877.91,435.615 886.441,418.674 889.285,413.007 893.529,405.137 M1351.061,361.122 Q1353.864,361.122 1355.827,359.721 1357.789,358.319 1357.789,356.316 M1361.754,380.066 Q1369.23,390.937 1373.048,400.572 1381.939,423.12 1389.869,446.549 1395.156,462.048 1400.402,477.628 M1304.563,484.837 Q1305.524,479.03 1307.126,473.302 1313.133,451.635 1319.181,429.888 1325.709,406.539 1335.281,385.152 1335.935,383.695 1337.964,379.666 M1134.37,380.226 Q1155.732,412.903 1165.389,446.589 1171.476,467.936 1177.924,488.962 M1069.429,488.962 Q1076.918,444.987 1098.786,407.54 1106.248,394.713 1115.527,380.226 M909.109,405.137 Q913.953,414.792 917.88,422.319 927.091,439.901 935.382,457.923 942.791,473.983 947.917,490.924 M874.626,361.763 L893.85,368.171" test="JurorsFront"/>
      </g>
    </g>
    <g id="Parrot">
      <path id="Layer2_0_1_STROKES" stroke="#FFF" stroke-width="2" stroke-linejoin="round" stroke-linecap="round" fill="none" d="M2462.9,248.05 Q2466.6,248.5 2469.9,251.45 2473.9,255 2472.4,260.65 2470.9,266.3 2468.1,269.15 2465.3,271.95 2461.7,271.85 2458.05,271.75 2455.45,269.65 2452.8,267.55 2452.15,264 2451.55,260.6 2452.4,257.45 2453.2,254.6 2454.25,252.9 2455.25,251.15 2457.35,250.05 2459.4,248.9 2462.9,248.05Z M2463.3,259.8 Q2462.8,259.15 2462.05,259.05 2461.25,258.95 2461.2,258.95 2460.9,258.95 2460.55,259.25 2459.7,260 2460.4,261.5 2461,262.75 2462.35,262.25 2463.3,261.9 2463.45,261.2 2463.6,260.7 2463.6,260.5 2463.65,260.1 2463.3,259.8Z M2418.55,250.55 Q2420.75,250.35 2423.7,253.75 2426.6,257.05 2426.4,261.7 2426.2,266.25 2424.1,269.05 2422.05,271.8 2418.5,271.7 2414.9,271.55 2412.1,269.3 2408.95,266.9 2409.1,263.1 2409.35,257.9 2411.1,254.8 2413.5,250.5 2418.55,250.55Z M2421.2,261.35 Q2420.85,260.75 2420.2,260.7 2419.45,260.6 2419.4,260.6 2419.2,260.6 2418.85,260.85 2418.1,261.55 2418.75,262.9 2419.3,264.05 2420.4,263.55 2421.2,263.25 2421.35,262.6 2421.45,262.2 2421.45,262 2421.55,261.65 2421.2,261.35Z" test="Parrot"/>
      <path id="Layer2_0_2_STROKES" stroke="#F00" stroke-width="2" stroke-linejoin="round" stroke-linecap="round" fill="none" d="M2484.45,278.45 Q2487.45,279.05 2488.2,279.15 2488.95,279.25 2490.45,279.25 2492.6,279.25 2496.45,276.85 M2478.05,304.05 L2479.5,304.45 Q2481.2,304.85 2482.45,304.85 2483.2,304.85 2485.3,303.45 2487.25,302.15 2487.65,301.65 M2520.45,327.35 Q2511.6,317.75 2508.7,305.1 2506.25,294.3 2507.75,278.65 2509.1,264.85 2502.05,251.95 2494.25,237.7 2481.5,232.2 2468.75,226.65 2458.9,225.7 2449.05,224.7 2439.65,228.15 2430.2,231.6 2423.3,238.55 2416.45,245.4 2416.2,246.95 M2414.35,316.45 Q2413.9,329.5 2407.4,340.1 M2446.85,304.85 Q2449.1,307.35 2450.55,310.1 2450.75,310.45 2453.25,310.45 2454.55,310.45 2456.3,309.95 2456.65,309.85 2459.65,308.85" test="Parrot"/>
      <path id="Layer2_0_3_STROKES" stroke="#0FF" stroke-width="2" stroke-linejoin="round" stroke-linecap="round" fill="none" d="M2412,333.5 L2411.35,337.4 Q2412.25,337.85 2413.35,337.95 2414.05,338.05 2415.55,338.05 2419.7,338.05 2422.8,334.5 2425.95,330.9 2428.25,330.9 2429.05,330.9 2433.45,331.55 2437.8,332.2 2438.65,332.2 2443.6,332.2 2444.6,329.95 2445.55,327.65 2449.35,327.65 2450.2,327.65 2453.3,328.3 2456.45,328.95 2457.25,328.95 2457.8,328.95 2459.75,327 2461.65,325.05 2464.05,325.05 2464.9,325.05 2468.15,325.7 2471.4,326.35 2472.2,326.35 2473.1,326.35 2475.6,325.05 2476.85,324.4 2478.05,323.75 2478.2,323.75 2481.2,325.05 2484.55,326.35 2486.15,326.35 2488.2,326.35 2490.85,325.4 2492.15,324.9 2493.3,324.4 2495.3,324.4 2505.35,326.7 2513.7,328.6 2517.45,328.9 2518.2,328.95 2518.75,328.95 M2447.8,351.8 Q2447.25,353.65 2445.45,370.45 2443.7,386.7 2442.6,389.55 2441.05,393.75 2440.5,404.45 2439.9,415.8 2441.3,422.75 2442.85,430.45 2450.1,451.5 2457.55,473.1 2460.85,478.75 2462.4,481.45 2467.1,488.75 2470.9,494.65 2473.85,500.25 2477.75,507.65 2480.85,510.6 2484,513.65 2488.85,514.6 2492.1,515.25 2497.15,516.45 2500.55,516.85 2500.55,513.95 2500.55,505.85 2509,510.05 2514.95,513 2517,513.4 2520.3,514.05 2522.05,511.35 2523.35,509.4 2525.1,506.05 2527,503.45 2531.15,502.2 2533.85,501.4 2536.25,503.2 2536.9,503.7 2538.35,498.3 2540,492.2 2542.6,485.5 L2544.85,480.05 Q2545.5,476.15 2547.45,467.05 2549.15,459.05 2548.35,448.95 2547.35,436.75 2542.9,427.35 2542.65,426.85 2531.5,404.8 2524.4,390.7 2522.05,383.7 2520.3,378.45 2516.95,371.1 2514.6,366 2514.25,362.85 M2549.9,383.35 Q2549.3,383 2548.4,383 2548.25,383 2540.6,385.6 2538.95,384.7 2536.95,383.65 2536.6,385.55 2535.25,387 2534.1,388.2 2533.35,388.2 2531.7,388.2 2530.35,387 2529.25,386.05 2529.15,386.25 2528.3,387.15 2527.05,387.75 2525.6,388.4 2524.6,388.2 M2522,332.2 Q2549.05,358.05 2549.35,383 L2550,383 M2407.4,340.1 Q2402.95,352 2399.3,364.3 2395.65,376.55 2392.6,389 2390.65,396.9 2388.25,404.7 2384.4,417.15 2383.45,430.1 2383.25,433.15 2383.45,436.1 2384.2,448.95 2382.15,461.85 2381.5,466.15 2379.6,470.05 2378.2,472.9 2376.85,475.7 2375.1,473.35 2374.6,470.25 2370.65,445.85 2372.5,421.4 2372.8,417.5 2373.5,413.6 2374.7,407.15 2375.75,400.7 2376.75,394.75 2378.95,389.1 2383.5,377.35 2388.35,365.8 2394.75,350.75 2407.4,340.1Z M2394.35,400.6 Q2396.95,403.05 2400,403.65 2400.9,403.85 2404.2,403.85 2406.05,403.85 2406.9,402.25 2407.75,400.6 2410.7,400.6 2412.65,400.6 2416.95,401 2420.8,401.25 2423.05,400.6 2428.6,399.05 2433.65,398.7 2435,398.6 2439.3,398.6" test="Parrot"/>
      <path id="Layer2_0_4_STROKES" stroke="#0F0" stroke-width="2" stroke-linejoin="round" stroke-linecap="round" fill="none" d="M2553.75,409.6 Q2554.55,408.35 2554.55,406.15 2554.55,404.6 2552.4,395 2550.15,385.25 2549.35,383.65" test="Parrot"/>
      <path id="Layer2_0_5_STROKES" stroke="#FF0" stroke-width="2" stroke-linejoin="round" stroke-linecap="round" fill="none" d="M2550.65,442.85 L2556.5,442.85 Q2556.2,441.45 2557.25,437.65 2558.45,433.5 2558.45,432.45 2558.45,426.15 2556.55,418.1 2554.95,411.3 2553.75,409.6 M2414.65,277.5 Q2404.15,282.85 2403.05,292.55 2402.55,297 2402.25,301.55 2417.8,304.2 2423.9,299.85 2425.95,292.95 2422.85,287.7 2419.7,282.4 2418.2,280.95 2416.7,279.45 2414.65,277.5Z M2408.1,302.85 Q2406.05,313.25 2416.95,313.95 2418.95,313.8 2420.6,313 2424.6,310.1 2423.05,301.45 M2387.2,457.25 Q2389.95,459.6 2391.1,460.95 2391.4,461.15 2394.65,461.15 2397.25,461.15 2405.85,457.9 2412.8,455.3 2414.85,454.8 2415.1,454.7 2415.25,454.7 2415.3,455.65 2419.85,455.9 2420.8,455.95 2425.65,455.95 2427.55,455.95 2431.5,455 2435.45,454 2437,454 2439.4,454 2439.6,453.95 2440.85,453.55 2441.25,451.3 2449.05,453.1 2447.1,452.6 M2414.85,454.8 Q2414.6,454.9 2414.8,455.25 2415.25,455.95 2415.25,454.7 M2400.85,501.55 Q2396.9,504.6 2396,507.1 2395.65,508.15 2395.65,512.25 2395.65,517.65 2398.8,519.4 2401.2,520.7 2410.7,521.7 2410.7,520.1 2410.4,518.75 2412.4,519.5 2415.25,520.4 L2418.5,520.4 Q2417.2,518.7 2416.15,517.3 2418.4,518.1 2420.45,519.1 L2425,519.1 2425,515.85 Q2421.4,512.65 2420.25,506.95 2419.65,501.4 2419.15,500.25 2418.5,500.25 2417.2,499.6 M2432.8,502.2 Q2431.95,512.4 2433.7,515.4 2435.2,518 2441.25,518.45 L2441.25,514.55 Q2440.7,513.45 2440.15,510.55 2440.3,510.75 2440.4,511 2443.25,516.75 2448.4,517.8 L2448.4,512.65 Q2449.05,513.7 2449.85,514.7 2452.45,517.8 2455.55,518.45 L2456.25,518.45 Q2456.6,516.35 2455.5,512.6 2454.25,508.45 2454.25,506.75 2454.25,503.3 2456.9,501.55 M2469.25,507.4 Q2468.45,520.2 2477.7,543.8 2481.65,553.9 2485.55,560.35 2489.75,567.25 2492.35,567.25 2496.05,567.25 2496.95,566.85 2500,565.5 2500.45,560.1 2502.8,561.25 2508.9,562.05 2514.25,562.05 2516,556.55 2517.1,553.15 2517.3,552.75 2518.25,551 2520.05,551 2520.75,551 2527.85,553.6 2528.95,553.6 2530.8,550.35 2532.8,546.85 2534.35,546.45 2538.05,545.4 2543.25,544.65 2546.95,543.7 2548.7,539.95 2549.75,539.95 2551.55,540.3 2553.35,540.6 2553.9,540.6 L2553.9,519.1 Q2551.3,510.2 2548.55,498.05 2546.45,488.85 2544.8,484.65" test="Parrot"/>
      <path id="Layer2_0_6_STROKES" stroke="#F0F" stroke-width="2" stroke-linejoin="round" stroke-linecap="round" fill="none" d="M2376.85,475.7 L2377.85,484.8 Q2379.45,494.65 2382.7,498.3 2384.35,500.15 2385.3,502.45 2385.85,503.7 2386.45,505.6 2386.95,506.95 2387.8,507.1 2388.85,507.25 2391.15,506.1 2394.2,504.6 2396.75,501.65 2398.5,499.6 2400.9,499.6 2403.2,499.6 2409,500.5 2414.15,500.95 2416.55,498.95 2418.9,497 2423.65,498.15 2426.35,498.8 2432.2,500.25 2435.15,500.6 2439.5,501.45 2443,501.85 2445.85,500.25 2448.8,498.6 2451.8,498.7 2453.7,498.8 2458.25,499.6 2460.85,499.95 2463.7,501 2465.5,501.35 2466.7,498.95 M2550,484.65 Q2552.35,472.65 2553.7,464.35 2554.8,457.85 2556.5,445.45 M2511.6,629.8 Q2514.4,637.9 2515.15,639.1 2516.25,640.85 2519.05,640.85 2520.1,640.85 2520.4,640.75 2521.8,640.1 2523.3,637.6 2542,656.45 2543.2,656.45 2550.7,656.45 2553.9,643.5 2555.85,635.7 2555.85,626.25 2555.85,620.3 2554.55,614.65 2553.7,610.95 2551.95,606.35" test="Parrot"/>
      <path id="Layer2_0_7_STROKES" stroke="#F60" stroke-width="2" stroke-linejoin="round" stroke-linecap="round" fill="none" d="M2493.95,571.8 Q2493.45,571 2492.9,570.2 2491.75,568.55 2491.35,568.55 L2491.35,571.8 Q2492.6,579.4 2500.95,601.85 2510.8,628.5 2515.8,628.5 2517.95,628.5 2522.85,624.3 2527.4,620.05 2527.5,620.05 2528.35,620.05 2530.75,620.7 2533.2,621.35 2534,621.35 2536.45,621.35 2538.85,616.45 2540.5,613.05 2540.9,610.9 2546.55,610.9 2549.4,608 2552.25,605.05 2555.2,605.05 2555.2,602.8 2555.55,597.8 2555.85,592.8 2555.85,592.3 2555.85,587.75 2552.95,577.65 2549.65,566.25 2549.35,564 2548.85,560.5 2549.05,554.45 2549.35,548.1 2549.35,545.8 L2548.7,545.8" test="Parrot"/>
    </g>
    <g id="JuryBoxFront">
      <path fill="#000" stroke="none" d="M783.85,514.35 L761.55,488.3 759.7,617.25 Q767.878,617.251 779.35,617.25 L783.85,514.35 M3725.9,500.95 L3724.55,500.95 3706.7,518.5 3706.7,613 Q3717.184,613.017 3725.9,613 L3725.9,500.95 M3554.45,512.95 Q3479.95,514.65 3405.6,518.9 3330.15,522.55 3254.65,523 3177.25,523.45 3099.85,523.35 3024.35,523.25 2948.85,523 2869.05,522.75 2789.25,521.8 2710.55,520.9 2631.9,519.6 2553.8,518.35 2475.7,520.35 2398.4,522.3 2321.05,526.5 2245.8,529.75 2170.4,528.6 2091,527.35 2011.65,522.45 1937.7,517.5 1863.45,516.45 1789.55,515.45 1715.6,516.1 1636.25,516.8 1556.9,518 1477.25,519.25 1397.65,520.45 1318.6,521.65 1239.45,522.95 1162.45,524.25 1085.4,524.85 1008.65,525.45 931.7,523.95 857.55,522.5 783.85,514.35 L779.35,617.25 Q985.308,617.16 2254.15,615.15 3462.023,613.195 3706.7,613 L3706.7,518.5 Q3630.75,511.25 3554.45,512.95 M3386.75,502.85 Q3381.544,503.094 3376.35,503.3 3300.4,505.8 3224.45,505.8 3201.436,505.8 3178.4,505.8 3122.871,505.815 3067.3,505.85 3059.062,505.856 3050.8,505.85 2979.507,505.781 2908.15,504.75 2885.275,504.422 2862.4,503.75 2839.518,503.598 2816.6,503.4 2799.452,503.302 2782.25,503.15 2765.086,502.697 2747.9,502.45 2668.2,501.35 2588.45,500.55 2526.413,499.94 2464.4,502.65 2455.306,503.077 2446.2,503.55 2371.15,507 2296.25,510.95 L2136.2,511.75 Q2055.9,507.9 1975.7,502.95 1903.05,497.9 1829.95,497.2 1750.9,496.4 1671.95,497.5 1594.85,498.6 1517.65,500.15 1445,501.65 1372.3,503.2 1298.4,504.75 1224.4,505.95 1146.45,507.2 1068.3,506.2 992.6,505.25 917,500.25 839.2,495.6 761.55,488.3 L783.85,514.35 Q857.55,522.5 931.7,523.95 1008.65,525.45 1085.4,524.85 1162.45,524.25 1239.45,522.95 1318.6,521.65 1397.65,520.45 1477.25,519.25 1556.9,518 1636.25,516.8 1715.6,516.1 1789.55,515.45 1863.45,516.45 1937.7,517.5 2011.65,522.45 2091,527.35 2170.4,528.6 2245.8,529.75 2321.05,526.5 2398.4,522.3 2475.7,520.35 2553.8,518.35 2631.9,519.6 2710.55,520.9 2789.25,521.8 2869.05,522.75 2948.85,523 3024.35,523.25 3099.85,523.35 3177.25,523.45 3254.65,523 3330.15,522.55 3405.6,518.9 3479.95,514.65 3554.45,512.95 3630.75,511.25 3706.7,518.5 L3724.55,500.95 3724.6,500.15 Q3706.212,498.494 3687.8,496.85 3673.702,495.536 3659.6,494.6 3599.635,490.798 3539.45,494.4 3463.181,499.691 3386.75,502.85Z" test="JuryBoxFront"/>
      <path id="Layer1_0_1_STROKES" stroke="#F60" stroke-width="2" stroke-linejoin="round" stroke-linecap="round" fill="none" d="M3724.625,500.175 Q3706.212,498.494 3687.8,496.85 3673.702,495.536 3659.6,494.625 3599.635,490.798 3539.45,494.4 3463.181,499.691 3386.75,502.875 3381.544,503.094 3376.35,503.3 3300.4,505.8 3224.45,505.8 3201.436,505.8 3178.425,505.8 3122.871,505.815 3067.3,505.85 3059.062,505.856 3050.825,505.85 2979.507,505.781 2908.15,504.75 2885.275,504.422 2862.4,503.775 2839.518,503.598 2816.625,503.425 2799.452,503.302 2782.275,503.175 2765.086,502.697 2747.9,502.45 2668.2,501.35 2588.45,500.55 2526.413,499.94 2464.425,502.675 2455.306,503.077 2446.2,503.55 2371.15,507 2296.25,510.95 L2136.2,511.75 Q2055.9,507.9 1975.7,502.95 1903.05,497.9 1829.95,497.2 1750.9,496.4 1671.95,497.5 1594.85,498.6 1517.65,500.15 1445,501.65 1372.3,503.2 1298.4,504.75 1224.4,505.95 1146.45,507.2 1068.3,506.2 992.6,505.25 917,500.25 839.2,495.6 761.55,488.3 L783.85,514.35 Q857.55,522.5 931.7,523.95 1008.65,525.45 1085.4,524.85 1162.45,524.25 1239.45,522.95 1318.6,521.65 1397.65,520.45 1477.25,519.25 1556.9,518 1636.25,516.8 1715.6,516.1 1789.55,515.45 1863.45,516.45 1937.7,517.5 2011.65,522.45 2091,527.35 2170.4,528.6 2245.8,529.75 2321.05,526.5 2398.4,522.3 2475.7,520.35 2553.8,518.35 2631.9,519.6 2710.55,520.9 2789.25,521.8 2869.05,522.75 2948.85,523 3024.35,523.25 3099.85,523.35 3177.25,523.45 3254.65,523 3330.15,522.55 3405.6,518.9 3479.95,514.65 3554.45,512.95 3630.75,511.25 3706.7,518.5 L3724.55,500.95 M3724.625,500.175 Q3725.262,500.242 3725.9,500.3 L3725.9,500.95 3725.9,613 3725.9,624.2 M3706.7,624.2 L3706.7,613.025 M779.35,617.25 L779.05,624.2 M3706.7,613.025 L3706.7,518.5 M759.6,624.2 L759.7,617.25 761.55,488.3 M783.85,514.35 L779.35,617.25" test="JuryBoxFront"/>
    </g>
  </g>
</svg>