<?xml version="1.0" encoding="utf-8"?>
<svg id="EdithAnim12" image-rendering="inherit" baseProfile="basic" version="1.1" x="0px" y="0px" width="800" height="600" xmlns="http://www.w3.org/2000/svg" xmlns:xlink="http://www.w3.org/1999/xlink">
  <g id="14_JurorParrotf100r1" overflow="visible">
    <g id="Parrot">
      <path id="Layer2_0_1_STROKES" stroke="#FFF" stroke-width="2.216" stroke-linejoin="round" stroke-linecap="round" fill="none" d="M376.957,268.067 Q381.057,268.565 384.713,271.834 389.145,275.767 387.483,282.028 385.821,288.288 382.719,291.446 379.616,294.548 375.627,294.437 371.583,294.326 368.702,292 365.766,289.673 365.046,285.739 364.381,281.972 365.323,278.482 366.209,275.324 367.373,273.441 368.481,271.502 370.808,270.283 373.079,269.009 376.957,268.067Z M377.4,281.086 Q376.846,280.366 376.015,280.255 375.129,280.144 375.073,280.144 374.741,280.144 374.353,280.476 373.411,281.307 374.187,282.969 374.852,284.354 376.348,283.8 377.4,283.413 377.566,282.637 377.733,282.083 377.733,281.861 377.788,281.418 377.4,281.086Z M327.817,270.837 Q330.255,270.615 333.523,274.382 336.737,278.039 336.515,283.191 336.293,288.232 333.967,291.335 331.695,294.382 327.762,294.271 323.773,294.105 320.671,291.612 317.18,288.953 317.347,284.742 317.624,278.981 319.563,275.546 322.222,270.781 327.817,270.837Z M330.753,282.803 Q330.366,282.138 329.645,282.083 328.814,281.972 328.759,281.972 328.537,281.972 328.15,282.249 327.319,283.025 328.039,284.521 328.648,285.795 329.867,285.241 330.753,284.908 330.92,284.188 331.03,283.745 331.03,283.523 331.141,283.136 330.753,282.803Z" test="Parrot"/>
      <path id="Layer2_0_2_STROKES" stroke="#F00" stroke-width="2.216" stroke-linejoin="round" stroke-linecap="round" fill="none" d="M400.834,301.75 Q404.158,302.415 404.989,302.526 405.82,302.636 407.482,302.636 409.865,302.636 414.13,299.977 M393.743,330.115 L395.35,330.558 Q397.233,331.001 398.618,331.001 399.449,331.001 401.776,329.45 403.937,328.01 404.38,327.456 M440.722,355.931 Q430.917,345.294 427.703,331.278 424.989,319.312 426.651,301.972 428.147,286.681 420.335,272.388 411.693,256.599 397.566,250.505 383.439,244.356 372.525,243.303 361.611,242.195 351.196,246.018 340.725,249.84 333.08,257.541 325.49,265.131 325.213,266.848 M323.164,343.854 Q322.665,358.313 315.463,370.058 M359.174,331.001 Q361.667,333.771 363.273,336.818 363.495,337.206 366.265,337.206 367.705,337.206 369.644,336.652 370.032,336.541 373.356,335.433" test="Parrot"/>
      <path id="Layer2_0_3_STROKES" stroke="#0FF" stroke-width="2.216" stroke-linejoin="round" stroke-linecap="round" fill="none" d="M320.56,362.745 L319.84,367.067 Q320.837,367.565 322.056,367.676 322.831,367.787 324.493,367.787 329.091,367.787 332.526,363.853 336.016,359.865 338.565,359.865 339.451,359.865 344.326,360.585 349.146,361.305 350.088,361.305 355.573,361.305 356.681,358.812 357.733,356.264 361.944,356.264 362.885,356.264 366.32,356.984 369.81,357.704 370.697,357.704 371.306,357.704 373.467,355.543 375.572,353.383 378.231,353.383 379.173,353.383 382.774,354.103 386.375,354.823 387.261,354.823 388.259,354.823 391.029,353.383 392.414,352.663 393.743,351.942 393.909,351.942 397.233,353.383 400.945,354.823 402.718,354.823 404.989,354.823 407.926,353.771 409.366,353.217 410.64,352.663 412.856,352.663 423.992,355.211 433.243,357.316 437.398,357.649 438.229,357.704 438.839,357.704 M360.226,383.022 Q359.617,385.072 357.622,403.686 355.683,421.691 354.465,424.849 352.747,429.502 352.138,441.358 351.473,453.934 353.024,461.634 354.742,470.166 362.775,493.489 371.029,517.422 374.686,523.682 376.403,526.674 381.611,534.762 385.821,541.3 389.09,547.504 393.411,555.704 396.846,558.972 400.336,562.352 405.71,563.404 409.311,564.124 414.906,565.454 418.673,565.897 418.673,562.684 418.673,553.709 428.036,558.363 434.628,561.631 436.9,562.075 440.556,562.795 442.495,559.803 443.936,557.643 445.875,553.931 447.98,551.05 452.578,549.665 455.57,548.779 458.229,550.773 458.949,551.327 460.556,545.344 462.384,538.585 465.265,531.161 L467.758,525.123 Q468.478,520.802 470.638,510.719 472.522,501.855 471.636,490.664 470.528,477.146 465.597,466.731 465.32,466.177 452.966,441.746 445.099,426.123 442.495,418.367 440.556,412.55 436.844,404.406 434.241,398.755 433.853,395.265 M473.353,417.979 Q472.688,417.591 471.691,417.591 471.525,417.591 463.049,420.472 461.22,419.475 459.004,418.312 458.617,420.417 457.121,422.023 455.847,423.353 455.016,423.353 453.187,423.353 451.692,422.023 450.473,420.971 450.362,421.192 449.42,422.19 448.035,422.854 446.429,423.575 445.321,423.353 M442.44,361.305 Q472.411,389.947 472.744,417.591 L473.464,417.591 M315.463,370.058 Q310.532,383.243 306.488,396.872 302.444,410.445 299.065,424.239 296.904,432.993 294.245,441.635 289.979,455.43 288.926,469.778 288.705,473.158 288.926,476.426 289.757,490.664 287.486,504.957 286.766,509.722 284.661,514.043 283.109,517.201 281.614,520.303 279.675,517.699 279.121,514.264 274.744,487.229 276.794,460.139 277.126,455.817 277.902,451.496 279.231,444.35 280.395,437.203 281.503,430.61 283.94,424.35 288.982,411.331 294.356,398.534 301.447,381.858 315.463,370.058Z M301.004,437.092 Q303.884,439.807 307.264,440.472 308.261,440.693 311.917,440.693 313.967,440.693 314.909,438.92 315.851,437.092 319.119,437.092 321.28,437.092 326.044,437.535 330.31,437.812 332.803,437.092 338.953,435.375 344.548,434.987 346.044,434.876 350.808,434.876" test="Parrot"/>
      <path id="Layer2_0_4_STROKES" stroke="#0F0" stroke-width="2.216" stroke-linejoin="round" stroke-linecap="round" fill="none" d="M477.619,447.064 Q478.505,445.679 478.505,443.242 478.505,441.524 476.123,430.887 473.63,420.084 472.744,418.312" test="Parrot"/>
      <path id="Layer2_0_5_STROKES" stroke="#FF0" stroke-width="2.216" stroke-linejoin="round" stroke-linecap="round" fill="none" d="M474.184,483.905 L480.666,483.905 Q480.333,482.354 481.497,478.144 482.826,473.545 482.826,472.382 482.826,465.402 480.721,456.482 478.948,448.948 477.619,447.064 M323.496,300.697 Q311.862,306.625 310.643,317.373 310.089,322.303 309.757,327.345 326.986,330.281 333.745,325.461 336.016,317.816 332.582,311 329.091,306.127 327.429,304.52 325.767,302.858 323.496,300.697Z M316.239,328.785 Q313.967,340.308 326.044,341.084 328.26,340.918 330.089,340.031 334.521,336.818 332.803,327.234 M293.081,499.86 Q296.128,502.464 297.403,503.96 297.735,504.182 301.336,504.182 304.217,504.182 313.746,500.581 321.446,497.7 323.718,497.146 323.995,497.035 324.161,497.035 324.216,498.088 329.258,498.365 330.31,498.42 335.684,498.42 337.789,498.42 342.166,497.367 346.542,496.259 348.26,496.259 350.919,496.259 351.141,496.204 352.526,495.761 352.969,493.268 361.611,495.262 359.451,494.708 M323.718,497.146 Q323.441,497.257 323.662,497.644 324.161,498.42 324.161,497.035 M308.206,548.945 Q303.829,552.324 302.832,555.094 302.444,556.258 302.444,560.8 302.444,566.784 305.934,568.723 308.593,570.163 319.119,571.271 319.119,569.498 318.787,568.002 321.003,568.833 324.161,569.831 L327.762,569.831 Q326.321,567.947 325.158,566.396 327.651,567.282 329.922,568.39 L334.964,568.39 334.964,564.789 Q330.975,561.244 329.701,554.928 329.036,548.779 328.482,547.504 327.762,547.504 326.321,546.784 M343.606,549.665 Q342.664,560.967 344.603,564.291 346.265,567.171 352.969,567.67 L352.969,563.349 Q352.359,562.13 351.75,558.917 351.916,559.138 352.027,559.415 355.185,565.786 360.891,566.95 L360.891,561.244 Q361.611,562.407 362.498,563.515 365.378,566.95 368.813,567.67 L369.589,567.67 Q369.977,565.343 368.758,561.188 367.373,556.59 367.373,554.706 367.373,550.884 370.309,548.945 M383.993,555.427 Q383.106,569.609 393.355,595.758 397.732,606.949 402.053,614.095 406.707,621.74 409.588,621.74 413.687,621.74 414.684,621.297 418.064,619.801 418.562,613.818 421.166,615.092 427.925,615.979 433.853,615.979 435.792,609.885 437.011,606.118 437.232,605.674 438.285,603.735 440.279,603.735 441.055,603.735 448.922,606.616 450.14,606.616 452.19,603.015 454.406,599.137 456.124,598.694 460.223,597.531 465.985,596.7 470.084,595.647 472.023,591.492 473.187,591.492 475.181,591.88 477.176,592.212 477.785,592.212 L477.785,568.39 Q474.904,558.529 471.857,545.067 469.53,534.873 467.702,530.22" test="Parrot"/>
      <path id="Layer2_0_6_STROKES" stroke="#F0F" stroke-width="2.216" stroke-linejoin="round" stroke-linecap="round" fill="none" d="M281.614,520.303 L282.722,530.386 Q284.494,541.3 288.095,545.344 289.924,547.394 290.976,549.942 291.586,551.327 292.25,553.432 292.804,554.928 293.746,555.094 294.91,555.26 297.458,553.986 300.837,552.324 303.663,549.056 305.602,546.784 308.261,546.784 310.809,546.784 317.236,547.781 322.942,548.28 325.601,546.064 328.205,543.903 333.468,545.178 336.46,545.898 342.941,547.504 346.21,547.892 351.03,548.834 354.908,549.277 358.066,547.504 361.334,545.676 364.658,545.787 366.763,545.898 371.805,546.784 374.686,547.172 377.843,548.335 379.838,548.723 381.167,546.064 M473.464,530.22 Q476.068,516.924 477.563,507.727 478.782,500.525 480.666,486.786 M430.917,691.046 Q434.019,700.021 434.85,701.35 436.069,703.289 439.171,703.289 440.335,703.289 440.667,703.178 442.218,702.458 443.88,699.688 464.6,720.574 465.929,720.574 474.239,720.574 477.785,706.225 479.946,697.583 479.946,687.112 479.946,680.52 478.505,674.26 477.563,670.16 475.624,665.063" test="Parrot"/>
      <path id="Layer2_0_7_STROKES" stroke="#F60" stroke-width="2.216" stroke-linejoin="round" stroke-linecap="round" fill="none" d="M411.36,626.782 Q410.806,625.895 410.197,625.009 408.923,623.181 408.48,623.181 L408.48,626.782 Q409.865,635.203 419.116,660.077 430.03,689.605 435.57,689.605 437.952,689.605 443.382,684.952 448.423,680.243 448.534,680.243 449.476,680.243 452.135,680.963 454.849,681.683 455.736,681.683 458.45,681.683 461.11,676.254 462.938,672.487 463.381,670.105 469.641,670.105 472.799,666.891 475.957,663.623 479.225,663.623 479.225,661.13 479.613,655.59 479.946,650.05 479.946,649.496 479.946,644.454 476.732,633.264 473.076,620.632 472.744,618.139 472.19,614.261 472.411,607.558 472.744,600.522 472.744,597.974 L472.023,597.974" test="Parrot"/>
    </g>
    <g id="JuryBoxFront">
      <path fill="#000" stroke="none" d="M-3108.845,572.783 L-3139.663,536.782 -3142.22,714.991 Q-3130.918,714.992 -3115.064,714.991 L-3108.845,572.783 M957.068,554.264 L955.203,554.264 930.534,578.518 930.534,709.117 Q945.023,709.14 957.068,709.117 L957.068,554.264 M720.124,570.848 Q617.165,573.197 514.414,579.071 410.142,584.115 305.801,584.737 198.834,585.359 91.867,585.221 -12.474,585.083 -116.815,584.737 -227.098,584.392 -337.382,583.079 -446.145,581.835 -554.84,580.038 -662.774,578.311 -770.708,581.075 -877.537,583.77 -984.434,589.574 -1088.43,594.065 -1192.633,592.476 -1302.363,590.749 -1412.025,583.977 -1514.224,577.136 -1616.838,575.685 -1718.967,574.303 -1821.166,575.201 -1930.828,576.169 -2040.49,577.827 -2150.566,579.555 -2260.573,581.213 -2369.82,582.871 -2479.206,584.668 -2585.62,586.464 -2692.103,587.294 -2798.171,588.123 -2904.516,586.05 -3006.991,584.046 -3108.845,572.783 L-3115.064,714.991 Q-2830.43,714.866 -1076.89,712.088 592.39,709.386 930.534,709.117 L930.534,578.518 Q825.571,568.498 720.124,570.848 M488.363,556.89 Q481.168,557.227 473.99,557.512 369.027,560.967 264.064,560.967 232.259,560.967 200.423,560.967 123.682,560.987 46.883,561.036 35.498,561.044 24.08,561.036 -74.447,560.94 -173.062,559.516 -204.675,559.062 -236.289,558.133 -267.912,557.923 -299.584,557.65 -323.283,557.514 -347.056,557.304 -370.777,556.678 -394.528,556.337 -504.673,554.817 -614.888,553.711 -700.623,552.868 -786.325,556.613 -798.893,557.203 -811.477,557.857 -915.196,562.625 -1018.708,568.084 L-1239.897,569.19 Q-1350.872,563.869 -1461.708,557.028 -1562.11,550.049 -1663.135,549.081 -1772.382,547.976 -1881.491,549.496 -1988.043,551.016 -2094.733,553.158 -2195.135,555.231 -2295.607,557.373 -2397.737,559.516 -2500.005,561.174 -2607.732,562.901 -2715.735,561.519 -2820.352,560.207 -2924.831,553.296 -3032.351,546.87 -3139.663,536.782 L-3108.845,572.783 Q-3006.991,584.046 -2904.516,586.05 -2798.171,588.123 -2692.103,587.294 -2585.62,586.464 -2479.206,584.668 -2369.82,582.871 -2260.573,581.213 -2150.566,579.555 -2040.49,577.827 -1930.828,576.169 -1821.166,575.201 -1718.967,574.303 -1616.838,575.685 -1514.224,577.136 -1412.025,583.977 -1302.363,590.749 -1192.633,592.476 -1088.43,594.065 -984.434,589.574 -877.537,583.77 -770.708,581.075 -662.774,578.311 -554.84,580.038 -446.145,581.835 -337.382,583.079 -227.098,584.392 -116.815,584.737 -12.474,585.083 91.867,585.221 198.834,585.359 305.801,584.737 410.142,584.115 514.414,579.071 617.165,573.197 720.124,570.848 825.571,568.498 930.534,578.518 L955.203,554.264 955.272,553.158 Q929.859,550.87 904.414,548.598 884.931,546.782 865.442,545.488 782.57,540.234 699.394,545.212 593.991,552.524 488.363,556.89Z" test="JuryBoxFront" stroke-width="1.382"/>
      <path id="Layer1_0_1_STROKES" stroke="#F60" stroke-width="2.764" stroke-linejoin="round" stroke-linecap="round" fill="none" d="M955.306,553.193 Q929.859,550.87 904.414,548.598 884.931,546.782 865.442,545.523 782.57,540.234 699.394,545.212 593.991,552.524 488.363,556.924 481.168,557.227 473.99,557.512 369.027,560.967 264.064,560.967 232.259,560.967 200.458,560.967 123.682,560.987 46.883,561.036 35.498,561.044 24.115,561.036 -74.447,560.94 -173.062,559.516 -204.675,559.062 -236.289,558.168 -267.912,557.923 -299.55,557.684 -323.283,557.514 -347.021,557.339 -370.777,556.678 -394.528,556.337 -504.673,554.817 -614.888,553.711 -700.623,552.868 -786.29,556.648 -798.893,557.203 -811.477,557.857 -915.196,562.625 -1018.708,568.084 L-1239.897,569.19 Q-1350.872,563.869 -1461.708,557.028 -1562.11,550.049 -1663.135,549.081 -1772.382,547.976 -1881.491,549.496 -1988.043,551.016 -2094.733,553.158 -2195.135,555.231 -2295.607,557.373 -2397.737,559.516 -2500.005,561.174 -2607.732,562.901 -2715.735,561.519 -2820.352,560.207 -2924.831,553.296 -3032.351,546.87 -3139.663,536.782 L-3108.845,572.783 Q-3006.991,584.046 -2904.516,586.05 -2798.171,588.123 -2692.103,587.294 -2585.62,586.464 -2479.206,584.668 -2369.82,582.871 -2260.573,581.213 -2150.566,579.555 -2040.49,577.827 -1930.828,576.169 -1821.166,575.201 -1718.967,574.303 -1616.838,575.685 -1514.224,577.136 -1412.025,583.977 -1302.363,590.749 -1192.633,592.476 -1088.43,594.065 -984.434,589.574 -877.537,583.77 -770.708,581.075 -662.774,578.311 -554.84,580.038 -446.145,581.835 -337.382,583.079 -227.098,584.392 -116.815,584.737 -12.474,585.083 91.867,585.221 198.834,585.359 305.801,584.737 410.142,584.115 514.414,579.071 617.165,573.197 720.124,570.848 825.571,568.498 930.534,578.518 L955.203,554.264 M955.306,553.193 Q956.187,553.285 957.068,553.366 L957.068,554.264 957.068,709.117 957.068,724.595 M930.534,724.595 L930.534,709.152 M-3115.064,714.991 L-3115.478,724.595 M930.534,709.152 L930.534,578.518 M-3142.358,724.595 L-3142.22,714.991 -3139.663,536.782 M-3108.845,572.783 L-3115.064,714.991" test="JuryBoxFront"/>
    </g>
  </g>
</svg>