<?xml version="1.0" encoding="utf-8"?>
<svg id="EdithAnim12" image-rendering="inherit" baseProfile="basic" version="1.1" x="0px" y="0px" width="800" height="600" xmlns="http://www.w3.org/2000/svg" xmlns:xlink="http://www.w3.org/1999/xlink">
  <g id="14_JurorParrotf101r1" overflow="visible">
    <g id="Parrot">
      <path id="Layer2_0_1_STROKES" stroke="#FFF" stroke-width="2.24" stroke-linejoin="round" stroke-linecap="round" fill="none" d="M377.08,269.902 Q381.224,270.406 384.92,273.71 389.4,277.686 387.72,284.014 386.04,290.342 382.904,293.534 379.768,296.67 375.736,296.558 371.648,296.446 368.736,294.094 365.768,291.742 365.04,287.766 364.368,283.958 365.32,280.43 366.216,277.238 367.392,275.334 368.512,273.374 370.864,272.142 373.16,270.854 377.08,269.902Z M377.528,283.062 Q376.968,282.334 376.128,282.222 375.232,282.11 375.176,282.11 374.84,282.11 374.448,282.446 373.496,283.286 374.28,284.966 374.952,286.366 376.464,285.806 377.528,285.414 377.696,284.63 377.864,284.07 377.864,283.846 377.92,283.398 377.528,283.062Z M327.408,272.702 Q329.872,272.478 333.176,276.286 336.424,279.982 336.2,285.19 335.976,290.286 333.624,293.422 331.328,296.502 327.352,296.39 323.32,296.222 320.184,293.702 316.656,291.014 316.824,286.758 317.104,280.934 319.064,277.462 321.752,272.646 327.408,272.702Z M330.376,284.798 Q329.984,284.126 329.256,284.07 328.416,283.958 328.36,283.958 328.136,283.958 327.744,284.238 326.904,285.022 327.632,286.534 328.248,287.822 329.48,287.262 330.376,286.926 330.544,286.198 330.656,285.75 330.656,285.526 330.768,285.134 330.376,284.798Z" test="Parrot"/>
      <path id="Layer2_0_2_STROKES" stroke="#F00" stroke-width="2.24" stroke-linejoin="round" stroke-linecap="round" fill="none" d="M401.216,303.95 Q404.576,304.622 405.416,304.734 406.256,304.846 407.936,304.846 410.344,304.846 414.656,302.158 M394.048,332.622 L395.672,333.07 Q397.576,333.518 398.976,333.518 399.816,333.518 402.168,331.95 404.352,330.494 404.8,329.934 M441.536,358.718 Q431.624,347.966 428.376,333.798 425.632,321.702 427.312,304.174 428.824,288.718 420.928,274.27 412.192,258.31 397.912,252.15 383.632,245.934 372.6,244.87 361.568,243.75 351.04,247.614 340.456,251.478 332.728,259.262 325.056,266.934 324.776,268.67 M322.704,346.51 Q322.2,361.126 314.92,372.998 M359.104,333.518 Q361.624,336.318 363.248,339.398 363.472,339.79 366.272,339.79 367.728,339.79 369.688,339.23 370.08,339.118 373.44,337.998" test="Parrot"/>
      <path id="Layer2_0_3_STROKES" stroke="#0FF" stroke-width="2.24" stroke-linejoin="round" stroke-linecap="round" fill="none" d="M320.072,365.606 L319.344,369.974 Q320.352,370.478 321.584,370.59 322.368,370.702 324.048,370.702 328.696,370.702 332.168,366.726 335.696,362.694 338.272,362.694 339.168,362.694 344.096,363.422 348.968,364.15 349.92,364.15 355.464,364.15 356.584,361.63 357.648,359.054 361.904,359.054 362.856,359.054 366.328,359.782 369.856,360.51 370.752,360.51 371.368,360.51 373.552,358.326 375.68,356.142 378.368,356.142 379.32,356.142 382.96,356.87 386.6,357.598 387.496,357.598 388.504,357.598 391.304,356.142 392.704,355.414 394.048,354.686 394.216,354.686 397.576,356.142 401.328,357.598 403.12,357.598 405.416,357.598 408.384,356.534 409.84,355.974 411.128,355.414 413.368,355.414 424.624,357.99 433.976,360.118 438.176,360.454 439.016,360.51 439.632,360.51 M360.168,386.102 Q359.552,388.174 357.536,406.99 355.576,425.19 354.344,428.382 352.608,433.086 351.992,445.07 351.32,457.782 352.888,465.566 354.624,474.19 362.744,497.766 371.088,521.958 374.784,528.286 376.52,531.31 381.784,539.486 386.04,546.094 389.344,552.366 393.712,560.654 397.184,563.958 400.712,567.374 406.144,568.438 409.784,569.166 415.44,570.51 419.248,570.958 419.248,567.71 419.248,558.638 428.712,563.342 435.376,566.646 437.672,567.094 441.368,567.822 443.328,564.798 444.784,562.614 446.744,558.862 448.872,555.95 453.52,554.55 456.544,553.654 459.232,555.67 459.96,556.23 461.584,550.182 463.432,543.35 466.344,535.846 L468.864,529.742 Q469.592,525.374 471.776,515.182 473.68,506.222 472.784,494.91 471.664,481.246 466.68,470.718 466.4,470.158 453.912,445.462 445.96,429.67 443.328,421.83 441.368,415.95 437.616,407.718 434.984,402.006 434.592,398.478 M474.52,421.438 Q473.848,421.046 472.84,421.046 472.672,421.046 464.104,423.958 462.256,422.95 460.016,421.774 459.624,423.902 458.112,425.526 456.824,426.87 455.984,426.87 454.136,426.87 452.624,425.526 451.392,424.462 451.28,424.686 450.328,425.694 448.928,426.366 447.304,427.094 446.184,426.87 M443.272,364.15 Q473.568,393.102 473.904,421.046 L474.632,421.046 M314.92,372.998 Q309.936,386.326 305.848,400.102 301.76,413.822 298.344,427.766 296.16,436.614 293.472,445.35 289.16,459.294 288.096,473.798 287.872,477.214 288.096,480.518 288.936,494.91 286.64,509.358 285.912,514.174 283.784,518.542 282.216,521.734 280.704,524.87 278.744,522.238 278.184,518.766 273.76,491.438 275.832,464.054 276.168,459.686 276.952,455.318 278.296,448.094 279.472,440.87 280.592,434.206 283.056,427.878 288.152,414.718 293.584,401.782 300.752,384.926 314.92,372.998Z M300.304,440.758 Q303.216,443.502 306.632,444.174 307.64,444.398 311.336,444.398 313.408,444.398 314.36,442.606 315.312,440.758 318.616,440.758 320.8,440.758 325.616,441.206 329.928,441.486 332.448,440.758 338.664,439.022 344.32,438.63 345.832,438.518 350.648,438.518" test="Parrot"/>
      <path id="Layer2_0_4_STROKES" stroke="#0F0" stroke-width="2.24" stroke-linejoin="round" stroke-linecap="round" fill="none" d="M478.832,450.838 Q479.728,449.438 479.728,446.974 479.728,445.238 477.32,434.486 474.8,423.566 473.904,421.774" test="Parrot"/>
      <path id="Layer2_0_5_STROKES" stroke="#FF0" stroke-width="2.24" stroke-linejoin="round" stroke-linecap="round" fill="none" d="M475.36,488.078 L481.912,488.078 Q481.576,486.51 482.752,482.254 484.096,477.606 484.096,476.43 484.096,469.374 481.968,460.358 480.176,452.742 478.832,450.838 M323.04,302.886 Q311.28,308.878 310.048,319.742 309.488,324.726 309.152,329.822 326.568,332.79 333.4,327.918 335.696,320.19 332.224,314.31 328.696,308.374 327.016,306.75 325.336,305.07 323.04,302.886Z M315.704,331.278 Q313.408,342.926 325.616,343.71 327.856,343.542 329.704,342.646 334.184,339.398 332.448,329.71 M292.296,504.206 Q295.376,506.838 296.664,508.35 297,508.574 300.64,508.574 303.552,508.574 313.184,504.934 320.968,502.022 323.264,501.462 323.544,501.35 323.712,501.35 323.768,502.414 328.864,502.694 329.928,502.75 335.36,502.75 337.488,502.75 341.912,501.686 346.336,500.566 348.072,500.566 350.76,500.566 350.984,500.51 352.384,500.062 352.832,497.542 361.568,499.558 359.384,498.998 M323.264,501.462 Q322.984,501.574 323.208,501.966 323.712,502.75 323.712,501.35 M307.584,553.822 Q303.16,557.238 302.152,560.038 301.76,561.214 301.76,565.806 301.76,571.854 305.288,573.814 307.976,575.27 318.616,576.39 318.616,574.598 318.28,573.086 320.52,573.926 323.712,574.934 L327.352,574.934 Q325.896,573.03 324.72,571.462 327.24,572.358 329.536,573.478 L334.632,573.478 334.632,569.838 Q330.6,566.254 329.312,559.87 328.64,553.654 328.08,552.366 327.352,552.366 325.896,551.638 M343.368,554.55 Q342.416,565.974 344.376,569.334 346.056,572.246 352.832,572.75 L352.832,568.382 Q352.216,567.15 351.6,563.902 351.768,564.126 351.88,564.406 355.072,570.846 360.84,572.022 L360.84,566.254 Q361.568,567.43 362.464,568.55 365.376,572.022 368.848,572.75 L369.632,572.75 Q370.024,570.398 368.792,566.198 367.392,561.55 367.392,559.646 367.392,555.782 370.36,553.822 M384.192,560.374 Q383.296,574.71 393.656,601.142 398.08,612.454 402.448,619.678 407.152,627.406 410.064,627.406 414.208,627.406 415.216,626.958 418.632,625.446 419.136,619.398 421.768,620.686 428.6,621.582 434.592,621.582 436.552,615.422 437.784,611.614 438.008,611.166 439.072,609.206 441.088,609.206 441.872,609.206 449.824,612.118 451.056,612.118 453.128,608.478 455.368,604.558 457.104,604.11 461.248,602.934 467.072,602.094 471.216,601.03 473.176,596.83 474.352,596.83 476.368,597.222 478.384,597.558 479,597.558 L479,573.478 Q476.088,563.51 473.008,549.902 470.656,539.598 468.808,534.894" test="Parrot"/>
      <path id="Layer2_0_6_STROKES" stroke="#F0F" stroke-width="2.24" stroke-linejoin="round" stroke-linecap="round" fill="none" d="M280.704,524.87 L281.824,535.062 Q283.616,546.094 287.256,550.182 289.104,552.254 290.168,554.83 290.784,556.23 291.456,558.358 292.016,559.87 292.968,560.038 294.144,560.206 296.72,558.918 300.136,557.238 302.992,553.934 304.952,551.638 307.64,551.638 310.216,551.638 316.712,552.646 322.48,553.15 325.168,550.91 327.8,548.726 333.12,550.014 336.144,550.742 342.696,552.366 346,552.758 350.872,553.71 354.792,554.158 357.984,552.366 361.288,550.518 364.648,550.63 366.776,550.742 371.872,551.638 374.784,552.03 377.976,553.206 379.992,553.598 381.336,550.91 M474.632,534.894 Q477.264,521.454 478.776,512.158 480.008,504.878 481.912,490.99 M431.624,697.462 Q434.76,706.534 435.6,707.878 436.832,709.838 439.968,709.838 441.144,709.838 441.48,709.726 443.048,708.998 444.728,706.198 465.672,727.31 467.016,727.31 475.416,727.31 479,712.806 481.184,704.07 481.184,693.486 481.184,686.822 479.728,680.494 478.776,676.35 476.816,671.198" test="Parrot"/>
      <path id="Layer2_0_7_STROKES" stroke="#F60" stroke-width="2.24" stroke-linejoin="round" stroke-linecap="round" fill="none" d="M411.856,632.502 Q411.296,631.606 410.68,630.71 409.392,628.862 408.944,628.862 L408.944,632.502 Q410.344,641.014 419.696,666.158 430.728,696.006 436.328,696.006 438.736,696.006 444.224,691.302 449.32,686.542 449.432,686.542 450.384,686.542 453.072,687.27 455.816,687.998 456.712,687.998 459.456,687.998 462.144,682.51 463.992,678.702 464.44,676.294 470.768,676.294 473.96,673.046 477.152,669.742 480.456,669.742 480.456,667.222 480.848,661.622 481.184,656.022 481.184,655.462 481.184,650.366 477.936,639.054 474.24,626.286 473.904,623.766 473.344,619.846 473.568,613.07 473.904,605.958 473.904,603.382 L473.176,603.382" test="Parrot"/>
    </g>
    <g id="JuryBoxFront">
      <path fill="#000" stroke="none" d="M-3209.601,578.777 L-3241.311,541.734 -3243.942,725.101 Q-3232.313,725.102 -3216,725.101 L-3209.601,578.777 M973.994,559.722 L972.075,559.722 946.692,584.678 946.692,719.057 Q961.6,719.081 973.994,719.057 L973.994,559.722 M730.192,576.786 Q624.253,579.203 518.528,585.247 411.238,590.437 303.877,591.077 193.814,591.717 83.751,591.575 -23.61,591.433 -130.971,591.077 -244.446,590.722 -357.922,589.371 -469.833,588.091 -581.674,586.242 -692.732,584.465 -803.79,587.309 -913.711,590.082 -1023.702,596.054 -1130.708,600.676 -1237.927,599.04 -1350.833,597.263 -1463.669,590.295 -1568.826,583.256 -1674.41,581.763 -1779.495,580.341 -1884.652,581.265 -1997.488,582.261 -2110.324,583.967 -2223.586,585.745 -2336.777,587.451 -2449.186,589.157 -2561.738,591.006 -2671.232,592.855 -2780.797,593.708 -2889.935,594.561 -2999.358,592.428 -3104.799,590.366 -3209.601,578.777 L-3216,725.101 Q-2923.128,724.973 -1118.834,722.114 598.761,719.334 946.692,719.057 L946.692,584.678 Q838.691,574.369 730.192,576.786 M491.723,562.424 Q484.32,562.771 476.934,563.064 368.933,566.619 260.932,566.619 228.206,566.619 195.449,566.619 116.487,566.64 37.465,566.69 25.751,566.698 14.002,566.69 -87.377,566.592 -188.846,565.126 -221.374,564.659 -253.903,563.704 -286.441,563.487 -319.03,563.206 -343.415,563.066 -367.876,562.85 -392.283,562.206 -416.722,561.855 -530.055,560.291 -643.46,559.153 -731.676,558.286 -819.859,562.139 -832.79,562.746 -845.739,563.419 -952.46,568.325 -1058.968,573.942 L-1286.559,575.08 Q-1400.746,569.605 -1514.79,562.566 -1618.098,555.385 -1722.047,554.389 -1834.456,553.252 -1946.723,554.816 -2056.359,556.38 -2166.137,558.584 -2269.445,560.717 -2372.825,562.921 -2477.911,565.126 -2583.139,566.832 -2693.984,568.609 -2805.113,567.187 -2912.758,565.837 -3020.261,558.727 -3130.893,552.114 -3241.311,541.734 L-3209.601,578.777 Q-3104.799,590.366 -2999.358,592.428 -2889.935,594.561 -2780.797,593.708 -2671.232,592.855 -2561.738,591.006 -2449.186,589.157 -2336.777,587.451 -2223.586,585.745 -2110.324,583.967 -1997.488,582.261 -1884.652,581.265 -1779.495,580.341 -1674.41,581.763 -1568.826,583.256 -1463.669,590.295 -1350.833,597.263 -1237.927,599.04 -1130.708,600.676 -1023.702,596.054 -913.711,590.082 -803.79,587.309 -692.732,584.465 -581.674,586.242 -469.833,588.091 -357.922,589.371 -244.446,590.722 -130.971,591.077 -23.61,591.433 83.751,591.575 193.814,591.717 303.877,591.077 411.238,590.437 518.528,585.247 624.253,579.203 730.192,576.786 838.691,574.369 946.692,584.678 L972.075,559.722 972.146,558.584 Q945.998,556.229 919.816,553.892 899.769,552.023 879.716,550.692 794.445,545.286 708.862,550.408 600.408,557.932 491.723,562.424Z" test="JuryBoxFront" stroke-width="1.422"/>
      <path id="Layer1_0_1_STROKES" stroke="#F60" stroke-width="2.844" stroke-linejoin="round" stroke-linecap="round" fill="none" d="M972.181,558.62 Q945.998,556.229 919.816,553.892 899.769,552.023 879.716,550.728 794.445,545.286 708.862,550.408 600.408,557.932 491.723,562.459 484.32,562.771 476.934,563.064 368.933,566.619 260.932,566.619 228.206,566.619 195.485,566.619 116.487,566.64 37.465,566.69 25.751,566.698 14.038,566.69 -87.377,566.592 -188.846,565.126 -221.374,564.659 -253.903,563.739 -286.441,563.487 -318.995,563.241 -343.415,563.066 -367.84,562.886 -392.283,562.206 -416.722,561.855 -530.055,560.291 -643.46,559.153 -731.676,558.286 -819.823,562.175 -832.79,562.746 -845.739,563.419 -952.46,568.325 -1058.968,573.942 L-1286.559,575.08 Q-1400.746,569.605 -1514.79,562.566 -1618.098,555.385 -1722.047,554.389 -1834.456,553.252 -1946.723,554.816 -2056.359,556.38 -2166.137,558.584 -2269.445,560.717 -2372.825,562.921 -2477.911,565.126 -2583.139,566.832 -2693.984,568.609 -2805.113,567.187 -2912.758,565.837 -3020.261,558.727 -3130.893,552.114 -3241.311,541.734 L-3209.601,578.777 Q-3104.799,590.366 -2999.358,592.428 -2889.935,594.561 -2780.797,593.708 -2671.232,592.855 -2561.738,591.006 -2449.186,589.157 -2336.777,587.451 -2223.586,585.745 -2110.324,583.967 -1997.488,582.261 -1884.652,581.265 -1779.495,580.341 -1674.41,581.763 -1568.826,583.256 -1463.669,590.295 -1350.833,597.263 -1237.927,599.04 -1130.708,600.676 -1023.702,596.054 -913.711,590.082 -803.79,587.309 -692.732,584.465 -581.674,586.242 -469.833,588.091 -357.922,589.371 -244.446,590.722 -130.971,591.077 -23.61,591.433 83.751,591.575 193.814,591.717 303.877,591.077 411.238,590.437 518.528,585.247 624.253,579.203 730.192,576.786 838.691,574.369 946.692,584.678 L972.075,559.722 M972.181,558.62 Q973.087,558.715 973.994,558.798 L973.994,559.722 973.994,719.057 973.994,734.983 M946.692,734.983 L946.692,719.093 M-3216,725.101 L-3216.426,734.983 M946.692,719.093 L946.692,584.678 M-3244.084,734.983 L-3243.942,725.101 -3241.311,541.734 M-3209.601,578.777 L-3216,725.101" test="JuryBoxFront"/>
    </g>
  </g>
</svg>