<?xml version="1.0" encoding="utf-8"?>
<svg id="EdithAnim12" image-rendering="inherit" baseProfile="basic" version="1.1" x="0px" y="0px" width="800" height="600" xmlns="http://www.w3.org/2000/svg" xmlns:xlink="http://www.w3.org/1999/xlink">
  <g id="14_JurorParrotf103r1" overflow="visible">
    <g id="Parrot">
      <path id="Layer2_0_1_STROKES" stroke="#FFF" stroke-width="2.278" stroke-linejoin="round" stroke-linecap="round" fill="none" d="M377.237,273.337 Q381.452,273.849 385.21,277.21 389.766,281.253 388.058,287.688 386.349,294.124 383.16,297.37 379.971,300.559 375.87,300.445 371.713,300.331 368.752,297.939 365.733,295.547 364.993,291.504 364.31,287.631 365.278,284.044 366.189,280.797 367.385,278.861 368.524,276.868 370.916,275.615 373.251,274.305 377.237,273.337Z M377.693,286.72 Q377.123,285.98 376.269,285.866 375.358,285.752 375.301,285.752 374.959,285.752 374.561,286.094 373.592,286.948 374.39,288.656 375.073,290.08 376.611,289.511 377.693,289.112 377.864,288.315 378.035,287.745 378.035,287.517 378.092,287.062 377.693,286.72Z M326.723,276.184 Q329.228,275.957 332.588,279.829 335.892,283.588 335.664,288.884 335.436,294.067 333.044,297.256 330.709,300.388 326.666,300.274 322.565,300.103 319.376,297.541 315.788,294.807 315.959,290.479 316.244,284.556 318.237,281.025 320.971,276.127 326.723,276.184Z M329.741,288.486 Q329.342,287.802 328.602,287.745 327.748,287.631 327.691,287.631 327.463,287.631 327.064,287.916 326.21,288.713 326.95,290.251 327.577,291.561 328.83,290.991 329.741,290.65 329.912,289.909 330.026,289.454 330.026,289.226 330.14,288.827 329.741,288.486Z" test="Parrot"/>
      <path id="Layer2_0_2_STROKES" stroke="#F00" stroke-width="2.278" stroke-linejoin="round" stroke-linecap="round" fill="none" d="M401.783,307.963 Q405.2,308.646 406.054,308.76 406.908,308.874 408.617,308.874 411.066,308.874 415.451,306.14 M394.493,337.121 L396.145,337.577 Q398.081,338.032 399.505,338.032 400.359,338.032 402.751,336.438 404.972,334.957 405.428,334.387 M442.787,363.66 Q432.707,352.725 429.403,338.317 426.613,326.016 428.321,308.19 429.859,292.472 421.829,277.779 412.945,261.548 398.423,255.284 383.9,248.962 372.681,247.88 361.462,246.741 350.756,250.671 339.992,254.6 332.133,262.516 324.331,270.319 324.046,272.084 M321.939,351.245 Q321.426,366.108 314.023,378.182 M358.956,338.032 Q361.519,340.88 363.171,344.012 363.398,344.411 366.246,344.411 367.727,344.411 369.72,343.841 370.119,343.727 373.536,342.588" test="Parrot"/>
      <path id="Layer2_0_3_STROKES" stroke="#0FF" stroke-width="2.278" stroke-linejoin="round" stroke-linecap="round" fill="none" d="M319.262,370.664 L318.522,375.107 Q319.547,375.619 320.8,375.733 321.597,375.847 323.306,375.847 328.032,375.847 331.563,371.803 335.151,367.703 337.771,367.703 338.682,367.703 343.694,368.443 348.648,369.184 349.617,369.184 355.255,369.184 356.394,366.621 357.476,364.001 361.804,364.001 362.772,364.001 366.303,364.742 369.891,365.482 370.802,365.482 371.428,365.482 373.649,363.261 375.814,361.04 378.547,361.04 379.515,361.04 383.217,361.78 386.919,362.521 387.83,362.521 388.855,362.521 391.703,361.04 393.126,360.3 394.493,359.559 394.664,359.559 398.081,361.04 401.897,362.521 403.719,362.521 406.054,362.521 409.072,361.439 410.553,360.869 411.863,360.3 414.141,360.3 425.588,362.919 435.098,365.083 439.37,365.425 440.224,365.482 440.85,365.482 M360.038,391.508 Q359.412,393.615 357.362,412.751 355.368,431.259 354.116,434.505 352.35,439.289 351.724,451.477 351.04,464.404 352.635,472.32 354.4,481.091 362.658,505.066 371.144,529.669 374.902,536.104 376.668,539.18 382.021,547.494 386.349,554.214 389.709,560.593 394.151,569.021 397.682,572.381 401.27,575.855 406.794,576.937 410.496,577.678 416.248,579.045 420.121,579.5 420.121,576.197 420.121,566.971 429.745,571.755 436.522,575.115 438.857,575.571 442.616,576.311 444.609,573.236 446.09,571.015 448.083,567.199 450.247,564.238 454.974,562.814 458.049,561.903 460.783,563.953 461.523,564.522 463.175,558.372 465.054,551.424 468.016,543.792 L470.578,537.585 Q471.319,533.143 473.54,522.778 475.476,513.666 474.565,502.162 473.426,488.266 468.357,477.56 468.073,476.99 455.373,451.875 447.286,435.815 444.609,427.842 442.616,421.863 438.8,413.491 436.124,407.682 435.725,404.094 M476.33,427.444 Q475.647,427.045 474.622,427.045 474.451,427.045 465.738,430.006 463.858,428.981 461.58,427.785 461.182,429.949 459.644,431.601 458.334,432.968 457.48,432.968 455.6,432.968 454.063,431.601 452.81,430.519 452.696,430.747 451.728,431.772 450.304,432.455 448.653,433.196 447.514,432.968 M444.552,369.184 Q475.362,398.627 475.704,427.045 L476.444,427.045 M314.023,378.182 Q308.954,391.736 304.797,405.746 300.64,419.698 297.166,433.879 294.945,442.877 292.211,451.761 287.826,465.942 286.744,480.692 286.516,484.166 286.744,487.526 287.598,502.162 285.263,516.855 284.523,521.753 282.359,526.195 280.764,529.441 279.226,532.63 277.233,529.954 276.664,526.423 272.165,498.631 274.272,470.783 274.613,466.34 275.411,461.898 276.777,454.552 277.973,447.205 279.112,440.428 281.618,433.993 286.801,420.61 292.325,407.454 299.614,390.312 314.023,378.182Z M299.159,447.091 Q302.12,449.882 305.594,450.565 306.619,450.793 310.378,450.793 312.485,450.793 313.453,448.971 314.421,447.091 317.781,447.091 320.003,447.091 324.9,447.547 329.285,447.832 331.848,447.091 338.17,445.326 343.922,444.927 345.459,444.813 350.357,444.813" test="Parrot"/>
      <path id="Layer2_0_4_STROKES" stroke="#0F0" stroke-width="2.278" stroke-linejoin="round" stroke-linecap="round" fill="none" d="M480.715,457.342 Q481.627,455.919 481.627,453.413 481.627,451.647 479.178,440.713 476.615,429.608 475.704,427.785" test="Parrot"/>
      <path id="Layer2_0_5_STROKES" stroke="#FF0" stroke-width="2.278" stroke-linejoin="round" stroke-linecap="round" fill="none" d="M477.185,495.214 L483.848,495.214 Q483.506,493.62 484.702,489.291 486.069,484.564 486.069,483.369 486.069,476.193 483.905,467.024 482.082,459.279 480.715,457.342 M322.281,306.88 Q310.321,312.974 309.068,324.022 308.499,329.091 308.157,334.273 325.868,337.292 332.816,332.337 335.151,324.478 331.62,318.498 328.032,312.462 326.324,310.81 324.615,309.102 322.281,306.88Z M314.82,335.754 Q312.485,347.6 324.9,348.397 327.178,348.226 329.058,347.315 333.614,344.012 331.848,334.16 M291.015,511.616 Q294.147,514.292 295.457,515.83 295.799,516.058 299.501,516.058 302.462,516.058 312.257,512.356 320.173,509.395 322.508,508.825 322.793,508.711 322.964,508.711 323.021,509.793 328.203,510.078 329.285,510.135 334.81,510.135 336.974,510.135 341.473,509.053 345.972,507.914 347.737,507.914 350.471,507.914 350.699,507.857 352.122,507.401 352.578,504.839 361.462,506.889 359.241,506.319 M322.508,508.825 Q322.224,508.939 322.451,509.338 322.964,510.135 322.964,508.711 M306.562,562.073 Q302.063,565.547 301.038,568.395 300.64,569.591 300.64,574.261 300.64,580.411 304.227,582.405 306.961,583.885 317.781,585.024 317.781,583.202 317.44,581.664 319.718,582.518 322.964,583.544 L326.666,583.544 Q325.185,581.607 323.989,580.013 326.552,580.924 328.887,582.063 L334.069,582.063 334.069,578.361 Q329.969,574.716 328.659,568.224 327.976,561.903 327.406,560.593 326.666,560.593 325.185,559.852 M342.953,562.814 Q341.985,574.432 343.978,577.849 345.687,580.81 352.578,581.323 L352.578,576.88 Q351.951,575.628 351.325,572.324 351.496,572.552 351.61,572.837 354.856,579.386 360.722,580.582 L360.722,574.716 Q361.462,575.912 362.373,577.051 365.335,580.582 368.866,581.323 L369.663,581.323 Q370.062,578.931 368.809,574.659 367.385,569.933 367.385,567.996 367.385,564.067 370.403,562.073 M384.47,568.737 Q383.559,583.316 394.094,610.196 398.594,621.7 403.036,629.047 407.819,636.906 410.781,636.906 414.995,636.906 416.02,636.45 419.494,634.912 420.007,628.762 422.683,630.072 429.631,630.983 435.725,630.983 437.718,624.718 438.971,620.846 439.199,620.39 440.281,618.397 442.331,618.397 443.128,618.397 451.215,621.358 452.468,621.358 454.575,617.657 456.853,613.67 458.619,613.215 462.833,612.019 468.756,611.164 472.97,610.082 474.963,605.811 476.159,605.811 478.21,606.21 480.26,606.551 480.886,606.551 L480.886,582.063 Q477.925,571.926 474.793,558.087 472.401,547.608 470.521,542.824" test="Parrot"/>
      <path id="Layer2_0_6_STROKES" stroke="#F0F" stroke-width="2.278" stroke-linejoin="round" stroke-linecap="round" fill="none" d="M279.226,532.63 L280.365,542.995 Q282.188,554.214 285.889,558.372 287.769,560.479 288.851,563.099 289.477,564.522 290.161,566.686 290.73,568.224 291.698,568.395 292.894,568.566 295.514,567.256 298.988,565.547 301.892,562.187 303.886,559.852 306.619,559.852 309.239,559.852 315.845,560.877 321.711,561.39 324.445,559.112 327.121,556.891 332.532,558.201 335.607,558.941 342.27,560.593 345.63,560.991 350.585,561.96 354.571,562.415 357.817,560.593 361.177,558.713 364.594,558.827 366.758,558.941 371.941,559.852 374.902,560.251 378.148,561.447 380.199,561.846 381.565,559.112 M476.444,542.824 Q479.121,529.156 480.658,519.703 481.911,512.299 483.848,498.176 M432.707,708.15 Q435.896,717.376 436.75,718.743 438.003,720.736 441.192,720.736 442.388,720.736 442.73,720.622 444.324,719.882 446.033,717.034 467.332,738.505 468.699,738.505 477.241,738.505 480.886,723.754 483.107,714.87 483.107,704.107 483.107,697.33 481.627,690.894 480.658,686.68 478.665,681.441" test="Parrot"/>
      <path id="Layer2_0_7_STROKES" stroke="#F60" stroke-width="2.278" stroke-linejoin="round" stroke-linecap="round" fill="none" d="M412.603,642.088 Q412.034,641.177 411.407,640.266 410.097,638.386 409.642,638.386 L409.642,642.088 Q411.066,650.745 420.576,676.315 431.795,706.669 437.49,706.669 439.939,706.669 445.52,701.886 450.703,697.045 450.817,697.045 451.785,697.045 454.518,697.785 457.309,698.526 458.22,698.526 461.011,698.526 463.744,692.945 465.624,689.072 466.079,686.623 472.515,686.623 475.761,683.32 479.007,679.96 482.367,679.96 482.367,677.397 482.766,671.702 483.107,666.007 483.107,665.438 483.107,660.255 479.804,648.751 476.046,635.767 475.704,633.204 475.134,629.217 475.362,622.327 475.704,615.094 475.704,612.474 L474.963,612.474" test="Parrot"/>
    </g>
    <g id="JuryBoxFront">
      <path fill="#000" stroke="none" d="M-3381.586,589.127 L-3414.813,550.312 -3417.569,742.448 Q-3405.384,742.449 -3388.291,742.448 L-3381.586,589.127 M1002.069,569.161 L1000.057,569.161 973.46,595.31 973.46,736.115 Q989.082,736.14 1002.069,736.115 L1002.069,569.161 M746.608,587.041 Q635.603,589.574 524.821,595.906 412.401,601.344 299.906,602.015 184.58,602.685 69.254,602.536 -43.241,602.387 -155.736,602.015 -274.638,601.642 -393.54,600.227 -510.803,598.886 -627.991,596.949 -744.36,595.086 -860.729,598.066 -975.906,600.972 -1091.158,607.23 -1203.28,612.073 -1315.626,610.359 -1433.932,608.497 -1552.164,601.195 -1662.349,593.82 -1772.982,592.256 -1883.093,590.766 -1993.278,591.734 -2111.51,592.777 -2229.741,594.565 -2348.42,596.428 -2467.024,598.216 -2584.808,600.003 -2702.742,601.94 -2817.472,603.877 -2932.276,604.772 -3046.634,605.666 -3161.289,603.43 -3271.773,601.27 -3381.586,589.127 L-3388.291,742.448 Q-3081.414,742.313 -1190.839,739.319 608.892,736.406 973.46,736.115 L973.46,595.31 Q860.295,584.507 746.608,587.041 M496.735,571.992 Q488.978,572.355 481.239,572.662 368.074,576.387 254.908,576.387 220.617,576.387 186.294,576.387 103.555,576.409 20.755,576.461 8.48,576.47 -3.831,576.461 -110.057,576.359 -216.379,574.823 -250.463,574.334 -284.546,573.333 -318.641,573.106 -352.788,572.811 -378.339,572.665 -403.97,572.439 -429.544,571.764 -455.151,571.396 -573.904,569.757 -692.732,568.565 -785.167,567.656 -877.566,571.694 -891.117,572.33 -904.684,573.035 -1016.509,578.175 -1128.11,584.06 L-1366.584,585.252 Q-1486.231,579.516 -1605.729,572.141 -1713.978,564.616 -1822.897,563.573 -1940.681,562.381 -2058.317,564.02 -2173.196,565.659 -2288.224,567.969 -2396.472,570.204 -2504.795,572.513 -2614.906,574.823 -2725.167,576.611 -2841.312,578.473 -2957.755,576.983 -3070.548,575.568 -3183.192,568.118 -3299.114,561.189 -3414.813,550.312 L-3381.586,589.127 Q-3271.773,601.27 -3161.289,603.43 -3046.634,605.666 -2932.276,604.772 -2817.472,603.877 -2702.742,601.94 -2584.808,600.003 -2467.024,598.216 -2348.42,596.428 -2229.741,594.565 -2111.51,592.777 -1993.278,591.734 -1883.093,590.766 -1772.982,592.256 -1662.349,593.82 -1552.164,601.195 -1433.932,608.497 -1315.626,610.359 -1203.28,612.073 -1091.158,607.23 -975.906,600.972 -860.729,598.066 -744.36,595.086 -627.991,596.949 -510.803,598.886 -393.54,600.227 -274.638,601.642 -155.736,602.015 -43.241,602.387 69.254,602.536 184.58,602.685 299.906,602.015 412.401,601.344 524.821,595.906 635.603,589.574 746.608,587.041 860.295,584.507 973.46,595.31 L1000.057,569.161 1000.131,567.969 Q972.733,565.501 945.299,563.051 924.293,561.094 903.281,559.699 813.934,554.034 724.258,559.401 610.617,567.285 496.735,571.992Z" test="JuryBoxFront" stroke-width="1.49"/>
      <path id="Layer1_0_1_STROKES" stroke="#F60" stroke-width="2.98" stroke-linejoin="round" stroke-linecap="round" fill="none" d="M1000.169,568.006 Q972.733,565.501 945.299,563.051 924.293,561.094 903.281,559.736 813.934,554.034 724.258,559.401 610.617,567.285 496.735,572.029 488.978,572.355 481.239,572.662 368.074,576.387 254.908,576.387 220.617,576.387 186.331,576.387 103.555,576.409 20.755,576.461 8.48,576.47 -3.793,576.461 -110.057,576.359 -216.379,574.823 -250.463,574.334 -284.546,573.37 -318.641,573.106 -352.751,572.848 -378.339,572.665 -403.933,572.476 -429.544,571.764 -455.151,571.396 -573.904,569.757 -692.732,568.565 -785.167,567.656 -877.529,571.731 -891.117,572.33 -904.684,573.035 -1016.509,578.175 -1128.11,584.06 L-1366.584,585.252 Q-1486.231,579.516 -1605.729,572.141 -1713.978,564.616 -1822.897,563.573 -1940.681,562.381 -2058.317,564.02 -2173.196,565.659 -2288.224,567.969 -2396.472,570.204 -2504.795,572.513 -2614.906,574.823 -2725.167,576.611 -2841.312,578.473 -2957.755,576.983 -3070.548,575.568 -3183.192,568.118 -3299.114,561.189 -3414.813,550.312 L-3381.586,589.127 Q-3271.773,601.27 -3161.289,603.43 -3046.634,605.666 -2932.276,604.772 -2817.472,603.877 -2702.742,601.94 -2584.808,600.003 -2467.024,598.216 -2348.42,596.428 -2229.741,594.565 -2111.51,592.777 -1993.278,591.734 -1883.093,590.766 -1772.982,592.256 -1662.349,593.82 -1552.164,601.195 -1433.932,608.497 -1315.626,610.359 -1203.28,612.073 -1091.158,607.23 -975.906,600.972 -860.729,598.066 -744.36,595.086 -627.991,596.949 -510.803,598.886 -393.54,600.227 -274.638,601.642 -155.736,602.015 -43.241,602.387 69.254,602.536 184.58,602.685 299.906,602.015 412.401,601.344 524.821,595.906 635.603,589.574 746.608,587.041 860.295,584.507 973.46,595.31 L1000.057,569.161 M1000.169,568.006 Q1001.118,568.106 1002.069,568.192 L1002.069,569.161 1002.069,736.115 1002.069,752.803 M973.46,752.803 L973.46,736.152 M-3388.291,742.448 L-3388.738,752.803 M973.46,736.152 L973.46,595.31 M-3417.718,752.803 L-3417.569,742.448 -3414.813,550.312 M-3381.586,589.127 L-3388.291,742.448" test="JuryBoxFront"/>
    </g>
  </g>
</svg>