<?xml version="1.0" encoding="utf-8"?>
<svg id="EdithAnim12" image-rendering="inherit" baseProfile="basic" version="1.1" x="0px" y="0px" width="800" height="600" xmlns="http://www.w3.org/2000/svg" xmlns:xlink="http://www.w3.org/1999/xlink">
  <g id="14_JurorParrotf11r1" overflow="visible">
    <g id="JurorsBack">
      <path fill="#000" stroke="none" d="M1069.17,132.33 Q1067.17,133.01 1065.25,133.85 1047.85,140.73 1036.09,155.21 1023.73,170.41 1024.57,190.05 1025.37,209.25 1035.37,225.73 1040.57,234.33 1056.73,242.29 1065.05,246.37 1071.81,248.13 1078.05,249.73 1082.97,249.33 1085.65,249.13 1088.93,247.81 1097.21,244.49 1109.37,234.25 1116.29,228.41 1121.41,222.69 1126.61,216.89 1127.53,213.89 1131.17,202.25 1130.85,190.01 1130.29,170.41 1119.09,154.57 1114.01,147.45 1106.37,142.89 1089.53,132.81 1069.77,134.21 L1069.17,132.33 M1053.17,182.05 L1049.21,184.97 1053.17,182.05 M1089.81,173.09 L1085.81,176.01 1089.81,173.09 M1085.25,226.97 Q1084.13,226.77 1083.01,226.61 1084.13,226.77 1085.25,226.97 1096.77,228.57 1102.85,218.61 1096.77,228.57 1085.25,226.97 M849.41,138.21 Q840.85,140.41 833.45,145.25 826.17,149.97 819.89,156.17 813.49,162.57 809.41,170.73 805.29,179.09 804.29,188.25 803.29,197.37 805.37,206.25 807.45,215.33 812.01,223.33 816.57,231.29 823.09,237.73 829.85,244.37 838.29,248.61 842.93,251.01 847.93,252.33 851.73,253.29 855.73,253.65 858.21,253.57 860.69,253.29 867.49,252.49 874.05,250.29 883.05,247.29 890.61,241.45 898.13,235.57 902.77,227.05 907.05,219.17 909.17,210.53 911.29,201.89 910.53,192.97 909.73,183.61 905.57,175.05 901.61,166.85 895.65,160.01 889.85,153.37 883.21,147.53 876.09,141.37 866.97,138.57 858.29,135.81 849.41,138.21 M874.77,177.33 Q876.81,178.65 876.81,180.49 876.81,178.65 874.77,177.33 872.69,176.01 869.77,176.01 872.69,176.01 874.77,177.33 M843.57,174.85 Q845.45,175.97 845.45,177.57 845.45,175.97 843.57,174.85 841.69,173.73 839.05,173.73 841.69,173.73 843.57,174.85 M837.01,231.09 Q836.89,231.21 836.89,231.45 836.89,231.21 837.01,231.09 840.45,227.89 843.53,231.09 840.45,227.89 837.01,231.09 M625.41,141.81 L625.69,142.53 630.53,141.17 625.69,142.53 Q619.17,145.01 613.45,149.05 606.93,153.73 602.33,160.29 598.21,166.13 595.69,172.93 593.29,179.53 592.57,186.53 591.81,193.69 592.85,200.69 593.97,208.13 597.25,214.93 600.37,221.49 605.69,226.53 611.05,231.61 617.69,235.09 622.05,237.41 626.81,238.61 629.65,239.29 632.65,239.61 639.49,240.61 646.33,239.17 646.89,239.05 647.49,238.93 654.01,237.37 660.05,234.29 666.49,230.89 671.73,225.93 677.01,220.85 680.77,214.33 684.37,208.21 686.09,201.29 687.81,194.45 687.33,187.45 686.81,180.13 684.65,173.21 682.53,166.41 678.69,160.53 674.85,154.61 669.69,149.53 664.21,144.21 657.33,141.05 650.29,137.81 642.37,137.61 635.65,138.29 629.01,140.37 627.41,140.85 625.77,141.21 L625.41,141.81 M638.53,174.13 L643.97,174.77 638.53,174.13 M642.97,222.01 Q644.93,220.61 644.93,218.61 644.93,220.61 642.97,222.01 641.01,223.41 638.21,223.41 641.01,223.41 642.97,222.01 M618.69,180.01 L613.25,179.37 618.69,180.01 M1482.93,135.93 Q1474.53,137.81 1466.89,142.05 1458.61,146.69 1452.65,154.09 1447.05,161.05 1444.61,169.61 1442.05,178.41 1441.65,187.65 1441.25,196.65 1442.41,205.61 1443.53,214.49 1448.53,221.93 1453.69,229.61 1461.21,234.85 1468.49,239.97 1476.81,243.13 1485.65,246.41 1495.09,246.85 1504.09,247.61 1512.49,244.21 1521.29,240.73 1527.61,233.53 1533.97,226.33 1537.93,217.77 1541.89,209.17 1543.53,199.73 1545.09,190.73 1543.97,181.61 1542.81,172.09 1538.53,163.41 1534.29,154.93 1527.33,148.57 1521.41,143.13 1514.57,138.89 1508.05,134.81 1500.73,132.33 L1500.13,134.21 Q1491.41,134.17 1482.93,135.93 M1507.81,177.57 L1511.65,180.49 1507.81,177.57 M1476.13,180.49 L1479.97,183.41 1476.13,180.49 M1476.05,221.77 Q1476.73,221.61 1477.41,221.49 1476.73,221.61 1476.05,221.77 1470.81,223.25 1468.13,218.61 1470.81,223.25 1476.05,221.77 M1259.25,166.65 Q1255.29,174.57 1253.77,183.17 1252.21,191.89 1253.49,200.61 1254.85,209.97 1259.53,218.01 1264.17,225.97 1271.49,231.45 1279.09,237.05 1288.13,239.33 1289.81,239.73 1291.45,240.01 1297.33,240.93 1303.25,240.13 1304.93,239.85 1306.61,239.49 1315.69,237.53 1323.57,232.89 1331.69,228.25 1337.41,221.01 1343.17,213.73 1345.85,204.85 1348.45,196.37 1347.77,187.41 1347.09,178.69 1343.89,170.65 1340.41,162.05 1334.61,154.81 1328.97,147.81 1321.09,143.41 1313.33,139.09 1304.37,139.17 1295.05,139.25 1285.97,141.17 L1285.61,141.81 1285.89,142.53 1290.73,141.17 1285.89,142.53 Q1277.77,146.13 1270.85,151.93 1263.49,158.13 1259.25,166.65 M1278.89,180.01 L1273.45,179.37 1278.89,180.01 M1298.73,174.13 L1304.17,174.77 1298.73,174.13 M1298.41,223.41 Q1301.21,223.41 1303.17,222.01 1305.13,220.61 1305.13,218.61 1305.13,220.61 1303.17,222.01 1301.21,223.41 1298.41,223.41Z" test="JurorsBack" vector-effect="non-scaling-stroke" stroke-width="1"/>
      <path id="Layer3_0_1_STROKES" stroke="#FFF" stroke-width="1.6" stroke-linejoin="round" stroke-linecap="round" fill="none" d="M1285.89,142.53 Q1277.77,146.13 1270.85,151.93 1263.49,158.13 1259.25,166.65 1255.29,174.57 1253.77,183.17 1252.21,191.89 1253.49,200.61 1254.85,209.97 1259.53,218.01 1264.17,225.97 1271.49,231.45 1279.09,237.05 1288.13,239.33 1289.81,239.73 1291.45,240.01 1297.33,240.93 1303.25,240.13 1304.93,239.85 1306.61,239.49 1315.69,237.53 1323.57,232.89 1331.69,228.25 1337.41,221.01 1343.17,213.73 1345.85,204.85 1348.45,196.37 1347.77,187.41 1347.09,178.69 1343.89,170.65 1340.41,162.05 1334.61,154.81 1328.97,147.81 1321.09,143.41 1313.33,139.09 1304.37,139.17 1295.05,139.25 1285.97,141.17 L1285.61,141.81 M1290.73,141.17 L1285.89,142.53 M1278.89,180.01 L1273.45,179.37 M1298.73,174.13 L1304.17,174.77 M1298.41,223.41 Q1301.21,223.41 1303.17,222.01 1305.13,220.61 1305.13,218.61 M1500.13,134.21 Q1491.41,134.17 1482.93,135.93 1474.53,137.81 1466.89,142.05 1458.61,146.69 1452.65,154.09 1447.05,161.05 1444.61,169.61 1442.05,178.41 1441.65,187.65 1441.25,196.65 1442.41,205.61 1443.53,214.49 1448.53,221.93 1453.69,229.61 1461.21,234.85 1468.49,239.97 1476.81,243.13 1485.65,246.41 1495.09,246.85 1504.09,247.61 1512.49,244.21 1521.29,240.73 1527.61,233.53 1533.97,226.33 1537.93,217.77 1541.89,209.17 1543.53,199.73 1545.09,190.73 1543.97,181.61 1542.81,172.09 1538.53,163.41 1534.29,154.93 1527.33,148.57 1521.41,143.13 1514.57,138.89 1508.05,134.81 1500.73,132.33 L1492.13,130.85 M1507.81,177.57 L1511.65,180.49 M1476.13,180.49 L1479.97,183.41 M1468.13,218.61 Q1470.81,223.25 1476.05,221.77 1476.73,221.61 1477.41,221.49 M1497.77,251.77 Q1498.57,252.77 1499.41,253.81 1522.57,283.13 1534.09,320.09 1541.09,342.61 1548.13,365.01 M1437.73,366.73 Q1442.13,322.97 1464.09,285.97 1474.93,267.65 1489.57,253.81 1490.65,252.77 1491.73,251.77 M1251.25,372.21 Q1255.73,345.13 1263.29,319.17 1266.57,307.89 1269.69,296.49 1276.57,271.37 1286.73,249.05 1288.09,246.09 1289.57,243.33 M1305.25,243.33 Q1314.09,257.93 1320.37,275.41 1329.29,300.25 1337.21,326.01 1342.49,343.13 1347.69,360.33 M630.53,141.17 L625.69,142.53 Q619.17,145.01 613.45,149.05 606.93,153.73 602.33,160.29 598.21,166.13 595.69,172.93 593.29,179.53 592.57,186.53 591.81,193.69 592.85,200.69 593.97,208.13 597.25,214.93 600.37,221.49 605.69,226.53 611.05,231.61 617.69,235.09 622.05,237.41 626.81,238.61 629.65,239.29 632.65,239.61 639.49,240.61 646.33,239.17 646.89,239.05 647.49,238.93 654.01,237.37 660.05,234.29 666.49,230.89 671.73,225.93 677.01,220.85 680.77,214.33 684.37,208.21 686.09,201.29 687.81,194.45 687.33,187.45 686.81,180.13 684.65,173.21 682.53,166.41 678.69,160.53 674.85,154.61 669.69,149.53 664.21,144.21 657.33,141.05 650.29,137.81 642.37,137.61 635.65,138.29 629.01,140.37 627.41,140.85 625.77,141.21 L625.41,141.81 M638.53,174.13 L643.97,174.77 M638.21,223.41 Q641.01,223.41 642.97,222.01 644.93,220.61 644.93,218.61 M855.73,253.65 Q858.21,253.57 860.69,253.29 867.49,252.49 874.05,250.29 883.05,247.29 890.61,241.45 898.13,235.57 902.77,227.05 907.05,219.17 909.17,210.53 911.29,201.89 910.53,192.97 909.73,183.61 905.57,175.05 901.61,166.85 895.65,160.01 889.85,153.37 883.21,147.53 876.09,141.37 866.97,138.57 858.29,135.81 849.41,138.21 840.85,140.41 833.45,145.25 826.17,149.97 819.89,156.17 813.49,162.57 809.41,170.73 805.29,179.09 804.29,188.25 803.29,197.37 805.37,206.25 807.45,215.33 812.01,223.33 816.57,231.29 823.09,237.73 829.85,244.37 838.29,248.61 842.93,251.01 847.93,252.33 851.73,253.29 855.73,253.65Z M869.77,176.01 Q872.69,176.01 874.77,177.33 876.81,178.65 876.81,180.49 M839.05,173.73 Q841.69,173.73 843.57,174.85 845.45,175.97 845.45,177.57 M1069.77,134.21 Q1089.53,132.81 1106.37,142.89 1114.01,147.45 1119.09,154.57 1130.29,170.41 1130.85,190.01 1131.17,202.25 1127.53,213.89 1126.61,216.89 1121.41,222.69 1116.29,228.41 1109.37,234.25 1097.21,244.49 1088.93,247.81 1085.65,249.13 1082.97,249.33 1078.05,249.73 1071.81,248.13 1065.05,246.37 1056.73,242.29 1040.57,234.33 1035.37,225.73 1025.37,209.25 1024.57,190.05 1023.73,170.41 1036.09,155.21 1047.85,140.73 1065.25,133.85 1067.17,133.01 1069.17,132.33 M1053.17,182.05 L1049.21,184.97 M1089.81,173.09 L1085.81,176.01 M1102.85,218.61 Q1096.77,228.57 1085.25,226.97 1084.13,226.77 1083.01,226.61 M618.69,180.01 L613.25,179.37 M591.77,346.97 Q592.73,341.17 594.33,335.45 600.33,313.81 606.37,292.09 612.89,268.77 622.45,247.41 623.09,245.97 625.13,241.93 M1129.05,355.37 Q1125.93,329.09 1116.33,305.65 1106.93,282.57 1096.57,260.01 1094.53,255.61 1092.05,251.93 M1070.01,251.93 Q1067.13,258.69 1065.65,266.41 1063.77,276.17 1061.37,285.65 1055.73,307.85 1051.33,330.53 1048.93,343.05 1046.57,355.37 M863.09,256.85 Q867.61,263.77 871.37,271.41 880.53,290.09 888.97,308.97 896.49,325.81 901.33,344.05 M843.53,231.09 Q840.45,227.89 837.01,231.09 836.89,231.21 836.89,231.45 M806.01,344.05 Q807.97,337.81 810.49,331.77 819.61,310.21 828.89,288.57 835.69,272.65 844.29,258.25 844.69,257.53 845.13,256.85 M648.89,242.33 Q656.37,253.17 660.17,262.81 669.05,285.33 676.97,308.73 682.25,324.21 687.49,339.77" test="JurorsBack"/>
    </g>
    <g id="Tween-1">
      <g id="JurorsFront">
        <path fill="#000" stroke="none" d="M997.226,275.215 Q990.497,275.896 983.849,277.979 982.247,278.459 980.605,278.82 L980.245,279.42 980.485,280.101 985.371,278.78 980.485,280.101 Q973.997,282.624 968.27,286.669 961.742,291.355 957.136,297.924 953.011,303.771 950.487,310.579 948.084,317.188 947.364,324.196 946.603,331.365 947.644,338.374 948.765,345.823 952.049,352.632 955.173,359.2 960.5,364.246 965.867,369.333 972.515,372.817 976.885,375.139 981.606,376.301 984.494,377.041 987.494,377.343 994.342,378.344 1001.191,376.902 1001.76,376.781 1002.312,376.622 1008.882,375.113 1014.928,372.016 1021.376,368.612 1026.623,363.646 1031.909,358.559 1035.674,352.031 1039.278,345.903 1041,338.975 1042.723,332.126 1042.242,325.117 1041.721,317.788 1039.559,310.86 1037.436,304.051 1033.591,298.164 1029.746,292.236 1024.58,287.15 1019.093,281.823 1012.205,278.659 1005.156,275.415 997.226,275.215 M973.516,317.668 L968.069,317.027 973.516,317.668 M993.381,311.781 L998.828,312.422 993.381,311.781 M993.061,361.122 Q995.864,361.122 997.827,359.721 999.789,358.319 999.789,356.316 999.789,358.319 997.827,359.721 995.864,361.122 993.061,361.122 M774.187,260.917 L773.587,262.84 Q735.659,260.757 720.641,295.16 712.15,314.664 716.876,335.33 723.164,362.885 750.758,372.817 755.363,374.409 760.49,375.621 762.816,376.159 765.216,376.622 766.224,376.808 767.739,376.862 769.232,376.854 771.144,376.622 772.476,376.465 773.747,376.261 804.769,371.234 814.838,337.573 825.331,302.489 799.419,276.377 788.685,265.643 774.187,260.917 M781.276,306.254 L785.121,309.178 781.276,306.254 M749.557,309.178 L753.401,312.101 749.557,309.178 M749.477,350.509 Q750.157,350.349 750.838,350.229 750.157,350.349 749.477,350.509 744.19,351.991 741.547,347.345 744.19,351.991 749.477,350.509 M598.328,356.917 Q603.534,337.453 595.044,319.31 588.315,304.932 577.702,293.158 567.089,281.423 551.509,279.701 530.603,279.941 551.389,280.021 532.045,282.544 516.305,293.959 499.364,306.214 495.319,326.599 491.314,346.825 499.565,365.528 507.254,383.07 523.114,393.883 530.232,398.687 538.373,399.931 541.237,400.371 544.22,400.371 546.612,400.691 548.906,400.772 565.76,401.351 578.783,389.278 593.241,375.941 598.328,356.917 M542.939,327 Q544.821,328.121 544.821,329.723 544.821,328.121 542.939,327 541.056,325.878 538.413,325.878 541.056,325.878 542.939,327 M565.166,327.841 Q567.249,329.162 567.249,331.005 567.249,329.162 565.166,327.841 563.124,326.519 560.2,326.519 563.124,326.519 565.166,327.841 M516.626,361.763 L535.85,368.171 516.626,361.763 M1493.245,271.811 L1492.644,269.888 Q1490.642,270.609 1488.719,271.45 1471.298,278.339 1459.523,292.837 1447.148,308.056 1447.989,327.721 1448.79,346.945 1458.802,363.445 1464.009,372.056 1480.189,380.026 1488.508,384.102 1495.248,385.833 1501.533,387.459 1506.462,387.075 1509.144,386.859 1512.429,385.553 1520.734,382.243 1532.895,371.976 1539.823,366.129 1544.95,360.402 1550.156,354.594 1551.077,351.59 1554.722,339.936 1554.401,327.681 1553.841,308.056 1542.627,292.196 1537.54,285.067 1529.891,280.502 1513.03,270.409 1493.245,271.811 M1476.624,319.711 L1472.659,322.634 1476.624,319.711 M1513.31,310.739 L1509.305,313.663 1513.31,310.739 M1508.744,364.687 Q1507.623,364.487 1506.502,364.326 1507.623,364.487 1508.744,364.687 1520.279,366.289 1526.366,356.316 1520.279,366.289 1508.744,364.687 M1273.17,276.176 Q1264.479,273.413 1255.588,275.816 1247.018,278.019 1239.608,282.865 1232.319,287.591 1226.031,293.798 1219.623,300.206 1215.538,308.377 1211.413,316.747 1210.412,325.918 1209.411,335.05 1211.493,343.941 1213.576,353.032 1218.142,361.042 1222.707,369.012 1229.235,375.46 1236.004,382.109 1244.454,386.354 1249.117,388.753 1254.066,390.039 1257.911,391.052 1261.916,391.4 1264.411,391.304 1266.882,391 1273.676,390.24 1280.259,388.036 1289.27,385.032 1296.84,379.185 1304.369,373.298 1309.015,364.767 1313.3,356.877 1315.423,348.226 1317.546,339.576 1316.785,330.644 1315.984,321.273 1311.819,312.702 1307.854,304.492 1301.886,297.643 1296.079,290.995 1289.431,285.148 1282.302,278.98 1273.17,276.176 M1280.94,314.985 Q1283.023,316.306 1283.023,318.149 1283.023,316.306 1280.94,314.985 1278.897,313.663 1275.974,313.663 1278.897,313.663 1280.94,314.985 M1249.741,312.502 Q1251.623,313.623 1251.623,315.225 1251.623,313.623 1249.741,312.502 1247.859,311.38 1245.215,311.38 1247.859,311.38 1249.741,312.502 M1243.173,368.812 Q1243.053,368.932 1243.053,369.172 1243.053,368.932 1243.173,368.812 1246.617,365.608 1249.701,368.812 1246.617,365.608 1243.173,368.812 M1694.576,289.553 Q1687.207,295.761 1682.962,304.291 1678.997,312.221 1677.475,320.832 1675.913,329.563 1677.195,338.294 1678.556,347.666 1683.242,355.716 1687.888,363.686 1695.217,369.172 1702.827,374.779 1711.878,377.062 1713.541,377.467 1715.202,377.703 1721.081,378.659 1726.977,377.823 1728.684,377.602 1730.381,377.222 1739.472,375.26 1747.362,370.614 1755.492,365.968 1761.22,358.719 1766.987,351.43 1769.67,342.539 1772.273,334.049 1771.593,325.077 1770.912,316.347 1767.708,308.296 1764.223,299.686 1758.416,292.437 1752.769,285.428 1744.879,281.022 1737.11,276.697 1728.138,276.777 1718.807,276.857 1709.715,278.78 L1709.355,279.42 1709.635,280.141 1714.481,278.78 1709.635,280.141 Q1701.505,283.746 1694.576,289.553 M1722.491,311.781 L1727.938,312.422 1722.491,311.781 M1702.626,317.668 L1697.18,317.027 1702.626,317.668 M1722.171,361.122 Q1724.974,361.122 1726.937,359.721 1728.899,358.319 1728.899,356.316 1728.899,358.319 1726.937,359.721 1724.974,361.122 1722.171,361.122Z" test="JurorsFront" vector-effect="non-scaling-stroke" stroke-width="1"/>
        <path id="Layer4_0_1_STROKES" stroke="#FFF" stroke-width="1.602" stroke-linejoin="round" stroke-linecap="round" fill="none" d="M1709.635,280.141 Q1701.505,283.746 1694.576,289.553 1687.207,295.761 1682.962,304.291 1678.997,312.221 1677.475,320.832 1675.913,329.563 1677.195,338.294 1678.556,347.666 1683.242,355.716 1687.888,363.686 1695.217,369.172 1702.827,374.779 1711.878,377.062 1713.541,377.467 1715.202,377.723 1721.081,378.659 1726.997,377.843 1728.684,377.602 1730.381,377.222 1739.472,375.26 1747.362,370.614 1755.492,365.968 1761.22,358.719 1766.987,351.43 1769.67,342.539 1772.273,334.049 1771.593,325.077 1770.912,316.347 1767.708,308.296 1764.223,299.686 1758.416,292.437 1752.769,285.428 1744.879,281.022 1737.11,276.697 1728.138,276.777 1718.807,276.857 1709.715,278.78 L1709.355,279.42 M1714.481,278.78 L1709.635,280.141 M1722.491,311.781 L1727.938,312.422 M1702.626,317.668 L1697.18,317.027 M1261.916,391.4 Q1264.411,391.304 1266.882,391.02 1273.676,390.24 1280.259,388.036 1289.27,385.032 1296.84,379.185 1304.369,373.298 1309.015,364.767 1313.3,356.877 1315.423,348.226 1317.546,339.576 1316.785,330.644 1315.984,321.273 1311.819,312.702 1307.854,304.492 1301.886,297.643 1296.079,290.995 1289.431,285.148 1282.302,278.98 1273.17,276.176 1264.479,273.413 1255.588,275.816 1247.018,278.019 1239.608,282.865 1232.319,287.591 1226.031,293.798 1219.623,300.206 1215.538,308.377 1211.413,316.747 1210.412,325.918 1209.411,335.05 1211.493,343.941 1213.576,353.032 1218.142,361.042 1222.707,369.012 1229.235,375.46 1236.004,382.109 1244.454,386.354 1249.117,388.753 1254.086,390.059 1257.911,391.052 1261.916,391.4Z M1275.974,313.663 Q1278.897,313.663 1280.96,314.985 1283.023,316.306 1283.023,318.149 M1245.215,311.38 Q1247.859,311.38 1249.741,312.502 1251.623,313.623 1251.623,315.225 M1493.245,271.811 Q1513.03,270.409 1529.891,280.502 1537.54,285.067 1542.627,292.196 1553.841,308.056 1554.401,327.681 1554.722,339.936 1551.077,351.59 1550.156,354.594 1544.95,360.402 1539.823,366.129 1532.895,371.976 1520.734,382.243 1512.429,385.553 1509.144,386.859 1506.462,387.075 1501.533,387.459 1495.268,385.853 1488.508,384.102 1480.189,380.026 1464.009,372.056 1458.802,363.445 1448.79,346.945 1447.989,327.721 1447.148,308.056 1459.523,292.837 1471.298,278.339 1488.719,271.45 1490.642,270.609 1492.644,269.909 M1476.624,319.711 L1472.659,322.634 M1513.31,310.739 L1509.305,313.663 M1526.366,356.316 Q1520.279,366.289 1508.744,364.687 1507.623,364.487 1506.502,364.326 M1552.599,493.247 Q1549.475,466.935 1539.863,443.465 1530.452,420.356 1520.079,397.768 1518.037,393.363 1515.553,389.678 M1493.485,389.678 Q1490.615,396.441 1489.12,404.176 1487.238,413.948 1484.835,423.44 1479.188,445.668 1474.782,468.376 1472.379,480.912 1470.016,493.247 M1212.134,481.913 Q1214.097,475.665 1216.62,469.618 1225.751,448.031 1235.043,426.364 1241.866,410.41 1250.442,396.006 1250.858,395.303 1251.283,394.604 M1269.285,394.604 Q1273.805,401.552 1277.576,409.182 1286.747,427.886 1295.198,446.789 1302.727,463.65 1307.573,481.913 M1249.701,368.812 Q1246.617,365.608 1243.173,368.812 1243.053,368.932 1243.053,369.172 M1722.171,361.122 Q1724.974,361.122 1726.937,359.721 1728.899,358.319 1728.899,356.316 M1674.952,510.108 Q1679.438,482.995 1687.007,457.002 1690.291,445.708 1693.415,434.294 1700.304,409.142 1710.476,386.794 1711.835,383.838 1713.32,381.067 M1729.019,381.067 Q1737.885,395.68 1744.158,413.187 1753.089,438.058 1761.019,463.851 1766.306,480.992 1771.512,498.214 M538.413,325.878 Q541.056,325.878 542.939,327 544.821,328.121 544.821,329.723 M560.2,326.519 Q563.124,326.519 565.186,327.841 567.249,329.162 567.249,331.005 M551.389,280.021 Q532.045,282.544 516.305,293.959 499.364,306.214 495.319,326.599 491.314,346.825 499.565,365.528 507.254,383.07 523.114,393.883 530.232,398.687 538.373,399.931 541.237,400.371 544.22,400.371 546.612,400.691 548.926,400.772 565.76,401.351 578.783,389.278 593.241,375.941 598.328,356.917 603.534,337.453 595.044,319.31 588.315,304.932 577.702,293.158 567.089,281.423 551.529,279.701 M774.187,260.937 L765.577,259.476 M773.587,262.84 Q735.659,260.757 720.641,295.16 712.15,314.664 716.876,335.33 723.164,362.885 750.758,372.817 755.363,374.409 760.49,375.621 762.816,376.159 765.236,376.622 766.224,376.808 767.739,376.862 769.232,376.854 771.164,376.622 772.476,376.465 773.747,376.261 804.769,371.234 814.838,337.573 825.331,302.489 799.419,276.377 788.685,265.643 774.187,260.937 M781.276,306.254 L785.121,309.178 M749.557,309.178 L753.401,312.101 M741.547,347.345 Q744.19,351.991 749.477,350.509 750.157,350.349 750.838,350.229 M980.505,280.121 Q973.997,282.624 968.27,286.669 961.742,291.355 957.136,297.924 953.011,303.771 950.487,310.579 948.084,317.188 947.364,324.196 946.603,331.365 947.644,338.374 948.765,345.823 952.049,352.632 955.173,359.2 960.5,364.246 965.867,369.333 972.515,372.817 976.885,375.139 981.626,376.321 984.494,377.041 987.494,377.343 994.342,378.344 1001.191,376.902 1001.76,376.781 1002.332,376.642 1008.882,375.113 1014.928,372.016 1021.376,368.612 1026.623,363.646 1031.909,358.559 1035.674,352.031 1039.278,345.903 1041,338.975 1042.723,332.126 1042.242,325.117 1041.721,317.788 1039.559,310.86 1037.436,304.051 1033.591,298.164 1029.746,292.236 1024.58,287.15 1019.093,281.823 1012.205,278.659 1005.156,275.415 997.226,275.215 990.497,275.896 983.849,277.979 982.247,278.459 980.605,278.82 L980.245,279.42 M985.371,278.78 L980.505,280.121 M973.516,317.668 L968.069,317.027 M993.381,311.781 L998.828,312.422 M494.879,490.924 Q502.849,471.741 511.7,452.997 519.91,435.615 528.441,418.674 531.285,413.007 535.529,405.137 M993.061,361.122 Q995.864,361.122 997.827,359.721 999.789,358.319 999.789,356.316 M1003.754,380.066 Q1011.23,390.937 1015.048,400.572 1023.939,423.12 1031.869,446.549 1037.156,462.048 1042.402,477.628 M946.563,484.837 Q947.524,479.03 949.126,473.302 955.133,451.635 961.181,429.888 967.709,406.539 977.281,385.152 977.935,383.695 979.964,379.666 M776.37,380.226 Q797.732,412.903 807.389,446.589 813.476,467.936 819.924,488.962 M711.429,488.962 Q718.918,444.987 740.786,407.54 748.248,394.713 757.527,380.226 M551.109,405.137 Q555.953,414.792 559.88,422.319 569.091,439.901 577.382,457.923 584.791,473.983 589.917,490.924 M516.626,361.763 L535.85,368.171" test="JurorsFront"/>
      </g>
    </g>
    <g id="Parrot">
      <path id="Layer2_0_1_STROKES" stroke="#FFF" stroke-width="2" stroke-linejoin="round" stroke-linecap="round" fill="none" d="M2111.6,248.3 Q2115.3,248.75 2118.6,251.7 2122.6,255.25 2121.1,260.9 2119.6,266.55 2116.8,269.4 2114,272.2 2110.4,272.1 2106.75,272 2104.15,269.9 2101.5,267.8 2100.85,264.25 2100.25,260.85 2101.1,257.7 2101.9,254.85 2102.95,253.15 2103.95,251.4 2106.05,250.3 2108.1,249.15 2111.6,248.3Z M2112,260.05 Q2111.5,259.4 2110.75,259.3 2109.95,259.2 2109.9,259.2 2109.6,259.2 2109.25,259.5 2108.4,260.25 2109.1,261.75 2109.7,263 2111.05,262.5 2112,262.15 2112.15,261.45 2112.3,260.95 2112.3,260.75 2112.35,260.35 2112,260.05Z M2067.25,250.8 Q2069.45,250.6 2072.4,254 2075.3,257.3 2075.1,261.95 2074.9,266.5 2072.8,269.3 2070.75,272.05 2067.2,271.95 2063.6,271.8 2060.8,269.55 2057.65,267.15 2057.8,263.35 2058.05,258.15 2059.8,255.05 2062.2,250.75 2067.25,250.8Z M2069.9,261.6 Q2069.55,261 2068.9,260.95 2068.15,260.85 2068.1,260.85 2067.9,260.85 2067.55,261.1 2066.8,261.8 2067.45,263.15 2068,264.3 2069.1,263.8 2069.9,263.5 2070.05,262.85 2070.15,262.45 2070.15,262.25 2070.25,261.9 2069.9,261.6Z" test="Parrot"/>
      <path id="Layer2_0_2_STROKES" stroke="#F00" stroke-width="2" stroke-linejoin="round" stroke-linecap="round" fill="none" d="M2133.15,278.7 Q2136.15,279.3 2136.9,279.4 2137.65,279.5 2139.15,279.5 2141.3,279.5 2145.15,277.1 M2126.75,304.3 L2128.2,304.7 Q2129.9,305.1 2131.15,305.1 2131.9,305.1 2134,303.7 2135.95,302.4 2136.35,301.9 M2169.15,327.6 Q2160.3,318 2157.4,305.35 2154.95,294.55 2156.45,278.9 2157.8,265.1 2150.75,252.2 2142.95,237.95 2130.2,232.45 2117.45,226.9 2107.6,225.95 2097.75,224.95 2088.35,228.4 2078.9,231.85 2072,238.8 2065.15,245.65 2064.9,247.2 M2063.05,316.7 Q2062.6,329.75 2056.1,340.35 M2095.55,305.1 Q2097.8,307.6 2099.25,310.35 2099.45,310.7 2101.95,310.7 2103.25,310.7 2105,310.2 2105.35,310.1 2108.35,309.1" test="Parrot"/>
      <path id="Layer2_0_3_STROKES" stroke="#0FF" stroke-width="2" stroke-linejoin="round" stroke-linecap="round" fill="none" d="M2060.7,333.75 L2060.05,337.65 Q2060.95,338.1 2062.05,338.2 2062.75,338.3 2064.25,338.3 2068.4,338.3 2071.5,334.75 2074.65,331.15 2076.95,331.15 2077.75,331.15 2082.15,331.8 2086.5,332.45 2087.35,332.45 2092.3,332.45 2093.3,330.2 2094.25,327.9 2098.05,327.9 2098.9,327.9 2102,328.55 2105.15,329.2 2105.95,329.2 2106.5,329.2 2108.45,327.25 2110.35,325.3 2112.75,325.3 2113.6,325.3 2116.85,325.95 2120.1,326.6 2120.9,326.6 2121.8,326.6 2124.3,325.3 2125.55,324.65 2126.75,324 2126.9,324 2129.9,325.3 2133.25,326.6 2134.85,326.6 2136.9,326.6 2139.55,325.65 2140.85,325.15 2142,324.65 2144,324.65 2154.05,326.95 2162.4,328.85 2166.15,329.15 2166.9,329.2 2167.45,329.2 M2096.5,352.05 Q2095.95,353.9 2094.15,370.7 2092.4,386.95 2091.3,389.8 2089.75,394 2089.2,404.7 2088.6,416.05 2090,423 2091.55,430.7 2098.8,451.75 2106.25,473.35 2109.55,479 2111.1,481.7 2115.8,489 2119.6,494.9 2122.55,500.5 2126.45,507.9 2129.55,510.85 2132.7,513.9 2137.55,514.85 2140.8,515.5 2145.85,516.7 2149.25,517.1 2149.25,514.2 2149.25,506.1 2157.7,510.3 2163.65,513.25 2165.7,513.65 2169,514.3 2170.75,511.6 2172.05,509.65 2173.8,506.3 2175.7,503.7 2179.85,502.45 2182.55,501.65 2184.95,503.45 2185.6,503.95 2187.05,498.55 2188.7,492.45 2191.3,485.75 L2193.55,480.3 Q2194.2,476.4 2196.15,467.3 2197.85,459.3 2197.05,449.2 2196.05,437 2191.6,427.6 2191.35,427.1 2180.2,405.05 2173.1,390.95 2170.75,383.95 2169,378.7 2165.65,371.35 2163.3,366.25 2162.95,363.1 M2198.6,383.6 Q2198,383.25 2197.1,383.25 2196.95,383.25 2189.3,385.85 2187.65,384.95 2185.65,383.9 2185.3,385.8 2183.95,387.25 2182.8,388.45 2182.05,388.45 2180.4,388.45 2179.05,387.25 2177.95,386.3 2177.85,386.5 2177,387.4 2175.75,388 2174.3,388.65 2173.3,388.45 M2170.7,332.45 Q2197.75,358.3 2198.05,383.25 L2198.7,383.25 M2056.1,340.35 Q2051.65,352.25 2048,364.55 2044.35,376.8 2041.3,389.25 2039.35,397.15 2036.95,404.95 2033.1,417.4 2032.15,430.35 2031.95,433.4 2032.15,436.35 2032.9,449.2 2030.85,462.1 2030.2,466.4 2028.3,470.3 2026.9,473.15 2025.55,475.95 2023.8,473.6 2023.3,470.5 2019.35,446.1 2021.2,421.65 2021.5,417.75 2022.2,413.85 2023.4,407.4 2024.45,400.95 2025.45,395 2027.65,389.35 2032.2,377.6 2037.05,366.05 2043.45,351 2056.1,340.35Z M2043.05,400.85 Q2045.65,403.3 2048.7,403.9 2049.6,404.1 2052.9,404.1 2054.75,404.1 2055.6,402.5 2056.45,400.85 2059.4,400.85 2061.35,400.85 2065.65,401.25 2069.5,401.5 2071.75,400.85 2077.3,399.3 2082.35,398.95 2083.7,398.85 2088,398.85" test="Parrot"/>
      <path id="Layer2_0_4_STROKES" stroke="#0F0" stroke-width="2" stroke-linejoin="round" stroke-linecap="round" fill="none" d="M2202.45,409.85 Q2203.25,408.6 2203.25,406.4 2203.25,404.85 2201.1,395.25 2198.85,385.5 2198.05,383.9" test="Parrot"/>
      <path id="Layer2_0_5_STROKES" stroke="#FF0" stroke-width="2" stroke-linejoin="round" stroke-linecap="round" fill="none" d="M2199.35,443.1 L2205.2,443.1 Q2204.9,441.7 2205.95,437.9 2207.15,433.75 2207.15,432.7 2207.15,426.4 2205.25,418.35 2203.65,411.55 2202.45,409.85 M2063.35,277.75 Q2052.85,283.1 2051.75,292.8 2051.25,297.25 2050.95,301.8 2066.5,304.45 2072.6,300.1 2074.65,293.2 2071.55,287.95 2068.4,282.65 2066.9,281.2 2065.4,279.7 2063.35,277.75Z M2056.8,303.1 Q2054.75,313.5 2065.65,314.2 2067.65,314.05 2069.3,313.25 2073.3,310.35 2071.75,301.7 M2035.9,457.5 Q2038.65,459.85 2039.8,461.2 2040.1,461.4 2043.35,461.4 2045.95,461.4 2054.55,458.15 2061.5,455.55 2063.55,455.05 2063.8,454.95 2063.95,454.95 2064,455.9 2068.55,456.15 2069.5,456.2 2074.35,456.2 2076.25,456.2 2080.2,455.25 2084.15,454.25 2085.7,454.25 2088.1,454.25 2088.3,454.2 2089.55,453.8 2089.95,451.55 2097.75,453.35 2095.8,452.85 M2063.55,455.05 Q2063.3,455.15 2063.5,455.5 2063.95,456.2 2063.95,454.95 M2049.55,501.8 Q2045.6,504.85 2044.7,507.35 2044.35,508.4 2044.35,512.5 2044.35,517.9 2047.5,519.65 2049.9,520.95 2059.4,521.95 2059.4,520.35 2059.1,519 2061.1,519.75 2063.95,520.65 L2067.2,520.65 Q2065.9,518.95 2064.85,517.55 2067.1,518.35 2069.15,519.35 L2073.7,519.35 2073.7,516.1 Q2070.1,512.9 2068.95,507.2 2068.35,501.65 2067.85,500.5 2067.2,500.5 2065.9,499.85 M2081.5,502.45 Q2080.65,512.65 2082.4,515.65 2083.9,518.25 2089.95,518.7 L2089.95,514.8 Q2089.4,513.7 2088.85,510.8 2089,511 2089.1,511.25 2091.95,517 2097.1,518.05 L2097.1,512.9 Q2097.75,513.95 2098.55,514.95 2101.15,518.05 2104.25,518.7 L2104.95,518.7 Q2105.3,516.6 2104.2,512.85 2102.95,508.7 2102.95,507 2102.95,503.55 2105.6,501.8 M2117.95,507.65 Q2117.15,520.45 2126.4,544.05 2130.35,554.15 2134.25,560.6 2138.45,567.5 2141.05,567.5 2144.75,567.5 2145.65,567.1 2148.7,565.75 2149.15,560.35 2151.5,561.5 2157.6,562.3 2162.95,562.3 2164.7,556.8 2165.8,553.4 2166,553 2166.95,551.25 2168.75,551.25 2169.45,551.25 2176.55,553.85 2177.65,553.85 2179.5,550.6 2181.5,547.1 2183.05,546.7 2186.75,545.65 2191.95,544.9 2195.65,543.95 2197.4,540.2 2198.45,540.2 2200.25,540.55 2202.05,540.85 2202.6,540.85 L2202.6,519.35 Q2200,510.45 2197.25,498.3 2195.15,489.1 2193.5,484.9" test="Parrot"/>
      <path id="Layer2_0_6_STROKES" stroke="#F0F" stroke-width="2" stroke-linejoin="round" stroke-linecap="round" fill="none" d="M2025.55,475.95 L2026.55,485.05 Q2028.15,494.9 2031.4,498.55 2033.05,500.4 2034,502.7 2034.55,503.95 2035.15,505.85 2035.65,507.2 2036.5,507.35 2037.55,507.5 2039.85,506.35 2042.9,504.85 2045.45,501.9 2047.2,499.85 2049.6,499.85 2051.9,499.85 2057.7,500.75 2062.85,501.2 2065.25,499.2 2067.6,497.25 2072.35,498.4 2075.05,499.05 2080.9,500.5 2083.85,500.85 2088.2,501.7 2091.7,502.1 2094.55,500.5 2097.5,498.85 2100.5,498.95 2102.4,499.05 2106.95,499.85 2109.55,500.2 2112.4,501.25 2114.2,501.6 2115.4,499.2 M2198.7,484.9 Q2201.05,472.9 2202.4,464.6 2203.5,458.1 2205.2,445.7 M2160.3,630.05 Q2163.1,638.15 2163.85,639.35 2164.95,641.1 2167.75,641.1 2168.8,641.1 2169.1,641 2170.5,640.35 2172,637.85 2190.7,656.7 2191.9,656.7 2199.4,656.7 2202.6,643.75 2204.55,635.95 2204.55,626.5 2204.55,620.55 2203.25,614.9 2202.4,611.2 2200.65,606.6" test="Parrot"/>
      <path id="Layer2_0_7_STROKES" stroke="#F60" stroke-width="2" stroke-linejoin="round" stroke-linecap="round" fill="none" d="M2142.65,572.05 Q2142.15,571.25 2141.6,570.45 2140.45,568.8 2140.05,568.8 L2140.05,572.05 Q2141.3,579.65 2149.65,602.1 2159.5,628.75 2164.5,628.75 2166.65,628.75 2171.55,624.55 2176.1,620.3 2176.2,620.3 2177.05,620.3 2179.45,620.95 2181.9,621.6 2182.7,621.6 2185.15,621.6 2187.55,616.7 2189.2,613.3 2189.6,611.15 2195.25,611.15 2198.1,608.25 2200.95,605.3 2203.9,605.3 2203.9,603.05 2204.25,598.05 2204.55,593.05 2204.55,592.55 2204.55,588 2201.65,577.9 2198.35,566.5 2198.05,564.25 2197.55,560.75 2197.75,554.7 2198.05,548.35 2198.05,546.05 L2197.4,546.05" test="Parrot"/>
    </g>
    <g id="JuryBoxFront">
      <path fill="#000" stroke="none" d="M297,514.35 L274.7,488.3 272.85,617.25 Q281.028,617.251 292.5,617.25 L297,514.35 M3239.05,500.95 L3237.7,500.95 3219.85,518.5 3219.85,613 Q3230.334,613.017 3239.05,613 L3239.05,500.95 M3067.6,512.95 Q2993.1,514.65 2918.75,518.9 2843.3,522.55 2767.8,523 2690.4,523.45 2613,523.35 2537.5,523.25 2462,523 2382.2,522.75 2302.4,521.8 2223.7,520.9 2145.05,519.6 2066.95,518.35 1988.85,520.35 1911.55,522.3 1834.2,526.5 1758.95,529.75 1683.55,528.6 1604.15,527.35 1524.8,522.45 1450.85,517.5 1376.6,516.45 1302.7,515.45 1228.75,516.1 1149.4,516.8 1070.05,518 990.4,519.25 910.8,520.45 831.75,521.65 752.6,522.95 675.6,524.25 598.55,524.85 521.8,525.45 444.85,523.95 370.7,522.5 297,514.35 L292.5,617.25 Q498.458,617.16 1767.3,615.15 2975.173,613.195 3219.85,613 L3219.85,518.5 Q3143.9,511.25 3067.6,512.95 M2899.9,502.85 Q2894.694,503.094 2889.5,503.3 2813.55,505.8 2737.6,505.8 2714.586,505.8 2691.55,505.8 2636.021,505.815 2580.45,505.85 2572.212,505.856 2563.95,505.85 2492.657,505.781 2421.3,504.75 2398.425,504.422 2375.55,503.75 2352.668,503.598 2329.75,503.4 2312.602,503.302 2295.4,503.15 2278.236,502.697 2261.05,502.45 2181.35,501.35 2101.6,500.55 2039.563,499.94 1977.55,502.65 1968.456,503.077 1959.35,503.55 1884.3,507 1809.4,510.95 L1649.35,511.75 Q1569.05,507.9 1488.85,502.95 1416.2,497.9 1343.1,497.2 1264.05,496.4 1185.1,497.5 1108,498.6 1030.8,500.15 958.15,501.65 885.45,503.2 811.55,504.75 737.55,505.95 659.6,507.2 581.45,506.2 505.75,505.25 430.15,500.25 352.35,495.6 274.7,488.3 L297,514.35 Q370.7,522.5 444.85,523.95 521.8,525.45 598.55,524.85 675.6,524.25 752.6,522.95 831.75,521.65 910.8,520.45 990.4,519.25 1070.05,518 1149.4,516.8 1228.75,516.1 1302.7,515.45 1376.6,516.45 1450.85,517.5 1524.8,522.45 1604.15,527.35 1683.55,528.6 1758.95,529.75 1834.2,526.5 1911.55,522.3 1988.85,520.35 2066.95,518.35 2145.05,519.6 2223.7,520.9 2302.4,521.8 2382.2,522.75 2462,523 2537.5,523.25 2613,523.35 2690.4,523.45 2767.8,523 2843.3,522.55 2918.75,518.9 2993.1,514.65 3067.6,512.95 3143.9,511.25 3219.85,518.5 L3237.7,500.95 3237.75,500.15 Q3219.362,498.494 3200.95,496.85 3186.852,495.536 3172.75,494.6 3112.785,490.798 3052.6,494.4 2976.331,499.691 2899.9,502.85Z" test="JuryBoxFront"/>
      <path id="Layer1_0_1_STROKES" stroke="#F60" stroke-width="2" stroke-linejoin="round" stroke-linecap="round" fill="none" d="M3237.775,500.175 Q3219.362,498.494 3200.95,496.85 3186.852,495.536 3172.75,494.625 3112.785,490.798 3052.6,494.4 2976.331,499.691 2899.9,502.875 2894.694,503.094 2889.5,503.3 2813.55,505.8 2737.6,505.8 2714.586,505.8 2691.575,505.8 2636.021,505.815 2580.45,505.85 2572.212,505.856 2563.975,505.85 2492.657,505.781 2421.3,504.75 2398.425,504.422 2375.55,503.775 2352.668,503.598 2329.775,503.425 2312.602,503.302 2295.425,503.175 2278.236,502.697 2261.05,502.45 2181.35,501.35 2101.6,500.55 2039.563,499.94 1977.575,502.675 1968.456,503.077 1959.35,503.55 1884.3,507 1809.4,510.95 L1649.35,511.75 Q1569.05,507.9 1488.85,502.95 1416.2,497.9 1343.1,497.2 1264.05,496.4 1185.1,497.5 1108,498.6 1030.8,500.15 958.15,501.65 885.45,503.2 811.55,504.75 737.55,505.95 659.6,507.2 581.45,506.2 505.75,505.25 430.15,500.25 352.35,495.6 274.7,488.3 L297,514.35 Q370.7,522.5 444.85,523.95 521.8,525.45 598.55,524.85 675.6,524.25 752.6,522.95 831.75,521.65 910.8,520.45 990.4,519.25 1070.05,518 1149.4,516.8 1228.75,516.1 1302.7,515.45 1376.6,516.45 1450.85,517.5 1524.8,522.45 1604.15,527.35 1683.55,528.6 1758.95,529.75 1834.2,526.5 1911.55,522.3 1988.85,520.35 2066.95,518.35 2145.05,519.6 2223.7,520.9 2302.4,521.8 2382.2,522.75 2462,523 2537.5,523.25 2613,523.35 2690.4,523.45 2767.8,523 2843.3,522.55 2918.75,518.9 2993.1,514.65 3067.6,512.95 3143.9,511.25 3219.85,518.5 L3237.7,500.95 M3237.775,500.175 Q3238.412,500.242 3239.05,500.3 L3239.05,500.95 3239.05,613 3239.05,624.2 M3219.85,624.2 L3219.85,613.025 M292.5,617.25 L292.2,624.2 M3219.85,613.025 L3219.85,518.5 M272.75,624.2 L272.85,617.25 274.7,488.3 M297,514.35 L292.5,617.25" test="JuryBoxFront"/>
    </g>
  </g>
</svg>