<?xml version="1.0" encoding="utf-8"?>
<svg id="EdithAnim12" image-rendering="inherit" baseProfile="basic" version="1.1" x="0px" y="0px" width="800" height="600" xmlns="http://www.w3.org/2000/svg" xmlns:xlink="http://www.w3.org/1999/xlink">
  <g id="14_JurorParrotf111r1" overflow="visible">
    <g id="Parrot">
      <path id="Layer2_0_1_STROKES" stroke="#FFF" stroke-width="2.351" stroke-linejoin="round" stroke-linecap="round" fill="none" d="M399.689,280.721 Q403.959,281.706 407.451,285.564 411.687,290.209 409.232,296.628 406.778,303.047 403.152,306.032 399.531,308.958 395.335,308.394 391.081,307.825 388.302,305.048 385.464,302.264 385.145,298.033 384.865,293.984 386.249,290.408 387.538,287.175 388.976,285.318 390.362,283.396 392.953,282.371 395.492,281.281 399.689,280.721Z M398.7,294.506 Q398.196,293.684 397.332,293.475 396.409,293.258 396.35,293.252 396,293.215 395.553,293.522 394.467,294.294 395.099,296.134 395.645,297.67 397.286,297.253 398.44,296.961 398.702,296.161 398.939,295.596 398.964,295.362 399.072,294.9 398.7,294.506Z M347.534,278.144 Q350.131,278.183 353.158,282.523 356.139,286.741 355.328,292.152 354.53,297.446 351.728,300.459 348.991,303.419 344.853,302.862 340.663,302.24 337.669,299.263 334.284,296.067 334.931,291.643 335.868,285.595 338.298,282.188 341.637,277.459 347.534,278.144Z M349.293,291.098 Q348.958,290.353 348.204,290.214 347.34,290.004 347.282,289.998 347.048,289.973 346.608,290.222 345.644,290.947 346.237,292.606 346.737,294.019 348.085,293.57 349.057,293.319 349.313,292.578 349.48,292.122 349.504,291.889 349.665,291.492 349.293,291.098Z" test="Parrot"/>
      <path id="Layer2_0_2_STROKES" stroke="#F00" stroke-width="2.351" stroke-linejoin="round" stroke-linecap="round" fill="none" d="M421.112,318.931 Q424.544,320.004 425.409,320.214 426.273,320.424 428.027,320.61 430.54,320.876 435.338,318.548 M410.456,348.064 L412.101,348.711 Q414.039,349.389 415.5,349.544 416.377,349.637 419.005,348.261 421.446,346.983 421.976,346.448 M457.132,380.559 Q447.977,368.239 446.155,353.092 444.631,340.163 448.325,322.054 451.614,306.089 444.972,290.135 437.621,272.509 423.398,264.499 409.182,256.43 397.785,254.098 386.394,251.707 374.978,254.575 363.503,257.436 354.575,264.705 345.718,271.863 345.233,273.644 M334.453,354.66 Q332.309,369.86 323.396,381.445 M373.884,345.13 Q376.204,348.331 377.558,351.726 377.748,352.16 380.671,352.47 382.191,352.631 384.298,352.264 384.72,352.19 388.351,351.393" test="Parrot"/>
      <path id="Layer2_0_3_STROKES" stroke="#0FF" stroke-width="2.351" stroke-linejoin="round" stroke-linecap="round" fill="none" d="M329.591,374.3 L328.348,378.779 Q329.344,379.417 330.618,379.67 331.424,379.874 333.177,380.059 338.029,380.574 342.093,376.809 346.221,372.991 348.91,373.276 349.845,373.375 354.908,374.681 359.913,375.98 360.907,376.085 366.693,376.699 368.141,374.193 369.537,371.622 373.979,372.093 374.973,372.198 378.516,373.343 382.118,374.493 383.053,374.592 383.696,374.661 386.217,372.623 388.68,370.579 391.486,370.876 392.479,370.982 396.198,372.145 399.917,373.308 400.852,373.407 401.904,373.518 404.988,372.309 406.53,371.704 408.013,371.093 408.188,371.111 411.534,373.003 415.289,374.938 417.159,375.137 419.556,375.391 422.771,374.609 424.353,374.186 425.76,373.744 428.098,373.992 439.561,377.927 449.086,381.183 453.433,381 454.303,382.15 454.946,382.218 M369.172,400.132 Q368.3,402.227 364.113,421.643 360.052,440.422 358.413,443.617 356.08,448.335 354.11,460.775 352.001,473.969 352.776,482.267 353.633,491.46 359.498,516.967 365.529,543.141 368.686,550.155 370.163,553.504 374.752,562.62 378.463,569.988 381.217,576.901 384.859,586.035 388.117,589.868 391.421,593.824 396.973,595.536 400.691,596.699 406.446,598.728 410.371,599.617 410.731,596.227 411.735,586.758 421.092,592.715 427.682,596.902 430.029,597.623 433.806,598.793 436.186,595.853 437.948,593.735 440.409,590.036 442.953,587.232 447.959,586.285 451.215,585.685 453.797,588.087 454.495,588.752 456.859,582.619 459.545,575.693 463.415,568.183 L466.721,562.091 Q467.964,557.612 471.372,547.216 474.352,538.075 474.669,526.169 475.013,511.783 470.976,500.243 470.746,499.627 460.446,472.468 453.894,455.105 452.015,446.63 450.62,440.276 447.616,431.269 445.501,425.015 445.482,421.29 M484.615,449.675 Q483.957,449.191 482.905,449.079 482.73,449.061 473.464,451.152 471.647,449.895 469.439,448.42 468.795,450.597 467.037,452.125 465.544,453.385 464.667,453.292 462.738,453.087 461.309,451.517 460.141,450.27 459,450.492 458.894,451.438 457.358,451.985 455.582,452.565 454.438,452.207 M458.343,386.421 Q486.759,419.994 484.016,449.197 L484.775,449.278 M323.396,381.445 Q316.718,394.805 310.926,408.731 305.14,422.598 300.031,436.774 296.772,445.768 292,454.588 286.954,468.665 284.238,483.686 283.626,487.226 283.494,490.7 282.777,505.814 278.781,520.64 277.488,525.586 274.784,529.91 272.794,533.068 270.868,536.174 269.114,533.209 268.914,529.524 267.322,500.51 272.516,472.157 273.351,467.636 274.653,463.163 276.855,455.772 278.882,448.362 280.789,441.531 284.062,435.199 290.838,422.027 297.939,409.126 307.287,392.327 323.396,381.445Z M300.638,450.552 Q303.374,453.738 306.865,454.818 307.892,455.163 311.75,455.572 313.912,455.802 315.105,454.037 316.303,452.213 319.751,452.579 322.031,452.821 327.008,453.822 331.478,454.591 334.189,454.11 340.869,452.987 346.816,453.204 348.406,453.254 353.433,453.787" test="Parrot"/>
      <path id="Layer2_0_4_STROKES" stroke="#0F0" stroke-width="2.351" stroke-linejoin="round" stroke-linecap="round" fill="none" d="M485.861,480.838 Q486.951,479.476 487.224,476.904 487.416,475.092 486.093,463.603 484.672,451.927 483.935,449.957" test="Parrot"/>
      <path id="Layer2_0_5_STROKES" stroke="#FF0" stroke-width="2.351" stroke-linejoin="round" stroke-linecap="round" fill="none" d="M478.114,519.323 L484.953,520.049 Q484.775,518.375 486.474,514.063 488.391,509.36 488.522,508.133 489.303,500.768 488.08,491.122 487.053,482.974 485.861,480.838 M339.633,309.165 Q326.695,314.117 324.207,325.32 323.07,330.46 322.155,335.742 340.005,340.768 347.675,336.439 350.927,328.627 347.954,322.106 344.929,315.519 343.355,313.638 341.788,311.699 339.633,309.165Z M328.833,337.987 Q325.147,349.89 337.802,352.06 340.159,352.133 342.187,351.402 347.222,348.508 346.483,338.204 M285.255,515.889 Q288.179,518.977 289.356,520.698 289.681,520.969 293.481,521.372 296.52,521.694 306.977,518.961 315.423,516.784 317.882,516.453 318.187,516.368 318.362,516.386 318.303,517.503 323.59,518.359 324.695,518.536 330.364,519.137 332.586,519.373 337.321,518.752 342.063,518.073 343.874,518.265 346.68,518.562 346.92,518.529 348.431,518.216 349.177,515.636 358.073,518.707 355.855,517.881 M317.882,516.453 Q317.577,516.539 317.768,516.973 318.207,517.847 318.362,516.386 M295.719,569.368 Q290.723,572.444 289.361,575.255 288.822,576.439 288.313,581.232 287.644,587.544 291.109,589.981 293.753,591.798 304.735,594.145 304.933,592.275 304.75,590.659 306.995,591.784 310.215,593.189 L314.014,593.592 Q312.705,591.444 311.652,589.677 314.183,590.891 316.455,592.315 L321.774,592.879 322.177,589.08 Q318.365,584.892 317.728,578.086 317.715,571.524 317.273,570.118 316.513,570.037 315.074,569.116 M332.988,574.09 Q330.729,585.908 332.403,589.632 333.834,592.858 340.851,594.134 L341.335,589.575 Q340.828,588.221 340.545,584.762 340.695,585.015 340.781,585.319 343.4,592.395 349.29,594.261 L349.928,588.24 Q350.558,589.548 351.369,590.817 354.024,594.763 357.568,595.907 L358.386,595.994 Q359.055,593.582 358.235,589.062 357.288,584.056 357.499,582.069 357.927,578.036 361.241,576.318 M374.953,584.688 Q372.431,599.552 380.318,628.288 383.683,640.585 387.442,648.608 391.496,657.195 394.536,657.518 398.861,657.976 399.963,657.62 403.695,656.42 404.891,650.164 407.496,651.799 414.527,653.491 420.782,654.154 423.509,647.942 425.217,644.104 425.5,643.661 426.828,641.733 428.932,641.956 429.75,642.043 437.728,645.963 439.014,646.099 441.579,642.529 444.351,638.686 446.213,638.41 450.668,637.642 456.84,637.41 461.283,636.758 463.794,632.591 465.021,632.721 467.082,633.354 469.149,633.928 469.792,633.996 L472.458,608.862 Q470.522,598.136 468.814,583.592 467.5,572.576 466.092,567.462" test="Parrot"/>
      <path id="Layer2_0_6_STROKES" stroke="#F0F" stroke-width="2.351" stroke-linejoin="round" stroke-linecap="round" fill="none" d="M270.868,536.174 L270.909,546.935 Q271.558,558.649 274.905,563.318 276.604,565.686 277.429,568.492 277.917,570.022 278.383,572.317 278.8,573.957 279.775,574.238 280.984,574.544 283.815,573.484 287.567,572.109 290.914,568.977 293.214,566.797 296.019,567.095 298.708,567.38 305.376,569.151 311.341,570.316 314.395,568.276 317.384,566.287 322.794,568.221 325.869,569.315 332.528,571.736 335.933,572.511 340.913,574.044 344.955,574.946 348.485,573.429 352.138,571.865 355.633,572.354 357.842,572.707 363.061,574.206 366.057,574.938 369.259,576.519 371.32,577.151 373.02,574.494 M472.171,568.107 Q476.406,554.37 479.013,544.835 481.105,537.373 484.63,523.088 M409.283,733.025 Q411.551,742.842 412.279,744.337 413.348,746.52 416.621,746.867 417.849,746.997 418.212,746.917 419.929,746.331 421.993,743.594 441.516,767.949 442.918,768.098 451.686,769.028 457.033,754.286 460.279,745.41 461.451,734.363 462.189,727.407 461.37,720.641 460.835,716.21 459.36,710.616" test="Parrot"/>
      <path id="Layer2_0_7_STROKES" stroke="#F60" stroke-width="2.351" stroke-linejoin="round" stroke-linecap="round" fill="none" d="M395.842,663.035 Q395.357,662.038 394.813,661.034 393.673,658.963 393.205,658.913 L392.802,662.712 Q393.321,671.752 400.299,699.031 408.509,731.407 414.354,732.027 416.867,732.293 423.116,727.991 428.962,723.587 429.079,723.599 430.072,723.705 432.797,724.762 435.581,725.826 436.516,725.925 439.38,726.229 442.793,720.798 445.144,717.028 445.878,714.565 452.483,715.265 456.174,712.228 459.871,709.133 463.32,709.499 463.599,706.869 464.628,701.067 465.599,695.259 465.661,694.675 466.225,689.356 464.087,677.19 461.643,663.454 461.572,660.786 461.421,656.633 462.405,649.585 463.543,642.199 463.828,639.51 L463.069,639.43" test="Parrot"/>
    </g>
    <g id="JuryBoxFront">
      <path fill="#000" stroke="none" d="M-3685.004,607.409 L-3720.907,565.468 -3723.886,773.078 Q-3710.719,773.079 -3692.249,773.078 L-3685.004,607.409 M1051.697,585.835 L1049.523,585.835 1020.785,614.09 1020.785,766.235 Q1037.664,766.262 1051.697,766.235 L1051.697,585.835 M775.662,605.155 Q655.717,607.892 536.013,614.734 414.539,620.611 292.984,621.335 168.37,622.06 43.756,621.899 -77.799,621.738 -199.354,621.335 -327.832,620.933 -456.31,619.403 -583.017,617.954 -709.643,615.861 -835.385,613.849 -961.125,617.069 -1085.578,620.208 -1210.112,626.97 -1331.264,632.203 -1452.658,630.351 -1580.492,628.339 -1708.246,620.45 -1827.305,612.48 -1946.848,610.79 -2065.827,609.18 -2184.886,610.226 -2312.64,611.353 -2440.393,613.285 -2568.63,615.298 -2696.786,617.23 -2824.056,619.162 -2951.488,621.255 -3075.458,623.348 -3199.508,624.314 -3323.076,625.28 -3446.966,622.865 -3566.347,620.53 -3685.004,607.409 L-3692.249,773.078 Q-3360.657,772.933 -1317.821,769.697 626.855,766.549 1020.785,766.235 L1020.785,614.09 Q898.505,602.418 775.662,605.155 M505.665,588.894 Q497.283,589.286 488.921,589.618 366.642,593.643 244.362,593.643 207.309,593.643 170.222,593.643 80.82,593.667 -8.649,593.724 -21.913,593.733 -35.215,593.724 -149.996,593.612 -264.881,591.953 -301.71,591.424 -338.539,590.343 -375.379,590.098 -412.276,589.779 -439.885,589.621 -467.58,589.377 -495.214,588.647 -522.883,588.25 -651.2,586.479 -779.598,585.191 -879.478,584.208 -979.319,588.572 -993.96,589.259 -1008.62,590.021 -1129.451,595.575 -1250.04,601.935 L-1507.721,603.223 Q-1637.003,597.024 -1766.125,589.055 -1883.092,580.924 -2000.783,579.797 -2128.053,578.509 -2255.163,580.28 -2379.294,582.051 -2503.586,584.547 -2620.553,586.962 -2737.6,589.457 -2856.578,591.953 -2975.718,593.885 -3101.218,595.897 -3227.04,594.287 -3348.917,592.758 -3470.632,584.708 -3595.891,577.221 -3720.907,565.468 L-3685.004,607.409 Q-3566.347,620.53 -3446.966,622.865 -3323.076,625.28 -3199.508,624.314 -3075.458,623.348 -2951.488,621.255 -2824.056,619.162 -2696.786,617.23 -2568.63,615.298 -2440.393,613.285 -2312.64,611.353 -2184.886,610.226 -2065.827,609.18 -1946.848,610.79 -1827.305,612.48 -1708.246,620.45 -1580.492,628.339 -1452.658,630.351 -1331.264,632.203 -1210.112,626.97 -1085.578,620.208 -961.125,617.069 -835.385,613.849 -709.643,615.861 -583.017,617.954 -456.31,619.403 -327.832,620.933 -199.354,621.335 -77.799,621.738 43.756,621.899 168.37,622.06 292.984,621.335 414.539,620.611 536.013,614.734 655.717,607.892 775.662,605.155 898.505,602.418 1020.785,614.09 L1049.523,585.835 1049.604,584.547 Q1019,581.88 990.355,579.234 967.658,577.118 944.953,575.611 848.41,569.49 751.512,575.289 628.719,583.808 505.665,588.894Z" test="JuryBoxFront" stroke-width="1.61"/>
      <path id="Layer1_0_1_STROKES" stroke="#F60" stroke-width="3.22" stroke-linejoin="round" stroke-linecap="round" fill="none" d="M1049.644,584.587 Q1019,581.88 990.355,579.234 967.658,577.118 944.953,575.651 848.41,569.49 751.512,575.289 628.719,583.808 505.665,588.934 497.283,589.286 488.921,589.618 366.642,593.643 244.362,593.643 207.309,593.643 170.262,593.643 80.82,593.667 -8.649,593.724 -21.913,593.733 -35.174,593.724 -149.996,593.612 -264.881,591.953 -301.71,591.424 -338.539,590.383 -375.379,590.098 -412.236,589.819 -439.885,589.621 -467.54,589.417 -495.214,588.647 -522.883,588.25 -651.2,586.479 -779.598,585.191 -879.478,584.208 -979.278,588.612 -993.96,589.259 -1008.62,590.021 -1129.451,595.575 -1250.04,601.935 L-1507.721,603.223 Q-1637.003,597.024 -1766.125,589.055 -1883.092,580.924 -2000.783,579.797 -2128.053,578.509 -2255.163,580.28 -2379.294,582.051 -2503.586,584.547 -2620.553,586.962 -2737.6,589.457 -2856.578,591.953 -2975.718,593.885 -3101.218,595.897 -3227.04,594.287 -3348.917,592.758 -3470.632,584.708 -3595.891,577.221 -3720.907,565.468 L-3685.004,607.409 Q-3566.347,620.53 -3446.966,622.865 -3323.076,625.28 -3199.508,624.314 -3075.458,623.348 -2951.488,621.255 -2824.056,619.162 -2696.786,617.23 -2568.63,615.298 -2440.393,613.285 -2312.64,611.353 -2184.886,610.226 -2065.827,609.18 -1946.848,610.79 -1827.305,612.48 -1708.246,620.45 -1580.492,628.339 -1452.658,630.351 -1331.264,632.203 -1210.112,626.97 -1085.578,620.208 -961.125,617.069 -835.385,613.849 -709.643,615.861 -583.017,617.954 -456.31,619.403 -327.832,620.933 -199.354,621.335 -77.799,621.738 43.756,621.899 168.37,622.06 292.984,621.335 414.539,620.611 536.013,614.734 655.717,607.892 775.662,605.155 898.505,602.418 1020.785,614.09 L1049.523,585.835 M1049.644,584.587 Q1050.669,584.695 1051.697,584.788 L1051.697,585.835 1051.697,766.235 1051.697,784.267 M1020.785,784.267 L1020.785,766.275 M-3692.249,773.078 L-3692.732,784.267 M1020.785,766.275 L1020.785,614.09 M-3724.047,784.267 L-3723.886,773.078 -3720.907,565.468 M-3685.004,607.409 L-3692.249,773.078" test="JuryBoxFront"/>
    </g>
  </g>
</svg>