<?xml version="1.0" encoding="utf-8"?>
<svg id="EdithAnim12" image-rendering="inherit" baseProfile="basic" version="1.1" x="0px" y="0px" width="800" height="600" xmlns="http://www.w3.org/2000/svg" xmlns:xlink="http://www.w3.org/1999/xlink">
  <g id="14_JurorParrotf112r1" overflow="visible">
    <g id="Parrot">
      <path id="Layer2_0_1_STROKES" stroke="#FFF" stroke-width="2.351" stroke-linejoin="round" stroke-linecap="round" fill="none" d="M427.185,284.981 Q431.302,286.48 434.296,290.736 437.931,295.865 434.711,301.935 431.491,308.005 427.527,310.524 423.576,312.985 419.48,311.913 415.328,310.827 412.909,307.731 410.434,304.622 410.634,300.384 410.851,296.332 412.662,292.951 414.336,289.901 415.991,288.233 417.601,286.496 420.298,285.795 422.952,285.023 427.185,284.981Z M424.518,298.541 Q424.118,297.664 423.286,297.35 422.397,297.023 422.339,297.009 421.996,296.929 421.515,297.18 420.342,297.813 420.745,299.716 421.099,301.307 422.778,301.094 423.959,300.946 424.317,300.184 424.622,299.651 424.675,299.422 424.839,298.978 424.518,298.541Z M375.739,276.046 Q378.312,276.403 380.785,281.08 383.228,285.63 381.762,290.901 380.322,296.058 377.173,298.705 374.094,301.309 370.056,300.25 365.974,299.121 363.367,295.799 360.398,292.214 361.581,287.902 363.25,282.015 366.079,278.931 369.97,274.646 375.739,276.046Z M375.901,289.117 Q375.66,288.337 374.929,288.107 374.097,287.793 374.039,287.78 373.81,287.727 373.343,287.92 372.298,288.522 372.683,290.24 373.007,291.703 374.4,291.424 375.395,291.293 375.74,290.588 375.961,290.157 376.014,289.928 376.222,289.554 375.901,289.117Z" test="Parrot"/>
      <path id="Layer2_0_2_STROKES" stroke="#F00" stroke-width="2.351" stroke-linejoin="round" stroke-linecap="round" fill="none" d="M443.774,325.521 Q447.049,327.006 447.881,327.32 448.713,327.634 450.431,328.033 452.892,328.605 457.939,326.881 M429.636,353.131 L431.19,353.975 Q433.03,354.885 434.461,355.217 435.32,355.417 438.097,354.372 440.675,353.403 441.266,352.937 M471.986,391.088 Q464.406,377.742 464.451,362.486 464.518,349.468 470.399,331.948 475.615,316.506 470.975,299.86 465.834,281.469 452.698,271.78 439.576,262.034 428.55,258.326 417.538,254.561 405.857,256.011 394.119,257.448 384.37,263.57 374.705,269.591 374.006,271.299 M353.401,350.385 Q349.414,365.207 339.152,375.615 M393.699,345.748 Q395.61,349.209 396.539,352.743 396.675,353.197 399.537,353.862 401.026,354.208 403.163,354.101 403.59,354.08 407.291,353.732" test="Parrot"/>
      <path id="Layer2_0_3_STROKES" stroke="#0FF" stroke-width="2.351" stroke-linejoin="round" stroke-linecap="round" fill="none" d="M346.175,369.282 L344.393,373.574 Q345.304,374.329 346.537,374.736 347.312,375.037 349.029,375.436 353.781,376.54 358.275,373.3 362.839,370.016 365.473,370.627 366.389,370.84 371.254,372.755 376.062,374.656 377.035,374.882 382.703,376.199 384.446,373.889 386.146,371.508 390.497,372.519 391.47,372.745 394.847,374.314 398.28,375.896 399.197,376.109 399.826,376.255 402.578,374.541 405.272,372.814 408.02,373.452 408.993,373.678 412.542,375.287 416.09,376.895 417.006,377.108 418.036,377.348 421.245,376.524 422.849,376.112 424.396,375.687 424.567,375.727 427.657,378.014 431.147,380.393 432.979,380.819 435.326,381.364 438.613,380.981 440.234,380.755 441.684,380.488 443.974,381.02 454.87,386.327 463.925,390.724 468.139,392.065 468.984,392.321 469.614,392.468 M382.298,399.758 Q381.176,401.73 374.647,420.487 368.32,438.628 366.303,441.599 363.411,445.995 359.935,458.101 356.229,470.937 355.983,479.267 355.71,488.496 358.411,514.526 361.196,541.24 363.472,548.587 364.528,552.091 367.968,561.7 370.75,569.466 372.638,576.663 375.135,586.173 377.9,590.375 380.695,594.706 385.996,597.083 389.544,598.692 395.007,601.41 398.794,602.772 399.565,599.451 401.72,590.177 410.278,597.234 416.306,602.194 418.547,603.197 422.152,604.819 424.874,602.193 426.881,600.306 429.776,596.936 432.643,594.465 437.727,594.137 441.032,593.939 443.301,596.639 443.912,597.384 447.009,591.587 450.521,585.041 455.28,578.061 L459.306,572.42 Q461.088,568.127 465.741,558.226 469.815,549.519 471.586,537.741 473.686,523.506 471.091,511.56 470.938,510.921 464.037,482.707 459.658,464.674 458.829,456.034 458.222,449.557 456.341,440.251 455.007,433.786 455.444,430.086 M490.81,463.042 Q490.216,462.481 489.186,462.242 489.014,462.202 479.563,463.144 477.914,461.675 475.903,459.94 474.997,462.023 473.065,463.324 471.429,464.392 470.571,464.192 468.681,463.754 467.455,462.02 466.448,460.64 466.28,460.843 465.068,461.647 463.477,462.001 461.644,462.36 460.552,461.865 M472.471,397.053 Q496.567,433.847 490.274,462.494 L491.018,462.667 M339.152,375.615 Q330.892,388.057 323.441,401.17 316.003,414.225 309.199,427.669 304.865,436.196 300.042,444.488 292.322,457.72 287.79,472.295 286.749,475.734 286.194,479.165 283.634,494.077 277.856,508.303 275.968,513.053 272.755,517.013 270.394,519.904 268.103,522.751 266.724,519.595 266.976,515.912 268.944,486.924 277.566,459.42 278.947,455.035 280.786,450.755 283.876,443.689 286.794,436.583 289.521,430.037 293.543,424.153 301.878,411.909 310.504,399.974 321.835,384.445 339.152,375.615Z M308.117,441.416 Q310.442,444.913 313.775,446.412 314.752,446.88 318.531,447.758 320.649,448.25 322.048,446.644 323.46,444.981 326.838,445.766 329.071,446.284 333.888,447.886 338.229,449.196 340.979,449.051 347.746,448.752 353.621,449.695 355.193,449.939 360.117,451.083" test="Parrot"/>
      <path id="Layer2_0_4_STROKES" stroke="#0F0" stroke-width="2.351" stroke-linejoin="round" stroke-linecap="round" fill="none" d="M488.236,494.122 Q489.485,492.903 490.07,490.384 490.482,488.61 490.574,477.046 490.591,465.284 490.101,463.239" test="Parrot"/>
      <path id="Layer2_0_5_STROKES" stroke="#FF0" stroke-width="2.351" stroke-linejoin="round" stroke-linecap="round" fill="none" d="M475.842,531.369 L482.54,532.925 Q482.569,531.242 484.782,527.17 487.26,522.738 487.54,521.535 489.215,514.322 489.181,504.599 489.158,496.388 488.236,494.122 M364.105,305.867 Q350.66,309.2 346.82,320.013 345.064,324.976 343.51,330.106 360.61,337.276 368.751,333.918 372.934,326.563 370.781,319.727 368.584,312.821 367.252,310.761 365.934,308.645 364.105,305.867Z M349.862,333.15 Q344.749,344.513 357.043,348.214 359.373,348.574 361.475,348.097 366.826,345.84 367.352,335.524 M284.861,504.379 Q287.385,507.801 288.343,509.653 288.633,509.962 292.354,510.826 295.331,511.518 306.043,510.084 314.692,508.956 317.172,508.928 317.485,508.88 317.657,508.92 317.462,510.021 322.605,511.518 323.679,511.828 329.232,513.118 331.408,513.623 336.183,513.586 340.972,513.492 342.747,513.904 345.495,514.543 345.737,514.539 347.275,514.413 348.331,511.943 356.784,516.079 354.684,514.988 M317.172,508.928 Q316.86,508.976 316.995,509.43 317.325,510.352 317.657,508.92 M288.707,558.733 Q283.373,561.175 281.677,563.798 280.997,564.907 279.907,569.602 278.47,575.785 281.612,578.626 284.014,580.753 294.625,584.425 295.051,582.593 295.066,580.968 297.157,582.358 300.181,584.147 L303.902,585.011 Q302.866,582.719 302.036,580.837 304.399,582.351 306.481,584.042 L311.69,585.252 312.555,581.531 Q309.284,576.909 309.484,570.077 310.273,563.562 310.006,562.113 309.262,561.94 307.946,560.85 M325.117,567.976 Q321.43,579.429 322.636,583.33 323.662,586.706 330.47,588.83 L331.507,584.365 Q331.17,582.959 331.311,579.492 331.43,579.761 331.478,580.074 333.212,587.416 338.829,589.988 L340.199,584.091 Q340.664,585.466 341.314,586.824 343.466,591.065 346.843,592.634 L347.645,592.82 Q348.604,590.509 348.342,585.922 348.015,580.838 348.467,578.892 349.384,574.941 352.884,573.642 M365.469,583.626 Q361.148,598.069 365.462,627.552 367.298,640.167 370.048,648.589 373.021,657.607 375.998,658.299 380.235,659.283 381.372,659.064 385.223,658.33 387.175,652.267 389.559,654.208 396.331,656.747 402.457,658.17 405.924,652.338 408.088,648.738 408.423,648.333 409.976,646.582 412.037,647.061 412.839,647.247 420.277,652.112 421.536,652.405 424.519,649.176 427.74,645.7 429.621,645.655 434.137,645.437 440.29,645.961 444.78,645.858 447.781,642.029 448.983,642.309 450.951,643.188 452.932,644.01 453.562,644.157 L459.281,619.539 Q458.671,608.657 458.754,594.014 458.797,582.921 458.025,577.673" test="Parrot"/>
      <path id="Layer2_0_6_STROKES" stroke="#F0F" stroke-width="2.351" stroke-linejoin="round" stroke-linecap="round" fill="none" d="M268.103,522.751 L266.827,533.436 Q266.039,545.14 268.79,550.184 270.187,552.741 270.663,555.627 270.96,557.205 271.142,559.54 271.355,561.219 272.288,561.617 273.451,562.068 276.39,561.363 280.281,560.457 283.986,557.757 286.535,555.875 289.283,556.514 291.916,557.126 298.318,559.699 304.095,561.584 307.375,559.932 310.584,558.325 315.717,560.905 318.636,562.367 324.948,565.584 328.233,566.769 332.988,568.9 336.889,570.289 340.578,569.215 344.394,568.11 347.803,569.023 349.952,569.643 354.949,571.769 357.833,572.861 360.816,574.822 362.784,575.701 364.797,573.272 M463.979,579.057 Q469.862,565.942 473.615,556.797 476.604,549.647 481.849,535.902 M381.401,735.039 Q382.453,745.058 382.992,746.632 383.786,748.928 386.992,749.673 388.194,749.952 388.564,749.918 390.34,749.546 392.723,747.082 409.12,773.64 410.494,773.959 419.082,775.954 426.19,761.977 430.498,753.565 433.012,742.745 434.594,735.932 434.609,729.117 434.62,724.654 433.84,718.922" test="Parrot"/>
      <path id="Layer2_0_7_STROKES" stroke="#F60" stroke-width="2.351" stroke-linejoin="round" stroke-linecap="round" fill="none" d="M376.62,663.934 Q376.26,662.885 375.843,661.823 374.965,659.628 374.507,659.521 L373.643,663.242 Q373.053,672.277 376.642,700.203 380.831,733.338 386.556,734.668 389.018,735.24 395.745,731.734 402.086,728.078 402.2,728.105 403.173,728.331 405.749,729.713 408.381,731.109 409.297,731.322 412.102,731.974 416.154,727.002 418.947,723.548 419.977,721.192 426.446,722.695 430.481,720.133 434.529,717.513 437.907,718.298 438.505,715.722 440.236,710.09 441.909,704.444 442.042,703.872 443.253,698.662 442.619,686.326 441.873,672.396 442.128,669.739 442.486,665.599 444.325,658.725 446.357,651.534 446.969,648.9 L446.225,648.728" test="Parrot"/>
    </g>
    <g id="JuryBoxFront">
      <path fill="#000" stroke="none" d="M-3685.054,607.409 L-3720.957,565.468 -3723.935,773.078 Q-3710.769,773.079 -3692.299,773.078 L-3685.054,607.409 M1051.647,585.835 L1049.473,585.835 1020.735,614.09 1020.735,766.235 Q1037.614,766.262 1051.647,766.235 L1051.647,585.835 M775.612,605.155 Q655.667,607.892 535.963,614.734 414.489,620.611 292.934,621.335 168.32,622.06 43.706,621.899 -77.849,621.738 -199.404,621.335 -327.882,620.933 -456.36,619.403 -583.067,617.954 -709.693,615.861 -835.435,613.849 -961.175,617.069 -1085.628,620.208 -1210.162,626.97 -1331.314,632.203 -1452.708,630.351 -1580.542,628.339 -1708.296,620.45 -1827.356,612.48 -1946.898,610.79 -2065.877,609.18 -2184.936,610.226 -2312.69,611.353 -2440.444,613.285 -2568.68,615.298 -2696.836,617.23 -2824.106,619.162 -2951.538,621.255 -3075.508,623.348 -3199.558,624.314 -3323.126,625.28 -3447.015,622.865 -3566.397,620.53 -3685.054,607.409 L-3692.299,773.078 Q-3360.707,772.933 -1317.871,769.697 626.805,766.549 1020.735,766.235 L1020.735,614.09 Q898.455,602.418 775.612,605.155 M505.615,588.894 Q497.233,589.286 488.871,589.618 366.592,593.643 244.312,593.643 207.259,593.643 170.172,593.643 80.77,593.667 -8.699,593.724 -21.963,593.733 -35.264,593.724 -150.046,593.612 -264.931,591.953 -301.76,591.424 -338.589,590.343 -375.429,590.098 -412.326,589.779 -439.935,589.621 -467.63,589.377 -495.264,588.647 -522.933,588.25 -651.25,586.479 -779.648,585.191 -879.528,584.208 -979.368,588.572 -994.01,589.259 -1008.67,590.021 -1129.501,595.575 -1250.09,601.935 L-1507.77,603.223 Q-1637.053,597.024 -1766.175,589.055 -1883.142,580.924 -2000.833,579.797 -2128.103,578.509 -2255.213,580.28 -2379.344,582.051 -2503.636,584.547 -2620.602,586.962 -2737.65,589.457 -2856.628,591.953 -2975.768,593.885 -3101.268,595.897 -3227.089,594.287 -3348.967,592.758 -3470.682,584.708 -3595.94,577.221 -3720.957,565.468 L-3685.054,607.409 Q-3566.397,620.53 -3447.015,622.865 -3323.126,625.28 -3199.558,624.314 -3075.508,623.348 -2951.538,621.255 -2824.106,619.162 -2696.836,617.23 -2568.68,615.298 -2440.444,613.285 -2312.69,611.353 -2184.936,610.226 -2065.877,609.18 -1946.898,610.79 -1827.356,612.48 -1708.296,620.45 -1580.542,628.339 -1452.708,630.351 -1331.314,632.203 -1210.162,626.97 -1085.628,620.208 -961.175,617.069 -835.435,613.849 -709.693,615.861 -583.067,617.954 -456.36,619.403 -327.882,620.933 -199.404,621.335 -77.849,621.738 43.706,621.899 168.32,622.06 292.934,621.335 414.489,620.611 535.963,614.734 655.667,607.892 775.612,605.155 898.455,602.418 1020.735,614.09 L1049.473,585.835 1049.554,584.547 Q1019.949,581.88 990.305,579.234 967.608,577.118 944.903,575.611 848.36,569.49 751.462,575.289 628.669,583.808 505.615,588.894Z" test="JuryBoxFront" stroke-width="1.61"/>
      <path id="Layer1_0_1_STROKES" stroke="#F60" stroke-width="3.22" stroke-linejoin="round" stroke-linecap="round" fill="none" d="M1049.594,584.587 Q1019.949,581.88 990.305,579.234 967.608,577.118 944.903,575.651 848.36,569.49 751.462,575.289 628.669,583.808 505.615,588.934 497.233,589.286 488.871,589.618 366.592,593.643 244.312,593.643 207.259,593.643 170.212,593.643 80.77,593.667 -8.699,593.724 -21.963,593.733 -35.224,593.724 -150.046,593.612 -264.931,591.953 -301.76,591.424 -338.589,590.383 -375.429,590.098 -412.286,589.819 -439.935,589.621 -467.59,589.417 -495.264,588.647 -522.933,588.25 -651.25,586.479 -779.648,585.191 -879.528,584.208 -979.328,588.612 -994.01,589.259 -1008.67,590.021 -1129.501,595.575 -1250.09,601.935 L-1507.77,603.223 Q-1637.053,597.024 -1766.175,589.055 -1883.142,580.924 -2000.833,579.797 -2128.103,578.509 -2255.213,580.28 -2379.344,582.051 -2503.636,584.547 -2620.602,586.962 -2737.65,589.457 -2856.628,591.953 -2975.768,593.885 -3101.268,595.897 -3227.089,594.287 -3348.967,592.758 -3470.682,584.708 -3595.94,577.221 -3720.957,565.468 L-3685.054,607.409 Q-3566.397,620.53 -3447.015,622.865 -3323.126,625.28 -3199.558,624.314 -3075.508,623.348 -2951.538,621.255 -2824.106,619.162 -2696.836,617.23 -2568.68,615.298 -2440.444,613.285 -2312.69,611.353 -2184.936,610.226 -2065.877,609.18 -1946.898,610.79 -1827.356,612.48 -1708.296,620.45 -1580.542,628.339 -1452.708,630.351 -1331.314,632.203 -1210.162,626.97 -1085.628,620.208 -961.175,617.069 -835.435,613.849 -709.693,615.861 -583.067,617.954 -456.36,619.403 -327.882,620.933 -199.404,621.335 -77.849,621.738 43.706,621.899 168.32,622.06 292.934,621.335 414.489,620.611 535.963,614.734 655.667,607.892 775.612,605.155 898.455,602.418 1020.735,614.09 L1049.473,585.835 M1049.594,584.587 Q1050.619,584.695 1051.647,584.788 L1051.647,585.835 1051.647,766.235 1051.647,784.267 M1020.735,784.267 L1020.735,766.275 M-3692.299,773.078 L-3692.782,784.267 M1020.735,766.275 L1020.735,614.09 M-3724.096,784.267 L-3723.935,773.078 -3720.957,565.468 M-3685.054,607.409 L-3692.299,773.078" test="JuryBoxFront"/>
    </g>
  </g>
</svg>