<?xml version="1.0" encoding="utf-8"?>
<svg id="EdithAnim12" image-rendering="inherit" baseProfile="basic" version="1.1" x="0px" y="0px" width="800" height="600" xmlns="http://www.w3.org/2000/svg" xmlns:xlink="http://www.w3.org/1999/xlink">
  <g id="14_JurorParrotf113r1" overflow="visible">
    <g id="Parrot">
      <path id="Layer2_0_1_STROKES" stroke="#FFF" stroke-width="2.35" stroke-linejoin="round" stroke-linecap="round" fill="none" d="M457.781,294.08 Q461.646,296.138 464.015,300.767 466.897,306.35 462.863,311.908 458.829,317.466 454.555,319.405 450.301,321.289 446.398,319.657 442.44,318.004 440.479,314.602 438.463,311.18 439.252,307.014 440.032,303.034 442.297,299.941 444.379,297.156 446.249,295.737 448.085,294.242 450.852,293.924 453.585,293.531 457.781,294.08Z M453.249,307.127 Q452.976,306.203 452.196,305.776 451.362,305.328 451.307,305.307 450.978,305.18 450.468,305.361 449.219,305.823 449.351,307.764 449.48,309.387 451.171,309.41 452.361,309.429 452.821,308.725 453.197,308.24 453.282,308.021 453.506,307.604 453.249,307.127Z M408.116,278.06 Q410.611,278.771 412.406,283.745 414.189,288.589 412.003,293.601 409.859,298.503 406.373,300.683 402.963,302.83 399.114,301.219 395.232,299.532 393.115,295.881 390.678,291.919 392.45,287.817 394.923,282.224 398.153,279.566 402.602,275.869 408.116,278.06Z M406.452,291.018 Q406.322,290.212 405.631,289.882 404.851,289.455 404.796,289.434 404.577,289.35 404.088,289.476 402.969,289.925 403.111,291.68 403.227,293.173 404.644,293.09 405.648,293.1 406.087,292.451 406.366,292.055 406.451,291.836 406.708,291.494 406.452,291.018Z" test="Parrot"/>
      <path id="Layer2_0_2_STROKES" stroke="#F00" stroke-width="2.35" stroke-linejoin="round" stroke-linecap="round" fill="none" d="M468.54,336.514 Q471.574,338.44 472.354,338.867 473.134,339.294 474.778,339.929 477.134,340.838 482.369,339.836 M450.697,361.864 L452.117,362.916 Q453.811,364.074 455.181,364.602 456.003,364.92 458.897,364.273 461.584,363.674 462.234,363.295 M487.312,405.336 Q481.673,391.071 483.845,375.98 485.729,363.107 493.992,346.589 501.309,332.035 499.039,314.915 496.518,295.997 484.871,284.576 473.244,273.1 462.851,267.892 452.478,262.63 440.716,262.435 428.9,262.219 418.398,266.917 407.992,271.527 407.063,273.12 M375.637,348.51 Q369.623,362.622 358.016,371.49 M416.164,349.544 Q417.572,353.235 417.998,356.863 418.069,357.331 420.809,358.388 422.234,358.938 424.363,359.13 424.789,359.169 428.5,359.342" test="Parrot"/>
      <path id="Layer2_0_3_STROKES" stroke="#0FF" stroke-width="2.35" stroke-linejoin="round" stroke-linecap="round" fill="none" d="M365.849,366.202 L363.487,370.202 Q364.283,371.076 365.446,371.651 366.171,372.056 367.815,372.691 372.364,374.446 377.263,371.867 382.238,369.254 384.759,370.227 385.636,370.565 390.183,373.138 394.676,375.691 395.607,376.05 401.032,378.144 403.08,376.101 405.094,373.982 409.259,375.59 410.191,375.949 413.313,377.973 416.491,380.018 417.368,380.356 417.97,380.589 420.932,379.277 423.84,377.943 426.47,378.958 427.402,379.318 430.689,381.405 433.976,383.492 434.853,383.831 435.839,384.211 439.129,383.844 440.774,383.66 442.364,383.456 442.528,383.519 445.266,386.213 448.388,389.055 450.142,389.731 452.389,390.599 455.695,390.678 457.331,390.68 458.803,390.619 460.995,391.465 471.037,398.237 479.385,403.851 483.368,405.766 484.169,406.138 484.772,406.371 M397.345,401.403 Q395.96,403.198 386.88,420.849 378.089,437.919 375.677,440.577 372.202,444.525 367.073,456.019 361.614,468.205 360.209,476.414 358.651,485.509 357.693,511.647 356.721,538.472 357.948,546.06 358.505,549.675 360.568,559.664 362.237,567.737 363.101,575.123 364.246,584.883 366.395,589.428 368.558,594.103 373.471,597.196 376.758,599.283 381.785,602.734 385.343,604.611 386.569,601.432 389.996,592.555 397.48,600.732 402.754,606.482 404.831,607.788 408.173,609.896 411.233,607.677 413.483,606.09 416.818,603.158 420,601.113 425.077,601.498 428.375,601.763 430.244,604.751 430.745,605.574 434.618,600.269 439.007,594.282 444.691,588.038 L449.462,583.017 Q451.824,579.017 457.811,569.869 463.058,561.82 466.453,550.412 470.518,536.617 469.617,524.433 469.554,523.779 466.661,494.896 464.844,476.439 465.229,467.773 465.532,461.278 464.969,451.806 464.551,445.222 465.5,441.622 M495.901,479.17 Q495.391,478.532 494.405,478.152 494.24,478.088 484.756,477.702 483.329,476.017 481.581,474.021 480.393,475.955 478.3,476.973 476.532,477.802 475.71,477.485 473.902,476.787 472.93,474.9 472.126,473.394 471.932,473.571 470.62,474.198 468.996,474.327 467.132,474.426 466.12,473.783 M486.959,411.308 Q505.671,451.081 495.446,478.553 L496.158,478.828 M358.016,371.49 Q348.105,382.65 338.901,394.587 329.719,406.469 321.11,418.824 315.631,426.658 309.701,434.191 300.215,446.208 293.696,459 292.187,463.258 291.158,466.575 286.545,480.976 278.841,494.247 276.31,498.685 272.578,502.156 269.838,504.687 267.174,507.185 266.25,503.869 267.013,500.26 273.005,471.847 285.375,445.832 287.354,441.685 289.771,437.706 293.814,431.145 297.693,424.52 301.306,418.422 306.107,413.16 316.064,402.206 326.266,391.599 339.646,377.812 358.016,371.49Z M318.121,432.278 Q319.934,436.063 323.023,438.011 323.925,438.611 327.542,440.007 329.57,440.789 331.178,439.395 332.808,437.946 336.041,439.194 338.178,440.019 342.722,442.276 346.835,444.179 349.576,444.418 356.315,445.067 361.998,446.82 363.52,447.281 368.232,449.1" test="Parrot"/>
      <path id="Layer2_0_4_STROKES" stroke="#0F0" stroke-width="2.35" stroke-linejoin="round" stroke-linecap="round" fill="none" d="M489.017,509.568 Q490.422,508.537 491.353,506.125 492.008,504.427 493.713,492.996 495.371,481.358 495.171,479.266" test="Parrot"/>
      <path id="Layer2_0_5_STROKES" stroke="#FF0" stroke-width="2.35" stroke-linejoin="round" stroke-linecap="round" fill="none" d="M471.554,544.699 L477.966,547.173 Q478.229,545.512 480.987,541.792 484.058,537.751 484.502,536.6 487.167,529.695 488.49,520.069 489.613,511.939 489.017,509.568 M392.441,305.947 Q378.67,307.369 373.362,317.535 370.931,322.201 368.678,327.061 384.6,336.543 393.125,334.356 398.291,327.66 397.114,320.595 395.903,313.454 394.873,311.23 393.863,308.952 392.441,305.947Z M374.54,330.96 Q367.893,341.492 379.544,346.869 381.799,347.551 383.946,347.372 389.557,345.886 391.517,335.75 M286.322,491.342 Q288.342,495.081 289.031,497.047 289.275,497.393 292.837,498.768 295.687,499.868 306.487,499.943 315.204,500.034 317.663,500.353 317.979,500.349 318.143,500.412 317.796,501.475 322.677,503.673 323.697,504.13 329.013,506.182 331.095,506.985 335.826,507.615 340.579,508.19 342.277,508.845 344.908,509.861 345.148,509.89 346.687,509.981 348.078,507.684 355.865,512.956 353.939,511.583 M317.663,500.353 Q317.346,500.357 317.417,500.825 317.615,501.782 318.143,500.412 M282.543,545.669 Q276.924,547.341 274.88,549.7 274.052,550.703 272.318,555.196 270.034,561.115 272.746,564.365 274.827,566.805 284.816,571.92 285.492,570.166 285.735,568.56 287.609,570.228 290.352,572.42 L293.914,573.794 Q293.209,571.381 292.65,569.403 294.778,571.231 296.601,573.194 L301.588,575.119 302.963,571.557 Q300.371,566.527 301.522,559.793 303.212,553.457 303.15,551.985 302.438,551.71 301.288,550.448 M317.286,559.896 Q312.039,570.716 312.688,574.744 313.233,578.228 319.673,581.28 L321.323,577.006 Q321.185,575.568 321.809,572.157 321.889,572.439 321.893,572.756 322.584,580.263 327.784,583.592 L329.963,577.948 Q330.231,579.374 330.685,580.808 332.223,585.305 335.346,587.329 L336.113,587.625 Q337.385,585.472 337.766,580.896 338.151,575.819 338.87,573.956 340.33,570.175 343.974,569.378 M355.035,581.014 Q348.744,594.704 348.899,624.482 348.956,637.223 350.502,645.942 352.187,655.281 355.036,656.38 359.092,657.946 360.247,657.888 364.161,657.698 366.938,651.97 369.028,654.225 375.375,657.682 381.238,659.945 385.483,654.657 388.127,651.396 388.515,651.042 390.296,649.526 392.269,650.288 393.036,650.584 399.718,656.437 400.924,656.902 404.326,654.122 407,651.132 409.867,651.35 414.366,651.764 420.383,653.142 424.84,653.665 428.344,650.296 429.495,650.74 431.319,651.885 433.165,652.975 433.768,653.208 L442.863,629.644 Q443.778,618.789 445.903,604.31 447.493,593.338 447.461,588.037" test="Parrot"/>
      <path id="Layer2_0_6_STROKES" stroke="#F0F" stroke-width="2.35" stroke-linejoin="round" stroke-linecap="round" fill="none" d="M267.174,507.185 L264.421,517.582 Q262.008,529.054 264.026,534.429 265.052,537.155 265.12,540.077 265.194,541.68 265.048,544.016 265.025,545.707 265.893,546.231 266.98,546.84 269.988,546.552 273.965,546.199 278.007,544.044 280.793,542.537 283.423,543.553 285.944,544.526 291.92,547.965 297.374,550.637 300.85,549.46 304.251,548.317 308.97,551.587 311.655,553.441 317.453,557.505 320.538,559.136 324.946,561.908 328.613,563.827 332.413,563.279 336.344,562.718 339.59,564.097 341.63,565.01 346.279,567.812 348.98,569.295 351.66,571.651 353.484,572.796 355.815,570.674 M453.16,590.237 Q460.812,578.079 465.803,569.553 469.758,562.894 476.866,550.023 M349.676,733.078 Q349.318,743.14 349.633,744.772 350.098,747.156 353.167,748.34 354.318,748.784 354.689,748.802 356.498,748.681 359.199,746.576 371.721,775.146 373.036,775.653 381.256,778.826 390.241,765.986 395.678,758.262 399.675,747.905 402.192,741.384 403.157,734.641 403.791,730.227 403.819,724.445" test="Parrot"/>
      <path id="Layer2_0_7_STROKES" stroke="#F60" stroke-width="2.35" stroke-linejoin="round" stroke-linecap="round" fill="none" d="M354.865,662.044 Q354.656,660.956 354.391,659.846 353.829,657.551 353.39,657.382 L352.016,660.944 Q350.171,669.803 349.826,697.94 349.349,731.315 354.829,733.43 357.185,734.339 364.332,731.809 371.117,729.075 371.226,729.118 372.158,729.477 374.513,731.205 376.924,732.954 377.8,733.292 380.486,734.328 385.189,729.973 388.435,726.945 389.783,724.757 395.976,727.147 400.326,725.175 404.697,723.147 407.931,724.395 408.882,721.929 411.381,716.597 413.825,711.244 414.036,710.696 415.961,705.709 417.055,693.413 418.26,679.522 418.883,676.929 419.816,672.882 422.594,666.336 425.609,659.503 426.582,656.982 L425.869,656.707" test="Parrot"/>
    </g>
    <g id="JuryBoxFront">
      <path fill="#000" stroke="none" d="M-3685.104,607.459 L-3721.007,565.518 -3723.985,773.128 Q-3710.819,773.129 -3692.349,773.128 L-3685.104,607.459 M1051.597,585.885 L1049.423,585.885 1020.685,614.14 1020.685,766.285 Q1037.564,766.312 1051.597,766.285 L1051.597,585.885 M775.562,605.205 Q655.617,607.942 535.913,614.784 414.439,620.661 292.884,621.385 168.27,622.11 43.656,621.949 -77.899,621.788 -199.454,621.385 -327.932,620.983 -456.41,619.453 -583.117,618.004 -709.743,615.911 -835.484,613.899 -961.225,617.119 -1085.678,620.258 -1210.212,627.02 -1331.364,632.253 -1452.758,630.401 -1580.592,628.389 -1708.346,620.5 -1827.405,612.53 -1946.948,610.84 -2065.927,609.23 -2184.986,610.276 -2312.74,611.403 -2440.493,613.335 -2568.73,615.348 -2696.886,617.28 -2824.156,619.212 -2951.588,621.305 -3075.558,623.398 -3199.609,624.363 -3323.176,625.33 -3447.065,622.915 -3566.447,620.58 -3685.104,607.459 L-3692.349,773.128 Q-3360.757,772.983 -1317.921,769.747 626.755,766.599 1020.685,766.285 L1020.685,614.14 Q898.405,602.468 775.562,605.205 M505.565,588.944 Q497.183,589.336 488.821,589.668 366.542,593.693 244.262,593.693 207.209,593.693 170.122,593.693 80.72,593.717 -8.749,593.774 -22.013,593.783 -35.314,593.774 -150.096,593.662 -264.981,592.003 -301.81,591.474 -338.638,590.392 -375.479,590.148 -412.376,589.829 -439.985,589.671 -467.68,589.427 -495.314,588.697 -522.983,588.3 -651.3,586.529 -779.698,585.241 -879.578,584.258 -979.418,588.622 -994.06,589.309 -1008.72,590.071 -1129.551,595.625 -1250.14,601.985 L-1507.82,603.273 Q-1637.103,597.074 -1766.225,589.105 -1883.192,580.974 -2000.883,579.847 -2128.153,578.559 -2255.263,580.33 -2379.394,582.101 -2503.686,584.597 -2620.652,587.012 -2737.699,589.507 -2856.678,592.003 -2975.819,593.935 -3101.318,595.947 -3227.139,594.337 -3349.016,592.808 -3470.732,584.757 -3595.99,577.271 -3721.007,565.518 L-3685.104,607.459 Q-3566.447,620.58 -3447.065,622.915 -3323.176,625.33 -3199.609,624.363 -3075.558,623.398 -2951.588,621.305 -2824.156,619.212 -2696.886,617.28 -2568.73,615.348 -2440.493,613.335 -2312.74,611.403 -2184.986,610.276 -2065.927,609.23 -1946.948,610.84 -1827.405,612.53 -1708.346,620.5 -1580.592,628.389 -1452.758,630.401 -1331.364,632.253 -1210.212,627.02 -1085.678,620.258 -961.225,617.119 -835.484,613.899 -709.743,615.911 -583.117,618.004 -456.41,619.453 -327.932,620.983 -199.454,621.385 -77.899,621.788 43.656,621.949 168.27,622.11 292.884,621.385 414.439,620.661 535.913,614.784 655.617,607.942 775.562,605.205 898.405,602.468 1020.685,614.14 L1049.423,585.885 1049.504,584.597 Q1019.899,581.93 990.256,579.284 967.558,577.168 944.853,575.661 848.31,569.54 751.412,575.339 628.619,583.858 505.565,588.944Z" test="JuryBoxFront" stroke-width="1.61"/>
      <path id="Layer1_0_1_STROKES" stroke="#F60" stroke-width="3.22" stroke-linejoin="round" stroke-linecap="round" fill="none" d="M1049.544,584.637 Q1019.899,581.93 990.256,579.284 967.558,577.168 944.853,575.701 848.31,569.54 751.412,575.339 628.619,583.858 505.565,588.984 497.183,589.336 488.821,589.668 366.542,593.693 244.262,593.693 207.209,593.693 170.162,593.693 80.72,593.717 -8.749,593.774 -22.013,593.783 -35.274,593.774 -150.096,593.662 -264.981,592.003 -301.81,591.474 -338.638,590.433 -375.479,590.148 -412.336,589.869 -439.985,589.671 -467.64,589.467 -495.314,588.697 -522.983,588.3 -651.3,586.529 -779.698,585.241 -879.578,584.258 -979.378,588.662 -994.06,589.309 -1008.72,590.071 -1129.551,595.625 -1250.14,601.985 L-1507.82,603.273 Q-1637.103,597.074 -1766.225,589.105 -1883.192,580.974 -2000.883,579.847 -2128.153,578.559 -2255.263,580.33 -2379.394,582.101 -2503.686,584.597 -2620.652,587.012 -2737.699,589.507 -2856.678,592.003 -2975.819,593.935 -3101.318,595.947 -3227.139,594.337 -3349.016,592.808 -3470.732,584.757 -3595.99,577.271 -3721.007,565.518 L-3685.104,607.459 Q-3566.447,620.58 -3447.065,622.915 -3323.176,625.33 -3199.609,624.363 -3075.558,623.398 -2951.588,621.305 -2824.156,619.212 -2696.886,617.28 -2568.73,615.348 -2440.493,613.335 -2312.74,611.403 -2184.986,610.276 -2065.927,609.23 -1946.948,610.84 -1827.405,612.53 -1708.346,620.5 -1580.592,628.389 -1452.758,630.401 -1331.364,632.253 -1210.212,627.02 -1085.678,620.258 -961.225,617.119 -835.484,613.899 -709.743,615.911 -583.117,618.004 -456.41,619.453 -327.932,620.983 -199.454,621.385 -77.899,621.788 43.656,621.949 168.27,622.11 292.884,621.385 414.439,620.661 535.913,614.784 655.617,607.942 775.562,605.205 898.405,602.468 1020.685,614.14 L1049.423,585.885 M1049.544,584.637 Q1050.569,584.745 1051.597,584.838 L1051.597,585.885 1051.597,766.285 1051.597,784.317 M1020.685,784.317 L1020.685,766.325 M-3692.349,773.128 L-3692.832,784.317 M1020.685,766.325 L1020.685,614.14 M-3724.146,784.317 L-3723.985,773.128 -3721.007,565.518 M-3685.104,607.459 L-3692.349,773.128" test="JuryBoxFront"/>
    </g>
  </g>
</svg>