<?xml version="1.0" encoding="utf-8"?>
<svg id="EdithAnim12" image-rendering="inherit" baseProfile="basic" version="1.1" x="0px" y="0px" width="800" height="600" xmlns="http://www.w3.org/2000/svg" xmlns:xlink="http://www.w3.org/1999/xlink">
  <g id="14_JurorParrotf120r1" overflow="visible">
    <g id="Parrot">
      <path id="Layer2_0_1_STROKES" stroke="#FFF" stroke-width="2.35" stroke-linejoin="round" stroke-linecap="round" fill="none" d="M603.28,554.109 Q601.82,558.238 597.595,561.271 592.503,564.954 586.405,561.792 580.307,558.631 577.752,554.693 575.255,550.767 576.287,546.663 577.333,542.502 580.405,540.056 583.489,537.552 587.727,537.711 591.779,537.89 595.176,539.668 598.241,541.313 599.923,542.95 601.675,544.544 602.401,547.233 603.198,549.878 603.28,554.109Z M589.701,551.571 Q590.574,551.164 590.88,550.329 591.199,549.437 591.211,549.379 591.288,549.035 591.033,548.557 590.389,547.391 588.49,547.812 586.904,548.181 587.133,549.857 587.292,551.036 588.057,551.386 588.592,551.686 588.821,551.737 589.267,551.896 589.701,551.571Z M611.722,502.602 Q611.39,505.176 606.738,507.693 602.214,510.178 596.931,508.763 591.763,507.373 589.087,504.25 586.456,501.198 587.476,497.151 588.566,493.06 591.86,490.422 595.416,487.421 599.737,488.562 605.637,490.175 608.747,492.973 613.067,496.822 611.722,502.602Z M598.658,502.887 Q599.436,502.639 599.659,501.906 599.965,501.071 599.978,501.014 600.029,500.785 599.831,500.319 599.22,499.281 597.505,499.682 596.046,500.02 596.339,501.409 596.479,502.403 597.186,502.741 597.62,502.957 597.849,503.008 598.225,503.212 598.658,502.887Z" test="Parrot"/>
      <path id="Layer2_0_2_STROKES" stroke="#F00" stroke-width="2.35" stroke-linejoin="round" stroke-linecap="round" fill="none" d="M562.916,571.075 Q561.463,574.363 561.157,575.197 560.851,576.032 560.468,577.753 559.92,580.219 561.691,585.247 M535.185,557.206 L534.356,558.767 Q533.464,560.615 533.145,562.049 532.954,562.909 534.024,565.675 535.018,568.243 535.49,568.829 M497.648,599.897 Q510.916,592.194 526.165,592.094 539.177,592.037 556.745,597.749 572.229,602.816 588.824,598.019 607.157,592.706 616.717,579.485 626.334,566.276 629.936,555.22 633.594,544.177 632.034,532.516 630.487,520.797 624.275,511.11 618.164,501.506 616.45,500.824 M537.206,480.98 Q522.352,477.136 511.851,466.978 M542.223,521.215 Q538.782,523.159 535.258,524.121 534.805,524.261 534.168,527.128 533.837,528.619 533.964,530.754 533.989,531.181 534.371,534.877" test="Parrot"/>
      <path id="Layer2_0_3_STROKES" stroke="#0FF" stroke-width="2.35" stroke-linejoin="round" stroke-linecap="round" fill="none" d="M518.248,473.937 L513.941,472.197 Q513.195,473.114 512.8,474.35 512.507,475.128 512.124,476.848 511.066,481.608 514.347,486.069 517.673,490.6 517.087,493.238 516.883,494.156 515.015,499.037 513.16,503.861 512.944,504.836 511.682,510.513 514.007,512.234 516.403,513.91 515.434,518.269 515.217,519.244 513.681,522.634 512.132,526.081 511.929,526 511.788,527.63 513.528,530.363 515.28,533.04 514.668,535.793 514.451,536.768 512.877,540.33 511.302,543.892 511.098,544.809 510.869,545.842 511.723,549.041 512.149,550.64 512.589,552.182 512.551,552.354 510.295,555.464 507.949,558.975 507.541,560.81 507.018,563.161 507.432,566.443 507.674,568.062 507.955,569.508 507.445,571.802 502.244,582.743 497.935,591.836 496.635,596.061 496.386,596.908 496.246,597.539 M488.129,510.333 Q486.148,509.23 467.337,502.882 449.145,496.731 446.156,494.742 441.734,491.893 429.601,488.534 416.736,484.952 408.407,484.785 399.18,484.599 373.187,487.547 346.512,490.585 339.19,492.929 335.698,494.018 326.126,497.548 318.39,500.402 311.214,502.357 301.732,504.944 297.558,507.747 293.256,510.582 290.93,515.903 289.356,519.465 286.692,524.952 285.366,528.749 288.692,529.489 297.983,531.554 291.011,540.175 286.11,546.248 285.128,548.497 283.541,552.117 286.192,554.812 288.097,556.801 291.493,559.662 293.991,562.504 294.366,567.583 294.595,570.884 291.919,573.178 291.179,573.796 297.004,576.836 303.58,580.284 310.601,584.975 L316.279,588.945 Q320.586,590.685 330.527,595.243 339.269,599.233 351.058,600.89 365.306,602.854 377.223,600.147 377.86,599.988 405.995,592.822 423.978,588.274 432.606,587.363 439.074,586.695 448.359,584.726 454.808,583.331 458.51,583.733 M425.906,619.396 Q426.46,618.797 426.69,617.765 426.728,617.593 425.697,608.155 427.15,606.492 428.864,604.466 426.774,603.58 425.455,601.662 424.372,600.037 424.563,599.177 424.984,597.284 426.705,596.042 428.075,595.022 427.871,594.857 427.055,593.652 426.686,592.065 426.31,590.236 426.795,589.14 M491.689,600.438 Q455.142,624.873 426.448,618.855 L426.282,619.6 M511.851,466.978 Q499.337,458.839 486.159,451.516 473.039,444.206 459.537,437.532 450.973,433.281 442.638,428.539 429.34,420.949 414.728,416.557 411.281,415.55 407.846,415.027 392.916,412.61 378.643,406.97 373.876,405.127 369.888,401.954 366.976,399.621 364.108,397.359 367.25,395.951 370.933,396.168 399.927,397.859 427.5,406.216 431.896,407.554 436.191,409.352 443.283,412.373 450.414,415.222 456.983,417.886 462.903,421.85 475.22,430.065 487.231,438.574 502.861,449.752 511.851,466.978Z M445.785,436.582 Q442.312,438.939 440.846,442.284 440.387,443.266 439.546,447.051 439.074,449.173 440.693,450.556 442.368,451.951 441.616,455.335 441.119,457.572 439.564,462.402 438.295,466.754 438.467,469.501 438.83,476.262 437.943,482.143 437.714,483.717 436.617,488.649" test="Parrot"/>
      <path id="Layer2_0_4_STROKES" stroke="#0F0" stroke-width="2.35" stroke-linejoin="round" stroke-linecap="round" fill="none" d="M394.815,617.118 Q396.045,618.355 398.569,618.916 400.346,619.311 411.906,619.293 423.663,619.199 425.702,618.689" test="Parrot"/>
      <path id="Layer2_0_5_STROKES" stroke="#FF0" stroke-width="2.35" stroke-linejoin="round" stroke-linecap="round" fill="none" d="M357.468,605.084 L355.976,611.794 Q357.659,611.807 361.75,613.98 366.204,616.415 367.408,616.683 374.634,618.289 384.352,618.163 392.56,618.061 394.815,617.118 M581.805,491.256 Q578.346,477.849 567.5,474.113 562.524,472.405 557.381,470.901 550.377,488.061 553.81,496.167 561.202,500.278 568.014,498.061 574.897,495.799 576.942,494.448 579.045,493.11 581.805,491.256Z M554.398,477.279 Q542.992,472.276 539.41,484.6 539.072,486.932 539.569,489.028 541.875,494.356 552.192,494.784 M382.631,413.935 Q379.234,416.49 377.393,417.465 377.087,417.758 376.258,421.486 375.595,424.468 377.13,435.161 378.34,443.795 378.391,446.274 378.441,446.586 378.403,446.758 377.301,446.574 375.854,451.729 375.554,452.806 374.318,458.369 373.833,460.548 373.915,465.321 374.055,470.106 373.66,471.884 373.048,474.637 373.054,474.879 373.194,476.415 375.673,477.447 371.619,485.935 372.69,483.826 M378.391,446.274 Q378.34,445.962 377.887,446.102 376.97,446.44 378.403,446.758 M328.338,418.295 Q325.847,412.987 323.209,411.317 322.094,410.648 317.391,409.602 311.198,408.225 308.387,411.392 306.284,413.813 302.715,424.455 304.55,424.863 306.175,424.863 304.804,426.966 303.045,430.005 L302.217,433.733 Q304.498,432.675 306.372,431.828 304.88,434.205 303.21,436.301 L302.05,441.52 305.778,442.348 Q310.366,439.035 317.198,439.17 323.716,439.897 325.163,439.617 325.329,438.871 326.406,437.546 M319.446,454.776 Q307.963,451.2 304.076,452.442 300.711,453.5 298.652,460.324 L303.125,461.319 Q304.527,460.968 307.994,461.077 307.726,461.198 307.414,461.249 300.092,463.052 297.574,468.691 L303.481,470.004 Q302.111,470.482 300.76,471.145 296.542,473.336 295.006,476.726 L294.827,477.529 Q297.146,478.466 301.728,478.161 306.807,477.785 308.757,478.219 312.714,479.098 314.046,482.584 M304.186,495.258 Q289.709,491.076 260.281,495.668 247.689,497.623 239.296,500.452 230.311,503.51 229.648,506.492 228.704,510.736 228.934,511.87 229.704,515.713 235.783,517.606 233.865,520.008 231.392,526.801 230.028,532.937 235.89,536.347 239.509,538.476 239.917,538.807 241.682,540.343 241.223,542.408 241.045,543.21 236.252,550.691 235.971,551.953 239.227,554.904 242.732,558.09 242.796,559.97 243.056,564.482 242.591,570.637 242.737,575.123 246.592,578.087 246.324,579.291 245.464,581.267 244.66,583.255 244.52,583.886 L269.181,589.368 Q280.052,588.655 294.689,588.599 305.777,588.537 311.015,587.715" test="Parrot"/>
      <path id="Layer2_0_6_STROKES" stroke="#F0F" stroke-width="2.35" stroke-linejoin="round" stroke-linecap="round" fill="none" d="M364.108,397.359 L353.416,396.185 Q341.71,395.509 336.694,398.306 334.152,399.726 331.271,400.23 329.697,400.542 327.365,400.745 325.689,400.975 325.3,401.911 324.86,403.077 325.593,406.009 326.536,409.89 329.269,413.567 331.174,416.097 330.562,418.85 329.976,421.488 327.464,427.911 325.635,433.703 327.317,436.966 328.954,440.159 326.424,445.314 324.99,448.245 321.835,454.585 320.681,457.879 318.597,462.652 317.246,466.564 318.354,470.241 319.495,474.046 318.615,477.461 318.016,479.615 315.938,484.63 314.874,487.523 312.942,490.524 312.082,492.499 314.529,494.488 M309.689,593.679 Q322.854,599.435 332.03,603.1 339.205,606.019 352.994,611.131 M152.994,512.621 Q142.99,513.768 141.422,514.322 139.134,515.137 138.42,518.349 138.152,519.553 138.191,519.923 138.579,521.694 141.064,524.052 114.675,540.694 114.369,542.071 112.456,550.673 126.494,557.646 134.943,561.872 145.782,564.281 152.607,565.799 159.419,565.748 163.88,565.717 169.602,564.883" test="Parrot"/>
      <path id="Layer2_0_7_STROKES" stroke="#F60" stroke-width="2.35" stroke-linejoin="round" stroke-linecap="round" fill="none" d="M224.021,507.167 Q225.066,506.797 226.124,506.371 228.31,505.472 228.412,505.013 L224.684,504.185 Q215.648,503.68 187.769,507.533 154.689,512.035 153.414,517.77 152.866,520.236 156.434,526.928 160.149,533.23 160.123,533.345 159.906,534.32 158.549,536.907 157.178,539.551 156.974,540.469 156.35,543.279 161.358,547.281 164.837,550.041 167.201,551.048 165.76,557.529 168.36,561.537 171.017,565.558 170.265,568.942 172.845,569.516 178.491,571.192 184.15,572.811 184.723,572.939 189.942,574.099 202.266,573.348 216.183,572.47 218.841,572.7 222.983,573.019 229.871,574.791 237.078,576.754 239.716,577.341 L239.882,576.595" test="Parrot"/>
    </g>
    <g id="JuryBoxFront">
      <path fill="#000" stroke="none" d="M-3685.504,607.508 L-3721.407,565.568 -3724.386,773.178 Q-3711.219,773.179 -3692.749,773.178 L-3685.504,607.508 M1051.197,585.935 L1049.023,585.935 1020.285,614.19 1020.285,766.335 Q1037.164,766.362 1051.197,766.335 L1051.197,585.935 M775.162,605.255 Q655.217,607.992 535.513,614.834 414.039,620.71 292.484,621.435 167.87,622.16 43.256,621.998 -78.299,621.838 -199.854,621.435 -328.332,621.032 -456.81,619.503 -583.517,618.054 -710.143,615.961 -835.885,613.949 -961.625,617.169 -1086.078,620.308 -1210.612,627.07 -1331.764,632.303 -1453.158,630.451 -1580.992,628.439 -1708.746,620.55 -1827.805,612.58 -1947.348,610.89 -2066.327,609.28 -2185.386,610.326 -2313.14,611.453 -2440.893,613.385 -2569.13,615.397 -2697.286,617.329 -2824.556,619.262 -2951.988,621.354 -3075.958,623.448 -3200.008,624.413 -3323.576,625.38 -3447.466,622.964 -3566.847,620.63 -3685.504,607.508 L-3692.749,773.178 Q-3361.157,773.033 -1318.321,769.796 626.355,766.649 1020.285,766.335 L1020.285,614.19 Q898.005,602.517 775.162,605.255 M505.165,588.993 Q496.783,589.386 488.421,589.718 366.142,593.743 243.862,593.743 206.809,593.743 169.722,593.743 80.32,593.767 -9.149,593.824 -22.413,593.833 -35.715,593.824 -150.496,593.712 -265.381,592.053 -302.21,591.524 -339.039,590.442 -375.879,590.198 -412.776,589.879 -440.385,589.721 -468.08,589.477 -495.714,588.747 -523.383,588.349 -651.7,586.579 -780.098,585.291 -879.978,584.308 -979.819,588.671 -994.46,589.359 -1009.12,590.121 -1129.951,595.675 -1250.54,602.035 L-1508.221,603.323 Q-1637.503,597.124 -1766.625,589.155 -1883.592,581.024 -2001.283,579.897 -2128.553,578.609 -2255.663,580.38 -2379.794,582.151 -2504.086,584.647 -2621.053,587.062 -2738.1,589.557 -2857.078,592.053 -2976.218,593.984 -3101.718,595.997 -3227.54,594.387 -3349.417,592.858 -3471.132,584.807 -3596.391,577.321 -3721.407,565.568 L-3685.504,607.508 Q-3566.847,620.63 -3447.466,622.964 -3323.576,625.38 -3200.008,624.413 -3075.958,623.448 -2951.988,621.354 -2824.556,619.262 -2697.286,617.329 -2569.13,615.397 -2440.893,613.385 -2313.14,611.453 -2185.386,610.326 -2066.327,609.28 -1947.348,610.89 -1827.805,612.58 -1708.746,620.55 -1580.992,628.439 -1453.158,630.451 -1331.764,632.303 -1210.612,627.07 -1086.078,620.308 -961.625,617.169 -835.885,613.949 -710.143,615.961 -583.517,618.054 -456.81,619.503 -328.332,621.032 -199.854,621.435 -78.299,621.838 43.256,621.998 167.87,622.16 292.484,621.435 414.039,620.71 535.513,614.834 655.217,607.992 775.162,605.255 898.005,602.517 1020.285,614.19 L1049.023,585.935 1049.104,584.647 Q1019.499,581.98 989.855,579.334 967.158,577.218 944.453,575.711 847.91,569.59 751.012,575.389 628.219,583.908 505.165,588.993Z" test="JuryBoxFront" stroke-width="1.61"/>
      <path id="Layer1_0_1_STROKES" stroke="#F60" stroke-width="3.22" stroke-linejoin="round" stroke-linecap="round" fill="none" d="M1049.144,584.687 Q1019.499,581.98 989.855,579.334 967.158,577.218 944.453,575.751 847.91,569.59 751.012,575.389 628.219,583.908 505.165,589.034 496.783,589.386 488.421,589.718 366.142,593.743 243.862,593.743 206.809,593.743 169.762,593.743 80.32,593.767 -9.149,593.824 -22.413,593.833 -35.674,593.824 -150.496,593.712 -265.381,592.053 -302.21,591.524 -339.039,590.483 -375.879,590.198 -412.736,589.919 -440.385,589.721 -468.04,589.517 -495.714,588.747 -523.383,588.349 -651.7,586.579 -780.098,585.291 -879.978,584.308 -979.778,588.712 -994.46,589.359 -1009.12,590.121 -1129.951,595.675 -1250.54,602.035 L-1508.221,603.323 Q-1637.503,597.124 -1766.625,589.155 -1883.592,581.024 -2001.283,579.897 -2128.553,578.609 -2255.663,580.38 -2379.794,582.151 -2504.086,584.647 -2621.053,587.062 -2738.1,589.557 -2857.078,592.053 -2976.218,593.984 -3101.718,595.997 -3227.54,594.387 -3349.417,592.858 -3471.132,584.807 -3596.391,577.321 -3721.407,565.568 L-3685.504,607.508 Q-3566.847,620.63 -3447.466,622.964 -3323.576,625.38 -3200.008,624.413 -3075.958,623.448 -2951.988,621.354 -2824.556,619.262 -2697.286,617.329 -2569.13,615.397 -2440.893,613.385 -2313.14,611.453 -2185.386,610.326 -2066.327,609.28 -1947.348,610.89 -1827.805,612.58 -1708.746,620.55 -1580.992,628.439 -1453.158,630.451 -1331.764,632.303 -1210.612,627.07 -1086.078,620.308 -961.625,617.169 -835.885,613.949 -710.143,615.961 -583.517,618.054 -456.81,619.503 -328.332,621.032 -199.854,621.435 -78.299,621.838 43.256,621.998 167.87,622.16 292.484,621.435 414.039,620.71 535.513,614.834 655.217,607.992 775.162,605.255 898.005,602.517 1020.285,614.19 L1049.023,585.935 M1049.144,584.687 Q1050.169,584.795 1051.197,584.888 L1051.197,585.935 1051.197,766.335 1051.197,784.367 M1020.285,784.367 L1020.285,766.375 M-3692.749,773.178 L-3693.232,784.367 M1020.285,766.375 L1020.285,614.19 M-3724.547,784.367 L-3724.386,773.178 -3721.407,565.568 M-3685.504,607.508 L-3692.749,773.178" test="JuryBoxFront"/>
    </g>
  </g>
</svg>