<?xml version="1.0" encoding="utf-8"?>
<svg id="EdithAnim12" image-rendering="inherit" baseProfile="basic" version="1.1" x="0px" y="0px" width="800" height="600" xmlns="http://www.w3.org/2000/svg" xmlns:xlink="http://www.w3.org/1999/xlink">
  <g id="14_JurorParrotf123r1" overflow="visible">
    <g id="Parrot">
      <path id="Layer2_0_1_STROKES" stroke="#FFF" stroke-width="2.35" stroke-linejoin="round" stroke-linecap="round" fill="none" d="M494.79,706.918 Q490.727,708.553 485.659,707.389 479.53,706.004 477.87,699.339 476.21,692.675 477.475,688.155 478.769,683.686 482.53,681.748 486.342,679.781 490.208,680.468 494.126,681.126 496.808,684.411 499.353,687.569 500.264,691.292 501.057,694.679 500.94,697.023 500.904,699.391 499.367,701.714 497.909,704.059 494.79,706.918Z M487.716,695.054 Q488.599,695.44 489.427,695.117 490.307,694.767 490.359,694.738 490.667,694.568 490.857,694.061 491.307,692.807 489.736,691.661 488.41,690.715 487.304,691.995 486.525,692.894 486.768,693.699 486.897,694.298 487.01,694.504 487.185,694.944 487.716,695.054Z M539.008,679.199 Q536.858,680.653 531.894,678.827 527.039,677.075 524.609,672.177 522.234,667.382 522.808,663.31 523.358,659.318 527.068,657.408 530.857,655.521 535.014,656.248 539.616,656.932 541.616,660.927 544.308,666.42 544.265,670.602 544.233,676.387 539.008,679.199Z M530.158,669.589 Q530.858,670.008 531.555,669.691 532.384,669.368 532.435,669.34 532.641,669.227 532.859,668.771 533.234,667.625 531.8,666.605 530.582,665.733 529.734,666.871 529.08,667.634 529.295,668.388 529.419,668.856 529.532,669.062 529.628,669.478 530.158,669.589Z" test="Parrot"/>
      <path id="Layer2_0_2_STROKES" stroke="#F00" stroke-width="2.35" stroke-linejoin="round" stroke-linecap="round" fill="none" d="M455.378,687.856 Q451.951,688.939 451.122,689.262 450.294,689.584 448.75,690.434 446.538,691.653 443.937,696.306 M447.448,657.884 L445.729,658.295 Q443.753,658.847 442.467,659.556 441.695,659.981 440.328,662.613 439.059,665.056 438.931,665.797 M390.608,657.95 Q405.157,662.81 415.314,674.183 423.959,683.907 431.289,700.861 437.724,715.827 452.293,725.103 468.399,735.344 484.637,733.774 500.904,732.256 511.578,727.649 522.281,723.093 529.997,714.213 537.765,705.305 540.924,694.241 544.089,683.308 543.468,681.571 M505.965,609.007 Q499.028,595.323 499.707,580.73 M479.099,639.371 Q475.367,638.074 472.315,636.066 471.911,635.82 469.339,637.237 468.001,637.974 466.484,639.481 466.18,639.782 463.66,642.512" test="Parrot"/>
      <path id="Layer2_0_3_STROKES" stroke="#0FF" stroke-width="2.35" stroke-linejoin="round" stroke-linecap="round" fill="none" d="M498.716,590.13 L497.173,585.748 Q495.992,585.796 494.803,586.316 494.026,586.61 492.483,587.461 488.212,589.814 487.035,595.225 485.835,600.715 483.468,602.019 482.645,602.473 477.749,604.299 472.904,606.096 472.03,606.578 466.936,609.385 467.183,612.267 467.51,615.173 463.599,617.327 462.725,617.809 459.166,618.898 455.556,620.015 454.733,620.469 454.167,620.781 453.266,623.893 452.417,626.977 449.947,628.337 449.073,628.819 445.36,629.993 441.647,631.167 440.824,631.621 439.898,632.131 438.062,634.886 437.145,636.264 436.278,637.613 436.124,637.698 432.3,638.061 428.116,638.623 426.469,639.53 424.36,640.693 422.172,643.173 421.117,644.424 420.218,645.591 418.16,646.725 406.514,650.057 396.845,652.836 392.816,654.654 392.016,655.027 391.45,655.339 M451.501,591.598 Q451.018,589.382 443.345,571.075 435.932,553.361 435.448,549.805 434.661,544.604 429.16,533.282 423.342,521.263 417.961,514.905 412,507.86 392.605,490.311 372.691,472.308 366.092,468.366 362.966,466.466 353.991,461.619 346.735,457.703 340.525,453.613 332.316,448.21 327.453,446.932 322.482,445.58 316.953,447.352 313.24,448.526 307.364,450.155 303.638,451.671 305.282,454.655 309.875,462.99 298.799,463.459 291.003,463.797 288.667,464.548 284.903,465.75 284.633,469.521 284.401,472.264 284.5,476.704 284.019,480.456 280.457,484.096 278.133,486.45 274.642,485.958 273.69,485.813 275.26,492.191 277.021,499.404 278.144,507.772 L278.919,514.656 Q280.461,519.038 283.615,529.507 286.401,538.703 292.951,548.642 300.898,560.629 310.806,567.779 311.347,568.151 335.323,584.519 350.624,595.002 357.011,600.873 361.788,605.283 369.403,610.946 374.713,614.862 376.859,617.905 M328.551,617.024 Q329.367,617.044 330.293,616.533 330.448,616.448 336.845,609.435 339.054,609.426 341.707,609.372 340.99,607.219 341.557,604.961 342.06,603.074 342.831,602.649 344.529,601.714 346.599,602.183 348.269,602.537 348.259,602.274 348.623,600.866 349.569,599.54 350.693,598.049 351.835,597.688 M386.263,653.838 Q343.771,642.575 329.316,617.072 L328.647,617.44 M499.707,580.73 Q497.538,565.962 494.32,551.236 491.13,536.561 487.21,522.021 484.737,512.786 482.784,503.399 479.686,488.405 473.321,474.541 471.798,471.289 469.919,468.367 461.862,455.569 456.657,441.133 454.887,436.34 454.631,431.249 454.456,427.523 454.257,423.876 457.391,425.302 459.663,428.208 477.562,451.076 489.522,477.284 491.424,481.468 492.915,485.878 495.338,493.195 497.914,500.427 500.259,507.117 501.199,514.178 503.179,528.849 504.737,543.484 506.685,562.599 499.707,580.73Z M478.832,511.077 Q474.767,510.03 471.288,511.142 470.249,511.446 466.853,513.317 464.95,514.366 464.982,516.495 465.043,518.674 462.008,520.347 460.001,521.453 455.349,523.479 451.246,525.405 449.299,527.349 444.467,532.091 439.469,535.315 438.137,536.183 433.712,538.621" test="Parrot"/>
      <path id="Layer2_0_4_STROKES" stroke="#0F0" stroke-width="2.35" stroke-linejoin="round" stroke-linecap="round" fill="none" d="M309.706,592.195 Q309.592,593.935 310.839,596.199 311.718,597.794 319.373,606.453 327.217,615.21 328.947,616.403" test="Parrot"/>
      <path id="Layer2_0_5_STROKES" stroke="#FF0" stroke-width="2.35" stroke-linejoin="round" stroke-linecap="round" fill="none" d="M294.043,556.223 L288.024,559.54 Q289.126,560.811 290.2,565.316 291.318,570.267 291.914,571.348 295.486,577.83 302.005,585.036 307.507,591.126 309.706,592.195 M527.741,649.257 Q535.512,637.798 531.144,627.193 529.135,622.33 526.864,617.478 509.36,623.568 505.55,631.503 507.353,639.766 513.519,643.41 519.766,647.078 522.132,647.719 524.526,648.412 527.741,649.257Z M520.107,619.458 Q516.32,607.594 504.707,613.054 502.734,614.342 501.49,616.101 499.018,621.353 505.517,629.375 M454.068,448.73 Q449.906,447.871 447.957,447.134 447.535,447.098 444.191,448.941 441.516,450.415 434.509,458.635 428.832,465.251 427.006,466.928 426.805,467.173 426.651,467.258 426.061,466.309 421.237,468.631 420.231,469.119 415.241,471.869 413.285,472.946 409.76,476.163 406.262,479.432 404.667,480.311 402.197,481.671 402.02,481.836 400.961,482.957 401.825,485.499 392.778,488.069 395.068,487.478 M427.006,466.928 Q427.206,466.684 426.802,466.437 425.942,465.972 426.651,467.258 M414.905,410.885 Q417.24,405.506 416.748,402.424 416.513,401.145 414.188,396.926 411.127,391.369 406.893,391.355 403.686,391.378 393.344,395.735 394.251,397.381 395.325,398.601 392.842,398.963 389.399,399.653 L386.055,401.495 Q388.356,402.508 390.231,403.353 387.462,403.805 384.785,403.939 L380.103,406.519 381.946,409.863 Q387.465,411.114 391.88,416.328 395.644,421.698 396.811,422.598 397.48,422.23 399.186,422.162 M381.659,428.331 Q376.751,417.354 373.249,415.259 370.231,413.434 363.751,416.401 L365.962,420.414 Q367.152,421.234 369.362,423.907 369.094,423.786 368.849,423.585 362.657,419.285 356.762,421.124 L359.682,426.423 Q358.418,425.712 357.027,425.136 352.594,423.42 349.036,424.509 L348.316,424.906 Q349.146,427.266 352.404,430.501 356.044,434.062 357.008,435.812 358.964,439.362 357.229,442.665 M341.204,443.648 Q334.77,430.023 311.87,410.983 302.079,402.83 294.409,398.404 286.175,393.686 283.499,395.16 279.692,397.258 278.993,398.179 276.62,401.298 279.218,407.11 276.148,407.259 269.418,409.894 263.912,412.928 265.23,419.58 266.026,423.702 266.047,424.227 266.062,426.566 264.21,427.587 263.489,427.984 254.709,429.334 253.577,429.958 253.516,434.351 253.443,439.086 252.075,440.377 248.863,443.555 243.937,447.275 240.669,450.351 240.994,455.202 239.914,455.797 237.863,456.458 235.841,457.17 235.275,457.481 L247.465,479.605 Q255.187,487.289 264.906,498.232 272.283,506.508 276.362,509.894" test="Parrot"/>
      <path id="Layer2_0_6_STROKES" stroke="#F0F" stroke-width="2.35" stroke-linejoin="round" stroke-linecap="round" fill="none" d="M454.257,423.876 L448.069,415.079 Q440.837,405.851 435.424,403.938 432.677,402.97 430.395,401.142 429.12,400.167 427.426,398.552 426.146,397.447 425.186,397.774 424.021,398.215 422.306,400.703 420.018,403.976 419.067,408.457 418.428,411.559 415.959,412.919 413.592,414.224 407.114,416.586 401.559,419.043 400.223,422.462 398.911,425.801 393.371,427.311 390.224,428.173 383.382,429.998 380.148,431.31 375.19,432.902 371.362,434.475 369.337,437.737 367.237,441.108 364.093,442.706 362.081,443.68 356.946,445.437 354.072,446.551 350.544,447.086 348.493,447.747 348.619,450.897 M271.011,512.843 Q275.397,526.523 278.714,535.829 281.268,543.141 286.549,556.865 M228.225,341.711 Q220.751,334.963 219.299,334.154 217.175,332.977 214.294,334.564 213.213,335.16 212.961,335.433 211.889,336.895 211.763,340.318 181.833,331.524 180.598,332.205 172.881,336.457 176.93,351.597 179.346,360.729 184.705,370.453 188.078,376.576 192.62,381.653 195.592,384.978 200.001,388.719" test="Parrot"/>
      <path id="Layer2_0_7_STROKES" stroke="#F60" stroke-width="2.35" stroke-linejoin="round" stroke-linecap="round" fill="none" d="M279.273,391.385 Q280.241,391.925 281.261,392.436 283.379,393.482 283.791,393.255 L281.948,389.911 Q276.353,382.799 255.032,364.433 229.785,342.595 224.64,345.43 222.428,346.649 219.767,353.749 217.495,360.702 217.392,360.759 216.518,361.241 213.679,361.932 210.79,362.653 209.967,363.106 207.446,364.496 207.754,370.898 207.984,375.333 208.792,377.772 202.978,380.975 201.689,385.575 200.429,390.227 197.394,391.899 198.67,394.215 201.144,399.558 203.671,404.873 203.954,405.388 206.534,410.07 215.245,418.818 225.104,428.678 226.689,430.823 229.188,434.141 232.412,440.48 235.704,447.184 237.008,449.551 L237.677,449.182" test="Parrot"/>
    </g>
    <g id="JuryBoxFront">
      <path fill="#000" stroke="none" d="M-3685.554,607.508 L-3721.457,565.568 -3724.435,773.178 Q-3711.269,773.179 -3692.799,773.178 L-3685.554,607.508 M1051.147,585.935 L1048.973,585.935 1020.235,614.19 1020.235,766.335 Q1037.114,766.362 1051.147,766.335 L1051.147,585.935 M775.112,605.255 Q655.167,607.992 535.463,614.834 413.989,620.71 292.434,621.435 167.82,622.16 43.206,621.998 -78.349,621.838 -199.904,621.435 -328.382,621.032 -456.86,619.503 -583.567,618.054 -710.193,615.961 -835.935,613.949 -961.675,617.169 -1086.128,620.308 -1210.662,627.07 -1331.814,632.303 -1453.208,630.451 -1581.042,628.439 -1708.796,620.55 -1827.856,612.58 -1947.398,610.89 -2066.377,609.28 -2185.436,610.326 -2313.19,611.453 -2440.944,613.385 -2569.18,615.397 -2697.336,617.329 -2824.606,619.262 -2952.038,621.354 -3076.008,623.448 -3200.058,624.413 -3323.626,625.38 -3447.515,622.964 -3566.897,620.63 -3685.554,607.508 L-3692.799,773.178 Q-3361.207,773.033 -1318.371,769.796 626.305,766.649 1020.235,766.335 L1020.235,614.19 Q897.955,602.517 775.112,605.255 M505.115,588.993 Q496.733,589.386 488.371,589.718 366.092,593.743 243.812,593.743 206.759,593.743 169.672,593.743 80.27,593.767 -9.199,593.824 -22.463,593.833 -35.764,593.824 -150.546,593.712 -265.431,592.053 -302.26,591.524 -339.089,590.442 -375.929,590.198 -412.826,589.879 -440.435,589.721 -468.13,589.477 -495.764,588.747 -523.433,588.349 -651.75,586.579 -780.148,585.291 -880.028,584.308 -979.868,588.671 -994.51,589.359 -1009.17,590.121 -1130.001,595.675 -1250.59,602.035 L-1508.27,603.323 Q-1637.553,597.124 -1766.675,589.155 -1883.642,581.024 -2001.333,579.897 -2128.603,578.609 -2255.713,580.38 -2379.844,582.151 -2504.136,584.647 -2621.102,587.062 -2738.15,589.557 -2857.128,592.053 -2976.268,593.984 -3101.768,595.997 -3227.589,594.387 -3349.467,592.858 -3471.182,584.807 -3596.44,577.321 -3721.457,565.568 L-3685.554,607.508 Q-3566.897,620.63 -3447.515,622.964 -3323.626,625.38 -3200.058,624.413 -3076.008,623.448 -2952.038,621.354 -2824.606,619.262 -2697.336,617.329 -2569.18,615.397 -2440.944,613.385 -2313.19,611.453 -2185.436,610.326 -2066.377,609.28 -1947.398,610.89 -1827.856,612.58 -1708.796,620.55 -1581.042,628.439 -1453.208,630.451 -1331.814,632.303 -1210.662,627.07 -1086.128,620.308 -961.675,617.169 -835.935,613.949 -710.193,615.961 -583.567,618.054 -456.86,619.503 -328.382,621.032 -199.904,621.435 -78.349,621.838 43.206,621.998 167.82,622.16 292.434,621.435 413.989,620.71 535.463,614.834 655.167,607.992 775.112,605.255 897.955,602.517 1020.235,614.19 L1048.973,585.935 1049.054,584.647 Q1019.449,581.98 989.805,579.334 967.108,577.218 944.403,575.711 847.86,569.59 750.962,575.389 628.169,583.908 505.115,588.993Z" test="JuryBoxFront" stroke-width="1.61"/>
      <path id="Layer1_0_1_STROKES" stroke="#F60" stroke-width="3.22" stroke-linejoin="round" stroke-linecap="round" fill="none" d="M1049.094,584.687 Q1019.449,581.98 989.805,579.334 967.108,577.218 944.403,575.751 847.86,569.59 750.962,575.389 628.169,583.908 505.115,589.034 496.733,589.386 488.371,589.718 366.092,593.743 243.812,593.743 206.759,593.743 169.712,593.743 80.27,593.767 -9.199,593.824 -22.463,593.833 -35.724,593.824 -150.546,593.712 -265.431,592.053 -302.26,591.524 -339.089,590.483 -375.929,590.198 -412.786,589.919 -440.435,589.721 -468.09,589.517 -495.764,588.747 -523.433,588.349 -651.75,586.579 -780.148,585.291 -880.028,584.308 -979.828,588.712 -994.51,589.359 -1009.17,590.121 -1130.001,595.675 -1250.59,602.035 L-1508.27,603.323 Q-1637.553,597.124 -1766.675,589.155 -1883.642,581.024 -2001.333,579.897 -2128.603,578.609 -2255.713,580.38 -2379.844,582.151 -2504.136,584.647 -2621.102,587.062 -2738.15,589.557 -2857.128,592.053 -2976.268,593.984 -3101.768,595.997 -3227.589,594.387 -3349.467,592.858 -3471.182,584.807 -3596.44,577.321 -3721.457,565.568 L-3685.554,607.508 Q-3566.897,620.63 -3447.515,622.964 -3323.626,625.38 -3200.058,624.413 -3076.008,623.448 -2952.038,621.354 -2824.606,619.262 -2697.336,617.329 -2569.18,615.397 -2440.944,613.385 -2313.19,611.453 -2185.436,610.326 -2066.377,609.28 -1947.398,610.89 -1827.856,612.58 -1708.796,620.55 -1581.042,628.439 -1453.208,630.451 -1331.814,632.303 -1210.662,627.07 -1086.128,620.308 -961.675,617.169 -835.935,613.949 -710.193,615.961 -583.567,618.054 -456.86,619.503 -328.382,621.032 -199.904,621.435 -78.349,621.838 43.206,621.998 167.82,622.16 292.434,621.435 413.989,620.71 535.463,614.834 655.167,607.992 775.112,605.255 897.955,602.517 1020.235,614.19 L1048.973,585.935 M1049.094,584.687 Q1050.119,584.795 1051.147,584.888 L1051.147,585.935 1051.147,766.335 1051.147,784.367 M1020.235,784.367 L1020.235,766.375 M-3692.799,773.178 L-3693.282,784.367 M1020.235,766.375 L1020.235,614.19 M-3724.596,784.367 L-3724.435,773.178 -3721.457,565.568 M-3685.554,607.508 L-3692.799,773.178" test="JuryBoxFront"/>
    </g>
  </g>
</svg>