<?xml version="1.0" encoding="utf-8"?>
<svg id="EdithAnim12" image-rendering="inherit" baseProfile="basic" version="1.1" x="0px" y="0px" width="800" height="600" xmlns="http://www.w3.org/2000/svg" xmlns:xlink="http://www.w3.org/1999/xlink">
  <g id="14_JurorParrotf124r1" overflow="visible">
    <g id="Parrot">
      <path id="Layer2_0_1_STROKES" stroke="#FFF" stroke-width="2.35" stroke-linejoin="round" stroke-linecap="round" fill="none" d="M428.727,732.809 Q424.358,733.108 419.898,730.433 414.497,727.22 414.98,720.368 415.462,713.517 418.064,709.609 420.676,705.759 424.852,705.079 429.087,704.388 432.551,706.237 436.073,708.074 437.608,712.027 439.052,715.818 438.767,719.641 438.474,723.107 437.638,725.301 436.87,727.541 434.69,729.275 432.579,731.055 428.727,732.809Z M425.669,719.338 Q426.39,719.978 427.277,719.928 428.223,719.866 428.28,719.855 428.627,719.789 428.964,719.365 429.779,718.312 428.64,716.736 427.671,715.426 426.224,716.301 425.205,716.915 425.187,717.756 425.124,718.366 425.168,718.597 425.199,719.069 425.669,719.338Z M479.355,720.123 Q476.86,720.84 472.705,717.568 468.629,714.401 467.832,708.991 467.057,703.696 468.862,700.001 470.62,696.374 474.738,695.705 478.926,695.082 482.654,697.06 486.82,699.134 487.487,703.552 488.347,709.608 487.013,713.572 485.194,719.065 479.355,720.123Z M473.91,708.245 Q474.446,708.861 475.208,708.775 476.095,708.724 476.153,708.713 476.384,708.669 476.732,708.303 477.443,707.33 476.395,705.915 475.506,704.71 474.347,705.53 473.49,706.053 473.461,706.836 473.434,707.32 473.478,707.551 473.44,707.977 473.91,708.245Z" test="Parrot"/>
      <path id="Layer2_0_2_STROKES" stroke="#F00" stroke-width="2.35" stroke-linejoin="round" stroke-linecap="round" fill="none" d="M397.14,702.49 Q393.546,702.461 392.658,702.511 391.771,702.562 390.04,702.893 387.558,703.368 383.646,706.989 M398.868,671.534 L397.107,671.392 Q395.056,671.306 393.614,671.583 392.748,671.748 390.634,673.828 388.671,675.759 388.32,676.425 M344.789,654.016 Q357.124,663.138 363.266,677.095 368.48,689.017 370.208,707.409 371.7,723.632 382.686,736.961 394.837,751.682 410.766,755.211 426.706,758.798 438.283,757.717 449.871,756.694 459.956,750.636 470.099,744.566 476.525,735.021 482.916,725.602 482.862,723.758 M469.638,643.146 Q467.273,627.987 472.431,614.318 M434.696,663.715 Q431.547,661.327 429.266,658.474 428.958,658.115 426.073,658.667 424.573,658.954 422.664,659.918 422.282,660.111 419.041,661.928" test="Parrot"/>
      <path id="Layer2_0_3_STROKES" stroke="#0FF" stroke-width="2.35" stroke-linejoin="round" stroke-linecap="round" fill="none" d="M468.582,622.951 L468.47,618.307 Q467.332,617.987 466.04,618.114 465.21,618.154 463.479,618.485 458.69,619.402 455.897,624.184 453.058,629.035 450.404,629.543 449.48,629.72 444.259,629.942 439.096,630.153 438.115,630.341 432.402,631.435 431.746,634.252 431.158,637.117 426.773,637.956 425.792,638.144 422.071,638.079 418.292,638.025 417.369,638.202 416.734,638.324 414.915,641.005 413.153,643.675 410.383,644.206 409.402,644.393 405.508,644.362 401.614,644.33 400.691,644.506 399.652,644.705 397.055,646.758 395.756,647.784 394.515,648.8 394.342,648.833 390.592,647.996 386.439,647.236 384.593,647.589 382.227,648.042 379.379,649.724 377.989,650.589 376.772,651.42 374.464,651.862 362.358,651.429 352.303,651.081 347.909,651.564 347.032,651.672 346.398,651.794 M423.224,609.745 Q423.45,607.488 421.814,587.703 420.243,568.564 420.882,565.032 421.743,559.843 420.013,547.373 418.197,534.143 415.045,526.432 411.555,517.889 398.536,495.199 385.165,471.919 380.108,466.129 377.723,463.355 370.686,455.97 364.997,450.001 360.355,444.191 354.219,436.513 349.99,433.794 345.68,430.97 339.874,430.946 335.979,430.914 329.887,430.645 325.875,430.935 326.515,434.281 328.306,443.629 317.626,440.649 310.108,438.56 307.654,438.552 303.702,438.531 302.279,442.033 301.21,444.571 299.931,448.824 298.313,452.244 293.8,454.604 290.861,456.123 287.693,454.577 286.833,454.143 286.353,460.695 285.797,468.099 284.277,476.406 L282.885,483.192 Q282.997,487.837 282.758,498.769 282.564,508.377 285.719,519.855 289.569,533.713 296.782,543.577 297.181,544.099 314.921,567.08 326.231,581.783 330.49,589.341 333.669,595.013 339.16,602.755 342,608.121 344.099,611.679 M298.428,595.9 Q299.198,596.171 300.236,595.973 300.41,595.939 308.663,591.248 310.766,591.922 313.306,592.692 313.29,590.422 314.528,588.45 315.589,586.811 316.455,586.646 318.359,586.281 320.182,587.368 321.662,588.221 321.733,587.968 322.515,586.741 323.825,585.773 325.354,584.702 326.552,584.712 M341.929,648.761 Q305,624.909 299.14,596.183 L298.39,596.326 M472.431,614.318 Q474.937,599.602 476.431,584.601 477.935,569.658 478.704,554.617 479.208,545.069 480.254,535.538 481.945,520.319 480.18,505.165 479.736,501.601 478.854,498.241 475.148,483.578 474.663,468.238 474.463,463.133 475.794,458.212 476.779,454.614 477.718,451.084 480.257,453.409 481.519,456.876 491.47,484.161 494.739,512.785 495.254,517.352 495.308,522.007 495.349,529.716 495.563,537.391 495.724,544.478 494.434,551.485 491.78,566.05 488.735,580.45 484.676,599.232 472.431,614.318Z M474.121,541.617 Q470.579,539.364 466.926,539.346 465.844,539.314 462.035,540.043 459.9,540.452 459.273,542.487 458.657,544.579 455.253,545.23 453.002,545.661 447.952,546.15 443.454,546.712 441.001,547.96 434.939,550.975 429.188,552.495 427.652,552.909 422.69,553.859" test="Parrot"/>
      <path id="Layer2_0_4_STROKES" stroke="#0F0" stroke-width="2.35" stroke-linejoin="round" stroke-linecap="round" fill="none" d="M288.184,566.459 Q287.537,568.078 288.023,570.617 288.366,572.405 292.968,583.009 297.72,593.763 298.996,595.432" test="Parrot"/>
      <path id="Layer2_0_5_STROKES" stroke="#FF0" stroke-width="2.35" stroke-linejoin="round" stroke-linecap="round" fill="none" d="M284.413,527.403 L277.662,528.696 Q278.318,530.245 277.946,534.862 277.478,539.917 277.71,541.128 279.103,548.399 283.074,557.268 286.423,564.762 288.184,566.459 M477.899,688.161 Q488.834,679.666 487.96,668.23 487.553,662.984 486.894,657.667 468.364,658.045 462.286,664.413 461.445,672.829 466.182,678.202 470.989,683.622 473.04,684.964 475.103,686.364 477.899,688.161Z M479.856,657.459 Q479.923,645.005 467.19,646.606 464.915,647.221 463.188,648.509 459.213,652.739 462.913,662.379 M469.852,474.663 Q466.159,472.559 464.534,471.255 464.143,471.09 460.393,471.809 457.392,472.383 448.186,478.034 440.741,482.571 438.485,483.601 438.219,483.771 438.046,483.805 437.778,482.719 432.472,483.436 431.365,483.589 425.768,484.661 423.575,485.08 419.227,487.05 414.89,489.077 413.101,489.419 410.331,489.95 410.112,490.051 408.758,490.789 408.793,493.474 399.394,493.121 401.755,493.267 M438.485,483.601 Q438.752,483.43 438.444,483.07 437.77,482.362 438.046,483.805 M444.31,426.557 Q448.194,422.165 448.68,419.081 448.852,417.792 447.946,413.06 446.752,406.829 442.73,405.505 439.674,404.536 428.49,405.481 428.843,407.327 429.488,408.819 427.014,408.396 423.526,407.987 L419.776,408.705 Q421.652,410.38 423.173,411.763 420.399,411.337 417.813,410.636 L412.562,411.642 413.28,415.392 Q418.142,418.289 420.729,424.613 422.648,430.885 423.479,432.102 424.229,431.958 425.873,432.421 M407.296,432.868 Q406.022,420.91 403.34,417.834 401.034,415.165 393.953,415.983 L394.815,420.484 Q395.693,421.632 396.968,424.857 396.751,424.659 396.58,424.393 392.021,418.387 385.846,418.313 L386.984,424.256 Q386.002,423.188 384.857,422.211 381.172,419.208 377.451,419.143 L376.643,419.298 Q376.703,421.799 378.801,425.883 381.161,430.396 381.537,432.358 382.299,436.339 379.628,438.944 M364.083,434.923 Q362.178,419.975 346.287,394.785 339.497,384.002 333.571,377.421 327.199,370.386 324.199,370.961 319.929,371.779 318.979,372.439 315.758,374.671 316.432,381.002 313.466,380.194 306.249,380.619 300.076,381.802 299.272,388.535 298.754,392.702 298.611,393.208 297.902,395.437 295.824,395.835 295.017,395.99 286.249,394.559 284.979,394.802 283.563,398.961 282.028,403.442 280.328,404.246 276.29,406.276 270.455,408.29 266.395,410.204 265.204,414.919 263.993,415.151 261.838,415.145 259.695,415.196 259.06,415.318 L263.811,440.129 Q268.779,449.825 274.637,463.238 279.094,473.391 281.926,477.873" test="Parrot"/>
      <path id="Layer2_0_6_STROKES" stroke="#F0F" stroke-width="2.35" stroke-linejoin="round" stroke-linecap="round" fill="none" d="M477.718,451.084 L474.553,440.804 Q470.53,429.79 465.973,426.297 463.66,424.526 462.055,422.082 461.144,420.761 460.032,418.701 459.157,417.254 458.143,417.269 456.898,417.328 454.498,419.163 451.31,421.568 449.019,425.536 447.452,428.288 444.683,428.819 442.029,429.327 435.137,429.57 429.094,430.189 426.766,433.027 424.485,435.797 418.75,435.52 415.49,435.366 408.419,434.986 404.937,435.234 399.73,435.214 395.602,435.526 392.667,438.003 389.627,440.559 386.143,441.106 383.928,441.411 378.501,441.493 375.423,441.664 371.902,441.082 369.748,441.076 368.893,444.111 M275.925,479.022 Q275.866,493.389 276.142,503.266 276.309,511.01 277.088,525.695 M288.161,303.033 Q283.14,294.304 282.009,293.085 280.353,291.309 277.121,291.927 275.91,292.159 275.586,292.341 274.114,293.401 272.935,296.617 247.19,278.997 245.805,279.262 237.15,280.92 236.319,296.571 235.792,306.003 237.881,316.909 239.196,323.775 241.945,330.008 243.743,334.09 246.779,339.011" test="Parrot"/>
      <path id="Layer2_0_7_STROKES" stroke="#F60" stroke-width="2.35" stroke-linejoin="round" stroke-linecap="round" fill="none" d="M321.347,366.064 Q322.101,366.877 322.912,367.678 324.604,369.328 325.066,369.24 L324.347,365.489 Q321.225,356.995 306.628,332.933 289.371,304.356 283.601,305.461 281.12,305.936 276.394,311.866 272.082,317.776 271.967,317.798 270.986,317.986 268.073,317.766 265.102,317.557 264.179,317.734 261.351,318.276 259.665,324.461 258.512,328.749 258.526,331.318 252.005,332.567 249.357,336.544 246.721,340.578 243.316,341.23 243.813,343.826 244.515,349.674 245.273,355.51 245.384,356.087 246.389,361.338 251.968,372.352 258.296,384.778 259.139,387.309 260.49,391.237 261.596,398.263 262.653,405.657 263.161,408.311 L263.911,408.168" test="Parrot"/>
    </g>
    <g id="JuryBoxFront">
      <path fill="#000" stroke="none" d="M-3685.604,607.559 L-3721.507,565.618 -3724.485,773.228 Q-3711.319,773.229 -3692.849,773.228 L-3685.604,607.559 M1051.097,585.985 L1048.923,585.985 1020.185,614.24 1020.185,766.385 Q1037.064,766.412 1051.097,766.385 L1051.097,585.985 M775.062,605.305 Q655.117,608.042 535.413,614.884 413.939,620.761 292.384,621.485 167.77,622.21 43.156,622.049 -78.399,621.888 -199.954,621.485 -328.432,621.083 -456.91,619.553 -583.617,618.104 -710.243,616.011 -835.984,613 -961.725,617.219 -1086.178,620.358 -1210.712,627.12 -1331.864,632.353 -1453.258,630.501 -1581.092,628.489 -1708.846,620.6 -1827.905,612.63 -1947.448,610.94 -2066.427,609.33 -2185.486,610.376 -2313.24,611.503 -2440.993,613.435 -2569.23,615.448 -2697.386,617.38 -2824.656,619.312 -2952.088,621.405 -3076.058,623.498 -3200.109,624.464 -3323.676,625.43 -3447.565,623.015 -3566.947,620.68 -3685.604,607.559 L-3692.849,773.228 Q-3361.257,773.083 -1318.421,769.847 626.255,766.699 1020.185,766.385 L1020.185,614.24 Q897.905,602.568 775.062,605.305 M505.065,589.044 Q496.683,589.436 488.321,589.768 366.042,593.793 243.762,593.793 206.709,593.793 169.622,593.793 80.22,593.817 -9.249,593.874 -22.513,593.883 -35.814,593.874 -150.596,593.762 -265.481,592.103 -302.31,591.574 -339.138,590.493 -375.979,590.248 -412.876,589.929 -440.485,589.771 -468.18,589.527 -495.814,588.797 -523.483,588.4 -651.8,586.629 -780.198,585.341 -880.078,584.358 -979.918,588.722 -994.56,589.409 -1009.22,590.171 -1130.051,595.725 -1250.64,602.085 L-1508.32,603.373 Q-1637.603,597.174 -1766.725,589.205 -1883.692,581.074 -2001.383,579.947 -2128.653,578.659 -2255.763,580.43 -2379.894,582.201 -2504.186,584.697 -2621.152,587.112 -2738.199,589.607 -2857.178,592.103 -2976.319,594.035 -3101.818,596.047 -3227.639,594.437 -3349.516,592.908 -3471.232,584.858 -3596.49,577.371 -3721.507,565.618 L-3685.604,607.559 Q-3566.947,620.68 -3447.565,623.015 -3323.676,625.43 -3200.109,624.464 -3076.058,623.498 -2952.088,621.405 -2824.656,619.312 -2697.386,617.38 -2569.23,615.448 -2440.993,613.435 -2313.24,611.503 -2185.486,610.376 -2066.427,609.33 -1947.448,610.94 -1827.905,612.63 -1708.846,620.6 -1581.092,628.489 -1453.258,630.501 -1331.864,632.353 -1210.712,627.12 -1086.178,620.358 -961.725,617.219 -835.984,613 -710.243,616.011 -583.617,618.104 -456.91,619.553 -328.432,621.083 -199.954,621.485 -78.399,621.888 43.156,622.049 167.77,622.21 292.384,621.485 413.939,620.761 535.413,614.884 655.117,608.042 775.062,605.305 897.905,602.568 1020.185,614.24 L1048.923,585.985 1049.004,584.697 Q1019.399,582.03 989.756,579.384 967.058,577.268 944.353,575.761 847.81,569.64 750.912,575.439 628.119,583.958 505.065,589.044Z" test="JuryBoxFront" stroke-width="1.61"/>
      <path id="Layer1_0_1_STROKES" stroke="#F60" stroke-width="3.22" stroke-linejoin="round" stroke-linecap="round" fill="none" d="M1049.044,584.737 Q1019.399,582.03 989.756,579.384 967.058,577.268 944.353,575.801 847.81,569.64 750.912,575.439 628.119,583.958 505.065,589.084 496.683,589.436 488.321,589.768 366.042,593.793 243.762,593.793 206.709,593.793 169.662,593.793 80.22,593.817 -9.249,593.874 -22.513,593.883 -35.774,593.874 -150.596,593.762 -265.481,592.103 -302.31,591.574 -339.138,590.533 -375.979,590.248 -412.836,589.969 -440.485,589.771 -468.14,589.567 -495.814,588.797 -523.483,588.4 -651.8,586.629 -780.198,585.341 -880.078,584.358 -979.878,588.762 -994.56,589.409 -1009.22,590.171 -1130.051,595.725 -1250.64,602.085 L-1508.32,603.373 Q-1637.603,597.174 -1766.725,589.205 -1883.692,581.074 -2001.383,579.947 -2128.653,578.659 -2255.763,580.43 -2379.894,582.201 -2504.186,584.697 -2621.152,587.112 -2738.199,589.607 -2857.178,592.103 -2976.319,594.035 -3101.818,596.047 -3227.639,594.437 -3349.516,592.908 -3471.232,584.858 -3596.49,577.371 -3721.507,565.618 L-3685.604,607.559 Q-3566.947,620.68 -3447.565,623.015 -3323.676,625.43 -3200.109,624.464 -3076.058,623.498 -2952.088,621.405 -2824.656,619.312 -2697.386,617.38 -2569.23,615.448 -2440.993,613.435 -2313.24,611.503 -2185.486,610.376 -2066.427,609.33 -1947.448,610.94 -1827.905,612.63 -1708.846,620.6 -1581.092,628.489 -1453.258,630.501 -1331.864,632.353 -1210.712,627.12 -1086.178,620.358 -961.725,617.219 -835.984,613 -710.243,616.011 -583.617,618.104 -456.91,619.553 -328.432,621.083 -199.954,621.485 -78.399,621.888 43.156,622.049 167.77,622.21 292.384,621.485 413.939,620.761 535.413,614.884 655.117,608.042 775.062,605.305 897.905,602.568 1020.185,614.24 L1048.923,585.985 M1049.044,584.737 Q1050.069,584.845 1051.097,584.938 L1051.097,585.985 1051.097,766.385 1051.097,784.417 M1020.185,784.417 L1020.185,766.425 M-3692.849,773.228 L-3693.332,784.417 M1020.185,766.425 L1020.185,614.24 M-3724.646,784.417 L-3724.485,773.228 -3721.507,565.618 M-3685.604,607.559 L-3692.849,773.228" test="JuryBoxFront"/>
    </g>
  </g>
</svg>