<?xml version="1.0" encoding="utf-8"?>
<svg id="EdithAnim12" image-rendering="inherit" baseProfile="basic" version="1.1" x="0px" y="0px" width="800" height="600" xmlns="http://www.w3.org/2000/svg" xmlns:xlink="http://www.w3.org/1999/xlink">
  <g id="14_JurorParrotf125r1" overflow="visible">
    <g id="Parrot">
      <path id="Layer2_0_1_STROKES" stroke="#FFF" stroke-width="2.352" stroke-linejoin="round" stroke-linecap="round" fill="none" d="M355.65,736.886 Q351.411,735.774 348.036,731.812 343.94,727.041 346.586,720.697 349.232,714.353 352.947,711.478 356.654,708.661 360.832,709.35 365.069,710.047 367.764,712.907 370.517,715.775 370.71,720.014 370.868,724.07 369.377,727.605 367.992,730.798 366.499,732.611 365.055,734.491 362.434,735.439 359.863,736.453 355.65,736.886Z M357.052,723.134 Q357.532,723.971 358.389,724.206 359.306,724.45 359.364,724.458 359.713,724.506 360.169,724.212 361.278,723.473 360.701,721.615 360.201,720.063 358.549,720.431 357.386,720.687 357.1,721.479 356.846,722.038 356.814,722.271 356.692,722.729 357.052,723.134Z M407.715,741.025 Q405.121,740.909 402.224,736.479 399.371,732.173 400.343,726.788 401.299,721.519 404.191,718.59 407.017,715.713 411.137,716.394 415.307,717.141 418.211,720.207 421.499,723.504 420.72,727.907 419.602,733.925 417.07,737.259 413.591,741.887 407.715,741.025Z M406.345,728.022 Q406.658,728.777 407.407,728.938 408.265,729.174 408.323,729.182 408.556,729.214 409.004,728.978 409.989,728.282 409.446,726.606 408.988,725.179 407.627,725.586 406.647,725.809 406.369,726.542 406.189,726.992 406.157,727.225 405.985,727.617 406.345,728.022Z" test="Parrot"/>
      <path id="Layer2_0_2_STROKES" stroke="#F00" stroke-width="2.352" stroke-linejoin="round" stroke-linecap="round" fill="none" d="M335.378,698.044 Q331.978,696.868 331.121,696.632 330.263,696.396 328.515,696.158 326.01,695.816 321.144,698 M346.904,669.237 L345.279,668.541 Q343.362,667.805 341.906,667.606 341.032,667.487 338.363,668.784 335.884,669.988 335.339,670.507 M301.213,635.351 Q309.997,647.942 311.364,663.141 312.501,676.112 308.265,694.106 304.498,709.968 310.66,726.118 317.482,743.959 331.461,752.394 345.432,760.887 356.756,763.56 368.073,766.291 379.572,763.767 391.13,761.25 400.274,754.25 409.343,747.359 409.881,745.593 M423.087,664.92 Q425.686,649.788 434.944,638.473 M383.38,673.266 Q381.156,669.996 379.904,666.562 379.727,666.122 376.814,665.725 375.299,665.518 373.181,665.822 372.758,665.883 369.104,666.571" test="Parrot"/>
      <path id="Layer2_0_3_STROKES" stroke="#0FF" stroke-width="2.352" stroke-linejoin="round" stroke-linecap="round" fill="none" d="M428.535,645.43 L429.913,640.99 Q428.936,640.323 427.67,640.031 426.87,639.803 425.123,639.565 420.288,638.905 416.112,642.548 411.87,646.241 409.191,645.875 408.259,645.748 403.236,644.291 398.272,642.842 397.281,642.707 391.515,641.92 389.992,644.382 388.519,646.911 384.092,646.307 383.102,646.172 379.594,644.921 376.028,643.663 375.096,643.536 374.455,643.449 371.873,645.41 369.349,647.38 366.553,646.998 365.563,646.863 361.88,645.589 358.197,644.315 357.265,644.188 356.217,644.045 353.098,645.162 351.538,645.72 350.037,646.287 349.862,646.263 346.574,644.272 342.878,642.224 341.014,641.97 338.625,641.644 335.387,642.329 333.793,642.705 332.374,643.105 330.044,642.787 318.701,638.509 309.276,634.968 304.955,634.023 304.089,633.845 303.448,633.758 M389.738,618.418 Q390.673,616.351 395.441,597.065 400.064,578.412 401.798,575.266 404.272,570.62 406.614,558.242 409.117,545.115 408.591,536.795 408.01,527.578 402.911,501.902 397.666,475.554 394.72,468.447 393.343,465.055 389.028,455.803 385.54,448.325 382.993,441.332 379.626,432.091 376.484,428.161 373.299,424.107 367.8,422.229 364.117,420.955 358.424,418.755 354.527,417.748 354.066,421.126 352.778,430.563 343.602,424.326 337.139,419.944 334.814,419.152 331.073,417.87 328.605,420.737 326.781,422.802 324.209,426.426 321.582,429.153 316.549,429.95 313.276,430.452 310.766,427.974 310.088,427.288 307.541,433.348 304.649,440.193 300.554,447.585 L297.066,453.576 Q295.689,458.016 291.97,468.308 288.718,477.358 288.044,489.251 287.269,503.623 290.959,515.282 291.171,515.904 300.654,543.365 306.684,560.921 308.309,569.449 309.513,575.844 312.247,584.939 314.174,591.254 314.081,594.98 M275.808,565.429 Q276.451,565.932 277.5,566.075 277.674,566.099 287,564.286 288.779,565.597 290.942,567.138 291.652,564.98 293.455,563.506 294.986,562.291 295.86,562.41 297.782,562.672 299.164,564.285 300.294,565.567 300.443,565.35 301.576,564.436 303.128,563.936 304.92,563.409 306.054,563.801 M300.179,629.455 Q272.775,595.038 276.393,565.924 L275.636,565.821 M434.944,638.473 Q442.02,625.317 448.228,611.567 454.428,597.877 459.961,583.857 463.489,574.964 467.525,566.258 473.99,552.366 477.155,537.431 477.873,533.909 478.109,530.441 479.279,515.351 483.718,500.649 485.159,495.742 487.993,491.501 490.077,488.403 492.095,485.356 493.76,488.372 493.849,492.063 494.572,521.117 488.529,549.307 487.559,553.803 486.124,558.235 483.7,565.559 481.451,572.906 479.34,579.679 475.879,585.911 468.71,598.876 461.223,611.561 451.374,628.077 434.944,638.473Z M459.766,570.065 Q457.127,566.797 453.669,565.613 452.652,565.237 448.808,564.713 446.653,564.418 445.408,566.147 444.155,567.934 440.719,567.465 438.447,567.155 433.501,566.006 429.055,565.102 426.331,565.502 419.619,566.425 413.68,566.03 412.091,565.932 407.082,565.248" test="Parrot"/>
      <path id="Layer2_0_4_STROKES" stroke="#0F0" stroke-width="2.352" stroke-linejoin="round" stroke-linecap="round" fill="none" d="M275.496,534.235 Q274.366,535.564 274.016,538.127 273.769,539.933 274.748,551.459 275.819,563.176 276.496,565.167" test="Parrot"/>
      <path id="Layer2_0_5_STROKES" stroke="#FF0" stroke-width="2.352" stroke-linejoin="round" stroke-linecap="round" fill="none" d="M284.395,495.992 L277.579,495.062 Q277.706,496.741 275.879,501.001 273.821,505.645 273.654,506.868 272.652,514.207 273.586,523.888 274.369,532.064 275.496,534.235 M416.544,710.249 Q429.627,705.686 432.451,694.56 433.741,689.455 434.814,684.202 417.12,678.642 409.321,682.74 405.836,690.453 408.613,697.062 411.44,703.737 412.957,705.665 414.466,707.651 416.544,710.249Z M428.205,681.757 Q432.247,669.967 419.66,667.419 417.306,667.276 415.257,667.945 410.136,670.688 410.566,681.011 M477.103,505.205 Q474.273,502.03 473.148,500.274 472.831,499.993 469.044,499.477 466.015,499.063 455.48,501.482 446.969,503.406 444.502,503.662 444.195,503.739 444.02,503.715 444.113,502.601 438.852,501.586 437.753,501.377 432.102,500.606 429.889,500.303 425.136,500.782 420.375,501.319 418.57,501.073 415.774,500.691 415.533,500.717 414.013,500.985 413.189,503.542 404.388,500.205 406.581,501.098 M444.502,503.662 Q444.809,503.586 444.631,503.146 444.219,502.259 444.02,503.715 M468.245,451.425 Q473.332,448.5 474.778,445.73 475.352,444.563 476.004,439.786 476.863,433.495 473.471,430.955 470.882,429.059 459.974,426.384 459.719,428.248 459.854,429.868 457.643,428.677 454.466,427.175 L450.68,426.658 Q451.924,428.845 452.925,430.643 450.431,429.354 448.201,427.863 L442.901,427.139 442.384,430.925 Q446.069,435.226 446.503,442.049 446.319,448.61 446.719,450.03 447.476,450.133 448.887,451.097 M431.126,445.587 Q433.739,433.84 432.177,430.066 430.843,426.799 423.866,425.313 L423.246,429.856 Q423.712,431.225 423.891,434.691 423.748,434.434 423.672,434.127 421.266,426.975 415.433,424.933 L414.614,430.933 Q414.024,429.606 413.251,428.314 410.715,424.289 407.207,423.039 L406.391,422.928 Q405.649,425.318 406.335,429.862 407.131,434.896 406.861,436.876 406.312,440.895 402.947,442.513 M389.489,433.734 Q392.456,418.949 385.432,389.984 382.437,377.59 378.919,369.455 375.123,360.749 372.094,360.336 367.783,359.747 366.671,360.07 362.903,361.158 361.52,367.378 358.965,365.664 351.986,363.762 345.753,362.912 342.84,369.041 341.018,372.827 340.721,373.261 339.336,375.149 337.239,374.863 336.424,374.751 328.566,370.593 327.284,370.419 324.612,373.911 321.726,377.67 319.857,377.89 315.379,378.525 309.202,378.572 304.74,379.09 302.105,383.181 300.882,383.014 298.841,382.32 296.791,381.684 296.151,381.597 L292.732,406.644 Q294.346,417.426 295.618,432.018 296.602,443.07 297.856,448.225" test="Parrot"/>
      <path id="Layer2_0_6_STROKES" stroke="#F0F" stroke-width="2.352" stroke-linejoin="round" stroke-linecap="round" fill="none" d="M492.095,485.356 L492.377,474.595 Q492.079,462.866 488.873,458.097 487.245,455.679 486.504,452.849 486.062,451.305 485.665,448.996 485.297,447.344 484.331,447.034 483.131,446.692 480.269,447.666 476.477,448.929 473.037,451.96 470.673,454.07 467.877,453.689 465.197,453.323 458.583,451.352 452.655,450.009 449.541,451.957 446.493,453.856 441.142,451.761 438.1,450.574 431.515,447.955 428.134,447.078 423.202,445.396 419.188,444.373 415.613,445.784 411.914,447.237 408.435,446.644 406.237,446.225 401.064,444.57 398.09,443.749 394.937,442.072 392.896,441.378 391.116,443.984 M291.798,447.398 Q287.152,461.005 284.26,470.46 281.945,477.857 277.993,492.033 M359.613,284.404 Q357.639,274.523 356.956,273.005 355.953,270.792 352.691,270.346 351.467,270.179 351.102,270.248 349.368,270.783 347.223,273.457 328.434,248.523 327.036,248.333 318.299,247.14 312.512,261.718 309,270.495 307.497,281.504 306.551,288.436 307.167,295.225 307.569,299.671 308.877,305.308" test="Parrot"/>
      <path id="Layer2_0_7_STROKES" stroke="#F60" stroke-width="2.352" stroke-linejoin="round" stroke-linecap="round" fill="none" d="M370.953,354.781 Q371.408,355.792 371.922,356.812 372,358.917 373.465,358.98 L373.982,355.194 Q373.734,346.141 367.576,318.659 360.338,286.046 354.513,285.251 352.008,284.909 345.632,289.023 339.656,293.251 339.539,293.235 338.549,293.1 335.856,291.961 333.105,290.814 332.173,290.687 329.319,290.297 325.744,295.624 323.281,299.323 322.473,301.764 315.891,300.866 312.11,303.791 308.32,306.775 304.884,306.306 304.526,308.927 303.323,314.696 302.179,320.473 302.099,321.056 301.376,326.357 303.148,338.584 305.18,352.39 305.172,355.059 305.198,359.216 304.003,366.232 302.644,373.582 302.278,376.262 L303.035,376.365" test="Parrot"/>
    </g>
    <g id="JuryBoxFront">
      <path fill="#000" stroke="none" d="M-3685.654,607.559 L-3721.557,565.618 -3724.535,773.228 Q-3711.369,773.229 -3692.899,773.228 L-3685.654,607.559 M1051.047,585.985 L1048.873,585.985 1020.135,614.24 1020.135,766.385 Q1037.014,766.412 1051.047,766.385 L1051.047,585.985 M775.012,605.305 Q655.067,608.042 535.363,614.884 413.889,620.761 292.334,621.485 167.72,622.21 43.106,622.049 -78.449,621.888 -200.004,621.485 -328.482,621.083 -456.96,619.553 -583.667,618.104 -710.293,616.011 -836.034,613 -961.775,617.219 -1086.228,620.358 -1210.762,627.12 -1331.914,632.353 -1453.308,630.501 -1581.142,628.489 -1708.896,620.6 -1827.955,612.63 -1947.498,610.94 -2066.477,609.33 -2185.536,610.376 -2313.29,611.503 -2441.043,613.435 -2569.28,615.448 -2697.436,617.38 -2824.706,619.312 -2952.138,621.405 -3076.108,623.498 -3200.158,624.464 -3323.726,625.43 -3447.615,623.015 -3566.997,620.68 -3685.654,607.559 L-3692.899,773.228 Q-3361.307,773.083 -1318.471,769.847 626.205,766.699 1020.135,766.385 L1020.135,614.24 Q897.855,602.568 775.012,605.305 M505.015,589.044 Q496.633,589.436 488.271,589.768 365.992,593.793 243.712,593.793 206.659,593.793 169.572,593.793 80.17,593.817 -9.299,593.874 -22.563,593.883 -35.864,593.874 -150.646,593.762 -265.531,592.103 -302.36,591.574 -339.188,590.493 -376.029,590.248 -412.926,589.929 -440.535,589.771 -468.23,589.527 -495.864,588.797 -523.533,588.4 -651.85,586.629 -780.248,585.341 -880.128,584.358 -979.968,588.722 -994.61,589.409 -1009.27,590.171 -1130.101,595.725 -1250.69,602.085 L-1508.37,603.373 Q-1637.653,597.174 -1766.775,589.205 -1883.742,581.074 -2001.433,579.947 -2128.703,578.659 -2255.813,580.43 -2379.944,582.201 -2504.236,584.697 -2621.202,587.112 -2738.249,589.607 -2857.228,592.103 -2976.368,594.035 -3101.868,596.047 -3227.69,594.437 -3349.566,592.908 -3471.283,584.858 -3596.54,577.371 -3721.557,565.618 L-3685.654,607.559 Q-3566.997,620.68 -3447.615,623.015 -3323.726,625.43 -3200.158,624.464 -3076.108,623.498 -2952.138,621.405 -2824.706,619.312 -2697.436,617.38 -2569.28,615.448 -2441.043,613.435 -2313.29,611.503 -2185.536,610.376 -2066.477,609.33 -1947.498,610.94 -1827.955,612.63 -1708.896,620.6 -1581.142,628.489 -1453.308,630.501 -1331.914,632.353 -1210.762,627.12 -1086.228,620.358 -961.775,617.219 -836.034,613 -710.293,616.011 -583.667,618.104 -456.96,619.553 -328.482,621.083 -200.004,621.485 -78.449,621.888 43.106,622.049 167.72,622.21 292.334,621.485 413.889,620.761 535.363,614.884 655.067,608.042 775.012,605.305 897.855,602.568 1020.135,614.24 L1048.873,585.985 1048.954,584.697 Q1019.349,582.03 989.706,579.384 967.008,577.268 944.304,575.761 847.76,569.64 750.862,575.439 628.069,583.958 505.015,589.044Z" test="JuryBoxFront" stroke-width="1.61"/>
      <path id="Layer1_0_1_STROKES" stroke="#F60" stroke-width="3.22" stroke-linejoin="round" stroke-linecap="round" fill="none" d="M1048.994,584.737 Q1019.349,582.03 989.706,579.384 967.008,577.268 944.304,575.801 847.76,569.64 750.862,575.439 628.069,583.958 505.015,589.084 496.633,589.436 488.271,589.768 365.992,593.793 243.712,593.793 206.659,593.793 169.612,593.793 80.17,593.817 -9.299,593.874 -22.563,593.883 -35.824,593.874 -150.646,593.762 -265.531,592.103 -302.36,591.574 -339.188,590.533 -376.029,590.248 -412.886,589.969 -440.535,589.771 -468.19,589.567 -495.864,588.797 -523.533,588.4 -651.85,586.629 -780.248,585.341 -880.128,584.358 -979.928,588.762 -994.61,589.409 -1009.27,590.171 -1130.101,595.725 -1250.69,602.085 L-1508.37,603.373 Q-1637.653,597.174 -1766.775,589.205 -1883.742,581.074 -2001.433,579.947 -2128.703,578.659 -2255.813,580.43 -2379.944,582.201 -2504.236,584.697 -2621.202,587.112 -2738.249,589.607 -2857.228,592.103 -2976.368,594.035 -3101.868,596.047 -3227.69,594.437 -3349.566,592.908 -3471.283,584.858 -3596.54,577.371 -3721.557,565.618 L-3685.654,607.559 Q-3566.997,620.68 -3447.615,623.015 -3323.726,625.43 -3200.158,624.464 -3076.108,623.498 -2952.138,621.405 -2824.706,619.312 -2697.436,617.38 -2569.28,615.448 -2441.043,613.435 -2313.29,611.503 -2185.536,610.376 -2066.477,609.33 -1947.498,610.94 -1827.955,612.63 -1708.896,620.6 -1581.142,628.489 -1453.308,630.501 -1331.914,632.353 -1210.762,627.12 -1086.228,620.358 -961.775,617.219 -836.034,613 -710.293,616.011 -583.667,618.104 -456.96,619.553 -328.482,621.083 -200.004,621.485 -78.449,621.888 43.106,622.049 167.72,622.21 292.334,621.485 413.889,620.761 535.363,614.884 655.067,608.042 775.012,605.305 897.855,602.568 1020.135,614.24 L1048.873,585.985 M1048.994,584.737 Q1050.019,584.845 1051.047,584.938 L1051.047,585.985 1051.047,766.385 1051.047,784.417 M1020.135,784.417 L1020.135,766.425 M-3692.899,773.228 L-3693.382,784.417 M1020.135,766.425 L1020.135,614.24 M-3724.696,784.417 L-3724.535,773.228 -3721.557,565.618 M-3685.654,607.559 L-3692.899,773.228" test="JuryBoxFront"/>
    </g>
  </g>
</svg>