<?xml version="1.0" encoding="utf-8"?>
<svg id="EdithAnim12" image-rendering="inherit" baseProfile="basic" version="1.1" x="0px" y="0px" width="800" height="600" xmlns="http://www.w3.org/2000/svg" xmlns:xlink="http://www.w3.org/1999/xlink">
  <g id="14_JurorParrotf127r1" overflow="visible">
    <g id="Parrot">
      <path id="Layer2_0_1_STROKES" stroke="#FFF" stroke-width="2.349" stroke-linejoin="round" stroke-linecap="round" fill="none" d="M215.839,666.488 Q213.348,662.888 213.364,657.69 213.361,651.409 219.492,648.319 225.622,645.228 230.309,645.464 234.951,645.738 237.671,648.977 240.43,652.26 240.615,656.181 240.838,660.145 238.228,663.485 235.711,666.664 232.282,668.374 229.156,669.895 226.844,670.299 224.528,670.786 221.924,669.8 219.315,668.897 215.839,666.488Z M225.843,656.971 Q225.663,657.917 226.16,658.654 226.696,659.434 226.735,659.478 226.969,659.742 227.505,659.815 228.827,659.976 229.598,658.191 230.227,656.69 228.735,655.894 227.687,655.333 226.955,655.748 226.4,656.006 226.224,656.162 225.834,656.43 225.843,656.971Z M252.627,703.477 Q250.735,701.701 251.419,696.459 252.055,691.339 256.294,687.887 260.444,684.514 264.541,684.174 268.554,683.829 271.236,687.024 273.912,690.302 274.12,694.515 274.47,699.153 271.017,701.985 266.256,705.821 262.169,706.703 256.522,707.95 252.627,703.477Z M260.042,692.726 Q259.788,693.501 260.251,694.111 260.749,694.848 260.788,694.892 260.944,695.067 261.436,695.179 262.636,695.292 263.314,693.668 263.895,692.288 262.598,691.713 261.71,691.244 261.023,691.619 260.594,691.844 260.418,692 260.033,692.185 260.042,692.726Z" test="Parrot"/>
      <path id="Layer2_0_2_STROKES" stroke="#F00" stroke-width="2.349" stroke-linejoin="round" stroke-linecap="round" fill="none" d="M225.721,623.855 Q223.908,620.753 223.411,620.016 222.913,619.28 221.743,617.963 220.066,616.075 214.956,614.567 M253.19,609.506 L252.41,607.921 Q251.435,606.116 250.46,605.019 249.875,604.36 247.008,603.608 244.346,602.91 243.595,602.949 M240.575,554.105 Q239.049,569.363 230.205,581.776 222.633,592.351 207.723,603.241 194.553,612.82 188.726,629.072 182.299,647.035 187.414,662.52 192.487,678.043 199.336,687.433 206.14,696.861 216.502,702.423 226.902,708.029 238.386,708.666 249.743,709.338 251.299,708.348 M313.763,655.762 Q325.572,645.978 339.949,643.418 M278.228,636.275 Q278.668,632.35 279.952,628.932 280.103,628.483 278.153,626.288 277.139,625.147 275.335,624 274.974,623.771 271.756,621.917" test="Parrot"/>
      <path id="Layer2_0_3_STROKES" stroke="#0FF" stroke-width="2.349" stroke-linejoin="round" stroke-linecap="round" fill="none" d="M330.566,644.527 L334.497,642.055 Q334.19,640.914 333.42,639.87 332.962,639.178 331.792,637.861 328.555,634.217 323.02,634.264 317.402,634.307 315.608,632.287 314.984,631.585 312.123,627.215 309.301,622.888 308.638,622.142 304.777,617.796 302.021,618.673 299.261,619.633 296.297,616.296 295.634,615.55 293.786,612.321 291.9,609.049 291.276,608.346 290.847,607.863 287.614,607.672 284.42,607.525 282.548,605.418 281.885,604.671 279.921,601.311 277.956,597.95 277.332,597.248 276.63,596.458 273.539,595.277 271.993,594.686 270.486,594.14 270.369,594.008 269.171,590.36 267.699,586.405 266.451,585 264.852,583.2 261.951,581.614 260.498,580.863 259.162,580.243 257.602,578.487 251.783,567.869 246.938,559.056 244.276,555.53 243.735,554.832 243.306,554.349 M318.709,598.82 Q320.763,597.86 336.917,586.337 352.549,575.198 355.91,573.941 360.806,572.026 370.63,564.163 381.063,555.837 386.073,549.186 391.625,541.819 404.452,519.035 417.606,495.646 419.992,488.341 421.154,484.874 423.897,475.054 426.114,467.115 428.729,460.157 432.185,450.961 432.357,445.938 432.578,440.794 429.629,435.794 427.664,432.434 424.779,427.064 422.478,423.767 419.932,426.029 412.82,432.347 409.917,421.652 407.866,414.127 406.618,412.015 404.615,408.61 400.879,409.18 398.153,409.559 393.847,410.636 390.082,410.996 385.748,408.327 382.939,406.58 382.648,403.069 382.58,402.108 376.707,405.047 370.065,408.357 362.154,411.3 L355.614,413.575 Q351.683,416.047 342.172,421.433 333.822,426.18 325.578,434.76 315.646,445.154 310.864,456.393 310.62,457.003 299.957,483.992 293.116,501.223 288.803,508.747 285.558,514.378 281.718,523.053 279.073,529.094 276.58,531.858 M266.772,484.567 Q266.933,485.367 267.635,486.157 267.752,486.289 276.002,490.978 276.499,493.129 277.137,495.704 279.078,494.529 281.404,494.583 283.355,494.657 283.939,495.315 285.227,496.764 285.226,498.885 285.25,500.592 285.503,500.524 286.957,500.568 288.458,501.198 290.16,501.964 290.765,502.998 M243.624,548.961 Q245.222,505.048 266.894,485.323 L266.387,484.753 M339.949,643.418 Q353.868,638.043 367.514,631.653 381.117,625.303 394.427,618.27 402.884,613.82 411.605,609.843 425.539,603.512 437.65,594.246 440.484,592.042 442.918,589.566 453.615,578.884 466.54,570.622 470.823,567.839 475.729,566.465 479.323,565.471 482.835,564.472 482.136,567.842 479.804,570.699 461.462,593.199 438.552,610.646 434.894,613.424 430.924,615.852 424.325,619.829 417.843,623.938 411.838,627.701 405.162,630.177 391.296,635.347 377.372,640.097 359.166,646.217 339.949,643.418Z M403.247,607.685 Q403.37,603.492 401.518,600.346 400.991,599.4 398.417,596.502 396.974,594.878 394.906,595.38 392.795,595.92 390.494,593.33 388.973,591.618 385.97,587.531 383.186,583.955 380.861,582.487 375.171,578.823 370.924,574.662 369.784,573.555 366.43,569.779" test="Parrot"/>
      <path id="Layer2_0_4_STROKES" stroke="#0F0" stroke-width="2.349" stroke-linejoin="round" stroke-linecap="round" fill="none" d="M286.817,460.712 Q285.095,460.985 283.164,462.701 281.803,463.91 275.051,473.285 268.245,482.866 267.465,484.816" test="Parrot"/>
      <path id="Layer2_0_5_STROKES" stroke="#FF0" stroke-width="2.349" stroke-linejoin="round" stroke-linecap="round" fill="none" d="M318.428,437.499 L313.865,432.363 Q312.87,433.718 308.715,435.76 304.135,437.944 303.213,438.763 297.682,443.677 292.096,451.624 287.373,458.333 286.817,460.712 M279.331,685.88 Q292.218,690.926 301.593,684.326 305.89,681.294 310.119,678.008 300.317,662.288 291.739,660.325 284.082,663.908 281.891,670.724 279.694,677.624 279.591,680.072 279.444,682.559 279.331,685.88Z M306.697,671.858 Q317.427,665.546 309.54,655.43 307.848,653.791 305.859,652.966 300.193,651.716 293.807,659.824 M458.562,569.776 Q458.481,565.529 458.769,563.466 458.711,563.046 456.176,560.193 454.148,557.91 444.586,552.894 436.882,548.82 434.844,547.41 434.561,547.269 434.445,547.137 435.24,546.352 431.91,542.162 431.213,541.289 427.43,537.031 425.948,535.363 422.033,532.636 418.074,529.948 416.865,528.587 414.993,526.479 414.793,526.343 413.467,525.557 411.179,526.961 406.676,518.709 407.758,520.811 M434.844,547.41 Q435.127,547.552 435.278,547.103 435.542,546.162 434.445,547.137 M486.811,523.237 Q492.57,524.326 495.467,523.167 496.662,522.655 500.261,519.457 505.003,515.245 504.082,511.114 503.352,507.993 496.82,498.872 495.415,500.12 494.463,501.436 493.562,499.095 492.129,495.891 L489.594,493.038 Q489.116,495.505 488.705,497.519 487.653,494.92 486.932,492.34 L483.383,488.345 480.529,490.88 Q480.528,496.536 476.42,501.992 472.015,506.848 471.395,508.184 471.902,508.755 472.346,510.403 M462.461,494.678 Q472.079,487.469 473.348,483.592 474.461,480.247 470.137,474.584 L466.713,477.626 Q466.176,478.967 464.059,481.712 464.117,481.424 464.259,481.141 467.084,474.154 463.989,468.814 L459.468,472.831 Q459.883,471.441 460.136,469.958 460.83,465.258 458.983,462.029 L458.437,461.414 Q456.32,462.745 453.886,466.636 451.217,470.97 449.724,472.296 446.695,474.987 443.092,474.025 M438.595,458.619 Q450.458,449.338 463.963,422.808 469.75,411.462 472.371,403.007 475.153,393.937 473.125,391.654 470.239,388.406 469.186,387.928 465.622,386.303 460.53,390.12 459.706,387.159 455.651,381.179 451.478,376.482 445.284,379.236 441.441,380.922 440.933,381.058 438.656,381.589 437.252,380.009 436.706,379.394 433.451,371.132 432.593,370.167 428.296,371.077 423.663,372.051 422.103,371.002 418.295,368.573 413.581,364.592 409.861,362.085 405.203,363.473 404.384,362.551 403.287,360.698 402.147,358.883 401.718,358.4 L382.841,375.17 Q377.054,384.395 368.532,396.287 362.092,405.307 359.692,410.031" test="Parrot"/>
      <path id="Layer2_0_6_STROKES" stroke="#F0F" stroke-width="2.349" stroke-linejoin="round" stroke-linecap="round" fill="none" d="M482.835,564.472 L490.044,556.496 Q497.445,547.409 498.114,541.708 498.452,538.816 499.73,536.188 500.399,534.73 501.599,532.722 502.394,531.23 501.863,530.366 501.175,529.327 498.372,528.205 494.676,526.697 490.097,526.759 486.932,526.822 485.06,524.714 483.266,522.695 479.532,516.901 475.91,512.028 472.282,511.481 468.737,510.939 466.042,505.871 464.506,502.993 461.216,496.726 459.223,493.863 456.576,489.381 454.197,485.996 450.569,484.741 446.82,483.438 444.568,480.726 443.173,478.98 440.327,474.361 438.606,471.805 437.305,468.484 436.208,466.631 433.165,467.449 M355.636,405.466 Q343.267,412.762 334.926,418.051 328.361,422.155 316.148,430.335 M513.029,325.964 Q517.957,317.187 518.426,315.593 519.104,313.262 516.92,310.804 516.101,309.882 515.779,309.696 514.117,308.974 510.752,309.607 512.716,278.486 511.78,277.432 505.93,270.847 492.064,278.138 483.694,282.51 475.397,289.881 470.173,294.522 466.227,300.071 463.641,303.703 460.967,308.828" test="Parrot"/>
      <path id="Layer2_0_7_STROKES" stroke="#F60" stroke-width="2.349" stroke-linejoin="round" stroke-linecap="round" fill="none" d="M475.872,386.701 Q475.56,387.764 475.287,388.871 474.735,391.167 475.047,391.518 L477.9,388.983 Q483.598,381.958 496.796,357.116 512.512,327.68 508.612,323.29 506.935,321.403 499.425,320.376 492.145,319.696 492.067,319.609 491.404,318.862 490.102,316.248 488.762,313.59 488.138,312.888 486.227,310.737 480.053,312.451 475.781,313.655 473.581,314.98 469.174,310.02 464.405,309.779 459.592,309.578 457.291,306.988 455.315,308.743 450.652,312.336 446.028,315.972 445.589,316.362 441.594,319.911 434.989,330.336 427.553,342.125 425.812,344.143 423.129,347.312 417.661,351.856 411.852,356.545 409.832,358.339 L410.339,358.91" test="Parrot"/>
    </g>
    <g id="JuryBoxFront">
      <path fill="#000" stroke="none" d="M-3685.754,607.659 L-3721.657,565.718 -3724.636,773.328 Q-3711.469,773.329 -3692,773.328 L-3685.754,607.659 M1050.947,586.085 L1048.773,586.085 1020.035,614.34 1020.035,766.485 Q1036.914,766.512 1050.947,766.485 L1050.947,586.085 M774.912,605.405 Q654.967,608.142 535.263,614.984 413.789,620.861 292.234,621.585 167.62,622.31 43.006,622.149 -78.549,621.988 -200.104,621.585 -328.582,621.183 -457.06,619.653 -583.767,618.204 -710.393,616.111 -836.135,614.099 -961.875,617.319 -1086.328,620.458 -1210.862,627.22 -1332.014,632.453 -1453.408,630.601 -1581.242,628.589 -1708.996,620.7 -1828.055,612.73 -1947.598,611.04 -2066.577,609.43 -2185.636,610.476 -2313.39,611.603 -2441.143,613.535 -2569.38,615.548 -2697.536,617.48 -2824.806,619.412 -2952.238,621.505 -3076.208,623.598 -3200.258,624.564 -3323.826,625.53 -3447.716,623.115 -3567.097,620.78 -3685.754,607.659 L-3692,773.328 Q-3361.407,773.183 -1318.571,769.947 626.105,766.799 1020.035,766.485 L1020.035,614.34 Q897.755,602.668 774.912,605.405 M504.915,589.144 Q496.533,589.536 488.171,589.868 365.892,593.893 243.612,593.893 206.559,593.893 169.472,593.893 80.07,593.917 -9.399,593.974 -22.663,593.983 -35.965,593.974 -150.746,593.862 -265.631,592.203 -302.46,591.674 -339.289,590.593 -376.129,590.348 -413.026,590.029 -440.635,589.871 -468.33,589.627 -495.964,588.897 -523.633,588.5 -651.95,586.729 -780.348,585.441 -880.228,584.458 -980.069,588.822 -994.71,589.509 -1009.37,590.271 -1130.201,595.825 -1250.79,602.185 L-1508.471,603.473 Q-1637.753,597.274 -1766.875,589.305 -1883.842,581.174 -2001.533,580.047 -2128.803,578.759 -2255.913,580.53 -2380.044,582.301 -2504.336,584.797 -2621.303,587.212 -2738.35,589.707 -2857.328,592.203 -2976.468,594.135 -3101.968,596.147 -3227.79,594.537 -3349.667,593.008 -3471.382,584.958 -3596.641,577.471 -3721.657,565.718 L-3685.754,607.659 Q-3567.097,620.78 -3447.716,623.115 -3323.826,625.53 -3200.258,624.564 -3076.208,623.598 -2952.238,621.505 -2824.806,619.412 -2697.536,617.48 -2569.38,615.548 -2441.143,613.535 -2313.39,611.603 -2185.636,610.476 -2066.577,609.43 -1947.598,611.04 -1828.055,612.73 -1708.996,620.7 -1581.242,628.589 -1453.408,630.601 -1332.014,632.453 -1210.862,627.22 -1086.328,620.458 -961.875,617.319 -836.135,614.099 -710.393,616.111 -583.767,618.204 -457.06,619.653 -328.582,621.183 -200.104,621.585 -78.549,621.988 43.006,622.149 167.62,622.31 292.234,621.585 413.789,620.861 535.263,614.984 654.967,608.142 774.912,605.405 897.755,602.668 1020.035,614.34 L1048.773,586.085 1048.854,584.797 Q1019.249,582.13 989.605,579.484 966.908,577.368 944.203,575.861 847.66,569.74 750.762,575.539 627.969,584.058 504.915,589.144Z" test="JuryBoxFront" stroke-width="1.61"/>
      <path id="Layer1_0_1_STROKES" stroke="#F60" stroke-width="3.22" stroke-linejoin="round" stroke-linecap="round" fill="none" d="M1048.894,584.837 Q1019.249,582.13 989.605,579.484 966.908,577.368 944.203,575.901 847.66,569.74 750.762,575.539 627.969,584.058 504.915,589.184 496.533,589.536 488.171,589.868 365.892,593.893 243.612,593.893 206.559,593.893 169.512,593.893 80.07,593.917 -9.399,593.974 -22.663,593.983 -35.924,593.974 -150.746,593.862 -265.631,592.203 -302.46,591.674 -339.289,590.633 -376.129,590.348 -412.986,590.069 -440.635,589.871 -468.29,589.667 -495.964,588.897 -523.633,588.5 -651.95,586.729 -780.348,585.441 -880.228,584.458 -980.028,588.862 -994.71,589.509 -1009.37,590.271 -1130.201,595.825 -1250.79,602.185 L-1508.471,603.473 Q-1637.753,597.274 -1766.875,589.305 -1883.842,581.174 -2001.533,580.047 -2128.803,578.759 -2255.913,580.53 -2380.044,582.301 -2504.336,584.797 -2621.303,587.212 -2738.35,589.707 -2857.328,592.203 -2976.468,594.135 -3101.968,596.147 -3227.79,594.537 -3349.667,593.008 -3471.382,584.958 -3596.641,577.471 -3721.657,565.718 L-3685.754,607.659 Q-3567.097,620.78 -3447.716,623.115 -3323.826,625.53 -3200.258,624.564 -3076.208,623.598 -2952.238,621.505 -2824.806,619.412 -2697.536,617.48 -2569.38,615.548 -2441.143,613.535 -2313.39,611.603 -2185.636,610.476 -2066.577,609.43 -1947.598,611.04 -1828.055,612.73 -1708.996,620.7 -1581.242,628.589 -1453.408,630.601 -1332.014,632.453 -1210.862,627.22 -1086.328,620.458 -961.875,617.319 -836.135,614.099 -710.393,616.111 -583.767,618.204 -457.06,619.653 -328.582,621.183 -200.104,621.585 -78.549,621.988 43.006,622.149 167.62,622.31 292.234,621.585 413.789,620.861 535.263,614.984 654.967,608.142 774.912,605.405 897.755,602.668 1020.035,614.34 L1048.773,586.085 M1048.894,584.837 Q1049.919,584.945 1050.947,585.038 L1050.947,586.085 1050.947,766.485 1050.947,784.517 M1020.035,784.517 L1020.035,766.525 M-3692,773.328 L-3693.482,784.517 M1020.035,766.525 L1020.035,614.34 M-3724.797,784.517 L-3724.636,773.328 -3721.657,565.718 M-3685.754,607.659 L-3692,773.328" test="JuryBoxFront"/>
    </g>
  </g>
</svg>