<?xml version="1.0" encoding="utf-8"?>
<svg id="EdithAnim12" image-rendering="inherit" baseProfile="basic" version="1.1" x="0px" y="0px" width="800" height="600" xmlns="http://www.w3.org/2000/svg" xmlns:xlink="http://www.w3.org/1999/xlink">
  <g id="14_JurorParrotf128r1" overflow="visible">
    <g id="Parrot">
      <path id="Layer2_0_1_STROKES" stroke="#FFF" stroke-width="2.349" stroke-linejoin="round" stroke-linecap="round" fill="none" d="M170.841,594.31 Q169.866,590.043 171.812,585.222 174.143,579.389 180.983,578.798 187.823,578.207 192.087,580.167 196.295,582.146 197.618,586.164 198.96,590.237 197.674,593.946 196.408,597.71 192.744,599.841 189.226,601.857 185.407,602.172 181.939,602.422 179.643,601.938 177.311,601.53 175.26,599.647 173.173,597.84 170.841,594.31Z M183.666,589.192 Q183.146,590.003 183.334,590.872 183.542,591.796 183.562,591.851 183.682,592.182 184.152,592.45 185.319,593.09 186.698,591.72 187.841,590.559 186.751,589.267 185.986,588.356 185.153,588.469 184.541,588.502 184.32,588.582 183.858,588.686 183.666,589.192Z M191.255,642.322 Q190.158,639.971 192.741,635.358 195.233,630.84 200.451,629.21 205.559,627.62 209.488,628.826 213.343,629.997 214.645,633.96 215.913,637.997 214.541,641.987 213.142,646.423 208.884,647.77 203.038,649.563 198.916,648.863 193.209,647.922 191.255,642.322Z M202.134,635.096 Q201.61,635.721 201.814,636.459 202.002,637.328 202.022,637.383 202.101,637.604 202.517,637.891 203.589,638.441 204.822,637.186 205.874,636.12 204.884,635.104 204.234,634.339 203.456,634.432 202.974,634.481 202.753,634.561 202.326,634.589 202.134,635.096Z" test="Parrot"/>
      <path id="Layer2_0_2_STROKES" stroke="#F00" stroke-width="2.349" stroke-linejoin="round" stroke-linecap="round" fill="none" d="M195.856,558.399 Q195.325,554.845 195.137,553.976 194.949,553.108 194.352,551.45 193.496,549.074 189.312,545.775 M226.691,555.282 L226.556,553.52 Q226.322,551.483 225.824,550.101 225.526,549.273 223.143,547.509 220.93,545.872 220.219,545.629 M235.563,499.156 Q228.477,512.756 215.653,520.996 204.694,528.001 186.804,532.572 171.017,536.573 159.569,549.498 146.927,563.788 145.924,580.066 144.866,596.363 147.736,607.626 150.552,618.908 158.105,627.922 165.678,636.991 176.104,641.849 186.4,646.692 188.212,646.352 M265.746,620.735 Q280.345,616.038 294.645,619.002 M239.993,589.439 Q241.86,585.958 244.322,583.261 244.629,582.901 243.634,580.138 243.116,578.702 241.867,576.967 241.618,576.62 239.319,573.703" test="Parrot"/>
      <path id="Layer2_0_3_STROKES" stroke="#0FF" stroke-width="2.349" stroke-linejoin="round" stroke-linecap="round" fill="none" d="M285.521,616.546 L290.09,615.712 Q290.229,614.538 289.901,613.283 289.733,612.47 289.136,610.812 287.485,606.226 282.328,604.214 277.096,602.166 276.181,599.624 275.863,598.74 274.83,593.62 273.817,588.554 273.478,587.615 271.508,582.145 268.624,581.936 265.704,581.801 264.192,577.602 263.854,576.663 263.338,572.979 262.803,569.239 262.484,568.356 262.265,567.748 259.334,566.369 256.424,565.046 255.468,562.394 255.13,561.454 254.555,557.604 253.98,553.755 253.661,552.871 253.303,551.876 250.871,549.631 249.656,548.508 248.46,547.441 248.4,547.275 248.643,543.443 248.746,539.224 248.109,537.456 247.293,535.191 245.189,532.64 244.119,531.403 243.109,530.331 242.313,528.121 240.854,516.101 239.63,506.118 238.469,501.854 238.226,501.006 238.007,500.398 M291.495,569.703 Q293.758,569.575 313.038,564.877 331.691,560.344 335.278,560.425 340.536,560.466 352.578,556.815 365.359,552.961 372.481,548.648 380.373,543.871 400.748,527.481 421.651,510.652 426.58,504.757 428.947,501.97 435.143,493.871 440.15,487.324 445.164,481.835 451.789,474.58 453.815,469.981 455.931,465.286 455.051,459.549 454.475,455.699 453.792,449.641 452.88,445.725 449.676,446.879 440.725,450.103 442.003,439.094 442.895,431.345 442.521,428.921 441.926,425.015 438.246,424.156 435.574,423.496 431.175,422.895 427.546,421.831 424.513,417.742 422.555,415.077 423.588,411.709 423.882,410.792 417.338,411.339 409.941,411.943 401.503,411.737 L394.585,411.42 Q390.017,412.254 379.185,413.721 369.669,415.026 358.826,419.93 345.743,425.891 337.128,434.549 336.675,435.024 316.747,456.121 303.992,469.578 297.193,474.961 292.088,478.984 285.299,485.611 280.599,490.238 277.258,491.878 M285.722,444.326 Q285.574,445.128 285.932,446.123 285.991,446.289 291.909,453.707 291.571,455.888 291.207,458.516 293.446,458.147 295.585,459.062 297.369,459.855 297.668,460.684 298.324,462.507 297.536,464.476 296.924,466.07 297.185,466.101 298.517,466.682 299.678,467.824 300.973,469.168 301.15,470.352 M240.305,495.513 Q258.103,455.335 285.554,445.073 L285.295,444.355 M294.645,619.002 Q309.566,619.183 324.61,618.321 339.599,617.479 354.57,615.894 364.076,614.904 373.65,614.452 388.94,613.751 403.627,609.647 407.077,608.654 410.257,607.259 424.158,601.316 439.229,598.447 444.239,597.454 449.304,598.001 453.011,598.414 456.642,598.791 454.742,601.66 451.515,603.446 426.126,617.522 398.372,625.209 393.943,626.43 389.355,627.209 381.75,628.45 374.205,629.857 367.232,631.12 360.113,630.937 345.319,630.586 330.626,629.824 311.448,628.742 294.645,619.002Z M366.692,609.343 Q368.364,605.495 367.813,601.886 367.676,600.812 366.363,597.166 365.626,595.121 363.52,594.819 361.358,594.536 360.184,591.277 359.408,589.122 358.139,584.211 356.883,579.857 355.269,577.63 351.347,572.114 348.951,566.673 348.303,565.221 346.592,560.47" test="Parrot"/>
      <path id="Layer2_0_4_STROKES" stroke="#0F0" stroke-width="2.349" stroke-linejoin="round" stroke-linecap="round" fill="none" d="M313.195,429.624 Q311.496,429.238 309.065,430.113 307.352,430.73 297.6,436.927 287.722,443.294 286.272,444.814" test="Parrot"/>
      <path id="Layer2_0_5_STROKES" stroke="#FF0" stroke-width="2.349" stroke-linejoin="round" stroke-linecap="round" fill="none" d="M351.171,419.816 L348.842,413.352 Q347.415,414.241 342.798,414.593 337.734,414.919 336.574,415.336 329.613,417.844 321.474,423.147 314.596,427.622 313.195,429.624 M222.587,635.906 Q232.678,645.379 243.834,642.734 248.95,641.515 254.097,640.036 250.837,621.798 243.602,616.789 235.162,617.27 230.594,622.785 225.991,628.375 224.986,630.61 223.926,632.864 222.587,635.906Z M253.205,633.054 Q265.513,631.18 261.949,618.857 260.987,616.707 259.446,615.202 254.65,611.936 245.708,617.092 M432.136,594.697 Q433.638,590.723 434.672,588.915 434.774,588.504 433.48,584.913 432.445,582.04 425.431,573.83 419.792,567.185 418.424,565.119 418.214,564.883 418.154,564.717 419.184,564.284 417.649,559.156 417.326,558.087 415.396,552.728 414.64,550.628 412.018,546.641 409.341,542.675 408.724,540.962 407.769,538.31 407.634,538.109 406.694,536.887 404.049,537.34 402.934,528.005 403.157,530.359 M418.424,565.119 Q418.634,565.356 418.941,564.995 419.535,564.219 418.154,564.717 M475.654,561.983 Q480.597,565.134 483.717,565.133 485.017,565.102 489.548,563.47 495.515,561.321 496.195,557.144 496.676,553.974 494,543.079 492.232,543.716 490.86,544.584 490.892,542.076 490.752,538.568 L489.459,534.977 Q488.098,537.09 486.969,538.808 486.957,536.003 487.246,533.34 L485.435,528.312 481.844,529.606 Q479.741,534.857 473.9,538.397 468.006,541.268 466.935,542.279 467.193,542.997 466.992,544.692 M463.657,526.419 Q475.266,523.299 477.884,520.171 480.16,517.479 478.25,510.614 L473.94,512.167 Q472.944,513.212 469.958,514.974 470.119,514.729 470.356,514.519 475.575,509.081 474.686,502.972 L468.995,505.022 Q469.897,503.886 470.683,502.604 473.074,498.497 472.558,494.813 L472.28,494.04 Q469.82,494.489 466.114,497.197 462.026,500.23 460.147,500.906 456.335,502.279 453.347,500.047 M454.895,484.072 Q469.358,479.862 491.754,460.248 501.343,451.863 506.918,444.987 512.871,437.6 511.836,434.727 510.363,430.638 509.563,429.803 506.857,426.97 500.711,428.622 501.047,425.567 499.503,418.508 497.374,412.597 490.6,412.852 486.405,412.99 485.883,412.928 483.571,412.575 482.855,410.586 482.576,409.812 482.624,400.932 482.186,399.716 477.858,398.966 473.195,398.149 472.136,396.595 469.503,392.924 466.605,387.477 464.082,383.766 459.242,383.325 458.824,382.165 458.495,380.037 458.11,377.928 457.891,377.321 L434.133,385.878 Q425.334,392.293 413.002,400.167 403.672,406.149 399.688,409.644" test="Parrot"/>
      <path id="Layer2_0_6_STROKES" stroke="#F0F" stroke-width="2.349" stroke-linejoin="round" stroke-linecap="round" fill="none" d="M456.642,598.791 L466.3,594.064 Q476.547,588.376 479.287,583.332 480.674,580.772 482.838,578.807 484,577.702 485.861,576.283 487.154,575.193 486.981,574.194 486.729,572.974 484.543,570.89 481.671,568.117 477.397,566.473 474.435,565.356 473.48,562.704 472.564,560.162 471.25,553.395 469.698,547.525 466.533,545.669 463.443,543.848 462.823,538.142 462.467,534.9 461.741,527.858 460.953,524.459 460.161,519.314 459.21,515.288 456.308,512.775 453.311,510.172 452.227,506.817 451.581,504.678 450.654,499.332 450.006,496.319 450.032,492.752 449.703,490.624 446.573,490.253 M397.618,403.898 Q383.423,406.077 373.714,407.889 366.094,409.261 351.715,412.317 M573.292,388.56 Q581.128,382.243 582.156,380.936 583.652,379.024 582.537,375.93 582.119,374.77 581.89,374.478 580.614,373.19 577.255,372.528 590.641,344.362 590.164,343.036 587.179,334.748 571.595,336.366 562.2,337.316 551.758,341.077 545.183,343.445 539.457,347.13 535.707,349.542 531.321,353.307" test="Parrot"/>
      <path id="Layer2_0_7_STROKES" stroke="#F60" stroke-width="2.349" stroke-linejoin="round" stroke-linecap="round" fill="none" d="M516.227,431.148 Q515.542,432.019 514.877,432.945 513.511,434.872 513.67,435.314 L517.262,434.021 Q525.162,429.615 546.646,411.453 572.174,389.962 570.184,384.437 569.328,382.061 562.737,378.318 556.23,374.982 556.19,374.871 555.852,373.932 555.615,371.021 555.358,368.056 555.04,367.172 554.065,364.464 547.695,363.762 543.281,363.292 540.746,363.706 538.498,357.463 534.159,355.468 529.765,353.493 528.591,350.233 526.104,351.128 520.44,352.732 514.796,354.39 514.243,354.589 509.215,356.4 499.209,363.624 487.926,371.808 485.559,373.035 481.89,374.981 475.125,377.167 467.989,379.363 465.448,380.279 L465.706,380.997" test="Parrot"/>
    </g>
    <g id="JuryBoxFront">
      <path fill="#000" stroke="none" d="M-3685.804,607.608 L-3721.707,565.668 -3724.685,773.278 Q-3711.519,773.279 -3693.049,773.278 L-3685.804,607.608 M1050.897,586.035 L1048.723,586.035 1019.985,614.29 1019.985,766.435 Q1036.864,766.462 1050.897,766.435 L1050.897,586.035 M774.862,605.354 Q654.917,608.092 535.213,614.934 413.739,620.81 292.184,621.535 167.57,622.26 42.956,622.099 -78.599,621.938 -200.154,621.535 -328.632,621.132 -457.11,619.603 -583.817,618.154 -710.443,616.061 -836.185,614.049 -961.925,617.268 -1086.378,620.408 -1210.912,627.17 -1332.064,632.402 -1453.458,630.551 -1581.292,628.539 -1709.046,620.65 -1828.106,612.68 -1947.648,610.99 -2066.627,609.38 -2185.686,610.426 -2313.44,611.553 -2441.194,613.485 -2569.43,615.498 -2697.586,617.43 -2824.856,619.362 -2952.288,621.454 -3076.258,623.548 -3200.308,624.514 -3323.876,625.479 -3447.765,623.065 -3567.147,620.73 -3685.804,607.608 L-3693.049,773.278 Q-3361.457,773.133 -1318.621,769.897 626.055,766.749 1019.985,766.435 L1019.985,614.29 Q897.705,602.618 774.862,605.354 M504.865,589.094 Q496.483,589.486 488.121,589.818 365.842,593.843 243.562,593.843 206.509,593.843 169.422,593.843 80.02,593.867 -9.449,593.924 -22.713,593.933 -36.014,593.924 -150.796,593.812 -265.681,592.152 -302.51,591.624 -339.339,590.543 -376.179,590.298 -413.076,589.979 -440.685,589.821 -468.38,589.577 -496.014,588.847 -523.683,588.45 -652,586.679 -780.398,585.391 -880.278,584.408 -980.118,588.772 -994.76,589.459 -1009.42,590.22 -1130.251,595.775 -1250.84,602.135 L-1508.52,603.422 Q-1637.803,597.224 -1766.925,589.255 -1883.892,581.124 -2001.583,579.997 -2128.853,578.709 -2255.963,580.48 -2380.094,582.251 -2504.386,584.747 -2621.352,587.161 -2738.4,589.657 -2857.378,592.152 -2976.518,594.084 -3102.018,596.097 -3227.839,594.487 -3349.717,592.958 -3471.432,584.908 -3596.69,577.421 -3721.707,565.668 L-3685.804,607.608 Q-3567.147,620.73 -3447.765,623.065 -3323.876,625.479 -3200.308,624.514 -3076.258,623.548 -2952.288,621.454 -2824.856,619.362 -2697.586,617.43 -2569.43,615.498 -2441.194,613.485 -2313.44,611.553 -2185.686,610.426 -2066.627,609.38 -1947.648,610.99 -1828.106,612.68 -1709.046,620.65 -1581.292,628.539 -1453.458,630.551 -1332.064,632.402 -1210.912,627.17 -1086.378,620.408 -961.925,617.268 -836.185,614.049 -710.443,616.061 -583.817,618.154 -457.11,619.603 -328.632,621.132 -200.154,621.535 -78.599,621.938 42.956,622.099 167.57,622.26 292.184,621.535 413.739,620.81 535.213,614.934 654.917,608.092 774.862,605.354 897.705,602.618 1019.985,614.29 L1048.723,586.035 1048.804,584.747 Q1019.199,582.08 989.555,579.434 966.858,577.318 944.153,575.811 847.61,569.69 750.712,575.489 627.919,584.008 504.865,589.094Z" test="JuryBoxFront" stroke-width="1.61"/>
      <path id="Layer1_0_1_STROKES" stroke="#F60" stroke-width="3.22" stroke-linejoin="round" stroke-linecap="round" fill="none" d="M1048.844,584.787 Q1019.199,582.08 989.555,579.434 966.858,577.318 944.153,575.851 847.61,569.69 750.712,575.489 627.919,584.008 504.865,589.134 496.483,589.486 488.121,589.818 365.842,593.843 243.562,593.843 206.509,593.843 169.462,593.843 80.02,593.867 -9.449,593.924 -22.713,593.933 -35.974,593.924 -150.796,593.812 -265.681,592.152 -302.51,591.624 -339.339,590.583 -376.179,590.298 -413.036,590.019 -440.685,589.821 -468.34,589.617 -496.014,588.847 -523.683,588.45 -652,586.679 -780.398,585.391 -880.278,584.408 -980.078,588.812 -994.76,589.459 -1009.42,590.22 -1130.251,595.775 -1250.84,602.135 L-1508.52,603.422 Q-1637.803,597.224 -1766.925,589.255 -1883.892,581.124 -2001.583,579.997 -2128.853,578.709 -2255.963,580.48 -2380.094,582.251 -2504.386,584.747 -2621.352,587.161 -2738.4,589.657 -2857.378,592.152 -2976.518,594.084 -3102.018,596.097 -3227.839,594.487 -3349.717,592.958 -3471.432,584.908 -3596.69,577.421 -3721.707,565.668 L-3685.804,607.608 Q-3567.147,620.73 -3447.765,623.065 -3323.876,625.479 -3200.308,624.514 -3076.258,623.548 -2952.288,621.454 -2824.856,619.362 -2697.586,617.43 -2569.43,615.498 -2441.194,613.485 -2313.44,611.553 -2185.686,610.426 -2066.627,609.38 -1947.648,610.99 -1828.106,612.68 -1709.046,620.65 -1581.292,628.539 -1453.458,630.551 -1332.064,632.402 -1210.912,627.17 -1086.378,620.408 -961.925,617.268 -836.185,614.049 -710.443,616.061 -583.817,618.154 -457.11,619.603 -328.632,621.132 -200.154,621.535 -78.599,621.938 42.956,622.099 167.57,622.26 292.184,621.535 413.739,620.81 535.213,614.934 654.917,608.092 774.862,605.354 897.705,602.618 1019.985,614.29 L1048.723,586.035 M1048.844,584.787 Q1049.869,584.895 1050.897,584.988 L1050.897,586.035 1050.897,766.435 1050.897,784.467 M1019.985,784.467 L1019.985,766.475 M-3693.049,773.278 L-3693.532,784.467 M1019.985,766.475 L1019.985,614.29 M-3724.846,784.467 L-3724.685,773.278 -3721.707,565.668 M-3685.804,607.608 L-3693.049,773.278" test="JuryBoxFront"/>
    </g>
  </g>
</svg>