<?xml version="1.0" encoding="utf-8"?>
<svg id="EdithAnim12" image-rendering="inherit" baseProfile="basic" version="1.1" x="0px" y="0px" width="800" height="600" xmlns="http://www.w3.org/2000/svg" xmlns:xlink="http://www.w3.org/1999/xlink">
  <g id="14_JurorParrotf135r1" overflow="visible">
    <g id="Parrot">
      <path id="Layer2_0_1_STROKES" stroke="#FFF" stroke-width="2.348" stroke-linejoin="round" stroke-linecap="round" fill="none" d="M590.447,425.336 Q591.663,429.539 589.995,434.46 588.001,440.413 581.209,441.392 574.417,442.371 570.051,440.658 565.739,438.922 564.191,434.988 562.62,431 563.692,427.226 564.741,423.398 568.276,421.063 571.672,418.851 575.465,418.32 578.911,417.873 581.23,418.225 583.58,418.5 585.734,420.262 587.919,421.947 590.447,425.336Z M577.941,431.173 Q578.413,430.334 578.176,429.478 577.916,428.568 577.893,428.514 577.755,428.19 577.27,427.95 576.069,427.377 574.771,428.823 573.697,430.046 574.858,431.274 575.673,432.139 576.498,431.979 577.107,431.911 577.323,431.819 577.778,431.689 577.941,431.173Z M567.346,378.588 Q568.574,380.872 566.259,385.622 564.029,390.272 558.915,392.195 553.909,394.072 549.919,393.092 546.006,392.143 544.481,388.263 542.987,384.306 544.129,380.247 545.272,375.741 549.445,374.155 555.176,372.033 559.329,372.497 565.077,373.111 567.346,378.588Z M556.901,386.418 Q557.388,385.764 557.143,385.039 556.906,384.183 556.883,384.129 556.791,383.913 556.36,383.65 555.259,383.162 554.1,384.485 553.111,385.608 554.157,386.566 554.849,387.292 555.62,387.155 556.098,387.079 556.314,386.987 556.738,386.934 556.901,386.418Z" test="Parrot"/>
      <path id="Layer2_0_2_STROKES" stroke="#F00" stroke-width="2.348" stroke-linejoin="round" stroke-linecap="round" fill="none" d="M567.528,462.594 Q568.26,466.11 568.497,466.966 568.734,467.822 569.424,469.442 570.413,471.764 574.776,474.818 M536.936,467.458 L537.171,469.208 Q537.521,471.228 538.096,472.578 538.441,473.388 540.919,475.012 543.22,476.52 543.944,476.722 M531.276,523.968 Q537.573,509.994 549.901,501.043 560.438,493.429 578.03,487.85 593.555,482.96 604.244,469.412 616.046,454.433 616.121,438.133 616.25,421.81 612.745,410.735 609.294,399.637 601.244,391.072 593.171,382.453 582.491,378.198 571.942,373.951 570.153,374.394 M494.242,404.366 Q479.941,409.883 465.503,407.739 M521.72,434.13 Q520.055,437.71 517.752,440.541 517.466,440.918 518.616,443.618 519.214,445.022 520.559,446.682 520.828,447.014 523.288,449.794" test="Parrot"/>
      <path id="Layer2_0_3_STROKES" stroke="#0FF" stroke-width="2.348" stroke-linejoin="round" stroke-linecap="round" fill="none" d="M474.747,409.671 L470.236,410.763 Q470.164,411.942 470.562,413.176 470.776,413.978 471.466,415.598 473.375,420.08 478.635,421.795 483.972,423.541 485.03,426.025 485.398,426.889 486.72,431.94 488.019,436.937 488.41,437.855 490.687,443.201 493.577,443.246 496.498,443.214 498.246,447.318 498.637,448.236 499.361,451.883 500.108,455.584 500.476,456.448 500.729,457.042 503.732,458.251 506.712,459.406 507.816,461.998 508.207,462.916 509,466.725 509.793,470.534 510.161,471.398 510.575,472.37 513.129,474.472 514.406,475.523 515.66,476.52 515.729,476.682 515.705,480.52 515.842,484.736 516.578,486.464 517.521,488.678 519.766,491.103 520.904,492.277 521.973,493.289 522.893,495.449 525.032,507.361 526.821,517.253 528.222,521.441 528.513,522.274 528.766,522.868 M471.451,456.753 Q469.2,457.01 450.228,462.794 431.873,468.379 428.289,468.502 423.04,468.76 411.231,473.088 398.697,477.661 391.835,482.37 384.232,487.586 364.833,505.099 344.932,523.081 340.348,529.244 338.145,532.16 332.423,540.594 327.799,547.412 323.108,553.174 316.91,560.79 315.15,565.495 313.305,570.3 314.51,575.975 315.303,579.784 316.33,585.79 317.462,589.646 320.594,588.312 329.342,584.586 328.693,595.644 328.244,603.427 328.755,605.825 329.571,609.688 333.292,610.336 335.996,610.843 340.419,611.192 344.101,612.048 347.36,615.955 349.466,618.503 348.626,621.923 348.385,622.855 354.884,621.937 362.231,620.913 370.663,620.639 L377.584,620.562 Q382.095,619.47 392.82,617.39 402.242,615.546 412.782,610.036 425.498,603.344 433.603,594.214 434.028,593.714 452.713,571.529 464.675,557.375 471.154,551.617 476.019,547.312 482.416,540.313 486.843,535.429 490.084,533.602 M484.343,581.534 Q484.445,580.725 484.031,579.753 483.962,579.591 477.635,572.525 477.848,570.329 478.062,567.686 475.849,568.182 473.662,567.391 471.837,566.701 471.492,565.891 470.733,564.109 471.408,562.099 471.928,560.474 471.666,560.458 470.303,559.954 469.08,558.88 467.711,557.613 467.467,556.441 M526.751,527.873 Q511.276,568.978 484.468,580.779 L484.767,581.481 M465.503,407.739 Q450.604,408.407 435.641,410.123 420.732,411.816 405.883,414.249 396.454,415.777 386.926,416.773 371.709,418.342 357.286,423.273 353.9,424.46 350.806,426.033 337.273,432.754 322.398,436.474 317.455,437.75 312.369,437.492 308.647,437.291 305.002,437.121 306.735,434.15 309.853,432.184 334.388,416.694 361.645,407.445 365.995,405.975 370.529,404.937 378.047,403.266 385.496,401.433 392.382,399.776 399.496,399.553 414.279,399.062 428.984,398.987 448.182,398.976 465.503,407.739Z M394.16,421.475 Q392.71,425.41 393.465,428.98 393.663,430.044 395.181,433.608 396.032,435.606 398.151,435.788 400.324,435.947 401.681,439.133 402.578,441.239 404.124,446.067 405.625,450.34 407.362,452.471 411.589,457.752 414.29,463.045 415.019,464.457 416.997,469.101" test="Parrot"/>
      <path id="Layer2_0_4_STROKES" stroke="#0F0" stroke-width="2.348" stroke-linejoin="round" stroke-linecap="round" fill="none" d="M457.764,597.767 Q459.482,598.056 461.858,597.044 463.532,596.331 472.911,589.593 482.406,582.678 483.766,581.078" test="Parrot"/>
      <path id="Layer2_0_5_STROKES" stroke="#FF0" stroke-width="2.348" stroke-linejoin="round" stroke-linecap="round" fill="none" d="M420.428,609.714 L423.119,616.032 Q424.493,615.064 429.08,614.45 434.114,613.837 435.248,613.354 442.052,610.456 449.872,604.701 456.48,599.845 457.764,597.767 M536.446,386.773 Q525.838,377.894 514.856,381.168 509.82,382.675 504.768,384.444 509.059,402.457 516.563,407.044 524.958,406.084 529.202,400.321 533.477,394.481 534.353,392.194 535.283,389.884 536.446,386.773Z M506.055,391.36 Q493.88,393.93 498.138,406.024 499.22,408.115 500.843,409.529 505.815,412.515 514.444,406.862 M329.689,439.812 Q328.416,443.863 327.487,445.726 327.409,446.142 328.904,449.652 330.1,452.46 337.566,460.253 343.571,466.563 345.054,468.547 345.277,468.771 345.346,468.933 344.343,469.424 346.166,474.453 346.549,475.502 348.78,480.74 349.654,482.792 352.497,486.621 355.394,490.427 356.107,492.101 357.211,494.693 357.357,494.886 358.364,496.052 360.978,495.449 362.622,504.701 362.265,502.365 M345.054,468.547 Q344.831,468.323 344.545,468.7 343.996,469.508 345.346,468.933 M288.124,474.932 Q283.013,472.069 279.899,472.247 278.604,472.352 274.176,474.238 268.344,476.722 267.903,480.929 267.603,484.119 270.893,494.839 272.621,494.103 273.941,493.158 274.051,495.663 274.39,499.155 L275.885,502.665 Q277.123,500.479 278.152,498.701 278.323,501.499 278.186,504.173 L280.279,509.087 283.789,507.592 Q285.589,502.232 291.216,498.368 296.934,495.167 297.946,494.098 297.647,493.396 297.751,491.693 M302.119,509.737 Q290.712,513.511 288.277,516.781 286.159,519.597 288.456,526.338 L292.668,524.544 Q293.603,523.444 296.482,521.516 296.335,521.77 296.111,521.993 291.212,527.716 292.447,533.761 L298.009,531.392 Q297.174,532.577 296.462,533.901 294.31,538.135 295.034,541.782 L295.356,542.538 Q297.785,541.95 301.329,539.037 305.236,535.778 307.072,534.996 310.798,533.409 313.907,535.466 M313.27,551.495 Q299.078,556.519 277.845,577.365 268.754,586.277 263.582,593.456 258.062,601.166 259.258,603.974 260.96,607.97 261.806,608.758 264.667,611.431 270.706,609.433 270.545,612.5 272.487,619.456 274.948,625.234 281.693,624.594 285.871,624.218 286.395,624.25 288.722,624.471 289.55,626.415 289.872,627.171 290.33,636.035 290.836,637.223 295.197,637.726 299.897,638.276 301.042,639.766 303.878,643.279 307.08,648.55 309.808,652.109 314.663,652.274 315.146,653.408 315.596,655.513 316.1,657.595 316.353,658.189 L339.573,648.299 Q347.989,641.397 359.846,632.838 368.816,626.338 372.593,622.624" test="Parrot"/>
      <path id="Layer2_0_6_STROKES" stroke="#F0F" stroke-width="2.348" stroke-linejoin="round" stroke-linecap="round" fill="none" d="M305.002,437.121 L295.634,442.387 Q285.732,448.646 283.285,453.835 282.046,456.468 279,458.552 278.902,459.721 277.126,461.243 275.898,462.404 276.127,463.391 276.448,464.594 278.748,466.549 281.771,469.153 286.13,470.55 289.149,471.497 290.253,474.089 291.311,476.573 293.007,483.251 294.89,489.02 298.154,490.692 301.341,492.333 302.284,497.992 302.824,501.207 303.949,508.192 304.928,511.539 306.011,516.628 307.189,520.592 310.228,522.934 313.367,525.361 314.639,528.647 315.405,530.745 316.634,536.027 317.452,538.996 317.629,542.557 318.079,544.662 321.223,544.854 M374.985,628.24 Q389.026,625.258 398.611,622.898 406.137,621.096 420.311,617.228 M200.559,653.537 Q193.099,660.287 192.148,661.649 190.764,663.642 192.052,666.666 192.535,667.8 192.781,668.078 194.127,669.291 197.517,669.761 185.761,698.628 186.313,699.924 189.763,708.024 205.221,705.523 214.542,704.041 224.748,699.694 231.174,696.957 236.678,692.954 240.283,690.334 244.446,686.328" test="Parrot"/>
      <path id="Layer2_0_7_STROKES" stroke="#F60" stroke-width="2.348" stroke-linejoin="round" stroke-linecap="round" fill="none" d="M255.08,607.795 Q255.714,606.887 256.325,605.925 257.578,603.924 257.394,603.492 L253.884,604.987 Q246.251,609.833 225.846,629.178 201.595,652.075 203.895,657.475 204.884,659.797 211.674,663.157 218.357,666.116 218.403,666.224 218.794,667.142 219.196,670.033 219.621,672.978 219.989,673.842 221.116,676.488 227.512,676.826 231.943,677.044 234.449,676.487 237.048,682.589 241.491,684.333 245.988,686.054 247.345,689.24 249.775,688.205 255.336,686.283 260.874,684.307 261.414,684.077 266.328,681.984 275.902,674.206 286.696,665.398 288.988,664.039 292.538,661.889 299.164,659.322 306.16,656.725 308.644,655.667 L308.345,654.965" test="Parrot"/>
    </g>
    <g id="JuryBoxFront">
      <path fill="#000" stroke="none" d="M-3687.36,607.578 L-3723.286,565.612 -3726.266,773.35 Q-3713.091,773.352 -3694.61,773.35 L-3687.36,607.578 M1052.282,585.991 L1050.107,585.991 1021.351,614.264 1021.351,766.504 Q1038.241,766.531 1052.282,766.504 L1052.282,585.991 M776.076,605.323 Q656.057,608.062 536.279,614.908 414.729,620.789 293.098,621.514 168.407,622.238 43.716,622.077 -77.915,621.916 -199.545,621.514 -328.103,621.111 -456.661,619.58 -583.447,618.13 -710.152,616.036 -835.971,614.022 -961.79,617.244 -1086.32,620.386 -1210.931,627.152 -1332.159,632.388 -1453.628,630.535 -1581.542,628.521 -1709.375,620.627 -1828.508,612.653 -1948.125,610.961 -2067.178,609.35 -2186.311,610.398 -2314.144,611.525 -2441.977,613.459 -2570.293,615.472 -2698.529,617.405 -2825.878,619.339 -2953.389,621.433 -3077.436,623.527 -3201.563,624.494 -3325.208,625.46 -3449.174,623.044 -3568.63,620.708 -3687.36,607.578 L-3694.61,773.35 Q-3362.812,773.205 -1318.707,769.967 627.176,766.818 1021.351,766.504 L1021.351,614.264 Q898.996,602.584 776.076,605.323 M505.911,589.052 Q497.525,589.445 489.157,589.777 366.802,593.804 244.446,593.804 207.371,593.804 170.26,593.804 80.802,593.828 -8.722,593.885 -21.994,593.895 -35.304,593.885 -150.157,593.774 -265.113,592.113 -301.965,591.584 -338.816,590.502 -375.679,590.257 -412.6,589.938 -440.226,589.78 -467.938,589.535 -495.589,588.805 -523.276,588.407 -651.673,586.635 -780.15,585.347 -880.091,584.364 -979.994,588.73 -994.645,589.418 -1009.315,590.18 -1130.22,595.738 -1250.884,602.101 L-1508.725,603.39 Q-1638.088,597.187 -1767.29,589.213 -1884.329,581.077 -2002.093,579.95 -2129.443,578.661 -2256.631,580.433 -2380.839,582.205 -2505.209,584.702 -2622.248,587.119 -2739.367,589.616 -2858.42,592.113 -2977.634,594.046 -3103.212,596.06 -3229.111,594.449 -3351.064,592.918 -3472.856,584.863 -3598.192,577.372 -3723.286,565.612 L-3687.36,607.578 Q-3568.63,620.708 -3449.174,623.044 -3325.208,625.46 -3201.563,624.494 -3077.436,623.527 -2953.389,621.433 -2825.878,619.339 -2698.529,617.405 -2570.293,615.472 -2441.977,613.459 -2314.144,611.525 -2186.311,610.398 -2067.178,609.35 -1948.125,610.961 -1828.508,612.653 -1709.375,620.627 -1581.542,628.521 -1453.628,630.535 -1332.159,632.388 -1210.931,627.152 -1086.32,620.386 -961.79,617.244 -835.971,614.022 -710.152,616.036 -583.447,618.13 -456.661,619.58 -328.103,621.111 -199.545,621.514 -77.915,621.916 43.716,622.077 168.407,622.238 293.098,621.514 414.729,620.789 536.279,614.908 656.057,608.062 776.076,605.323 898.996,602.584 1021.351,614.264 L1050.107,585.991 1050.188,584.702 Q1020.565,582.034 990.903,579.386 968.191,577.269 945.473,575.761 848.869,569.636 751.911,575.439 629.042,583.963 505.911,589.052Z" test="JuryBoxFront" stroke-width="1.611"/>
      <path id="Layer1_0_1_STROKES" stroke="#F60" stroke-width="3.222" stroke-linejoin="round" stroke-linecap="round" fill="none" d="M1050.228,584.742 Q1020.565,582.034 990.903,579.386 968.191,577.269 945.473,575.801 848.869,569.636 751.911,575.439 629.042,583.963 505.911,589.092 497.525,589.445 489.157,589.777 366.802,593.804 244.446,593.804 207.371,593.804 170.3,593.804 80.802,593.828 -8.722,593.885 -21.994,593.895 -35.264,593.885 -150.157,593.774 -265.113,592.113 -301.965,591.584 -338.816,590.542 -375.679,590.257 -412.56,589.978 -440.226,589.78 -467.898,589.575 -495.589,588.805 -523.276,588.407 -651.673,586.635 -780.15,585.347 -880.091,584.364 -979.954,588.77 -994.645,589.418 -1009.315,590.18 -1130.22,595.738 -1250.884,602.101 L-1508.725,603.39 Q-1638.088,597.187 -1767.29,589.213 -1884.329,581.077 -2002.093,579.95 -2129.443,578.661 -2256.631,580.433 -2380.839,582.205 -2505.209,584.702 -2622.248,587.119 -2739.367,589.616 -2858.42,592.113 -2977.634,594.046 -3103.212,596.06 -3229.111,594.449 -3351.064,592.918 -3472.856,584.863 -3598.192,577.372 -3723.286,565.612 L-3687.36,607.578 Q-3568.63,620.708 -3449.174,623.044 -3325.208,625.46 -3201.563,624.494 -3077.436,623.527 -2953.389,621.433 -2825.878,619.339 -2698.529,617.405 -2570.293,615.472 -2441.977,613.459 -2314.144,611.525 -2186.311,610.398 -2067.178,609.35 -1948.125,610.961 -1828.508,612.653 -1709.375,620.627 -1581.542,628.521 -1453.628,630.535 -1332.159,632.388 -1210.931,627.152 -1086.32,620.386 -961.79,617.244 -835.971,614.022 -710.152,616.036 -583.447,618.13 -456.661,619.58 -328.103,621.111 -199.545,621.514 -77.915,621.916 43.716,622.077 168.407,622.238 293.098,621.514 414.729,620.789 536.279,614.908 656.057,608.062 776.076,605.323 898.996,602.584 1021.351,614.264 L1050.107,585.991 M1050.228,584.742 Q1051.254,584.85 1052.282,584.944 L1052.282,585.991 1052.282,766.504 1052.282,784.547 M1021.351,784.547 L1021.351,766.544 M-3694.61,773.35 L-3695.093,784.547 M1021.351,766.544 L1021.351,614.264 M-3726.427,784.547 L-3726.266,773.35 -3723.286,565.612 M-3687.36,607.578 L-3694.61,773.35" test="JuryBoxFront"/>
    </g>
  </g>
</svg>