<?xml version="1.0" encoding="utf-8"?>
<svg id="EdithAnim12" image-rendering="inherit" baseProfile="basic" version="1.1" x="0px" y="0px" width="800" height="600" xmlns="http://www.w3.org/2000/svg" xmlns:xlink="http://www.w3.org/1999/xlink">
  <g id="14_JurorParrotf148r1" overflow="visible">
    <g id="Parrot">
      <path id="Layer2_0_1_STROKES" stroke="#FFF" stroke-width="2.348" stroke-linejoin="round" stroke-linecap="round" fill="none" d="M595.916,612.599 Q593.696,616.369 588.974,618.536 583.278,621.176 577.903,616.912 572.527,612.648 570.773,608.298 569.074,603.972 570.87,600.146 572.689,596.265 576.168,594.453 579.671,592.586 583.795,593.552 587.735,594.501 590.726,596.892 593.417,599.09 594.754,601.017 596.168,602.914 596.367,605.689 596.643,608.434 595.916,612.599Z M583.085,607.519 Q584.019,607.286 584.478,606.526 584.961,605.712 584.985,605.658 585.125,605.335 584.967,604.818 584.558,603.551 582.616,603.601 580.99,603.66 580.894,605.348 580.825,606.534 581.508,607.024 581.976,607.419 582.191,607.513 582.598,607.755 583.085,607.519Z M614.026,563.706 Q613.209,566.167 608.167,567.747 603.256,569.319 598.347,566.923 593.545,564.574 591.517,561.001 589.519,557.506 591.292,553.733 593.142,549.93 596.876,547.972 600.936,545.708 604.954,547.652 610.432,550.36 612.947,553.697 616.448,558.296 614.026,563.706Z M601.162,561.492 Q601.972,561.397 602.331,560.721 602.79,559.961 602.813,559.907 602.907,559.692 602.802,559.198 602.401,558.063 600.643,558.129 599.148,558.181 599.17,559.6 599.118,560.601 599.747,561.067 600.13,561.363 600.346,561.456 600.675,561.728 601.162,561.492Z" test="Parrot"/>
      <path id="Layer2_0_2_STROKES" stroke="#F00" stroke-width="2.348" stroke-linejoin="round" stroke-linecap="round" fill="none" d="M553.098,621.529 Q551.046,624.476 550.586,625.236 550.127,625.996 549.424,627.61 548.415,629.923 549.192,635.192 M528.554,602.637 L527.444,604.009 Q526.216,605.651 525.63,606.996 525.278,607.803 525.8,610.719 526.284,613.427 526.634,614.092 M483.598,637.331 Q498.078,632.311 513.05,635.123 525.82,637.552 541.955,646.506 556.171,654.431 573.358,652.895 592.349,651.186 604.247,640.046 616.198,628.93 621.84,618.777 627.536,608.648 628.232,596.915 628.952,585.129 624.71,574.445 620.552,563.862 619.002,562.866 M545.087,528.28 Q531.256,521.675 522.899,509.71 M542.326,568.69 Q538.581,569.939 534.942,570.209 534.472,570.26 533.299,572.95 532.689,574.349 532.407,576.466 532.35,576.89 532.019,580.587" test="Parrot"/>
      <path id="Layer2_0_3_STROKES" stroke="#0FF" stroke-width="2.348" stroke-linejoin="round" stroke-linecap="round" fill="none" d="M527.844,517.755 L523.952,515.226 Q523.046,515.983 522.422,517.12 521.986,517.826 521.283,519.44 519.336,523.906 521.702,528.906 524.099,533.984 523.02,536.459 522.645,537.32 519.882,541.749 517.142,546.125 516.744,547.04 514.422,552.366 516.374,554.497 518.403,556.598 516.621,560.687 516.222,561.602 514.069,564.632 511.892,567.717 511.517,568.578 511.259,569.169 512.443,572.182 513.65,575.141 512.524,577.724 512.126,578.638 509.902,581.83 507.678,585.022 507.303,585.883 506.881,586.852 507.107,590.151 507.221,591.801 507.357,593.397 507.287,593.559 504.481,596.177 501.511,599.172 500.761,600.893 499.799,603.099 499.579,606.396 499.507,608.029 499.505,609.501 498.567,611.653 491.379,621.388 485.419,629.482 483.337,633.376 482.932,634.16 482.674,634.752 M491.363,547.693 Q489.63,546.233 472.397,536.417 455.733,526.913 453.182,524.393 449.39,520.755 438.135,515.145 426.204,509.176 418.069,507.423 409.057,505.48 383.007,503.408 356.271,501.294 348.644,502.195 345.012,502.596 334.953,504.23 326.822,505.552 319.413,506.1 309.621,506.825 304.993,508.777 300.234,510.736 296.937,515.509 294.714,518.702 291.054,523.573 289.029,527.043 292.149,528.403 300.865,532.202 292.383,539.325 286.418,544.343 285.026,546.362 282.779,549.608 284.864,552.757 286.352,555.07 289.136,558.524 291.042,561.788 290.441,566.84 290.036,570.12 286.973,571.858 286.13,572.323 291.261,576.416 297.05,581.052 303.04,586.992 L307.849,591.969 Q311.741,594.498 320.618,600.864 328.428,606.445 339.671,610.321 353.267,614.967 365.469,614.587 366.124,614.553 395.079,612.897 413.581,611.87 422.215,612.625 428.685,613.204 438.164,613.046 444.754,612.91 448.308,614.011 M409.53,642.755 Q410.188,642.274 410.61,641.306 410.68,641.144 411.471,631.693 413.213,630.34 415.281,628.68 413.4,627.413 412.473,625.28 411.721,623.48 412.073,622.673 412.847,620.898 414.771,620.008 416.31,619.27 416.141,619.068 415.571,617.732 415.512,616.105 415.493,614.24 416.177,613.258 M477.652,636.724 Q437.151,653.707 410.164,642.328 L409.86,643.027 M522.899,509.71 Q512.182,499.34 500.659,489.644 489.19,479.972 477.224,470.851 469.638,465.047 462.371,458.807 450.781,448.825 437.292,441.729 434.104,440.084 430.836,438.915 416.658,433.696 403.739,425.44 399.417,422.724 396.111,418.85 393.701,416.007 391.322,413.241 394.671,412.461 398.241,413.376 426.348,420.57 451.789,434.028 455.844,436.179 459.712,438.762 466.09,443.078 472.538,447.233 478.471,451.099 483.518,456.116 494.027,466.523 504.181,477.159 517.373,491.103 522.899,509.71Z M463.922,467.293 Q460.066,468.942 457.99,471.942 457.353,472.817 455.805,476.368 454.938,478.358 456.26,480.023 457.637,481.712 456.254,484.886 455.339,486.984 452.892,491.423 450.817,495.449 450.462,498.175 449.526,504.873 447.535,510.471 447.009,511.971 444.992,516.598" test="Parrot"/>
      <path id="Layer2_0_4_STROKES" stroke="#0F0" stroke-width="2.348" stroke-linejoin="round" stroke-linecap="round" fill="none" d="M379.479,634.587 Q380.449,636.034 382.816,637.066 384.484,637.793 395.822,639.982 407.368,642.133 409.465,642.023" test="Parrot"/>
      <path id="Layer2_0_5_STROKES" stroke="#FF0" stroke-width="2.348" stroke-linejoin="round" stroke-linecap="round" fill="none" d="M345.156,615.657 L342.412,621.951 Q344.06,622.285 347.656,625.197 351.559,628.435 352.688,628.927 359.467,631.882 369.02,633.613 377.087,635.081 379.479,634.587 M586.857,546.87 Q586.025,533.063 576.103,527.33 571.55,524.705 566.795,522.248 556.65,537.737 558.47,546.341 564.933,551.783 572.036,550.909 579.216,550.006 581.48,549.072 583.797,548.161 586.857,546.87Z M562.652,527.933 Q552.423,520.85 546.558,532.25 545.781,534.472 545.868,536.623 547.113,542.287 557.147,544.676 M406.32,433.031 Q402.501,434.888 400.509,435.492 400.154,435.721 398.629,439.218 397.41,442.016 396.874,452.794 396.412,461.491 395.988,463.932 395.978,464.247 395.908,464.409 394.862,464.017 392.46,468.796 391.96,469.794 389.686,475.013 388.794,477.057 387.964,481.753 387.188,486.472 386.461,488.14 385.335,490.723 385.295,490.961 385.139,492.494 387.373,493.979 381.778,501.528 383.23,499.664 M395.988,463.932 Q395.998,463.616 395.527,463.667 394.563,463.823 395.908,464.409 M352.251,426.942 Q350.822,421.261 348.554,419.12 347.588,418.251 343.177,416.328 337.366,413.796 334.006,416.364 331.482,418.337 325.95,428.09 327.672,428.84 329.265,429.151 327.52,430.951 325.215,433.596 L323.691,437.093 Q326.13,436.491 328.128,436.018 326.212,438.064 324.175,439.8 L322.041,444.696 325.538,446.22 Q330.67,443.848 337.342,445.284 343.595,447.241 345.067,447.242 345.372,446.543 346.681,445.449 M336.567,461.015 Q325.991,455.317 321.942,455.793 318.441,456.187 315.119,462.486 L319.316,464.315 Q320.757,464.239 324.135,465.008 323.85,465.075 323.534,465.066 316.01,465.435 312.465,470.484 L318.007,472.9 Q316.572,473.107 315.121,473.498 310.566,474.842 308.412,477.873 L308.084,478.626 Q310.18,479.988 314.73,480.563 319.782,481.164 321.611,481.961 325.324,483.579 325.964,487.252 M313.877,497.797 Q300.479,490.933 270.747,489.817 258.027,489.33 249.258,490.502 239.864,491.785 238.644,494.583 236.909,498.564 236.917,499.72 236.94,503.635 242.539,506.651 240.199,508.641 236.478,514.829 233.969,520.586 239.066,525.048 242.208,527.826 242.545,528.229 243.982,530.072 243.138,532.009 242.81,532.762 236.682,539.182 236.166,540.366 238.796,543.881 241.624,547.674 241.327,549.53 240.722,554.003 239.09,559.95 238.377,564.377 241.591,568.019 241.099,569.149 239.878,570.921 238.711,572.717 238.453,573.309 L261.587,583.393 Q272.383,584.769 286.746,587.508 297.63,589.564 302.923,589.758" test="Parrot"/>
      <path id="Layer2_0_6_STROKES" stroke="#F0F" stroke-width="2.348" stroke-linejoin="round" stroke-linecap="round" fill="none" d="M391.322,413.241 L381.061,410.05 Q369.712,407.151 364.26,408.937 361.496,409.844 358.576,409.788 356.973,409.793 354.647,409.548 352.96,409.453 352.4,410.297 351.746,411.357 351.905,414.371 352.088,418.356 354.066,422.483 355.451,425.328 354.326,427.91 353.247,430.385 349.559,436.204 346.659,441.534 347.685,445.054 348.681,448.498 345.216,453.069 343.251,455.67 338.947,461.284 337.187,464.294 334.232,468.576 332.16,472.155 332.545,475.971 332.937,479.92 331.422,483.101 330.423,485.098 327.429,489.619 325.833,492.252 323.366,494.826 322.145,496.599 324.165,499.016 M300.484,595.353 Q312.294,603.51 320.592,608.855 327.07,613.087 339.615,620.732 M162.312,485.96 Q152.284,485.173 150.641,485.418 148.242,485.78 146.929,488.793 146.436,489.923 146.403,490.293 146.446,492.104 148.432,494.891 119.379,506.171 118.817,507.462 115.299,515.532 127.732,525.049 135.211,530.805 145.379,535.238 151.781,538.028 158.47,539.279 162.85,540.1 168.62,540.374" test="Parrot"/>
      <path id="Layer2_0_7_STROKES" stroke="#F60" stroke-width="2.348" stroke-linejoin="round" stroke-linecap="round" fill="none" d="M232.998,494.17 Q234.094,494.007 235.212,493.791 237.527,493.327 237.715,492.897 L234.218,491.373 Q225.454,489.153 197.381,487.609 164.086,485.708 161.741,491.088 160.733,493.402 162.954,500.644 165.393,507.533 165.346,507.641 164.948,508.555 163.123,510.833 161.274,513.164 160.899,514.025 159.75,516.661 163.897,521.542 166.781,524.912 168.907,526.35 166.257,532.43 168.041,536.857 169.879,541.307 168.495,544.481 170.916,545.536 176.132,548.258 181.371,550.926 181.909,551.16 186.805,553.294 199.033,554.911 212.847,556.706 215.408,557.439 219.409,558.542 225.825,561.595 232.517,564.896 234.992,565.975 L235.296,565.275" test="Parrot"/>
    </g>
    <g id="JuryBoxFront">
      <path fill="#000" stroke="none" d="M-3687.86,607.728 L-3723.786,565.762 -3726.766,773.5 Q-3713.591,773.502 -3695.11,773.5 L-3687.86,607.728 M1051.782,586.141 L1049.607,586.141 1020.851,614.414 1020.851,766.654 Q1037.741,766.681 1051.782,766.654 L1051.782,586.141 M775.576,605.473 Q655.557,608.212 535.779,615.058 414.229,620.939 292.598,621.664 167.907,622.388 43.216,622.227 -78.415,622.066 -200.045,621.664 -328.603,621.261 -457.161,619.73 -583.947,618.28 -710.652,616.186 -836.471,614.172 -962.29,617.394 -1086.82,620.536 -1211.431,627.302 -1332.659,632.538 -1454.128,630.685 -1582.042,628.671 -1709.875,620.777 -1829.008,612.803 -1948.625,611.111 -2067.678,609.5 -2186.811,610.548 -2314.644,611.675 -2442.477,613.609 -2570.793,615.622 -2699.029,617.555 -2826.378,619.489 -2953.889,621.583 -3077.936,623.677 -3202.063,624.644 -3325.708,625.61 -3449.674,623.194 -3569.13,620.858 -3687.86,607.728 L-3695.11,773.5 Q-3363.312,773.355 -1319.207,770.117 626.676,766.968 1020.851,766.654 L1020.851,614.414 Q898.496,602.734 775.576,605.473 M505.411,589.202 Q497.025,589.595 488.657,589.927 366.302,593.954 243.946,593.954 206.871,593.954 169.76,593.954 80.302,593.978 -9.222,594.035 -22.494,594.045 -35.804,594.035 -150.657,593.924 -265.613,592.263 -302.465,591.734 -339.316,590.652 -376.179,590.407 -413.1,590.088 -440.726,589.93 -468.438,589.685 -496.089,588.955 -523.776,588.557 -652.173,586.785 -780.65,585.497 -880.591,584.514 -980.494,588.88 -995.145,589.568 -1009.815,590.33 -1130.72,595.888 -1251.384,602.251 L-1509.225,603.54 Q-1638.588,597.337 -1767.79,589.363 -1884.829,581.227 -2002.593,580.1 -2129.943,578.811 -2257.131,580.583 -2381.339,582.355 -2505.709,584.852 -2622.748,587.269 -2739.867,589.766 -2858.92,592.263 -2978.134,594.196 -3103.712,596.21 -3229.611,594.599 -3351.564,593.068 -3473.356,585.013 -3598.692,577.522 -3723.786,565.762 L-3687.86,607.728 Q-3569.13,620.858 -3449.674,623.194 -3325.708,625.61 -3202.063,624.644 -3077.936,623.677 -2953.889,621.583 -2826.378,619.489 -2699.029,617.555 -2570.793,615.622 -2442.477,613.609 -2314.644,611.675 -2186.811,610.548 -2067.678,609.5 -1948.625,611.111 -1829.008,612.803 -1709.875,620.777 -1582.042,628.671 -1454.128,630.685 -1332.659,632.538 -1211.431,627.302 -1086.82,620.536 -962.29,617.394 -836.471,614.172 -710.652,616.186 -583.947,618.28 -457.161,619.73 -328.603,621.261 -200.045,621.664 -78.415,622.066 43.216,622.227 167.907,622.388 292.598,621.664 414.229,620.939 535.779,615.058 655.557,608.212 775.576,605.473 898.496,602.734 1020.851,614.414 L1049.607,586.141 1049.688,584.852 Q1020.065,582.184 990.403,579.536 967.691,577.419 944.973,575.911 848.369,569.786 751.411,575.589 628.542,584.113 505.411,589.202Z" test="JuryBoxFront" stroke-width="1.611"/>
      <path id="Layer1_0_1_STROKES" stroke="#F60" stroke-width="3.222" stroke-linejoin="round" stroke-linecap="round" fill="none" d="M1049.728,584.892 Q1020.065,582.184 990.403,579.536 967.691,577.419 944.973,575.951 848.369,569.786 751.411,575.589 628.542,584.113 505.411,589.242 497.025,589.595 488.657,589.927 366.302,593.954 243.946,593.954 206.871,593.954 169.8,593.954 80.302,593.978 -9.222,594.035 -22.494,594.045 -35.764,594.035 -150.657,593.924 -265.613,592.263 -302.465,591.734 -339.316,590.692 -376.179,590.407 -413.06,590.128 -440.726,589.93 -468.398,589.725 -496.089,588.955 -523.776,588.557 -652.173,586.785 -780.65,585.497 -880.591,584.514 -980.454,588.92 -995.145,589.568 -1009.815,590.33 -1130.72,595.888 -1251.384,602.251 L-1509.225,603.54 Q-1638.588,597.337 -1767.79,589.363 -1884.829,581.227 -2002.593,580.1 -2129.943,578.811 -2257.131,580.583 -2381.339,582.355 -2505.709,584.852 -2622.748,587.269 -2739.867,589.766 -2858.92,592.263 -2978.134,594.196 -3103.712,596.21 -3229.611,594.599 -3351.564,593.068 -3473.356,585.013 -3598.692,577.522 -3723.786,565.762 L-3687.86,607.728 Q-3569.13,620.858 -3449.674,623.194 -3325.708,625.61 -3202.063,624.644 -3077.936,623.677 -2953.889,621.583 -2826.378,619.489 -2699.029,617.555 -2570.793,615.622 -2442.477,613.609 -2314.644,611.675 -2186.811,610.548 -2067.678,609.5 -1948.625,611.111 -1829.008,612.803 -1709.875,620.777 -1582.042,628.671 -1454.128,630.685 -1332.659,632.538 -1211.431,627.302 -1086.82,620.536 -962.29,617.394 -836.471,614.172 -710.652,616.186 -583.947,618.28 -457.161,619.73 -328.603,621.261 -200.045,621.664 -78.415,622.066 43.216,622.227 167.907,622.388 292.598,621.664 414.229,620.939 535.779,615.058 655.557,608.212 775.576,605.473 898.496,602.734 1020.851,614.414 L1049.607,586.141 M1049.728,584.892 Q1050.754,585 1051.782,585.094 L1051.782,586.141 1051.782,766.654 1051.782,784.697 M1020.851,784.697 L1020.851,766.694 M-3695.11,773.5 L-3695.593,784.697 M1020.851,766.694 L1020.851,614.414 M-3726.927,784.697 L-3726.766,773.5 -3723.786,565.762 M-3687.86,607.728 L-3695.11,773.5" test="JuryBoxFront"/>
    </g>
  </g>
</svg>