<?xml version="1.0" encoding="utf-8"?>
<svg id="EdithAnim12" image-rendering="inherit" baseProfile="basic" version="1.1" x="0px" y="0px" width="800" height="600" xmlns="http://www.w3.org/2000/svg" xmlns:xlink="http://www.w3.org/1999/xlink">
  <g id="14_JurorParrotf15r1" overflow="visible">
    <g id="JurorsBack">
      <path fill="#000" stroke="none" d="M941.47,132.33 Q939.47,133.01 937.55,133.85 920.15,140.73 908.39,155.21 896.03,170.41 896.87,190.05 897.67,209.25 907.67,225.73 912.87,234.33 929.03,242.29 937.35,246.37 944.11,248.13 950.35,249.73 955.27,249.33 957.95,249.13 961.23,247.81 969.51,244.49 981.67,234.25 988.59,228.41 993.71,222.69 998.91,216.89 999.83,213.89 1003.47,202.25 1003.15,190.01 1002.59,170.41 991.39,154.57 986.31,147.45 978.67,142.89 961.83,132.81 942.07,134.21 L941.47,132.33 M925.47,182.05 L921.51,184.97 925.47,182.05 M962.11,173.09 L958.11,176.01 962.11,173.09 M957.55,226.97 Q956.43,226.77 955.31,226.61 956.43,226.77 957.55,226.97 969.07,228.57 975.15,218.61 969.07,228.57 957.55,226.97 M721.71,138.21 Q713.15,140.41 705.75,145.25 698.47,149.97 692.19,156.17 685.79,162.57 681.71,170.73 677.59,179.09 676.59,188.25 675.59,197.37 677.67,206.25 679.75,215.33 684.31,223.33 688.87,231.29 695.39,237.73 702.15,244.37 710.59,248.61 715.23,251.01 720.23,252.33 724.03,253.29 728.03,253.65 730.51,253.57 732.99,253.29 739.79,252.49 746.35,250.29 755.35,247.29 762.91,241.45 770.43,235.57 775.07,227.05 779.35,219.17 781.47,210.53 783.59,201.89 782.83,192.97 782.03,183.61 777.87,175.05 773.91,166.85 767.95,160.01 762.15,153.37 755.51,147.53 748.39,141.37 739.27,138.57 730.59,135.81 721.71,138.21 M747.07,177.33 Q749.11,178.65 749.11,180.49 749.11,178.65 747.07,177.33 744.99,176.01 742.07,176.01 744.99,176.01 747.07,177.33 M715.87,174.85 Q717.75,175.97 717.75,177.57 717.75,175.97 715.87,174.85 713.99,173.73 711.35,173.73 713.99,173.73 715.87,174.85 M709.31,231.09 Q709.19,231.21 709.19,231.45 709.19,231.21 709.31,231.09 712.75,227.89 715.83,231.09 712.75,227.89 709.31,231.09 M497.71,141.81 L497.99,142.53 502.83,141.17 497.99,142.53 Q491.47,145.01 485.75,149.05 479.23,153.73 474.63,160.29 470.51,166.13 467.99,172.93 465.59,179.53 464.87,186.53 464.11,193.69 465.15,200.69 466.27,208.13 469.55,214.93 472.67,221.49 477.99,226.53 483.35,231.61 489.99,235.09 494.35,237.41 499.11,238.61 501.95,239.29 504.95,239.61 511.79,240.61 518.63,239.17 519.19,239.05 519.79,238.93 526.31,237.37 532.35,234.29 538.79,230.89 544.03,225.93 549.31,220.85 553.07,214.33 556.67,208.21 558.39,201.29 560.11,194.45 559.63,187.45 559.11,180.13 556.95,173.21 554.83,166.41 550.99,160.53 547.15,154.61 541.99,149.53 536.51,144.21 529.63,141.05 522.59,137.81 514.67,137.61 507.95,138.29 501.31,140.37 499.71,140.85 498.07,141.21 L497.71,141.81 M510.83,174.13 L516.27,174.77 510.83,174.13 M515.27,222.01 Q517.23,220.61 517.23,218.61 517.23,220.61 515.27,222.01 513.31,223.41 510.51,223.41 513.31,223.41 515.27,222.01 M490.99,180.01 L485.55,179.37 490.99,180.01 M1355.23,135.93 Q1346.83,137.81 1339.19,142.05 1330.91,146.69 1324.95,154.09 1319.35,161.05 1316.91,169.61 1314.35,178.41 1313.95,187.65 1313.55,196.65 1314.71,205.61 1315.83,214.49 1320.83,221.93 1325.99,229.61 1333.51,234.85 1340.79,239.97 1349.11,243.13 1357.95,246.41 1367.39,246.85 1376.39,247.61 1384.79,244.21 1393.59,240.73 1399.91,233.53 1406.27,226.33 1410.23,217.77 1414.19,209.17 1415.83,199.73 1417.39,190.73 1416.27,181.61 1415.11,172.09 1410.83,163.41 1406.59,154.93 1399.63,148.57 1393.71,143.13 1386.87,138.89 1380.35,134.81 1373.03,132.33 L1372.43,134.21 Q1363.71,134.17 1355.23,135.93 M1380.11,177.57 L1383.95,180.49 1380.11,177.57 M1348.43,180.49 L1352.27,183.41 1348.43,180.49 M1348.35,221.77 Q1349.03,221.61 1349.71,221.49 1349.03,221.61 1348.35,221.77 1343.11,223.25 1340.43,218.61 1343.11,223.25 1348.35,221.77 M1131.55,166.65 Q1127.59,174.57 1126.07,183.17 1124.51,191.89 1125.79,200.61 1127.15,209.97 1131.83,218.01 1136.47,225.97 1143.79,231.45 1151.39,237.05 1160.43,239.33 1162.11,239.73 1163.75,240.01 1169.63,240.93 1175.55,240.13 1177.23,239.85 1178.91,239.49 1187.99,237.53 1195.87,232.89 1203.99,228.25 1209.71,221.01 1215.47,213.73 1218.15,204.85 1220.75,196.37 1220.07,187.41 1219.39,178.69 1216.19,170.65 1212.71,162.05 1206.91,154.81 1201.27,147.81 1193.39,143.41 1185.63,139.09 1176.67,139.17 1167.35,139.25 1158.27,141.17 L1157.91,141.81 1158.19,142.53 1163.03,141.17 1158.19,142.53 Q1150.07,146.13 1143.15,151.93 1135.79,158.13 1131.55,166.65 M1151.19,180.01 L1145.75,179.37 1151.19,180.01 M1171.03,174.13 L1176.47,174.77 1171.03,174.13 M1170.71,223.41 Q1173.51,223.41 1175.47,222.01 1177.43,220.61 1177.43,218.61 1177.43,220.61 1175.47,222.01 1173.51,223.41 1170.71,223.41Z" test="JurorsBack" vector-effect="non-scaling-stroke" stroke-width="1"/>
      <path id="Layer3_0_1_STROKES" stroke="#FFF" stroke-width="1.6" stroke-linejoin="round" stroke-linecap="round" fill="none" d="M1158.19,142.53 Q1150.07,146.13 1143.15,151.93 1135.79,158.13 1131.55,166.65 1127.59,174.57 1126.07,183.17 1124.51,191.89 1125.79,200.61 1127.15,209.97 1131.83,218.01 1136.47,225.97 1143.79,231.45 1151.39,237.05 1160.43,239.33 1162.11,239.73 1163.75,240.01 1169.63,240.93 1175.55,240.13 1177.23,239.85 1178.91,239.49 1187.99,237.53 1195.87,232.89 1203.99,228.25 1209.71,221.01 1215.47,213.73 1218.15,204.85 1220.75,196.37 1220.07,187.41 1219.39,178.69 1216.19,170.65 1212.71,162.05 1206.91,154.81 1201.27,147.81 1193.39,143.41 1185.63,139.09 1176.67,139.17 1167.35,139.25 1158.27,141.17 L1157.91,141.81 M1163.03,141.17 L1158.19,142.53 M1151.19,180.01 L1145.75,179.37 M1171.03,174.13 L1176.47,174.77 M1170.71,223.41 Q1173.51,223.41 1175.47,222.01 1177.43,220.61 1177.43,218.61 M1372.43,134.21 Q1363.71,134.17 1355.23,135.93 1346.83,137.81 1339.19,142.05 1330.91,146.69 1324.95,154.09 1319.35,161.05 1316.91,169.61 1314.35,178.41 1313.95,187.65 1313.55,196.65 1314.71,205.61 1315.83,214.49 1320.83,221.93 1325.99,229.61 1333.51,234.85 1340.79,239.97 1349.11,243.13 1357.95,246.41 1367.39,246.85 1376.39,247.61 1384.79,244.21 1393.59,240.73 1399.91,233.53 1406.27,226.33 1410.23,217.77 1414.19,209.17 1415.83,199.73 1417.39,190.73 1416.27,181.61 1415.11,172.09 1410.83,163.41 1406.59,154.93 1399.63,148.57 1393.71,143.13 1386.87,138.89 1380.35,134.81 1373.03,132.33 L1364.43,130.85 M1380.11,177.57 L1383.95,180.49 M1348.43,180.49 L1352.27,183.41 M1340.43,218.61 Q1343.11,223.25 1348.35,221.77 1349.03,221.61 1349.71,221.49 M1370.07,251.77 Q1370.87,252.77 1371.71,253.81 1394.87,283.13 1406.39,320.09 1413.39,342.61 1420.43,365.01 M1310.03,366.73 Q1314.43,322.97 1336.39,285.97 1347.23,267.65 1361.87,253.81 1362.95,252.77 1364.03,251.77 M1123.55,372.21 Q1128.03,345.13 1135.59,319.17 1138.87,307.89 1141.99,296.49 1148.87,271.37 1159.03,249.05 1160.39,246.09 1161.87,243.33 M1177.55,243.33 Q1186.39,257.93 1192.67,275.41 1201.59,300.25 1209.51,326.01 1214.79,343.13 1219.99,360.33 M502.83,141.17 L497.99,142.53 Q491.47,145.01 485.75,149.05 479.23,153.73 474.63,160.29 470.51,166.13 467.99,172.93 465.59,179.53 464.87,186.53 464.11,193.69 465.15,200.69 466.27,208.13 469.55,214.93 472.67,221.49 477.99,226.53 483.35,231.61 489.99,235.09 494.35,237.41 499.11,238.61 501.95,239.29 504.95,239.61 511.79,240.61 518.63,239.17 519.19,239.05 519.79,238.93 526.31,237.37 532.35,234.29 538.79,230.89 544.03,225.93 549.31,220.85 553.07,214.33 556.67,208.21 558.39,201.29 560.11,194.45 559.63,187.45 559.11,180.13 556.95,173.21 554.83,166.41 550.99,160.53 547.15,154.61 541.99,149.53 536.51,144.21 529.63,141.05 522.59,137.81 514.67,137.61 507.95,138.29 501.31,140.37 499.71,140.85 498.07,141.21 L497.71,141.81 M510.83,174.13 L516.27,174.77 M510.51,223.41 Q513.31,223.41 515.27,222.01 517.23,220.61 517.23,218.61 M728.03,253.65 Q730.51,253.57 732.99,253.29 739.79,252.49 746.35,250.29 755.35,247.29 762.91,241.45 770.43,235.57 775.07,227.05 779.35,219.17 781.47,210.53 783.59,201.89 782.83,192.97 782.03,183.61 777.87,175.05 773.91,166.85 767.95,160.01 762.15,153.37 755.51,147.53 748.39,141.37 739.27,138.57 730.59,135.81 721.71,138.21 713.15,140.41 705.75,145.25 698.47,149.97 692.19,156.17 685.79,162.57 681.71,170.73 677.59,179.09 676.59,188.25 675.59,197.37 677.67,206.25 679.75,215.33 684.31,223.33 688.87,231.29 695.39,237.73 702.15,244.37 710.59,248.61 715.23,251.01 720.23,252.33 724.03,253.29 728.03,253.65Z M742.07,176.01 Q744.99,176.01 747.07,177.33 749.11,178.65 749.11,180.49 M711.35,173.73 Q713.99,173.73 715.87,174.85 717.75,175.97 717.75,177.57 M942.07,134.21 Q961.83,132.81 978.67,142.89 986.31,147.45 991.39,154.57 1002.59,170.41 1003.15,190.01 1003.47,202.25 999.83,213.89 998.91,216.89 993.71,222.69 988.59,228.41 981.67,234.25 969.51,244.49 961.23,247.81 957.95,249.13 955.27,249.33 950.35,249.73 944.11,248.13 937.35,246.37 929.03,242.29 912.87,234.33 907.67,225.73 897.67,209.25 896.87,190.05 896.03,170.41 908.39,155.21 920.15,140.73 937.55,133.85 939.47,133.01 941.47,132.33 M925.47,182.05 L921.51,184.97 M962.11,173.09 L958.11,176.01 M975.15,218.61 Q969.07,228.57 957.55,226.97 956.43,226.77 955.31,226.61 M490.99,180.01 L485.55,179.37 M464.07,346.97 Q465.03,341.17 466.63,335.45 472.63,313.81 478.67,292.09 485.19,268.77 494.75,247.41 495.39,245.97 497.43,241.93 M1001.35,355.37 Q998.23,329.09 988.63,305.65 979.23,282.57 968.87,260.01 966.83,255.61 964.35,251.93 M942.31,251.93 Q939.43,258.69 937.95,266.41 936.07,276.17 933.67,285.65 928.03,307.85 923.63,330.53 921.23,343.05 918.87,355.37 M735.39,256.85 Q739.91,263.77 743.67,271.41 752.83,290.09 761.27,308.97 768.79,325.81 773.63,344.05 M715.83,231.09 Q712.75,227.89 709.31,231.09 709.19,231.21 709.19,231.45 M678.31,344.05 Q680.27,337.81 682.79,331.77 691.91,310.21 701.19,288.57 707.99,272.65 716.59,258.25 716.99,257.53 717.43,256.85 M521.19,242.33 Q528.67,253.17 532.47,262.81 541.35,285.33 549.27,308.73 554.55,324.21 559.79,339.77" test="JurorsBack"/>
    </g>
    <g id="Tween-1">
      <g id="JurorsFront">
        <path fill="#000" stroke="none" d="M862.426,275.215 Q855.697,275.896 849.049,277.979 847.447,278.459 845.805,278.82 L845.445,279.42 845.685,280.101 850.571,278.78 845.685,280.101 Q839.197,282.624 833.47,286.669 826.942,291.355 822.336,297.924 818.211,303.771 815.687,310.579 813.284,317.188 812.564,324.196 811.803,331.365 812.844,338.374 813.965,345.823 817.249,352.632 820.373,359.2 825.7,364.246 831.067,369.333 837.715,372.817 842.085,375.139 846.806,376.301 849.694,377.041 852.694,377.343 859.542,378.344 866.391,376.902 866.96,376.781 867.512,376.622 874.082,375.113 880.128,372.016 886.576,368.612 891.823,363.646 897.109,358.559 900.874,352.031 904.478,345.903 906.2,338.975 907.923,332.126 907.442,325.117 906.921,317.788 904.759,310.86 902.636,304.051 898.791,298.164 894.946,292.236 889.78,287.15 884.293,281.823 877.405,278.659 870.356,275.415 862.426,275.215 M838.716,317.668 L833.269,317.027 838.716,317.668 M858.581,311.781 L864.028,312.422 858.581,311.781 M858.261,361.122 Q861.064,361.122 863.027,359.721 864.989,358.319 864.989,356.316 864.989,358.319 863.027,359.721 861.064,361.122 858.261,361.122 M639.387,260.917 L638.787,262.84 Q600.859,260.757 585.841,295.16 577.35,314.664 582.076,335.33 588.364,362.885 615.958,372.817 620.563,374.409 625.69,375.621 628.016,376.159 630.416,376.622 631.424,376.808 632.939,376.862 634.432,376.854 636.344,376.622 637.676,376.465 638.947,376.261 669.969,371.234 680.038,337.573 690.531,302.489 664.619,276.377 653.885,265.643 639.387,260.917 M646.476,306.254 L650.321,309.178 646.476,306.254 M614.757,309.178 L618.601,312.101 614.757,309.178 M614.677,350.509 Q615.357,350.349 616.038,350.229 615.357,350.349 614.677,350.509 609.39,351.991 606.747,347.345 609.39,351.991 614.677,350.509 M463.528,356.917 Q468.734,337.453 460.244,319.31 453.515,304.932 442.902,293.158 432.289,281.423 416.709,279.701 395.803,279.941 416.589,280.021 397.245,282.544 381.505,293.959 364.564,306.214 360.519,326.599 356.514,346.825 364.765,365.528 372.454,383.07 388.314,393.883 395.432,398.687 403.573,399.931 406.437,400.371 409.42,400.371 411.812,400.691 414.106,400.772 430.96,401.351 443.983,389.278 458.441,375.941 463.528,356.917 M408.139,327 Q410.021,328.121 410.021,329.723 410.021,328.121 408.139,327 406.256,325.878 403.613,325.878 406.256,325.878 408.139,327 M430.366,327.841 Q432.449,329.162 432.449,331.005 432.449,329.162 430.366,327.841 428.324,326.519 425.4,326.519 428.324,326.519 430.366,327.841 M381.826,361.763 L401.05,368.171 381.826,361.763 M1358.445,271.811 L1357.844,269.888 Q1355.842,270.609 1353.919,271.45 1336.498,278.339 1324.723,292.837 1312.348,308.056 1313.189,327.721 1313.99,346.945 1324.002,363.445 1329.209,372.056 1345.389,380.026 1353.708,384.102 1360.448,385.833 1366.733,387.459 1371.662,387.075 1374.344,386.859 1377.629,385.553 1385.934,382.243 1398.095,371.976 1405.023,366.129 1410.15,360.402 1415.356,354.594 1416.277,351.59 1419.922,339.936 1419.601,327.681 1419.041,308.056 1407.827,292.196 1402.74,285.067 1395.091,280.502 1378.23,270.409 1358.445,271.811 M1341.824,319.711 L1337.859,322.634 1341.824,319.711 M1378.51,310.739 L1374.505,313.663 1378.51,310.739 M1373.944,364.687 Q1372.823,364.487 1371.702,364.326 1372.823,364.487 1373.944,364.687 1385.479,366.289 1391.566,356.316 1385.479,366.289 1373.944,364.687 M1138.37,276.176 Q1129.679,273.413 1120.788,275.816 1112.218,278.019 1104.808,282.865 1097.519,287.591 1091.231,293.798 1084.823,300.206 1080.738,308.377 1076.613,316.747 1075.612,325.918 1074.611,335.05 1076.693,343.941 1078.776,353.032 1083.342,361.042 1087.907,369.012 1094.435,375.46 1101.204,382.109 1109.654,386.354 1114.317,388.753 1119.266,390.039 1123.111,391.052 1127.116,391.4 1129.611,391.304 1132.082,391 1138.876,390.24 1145.459,388.036 1154.47,385.032 1162.04,379.185 1169.569,373.298 1174.215,364.767 1178.5,356.877 1180.623,348.226 1182.746,339.576 1181.985,330.644 1181.184,321.273 1177.019,312.702 1173.054,304.492 1167.086,297.643 1161.279,290.995 1154.631,285.148 1147.502,278.98 1138.37,276.176 M1146.14,314.985 Q1148.223,316.306 1148.223,318.149 1148.223,316.306 1146.14,314.985 1144.097,313.663 1141.174,313.663 1144.097,313.663 1146.14,314.985 M1114.941,312.502 Q1116.823,313.623 1116.823,315.225 1116.823,313.623 1114.941,312.502 1113.059,311.38 1110.415,311.38 1113.059,311.38 1114.941,312.502 M1108.373,368.812 Q1108.253,368.932 1108.253,369.172 1108.253,368.932 1108.373,368.812 1111.817,365.608 1114.901,368.812 1111.817,365.608 1108.373,368.812 M1559.776,289.553 Q1552.407,295.761 1548.162,304.291 1544.197,312.221 1542.675,320.832 1541.113,329.563 1542.395,338.294 1543.756,347.666 1548.442,355.716 1553.088,363.686 1560.417,369.172 1568.027,374.779 1577.078,377.062 1578.741,377.467 1580.402,377.703 1586.281,378.659 1592.177,377.823 1593.884,377.602 1595.581,377.222 1604.672,375.26 1612.562,370.614 1620.692,365.968 1626.42,358.719 1632.187,351.43 1634.87,342.539 1637.473,334.049 1636.793,325.077 1636.112,316.347 1632.908,308.296 1629.423,299.686 1623.616,292.437 1617.969,285.428 1610.079,281.022 1602.31,276.697 1593.338,276.777 1584.007,276.857 1574.915,278.78 L1574.555,279.42 1574.835,280.141 1579.681,278.78 1574.835,280.141 Q1566.705,283.746 1559.776,289.553 M1587.691,311.781 L1593.138,312.422 1587.691,311.781 M1567.826,317.668 L1562.38,317.027 1567.826,317.668 M1587.371,361.122 Q1590.174,361.122 1592.137,359.721 1594.099,358.319 1594.099,356.316 1594.099,358.319 1592.137,359.721 1590.174,361.122 1587.371,361.122Z" test="JurorsFront" vector-effect="non-scaling-stroke" stroke-width="1"/>
        <path id="Layer4_0_1_STROKES" stroke="#FFF" stroke-width="1.602" stroke-linejoin="round" stroke-linecap="round" fill="none" d="M1574.835,280.141 Q1566.705,283.746 1559.776,289.553 1552.407,295.761 1548.162,304.291 1544.197,312.221 1542.675,320.832 1541.113,329.563 1542.395,338.294 1543.756,347.666 1548.442,355.716 1553.088,363.686 1560.417,369.172 1568.027,374.779 1577.078,377.062 1578.741,377.467 1580.402,377.723 1586.281,378.659 1592.197,377.843 1593.884,377.602 1595.581,377.222 1604.672,375.26 1612.562,370.614 1620.692,365.968 1626.42,358.719 1632.187,351.43 1634.87,342.539 1637.473,334.049 1636.793,325.077 1636.112,316.347 1632.908,308.296 1629.423,299.686 1623.616,292.437 1617.969,285.428 1610.079,281.022 1602.31,276.697 1593.338,276.777 1584.007,276.857 1574.915,278.78 L1574.555,279.42 M1579.681,278.78 L1574.835,280.141 M1587.691,311.781 L1593.138,312.422 M1567.826,317.668 L1562.38,317.027 M1127.116,391.4 Q1129.611,391.304 1132.082,391.02 1138.876,390.24 1145.459,388.036 1154.47,385.032 1162.04,379.185 1169.569,373.298 1174.215,364.767 1178.5,356.877 1180.623,348.226 1182.746,339.576 1181.985,330.644 1181.184,321.273 1177.019,312.702 1173.054,304.492 1167.086,297.643 1161.279,290.995 1154.631,285.148 1147.502,278.98 1138.37,276.176 1129.679,273.413 1120.788,275.816 1112.218,278.019 1104.808,282.865 1097.519,287.591 1091.231,293.798 1084.823,300.206 1080.738,308.377 1076.613,316.747 1075.612,325.918 1074.611,335.05 1076.693,343.941 1078.776,353.032 1083.342,361.042 1087.907,369.012 1094.435,375.46 1101.204,382.109 1109.654,386.354 1114.317,388.753 1119.286,390.059 1123.111,391.052 1127.116,391.4Z M1141.174,313.663 Q1144.097,313.663 1146.16,314.985 1148.223,316.306 1148.223,318.149 M1110.415,311.38 Q1113.059,311.38 1114.941,312.502 1116.823,313.623 1116.823,315.225 M1358.445,271.811 Q1378.23,270.409 1395.091,280.502 1402.74,285.067 1407.827,292.196 1419.041,308.056 1419.601,327.681 1419.922,339.936 1416.277,351.59 1415.356,354.594 1410.15,360.402 1405.023,366.129 1398.095,371.976 1385.934,382.243 1377.629,385.553 1374.344,386.859 1371.662,387.075 1366.733,387.459 1360.468,385.853 1353.708,384.102 1345.389,380.026 1329.209,372.056 1324.002,363.445 1313.99,346.945 1313.189,327.721 1312.348,308.056 1324.723,292.837 1336.498,278.339 1353.919,271.45 1355.842,270.609 1357.844,269.909 M1341.824,319.711 L1337.859,322.634 M1378.51,310.739 L1374.505,313.663 M1391.566,356.316 Q1385.479,366.289 1373.944,364.687 1372.823,364.487 1371.702,364.326 M1417.799,493.247 Q1414.675,466.935 1405.063,443.465 1395.652,420.356 1385.279,397.768 1383.237,393.363 1380.753,389.678 M1358.685,389.678 Q1355.815,396.441 1354.32,404.176 1352.438,413.948 1350.035,423.44 1344.388,445.668 1339.982,468.376 1337.579,480.912 1335.216,493.247 M1077.334,481.913 Q1079.297,475.665 1081.82,469.618 1090.951,448.031 1100.243,426.364 1107.066,410.41 1115.642,396.006 1116.058,395.303 1116.483,394.604 M1134.485,394.604 Q1139.005,401.552 1142.776,409.182 1151.947,427.886 1160.398,446.789 1167.927,463.65 1172.773,481.913 M1114.901,368.812 Q1111.817,365.608 1108.373,368.812 1108.253,368.932 1108.253,369.172 M1587.371,361.122 Q1590.174,361.122 1592.137,359.721 1594.099,358.319 1594.099,356.316 M1540.152,510.108 Q1544.638,482.995 1552.207,457.002 1555.491,445.708 1558.615,434.294 1565.504,409.142 1575.676,386.794 1577.035,383.838 1578.52,381.067 M1594.219,381.067 Q1603.085,395.68 1609.358,413.187 1618.289,438.058 1626.219,463.851 1631.506,480.992 1636.712,498.214 M403.613,325.878 Q406.256,325.878 408.139,327 410.021,328.121 410.021,329.723 M425.4,326.519 Q428.324,326.519 430.386,327.841 432.449,329.162 432.449,331.005 M416.589,280.021 Q397.245,282.544 381.505,293.959 364.564,306.214 360.519,326.599 356.514,346.825 364.765,365.528 372.454,383.07 388.314,393.883 395.432,398.687 403.573,399.931 406.437,400.371 409.42,400.371 411.812,400.691 414.126,400.772 430.96,401.351 443.983,389.278 458.441,375.941 463.528,356.917 468.734,337.453 460.244,319.31 453.515,304.932 442.902,293.158 432.289,281.423 416.729,279.701 M639.387,260.937 L630.777,259.476 M638.787,262.84 Q600.859,260.757 585.841,295.16 577.35,314.664 582.076,335.33 588.364,362.885 615.958,372.817 620.563,374.409 625.69,375.621 628.016,376.159 630.436,376.622 631.424,376.808 632.939,376.862 634.432,376.854 636.364,376.622 637.676,376.465 638.947,376.261 669.969,371.234 680.038,337.573 690.531,302.489 664.619,276.377 653.885,265.643 639.387,260.937 M646.476,306.254 L650.321,309.178 M614.757,309.178 L618.601,312.101 M606.747,347.345 Q609.39,351.991 614.677,350.509 615.357,350.349 616.038,350.229 M845.705,280.121 Q839.197,282.624 833.47,286.669 826.942,291.355 822.336,297.924 818.211,303.771 815.687,310.579 813.284,317.188 812.564,324.196 811.803,331.365 812.844,338.374 813.965,345.823 817.249,352.632 820.373,359.2 825.7,364.246 831.067,369.333 837.715,372.817 842.085,375.139 846.826,376.321 849.694,377.041 852.694,377.343 859.542,378.344 866.391,376.902 866.96,376.781 867.532,376.642 874.082,375.113 880.128,372.016 886.576,368.612 891.823,363.646 897.109,358.559 900.874,352.031 904.478,345.903 906.2,338.975 907.923,332.126 907.442,325.117 906.921,317.788 904.759,310.86 902.636,304.051 898.791,298.164 894.946,292.236 889.78,287.15 884.293,281.823 877.405,278.659 870.356,275.415 862.426,275.215 855.697,275.896 849.049,277.979 847.447,278.459 845.805,278.82 L845.445,279.42 M850.571,278.78 L845.705,280.121 M838.716,317.668 L833.269,317.027 M858.581,311.781 L864.028,312.422 M360.079,490.924 Q368.049,471.741 376.9,452.997 385.11,435.615 393.641,418.674 396.485,413.007 400.729,405.137 M858.261,361.122 Q861.064,361.122 863.027,359.721 864.989,358.319 864.989,356.316 M868.954,380.066 Q876.43,390.937 880.248,400.572 889.139,423.12 897.069,446.549 902.356,462.048 907.602,477.628 M811.763,484.837 Q812.724,479.03 814.326,473.302 820.333,451.635 826.381,429.888 832.909,406.539 842.481,385.152 843.135,383.695 845.164,379.666 M641.57,380.226 Q662.932,412.903 672.589,446.589 678.676,467.936 685.124,488.962 M576.629,488.962 Q584.118,444.987 605.986,407.54 613.448,394.713 622.727,380.226 M416.309,405.137 Q421.153,414.792 425.08,422.319 434.291,439.901 442.582,457.923 449.991,473.983 455.117,490.924 M381.826,361.763 L401.05,368.171" test="JurorsFront"/>
      </g>
    </g>
    <g id="Parrot">
      <path id="Layer2_0_1_STROKES" stroke="#FFF" stroke-width="2" stroke-linejoin="round" stroke-linecap="round" fill="none" d="M1979.55,248.4 Q1983.25,248.85 1986.55,251.8 1990.55,255.35 1989.05,261 1987.55,266.65 1984.75,269.5 1981.95,272.3 1978.35,272.2 1974.7,272.1 1972.1,270 1969.45,267.9 1968.8,264.35 1968.2,260.95 1969.05,257.8 1969.85,254.95 1970.9,253.25 1971.9,251.5 1974,250.4 1976.05,249.25 1979.55,248.4Z M1979.95,260.15 Q1979.45,259.5 1978.7,259.4 1977.9,259.3 1977.85,259.3 1977.55,259.3 1977.2,259.6 1976.35,260.35 1977.05,261.85 1977.65,263.1 1979,262.6 1979.95,262.25 1980.1,261.55 1980.25,261.05 1980.25,260.85 1980.3,260.45 1979.95,260.15Z M1935.2,250.9 Q1937.4,250.7 1940.35,254.1 1943.25,257.4 1943.05,262.05 1942.85,266.6 1940.75,269.4 1938.7,272.15 1935.15,272.05 1931.55,271.9 1928.75,269.65 1925.6,267.25 1925.75,263.45 1926,258.25 1927.75,255.15 1930.15,250.85 1935.2,250.9Z M1937.85,261.7 Q1937.5,261.1 1936.85,261.05 1936.1,260.95 1936.05,260.95 1935.85,260.95 1935.5,261.2 1934.75,261.9 1935.4,263.25 1935.95,264.4 1937.05,263.9 1937.85,263.6 1938,262.95 1938.1,262.55 1938.1,262.35 1938.2,262 1937.85,261.7Z" test="Parrot"/>
      <path id="Layer2_0_2_STROKES" stroke="#F00" stroke-width="2" stroke-linejoin="round" stroke-linecap="round" fill="none" d="M2001.1,278.8 Q2004.1,279.4 2004.85,279.5 2005.6,279.6 2007.1,279.6 2009.25,279.6 2013.1,277.2 M1994.7,304.4 L1996.15,304.8 Q1997.85,305.2 1999.1,305.2 1999.85,305.2 2001.95,303.8 2003.9,302.5 2004.3,302 M2037.1,327.7 Q2028.25,318.1 2025.35,305.45 2022.9,294.65 2024.4,279 2025.75,265.2 2018.7,252.3 2010.9,238.05 1998.15,232.55 1985.4,227 1975.55,226.05 1965.7,225.05 1956.3,228.5 1946.85,231.95 1939.95,238.9 1933.1,245.75 1932.85,247.3 M1931,316.8 Q1930.55,329.85 1924.05,340.45 M1963.5,305.2 Q1965.75,307.7 1967.2,310.45 1967.4,310.8 1969.9,310.8 1971.2,310.8 1972.95,310.3 1973.3,310.2 1976.3,309.2" test="Parrot"/>
      <path id="Layer2_0_3_STROKES" stroke="#0FF" stroke-width="2" stroke-linejoin="round" stroke-linecap="round" fill="none" d="M1928.65,333.85 L1928,337.75 Q1928.9,338.2 1930,338.3 1930.7,338.4 1932.2,338.4 1936.35,338.4 1939.45,334.85 1942.6,331.25 1944.9,331.25 1945.7,331.25 1950.1,331.9 1954.45,332.55 1955.3,332.55 1960.25,332.55 1961.25,330.3 1962.2,328 1966,328 1966.85,328 1969.95,328.65 1973.1,329.3 1973.9,329.3 1974.45,329.3 1976.4,327.35 1978.3,325.4 1980.7,325.4 1981.55,325.4 1984.8,326.05 1988.05,326.7 1988.85,326.7 1989.75,326.7 1992.25,325.4 1993.5,324.75 1994.7,324.1 1994.85,324.1 1997.85,325.4 2001.2,326.7 2002.8,326.7 2004.85,326.7 2007.5,325.75 2008.8,325.25 2009.95,324.75 2011.95,324.75 2022,327.05 2030.35,328.95 2034.1,329.25 2034.85,329.3 2035.4,329.3 M1964.45,352.15 Q1963.9,354 1962.1,370.8 1960.35,387.05 1959.25,389.9 1957.7,394.1 1957.15,404.8 1956.55,416.15 1957.95,423.1 1959.5,430.8 1966.75,451.85 1974.2,473.45 1977.5,479.1 1979.05,481.8 1983.75,489.1 1987.55,495 1990.5,500.6 1994.4,508 1997.5,510.95 2000.65,514 2005.5,514.95 2008.75,515.6 2013.8,516.8 2017.2,517.2 2017.2,514.3 2017.2,506.2 2025.65,510.4 2031.6,513.35 2033.65,513.75 2036.95,514.4 2038.7,511.7 2040,509.75 2041.75,506.4 2043.65,503.8 2047.8,502.55 2050.5,501.75 2052.9,503.55 2053.55,504.05 2055,498.65 2056.65,492.55 2059.25,485.85 L2061.5,480.4 Q2062.15,476.5 2064.1,467.4 2065.8,459.4 2065,449.3 2064,437.1 2059.55,427.7 2059.3,427.2 2048.15,405.15 2041.05,391.05 2038.7,384.05 2036.95,378.8 2033.6,371.45 2031.25,366.35 2030.9,363.2 M2066.55,383.7 Q2065.95,383.35 2065.05,383.35 2064.9,383.35 2057.25,385.95 2055.6,385.05 2053.6,384 2053.25,385.9 2051.9,387.35 2050.75,388.55 2050,388.55 2048.35,388.55 2047,387.35 2045.9,386.4 2045.8,386.6 2044.95,387.5 2043.7,388.1 2042.25,388.75 2041.25,388.55 M2038.65,332.55 Q2065.7,358.4 2066,383.35 L2066.65,383.35 M1924.05,340.45 Q1919.6,352.35 1915.95,364.65 1912.3,376.9 1909.25,389.35 1907.3,397.25 1904.9,405.05 1901.05,417.5 1900.1,430.45 1899.9,433.5 1900.1,436.45 1900.85,449.3 1898.8,462.2 1898.15,466.5 1896.25,470.4 1894.85,473.25 1893.5,476.05 1891.75,473.7 1891.25,470.6 1887.3,446.2 1889.15,421.75 1889.45,417.85 1890.15,413.95 1891.35,407.5 1892.4,401.05 1893.4,395.1 1895.6,389.45 1900.15,377.7 1905,366.15 1911.4,351.1 1924.05,340.45Z M1911,400.95 Q1913.6,403.4 1916.65,404 1917.55,404.2 1920.85,404.2 1922.7,404.2 1923.55,402.6 1924.4,400.95 1927.35,400.95 1929.3,400.95 1933.6,401.35 1937.45,401.6 1939.7,400.95 1945.25,399.4 1950.3,399.05 1951.65,398.95 1955.95,398.95" test="Parrot"/>
      <path id="Layer2_0_4_STROKES" stroke="#0F0" stroke-width="2" stroke-linejoin="round" stroke-linecap="round" fill="none" d="M2070.4,409.95 Q2071.2,408.7 2071.2,406.5 2071.2,404.95 2069.05,395.35 2066.8,385.6 2066,384" test="Parrot"/>
      <path id="Layer2_0_5_STROKES" stroke="#FF0" stroke-width="2" stroke-linejoin="round" stroke-linecap="round" fill="none" d="M2067.3,443.2 L2073.15,443.2 Q2072.85,441.8 2073.9,438 2075.1,433.85 2075.1,432.8 2075.1,426.5 2073.2,418.45 2071.6,411.65 2070.4,409.95 M1931.3,277.85 Q1920.8,283.2 1919.7,292.9 1919.2,297.35 1918.9,301.9 1934.45,304.55 1940.55,300.2 1942.6,293.3 1939.5,288.05 1936.35,282.75 1934.85,281.3 1933.35,279.8 1931.3,277.85Z M1924.75,303.2 Q1922.7,313.6 1933.6,314.3 1935.6,314.15 1937.25,313.35 1941.25,310.45 1939.7,301.8 M1903.85,457.6 Q1906.6,459.95 1907.75,461.3 1908.05,461.5 1911.3,461.5 1913.9,461.5 1922.5,458.25 1929.45,455.65 1931.5,455.15 1931.75,455.05 1931.9,455.05 1931.95,456 1936.5,456.25 1937.45,456.3 1942.3,456.3 1944.2,456.3 1948.15,455.35 1952.1,454.35 1953.65,454.35 1956.05,454.35 1956.25,454.3 1957.5,453.9 1957.9,451.65 1965.7,453.45 1963.75,452.95 M1931.5,455.15 Q1931.25,455.25 1931.45,455.6 1931.9,456.3 1931.9,455.05 M1917.5,501.9 Q1913.55,504.95 1912.65,507.45 1912.3,508.5 1912.3,512.6 1912.3,518 1915.45,519.75 1917.85,521.05 1927.35,522.05 1927.35,520.45 1927.05,519.1 1929.05,519.85 1931.9,520.75 L1935.15,520.75 Q1933.85,519.05 1932.8,517.65 1935.05,518.45 1937.1,519.45 L1941.65,519.45 1941.65,516.2 Q1938.05,513 1936.9,507.3 1936.3,501.75 1935.8,500.6 1935.15,500.6 1933.85,499.95 M1949.45,502.55 Q1948.6,512.75 1950.35,515.75 1951.85,518.35 1957.9,518.8 L1957.9,514.9 Q1957.35,513.8 1956.8,510.9 1956.95,511.1 1957.05,511.35 1959.9,517.1 1965.05,518.15 L1965.05,513 Q1965.7,514.05 1966.5,515.05 1969.1,518.15 1972.2,518.8 L1972.9,518.8 Q1973.25,516.7 1972.15,512.95 1970.9,508.8 1970.9,507.1 1970.9,503.65 1973.55,501.9 M1985.9,507.75 Q1985.1,520.55 1994.35,544.15 1998.3,554.25 2002.2,560.7 2006.4,567.6 2009,567.6 2012.7,567.6 2013.6,567.2 2016.65,565.85 2017.1,560.45 2019.45,561.6 2025.55,562.4 2030.9,562.4 2032.65,556.9 2033.75,553.5 2033.95,553.1 2034.9,551.35 2036.7,551.35 2037.4,551.35 2044.5,553.95 2045.6,553.95 2047.45,550.7 2049.45,547.2 2051,546.8 2054.7,545.75 2059.9,545 2063.6,544.05 2065.35,540.3 2066.4,540.3 2068.2,540.65 2070,540.95 2070.55,540.95 L2070.55,519.45 Q2067.95,510.55 2065.2,498.4 2063.1,489.2 2061.45,485" test="Parrot"/>
      <path id="Layer2_0_6_STROKES" stroke="#F0F" stroke-width="2" stroke-linejoin="round" stroke-linecap="round" fill="none" d="M1893.5,476.05 L1894.5,485.15 Q1896.1,495 1899.35,498.65 1901,500.5 1901.95,502.8 1902.5,504.05 1903.1,505.95 1903.6,507.3 1904.45,507.45 1905.5,507.6 1907.8,506.45 1910.85,504.95 1913.4,502 1915.15,499.95 1917.55,499.95 1919.85,499.95 1925.65,500.85 1930.8,501.3 1933.2,499.3 1935.55,497.35 1940.3,498.5 1943,499.15 1948.85,500.6 1951.8,500.95 1956.15,501.8 1959.65,502.2 1962.5,500.6 1965.45,498.95 1968.45,499.05 1970.35,499.15 1974.9,499.95 1977.5,500.3 1980.35,501.35 1982.15,501.7 1983.35,499.3 M2066.65,485 Q2069,473 2070.35,464.7 2071.45,458.2 2073.15,445.8 M2028.25,630.15 Q2031.05,638.25 2031.8,639.45 2032.9,641.2 2035.7,641.2 2036.75,641.2 2037.05,641.1 2038.45,640.45 2039.95,637.95 2058.65,656.8 2059.85,656.8 2067.35,656.8 2070.55,643.85 2072.5,636.05 2072.5,626.6 2072.5,620.65 2071.2,615 2070.35,611.3 2068.6,606.7" test="Parrot"/>
      <path id="Layer2_0_7_STROKES" stroke="#F60" stroke-width="2" stroke-linejoin="round" stroke-linecap="round" fill="none" d="M2010.6,572.15 Q2010.1,571.35 2009.55,570.55 2008.4,568.9 2008,568.9 L2008,572.15 Q2009.25,579.75 2017.6,602.2 2027.45,628.85 2032.45,628.85 2034.6,628.85 2039.5,624.65 2044.05,620.4 2044.15,620.4 2045,620.4 2047.4,621.05 2049.85,621.7 2050.65,621.7 2053.1,621.7 2055.5,616.8 2057.15,613.4 2057.55,611.25 2063.2,611.25 2066.05,608.35 2068.9,605.4 2071.85,605.4 2071.85,603.15 2072.2,598.15 2072.5,593.15 2072.5,592.65 2072.5,588.1 2069.6,578 2066.3,566.6 2066,564.35 2065.5,560.85 2065.7,554.8 2066,548.45 2066,546.15 L2065.35,546.15" test="Parrot"/>
    </g>
    <g id="JuryBoxFront">
      <path fill="#000" stroke="none" d="M113.8,514.35 L91.5,488.3 89.65,617.25 Q97.828,617.251 109.3,617.25 L113.8,514.35 M3055.85,500.95 L3054.5,500.95 3036.65,518.5 3036.65,613 Q3047.134,613.017 3055.85,613 L3055.85,500.95 M2884.4,512.95 Q2809.9,514.65 2735.55,518.9 2660.1,522.55 2584.6,523 2507.2,523.45 2429.8,523.35 2354.3,523.25 2278.8,523 2199,522.75 2119.2,521.8 2040.5,520.9 1961.85,519.6 1883.75,518.35 1805.65,520.35 1728.35,522.3 1651,526.5 1575.75,529.75 1500.35,528.6 1420.95,527.35 1341.6,522.45 1267.65,517.5 1193.4,516.45 1119.5,515.45 1045.55,516.1 966.2,516.8 886.85,518 807.2,519.25 727.6,520.45 648.55,521.65 569.4,522.95 492.4,524.25 415.35,524.85 338.6,525.45 261.65,523.95 187.5,522.5 113.8,514.35 L109.3,617.25 Q315.258,617.16 1584.1,615.15 2791.973,613.195 3036.65,613 L3036.65,518.5 Q2960.7,511.25 2884.4,512.95 M2716.7,502.85 Q2711.494,503.094 2706.3,503.3 2630.35,505.8 2554.4,505.8 2531.386,505.8 2508.35,505.8 2452.821,505.815 2397.25,505.85 2389.012,505.856 2380.75,505.85 2309.457,505.781 2238.1,504.75 2215.225,504.422 2192.35,503.75 2169.468,503.598 2146.55,503.4 2129.402,503.302 2112.2,503.15 2095.036,502.697 2077.85,502.45 1998.15,501.35 1918.4,500.55 1856.363,499.94 1794.35,502.65 1785.256,503.077 1776.15,503.55 1701.1,507 1626.2,510.95 L1466.15,511.75 Q1385.85,507.9 1305.65,502.95 1233,497.9 1159.9,497.2 1080.85,496.4 1001.9,497.5 924.8,498.6 847.6,500.15 774.95,501.65 702.25,503.2 628.35,504.75 554.35,505.95 476.4,507.2 398.25,506.2 322.55,505.25 246.95,500.25 169.15,495.6 91.5,488.3 L113.8,514.35 Q187.5,522.5 261.65,523.95 338.6,525.45 415.35,524.85 492.4,524.25 569.4,522.95 648.55,521.65 727.6,520.45 807.2,519.25 886.85,518 966.2,516.8 1045.55,516.1 1119.5,515.45 1193.4,516.45 1267.65,517.5 1341.6,522.45 1420.95,527.35 1500.35,528.6 1575.75,529.75 1651,526.5 1728.35,522.3 1805.65,520.35 1883.75,518.35 1961.85,519.6 2040.5,520.9 2119.2,521.8 2199,522.75 2278.8,523 2354.3,523.25 2429.8,523.35 2507.2,523.45 2584.6,523 2660.1,522.55 2735.55,518.9 2809.9,514.65 2884.4,512.95 2960.7,511.25 3036.65,518.5 L3054.5,500.95 3054.55,500.15 Q3036.162,498.494 3017.75,496.85 3003.652,495.536 2989.55,494.6 2929.585,490.798 2869.4,494.4 2793.131,499.691 2716.7,502.85Z" test="JuryBoxFront"/>
      <path id="Layer1_0_1_STROKES" stroke="#F60" stroke-width="2" stroke-linejoin="round" stroke-linecap="round" fill="none" d="M3054.575,500.175 Q3036.162,498.494 3017.75,496.85 3003.652,495.536 2989.55,494.625 2929.585,490.798 2869.4,494.4 2793.131,499.691 2716.7,502.875 2711.494,503.094 2706.3,503.3 2630.35,505.8 2554.4,505.8 2531.386,505.8 2508.375,505.8 2452.821,505.815 2397.25,505.85 2389.012,505.856 2380.775,505.85 2309.457,505.781 2238.1,504.75 2215.225,504.422 2192.35,503.775 2169.468,503.598 2146.575,503.425 2129.402,503.302 2112.225,503.175 2095.036,502.697 2077.85,502.45 1998.15,501.35 1918.4,500.55 1856.363,499.94 1794.375,502.675 1785.256,503.077 1776.15,503.55 1701.1,507 1626.2,510.95 L1466.15,511.75 Q1385.85,507.9 1305.65,502.95 1233,497.9 1159.9,497.2 1080.85,496.4 1001.9,497.5 924.8,498.6 847.6,500.15 774.95,501.65 702.25,503.2 628.35,504.75 554.35,505.95 476.4,507.2 398.25,506.2 322.55,505.25 246.95,500.25 169.15,495.6 91.5,488.3 L113.8,514.35 Q187.5,522.5 261.65,523.95 338.6,525.45 415.35,524.85 492.4,524.25 569.4,522.95 648.55,521.65 727.6,520.45 807.2,519.25 886.85,518 966.2,516.8 1045.55,516.1 1119.5,515.45 1193.4,516.45 1267.65,517.5 1341.6,522.45 1420.95,527.35 1500.35,528.6 1575.75,529.75 1651,526.5 1728.35,522.3 1805.65,520.35 1883.75,518.35 1961.85,519.6 2040.5,520.9 2119.2,521.8 2199,522.75 2278.8,523 2354.3,523.25 2429.8,523.35 2507.2,523.45 2584.6,523 2660.1,522.55 2735.55,518.9 2809.9,514.65 2884.4,512.95 2960.7,511.25 3036.65,518.5 L3054.5,500.95 M3054.575,500.175 Q3055.212,500.242 3055.85,500.3 L3055.85,500.95 3055.85,613 3055.85,624.2 M3036.65,624.2 L3036.65,613.025 M109.3,617.25 L109,624.2 M3036.65,613.025 L3036.65,518.5 M89.55,624.2 L89.65,617.25 91.5,488.3 M113.8,514.35 L109.3,617.25" test="JuryBoxFront"/>
    </g>
  </g>
</svg>