<?xml version="1.0" encoding="utf-8"?>
<svg id="EdithAnim12" image-rendering="inherit" baseProfile="basic" version="1.1" x="0px" y="0px" width="800" height="600" xmlns="http://www.w3.org/2000/svg" xmlns:xlink="http://www.w3.org/1999/xlink">
  <g id="14_JurorParrotf151r1" overflow="visible">
    <g id="Parrot">
      <path id="Layer2_0_1_STROKES" stroke="#FFF" stroke-width="2.346" stroke-linejoin="round" stroke-linecap="round" fill="none" d="M315.996,741.313 Q312.074,739.38 309.566,734.834 306.515,729.352 310.368,723.679 314.221,718.007 318.426,715.938 322.612,713.925 326.558,715.432 330.56,716.959 332.624,720.293 334.742,723.646 334.084,727.828 333.429,731.824 331.266,734.982 329.275,737.826 327.453,739.301 325.667,740.85 322.915,741.253 320.2,741.73 315.996,741.313Z M320.112,728.151 Q320.413,729.064 321.205,729.466 322.051,729.887 322.107,729.907 322.439,730.023 322.943,729.827 324.175,729.326 323.982,727.394 323.802,725.778 322.114,725.807 320.927,725.826 320.489,726.543 320.129,727.038 320.051,727.26 319.841,727.683 320.112,728.151Z M366.061,755.754 Q363.548,755.121 361.602,750.213 359.672,745.435 361.697,740.365 363.684,735.406 367.095,733.121 370.432,730.872 374.323,732.36 378.25,733.923 380.476,737.5 383.032,741.379 381.392,745.527 379.097,751.187 375.957,753.939 371.632,757.768 366.061,755.754Z M367.318,742.77 Q367.473,743.57 368.173,743.877 368.964,744.279 369.019,744.298 369.241,744.376 369.725,744.235 370.827,743.751 370.631,742.005 370.469,740.518 369.057,740.645 368.055,740.667 367.637,741.328 367.371,741.732 367.293,741.953 367.047,742.302 367.318,742.77Z" test="Parrot"/>
      <path id="Layer2_0_2_STROKES" stroke="#F00" stroke-width="2.346" stroke-linejoin="round" stroke-linecap="round" fill="none" d="M303.935,699.299 Q300.847,697.471 300.055,697.069 299.264,696.668 297.603,696.085 295.223,695.251 290.03,696.414 M320.953,673.443 L319.503,672.438 Q317.776,671.335 316.392,670.85 315.562,670.559 312.694,671.294 310.031,671.977 309.394,672.375 M283.056,631.199 Q289.128,645.26 287.43,660.389 285.952,673.295 278.219,690.037 271.371,704.79 274.17,721.806 277.275,740.607 289.256,751.642 301.216,762.733 311.752,767.607 322.268,772.536 334.012,772.364 345.812,772.211 356.147,767.195 366.388,762.269 367.266,760.651 M396.28,684.432 Q401.841,670.16 413.149,660.948 M355.801,684.663 Q354.281,681.023 353.742,677.416 353.657,676.951 350.889,675.981 349.45,675.476 347.319,675.351 346.893,675.326 343.184,675.269" test="Parrot"/>
      <path id="Layer2_0_3_STROKES" stroke="#0FF" stroke-width="2.346" stroke-linejoin="round" stroke-linecap="round" fill="none" d="M405.496,666.469 L407.729,662.404 Q406.908,661.557 405.729,661.019 404.993,660.637 403.332,660.055 398.738,658.445 393.929,661.172 389.045,663.935 386.499,663.043 385.613,662.732 380.995,660.305 376.431,657.898 375.491,657.568 370.011,655.648 368.031,657.75 366.087,659.928 361.88,658.454 360.939,658.124 357.76,656.201 354.525,654.26 353.639,653.949 353.03,653.736 350.115,655.138 347.255,656.559 344.599,655.628 343.658,655.298 340.312,653.318 336.966,651.337 336.081,651.027 335.085,650.678 331.813,651.147 330.177,651.381 328.596,651.635 328.43,651.577 325.613,648.974 322.409,646.235 320.638,645.614 318.369,644.819 315.067,644.842 313.434,644.891 311.967,644 309.753,644.223 299.52,637.777 291.013,632.434 286.979,630.647 286.168,630.301 285.559,630.087 M372.966,632.321 Q374.293,630.486 382.804,612.587 391.046,595.277 393.37,592.549 396.715,588.501 401.476,576.87 406.544,564.538 407.69,556.301 408.962,547.176 409.104,521.061 409.237,494.259 407.777,486.724 407.108,483.133 404.738,473.229 402.82,465.223 401.728,457.879 400.281,448.174 397.994,443.706 395.691,439.107 390.69,436.174 387.345,434.193 382.22,430.905 378.611,429.143 377.486,432.354 374.343,441.321 366.619,433.393 361.177,427.818 359.063,426.58 355.662,424.58 352.677,426.89 350.481,428.544 347.244,431.574 344.132,433.715 339.053,433.488 335.754,433.326 333.795,430.402 333.27,429.597 329.569,435.012 325.376,441.124 319.898,447.533 L315.293,452.693 Q313.06,456.758 307.371,466.075 302.385,474.271 299.352,485.762 295.725,499.656 297.004,511.788 297.087,512.439 300.874,541.174 303.263,559.538 303.149,568.199 303.049,574.689 303.906,584.126 304.528,590.683 303.694,594.306 M272.183,557.78 Q272.711,558.4 273.708,558.75 273.874,558.808 283.351,558.898 284.828,560.534 286.635,562.473 287.76,560.505 289.817,559.424 291.555,558.542 292.386,558.833 294.212,559.473 295.241,561.325 296.09,562.804 296.278,562.621 297.569,561.954 299.185,561.775 301.042,561.618 302.072,562.228 M283.222,625.228 Q263.308,586.117 272.656,558.381 L271.936,558.129 M413.149,660.948 Q422.693,649.501 431.506,637.301 440.299,625.157 448.506,612.558 453.73,604.569 459.413,596.866 468.506,584.578 474.582,570.611 475.987,567.312 476.91,563.969 481.066,549.453 488.34,535.968 490.728,531.46 494.345,527.88 497,525.268 499.581,522.692 500.607,525.973 499.957,529.598 494.863,558.142 483.328,584.49 481.483,588.691 479.195,592.737 475.364,599.411 471.699,606.144 468.283,612.343 463.656,617.744 454.06,628.985 444.209,639.889 431.285,654.067 413.149,660.948Z M451.07,599.038 Q449.142,595.317 445,593.469 445.08,592.899 441.427,591.618 439.379,590.901 437.817,592.342 436.236,593.839 432.97,592.694 430.812,591.937 426.207,589.826 422.042,588.056 419.299,587.902 412.554,587.465 406.828,585.893 405.294,585.48 400.534,583.811" test="Parrot"/>
      <path id="Layer2_0_4_STROKES" stroke="#0F0" stroke-width="2.346" stroke-linejoin="round" stroke-linecap="round" fill="none" d="M278.106,527.228 Q276.735,528.301 275.882,530.736 275.28,532.452 273.936,543.914 272.643,555.58 272.908,557.661" test="Parrot"/>
      <path id="Layer2_0_5_STROKES" stroke="#FF0" stroke-width="2.346" stroke-linejoin="round" stroke-linecap="round" fill="none" d="M294.439,491.623 L287.963,489.353 Q287.752,491.019 285.115,494.818 282.176,498.947 281.769,500.109 279.325,507.083 278.304,516.732 277.437,524.88 278.106,527.228 M380.835,727.433 Q394.534,725.585 399.516,715.274 401.796,710.541 403.893,705.621 387.707,696.654 379.267,699.103 374.32,705.946 375.715,712.96 377.146,720.049 378.244,722.237 379.322,724.479 380.835,727.433Z M397.922,701.912 Q404.226,691.195 392.431,686.191 390.159,685.581 388.022,685.826 382.469,687.484 380.829,697.661 M480.965,539.101 Q478.833,535.432 478.083,533.491 477.829,533.154 474.231,531.893 471.353,530.884 460.572,531.145 451.869,531.326 449.406,531.084 449.09,531.098 448.924,531.04 449.238,529.969 444.298,527.927 443.265,527.503 437.897,525.621 435.793,524.884 431.052,524.403 426.291,523.977 424.575,523.376 421.919,522.445 421.678,522.422 420.139,522.38 418.823,524.716 410.887,519.697 412.852,521.007 M449.406,531.084 Q449.721,531.071 449.636,530.606 449.409,529.656 448.924,531.04 M483.043,484.764 Q488.599,482.92 490.565,480.502 491.36,479.476 492.951,474.937 495.046,468.959 492.238,465.8 490.086,463.429 479.957,458.636 479.336,460.408 479.145,462.018 477.222,460.412 474.416,458.31 L470.818,457.049 Q471.598,459.435 472.217,461.393 470.036,459.634 468.155,457.732 L463.118,455.966 461.857,459.564 Q464.601,464.503 463.662,471.259 462.173,477.636 462.28,479.103 463,479.355 464.187,480.579 M447.926,471.648 Q452.825,460.686 452.052,456.686 451.4,453.226 444.877,450.381 L443.364,454.698 Q443.546,456.129 443.03,459.553 442.941,459.273 442.928,458.958 442.004,451.487 436.71,448.326 L434.712,454.027 Q434.4,452.613 433.902,451.195 432.227,446.755 429.047,444.832 L428.272,444.561 Q427.07,446.75 426.833,451.328 426.606,456.407 425.947,458.289 424.608,462.108 420.996,463.017 M409.594,451.749 Q415.446,437.89 414.363,408.176 413.909,395.462 412.094,386.809 410.122,377.541 407.244,376.532 403.148,375.097 401.997,375.19 398.096,375.501 395.503,381.305 393.348,379.12 386.906,375.867 380.983,373.792 376.912,379.201 374.375,382.538 373.998,382.903 372.268,384.472 370.275,383.773 369.5,383.502 362.649,377.869 361.432,377.442 358.123,380.322 354.551,383.42 352.68,383.262 348.176,382.989 342.129,381.801 337.664,381.417 334.272,384.89 333.11,384.482 331.253,383.396 329.377,382.366 328.768,382.152 L320.426,405.953 Q319.851,416.814 318.181,431.331 316.936,442.33 317.133,447.62" test="Parrot"/>
      <path id="Layer2_0_6_STROKES" stroke="#F0F" stroke-width="2.346" stroke-linejoin="round" stroke-linecap="round" fill="none" d="M499.581,522.692 L502.005,512.23 Q504.056,500.706 501.874,495.404 500.765,492.716 500.606,489.801 500.482,488.204 500.555,485.868 500.525,484.18 499.643,483.684 498.539,483.11 495.546,483.491 491.588,483.968 487.62,486.244 484.888,487.835 482.231,486.903 479.685,486.011 473.613,482.764 468.087,480.268 464.654,481.551 461.296,482.798 456.484,479.682 453.747,477.914 447.834,474.04 444.704,472.507 440.219,469.879 436.499,468.078 432.724,468.743 428.818,469.425 425.535,468.151 423.471,467.303 418.745,464.652 416.002,463.255 413.255,460.987 411.398,459.901 409.138,462.093 M311.377,445.602 Q304.119,457.975 299.404,466.639 295.665,473.407 288.972,486.475 M410.204,299.82 Q410.247,289.767 409.882,288.148 409.344,285.784 406.244,284.698 405.082,284.29 404.711,284.284 402.909,284.461 400.278,286.646 386.891,258.524 385.563,258.058 377.26,255.148 368.693,268.242 363.508,276.12 359.842,286.581 357.533,293.168 356.78,299.927 356.285,304.353 356.438,310.124" test="Parrot"/>
      <path id="Layer2_0_7_STROKES" stroke="#F60" stroke-width="2.346" stroke-linejoin="round" stroke-linecap="round" fill="none" d="M407.238,370.875 Q407.481,371.954 407.78,373.053 408.413,375.326 408.855,375.481 L410.116,371.883 Q411.681,362.985 411.149,334.893 410.585,301.57 405.05,299.63 402.67,298.796 395.616,301.544 388.93,304.483 388.819,304.444 387.878,304.115 385.474,302.464 383.014,300.794 382.128,300.483 379.416,299.533 374.858,304.026 371.712,307.15 370.435,309.374 364.181,307.182 359.901,309.287 355.601,311.447 352.335,310.302 351.462,312.793 349.135,318.192 346.863,323.61 346.669,324.164 344.904,329.201 344.195,341.507 343.425,355.407 342.884,358.014 342.08,362.083 339.511,368.702 336.715,375.615 335.822,378.161 L336.542,378.414" test="Parrot"/>
    </g>
    <g id="JuryBoxFront">
      <path fill="#000" stroke="none" d="M-3687.91,607.778 L-3723.836,565.812 -3726.816,773.55 Q-3713.641,773.552 -3695.16,773.55 L-3687.91,607.778 M1051.732,586.191 L1049.557,586.191 1020.801,614.464 1020.801,766.704 Q1037.691,766.731 1051.732,766.704 L1051.732,586.191 M775.526,605.523 Q655.507,608.262 535.729,615.108 414.179,620.989 292.548,621.714 167.857,622.438 43.166,622.277 -78.465,622.116 -200.095,621.714 -328.653,621.311 -457.211,619.78 -583.997,618.33 -710.702,616.236 -836.521,614.222 -962.34,617.444 -1086.87,620.586 -1211.481,627.352 -1332.709,632.588 -1454.178,630.735 -1582.092,628.721 -1709.925,620.827 -1829.058,612.853 -1948.675,611.161 -2067.728,609.55 -2186.861,610.598 -2314.694,611.725 -2442.527,613.659 -2570.843,615.672 -2699.079,617.605 -2826.428,619.539 -2953.939,621.633 -3077.986,623.727 -3202.113,624.694 -3325.758,625.66 -3449.724,623.244 -3569.18,620.908 -3687.91,607.778 L-3695.16,773.55 Q-3363.362,773.405 -1319.257,770.167 626.626,767.018 1020.801,766.704 L1020.801,614.464 Q898.446,602.784 775.526,605.523 M505.362,589.252 Q496.975,589.645 488.607,589.977 366.252,594.004 243.896,594.004 206.821,594.004 169.71,594.004 80.252,594.028 -9.272,594.085 -22.544,594.095 -35.854,594.085 -150.707,593.974 -265.663,592.313 -302.515,591.784 -339.366,590.702 -376.229,590.457 -413.15,590.138 -440.776,589.98 -468.488,589.735 -496.139,589.005 -523.826,588.607 -652.223,586.835 -780.7,585.547 -880.641,584.564 -980.544,588.93 -995.195,589.618 -1009.865,590.38 -1130.77,595.938 -1251.434,602.301 L-1509.275,603.59 Q-1638.638,597.387 -1767.84,589.413 -1884.879,581.277 -2002.643,580.15 -2129.993,578.861 -2257.181,580.633 -2381.389,582.405 -2505.759,584.902 -2622.798,587.319 -2739.917,589.816 -2858.97,592.313 -2978.184,594.246 -3103.762,596.26 -3229.661,594.649 -3351.614,593.118 -3473.406,585.063 -3598.742,577.572 -3723.836,565.812 L-3687.91,607.778 Q-3569.18,620.908 -3449.724,623.244 -3325.758,625.66 -3202.113,624.694 -3077.986,623.727 -2953.939,621.633 -2826.428,619.539 -2699.079,617.605 -2570.843,615.672 -2442.527,613.659 -2314.694,611.725 -2186.861,610.598 -2067.728,609.55 -1948.675,611.161 -1829.058,612.853 -1709.925,620.827 -1582.092,628.721 -1454.178,630.735 -1332.709,632.588 -1211.481,627.352 -1086.87,620.586 -962.34,617.444 -836.521,614.222 -710.702,616.236 -583.997,618.33 -457.211,619.78 -328.653,621.311 -200.095,621.714 -78.465,622.116 43.166,622.277 167.857,622.438 292.548,621.714 414.179,620.989 535.729,615.108 655.507,608.262 775.526,605.523 898.446,602.784 1020.801,614.464 L1049.557,586.191 1049.638,584.902 Q1020.015,582.234 990.353,579.586 967.641,577.469 944.923,575.961 848.319,569.836 751.361,575.639 628.492,584.163 505.362,589.252Z" test="JuryBoxFront" stroke-width="1.611"/>
      <path id="Layer1_0_1_STROKES" stroke="#F60" stroke-width="3.222" stroke-linejoin="round" stroke-linecap="round" fill="none" d="M1049.678,584.942 Q1020.015,582.234 990.353,579.586 967.641,577.469 944.923,576.001 848.319,569.836 751.361,575.639 628.492,584.163 505.362,589.292 496.975,589.645 488.607,589.977 366.252,594.004 243.896,594.004 206.821,594.004 169.75,594.004 80.252,594.028 -9.272,594.085 -22.544,594.095 -35.814,594.085 -150.707,593.974 -265.663,592.313 -302.515,591.784 -339.366,590.742 -376.229,590.457 -413.11,590.178 -440.776,589.98 -468.448,589.775 -496.139,589.005 -523.826,588.607 -652.223,586.835 -780.7,585.547 -880.641,584.564 -980.504,588.97 -995.195,589.618 -1009.865,590.38 -1130.77,595.938 -1251.434,602.301 L-1509.275,603.59 Q-1638.638,597.387 -1767.84,589.413 -1884.879,581.277 -2002.643,580.15 -2129.993,578.861 -2257.181,580.633 -2381.389,582.405 -2505.759,584.902 -2622.798,587.319 -2739.917,589.816 -2858.97,592.313 -2978.184,594.246 -3103.762,596.26 -3229.661,594.649 -3351.614,593.118 -3473.406,585.063 -3598.742,577.572 -3723.836,565.812 L-3687.91,607.778 Q-3569.18,620.908 -3449.724,623.244 -3325.758,625.66 -3202.113,624.694 -3077.986,623.727 -2953.939,621.633 -2826.428,619.539 -2699.079,617.605 -2570.843,615.672 -2442.527,613.659 -2314.694,611.725 -2186.861,610.598 -2067.728,609.55 -1948.675,611.161 -1829.058,612.853 -1709.925,620.827 -1582.092,628.721 -1454.178,630.735 -1332.709,632.588 -1211.481,627.352 -1086.87,620.586 -962.34,617.444 -836.521,614.222 -710.702,616.236 -583.997,618.33 -457.211,619.78 -328.653,621.311 -200.095,621.714 -78.465,622.116 43.166,622.277 167.857,622.438 292.548,621.714 414.179,620.989 535.729,615.108 655.507,608.262 775.526,605.523 898.446,602.784 1020.801,614.464 L1049.557,586.191 M1049.678,584.942 Q1050.704,585.05 1051.732,585.144 L1051.732,586.191 1051.732,766.704 1051.732,784.747 M1020.801,784.747 L1020.801,766.744 M-3695.16,773.55 L-3695.643,784.747 M1020.801,766.744 L1020.801,614.464 M-3726.977,784.747 L-3726.816,773.55 -3723.836,565.812 M-3687.91,607.778 L-3695.16,773.55" test="JuryBoxFront"/>
    </g>
  </g>
</svg>