<?xml version="1.0" encoding="utf-8"?>
<svg id="EdithAnim12" image-rendering="inherit" baseProfile="basic" version="1.1" x="0px" y="0px" width="800" height="600" xmlns="http://www.w3.org/2000/svg" xmlns:xlink="http://www.w3.org/1999/xlink">
  <g id="14_JurorParrotf156r1" overflow="visible">
    <g id="Parrot">
      <path id="Layer2_0_1_STROKES" stroke="#FFF" stroke-width="2.345" stroke-linejoin="round" stroke-linecap="round" fill="none" d="M313.998,311.934 Q318.294,311.128 323.028,313.257 328.756,315.81 329.079,322.658 329.402,329.506 327.281,333.683 325.142,337.805 321.082,338.968 316.965,340.148 313.315,338.72 309.609,337.311 307.626,333.572 305.751,329.983 305.587,326.16 305.472,322.691 306.044,320.419 306.543,318.108 308.501,316.135 310.386,314.124 313.998,311.934Z M318.605,324.929 Q317.816,324.379 316.942,324.533 316.012,324.705 315.956,324.722 315.621,324.828 315.335,325.288 314.651,326.427 315.964,327.856 317.078,329.041 318.41,328.005 319.348,327.277 319.268,326.441 319.259,325.829 319.188,325.606 319.102,325.141 318.605,324.929Z M265.3,330.429 Q267.688,329.427 272.19,332.184 276.601,334.846 278.023,340.116 279.41,345.274 278.054,349.147 276.735,352.948 272.731,354.093 268.653,355.199 264.726,353.675 260.355,352.107 259.177,347.805 257.616,341.903 258.475,337.818 259.636,332.161 265.3,330.429Z M272.086,341.565 Q271.482,341.019 270.737,341.193 269.864,341.346 269.808,341.364 269.584,341.435 269.281,341.838 268.691,342.886 269.895,344.166 270.917,345.257 271.97,344.308 272.758,343.69 272.696,342.91 272.666,342.427 272.595,342.204 272.583,341.777 272.086,341.565Z" test="Parrot"/>
      <path id="Layer2_0_2_STROKES" stroke="#F00" stroke-width="2.345" stroke-linejoin="round" stroke-linecap="round" fill="none" d="M348.852,338.293 Q352.419,337.902 353.293,337.748 354.167,337.594 355.844,337.063 358.247,336.302 361.702,332.256 M350.76,369.179 L352.522,369.113 Q354.565,368.958 355.962,368.516 356.801,368.25 358.653,365.942 360.373,363.798 360.643,363.098 M406.411,380.219 Q393.118,372.619 385.398,359.503 378.836,348.296 374.973,330.268 371.597,314.362 359.148,302.435 345.383,289.265 329.182,287.63 312.963,285.938 301.614,288.363 290.248,290.732 280.96,297.917 271.616,305.119 266.362,315.332 261.129,325.415 261.398,327.236 M283.933,405.592 Q288.049,420.341 284.535,434.493 M316.161,381.118 Q319.562,383.117 322.156,385.678 322.504,385 325.299,385.114 326.752,384.653 328.532,383.475 328.888,383.239 331.888,381.059" test="Parrot"/>
      <path id="Layer2_0_3_STROKES" stroke="#0FF" stroke-width="2.345" stroke-linejoin="round" stroke-linecap="round" fill="none" d="M287.341,425.486 L287.995,430.076 Q289.16,430.261 290.426,429.983 291.244,429.847 292.921,429.316 297.56,427.847 299.769,422.781 302.017,417.641 304.588,416.827 305.483,416.543 310.632,415.713 315.725,414.899 316.676,414.598 322.21,412.846 322.531,409.977 322.779,407.069 327.027,405.724 327.978,405.423 331.674,405.052 335.425,404.664 336.32,404.381 336.935,404.186 338.425,401.315 339.858,398.463 342.542,397.613 343.492,397.312 347.356,396.888 351.219,396.465 352.114,396.181 353.12,395.863 355.455,393.524 356.622,392.355 357.733,391.204 357.901,391.151 361.715,391.542 365.921,391.81 367.71,391.243 370.002,390.517 372.628,388.517 373.904,387.498 375.013,386.532 377.249,385.824 389.299,384.838 399.307,384.006 403.606,383.014 404.462,382.804 405.077,382.61 M333.844,433.272 Q333.884,435.535 337.818,454.955 341.614,473.742 341.394,477.317 341.147,482.562 344.32,494.719 347.667,507.621 351.693,514.895 356.152,522.955 371.709,543.923 387.684,565.434 393.374,570.583 396.063,573.053 403.901,579.55 410.238,584.801 415.519,590.018 422.499,596.91 427.009,599.111 431.61,601.406 437.369,600.751 441.232,600.327 447.303,599.881 451.246,599.125 450.219,595.882 447.352,586.827 458.286,588.531 465.982,589.723 468.416,589.444 472.335,589.003 473.336,585.365 474.099,582.724 474.87,578.359 476.073,574.78 480.271,571.914 483.006,570.063 486.326,571.226 487.23,571.555 486.94,565.005 486.625,557.601 487.16,549.19 L487.746,542.3 Q487.092,537.71 486.051,526.846 485.119,517.3 480.65,506.291 475.213,493.006 466.91,484.072 466.454,483.601 446.182,462.896 433.253,449.646 428.148,442.652 424.333,437.402 417.986,430.371 413.553,425.501 412.046,422.103 M459.16,432.402 Q458.365,432.223 457.359,432.541 457.192,432.594 449.559,438.209 447.396,437.787 444.788,437.321 445.07,439.569 444.074,441.668 443.213,443.417 442.374,443.683 440.529,444.267 438.595,443.403 437.029,442.73 436.988,442.989 436.357,444.296 435.171,445.41 433.78,446.65 432.592,446.78 M409.861,385.093 Q449.254,404.417 458.421,432.205 L459.148,431.975 M284.535,434.493 Q283.772,449.373 284.046,464.416 284.301,479.404 285.299,494.403 285.915,503.925 285.993,513.495 286.096,528.777 289.619,543.592 290.475,547.072 291.743,550.3 297.13,564.4 299.405,579.548 300.2,584.586 299.457,589.618 298.9,593.3 298.382,596.909 295.594,594.901 293.937,591.612 280.884,565.731 274.297,537.741 273.251,533.275 272.653,528.667 271.712,521.031 270.602,513.448 269.614,506.442 270.073,499.346 271.001,484.599 272.335,469.969 274.162,450.878 284.535,434.493Z M291.362,506.752 Q295.136,508.571 298.758,508.162 299.835,508.067 303.525,506.898 305.593,506.244 305.977,504.154 306.343,502.008 309.641,500.964 311.821,500.274 316.77,499.199 321.163,498.115 323.448,496.592 329.105,492.894 334.627,490.715 336.1,490.126 340.908,488.604" test="Parrot"/>
      <path id="Layer2_0_4_STROKES" stroke="#0F0" stroke-width="2.345" stroke-linejoin="round" stroke-linecap="round" fill="none" d="M472.757,460.386 Q473.209,458.706 472.43,456.246 471.881,454.513 466.079,444.541 460.112,434.437 458.651,432.932" test="Parrot"/>
      <path id="Layer2_0_5_STROKES" stroke="#FF0" stroke-width="2.345" stroke-linejoin="round" stroke-linecap="round" fill="none" d="M481.062,498.657 L487.602,496.586 Q486.771,495.127 486.6,490.507 486.472,485.443 486.1,484.269 483.87,477.225 478.896,468.898 474.7,461.862 472.757,460.386 M270.48,361.94 Q260.635,371.638 262.839,382.872 263.855,388.024 265.13,393.217 283.453,390.675 288.733,383.653 288.582,375.213 283.258,370.441 277.86,365.63 275.67,364.54 273.462,363.394 270.48,361.94Z M272.131,392.6 Q273.52,404.953 285.954,401.877 288.137,401.001 289.699,399.523 293.144,394.864 288.349,385.742 M303.422,572.618 Q307.328,574.272 309.092,575.374 309.498,575.491 313.132,574.341 316.039,573.42 324.503,566.742 331.353,561.375 333.468,560.09 333.712,559.89 333.879,559.837 334.272,560.882 339.447,559.55 340.527,559.27 345.949,557.553 348.073,556.88 352.153,554.42 356.215,551.904 357.948,551.355 360.631,550.505 360.837,550.379 362.093,549.489 361.744,546.832 371.101,546.083 368.744,546.214 M333.468,560.09 Q333.223,560.291 333.571,560.611 334.322,561.235 333.879,559.837 M334.365,617.313 Q331.029,622.121 330.907,625.235 330.888,626.533 332.339,631.116 334.251,637.154 338.392,637.995 341.535,638.599 352.51,636.354 351.944,634.565 351.131,633.162 353.632,633.292 357.137,633.29 L360.771,632.139 Q358.715,630.699 357.046,629.505 359.845,629.603 362.491,629.996 L367.577,628.385 366.427,624.751 Q361.269,622.448 357.966,616.483 355.33,610.49 354.364,609.381 353.638,609.612 351.954,609.345 M370.315,606.729 Q372.976,618.434 375.994,621.168 378.592,623.544 385.515,621.906 L384.134,617.545 Q383.13,616.51 381.488,613.463 381.727,613.633 381.927,613.877 387.149,619.297 393.278,618.648 L391.455,612.89 Q392.554,613.834 393.802,614.669 397.806,617.214 401.502,616.843 L402.285,616.596 Q401.933,614.124 399.375,610.321 396.509,606.124 395.907,604.223 394.686,600.366 397.029,597.471 M412.907,599.64 Q416.544,614.233 435.24,637.344 443.231,647.237 449.875,653.068 457.013,659.295 459.92,658.375 464.056,657.065 464.921,656.299 467.853,653.71 466.445,647.514 469.479,647.967 476.582,646.702 482.563,644.808 482.573,638.04 482.599,633.849 482.681,633.331 483.124,631.039 485.136,630.401 485.919,630.154 494.777,630.547 496.007,630.158 496.924,625.869 497.921,621.248 499.513,620.252 503.278,617.768 508.826,615.089 512.626,612.717 513.255,607.905 514.429,607.534 516.565,607.288 518.684,606.986 519.299,606.791 L511.688,582.754 Q505.63,573.724 498.255,561.114 492.65,551.572 489.319,547.46" test="Parrot"/>
      <path id="Layer2_0_6_STROKES" stroke="#F0F" stroke-width="2.345" stroke-linejoin="round" stroke-linecap="round" fill="none" d="M298.382,596.909 L302.722,606.728 Q307.997,617.174 312.923,620.105 315.422,621.589 317.299,623.824 318.356,625.027 319.7,626.939 320.736,628.271 321.74,628.138 322.967,627.934 325.131,625.834 328.01,623.077 329.817,618.876 331.047,615.965 333.731,615.115 336.302,614.301 343.105,613.254 349.022,611.934 350.997,608.848 352.934,605.836 358.652,605.441 361.901,605.212 368.954,604.762 372.376,604.109 377.54,603.519 381.595,602.727 384.215,599.93 386.929,597.041 390.318,596.09 392.478,595.53 397.848,594.813 400.879,594.284 404.437,594.449 406.573,594.203 407.065,591.095 M495.132,545.62 Q493.511,531.372 492.083,521.614 491.011,513.958 488.522,499.493 M503.584,721.491 Q509.582,729.556 510.845,730.632 512.694,732.199 515.825,731.208 516,730.836 517.299,730.618 518.634,729.396 519.426,726.07 547.005,740.524 548.347,740.099 556.732,737.444 555.725,721.833 555.144,712.423 551.799,701.858 549.693,695.206 546.239,689.349 543.979,685.513 540.394,680.99" test="Parrot"/>
      <path id="Layer2_0_7_STROKES" stroke="#F60" stroke-width="2.345" stroke-linejoin="round" stroke-linecap="round" fill="none" d="M463.319,662.895 Q462.477,662.178 461.579,661.478 459.709,660.04 459.262,660.182 L460.413,663.815 Q464.5,671.87 481.783,694.013 502.229,720.321 507.819,718.551 510.223,717.79 514.215,711.36 517.797,704.997 517.909,704.962 518.859,704.661 521.772,704.538 524.742,704.398 525.636,704.114 528.375,703.247 529.324,696.919 529.965,692.534 529.651,689.989 535.968,687.988 538.127,683.737 540.269,679.43 543.567,678.386 542.771,675.871 541.392,670.157 539.958,664.46 539.781,663.902 538.17,658.815 531.352,648.549 523.627,636.972 522.495,634.563 520.697,630.827 518.779,623.992 516.867,616.787 516.053,614.216 L515.326,614.446" test="Parrot"/>
    </g>
    <g id="JuryBoxFront">
      <path fill="#000" stroke="none" d="M-3688.06,607.778 L-3723.986,565.812 -3726.966,773.55 Q-3713.791,773.552 -3695.31,773.55 L-3688.06,607.778 M1051.582,586.191 L1049.407,586.191 1020.651,614.464 1020.651,766.704 Q1037.541,766.731 1051.582,766.704 L1051.582,586.191 M775.376,605.523 Q655.357,608.262 535.579,615.108 414.029,620.989 292.398,621.714 167.707,622.438 43.016,622.277 -78.615,622.116 -200.245,621.714 -328.803,621.311 -457.361,619.78 -584.147,618.33 -710.852,616.236 -836.671,614.222 -962.49,617.444 -1087.02,620.586 -1211.631,627.352 -1332.859,632.588 -1454.328,630.735 -1582.242,628.721 -1710.075,620.827 -1829.208,612.853 -1948.825,611.161 -2067.878,609.55 -2187.011,610.598 -2314.844,611.725 -2442.677,613.659 -2570.993,615.672 -2699.229,617.605 -2826.578,619.539 -2954.089,621.633 -3078.136,623.727 -3202.263,624.694 -3325.908,625.66 -3449.874,623.244 -3569.33,620.908 -3688.06,607.778 L-3695.31,773.55 Q-3363.512,773.405 -1319.407,770.167 626.476,767.018 1020.651,766.704 L1020.651,614.464 Q898.296,602.784 775.376,605.523 M505.211,589.252 Q496.825,589.645 488.457,589.977 366.102,594.004 243.746,594.004 206.671,594.004 169.56,594.004 80.102,594.028 -9.422,594.085 -22.694,594.095 -36.004,594.085 -150.857,593.974 -265.813,592.313 -302.665,591.784 -339.516,590.702 -376.379,590.457 -413.3,590.138 -440.926,589.98 -468.638,589.735 -496.289,589.005 -523.976,588.607 -652.373,586.835 -780.85,585.547 -880.791,584.564 -980.694,588.93 -995.345,589.618 -1010.015,590.38 -1130.92,595.938 -1251.584,602.301 L-1509.425,603.59 Q-1638.788,597.387 -1767.99,589.413 -1885.029,581.277 -2002.793,580.15 -2130.143,578.861 -2257.331,580.633 -2381.539,582.405 -2505.909,584.902 -2622.948,587.319 -2740.067,589.816 -2859.12,592.313 -2978.334,594.246 -3103.912,596.26 -3229.811,594.649 -3351.764,593.118 -3473.556,585.063 -3598.892,577.572 -3723.986,565.812 L-3688.06,607.778 Q-3569.33,620.908 -3449.874,623.244 -3325.908,625.66 -3202.263,624.694 -3078.136,623.727 -2954.089,621.633 -2826.578,619.539 -2699.229,617.605 -2570.993,615.672 -2442.677,613.659 -2314.844,611.725 -2187.011,610.598 -2067.878,609.55 -1948.825,611.161 -1829.208,612.853 -1710.075,620.827 -1582.242,628.721 -1454.328,630.735 -1332.859,632.588 -1211.631,627.352 -1087.02,620.586 -962.49,617.444 -836.671,614.222 -710.852,616.236 -584.147,618.33 -457.361,619.78 -328.803,621.311 -200.245,621.714 -78.615,622.116 43.016,622.277 167.707,622.438 292.398,621.714 414.029,620.989 535.579,615.108 655.357,608.262 775.376,605.523 898.296,602.784 1020.651,614.464 L1049.407,586.191 1049.488,584.902 Q1019.865,582.234 990.203,579.586 967.491,577.469 944.773,575.961 848.169,569.836 751.211,575.639 628.342,584.163 505.211,589.252Z" test="JuryBoxFront" stroke-width="1.611"/>
      <path id="Layer1_0_1_STROKES" stroke="#F60" stroke-width="3.222" stroke-linejoin="round" stroke-linecap="round" fill="none" d="M1049.528,584.942 Q1019.865,582.234 990.203,579.586 967.491,577.469 944.773,576.001 848.169,569.836 751.211,575.639 628.342,584.163 505.211,589.292 496.825,589.645 488.457,589.977 366.102,594.004 243.746,594.004 206.671,594.004 169.6,594.004 80.102,594.028 -9.422,594.085 -22.694,594.095 -35.964,594.085 -150.857,593.974 -265.813,592.313 -302.665,591.784 -339.516,590.742 -376.379,590.457 -413.26,590.178 -440.926,589.98 -468.598,589.775 -496.289,589.005 -523.976,588.607 -652.373,586.835 -780.85,585.547 -880.791,584.564 -980.654,588.97 -995.345,589.618 -1010.015,590.38 -1130.92,595.938 -1251.584,602.301 L-1509.425,603.59 Q-1638.788,597.387 -1767.99,589.413 -1885.029,581.277 -2002.793,580.15 -2130.143,578.861 -2257.331,580.633 -2381.539,582.405 -2505.909,584.902 -2622.948,587.319 -2740.067,589.816 -2859.12,592.313 -2978.334,594.246 -3103.912,596.26 -3229.811,594.649 -3351.764,593.118 -3473.556,585.063 -3598.892,577.572 -3723.986,565.812 L-3688.06,607.778 Q-3569.33,620.908 -3449.874,623.244 -3325.908,625.66 -3202.263,624.694 -3078.136,623.727 -2954.089,621.633 -2826.578,619.539 -2699.229,617.605 -2570.993,615.672 -2442.677,613.659 -2314.844,611.725 -2187.011,610.598 -2067.878,609.55 -1948.825,611.161 -1829.208,612.853 -1710.075,620.827 -1582.242,628.721 -1454.328,630.735 -1332.859,632.588 -1211.631,627.352 -1087.02,620.586 -962.49,617.444 -836.671,614.222 -710.852,616.236 -584.147,618.33 -457.361,619.78 -328.803,621.311 -200.245,621.714 -78.615,622.116 43.016,622.277 167.707,622.438 292.398,621.714 414.029,620.989 535.579,615.108 655.357,608.262 775.376,605.523 898.296,602.784 1020.651,614.464 L1049.407,586.191 M1049.528,584.942 Q1050.554,585.05 1051.582,585.144 L1051.582,586.191 1051.582,766.704 1051.582,784.747 M1020.651,784.747 L1020.651,766.744 M-3695.31,773.55 L-3695.793,784.747 M1020.651,766.744 L1020.651,614.464 M-3727.127,784.747 L-3726.966,773.55 -3723.986,565.812 M-3688.06,607.778 L-3695.31,773.55" test="JuryBoxFront"/>
    </g>
  </g>
</svg>