<?xml version="1.0" encoding="utf-8"?>
<svg id="EdithAnim12" image-rendering="inherit" baseProfile="basic" version="1.1" x="0px" y="0px" width="800" height="600" xmlns="http://www.w3.org/2000/svg" xmlns:xlink="http://www.w3.org/1999/xlink">
  <g id="14_JurorParrotf157r1" overflow="visible">
    <g id="Parrot">
      <path id="Layer2_0_1_STROKES" stroke="#FFF" stroke-width="2.347" stroke-linejoin="round" stroke-linecap="round" fill="none" d="M424.451,302.994 Q428.618,304.323 431.777,308.447 435.612,313.416 432.645,319.602 429.678,325.788 425.826,328.461 421.984,331.076 417.855,330.172 413.669,329.258 411.131,326.267 408.535,323.265 408.563,319.03 408.616,314.978 410.286,311.532 411.832,308.421 413.415,306.691 414.952,304.892 417.614,304.084 420.229,303.207 424.451,302.994Z M422.339,316.629 Q421.905,315.77 421.062,315.49 420.161,315.2 420.104,315.189 419.758,315.123 419.289,315.393 418.144,316.071 418.623,317.954 419.041,319.527 420.707,319.246 421.879,319.05 422.205,318.276 422.488,317.732 422.531,317.502 422.677,317.051 422.339,316.629Z M372.768,296.163 Q375.348,296.415 378.005,300.981 380.626,305.421 379.377,310.738 378.15,315.941 375.115,318.709 372.15,321.431 368.078,320.538 363.96,319.577 361.225,316.37 358.118,312.913 359.124,308.564 360.551,302.623 363.247,299.432 366.956,295 372.768,296.163Z M373.458,309.196 Q373.186,308.428 372.447,308.228 371.605,307.948 371.547,307.937 371.316,307.893 370.858,308.105 369.84,308.748 370.294,310.447 370.676,311.893 372.054,311.558 373.042,311.387 373.357,310.67 373.56,310.231 373.604,310 373.796,309.619 373.458,309.196Z" test="Parrot"/>
      <path id="Layer2_0_2_STROKES" stroke="#F00" stroke-width="2.347" stroke-linejoin="round" stroke-linecap="round" fill="none" d="M442.64,342.764 Q445.968,344.113 446.811,344.393 447.654,344.672 449.383,345.001 451.862,345.471 456.827,343.547 M429.655,370.879 L431.239,371.658 Q433.112,372.492 434.553,372.765 435.418,372.93 438.145,371.775 440.679,370.703 441.249,370.215 M473.439,407.03 Q465.338,394.023 464.764,378.802 464.305,365.813 469.462,348.097 474.04,332.482 468.737,316.064 462.864,297.926 449.368,288.792 435.883,279.6 424.734,276.348 413.595,273.038 402.002,274.957 390.35,276.865 380.873,283.368 371.474,289.766 370.847,291.498 M353.493,371.226 Q350.116,386.174 340.3,396.973 M393.506,364.969 Q395.553,368.344 396.622,371.833 396.776,372.28 399.659,372.827 401.158,373.112 403.285,372.919 403.71,372.88 407.388,372.384" test="Parrot"/>
      <path id="Layer2_0_3_STROKES" stroke="#0FF" stroke-width="2.347" stroke-linejoin="round" stroke-linecap="round" fill="none" d="M347.05,390.37 L345.446,394.725 Q346.385,395.441 347.632,395.797 348.417,396.065 350.146,396.394 354.931,397.303 359.283,393.888 363.703,390.428 366.355,390.931 367.278,391.106 372.209,392.819 377.082,394.522 378.062,394.708 383.769,395.792 385.415,393.417 387.014,390.973 391.395,391.805 392.375,391.991 395.807,393.419 399.297,394.859 400.219,395.034 400.853,395.154 403.529,393.333 406.147,391.501 408.914,392.026 409.894,392.213 413.499,393.674 417.104,395.135 418.026,395.31 419.064,395.507 422.231,394.556 423.815,394.08 425.341,393.593 425.513,393.626 428.688,395.782 432.266,398.015 434.11,398.365 436.474,398.814 439.738,398.299 441.346,398.007 442.781,397.683 445.087,398.121 456.171,402.974 465.383,406.993 469.641,408.16 470.495,408.382 471.129,408.502 M384.319,419.31 Q383.28,421.323 377.525,440.299 371.949,458.652 370.056,461.697 367.35,466.201 364.372,478.417 361.195,491.372 361.287,499.692 361.388,508.91 365.137,534.768 368.996,561.305 371.564,568.542 372.76,571.994 376.58,581.44 379.669,589.075 381.844,596.178 384.721,605.565 387.649,609.645 390.613,613.851 395.997,616.009 399.602,617.47 405.162,619.959 408.994,621.165 409.629,617.822 411.403,608.482 420.226,615.175 426.44,619.88 428.717,620.79 432.379,622.262 434.988,619.532 436.914,617.569 439.665,614.089 442.426,611.508 447.484,610.975 450.773,610.644 453.146,613.245 453.786,613.964 456.64,608.055 459.878,601.383 464.343,594.228 L468.131,588.437 Q469.735,584.082 473.976,574.017 477.688,565.165 478.978,553.345 480.496,539.059 477.424,527.246 477.245,526.615 469.218,498.75 464.12,480.938 462.943,472.352 462.075,465.915 459.823,456.707 458.23,450.312 458.516,446.604 M495.131,478.047 Q494.516,477.513 493.478,477.315 493.305,477.283 483.916,478.605 482.21,477.206 480.134,475.557 479.314,477.671 477.44,479.048 475.852,480.179 474.987,480.015 473.084,479.654 471.791,477.974 470.73,476.638 470.571,476.847 469.394,477.698 467.822,478.117 466.007,478.548 464.898,478.099 M474.164,412.961 Q499.692,448.69 494.574,477.523 L495.323,477.666 M340.3,396.973 Q332.563,409.719 325.661,423.101 318.77,436.426 312.527,450.113 308.548,458.795 304.073,467.263 296.907,480.774 292.976,495.498 292.078,498.97 291.662,502.416 289.713,517.396 284.524,531.821 282.833,536.636 279.788,540.717 277.55,543.696 275.38,546.629 273.877,543.536 273.979,539.852 274.768,510.854 282.256,483.069 283.456,478.638 285.117,474.294 287.913,467.12 290.537,459.913 292.993,453.272 296.767,447.239 304.586,434.688 312.707,422.433 323.383,406.482 340.3,396.973Z M312.004,463.871 Q314.466,467.266 317.851,468.625 318.845,469.053 322.65,469.776 324.783,470.181 326.113,468.522 327.454,466.806 330.856,467.452 333.104,467.879 337.974,469.282 342.359,470.413 345.095,470.157 351.834,469.585 357.733,470.287 359.312,470.468 364.27,471.409" test="Parrot"/>
      <path id="Layer2_0_4_STROKES" stroke="#0F0" stroke-width="2.347" stroke-linejoin="round" stroke-linecap="round" fill="none" d="M493.821,509.157 Q495.018,507.891 495.499,505.354 495.839,503.567 495.462,492.027 495.003,480.293 494.431,478.273" test="Parrot"/>
      <path id="Layer2_0_5_STROKES" stroke="#FF0" stroke-width="2.347" stroke-linejoin="round" stroke-linecap="round" fill="none" d="M482.965,546.815 L489.71,548.096 Q489.671,546.416 491.714,542.265 494.006,537.743 494.236,536.532 495.616,529.268 495.188,519.571 494.833,511.38 493.821,509.157 M362.369,326.383 Q349.091,330.252 345.698,341.195 344.147,346.216 342.805,351.397 360.154,357.858 368.14,354.178 372.014,346.671 369.59,339.939 367.119,333.138 365.707,331.138 364.306,329.08 362.369,326.383Z M349.265,354.177 Q344.624,365.719 357.038,368.913 359.377,369.178 361.455,368.617 366.702,366.15 366.809,355.837 M291.354,527.623 Q294.01,530.935 295.04,532.743 295.342,533.039 299.09,533.751 302.088,534.32 312.715,532.457 321.298,530.981 323.771,530.853 324.081,530.793 324.254,530.826 324.104,531.932 329.295,533.217 330.379,533.482 335.972,534.545 338.162,534.961 342.925,534.73 347.698,534.442 349.485,534.782 352.252,535.307 352.494,535.294 354.023,535.106 354.977,532.599 363.576,536.383 361.437,535.38 M323.771,530.853 Q323.461,530.914 323.615,531.361 323.98,532.267 324.254,530.826 M297.391,581.69 Q292.168,584.342 290.583,587.027 289.95,588.161 289.052,592.888 287.869,599.115 291.118,601.822 293.6,603.847 304.335,607.08 304.685,605.235 304.635,603.613 306.777,604.916 309.866,606.578 L313.613,607.29 Q312.486,605.045 311.582,603.201 314.001,604.616 316.146,606.218 L321.392,607.214 322.104,603.467 Q318.654,598.989 318.576,592.165 319.1,585.634 318.775,584.199 318.026,584.057 316.669,583.022 M334.087,589.437 Q330.873,601.011 332.234,604.853 333.394,608.18 340.271,610.023 L341.125,605.527 Q340.732,604.138 340.733,600.674 340.862,600.937 340.922,601.247 342.949,608.501 348.657,610.84 L349.785,604.902 Q350.304,606.255 351.008,607.583 353.327,611.727 356.759,613.155 L357.566,613.308 Q358.429,610.964 357.982,606.399 357.45,601.34 357.822,599.38 358.578,595.402 362.016,593.965 M374.975,603.415 Q371.249,617.998 376.746,647.235 379.088,659.745 382.173,668.036 385.504,676.911 388.502,677.481 392.768,678.291 393.893,678.027 397.706,677.138 399.407,671.011 401.865,672.851 408.723,675.11 414.891,676.281 418.114,670.323 420.127,666.644 420.445,666.226 421.923,664.417 423,664.811 424.806,664.964 432.423,669.517 433.691,669.758 436.536,666.416 439.608,662.818 441.483,662.696 445.979,662.296 452.139,662.57 456.613,662.285 459.452,658.344 460.663,658.574 462.662,659.372 464.671,660.112 465.305,660.233 L470.014,635.443 Q468.965,624.612 468.455,610.001 468.049,598.933 467.066,593.729" test="Parrot"/>
      <path id="Layer2_0_6_STROKES" stroke="#F0F" stroke-width="2.347" stroke-linejoin="round" stroke-linecap="round" fill="none" d="M275.38,546.629 L274.54,557.34 Q274.228,569.048 277.176,573.968 278.673,576.462 279.264,579.322 279.625,580.884 279.901,583.206 280.181,584.872 281.129,585.231 282.306,585.634 285.21,584.812 289.055,583.75 292.642,580.908 295.108,578.927 297.875,579.453 300.527,579.956 307.018,582.264 312.857,583.911 316.062,582.131 319.199,580.397 324.424,582.763 327.394,584.104 333.822,587.057 337.147,588.106 341.976,590.039 345.924,591.267 349.56,590.046 353.323,588.79 356.76,589.562 358.929,590.094 364,592.012 366.921,592.985 369.977,594.82 371.976,595.618 373.885,593.113 M473.062,594.868 Q478.399,581.547 481.774,572.273 484.465,565.019 489.141,551.094 M396,753.817 Q398.453,763.769 399.055,765.317 399.94,767.576 403.169,768.189 404.379,768.419 404.747,768.369 406.504,767.926 408.781,765.372 426.214,791.202 427.597,791.464 436.245,793.107 442.77,778.876 446.727,770.31 448.796,759.414 450.099,752.554 449.838,745.755 449.668,741.302 448.658,735.615" test="Parrot"/>
      <path id="Layer2_0_7_STROKES" stroke="#F60" stroke-width="2.347" stroke-linejoin="round" stroke-linecap="round" fill="none" d="M389.35,683.077 Q388.949,682.045 388.49,681.002 387.525,678.848 387.064,678.761 L386.352,682.508 Q386.129,691.544 390.84,719.258 396.361,752.143 402.126,753.238 404.605,753.708 411.174,749.939 417.351,746.035 417.467,746.057 418.447,746.243 421.072,747.518 423.754,748.804 424.676,748.979 427.501,749.516 431.342,744.392 433.989,740.833 434.921,738.442 441.435,739.679 445.356,736.959 449.288,734.182 452.69,734.828 453.183,732.234 454.681,726.546 456.122,720.846 456.231,720.27 457.228,715.024 456.096,702.743 454.788,688.876 454.935,686.216 455.125,682.071 456.68,675.14 458.417,667.884 458.92,665.232 L458.171,665.09" test="Parrot"/>
    </g>
    <g id="JuryBoxFront">
      <path fill="#000" stroke="none" d="M-3688.06,607.778 L-3723.986,565.812 -3726.966,773.55 Q-3713.791,773.552 -3695.31,773.55 L-3688.06,607.778 M1051.582,586.191 L1049.407,586.191 1020.651,614.464 1020.651,766.704 Q1037.541,766.731 1051.582,766.704 L1051.582,586.191 M775.376,605.523 Q655.357,608.262 535.579,615.108 414.029,620.989 292.398,621.714 167.707,622.438 43.016,622.277 -78.615,622.116 -200.245,621.714 -328.803,621.311 -457.361,619.78 -584.147,618.33 -710.852,616.236 -836.671,614.222 -962.49,617.444 -1087.02,620.586 -1211.631,627.352 -1332.859,632.588 -1454.328,630.735 -1582.242,628.721 -1710.075,620.827 -1829.208,612.853 -1948.825,611.161 -2067.878,609.55 -2187.011,610.598 -2314.844,611.725 -2442.677,613.659 -2570.993,615.672 -2699.229,617.605 -2826.578,619.539 -2954.089,621.633 -3078.136,623.727 -3202.263,624.694 -3325.908,625.66 -3449.874,623.244 -3569.33,620.908 -3688.06,607.778 L-3695.31,773.55 Q-3363.512,773.405 -1319.407,770.167 626.476,767.018 1020.651,766.704 L1020.651,614.464 Q898.296,602.784 775.376,605.523 M505.211,589.252 Q496.825,589.645 488.457,589.977 366.102,594.004 243.746,594.004 206.671,594.004 169.56,594.004 80.102,594.028 -9.422,594.085 -22.694,594.095 -36.004,594.085 -150.857,593.974 -265.813,592.313 -302.665,591.784 -339.516,590.702 -376.379,590.457 -413.3,590.138 -440.926,589.98 -468.638,589.735 -496.289,589.005 -523.976,588.607 -652.373,586.835 -780.85,585.547 -880.791,584.564 -980.694,588.93 -995.345,589.618 -1010.015,590.38 -1130.92,595.938 -1251.584,602.301 L-1509.425,603.59 Q-1638.788,597.387 -1767.99,589.413 -1885.029,581.277 -2002.793,580.15 -2130.143,578.861 -2257.331,580.633 -2381.539,582.405 -2505.909,584.902 -2622.948,587.319 -2740.067,589.816 -2859.12,592.313 -2978.334,594.246 -3103.912,596.26 -3229.811,594.649 -3351.764,593.118 -3473.556,585.063 -3598.892,577.572 -3723.986,565.812 L-3688.06,607.778 Q-3569.33,620.908 -3449.874,623.244 -3325.908,625.66 -3202.263,624.694 -3078.136,623.727 -2954.089,621.633 -2826.578,619.539 -2699.229,617.605 -2570.993,615.672 -2442.677,613.659 -2314.844,611.725 -2187.011,610.598 -2067.878,609.55 -1948.825,611.161 -1829.208,612.853 -1710.075,620.827 -1582.242,628.721 -1454.328,630.735 -1332.859,632.588 -1211.631,627.352 -1087.02,620.586 -962.49,617.444 -836.671,614.222 -710.852,616.236 -584.147,618.33 -457.361,619.78 -328.803,621.311 -200.245,621.714 -78.615,622.116 43.016,622.277 167.707,622.438 292.398,621.714 414.029,620.989 535.579,615.108 655.357,608.262 775.376,605.523 898.296,602.784 1020.651,614.464 L1049.407,586.191 1049.488,584.902 Q1019.865,582.234 990.203,579.586 967.491,577.469 944.773,575.961 848.169,569.836 751.211,575.639 628.342,584.163 505.211,589.252Z" test="JuryBoxFront" stroke-width="1.611"/>
      <path id="Layer1_0_1_STROKES" stroke="#F60" stroke-width="3.222" stroke-linejoin="round" stroke-linecap="round" fill="none" d="M1049.528,584.942 Q1019.865,582.234 990.203,579.586 967.491,577.469 944.773,576.001 848.169,569.836 751.211,575.639 628.342,584.163 505.211,589.292 496.825,589.645 488.457,589.977 366.102,594.004 243.746,594.004 206.671,594.004 169.6,594.004 80.102,594.028 -9.422,594.085 -22.694,594.095 -35.964,594.085 -150.857,593.974 -265.813,592.313 -302.665,591.784 -339.516,590.742 -376.379,590.457 -413.26,590.178 -440.926,589.98 -468.598,589.775 -496.289,589.005 -523.976,588.607 -652.373,586.835 -780.85,585.547 -880.791,584.564 -980.654,588.97 -995.345,589.618 -1010.015,590.38 -1130.92,595.938 -1251.584,602.301 L-1509.425,603.59 Q-1638.788,597.387 -1767.99,589.413 -1885.029,581.277 -2002.793,580.15 -2130.143,578.861 -2257.331,580.633 -2381.539,582.405 -2505.909,584.902 -2622.948,587.319 -2740.067,589.816 -2859.12,592.313 -2978.334,594.246 -3103.912,596.26 -3229.811,594.649 -3351.764,593.118 -3473.556,585.063 -3598.892,577.572 -3723.986,565.812 L-3688.06,607.778 Q-3569.33,620.908 -3449.874,623.244 -3325.908,625.66 -3202.263,624.694 -3078.136,623.727 -2954.089,621.633 -2826.578,619.539 -2699.229,617.605 -2570.993,615.672 -2442.677,613.659 -2314.844,611.725 -2187.011,610.598 -2067.878,609.55 -1948.825,611.161 -1829.208,612.853 -1710.075,620.827 -1582.242,628.721 -1454.328,630.735 -1332.859,632.588 -1211.631,627.352 -1087.02,620.586 -962.49,617.444 -836.671,614.222 -710.852,616.236 -584.147,618.33 -457.361,619.78 -328.803,621.311 -200.245,621.714 -78.615,622.116 43.016,622.277 167.707,622.438 292.398,621.714 414.029,620.989 535.579,615.108 655.357,608.262 775.376,605.523 898.296,602.784 1020.651,614.464 L1049.407,586.191 M1049.528,584.942 Q1050.554,585.05 1051.582,585.144 L1051.582,586.191 1051.582,766.704 1051.582,784.747 M1020.651,784.747 L1020.651,766.744 M-3695.31,773.55 L-3695.793,784.747 M1020.651,766.744 L1020.651,614.464 M-3727.127,784.747 L-3726.966,773.55 -3723.986,565.812 M-3688.06,607.778 L-3695.31,773.55" test="JuryBoxFront"/>
    </g>
  </g>
</svg>