<?xml version="1.0" encoding="utf-8"?>
<svg id="EdithAnim12" image-rendering="inherit" baseProfile="basic" version="1.1" x="0px" y="0px" width="800" height="600" xmlns="http://www.w3.org/2000/svg" xmlns:xlink="http://www.w3.org/1999/xlink">
  <g id="14_JurorParrotf158r1" overflow="visible">
    <g id="Parrot">
      <path id="Layer2_0_1_STROKES" stroke="#FFF" stroke-width="2.343" stroke-linejoin="round" stroke-linecap="round" fill="none" d="M526.486,348.611 Q529.504,351.768 530.302,356.892 531.288,363.081 525.731,367.085 520.174,371.089 515.52,371.591 510.903,372.047 507.716,369.282 504.483,366.48 503.688,362.645 502.847,358.774 504.896,355.074 506.878,351.548 509.989,349.326 512.831,347.338 515.046,346.578 517.252,345.735 519.972,346.299 522.684,346.78 526.486,348.611Z M518.118,359.554 Q518.148,358.593 517.543,357.945 516.893,357.26 516.847,357.223 516.575,357 516.035,357.012 514.708,357.06 514.228,358.939 513.843,360.517 515.437,361.067 516.558,361.456 517.214,360.933 517.721,360.592 517.87,360.411 518.213,360.085 518.118,359.554Z M484.448,317.924 Q486.589,319.377 486.736,324.649 486.911,329.794 483.275,333.858 479.713,337.832 475.73,338.808 471.83,339.777 468.688,337.049 465.538,334.238 464.673,330.119 463.602,325.604 466.561,322.273 470.651,317.747 474.54,316.239 479.909,314.126 484.448,317.924Z M478.824,329.678 Q478.953,328.874 478.401,328.346 477.796,327.698 477.751,327.661 477.569,327.512 477.067,327.478 475.867,327.555 475.453,329.261 475.097,330.712 476.465,331.076 477.412,331.399 478.031,330.921 478.419,330.633 478.568,330.452 478.918,330.209 478.824,329.678Z" test="Parrot"/>
      <path id="Layer2_0_2_STROKES" stroke="#F00" stroke-width="2.343" stroke-linejoin="round" stroke-linecap="round" fill="none" d="M523.423,392.165 Q525.696,394.937 526.301,395.585 526.906,396.233 528.265,397.348 530.213,398.945 535.484,399.631 M498.604,410.603 L499.621,412.043 Q500.864,413.669 501.996,414.597 502.676,415.155 505.618,415.446 508.351,415.718 509.085,415.562 M519.707,463.216 Q518.821,447.943 525.593,434.328 531.398,422.722 544.385,409.658 555.861,398.158 559.058,381.233 562.579,362.527 555.114,348.071 547.687,333.569 539.468,325.39 531.287,317.165 520.207,313.307 509.082,309.411 497.667,310.581 486.371,311.698 484.993,312.916 M431.679,374.509 Q421.575,385.998 407.81,390.772 M469.742,388.146 Q469.924,392.083 469.194,395.652 469.115,396.118 471.38,397.975 472.558,398.941 474.515,399.788 474.906,399.958 478.367,401.281" test="Parrot"/>
      <path id="Layer2_0_3_STROKES" stroke="#0FF" stroke-width="2.343" stroke-linejoin="round" stroke-linecap="round" fill="none" d="M416.881,388.21 L413.395,391.26 Q413.876,392.337 414.798,393.245 415.358,393.855 416.717,394.97 420.477,398.053 425.923,397.14 431.452,396.219 433.536,397.928 434.261,398.522 437.764,402.38 441.222,406.201 441.992,406.833 446.477,410.511 449.055,409.215 451.624,407.837 455.067,410.661 455.837,411.292 458.163,414.185 460.534,417.114 461.259,417.708 461.757,418.117 464.972,417.799 468.143,417.444 470.317,419.227 471.087,419.859 473.549,422.862 476.01,425.866 476.735,426.461 477.55,427.129 480.781,427.809 482.397,428.149 483.967,428.451 484.103,428.563 485.855,431.97 487.924,435.637 489.374,436.825 491.231,438.349 494.338,439.457 495.887,439.97 497.301,440.371 499.113,441.857 506.509,451.408 512.662,459.334 515.837,462.392 516.479,462.994 516.978,463.403 M435.719,431.389 Q433.847,432.656 419.733,446.54 406.074,459.962 402.96,461.727 398.435,464.38 389.987,473.666 381.01,483.503 377.114,490.84 372.798,498.968 363.726,523.426 354.427,548.531 353.219,556.102 352.617,559.7 351.451,569.806 350.51,577.974 349.022,585.24 347.058,594.842 347.674,599.818 348.262,604.922 351.95,609.386 354.412,612.39 358.096,617.229 360.879,620.118 363.033,617.49 369.052,610.152 373.587,620.235 376.786,627.329 378.346,629.214 380.853,632.255 384.444,631.109 387.071,630.308 391.145,628.573 394.799,627.63 399.487,629.58 402.528,630.862 403.365,634.276 403.582,635.212 408.908,631.397 414.935,627.096 422.269,622.958 L428.357,619.692 Q431.844,616.641 440.371,609.845 447.856,603.861 454.635,594.116 462.794,582.319 465.746,570.497 465.891,569.858 472.173,541.596 476.216,523.546 479.288,515.458 481.603,509.401 484.029,500.253 485.69,493.887 487.713,490.773 M504.78,535.834 Q504.497,535.071 503.681,534.402 503.545,534.291 494.683,530.962 493.857,528.921 492.825,526.484 491.096,527.945 488.795,528.256 486.862,528.488 486.182,527.931 484.688,526.705 484.356,524.615 484.065,522.937 483.826,523.044 482.387,523.228 480.809,522.843 479.012,522.354 478.255,521.43 M517.507,468.762 Q522.808,512.28 504.542,535.108 L505.131,535.591 M407.81,390.772 Q394.937,398.247 382.491,406.679 370.082,415.065 358.069,424.079 350.432,429.787 342.462,435.071 329.724,443.49 319.241,454.517 316.794,457.131 314.783,459.953 305.915,472.152 294.473,482.316 290.689,485.729 286.07,487.851 282.684,489.393 279.381,490.927 279.542,487.497 281.392,484.317 295.942,459.276 315.785,438.499 318.954,435.188 322.486,432.175 328.366,427.223 334.109,422.159 339.436,417.512 345.627,414.027 358.48,406.762 371.456,399.902 388.436,391.022 407.81,390.772Z M351.035,435.888 Q351.571,440.04 353.888,442.85 354.555,443.7 357.545,446.152 359.221,447.526 361.18,446.708 363.176,445.845 365.848,448.037 367.615,449.485 371.214,453.043 374.516,456.13 377.037,457.213 383.217,459.932 388.053,463.367 389.35,464.279 393.246,467.474" test="Parrot"/>
      <path id="Layer2_0_4_STROKES" stroke="#0F0" stroke-width="2.343" stroke-linejoin="round" stroke-linecap="round" fill="none" d="M488.765,562.477 Q490.418,561.939 492.053,559.945 493.204,558.541 498.389,548.246 503.595,537.741 504.059,535.697" test="Parrot"/>
      <path id="Layer2_0_5_STROKES" stroke="#FF0" stroke-width="2.343" stroke-linejoin="round" stroke-linecap="round" fill="none" d="M461.251,590.298 L466.551,594.644 Q467.32,593.153 471.095,590.49 475.265,587.622 476.045,586.671 480.726,580.963 484.986,572.258 488.589,564.909 488.765,562.477 M460.89,339.443 Q447.402,336.488 439.199,344.459 435.439,348.119 431.787,352.019 443.906,365.973 452.665,366.565 459.649,361.836 460.741,354.777 461.825,347.634 461.543,345.206 461.299,342.733 460.89,339.443Z M436.121,357.543 Q426.537,365.442 435.892,374.175 437.815,375.525 439.905,376.027 445.683,376.371 450.706,367.383 M302.466,481.901 Q303.212,486.073 303.251,488.151 303.374,488.555 306.318,490.97 308.674,492.901 318.88,496.347 327.109,499.155 329.338,500.225 329.638,500.32 329.774,500.432 329.114,501.33 333.05,504.937 333.874,505.688 338.268,509.291 339.989,510.703 344.274,512.777 348.596,514.806 350,515.958 352.174,517.741 352.393,517.844 353.822,518.411 355.857,516.669 361.586,524.096 360.191,522.194 M329.338,500.225 Q329.037,500.13 328.958,500.596 328.846,501.564 329.774,500.432 M281.918,532.179 Q276.074,532.007 273.401,533.603 272.303,534.295 269.257,538.009 265.245,542.902 266.799,546.828 268.007,549.789 275.871,557.753 277.06,556.304 277.791,554.858 279.046,557.023 280.959,559.956 L283.904,562.371 Q283.989,559.865 284.078,557.816 285.522,560.213 286.636,562.642 L290.759,566.022 293.173,563.078 Q292.289,557.504 295.483,551.485 299.063,546.011 299.464,544.598 298.875,544.115 298.18,542.56 M310.382,556.506 Q302.033,565.116 301.39,569.134 300.817,572.604 305.964,577.507 L308.862,573.974 Q309.181,572.569 310.837,569.533 310.825,569.825 310.729,570.126 309.039,577.453 312.925,582.231 L316.751,577.565 Q316.56,578 316.542,580.5 316.594,585.24 318.92,588.132 L319.554,588.652 Q321.432,587.01 323.221,582.795 325.172,578.106 326.435,576.566 328,573.44 332.7,573.824 M339.542,588.3 Q329.307,599.302 320.153,627.557 316.227,639.642 314.968,648.384 313.647,657.756 316.002,659.687 319.355,662.437 320.467,662.743 324.233,663.786 328.653,659.228 329.928,662.016 334.86,667.273 339.707,671.248 345.379,667.565 348.902,665.302 349.381,665.088 351.541,664.209 353.172,665.546 353.806,666.066 358.307,673.697 359.304,674.514 363.395,672.944 367.807,671.259 369.509,672.049 373.641,673.846 378.91,677.031 382.968,678.919 387.339,676.822 388.291,677.602 389.661,679.256 391.069,680.866 391.568,681.274 L407.542,661.795 Q411.799,651.8 418.335,638.749 423.268,628.853 424.894,623.822" test="Parrot"/>
      <path id="Layer2_0_6_STROKES" stroke="#F0F" stroke-width="2.343" stroke-linejoin="round" stroke-linecap="round" fill="none" d="M279.381,490.927 L273.526,499.914 Q267.657,510.027 267.889,515.749 268.01,518.651 267.161,521.44 266.731,522.982 265.863,525.149 265.313,526.743 265.971,527.511 266.811,528.427 269.75,529.094 273.627,530.001 278.13,529.223 281.238,528.666 283.413,530.449 285.496,532.158 290.082,537.283 294.414,541.517 298.074,541.488 301.652,541.468 305.101,546.039 307.065,548.634 311.287,554.294 313.7,556.803 317.01,560.805 319.883,563.768 323.654,564.436 327.553,565.133 330.197,567.452 331.844,568.955 335.372,573.06 337.467,575.309 339.269,578.378 340.64,580.032 343.51,578.75 M429.605,627.686 Q440.65,618.56 448.04,612.043 453.866,606.971 464.62,597 M286.968,730.66 Q283.487,740.079 283.275,741.724 282.971,744.127 285.508,746.207 286.459,746.987 286.805,747.12 288.556,747.571 291.773,746.42 294.71,777.393 295.797,778.284 302.592,783.857 315.113,774.502 322.675,768.884 329.696,760.322 334.117,754.931 337.137,748.846 339.116,744.863 340.949,739.395" test="Parrot"/>
      <path id="Layer2_0_7_STROKES" stroke="#F60" stroke-width="2.343" stroke-linejoin="round" stroke-linecap="round" fill="none" d="M314.071,664.998 Q314.213,663.902 314.309,662.769 314.493,660.419 314.13,660.122 L311.716,663.067 Q307.201,670.881 298.086,697.425 287.209,728.888 291.739,732.603 293.687,734.201 301.247,734.036 308.527,733.566 308.618,733.641 309.388,734.272 311.079,736.644 312.816,739.054 313.541,739.648 315.761,741.468 321.576,738.812 325.597,736.958 327.557,735.307 332.676,739.505 337.412,738.995 342.186,738.44 344.859,740.632 346.531,738.593 350.563,734.323 354.55,730.016 354.921,729.563 358.302,725.441 363.179,714.136 368.659,701.355 370.059,699.094 372.207,695.551 376.883,690.219 381.873,684.689 383.582,682.605 L382.993,682.122" test="Parrot"/>
    </g>
    <g id="JuryBoxFront">
      <path fill="#000" stroke="none" d="M-3688.11,607.828 L-3724.036,565.862 -3727.016,773.6 Q-3713.841,773.602 -3695.36,773.6 L-3688.11,607.828 M1051.532,586.241 L1049.357,586.241 1020.601,614.514 1020.601,766.754 Q1037.491,766.781 1051.532,766.754 L1051.532,586.241 M775.326,605.573 Q655.307,608.312 535.529,615.158 413.979,621.039 292.348,621.764 167.657,622.488 42.966,622.327 -78.665,622.166 -200.295,621.764 -328.853,621.361 -457.411,619.83 -584.197,618.38 -710.902,616.286 -836.721,614.272 -962.54,617.494 -1087.07,620.636 -1211.681,627.402 -1332.909,632.638 -1454.378,630.785 -1582.292,628.771 -1710.125,620.877 -1829.258,612.903 -1948.875,611.211 -2067.928,609.6 -2187.061,610.648 -2314.894,611.775 -2442.727,613.709 -2571.043,615.722 -2699.279,617.655 -2826.628,619.589 -2954.139,621.683 -3078.186,623.777 -3202.313,624.744 -3325.958,625.71 -3449.924,623.294 -3569.38,620.958 -3688.11,607.828 L-3695.36,773.6 Q-3363.562,773.455 -1319.457,770.217 626.426,767.068 1020.601,766.754 L1020.601,614.514 Q898.246,602.834 775.326,605.573 M505.161,589.302 Q496.775,589.695 488.407,590.027 366.052,594.054 243.696,594.054 206.621,594.054 169.51,594.054 80.052,594.078 -9.472,594.135 -22.744,594.145 -36.054,594.135 -150.907,594.024 -265.863,592.363 -302.715,591.834 -339.566,590.752 -376.429,590.507 -413.35,590.188 -440.976,590.03 -468.688,589.785 -496.339,589.055 -524.026,588.657 -652.423,586.885 -780.9,585.597 -880.841,584.614 -980.744,588.98 -995.395,589.668 -1010.065,590.43 -1130.97,595.988 -1251.634,602.351 L-1509.475,603.64 Q-1638.838,597.437 -1768.04,589.463 -1885.079,581.327 -2002.843,580.2 -2130.193,578.911 -2257.381,580.683 -2381.589,582.455 -2505.959,584.952 -2622.998,587.369 -2740.117,589.866 -2859.17,592.363 -2978.384,594.296 -3103.962,596.31 -3229.861,594.699 -3351.814,593.168 -3473.606,585.113 -3598.942,577.622 -3724.036,565.862 L-3688.11,607.828 Q-3569.38,620.958 -3449.924,623.294 -3325.958,625.71 -3202.313,624.744 -3078.186,623.777 -2954.139,621.683 -2826.628,619.589 -2699.279,617.655 -2571.043,615.722 -2442.727,613.709 -2314.894,611.775 -2187.061,610.648 -2067.928,609.6 -1948.875,611.211 -1829.258,612.903 -1710.125,620.877 -1582.292,628.771 -1454.378,630.785 -1332.909,632.638 -1211.681,627.402 -1087.07,620.636 -962.54,617.494 -836.721,614.272 -710.902,616.286 -584.197,618.38 -457.411,619.83 -328.853,621.361 -200.295,621.764 -78.665,622.166 42.966,622.327 167.657,622.488 292.348,621.764 413.979,621.039 535.529,615.158 655.307,608.312 775.326,605.573 898.246,602.834 1020.601,614.514 L1049.357,586.241 1049.438,584.952 Q1019.815,582.284 990.153,579.636 967.441,577.519 944.723,576.011 848.119,569.886 751.161,575.689 628.292,584.213 505.161,589.302Z" test="JuryBoxFront" stroke-width="1.611"/>
      <path id="Layer1_0_1_STROKES" stroke="#F60" stroke-width="3.222" stroke-linejoin="round" stroke-linecap="round" fill="none" d="M1049.478,584.992 Q1019.815,582.284 990.153,579.636 967.441,577.519 944.723,576.051 848.119,569.886 751.161,575.689 628.292,584.213 505.161,589.342 496.775,589.695 488.407,590.027 366.052,594.054 243.696,594.054 206.621,594.054 169.55,594.054 80.052,594.078 -9.472,594.135 -22.744,594.145 -36.014,594.135 -150.907,594.024 -265.863,592.363 -302.715,591.834 -339.566,590.792 -376.429,590.507 -413.31,590.228 -440.976,590.03 -468.648,589.825 -496.339,589.055 -524.026,588.657 -652.423,586.885 -780.9,585.597 -880.841,584.614 -980.704,589.02 -995.395,589.668 -1010.065,590.43 -1130.97,595.988 -1251.634,602.351 L-1509.475,603.64 Q-1638.838,597.437 -1768.04,589.463 -1885.079,581.327 -2002.843,580.2 -2130.193,578.911 -2257.381,580.683 -2381.589,582.455 -2505.959,584.952 -2622.998,587.369 -2740.117,589.866 -2859.17,592.363 -2978.384,594.296 -3103.962,596.31 -3229.861,594.699 -3351.814,593.168 -3473.606,585.113 -3598.942,577.622 -3724.036,565.862 L-3688.11,607.828 Q-3569.38,620.958 -3449.924,623.294 -3325.958,625.71 -3202.313,624.744 -3078.186,623.777 -2954.139,621.683 -2826.628,619.589 -2699.279,617.655 -2571.043,615.722 -2442.727,613.709 -2314.894,611.775 -2187.061,610.648 -2067.928,609.6 -1948.875,611.211 -1829.258,612.903 -1710.125,620.877 -1582.292,628.771 -1454.378,630.785 -1332.909,632.638 -1211.681,627.402 -1087.07,620.636 -962.54,617.494 -836.721,614.272 -710.902,616.286 -584.197,618.38 -457.411,619.83 -328.853,621.361 -200.295,621.764 -78.665,622.166 42.966,622.327 167.657,622.488 292.348,621.764 413.979,621.039 535.529,615.158 655.307,608.312 775.326,605.573 898.246,602.834 1020.601,614.514 L1049.357,586.241 M1049.478,584.992 Q1050.504,585.1 1051.532,585.194 L1051.532,586.241 1051.532,766.754 1051.532,784.797 M1020.601,784.797 L1020.601,766.794 M-3695.36,773.6 L-3695.843,784.797 M1020.601,766.794 L1020.601,614.514 M-3727.177,784.797 L-3727.016,773.6 -3724.036,565.862 M-3688.11,607.828 L-3695.36,773.6" test="JuryBoxFront"/>
    </g>
  </g>
</svg>