<?xml version="1.0" encoding="utf-8"?>
<svg id="EdithAnim12" image-rendering="inherit" baseProfile="basic" version="1.1" x="0px" y="0px" width="800" height="600" xmlns="http://www.w3.org/2000/svg" xmlns:xlink="http://www.w3.org/1999/xlink">
  <g id="14_JurorParrotf162r1" overflow="visible">
    <g id="Parrot">
      <path id="Layer2_0_1_STROKES" stroke="#FFF" stroke-width="2.344" stroke-linejoin="round" stroke-linecap="round" fill="none" d="M490.93,727.02 Q486.808,728.468 481.808,727.08 475.762,725.425 474.406,718.708 473.05,711.991 474.514,707.543 476.003,703.147 479.839,701.384 483.727,699.594 487.549,700.452 491.424,701.284 493.95,704.677 496.345,707.939 497.087,711.691 497.725,715.102 497.504,717.433 497.361,719.792 495.725,722.038 494.167,724.31 490.93,727.02Z M484.411,714.879 Q485.274,715.302 486.114,715.018 487.007,714.708 487.059,714.682 487.375,714.526 487.587,714.029 488.091,712.8 486.577,711.587 485.297,710.584 484.138,711.811 483.321,712.671 483.527,713.485 483.629,714.088 483.733,714.299 483.888,714.745 484.411,714.879Z M536.244,701.375 Q534.036,702.727 529.171,700.685 524.41,698.721 522.207,693.731 520.056,688.845 520.81,684.812 521.537,680.858 525.32,679.12 529.181,677.41 533.292,678.321 537.848,679.209 539.663,683.28 542.099,688.875 541.868,693.042 541.578,698.807 536.244,701.375Z M527.854,691.4 Q528.533,691.849 529.242,691.564 530.082,691.28 530.135,691.254 530.345,691.15 530.583,690.705 531.008,689.58 529.624,688.499 528.449,687.576 527.553,688.672 526.868,689.403 527.047,690.164 527.15,690.636 527.254,690.846 527.33,691.266 527.854,691.4Z" test="Parrot"/>
      <path id="Layer2_0_2_STROKES" stroke="#F00" stroke-width="2.344" stroke-linejoin="round" stroke-linecap="round" fill="none" d="M452.503,706.254 Q449.039,707.181 448.199,707.465 447.359,707.749 445.782,708.527 443.522,709.643 440.722,714.164 M445.943,676.027 L444.212,676.359 Q442.217,676.821 440.904,677.47 440.115,677.859 438.635,680.42 437.26,682.799 437.099,683.532 M389.288,673.544 Q403.572,679.041 413.185,690.831 421.365,700.91 427.911,718.137 433.654,733.341 447.759,743.24 463.353,754.169 479.607,753.332 495.888,752.548 506.734,748.434 517.605,744.373 525.694,735.868 533.835,727.338 537.48,716.452 541.124,705.698 540.582,703.939 M506.456,629.934 Q500.156,615.985 501.486,601.471 M478.319,658.993 Q474.657,657.534 471.706,655.396 471.314,655.132 468.686,656.429 467.32,657.104 465.74,658.538 465.424,658.825 462.79,661.433" test="Parrot"/>
      <path id="Layer2_0_3_STROKES" stroke="#0FF" stroke-width="2.344" stroke-linejoin="round" stroke-linecap="round" fill="none" d="M500.077,610.795 L498.736,606.359 Q497.557,606.353 496.349,606.819 495.561,607.077 493.985,607.856 489.623,610.009 488.207,615.349 486.765,620.768 484.348,621.961 483.507,622.377 478.545,623.977 473.636,625.552 472.743,625.993 467.54,628.562 467.657,631.446 467.852,634.356 463.859,636.328 462.965,636.769 459.37,637.695 455.722,638.647 454.881,639.062 454.303,639.347 453.265,642.409 452.281,645.444 449.758,646.69 448.865,647.131 445.112,648.135 441.359,649.138 440.518,649.554 439.572,650.021 437.619,652.684 436.643,654.016 435.719,655.322 435.561,655.4 431.734,655.591 427.538,655.963 425.856,656.794 423.702,657.858 421.41,660.231 420.303,661.432 419.354,662.554 417.252,663.592 405.496,666.391 395.734,668.727 391.637,670.358 390.822,670.695 390.244,670.98 M452.954,610.142 Q452.572,607.912 445.744,589.321 439.15,571.334 438.827,567.768 438.276,562.549 433.301,551.018 428.041,538.778 422.962,532.2 417.337,524.912 398.792,506.551 379.752,487.716 373.351,483.491 370.321,481.457 361.592,476.224 354.536,471.996 348.53,467.641 340.59,461.888 335.801,460.396 330.907,458.825 325.317,460.344 321.564,461.348 315.634,462.708 311.852,464.052 313.358,467.1 317.562,475.613 306.501,475.584 298.716,475.572 296.354,476.215 292.548,477.245 292.111,480.991 291.756,483.715 291.656,488.144 291.008,491.863 287.295,495.33 284.873,497.572 281.416,496.926 280.474,496.738 281.752,503.166 283.184,510.433 283.929,518.825 L284.392,525.72 Q285.733,530.156 288.407,540.733 290.772,550.023 296.855,560.223 304.238,572.526 313.793,580.096 314.315,580.492 337.478,597.879 352.258,609.014 358.361,615.151 362.925,619.76 370.26,625.747 375.377,629.887 377.38,633.016 M329.272,629.973 Q330.084,630.029 331.03,629.562 331.188,629.484 337.879,622.781 340.08,622.871 342.727,622.937 342.109,620.758 342.775,618.533 343.361,616.675 344.149,616.286 345.883,615.43 347.925,615.99 349.574,616.418 349.575,616.156 350.002,614.769 351.004,613.489 352.191,612.054 353.345,611.745 M385.142,669.251 Q343.296,656.122 330.032,630.055 L329.349,630.393 M501.486,601.471 Q499.987,586.655 497.44,571.833 494.918,557.064 491.662,542.396 489.611,533.081 488.086,523.638 485.67,508.555 479.948,494.451 478.575,491.142 476.834,488.145 469.376,475.029 464.836,460.407 463.287,455.55 463.26,450.465 463.252,446.744 463.218,443.1 466.277,444.662 468.411,447.66 485.226,471.255 495.972,497.912 497.68,502.166 498.969,506.629 501.055,514.03 503.299,521.354 505.336,528.127 505.956,535.207 507.273,549.917 508.17,564.573 509.254,583.713 501.486,601.471Z M483.802,531.113 Q479.798,529.887 476.281,530.839 475.232,531.096 471.763,532.809 469.819,533.769 469.756,535.892 469.719,538.067 466.619,539.598 464.569,540.61 459.842,542.422 455.666,544.157 453.639,546.008 448.61,550.517 443.484,553.506 442.117,554.312 437.598,556.544" test="Parrot"/>
      <path id="Layer2_0_4_STROKES" stroke="#0F0" stroke-width="2.344" stroke-linejoin="round" stroke-linecap="round" fill="none" d="M311.602,604.382 Q311.41,606.111 312.552,608.423 313.356,610.052 320.598,619.026 328.023,628.106 329.695,629.372" test="Parrot"/>
      <path id="Layer2_0_5_STROKES" stroke="#FF0" stroke-width="2.344" stroke-linejoin="round" stroke-linecap="round" fill="none" d="M297.603,567.828 L291.455,570.864 Q292.497,572.179 293.366,576.718 294.258,581.703 294.803,582.806 298.073,589.428 304.248,596.902 309.459,603.218 311.602,604.382 M526.356,671.026 Q534.615,659.954 530.737,649.189 528.953,644.252 526.907,639.314 509.188,644.6 505.035,652.337 506.461,660.653 512.444,664.562 518.505,668.498 520.834,669.243 523.189,670.041 526.356,671.026Z M520.083,640.984 Q516.84,628.99 505.021,633.911 502.997,635.107 501.678,636.804 498.979,641.928 505.098,650.215 M461.916,467.863 Q457.806,466.82 455.897,465.998 455.477,465.944 452.062,467.63 449.329,468.98 441.977,476.859 436.022,483.199 434.127,484.788 433.916,485.023 433.759,485.101 433.213,484.128 428.301,486.227 427.277,486.667 422.179,489.185 420.183,490.171 416.524,493.219 412.892,496.32 411.263,497.125 408.74,498.37 408.556,498.527 407.45,499.596 408.197,502.168 399.065,504.324 401.374,503.838 M434.127,484.788 Q434.338,484.553 433.946,484.289 433.11,483.787 433.759,485.101 M424.578,428.388 Q427.146,423.132 426.795,420.038 426.618,418.752 424.49,414.443 421.687,408.768 417.468,408.563 414.271,408.443 403.768,412.322 404.598,414.004 405.614,415.267 403.123,415.517 399.66,416.05 L396.245,417.737 Q398.493,418.849 400.323,419.775 397.543,420.102 394.87,420.115 L390.088,422.477 391.775,425.892 Q397.219,427.387 401.386,432.781 404.897,438.303 406.019,439.252 406.702,438.914 408.406,438.923 M390.661,444.287 Q386.261,433.125 382.864,430.881 379.939,428.926 373.346,431.593 L375.371,435.692 Q376.519,436.563 378.603,439.325 378.341,439.193 378.106,438.982 372.127,434.418 366.169,435.987 L368.842,441.4 Q367.614,440.634 366.254,439.998 361.913,438.089 358.317,439.015 L357.581,439.378 Q358.303,441.767 361.406,445.138 364.873,448.85 365.756,450.637 367.546,454.263 365.669,457.478 M349.653,457.739 Q343.851,443.871 321.881,423.868 312.487,415.303 305.041,410.548 297.046,405.476 294.313,406.826 290.424,408.746 289.686,409.633 287.181,412.635 289.511,418.544 286.444,418.555 279.618,420.88 273.995,423.657 275.01,430.346 275.619,434.49 275.616,435.014 275.526,437.346 273.634,438.281 272.898,438.644 264.087,439.596 262.931,440.167 262.673,444.543 262.388,449.259 260.966,450.484 257.623,453.508 252.547,456.995 249.151,459.914 249.258,464.763 248.154,465.308 246.081,465.875 244.033,466.494 243.455,466.779 L254.614,489.376 Q261.966,497.38 271.162,508.723 278.144,517.302 282.058,520.86" test="Parrot"/>
      <path id="Layer2_0_6_STROKES" stroke="#F0F" stroke-width="2.344" stroke-linejoin="round" stroke-linecap="round" fill="none" d="M463.218,443.1 L457.444,434.055 Q450.65,424.533 445.34,422.384 442.646,421.296 440.454,419.371 439.227,418.343 437.61,416.658 436.384,415.498 435.413,415.782 434.232,416.169 432.411,418.571 429.984,421.731 428.835,426.155 428.06,429.218 425.537,430.463 423.12,431.657 416.557,433.721 410.911,435.921 409.427,439.269 407.969,442.538 402.38,443.794 399.205,444.512 392.304,446.025 389.022,447.188 384.009,448.552 380.123,449.948 377.958,453.109 375.714,456.374 372.509,457.826 370.46,458.707 365.263,460.228 362.348,461.209 358.808,461.585 356.735,462.151 356.719,465.296 M276.592,523.558 Q280.351,537.39 283.239,546.814 285.457,554.216 290.106,568.131 M241.618,351.076 Q234.471,344.016 233.06,343.144 230.996,341.876 228.053,343.329 226.949,343.874 226.686,344.135 225.552,345.545 225.273,348.951 195.836,338.845 194.575,339.467 186.692,343.36 190.05,358.631 192.049,367.841 196.954,377.773 200.042,384.026 204.34,389.29 207.154,392.737 211.381,396.664" test="Parrot"/>
      <path id="Layer2_0_7_STROKES" stroke="#F60" stroke-width="2.344" stroke-linejoin="round" stroke-linecap="round" fill="none" d="M290.27,402.874 Q291.211,403.455 292.204,404.011 294.269,405.148 294.689,404.94 L293.003,401.524 Q287.745,394.186 267.317,374.924 243.133,352.027 237.878,354.622 235.619,355.738 232.649,362.695 230.072,369.524 229.967,369.576 229.074,370.017 226.214,370.579 223.302,371.168 222.461,371.583 219.886,372.854 219.907,379.25 219.937,383.68 220.633,386.147 214.695,389.079 213.204,393.606 211.74,398.186 208.64,399.717 209.807,402.082 212.034,407.518 214.314,412.929 214.574,413.454 216.935,418.237 225.225,427.347 234.61,437.615 236.093,439.824 238.435,443.243 241.365,449.706 244.345,456.535 245.539,458.952 L246.222,458.615" test="Parrot"/>
    </g>
    <g id="JuryBoxFront">
      <path fill="#000" stroke="none" d="M-3688.26,607.828 L-3724.186,565.862 -3727.166,773.6 Q-3713.991,773.602 -3695.51,773.6 L-3688.26,607.828 M1051.382,586.241 L1049.207,586.241 1020.451,614.514 1020.451,766.754 Q1037.341,766.781 1051.382,766.754 L1051.382,586.241 M775.176,605.573 Q655.157,608.312 535.379,615.158 413.829,621.039 292.198,621.764 167.507,622.488 42.816,622.327 -78.815,622.166 -200.445,621.764 -329.003,621.361 -457.561,619.83 -584.347,618.38 -711.052,616.286 -836.871,614.272 -962.69,617.494 -1087.22,620.636 -1211.831,627.402 -1333.059,632.638 -1454.528,630.785 -1582.442,628.771 -1710.275,620.877 -1829.408,612.903 -1949.025,611.211 -2068.078,609.6 -2187.211,610.648 -2315.044,611.775 -2442.877,613.709 -2571.193,615.722 -2699.429,617.655 -2826.778,619.589 -2954.289,621.683 -3078.336,623.777 -3202.463,624.744 -3326.108,625.71 -3450.074,623.294 -3569.53,620.958 -3688.26,607.828 L-3695.51,773.6 Q-3363.712,773.455 -1319.607,770.217 626.276,767.068 1020.451,766.754 L1020.451,614.514 Q898.096,602.834 775.176,605.573 M505.011,589.302 Q496.625,589.695 488.257,590.027 365.902,594.054 243.546,594.054 206.471,594.054 169.36,594.054 79.902,594.078 -9.622,594.135 -22.894,594.145 -36.204,594.135 -151.057,594.024 -266.013,592.363 -302.865,591.834 -339.716,590.752 -376.579,590.507 -413.5,590.188 -441.126,590.03 -468.838,589.785 -496.489,589.055 -524.176,588.657 -652.573,586.885 -781.05,585.597 -880.991,584.614 -980.894,588.98 -995.545,589.668 -1010.215,590.43 -1131.12,595.988 -1251.784,602.351 L-1509.625,603.64 Q-1638.988,597.437 -1768.19,589.463 -1885.229,581.327 -2002.993,580.2 -2130.343,578.911 -2257.531,580.683 -2381.739,582.455 -2506.109,584.952 -2623.148,587.369 -2740.267,589.866 -2859.32,592.363 -2978.534,594.296 -3104.112,596.31 -3230.011,594.699 -3351.964,593.168 -3473.756,585.113 -3599.092,577.622 -3724.186,565.862 L-3688.26,607.828 Q-3569.53,620.958 -3450.074,623.294 -3326.108,625.71 -3202.463,624.744 -3078.336,623.777 -2954.289,621.683 -2826.778,619.589 -2699.429,617.655 -2571.193,615.722 -2442.877,613.709 -2315.044,611.775 -2187.211,610.648 -2068.078,609.6 -1949.025,611.211 -1829.408,612.903 -1710.275,620.877 -1582.442,628.771 -1454.528,630.785 -1333.059,632.638 -1211.831,627.402 -1087.22,620.636 -962.69,617.494 -836.871,614.272 -711.052,616.286 -584.347,618.38 -457.561,619.83 -329.003,621.361 -200.445,621.764 -78.815,622.166 42.816,622.327 167.507,622.488 292.198,621.764 413.829,621.039 535.379,615.158 655.157,608.312 775.176,605.573 898.096,602.834 1020.451,614.514 L1049.207,586.241 1049.288,584.952 Q1019.665,582.284 990.003,579.636 967.291,577.519 944.573,576.011 847.969,569.886 751.011,575.689 628.142,584.213 505.011,589.302Z" test="JuryBoxFront" stroke-width="1.611"/>
      <path id="Layer1_0_1_STROKES" stroke="#F60" stroke-width="3.222" stroke-linejoin="round" stroke-linecap="round" fill="none" d="M1049.328,584.992 Q1019.665,582.284 990.003,579.636 967.291,577.519 944.573,576.051 847.969,569.886 751.011,575.689 628.142,584.213 505.011,589.342 496.625,589.695 488.257,590.027 365.902,594.054 243.546,594.054 206.471,594.054 169.4,594.054 79.902,594.078 -9.622,594.135 -22.894,594.145 -36.164,594.135 -151.057,594.024 -266.013,592.363 -302.865,591.834 -339.716,590.792 -376.579,590.507 -413.46,590.228 -441.126,590.03 -468.798,589.825 -496.489,589.055 -524.176,588.657 -652.573,586.885 -781.05,585.597 -880.991,584.614 -980.854,589.02 -995.545,589.668 -1010.215,590.43 -1131.12,595.988 -1251.784,602.351 L-1509.625,603.64 Q-1638.988,597.437 -1768.19,589.463 -1885.229,581.327 -2002.993,580.2 -2130.343,578.911 -2257.531,580.683 -2381.739,582.455 -2506.109,584.952 -2623.148,587.369 -2740.267,589.866 -2859.32,592.363 -2978.534,594.296 -3104.112,596.31 -3230.011,594.699 -3351.964,593.168 -3473.756,585.113 -3599.092,577.622 -3724.186,565.862 L-3688.26,607.828 Q-3569.53,620.958 -3450.074,623.294 -3326.108,625.71 -3202.463,624.744 -3078.336,623.777 -2954.289,621.683 -2826.778,619.589 -2699.429,617.655 -2571.193,615.722 -2442.877,613.709 -2315.044,611.775 -2187.211,610.648 -2068.078,609.6 -1949.025,611.211 -1829.408,612.903 -1710.275,620.877 -1582.442,628.771 -1454.528,630.785 -1333.059,632.638 -1211.831,627.402 -1087.22,620.636 -962.69,617.494 -836.871,614.272 -711.052,616.286 -584.347,618.38 -457.561,619.83 -329.003,621.361 -200.445,621.764 -78.815,622.166 42.816,622.327 167.507,622.488 292.198,621.764 413.829,621.039 535.379,615.158 655.157,608.312 775.176,605.573 898.096,602.834 1020.451,614.514 L1049.207,586.241 M1049.328,584.992 Q1050.354,585.1 1051.382,585.194 L1051.382,586.241 1051.382,766.754 1051.382,784.797 M1020.451,784.797 L1020.451,766.794 M-3695.51,773.6 L-3695.993,784.797 M1020.451,766.794 L1020.451,614.514 M-3727.327,784.797 L-3727.166,773.6 -3724.186,565.862 M-3688.26,607.828 L-3695.51,773.6" test="JuryBoxFront"/>
    </g>
  </g>
</svg>