<?xml version="1.0" encoding="utf-8"?>
<svg id="EdithAnim12" image-rendering="inherit" baseProfile="basic" version="1.1" x="0px" y="0px" width="800" height="600" xmlns="http://www.w3.org/2000/svg" xmlns:xlink="http://www.w3.org/1999/xlink">
  <g id="14_JurorParrotf165r1" overflow="visible">
    <g id="Parrot">
      <path id="Layer2_0_1_STROKES" stroke="#FFF" stroke-width="2.344" stroke-linejoin="round" stroke-linecap="round" fill="none" d="M194.305,645.189 Q192.554,641.187 193.564,636.099 194.761,629.947 201.356,628.094 207.951,626.24 212.496,627.366 216.99,628.523 219.034,632.215 221.109,635.957 220.54,639.832 220,643.758 216.805,646.529 213.732,649.161 210.048,650.181 206.695,651.072 204.354,651.026 201.992,651.06 199.631,649.597 197.249,648.214 194.305,645.189Z M205.922,637.782 Q205.564,638.674 205.911,639.49 206.286,640.357 206.316,640.408 206.495,640.71 207.006,640.885 208.27,641.295 209.366,639.695 210.27,638.345 208.961,637.28 208.041,636.53 207.245,636.796 206.652,636.943 206.45,637.062 206.016,637.25 205.922,637.782Z M223.26,688.448 Q221.747,686.347 223.419,681.344 225.021,676.451 229.832,673.882 234.542,671.372 238.619,671.822 242.615,672.251 244.63,675.893 246.624,679.615 246.023,683.781 245.479,688.39 241.555,690.503 236.159,693.35 231.988,693.432 226.219,693.573 223.26,688.448Z M232.578,679.337 Q232.181,680.048 232.518,680.734 232.864,681.55 232.894,681.6 233.013,681.802 233.474,682.006 234.627,682.346 235.602,680.885 236.435,679.645 235.274,678.833 234.495,678.205 233.75,678.441 233.286,678.578 233.085,678.698 232.672,678.805 232.578,679.337Z" test="Parrot"/>
      <path id="Layer2_0_2_STROKES" stroke="#F00" stroke-width="2.344" stroke-linejoin="round" stroke-linecap="round" fill="none" d="M212.135,605.326 Q210.952,601.942 210.606,601.125 210.26,600.309 209.366,598.796 208.085,596.626 203.368,594.172 M241.78,596.526 L241.319,594.825 Q240.709,592.871 239.964,591.61 239.517,590.853 236.853,589.569 234.379,588.376 233.636,588.27 M240.019,539.858 Q235.607,554.509 224.572,564.975 215.135,573.884 198.45,581.697 183.721,588.56 174.907,603.362 165.177,619.725 167.227,635.868 169.226,652.04 174.138,662.545 178,673.08 188.083,680.508 197.196,687.987 208.321,690.807 219.315,693.636 221.028,692.965 M292.256,653.409 Q305.692,646.085 320.261,646.326 M261.182,627.53 Q262.363,623.77 264.274,620.668 264.508,620.258 263.018,617.735 262.243,616.423 260.696,614.956 260.386,614.662 257.589,612.231" test="Parrot"/>
      <path id="Layer2_0_3_STROKES" stroke="#0FF" stroke-width="2.344" stroke-linejoin="round" stroke-linecap="round" fill="none" d="M310.86,645.619 L315.183,643.95 Q315.101,642.774 314.546,641.604 314.23,640.838 313.336,639.325 310.862,635.137 305.433,634.125 299.923,633.093 298.552,630.772 298.075,629.965 296.109,625.138 294.172,620.361 293.665,619.504 290.715,614.509 287.849,614.841 284.962,615.253 282.697,611.419 282.191,610.561 280,607.046 279.777,603.48 279.3,602.673 278.973,602.118 275.843,601.313 272.743,600.558 271.313,598.136 270.806,597.279 269.525,593.612 268.244,589.945 267.767,589.138 267.23,588.23 264.429,586.482 263.028,585.609 261.657,584.785 261.567,584.634 261.091,580.832 260.406,576.677 259.453,575.063 258.231,572.994 255.693,570.887 254.414,569.873 253.224,569.01 252.032,566.992 248.363,555.481 245.303,545.924 243.371,541.961 242.974,541.175 242.646,540.62 M307.988,598.59 Q310.183,598.042 328.207,589.845 345.646,581.926 349.177,581.337 354.339,580.398 365.463,574.576 377.273,568.417 383.451,562.862 390.296,556.709 407.215,536.848 424.569,516.457 428.303,509.76 430.104,506.587 434.668,497.494 438.356,490.143 442.249,483.829 447.391,475.483 448.52,470.597 449.72,465.601 447.788,460.141 446.507,456.475 444.708,450.664 443.085,446.995 440.159,448.723 431.986,453.551 431.187,442.522 430.618,434.76 429.799,432.453 428.489,428.736 424.721,428.58 421.979,428.43 417.556,428.661 413.8,428.293 410.065,424.851 407.649,422.604 408.035,419.109 408.152,418.155 401.839,419.911 394.701,421.881 386.391,423.251 L379.551,424.229 Q375.228,425.898 364.884,429.354 355.799,432.406 346.085,439.233 334.371,447.513 327.539,457.606 327.183,458.156 311.58,482.548 301.585,498.116 295.922,504.659 291.668,509.554 286.249,517.314 282.503,522.725 279.534,524.956 M278.971,476.767 Q278.975,477.581 279.511,478.489 279.601,478.64 286.784,484.81 286.859,487.011 286.992,489.655 289.117,488.875 291.385,489.373 293.281,489.818 293.728,490.575 294.711,492.24 294.305,494.317 294.002,495.994 294.264,495.975 295.678,496.296 297.029,497.2 298.549,498.276 298.943,499.404 M243.989,535.403 Q253.95,492.703 278.945,477.53 L278.558,476.875 M320.261,646.326 Q334.921,643.724 349.507,640.076 364.042,636.458 378.422,632.115 387.556,629.374 396.856,627.147 411.713,623.612 425.346,616.852 428.542,615.236 431.4,613.276 443.918,604.861 458.156,599.241 462.882,597.334 467.95,596.926 471.66,596.64 475.29,596.334 473.961,599.5 471.132,601.852 448.866,620.38 423.093,633.086 418.98,635.107 414.627,636.725 407.404,639.359 400.27,642.144 393.671,644.681 386.659,645.828 372.091,648.24 357.546,650.231 338.547,652.743 320.261,646.326Z M389.084,623.436 Q390.006,619.352 388.794,615.917 388.459,614.89 386.492,611.56 385.39,609.694 383.269,609.789 381.097,609.915 379.339,606.939 378.177,604.971 376.018,600.394 373.975,596.36 371.978,594.478 367.107,589.801 363.744,584.915 362.838,583.612 360.275,579.273" test="Parrot"/>
      <path id="Layer2_0_4_STROKES" stroke="#0F0" stroke-width="2.344" stroke-linejoin="round" stroke-linecap="round" fill="none" d="M303.162,457.237 Q301.424,457.175 299.204,458.486 297.64,459.41 289.235,467.301 280.739,475.382 279.601,477.143" test="Parrot"/>
      <path id="Layer2_0_5_STROKES" stroke="#FF0" stroke-width="2.344" stroke-linejoin="round" stroke-linecap="round" fill="none" d="M338.559,440.548 L335.073,434.645 Q333.839,435.783 329.379,436.988 324.476,438.251 323.417,438.876 317.06,442.631 310.07,449.346 304.162,455.013 303.162,457.237 M252.777,676.321 Q264.433,683.727 274.876,679.055 279.664,676.908 284.434,674.499 277.84,657.229 269.815,653.667 261.631,655.711 258.182,661.968 254.711,668.305 254.142,670.683 253.523,673.09 252.777,676.321Z M282.259,667.821 Q293.974,663.691 288.184,652.276 286.841,650.347 285.05,649.159 279.74,646.852 271.936,653.571 M450.505,596.887 Q451.237,592.711 451.914,590.746 451.937,590.325 450,587.045 448.45,584.422 440.045,577.682 433.28,572.219 431.553,570.448 431.304,570.255 431.214,570.104 432.143,569.487 429.683,564.748 429.168,563.759 426.277,558.866 425.145,556.948 421.832,553.529 418.469,550.14 417.545,548.576 416.114,546.154 415.945,545.982 414.796,544.959 412.288,545.897 409.455,536.954 410.113,539.219 M431.553,570.448 Q431.803,570.641 432.037,570.23 432.475,569.359 431.214,570.104 M487.068,556.711 Q492.5,558.879 495.559,558.297 496.827,558.024 500.964,555.581 506.412,552.362 506.301,548.141 506.182,544.945 501.529,534.763 499.915,535.717 498.731,536.824 498.296,534.359 497.505,530.947 L495.568,527.668 Q494.628,529.993 493.841,531.886 493.307,529.139 493.095,526.475 L490.383,521.884 487.104,523.821 Q486.02,529.361 480.954,533.918 475.712,537.831 474.85,539.021 475.237,539.677 475.356,541.376 M468.682,524.086 Q479.48,518.865 481.464,515.311 483.194,512.248 480.042,505.875 L476.107,508.2 Q475.325,509.41 472.726,511.693 472.839,511.423 473.031,511.173 477.135,504.87 475.125,499.048 L469.928,502.118 Q470.6,500.836 471.133,499.433 472.711,494.962 471.519,491.446 L471.102,490.74 Q468.774,491.639 465.646,494.983 462.204,498.718 460.489,499.731 457.008,501.788 453.662,500.157 M452.204,484.209 Q465.596,477.387 483.896,453.988 491.733,443.983 495.916,436.204 500.375,427.854 498.826,425.23 496.62,421.497 495.68,420.827 492.5,418.555 486.784,421.319 486.543,418.262 483.715,411.631 480.526,406.233 473.934,407.745 469.848,408.661 469.325,408.698 466.993,408.782 465.92,406.966 465.503,406.26 463.895,397.546 463.239,396.436 458.857,396.507 454.134,396.575 452.806,395.249 449.542,392.142 445.686,387.342 442.522,384.175 437.695,384.644 437.069,383.585 436.35,381.56 435.58,379.565 435.252,379.01 L413.558,391.824 Q406.128,399.752 395.508,409.768 387.476,417.37 384.222,421.538" test="Parrot"/>
      <path id="Layer2_0_6_STROKES" stroke="#F0F" stroke-width="2.344" stroke-linejoin="round" stroke-linecap="round" fill="none" d="M475.29,596.334 L483.875,589.901 Q492.861,582.416 494.606,576.961 495.49,574.194 497.244,571.865 498.178,570.565 499.737,568.827 500.801,567.518 500.446,566.571 499.972,565.422 497.44,563.787 494.109,561.603 489.613,560.788 486.501,560.244 485.071,557.823 483.7,555.502 481.151,549.114 478.536,543.649 475.088,542.419 471.719,541.21 470.049,535.732 469.095,532.621 467.072,525.854 465.667,522.669 463.932,517.773 462.25,514.003 458.937,512.081 455.513,510.088 453.826,507.001 452.795,505.024 450.89,499.957 449.694,497.125 449.055,493.623 448.335,491.598 445.198,491.818 M381.123,416.291 Q367.614,421.072 358.435,424.657 351.221,427.421 337.696,433.096 M550.465,368.527 Q556.97,360.875 557.733,359.403 558.844,357.25 557.175,354.425 556.549,353.365 556.269,353.122 554.779,352.097 551.362,352.073 559.237,321.97 558.522,320.76 554.052,313.192 539.078,317.681 530.046,320.363 520.511,325.995 514.507,329.541 509.581,334.22 506.354,337.283 502.756,341.79" test="Parrot"/>
      <path id="Layer2_0_7_STROKES" stroke="#F60" stroke-width="2.344" stroke-linejoin="round" stroke-linecap="round" fill="none" d="M502.463,420.904 Q501.954,421.886 501.474,422.917 500.495,425.061 500.733,425.465 L504.012,423.528 Q510.936,417.737 528.611,395.931 549.631,370.109 546.651,365.064 545.369,362.895 538.211,360.454 531.211,358.396 531.151,358.295 530.645,357.438 529.87,354.629 529.066,351.769 528.589,350.962 527.129,348.49 520.754,348.989 516.34,349.35 513.933,350.228 510.565,344.527 505.94,343.38 501.265,342.263 499.507,339.286 497.237,340.627 491.983,343.254 486.759,345.931 486.255,346.229 481.664,348.941 473.202,357.887 463.666,368.011 461.574,369.654 458.341,372.245 452.117,375.649 445.531,379.131 443.21,380.502 L443.598,381.157" test="Parrot"/>
    </g>
    <g id="JuryBoxFront">
      <path fill="#000" stroke="none" d="M-3688.31,607.828 L-3724.236,565.862 -3727.216,773.6 Q-3714.041,773.602 -3695.56,773.6 L-3688.31,607.828 M1051.332,586.241 L1049.157,586.241 1020.401,614.514 1020.401,766.754 Q1037.291,766.781 1051.332,766.754 L1051.332,586.241 M775.126,605.573 Q655.107,608.312 535.329,615.158 413.779,621.039 292.148,621.764 167.457,622.488 42.766,622.327 -78.865,622.166 -200.495,621.764 -329.053,621.361 -457.611,619.83 -584.397,618.38 -711.102,616.286 -836.921,614.272 -962.74,617.494 -1087.27,620.636 -1211.881,627.402 -1333.109,632.638 -1454.578,630.785 -1582.492,628.771 -1710.325,620.877 -1829.458,612.903 -1949.075,611.211 -2068.128,609.6 -2187.261,610.648 -2315.094,611.775 -2442.927,613.709 -2571.243,615.722 -2699.479,617.655 -2826.828,619.589 -2954.339,621.683 -3078.386,623.777 -3202.513,624.744 -3326.158,625.71 -3450.124,623.294 -3569.58,620.958 -3688.31,607.828 L-3695.56,773.6 Q-3363.762,773.455 -1319.657,770.217 626.226,767.068 1020.401,766.754 L1020.401,614.514 Q898.046,602.834 775.126,605.573 M504.961,589.302 Q496.575,589.695 488.207,590.027 365.852,594.054 243.496,594.054 206.421,594.054 169.31,594.054 79.852,594.078 -9.672,594.135 -22.944,594.145 -36.254,594.135 -151.107,594.024 -266.063,592.363 -302.915,591.834 -339.766,590.752 -376.629,590.507 -413.55,590.188 -441.176,590.03 -468.888,589.785 -496.539,589.055 -524.226,588.657 -652.623,586.885 -781.1,585.597 -881.041,584.614 -980.944,588.98 -995.595,589.668 -1010.265,590.43 -1131.17,595.988 -1251.834,602.351 L-1509.675,603.64 Q-1639.038,597.437 -1768.24,589.463 -1885.279,581.327 -2003.043,580.2 -2130.393,578.911 -2257.581,580.683 -2381.789,582.455 -2506.159,584.952 -2623.198,587.369 -2740.317,589.866 -2859.37,592.363 -2978.584,594.296 -3104.162,596.31 -3230.061,594.699 -3352.014,593.168 -3473.806,585.113 -3599.142,577.622 -3724.236,565.862 L-3688.31,607.828 Q-3569.58,620.958 -3450.124,623.294 -3326.158,625.71 -3202.513,624.744 -3078.386,623.777 -2954.339,621.683 -2826.828,619.589 -2699.479,617.655 -2571.243,615.722 -2442.927,613.709 -2315.094,611.775 -2187.261,610.648 -2068.128,609.6 -1949.075,611.211 -1829.458,612.903 -1710.325,620.877 -1582.492,628.771 -1454.578,630.785 -1333.109,632.638 -1211.881,627.402 -1087.27,620.636 -962.74,617.494 -836.921,614.272 -711.102,616.286 -584.397,618.38 -457.611,619.83 -329.053,621.361 -200.495,621.764 -78.865,622.166 42.766,622.327 167.457,622.488 292.148,621.764 413.779,621.039 535.329,615.158 655.107,608.312 775.126,605.573 898.046,602.834 1020.401,614.514 L1049.157,586.241 1049.238,584.952 Q1019.615,582.284 989.953,579.636 967.241,577.519 944.523,576.011 847.919,569.886 750.961,575.689 628.092,584.213 504.961,589.302Z" test="JuryBoxFront" stroke-width="1.611"/>
      <path id="Layer1_0_1_STROKES" stroke="#F60" stroke-width="3.222" stroke-linejoin="round" stroke-linecap="round" fill="none" d="M1049.278,584.992 Q1019.615,582.284 989.953,579.636 967.241,577.519 944.523,576.051 847.919,569.886 750.961,575.689 628.092,584.213 504.961,589.342 496.575,589.695 488.207,590.027 365.852,594.054 243.496,594.054 206.421,594.054 169.35,594.054 79.852,594.078 -9.672,594.135 -22.944,594.145 -36.214,594.135 -151.107,594.024 -266.063,592.363 -302.915,591.834 -339.766,590.792 -376.629,590.507 -413.51,590.228 -441.176,590.03 -468.848,589.825 -496.539,589.055 -524.226,588.657 -652.623,586.885 -781.1,585.597 -881.041,584.614 -980.904,589.02 -995.595,589.668 -1010.265,590.43 -1131.17,595.988 -1251.834,602.351 L-1509.675,603.64 Q-1639.038,597.437 -1768.24,589.463 -1885.279,581.327 -2003.043,580.2 -2130.393,578.911 -2257.581,580.683 -2381.789,582.455 -2506.159,584.952 -2623.198,587.369 -2740.317,589.866 -2859.37,592.363 -2978.584,594.296 -3104.162,596.31 -3230.061,594.699 -3352.014,593.168 -3473.806,585.113 -3599.142,577.622 -3724.236,565.862 L-3688.31,607.828 Q-3569.58,620.958 -3450.124,623.294 -3326.158,625.71 -3202.513,624.744 -3078.386,623.777 -2954.339,621.683 -2826.828,619.589 -2699.479,617.655 -2571.243,615.722 -2442.927,613.709 -2315.094,611.775 -2187.261,610.648 -2068.128,609.6 -1949.075,611.211 -1829.458,612.903 -1710.325,620.877 -1582.492,628.771 -1454.578,630.785 -1333.109,632.638 -1211.881,627.402 -1087.27,620.636 -962.74,617.494 -836.921,614.272 -711.102,616.286 -584.397,618.38 -457.611,619.83 -329.053,621.361 -200.495,621.764 -78.865,622.166 42.766,622.327 167.457,622.488 292.148,621.764 413.779,621.039 535.329,615.158 655.107,608.312 775.126,605.573 898.046,602.834 1020.401,614.514 L1049.157,586.241 M1049.278,584.992 Q1050.304,585.1 1051.332,585.194 L1051.332,586.241 1051.332,766.754 1051.332,784.797 M1020.401,784.797 L1020.401,766.794 M-3695.56,773.6 L-3696.043,784.797 M1020.401,766.794 L1020.401,614.514 M-3727.377,784.797 L-3727.216,773.6 -3724.236,565.862 M-3688.31,607.828 L-3695.56,773.6" test="JuryBoxFront"/>
    </g>
  </g>
</svg>