<?xml version="1.0" encoding="utf-8"?>
<svg id="EdithAnim12" image-rendering="inherit" baseProfile="basic" version="1.1" x="0px" y="0px" width="800" height="600" xmlns="http://www.w3.org/2000/svg" xmlns:xlink="http://www.w3.org/1999/xlink">
  <g id="14_JurorParrotf168r1" overflow="visible">
    <g id="Parrot">
      <path id="Layer2_0_1_STROKES" stroke="#FFF" stroke-width="2.345" stroke-linejoin="round" stroke-linecap="round" fill="none" d="M254.557,342.7 Q258.428,340.67 263.577,341.319 269.801,342.081 272.116,348.532 274.432,354.983 273.628,359.598 272.791,364.165 269.25,366.466 265.661,368.801 261.754,368.506 257.798,368.244 254.806,365.251 251.963,362.37 250.685,358.764 249.559,355.481 249.44,353.141 249.24,350.786 250.534,348.326 251.746,345.851 254.557,342.7Z M262.769,353.772 Q261.853,353.478 261.063,353.881 260.224,354.317 260.176,354.351 259.887,354.551 259.749,355.073 259.428,356.363 261.103,357.344 262.514,358.151 263.484,356.769 264.167,355.799 263.846,355.023 263.658,354.441 263.525,354.248 263.306,353.829 262.769,353.772Z M213.425,374.65 Q215.414,372.991 220.526,374.308 225.522,375.561 228.426,380.181 231.263,384.705 231.101,388.806 230.955,392.825 227.462,395.093 223.888,397.346 219.688,397.039 215.05,396.821 212.664,393.054 209.442,387.87 209.066,383.713 208.518,377.965 213.425,374.65Z M223.175,383.307 Q222.437,382.961 221.777,383.345 220.986,383.748 220.938,383.782 220.745,383.915 220.574,384.389 220.316,385.564 221.843,386.434 223.139,387.178 223.868,385.963 224.44,385.14 224.152,384.413 223.982,383.96 223.849,383.767 223.712,383.363 223.175,383.307Z" test="Parrot"/>
      <path id="Layer2_0_2_STROKES" stroke="#F00" stroke-width="2.345" stroke-linejoin="round" stroke-linecap="round" fill="none" d="M295.6,357.684 Q298.894,356.265 299.684,355.862 300.475,355.459 301.922,354.46 303.997,353.028 306.114,348.148 M306.473,386.65 L308.139,386.07 Q310.046,385.324 311.252,384.492 311.976,383.992 313.07,381.243 314.086,378.689 314.139,377.941 M362.907,380.896 Q347.973,377.526 336.75,367.25 327.193,358.46 318.217,342.359 310.329,328.143 294.934,320.39 277.917,311.833 261.95,315.017 245.95,318.153 235.812,323.796 225.641,329.391 218.868,338.981 212.046,348.604 210.016,359.906 207.968,371.078 208.759,372.741 M253.261,441.04 Q261.518,453.933 262.305,468.491 M276.898,408.201 Q280.734,409.115 283.965,410.803 284.391,411.008 286.804,409.343 288.058,408.477 289.414,406.829 289.685,406.5 291.914,403.537" test="Parrot"/>
      <path id="Layer2_0_3_STROKES" stroke="#0FF" stroke-width="2.345" stroke-linejoin="round" stroke-linecap="round" fill="none" d="M262.349,459.059 L264.319,463.255 Q265.487,463.09 266.615,462.454 267.357,462.084 268.805,461.085 272.809,458.321 273.437,452.831 274.079,447.259 276.298,445.727 277.07,445.194 281.749,442.891 286.38,440.621 287.2,440.055 291.977,436.759 291.443,433.921 290.828,431.069 294.495,428.538 295.315,427.972 298.74,426.535 302.213,425.064 302.985,424.531 303.515,424.165 304.098,420.985 304.633,417.838 306.949,416.239 307.769,415.673 311.338,414.136 314.908,412.599 315.68,412.066 316.548,411.466 318.095,408.547 318.868,407.087 319.593,405.661 319.738,405.561 323.499,404.817 327.597,403.841 329.141,402.775 331.12,401.41 333.044,398.728 333.966,397.38 334.742,396.131 336.672,394.799 347.903,390.326 357.226,386.598 361.044,384.39 361.801,383.939 362.332,383.572 M309.083,452.875 Q309.785,455.027 319.237,472.438 328.37,489.284 329.207,492.767 330.508,497.853 337.104,508.544 344.084,519.897 350.064,525.671 356.688,532.069 377.703,547.554 399.278,563.436 406.225,566.691 409.519,568.264 418.917,572.178 426.513,575.341 433.089,578.78 441.781,583.324 446.737,584.106 451.808,584.951 457.121,582.638 460.691,581.101 466.363,578.896 469.91,577.017 467.979,574.219 462.584,566.402 473.536,564.827 481.242,563.711 483.487,562.732 487.104,561.162 486.995,557.391 486.951,554.643 486.408,550.245 486.51,546.47 489.683,542.5 491.755,539.93 495.27,540.069 496.23,540.118 494.033,533.942 491.563,526.956 489.61,518.759 L488.151,512.001 Q486.181,507.805 482.002,497.725 478.315,488.873 470.816,479.659 461.726,468.552 451.171,462.445 450.597,462.129 425.152,448.276 408.91,439.398 401.98,434.208 396.795,430.308 388.667,425.446 383.003,422.09 380.567,419.283 M428.622,415.323 Q427.81,415.384 426.942,415.984 426.797,416.084 421.146,423.688 418.955,423.918 416.325,424.237 417.253,426.303 416.916,428.602 416.605,430.526 415.881,431.025 414.289,432.124 412.187,431.865 410.493,431.681 410.53,431.941 410.309,433.375 409.502,434.787 408.536,436.38 407.438,436.853 M367.633,384.544 Q410.952,391.474 427.858,415.351 L428.486,414.918 M262.305,468.491 Q265.936,482.938 270.606,497.239 275.242,511.491 280.591,525.537 283.97,534.459 286.849,543.584 291.425,558.163 299.133,571.292 300.972,574.368 303.129,577.082 312.411,588.983 319.024,602.797 321.261,607.379 322.025,612.408 322.572,616.09 323.134,619.692 319.88,618.589 317.333,615.931 297.271,595.016 282.772,570.189 280.465,566.226 278.543,561.996 275.405,554.973 272.123,548.049 269.125,541.641 267.485,534.724 264.05,520.355 261.038,505.979 257.191,487.193 262.305,468.491Z M290.005,535.565 Q294.146,536.198 297.488,534.745 298.49,534.339 301.675,532.141 303.46,530.909 303.215,528.799 302.936,526.641 305.783,524.676 307.664,523.377 312.08,520.899 315.962,518.577 317.7,516.451 322.024,511.259 326.664,507.558 327.9,506.562 332.05,503.698" test="Parrot"/>
      <path id="Layer2_0_4_STROKES" stroke="#0F0" stroke-width="2.345" stroke-linejoin="round" stroke-linecap="round" fill="none" d="M449.82,438.09 Q449.759,436.351 448.294,434.228 447.262,432.732 438.794,424.9 430.129,416.99 428.291,415.978" test="Parrot"/>
      <path id="Layer2_0_5_STROKES" stroke="#FF0" stroke-width="2.345" stroke-linejoin="round" stroke-linecap="round" fill="none" d="M468.973,472.241 L474.618,468.344 Q473.396,467.193 471.879,462.827 470.273,458.023 469.573,457.01 465.378,450.93 458.183,444.427 452.11,438.931 449.82,438.09 M227.61,403.254 Q221.04,415.41 226.439,425.503 228.92,430.13 231.661,434.72 248.432,426.921 251.421,418.661 248.804,410.637 242.316,407.636 235.746,404.619 233.333,404.219 230.887,403.77 227.61,403.254Z M238.172,432.079 Q243.12,443.48 254.105,436.896 255.935,435.419 256.995,433.549 258.923,428.086 251.666,420.771 M320.834,594.994 Q325.053,595.43 327.062,595.967 327.484,595.961 330.621,593.796 333.13,592.064 339.264,583.201 344.239,576.063 345.885,574.215 346.059,573.952 346.204,573.852 346.885,574.736 351.442,571.947 352.392,571.362 357.073,568.132 358.906,566.867 362.085,563.319 365.231,559.723 366.727,558.691 369.043,557.093 369.202,556.911 370.142,555.693 369.03,553.255 377.755,549.797 375.541,550.614 M345.885,574.215 Q345.71,574.478 346.136,574.683 347.037,575.058 346.204,573.852 M363.51,628.653 Q361.73,634.227 362.526,637.239 362.888,638.485 365.618,642.442 369.215,647.653 373.42,647.243 376.602,646.899 386.435,641.537 385.37,639.993 384.181,638.891 386.611,638.282 389.96,637.253 L393.096,635.088 Q390.71,634.313 388.764,633.662 391.468,632.935 394.112,632.535 L398.503,629.505 396.339,626.368 Q390.733,625.678 385.828,620.943 381.552,615.987 380.304,615.211 379.677,615.643 377.989,615.882 M394.775,608.001 Q400.748,618.41 404.434,620.14 407.614,621.65 413.751,618.055 L411.154,614.291 Q409.891,613.596 407.429,611.164 407.707,611.257 407.97,611.432 414.549,615.082 420.218,612.666 L416.788,607.696 Q418.115,608.276 419.553,608.709 424.127,609.968 427.551,608.531 L428.227,608.065 Q427.166,605.805 423.607,602.919 419.637,599.747 418.504,598.106 416.207,594.777 417.598,591.324 M433.412,588.744 Q441.165,601.628 465.809,618.242 476.347,625.358 484.406,628.985 493.055,632.846 495.564,631.114 499.134,628.65 499.736,627.665 501.781,624.331 498.618,618.82 501.652,618.365 508.071,615.074 513.234,611.511 511.26,605.038 510.057,601.024 509.984,600.505 509.735,598.184 511.472,596.985 512.147,596.519 520.73,594.299 521.792,593.566 521.413,589.198 521.012,584.489 522.241,583.07 525.112,579.593 529.631,575.406 532.569,572.025 531.76,567.241 532.773,566.541 534.743,565.68 536.68,564.771 537.211,564.405 L522.892,543.657 Q514.455,536.8 503.71,526.907 495.556,519.428 491.166,516.474" test="Parrot"/>
      <path id="Layer2_0_6_STROKES" stroke="#F0F" stroke-width="2.345" stroke-linejoin="round" stroke-linecap="round" fill="none" d="M323.134,619.692 L330.16,627.807 Q338.264,636.247 343.831,637.604 346.655,638.291 349.104,639.878 350.467,640.718 352.311,642.151 353.693,643.121 354.613,642.7 355.726,642.145 357.18,639.504 359.124,636.025 359.62,631.48 359.944,628.336 362.26,626.738 364.479,625.206 370.676,622.212 375.945,619.216 376.929,615.688 377.898,612.241 383.248,610.187 386.286,609.016 392.897,606.519 395.977,604.892 400.741,602.815 404.385,600.87 406.069,597.428 407.817,593.871 410.779,591.97 412.679,590.801 417.602,588.543 420.345,587.149 423.794,586.264 425.764,585.403 425.324,582.288 M496.184,513.01 Q490.46,499.865 486.235,490.957 482.968,483.952 476.35,470.853 M555.798,678.655 Q563.895,684.606 565.418,685.265 567.645,686.221 570.347,684.356 571.36,683.657 571.583,683.361 572.501,681.801 572.284,678.389 602.883,684.125 604.041,683.326 611.279,678.331 605.742,663.703 602.429,654.878 596.135,645.758 592.173,640.017 587.155,635.43 583.871,632.426 579.118,629.152" test="Parrot"/>
      <path id="Layer2_0_7_STROKES" stroke="#F60" stroke-width="2.345" stroke-linejoin="round" stroke-linecap="round" fill="none" d="M500.138,634.439 Q499.123,634 498.059,633.595 495.851,632.768 495.465,633.035 L497.629,636.171 Q503.897,642.673 526.906,658.776 554.161,677.933 558.986,674.603 561.06,673.171 562.992,665.855 564.552,658.723 564.648,658.656 565.469,658.09 568.218,657.119 571.015,656.115 571.787,655.582 574.151,653.95 573.204,647.623 572.531,643.243 571.485,640.902 576.938,637.139 577.757,632.443 578.542,627.698 581.389,625.733 579.89,623.562 576.898,618.504 573.858,613.479 573.525,612.997 570.494,608.606 560.969,600.791 550.192,591.988 548.404,590.016 545.591,586.972 541.755,581 537.815,574.673 536.283,572.453 L535.656,572.886" test="Parrot"/>
    </g>
    <g id="JuryBoxFront">
      <path fill="#000" stroke="none" d="M-3689.667,607.798 L-3725.614,565.806 -3728.597,773.673 Q-3715.414,773.675 -3696.921,773.673 L-3689.667,607.798 M1052.918,586.197 L1050.742,586.197 1021.967,614.488 1021.967,766.822 Q1038.868,766.849 1052.918,766.822 L1052.918,586.197 M776.54,605.541 Q656.446,608.282 536.594,615.133 414.969,621.017 293.263,621.742 168.494,622.467 43.725,622.306 -77.981,622.145 -199.687,621.742 -328.324,621.339 -456.962,619.808 -583.826,618.357 -710.61,616.261 -836.507,614.246 -962.405,617.47 -1087.012,620.614 -1211.7,627.384 -1333.003,632.623 -1454.548,630.769 -1582.541,628.754 -1710.453,620.855 -1829.661,612.876 -1949.352,611.183 -2068.478,609.571 -2187.686,610.619 -2315.598,611.748 -2443.51,613.682 -2571.906,615.697 -2700.221,617.631 -2827.65,619.566 -2955.24,621.661 -3079.364,623.757 -3203.568,624.724 -3327.289,625.691 -3451.333,623.273 -3570.862,620.936 -3689.667,607.798 L-3696.921,773.673 Q-3364.917,773.528 -1319.543,770.288 627.548,767.136 1021.967,766.822 L1021.967,614.488 Q899.536,602.801 776.54,605.541 M506.208,589.26 Q497.816,589.654 489.443,589.986 367.012,594.016 244.58,594.016 207.482,594.016 170.348,594.016 80.835,594.04 -8.745,594.096 -22.025,594.106 -35.343,594.096 -150.268,593.985 -265.295,592.323 -302.17,591.794 -339.044,590.711 -375.93,590.466 -412.874,590.147 -440.516,589.989 -468.246,589.744 -495.914,589.014 -523.618,588.615 -652.095,586.842 -780.652,585.553 -880.655,584.569 -980.62,588.938 -995.28,589.626 -1009.959,590.389 -1130.939,595.95 -1251.678,602.317 L-1509.679,603.607 Q-1639.122,597.401 -1768.405,589.421 -1885.516,581.281 -2003.354,580.152 -2130.782,578.863 -2258.05,580.636 -2382.335,582.409 -2506.781,584.908 -2623.893,587.326 -2741.085,589.824 -2860.212,592.323 -2979.5,594.257 -3105.156,596.272 -3231.133,594.66 -3353.162,593.129 -3475.029,585.069 -3600.443,577.573 -3725.614,565.806 L-3689.667,607.798 Q-3570.862,620.936 -3451.333,623.273 -3327.289,625.691 -3203.568,624.724 -3079.364,623.757 -2955.24,621.661 -2827.65,619.566 -2700.221,617.631 -2571.906,615.697 -2443.51,613.682 -2315.598,611.748 -2187.686,610.619 -2068.478,609.571 -1949.352,611.183 -1829.661,612.876 -1710.453,620.855 -1582.541,628.754 -1454.548,630.769 -1333.003,632.623 -1211.7,627.384 -1087.012,620.614 -962.405,617.47 -836.507,614.246 -710.61,616.261 -583.826,618.357 -456.962,619.808 -328.324,621.339 -199.687,621.742 -77.981,622.145 43.725,622.306 168.494,622.467 293.263,621.742 414.969,621.017 536.594,615.133 656.446,608.282 776.54,605.541 899.536,602.801 1021.967,614.488 L1050.742,586.197 1050.822,584.908 Q1021.181,582.238 991.501,579.588 968.775,577.47 946.042,575.961 849.379,569.832 752.36,575.639 629.415,584.168 506.208,589.26Z" test="JuryBoxFront" stroke-width="1.612"/>
      <path id="Layer1_0_1_STROKES" stroke="#F60" stroke-width="3.224" stroke-linejoin="round" stroke-linecap="round" fill="none" d="M1050.863,584.948 Q1021.181,582.238 991.501,579.588 968.775,577.47 946.042,576.002 849.379,569.832 752.36,575.639 629.415,584.168 506.208,589.301 497.816,589.654 489.443,589.986 367.012,594.016 244.58,594.016 207.482,594.016 170.388,594.016 80.835,594.04 -8.745,594.096 -22.025,594.106 -35.303,594.096 -150.268,593.985 -265.295,592.323 -302.17,591.794 -339.044,590.751 -375.93,590.466 -412.833,590.187 -440.516,589.989 -468.206,589.784 -495.914,589.014 -523.618,588.615 -652.095,586.842 -780.652,585.553 -880.655,584.569 -980.58,588.978 -995.28,589.626 -1009.959,590.389 -1130.939,595.95 -1251.678,602.317 L-1509.679,603.607 Q-1639.122,597.401 -1768.405,589.421 -1885.516,581.281 -2003.354,580.152 -2130.782,578.863 -2258.05,580.636 -2382.335,582.409 -2506.781,584.908 -2623.893,587.326 -2741.085,589.824 -2860.212,592.323 -2979.5,594.257 -3105.156,596.272 -3231.133,594.66 -3353.162,593.129 -3475.029,585.069 -3600.443,577.573 -3725.614,565.806 L-3689.667,607.798 Q-3570.862,620.936 -3451.333,623.273 -3327.289,625.691 -3203.568,624.724 -3079.364,623.757 -2955.24,621.661 -2827.65,619.566 -2700.221,617.631 -2571.906,615.697 -2443.51,613.682 -2315.598,611.748 -2187.686,610.619 -2068.478,609.571 -1949.352,611.183 -1829.661,612.876 -1710.453,620.855 -1582.541,628.754 -1454.548,630.769 -1333.003,632.623 -1211.7,627.384 -1087.012,620.614 -962.405,617.47 -836.507,614.246 -710.61,616.261 -583.826,618.357 -456.962,619.808 -328.324,621.339 -199.687,621.742 -77.981,622.145 43.725,622.306 168.494,622.467 293.263,621.742 414.969,621.017 536.594,615.133 656.446,608.282 776.54,605.541 899.536,602.801 1021.967,614.488 L1050.742,586.197 M1050.863,584.948 Q1051.889,585.056 1052.918,585.15 L1052.918,586.197 1052.918,766.822 1052.918,784.876 M1021.967,784.876 L1021.967,766.862 M-3696.921,773.673 L-3697.404,784.876 M1021.967,766.862 L1021.967,614.488 M-3728.758,784.876 L-3728.597,773.673 -3725.614,565.806 M-3689.667,607.798 L-3696.921,773.673" test="JuryBoxFront"/>
    </g>
  </g>
</svg>