<?xml version="1.0" encoding="utf-8"?>
<svg id="EdithAnim12" image-rendering="inherit" baseProfile="basic" version="1.1" x="0px" y="0px" width="800" height="600" xmlns="http://www.w3.org/2000/svg" xmlns:xlink="http://www.w3.org/1999/xlink">
  <g id="14_JurorParrotf174r1" overflow="visible">
    <g id="Parrot">
      <path id="Layer2_0_1_STROKES" stroke="#FFF" stroke-width="3.195" stroke-linejoin="round" stroke-linecap="round" fill="none" d="M560.742,671.377 Q557.923,676.621 551.616,679.818 544.01,683.707 536.474,678.192 528.938,672.678 526.324,666.855 523.785,661.062 526.025,655.764 528.295,650.39 532.93,647.742 537.595,645.019 543.255,646.114 548.662,647.197 552.856,650.291 556.632,653.138 558.551,655.688 560.574,658.193 560.991,661.957 561.511,665.675 560.742,671.377Z M543.026,665.145 Q544.284,664.779 544.868,663.721 545.482,662.589 545.511,662.514 545.685,662.068 545.442,661.373 544.82,659.672 542.181,659.842 539.973,660.009 539.932,662.308 539.901,663.925 540.856,664.555 541.513,665.069 541.81,665.185 542.376,665.492 543.026,665.145Z M582.79,603.932 Q581.809,607.321 575.036,609.736 568.441,612.134 561.638,609.134 554.984,606.193 552.037,601.442 549.136,596.793 551.348,591.569 553.662,586.299 558.637,583.44 564.039,580.147 569.606,582.578 577.198,585.972 580.794,590.377 585.798,596.446 582.79,603.932Z M565.18,601.6 Q566.276,601.428 566.728,600.49 567.313,599.432 567.342,599.357 567.458,599.06 567.289,598.394 566.683,596.871 564.297,597.054 562.266,597.204 562.371,599.131 562.353,600.496 563.233,601.097 563.77,601.478 564.067,601.594 564.53,601.947 565.18,601.6Z" test="Parrot"/>
      <path id="Layer2_0_2_STROKES" stroke="#F00" stroke-width="3.195" stroke-linejoin="round" stroke-linecap="round" fill="none" d="M502.987,685.781 Q500.351,689.896 499.766,690.954 499.182,692.012 498.31,694.244 497.061,697.443 498.395,704.566 M468.612,661.384 L467.175,663.309 Q465.592,665.607 464.866,667.467 464.43,668.583 465.293,672.521 466.094,676.178 466.606,677.063 M409.308,710.938 Q428.734,703.347 449.242,706.381 466.736,709.01 489.152,720.335 508.902,730.362 532.193,727.366 557.929,724.039 573.521,708.263 589.187,692.515 596.323,678.41 603.534,664.334 603.862,648.343 604.219,632.277 597.886,617.972 591.673,603.799 589.512,602.526 M487.171,559.394 Q468.014,551.142 456.018,535.312 M485.549,614.494 Q480.522,616.389 475.587,616.949 474.95,617.043 473.498,620.763 472.743,622.698 472.47,625.592 472.415,626.171 472.16,631.216" test="Parrot"/>
      <path id="Layer2_0_3_STROKES" stroke="#0FF" stroke-width="3.195" stroke-linejoin="round" stroke-linecap="round" fill="none" d="M463.166,545.991 L457.74,542.758 Q456.548,543.836 455.76,545.415 455.204,546.398 454.333,548.63 451.922,554.805 455.403,561.481 458.93,568.259 457.593,571.682 457.129,572.872 453.605,579.042 450.11,585.137 449.617,586.402 446.741,593.767 449.508,596.563 452.378,599.313 450.17,604.967 449.676,606.232 446.908,610.467 444.111,614.776 443.646,615.967 443.326,616.785 445.095,620.82 446.893,624.78 445.498,628.351 445.004,629.616 442.149,634.074 439.294,638.533 438.829,639.723 438.306,641.062 438.788,645.538 439.029,647.775 439.299,649.938 439.212,650.162 435.534,653.87 431.653,658.1 430.724,660.481 429.533,663.531 429.407,668.026 429.395,670.251 429.471,672.253 428.309,675.229 419.048,688.847 411.369,700.168 408.744,705.573 408.234,706.66 407.914,707.479 M415.136,588.629 Q412.702,586.736 388.75,574.297 365.586,562.252 361.985,558.959 356.636,554.212 341.034,547.177 324.493,539.69 313.338,537.735 300.98,535.568 265.446,534.126 228.976,532.662 218.652,534.29 213.734,535.028 200.141,537.78 189.154,540.006 179.107,541.142 165.83,542.646 159.639,545.545 153.271,548.46 149.039,555.125 146.184,559.583 141.464,566.401 138.893,571.227 143.209,572.912 155.261,577.618 144.102,587.752 136.256,594.891 134.47,597.709 131.585,602.242 134.586,606.415 136.732,609.482 140.7,614.033 143.465,618.37 142.914,625.272 142.536,629.754 138.463,632.28 137.341,632.956 144.534,638.251 152.652,644.251 161.111,652.012 L167.913,658.527 Q173.339,661.76 185.747,669.948 196.663,677.126 212.157,681.804 230.891,687.404 247.464,686.244 248.353,686.162 287.642,682.382 312.748,680.009 324.529,680.579 333.358,681.026 346.241,680.311 355.195,679.778 360.086,681.087 M308.869,722.224 Q309.738,721.534 310.261,720.195 310.349,719.972 310.924,707.078 313.222,705.146 315.947,702.78 313.323,701.155 311.95,698.304 310.832,695.895 311.268,694.779 312.226,692.324 314.796,691.013 316.849,689.928 316.61,689.663 315.764,687.875 315.598,685.666 315.473,683.131 316.352,681.759 M401.19,710.427 Q347.009,735.658 309.709,721.609 L309.332,722.576 M456.018,535.312 Q440.896,521.776 424.714,509.199 408.607,496.65 391.853,484.879 381.231,477.387 371.019,469.284 354.73,456.322 336.013,447.384 331.59,445.315 327.085,443.898 307.528,437.548 289.524,427.003 283.503,423.538 278.804,418.444 275.376,414.705 271.994,411.07 276.508,409.831 281.411,410.888 320.013,419.187 355.32,436.145 360.949,438.858 366.345,442.165 375.246,447.698 384.233,453.008 392.506,457.953 399.635,464.509 414.475,478.106 428.844,492.034 447.52,510.301 456.018,535.312Z M373.576,480.743 Q368.419,483.188 365.755,487.378 364.934,488.601 363.017,493.511 361.942,496.264 363.829,498.459 365.79,500.682 364.076,505.072 362.943,507.973 359.85,514.139 357.241,519.723 356.901,523.449 355.983,532.608 353.569,540.325 352.934,542.392 350.436,548.791" test="Parrot"/>
      <path id="Layer2_0_4_STROKES" stroke="#0F0" stroke-width="3.195" stroke-linejoin="round" stroke-linecap="round" fill="none" d="M267.572,712.701 Q268.967,714.618 272.241,715.896 274.547,716.797 290.081,719.175 305.897,721.492 308.742,721.231" test="Parrot"/>
      <path id="Layer2_0_5_STROKES" stroke="#FF0" stroke-width="3.195" stroke-linejoin="round" stroke-linecap="round" fill="none" d="M219.897,688.77 L216.498,697.475 Q218.756,697.842 223.8,701.612 229.278,705.809 230.841,706.419 240.215,710.079 253.297,711.929 264.345,713.499 267.572,712.701 M544.954,582.47 Q543.094,563.738 529.299,556.466 522.968,553.136 516.372,550.046 503.394,571.645 506.323,583.249 515.399,590.308 525.012,588.746 534.729,587.138 537.758,585.748 540.861,584.388 544.954,582.47Z M511.039,557.996 Q496.755,548.903 489.38,564.715 488.441,567.779 488.673,570.699 490.664,578.335 504.436,581.055 M293.435,437.19 Q288.34,439.917 285.663,440.844 285.191,441.174 283.303,446.01 281.792,449.879 281.632,464.564 281.463,476.416 281.016,479.757 281.019,480.187 280.932,480.41 279.489,479.933 276.474,486.558 275.847,487.942 273.03,495.159 271.926,497.986 271.044,504.416 270.237,510.874 269.337,513.181 267.942,516.752 267.901,517.079 267.77,519.171 270.885,521.073 263.675,531.634 265.552,529.023 M281.016,479.757 Q281.012,479.327 280.375,479.421 279.072,479.684 280.932,480.41 M219.585,431.763 Q217.342,424.113 214.145,421.322 212.786,420.191 206.685,417.809 198.65,414.671 194.216,418.342 190.887,421.158 183.879,434.713 186.26,435.642 188.443,435.98 186.165,438.52 183.17,442.238 L181.282,447.074 Q184.567,446.128 187.26,445.379 184.763,448.262 182.083,450.731 L179.44,457.502 184.276,459.39 Q191.129,455.892 200.279,457.493 208.886,459.825 210.888,459.749 211.265,458.782 212.988,457.225 M200.055,478.927 Q185.372,471.736 179.891,472.597 175.151,473.318 170.966,482.059 L176.769,484.325 Q178.725,484.146 183.36,485.012 182.975,485.119 182.545,485.123 172.334,486.023 167.779,493.076 L175.442,496.068 Q173.502,496.425 171.549,497.035 165.426,499.103 162.658,503.338 L162.251,504.379 Q165.172,506.12 171.391,506.662 178.293,507.213 180.823,508.201 185.956,510.205 187.02,515.165 M171.14,530.143 Q152.559,521.516 112.068,521.569 94.744,521.578 82.88,523.634 70.173,525.875 68.662,529.743 66.513,535.249 66.585,536.821 66.822,542.143 74.595,545.95 71.519,548.779 66.784,557.391 63.676,565.352 70.843,571.151 75.263,574.763 75.742,575.293 77.794,577.724 76.749,580.402 76.342,581.444 68.348,590.498 67.709,592.135 71.47,596.776 75.516,601.785 75.211,604.324 74.623,610.44 72.718,618.613 71.982,624.671 76.545,629.453 75.935,631.016 74.369,633.491 72.877,635.995 72.557,636.813 L104.549,649.305 Q119.303,650.607 138.98,653.574 153.89,655.795 161.098,655.78" test="Parrot"/>
      <path id="Layer2_0_6_STROKES" stroke="#F0F" stroke-width="3.195" stroke-linejoin="round" stroke-linecap="round" fill="none" d="M271.994,411.07 L257.872,407.271 Q242.286,403.929 234.967,406.644 231.255,408.024 227.281,408.102 225.101,408.194 221.925,407.983 219.626,407.942 218.909,409.12 218.076,410.595 218.451,414.686 218.911,420.096 221.819,425.604 223.852,429.399 222.458,432.97 221.122,436.393 216.413,444.5 212.751,451.902 214.333,456.635 215.869,461.265 211.398,467.665 208.862,471.305 203.306,479.167 201.071,483.353 197.279,489.332 194.65,494.308 195.375,499.478 196.116,504.827 194.224,509.232 192.972,512.002 189.138,518.307 187.106,521.973 183.888,525.603 182.321,528.078 185.195,531.258 M158.077,663.517 Q174.567,673.986 186.133,680.817 195.166,686.23 212.63,695.964 M-35.596,522.046 Q-49.276,521.506 -51.497,521.925 -54.74,522.545 -56.367,526.711 -56.977,528.274 -57.003,528.778 -56.849,531.239 -54,534.924 -92.914,551.797 -93.611,553.583 -97.969,564.743 -80.558,577.028 -70.085,584.462 -56.023,589.952 -47.17,593.409 -38.007,594.757 -32.008,595.642 -24.146,595.711" test="Parrot"/>
      <path id="Layer2_0_7_STROKES" stroke="#F60" stroke-width="3.195" stroke-linejoin="round" stroke-linecap="round" fill="none" d="M60.962,529.481 Q62.443,529.201 63.953,528.848 67.077,528.095 67.309,527.5 L62.473,525.612 Q50.438,523.056 12.181,522.438 -33.197,521.611 -36.102,529.051 -37.351,532.25 -33.949,541.981 -30.268,551.221 -30.326,551.37 -30.82,552.635 -33.182,555.828 -35.572,559.096 -36.037,560.286 -37.461,563.932 -31.564,570.35 -27.463,574.781 -24.496,576.625 -27.779,585.032 -25.12,590.958 -22.386,596.913 -24.1,601.302 -20.752,602.61 -13.515,606.035 -6.25,609.387 -5.506,609.677 1.265,612.321 17.979,613.874 36.859,615.587 40.381,616.448 45.88,617.737 54.766,621.55 64.041,625.685 67.463,627.022 L67.841,626.055" test="Parrot"/>
    </g>
    <g id="JuryBoxFront">
      <path fill="#000" stroke="none" d="M-4439.311,656.054 L-4481.86,602.964 -4485.389,865.765 Q-4469.786,865.767 -4447.897,865.765 L-4439.311,656.054 M1174.12,628.745 L1171.544,628.745 1137.487,664.512 1137.487,857.103 Q1157.49,857.138 1174.12,857.103 L1174.12,628.745 M846.994,653.201 Q704.848,656.666 562.988,665.327 419.029,672.766 274.975,673.683 127.296,674.6 -20.383,674.396 -164.437,674.193 -308.491,673.683 -460.75,673.174 -613.008,671.237 -763.168,669.403 -913.232,666.754 -1062.247,664.206 -1211.261,668.282 -1358.75,672.256 -1506.334,680.816 -1649.911,687.44 -1793.774,685.096 -1945.269,682.548 -2096.669,672.562 -2237.765,662.474 -2379.434,660.334 -2520.436,658.296 -2661.532,659.621 -2812.932,661.047 -2964.332,663.493 -3116.304,666.041 -3268.181,668.486 -3419.008,670.932 -3570.026,673.581 -3716.942,676.231 -3863.954,677.453 -4010.393,678.676 -4157.213,675.619 -4298.692,672.664 -4439.311,656.054 L-4447.897,865.765 Q-4054.929,865.581 -1633.979,861.485 670.643,857.5 1137.487,857.103 L1137.487,664.512 Q992.574,649.737 846.994,653.201 M527.022,632.617 Q517.089,633.115 507.179,633.534 362.266,638.629 217.354,638.629 173.443,638.629 129.49,638.629 23.541,638.66 -82.489,638.731 -98.207,638.744 -113.971,638.731 -249.998,638.591 -386.147,636.49 -429.792,635.821 -473.438,634.452 -517.097,634.142 -560.824,633.738 -593.543,633.538 -626.364,633.229 -659.113,632.305 -691.904,631.802 -843.971,629.56 -996.134,627.93 -1114.501,626.687 -1232.822,632.21 -1250.173,633.08 -1267.547,634.044 -1410.743,641.075 -1553.652,649.125 L-1859.027,650.756 Q-2012.24,642.909 -2165.261,632.821 -2303.878,622.529 -2443.352,621.103 -2594.18,619.472 -2744.816,621.714 -2891.923,623.956 -3039.221,627.115 -3177.837,630.172 -3316.549,633.331 -3457.55,636.49 -3598.742,638.935 -3747.47,641.483 -3896.581,639.445 -4041.016,637.509 -4185.261,627.319 -4333.703,617.842 -4481.86,602.964 L-4439.311,656.054 Q-4298.692,672.664 -4157.213,675.619 -4010.393,678.676 -3863.954,677.453 -3716.942,676.231 -3570.026,673.581 -3419.008,670.932 -3268.181,668.486 -3116.304,666.041 -2964.332,663.493 -2812.932,661.047 -2661.532,659.621 -2520.436,658.296 -2379.434,660.334 -2237.765,662.474 -2096.669,672.562 -1945.269,682.548 -1793.774,685.096 -1649.911,687.44 -1506.334,680.816 -1358.75,672.256 -1211.261,668.282 -1062.247,664.206 -913.232,666.754 -763.168,669.403 -613.008,671.237 -460.75,673.174 -308.491,673.683 -164.437,674.193 -20.383,674.396 127.296,674.6 274.975,673.683 419.029,672.766 562.988,665.327 704.848,656.666 846.994,653.201 992.574,649.737 1137.487,664.512 L1171.544,628.745 1171.64,627.115 Q1136.555,623.74 1101.425,620.389 1074.526,617.711 1047.62,615.804 933.207,608.055 818.374,615.396 672.852,626.179 527.022,632.617Z" test="JuryBoxFront" stroke-width="1.973"/>
      <path id="Layer1_0_1_STROKES" stroke="#F60" stroke-width="3.946" stroke-linejoin="round" stroke-linecap="round" fill="none" d="M1171.688,627.166 Q1136.555,623.74 1101.425,620.389 1074.526,617.711 1047.62,615.855 933.207,608.055 818.374,615.396 672.852,626.179 527.022,632.668 517.089,633.115 507.179,633.534 362.266,638.629 217.354,638.629 173.443,638.629 129.538,638.629 23.541,638.66 -82.489,638.731 -98.207,638.744 -113.923,638.731 -249.998,638.591 -386.147,636.49 -429.792,635.821 -473.438,634.502 -517.097,634.142 -560.776,633.789 -593.543,633.538 -626.316,633.28 -659.113,632.305 -691.904,631.802 -843.971,629.56 -996.134,627.93 -1114.501,626.687 -1232.774,632.261 -1250.173,633.08 -1267.547,634.044 -1410.743,641.075 -1553.652,649.125 L-1859.027,650.756 Q-2012.24,642.909 -2165.261,632.821 -2303.878,622.529 -2443.352,621.103 -2594.18,619.472 -2744.816,621.714 -2891.923,623.956 -3039.221,627.115 -3177.837,630.172 -3316.549,633.331 -3457.55,636.49 -3598.742,638.935 -3747.47,641.483 -3896.581,639.445 -4041.016,637.509 -4185.261,627.319 -4333.703,617.842 -4481.86,602.964 L-4439.311,656.054 Q-4298.692,672.664 -4157.213,675.619 -4010.393,678.676 -3863.954,677.453 -3716.942,676.231 -3570.026,673.581 -3419.008,670.932 -3268.181,668.486 -3116.304,666.041 -2964.332,663.493 -2812.932,661.047 -2661.532,659.621 -2520.436,658.296 -2379.434,660.334 -2237.765,662.474 -2096.669,672.562 -1945.269,682.548 -1793.774,685.096 -1649.911,687.44 -1506.334,680.816 -1358.75,672.256 -1211.261,668.282 -1062.247,664.206 -913.232,666.754 -763.168,669.403 -613.008,671.237 -460.75,673.174 -308.491,673.683 -164.437,674.193 -20.383,674.396 127.296,674.6 274.975,673.683 419.029,672.766 562.988,665.327 704.848,656.666 846.994,653.201 992.574,649.737 1137.487,664.512 L1171.544,628.745 M1171.688,627.166 Q1172.903,627.302 1174.12,627.42 L1174.12,628.745 1174.12,857.103 1174.12,879.929 M1137.487,879.929 L1137.487,857.154 M-4447.897,865.765 L-4448.47,879.929 M1137.487,857.154 L1137.487,664.512 M-4485.58,879.929 L-4485.389,865.765 -4481.86,602.964 M-4439.311,656.054 L-4447.897,865.765" test="JuryBoxFront"/>
    </g>
  </g>
</svg>