<?xml version="1.0" encoding="utf-8"?>
<svg id="EdithAnim12" image-rendering="inherit" baseProfile="basic" version="1.1" x="0px" y="0px" width="800" height="600" xmlns="http://www.w3.org/2000/svg" xmlns:xlink="http://www.w3.org/1999/xlink">
  <g id="14_JurorParrotf176r1" overflow="visible">
    <g id="Parrot">
      <path id="Layer2_0_1_STROKES" stroke="#FFF" stroke-width="3.534" stroke-linejoin="round" stroke-linecap="round" fill="none" d="M355.588,895.767 Q349.209,897.405 341.88,894.671 333.013,891.4 331.849,881.136 330.685,870.871 333.462,864.38 336.27,857.97 342.26,855.82 348.332,853.638 353.962,855.423 359.674,857.175 363.027,862.601 366.201,867.811 366.827,873.543 367.343,878.748 366.708,882.222 366.187,885.745 363.438,888.906 360.803,892.117 355.588,895.767Z M347.375,876.683 Q348.616,877.432 349.914,877.114 351.295,876.764 351.378,876.732 351.871,876.539 352.255,875.82 353.172,874.039 351.055,872.02 349.264,870.349 347.363,872.04 346.024,873.227 346.227,874.475 346.302,875.395 346.431,875.724 346.606,876.415 347.375,876.683Z M426.981,863.135 Q423.488,864.878 416.446,861.179 409.551,857.612 406.89,849.829 404.294,842.211 405.95,836.252 407.556,830.408 413.464,828.29 419.486,826.222 425.541,828.125 432.269,830.05 434.466,836.401 437.398,845.121 436.511,851.349 435.325,859.97 426.981,863.135Z M415.674,847.062 Q416.636,847.824 417.738,847.489 419.037,847.171 419.12,847.139 419.449,847.01 419.864,846.374 420.649,844.739 418.711,842.935 417.066,841.396 415.577,842.926 414.453,843.934 414.624,845.101 414.716,845.823 414.845,846.153 414.905,846.793 415.674,847.062Z" test="Parrot"/>
      <path id="Layer2_0_2_STROKES" stroke="#F00" stroke-width="3.534" stroke-linejoin="round" stroke-linecap="round" fill="none" d="M300.57,859.585 Q295.246,860.526 293.947,860.844 292.648,861.162 290.179,862.126 286.64,863.509 281.847,869.935 M294.643,813.332 L291,813.606 Q288.944,814.041 286.887,814.845 285.652,815.327 283.096,818.981 280.722,822.375 280.385,823.455 M209.871,802.244 Q230.611,812.355 243.518,831.312 254.495,847.513 262.089,874.238 268.741,897.82 288.64,914.521 310.641,932.961 335.164,933.816 359.719,934.753 376.543,929.983 393.399,925.295 406.653,913.572 419.99,901.817 426.878,885.941 433.749,870.261 433.164,867.549 M391.52,751.963 Q383.87,730.193 387.753,708.566 M345.484,791.954 Q340.173,789.285 336.018,785.691 335.464,785.244 331.349,786.851 329.209,787.687 326.65,789.635 326.138,790.025 321.843,793.6" test="Parrot"/>
      <path id="Layer2_0_3_STROKES" stroke="#0FF" stroke-width="3.534" stroke-linejoin="round" stroke-linecap="round" fill="none" d="M384.425,722.387 L382.987,715.55 Q381.217,715.388 379.342,715.931 378.125,716.216 375.656,717.181 368.825,719.849 366.005,727.686 363.135,735.637 359.35,737.116 358.033,737.63 350.372,739.389 342.794,741.116 341.395,741.663 333.248,744.846 333.048,749.192 332.964,753.589 326.709,756.032 325.31,756.579 319.789,757.502 314.186,758.458 312.869,758.972 311.964,759.326 310.008,763.79 308.135,768.221 304.184,769.764 302.785,770.311 297.018,771.331 291.25,772.35 289.934,772.865 288.452,773.443 285.173,777.191 283.533,779.064 281.976,780.906 281.729,781.002 275.955,780.792 269.605,780.806 266.972,781.835 263.597,783.153 259.846,786.42 258.028,788.079 256.457,789.642 253.165,790.928 235.144,793.604 220.178,795.846 213.812,797.763 212.546,798.163 211.64,798.517 M313.732,715.285 Q313.447,711.886 305.608,683.076 298.039,655.203 298.018,649.805 297.868,641.895 291.893,623.929 285.583,604.861 278.81,594.322 271.307,582.644 245.839,552.658 219.687,521.894 210.622,514.716 206.335,511.269 193.905,502.275 183.856,495.007 175.4,487.686 164.222,478.014 157.223,475.151 150.077,472.156 141.483,473.711 135.715,474.731 126.631,476.003 120.778,477.531 122.643,482.304 127.851,495.637 111.242,494.157 99.551,493.127 95.92,493.787 90.07,494.839 88.925,500.408 88.039,504.454 87.313,511.093 85.857,516.595 79.83,521.321 75.9,524.373 70.793,522.954 69.401,522.549 70.487,532.37 71.693,543.471 71.722,556.171 L71.523,566.589 Q72.96,573.426 75.602,589.658 77.948,603.919 85.759,620.03 95.249,639.468 108.618,652.079 109.351,652.741 141.882,681.866 162.635,700.509 171.004,710.52 177.261,718.036 187.501,727.981 194.648,734.864 197.25,739.824 M125.388,729.004 Q126.601,729.194 128.082,728.615 128.329,728.519 139.249,719.32 142.544,719.741 146.511,720.183 145.866,716.831 147.155,713.576 148.277,710.861 149.511,710.379 152.227,709.318 155.221,710.425 157.642,711.282 157.678,710.888 158.499,708.86 160.17,707.069 162.139,705.067 163.914,704.753 M204.201,795.257 Q143.055,770.101 126.519,729.226 L125.449,729.644 M387.753,708.566 Q387.426,686.117 385.525,663.524 383.656,641.014 380.671,618.56 378.801,604.303 377.736,589.921 376.068,566.953 369.305,545.026 367.673,539.877 365.447,535.15 355.95,514.481 351.029,491.93 349.334,484.434 349.954,476.793 350.426,471.201 350.848,465.725 355.239,468.467 358.055,473.249 380.246,510.871 392.923,552.305 394.936,558.918 396.292,565.787 398.464,577.175 400.883,588.467 403.063,598.904 403.075,609.619 403.141,631.885 402.584,654.015 401.727,682.902 387.753,708.566Z M370.332,600.592 Q364.477,598.231 359.071,599.204 357.461,599.454 352.029,601.576 348.984,602.765 348.614,605.945 348.275,609.208 343.42,611.105 340.21,612.359 332.875,614.465 326.377,616.529 323.092,619.046 314.953,625.166 306.866,628.989 304.708,630.022 297.63,632.787" test="Parrot"/>
      <path id="Layer2_0_4_STROKES" stroke="#0F0" stroke-width="3.534" stroke-linejoin="round" stroke-linecap="round" fill="none" d="M102.172,688.272 Q101.659,690.844 103.074,694.465 104.071,697.016 113.782,711.435 123.755,726.037 126.101,728.156" test="Parrot"/>
      <path id="Layer2_0_5_STROKES" stroke="#FF0" stroke-width="3.534" stroke-linejoin="round" stroke-linecap="round" fill="none" d="M85.895,631.549 L76.266,635.311 Q77.66,637.422 78.375,644.352 79.069,651.955 79.744,653.683 83.795,664.053 92.098,676.081 99.104,686.245 102.172,688.272 M416.071,816.267 Q429.914,800.71 425.488,784.036 423.449,776.39 421.018,768.708 393.718,774.344 386.475,785.427 387.537,798.102 396.016,804.751 404.608,811.449 408.01,812.871 411.443,814.376 416.071,816.267Z M410.553,770.329 Q407.24,751.893 388.848,757.749 385.653,759.282 383.451,761.66 378.732,769.005 386.845,782.247 M345.675,502.748 Q339.637,500.649 336.876,499.166 336.254,499.03 330.904,501.119 326.625,502.791 314.559,513.67 304.791,522.419 301.738,524.56 301.391,524.885 301.144,524.982 300.451,523.45 292.801,525.964 291.205,526.493 283.222,529.612 280.095,530.833 274.204,534.937 268.345,539.123 265.794,540.119 261.843,541.662 261.546,541.873 259.746,543.336 260.534,547.296 246.538,549.349 250.069,548.918 M301.738,524.56 Q302.085,524.235 301.531,523.787 300.34,522.924 301.144,524.982 M294.722,438.608 Q299.263,431.047 299.136,426.354 299.037,424.4 296.401,417.652 292.929,408.763 286.619,407.908 281.832,407.312 265.552,411.774 266.581,414.408 267.943,416.437 264.169,416.488 258.899,416.84 L253.55,418.929 Q256.782,420.892 259.411,422.521 255.193,422.651 251.176,422.323 L243.686,425.249 245.776,430.598 Q253.759,433.551 259.317,442.193 263.874,450.943 265.436,452.514 266.506,452.096 269.064,452.33 M241.714,458.081 Q236.555,440.746 231.745,436.933 227.605,433.618 217.357,436.767 L219.865,443.187 Q221.477,444.644 224.247,449.063 223.872,448.831 223.546,448.483 215.158,440.852 206.006,442.435 L209.317,450.912 Q207.572,449.601 205.613,448.47 199.34,445.039 193.819,445.962 L192.667,446.412 Q193.441,450.094 197.663,455.559 202.389,461.586 203.482,464.385 205.7,470.063 202.464,474.648 M178.374,472.96 Q171.46,451.376 141.06,418.479 128.064,404.394 117.497,396.285 106.148,387.628 101.868,389.3 95.778,391.679 94.553,392.916 90.401,397.099 93.133,406.277 88.525,405.895 77.97,408.501 69.164,411.941 69.82,422.119 70.196,428.423 70.124,429.21 69.685,432.701 66.722,433.858 65.57,434.309 52.212,434.594 50.401,435.302 49.446,441.841 48.404,448.888 46.11,450.543 40.695,454.65 32.618,459.228 27.139,463.171 26.67,470.469 24.941,471.144 21.754,471.725 18.598,472.389 17.693,472.742 L31.517,508.131 Q41.519,521.109 53.858,539.34 63.231,553.133 68.647,558.985" test="Parrot"/>
      <path id="Layer2_0_6_STROKES" stroke="#F0F" stroke-width="3.534" stroke-linejoin="round" stroke-linecap="round" fill="none" d="M350.848,465.725 L343.35,451.389 Q334.383,436.205 326.687,432.287 322.781,430.302 319.739,427.127 318.03,425.424 315.82,422.682 314.129,420.781 312.634,421.081 310.809,421.509 307.763,424.881 303.707,429.311 301.406,435.807 299.844,440.306 295.894,441.849 292.108,443.328 281.982,445.576 273.216,448.147 270.552,452.982 267.937,457.703 259.379,458.864 254.517,459.531 243.956,460.905 238.875,462.226 231.168,463.624 225.15,465.216 221.488,469.682 217.693,474.295 212.691,476.059 209.499,477.117 201.495,478.725 196.991,479.821 191.625,479.925 188.437,480.507 188.005,485.229 M60.088,562.328 Q63.936,583.591 67.051,598.121 69.419,609.528 74.594,631.031 M29.963,298.72 Q20.146,287.188 18.14,285.695 15.204,283.522 10.595,285.322 8.867,285.997 8.437,286.355 6.551,288.325 5.689,293.405 -37.212,274.402 -39.187,275.173 -51.532,279.996 -48.472,303.369 -46.666,317.462 -40.59,333.016 -36.764,342.81 -30.992,351.274 -27.213,356.818 -21.375,363.264" test="Parrot"/>
      <path id="Layer2_0_7_STROKES" stroke="#F60" stroke-width="3.534" stroke-linejoin="round" stroke-linecap="round" fill="none" d="M96.309,382.839 Q97.646,383.835 99.066,384.798 102.02,386.774 102.678,386.517 L100.588,381.168 Q93.644,369.462 65.464,337.878 32.115,300.346 23.885,303.561 20.347,304.943 14.982,315.007 10.225,324.928 10.061,324.992 8.662,325.539 4.293,326.012 -.157,326.518 -1.474,327.032 -5.507,328.608 -6.307,338.216 -6.836,344.873 -6.112,348.67 -15.412,352.303 -18.239,358.908 -21.033,365.597 -25.889,367.494 -24.442,371.197 -21.803,379.652 -19.082,388.075 -18.76,388.898 -15.835,396.387 -4.567,411.147 8.195,427.79 10.136,431.3 13.209,436.74 16.77,446.827 20.359,457.472 21.838,461.258 L22.908,460.84" test="Parrot"/>
    </g>
    <g id="JuryBoxFront">
      <path fill="#000" stroke="none" d="M-4701.827,672.992 L-4746.694,616.047 -4750.417,897.932 Q-4733.962,897.934 -4710.881,897.932 L-4701.827,672.992 M1217.578,643.7 L1214.862,643.7 1178.947,682.064 1178.947,888.641 Q1200.041,888.678 1217.578,888.641 L1217.578,643.7 M872.62,669.932 Q722.726,673.648 573.134,682.938 421.329,690.917 269.423,691.901 113.694,692.885 -42.035,692.666 -193.941,692.448 -345.847,691.901 -506.404,691.355 -666.962,689.278 -825.306,687.31 -983.55,684.469 -1140.687,681.736 -1297.825,686.108 -1453.352,690.371 -1608.98,699.552 -1760.383,706.657 -1912.088,704.143 -2071.841,701.41 -2231.493,690.699 -2380.281,679.878 -2529.672,677.583 -2678.358,675.397 -2827.146,676.818 -2986.798,678.348 -3146.45,680.971 -3306.706,683.704 -3466.861,686.327 -3625.91,688.95 -3785.16,691.792 -3940.084,694.634 -4095.108,695.945 -4249.529,697.257 -4404.353,693.978 -4553.542,690.808 -4701.827,672.992 L-4710.881,897.932 Q-4296.493,897.735 -1743.583,893.341 686.657,889.067 1178.947,888.641 L1178.947,682.064 Q1026.136,666.216 872.62,669.932 M535.208,647.853 Q524.734,648.386 514.283,648.837 361.472,654.302 208.66,654.302 162.356,654.302 116.008,654.302 4.283,654.335 -107.525,654.411 -124.1,654.424 -140.723,654.411 -284.165,654.26 -427.735,652.007 -473.76,651.289 -519.784,649.821 -565.823,649.488 -611.934,649.055 -646.436,648.841 -681.046,648.509 -715.58,647.519 -750.158,646.979 -910.515,644.574 -1070.972,642.825 -1195.79,641.492 -1320.56,647.416 -1338.857,648.349 -1357.179,649.383 -1508.179,656.925 -1658.878,665.56 L-1980.899,667.309 Q-2142.462,658.892 -2303.825,648.072 -2449.996,637.032 -2597.074,635.502 -2756.122,633.753 -2914.97,636.158 -3070.095,638.563 -3225.421,641.951 -3371.593,645.23 -3517.865,648.618 -3666.552,652.007 -3815.44,654.63 -3972.276,657.362 -4129.513,655.176 -4281.822,653.1 -4433.929,642.17 -4590.463,632.005 -4746.694,616.047 L-4701.827,672.992 Q-4553.542,690.808 -4404.353,693.978 -4249.529,697.257 -4095.108,695.945 -3940.084,694.634 -3785.16,691.792 -3625.91,688.95 -3466.861,686.327 -3306.706,683.704 -3146.45,680.971 -2986.798,678.348 -2827.146,676.818 -2678.358,675.397 -2529.672,677.583 -2380.281,679.878 -2231.493,690.699 -2071.841,701.41 -1912.088,704.143 -1760.383,706.657 -1608.98,699.552 -1453.352,690.371 -1297.825,686.108 -1140.687,681.736 -983.55,684.469 -825.306,687.31 -666.962,689.278 -506.404,691.355 -345.847,691.901 -193.941,692.448 -42.035,692.666 113.694,692.885 269.423,691.901 421.329,690.917 573.134,682.938 722.726,673.648 872.62,669.932 1026.136,666.216 1178.947,682.064 L1214.862,643.7 1214.962,641.951 Q1177.966,638.331 1140.921,634.737 1112.555,631.865 1084.182,629.819 963.533,621.507 842.44,629.381 688.987,640.948 535.208,647.853Z" test="JuryBoxFront" stroke-width="2.099"/>
      <path id="Layer1_0_1_STROKES" stroke="#F60" stroke-width="4.198" stroke-linejoin="round" stroke-linecap="round" fill="none" d="M1215.013,642.006 Q1177.966,638.331 1140.921,634.737 1112.555,631.865 1084.182,629.873 963.533,621.507 842.44,629.381 688.987,640.948 535.208,647.908 524.734,648.386 514.283,648.837 361.472,654.302 208.66,654.302 162.356,654.302 116.058,654.302 4.283,654.335 -107.525,654.411 -124.1,654.424 -140.673,654.411 -284.165,654.26 -427.735,652.007 -473.76,651.289 -519.784,649.875 -565.823,649.488 -611.883,649.11 -646.436,648.841 -680.996,648.564 -715.58,647.519 -750.158,646.979 -910.515,644.574 -1070.972,642.825 -1195.79,641.492 -1320.51,647.471 -1338.857,648.349 -1357.179,649.383 -1508.179,656.925 -1658.878,665.56 L-1980.899,667.309 Q-2142.462,658.892 -2303.825,648.072 -2449.996,637.032 -2597.074,635.502 -2756.122,633.753 -2914.97,636.158 -3070.095,638.563 -3225.421,641.951 -3371.593,645.23 -3517.865,648.618 -3666.552,652.007 -3815.44,654.63 -3972.276,657.362 -4129.513,655.176 -4281.822,653.1 -4433.929,642.17 -4590.463,632.005 -4746.694,616.047 L-4701.827,672.992 Q-4553.542,690.808 -4404.353,693.978 -4249.529,697.257 -4095.108,695.945 -3940.084,694.634 -3785.16,691.792 -3625.91,688.95 -3466.861,686.327 -3306.706,683.704 -3146.45,680.971 -2986.798,678.348 -2827.146,676.818 -2678.358,675.397 -2529.672,677.583 -2380.281,679.878 -2231.493,690.699 -2071.841,701.41 -1912.088,704.143 -1760.383,706.657 -1608.98,699.552 -1453.352,690.371 -1297.825,686.108 -1140.687,681.736 -983.55,684.469 -825.306,687.31 -666.962,689.278 -506.404,691.355 -345.847,691.901 -193.941,692.448 -42.035,692.666 113.694,692.885 269.423,691.901 421.329,690.917 573.134,682.938 722.726,673.648 872.62,669.932 1026.136,666.216 1178.947,682.064 L1214.862,643.7 M1215.013,642.006 Q1216.294,642.152 1217.578,642.279 L1217.578,643.7 1217.578,888.641 1217.578,913.124 M1178.947,913.124 L1178.947,888.696 M-4710.881,897.932 L-4711.484,913.124 M1178.947,888.696 L1178.947,682.064 M-4750.618,913.124 L-4750.417,897.932 -4746.694,616.047 M-4701.827,672.992 L-4710.881,897.932" test="JuryBoxFront"/>
    </g>
  </g>
</svg>