<?xml version="1.0" encoding="utf-8"?>
<svg id="EdithAnim12" image-rendering="inherit" baseProfile="basic" version="1.1" x="0px" y="0px" width="800" height="600" xmlns="http://www.w3.org/2000/svg" xmlns:xlink="http://www.w3.org/1999/xlink">
  <g id="14_JurorParrotf177r1" overflow="visible">
    <g id="Parrot">
      <path id="Layer2_0_1_STROKES" stroke="#FFF" stroke-width="3.706" stroke-linejoin="round" stroke-linecap="round" fill="none" d="M196.579,946.097 Q189.755,945.023 183.836,939.345 176.658,932.511 179.804,922.144 182.949,911.778 188.32,906.682 193.687,901.678 200.348,902.097 207.101,902.52 211.78,906.578 216.551,910.64 217.524,917.256 218.414,923.592 216.635,929.371 214.969,934.597 212.914,937.677 210.948,940.853 206.987,942.754 203.116,944.75 196.579,946.097Z M196.601,924.31 Q197.485,925.546 198.868,925.78 200.343,926.018 200.435,926.021 200.991,926.04 201.659,925.507 203.282,924.174 202.083,921.35 201.053,918.996 198.52,919.834 196.738,920.421 196.415,921.708 196.104,922.624 196.091,922.994 195.973,923.732 196.601,924.31Z M278.877,944.35 Q274.79,944.577 269.547,938.089 264.391,931.789 265.064,923.19 265.73,914.776 269.801,909.727 273.776,904.767 280.345,905.183 287.002,905.695 292.041,910.044 297.719,914.694 297.194,921.721 296.393,931.336 292.951,936.963 288.227,944.771 278.877,944.35Z M274.671,924.176 Q275.281,925.31 276.481,925.445 277.864,925.679 277.956,925.682 278.327,925.695 278.991,925.255 280.426,924.007 279.31,921.465 278.366,919.299 276.296,920.154 274.795,920.657 274.475,921.851 274.264,922.586 274.251,922.956 274.043,923.598 274.671,924.176Z" test="Parrot"/>
      <path id="Layer2_0_2_STROKES" stroke="#F00" stroke-width="3.706" stroke-linejoin="round" stroke-linecap="round" fill="none" d="M158.644,888.396 Q153.127,887.089 151.744,886.855 150.362,886.621 147.584,886.524 143.602,886.384 136.316,890.579 M172.161,841.4 L169.501,840.565 Q166.379,839.714 164.064,839.633 162.675,839.584 158.695,842.04 154,844.321 154.225,845.221 M95.15,795.493 Q110.917,813.847 115.465,837.463 119.301,857.624 115.505,886.511 112.108,911.98 124.326,936.33 137.846,963.228 161.101,974.242 184.353,985.35 202.534,987.749 220.711,990.242 238.344,984.463 256.07,978.688 269.3,966.265 282.432,954.024 282.995,951.17 M290.939,822.576 Q292.621,798.437 305.348,779.228 M229.995,841.947 Q225.991,837.17 223.484,831.983 223.136,831.322 218.506,831.16 216.099,831.075 212.825,831.887 212.171,832.05 206.55,833.707" test="Parrot"/>
      <path id="Layer2_0_3_STROKES" stroke="#0FF" stroke-width="3.706" stroke-linejoin="round" stroke-linecap="round" fill="none" d="M296.4,791.152 L297.857,783.972 Q296.219,783.08 294.189,782.823 292.899,782.592 290.121,782.495 282.435,782.225 276.463,788.598 270.395,795.061 266.136,794.911 264.654,794.859 256.547,793.369 248.533,791.883 246.959,791.828 237.792,791.506 235.794,795.608 233.885,799.806 226.847,799.559 225.273,799.503 219.574,798.098 213.782,796.69 212.301,796.638 211.282,796.602 207.544,800.086 203.898,803.574 199.454,803.418 197.879,803.363 191.903,801.948 185.926,800.533 184.444,800.481 182.778,800.422 178.063,802.668 175.706,803.79 173.441,804.916 173.163,804.906 167.692,802.304 161.572,799.678 158.609,799.574 154.812,799.441 149.843,801.028 147.403,801.87 145.24,802.721 141.536,802.591 123.073,797.678 107.733,793.616 100.807,792.817 99.421,792.676 98.403,792.64 M231.287,754.934 Q232.426,751.543 236.852,720.547 241.149,690.565 243.372,685.359 246.515,677.681 248.229,657.9 250.078,636.919 247.937,623.957 245.567,609.596 233.508,570.14 221.115,529.652 215.371,518.974 212.676,513.873 204.446,500.048 197.791,488.874 192.692,478.311 185.95,464.353 180.401,458.688 174.765,452.834 165.845,450.76 159.868,449.345 150.593,446.794 144.323,445.832 144.134,451.203 143.608,466.204 128.231,457.877 117.404,452.026 113.633,451.152 107.564,449.734 104.147,454.621 101.613,458.148 98.154,464.238 94.466,468.93 86.699,470.975 81.647,472.281 77.319,468.792 76.148,467.823 73.111,477.73 69.659,488.92 64.408,501.159 L59.887,511.106 Q58.43,518.287 54.227,535.013 50.558,549.719 51.384,568.476 52.443,591.135 60.073,608.833 60.503,609.776 79.72,651.337 91.953,677.912 95.85,691.029 98.75,700.865 104.476,714.695 108.497,724.293 108.94,730.15 M44.249,689.866 Q45.337,690.554 47.004,690.612 47.282,690.622 61.619,686.304 64.616,688.078 68.252,690.153 69.024,686.657 71.618,684.059 73.826,681.911 75.215,681.96 78.271,682.067 80.693,684.377 82.668,686.208 82.866,685.844 84.499,684.233 86.853,683.203 89.581,682.093 91.42,682.529 M92.595,786.41 Q44.179,736.777 45.245,690.55 L44.041,690.508 M305.348,779.228 Q314.363,757.478 321.922,734.936 329.478,712.486 335.936,689.627 340.061,675.123 345.013,660.834 352.952,638.026 355.553,614.105 356.122,608.469 355.943,602.993 355.389,579.146 360.025,555.388 361.508,547.467 365.28,540.368 368.058,535.18 370.74,530.083 373.829,534.548 374.553,540.322 380.283,585.768 375.267,630.929 374.458,638.132 372.908,645.309 370.266,657.177 367.903,669.054 365.664,680.008 361.222,690.329 352.032,711.794 342.299,732.87 329.468,760.326 305.348,779.228Z M333.449,668.03 Q328.793,663.324 323.183,662.014 321.53,661.585 315.418,661.371 311.992,661.251 310.314,664.159 308.632,667.159 303.169,666.967 299.557,666.841 291.62,665.82 284.506,665.107 280.296,666.165 269.917,668.675 260.542,668.995 258.035,669.092 250.071,668.812" test="Parrot"/>
      <path id="Layer2_0_4_STROKES" stroke="#0F0" stroke-width="3.706" stroke-linejoin="round" stroke-linecap="round" fill="none" d="M38.825,641.001 Q37.262,643.264 37.119,647.339 37.018,650.209 40.376,668.128 43.909,686.331 45.287,689.347" test="Parrot"/>
      <path id="Layer2_0_5_STROKES" stroke="#FF0" stroke-width="3.706" stroke-linejoin="round" stroke-linecap="round" fill="none" d="M46.727,579.624 L35.893,579.243 Q36.358,581.856 34.166,588.825 31.674,596.433 31.606,598.378 31.196,610.045 34.192,625.077 36.713,637.775 38.825,641.001 M287.852,894.692 Q307.645,885.466 310.313,867.573 311.528,859.364 312.38,850.957 283.753,845.039 272.174,852.698 267.928,865.344 273.328,875.269 278.818,885.289 281.501,888.072 284.182,890.947 287.852,894.692Z M301.63,848.169 Q306.103,829.042 285.961,827.037 282.248,827.185 279.14,828.559 271.543,833.67 273.852,849.791 M350.373,563.579 Q345.433,559.048 343.391,556.473 342.848,556.083 336.829,555.872 332.014,555.703 315.875,561.163 302.835,565.527 299.006,566.319 298.536,566.488 298.259,566.479 298.228,564.716 289.817,563.957 288.061,563.803 279.079,563.488 275.56,563.364 268.183,564.867 260.803,566.462 257.932,566.361 253.487,566.205 253.114,566.285 250.773,566.944 249.886,571.085 235.557,567.245 239.136,568.297 M299.006,566.319 Q299.475,566.15 299.128,565.489 298.34,564.164 298.259,566.479 M327.973,480.648 Q335.486,475.256 337.316,470.685 338.032,468.763 338.299,461.17 338.65,451.169 332.929,447.723 328.569,445.16 311.04,442.69 310.936,445.653 311.404,448.173 307.749,446.654 302.529,444.802 L296.51,444.591 Q298.807,447.824 300.661,450.485 296.546,448.857 292.814,446.872 L284.388,446.576 284.176,452.595 Q290.636,458.755 292.395,469.387 293.145,479.704 293.996,481.866 295.2,481.909 297.566,483.197 M268.843,477.368 Q271.081,458.533 268.035,452.863 265.426,447.95 254.25,446.724 L253.997,453.946 Q254.944,456.019 255.774,461.426 255.509,461.046 255.34,460.576 250.436,449.742 240.966,447.463 L240.632,457 Q239.496,455.014 238.079,453.11 233.466,447.199 227.767,445.794 L226.47,445.749 Q225.686,449.615 227.479,456.631 229.524,464.399 229.414,467.547 229.19,473.936 224.168,477.005 M201.676,465.368 Q203.99,441.715 188.393,397.406 181.734,378.444 174.93,366.245 167.6,353.193 162.785,353.024 155.933,352.784 154.24,353.466 148.504,355.768 147.319,365.74 143.042,363.457 131.796,361.579 121.888,361.231 118.29,371.304 116.032,377.529 115.635,378.257 113.762,381.436 110.428,381.319 109.132,381.273 96.152,375.997 94.115,375.925 90.477,381.824 86.546,388.176 83.649,388.816 76.728,390.52 67.049,391.571 60.135,393.09 56.65,399.921 54.706,399.853 51.395,399.088 48.081,398.415 47.062,398.379 L45.665,438.197 Q49.901,454.849 54.205,477.53 57.496,494.705 60.279,502.59" test="Parrot"/>
      <path id="Layer2_0_6_STROKES" stroke="#F0F" stroke-width="3.706" stroke-linejoin="round" stroke-linecap="round" fill="none" d="M370.74,530.083 L369.48,513.164 Q367.157,494.818 361.375,487.847 358.44,484.314 356.83,479.992 355.892,477.642 354.905,474.084 354.066,471.551 352.502,471.218 350.567,470.872 346.233,472.852 340.487,475.432 335.572,480.73 332.198,484.412 327.753,484.256 323.494,484.107 312.811,482.063 303.302,480.895 298.727,484.443 294.248,487.902 285.526,485.463 280.568,484.084 269.828,481.018 264.387,480.178 256.386,478.321 249.93,477.353 244.548,480.131 238.977,482.995 233.428,482.615 229.916,482.306 221.541,480.529 216.749,479.712 211.539,477.582 208.228,476.816 205.849,481.183 M50.648,502.252 Q45.516,524.324 42.476,539.607 40.017,551.574 36.062,574.428 M131.2,235.931 Q126.541,220.747 125.23,218.476 123.306,215.164 118.121,214.982 116.176,214.913 115.614,215.079 112.979,216.192 110.038,220.724 76.631,184.599 74.409,184.521 60.519,184.033 53.751,207.809 49.632,222.128 49.018,239.629 48.631,250.648 50.672,261.197 52.005,268.104 54.947,276.737" test="Parrot"/>
      <path id="Layer2_0_7_STROKES" stroke="#F60" stroke-width="3.706" stroke-linejoin="round" stroke-linecap="round" fill="none" d="M160.118,344.494 Q160.992,346.008 161.958,347.525 163.981,350.656 164.722,350.682 L164.933,344.663 Q163.112,330.506 149.107,288.386 132.597,238.39 123.337,238.065 119.355,237.925 110.007,245.385 101.304,252.961 101.119,252.954 99.545,252.899 95.143,251.539 90.647,250.176 89.166,250.124 84.628,249.965 79.865,258.884 76.588,265.073 75.708,269.029 65.244,268.662 59.777,273.847 54.307,279.125 48.844,278.934 48.698,283.101 47.724,292.338 46.844,301.578 46.811,302.504 46.516,310.931 51.23,329.825 56.6,351.152 57.01,355.338 57.708,361.853 56.945,373.045 55.976,384.785 55.827,389.045 L57.031,389.087" test="Parrot"/>
    </g>
    <g id="JuryBoxFront">
      <path fill="#000" stroke="none" d="M-4823.984,680.882 L-4869.922,622.113 -4873.733,913.024 Q-4856.886,913.026 -4833.254,913.024 L-4823.984,680.882 M1236.639,650.651 L1233.858,650.651 1197.087,690.244 1197.087,903.436 Q1218.684,903.474 1236.639,903.436 L1236.639,650.651 M883.452,677.723 Q729.982,681.558 576.821,691.146 421.394,699.381 265.864,700.396 106.42,701.411 -53.024,701.186 -208.554,700.96 -364.084,700.396 -528.472,699.832 -692.86,697.689 -854.982,695.658 -1017.001,692.726 -1177.887,689.906 -1338.773,694.418 -1498.011,698.817 -1657.352,708.292 -1812.367,715.624 -1967.691,713.03 -2131.255,710.21 -2294.716,699.155 -2447.053,687.988 -2600.008,685.619 -2752.242,683.363 -2904.579,684.83 -3068.04,686.409 -3231.501,689.116 -3395.58,691.936 -3559.556,694.643 -3722.399,697.35 -3885.448,700.283 -4044.068,703.216 -4202.791,704.57 -4360.896,705.923 -4519.413,702.539 -4672.162,699.268 -4823.984,680.882 L-4833.254,913.024 Q-4408.981,912.821 -1795.166,908.286 693.052,903.876 1197.087,903.436 L1197.087,690.244 Q1040.63,673.888 883.452,677.723 M537.99,654.938 Q527.266,655.488 516.566,655.953 360.109,661.593 203.652,661.593 156.243,661.593 108.789,661.593 -5.601,661.627 -120.077,661.706 -137.047,661.719 -154.067,661.706 -300.931,661.55 -447.926,659.224 -495.049,658.484 -542.171,656.968 -589.308,656.625 -636.519,656.178 -671.844,655.957 -707.28,655.614 -742.638,654.592 -778.041,654.035 -942.223,651.554 -1106.508,649.749 -1234.304,648.373 -1362.051,654.486 -1380.785,655.45 -1399.543,656.517 -1554.146,664.3 -1708.44,673.211 L-2038.143,675.016 Q-2203.561,666.33 -2368.773,655.163 -2518.432,643.77 -2669.018,642.191 -2831.861,640.386 -2994.498,642.868 -3153.324,645.35 -3312.356,648.846 -3462.015,652.23 -3611.777,655.727 -3764.011,659.224 -3916.451,661.931 -4077.028,664.751 -4238.017,662.495 -4393.959,660.352 -4549.695,649.072 -4709.963,638.582 -4869.922,622.113 L-4823.984,680.882 Q-4672.162,699.268 -4519.413,702.539 -4360.896,705.923 -4202.791,704.57 -4044.068,703.216 -3885.448,700.283 -3722.399,697.35 -3559.556,694.643 -3395.58,691.936 -3231.501,689.116 -3068.04,686.409 -2904.579,684.83 -2752.242,683.363 -2600.008,685.619 -2447.053,687.988 -2294.716,699.155 -2131.255,710.21 -1967.691,713.03 -1812.367,715.624 -1657.352,708.292 -1498.011,698.817 -1338.773,694.418 -1177.887,689.906 -1017.001,692.726 -854.982,695.658 -692.86,697.689 -528.472,699.832 -364.084,700.396 -208.554,700.96 -53.024,701.186 106.42,701.411 265.864,700.396 421.394,699.381 576.821,691.146 729.982,681.558 883.452,677.723 1040.63,673.888 1197.087,690.244 L1233.858,650.651 1233.961,648.846 Q1196.082,645.11 1158.153,641.402 1129.111,638.437 1100.061,636.326 976.533,627.748 852.552,635.874 695.438,647.811 537.99,654.938Z" test="JuryBoxFront" stroke-width="2.158"/>
      <path id="Layer1_0_1_STROKES" stroke="#F60" stroke-width="4.316" stroke-linejoin="round" stroke-linecap="round" fill="none" d="M1234.012,648.903 Q1196.082,645.11 1158.153,641.402 1129.111,638.437 1100.061,636.382 976.533,627.748 852.552,635.874 695.438,647.811 537.99,654.994 527.266,655.488 516.566,655.953 360.109,661.593 203.652,661.593 156.243,661.593 108.84,661.593 -5.601,661.627 -120.077,661.706 -137.047,661.719 -154.015,661.706 -300.931,661.55 -447.926,659.224 -495.049,658.484 -542.171,657.024 -589.308,656.625 -636.468,656.235 -671.844,655.957 -707.229,655.671 -742.638,654.592 -778.041,654.035 -942.223,651.554 -1106.508,649.749 -1234.304,648.373 -1362,654.543 -1380.785,655.45 -1399.543,656.517 -1554.146,664.3 -1708.44,673.211 L-2038.143,675.016 Q-2203.561,666.33 -2368.773,655.163 -2518.432,643.77 -2669.018,642.191 -2831.861,640.386 -2994.498,642.868 -3153.324,645.35 -3312.356,648.846 -3462.015,652.23 -3611.777,655.727 -3764.011,659.224 -3916.451,661.931 -4077.028,664.751 -4238.017,662.495 -4393.959,660.352 -4549.695,649.072 -4709.963,638.582 -4869.922,622.113 L-4823.984,680.882 Q-4672.162,699.268 -4519.413,702.539 -4360.896,705.923 -4202.791,704.57 -4044.068,703.216 -3885.448,700.283 -3722.399,697.35 -3559.556,694.643 -3395.58,691.936 -3231.501,689.116 -3068.04,686.409 -2904.579,684.83 -2752.242,683.363 -2600.008,685.619 -2447.053,687.988 -2294.716,699.155 -2131.255,710.21 -1967.691,713.03 -1812.367,715.624 -1657.352,708.292 -1498.011,698.817 -1338.773,694.418 -1177.887,689.906 -1017.001,692.726 -854.982,695.658 -692.86,697.689 -528.472,699.832 -364.084,700.396 -208.554,700.96 -53.024,701.186 106.42,701.411 265.864,700.396 421.394,699.381 576.821,691.146 729.982,681.558 883.452,677.723 1040.63,673.888 1197.087,690.244 L1233.858,650.651 M1234.012,648.903 Q1235.325,649.054 1236.639,649.185 L1236.639,650.651 1236.639,903.436 1236.639,928.703 M1197.087,928.703 L1197.087,903.492 M-4833.254,913.024 L-4833.872,928.703 M1197.087,903.492 L1197.087,690.244 M-4873.939,928.703 L-4873.733,913.024 -4869.922,622.113 M-4823.984,680.882 L-4833.254,913.024" test="JuryBoxFront"/>
    </g>
  </g>
</svg>