<?xml version="1.0" encoding="utf-8"?>
<svg id="EdithAnim12" image-rendering="inherit" baseProfile="basic" version="1.1" x="0px" y="0px" width="800" height="600" xmlns="http://www.w3.org/2000/svg" xmlns:xlink="http://www.w3.org/1999/xlink">
  <g id="14_JurorParrotf179r1" overflow="visible">
    <g id="Parrot">
      <path id="Layer2_0_1_STROKES" stroke="#FFF" stroke-width="4.038" stroke-linejoin="round" stroke-linecap="round" fill="none" d="M-133.986,864.757 Q-138.187,858.512 -138.041,849.576 -137.904,838.779 -127.295,833.606 -116.686,828.432 -108.636,828.943 -100.661,829.52 -96.058,835.149 -91.389,840.855 -91.161,847.599 -90.867,854.42 -95.43,860.102 -99.829,865.51 -105.762,868.373 -111.17,870.916 -115.153,871.558 -119.147,872.343 -123.6,870.59 -128.065,868.978 -133.986,864.757Z M-116.572,848.624 Q-116.904,850.246 -116.066,851.524 -115.162,852.877 -115.096,852.954 -114.7,853.412 -113.779,853.55 -111.511,853.857 -110.145,850.807 -109.029,848.239 -111.576,846.838 -113.366,845.85 -114.633,846.546 -115.594,846.977 -115.9,847.241 -116.576,847.693 -116.572,848.624Z M-71.582,929.177 Q-74.794,926.081 -73.499,917.085 -72.291,908.298 -64.926,902.46 -57.714,896.755 -50.664,896.263 -43.757,895.761 -39.22,901.314 -34.694,907.009 -34.431,914.257 -33.934,922.237 -39.935,927.028 -48.206,933.516 -55.251,934.939 -64.987,936.954 -71.582,929.177Z M-58.591,910.863 Q-59.045,912.19 -58.263,913.249 -57.425,914.526 -57.359,914.603 -57.094,914.908 -56.25,915.112 -54.191,915.333 -52.988,912.557 -51.958,910.198 -54.175,909.179 -55.69,908.353 -56.881,908.983 -57.624,909.359 -57.929,909.623 -58.596,909.933 -58.591,910.863Z" test="Parrot"/>
      <path id="Layer2_0_2_STROKES" stroke="#F00" stroke-width="4.038" stroke-linejoin="round" stroke-linecap="round" fill="none" d="M-116.033,791.691 Q-119.08,786.318 -119.918,785.04 -120.756,783.763 -122.737,781.473 -125.577,778.19 -134.328,775.481 M-68.487,767.647 L-69.792,764.904 Q-71.427,761.78 -73.078,759.871 -74.069,758.726 -78.981,757.368 -83.542,756.108 -84.834,756.158 M-88.918,672.123 Q-91.887,698.318 -107.372,719.457 -120.628,737.465 -146.507,755.848 -169.363,772.016 -179.748,799.823 -191.204,830.558 -182.76,857.292 -174.392,884.093 -162.83,900.389 -151.346,916.751 -133.66,926.547 -115.908,936.42 -96.181,937.775 -76.672,939.186 -73.975,937.521 M34.595,848.536 Q55.117,831.984 79.89,827.907 M-26.05,814.232 Q-25.205,807.494 -22.921,801.647 -22.651,800.879 -25.954,797.062 -27.671,795.077 -30.746,793.065 -31.361,792.663 -36.851,789.403" test="Parrot"/>
      <path id="Layer2_0_3_STROKES" stroke="#0FF" stroke-width="4.038" stroke-linejoin="round" stroke-linecap="round" fill="none" d="M63.735,829.602 L70.549,825.442 Q70.047,823.473 68.747,821.662 67.975,820.461 65.993,818.17 60.511,811.833 50.995,811.789 41.337,811.734 38.299,808.222 37.242,807.001 32.422,799.423 27.668,791.922 26.545,790.624 20.006,783.066 15.25,784.511 10.483,786.099 5.463,780.296 4.34,778.998 1.237,773.406 -1.931,767.737 -2.988,766.515 -3.715,765.675 -9.268,765.274 -14.756,764.948 -17.926,761.284 -19.049,759.986 -22.35,754.164 -25.65,748.343 -26.707,747.121 -27.896,745.747 -33.184,743.647 -35.828,742.597 -38.405,741.623 -38.603,741.394 -40.581,735.096 -43.022,728.263 -45.135,725.82 -47.843,722.689 -52.795,719.898 -55.275,718.573 -57.558,717.478 -60.2,714.424 -69.964,696.039 -78.093,680.779 -82.589,674.656 -83.503,673.445 -84.23,672.605 M44.387,750.761 Q47.939,749.157 75.97,729.712 103.096,710.918 108.901,708.833 117.362,705.652 134.427,692.357 152.551,678.28 161.314,666.961 171.025,654.423 193.591,615.545 216.733,575.635 221.001,563.132 223.076,557.199 228.015,540.379 232.004,526.782 236.658,514.88 242.806,499.149 243.216,490.518 243.712,481.679 238.756,473.018 235.455,467.197 230.617,457.9 226.736,452.18 222.308,456.011 209.939,466.711 205.19,448.26 201.835,435.277 199.737,431.619 196.371,425.721 189.936,426.615 185.241,427.206 177.814,428.959 171.334,429.493 163.943,424.807 159.154,421.741 158.733,415.698 158.638,414.045 148.476,418.964 136.982,424.503 123.316,429.383 L112.022,433.147 Q105.208,437.306 88.736,446.35 74.275,454.322 59.909,468.886 42.6,486.529 34.125,505.741 33.692,506.784 14.751,552.938 2.599,582.406 -4.986,595.241 -10.691,604.848 -17.489,619.673 -22.172,629 -26.52,634.694 M-42.31,553.176 Q-42.052,554.555 -40.863,555.929 -40.665,556.158 -26.589,564.405 -25.784,568.114 -24.745,572.555 -21.381,570.579 -17.384,570.725 -14.032,570.896 -13.041,572.041 -10.862,574.561 -10.911,578.208 -10.908,581.142 -10.471,581.031 -7.974,581.14 -5.406,582.256 -2.498,583.611 -1.483,585.403 M-83.56,663.349 Q-79.82,587.896 -42.118,554.479 L-42.976,553.486 M79.89,827.907 Q103.94,818.982 127.543,808.308 151.071,797.699 174.111,785.91 188.75,778.452 203.831,771.813 227.928,761.245 248.958,745.589 253.879,741.865 258.12,737.663 276.751,719.543 299.157,705.632 306.582,700.944 315.047,698.694 321.249,697.067 327.308,695.429 326.031,701.206 321.958,706.065 289.917,744.329 250.138,773.802 243.786,778.496 236.906,782.579 225.472,789.267 214.236,796.184 203.829,802.517 192.295,806.621 168.342,815.195 144.299,823.047 112.863,833.155 79.89,827.907Z M189.512,767.914 Q189.819,760.707 186.706,755.257 185.823,753.619 181.463,748.58 179.019,745.755 175.453,746.57 171.811,747.452 167.914,742.948 165.338,739.97 160.269,732.875 155.564,726.666 151.6,724.089 141.901,717.662 134.696,710.413 132.76,708.483 127.079,701.917" test="Parrot"/>
      <path id="Layer2_0_4_STROKES" stroke="#0F0" stroke-width="4.038" stroke-linejoin="round" stroke-linecap="round" fill="none" d="M-7.312,512.621 Q-10.278,513.051 -13.637,515.957 -16.004,518.005 -27.823,533.969 -39.739,550.285 -41.125,553.62" test="Parrot"/>
      <path id="Layer2_0_5_STROKES" stroke="#FF0" stroke-width="4.038" stroke-linejoin="round" stroke-linecap="round" fill="none" d="M47.556,473.432 L39.828,464.499 Q38.086,466.806 30.897,470.223 22.975,473.872 21.371,475.259 11.751,483.582 1.969,497.117 -6.301,508.543 -7.312,512.621 M-25.278,899.531 Q-3.238,908.497 13.027,897.363 20.483,892.248 27.827,886.696 11.332,859.45 -3.368,855.882 -16.613,861.866 -20.534,873.535 -24.466,885.347 -24.699,889.553 -25.008,893.825 -25.278,899.531Z M22.084,876.045 Q40.673,865.437 27.343,847.868 24.472,845.013 21.071,843.55 11.359,841.273 .198,855.066 M285.462,703.997 Q285.418,696.694 285.96,693.154 285.869,692.432 281.576,687.469 278.141,683.499 261.818,674.66 248.667,667.482 245.195,665.012 244.712,664.763 244.514,664.534 245.899,663.202 240.27,655.924 239.091,654.407 232.685,647.002 230.175,644.1 223.506,639.324 216.761,634.613 214.714,632.246 211.543,628.581 211.203,628.342 208.941,626.962 204.976,629.323 197.421,615.035 199.234,618.673 M245.195,665.012 Q245.678,665.262 245.948,664.494 246.423,662.882 244.514,664.534 M335.077,624.634 Q344.952,626.636 349.958,624.708 352.024,623.855 358.285,618.439 366.53,611.306 365.042,604.184 363.856,598.802 352.834,582.974 350.391,585.088 348.725,587.329 347.229,583.285 344.838,577.744 L340.545,572.781 Q339.666,577.012 338.915,580.465 337.165,575.972 335.984,571.521 L329.973,564.573 325.01,568.866 Q324.88,578.591 317.695,587.876 310.013,596.124 308.917,598.407 309.776,599.399 310.501,602.243 M293.863,574.987 Q310.561,562.811 312.831,556.176 314.819,550.451 307.514,540.618 L301.559,545.77 Q300.606,548.063 296.904,552.733 297.011,552.24 297.261,551.757 302.276,539.81 297.077,530.558 L289.213,537.362 Q289.957,534.982 290.428,532.439 291.727,524.374 288.624,518.782 L287.699,517.713 Q284.03,519.952 279.757,526.586 275.071,533.977 272.476,536.223 267.207,540.78 261.034,539.045 M253.653,512.459 Q274.255,496.772 298.073,451.471 308.278,432.098 312.975,417.622 317.963,402.094 314.529,398.123 309.641,392.473 307.842,391.628 301.751,388.754 292.911,395.2 291.562,390.092 284.726,379.721 277.659,371.551 266.948,376.144 260.303,378.956 259.428,379.179 255.501,380.04 253.123,377.292 252.199,376.223 246.79,361.946 245.337,360.267 237.93,361.735 229.944,363.305 227.285,361.466 220.794,357.203 212.78,350.254 206.441,345.859 198.403,348.14 197.016,346.537 195.173,343.326 193.253,340.181 192.527,339.341 L159.696,367.743 Q149.541,383.47 134.62,403.719 123.346,419.079 119.112,427.147" test="Parrot"/>
      <path id="Layer2_0_6_STROKES" stroke="#F0F" stroke-width="4.038" stroke-linejoin="round" stroke-linecap="round" fill="none" d="M327.308,695.429 L339.882,681.881 Q352.81,666.426 354.09,656.642 354.735,651.678 356.992,647.189 358.175,644.698 360.283,641.272 361.684,638.725 360.79,637.229 359.632,635.428 354.838,633.435 348.519,630.759 340.645,630.762 335.203,630.798 332.033,627.133 328.995,623.621 322.707,613.576 316.591,605.117 310.367,604.094 304.285,603.082 299.766,594.309 297.192,589.328 291.678,578.479 288.316,573.512 283.867,565.747 279.854,559.874 273.646,557.636 267.23,555.311 263.42,550.598 261.062,547.564 256.273,539.56 253.373,535.127 251.212,529.388 249.368,526.177 244.118,527.515 M112.243,419.206 Q90.815,431.47 76.357,440.373 64.979,447.28 43.798,461.064 M384.613,286.1 Q393.283,271.124 394.125,268.394 395.344,264.402 391.645,260.127 390.258,258.523 389.709,258.197 386.867,256.918 381.068,257.93 385.15,204.475 383.564,202.642 373.657,191.19 349.655,203.41 335.169,210.736 320.738,223.22 311.653,231.08 304.742,240.529 300.215,246.714 295.503,255.463" test="Parrot"/>
      <path id="Layer2_0_7_STROKES" stroke="#F60" stroke-width="4.038" stroke-linejoin="round" stroke-linecap="round" fill="none" d="M319.363,389.67 Q318.802,391.49 318.307,393.387 317.307,397.322 317.835,397.933 L322.798,393.64 Q332.752,381.691 356.003,339.285 383.685,289.039 377.08,281.404 374.24,278.121 361.354,276.187 348.853,274.853 348.721,274.7 347.598,273.403 345.421,268.879 343.177,264.279 342.12,263.058 338.884,259.317 328.231,262.125 320.859,264.096 317.048,266.326 309.584,257.698 301.391,257.177 293.122,256.722 289.225,252.218 285.789,255.19 277.692,261.26 269.66,267.407 268.897,268.068 261.949,274.078 250.357,291.849 237.309,311.947 234.269,315.378 229.585,320.765 220.083,328.451 209.99,336.381 206.478,339.42 L207.336,340.412" test="Parrot"/>
    </g>
    <g id="JuryBoxFront">
      <path fill="#000" stroke="none" d="M-5053.666,695.662 L-5101.634,633.507 -5105.613,941.182 Q-5088.022,941.184 -5063.346,941.182 L-5053.666,695.662 M1274.683,663.69 L1271.779,663.69 1233.384,705.564 1233.384,931.041 Q1255.935,931.082 1274.683,931.041 L1274.683,663.69 M905.894,692.322 Q745.645,696.378 585.718,706.518 423.425,715.227 261.024,716.301 94.537,717.375 -71.95,717.136 -234.351,716.898 -396.751,716.301 -568.401,715.704 -740.051,713.438 -909.335,711.29 -1078.511,708.189 -1246.504,705.206 -1414.497,709.978 -1580.769,714.631 -1747.149,724.652 -1909.012,732.406 -2071.197,729.663 -2241.987,726.68 -2412.669,714.989 -2571.735,703.178 -2731.447,700.673 -2890.406,698.287 -3049.472,699.838 -3220.154,701.508 -3390.836,704.371 -3562.163,707.353 -3733.383,710.217 -3903.419,713.08 -4073.671,716.182 -4239.298,719.284 -4405.032,720.715 -4570.122,722.147 -4735.641,718.568 -4895.138,715.108 -5053.666,695.662 L-5063.346,941.182 Q-4620.33,940.967 -1891.051,936.171 707.084,931.506 1233.384,931.041 L1233.384,705.564 Q1070.015,688.266 905.894,692.322 M545.171,668.223 Q533.973,668.805 522.801,669.297 359.433,675.262 196.064,675.262 146.561,675.262 97.011,675.262 -22.432,675.298 -141.965,675.381 -159.685,675.395 -177.457,675.381 -330.808,675.216 -484.297,672.757 -533.501,671.974 -582.705,670.371 -631.925,670.008 -681.221,669.535 -718.106,669.302 -755.108,668.939 -792.028,667.858 -828.995,667.269 -1000.43,664.644 -1171.972,662.735 -1305.413,661.28 -1438.803,667.746 -1458.365,668.765 -1477.952,669.893 -1639.384,678.125 -1800.494,687.55 L-2144.762,689.459 Q-2317.487,680.272 -2489.997,668.462 -2646.267,656.412 -2803.505,654.742 -2973.542,652.833 -3143.363,655.458 -3309.205,658.083 -3475.263,661.781 -3631.533,665.36 -3787.91,669.058 -3946.869,672.757 -4106.043,675.62 -4273.714,678.602 -4441.814,676.216 -4604.645,673.95 -4767.261,662.02 -4934.609,650.925 -5101.634,633.507 L-5053.666,695.662 Q-4895.138,715.108 -4735.641,718.568 -4570.122,722.147 -4405.032,720.715 -4239.298,719.284 -4073.671,716.182 -3903.419,713.08 -3733.383,710.217 -3562.163,707.353 -3390.836,704.371 -3220.154,701.508 -3049.472,699.838 -2890.406,698.287 -2731.447,700.673 -2571.735,703.178 -2412.669,714.989 -2241.987,726.68 -2071.197,729.663 -1909.012,732.406 -1747.149,724.652 -1580.769,714.631 -1414.497,709.978 -1246.504,705.206 -1078.511,708.189 -909.335,711.29 -740.051,713.438 -568.401,715.704 -396.751,716.301 -234.351,716.898 -71.95,717.136 94.537,717.375 261.024,716.301 423.425,715.227 585.718,706.518 745.645,696.378 905.894,692.322 1070.015,688.266 1233.384,705.564 L1271.779,663.69 1271.887,661.781 Q1232.334,657.83 1192.73,653.907 1162.405,650.772 1132.072,648.539 1003.087,639.467 873.629,648.061 709.575,660.686 545.171,668.223Z" test="JuryBoxFront" stroke-width="2.268"/>
      <path id="Layer1_0_1_STROKES" stroke="#F60" stroke-width="4.537" stroke-linejoin="round" stroke-linecap="round" fill="none" d="M1271.941,661.841 Q1232.334,657.83 1192.73,653.907 1162.405,650.772 1132.072,648.598 1003.087,639.467 873.629,648.061 709.575,660.686 545.171,668.283 533.973,668.805 522.801,669.297 359.433,675.262 196.064,675.262 146.561,675.262 97.064,675.262 -22.432,675.298 -141.965,675.381 -159.685,675.395 -177.403,675.381 -330.808,675.216 -484.297,672.757 -533.501,671.974 -582.705,670.43 -631.925,670.008 -681.167,669.595 -718.106,669.302 -755.054,668 -792.028,667.858 -828.995,667.269 -1000.43,664.644 -1171.972,662.735 -1305.413,661.28 -1438.75,667.806 -1458.365,668.765 -1477.952,669.893 -1639.384,678.125 -1800.494,687.55 L-2144.762,689.459 Q-2317.487,680.272 -2489.997,668.462 -2646.267,656.412 -2803.505,654.742 -2973.542,652.833 -3143.363,655.458 -3309.205,658.083 -3475.263,661.781 -3631.533,665.36 -3787.91,669.058 -3946.869,672.757 -4106.043,675.62 -4273.714,678.602 -4441.814,676.216 -4604.645,673.95 -4767.261,662.02 -4934.609,650.925 -5101.634,633.507 L-5053.666,695.662 Q-4895.138,715.108 -4735.641,718.568 -4570.122,722.147 -4405.032,720.715 -4239.298,719.284 -4073.671,716.182 -3903.419,713.08 -3733.383,710.217 -3562.163,707.353 -3390.836,704.371 -3220.154,701.508 -3049.472,699.838 -2890.406,698.287 -2731.447,700.673 -2571.735,703.178 -2412.669,714.989 -2241.987,726.68 -2071.197,729.663 -1909.012,732.406 -1747.149,724.652 -1580.769,714.631 -1414.497,709.978 -1246.504,705.206 -1078.511,708.189 -909.335,711.29 -740.051,713.438 -568.401,715.704 -396.751,716.301 -234.351,716.898 -71.95,717.136 94.537,717.375 261.024,716.301 423.425,715.227 585.718,706.518 745.645,696.378 905.894,692.322 1070.015,688.266 1233.384,705.564 L1271.779,663.69 M1271.941,661.841 Q1273.311,662 1274.683,662.139 L1274.683,663.69 1274.683,931.041 1274.683,957.764 M1233.384,957.764 L1233.384,931.101 M-5063.346,941.182 L-5063.991,957.764 M1233.384,931.101 L1233.384,705.564 M-5105.828,957.764 L-5105.613,941.182 -5101.634,633.507 M-5053.666,695.662 L-5063.346,941.182" test="JuryBoxFront"/>
    </g>
  </g>
</svg>