<?xml version="1.0" encoding="utf-8"?>
<svg id="EdithAnim12" image-rendering="inherit" baseProfile="basic" version="1.1" x="0px" y="0px" width="800" height="600" xmlns="http://www.w3.org/2000/svg" xmlns:xlink="http://www.w3.org/1999/xlink">
  <g id="14_JurorParrotf185r1" overflow="visible">
    <g id="Parrot">
      <path id="Layer2_0_1_STROKES" stroke="#FFF" stroke-width="5.059" stroke-linejoin="round" stroke-linecap="round" fill="none" d="M94.198,167.857 Q103.204,170.646 110.087,179.477 118.442,190.117 112.161,203.503 105.879,216.889 97.624,222.72 89.392,228.427 80.477,226.554 71.437,224.659 65.913,218.26 60.264,211.838 60.247,202.708 60.287,193.975 63.824,186.518 67.1,179.785 70.48,176.028 73.759,172.123 79.482,170.332 85.103,168.394 94.198,167.857Z M89.894,197.283 Q88.943,195.44 87.121,194.853 85.175,194.243 85.05,194.221 84.304,194.085 83.297,194.674 80.843,196.158 81.909,200.207 82.839,203.589 86.425,202.953 88.947,202.51 89.636,200.836 90.235,199.659 90.325,199.161 90.63,198.188 89.894,197.283Z M-17.317,154.078 Q-11.751,154.572 -5.942,164.365 -.212,173.887 -2.807,185.371 -5.357,196.605 -11.847,202.627 -18.189,208.548 -26.98,206.698 -35.873,204.701 -41.827,197.838 -48.585,190.443 -46.498,181.053 -43.531,168.223 -37.777,161.296 -29.864,151.676 -17.317,154.078Z M-15.592,182.154 Q-16.192,180.503 -17.788,180.085 -19.609,179.498 -19.734,179.476 -20.232,179.385 -21.216,179.85 -23.398,181.254 -22.389,184.907 -21.539,188.018 -18.575,187.269 -16.449,186.883 -15.782,185.333 -15.353,184.383 -15.263,183.885 -14.856,183.059 -15.592,182.154Z" test="Parrot"/>
      <path id="Layer2_0_2_STROKES" stroke="#F00" stroke-width="5.059" stroke-linejoin="round" stroke-linecap="round" fill="none" d="M134.125,253.242 Q141.322,256.088 143.143,256.675 144.965,257.263 148.698,257.939 154.05,258.909 164.715,254.671 M106.65,314.074 L110.079,315.723 Q114.13,317.486 117.241,318.049 119.108,318.388 124.966,315.85 130.406,313.494 131.627,312.43 M201.675,391.19 Q183.977,363.304 182.464,330.51 181.237,302.524 192.029,264.248 201.613,230.509 189.883,195.221 176.896,156.235 147.641,136.795 118.41,117.231 94.322,110.424 70.256,103.493 45.303,107.84 20.226,112.165 -.082,126.352 -20.221,140.312 -21.543,144.058 M-57.492,316.209 Q-64.497,348.487 -85.456,371.939 M28.632,301.994 Q33.105,309.231 35.474,316.73 35.814,317.691 42.036,318.819 45.272,319.405 49.853,318.95 50.77,318.859 58.688,317.723" test="Parrot"/>
      <path id="Layer2_0_3_STROKES" stroke="#0FF" stroke-width="5.059" stroke-linejoin="round" stroke-linecap="round" fill="none" d="M-71.03,357.586 L-74.407,367 Q-72.37,368.526 -69.677,369.271 -67.98,369.836 -64.246,370.512 -53.917,372.384 -44.6,364.946 -35.136,357.406 -29.412,358.444 -27.42,358.804 -16.762,362.407 -6.228,365.986 -4.112,366.37 8.208,368.602 11.712,363.453 15.114,358.157 24.572,359.871 26.688,360.254 34.111,363.27 41.658,366.308 43.649,366.669 45.018,366.917 50.751,362.943 56.359,358.946 62.333,360.029 64.449,360.412 72.245,363.496 80.041,366.579 82.032,366.94 84.272,367.346 91.081,365.238 94.485,364.184 97.765,363.107 98.139,363.175 105.019,367.763 112.771,372.51 116.754,373.232 121.856,374.156 128.88,372.987 132.342,372.329 135.429,371.603 140.407,372.505 164.385,382.762 184.311,391.257 193.509,393.695 195.353,394.158 196.722,394.406 M9.823,419.281 Q7.619,423.637 -4.438,464.641 -16.122,504.298 -20.146,510.895 -25.898,520.65 -32.092,547.034 -38.705,575.014 -38.354,592.944 -37.969,612.808 -29.417,668.471 -20.616,725.594 -14.95,741.145 -12.31,748.564 -3.904,768.854 2.893,785.253 7.71,800.521 14.08,820.699 20.465,829.44 26.93,838.452 38.573,843.004 46.369,846.087 58.397,851.352 66.68,853.881 67.988,846.662 71.641,826.502 90.779,840.766 104.258,850.792 109.18,852.712 117.1,855.819 122.674,849.888 126.789,845.62 132.655,838.071 138.557,832.457 149.45,831.217 156.531,830.444 161.693,836.006 163.086,837.544 169.13,824.757 175.988,810.319 185.481,794.815 L193.539,782.265 Q196.916,772.851 205.874,751.08 213.713,731.935 216.277,706.435 219.29,675.618 212.453,650.215 212.057,648.858 194.249,588.947 182.936,550.65 180.244,532.167 178.256,518.31 173.233,498.505 169.684,484.751 170.233,476.753 M249.72,543.856 Q248.385,542.714 246.145,542.308 245.771,542.241 225.558,545.262 221.857,542.278 217.353,538.762 215.624,543.333 211.61,546.334 208.207,548.802 206.34,548.463 202.233,547.719 199.414,544.124 197.105,541.263 196.766,541.716 194.244,543.572 190.862,544.502 186.96,545.466 184.561,544.517 M203.346,403.961 Q259.015,480.501 248.509,542.737 L250.127,543.03 M-85.456,371.939 Q-101.899,399.551 -116.531,428.52 -131.141,457.364 -144.347,486.976 -152.764,505.76 -162.255,524.092 -177.453,553.344 -185.658,585.148 -187.531,592.649 -188.364,600.082 -192.293,632.404 -203.213,663.587 -206.77,673.997 -213.258,682.847 -218.028,689.309 -222.651,695.669 -225.947,689.031 -225.793,681.09 -224.62,618.577 -208.989,558.555 -206.483,548.983 -202.982,539.592 -197.086,524.079 -191.564,508.498 -186.391,494.14 -178.367,481.069 -161.743,453.875 -144.463,427.315 -121.745,392.742 -85.456,371.939Z M-145.223,516.638 Q-139.857,523.909 -132.536,526.778 -130.386,527.681 -122.172,529.17 -117.568,530.004 -114.731,526.405 -111.871,522.681 -104.528,524.012 -99.675,524.891 -89.152,527.826 -79.682,530.185 -73.789,529.582 -59.276,528.227 -46.549,529.633 -43.143,529.993 -32.441,531.933" test="Parrot"/>
      <path id="Layer2_0_4_STROKES" stroke="#0F0" stroke-width="5.059" stroke-linejoin="round" stroke-linecap="round" fill="none" d="M247.464,610.928 Q250.019,608.178 251.011,602.702 251.71,598.844 250.689,573.98 249.486,548.698 248.216,544.355" test="Parrot"/>
      <path id="Layer2_0_5_STROKES" stroke="#FF0" stroke-width="5.059" stroke-linejoin="round" stroke-linecap="round" fill="none" d="M224.753,692.29 L239.313,694.928 Q239.198,691.308 243.525,682.323 248.384,672.535 248.857,669.922 251.699,654.241 250.6,633.348 249.684,615.701 247.464,610.928 M-39.179,219.397 Q-67.726,227.978 -74.838,251.625 -78.09,262.476 -80.889,273.666 -43.38,287.274 -26.235,279.198 -18.021,262.949 -23.369,248.483 -28.819,233.871 -31.899,229.586 -34.956,225.176 -39.179,219.397Z M-66.914,279.54 Q-76.707,304.501 -49.893,311.159 -44.847,311.687 -40.379,310.44 -29.116,305.026 -29.072,282.797 M-188.569,654.415 Q-182.784,661.505 -180.53,665.383 -179.874,666.017 -171.785,667.482 -165.313,668.655 -142.442,664.444 -123.971,661.107 -118.643,660.787 -117.976,660.651 -117.602,660.719 -117.906,663.106 -106.694,665.78 -104.352,666.333 -92.28,668.521 -87.551,669.377 -77.291,668.794 -67.009,668.087 -63.151,668.786 -57.177,669.868 -56.657,669.834 -53.365,669.402 -51.355,663.982 -32.753,671.98 -37.381,669.856 M-118.643,660.787 Q-119.31,660.924 -118.97,661.885 -118.166,663.83 -117.602,660.719 M-174.573,770.834 Q-185.78,776.644 -189.148,782.461 -190.493,784.916 -192.342,795.121 -194.777,808.562 -187.726,814.338 -182.339,818.656 -159.144,825.43 -158.423,821.447 -158.561,817.952 -153.921,820.721 -147.233,824.246 L-139.144,825.712 Q-141.613,820.894 -143.595,816.936 -138.355,819.942 -133.704,823.356 L-122.379,825.408 -120.913,817.318 Q-128.43,807.73 -128.722,793.024 -127.712,778.94 -128.438,775.852 -130.056,775.559 -132,773.354 M-95.343,786.861 Q-102.059,811.866 -99.056,820.122 -96.495,827.27 -81.64,831.119 L-79.881,821.411 Q-80.754,818.426 -80.815,810.959 -80.531,811.525 -80.395,812.192 -75.895,827.789 -63.55,832.725 L-61.227,819.907 Q-60.083,822.814 -58.543,825.663 -53.47,834.552 -46.047,837.568 L-44.305,837.884 Q-42.486,832.815 -43.533,822.985 -44.773,812.092 -44.006,807.86 -42.45,799.273 -35.065,796.113 M-6.964,816.243 Q-14.728,847.742 -2.348,910.654 2.928,937.574 9.726,955.387 17.068,974.455 23.54,975.628 32.749,977.297 35.169,976.707 43.37,974.722 46.925,961.485 52.256,965.407 67.078,970.149 80.394,972.562 87.23,959.662 91.501,951.695 92.18,950.79 95.333,946.863 99.814,947.674 101.556,947.99 118.055,957.664 120.793,958.16 126.863,950.905 133.42,943.095 137.458,942.799 147.141,941.854 160.422,942.332 170.06,941.637 176.107,933.092 178.72,933.566 183.043,935.249 187.388,936.807 188.757,937.055 L198.453,883.542 Q195.996,860.217 194.631,828.735 193.553,804.889 191.34,793.691" test="Parrot"/>
      <path id="Layer2_0_6_STROKES" stroke="#F0F" stroke-width="5.059" stroke-linejoin="round" stroke-linecap="round" fill="none" d="M-222.651,695.669 L-224.266,718.77 Q-224.726,744.009 -218.283,754.559 -215.01,759.908 -213.683,766.061 -212.878,769.42 -212.241,774.42 -211.606,778.006 -209.558,778.763 -207.012,779.609 -200.769,777.784 -192.501,775.426 -184.823,769.234 -179.543,764.921 -173.569,766.003 -167.845,767.04 -153.814,771.896 -141.199,775.339 -134.323,771.443 -127.595,767.65 -116.291,772.654 -109.864,775.49 -95.957,781.737 -88.772,783.939 -78.328,788.016 -69.797,790.59 -61.982,787.893 -53.895,785.117 -46.473,786.719 -41.789,787.825 -30.825,791.868 -24.512,793.912 -17.892,797.811 -13.569,799.493 -9.5,794.061 M204.283,796.037 Q215.544,767.228 222.648,747.179 228.317,731.496 238.141,701.399 M43.243,1139.997 Q46.559,1161.42 47.884,1164.745 49.833,1169.597 56.802,1170.86 59.416,1171.334 60.207,1171.22 63.985,1170.234 68.846,1164.688 106.889,1220.039 109.876,1220.58 128.543,1223.963 142.349,1193.173 150.72,1174.638 154.982,1151.117 157.665,1136.308 156.978,1121.659 156.531,1112.066 154.25,1099.827" test="Parrot"/>
      <path id="Layer2_0_7_STROKES" stroke="#F60" stroke-width="5.059" stroke-linejoin="round" stroke-linecap="round" fill="none" d="M25.47,987.674 Q24.586,985.458 23.578,983.219 21.46,978.593 20.464,978.413 L18.998,986.502 Q18.682,1005.982 29.34,1065.626 41.838,1136.4 54.283,1138.655 59.634,1139.625 73.724,1131.381 86.966,1122.855 87.215,1122.9 89.331,1123.283 95.011,1125.983 100.816,1128.706 102.807,1129.067 108.905,1130.172 117.089,1119.058 122.729,1111.34 124.694,1106.169 138.757,1108.717 147.159,1102.784 155.583,1096.727 162.925,1098.057 163.94,1092.457 167.066,1080.17 170.068,1067.86 170.293,1066.616 172.346,1055.291 169.682,1028.844 166.61,998.981 166.878,993.246 167.212,984.309 170.439,969.34 174.049,953.671 175.086,947.946 L173.469,947.653" test="Parrot"/>
    </g>
    <g id="JuryBoxFront">
      <path fill="#000" stroke="none" d="M-5610.274,731.485 L-5663.148,661.098 -5667.534,1009.521 Q-5648.144,1009.523 -5620.944,1009.521 L-5610.274,731.485 M1365.326,695.278 L1362.125,695.278 1319.803,742.698 1319.803,998.037 Q1344.661,998.083 1365.326,998.037 L1365.326,695.278 M958.818,727.702 Q782.179,732.295 605.895,743.779 427.003,753.641 247.992,754.857 64.477,756.073 -119.038,755.803 -298.049,755.533 -477.059,754.857 -666.265,754.181 -855.471,751.615 -1042.069,749.183 -1228.548,745.67 -1413.723,742.293 -1598.898,747.697 -1782.176,752.966 -1965.573,764.314 -2143.991,773.095 -2322.764,769.988 -2511.022,766.611 -2699.161,753.371 -2874.496,739.996 -3050.543,737.159 -3225.76,734.457 -3401.095,736.213 -3589.234,738.105 -3777.373,741.347 -3966.223,744.724 -4154.955,747.967 -4342.382,751.209 -4530.047,754.722 -4712.614,758.235 -4895.299,759.856 -5077.274,761.477 -5259.722,757.424 -5435.532,753.506 -5610.274,731.485 L-5620.944,1009.521 Q-5132.617,1009.277 -2124.193,1003.846 739.674,998.564 1319.803,998.037 L1319.803,742.698 Q1139.726,723.108 958.818,727.702 M561.202,700.412 Q548.858,701.071 536.543,701.628 356.466,708.383 176.388,708.383 121.822,708.383 67.204,708.383 -64.456,708.423 -196.214,708.518 -215.747,708.534 -235.336,708.518 -404.372,708.331 -573.559,705.546 -627.796,704.659 -682.032,702.844 -736.286,702.433 -790.624,701.898 -831.282,701.633 -872.068,701.222 -912.764,699.998 -953.512,699.331 -1142.481,696.359 -1331.568,694.197 -1478.658,692.549 -1625.69,699.871 -1647.252,701.025 -1668.843,702.303 -1846.786,711.625 -2024.374,722.298 L-2403.853,724.459 Q-2594.244,714.057 -2784.398,700.682 -2956.651,687.037 -3129.971,685.145 -3317.399,682.984 -3504.589,685.956 -3687.393,688.928 -3870.435,693.116 -4042.688,697.169 -4215.059,701.357 -4390.276,705.546 -4565.73,708.788 -4750.55,712.165 -4935.843,709.463 -5115.328,706.897 -5294.576,693.387 -5479.04,680.822 -5663.148,661.098 L-5610.274,731.485 Q-5435.532,753.506 -5259.722,757.424 -5077.274,761.477 -4895.299,759.856 -4712.614,758.235 -4530.047,754.722 -4342.382,751.209 -4154.955,747.967 -3966.223,744.724 -3777.373,741.347 -3589.234,738.105 -3401.095,736.213 -3225.76,734.457 -3050.543,737.159 -2874.496,739.996 -2699.161,753.371 -2511.022,766.611 -2322.764,769.988 -2143.991,773.095 -1965.573,764.314 -1782.176,752.966 -1598.898,747.697 -1413.723,742.293 -1228.548,745.67 -1042.069,749.183 -855.471,751.615 -666.265,754.181 -477.059,754.857 -298.049,755.533 -119.038,755.803 64.477,756.073 247.992,754.857 427.003,753.641 605.895,743.779 782.179,732.295 958.818,727.702 1139.726,723.108 1319.803,742.698 L1362.125,695.278 1362.244,693.116 Q1318.646,688.642 1274.991,684.2 1241.565,680.649 1208.129,678.12 1065.952,667.847 923.253,677.58 742.419,691.876 561.202,700.412Z" test="JuryBoxFront" stroke-width="2.536"/>
      <path id="Layer1_0_1_STROKES" stroke="#F60" stroke-width="5.073" stroke-linejoin="round" stroke-linecap="round" fill="none" d="M1362.303,693.184 Q1318.646,688.642 1274.991,684.2 1241.565,680.649 1208.129,678.188 1065.952,667.847 923.253,677.58 742.419,691.876 561.202,700.479 548.858,701.071 536.543,701.628 356.466,708.383 176.388,708.383 121.822,708.383 67.263,708.383 -64.456,708.423 -196.214,708.518 -215.747,708.534 -235.277,708.518 -404.372,708.331 -573.559,705.546 -627.796,704.659 -682.032,702.911 -736.286,702.433 -790.565,701.965 -831.282,701.633 -872.009,701.29 -912.764,699.998 -953.512,699.331 -1142.481,696.359 -1331.568,694.197 -1478.658,692.549 -1625.631,699.939 -1647.252,701.025 -1668.843,702.303 -1846.786,711.625 -2024.374,722.298 L-2403.853,724.459 Q-2594.244,714.057 -2784.398,700.682 -2956.651,687.037 -3129.971,685.145 -3317.399,682.984 -3504.589,685.956 -3687.393,688.928 -3870.435,693.116 -4042.688,697.169 -4215.059,701.357 -4390.276,705.546 -4565.73,708.788 -4750.55,712.165 -4935.843,709.463 -5115.328,706.897 -5294.576,693.387 -5479.04,680.822 -5663.148,661.098 L-5610.274,731.485 Q-5435.532,753.506 -5259.722,757.424 -5077.274,761.477 -4895.299,759.856 -4712.614,758.235 -4530.047,754.722 -4342.382,751.209 -4154.955,747.967 -3966.223,744.724 -3777.373,741.347 -3589.234,738.105 -3401.095,736.213 -3225.76,734.457 -3050.543,737.159 -2874.496,739.996 -2699.161,753.371 -2511.022,766.611 -2322.764,769.988 -2143.991,773.095 -1965.573,764.314 -1782.176,752.966 -1598.898,747.697 -1413.723,742.293 -1228.548,745.67 -1042.069,749.183 -855.471,751.615 -666.265,754.181 -477.059,754.857 -298.049,755.533 -119.038,755.803 64.477,756.073 247.992,754.857 427.003,753.641 605.895,743.779 782.179,732.295 958.818,727.702 1139.726,723.108 1319.803,742.698 L1362.125,695.278 M1362.303,693.184 Q1363.813,693.365 1365.326,693.522 L1365.326,695.278 1365.326,998.037 1365.326,1028.299 M1319.803,1028.299 L1319.803,998.105 M-5620.944,1009.521 L-5621.655,1028.299 M1319.803,998.105 L1319.803,742.698 M-5667.771,1028.299 L-5667.534,1009.521 -5663.148,661.098 M-5610.274,731.485 L-5620.944,1009.521" test="JuryBoxFront"/>
    </g>
  </g>
</svg>