<?xml version="1.0" encoding="utf-8"?>
<svg id="EdithAnim12" image-rendering="inherit" baseProfile="basic" version="1.1" x="0px" y="0px" width="800" height="600" xmlns="http://www.w3.org/2000/svg" xmlns:xlink="http://www.w3.org/1999/xlink">
  <g id="14_JurorParrotf188r1" overflow="visible">
    <g id="Parrot">
      <path id="Layer2_0_1_STROKES" stroke="#FFF" stroke-width="5.569" stroke-linejoin="round" stroke-linecap="round" fill="none" d="M476.79,578.072 Q477.173,588.444 470.506,598.812 462.495,611.366 446.301,609.716 430.106,608.066 421.042,601.614 412.116,595.141 410.814,585.197 409.49,575.115 414.126,567.046 418.741,558.838 428.218,555.496 437.306,552.357 446.341,553.315 454.528,554.266 459.663,556.409 464.914,558.393 468.859,563.686 472.919,568.82 476.79,578.072Z M444.652,584.319 Q446.221,582.659 446.167,580.553 446.092,578.309 446.07,578.172 445.939,577.347 444.96,576.515 442.525,574.506 438.707,577.088 435.532,579.286 437.499,582.779 438.877,585.239 440.868,585.345 442.309,585.538 442.859,585.45 443.981,585.413 444.652,584.319Z M450.489,457.205 Q452.003,463.167 443.945,472.769 436.14,482.189 423.265,483.676 410.665,485.119 402.045,480.57 393.585,476.137 392.305,466.331 391.141,456.365 396.102,447.68 401.322,437.966 411.838,436.714 426.247,435.124 435.539,438.579 448.415,443.295 450.489,457.205Z M421.95,469.223 Q423.447,467.997 423.299,466.188 423.246,464.082 423.224,463.944 423.136,463.394 422.296,462.541 420.042,460.785 416.614,463.164 413.693,465.18 415.55,467.986 416.725,470.055 418.578,470.183 419.722,470.282 420.272,470.195 421.278,470.317 421.95,469.223Z" test="Parrot"/>
      <path id="Layer2_0_2_STROKES" stroke="#F00" stroke-width="5.569" stroke-linejoin="round" stroke-linecap="round" fill="none" d="M402.628,650.65 Q402.292,659.163 402.346,661.269 402.399,663.375 403.056,667.5 403.998,673.413 412.284,682.949 M329.425,644.263 L328.96,648.426 Q328.605,653.276 329.152,656.713 329.481,658.776 334.251,663.938 338.68,668.731 340.23,669.612 M283.921,771.068 Q306.445,742.526 339.962,729.01 368.589,717.542 412.284,714.813 450.825,712.481 483.212,687.443 518.983,659.752 528.524,622.28 538.202,584.787 536.5,557.283 534.936,529.757 521.331,505.419 507.704,480.942 485.57,465.011 463.732,449.174 459.36,449.166 M267.425,474.519 Q231.34,478.997 199.343,465.765 M313.56,558.813 Q307.67,566.096 300.743,571.288 299.868,571.991 300.963,578.866 301.532,582.441 303.674,587.035 304.102,587.953 308.166,595.765" test="Parrot"/>
      <path id="Layer2_0_3_STROKES" stroke="#0FF" stroke-width="5.569" stroke-linejoin="round" stroke-linecap="round" fill="none" d="M219.508,475.524 L208.498,475.445 Q207.655,478.117 207.862,481.186 207.893,483.155 208.55,487.28 210.368,498.692 221.488,505.662 232.768,512.748 233.775,519.073 234.126,521.273 234.265,533.658 234.383,545.905 234.756,548.243 236.924,561.855 243.549,563.62 250.29,565.225 251.955,575.675 252.327,578.012 251.897,586.822 251.489,595.769 251.84,597.969 252.081,599.482 258.297,603.99 264.492,608.361 265.543,614.961 265.916,617.298 265.552,626.521 265.188,635.743 265.538,637.943 265.932,640.418 270.602,646.723 272.937,649.876 275.25,652.891 275.316,653.304 273.055,662.123 270.947,671.905 271.648,676.305 272.546,681.943 276.319,688.814 278.264,692.17 280.142,695.114 281.018,700.614 279.095,729.259 277.527,753.053 278.345,763.497 278.536,765.582 278.777,767.094 M184.863,581.99 Q179.535,581.288 132.546,583.696 87.092,586.001 78.773,584.224 66.544,581.801 36.878,584.976 5.403,588.297 -13.096,595.191 -33.592,602.826 -88.304,631.983 -144.441,661.932 -158.533,673.481 -165.279,678.927 -183.296,695.049 -197.857,708.083 -211.964,718.648 -230.606,732.615 -237.361,742.432 -244.369,752.43 -244.857,766.184 -245.221,775.406 -246.309,789.819 -245.92,799.344 -237.945,798.074 -215.67,794.526 -223.519,819.603 -229.025,837.258 -229.227,843.071 -229.569,852.43 -221.378,856.06 -215.446,858.781 -205.467,862.126 -197.485,866.213 -192.229,877.078 -188.847,884.152 -192.746,891.541 -193.836,893.547 -178.351,895.169 -160.853,897.035 -141.289,901.25 L-125.316,905.051 Q-114.307,905.13 -88.428,906.507 -65.683,907.678 -38.258,901.054 -5.146,892.96 18.754,876.606 20.02,875.699 75.774,835.379 111.439,809.678 129.66,800.15 143.331,793.038 162.076,780.606 175.072,771.909 183.581,769.567 M142.82,876.584 Q143.52,874.78 143.126,872.305 143.06,871.893 132.56,851.994 134.312,847.063 136.323,841.103 130.945,840.972 126.366,837.895 122.563,835.258 122.234,833.196 121.511,828.658 124.22,824.42 126.351,820.979 125.757,820.791 122.91,818.848 120.712,815.673 118.29,811.971 118.402,809.133 M271.263,777.455 Q212.023,863.165 143.542,874.918 L143.827,876.705 M199.343,465.765 Q164.669,458.74 129.245,454.09 93.959,449.418 58.386,446.483 35.806,444.581 13.305,441.398 -22.618,436.263 -58.647,439.323 -67.122,440.109 -75.147,441.951 -110.156,449.641 -146.529,449.654 -158.639,449.75 -170.196,446.233 -178.647,443.632 -186.938,441.145 -181.242,435.304 -172.936,432.571 -107.566,411.021 -39.518,405.4 -28.662,404.516 -17.63,404.733 .633,405.208 18.83,405.27 35.631,405.414 52.132,408.99 86.437,416.356 120.324,424.634 164.515,435.642 199.343,465.765Z M27.252,456.377 Q21.653,464.6 21.339,473.25 21.183,475.813 22.629,484.888 23.439,489.975 28.212,491.612 33.121,493.227 34.413,501.339 35.268,506.702 36.051,518.702 37.05,529.399 39.823,535.302 46.516,549.885 49.691,563.62 50.557,567.288 52.44,579.113" test="Parrot"/>
      <path id="Layer2_0_4_STROKES" stroke="#0F0" stroke-width="5.569" stroke-linejoin="round" stroke-linecap="round" fill="none" d="M72.319,898.669 Q76.107,900.321 82.157,899.358 86.42,898.679 111.878,888.561 137.705,878.103 141.755,875.203" test="Parrot"/>
      <path id="Layer2_0_5_STROKES" stroke="#FF0" stroke-width="5.569" stroke-linejoin="round" stroke-linecap="round" fill="none" d="M-20.476,904.707 L-17.914,920.795 Q-14.195,919.357 -3.285,920.58 8.653,922.062 11.54,921.602 28.865,918.843 50.171,910.092 68.17,902.713 72.319,898.669 M374.668,458.284 Q355.357,431.752 328.2,432.976 315.744,433.55 303.1,434.718 302.623,478.641 317.258,493.511 337.13,496.126 350.21,485.302 363.405,474.318 366.736,469.558 370.204,464.775 374.668,458.284Z M302.087,451.375 Q272.589,450.292 275.438,480.574 276.727,486.008 279.65,490.195 289.377,499.925 312.485,491.874 M-131.667,461.527 Q-136.925,470.119 -140.134,473.873 -140.552,474.785 -139.129,483.723 -137.99,490.873 -125.286,513.099 -115.092,531.073 -112.819,536.491 -112.434,537.135 -112.369,537.548 -114.959,538.101 -113.654,550.723 -113.375,553.358 -111.251,566.695 -110.419,571.92 -106.076,582.366 -101.596,592.791 -100.917,597.053 -99.866,603.653 -99.641,604.182 -97.993,607.444 -91.631,607.558 -93.164,629.797 -92.643,624.215 M-112.819,536.491 Q-113.203,535.848 -114.078,536.551 -115.806,538.095 -112.369,537.548 M-247.513,518.468 Q-257.631,508.941 -264.9,507.561 -267.941,507.059 -279.216,508.854 -294.066,511.22 -297.499,520.649 -300.023,527.818 -298.612,554.381 -294.212,553.68 -290.63,552.264 -291.817,558.092 -293.044,566.324 L-291.62,575.262 Q-287.515,570.942 -284.124,567.441 -285.339,573.979 -287.191,580.055 L-285.198,592.567 -276.261,591.144 Q-269.037,579.842 -253.866,574.183 -238.867,570.102 -235.923,568.223 -236.208,566.436 -234.99,562.576 M-235.307,606.615 Q-263.729,608.745 -271.213,614.872 -277.706,620.135 -276.293,636.97 L-265.568,635.262 Q-262.784,633.268 -255.05,630.485 -255.534,630.985 -256.178,631.369 -270.742,641.725 -271.374,656.348 L-257.211,654.092 Q-259.814,656.34 -262.214,658.978 -269.6,667.485 -270.03,676.295 L-269.723,678.22 Q-263.795,678.263 -253.964,673.595 -243.099,668.34 -238.424,667.595 -228.937,666.084 -222.963,672.605 M-233.642,709.13 Q-269.192,712.537 -330.041,748.311 -356.085,763.597 -372.115,777.147 -389.25,791.719 -388.111,798.869 -386.491,809.044 -384.997,811.344 -379.948,819.14 -364.901,818.013 -367.034,824.979 -366.562,842.104 -364.219,856.817 -348.328,859.22 -338.496,860.756 -337.308,861.131 -332.08,862.977 -331.291,867.927 -330.985,869.852 -335.025,890.516 -334.543,893.541 -324.795,897.205 -314.294,901.172 -312.515,905.259 -308.007,914.974 -303.667,928.946 -299.434,938.705 -288.355,941.875 -287.895,944.762 -288.069,949.865 -288.106,954.947 -287.865,956.459 L-228.74,947.042 Q-205.404,935.994 -173.196,923.11 -148.816,913.305 -137.988,906.928" test="Parrot"/>
      <path id="Layer2_0_6_STROKES" stroke="#F0F" stroke-width="5.569" stroke-linejoin="round" stroke-linecap="round" fill="none" d="M-186.938,441.145 L-211.525,447.881 Q-237.912,456.596 -246.526,467.132 -250.89,472.48 -256.799,476.1 -259.996,478.16 -264.958,480.642 -268.452,482.608 -268.492,485.011 -268.444,487.964 -264.275,493.786 -258.814,501.516 -249.584,507.237 -243.18,511.151 -242.129,517.751 -241.122,524.076 -241.056,540.42 -240.038,554.78 -233.487,560.504 -227.095,566.112 -228.177,579.679 -228.782,587.388 -230.207,604.111 -229.877,612.377 -230.31,624.712 -229.877,634.512 -224.228,641.648 -218.399,649.038 -217.36,657.332 -216.803,662.601 -217.01,675.464 -216.833,682.767 -218.473,691.064 -218.647,696.168 -211.521,698.417 M-135.711,921.228 Q-101.681,922.435 -78.265,922.512 -59.908,922.69 -25.064,921.934 M-551.692,879.204 Q-572.741,890.452 -575.713,893.04 -580.043,896.831 -578.817,904.531 -578.357,907.419 -577.951,908.2 -575.55,911.765 -568.018,914.795 -611.665,974.477 -611.139,977.777 -607.854,998.402 -570.84,1001.529 -548.536,1003.476 -522.548,999.336 -506.186,996.73 -491.218,990.681 -481.415,986.723 -469.532,979.895" test="Parrot"/>
      <path id="Layer2_0_7_STROKES" stroke="#F60" stroke-width="5.569" stroke-linejoin="round" stroke-linecap="round" fill="none" d="M-399.923,805.262 Q-397.942,803.537 -395.983,801.674 -391.949,797.789 -392.124,796.689 L-401.062,798.112 Q-421.414,804.879 -479.495,837.674 -548.468,876.434 -546.278,890.184 -545.336,896.097 -531.64,907.732 -517.96,918.383 -517.916,918.658 -517.543,920.996 -518.28,927.881 -518.994,934.903 -518.644,937.103 -517.571,943.84 -503.044,948.294 -492.972,951.342 -486.884,951.501 -484.409,967.038 -475.186,973.605 -465.825,980.151 -464.533,988.263 -458.346,987.278 -444.442,986.05 -430.561,984.685 -429.186,984.466 -416.673,982.473 -390.169,970.075 -360.264,956.006 -354.208,954.196 -344.802,951.288 -328.077,949.188 -310.483,947.232 -304.158,946.224 L-304.443,944.437" test="Parrot"/>
    </g>
    <g id="JuryBoxFront">
      <path fill="#000" stroke="none" d="M-5815.043,744.687 L-5869.722,671.278 -5874.259,1034.66 Q-5854.206,1034.662 -5826.077,1034.66 L-5815.043,744.687 M1398.864,706.926 L1395.554,706.926 1351.785,756.382 1351.785,1022.683 Q1377.492,1022.731 1398.864,1022.683 L1398.864,706.926 M978.468,740.742 Q795.794,745.533 613.488,757.509 428.485,767.795 243.359,769.063 53.574,770.331 -136.211,770.049 -321.337,769.767 -506.463,769.063 -702.132,768.358 -897.802,765.681 -1090.774,763.145 -1283.624,759.482 -1475.125,755.959 -1666.627,761.595 -1856.166,767.09 -2045.828,778.926 -2230.341,788.084 -2415.222,784.844 -2609.911,781.321 -2804.477,767.513 -2985.803,753.564 -3167.864,750.605 -3349.066,747.787 -3530.392,749.619 -3724.958,751.591 -3919.524,754.973 -4114.826,758.496 -4310.005,761.877 -4503.836,765.259 -4697.912,768.922 -4886.716,772.585 -5075.642,774.276 -5263.833,775.967 -5452.515,771.74 -5634.33,767.654 -5815.043,744.687 L-5826.077,1034.66 Q-5321.068,1034.406 -2209.867,1028.742 751.837,1023.233 1351.785,1022.683 L1351.785,756.382 Q1165.556,735.951 978.468,740.742 M567.268,712.28 Q554.503,712.968 541.767,713.548 355.538,720.593 169.308,720.593 112.878,720.593 56.394,720.593 -79.763,720.636 -216.023,720.734 -236.223,720.751 -256.481,720.734 -431.292,720.54 -606.259,717.634 -662.349,716.71 -718.438,714.816 -774.545,714.388 -830.74,713.83 -872.787,713.554 -914.966,713.126 -957.052,711.849 -999.192,711.153 -1194.617,708.053 -1390.164,705.799 -1542.278,704.08 -1694.334,711.717 -1716.633,712.92 -1738.961,714.253 -1922.983,723.975 -2106.638,735.106 L-2499.081,737.361 Q-2695.976,726.511 -2892.627,712.562 -3070.764,698.331 -3250.006,696.359 -3443.836,694.104 -3637.422,697.204 -3826.471,700.304 -4015.765,704.672 -4193.903,708.899 -4372.163,713.267 -4553.366,717.634 -4734.814,721.016 -4925.948,724.539 -5117.571,721.721 -5303.188,719.044 -5488.559,704.954 -5679.325,691.85 -5869.722,671.278 L-5815.043,744.687 Q-5634.33,767.654 -5452.515,771.74 -5263.833,775.967 -5075.642,774.276 -4886.716,772.585 -4697.912,768.922 -4503.836,765.259 -4310.005,761.877 -4114.826,758.496 -3919.524,754.973 -3724.958,751.591 -3530.392,749.619 -3349.066,747.787 -3167.864,750.605 -2985.803,753.564 -2804.477,767.513 -2609.911,781.321 -2415.222,784.844 -2230.341,788.084 -2045.828,778.926 -1856.166,767.09 -1666.627,761.595 -1475.125,755.959 -1283.624,759.482 -1090.774,763.145 -897.802,765.681 -702.132,768.358 -506.463,769.063 -321.337,769.767 -136.211,770.049 53.574,770.331 243.359,769.063 428.485,767.795 613.488,757.509 795.794,745.533 978.468,740.742 1165.556,735.951 1351.785,756.382 L1395.554,706.926 1395.676,704.672 Q1350.589,700.005 1305.443,695.372 1270.874,691.669 1236.296,689.032 1089.262,678.318 941.688,688.468 754.677,703.378 567.268,712.28Z" test="JuryBoxFront" stroke-width="2.635"/>
      <path id="Layer1_0_1_STROKES" stroke="#F60" stroke-width="5.27" stroke-linejoin="round" stroke-linecap="round" fill="none" d="M1395.737,704.742 Q1350.589,700.005 1305.443,695.372 1270.874,691.669 1236.296,689.102 1089.262,678.318 941.688,688.468 754.677,703.378 567.268,712.351 554.503,712.968 541.767,713.548 355.538,720.593 169.308,720.593 112.878,720.593 56.455,720.593 -79.763,720.636 -216.023,720.734 -236.223,720.751 -256.42,720.734 -431.292,720.54 -606.259,717.634 -662.349,716.71 -718.438,714.887 -774.545,714.388 -830.678,713.901 -872.787,713.554 -914.905,713.196 -957.052,711.849 -999.192,711.153 -1194.617,708.053 -1390.164,705.799 -1542.278,704.08 -1694.273,711.787 -1716.633,712.92 -1738.961,714.253 -1922.983,723.975 -2106.638,735.106 L-2499.081,737.361 Q-2695.976,726.511 -2892.627,712.562 -3070.764,698.331 -3250.006,696.359 -3443.836,694.104 -3637.422,697.204 -3826.471,700.304 -4015.765,704.672 -4193.903,708.899 -4372.163,713.267 -4553.366,717.634 -4734.814,721.016 -4925.948,724.539 -5117.571,721.721 -5303.188,719.044 -5488.559,704.954 -5679.325,691.85 -5869.722,671.278 L-5815.043,744.687 Q-5634.33,767.654 -5452.515,771.74 -5263.833,775.967 -5075.642,774.276 -4886.716,772.585 -4697.912,768.922 -4503.836,765.259 -4310.005,761.877 -4114.826,758.496 -3919.524,754.973 -3724.958,751.591 -3530.392,749.619 -3349.066,747.787 -3167.864,750.605 -2985.803,753.564 -2804.477,767.513 -2609.911,781.321 -2415.222,784.844 -2230.341,788.084 -2045.828,778.926 -1856.166,767.09 -1666.627,761.595 -1475.125,755.959 -1283.624,759.482 -1090.774,763.145 -897.802,765.681 -702.132,768.358 -506.463,769.063 -321.337,769.767 -136.211,770.049 53.574,770.331 243.359,769.063 428.485,767.795 613.488,757.509 795.794,745.533 978.468,740.742 1165.556,735.951 1351.785,756.382 L1395.554,706.926 M1395.737,704.742 Q1397.299,704.931 1398.864,705.094 L1398.864,706.926 1398.864,1022.683 1398.864,1054.245 M1351.785,1054.245 L1351.785,1022.753 M-5826.077,1034.66 L-5826.812,1054.245 M1351.785,1022.753 L1351.785,756.382 M-5874.504,1054.245 L-5874.259,1034.66 -5869.722,671.278 M-5815.043,744.687 L-5826.077,1034.66" test="JuryBoxFront"/>
    </g>
  </g>
</svg>