<?xml version="1.0" encoding="utf-8"?>
<svg id="EdithAnim12" image-rendering="inherit" baseProfile="basic" version="1.1" x="0px" y="0px" width="800" height="600" xmlns="http://www.w3.org/2000/svg" xmlns:xlink="http://www.w3.org/1999/xlink">
  <g id="14_JurorParrotf191r1" overflow="visible">
    <g id="Parrot">
      <path id="Layer2_0_1_STROKES" stroke="#FFF" stroke-width="6.071" stroke-linejoin="round" stroke-linecap="round" fill="none" d="M168.846,1205.557 Q158.329,1209.726 145.251,1206.649 129.436,1202.989 125.237,1185.75 121.038,1168.51 124.367,1156.849 127.769,1145.322 137.512,1140.365 147.388,1135.335 157.367,1137.161 167.479,1138.915 174.362,1147.436 180.895,1155.63 183.2,1165.261 185.203,1174.02 184.87,1180.075 184.743,1186.192 180.741,1192.172 176.944,1198.212 168.846,1205.557Z M150.731,1174.812 Q153.007,1175.819 155.152,1174.997 157.429,1174.103 157.563,1174.031 158.362,1173.595 158.86,1172.288 160.038,1169.055 155.995,1166.071 152.582,1163.61 149.709,1166.901 147.684,1169.213 148.299,1171.297 148.625,1172.847 148.915,1173.381 149.362,1174.52 150.731,1174.812Z M283.456,1134.54 Q277.881,1138.265 265.083,1133.481 252.563,1128.891 246.349,1116.204 240.28,1103.784 241.816,1093.272 243.291,1082.966 252.901,1078.081 262.716,1073.258 273.445,1075.193 285.326,1077.021 290.44,1087.37 297.318,1101.596 297.151,1112.399 296.992,1127.346 283.456,1134.54Z M260.72,1109.592 Q262.524,1110.684 264.329,1109.874 266.474,1109.052 266.607,1108.98 267.141,1108.69 267.711,1107.515 268.695,1104.561 265.003,1101.905 261.868,1099.637 259.661,1102.566 257.963,1104.527 258.507,1106.477 258.82,1107.689 259.111,1108.222 259.352,1109.3 260.72,1109.592Z" test="Parrot"/>
      <path id="Layer2_0_2_STROKES" stroke="#F00" stroke-width="6.071" stroke-linejoin="round" stroke-linecap="round" fill="none" d="M67.284,1155.779 Q58.415,1158.533 56.271,1159.354 54.126,1160.176 50.127,1162.353 44.395,1165.472 37.613,1177.457 M47.201,1078.243 L42.754,1079.281 Q37.642,1080.681 34.309,1082.495 32.31,1083.583 28.743,1090.363 25.43,1096.658 25.089,1098.571 M-99.646,1077.648 Q-62.122,1090.4 -36.036,1119.917 -13.833,1145.155 4.876,1189.054 21.3,1227.804 58.814,1251.966 100.285,1278.639 142.257,1274.801 184.302,1271.097 211.94,1259.338 239.651,1247.711 259.706,1224.874 279.894,1201.965 288.205,1173.424 296.527,1145.223 294.945,1140.728 M199.032,952.756 Q181.296,917.312 183.245,879.621 M129.219,1030.839 Q119.593,1027.439 111.737,1022.211 110.696,1021.569 104.031,1025.196 100.565,1027.082 96.625,1030.955 95.837,1031.729 89.29,1038.748" test="Parrot"/>
      <path id="Layer2_0_3_STROKES" stroke="#0FF" stroke-width="6.071" stroke-linejoin="round" stroke-linecap="round" fill="none" d="M180.558,903.891 L176.632,892.551 Q173.58,892.657 170.502,893.986 168.491,894.735 164.492,896.912 153.428,902.933 150.314,916.896 147.14,931.064 141.008,934.401 138.875,935.562 126.202,940.214 113.661,944.793 111.395,946.026 98.199,953.208 98.797,960.658 99.602,968.168 89.471,973.682 87.205,974.915 77.997,977.681 68.656,980.518 66.523,981.679 65.057,982.477 62.688,990.505 60.452,998.461 54.054,1001.943 51.787,1003.177 42.18,1006.16 32.572,1009.142 30.439,1010.303 28.04,1011.609 23.261,1018.702 20.872,1022.249 18.616,1025.723 18.216,1025.941 8.332,1026.828 -2.486,1028.223 -6.751,1030.545 -12.217,1033.519 -17.903,1039.897 -20.643,1043.116 -22.984,1046.118 -28.316,1049.02 -58.446,1057.471 -83.464,1064.521 -93.897,1069.163 -95.969,1070.118 -97.436,1070.916 M58.562,907.049 Q57.344,901.319 37.766,853.918 18.852,808.057 17.65,798.862 15.688,785.416 1.628,756.092 -13.241,724.962 -27.058,708.465 -42.363,690.186 -92.235,644.586 -143.438,597.81 -160.434,587.536 -168.484,582.587 -191.606,569.945 -210.298,559.729 -226.288,549.08 -247.423,535.01 -259.968,531.644 -272.792,528.083 -287.1,532.588 -296.708,535.571 -311.912,539.699 -321.557,543.566 -317.349,551.297 -305.596,572.892 -334.218,573.956 -354.361,574.724 -360.407,576.633 -370.148,579.688 -370.896,589.426 -371.532,596.511 -371.337,607.981 -372.63,617.669 -381.88,627.024 -387.917,633.074 -396.927,631.758 -399.386,631.368 -395.416,647.868 -390.964,666.525 -388.174,688.16 L-386.264,705.954 Q-382.338,717.295 -374.333,744.385 -367.257,768.179 -350.469,793.945 -330.101,825.019 -304.598,843.623 -303.206,844.593 -241.485,887.2 -202.098,914.488 -185.676,929.74 -173.392,941.198 -153.796,955.932 -140.131,966.119 -134.627,974.009 M-259.416,971.084 Q-257.308,971.146 -254.909,969.84 -254.509,969.623 -237.887,951.591 -232.182,951.596 -225.326,951.494 -227.15,945.92 -225.655,940.096 -224.33,935.228 -222.331,934.14 -217.932,931.746 -212.592,932.986 -208.281,933.922 -208.304,933.244 -207.344,929.611 -204.882,926.198 -201.96,922.361 -199.003,921.443 M-110.816,1066.967 Q-220.439,1037.3 -257.442,971.219 L-259.175,972.162 M183.245,879.621 Q177.842,841.439 169.725,803.351 161.681,765.396 151.748,727.779 145.484,703.888 140.564,679.611 132.763,640.833 116.506,604.929 112.613,596.508 107.8,588.933 87.155,555.764 73.902,518.398 69.396,505.991 68.802,492.836 68.399,483.207 67.936,473.783 76.011,477.509 81.842,485.048 127.777,544.367 158.322,612.235 163.181,623.068 166.974,634.481 173.133,653.418 179.693,672.137 185.661,689.451 187.994,707.706 192.912,745.633 196.741,783.463 201.517,832.873 183.245,879.621Z M130.251,699.392 Q119.764,696.633 110.762,699.459 108.073,700.232 99.275,705.02 94.343,707.704 94.398,713.203 94.526,718.836 86.662,723.116 81.463,725.946 69.419,731.118 58.792,736.038 53.736,741.036 41.189,753.221 28.234,761.482 24.78,763.707 13.316,769.947" test="Parrot"/>
      <path id="Layer2_0_4_STROKES" stroke="#0F0" stroke-width="6.071" stroke-linejoin="round" stroke-linecap="round" fill="none" d="M-307.769,906.688 Q-308.088,911.181 -304.896,917.046 -302.647,921.179 -282.985,943.652 -262.839,966.381 -258.385,969.486" test="Parrot"/>
      <path id="Layer2_0_5_STROKES" stroke="#FF0" stroke-width="6.071" stroke-linejoin="round" stroke-linecap="round" fill="none" d="M-347.75,813.545 L-363.346,822.033 Q-360.515,825.331 -357.8,836.985 -354.978,849.79 -353.454,852.589 -344.313,869.385 -327.567,888.09 -313.435,903.897 -307.769,906.688 M254.749,1057.032 Q274.979,1027.534 263.837,1000.077 258.713,987.488 252.911,974.922 207.609,990.421 197.659,1010.869 202.205,1032.239 218.088,1041.737 234.176,1051.296 240.279,1052.986 246.454,1054.808 254.749,1057.032Z M235.428,979.945 Q225.803,949.244 195.728,963.194 190.614,966.496 187.376,971.023 180.92,984.558 197.603,1005.37 M67.113,537.989 Q56.372,535.714 51.347,533.783 50.257,533.686 41.593,538.401 34.661,542.174 16.449,563.317 1.693,580.333 -3.047,584.641 -3.568,585.27 -3.968,585.488 -5.48,583.027 -17.973,588.963 -20.578,590.208 -33.508,597.246 -38.573,600.002 -47.726,608.267 -56.805,616.664 -60.938,618.913 -67.336,622.395 -67.797,622.819 -70.549,625.699 -68.35,632.278 -91.757,638.797 -85.833,637.301 M-3.047,584.641 Q-2.525,584.011 -3.566,583.368 -5.782,582.155 -3.968,585.488 M-33.557,439.691 Q-27.452,425.828 -28.68,417.857 -29.27,414.55 -35.219,403.62 -43.055,389.223 -53.992,389.128 -62.277,389.145 -89.055,400.264 -86.733,404.529 -83.974,407.693 -90.395,408.595 -99.299,410.331 L-107.963,415.047 Q-102.031,417.693 -97.2,419.902 -104.359,421.034 -111.275,421.342 L-123.406,427.944 -118.69,436.609 Q-104.449,439.917 -93.113,453.444 -83.46,467.37 -80.458,469.71 -78.725,468.767 -74.316,468.614 M-119.679,484.318 Q-132.213,455.891 -141.231,450.432 -149.003,445.677 -165.785,453.256 L-160.126,463.654 Q-157.064,465.788 -151.39,472.721 -152.08,472.406 -152.709,471.884 -168.65,460.69 -183.904,465.364 L-176.431,479.094 Q-179.688,477.237 -183.271,475.732 -194.701,471.24 -203.909,474.005 L-205.775,475.021 Q-203.661,481.128 -195.287,489.529 -185.933,498.779 -183.466,503.311 -178.46,512.509 -182.986,521.02 M-224.4,523.343 Q-240.84,488.058 -299.744,438.562 -324.929,417.367 -344.686,405.83 -365.895,393.529 -372.826,397.301 -382.691,402.67 -384.51,405.042 -390.682,413.067 -384.046,428.116 -391.98,428.46 -409.404,435.179 -423.667,442.941 -420.352,460.144 -418.351,470.804 -418.304,472.161 -418.297,478.205 -423.096,480.817 -424.962,481.832 -447.663,485.203 -450.596,486.799 -450.812,498.148 -451.066,510.381 -454.618,513.696 -462.958,521.864 -475.733,531.409 -484.219,539.31 -483.443,551.847 -486.243,553.371 -491.549,555.049 -496.783,556.861 -498.25,557.659 L-467.053,614.978 Q-447.208,634.933 -422.246,663.335 -403.299,684.815 -392.806,693.618" test="Parrot"/>
      <path id="Layer2_0_6_STROKES" stroke="#F0F" stroke-width="6.071" stroke-linejoin="round" stroke-linecap="round" fill="none" d="M67.936,473.783 L52.065,450.974 Q33.508,427.035 19.547,422.02 12.464,419.482 6.594,414.729 3.314,412.194 -1.043,407 -4.335,405.126 -6.819,405.959 -9.836,407.083 -14.299,413.486 -20.253,421.911 -22.771,433.475 -24.462,441.48 -30.861,444.962 -36.992,448.3 -53.761,454.316 -68.144,460.589 -71.64,469.403 -75.076,478.012 -89.408,481.838 -97.55,484.023 -115.25,488.646 -123.622,491.993 -136.453,496.039 -146.364,500.051 -151.64,508.452 -157.111,517.131 -165.254,521.218 -170.465,523.708 -183.756,528.177 -191.195,531.017 -200.317,532.353 -205.623,534.031 -205.34,542.171 M-406.669,701.163 Q-395.522,736.565 -387.078,760.652 -380.579,779.577 -367.119,815.102 M-514.907,258.475 Q-534.125,240.943 -537.866,238.832 -543.337,235.763 -550.802,239.825 -553.602,241.349 -554.256,242.051 -557.046,245.815 -557.417,254.657 -634.623,231.536 -637.822,233.278 -657.817,244.16 -647.558,283.328 -641.438,306.952 -627.726,332.146 -619.093,348.009 -607.429,361.185 -599.794,369.816 -588.454,379.54" test="Parrot"/>
      <path id="Layer2_0_7_STROKES" stroke="#F60" stroke-width="6.071" stroke-linejoin="round" stroke-linecap="round" fill="none" d="M-383.694,387.493 Q-381.2,388.9 -378.573,390.235 -373.113,392.965 -372.047,392.385 L-376.763,383.72 Q-391.123,365.272 -445.959,317.536 -510.888,260.78 -524.218,268.035 -529.95,271.154 -536.919,289.462 -542.883,307.394 -543.149,307.539 -545.415,308.773 -552.757,310.522 -560.232,312.344 -562.364,313.505 -568.896,317.06 -568.185,333.606 -567.65,345.064 -565.597,351.377 -580.66,359.575 -584.05,371.441 -587.368,383.441 -595.232,387.722 -591.968,393.72 -585.646,407.558 -579.191,421.324 -578.465,422.657 -571.863,434.787 -549.476,457.506 -524.137,483.11 -520.073,488.673 -513.661,497.278 -505.416,513.698 -497.002,531.062 -493.665,537.194 L-491.932,536.251" test="Parrot"/>
    </g>
    <g id="JuryBoxFront">
      <path fill="#000" stroke="none" d="M-5970.033,754.654 L-6026.073,678.927 -6030.722,1053.784 Q-6010.171,1053.787 -5981.342,1053.784 L-5970.033,754.654 M1423.338,715.7 L1419.946,715.7 1375.089,766.718 1375.089,1041.43 Q1401.435,1041.479 1423.338,1041.43 L1423.338,715.7 M992.485,750.584 Q805.266,755.526 618.425,767.881 428.819,778.491 239.087,779.8 44.581,781.108 -149.925,780.817 -339.657,780.526 -529.388,779.8 -729.926,779.073 -930.463,776.311 -1128.236,773.695 -1325.884,769.916 -1522.149,766.282 -1718.414,772.096 -1912.669,777.765 -2107.05,789.974 -2296.153,799.422 -2485.633,796.079 -2685.165,792.445 -2884.572,778.201 -3070.408,763.811 -3256.998,760.759 -3442.709,757.852 -3628.545,759.741 -3827.952,761.776 -4027.359,765.265 -4227.519,768.898 -4427.554,772.387 -4626.206,775.875 -4825.11,779.654 -5018.611,783.433 -5212.238,785.177 -5405.111,786.922 -5598.486,782.561 -5784.825,778.346 -5970.033,754.654 L-5981.342,1053.784 Q-5463.769,1053.523 -2275.169,1047.68 760.216,1041.996 1375.089,1041.43 L1375.089,766.718 Q1184.227,745.642 992.485,750.584 M571.055,721.223 Q557.972,721.933 544.919,722.532 354.057,729.799 163.195,729.799 105.36,729.799 47.471,729.799 -92.073,729.843 -231.723,729.944 -252.425,729.962 -273.188,729.944 -452.347,729.744 -631.667,726.747 -689.152,725.793 -746.637,723.84 -804.14,723.398 -861.732,722.822 -904.825,722.537 -948.054,722.096 -991.187,720.779 -1034.376,720.061 -1234.662,716.863 -1435.073,714.537 -1590.972,712.764 -1746.811,720.642 -1769.664,721.883 -1792.548,723.258 -1981.148,733.287 -2169.372,744.77 L-2571.578,747.096 Q-2773.372,735.904 -2974.914,721.514 -3157.484,706.834 -3341.184,704.799 -3539.837,702.473 -3738.238,705.671 -3931.99,708.869 -4125.994,713.375 -4308.563,717.735 -4491.258,722.241 -4676.969,726.747 -4862.931,730.235 -5058.819,733.869 -5255.21,730.962 -5445.444,728.2 -5635.427,713.665 -5830.939,700.148 -6026.073,678.927 L-5970.033,754.654 Q-5784.825,778.346 -5598.486,782.561 -5405.111,786.922 -5212.238,785.177 -5018.611,783.433 -4825.11,779.654 -4626.206,775.875 -4427.554,772.387 -4227.519,768.898 -4027.359,765.265 -3827.952,761.776 -3628.545,759.741 -3442.709,757.852 -3256.998,760.759 -3070.408,763.811 -2884.572,778.201 -2685.165,792.445 -2485.633,796.079 -2296.153,799.422 -2107.05,789.974 -1912.669,777.765 -1718.414,772.096 -1522.149,766.282 -1325.884,769.916 -1128.236,773.695 -930.463,776.311 -729.926,779.073 -529.388,779.8 -339.657,780.526 -149.925,780.817 44.581,781.108 239.087,779.8 428.819,778.491 618.425,767.881 805.266,755.526 992.485,750.584 1184.227,745.642 1375.089,766.718 L1419.946,715.7 1420.072,713.375 Q1373.863,708.561 1327.593,703.781 1292.165,699.962 1256.727,697.241 1106.035,686.188 954.79,696.659 763.126,712.04 571.055,721.223Z" test="JuryBoxFront" stroke-width="2.71"/>
      <path id="Layer1_0_1_STROKES" stroke="#F60" stroke-width="5.42" stroke-linejoin="round" stroke-linecap="round" fill="none" d="M1420.134,713.447 Q1373.863,708.561 1327.593,703.781 1292.165,699.962 1256.727,697.313 1106.035,686.188 954.79,696.659 763.126,712.04 571.055,721.296 557.972,721.933 544.919,722.532 354.057,729.799 163.195,729.799 105.36,729.799 47.534,729.799 -92.073,729.843 -231.723,729.944 -252.425,729.962 -273.125,729.944 -452.347,729.744 -631.667,726.747 -689.152,725.793 -746.637,723.912 -804.14,723.398 -861.67,722.895 -904.825,722.537 -947.991,722.168 -991.187,720.779 -1034.376,720.061 -1234.662,716.863 -1435.073,714.537 -1590.972,712.764 -1746.748,720.715 -1769.664,721.883 -1792.548,723.258 -1981.148,733.287 -2169.372,744.77 L-2571.578,747.096 Q-2773.372,735.904 -2974.914,721.514 -3157.484,706.834 -3341.184,704.799 -3539.837,702.473 -3738.238,705.671 -3931.99,708.869 -4125.994,713.375 -4308.563,717.735 -4491.258,722.241 -4676.969,726.747 -4862.931,730.235 -5058.819,733.869 -5255.21,730.962 -5445.444,728.2 -5635.427,713.665 -5830.939,700.148 -6026.073,678.927 L-5970.033,754.654 Q-5784.825,778.346 -5598.486,782.561 -5405.111,786.922 -5212.238,785.177 -5018.611,783.433 -4825.11,779.654 -4626.206,775.875 -4427.554,772.387 -4227.519,768.898 -4027.359,765.265 -3827.952,761.776 -3628.545,759.741 -3442.709,757.852 -3256.998,760.759 -3070.408,763.811 -2884.572,778.201 -2685.165,792.445 -2485.633,796.079 -2296.153,799.422 -2107.05,789.974 -1912.669,777.765 -1718.414,772.096 -1522.149,766.282 -1325.884,769.916 -1128.236,773.695 -930.463,776.311 -729.926,779.073 -529.388,779.8 -339.657,780.526 -149.925,780.817 44.581,781.108 239.087,779.8 428.819,778.491 618.425,767.881 805.266,755.526 992.485,750.584 1184.227,745.642 1375.089,766.718 L1419.946,715.7 M1420.134,713.447 Q1421.735,713.642 1423.338,713.811 L1423.338,715.7 1423.338,1041.43 1423.338,1073.988 M1375.089,1073.988 L1375.089,1041.502 M-5981.342,1053.784 L-5982.096,1073.988 M1375.089,1041.502 L1375.089,766.718 M-6030.973,1073.988 L-6030.722,1053.784 -6026.073,678.927 M-5970.033,754.654 L-5981.342,1053.784" test="JuryBoxFront"/>
    </g>
  </g>
</svg>