<?xml version="1.0" encoding="utf-8"?>
<svg id="EdithAnim12" image-rendering="inherit" baseProfile="basic" version="1.1" x="0px" y="0px" width="800" height="600" xmlns="http://www.w3.org/2000/svg" xmlns:xlink="http://www.w3.org/1999/xlink">
  <g id="14_JurorParrotf192r1" overflow="visible">
    <g id="Parrot">
      <path id="Layer2_0_1_STROKES" stroke="#FFF" stroke-width="6.248" stroke-linejoin="round" stroke-linecap="round" fill="none" d="M-80.036,1304.091 Q-91.674,1303.7 -102.748,1295.421 -116.166,1285.465 -113.04,1267.473 -109.915,1249.481 -101.979,1239.847 -94.03,1230.369 -82.799,1229.697 -71.413,1229.012 -62.749,1234.838 -53.929,1240.649 -50.937,1251.519 -48.141,1261.936 -49.926,1271.971 -51.638,1281.059 -54.442,1286.636 -57.076,1292.355 -63.311,1296.351 -69.376,1300.49 -80.036,1304.091Z M-84.489,1267.634 Q-82.755,1269.52 -80.394,1269.626 -77.877,1269.719 -77.722,1269.706 -76.788,1269.624 -75.781,1268.595 -73.34,1266.029 -75.928,1261.552 -78.137,1257.825 -82.201,1259.75 -85.062,1261.099 -85.338,1263.318 -85.668,1264.915 -85.614,1265.537 -85.66,1266.796 -84.489,1267.634Z M57.298,1284.203 Q50.507,1285.426 40.398,1275.651 30.472,1266.173 29.825,1251.647 29.206,1237.433 34.976,1228.146 40.605,1219.029 51.68,1218.371 62.924,1217.855 72.252,1224.092 82.71,1230.701 83.281,1242.568 83.922,1258.818 79.323,1268.943 73.028,1282.98 57.298,1284.203Z M46.103,1251.317 Q47.356,1253.088 49.393,1253.067 51.754,1253.173 51.91,1253.159 52.532,1253.105 53.553,1252.231 55.696,1249.848 53.304,1245.824 51.279,1242.396 47.992,1244.252 45.585,1245.404 45.295,1247.468 45.093,1248.74 45.148,1249.362 44.932,1250.479 46.103,1251.317Z" test="Parrot"/>
      <path id="Layer2_0_2_STROKES" stroke="#F00" stroke-width="6.248" stroke-linejoin="round" stroke-linecap="round" fill="none" d="M-155.399,1215.369 Q-164.899,1214.321 -167.26,1214.214 -169.621,1214.108 -174.289,1214.517 -180.98,1215.104 -192.306,1223.624 M-142.471,1133.955 L-147.093,1133.106 Q-152.492,1132.325 -156.382,1132.666 -158.716,1132.871 -164.869,1137.801 -170.583,1142.379 -171.691,1144.044 M-280.781,1073.02 Q-250.619,1100.479 -238.141,1139.054 -227.568,1171.995 -227.963,1221.107 -228.397,1264.422 -202.936,1302.642 -174.772,1344.858 -133.592,1358.494 -92.399,1372.284 -61.487,1372.552 -30.561,1372.975 -2.25,1359.672 26.217,1346.356 45.792,1322.844 65.24,1299.657 65.594,1294.765 M52.378,1077.976 Q50.216,1037.241 67.55,1002.479 M-45.595,1122.947 Q-53.28,1115.782 -58.543,1107.619 -59.261,1106.585 -67.041,1107.267 -71.086,1107.622 -76.396,1109.656 -77.458,1110.063 -86.521,1113.994" test="Parrot"/>
      <path id="Layer2_0_3_STROKES" stroke="#0FF" stroke-width="6.248" stroke-linejoin="round" stroke-linecap="round" fill="none" d="M55.037,1024.274 L55.995,1011.96 Q53.071,1010.805 49.621,1010.795 47.415,1010.675 42.747,1011.084 29.832,1012.217 21.154,1024.111 12.334,1036.174 5.176,1036.802 2.687,1037.02 -11.183,1036.199 -24.898,1035.363 -27.543,1035.595 -42.948,1036.947 -45.445,1044.222 -47.774,1051.639 -59.599,1052.676 -62.245,1052.908 -72.069,1051.732 -82.05,1050.569 -84.539,1050.787 -86.251,1050.937 -91.787,1057.538 -97.167,1064.125 -104.636,1064.781 -107.281,1065.013 -117.573,1063.877 -127.864,1062.741 -130.354,1062.96 -133.155,1063.206 -140.58,1067.934 -144.292,1070.298 -147.849,1072.648 -148.316,1072.689 -158.007,1069.462 -168.787,1066.331 -173.766,1066.768 -180.146,1067.328 -188.133,1071.008 -192.042,1072.919 -195.485,1074.789 -201.709,1075.335 -233.612,1070.921 -260.116,1067.287 -271.868,1067.378 -274.216,1067.427 -275.927,1067.577 M-61.369,977.098 Q-60.162,971.191 -59.147,918.418 -58.137,867.37 -55.492,858.201 -51.815,844.707 -53.025,811.259 -54.256,775.774 -60.51,754.527 -67.436,730.988 -95.745,667.46 -124.826,602.274 -136.638,585.593 -142.198,577.613 -158.818,556.179 -172.254,538.855 -182.963,522.234 -197.12,500.269 -207.573,491.935 -218.208,483.304 -233.561,481.671 -243.852,480.536 -259.895,478.18 -270.585,477.863 -269.794,486.888 -267.582,512.095 -295.025,501.332 -314.347,493.776 -320.836,493.091 -331.283,491.969 -335.992,500.849 -339.505,507.272 -344.037,518.175 -349.24,526.785 -361.813,531.808 -369.997,535.035 -377.957,530.088 -380.117,528.71 -383.155,545.91 -386.624,565.344 -392.887,586.904 L-398.401,604.479 Q-399.359,616.793 -402.943,645.645 -406.049,671.005 -400.802,702.218 -394.36,739.911 -377.945,767.949 -377.031,769.437 -336.312,835.012 -310.368,876.953 -301.144,898.096 -294.264,913.956 -281.833,935.915 -273.127,951.144 -271.178,960.852 M-387.717,906.788 Q-385.754,907.713 -382.954,907.468 -382.487,907.427 -359.39,897.247 -354.009,899.597 -347.499,902.319 -346.928,896.311 -343.123,891.43 -339.872,887.381 -337.538,887.177 -332.403,886.726 -327.874,890.092 -324.191,892.748 -323.935,892.098 -321.535,889.066 -317.809,886.857 -313.474,884.438 -310.308,884.788 M-286.928,1058.35 Q-378.165,985.29 -385.91,907.727 L-387.933,907.904 M67.55,1002.479 Q78.15,964.232 86.151,924.958 94.165,885.839 100.258,846.262 104.17,821.145 109.509,796.216 118.091,756.421 117.512,715.861 117.302,706.315 115.874,697.189 110.032,657.405 112.89,616.7 113.739,603.141 118.587,590.486 122.166,581.234 125.603,572.152 131.69,578.988 134.093,588.498 153.046,663.353 153.964,739.946 154.095,752.165 152.981,764.493 151.008,784.893 149.501,805.252 148.013,824.041 142.709,842.225 131.758,880.033 119.818,917.3 104.009,965.883 67.55,1002.479Z M91.645,810.641 Q82.885,803.726 73.23,802.692 70.374,802.315 60.105,803.216 54.348,803.721 52.139,808.932 49.944,814.299 40.764,815.104 34.696,815.637 21.205,815.566 9.155,815.839 2.331,818.476 -14.518,824.815 -30.138,827.283 -34.312,827.962 -47.693,829.136" test="Parrot"/>
      <path id="Layer2_0_4_STROKES" stroke="#0F0" stroke-width="6.248" stroke-linejoin="round" stroke-linecap="round" fill="none" d="M-406.865,826.149 Q-409.013,830.257 -408.412,837.104 -407.989,841.927 -398.678,871.216 -389.014,900.943 -386.088,905.704" test="Parrot"/>
      <path id="Layer2_0_5_STROKES" stroke="#FF0" stroke-width="6.248" stroke-linejoin="round" stroke-linecap="round" fill="none" d="M-406.295,721.829 L-424.5,723.426 Q-423.184,727.701 -425.414,739.813 -428.016,753.055 -427.729,756.323 -426.009,775.929 -417.899,800.461 -411.063,821.186 -406.865,826.149 M62.078,1199.27 Q93.293,1179.754 94.068,1149.268 94.41,1135.283 94.101,1121.041 44.986,1117.039 27.19,1132.242 22.694,1154.274 33.775,1169.766 45.025,1185.4 50.088,1189.503 55.166,1193.761 62.078,1199.27Z M75.541,1118.593 Q79.081,1085.668 44.969,1086.465 38.786,1087.478 33.87,1090.418 22.214,1100.535 29.399,1127.031 M98.431,632.394 Q89.231,625.832 85.284,621.944 84.295,621.404 74.181,622.291 66.09,623.001 40.214,635.463 19.296,645.451 13.053,647.567 12.302,647.946 11.835,647.987 11.42,645.045 -2.808,645.509 -5.778,645.612 -20.871,646.937 -26.784,647.455 -38.817,651.49 -50.836,655.68 -55.66,656.103 -63.129,656.759 -63.737,656.969 -67.518,658.555 -68.149,665.666 -92.914,662.194 -86.709,663.218 M13.053,647.567 Q13.803,647.187 13.085,646.153 11.494,644.097 11.835,647.987 M43.858,498.259 Q55.318,487.689 57.436,479.663 58.238,476.3 57.119,463.541 55.645,446.736 45.364,442.15 37.541,438.76 7.704,438.241 8.14,443.22 9.443,447.34 3.014,445.552 -6.101,443.529 L-16.215,444.416 Q-11.705,449.352 -8.056,453.422 -15.276,451.546 -21.929,448.994 L-36.088,450.236 -35.201,460.35 Q-23.124,469.326 -17.989,486.75 -14.607,503.858 -12.737,507.3 -10.714,507.123 -6.491,508.791 M-55.748,504.958 Q-55.887,472.984 -62.152,464.126 -67.53,456.444 -86.481,456.695 L-85.416,468.832 Q-83.404,472.105 -80.901,480.98 -81.422,480.398 -81.802,479.648 -92.241,462.532 -108.554,460.67 L-107.148,476.697 Q-109.458,473.607 -112.22,470.713 -121.158,461.776 -130.982,460.599 L-133.161,460.79 Q-133.677,467.421 -129.23,478.791 -124.207,491.364 -123.743,496.655 -122.801,507.391 -130.57,513.561 M-170.6,498.727 Q-171.605,458.675 -206.834,387.757 -221.883,357.404 -235.781,338.396 -250.735,318.07 -258.826,318.78 -270.341,319.79 -273.032,321.281 -282.155,326.314 -282.082,343.242 -289.709,340.305 -308.91,339.481 -325.559,340.941 -329.504,358.535 -331,369.416 -332.512,370.715 -334.991,376.421 -340.592,376.912 -342.771,377.103 -365.576,370.95 -368,371.251 -373.869,381.87 -379.138,393.308 -383.852,394.976 -395.08,399.253 -411.057,403.007 -422.312,406.973 -426.735,419.121 -430.002,419.408 -435.699,418.81 -441.383,418.368 -443.094,418.518 L-437.225,485.426 Q-426.704,512.413 -414.829,549.473 -405.782,577.53 -399.501,590.15" test="Parrot"/>
      <path id="Layer2_0_6_STROKES" stroke="#F0F" stroke-width="6.248" stroke-linejoin="round" stroke-linecap="round" fill="none" d="M125.603,572.152 L120.007,544.106 Q112.338,513.89 101.228,503.418 95.588,498.111 92.004,491.213 89.951,487.473 87.565,481.724 85.64,477.659 82.954,477.425 79.646,477.244 72.802,481.451 63.72,486.952 56.59,496.828 51.703,503.686 44.235,504.341 37.077,504.969 18.782,503.751 2.632,503.757 -4.291,510.636 -11.072,517.346 -26.168,515.064 -34.747,513.778 -53.348,510.863 -62.624,510.579 -76.394,509.122 -87.395,508.832 -95.827,514.59 -104.557,520.53 -113.921,521.037 -119.861,521.245 -134.239,519.997 -142.425,519.618 -151.581,517.129 -157.278,516.531 -160.358,524.327 M-415.683,591.57 Q-419.72,629.555 -421.656,655.753 -423.304,676.282 -425.21,715.335 M-335.808,129.38 Q-346.733,104.937 -349.395,101.407 -353.296,96.261 -362.009,97.026 -365.277,97.313 -366.183,97.706 -370.363,100.111 -374.348,108.3 -437.689,54.744 -441.423,55.072 -464.763,57.119 -471.186,98.293 -475.125,123.099 -472.545,152.507 -470.921,171.024 -465.333,188.252 -461.678,199.534 -454.976,213.372" test="Parrot"/>
      <path id="Layer2_0_7_STROKES" stroke="#F60" stroke-width="6.248" stroke-linejoin="round" stroke-linecap="round" fill="none" d="M-265.048,305.057 Q-263.273,307.41 -261.343,309.75 -257.314,314.571 -256.069,314.461 L-256.956,304.347 Q-262.921,281.037 -295.035,213.453 -332.964,133.207 -348.524,134.572 -355.215,135.159 -369.317,149.567 -382.316,164.035 -382.627,164.062 -385.273,164.294 -392.919,162.927 -400.721,161.573 -403.21,161.791 -410.835,162.46 -416.966,178.364 -421.172,189.395 -421.83,196.195 -439.413,197.738 -447.491,207.541 -455.554,217.499 -464.735,218.304 -464.121,225.306 -463.845,240.962 -463.413,256.604 -463.277,258.16 -462.035,272.319 -450.253,302.959 -436.871,337.535 -435.323,344.455 -432.812,355.21 -431.782,374.093 -430.982,393.936 -430.354,401.093 L-428.332,400.916" test="Parrot"/>
    </g>
    <g id="JuryBoxFront">
      <path fill="#000" stroke="none" d="M-6010.736,757.261 L-6067.132,680.934 -6071.811,1058.758 Q-6051.129,1058.76 -6022.116,1058.758 L-6010.736,757.261 M1429.709,717 L1426.295,717 1381.152,769.42 1381.152,1046.305 Q1407.666,1046.355 1429.709,1046.305 L1429.709,717 M996.112,753.159 Q807.701,758.14 619.67,770.592 428.857,781.286 237.918,782.605 42.173,783.924 -153.572,783.631 -344.511,783.338 -535.451,782.605 -737.265,781.873 -939.079,779.089 -1138.111,776.452 -1337.017,772.643 -1534.532,768.981 -1732.047,774.841 -1927.539,780.554 -2123.157,792.86 -2313.464,802.383 -2504.151,799.013 -2704.953,795.351 -2905.629,780.994 -3092.649,766.49 -3280.427,763.414 -3467.32,760.484 -3654.34,762.388 -3855.016,764.439 -4055.692,767.955 -4257.127,771.618 -4458.435,775.134 -4658.353,778.65 -4858.523,782.459 -5053.256,786.268 -5248.116,788.026 -5442.216,789.784 -5636.823,785.389 -5824.348,781.14 -6010.736,757.261 L-6022.116,1058.758 Q-5501.248,1058.494 -2292.347,1052.605 762.364,1046.876 1381.152,1046.305 L1381.152,769.42 Q1189.074,748.178 996.112,753.159 M571.998,723.565 Q558.833,724.28 545.697,724.884 353.619,732.209 161.542,732.209 103.339,732.209 45.081,732.209 -95.351,732.253 -235.891,732.356 -256.724,732.373 -277.619,732.356 -457.919,732.153 -638.381,729.132 -696.232,728.171 -754.083,726.203 -811.951,725.757 -869.911,725.177 -913.278,724.89 -956.782,724.445 -1000.19,723.117 -1043.653,722.394 -1245.214,719.171 -1446.902,716.827 -1603.794,715.039 -1760.625,722.98 -1783.623,724.231 -1806.652,725.617 -1996.454,735.725 -2185.876,747.299 L-2590.642,749.643 Q-2793.721,738.362 -2996.547,723.859 -3180.279,709.062 -3365.149,707.011 -3565.066,704.667 -3764.731,707.89 -3959.717,711.113 -4154.955,715.655 -4338.687,720.05 -4522.546,724.591 -4709.439,729.132 -4896.585,732.649 -5093.72,736.311 -5291.362,733.381 -5482.807,730.598 -5673,715.948 -5870.755,702.323 -6067.132,680.934 L-6010.736,757.261 Q-5824.348,781.14 -5636.823,785.389 -5442.216,789.784 -5248.116,788.026 -5053.256,786.268 -4858.523,782.459 -4658.353,778.65 -4458.435,775.134 -4257.127,771.618 -4055.692,767.955 -3855.016,764.439 -3654.34,762.388 -3467.32,760.484 -3280.427,763.414 -3092.649,766.49 -2905.629,780.994 -2704.953,795.351 -2504.151,799.013 -2313.464,802.383 -2123.157,792.86 -1927.539,780.554 -1732.047,774.841 -1534.532,768.981 -1337.017,772.643 -1138.111,776.452 -939.079,779.089 -737.265,781.873 -535.451,782.605 -344.511,783.338 -153.572,783.631 42.173,783.924 237.918,782.605 428.857,781.286 619.67,770.592 807.701,758.14 996.112,753.159 1189.074,748.178 1381.152,769.42 L1426.295,717 1426.421,715.655 Q1379.918,710.802 1333.354,705.986 1297.7,702.135 1262.036,699.393 1110.385,688.253 958.177,698.807 765.292,714.31 571.998,723.565Z" test="JuryBoxFront" stroke-width="2.729"/>
      <path id="Layer1_0_1_STROKES" stroke="#F60" stroke-width="5.459" stroke-linejoin="round" stroke-linecap="round" fill="none" d="M1426.484,715.728 Q1379.918,710.802 1333.354,705.986 1297.7,702.135 1262.036,699.466 1110.385,688.253 958.177,698.807 765.292,714.31 571.998,723.639 558.833,724.28 545.697,724.884 353.619,732.209 161.542,732.209 103.339,732.209 45.145,732.209 -95.351,732.253 -235.891,732.356 -256.724,732.373 -277.556,732.356 -457.919,732.153 -638.381,729.132 -696.232,728.171 -754.083,726.276 -811.951,725.757 -869.848,725.25 -913.278,724.89 -956.719,724.518 -1000.19,723.117 -1043.653,722.394 -1245.214,719.171 -1446.902,716.827 -1603.794,715.039 -1760.561,723.053 -1783.623,724.231 -1806.652,725.617 -1996.454,735.725 -2185.876,747.299 L-2590.642,749.643 Q-2793.721,738.362 -2996.547,723.859 -3180.279,709.062 -3365.149,707.011 -3565.066,704.667 -3764.731,707.89 -3959.717,711.113 -4154.955,715.655 -4338.687,720.05 -4522.546,724.591 -4709.439,729.132 -4896.585,732.649 -5093.72,736.311 -5291.362,733.381 -5482.807,730.598 -5673,715.948 -5870.755,702.323 -6067.132,680.934 L-6010.736,757.261 Q-5824.348,781.14 -5636.823,785.389 -5442.216,789.784 -5248.116,788.026 -5053.256,786.268 -4858.523,782.459 -4658.353,778.65 -4458.435,775.134 -4257.127,771.618 -4055.692,767.955 -3855.016,764.439 -3654.34,762.388 -3467.32,760.484 -3280.427,763.414 -3092.649,766.49 -2905.629,780.994 -2704.953,795.351 -2504.151,799.013 -2313.464,802.383 -2123.157,792.86 -1927.539,780.554 -1732.047,774.841 -1534.532,768.981 -1337.017,772.643 -1138.111,776.452 -939.079,779.089 -737.265,781.873 -535.451,782.605 -344.511,783.338 -153.572,783.631 42.173,783.924 237.918,782.605 428.857,781.286 619.67,770.592 807.701,758.14 996.112,753.159 1189.074,748.178 1381.152,769.42 L1426.295,717 M1426.484,715.728 Q1428.095,715.924 1429.709,716.094 L1429.709,717 1429.709,1046.305 1429.709,1079.121 M1381.152,1079.121 L1381.152,1046.378 M-6022.116,1058.758 L-6022.875,1079.121 M1381.152,1046.378 L1381.152,769.42 M-6072.064,1079.121 L-6071.811,1058.758 -6067.132,680.934 M-6010.736,757.261 L-6022.116,1058.758" test="JuryBoxFront"/>
    </g>
  </g>
</svg>