<?xml version="1.0" encoding="utf-8"?>
<svg id="EdithAnim12" image-rendering="inherit" baseProfile="basic" version="1.1" x="0px" y="0px" width="800" height="600" xmlns="http://www.w3.org/2000/svg" xmlns:xlink="http://www.w3.org/1999/xlink">
  <g id="14_JurorParrotf195r1" overflow="visible">
    <g id="Parrot">
      <path id="Layer2_0_1_STROKES" stroke="#FFF" stroke-width="6.75" stroke-linejoin="round" stroke-linecap="round" fill="none" d="M-802.438,1008.293 Q-806.201,996.289 -801.72,982.038 -796.367,964.8 -776.907,961.554 -757.447,958.307 -744.788,962.953 -732.284,967.668 -727.584,978.877 -722.814,990.24 -725.655,1001.156 -728.426,1012.226 -738.438,1019.162 -748.059,1025.737 -758.927,1027.505 -768.804,1029.009 -775.492,1028.145 -782.264,1027.504 -788.568,1022.577 -794.955,1017.873 -802.438,1008.293Z M-766.863,990.718 Q-768.166,993.16 -767.43,995.605 -766.625,998.204 -766.556,998.358 -766.138,999.281 -764.729,999.94 -761.24,1001.51 -757.601,997.271 -754.592,993.687 -758.008,990.232 -760.405,987.797 -762.767,988.31 -764.513,988.544 -765.128,988.822 -766.427,989.225 -766.863,990.718Z M-733.059,1141.191 Q-736.735,1134.705 -730.383,1120.904 -724.269,1107.396 -709.692,1101.543 -695.423,1095.829 -683.892,1098.392 -672.584,1100.87 -667.954,1111.925 -663.407,1123.204 -666.431,1134.944 -669.43,1147.969 -681.323,1152.793 -697.661,1159.258 -709.628,1158.188 -726.189,1156.79 -733.059,1141.191Z M-703.536,1118.02 Q-704.894,1119.931 -704.143,1121 -703.408,1124.444 -703.338,1124.598 -703.06,1125.213 -701.804,1125.942 -698.608,1127.274 -695.361,1123.398 -692.59,1120.107 -695.658,1117.42 -697.693,1115.377 -699.9,1115.82 -701.27,1116.069 -701.885,1116.347 -703.1,1116.526 -703.536,1118.02Z" test="Parrot"/>
      <path id="Layer2_0_2_STROKES" stroke="#F00" stroke-width="6.75" stroke-linejoin="round" stroke-linecap="round" fill="none" d="M-738.934,899.74 Q-741.262,889.68 -741.998,887.235 -742.733,884.79 -744.82,880.177 -747.81,873.566 -760.546,865.066 M-651.311,883.81 L-652.098,878.795 Q-653.233,873.011 -654.972,869.168 -656.015,866.861 -663.241,862.351 -669.951,858.163 -672.045,857.629 M-638.642,721.02 Q-655.852,761.587 -690.717,788.101 -720.519,810.658 -770.729,827.814 -815.042,842.859 -844.903,882.482 -877.872,926.288 -877.049,973.145 -876.38,1020.071 -865.6,1051.682 -854.974,1083.361 -831.29,1107.467 -807.536,1131.727 -776.567,1143.277 -745.975,1154.813 -740.861,1153.425 M-524.575,1062.44 Q-483.82,1045.671 -442.183,1050.914 M-605.452,978.638 Q-600.894,968.241 -594.455,959.957 -593.657,958.855 -597.135,951.168 -598.943,947.171 -602.915,942.485 -603.709,941.548 -610.957,933.714" test="Parrot"/>
      <path id="Layer2_0_3_STROKES" stroke="#0FF" stroke-width="6.75" stroke-linejoin="round" stroke-linecap="round" fill="none" d="M-468.877,1045.949 L-455.98,1042.523 Q-455.849,1039.13 -457.071,1035.608 -457.737,1033.316 -459.824,1028.704 -465.597,1015.943 -480.825,1011.348 -496.277,1006.67 -499.476,999.597 -500.589,997.137 -504.71,982.703 -508.762,968.422 -509.945,965.809 -516.83,950.588 -525.14,950.642 -533.534,950.92 -538.82,939.235 -540.002,936.622 -542.315,926.185 -544.698,915.594 -545.811,913.134 -546.576,911.443 -555.285,908.159 -563.924,905.029 -567.262,897.649 -568.445,895.036 -570.967,884.138 -573.489,873.24 -574.602,870.78 -575.853,868.012 -583.328,862.133 -587.066,859.194 -590.734,856.408 -590.943,855.946 -591.118,844.913 -591.78,832.804 -594.006,827.884 -596.858,821.58 -603.465,814.753 -606.811,811.451 -609.948,808.61 -612.73,802.46 -619.637,768.357 -625.409,740.038 -629.703,728.089 -630.593,725.713 -631.358,724.022 M-462.402,910.409 Q-455.949,909.527 -401.785,891.693 -349.382,874.47 -339.088,873.889 -324.017,872.813 -290.349,859.62 -254.614,845.677 -235.19,831.705 -213.668,816.228 -159.024,764.654 -102.967,711.699 -90.184,693.693 -84.037,685.171 -68.127,660.564 -55.271,640.672 -42.154,623.811 -24.824,601.525 -20.065,587.889 -15.068,573.961 -18.893,557.725 -21.415,546.827 -24.749,529.63 -28.249,518.618 -37.166,522.652 -62.074,533.919 -60.913,502.093 -60.118,479.693 -61.74,472.833 -64.331,461.782 -75.068,460.156 -82.872,458.871 -95.608,458.15 -106.246,455.924 -115.862,444.901 -122.078,437.712 -119.881,427.828 -119.248,425.133 -137.87,428.186 -158.923,431.597 -183.142,432.922 L-203.03,433.584 Q-215.927,437.011 -246.622,443.672 -273.586,449.573 -303.531,466.082 -339.655,486.127 -362.37,512.886 -363.56,514.351 -415.854,579.308 -449.335,620.754 -467.592,637.717 -481.301,650.401 -499.243,670.926 -511.656,685.247 -520.856,690.705 M-507.407,552.565 Q-507.649,554.897 -506.397,557.665 -506.188,558.126 -487.552,578.033 -488.025,584.359 -488.471,591.969 -482.142,590.403 -475.805,592.537 -470.516,594.404 -469.472,596.71 -467.177,601.784 -468.989,607.604 -470.381,612.308 -469.626,612.338 -465.677,613.7 -462.093,616.709 -458.077,620.263 -457.301,623.616 M-625.885,709.507 Q-584.022,590.371 -507.718,554.743 L-508.623,552.745 M-442.183,1050.914 Q-399.401,1048.044 -356.501,1042.159 -313.756,1036.343 -271.229,1028.404 -244.224,1023.411 -216.901,1019.941 -173.262,1014.462 -132.119,999.37 -122.462,995.742 -113.669,991.024 -75.199,970.843 -32.679,959.203 -18.553,955.221 -3.917,955.638 6.794,955.979 17.282,956.235 12.49,964.885 3.653,970.735 -65.883,1016.822 -143.64,1045.143 -156.05,1049.645 -169.016,1052.918 -190.519,1058.2 -211.813,1063.943 -231.501,1069.144 -251.935,1070.238 -294.395,1072.591 -336.657,1073.744 -391.839,1074.998 -442.183,1050.914Z M-237.993,1006.887 Q-234.076,995.484 -236.474,985.271 -237.111,982.225 -241.701,972.077 -244.274,966.389 -250.377,966 -256.633,965.682 -260.736,956.611 -263.449,950.614 -268.2,936.835 -272.787,924.649 -277.915,918.634 -290.401,903.724 -298.502,888.682 -300.688,884.67 -306.669,871.448" test="Parrot"/>
      <path id="Layer2_0_4_STROKES" stroke="#0F0" stroke-width="6.75" stroke-linejoin="round" stroke-linecap="round" fill="none" d="M-432.044,504.213 Q-437,503.492 -443.765,506.552 -448.532,508.708 -475.061,528.673 -501.912,549.154 -505.72,553.839" test="Parrot"/>
      <path id="Layer2_0_5_STROKES" stroke="#FF0" stroke-width="6.75" stroke-linejoin="round" stroke-linecap="round" fill="none" d="M-325.488,467.495 L-333.625,449.506 Q-337.513,452.376 -350.659,454.433 -365.089,456.515 -368.318,457.976 -387.69,466.739 -409.801,483.779 -428.486,498.158 -432.044,504.213 M-644.763,1115.696 Q-613.706,1140.542 -582.349,1130.432 -567.97,1125.779 -553.561,1120.373 -567.042,1068.871 -588.904,1056.164 -612.973,1059.458 -624.804,1076.293 -636.72,1093.352 -639.093,1099.981 -641.619,1106.68 -644.763,1115.696Z M-557.701,1100.576 Q-522.869,1092.413 -535.879,1057.922 -539.122,1051.981 -543.877,1048.02 -558.359,1039.754 -582.801,1056.552 M-53.849,950.073 Q-50.448,938.348 -47.896,932.934 -47.699,931.733 -52.22,921.739 -55.836,913.744 -77.792,891.82 -95.455,874.065 -99.844,868.457 -100.499,867.828 -100.708,867.366 -97.856,865.891 -103.416,851.552 -104.584,848.561 -111.33,833.647 -113.973,827.805 -122.389,816.98 -130.959,806.225 -133.115,801.459 -136.453,794.079 -136.885,793.533 -139.854,790.246 -147.329,792.146 -152.644,765.657 -151.469,772.349 M-99.844,868.457 Q-99.189,869.087 -98.391,867.985 -96.864,865.627 -100.708,867.366 M63.386,846.478 Q78.259,854.382 87.199,853.672 90.915,853.287 103.522,847.584 120.127,840.073 121.127,827.952 121.786,818.764 111.646,788.161 106.726,790.386 102.992,793.186 102.517,785.993 101.32,775.978 L96.799,765.984 Q93.38,772.346 90.535,777.522 89.866,769.491 90.089,761.796 L83.76,747.805 73.766,752.325 Q68.934,767.847 53.006,779.311 36.774,788.877 33.934,792.014 34.838,794.012 34.647,798.914 M20.943,747.328 Q53.49,735.753 60.281,726.199 66.189,717.97 59.157,698.74 L47.165,704.165 Q44.547,707.386 36.395,713.111 36.801,712.372 37.431,711.717 51.148,694.955 47.213,677.658 L31.377,684.822 Q33.701,681.362 35.664,677.511 41.579,665.204 39.266,654.767 L38.292,652.615 Q31.348,654.46 21.347,663.059 10.324,672.675 5.097,675.04 -5.512,679.839 -14.579,674.124 M-13.769,628.011 Q26.703,612.666 86.407,551.394 111.97,525.199 126.379,504.235 141.754,481.722 138.137,473.727 132.991,462.349 130.509,460.138 122.115,452.637 104.884,458.765 105.151,449.939 99.126,430.069 91.684,413.617 72.338,415.887 60.353,417.234 58.844,417.175 52.142,416.688 49.638,411.153 48.664,409 46.783,383.551 45.253,380.169 32.686,379.001 19.141,377.719 15.755,373.509 7.38,363.593 -2.16,348.646 -10.228,338.59 -24.193,338.425 -25.654,335.196 -27.081,329.174 -28.662,323.222 -29.427,321.531 L-95.54,351.437 Q-119.291,371.812 -152.827,397.169 -178.196,416.424 -188.816,427.34" test="Parrot"/>
      <path id="Layer2_0_6_STROKES" stroke="#F0F" stroke-width="6.75" stroke-linejoin="round" stroke-linecap="round" fill="none" d="M17.282,956.235 L43.873,940.502 Q71.936,921.881 78.639,906.81 82.033,899.163 87.784,893.042 90.863,889.612 95.87,885.124 99.326,881.709 98.605,878.887 97.606,875.449 90.87,869.976 82.015,862.684 69.397,858.946 60.659,856.417 57.321,849.037 54.121,841.964 48.821,822.877 43.041,806.415 33.553,801.817 24.287,797.303 21.217,781.097 19.46,771.891 15.781,751.885 12.754,742.327 9.317,727.768 5.678,716.449 -3.206,709.911 -12.383,703.135 -16.249,693.771 -18.584,687.789 -22.453,672.685 -24.994,664.204 -25.729,653.979 -27.157,647.957 -36.206,647.606 M-196.049,411.35 Q-236.218,420.815 -263.618,428.209 -285.136,433.868 -325.63,445.889 M303.702,327.526 Q324.715,307.649 327.361,303.673 331.212,297.857 327.318,289.247 325.857,286.018 325.132,285.234 321.186,281.834 311.412,280.699 343.364,196.976 341.695,193.286 331.262,170.223 286.99,178.397 260.293,183.25 231.234,196.395 212.938,204.672 197.372,216.528 187.177,224.289 175.466,236.069" test="Parrot"/>
      <path id="Layer2_0_7_STROKES" stroke="#F60" stroke-width="6.75" stroke-linejoin="round" stroke-linecap="round" fill="none" d="M149.903,462.478 Q148.138,465.128 146.444,467.932 142.969,473.763 143.526,474.993 L153.52,470.473 Q175.151,456.057 232.57,399.153 300.817,331.794 293.862,316.419 290.871,309.808 271.141,300.583 251.743,292.503 251.604,292.196 250.421,289.582 249.082,281.298 247.672,272.86 246.56,270.4 243.152,262.866 224.746,262.302 211.996,261.958 204.828,263.718 196.969,246.345 184.087,241.615 171.051,236.954 166.948,227.883 160.029,231.013 144.167,236.892 128.375,242.924 126.838,243.62 112.846,249.949 85.823,272.915 55.358,298.92 48.857,302.972 38.79,309.378 19.908,317.179 -.036,325.089 -7.108,328.289 L-6.204,330.287" test="Parrot"/>
    </g>
    <g id="JuryBoxFront">
      <path fill="#000" stroke="none" d="M-6101.266,763.123 L-6158.465,685.468 -6163.211,1069.868 Q-6142.234,1069.871 -6112.808,1069.868 L-6101.266,763.123 M1445.092,723.177 L1441.629,723.177 1395.844,775.494 1395.844,1057.199 Q1422.736,1057.249 1445.092,1057.199 L1445.092,723.177 M1005.323,758.949 Q814.231,764.017 623.523,776.686 429.994,787.567 236.336,788.909 37.805,790.25 -160.726,789.952 -354.383,789.654 -548.041,788.909 -752.728,788.163 -957.415,785.331 -1159.28,782.648 -1361.018,778.773 -1561.344,775.047 -1761.671,781.009 -1959.945,786.822 -2158.348,799.342 -2351.364,809.03 -2544.765,805.602 -2748.426,801.876 -2951.959,787.269 -3141.641,772.513 -3332.092,769.383 -3521.645,766.402 -3711.327,768.34 -3914.86,770.426 -4118.393,774.004 -4322.695,777.73 -4526.869,781.307 -4729.632,784.884 -4932.652,788.759 -5130.157,792.635 -5327.79,794.423 -5524.654,796.212 -5722.031,791.74 -5912.225,787.418 -6101.266,763.123 L-6112.808,1069.868 Q-5584.526,1069.599 -2329.946,1063.608 768.248,1057.78 1395.844,1057.199 L1395.844,775.494 Q1201.032,753.882 1005.323,758.949 M575.173,728.841 Q561.819,729.569 548.496,730.183 353.685,737.635 158.873,737.635 99.842,737.635 40.755,737.635 -101.677,737.68 -244.217,737.784 -265.347,737.802 -286.539,737.784 -469.406,737.579 -652.436,734.505 -711.111,733.527 -769.785,731.524 -828.478,731.071 -887.262,730.481 -931.247,730.189 -975.37,729.736 -1019.396,728.385 -1063.478,727.649 -1267.908,724.37 -1472.467,721.985 -1631.592,720.167 -1790.655,728.245 -1813.981,729.518 -1837.338,730.928 -2029.841,741.213 -2221.96,752.987 L-2632.488,755.372 Q-2838.458,743.895 -3044.171,729.139 -3230.518,714.085 -3418.019,711 -3620.783,709.614 -3823.289,712.893 -4021.051,716.172 -4219.069,720.793 -4405.416,725.264 -4591.892,729.885 -4781.445,734.505 -4971.255,738.082 -5171.197,741.809 -5371.652,738.828 -5565.822,735.996 -5759.736,721.091 -5959.293,707.229 -6158.465,685.468 L-6101.266,763.123 Q-5912.225,787.418 -5722.031,791.74 -5524.654,796.212 -5327.79,794.423 -5130.157,792.635 -4932.652,788.759 -4729.632,784.884 -4526.869,781.307 -4322.695,777.73 -4118.393,774.004 -3914.86,770.426 -3711.327,768.34 -3521.645,766.402 -3332.092,769.383 -3141.641,772.513 -2951.959,787.269 -2748.426,801.876 -2544.765,805.602 -2351.364,809.03 -2158.348,799.342 -1959.945,786.822 -1761.671,781.009 -1561.344,775.047 -1361.018,778.773 -1159.28,782.648 -957.415,785.331 -752.728,788.163 -548.041,788.909 -354.383,789.654 -160.726,789.952 37.805,790.25 236.336,788.909 429.994,787.567 623.523,776.686 814.231,764.017 1005.323,758.949 1201.032,753.882 1395.844,775.494 L1441.629,723.177 1441.758,720.793 Q1394.593,715.856 1347.366,710.955 1311.204,707.038 1275.033,704.248 1121.223,692.914 966.848,703.652 771.218,719.424 575.173,728.841Z" test="JuryBoxFront" stroke-width="2.773"/>
      <path id="Layer1_0_1_STROKES" stroke="#F60" stroke-width="5.546" stroke-linejoin="round" stroke-linecap="round" fill="none" d="M1441.822,720.867 Q1394.593,715.856 1347.366,710.955 1311.204,707.038 1275.033,704.323 1121.223,692.914 966.848,703.652 771.218,719.424 575.173,728.916 561.819,729.569 548.496,730.183 353.685,737.635 158.873,737.635 99.842,737.635 40.819,737.635 -101.677,737.68 -244.217,737.784 -265.347,737.802 -286.475,737.784 -469.406,737.579 -652.436,734.505 -711.111,733.527 -769.785,731.599 -828.478,731.071 -887.198,730.555 -931.247,730.189 -975.306,729.81 -1019.396,728.385 -1063.478,727.649 -1267.908,724.37 -1472.467,721.985 -1631.592,720.167 -1790.591,728.32 -1813.981,729.518 -1837.338,730.928 -2029.841,741.213 -2221.96,752.987 L-2632.488,755.372 Q-2838.458,743.895 -3044.171,729.139 -3230.518,714.085 -3418.019,711 -3620.783,709.614 -3823.289,712.893 -4021.051,716.172 -4219.069,720.793 -4405.416,725.264 -4591.892,729.885 -4781.445,734.505 -4971.255,738.082 -5171.197,741.809 -5371.652,738.828 -5565.822,735.996 -5759.736,721.091 -5959.293,707.229 -6158.465,685.468 L-6101.266,763.123 Q-5912.225,787.418 -5722.031,791.74 -5524.654,796.212 -5327.79,794.423 -5130.157,792.635 -4932.652,788.759 -4729.632,784.884 -4526.869,781.307 -4322.695,777.73 -4118.393,774.004 -3914.86,770.426 -3711.327,768.34 -3521.645,766.402 -3332.092,769.383 -3141.641,772.513 -2951.959,787.269 -2748.426,801.876 -2544.765,805.602 -2351.364,809.03 -2158.348,799.342 -1959.945,786.822 -1761.671,781.009 -1561.344,775.047 -1361.018,778.773 -1159.28,782.648 -957.415,785.331 -752.728,788.163 -548.041,788.909 -354.383,789.654 -160.726,789.952 37.805,790.25 236.336,788.909 429.994,787.567 623.523,776.686 814.231,764.017 1005.323,758.949 1201.032,753.882 1395.844,775.494 L1441.629,723.177 M1441.822,720.867 Q1443.456,721.067 1445.092,721.24 L1445.092,723.177 1445.092,1057.199 1445.092,1090.586 M1395.844,1090.586 L1395.844,1057.273 M-6112.808,1069.868 L-6113.578,1090.586 M1395.844,1057.273 L1395.844,775.494 M-6163.467,1090.586 L-6163.211,1069.868 -6158.465,685.468 M-6101.266,763.123 L-6112.808,1069.868" test="JuryBoxFront"/>
    </g>
  </g>
</svg>