<?xml version="1.0" encoding="utf-8"?>
<svg id="EdithAnim12" image-rendering="inherit" baseProfile="basic" version="1.1" x="0px" y="0px" width="800" height="600" xmlns="http://www.w3.org/2000/svg" xmlns:xlink="http://www.w3.org/1999/xlink">
  <g id="14_JurorParrotf196r1" overflow="visible">
    <g id="Parrot">
      <path id="Layer2_0_1_STROKES" stroke="#FFF" stroke-width="6.927" stroke-linejoin="round" stroke-linecap="round" fill="none" d="M-905.755,758.201 Q-904.374,745.366 -894.316,733.797 -882.215,719.774 -862.577,724.698 -842.939,729.621 -832.935,739.181 -823.104,748.743 -823.278,761.214 -823.449,773.859 -830.596,782.964 -837.741,792.241 -850.004,794.663 -861.749,796.904 -872.699,794.111 -882.606,791.478 -888.544,787.923 -894.652,784.544 -898.562,777.325 -902.643,770.281 -905.755,758.201Z M-865.084,756.252 Q-867.311,758.014 -867.621,760.617 -867.929,763.392 -867.926,763.565 -867.912,764.604 -866.856,765.801 -864.218,768.709 -859.057,766.213 -854.757,764.075 -856.554,759.424 -857.811,756.151 -860.243,755.665 -861.981,755.17 -862.674,755.179 -864.062,755.025 -865.084,756.252Z M-894.968,911.665 Q-895.767,904.056 -884.134,893.677 -872.845,883.476 -856.733,883.945 -840.966,884.419 -831.169,891.557 -821.548,898.525 -821.724,910.823 -822.07,923.297 -829.728,933.101 -837.888,944.125 -851.054,943.788 -869.074,943.172 -879.893,937.26 -894.899,929.156 -894.968,911.665Z M-857.695,901.97 Q-859.756,903.21 -859.898,905.464 -860.208,908.066 -860.206,908.239 -860.196,908.932 -859.314,910.132 -856.854,912.695 -852.21,910.38 -848.254,908.42 -850.038,904.634 -851.115,901.878 -853.374,901.39 -854.764,901.063 -855.456,901.073 -856.673,900.743 -857.695,901.97Z" test="Parrot"/>
      <path id="Layer2_0_2_STROKES" stroke="#F00" stroke-width="6.927" stroke-linejoin="round" stroke-linecap="round" fill="none" d="M-801.514,682.114 Q-799.58,671.696 -799.27,669.094 -798.959,666.492 -799.031,661.298 -799.135,653.852 -807.631,640.635 M-712.554,703.049 L-711.238,698.008 Q-709.935,692.102 -709.995,687.773 -710.031,685.176 -714.98,677.971 -719.575,671.28 -721.326,669.919 M-633.901,555.099 Q-666.721,586.207 -710.389,596.857 -747.672,605.86 -801.94,601.417 -849.794,597.404 -894.128,622.437 -943.102,650.133 -961.536,694.55 -980.144,738.97 -982.961,773.126 -985.951,807.284 -973.552,839.671 -961.151,872.231 -936.752,895.792 -912.702,919.185 -907.322,919.976 M-666.555,923.046 Q-621.341,923.978 -584.322,945.979 M-708.286,811.056 Q-699.736,803.144 -690.283,797.991 -689.08,797.281 -689.2,788.624 -689.263,784.122 -691.078,778.086 -691.441,776.878 -695.048,766.537" test="Parrot"/>
      <path id="Layer2_0_3_STROKES" stroke="#0FF" stroke-width="6.927" stroke-linejoin="round" stroke-linecap="round" fill="none" d="M-607.398,930.366 L-593.861,932.43 Q-592.346,929.292 -592.053,925.477 -591.74,923.049 -591.812,917.854 -592.011,903.483 -604.454,892.918 -617.072,882.182 -617.182,874.217 -617.22,871.447 -615.181,856.178 -613.138,841.083 -613.179,838.14 -613.417,820.998 -621.257,817.643 -629.267,814.463 -629.449,801.304 -629.49,798.36 -627.388,787.594 -625.288,776.654 -625.327,773.884 -625.353,771.979 -632.2,765.32 -639.044,758.834 -639.159,750.522 -639.2,747.579 -637.105,736.293 -635.01,725.007 -635.048,722.237 -635.091,719.12 -639.713,710.525 -642.024,706.227 -644.333,702.103 -644.34,701.583 -639.982,691.132 -635.641,679.469 -635.718,673.928 -635.816,666.829 -639.233,657.697 -641.027,653.219 -642.814,649.261 -642.91,642.335 -635.427,607.421 -629.248,578.414 -628.39,565.414 -628.252,562.814 -628.279,560.909 M-545.744,805.512 Q-539.311,807.328 -481.046,812.755 -424.688,818.035 -414.766,821.708 -400.147,826.874 -363.066,828.265 -323.732,829.798 -299.732,824.616 -273.141,818.879 -200.593,792.762 -126.15,765.926 -106.742,754.227 -97.466,748.729 -72.412,732.103 -52.163,718.66 -32.912,708.176 -7.473,694.315 2.594,683.438 13.005,672.383 16.062,655.542 18.157,644.256 22.071,626.71 23.292,614.917 13.25,615.056 -14.8,615.445 -.662,585.981 9.269,565.234 10.556,558.116 12.648,546.657 3.214,540.726 -3.601,536.318 -15.286,530.418 -24.381,523.963 -28.909,509.652 -31.809,500.34 -25.691,491.943 -23.991,489.668 -42.761,484.906 -63.964,479.484 -87.291,470.802 L-106.272,463.272 Q-119.809,461.208 -151.416,454.892 -179.202,449.389 -214.14,452.644 -256.34,456.693 -288.679,472.555 -290.398,473.444 -366.222,513.115 -414.71,538.379 -438.838,546.853 -456.935,553.166 -482.227,565.119 -499.775,573.502 -510.667,574.866 M-441.387,450.426 Q-442.57,452.52 -442.527,455.637 -442.52,456.156 -433.149,482.523 -436.186,488.281 -439.726,495.257 -433.13,496.378 -428.044,500.983 -423.833,504.908 -423.797,507.505 -423.718,513.219 -427.808,517.952 -431.045,521.807 -430.348,522.144 -427.191,525.044 -425.053,529.344 -422.732,534.334 -423.377,537.807 M-617.18,549.498 Q-528.96,454.583 -442.572,452.347 L-442.604,450.096 M-584.322,945.979 Q-542.898,960.818 -500.128,972.868 -457.531,984.92 -414.27,994.884 -386.819,1001.258 -359.693,1009.195 -316.393,1021.93 -271.502,1024.598 -260.93,1025.144 -250.724,1024.31 -206.26,1021.096 -161.489,1027.576 -146.567,1029.62 -132.97,1036.013 -123.034,1040.724 -113.272,1045.265 -121.326,1051.438 -132.038,1053.318 -216.345,1068.168 -301.104,1062.935 -314.625,1062.084 -328.164,1059.847 -350.558,1056.001 -372.945,1052.674 -393.597,1049.497 -413.269,1042.149 -454.178,1026.957 -494.408,1010.716 -546.833,989.275 -584.322,945.979Z M-374.184,988.267 Q-365.824,979.146 -363.893,968.555 -363.243,965.429 -363.402,954.001 -363.49,947.594 -369.072,944.727 -374.827,941.863 -374.968,931.647 -375.062,924.894 -373.883,909.984 -373.202,896.64 -375.561,888.879 -381.195,869.734 -382.65,852.263 -383.061,847.592 -383.267,832.701" test="Parrot"/>
      <path id="Layer2_0_4_STROKES" stroke="#0F0" stroke-width="6.927" stroke-linejoin="round" stroke-linecap="round" fill="none" d="M-350.668,435.833 Q-355.035,433.123 -362.654,433.228 -368.021,433.303 -401.163,441.209 -434.819,449.469 -440.321,452.316" test="Parrot"/>
      <path id="Layer2_0_5_STROKES" stroke="#FF0" stroke-width="6.927" stroke-linejoin="round" stroke-linecap="round" fill="none" d="M-235.374,444.972 L-235.655,424.714 Q-240.489,425.82 -253.699,422.366 -268.128,418.41 -271.764,418.46 -293.581,418.763 -321.367,425.729 -344.838,431.596 -350.668,435.833 M-801.453,923.877 Q-782.422,959.982 -748.778,963.325 -733.344,964.843 -717.573,965.664 -709.142,911.687 -724.499,890.772 -748.492,884.004 -766.524,894.991 -784.727,906.154 -789.676,911.418 -794.799,916.684 -801.453,923.877Z M-713.352,945.343 Q-677.238,951.943 -675.337,914.163 -675.953,907.244 -678.802,901.568 -689.037,887.855 -718.918,893.638 M-177.661,1010.308 Q-169.655,1000.672 -165.036,996.625 -164.357,995.577 -164.513,984.322 -164.638,975.318 -176.306,945.692 -185.643,921.749 -187.473,914.674 -187.831,913.813 -187.839,913.294 -184.551,913.075 -183.904,897.306 -183.776,894.014 -184.009,877.219 -184.1,870.639 -187.58,857.006 -191.232,843.375 -191.307,838.007 -191.422,829.696 -191.605,829.006 -193.05,824.696 -200.861,823.419 -195.002,796.321 -196.64,803.098 M-187.473,914.674 Q-187.115,915.535 -185.912,914.826 -183.51,913.234 -187.839,913.294 M-24.906,960.912 Q-14.154,974.445 -5.453,977.441 -1.8,978.603 12.398,978.406 31.098,978.147 37.007,967.154 41.394,958.781 44.401,925.834 38.86,925.911 34.199,927.015 36.701,920.053 39.681,910.14 L39.525,898.885 Q33.7,903.469 28.902,907.172 31.564,899.342 34.929,892.195 L34.711,876.438 23.456,876.594 Q12.547,889.215 -7.137,893.471 -26.328,895.815 -30.286,897.602 -30.255,899.853 -32.443,904.386 M-24.188,850.238 Q11.175,852.692 21.48,846.488 30.412,841.168 31.68,820.196 L18.174,820.383 Q14.391,822.34 4.375,824.384 5.06,823.855 5.921,823.497 25.697,813.351 29.086,795.466 L11.251,795.714 Q14.856,793.412 18.281,790.594 28.891,781.441 30.993,770.675 L30.96,768.251 Q23.671,767.139 10.737,771.129 -3.574,775.657 -9.461,775.738 -21.409,775.904 -27.596,766.811 M-7.93,723.762 Q36.434,725.918 117.717,692.753 152.504,678.589 174.653,664.774 198.346,649.898 198.221,640.894 198.044,628.081 196.615,624.983 191.794,614.486 173.072,613.187 176.942,604.994 179.419,583.831 179.163,565.304 160.032,559.508 148.205,555.862 146.81,555.188 140.704,551.982 140.618,545.749 140.584,543.325 149.247,518.613 149.195,514.803 137.851,508.553 125.635,501.795 124.175,496.446 120.361,483.684 117.514,465.712 114.047,452.945 100.977,447.064 100.926,443.428 102.052,437.178 103.004,430.93 102.978,429.026 L28.523,430.058 Q-2.172,439.489 -44.116,449.595 -75.875,457.309 -90.34,463.224" test="Parrot"/>
      <path id="Layer2_0_6_STROKES" stroke="#F0F" stroke-width="6.927" stroke-linejoin="round" stroke-linecap="round" fill="none" d="M-113.272,1045.265 L-81.807,1041.365 Q-47.773,1035.352 -35.289,1023.922 -28.962,1018.119 -21.043,1014.719 -16.74,1012.754 -10.189,1010.585 -5.538,1008.789 -5.06,1005.838 -4.591,1002.195 -8.684,994.285 -14.024,983.795 -24.363,975.106 -31.546,969.144 -31.661,960.833 -31.771,952.868 -28.933,932.739 -27.622,914.883 -34.663,906.668 -41.529,898.623 -37.774,882.119 -35.653,872.738 -30.912,852.409 -29.842,842.177 -27.107,827.072 -25.89,814.932 -31.568,805.14 -37.423,795.003 -37.221,784.609 -36.966,778.025 -34.414,762.23 -33.327,753.209 -29.827,743.289 -28.702,737.039 -37.07,732.998 M-90.59,445.217 Q-132.258,437.655 -161.066,433.378 -183.628,429.881 -226.651,424.589 M413.908,571.229 Q441.824,561.144 445.943,558.489 451.951,554.595 451.816,544.899 451.766,541.263 451.405,540.229 449.087,535.412 440.358,530.337 504.738,464.674 504.68,460.519 504.32,434.546 459.321,424.086 432.216,417.708 399.49,418.161 378.885,418.447 359.382,423.22 346.61,426.341 330.764,432.622" test="Parrot"/>
      <path id="Layer2_0_7_STROKES" stroke="#F60" stroke-width="6.927" stroke-linejoin="round" stroke-linecap="round" fill="none" d="M213.901,635.135 Q211.155,636.905 208.411,638.848 202.752,642.909 202.771,644.295 L214.026,644.139 Q240.285,639.445 317.628,609.451 409.444,574.062 409.204,556.747 409.101,549.301 394.321,532.534 379.385,516.981 379.381,516.635 379.34,513.692 381.475,505.349 383.609,496.834 383.57,494.063 383.453,485.579 366.369,477.503 354.516,471.952 347.051,470.67 346.78,451.104 336.6,441.374 326.247,431.646 326.106,421.43 318.314,421.538 300.982,420.566 283.653,419.767 281.921,419.791 266.165,420.009 231.328,430.537 192.008,442.512 184.231,443.659 172.134,445.558 151.173,445.156 129.169,444.422 121.204,444.533 L121.235,446.784" test="Parrot"/>
    </g>
    <g id="JuryBoxFront">
      <path fill="#000" stroke="none" d="M-6119.711,764.341 L-6177.066,686.4 -6181.825,1072.218 Q-6160.791,1072.221 -6131.285,1072.218 L-6119.711,764.341 M1447.242,724.248 L1443.77,724.248 1397.859,776.758 1397.859,1059.502 Q1424.824,1059.553 1447.242,1059.502 L1447.242,724.248 M1006.272,760.152 Q814.658,765.239 623.43,777.955 429.373,788.876 235.187,790.222 36.114,791.568 -162.959,791.269 -357.145,790.97 -551.331,790.222 -756.576,789.474 -961.822,786.632 -1164.238,783.939 -1366.526,780.049 -1567.399,776.309 -1768.273,782.293 -1967.088,788.128 -2166.032,800.694 -2359.575,810.418 -2553.504,806.977 -2757.721,803.237 -2961.809,788.576 -3152.009,773.766 -3342.98,770.624 -3533.05,767.632 -3723.25,769.577 -3927.338,771.672 -4131.426,775.262 -4336.286,779.002 -4541.017,782.592 -4744.334,786.183 -4947.908,790.072 -5145.952,793.962 -5344.124,795.757 -5541.525,797.552 -5739.441,793.064 -5930.154,788.726 -6119.711,764.341 L-6131.285,1072.218 Q-5601.561,1071.949 -2338.099,1065.935 768.55,1060.085 1397.859,1059.502 L1397.859,776.758 Q1202.516,755.066 1006.272,760.152 M574.948,729.933 Q561.558,730.663 548.199,731.28 352.856,738.76 157.512,738.76 98.32,738.76 39.072,738.76 -103.749,738.804 -246.677,738.909 -267.866,738.927 -289.115,738.909 -472.481,738.703 -656.011,735.618 -714.846,734.637 -773.68,732.626 -832.533,732.171 -891.478,731.579 -935.582,731.286 -979.826,730.831 -1023.972,729.475 -1068.174,728.736 -1273.163,725.445 -1478.28,723.052 -1637.839,721.226 -1797.336,729.335 -1820.726,730.612 -1844.147,732.028 -2037.175,742.35 -2229.818,754.168 L-2641.467,756.562 Q-2847.998,745.043 -3054.273,730.232 -3241.128,715.123 -3429.142,713.028 -3632.458,710.635 -3835.518,713.926 -4033.819,717.217 -4232.377,721.855 -4419.233,726.343 -4606.217,730.98 -4796.288,735.618 -4986.616,739.208 -5187.104,742.948 -5388.105,739.956 -5582.806,737.114 -5777.249,722.154 -5977.351,708.241 -6177.066,686.4 L-6119.711,764.341 Q-5930.154,788.726 -5739.441,793.064 -5541.525,797.552 -5344.124,795.757 -5145.952,793.962 -4947.908,790.072 -4744.334,786.183 -4541.017,782.592 -4336.286,779.002 -4131.426,775.262 -3927.338,771.672 -3723.25,769.577 -3533.05,767.632 -3342.98,770.624 -3152.009,773.766 -2961.809,788.576 -2757.721,803.237 -2553.504,806.977 -2359.575,810.418 -2166.032,800.694 -1967.088,788.128 -1768.273,782.293 -1567.399,776.309 -1366.526,780.049 -1164.238,783.939 -961.822,786.632 -756.576,789.474 -551.331,790.222 -357.145,790.97 -162.959,791.269 36.114,791.568 235.187,790.222 429.373,788.876 623.43,777.955 814.658,765.239 1006.272,760.152 1202.516,755.066 1397.859,776.758 L1443.77,724.248 1443.898,721.855 Q1396.604,716.9 1349.249,711.981 1312.989,708.05 1276.718,705.249 1122.488,693.874 967.692,704.651 771.529,720.481 574.948,729.933Z" test="JuryBoxFront" stroke-width="2.782"/>
      <path id="Layer1_0_1_STROKES" stroke="#F60" stroke-width="5.564" stroke-linejoin="round" stroke-linecap="round" fill="none" d="M1443.963,721.93 Q1396.604,716.9 1349.249,711.981 1312.989,708.05 1276.718,705.324 1122.488,693.874 967.692,704.651 771.529,720.481 574.948,730.008 561.558,730.663 548.199,731.28 352.856,738.76 157.512,738.76 98.32,738.76 39.136,738.76 -103.749,738.804 -246.677,738.909 -267.866,738.927 -289.051,738.909 -472.481,738.703 -656.011,735.618 -714.846,734.637 -773.68,732.701 -832.533,732.171 -891.413,731.654 -935.582,731.286 -979.762,730.906 -1023.972,729.475 -1068.174,728.736 -1273.163,725.445 -1478.28,723.052 -1637.839,721.226 -1797.272,729.41 -1820.726,730.612 -1844.147,732.028 -2037.175,742.35 -2229.818,754.168 L-2641.467,756.562 Q-2847.998,745.043 -3054.273,730.232 -3241.128,715.123 -3429.142,713.028 -3632.458,710.635 -3835.518,713.926 -4033.819,717.217 -4232.377,721.855 -4419.233,726.343 -4606.217,730.98 -4796.288,735.618 -4986.616,739.208 -5187.104,742.948 -5388.105,739.956 -5582.806,737.114 -5777.249,722.154 -5977.351,708.241 -6177.066,686.4 L-6119.711,764.341 Q-5930.154,788.726 -5739.441,793.064 -5541.525,797.552 -5344.124,795.757 -5145.952,793.962 -4947.908,790.072 -4744.334,786.183 -4541.017,782.592 -4336.286,779.002 -4131.426,775.262 -3927.338,771.672 -3723.25,769.577 -3533.05,767.632 -3342.98,770.624 -3152.009,773.766 -2961.809,788.576 -2757.721,803.237 -2553.504,806.977 -2359.575,810.418 -2166.032,800.694 -1967.088,788.128 -1768.273,782.293 -1567.399,776.309 -1366.526,780.049 -1164.238,783.939 -961.822,786.632 -756.576,789.474 -551.331,790.222 -357.145,790.97 -162.959,791.269 36.114,791.568 235.187,790.222 429.373,788.876 623.43,777.955 814.658,765.239 1006.272,760.152 1202.516,755.066 1397.859,776.758 L1443.77,724.248 M1443.963,721.93 Q1445.601,722.13 1447.242,722.304 L1447.242,724.248 1447.242,1059.502 1447.242,1093.012 M1397.859,1093.012 L1397.859,1059.577 M-6131.285,1072.218 L-6132.056,1093.012 M1397.859,1059.577 L1397.859,776.758 M-6182.082,1093.012 L-6181.825,1072.218 -6177.066,686.4 M-6119.711,764.341 L-6131.285,1072.218" test="JuryBoxFront"/>
    </g>
  </g>
</svg>