<?xml version="1.0" encoding="utf-8"?>
<svg id="EdithAnim12" image-rendering="inherit" baseProfile="basic" version="1.1" x="0px" y="0px" width="800" height="600" xmlns="http://www.w3.org/2000/svg" xmlns:xlink="http://www.w3.org/1999/xlink">
  <g id="14_JurorParrotf197r1" overflow="visible">
    <g id="Parrot">
      <path id="Layer2_0_1_STROKES" stroke="#FFF" stroke-width="7.088" stroke-linejoin="round" stroke-linecap="round" fill="none" d="M-897.719,493.613 Q-891.218,482.115 -877.078,475.323 -860.023,467.055 -843.569,479.643 -827.115,492.231 -821.592,505.268 -816.233,518.238 -821.453,529.885 -826.741,541.696 -837.147,547.351 -847.622,553.171 -860.124,550.474 -872.068,547.817 -881.223,540.754 -889.464,534.263 -893.601,528.516 -897.97,522.865 -898.716,514.496 -899.694,506.224 -897.719,493.613Z M-858.718,508.272 Q-861.525,509.025 -862.872,511.344 -864.286,513.827 -864.354,513.99 -864.762,514.972 -864.255,516.525 -862.956,520.327 -857.095,520.074 -852.188,519.809 -851.99,514.711 -851.845,511.126 -853.932,509.684 -855.365,508.513 -856.019,508.242 -857.261,507.534 -858.718,508.272Z M-949.809,642.168 Q-947.473,634.696 -932.336,629.661 -917.594,624.654 -902.647,631.628 -888.026,638.466 -881.716,649.145 -875.501,659.591 -880.653,671.075 -886.036,682.654 -897.205,688.76 -909.341,695.809 -921.575,690.154 -938.255,682.268 -946.023,672.328 -956.835,658.629 -949.809,642.168Z M-910.859,648.172 Q-913.298,648.502 -914.345,650.562 -915.692,652.88 -915.76,653.044 -916.032,653.699 -915.689,655.184 -914.417,658.59 -909.115,658.297 -904.604,658.06 -904.745,653.78 -904.64,650.754 -906.564,649.38 -907.737,648.509 -908.392,648.237 -909.401,647.434 -910.859,648.172Z" test="Parrot"/>
      <path id="Layer2_0_2_STROKES" stroke="#F00" stroke-width="7.088" stroke-linejoin="round" stroke-linecap="round" fill="none" d="M-768.934,464.394 Q-762.893,455.39 -761.546,453.071 -760.2,450.752 -758.161,445.843 -755.24,438.806 -757.863,422.943 M-693.843,520.131 L-690.563,515.929 Q-686.943,510.908 -685.245,506.817 -684.225,504.362 -685.954,495.587 -687.559,487.437 -688.651,485.449 M-559.96,413.021 Q-603.408,428.94 -648.753,421.241 -687.431,414.582 -736.615,388.405 -779.947,365.232 -831.75,370.775 -888.99,376.939 -924.319,411.195 -959.811,445.383 -976.307,476.332 -992.966,507.212 -994.449,542.666 -996,578.285 -982.629,610.313 -969.518,642.043 -964.785,644.967 M-739.826,745.473 Q-697.725,764.681 -671.864,800.361 M-733.625,623.336 Q-722.385,619.369 -711.413,618.361 -709.996,618.182 -706.599,609 -704.832,605.744 -704.09,599.337 -703.942,598.056 -703.138,586.878" test="Parrot"/>
      <path id="Layer2_0_3_STROKES" stroke="#0FF" stroke-width="7.088" stroke-linejoin="round" stroke-linecap="round" fill="none" d="M-687.215,776.335 L-675.333,783.763 Q-672.637,781.429 -670.815,777.964 -669.537,775.809 -667.498,770.9 -661.858,757.317 -669.264,742.346 -676.766,727.144 -673.641,719.616 -672.554,716.997 -664.446,703.48 -656.407,690.125 -655.252,687.343 -648.525,671.142 -654.53,664.811 -660.767,658.576 -655.603,646.139 -654.448,643.357 -648.108,634.094 -641.699,624.667 -640.612,622.049 -639.865,620.249 -643.597,611.216 -647.397,602.347 -644.136,594.492 -642.98,591.71 -636.436,581.956 -629.892,572.202 -628.805,569.584 -627.582,566.638 -628.439,556.689 -628.868,551.714 -629.365,546.904 -629.161,546.413 -620.829,538.36 -612.021,529.162 -609.847,523.926 -607.061,517.216 -606.569,507.251 -606.439,502.317 -606.512,497.874 -603.794,491.328 -582.608,461.56 -565.042,436.812 -558.964,424.946 -557.781,422.559 -557.034,420.759 M-578.667,684.032 Q-573.359,688.346 -520.819,717.069 -470.011,744.88 -462.178,752.354 -450.537,763.135 -416.264,779.476 -379.931,796.864 -355.281,801.727 -327.972,807.118 -249.223,811.996 -168.401,816.967 -145.424,813.844 -134.481,812.44 -104.201,806.978 -79.726,802.559 -57.388,800.514 -27.867,797.805 -13,791.668 .264,785.503 9.965,770.92 16.509,761.166 27.3,746.269 33.229,735.684 23.738,731.743 -2.774,720.735 22.456,698.786 40.198,683.321 44.293,677.155 50.905,667.237 44.446,657.84 39.831,650.935 31.244,640.655 25.317,630.902 26.865,615.621 27.916,605.696 37.069,600.287 39.589,598.84 23.885,586.755 6.162,573.065 -12.233,555.45 L-27.013,540.679 Q-38.895,533.251 -66.029,514.502 -89.903,498.066 -124.047,486.958 -165.337,473.652 -202.151,475.442 -204.127,475.581 -291.449,482.109 -347.248,486.185 -373.352,484.364 -392.914,482.957 -421.523,483.932 -441.409,484.693 -452.194,481.558 M-336.65,392.735 Q-338.61,394.223 -339.834,397.169 -340.037,397.66 -341.924,426.232 -347.112,430.409 -353.267,435.528 -347.524,439.256 -344.612,445.645 -342.248,451.039 -343.267,453.494 -345.509,458.895 -351.272,461.682 -355.876,463.992 -355.357,464.591 -353.567,468.596 -353.302,473.502 -353.145,479.132 -355.158,482.133 M-541.98,414.539 Q-420.612,361.134 -338.543,394.059 L-337.659,391.932 M-671.864,800.361 Q-638.963,831.098 -603.666,859.76 -568.532,888.354 -531.928,915.256 -508.721,932.375 -486.453,950.83 -450.937,980.351 -409.842,1001.059 -400.131,1005.859 -390.204,1009.213 -347.127,1024.221 -307.691,1048.462 -294.501,1056.433 -284.318,1067.952 -276.893,1076.407 -269.563,1084.631 -279.633,1087.165 -290.459,1084.589 -375.688,1064.358 -453.198,1025.075 -465.555,1018.793 -477.369,1011.202 -496.849,998.509 -516.533,986.306 -534.648,974.947 -550.151,960.068 -582.425,929.208 -613.637,897.638 -654.198,856.237 -671.864,800.361Z M-491.583,925.293 Q-480.03,920.113 -473.922,910.945 -472.044,908.271 -467.559,897.47 -465.045,891.415 -469.127,886.459 -473.372,881.435 -469.363,871.779 -466.713,865.397 -459.56,851.867 -453.51,839.605 -452.579,831.358 -450.11,811.086 -444.393,794.082 -442.885,789.527 -437.042,775.453" test="Parrot"/>
      <path id="Layer2_0_4_STROKES" stroke="#0F0" stroke-width="7.088" stroke-linejoin="round" stroke-linecap="round" fill="none" d="M-245.501,415.808 Q-248.505,411.49 -255.706,408.501 -260.779,406.394 -295.122,400.385 -330.091,394.499 -336.415,394.943" test="Parrot"/>
      <path id="Layer2_0_5_STROKES" stroke="#FF0" stroke-width="7.088" stroke-linejoin="round" stroke-linecap="round" fill="none" d="M-140.887,471.141 L-132.937,451.994 Q-137.927,451.073 -148.937,442.472 -160.889,432.905 -164.326,431.478 -184.946,422.916 -213.875,418.195 -238.306,414.19 -245.501,415.808 M-866.901,691.558 Q-863.66,733.195 -833.407,749.978 -819.522,757.662 -805.037,764.827 -775.231,717.533 -781.179,691.656 -800.977,675.57 -822.373,678.581 -844.001,681.688 -850.785,684.627 -857.733,687.498 -866.901,691.558Z M-792.832,747.447 Q-761.579,768.29 -744.475,733.566 -742.248,726.816 -742.624,720.328 -746.679,703.295 -777.097,696.613 M-315.884,1025.682 Q-304.455,1019.875 -298.474,1017.946 -297.412,1017.236 -292.995,1006.598 -289.461,998.089 -288.411,965.524 -287.476,939.243 -286.327,931.854 -286.314,930.9 -286.11,930.409 -282.933,931.536 -275.931,916.984 -274.477,913.943 -267.886,898.069 -265.303,891.85 -263.045,877.63 -260.95,863.343 -258.843,858.27 -255.582,850.415 -255.473,849.692 -255.084,845.057 -261.905,840.69 -245.413,817.607 -249.699,823.31 M-286.327,931.854 Q-286.339,932.808 -284.922,932.629 -282.019,932.108 -286.11,930.409 M-152.34,1041.209 Q-147.725,1058.283 -140.766,1064.626 -137.805,1067.198 -124.386,1072.77 -106.711,1080.109 -96.703,1072.177 -89.186,1066.089 -73.003,1036.354 -78.24,1034.18 -83.066,1033.327 -77.893,1027.8 -71.074,1019.695 L-66.657,1009.058 Q-73.988,1011.003 -79.997,1012.537 -74.321,1006.26 -68.262,1000.909 L-62.079,986.017 -72.716,981.6 Q-88.082,989.034 -108.301,985.052 -127.282,979.473 -131.725,979.547 -132.608,981.674 -136.503,985.046 M-106.792,937.52 Q-74.563,954.164 -62.366,952.513 -51.817,951.137 -42.123,931.947 L-54.887,926.647 Q-59.235,926.952 -69.474,924.811 -68.616,924.592 -67.662,924.605 -44.969,923.091 -34.533,907.662 L-51.389,900.663 Q-47.069,899.963 -42.709,898.703 -29.029,894.406 -22.689,885.143 L-21.738,882.852 Q-28.135,878.853 -41.904,877.357 -57.186,875.808 -62.75,873.498 -74.042,868.809 -76.168,857.758 M-40.237,825.286 Q0.57,845.3 90.383,847.097 128.809,847.895 155.22,843.895 183.511,839.526 187.045,831.016 192.073,818.906 191.987,815.417 191.713,803.599 174.651,794.788 181.608,788.659 192.517,769.781 199.787,752.271 184.164,739.068 174.531,730.847 173.493,729.649 169.057,724.162 171.503,718.27 172.454,715.979 190.613,696.274 192.108,692.674 183.985,682.202 175.247,670.9 176.044,665.283 177.636,651.746 182.248,633.707 184.167,620.306 174.271,609.482 175.698,606.045 179.29,600.629 182.718,595.146 183.466,593.346 L113.096,564.127 Q80.433,560.542 36.929,553.031 3.963,547.401 -12.026,547.094" test="Parrot"/>
      <path id="Layer2_0_6_STROKES" stroke="#F0F" stroke-width="7.088" stroke-linejoin="round" stroke-linecap="round" fill="none" d="M-269.563,1084.631 L-238.42,1093.725 Q-204.006,1101.874 -187.643,1096.198 -179.346,1093.311 -170.527,1093.328 -165.688,1093.226 -158.654,1093.844 -153.556,1094.043 -151.91,1091.464 -149.992,1088.232 -150.63,1079.141 -151.395,1067.12 -157.584,1054.765 -161.916,1046.251 -158.654,1038.396 -155.529,1030.868 -144.701,1013.107 -136.229,996.863 -139.513,986.29 -142.702,975.948 -132.483,961.964 -126.686,954.011 -113.99,936.834 -108.836,927.654 -100.142,914.572 -94.076,903.66 -95.44,892.158 -96.831,880.26 -92.427,870.577 -89.518,864.494 -80.716,850.689 -76.037,842.655 -68.727,834.754 -65.135,829.338 -71.36,822.149 M-4.959,530.074 Q-41.041,506.075 -66.372,490.376 -86.152,477.943 -124.427,455.527 M417.932,853.016 Q448.248,854.86 453.195,854.036 460.418,852.814 464.223,843.649 465.65,840.213 465.73,839.095 465.505,833.629 459.361,825.322 546.471,789.734 548.101,785.807 558.294,761.259 520.257,733.187 497.378,716.204 466.448,703.362 446.974,695.276 426.715,691.852 413.449,689.606 396.015,689.082" test="Parrot"/>
      <path id="Layer2_0_7_STROKES" stroke="#F60" stroke-width="7.088" stroke-linejoin="round" stroke-linecap="round" fill="none" d="M204.111,831.963 Q200.813,832.512 197.448,833.225 190.484,834.747 189.941,836.056 L200.578,840.473 Q227.151,846.71 311.978,849.89 412.59,853.868 419.385,837.503 422.306,830.466 415.219,808.721 407.492,788.053 407.628,787.725 408.783,784.943 414.172,777.971 419.629,770.836 420.716,768.218 424.046,760.199 411.27,745.684 402.384,735.663 395.891,731.432 403.569,712.94 397.95,699.671 392.168,686.334 396.177,676.678 388.813,673.621 372.924,665.68 356.966,657.903 355.33,657.224 340.438,651.04 303.439,646.806 261.642,642.114 253.87,640.038 241.735,636.918 222.206,628.042 201.83,618.43 194.302,615.305 L193.419,617.432" test="Parrot"/>
    </g>
    <g id="JuryBoxFront">
      <path fill="#000" stroke="none" d="M-6134.099,765.2 L-6191.589,687.05 -6196.358,1073.9 Q-6175.275,1073.903 -6145.7,1073.9 L-6134.099,765.2 M1450.506,725 L1447.025,725 1401.008,777.65 1401.008,1061.15 Q1428.036,1061.201 1450.506,1061.15 L1450.506,725 M1008.508,761 Q816.447,766.1 624.772,778.85 430.262,789.8 235.623,791.15 36.086,792.5 -163.451,792.2 -358.09,791.9 -552.729,791.15 -758.454,790.4 -964.178,787.55 -1167.067,784.85 -1369.826,780.95 -1571.168,777.2 -1772.51,783.2 -1971.789,789.05 -2171.198,801.65 -2365.192,811.4 -2559.573,807.95 -2764.266,804.2 -2968.831,789.5 -3159.474,774.65 -3350.89,771.5 -3541.405,768.5 -3732.048,770.45 -3936.612,772.55 -4141.176,776.15 -4346.514,779.9 -4551.723,783.5 -4755.514,787.1 -4959.562,791 -5158.068,794.9 -5356.703,796.7 -5554.565,798.5 -5752.942,794 -5944.101,789.65 -6134.099,765.2 L-6145.7,1073.9 Q-5614.74,1073.63 -2343.666,1067.6 770.231,1061.735 1401.008,1061.15 L1401.008,777.65 Q1205.209,755.9 1008.508,761 M576.177,730.7 Q562.756,731.432 549.366,732.05 353.567,739.55 157.768,739.55 98.438,739.55 39.051,739.55 -104.103,739.595 -247.365,739.7 -268.603,739.718 -289.902,739.7 -473.695,739.493 -657.654,736.4 -716.626,735.416 -775.597,733.4 -834.587,732.944 -893.67,732.35 -937.877,732.056 -982.224,731.6 -1026.473,730.241 -1070.778,729.5 -1276.245,726.2 -1481.84,723.8 -1641.772,721.97 -1801.641,730.1 -1825.086,731.381 -1848.561,732.8 -2042.04,743.15 -2235.132,755 L-2647.741,757.4 Q-2854.754,745.85 -3061.51,731 -3248.802,715.85 -3437.253,713.75 -3641.044,711.35 -3844.577,714.65 -4043.341,717.95 -4242.363,722.6 -4429.654,727.1 -4617.075,731.75 -4807.589,736.4 -4998.361,740 -5199.316,743.75 -5400.787,740.75 -5595.942,737.9 -5790.838,722.9 -5991.407,708.95 -6191.589,687.05 L-6134.099,765.2 Q-5944.101,789.65 -5752.942,794 -5554.565,798.5 -5356.703,796.7 -5158.068,794.9 -4959.562,791 -4755.514,787.1 -4551.723,783.5 -4346.514,779.9 -4141.176,776.15 -3936.612,772.55 -3732.048,770.45 -3541.405,768.5 -3350.89,771.5 -3159.474,774.65 -2968.831,789.5 -2764.266,804.2 -2559.573,807.95 -2365.192,811.4 -2171.198,801.65 -1971.789,789.05 -1772.51,783.2 -1571.168,777.2 -1369.826,780.95 -1167.067,784.85 -964.178,787.55 -758.454,790.4 -552.729,791.15 -358.09,791.9 -163.451,792.2 36.086,792.5 235.623,791.15 430.262,789.8 624.772,778.85 816.447,766.1 1008.508,761 1205.209,755.9 1401.008,777.65 L1447.025,725 1447.154,722.6 Q1399.75,717.632 1352.284,712.7 1315.939,708.758 1279.584,705.95 1124.995,694.544 969.838,705.35 773.216,721.223 576.177,730.7Z" test="JuryBoxFront" stroke-width="2.789"/>
      <path id="Layer1_0_1_STROKES" stroke="#F60" stroke-width="5.578" stroke-linejoin="round" stroke-linecap="round" fill="none" d="M1447.219,722.675 Q1399.75,717.632 1352.284,712.7 1315.939,708.758 1279.584,706.025 1124.995,694.544 969.838,705.35 773.216,721.223 576.177,730.775 562.756,731.432 549.366,732.05 353.567,739.55 157.768,739.55 98.438,739.55 39.115,739.55 -104.103,739.595 -247.365,739.7 -268.603,739.718 -289.838,739.7 -473.695,739.493 -657.654,736.4 -716.626,735.416 -775.597,733.475 -834.587,732.944 -893.605,732.425 -937.877,732.056 -982.16,731.675 -1026.473,730.241 -1070.778,729.5 -1276.245,726.2 -1481.84,723.8 -1641.772,721.97 -1801.577,730.175 -1825.086,731.381 -1848.561,732.8 -2042.04,743.15 -2235.132,755 L-2647.741,757.4 Q-2854.754,745.85 -3061.51,731 -3248.802,715.85 -3437.253,713.75 -3641.044,711.35 -3844.577,714.65 -4043.341,717.95 -4242.363,722.6 -4429.654,727.1 -4617.075,731.75 -4807.589,736.4 -4998.361,740 -5199.316,743.75 -5400.787,740.75 -5595.942,737.9 -5790.838,722.9 -5991.407,708.95 -6191.589,687.05 L-6134.099,765.2 Q-5944.101,789.65 -5752.942,794 -5554.565,798.5 -5356.703,796.7 -5158.068,794.9 -4959.562,791 -4755.514,787.1 -4551.723,783.5 -4346.514,779.9 -4141.176,776.15 -3936.612,772.55 -3732.048,770.45 -3541.405,768.5 -3350.89,771.5 -3159.474,774.65 -2968.831,789.5 -2764.266,804.2 -2559.573,807.95 -2365.192,811.4 -2171.198,801.65 -1971.789,789.05 -1772.51,783.2 -1571.168,777.2 -1369.826,780.95 -1167.067,784.85 -964.178,787.55 -758.454,790.4 -552.729,791.15 -358.09,791.9 -163.451,792.2 36.086,792.5 235.623,791.15 430.262,789.8 624.772,778.85 816.447,766.1 1008.508,761 1205.209,755.9 1401.008,777.65 L1447.025,725 M1447.219,722.675 Q1448.861,722.876 1450.506,723.05 L1450.506,725 1450.506,1061.15 1450.506,1094.75 M1401.008,1094.75 L1401.008,1061.225 M-6145.7,1073.9 L-6146.474,1094.75 M1401.008,1061.225 L1401.008,777.65 M-6196.616,1094.75 L-6196.358,1073.9 -6191.589,687.05 M-6134.099,765.2 L-6145.7,1073.9" test="JuryBoxFront"/>
    </g>
  </g>
</svg>