<?xml version="1.0" encoding="utf-8"?>
<svg id="EdithAnim12" image-rendering="inherit" baseProfile="basic" version="1.1" x="0px" y="0px" width="800" height="600" xmlns="http://www.w3.org/2000/svg" xmlns:xlink="http://www.w3.org/1999/xlink">
  <g id="14_JurorParrotf198r1" overflow="visible">
    <g id="Parrot">
      <path id="Layer2_0_1_STROKES" stroke="#FFF" stroke-width="7.255" stroke-linejoin="round" stroke-linecap="round" fill="none" d="M-779.234,255.873 Q-768.428,247.748 -752.382,247.166 -732.997,246.393 -722.715,264.939 -712.434,283.485 -712.591,297.977 -712.874,312.338 -722.539,321.127 -732.335,330.041 -744.414,331.086 -756.623,332.257 -767.247,324.608 -777.364,317.225 -783.06,306.851 -788.133,297.387 -789.661,290.302 -791.446,283.212 -788.72,275.056 -786.25,266.895 -779.234,255.873Z M-748.649,285.594 Q-751.59,285.151 -753.803,286.775 -756.146,288.525 -756.277,288.65 -757.062,289.404 -757.223,291.069 -757.56,295.167 -751.959,297.33 -747.247,299.09 -744.974,294.389 -743.369,291.085 -744.737,288.878 -745.602,287.193 -746.105,286.67 -746.979,285.498 -748.649,285.594Z M-888.925,373.906 Q-883.674,367.853 -867.413,369.327 -851.533,370.666 -840.366,383.329 -829.45,395.73 -827.902,408.331 -826.35,420.676 -835.884,429.339 -845.675,437.997 -858.654,439.153 -872.925,440.796 -882.086,430.482 -894.505,416.255 -897.722,403.749 -902.256,386.471 -888.925,373.906Z M-854.844,395.486 Q-857.267,394.797 -859.093,396.301 -861.305,397.925 -861.436,398.05 -861.959,398.553 -862.246,400.087 -862.447,403.803 -857.354,405.699 -853.024,407.323 -851.405,403.25 -850.067,400.455 -851.309,398.378 -852.053,397.081 -852.556,396.558 -853.174,395.391 -854.844,395.486Z" test="Parrot"/>
      <path id="Layer2_0_2_STROKES" stroke="#F00" stroke-width="7.255" stroke-linejoin="round" stroke-linecap="round" fill="none" d="M-646.455,281.192 Q-637.102,275.219 -634.889,273.595 -632.677,271.971 -628.754,268.2 -623.132,262.795 -619.098,246.84 M-598.833,364.226 L-594.036,361.627 Q-588.585,358.399 -585.316,355.256 -583.355,353.371 -581.383,344.43 -579.552,336.129 -579.763,333.815 M-429.381,318.562 Q-476.658,315.707 -516.044,289.918 -549.602,267.835 -585.023,223.139 -616.186,183.658 -667.052,167.648 -723.274,149.994 -770.442,167.665 -817.736,185.205 -845.882,207.484 -874.154,229.632 -890.062,262.285 -906.1,295.064 -906.671,330.585 -907.363,365.719 -904.12,370.4 M-734.235,556.794 Q-702.604,592.051 -692.953,636.111 M-678.41,444.755 Q-666.241,445.636 -655.536,449.182 -654.133,449.594 -647.595,443.309 -644.196,440.041 -640.877,434.334 -640.213,433.193 -634.882,423.035" test="Parrot"/>
      <path id="Layer2_0_3_STROKES" stroke="#0FF" stroke-width="7.255" stroke-linejoin="round" stroke-linecap="round" fill="none" d="M-697.517,607.287 L-689.412,619.12 Q-685.927,618.034 -682.799,615.53 -680.717,614.032 -676.795,610.261 -665.942,599.828 -666.761,582.751 -667.574,565.418 -661.559,559.636 -659.467,557.625 -646.327,548.263 -633.318,539.027 -631.095,536.89 -618.151,524.445 -621.192,516.048 -624.49,507.645 -614.553,498.092 -612.33,495.955 -602.59,489.861 -592.718,483.642 -590.626,481.631 -589.188,480.248 -588.991,470.246 -588.925,460.37 -582.649,454.337 -580.426,452.2 -570.293,445.729 -560.161,439.258 -558.069,437.247 -555.715,434.985 -552.446,425.3 -550.811,420.458 -549.307,415.741 -548.915,415.364 -537.802,411.222 -525.773,406.199 -521.589,402.177 -516.229,397.023 -511.687,387.877 -509.545,383.301 -507.794,379.103 -502.564,374.075 -470.501,354.823 -443.89,338.8 -433.329,330.157 -431.242,328.402 -429.804,327.02 M-557.893,565.141 Q-554.681,571.361 -517.152,619.818 -480.876,666.712 -476.588,676.93 -470.082,691.809 -444.621,721.173 -417.656,752.361 -396.523,767.016 -373.111,783.255 -301.233,820.074 -227.449,857.829 -204.615,864.307 -193.774,867.471 -163.132,874.745 -138.362,880.62 -116.569,887.848 -87.767,897.394 -72.244,897.315 -56.339,897.372 -41.268,887.663 -31.136,881.192 -14.913,871.635 -5.016,864.133 -12.307,856.549 -32.67,835.368 -.015,825.108 22.961,817.864 29.327,813.756 39.591,807.159 37.379,795.699 35.876,787.332 32.031,774.172 30.463,762.597 38.173,748.895 43.222,740.015 54.023,738.688 56.98,738.362 47.196,720.595 36.175,700.496 26.13,676.439 L18.313,656.531 Q10.208,644.698 -7.57,615 -23.237,590.805 -50.72,566.405 -84.006,537.016 -119.274,523.622 -121.185,522.944 -205.776,493.314 -259.79,474.292 -283.533,461.895 -301.308,452.565 -328.546,441.767 -347.513,434.338 -356.347,426.981 M-211.585,390.964 Q-214.034,391.558 -216.388,393.82 -216.78,394.197 -230.248,420.228 -236.825,422.023 -244.695,424.305 -240.834,430.154 -240.719,437.339 -240.709,443.368 -242.67,445.254 -246.985,449.402 -253.532,449.658 -258.797,449.939 -258.556,450.713 -258.516,455.204 -260.276,459.915 -262.434,465.26 -265.552,467.251 M-413.135,327.348 Q-277.412,326.942 -213.903,391.432 L-212.204,389.798 M-692.953,636.111 Q-674.673,678.417 -653.296,719.757 -632.044,760.967 -608.721,801.191 -593.959,826.752 -580.626,853.183 -559.394,895.419 -529.322,931.671 -522.178,940.15 -514.238,947.361 -479.972,979.078 -452.902,1017.966 -443.792,1030.844 -438.956,1045.819 -435.452,1056.792 -431.943,1067.507 -442.427,1065.762 -451.528,1058.912 -523.199,1005.036 -579.828,936.449 -588.849,925.496 -596.823,913.538 -609.9,893.654 -623.369,874.148 -635.713,856.075 -644.164,835.769 -661.805,793.604 -678.159,751.208 -699.259,695.763 -692.953,636.111Z M-574.982,827.126 Q-562.024,826.996 -552.539,820.898 -549.683,819.158 -541.054,810.862 -536.216,806.211 -538.016,799.89 -539.941,793.438 -532.227,786.022 -527.127,781.12 -514.877,771.356 -504.181,762.33 -499.931,754.974 -489.315,736.968 -476.989,723.357 -473.71,719.702 -462.466,708.892" test="Parrot"/>
      <path id="Layer2_0_4_STROKES" stroke="#0F0" stroke-width="7.255" stroke-linejoin="round" stroke-linecap="round" fill="none" d="M-135.525,449.929 Q-136.575,444.649 -142.106,438.896 -146.003,434.843 -175.76,415.144 -206.155,395.304 -212.269,393.132" test="Parrot"/>
      <path id="Layer2_0_5_STROKES" stroke="#FF0" stroke-width="7.255" stroke-linejoin="round" stroke-linecap="round" fill="none" d="M-60.041,544.672 L-44.743,529.965 Q-49.047,527.058 -55.855,514.481 -63.15,500.612 -65.789,497.866 -81.628,481.392 -106.834,465.118 -128.113,451.358 -135.525,449.929 M-831.371,454.185 Q-845.378,494.572 -823.869,522.703 -813.989,535.597 -803.335,548.25 -756.01,516.087 -750.994,489.376 -762.98,466.179 -784.285,460.243 -805.846,454.303 -813.414,454.282 -821.108,454.131 -831.371,454.185Z M-784.769,536.942 Q-763.984,569.292 -733.721,543.72 -728.868,538.3 -726.565,532.059 -723.395,514.42 -749.194,495.697 M-451.261,993.241 Q-438.162,992.473 -431.761,993.112 -430.473,992.881 -421.975,984.71 -415.176,978.174 -400.857,948.054 -389.219,923.783 -385.116,917.322 -384.713,916.432 -384.321,916.055 -381.802,918.413 -369.275,907.628 -366.665,905.371 -353.982,893.178 -349.014,888.401 -341.073,875.987 -333.258,863.442 -329.205,859.545 -322.929,853.511 -322.531,852.878 -320.268,848.689 -324.879,841.8 -299.956,826.898 -306.313,830.492 M-385.116,917.322 Q-385.518,918.212 -384.115,918.624 -381.178,919.324 -384.321,916.055 M-304.196,1074.769 Q-306.858,1092.675 -302.926,1101.475 -301.202,1105.101 -290.894,1115.823 -277.319,1129.943 -264.682,1126.601 -255.138,1123.967 -227.781,1102.699 -231.804,1098.515 -235.982,1095.739 -228.867,1092.672 -219.151,1087.86 L-210.652,1079.69 Q-218.326,1078.513 -224.591,1077.491 -216.696,1073.927 -208.821,1071.388 L-196.923,1059.949 -205.094,1051.451 Q-222.552,1052.133 -239.889,1040.119 -255.411,1027.114 -259.61,1025.363 -261.31,1026.998 -266.343,1028.566 M-219.013,996.147 Q-195.593,1024.957 -183.474,1028.402 -173.016,1031.43 -156.063,1017.397 L-165.868,1007.199 Q-170.072,1005.705 -178.801,999.504 -177.906,999.65 -177.016,1000.052 -155.107,1007.924 -139,997.722 L-151.947,984.255 Q-147.608,985.367 -143.002,985.97 -128.41,987.541 -118.669,981.447 L-116.839,979.687 Q-121.203,973.316 -133.507,966.275 -147.208,958.565 -151.482,954.12 -160.156,945.098 -157.625,933.86 M-110.623,918.109 Q-80.536,953.593 2.983,992.052 38.704,1008.533 65.118,1015.595 93.447,1023.08 100.246,1016.544 109.922,1007.242 111.27,1003.933 115.851,992.735 103.453,977.483 112.489,974.582 130.452,961.339 144.442,947.889 135.191,929.107 129.52,917.451 129.037,915.902 127.122,908.937 131.829,904.412 133.66,902.652 158.763,891.602 161.639,888.837 158.306,875.687 154.737,861.506 157.785,856.564 164.821,844.516 176.533,829.482 183.821,817.696 178.969,803.49 181.715,800.851 187.302,797.241 192.763,793.5 194.201,792.117 L140.15,735.895 Q110.977,719.158 73.24,694.299 44.62,675.52 29.747,668.685" test="Parrot"/>
      <path id="Layer2_0_6_STROKES" stroke="#F0F" stroke-width="7.255" stroke-linejoin="round" stroke-linecap="round" fill="none" d="M-431.943,1067.507 L-406.451,1088.79 Q-377.504,1110.525 -359.829,1111.9 -350.863,1112.589 -342.597,1116.215 -338.016,1118.101 -331.67,1121.562 -326.969,1123.835 -324.369,1122.09 -321.246,1119.843 -318.123,1111.053 -313.918,1099.463 -314.666,1085.338 -315.244,1075.578 -308.968,1069.544 -302.953,1063.762 -285.524,1051.534 -270.925,1039.764 -269.677,1028.5 -268.434,1017.493 -253.122,1008.559 -244.427,1003.471 -225.484,992.556 -216.89,986.055 -203.378,977.342 -193.22,969.589 -189.789,958.24 -186.223,946.509 -178.127,939.228 -172.907,934.713 -158.997,925.366 -151.318,919.745 -141.226,915.326 -135.639,911.716 -138.535,902.423 M43.345,655.613 Q19.322,618.325 1.986,593.226 -11.479,573.463 -38.207,536.764 M307.836,1131.717 Q335.521,1145.86 340.499,1147.112 347.775,1148.923 355.097,1141.884 357.843,1139.244 358.376,1138.229 360.403,1133.009 358.04,1122.701 454.33,1124.982 457.468,1121.965 477.08,1103.11 452.892,1061.201 438.382,1035.901 414.625,1011.19 399.666,995.63 382.063,984.124 370.538,976.585 354.398,968.956" test="Parrot"/>
      <path id="Layer2_0_7_STROKES" stroke="#F60" stroke-width="7.255" stroke-linejoin="round" stroke-linecap="round" fill="none" d="M115.869,1024.42 Q112.55,1023.585 109.101,1022.875 101.945,1021.452 100.899,1022.457 L109.07,1030.956 Q131.445,1047.687 209.72,1085.402 302.475,1130.329 315.55,1117.759 321.173,1112.354 323.427,1089.052 324.641,1066.5 324.903,1066.249 327.125,1064.112 335.035,1059.778 343.076,1055.318 345.168,1053.307 351.575,1047.148 345.532,1028.301 341.3,1015.262 336.941,1008.634 351.715,994.43 351.877,979.681 351.914,964.802 359.628,957.386 353.972,951.502 342.317,937.547 330.531,923.718 329.274,922.41 317.836,910.512 284.861,891.391 247.572,869.877 241.131,864.747 231.024,856.851 216.338,840.528 201.158,823.168 195.376,817.154 L193.676,818.788" test="Parrot"/>
    </g>
    <g id="JuryBoxFront">
      <path fill="#000" stroke="none" d="M-6141.968,765.729 L-6199.525,687.475 -6204.3,1074.841 Q-6183.192,1074.844 -6153.583,1074.841 L-6141.968,765.729 M1451.463,725.476 L1447.978,725.476 1401.907,778.196 1401.907,1062.074 Q1428.967,1062.125 1451.463,1062.074 L1451.463,725.476 M1008.95,761.524 Q816.666,766.631 624.768,779.398 430.032,790.362 235.166,791.714 35.397,793.066 -164.372,792.765 -359.238,792.465 -554.103,791.714 -760.067,790.963 -966.031,788.109 -1169.156,785.406 -1372.151,781.5 -1573.727,777.745 -1775.304,783.753 -1974.815,789.611 -2174.455,802.228 -2368.675,811.991 -2563.283,808.536 -2768.214,804.781 -2973.017,790.062 -3163.882,775.192 -3355.521,772.038 -3546.257,769.034 -3737.122,770.986 -3941.924,773.089 -4146.726,776.694 -4352.303,780.449 -4557.751,784.054 -4761.779,787.659 -4966.065,791.564 -5164.802,795.469 -5363.668,797.271 -5561.76,799.074 -5760.368,794.568 -5951.749,790.212 -6141.968,765.729 L-6153.583,1074.841 Q-5622.005,1074.571 -2347.124,1068.533 770.396,1062.66 1401.907,1062.074 L1401.907,778.196 Q1205.881,756.417 1008.95,761.524 M576.117,731.183 Q562.68,731.916 549.274,732.535 353.247,740.045 157.22,740.045 97.821,740.045 38.365,740.045 -104.955,740.09 -248.384,740.195 -269.646,740.213 -290.97,740.195 -474.978,739.988 -659.15,736.891 -718.19,735.906 -777.231,733.887 -836.289,733.43 -895.441,732.836 -939.7,732.541 -984.098,732.085 -1028.398,730.724 -1072.755,729.982 -1278.461,726.677 -1484.296,724.274 -1644.413,722.442 -1804.469,730.583 -1827.94,731.865 -1851.443,733.286 -2045.147,743.65 -2238.464,755.516 L-2651.553,757.919 Q-2858.807,746.354 -3065.804,731.484 -3253.313,716.314 -3441.984,714.211 -3646.012,711.808 -3849.782,715.112 -4048.777,718.416 -4248.031,723.073 -4435.54,727.579 -4623.179,732.235 -4813.915,736.891 -5004.909,740.496 -5206.098,744.251 -5407.803,741.247 -5603.185,738.393 -5798.308,723.373 -5999.11,709.404 -6199.525,687.475 L-6141.968,765.729 Q-5951.749,790.212 -5760.368,794.568 -5561.76,799.074 -5363.668,797.271 -5164.802,795.469 -4966.065,791.564 -4761.779,787.659 -4557.751,784.054 -4352.303,780.449 -4146.726,776.694 -3941.924,773.089 -3737.122,770.986 -3546.257,769.034 -3355.521,772.038 -3163.882,775.192 -2973.017,790.062 -2768.214,804.781 -2563.283,808.536 -2368.675,811.991 -2174.455,802.228 -1974.815,789.611 -1775.304,783.753 -1573.727,777.745 -1372.151,781.5 -1169.156,785.406 -966.031,788.109 -760.067,790.963 -554.103,791.714 -359.238,792.465 -164.372,792.765 35.397,793.066 235.166,791.714 430.032,790.362 624.768,779.398 816.666,766.631 1008.95,761.524 1205.881,756.417 1401.907,778.196 L1447.978,725.476 1448.107,723.073 Q1400.648,718.098 1353.127,713.159 1316.74,709.212 1280.342,706.4 1125.573,694.979 970.235,705.8 773.385,721.694 576.117,731.183Z" test="JuryBoxFront" stroke-width="2.792"/>
      <path id="Layer1_0_1_STROKES" stroke="#F60" stroke-width="5.585" stroke-linejoin="round" stroke-linecap="round" fill="none" d="M1448.172,723.148 Q1400.648,718.098 1353.127,713.159 1316.74,709.212 1280.342,706.476 1125.573,694.979 970.235,705.8 773.385,721.694 576.117,731.259 562.68,731.916 549.274,732.535 353.247,740.045 157.22,740.045 97.821,740.045 38.43,740.045 -104.955,740.09 -248.384,740.195 -269.646,740.213 -290.906,740.195 -474.978,739.988 -659.15,736.891 -718.19,735.906 -777.231,733.962 -836.289,733.43 -895.376,732.911 -939.7,732.541 -984.033,732.16 -1028.398,730.724 -1072.755,729.982 -1278.461,726.677 -1484.296,724.274 -1644.413,722.442 -1804.404,730.658 -1827.94,731.865 -1851.443,733.286 -2045.147,743.65 -2238.464,755.516 L-2651.553,757.919 Q-2858.807,746.354 -3065.804,731.484 -3253.313,716.314 -3441.984,714.211 -3646.012,711.808 -3849.782,715.112 -4048.777,718.416 -4248.031,723.073 -4435.54,727.579 -4623.179,732.235 -4813.915,736.891 -5004.909,740.496 -5206.098,744.251 -5407.803,741.247 -5603.185,738.393 -5798.308,723.373 -5999.11,709.404 -6199.525,687.475 L-6141.968,765.729 Q-5951.749,790.212 -5760.368,794.568 -5561.76,799.074 -5363.668,797.271 -5164.802,795.469 -4966.065,791.564 -4761.779,787.659 -4557.751,784.054 -4352.303,780.449 -4146.726,776.694 -3941.924,773.089 -3737.122,770.986 -3546.257,769.034 -3355.521,772.038 -3163.882,775.192 -2973.017,790.062 -2768.214,804.781 -2563.283,808.536 -2368.675,811.991 -2174.455,802.228 -1974.815,789.611 -1775.304,783.753 -1573.727,777.745 -1372.151,781.5 -1169.156,785.406 -966.031,788.109 -760.067,790.963 -554.103,791.714 -359.238,792.465 -164.372,792.765 35.397,793.066 235.166,791.714 430.032,790.362 624.768,779.398 816.666,766.631 1008.95,761.524 1205.881,756.417 1401.907,778.196 L1447.978,725.476 M1448.172,723.148 Q1449.816,723.349 1451.463,723.523 L1451.463,725.476 1451.463,1062.074 1451.463,1095.719 M1401.907,1095.719 L1401.907,1062.149 M-6153.583,1074.841 L-6154.357,1095.719 M1401.907,1062.149 L1401.907,778.196 M-6204.558,1095.719 L-6204.3,1074.841 -6199.525,687.475 M-6141.968,765.729 L-6153.583,1074.841" test="JuryBoxFront"/>
    </g>
  </g>
</svg>