<?xml version="1.0" encoding="utf-8"?>
<svg id="EdithAnim12" image-rendering="inherit" baseProfile="basic" version="1.1" x="0px" y="0px" width="800" height="600" xmlns="http://www.w3.org/2000/svg" xmlns:xlink="http://www.w3.org/1999/xlink">
  <g id="14_JurorParrotf199r1" overflow="visible">
    <g id="Parrot">
      <path id="Layer2_0_1_STROKES" stroke="#FFF" stroke-width="7.436" stroke-linejoin="round" stroke-linecap="round" fill="none" d="M-571.813,90.56 Q-558.333,87.344 -543.015,93.361 -524.481,100.565 -522.404,122.2 -520.328,143.835 -526.404,157.391 -532.544,170.772 -545.223,175.078 -558.076,179.449 -569.855,175.49 -581.808,171.596 -588.664,160.061 -595.152,148.985 -596.262,136.905 -597.158,125.935 -595.696,118.651 -594.473,111.258 -588.574,104.708 -582.915,98.048 -571.813,90.56Z M-555.226,131.003 Q-557.81,129.384 -560.553,130.005 -563.471,130.691 -563.646,130.755 -564.691,131.143 -565.524,132.642 -567.517,136.355 -563.137,140.679 -559.429,144.261 -555.37,140.772 -552.511,138.324 -552.893,135.69 -553.017,133.753 -553.275,133.055 -553.618,131.596 -555.226,131.003Z M-723.185,156.619 Q-715.774,153.078 -701.094,161.116 -686.718,168.87 -681.403,185.338 -676.217,201.458 -679.917,213.934 -683.508,226.171 -696.012,230.413 -708.756,234.545 -721.426,230.322 -735.51,226.028 -739.9,212.588 -745.752,194.137 -743.66,181.068 -740.854,162.975 -723.185,156.619Z M-699.983,190.842 Q-701.978,189.203 -704.309,189.869 -707.053,190.49 -707.227,190.555 -707.924,190.813 -708.821,192.137 -710.531,195.547 -706.519,199.413 -703.115,202.711 -699.927,199.545 -697.526,197.465 -697.843,195.005 -698.012,193.482 -698.271,192.784 -698.375,191.435 -699.983,190.842Z" test="Parrot"/>
      <path id="Layer2_0_2_STROKES" stroke="#F00" stroke-width="7.436" stroke-linejoin="round" stroke-linecap="round" fill="none" d="M-457.383,168.67 Q-446.149,166.883 -443.405,166.262 -440.661,165.64 -435.432,163.701 -427.937,160.921 -417.619,147.577 M-446.592,266.187 L-441.02,265.706 Q-434.577,264.903 -430.219,263.287 -427.605,262.317 -422.095,254.721 -416.978,247.668 -416.23,245.408 M-268.659,292.588 Q-311.923,270.565 -338.389,230.217 -360.894,195.736 -375.9,139.24 -389.038,89.388 -430.294,53.534 -475.91,13.944 -527.468,11.257 -579.09,8.395 -614.656,17.82 -650.286,27.07 -678.593,51.251 -707.075,75.496 -722.142,108.646 -737.164,141.382 -736.032,147.108 M-652.617,391.777 Q-637.312,437.852 -646.266,483.208 M-554.321,309.317 Q-543.245,315.123 -534.635,322.835 -533.485,323.796 -524.77,320.564 -520.238,318.883 -514.784,314.877 -513.693,314.076 -504.528,306.711" test="Parrot"/>
      <path id="Layer2_0_3_STROKES" stroke="#0FF" stroke-width="7.436" stroke-linejoin="round" stroke-linecap="round" fill="none" d="M-638.764,454.252 L-635.987,468.688 Q-632.268,469.093 -628.304,468.019 -625.734,467.463 -620.505,465.523 -606.038,460.157 -599.822,443.774 -593.496,427.151 -585.478,424.177 -582.689,423.143 -566.51,419.72 -550.506,416.361 -547.543,415.262 -530.287,408.862 -529.71,399.725 -529.372,390.479 -516.126,385.566 -513.163,384.467 -501.516,382.724 -489.694,380.917 -486.905,379.883 -484.988,379.172 -480.712,369.852 -476.61,360.598 -468.243,357.495 -465.28,356.396 -453.11,354.46 -440.94,352.523 -438.151,351.489 -435.014,350.325 -427.98,342.561 -424.463,338.679 -421.12,334.861 -420.597,334.667 -408.458,335.32 -395.099,335.52 -389.522,333.451 -382.375,330.801 -374.366,324.063 -370.481,320.639 -367.118,317.409 -360.146,314.823 -322.138,309.846 -290.573,305.673 -277.113,301.87 -274.434,301.074 -272.516,300.363 M-490.303,471.757 Q-489.828,478.917 -474.381,539.809 -459.47,598.719 -459.619,610.077 -459.592,626.722 -447.674,664.733 -435.09,705.075 -421.224,727.493 -405.864,752.331 -353.373,816.337 -299.474,882.002 -280.664,897.431 -271.77,904.839 -245.947,924.209 -225.071,939.863 -207.547,955.571 -184.383,976.324 -169.762,982.6 -154.838,989.159 -136.702,986.2 -124.532,984.263 -105.377,981.917 -93.007,978.915 -96.757,968.806 -107.23,940.569 -72.343,944.285 -47.787,946.875 -40.123,945.619 -27.779,943.618 -25.169,931.943 -23.159,923.464 -21.39,909.523 -18.128,898.003 -5.278,888.28 3.1,882 13.794,885.171 16.706,886.074 14.779,865.375 12.643,841.976 13.044,815.258 L13.841,793.351 Q11.064,778.915 6.095,744.671 1.677,714.585 -14.171,680.41 -33.431,639.174 -61.098,612.16 -62.616,610.74 -129.996,548.291 -172.978,508.318 -190.221,486.955 -203.11,470.916 -224.291,449.626 -239.078,434.885 -244.371,424.357 M-93.588,449.725 Q-96.132,449.28 -99.27,450.444 -99.793,450.638 -123.099,469.593 -130.014,468.589 -138.344,467.515 -137.107,474.591 -139.939,481.391 -142.396,487.061 -145.011,488.031 -150.762,490.164 -157.02,487.727 -162.083,485.837 -162.173,486.664 -163.972,490.9 -167.554,494.608 -171.768,498.749 -175.513,499.345 M-256.985,307.49 Q-129.264,362.628 -95.958,449.216 L-93.692,448.375 M-646.266,483.208 Q-646.392,530.445 -643.212,578.042 -640.096,625.465 -634.631,672.809 -631.214,702.87 -629.495,733.164 -626.818,781.543 -613.385,827.915 -610.139,838.806 -605.627,848.831 -586.398,892.656 -576.864,940.276 -573.57,956.107 -575.151,972.159 -576.346,983.904 -577.432,995.41 -586.571,989.481 -592.322,979.321 -637.641,899.37 -662.806,811.745 -666.803,797.762 -669.405,783.261 -673.562,759.225 -678.242,735.383 -682.449,713.348 -682.085,690.808 -681.417,643.964 -679.444,597.43 -676.593,536.69 -646.266,483.208Z M-613.531,710.984 Q-601.3,716.163 -589.892,714.311 -586.496,713.845 -574.992,709.578 -568.543,707.186 -567.649,700.509 -566.819,693.658 -556.535,689.844 -549.738,687.322 -534.231,683.157 -520.486,679.05 -513.483,673.875 -496.14,661.296 -478.988,653.546 -474.411,651.452 -459.422,645.892" test="Parrot"/>
      <path id="Layer2_0_4_STROKES" stroke="#0F0" stroke-width="7.436" stroke-linejoin="round" stroke-linecap="round" fill="none" d="M-46.226,536.254 Q-45.053,530.862 -47.898,523.193 -49.902,517.79 -69.81,487.104 -90.26,456.025 -95.118,451.482" test="Parrot"/>
      <path id="Layer2_0_5_STROKES" stroke="#FF0" stroke-width="7.436" stroke-linejoin="round" stroke-linecap="round" fill="none" d="M-14.04,656.172 L6.353,648.608 Q3.497,644.115 2.244,629.511 1.061,613.492 -.297,609.832 -8.443,587.87 -25.475,562.265 -39.845,540.629 -46.226,536.254 M-701.934,255.61 Q-731.619,287.836 -722.912,323.073 -718.901,339.232 -714.064,355.481 -656.43,344.613 -640.79,321.562 -642.565,294.858 -660.16,280.564 -677.994,266.162 -685.098,263.046 -692.266,259.757 -701.934,255.61Z M-691.99,352.449 Q-685.689,391.354 -646.786,379.701 -640.008,376.592 -635.291,371.669 -625.096,356.388 -641.684,328.238 M-565.208,917.711 Q-552.583,922.348 -546.828,925.567 -545.524,925.876 -534.194,921.674 -525.131,918.312 -499.353,895.863 -478.488,877.813 -471.988,873.419 -471.246,872.747 -470.723,872.553 -469.32,875.8 -453.135,870.789 -449.759,869.735 -432.852,863.464 -426.229,861.007 -413.687,852.588 -401.211,843.994 -395.807,841.99 -387.441,838.887 -386.808,838.454 -382.968,835.444 -384.483,827.083 -354.965,823.272 -362.409,824.051 M-471.988,873.419 Q-472.73,874.091 -471.58,875.052 -469.106,876.911 -470.723,872.553 M-460.344,1054.492 Q-470.17,1070.231 -470.075,1080.11 -469.937,1084.223 -464.636,1098.515 -457.654,1117.34 -444.41,1119.367 -434.363,1120.796 -399.953,1111.998 -402.022,1106.421 -404.813,1102.103 -396.871,1102.131 -385.773,1101.583 L-374.443,1097.381 Q-381.173,1093.136 -386.643,1089.613 -377.766,1089.493 -369.326,1090.328 L-353.465,1084.445 -357.667,1073.115 Q-374.354,1066.615 -385.733,1048.232 -395.001,1029.66 -398.231,1026.298 -400.497,1027.138 -405.869,1026.553 M-348.126,1015.446 Q-337.9,1052.102 -327.921,1060.298 -319.33,1067.422 -297.658,1061.168 L-302.701,1047.572 Q-306.04,1044.449 -311.707,1035.051 -310.926,1035.554 -310.254,1036.296 -292.884,1052.656 -273.573,1049.657 L-280.232,1031.704 Q-276.609,1034.524 -272.527,1036.975 -259.455,1044.42 -247.808,1042.678 L-245.368,1041.773 Q-246.863,1034 -255.546,1022.349 -265.27,1009.499 -267.468,1003.573 -271.929,991.546 -264.954,982.019 M-214.338,986.443 Q-200.576,1032.099 -137.816,1102.408 -110.987,1132.509 -89.051,1149.951 -65.489,1168.574 -56.425,1165.212 -43.527,1160.428 -40.906,1157.87 -32.02,1149.22 -37.433,1129.814 -27.754,1130.784 -5.455,1125.686 13.195,1118.768 12.184,1097.333 11.622,1084.058 11.802,1082.405 12.851,1075.076 19.126,1072.749 21.566,1071.844 49.679,1071.727 53.513,1070.305 55.76,1056.583 58.207,1041.796 63.093,1038.397 74.633,1029.953 91.791,1020.615 103.461,1012.519 104.712,997.184 108.373,995.826 115.1,994.719 121.763,993.437 123.68,992.726 L95.88,917.777 Q75.309,890.114 50.013,851.314 30.796,821.959 19.614,809.451" test="Parrot"/>
      <path id="Layer2_0_6_STROKES" stroke="#F0F" stroke-width="7.436" stroke-linejoin="round" stroke-linecap="round" fill="none" d="M-577.432,995.41 L-562.18,1025.84 Q-543.866,1058.108 -527.817,1066.63 -519.673,1070.946 -513.388,1077.735 -509.854,1081.381 -505.306,1087.229 -501.817,1091.289 -498.66,1090.712 -494.806,1089.878 -488.275,1082.895 -479.582,1073.722 -474.507,1060.141 -471.057,1050.732 -462.691,1047.629 -454.673,1044.655 -433.291,1040.293 -414.756,1035.203 -408.976,1025.128 -403.305,1015.292 -385.259,1013.159 -375.007,1011.934 -352.739,1009.424 -342.003,1006.83 -325.739,1004.168 -313.021,1001.037 -305.155,991.775 -297.005,982.208 -286.417,978.678 -279.665,976.57 -262.769,973.476 -253.253,971.334 -241.96,971.309 -235.233,970.202 -234.153,960.284 M37.741,802.727 Q30.417,757.857 24.391,727.177 19.822,703.096 9.715,657.671 M91.558,1358.371 Q111.792,1382.987 115.958,1386.201 122.055,1390.879 131.816,1387.259 135.476,1385.901 136.393,1385.165 140.433,1381.088 142.429,1370.434 231.991,1411.966 236.174,1410.414 262.319,1400.717 256.73,1351.436 253.442,1321.723 241.223,1288.781 233.53,1268.039 221.693,1250.024 213.945,1238.225 201.897,1224.452" test="Parrot"/>
      <path id="Layer2_0_7_STROKES" stroke="#F60" stroke-width="7.436" stroke-linejoin="round" stroke-linecap="round" fill="none" d="M-44.964,1179.005 Q-47.742,1176.862 -50.693,1174.785 -56.836,1170.52 -58.23,1171.037 L-54.028,1182.367 Q-39.843,1207.244 18.292,1274.708 87.088,1354.874 104.518,1348.409 112.013,1345.629 123.664,1324.652 134.03,1303.953 134.378,1303.824 137.342,1302.725 146.548,1301.888 155.93,1300.986 158.718,1299.951 167.259,1296.784 169.29,1276.599 170.645,1262.613 169.26,1254.601 188.956,1247.296 195.141,1233.501 201.262,1219.532 211.546,1215.718 208.636,1207.874 203.391,1189.992 197.972,1172.174 197.326,1170.431 191.443,1154.57 168.274,1123.111 142.03,1087.637 138.075,1080.182 131.806,1068.627 124.681,1047.278 117.516,1024.754 114.542,1016.737 L112.276,1017.577" test="Parrot"/>
    </g>
    <g id="JuryBoxFront">
      <path fill="#000" stroke="none" d="M-6144.375,765.719 L-6201.953,687.413 -6206.73,1075.037 Q-6185.615,1075.04 -6155.994,1075.037 L-6144.375,765.719 M1451.998,725.439 L1448.513,725.439 1402.424,778.194 1402.424,1062.261 Q1429.494,1062.312 1451.998,1062.261 L1451.998,725.439 M1009.314,761.511 Q816.955,766.621 624.984,779.396 430.172,790.368 235.231,791.721 35.384,793.074 -164.463,792.773 -359.404,792.473 -554.345,791.721 -760.388,790.969 -966.432,788.114 -1169.635,785.408 -1372.71,781.501 -1574.364,777.743 -1776.018,783.755 -1975.607,789.617 -2175.324,802.242 -2369.62,812.012 -2564.303,808.555 -2769.313,804.797 -2974.195,790.068 -3165.134,775.188 -3356.848,772.032 -3547.657,769.026 -3738.596,770.98 -3943.478,773.084 -4148.36,776.691 -4354.016,780.449 -4559.543,784.056 -4763.65,787.663 -4968.016,791.571 -5166.83,795.478 -5365.773,797.282 -5563.941,799.086 -5762.626,794.577 -5954.081,790.218 -6144.375,765.719 L-6155.994,1075.037 Q-5624.21,1074.766 -2348.06,1068.724 770.668,1062.847 1402.424,1062.261 L1402.424,778.194 Q1206.321,756.401 1009.314,761.511 M576.313,731.15 Q562.871,731.884 549.46,732.503 353.357,740.018 157.254,740.018 97.832,740.018 38.353,740.018 -105.023,740.063 -248.507,740.168 -269.777,740.186 -291.11,740.168 -475.188,739.961 -659.432,736.862 -718.495,735.876 -777.559,733.856 -836.64,733.399 -895.814,732.803 -940.09,732.509 -984.506,732.052 -1028.823,730.69 -1073.198,729.948 -1278.983,726.641 -1484.898,724.236 -1645.077,722.403 -1805.195,730.549 -1828.675,731.832 -1852.187,733.254 -2045.966,743.625 -2239.358,755.499 L-2652.607,757.904 Q-2859.942,746.33 -3067.018,731.451 -3254.6,716.27 -3443.345,714.166 -3647.452,711.761 -3851.301,715.068 -4050.373,718.375 -4249.703,723.034 -4437.285,727.543 -4624.997,732.202 -4815.807,736.862 -5006.875,740.469 -5208.142,744.226 -5409.925,741.22 -5605.382,738.365 -5800.581,723.334 -6001.461,709.357 -6201.953,687.413 L-6144.375,765.719 Q-5954.081,790.218 -5762.626,794.577 -5563.941,799.086 -5365.773,797.282 -5166.83,795.478 -4968.016,791.571 -4763.65,787.663 -4559.543,784.056 -4354.016,780.449 -4148.36,776.691 -3943.478,773.084 -3738.596,770.98 -3547.657,769.026 -3356.848,772.032 -3165.134,775.188 -2974.195,790.068 -2769.313,804.797 -2564.303,808.555 -2369.62,812.012 -2175.324,802.242 -1975.607,789.617 -1776.018,783.755 -1574.364,777.743 -1372.71,781.501 -1169.635,785.408 -966.432,788.114 -760.388,790.969 -554.345,791.721 -359.404,792.473 -164.463,792.773 35.384,793.074 235.231,791.721 430.172,790.368 624.984,779.396 816.955,766.621 1009.314,761.511 1206.321,756.401 1402.424,778.194 L1448.513,725.439 1448.642,723.034 Q1401.164,718.056 1353.624,713.114 1317.223,709.164 1280.812,706.351 1125.982,694.922 970.584,705.749 773.658,721.654 576.313,731.15Z" test="JuryBoxFront" stroke-width="2.794"/>
      <path id="Layer1_0_1_STROKES" stroke="#F60" stroke-width="5.588" stroke-linejoin="round" stroke-linecap="round" fill="none" d="M1448.706,723.109 Q1401.164,718.056 1353.624,713.114 1317.223,709.164 1280.812,706.426 1125.982,694.922 970.584,705.749 773.658,721.654 576.313,731.225 562.871,731.884 549.46,732.503 353.357,740.018 157.254,740.018 97.832,740.018 38.418,740.018 -105.023,740.063 -248.507,740.168 -269.777,740.186 -291.045,740.168 -475.188,739.961 -659.432,736.862 -718.495,735.876 -777.559,733.931 -836.64,733.399 -895.75,732.879 -940.09,732.509 -984.441,732.127 -1028.823,730.69 -1073.198,729.948 -1278.983,726.641 -1484.898,724.236 -1645.077,722.403 -1805.13,730.624 -1828.675,731.832 -1852.187,733.254 -2045.966,743.625 -2239.358,755.499 L-2652.607,757.904 Q-2859.942,746.33 -3067.018,731.451 -3254.6,716.27 -3443.345,714.166 -3647.452,711.761 -3851.301,715.068 -4050.373,718.375 -4249.703,723.034 -4437.285,727.543 -4624.997,732.202 -4815.807,736.862 -5006.875,740.469 -5208.142,744.226 -5409.925,741.22 -5605.382,738.365 -5800.581,723.334 -6001.461,709.357 -6201.953,687.413 L-6144.375,765.719 Q-5954.081,790.218 -5762.626,794.577 -5563.941,799.086 -5365.773,797.282 -5166.83,795.478 -4968.016,791.571 -4763.65,787.663 -4559.543,784.056 -4354.016,780.449 -4148.36,776.691 -3943.478,773.084 -3738.596,770.98 -3547.657,769.026 -3356.848,772.032 -3165.134,775.188 -2974.195,790.068 -2769.313,804.797 -2564.303,808.555 -2369.62,812.012 -2175.324,802.242 -1975.607,789.617 -1776.018,783.755 -1574.364,777.743 -1372.71,781.501 -1169.635,785.408 -966.432,788.114 -760.388,790.969 -554.345,791.721 -359.404,792.473 -164.463,792.773 35.384,793.074 235.231,791.721 430.172,790.368 624.984,779.396 816.955,766.621 1009.314,761.511 1206.321,756.401 1402.424,778.194 L1448.513,725.439 M1448.706,723.109 Q1450.351,723.31 1451.998,723.485 L1451.998,725.439 1451.998,1062.261 1451.998,1095.928 M1402.424,1095.928 L1402.424,1062.336 M-6155.994,1075.037 L-6156.768,1095.928 M1402.424,1062.336 L1402.424,778.194 M-6206.988,1095.928 L-6206.73,1075.037 -6201.953,687.413 M-6144.375,765.719 L-6155.994,1075.037" test="JuryBoxFront"/>
    </g>
  </g>
</svg>