<?xml version="1.0" encoding="utf-8"?>
<svg id="EdithAnim12" image-rendering="inherit" baseProfile="basic" version="1.1" x="0px" y="0px" width="800" height="600" xmlns="http://www.w3.org/2000/svg" xmlns:xlink="http://www.w3.org/1999/xlink">
  <g id="14_JurorParrotf20r1" overflow="visible">
    <g id="JurorsBack">
      <path fill="#000" stroke="none" d="M788.22,132.33 Q786.22,133.01 784.3,133.85 766.9,140.73 755.14,155.21 742.78,170.41 743.62,190.05 744.42,209.25 754.42,225.73 759.62,234.33 775.78,242.29 784.1,246.37 790.86,248.13 797.1,249.73 802.02,249.33 804.7,249.13 807.98,247.81 816.26,244.49 828.42,234.25 835.34,228.41 840.46,222.69 845.66,216.89 846.58,213.89 850.22,202.25 849.9,190.01 849.34,170.41 838.14,154.57 833.06,147.45 825.42,142.89 808.58,132.81 788.82,134.21 L788.22,132.33 M772.22,182.05 L768.26,184.97 772.22,182.05 M808.86,173.09 L804.86,176.01 808.86,173.09 M804.3,226.97 Q803.18,226.77 802.06,226.61 803.18,226.77 804.3,226.97 815.82,228.57 821.9,218.61 815.82,228.57 804.3,226.97 M568.46,138.21 Q559.9,140.41 552.5,145.25 545.22,149.97 538.94,156.17 532.54,162.57 528.46,170.73 524.34,179.09 523.34,188.25 522.34,197.37 524.42,206.25 526.5,215.33 531.06,223.33 535.62,231.29 542.14,237.73 548.9,244.37 557.34,248.61 561.98,251.01 566.98,252.33 570.78,253.29 574.78,253.65 577.26,253.57 579.74,253.29 586.54,252.49 593.1,250.29 602.1,247.29 609.66,241.45 617.18,235.57 621.82,227.05 626.1,219.17 628.22,210.53 630.34,201.89 629.58,192.97 628.78,183.61 624.62,175.05 620.66,166.85 614.7,160.01 608.9,153.37 602.26,147.53 595.14,141.37 586.02,138.57 577.34,135.81 568.46,138.21 M593.82,177.33 Q595.86,178.65 595.86,180.49 595.86,178.65 593.82,177.33 591.74,176.01 588.82,176.01 591.74,176.01 593.82,177.33 M562.62,174.85 Q564.5,175.97 564.5,177.57 564.5,175.97 562.62,174.85 560.74,173.73 558.1,173.73 560.74,173.73 562.62,174.85 M556.06,231.09 Q555.94,231.21 555.94,231.45 555.94,231.21 556.06,231.09 559.5,227.89 562.58,231.09 559.5,227.89 556.06,231.09 M344.46,141.81 L344.74,142.53 349.58,141.17 344.74,142.53 Q338.22,145.01 332.5,149.05 325.98,153.73 321.38,160.29 317.26,166.13 314.74,172.93 312.34,179.53 311.62,186.53 310.86,193.69 311.9,200.69 313.02,208.13 316.3,214.93 319.42,221.49 324.74,226.53 330.1,231.61 336.74,235.09 341.1,237.41 345.86,238.61 348.7,239.29 351.7,239.61 358.54,240.61 365.38,239.17 365.94,239.05 366.54,238.93 373.06,237.37 379.1,234.29 385.54,230.89 390.78,225.93 396.06,220.85 399.82,214.33 403.42,208.21 405.14,201.29 406.86,194.45 406.38,187.45 405.86,180.13 403.7,173.21 401.58,166.41 397.74,160.53 393.9,154.61 388.74,149.53 383.26,144.21 376.38,141.05 369.34,137.81 361.42,137.61 354.7,138.29 348.06,140.37 346.46,140.85 344.82,141.21 L344.46,141.81 M357.58,174.13 L363.02,174.77 357.58,174.13 M362.02,222.01 Q363.98,220.61 363.98,218.61 363.98,220.61 362.02,222.01 360.06,223.41 357.26,223.41 360.06,223.41 362.02,222.01 M337.74,180.01 L332.3,179.37 337.74,180.01 M1201.98,135.93 Q1193.58,137.81 1185.94,142.05 1177.66,146.69 1171.7,154.09 1166.1,161.05 1163.66,169.61 1161.1,178.41 1160.7,187.65 1160.3,196.65 1161.46,205.61 1162.58,214.49 1167.58,221.93 1172.74,229.61 1180.26,234.85 1187.54,239.97 1195.86,243.13 1204.7,246.41 1214.14,246.85 1223.14,247.61 1231.54,244.21 1240.34,240.73 1246.66,233.53 1253.02,226.33 1256.98,217.77 1260.94,209.17 1262.58,199.73 1264.14,190.73 1263.02,181.61 1261.86,172.09 1257.58,163.41 1253.34,154.93 1246.38,148.57 1240.46,143.13 1233.62,138.89 1227.1,134.81 1219.78,132.33 L1219.18,134.21 Q1210.46,134.17 1201.98,135.93 M1226.86,177.57 L1230.7,180.49 1226.86,177.57 M1195.18,180.49 L1199.02,183.41 1195.18,180.49 M1195.1,221.77 Q1195.78,221.61 1196.46,221.49 1195.78,221.61 1195.1,221.77 1189.86,223.25 1187.18,218.61 1189.86,223.25 1195.1,221.77 M978.3,166.65 Q974.34,174.57 972.82,183.17 971.26,191.89 972.54,200.61 973.9,209.97 978.58,218.01 983.22,225.97 990.54,231.45 998.14,237.05 1007.18,239.33 1008.86,239.73 1010.5,240.01 1016.38,240.93 1022.3,240.13 1023.98,239.85 1025.66,239.49 1034.74,237.53 1042.62,232.89 1050.74,228.25 1056.46,221.01 1062.22,213.73 1064.9,204.85 1067.5,196.37 1066.82,187.41 1066.14,178.69 1062.94,170.65 1059.46,162.05 1053.66,154.81 1048.02,147.81 1040.14,143.41 1032.38,139.09 1023.42,139.17 1014.1,139.25 1005.02,141.17 L1004.66,141.81 1004.94,142.53 1009.78,141.17 1004.94,142.53 Q996.82,146.13 989.9,151.93 982.54,158.13 978.3,166.65 M997.94,180.01 L992.5,179.37 997.94,180.01 M1017.78,174.13 L1023.22,174.77 1017.78,174.13 M1017.46,223.41 Q1020.26,223.41 1022.22,222.01 1024.18,220.61 1024.18,218.61 1024.18,220.61 1022.22,222.01 1020.26,223.41 1017.46,223.41Z" test="JurorsBack" vector-effect="non-scaling-stroke" stroke-width="1"/>
      <path id="Layer3_0_1_STROKES" stroke="#FFF" stroke-width="1.6" stroke-linejoin="round" stroke-linecap="round" fill="none" d="M1004.94,142.53 Q996.82,146.13 989.9,151.93 982.54,158.13 978.3,166.65 974.34,174.57 972.82,183.17 971.26,191.89 972.54,200.61 973.9,209.97 978.58,218.01 983.22,225.97 990.54,231.45 998.14,237.05 1007.18,239.33 1008.86,239.73 1010.5,240.01 1016.38,240.93 1022.3,240.13 1023.98,239.85 1025.66,239.49 1034.74,237.53 1042.62,232.89 1050.74,228.25 1056.46,221.01 1062.22,213.73 1064.9,204.85 1067.5,196.37 1066.82,187.41 1066.14,178.69 1062.94,170.65 1059.46,162.05 1053.66,154.81 1048.02,147.81 1040.14,143.41 1032.38,139.09 1023.42,139.17 1014.1,139.25 1005.02,141.17 L1004.66,141.81 M1009.78,141.17 L1004.94,142.53 M997.94,180.01 L992.5,179.37 M1017.78,174.13 L1023.22,174.77 M1017.46,223.41 Q1020.26,223.41 1022.22,222.01 1024.18,220.61 1024.18,218.61 M1219.18,134.21 Q1210.46,134.17 1201.98,135.93 1193.58,137.81 1185.94,142.05 1177.66,146.69 1171.7,154.09 1166.1,161.05 1163.66,169.61 1161.1,178.41 1160.7,187.65 1160.3,196.65 1161.46,205.61 1162.58,214.49 1167.58,221.93 1172.74,229.61 1180.26,234.85 1187.54,239.97 1195.86,243.13 1204.7,246.41 1214.14,246.85 1223.14,247.61 1231.54,244.21 1240.34,240.73 1246.66,233.53 1253.02,226.33 1256.98,217.77 1260.94,209.17 1262.58,199.73 1264.14,190.73 1263.02,181.61 1261.86,172.09 1257.58,163.41 1253.34,154.93 1246.38,148.57 1240.46,143.13 1233.62,138.89 1227.1,134.81 1219.78,132.33 L1211.18,130.85 M1226.86,177.57 L1230.7,180.49 M1195.18,180.49 L1199.02,183.41 M1187.18,218.61 Q1189.86,223.25 1195.1,221.77 1195.78,221.61 1196.46,221.49 M1216.82,251.77 Q1217.62,252.77 1218.46,253.81 1241.62,283.13 1253.14,320.09 1260.14,342.61 1267.18,365.01 M1156.78,366.73 Q1161.18,322.97 1183.14,285.97 1193.98,267.65 1208.62,253.81 1209.7,252.77 1210.78,251.77 M970.3,372.21 Q974.78,345.13 982.34,319.17 985.62,307.89 988.74,296.49 995.62,271.37 1005.78,249.05 1007.14,246.09 1008.62,243.33 M1024.3,243.33 Q1033.14,257.93 1039.42,275.41 1048.34,300.25 1056.26,326.01 1061.54,343.13 1066.74,360.33 M349.58,141.17 L344.74,142.53 Q338.22,145.01 332.5,149.05 325.98,153.73 321.38,160.29 317.26,166.13 314.74,172.93 312.34,179.53 311.62,186.53 310.86,193.69 311.9,200.69 313.02,208.13 316.3,214.93 319.42,221.49 324.74,226.53 330.1,231.61 336.74,235.09 341.1,237.41 345.86,238.61 348.7,239.29 351.7,239.61 358.54,240.61 365.38,239.17 365.94,239.05 366.54,238.93 373.06,237.37 379.1,234.29 385.54,230.89 390.78,225.93 396.06,220.85 399.82,214.33 403.42,208.21 405.14,201.29 406.86,194.45 406.38,187.45 405.86,180.13 403.7,173.21 401.58,166.41 397.74,160.53 393.9,154.61 388.74,149.53 383.26,144.21 376.38,141.05 369.34,137.81 361.42,137.61 354.7,138.29 348.06,140.37 346.46,140.85 344.82,141.21 L344.46,141.81 M357.58,174.13 L363.02,174.77 M357.26,223.41 Q360.06,223.41 362.02,222.01 363.98,220.61 363.98,218.61 M574.78,253.65 Q577.26,253.57 579.74,253.29 586.54,252.49 593.1,250.29 602.1,247.29 609.66,241.45 617.18,235.57 621.82,227.05 626.1,219.17 628.22,210.53 630.34,201.89 629.58,192.97 628.78,183.61 624.62,175.05 620.66,166.85 614.7,160.01 608.9,153.37 602.26,147.53 595.14,141.37 586.02,138.57 577.34,135.81 568.46,138.21 559.9,140.41 552.5,145.25 545.22,149.97 538.94,156.17 532.54,162.57 528.46,170.73 524.34,179.09 523.34,188.25 522.34,197.37 524.42,206.25 526.5,215.33 531.06,223.33 535.62,231.29 542.14,237.73 548.9,244.37 557.34,248.61 561.98,251.01 566.98,252.33 570.78,253.29 574.78,253.65Z M588.82,176.01 Q591.74,176.01 593.82,177.33 595.86,178.65 595.86,180.49 M558.1,173.73 Q560.74,173.73 562.62,174.85 564.5,175.97 564.5,177.57 M788.82,134.21 Q808.58,132.81 825.42,142.89 833.06,147.45 838.14,154.57 849.34,170.41 849.9,190.01 850.22,202.25 846.58,213.89 845.66,216.89 840.46,222.69 835.34,228.41 828.42,234.25 816.26,244.49 807.98,247.81 804.7,249.13 802.02,249.33 797.1,249.73 790.86,248.13 784.1,246.37 775.78,242.29 759.62,234.33 754.42,225.73 744.42,209.25 743.62,190.05 742.78,170.41 755.14,155.21 766.9,140.73 784.3,133.85 786.22,133.01 788.22,132.33 M772.22,182.05 L768.26,184.97 M808.86,173.09 L804.86,176.01 M821.9,218.61 Q815.82,228.57 804.3,226.97 803.18,226.77 802.06,226.61 M337.74,180.01 L332.3,179.37 M310.82,346.97 Q311.78,341.17 313.38,335.45 319.38,313.81 325.42,292.09 331.94,268.77 341.5,247.41 342.14,245.97 344.18,241.93 M848.1,355.37 Q844.98,329.09 835.38,305.65 825.98,282.57 815.62,260.01 813.58,255.61 811.1,251.93 M789.06,251.93 Q786.18,258.69 784.7,266.41 782.82,276.17 780.42,285.65 774.78,307.85 770.38,330.53 767.98,343.05 765.62,355.37 M582.14,256.85 Q586.66,263.77 590.42,271.41 599.58,290.09 608.02,308.97 615.54,325.81 620.38,344.05 M562.58,231.09 Q559.5,227.89 556.06,231.09 555.94,231.21 555.94,231.45 M525.06,344.05 Q527.02,337.81 529.54,331.77 538.66,310.21 547.94,288.57 554.74,272.65 563.34,258.25 563.74,257.53 564.18,256.85 M367.94,242.33 Q375.42,253.17 379.22,262.81 388.1,285.33 396.02,308.73 401.3,324.21 406.54,339.77" test="JurorsBack"/>
    </g>
    <g id="Tween-1">
      <g id="JurorsFront">
        <path fill="#000" stroke="none" d="M700.676,275.215 Q693.947,275.896 687.299,277.979 685.697,278.459 684.055,278.82 L683.695,279.42 683.935,280.101 688.821,278.78 683.935,280.101 Q677.447,282.624 671.72,286.669 665.192,291.355 660.586,297.924 656.461,303.771 653.937,310.579 651.534,317.188 650.814,324.196 650.053,331.365 651.094,338.374 652.215,345.823 655.499,352.632 658.623,359.2 663.95,364.246 669.317,369.333 675.965,372.817 680.335,375.139 685.056,376.301 687.944,377.041 690.944,377.343 697.792,378.344 704.641,376.902 705.21,376.781 705.762,376.622 712.332,375.113 718.378,372.016 724.826,368.612 730.073,363.646 735.359,358.559 739.124,352.031 742.728,345.903 744.45,338.975 746.173,332.126 745.692,325.117 745.171,317.788 743.009,310.86 740.886,304.051 737.041,298.164 733.196,292.236 728.03,287.15 722.543,281.823 715.655,278.659 708.606,275.415 700.676,275.215 M676.966,317.668 L671.519,317.027 676.966,317.668 M696.831,311.781 L702.278,312.422 696.831,311.781 M696.511,361.122 Q699.314,361.122 701.277,359.721 703.239,358.319 703.239,356.316 703.239,358.319 701.277,359.721 699.314,361.122 696.511,361.122 M477.637,260.917 L477.037,262.84 Q439.109,260.757 424.091,295.16 415.6,314.664 420.326,335.33 426.614,362.885 454.208,372.817 458.813,374.409 463.94,375.621 466.266,376.159 468.666,376.622 469.674,376.808 471.189,376.862 472.682,376.854 474.594,376.622 475.926,376.465 477.197,376.261 508.219,371.234 518.288,337.573 528.781,302.489 502.869,276.377 492.135,265.643 477.637,260.917 M484.726,306.254 L488.571,309.178 484.726,306.254 M453.007,309.178 L456.851,312.101 453.007,309.178 M452.927,350.509 Q453.607,350.349 454.288,350.229 453.607,350.349 452.927,350.509 447.64,351.991 444.997,347.345 447.64,351.991 452.927,350.509 M301.778,356.917 Q306.984,337.453 298.494,319.31 291.765,304.932 281.152,293.158 270.539,281.423 254.959,279.701 234.053,279.941 254.839,280.021 235.495,282.544 219.755,293.959 202.814,306.214 198.769,326.599 194.764,346.825 203.015,365.528 210.704,383.07 226.564,393.883 233.682,398.687 241.823,399.931 244.687,400.371 247.67,400.371 250.062,400.691 252.356,400.772 269.21,401.351 282.233,389.278 296.691,375.941 301.778,356.917 M246.389,327 Q248.271,328.121 248.271,329.723 248.271,328.121 246.389,327 244.506,325.878 241.863,325.878 244.506,325.878 246.389,327 M268.616,327.841 Q270.699,329.162 270.699,331.005 270.699,329.162 268.616,327.841 266.574,326.519 263.65,326.519 266.574,326.519 268.616,327.841 M220.076,361.763 L239.3,368.171 220.076,361.763 M1196.695,271.811 L1196.094,269.888 Q1194.092,270.609 1192.169,271.45 1174.748,278.339 1162.973,292.837 1150.598,308.056 1151.439,327.721 1152.24,346.945 1162.252,363.445 1167.459,372.056 1183.639,380.026 1191.958,384.102 1198.698,385.833 1204.983,387.459 1209.912,387.075 1212.594,386.859 1215.879,385.553 1224.184,382.243 1236.345,371.976 1243.273,366.129 1248.4,360.402 1253.606,354.594 1254.527,351.59 1258.172,339.936 1257.851,327.681 1257.291,308.056 1246.077,292.196 1240.99,285.067 1233.341,280.502 1216.48,270.409 1196.695,271.811 M1180.074,319.711 L1176.109,322.634 1180.074,319.711 M1216.76,310.739 L1212.755,313.663 1216.76,310.739 M1212.194,364.687 Q1211.073,364.487 1209.952,364.326 1211.073,364.487 1212.194,364.687 1223.729,366.289 1229.816,356.316 1223.729,366.289 1212.194,364.687 M976.62,276.176 Q967.929,273.413 959.038,275.816 950.468,278.019 943.058,282.865 935.769,287.591 929.481,293.798 923.073,300.206 918.988,308.377 914.863,316.747 913.862,325.918 912.861,335.05 914.943,343.941 917.026,353.032 921.592,361.042 926.157,369.012 932.685,375.46 939.454,382.109 947.904,386.354 952.567,388.753 957.516,390.039 961.361,391.052 965.366,391.4 967.861,391.304 970.332,391 977.126,390.24 983.709,388.036 992.72,385.032 1000.29,379.185 1007.819,373.298 1012.465,364.767 1016.75,356.877 1018.873,348.226 1020.996,339.576 1020.235,330.644 1019.434,321.273 1015.269,312.702 1011.304,304.492 1005.336,297.643 999.529,290.995 992.881,285.148 985.752,278.98 976.62,276.176 M984.39,314.985 Q986.473,316.306 986.473,318.149 986.473,316.306 984.39,314.985 982.347,313.663 979.424,313.663 982.347,313.663 984.39,314.985 M953.191,312.502 Q955.073,313.623 955.073,315.225 955.073,313.623 953.191,312.502 951.309,311.38 948.665,311.38 951.309,311.38 953.191,312.502 M946.623,368.812 Q946.503,368.932 946.503,369.172 946.503,368.932 946.623,368.812 950.067,365.608 953.151,368.812 950.067,365.608 946.623,368.812 M1398.026,289.553 Q1390.657,295.761 1386.412,304.291 1382.447,312.221 1380.925,320.832 1379.363,329.563 1380.645,338.294 1382.006,347.666 1386.692,355.716 1391.338,363.686 1398.667,369.172 1406.277,374.779 1415.328,377.062 1416.991,377.467 1418.652,377.703 1424.531,378.659 1430.427,377.823 1432.134,377.602 1433.831,377.222 1442.922,375.26 1450.812,370.614 1458.942,365.968 1464.67,358.719 1470.437,351.43 1473.12,342.539 1475.723,334.049 1475.043,325.077 1474.362,316.347 1471.158,308.296 1467.673,299.686 1461.866,292.437 1456.219,285.428 1448.329,281.022 1440.56,276.697 1431.588,276.777 1422.257,276.857 1413.165,278.78 L1412.805,279.42 1413.085,280.141 1417.931,278.78 1413.085,280.141 Q1404.955,283.746 1398.026,289.553 M1425.941,311.781 L1431.388,312.422 1425.941,311.781 M1406.076,317.668 L1400.63,317.027 1406.076,317.668 M1425.621,361.122 Q1428.424,361.122 1430.387,359.721 1432.349,358.319 1432.349,356.316 1432.349,358.319 1430.387,359.721 1428.424,361.122 1425.621,361.122Z" test="JurorsFront" vector-effect="non-scaling-stroke" stroke-width="1"/>
        <path id="Layer4_0_1_STROKES" stroke="#FFF" stroke-width="1.602" stroke-linejoin="round" stroke-linecap="round" fill="none" d="M1413.085,280.141 Q1404.955,283.746 1398.026,289.553 1390.657,295.761 1386.412,304.291 1382.447,312.221 1380.925,320.832 1379.363,329.563 1380.645,338.294 1382.006,347.666 1386.692,355.716 1391.338,363.686 1398.667,369.172 1406.277,374.779 1415.328,377.062 1416.991,377.467 1418.652,377.723 1424.531,378.659 1430.447,377.843 1432.134,377.602 1433.831,377.222 1442.922,375.26 1450.812,370.614 1458.942,365.968 1464.67,358.719 1470.437,351.43 1473.12,342.539 1475.723,334.049 1475.043,325.077 1474.362,316.347 1471.158,308.296 1467.673,299.686 1461.866,292.437 1456.219,285.428 1448.329,281.022 1440.56,276.697 1431.588,276.777 1422.257,276.857 1413.165,278.78 L1412.805,279.42 M1417.931,278.78 L1413.085,280.141 M1425.941,311.781 L1431.388,312.422 M1406.076,317.668 L1400.63,317.027 M965.366,391.4 Q967.861,391.304 970.332,391.02 977.126,390.24 983.709,388.036 992.72,385.032 1000.29,379.185 1007.819,373.298 1012.465,364.767 1016.75,356.877 1018.873,348.226 1020.996,339.576 1020.235,330.644 1019.434,321.273 1015.269,312.702 1011.304,304.492 1005.336,297.643 999.529,290.995 992.881,285.148 985.752,278.98 976.62,276.176 967.929,273.413 959.038,275.816 950.468,278.019 943.058,282.865 935.769,287.591 929.481,293.798 923.073,300.206 918.988,308.377 914.863,316.747 913.862,325.918 912.861,335.05 914.943,343.941 917.026,353.032 921.592,361.042 926.157,369.012 932.685,375.46 939.454,382.109 947.904,386.354 952.567,388.753 957.536,390.059 961.361,391.052 965.366,391.4Z M979.424,313.663 Q982.347,313.663 984.41,314.985 986.473,316.306 986.473,318.149 M948.665,311.38 Q951.309,311.38 953.191,312.502 955.073,313.623 955.073,315.225 M1196.695,271.811 Q1216.48,270.409 1233.341,280.502 1240.99,285.067 1246.077,292.196 1257.291,308.056 1257.851,327.681 1258.172,339.936 1254.527,351.59 1253.606,354.594 1248.4,360.402 1243.273,366.129 1236.345,371.976 1224.184,382.243 1215.879,385.553 1212.594,386.859 1209.912,387.075 1204.983,387.459 1198.718,385.853 1191.958,384.102 1183.639,380.026 1167.459,372.056 1162.252,363.445 1152.24,346.945 1151.439,327.721 1150.598,308.056 1162.973,292.837 1174.748,278.339 1192.169,271.45 1194.092,270.609 1196.094,269.909 M1180.074,319.711 L1176.109,322.634 M1216.76,310.739 L1212.755,313.663 M1229.816,356.316 Q1223.729,366.289 1212.194,364.687 1211.073,364.487 1209.952,364.326 M1256.049,493.247 Q1252.925,466.935 1243.313,443.465 1233.902,420.356 1223.529,397.768 1221.487,393.363 1219.003,389.678 M1196.935,389.678 Q1194.065,396.441 1192.57,404.176 1190.688,413.948 1188.285,423.44 1182.638,445.668 1178.232,468.376 1175.829,480.912 1173.466,493.247 M915.584,481.913 Q917.547,475.665 920.07,469.618 929.201,448.031 938.493,426.364 945.316,410.41 953.892,396.006 954.308,395.303 954.733,394.604 M972.735,394.604 Q977.255,401.552 981.026,409.182 990.197,427.886 998.648,446.789 1006.177,463.65 1011.023,481.913 M953.151,368.812 Q950.067,365.608 946.623,368.812 946.503,368.932 946.503,369.172 M1425.621,361.122 Q1428.424,361.122 1430.387,359.721 1432.349,358.319 1432.349,356.316 M1378.402,510.108 Q1382.888,482.995 1390.457,457.002 1393.741,445.708 1396.865,434.294 1403.754,409.142 1413.926,386.794 1415.285,383.838 1416.77,381.067 M1432.469,381.067 Q1441.335,395.68 1447.608,413.187 1456.539,438.058 1464.469,463.851 1469.756,480.992 1474.962,498.214 M241.863,325.878 Q244.506,325.878 246.389,327 248.271,328.121 248.271,329.723 M263.65,326.519 Q266.574,326.519 268.636,327.841 270.699,329.162 270.699,331.005 M254.839,280.021 Q235.495,282.544 219.755,293.959 202.814,306.214 198.769,326.599 194.764,346.825 203.015,365.528 210.704,383.07 226.564,393.883 233.682,398.687 241.823,399.931 244.687,400.371 247.67,400.371 250.062,400.691 252.376,400.772 269.21,401.351 282.233,389.278 296.691,375.941 301.778,356.917 306.984,337.453 298.494,319.31 291.765,304.932 281.152,293.158 270.539,281.423 254.979,279.701 M477.637,260.937 L469.027,259.476 M477.037,262.84 Q439.109,260.757 424.091,295.16 415.6,314.664 420.326,335.33 426.614,362.885 454.208,372.817 458.813,374.409 463.94,375.621 466.266,376.159 468.686,376.622 469.674,376.808 471.189,376.862 472.682,376.854 474.614,376.622 475.926,376.465 477.197,376.261 508.219,371.234 518.288,337.573 528.781,302.489 502.869,276.377 492.135,265.643 477.637,260.937 M484.726,306.254 L488.571,309.178 M453.007,309.178 L456.851,312.101 M444.997,347.345 Q447.64,351.991 452.927,350.509 453.607,350.349 454.288,350.229 M683.955,280.121 Q677.447,282.624 671.72,286.669 665.192,291.355 660.586,297.924 656.461,303.771 653.937,310.579 651.534,317.188 650.814,324.196 650.053,331.365 651.094,338.374 652.215,345.823 655.499,352.632 658.623,359.2 663.95,364.246 669.317,369.333 675.965,372.817 680.335,375.139 685.076,376.321 687.944,377.041 690.944,377.343 697.792,378.344 704.641,376.902 705.21,376.781 705.782,376.642 712.332,375.113 718.378,372.016 724.826,368.612 730.073,363.646 735.359,358.559 739.124,352.031 742.728,345.903 744.45,338.975 746.173,332.126 745.692,325.117 745.171,317.788 743.009,310.86 740.886,304.051 737.041,298.164 733.196,292.236 728.03,287.15 722.543,281.823 715.655,278.659 708.606,275.415 700.676,275.215 693.947,275.896 687.299,277.979 685.697,278.459 684.055,278.82 L683.695,279.42 M688.821,278.78 L683.955,280.121 M676.966,317.668 L671.519,317.027 M696.831,311.781 L702.278,312.422 M198.329,490.924 Q206.299,471.741 215.15,452.997 223.36,435.615 231.891,418.674 234.735,413.007 238.979,405.137 M696.511,361.122 Q699.314,361.122 701.277,359.721 703.239,358.319 703.239,356.316 M707.204,380.066 Q714.68,390.937 718.498,400.572 727.389,423.12 735.319,446.549 740.606,462.048 745.852,477.628 M650.013,484.837 Q650.974,479.03 652.576,473.302 658.583,451.635 664.631,429.888 671.159,406.539 680.731,385.152 681.385,383.695 683.414,379.666 M479.82,380.226 Q501.182,412.903 510.839,446.589 516.926,467.936 523.374,488.962 M414.879,488.962 Q422.368,444.987 444.236,407.54 451.698,394.713 460.977,380.226 M254.559,405.137 Q259.403,414.792 263.33,422.319 272.541,439.901 280.832,457.923 288.241,473.983 293.367,490.924 M220.076,361.763 L239.3,368.171" test="JurorsFront"/>
      </g>
    </g>
    <g id="Parrot">
      <path id="Layer2_0_1_STROKES" stroke="#FFF" stroke-width="2" stroke-linejoin="round" stroke-linecap="round" fill="none" d="M1821.2,248.5 Q1824.9,248.95 1828.2,251.9 1832.2,255.45 1830.7,261.1 1829.2,266.75 1826.4,269.6 1823.6,272.4 1820,272.3 1816.35,272.2 1813.75,270.1 1811.1,268 1810.45,264.45 1809.85,261.05 1810.7,257.9 1811.5,255.05 1812.55,253.35 1813.55,251.6 1815.65,250.5 1817.7,249.35 1821.2,248.5Z M1821.6,260.25 Q1821.1,259.6 1820.35,259.5 1819.55,259.4 1819.5,259.4 1819.2,259.4 1818.85,259.7 1818,260.45 1818.7,261.95 1819.3,263.2 1820.65,262.7 1821.6,262.35 1821.75,261.65 1821.9,261.15 1821.9,260.95 1821.95,260.55 1821.6,260.25Z M1776.85,251 Q1779.05,250.8 1782,254.2 1784.9,257.5 1784.7,262.15 1784.5,266.7 1782.4,269.5 1780.35,272.25 1776.8,272.15 1773.2,272 1770.4,269.75 1767.25,267.35 1767.4,263.55 1767.65,258.35 1769.4,255.25 1771.8,250.95 1776.85,251Z M1779.5,261.8 Q1779.15,261.2 1778.5,261.15 1777.75,261.05 1777.7,261.05 1777.5,261.05 1777.15,261.3 1776.4,262 1777.05,263.35 1777.6,264.5 1778.7,264 1779.5,263.7 1779.65,263.05 1779.75,262.65 1779.75,262.45 1779.85,262.1 1779.5,261.8Z" test="Parrot"/>
      <path id="Layer2_0_2_STROKES" stroke="#F00" stroke-width="2" stroke-linejoin="round" stroke-linecap="round" fill="none" d="M1842.75,278.9 Q1845.75,279.5 1846.5,279.6 1847.25,279.7 1848.75,279.7 1850.9,279.7 1854.75,277.3 M1836.35,304.5 L1837.8,304.9 Q1839.5,305.3 1840.75,305.3 1841.5,305.3 1843.6,303.9 1845.55,302.6 1845.95,302.1 M1878.75,327.8 Q1869.9,318.2 1867,305.55 1864.55,294.75 1866.05,279.1 1867.4,265.3 1860.35,252.4 1852.55,238.15 1839.8,232.65 1827.05,227.1 1817.2,226.15 1807.35,225.15 1797.95,228.6 1788.5,232.05 1781.6,239 1774.75,245.85 1774.5,247.4 M1772.65,316.9 Q1772.2,329.95 1765.7,340.55 M1805.15,305.3 Q1807.4,307.8 1808.85,310.55 1809.05,310.9 1811.55,310.9 1812.85,310.9 1814.6,310.4 1814.95,310.3 1817.95,309.3" test="Parrot"/>
      <path id="Layer2_0_3_STROKES" stroke="#0FF" stroke-width="2" stroke-linejoin="round" stroke-linecap="round" fill="none" d="M1770.3,333.95 L1769.65,337.85 Q1770.55,338.3 1771.65,338.4 1772.35,338.5 1773.85,338.5 1778,338.5 1781.1,334.95 1784.25,331.35 1786.55,331.35 1787.35,331.35 1791.75,332 1796.1,332.65 1796.95,332.65 1801.9,332.65 1802.9,330.4 1803.85,328.1 1807.65,328.1 1808.5,328.1 1811.6,328.75 1814.75,329.4 1815.55,329.4 1816.1,329.4 1818.05,327.45 1819.95,325.5 1822.35,325.5 1823.2,325.5 1826.45,326.15 1829.7,326.8 1830.5,326.8 1831.4,326.8 1833.9,325.5 1835.15,324.85 1836.35,324.2 1836.5,324.2 1839.5,325.5 1842.85,326.8 1844.45,326.8 1846.5,326.8 1849.15,325.85 1850.45,325.35 1851.6,324.85 1853.6,324.85 1863.65,327.15 1872,329.05 1875.75,329.35 1876.5,329.4 1877.05,329.4 M1806.1,352.25 Q1805.55,354.1 1803.75,370.9 1802,387.15 1800.9,390 1799.35,394.2 1798.8,404.9 1798.2,416.25 1799.6,423.2 1801.15,430.9 1808.4,451.95 1815.85,473.55 1819.15,479.2 1820.7,481.9 1825.4,489.2 1829.2,495.1 1832.15,500.7 1836.05,508.1 1839.15,511.05 1842.3,514.1 1847.15,515.05 1850.4,515.7 1855.45,516.9 1858.85,517.3 1858.85,514.4 1858.85,506.3 1867.3,510.5 1873.25,513.45 1875.3,513.85 1878.6,514.5 1880.35,511.8 1881.65,509.85 1883.4,506.5 1885.3,503.9 1889.45,502.65 1892.15,501.85 1894.55,503.65 1895.2,504.15 1896.65,498.75 1898.3,492.65 1900.9,485.95 L1903.15,480.5 Q1903.8,476.6 1905.75,467.5 1907.45,459.5 1906.65,449.4 1905.65,437.2 1901.2,427.8 1900.95,427.3 1889.8,405.25 1882.7,391.15 1880.35,384.15 1878.6,378.9 1875.25,371.55 1872.9,366.45 1872.55,363.3 M1908.2,383.8 Q1907.6,383.45 1906.7,383.45 1906.55,383.45 1898.9,386.05 1897.25,385.15 1895.25,384.1 1894.9,386 1893.55,387.45 1892.4,388.65 1891.65,388.65 1890,388.65 1888.65,387.45 1887.55,386.5 1887.45,386.7 1886.6,387.6 1885.35,388.2 1883.9,388.85 1882.9,388.65 M1880.3,332.65 Q1907.35,358.5 1907.65,383.45 L1908.3,383.45 M1765.7,340.55 Q1761.25,352.45 1757.6,364.75 1753.95,377 1750.9,389.45 1748.95,397.35 1746.55,405.15 1742.7,417.6 1741.75,430.55 1741.55,433.6 1741.75,436.55 1742.5,449.4 1740.45,462.3 1739.8,466.6 1737.9,470.5 1736.5,473.35 1735.15,476.15 1733.4,473.8 1732.9,470.7 1728.95,446.3 1730.8,421.85 1731.1,417.95 1731.8,414.05 1733,407.6 1734.05,401.15 1735.05,395.2 1737.25,389.55 1741.8,377.8 1746.65,366.25 1753.05,351.2 1765.7,340.55Z M1752.65,401.05 Q1755.25,403.5 1758.3,404.1 1759.2,404.3 1762.5,404.3 1764.35,404.3 1765.2,402.7 1766.05,401.05 1769,401.05 1770.95,401.05 1775.25,401.45 1779.1,401.7 1781.35,401.05 1786.9,399.5 1791.95,399.15 1793.3,399.05 1797.6,399.05" test="Parrot"/>
      <path id="Layer2_0_4_STROKES" stroke="#0F0" stroke-width="2" stroke-linejoin="round" stroke-linecap="round" fill="none" d="M1912.05,410.05 Q1912.85,408.8 1912.85,406.6 1912.85,405.05 1910.7,395.45 1908.45,385.7 1907.65,384.1" test="Parrot"/>
      <path id="Layer2_0_5_STROKES" stroke="#FF0" stroke-width="2" stroke-linejoin="round" stroke-linecap="round" fill="none" d="M1908.95,443.3 L1914.8,443.3 Q1914.5,441.9 1915.55,438.1 1916.75,433.95 1916.75,432.9 1916.75,426.6 1914.85,418.55 1913.25,411.75 1912.05,410.05 M1772.95,277.95 Q1762.45,283.3 1761.35,293 1760.85,297.45 1760.55,302 1776.1,304.65 1782.2,300.3 1784.25,293.4 1781.15,288.15 1778,282.85 1776.5,281.4 1775,279.9 1772.95,277.95Z M1766.4,303.3 Q1764.35,313.7 1775.25,314.4 1777.25,314.25 1778.9,313.45 1782.9,310.55 1781.35,301.9 M1745.5,457.7 Q1748.25,460.05 1749.4,461.4 1749.7,461.6 1752.95,461.6 1755.55,461.6 1764.15,458.35 1771.1,455.75 1773.15,455.25 1773.4,455.15 1773.55,455.15 1773.6,456.1 1778.15,456.35 1779.1,456.4 1783.95,456.4 1785.85,456.4 1789.8,455.45 1793.75,454.45 1795.3,454.45 1797.7,454.45 1797.9,454.4 1799.15,454 1799.55,451.75 1807.35,453.55 1805.4,453.05 M1773.15,455.25 Q1772.9,455.35 1773.1,455.7 1773.55,456.4 1773.55,455.15 M1759.15,502 Q1755.2,505.05 1754.3,507.55 1753.95,508.6 1753.95,512.7 1753.95,518.1 1757.1,519.85 1759.5,521.15 1769,522.15 1769,520.55 1768.7,519.2 1770.7,519.95 1773.55,520.85 L1776.8,520.85 Q1775.5,519.15 1774.45,517.75 1776.7,518.55 1778.75,519.55 L1783.3,519.55 1783.3,516.3 Q1779.7,513.1 1778.55,507.4 1777.95,501.85 1777.45,500.7 1776.8,500.7 1775.5,500.05 M1791.1,502.65 Q1790.25,512.85 1792,515.85 1793.5,518.45 1799.55,518.9 L1799.55,515 Q1799,513.9 1798.45,511 1798.6,511.2 1798.7,511.45 1801.55,517.2 1806.7,518.25 L1806.7,513.1 Q1807.35,514.15 1808.15,515.15 1810.75,518.25 1813.85,518.9 L1814.55,518.9 Q1814.9,516.8 1813.8,513.05 1812.55,508.9 1812.55,507.2 1812.55,503.75 1815.2,502 M1827.55,507.85 Q1826.75,520.65 1836,544.25 1839.95,554.35 1843.85,560.8 1848.05,567.7 1850.65,567.7 1854.35,567.7 1855.25,567.3 1858.3,565.95 1858.75,560.55 1861.1,561.7 1867.2,562.5 1872.55,562.5 1874.3,557 1875.4,553.6 1875.6,553.2 1876.55,551.45 1878.35,551.45 1879.05,551.45 1886.15,554.05 1887.25,554.05 1889.1,550.8 1891.1,547.3 1892.65,546.9 1896.35,545.85 1901.55,545.1 1905.25,544.15 1907,540.4 1908.05,540.4 1909.85,540.75 1911.65,541.05 1912.2,541.05 L1912.2,519.55 Q1909.6,510.65 1906.85,498.5 1904.75,489.3 1903.1,485.1" test="Parrot"/>
      <path id="Layer2_0_6_STROKES" stroke="#F0F" stroke-width="2" stroke-linejoin="round" stroke-linecap="round" fill="none" d="M1735.15,476.15 L1736.15,485.25 Q1737.75,495.1 1741,498.75 1742.65,500.6 1743.6,502.9 1744.15,504.15 1744.75,506.05 1745.25,507.4 1746.1,507.55 1747.15,507.7 1749.45,506.55 1752.5,505.05 1755.05,502.1 1756.8,500.05 1759.2,500.05 1761.5,500.05 1767.3,500.95 1772.45,501.4 1774.85,499.4 1777.2,497.45 1781.95,498.6 1784.65,499.25 1790.5,500.7 1793.45,501.05 1797.8,501.9 1801.3,502.3 1804.15,500.7 1807.1,499.05 1810.1,499.15 1812,499.25 1816.55,500.05 1819.15,500.4 1822,501.45 1823.8,501.8 1825,499.4 M1908.3,485.1 Q1910.65,473.1 1912,464.8 1913.1,458.3 1914.8,445.9 M1869.9,630.25 Q1872.7,638.35 1873.45,639.55 1874.55,641.3 1877.35,641.3 1878.4,641.3 1878.7,641.2 1880.1,640.55 1881.6,638.05 1900.3,656.9 1901.5,656.9 1909,656.9 1912.2,643.95 1914.15,636.15 1914.15,626.7 1914.15,620.75 1912.85,615.1 1912,611.4 1910.25,606.8" test="Parrot"/>
      <path id="Layer2_0_7_STROKES" stroke="#F60" stroke-width="2" stroke-linejoin="round" stroke-linecap="round" fill="none" d="M1852.25,572.25 Q1851.75,571.45 1851.2,570.65 1850.05,569 1849.65,569 L1849.65,572.25 Q1850.9,579.85 1859.25,602.3 1869.1,628.95 1874.1,628.95 1876.25,628.95 1881.15,624.75 1885.7,620.5 1885.8,620.5 1886.65,620.5 1889.05,621.15 1891.5,621.8 1892.3,621.8 1894.75,621.8 1897.15,616.9 1898.8,613.5 1899.2,611.35 1904.85,611.35 1907.7,608.45 1910.55,605.5 1913.5,605.5 1913.5,603.25 1913.85,598.25 1914.15,593.25 1914.15,592.75 1914.15,588.2 1911.25,578.1 1907.95,566.7 1907.65,564.45 1907.15,560.95 1907.35,554.9 1907.65,548.55 1907.65,546.25 L1907,546.25" test="Parrot"/>
    </g>
    <g id="JuryBoxFront">
      <path fill="#000" stroke="none" d="M-106.15,514.35 L-128.45,488.3 -130.3,617.25 Q-122.122,617.251 -110.65,617.25 L-106.15,514.35 M2835.9,500.95 L2834.55,500.95 2816.7,518.5 2816.7,613 Q2827.184,613.017 2835.9,613 L2835.9,500.95 M2664.45,512.95 Q2589.95,514.65 2515.6,518.9 2440.15,522.55 2364.65,523 2287.25,523.45 2209.85,523.35 2134.35,523.25 2058.85,523 1979.05,522.75 1899.25,521.8 1820.55,520.9 1741.9,519.6 1663.8,518.35 1585.7,520.35 1508.4,522.3 1431.05,526.5 1355.8,529.75 1280.4,528.6 1201,527.35 1121.65,522.45 1047.7,517.5 973.45,516.45 899.55,515.45 825.6,516.1 746.25,516.8 666.9,518 587.25,519.25 507.65,520.45 428.6,521.65 349.45,522.95 272.45,524.25 195.4,524.85 118.65,525.45 41.7,523.95 -32.45,522.5 -106.15,514.35 L-110.65,617.25 Q95.308,617.16 1364.15,615.15 2572.023,613.195 2816.7,613 L2816.7,518.5 Q2740.75,511.25 2664.45,512.95 M2496.75,502.85 Q2491.544,503.094 2486.35,503.3 2410.4,505.8 2334.45,505.8 2311.436,505.8 2288.4,505.8 2232.871,505.815 2177.3,505.85 2169.062,505.856 2160.8,505.85 2089.507,505.781 2018.15,504.75 1995.275,504.422 1972.4,503.75 1949.518,503.598 1926.6,503.4 1909.452,503.302 1892.25,503.15 1875.086,502.697 1857.9,502.45 1778.2,501.35 1698.45,500.55 1636.413,499.94 1574.4,502.65 1565.306,503.077 1556.2,503.55 1481.15,507 1406.25,510.95 L1246.2,511.75 Q1165.9,507.9 1085.7,502.95 1013.05,497.9 939.95,497.2 860.9,496.4 781.95,497.5 704.85,498.6 627.65,500.15 555,501.65 482.3,503.2 408.4,504.75 334.4,505.95 256.45,507.2 178.3,506.2 102.6,505.25 27,500.25 -50.8,495.6 -128.45,488.3 L-106.15,514.35 Q-32.45,522.5 41.7,523.95 118.65,525.45 195.4,524.85 272.45,524.25 349.45,522.95 428.6,521.65 507.65,520.45 587.25,519.25 666.9,518 746.25,516.8 825.6,516.1 899.55,515.45 973.45,516.45 1047.7,517.5 1121.65,522.45 1201,527.35 1280.4,528.6 1355.8,529.75 1431.05,526.5 1508.4,522.3 1585.7,520.35 1663.8,518.35 1741.9,519.6 1820.55,520.9 1899.25,521.8 1979.05,522.75 2058.85,523 2134.35,523.25 2209.85,523.35 2287.25,523.45 2364.65,523 2440.15,522.55 2515.6,518.9 2589.95,514.65 2664.45,512.95 2740.75,511.25 2816.7,518.5 L2834.55,500.95 2834.6,500.15 Q2816.212,498.494 2797.8,496.85 2783.702,495.536 2769.6,494.6 2709.635,490.798 2649.45,494.4 2573.181,499.691 2496.75,502.85Z" test="JuryBoxFront"/>
      <path id="Layer1_0_1_STROKES" stroke="#F60" stroke-width="2" stroke-linejoin="round" stroke-linecap="round" fill="none" d="M2834.625,500.175 Q2816.212,498.494 2797.8,496.85 2783.702,495.536 2769.6,494.625 2709.635,490.798 2649.45,494.4 2573.181,499.691 2496.75,502.875 2491.544,503.094 2486.35,503.3 2410.4,505.8 2334.45,505.8 2311.436,505.8 2288.425,505.8 2232.871,505.815 2177.3,505.85 2169.062,505.856 2160.825,505.85 2089.507,505.781 2018.15,504.75 1995.275,504.422 1972.4,503.775 1949.518,503.598 1926.625,503.425 1909.452,503.302 1892.275,503.175 1875.086,502.697 1857.9,502.45 1778.2,501.35 1698.45,500.55 1636.413,499.94 1574.425,502.675 1565.306,503.077 1556.2,503.55 1481.15,507 1406.25,510.95 L1246.2,511.75 Q1165.9,507.9 1085.7,502.95 1013.05,497.9 939.95,497.2 860.9,496.4 781.95,497.5 704.85,498.6 627.65,500.15 555,501.65 482.3,503.2 408.4,504.75 334.4,505.95 256.45,507.2 178.3,506.2 102.6,505.25 27,500.25 -50.8,495.6 -128.45,488.3 L-106.15,514.35 Q-32.45,522.5 41.7,523.95 118.65,525.45 195.4,524.85 272.45,524.25 349.45,522.95 428.6,521.65 507.65,520.45 587.25,519.25 666.9,518 746.25,516.8 825.6,516.1 899.55,515.45 973.45,516.45 1047.7,517.5 1121.65,522.45 1201,527.35 1280.4,528.6 1355.8,529.75 1431.05,526.5 1508.4,522.3 1585.7,520.35 1663.8,518.35 1741.9,519.6 1820.55,520.9 1899.25,521.8 1979.05,522.75 2058.85,523 2134.35,523.25 2209.85,523.35 2287.25,523.45 2364.65,523 2440.15,522.55 2515.6,518.9 2589.95,514.65 2664.45,512.95 2740.75,511.25 2816.7,518.5 L2834.55,500.95 M2834.625,500.175 Q2835.262,500.242 2835.9,500.3 L2835.9,500.95 2835.9,613 2835.9,624.2 M2816.7,624.2 L2816.7,613.025 M-110.65,617.25 L-110.95,624.2 M2816.7,613.025 L2816.7,518.5 M-130.4,624.2 L-130.3,617.25 -128.45,488.3 M-106.15,514.35 L-110.65,617.25" test="JuryBoxFront"/>
    </g>
  </g>
</svg>