<?xml version="1.0" encoding="utf-8"?>
<svg id="EdithAnim12" image-rendering="inherit" baseProfile="basic" version="1.1" x="0px" y="0px" width="800" height="600" xmlns="http://www.w3.org/2000/svg" xmlns:xlink="http://www.w3.org/1999/xlink">
  <g id="14_JurorParrotf21r1" overflow="visible">
    <g id="JurorsBack">
      <path fill="#000" stroke="none" d="M758.42,132.33 Q756.42,133.01 754.5,133.85 737.1,140.73 725.34,155.21 712.98,170.41 713.82,190.05 714.62,209.25 724.62,225.73 729.82,234.33 745.98,242.29 754.3,246.37 761.06,248.13 767.3,249.73 772.22,249.33 774.9,249.13 778.18,247.81 786.46,244.49 798.62,234.25 805.54,228.41 810.66,222.69 815.86,216.89 816.78,213.89 820.42,202.25 820.1,190.01 819.54,170.41 808.34,154.57 803.26,147.45 795.62,142.89 778.78,132.81 759.02,134.21 L758.42,132.33 M742.42,182.05 L738.46,184.97 742.42,182.05 M779.06,173.09 L775.06,176.01 779.06,173.09 M774.5,226.97 Q773.38,226.77 772.26,226.61 773.38,226.77 774.5,226.97 786.02,228.57 792.1,218.61 786.02,228.57 774.5,226.97 M538.66,138.21 Q530.1,140.41 522.7,145.25 515.42,149.97 509.14,156.17 502.74,162.57 498.66,170.73 494.54,179.09 493.54,188.25 492.54,197.37 494.62,206.25 496.7,215.33 501.26,223.33 505.82,231.29 512.34,237.73 519.1,244.37 527.54,248.61 532.18,251.01 537.18,252.33 540.98,253.29 544.98,253.65 547.46,253.57 549.94,253.29 556.74,252.49 563.3,250.29 572.3,247.29 579.86,241.45 587.38,235.57 592.02,227.05 596.3,219.17 598.42,210.53 600.54,201.89 599.78,192.97 598.98,183.61 594.82,175.05 590.86,166.85 584.9,160.01 579.1,153.37 572.46,147.53 565.34,141.37 556.22,138.57 547.54,135.81 538.66,138.21 M564.02,177.33 Q566.06,178.65 566.06,180.49 566.06,178.65 564.02,177.33 561.94,176.01 559.02,176.01 561.94,176.01 564.02,177.33 M532.82,174.85 Q534.7,175.97 534.7,177.57 534.7,175.97 532.82,174.85 530.94,173.73 528.3,173.73 530.94,173.73 532.82,174.85 M526.26,231.09 Q526.14,231.21 526.14,231.45 526.14,231.21 526.26,231.09 529.7,227.89 532.78,231.09 529.7,227.89 526.26,231.09 M314.66,141.81 L314.94,142.53 319.78,141.17 314.94,142.53 Q308.42,145.01 302.7,149.05 296.18,153.73 291.58,160.29 287.46,166.13 284.94,172.93 282.54,179.53 281.82,186.53 281.06,193.69 282.1,200.69 283.22,208.13 286.5,214.93 289.62,221.49 294.94,226.53 300.3,231.61 306.94,235.09 311.3,237.41 316.06,238.61 318.9,239.29 321.9,239.61 328.74,240.61 335.58,239.17 336.14,239.05 336.74,238.93 343.26,237.37 349.3,234.29 355.74,230.89 360.98,225.93 366.26,220.85 370.02,214.33 373.62,208.21 375.34,201.29 377.06,194.45 376.58,187.45 376.06,180.13 373.9,173.21 371.78,166.41 367.94,160.53 364.1,154.61 358.94,149.53 353.46,144.21 346.58,141.05 339.54,137.81 331.62,137.61 324.9,138.29 318.26,140.37 316.66,140.85 315.02,141.21 L314.66,141.81 M327.78,174.13 L333.22,174.77 327.78,174.13 M332.22,222.01 Q334.18,220.61 334.18,218.61 334.18,220.61 332.22,222.01 330.26,223.41 327.46,223.41 330.26,223.41 332.22,222.01 M307.94,180.01 L302.5,179.37 307.94,180.01 M1172.18,135.93 Q1163.78,137.81 1156.14,142.05 1147.86,146.69 1141.9,154.09 1136.3,161.05 1133.86,169.61 1131.3,178.41 1130.9,187.65 1130.5,196.65 1131.66,205.61 1132.78,214.49 1137.78,221.93 1142.94,229.61 1150.46,234.85 1157.74,239.97 1166.06,243.13 1174.9,246.41 1184.34,246.85 1193.34,247.61 1201.74,244.21 1210.54,240.73 1216.86,233.53 1223.22,226.33 1227.18,217.77 1231.14,209.17 1232.78,199.73 1234.34,190.73 1233.22,181.61 1232.06,172.09 1227.78,163.41 1223.54,154.93 1216.58,148.57 1210.66,143.13 1203.82,138.89 1197.3,134.81 1189.98,132.33 L1189.38,134.21 Q1180.66,134.17 1172.18,135.93 M1197.06,177.57 L1200.9,180.49 1197.06,177.57 M1165.38,180.49 L1169.22,183.41 1165.38,180.49 M1165.3,221.77 Q1165.98,221.61 1166.66,221.49 1165.98,221.61 1165.3,221.77 1160.06,223.25 1157.38,218.61 1160.06,223.25 1165.3,221.77 M948.5,166.65 Q944.54,174.57 943.02,183.17 941.46,191.89 942.74,200.61 944.1,209.97 948.78,218.01 953.42,225.97 960.74,231.45 968.34,237.05 977.38,239.33 979.06,239.73 980.7,240.01 986.58,240.93 992.5,240.13 994.18,239.85 995.86,239.49 1004.94,237.53 1012.82,232.89 1020.94,228.25 1026.66,221.01 1032.42,213.73 1035.1,204.85 1037.7,196.37 1037.02,187.41 1036.34,178.69 1033.14,170.65 1029.66,162.05 1023.86,154.81 1018.22,147.81 1010.34,143.41 1002.58,139.09 993.62,139.17 984.3,139.25 975.22,141.17 L974.86,141.81 975.14,142.53 979.98,141.17 975.14,142.53 Q967.02,146.13 960.1,151.93 952.74,158.13 948.5,166.65 M968.14,180.01 L962.7,179.37 968.14,180.01 M987.98,174.13 L993.42,174.77 987.98,174.13 M987.66,223.41 Q990.46,223.41 992.42,222.01 994.38,220.61 994.38,218.61 994.38,220.61 992.42,222.01 990.46,223.41 987.66,223.41Z" test="JurorsBack" vector-effect="non-scaling-stroke" stroke-width="1"/>
      <path id="Layer3_0_1_STROKES" stroke="#FFF" stroke-width="1.6" stroke-linejoin="round" stroke-linecap="round" fill="none" d="M975.14,142.53 Q967.02,146.13 960.1,151.93 952.74,158.13 948.5,166.65 944.54,174.57 943.02,183.17 941.46,191.89 942.74,200.61 944.1,209.97 948.78,218.01 953.42,225.97 960.74,231.45 968.34,237.05 977.38,239.33 979.06,239.73 980.7,240.01 986.58,240.93 992.5,240.13 994.18,239.85 995.86,239.49 1004.94,237.53 1012.82,232.89 1020.94,228.25 1026.66,221.01 1032.42,213.73 1035.1,204.85 1037.7,196.37 1037.02,187.41 1036.34,178.69 1033.14,170.65 1029.66,162.05 1023.86,154.81 1018.22,147.81 1010.34,143.41 1002.58,139.09 993.62,139.17 984.3,139.25 975.22,141.17 L974.86,141.81 M979.98,141.17 L975.14,142.53 M968.14,180.01 L962.7,179.37 M987.98,174.13 L993.42,174.77 M987.66,223.41 Q990.46,223.41 992.42,222.01 994.38,220.61 994.38,218.61 M1189.38,134.21 Q1180.66,134.17 1172.18,135.93 1163.78,137.81 1156.14,142.05 1147.86,146.69 1141.9,154.09 1136.3,161.05 1133.86,169.61 1131.3,178.41 1130.9,187.65 1130.5,196.65 1131.66,205.61 1132.78,214.49 1137.78,221.93 1142.94,229.61 1150.46,234.85 1157.74,239.97 1166.06,243.13 1174.9,246.41 1184.34,246.85 1193.34,247.61 1201.74,244.21 1210.54,240.73 1216.86,233.53 1223.22,226.33 1227.18,217.77 1231.14,209.17 1232.78,199.73 1234.34,190.73 1233.22,181.61 1232.06,172.09 1227.78,163.41 1223.54,154.93 1216.58,148.57 1210.66,143.13 1203.82,138.89 1197.3,134.81 1189.98,132.33 L1181.38,130.85 M1197.06,177.57 L1200.9,180.49 M1165.38,180.49 L1169.22,183.41 M1157.38,218.61 Q1160.06,223.25 1165.3,221.77 1165.98,221.61 1166.66,221.49 M1187.02,251.77 Q1187.82,252.77 1188.66,253.81 1211.82,283.13 1223.34,320.09 1230.34,342.61 1237.38,365.01 M1126.98,366.73 Q1131.38,322.97 1153.34,285.97 1164.18,267.65 1178.82,253.81 1179.9,252.77 1180.98,251.77 M940.5,372.21 Q944.98,345.13 952.54,319.17 955.82,307.89 958.94,296.49 965.82,271.37 975.98,249.05 977.34,246.09 978.82,243.33 M994.5,243.33 Q1003.34,257.93 1009.62,275.41 1018.54,300.25 1026.46,326.01 1031.74,343.13 1036.94,360.33 M319.78,141.17 L314.94,142.53 Q308.42,145.01 302.7,149.05 296.18,153.73 291.58,160.29 287.46,166.13 284.94,172.93 282.54,179.53 281.82,186.53 281.06,193.69 282.1,200.69 283.22,208.13 286.5,214.93 289.62,221.49 294.94,226.53 300.3,231.61 306.94,235.09 311.3,237.41 316.06,238.61 318.9,239.29 321.9,239.61 328.74,240.61 335.58,239.17 336.14,239.05 336.74,238.93 343.26,237.37 349.3,234.29 355.74,230.89 360.98,225.93 366.26,220.85 370.02,214.33 373.62,208.21 375.34,201.29 377.06,194.45 376.58,187.45 376.06,180.13 373.9,173.21 371.78,166.41 367.94,160.53 364.1,154.61 358.94,149.53 353.46,144.21 346.58,141.05 339.54,137.81 331.62,137.61 324.9,138.29 318.26,140.37 316.66,140.85 315.02,141.21 L314.66,141.81 M327.78,174.13 L333.22,174.77 M327.46,223.41 Q330.26,223.41 332.22,222.01 334.18,220.61 334.18,218.61 M544.98,253.65 Q547.46,253.57 549.94,253.29 556.74,252.49 563.3,250.29 572.3,247.29 579.86,241.45 587.38,235.57 592.02,227.05 596.3,219.17 598.42,210.53 600.54,201.89 599.78,192.97 598.98,183.61 594.82,175.05 590.86,166.85 584.9,160.01 579.1,153.37 572.46,147.53 565.34,141.37 556.22,138.57 547.54,135.81 538.66,138.21 530.1,140.41 522.7,145.25 515.42,149.97 509.14,156.17 502.74,162.57 498.66,170.73 494.54,179.09 493.54,188.25 492.54,197.37 494.62,206.25 496.7,215.33 501.26,223.33 505.82,231.29 512.34,237.73 519.1,244.37 527.54,248.61 532.18,251.01 537.18,252.33 540.98,253.29 544.98,253.65Z M559.02,176.01 Q561.94,176.01 564.02,177.33 566.06,178.65 566.06,180.49 M528.3,173.73 Q530.94,173.73 532.82,174.85 534.7,175.97 534.7,177.57 M759.02,134.21 Q778.78,132.81 795.62,142.89 803.26,147.45 808.34,154.57 819.54,170.41 820.1,190.01 820.42,202.25 816.78,213.89 815.86,216.89 810.66,222.69 805.54,228.41 798.62,234.25 786.46,244.49 778.18,247.81 774.9,249.13 772.22,249.33 767.3,249.73 761.06,248.13 754.3,246.37 745.98,242.29 729.82,234.33 724.62,225.73 714.62,209.25 713.82,190.05 712.98,170.41 725.34,155.21 737.1,140.73 754.5,133.85 756.42,133.01 758.42,132.33 M742.42,182.05 L738.46,184.97 M779.06,173.09 L775.06,176.01 M792.1,218.61 Q786.02,228.57 774.5,226.97 773.38,226.77 772.26,226.61 M307.94,180.01 L302.5,179.37 M281.02,346.97 Q281.98,341.17 283.58,335.45 289.58,313.81 295.62,292.09 302.14,268.77 311.7,247.41 312.34,245.97 314.38,241.93 M818.3,355.37 Q815.18,329.09 805.58,305.65 796.18,282.57 785.82,260.01 783.78,255.61 781.3,251.93 M759.26,251.93 Q756.38,258.69 754.9,266.41 753.02,276.17 750.62,285.65 744.98,307.85 740.58,330.53 738.18,343.05 735.82,355.37 M552.34,256.85 Q556.86,263.77 560.62,271.41 569.78,290.09 578.22,308.97 585.74,325.81 590.58,344.05 M532.78,231.09 Q529.7,227.89 526.26,231.09 526.14,231.21 526.14,231.45 M495.26,344.05 Q497.22,337.81 499.74,331.77 508.86,310.21 518.14,288.57 524.94,272.65 533.54,258.25 533.94,257.53 534.38,256.85 M338.14,242.33 Q345.62,253.17 349.42,262.81 358.3,285.33 366.22,308.73 371.5,324.21 376.74,339.77" test="JurorsBack"/>
    </g>
    <g id="Tween-1">
      <g id="JurorsFront">
        <path fill="#000" stroke="none" d="M669.226,275.215 Q662.497,275.896 655.849,277.979 654.247,278.459 652.605,278.82 L652.245,279.42 652.485,280.101 657.371,278.78 652.485,280.101 Q645.997,282.624 640.27,286.669 633.742,291.355 629.136,297.924 625.011,303.771 622.487,310.579 620.084,317.188 619.364,324.196 618.603,331.365 619.644,338.374 620.765,345.823 624.049,352.632 627.173,359.2 632.5,364.246 637.867,369.333 644.515,372.817 648.885,375.139 653.606,376.301 656.494,377.041 659.494,377.343 666.342,378.344 673.191,376.902 673.76,376.781 674.312,376.622 680.882,375.113 686.928,372.016 693.376,368.612 698.623,363.646 703.909,358.559 707.674,352.031 711.278,345.903 713,338.975 714.723,332.126 714.242,325.117 713.721,317.788 711.559,310.86 709.436,304.051 705.591,298.164 701.746,292.236 696.58,287.15 691.093,281.823 684.204,278.659 677.156,275.415 669.226,275.215 M645.516,317.668 L640.069,317.027 645.516,317.668 M665.381,311.781 L670.828,312.422 665.381,311.781 M665.061,361.122 Q667.864,361.122 669.827,359.721 671.789,358.319 671.789,356.316 671.789,358.319 669.827,359.721 667.864,361.122 665.061,361.122 M446.187,260.917 L445.587,262.84 Q407.659,260.757 392.641,295.16 384.15,314.664 388.876,335.33 395.164,362.885 422.758,372.817 427.363,374.409 432.49,375.621 434.816,376.159 437.216,376.622 438.224,376.808 439.739,376.862 441.232,376.854 443.144,376.622 444.476,376.465 445.747,376.261 476.769,371.234 486.838,337.573 497.331,302.489 471.419,276.377 460.685,265.643 446.187,260.917 M453.276,306.254 L457.121,309.178 453.276,306.254 M421.557,309.178 L425.401,312.101 421.557,309.178 M421.477,350.509 Q422.157,350.349 422.838,350.229 422.157,350.349 421.477,350.509 416.19,351.991 413.547,347.345 416.19,351.991 421.477,350.509 M270.328,356.917 Q275.534,337.453 267.044,319.31 260.315,304.932 249.702,293.158 239.089,281.423 223.509,279.701 202.603,279.941 223.389,280.021 204.045,282.544 188.305,293.959 171.364,306.214 167.319,326.599 163.314,346.825 171.564,365.528 179.254,383.07 195.114,393.883 202.232,398.687 210.373,399.931 213.237,400.371 216.22,400.371 218.612,400.691 220.906,400.772 237.76,401.351 250.783,389.278 265.241,375.941 270.328,356.917 M214.939,327 Q216.821,328.121 216.821,329.723 216.821,328.121 214.939,327 213.056,325.878 210.413,325.878 213.056,325.878 214.939,327 M237.166,327.841 Q239.249,329.162 239.249,331.005 239.249,329.162 237.166,327.841 235.124,326.519 232.2,326.519 235.124,326.519 237.166,327.841 M188.626,361.763 L207.85,368.171 188.626,361.763 M1165.245,271.811 L1164.644,269.888 Q1162.642,270.609 1160.719,271.45 1143.298,278.339 1131.523,292.837 1119.148,308.056 1119.989,327.721 1120.79,346.945 1130.802,363.445 1136.009,372.056 1152.189,380.026 1160.508,384.102 1167.248,385.833 1173.533,387.459 1178.462,387.075 1181.144,386.859 1184.429,385.553 1192.734,382.243 1204.895,371.976 1211.823,366.129 1216.95,360.402 1222.156,354.594 1223.077,351.59 1226.722,339.936 1226.401,327.681 1225.841,308.056 1214.627,292.196 1209.54,285.067 1201.891,280.502 1185.03,270.409 1165.245,271.811 M1148.624,319.711 L1144.659,322.634 1148.624,319.711 M1185.31,310.739 L1181.305,313.663 1185.31,310.739 M1180.744,364.687 Q1179.623,364.487 1178.502,364.326 1179.623,364.487 1180.744,364.687 1192.279,366.289 1198.366,356.316 1192.279,366.289 1180.744,364.687 M945.17,276.176 Q936.479,273.413 927.588,275.816 919.018,278.019 911.608,282.865 904.319,287.591 898.031,293.798 891.623,300.206 887.538,308.377 883.413,316.747 882.412,325.918 881.411,335.05 883.493,343.941 885.576,353.032 890.142,361.042 894.707,369.012 901.235,375.46 908.004,382.109 916.454,386.354 921.117,388.753 926.066,390.039 929.911,391.052 933.916,391.4 936.411,391.304 938.882,391 945.676,390.24 952.259,388.036 961.27,385.032 968.84,379.185 976.369,373.298 981.015,364.767 985.3,356.877 987.423,348.226 989.546,339.576 988.785,330.644 987.984,321.273 983.819,312.702 979.854,304.492 973.886,297.643 968.079,290.995 961.431,285.148 954.302,278.98 945.17,276.176 M952.94,314.985 Q955.023,316.306 955.023,318.149 955.023,316.306 952.94,314.985 950.897,313.663 947.974,313.663 950.897,313.663 952.94,314.985 M921.741,312.502 Q923.623,313.623 923.623,315.225 923.623,313.623 921.741,312.502 919.859,311.38 917.215,311.38 919.859,311.38 921.741,312.502 M915.173,368.812 Q915.053,368.932 915.053,369.172 915.053,368.932 915.173,368.812 918.617,365.608 921.701,368.812 918.617,365.608 915.173,368.812 M1366.576,289.553 Q1359.207,295.761 1354.962,304.291 1350.997,312.221 1349.475,320.832 1347.913,329.563 1349.195,338.294 1350.556,347.666 1355.242,355.716 1359.888,363.686 1367.217,369.172 1374.827,374.779 1383.878,377.062 1385.541,377.467 1387.202,377.703 1393.081,378.659 1398.977,377.823 1400.684,377.602 1402.381,377.222 1411.472,375.26 1419.362,370.614 1427.492,365.968 1433.22,358.719 1438.987,351.43 1441.67,342.539 1444.273,334.049 1443.593,325.077 1442.912,316.347 1439.708,308.296 1436.223,299.686 1430.416,292.437 1424.769,285.428 1416.879,281.022 1409.11,276.697 1400.138,276.777 1390.807,276.857 1381.715,278.78 L1381.355,279.42 1381.635,280.141 1386.481,278.78 1381.635,280.141 Q1373.505,283.746 1366.576,289.553 M1394.491,311.781 L1399.938,312.422 1394.491,311.781 M1374.626,317.668 L1369.18,317.027 1374.626,317.668 M1394.171,361.122 Q1396.974,361.122 1398.937,359.721 1400.899,358.319 1400.899,356.316 1400.899,358.319 1398.937,359.721 1396.974,361.122 1394.171,361.122Z" test="JurorsFront" vector-effect="non-scaling-stroke" stroke-width="1"/>
        <path id="Layer4_0_1_STROKES" stroke="#FFF" stroke-width="1.602" stroke-linejoin="round" stroke-linecap="round" fill="none" d="M1381.635,280.141 Q1373.505,283.746 1366.576,289.553 1359.207,295.761 1354.962,304.291 1350.997,312.221 1349.475,320.832 1347.913,329.563 1349.195,338.294 1350.556,347.666 1355.242,355.716 1359.888,363.686 1367.217,369.172 1374.827,374.779 1383.878,377.062 1385.541,377.467 1387.202,377.723 1393.081,378.659 1398.997,377.843 1400.684,377.602 1402.381,377.222 1411.472,375.26 1419.362,370.614 1427.492,365.968 1433.22,358.719 1438.987,351.43 1441.67,342.539 1444.273,334.049 1443.593,325.077 1442.912,316.347 1439.708,308.296 1436.223,299.686 1430.416,292.437 1424.769,285.428 1416.879,281.022 1409.11,276.697 1400.138,276.777 1390.807,276.857 1381.715,278.78 L1381.355,279.42 M1386.481,278.78 L1381.635,280.141 M1394.491,311.781 L1399.938,312.422 M1374.626,317.668 L1369.18,317.027 M933.916,391.4 Q936.411,391.304 938.882,391.02 945.676,390.24 952.259,388.036 961.27,385.032 968.84,379.185 976.369,373.298 981.015,364.767 985.3,356.877 987.423,348.226 989.546,339.576 988.785,330.644 987.984,321.273 983.819,312.702 979.854,304.492 973.886,297.643 968.079,290.995 961.431,285.148 954.302,278.98 945.17,276.176 936.479,273.413 927.588,275.816 919.018,278.019 911.608,282.865 904.319,287.591 898.031,293.798 891.623,300.206 887.538,308.377 883.413,316.747 882.412,325.918 881.411,335.05 883.493,343.941 885.576,353.032 890.142,361.042 894.707,369.012 901.235,375.46 908.004,382.109 916.454,386.354 921.117,388.753 926.086,390.059 929.911,391.052 933.916,391.4Z M947.974,313.663 Q950.897,313.663 952.96,314.985 955.023,316.306 955.023,318.149 M917.215,311.38 Q919.859,311.38 921.741,312.502 923.623,313.623 923.623,315.225 M1165.245,271.811 Q1185.03,270.409 1201.891,280.502 1209.54,285.067 1214.627,292.196 1225.841,308.056 1226.401,327.681 1226.722,339.936 1223.077,351.59 1222.156,354.594 1216.95,360.402 1211.823,366.129 1204.895,371.976 1192.734,382.243 1184.429,385.553 1181.144,386.859 1178.462,387.075 1173.533,387.459 1167.268,385.853 1160.508,384.102 1152.189,380.026 1136.009,372.056 1130.802,363.445 1120.79,346.945 1119.989,327.721 1119.148,308.056 1131.523,292.837 1143.298,278.339 1160.719,271.45 1162.642,270.609 1164.644,269.909 M1148.624,319.711 L1144.659,322.634 M1185.31,310.739 L1181.305,313.663 M1198.366,356.316 Q1192.279,366.289 1180.744,364.687 1179.623,364.487 1178.502,364.326 M1224.599,493.247 Q1221.475,466.935 1211.863,443.465 1202.452,420.356 1192.079,397.768 1190.037,393.363 1187.553,389.678 M1165.485,389.678 Q1162.615,396.441 1161.12,404.176 1159.238,413.948 1156.835,423.44 1151.188,445.668 1146.782,468.376 1144.379,480.912 1142.016,493.247 M884.134,481.913 Q886.097,475.665 888.62,469.618 897.751,448.031 907.043,426.364 913.866,410.41 922.442,396.006 922.858,395.303 923.283,394.604 M941.285,394.604 Q945.805,401.552 949.576,409.182 958.747,427.886 967.198,446.789 974.727,463.65 979.573,481.913 M921.701,368.812 Q918.617,365.608 915.173,368.812 915.053,368.932 915.053,369.172 M1394.171,361.122 Q1396.974,361.122 1398.937,359.721 1400.899,358.319 1400.899,356.316 M1346.952,510.108 Q1351.438,482.995 1359.007,457.002 1362.291,445.708 1365.415,434.294 1372.304,409.142 1382.476,386.794 1383.835,383.838 1385.32,381.067 M1401.019,381.067 Q1409.885,395.68 1416.158,413.187 1425.089,438.058 1433.019,463.851 1438.306,480.992 1443.512,498.214 M210.413,325.878 Q213.056,325.878 214.939,327 216.821,328.121 216.821,329.723 M232.2,326.519 Q235.124,326.519 237.186,327.841 239.249,329.162 239.249,331.005 M223.389,280.021 Q204.045,282.544 188.305,293.959 171.364,306.214 167.319,326.599 163.314,346.825 171.564,365.528 179.254,383.07 195.114,393.883 202.232,398.687 210.373,399.931 213.237,400.371 216.22,400.371 218.612,400.691 220.926,400.772 237.76,401.351 250.783,389.278 265.241,375.941 270.328,356.917 275.534,337.453 267.044,319.31 260.315,304.932 249.702,293.158 239.089,281.423 223.529,279.701 M446.187,260.937 L437.577,259.476 M445.587,262.84 Q407.659,260.757 392.641,295.16 384.15,314.664 388.876,335.33 395.164,362.885 422.758,372.817 427.363,374.409 432.49,375.621 434.816,376.159 437.236,376.622 438.224,376.808 439.739,376.862 441.232,376.854 443.164,376.622 444.476,376.465 445.747,376.261 476.769,371.234 486.838,337.573 497.331,302.489 471.419,276.377 460.685,265.643 446.187,260.937 M453.276,306.254 L457.121,309.178 M421.557,309.178 L425.401,312.101 M413.547,347.345 Q416.19,351.991 421.477,350.509 422.157,350.349 422.838,350.229 M652.505,280.121 Q645.997,282.624 640.27,286.669 633.742,291.355 629.136,297.924 625.011,303.771 622.487,310.579 620.084,317.188 619.364,324.196 618.603,331.365 619.644,338.374 620.765,345.823 624.049,352.632 627.173,359.2 632.5,364.246 637.867,369.333 644.515,372.817 648.885,375.139 653.626,376.321 656.494,377.041 659.494,377.343 666.342,378.344 673.191,376.902 673.76,376.781 674.332,376.642 680.882,375.113 686.928,372.016 693.376,368.612 698.623,363.646 703.909,358.559 707.674,352.031 711.278,345.903 713,338.975 714.723,332.126 714.242,325.117 713.721,317.788 711.559,310.86 709.436,304.051 705.591,298.164 701.746,292.236 696.58,287.15 691.093,281.823 684.204,278.659 677.156,275.415 669.226,275.215 662.497,275.896 655.849,277.979 654.247,278.459 652.605,278.82 L652.245,279.42 M657.371,278.78 L652.505,280.121 M645.516,317.668 L640.069,317.027 M665.381,311.781 L670.828,312.422 M166.879,490.924 Q174.849,471.741 183.7,452.997 191.91,435.615 200.441,418.674 203.285,413.007 207.529,405.137 M665.061,361.122 Q667.864,361.122 669.827,359.721 671.789,358.319 671.789,356.316 M675.754,380.066 Q683.23,390.937 687.048,400.572 695.939,423.12 703.869,446.549 709.156,462.048 714.402,477.628 M618.563,484.837 Q619.524,479.03 621.126,473.302 627.133,451.635 633.181,429.888 639.709,406.539 649.281,385.152 649.935,383.695 651.964,379.666 M448.37,380.226 Q469.732,412.903 479.389,446.589 485.476,467.936 491.924,488.962 M383.429,488.962 Q390.918,444.987 412.786,407.54 420.248,394.713 429.527,380.226 M223.109,405.137 Q227.953,414.792 231.88,422.319 241.091,439.901 249.382,457.923 256.791,473.983 261.917,490.924 M188.626,361.763 L207.85,368.171" test="JurorsFront"/>
      </g>
    </g>
    <g id="Parrot">
      <path id="Layer2_0_1_STROKES" stroke="#FFF" stroke-width="2" stroke-linejoin="round" stroke-linecap="round" fill="none" d="M1790.45,248.55 Q1794.15,249 1797.45,251.95 1801.45,255.5 1799.95,261.15 1798.45,266.8 1795.65,269.65 1792.85,272.45 1789.25,272.35 1785.6,272.25 1783,270.15 1780.35,268.05 1779.7,264.5 1779.1,261.1 1779.95,257.95 1780.75,255.1 1781.8,253.4 1782.8,251.65 1784.9,250.55 1786.95,249.4 1790.45,248.55Z M1790.85,260.3 Q1790.35,259.65 1789.6,259.55 1788.8,259.45 1788.75,259.45 1788.45,259.45 1788.1,259.75 1787.25,260.5 1787.95,262 1788.55,263.25 1789.9,262.75 1790.85,262.4 1791,261.7 1791.15,261.2 1791.15,261 1791.2,260.6 1790.85,260.3Z M1746.1,251.05 Q1748.3,250.85 1751.25,254.25 1754.15,257.55 1753.95,262.2 1753.75,266.75 1751.65,269.55 1749.6,272.3 1746.05,272.2 1742.45,272.05 1739.65,269.8 1736.5,267.4 1736.65,263.6 1736.9,258.4 1738.65,255.3 1741.05,251 1746.1,251.05Z M1748.75,261.85 Q1748.4,261.25 1747.75,261.2 1747,261.1 1746.95,261.1 1746.75,261.1 1746.4,261.35 1745.65,262.05 1746.3,263.4 1746.85,264.55 1747.95,264.05 1748.75,263.75 1748.9,263.1 1749,262.7 1749,262.5 1749.1,262.15 1748.75,261.85Z" test="Parrot"/>
      <path id="Layer2_0_2_STROKES" stroke="#F00" stroke-width="2" stroke-linejoin="round" stroke-linecap="round" fill="none" d="M1812,278.95 Q1815,279.55 1815.75,279.65 1816.5,279.75 1818,279.75 1820.15,279.75 1824,277.35 M1805.6,304.55 L1807.05,304.95 Q1808.75,305.35 1810,305.35 1810.75,305.35 1812.85,303.95 1814.8,302.65 1815.2,302.15 M1848,327.85 Q1839.15,318.25 1836.25,305.6 1833.8,294.8 1835.3,279.15 1836.65,265.35 1829.6,252.45 1821.8,238.2 1809.05,232.7 1796.3,227.15 1786.45,226.2 1776.6,225.2 1767.2,228.65 1757.75,232.1 1750.85,239.05 1744,245.9 1743.75,247.45 M1741.9,316.95 Q1741.45,330 1734.95,340.6 M1774.4,305.35 Q1776.65,307.85 1778.1,310.6 1778.3,310.95 1780.8,310.95 1782.1,310.95 1783.85,310.45 1784.2,310.35 1787.2,309.35" test="Parrot"/>
      <path id="Layer2_0_3_STROKES" stroke="#0FF" stroke-width="2" stroke-linejoin="round" stroke-linecap="round" fill="none" d="M1739.55,334 L1738.9,337.9 Q1739.8,338.35 1740.9,338.45 1741.6,338.55 1743.1,338.55 1747.25,338.55 1750.35,335 1753.5,331.4 1755.8,331.4 1756.6,331.4 1761,332.05 1765.35,332.7 1766.2,332.7 1771.15,332.7 1772.15,330.45 1773.1,328.15 1776.9,328.15 1777.75,328.15 1780.85,328.8 1784,329.45 1784.8,329.45 1785.35,329.45 1787.3,327.5 1789.2,325.55 1791.6,325.55 1792.45,325.55 1795.7,326.2 1798.95,326.85 1799.75,326.85 1800.65,326.85 1803.15,325.55 1804.4,324.9 1805.6,324.25 1805.75,324.25 1808.75,325.55 1812.1,326.85 1813.7,326.85 1815.75,326.85 1818.4,325.9 1819.7,325.4 1820.85,324.9 1822.85,324.9 1832.9,327.2 1841.25,329.1 1845,329.4 1845.75,329.45 1846.3,329.45 M1775.35,352.3 Q1774.8,354.15 1773,370.95 1771.25,387.2 1770.15,390.05 1768.6,394.25 1768.05,404.95 1767.45,416.3 1768.85,423.25 1770.4,430.95 1777.65,452 1785.1,473.6 1788.4,479.25 1789.95,481.95 1794.65,489.25 1798.45,495.15 1801.4,500.75 1805.3,508.15 1808.4,511.1 1811.55,514.15 1816.4,515.1 1819.65,515.75 1824.7,516.95 1828.1,517.35 1828.1,514.45 1828.1,506.35 1836.55,510.55 1842.5,513.5 1844.55,513.9 1847.85,514.55 1849.6,511.85 1850.9,509.9 1852.65,506.55 1854.55,503.95 1858.7,502.7 1861.4,501.9 1863.8,503.7 1864.45,504.2 1865.9,498.8 1867.55,492.7 1870.15,486 L1872.4,480.55 Q1873.05,476.65 1875,467.55 1876.7,459.55 1875.9,449.45 1874.9,437.25 1870.45,427.85 1870.2,427.35 1859.05,405.3 1851.95,391.2 1849.6,384.2 1847.85,378.95 1844.5,371.6 1842.15,366.5 1841.8,363.35 M1877.45,383.85 Q1876.85,383.5 1875.95,383.5 1875.8,383.5 1868.15,386.1 1866.5,385.2 1864.5,384.15 1864.15,386.05 1862.8,387.5 1861.65,388.7 1860.9,388.7 1859.25,388.7 1857.9,387.5 1856.8,386.55 1856.7,386.75 1855.85,387.65 1854.6,388.25 1853.15,388.9 1852.15,388.7 M1849.55,332.7 Q1876.6,358.55 1876.9,383.5 L1877.55,383.5 M1734.95,340.6 Q1730.5,352.5 1726.85,364.8 1723.2,377.05 1720.15,389.5 1718.2,397.4 1715.8,405.2 1711.95,417.65 1711,430.6 1710.8,433.65 1711,436.6 1711.75,449.45 1709.7,462.35 1709.05,466.65 1707.15,470.55 1705.75,473.4 1704.4,476.2 1702.65,473.85 1702.15,470.75 1698.2,446.35 1700.05,421.9 1700.35,418 1701.05,414.1 1702.25,407.65 1703.3,401.2 1704.3,395.25 1706.5,389.6 1711.05,377.85 1715.9,366.3 1722.3,351.25 1734.95,340.6Z M1721.9,401.1 Q1724.5,403.55 1727.55,404.15 1728.45,404.35 1731.75,404.35 1733.6,404.35 1734.45,402.75 1735.3,401.1 1738.25,401.1 1740.2,401.1 1744.5,401.5 1748.35,401.75 1750.6,401.1 1756.15,399.55 1761.2,399.2 1762.55,399.1 1766.85,399.1" test="Parrot"/>
      <path id="Layer2_0_4_STROKES" stroke="#0F0" stroke-width="2" stroke-linejoin="round" stroke-linecap="round" fill="none" d="M1881.3,410.1 Q1882.1,408.85 1882.1,406.65 1882.1,405.1 1879.95,395.5 1877.7,385.75 1876.9,384.15" test="Parrot"/>
      <path id="Layer2_0_5_STROKES" stroke="#FF0" stroke-width="2" stroke-linejoin="round" stroke-linecap="round" fill="none" d="M1878.2,443.35 L1884.05,443.35 Q1883.75,441.95 1884.8,438.15 1886,434 1886,432.95 1886,426.65 1884.1,418.6 1882.5,411.8 1881.3,410.1 M1742.2,278 Q1731.7,283.35 1730.6,293.05 1730.1,297.5 1729.8,302.05 1745.35,304.7 1751.45,300.35 1753.5,293.45 1750.4,288.2 1747.25,282.9 1745.75,281.45 1744.25,279.95 1742.2,278Z M1735.65,303.35 Q1733.6,313.75 1744.5,314.45 1746.5,314.3 1748.15,313.5 1752.15,310.6 1750.6,301.95 M1714.75,457.75 Q1717.5,460.1 1718.65,461.45 1718.95,461.65 1722.2,461.65 1724.8,461.65 1733.4,458.4 1740.35,455.8 1742.4,455.3 1742.65,455.2 1742.8,455.2 1742.85,456.15 1747.4,456.4 1748.35,456.45 1753.2,456.45 1755.1,456.45 1759.05,455.5 1763,454.5 1764.55,454.5 1766.95,454.5 1767.15,454.45 1768.4,454.05 1768.8,451.8 1776.6,453.6 1774.65,453.1 M1742.4,455.3 Q1742.15,455.4 1742.35,455.75 1742.8,456.45 1742.8,455.2 M1728.4,502.05 Q1724.45,505.1 1723.55,507.6 1723.2,508.65 1723.2,512.75 1723.2,518.15 1726.35,519.9 1728.75,521.2 1738.25,522.2 1738.25,520.6 1737.95,519.25 1739.95,520 1742.8,520.9 L1746.05,520.9 Q1744.75,519.2 1743.7,517.8 1745.95,518.6 1748,519.6 L1752.55,519.6 1752.55,516.35 Q1748.95,513.15 1747.8,507.45 1747.2,501.9 1746.7,500.75 1746.05,500.75 1744.75,500.1 M1760.35,502.7 Q1759.5,512.9 1761.25,515.9 1762.75,518.5 1768.8,518.95 L1768.8,515.05 Q1768.25,513.95 1767.7,511.05 1767.85,511.25 1767.95,511.5 1770.8,517.25 1775.95,518.3 L1775.95,513.15 Q1776.6,514.2 1777.4,515.2 1780,518.3 1783.1,518.95 L1783.8,518.95 Q1784.15,516.85 1783.05,513.1 1781.8,508.95 1781.8,507.25 1781.8,503.8 1784.45,502.05 M1796.8,507.9 Q1796,520.7 1805.25,544.3 1809.2,554.4 1813.1,560.85 1817.3,567.75 1819.9,567.75 1823.6,567.75 1824.5,567.35 1827.55,566 1828,560.6 1830.35,561.75 1836.45,562.55 1841.8,562.55 1843.55,557.05 1844.65,553.65 1844.85,553.25 1845.8,551.5 1847.6,551.5 1848.3,551.5 1855.4,554.1 1856.5,554.1 1858.35,550.85 1860.35,547.35 1861.9,546.95 1865.6,545.9 1870.8,545.15 1874.5,544.2 1876.25,540.45 1877.3,540.45 1879.1,540.8 1880.9,541.1 1881.45,541.1 L1881.45,519.6 Q1878.85,510.7 1876.1,498.55 1874,489.35 1872.35,485.15" test="Parrot"/>
      <path id="Layer2_0_6_STROKES" stroke="#F0F" stroke-width="2" stroke-linejoin="round" stroke-linecap="round" fill="none" d="M1704.4,476.2 L1705.4,485.3 Q1707,495.15 1710.25,498.8 1711.9,500.65 1712.85,502.95 1713.4,504.2 1714,506.1 1714.5,507.45 1715.35,507.6 1716.4,507.75 1718.7,506.6 1721.75,505.1 1724.3,502.15 1726.05,500.1 1728.45,500.1 1730.75,500.1 1736.55,501 1741.7,501.45 1744.1,499.45 1746.45,497.5 1751.2,498.65 1753.9,499.3 1759.75,500.75 1762.7,501.1 1767.05,501.95 1770.55,502.35 1773.4,500.75 1776.35,499.1 1779.35,499.2 1781.25,499.3 1785.8,500.1 1788.4,500.45 1791.25,501.5 1793.05,501.85 1794.25,499.45 M1877.55,485.15 Q1879.9,473.15 1881.25,464.85 1882.35,458.35 1884.05,445.95 M1839.15,630.3 Q1841.95,638.4 1842.7,639.6 1843.8,641.35 1846.6,641.35 1847.65,641.35 1847.95,641.25 1849.35,640.6 1850.85,638.1 1869.55,656.95 1870.75,656.95 1878.25,656.95 1881.45,644 1883.4,636.2 1883.4,626.75 1883.4,620.8 1882.1,615.15 1881.25,611.45 1879.5,606.85" test="Parrot"/>
      <path id="Layer2_0_7_STROKES" stroke="#F60" stroke-width="2" stroke-linejoin="round" stroke-linecap="round" fill="none" d="M1821.5,572.3 Q1821,571.5 1820.45,570.7 1819.3,569.05 1818.9,569.05 L1818.9,572.3 Q1820.15,579.9 1828.5,602.35 1838.35,629 1843.35,629 1845.5,629 1850.4,624.8 1854.95,620.55 1855.05,620.55 1855.9,620.55 1858.3,621.2 1860.75,621.85 1861.55,621.85 1864,621.85 1866.4,616.95 1868.05,613.55 1868.45,611.4 1874.1,611.4 1876.95,608.5 1879.8,605.55 1882.75,605.55 1882.75,603.3 1883.1,598.3 1883.4,593.3 1883.4,592.8 1883.4,588.25 1880.5,578.15 1877.2,566.75 1876.9,564.5 1876.4,561 1876.6,554.95 1876.9,548.6 1876.9,546.3 L1876.25,546.3" test="Parrot"/>
    </g>
    <g id="JuryBoxFront">
      <path fill="#000" stroke="none" d="M-148.9,514.35 L-171.2,488.3 -173.05,617.25 Q-164.872,617.251 -153.4,617.25 L-148.9,514.35 M2793.15,500.95 L2791.8,500.95 2773.95,518.5 2773.95,613 Q2784.434,613.017 2793.15,613 L2793.15,500.95 M2621.7,512.95 Q2547.2,514.65 2472.85,518.9 2397.4,522.55 2321.9,523 2244.5,523.45 2167.1,523.35 2091.6,523.25 2016.1,523 1936.3,522.75 1856.5,521.8 1777.8,520.9 1699.15,519.6 1621.05,518.35 1542.95,520.35 1465.65,522.3 1388.3,526.5 1313.05,529.75 1237.65,528.6 1158.25,527.35 1078.9,522.45 1004.95,517.5 930.7,516.45 856.8,515.45 782.85,516.1 703.5,516.8 624.15,518 544.5,519.25 464.9,520.45 385.85,521.65 306.7,522.95 229.7,524.25 152.65,524.85 75.9,525.45 -1.05,523.95 -75.2,522.5 -148.9,514.35 L-153.4,617.25 Q52.558,617.16 1321.4,615.15 2529.273,613.195 2773.95,613 L2773.95,518.5 Q2698,511.25 2621.7,512.95 M2454,502.85 Q2448.794,503.094 2443.6,503.3 2367.65,505.8 2291.7,505.8 2268.686,505.8 2245.65,505.8 2190.121,505.815 2134.55,505.85 2126.312,505.856 2118.05,505.85 2046.757,505.781 1975.4,504.75 1952.525,504.422 1929.65,503.75 1906.768,503.598 1883.85,503.4 1866.702,503.302 1849.5,503.15 1832.336,502.697 1815.15,502.45 1735.45,501.35 1655.7,500.55 1593.663,499.94 1531.65,502.65 1522.556,503.077 1513.45,503.55 1438.4,507 1363.5,510.95 L1203.45,511.75 Q1123.15,507.9 1042.95,502.95 970.3,497.9 897.2,497.2 818.15,496.4 739.2,497.5 662.1,498.6 584.9,500.15 512.25,501.65 439.55,503.2 365.65,504.75 291.65,505.95 213.7,507.2 135.55,506.2 59.85,505.25 -15.75,500.25 -93.55,495.6 -171.2,488.3 L-148.9,514.35 Q-75.2,522.5 -1.05,523.95 75.9,525.45 152.65,524.85 229.7,524.25 306.7,522.95 385.85,521.65 464.9,520.45 544.5,519.25 624.15,518 703.5,516.8 782.85,516.1 856.8,515.45 930.7,516.45 1004.95,517.5 1078.9,522.45 1158.25,527.35 1237.65,528.6 1313.05,529.75 1388.3,526.5 1465.65,522.3 1542.95,520.35 1621.05,518.35 1699.15,519.6 1777.8,520.9 1856.5,521.8 1936.3,522.75 2016.1,523 2091.6,523.25 2167.1,523.35 2244.5,523.45 2321.9,523 2397.4,522.55 2472.85,518.9 2547.2,514.65 2621.7,512.95 2698,511.25 2773.95,518.5 L2791.8,500.95 2791.85,500.15 Q2773.462,498.494 2755.05,496.85 2740.952,495.536 2726.85,494.6 2666.885,490.798 2606.7,494.4 2530.431,499.691 2454,502.85Z" test="JuryBoxFront"/>
      <path id="Layer1_0_1_STROKES" stroke="#F60" stroke-width="2" stroke-linejoin="round" stroke-linecap="round" fill="none" d="M2791.875,500.175 Q2773.462,498.494 2755.05,496.85 2740.952,495.536 2726.85,494.625 2666.885,490.798 2606.7,494.4 2530.431,499.691 2454,502.875 2448.794,503.094 2443.6,503.3 2367.65,505.8 2291.7,505.8 2268.686,505.8 2245.675,505.8 2190.121,505.815 2134.55,505.85 2126.312,505.856 2118.075,505.85 2046.757,505.781 1975.4,504.75 1952.525,504.422 1929.65,503.775 1906.768,503.598 1883.875,503.425 1866.702,503.302 1849.525,503.175 1832.336,502.697 1815.15,502.45 1735.45,501.35 1655.7,500.55 1593.663,499.94 1531.675,502.675 1522.556,503.077 1513.45,503.55 1438.4,507 1363.5,510.95 L1203.45,511.75 Q1123.15,507.9 1042.95,502.95 970.3,497.9 897.2,497.2 818.15,496.4 739.2,497.5 662.1,498.6 584.9,500.15 512.25,501.65 439.55,503.2 365.65,504.75 291.65,505.95 213.7,507.2 135.55,506.2 59.85,505.25 -15.75,500.25 -93.55,495.6 -171.2,488.3 L-148.9,514.35 Q-75.2,522.5 -1.05,523.95 75.9,525.45 152.65,524.85 229.7,524.25 306.7,522.95 385.85,521.65 464.9,520.45 544.5,519.25 624.15,518 703.5,516.8 782.85,516.1 856.8,515.45 930.7,516.45 1004.95,517.5 1078.9,522.45 1158.25,527.35 1237.65,528.6 1313.05,529.75 1388.3,526.5 1465.65,522.3 1542.95,520.35 1621.05,518.35 1699.15,519.6 1777.8,520.9 1856.5,521.8 1936.3,522.75 2016.1,523 2091.6,523.25 2167.1,523.35 2244.5,523.45 2321.9,523 2397.4,522.55 2472.85,518.9 2547.2,514.65 2621.7,512.95 2698,511.25 2773.95,518.5 L2791.8,500.95 M2791.875,500.175 Q2792.512,500.242 2793.15,500.3 L2793.15,500.95 2793.15,613 2793.15,624.2 M2773.95,624.2 L2773.95,613.025 M-153.4,617.25 L-153.7,624.2 M2773.95,613.025 L2773.95,518.5 M-173.15,624.2 L-173.05,617.25 -171.2,488.3 M-148.9,514.35 L-153.4,617.25" test="JuryBoxFront"/>
    </g>
  </g>
</svg>