<?xml version="1.0" encoding="utf-8"?>
<svg id="EdithAnim12" image-rendering="inherit" baseProfile="basic" version="1.1" x="0px" y="0px" width="800" height="600" xmlns="http://www.w3.org/2000/svg" xmlns:xlink="http://www.w3.org/1999/xlink">
  <g id="14_JurorParrotf22r1" overflow="visible">
    <g id="JurorsBack">
      <path fill="#000" stroke="none" d="M728.92,132.33 Q726.92,133.01 725,133.85 707.6,140.73 695.84,155.21 683.48,170.41 684.32,190.05 685.12,209.25 695.12,225.73 700.32,234.33 716.48,242.29 724.8,246.37 731.56,248.13 737.8,249.73 742.72,249.33 745.4,249.13 748.68,247.81 756.96,244.49 769.12,234.25 776.04,228.41 781.16,222.69 786.36,216.89 787.28,213.89 790.92,202.25 790.6,190.01 790.04,170.41 778.84,154.57 773.76,147.45 766.12,142.89 749.28,132.81 729.52,134.21 L728.92,132.33 M712.92,182.05 L708.96,184.97 712.92,182.05 M749.56,173.09 L745.56,176.01 749.56,173.09 M745,226.97 Q743.88,226.77 742.76,226.61 743.88,226.77 745,226.97 756.52,228.57 762.6,218.61 756.52,228.57 745,226.97 M509.16,138.21 Q500.6,140.41 493.2,145.25 485.92,149.97 479.64,156.17 473.24,162.57 469.16,170.73 465.04,179.09 464.04,188.25 463.04,197.37 465.12,206.25 467.2,215.33 471.76,223.33 476.32,231.29 482.84,237.73 489.6,244.37 498.04,248.61 502.68,251.01 507.68,252.33 511.48,253.29 515.48,253.65 517.96,253.57 520.44,253.29 527.24,252.49 533.8,250.29 542.8,247.29 550.36,241.45 557.88,235.57 562.52,227.05 566.8,219.17 568.92,210.53 571.04,201.89 570.28,192.97 569.48,183.61 565.32,175.05 561.36,166.85 555.4,160.01 549.6,153.37 542.96,147.53 535.84,141.37 526.72,138.57 518.04,135.81 509.16,138.21 M534.52,177.33 Q536.56,178.65 536.56,180.49 536.56,178.65 534.52,177.33 532.44,176.01 529.52,176.01 532.44,176.01 534.52,177.33 M503.32,174.85 Q505.2,175.97 505.2,177.57 505.2,175.97 503.32,174.85 501.44,173.73 498.8,173.73 501.44,173.73 503.32,174.85 M496.76,231.09 Q496.64,231.21 496.64,231.45 496.64,231.21 496.76,231.09 500.2,227.89 503.28,231.09 500.2,227.89 496.76,231.09 M285.16,141.81 L285.44,142.53 290.28,141.17 285.44,142.53 Q278.92,145.01 273.2,149.05 266.68,153.73 262.08,160.29 257.96,166.13 255.44,172.93 253.04,179.53 252.32,186.53 251.56,193.69 252.6,200.69 253.72,208.13 257,214.93 260.12,221.49 265.44,226.53 270.8,231.61 277.44,235.09 281.8,237.41 286.56,238.61 289.4,239.29 292.4,239.61 299.24,240.61 306.08,239.17 306.64,239.05 307.24,238.93 313.76,237.37 319.8,234.29 326.24,230.89 331.48,225.93 336.76,220.85 340.52,214.33 344.12,208.21 345.84,201.29 347.56,194.45 347.08,187.45 346.56,180.13 344.4,173.21 342.28,166.41 338.44,160.53 334.6,154.61 329.44,149.53 323.96,144.21 317.08,141.05 310.04,137.81 302.12,137.61 295.4,138.29 288.76,140.37 287.16,140.85 285.52,141.21 L285.16,141.81 M298.28,174.13 L303.72,174.77 298.28,174.13 M302.72,222.01 Q304.68,220.61 304.68,218.61 304.68,220.61 302.72,222.01 300.76,223.41 297.96,223.41 300.76,223.41 302.72,222.01 M278.44,180.01 L273,179.37 278.44,180.01 M1142.68,135.93 Q1134.28,137.81 1126.64,142.05 1118.36,146.69 1112.4,154.09 1106.8,161.05 1104.36,169.61 1101.8,178.41 1101.4,187.65 1101,196.65 1102.16,205.61 1103.28,214.49 1108.28,221.93 1113.44,229.61 1120.96,234.85 1128.24,239.97 1136.56,243.13 1145.4,246.41 1154.84,246.85 1163.84,247.61 1172.24,244.21 1181.04,240.73 1187.36,233.53 1193.72,226.33 1197.68,217.77 1201.64,209.17 1203.28,199.73 1204.84,190.73 1203.72,181.61 1202.56,172.09 1198.28,163.41 1194.04,154.93 1187.08,148.57 1181.16,143.13 1174.32,138.89 1167.8,134.81 1160.48,132.33 L1159.88,134.21 Q1151.16,134.17 1142.68,135.93 M1167.56,177.57 L1171.4,180.49 1167.56,177.57 M1135.88,180.49 L1139.72,183.41 1135.88,180.49 M1135.8,221.77 Q1136.48,221.61 1137.16,221.49 1136.48,221.61 1135.8,221.77 1130.56,223.25 1127.88,218.61 1130.56,223.25 1135.8,221.77 M919,166.65 Q915.04,174.57 913.52,183.17 911.96,191.89 913.24,200.61 914.6,209.97 919.28,218.01 923.92,225.97 931.24,231.45 938.84,237.05 947.88,239.33 949.56,239.73 951.2,240.01 957.08,240.93 963,240.13 964.68,239.85 966.36,239.49 975.44,237.53 983.32,232.89 991.44,228.25 997.16,221.01 1002.92,213.73 1005.6,204.85 1008.2,196.37 1007.52,187.41 1006.84,178.69 1003.64,170.65 1000.16,162.05 994.36,154.81 988.72,147.81 980.84,143.41 973.08,139.09 964.12,139.17 954.8,139.25 945.72,141.17 L945.36,141.81 945.64,142.53 950.48,141.17 945.64,142.53 Q937.52,146.13 930.6,151.93 923.24,158.13 919,166.65 M938.64,180.01 L933.2,179.37 938.64,180.01 M958.48,174.13 L963.92,174.77 958.48,174.13 M958.16,223.41 Q960.96,223.41 962.92,222.01 964.88,220.61 964.88,218.61 964.88,220.61 962.92,222.01 960.96,223.41 958.16,223.41Z" test="JurorsBack" vector-effect="non-scaling-stroke" stroke-width="1"/>
      <path id="Layer3_0_1_STROKES" stroke="#FFF" stroke-width="1.6" stroke-linejoin="round" stroke-linecap="round" fill="none" d="M945.64,142.53 Q937.52,146.13 930.6,151.93 923.24,158.13 919,166.65 915.04,174.57 913.52,183.17 911.96,191.89 913.24,200.61 914.6,209.97 919.28,218.01 923.92,225.97 931.24,231.45 938.84,237.05 947.88,239.33 949.56,239.73 951.2,240.01 957.08,240.93 963,240.13 964.68,239.85 966.36,239.49 975.44,237.53 983.32,232.89 991.44,228.25 997.16,221.01 1002.92,213.73 1005.6,204.85 1008.2,196.37 1007.52,187.41 1006.84,178.69 1003.64,170.65 1000.16,162.05 994.36,154.81 988.72,147.81 980.84,143.41 973.08,139.09 964.12,139.17 954.8,139.25 945.72,141.17 L945.36,141.81 M950.48,141.17 L945.64,142.53 M938.64,180.01 L933.2,179.37 M958.48,174.13 L963.92,174.77 M958.16,223.41 Q960.96,223.41 962.92,222.01 964.88,220.61 964.88,218.61 M1159.88,134.21 Q1151.16,134.17 1142.68,135.93 1134.28,137.81 1126.64,142.05 1118.36,146.69 1112.4,154.09 1106.8,161.05 1104.36,169.61 1101.8,178.41 1101.4,187.65 1101,196.65 1102.16,205.61 1103.28,214.49 1108.28,221.93 1113.44,229.61 1120.96,234.85 1128.24,239.97 1136.56,243.13 1145.4,246.41 1154.84,246.85 1163.84,247.61 1172.24,244.21 1181.04,240.73 1187.36,233.53 1193.72,226.33 1197.68,217.77 1201.64,209.17 1203.28,199.73 1204.84,190.73 1203.72,181.61 1202.56,172.09 1198.28,163.41 1194.04,154.93 1187.08,148.57 1181.16,143.13 1174.32,138.89 1167.8,134.81 1160.48,132.33 L1151.88,130.85 M1167.56,177.57 L1171.4,180.49 M1135.88,180.49 L1139.72,183.41 M1127.88,218.61 Q1130.56,223.25 1135.8,221.77 1136.48,221.61 1137.16,221.49 M1157.52,251.77 Q1158.32,252.77 1159.16,253.81 1182.32,283.13 1193.84,320.09 1200.84,342.61 1207.88,365.01 M1097.48,366.73 Q1101.88,322.97 1123.84,285.97 1134.68,267.65 1149.32,253.81 1150.4,252.77 1151.48,251.77 M911,372.21 Q915.48,345.13 923.04,319.17 926.32,307.89 929.44,296.49 936.32,271.37 946.48,249.05 947.84,246.09 949.32,243.33 M965,243.33 Q973.84,257.93 980.12,275.41 989.04,300.25 996.96,326.01 1002.24,343.13 1007.44,360.33 M290.28,141.17 L285.44,142.53 Q278.92,145.01 273.2,149.05 266.68,153.73 262.08,160.29 257.96,166.13 255.44,172.93 253.04,179.53 252.32,186.53 251.56,193.69 252.6,200.69 253.72,208.13 257,214.93 260.12,221.49 265.44,226.53 270.8,231.61 277.44,235.09 281.8,237.41 286.56,238.61 289.4,239.29 292.4,239.61 299.24,240.61 306.08,239.17 306.64,239.05 307.24,238.93 313.76,237.37 319.8,234.29 326.24,230.89 331.48,225.93 336.76,220.85 340.52,214.33 344.12,208.21 345.84,201.29 347.56,194.45 347.08,187.45 346.56,180.13 344.4,173.21 342.28,166.41 338.44,160.53 334.6,154.61 329.44,149.53 323.96,144.21 317.08,141.05 310.04,137.81 302.12,137.61 295.4,138.29 288.76,140.37 287.16,140.85 285.52,141.21 L285.16,141.81 M298.28,174.13 L303.72,174.77 M297.96,223.41 Q300.76,223.41 302.72,222.01 304.68,220.61 304.68,218.61 M515.48,253.65 Q517.96,253.57 520.44,253.29 527.24,252.49 533.8,250.29 542.8,247.29 550.36,241.45 557.88,235.57 562.52,227.05 566.8,219.17 568.92,210.53 571.04,201.89 570.28,192.97 569.48,183.61 565.32,175.05 561.36,166.85 555.4,160.01 549.6,153.37 542.96,147.53 535.84,141.37 526.72,138.57 518.04,135.81 509.16,138.21 500.6,140.41 493.2,145.25 485.92,149.97 479.64,156.17 473.24,162.57 469.16,170.73 465.04,179.09 464.04,188.25 463.04,197.37 465.12,206.25 467.2,215.33 471.76,223.33 476.32,231.29 482.84,237.73 489.6,244.37 498.04,248.61 502.68,251.01 507.68,252.33 511.48,253.29 515.48,253.65Z M529.52,176.01 Q532.44,176.01 534.52,177.33 536.56,178.65 536.56,180.49 M498.8,173.73 Q501.44,173.73 503.32,174.85 505.2,175.97 505.2,177.57 M729.52,134.21 Q749.28,132.81 766.12,142.89 773.76,147.45 778.84,154.57 790.04,170.41 790.6,190.01 790.92,202.25 787.28,213.89 786.36,216.89 781.16,222.69 776.04,228.41 769.12,234.25 756.96,244.49 748.68,247.81 745.4,249.13 742.72,249.33 737.8,249.73 731.56,248.13 724.8,246.37 716.48,242.29 700.32,234.33 695.12,225.73 685.12,209.25 684.32,190.05 683.48,170.41 695.84,155.21 707.6,140.73 725,133.85 726.92,133.01 728.92,132.33 M712.92,182.05 L708.96,184.97 M749.56,173.09 L745.56,176.01 M762.6,218.61 Q756.52,228.57 745,226.97 743.88,226.77 742.76,226.61 M278.44,180.01 L273,179.37 M251.52,346.97 Q252.48,341.17 254.08,335.45 260.08,313.81 266.12,292.09 272.64,268.77 282.2,247.41 282.84,245.97 284.88,241.93 M788.8,355.37 Q785.68,329.09 776.08,305.65 766.68,282.57 756.32,260.01 754.28,255.61 751.8,251.93 M729.76,251.93 Q726.88,258.69 725.4,266.41 723.52,276.17 721.12,285.65 715.48,307.85 711.08,330.53 708.68,343.05 706.32,355.37 M522.84,256.85 Q527.36,263.77 531.12,271.41 540.28,290.09 548.72,308.97 556.24,325.81 561.08,344.05 M503.28,231.09 Q500.2,227.89 496.76,231.09 496.64,231.21 496.64,231.45 M465.76,344.05 Q467.72,337.81 470.24,331.77 479.36,310.21 488.64,288.57 495.44,272.65 504.04,258.25 504.44,257.53 504.88,256.85 M308.64,242.33 Q316.12,253.17 319.92,262.81 328.8,285.33 336.72,308.73 342,324.21 347.24,339.77" test="JurorsBack"/>
    </g>
    <g id="Tween-1">
      <g id="JurorsFront">
        <path fill="#000" stroke="none" d="M638.076,275.215 Q631.347,275.896 624.699,277.979 623.097,278.459 621.455,278.82 L621.095,279.42 621.335,280.101 626.221,278.78 621.335,280.101 Q614.847,282.624 609.12,286.669 602.592,291.355 597.986,297.924 593.861,303.771 591.337,310.579 588.934,317.188 588.214,324.196 587.453,331.365 588.494,338.374 589.615,345.823 592.899,352.632 596.023,359.2 601.35,364.246 606.717,369.333 613.365,372.817 617.735,375.139 622.456,376.301 625.344,377.041 628.344,377.343 635.192,378.344 642.041,376.902 642.61,376.781 643.162,376.622 649.732,375.113 655.778,372.016 662.226,368.612 667.473,363.646 672.759,358.559 676.524,352.031 680.128,345.903 681.85,338.975 683.573,332.126 683.092,325.117 682.571,317.788 680.409,310.86 678.286,304.051 674.441,298.164 670.596,292.236 665.43,287.15 659.943,281.823 653.055,278.659 646.006,275.415 638.076,275.215 M614.366,317.668 L608.919,317.027 614.366,317.668 M634.231,311.781 L639.678,312.422 634.231,311.781 M633.911,361.122 Q636.714,361.122 638.677,359.721 640.639,358.319 640.639,356.316 640.639,358.319 638.677,359.721 636.714,361.122 633.911,361.122 M415.037,260.917 L414.437,262.84 Q376.509,260.757 361.491,295.16 353,314.664 357.726,335.33 364.014,362.885 391.608,372.817 396.213,374.409 401.34,375.621 403.666,376.159 406.066,376.622 407.074,376.808 408.589,376.862 410.082,376.854 411.994,376.622 413.326,376.465 414.597,376.261 445.619,371.234 455.688,337.573 466.181,302.489 440.269,276.377 429.535,265.643 415.037,260.917 M422.126,306.254 L425.971,309.178 422.126,306.254 M390.407,309.178 L394.251,312.101 390.407,309.178 M390.327,350.509 Q391.007,350.349 391.688,350.229 391.007,350.349 390.327,350.509 385.04,351.991 382.397,347.345 385.04,351.991 390.327,350.509 M239.178,356.917 Q244.384,337.453 235.894,319.31 229.165,304.932 218.552,293.158 207.939,281.423 192.359,279.701 171.453,279.941 192.239,280.021 172.895,282.544 157.155,293.959 140.214,306.214 136.169,326.599 132.164,346.825 140.414,365.528 148.104,383.07 163.964,393.883 171.082,398.687 179.223,399.931 182.087,400.371 185.07,400.371 187.462,400.691 189.756,400.772 206.61,401.351 219.633,389.278 234.091,375.941 239.178,356.917 M183.789,327 Q185.671,328.121 185.671,329.723 185.671,328.121 183.789,327 181.906,325.878 179.263,325.878 181.906,325.878 183.789,327 M206.016,327.841 Q208.099,329.162 208.099,331.005 208.099,329.162 206.016,327.841 203.974,326.519 201.05,326.519 203.974,326.519 206.016,327.841 M157.476,361.763 L176.7,368.171 157.476,361.763 M1134.095,271.811 L1133.494,269.888 Q1131.492,270.609 1129.569,271.45 1112.148,278.339 1100.373,292.837 1087.998,308.056 1088.839,327.721 1089.64,346.945 1099.652,363.445 1104.859,372.056 1121.039,380.026 1129.358,384.102 1136.098,385.833 1142.383,387.459 1147.312,387.075 1149.994,386.859 1153.279,385.553 1161.584,382.243 1173.745,371.976 1180.673,366.129 1185.8,360.402 1191.006,354.594 1191.927,351.59 1195.572,339.936 1195.251,327.681 1194.691,308.056 1183.477,292.196 1178.39,285.067 1170.741,280.502 1153.88,270.409 1134.095,271.811 M1117.474,319.711 L1113.509,322.634 1117.474,319.711 M1154.16,310.739 L1150.155,313.663 1154.16,310.739 M1149.594,364.687 Q1148.473,364.487 1147.352,364.326 1148.473,364.487 1149.594,364.687 1161.129,366.289 1167.216,356.316 1161.129,366.289 1149.594,364.687 M914.02,276.176 Q905.329,273.413 896.438,275.816 887.868,278.019 880.458,282.865 873.169,287.591 866.881,293.798 860.473,300.206 856.388,308.377 852.263,316.747 851.262,325.918 850.261,335.05 852.343,343.941 854.426,353.032 858.992,361.042 863.557,369.012 870.085,375.46 876.854,382.109 885.304,386.354 889.967,388.753 894.916,390.039 898.761,391.052 902.766,391.4 905.261,391.304 907.732,391 914.526,390.24 921.109,388.036 930.12,385.032 937.69,379.185 945.219,373.298 949.865,364.767 954.15,356.877 956.273,348.226 958.396,339.576 957.635,330.644 956.834,321.273 952.669,312.702 948.704,304.492 942.736,297.643 936.929,290.995 930.281,285.148 923.152,278.98 914.02,276.176 M921.79,314.985 Q923.873,316.306 923.873,318.149 923.873,316.306 921.79,314.985 919.747,313.663 916.824,313.663 919.747,313.663 921.79,314.985 M890.591,312.502 Q892.473,313.623 892.473,315.225 892.473,313.623 890.591,312.502 888.709,311.38 886.065,311.38 888.709,311.38 890.591,312.502 M884.023,368.812 Q883.903,368.932 883.903,369.172 883.903,368.932 884.023,368.812 887.467,365.608 890.551,368.812 887.467,365.608 884.023,368.812 M1335.426,289.553 Q1328.057,295.761 1323.812,304.291 1319.847,312.221 1318.325,320.832 1316.763,329.563 1318.045,338.294 1319.406,347.666 1324.092,355.716 1328.738,363.686 1336.067,369.172 1343.677,374.779 1352.728,377.062 1354.391,377.467 1356.052,377.703 1361.931,378.659 1367.827,377.823 1369.534,377.602 1371.231,377.222 1380.322,375.26 1388.212,370.614 1396.342,365.968 1402.07,358.719 1407.837,351.43 1410.52,342.539 1413.123,334.049 1412.443,325.077 1411.762,316.347 1408.558,308.296 1405.073,299.686 1399.266,292.437 1393.619,285.428 1385.729,281.022 1377.96,276.697 1368.988,276.777 1359.657,276.857 1350.565,278.78 L1350.205,279.42 1350.485,280.141 1355.331,278.78 1350.485,280.141 Q1342.355,283.746 1335.426,289.553 M1363.341,311.781 L1368.788,312.422 1363.341,311.781 M1343.476,317.668 L1338.03,317.027 1343.476,317.668 M1363.021,361.122 Q1365.824,361.122 1367.787,359.721 1369.749,358.319 1369.749,356.316 1369.749,358.319 1367.787,359.721 1365.824,361.122 1363.021,361.122Z" test="JurorsFront" vector-effect="non-scaling-stroke" stroke-width="1"/>
        <path id="Layer4_0_1_STROKES" stroke="#FFF" stroke-width="1.602" stroke-linejoin="round" stroke-linecap="round" fill="none" d="M1350.485,280.141 Q1342.355,283.746 1335.426,289.553 1328.057,295.761 1323.812,304.291 1319.847,312.221 1318.325,320.832 1316.763,329.563 1318.045,338.294 1319.406,347.666 1324.092,355.716 1328.738,363.686 1336.067,369.172 1343.677,374.779 1352.728,377.062 1354.391,377.467 1356.052,377.723 1361.931,378.659 1367.847,377.843 1369.534,377.602 1371.231,377.222 1380.322,375.26 1388.212,370.614 1396.342,365.968 1402.07,358.719 1407.837,351.43 1410.52,342.539 1413.123,334.049 1412.443,325.077 1411.762,316.347 1408.558,308.296 1405.073,299.686 1399.266,292.437 1393.619,285.428 1385.729,281.022 1377.96,276.697 1368.988,276.777 1359.657,276.857 1350.565,278.78 L1350.205,279.42 M1355.331,278.78 L1350.485,280.141 M1363.341,311.781 L1368.788,312.422 M1343.476,317.668 L1338.03,317.027 M902.766,391.4 Q905.261,391.304 907.732,391.02 914.526,390.24 921.109,388.036 930.12,385.032 937.69,379.185 945.219,373.298 949.865,364.767 954.15,356.877 956.273,348.226 958.396,339.576 957.635,330.644 956.834,321.273 952.669,312.702 948.704,304.492 942.736,297.643 936.929,290.995 930.281,285.148 923.152,278.98 914.02,276.176 905.329,273.413 896.438,275.816 887.868,278.019 880.458,282.865 873.169,287.591 866.881,293.798 860.473,300.206 856.388,308.377 852.263,316.747 851.262,325.918 850.261,335.05 852.343,343.941 854.426,353.032 858.992,361.042 863.557,369.012 870.085,375.46 876.854,382.109 885.304,386.354 889.967,388.753 894.936,390.059 898.761,391.052 902.766,391.4Z M916.824,313.663 Q919.747,313.663 921.81,314.985 923.873,316.306 923.873,318.149 M886.065,311.38 Q888.709,311.38 890.591,312.502 892.473,313.623 892.473,315.225 M1134.095,271.811 Q1153.88,270.409 1170.741,280.502 1178.39,285.067 1183.477,292.196 1194.691,308.056 1195.251,327.681 1195.572,339.936 1191.927,351.59 1191.006,354.594 1185.8,360.402 1180.673,366.129 1173.745,371.976 1161.584,382.243 1153.279,385.553 1149.994,386.859 1147.312,387.075 1142.383,387.459 1136.118,385.853 1129.358,384.102 1121.039,380.026 1104.859,372.056 1099.652,363.445 1089.64,346.945 1088.839,327.721 1087.998,308.056 1100.373,292.837 1112.148,278.339 1129.569,271.45 1131.492,270.609 1133.494,269.909 M1117.474,319.711 L1113.509,322.634 M1154.16,310.739 L1150.155,313.663 M1167.216,356.316 Q1161.129,366.289 1149.594,364.687 1148.473,364.487 1147.352,364.326 M1193.449,493.247 Q1190.325,466.935 1180.713,443.465 1171.302,420.356 1160.929,397.768 1158.887,393.363 1156.403,389.678 M1134.335,389.678 Q1131.465,396.441 1129.97,404.176 1128.088,413.948 1125.685,423.44 1120.038,445.668 1115.632,468.376 1113.229,480.912 1110.866,493.247 M852.984,481.913 Q854.947,475.665 857.47,469.618 866.601,448.031 875.893,426.364 882.716,410.41 891.292,396.006 891.708,395.303 892.133,394.604 M910.135,394.604 Q914.655,401.552 918.426,409.182 927.597,427.886 936.048,446.789 943.577,463.65 948.423,481.913 M890.551,368.812 Q887.467,365.608 884.023,368.812 883.903,368.932 883.903,369.172 M1363.021,361.122 Q1365.824,361.122 1367.787,359.721 1369.749,358.319 1369.749,356.316 M1315.802,510.108 Q1320.288,482.995 1327.857,457.002 1331.141,445.708 1334.265,434.294 1341.154,409.142 1351.326,386.794 1352.685,383.838 1354.17,381.067 M1369.869,381.067 Q1378.735,395.68 1385.008,413.187 1393.939,438.058 1401.869,463.851 1407.156,480.992 1412.362,498.214 M179.263,325.878 Q181.906,325.878 183.789,327 185.671,328.121 185.671,329.723 M201.05,326.519 Q203.974,326.519 206.036,327.841 208.099,329.162 208.099,331.005 M192.239,280.021 Q172.895,282.544 157.155,293.959 140.214,306.214 136.169,326.599 132.164,346.825 140.414,365.528 148.104,383.07 163.964,393.883 171.082,398.687 179.223,399.931 182.087,400.371 185.07,400.371 187.462,400.691 189.776,400.772 206.61,401.351 219.633,389.278 234.091,375.941 239.178,356.917 244.384,337.453 235.894,319.31 229.165,304.932 218.552,293.158 207.939,281.423 192.379,279.701 M415.037,260.937 L406.427,259.476 M414.437,262.84 Q376.509,260.757 361.491,295.16 353,314.664 357.726,335.33 364.014,362.885 391.608,372.817 396.213,374.409 401.34,375.621 403.666,376.159 406.086,376.622 407.074,376.808 408.589,376.862 410.082,376.854 412.014,376.622 413.326,376.465 414.597,376.261 445.619,371.234 455.688,337.573 466.181,302.489 440.269,276.377 429.535,265.643 415.037,260.937 M422.126,306.254 L425.971,309.178 M390.407,309.178 L394.251,312.101 M382.397,347.345 Q385.04,351.991 390.327,350.509 391.007,350.349 391.688,350.229 M621.355,280.121 Q614.847,282.624 609.12,286.669 602.592,291.355 597.986,297.924 593.861,303.771 591.337,310.579 588.934,317.188 588.214,324.196 587.453,331.365 588.494,338.374 589.615,345.823 592.899,352.632 596.023,359.2 601.35,364.246 606.717,369.333 613.365,372.817 617.735,375.139 622.476,376.321 625.344,377.041 628.344,377.343 635.192,378.344 642.041,376.902 642.61,376.781 643.182,376.642 649.732,375.113 655.778,372.016 662.226,368.612 667.473,363.646 672.759,358.559 676.524,352.031 680.128,345.903 681.85,338.975 683.573,332.126 683.092,325.117 682.571,317.788 680.409,310.86 678.286,304.051 674.441,298.164 670.596,292.236 665.43,287.15 659.943,281.823 653.055,278.659 646.006,275.415 638.076,275.215 631.347,275.896 624.699,277.979 623.097,278.459 621.455,278.82 L621.095,279.42 M626.221,278.78 L621.355,280.121 M614.366,317.668 L608.919,317.027 M634.231,311.781 L639.678,312.422 M135.729,490.924 Q143.699,471.741 152.55,452.997 160.76,435.615 169.291,418.674 172.135,413.007 176.379,405.137 M633.911,361.122 Q636.714,361.122 638.677,359.721 640.639,358.319 640.639,356.316 M644.604,380.066 Q652.08,390.937 655.898,400.572 664.789,423.12 672.719,446.549 678.006,462.048 683.252,477.628 M587.413,484.837 Q588.374,479.03 589.976,473.302 595.983,451.635 602.031,429.888 608.559,406.539 618.131,385.152 618.785,383.695 620.814,379.666 M417.22,380.226 Q438.582,412.903 448.239,446.589 454.326,467.936 460.774,488.962 M352.279,488.962 Q359.768,444.987 381.636,407.54 389.098,394.713 398.377,380.226 M191.959,405.137 Q196.803,414.792 200.73,422.319 209.941,439.901 218.232,457.923 225.641,473.983 230.767,490.924 M157.476,361.763 L176.7,368.171" test="JurorsFront"/>
      </g>
    </g>
    <g id="Parrot">
      <path id="Layer2_0_1_STROKES" stroke="#FFF" stroke-width="2" stroke-linejoin="round" stroke-linecap="round" fill="none" d="M1760,248.55 Q1763.7,249 1767,251.95 1771,255.5 1769.5,261.15 1768,266.8 1765.2,269.65 1762.4,272.45 1758.8,272.35 1755.15,272.25 1752.55,270.15 1749.9,268.05 1749.25,264.5 1748.65,261.1 1749.5,257.95 1750.3,255.1 1751.35,253.4 1752.35,251.65 1754.45,250.55 1756.5,249.4 1760,248.55Z M1760.4,260.3 Q1759.9,259.65 1759.15,259.55 1758.35,259.45 1758.3,259.45 1758,259.45 1757.65,259.75 1756.8,260.5 1757.5,262 1758.1,263.25 1759.45,262.75 1760.4,262.4 1760.55,261.7 1760.7,261.2 1760.7,261 1760.75,260.6 1760.4,260.3Z M1715.65,251.05 Q1717.85,250.85 1720.8,254.25 1723.7,257.55 1723.5,262.2 1723.3,266.75 1721.2,269.55 1719.15,272.3 1715.6,272.2 1712,272.05 1709.2,269.8 1706.05,267.4 1706.2,263.6 1706.45,258.4 1708.2,255.3 1710.6,251 1715.65,251.05Z M1718.3,261.85 Q1717.95,261.25 1717.3,261.2 1716.55,261.1 1716.5,261.1 1716.3,261.1 1715.95,261.35 1715.2,262.05 1715.85,263.4 1716.4,264.55 1717.5,264.05 1718.3,263.75 1718.45,263.1 1718.55,262.7 1718.55,262.5 1718.65,262.15 1718.3,261.85Z" test="Parrot"/>
      <path id="Layer2_0_2_STROKES" stroke="#F00" stroke-width="2" stroke-linejoin="round" stroke-linecap="round" fill="none" d="M1781.55,278.95 Q1784.55,279.55 1785.3,279.65 1786.05,279.75 1787.55,279.75 1789.7,279.75 1793.55,277.35 M1775.15,304.55 L1776.6,304.95 Q1778.3,305.35 1779.55,305.35 1780.3,305.35 1782.4,303.95 1784.35,302.65 1784.75,302.15 M1817.55,327.85 Q1808.7,318.25 1805.8,305.6 1803.35,294.8 1804.85,279.15 1806.2,265.35 1799.15,252.45 1791.35,238.2 1778.6,232.7 1765.85,227.15 1756,226.2 1746.15,225.2 1736.75,228.65 1727.3,232.1 1720.4,239.05 1713.55,245.9 1713.3,247.45 M1711.45,316.95 Q1711,330 1704.5,340.6 M1743.95,305.35 Q1746.2,307.85 1747.65,310.6 1747.85,310.95 1750.35,310.95 1751.65,310.95 1753.4,310.45 1753.75,310.35 1756.75,309.35" test="Parrot"/>
      <path id="Layer2_0_3_STROKES" stroke="#0FF" stroke-width="2" stroke-linejoin="round" stroke-linecap="round" fill="none" d="M1709.1,334 L1708.45,337.9 Q1709.35,338.35 1710.45,338.45 1711.15,338.55 1712.65,338.55 1716.8,338.55 1719.9,335 1723.05,331.4 1725.35,331.4 1726.15,331.4 1730.55,332.05 1734.9,332.7 1735.75,332.7 1740.7,332.7 1741.7,330.45 1742.65,328.15 1746.45,328.15 1747.3,328.15 1750.4,328.8 1753.55,329.45 1754.35,329.45 1754.9,329.45 1756.85,327.5 1758.75,325.55 1761.15,325.55 1762,325.55 1765.25,326.2 1768.5,326.85 1769.3,326.85 1770.2,326.85 1772.7,325.55 1773.95,324.9 1775.15,324.25 1775.3,324.25 1778.3,325.55 1781.65,326.85 1783.25,326.85 1785.3,326.85 1787.95,325.9 1789.25,325.4 1790.4,324.9 1792.4,324.9 1802.45,327.2 1810.8,329.1 1814.55,329.4 1815.3,329.45 1815.85,329.45 M1744.9,352.3 Q1744.35,354.15 1742.55,370.95 1740.8,387.2 1739.7,390.05 1738.15,394.25 1737.6,404.95 1737,416.3 1738.4,423.25 1739.95,430.95 1747.2,452 1754.65,473.6 1757.95,479.25 1759.5,481.95 1764.2,489.25 1768,495.15 1770.95,500.75 1774.85,508.15 1777.95,511.1 1781.1,514.15 1785.95,515.1 1789.2,515.75 1794.25,516.95 1797.65,517.35 1797.65,514.45 1797.65,506.35 1806.1,510.55 1812.05,513.5 1814.1,513.9 1817.4,514.55 1819.15,511.85 1820.45,509.9 1822.2,506.55 1824.1,503.95 1828.25,502.7 1830.95,501.9 1833.35,503.7 1834,504.2 1835.45,498.8 1837.1,492.7 1839.7,486 L1841.95,480.55 Q1842.6,476.65 1844.55,467.55 1846.25,459.55 1845.45,449.45 1844.45,437.25 1840,427.85 1839.75,427.35 1828.6,405.3 1821.5,391.2 1819.15,384.2 1817.4,378.95 1814.05,371.6 1811.7,366.5 1811.35,363.35 M1847,383.85 Q1846.4,383.5 1845.5,383.5 1845.35,383.5 1837.7,386.1 1836.05,385.2 1834.05,384.15 1833.7,386.05 1832.35,387.5 1831.2,388.7 1830.45,388.7 1828.8,388.7 1827.45,387.5 1826.35,386.55 1826.25,386.75 1825.4,387.65 1824.15,388.25 1822.7,388.9 1821.7,388.7 M1819.1,332.7 Q1846.15,358.55 1846.45,383.5 L1847.1,383.5 M1704.5,340.6 Q1700.05,352.5 1696.4,364.8 1692.75,377.05 1689.7,389.5 1687.75,397.4 1685.35,405.2 1681.5,417.65 1680.55,430.6 1680.35,433.65 1680.55,436.6 1681.3,449.45 1679.25,462.35 1678.6,466.65 1676.7,470.55 1675.3,473.4 1673.95,476.2 1672.2,473.85 1671.7,470.75 1667.75,446.35 1669.6,421.9 1669.9,418 1670.6,414.1 1671.8,407.65 1672.85,401.2 1673.85,395.25 1676.05,389.6 1680.6,377.85 1685.45,366.3 1691.85,351.25 1704.5,340.6Z M1691.45,401.1 Q1694.05,403.55 1697.1,404.15 1698,404.35 1701.3,404.35 1703.15,404.35 1704,402.75 1704.85,401.1 1707.8,401.1 1709.75,401.1 1714.05,401.5 1717.9,401.75 1720.15,401.1 1725.7,399.55 1730.75,399.2 1732.1,399.1 1736.4,399.1" test="Parrot"/>
      <path id="Layer2_0_4_STROKES" stroke="#0F0" stroke-width="2" stroke-linejoin="round" stroke-linecap="round" fill="none" d="M1850.85,410.1 Q1851.65,408.85 1851.65,406.65 1851.65,405.1 1849.5,395.5 1847.25,385.75 1846.45,384.15" test="Parrot"/>
      <path id="Layer2_0_5_STROKES" stroke="#FF0" stroke-width="2" stroke-linejoin="round" stroke-linecap="round" fill="none" d="M1847.75,443.35 L1853.6,443.35 Q1853.3,441.95 1854.35,438.15 1855.55,434 1855.55,432.95 1855.55,426.65 1853.65,418.6 1852.05,411.8 1850.85,410.1 M1711.75,278 Q1701.25,283.35 1700.15,293.05 1699.65,297.5 1699.35,302.05 1714.9,304.7 1721,300.35 1723.05,293.45 1719.95,288.2 1716.8,282.9 1715.3,281.45 1713.8,279.95 1711.75,278Z M1705.2,303.35 Q1703.15,313.75 1714.05,314.45 1716.05,314.3 1717.7,313.5 1721.7,310.6 1720.15,301.95 M1684.3,457.75 Q1687.05,460.1 1688.2,461.45 1688.5,461.65 1691.75,461.65 1694.35,461.65 1702.95,458.4 1709.9,455.8 1711.95,455.3 1712.2,455.2 1712.35,455.2 1712.4,456.15 1716.95,456.4 1717.9,456.45 1722.75,456.45 1724.65,456.45 1728.6,455.5 1732.55,454.5 1734.1,454.5 1736.5,454.5 1736.7,454.45 1737.95,454.05 1738.35,451.8 1746.15,453.6 1744.2,453.1 M1711.95,455.3 Q1711.7,455.4 1711.9,455.75 1712.35,456.45 1712.35,455.2 M1697.95,502.05 Q1694,505.1 1693.1,507.6 1692.75,508.65 1692.75,512.75 1692.75,518.15 1695.9,519.9 1698.3,521.2 1707.8,522.2 1707.8,520.6 1707.5,519.25 1709.5,520 1712.35,520.9 L1715.6,520.9 Q1714.3,519.2 1713.25,517.8 1715.5,518.6 1717.55,519.6 L1722.1,519.6 1722.1,516.35 Q1718.5,513.15 1717.35,507.45 1716.75,501.9 1716.25,500.75 1715.6,500.75 1714.3,500.1 M1729.9,502.7 Q1729.05,512.9 1730.8,515.9 1732.3,518.5 1738.35,518.95 L1738.35,515.05 Q1737.8,513.95 1737.25,511.05 1737.4,511.25 1737.5,511.5 1740.35,517.25 1745.5,518.3 L1745.5,513.15 Q1746.15,514.2 1746.95,515.2 1749.55,518.3 1752.65,518.95 L1753.35,518.95 Q1753.7,516.85 1752.6,513.1 1751.35,508.95 1751.35,507.25 1751.35,503.8 1754,502.05 M1766.35,507.9 Q1765.55,520.7 1774.8,544.3 1778.75,554.4 1782.65,560.85 1786.85,567.75 1789.45,567.75 1793.15,567.75 1794.05,567.35 1797.1,566 1797.55,560.6 1799.9,561.75 1806,562.55 1811.35,562.55 1813.1,557.05 1814.2,553.65 1814.4,553.25 1815.35,551.5 1817.15,551.5 1817.85,551.5 1824.95,554.1 1826.05,554.1 1827.9,550.85 1829.9,547.35 1831.45,546.95 1835.15,545.9 1840.35,545.15 1844.05,544.2 1845.8,540.45 1846.85,540.45 1848.65,540.8 1850.45,541.1 1851,541.1 L1851,519.6 Q1848.4,510.7 1845.65,498.55 1843.55,489.35 1841.9,485.15" test="Parrot"/>
      <path id="Layer2_0_6_STROKES" stroke="#F0F" stroke-width="2" stroke-linejoin="round" stroke-linecap="round" fill="none" d="M1673.95,476.2 L1674.95,485.3 Q1676.55,495.15 1679.8,498.8 1681.45,500.65 1682.4,502.95 1682.95,504.2 1683.55,506.1 1684.05,507.45 1684.9,507.6 1685.95,507.75 1688.25,506.6 1691.3,505.1 1693.85,502.15 1695.6,500.1 1698,500.1 1700.3,500.1 1706.1,501 1711.25,501.45 1713.65,499.45 1716,497.5 1720.75,498.65 1723.45,499.3 1729.3,500.75 1732.25,501.1 1736.6,501.95 1740.1,502.35 1742.95,500.75 1745.9,499.1 1748.9,499.2 1750.8,499.3 1755.35,500.1 1757.95,500.45 1760.8,501.5 1762.6,501.85 1763.8,499.45 M1847.1,485.15 Q1849.45,473.15 1850.8,464.85 1851.9,458.35 1853.6,445.95 M1808.7,630.3 Q1811.5,638.4 1812.25,639.6 1813.35,641.35 1816.15,641.35 1817.2,641.35 1817.5,641.25 1818.9,640.6 1820.4,638.1 1839.1,656.95 1840.3,656.95 1847.8,656.95 1851,644 1852.95,636.2 1852.95,626.75 1852.95,620.8 1851.65,615.15 1850.8,611.45 1849.05,606.85" test="Parrot"/>
      <path id="Layer2_0_7_STROKES" stroke="#F60" stroke-width="2" stroke-linejoin="round" stroke-linecap="round" fill="none" d="M1791.05,572.3 Q1790.55,571.5 1790,570.7 1788.85,569.05 1788.45,569.05 L1788.45,572.3 Q1789.7,579.9 1798.05,602.35 1807.9,629 1812.9,629 1815.05,629 1819.95,624.8 1824.5,620.55 1824.6,620.55 1825.45,620.55 1827.85,621.2 1830.3,621.85 1831.1,621.85 1833.55,621.85 1835.95,616.95 1837.6,613.55 1838,611.4 1843.65,611.4 1846.5,608.5 1849.35,605.55 1852.3,605.55 1852.3,603.3 1852.65,598.3 1852.95,593.3 1852.95,592.8 1852.95,588.25 1850.05,578.15 1846.75,566.75 1846.45,564.5 1845.95,561 1846.15,554.95 1846.45,548.6 1846.45,546.3 L1845.8,546.3" test="Parrot"/>
    </g>
    <g id="JuryBoxFront">
      <path fill="#000" stroke="none" d="M-191.3,514.35 L-213.6,488.3 -215.45,617.25 Q-207.272,617.251 -195.8,617.25 L-191.3,514.35 M2750.75,500.95 L2749.4,500.95 2731.55,518.5 2731.55,613 Q2742.034,613.017 2750.75,613 L2750.75,500.95 M2579.3,512.95 Q2504.8,514.65 2430.45,518.9 2355,522.55 2279.5,523 2202.1,523.45 2124.7,523.35 2049.2,523.25 1973.7,523 1893.9,522.75 1814.1,521.8 1735.4,520.9 1656.75,519.6 1578.65,518.35 1500.55,520.35 1423.25,522.3 1345.9,526.5 1270.65,529.75 1195.25,528.6 1115.85,527.35 1036.5,522.45 962.55,517.5 888.3,516.45 814.4,515.45 740.45,516.1 661.1,516.8 581.75,518 502.1,519.25 422.5,520.45 343.45,521.65 264.3,522.95 187.3,524.25 110.25,524.85 33.5,525.45 -43.45,523.95 -117.6,522.5 -191.3,514.35 L-195.8,617.25 Q10.158,617.16 1279,615.15 2486.873,613.195 2731.55,613 L2731.55,518.5 Q2655.6,511.25 2579.3,512.95 M2411.6,502.85 Q2406.394,503.094 2401.2,503.3 2325.25,505.8 2249.3,505.8 2226.286,505.8 2203.25,505.8 2147.721,505.815 2092.15,505.85 2083.912,505.856 2075.65,505.85 2004.357,505.781 1933,504.75 1910.125,504.422 1887.25,503.75 1864.368,503.598 1841.45,503.4 1824.302,503.302 1807.1,503.15 1789.936,502.697 1772.75,502.45 1693.05,501.35 1613.3,500.55 1551.263,499.94 1489.25,502.65 1480.156,503.077 1471.05,503.55 1396,507 1321.1,510.95 L1161.05,511.75 Q1080.75,507.9 1000.55,502.95 927.9,497.9 854.8,497.2 775.75,496.4 696.8,497.5 619.7,498.6 542.5,500.15 469.85,501.65 397.15,503.2 323.25,504.75 249.25,505.95 171.3,507.2 93.15,506.2 17.45,505.25 -58.15,500.25 -135.95,495.6 -213.6,488.3 L-191.3,514.35 Q-117.6,522.5 -43.45,523.95 33.5,525.45 110.25,524.85 187.3,524.25 264.3,522.95 343.45,521.65 422.5,520.45 502.1,519.25 581.75,518 661.1,516.8 740.45,516.1 814.4,515.45 888.3,516.45 962.55,517.5 1036.5,522.45 1115.85,527.35 1195.25,528.6 1270.65,529.75 1345.9,526.5 1423.25,522.3 1500.55,520.35 1578.65,518.35 1656.75,519.6 1735.4,520.9 1814.1,521.8 1893.9,522.75 1973.7,523 2049.2,523.25 2124.7,523.35 2202.1,523.45 2279.5,523 2355,522.55 2430.45,518.9 2504.8,514.65 2579.3,512.95 2655.6,511.25 2731.55,518.5 L2749.4,500.95 2749.45,500.15 Q2731.062,498.494 2712.65,496.85 2698.552,495.536 2684.45,494.6 2624.485,490.798 2564.3,494.4 2488.031,499.691 2411.6,502.85Z" test="JuryBoxFront"/>
      <path id="Layer1_0_1_STROKES" stroke="#F60" stroke-width="2" stroke-linejoin="round" stroke-linecap="round" fill="none" d="M2749.475,500.175 Q2731.062,498.494 2712.65,496.85 2698.552,495.536 2684.45,494.625 2624.485,490.798 2564.3,494.4 2488.031,499.691 2411.6,502.875 2406.394,503.094 2401.2,503.3 2325.25,505.8 2249.3,505.8 2226.286,505.8 2203.275,505.8 2147.721,505.815 2092.15,505.85 2083.912,505.856 2075.675,505.85 2004.357,505.781 1933,504.75 1910.125,504.422 1887.25,503.775 1864.368,503.598 1841.475,503.425 1824.302,503.302 1807.125,503.175 1789.936,502.697 1772.75,502.45 1693.05,501.35 1613.3,500.55 1551.263,499.94 1489.275,502.675 1480.156,503.077 1471.05,503.55 1396,507 1321.1,510.95 L1161.05,511.75 Q1080.75,507.9 1000.55,502.95 927.9,497.9 854.8,497.2 775.75,496.4 696.8,497.5 619.7,498.6 542.5,500.15 469.85,501.65 397.15,503.2 323.25,504.75 249.25,505.95 171.3,507.2 93.15,506.2 17.45,505.25 -58.15,500.25 -135.95,495.6 -213.6,488.3 L-191.3,514.35 Q-117.6,522.5 -43.45,523.95 33.5,525.45 110.25,524.85 187.3,524.25 264.3,522.95 343.45,521.65 422.5,520.45 502.1,519.25 581.75,518 661.1,516.8 740.45,516.1 814.4,515.45 888.3,516.45 962.55,517.5 1036.5,522.45 1115.85,527.35 1195.25,528.6 1270.65,529.75 1345.9,526.5 1423.25,522.3 1500.55,520.35 1578.65,518.35 1656.75,519.6 1735.4,520.9 1814.1,521.8 1893.9,522.75 1973.7,523 2049.2,523.25 2124.7,523.35 2202.1,523.45 2279.5,523 2355,522.55 2430.45,518.9 2504.8,514.65 2579.3,512.95 2655.6,511.25 2731.55,518.5 L2749.4,500.95 M2749.475,500.175 Q2750.112,500.242 2750.75,500.3 L2750.75,500.95 2750.75,613 2750.75,624.2 M2731.55,624.2 L2731.55,613.025 M-195.8,617.25 L-196.1,624.2 M2731.55,613.025 L2731.55,518.5 M-215.55,624.2 L-215.45,617.25 -213.6,488.3 M-191.3,514.35 L-195.8,617.25" test="JuryBoxFront"/>
    </g>
  </g>
</svg>