<?xml version="1.0" encoding="utf-8"?>
<svg id="EdithAnim12" image-rendering="inherit" baseProfile="basic" version="1.1" x="0px" y="0px" width="800" height="600" xmlns="http://www.w3.org/2000/svg" xmlns:xlink="http://www.w3.org/1999/xlink">
  <g id="14_JurorParrotf27r1" overflow="visible">
    <g id="JurorsBack">
      <path fill="#000" stroke="none" d="M585.67,132.38 Q583.67,133.06 581.75,133.9 564.35,140.78 552.59,155.26 540.23,170.46 541.07,190.1 541.87,209.3 551.87,225.78 557.07,234.38 573.23,242.34 581.55,246.42 588.31,248.18 594.55,249.78 599.47,249.38 602.15,249.18 605.43,247.86 613.71,244.54 625.87,234.3 632.79,228.46 637.91,222.74 643.11,216.94 644.03,213.94 647.67,202.3 647.35,190.06 646.79,170.46 635.59,154.62 630.51,147.5 622.87,142.94 606.03,132.86 586.27,134.26 L585.67,132.38 M569.67,182.1 L565.71,185.02 569.67,182.1 M606.31,173.14 L602.31,176.06 606.31,173.14 M601.75,227.02 Q600.63,226.82 599.51,226.66 600.63,226.82 601.75,227.02 613.27,228.62 619.35,218.66 613.27,228.62 601.75,227.02 M365.91,138.26 Q357.35,140.46 349.95,145.3 342.67,150.02 336.39,156.22 329.99,162.62 325.91,170.78 321.79,179.14 320.79,188.3 319.79,197.42 321.87,206.3 323.95,215.38 328.51,223.38 333.07,231.34 339.59,237.78 346.35,244.42 354.79,248.66 359.43,251.06 364.43,252.38 368.23,253.34 372.23,253.7 374.71,253.62 377.19,253.34 383.99,252.54 390.55,250.34 399.55,247.34 407.11,241.5 414.63,235.62 419.27,227.1 423.55,219.22 425.67,210.58 427.79,201.94 427.03,193.02 426.23,183.66 422.07,175.1 418.11,166.9 412.15,160.06 406.35,153.42 399.71,147.58 392.59,141.42 383.47,138.62 374.79,135.86 365.91,138.26 M391.27,177.38 Q393.31,178.7 393.31,180.54 393.31,178.7 391.27,177.38 389.19,176.06 386.27,176.06 389.19,176.06 391.27,177.38 M360.07,174.9 Q361.95,176.02 361.95,177.62 361.95,176.02 360.07,174.9 358.19,173.78 355.55,173.78 358.19,173.78 360.07,174.9 M353.51,231.14 Q353.39,231.26 353.39,231.5 353.39,231.26 353.51,231.14 356.95,227.94 360.03,231.14 356.95,227.94 353.51,231.14 M141.91,141.86 L142.19,142.58 147.03,141.22 142.19,142.58 Q135.67,145.06 129.95,149.1 123.43,153.78 118.83,160.34 114.71,166.18 112.19,172.98 109.79,179.58 109.07,186.58 108.31,193.74 109.35,200.74 110.47,208.18 113.75,214.98 116.87,221.54 122.19,226.58 127.55,231.66 134.19,235.14 138.55,237.46 143.31,238.66 146.15,239.34 149.15,239.66 155.99,240.66 162.83,239.22 163.39,239.1 163.99,238.98 170.51,237.42 176.55,234.34 182.99,230.94 188.23,225.98 193.51,220.9 197.27,214.38 200.87,208.26 202.59,201.34 204.31,194.5 203.83,187.5 203.31,180.18 201.15,173.26 199.03,166.46 195.19,160.58 191.35,154.66 186.19,149.58 180.71,144.26 173.83,141.1 166.79,137.86 158.87,137.66 152.15,138.34 145.51,140.42 143.91,140.9 142.27,141.26 L141.91,141.86 M155.03,174.18 L160.47,174.82 155.03,174.18 M159.47,222.06 Q161.43,220.66 161.43,218.66 161.43,220.66 159.47,222.06 157.51,223.46 154.71,223.46 157.51,223.46 159.47,222.06 M135.19,180.06 L129.75,179.42 135.19,180.06 M999.43,135.98 Q991.03,137.86 983.39,142.1 975.11,146.74 969.15,154.14 963.55,161.1 961.11,169.66 958.55,178.46 958.15,187.7 957.75,196.7 958.91,205.66 960.03,214.54 965.03,221.98 970.19,229.66 977.71,234.9 984.99,240.02 993.31,243.18 1002.15,246.46 1011.59,246.9 1020.59,247.66 1028.99,244.26 1037.79,240.78 1044.11,233.58 1050.47,226.38 1054.43,217.82 1058.39,209.22 1060.03,199.78 1061.59,190.78 1060.47,181.66 1059.31,172.14 1055.03,163.46 1050.79,154.98 1043.83,148.62 1037.91,143.18 1031.07,138.94 1024.55,134.86 1017.23,132.38 L1016.63,134.26 Q1007.91,134.22 999.43,135.98 M1024.31,177.62 L1028.15,180.54 1024.31,177.62 M992.63,180.54 L996.47,183.46 992.63,180.54 M992.55,221.82 Q993.23,221.66 993.91,221.54 993.23,221.66 992.55,221.82 987.31,223.3 984.63,218.66 987.31,223.3 992.55,221.82 M775.75,166.7 Q771.79,174.62 770.27,183.22 768.71,191.94 769.99,200.66 771.35,210.02 776.03,218.06 780.67,226.02 787.99,231.5 795.59,237.1 804.63,239.38 806.31,239.78 807.95,240.06 813.83,240.98 819.75,240.18 821.43,239.9 823.11,239.54 832.19,237.58 840.07,232.94 848.19,228.3 853.91,221.06 859.67,213.78 862.35,204.9 864.95,196.42 864.27,187.46 863.59,178.74 860.39,170.7 856.91,162.1 851.11,154.86 845.47,147.86 837.59,143.46 829.83,139.14 820.87,139.22 811.55,139.3 802.47,141.22 L802.11,141.86 802.39,142.58 807.23,141.22 802.39,142.58 Q794.27,146.18 787.35,151.98 779.99,158.18 775.75,166.7 M795.39,180.06 L789.95,179.42 795.39,180.06 M815.23,174.18 L820.67,174.82 815.23,174.18 M814.91,223.46 Q817.71,223.46 819.67,222.06 821.63,220.66 821.63,218.66 821.63,220.66 819.67,222.06 817.71,223.46 814.91,223.46Z" test="JurorsBack" vector-effect="non-scaling-stroke" stroke-width="1"/>
      <path id="Layer3_0_1_STROKES" stroke="#FFF" stroke-width="1.6" stroke-linejoin="round" stroke-linecap="round" fill="none" d="M802.39,142.58 Q794.27,146.18 787.35,151.98 779.99,158.18 775.75,166.7 771.79,174.62 770.27,183.22 768.71,191.94 769.99,200.66 771.35,210.02 776.03,218.06 780.67,226.02 787.99,231.5 795.59,237.1 804.63,239.38 806.31,239.78 807.95,240.06 813.83,240.98 819.75,240.18 821.43,239.9 823.11,239.54 832.19,237.58 840.07,232.94 848.19,228.3 853.91,221.06 859.67,213.78 862.35,204.9 864.95,196.42 864.27,187.46 863.59,178.74 860.39,170.7 856.91,162.1 851.11,154.86 845.47,147.86 837.59,143.46 829.83,139.14 820.87,139.22 811.55,139.3 802.47,141.22 L802.11,141.86 M807.23,141.22 L802.39,142.58 M795.39,180.06 L789.95,179.42 M815.23,174.18 L820.67,174.82 M814.91,223.46 Q817.71,223.46 819.67,222.06 821.63,220.66 821.63,218.66 M1016.63,134.26 Q1007.91,134.22 999.43,135.98 991.03,137.86 983.39,142.1 975.11,146.74 969.15,154.14 963.55,161.1 961.11,169.66 958.55,178.46 958.15,187.7 957.75,196.7 958.91,205.66 960.03,214.54 965.03,221.98 970.19,229.66 977.71,234.9 984.99,240.02 993.31,243.18 1002.15,246.46 1011.59,246.9 1020.59,247.66 1028.99,244.26 1037.79,240.78 1044.11,233.58 1050.47,226.38 1054.43,217.82 1058.39,209.22 1060.03,199.78 1061.59,190.78 1060.47,181.66 1059.31,172.14 1055.03,163.46 1050.79,154.98 1043.83,148.62 1037.91,143.18 1031.07,138.94 1024.55,134.86 1017.23,132.38 L1008.63,130.9 M1024.31,177.62 L1028.15,180.54 M992.63,180.54 L996.47,183.46 M984.63,218.66 Q987.31,223.3 992.55,221.82 993.23,221.66 993.91,221.54 M1014.27,251.82 Q1015.07,252.82 1015.91,253.86 1039.07,283.18 1050.59,320.14 1057.59,342.66 1064.63,365.06 M954.23,366.78 Q958.63,323.02 980.59,286.02 991.43,267.7 1006.07,253.86 1007.15,252.82 1008.23,251.82 M767.75,372.26 Q772.23,345.18 779.79,319.22 783.07,307.94 786.19,296.54 793.07,271.42 803.23,249.1 804.59,246.14 806.07,243.38 M821.75,243.38 Q830.59,257.98 836.87,275.46 845.79,300.3 853.71,326.06 858.99,343.18 864.19,360.38 M147.03,141.22 L142.19,142.58 Q135.67,145.06 129.95,149.1 123.43,153.78 118.83,160.34 114.71,166.18 112.19,172.98 109.79,179.58 109.07,186.58 108.31,193.74 109.35,200.74 110.47,208.18 113.75,214.98 116.87,221.54 122.19,226.58 127.55,231.66 134.19,235.14 138.55,237.46 143.31,238.66 146.15,239.34 149.15,239.66 155.99,240.66 162.83,239.22 163.39,239.1 163.99,238.98 170.51,237.42 176.55,234.34 182.99,230.94 188.23,225.98 193.51,220.9 197.27,214.38 200.87,208.26 202.59,201.34 204.31,194.5 203.83,187.5 203.31,180.18 201.15,173.26 199.03,166.46 195.19,160.58 191.35,154.66 186.19,149.58 180.71,144.26 173.83,141.1 166.79,137.86 158.87,137.66 152.15,138.34 145.51,140.42 143.91,140.9 142.27,141.26 L141.91,141.86 M155.03,174.18 L160.47,174.82 M154.71,223.46 Q157.51,223.46 159.47,222.06 161.43,220.66 161.43,218.66 M372.23,253.7 Q374.71,253.62 377.19,253.34 383.99,252.54 390.55,250.34 399.55,247.34 407.11,241.5 414.63,235.62 419.27,227.1 423.55,219.22 425.67,210.58 427.79,201.94 427.03,193.02 426.23,183.66 422.07,175.1 418.11,166.9 412.15,160.06 406.35,153.42 399.71,147.58 392.59,141.42 383.47,138.62 374.79,135.86 365.91,138.26 357.35,140.46 349.95,145.3 342.67,150.02 336.39,156.22 329.99,162.62 325.91,170.78 321.79,179.14 320.79,188.3 319.79,197.42 321.87,206.3 323.95,215.38 328.51,223.38 333.07,231.34 339.59,237.78 346.35,244.42 354.79,248.66 359.43,251.06 364.43,252.38 368.23,253.34 372.23,253.7Z M386.27,176.06 Q389.19,176.06 391.27,177.38 393.31,178.7 393.31,180.54 M355.55,173.78 Q358.19,173.78 360.07,174.9 361.95,176.02 361.95,177.62 M586.27,134.26 Q606.03,132.86 622.87,142.94 630.51,147.5 635.59,154.62 646.79,170.46 647.35,190.06 647.67,202.3 644.03,213.94 643.11,216.94 637.91,222.74 632.79,228.46 625.87,234.3 613.71,244.54 605.43,247.86 602.15,249.18 599.47,249.38 594.55,249.78 588.31,248.18 581.55,246.42 573.23,242.34 557.07,234.38 551.87,225.78 541.87,209.3 541.07,190.1 540.23,170.46 552.59,155.26 564.35,140.78 581.75,133.9 583.67,133.06 585.67,132.38 M569.67,182.1 L565.71,185.02 M606.31,173.14 L602.31,176.06 M619.35,218.66 Q613.27,228.62 601.75,227.02 600.63,226.82 599.51,226.66 M135.19,180.06 L129.75,179.42 M108.27,347.02 Q109.23,341.22 110.83,335.5 116.83,313.86 122.87,292.14 129.39,268.82 138.95,247.46 139.59,246.02 141.63,241.98 M645.55,355.42 Q642.43,329.14 632.83,305.7 623.43,282.62 613.07,260.06 611.03,255.66 608.55,251.98 M586.51,251.98 Q583.63,258.74 582.15,266.46 580.27,276.22 577.87,285.7 572.23,307.9 567.83,330.58 565.43,343.1 563.07,355.42 M379.59,256.9 Q384.11,263.82 387.87,271.46 397.03,290.14 405.47,309.02 412.99,325.86 417.83,344.1 M360.03,231.14 Q356.95,227.94 353.51,231.14 353.39,231.26 353.39,231.5 M322.51,344.1 Q324.47,337.86 326.99,331.82 336.11,310.26 345.39,288.62 352.19,272.7 360.79,258.3 361.19,257.58 361.63,256.9 M165.39,242.38 Q172.87,253.22 176.67,262.86 185.55,285.38 193.47,308.78 198.75,324.26 203.99,339.82" test="JurorsBack"/>
    </g>
    <g id="Tween-1">
      <g id="JurorsFront">
        <path fill="#000" stroke="none" d="M486.826,275.215 Q480.097,275.896 473.449,277.979 471.847,278.459 470.205,278.82 L469.845,279.42 470.085,280.101 474.971,278.78 470.085,280.101 Q463.597,282.624 457.87,286.669 451.342,291.355 446.736,297.924 442.611,303.771 440.087,310.579 437.684,317.188 436.964,324.196 436.203,331.365 437.244,338.374 438.365,345.823 441.649,352.632 444.773,359.2 450.1,364.246 455.467,369.333 462.115,372.817 466.485,375.139 471.206,376.301 474.094,377.041 477.094,377.343 483.942,378.344 490.791,376.902 491.36,376.781 491.912,376.622 498.482,375.113 504.528,372.016 510.976,368.612 516.222,363.646 521.509,358.559 525.274,352.031 528.878,345.903 530.6,338.975 532.323,332.126 531.842,325.117 531.321,317.788 529.159,310.86 527.036,304.051 523.191,298.164 519.346,292.236 514.18,287.15 508.693,281.823 501.805,278.659 494.756,275.415 486.826,275.215 M463.116,317.668 L457.669,317.027 463.116,317.668 M482.981,311.781 L488.428,312.422 482.981,311.781 M482.661,361.122 Q485.464,361.122 487.427,359.721 489.389,358.319 489.389,356.316 489.389,358.319 487.427,359.721 485.464,361.122 482.661,361.122 M263.787,260.917 L263.187,262.84 Q225.259,260.757 210.241,295.16 201.75,314.664 206.476,335.33 212.764,362.885 240.358,372.817 244.963,374.409 250.09,375.621 252.416,376.159 254.816,376.622 255.824,376.808 257.339,376.862 258.832,376.854 260.744,376.622 262.076,376.465 263.347,376.261 294.369,371.234 304.438,337.573 314.931,302.489 289.019,276.377 278.285,265.643 263.787,260.917 M270.876,306.254 L274.721,309.178 270.876,306.254 M239.157,309.178 L243.001,312.101 239.157,309.178 M239.077,350.509 Q239.757,350.349 240.438,350.229 239.757,350.349 239.077,350.509 233.79,351.991 231.147,347.345 233.79,351.991 239.077,350.509 M87.928,356.917 Q93.134,337.453 84.644,319.31 77.915,304.932 67.302,293.158 56.689,281.423 41.109,279.701 20.203,279.941 40.989,280.021 21.645,282.544 5.905,293.959 -11.036,306.214 -15.081,326.599 -19.086,346.825 -10.836,365.528 -3.146,383.07 12.714,393.883 19.832,398.687 27.973,399.931 30.837,400.371 33.82,400.371 36.212,400.691 38.506,400.772 55.36,401.351 68.383,389.278 82.841,375.941 87.928,356.917 M32.539,327 Q34.421,328.121 34.421,329.723 34.421,328.121 32.539,327 30.656,325.878 28.013,325.878 30.656,325.878 32.539,327 M54.766,327.841 Q56.849,329.162 56.849,331.005 56.849,329.162 54.766,327.841 52.724,326.519 49.8,326.519 52.724,326.519 54.766,327.841 M6.226,361.763 L25.45,368.171 6.226,361.763 M982.845,271.811 L982.244,269.888 Q980.242,270.609 978.319,271.45 960.898,278.339 949.123,292.837 936.748,308.056 937.589,327.721 938.39,346.945 948.402,363.445 953.609,372.056 969.789,380.026 978.108,384.102 984.848,385.833 991.133,387.459 996.062,387.075 998.744,386.859 1002.029,385.553 1010.334,382.243 1022.495,371.976 1029.423,366.129 1034.55,360.402 1039.756,354.594 1040.677,351.59 1044.322,339.936 1044.001,327.681 1043.441,308.056 1032.227,292.196 1027.14,285.067 1019.491,280.502 1002.63,270.409 982.845,271.811 M966.224,319.711 L962.259,322.634 966.224,319.711 M1002.91,310.739 L998.905,313.663 1002.91,310.739 M998.344,364.687 Q997.223,364.487 996.102,364.326 997.223,364.487 998.344,364.687 1009.879,366.289 1015.966,356.316 1009.879,366.289 998.344,364.687 M762.77,276.176 Q754.079,273.413 745.188,275.816 736.618,278.019 729.208,282.865 721.919,287.591 715.631,293.798 709.223,300.206 705.138,308.377 701.013,316.747 700.012,325.918 699.011,335.05 701.093,343.941 703.176,353.032 707.742,361.042 712.307,369.012 718.835,375.46 725.604,382.109 734.054,386.354 738.717,388.753 743.666,390.039 747.511,391.052 751.516,391.4 754.011,391.304 756.482,391 763.276,390.24 769.859,388.036 778.87,385.032 786.44,379.185 793.969,373.298 798.615,364.767 802.9,356.877 805.023,348.226 807.146,339.576 806.385,330.644 805.584,321.273 801.419,312.702 797.454,304.492 791.486,297.643 785.679,290.995 779.031,285.148 771.902,278.98 762.77,276.176 M770.54,314.985 Q772.623,316.306 772.623,318.149 772.623,316.306 770.54,314.985 768.497,313.663 765.574,313.663 768.497,313.663 770.54,314.985 M739.341,312.502 Q741.223,313.623 741.223,315.225 741.223,313.623 739.341,312.502 737.459,311.38 734.815,311.38 737.459,311.38 739.341,312.502 M732.773,368.812 Q732.653,368.932 732.653,369.172 732.653,368.932 732.773,368.812 736.217,365.608 739.301,368.812 736.217,365.608 732.773,368.812 M1184.176,289.553 Q1176.807,295.761 1172.562,304.291 1168.597,312.221 1167.075,320.832 1165.513,329.563 1166.795,338.294 1168.156,347.666 1172.842,355.716 1177.488,363.686 1184.817,369.172 1192.427,374.779 1201.478,377.062 1203.141,377.467 1204.802,377.703 1210.681,378.659 1216.577,377.823 1218.284,377.602 1219.981,377.222 1229.072,375.26 1236.962,370.614 1245.092,365.968 1250.82,358.719 1256.587,351.43 1259.27,342.539 1261.873,334.049 1261.193,325.077 1260.512,316.347 1257.308,308.296 1253.823,299.686 1248.016,292.437 1242.369,285.428 1234.479,281.022 1226.71,276.697 1217.738,276.777 1208.407,276.857 1199.315,278.78 L1198.955,279.42 1199.235,280.141 1204.081,278.78 1199.235,280.141 Q1191.105,283.746 1184.176,289.553 M1212.091,311.781 L1217.538,312.422 1212.091,311.781 M1192.226,317.668 L1186.78,317.027 1192.226,317.668 M1211.771,361.122 Q1214.574,361.122 1216.537,359.721 1218.499,358.319 1218.499,356.316 1218.499,358.319 1216.537,359.721 1214.574,361.122 1211.771,361.122Z" test="JurorsFront" vector-effect="non-scaling-stroke" stroke-width="1"/>
        <path id="Layer4_0_1_STROKES" stroke="#FFF" stroke-width="1.602" stroke-linejoin="round" stroke-linecap="round" fill="none" d="M1199.235,280.141 Q1191.105,283.746 1184.176,289.553 1176.807,295.761 1172.562,304.291 1168.597,312.221 1167.075,320.832 1165.513,329.563 1166.795,338.294 1168.156,347.666 1172.842,355.716 1177.488,363.686 1184.817,369.172 1192.427,374.779 1201.478,377.062 1203.141,377.467 1204.802,377.723 1210.681,378.659 1216.597,377.843 1218.284,377.602 1219.981,377.222 1229.072,375.26 1236.962,370.614 1245.092,365.968 1250.82,358.719 1256.587,351.43 1259.27,342.539 1261.873,334.049 1261.193,325.077 1260.512,316.347 1257.308,308.296 1253.823,299.686 1248.016,292.437 1242.369,285.428 1234.479,281.022 1226.71,276.697 1217.738,276.777 1208.407,276.857 1199.315,278.78 L1198.955,279.42 M1204.081,278.78 L1199.235,280.141 M1212.091,311.781 L1217.538,312.422 M1192.226,317.668 L1186.78,317.027 M751.516,391.4 Q754.011,391.304 756.482,391.02 763.276,390.24 769.859,388.036 778.87,385.032 786.44,379.185 793.969,373.298 798.615,364.767 802.9,356.877 805.023,348.226 807.146,339.576 806.385,330.644 805.584,321.273 801.419,312.702 797.454,304.492 791.486,297.643 785.679,290.995 779.031,285.148 771.902,278.98 762.77,276.176 754.079,273.413 745.188,275.816 736.618,278.019 729.208,282.865 721.919,287.591 715.631,293.798 709.223,300.206 705.138,308.377 701.013,316.747 700.012,325.918 699.011,335.05 701.093,343.941 703.176,353.032 707.742,361.042 712.307,369.012 718.835,375.46 725.604,382.109 734.054,386.354 738.717,388.753 743.686,390.059 747.511,391.052 751.516,391.4Z M765.574,313.663 Q768.497,313.663 770.56,314.985 772.623,316.306 772.623,318.149 M734.815,311.38 Q737.459,311.38 739.341,312.502 741.223,313.623 741.223,315.225 M982.845,271.811 Q1002.63,270.409 1019.491,280.502 1027.14,285.067 1032.227,292.196 1043.441,308.056 1044.001,327.681 1044.322,339.936 1040.677,351.59 1039.756,354.594 1034.55,360.402 1029.423,366.129 1022.495,371.976 1010.334,382.243 1002.029,385.553 998.744,386.859 996.062,387.075 991.133,387.459 984.868,385.853 978.108,384.102 969.789,380.026 953.609,372.056 948.402,363.445 938.39,346.945 937.589,327.721 936.748,308.056 949.123,292.837 960.898,278.339 978.319,271.45 980.242,270.609 982.244,269.909 M966.224,319.711 L962.259,322.634 M1002.91,310.739 L998.905,313.663 M1015.966,356.316 Q1009.879,366.289 998.344,364.687 997.223,364.487 996.102,364.326 M1042.199,493.247 Q1039.075,466.935 1029.463,443.465 1020.052,420.356 1009.679,397.768 1007.637,393.363 1005.153,389.678 M983.085,389.678 Q980.215,396.441 978.72,404.176 976.838,413.948 974.435,423.44 968.788,445.668 964.382,468.376 961.979,480.912 959.616,493.247 M701.734,481.913 Q703.697,475.665 706.22,469.618 715.351,448.031 724.643,426.364 731.466,410.41 740.042,396.006 740.458,395.303 740.883,394.604 M758.885,394.604 Q763.405,401.552 767.176,409.182 776.347,427.886 784.798,446.789 792.327,463.65 797.173,481.913 M739.301,368.812 Q736.217,365.608 732.773,368.812 732.653,368.932 732.653,369.172 M1211.771,361.122 Q1214.574,361.122 1216.537,359.721 1218.499,358.319 1218.499,356.316 M1164.552,510.108 Q1169.038,482.995 1176.607,457.002 1179.891,445.708 1183.015,434.294 1189.904,409.142 1200.076,386.794 1201.435,383.838 1202.92,381.067 M1218.619,381.067 Q1227.485,395.68 1233.758,413.187 1242.689,438.058 1250.619,463.851 1255.906,480.992 1261.112,498.214 M28.013,325.878 Q30.656,325.878 32.539,327 34.421,328.121 34.421,329.723 M49.8,326.519 Q52.724,326.519 54.786,327.841 56.849,329.162 56.849,331.005 M40.989,280.021 Q21.645,282.544 5.905,293.959 -11.036,306.214 -15.081,326.599 -19.086,346.825 -10.836,365.528 -3.146,383.07 12.714,393.883 19.832,398.687 27.973,399.931 30.837,400.371 33.82,400.371 36.212,400.691 38.526,400.772 55.36,401.351 68.383,389.278 82.841,375.941 87.928,356.917 93.134,337.453 84.644,319.31 77.915,304.932 67.302,293.158 56.689,281.423 41.129,279.701 M263.787,260.937 L255.177,259.476 M263.187,262.84 Q225.259,260.757 210.241,295.16 201.75,314.664 206.476,335.33 212.764,362.885 240.358,372.817 244.963,374.409 250.09,375.621 252.416,376.159 254.836,376.622 255.824,376.808 257.339,376.862 258.832,376.854 260.764,376.622 262.076,376.465 263.347,376.261 294.369,371.234 304.438,337.573 314.931,302.489 289.019,276.377 278.285,265.643 263.787,260.937 M270.876,306.254 L274.721,309.178 M239.157,309.178 L243.001,312.101 M231.147,347.345 Q233.79,351.991 239.077,350.509 239.757,350.349 240.438,350.229 M470.105,280.121 Q463.597,282.624 457.87,286.669 451.342,291.355 446.736,297.924 442.611,303.771 440.087,310.579 437.684,317.188 436.964,324.196 436.203,331.365 437.244,338.374 438.365,345.823 441.649,352.632 444.773,359.2 450.1,364.246 455.467,369.333 462.115,372.817 466.485,375.139 471.226,376.321 474.094,377.041 477.094,377.343 483.942,378.344 490.791,376.902 491.36,376.781 491.932,376.642 498.482,375.113 504.528,372.016 510.976,368.612 516.222,363.646 521.509,358.559 525.274,352.031 528.878,345.903 530.6,338.975 532.323,332.126 531.842,325.117 531.321,317.788 529.159,310.86 527.036,304.051 523.191,298.164 519.346,292.236 514.18,287.15 508.693,281.823 501.805,278.659 494.756,275.415 486.826,275.215 480.097,275.896 473.449,277.979 471.847,278.459 470.205,278.82 L469.845,279.42 M474.971,278.78 L470.105,280.121 M463.116,317.668 L457.669,317.027 M482.981,311.781 L488.428,312.422 M-15.521,490.924 Q-7.551,471.741 1.3,452.997 9.51,435.615 18.041,418.674 20.885,413.007 25.129,405.137 M482.661,361.122 Q485.464,361.122 487.427,359.721 489.389,358.319 489.389,356.316 M493.354,380.066 Q500.83,390.937 504.648,400.572 513.539,423.12 521.469,446.549 526.756,462.048 532.002,477.628 M436.163,484.837 Q437.124,479.03 438.726,473.302 444.733,451.635 450.781,429.888 457.309,406.539 466.881,385.152 467.535,383.695 469.564,379.666 M265.97,380.226 Q287.332,412.903 296.989,446.589 303.076,467.936 309.524,488.962 M201.029,488.962 Q208.518,444.987 230.386,407.54 237.848,394.713 247.127,380.226 M40.709,405.137 Q45.553,414.792 49.48,422.319 58.691,439.901 66.982,457.923 74.391,473.983 79.517,490.924 M6.226,361.763 L25.45,368.171" test="JurorsFront"/>
      </g>
    </g>
    <g id="Parrot">
      <path id="Layer2_0_1_STROKES" stroke="#FFF" stroke-width="2" stroke-linejoin="round" stroke-linecap="round" fill="none" d="M1612.2,248.65 Q1615.9,249.1 1619.2,252.05 1623.2,255.6 1621.7,261.25 1620.2,266.9 1617.4,269.75 1614.6,272.55 1611,272.45 1607.35,272.35 1604.75,270.25 1602.1,268.15 1601.45,264.6 1600.85,261.2 1601.7,258.05 1602.5,255.2 1603.55,253.5 1604.55,251.75 1606.65,250.65 1608.7,249.5 1612.2,248.65Z M1612.6,260.4 Q1612.1,259.75 1611.35,259.65 1610.55,259.55 1610.5,259.55 1610.2,259.55 1609.85,259.85 1609,260.6 1609.7,262.1 1610.3,263.35 1611.65,262.85 1612.6,262.5 1612.75,261.8 1612.9,261.3 1612.9,261.1 1612.95,260.7 1612.6,260.4Z M1567.85,251.15 Q1570.05,250.95 1573,254.35 1575.9,257.65 1575.7,262.3 1575.5,266.85 1573.4,269.65 1571.35,272.4 1567.8,272.3 1564.2,272.15 1561.4,269.9 1558.25,267.5 1558.4,263.7 1558.65,258.5 1560.4,255.4 1562.8,251.1 1567.85,251.15Z M1570.5,261.95 Q1570.15,261.35 1569.5,261.3 1568.75,261.2 1568.7,261.2 1568.5,261.2 1568.15,261.45 1567.4,262.15 1568.05,263.5 1568.6,264.65 1569.7,264.15 1570.5,263.85 1570.65,263.2 1570.75,262.8 1570.75,262.6 1570.85,262.25 1570.5,261.95Z" test="Parrot"/>
      <path id="Layer2_0_2_STROKES" stroke="#F00" stroke-width="2" stroke-linejoin="round" stroke-linecap="round" fill="none" d="M1633.75,279.05 Q1636.75,279.65 1637.5,279.75 1638.25,279.85 1639.75,279.85 1641.9,279.85 1645.75,277.45 M1627.35,304.65 L1628.8,305.05 Q1630.5,305.45 1631.75,305.45 1632.5,305.45 1634.6,304.05 1636.55,302.75 1636.95,302.25 M1669.75,327.95 Q1660.9,318.35 1658,305.7 1655.55,294.9 1657.05,279.25 1658.4,265.45 1651.35,252.55 1643.55,238.3 1630.8,232.8 1618.05,227.25 1608.2,226.3 1598.35,225.3 1588.95,228.75 1579.5,232.2 1572.6,239.15 1565.75,246 1565.5,247.55 M1563.65,317.05 Q1563.2,330.1 1556.7,340.7 M1596.15,305.45 Q1598.4,307.95 1599.85,310.7 1600.05,311.05 1602.55,311.05 1603.85,311.05 1605.6,310.55 1605.95,310.45 1608.95,309.45" test="Parrot"/>
      <path id="Layer2_0_3_STROKES" stroke="#0FF" stroke-width="2" stroke-linejoin="round" stroke-linecap="round" fill="none" d="M1561.3,334.1 L1560.65,338 Q1561.55,338.45 1562.65,338.55 1563.35,338.65 1564.85,338.65 1569,338.65 1572.1,335.1 1575.25,331.5 1577.55,331.5 1578.35,331.5 1582.75,332.15 1587.1,332.8 1587.95,332.8 1592.9,332.8 1593.9,330.55 1594.85,328.25 1598.65,328.25 1599.5,328.25 1602.6,328.9 1605.75,329.55 1606.55,329.55 1607.1,329.55 1609.05,327.6 1610.95,325.65 1613.35,325.65 1614.2,325.65 1617.45,326.3 1620.7,326.95 1621.5,326.95 1622.4,326.95 1624.9,325.65 1626.15,325 1627.35,324.35 1627.5,324.35 1630.5,325.65 1633.85,326.95 1635.45,326.95 1637.5,326.95 1640.15,326 1641.45,325.5 1642.6,325 1644.6,325 1654.65,327.3 1663,329.2 1666.75,329.5 1667.5,329.55 1668.05,329.55 M1597.1,352.4 Q1596.55,354.25 1594.75,371.05 1593,387.3 1591.9,390.15 1590.35,394.35 1589.8,405.05 1589.2,416.4 1590.6,423.35 1592.15,431.05 1599.4,452.1 1606.85,473.7 1610.15,479.35 1611.7,482.05 1616.4,489.35 1620.2,495.25 1623.15,500.85 1627.05,508.25 1630.15,511.2 1633.3,514.25 1638.15,515.2 1641.4,515.85 1646.45,517.05 1649.85,517.45 1649.85,514.55 1649.85,506.45 1658.3,510.65 1664.25,513.6 1666.3,514 1669.6,514.65 1671.35,511.95 1672.65,510 1674.4,506.65 1676.3,504.05 1680.45,502.8 1683.15,502 1685.55,503.8 1686.2,504.3 1687.65,498.9 1689.3,492.8 1691.9,486.1 L1694.15,480.65 Q1694.8,476.75 1696.75,467.65 1698.45,459.65 1697.65,449.55 1696.65,437.35 1692.2,427.95 1691.95,427.45 1680.8,405.4 1673.7,391.3 1671.35,384.3 1669.6,379.05 1666.25,371.7 1663.9,366.6 1663.55,363.45 M1699.2,383.95 Q1698.6,383.6 1697.7,383.6 1697.55,383.6 1689.9,386.2 1688.25,385.3 1686.25,384.25 1685.9,386.15 1684.55,387.6 1683.4,388.8 1682.65,388.8 1681,388.8 1679.65,387.6 1678.55,386.65 1678.45,386.85 1677.6,387.75 1676.35,388.35 1674.9,389 1673.9,388.8 M1671.3,332.8 Q1698.35,358.65 1698.65,383.6 L1699.3,383.6 M1556.7,340.7 Q1552.25,352.6 1548.6,364.9 1544.95,377.15 1541.9,389.6 1539.95,397.5 1537.55,405.3 1533.7,417.75 1532.75,430.7 1532.55,433.75 1532.75,436.7 1533.5,449.55 1531.45,462.45 1530.8,466.75 1528.9,470.65 1527.5,473.5 1526.15,476.3 1524.4,473.95 1523.9,470.85 1519.95,446.45 1521.8,422 1522.1,418.1 1522.8,414.2 1524,407.75 1525.05,401.3 1526.05,395.35 1528.25,389.7 1532.8,377.95 1537.65,366.4 1544.05,351.35 1556.7,340.7Z M1543.65,401.2 Q1546.25,403.65 1549.3,404.25 1550.2,404.45 1553.5,404.45 1555.35,404.45 1556.2,402.85 1557.05,401.2 1560,401.2 1561.95,401.2 1566.25,401.6 1570.1,401.85 1572.35,401.2 1577.9,399.65 1582.95,399.3 1584.3,399.2 1588.6,399.2" test="Parrot"/>
      <path id="Layer2_0_4_STROKES" stroke="#0F0" stroke-width="2" stroke-linejoin="round" stroke-linecap="round" fill="none" d="M1703.05,410.2 Q1703.85,408.95 1703.85,406.75 1703.85,405.2 1701.7,395.6 1699.45,385.85 1698.65,384.25" test="Parrot"/>
      <path id="Layer2_0_5_STROKES" stroke="#FF0" stroke-width="2" stroke-linejoin="round" stroke-linecap="round" fill="none" d="M1699.95,443.45 L1705.8,443.45 Q1705.5,442.05 1706.55,438.25 1707.75,434.1 1707.75,433.05 1707.75,426.75 1705.85,418.7 1704.25,411.9 1703.05,410.2 M1563.95,278.1 Q1553.45,283.45 1552.35,293.15 1551.85,297.6 1551.55,302.15 1567.1,304.8 1573.2,300.45 1575.25,293.55 1572.15,288.3 1569,283 1567.5,281.55 1566,280.05 1563.95,278.1Z M1557.4,303.45 Q1555.35,313.85 1566.25,314.55 1568.25,314.4 1569.9,313.6 1573.9,310.7 1572.35,302.05 M1536.5,457.85 Q1539.25,460.2 1540.4,461.55 1540.7,461.75 1543.95,461.75 1546.55,461.75 1555.15,458.5 1562.1,455.9 1564.15,455.4 1564.4,455.3 1564.55,455.3 1564.6,456.25 1569.15,456.5 1570.1,456.55 1574.95,456.55 1576.85,456.55 1580.8,455.6 1584.75,454.6 1586.3,454.6 1588.7,454.6 1588.9,454.55 1590.15,454.15 1590.55,451.9 1598.35,453.7 1596.4,453.2 M1564.15,455.4 Q1563.9,455.5 1564.1,455.85 1564.55,456.55 1564.55,455.3 M1550.15,502.15 Q1546.2,505.2 1545.3,507.7 1544.95,508.75 1544.95,512.85 1544.95,518.25 1548.1,520 1550.5,521.3 1560,522.3 1560,520.7 1559.7,519.35 1561.7,520.1 1564.55,521 L1567.8,521 Q1566.5,519.3 1565.45,517.9 1567.7,518.7 1569.75,519.7 L1574.3,519.7 1574.3,516.45 Q1570.7,513.25 1569.55,507.55 1568.95,502 1568.45,500.85 1567.8,500.85 1566.5,500.2 M1582.1,502.8 Q1581.25,513 1583,516 1584.5,518.6 1590.55,519.05 L1590.55,515.15 Q1590,514.05 1589.45,511.15 1589.6,511.35 1589.7,511.6 1592.55,517.35 1597.7,518.4 L1597.7,513.25 Q1598.35,514.3 1599.15,515.3 1601.75,518.4 1604.85,519.05 L1605.55,519.05 Q1605.9,516.95 1604.8,513.2 1603.55,509.05 1603.55,507.35 1603.55,503.9 1606.2,502.15 M1618.55,508 Q1617.75,520.8 1627,544.4 1630.95,554.5 1634.85,560.95 1639.05,567.85 1641.65,567.85 1645.35,567.85 1646.25,567.45 1649.3,566.1 1649.75,560.7 1652.1,561.85 1658.2,562.65 1663.55,562.65 1665.3,557.15 1666.4,553.75 1666.6,553.35 1667.55,551.6 1669.35,551.6 1670.05,551.6 1677.15,554.2 1678.25,554.2 1680.1,550.95 1682.1,547.45 1683.65,547.05 1687.35,546 1692.55,545.25 1696.25,544.3 1698,540.55 1699.05,540.55 1700.85,540.9 1702.65,541.2 1703.2,541.2 L1703.2,519.7 Q1700.6,510.8 1697.85,498.65 1695.75,489.45 1694.1,485.25" test="Parrot"/>
      <path id="Layer2_0_6_STROKES" stroke="#F0F" stroke-width="2" stroke-linejoin="round" stroke-linecap="round" fill="none" d="M1526.15,476.3 L1527.15,485.4 Q1528.75,495.25 1532,498.9 1533.65,500.75 1534.6,503.05 1535.15,504.3 1535.75,506.2 1536.25,507.55 1537.1,507.7 1538.15,507.85 1540.45,506.7 1543.5,505.2 1546.05,502.25 1547.8,500.2 1550.2,500.2 1552.5,500.2 1558.3,501.1 1563.45,501.55 1565.85,499.55 1568.2,497.6 1572.95,498.75 1575.65,499.4 1581.5,500.85 1584.45,501.2 1588.8,502.05 1592.3,502.45 1595.15,500.85 1598.1,499.2 1601.1,499.3 1603,499.4 1607.55,500.2 1610.15,500.55 1613,501.6 1614.8,501.95 1616,499.55 M1699.3,485.25 Q1701.65,473.25 1703,464.95 1704.1,458.45 1705.8,446.05 M1660.9,630.4 Q1663.7,638.5 1664.45,639.7 1665.55,641.45 1668.35,641.45 1669.4,641.45 1669.7,641.35 1671.1,640.7 1672.6,638.2 1691.3,657.05 1692.5,657.05 1700,657.05 1703.2,644.1 1705.15,636.3 1705.15,626.85 1705.15,620.9 1703.85,615.25 1703,611.55 1701.25,606.95" test="Parrot"/>
      <path id="Layer2_0_7_STROKES" stroke="#F60" stroke-width="2" stroke-linejoin="round" stroke-linecap="round" fill="none" d="M1643.25,572.4 Q1642.75,571.6 1642.2,570.8 1641.05,569.15 1640.65,569.15 L1640.65,572.4 Q1641.9,580 1650.25,602.45 1660.1,629.1 1665.1,629.1 1667.25,629.1 1672.15,624.9 1676.7,620.65 1676.8,620.65 1677.65,620.65 1680.05,621.3 1682.5,621.95 1683.3,621.95 1685.75,621.95 1688.15,617.05 1689.8,613.65 1690.2,611.5 1695.85,611.5 1698.7,608.6 1701.55,605.65 1704.5,605.65 1704.5,603.4 1704.85,598.4 1705.15,593.4 1705.15,592.9 1705.15,588.35 1702.25,578.25 1698.95,566.85 1698.65,564.6 1698.15,561.1 1698.35,555.05 1698.65,548.7 1698.65,546.4 L1698,546.4" test="Parrot"/>
    </g>
    <g id="JuryBoxFront">
      <path fill="#000" stroke="none" d="M-396.85,514.35 L-419.15,488.3 -421,617.25 Q-412.822,617.251 -401.35,617.25 L-396.85,514.35 M2545.2,500.95 L2543.85,500.95 2526,518.5 2526,613 Q2536.484,613.017 2545.2,613 L2545.2,500.95 M2373.75,512.95 Q2299.25,514.65 2224.9,518.9 2149.45,522.55 2073.95,523 1996.55,523.45 1919.15,523.35 1843.65,523.25 1768.15,523 1688.35,522.75 1608.55,521.8 1529.85,520.9 1451.2,519.6 1373.1,518.35 1295,520.35 1217.7,522.3 1140.35,526.5 1065.1,529.75 989.7,528.6 910.3,527.35 830.95,522.45 757,517.5 682.75,516.45 608.85,515.45 534.9,516.1 455.55,516.8 376.2,518 296.55,519.25 216.95,520.45 137.9,521.65 58.75,522.95 -18.25,524.25 -95.3,524.85 -172.05,525.45 -249,523.95 -323.15,522.5 -396.85,514.35 L-401.35,617.25 Q-195.392,617.16 1073.45,615.15 2281.323,613.195 2526,613 L2526,518.5 Q2450.05,511.25 2373.75,512.95 M2206.05,502.85 Q2200.844,503.094 2195.65,503.3 2119.7,505.8 2043.75,505.8 2020.736,505.8 1997.7,505.8 1942.171,505.815 1886.6,505.85 1878.362,505.856 1870.1,505.85 1798.807,505.781 1727.45,504.75 1704.575,504.422 1681.7,503.75 1658.818,503.598 1635.9,503.4 1618.752,503.302 1601.55,503.15 1584.386,502.697 1567.2,502.45 1487.5,501.35 1407.75,500.55 1345.713,499.94 1283.7,502.65 1274.606,503.077 1265.5,503.55 1190.45,507 1115.55,510.95 L955.5,511.75 Q875.2,507.9 795,502.95 722.35,497.9 649.25,497.2 570.2,496.4 491.25,497.5 414.15,498.6 336.95,500.15 264.3,501.65 191.6,503.2 117.7,504.75 43.7,505.95 -34.25,507.2 -112.4,506.2 -188.1,505.25 -263.7,500.25 -341.5,495.6 -419.15,488.3 L-396.85,514.35 Q-323.15,522.5 -249,523.95 -172.05,525.45 -95.3,524.85 -18.25,524.25 58.75,522.95 137.9,521.65 216.95,520.45 296.55,519.25 376.2,518 455.55,516.8 534.9,516.1 608.85,515.45 682.75,516.45 757,517.5 830.95,522.45 910.3,527.35 989.7,528.6 1065.1,529.75 1140.35,526.5 1217.7,522.3 1295,520.35 1373.1,518.35 1451.2,519.6 1529.85,520.9 1608.55,521.8 1688.35,522.75 1768.15,523 1843.65,523.25 1919.15,523.35 1996.55,523.45 2073.95,523 2149.45,522.55 2224.9,518.9 2299.25,514.65 2373.75,512.95 2450.05,511.25 2526,518.5 L2543.85,500.95 2543.9,500.15 Q2525.512,498.494 2507.1,496.85 2493.002,495.536 2478.9,494.6 2418.935,490.798 2358.75,494.4 2282.481,499.691 2206.05,502.85Z" test="JuryBoxFront"/>
      <path id="Layer1_0_1_STROKES" stroke="#F60" stroke-width="2" stroke-linejoin="round" stroke-linecap="round" fill="none" d="M2543.925,500.175 Q2525.512,498.494 2507.1,496.85 2493.002,495.536 2478.9,494.625 2418.935,490.798 2358.75,494.4 2282.481,499.691 2206.05,502.875 2200.844,503.094 2195.65,503.3 2119.7,505.8 2043.75,505.8 2020.736,505.8 1997.725,505.8 1942.171,505.815 1886.6,505.85 1878.362,505.856 1870.125,505.85 1798.807,505.781 1727.45,504.75 1704.575,504.422 1681.7,503.775 1658.818,503.598 1635.925,503.425 1618.752,503.302 1601.575,503.175 1584.386,502.697 1567.2,502.45 1487.5,501.35 1407.75,500.55 1345.713,499.94 1283.725,502.675 1274.606,503.077 1265.5,503.55 1190.45,507 1115.55,510.95 L955.5,511.75 Q875.2,507.9 795,502.95 722.35,497.9 649.25,497.2 570.2,496.4 491.25,497.5 414.15,498.6 336.95,500.15 264.3,501.65 191.6,503.2 117.7,504.75 43.7,505.95 -34.25,507.2 -112.4,506.2 -188.1,505.25 -263.7,500.25 -341.5,495.6 -419.15,488.3 L-396.85,514.35 Q-323.15,522.5 -249,523.95 -172.05,525.45 -95.3,524.85 -18.25,524.25 58.75,522.95 137.9,521.65 216.95,520.45 296.55,519.25 376.2,518 455.55,516.8 534.9,516.1 608.85,515.45 682.75,516.45 757,517.5 830.95,522.45 910.3,527.35 989.7,528.6 1065.1,529.75 1140.35,526.5 1217.7,522.3 1295,520.35 1373.1,518.35 1451.2,519.6 1529.85,520.9 1608.55,521.8 1688.35,522.75 1768.15,523 1843.65,523.25 1919.15,523.35 1996.55,523.45 2073.95,523 2149.45,522.55 2224.9,518.9 2299.25,514.65 2373.75,512.95 2450.05,511.25 2526,518.5 L2543.85,500.95 M2543.925,500.175 Q2544.562,500.242 2545.2,500.3 L2545.2,500.95 2545.2,613 2545.2,624.2 M2526,624.2 L2526,613.025 M-401.35,617.25 L-401.65,624.2 M2526,613.025 L2526,518.5 M-421.1,624.2 L-421,617.25 -419.15,488.3 M-396.85,514.35 L-401.35,617.25" test="JuryBoxFront"/>
    </g>
  </g>
</svg>