<?xml version="1.0" encoding="utf-8"?>
<svg id="EdithAnim12" image-rendering="inherit" baseProfile="basic" version="1.1" x="0px" y="0px" width="800" height="600" xmlns="http://www.w3.org/2000/svg" xmlns:xlink="http://www.w3.org/1999/xlink">
  <g id="14_JurorParrotf33r1" overflow="visible">
    <g id="JurorsBack">
      <path fill="#000" stroke="none" d="M423.07,132.33 Q421.07,133.01 419.15,133.85 401.75,140.73 389.99,155.21 377.63,170.41 378.47,190.05 379.27,209.25 389.27,225.73 394.47,234.33 410.63,242.29 418.95,246.37 425.71,248.13 431.95,249.73 436.87,249.33 439.55,249.13 442.83,247.81 451.11,244.49 463.27,234.25 470.19,228.41 475.31,222.69 480.51,216.89 481.43,213.89 485.07,202.25 484.75,190.01 484.19,170.41 472.99,154.57 467.91,147.45 460.27,142.89 443.43,132.81 423.67,134.21 L423.07,132.33 M407.07,182.05 L403.11,184.97 407.07,182.05 M443.71,173.09 L439.71,176.01 443.71,173.09 M439.15,226.97 Q438.03,226.77 436.91,226.61 438.03,226.77 439.15,226.97 450.67,228.57 456.75,218.61 450.67,228.57 439.15,226.97 M203.31,138.21 Q194.75,140.41 187.35,145.25 180.07,149.97 173.79,156.17 167.39,162.57 163.31,170.73 159.19,179.09 158.19,188.25 157.19,197.37 159.27,206.25 161.35,215.33 165.91,223.33 170.47,231.29 176.99,237.73 183.75,244.37 192.19,248.61 196.83,251.01 201.83,252.33 205.63,253.29 209.63,253.65 212.11,253.57 214.59,253.29 221.39,252.49 227.95,250.29 236.95,247.29 244.51,241.45 252.03,235.57 256.67,227.05 260.95,219.17 263.07,210.53 265.19,201.89 264.43,192.97 263.63,183.61 259.47,175.05 255.51,166.85 249.55,160.01 243.75,153.37 237.11,147.53 229.99,141.37 220.87,138.57 212.19,135.81 203.31,138.21 M228.67,177.33 Q230.71,178.65 230.71,180.49 230.71,178.65 228.67,177.33 226.59,176.01 223.67,176.01 226.59,176.01 228.67,177.33 M197.47,174.85 Q199.35,175.97 199.35,177.57 199.35,175.97 197.47,174.85 195.59,173.73 192.95,173.73 195.59,173.73 197.47,174.85 M190.91,231.09 Q190.79,231.21 190.79,231.45 190.79,231.21 190.91,231.09 194.35,227.89 197.43,231.09 194.35,227.89 190.91,231.09 M-20.69,141.81 L-20.41,142.53 -15.57,141.17 -20.41,142.53 Q-26.93,145.01 -32.65,149.05 -39.17,153.73 -43.77,160.29 -47.89,166.13 -50.41,172.93 -52.81,179.53 -53.53,186.53 -54.29,193.69 -53.25,200.69 -52.13,208.13 -48.85,214.93 -45.73,221.49 -40.41,226.53 -35.05,231.61 -28.41,235.09 -24.05,237.41 -19.29,238.61 -16.45,239.29 -13.45,239.61 -6.61,240.61 .23,239.17 .79,239.05 1.39,238.93 7.91,237.37 13.95,234.29 20.39,230.89 25.63,225.93 30.91,220.85 34.67,214.33 38.27,208.21 39.99,201.29 41.71,194.45 41.23,187.45 40.71,180.13 38.55,173.21 36.43,166.41 32.59,160.53 28.75,154.61 23.59,149.53 18.11,144.21 11.23,141.05 4.19,137.81 -3.73,137.61 -10.45,138.29 -17.09,140.37 -18.69,140.85 -20.33,141.21 L-20.69,141.81 M-7.57,174.13 L-2.13,174.77 -7.57,174.13 M-3.13,222.01 Q-1.17,220.61 -1.17,218.61 -1.17,220.61 -3.13,222.01 -5.09,223.41 -7.89,223.41 -5.09,223.41 -3.13,222.01 M-27.41,180.01 L-32.85,179.37 -27.41,180.01 M836.83,135.93 Q828.43,137.81 820.79,142.05 812.51,146.69 806.55,154.09 800.95,161.05 798.51,169.61 795.95,178.41 795.55,187.65 795.15,196.65 796.31,205.61 797.43,214.49 802.43,221.93 807.59,229.61 815.11,234.85 822.39,239.97 830.71,243.13 839.55,246.41 848.99,246.85 857.99,247.61 866.39,244.21 875.19,240.73 881.51,233.53 887.87,226.33 891.83,217.77 895.79,209.17 897.43,199.73 898.99,190.73 897.87,181.61 896.71,172.09 892.43,163.41 888.19,154.93 881.23,148.57 875.31,143.13 868.47,138.89 861.95,134.81 854.63,132.33 L854.03,134.21 Q845.31,134.17 836.83,135.93 M861.71,177.57 L865.55,180.49 861.71,177.57 M830.03,180.49 L833.87,183.41 830.03,180.49 M829.95,221.77 Q830.63,221.61 831.31,221.49 830.63,221.61 829.95,221.77 824.71,223.25 822.03,218.61 824.71,223.25 829.95,221.77 M613.15,166.65 Q609.19,174.57 607.67,183.17 606.11,191.89 607.39,200.61 608.75,209.97 613.43,218.01 618.07,225.97 625.39,231.45 632.99,237.05 642.03,239.33 643.71,239.73 645.35,240.01 651.23,240.93 657.15,240.13 658.83,239.85 660.51,239.49 669.59,237.53 677.47,232.89 685.59,228.25 691.31,221.01 697.07,213.73 699.75,204.85 702.35,196.37 701.67,187.41 700.99,178.69 697.79,170.65 694.31,162.05 688.51,154.81 682.87,147.81 674.99,143.41 667.23,139.09 658.27,139.17 648.95,139.25 639.87,141.17 L639.51,141.81 639.79,142.53 644.63,141.17 639.79,142.53 Q631.67,146.13 624.75,151.93 617.39,158.13 613.15,166.65 M632.79,180.01 L627.35,179.37 632.79,180.01 M652.63,174.13 L658.07,174.77 652.63,174.13 M652.31,223.41 Q655.11,223.41 657.07,222.01 659.03,220.61 659.03,218.61 659.03,220.61 657.07,222.01 655.11,223.41 652.31,223.41Z" test="JurorsBack" vector-effect="non-scaling-stroke" stroke-width="1"/>
      <path id="Layer3_0_1_STROKES" stroke="#FFF" stroke-width="1.6" stroke-linejoin="round" stroke-linecap="round" fill="none" d="M639.79,142.53 Q631.67,146.13 624.75,151.93 617.39,158.13 613.15,166.65 609.19,174.57 607.67,183.17 606.11,191.89 607.39,200.61 608.75,209.97 613.43,218.01 618.07,225.97 625.39,231.45 632.99,237.05 642.03,239.33 643.71,239.73 645.35,240.01 651.23,240.93 657.15,240.13 658.83,239.85 660.51,239.49 669.59,237.53 677.47,232.89 685.59,228.25 691.31,221.01 697.07,213.73 699.75,204.85 702.35,196.37 701.67,187.41 700.99,178.69 697.79,170.65 694.31,162.05 688.51,154.81 682.87,147.81 674.99,143.41 667.23,139.09 658.27,139.17 648.95,139.25 639.87,141.17 L639.51,141.81 M644.63,141.17 L639.79,142.53 M632.79,180.01 L627.35,179.37 M652.63,174.13 L658.07,174.77 M652.31,223.41 Q655.11,223.41 657.07,222.01 659.03,220.61 659.03,218.61 M854.03,134.21 Q845.31,134.17 836.83,135.93 828.43,137.81 820.79,142.05 812.51,146.69 806.55,154.09 800.95,161.05 798.51,169.61 795.95,178.41 795.55,187.65 795.15,196.65 796.31,205.61 797.43,214.49 802.43,221.93 807.59,229.61 815.11,234.85 822.39,239.97 830.71,243.13 839.55,246.41 848.99,246.85 857.99,247.61 866.39,244.21 875.19,240.73 881.51,233.53 887.87,226.33 891.83,217.77 895.79,209.17 897.43,199.73 898.99,190.73 897.87,181.61 896.71,172.09 892.43,163.41 888.19,154.93 881.23,148.57 875.31,143.13 868.47,138.89 861.95,134.81 854.63,132.33 L846.03,130.85 M861.71,177.57 L865.55,180.49 M830.03,180.49 L833.87,183.41 M822.03,218.61 Q824.71,223.25 829.95,221.77 830.63,221.61 831.31,221.49 M851.67,251.77 Q852.47,252.77 853.31,253.81 876.47,283.13 887.99,320.09 894.99,342.61 902.03,365.01 M791.63,366.73 Q796.03,322.97 817.99,285.97 828.83,267.65 843.47,253.81 844.55,252.77 845.63,251.77 M605.15,372.21 Q609.63,345.13 617.19,319.17 620.47,307.89 623.59,296.49 630.47,271.37 640.63,249.05 641.99,246.09 643.47,243.33 M659.15,243.33 Q667.99,257.93 674.27,275.41 683.19,300.25 691.11,326.01 696.39,343.13 701.59,360.33 M-15.57,141.17 L-20.41,142.53 Q-26.93,145.01 -32.65,149.05 -39.17,153.73 -43.77,160.29 -47.89,166.13 -50.41,172.93 -52.81,179.53 -53.53,186.53 -54.29,193.69 -53.25,200.69 -52.13,208.13 -48.85,214.93 -45.73,221.49 -40.41,226.53 -35.05,231.61 -28.41,235.09 -24.05,237.41 -19.29,238.61 -16.45,239.29 -13.45,239.61 -6.61,240.61 .23,239.17 .79,239.05 1.39,238.93 7.91,237.37 13.95,234.29 20.39,230.89 25.63,225.93 30.91,220.85 34.67,214.33 38.27,208.21 39.99,201.29 41.71,194.45 41.23,187.45 40.71,180.13 38.55,173.21 36.43,166.41 32.59,160.53 28.75,154.61 23.59,149.53 18.11,144.21 11.23,141.05 4.19,137.81 -3.73,137.61 -10.45,138.29 -17.09,140.37 -18.69,140.85 -20.33,141.21 L-20.69,141.81 M-7.57,174.13 L-2.13,174.77 M-7.89,223.41 Q-5.09,223.41 -3.13,222.01 -1.17,220.61 -1.17,218.61 M209.63,253.65 Q212.11,253.57 214.59,253.29 221.39,252.49 227.95,250.29 236.95,247.29 244.51,241.45 252.03,235.57 256.67,227.05 260.95,219.17 263.07,210.53 265.19,201.89 264.43,192.97 263.63,183.61 259.47,175.05 255.51,166.85 249.55,160.01 243.75,153.37 237.11,147.53 229.99,141.37 220.87,138.57 212.19,135.81 203.31,138.21 194.75,140.41 187.35,145.25 180.07,149.97 173.79,156.17 167.39,162.57 163.31,170.73 159.19,179.09 158.19,188.25 157.19,197.37 159.27,206.25 161.35,215.33 165.91,223.33 170.47,231.29 176.99,237.73 183.75,244.37 192.19,248.61 196.83,251.01 201.83,252.33 205.63,253.29 209.63,253.65Z M223.67,176.01 Q226.59,176.01 228.67,177.33 230.71,178.65 230.71,180.49 M192.95,173.73 Q195.59,173.73 197.47,174.85 199.35,175.97 199.35,177.57 M423.67,134.21 Q443.43,132.81 460.27,142.89 467.91,147.45 472.99,154.57 484.19,170.41 484.75,190.01 485.07,202.25 481.43,213.89 480.51,216.89 475.31,222.69 470.19,228.41 463.27,234.25 451.11,244.49 442.83,247.81 439.55,249.13 436.87,249.33 431.95,249.73 425.71,248.13 418.95,246.37 410.63,242.29 394.47,234.33 389.27,225.73 379.27,209.25 378.47,190.05 377.63,170.41 389.99,155.21 401.75,140.73 419.15,133.85 421.07,133.01 423.07,132.33 M407.07,182.05 L403.11,184.97 M443.71,173.09 L439.71,176.01 M456.75,218.61 Q450.67,228.57 439.15,226.97 438.03,226.77 436.91,226.61 M-27.41,180.01 L-32.85,179.37 M-54.33,346.97 Q-53.37,341.17 -51.77,335.45 -45.77,313.81 -39.73,292.09 -33.21,268.77 -23.65,247.41 -23.01,245.97 -20.97,241.93 M482.95,355.37 Q479.83,329.09 470.23,305.65 460.83,282.57 450.47,260.01 448.43,255.61 445.95,251.93 M423.91,251.93 Q421.03,258.69 419.55,266.41 417.67,276.17 415.27,285.65 409.63,307.85 405.23,330.53 402.83,343.05 400.47,355.37 M216.99,256.85 Q221.51,263.77 225.27,271.41 234.43,290.09 242.87,308.97 250.39,325.81 255.23,344.05 M197.43,231.09 Q194.35,227.89 190.91,231.09 190.79,231.21 190.79,231.45 M159.91,344.05 Q161.87,337.81 164.39,331.77 173.51,310.21 182.79,288.57 189.59,272.65 198.19,258.25 198.59,257.53 199.03,256.85 M2.79,242.33 Q10.27,253.17 14.07,262.81 22.95,285.33 30.87,308.73 36.15,324.21 41.39,339.77" test="JurorsBack"/>
    </g>
    <g id="Tween-1">
      <g id="JurorsFront">
        <path fill="#000" stroke="none" d="M315.226,275.215 Q308.497,275.896 301.849,277.979 300.247,278.459 298.605,278.82 L298.245,279.42 298.485,280.101 303.371,278.78 298.485,280.101 Q291.997,282.624 286.27,286.669 279.742,291.355 275.136,297.924 271.011,303.771 268.487,310.579 266.084,317.188 265.364,324.196 264.603,331.365 265.644,338.374 266.765,345.823 270.049,352.632 273.173,359.2 278.5,364.246 283.867,369.333 290.515,372.817 294.885,375.139 299.606,376.301 302.494,377.041 305.494,377.343 312.342,378.344 319.191,376.902 319.76,376.781 320.312,376.622 326.882,375.113 332.928,372.016 339.376,368.612 344.623,363.646 349.909,358.559 353.674,352.031 357.278,345.903 359,338.975 360.723,332.126 360.242,325.117 359.721,317.788 357.559,310.86 355.436,304.051 351.591,298.164 347.746,292.236 342.58,287.15 337.093,281.823 330.205,278.659 323.156,275.415 315.226,275.215 M291.516,317.668 L286.069,317.027 291.516,317.668 M311.381,311.781 L316.828,312.422 311.381,311.781 M311.061,361.122 Q313.864,361.122 315.827,359.721 317.789,358.319 317.789,356.316 317.789,358.319 315.827,359.721 313.864,361.122 311.061,361.122 M92.187,260.917 L91.587,262.84 Q53.659,260.757 38.64,295.16 30.15,314.664 34.876,335.33 41.164,362.885 68.758,372.817 73.363,374.409 78.49,375.621 80.816,376.159 83.216,376.622 84.224,376.808 85.739,376.862 87.232,376.854 89.144,376.622 90.476,376.465 91.747,376.261 122.769,371.234 132.838,337.573 143.331,302.489 117.419,276.377 106.685,265.643 92.187,260.917 M99.276,306.254 L103.121,309.178 99.276,306.254 M67.557,309.178 L71.401,312.101 67.557,309.178 M67.476,350.509 Q68.157,350.349 68.838,350.229 68.157,350.349 67.476,350.509 62.19,351.991 59.547,347.345 62.19,351.991 67.476,350.509 M-83.672,356.917 Q-78.466,337.453 -86.956,319.31 -93.685,304.932 -104.298,293.158 -114.911,281.423 -130.491,279.701 -151.397,279.941 -130.611,280.021 -149.955,282.544 -165.695,293.959 -182.636,306.214 -186.681,326.599 -190.686,346.825 -182.436,365.528 -174.746,383.07 -158.886,393.883 -151.768,398.687 -143.627,399.931 -140.763,400.371 -137.78,400.371 -135.388,400.691 -133.094,400.772 -116.24,401.351 -103.217,389.278 -88.759,375.941 -83.672,356.917 M-139.061,327 Q-137.179,328.121 -137.179,329.723 -137.179,328.121 -139.061,327 -140.944,325.878 -143.587,325.878 -140.944,325.878 -139.061,327 M-116.834,327.841 Q-114.751,329.162 -114.751,331.005 -114.751,329.162 -116.834,327.841 -118.876,326.519 -121.8,326.519 -118.876,326.519 -116.834,327.841 M-165.374,361.763 L-146.15,368.171 -165.374,361.763 M811.245,271.811 L810.644,269.888 Q808.642,270.609 806.719,271.45 789.298,278.339 777.523,292.837 765.148,308.056 765.989,327.721 766.79,346.945 776.802,363.445 782.009,372.056 798.189,380.026 806.508,384.102 813.248,385.833 819.533,387.459 824.462,387.075 827.144,386.859 830.429,385.553 838.734,382.243 850.895,371.976 857.823,366.129 862.95,360.402 868.156,354.594 869.077,351.59 872.722,339.936 872.401,327.681 871.841,308.056 860.627,292.196 855.54,285.067 847.891,280.502 831.03,270.409 811.245,271.811 M794.624,319.711 L790.659,322.634 794.624,319.711 M831.31,310.739 L827.305,313.663 831.31,310.739 M826.744,364.687 Q825.623,364.487 824.502,364.326 825.623,364.487 826.744,364.687 838.279,366.289 844.366,356.316 838.279,366.289 826.744,364.687 M591.17,276.176 Q582.479,273.413 573.588,275.816 565.018,278.019 557.608,282.865 550.319,287.591 544.031,293.798 537.623,300.206 533.538,308.377 529.413,316.747 528.412,325.918 527.411,335.05 529.493,343.941 531.576,353.032 536.142,361.042 540.707,369.012 547.235,375.46 554.004,382.109 562.454,386.354 567.117,388.753 572.066,390.039 575.911,391.052 579.916,391.4 582.411,391.304 584.882,391 591.676,390.24 598.259,388.036 607.27,385.032 614.84,379.185 622.369,373.298 627.015,364.767 631.3,356.877 633.423,348.226 635.546,339.576 634.785,330.644 633.984,321.273 629.819,312.702 625.854,304.492 619.886,297.643 614.079,290.995 607.431,285.148 600.302,278.98 591.17,276.176 M598.94,314.985 Q601.023,316.306 601.023,318.149 601.023,316.306 598.94,314.985 596.897,313.663 593.974,313.663 596.897,313.663 598.94,314.985 M567.741,312.502 Q569.623,313.623 569.623,315.225 569.623,313.623 567.741,312.502 565.859,311.38 563.215,311.38 565.859,311.38 567.741,312.502 M561.173,368.812 Q561.053,368.932 561.053,369.172 561.053,368.932 561.173,368.812 564.617,365.608 567.701,368.812 564.617,365.608 561.173,368.812 M1012.576,289.553 Q1005.207,295.761 1000.962,304.291 996.997,312.221 995.475,320.832 993.913,329.563 995.195,338.294 996.556,347.666 1001.242,355.716 1005.888,363.686 1013.217,369.172 1020.827,374.779 1029.878,377.062 1031.541,377.467 1033.202,377.703 1039.081,378.659 1044.977,377.823 1046.684,377.602 1048.381,377.222 1057.472,375.26 1065.362,370.614 1073.492,365.968 1079.22,358.719 1084.987,351.43 1087.67,342.539 1090.273,334.049 1089.593,325.077 1088.912,316.347 1085.708,308.296 1082.223,299.686 1076.416,292.437 1070.769,285.428 1062.879,281.022 1055.11,276.697 1046.138,276.777 1036.807,276.857 1027.715,278.78 L1027.355,279.42 1027.635,280.141 1032.481,278.78 1027.635,280.141 Q1019.505,283.746 1012.576,289.553 M1040.491,311.781 L1045.938,312.422 1040.491,311.781 M1020.626,317.668 L1015.18,317.027 1020.626,317.668 M1040.171,361.122 Q1042.974,361.122 1044.937,359.721 1046.899,358.319 1046.899,356.316 1046.899,358.319 1044.937,359.721 1042.974,361.122 1040.171,361.122Z" test="JurorsFront" vector-effect="non-scaling-stroke" stroke-width="1"/>
        <path id="Layer4_0_1_STROKES" stroke="#FFF" stroke-width="1.602" stroke-linejoin="round" stroke-linecap="round" fill="none" d="M1027.635,280.141 Q1019.505,283.746 1012.576,289.553 1005.207,295.761 1000.962,304.291 996.997,312.221 995.475,320.832 993.913,329.563 995.195,338.294 996.556,347.666 1001.242,355.716 1005.888,363.686 1013.217,369.172 1020.827,374.779 1029.878,377.062 1031.541,377.467 1033.202,377.723 1039.081,378.659 1044.997,377.843 1046.684,377.602 1048.381,377.222 1057.472,375.26 1065.362,370.614 1073.492,365.968 1079.22,358.719 1084.987,351.43 1087.67,342.539 1090.273,334.049 1089.593,325.077 1088.912,316.347 1085.708,308.296 1082.223,299.686 1076.416,292.437 1070.769,285.428 1062.879,281.022 1055.11,276.697 1046.138,276.777 1036.807,276.857 1027.715,278.78 L1027.355,279.42 M1032.481,278.78 L1027.635,280.141 M1040.491,311.781 L1045.938,312.422 M1020.626,317.668 L1015.18,317.027 M579.916,391.4 Q582.411,391.304 584.882,391.02 591.676,390.24 598.259,388.036 607.27,385.032 614.84,379.185 622.369,373.298 627.015,364.767 631.3,356.877 633.423,348.226 635.546,339.576 634.785,330.644 633.984,321.273 629.819,312.702 625.854,304.492 619.886,297.643 614.079,290.995 607.431,285.148 600.302,278.98 591.17,276.176 582.479,273.413 573.588,275.816 565.018,278.019 557.608,282.865 550.319,287.591 544.031,293.798 537.623,300.206 533.538,308.377 529.413,316.747 528.412,325.918 527.411,335.05 529.493,343.941 531.576,353.032 536.142,361.042 540.707,369.012 547.235,375.46 554.004,382.109 562.454,386.354 567.117,388.753 572.086,390.059 575.911,391.052 579.916,391.4Z M593.974,313.663 Q596.897,313.663 598.96,314.985 601.023,316.306 601.023,318.149 M563.215,311.38 Q565.859,311.38 567.741,312.502 569.623,313.623 569.623,315.225 M811.245,271.811 Q831.03,270.409 847.891,280.502 855.54,285.067 860.627,292.196 871.841,308.056 872.401,327.681 872.722,339.936 869.077,351.59 868.156,354.594 862.95,360.402 857.823,366.129 850.895,371.976 838.734,382.243 830.429,385.553 827.144,386.859 824.462,387.075 819.533,387.459 813.268,385.853 806.508,384.102 798.189,380.026 782.009,372.056 776.802,363.445 766.79,346.945 765.989,327.721 765.148,308.056 777.523,292.837 789.298,278.339 806.719,271.45 808.642,270.609 810.644,269.909 M794.624,319.711 L790.659,322.634 M831.31,310.739 L827.305,313.663 M844.366,356.316 Q838.279,366.289 826.744,364.687 825.623,364.487 824.502,364.326 M870.599,493.247 Q867.475,466.935 857.863,443.465 848.452,420.356 838.079,397.768 836.037,393.363 833.553,389.678 M811.485,389.678 Q808.615,396.441 807.12,404.176 805.238,413.948 802.835,423.44 797.188,445.668 792.782,468.376 790.379,480.912 788.016,493.247 M530.134,481.913 Q532.097,475.665 534.62,469.618 543.751,448.031 553.043,426.364 559.866,410.41 568.442,396.006 568.858,395.303 569.283,394.604 M587.285,394.604 Q591.805,401.552 595.576,409.182 604.747,427.886 613.198,446.789 620.727,463.65 625.573,481.913 M567.701,368.812 Q564.617,365.608 561.173,368.812 561.053,368.932 561.053,369.172 M1040.171,361.122 Q1042.974,361.122 1044.937,359.721 1046.899,358.319 1046.899,356.316 M992.952,510.108 Q997.438,482.995 1005.007,457.002 1008.291,445.708 1011.415,434.294 1018.304,409.142 1028.476,386.794 1029.835,383.838 1031.32,381.067 M1047.019,381.067 Q1055.885,395.68 1062.158,413.187 1071.089,438.058 1079.019,463.851 1084.306,480.992 1089.512,498.214 M-143.587,325.878 Q-140.944,325.878 -139.061,327 -137.179,328.121 -137.179,329.723 M-121.8,326.519 Q-118.876,326.519 -116.814,327.841 -114.751,329.162 -114.751,331.005 M-130.611,280.021 Q-149.955,282.544 -165.695,293.959 -182.636,306.214 -186.681,326.599 -190.686,346.825 -182.436,365.528 -174.746,383.07 -158.886,393.883 -151.768,398.687 -143.627,399.931 -140.763,400.371 -137.78,400.371 -135.388,400.691 -133.074,400.772 -116.24,401.351 -103.217,389.278 -88.759,375.941 -83.672,356.917 -78.466,337.453 -86.956,319.31 -93.685,304.932 -104.298,293.158 -114.911,281.423 -130.471,279.701 M92.187,260.937 L83.577,259.476 M91.587,262.84 Q53.659,260.757 38.64,295.16 30.15,314.664 34.876,335.33 41.164,362.885 68.758,372.817 73.363,374.409 78.49,375.621 80.816,376.159 83.236,376.622 84.224,376.808 85.739,376.862 87.232,376.854 89.164,376.622 90.476,376.465 91.747,376.261 122.769,371.234 132.838,337.573 143.331,302.489 117.419,276.377 106.685,265.643 92.187,260.937 M99.276,306.254 L103.121,309.178 M67.557,309.178 L71.401,312.101 M59.547,347.345 Q62.19,351.991 67.476,350.509 68.157,350.349 68.838,350.229 M298.505,280.121 Q291.997,282.624 286.27,286.669 279.742,291.355 275.136,297.924 271.011,303.771 268.487,310.579 266.084,317.188 265.364,324.196 264.603,331.365 265.644,338.374 266.765,345.823 270.049,352.632 273.173,359.2 278.5,364.246 283.867,369.333 290.515,372.817 294.885,375.139 299.626,376.321 302.494,377.041 305.494,377.343 312.342,378.344 319.191,376.902 319.76,376.781 320.332,376.642 326.882,375.113 332.928,372.016 339.376,368.612 344.623,363.646 349.909,358.559 353.674,352.031 357.278,345.903 359,338.975 360.723,332.126 360.242,325.117 359.721,317.788 357.559,310.86 355.436,304.051 351.591,298.164 347.746,292.236 342.58,287.15 337.093,281.823 330.205,278.659 323.156,275.415 315.226,275.215 308.497,275.896 301.849,277.979 300.247,278.459 298.605,278.82 L298.245,279.42 M303.371,278.78 L298.505,280.121 M291.516,317.668 L286.069,317.027 M311.381,311.781 L316.828,312.422 M-187.121,490.924 Q-179.151,471.741 -170.3,452.997 -162.09,435.615 -153.559,418.674 -150.715,413.007 -146.471,405.137 M311.061,361.122 Q313.864,361.122 315.827,359.721 317.789,358.319 317.789,356.316 M321.754,380.066 Q329.23,390.937 333.048,400.572 341.939,423.12 349.869,446.549 355.156,462.048 360.402,477.628 M264.563,484.837 Q265.524,479.03 267.126,473.302 273.133,451.635 279.181,429.888 285.709,406.539 295.281,385.152 295.935,383.695 297.964,379.666 M94.37,380.226 Q115.732,412.903 125.389,446.589 131.476,467.936 137.924,488.962 M29.429,488.962 Q36.918,444.987 58.786,407.54 66.248,394.713 75.527,380.226 M-130.891,405.137 Q-126.047,414.792 -122.12,422.319 -112.909,439.901 -104.618,457.923 -97.209,473.983 -92.083,490.924 M-165.374,361.763 L-146.15,368.171" test="JurorsFront"/>
      </g>
    </g>
    <g id="Parrot">
      <path id="Layer2_0_1_STROKES" stroke="#FFF" stroke-width="2" stroke-linejoin="round" stroke-linecap="round" fill="none" d="M1444.85,248.8 Q1448.55,249.25 1451.85,252.2 1455.85,255.75 1454.35,261.4 1452.85,267.05 1450.05,269.9 1447.25,272.7 1443.65,272.6 1440,272.5 1437.4,270.4 1434.75,268.3 1434.1,264.75 1433.5,261.35 1434.35,258.2 1435.15,255.35 1436.2,253.65 1437.2,251.9 1439.3,250.8 1441.35,249.65 1444.85,248.8Z M1445.25,260.55 Q1444.75,259.9 1444,259.8 1443.2,259.7 1443.15,259.7 1442.85,259.7 1442.5,260 1441.65,260.75 1442.35,262.25 1442.95,263.5 1444.3,263 1445.25,262.65 1445.4,261.95 1445.55,261.45 1445.55,261.25 1445.6,260.85 1445.25,260.55Z M1400.5,251.3 Q1402.7,251.1 1405.65,254.5 1408.55,257.8 1408.35,262.45 1408.15,267 1406.05,269.8 1404,272.55 1400.45,272.45 1396.85,272.3 1394.05,270.05 1390.9,267.65 1391.05,263.85 1391.3,258.65 1393.05,255.55 1395.45,251.25 1400.5,251.3Z M1403.15,262.1 Q1402.8,261.5 1402.15,261.45 1401.4,261.35 1401.35,261.35 1401.15,261.35 1400.8,261.6 1400.05,262.3 1400.7,263.65 1401.25,264.8 1402.35,264.3 1403.15,264 1403.3,263.35 1403.4,262.95 1403.4,262.75 1403.5,262.4 1403.15,262.1Z" test="Parrot"/>
      <path id="Layer2_0_2_STROKES" stroke="#F00" stroke-width="2" stroke-linejoin="round" stroke-linecap="round" fill="none" d="M1466.4,279.2 Q1469.4,279.8 1470.15,279.9 1470.9,280 1472.4,280 1474.55,280 1478.4,277.6 M1460,304.8 L1461.45,305.2 Q1463.15,305.6 1464.4,305.6 1465.15,305.6 1467.25,304.2 1469.2,302.9 1469.6,302.4 M1502.4,328.1 Q1493.55,318.5 1490.65,305.85 1488.2,295.05 1489.7,279.4 1491.05,265.6 1484,252.7 1476.2,238.45 1463.45,232.95 1450.7,227.4 1440.85,226.45 1431,225.45 1421.6,228.9 1412.15,232.35 1405.25,239.3 1398.4,246.15 1398.15,247.7 M1396.3,317.2 Q1395.85,330.25 1389.35,340.85 M1428.8,305.6 Q1431.05,308.1 1432.5,310.85 1432.7,311.2 1435.2,311.2 1436.5,311.2 1438.25,310.7 1438.6,310.6 1441.6,309.6" test="Parrot"/>
      <path id="Layer2_0_3_STROKES" stroke="#0FF" stroke-width="2" stroke-linejoin="round" stroke-linecap="round" fill="none" d="M1393.95,334.25 L1393.3,338.15 Q1394.2,338.6 1395.3,338.7 1396,338.8 1397.5,338.8 1401.65,338.8 1404.75,335.25 1407.9,331.65 1410.2,331.65 1411,331.65 1415.4,332.3 1419.75,332.95 1420.6,332.95 1425.55,332.95 1426.55,330.7 1427.5,328.4 1431.3,328.4 1432.15,328.4 1435.25,329.05 1438.4,329.7 1439.2,329.7 1439.75,329.7 1441.7,327.75 1443.6,325.8 1446,325.8 1446.85,325.8 1450.1,326.45 1453.35,327.1 1454.15,327.1 1455.05,327.1 1457.55,325.8 1458.8,325.15 1460,324.5 1460.15,324.5 1463.15,325.8 1466.5,327.1 1468.1,327.1 1470.15,327.1 1472.8,326.15 1474.1,325.65 1475.25,325.15 1477.25,325.15 1487.3,327.45 1495.65,329.35 1499.4,329.65 1500.15,329.7 1500.7,329.7 M1429.75,352.55 Q1429.2,354.4 1427.4,371.2 1425.65,387.45 1424.55,390.3 1423,394.5 1422.45,405.2 1421.85,416.55 1423.25,423.5 1424.8,431.2 1432.05,452.25 1439.5,473.85 1442.8,479.5 1444.35,482.2 1449.05,489.5 1452.85,495.4 1455.8,501 1459.7,508.4 1462.8,511.35 1465.95,514.4 1470.8,515.35 1474.05,516 1479.1,517.2 1482.5,517.6 1482.5,514.7 1482.5,506.6 1490.95,510.8 1496.9,513.75 1498.95,514.15 1502.25,514.8 1504,512.1 1505.3,510.15 1507.05,506.8 1508.95,504.2 1513.1,502.95 1515.8,502.15 1518.2,503.95 1518.85,504.45 1520.3,499.05 1521.95,492.95 1524.55,486.25 L1526.8,480.8 Q1527.45,476.9 1529.4,467.8 1531.1,459.8 1530.3,449.7 1529.3,437.5 1524.85,428.1 1524.6,427.6 1513.45,405.55 1506.35,391.45 1504,384.45 1502.25,379.2 1498.9,371.85 1496.55,366.75 1496.2,363.6 M1531.85,384.1 Q1531.25,383.75 1530.35,383.75 1530.2,383.75 1522.55,386.35 1520.9,385.45 1518.9,384.4 1518.55,386.3 1517.2,387.75 1516.05,388.95 1515.3,388.95 1513.65,388.95 1512.3,387.75 1511.2,386.8 1511.1,387 1510.25,387.9 1509,388.5 1507.55,389.15 1506.55,388.95 M1503.95,332.95 Q1531,358.8 1531.3,383.75 L1531.95,383.75 M1389.35,340.85 Q1384.9,352.75 1381.25,365.05 1377.6,377.3 1374.55,389.75 1372.6,397.65 1370.2,405.45 1366.35,417.9 1365.4,430.85 1365.2,433.9 1365.4,436.85 1366.15,449.7 1364.1,462.6 1363.45,466.9 1361.55,470.8 1360.15,473.65 1358.8,476.45 1357.05,474.1 1356.55,471 1352.6,446.6 1354.45,422.15 1354.75,418.25 1355.45,414.35 1356.65,407.9 1357.7,401.45 1358.7,395.5 1360.9,389.85 1365.45,378.1 1370.3,366.55 1376.7,351.5 1389.35,340.85Z M1376.3,401.35 Q1378.9,403.8 1381.95,404.4 1382.85,404.6 1386.15,404.6 1388,404.6 1388.85,403 1389.7,401.35 1392.65,401.35 1394.6,401.35 1398.9,401.75 1402.75,402 1405,401.35 1410.55,399.8 1415.6,399.45 1416.95,399.35 1421.25,399.35" test="Parrot"/>
      <path id="Layer2_0_4_STROKES" stroke="#0F0" stroke-width="2" stroke-linejoin="round" stroke-linecap="round" fill="none" d="M1535.7,410.35 Q1536.5,409.1 1536.5,406.9 1536.5,405.35 1534.35,395.75 1532.1,386 1531.3,384.4" test="Parrot"/>
      <path id="Layer2_0_5_STROKES" stroke="#FF0" stroke-width="2" stroke-linejoin="round" stroke-linecap="round" fill="none" d="M1532.6,443.6 L1538.45,443.6 Q1538.15,442.2 1539.2,438.4 1540.4,434.25 1540.4,433.2 1540.4,426.9 1538.5,418.85 1536.9,412.05 1535.7,410.35 M1396.6,278.25 Q1386.1,283.6 1385,293.3 1384.5,297.75 1384.2,302.3 1399.75,304.95 1405.85,300.6 1407.9,293.7 1404.8,288.45 1401.65,283.15 1400.15,281.7 1398.65,280.2 1396.6,278.25Z M1390.05,303.6 Q1388,314 1398.9,314.7 1400.9,314.55 1402.55,313.75 1406.55,310.85 1405,302.2 M1369.15,458 Q1371.9,460.35 1373.05,461.7 1373.35,461.9 1376.6,461.9 1379.2,461.9 1387.8,458.65 1394.75,456.05 1396.8,455.55 1397.05,455.45 1397.2,455.45 1397.25,456.4 1401.8,456.65 1402.75,456.7 1407.6,456.7 1409.5,456.7 1413.45,455.75 1417.4,454.75 1418.95,454.75 1421.35,454.75 1421.55,454.7 1422.8,454.3 1423.2,452.05 1431,453.85 1429.05,453.35 M1396.8,455.55 Q1396.55,455.65 1396.75,456 1397.2,456.7 1397.2,455.45 M1382.8,502.3 Q1378.85,505.35 1377.95,507.85 1377.6,508.9 1377.6,513 1377.6,518.4 1380.75,520.15 1383.15,521.45 1392.65,522.45 1392.65,520.85 1392.35,519.5 1394.35,520.25 1397.2,521.15 L1400.45,521.15 Q1399.15,519.45 1398.1,518.05 1400.35,518.85 1402.4,519.85 L1406.95,519.85 1406.95,516.6 Q1403.35,513.4 1402.2,507.7 1401.6,502.15 1401.1,501 1400.45,501 1399.15,500.35 M1414.75,502.95 Q1413.9,513.15 1415.65,516.15 1417.15,518.75 1423.2,519.2 L1423.2,515.3 Q1422.65,514.2 1422.1,511.3 1422.25,511.5 1422.35,511.75 1425.2,517.5 1430.35,518.55 L1430.35,513.4 Q1431,514.45 1431.8,515.45 1434.4,518.55 1437.5,519.2 L1438.2,519.2 Q1438.55,517.1 1437.45,513.35 1436.2,509.2 1436.2,507.5 1436.2,504.05 1438.85,502.3 M1451.2,508.15 Q1450.4,520.95 1459.65,544.55 1463.6,554.65 1467.5,561.1 1471.7,568 1474.3,568 1478,568 1478.9,567.6 1481.95,566.25 1482.4,560.85 1484.75,562 1490.85,562.8 1496.2,562.8 1497.95,557.3 1499.05,553.9 1499.25,553.5 1500.2,551.75 1502,551.75 1502.7,551.75 1509.8,554.35 1510.9,554.35 1512.75,551.1 1514.75,547.6 1516.3,547.2 1520,546.15 1525.2,545.4 1528.9,544.45 1530.65,540.7 1531.7,540.7 1533.5,541.05 1535.3,541.35 1535.85,541.35 L1535.85,519.85 Q1533.25,510.95 1530.5,498.8 1528.4,489.6 1526.75,485.4" test="Parrot"/>
      <path id="Layer2_0_6_STROKES" stroke="#F0F" stroke-width="2" stroke-linejoin="round" stroke-linecap="round" fill="none" d="M1358.8,476.45 L1359.8,485.55 Q1361.4,495.4 1364.65,499.05 1366.3,500.9 1367.25,503.2 1367.8,504.45 1368.4,506.35 1368.9,507.7 1369.75,507.85 1370.8,508 1373.1,506.85 1376.15,505.35 1378.7,502.4 1380.45,500.35 1382.85,500.35 1385.15,500.35 1390.95,501.25 1396.1,501.7 1398.5,499.7 1400.85,497.75 1405.6,498.9 1408.3,499.55 1414.15,501 1417.1,501.35 1421.45,502.2 1424.95,502.6 1427.8,501 1430.75,499.35 1433.75,499.45 1435.65,499.55 1440.2,500.35 1442.8,500.7 1445.65,501.75 1447.45,502.1 1448.65,499.7 M1531.95,485.4 Q1534.3,473.4 1535.65,465.1 1536.75,458.6 1538.45,446.2 M1493.55,630.55 Q1496.35,638.65 1497.1,639.85 1498.2,641.6 1501,641.6 1502.05,641.6 1502.35,641.5 1503.75,640.85 1505.25,638.35 1523.95,657.2 1525.15,657.2 1532.65,657.2 1535.85,644.25 1537.8,636.45 1537.8,627 1537.8,621.05 1536.5,615.4 1535.65,611.7 1533.9,607.1" test="Parrot"/>
      <path id="Layer2_0_7_STROKES" stroke="#F60" stroke-width="2" stroke-linejoin="round" stroke-linecap="round" fill="none" d="M1475.9,572.55 Q1475.4,571.75 1474.85,570.95 1473.7,569.3 1473.3,569.3 L1473.3,572.55 Q1474.55,580.15 1482.9,602.6 1492.75,629.25 1497.75,629.25 1499.9,629.25 1504.8,625.05 1509.35,620.8 1509.45,620.8 1510.3,620.8 1512.7,621.45 1515.15,622.1 1515.95,622.1 1518.4,622.1 1520.8,617.2 1522.45,613.8 1522.85,611.65 1528.5,611.65 1531.35,608.75 1534.2,605.8 1537.15,605.8 1537.15,603.55 1537.5,598.55 1537.8,593.55 1537.8,593.05 1537.8,588.5 1534.9,578.4 1531.6,567 1531.3,564.75 1530.8,561.25 1531,555.2 1531.3,548.85 1531.3,546.55 L1530.65,546.55" test="Parrot"/>
    </g>
    <g id="JuryBoxFront">
      <path fill="#000" stroke="none" d="M-630.1,514.35 L-652.4,488.3 -654.25,617.25 Q-646.072,617.251 -634.6,617.25 L-630.1,514.35 M2311.95,500.95 L2310.6,500.95 2292.75,518.5 2292.75,613 Q2303.234,613.017 2311.95,613 L2311.95,500.95 M2140.5,512.95 Q2066,514.65 1991.65,518.9 1916.2,522.55 1840.7,523 1763.3,523.45 1685.9,523.35 1610.4,523.25 1534.9,523 1455.1,522.75 1375.3,521.8 1296.6,520.9 1217.95,519.6 1139.85,518.35 1061.75,520.35 984.45,522.3 907.1,526.5 831.85,529.75 756.45,528.6 677.05,527.35 597.7,522.45 523.75,517.5 449.5,516.45 375.6,515.45 301.65,516.1 222.3,516.8 142.95,518 63.3,519.25 -16.3,520.45 -95.35,521.65 -174.5,522.95 -251.5,524.25 -328.55,524.85 -405.3,525.45 -482.25,523.95 -556.4,522.5 -630.1,514.35 L-634.6,617.25 Q-428.642,617.16 840.2,615.15 2048.073,613.195 2292.75,613 L2292.75,518.5 Q2216.8,511.25 2140.5,512.95 M1972.8,502.85 Q1967.594,503.094 1962.4,503.3 1886.45,505.8 1810.5,505.8 1787.486,505.8 1764.45,505.8 1708.921,505.815 1653.35,505.85 1645.112,505.856 1636.85,505.85 1565.557,505.781 1494.2,504.75 1471.325,504.422 1448.45,503.75 1425.568,503.598 1402.65,503.4 1385.502,503.302 1368.3,503.15 1351.136,502.697 1333.95,502.45 1254.25,501.35 1174.5,500.55 1112.463,499.94 1050.45,502.65 1041.356,503.077 1032.25,503.55 957.2,507 882.3,510.95 L722.25,511.75 Q641.95,507.9 561.75,502.95 489.1,497.9 416,497.2 336.95,496.4 258,497.5 180.9,498.6 103.7,500.15 31.05,501.65 -41.65,503.2 -115.55,504.75 -189.55,505.95 -267.5,507.2 -345.65,506.2 -421.35,505.25 -496.95,500.25 -574.75,495.6 -652.4,488.3 L-630.1,514.35 Q-556.4,522.5 -482.25,523.95 -405.3,525.45 -328.55,524.85 -251.5,524.25 -174.5,522.95 -95.35,521.65 -16.3,520.45 63.3,519.25 142.95,518 222.3,516.8 301.65,516.1 375.6,515.45 449.5,516.45 523.75,517.5 597.7,522.45 677.05,527.35 756.45,528.6 831.85,529.75 907.1,526.5 984.45,522.3 1061.75,520.35 1139.85,518.35 1217.95,519.6 1296.6,520.9 1375.3,521.8 1455.1,522.75 1534.9,523 1610.4,523.25 1685.9,523.35 1763.3,523.45 1840.7,523 1916.2,522.55 1991.65,518.9 2066,514.65 2140.5,512.95 2216.8,511.25 2292.75,518.5 L2310.6,500.95 2310.65,500.15 Q2292.262,498.494 2273.85,496.85 2259.752,495.536 2245.65,494.6 2185.685,490.798 2125.5,494.4 2049.231,499.691 1972.8,502.85Z" test="JuryBoxFront"/>
      <path id="Layer1_0_1_STROKES" stroke="#F60" stroke-width="2" stroke-linejoin="round" stroke-linecap="round" fill="none" d="M2310.675,500.175 Q2292.262,498.494 2273.85,496.85 2259.752,495.536 2245.65,494.625 2185.685,490.798 2125.5,494.4 2049.231,499.691 1972.8,502.875 1967.594,503.094 1962.4,503.3 1886.45,505.8 1810.5,505.8 1787.486,505.8 1764.475,505.8 1708.921,505.815 1653.35,505.85 1645.112,505.856 1636.875,505.85 1565.557,505.781 1494.2,504.75 1471.325,504.422 1448.45,503.775 1425.568,503.598 1402.675,503.425 1385.502,503.302 1368.325,503.175 1351.136,502.697 1333.95,502.45 1254.25,501.35 1174.5,500.55 1112.463,499.94 1050.475,502.675 1041.356,503.077 1032.25,503.55 957.2,507 882.3,510.95 L722.25,511.75 Q641.95,507.9 561.75,502.95 489.1,497.9 416,497.2 336.95,496.4 258,497.5 180.9,498.6 103.7,500.15 31.05,501.65 -41.65,503.2 -115.55,504.75 -189.55,505.95 -267.5,507.2 -345.65,506.2 -421.35,505.25 -496.95,500.25 -574.75,495.6 -652.4,488.3 L-630.1,514.35 Q-556.4,522.5 -482.25,523.95 -405.3,525.45 -328.55,524.85 -251.5,524.25 -174.5,522.95 -95.35,521.65 -16.3,520.45 63.3,519.25 142.95,518 222.3,516.8 301.65,516.1 375.6,515.45 449.5,516.45 523.75,517.5 597.7,522.45 677.05,527.35 756.45,528.6 831.85,529.75 907.1,526.5 984.45,522.3 1061.75,520.35 1139.85,518.35 1217.95,519.6 1296.6,520.9 1375.3,521.8 1455.1,522.75 1534.9,523 1610.4,523.25 1685.9,523.35 1763.3,523.45 1840.7,523 1916.2,522.55 1991.65,518.9 2066,514.65 2140.5,512.95 2216.8,511.25 2292.75,518.5 L2310.6,500.95 M2310.675,500.175 Q2311.312,500.242 2311.95,500.3 L2311.95,500.95 2311.95,613 2311.95,624.2 M2292.75,624.2 L2292.75,613.025 M-634.6,617.25 L-634.9,624.2 M2292.75,613.025 L2292.75,518.5 M-654.35,624.2 L-654.25,617.25 -652.4,488.3 M-630.1,514.35 L-634.6,617.25" test="JuryBoxFront"/>
    </g>
  </g>
</svg>