<?xml version="1.0" encoding="utf-8"?>
<svg id="EdithAnim12" image-rendering="inherit" baseProfile="basic" version="1.1" x="0px" y="0px" width="800" height="600" xmlns="http://www.w3.org/2000/svg" xmlns:xlink="http://www.w3.org/1999/xlink">
  <g id="14_JurorParrotf35r1" overflow="visible">
    <g id="JurorsBack">
      <path fill="#000" stroke="none" d="M371.12,132.33 Q369.12,133.01 367.2,133.85 349.8,140.73 338.04,155.21 325.68,170.41 326.52,190.05 327.32,209.25 337.32,225.73 342.52,234.33 358.68,242.29 367,246.37 373.76,248.13 380,249.73 384.92,249.33 387.6,249.13 390.88,247.81 399.16,244.49 411.32,234.25 418.24,228.41 423.36,222.69 428.56,216.89 429.48,213.89 433.12,202.25 432.8,190.01 432.24,170.41 421.04,154.57 415.96,147.45 408.32,142.89 391.48,132.81 371.72,134.21 L371.12,132.33 M355.12,182.05 L351.16,184.97 355.12,182.05 M391.76,173.09 L387.76,176.01 391.76,173.09 M387.2,226.97 Q386.08,226.77 384.96,226.61 386.08,226.77 387.2,226.97 398.72,228.57 404.8,218.61 398.72,228.57 387.2,226.97 M151.36,138.21 Q142.8,140.41 135.4,145.25 128.12,149.97 121.84,156.17 115.44,162.57 111.36,170.73 107.24,179.09 106.24,188.25 105.24,197.37 107.32,206.25 109.4,215.33 113.96,223.33 118.52,231.29 125.04,237.73 131.8,244.37 140.24,248.61 144.88,251.01 149.88,252.33 153.68,253.29 157.68,253.65 160.16,253.57 162.64,253.29 169.44,252.49 176,250.29 185,247.29 192.56,241.45 200.08,235.57 204.72,227.05 209,219.17 211.12,210.53 213.24,201.89 212.48,192.97 211.68,183.61 207.52,175.05 203.56,166.85 197.6,160.01 191.8,153.37 185.16,147.53 178.04,141.37 168.92,138.57 160.24,135.81 151.36,138.21 M176.72,177.33 Q178.76,178.65 178.76,180.49 178.76,178.65 176.72,177.33 174.64,176.01 171.72,176.01 174.64,176.01 176.72,177.33 M145.52,174.85 Q147.4,175.97 147.4,177.57 147.4,175.97 145.52,174.85 143.64,173.73 141,173.73 143.64,173.73 145.52,174.85 M138.96,231.09 Q138.84,231.21 138.84,231.45 138.84,231.21 138.96,231.09 142.4,227.89 145.48,231.09 142.4,227.89 138.96,231.09 M-72.64,141.81 L-72.36,142.53 -67.52,141.17 -72.36,142.53 Q-78.88,145.01 -84.6,149.05 -91.12,153.73 -95.72,160.29 -99.84,166.13 -102.36,172.93 -104.76,179.53 -105.48,186.53 -106.24,193.69 -105.2,200.69 -104.08,208.13 -100.8,214.93 -97.68,221.49 -92.36,226.53 -87,231.61 -80.36,235.09 -76,237.41 -71.24,238.61 -68.4,239.29 -65.4,239.61 -58.56,240.61 -51.72,239.17 -51.16,239.05 -50.56,238.93 -44.04,237.37 -38,234.29 -31.56,230.89 -26.32,225.93 -21.04,220.85 -17.28,214.33 -13.68,208.21 -11.96,201.29 -10.24,194.45 -10.72,187.45 -11.24,180.13 -13.4,173.21 -15.52,166.41 -19.36,160.53 -23.2,154.61 -28.36,149.53 -33.84,144.21 -40.72,141.05 -47.76,137.81 -55.68,137.61 -62.4,138.29 -69.04,140.37 -70.64,140.85 -72.28,141.21 L-72.64,141.81 M-59.52,174.13 L-54.08,174.77 -59.52,174.13 M-55.08,222.01 Q-53.12,220.61 -53.12,218.61 -53.12,220.61 -55.08,222.01 -57.04,223.41 -59.84,223.41 -57.04,223.41 -55.08,222.01 M-79.36,180.01 L-84.8,179.37 -79.36,180.01 M784.88,135.93 Q776.48,137.81 768.84,142.05 760.56,146.69 754.6,154.09 749,161.05 746.56,169.61 744,178.41 743.6,187.65 743.2,196.65 744.36,205.61 745.48,214.49 750.48,221.93 755.64,229.61 763.16,234.85 770.44,239.97 778.76,243.13 787.6,246.41 797.04,246.85 806.04,247.61 814.44,244.21 823.24,240.73 829.56,233.53 835.92,226.33 839.88,217.77 843.84,209.17 845.48,199.73 847.04,190.73 845.92,181.61 844.76,172.09 840.48,163.41 836.24,154.93 829.28,148.57 823.36,143.13 816.52,138.89 810,134.81 802.68,132.33 L802.08,134.21 Q793.36,134.17 784.88,135.93 M809.76,177.57 L813.6,180.49 809.76,177.57 M778.08,180.49 L781.92,183.41 778.08,180.49 M778,221.77 Q778.68,221.61 779.36,221.49 778.68,221.61 778,221.77 772.76,223.25 770.08,218.61 772.76,223.25 778,221.77 M561.2,166.65 Q557.24,174.57 555.72,183.17 554.16,191.89 555.44,200.61 556.8,209.97 561.48,218.01 566.12,225.97 573.44,231.45 581.04,237.05 590.08,239.33 591.76,239.73 593.4,240.01 599.28,240.93 605.2,240.13 606.88,239.85 608.56,239.49 617.64,237.53 625.52,232.89 633.64,228.25 639.36,221.01 645.12,213.73 647.8,204.85 650.4,196.37 649.72,187.41 649.04,178.69 645.84,170.65 642.36,162.05 636.56,154.81 630.92,147.81 623.04,143.41 615.28,139.09 606.32,139.17 597,139.25 587.92,141.17 L587.56,141.81 587.84,142.53 592.68,141.17 587.84,142.53 Q579.72,146.13 572.8,151.93 565.44,158.13 561.2,166.65 M580.84,180.01 L575.4,179.37 580.84,180.01 M600.68,174.13 L606.12,174.77 600.68,174.13 M600.36,223.41 Q603.16,223.41 605.12,222.01 607.08,220.61 607.08,218.61 607.08,220.61 605.12,222.01 603.16,223.41 600.36,223.41Z" test="JurorsBack" vector-effect="non-scaling-stroke" stroke-width="1"/>
      <path id="Layer3_0_1_STROKES" stroke="#FFF" stroke-width="1.6" stroke-linejoin="round" stroke-linecap="round" fill="none" d="M587.84,142.53 Q579.72,146.13 572.8,151.93 565.44,158.13 561.2,166.65 557.24,174.57 555.72,183.17 554.16,191.89 555.44,200.61 556.8,209.97 561.48,218.01 566.12,225.97 573.44,231.45 581.04,237.05 590.08,239.33 591.76,239.73 593.4,240.01 599.28,240.93 605.2,240.13 606.88,239.85 608.56,239.49 617.64,237.53 625.52,232.89 633.64,228.25 639.36,221.01 645.12,213.73 647.8,204.85 650.4,196.37 649.72,187.41 649.04,178.69 645.84,170.65 642.36,162.05 636.56,154.81 630.92,147.81 623.04,143.41 615.28,139.09 606.32,139.17 597,139.25 587.92,141.17 L587.56,141.81 M592.68,141.17 L587.84,142.53 M580.84,180.01 L575.4,179.37 M600.68,174.13 L606.12,174.77 M600.36,223.41 Q603.16,223.41 605.12,222.01 607.08,220.61 607.08,218.61 M802.08,134.21 Q793.36,134.17 784.88,135.93 776.48,137.81 768.84,142.05 760.56,146.69 754.6,154.09 749,161.05 746.56,169.61 744,178.41 743.6,187.65 743.2,196.65 744.36,205.61 745.48,214.49 750.48,221.93 755.64,229.61 763.16,234.85 770.44,239.97 778.76,243.13 787.6,246.41 797.04,246.85 806.04,247.61 814.44,244.21 823.24,240.73 829.56,233.53 835.92,226.33 839.88,217.77 843.84,209.17 845.48,199.73 847.04,190.73 845.92,181.61 844.76,172.09 840.48,163.41 836.24,154.93 829.28,148.57 823.36,143.13 816.52,138.89 810,134.81 802.68,132.33 L794.08,130.85 M809.76,177.57 L813.6,180.49 M778.08,180.49 L781.92,183.41 M770.08,218.61 Q772.76,223.25 778,221.77 778.68,221.61 779.36,221.49 M799.72,251.77 Q800.52,252.77 801.36,253.81 824.52,283.13 836.04,320.09 843.04,342.61 850.08,365.01 M739.68,366.73 Q744.08,322.97 766.04,285.97 776.88,267.65 791.52,253.81 792.6,252.77 793.68,251.77 M553.2,372.21 Q557.68,345.13 565.24,319.17 568.52,307.89 571.64,296.49 578.52,271.37 588.68,249.05 590.04,246.09 591.52,243.33 M607.2,243.33 Q616.04,257.93 622.32,275.41 631.24,300.25 639.16,326.01 644.44,343.13 649.64,360.33 M-67.52,141.17 L-72.36,142.53 Q-78.88,145.01 -84.6,149.05 -91.12,153.73 -95.72,160.29 -99.84,166.13 -102.36,172.93 -104.76,179.53 -105.48,186.53 -106.24,193.69 -105.2,200.69 -104.08,208.13 -100.8,214.93 -97.68,221.49 -92.36,226.53 -87,231.61 -80.36,235.09 -76,237.41 -71.24,238.61 -68.4,239.29 -65.4,239.61 -58.56,240.61 -51.72,239.17 -51.16,239.05 -50.56,238.93 -44.04,237.37 -38,234.29 -31.56,230.89 -26.32,225.93 -21.04,220.85 -17.28,214.33 -13.68,208.21 -11.96,201.29 -10.24,194.45 -10.72,187.45 -11.24,180.13 -13.4,173.21 -15.52,166.41 -19.36,160.53 -23.2,154.61 -28.36,149.53 -33.84,144.21 -40.72,141.05 -47.76,137.81 -55.68,137.61 -62.4,138.29 -69.04,140.37 -70.64,140.85 -72.28,141.21 L-72.64,141.81 M-59.52,174.13 L-54.08,174.77 M-59.84,223.41 Q-57.04,223.41 -55.08,222.01 -53.12,220.61 -53.12,218.61 M157.68,253.65 Q160.16,253.57 162.64,253.29 169.44,252.49 176,250.29 185,247.29 192.56,241.45 200.08,235.57 204.72,227.05 209,219.17 211.12,210.53 213.24,201.89 212.48,192.97 211.68,183.61 207.52,175.05 203.56,166.85 197.6,160.01 191.8,153.37 185.16,147.53 178.04,141.37 168.92,138.57 160.24,135.81 151.36,138.21 142.8,140.41 135.4,145.25 128.12,149.97 121.84,156.17 115.44,162.57 111.36,170.73 107.24,179.09 106.24,188.25 105.24,197.37 107.32,206.25 109.4,215.33 113.96,223.33 118.52,231.29 125.04,237.73 131.8,244.37 140.24,248.61 144.88,251.01 149.88,252.33 153.68,253.29 157.68,253.65Z M171.72,176.01 Q174.64,176.01 176.72,177.33 178.76,178.65 178.76,180.49 M141,173.73 Q143.64,173.73 145.52,174.85 147.4,175.97 147.4,177.57 M371.72,134.21 Q391.48,132.81 408.32,142.89 415.96,147.45 421.04,154.57 432.24,170.41 432.8,190.01 433.12,202.25 429.48,213.89 428.56,216.89 423.36,222.69 418.24,228.41 411.32,234.25 399.16,244.49 390.88,247.81 387.6,249.13 384.92,249.33 380,249.73 373.76,248.13 367,246.37 358.68,242.29 342.52,234.33 337.32,225.73 327.32,209.25 326.52,190.05 325.68,170.41 338.04,155.21 349.8,140.73 367.2,133.85 369.12,133.01 371.12,132.33 M355.12,182.05 L351.16,184.97 M391.76,173.09 L387.76,176.01 M404.8,218.61 Q398.72,228.57 387.2,226.97 386.08,226.77 384.96,226.61 M-79.36,180.01 L-84.8,179.37 M-106.28,346.97 Q-105.32,341.17 -103.72,335.45 -97.72,313.81 -91.68,292.09 -85.16,268.77 -75.6,247.41 -74.96,245.97 -72.92,241.93 M431,355.37 Q427.88,329.09 418.28,305.65 408.88,282.57 398.52,260.01 396.48,255.61 394,251.93 M371.96,251.93 Q369.08,258.69 367.6,266.41 365.72,276.17 363.32,285.65 357.68,307.85 353.28,330.53 350.88,343.05 348.52,355.37 M165.04,256.85 Q169.56,263.77 173.32,271.41 182.48,290.09 190.92,308.97 198.44,325.81 203.28,344.05 M145.48,231.09 Q142.4,227.89 138.96,231.09 138.84,231.21 138.84,231.45 M107.96,344.05 Q109.92,337.81 112.44,331.77 121.56,310.21 130.84,288.57 137.64,272.65 146.24,258.25 146.64,257.53 147.08,256.85 M-49.16,242.33 Q-41.68,253.17 -37.88,262.81 -29,285.33 -21.08,308.73 -15.8,324.21 -10.56,339.77" test="JurorsBack"/>
    </g>
    <g id="Tween-1">
      <g id="JurorsFront">
        <path fill="#000" stroke="none" d="M260.426,275.215 Q253.697,275.896 247.049,277.979 245.447,278.459 243.805,278.82 L243.445,279.42 243.685,280.101 248.571,278.78 243.685,280.101 Q237.197,282.624 231.47,286.669 224.942,291.355 220.336,297.924 216.211,303.771 213.687,310.579 211.284,317.188 210.564,324.196 209.803,331.365 210.844,338.374 211.965,345.823 215.249,352.632 218.373,359.2 223.7,364.246 229.067,369.333 235.715,372.817 240.085,375.139 244.806,376.301 247.694,377.041 250.694,377.343 257.542,378.344 264.391,376.902 264.96,376.781 265.512,376.622 272.082,375.113 278.128,372.016 284.576,368.612 289.823,363.646 295.109,358.559 298.874,352.031 302.478,345.903 304.2,338.975 305.923,332.126 305.442,325.117 304.921,317.788 302.759,310.86 300.636,304.051 296.791,298.164 292.946,292.236 287.78,287.15 282.293,281.823 275.405,278.659 268.356,275.415 260.426,275.215 M236.716,317.668 L231.269,317.027 236.716,317.668 M256.581,311.781 L262.028,312.422 256.581,311.781 M256.261,361.122 Q259.064,361.122 261.027,359.721 262.989,358.319 262.989,356.316 262.989,358.319 261.027,359.721 259.064,361.122 256.261,361.122 M37.387,260.917 L36.787,262.84 Q-1.141,260.757 -16.159,295.16 -24.65,314.664 -19.924,335.33 -13.636,362.885 13.958,372.817 18.563,374.409 23.69,375.621 26.016,376.159 28.416,376.622 29.424,376.808 30.939,376.862 32.432,376.854 34.344,376.622 35.676,376.465 36.947,376.261 67.969,371.234 78.038,337.573 88.531,302.489 62.619,276.377 51.885,265.643 37.387,260.917 M44.476,306.254 L48.321,309.178 44.476,306.254 M12.757,309.178 L16.601,312.101 12.757,309.178 M12.677,350.509 Q13.357,350.349 14.038,350.229 13.357,350.349 12.677,350.509 7.39,351.991 4.747,347.345 7.39,351.991 12.677,350.509 M-138.472,356.917 Q-133.266,337.453 -141.756,319.31 -148.485,304.932 -159.098,293.158 -169.711,281.423 -185.291,279.701 -206.197,279.941 -185.411,280.021 -204.755,282.544 -220.495,293.959 -237.436,306.214 -241.481,326.599 -245.486,346.825 -237.235,365.528 -229.546,383.07 -213.686,393.883 -206.568,398.687 -198.427,399.931 -195.563,400.371 -192.58,400.371 -190.188,400.691 -187.894,400.772 -171.04,401.351 -158.017,389.278 -143.559,375.941 -138.472,356.917 M-193.861,327 Q-191.979,328.121 -191.979,329.723 -191.979,328.121 -193.861,327 -195.744,325.878 -198.387,325.878 -195.744,325.878 -193.861,327 M-171.634,327.841 Q-169.551,329.162 -169.551,331.005 -169.551,329.162 -171.634,327.841 -173.676,326.519 -176.6,326.519 -173.676,326.519 -171.634,327.841 M-220.174,361.763 L-200.95,368.171 -220.174,361.763 M756.445,271.811 L755.844,269.888 Q753.842,270.609 751.919,271.45 734.498,278.339 722.723,292.837 710.348,308.056 711.189,327.721 711.99,346.945 722.002,363.445 727.209,372.056 743.389,380.026 751.708,384.102 758.448,385.833 764.733,387.459 769.662,387.075 772.344,386.859 775.629,385.553 783.934,382.243 796.095,371.976 803.023,366.129 808.15,360.402 813.356,354.594 814.277,351.59 817.922,339.936 817.601,327.681 817.041,308.056 805.827,292.196 800.74,285.067 793.091,280.502 776.23,270.409 756.445,271.811 M739.824,319.711 L735.859,322.634 739.824,319.711 M776.51,310.739 L772.505,313.663 776.51,310.739 M771.944,364.687 Q770.823,364.487 769.702,364.326 770.823,364.487 771.944,364.687 783.479,366.289 789.566,356.316 783.479,366.289 771.944,364.687 M536.37,276.176 Q527.679,273.413 518.788,275.816 510.218,278.019 502.808,282.865 495.519,287.591 489.231,293.798 482.823,300.206 478.738,308.377 474.613,316.747 473.612,325.918 472.611,335.05 474.693,343.941 476.776,353.032 481.342,361.042 485.907,369.012 492.435,375.46 499.204,382.109 507.654,386.354 512.317,388.753 517.266,390.039 521.111,391.052 525.116,391.4 527.611,391.304 530.082,391 536.876,390.24 543.459,388.036 552.47,385.032 560.04,379.185 567.569,373.298 572.215,364.767 576.5,356.877 578.623,348.226 580.746,339.576 579.985,330.644 579.184,321.273 575.019,312.702 571.054,304.492 565.086,297.643 559.279,290.995 552.631,285.148 545.502,278.98 536.37,276.176 M544.14,314.985 Q546.223,316.306 546.223,318.149 546.223,316.306 544.14,314.985 542.097,313.663 539.174,313.663 542.097,313.663 544.14,314.985 M512.941,312.502 Q514.823,313.623 514.823,315.225 514.823,313.623 512.941,312.502 511.059,311.38 508.415,311.38 511.059,311.38 512.941,312.502 M506.373,368.812 Q506.253,368.932 506.253,369.172 506.253,368.932 506.373,368.812 509.817,365.608 512.901,368.812 509.817,365.608 506.373,368.812 M957.776,289.553 Q950.407,295.761 946.162,304.291 942.197,312.221 940.675,320.832 939.113,329.563 940.395,338.294 941.756,347.666 946.442,355.716 951.088,363.686 958.417,369.172 966.027,374.779 975.078,377.062 976.741,377.467 978.402,377.703 984.281,378.659 990.177,377.823 991.884,377.602 993.581,377.222 1002.672,375.26 1010.562,370.614 1018.692,365.968 1024.42,358.719 1030.187,351.43 1032.87,342.539 1035.473,334.049 1034.793,325.077 1034.112,316.347 1030.908,308.296 1027.423,299.686 1021.616,292.437 1015.969,285.428 1008.079,281.022 1000.31,276.697 991.338,276.777 982.007,276.857 972.915,278.78 L972.555,279.42 972.835,280.141 977.681,278.78 972.835,280.141 Q964.705,283.746 957.776,289.553 M985.691,311.781 L991.138,312.422 985.691,311.781 M965.826,317.668 L960.38,317.027 965.826,317.668 M985.371,361.122 Q988.174,361.122 990.137,359.721 992.099,358.319 992.099,356.316 992.099,358.319 990.137,359.721 988.174,361.122 985.371,361.122Z" test="JurorsFront" vector-effect="non-scaling-stroke" stroke-width="1"/>
        <path id="Layer4_0_1_STROKES" stroke="#FFF" stroke-width="1.602" stroke-linejoin="round" stroke-linecap="round" fill="none" d="M972.835,280.141 Q964.705,283.746 957.776,289.553 950.407,295.761 946.162,304.291 942.197,312.221 940.675,320.832 939.113,329.563 940.395,338.294 941.756,347.666 946.442,355.716 951.088,363.686 958.417,369.172 966.027,374.779 975.078,377.062 976.741,377.467 978.402,377.723 984.281,378.659 990.197,377.843 991.884,377.602 993.581,377.222 1002.672,375.26 1010.562,370.614 1018.692,365.968 1024.42,358.719 1030.187,351.43 1032.87,342.539 1035.473,334.049 1034.793,325.077 1034.112,316.347 1030.908,308.296 1027.423,299.686 1021.616,292.437 1015.969,285.428 1008.079,281.022 1000.31,276.697 991.338,276.777 982.007,276.857 972.915,278.78 L972.555,279.42 M977.681,278.78 L972.835,280.141 M985.691,311.781 L991.138,312.422 M965.826,317.668 L960.38,317.027 M525.116,391.4 Q527.611,391.304 530.082,391.02 536.876,390.24 543.459,388.036 552.47,385.032 560.04,379.185 567.569,373.298 572.215,364.767 576.5,356.877 578.623,348.226 580.746,339.576 579.985,330.644 579.184,321.273 575.019,312.702 571.054,304.492 565.086,297.643 559.279,290.995 552.631,285.148 545.502,278.98 536.37,276.176 527.679,273.413 518.788,275.816 510.218,278.019 502.808,282.865 495.519,287.591 489.231,293.798 482.823,300.206 478.738,308.377 474.613,316.747 473.612,325.918 472.611,335.05 474.693,343.941 476.776,353.032 481.342,361.042 485.907,369.012 492.435,375.46 499.204,382.109 507.654,386.354 512.317,388.753 517.286,390.059 521.111,391.052 525.116,391.4Z M539.174,313.663 Q542.097,313.663 544.16,314.985 546.223,316.306 546.223,318.149 M508.415,311.38 Q511.059,311.38 512.941,312.502 514.823,313.623 514.823,315.225 M756.445,271.811 Q776.23,270.409 793.091,280.502 800.74,285.067 805.827,292.196 817.041,308.056 817.601,327.681 817.922,339.936 814.277,351.59 813.356,354.594 808.15,360.402 803.023,366.129 796.095,371.976 783.934,382.243 775.629,385.553 772.344,386.859 769.662,387.075 764.733,387.459 758.468,385.853 751.708,384.102 743.389,380.026 727.209,372.056 722.002,363.445 711.99,346.945 711.189,327.721 710.348,308.056 722.723,292.837 734.498,278.339 751.919,271.45 753.842,270.609 755.844,269.909 M739.824,319.711 L735.859,322.634 M776.51,310.739 L772.505,313.663 M789.566,356.316 Q783.479,366.289 771.944,364.687 770.823,364.487 769.702,364.326 M815.799,493.247 Q812.675,466.935 803.063,443.465 793.652,420.356 783.279,397.768 781.237,393.363 778.753,389.678 M756.685,389.678 Q753.815,396.441 752.32,404.176 750.438,413.948 748.035,423.44 742.388,445.668 737.982,468.376 735.579,480.912 733.216,493.247 M475.334,481.913 Q477.297,475.665 479.82,469.618 488.951,448.031 498.243,426.364 505.066,410.41 513.642,396.006 514.058,395.303 514.483,394.604 M532.485,394.604 Q537.005,401.552 540.776,409.182 549.947,427.886 558.398,446.789 565.927,463.65 570.773,481.913 M512.901,368.812 Q509.817,365.608 506.373,368.812 506.253,368.932 506.253,369.172 M985.371,361.122 Q988.174,361.122 990.137,359.721 992.099,358.319 992.099,356.316 M938.152,510.108 Q942.638,482.995 950.207,457.002 953.491,445.708 956.615,434.294 963.504,409.142 973.676,386.794 975.035,383.838 976.52,381.067 M992.219,381.067 Q1001.085,395.68 1007.358,413.187 1016.289,438.058 1024.219,463.851 1029.506,480.992 1034.712,498.214 M-198.387,325.878 Q-195.744,325.878 -193.861,327 -191.979,328.121 -191.979,329.723 M-176.6,326.519 Q-173.676,326.519 -171.614,327.841 -169.551,329.162 -169.551,331.005 M-185.411,280.021 Q-204.755,282.544 -220.495,293.959 -237.436,306.214 -241.481,326.599 -245.486,346.825 -237.235,365.528 -229.546,383.07 -213.686,393.883 -206.568,398.687 -198.427,399.931 -195.563,400.371 -192.58,400.371 -190.188,400.691 -187.874,400.772 -171.04,401.351 -158.017,389.278 -143.559,375.941 -138.472,356.917 -133.266,337.453 -141.756,319.31 -148.485,304.932 -159.098,293.158 -169.711,281.423 -185.271,279.701 M37.387,260.937 L28.777,259.476 M36.787,262.84 Q-1.141,260.757 -16.159,295.16 -24.65,314.664 -19.924,335.33 -13.636,362.885 13.958,372.817 18.563,374.409 23.69,375.621 26.016,376.159 28.436,376.622 29.424,376.808 30.939,376.862 32.432,376.854 34.364,376.622 35.676,376.465 36.947,376.261 67.969,371.234 78.038,337.573 88.531,302.489 62.619,276.377 51.885,265.643 37.387,260.937 M44.476,306.254 L48.321,309.178 M12.757,309.178 L16.601,312.101 M4.747,347.345 Q7.39,351.991 12.677,350.509 13.357,350.349 14.038,350.229 M243.705,280.121 Q237.197,282.624 231.47,286.669 224.942,291.355 220.336,297.924 216.211,303.771 213.687,310.579 211.284,317.188 210.564,324.196 209.803,331.365 210.844,338.374 211.965,345.823 215.249,352.632 218.373,359.2 223.7,364.246 229.067,369.333 235.715,372.817 240.085,375.139 244.826,376.321 247.694,377.041 250.694,377.343 257.542,378.344 264.391,376.902 264.96,376.781 265.532,376.642 272.082,375.113 278.128,372.016 284.576,368.612 289.823,363.646 295.109,358.559 298.874,352.031 302.478,345.903 304.2,338.975 305.923,332.126 305.442,325.117 304.921,317.788 302.759,310.86 300.636,304.051 296.791,298.164 292.946,292.236 287.78,287.15 282.293,281.823 275.405,278.659 268.356,275.415 260.426,275.215 253.697,275.896 247.049,277.979 245.447,278.459 243.805,278.82 L243.445,279.42 M248.571,278.78 L243.705,280.121 M236.716,317.668 L231.269,317.027 M256.581,311.781 L262.028,312.422 M-241.921,490.924 Q-233.951,471.741 -225.1,452.997 -216.89,435.615 -208.359,418.674 -205.515,413.007 -201.271,405.137 M256.261,361.122 Q259.064,361.122 261.027,359.721 262.989,358.319 262.989,356.316 M266.954,380.066 Q274.43,390.937 278.248,400.572 287.139,423.12 295.069,446.549 300.356,462.048 305.602,477.628 M209.763,484.837 Q210.724,479.03 212.326,473.302 218.333,451.635 224.381,429.888 230.909,406.539 240.481,385.152 241.135,383.695 243.164,379.666 M39.57,380.226 Q60.932,412.903 70.589,446.589 76.676,467.936 83.124,488.962 M-25.371,488.962 Q-17.882,444.987 3.986,407.54 11.448,394.713 20.727,380.226 M-185.691,405.137 Q-180.847,414.792 -176.92,422.319 -167.709,439.901 -159.418,457.923 -152.009,473.983 -146.883,490.924 M-220.174,361.763 L-200.95,368.171" test="JurorsFront"/>
      </g>
    </g>
    <g id="Parrot">
      <path id="Layer2_0_1_STROKES" stroke="#FFF" stroke-width="2" stroke-linejoin="round" stroke-linecap="round" fill="none" d="M1391.45,248.85 Q1395.15,249.3 1398.45,252.25 1402.45,255.8 1400.95,261.45 1399.45,267.1 1396.65,269.95 1393.85,272.75 1390.25,272.65 1386.6,272.55 1384,270.45 1381.35,268.35 1380.7,264.8 1380.1,261.4 1380.95,258.25 1381.75,255.4 1382.8,253.7 1383.8,251.95 1385.9,250.85 1387.95,249.7 1391.45,248.85Z M1391.85,260.6 Q1391.35,259.95 1390.6,259.85 1389.8,259.75 1389.75,259.75 1389.45,259.75 1389.1,260.05 1388.25,260.8 1388.95,262.3 1389.55,263.55 1390.9,263.05 1391.85,262.7 1392,262 1392.15,261.5 1392.15,261.3 1392.2,260.9 1391.85,260.6Z M1347.1,251.35 Q1349.3,251.15 1352.25,254.55 1355.15,257.85 1354.95,262.5 1354.75,267.05 1352.65,269.85 1350.6,272.6 1347.05,272.5 1343.45,272.35 1340.65,270.1 1337.5,267.7 1337.65,263.9 1337.9,258.7 1339.65,255.6 1342.05,251.3 1347.1,251.35Z M1349.75,262.15 Q1349.4,261.55 1348.75,261.5 1348,261.4 1347.95,261.4 1347.75,261.4 1347.4,261.65 1346.65,262.35 1347.3,263.7 1347.85,264.85 1348.95,264.35 1349.75,264.05 1349.9,263.4 1350,263 1350,262.8 1350.1,262.45 1349.75,262.15Z" test="Parrot"/>
      <path id="Layer2_0_2_STROKES" stroke="#F00" stroke-width="2" stroke-linejoin="round" stroke-linecap="round" fill="none" d="M1413,279.25 Q1416,279.85 1416.75,279.95 1417.5,280.05 1419,280.05 1421.15,280.05 1425,277.65 M1406.6,304.85 L1408.05,305.25 Q1409.75,305.65 1411,305.65 1411.75,305.65 1413.85,304.25 1415.8,302.95 1416.2,302.45 M1449,328.15 Q1440.15,318.55 1437.25,305.9 1434.8,295.1 1436.3,279.45 1437.65,265.65 1430.6,252.75 1422.8,238.5 1410.05,233 1397.3,227.45 1387.45,226.5 1377.6,225.5 1368.2,228.95 1358.75,232.4 1351.85,239.35 1345,246.2 1344.75,247.75 M1342.9,317.25 Q1342.45,330.3 1335.95,340.9 M1375.4,305.65 Q1377.65,308.15 1379.1,310.9 1379.3,311.25 1381.8,311.25 1383.1,311.25 1384.85,310.75 1385.2,310.65 1388.2,309.65" test="Parrot"/>
      <path id="Layer2_0_3_STROKES" stroke="#0FF" stroke-width="2" stroke-linejoin="round" stroke-linecap="round" fill="none" d="M1340.55,334.3 L1339.9,338.2 Q1340.8,338.65 1341.9,338.75 1342.6,338.85 1344.1,338.85 1348.25,338.85 1351.35,335.3 1354.5,331.7 1356.8,331.7 1357.6,331.7 1362,332.35 1366.35,333 1367.2,333 1372.15,333 1373.15,330.75 1374.1,328.45 1377.9,328.45 1378.75,328.45 1381.85,329.1 1385,329.75 1385.8,329.75 1386.35,329.75 1388.3,327.8 1390.2,325.85 1392.6,325.85 1393.45,325.85 1396.7,326.5 1399.95,327.15 1400.75,327.15 1401.65,327.15 1404.15,325.85 1405.4,325.2 1406.6,324.55 1406.75,324.55 1409.75,325.85 1413.1,327.15 1414.7,327.15 1416.75,327.15 1419.4,326.2 1420.7,325.7 1421.85,325.2 1423.85,325.2 1433.9,327.5 1442.25,329.4 1446,329.7 1446.75,329.75 1447.3,329.75 M1376.35,352.6 Q1375.8,354.45 1374,371.25 1372.25,387.5 1371.15,390.35 1369.6,394.55 1369.05,405.25 1368.45,416.6 1369.85,423.55 1371.4,431.25 1378.65,452.3 1386.1,473.9 1389.4,479.55 1390.95,482.25 1395.65,489.55 1399.45,495.45 1402.4,501.05 1406.3,508.45 1409.4,511.4 1412.55,514.45 1417.4,515.4 1420.65,516.05 1425.7,517.25 1429.1,517.65 1429.1,514.75 1429.1,506.65 1437.55,510.85 1443.5,513.8 1445.55,514.2 1448.85,514.85 1450.6,512.15 1451.9,510.2 1453.65,506.85 1455.55,504.25 1459.7,503 1462.4,502.2 1464.8,504 1465.45,504.5 1466.9,499.1 1468.55,493 1471.15,486.3 L1473.4,480.85 Q1474.05,476.95 1476,467.85 1477.7,459.85 1476.9,449.75 1475.9,437.55 1471.45,428.15 1471.2,427.65 1460.05,405.6 1452.95,391.5 1450.6,384.5 1448.85,379.25 1445.5,371.9 1443.15,366.8 1442.8,363.65 M1478.45,384.15 Q1477.85,383.8 1476.95,383.8 1476.8,383.8 1469.15,386.4 1467.5,385.5 1465.5,384.45 1465.15,386.35 1463.8,387.8 1462.65,389 1461.9,389 1460.25,389 1458.9,387.8 1457.8,386.85 1457.7,387.05 1456.85,387.95 1455.6,388.55 1454.15,389.2 1453.15,389 M1450.55,333 Q1477.6,358.85 1477.9,383.8 L1478.55,383.8 M1335.95,340.9 Q1331.5,352.8 1327.85,365.1 1324.2,377.35 1321.15,389.8 1319.2,397.7 1316.8,405.5 1312.95,417.95 1312,430.9 1311.8,433.95 1312,436.9 1312.75,449.75 1310.7,462.65 1310.05,466.95 1308.15,470.85 1306.75,473.7 1305.4,476.5 1303.65,474.15 1303.15,471.05 1299.2,446.65 1301.05,422.2 1301.35,418.3 1302.05,414.4 1303.25,407.95 1304.3,401.5 1305.3,395.55 1307.5,389.9 1312.05,378.15 1316.9,366.6 1323.3,351.55 1335.95,340.9Z M1322.9,401.4 Q1325.5,403.85 1328.55,404.45 1329.45,404.65 1332.75,404.65 1334.6,404.65 1335.45,403.05 1336.3,401.4 1339.25,401.4 1341.2,401.4 1345.5,401.8 1349.35,402.05 1351.6,401.4 1357.15,399.85 1362.2,399.5 1363.55,399.4 1367.85,399.4" test="Parrot"/>
      <path id="Layer2_0_4_STROKES" stroke="#0F0" stroke-width="2" stroke-linejoin="round" stroke-linecap="round" fill="none" d="M1482.3,410.4 Q1483.1,409.15 1483.1,406.95 1483.1,405.4 1480.95,395.8 1478.7,386.05 1477.9,384.45" test="Parrot"/>
      <path id="Layer2_0_5_STROKES" stroke="#FF0" stroke-width="2" stroke-linejoin="round" stroke-linecap="round" fill="none" d="M1479.2,443.65 L1485.05,443.65 Q1484.75,442.25 1485.8,438.45 1487,434.3 1487,433.25 1487,426.95 1485.1,418.9 1483.5,412.1 1482.3,410.4 M1343.2,278.3 Q1332.7,283.65 1331.6,293.35 1331.1,297.8 1330.8,302.35 1346.35,305 1352.45,300.65 1354.5,293.75 1351.4,288.5 1348.25,283.2 1346.75,281.75 1345.25,280.25 1343.2,278.3Z M1336.65,303.65 Q1334.6,314.05 1345.5,314.75 1347.5,314.6 1349.15,313.8 1353.15,310.9 1351.6,302.25 M1315.75,458.05 Q1318.5,460.4 1319.65,461.75 1319.95,461.95 1323.2,461.95 1325.8,461.95 1334.4,458.7 1341.35,456.1 1343.4,455.6 1343.65,455.5 1343.8,455.5 1343.85,456.45 1348.4,456.7 1349.35,456.75 1354.2,456.75 1356.1,456.75 1360.05,455.8 1364,454.8 1365.55,454.8 1367.95,454.8 1368.15,454.75 1369.4,454.35 1369.8,452.1 1377.6,453.9 1375.65,453.4 M1343.4,455.6 Q1343.15,455.7 1343.35,456.05 1343.8,456.75 1343.8,455.5 M1329.4,502.35 Q1325.45,505.4 1324.55,507.9 1324.2,508.95 1324.2,513.05 1324.2,518.45 1327.35,520.2 1329.75,521.5 1339.25,522.5 1339.25,520.9 1338.95,519.55 1340.95,520.3 1343.8,521.2 L1347.05,521.2 Q1345.75,519.5 1344.7,518.1 1346.95,518.9 1349,519.9 L1353.55,519.9 1353.55,516.65 Q1349.95,513.45 1348.8,507.75 1348.2,502.2 1347.7,501.05 1347.05,501.05 1345.75,500.4 M1361.35,503 Q1360.5,513.2 1362.25,516.2 1363.75,518.8 1369.8,519.25 L1369.8,515.35 Q1369.25,514.25 1368.7,511.35 1368.85,511.55 1368.95,511.8 1371.8,517.55 1376.95,518.6 L1376.95,513.45 Q1377.6,514.5 1378.4,515.5 1381,518.6 1384.1,519.25 L1384.8,519.25 Q1385.15,517.15 1384.05,513.4 1382.8,509.25 1382.8,507.55 1382.8,504.1 1385.45,502.35 M1397.8,508.2 Q1397,521 1406.25,544.6 1410.2,554.7 1414.1,561.15 1418.3,568.05 1420.9,568.05 1424.6,568.05 1425.5,567.65 1428.55,566.3 1429,560.9 1431.35,562.05 1437.45,562.85 1442.8,562.85 1444.55,557.35 1445.65,553.95 1445.85,553.55 1446.8,551.8 1448.6,551.8 1449.3,551.8 1456.4,554.4 1457.5,554.4 1459.35,551.15 1461.35,547.65 1462.9,547.25 1466.6,546.2 1471.8,545.45 1475.5,544.5 1477.25,540.75 1478.3,540.75 1480.1,541.1 1481.9,541.4 1482.45,541.4 L1482.45,519.9 Q1479.85,511 1477.1,498.85 1475,489.65 1473.35,485.45" test="Parrot"/>
      <path id="Layer2_0_6_STROKES" stroke="#F0F" stroke-width="2" stroke-linejoin="round" stroke-linecap="round" fill="none" d="M1305.4,476.5 L1306.4,485.6 Q1308,495.45 1311.25,499.1 1312.9,500.95 1313.85,503.25 1314.4,504.5 1315,506.4 1315.5,507.75 1316.35,507.9 1317.4,508.05 1319.7,506.9 1322.75,505.4 1325.3,502.45 1327.05,500.4 1329.45,500.4 1331.75,500.4 1337.55,501.3 1342.7,501.75 1345.1,499.75 1347.45,497.8 1352.2,498.95 1354.9,499.6 1360.75,501.05 1363.7,501.4 1368.05,502.25 1371.55,502.65 1374.4,501.05 1377.35,499.4 1380.35,499.5 1382.25,499.6 1386.8,500.4 1389.4,500.75 1392.25,501.8 1394.05,502.15 1395.25,499.75 M1478.55,485.45 Q1480.9,473.45 1482.25,465.15 1483.35,458.65 1485.05,446.25 M1440.15,630.6 Q1442.95,638.7 1443.7,639.9 1444.8,641.65 1447.6,641.65 1448.65,641.65 1448.95,641.55 1450.35,640.9 1451.85,638.4 1470.55,657.25 1471.75,657.25 1479.25,657.25 1482.45,644.3 1484.4,636.5 1484.4,627.05 1484.4,621.1 1483.1,615.45 1482.25,611.75 1480.5,607.15" test="Parrot"/>
      <path id="Layer2_0_7_STROKES" stroke="#F60" stroke-width="2" stroke-linejoin="round" stroke-linecap="round" fill="none" d="M1422.5,572.6 Q1422,571.8 1421.45,571 1420.3,569.35 1419.9,569.35 L1419.9,572.6 Q1421.15,580.2 1429.5,602.65 1439.35,629.3 1444.35,629.3 1446.5,629.3 1451.4,625.1 1455.95,620.85 1456.05,620.85 1456.9,620.85 1459.3,621.5 1461.75,622.15 1462.55,622.15 1465,622.15 1467.4,617.25 1469.05,613.85 1469.45,611.7 1475.1,611.7 1477.95,608.8 1480.8,605.85 1483.75,605.85 1483.75,603.6 1484.1,598.6 1484.4,593.6 1484.4,593.1 1484.4,588.55 1481.5,578.45 1478.2,567.05 1477.9,564.8 1477.4,561.3 1477.6,555.25 1477.9,548.9 1477.9,546.6 L1477.25,546.6" test="Parrot"/>
    </g>
    <g id="JuryBoxFront">
      <path fill="#000" stroke="none" d="M-704.7,514.35 L-727,488.3 -728.85,617.25 Q-720.672,617.251 -709.2,617.25 L-704.7,514.35 M2237.35,500.95 L2236,500.95 2218.15,518.5 2218.15,613 Q2228.634,613.017 2237.35,613 L2237.35,500.95 M2065.9,512.95 Q1991.4,514.65 1917.05,518.9 1841.6,522.55 1766.1,523 1688.7,523.45 1611.3,523.35 1535.8,523.25 1460.3,523 1380.5,522.75 1300.7,521.8 1222,520.9 1143.35,519.6 1065.25,518.35 987.15,520.35 909.85,522.3 832.5,526.5 757.25,529.75 681.85,528.6 602.45,527.35 523.1,522.45 449.15,517.5 374.9,516.45 301,515.45 227.05,516.1 147.7,516.8 68.35,518 -11.3,519.25 -90.9,520.45 -169.95,521.65 -249.1,522.95 -326.1,524.25 -403.15,524.85 -479.9,525.45 -556.85,523.95 -631,522.5 -704.7,514.35 L-709.2,617.25 Q-503.242,617.16 765.6,615.15 1973.473,613.195 2218.15,613 L2218.15,518.5 Q2142.2,511.25 2065.9,512.95 M1898.2,502.85 Q1892.994,503.094 1887.8,503.3 1811.85,505.8 1735.9,505.8 1712.886,505.8 1689.85,505.8 1634.321,505.815 1578.75,505.85 1570.512,505.856 1562.25,505.85 1490.957,505.781 1419.6,504.75 1396.725,504.422 1373.85,503.75 1350.968,503.598 1328.05,503.4 1310.902,503.302 1293.7,503.15 1276.536,502.697 1259.35,502.45 1179.65,501.35 1099.9,500.55 1037.863,499.94 975.85,502.65 966.756,503.077 957.65,503.55 882.6,507 807.7,510.95 L647.65,511.75 Q567.35,507.9 487.15,502.95 414.5,497.9 341.4,497.2 262.35,496.4 183.4,497.5 106.3,498.6 29.1,500.15 -43.55,501.65 -116.25,503.2 -190.15,504.75 -264.15,505.95 -342.1,507.2 -420.25,506.2 -495.95,505.25 -571.55,500.25 -649.35,495.6 -727,488.3 L-704.7,514.35 Q-631,522.5 -556.85,523.95 -479.9,525.45 -403.15,524.85 -326.1,524.25 -249.1,522.95 -169.95,521.65 -90.9,520.45 -11.3,519.25 68.35,518 147.7,516.8 227.05,516.1 301,515.45 374.9,516.45 449.15,517.5 523.1,522.45 602.45,527.35 681.85,528.6 757.25,529.75 832.5,526.5 909.85,522.3 987.15,520.35 1065.25,518.35 1143.35,519.6 1222,520.9 1300.7,521.8 1380.5,522.75 1460.3,523 1535.8,523.25 1611.3,523.35 1688.7,523.45 1766.1,523 1841.6,522.55 1917.05,518.9 1991.4,514.65 2065.9,512.95 2142.2,511.25 2218.15,518.5 L2236,500.95 2236.05,500.15 Q2217.662,498.494 2199.25,496.85 2185.152,495.536 2171.05,494.6 2111.085,490.798 2050.9,494.4 1974.631,499.691 1898.2,502.85Z" test="JuryBoxFront"/>
      <path id="Layer1_0_1_STROKES" stroke="#F60" stroke-width="2" stroke-linejoin="round" stroke-linecap="round" fill="none" d="M2236.075,500.175 Q2217.662,498.494 2199.25,496.85 2185.152,495.536 2171.05,494.625 2111.085,490.798 2050.9,494.4 1974.631,499.691 1898.2,502.875 1892.994,503.094 1887.8,503.3 1811.85,505.8 1735.9,505.8 1712.886,505.8 1689.875,505.8 1634.321,505.815 1578.75,505.85 1570.512,505.856 1562.275,505.85 1490.957,505.781 1419.6,504.75 1396.725,504.422 1373.85,503.775 1350.968,503.598 1328.075,503.425 1310.902,503.302 1293.725,503.175 1276.536,502.697 1259.35,502.45 1179.65,501.35 1099.9,500.55 1037.863,499.94 975.875,502.675 966.756,503.077 957.65,503.55 882.6,507 807.7,510.95 L647.65,511.75 Q567.35,507.9 487.15,502.95 414.5,497.9 341.4,497.2 262.35,496.4 183.4,497.5 106.3,498.6 29.1,500.15 -43.55,501.65 -116.25,503.2 -190.15,504.75 -264.15,505.95 -342.1,507.2 -420.25,506.2 -495.95,505.25 -571.55,500.25 -649.35,495.6 -727,488.3 L-704.7,514.35 Q-631,522.5 -556.85,523.95 -479.9,525.45 -403.15,524.85 -326.1,524.25 -249.1,522.95 -169.95,521.65 -90.9,520.45 -11.3,519.25 68.35,518 147.7,516.8 227.05,516.1 301,515.45 374.9,516.45 449.15,517.5 523.1,522.45 602.45,527.35 681.85,528.6 757.25,529.75 832.5,526.5 909.85,522.3 987.15,520.35 1065.25,518.35 1143.35,519.6 1222,520.9 1300.7,521.8 1380.5,522.75 1460.3,523 1535.8,523.25 1611.3,523.35 1688.7,523.45 1766.1,523 1841.6,522.55 1917.05,518.9 1991.4,514.65 2065.9,512.95 2142.2,511.25 2218.15,518.5 L2236,500.95 M2236.075,500.175 Q2236.712,500.242 2237.35,500.3 L2237.35,500.95 2237.35,613 2237.35,624.2 M2218.15,624.2 L2218.15,613.025 M-709.2,617.25 L-709.5,624.2 M2218.15,613.025 L2218.15,518.5 M-728.95,624.2 L-728.85,617.25 -727,488.3 M-704.7,514.35 L-709.2,617.25" test="JuryBoxFront"/>
    </g>
  </g>
</svg>