<?xml version="1.0" encoding="utf-8"?>
<svg id="EdithAnim12" image-rendering="inherit" baseProfile="basic" version="1.1" x="0px" y="0px" width="800" height="600" xmlns="http://www.w3.org/2000/svg" xmlns:xlink="http://www.w3.org/1999/xlink">
  <g id="14_JurorParrotf45r1" overflow="visible">
    <g id="JurorsBack">
      <path fill="#000" stroke="none" d="M128.62,132.28 Q126.62,132.96 124.7,133.8 107.3,140.68 95.54,155.16 83.18,170.36 84.02,190 84.82,209.2 94.82,225.68 100.02,234.28 116.18,242.24 124.5,246.32 131.26,248.08 137.5,249.68 142.42,249.28 145.1,249.08 148.38,247.76 156.66,244.44 168.82,234.2 175.74,228.36 180.86,222.64 186.06,216.84 186.98,213.84 190.62,202.2 190.3,189.96 189.74,170.36 178.54,154.52 173.46,147.4 165.82,142.84 148.98,132.76 129.22,134.16 L128.62,132.28 M112.62,182 L108.66,184.92 112.62,182 M149.26,173.04 L145.26,175.96 149.26,173.04 M144.7,226.92 Q143.58,226.72 142.46,226.56 143.58,226.72 144.7,226.92 156.22,228.52 162.3,218.56 156.22,228.52 144.7,226.92 M-91.14,138.16 Q-99.7,140.36 -107.1,145.2 -114.38,149.92 -120.66,156.12 -127.06,162.52 -131.14,170.68 -135.26,179.04 -136.26,188.2 -137.26,197.32 -135.18,206.2 -133.1,215.28 -128.54,223.28 -123.98,231.24 -117.46,237.68 -110.7,244.32 -102.26,248.56 -97.62,250.96 -92.62,252.28 -88.82,253.24 -84.82,253.6 -82.34,253.52 -79.86,253.24 -73.06,252.44 -66.5,250.24 -57.5,247.24 -49.94,241.4 -42.42,235.52 -37.78,227 -33.5,219.12 -31.38,210.48 -29.26,201.84 -30.02,192.92 -30.82,183.56 -34.98,175 -38.94,166.8 -44.9,159.96 -50.7,153.32 -57.34,147.48 -64.46,141.32 -73.58,138.52 -82.26,135.76 -91.14,138.16 M-65.78,177.28 Q-63.74,178.6 -63.74,180.44 -63.74,178.6 -65.78,177.28 -67.86,175.96 -70.78,175.96 -67.86,175.96 -65.78,177.28 M-96.98,174.8 Q-95.1,175.92 -95.1,177.52 -95.1,175.92 -96.98,174.8 -98.86,173.68 -101.5,173.68 -98.86,173.68 -96.98,174.8 M-103.54,231.04 Q-103.66,231.16 -103.66,231.4 -103.66,231.16 -103.54,231.04 -100.1,227.84 -97.02,231.04 -100.1,227.84 -103.54,231.04 M-315.14,141.76 L-314.86,142.48 -310.02,141.12 -314.86,142.48 Q-321.38,144.96 -327.1,149 -333.62,153.68 -338.22,160.24 -342.34,166.08 -344.86,172.88 -347.26,179.48 -347.98,186.48 -348.74,193.64 -347.7,200.64 -346.58,208.08 -343.3,214.88 -340.18,221.44 -334.86,226.48 -329.5,231.56 -322.86,235.04 -318.5,237.36 -313.74,238.56 -310.9,239.24 -307.9,239.56 -301.06,240.56 -294.22,239.12 -293.66,239 -293.06,238.88 -286.54,237.32 -280.5,234.24 -274.06,230.84 -268.82,225.88 -263.54,220.8 -259.78,214.28 -256.18,208.16 -254.46,201.24 -252.74,194.4 -253.22,187.4 -253.74,180.08 -255.9,173.16 -258.02,166.36 -261.86,160.48 -265.7,154.56 -270.86,149.48 -276.34,144.16 -283.22,141 -290.26,137.76 -298.18,137.56 -304.9,138.24 -311.54,140.32 -313.14,140.8 -314.78,141.16 L-315.14,141.76 M-302.02,174.08 L-296.58,174.72 -302.02,174.08 M-297.58,221.96 Q-295.62,220.56 -295.62,218.56 -295.62,220.56 -297.58,221.96 -299.54,223.36 -302.34,223.36 -299.54,223.36 -297.58,221.96 M-321.86,179.96 L-327.3,179.32 -321.86,179.96 M542.38,135.88 Q533.98,137.76 526.34,142 518.06,146.64 512.1,154.04 506.5,161 504.06,169.56 501.5,178.36 501.1,187.6 500.7,196.6 501.86,205.56 502.98,214.44 507.98,221.88 513.14,229.56 520.66,234.8 527.94,239.92 536.26,243.08 545.1,246.36 554.54,246.8 563.54,247.56 571.94,244.16 580.74,240.68 587.06,233.48 593.42,226.28 597.38,217.72 601.34,209.12 602.98,199.68 604.54,190.68 603.42,181.56 602.26,172.04 597.98,163.36 593.74,154.88 586.78,148.52 580.86,143.08 574.02,138.84 567.5,134.76 560.18,132.28 L559.58,134.16 Q550.86,134.12 542.38,135.88 M567.26,177.52 L571.1,180.44 567.26,177.52 M535.58,180.44 L539.42,183.36 535.58,180.44 M535.5,221.72 Q536.18,221.56 536.86,221.44 536.18,221.56 535.5,221.72 530.26,223.2 527.58,218.56 530.26,223.2 535.5,221.72 M318.7,166.6 Q314.74,174.52 313.22,183.12 311.66,191.84 312.94,200.56 314.3,209.92 318.98,217.96 323.62,225.92 330.94,231.4 338.54,237 347.58,239.28 349.26,239.68 350.9,239.96 356.78,240.88 362.7,240.08 364.38,239.8 366.06,239.44 375.14,237.48 383.02,232.84 391.14,228.2 396.86,220.96 402.62,213.68 405.3,204.8 407.9,196.32 407.22,187.36 406.54,178.64 403.34,170.6 399.86,162 394.06,154.76 388.42,147.76 380.54,143.36 372.78,139.04 363.82,139.12 354.5,139.2 345.42,141.12 L345.06,141.76 345.34,142.48 350.18,141.12 345.34,142.48 Q337.22,146.08 330.3,151.88 322.94,158.08 318.7,166.6 M338.34,179.96 L332.9,179.32 338.34,179.96 M358.18,174.08 L363.62,174.72 358.18,174.08 M357.86,223.36 Q360.66,223.36 362.62,221.96 364.58,220.56 364.58,218.56 364.58,220.56 362.62,221.96 360.66,223.36 357.86,223.36Z" test="JurorsBack" vector-effect="non-scaling-stroke" stroke-width="1"/>
      <path id="Layer3_0_1_STROKES" stroke="#FFF" stroke-width="1.6" stroke-linejoin="round" stroke-linecap="round" fill="none" d="M345.34,142.48 Q337.22,146.08 330.3,151.88 322.94,158.08 318.7,166.6 314.74,174.52 313.22,183.12 311.66,191.84 312.94,200.56 314.3,209.92 318.98,217.96 323.62,225.92 330.94,231.4 338.54,237 347.58,239.28 349.26,239.68 350.9,239.96 356.78,240.88 362.7,240.08 364.38,239.8 366.06,239.44 375.14,237.48 383.02,232.84 391.14,228.2 396.86,220.96 402.62,213.68 405.3,204.8 407.9,196.32 407.22,187.36 406.54,178.64 403.34,170.6 399.86,162 394.06,154.76 388.42,147.76 380.54,143.36 372.78,139.04 363.82,139.12 354.5,139.2 345.42,141.12 L345.06,141.76 M350.18,141.12 L345.34,142.48 M338.34,179.96 L332.9,179.32 M358.18,174.08 L363.62,174.72 M357.86,223.36 Q360.66,223.36 362.62,221.96 364.58,220.56 364.58,218.56 M559.58,134.16 Q550.86,134.12 542.38,135.88 533.98,137.76 526.34,142 518.06,146.64 512.1,154.04 506.5,161 504.06,169.56 501.5,178.36 501.1,187.6 500.7,196.6 501.86,205.56 502.98,214.44 507.98,221.88 513.14,229.56 520.66,234.8 527.94,239.92 536.26,243.08 545.1,246.36 554.54,246.8 563.54,247.56 571.94,244.16 580.74,240.68 587.06,233.48 593.42,226.28 597.38,217.72 601.34,209.12 602.98,199.68 604.54,190.68 603.42,181.56 602.26,172.04 597.98,163.36 593.74,154.88 586.78,148.52 580.86,143.08 574.02,138.84 567.5,134.76 560.18,132.28 L551.58,130.8 M567.26,177.52 L571.1,180.44 M535.58,180.44 L539.42,183.36 M527.58,218.56 Q530.26,223.2 535.5,221.72 536.18,221.56 536.86,221.44 M557.22,251.72 Q558.02,252.72 558.86,253.76 582.02,283.08 593.54,320.04 600.54,342.56 607.58,364.96 M497.18,366.68 Q501.58,322.92 523.54,285.92 534.38,267.6 549.02,253.76 550.1,252.72 551.18,251.72 M310.7,372.16 Q315.18,345.08 322.74,319.12 326.02,307.84 329.14,296.44 336.02,271.32 346.18,249 347.54,246.04 349.02,243.28 M364.7,243.28 Q373.54,257.88 379.82,275.36 388.74,300.2 396.66,325.96 401.94,343.08 407.14,360.28 M-310.02,141.12 L-314.86,142.48 Q-321.38,144.96 -327.1,149 -333.62,153.68 -338.22,160.24 -342.34,166.08 -344.86,172.88 -347.26,179.48 -347.98,186.48 -348.74,193.64 -347.7,200.64 -346.58,208.08 -343.3,214.88 -340.18,221.44 -334.86,226.48 -329.5,231.56 -322.86,235.04 -318.5,237.36 -313.74,238.56 -310.9,239.24 -307.9,239.56 -301.06,240.56 -294.22,239.12 -293.66,239 -293.06,238.88 -286.54,237.32 -280.5,234.24 -274.06,230.84 -268.82,225.88 -263.54,220.8 -259.78,214.28 -256.18,208.16 -254.46,201.24 -252.74,194.4 -253.22,187.4 -253.74,180.08 -255.9,173.16 -258.02,166.36 -261.86,160.48 -265.7,154.56 -270.86,149.48 -276.34,144.16 -283.22,141 -290.26,137.76 -298.18,137.56 -304.9,138.24 -311.54,140.32 -313.14,140.8 -314.78,141.16 L-315.14,141.76 M-302.02,174.08 L-296.58,174.72 M-302.34,223.36 Q-299.54,223.36 -297.58,221.96 -295.62,220.56 -295.62,218.56 M-84.82,253.6 Q-82.34,253.52 -79.86,253.24 -73.06,252.44 -66.5,250.24 -57.5,247.24 -49.94,241.4 -42.42,235.52 -37.78,227 -33.5,219.12 -31.38,210.48 -29.26,201.84 -30.02,192.92 -30.82,183.56 -34.98,175 -38.94,166.8 -44.9,159.96 -50.7,153.32 -57.34,147.48 -64.46,141.32 -73.58,138.52 -82.26,135.76 -91.14,138.16 -99.7,140.36 -107.1,145.2 -114.38,149.92 -120.66,156.12 -127.06,162.52 -131.14,170.68 -135.26,179.04 -136.26,188.2 -137.26,197.32 -135.18,206.2 -133.1,215.28 -128.54,223.28 -123.98,231.24 -117.46,237.68 -110.7,244.32 -102.26,248.56 -97.62,250.96 -92.62,252.28 -88.82,253.24 -84.82,253.6Z M-70.78,175.96 Q-67.86,175.96 -65.78,177.28 -63.74,178.6 -63.74,180.44 M-101.5,173.68 Q-98.86,173.68 -96.98,174.8 -95.1,175.92 -95.1,177.52 M129.22,134.16 Q148.98,132.76 165.82,142.84 173.46,147.4 178.54,154.52 189.74,170.36 190.3,189.96 190.62,202.2 186.98,213.84 186.06,216.84 180.86,222.64 175.74,228.36 168.82,234.2 156.66,244.44 148.38,247.76 145.1,249.08 142.42,249.28 137.5,249.68 131.26,248.08 124.5,246.32 116.18,242.24 100.02,234.28 94.82,225.68 84.82,209.2 84.02,190 83.18,170.36 95.54,155.16 107.3,140.68 124.7,133.8 126.62,132.96 128.62,132.28 M112.62,182 L108.66,184.92 M149.26,173.04 L145.26,175.96 M162.3,218.56 Q156.22,228.52 144.7,226.92 143.58,226.72 142.46,226.56 M-321.86,179.96 L-327.3,179.32 M-348.78,346.92 Q-347.82,341.12 -346.22,335.4 -340.22,313.76 -334.18,292.04 -327.66,268.72 -318.1,247.36 -317.46,245.92 -315.42,241.88 M188.5,355.32 Q185.38,329.04 175.78,305.6 166.38,282.52 156.02,259.96 153.98,255.56 151.5,251.88 M129.46,251.88 Q126.58,258.64 125.1,266.36 123.22,276.12 120.82,285.6 115.18,307.8 110.78,330.48 108.38,343 106.02,355.32 M-77.46,256.8 Q-72.94,263.72 -69.18,271.36 -60.02,290.04 -51.58,308.92 -44.06,325.76 -39.22,344 M-97.02,231.04 Q-100.1,227.84 -103.54,231.04 -103.66,231.16 -103.66,231.4 M-134.54,344 Q-132.58,337.76 -130.06,331.72 -120.94,310.16 -111.66,288.52 -104.86,272.6 -96.26,258.2 -95.86,257.48 -95.42,256.8 M-291.66,242.28 Q-284.18,253.12 -280.38,262.76 -271.5,285.28 -263.58,308.68 -258.3,324.16 -253.06,339.72" test="JurorsBack"/>
    </g>
    <g id="Tween-1">
      <g id="JurorsFront">
        <path fill="#000" stroke="none" d="M4.426,275.215 Q-2.303,275.896 -8.951,277.979 -10.553,278.459 -12.195,278.82 L-12.555,279.42 -12.315,280.101 -7.429,278.78 -12.315,280.101 Q-18.803,282.624 -24.53,286.669 -31.059,291.355 -35.664,297.924 -39.789,303.771 -42.313,310.579 -44.716,317.188 -45.436,324.196 -46.197,331.365 -45.156,338.374 -44.035,345.823 -40.751,352.632 -37.627,359.2 -32.3,364.246 -26.933,369.333 -20.285,372.817 -15.915,375.139 -11.194,376.301 -8.306,377.041 -5.306,377.343 1.542,378.344 8.391,376.902 8.96,376.781 9.512,376.622 16.082,375.113 22.128,372.016 28.576,368.612 33.823,363.646 39.109,358.559 42.874,352.031 46.478,345.903 48.2,338.975 49.923,332.126 49.442,325.117 48.921,317.788 46.759,310.86 44.636,304.051 40.791,298.164 36.946,292.236 31.78,287.15 26.293,281.823 19.405,278.659 12.356,275.415 4.426,275.215 M-19.284,317.668 L-24.731,317.027 -19.284,317.668 M0.581,311.781 L6.028,312.422 .581,311.781 M0.261,361.122 Q3.064,361.122 5.027,359.721 6.989,358.319 6.989,356.316 6.989,358.319 5.027,359.721 3.064,361.122 .261,361.122 M-218.613,260.917 L-219.213,262.84 Q-257.141,260.757 -272.159,295.16 -280.65,314.664 -275.924,335.33 -269.636,362.885 -242.042,372.817 -237.437,374.409 -232.31,375.621 -229.984,376.159 -227.584,376.622 -226.576,376.808 -225.061,376.862 -223.568,376.854 -221.656,376.622 -220.324,376.465 -219.053,376.261 -188.031,371.234 -177.962,337.573 -167.469,302.489 -193.381,276.377 -204.115,265.643 -218.613,260.917 M-211.524,306.254 L-207.679,309.178 -211.524,306.254 M-243.243,309.178 L-239.399,312.101 -243.243,309.178 M-243.323,350.509 Q-242.643,350.349 -241.962,350.229 -242.643,350.349 -243.323,350.509 -248.61,351.991 -251.253,347.345 -248.61,351.991 -243.323,350.509 M-394.472,356.917 Q-389.266,337.453 -397.756,319.31 -404.485,304.932 -415.098,293.158 -425.711,281.423 -441.291,279.701 -462.197,279.941 -441.411,280.021 -460.755,282.544 -476.495,293.959 -493.436,306.214 -497.481,326.599 -501.486,346.825 -493.235,365.528 -485.546,383.07 -469.686,393.883 -462.568,398.687 -454.427,399.931 -451.563,400.371 -448.58,400.371 -446.188,400.691 -443.894,400.772 -427.04,401.351 -414.017,389.278 -399.559,375.941 -394.472,356.917 M-449.861,327 Q-447.979,328.121 -447.979,329.723 -447.979,328.121 -449.861,327 -451.744,325.878 -454.387,325.878 -451.744,325.878 -449.861,327 M-427.634,327.841 Q-425.551,329.162 -425.551,331.005 -425.551,329.162 -427.634,327.841 -429.676,326.519 -432.6,326.519 -429.676,326.519 -427.634,327.841 M-476.174,361.763 L-456.95,368.171 -476.174,361.763 M500.445,271.811 L499.844,269.888 Q497.842,270.609 495.919,271.45 478.498,278.339 466.723,292.837 454.348,308.056 455.189,327.721 455.99,346.945 466.002,363.445 471.209,372.056 487.389,380.026 495.708,384.102 502.448,385.833 508.733,387.459 513.662,387.075 516.344,386.859 519.629,385.553 527.934,382.243 540.095,371.976 547.023,366.129 552.15,360.402 557.356,354.594 558.277,351.59 561.922,339.936 561.601,327.681 561.041,308.056 549.827,292.196 544.74,285.067 537.091,280.502 520.23,270.409 500.445,271.811 M483.824,319.711 L479.859,322.634 483.824,319.711 M520.51,310.739 L516.505,313.663 520.51,310.739 M515.944,364.687 Q514.823,364.487 513.702,364.326 514.823,364.487 515.944,364.687 527.479,366.289 533.566,356.316 527.479,366.289 515.944,364.687 M280.37,276.176 Q271.679,273.413 262.788,275.816 254.218,278.019 246.808,282.865 239.519,287.591 233.231,293.798 226.823,300.206 222.738,308.377 218.613,316.747 217.612,325.918 216.611,335.05 218.693,343.941 220.776,353.032 225.342,361.042 229.907,369.012 236.435,375.46 243.204,382.109 251.654,386.354 256.317,388.753 261.266,390.039 265.111,391.052 269.116,391.4 271.611,391.304 274.082,391 280.876,390.24 287.459,388.036 296.47,385.032 304.04,379.185 311.569,373.298 316.215,364.767 320.5,356.877 322.623,348.226 324.746,339.576 323.985,330.644 323.184,321.273 319.019,312.702 315.054,304.492 309.086,297.643 303.279,290.995 296.631,285.148 289.502,278.98 280.37,276.176 M288.14,314.985 Q290.223,316.306 290.223,318.149 290.223,316.306 288.14,314.985 286.097,313.663 283.174,313.663 286.097,313.663 288.14,314.985 M256.941,312.502 Q258.823,313.623 258.823,315.225 258.823,313.623 256.941,312.502 255.059,311.38 252.415,311.38 255.059,311.38 256.941,312.502 M250.373,368.812 Q250.253,368.932 250.253,369.172 250.253,368.932 250.373,368.812 253.817,365.608 256.901,368.812 253.817,365.608 250.373,368.812 M701.776,289.553 Q694.407,295.761 690.162,304.291 686.197,312.221 684.675,320.832 683.113,329.563 684.395,338.294 685.756,347.666 690.442,355.716 695.088,363.686 702.417,369.172 710.027,374.779 719.078,377.062 720.741,377.467 722.402,377.703 728.281,378.659 734.177,377.823 735.884,377.602 737.581,377.222 746.672,375.26 754.562,370.614 762.692,365.968 768.42,358.719 774.187,351.43 776.87,342.539 779.473,334.049 778.793,325.077 778.112,316.347 774.908,308.296 771.423,299.686 765.616,292.437 759.969,285.428 752.079,281.022 744.31,276.697 735.338,276.777 726.007,276.857 716.915,278.78 L716.555,279.42 716.835,280.141 721.681,278.78 716.835,280.141 Q708.705,283.746 701.776,289.553 M729.691,311.781 L735.138,312.422 729.691,311.781 M709.826,317.668 L704.38,317.027 709.826,317.668 M729.371,361.122 Q732.174,361.122 734.137,359.721 736.099,358.319 736.099,356.316 736.099,358.319 734.137,359.721 732.174,361.122 729.371,361.122Z" test="JurorsFront" vector-effect="non-scaling-stroke" stroke-width="1"/>
        <path id="Layer4_0_1_STROKES" stroke="#FFF" stroke-width="1.602" stroke-linejoin="round" stroke-linecap="round" fill="none" d="M716.835,280.141 Q708.705,283.746 701.776,289.553 694.407,295.761 690.162,304.291 686.197,312.221 684.675,320.832 683.113,329.563 684.395,338.294 685.756,347.666 690.442,355.716 695.088,363.686 702.417,369.172 710.027,374.779 719.078,377.062 720.741,377.467 722.402,377.723 728.281,378.659 734.197,377.843 735.884,377.602 737.581,377.222 746.672,375.26 754.562,370.614 762.692,365.968 768.42,358.719 774.187,351.43 776.87,342.539 779.473,334.049 778.793,325.077 778.112,316.347 774.908,308.296 771.423,299.686 765.616,292.437 759.969,285.428 752.079,281.022 744.31,276.697 735.338,276.777 726.007,276.857 716.915,278.78 L716.555,279.42 M721.681,278.78 L716.835,280.141 M729.691,311.781 L735.138,312.422 M709.826,317.668 L704.38,317.027 M269.116,391.4 Q271.611,391.304 274.082,391.02 280.876,390.24 287.459,388.036 296.47,385.032 304.04,379.185 311.569,373.298 316.215,364.767 320.5,356.877 322.623,348.226 324.746,339.576 323.985,330.644 323.184,321.273 319.019,312.702 315.054,304.492 309.086,297.643 303.279,290.995 296.631,285.148 289.502,278.98 280.37,276.176 271.679,273.413 262.788,275.816 254.218,278.019 246.808,282.865 239.519,287.591 233.231,293.798 226.823,300.206 222.738,308.377 218.613,316.747 217.612,325.918 216.611,335.05 218.693,343.941 220.776,353.032 225.342,361.042 229.907,369.012 236.435,375.46 243.204,382.109 251.654,386.354 256.317,388.753 261.286,390.059 265.111,391.052 269.116,391.4Z M283.174,313.663 Q286.097,313.663 288.16,314.985 290.223,316.306 290.223,318.149 M252.415,311.38 Q255.059,311.38 256.941,312.502 258.823,313.623 258.823,315.225 M500.445,271.811 Q520.23,270.409 537.091,280.502 544.74,285.067 549.827,292.196 561.041,308.056 561.601,327.681 561.922,339.936 558.277,351.59 557.356,354.594 552.15,360.402 547.023,366.129 540.095,371.976 527.934,382.243 519.629,385.553 516.344,386.859 513.662,387.075 508.733,387.459 502.468,385.853 495.708,384.102 487.389,380.026 471.209,372.056 466.002,363.445 455.99,346.945 455.189,327.721 454.348,308.056 466.723,292.837 478.498,278.339 495.919,271.45 497.842,270.609 499.844,269.909 M483.824,319.711 L479.859,322.634 M520.51,310.739 L516.505,313.663 M533.566,356.316 Q527.479,366.289 515.944,364.687 514.823,364.487 513.702,364.326 M559.799,493.247 Q556.675,466.935 547.063,443.465 537.652,420.356 527.279,397.768 525.237,393.363 522.753,389.678 M500.685,389.678 Q497.815,396.441 496.32,404.176 494.438,413.948 492.035,423.44 486.388,445.668 481.982,468.376 479.579,480.912 477.216,493.247 M219.334,481.913 Q221.297,475.665 223.82,469.618 232.951,448.031 242.243,426.364 249.066,410.41 257.642,396.006 258.058,395.303 258.483,394.604 M276.485,394.604 Q281.005,401.552 284.776,409.182 293.947,427.886 302.398,446.789 309.927,463.65 314.773,481.913 M256.901,368.812 Q253.817,365.608 250.373,368.812 250.253,368.932 250.253,369.172 M729.371,361.122 Q732.174,361.122 734.137,359.721 736.099,358.319 736.099,356.316 M682.152,510.108 Q686.638,482.995 694.207,457.002 697.491,445.708 700.615,434.294 707.504,409.142 717.676,386.794 719.035,383.838 720.52,381.067 M736.219,381.067 Q745.085,395.68 751.358,413.187 760.289,438.058 768.219,463.851 773.506,480.992 778.712,498.214 M-454.387,325.878 Q-451.744,325.878 -449.861,327 -447.979,328.121 -447.979,329.723 M-432.6,326.519 Q-429.676,326.519 -427.614,327.841 -425.551,329.162 -425.551,331.005 M-441.411,280.021 Q-460.755,282.544 -476.495,293.959 -493.436,306.214 -497.481,326.599 -501.486,346.825 -493.235,365.528 -485.546,383.07 -469.686,393.883 -462.568,398.687 -454.427,399.931 -451.563,400.371 -448.58,400.371 -446.188,400.691 -443.874,400.772 -427.04,401.351 -414.017,389.278 -399.559,375.941 -394.472,356.917 -389.266,337.453 -397.756,319.31 -404.485,304.932 -415.098,293.158 -425.711,281.423 -441.271,279.701 M-218.613,260.937 L-227.223,259.476 M-219.213,262.84 Q-257.141,260.757 -272.159,295.16 -280.65,314.664 -275.924,335.33 -269.636,362.885 -242.042,372.817 -237.437,374.409 -232.31,375.621 -229.984,376.159 -227.564,376.622 -226.576,376.808 -225.061,376.862 -223.568,376.854 -221.636,376.622 -220.324,376.465 -219.053,376.261 -188.031,371.234 -177.962,337.573 -167.469,302.489 -193.381,276.377 -204.115,265.643 -218.613,260.937 M-211.524,306.254 L-207.679,309.178 M-243.243,309.178 L-239.399,312.101 M-251.253,347.345 Q-248.61,351.991 -243.323,350.509 -242.643,350.349 -241.962,350.229 M-12.295,280.121 Q-18.803,282.624 -24.53,286.669 -31.059,291.355 -35.664,297.924 -39.789,303.771 -42.313,310.579 -44.716,317.188 -45.436,324.196 -46.197,331.365 -45.156,338.374 -44.035,345.823 -40.751,352.632 -37.627,359.2 -32.3,364.246 -26.933,369.333 -20.285,372.817 -15.915,375.139 -11.174,376.321 -8.306,377.041 -5.306,377.343 1.542,378.344 8.391,376.902 8.96,376.781 9.532,376.642 16.082,375.113 22.128,372.016 28.576,368.612 33.823,363.646 39.109,358.559 42.874,352.031 46.478,345.903 48.2,338.975 49.923,332.126 49.442,325.117 48.921,317.788 46.759,310.86 44.636,304.051 40.791,298.164 36.946,292.236 31.78,287.15 26.293,281.823 19.405,278.659 12.356,275.415 4.426,275.215 -2.303,275.896 -8.951,277.979 -10.553,278.459 -12.195,278.82 L-12.555,279.42 M-7.429,278.78 L-12.295,280.121 M-19.284,317.668 L-24.731,317.027 M0.581,311.781 L6.028,312.422 M-497.921,490.924 Q-489.951,471.741 -481.1,452.997 -472.89,435.615 -464.359,418.674 -461.515,413.007 -457.271,405.137 M0.261,361.122 Q3.064,361.122 5.027,359.721 6.989,358.319 6.989,356.316 M10.954,380.066 Q18.43,390.937 22.248,400.572 31.139,423.12 39.069,446.549 44.356,462.048 49.602,477.628 M-46.237,484.837 Q-45.276,479.03 -43.674,473.302 -37.667,451.635 -31.619,429.888 -25.091,406.539 -15.519,385.152 -14.865,383.695 -12.836,379.666 M-216.43,380.226 Q-195.068,412.903 -185.411,446.589 -179.324,467.936 -172.876,488.962 M-281.371,488.962 Q-273.882,444.987 -252.014,407.54 -244.552,394.713 -235.273,380.226 M-441.691,405.137 Q-436.847,414.792 -432.92,422.319 -423.709,439.901 -415.418,457.923 -408.009,473.983 -402.883,490.924 M-476.174,361.763 L-456.95,368.171" test="JurorsFront"/>
      </g>
    </g>
    <g id="Parrot">
      <path id="Layer2_0_1_STROKES" stroke="#FFF" stroke-width="2" stroke-linejoin="round" stroke-linecap="round" fill="none" d="M1142.55,249 Q1146.25,249.45 1149.55,252.4 1153.55,255.95 1152.05,261.6 1150.55,267.25 1147.75,270.1 1144.95,272.9 1141.35,272.8 1137.7,272.7 1135.1,270.6 1132.45,268.5 1131.8,264.95 1131.2,261.55 1132.05,258.4 1132.85,255.55 1133.9,253.85 1134.9,252.1 1137,251 1139.05,249.85 1142.55,249Z M1142.95,260.75 Q1142.45,260.1 1141.7,260 1140.9,259.9 1140.85,259.9 1140.55,259.9 1140.2,260.2 1139.35,260.95 1140.05,262.45 1140.65,263.7 1142,263.2 1142.95,262.85 1143.1,262.15 1143.25,261.65 1143.25,261.45 1143.3,261.05 1142.95,260.75Z M1098.2,251.5 Q1100.4,251.3 1103.35,254.7 1106.25,258 1106.05,262.65 1105.85,267.2 1103.75,270 1101.7,272.75 1098.15,272.65 1094.55,272.5 1091.75,270.25 1088.6,267.85 1088.75,264.05 1089,258.85 1090.75,255.75 1093.15,251.45 1098.2,251.5Z M1100.85,262.3 Q1100.5,261.7 1099.85,261.65 1099.1,261.55 1099.05,261.55 1098.85,261.55 1098.5,261.8 1097.75,262.5 1098.4,263.85 1098.95,265 1100.05,264.5 1100.85,264.2 1101,263.55 1101.1,263.15 1101.1,262.95 1101.2,262.6 1100.85,262.3Z" test="Parrot"/>
      <path id="Layer2_0_2_STROKES" stroke="#F00" stroke-width="2" stroke-linejoin="round" stroke-linecap="round" fill="none" d="M1164.1,279.4 Q1167.1,280 1167.85,280.1 1168.6,280.2 1170.1,280.2 1172.25,280.2 1176.1,277.8 M1157.7,305 L1159.15,305.4 Q1160.85,305.8 1162.1,305.8 1162.85,305.8 1164.95,304.4 1166.9,303.1 1167.3,302.6 M1200.1,328.3 Q1191.25,318.7 1188.35,306.05 1185.9,295.25 1187.4,279.6 1188.75,265.8 1181.7,252.9 1173.9,238.65 1161.15,233.15 1148.4,227.6 1138.55,226.65 1128.7,225.65 1119.3,229.1 1109.85,232.55 1102.95,239.5 1096.1,246.35 1095.85,247.9 M1094,317.4 Q1093.55,330.45 1087.05,341.05 M1126.5,305.8 Q1128.75,308.3 1130.2,311.05 1130.4,311.4 1132.9,311.4 1134.2,311.4 1135.95,310.9 1136.3,310.8 1139.3,309.8" test="Parrot"/>
      <path id="Layer2_0_3_STROKES" stroke="#0FF" stroke-width="2" stroke-linejoin="round" stroke-linecap="round" fill="none" d="M1091.65,334.45 L1091,338.35 Q1091.9,338.8 1093,338.9 1093.7,339 1095.2,339 1099.35,339 1102.45,335.45 1105.6,331.85 1107.9,331.85 1108.7,331.85 1113.1,332.5 1117.45,333.15 1118.3,333.15 1123.25,333.15 1124.25,330.9 1125.2,328.6 1129,328.6 1129.85,328.6 1132.95,329.25 1136.1,329.9 1136.9,329.9 1137.45,329.9 1139.4,327.95 1141.3,326 1143.7,326 1144.55,326 1147.8,326.65 1151.05,327.3 1151.85,327.3 1152.75,327.3 1155.25,326 1156.5,325.35 1157.7,324.7 1157.85,324.7 1160.85,326 1164.2,327.3 1165.8,327.3 1167.85,327.3 1170.5,326.35 1171.8,325.85 1172.95,325.35 1174.95,325.35 1185,327.65 1193.35,329.55 1197.1,329.85 1197.85,329.9 1198.4,329.9 M1127.45,352.75 Q1126.9,354.6 1125.1,371.4 1123.35,387.65 1122.25,390.5 1120.7,394.7 1120.15,405.4 1119.55,416.75 1120.95,423.7 1122.5,431.4 1129.75,452.45 1137.2,474.05 1140.5,479.7 1142.05,482.4 1146.75,489.7 1150.55,495.6 1153.5,501.2 1157.4,508.6 1160.5,511.55 1163.65,514.6 1168.5,515.55 1171.75,516.2 1176.8,517.4 1180.2,517.8 1180.2,514.9 1180.2,506.8 1188.65,511 1194.6,513.95 1196.65,514.35 1199.95,515 1201.7,512.3 1203,510.35 1204.75,507 1206.65,504.4 1210.8,503.15 1213.5,502.35 1215.9,504.15 1216.55,504.65 1218,499.25 1219.65,493.15 1222.25,486.45 L1224.5,481 Q1225.15,477.1 1227.1,468 1228.8,460 1228,449.9 1227,437.7 1222.55,428.3 1222.3,427.8 1211.15,405.75 1204.05,391.65 1201.7,384.65 1199.95,379.4 1196.6,372.05 1194.25,366.95 1193.9,363.8 M1229.55,384.3 Q1228.95,383.95 1228.05,383.95 1227.9,383.95 1220.25,386.55 1218.6,385.65 1216.6,384.6 1216.25,386.5 1214.9,387.95 1213.75,389.15 1213,389.15 1211.35,389.15 1210,387.95 1208.9,387 1208.8,387.2 1207.95,388.1 1206.7,388.7 1205.25,389.35 1204.25,389.15 M1201.65,333.15 Q1228.7,359 1229,383.95 L1229.65,383.95 M1087.05,341.05 Q1082.6,352.95 1078.95,365.25 1075.3,377.5 1072.25,389.95 1070.3,397.85 1067.9,405.65 1064.05,418.1 1063.1,431.05 1062.9,434.1 1063.1,437.05 1063.85,449.9 1061.8,462.8 1061.15,467.1 1059.25,471 1057.85,473.85 1056.5,476.65 1054.75,474.3 1054.25,471.2 1050.3,446.8 1052.15,422.35 1052.45,418.45 1053.15,414.55 1054.35,408.1 1055.4,401.65 1056.4,395.7 1058.6,390.05 1063.15,378.3 1068,366.75 1074.4,351.7 1087.05,341.05Z M1074,401.55 Q1076.6,404 1079.65,404.6 1080.55,404.8 1083.85,404.8 1085.7,404.8 1086.55,403.2 1087.4,401.55 1090.35,401.55 1092.3,401.55 1096.6,401.95 1100.45,402.2 1102.7,401.55 1108.25,400 1113.3,399.65 1114.65,399.55 1118.95,399.55" test="Parrot"/>
      <path id="Layer2_0_4_STROKES" stroke="#0F0" stroke-width="2" stroke-linejoin="round" stroke-linecap="round" fill="none" d="M1233.4,410.55 Q1234.2,409.3 1234.2,407.1 1234.2,405.55 1232.05,395.95 1229.8,386.2 1229,384.6" test="Parrot"/>
      <path id="Layer2_0_5_STROKES" stroke="#FF0" stroke-width="2" stroke-linejoin="round" stroke-linecap="round" fill="none" d="M1230.3,443.8 L1236.15,443.8 Q1235.85,442.4 1236.9,438.6 1238.1,434.45 1238.1,433.4 1238.1,427.1 1236.2,419.05 1234.6,412.25 1233.4,410.55 M1094.3,278.45 Q1083.8,283.8 1082.7,293.5 1082.2,297.95 1081.9,302.5 1097.45,305.15 1103.55,300.8 1105.6,293.9 1102.5,288.65 1099.35,283.35 1097.85,281.9 1096.35,280.4 1094.3,278.45Z M1087.75,303.8 Q1085.7,314.2 1096.6,314.9 1098.6,314.75 1100.25,313.95 1104.25,311.05 1102.7,302.4 M1066.85,458.2 Q1069.6,460.55 1070.75,461.9 1071.05,462.1 1074.3,462.1 1076.9,462.1 1085.5,458.85 1092.45,456.25 1094.5,455.75 1094.75,455.65 1094.9,455.65 1094.95,456.6 1099.5,456.85 1100.45,456.9 1105.3,456.9 1107.2,456.9 1111.15,455.95 1115.1,454.95 1116.65,454.95 1119.05,454.95 1119.25,454.9 1120.5,454.5 1120.9,452.25 1128.7,454.05 1126.75,453.55 M1094.5,455.75 Q1094.25,455.85 1094.45,456.2 1094.9,456.9 1094.9,455.65 M1080.5,502.5 Q1076.55,505.55 1075.65,508.05 1075.3,509.1 1075.3,513.2 1075.3,518.6 1078.45,520.35 1080.85,521.65 1090.35,522.65 1090.35,521.05 1090.05,519.7 1092.05,520.45 1094.9,521.35 L1098.15,521.35 Q1096.85,519.65 1095.8,518.25 1098.05,519.05 1100.1,520.05 L1104.65,520.05 1104.65,516.8 Q1101.05,513.6 1099.9,507.9 1099.3,502.35 1098.8,501.2 1098.15,501.2 1096.85,500.55 M1112.45,503.15 Q1111.6,513.35 1113.35,516.35 1114.85,518.95 1120.9,519.4 L1120.9,515.5 Q1120.35,514.4 1119.8,511.5 1119.95,511.7 1120.05,511.95 1122.9,517.7 1128.05,518.75 L1128.05,513.6 Q1128.7,514.65 1129.5,515.65 1132.1,518.75 1135.2,519.4 L1135.9,519.4 Q1136.25,517.3 1135.15,513.55 1133.9,509.4 1133.9,507.7 1133.9,504.25 1136.55,502.5 M1148.9,508.35 Q1148.1,521.15 1157.35,544.75 1161.3,554.85 1165.2,561.3 1169.4,568.2 1172,568.2 1175.7,568.2 1176.6,567.8 1179.65,566.45 1180.1,561.05 1182.45,562.2 1188.55,563 1193.9,563 1195.65,557.5 1196.75,554.1 1196.95,553.7 1197.9,551.95 1199.7,551.95 1200.4,551.95 1207.5,554.55 1208.6,554.55 1210.45,551.3 1212.45,547.8 1214,547.4 1217.7,546.35 1222.9,545.6 1226.6,544.65 1228.35,540.9 1229.4,540.9 1231.2,541.25 1233,541.55 1233.55,541.55 L1233.55,520.05 Q1230.95,511.15 1228.2,499 1226.1,489.8 1224.45,485.6" test="Parrot"/>
      <path id="Layer2_0_6_STROKES" stroke="#F0F" stroke-width="2" stroke-linejoin="round" stroke-linecap="round" fill="none" d="M1056.5,476.65 L1057.5,485.75 Q1059.1,495.6 1062.35,499.25 1064,501.1 1064.95,503.4 1065.5,504.65 1066.1,506.55 1066.6,507.9 1067.45,508.05 1068.5,508.2 1070.8,507.05 1073.85,505.55 1076.4,502.6 1078.15,500.55 1080.55,500.55 1082.85,500.55 1088.65,501.45 1093.8,501.9 1096.2,499.9 1098.55,497.95 1103.3,499.1 1106,499.75 1111.85,501.2 1114.8,501.55 1119.15,502.4 1122.65,502.8 1125.5,501.2 1128.45,499.55 1131.45,499.65 1133.35,499.75 1137.9,500.55 1140.5,500.9 1143.35,501.95 1145.15,502.3 1146.35,499.9 M1229.65,485.6 Q1232,473.6 1233.35,465.3 1234.45,458.8 1236.15,446.4 M1191.25,630.75 Q1194.05,638.85 1194.8,640.05 1195.9,641.8 1198.7,641.8 1199.75,641.8 1200.05,641.7 1201.45,641.05 1202.95,638.55 1221.65,657.4 1222.85,657.4 1230.35,657.4 1233.55,644.45 1235.5,636.65 1235.5,627.2 1235.5,621.25 1234.2,615.6 1233.35,611.9 1231.6,607.3" test="Parrot"/>
      <path id="Layer2_0_7_STROKES" stroke="#F60" stroke-width="2" stroke-linejoin="round" stroke-linecap="round" fill="none" d="M1173.6,572.75 Q1173.1,571.95 1172.55,571.15 1171.4,569.5 1171,569.5 L1171,572.75 Q1172.25,580.35 1180.6,602.8 1190.45,629.45 1195.45,629.45 1197.6,629.45 1202.5,625.25 1207.05,621 1207.15,621 1208,621 1210.4,621.65 1212.85,622.3 1213.65,622.3 1216.1,622.3 1218.5,617.4 1220.15,614 1220.55,611.85 1226.2,611.85 1229.05,608.95 1231.9,606 1234.85,606 1234.85,603.75 1235.2,598.75 1235.5,593.75 1235.5,593.25 1235.5,588.7 1232.6,578.6 1229.3,567.2 1229,564.95 1228.5,561.45 1228.7,555.4 1229,549.05 1229,546.75 L1228.35,546.75" test="Parrot"/>
    </g>
    <g id="JuryBoxFront">
      <path fill="#000" stroke="none" d="M-1052.75,514.35 L-1075.05,488.3 -1076.9,617.25 Q-1068.722,617.251 -1057.25,617.25 L-1052.75,514.35 M1889.3,500.95 L1887.95,500.95 1870.1,518.5 1870.1,613 Q1880.584,613.017 1889.3,613 L1889.3,500.95 M1717.85,512.95 Q1643.35,514.65 1569,518.9 1493.55,522.55 1418.05,523 1340.65,523.45 1263.25,523.35 1187.75,523.25 1112.25,523 1032.45,522.75 952.65,521.8 873.95,520.9 795.3,519.6 717.2,518.35 639.1,520.35 561.8,522.3 484.45,526.5 409.2,529.75 333.8,528.6 254.4,527.35 175.05,522.45 101.1,517.5 26.85,516.45 -47.05,515.45 -121,516.1 -200.35,516.8 -279.7,518 -359.35,519.25 -438.95,520.45 -518,521.65 -597.15,522.95 -674.15,524.25 -751.2,524.85 -827.95,525.45 -904.9,523.95 -979.05,522.5 -1052.75,514.35 L-1057.25,617.25 Q-851.292,617.16 417.55,615.15 1625.423,613.195 1870.1,613 L1870.1,518.5 Q1794.15,511.25 1717.85,512.95 M1550.15,502.85 Q1544.944,503.094 1539.75,503.3 1463.8,505.8 1387.85,505.8 1364.836,505.8 1341.8,505.8 1286.271,505.815 1230.7,505.85 1222.462,505.856 1214.2,505.85 1142.907,505.781 1071.55,504.75 1048.675,504.422 1025.8,503.75 1002.918,503.598 980,503.4 962.852,503.302 945.65,503.15 928.486,502.697 911.3,502.45 831.6,501.35 751.85,500.55 689.813,499.94 627.8,502.65 618.706,503.077 609.6,503.55 534.55,507 459.65,510.95 L299.6,511.75 Q219.3,507.9 139.1,502.95 66.45,497.9 -6.65,497.2 -85.7,496.4 -164.65,497.5 -241.75,498.6 -318.95,500.15 -391.6,501.65 -464.3,503.2 -538.2,504.75 -612.2,505.95 -690.15,507.2 -768.3,506.2 -844,505.25 -919.6,500.25 -997.4,495.6 -1075.05,488.3 L-1052.75,514.35 Q-979.05,522.5 -904.9,523.95 -827.95,525.45 -751.2,524.85 -674.15,524.25 -597.15,522.95 -518,521.65 -438.95,520.45 -359.35,519.25 -279.7,518 -200.35,516.8 -121,516.1 -47.05,515.45 26.85,516.45 101.1,517.5 175.05,522.45 254.4,527.35 333.8,528.6 409.2,529.75 484.45,526.5 561.8,522.3 639.1,520.35 717.2,518.35 795.3,519.6 873.95,520.9 952.65,521.8 1032.45,522.75 1112.25,523 1187.75,523.25 1263.25,523.35 1340.65,523.45 1418.05,523 1493.55,522.55 1569,518.9 1643.35,514.65 1717.85,512.95 1794.15,511.25 1870.1,518.5 L1887.95,500.95 1888,500.15 Q1869.612,498.494 1851.2,496.85 1837.102,495.536 1823,494.6 1763.035,490.798 1702.85,494.4 1626.581,499.691 1550.15,502.85Z" test="JuryBoxFront"/>
      <path id="Layer1_0_1_STROKES" stroke="#F60" stroke-width="2" stroke-linejoin="round" stroke-linecap="round" fill="none" d="M1888.025,500.175 Q1869.612,498.494 1851.2,496.85 1837.102,495.536 1823,494.625 1763.035,490.798 1702.85,494.4 1626.581,499.691 1550.15,502.875 1544.944,503.094 1539.75,503.3 1463.8,505.8 1387.85,505.8 1364.836,505.8 1341.825,505.8 1286.271,505.815 1230.7,505.85 1222.462,505.856 1214.225,505.85 1142.907,505.781 1071.55,504.75 1048.675,504.422 1025.8,503.775 1002.918,503.598 980.025,503.425 962.852,503.302 945.675,503.175 928.486,502.697 911.3,502.45 831.6,501.35 751.85,500.55 689.813,499.94 627.825,502.675 618.706,503.077 609.6,503.55 534.55,507 459.65,510.95 L299.6,511.75 Q219.3,507.9 139.1,502.95 66.45,497.9 -6.65,497.2 -85.7,496.4 -164.65,497.5 -241.75,498.6 -318.95,500.15 -391.6,501.65 -464.3,503.2 -538.2,504.75 -612.2,505.95 -690.15,507.2 -768.3,506.2 -844,505.25 -919.6,500.25 -997.4,495.6 -1075.05,488.3 L-1052.75,514.35 Q-979.05,522.5 -904.9,523.95 -827.95,525.45 -751.2,524.85 -674.15,524.25 -597.15,522.95 -518,521.65 -438.95,520.45 -359.35,519.25 -279.7,518 -200.35,516.8 -121,516.1 -47.05,515.45 26.85,516.45 101.1,517.5 175.05,522.45 254.4,527.35 333.8,528.6 409.2,529.75 484.45,526.5 561.8,522.3 639.1,520.35 717.2,518.35 795.3,519.6 873.95,520.9 952.65,521.8 1032.45,522.75 1112.25,523 1187.75,523.25 1263.25,523.35 1340.65,523.45 1418.05,523 1493.55,522.55 1569,518.9 1643.35,514.65 1717.85,512.95 1794.15,511.25 1870.1,518.5 L1887.95,500.95 M1888.025,500.175 Q1888.662,500.242 1889.3,500.3 L1889.3,500.95 1889.3,613 1889.3,624.2 M1870.1,624.2 L1870.1,613.025 M-1057.25,617.25 L-1057.55,624.2 M1870.1,613.025 L1870.1,518.5 M-1077,624.2 L-1076.9,617.25 -1075.05,488.3 M-1052.75,514.35 L-1057.25,617.25" test="JuryBoxFront"/>
    </g>
  </g>
</svg>