<?xml version="1.0" encoding="utf-8"?>
<svg id="EdithAnim12" image-rendering="inherit" baseProfile="basic" version="1.1" x="0px" y="0px" width="800" height="600" xmlns="http://www.w3.org/2000/svg" xmlns:xlink="http://www.w3.org/1999/xlink">
  <g id="14_JurorParrotf46r1" overflow="visible">
    <g id="JurorsBack">
      <path fill="#000" stroke="none" d="M105.92,132.28 Q103.92,132.96 102,133.8 84.6,140.68 72.84,155.16 60.48,170.36 61.32,190 62.12,209.2 72.12,225.68 77.32,234.28 93.48,242.24 101.8,246.32 108.56,248.08 114.8,249.68 119.72,249.28 122.4,249.08 125.68,247.76 133.96,244.44 146.12,234.2 153.04,228.36 158.16,222.64 163.36,216.84 164.28,213.84 167.92,202.2 167.6,189.96 167.04,170.36 155.84,154.52 150.76,147.4 143.12,142.84 126.28,132.76 106.52,134.16 L105.92,132.28 M89.92,182 L85.96,184.92 89.92,182 M126.56,173.04 L122.56,175.96 126.56,173.04 M122,226.92 Q120.88,226.72 119.76,226.56 120.88,226.72 122,226.92 133.52,228.52 139.6,218.56 133.52,228.52 122,226.92 M-113.84,138.16 Q-122.4,140.36 -129.8,145.2 -137.08,149.92 -143.36,156.12 -149.76,162.52 -153.84,170.68 -157.96,179.04 -158.96,188.2 -159.96,197.32 -157.88,206.2 -155.8,215.28 -151.24,223.28 -146.68,231.24 -140.16,237.68 -133.4,244.32 -124.96,248.56 -120.32,250.96 -115.32,252.28 -111.52,253.24 -107.52,253.6 -105.04,253.52 -102.56,253.24 -95.76,252.44 -89.2,250.24 -80.2,247.24 -72.64,241.4 -65.12,235.52 -60.48,227 -56.2,219.12 -54.08,210.48 -51.96,201.84 -52.72,192.92 -53.52,183.56 -57.68,175 -61.64,166.8 -67.6,159.96 -73.4,153.32 -80.04,147.48 -87.16,141.32 -96.28,138.52 -104.96,135.76 -113.84,138.16 M-88.48,177.28 Q-86.44,178.6 -86.44,180.44 -86.44,178.6 -88.48,177.28 -90.56,175.96 -93.48,175.96 -90.56,175.96 -88.48,177.28 M-119.68,174.8 Q-117.8,175.92 -117.8,177.52 -117.8,175.92 -119.68,174.8 -121.56,173.68 -124.2,173.68 -121.56,173.68 -119.68,174.8 M-126.24,231.04 Q-126.36,231.16 -126.36,231.4 -126.36,231.16 -126.24,231.04 -122.8,227.84 -119.72,231.04 -122.8,227.84 -126.24,231.04 M-337.84,141.76 L-337.56,142.48 -332.72,141.12 -337.56,142.48 Q-344.08,144.96 -349.8,149 -356.32,153.68 -360.92,160.24 -365.04,166.08 -367.56,172.88 -369.96,179.48 -370.68,186.48 -371.44,193.64 -370.4,200.64 -369.28,208.08 -366,214.88 -362.88,221.44 -357.56,226.48 -352.2,231.56 -345.56,235.04 -341.2,237.36 -336.44,238.56 -333.6,239.24 -330.6,239.56 -323.76,240.56 -316.92,239.12 -316.36,239 -315.76,238.88 -309.24,237.32 -303.2,234.24 -296.76,230.84 -291.52,225.88 -286.24,220.8 -282.48,214.28 -278.88,208.16 -277.16,201.24 -275.44,194.4 -275.92,187.4 -276.44,180.08 -278.6,173.16 -280.72,166.36 -284.56,160.48 -288.4,154.56 -293.56,149.48 -299.04,144.16 -305.92,141 -312.96,137.76 -320.88,137.56 -327.6,138.24 -334.24,140.32 -335.84,140.8 -337.48,141.16 L-337.84,141.76 M-324.72,174.08 L-319.28,174.72 -324.72,174.08 M-320.28,221.96 Q-318.32,220.56 -318.32,218.56 -318.32,220.56 -320.28,221.96 -322.24,223.36 -325.04,223.36 -322.24,223.36 -320.28,221.96 M-344.56,179.96 L-350,179.32 -344.56,179.96 M519.68,135.88 Q511.28,137.76 503.64,142 495.36,146.64 489.4,154.04 483.8,161 481.36,169.56 478.8,178.36 478.4,187.6 478,196.6 479.16,205.56 480.28,214.44 485.28,221.88 490.44,229.56 497.96,234.8 505.24,239.92 513.56,243.08 522.4,246.36 531.84,246.8 540.84,247.56 549.24,244.16 558.04,240.68 564.36,233.48 570.72,226.28 574.68,217.72 578.64,209.12 580.28,199.68 581.84,190.68 580.72,181.56 579.56,172.04 575.28,163.36 571.04,154.88 564.08,148.52 558.16,143.08 551.32,138.84 544.8,134.76 537.48,132.28 L536.88,134.16 Q528.16,134.12 519.68,135.88 M544.56,177.52 L548.4,180.44 544.56,177.52 M512.88,180.44 L516.72,183.36 512.88,180.44 M512.8,221.72 Q513.48,221.56 514.16,221.44 513.48,221.56 512.8,221.72 507.56,223.2 504.88,218.56 507.56,223.2 512.8,221.72 M296,166.6 Q292.04,174.52 290.52,183.12 288.96,191.84 290.24,200.56 291.6,209.92 296.28,217.96 300.92,225.92 308.24,231.4 315.84,237 324.88,239.28 326.56,239.68 328.2,239.96 334.08,240.88 340,240.08 341.68,239.8 343.36,239.44 352.44,237.48 360.32,232.84 368.44,228.2 374.16,220.96 379.92,213.68 382.6,204.8 385.2,196.32 384.52,187.36 383.84,178.64 380.64,170.6 377.16,162 371.36,154.76 365.72,147.76 357.84,143.36 350.08,139.04 341.12,139.12 331.8,139.2 322.72,141.12 L322.36,141.76 322.64,142.48 327.48,141.12 322.64,142.48 Q314.52,146.08 307.6,151.88 300.24,158.08 296,166.6 M315.64,179.96 L310.2,179.32 315.64,179.96 M335.48,174.08 L340.92,174.72 335.48,174.08 M335.16,223.36 Q337.96,223.36 339.92,221.96 341.88,220.56 341.88,218.56 341.88,220.56 339.92,221.96 337.96,223.36 335.16,223.36Z" test="JurorsBack" vector-effect="non-scaling-stroke" stroke-width="1"/>
      <path id="Layer3_0_1_STROKES" stroke="#FFF" stroke-width="1.6" stroke-linejoin="round" stroke-linecap="round" fill="none" d="M322.64,142.48 Q314.52,146.08 307.6,151.88 300.24,158.08 296,166.6 292.04,174.52 290.52,183.12 288.96,191.84 290.24,200.56 291.6,209.92 296.28,217.96 300.92,225.92 308.24,231.4 315.84,237 324.88,239.28 326.56,239.68 328.2,239.96 334.08,240.88 340,240.08 341.68,239.8 343.36,239.44 352.44,237.48 360.32,232.84 368.44,228.2 374.16,220.96 379.92,213.68 382.6,204.8 385.2,196.32 384.52,187.36 383.84,178.64 380.64,170.6 377.16,162 371.36,154.76 365.72,147.76 357.84,143.36 350.08,139.04 341.12,139.12 331.8,139.2 322.72,141.12 L322.36,141.76 M327.48,141.12 L322.64,142.48 M315.64,179.96 L310.2,179.32 M335.48,174.08 L340.92,174.72 M335.16,223.36 Q337.96,223.36 339.92,221.96 341.88,220.56 341.88,218.56 M536.88,134.16 Q528.16,134.12 519.68,135.88 511.28,137.76 503.64,142 495.36,146.64 489.4,154.04 483.8,161 481.36,169.56 478.8,178.36 478.4,187.6 478,196.6 479.16,205.56 480.28,214.44 485.28,221.88 490.44,229.56 497.96,234.8 505.24,239.92 513.56,243.08 522.4,246.36 531.84,246.8 540.84,247.56 549.24,244.16 558.04,240.68 564.36,233.48 570.72,226.28 574.68,217.72 578.64,209.12 580.28,199.68 581.84,190.68 580.72,181.56 579.56,172.04 575.28,163.36 571.04,154.88 564.08,148.52 558.16,143.08 551.32,138.84 544.8,134.76 537.48,132.28 L528.88,130.8 M544.56,177.52 L548.4,180.44 M512.88,180.44 L516.72,183.36 M504.88,218.56 Q507.56,223.2 512.8,221.72 513.48,221.56 514.16,221.44 M534.52,251.72 Q535.32,252.72 536.16,253.76 559.32,283.08 570.84,320.04 577.84,342.56 584.88,364.96 M474.48,366.68 Q478.88,322.92 500.84,285.92 511.68,267.6 526.32,253.76 527.4,252.72 528.48,251.72 M288,372.16 Q292.48,345.08 300.04,319.12 303.32,307.84 306.44,296.44 313.32,271.32 323.48,249 324.84,246.04 326.32,243.28 M342,243.28 Q350.84,257.88 357.12,275.36 366.04,300.2 373.96,325.96 379.24,343.08 384.44,360.28 M-332.72,141.12 L-337.56,142.48 Q-344.08,144.96 -349.8,149 -356.32,153.68 -360.92,160.24 -365.04,166.08 -367.56,172.88 -369.96,179.48 -370.68,186.48 -371.44,193.64 -370.4,200.64 -369.28,208.08 -366,214.88 -362.88,221.44 -357.56,226.48 -352.2,231.56 -345.56,235.04 -341.2,237.36 -336.44,238.56 -333.6,239.24 -330.6,239.56 -323.76,240.56 -316.92,239.12 -316.36,239 -315.76,238.88 -309.24,237.32 -303.2,234.24 -296.76,230.84 -291.52,225.88 -286.24,220.8 -282.48,214.28 -278.88,208.16 -277.16,201.24 -275.44,194.4 -275.92,187.4 -276.44,180.08 -278.6,173.16 -280.72,166.36 -284.56,160.48 -288.4,154.56 -293.56,149.48 -299.04,144.16 -305.92,141 -312.96,137.76 -320.88,137.56 -327.6,138.24 -334.24,140.32 -335.84,140.8 -337.48,141.16 L-337.84,141.76 M-324.72,174.08 L-319.28,174.72 M-325.04,223.36 Q-322.24,223.36 -320.28,221.96 -318.32,220.56 -318.32,218.56 M-107.52,253.6 Q-105.04,253.52 -102.56,253.24 -95.76,252.44 -89.2,250.24 -80.2,247.24 -72.64,241.4 -65.12,235.52 -60.48,227 -56.2,219.12 -54.08,210.48 -51.96,201.84 -52.72,192.92 -53.52,183.56 -57.68,175 -61.64,166.8 -67.6,159.96 -73.4,153.32 -80.04,147.48 -87.16,141.32 -96.28,138.52 -104.96,135.76 -113.84,138.16 -122.4,140.36 -129.8,145.2 -137.08,149.92 -143.36,156.12 -149.76,162.52 -153.84,170.68 -157.96,179.04 -158.96,188.2 -159.96,197.32 -157.88,206.2 -155.8,215.28 -151.24,223.28 -146.68,231.24 -140.16,237.68 -133.4,244.32 -124.96,248.56 -120.32,250.96 -115.32,252.28 -111.52,253.24 -107.52,253.6Z M-93.48,175.96 Q-90.56,175.96 -88.48,177.28 -86.44,178.6 -86.44,180.44 M-124.2,173.68 Q-121.56,173.68 -119.68,174.8 -117.8,175.92 -117.8,177.52 M106.52,134.16 Q126.28,132.76 143.12,142.84 150.76,147.4 155.84,154.52 167.04,170.36 167.6,189.96 167.92,202.2 164.28,213.84 163.36,216.84 158.16,222.64 153.04,228.36 146.12,234.2 133.96,244.44 125.68,247.76 122.4,249.08 119.72,249.28 114.8,249.68 108.56,248.08 101.8,246.32 93.48,242.24 77.32,234.28 72.12,225.68 62.12,209.2 61.32,190 60.48,170.36 72.84,155.16 84.6,140.68 102,133.8 103.92,132.96 105.92,132.28 M89.92,182 L85.96,184.92 M126.56,173.04 L122.56,175.96 M139.6,218.56 Q133.52,228.52 122,226.92 120.88,226.72 119.76,226.56 M-344.56,179.96 L-350,179.32 M-371.48,346.92 Q-370.52,341.12 -368.92,335.4 -362.92,313.76 -356.88,292.04 -350.36,268.72 -340.8,247.36 -340.16,245.92 -338.12,241.88 M165.8,355.32 Q162.68,329.04 153.08,305.6 143.68,282.52 133.32,259.96 131.28,255.56 128.8,251.88 M106.76,251.88 Q103.88,258.64 102.4,266.36 100.52,276.12 98.12,285.6 92.48,307.8 88.08,330.48 85.68,343 83.32,355.32 M-100.16,256.8 Q-95.64,263.72 -91.88,271.36 -82.72,290.04 -74.28,308.92 -66.76,325.76 -61.92,344 M-119.72,231.04 Q-122.8,227.84 -126.24,231.04 -126.36,231.16 -126.36,231.4 M-157.24,344 Q-155.28,337.76 -152.76,331.72 -143.64,310.16 -134.36,288.52 -127.56,272.6 -118.96,258.2 -118.56,257.48 -118.12,256.8 M-314.36,242.28 Q-306.88,253.12 -303.08,262.76 -294.2,285.28 -286.28,308.68 -281,324.16 -275.76,339.72" test="JurorsBack"/>
    </g>
    <g id="Tween-1">
      <g id="JurorsFront">
        <path fill="#000" stroke="none" d="M-19.524,275.215 Q-26.253,275.896 -32.901,277.979 -34.503,278.459 -36.145,278.82 L-36.505,279.42 -36.265,280.101 -31.379,278.78 -36.265,280.101 Q-42.753,282.624 -48.48,286.669 -55.009,291.355 -59.614,297.924 -63.739,303.771 -66.263,310.579 -68.666,317.188 -69.386,324.196 -70.147,331.365 -69.106,338.374 -67.985,345.823 -64.701,352.632 -61.577,359.2 -56.25,364.246 -50.883,369.333 -44.235,372.817 -39.865,375.139 -35.144,376.301 -32.256,377.041 -29.256,377.343 -22.408,378.344 -15.559,376.902 -14.99,376.781 -14.438,376.622 -7.868,375.113 -1.822,372.016 4.626,368.612 9.872,363.646 15.159,358.559 18.924,352.031 22.528,345.903 24.25,338.975 25.973,332.126 25.492,325.117 24.971,317.788 22.809,310.86 20.686,304.051 16.841,298.164 12.996,292.236 7.83,287.15 2.343,281.823 -4.546,278.659 -11.594,275.415 -19.524,275.215 M-43.234,317.668 L-48.681,317.027 -43.234,317.668 M-23.369,311.781 L-17.922,312.422 -23.369,311.781 M-23.689,361.122 Q-20.886,361.122 -18.923,359.721 -16.961,358.319 -16.961,356.316 -16.961,358.319 -18.923,359.721 -20.886,361.122 -23.689,361.122 M-242.563,260.917 L-243.163,262.84 Q-281.091,260.757 -296.109,295.16 -304.6,314.664 -299.874,335.33 -293.586,362.885 -265.992,372.817 -261.387,374.409 -256.26,375.621 -253.934,376.159 -251.534,376.622 -250.526,376.808 -249.011,376.862 -247.518,376.854 -245.606,376.622 -244.274,376.465 -243.003,376.261 -211.981,371.234 -201.912,337.573 -191.419,302.489 -217.331,276.377 -228.065,265.643 -242.563,260.917 M-235.474,306.254 L-231.629,309.178 -235.474,306.254 M-267.193,309.178 L-263.349,312.101 -267.193,309.178 M-267.273,350.509 Q-266.593,350.349 -265.912,350.229 -266.593,350.349 -267.273,350.509 -272.56,351.991 -275.203,347.345 -272.56,351.991 -267.273,350.509 M-418.422,356.917 Q-413.216,337.453 -421.706,319.31 -428.435,304.932 -439.048,293.158 -449.661,281.423 -465.241,279.701 -486.147,279.941 -465.361,280.021 -484.705,282.544 -500.445,293.959 -517.386,306.214 -521.431,326.599 -525.436,346.825 -517.186,365.528 -509.496,383.07 -493.636,393.883 -486.518,398.687 -478.377,399.931 -475.513,400.371 -472.53,400.371 -470.138,400.691 -467.844,400.772 -450.99,401.351 -437.967,389.278 -423.509,375.941 -418.422,356.917 M-473.811,327 Q-471.929,328.121 -471.929,329.723 -471.929,328.121 -473.811,327 -475.694,325.878 -478.337,325.878 -475.694,325.878 -473.811,327 M-451.584,327.841 Q-449.501,329.162 -449.501,331.005 -449.501,329.162 -451.584,327.841 -453.626,326.519 -456.55,326.519 -453.626,326.519 -451.584,327.841 M-500.124,361.763 L-480.9,368.171 -500.124,361.763 M476.495,271.811 L475.894,269.888 Q473.892,270.609 471.969,271.45 454.548,278.339 442.773,292.837 430.398,308.056 431.239,327.721 432.04,346.945 442.052,363.445 447.259,372.056 463.439,380.026 471.758,384.102 478.498,385.833 484.783,387.459 489.712,387.075 492.394,386.859 495.679,385.553 503.984,382.243 516.145,371.976 523.073,366.129 528.2,360.402 533.406,354.594 534.327,351.59 537.972,339.936 537.651,327.681 537.091,308.056 525.877,292.196 520.79,285.067 513.141,280.502 496.28,270.409 476.495,271.811 M459.874,319.711 L455.909,322.634 459.874,319.711 M496.56,310.739 L492.555,313.663 496.56,310.739 M491.994,364.687 Q490.873,364.487 489.752,364.326 490.873,364.487 491.994,364.687 503.529,366.289 509.616,356.316 503.529,366.289 491.994,364.687 M256.42,276.176 Q247.729,273.413 238.838,275.816 230.268,278.019 222.858,282.865 215.569,287.591 209.281,293.798 202.873,300.206 198.788,308.377 194.663,316.747 193.662,325.918 192.661,335.05 194.743,343.941 196.826,353.032 201.392,361.042 205.957,369.012 212.485,375.46 219.254,382.109 227.704,386.354 232.367,388.753 237.316,390.039 241.161,391.052 245.166,391.4 247.661,391.304 250.132,391 256.926,390.24 263.509,388.036 272.52,385.032 280.09,379.185 287.619,373.298 292.265,364.767 296.55,356.877 298.673,348.226 300.796,339.576 300.035,330.644 299.234,321.273 295.069,312.702 291.104,304.492 285.136,297.643 279.329,290.995 272.681,285.148 265.552,278.98 256.42,276.176 M264.19,314.985 Q266.273,316.306 266.273,318.149 266.273,316.306 264.19,314.985 262.147,313.663 259.224,313.663 262.147,313.663 264.19,314.985 M232.991,312.502 Q234.873,313.623 234.873,315.225 234.873,313.623 232.991,312.502 231.109,311.38 228.465,311.38 231.109,311.38 232.991,312.502 M226.423,368.812 Q226.303,368.932 226.303,369.172 226.303,368.932 226.423,368.812 229.867,365.608 232.951,368.812 229.867,365.608 226.423,368.812 M677.826,289.553 Q670.457,295.761 666.212,304.291 662.247,312.221 660.725,320.832 659.163,329.563 660.445,338.294 661.806,347.666 666.492,355.716 671.138,363.686 678.467,369.172 686.077,374.779 695.128,377.062 696.791,377.467 698.452,377.703 704.331,378.659 710.227,377.823 711.934,377.602 713.631,377.222 722.722,375.26 730.612,370.614 738.742,365.968 744.47,358.719 750.237,351.43 752.92,342.539 755.523,334.049 754.843,325.077 754.162,316.347 750.958,308.296 747.473,299.686 741.666,292.437 736.019,285.428 728.129,281.022 720.36,276.697 711.388,276.777 702.057,276.857 692.965,278.78 L692.605,279.42 692.885,280.141 697.731,278.78 692.885,280.141 Q684.755,283.746 677.826,289.553 M705.741,311.781 L711.188,312.422 705.741,311.781 M685.876,317.668 L680.43,317.027 685.876,317.668 M705.421,361.122 Q708.224,361.122 710.187,359.721 712.149,358.319 712.149,356.316 712.149,358.319 710.187,359.721 708.224,361.122 705.421,361.122Z" test="JurorsFront" vector-effect="non-scaling-stroke" stroke-width="1"/>
        <path id="Layer4_0_1_STROKES" stroke="#FFF" stroke-width="1.602" stroke-linejoin="round" stroke-linecap="round" fill="none" d="M692.885,280.141 Q684.755,283.746 677.826,289.553 670.457,295.761 666.212,304.291 662.247,312.221 660.725,320.832 659.163,329.563 660.445,338.294 661.806,347.666 666.492,355.716 671.138,363.686 678.467,369.172 686.077,374.779 695.128,377.062 696.791,377.467 698.452,377.723 704.331,378.659 710.247,377.843 711.934,377.602 713.631,377.222 722.722,375.26 730.612,370.614 738.742,365.968 744.47,358.719 750.237,351.43 752.92,342.539 755.523,334.049 754.843,325.077 754.162,316.347 750.958,308.296 747.473,299.686 741.666,292.437 736.019,285.428 728.129,281.022 720.36,276.697 711.388,276.777 702.057,276.857 692.965,278.78 L692.605,279.42 M697.731,278.78 L692.885,280.141 M705.741,311.781 L711.188,312.422 M685.876,317.668 L680.43,317.027 M245.166,391.4 Q247.661,391.304 250.132,391.02 256.926,390.24 263.509,388.036 272.52,385.032 280.09,379.185 287.619,373.298 292.265,364.767 296.55,356.877 298.673,348.226 300.796,339.576 300.035,330.644 299.234,321.273 295.069,312.702 291.104,304.492 285.136,297.643 279.329,290.995 272.681,285.148 265.552,278.98 256.42,276.176 247.729,273.413 238.838,275.816 230.268,278.019 222.858,282.865 215.569,287.591 209.281,293.798 202.873,300.206 198.788,308.377 194.663,316.747 193.662,325.918 192.661,335.05 194.743,343.941 196.826,353.032 201.392,361.042 205.957,369.012 212.485,375.46 219.254,382.109 227.704,386.354 232.367,388.753 237.336,390.059 241.161,391.052 245.166,391.4Z M259.224,313.663 Q262.147,313.663 264.21,314.985 266.273,316.306 266.273,318.149 M228.465,311.38 Q231.109,311.38 232.991,312.502 234.873,313.623 234.873,315.225 M476.495,271.811 Q496.28,270.409 513.141,280.502 520.79,285.067 525.877,292.196 537.091,308.056 537.651,327.681 537.972,339.936 534.327,351.59 533.406,354.594 528.2,360.402 523.073,366.129 516.145,371.976 503.984,382.243 495.679,385.553 492.394,386.859 489.712,387.075 484.783,387.459 478.518,385.853 471.758,384.102 463.439,380.026 447.259,372.056 442.052,363.445 432.04,346.945 431.239,327.721 430.398,308.056 442.773,292.837 454.548,278.339 471.969,271.45 473.892,270.609 475.894,269.909 M459.874,319.711 L455.909,322.634 M496.56,310.739 L492.555,313.663 M509.616,356.316 Q503.529,366.289 491.994,364.687 490.873,364.487 489.752,364.326 M535.849,493.247 Q532.725,466.935 523.113,443.465 513.702,420.356 503.329,397.768 501.287,393.363 498.803,389.678 M476.735,389.678 Q473.865,396.441 472.37,404.176 470.488,413.948 468.085,423.44 462.438,445.668 458.032,468.376 455.629,480.912 453.266,493.247 M195.384,481.913 Q197.347,475.665 199.87,469.618 209.001,448.031 218.293,426.364 225.116,410.41 233.692,396.006 234.108,395.303 234.533,394.604 M252.535,394.604 Q257.055,401.552 260.826,409.182 269.997,427.886 278.448,446.789 285.977,463.65 290.823,481.913 M232.951,368.812 Q229.867,365.608 226.423,368.812 226.303,368.932 226.303,369.172 M705.421,361.122 Q708.224,361.122 710.187,359.721 712.149,358.319 712.149,356.316 M658.202,510.108 Q662.688,482.995 670.257,457.002 673.541,445.708 676.665,434.294 683.554,409.142 693.726,386.794 695.085,383.838 696.57,381.067 M712.269,381.067 Q721.135,395.68 727.408,413.187 736.339,438.058 744.269,463.851 749.556,480.992 754.762,498.214 M-478.337,325.878 Q-475.694,325.878 -473.811,327 -471.929,328.121 -471.929,329.723 M-456.55,326.519 Q-453.626,326.519 -451.564,327.841 -449.501,329.162 -449.501,331.005 M-465.361,280.021 Q-484.705,282.544 -500.445,293.959 -517.386,306.214 -521.431,326.599 -525.436,346.825 -517.186,365.528 -509.496,383.07 -493.636,393.883 -486.518,398.687 -478.377,399.931 -475.513,400.371 -472.53,400.371 -470.138,400.691 -467.824,400.772 -450.99,401.351 -437.967,389.278 -423.509,375.941 -418.422,356.917 -413.216,337.453 -421.706,319.31 -428.435,304.932 -439.048,293.158 -449.661,281.423 -465.221,279.701 M-242.563,260.937 L-251.173,259.476 M-243.163,262.84 Q-281.091,260.757 -296.109,295.16 -304.6,314.664 -299.874,335.33 -293.586,362.885 -265.992,372.817 -261.387,374.409 -256.26,375.621 -253.934,376.159 -251.514,376.622 -250.526,376.808 -249.011,376.862 -247.518,376.854 -245.586,376.622 -244.274,376.465 -243.003,376.261 -211.981,371.234 -201.912,337.573 -191.419,302.489 -217.331,276.377 -228.065,265.643 -242.563,260.937 M-235.474,306.254 L-231.629,309.178 M-267.193,309.178 L-263.349,312.101 M-275.203,347.345 Q-272.56,351.991 -267.273,350.509 -266.593,350.349 -265.912,350.229 M-36.245,280.121 Q-42.753,282.624 -48.48,286.669 -55.009,291.355 -59.614,297.924 -63.739,303.771 -66.263,310.579 -68.666,317.188 -69.386,324.196 -70.147,331.365 -69.106,338.374 -67.985,345.823 -64.701,352.632 -61.577,359.2 -56.25,364.246 -50.883,369.333 -44.235,372.817 -39.865,375.139 -35.124,376.321 -32.256,377.041 -29.256,377.343 -22.408,378.344 -15.559,376.902 -14.99,376.781 -14.418,376.642 -7.868,375.113 -1.822,372.016 4.626,368.612 9.872,363.646 15.159,358.559 18.924,352.031 22.528,345.903 24.25,338.975 25.973,332.126 25.492,325.117 24.971,317.788 22.809,310.86 20.686,304.051 16.841,298.164 12.996,292.236 7.83,287.15 2.343,281.823 -4.546,278.659 -11.594,275.415 -19.524,275.215 -26.253,275.896 -32.901,277.979 -34.503,278.459 -36.145,278.82 L-36.505,279.42 M-31.379,278.78 L-36.245,280.121 M-43.234,317.668 L-48.681,317.027 M-23.369,311.781 L-17.922,312.422 M-521.871,490.924 Q-513.901,471.741 -505.05,452.997 -496.84,435.615 -488.309,418.674 -485.465,413.007 -481.221,405.137 M-23.689,361.122 Q-20.886,361.122 -18.923,359.721 -16.961,358.319 -16.961,356.316 M-12.996,380.066 Q-5.52,390.937 -1.702,400.572 7.189,423.12 15.119,446.549 20.406,462.048 25.652,477.628 M-70.187,484.837 Q-69.226,479.03 -67.624,473.302 -61.617,451.635 -55.569,429.888 -49.041,406.539 -39.469,385.152 -38.815,383.695 -36.786,379.666 M-240.38,380.226 Q-219.018,412.903 -209.361,446.589 -203.274,467.936 -196.826,488.962 M-305.321,488.962 Q-297.832,444.987 -275.964,407.54 -268.502,394.713 -259.223,380.226 M-465.641,405.137 Q-460.797,414.792 -456.87,422.319 -447.659,439.901 -439.368,457.923 -431.959,473.983 -426.833,490.924 M-500.124,361.763 L-480.9,368.171" test="JurorsFront"/>
      </g>
    </g>
    <g id="Parrot">
      <path id="Layer2_0_1_STROKES" stroke="#FFF" stroke-width="2" stroke-linejoin="round" stroke-linecap="round" fill="none" d="M1119.3,249.05 Q1123,249.5 1126.3,252.45 1130.3,256 1128.8,261.65 1127.3,267.3 1124.5,270.15 1121.7,272.95 1118.1,272.85 1114.45,272.75 1111.85,270.65 1109.2,268.55 1108.55,265 1107.95,261.6 1108.8,258.45 1109.6,255.6 1110.65,253.9 1111.65,252.15 1113.75,251.05 1115.8,249.9 1119.3,249.05Z M1119.7,260.8 Q1119.2,260.15 1118.45,260.05 1117.65,259.95 1117.6,259.95 1117.3,259.95 1116.95,260.25 1116.1,261 1116.8,262.5 1117.4,263.75 1118.75,263.25 1119.7,262.9 1119.85,262.2 1120,261.7 1120,261.5 1120.05,261.1 1119.7,260.8Z M1074.95,251.55 Q1077.15,251.35 1080.1,254.75 1083,258.05 1082.8,262.7 1082.6,267.25 1080.5,270.05 1078.45,272.8 1074.9,272.7 1071.3,272.55 1068.5,270.3 1065.35,267.9 1065.5,264.1 1065.75,258.9 1067.5,255.8 1069.9,251.5 1074.95,251.55Z M1077.6,262.35 Q1077.25,261.75 1076.6,261.7 1075.85,261.6 1075.8,261.6 1075.6,261.6 1075.25,261.85 1074.5,262.55 1075.15,263.9 1075.7,265.05 1076.8,264.55 1077.6,264.25 1077.75,263.6 1077.85,263.2 1077.85,263 1077.95,262.65 1077.6,262.35Z" test="Parrot"/>
      <path id="Layer2_0_2_STROKES" stroke="#F00" stroke-width="2" stroke-linejoin="round" stroke-linecap="round" fill="none" d="M1140.85,279.45 Q1143.85,280.05 1144.6,280.15 1145.35,280.25 1146.85,280.25 1149,280.25 1152.85,277.85 M1134.45,305.05 L1135.9,305.45 Q1137.6,305.85 1138.85,305.85 1139.6,305.85 1141.7,304.45 1143.65,303.15 1144.05,302.65 M1176.85,328.35 Q1168,318.75 1165.1,306.1 1162.65,295.3 1164.15,279.65 1165.5,265.85 1158.45,252.95 1150.65,238.7 1137.9,233.2 1125.15,227.65 1115.3,226.7 1105.45,225.7 1096.05,229.15 1086.6,232.6 1079.7,239.55 1072.85,246.4 1072.6,247.95 M1070.75,317.45 Q1070.3,330.5 1063.8,341.1 M1103.25,305.85 Q1105.5,308.35 1106.95,311.1 1107.15,311.45 1109.65,311.45 1110.95,311.45 1112.7,310.95 1113.05,310.85 1116.05,309.85" test="Parrot"/>
      <path id="Layer2_0_3_STROKES" stroke="#0FF" stroke-width="2" stroke-linejoin="round" stroke-linecap="round" fill="none" d="M1068.4,334.5 L1067.75,338.4 Q1068.65,338.85 1069.75,338.95 1070.45,339.05 1071.95,339.05 1076.1,339.05 1079.2,335.5 1082.35,331.9 1084.65,331.9 1085.45,331.9 1089.85,332.55 1094.2,333.2 1095.05,333.2 1100,333.2 1101,330.95 1101.95,328.65 1105.75,328.65 1106.6,328.65 1109.7,329.3 1112.85,329.95 1113.65,329.95 1114.2,329.95 1116.15,328 1118.05,326.05 1120.45,326.05 1121.3,326.05 1124.55,326.7 1127.8,327.35 1128.6,327.35 1129.5,327.35 1132,326.05 1133.25,325.4 1134.45,324.75 1134.6,324.75 1137.6,326.05 1140.95,327.35 1142.55,327.35 1144.6,327.35 1147.25,326.4 1148.55,325.9 1149.7,325.4 1151.7,325.4 1161.75,327.7 1170.1,329.6 1173.85,329.9 1174.6,329.95 1175.15,329.95 M1104.2,352.8 Q1103.65,354.65 1101.85,371.45 1100.1,387.7 1099,390.55 1097.45,394.75 1096.9,405.45 1096.3,416.8 1097.7,423.75 1099.25,431.45 1106.5,452.5 1113.95,474.1 1117.25,479.75 1118.8,482.45 1123.5,489.75 1127.3,495.65 1130.25,501.25 1134.15,508.65 1137.25,511.6 1140.4,514.65 1145.25,515.6 1148.5,516.25 1153.55,517.45 1156.95,517.85 1156.95,514.95 1156.95,506.85 1165.4,511.05 1171.35,514 1173.4,514.4 1176.7,515.05 1178.45,512.35 1179.75,510.4 1181.5,507.05 1183.4,504.45 1187.55,503.2 1190.25,502.4 1192.65,504.2 1193.3,504.7 1194.75,499.3 1196.4,493.2 1199,486.5 L1201.25,481.05 Q1201.9,477.15 1203.85,468.05 1205.55,460.05 1204.75,449.95 1203.75,437.75 1199.3,428.35 1199.05,427.85 1187.9,405.8 1180.8,391.7 1178.45,384.7 1176.7,379.45 1173.35,372.1 1171,367 1170.65,363.85 M1206.3,384.35 Q1205.7,384 1204.8,384 1204.65,384 1197,386.6 1195.35,385.7 1193.35,384.65 1193,386.55 1191.65,388 1190.5,389.2 1189.75,389.2 1188.1,389.2 1186.75,388 1185.65,387.05 1185.55,387.25 1184.7,388.15 1183.45,388.75 1182,389.4 1181,389.2 M1178.4,333.2 Q1205.45,359.05 1205.75,384 L1206.4,384 M1063.8,341.1 Q1059.35,353 1055.7,365.3 1052.05,377.55 1049,390 1047.05,397.9 1044.65,405.7 1040.8,418.15 1039.85,431.1 1039.65,434.15 1039.85,437.1 1040.6,449.95 1038.55,462.85 1037.9,467.15 1036,471.05 1034.6,473.9 1033.25,476.7 1031.5,474.35 1031,471.25 1027.05,446.85 1028.9,422.4 1029.2,418.5 1029.9,414.6 1031.1,408.15 1032.15,401.7 1033.15,395.75 1035.35,390.1 1039.9,378.35 1044.75,366.8 1051.15,351.75 1063.8,341.1Z M1050.75,401.6 Q1053.35,404.05 1056.4,404.65 1057.3,404.85 1060.6,404.85 1062.45,404.85 1063.3,403.25 1064.15,401.6 1067.1,401.6 1069.05,401.6 1073.35,402 1077.2,402.25 1079.45,401.6 1085,400.05 1090.05,399.7 1091.4,399.6 1095.7,399.6" test="Parrot"/>
      <path id="Layer2_0_4_STROKES" stroke="#0F0" stroke-width="2" stroke-linejoin="round" stroke-linecap="round" fill="none" d="M1210.15,410.6 Q1210.95,409.35 1210.95,407.15 1210.95,405.6 1208.8,396 1206.55,386.25 1205.75,384.65" test="Parrot"/>
      <path id="Layer2_0_5_STROKES" stroke="#FF0" stroke-width="2" stroke-linejoin="round" stroke-linecap="round" fill="none" d="M1207.05,443.85 L1212.9,443.85 Q1212.6,442.45 1213.65,438.65 1214.85,434.5 1214.85,433.45 1214.85,427.15 1212.95,419.1 1211.35,412.3 1210.15,410.6 M1071.05,278.5 Q1060.55,283.85 1059.45,293.55 1058.95,298 1058.65,302.55 1074.2,305.2 1080.3,300.85 1082.35,293.95 1079.25,288.7 1076.1,283.4 1074.6,281.95 1073.1,280.45 1071.05,278.5Z M1064.5,303.85 Q1062.45,314.25 1073.35,314.95 1075.35,314.8 1077,314 1081,311.1 1079.45,302.45 M1043.6,458.25 Q1046.35,460.6 1047.5,461.95 1047.8,462.15 1051.05,462.15 1053.65,462.15 1062.25,458.9 1069.2,456.3 1071.25,455.8 1071.5,455.7 1071.65,455.7 1071.7,456.65 1076.25,456.9 1077.2,456.95 1082.05,456.95 1083.95,456.95 1087.9,456 1091.85,455 1093.4,455 1095.8,455 1096,454.95 1097.25,454.55 1097.65,452.3 1105.45,454.1 1103.5,453.6 M1071.25,455.8 Q1071,455.9 1071.2,456.25 1071.65,456.95 1071.65,455.7 M1057.25,502.55 Q1053.3,505.6 1052.4,508.1 1052.05,509.15 1052.05,513.25 1052.05,518.65 1055.2,520.4 1057.6,521.7 1067.1,522.7 1067.1,521.1 1066.8,519.75 1068.8,520.5 1071.65,521.4 L1074.9,521.4 Q1073.6,519.7 1072.55,518.3 1074.8,519.1 1076.85,520.1 L1081.4,520.1 1081.4,516.85 Q1077.8,513.65 1076.65,507.95 1076.05,502.4 1075.55,501.25 1074.9,501.25 1073.6,500.6 M1089.2,503.2 Q1088.35,513.4 1090.1,516.4 1091.6,519 1097.65,519.45 L1097.65,515.55 Q1097.1,514.45 1096.55,511.55 1096.7,511.75 1096.8,512 1099.65,517.75 1104.8,518.8 L1104.8,513.65 Q1105.45,514.7 1106.25,515.7 1108.85,518.8 1111.95,519.45 L1112.65,519.45 Q1113,517.35 1111.9,513.6 1110.65,509.45 1110.65,507.75 1110.65,504.3 1113.3,502.55 M1125.65,508.4 Q1124.85,521.2 1134.1,544.8 1138.05,554.9 1141.95,561.35 1146.15,568.25 1148.75,568.25 1152.45,568.25 1153.35,567.85 1156.4,566.5 1156.85,561.1 1159.2,562.25 1165.3,563.05 1170.65,563.05 1172.4,557.55 1173.5,554.15 1173.7,553.75 1174.65,552 1176.45,552 1177.15,552 1184.25,554.6 1185.35,554.6 1187.2,551.35 1189.2,547.85 1190.75,547.45 1194.45,546.4 1199.65,545.65 1203.35,544.7 1205.1,540.95 1206.15,540.95 1207.95,541.3 1209.75,541.6 1210.3,541.6 L1210.3,520.1 Q1207.7,511.2 1204.95,499.05 1202.85,489.85 1201.2,485.65" test="Parrot"/>
      <path id="Layer2_0_6_STROKES" stroke="#F0F" stroke-width="2" stroke-linejoin="round" stroke-linecap="round" fill="none" d="M1033.25,476.7 L1034.25,485.8 Q1035.85,495.65 1039.1,499.3 1040.75,501.15 1041.7,503.45 1042.25,504.7 1042.85,506.6 1043.35,507.95 1044.2,508.1 1045.25,508.25 1047.55,507.1 1050.6,505.6 1053.15,502.65 1054.9,500.6 1057.3,500.6 1059.6,500.6 1065.4,501.5 1070.55,501.95 1072.95,499.95 1075.3,498 1080.05,499.15 1082.75,499.8 1088.6,501.25 1091.55,501.6 1095.9,502.45 1099.4,502.85 1102.25,501.25 1105.2,499.6 1108.2,499.7 1110.1,499.8 1114.65,500.6 1117.25,500.95 1120.1,502 1121.9,502.35 1123.1,499.95 M1206.4,485.65 Q1208.75,473.65 1210.1,465.35 1211.2,458.85 1212.9,446.45 M1168,630.8 Q1170.8,638.9 1171.55,640.1 1172.65,641.85 1175.45,641.85 1176.5,641.85 1176.8,641.75 1178.2,641.1 1179.7,638.6 1198.4,657.45 1199.6,657.45 1207.1,657.45 1210.3,644.5 1212.25,636.7 1212.25,627.25 1212.25,621.3 1210.95,615.65 1210.1,611.95 1208.35,607.35" test="Parrot"/>
      <path id="Layer2_0_7_STROKES" stroke="#F60" stroke-width="2" stroke-linejoin="round" stroke-linecap="round" fill="none" d="M1150.35,572.8 Q1149.85,572 1149.3,571.2 1148.15,569.55 1147.75,569.55 L1147.75,572.8 Q1149,580.4 1157.35,602.85 1167.2,629.5 1172.2,629.5 1174.35,629.5 1179.25,625.3 1183.8,621.05 1183.9,621.05 1184.75,621.05 1187.15,621.7 1189.6,622.35 1190.4,622.35 1192.85,622.35 1195.25,617.45 1196.9,614.05 1197.3,611.9 1202.95,611.9 1205.8,609 1208.65,606.05 1211.6,606.05 1211.6,603.8 1211.95,598.8 1212.25,593.8 1212.25,593.3 1212.25,588.75 1209.35,578.65 1206.05,567.25 1205.75,565 1205.25,561.5 1205.45,555.45 1205.75,549.1 1205.75,546.8 L1205.1,546.8" test="Parrot"/>
    </g>
    <g id="JuryBoxFront">
      <path fill="#000" stroke="none" d="M-1085.3,514.35 L-1107.6,488.3 -1109.45,617.25 Q-1101.272,617.251 -1089.8,617.25 L-1085.3,514.35 M1856.75,500.95 L1855.4,500.95 1837.55,518.5 1837.55,613 Q1848.034,613.017 1856.75,613 L1856.75,500.95 M1685.3,512.95 Q1610.8,514.65 1536.45,518.9 1461,522.55 1385.5,523 1308.1,523.45 1230.7,523.35 1155.2,523.25 1079.7,523 999.9,522.75 920.1,521.8 841.4,520.9 762.75,519.6 684.65,518.35 606.55,520.35 529.25,522.3 451.9,526.5 376.65,529.75 301.25,528.6 221.85,527.35 142.5,522.45 68.55,517.5 -5.7,516.45 -79.6,515.45 -153.55,516.1 -232.9,516.8 -312.25,518 -391.9,519.25 -471.5,520.45 -550.55,521.65 -629.7,522.95 -706.7,524.25 -783.75,524.85 -860.5,525.45 -937.45,523.95 -1011.6,522.5 -1085.3,514.35 L-1089.8,617.25 Q-883.842,617.16 385,615.15 1592.873,613.195 1837.55,613 L1837.55,518.5 Q1761.6,511.25 1685.3,512.95 M1517.6,502.85 Q1512.394,503.094 1507.2,503.3 1431.25,505.8 1355.3,505.8 1332.286,505.8 1309.25,505.8 1253.721,505.815 1198.15,505.85 1189.912,505.856 1181.65,505.85 1110.357,505.781 1039,504.75 1016.125,504.422 993.25,503.75 970.368,503.598 947.45,503.4 930.302,503.302 913.1,503.15 895.936,502.697 878.75,502.45 799.05,501.35 719.3,500.55 657.263,499.94 595.25,502.65 586.156,503.077 577.05,503.55 502,507 427.1,510.95 L267.05,511.75 Q186.75,507.9 106.55,502.95 33.9,497.9 -39.2,497.2 -118.25,496.4 -197.2,497.5 -274.3,498.6 -351.5,500.15 -424.15,501.65 -496.85,503.2 -570.75,504.75 -644.75,505.95 -722.7,507.2 -800.85,506.2 -876.55,505.25 -952.15,500.25 -1029.95,495.6 -1107.6,488.3 L-1085.3,514.35 Q-1011.6,522.5 -937.45,523.95 -860.5,525.45 -783.75,524.85 -706.7,524.25 -629.7,522.95 -550.55,521.65 -471.5,520.45 -391.9,519.25 -312.25,518 -232.9,516.8 -153.55,516.1 -79.6,515.45 -5.7,516.45 68.55,517.5 142.5,522.45 221.85,527.35 301.25,528.6 376.65,529.75 451.9,526.5 529.25,522.3 606.55,520.35 684.65,518.35 762.75,519.6 841.4,520.9 920.1,521.8 999.9,522.75 1079.7,523 1155.2,523.25 1230.7,523.35 1308.1,523.45 1385.5,523 1461,522.55 1536.45,518.9 1610.8,514.65 1685.3,512.95 1761.6,511.25 1837.55,518.5 L1855.4,500.95 1855.45,500.15 Q1837.062,498.494 1818.65,496.85 1804.552,495.536 1790.45,494.6 1730.485,490.798 1670.3,494.4 1594.031,499.691 1517.6,502.85Z" test="JuryBoxFront"/>
      <path id="Layer1_0_1_STROKES" stroke="#F60" stroke-width="2" stroke-linejoin="round" stroke-linecap="round" fill="none" d="M1855.475,500.175 Q1837.062,498.494 1818.65,496.85 1804.552,495.536 1790.45,494.625 1730.485,490.798 1670.3,494.4 1594.031,499.691 1517.6,502.875 1512.394,503.094 1507.2,503.3 1431.25,505.8 1355.3,505.8 1332.286,505.8 1309.275,505.8 1253.721,505.815 1198.15,505.85 1189.912,505.856 1181.675,505.85 1110.357,505.781 1039,504.75 1016.125,504.422 993.25,503.775 970.368,503.598 947.475,503.425 930.302,503.302 913.125,503.175 895.936,502.697 878.75,502.45 799.05,501.35 719.3,500.55 657.263,499.94 595.275,502.675 586.156,503.077 577.05,503.55 502,507 427.1,510.95 L267.05,511.75 Q186.75,507.9 106.55,502.95 33.9,497.9 -39.2,497.2 -118.25,496.4 -197.2,497.5 -274.3,498.6 -351.5,500.15 -424.15,501.65 -496.85,503.2 -570.75,504.75 -644.75,505.95 -722.7,507.2 -800.85,506.2 -876.55,505.25 -952.15,500.25 -1029.95,495.6 -1107.6,488.3 L-1085.3,514.35 Q-1011.6,522.5 -937.45,523.95 -860.5,525.45 -783.75,524.85 -706.7,524.25 -629.7,522.95 -550.55,521.65 -471.5,520.45 -391.9,519.25 -312.25,518 -232.9,516.8 -153.55,516.1 -79.6,515.45 -5.7,516.45 68.55,517.5 142.5,522.45 221.85,527.35 301.25,528.6 376.65,529.75 451.9,526.5 529.25,522.3 606.55,520.35 684.65,518.35 762.75,519.6 841.4,520.9 920.1,521.8 999.9,522.75 1079.7,523 1155.2,523.25 1230.7,523.35 1308.1,523.45 1385.5,523 1461,522.55 1536.45,518.9 1610.8,514.65 1685.3,512.95 1761.6,511.25 1837.55,518.5 L1855.4,500.95 M1855.475,500.175 Q1856.112,500.242 1856.75,500.3 L1856.75,500.95 1856.75,613 1856.75,624.2 M1837.55,624.2 L1837.55,613.025 M-1089.8,617.25 L-1090.1,624.2 M1837.55,613.025 L1837.55,518.5 M-1109.55,624.2 L-1109.45,617.25 -1107.6,488.3 M-1085.3,514.35 L-1089.8,617.25" test="JuryBoxFront"/>
    </g>
  </g>
</svg>