<?xml version="1.0" encoding="utf-8"?>
<svg id="EdithAnim12" image-rendering="inherit" baseProfile="basic" version="1.1" x="0px" y="0px" width="800" height="600" xmlns="http://www.w3.org/2000/svg" xmlns:xlink="http://www.w3.org/1999/xlink">
  <g id="14_JurorParrotf6r1" overflow="visible">
    <g id="JurorsBack">
      <path fill="#000" stroke="none" d="M1235.22,132.28 Q1233.22,132.96 1231.3,133.8 1213.9,140.68 1202.14,155.16 1189.78,170.36 1190.62,190 1191.42,209.2 1201.42,225.68 1206.62,234.28 1222.78,242.24 1231.1,246.32 1237.86,248.08 1244.1,249.68 1249.02,249.28 1251.7,249.08 1254.98,247.76 1263.26,244.44 1275.42,234.2 1282.34,228.36 1287.46,222.64 1292.66,216.84 1293.58,213.84 1297.22,202.2 1296.9,189.96 1296.34,170.36 1285.14,154.52 1280.06,147.4 1272.42,142.84 1255.58,132.76 1235.82,134.16 L1235.22,132.28 M1219.22,182 L1215.26,184.92 1219.22,182 M1255.86,173.04 L1251.86,175.96 1255.86,173.04 M1251.3,226.92 Q1250.18,226.72 1249.06,226.56 1250.18,226.72 1251.3,226.92 1262.82,228.52 1268.9,218.56 1262.82,228.52 1251.3,226.92 M1015.46,138.16 Q1006.9,140.36 999.5,145.2 992.22,149.92 985.94,156.12 979.54,162.52 975.46,170.68 971.34,179.04 970.34,188.2 969.34,197.32 971.42,206.2 973.5,215.28 978.06,223.28 982.62,231.24 989.14,237.68 995.9,244.32 1004.34,248.56 1008.98,250.96 1013.98,252.28 1017.78,253.24 1021.78,253.6 1024.26,253.52 1026.74,253.24 1033.54,252.44 1040.1,250.24 1049.1,247.24 1056.66,241.4 1064.18,235.52 1068.82,227 1073.1,219.12 1075.22,210.48 1077.34,201.84 1076.58,192.92 1075.78,183.56 1071.62,175 1067.66,166.8 1061.7,159.96 1055.9,153.32 1049.26,147.48 1042.14,141.32 1033.02,138.52 1024.34,135.76 1015.46,138.16 M1040.82,177.28 Q1042.86,178.6 1042.86,180.44 1042.86,178.6 1040.82,177.28 1038.74,175.96 1035.82,175.96 1038.74,175.96 1040.82,177.28 M1009.62,174.8 Q1011.5,175.92 1011.5,177.52 1011.5,175.92 1009.62,174.8 1007.74,173.68 1005.1,173.68 1007.74,173.68 1009.62,174.8 M1003.06,231.04 Q1002.94,231.16 1002.94,231.4 1002.94,231.16 1003.06,231.04 1006.5,227.84 1009.58,231.04 1006.5,227.84 1003.06,231.04 M791.46,141.76 L791.74,142.48 796.58,141.12 791.74,142.48 Q785.22,144.96 779.5,149 772.98,153.68 768.38,160.24 764.26,166.08 761.74,172.88 759.34,179.48 758.62,186.48 757.86,193.64 758.9,200.64 760.02,208.08 763.3,214.88 766.42,221.44 771.74,226.48 777.1,231.56 783.74,235.04 788.1,237.36 792.86,238.56 795.7,239.24 798.7,239.56 805.54,240.56 812.38,239.12 812.94,239 813.54,238.88 820.06,237.32 826.1,234.24 832.54,230.84 837.78,225.88 843.06,220.8 846.82,214.28 850.42,208.16 852.14,201.24 853.86,194.4 853.38,187.4 852.86,180.08 850.7,173.16 848.58,166.36 844.74,160.48 840.9,154.56 835.74,149.48 830.26,144.16 823.38,141 816.34,137.76 808.42,137.56 801.7,138.24 795.06,140.32 793.46,140.8 791.82,141.16 L791.46,141.76 M804.58,174.08 L810.02,174.72 804.58,174.08 M809.02,221.96 Q810.98,220.56 810.98,218.56 810.98,220.56 809.02,221.96 807.06,223.36 804.26,223.36 807.06,223.36 809.02,221.96 M784.74,179.96 L779.3,179.32 784.74,179.96 M1648.98,135.88 Q1640.58,137.76 1632.94,142 1624.66,146.64 1618.7,154.04 1613.1,161 1610.66,169.56 1608.1,178.36 1607.7,187.6 1607.3,196.6 1608.46,205.56 1609.58,214.44 1614.58,221.88 1619.74,229.56 1627.26,234.8 1634.54,239.92 1642.86,243.08 1651.7,246.36 1661.14,246.8 1670.14,247.56 1678.54,244.16 1687.34,240.68 1693.66,233.48 1700.02,226.28 1703.98,217.72 1707.94,209.12 1709.58,199.68 1711.14,190.68 1710.02,181.56 1708.86,172.04 1704.58,163.36 1700.34,154.88 1693.38,148.52 1687.46,143.08 1680.62,138.84 1674.1,134.76 1666.78,132.28 L1666.18,134.16 Q1657.46,134.12 1648.98,135.88 M1673.86,177.52 L1677.7,180.44 1673.86,177.52 M1642.18,180.44 L1646.02,183.36 1642.18,180.44 M1642.1,221.72 Q1642.78,221.56 1643.46,221.44 1642.78,221.56 1642.1,221.72 1636.86,223.2 1634.18,218.56 1636.86,223.2 1642.1,221.72 M1425.3,166.6 Q1421.34,174.52 1419.82,183.12 1418.26,191.84 1419.54,200.56 1420.9,209.92 1425.58,217.96 1430.22,225.92 1437.54,231.4 1445.14,237 1454.18,239.28 1455.86,239.68 1457.5,239.96 1463.38,240.88 1469.3,240.08 1470.98,239.8 1472.66,239.44 1481.74,237.48 1489.62,232.84 1497.74,228.2 1503.46,220.96 1509.22,213.68 1511.9,204.8 1514.5,196.32 1513.82,187.36 1513.14,178.64 1509.94,170.6 1506.46,162 1500.66,154.76 1495.02,147.76 1487.14,143.36 1479.38,139.04 1470.42,139.12 1461.1,139.2 1452.02,141.12 L1451.66,141.76 1451.94,142.48 1456.78,141.12 1451.94,142.48 Q1443.82,146.08 1436.9,151.88 1429.54,158.08 1425.3,166.6 M1444.94,179.96 L1439.5,179.32 1444.94,179.96 M1464.78,174.08 L1470.22,174.72 1464.78,174.08 M1464.46,223.36 Q1467.26,223.36 1469.22,221.96 1471.18,220.56 1471.18,218.56 1471.18,220.56 1469.22,221.96 1467.26,223.36 1464.46,223.36Z" test="JurorsBack" vector-effect="non-scaling-stroke" stroke-width="1"/>
      <path id="Layer3_0_1_STROKES" stroke="#FFF" stroke-width="1.6" stroke-linejoin="round" stroke-linecap="round" fill="none" d="M1451.94,142.48 Q1443.82,146.08 1436.9,151.88 1429.54,158.08 1425.3,166.6 1421.34,174.52 1419.82,183.12 1418.26,191.84 1419.54,200.56 1420.9,209.92 1425.58,217.96 1430.22,225.92 1437.54,231.4 1445.14,237 1454.18,239.28 1455.86,239.68 1457.5,239.96 1463.38,240.88 1469.3,240.08 1470.98,239.8 1472.66,239.44 1481.74,237.48 1489.62,232.84 1497.74,228.2 1503.46,220.96 1509.22,213.68 1511.9,204.8 1514.5,196.32 1513.82,187.36 1513.14,178.64 1509.94,170.6 1506.46,162 1500.66,154.76 1495.02,147.76 1487.14,143.36 1479.38,139.04 1470.42,139.12 1461.1,139.2 1452.02,141.12 L1451.66,141.76 M1456.78,141.12 L1451.94,142.48 M1444.94,179.96 L1439.5,179.32 M1464.78,174.08 L1470.22,174.72 M1464.46,223.36 Q1467.26,223.36 1469.22,221.96 1471.18,220.56 1471.18,218.56 M1666.18,134.16 Q1657.46,134.12 1648.98,135.88 1640.58,137.76 1632.94,142 1624.66,146.64 1618.7,154.04 1613.1,161 1610.66,169.56 1608.1,178.36 1607.7,187.6 1607.3,196.6 1608.46,205.56 1609.58,214.44 1614.58,221.88 1619.74,229.56 1627.26,234.8 1634.54,239.92 1642.86,243.08 1651.7,246.36 1661.14,246.8 1670.14,247.56 1678.54,244.16 1687.34,240.68 1693.66,233.48 1700.02,226.28 1703.98,217.72 1707.94,209.12 1709.58,199.68 1711.14,190.68 1710.02,181.56 1708.86,172.04 1704.58,163.36 1700.34,154.88 1693.38,148.52 1687.46,143.08 1680.62,138.84 1674.1,134.76 1666.78,132.28 L1658.18,130.8 M1673.86,177.52 L1677.7,180.44 M1642.18,180.44 L1646.02,183.36 M1634.18,218.56 Q1636.86,223.2 1642.1,221.72 1642.78,221.56 1643.46,221.44 M1663.82,251.72 Q1664.62,252.72 1665.46,253.76 1688.62,283.08 1700.14,320.04 1707.14,342.56 1714.18,364.96 M1603.78,366.68 Q1608.18,322.92 1630.14,285.92 1640.98,267.6 1655.62,253.76 1656.7,252.72 1657.78,251.72 M1417.3,372.16 Q1421.78,345.08 1429.34,319.12 1432.62,307.84 1435.74,296.44 1442.62,271.32 1452.78,249 1454.14,246.04 1455.62,243.28 M1471.3,243.28 Q1480.14,257.88 1486.42,275.36 1495.34,300.2 1503.26,325.96 1508.54,343.08 1513.74,360.28 M796.58,141.12 L791.74,142.48 Q785.22,144.96 779.5,149 772.98,153.68 768.38,160.24 764.26,166.08 761.74,172.88 759.34,179.48 758.62,186.48 757.86,193.64 758.9,200.64 760.02,208.08 763.3,214.88 766.42,221.44 771.74,226.48 777.1,231.56 783.74,235.04 788.1,237.36 792.86,238.56 795.7,239.24 798.7,239.56 805.54,240.56 812.38,239.12 812.94,239 813.54,238.88 820.06,237.32 826.1,234.24 832.54,230.84 837.78,225.88 843.06,220.8 846.82,214.28 850.42,208.16 852.14,201.24 853.86,194.4 853.38,187.4 852.86,180.08 850.7,173.16 848.58,166.36 844.74,160.48 840.9,154.56 835.74,149.48 830.26,144.16 823.38,141 816.34,137.76 808.42,137.56 801.7,138.24 795.06,140.32 793.46,140.8 791.82,141.16 L791.46,141.76 M804.58,174.08 L810.02,174.72 M804.26,223.36 Q807.06,223.36 809.02,221.96 810.98,220.56 810.98,218.56 M1021.78,253.6 Q1024.26,253.52 1026.74,253.24 1033.54,252.44 1040.1,250.24 1049.1,247.24 1056.66,241.4 1064.18,235.52 1068.82,227 1073.1,219.12 1075.22,210.48 1077.34,201.84 1076.58,192.92 1075.78,183.56 1071.62,175 1067.66,166.8 1061.7,159.96 1055.9,153.32 1049.26,147.48 1042.14,141.32 1033.02,138.52 1024.34,135.76 1015.46,138.16 1006.9,140.36 999.5,145.2 992.22,149.92 985.94,156.12 979.54,162.52 975.46,170.68 971.34,179.04 970.34,188.2 969.34,197.32 971.42,206.2 973.5,215.28 978.06,223.28 982.62,231.24 989.14,237.68 995.9,244.32 1004.34,248.56 1008.98,250.96 1013.98,252.28 1017.78,253.24 1021.78,253.6Z M1035.82,175.96 Q1038.74,175.96 1040.82,177.28 1042.86,178.6 1042.86,180.44 M1005.1,173.68 Q1007.74,173.68 1009.62,174.8 1011.5,175.92 1011.5,177.52 M1235.82,134.16 Q1255.58,132.76 1272.42,142.84 1280.06,147.4 1285.14,154.52 1296.34,170.36 1296.9,189.96 1297.22,202.2 1293.58,213.84 1292.66,216.84 1287.46,222.64 1282.34,228.36 1275.42,234.2 1263.26,244.44 1254.98,247.76 1251.7,249.08 1249.02,249.28 1244.1,249.68 1237.86,248.08 1231.1,246.32 1222.78,242.24 1206.62,234.28 1201.42,225.68 1191.42,209.2 1190.62,190 1189.78,170.36 1202.14,155.16 1213.9,140.68 1231.3,133.8 1233.22,132.96 1235.22,132.28 M1219.22,182 L1215.26,184.92 M1255.86,173.04 L1251.86,175.96 M1268.9,218.56 Q1262.82,228.52 1251.3,226.92 1250.18,226.72 1249.06,226.56 M784.74,179.96 L779.3,179.32 M757.82,346.92 Q758.78,341.12 760.38,335.4 766.38,313.76 772.42,292.04 778.94,268.72 788.5,247.36 789.14,245.92 791.18,241.88 M1295.1,355.32 Q1291.98,329.04 1282.38,305.6 1272.98,282.52 1262.62,259.96 1260.58,255.56 1258.1,251.88 M1236.06,251.88 Q1233.18,258.64 1231.7,266.36 1229.82,276.12 1227.42,285.6 1221.78,307.8 1217.38,330.48 1214.98,343 1212.62,355.32 M1029.14,256.8 Q1033.66,263.72 1037.42,271.36 1046.58,290.04 1055.02,308.92 1062.54,325.76 1067.38,344 M1009.58,231.04 Q1006.5,227.84 1003.06,231.04 1002.94,231.16 1002.94,231.4 M972.06,344 Q974.02,337.76 976.54,331.72 985.66,310.16 994.94,288.52 1001.74,272.6 1010.34,258.2 1010.74,257.48 1011.18,256.8 M814.94,242.28 Q822.42,253.12 826.22,262.76 835.1,285.28 843.02,308.68 848.3,324.16 853.54,339.72" test="JurorsBack"/>
    </g>
    <g id="Tween-1">
      <g id="JurorsFront">
        <path fill="#000" stroke="none" d="M1172.476,275.215 Q1165.747,275.896 1159.099,277.979 1157.497,278.459 1155.855,278.82 L1155.495,279.42 1155.735,280.101 1160.621,278.78 1155.735,280.101 Q1149.247,282.624 1143.52,286.669 1136.992,291.355 1132.386,297.924 1128.261,303.771 1125.737,310.579 1123.334,317.188 1122.614,324.196 1121.853,331.365 1122.894,338.374 1124.015,345.823 1127.299,352.632 1130.423,359.2 1135.75,364.246 1141.117,369.333 1147.765,372.817 1152.135,375.139 1156.856,376.301 1159.744,377.041 1162.744,377.343 1169.592,378.344 1176.441,376.902 1177.01,376.781 1177.562,376.622 1184.132,375.113 1190.178,372.016 1196.626,368.612 1201.873,363.646 1207.159,358.559 1210.924,352.031 1214.528,345.903 1216.25,338.975 1217.973,332.126 1217.492,325.117 1216.971,317.788 1214.809,310.86 1212.686,304.051 1208.841,298.164 1204.996,292.236 1199.83,287.15 1194.343,281.823 1187.455,278.659 1180.406,275.415 1172.476,275.215 M1148.766,317.668 L1143.319,317.027 1148.766,317.668 M1168.631,311.781 L1174.078,312.422 1168.631,311.781 M1168.311,361.122 Q1171.114,361.122 1173.077,359.721 1175.039,358.319 1175.039,356.316 1175.039,358.319 1173.077,359.721 1171.114,361.122 1168.311,361.122 M949.437,260.917 L948.837,262.84 Q910.909,260.757 895.891,295.16 887.4,314.664 892.126,335.33 898.414,362.885 926.008,372.817 930.613,374.409 935.74,375.621 938.066,376.159 940.466,376.622 941.474,376.808 942.989,376.862 944.482,376.854 946.394,376.622 947.726,376.465 948.997,376.261 980.019,371.234 990.088,337.573 1000.581,302.489 974.669,276.377 963.935,265.643 949.437,260.917 M956.526,306.254 L960.371,309.178 956.526,306.254 M924.807,309.178 L928.651,312.101 924.807,309.178 M924.727,350.509 Q925.407,350.349 926.088,350.229 925.407,350.349 924.727,350.509 919.44,351.991 916.797,347.345 919.44,351.991 924.727,350.509 M773.578,356.917 Q778.784,337.453 770.294,319.31 763.565,304.932 752.952,293.158 742.339,281.423 726.759,279.701 705.853,279.941 726.639,280.021 707.295,282.544 691.555,293.959 674.614,306.214 670.569,326.599 666.564,346.825 674.815,365.528 682.504,383.07 698.364,393.883 705.482,398.687 713.623,399.931 716.487,400.371 719.47,400.371 721.862,400.691 724.156,400.772 741.01,401.351 754.033,389.278 768.491,375.941 773.578,356.917 M718.189,327 Q720.071,328.121 720.071,329.723 720.071,328.121 718.189,327 716.306,325.878 713.663,325.878 716.306,325.878 718.189,327 M740.416,327.841 Q742.499,329.162 742.499,331.005 742.499,329.162 740.416,327.841 738.374,326.519 735.45,326.519 738.374,326.519 740.416,327.841 M691.876,361.763 L711.1,368.171 691.876,361.763 M1668.495,271.811 L1667.894,269.888 Q1665.892,270.609 1663.969,271.45 1646.548,278.339 1634.773,292.837 1622.398,308.056 1623.239,327.721 1624.04,346.945 1634.052,363.445 1639.259,372.056 1655.439,380.026 1663.758,384.102 1670.498,385.833 1676.783,387.459 1681.712,387.075 1684.394,386.859 1687.679,385.553 1695.984,382.243 1708.145,371.976 1715.073,366.129 1720.2,360.402 1725.406,354.594 1726.327,351.59 1729.972,339.936 1729.651,327.681 1729.091,308.056 1717.877,292.196 1712.79,285.067 1705.141,280.502 1688.28,270.409 1668.495,271.811 M1651.874,319.711 L1647.909,322.634 1651.874,319.711 M1688.56,310.739 L1684.555,313.663 1688.56,310.739 M1683.994,364.687 Q1682.873,364.487 1681.752,364.326 1682.873,364.487 1683.994,364.687 1695.529,366.289 1701.616,356.316 1695.529,366.289 1683.994,364.687 M1448.42,276.176 Q1439.729,273.413 1430.838,275.816 1422.268,278.019 1414.858,282.865 1407.569,287.591 1401.281,293.798 1394.873,300.206 1390.788,308.377 1386.663,316.747 1385.662,325.918 1384.661,335.05 1386.743,343.941 1388.826,353.032 1393.392,361.042 1397.957,369.012 1404.485,375.46 1411.254,382.109 1419.704,386.354 1424.367,388.753 1429.316,390.039 1433.161,391.052 1437.166,391.4 1439.661,391.304 1442.132,391 1448.926,390.24 1455.509,388.036 1464.52,385.032 1472.09,379.185 1479.619,373.298 1484.265,364.767 1488.55,356.877 1490.673,348.226 1492.796,339.576 1492.035,330.644 1491.234,321.273 1487.069,312.702 1483.104,304.492 1477.136,297.643 1471.329,290.995 1464.681,285.148 1457.552,278.98 1448.42,276.176 M1456.19,314.985 Q1458.273,316.306 1458.273,318.149 1458.273,316.306 1456.19,314.985 1454.147,313.663 1451.224,313.663 1454.147,313.663 1456.19,314.985 M1424.991,312.502 Q1426.873,313.623 1426.873,315.225 1426.873,313.623 1424.991,312.502 1423.109,311.38 1420.465,311.38 1423.109,311.38 1424.991,312.502 M1418.423,368.812 Q1418.303,368.932 1418.303,369.172 1418.303,368.932 1418.423,368.812 1421.867,365.608 1424.951,368.812 1421.867,365.608 1418.423,368.812 M1869.826,289.553 Q1862.457,295.761 1858.212,304.291 1854.247,312.221 1852.725,320.832 1851.163,329.563 1852.445,338.294 1853.806,347.666 1858.492,355.716 1863.138,363.686 1870.467,369.172 1878.077,374.779 1887.128,377.062 1888.791,377.467 1890.452,377.703 1896.331,378.659 1902.227,377.823 1903.934,377.602 1905.631,377.222 1914.722,375.26 1922.612,370.614 1930.742,365.968 1936.47,358.719 1942.237,351.43 1944.92,342.539 1947.523,334.049 1946.843,325.077 1946.162,316.347 1942.958,308.296 1939.473,299.686 1933.666,292.437 1928.019,285.428 1920.129,281.022 1912.36,276.697 1903.388,276.777 1894.057,276.857 1884.965,278.78 L1884.605,279.42 1884.885,280.141 1889.731,278.78 1884.885,280.141 Q1876.755,283.746 1869.826,289.553 M1897.741,311.781 L1903.188,312.422 1897.741,311.781 M1877.876,317.668 L1872.43,317.027 1877.876,317.668 M1897.421,361.122 Q1900.224,361.122 1902.187,359.721 1904.149,358.319 1904.149,356.316 1904.149,358.319 1902.187,359.721 1900.224,361.122 1897.421,361.122Z" test="JurorsFront" vector-effect="non-scaling-stroke" stroke-width="1"/>
        <path id="Layer4_0_1_STROKES" stroke="#FFF" stroke-width="1.602" stroke-linejoin="round" stroke-linecap="round" fill="none" d="M1884.885,280.141 Q1876.755,283.746 1869.826,289.553 1862.457,295.761 1858.212,304.291 1854.247,312.221 1852.725,320.832 1851.163,329.563 1852.445,338.294 1853.806,347.666 1858.492,355.716 1863.138,363.686 1870.467,369.172 1878.077,374.779 1887.128,377.062 1888.791,377.467 1890.452,377.723 1896.331,378.659 1902.247,377.843 1903.934,377.602 1905.631,377.222 1914.722,375.26 1922.612,370.614 1930.742,365.968 1936.47,358.719 1942.237,351.43 1944.92,342.539 1947.523,334.049 1946.843,325.077 1946.162,316.347 1942.958,308.296 1939.473,299.686 1933.666,292.437 1928.019,285.428 1920.129,281.022 1912.36,276.697 1903.388,276.777 1894.057,276.857 1884.965,278.78 L1884.605,279.42 M1889.731,278.78 L1884.885,280.141 M1897.741,311.781 L1903.188,312.422 M1877.876,317.668 L1872.43,317.027 M1437.166,391.4 Q1439.661,391.304 1442.132,391.02 1448.926,390.24 1455.509,388.036 1464.52,385.032 1472.09,379.185 1479.619,373.298 1484.265,364.767 1488.55,356.877 1490.673,348.226 1492.796,339.576 1492.035,330.644 1491.234,321.273 1487.069,312.702 1483.104,304.492 1477.136,297.643 1471.329,290.995 1464.681,285.148 1457.552,278.98 1448.42,276.176 1439.729,273.413 1430.838,275.816 1422.268,278.019 1414.858,282.865 1407.569,287.591 1401.281,293.798 1394.873,300.206 1390.788,308.377 1386.663,316.747 1385.662,325.918 1384.661,335.05 1386.743,343.941 1388.826,353.032 1393.392,361.042 1397.957,369.012 1404.485,375.46 1411.254,382.109 1419.704,386.354 1424.367,388.753 1429.336,390.059 1433.161,391.052 1437.166,391.4Z M1451.224,313.663 Q1454.147,313.663 1456.21,314.985 1458.273,316.306 1458.273,318.149 M1420.465,311.38 Q1423.109,311.38 1424.991,312.502 1426.873,313.623 1426.873,315.225 M1668.495,271.811 Q1688.28,270.409 1705.141,280.502 1712.79,285.067 1717.877,292.196 1729.091,308.056 1729.651,327.681 1729.972,339.936 1726.327,351.59 1725.406,354.594 1720.2,360.402 1715.073,366.129 1708.145,371.976 1695.984,382.243 1687.679,385.553 1684.394,386.859 1681.712,387.075 1676.783,387.459 1670.518,385.853 1663.758,384.102 1655.439,380.026 1639.259,372.056 1634.052,363.445 1624.04,346.945 1623.239,327.721 1622.398,308.056 1634.773,292.837 1646.548,278.339 1663.969,271.45 1665.892,270.609 1667.894,269.909 M1651.874,319.711 L1647.909,322.634 M1688.56,310.739 L1684.555,313.663 M1701.616,356.316 Q1695.529,366.289 1683.994,364.687 1682.873,364.487 1681.752,364.326 M1727.849,493.247 Q1724.725,466.935 1715.113,443.465 1705.702,420.356 1695.329,397.768 1693.287,393.363 1690.803,389.678 M1668.735,389.678 Q1665.865,396.441 1664.37,404.176 1662.488,413.948 1660.085,423.44 1654.438,445.668 1650.032,468.376 1647.629,480.912 1645.266,493.247 M1387.384,481.913 Q1389.347,475.665 1391.87,469.618 1401.001,448.031 1410.293,426.364 1417.116,410.41 1425.692,396.006 1426.108,395.303 1426.533,394.604 M1444.535,394.604 Q1449.055,401.552 1452.826,409.182 1461.997,427.886 1470.448,446.789 1477.977,463.65 1482.823,481.913 M1424.951,368.812 Q1421.867,365.608 1418.423,368.812 1418.303,368.932 1418.303,369.172 M1897.421,361.122 Q1900.224,361.122 1902.187,359.721 1904.149,358.319 1904.149,356.316 M1850.202,510.108 Q1854.688,482.995 1862.257,457.002 1865.541,445.708 1868.665,434.294 1875.554,409.142 1885.726,386.794 1887.085,383.838 1888.57,381.067 M1904.269,381.067 Q1913.135,395.68 1919.408,413.187 1928.339,438.058 1936.269,463.851 1941.556,480.992 1946.762,498.214 M713.663,325.878 Q716.306,325.878 718.189,327 720.071,328.121 720.071,329.723 M735.45,326.519 Q738.374,326.519 740.436,327.841 742.499,329.162 742.499,331.005 M726.639,280.021 Q707.295,282.544 691.555,293.959 674.614,306.214 670.569,326.599 666.564,346.825 674.815,365.528 682.504,383.07 698.364,393.883 705.482,398.687 713.623,399.931 716.487,400.371 719.47,400.371 721.862,400.691 724.176,400.772 741.01,401.351 754.033,389.278 768.491,375.941 773.578,356.917 778.784,337.453 770.294,319.31 763.565,304.932 752.952,293.158 742.339,281.423 726.779,279.701 M949.437,260.937 L940.827,259.476 M948.837,262.84 Q910.909,260.757 895.891,295.16 887.4,314.664 892.126,335.33 898.414,362.885 926.008,372.817 930.613,374.409 935.74,375.621 938.066,376.159 940.486,376.622 941.474,376.808 942.989,376.862 944.482,376.854 946.414,376.622 947.726,376.465 948.997,376.261 980.019,371.234 990.088,337.573 1000.581,302.489 974.669,276.377 963.935,265.643 949.437,260.937 M956.526,306.254 L960.371,309.178 M924.807,309.178 L928.651,312.101 M916.797,347.345 Q919.44,351.991 924.727,350.509 925.407,350.349 926.088,350.229 M1155.755,280.121 Q1149.247,282.624 1143.52,286.669 1136.992,291.355 1132.386,297.924 1128.261,303.771 1125.737,310.579 1123.334,317.188 1122.614,324.196 1121.853,331.365 1122.894,338.374 1124.015,345.823 1127.299,352.632 1130.423,359.2 1135.75,364.246 1141.117,369.333 1147.765,372.817 1152.135,375.139 1156.876,376.321 1159.744,377.041 1162.744,377.343 1169.592,378.344 1176.441,376.902 1177.01,376.781 1177.582,376.642 1184.132,375.113 1190.178,372.016 1196.626,368.612 1201.873,363.646 1207.159,358.559 1210.924,352.031 1214.528,345.903 1216.25,338.975 1217.973,332.126 1217.492,325.117 1216.971,317.788 1214.809,310.86 1212.686,304.051 1208.841,298.164 1204.996,292.236 1199.83,287.15 1194.343,281.823 1187.455,278.659 1180.406,275.415 1172.476,275.215 1165.747,275.896 1159.099,277.979 1157.497,278.459 1155.855,278.82 L1155.495,279.42 M1160.621,278.78 L1155.755,280.121 M1148.766,317.668 L1143.319,317.027 M1168.631,311.781 L1174.078,312.422 M670.129,490.924 Q678.099,471.741 686.95,452.997 695.16,435.615 703.691,418.674 706.535,413.007 710.779,405.137 M1168.311,361.122 Q1171.114,361.122 1173.077,359.721 1175.039,358.319 1175.039,356.316 M1179.004,380.066 Q1186.48,390.937 1190.298,400.572 1199.189,423.12 1207.119,446.549 1212.406,462.048 1217.652,477.628 M1121.813,484.837 Q1122.774,479.03 1124.376,473.302 1130.383,451.635 1136.431,429.888 1142.959,406.539 1152.531,385.152 1153.185,383.695 1155.214,379.666 M951.62,380.226 Q972.982,412.903 982.639,446.589 988.726,467.936 995.174,488.962 M886.679,488.962 Q894.168,444.987 916.036,407.54 923.498,394.713 932.777,380.226 M726.359,405.137 Q731.203,414.792 735.13,422.319 744.341,439.901 752.632,457.923 760.041,473.983 765.167,490.924 M691.876,361.763 L711.1,368.171" test="JurorsFront"/>
      </g>
    </g>
    <g id="Parrot">
      <path id="Layer2_0_1_STROKES" stroke="#FFF" stroke-width="2" stroke-linejoin="round" stroke-linecap="round" fill="none" d="M2283.5,248.15 Q2287.2,248.6 2290.5,251.55 2294.5,255.1 2293,260.75 2291.5,266.4 2288.7,269.25 2285.9,272.05 2282.3,271.95 2278.65,271.85 2276.05,269.75 2273.4,267.65 2272.75,264.1 2272.15,260.7 2273,257.55 2273.8,254.7 2274.85,253 2275.85,251.25 2277.95,250.15 2280,249 2283.5,248.15Z M2283.9,259.9 Q2283.4,259.25 2282.65,259.15 2281.85,259.05 2281.8,259.05 2281.5,259.05 2281.15,259.35 2280.3,260.1 2281,261.6 2281.6,262.85 2282.95,262.35 2283.9,262 2284.05,261.3 2284.2,260.8 2284.2,260.6 2284.25,260.2 2283.9,259.9Z M2239.15,250.65 Q2241.35,250.45 2244.3,253.85 2247.2,257.15 2247,261.8 2246.8,266.35 2244.7,269.15 2242.65,271.9 2239.1,271.8 2235.5,271.65 2232.7,269.4 2229.55,267 2229.7,263.2 2229.95,258 2231.7,254.9 2234.1,250.6 2239.15,250.65Z M2241.8,261.45 Q2241.45,260.85 2240.8,260.8 2240.05,260.7 2240,260.7 2239.8,260.7 2239.45,260.95 2238.7,261.65 2239.35,263 2239.9,264.15 2241,263.65 2241.8,263.35 2241.95,262.7 2242.05,262.3 2242.05,262.1 2242.15,261.75 2241.8,261.45Z" test="Parrot"/>
      <path id="Layer2_0_2_STROKES" stroke="#F00" stroke-width="2" stroke-linejoin="round" stroke-linecap="round" fill="none" d="M2305.05,278.55 Q2308.05,279.15 2308.8,279.25 2309.55,279.35 2311.05,279.35 2313.2,279.35 2317.05,276.95 M2298.65,304.15 L2300.1,304.55 Q2301.8,304.95 2303.05,304.95 2303.8,304.95 2305.9,303.55 2307.85,302.25 2308.25,301.75 M2341.05,327.45 Q2332.2,317.85 2329.3,305.2 2326.85,294.4 2328.35,278.75 2329.7,264.95 2322.65,252.05 2314.85,237.8 2302.1,232.3 2289.35,226.75 2279.5,225.8 2269.65,224.8 2260.25,228.25 2250.8,231.7 2243.9,238.65 2237.05,245.5 2236.8,247.05 M2234.95,316.55 Q2234.5,329.6 2228,340.2 M2267.45,304.95 Q2269.7,307.45 2271.15,310.2 2271.35,310.55 2273.85,310.55 2275.15,310.55 2276.9,310.05 2277.25,309.95 2280.25,308.95" test="Parrot"/>
      <path id="Layer2_0_3_STROKES" stroke="#0FF" stroke-width="2" stroke-linejoin="round" stroke-linecap="round" fill="none" d="M2232.6,333.6 L2231.95,337.5 Q2232.85,337.95 2233.95,338.05 2234.65,338.15 2236.15,338.15 2240.3,338.15 2243.4,334.6 2246.55,331 2248.85,331 2249.65,331 2254.05,331.65 2258.4,332.3 2259.25,332.3 2264.2,332.3 2265.2,330.05 2266.15,327.75 2269.95,327.75 2270.8,327.75 2273.9,328.4 2277.05,329.05 2277.85,329.05 2278.4,329.05 2280.35,327.1 2282.25,325.15 2284.65,325.15 2285.5,325.15 2288.75,325.8 2292,326.45 2292.8,326.45 2293.7,326.45 2296.2,325.15 2297.45,324.5 2298.65,323.85 2298.8,323.85 2301.8,325.15 2305.15,326.45 2306.75,326.45 2308.8,326.45 2311.45,325.5 2312.75,325 2313.9,324.5 2315.9,324.5 2325.95,326.8 2334.3,328.7 2338.05,329 2338.8,329.05 2339.35,329.05 M2268.4,351.9 Q2267.85,353.75 2266.05,370.55 2264.3,386.8 2263.2,389.65 2261.65,393.85 2261.1,404.55 2260.5,415.9 2261.9,422.85 2263.45,430.55 2270.7,451.6 2278.15,473.2 2281.45,478.85 2283,481.55 2287.7,488.85 2291.5,494.75 2294.45,500.35 2298.35,507.75 2301.45,510.7 2304.6,513.75 2309.45,514.7 2312.7,515.35 2317.75,516.55 2321.15,516.95 2321.15,514.05 2321.15,505.95 2329.6,510.15 2335.55,513.1 2337.6,513.5 2340.9,514.15 2342.65,511.45 2343.95,509.5 2345.7,506.15 2347.6,503.55 2351.75,502.3 2354.45,501.5 2356.85,503.3 2357.5,503.8 2358.95,498.4 2360.6,492.3 2363.2,485.6 L2365.45,480.15 Q2366.1,476.25 2368.05,467.15 2369.75,459.15 2368.95,449.05 2367.95,436.85 2363.5,427.45 2363.25,426.95 2352.1,404.9 2345,390.8 2342.65,383.8 2340.9,378.55 2337.55,371.2 2335.2,366.1 2334.85,362.95 M2370.5,383.45 Q2369.9,383.1 2369,383.1 2368.85,383.1 2361.2,385.7 2359.55,384.8 2357.55,383.75 2357.2,385.65 2355.85,387.1 2354.7,388.3 2353.95,388.3 2352.3,388.3 2350.95,387.1 2349.85,386.15 2349.75,386.35 2348.9,387.25 2347.65,387.85 2346.2,388.5 2345.2,388.3 M2342.6,332.3 Q2369.65,358.15 2369.95,383.1 L2370.6,383.1 M2228,340.2 Q2223.55,352.1 2219.9,364.4 2216.25,376.65 2213.2,389.1 2211.25,397 2208.85,404.8 2205,417.25 2204.05,430.2 2203.85,433.25 2204.05,436.2 2204.8,449.05 2202.75,461.95 2202.1,466.25 2200.2,470.15 2198.8,473 2197.45,475.8 2195.7,473.45 2195.2,470.35 2191.25,445.95 2193.1,421.5 2193.4,417.6 2194.1,413.7 2195.3,407.25 2196.35,400.8 2197.35,394.85 2199.55,389.2 2204.1,377.45 2208.95,365.9 2215.35,350.85 2228,340.2Z M2214.95,400.7 Q2217.55,403.15 2220.6,403.75 2221.5,403.95 2224.8,403.95 2226.65,403.95 2227.5,402.35 2228.35,400.7 2231.3,400.7 2233.25,400.7 2237.55,401.1 2241.4,401.35 2243.65,400.7 2249.2,399.15 2254.25,398.8 2255.6,398.7 2259.9,398.7" test="Parrot"/>
      <path id="Layer2_0_4_STROKES" stroke="#0F0" stroke-width="2" stroke-linejoin="round" stroke-linecap="round" fill="none" d="M2374.35,409.7 Q2375.15,408.45 2375.15,406.25 2375.15,404.7 2373,395.1 2370.75,385.35 2369.95,383.75" test="Parrot"/>
      <path id="Layer2_0_5_STROKES" stroke="#FF0" stroke-width="2" stroke-linejoin="round" stroke-linecap="round" fill="none" d="M2371.25,442.95 L2377.1,442.95 Q2376.8,441.55 2377.85,437.75 2379.05,433.6 2379.05,432.55 2379.05,426.25 2377.15,418.2 2375.55,411.4 2374.35,409.7 M2235.25,277.6 Q2224.75,282.95 2223.65,292.65 2223.15,297.1 2222.85,301.65 2238.4,304.3 2244.5,299.95 2246.55,293.05 2243.45,287.8 2240.3,282.5 2238.8,281.05 2237.3,279.55 2235.25,277.6Z M2228.7,302.95 Q2226.65,313.35 2237.55,314.05 2239.55,313.9 2241.2,313.1 2245.2,310.2 2243.65,301.55 M2207.8,457.35 Q2210.55,459.7 2211.7,461.05 2212,461.25 2215.25,461.25 2217.85,461.25 2226.45,458 2233.4,455.4 2235.45,454.9 2235.7,454.8 2235.85,454.8 2235.9,455.75 2240.45,456 2241.4,456.05 2246.25,456.05 2248.15,456.05 2252.1,455.1 2256.05,454.1 2257.6,454.1 2260,454.1 2260.2,454.05 2261.45,453.65 2261.85,451.4 2269.65,453.2 2267.7,452.7 M2235.45,454.9 Q2235.2,455 2235.4,455.35 2235.85,456.05 2235.85,454.8 M2221.45,501.65 Q2217.5,504.7 2216.6,507.2 2216.25,508.25 2216.25,512.35 2216.25,517.75 2219.4,519.5 2221.8,520.8 2231.3,521.8 2231.3,520.2 2231,518.85 2233,519.6 2235.85,520.5 L2239.1,520.5 Q2237.8,518.8 2236.75,517.4 2239,518.2 2241.05,519.2 L2245.6,519.2 2245.6,515.95 Q2242,512.75 2240.85,507.05 2240.25,501.5 2239.75,500.35 2239.1,500.35 2237.8,499.7 M2253.4,502.3 Q2252.55,512.5 2254.3,515.5 2255.8,518.1 2261.85,518.55 L2261.85,514.65 Q2261.3,513.55 2260.75,510.65 2260.9,510.85 2261,511.1 2263.85,516.85 2269,517.9 L2269,512.75 Q2269.65,513.8 2270.45,514.8 2273.05,517.9 2276.15,518.55 L2276.85,518.55 Q2277.2,516.45 2276.1,512.7 2274.85,508.55 2274.85,506.85 2274.85,503.4 2277.5,501.65 M2289.85,507.5 Q2289.05,520.3 2298.3,543.9 2302.25,554 2306.15,560.45 2310.35,567.35 2312.95,567.35 2316.65,567.35 2317.55,566.95 2320.6,565.6 2321.05,560.2 2323.4,561.35 2329.5,562.15 2334.85,562.15 2336.6,556.65 2337.7,553.25 2337.9,552.85 2338.85,551.1 2340.65,551.1 2341.35,551.1 2348.45,553.7 2349.55,553.7 2351.4,550.45 2353.4,546.95 2354.95,546.55 2358.65,545.5 2363.85,544.75 2367.55,543.8 2369.3,540.05 2370.35,540.05 2372.15,540.4 2373.95,540.7 2374.5,540.7 L2374.5,519.2 Q2371.9,510.3 2369.15,498.15 2367.05,488.95 2365.4,484.75" test="Parrot"/>
      <path id="Layer2_0_6_STROKES" stroke="#F0F" stroke-width="2" stroke-linejoin="round" stroke-linecap="round" fill="none" d="M2197.45,475.8 L2198.45,484.9 Q2200.05,494.75 2203.3,498.4 2204.95,500.25 2205.9,502.55 2206.45,503.8 2207.05,505.7 2207.55,507.05 2208.4,507.2 2209.45,507.35 2211.75,506.2 2214.8,504.7 2217.35,501.75 2219.1,499.7 2221.5,499.7 2223.8,499.7 2229.6,500.6 2234.75,501.05 2237.15,499.05 2239.5,497.1 2244.25,498.25 2246.95,498.9 2252.8,500.35 2255.75,500.7 2260.1,501.55 2263.6,501.95 2266.45,500.35 2269.4,498.7 2272.4,498.8 2274.3,498.9 2278.85,499.7 2281.45,500.05 2284.3,501.1 2286.1,501.45 2287.3,499.05 M2370.6,484.75 Q2372.95,472.75 2374.3,464.45 2375.4,457.95 2377.1,445.55 M2332.2,629.9 Q2335,638 2335.75,639.2 2336.85,640.95 2339.65,640.95 2340.7,640.95 2341,640.85 2342.4,640.2 2343.9,637.7 2362.6,656.55 2363.8,656.55 2371.3,656.55 2374.5,643.6 2376.45,635.8 2376.45,626.35 2376.45,620.4 2375.15,614.75 2374.3,611.05 2372.55,606.45" test="Parrot"/>
      <path id="Layer2_0_7_STROKES" stroke="#F60" stroke-width="2" stroke-linejoin="round" stroke-linecap="round" fill="none" d="M2314.55,571.9 Q2314.05,571.1 2313.5,570.3 2312.35,568.65 2311.95,568.65 L2311.95,571.9 Q2313.2,579.5 2321.55,601.95 2331.4,628.6 2336.4,628.6 2338.55,628.6 2343.45,624.4 2348,620.15 2348.1,620.15 2348.95,620.15 2351.35,620.8 2353.8,621.45 2354.6,621.45 2357.05,621.45 2359.45,616.55 2361.1,613.15 2361.5,611 2367.15,611 2370,608.1 2372.85,605.15 2375.8,605.15 2375.8,602.9 2376.15,597.9 2376.45,592.9 2376.45,592.4 2376.45,587.85 2373.55,577.75 2370.25,566.35 2369.95,564.1 2369.45,560.6 2369.65,554.55 2369.95,548.2 2369.95,545.9 L2369.3,545.9" test="Parrot"/>
    </g>
    <g id="JuryBoxFront">
      <path fill="#000" stroke="none" d="M535.35,514.35 L513.05,488.3 511.2,617.25 Q519.378,617.251 530.85,617.25 L535.35,514.35 M3477.4,500.95 L3476.05,500.95 3458.2,518.5 3458.2,613 Q3468.684,613.017 3477.4,613 L3477.4,500.95 M3305.95,512.95 Q3231.45,514.65 3157.1,518.9 3081.65,522.55 3006.15,523 2928.75,523.45 2851.35,523.35 2775.85,523.25 2700.35,523 2620.55,522.75 2540.75,521.8 2462.05,520.9 2383.4,519.6 2305.3,518.35 2227.2,520.35 2149.9,522.3 2072.55,526.5 1997.3,529.75 1921.9,528.6 1842.5,527.35 1763.15,522.45 1689.2,517.5 1614.95,516.45 1541.05,515.45 1467.1,516.1 1387.75,516.8 1308.4,518 1228.75,519.25 1149.15,520.45 1070.1,521.65 990.95,522.95 913.95,524.25 836.9,524.85 760.15,525.45 683.2,523.95 609.05,522.5 535.35,514.35 L530.85,617.25 Q736.808,617.16 2005.65,615.15 3213.523,613.195 3458.2,613 L3458.2,518.5 Q3382.25,511.25 3305.95,512.95 M3138.25,502.85 Q3133.044,503.094 3127.85,503.3 3051.9,505.8 2975.95,505.8 2952.936,505.8 2929.9,505.8 2874.371,505.815 2818.8,505.85 2810.562,505.856 2802.3,505.85 2731.007,505.781 2659.65,504.75 2636.775,504.422 2613.9,503.75 2591.018,503.598 2568.1,503.4 2550.952,503.302 2533.75,503.15 2516.586,502.697 2499.4,502.45 2419.7,501.35 2339.95,500.55 2277.913,499.94 2215.9,502.65 2206.806,503.077 2197.7,503.55 2122.65,507 2047.75,510.95 L1887.7,511.75 Q1807.4,507.9 1727.2,502.95 1654.55,497.9 1581.45,497.2 1502.4,496.4 1423.45,497.5 1346.35,498.6 1269.15,500.15 1196.5,501.65 1123.8,503.2 1049.9,504.75 975.9,505.95 897.95,507.2 819.8,506.2 744.1,505.25 668.5,500.25 590.7,495.6 513.05,488.3 L535.35,514.35 Q609.05,522.5 683.2,523.95 760.15,525.45 836.9,524.85 913.95,524.25 990.95,522.95 1070.1,521.65 1149.15,520.45 1228.75,519.25 1308.4,518 1387.75,516.8 1467.1,516.1 1541.05,515.45 1614.95,516.45 1689.2,517.5 1763.15,522.45 1842.5,527.35 1921.9,528.6 1997.3,529.75 2072.55,526.5 2149.9,522.3 2227.2,520.35 2305.3,518.35 2383.4,519.6 2462.05,520.9 2540.75,521.8 2620.55,522.75 2700.35,523 2775.85,523.25 2851.35,523.35 2928.75,523.45 3006.15,523 3081.65,522.55 3157.1,518.9 3231.45,514.65 3305.95,512.95 3382.25,511.25 3458.2,518.5 L3476.05,500.95 3476.1,500.15 Q3457.712,498.494 3439.3,496.85 3425.202,495.536 3411.1,494.6 3351.135,490.798 3290.95,494.4 3214.681,499.691 3138.25,502.85Z" test="JuryBoxFront"/>
      <path id="Layer1_0_1_STROKES" stroke="#F60" stroke-width="2" stroke-linejoin="round" stroke-linecap="round" fill="none" d="M3476.125,500.175 Q3457.712,498.494 3439.3,496.85 3425.202,495.536 3411.1,494.625 3351.135,490.798 3290.95,494.4 3214.681,499.691 3138.25,502.875 3133.044,503.094 3127.85,503.3 3051.9,505.8 2975.95,505.8 2952.936,505.8 2929.925,505.8 2874.371,505.815 2818.8,505.85 2810.562,505.856 2802.325,505.85 2731.007,505.781 2659.65,504.75 2636.775,504.422 2613.9,503.775 2591.018,503.598 2568.125,503.425 2550.952,503.302 2533.775,503.175 2516.586,502.697 2499.4,502.45 2419.7,501.35 2339.95,500.55 2277.913,499.94 2215.925,502.675 2206.806,503.077 2197.7,503.55 2122.65,507 2047.75,510.95 L1887.7,511.75 Q1807.4,507.9 1727.2,502.95 1654.55,497.9 1581.45,497.2 1502.4,496.4 1423.45,497.5 1346.35,498.6 1269.15,500.15 1196.5,501.65 1123.8,503.2 1049.9,504.75 975.9,505.95 897.95,507.2 819.8,506.2 744.1,505.25 668.5,500.25 590.7,495.6 513.05,488.3 L535.35,514.35 Q609.05,522.5 683.2,523.95 760.15,525.45 836.9,524.85 913.95,524.25 990.95,522.95 1070.1,521.65 1149.15,520.45 1228.75,519.25 1308.4,518 1387.75,516.8 1467.1,516.1 1541.05,515.45 1614.95,516.45 1689.2,517.5 1763.15,522.45 1842.5,527.35 1921.9,528.6 1997.3,529.75 2072.55,526.5 2149.9,522.3 2227.2,520.35 2305.3,518.35 2383.4,519.6 2462.05,520.9 2540.75,521.8 2620.55,522.75 2700.35,523 2775.85,523.25 2851.35,523.35 2928.75,523.45 3006.15,523 3081.65,522.55 3157.1,518.9 3231.45,514.65 3305.95,512.95 3382.25,511.25 3458.2,518.5 L3476.05,500.95 M3476.125,500.175 Q3476.762,500.242 3477.4,500.3 L3477.4,500.95 3477.4,613 3477.4,624.2 M3458.2,624.2 L3458.2,613.025 M530.85,617.25 L530.55,624.2 M3458.2,613.025 L3458.2,518.5 M511.1,624.2 L511.2,617.25 513.05,488.3 M535.35,514.35 L530.85,617.25" test="JuryBoxFront"/>
    </g>
  </g>
</svg>