<?xml version="1.0" encoding="utf-8"?>
<svg id="EdithAnim12" image-rendering="inherit" baseProfile="basic" version="1.1" x="0px" y="0px" width="800" height="600" xmlns="http://www.w3.org/2000/svg" xmlns:xlink="http://www.w3.org/1999/xlink">
  <g id="14_JurorParrotf60r1" overflow="visible">
    <g id="JurorsBack">
      <path fill="#000" stroke="none" d="M-181.88,132.23 Q-183.88,132.91 -185.8,133.75 -203.2,140.63 -214.96,155.11 -227.32,170.31 -226.48,189.95 -225.68,209.15 -215.68,225.63 -210.48,234.23 -194.32,242.19 -186,246.27 -179.24,248.03 -173,249.63 -168.08,249.23 -165.4,249.03 -162.12,247.71 -153.84,244.39 -141.68,234.15 -134.76,228.31 -129.64,222.59 -124.44,216.79 -123.52,213.79 -119.88,202.15 -120.2,189.91 -120.76,170.31 -131.96,154.47 -137.04,147.35 -144.68,142.79 -161.52,132.71 -181.28,134.11 L-181.88,132.23 M-197.88,181.95 L-201.84,184.87 -197.88,181.95 M-161.24,172.99 L-165.24,175.91 -161.24,172.99 M-165.8,226.87 Q-166.92,226.67 -168.04,226.51 -166.92,226.67 -165.8,226.87 -154.28,228.47 -148.2,218.51 -154.28,228.47 -165.8,226.87 M-401.64,138.11 Q-410.2,140.31 -417.6,145.15 -424.88,149.87 -431.16,156.07 -437.56,162.47 -441.64,170.63 -445.76,178.99 -446.76,188.15 -447.76,197.27 -445.68,206.15 -443.6,215.23 -439.04,223.23 -434.48,231.19 -427.96,237.63 -421.2,244.27 -412.76,248.51 -408.12,250.91 -403.12,252.23 -399.32,253.19 -395.32,253.55 -392.84,253.47 -390.36,253.19 -383.56,252.39 -377,250.19 -368,247.19 -360.44,241.35 -352.92,235.47 -348.28,226.95 -344,219.07 -341.88,210.43 -339.76,201.79 -340.52,192.87 -341.32,183.51 -345.48,174.95 -349.44,166.75 -355.4,159.91 -361.2,153.27 -367.84,147.43 -374.96,141.27 -384.08,138.47 -392.76,135.71 -401.64,138.11 M-376.28,177.23 Q-374.24,178.55 -374.24,180.39 -374.24,178.55 -376.28,177.23 -378.36,175.91 -381.28,175.91 -378.36,175.91 -376.28,177.23 M-407.48,174.75 Q-405.6,175.87 -405.6,177.47 -405.6,175.87 -407.48,174.75 -409.36,173.63 -412,173.63 -409.36,173.63 -407.48,174.75 M-414.04,230.99 Q-414.16,231.11 -414.16,231.35 -414.16,231.11 -414.04,230.99 -410.6,227.79 -407.52,230.99 -410.6,227.79 -414.04,230.99 M-625.64,141.71 L-625.36,142.43 -620.52,141.07 -625.36,142.43 Q-631.88,144.91 -637.6,148.95 -644.12,153.63 -648.72,160.19 -652.84,166.03 -655.36,172.83 -657.76,179.43 -658.48,186.43 -659.24,193.59 -658.2,200.59 -657.08,208.03 -653.8,214.83 -650.68,221.39 -645.36,226.43 -640,231.51 -633.36,234.99 -629,237.31 -624.24,238.51 -621.4,239.19 -618.4,239.51 -611.56,240.51 -604.72,239.07 -604.16,238.95 -603.56,238.83 -597.04,237.27 -591,234.19 -584.56,230.79 -579.32,225.83 -574.04,220.75 -570.28,214.23 -566.68,208.11 -564.96,201.19 -563.24,194.35 -563.72,187.35 -564.24,180.03 -566.4,173.11 -568.52,166.31 -572.36,160.43 -576.2,154.51 -581.36,149.43 -586.84,144.11 -593.72,140.95 -600.76,137.71 -608.68,137.51 -615.4,138.19 -622.04,140.27 -623.64,140.75 -625.28,141.11 L-625.64,141.71 M-612.52,174.03 L-607.08,174.67 -612.52,174.03 M-608.08,221.91 Q-606.12,220.51 -606.12,218.51 -606.12,220.51 -608.08,221.91 -610.04,223.31 -612.84,223.31 -610.04,223.31 -608.08,221.91 M-632.36,179.91 L-637.8,179.27 -632.36,179.91 M231.88,135.83 Q223.48,137.71 215.84,141.95 207.56,146.59 201.6,153.99 196,160.95 193.56,169.51 191,178.31 190.6,187.55 190.2,196.55 191.36,205.51 192.48,214.39 197.48,221.83 202.64,229.51 210.16,234.75 217.44,239.87 225.76,243.03 234.6,246.31 244.04,246.75 253.04,247.51 261.44,244.11 270.24,240.63 276.56,233.43 282.92,226.23 286.88,217.67 290.84,209.07 292.48,199.63 294.04,190.63 292.92,181.51 291.76,171.99 287.48,163.31 283.24,154.83 276.28,148.47 270.36,143.03 263.52,138.79 257,134.71 249.68,132.23 L249.08,134.11 Q240.36,134.07 231.88,135.83 M256.76,177.47 L260.6,180.39 256.76,177.47 M225.08,180.39 L228.92,183.31 225.08,180.39 M225,221.67 Q225.68,221.51 226.36,221.39 225.68,221.51 225,221.67 219.76,223.15 217.08,218.51 219.76,223.15 225,221.67 M8.2,166.55 Q4.24,174.47 2.72,183.07 1.16,191.79 2.44,200.51 3.8,209.87 8.48,217.91 13.12,225.87 20.44,231.35 28.04,236.95 37.08,239.23 38.76,239.63 40.4,239.91 46.28,240.83 52.2,240.03 53.88,239.75 55.56,239.39 64.64,237.43 72.52,232.79 80.64,228.15 86.36,220.91 92.12,213.63 94.8,204.75 97.4,196.27 96.72,187.31 96.04,178.59 92.84,170.55 89.36,161.95 83.56,154.71 77.92,147.71 70.04,143.31 62.28,138.99 53.32,139.07 44,139.15 34.92,141.07 L34.56,141.71 34.84,142.43 39.68,141.07 34.84,142.43 Q26.72,146.03 19.8,151.83 12.44,158.03 8.2,166.55 M27.84,179.91 L22.4,179.27 27.84,179.91 M47.68,174.03 L53.12,174.67 47.68,174.03 M47.36,223.31 Q50.16,223.31 52.12,221.91 54.08,220.51 54.08,218.51 54.08,220.51 52.12,221.91 50.16,223.31 47.36,223.31Z" test="JurorsBack" vector-effect="non-scaling-stroke" stroke-width="1"/>
      <path id="Layer3_0_1_STROKES" stroke="#FFF" stroke-width="1.6" stroke-linejoin="round" stroke-linecap="round" fill="none" d="M34.84,142.43 Q26.72,146.03 19.8,151.83 12.44,158.03 8.2,166.55 4.24,174.47 2.72,183.07 1.16,191.79 2.44,200.51 3.8,209.87 8.48,217.91 13.12,225.87 20.44,231.35 28.04,236.95 37.08,239.23 38.76,239.63 40.4,239.91 46.28,240.83 52.2,240.03 53.88,239.75 55.56,239.39 64.64,237.43 72.52,232.79 80.64,228.15 86.36,220.91 92.12,213.63 94.8,204.75 97.4,196.27 96.72,187.31 96.04,178.59 92.84,170.55 89.36,161.95 83.56,154.71 77.92,147.71 70.04,143.31 62.28,138.99 53.32,139.07 44,139.15 34.92,141.07 L34.56,141.71 M39.68,141.07 L34.84,142.43 M27.84,179.91 L22.4,179.27 M47.68,174.03 L53.12,174.67 M47.36,223.31 Q50.16,223.31 52.12,221.91 54.08,220.51 54.08,218.51 M249.08,134.11 Q240.36,134.07 231.88,135.83 223.48,137.71 215.84,141.95 207.56,146.59 201.6,153.99 196,160.95 193.56,169.51 191,178.31 190.6,187.55 190.2,196.55 191.36,205.51 192.48,214.39 197.48,221.83 202.64,229.51 210.16,234.75 217.44,239.87 225.76,243.03 234.6,246.31 244.04,246.75 253.04,247.51 261.44,244.11 270.24,240.63 276.56,233.43 282.92,226.23 286.88,217.67 290.84,209.07 292.48,199.63 294.04,190.63 292.92,181.51 291.76,171.99 287.48,163.31 283.24,154.83 276.28,148.47 270.36,143.03 263.52,138.79 257,134.71 249.68,132.23 L241.08,130.75 M256.76,177.47 L260.6,180.39 M225.08,180.39 L228.92,183.31 M217.08,218.51 Q219.76,223.15 225,221.67 225.68,221.51 226.36,221.39 M246.72,251.67 Q247.52,252.67 248.36,253.71 271.52,283.03 283.04,319.99 290.04,342.51 297.08,364.91 M186.68,366.63 Q191.08,322.87 213.04,285.87 223.88,267.55 238.52,253.71 239.6,252.67 240.68,251.67 M0.2,372.11 Q4.68,345.03 12.24,319.07 15.52,307.79 18.64,296.39 25.52,271.27 35.68,248.95 37.04,245.99 38.52,243.23 M54.2,243.23 Q63.04,257.83 69.32,275.31 78.24,300.15 86.16,325.91 91.44,343.03 96.64,360.23 M-620.52,141.07 L-625.36,142.43 Q-631.88,144.91 -637.6,148.95 -644.12,153.63 -648.72,160.19 -652.84,166.03 -655.36,172.83 -657.76,179.43 -658.48,186.43 -659.24,193.59 -658.2,200.59 -657.08,208.03 -653.8,214.83 -650.68,221.39 -645.36,226.43 -640,231.51 -633.36,234.99 -629,237.31 -624.24,238.51 -621.4,239.19 -618.4,239.51 -611.56,240.51 -604.72,239.07 -604.16,238.95 -603.56,238.83 -597.04,237.27 -591,234.19 -584.56,230.79 -579.32,225.83 -574.04,220.75 -570.28,214.23 -566.68,208.11 -564.96,201.19 -563.24,194.35 -563.72,187.35 -564.24,180.03 -566.4,173.11 -568.52,166.31 -572.36,160.43 -576.2,154.51 -581.36,149.43 -586.84,144.11 -593.72,140.95 -600.76,137.71 -608.68,137.51 -615.4,138.19 -622.04,140.27 -623.64,140.75 -625.28,141.11 L-625.64,141.71 M-612.52,174.03 L-607.08,174.67 M-612.84,223.31 Q-610.04,223.31 -608.08,221.91 -606.12,220.51 -606.12,218.51 M-395.32,253.55 Q-392.84,253.47 -390.36,253.19 -383.56,252.39 -377,250.19 -368,247.19 -360.44,241.35 -352.92,235.47 -348.28,226.95 -344,219.07 -341.88,210.43 -339.76,201.79 -340.52,192.87 -341.32,183.51 -345.48,174.95 -349.44,166.75 -355.4,159.91 -361.2,153.27 -367.84,147.43 -374.96,141.27 -384.08,138.47 -392.76,135.71 -401.64,138.11 -410.2,140.31 -417.6,145.15 -424.88,149.87 -431.16,156.07 -437.56,162.47 -441.64,170.63 -445.76,178.99 -446.76,188.15 -447.76,197.27 -445.68,206.15 -443.6,215.23 -439.04,223.23 -434.48,231.19 -427.96,237.63 -421.2,244.27 -412.76,248.51 -408.12,250.91 -403.12,252.23 -399.32,253.19 -395.32,253.55Z M-381.28,175.91 Q-378.36,175.91 -376.28,177.23 -374.24,178.55 -374.24,180.39 M-412,173.63 Q-409.36,173.63 -407.48,174.75 -405.6,175.87 -405.6,177.47 M-181.28,134.11 Q-161.52,132.71 -144.68,142.79 -137.04,147.35 -131.96,154.47 -120.76,170.31 -120.2,189.91 -119.88,202.15 -123.52,213.79 -124.44,216.79 -129.64,222.59 -134.76,228.31 -141.68,234.15 -153.84,244.39 -162.12,247.71 -165.4,249.03 -168.08,249.23 -173,249.63 -179.24,248.03 -186,246.27 -194.32,242.19 -210.48,234.23 -215.68,225.63 -225.68,209.15 -226.48,189.95 -227.32,170.31 -214.96,155.11 -203.2,140.63 -185.8,133.75 -183.88,132.91 -181.88,132.23 M-197.88,181.95 L-201.84,184.87 M-161.24,172.99 L-165.24,175.91 M-148.2,218.51 Q-154.28,228.47 -165.8,226.87 -166.92,226.67 -168.04,226.51 M-632.36,179.91 L-637.8,179.27 M-659.28,346.87 Q-658.32,341.07 -656.72,335.35 -650.72,313.71 -644.68,291.99 -638.16,268.67 -628.6,247.31 -627.96,245.87 -625.92,241.83 M-122,355.27 Q-125.12,328.99 -134.72,305.55 -144.12,282.47 -154.48,259.91 -156.52,255.51 -159,251.83 M-181.04,251.83 Q-183.92,258.59 -185.4,266.31 -187.28,276.07 -189.68,285.55 -195.32,307.75 -199.72,330.43 -202.12,342.95 -204.48,355.27 M-387.96,256.75 Q-383.44,263.67 -379.68,271.31 -370.52,289.99 -362.08,308.87 -354.56,325.71 -349.72,343.95 M-407.52,230.99 Q-410.6,227.79 -414.04,230.99 -414.16,231.11 -414.16,231.35 M-445.04,343.95 Q-443.08,337.71 -440.56,331.67 -431.44,310.11 -422.16,288.47 -415.36,272.55 -406.76,258.15 -406.36,257.43 -405.92,256.75 M-602.16,242.23 Q-594.68,253.07 -590.88,262.71 -582,285.23 -574.08,308.63 -568.8,324.11 -563.56,339.67" test="JurorsBack"/>
    </g>
    <g id="Tween-1">
      <g id="JurorsFront">
        <path fill="#000" stroke="none" d="M-323.324,275.215 Q-330.053,275.896 -336.701,277.979 -338.303,278.459 -339.945,278.82 L-340.305,279.42 -340.065,280.101 -335.179,278.78 -340.065,280.101 Q-346.553,282.624 -352.28,286.669 -358.808,291.355 -363.414,297.924 -367.539,303.771 -370.063,310.579 -372.466,317.188 -373.186,324.196 -373.947,331.365 -372.906,338.374 -371.785,345.823 -368.501,352.632 -365.377,359.2 -360.05,364.246 -354.683,369.333 -348.035,372.817 -343.665,375.139 -338.944,376.301 -336.056,377.041 -333.056,377.343 -326.208,378.344 -319.359,376.902 -318.79,376.781 -318.238,376.622 -311.668,375.113 -305.622,372.016 -299.174,368.612 -293.927,363.646 -288.641,358.559 -284.876,352.031 -281.272,345.903 -279.55,338.975 -277.827,332.126 -278.308,325.117 -278.829,317.788 -280.991,310.86 -283.114,304.051 -286.959,298.164 -290.804,292.236 -295.97,287.15 -301.457,281.823 -308.345,278.659 -315.394,275.415 -323.324,275.215 M-347.034,317.668 L-352.481,317.027 -347.034,317.668 M-327.169,311.781 L-321.722,312.422 -327.169,311.781 M-327.489,361.122 Q-324.686,361.122 -322.723,359.721 -320.761,358.319 -320.761,356.316 -320.761,358.319 -322.723,359.721 -324.686,361.122 -327.489,361.122 M-546.363,260.917 L-546.963,262.84 Q-584.891,260.757 -599.909,295.16 -608.4,314.664 -603.674,335.33 -597.386,362.885 -569.792,372.817 -565.187,374.409 -560.06,375.621 -557.734,376.159 -555.334,376.622 -554.326,376.808 -552.811,376.862 -551.318,376.854 -549.406,376.622 -548.074,376.465 -546.803,376.261 -515.781,371.234 -505.712,337.573 -495.219,302.489 -521.131,276.377 -531.865,265.643 -546.363,260.917 M-539.274,306.254 L-535.429,309.178 -539.274,306.254 M-570.993,309.178 L-567.149,312.101 -570.993,309.178 M-571.073,350.509 Q-570.393,350.349 -569.712,350.229 -570.393,350.349 -571.073,350.509 -576.36,351.991 -579.003,347.345 -576.36,351.991 -571.073,350.509 M-722.222,356.917 Q-717.016,337.453 -725.506,319.31 -732.235,304.932 -742.848,293.158 -753.461,281.423 -769.041,279.701 -789.947,279.941 -769.161,280.021 -788.505,282.544 -804.245,293.959 -821.186,306.214 -825.231,326.599 -829.236,346.825 -820.985,365.528 -813.296,383.07 -797.436,393.883 -790.318,398.687 -782.177,399.931 -779.313,400.371 -776.33,400.371 -773.938,400.691 -771.644,400.772 -754.79,401.351 -741.767,389.278 -727.309,375.941 -722.222,356.917 M-777.611,327 Q-775.729,328.121 -775.729,329.723 -775.729,328.121 -777.611,327 -779.494,325.878 -782.137,325.878 -779.494,325.878 -777.611,327 M-755.384,327.841 Q-753.301,329.162 -753.301,331.005 -753.301,329.162 -755.384,327.841 -757.426,326.519 -760.35,326.519 -757.426,326.519 -755.384,327.841 M-803.924,361.763 L-784.7,368.171 -803.924,361.763 M172.695,271.811 L172.094,269.888 Q170.092,270.609 168.169,271.45 150.748,278.339 138.973,292.837 126.598,308.056 127.439,327.721 128.24,346.945 138.252,363.445 143.459,372.056 159.639,380.026 167.958,384.102 174.698,385.833 180.983,387.459 185.912,387.075 188.594,386.859 191.879,385.553 200.184,382.243 212.345,371.976 219.273,366.129 224.4,360.402 229.606,354.594 230.527,351.59 234.172,339.936 233.851,327.681 233.291,308.056 222.077,292.196 216.99,285.067 209.341,280.502 192.48,270.409 172.695,271.811 M156.074,319.711 L152.109,322.634 156.074,319.711 M192.76,310.739 L188.755,313.663 192.76,310.739 M188.194,364.687 Q187.073,364.487 185.952,364.326 187.073,364.487 188.194,364.687 199.729,366.289 205.816,356.316 199.729,366.289 188.194,364.687 M-47.38,276.176 Q-56.071,273.413 -64.962,275.816 -73.532,278.019 -80.942,282.865 -88.231,287.591 -94.519,293.798 -100.927,300.206 -105.012,308.377 -109.137,316.747 -110.138,325.918 -111.139,335.05 -109.057,343.941 -106.974,353.032 -102.408,361.042 -97.843,369.012 -91.315,375.46 -84.546,382.109 -76.096,386.354 -71.433,388.753 -66.484,390.039 -62.639,391.052 -58.634,391.4 -56.139,391.304 -53.668,391 -46.874,390.24 -40.291,388.036 -31.28,385.032 -23.71,379.185 -16.181,373.298 -11.535,364.767 -7.25,356.877 -5.127,348.226 -3.004,339.576 -3.765,330.644 -4.566,321.273 -8.731,312.702 -12.696,304.492 -18.664,297.643 -24.471,290.995 -31.119,285.148 -38.248,278.98 -47.38,276.176 M-39.61,314.985 Q-37.527,316.306 -37.527,318.149 -37.527,316.306 -39.61,314.985 -41.653,313.663 -44.576,313.663 -41.653,313.663 -39.61,314.985 M-70.809,312.502 Q-68.927,313.623 -68.927,315.225 -68.927,313.623 -70.809,312.502 -72.691,311.38 -75.335,311.38 -72.691,311.38 -70.809,312.502 M-77.377,368.812 Q-77.497,368.932 -77.497,369.172 -77.497,368.932 -77.377,368.812 -73.933,365.608 -70.849,368.812 -73.933,365.608 -77.377,368.812 M374.026,289.553 Q366.657,295.761 362.412,304.291 358.447,312.221 356.925,320.832 355.363,329.563 356.645,338.294 358.006,347.666 362.692,355.716 367.338,363.686 374.667,369.172 382.277,374.779 391.328,377.062 392.991,377.467 394.652,377.703 400.531,378.659 406.427,377.823 408.134,377.602 409.831,377.222 418.922,375.26 426.812,370.614 434.942,365.968 440.67,358.719 446.437,351.43 449.12,342.539 451.723,334.049 451.043,325.077 450.362,316.347 447.158,308.296 443.673,299.686 437.866,292.437 432.219,285.428 424.329,281.022 416.56,276.697 407.588,276.777 398.257,276.857 389.165,278.78 L388.805,279.42 389.085,280.141 393.931,278.78 389.085,280.141 Q380.955,283.746 374.026,289.553 M401.941,311.781 L407.388,312.422 401.941,311.781 M382.076,317.668 L376.63,317.027 382.076,317.668 M401.621,361.122 Q404.424,361.122 406.387,359.721 408.349,358.319 408.349,356.316 408.349,358.319 406.387,359.721 404.424,361.122 401.621,361.122Z" test="JurorsFront" vector-effect="non-scaling-stroke" stroke-width="1"/>
        <path id="Layer4_0_1_STROKES" stroke="#FFF" stroke-width="1.602" stroke-linejoin="round" stroke-linecap="round" fill="none" d="M389.085,280.141 Q380.955,283.746 374.026,289.553 366.657,295.761 362.412,304.291 358.447,312.221 356.925,320.832 355.363,329.563 356.645,338.294 358.006,347.666 362.692,355.716 367.338,363.686 374.667,369.172 382.277,374.779 391.328,377.062 392.991,377.467 394.652,377.723 400.531,378.659 406.447,377.843 408.134,377.602 409.831,377.222 418.922,375.26 426.812,370.614 434.942,365.968 440.67,358.719 446.437,351.43 449.12,342.539 451.723,334.049 451.043,325.077 450.362,316.347 447.158,308.296 443.673,299.686 437.866,292.437 432.219,285.428 424.329,281.022 416.56,276.697 407.588,276.777 398.257,276.857 389.165,278.78 L388.805,279.42 M393.931,278.78 L389.085,280.141 M401.941,311.781 L407.388,312.422 M382.076,317.668 L376.63,317.027 M-58.634,391.4 Q-56.139,391.304 -53.668,391.02 -46.874,390.24 -40.291,388.036 -31.28,385.032 -23.71,379.185 -16.181,373.298 -11.535,364.767 -7.25,356.877 -5.127,348.226 -3.004,339.576 -3.765,330.644 -4.566,321.273 -8.731,312.702 -12.696,304.492 -18.664,297.643 -24.471,290.995 -31.119,285.148 -38.248,278.98 -47.38,276.176 -56.071,273.413 -64.962,275.816 -73.532,278.019 -80.942,282.865 -88.231,287.591 -94.519,293.798 -100.927,300.206 -105.012,308.377 -109.137,316.747 -110.138,325.918 -111.139,335.05 -109.057,343.941 -106.974,353.032 -102.408,361.042 -97.843,369.012 -91.315,375.46 -84.546,382.109 -76.096,386.354 -71.433,388.753 -66.464,390.059 -62.639,391.052 -58.634,391.4Z M-44.576,313.663 Q-41.653,313.663 -39.59,314.985 -37.527,316.306 -37.527,318.149 M-75.335,311.38 Q-72.691,311.38 -70.809,312.502 -68.927,313.623 -68.927,315.225 M172.695,271.811 Q192.48,270.409 209.341,280.502 216.99,285.067 222.077,292.196 233.291,308.056 233.851,327.681 234.172,339.936 230.527,351.59 229.606,354.594 224.4,360.402 219.273,366.129 212.345,371.976 200.184,382.243 191.879,385.553 188.594,386.859 185.912,387.075 180.983,387.459 174.718,385.853 167.958,384.102 159.639,380.026 143.459,372.056 138.252,363.445 128.24,346.945 127.439,327.721 126.598,308.056 138.973,292.837 150.748,278.339 168.169,271.45 170.092,270.609 172.094,269.909 M156.074,319.711 L152.109,322.634 M192.76,310.739 L188.755,313.663 M205.816,356.316 Q199.729,366.289 188.194,364.687 187.073,364.487 185.952,364.326 M232.049,493.247 Q228.925,466.935 219.313,443.465 209.902,420.356 199.529,397.768 197.487,393.363 195.003,389.678 M172.935,389.678 Q170.065,396.441 168.57,404.176 166.688,413.948 164.285,423.44 158.638,445.668 154.232,468.376 151.829,480.912 149.466,493.247 M-108.416,481.913 Q-106.453,475.665 -103.93,469.618 -94.799,448.031 -85.507,426.364 -78.684,410.41 -70.108,396.006 -69.692,395.303 -69.267,394.604 M-51.265,394.604 Q-46.745,401.552 -42.974,409.182 -33.803,427.886 -25.352,446.789 -17.823,463.65 -12.977,481.913 M-70.849,368.812 Q-73.933,365.608 -77.377,368.812 -77.497,368.932 -77.497,369.172 M401.621,361.122 Q404.424,361.122 406.387,359.721 408.349,358.319 408.349,356.316 M354.402,510.108 Q358.888,482.995 366.457,457.002 369.741,445.708 372.865,434.294 379.754,409.142 389.926,386.794 391.285,383.838 392.77,381.067 M408.469,381.067 Q417.335,395.68 423.608,413.187 432.539,438.058 440.469,463.851 445.756,480.992 450.962,498.214 M-782.137,325.878 Q-779.494,325.878 -777.611,327 -775.729,328.121 -775.729,329.723 M-760.35,326.519 Q-757.426,326.519 -755.364,327.841 -753.301,329.162 -753.301,331.005 M-769.161,280.021 Q-788.505,282.544 -804.245,293.959 -821.186,306.214 -825.231,326.599 -829.236,346.825 -820.985,365.528 -813.296,383.07 -797.436,393.883 -790.318,398.687 -782.177,399.931 -779.313,400.371 -776.33,400.371 -773.938,400.691 -771.624,400.772 -754.79,401.351 -741.767,389.278 -727.309,375.941 -722.222,356.917 -717.016,337.453 -725.506,319.31 -732.235,304.932 -742.848,293.158 -753.461,281.423 -769.021,279.701 M-546.363,260.937 L-554.973,259.476 M-546.963,262.84 Q-584.891,260.757 -599.909,295.16 -608.4,314.664 -603.674,335.33 -597.386,362.885 -569.792,372.817 -565.187,374.409 -560.06,375.621 -557.734,376.159 -555.314,376.622 -554.326,376.808 -552.811,376.862 -551.318,376.854 -549.386,376.622 -548.074,376.465 -546.803,376.261 -515.781,371.234 -505.712,337.573 -495.219,302.489 -521.131,276.377 -531.865,265.643 -546.363,260.937 M-539.274,306.254 L-535.429,309.178 M-570.993,309.178 L-567.149,312.101 M-579.003,347.345 Q-576.36,351.991 -571.073,350.509 -570.393,350.349 -569.712,350.229 M-340.045,280.121 Q-346.553,282.624 -352.28,286.669 -358.808,291.355 -363.414,297.924 -367.539,303.771 -370.063,310.579 -372.466,317.188 -373.186,324.196 -373.947,331.365 -372.906,338.374 -371.785,345.823 -368.501,352.632 -365.377,359.2 -360.05,364.246 -354.683,369.333 -348.035,372.817 -343.665,375.139 -338.924,376.321 -336.056,377.041 -333.056,377.343 -326.208,378.344 -319.359,376.902 -318.79,376.781 -318.218,376.642 -311.668,375.113 -305.622,372.016 -299.174,368.612 -293.927,363.646 -288.641,358.559 -284.876,352.031 -281.272,345.903 -279.55,338.975 -277.827,332.126 -278.308,325.117 -278.829,317.788 -280.991,310.86 -283.114,304.051 -286.959,298.164 -290.804,292.236 -295.97,287.15 -301.457,281.823 -308.345,278.659 -315.394,275.415 -323.324,275.215 -330.053,275.896 -336.701,277.979 -338.303,278.459 -339.945,278.82 L-340.305,279.42 M-335.179,278.78 L-340.045,280.121 M-347.034,317.668 L-352.481,317.027 M-327.169,311.781 L-321.722,312.422 M-825.671,490.924 Q-817.701,471.741 -808.85,452.997 -800.64,435.615 -792.109,418.674 -789.265,413.007 -785.021,405.137 M-327.489,361.122 Q-324.686,361.122 -322.723,359.721 -320.761,358.319 -320.761,356.316 M-316.796,380.066 Q-309.32,390.937 -305.502,400.572 -296.611,423.12 -288.681,446.549 -283.394,462.048 -278.148,477.628 M-373.987,484.837 Q-373.026,479.03 -371.424,473.302 -365.417,451.635 -359.369,429.888 -352.841,406.539 -343.269,385.152 -342.615,383.695 -340.586,379.666 M-544.18,380.226 Q-522.818,412.903 -513.161,446.589 -507.074,467.936 -500.626,488.962 M-609.121,488.962 Q-601.632,444.987 -579.764,407.54 -572.302,394.713 -563.023,380.226 M-769.441,405.137 Q-764.597,414.792 -760.67,422.319 -751.459,439.901 -743.168,457.923 -735.759,473.983 -730.633,490.924 M-803.924,361.763 L-784.7,368.171" test="JurorsFront"/>
      </g>
    </g>
    <g id="Parrot">
      <path id="Layer2_0_1_STROKES" stroke="#FFF" stroke-width="2" stroke-linejoin="round" stroke-linecap="round" fill="none" d="M825.65,249.25 Q829.35,249.7 832.65,252.65 836.65,256.2 835.15,261.85 833.65,267.5 830.85,270.35 828.05,273.15 824.45,273.05 820.8,272.95 818.2,270.85 815.55,268.75 814.9,265.2 814.3,261.8 815.15,258.65 815.95,255.8 817,254.1 818,252.35 820.1,251.25 822.15,250.1 825.65,249.25Z M826.05,261 Q825.55,260.35 824.8,260.25 824,260.15 823.95,260.15 823.65,260.15 823.3,260.45 822.45,261.2 823.15,262.7 823.75,263.95 825.1,263.45 826.05,263.1 826.2,262.4 826.35,261.9 826.35,261.7 826.4,261.3 826.05,261Z M781.3,251.75 Q783.5,251.55 786.45,254.95 789.35,258.25 789.15,262.9 788.95,267.45 786.85,270.25 784.8,273 781.25,272.9 777.65,272.75 774.85,270.5 771.7,268.1 771.85,264.3 772.1,259.1 773.85,256 776.25,251.7 781.3,251.75Z M783.95,262.55 Q783.6,261.95 782.95,261.9 782.2,261.8 782.15,261.8 781.95,261.8 781.6,262.05 780.85,262.75 781.5,264.1 782.05,265.25 783.15,264.75 783.95,264.45 784.1,263.8 784.2,263.4 784.2,263.2 784.3,262.85 783.95,262.55Z" test="Parrot"/>
      <path id="Layer2_0_2_STROKES" stroke="#F00" stroke-width="2" stroke-linejoin="round" stroke-linecap="round" fill="none" d="M847.2,279.65 Q850.2,280.25 850.95,280.35 851.7,280.45 853.2,280.45 855.35,280.45 859.2,278.05 M840.8,305.25 L842.25,305.65 Q843.95,306.05 845.2,306.05 845.95,306.05 848.05,304.65 850,303.35 850.4,302.85 M883.2,328.55 Q874.35,318.95 871.45,306.3 869,295.5 870.5,279.85 871.85,266.05 864.8,253.15 857,238.9 844.25,233.4 831.5,227.85 821.65,226.9 811.8,225.9 802.4,229.35 792.95,232.8 786.05,239.75 779.2,246.6 778.95,248.15 M777.1,317.65 Q776.65,330.7 770.15,341.3 M809.6,306.05 Q811.85,308.55 813.3,311.3 813.5,311.65 816,311.65 817.3,311.65 819.05,311.15 819.4,311.05 822.4,310.05" test="Parrot"/>
      <path id="Layer2_0_3_STROKES" stroke="#0FF" stroke-width="2" stroke-linejoin="round" stroke-linecap="round" fill="none" d="M774.75,334.7 L774.1,338.6 Q775,339.05 776.1,339.15 776.8,339.25 778.3,339.25 782.45,339.25 785.55,335.7 788.7,332.1 791,332.1 791.8,332.1 796.2,332.75 800.55,333.4 801.4,333.4 806.35,333.4 807.35,331.15 808.3,328.85 812.1,328.85 812.95,328.85 816.05,329.5 819.2,330.15 820,330.15 820.55,330.15 822.5,328.2 824.4,326.25 826.8,326.25 827.65,326.25 830.9,326.9 834.15,327.55 834.95,327.55 835.85,327.55 838.35,326.25 839.6,325.6 840.8,324.95 840.95,324.95 843.95,326.25 847.3,327.55 848.9,327.55 850.95,327.55 853.6,326.6 854.9,326.1 856.05,325.6 858.05,325.6 868.1,327.9 876.45,329.8 880.2,330.1 880.95,330.15 881.5,330.15 M810.55,353 Q810,354.85 808.2,371.65 806.45,387.9 805.35,390.75 803.8,394.95 803.25,405.65 802.65,417 804.05,423.95 805.6,431.65 812.85,452.7 820.3,474.3 823.6,479.95 825.15,482.65 829.85,489.95 833.65,495.85 836.6,501.45 840.5,508.85 843.6,511.8 846.75,514.85 851.6,515.8 854.85,516.45 859.9,517.65 863.3,518.05 863.3,515.15 863.3,507.05 871.75,511.25 877.7,514.2 879.75,514.6 883.05,515.25 884.8,512.55 886.1,510.6 887.85,507.25 889.75,504.65 893.9,503.4 896.6,502.6 899,504.4 899.65,504.9 901.1,499.5 902.75,493.4 905.35,486.7 L907.6,481.25 Q908.25,477.35 910.2,468.25 911.9,460.25 911.1,450.15 910.1,437.95 905.65,428.55 905.4,428.05 894.25,406 887.15,391.9 884.8,384.9 883.05,379.65 879.7,372.3 877.35,367.2 877,364.05 M912.65,384.55 Q912.05,384.2 911.15,384.2 911,384.2 903.35,386.8 901.7,385.9 899.7,384.85 899.35,386.75 898,388.2 896.85,389.4 896.1,389.4 894.45,389.4 893.1,388.2 892,387.25 891.9,387.45 891.05,388.35 889.8,388.95 888.35,389.6 887.35,389.4 M884.75,333.4 Q911.8,359.25 912.1,384.2 L912.75,384.2 M770.15,341.3 Q765.7,353.2 762.05,365.5 758.4,377.75 755.35,390.2 753.4,398.1 751,405.9 747.15,418.35 746.2,431.3 746,434.35 746.2,437.3 746.95,450.15 744.9,463.05 744.25,467.35 742.35,471.25 740.95,474.1 739.6,476.9 737.85,474.55 737.35,471.45 733.4,447.05 735.25,422.6 735.55,418.7 736.25,414.8 737.45,408.35 738.5,401.9 739.5,395.95 741.7,390.3 746.25,378.55 751.1,367 757.5,351.95 770.15,341.3Z M757.1,401.8 Q759.7,404.25 762.75,404.85 763.65,405.05 766.95,405.05 768.8,405.05 769.65,403.45 770.5,401.8 773.45,401.8 775.4,401.8 779.7,402.2 783.55,402.45 785.8,401.8 791.35,400.25 796.4,399.9 797.75,399.8 802.05,399.8" test="Parrot"/>
      <path id="Layer2_0_4_STROKES" stroke="#0F0" stroke-width="2" stroke-linejoin="round" stroke-linecap="round" fill="none" d="M916.5,410.8 Q917.3,409.55 917.3,407.35 917.3,405.8 915.15,396.2 912.9,386.45 912.1,384.85" test="Parrot"/>
      <path id="Layer2_0_5_STROKES" stroke="#FF0" stroke-width="2" stroke-linejoin="round" stroke-linecap="round" fill="none" d="M913.4,444.05 L919.25,444.05 Q918.95,442.65 920,438.85 921.2,434.7 921.2,433.65 921.2,427.35 919.3,419.3 917.7,412.5 916.5,410.8 M777.4,278.7 Q766.9,284.05 765.8,293.75 765.3,298.2 765,302.75 780.55,305.4 786.65,301.05 788.7,294.15 785.6,288.9 782.45,283.6 780.95,282.15 779.45,280.65 777.4,278.7Z M770.85,304.05 Q768.8,314.45 779.7,315.15 781.7,315 783.35,314.2 787.35,311.3 785.8,302.65 M749.95,458.45 Q752.7,460.8 753.85,462.15 754.15,462.35 757.4,462.35 760,462.35 768.6,459.1 775.55,456.5 777.6,456 777.85,455.9 778,455.9 778.05,456.85 782.6,457.1 783.55,457.15 788.4,457.15 790.3,457.15 794.25,456.2 798.2,455.2 799.75,455.2 802.15,455.2 802.35,455.15 803.6,454.75 804,452.5 811.8,454.3 809.85,453.8 M777.6,456 Q777.35,456.1 777.55,456.45 778,457.15 778,455.9 M763.6,502.75 Q759.65,505.8 758.75,508.3 758.4,509.35 758.4,513.45 758.4,518.85 761.55,520.6 763.95,521.9 773.45,522.9 773.45,521.3 773.15,519.95 775.15,520.7 778,521.6 L781.25,521.6 Q779.95,519.9 778.9,518.5 781.15,519.3 783.2,520.3 L787.75,520.3 787.75,517.05 Q784.15,513.85 783,508.15 782.4,502.6 781.9,501.45 781.25,501.45 779.95,500.8 M795.55,503.4 Q794.7,513.6 796.45,516.6 797.95,519.2 804,519.65 L804,515.75 Q803.45,514.65 802.9,511.75 803.05,511.95 803.15,512.2 806,517.95 811.15,519 L811.15,513.85 Q811.8,514.9 812.6,515.9 815.2,519 818.3,519.65 L819,519.65 Q819.35,517.55 818.25,513.8 817,509.65 817,507.95 817,504.5 819.65,502.75 M832,508.6 Q831.2,521.4 840.45,545 844.4,555.1 848.3,561.55 852.5,568.45 855.1,568.45 858.8,568.45 859.7,568.05 862.75,566.7 863.2,561.3 865.55,562.45 871.65,563.25 877,563.25 878.75,557.75 879.85,554.35 880.05,553.95 881,552.2 882.8,552.2 883.5,552.2 890.6,554.8 891.7,554.8 893.55,551.55 895.55,548.05 897.1,547.65 900.8,546.6 906,545.85 909.7,544.9 911.45,541.15 912.5,541.15 914.3,541.5 916.1,541.8 916.65,541.8 L916.65,520.3 Q914.05,511.4 911.3,499.25 909.2,490.05 907.55,485.85" test="Parrot"/>
      <path id="Layer2_0_6_STROKES" stroke="#F0F" stroke-width="2" stroke-linejoin="round" stroke-linecap="round" fill="none" d="M739.6,476.9 L740.6,486 Q742.2,495.85 745.45,499.5 747.1,501.35 748.05,503.65 748.6,504.9 749.2,506.8 749.7,508.15 750.55,508.3 751.6,508.45 753.9,507.3 756.95,505.8 759.5,502.85 761.25,500.8 763.65,500.8 765.95,500.8 771.75,501.7 776.9,502.15 779.3,500.15 781.65,498.2 786.4,499.35 789.1,500 794.95,501.45 797.9,501.8 802.25,502.65 805.75,503.05 808.6,501.45 811.55,499.8 814.55,499.9 816.45,500 821,500.8 823.6,501.15 826.45,502.2 828.25,502.55 829.45,500.15 M912.75,485.85 Q915.1,473.85 916.45,465.55 917.55,459.05 919.25,446.65 M874.35,631 Q877.15,639.1 877.9,640.3 879,642.05 881.8,642.05 882.85,642.05 883.15,641.95 884.55,641.3 886.05,638.8 904.75,657.65 905.95,657.65 913.45,657.65 916.65,644.7 918.6,636.9 918.6,627.45 918.6,621.5 917.3,615.85 916.45,612.15 914.7,607.55" test="Parrot"/>
      <path id="Layer2_0_7_STROKES" stroke="#F60" stroke-width="2" stroke-linejoin="round" stroke-linecap="round" fill="none" d="M856.7,573 Q856.2,572.2 855.65,571.4 854.5,569.75 854.1,569.75 L854.1,573 Q855.35,580.6 863.7,603.05 873.55,629.7 878.55,629.7 880.7,629.7 885.6,625.5 890.15,621.25 890.25,621.25 891.1,621.25 893.5,621.9 895.95,622.55 896.75,622.55 899.2,622.55 901.6,617.65 903.25,614.25 903.65,612.1 909.3,612.1 912.15,609.2 915,606.25 917.95,606.25 917.95,604 918.3,599 918.6,594 918.6,593.5 918.6,588.95 915.7,578.85 912.4,567.45 912.1,565.2 911.6,561.7 911.8,555.65 912.1,549.3 912.1,547 L911.45,547" test="Parrot"/>
    </g>
    <g id="JuryBoxFront">
      <path fill="#000" stroke="none" d="M-1498.25,514.35 L-1520.55,488.3 -1522.4,617.25 Q-1514.222,617.251 -1502.75,617.25 L-1498.25,514.35 M1443.8,500.95 L1442.45,500.95 1424.6,518.5 1424.6,613 Q1435.084,613.017 1443.8,613 L1443.8,500.95 M1272.35,512.95 Q1197.85,514.65 1123.5,518.9 1048.05,522.55 972.55,523 895.15,523.45 817.75,523.35 742.25,523.25 666.75,523 586.95,522.75 507.15,521.8 428.45,520.9 349.8,519.6 271.7,518.35 193.6,520.35 116.3,522.3 38.95,526.5 -36.3,529.75 -111.7,528.6 -191.1,527.35 -270.45,522.45 -344.4,517.5 -418.65,516.45 -492.55,515.45 -566.5,516.1 -645.85,516.8 -725.2,518 -804.85,519.25 -884.45,520.45 -963.5,521.65 -1042.65,522.95 -1119.65,524.25 -1196.7,524.85 -1273.45,525.45 -1350.4,523.95 -1424.55,522.5 -1498.25,514.35 L-1502.75,617.25 Q-1296.792,617.16 -27.95,615.15 1179.923,613.195 1424.6,613 L1424.6,518.5 Q1348.65,511.25 1272.35,512.95 M1104.65,502.85 Q1099.444,503.094 1094.25,503.3 1018.3,505.8 942.35,505.8 919.336,505.8 896.3,505.8 840.771,505.815 785.2,505.85 776.962,505.856 768.7,505.85 697.407,505.781 626.05,504.75 603.175,504.422 580.3,503.75 557.418,503.598 534.5,503.4 517.352,503.302 500.15,503.15 482.986,502.697 465.8,502.45 386.1,501.35 306.35,500.55 244.313,499.94 182.3,502.65 173.206,503.077 164.1,503.55 89.05,507 14.15,510.95 L-145.9,511.75 Q-226.2,507.9 -306.4,502.95 -379.05,497.9 -452.15,497.2 -531.2,496.4 -610.15,497.5 -687.25,498.6 -764.45,500.15 -837.1,501.65 -909.8,503.2 -983.7,504.75 -1057.7,505.95 -1135.65,507.2 -1213.8,506.2 -1289.5,505.25 -1365.1,500.25 -1442.9,495.6 -1520.55,488.3 L-1498.25,514.35 Q-1424.55,522.5 -1350.4,523.95 -1273.45,525.45 -1196.7,524.85 -1119.65,524.25 -1042.65,522.95 -963.5,521.65 -884.45,520.45 -804.85,519.25 -725.2,518 -645.85,516.8 -566.5,516.1 -492.55,515.45 -418.65,516.45 -344.4,517.5 -270.45,522.45 -191.1,527.35 -111.7,528.6 -36.3,529.75 38.95,526.5 116.3,522.3 193.6,520.35 271.7,518.35 349.8,519.6 428.45,520.9 507.15,521.8 586.95,522.75 666.75,523 742.25,523.25 817.75,523.35 895.15,523.45 972.55,523 1048.05,522.55 1123.5,518.9 1197.85,514.65 1272.35,512.95 1348.65,511.25 1424.6,518.5 L1442.45,500.95 1442.5,500.15 Q1424.112,498.494 1405.7,496.85 1391.602,495.536 1377.5,494.6 1317.535,490.798 1257.35,494.4 1181.081,499.691 1104.65,502.85Z" test="JuryBoxFront"/>
      <path id="Layer1_0_1_STROKES" stroke="#F60" stroke-width="2" stroke-linejoin="round" stroke-linecap="round" fill="none" d="M1442.525,500.175 Q1424.112,498.494 1405.7,496.85 1391.602,495.536 1377.5,494.625 1317.535,490.798 1257.35,494.4 1181.081,499.691 1104.65,502.875 1099.444,503.094 1094.25,503.3 1018.3,505.8 942.35,505.8 919.336,505.8 896.325,505.8 840.771,505.815 785.2,505.85 776.962,505.856 768.725,505.85 697.407,505.781 626.05,504.75 603.175,504.422 580.3,503.775 557.418,503.598 534.525,503.425 517.352,503.302 500.175,503.175 482.986,502.697 465.8,502.45 386.1,501.35 306.35,500.55 244.313,499.94 182.325,502.675 173.206,503.077 164.1,503.55 89.05,507 14.15,510.95 L-145.9,511.75 Q-226.2,507.9 -306.4,502.95 -379.05,497.9 -452.15,497.2 -531.2,496.4 -610.15,497.5 -687.25,498.6 -764.45,500.15 -837.1,501.65 -909.8,503.2 -983.7,504.75 -1057.7,505.95 -1135.65,507.2 -1213.8,506.2 -1289.5,505.25 -1365.1,500.25 -1442.9,495.6 -1520.55,488.3 L-1498.25,514.35 Q-1424.55,522.5 -1350.4,523.95 -1273.45,525.45 -1196.7,524.85 -1119.65,524.25 -1042.65,522.95 -963.5,521.65 -884.45,520.45 -804.85,519.25 -725.2,518 -645.85,516.8 -566.5,516.1 -492.55,515.45 -418.65,516.45 -344.4,517.5 -270.45,522.45 -191.1,527.35 -111.7,528.6 -36.3,529.75 38.95,526.5 116.3,522.3 193.6,520.35 271.7,518.35 349.8,519.6 428.45,520.9 507.15,521.8 586.95,522.75 666.75,523 742.25,523.25 817.75,523.35 895.15,523.45 972.55,523 1048.05,522.55 1123.5,518.9 1197.85,514.65 1272.35,512.95 1348.65,511.25 1424.6,518.5 L1442.45,500.95 M1442.525,500.175 Q1443.162,500.242 1443.8,500.3 L1443.8,500.95 1443.8,613 1443.8,624.2 M1424.6,624.2 L1424.6,613.025 M-1502.75,617.25 L-1503.05,624.2 M1424.6,613.025 L1424.6,518.5 M-1522.5,624.2 L-1522.4,617.25 -1520.55,488.3 M-1498.25,514.35 L-1502.75,617.25" test="JuryBoxFront"/>
    </g>
  </g>
</svg>