<?xml version="1.0" encoding="utf-8"?>
<svg id="EdithAnim12" image-rendering="inherit" baseProfile="basic" version="1.1" x="0px" y="0px" width="800" height="600" xmlns="http://www.w3.org/2000/svg" xmlns:xlink="http://www.w3.org/1999/xlink">
  <g id="14_JurorParrotf65r1" overflow="visible">
    <g id="JurorsBack">
      <path fill="#000" stroke="none" d="M-271.13,132.23 Q-273.13,132.91 -275.05,133.75 -292.45,140.63 -304.21,155.11 -316.57,170.31 -315.73,189.95 -314.93,209.15 -304.93,225.63 -299.73,234.23 -283.57,242.19 -275.25,246.27 -268.49,248.03 -262.25,249.63 -257.33,249.23 -254.65,249.03 -251.37,247.71 -243.09,244.39 -230.93,234.15 -224.01,228.31 -218.89,222.59 -213.69,216.79 -212.77,213.79 -209.13,202.15 -209.45,189.91 -210.01,170.31 -221.21,154.47 -226.29,147.35 -233.93,142.79 -250.77,132.71 -270.53,134.11 L-271.13,132.23 M-287.13,181.95 L-291.09,184.87 -287.13,181.95 M-250.49,172.99 L-254.49,175.91 -250.49,172.99 M-255.05,226.87 Q-256.17,226.67 -257.29,226.51 -256.17,226.67 -255.05,226.87 -243.53,228.47 -237.45,218.51 -243.53,228.47 -255.05,226.87 M-490.89,138.11 Q-499.45,140.31 -506.85,145.15 -514.13,149.87 -520.41,156.07 -526.81,162.47 -530.89,170.63 -535.01,178.99 -536.01,188.15 -537.01,197.27 -534.93,206.15 -532.85,215.23 -528.29,223.23 -523.73,231.19 -517.21,237.63 -510.45,244.27 -502.01,248.51 -497.37,250.91 -492.37,252.23 -488.57,253.19 -484.57,253.55 -482.09,253.47 -479.61,253.19 -472.81,252.39 -466.25,250.19 -457.25,247.19 -449.69,241.35 -442.17,235.47 -437.53,226.95 -433.25,219.07 -431.13,210.43 -429.01,201.79 -429.77,192.87 -430.57,183.51 -434.73,174.95 -438.69,166.75 -444.65,159.91 -450.45,153.27 -457.09,147.43 -464.21,141.27 -473.33,138.47 -482.01,135.71 -490.89,138.11 M-465.53,177.23 Q-463.49,178.55 -463.49,180.39 -463.49,178.55 -465.53,177.23 -467.61,175.91 -470.53,175.91 -467.61,175.91 -465.53,177.23 M-496.73,174.75 Q-494.85,175.87 -494.85,177.47 -494.85,175.87 -496.73,174.75 -498.61,173.63 -501.25,173.63 -498.61,173.63 -496.73,174.75 M-503.29,230.99 Q-503.41,231.11 -503.41,231.35 -503.41,231.11 -503.29,230.99 -499.85,227.79 -496.77,230.99 -499.85,227.79 -503.29,230.99 M-714.89,141.71 L-714.61,142.43 -709.77,141.07 -714.61,142.43 Q-721.13,144.91 -726.85,148.95 -733.37,153.63 -737.97,160.19 -742.09,166.03 -744.61,172.83 -747.01,179.43 -747.73,186.43 -748.49,193.59 -747.45,200.59 -746.33,208.03 -743.05,214.83 -739.93,221.39 -734.61,226.43 -729.25,231.51 -722.61,234.99 -718.25,237.31 -713.49,238.51 -710.65,239.19 -707.65,239.51 -700.81,240.51 -693.97,239.07 -693.41,238.95 -692.81,238.83 -686.29,237.27 -680.25,234.19 -673.81,230.79 -668.57,225.83 -663.29,220.75 -659.53,214.23 -655.93,208.11 -654.21,201.19 -652.49,194.35 -652.97,187.35 -653.49,180.03 -655.65,173.11 -657.77,166.31 -661.61,160.43 -665.45,154.51 -670.61,149.43 -676.09,144.11 -682.97,140.95 -690.01,137.71 -697.93,137.51 -704.65,138.19 -711.29,140.27 -712.89,140.75 -714.53,141.11 L-714.89,141.71 M-701.77,174.03 L-696.33,174.67 -701.77,174.03 M-697.33,221.91 Q-695.37,220.51 -695.37,218.51 -695.37,220.51 -697.33,221.91 -699.29,223.31 -702.09,223.31 -699.29,223.31 -697.33,221.91 M-721.61,179.91 L-727.05,179.27 -721.61,179.91 M142.63,135.83 Q134.23,137.71 126.59,141.95 118.31,146.59 112.35,153.99 106.75,160.95 104.31,169.51 101.75,178.31 101.35,187.55 100.95,196.55 102.11,205.51 103.23,214.39 108.23,221.83 113.39,229.51 120.91,234.75 128.19,239.87 136.51,243.03 145.35,246.31 154.79,246.75 163.79,247.51 172.19,244.11 180.99,240.63 187.31,233.43 193.67,226.23 197.63,217.67 201.59,209.07 203.23,199.63 204.79,190.63 203.67,181.51 202.51,171.99 198.23,163.31 193.99,154.83 187.03,148.47 181.11,143.03 174.27,138.79 167.75,134.71 160.43,132.23 L159.83,134.11 Q151.11,134.07 142.63,135.83 M167.51,177.47 L171.35,180.39 167.51,177.47 M135.83,180.39 L139.67,183.31 135.83,180.39 M135.75,221.67 Q136.43,221.51 137.11,221.39 136.43,221.51 135.75,221.67 130.51,223.15 127.83,218.51 130.51,223.15 135.75,221.67 M-81.05,166.55 Q-85.01,174.47 -86.53,183.07 -88.09,191.79 -86.81,200.51 -85.45,209.87 -80.77,217.91 -76.13,225.87 -68.81,231.35 -61.21,236.95 -52.17,239.23 -50.49,239.63 -48.85,239.91 -42.97,240.83 -37.05,240.03 -35.37,239.75 -33.69,239.39 -24.61,237.43 -16.73,232.79 -8.61,228.15 -2.89,220.91 2.87,213.63 5.55,204.75 8.15,196.27 7.47,187.31 6.79,178.59 3.59,170.55 .11,161.95 -5.69,154.71 -11.33,147.71 -19.21,143.31 -26.97,138.99 -35.93,139.07 -45.25,139.15 -54.33,141.07 L-54.69,141.71 -54.41,142.43 -49.57,141.07 -54.41,142.43 Q-62.53,146.03 -69.45,151.83 -76.81,158.03 -81.05,166.55 M-61.41,179.91 L-66.85,179.27 -61.41,179.91 M-41.57,174.03 L-36.13,174.67 -41.57,174.03 M-41.89,223.31 Q-39.09,223.31 -37.13,221.91 -35.17,220.51 -35.17,218.51 -35.17,220.51 -37.13,221.91 -39.09,223.31 -41.89,223.31Z" test="JurorsBack" vector-effect="non-scaling-stroke" stroke-width="1"/>
      <path id="Layer3_0_1_STROKES" stroke="#FFF" stroke-width="1.6" stroke-linejoin="round" stroke-linecap="round" fill="none" d="M-54.41,142.43 Q-62.53,146.03 -69.45,151.83 -76.81,158.03 -81.05,166.55 -85.01,174.47 -86.53,183.07 -88.09,191.79 -86.81,200.51 -85.45,209.87 -80.77,217.91 -76.13,225.87 -68.81,231.35 -61.21,236.95 -52.17,239.23 -50.49,239.63 -48.85,239.91 -42.97,240.83 -37.05,240.03 -35.37,239.75 -33.69,239.39 -24.61,237.43 -16.73,232.79 -8.61,228.15 -2.89,220.91 2.87,213.63 5.55,204.75 8.15,196.27 7.47,187.31 6.79,178.59 3.59,170.55 .11,161.95 -5.69,154.71 -11.33,147.71 -19.21,143.31 -26.97,138.99 -35.93,139.07 -45.25,139.15 -54.33,141.07 L-54.69,141.71 M-49.57,141.07 L-54.41,142.43 M-61.41,179.91 L-66.85,179.27 M-41.57,174.03 L-36.13,174.67 M-41.89,223.31 Q-39.09,223.31 -37.13,221.91 -35.17,220.51 -35.17,218.51 M159.83,134.11 Q151.11,134.07 142.63,135.83 134.23,137.71 126.59,141.95 118.31,146.59 112.35,153.99 106.75,160.95 104.31,169.51 101.75,178.31 101.35,187.55 100.95,196.55 102.11,205.51 103.23,214.39 108.23,221.83 113.39,229.51 120.91,234.75 128.19,239.87 136.51,243.03 145.35,246.31 154.79,246.75 163.79,247.51 172.19,244.11 180.99,240.63 187.31,233.43 193.67,226.23 197.63,217.67 201.59,209.07 203.23,199.63 204.79,190.63 203.67,181.51 202.51,171.99 198.23,163.31 193.99,154.83 187.03,148.47 181.11,143.03 174.27,138.79 167.75,134.71 160.43,132.23 L151.83,130.75 M167.51,177.47 L171.35,180.39 M135.83,180.39 L139.67,183.31 M127.83,218.51 Q130.51,223.15 135.75,221.67 136.43,221.51 137.11,221.39 M157.47,251.67 Q158.27,252.67 159.11,253.71 182.27,283.03 193.79,319.99 200.79,342.51 207.83,364.91 M97.43,366.63 Q101.83,322.87 123.79,285.87 134.63,267.55 149.27,253.71 150.35,252.67 151.43,251.67 M-89.05,372.11 Q-84.57,345.03 -77.01,319.07 -73.73,307.79 -70.61,296.39 -63.73,271.27 -53.57,248.95 -52.21,245.99 -50.73,243.23 M-35.05,243.23 Q-26.21,257.83 -19.93,275.31 -11.01,300.15 -3.09,325.91 2.19,343.03 7.39,360.23 M-709.77,141.07 L-714.61,142.43 Q-721.13,144.91 -726.85,148.95 -733.37,153.63 -737.97,160.19 -742.09,166.03 -744.61,172.83 -747.01,179.43 -747.73,186.43 -748.49,193.59 -747.45,200.59 -746.33,208.03 -743.05,214.83 -739.93,221.39 -734.61,226.43 -729.25,231.51 -722.61,234.99 -718.25,237.31 -713.49,238.51 -710.65,239.19 -707.65,239.51 -700.81,240.51 -693.97,239.07 -693.41,238.95 -692.81,238.83 -686.29,237.27 -680.25,234.19 -673.81,230.79 -668.57,225.83 -663.29,220.75 -659.53,214.23 -655.93,208.11 -654.21,201.19 -652.49,194.35 -652.97,187.35 -653.49,180.03 -655.65,173.11 -657.77,166.31 -661.61,160.43 -665.45,154.51 -670.61,149.43 -676.09,144.11 -682.97,140.95 -690.01,137.71 -697.93,137.51 -704.65,138.19 -711.29,140.27 -712.89,140.75 -714.53,141.11 L-714.89,141.71 M-701.77,174.03 L-696.33,174.67 M-702.09,223.31 Q-699.29,223.31 -697.33,221.91 -695.37,220.51 -695.37,218.51 M-484.57,253.55 Q-482.09,253.47 -479.61,253.19 -472.81,252.39 -466.25,250.19 -457.25,247.19 -449.69,241.35 -442.17,235.47 -437.53,226.95 -433.25,219.07 -431.13,210.43 -429.01,201.79 -429.77,192.87 -430.57,183.51 -434.73,174.95 -438.69,166.75 -444.65,159.91 -450.45,153.27 -457.09,147.43 -464.21,141.27 -473.33,138.47 -482.01,135.71 -490.89,138.11 -499.45,140.31 -506.85,145.15 -514.13,149.87 -520.41,156.07 -526.81,162.47 -530.89,170.63 -535.01,178.99 -536.01,188.15 -537.01,197.27 -534.93,206.15 -532.85,215.23 -528.29,223.23 -523.73,231.19 -517.21,237.63 -510.45,244.27 -502.01,248.51 -497.37,250.91 -492.37,252.23 -488.57,253.19 -484.57,253.55Z M-470.53,175.91 Q-467.61,175.91 -465.53,177.23 -463.49,178.55 -463.49,180.39 M-501.25,173.63 Q-498.61,173.63 -496.73,174.75 -494.85,175.87 -494.85,177.47 M-270.53,134.11 Q-250.77,132.71 -233.93,142.79 -226.29,147.35 -221.21,154.47 -210.01,170.31 -209.45,189.91 -209.13,202.15 -212.77,213.79 -213.69,216.79 -218.89,222.59 -224.01,228.31 -230.93,234.15 -243.09,244.39 -251.37,247.71 -254.65,249.03 -257.33,249.23 -262.25,249.63 -268.49,248.03 -275.25,246.27 -283.57,242.19 -299.73,234.23 -304.93,225.63 -314.93,209.15 -315.73,189.95 -316.57,170.31 -304.21,155.11 -292.45,140.63 -275.05,133.75 -273.13,132.91 -271.13,132.23 M-287.13,181.95 L-291.09,184.87 M-250.49,172.99 L-254.49,175.91 M-237.45,218.51 Q-243.53,228.47 -255.05,226.87 -256.17,226.67 -257.29,226.51 M-721.61,179.91 L-727.05,179.27 M-748.53,346.87 Q-747.57,341.07 -745.97,335.35 -739.97,313.71 -733.93,291.99 -727.41,268.67 -717.85,247.31 -717.21,245.87 -715.17,241.83 M-211.25,355.27 Q-214.37,328.99 -223.97,305.55 -233.37,282.47 -243.73,259.91 -245.77,255.51 -248.25,251.83 M-270.29,251.83 Q-273.17,258.59 -274.65,266.31 -276.53,276.07 -278.93,285.55 -284.57,307.75 -288.97,330.43 -291.37,342.95 -293.73,355.27 M-477.21,256.75 Q-472.69,263.67 -468.93,271.31 -459.77,289.99 -451.33,308.87 -443.81,325.71 -438.97,343.95 M-496.77,230.99 Q-499.85,227.79 -503.29,230.99 -503.41,231.11 -503.41,231.35 M-534.29,343.95 Q-532.33,337.71 -529.81,331.67 -520.69,310.11 -511.41,288.47 -504.61,272.55 -496.01,258.15 -495.61,257.43 -495.17,256.75 M-691.41,242.23 Q-683.93,253.07 -680.13,262.71 -671.25,285.23 -663.33,308.63 -658.05,324.11 -652.81,339.67" test="JurorsBack"/>
    </g>
    <g id="Tween-1">
      <g id="JurorsFront">
        <path fill="#000" stroke="none" d="M-417.524,275.215 Q-424.253,275.896 -430.901,277.979 -432.503,278.459 -434.145,278.82 L-434.505,279.42 -434.265,280.101 -429.379,278.78 -434.265,280.101 Q-440.753,282.624 -446.48,286.669 -453.008,291.355 -457.614,297.924 -461.739,303.771 -464.263,310.579 -466.666,317.188 -467.386,324.196 -468.147,331.365 -467.106,338.374 -465.985,345.823 -462.701,352.632 -459.577,359.2 -454.25,364.246 -448.883,369.333 -442.235,372.817 -437.865,375.139 -433.144,376.301 -430.256,377.041 -427.256,377.343 -420.408,378.344 -413.559,376.902 -412.99,376.781 -412.438,376.622 -405.868,375.113 -399.822,372.016 -393.374,368.612 -388.127,363.646 -382.841,358.559 -379.076,352.031 -375.472,345.903 -373.75,338.975 -372.027,332.126 -372.508,325.117 -373.029,317.788 -375.191,310.86 -377.314,304.051 -381.159,298.164 -385.004,292.236 -390.17,287.15 -395.657,281.823 -402.545,278.659 -409.594,275.415 -417.524,275.215 M-441.234,317.668 L-446.681,317.027 -441.234,317.668 M-421.369,311.781 L-415.922,312.422 -421.369,311.781 M-421.689,361.122 Q-418.886,361.122 -416.923,359.721 -414.961,358.319 -414.961,356.316 -414.961,358.319 -416.923,359.721 -418.886,361.122 -421.689,361.122 M-640.563,260.917 L-641.163,262.84 Q-679.091,260.757 -694.109,295.16 -702.6,314.664 -697.874,335.33 -691.586,362.885 -663.992,372.817 -659.387,374.409 -654.26,375.621 -651.934,376.159 -649.534,376.622 -648.526,376.808 -647.011,376.862 -645.518,376.854 -643.606,376.622 -642.274,376.465 -641.003,376.261 -609.981,371.234 -599.912,337.573 -589.419,302.489 -615.331,276.377 -626.065,265.643 -640.563,260.917 M-633.474,306.254 L-629.629,309.178 -633.474,306.254 M-665.193,309.178 L-661.349,312.101 -665.193,309.178 M-665.273,350.509 Q-664.593,350.349 -663.912,350.229 -664.593,350.349 -665.273,350.509 -670.56,351.991 -673.203,347.345 -670.56,351.991 -665.273,350.509 M-816.422,356.917 Q-811.216,337.453 -819.706,319.31 -826.435,304.932 -837.048,293.158 -847.661,281.423 -863.241,279.701 -884.147,279.941 -863.361,280.021 -882.705,282.544 -898.445,293.959 -915.386,306.214 -919.431,326.599 -923.436,346.825 -915.185,365.528 -907.496,383.07 -891.636,393.883 -884.518,398.687 -876.377,399.931 -873.513,400.371 -870.53,400.371 -868.138,400.691 -865.844,400.772 -848.99,401.351 -835.967,389.278 -821.509,375.941 -816.422,356.917 M-871.811,327 Q-869.929,328.121 -869.929,329.723 -869.929,328.121 -871.811,327 -873.694,325.878 -876.337,325.878 -873.694,325.878 -871.811,327 M-849.584,327.841 Q-847.501,329.162 -847.501,331.005 -847.501,329.162 -849.584,327.841 -851.626,326.519 -854.55,326.519 -851.626,326.519 -849.584,327.841 M-898.124,361.763 L-878.9,368.171 -898.124,361.763 M78.495,271.811 L77.894,269.888 Q75.892,270.609 73.969,271.45 56.548,278.339 44.773,292.837 32.397,308.056 33.239,327.721 34.04,346.945 44.052,363.445 49.259,372.056 65.439,380.026 73.758,384.102 80.498,385.833 86.783,387.459 91.712,387.075 94.394,386.859 97.679,385.553 105.984,382.243 118.145,371.976 125.073,366.129 130.2,360.402 135.406,354.594 136.327,351.59 139.972,339.936 139.651,327.681 139.091,308.056 127.877,292.196 122.79,285.067 115.141,280.502 98.28,270.409 78.495,271.811 M61.874,319.711 L57.909,322.634 61.874,319.711 M98.56,310.739 L94.555,313.663 98.56,310.739 M93.994,364.687 Q92.873,364.487 91.752,364.326 92.873,364.487 93.994,364.687 105.529,366.289 111.616,356.316 105.529,366.289 93.994,364.687 M-141.58,276.176 Q-150.271,273.413 -159.162,275.816 -167.732,278.019 -175.142,282.865 -182.431,287.591 -188.719,293.798 -195.127,300.206 -199.212,308.377 -203.337,316.747 -204.338,325.918 -205.339,335.05 -203.257,343.941 -201.174,353.032 -196.608,361.042 -192.043,369.012 -185.515,375.46 -178.746,382.109 -170.296,386.354 -165.633,388.753 -160.684,390.039 -156.839,391.052 -152.834,391.4 -150.339,391.304 -147.868,391 -141.074,390.24 -134.491,388.036 -125.48,385.032 -117.91,379.185 -110.381,373.298 -105.735,364.767 -101.45,356.877 -99.327,348.226 -97.204,339.576 -97.965,330.644 -98.766,321.273 -102.931,312.702 -106.896,304.492 -112.864,297.643 -118.671,290.995 -125.319,285.148 -132.448,278.98 -141.58,276.176 M-133.81,314.985 Q-131.727,316.306 -131.727,318.149 -131.727,316.306 -133.81,314.985 -135.853,313.663 -138.776,313.663 -135.853,313.663 -133.81,314.985 M-165.009,312.502 Q-163.127,313.623 -163.127,315.225 -163.127,313.623 -165.009,312.502 -166.891,311.38 -169.535,311.38 -166.891,311.38 -165.009,312.502 M-171.577,368.812 Q-171.697,368.932 -171.697,369.172 -171.697,368.932 -171.577,368.812 -168.133,365.608 -165.049,368.812 -168.133,365.608 -171.577,368.812 M279.826,289.553 Q272.457,295.761 268.212,304.291 264.247,312.221 262.725,320.832 261.163,329.563 262.445,338.294 263.806,347.666 268.492,355.716 273.138,363.686 280.467,369.172 288.077,374.779 297.128,377.062 298.791,377.467 300.452,377.703 306.331,378.659 312.227,377.823 313.934,377.602 315.631,377.222 324.722,375.26 332.612,370.614 340.742,365.968 346.47,358.719 352.237,351.43 354.92,342.539 357.523,334.049 356.843,325.077 356.162,316.347 352.958,308.296 349.473,299.686 343.666,292.437 338.019,285.428 330.129,281.022 322.36,276.697 313.388,276.777 304.057,276.857 294.965,278.78 L294.605,279.42 294.885,280.141 299.731,278.78 294.885,280.141 Q286.755,283.746 279.826,289.553 M307.741,311.781 L313.188,312.422 307.741,311.781 M287.876,317.668 L282.43,317.027 287.876,317.668 M307.421,361.122 Q310.224,361.122 312.187,359.721 314.149,358.319 314.149,356.316 314.149,358.319 312.187,359.721 310.224,361.122 307.421,361.122Z" test="JurorsFront" vector-effect="non-scaling-stroke" stroke-width="1"/>
        <path id="Layer4_0_1_STROKES" stroke="#FFF" stroke-width="1.602" stroke-linejoin="round" stroke-linecap="round" fill="none" d="M294.885,280.141 Q286.755,283.746 279.826,289.553 272.457,295.761 268.212,304.291 264.247,312.221 262.725,320.832 261.163,329.563 262.445,338.294 263.806,347.666 268.492,355.716 273.138,363.686 280.467,369.172 288.077,374.779 297.128,377.062 298.791,377.467 300.452,377.723 306.331,378.659 312.247,377.843 313.934,377.602 315.631,377.222 324.722,375.26 332.612,370.614 340.742,365.968 346.47,358.719 352.237,351.43 354.92,342.539 357.523,334.049 356.843,325.077 356.162,316.347 352.958,308.296 349.473,299.686 343.666,292.437 338.019,285.428 330.129,281.022 322.36,276.697 313.388,276.777 304.057,276.857 294.965,278.78 L294.605,279.42 M299.731,278.78 L294.885,280.141 M307.741,311.781 L313.188,312.422 M287.876,317.668 L282.43,317.027 M-152.834,391.4 Q-150.339,391.304 -147.868,391.02 -141.074,390.24 -134.491,388.036 -125.48,385.032 -117.91,379.185 -110.381,373.298 -105.735,364.767 -101.45,356.877 -99.327,348.226 -97.204,339.576 -97.965,330.644 -98.766,321.273 -102.931,312.702 -106.896,304.492 -112.864,297.643 -118.671,290.995 -125.319,285.148 -132.448,278.98 -141.58,276.176 -150.271,273.413 -159.162,275.816 -167.732,278.019 -175.142,282.865 -182.431,287.591 -188.719,293.798 -195.127,300.206 -199.212,308.377 -203.337,316.747 -204.338,325.918 -205.339,335.05 -203.257,343.941 -201.174,353.032 -196.608,361.042 -192.043,369.012 -185.515,375.46 -178.746,382.109 -170.296,386.354 -165.633,388.753 -160.664,390.059 -156.839,391.052 -152.834,391.4Z M-138.776,313.663 Q-135.853,313.663 -133.79,314.985 -131.727,316.306 -131.727,318.149 M-169.535,311.38 Q-166.891,311.38 -165.009,312.502 -163.127,313.623 -163.127,315.225 M78.495,271.811 Q98.28,270.409 115.141,280.502 122.79,285.067 127.877,292.196 139.091,308.056 139.651,327.681 139.972,339.936 136.327,351.59 135.406,354.594 130.2,360.402 125.073,366.129 118.145,371.976 105.984,382.243 97.679,385.553 94.394,386.859 91.712,387.075 86.783,387.459 80.518,385.853 73.758,384.102 65.439,380.026 49.259,372.056 44.052,363.445 34.04,346.945 33.239,327.721 32.397,308.056 44.773,292.837 56.548,278.339 73.969,271.45 75.892,270.609 77.894,269.909 M61.874,319.711 L57.909,322.634 M98.56,310.739 L94.555,313.663 M111.616,356.316 Q105.529,366.289 93.994,364.687 92.873,364.487 91.752,364.326 M137.849,493.247 Q134.725,466.935 125.113,443.465 115.702,420.356 105.329,397.768 103.287,393.363 100.803,389.678 M78.735,389.678 Q75.865,396.441 74.37,404.176 72.488,413.948 70.085,423.44 64.438,445.668 60.032,468.376 57.629,480.912 55.266,493.247 M-202.616,481.913 Q-200.653,475.665 -198.13,469.618 -188,448.031 -179.707,426.364 -172.884,410.41 -164.308,396.006 -163.892,395.303 -163.467,394.604 M-145.465,394.604 Q-140.945,401.552 -137.174,409.182 -128.003,427.886 -119.552,446.789 -112.023,463.65 -107.177,481.913 M-165.049,368.812 Q-168.133,365.608 -171.577,368.812 -171.697,368.932 -171.697,369.172 M307.421,361.122 Q310.224,361.122 312.187,359.721 314.149,358.319 314.149,356.316 M260.202,510.108 Q264.688,482.995 272.257,457.002 275.541,445.708 278.665,434.294 285.554,409.142 295.726,386.794 297.085,383.838 298.57,381.067 M314.269,381.067 Q323.135,395.68 329.408,413.187 338.339,438.058 346.269,463.851 351.556,480.992 356.762,498.214 M-876.337,325.878 Q-873.694,325.878 -871.811,327 -869.929,328.121 -869.929,329.723 M-854.55,326.519 Q-851.626,326.519 -849.564,327.841 -847.501,329.162 -847.501,331.005 M-863.361,280.021 Q-882.705,282.544 -898.445,293.959 -915.386,306.214 -919.431,326.599 -923.436,346.825 -915.185,365.528 -907.496,383.07 -891.636,393.883 -884.518,398.687 -876.377,399.931 -873.513,400.371 -870.53,400.371 -868.138,400.691 -865.824,400.772 -848.99,401.351 -835.967,389.278 -821.509,375.941 -816.422,356.917 -811.216,337.453 -819.706,319.31 -826.435,304.932 -837.048,293.158 -847.661,281.423 -863.221,279.701 M-640.563,260.937 L-649.173,259.476 M-641.163,262.84 Q-679.091,260.757 -694.109,295.16 -702.6,314.664 -697.874,335.33 -691.586,362.885 -663.992,372.817 -659.387,374.409 -654.26,375.621 -651.934,376.159 -649.514,376.622 -648.526,376.808 -647.011,376.862 -645.518,376.854 -643.586,376.622 -642.274,376.465 -641.003,376.261 -609.981,371.234 -599.912,337.573 -589.419,302.489 -615.331,276.377 -626.065,265.643 -640.563,260.937 M-633.474,306.254 L-629.629,309.178 M-665.193,309.178 L-661.349,312.101 M-673.203,347.345 Q-670.56,351.991 -665.273,350.509 -664.593,350.349 -663.912,350.229 M-434.245,280.121 Q-440.753,282.624 -446.48,286.669 -453.008,291.355 -457.614,297.924 -461.739,303.771 -464.263,310.579 -466.666,317.188 -467.386,324.196 -468.147,331.365 -467.106,338.374 -465.985,345.823 -462.701,352.632 -459.577,359.2 -454.25,364.246 -448.883,369.333 -442.235,372.817 -437.865,375.139 -433.124,376.321 -430.256,377.041 -427.256,377.343 -420.408,378.344 -413.559,376.902 -412.99,376.781 -412.418,376.642 -405.868,375.113 -399.822,372.016 -393.374,368.612 -388.127,363.646 -382.841,358.559 -379.076,352.031 -375.472,345.903 -373.75,338.975 -372.027,332.126 -372.508,325.117 -373.029,317.788 -375.191,310.86 -377.314,304.051 -381.159,298.164 -385.004,292.236 -390.17,287.15 -395.657,281.823 -402.545,278.659 -409.594,275.415 -417.524,275.215 -424.253,275.896 -430.901,277.979 -432.503,278.459 -434.145,278.82 L-434.505,279.42 M-429.379,278.78 L-434.245,280.121 M-441.234,317.668 L-446.681,317.027 M-421.369,311.781 L-415.922,312.422 M-919.871,490.924 Q-911.901,471.741 -903.05,452.997 -894.84,435.615 -886.309,418.674 -883.465,413.007 -879.221,405.137 M-421.689,361.122 Q-418.886,361.122 -416.923,359.721 -414.961,358.319 -414.961,356.316 M-410.996,380.066 Q-403.52,390.937 -399.702,400.572 -390.811,423.12 -382.881,446.549 -377.594,462.048 -372.348,477.628 M-468.187,484.837 Q-467.226,479.03 -465.624,473.302 -459.617,451.635 -453.569,429.888 -447.041,406.539 -437.469,385.152 -436.815,383.695 -434.786,379.666 M-638.38,380.226 Q-617.018,412.903 -607.361,446.589 -601.274,467.936 -594.826,488.962 M-703.321,488.962 Q-695.832,444.987 -673.964,407.54 -666.502,394.713 -657.223,380.226 M-863.641,405.137 Q-858.797,414.792 -854.87,422.319 -845.659,439.901 -837.368,457.923 -829.959,473.983 -824.833,490.924 M-898.124,361.763 L-878.9,368.171" test="JurorsFront"/>
      </g>
    </g>
    <g id="Parrot">
      <path id="Layer2_0_1_STROKES" stroke="#FFF" stroke-width="2" stroke-linejoin="round" stroke-linecap="round" fill="none" d="M735.1,249.35 Q738.8,249.8 742.1,252.75 746.1,256.3 744.6,261.95 743.1,267.6 740.3,270.45 737.5,273.25 733.9,273.15 730.25,273.05 727.65,270.95 725,268.85 724.35,265.3 723.75,261.9 724.6,258.75 725.4,255.9 726.45,254.2 727.45,252.45 729.55,251.35 731.6,250.2 735.1,249.35Z M735.5,261.1 Q735,260.45 734.25,260.35 733.45,260.25 733.4,260.25 733.1,260.25 732.75,260.55 731.9,261.3 732.6,262.8 733.2,264.05 734.55,263.55 735.5,263.2 735.65,262.5 735.8,262 735.8,261.8 735.85,261.4 735.5,261.1Z M690.75,251.85 Q692.95,251.65 695.9,255.05 698.8,258.35 698.6,263 698.4,267.55 696.3,270.35 694.25,273.1 690.7,273 687.1,272.85 684.3,270.6 681.15,268.2 681.3,264.4 681.55,259.2 683.3,256.1 685.7,251.8 690.75,251.85Z M693.4,262.65 Q693.05,262.05 692.4,262 691.65,261.9 691.6,261.9 691.4,261.9 691.05,262.15 690.3,262.85 690.95,264.2 691.5,265.35 692.6,264.85 693.4,264.55 693.55,263.9 693.65,263.5 693.65,263.3 693.75,262.95 693.4,262.65Z" test="Parrot"/>
      <path id="Layer2_0_2_STROKES" stroke="#F00" stroke-width="2" stroke-linejoin="round" stroke-linecap="round" fill="none" d="M756.65,279.75 Q759.65,280.35 760.4,280.45 761.15,280.55 762.65,280.55 764.8,280.55 768.65,278.15 M750.25,305.35 L751.7,305.75 Q753.4,306.15 754.65,306.15 755.4,306.15 757.5,304.75 759.45,303.45 759.85,302.95 M792.65,328.65 Q783.8,319.05 780.9,306.4 778.45,295.6 779.95,279.95 781.3,266.15 774.25,253.25 766.45,239 753.7,233.5 740.95,227.95 731.1,227 721.25,226 711.85,229.45 702.4,232.9 695.5,239.85 688.65,246.7 688.4,248.25 M686.55,317.75 Q686.1,330.8 679.6,341.4 M719.05,306.15 Q721.3,308.65 722.75,311.4 722.95,311.75 725.45,311.75 726.75,311.75 728.5,311.25 728.85,311.15 731.85,310.15" test="Parrot"/>
      <path id="Layer2_0_3_STROKES" stroke="#0FF" stroke-width="2" stroke-linejoin="round" stroke-linecap="round" fill="none" d="M684.2,334.8 L683.55,338.7 Q684.45,339.15 685.55,339.25 686.25,339.35 687.75,339.35 691.9,339.35 695,335.8 698.15,332.2 700.45,332.2 701.25,332.2 705.65,332.85 710,333.5 710.85,333.5 715.8,333.5 716.8,331.25 717.75,328.95 721.55,328.95 722.4,328.95 725.5,329.6 728.65,330.25 729.45,330.25 730,330.25 731.95,328.3 733.85,326.35 736.25,326.35 737.1,326.35 740.35,327 743.6,327.65 744.4,327.65 745.3,327.65 747.8,326.35 749.05,325.7 750.25,325.05 750.4,325.05 753.4,326.35 756.75,327.65 758.35,327.65 760.4,327.65 763.05,326.7 764.35,326.2 765.5,325.7 767.5,325.7 777.55,328 785.9,329.9 789.65,330.2 790.4,330.25 790.95,330.25 M720,353.1 Q719.45,354.95 717.65,371.75 715.9,388 714.8,390.85 713.25,395.05 712.7,405.75 712.1,417.1 713.5,424.05 715.05,431.75 722.3,452.8 729.75,474.4 733.05,480.05 734.6,482.75 739.3,490.05 743.1,495.95 746.05,501.55 749.95,508.95 753.05,511.9 756.2,514.95 761.05,515.9 764.3,516.55 769.35,517.75 772.75,518.15 772.75,515.25 772.75,507.15 781.2,511.35 787.15,514.3 789.2,514.7 792.5,515.35 794.25,512.65 795.55,510.7 797.3,507.35 799.2,504.75 803.35,503.5 806.05,502.7 808.45,504.5 809.1,505 810.55,499.6 812.2,493.5 814.8,486.8 L817.05,481.35 Q817.7,477.45 819.65,468.35 821.35,460.35 820.55,450.25 819.55,438.05 815.1,428.65 814.85,428.15 803.7,406.1 796.6,392 794.25,385 792.5,379.75 789.15,372.4 786.8,367.3 786.45,364.15 M822.1,384.65 Q821.5,384.3 820.6,384.3 820.45,384.3 812.8,386.9 811.15,386 809.15,384.95 808.8,386.85 807.45,388.3 806.3,389.5 805.55,389.5 803.9,389.5 802.55,388.3 801.45,387.35 801.35,387.55 800.5,388.45 799.25,389.05 797.8,389.7 796.8,389.5 M794.2,333.5 Q821.25,359.35 821.55,384.3 L822.2,384.3 M679.6,341.4 Q675.15,353.3 671.5,365.6 667.85,377.85 664.8,390.3 662.85,398.2 660.45,406 656.6,418.45 655.65,431.4 655.45,434.45 655.65,437.4 656.4,450.25 654.35,463.15 653.7,467.45 651.8,471.35 650.4,474.2 649.05,477 647.3,474.65 646.8,471.55 642.85,447.15 644.7,422.7 645,418.8 645.7,414.9 646.9,408.45 647.95,402 648.95,396.05 651.15,390.4 655.7,378.65 660.55,367.1 666.95,352.05 679.6,341.4Z M666.55,401.9 Q669.15,404.35 672.2,404.95 673.1,405.15 676.4,405.15 678.25,405.15 679.1,403.55 679.95,401.9 682.9,401.9 684.85,401.9 689.15,402.3 693,402.55 695.25,401.9 700.8,400.35 705.85,400 707.2,399.9 711.5,399.9" test="Parrot"/>
      <path id="Layer2_0_4_STROKES" stroke="#0F0" stroke-width="2" stroke-linejoin="round" stroke-linecap="round" fill="none" d="M825.95,410.9 Q826.75,409.65 826.75,407.45 826.75,405.9 824.6,396.3 822.35,386.55 821.55,384.95" test="Parrot"/>
      <path id="Layer2_0_5_STROKES" stroke="#FF0" stroke-width="2" stroke-linejoin="round" stroke-linecap="round" fill="none" d="M822.85,444.15 L828.7,444.15 Q828.4,442.75 829.45,438.95 830.65,434.8 830.65,433.75 830.65,427.45 828.75,419.4 827.15,412.6 825.95,410.9 M686.85,278.8 Q676.35,284.15 675.25,293.85 674.75,298.3 674.45,302.85 690,305.5 696.1,301.15 698.15,294.25 695.05,289 691.9,283.7 690.4,282.25 688.9,280.75 686.85,278.8Z M680.3,304.15 Q678.25,314.55 689.15,315.25 691.15,315.1 692.8,314.3 696.8,311.4 695.25,302.75 M659.4,458.55 Q662.15,460.9 663.3,462.25 663.6,462.45 666.85,462.45 669.45,462.45 678.05,459.2 685,456.6 687.05,456.1 687.3,456 687.45,456 687.5,456.95 692.05,457.2 693,457.25 697.85,457.25 699.75,457.25 703.7,456.3 707.65,455.3 709.2,455.3 711.6,455.3 711.8,455.25 713.05,454.85 713.45,452.6 721.25,454.4 719.3,453.9 M687.05,456.1 Q686.8,456.2 687,456.55 687.45,457.25 687.45,456 M673.05,502.85 Q669.1,505.9 668.2,508.4 667.85,509.45 667.85,513.55 667.85,518.95 671,520.7 673.4,522 682.9,523 682.9,521.4 682.6,520.05 684.6,520.8 687.45,521.7 L690.7,521.7 Q689.4,520 688.35,518.6 690.6,519.4 692.65,520.4 L697.2,520.4 697.2,517.15 Q693.6,513.95 692.45,508.25 691.85,502.7 691.35,501.55 690.7,501.55 689.4,500.9 M705,503.5 Q704.15,513.7 705.9,516.7 707.4,519.3 713.45,519.75 L713.45,515.85 Q712.9,514.75 712.35,511.85 712.5,512.05 712.6,512.3 715.45,518.05 720.6,519.1 L720.6,513.95 Q721.25,515 722.05,516 724.65,519.1 727.75,519.75 L728.45,519.75 Q728.8,517.65 727.7,513.9 726.45,509.75 726.45,508.05 726.45,504.6 729.1,502.85 M741.45,508.7 Q740.65,521.5 749.9,545.1 753.85,555.2 757.75,561.65 761.95,568.55 764.55,568.55 768.25,568.55 769.15,568.15 772.2,566.8 772.65,561.4 775,562.55 781.1,563.35 786.45,563.35 788.2,557.85 789.3,554.45 789.5,554.05 790.45,552.3 792.25,552.3 792.95,552.3 800.05,554.9 801.15,554.9 803,551.65 805,548.15 806.55,547.75 810.25,546.7 815.45,545.95 819.15,545 820.9,541.25 821.95,541.25 823.75,541.6 825.55,541.9 826.1,541.9 L826.1,520.4 Q823.5,511.5 820.75,499.35 818.65,490.15 817,485.95" test="Parrot"/>
      <path id="Layer2_0_6_STROKES" stroke="#F0F" stroke-width="2" stroke-linejoin="round" stroke-linecap="round" fill="none" d="M649.05,477 L650.05,486.1 Q651.65,495.95 654.9,499.6 656.55,501.45 657.5,503.75 658.05,505 658.65,506.9 659.15,508.25 660,508.4 661.05,508.55 663.35,507.4 666.4,505.9 668.95,502.95 670.7,500.9 673.1,500.9 675.4,500.9 681.2,501.8 686.35,502.25 688.75,500.25 691.1,498.3 695.85,499.45 698.55,500.1 704.4,501.55 707.35,501.9 711.7,502.75 715.2,503.15 718.05,501.55 721,499.9 724,500 725.9,500.1 730.45,500.9 733.05,501.25 735.9,502.3 737.7,502.65 738.9,500.25 M822.2,485.95 Q824.55,473.95 825.9,465.65 827,459.15 828.7,446.75 M783.8,631.1 Q786.6,639.2 787.35,640.4 788.45,642.15 791.25,642.15 792.3,642.15 792.6,642.05 794,641.4 795.5,638.9 814.2,657.75 815.4,657.75 822.9,657.75 826.1,644.8 828.05,637 828.05,627.55 828.05,621.6 826.75,615.95 825.9,612.25 824.15,607.65" test="Parrot"/>
      <path id="Layer2_0_7_STROKES" stroke="#F60" stroke-width="2" stroke-linejoin="round" stroke-linecap="round" fill="none" d="M766.15,573.1 Q765.65,572.3 765.1,571.5 763.95,569.85 763.55,569.85 L763.55,573.1 Q764.8,580.7 773.15,603.15 783,629.8 788,629.8 790.15,629.8 795.05,625.6 799.6,621.35 799.7,621.35 800.55,621.35 802.95,622 805.4,622.65 806.2,622.65 808.65,622.65 811.05,617.75 812.7,614.35 813.1,612.2 818.75,612.2 821.6,609.3 824.45,606.35 827.4,606.35 827.4,604.1 827.75,599.1 828.05,594.1 828.05,593.6 828.05,589.05 825.15,578.95 821.85,567.55 821.55,565.3 821.05,561.8 821.25,555.75 821.55,549.4 821.55,547.1 L820.9,547.1" test="Parrot"/>
    </g>
    <g id="JuryBoxFront">
      <path fill="#000" stroke="none" d="M-1626.45,514.35 L-1648.75,488.3 -1650.6,617.25 Q-1642.422,617.251 -1630.95,617.25 L-1626.45,514.35 M1315.6,500.95 L1314.25,500.95 1296.4,518.5 1296.4,613 Q1306.884,613.017 1315.6,613 L1315.6,500.95 M1144.15,512.95 Q1069.65,514.65 995.3,518.9 919.85,522.55 844.35,523 766.95,523.45 689.55,523.35 614.05,523.25 538.55,523 458.75,522.75 378.95,521.8 300.25,520.9 221.6,519.6 143.5,518.35 65.4,520.35 -11.9,522.3 -89.25,526.5 -164.5,529.75 -239.9,528.6 -319.3,527.35 -398.65,522.45 -472.6,517.5 -546.85,516.45 -620.75,515.45 -694.7,516.1 -774.05,516.8 -853.4,518 -933.05,519.25 -1012.65,520.45 -1091.7,521.65 -1170.85,522.95 -1247.85,524.25 -1324.9,524.85 -1401.65,525.45 -1478.6,523.95 -1552.75,522.5 -1626.45,514.35 L-1630.95,617.25 Q-1424.992,617.16 -156.15,615.15 1051.723,613.195 1296.4,613 L1296.4,518.5 Q1220.45,511.25 1144.15,512.95 M976.45,502.85 Q971.244,503.094 966.05,503.3 890.1,505.8 814.15,505.8 791.136,505.8 768.1,505.8 712.571,505.815 657,505.85 648.762,505.856 640.5,505.85 569.207,505.781 497.85,504.75 474.975,504.422 452.1,503.75 429.218,503.598 406.3,503.4 389.152,503.302 371.95,503.15 354.786,502.697 337.6,502.45 257.9,501.35 178.15,500.55 116.113,499.94 54.1,502.65 45.006,503.077 35.9,503.55 -39.15,507 -114.05,510.95 L-274.1,511.75 Q-354.4,507.9 -434.6,502.95 -507.25,497.9 -580.35,497.2 -659.4,496.4 -738.35,497.5 -815.45,498.6 -892.65,500.15 -965.3,501.65 -1038,503.2 -1111.9,504.75 -1185.9,505.95 -1263.85,507.2 -1342,506.2 -1417.7,505.25 -1493.3,500.25 -1571.1,495.6 -1648.75,488.3 L-1626.45,514.35 Q-1552.75,522.5 -1478.6,523.95 -1401.65,525.45 -1324.9,524.85 -1247.85,524.25 -1170.85,522.95 -1091.7,521.65 -1012.65,520.45 -933.05,519.25 -853.4,518 -774.05,516.8 -694.7,516.1 -620.75,515.45 -546.85,516.45 -472.6,517.5 -398.65,522.45 -319.3,527.35 -239.9,528.6 -164.5,529.75 -89.25,526.5 -11.9,522.3 65.4,520.35 143.5,518.35 221.6,519.6 300.25,520.9 378.95,521.8 458.75,522.75 538.55,523 614.05,523.25 689.55,523.35 766.95,523.45 844.35,523 919.85,522.55 995.3,518.9 1069.65,514.65 1144.15,512.95 1220.45,511.25 1296.4,518.5 L1314.25,500.95 1314.3,500.15 Q1295.912,498.494 1277.5,496.85 1263.402,495.536 1249.3,494.6 1189.335,490.798 1129.15,494.4 1052.881,499.691 976.45,502.85Z" test="JuryBoxFront"/>
      <path id="Layer1_0_1_STROKES" stroke="#F60" stroke-width="2" stroke-linejoin="round" stroke-linecap="round" fill="none" d="M1314.325,500.175 Q1295.912,498.494 1277.5,496.85 1263.402,495.536 1249.3,494.625 1189.335,490.798 1129.15,494.4 1052.881,499.691 976.45,502.875 971.244,503.094 966.05,503.3 890.1,505.8 814.15,505.8 791.136,505.8 768.125,505.8 712.571,505.815 657,505.85 648.762,505.856 640.525,505.85 569.207,505.781 497.85,504.75 474.975,504.422 452.1,503.775 429.218,503.598 406.325,503.425 389.152,503.302 371.975,503.175 354.786,502.697 337.6,502.45 257.9,501.35 178.15,500.55 116.113,499.94 54.125,502.675 45.006,503.077 35.9,503.55 -39.15,507 -114.05,510.95 L-274.1,511.75 Q-354.4,507.9 -434.6,502.95 -507.25,497.9 -580.35,497.2 -659.4,496.4 -738.35,497.5 -815.45,498.6 -892.65,500.15 -965.3,501.65 -1038,503.2 -1111.9,504.75 -1185.9,505.95 -1263.85,507.2 -1342,506.2 -1417.7,505.25 -1493.3,500.25 -1571.1,495.6 -1648.75,488.3 L-1626.45,514.35 Q-1552.75,522.5 -1478.6,523.95 -1401.65,525.45 -1324.9,524.85 -1247.85,524.25 -1170.85,522.95 -1091.7,521.65 -1012.65,520.45 -933.05,519.25 -853.4,518 -774.05,516.8 -694.7,516.1 -620.75,515.45 -546.85,516.45 -472.6,517.5 -398.65,522.45 -319.3,527.35 -239.9,528.6 -164.5,529.75 -89.25,526.5 -11.9,522.3 65.4,520.35 143.5,518.35 221.6,519.6 300.25,520.9 378.95,521.8 458.75,522.75 538.55,523 614.05,523.25 689.55,523.35 766.95,523.45 844.35,523 919.85,522.55 995.3,518.9 1069.65,514.65 1144.15,512.95 1220.45,511.25 1296.4,518.5 L1314.25,500.95 M1314.325,500.175 Q1314.962,500.242 1315.6,500.3 L1315.6,500.95 1315.6,613 1315.6,624.2 M1296.4,624.2 L1296.4,613.025 M-1630.95,617.25 L-1631.25,624.2 M1296.4,613.025 L1296.4,518.5 M-1650.7,624.2 L-1650.6,617.25 -1648.75,488.3 M-1626.45,514.35 L-1630.95,617.25" test="JuryBoxFront"/>
    </g>
  </g>
</svg>