<?xml version="1.0" encoding="utf-8"?>
<svg id="EdithAnim12" image-rendering="inherit" baseProfile="basic" version="1.1" x="0px" y="0px" width="800" height="600" xmlns="http://www.w3.org/2000/svg" xmlns:xlink="http://www.w3.org/1999/xlink">
  <g id="14_JurorParrotf66r1" overflow="visible">
    <g id="JurorsBack">
      <path fill="#000" stroke="none" d="M-288.18,132.23 Q-290.18,132.91 -292.1,133.75 -309.5,140.63 -321.26,155.11 -333.62,170.31 -332.78,189.95 -331.98,209.15 -321.98,225.63 -316.78,234.23 -300.62,242.19 -292.3,246.27 -285.54,248.03 -279.3,249.63 -274.38,249.23 -271.7,249.03 -268.42,247.71 -260.14,244.39 -247.98,234.15 -241.06,228.31 -235.94,222.59 -230.74,216.79 -229.82,213.79 -226.18,202.15 -226.5,189.91 -227.06,170.31 -238.26,154.47 -243.34,147.35 -250.98,142.79 -267.82,132.71 -287.58,134.11 L-288.18,132.23 M-304.18,181.95 L-308.14,184.87 -304.18,181.95 M-267.54,172.99 L-271.54,175.91 -267.54,172.99 M-272.1,226.87 Q-273.22,226.67 -274.34,226.51 -273.22,226.67 -272.1,226.87 -260.58,228.47 -254.5,218.51 -260.58,228.47 -272.1,226.87 M-507.94,138.11 Q-516.5,140.31 -523.9,145.15 -531.18,149.87 -537.46,156.07 -543.86,162.47 -547.94,170.63 -552.06,178.99 -553.06,188.15 -554.06,197.27 -551.98,206.15 -549.9,215.23 -545.34,223.23 -540.78,231.19 -534.26,237.63 -527.5,244.27 -519.06,248.51 -514.42,250.91 -509.42,252.23 -505.62,253.19 -501.62,253.55 -499.14,253.47 -496.66,253.19 -489.86,252.39 -483.3,250.19 -474.3,247.19 -466.74,241.35 -459.22,235.47 -454.58,226.95 -450.3,219.07 -448.18,210.43 -446.06,201.79 -446.82,192.87 -447.62,183.51 -451.78,174.95 -455.74,166.75 -461.7,159.91 -467.5,153.27 -474.14,147.43 -481.26,141.27 -490.38,138.47 -499.06,135.71 -507.94,138.11 M-482.58,177.23 Q-480.54,178.55 -480.54,180.39 -480.54,178.55 -482.58,177.23 -484.66,175.91 -487.58,175.91 -484.66,175.91 -482.58,177.23 M-513.78,174.75 Q-511.9,175.87 -511.9,177.47 -511.9,175.87 -513.78,174.75 -515.66,173.63 -518.3,173.63 -515.66,173.63 -513.78,174.75 M-520.34,230.99 Q-520.46,231.11 -520.46,231.35 -520.46,231.11 -520.34,230.99 -516.9,227.79 -513.82,230.99 -516.9,227.79 -520.34,230.99 M-731.94,141.71 L-731.66,142.43 -726.82,141.07 -731.66,142.43 Q-738.18,144.91 -743.9,148.95 -750.42,153.63 -755.02,160.19 -759.14,166.03 -761.66,172.83 -764.06,179.43 -764.78,186.43 -765.54,193.59 -764.5,200.59 -763.38,208.03 -760.1,214.83 -756.98,221.39 -751.66,226.43 -746.3,231.51 -739.66,234.99 -735.3,237.31 -730.54,238.51 -727.7,239.19 -724.7,239.51 -717.86,240.51 -711.02,239.07 -710.46,238.95 -709.86,238.83 -703.34,237.27 -697.3,234.19 -690.86,230.79 -685.62,225.83 -680.34,220.75 -676.58,214.23 -672.98,208.11 -671.26,201.19 -669.54,194.35 -670.02,187.35 -670.54,180.03 -672.7,173.11 -674.82,166.31 -678.66,160.43 -682.5,154.51 -687.66,149.43 -693.14,144.11 -700.02,140.95 -707.06,137.71 -714.98,137.51 -721.7,138.19 -728.34,140.27 -729.94,140.75 -731.58,141.11 L-731.94,141.71 M-718.82,174.03 L-713.38,174.67 -718.82,174.03 M-714.38,221.91 Q-712.42,220.51 -712.42,218.51 -712.42,220.51 -714.38,221.91 -716.34,223.31 -719.14,223.31 -716.34,223.31 -714.38,221.91 M-738.66,179.91 L-744.1,179.27 -738.66,179.91 M125.58,135.83 Q117.18,137.71 109.54,141.95 101.26,146.59 95.3,153.99 89.7,160.95 87.26,169.51 84.7,178.31 84.3,187.55 83.9,196.55 85.06,205.51 86.18,214.39 91.18,221.83 96.34,229.51 103.86,234.75 111.14,239.87 119.46,243.03 128.3,246.31 137.74,246.75 146.74,247.51 155.14,244.11 163.94,240.63 170.26,233.43 176.62,226.23 180.58,217.67 184.54,209.07 186.18,199.63 187.74,190.63 186.62,181.51 185.46,171.99 181.18,163.31 176.94,154.83 169.98,148.47 164.06,143.03 157.22,138.79 150.7,134.71 143.38,132.23 L142.78,134.11 Q134.06,134.07 125.58,135.83 M150.46,177.47 L154.3,180.39 150.46,177.47 M118.78,180.39 L122.62,183.31 118.78,180.39 M118.7,221.67 Q119.38,221.51 120.06,221.39 119.38,221.51 118.7,221.67 113.46,223.15 110.78,218.51 113.46,223.15 118.7,221.67 M-98.1,166.55 Q-102.06,174.47 -103.58,183.07 -105.14,191.79 -103.86,200.51 -102.5,209.87 -97.82,217.91 -93.18,225.87 -85.86,231.35 -78.26,236.95 -69.22,239.23 -67.54,239.63 -65.9,239.91 -60.02,240.83 -54.1,240.03 -52.42,239.75 -50.74,239.39 -41.66,237.43 -33.78,232.79 -25.66,228.15 -19.94,220.91 -14.18,213.63 -11.5,204.75 -8.9,196.27 -9.58,187.31 -10.26,178.59 -13.46,170.55 -16.94,161.95 -22.74,154.71 -28.38,147.71 -36.26,143.31 -44.02,138.99 -52.98,139.07 -62.3,139.15 -71.38,141.07 L-71.74,141.71 -71.46,142.43 -66.62,141.07 -71.46,142.43 Q-79.58,146.03 -86.5,151.83 -93.86,158.03 -98.1,166.55 M-78.46,179.91 L-83.9,179.27 -78.46,179.91 M-58.62,174.03 L-53.18,174.67 -58.62,174.03 M-58.94,223.31 Q-56.14,223.31 -54.18,221.91 -52.22,220.51 -52.22,218.51 -52.22,220.51 -54.18,221.91 -56.14,223.31 -58.94,223.31Z" test="JurorsBack" vector-effect="non-scaling-stroke" stroke-width="1"/>
      <path id="Layer3_0_1_STROKES" stroke="#FFF" stroke-width="1.6" stroke-linejoin="round" stroke-linecap="round" fill="none" d="M-71.46,142.43 Q-79.58,146.03 -86.5,151.83 -93.86,158.03 -98.1,166.55 -102.06,174.47 -103.58,183.07 -105.14,191.79 -103.86,200.51 -102.5,209.87 -97.82,217.91 -93.18,225.87 -85.86,231.35 -78.26,236.95 -69.22,239.23 -67.54,239.63 -65.9,239.91 -60.02,240.83 -54.1,240.03 -52.42,239.75 -50.74,239.39 -41.66,237.43 -33.78,232.79 -25.66,228.15 -19.94,220.91 -14.18,213.63 -11.5,204.75 -8.9,196.27 -9.58,187.31 -10.26,178.59 -13.46,170.55 -16.94,161.95 -22.74,154.71 -28.38,147.71 -36.26,143.31 -44.02,138.99 -52.98,139.07 -62.3,139.15 -71.38,141.07 L-71.74,141.71 M-66.62,141.07 L-71.46,142.43 M-78.46,179.91 L-83.9,179.27 M-58.62,174.03 L-53.18,174.67 M-58.94,223.31 Q-56.14,223.31 -54.18,221.91 -52.22,220.51 -52.22,218.51 M142.78,134.11 Q134.06,134.07 125.58,135.83 117.18,137.71 109.54,141.95 101.26,146.59 95.3,153.99 89.7,160.95 87.26,169.51 84.7,178.31 84.3,187.55 83.9,196.55 85.06,205.51 86.18,214.39 91.18,221.83 96.34,229.51 103.86,234.75 111.14,239.87 119.46,243.03 128.3,246.31 137.74,246.75 146.74,247.51 155.14,244.11 163.94,240.63 170.26,233.43 176.62,226.23 180.58,217.67 184.54,209.07 186.18,199.63 187.74,190.63 186.62,181.51 185.46,171.99 181.18,163.31 176.94,154.83 169.98,148.47 164.06,143.03 157.22,138.79 150.7,134.71 143.38,132.23 L134.78,130.75 M150.46,177.47 L154.3,180.39 M118.78,180.39 L122.62,183.31 M110.78,218.51 Q113.46,223.15 118.7,221.67 119.38,221.51 120.06,221.39 M140.42,251.67 Q141.22,252.67 142.06,253.71 165.22,283.03 176.74,319.99 183.74,342.51 190.78,364.91 M80.38,366.63 Q84.78,322.87 106.74,285.87 117.58,267.55 132.22,253.71 133.3,252.67 134.38,251.67 M-106.1,372.11 Q-101.62,345.03 -94.06,319.07 -90.78,307.79 -87.66,296.39 -80.78,271.27 -70.62,248.95 -69.26,245.99 -67.78,243.23 M-52.1,243.23 Q-43.26,257.83 -36.98,275.31 -28.06,300.15 -20.14,325.91 -14.86,343.03 -9.66,360.23 M-726.82,141.07 L-731.66,142.43 Q-738.18,144.91 -743.9,148.95 -750.42,153.63 -755.02,160.19 -759.14,166.03 -761.66,172.83 -764.06,179.43 -764.78,186.43 -765.54,193.59 -764.5,200.59 -763.38,208.03 -760.1,214.83 -756.98,221.39 -751.66,226.43 -746.3,231.51 -739.66,234.99 -735.3,237.31 -730.54,238.51 -727.7,239.19 -724.7,239.51 -717.86,240.51 -711.02,239.07 -710.46,238.95 -709.86,238.83 -703.34,237.27 -697.3,234.19 -690.86,230.79 -685.62,225.83 -680.34,220.75 -676.58,214.23 -672.98,208.11 -671.26,201.19 -669.54,194.35 -670.02,187.35 -670.54,180.03 -672.7,173.11 -674.82,166.31 -678.66,160.43 -682.5,154.51 -687.66,149.43 -693.14,144.11 -700.02,140.95 -707.06,137.71 -714.98,137.51 -721.7,138.19 -728.34,140.27 -729.94,140.75 -731.58,141.11 L-731.94,141.71 M-718.82,174.03 L-713.38,174.67 M-719.14,223.31 Q-716.34,223.31 -714.38,221.91 -712.42,220.51 -712.42,218.51 M-501.62,253.55 Q-499.14,253.47 -496.66,253.19 -489.86,252.39 -483.3,250.19 -474.3,247.19 -466.74,241.35 -459.22,235.47 -454.58,226.95 -450.3,219.07 -448.18,210.43 -446.06,201.79 -446.82,192.87 -447.62,183.51 -451.78,174.95 -455.74,166.75 -461.7,159.91 -467.5,153.27 -474.14,147.43 -481.26,141.27 -490.38,138.47 -499.06,135.71 -507.94,138.11 -516.5,140.31 -523.9,145.15 -531.18,149.87 -537.46,156.07 -543.86,162.47 -547.94,170.63 -552.06,178.99 -553.06,188.15 -554.06,197.27 -551.98,206.15 -549.9,215.23 -545.34,223.23 -540.78,231.19 -534.26,237.63 -527.5,244.27 -519.06,248.51 -514.42,250.91 -509.42,252.23 -505.62,253.19 -501.62,253.55Z M-487.58,175.91 Q-484.66,175.91 -482.58,177.23 -480.54,178.55 -480.54,180.39 M-518.3,173.63 Q-515.66,173.63 -513.78,174.75 -511.9,175.87 -511.9,177.47 M-287.58,134.11 Q-267.82,132.71 -250.98,142.79 -243.34,147.35 -238.26,154.47 -227.06,170.31 -226.5,189.91 -226.18,202.15 -229.82,213.79 -230.74,216.79 -235.94,222.59 -241.06,228.31 -247.98,234.15 -260.14,244.39 -268.42,247.71 -271.7,249.03 -274.38,249.23 -279.3,249.63 -285.54,248.03 -292.3,246.27 -300.62,242.19 -316.78,234.23 -321.98,225.63 -331.98,209.15 -332.78,189.95 -333.62,170.31 -321.26,155.11 -309.5,140.63 -292.1,133.75 -290.18,132.91 -288.18,132.23 M-304.18,181.95 L-308.14,184.87 M-267.54,172.99 L-271.54,175.91 M-254.5,218.51 Q-260.58,228.47 -272.1,226.87 -273.22,226.67 -274.34,226.51 M-738.66,179.91 L-744.1,179.27 M-765.58,346.87 Q-764.62,341.07 -763.02,335.35 -757.02,313.71 -750.98,291.99 -744.46,268.67 -734.9,247.31 -734.26,245.87 -732.22,241.83 M-228.3,355.27 Q-231.42,328.99 -241.02,305.55 -250.42,282.47 -260.78,259.91 -262.82,255.51 -265.3,251.83 M-287.34,251.83 Q-290.22,258.59 -291.7,266.31 -293.58,276.07 -295.98,285.55 -301.62,307.75 -306.02,330.43 -308.42,342.95 -310.78,355.27 M-494.26,256.75 Q-489.74,263.67 -485.98,271.31 -476.82,289.99 -468.38,308.87 -460.86,325.71 -456.02,343.95 M-513.82,230.99 Q-516.9,227.79 -520.34,230.99 -520.46,231.11 -520.46,231.35 M-551.34,343.95 Q-549.38,337.71 -546.86,331.67 -537.74,310.11 -528.46,288.47 -521.66,272.55 -513.06,258.15 -512.66,257.43 -512.22,256.75 M-708.46,242.23 Q-700.98,253.07 -697.18,262.71 -688.3,285.23 -680.38,308.63 -675.1,324.11 -669.86,339.67" test="JurorsBack"/>
    </g>
    <g id="Tween-1">
      <g id="JurorsFront">
        <path fill="#000" stroke="none" d="M-435.524,275.215 Q-442.253,275.896 -448.901,277.979 -450.503,278.459 -452.145,278.82 L-452.505,279.42 -452.265,280.101 -447.379,278.78 -452.265,280.101 Q-458.753,282.624 -464.48,286.669 -471.008,291.355 -475.614,297.924 -479.739,303.771 -482.263,310.579 -484.666,317.188 -485.386,324.196 -486.147,331.365 -485.106,338.374 -483.985,345.823 -480.701,352.632 -477.577,359.2 -472.25,364.246 -466.883,369.333 -460.235,372.817 -455.865,375.139 -451.144,376.301 -448.256,377.041 -445.256,377.343 -438.408,378.344 -431.559,376.902 -430.99,376.781 -430.438,376.622 -423.868,375.113 -417.822,372.016 -411.374,368.612 -406.127,363.646 -400.841,358.559 -397.076,352.031 -393.472,345.903 -391.75,338.975 -390.027,332.126 -390.508,325.117 -391.029,317.788 -393.191,310.86 -395.314,304.051 -399.159,298.164 -403.004,292.236 -408.17,287.15 -413.657,281.823 -420.545,278.659 -427.594,275.415 -435.524,275.215 M-459.234,317.668 L-464.681,317.027 -459.234,317.668 M-439.369,311.781 L-433.922,312.422 -439.369,311.781 M-439.689,361.122 Q-436.886,361.122 -434.923,359.721 -432.961,358.319 -432.961,356.316 -432.961,358.319 -434.923,359.721 -436.886,361.122 -439.689,361.122 M-658.563,260.917 L-659.163,262.84 Q-697.091,260.757 -712.109,295.16 -720.6,314.664 -715.874,335.33 -709.586,362.885 -681.992,372.817 -677.387,374.409 -672.26,375.621 -669.934,376.159 -667.534,376.622 -666.526,376.808 -665.011,376.862 -663.518,376.854 -661.606,376.622 -660.274,376.465 -659.003,376.261 -627.981,371.234 -617.912,337.573 -607.419,302.489 -633.331,276.377 -644.065,265.643 -658.563,260.917 M-651.474,306.254 L-647.629,309.178 -651.474,306.254 M-683.193,309.178 L-679.349,312.101 -683.193,309.178 M-683.273,350.509 Q-682.593,350.349 -681.912,350.229 -682.593,350.349 -683.273,350.509 -688.56,351.991 -691.203,347.345 -688.56,351.991 -683.273,350.509 M-834.422,356.917 Q-829.216,337.453 -837.706,319.31 -844.435,304.932 -855.048,293.158 -865.661,281.423 -881.241,279.701 -902.147,279.941 -881.361,280.021 -900.705,282.544 -916.445,293.959 -933.386,306.214 -937.431,326.599 -941.436,346.825 -933.185,365.528 -925.496,383.07 -909.636,393.883 -902.518,398.687 -894.377,399.931 -891.513,400.371 -888.53,400.371 -886.138,400.691 -883.844,400.772 -866.99,401.351 -853.967,389.278 -839.509,375.941 -834.422,356.917 M-889.811,327 Q-887.929,328.121 -887.929,329.723 -887.929,328.121 -889.811,327 -891.694,325.878 -894.337,325.878 -891.694,325.878 -889.811,327 M-867.584,327.841 Q-865.501,329.162 -865.501,331.005 -865.501,329.162 -867.584,327.841 -869.626,326.519 -872.55,326.519 -869.626,326.519 -867.584,327.841 M-916.124,361.763 L-896.9,368.171 -916.124,361.763 M60.495,271.811 L59.894,269.888 Q57.892,270.609 55.969,271.45 38.548,278.339 26.773,292.837 14.397,308.056 15.239,327.721 16.04,346.945 26.052,363.445 31.259,372.056 47.439,380.026 55.758,384.102 62.498,385.833 68.783,387.459 73.712,387.075 76.394,386.859 79.679,385.553 87.984,382.243 100.145,371.976 107.073,366.129 112.2,360.402 117.406,354.594 118.327,351.59 121.972,339.936 121.651,327.681 121.091,308.056 109.877,292.196 104.79,285.067 97.141,280.502 80.28,270.409 60.495,271.811 M43.874,319.711 L39.909,322.634 43.874,319.711 M80.56,310.739 L76.555,313.663 80.56,310.739 M75.994,364.687 Q74.873,364.487 73.752,364.326 74.873,364.487 75.994,364.687 87.529,366.289 93.616,356.316 87.529,366.289 75.994,364.687 M-159.58,276.176 Q-168.271,273.413 -177.162,275.816 -185.732,278.019 -193.142,282.865 -200.431,287.591 -206.719,293.798 -213.127,300.206 -217.212,308.377 -221.337,316.747 -222.338,325.918 -223.339,335.05 -221.257,343.941 -219.174,353.032 -214.608,361.042 -210.043,369.012 -203.515,375.46 -196.746,382.109 -188.296,386.354 -183.633,388.753 -178.684,390.039 -174.839,391.052 -170.834,391.4 -168.339,391.304 -165.868,391 -159.074,390.24 -152.491,388.036 -143.48,385.032 -135.91,379.185 -128.381,373.298 -123.735,364.767 -119.45,356.877 -117.327,348.226 -115.204,339.576 -115.965,330.644 -116.766,321.273 -120.931,312.702 -124.896,304.492 -130.864,297.643 -136.671,290.995 -143.319,285.148 -150.448,278.98 -159.58,276.176 M-151.81,314.985 Q-149.727,316.306 -149.727,318.149 -149.727,316.306 -151.81,314.985 -153.853,313.663 -156.776,313.663 -153.853,313.663 -151.81,314.985 M-183.009,312.502 Q-181.127,313.623 -181.127,315.225 -181.127,313.623 -183.009,312.502 -184.891,311.38 -187.535,311.38 -184.891,311.38 -183.009,312.502 M-189.577,368.812 Q-189.697,368.932 -189.697,369.172 -189.697,368.932 -189.577,368.812 -186.133,365.608 -183.049,368.812 -186.133,365.608 -189.577,368.812 M261.826,289.553 Q254.457,295.761 250.212,304.291 246.247,312.221 244.725,320.832 243.163,329.563 244.445,338.294 245.806,347.666 250.492,355.716 255.138,363.686 262.467,369.172 270.077,374.779 279.128,377.062 280.791,377.467 282.452,377.703 288.331,378.659 294.227,377.823 295.934,377.602 297.631,377.222 306.722,375.26 314.612,370.614 322.742,365.968 328.47,358.719 334.237,351.43 336.92,342.539 339.523,334.049 338.843,325.077 338.162,316.347 334.958,308.296 331.473,299.686 325.666,292.437 320.019,285.428 312.129,281.022 304.36,276.697 295.388,276.777 286.057,276.857 276.965,278.78 L276.605,279.42 276.885,280.141 281.731,278.78 276.885,280.141 Q268.755,283.746 261.826,289.553 M289.741,311.781 L295.188,312.422 289.741,311.781 M269.876,317.668 L264.43,317.027 269.876,317.668 M289.421,361.122 Q292.224,361.122 294.187,359.721 296.149,358.319 296.149,356.316 296.149,358.319 294.187,359.721 292.224,361.122 289.421,361.122Z" test="JurorsFront" vector-effect="non-scaling-stroke" stroke-width="1"/>
        <path id="Layer4_0_1_STROKES" stroke="#FFF" stroke-width="1.602" stroke-linejoin="round" stroke-linecap="round" fill="none" d="M276.885,280.141 Q268.755,283.746 261.826,289.553 254.457,295.761 250.212,304.291 246.247,312.221 244.725,320.832 243.163,329.563 244.445,338.294 245.806,347.666 250.492,355.716 255.138,363.686 262.467,369.172 270.077,374.779 279.128,377.062 280.791,377.467 282.452,377.723 288.331,378.659 294.247,377.843 295.934,377.602 297.631,377.222 306.722,375.26 314.612,370.614 322.742,365.968 328.47,358.719 334.237,351.43 336.92,342.539 339.523,334.049 338.843,325.077 338.162,316.347 334.958,308.296 331.473,299.686 325.666,292.437 320.019,285.428 312.129,281.022 304.36,276.697 295.388,276.777 286.057,276.857 276.965,278.78 L276.605,279.42 M281.731,278.78 L276.885,280.141 M289.741,311.781 L295.188,312.422 M269.876,317.668 L264.43,317.027 M-170.834,391.4 Q-168.339,391.304 -165.868,391.02 -159.074,390.24 -152.491,388.036 -143.48,385.032 -135.91,379.185 -128.381,373.298 -123.735,364.767 -119.45,356.877 -117.327,348.226 -115.204,339.576 -115.965,330.644 -116.766,321.273 -120.931,312.702 -124.896,304.492 -130.864,297.643 -136.671,290.995 -143.319,285.148 -150.448,278.98 -159.58,276.176 -168.271,273.413 -177.162,275.816 -185.732,278.019 -193.142,282.865 -200.431,287.591 -206.719,293.798 -213.127,300.206 -217.212,308.377 -221.337,316.747 -222.338,325.918 -223.339,335.05 -221.257,343.941 -219.174,353.032 -214.608,361.042 -210.043,369.012 -203.515,375.46 -196.746,382.109 -188.296,386.354 -183.633,388.753 -178.664,390.059 -174.839,391.052 -170.834,391.4Z M-156.776,313.663 Q-153.853,313.663 -151.79,314.985 -149.727,316.306 -149.727,318.149 M-187.535,311.38 Q-184.891,311.38 -183.009,312.502 -181.127,313.623 -181.127,315.225 M60.495,271.811 Q80.28,270.409 97.141,280.502 104.79,285.067 109.877,292.196 121.091,308.056 121.651,327.681 121.972,339.936 118.327,351.59 117.406,354.594 112.2,360.402 107.073,366.129 100.145,371.976 87.984,382.243 79.679,385.553 76.394,386.859 73.712,387.075 68.783,387.459 62.518,385.853 55.758,384.102 47.439,380.026 31.259,372.056 26.052,363.445 16.04,346.945 15.239,327.721 14.397,308.056 26.773,292.837 38.548,278.339 55.969,271.45 57.892,270.609 59.894,269.909 M43.874,319.711 L39.909,322.634 M80.56,310.739 L76.555,313.663 M93.616,356.316 Q87.529,366.289 75.994,364.687 74.873,364.487 73.752,364.326 M119.849,493.247 Q116.725,466.935 107.113,443.465 97.702,420.356 87.329,397.768 85.287,393.363 82.803,389.678 M60.735,389.678 Q57.865,396.441 56.37,404.176 54.488,413.948 52.085,423.44 46.438,445.668 42.032,468.376 39.629,480.912 37.266,493.247 M-220.616,481.913 Q-218.653,475.665 -216.13,469.618 -206,448.031 -197.707,426.364 -190.884,410.41 -182.308,396.006 -181.892,395.303 -181.467,394.604 M-163.465,394.604 Q-158.945,401.552 -155.174,409.182 -146.003,427.886 -137.552,446.789 -130.023,463.65 -125.177,481.913 M-183.049,368.812 Q-186.133,365.608 -189.577,368.812 -189.697,368.932 -189.697,369.172 M289.421,361.122 Q292.224,361.122 294.187,359.721 296.149,358.319 296.149,356.316 M242.202,510.108 Q246.688,482.995 254.257,457.002 257.541,445.708 260.665,434.294 267.554,409.142 277.726,386.794 279.085,383.838 280.57,381.067 M296.269,381.067 Q305.135,395.68 311.408,413.187 320.339,438.058 328.269,463.851 333.556,480.992 338.762,498.214 M-894.337,325.878 Q-891.694,325.878 -889.811,327 -887.929,328.121 -887.929,329.723 M-872.55,326.519 Q-869.626,326.519 -867.564,327.841 -865.501,329.162 -865.501,331.005 M-881.361,280.021 Q-900.705,282.544 -916.445,293.959 -933.386,306.214 -937.431,326.599 -941.436,346.825 -933.185,365.528 -925.496,383.07 -909.636,393.883 -902.518,398.687 -894.377,399.931 -891.513,400.371 -888.53,400.371 -886.138,400.691 -883.824,400.772 -866.99,401.351 -853.967,389.278 -839.509,375.941 -834.422,356.917 -829.216,337.453 -837.706,319.31 -844.435,304.932 -855.048,293.158 -865.661,281.423 -881.221,279.701 M-658.563,260.937 L-667.173,259.476 M-659.163,262.84 Q-697.091,260.757 -712.109,295.16 -720.6,314.664 -715.874,335.33 -709.586,362.885 -681.992,372.817 -677.387,374.409 -672.26,375.621 -669.934,376.159 -667.514,376.622 -666.526,376.808 -665.011,376.862 -663.518,376.854 -661.586,376.622 -660.274,376.465 -659.003,376.261 -627.981,371.234 -617.912,337.573 -607.419,302.489 -633.331,276.377 -644.065,265.643 -658.563,260.937 M-651.474,306.254 L-647.629,309.178 M-683.193,309.178 L-679.349,312.101 M-691.203,347.345 Q-688.56,351.991 -683.273,350.509 -682.593,350.349 -681.912,350.229 M-452.245,280.121 Q-458.753,282.624 -464.48,286.669 -471.008,291.355 -475.614,297.924 -479.739,303.771 -482.263,310.579 -484.666,317.188 -485.386,324.196 -486.147,331.365 -485.106,338.374 -483.985,345.823 -480.701,352.632 -477.577,359.2 -472.25,364.246 -466.883,369.333 -460.235,372.817 -455.865,375.139 -451.124,376.321 -448.256,377.041 -445.256,377.343 -438.408,378.344 -431.559,376.902 -430.99,376.781 -430.418,376.642 -423.868,375.113 -417.822,372.016 -411.374,368.612 -406.127,363.646 -400.841,358.559 -397.076,352.031 -393.472,345.903 -391.75,338.975 -390.027,332.126 -390.508,325.117 -391.029,317.788 -393.191,310.86 -395.314,304.051 -399.159,298.164 -403.004,292.236 -408.17,287.15 -413.657,281.823 -420.545,278.659 -427.594,275.415 -435.524,275.215 -442.253,275.896 -448.901,277.979 -450.503,278.459 -452.145,278.82 L-452.505,279.42 M-447.379,278.78 L-452.245,280.121 M-459.234,317.668 L-464.681,317.027 M-439.369,311.781 L-433.922,312.422 M-937.871,490.924 Q-929.901,471.741 -921.05,452.997 -912.84,435.615 -904.309,418.674 -901.465,413.007 -897.221,405.137 M-439.689,361.122 Q-436.886,361.122 -434.923,359.721 -432.961,358.319 -432.961,356.316 M-428.996,380.066 Q-421.52,390.937 -417.702,400.572 -408.811,423.12 -400.881,446.549 -395.594,462.048 -390.348,477.628 M-486.187,484.837 Q-485.226,479.03 -483.624,473.302 -477.617,451.635 -471.569,429.888 -465.041,406.539 -455.469,385.152 -454.815,383.695 -452.786,379.666 M-656.38,380.226 Q-635.018,412.903 -625.361,446.589 -619.274,467.936 -612.826,488.962 M-721.321,488.962 Q-713.832,444.987 -691.964,407.54 -684.502,394.713 -675.223,380.226 M-881.641,405.137 Q-876.797,414.792 -872.87,422.319 -863.659,439.901 -855.368,457.923 -847.959,473.983 -842.833,490.924 M-916.124,361.763 L-896.9,368.171" test="JurorsFront"/>
      </g>
    </g>
    <g id="Parrot">
      <path id="Layer2_0_1_STROKES" stroke="#FFF" stroke-width="2" stroke-linejoin="round" stroke-linecap="round" fill="none" d="M717.85,249.35 Q721.55,249.8 724.85,252.75 728.85,256.3 727.35,261.95 725.85,267.6 723.05,270.45 720.25,273.25 716.65,273.15 713,273.05 710.4,270.95 707.75,268.85 707.1,265.3 706.5,261.9 707.35,258.75 708.15,255.9 709.2,254.2 710.2,252.45 712.3,251.35 714.35,250.2 717.85,249.35Z M718.25,261.1 Q717.75,260.45 717,260.35 716.2,260.25 716.15,260.25 715.85,260.25 715.5,260.55 714.65,261.3 715.35,262.8 715.95,264.05 717.3,263.55 718.25,263.2 718.4,262.5 718.55,262 718.55,261.8 718.6,261.4 718.25,261.1Z M673.5,251.85 Q675.7,251.65 678.65,255.05 681.55,258.35 681.35,263 681.15,267.55 679.05,270.35 677,273.1 673.45,273 669.85,272.85 667.05,270.6 663.9,268.2 664.05,264.4 664.3,259.2 666.05,256.1 668.45,251.8 673.5,251.85Z M676.15,262.65 Q675.8,262.05 675.15,262 674.4,261.9 674.35,261.9 674.15,261.9 673.8,262.15 673.05,262.85 673.7,264.2 674.25,265.35 675.35,264.85 676.15,264.55 676.3,263.9 676.4,263.5 676.4,263.3 676.5,262.95 676.15,262.65Z" test="Parrot"/>
      <path id="Layer2_0_2_STROKES" stroke="#F00" stroke-width="2" stroke-linejoin="round" stroke-linecap="round" fill="none" d="M739.4,279.75 Q742.4,280.35 743.15,280.45 743.9,280.55 745.4,280.55 747.55,280.55 751.4,278.15 M733,305.35 L734.45,305.75 Q736.15,306.15 737.4,306.15 738.15,306.15 740.25,304.75 742.2,303.45 742.6,302.95 M775.4,328.65 Q766.55,319.05 763.65,306.4 761.2,295.6 762.7,279.95 764.05,266.15 757,253.25 749.2,239 736.45,233.5 723.7,227.95 713.85,227 704,226 694.6,229.45 685.15,232.9 678.25,239.85 671.4,246.7 671.15,248.25 M669.3,317.75 Q668.85,330.8 662.35,341.4 M701.8,306.15 Q704.05,308.65 705.5,311.4 705.7,311.75 708.2,311.75 709.5,311.75 711.25,311.25 711.6,311.15 714.6,310.15" test="Parrot"/>
      <path id="Layer2_0_3_STROKES" stroke="#0FF" stroke-width="2" stroke-linejoin="round" stroke-linecap="round" fill="none" d="M666.95,334.8 L666.3,338.7 Q667.2,339.15 668.3,339.25 669,339.35 670.5,339.35 674.65,339.35 677.75,335.8 680.9,332.2 683.2,332.2 684,332.2 688.4,332.85 692.75,333.5 693.6,333.5 698.55,333.5 699.55,331.25 700.5,328.95 704.3,328.95 705.15,328.95 708.25,329.6 711.4,330.25 712.2,330.25 712.75,330.25 714.7,328.3 716.6,326.35 719,326.35 719.85,326.35 723.1,327 726.35,327.65 727.15,327.65 728.05,327.65 730.55,326.35 731.8,325.7 733,325.05 733.15,325.05 736.15,326.35 739.5,327.65 741.1,327.65 743.15,327.65 745.8,326.7 747.1,326.2 748.25,325.7 750.25,325.7 760.3,328 768.65,329.9 772.4,330.2 773.15,330.25 773.7,330.25 M702.75,353.1 Q702.2,354.95 700.4,371.75 698.65,388 697.55,390.85 696,395.05 695.45,405.75 694.85,417.1 696.25,424.05 697.8,431.75 705.05,452.8 712.5,474.4 715.8,480.05 717.35,482.75 722.05,490.05 725.85,495.95 728.8,501.55 732.7,508.95 735.8,511.9 738.95,514.95 743.8,515.9 747.05,516.55 752.1,517.75 755.5,518.15 755.5,515.25 755.5,507.15 763.95,511.35 769.9,514.3 771.95,514.7 775.25,515.35 777,512.65 778.3,510.7 780.05,507.35 781.95,504.75 786.1,503.5 788.8,502.7 791.2,504.5 791.85,505 793.3,499.6 794.95,493.5 797.55,486.8 L799.8,481.35 Q800.45,477.45 802.4,468.35 804.1,460.35 803.3,450.25 802.3,438.05 797.85,428.65 797.6,428.15 786.45,406.1 779.35,392 777,385 775.25,379.75 771.9,372.4 769.55,367.3 769.2,364.15 M804.85,384.65 Q804.25,384.3 803.35,384.3 803.2,384.3 795.55,386.9 793.9,386 791.9,384.95 791.55,386.85 790.2,388.3 789.05,389.5 788.3,389.5 786.65,389.5 785.3,388.3 784.2,387.35 784.1,387.55 783.25,388.45 782,389.05 780.55,389.7 779.55,389.5 M776.95,333.5 Q804,359.35 804.3,384.3 L804.95,384.3 M662.35,341.4 Q657.9,353.3 654.25,365.6 650.6,377.85 647.55,390.3 645.6,398.2 643.2,406 639.35,418.45 638.4,431.4 638.2,434.45 638.4,437.4 639.15,450.25 637.1,463.15 636.45,467.45 634.55,471.35 633.15,474.2 631.8,477 630.05,474.65 629.55,471.55 625.6,447.15 627.45,422.7 627.75,418.8 628.45,414.9 629.65,408.45 630.7,402 631.7,396.05 633.9,390.4 638.45,378.65 643.3,367.1 649.7,352.05 662.35,341.4Z M649.3,401.9 Q651.9,404.35 654.95,404.95 655.85,405.15 659.15,405.15 661,405.15 661.85,403.55 662.7,401.9 665.65,401.9 667.6,401.9 671.9,402.3 675.75,402.55 678,401.9 683.55,400.35 688.6,400 689.95,399.9 694.25,399.9" test="Parrot"/>
      <path id="Layer2_0_4_STROKES" stroke="#0F0" stroke-width="2" stroke-linejoin="round" stroke-linecap="round" fill="none" d="M808.7,410.9 Q809.5,409.65 809.5,407.45 809.5,405.9 807.35,396.3 805.1,386.55 804.3,384.95" test="Parrot"/>
      <path id="Layer2_0_5_STROKES" stroke="#FF0" stroke-width="2" stroke-linejoin="round" stroke-linecap="round" fill="none" d="M805.6,444.15 L811.45,444.15 Q811.15,442.75 812.2,438.95 813.4,434.8 813.4,433.75 813.4,427.45 811.5,419.4 809.9,412.6 808.7,410.9 M669.6,278.8 Q659.1,284.15 658,293.85 657.5,298.3 657.2,302.85 672.75,305.5 678.85,301.15 680.9,294.25 677.8,289 674.65,283.7 673.15,282.25 671.65,280.75 669.6,278.8Z M663.05,304.15 Q661,314.55 671.9,315.25 673.9,315.1 675.55,314.3 679.55,311.4 678,302.75 M642.15,458.55 Q644.9,460.9 646.05,462.25 646.35,462.45 649.6,462.45 652.2,462.45 660.8,459.2 667.75,456.6 669.8,456.1 670.05,456 670.2,456 670.25,456.95 674.8,457.2 675.75,457.25 680.6,457.25 682.5,457.25 686.45,456.3 690.4,455.3 691.95,455.3 694.35,455.3 694.55,455.25 695.8,454.85 696.2,452.6 704,454.4 702.05,453.9 M669.8,456.1 Q669.55,456.2 669.75,456.55 670.2,457.25 670.2,456 M655.8,502.85 Q651.85,505.9 650.95,508.4 650.6,509.45 650.6,513.55 650.6,518.95 653.75,520.7 656.15,522 665.65,523 665.65,521.4 665.35,520.05 667.35,520.8 670.2,521.7 L673.45,521.7 Q672.15,520 671.1,518.6 673.35,519.4 675.4,520.4 L679.95,520.4 679.95,517.15 Q676.35,513.95 675.2,508.25 674.6,502.7 674.1,501.55 673.45,501.55 672.15,500.9 M687.75,503.5 Q686.9,513.7 688.65,516.7 690.15,519.3 696.2,519.75 L696.2,515.85 Q695.65,514.75 695.1,511.85 695.25,512.05 695.35,512.3 698.2,518.05 703.35,519.1 L703.35,513.95 Q704,515 704.8,516 707.4,519.1 710.5,519.75 L711.2,519.75 Q711.55,517.65 710.45,513.9 709.2,509.75 709.2,508.05 709.2,504.6 711.85,502.85 M724.2,508.7 Q723.4,521.5 732.65,545.1 736.6,555.2 740.5,561.65 744.7,568.55 747.3,568.55 751,568.55 751.9,568.15 754.95,566.8 755.4,561.4 757.75,562.55 763.85,563.35 769.2,563.35 770.95,557.85 772.05,554.45 772.25,554.05 773.2,552.3 775,552.3 775.7,552.3 782.8,554.9 783.9,554.9 785.75,551.65 787.75,548.15 789.3,547.75 793,546.7 798.2,545.95 801.9,545 803.65,541.25 804.7,541.25 806.5,541.6 808.3,541.9 808.85,541.9 L808.85,520.4 Q806.25,511.5 803.5,499.35 801.4,490.15 799.75,485.95" test="Parrot"/>
      <path id="Layer2_0_6_STROKES" stroke="#F0F" stroke-width="2" stroke-linejoin="round" stroke-linecap="round" fill="none" d="M631.8,477 L632.8,486.1 Q634.4,495.95 637.65,499.6 639.3,501.45 640.25,503.75 640.8,505 641.4,506.9 641.9,508.25 642.75,508.4 643.8,508.55 646.1,507.4 649.15,505.9 651.7,502.95 653.45,500.9 655.85,500.9 658.15,500.9 663.95,501.8 669.1,502.25 671.5,500.25 673.85,498.3 678.6,499.45 681.3,500.1 687.15,501.55 690.1,501.9 694.45,502.75 697.95,503.15 700.8,501.55 703.75,499.9 706.75,500 708.65,500.1 713.2,500.9 715.8,501.25 718.65,502.3 720.45,502.65 721.65,500.25 M804.95,485.95 Q807.3,473.95 808.65,465.65 809.75,459.15 811.45,446.75 M766.55,631.1 Q769.35,639.2 770.1,640.4 771.2,642.15 774,642.15 775.05,642.15 775.35,642.05 776.75,641.4 778.25,638.9 796.95,657.75 798.15,657.75 805.65,657.75 808.85,644.8 810.8,637 810.8,627.55 810.8,621.6 809.5,615.95 808.65,612.25 806.9,607.65" test="Parrot"/>
      <path id="Layer2_0_7_STROKES" stroke="#F60" stroke-width="2" stroke-linejoin="round" stroke-linecap="round" fill="none" d="M748.9,573.1 Q748.4,572.3 747.85,571.5 746.7,569.85 746.3,569.85 L746.3,573.1 Q747.55,580.7 755.9,603.15 765.75,629.8 770.75,629.8 772.9,629.8 777.8,625.6 782.35,621.35 782.45,621.35 783.3,621.35 785.7,622 788.15,622.65 788.95,622.65 791.4,622.65 793.8,617.75 795.45,614.35 795.85,612.2 801.5,612.2 804.35,609.3 807.2,606.35 810.15,606.35 810.15,604.1 810.5,599.1 810.8,594.1 810.8,593.6 810.8,589.05 807.9,578.95 804.6,567.55 804.3,565.3 803.8,561.8 804,555.75 804.3,549.4 804.3,547.1 L803.65,547.1" test="Parrot"/>
    </g>
    <g id="JuryBoxFront">
      <path fill="#000" stroke="none" d="M-1650.8,514.35 L-1673.1,488.3 -1674.95,617.25 Q-1666.772,617.251 -1655.3,617.25 L-1650.8,514.35 M1291.25,500.95 L1289.9,500.95 1272.05,518.5 1272.05,613 Q1282.534,613.017 1291.25,613 L1291.25,500.95 M1119.8,512.95 Q1045.3,514.65 970.95,518.9 895.5,522.55 820,523 742.6,523.45 665.2,523.35 589.7,523.25 514.2,523 434.4,522.75 354.6,521.8 275.9,520.9 197.25,519.6 119.15,518.35 41.05,520.35 -36.25,522.3 -113.6,526.5 -188.85,529.75 -264.25,528.6 -343.65,527.35 -423,522.45 -496.95,517.5 -571.2,516.45 -645.1,515.45 -719.05,516.1 -798.4,516.8 -877.75,518 -957.4,519.25 -1037,520.45 -1116.05,521.65 -1195.2,522.95 -1272.2,524.25 -1349.25,524.85 -1426,525.45 -1502.95,523.95 -1577.1,522.5 -1650.8,514.35 L-1655.3,617.25 Q-1449.342,617.16 -180.5,615.15 1027.373,613.195 1272.05,613 L1272.05,518.5 Q1196.1,511.25 1119.8,512.95 M952.1,502.85 Q946.894,503.094 941.7,503.3 865.75,505.8 789.8,505.8 766.786,505.8 743.75,505.8 688.221,505.815 632.65,505.85 624.412,505.856 616.15,505.85 544.857,505.781 473.5,504.75 450.625,504.422 427.75,503.75 404.868,503.598 381.95,503.4 364.802,503.302 347.6,503.15 330.436,502.697 313.25,502.45 233.55,501.35 153.8,500.55 91.763,499.94 29.75,502.65 20.656,503.077 11.55,503.55 -63.5,507 -138.4,510.95 L-298.45,511.75 Q-378.75,507.9 -458.95,502.95 -531.6,497.9 -604.7,497.2 -683.75,496.4 -762.7,497.5 -839.8,498.6 -917,500.15 -989.65,501.65 -1062.35,503.2 -1136.25,504.75 -1210.25,505.95 -1288.2,507.2 -1366.35,506.2 -1442.05,505.25 -1517.65,500.25 -1595.45,495.6 -1673.1,488.3 L-1650.8,514.35 Q-1577.1,522.5 -1502.95,523.95 -1426,525.45 -1349.25,524.85 -1272.2,524.25 -1195.2,522.95 -1116.05,521.65 -1037,520.45 -957.4,519.25 -877.75,518 -798.4,516.8 -719.05,516.1 -645.1,515.45 -571.2,516.45 -496.95,517.5 -423,522.45 -343.65,527.35 -264.25,528.6 -188.85,529.75 -113.6,526.5 -36.25,522.3 41.05,520.35 119.15,518.35 197.25,519.6 275.9,520.9 354.6,521.8 434.4,522.75 514.2,523 589.7,523.25 665.2,523.35 742.6,523.45 820,523 895.5,522.55 970.95,518.9 1045.3,514.65 1119.8,512.95 1196.1,511.25 1272.05,518.5 L1289.9,500.95 1289.95,500.15 Q1271.562,498.494 1253.15,496.85 1239.052,495.536 1224.95,494.6 1164.985,490.798 1104.8,494.4 1028.531,499.691 952.1,502.85Z" test="JuryBoxFront"/>
      <path id="Layer1_0_1_STROKES" stroke="#F60" stroke-width="2" stroke-linejoin="round" stroke-linecap="round" fill="none" d="M1289.975,500.175 Q1271.562,498.494 1253.15,496.85 1239.052,495.536 1224.95,494.625 1164.985,490.798 1104.8,494.4 1028.531,499.691 952.1,502.875 946.894,503.094 941.7,503.3 865.75,505.8 789.8,505.8 766.786,505.8 743.775,505.8 688.221,505.815 632.65,505.85 624.412,505.856 616.175,505.85 544.857,505.781 473.5,504.75 450.625,504.422 427.75,503.775 404.868,503.598 381.975,503.425 364.802,503.302 347.625,503.175 330.436,502.697 313.25,502.45 233.55,501.35 153.8,500.55 91.763,499.94 29.775,502.675 20.656,503.077 11.55,503.55 -63.5,507 -138.4,510.95 L-298.45,511.75 Q-378.75,507.9 -458.95,502.95 -531.6,497.9 -604.7,497.2 -683.75,496.4 -762.7,497.5 -839.8,498.6 -917,500.15 -989.65,501.65 -1062.35,503.2 -1136.25,504.75 -1210.25,505.95 -1288.2,507.2 -1366.35,506.2 -1442.05,505.25 -1517.65,500.25 -1595.45,495.6 -1673.1,488.3 L-1650.8,514.35 Q-1577.1,522.5 -1502.95,523.95 -1426,525.45 -1349.25,524.85 -1272.2,524.25 -1195.2,522.95 -1116.05,521.65 -1037,520.45 -957.4,519.25 -877.75,518 -798.4,516.8 -719.05,516.1 -645.1,515.45 -571.2,516.45 -496.95,517.5 -423,522.45 -343.65,527.35 -264.25,528.6 -188.85,529.75 -113.6,526.5 -36.25,522.3 41.05,520.35 119.15,518.35 197.25,519.6 275.9,520.9 354.6,521.8 434.4,522.75 514.2,523 589.7,523.25 665.2,523.35 742.6,523.45 820,523 895.5,522.55 970.95,518.9 1045.3,514.65 1119.8,512.95 1196.1,511.25 1272.05,518.5 L1289.9,500.95 M1289.975,500.175 Q1290.612,500.242 1291.25,500.3 L1291.25,500.95 1291.25,613 1291.25,624.2 M1272.05,624.2 L1272.05,613.025 M-1655.3,617.25 L-1655.6,624.2 M1272.05,613.025 L1272.05,518.5 M-1675.05,624.2 L-1674.95,617.25 -1673.1,488.3 M-1650.8,514.35 L-1655.3,617.25" test="JuryBoxFront"/>
    </g>
  </g>
</svg>