<?xml version="1.0" encoding="utf-8"?>
<svg id="EdithAnim12" image-rendering="inherit" baseProfile="basic" version="1.1" x="0px" y="0px" width="800" height="600" xmlns="http://www.w3.org/2000/svg" xmlns:xlink="http://www.w3.org/1999/xlink">
  <g id="14_JurorParrotf71r1" overflow="visible">
    <g id="JurorsBack">
      <path fill="#000" stroke="none" d="M-368.93,132.23 Q-370.93,132.91 -372.85,133.75 -390.25,140.63 -402.01,155.11 -414.37,170.31 -413.53,189.95 -412.73,209.15 -402.73,225.63 -397.53,234.23 -381.37,242.19 -373.05,246.27 -366.29,248.03 -360.05,249.63 -355.13,249.23 -352.45,249.03 -349.17,247.71 -340.89,244.39 -328.73,234.15 -321.81,228.31 -316.69,222.59 -311.49,216.79 -310.57,213.79 -306.93,202.15 -307.25,189.91 -307.81,170.31 -319.01,154.47 -324.09,147.35 -331.73,142.79 -348.57,132.71 -368.33,134.11 L-368.93,132.23 M-384.93,181.95 L-388.89,184.87 -384.93,181.95 M-348.29,172.99 L-352.29,175.91 -348.29,172.99 M-352.85,226.87 Q-353.97,226.67 -355.09,226.51 -353.97,226.67 -352.85,226.87 -341.33,228.47 -335.25,218.51 -341.33,228.47 -352.85,226.87 M-588.69,138.11 Q-597.25,140.31 -604.65,145.15 -611.93,149.87 -618.21,156.07 -624.61,162.47 -628.69,170.63 -632.81,178.99 -633.81,188.15 -634.81,197.27 -632.73,206.15 -630.65,215.23 -626.09,223.23 -621.53,231.19 -615.01,237.63 -608.25,244.27 -599.81,248.51 -595.17,250.91 -590.17,252.23 -586.37,253.19 -582.37,253.55 -579.89,253.47 -577.41,253.19 -570.61,252.39 -564.05,250.19 -555.05,247.19 -547.49,241.35 -539.97,235.47 -535.33,226.95 -531.05,219.07 -528.93,210.43 -526.81,201.79 -527.57,192.87 -528.37,183.51 -532.53,174.95 -536.49,166.75 -542.45,159.91 -548.25,153.27 -554.89,147.43 -562.01,141.27 -571.13,138.47 -579.81,135.71 -588.69,138.11 M-563.33,177.23 Q-561.29,178.55 -561.29,180.39 -561.29,178.55 -563.33,177.23 -565.41,175.91 -568.33,175.91 -565.41,175.91 -563.33,177.23 M-594.53,174.75 Q-592.65,175.87 -592.65,177.47 -592.65,175.87 -594.53,174.75 -596.41,173.63 -599.05,173.63 -596.41,173.63 -594.53,174.75 M-601.09,230.99 Q-601.21,231.11 -601.21,231.35 -601.21,231.11 -601.09,230.99 -597.65,227.79 -594.57,230.99 -597.65,227.79 -601.09,230.99 M-812.69,141.71 L-812.41,142.43 -807.57,141.07 -812.41,142.43 Q-818.93,144.91 -824.65,148.95 -831.17,153.63 -835.77,160.19 -839.89,166.03 -842.41,172.83 -844.81,179.43 -845.53,186.43 -846.29,193.59 -845.25,200.59 -844.13,208.03 -840.85,214.83 -837.73,221.39 -832.41,226.43 -827.05,231.51 -820.41,234.99 -816.05,237.31 -811.29,238.51 -808.45,239.19 -805.45,239.51 -798.61,240.51 -791.77,239.07 -791.21,238.95 -790.61,238.83 -784.09,237.27 -778.05,234.19 -771.61,230.79 -766.37,225.83 -761.09,220.75 -757.33,214.23 -753.73,208.11 -752.01,201.19 -750.29,194.35 -750.77,187.35 -751.29,180.03 -753.45,173.11 -755.57,166.31 -759.41,160.43 -763.25,154.51 -768.41,149.43 -773.89,144.11 -780.77,140.95 -787.81,137.71 -795.73,137.51 -802.45,138.19 -809.09,140.27 -810.69,140.75 -812.33,141.11 L-812.69,141.71 M-799.57,174.03 L-794.13,174.67 -799.57,174.03 M-795.13,221.91 Q-793.17,220.51 -793.17,218.51 -793.17,220.51 -795.13,221.91 -797.09,223.31 -799.89,223.31 -797.09,223.31 -795.13,221.91 M-819.41,179.91 L-824.85,179.27 -819.41,179.91 M44.83,135.83 Q36.43,137.71 28.79,141.95 20.51,146.59 14.55,153.99 8.95,160.95 6.51,169.51 3.95,178.31 3.55,187.55 3.15,196.55 4.31,205.51 5.43,214.39 10.43,221.83 15.59,229.51 23.11,234.75 30.39,239.87 38.71,243.03 47.55,246.31 56.99,246.75 65.99,247.51 74.39,244.11 83.19,240.63 89.51,233.43 95.87,226.23 99.83,217.67 103.79,209.07 105.43,199.63 106.99,190.63 105.87,181.51 104.71,171.99 100.43,163.31 96.19,154.83 89.23,148.47 83.31,143.03 76.47,138.79 69.95,134.71 62.63,132.23 L62.03,134.11 Q53.31,134.07 44.83,135.83 M69.71,177.47 L73.55,180.39 69.71,177.47 M38.03,180.39 L41.87,183.31 38.03,180.39 M37.95,221.67 Q38.63,221.51 39.31,221.39 38.63,221.51 37.95,221.67 32.71,223.15 30.03,218.51 32.71,223.15 37.95,221.67 M-178.85,166.55 Q-182.81,174.47 -184.33,183.07 -185.89,191.79 -184.61,200.51 -183.25,209.87 -178.57,217.91 -173.93,225.87 -166.61,231.35 -159.01,236.95 -149.97,239.23 -148.29,239.63 -146.65,239.91 -140.77,240.83 -134.85,240.03 -133.17,239.75 -131.49,239.39 -122.41,237.43 -114.53,232.79 -106.41,228.15 -100.69,220.91 -94.93,213.63 -92.25,204.75 -89.65,196.27 -90.33,187.31 -91.01,178.59 -94.21,170.55 -97.69,161.95 -103.49,154.71 -109.13,147.71 -117.01,143.31 -124.77,138.99 -133.73,139.07 -143.05,139.15 -152.13,141.07 L-152.49,141.71 -152.21,142.43 -147.37,141.07 -152.21,142.43 Q-160.33,146.03 -167.25,151.83 -174.61,158.03 -178.85,166.55 M-159.21,179.91 L-164.65,179.27 -159.21,179.91 M-139.37,174.03 L-133.93,174.67 -139.37,174.03 M-139.69,223.31 Q-136.89,223.31 -134.93,221.91 -132.97,220.51 -132.97,218.51 -132.97,220.51 -134.93,221.91 -136.89,223.31 -139.69,223.31Z" test="JurorsBack" vector-effect="non-scaling-stroke" stroke-width="1"/>
      <path id="Layer3_0_1_STROKES" stroke="#FFF" stroke-width="1.6" stroke-linejoin="round" stroke-linecap="round" fill="none" d="M-152.21,142.43 Q-160.33,146.03 -167.25,151.83 -174.61,158.03 -178.85,166.55 -182.81,174.47 -184.33,183.07 -185.89,191.79 -184.61,200.51 -183.25,209.87 -178.57,217.91 -173.93,225.87 -166.61,231.35 -159.01,236.95 -149.97,239.23 -148.29,239.63 -146.65,239.91 -140.77,240.83 -134.85,240.03 -133.17,239.75 -131.49,239.39 -122.41,237.43 -114.53,232.79 -106.41,228.15 -100.69,220.91 -94.93,213.63 -92.25,204.75 -89.65,196.27 -90.33,187.31 -91.01,178.59 -94.21,170.55 -97.69,161.95 -103.49,154.71 -109.13,147.71 -117.01,143.31 -124.77,138.99 -133.73,139.07 -143.05,139.15 -152.13,141.07 L-152.49,141.71 M-147.37,141.07 L-152.21,142.43 M-159.21,179.91 L-164.65,179.27 M-139.37,174.03 L-133.93,174.67 M-139.69,223.31 Q-136.89,223.31 -134.93,221.91 -132.97,220.51 -132.97,218.51 M62.03,134.11 Q53.31,134.07 44.83,135.83 36.43,137.71 28.79,141.95 20.51,146.59 14.55,153.99 8.95,160.95 6.51,169.51 3.95,178.31 3.55,187.55 3.15,196.55 4.31,205.51 5.43,214.39 10.43,221.83 15.59,229.51 23.11,234.75 30.39,239.87 38.71,243.03 47.55,246.31 56.99,246.75 65.99,247.51 74.39,244.11 83.19,240.63 89.51,233.43 95.87,226.23 99.83,217.67 103.79,209.07 105.43,199.63 106.99,190.63 105.87,181.51 104.71,171.99 100.43,163.31 96.19,154.83 89.23,148.47 83.31,143.03 76.47,138.79 69.95,134.71 62.63,132.23 L54.03,130.75 M69.71,177.47 L73.55,180.39 M38.03,180.39 L41.87,183.31 M30.03,218.51 Q32.71,223.15 37.95,221.67 38.63,221.51 39.31,221.39 M59.67,251.67 Q60.47,252.67 61.31,253.71 84.47,283.03 95.99,319.99 102.99,342.51 110.03,364.91 M-.37,366.63 Q4.03,322.87 25.99,285.87 36.83,267.55 51.47,253.71 52.55,252.67 53.63,251.67 M-186.85,372.11 Q-182.37,345.03 -174.81,319.07 -171.53,307.79 -168.41,296.39 -161.53,271.27 -151.37,248.95 -150.01,245.99 -148.53,243.23 M-132.85,243.23 Q-124.01,257.83 -117.73,275.31 -108.81,300.15 -100.89,325.91 -95.61,343.03 -90.41,360.23 M-807.57,141.07 L-812.41,142.43 Q-818.93,144.91 -824.65,148.95 -831.17,153.63 -835.77,160.19 -839.89,166.03 -842.41,172.83 -844.81,179.43 -845.53,186.43 -846.29,193.59 -845.25,200.59 -844.13,208.03 -840.85,214.83 -837.73,221.39 -832.41,226.43 -827.05,231.51 -820.41,234.99 -816.05,237.31 -811.29,238.51 -808.45,239.19 -805.45,239.51 -798.61,240.51 -791.77,239.07 -791.21,238.95 -790.61,238.83 -784.09,237.27 -778.05,234.19 -771.61,230.79 -766.37,225.83 -761.09,220.75 -757.33,214.23 -753.73,208.11 -752.01,201.19 -750.29,194.35 -750.77,187.35 -751.29,180.03 -753.45,173.11 -755.57,166.31 -759.41,160.43 -763.25,154.51 -768.41,149.43 -773.89,144.11 -780.77,140.95 -787.81,137.71 -795.73,137.51 -802.45,138.19 -809.09,140.27 -810.69,140.75 -812.33,141.11 L-812.69,141.71 M-799.57,174.03 L-794.13,174.67 M-799.89,223.31 Q-797.09,223.31 -795.13,221.91 -793.17,220.51 -793.17,218.51 M-582.37,253.55 Q-579.89,253.47 -577.41,253.19 -570.61,252.39 -564.05,250.19 -555.05,247.19 -547.49,241.35 -539.97,235.47 -535.33,226.95 -531.05,219.07 -528.93,210.43 -526.81,201.79 -527.57,192.87 -528.37,183.51 -532.53,174.95 -536.49,166.75 -542.45,159.91 -548.25,153.27 -554.89,147.43 -562.01,141.27 -571.13,138.47 -579.81,135.71 -588.69,138.11 -597.25,140.31 -604.65,145.15 -611.93,149.87 -618.21,156.07 -624.61,162.47 -628.69,170.63 -632.81,178.99 -633.81,188.15 -634.81,197.27 -632.73,206.15 -630.65,215.23 -626.09,223.23 -621.53,231.19 -615.01,237.63 -608.25,244.27 -599.81,248.51 -595.17,250.91 -590.17,252.23 -586.37,253.19 -582.37,253.55Z M-568.33,175.91 Q-565.41,175.91 -563.33,177.23 -561.29,178.55 -561.29,180.39 M-599.05,173.63 Q-596.41,173.63 -594.53,174.75 -592.65,175.87 -592.65,177.47 M-368.33,134.11 Q-348.57,132.71 -331.73,142.79 -324.09,147.35 -319.01,154.47 -307.81,170.31 -307.25,189.91 -306.93,202.15 -310.57,213.79 -311.49,216.79 -316.69,222.59 -321.81,228.31 -328.73,234.15 -340.89,244.39 -349.17,247.71 -352.45,249.03 -355.13,249.23 -360.05,249.63 -366.29,248.03 -373.05,246.27 -381.37,242.19 -397.53,234.23 -402.73,225.63 -412.73,209.15 -413.53,189.95 -414.37,170.31 -402.01,155.11 -390.25,140.63 -372.85,133.75 -370.93,132.91 -368.93,132.23 M-384.93,181.95 L-388.89,184.87 M-348.29,172.99 L-352.29,175.91 M-335.25,218.51 Q-341.33,228.47 -352.85,226.87 -353.97,226.67 -355.09,226.51 M-819.41,179.91 L-824.85,179.27 M-846.33,346.87 Q-845.37,341.07 -843.77,335.35 -837.77,313.71 -831.73,291.99 -825.21,268.67 -815.65,247.31 -815.01,245.87 -812.97,241.83 M-309.05,355.27 Q-312.17,328.99 -321.77,305.55 -331.17,282.47 -341.53,259.91 -343.57,255.51 -346.05,251.83 M-368.09,251.83 Q-370.97,258.59 -372.45,266.31 -374.33,276.07 -376.73,285.55 -382.37,307.75 -386.77,330.43 -389.17,342.95 -391.53,355.27 M-575.01,256.75 Q-570.49,263.67 -566.73,271.31 -557.57,289.99 -549.13,308.87 -541.61,325.71 -536.77,343.95 M-594.57,230.99 Q-597.65,227.79 -601.09,230.99 -601.21,231.11 -601.21,231.35 M-632.09,343.95 Q-630.13,337.71 -627.61,331.67 -618.49,310.11 -609.21,288.47 -602.41,272.55 -593.81,258.15 -593.41,257.43 -592.97,256.75 M-789.21,242.23 Q-781.73,253.07 -777.93,262.71 -769.05,285.23 -761.13,308.63 -755.85,324.11 -750.61,339.67" test="JurorsBack"/>
    </g>
    <g id="Tween-1">
      <g id="JurorsFront">
        <path fill="#000" stroke="none" d="M-520.724,275.215 Q-527.453,275.896 -534.101,277.979 -535.703,278.459 -537.345,278.82 L-537.705,279.42 -537.465,280.101 -532.579,278.78 -537.465,280.101 Q-543.953,282.624 -549.68,286.669 -556.208,291.355 -560.814,297.924 -564.939,303.771 -567.463,310.579 -569.866,317.188 -570.586,324.196 -571.347,331.365 -570.306,338.374 -569.185,345.823 -565.901,352.632 -562.777,359.2 -557.45,364.246 -552.083,369.333 -545.435,372.817 -541.065,375.139 -536.344,376.301 -533.456,377.041 -530.456,377.343 -523.608,378.344 -516.759,376.902 -516.19,376.781 -515.638,376.622 -509.068,375.113 -503.022,372.016 -496.574,368.612 -491.327,363.646 -486.041,358.559 -482.276,352.031 -478.672,345.903 -476.95,338.975 -475.227,332.126 -475.708,325.117 -476.229,317.788 -478.391,310.86 -480.514,304.051 -484.359,298.164 -488.204,292.236 -493.37,287.15 -498.857,281.823 -505.745,278.659 -512.794,275.415 -520.724,275.215 M-544.434,317.668 L-549.881,317.027 -544.434,317.668 M-524.569,311.781 L-519.122,312.422 -524.569,311.781 M-524.889,361.122 Q-522.086,361.122 -520.123,359.721 -518.161,358.319 -518.161,356.316 -518.161,358.319 -520.123,359.721 -522.086,361.122 -524.889,361.122 M-743.763,260.917 L-744.363,262.84 Q-782.291,260.757 -797.31,295.16 -805.8,314.664 -801.074,335.33 -794.786,362.885 -767.192,372.817 -762.587,374.409 -757.46,375.621 -755.134,376.159 -752.734,376.622 -751.726,376.808 -750.211,376.862 -748.718,376.854 -746.806,376.622 -745.474,376.465 -744.203,376.261 -713.181,371.234 -703.112,337.573 -692.619,302.489 -718.531,276.377 -729.265,265.643 -743.763,260.917 M-736.674,306.254 L-732.829,309.178 -736.674,306.254 M-768.393,309.178 L-764.549,312.101 -768.393,309.178 M-768.473,350.509 Q-767.793,350.349 -767.112,350.229 -767.793,350.349 -768.473,350.509 -773.76,351.991 -776.403,347.345 -773.76,351.991 -768.473,350.509 M-919.622,356.917 Q-914.416,337.453 -922.906,319.31 -929.635,304.932 -940.248,293.158 -950.861,281.423 -966.441,279.701 -987.347,279.941 -966.561,280.021 -985.905,282.544 -1001.645,293.959 -1018.586,306.214 -1022.631,326.599 -1026.636,346.825 -1018.386,365.528 -1010.696,383.07 -994.836,393.883 -987.718,398.687 -979.577,399.931 -976.713,400.371 -973.73,400.371 -971.338,400.691 -969.044,400.772 -952.19,401.351 -939.167,389.278 -924.709,375.941 -919.622,356.917 M-975.011,327 Q-973.129,328.121 -973.129,329.723 -973.129,328.121 -975.011,327 -976.894,325.878 -979.537,325.878 -976.894,325.878 -975.011,327 M-952.784,327.841 Q-950.701,329.162 -950.701,331.005 -950.701,329.162 -952.784,327.841 -954.826,326.519 -957.75,326.519 -954.826,326.519 -952.784,327.841 M-1001.324,361.763 L-982.1,368.171 -1001.324,361.763 M-24.705,271.811 L-25.306,269.888 Q-27.308,270.609 -29.231,271.45 -46.652,278.339 -58.427,292.837 -70.803,308.056 -69.961,327.721 -69.16,346.945 -59.148,363.445 -53.941,372.056 -37.761,380.026 -29.442,384.102 -22.702,385.833 -16.417,387.459 -11.488,387.075 -8.806,386.859 -5.521,385.553 2.784,382.243 14.945,371.976 21.873,366.129 27,360.402 32.206,354.594 33.127,351.59 36.772,339.936 36.451,327.681 35.891,308.056 24.677,292.196 19.59,285.067 11.941,280.502 -4.92,270.409 -24.705,271.811 M-41.326,319.711 L-45.291,322.634 -41.326,319.711 M-4.64,310.739 L-8.645,313.663 -4.64,310.739 M-9.206,364.687 Q-10.327,364.487 -11.448,364.326 -10.327,364.487 -9.206,364.687 2.329,366.289 8.416,356.316 2.329,366.289 -9.206,364.687 M-244.78,276.176 Q-253.471,273.413 -262.362,275.816 -270.932,278.019 -278.342,282.865 -285.631,287.591 -291.919,293.798 -298.327,300.206 -302.412,308.377 -306.537,316.747 -307.538,325.918 -308.539,335.05 -306.457,343.941 -304.374,353.032 -299.808,361.042 -295.243,369.012 -288.715,375.46 -281.946,382.109 -273.496,386.354 -268.833,388.753 -263.884,390.039 -260.039,391.052 -256.034,391.4 -253.539,391.304 -251.068,391 -244.274,390.24 -237.691,388.036 -228.68,385.032 -221.11,379.185 -213.581,373.298 -208.935,364.767 -204.65,356.877 -202.527,348.226 -200.404,339.576 -201.165,330.644 -201.966,321.273 -206.131,312.702 -210.096,304.492 -216.064,297.643 -221.871,290.995 -228.519,285.148 -235.648,278.98 -244.78,276.176 M-237.01,314.985 Q-234.927,316.306 -234.927,318.149 -234.927,316.306 -237.01,314.985 -239.053,313.663 -241.976,313.663 -239.053,313.663 -237.01,314.985 M-268.209,312.502 Q-266.327,313.623 -266.327,315.225 -266.327,313.623 -268.209,312.502 -270.091,311.38 -272.735,311.38 -270.091,311.38 -268.209,312.502 M-274.777,368.812 Q-274.897,368.932 -274.897,369.172 -274.897,368.932 -274.777,368.812 -271.333,365.608 -268.249,368.812 -271.333,365.608 -274.777,368.812 M176.626,289.553 Q169.257,295.761 165.012,304.291 161.047,312.221 159.525,320.832 157.963,329.563 159.245,338.294 160.606,347.666 165.292,355.716 169.938,363.686 177.267,369.172 184.877,374.779 193.928,377.062 195.591,377.467 197.252,377.703 203.131,378.659 209.027,377.823 210.734,377.602 212.431,377.222 221.522,375.26 229.412,370.614 237.542,365.968 243.27,358.719 249.037,351.43 251.72,342.539 254.323,334.049 253.643,325.077 252.962,316.347 249.758,308.296 246.273,299.686 240.466,292.437 234.819,285.428 226.929,281.022 219.16,276.697 210.188,276.777 200.857,276.857 191.765,278.78 L191.405,279.42 191.685,280.141 196.531,278.78 191.685,280.141 Q183.555,283.746 176.626,289.553 M204.541,311.781 L209.988,312.422 204.541,311.781 M184.676,317.668 L179.23,317.027 184.676,317.668 M204.221,361.122 Q207.024,361.122 208.987,359.721 210.949,358.319 210.949,356.316 210.949,358.319 208.987,359.721 207.024,361.122 204.221,361.122Z" test="JurorsFront" vector-effect="non-scaling-stroke" stroke-width="1"/>
        <path id="Layer4_0_1_STROKES" stroke="#FFF" stroke-width="1.602" stroke-linejoin="round" stroke-linecap="round" fill="none" d="M191.685,280.141 Q183.555,283.746 176.626,289.553 169.257,295.761 165.012,304.291 161.047,312.221 159.525,320.832 157.963,329.563 159.245,338.294 160.606,347.666 165.292,355.716 169.938,363.686 177.267,369.172 184.877,374.779 193.928,377.062 195.591,377.467 197.252,377.723 203.131,378.659 209.047,377.843 210.734,377.602 212.431,377.222 221.522,375.26 229.412,370.614 237.542,365.968 243.27,358.719 249.037,351.43 251.72,342.539 254.323,334.049 253.643,325.077 252.962,316.347 249.758,308.296 246.273,299.686 240.466,292.437 234.819,285.428 226.929,281.022 219.16,276.697 210.188,276.777 200.857,276.857 191.765,278.78 L191.405,279.42 M196.531,278.78 L191.685,280.141 M204.541,311.781 L209.988,312.422 M184.676,317.668 L179.23,317.027 M-256.034,391.4 Q-253.539,391.304 -251.068,391.02 -244.274,390.24 -237.691,388.036 -228.68,385.032 -221.11,379.185 -213.581,373.298 -208.935,364.767 -204.65,356.877 -202.527,348.226 -200.404,339.576 -201.165,330.644 -201.966,321.273 -206.131,312.702 -210.096,304.492 -216.064,297.643 -221.871,290.995 -228.519,285.148 -235.648,278.98 -244.78,276.176 -253.471,273.413 -262.362,275.816 -270.932,278.019 -278.342,282.865 -285.631,287.591 -291.919,293.798 -298.327,300.206 -302.412,308.377 -306.537,316.747 -307.538,325.918 -308.539,335.05 -306.457,343.941 -304.374,353.032 -299.808,361.042 -295.243,369.012 -288.715,375.46 -281.946,382.109 -273.496,386.354 -268.833,388.753 -263.864,390.059 -260.039,391.052 -256.034,391.4Z M-241.976,313.663 Q-239.053,313.663 -236.99,314.985 -234.927,316.306 -234.927,318.149 M-272.735,311.38 Q-270.091,311.38 -268.209,312.502 -266.327,313.623 -266.327,315.225 M-24.705,271.811 Q-4.92,270.409 11.941,280.502 19.59,285.067 24.677,292.196 35.891,308.056 36.451,327.681 36.772,339.936 33.127,351.59 32.206,354.594 27,360.402 21.873,366.129 14.945,371.976 2.784,382.243 -5.521,385.553 -8.806,386.859 -11.488,387.075 -16.417,387.459 -22.682,385.853 -29.442,384.102 -37.761,380.026 -53.941,372.056 -59.148,363.445 -69.16,346.945 -69.961,327.721 -70.803,308.056 -58.427,292.837 -46.652,278.339 -29.231,271.45 -27.308,270.609 -25.306,269.909 M-41.326,319.711 L-45.291,322.634 M-4.64,310.739 L-8.645,313.663 M8.416,356.316 Q2.329,366.289 -9.206,364.687 -10.327,364.487 -11.448,364.326 M34.649,493.247 Q31.525,466.935 21.913,443.465 12.502,420.356 2.129,397.768 .087,393.363 -2.397,389.678 M-24.465,389.678 Q-27.335,396.441 -28.83,404.176 -30.712,413.948 -33.115,423.44 -38.762,445.668 -43.168,468.376 -45.571,480.912 -47.934,493.247 M-305.816,481.913 Q-303.853,475.665 -301.33,469.618 -292.199,448.031 -282.907,426.364 -276.084,410.41 -267.508,396.006 -267.092,395.303 -266.667,394.604 M-248.665,394.604 Q-244.145,401.552 -240.374,409.182 -231.203,427.886 -222.752,446.789 -215.223,463.65 -210.377,481.913 M-268.249,368.812 Q-271.333,365.608 -274.777,368.812 -274.897,368.932 -274.897,369.172 M204.221,361.122 Q207.024,361.122 208.987,359.721 210.949,358.319 210.949,356.316 M157.002,510.108 Q161.488,482.995 169.057,457.002 172.341,445.708 175.465,434.294 182.354,409.142 192.526,386.794 193.885,383.838 195.37,381.067 M211.069,381.067 Q219.935,395.68 226.208,413.187 235.139,438.058 243.069,463.851 248.356,480.992 253.562,498.214 M-979.537,325.878 Q-976.894,325.878 -975.011,327 -973.129,328.121 -973.129,329.723 M-957.75,326.519 Q-954.826,326.519 -952.764,327.841 -950.701,329.162 -950.701,331.005 M-966.561,280.021 Q-985.905,282.544 -1001.645,293.959 -1018.586,306.214 -1022.631,326.599 -1026.636,346.825 -1018.386,365.528 -1010.696,383.07 -994.836,393.883 -987.718,398.687 -979.577,399.931 -976.713,400.371 -973.73,400.371 -971.338,400.691 -969.024,400.772 -952.19,401.351 -939.167,389.278 -924.709,375.941 -919.622,356.917 -914.416,337.453 -922.906,319.31 -929.635,304.932 -940.248,293.158 -950.861,281.423 -966.421,279.701 M-743.763,260.937 L-752.373,259.476 M-744.363,262.84 Q-782.291,260.757 -797.31,295.16 -805.8,314.664 -801.074,335.33 -794.786,362.885 -767.192,372.817 -762.587,374.409 -757.46,375.621 -755.134,376.159 -752.714,376.622 -751.726,376.808 -750.211,376.862 -748.718,376.854 -746.786,376.622 -745.474,376.465 -744.203,376.261 -713.181,371.234 -703.112,337.573 -692.619,302.489 -718.531,276.377 -729.265,265.643 -743.763,260.937 M-736.674,306.254 L-732.829,309.178 M-768.393,309.178 L-764.549,312.101 M-776.403,347.345 Q-773.76,351.991 -768.473,350.509 -767.793,350.349 -767.112,350.229 M-537.445,280.121 Q-543.953,282.624 -549.68,286.669 -556.208,291.355 -560.814,297.924 -564.939,303.771 -567.463,310.579 -569.866,317.188 -570.586,324.196 -571.347,331.365 -570.306,338.374 -569.185,345.823 -565.901,352.632 -562.777,359.2 -557.45,364.246 -552.083,369.333 -545.435,372.817 -541.065,375.139 -536.324,376.321 -533.456,377.041 -530.456,377.343 -523.608,378.344 -516.759,376.902 -516.19,376.781 -515.618,376.642 -509.068,375.113 -503.022,372.016 -496.574,368.612 -491.327,363.646 -486.041,358.559 -482.276,352.031 -478.672,345.903 -476.95,338.975 -475.227,332.126 -475.708,325.117 -476.229,317.788 -478.391,310.86 -480.514,304.051 -484.359,298.164 -488.204,292.236 -493.37,287.15 -498.857,281.823 -505.745,278.659 -512.794,275.415 -520.724,275.215 -527.453,275.896 -534.101,277.979 -535.703,278.459 -537.345,278.82 L-537.705,279.42 M-532.579,278.78 L-537.445,280.121 M-544.434,317.668 L-549.881,317.027 M-524.569,311.781 L-519.122,312.422 M-1023.071,490.924 Q-1015.101,471.741 -1006.25,452.997 -998.04,435.615 -989.509,418.674 -986.665,413.007 -982.421,405.137 M-524.889,361.122 Q-522.086,361.122 -520.123,359.721 -518.161,358.319 -518.161,356.316 M-514.196,380.066 Q-506.72,390.937 -502.902,400.572 -494.011,423.12 -486.081,446.549 -480.794,462.048 -475.548,477.628 M-571.387,484.837 Q-570.426,479.03 -568.824,473.302 -562.817,451.635 -556.769,429.888 -550.241,406.539 -540.669,385.152 -540.015,383.695 -537.986,379.666 M-741.58,380.226 Q-720.218,412.903 -710.561,446.589 -704.474,467.936 -698.026,488.962 M-806.521,488.962 Q-799.032,444.987 -777.164,407.54 -769.702,394.713 -760.423,380.226 M-966.841,405.137 Q-961.997,414.792 -958.07,422.319 -948.859,439.901 -940.568,457.923 -933.159,473.983 -928.033,490.924 M-1001.324,361.763 L-982.1,368.171" test="JurorsFront"/>
      </g>
    </g>
    <g id="Parrot">
      <path id="Layer2_0_1_STROKES" stroke="#FFF" stroke-width="2" stroke-linejoin="round" stroke-linecap="round" fill="none" d="M636.3,249.4 Q640,249.85 643.3,252.8 647.3,256.35 645.8,262 644.3,267.65 641.5,270.5 638.7,273.3 635.1,273.2 631.45,273.1 628.85,271 626.2,268.9 625.55,265.35 624.95,261.95 625.8,258.8 626.6,255.95 627.65,254.25 628.65,252.5 630.75,251.4 632.8,250.25 636.3,249.4Z M636.7,261.15 Q636.2,260.5 635.45,260.4 634.65,260.3 634.6,260.3 634.3,260.3 633.95,260.6 633.1,261.35 633.8,262.85 634.4,264.1 635.75,263.6 636.7,263.25 636.85,262.55 637,262.05 637,261.85 637.05,261.45 636.7,261.15Z M591.95,251.9 Q594.15,251.7 597.1,255.1 600,258.4 599.8,263.05 599.6,267.6 597.5,270.4 595.45,273.15 591.9,273.05 588.3,272.9 585.5,270.65 582.35,268.25 582.5,264.45 582.75,259.25 584.5,256.15 586.9,251.85 591.95,251.9Z M594.6,262.7 Q594.25,262.1 593.6,262.05 592.85,261.95 592.8,261.95 592.6,261.95 592.25,262.2 591.5,262.9 592.15,264.25 592.7,265.4 593.8,264.9 594.6,264.6 594.75,263.95 594.85,263.55 594.85,263.35 594.95,263 594.6,262.7Z" test="Parrot"/>
      <path id="Layer2_0_2_STROKES" stroke="#F00" stroke-width="2" stroke-linejoin="round" stroke-linecap="round" fill="none" d="M657.85,279.8 Q660.85,280.4 661.6,280.5 662.35,280.6 663.85,280.6 666,280.6 669.85,278.2 M651.45,305.4 L652.9,305.8 Q654.6,306.2 655.85,306.2 656.6,306.2 658.7,304.8 660.65,303.5 661.05,303 M693.85,328.7 Q685,319.1 682.1,306.45 679.65,295.65 681.15,280 682.5,266.2 675.45,253.3 667.65,239.05 654.9,233.55 642.15,228 632.3,227.05 622.45,226.05 613.05,229.5 603.6,232.95 596.7,239.9 589.85,246.75 589.6,248.3 M587.75,317.8 Q587.3,330.85 580.8,341.45 M620.25,306.2 Q622.5,308.7 623.95,311.45 624.15,311.8 626.65,311.8 627.95,311.8 629.7,311.3 630.05,311.2 633.05,310.2" test="Parrot"/>
      <path id="Layer2_0_3_STROKES" stroke="#0FF" stroke-width="2" stroke-linejoin="round" stroke-linecap="round" fill="none" d="M585.4,334.85 L584.75,338.75 Q585.65,339.2 586.75,339.3 587.45,339.4 588.95,339.4 593.1,339.4 596.2,335.85 599.35,332.25 601.65,332.25 602.45,332.25 606.85,332.9 611.2,333.55 612.05,333.55 617,333.55 618,331.3 618.95,329 622.75,329 623.6,329 626.7,329.65 629.85,330.3 630.65,330.3 631.2,330.3 633.15,328.35 635.05,326.4 637.45,326.4 638.3,326.4 641.55,327.05 644.8,327.7 645.6,327.7 646.5,327.7 649,326.4 650.25,325.75 651.45,325.1 651.6,325.1 654.6,326.4 657.95,327.7 659.55,327.7 661.6,327.7 664.25,326.75 665.55,326.25 666.7,325.75 668.7,325.75 678.75,328.05 687.1,329.95 690.85,330.25 691.6,330.3 692.15,330.3 M621.2,353.15 Q620.65,355 618.85,371.8 617.1,388.05 616,390.9 614.45,395.1 613.9,405.8 613.3,417.15 614.7,424.1 616.25,431.8 623.5,452.85 630.95,474.45 634.25,480.1 635.8,482.8 640.5,490.1 644.3,496 647.25,501.6 651.15,509 654.25,511.95 657.4,515 662.25,515.95 665.5,516.6 670.55,517.8 673.95,518.2 673.95,515.3 673.95,507.2 682.4,511.4 688.35,514.35 690.4,514.75 693.7,515.4 695.45,512.7 696.75,510.75 698.5,507.4 700.4,504.8 704.55,503.55 707.25,502.75 709.65,504.55 710.3,505.05 711.75,499.65 713.4,493.55 716,486.85 L718.25,481.4 Q718.9,477.5 720.85,468.4 722.55,460.4 721.75,450.3 720.75,438.1 716.3,428.7 716.05,428.2 704.9,406.15 697.8,392.05 695.45,385.05 693.7,379.8 690.35,372.45 688,367.35 687.65,364.2 M723.3,384.7 Q722.7,384.35 721.8,384.35 721.65,384.35 714,386.95 712.35,386.05 710.35,385 710,386.9 708.65,388.35 707.5,389.55 706.75,389.55 705.1,389.55 703.75,388.35 702.65,387.4 702.55,387.6 701.7,388.5 700.45,389.1 699,389.75 698,389.55 M695.4,333.55 Q722.45,359.4 722.75,384.35 L723.4,384.35 M580.8,341.45 Q576.35,353.35 572.7,365.65 569.05,377.9 566,390.35 564.05,398.25 561.65,406.05 557.8,418.5 556.85,431.45 556.65,434.5 556.85,437.45 557.6,450.3 555.55,463.2 554.9,467.5 553,471.4 551.6,474.25 550.25,477.05 548.5,474.7 548,471.6 544.05,447.2 545.9,422.75 546.2,418.85 546.9,414.95 548.1,408.5 549.15,402.05 550.15,396.1 552.35,390.45 556.9,378.7 561.75,367.15 568.15,352.1 580.8,341.45Z M567.75,401.95 Q570.35,404.4 573.4,405 574.3,405.2 577.6,405.2 579.45,405.2 580.3,403.6 581.15,401.95 584.1,401.95 586.05,401.95 590.35,402.35 594.2,402.6 596.45,401.95 602,400.4 607.05,400.05 608.4,399.95 612.7,399.95" test="Parrot"/>
      <path id="Layer2_0_4_STROKES" stroke="#0F0" stroke-width="2" stroke-linejoin="round" stroke-linecap="round" fill="none" d="M727.15,410.95 Q727.95,409.7 727.95,407.5 727.95,405.95 725.8,396.35 723.55,386.6 722.75,385" test="Parrot"/>
      <path id="Layer2_0_5_STROKES" stroke="#FF0" stroke-width="2" stroke-linejoin="round" stroke-linecap="round" fill="none" d="M724.05,444.2 L729.9,444.2 Q729.6,442.8 730.65,439 731.85,434.85 731.85,433.8 731.85,427.5 729.95,419.45 728.35,412.65 727.15,410.95 M588.05,278.85 Q577.55,284.2 576.45,293.9 575.95,298.35 575.65,302.9 591.2,305.55 597.3,301.2 599.35,294.3 596.25,289.05 593.1,283.75 591.6,282.3 590.1,280.8 588.05,278.85Z M581.5,304.2 Q579.45,314.6 590.35,315.3 592.35,315.15 594,314.35 598,311.45 596.45,302.8 M560.6,458.6 Q563.35,460.95 564.5,462.3 564.8,462.5 568.05,462.5 570.65,462.5 579.25,459.25 586.2,456.65 588.25,456.15 588.5,456.05 588.65,456.05 588.7,457 593.25,457.25 594.2,457.3 599.05,457.3 600.95,457.3 604.9,456.35 608.85,455.35 610.4,455.35 612.8,455.35 613,455.3 614.25,454.9 614.65,452.65 622.45,454.45 620.5,453.95 M588.25,456.15 Q588,456.25 588.2,456.6 588.65,457.3 588.65,456.05 M574.25,502.9 Q570.3,505.95 569.4,508.45 569.05,509.5 569.05,513.6 569.05,519 572.2,520.75 574.6,522.05 584.1,523.05 584.1,521.45 583.8,520.1 585.8,520.85 588.65,521.75 L591.9,521.75 Q590.6,520.05 589.55,518.65 591.8,519.45 593.85,520.45 L598.4,520.45 598.4,517.2 Q594.8,514 593.65,508.3 593.05,502.75 592.55,501.6 591.9,501.6 590.6,500.95 M606.2,503.55 Q605.35,513.75 607.1,516.75 608.6,519.35 614.65,519.8 L614.65,515.9 Q614.1,514.8 613.55,511.9 613.7,512.1 613.8,512.35 616.65,518.1 621.8,519.15 L621.8,514 Q622.45,515.05 623.25,516.05 625.85,519.15 628.95,519.8 L629.65,519.8 Q630,517.7 628.9,513.95 627.65,509.8 627.65,508.1 627.65,504.65 630.3,502.9 M642.65,508.75 Q641.85,521.55 651.1,545.15 655.05,555.25 658.95,561.7 663.15,568.6 665.75,568.6 669.45,568.6 670.35,568.2 673.4,566.85 673.85,561.45 676.2,562.6 682.3,563.4 687.65,563.4 689.4,557.9 690.5,554.5 690.7,554.1 691.65,552.35 693.45,552.35 694.15,552.35 701.25,554.95 702.35,554.95 704.2,551.7 706.2,548.2 707.75,547.8 711.45,546.75 716.65,546 720.35,545.05 722.1,541.3 723.15,541.3 724.95,541.65 726.75,541.95 727.3,541.95 L727.3,520.45 Q724.7,511.55 721.95,499.4 719.85,490.2 718.2,486" test="Parrot"/>
      <path id="Layer2_0_6_STROKES" stroke="#F0F" stroke-width="2" stroke-linejoin="round" stroke-linecap="round" fill="none" d="M550.25,477.05 L551.25,486.15 Q552.85,496 556.1,499.65 557.75,501.5 558.7,503.8 559.25,505.05 559.85,506.95 560.35,508.3 561.2,508.45 562.25,508.6 564.55,507.45 567.6,505.95 570.15,503 571.9,500.95 574.3,500.95 576.6,500.95 582.4,501.85 587.55,502.3 589.95,500.3 592.3,498.35 597.05,499.5 599.75,500.15 605.6,501.6 608.55,501.95 612.9,502.8 616.4,503.2 619.25,501.6 622.2,499.95 625.2,500.05 627.1,500.15 631.65,500.95 634.25,501.3 637.1,502.35 638.9,502.7 640.1,500.3 M723.4,486 Q725.75,474 727.1,465.7 728.2,459.2 729.9,446.8 M685,631.15 Q687.8,639.25 688.55,640.45 689.65,642.2 692.45,642.2 693.5,642.2 693.8,642.1 695.2,641.45 696.7,638.95 715.4,657.8 716.6,657.8 724.1,657.8 727.3,644.85 729.25,637.05 729.25,627.6 729.25,621.65 727.95,616 727.1,612.3 725.35,607.7" test="Parrot"/>
      <path id="Layer2_0_7_STROKES" stroke="#F60" stroke-width="2" stroke-linejoin="round" stroke-linecap="round" fill="none" d="M667.35,573.15 Q666.85,572.35 666.3,571.55 665.15,569.9 664.75,569.9 L664.75,573.15 Q666,580.75 674.35,603.2 684.2,629.85 689.2,629.85 691.35,629.85 696.25,625.65 700.8,621.4 700.9,621.4 701.75,621.4 704.15,622.05 706.6,622.7 707.4,622.7 709.85,622.7 712.25,617.8 713.9,614.4 714.3,612.25 719.95,612.25 722.8,609.35 725.65,606.4 728.6,606.4 728.6,604.15 728.95,599.15 729.25,594.15 729.25,593.65 729.25,589.1 726.35,579 723.05,567.6 722.75,565.35 722.25,561.85 722.45,555.8 722.75,549.45 722.75,547.15 L722.1,547.15" test="Parrot"/>
    </g>
    <g id="JuryBoxFront">
      <path fill="#000" stroke="none" d="M-1766.7,514.35 L-1789,488.3 -1790.85,617.25 Q-1782.672,617.251 -1771.2,617.25 L-1766.7,514.35 M1175.35,500.95 L1174,500.95 1156.15,518.5 1156.15,613 Q1166.634,613.017 1175.35,613 L1175.35,500.95 M1003.9,512.95 Q929.4,514.65 855.05,518.9 779.6,522.55 704.1,523 626.7,523.45 549.3,523.35 473.8,523.25 398.3,523 318.5,522.75 238.7,521.8 160,520.9 81.35,519.6 3.25,518.35 -74.85,520.35 -152.15,522.3 -229.5,526.5 -304.75,529.75 -380.15,528.6 -459.55,527.35 -538.9,522.45 -612.85,517.5 -687.1,516.45 -761,515.45 -834.95,516.1 -914.3,516.8 -993.65,518 -1073.3,519.25 -1152.9,520.45 -1231.95,521.65 -1311.1,522.95 -1388.1,524.25 -1465.15,524.85 -1541.9,525.45 -1618.85,523.95 -1693,522.5 -1766.7,514.35 L-1771.2,617.25 Q-1565.242,617.16 -296.4,615.15 911.473,613.195 1156.15,613 L1156.15,518.5 Q1080.2,511.25 1003.9,512.95 M836.2,502.85 Q830.994,503.094 825.8,503.3 749.85,505.8 673.9,505.8 650.886,505.8 627.85,505.8 572.321,505.815 516.75,505.85 508.512,505.856 500.25,505.85 428.957,505.781 357.6,504.75 334.725,504.422 311.85,503.75 288.968,503.598 266.05,503.4 248.902,503.302 231.7,503.15 214.536,502.697 197.35,502.45 117.65,501.35 37.9,500.55 -24.137,499.94 -86.15,502.65 -95.244,503.077 -104.35,503.55 -179.4,507 -254.3,510.95 L-414.35,511.75 Q-494.65,507.9 -574.85,502.95 -647.5,497.9 -720.6,497.2 -799.65,496.4 -878.6,497.5 -955.7,498.6 -1032.9,500.15 -1105.55,501.65 -1178.25,503.2 -1252.15,504.75 -1326.15,505.95 -1404.1,507.2 -1482.25,506.2 -1557.95,505.25 -1633.55,500.25 -1711.35,495.6 -1789,488.3 L-1766.7,514.35 Q-1693,522.5 -1618.85,523.95 -1541.9,525.45 -1465.15,524.85 -1388.1,524.25 -1311.1,522.95 -1231.95,521.65 -1152.9,520.45 -1073.3,519.25 -993.65,518 -914.3,516.8 -834.95,516.1 -761,515.45 -687.1,516.45 -612.85,517.5 -538.9,522.45 -459.55,527.35 -380.15,528.6 -304.75,529.75 -229.5,526.5 -152.15,522.3 -74.85,520.35 3.25,518.35 81.35,519.6 160,520.9 238.7,521.8 318.5,522.75 398.3,523 473.8,523.25 549.3,523.35 626.7,523.45 704.1,523 779.6,522.55 855.05,518.9 929.4,514.65 1003.9,512.95 1080.2,511.25 1156.15,518.5 L1174,500.95 1174.05,500.15 Q1155.662,498.494 1137.25,496.85 1123.152,495.536 1109.05,494.6 1049.085,490.798 988.9,494.4 912.631,499.691 836.2,502.85Z" test="JuryBoxFront"/>
      <path id="Layer1_0_1_STROKES" stroke="#F60" stroke-width="2" stroke-linejoin="round" stroke-linecap="round" fill="none" d="M1174.075,500.175 Q1155.662,498.494 1137.25,496.85 1123.152,495.536 1109.05,494.625 1049.085,490.798 988.9,494.4 912.631,499.691 836.2,502.875 830.994,503.094 825.8,503.3 749.85,505.8 673.9,505.8 650.886,505.8 627.875,505.8 572.321,505.815 516.75,505.85 508.512,505.856 500.275,505.85 428.957,505.781 357.6,504.75 334.725,504.422 311.85,503.775 288.968,503.598 266.075,503.425 248.902,503.302 231.725,503.175 214.536,502.697 197.35,502.45 117.65,501.35 37.9,500.55 -24.137,499.94 -86.125,502.675 -95.244,503.077 -104.35,503.55 -179.4,507 -254.3,510.95 L-414.35,511.75 Q-494.65,507.9 -574.85,502.95 -647.5,497.9 -720.6,497.2 -799.65,496.4 -878.6,497.5 -955.7,498.6 -1032.9,500.15 -1105.55,501.65 -1178.25,503.2 -1252.15,504.75 -1326.15,505.95 -1404.1,507.2 -1482.25,506.2 -1557.95,505.25 -1633.55,500.25 -1711.35,495.6 -1789,488.3 L-1766.7,514.35 Q-1693,522.5 -1618.85,523.95 -1541.9,525.45 -1465.15,524.85 -1388.1,524.25 -1311.1,522.95 -1231.95,521.65 -1152.9,520.45 -1073.3,519.25 -993.65,518 -914.3,516.8 -834.95,516.1 -761,515.45 -687.1,516.45 -612.85,517.5 -538.9,522.45 -459.55,527.35 -380.15,528.6 -304.75,529.75 -229.5,526.5 -152.15,522.3 -74.85,520.35 3.25,518.35 81.35,519.6 160,520.9 238.7,521.8 318.5,522.75 398.3,523 473.8,523.25 549.3,523.35 626.7,523.45 704.1,523 779.6,522.55 855.05,518.9 929.4,514.65 1003.9,512.95 1080.2,511.25 1156.15,518.5 L1174,500.95 M1174.075,500.175 Q1174.712,500.242 1175.35,500.3 L1175.35,500.95 1175.35,613 1175.35,624.2 M1156.15,624.2 L1156.15,613.025 M-1771.2,617.25 L-1771.5,624.2 M1156.15,613.025 L1156.15,518.5 M-1790.95,624.2 L-1790.85,617.25 -1789,488.3 M-1766.7,514.35 L-1771.2,617.25" test="JuryBoxFront"/>
    </g>
  </g>
</svg>