<?xml version="1.0" encoding="utf-8"?>
<svg id="EdithAnim12" image-rendering="inherit" baseProfile="basic" version="1.1" x="0px" y="0px" width="800" height="600" xmlns="http://www.w3.org/2000/svg" xmlns:xlink="http://www.w3.org/1999/xlink">
  <g id="14_JurorParrotf77r1" overflow="visible">
    <g id="JurorsBack">
      <path fill="#000" stroke="none" d="M-456.43,132.23 Q-458.43,132.91 -460.35,133.75 -477.75,140.63 -489.51,155.11 -501.87,170.31 -501.03,189.95 -500.23,209.15 -490.23,225.63 -485.03,234.23 -468.87,242.19 -460.55,246.27 -453.79,248.03 -447.55,249.63 -442.63,249.23 -439.95,249.03 -436.67,247.71 -428.39,244.39 -416.23,234.15 -409.31,228.31 -404.19,222.59 -398.99,216.79 -398.07,213.79 -394.43,202.15 -394.75,189.91 -395.31,170.31 -406.51,154.47 -411.59,147.35 -419.23,142.79 -436.07,132.71 -455.83,134.11 L-456.43,132.23 M-472.43,181.95 L-476.39,184.87 -472.43,181.95 M-435.79,172.99 L-439.79,175.91 -435.79,172.99 M-440.35,226.87 Q-441.47,226.67 -442.59,226.51 -441.47,226.67 -440.35,226.87 -428.83,228.47 -422.75,218.51 -428.83,228.47 -440.35,226.87 M-676.19,138.11 Q-684.75,140.31 -692.15,145.15 -699.43,149.87 -705.71,156.07 -712.11,162.47 -716.19,170.63 -720.31,178.99 -721.31,188.15 -722.31,197.27 -720.23,206.15 -718.15,215.23 -713.59,223.23 -709.03,231.19 -702.51,237.63 -695.75,244.27 -687.31,248.51 -682.67,250.91 -677.67,252.23 -673.87,253.19 -669.87,253.55 -667.39,253.47 -664.91,253.19 -658.11,252.39 -651.55,250.19 -642.55,247.19 -634.99,241.35 -627.47,235.47 -622.83,226.95 -618.55,219.07 -616.43,210.43 -614.31,201.79 -615.07,192.87 -615.87,183.51 -620.03,174.95 -623.99,166.75 -629.95,159.91 -635.75,153.27 -642.39,147.43 -649.51,141.27 -658.63,138.47 -667.31,135.71 -676.19,138.11 M-650.83,177.23 Q-648.79,178.55 -648.79,180.39 -648.79,178.55 -650.83,177.23 -652.91,175.91 -655.83,175.91 -652.91,175.91 -650.83,177.23 M-682.03,174.75 Q-680.15,175.87 -680.15,177.47 -680.15,175.87 -682.03,174.75 -683.91,173.63 -686.55,173.63 -683.91,173.63 -682.03,174.75 M-688.59,230.99 Q-688.71,231.11 -688.71,231.35 -688.71,231.11 -688.59,230.99 -685.15,227.79 -682.07,230.99 -685.15,227.79 -688.59,230.99 M-900.19,141.71 L-899.91,142.43 -895.07,141.07 -899.91,142.43 Q-906.43,144.91 -912.15,148.95 -918.67,153.63 -923.27,160.19 -927.39,166.03 -929.91,172.83 -932.31,179.43 -933.03,186.43 -933.79,193.59 -932.75,200.59 -931.63,208.03 -928.35,214.83 -925.23,221.39 -919.91,226.43 -914.55,231.51 -907.91,234.99 -903.55,237.31 -898.79,238.51 -895.95,239.19 -892.95,239.51 -886.11,240.51 -879.27,239.07 -878.71,238.95 -878.11,238.83 -871.59,237.27 -865.55,234.19 -859.11,230.79 -853.87,225.83 -848.59,220.75 -844.83,214.23 -841.23,208.11 -839.51,201.19 -837.79,194.35 -838.27,187.35 -838.79,180.03 -840.95,173.11 -843.07,166.31 -846.91,160.43 -850.75,154.51 -855.91,149.43 -861.39,144.11 -868.27,140.95 -875.31,137.71 -883.23,137.51 -889.95,138.19 -896.59,140.27 -898.19,140.75 -899.83,141.11 L-900.19,141.71 M-887.07,174.03 L-881.63,174.67 -887.07,174.03 M-882.63,221.91 Q-880.67,220.51 -880.67,218.51 -880.67,220.51 -882.63,221.91 -884.59,223.31 -887.39,223.31 -884.59,223.31 -882.63,221.91 M-906.91,179.91 L-912.35,179.27 -906.91,179.91 M-42.67,135.83 Q-51.07,137.71 -58.71,141.95 -66.99,146.59 -72.95,153.99 -78.55,160.95 -80.99,169.51 -83.55,178.31 -83.95,187.55 -84.35,196.55 -83.19,205.51 -82.07,214.39 -77.07,221.83 -71.91,229.51 -64.39,234.75 -57.11,239.87 -48.79,243.03 -39.95,246.31 -30.51,246.75 -21.51,247.51 -13.11,244.11 -4.31,240.63 2.01,233.43 8.37,226.23 12.33,217.67 16.29,209.07 17.93,199.63 19.49,190.63 18.37,181.51 17.21,171.99 12.93,163.31 8.69,154.83 1.73,148.47 -4.19,143.03 -11.03,138.79 -17.55,134.71 -24.87,132.23 L-25.47,134.11 Q-34.19,134.07 -42.67,135.83 M-17.79,177.47 L-13.95,180.39 -17.79,177.47 M-49.47,180.39 L-45.63,183.31 -49.47,180.39 M-49.55,221.67 Q-48.87,221.51 -48.19,221.39 -48.87,221.51 -49.55,221.67 -54.79,223.15 -57.47,218.51 -54.79,223.15 -49.55,221.67 M-266.35,166.55 Q-270.31,174.47 -271.83,183.07 -273.39,191.79 -272.11,200.51 -270.75,209.87 -266.07,217.91 -261.43,225.87 -254.11,231.35 -246.51,236.95 -237.47,239.23 -235.79,239.63 -234.15,239.91 -228.27,240.83 -222.35,240.03 -220.67,239.75 -218.99,239.39 -209.91,237.43 -202.03,232.79 -193.91,228.15 -188.19,220.91 -182.43,213.63 -179.75,204.75 -177.15,196.27 -177.83,187.31 -178.51,178.59 -181.71,170.55 -185.19,161.95 -190.99,154.71 -196.63,147.71 -204.51,143.31 -212.27,138.99 -221.23,139.07 -230.55,139.15 -239.63,141.07 L-239.99,141.71 -239.71,142.43 -234.87,141.07 -239.71,142.43 Q-247.83,146.03 -254.75,151.83 -262.11,158.03 -266.35,166.55 M-246.71,179.91 L-252.15,179.27 -246.71,179.91 M-226.87,174.03 L-221.43,174.67 -226.87,174.03 M-227.19,223.31 Q-224.39,223.31 -222.43,221.91 -220.47,220.51 -220.47,218.51 -220.47,220.51 -222.43,221.91 -224.39,223.31 -227.19,223.31Z" test="JurorsBack" vector-effect="non-scaling-stroke" stroke-width="1"/>
      <path id="Layer3_0_1_STROKES" stroke="#FFF" stroke-width="1.6" stroke-linejoin="round" stroke-linecap="round" fill="none" d="M-239.71,142.43 Q-247.83,146.03 -254.75,151.83 -262.11,158.03 -266.35,166.55 -270.31,174.47 -271.83,183.07 -273.39,191.79 -272.11,200.51 -270.75,209.87 -266.07,217.91 -261.43,225.87 -254.11,231.35 -246.51,236.95 -237.47,239.23 -235.79,239.63 -234.15,239.91 -228.27,240.83 -222.35,240.03 -220.67,239.75 -218.99,239.39 -209.91,237.43 -202.03,232.79 -193.91,228.15 -188.19,220.91 -182.43,213.63 -179.75,204.75 -177.15,196.27 -177.83,187.31 -178.51,178.59 -181.71,170.55 -185.19,161.95 -190.99,154.71 -196.63,147.71 -204.51,143.31 -212.27,138.99 -221.23,139.07 -230.55,139.15 -239.63,141.07 L-239.99,141.71 M-234.87,141.07 L-239.71,142.43 M-246.71,179.91 L-252.15,179.27 M-226.87,174.03 L-221.43,174.67 M-227.19,223.31 Q-224.39,223.31 -222.43,221.91 -220.47,220.51 -220.47,218.51 M-25.47,134.11 Q-34.19,134.07 -42.67,135.83 -51.07,137.71 -58.71,141.95 -66.99,146.59 -72.95,153.99 -78.55,160.95 -80.99,169.51 -83.55,178.31 -83.95,187.55 -84.35,196.55 -83.19,205.51 -82.07,214.39 -77.07,221.83 -71.91,229.51 -64.39,234.75 -57.11,239.87 -48.79,243.03 -39.95,246.31 -30.51,246.75 -21.51,247.51 -13.11,244.11 -4.31,240.63 2.01,233.43 8.37,226.23 12.33,217.67 16.29,209.07 17.93,199.63 19.49,190.63 18.37,181.51 17.21,171.99 12.93,163.31 8.69,154.83 1.73,148.47 -4.19,143.03 -11.03,138.79 -17.55,134.71 -24.87,132.23 L-33.47,130.75 M-17.79,177.47 L-13.95,180.39 M-49.47,180.39 L-45.63,183.31 M-57.47,218.51 Q-54.79,223.15 -49.55,221.67 -48.87,221.51 -48.19,221.39 M-27.83,251.67 Q-27.03,252.67 -26.19,253.71 -3.03,283.03 8.49,319.99 15.49,342.51 22.53,364.91 M-87.87,366.63 Q-83.47,322.87 -61.51,285.87 -50.67,267.55 -36.03,253.71 -34.95,252.67 -33.87,251.67 M-274.35,372.11 Q-269.87,345.03 -262.31,319.07 -259.03,307.79 -255.91,296.39 -249.03,271.27 -238.87,248.95 -237.51,245.99 -236.03,243.23 M-220.35,243.23 Q-211.51,257.83 -205.23,275.31 -196.31,300.15 -188.39,325.91 -183.11,343.03 -177.91,360.23 M-895.07,141.07 L-899.91,142.43 Q-906.43,144.91 -912.15,148.95 -918.67,153.63 -923.27,160.19 -927.39,166.03 -929.91,172.83 -932.31,179.43 -933.03,186.43 -933.79,193.59 -932.75,200.59 -931.63,208.03 -928.35,214.83 -925.23,221.39 -919.91,226.43 -914.55,231.51 -907.91,234.99 -903.55,237.31 -898.79,238.51 -895.95,239.19 -892.95,239.51 -886.11,240.51 -879.27,239.07 -878.71,238.95 -878.11,238.83 -871.59,237.27 -865.55,234.19 -859.11,230.79 -853.87,225.83 -848.59,220.75 -844.83,214.23 -841.23,208.11 -839.51,201.19 -837.79,194.35 -838.27,187.35 -838.79,180.03 -840.95,173.11 -843.07,166.31 -846.91,160.43 -850.75,154.51 -855.91,149.43 -861.39,144.11 -868.27,140.95 -875.31,137.71 -883.23,137.51 -889.95,138.19 -896.59,140.27 -898.19,140.75 -899.83,141.11 L-900.19,141.71 M-887.07,174.03 L-881.63,174.67 M-887.39,223.31 Q-884.59,223.31 -882.63,221.91 -880.67,220.51 -880.67,218.51 M-669.87,253.55 Q-667.39,253.47 -664.91,253.19 -658.11,252.39 -651.55,250.19 -642.55,247.19 -634.99,241.35 -627.47,235.47 -622.83,226.95 -618.55,219.07 -616.43,210.43 -614.31,201.79 -615.07,192.87 -615.87,183.51 -620.03,174.95 -623.99,166.75 -629.95,159.91 -635.75,153.27 -642.39,147.43 -649.51,141.27 -658.63,138.47 -667.31,135.71 -676.19,138.11 -684.75,140.31 -692.15,145.15 -699.43,149.87 -705.71,156.07 -712.11,162.47 -716.19,170.63 -720.31,178.99 -721.31,188.15 -722.31,197.27 -720.23,206.15 -718.15,215.23 -713.59,223.23 -709.03,231.19 -702.51,237.63 -695.75,244.27 -687.31,248.51 -682.67,250.91 -677.67,252.23 -673.87,253.19 -669.87,253.55Z M-655.83,175.91 Q-652.91,175.91 -650.83,177.23 -648.79,178.55 -648.79,180.39 M-686.55,173.63 Q-683.91,173.63 -682.03,174.75 -680.15,175.87 -680.15,177.47 M-455.83,134.11 Q-436.07,132.71 -419.23,142.79 -411.59,147.35 -406.51,154.47 -395.31,170.31 -394.75,189.91 -394.43,202.15 -398.07,213.79 -398.99,216.79 -404.19,222.59 -409.31,228.31 -416.23,234.15 -428.39,244.39 -436.67,247.71 -439.95,249.03 -442.63,249.23 -447.55,249.63 -453.79,248.03 -460.55,246.27 -468.87,242.19 -485.03,234.23 -490.23,225.63 -500.23,209.15 -501.03,189.95 -501.87,170.31 -489.51,155.11 -477.75,140.63 -460.35,133.75 -458.43,132.91 -456.43,132.23 M-472.43,181.95 L-476.39,184.87 M-435.79,172.99 L-439.79,175.91 M-422.75,218.51 Q-428.83,228.47 -440.35,226.87 -441.47,226.67 -442.59,226.51 M-906.91,179.91 L-912.35,179.27 M-933.83,346.87 Q-932.87,341.07 -931.27,335.35 -925.27,313.71 -919.23,291.99 -912.71,268.67 -903.15,247.31 -902.51,245.87 -900.47,241.83 M-396.55,355.27 Q-399.67,328.99 -409.27,305.55 -418.67,282.47 -429.03,259.91 -431.07,255.51 -433.55,251.83 M-455.59,251.83 Q-458.47,258.59 -459.95,266.31 -461.83,276.07 -464.23,285.55 -469.87,307.75 -474.27,330.43 -476.67,342.95 -479.03,355.27 M-662.51,256.75 Q-657.99,263.67 -654.23,271.31 -645.07,289.99 -636.63,308.87 -629.11,325.71 -624.27,343.95 M-682.07,230.99 Q-685.15,227.79 -688.59,230.99 -688.71,231.11 -688.71,231.35 M-719.59,343.95 Q-717.63,337.71 -715.11,331.67 -705.99,310.11 -696.71,288.47 -689.91,272.55 -681.31,258.15 -680.91,257.43 -680.47,256.75 M-876.71,242.23 Q-869.23,253.07 -865.43,262.71 -856.55,285.23 -848.63,308.63 -843.35,324.11 -838.11,339.67" test="JurorsBack"/>
    </g>
    <g id="Tween-1">
      <g id="JurorsFront">
        <path fill="#000" stroke="none" d="M-613.124,275.215 Q-619.853,275.896 -626.501,277.979 -628.103,278.459 -629.745,278.82 L-630.105,279.42 -629.865,280.101 -624.979,278.78 -629.865,280.101 Q-636.353,282.624 -642.08,286.669 -648.608,291.355 -653.214,297.924 -657.339,303.771 -659.863,310.579 -662.266,317.188 -662.986,324.196 -663.747,331.365 -662.706,338.374 -661.585,345.823 -658.301,352.632 -655.177,359.2 -649.85,364.246 -644.483,369.333 -637.835,372.817 -633.465,375.139 -628.744,376.301 -625.856,377.041 -622.856,377.343 -616.008,378.344 -609.159,376.902 -608.59,376.781 -608.038,376.622 -601.468,375.113 -595.422,372.016 -588.974,368.612 -583.728,363.646 -578.441,358.559 -574.676,352.031 -571.072,345.903 -569.35,338.975 -567.627,332.126 -568.108,325.117 -568.629,317.788 -570.791,310.86 -572.914,304.051 -576.759,298.164 -580.604,292.236 -585.77,287.15 -591.257,281.823 -598.146,278.659 -605.194,275.415 -613.124,275.215 M-636.834,317.668 L-642.281,317.027 -636.834,317.668 M-616.969,311.781 L-611.522,312.422 -616.969,311.781 M-617.289,361.122 Q-614.486,361.122 -612.523,359.721 -610.561,358.319 -610.561,356.316 -610.561,358.319 -612.523,359.721 -614.486,361.122 -617.289,361.122 M-836.163,260.917 L-836.763,262.84 Q-874.691,260.757 -889.709,295.16 -898.2,314.664 -893.474,335.33 -887.186,362.885 -859.592,372.817 -854.987,374.409 -849.86,375.621 -847.534,376.159 -845.134,376.622 -844.126,376.808 -842.611,376.862 -841.118,376.854 -839.206,376.622 -837.874,376.465 -836.603,376.261 -805.581,371.234 -795.512,337.573 -785.019,302.489 -810.931,276.377 -821.665,265.643 -836.163,260.917 M-829.074,306.254 L-825.229,309.178 -829.074,306.254 M-860.793,309.178 L-856.949,312.101 -860.793,309.178 M-860.873,350.509 Q-860.193,350.349 -859.512,350.229 -860.193,350.349 -860.873,350.509 -866.16,351.991 -868.803,347.345 -866.16,351.991 -860.873,350.509 M-1012.022,356.917 Q-1006.816,337.453 -1015.306,319.31 -1022.035,304.932 -1032.648,293.158 -1043.261,281.423 -1058.841,279.701 -1079.747,279.941 -1058.961,280.021 -1078.305,282.544 -1094.045,293.959 -1110.986,306.214 -1115.031,326.599 -1119.036,346.825 -1110.785,365.528 -1103.096,383.07 -1087.236,393.883 -1080.118,398.687 -1071.977,399.931 -1069.113,400.371 -1066.13,400.371 -1063.738,400.691 -1061.444,400.772 -1044.59,401.351 -1031.567,389.278 -1017.109,375.941 -1012.022,356.917 M-1067.411,327 Q-1065.529,328.121 -1065.529,329.723 -1065.529,328.121 -1067.411,327 -1069.294,325.878 -1071.937,325.878 -1069.294,325.878 -1067.411,327 M-1045.184,327.841 Q-1043.101,329.162 -1043.101,331.005 -1043.101,329.162 -1045.184,327.841 -1047.226,326.519 -1050.15,326.519 -1047.226,326.519 -1045.184,327.841 M-1093.724,361.763 L-1074.5,368.171 -1093.724,361.763 M-117.105,271.811 L-117.706,269.888 Q-119.708,270.609 -121.631,271.45 -139.052,278.339 -150.827,292.837 -163.203,308.056 -162.361,327.721 -161.56,346.945 -151.548,363.445 -146.341,372.056 -130.161,380.026 -121.842,384.102 -115.102,385.833 -108.817,387.459 -103.888,387.075 -101.206,386.859 -97.921,385.553 -89.616,382.243 -77.455,371.976 -70.527,366.129 -65.4,360.402 -60.194,354.594 -59.273,351.59 -55.628,339.936 -55.949,327.681 -56.509,308.056 -67.723,292.196 -72.81,285.067 -80.459,280.502 -97.32,270.409 -117.105,271.811 M-133.726,319.711 L-137.691,322.634 -133.726,319.711 M-97.04,310.739 L-101.045,313.663 -97.04,310.739 M-101.606,364.687 Q-102.727,364.487 -103.848,364.326 -102.727,364.487 -101.606,364.687 -90.071,366.289 -83.984,356.316 -90.071,366.289 -101.606,364.687 M-337.18,276.176 Q-345.871,273.413 -354.762,275.816 -363.332,278.019 -370.742,282.865 -378.031,287.591 -384.319,293.798 -390.727,300.206 -394.812,308.377 -398.937,316.747 -399.938,325.918 -400.939,335.05 -398.857,343.941 -396.774,353.032 -392.208,361.042 -387.643,369.012 -381.115,375.46 -374.346,382.109 -365.896,386.354 -361.233,388.753 -356.284,390.039 -352.439,391.052 -348.434,391.4 -345.939,391.304 -343.468,391 -336.674,390.24 -330.091,388.036 -321.08,385.032 -313.51,379.185 -305.981,373.298 -301.335,364.767 -297.05,356.877 -294.927,348.226 -292.804,339.576 -293.565,330.644 -294.366,321.273 -298.531,312.702 -302.496,304.492 -308.464,297.643 -314.271,290.995 -320.919,285.148 -328.048,278.98 -337.18,276.176 M-329.41,314.985 Q-327.327,316.306 -327.327,318.149 -327.327,316.306 -329.41,314.985 -331.453,313.663 -334.376,313.663 -331.453,313.663 -329.41,314.985 M-360.609,312.502 Q-358.727,313.623 -358.727,315.225 -358.727,313.623 -360.609,312.502 -362.491,311.38 -365.135,311.38 -362.491,311.38 -360.609,312.502 M-367.177,368.812 Q-367.297,368.932 -367.297,369.172 -367.297,368.932 -367.177,368.812 -363.733,365.608 -360.649,368.812 -363.733,365.608 -367.177,368.812 M84.226,289.553 Q76.857,295.761 72.612,304.291 68.647,312.221 67.125,320.832 65.563,329.563 66.845,338.294 68.206,347.666 72.892,355.716 77.538,363.686 84.867,369.172 92.477,374.779 101.528,377.062 103.191,377.467 104.852,377.703 110.731,378.659 116.627,377.823 118.334,377.602 120.031,377.222 129.122,375.26 137.012,370.614 145.142,365.968 150.87,358.719 156.637,351.43 159.32,342.539 161.923,334.049 161.243,325.077 160.562,316.347 157.358,308.296 153.873,299.686 148.066,292.437 142.419,285.428 134.529,281.022 126.76,276.697 117.788,276.777 108.457,276.857 99.365,278.78 L99.005,279.42 99.285,280.141 104.131,278.78 99.285,280.141 Q91.155,283.746 84.226,289.553 M112.141,311.781 L117.588,312.422 112.141,311.781 M92.276,317.668 L86.83,317.027 92.276,317.668 M111.821,361.122 Q114.624,361.122 116.587,359.721 118.549,358.319 118.549,356.316 118.549,358.319 116.587,359.721 114.624,361.122 111.821,361.122Z" test="JurorsFront" vector-effect="non-scaling-stroke" stroke-width="1"/>
        <path id="Layer4_0_1_STROKES" stroke="#FFF" stroke-width="1.602" stroke-linejoin="round" stroke-linecap="round" fill="none" d="M99.285,280.141 Q91.155,283.746 84.226,289.553 76.857,295.761 72.612,304.291 68.647,312.221 67.125,320.832 65.563,329.563 66.845,338.294 68.206,347.666 72.892,355.716 77.538,363.686 84.867,369.172 92.477,374.779 101.528,377.062 103.191,377.467 104.852,377.723 110.731,378.659 116.647,377.843 118.334,377.602 120.031,377.222 129.122,375.26 137.012,370.614 145.142,365.968 150.87,358.719 156.637,351.43 159.32,342.539 161.923,334.049 161.243,325.077 160.562,316.347 157.358,308.296 153.873,299.686 148.066,292.437 142.419,285.428 134.529,281.022 126.76,276.697 117.788,276.777 108.457,276.857 99.365,278.78 L99.005,279.42 M104.131,278.78 L99.285,280.141 M112.141,311.781 L117.588,312.422 M92.276,317.668 L86.83,317.027 M-348.434,391.4 Q-345.939,391.304 -343.468,391.02 -336.674,390.24 -330.091,388.036 -321.08,385.032 -313.51,379.185 -305.981,373.298 -301.335,364.767 -297.05,356.877 -294.927,348.226 -292.804,339.576 -293.565,330.644 -294.366,321.273 -298.531,312.702 -302.496,304.492 -308.464,297.643 -314.271,290.995 -320.919,285.148 -328.048,278.98 -337.18,276.176 -345.871,273.413 -354.762,275.816 -363.332,278.019 -370.742,282.865 -378.031,287.591 -384.319,293.798 -390.727,300.206 -394.812,308.377 -398.937,316.747 -399.938,325.918 -400.939,335.05 -398.857,343.941 -396.774,353.032 -392.208,361.042 -387.643,369.012 -381.115,375.46 -374.346,382.109 -365.896,386.354 -361.233,388.753 -356.264,390.059 -352.439,391.052 -348.434,391.4Z M-334.376,313.663 Q-331.453,313.663 -329.39,314.985 -327.327,316.306 -327.327,318.149 M-365.135,311.38 Q-362.491,311.38 -360.609,312.502 -358.727,313.623 -358.727,315.225 M-117.105,271.811 Q-97.32,270.409 -80.459,280.502 -72.81,285.067 -67.723,292.196 -56.509,308.056 -55.949,327.681 -55.628,339.936 -59.273,351.59 -60.194,354.594 -65.4,360.402 -70.527,366.129 -77.455,371.976 -89.616,382.243 -97.921,385.553 -101.206,386.859 -103.888,387.075 -108.817,387.459 -115.082,385.853 -121.842,384.102 -130.161,380.026 -146.341,372.056 -151.548,363.445 -161.56,346.945 -162.361,327.721 -163.203,308.056 -150.827,292.837 -139.052,278.339 -121.631,271.45 -119.708,270.609 -117.706,269.909 M-133.726,319.711 L-137.691,322.634 M-97.04,310.739 L-101.045,313.663 M-83.984,356.316 Q-90.071,366.289 -101.606,364.687 -102.727,364.487 -103.848,364.326 M-57.751,493.247 Q-60.875,466.935 -70.487,443.465 -79.899,420.356 -90.271,397.768 -92.313,393.363 -94.797,389.678 M-116.865,389.678 Q-119.735,396.441 -121.23,404.176 -123.112,413.948 -125.515,423.44 -131.163,445.668 -135.568,468.376 -137.971,480.912 -140.334,493.247 M-398.216,481.913 Q-396.253,475.665 -393.73,469.618 -384.599,448.031 -375.307,426.364 -368.484,410.41 -359.908,396.006 -359.492,395.303 -359.067,394.604 M-341.065,394.604 Q-336.545,401.552 -332.774,409.182 -323.603,427.886 -315.152,446.789 -307.623,463.65 -302.777,481.913 M-360.649,368.812 Q-363.733,365.608 -367.177,368.812 -367.297,368.932 -367.297,369.172 M111.821,361.122 Q114.624,361.122 116.587,359.721 118.549,358.319 118.549,356.316 M64.602,510.108 Q69.087,482.995 76.657,457.002 79.941,445.708 83.065,434.294 89.954,409.142 100.126,386.794 101.485,383.838 102.97,381.067 M118.669,381.067 Q127.535,395.68 133.808,413.187 142.739,438.058 150.669,463.851 155.956,480.992 161.162,498.214 M-1071.937,325.878 Q-1069.294,325.878 -1067.411,327 -1065.529,328.121 -1065.529,329.723 M-1050.15,326.519 Q-1047.226,326.519 -1045.164,327.841 -1043.101,329.162 -1043.101,331.005 M-1058.961,280.021 Q-1078.305,282.544 -1094.045,293.959 -1110.986,306.214 -1115.031,326.599 -1119.036,346.825 -1110.785,365.528 -1103.096,383.07 -1087.236,393.883 -1080.118,398.687 -1071.977,399.931 -1069.113,400.371 -1066.13,400.371 -1063.738,400.691 -1061.424,400.772 -1044.59,401.351 -1031.567,389.278 -1017.109,375.941 -1012.022,356.917 -1006.816,337.453 -1015.306,319.31 -1022.035,304.932 -1032.648,293.158 -1043.261,281.423 -1058.821,279.701 M-836.163,260.937 L-844.773,259.476 M-836.763,262.84 Q-874.691,260.757 -889.709,295.16 -898.2,314.664 -893.474,335.33 -887.186,362.885 -859.592,372.817 -854.987,374.409 -849.86,375.621 -847.534,376.159 -845.114,376.622 -844.126,376.808 -842.611,376.862 -841.118,376.854 -839.186,376.622 -837.874,376.465 -836.603,376.261 -805.581,371.234 -795.512,337.573 -785.019,302.489 -810.931,276.377 -821.665,265.643 -836.163,260.937 M-829.074,306.254 L-825.229,309.178 M-860.793,309.178 L-856.949,312.101 M-868.803,347.345 Q-866.16,351.991 -860.873,350.509 -860.193,350.349 -859.512,350.229 M-629.845,280.121 Q-636.353,282.624 -642.08,286.669 -648.608,291.355 -653.214,297.924 -657.339,303.771 -659.863,310.579 -662.266,317.188 -662.986,324.196 -663.747,331.365 -662.706,338.374 -661.585,345.823 -658.301,352.632 -655.177,359.2 -649.85,364.246 -644.483,369.333 -637.835,372.817 -633.465,375.139 -628.724,376.321 -625.856,377.041 -622.856,377.343 -616.008,378.344 -609.159,376.902 -608.59,376.781 -608.018,376.642 -601.468,375.113 -595.422,372.016 -588.974,368.612 -583.728,363.646 -578.441,358.559 -574.676,352.031 -571.072,345.903 -569.35,338.975 -567.627,332.126 -568.108,325.117 -568.629,317.788 -570.791,310.86 -572.914,304.051 -576.759,298.164 -580.604,292.236 -585.77,287.15 -591.257,281.823 -598.146,278.659 -605.194,275.415 -613.124,275.215 -619.853,275.896 -626.501,277.979 -628.103,278.459 -629.745,278.82 L-630.105,279.42 M-624.979,278.78 L-629.845,280.121 M-636.834,317.668 L-642.281,317.027 M-616.969,311.781 L-611.522,312.422 M-1115.471,490.924 Q-1107.501,471.741 -1098.65,452.997 -1090.44,435.615 -1081.909,418.674 -1079.065,413.007 -1074.821,405.137 M-617.289,361.122 Q-614.486,361.122 -612.523,359.721 -610.561,358.319 -610.561,356.316 M-606.596,380.066 Q-599.12,390.937 -595.302,400.572 -586.411,423.12 -578.481,446.549 -573.194,462.048 -567.948,477.628 M-663.787,484.837 Q-662.826,479.03 -661.224,473.302 -655.217,451.635 -649.169,429.888 -642.641,406.539 -633.069,385.152 -632.415,383.695 -630.386,379.666 M-833.98,380.226 Q-812.618,412.903 -802.961,446.589 -796.874,467.936 -790.426,488.962 M-898.921,488.962 Q-891.432,444.987 -869.564,407.54 -862.102,394.713 -852.823,380.226 M-1059.241,405.137 Q-1054.397,414.792 -1050.47,422.319 -1041.259,439.901 -1032.968,457.923 -1025.559,473.983 -1020.433,490.924 M-1093.724,361.763 L-1074.5,368.171" test="JurorsFront"/>
      </g>
    </g>
    <g id="Parrot">
      <path id="Layer2_0_1_STROKES" stroke="#FFF" stroke-width="2" stroke-linejoin="round" stroke-linecap="round" fill="none" d="M548.4,249.45 Q552.1,249.9 555.4,252.85 559.4,256.4 557.9,262.05 556.4,267.7 553.6,270.55 550.8,273.35 547.2,273.25 543.55,273.15 540.95,271.05 538.3,268.95 537.65,265.4 537.05,262 537.9,258.85 538.7,256 539.75,254.3 540.75,252.55 542.85,251.45 544.9,250.3 548.4,249.45Z M548.8,261.2 Q548.3,260.55 547.55,260.45 546.75,260.35 546.7,260.35 546.4,260.35 546.05,260.65 545.2,261.4 545.9,262.9 546.5,264.15 547.85,263.65 548.8,263.3 548.95,262.6 549.1,262.1 549.1,261.9 549.15,261.5 548.8,261.2Z M504.05,251.95 Q506.25,251.75 509.2,255.15 512.1,258.45 511.9,263.1 511.7,267.65 509.6,270.45 507.55,273.2 504,273.1 500.4,272.95 497.6,270.7 494.45,268.3 494.6,264.5 494.85,259.3 496.6,256.2 499,251.9 504.05,251.95Z M506.7,262.75 Q506.35,262.15 505.7,262.1 504.95,262 504.9,262 504.7,262 504.35,262.25 503.6,262.95 504.25,264.3 504.8,265.45 505.9,264.95 506.7,264.65 506.85,264 506.95,263.6 506.95,263.4 507.05,263.05 506.7,262.75Z" test="Parrot"/>
      <path id="Layer2_0_2_STROKES" stroke="#F00" stroke-width="2" stroke-linejoin="round" stroke-linecap="round" fill="none" d="M569.95,279.85 Q572.95,280.45 573.7,280.55 574.45,280.65 575.95,280.65 578.1,280.65 581.95,278.25 M563.55,305.45 L565,305.85 Q566.7,306.25 567.95,306.25 568.7,306.25 570.8,304.85 572.75,303.55 573.15,303.05 M605.95,328.75 Q597.1,319.15 594.2,306.5 591.75,295.7 593.25,280.05 594.6,266.25 587.55,253.35 579.75,239.1 567,233.6 554.25,228.05 544.4,227.1 534.55,226.1 525.15,229.55 515.7,233 508.8,239.95 501.95,246.8 501.7,248.35 M499.85,317.85 Q499.4,330.9 492.9,341.5 M532.35,306.25 Q534.6,308.75 536.05,311.5 536.25,311.85 538.75,311.85 540.05,311.85 541.8,311.35 542.15,311.25 545.15,310.25" test="Parrot"/>
      <path id="Layer2_0_3_STROKES" stroke="#0FF" stroke-width="2" stroke-linejoin="round" stroke-linecap="round" fill="none" d="M497.5,334.9 L496.85,338.8 Q497.75,339.25 498.85,339.35 499.55,339.45 501.05,339.45 505.2,339.45 508.3,335.9 511.45,332.3 513.75,332.3 514.55,332.3 518.95,332.95 523.3,333.6 524.15,333.6 529.1,333.6 530.1,331.35 531.05,329.05 534.85,329.05 535.7,329.05 538.8,329.7 541.95,330.35 542.75,330.35 543.3,330.35 545.25,328.4 547.15,326.45 549.55,326.45 550.4,326.45 553.65,327.1 556.9,327.75 557.7,327.75 558.6,327.75 561.1,326.45 562.35,325.8 563.55,325.15 563.7,325.15 566.7,326.45 570.05,327.75 571.65,327.75 573.7,327.75 576.35,326.8 577.65,326.3 578.8,325.8 580.8,325.8 590.85,328.1 599.2,330 602.95,330.3 603.7,330.35 604.25,330.35 M533.3,353.2 Q532.75,355.05 530.95,371.85 529.2,388.1 528.1,390.95 526.55,395.15 526,405.85 525.4,417.2 526.8,424.15 528.35,431.85 535.6,452.9 543.05,474.5 546.35,480.15 547.9,482.85 552.6,490.15 556.4,496.05 559.35,501.65 563.25,509.05 566.35,512 569.5,515.05 574.35,516 577.6,516.65 582.65,517.85 586.05,518.25 586.05,515.35 586.05,507.25 594.5,511.45 600.45,514.4 602.5,514.8 605.8,515.45 607.55,512.75 608.85,510.8 610.6,507.45 612.5,504.85 616.65,503.6 619.35,502.8 621.75,504.6 622.4,505.1 623.85,499.7 625.5,493.6 628.1,486.9 L630.35,481.45 Q631,477.55 632.95,468.45 634.65,460.45 633.85,450.35 632.85,438.15 628.4,428.75 628.15,428.25 617,406.2 609.9,392.1 607.55,385.1 605.8,379.85 602.45,372.5 600.1,367.4 599.75,364.25 M635.4,384.75 Q634.8,384.4 633.9,384.4 633.75,384.4 626.1,387 624.45,386.1 622.45,385.05 622.1,386.95 620.75,388.4 619.6,389.6 618.85,389.6 617.2,389.6 615.85,388.4 614.75,387.45 614.65,387.65 613.8,388.55 612.55,389.15 611.1,389.8 610.1,389.6 M607.5,333.6 Q634.55,359.45 634.85,384.4 L635.5,384.4 M492.9,341.5 Q488.45,353.4 484.8,365.7 481.15,377.95 478.1,390.4 476.15,398.3 473.75,406.1 469.9,418.55 468.95,431.5 468.75,434.55 468.95,437.5 469.7,450.35 467.65,463.25 467,467.55 465.1,471.45 463.7,474.3 462.35,477.1 460.6,474.75 460.1,471.65 456.15,447.25 458,422.8 458.3,418.9 459,415 460.2,408.55 461.25,402.1 462.25,396.15 464.45,390.5 469,378.75 473.85,367.2 480.25,352.15 492.9,341.5Z M479.85,402 Q482.45,404.45 485.5,405.05 486.4,405.25 489.7,405.25 491.55,405.25 492.4,403.65 493.25,402 496.2,402 498.15,402 502.45,402.4 506.3,402.65 508.55,402 514.1,400.45 519.15,400.1 520.5,400 524.8,400" test="Parrot"/>
      <path id="Layer2_0_4_STROKES" stroke="#0F0" stroke-width="2" stroke-linejoin="round" stroke-linecap="round" fill="none" d="M639.25,411 Q640.05,409.75 640.05,407.55 640.05,406 637.9,396.4 635.65,386.65 634.85,385.05" test="Parrot"/>
      <path id="Layer2_0_5_STROKES" stroke="#FF0" stroke-width="2" stroke-linejoin="round" stroke-linecap="round" fill="none" d="M636.15,444.25 L642,444.25 Q641.7,442.85 642.75,439.05 643.95,434.9 643.95,433.85 643.95,427.55 642.05,419.5 640.45,412.7 639.25,411 M500.15,278.9 Q489.65,284.25 488.55,293.95 488.05,298.4 487.75,302.95 503.3,305.6 509.4,301.25 511.45,294.35 508.35,289.1 505.2,283.8 503.7,282.35 502.2,280.85 500.15,278.9Z M493.6,304.25 Q491.55,314.65 502.45,315.35 504.45,315.2 506.1,314.4 510.1,311.5 508.55,302.85 M472.7,458.65 Q475.45,461 476.6,462.35 476.9,462.55 480.15,462.55 482.75,462.55 491.35,459.3 498.3,456.7 500.35,456.2 500.6,456.1 500.75,456.1 500.8,457.05 505.35,457.3 506.3,457.35 511.15,457.35 513.05,457.35 517,456.4 520.95,455.4 522.5,455.4 524.9,455.4 525.1,455.35 526.35,454.95 526.75,452.7 534.55,454.5 532.6,454 M500.35,456.2 Q500.1,456.3 500.3,456.65 500.75,457.35 500.75,456.1 M486.35,502.95 Q482.4,506 481.5,508.5 481.15,509.55 481.15,513.65 481.15,519.05 484.3,520.8 486.7,522.1 496.2,523.1 496.2,521.5 495.9,520.15 497.9,520.9 500.75,521.8 L504,521.8 Q502.7,520.1 501.65,518.7 503.9,519.5 505.95,520.5 L510.5,520.5 510.5,517.25 Q506.9,514.05 505.75,508.35 505.15,502.8 504.65,501.65 504,501.65 502.7,501 M518.3,503.6 Q517.45,513.8 519.2,516.8 520.7,519.4 526.75,519.85 L526.75,515.95 Q526.2,514.85 525.65,511.95 525.8,512.15 525.9,512.4 528.75,518.15 533.9,519.2 L533.9,514.05 Q534.55,515.1 535.35,516.1 537.95,519.2 541.05,519.85 L541.75,519.85 Q542.1,517.75 541,514 539.75,509.85 539.75,508.15 539.75,504.7 542.4,502.95 M554.75,508.8 Q553.95,521.6 563.2,545.2 567.15,555.3 571.05,561.75 575.25,568.65 577.85,568.65 581.55,568.65 582.45,568.25 585.5,566.9 585.95,561.5 588.3,562.65 594.4,563.45 599.75,563.45 601.5,557.95 602.6,554.55 602.8,554.15 603.75,552.4 605.55,552.4 606.25,552.4 613.35,555 614.45,555 616.3,551.75 618.3,548.25 619.85,547.85 623.55,546.8 628.75,546.05 632.45,545.1 634.2,541.35 635.25,541.35 637.05,541.7 638.85,542 639.4,542 L639.4,520.5 Q636.8,511.6 634.05,499.45 631.95,490.25 630.3,486.05" test="Parrot"/>
      <path id="Layer2_0_6_STROKES" stroke="#F0F" stroke-width="2" stroke-linejoin="round" stroke-linecap="round" fill="none" d="M462.35,477.1 L463.35,486.2 Q464.95,496.05 468.2,499.7 469.85,501.55 470.8,503.85 471.35,505.1 471.95,507 472.45,508.35 473.3,508.5 474.35,508.65 476.65,507.5 479.7,506 482.25,503.05 484,501 486.4,501 488.7,501 494.5,501.9 499.65,502.35 502.05,500.35 504.4,498.4 509.15,499.55 511.85,500.2 517.7,501.65 520.65,502 525,502.85 528.5,503.25 531.35,501.65 534.3,500 537.3,500.1 539.2,500.2 543.75,501 546.35,501.35 549.2,502.4 551,502.75 552.2,500.35 M635.5,486.05 Q637.85,474.05 639.2,465.75 640.3,459.25 642,446.85 M597.1,631.2 Q599.9,639.3 600.65,640.5 601.75,642.25 604.55,642.25 605.6,642.25 605.9,642.15 607.3,641.5 608.8,639 627.5,657.85 628.7,657.85 636.2,657.85 639.4,644.9 641.35,637.1 641.35,627.65 641.35,621.7 640.05,616.05 639.2,612.35 637.45,607.75" test="Parrot"/>
      <path id="Layer2_0_7_STROKES" stroke="#F60" stroke-width="2" stroke-linejoin="round" stroke-linecap="round" fill="none" d="M579.45,573.2 Q578.95,572.4 578.4,571.6 577.25,569.95 576.85,569.95 L576.85,573.2 Q578.1,580.8 586.45,603.25 596.3,629.9 601.3,629.9 603.45,629.9 608.35,625.7 612.9,621.45 613,621.45 613.85,621.45 616.25,622.1 618.7,622.75 619.5,622.75 621.95,622.75 624.35,617.85 626,614.45 626.4,612.3 632.05,612.3 634.9,609.4 637.75,606.45 640.7,606.45 640.7,604.2 641.05,599.2 641.35,594.2 641.35,593.7 641.35,589.15 638.45,579.05 635.15,567.65 634.85,565.4 634.35,561.9 634.55,555.85 634.85,549.5 634.85,547.2 L634.2,547.2" test="Parrot"/>
    </g>
    <g id="JuryBoxFront">
      <path fill="#000" stroke="none" d="M-1892.3,514.35 L-1914.6,488.3 -1916.45,617.25 Q-1908.272,617.251 -1896.8,617.25 L-1892.3,514.35 M1049.75,500.95 L1048.4,500.95 1030.55,518.5 1030.55,613 Q1041.034,613.017 1049.75,613 L1049.75,500.95 M878.3,512.95 Q803.8,514.65 729.45,518.9 654,522.55 578.5,523 501.1,523.45 423.7,523.35 348.2,523.25 272.7,523 192.9,522.75 113.1,521.8 34.4,520.9 -44.25,519.6 -122.35,518.35 -200.45,520.35 -277.75,522.3 -355.1,526.5 -430.35,529.75 -505.75,528.6 -585.15,527.35 -664.5,522.45 -738.45,517.5 -812.7,516.45 -886.6,515.45 -960.55,516.1 -1039.9,516.8 -1119.25,518 -1198.9,519.25 -1278.5,520.45 -1357.55,521.65 -1436.7,522.95 -1513.7,524.25 -1590.75,524.85 -1667.5,525.45 -1744.45,523.95 -1818.6,522.5 -1892.3,514.35 L-1896.8,617.25 Q-1690.842,617.16 -422,615.15 785.873,613.195 1030.55,613 L1030.55,518.5 Q954.6,511.25 878.3,512.95 M710.6,502.85 Q705.394,503.094 700.2,503.3 624.25,505.8 548.3,505.8 525.286,505.8 502.25,505.8 446.721,505.815 391.15,505.85 382.912,505.856 374.65,505.85 303.357,505.781 232,504.75 209.125,504.422 186.25,503.75 163.368,503.598 140.45,503.4 123.302,503.302 106.1,503.15 88.936,502.697 71.75,502.45 -7.95,501.35 -87.7,500.55 -149.737,499.94 -211.75,502.65 -220.844,503.077 -229.95,503.55 -305,507 -379.9,510.95 L-539.95,511.75 Q-620.25,507.9 -700.45,502.95 -773.1,497.9 -846.2,497.2 -925.25,496.4 -1004.2,497.5 -1081.3,498.6 -1158.5,500.15 -1231.15,501.65 -1303.85,503.2 -1377.75,504.75 -1451.75,505.95 -1529.7,507.2 -1607.85,506.2 -1683.55,505.25 -1759.15,500.25 -1836.95,495.6 -1914.6,488.3 L-1892.3,514.35 Q-1818.6,522.5 -1744.45,523.95 -1667.5,525.45 -1590.75,524.85 -1513.7,524.25 -1436.7,522.95 -1357.55,521.65 -1278.5,520.45 -1198.9,519.25 -1119.25,518 -1039.9,516.8 -960.55,516.1 -886.6,515.45 -812.7,516.45 -738.45,517.5 -664.5,522.45 -585.15,527.35 -505.75,528.6 -430.35,529.75 -355.1,526.5 -277.75,522.3 -200.45,520.35 -122.35,518.35 -44.25,519.6 34.4,520.9 113.1,521.8 192.9,522.75 272.7,523 348.2,523.25 423.7,523.35 501.1,523.45 578.5,523 654,522.55 729.45,518.9 803.8,514.65 878.3,512.95 954.6,511.25 1030.55,518.5 L1048.4,500.95 1048.45,500.15 Q1030.062,498.494 1011.65,496.85 997.552,495.536 983.45,494.6 923.485,490.798 863.3,494.4 787.031,499.691 710.6,502.85Z" test="JuryBoxFront"/>
      <path id="Layer1_0_1_STROKES" stroke="#F60" stroke-width="2" stroke-linejoin="round" stroke-linecap="round" fill="none" d="M1048.475,500.175 Q1030.062,498.494 1011.65,496.85 997.552,495.536 983.45,494.625 923.485,490.798 863.3,494.4 787.031,499.691 710.6,502.875 705.394,503.094 700.2,503.3 624.25,505.8 548.3,505.8 525.286,505.8 502.275,505.8 446.721,505.815 391.15,505.85 382.912,505.856 374.675,505.85 303.357,505.781 232,504.75 209.125,504.422 186.25,503.775 163.368,503.598 140.475,503.425 123.302,503.302 106.125,503.175 88.936,502.697 71.75,502.45 -7.95,501.35 -87.7,500.55 -149.737,499.94 -211.725,502.675 -220.844,503.077 -229.95,503.55 -305,507 -379.9,510.95 L-539.95,511.75 Q-620.25,507.9 -700.45,502.95 -773.1,497.9 -846.2,497.2 -925.25,496.4 -1004.2,497.5 -1081.3,498.6 -1158.5,500.15 -1231.15,501.65 -1303.85,503.2 -1377.75,504.75 -1451.75,505.95 -1529.7,507.2 -1607.85,506.2 -1683.55,505.25 -1759.15,500.25 -1836.95,495.6 -1914.6,488.3 L-1892.3,514.35 Q-1818.6,522.5 -1744.45,523.95 -1667.5,525.45 -1590.75,524.85 -1513.7,524.25 -1436.7,522.95 -1357.55,521.65 -1278.5,520.45 -1198.9,519.25 -1119.25,518 -1039.9,516.8 -960.55,516.1 -886.6,515.45 -812.7,516.45 -738.45,517.5 -664.5,522.45 -585.15,527.35 -505.75,528.6 -430.35,529.75 -355.1,526.5 -277.75,522.3 -200.45,520.35 -122.35,518.35 -44.25,519.6 34.4,520.9 113.1,521.8 192.9,522.75 272.7,523 348.2,523.25 423.7,523.35 501.1,523.45 578.5,523 654,522.55 729.45,518.9 803.8,514.65 878.3,512.95 954.6,511.25 1030.55,518.5 L1048.4,500.95 M1048.475,500.175 Q1049.112,500.242 1049.75,500.3 L1049.75,500.95 1049.75,613 1049.75,624.2 M1030.55,624.2 L1030.55,613.025 M-1896.8,617.25 L-1897.1,624.2 M1030.55,613.025 L1030.55,518.5 M-1916.55,624.2 L-1916.45,617.25 -1914.6,488.3 M-1892.3,514.35 L-1896.8,617.25" test="JuryBoxFront"/>
    </g>
  </g>
</svg>