<?xml version="1.0" encoding="utf-8"?>
<svg id="EdithAnim12" image-rendering="inherit" baseProfile="basic" version="1.1" x="0px" y="0px" width="800" height="600" xmlns="http://www.w3.org/2000/svg" xmlns:xlink="http://www.w3.org/1999/xlink">
  <g id="14_JurorParrotf78r1" overflow="visible">
    <g id="JurorsBack">
      <path fill="#000" stroke="none" d="M-470.03,132.23 Q-472.03,132.91 -473.95,133.75 -491.35,140.63 -503.11,155.11 -515.47,170.31 -514.63,189.95 -513.83,209.15 -503.83,225.63 -498.63,234.23 -482.47,242.19 -474.15,246.27 -467.39,248.03 -461.15,249.63 -456.23,249.23 -453.55,249.03 -450.27,247.71 -441.99,244.39 -429.83,234.15 -422.91,228.31 -417.79,222.59 -412.59,216.79 -411.67,213.79 -408.03,202.15 -408.35,189.91 -408.91,170.31 -420.11,154.47 -425.19,147.35 -432.83,142.79 -449.67,132.71 -469.43,134.11 L-470.03,132.23 M-486.03,181.95 L-489.99,184.87 -486.03,181.95 M-449.39,172.99 L-453.39,175.91 -449.39,172.99 M-453.95,226.87 Q-455.07,226.67 -456.19,226.51 -455.07,226.67 -453.95,226.87 -442.43,228.47 -436.35,218.51 -442.43,228.47 -453.95,226.87 M-689.79,138.11 Q-698.35,140.31 -705.75,145.15 -713.03,149.87 -719.31,156.07 -725.71,162.47 -729.79,170.63 -733.91,178.99 -734.91,188.15 -735.91,197.27 -733.83,206.15 -731.75,215.23 -727.19,223.23 -722.63,231.19 -716.11,237.63 -709.35,244.27 -700.91,248.51 -696.27,250.91 -691.27,252.23 -687.47,253.19 -683.47,253.55 -680.99,253.47 -678.51,253.19 -671.71,252.39 -665.15,250.19 -656.15,247.19 -648.59,241.35 -641.07,235.47 -636.43,226.95 -632.15,219.07 -630.03,210.43 -627.91,201.79 -628.67,192.87 -629.47,183.51 -633.63,174.95 -637.59,166.75 -643.55,159.91 -649.35,153.27 -655.99,147.43 -663.11,141.27 -672.23,138.47 -680.91,135.71 -689.79,138.11 M-664.43,177.23 Q-662.39,178.55 -662.39,180.39 -662.39,178.55 -664.43,177.23 -666.51,175.91 -669.43,175.91 -666.51,175.91 -664.43,177.23 M-695.63,174.75 Q-693.75,175.87 -693.75,177.47 -693.75,175.87 -695.63,174.75 -697.51,173.63 -700.15,173.63 -697.51,173.63 -695.63,174.75 M-702.19,230.99 Q-702.31,231.11 -702.31,231.35 -702.31,231.11 -702.19,230.99 -698.75,227.79 -695.67,230.99 -698.75,227.79 -702.19,230.99 M-913.79,141.71 L-913.51,142.43 -908.67,141.07 -913.51,142.43 Q-920.03,144.91 -925.75,148.95 -932.27,153.63 -936.87,160.19 -940.99,166.03 -943.51,172.83 -945.91,179.43 -946.63,186.43 -947.39,193.59 -946.35,200.59 -945.23,208.03 -941.95,214.83 -938.83,221.39 -933.51,226.43 -928.15,231.51 -921.51,234.99 -917.15,237.31 -912.39,238.51 -909.55,239.19 -906.55,239.51 -899.71,240.51 -892.87,239.07 -892.31,238.95 -891.71,238.83 -885.19,237.27 -879.15,234.19 -872.71,230.79 -867.47,225.83 -862.19,220.75 -858.43,214.23 -854.83,208.11 -853.11,201.19 -851.39,194.35 -851.87,187.35 -852.39,180.03 -854.55,173.11 -856.67,166.31 -860.51,160.43 -864.35,154.51 -869.51,149.43 -874.99,144.11 -881.87,140.95 -888.91,137.71 -896.83,137.51 -903.55,138.19 -910.19,140.27 -911.79,140.75 -913.43,141.11 L-913.79,141.71 M-900.67,174.03 L-895.23,174.67 -900.67,174.03 M-896.23,221.91 Q-894.27,220.51 -894.27,218.51 -894.27,220.51 -896.23,221.91 -898.19,223.31 -900.99,223.31 -898.19,223.31 -896.23,221.91 M-920.51,179.91 L-925.95,179.27 -920.51,179.91 M-56.27,135.83 Q-64.67,137.71 -72.31,141.95 -80.59,146.59 -86.55,153.99 -92.15,160.95 -94.59,169.51 -97.15,178.31 -97.55,187.55 -97.95,196.55 -96.79,205.51 -95.67,214.39 -90.67,221.83 -85.51,229.51 -77.99,234.75 -70.71,239.87 -62.39,243.03 -53.55,246.31 -44.11,246.75 -35.11,247.51 -26.71,244.11 -17.91,240.63 -11.59,233.43 -5.23,226.23 -1.27,217.67 2.69,209.07 4.33,199.63 5.89,190.63 4.77,181.51 3.61,171.99 -.67,163.31 -4.91,154.83 -11.87,148.47 -17.79,143.03 -24.63,138.79 -31.15,134.71 -38.47,132.23 L-39.07,134.11 Q-47.79,134.07 -56.27,135.83 M-31.39,177.47 L-27.55,180.39 -31.39,177.47 M-63.07,180.39 L-59.23,183.31 -63.07,180.39 M-63.15,221.67 Q-62.47,221.51 -61.79,221.39 -62.47,221.51 -63.15,221.67 -68.39,223.15 -71.07,218.51 -68.39,223.15 -63.15,221.67 M-279.95,166.55 Q-283.91,174.47 -285.43,183.07 -286.99,191.79 -285.71,200.51 -284.35,209.87 -279.67,217.91 -275.03,225.87 -267.71,231.35 -260.11,236.95 -251.07,239.23 -249.39,239.63 -247.75,239.91 -241.87,240.83 -235.95,240.03 -234.27,239.75 -232.59,239.39 -223.51,237.43 -215.63,232.79 -207.51,228.15 -201.79,220.91 -196.03,213.63 -193.35,204.75 -190.75,196.27 -191.43,187.31 -192.11,178.59 -195.31,170.55 -198.79,161.95 -204.59,154.71 -210.23,147.71 -218.11,143.31 -225.87,138.99 -234.83,139.07 -244.15,139.15 -253.23,141.07 L-253.59,141.71 -253.31,142.43 -248.47,141.07 -253.31,142.43 Q-261.43,146.03 -268.35,151.83 -275.71,158.03 -279.95,166.55 M-260.31,179.91 L-265.75,179.27 -260.31,179.91 M-240.47,174.03 L-235.03,174.67 -240.47,174.03 M-240.79,223.31 Q-237.99,223.31 -236.03,221.91 -234.07,220.51 -234.07,218.51 -234.07,220.51 -236.03,221.91 -237.99,223.31 -240.79,223.31Z" test="JurorsBack" vector-effect="non-scaling-stroke" stroke-width="1"/>
      <path id="Layer3_0_1_STROKES" stroke="#FFF" stroke-width="1.6" stroke-linejoin="round" stroke-linecap="round" fill="none" d="M-253.31,142.43 Q-261.43,146.03 -268.35,151.83 -275.71,158.03 -279.95,166.55 -283.91,174.47 -285.43,183.07 -286.99,191.79 -285.71,200.51 -284.35,209.87 -279.67,217.91 -275.03,225.87 -267.71,231.35 -260.11,236.95 -251.07,239.23 -249.39,239.63 -247.75,239.91 -241.87,240.83 -235.95,240.03 -234.27,239.75 -232.59,239.39 -223.51,237.43 -215.63,232.79 -207.51,228.15 -201.79,220.91 -196.03,213.63 -193.35,204.75 -190.75,196.27 -191.43,187.31 -192.11,178.59 -195.31,170.55 -198.79,161.95 -204.59,154.71 -210.23,147.71 -218.11,143.31 -225.87,138.99 -234.83,139.07 -244.15,139.15 -253.23,141.07 L-253.59,141.71 M-248.47,141.07 L-253.31,142.43 M-260.31,179.91 L-265.75,179.27 M-240.47,174.03 L-235.03,174.67 M-240.79,223.31 Q-237.99,223.31 -236.03,221.91 -234.07,220.51 -234.07,218.51 M-39.07,134.11 Q-47.79,134.07 -56.27,135.83 -64.67,137.71 -72.31,141.95 -80.59,146.59 -86.55,153.99 -92.15,160.95 -94.59,169.51 -97.15,178.31 -97.55,187.55 -97.95,196.55 -96.79,205.51 -95.67,214.39 -90.67,221.83 -85.51,229.51 -77.99,234.75 -70.71,239.87 -62.39,243.03 -53.55,246.31 -44.11,246.75 -35.11,247.51 -26.71,244.11 -17.91,240.63 -11.59,233.43 -5.23,226.23 -1.27,217.67 2.69,209.07 4.33,199.63 5.89,190.63 4.77,181.51 3.61,171.99 -.67,163.31 -4.91,154.83 -11.87,148.47 -17.79,143.03 -24.63,138.79 -31.15,134.71 -38.47,132.23 L-47.07,130.75 M-31.39,177.47 L-27.55,180.39 M-63.07,180.39 L-59.23,183.31 M-71.07,218.51 Q-68.39,223.15 -63.15,221.67 -62.47,221.51 -61.79,221.39 M-41.43,251.67 Q-40.63,252.67 -39.79,253.71 -16.63,283.03 -5.11,319.99 1.89,342.51 8.93,364.91 M-101.47,366.63 Q-97.07,322.87 -75.11,285.87 -64.27,267.55 -49.63,253.71 -48.55,252.67 -47.47,251.67 M-287.95,372.11 Q-283.47,345.03 -275.91,319.07 -272.63,307.79 -269.51,296.39 -262.63,271.27 -252.47,248.95 -251.11,245.99 -249.63,243.23 M-233.95,243.23 Q-225.11,257.83 -218.83,275.31 -209.91,300.15 -201.99,325.91 -196.71,343.03 -191.51,360.23 M-908.67,141.07 L-913.51,142.43 Q-920.03,144.91 -925.75,148.95 -932.27,153.63 -936.87,160.19 -940.99,166.03 -943.51,172.83 -945.91,179.43 -946.63,186.43 -947.39,193.59 -946.35,200.59 -945.23,208.03 -941.95,214.83 -938.83,221.39 -933.51,226.43 -928.15,231.51 -921.51,234.99 -917.15,237.31 -912.39,238.51 -909.55,239.19 -906.55,239.51 -899.71,240.51 -892.87,239.07 -892.31,238.95 -891.71,238.83 -885.19,237.27 -879.15,234.19 -872.71,230.79 -867.47,225.83 -862.19,220.75 -858.43,214.23 -854.83,208.11 -853.11,201.19 -851.39,194.35 -851.87,187.35 -852.39,180.03 -854.55,173.11 -856.67,166.31 -860.51,160.43 -864.35,154.51 -869.51,149.43 -874.99,144.11 -881.87,140.95 -888.91,137.71 -896.83,137.51 -903.55,138.19 -910.19,140.27 -911.79,140.75 -913.43,141.11 L-913.79,141.71 M-900.67,174.03 L-895.23,174.67 M-900.99,223.31 Q-898.19,223.31 -896.23,221.91 -894.27,220.51 -894.27,218.51 M-683.47,253.55 Q-680.99,253.47 -678.51,253.19 -671.71,252.39 -665.15,250.19 -656.15,247.19 -648.59,241.35 -641.07,235.47 -636.43,226.95 -632.15,219.07 -630.03,210.43 -627.91,201.79 -628.67,192.87 -629.47,183.51 -633.63,174.95 -637.59,166.75 -643.55,159.91 -649.35,153.27 -655.99,147.43 -663.11,141.27 -672.23,138.47 -680.91,135.71 -689.79,138.11 -698.35,140.31 -705.75,145.15 -713.03,149.87 -719.31,156.07 -725.71,162.47 -729.79,170.63 -733.91,178.99 -734.91,188.15 -735.91,197.27 -733.83,206.15 -731.75,215.23 -727.19,223.23 -722.63,231.19 -716.11,237.63 -709.35,244.27 -700.91,248.51 -696.27,250.91 -691.27,252.23 -687.47,253.19 -683.47,253.55Z M-669.43,175.91 Q-666.51,175.91 -664.43,177.23 -662.39,178.55 -662.39,180.39 M-700.15,173.63 Q-697.51,173.63 -695.63,174.75 -693.75,175.87 -693.75,177.47 M-469.43,134.11 Q-449.67,132.71 -432.83,142.79 -425.19,147.35 -420.11,154.47 -408.91,170.31 -408.35,189.91 -408.03,202.15 -411.67,213.79 -412.59,216.79 -417.79,222.59 -422.91,228.31 -429.83,234.15 -441.99,244.39 -450.27,247.71 -453.55,249.03 -456.23,249.23 -461.15,249.63 -467.39,248.03 -474.15,246.27 -482.47,242.19 -498.63,234.23 -503.83,225.63 -513.83,209.15 -514.63,189.95 -515.47,170.31 -503.11,155.11 -491.35,140.63 -473.95,133.75 -472.03,132.91 -470.03,132.23 M-486.03,181.95 L-489.99,184.87 M-449.39,172.99 L-453.39,175.91 M-436.35,218.51 Q-442.43,228.47 -453.95,226.87 -455.07,226.67 -456.19,226.51 M-920.51,179.91 L-925.95,179.27 M-947.43,346.87 Q-946.47,341.07 -944.87,335.35 -938.87,313.71 -932.83,291.99 -926.31,268.67 -916.75,247.31 -916.11,245.87 -914.07,241.83 M-410.15,355.27 Q-413.27,328.99 -422.87,305.55 -432.27,282.47 -442.63,259.91 -444.67,255.51 -447.15,251.83 M-469.19,251.83 Q-472.07,258.59 -473.55,266.31 -475.43,276.07 -477.83,285.55 -483.47,307.75 -487.87,330.43 -490.27,342.95 -492.63,355.27 M-676.11,256.75 Q-671.59,263.67 -667.83,271.31 -658.67,289.99 -650.23,308.87 -642.71,325.71 -637.87,343.95 M-695.67,230.99 Q-698.75,227.79 -702.19,230.99 -702.31,231.11 -702.31,231.35 M-733.19,343.95 Q-731.23,337.71 -728.71,331.67 -719.59,310.11 -710.31,288.47 -703.51,272.55 -694.91,258.15 -694.51,257.43 -694.07,256.75 M-890.31,242.23 Q-882.83,253.07 -879.03,262.71 -870.15,285.23 -862.23,308.63 -856.95,324.11 -851.71,339.67" test="JurorsBack"/>
    </g>
    <g id="Tween-1">
      <g id="JurorsFront">
        <path fill="#000" stroke="none" d="M-627.474,275.215 Q-634.203,275.896 -640.851,277.979 -642.453,278.459 -644.095,278.82 L-644.455,279.42 -644.215,280.101 -639.329,278.78 -644.215,280.101 Q-650.703,282.624 -656.43,286.669 -662.958,291.355 -667.564,297.924 -671.689,303.771 -674.213,310.579 -676.616,317.188 -677.336,324.196 -678.097,331.365 -677.056,338.374 -675.935,345.823 -672.651,352.632 -669.527,359.2 -664.2,364.246 -658.833,369.333 -652.185,372.817 -647.815,375.139 -643.094,376.301 -640.206,377.041 -637.206,377.343 -630.358,378.344 -623.509,376.902 -622.94,376.781 -622.388,376.622 -615.818,375.113 -609.772,372.016 -603.324,368.612 -598.077,363.646 -592.791,358.559 -589.026,352.031 -585.422,345.903 -583.7,338.975 -581.977,332.126 -582.458,325.117 -582.979,317.788 -585.141,310.86 -587.264,304.051 -591.109,298.164 -594.954,292.236 -600.12,287.15 -605.607,281.823 -612.495,278.659 -619.544,275.415 -627.474,275.215 M-651.184,317.668 L-656.631,317.027 -651.184,317.668 M-631.319,311.781 L-625.872,312.422 -631.319,311.781 M-631.639,361.122 Q-628.836,361.122 -626.873,359.721 -624.911,358.319 -624.911,356.316 -624.911,358.319 -626.873,359.721 -628.836,361.122 -631.639,361.122 M-850.513,260.917 L-851.113,262.84 Q-889.041,260.757 -904.059,295.16 -912.55,314.664 -907.824,335.33 -901.536,362.885 -873.942,372.817 -869.337,374.409 -864.21,375.621 -861.884,376.159 -859.484,376.622 -858.476,376.808 -856.961,376.862 -855.468,376.854 -853.556,376.622 -852.224,376.465 -850.953,376.261 -819.931,371.234 -809.862,337.573 -799.369,302.489 -825.281,276.377 -836.015,265.643 -850.513,260.917 M-843.424,306.254 L-839.579,309.178 -843.424,306.254 M-875.143,309.178 L-871.299,312.101 -875.143,309.178 M-875.223,350.509 Q-874.543,350.349 -873.862,350.229 -874.543,350.349 -875.223,350.509 -880.51,351.991 -883.153,347.345 -880.51,351.991 -875.223,350.509 M-1026.372,356.917 Q-1021.166,337.453 -1029.656,319.31 -1036.385,304.932 -1046.998,293.158 -1057.611,281.423 -1073.191,279.701 -1094.097,279.941 -1073.311,280.021 -1092.655,282.544 -1108.395,293.959 -1125.336,306.214 -1129.381,326.599 -1133.386,346.825 -1125.135,365.528 -1117.446,383.07 -1101.586,393.883 -1094.468,398.687 -1086.327,399.931 -1083.463,400.371 -1080.48,400.371 -1078.088,400.691 -1075.794,400.772 -1058.94,401.351 -1045.917,389.278 -1031.459,375.941 -1026.372,356.917 M-1081.761,327 Q-1079.879,328.121 -1079.879,329.723 -1079.879,328.121 -1081.761,327 -1083.644,325.878 -1086.287,325.878 -1083.644,325.878 -1081.761,327 M-1059.534,327.841 Q-1057.451,329.162 -1057.451,331.005 -1057.451,329.162 -1059.534,327.841 -1061.576,326.519 -1064.5,326.519 -1061.576,326.519 -1059.534,327.841 M-1108.074,361.763 L-1088.85,368.171 -1108.074,361.763 M-131.455,271.811 L-132.056,269.888 Q-134.058,270.609 -135.981,271.45 -153.402,278.339 -165.177,292.837 -177.552,308.056 -176.711,327.721 -175.91,346.945 -165.898,363.445 -160.691,372.056 -144.511,380.026 -136.192,384.102 -129.452,385.833 -123.167,387.459 -118.238,387.075 -115.556,386.859 -112.271,385.553 -103.966,382.243 -91.805,371.976 -84.877,366.129 -79.75,360.402 -74.544,354.594 -73.623,351.59 -69.978,339.936 -70.299,327.681 -70.859,308.056 -82.073,292.196 -87.16,285.067 -94.809,280.502 -111.67,270.409 -131.455,271.811 M-148.076,319.711 L-152.041,322.634 -148.076,319.711 M-111.39,310.739 L-115.395,313.663 -111.39,310.739 M-115.956,364.687 Q-117.077,364.487 -118.198,364.326 -117.077,364.487 -115.956,364.687 -104.421,366.289 -98.334,356.316 -104.421,366.289 -115.956,364.687 M-351.53,276.176 Q-360.221,273.413 -369.112,275.816 -377.682,278.019 -385.092,282.865 -392.381,287.591 -398.669,293.798 -405.077,300.206 -409.162,308.377 -413.287,316.747 -414.288,325.918 -415.289,335.05 -413.207,343.941 -411.124,353.032 -406.558,361.042 -401.993,369.012 -395.465,375.46 -388.696,382.109 -380.246,386.354 -375.583,388.753 -370.634,390.039 -366.789,391.052 -362.784,391.4 -360.289,391.304 -357.818,391 -351.024,390.24 -344.441,388.036 -335.43,385.032 -327.86,379.185 -320.331,373.298 -315.685,364.767 -311.4,356.877 -309.277,348.226 -307.154,339.576 -307.915,330.644 -308.716,321.273 -312.881,312.702 -316.846,304.492 -322.814,297.643 -328.621,290.995 -335.269,285.148 -342.398,278.98 -351.53,276.176 M-343.76,314.985 Q-341.677,316.306 -341.677,318.149 -341.677,316.306 -343.76,314.985 -345.803,313.663 -348.726,313.663 -345.803,313.663 -343.76,314.985 M-374.959,312.502 Q-373.077,313.623 -373.077,315.225 -373.077,313.623 -374.959,312.502 -376.841,311.38 -379.485,311.38 -376.841,311.38 -374.959,312.502 M-381.527,368.812 Q-381.647,368.932 -381.647,369.172 -381.647,368.932 -381.527,368.812 -378.083,365.608 -374,368.812 -378.083,365.608 -381.527,368.812 M69.876,289.553 Q62.507,295.761 58.262,304.291 54.297,312.221 52.775,320.832 51.213,329.563 52.495,338.294 53.856,347.666 58.542,355.716 63.188,363.686 70.517,369.172 78.127,374.779 87.178,377.062 88.841,377.467 90.502,377.703 96.381,378.659 102.277,377.823 103.984,377.602 105.681,377.222 114.772,375.26 122.662,370.614 130.792,365.968 136.52,358.719 142.287,351.43 144.97,342.539 147.573,334.049 146.893,325.077 146.212,316.347 143.008,308.296 139.523,299.686 133.716,292.437 128.069,285.428 120.179,281.022 112.41,276.697 103.438,276.777 94.107,276.857 85.015,278.78 L84.655,279.42 84.935,280.141 89.781,278.78 84.935,280.141 Q76.805,283.746 69.876,289.553 M97.791,311.781 L103.238,312.422 97.791,311.781 M77.926,317.668 L72.48,317.027 77.926,317.668 M97.471,361.122 Q100.274,361.122 102.237,359.721 104.199,358.319 104.199,356.316 104.199,358.319 102.237,359.721 100.274,361.122 97.471,361.122Z" test="JurorsFront" vector-effect="non-scaling-stroke" stroke-width="1"/>
        <path id="Layer4_0_1_STROKES" stroke="#FFF" stroke-width="1.602" stroke-linejoin="round" stroke-linecap="round" fill="none" d="M84.935,280.141 Q76.805,283.746 69.876,289.553 62.507,295.761 58.262,304.291 54.297,312.221 52.775,320.832 51.213,329.563 52.495,338.294 53.856,347.666 58.542,355.716 63.188,363.686 70.517,369.172 78.127,374.779 87.178,377.062 88.841,377.467 90.502,377.723 96.381,378.659 102.297,377.843 103.984,377.602 105.681,377.222 114.772,375.26 122.662,370.614 130.792,365.968 136.52,358.719 142.287,351.43 144.97,342.539 147.573,334.049 146.893,325.077 146.212,316.347 143.008,308.296 139.523,299.686 133.716,292.437 128.069,285.428 120.179,281.022 112.41,276.697 103.438,276.777 94.107,276.857 85.015,278.78 L84.655,279.42 M89.781,278.78 L84.935,280.141 M97.791,311.781 L103.238,312.422 M77.926,317.668 L72.48,317.027 M-362.784,391.4 Q-360.289,391.304 -357.818,391.02 -351.024,390.24 -344.441,388.036 -335.43,385.032 -327.86,379.185 -320.331,373.298 -315.685,364.767 -311.4,356.877 -309.277,348.226 -307.154,339.576 -307.915,330.644 -308.716,321.273 -312.881,312.702 -316.846,304.492 -322.814,297.643 -328.621,290.995 -335.269,285.148 -342.398,278.98 -351.53,276.176 -360.221,273.413 -369.112,275.816 -377.682,278.019 -385.092,282.865 -392.381,287.591 -398.669,293.798 -405.077,300.206 -409.162,308.377 -413.287,316.747 -414.288,325.918 -415.289,335.05 -413.207,343.941 -411.124,353.032 -406.558,361.042 -401.993,369.012 -395.465,375.46 -388.696,382.109 -380.246,386.354 -375.583,388.753 -370.614,390.059 -366.789,391.052 -362.784,391.4Z M-348.726,313.663 Q-345.803,313.663 -343.74,314.985 -341.677,316.306 -341.677,318.149 M-379.485,311.38 Q-376.841,311.38 -374.959,312.502 -373.077,313.623 -373.077,315.225 M-131.455,271.811 Q-111.67,270.409 -94.809,280.502 -87.16,285.067 -82.073,292.196 -70.859,308.056 -70.299,327.681 -69.978,339.936 -73.623,351.59 -74.544,354.594 -79.75,360.402 -84.877,366.129 -91.805,371.976 -103.966,382.243 -112.271,385.553 -115.556,386.859 -118.238,387.075 -123.167,387.459 -129.432,385.853 -136.192,384.102 -144.511,380.026 -160.691,372.056 -165.898,363.445 -175.91,346.945 -176.711,327.721 -177.552,308.056 -165.177,292.837 -153.402,278.339 -135.981,271.45 -134.058,270.609 -132.056,269.909 M-148.076,319.711 L-152.041,322.634 M-111.39,310.739 L-115.395,313.663 M-98.334,356.316 Q-104.421,366.289 -115.956,364.687 -117.077,364.487 -118.198,364.326 M-72.101,493.247 Q-75.225,466.935 -84.837,443.465 -94.248,420.356 -104.621,397.768 -106.663,393.363 -109.147,389.678 M-131.215,389.678 Q-134.085,396.441 -135.58,404.176 -137.462,413.948 -139.865,423.44 -145.512,445.668 -149.918,468.376 -152.321,480.912 -154.684,493.247 M-412.566,481.913 Q-410.603,475.665 -408.08,469.618 -398.949,448.031 -389.657,426.364 -382.834,410.41 -374.258,396.006 -373.842,395.303 -373.417,394.604 M-355.415,394.604 Q-350.895,401.552 -347.124,409.182 -337.953,427.886 -329.502,446.789 -321.973,463.65 -317.127,481.913 M-374,368.812 Q-378.083,365.608 -381.527,368.812 -381.647,368.932 -381.647,369.172 M97.471,361.122 Q100.274,361.122 102.237,359.721 104.199,358.319 104.199,356.316 M50.252,510.108 Q54.738,482.995 62.307,457.002 65.591,445.708 68.715,434.294 75.604,409.142 85.776,386.794 87.135,383.838 88.62,381.067 M104.319,381.067 Q113.185,395.68 119.458,413.187 128.389,438.058 136.319,463.851 141.606,480.992 146.812,498.214 M-1086.287,325.878 Q-1083.644,325.878 -1081.761,327 -1079.879,328.121 -1079.879,329.723 M-1064.5,326.519 Q-1061.576,326.519 -1059.514,327.841 -1057.451,329.162 -1057.451,331.005 M-1073.311,280.021 Q-1092.655,282.544 -1108.395,293.959 -1125.336,306.214 -1129.381,326.599 -1133.386,346.825 -1125.135,365.528 -1117.446,383.07 -1101.586,393.883 -1094.468,398.687 -1086.327,399.931 -1083.463,400.371 -1080.48,400.371 -1078.088,400.691 -1075.774,400.772 -1058.94,401.351 -1045.917,389.278 -1031.459,375.941 -1026.372,356.917 -1021.166,337.453 -1029.656,319.31 -1036.385,304.932 -1046.998,293.158 -1057.611,281.423 -1073.171,279.701 M-850.513,260.937 L-859.123,259.476 M-851.113,262.84 Q-889.041,260.757 -904.059,295.16 -912.55,314.664 -907.824,335.33 -901.536,362.885 -873.942,372.817 -869.337,374.409 -864.21,375.621 -861.884,376.159 -859.464,376.622 -858.476,376.808 -856.961,376.862 -855.468,376.854 -853.536,376.622 -852.224,376.465 -850.953,376.261 -819.931,371.234 -809.862,337.573 -799.369,302.489 -825.281,276.377 -836.015,265.643 -850.513,260.937 M-843.424,306.254 L-839.579,309.178 M-875.143,309.178 L-871.299,312.101 M-883.153,347.345 Q-880.51,351.991 -875.223,350.509 -874.543,350.349 -873.862,350.229 M-644.195,280.121 Q-650.703,282.624 -656.43,286.669 -662.958,291.355 -667.564,297.924 -671.689,303.771 -674.213,310.579 -676.616,317.188 -677.336,324.196 -678.097,331.365 -677.056,338.374 -675.935,345.823 -672.651,352.632 -669.527,359.2 -664.2,364.246 -658.833,369.333 -652.185,372.817 -647.815,375.139 -643.074,376.321 -640.206,377.041 -637.206,377.343 -630.358,378.344 -623.509,376.902 -622.94,376.781 -622.368,376.642 -615.818,375.113 -609.772,372.016 -603.324,368.612 -598.077,363.646 -592.791,358.559 -589.026,352.031 -585.422,345.903 -583.7,338.975 -581.977,332.126 -582.458,325.117 -582.979,317.788 -585.141,310.86 -587.264,304.051 -591.109,298.164 -594.954,292.236 -600.12,287.15 -605.607,281.823 -612.495,278.659 -619.544,275.415 -627.474,275.215 -634.203,275.896 -640.851,277.979 -642.453,278.459 -644.095,278.82 L-644.455,279.42 M-639.329,278.78 L-644.195,280.121 M-651.184,317.668 L-656.631,317.027 M-631.319,311.781 L-625.872,312.422 M-1129.821,490.924 Q-1121.851,471.741 -1113,452.997 -1104.79,435.615 -1096.259,418.674 -1093.415,413.007 -1089.171,405.137 M-631.639,361.122 Q-628.836,361.122 -626.873,359.721 -624.911,358.319 -624.911,356.316 M-620.946,380.066 Q-613.47,390.937 -609.652,400.572 -600.761,423.12 -592.831,446.549 -587.544,462.048 -582.298,477.628 M-678.137,484.837 Q-677.176,479.03 -675.574,473.302 -669.567,451.635 -663.519,429.888 -656.991,406.539 -647.419,385.152 -646.765,383.695 -644.736,379.666 M-848.33,380.226 Q-826.968,412.903 -817.311,446.589 -811.224,467.936 -804.776,488.962 M-913.271,488.962 Q-905.782,444.987 -883.914,407.54 -876.452,394.713 -867.173,380.226 M-1073.591,405.137 Q-1068.747,414.792 -1064.82,422.319 -1055.609,439.901 -1047.318,457.923 -1039.909,473.983 -1034.783,490.924 M-1108.074,361.763 L-1088.85,368.171" test="JurorsFront"/>
      </g>
    </g>
    <g id="Parrot">
      <path id="Layer2_0_1_STROKES" stroke="#FFF" stroke-width="2" stroke-linejoin="round" stroke-linecap="round" fill="none" d="M534.85,249.5 Q538.55,249.95 541.85,252.9 545.85,256.45 544.35,262.1 542.85,267.75 540.05,270.6 537.25,273.4 533.65,273.3 530,273.2 527.4,271.1 524.75,269 524.1,265.45 523.5,262.05 524.35,258.9 525.15,256.05 526.2,254.35 527.2,252.6 529.3,251.5 531.35,250.35 534.85,249.5Z M535.25,261.25 Q534.75,260.6 534,260.5 533.2,260.4 533.15,260.4 532.85,260.4 532.5,260.7 531.65,261.45 532.35,262.95 532.95,264.2 534.3,263.7 535.25,263.35 535.4,262.65 535.55,262.15 535.55,261.95 535.6,261.55 535.25,261.25Z M490.5,252 Q492.7,251.8 495.65,255.2 498.55,258.5 498.35,263.15 498.15,267.7 496.05,270.5 494,273.25 490.45,273.15 486.85,273 484.05,270.75 480.9,268.35 481.05,264.55 481.3,259.35 483.05,256.25 485.45,251.95 490.5,252Z M493.15,262.8 Q492.8,262.2 492.15,262.15 491.4,262.05 491.35,262.05 491.15,262.05 490.8,262.3 490.05,263 490.7,264.35 491.25,265.5 492.35,265 493.15,264.7 493.3,264.05 493.4,263.65 493.4,263.45 493.5,263.1 493.15,262.8Z" test="Parrot"/>
      <path id="Layer2_0_2_STROKES" stroke="#F00" stroke-width="2" stroke-linejoin="round" stroke-linecap="round" fill="none" d="M556.4,279.9 Q559.4,280.5 560.15,280.6 560.9,280.7 562.4,280.7 564.55,280.7 568.4,278.3 M550,305.5 L551.45,305.9 Q553.15,306.3 554.4,306.3 555.15,306.3 557.25,304.9 559.2,303.6 559.6,303.1 M592.4,328.8 Q583.55,319.2 580.65,306.55 578.2,295.75 579.7,280.1 581.05,266.3 574,253.4 566.2,239.15 553.45,233.65 540.7,228.1 530.85,227.15 521,226.15 511.6,229.6 502.15,233.05 495.25,240 488.4,246.85 488.15,248.4 M486.3,317.9 Q485.85,330.95 479.35,341.55 M518.8,306.3 Q521.05,308.8 522.5,311.55 522.7,311.9 525.2,311.9 526.5,311.9 528.25,311.4 528.6,311.3 531.6,310.3" test="Parrot"/>
      <path id="Layer2_0_3_STROKES" stroke="#0FF" stroke-width="2" stroke-linejoin="round" stroke-linecap="round" fill="none" d="M483.95,334.95 L483.3,338.85 Q484.2,339.3 485.3,339.4 486,339.5 487.5,339.5 491.65,339.5 494.75,335.95 497.9,332.35 500.2,332.35 501,332.35 505.4,333 509.75,333.65 510.6,333.65 515.55,333.65 516.55,331.4 517.5,329.1 521.3,329.1 522.15,329.1 525.25,329.75 528.4,330.4 529.2,330.4 529.75,330.4 531.7,328.45 533.6,326.5 536,326.5 536.85,326.5 540.1,327.15 543.35,327.8 544.15,327.8 545.05,327.8 547.55,326.5 548.8,325.85 550,325.2 550.15,325.2 553.15,326.5 556.5,327.8 558.1,327.8 560.15,327.8 562.8,326.85 564.1,326.35 565.25,325.85 567.25,325.85 577.3,328.15 585.65,330.05 589.4,330.35 590.15,330.4 590.7,330.4 M519.75,353.25 Q519.2,355.1 517.4,371.9 515.65,388.15 514.55,391 513,395.2 512.45,405.9 511.85,417.25 513.25,424.2 514.8,431.9 522.05,452.95 529.5,474.55 532.8,480.2 534.35,482.9 539.05,490.2 542.85,496.1 545.8,501.7 549.7,509.1 552.8,512.05 555.95,515.1 560.8,516.05 564.05,516.7 569.1,517.9 572.5,518.3 572.5,515.4 572.5,507.3 580.95,511.5 586.9,514.45 588.95,514.85 592.25,515.5 594,512.8 595.3,510.85 597.05,507.5 598.95,504.9 603.1,503.65 605.8,502.85 608.2,504.65 608.85,505.15 610.3,499.75 611.95,493.65 614.55,486.95 L616.8,481.5 Q617.45,477.6 619.4,468.5 621.1,460.5 620.3,450.4 619.3,438.2 614.85,428.8 614.6,428.3 603.45,406.25 596.35,392.15 594,385.15 592.25,379.9 588.9,372.55 586.55,367.45 586.2,364.3 M621.85,384.8 Q621.25,384.45 620.35,384.45 620.2,384.45 612.55,387.05 610.9,386.15 608.9,385.1 608.55,387 607.2,388.45 606.05,389.65 605.3,389.65 603.65,389.65 602.3,388.45 601.2,387.5 601.1,387.7 600.25,388.6 599,389.2 597.55,389.85 596.55,389.65 M593.95,333.65 Q621,359.5 621.3,384.45 L621.95,384.45 M479.35,341.55 Q474.9,353.45 471.25,365.75 467.6,378 464.55,390.45 462.6,398.35 460.2,406.15 456.35,418.6 455.4,431.55 455.2,434.6 455.4,437.55 456.15,450.4 454.1,463.3 453.45,467.6 451.55,471.5 450.15,474.35 448.8,477.15 447.05,474.8 446.55,471.7 442.6,447.3 444.45,422.85 444.75,418.95 445.45,415.05 446.65,408.6 447.7,402.15 448.7,396.2 450.9,390.55 455.45,378.8 460.3,367.25 466.7,352.2 479.35,341.55Z M466.3,402.05 Q468.9,404.5 471.95,405.1 472.85,405.3 476.15,405.3 478,405.3 478.85,403.7 479.7,402.05 482.65,402.05 484.6,402.05 488.9,402.45 492.75,402.7 495,402.05 500.55,400.5 505.6,400.15 506.95,400.05 511.25,400.05" test="Parrot"/>
      <path id="Layer2_0_4_STROKES" stroke="#0F0" stroke-width="2" stroke-linejoin="round" stroke-linecap="round" fill="none" d="M625.7,411.05 Q626.5,409.8 626.5,407.6 626.5,406.05 624.35,396.45 622.1,386.7 621.3,385.1" test="Parrot"/>
      <path id="Layer2_0_5_STROKES" stroke="#FF0" stroke-width="2" stroke-linejoin="round" stroke-linecap="round" fill="none" d="M622.6,444.3 L628.45,444.3 Q628.15,442.9 629.2,439.1 630.4,434.95 630.4,433.9 630.4,427.6 628.5,419.55 626.9,412.75 625.7,411.05 M486.6,278.95 Q476.1,284.3 475,294 474.5,298.45 474.2,303 489.75,305.65 495.85,301.3 497.9,294.4 494.8,289.15 491.65,283.85 490.15,282.4 488.65,280.9 486.6,278.95Z M480.05,304.3 Q478,314.7 488.9,315.4 490.9,315.25 492.55,314.45 496.55,311.55 495,302.9 M459.15,458.7 Q461.9,461.05 463.05,462.4 463.35,462.6 466.6,462.6 469.2,462.6 477.8,459.35 484.75,456.75 486.8,456.25 487.05,456.15 487.2,456.15 487.25,457.1 491.8,457.35 492.75,457.4 497.6,457.4 499.5,457.4 503.45,456.45 507.4,455.45 508.95,455.45 511.35,455.45 511.55,455.4 512.8,455 513.2,452.75 521,454.55 519.05,454.05 M486.8,456.25 Q486.55,456.35 486.75,456.7 487.2,457.4 487.2,456.15 M472.8,503 Q468.85,506.05 467.95,508.55 467.6,509.6 467.6,513.7 467.6,519.1 470.75,520.85 473.15,522.15 482.65,523.15 482.65,521.55 482.35,520.2 484.35,520.95 487.2,521.85 L490.45,521.85 Q489.15,520.15 488.1,518.75 490.35,519.55 492.4,520.55 L496.95,520.55 496.95,517.3 Q493.35,514.1 492.2,508.4 491.6,502.85 491.1,501.7 490.45,501.7 489.15,501.05 M504.75,503.65 Q503.9,513.85 505.65,516.85 507.15,519.45 513.2,519.9 L513.2,516 Q512.65,514.9 512.1,512 512.25,512.2 512.35,512.45 515.2,518.2 520.35,519.25 L520.35,514.1 Q521,515.15 521.8,516.15 524.4,519.25 527.5,519.9 L528.2,519.9 Q528.55,517.8 527.45,514.05 526.2,509.9 526.2,508.2 526.2,504.75 528.85,503 M541.2,508.85 Q540.4,521.65 549.65,545.25 553.6,555.35 557.5,561.8 561.7,568.7 564.3,568.7 568,568.7 568.9,568.3 571.95,566.95 572.4,561.55 574.75,562.7 580.85,563.5 586.2,563.5 587.95,558 589.05,554.6 589.25,554.2 590.2,552.45 592,552.45 592.7,552.45 599.8,555.05 600.9,555.05 602.75,551.8 604.75,548.3 606.3,547.9 610,546.85 615.2,546.1 618.9,545.15 620.65,541.4 621.7,541.4 623.5,541.75 625.3,542.05 625.85,542.05 L625.85,520.55 Q623.25,511.65 620.5,499.5 618.4,490.3 616.75,486.1" test="Parrot"/>
      <path id="Layer2_0_6_STROKES" stroke="#F0F" stroke-width="2" stroke-linejoin="round" stroke-linecap="round" fill="none" d="M448.8,477.15 L449.8,486.25 Q451.4,496.1 454.65,499.75 456.3,501.6 457.25,503.9 457.8,505.15 458.4,507.05 458.9,508.4 459.75,508.55 460.8,508.7 463.1,507.55 466.15,506.05 468.7,503.1 470.45,501.05 472.85,501.05 475.15,501.05 480.95,501.95 486.1,502.4 488.5,500.4 490.85,498.45 495.6,499.6 498.3,500.25 504.15,501.7 507.1,502.05 511.45,502.9 514.95,503.3 517.8,501.7 520.75,500.05 523.75,500.15 525.65,500.25 530.2,501.05 532.8,501.4 535.65,502.45 537.45,502.8 538.65,500.4 M621.95,486.1 Q624.3,474.1 625.65,465.8 626.75,459.3 628.45,446.9 M583.55,631.25 Q586.35,639.35 587.1,640.55 588.2,642.3 591,642.3 592.05,642.3 592.35,642.2 593.75,641.55 595.25,639.05 613.95,657.9 615.15,657.9 622.65,657.9 625.85,644.95 627.8,637.15 627.8,627.7 627.8,621.75 626.5,616.1 625.65,612.4 623.9,607.8" test="Parrot"/>
      <path id="Layer2_0_7_STROKES" stroke="#F60" stroke-width="2" stroke-linejoin="round" stroke-linecap="round" fill="none" d="M565.9,573.25 Q565.4,572.45 564.85,571.65 563.7,570 563.3,570 L563.3,573.25 Q564.55,580.85 572.9,603.3 582.75,629.95 587.75,629.95 589.9,629.95 594.8,625.75 599.35,621.5 599.45,621.5 600.3,621.5 602.7,622.15 605.15,622.8 605.95,622.8 608.4,622.8 610.8,617.9 612.45,614.5 612.85,612.35 618.5,612.35 621.35,609.45 624.2,606.5 627.15,606.5 627.15,604.25 627.5,599.25 627.8,594.25 627.8,593.75 627.8,589.2 624.9,579.1 621.6,567.7 621.3,565.45 620.8,561.95 621,555.9 621.3,549.55 621.3,547.25 L620.65,547.25" test="Parrot"/>
    </g>
    <g id="JuryBoxFront">
      <path fill="#000" stroke="none" d="M-1911.75,514.35 L-1934.05,488.3 -1935.9,617.25 Q-1927.722,617.251 -1916.25,617.25 L-1911.75,514.35 M1030.3,500.95 L1028.95,500.95 1011.1,518.5 1011.1,613 Q1021.584,613.017 1030.3,613 L1030.3,500.95 M858.85,512.95 Q784.35,514.65 710,518.9 634.55,522.55 559.05,523 481.65,523.45 404.25,523.35 328.75,523.25 253.25,523 173.45,522.75 93.65,521.8 14.95,520.9 -63.7,519.6 -141.8,518.35 -219.9,520.35 -297.2,522.3 -374.55,526.5 -449.8,529.75 -525.2,528.6 -604.6,527.35 -683.95,522.45 -757.9,517.5 -832.15,516.45 -906.05,515.45 -980,516.1 -1059.35,516.8 -1138.7,518 -1218.35,519.25 -1297.95,520.45 -1377,521.65 -1456.15,522.95 -1533.15,524.25 -1610.2,524.85 -1686.95,525.45 -1763.9,523.95 -1838.05,522.5 -1911.75,514.35 L-1916.25,617.25 Q-1710.292,617.16 -441.45,615.15 766.423,613.195 1011.1,613 L1011.1,518.5 Q935.15,511.25 858.85,512.95 M691.15,502.85 Q685.944,503.094 680.75,503.3 604.8,505.8 528.85,505.8 505.836,505.8 482.8,505.8 427.271,505.815 371.7,505.85 363.462,505.856 355.2,505.85 283.907,505.781 212.55,504.75 189.675,504.422 166.8,503.75 143.918,503.598 121,503.4 103.852,503.302 86.65,503.15 69.486,502.697 52.3,502.45 -27.4,501.35 -107.15,500.55 -169.187,499.94 -231.2,502.65 -240.294,503.077 -249.4,503.55 -324.45,507 -399.35,510.95 L-559.4,511.75 Q-639.7,507.9 -719.9,502.95 -792.55,497.9 -865.65,497.2 -944.7,496.4 -1023.65,497.5 -1100.75,498.6 -1177.95,500.15 -1250.6,501.65 -1323.3,503.2 -1397.2,504.75 -1471.2,505.95 -1549.15,507.2 -1627.3,506.2 -1703,505.25 -1778.6,500.25 -1856.4,495.6 -1934.05,488.3 L-1911.75,514.35 Q-1838.05,522.5 -1763.9,523.95 -1686.95,525.45 -1610.2,524.85 -1533.15,524.25 -1456.15,522.95 -1377,521.65 -1297.95,520.45 -1218.35,519.25 -1138.7,518 -1059.35,516.8 -980,516.1 -906.05,515.45 -832.15,516.45 -757.9,517.5 -683.95,522.45 -604.6,527.35 -525.2,528.6 -449.8,529.75 -374.55,526.5 -297.2,522.3 -219.9,520.35 -141.8,518.35 -63.7,519.6 14.95,520.9 93.65,521.8 173.45,522.75 253.25,523 328.75,523.25 404.25,523.35 481.65,523.45 559.05,523 634.55,522.55 710,518.9 784.35,514.65 858.85,512.95 935.15,511.25 1011.1,518.5 L1028.95,500.95 1029,500.15 Q1010.612,498.494 992.2,496.85 978.102,495.536 964,494.6 904.035,490.798 843.85,494.4 767.581,499.691 691.15,502.85Z" test="JuryBoxFront"/>
      <path id="Layer1_0_1_STROKES" stroke="#F60" stroke-width="2" stroke-linejoin="round" stroke-linecap="round" fill="none" d="M1029.025,500.175 Q1010.612,498.494 992.2,496.85 978.102,495.536 964,494.625 904.035,490.798 843.85,494.4 767.581,499.691 691.15,502.875 685.944,503.094 680.75,503.3 604.8,505.8 528.85,505.8 505.836,505.8 482.825,505.8 427.271,505.815 371.7,505.85 363.462,505.856 355.225,505.85 283.907,505.781 212.55,504.75 189.675,504.422 166.8,503.775 143.918,503.598 121.025,503.425 103.852,503.302 86.675,503.175 69.486,502.697 52.3,502.45 -27.4,501.35 -107.15,500.55 -169.187,499.94 -231.175,502.675 -240.294,503.077 -249.4,503.55 -324.45,507 -399.35,510.95 L-559.4,511.75 Q-639.7,507.9 -719.9,502.95 -792.55,497.9 -865.65,497.2 -944.7,496.4 -1023.65,497.5 -1100.75,498.6 -1177.95,500.15 -1250.6,501.65 -1323.3,503.2 -1397.2,504.75 -1471.2,505.95 -1549.15,507.2 -1627.3,506.2 -1703,505.25 -1778.6,500.25 -1856.4,495.6 -1934.05,488.3 L-1911.75,514.35 Q-1838.05,522.5 -1763.9,523.95 -1686.95,525.45 -1610.2,524.85 -1533.15,524.25 -1456.15,522.95 -1377,521.65 -1297.95,520.45 -1218.35,519.25 -1138.7,518 -1059.35,516.8 -980,516.1 -906.05,515.45 -832.15,516.45 -757.9,517.5 -683.95,522.45 -604.6,527.35 -525.2,528.6 -449.8,529.75 -374.55,526.5 -297.2,522.3 -219.9,520.35 -141.8,518.35 -63.7,519.6 14.95,520.9 93.65,521.8 173.45,522.75 253.25,523 328.75,523.25 404.25,523.35 481.65,523.45 559.05,523 634.55,522.55 710,518.9 784.35,514.65 858.85,512.95 935.15,511.25 1011.1,518.5 L1028.95,500.95 M1029.025,500.175 Q1029.662,500.242 1030.3,500.3 L1030.3,500.95 1030.3,613 1030.3,624.2 M1011.1,624.2 L1011.1,613.025 M-1916.25,617.25 L-1916.55,624.2 M1011.1,613.025 L1011.1,518.5 M-1936,624.2 L-1935.9,617.25 -1934.05,488.3 M-1911.75,514.35 L-1916.25,617.25" test="JuryBoxFront"/>
    </g>
  </g>
</svg>