<?xml version="1.0" encoding="utf-8"?>
<svg id="EdithAnim12" image-rendering="inherit" baseProfile="basic" version="1.1" x="0px" y="0px" width="800" height="600" xmlns="http://www.w3.org/2000/svg" xmlns:xlink="http://www.w3.org/1999/xlink">
  <g id="14_JurorParrotf79r1" overflow="visible">
    <g id="JurorsBack">
      <path fill="#000" stroke="none" d="M-483.33,132.23 Q-485.33,132.91 -487.25,133.75 -504.65,140.63 -516.41,155.11 -528.77,170.31 -527.93,189.95 -527.13,209.15 -517.13,225.63 -511.93,234.23 -495.77,242.19 -487.45,246.27 -480.69,248.03 -474.45,249.63 -469.53,249.23 -466.85,249.03 -463.57,247.71 -455.29,244.39 -443.13,234.15 -436.21,228.31 -431.09,222.59 -425.89,216.79 -424.97,213.79 -421.33,202.15 -421.65,189.91 -422.21,170.31 -433.41,154.47 -438.49,147.35 -446.13,142.79 -462.97,132.71 -482.73,134.11 L-483.33,132.23 M-499.33,181.95 L-503.29,184.87 -499.33,181.95 M-462.69,172.99 L-466.69,175.91 -462.69,172.99 M-467.25,226.87 Q-468.37,226.67 -469.49,226.51 -468.37,226.67 -467.25,226.87 -455.73,228.47 -449.65,218.51 -455.73,228.47 -467.25,226.87 M-703.09,138.11 Q-711.65,140.31 -719.05,145.15 -726.33,149.87 -732.61,156.07 -739.01,162.47 -743.09,170.63 -747.21,178.99 -748.21,188.15 -749.21,197.27 -747.13,206.15 -745.05,215.23 -740.49,223.23 -735.93,231.19 -729.41,237.63 -722.65,244.27 -714.21,248.51 -709.57,250.91 -704.57,252.23 -700.77,253.19 -696.77,253.55 -694.29,253.47 -691.81,253.19 -685.01,252.39 -678.45,250.19 -669.45,247.19 -661.89,241.35 -654.37,235.47 -649.73,226.95 -645.45,219.07 -643.33,210.43 -641.21,201.79 -641.97,192.87 -642.77,183.51 -646.93,174.95 -650.89,166.75 -656.85,159.91 -662.65,153.27 -669.29,147.43 -676.41,141.27 -685.53,138.47 -694.21,135.71 -703.09,138.11 M-677.73,177.23 Q-675.69,178.55 -675.69,180.39 -675.69,178.55 -677.73,177.23 -679.81,175.91 -682.73,175.91 -679.81,175.91 -677.73,177.23 M-708.93,174.75 Q-707.05,175.87 -707.05,177.47 -707.05,175.87 -708.93,174.75 -710.81,173.63 -713.45,173.63 -710.81,173.63 -708.93,174.75 M-715.49,230.99 Q-715.61,231.11 -715.61,231.35 -715.61,231.11 -715.49,230.99 -712.05,227.79 -708.97,230.99 -712.05,227.79 -715.49,230.99 M-927.09,141.71 L-926.81,142.43 -921.97,141.07 -926.81,142.43 Q-933.33,144.91 -939.05,148.95 -945.57,153.63 -950.17,160.19 -954.29,166.03 -956.81,172.83 -959.21,179.43 -959.93,186.43 -960.69,193.59 -959.65,200.59 -958.53,208.03 -955.25,214.83 -952.13,221.39 -946.81,226.43 -941.45,231.51 -934.81,234.99 -930.45,237.31 -925.69,238.51 -922.85,239.19 -919.85,239.51 -913.01,240.51 -906.17,239.07 -905.61,238.95 -905.01,238.83 -898.49,237.27 -892.45,234.19 -886.01,230.79 -880.77,225.83 -875.49,220.75 -871.73,214.23 -868.13,208.11 -866.41,201.19 -864.69,194.35 -865.17,187.35 -865.69,180.03 -867.85,173.11 -869.97,166.31 -873.81,160.43 -877.65,154.51 -882.81,149.43 -888.29,144.11 -895.17,140.95 -902.21,137.71 -910.13,137.51 -916.85,138.19 -923.49,140.27 -925.09,140.75 -926.73,141.11 L-927.09,141.71 M-913.97,174.03 L-908.53,174.67 -913.97,174.03 M-909.53,221.91 Q-907.57,220.51 -907.57,218.51 -907.57,220.51 -909.53,221.91 -911.49,223.31 -914.29,223.31 -911.49,223.31 -909.53,221.91 M-933.81,179.91 L-939.25,179.27 -933.81,179.91 M-69.57,135.83 Q-77.97,137.71 -85.61,141.95 -93.89,146.59 -99.85,153.99 -105.45,160.95 -107.89,169.51 -110.45,178.31 -110.85,187.55 -111.25,196.55 -110.09,205.51 -108.97,214.39 -103.97,221.83 -98.81,229.51 -91.29,234.75 -84.01,239.87 -75.69,243.03 -66.85,246.31 -57.41,246.75 -48.41,247.51 -40.01,244.11 -31.21,240.63 -24.89,233.43 -18.53,226.23 -14.57,217.67 -10.61,209.07 -8.97,199.63 -7.41,190.63 -8.53,181.51 -9.69,171.99 -13.97,163.31 -18.21,154.83 -25.17,148.47 -31.09,143.03 -37.93,138.79 -44.45,134.71 -51.77,132.23 L-52.37,134.11 Q-61.09,134.07 -69.57,135.83 M-44.69,177.47 L-40.85,180.39 -44.69,177.47 M-76.37,180.39 L-72.53,183.31 -76.37,180.39 M-76.45,221.67 Q-75.77,221.51 -75.09,221.39 -75.77,221.51 -76.45,221.67 -81.69,223.15 -84.37,218.51 -81.69,223.15 -76.45,221.67 M-293.25,166.55 Q-297.21,174.47 -298.73,183.07 -300.29,191.79 -299.01,200.51 -297.65,209.87 -292.97,217.91 -288.33,225.87 -281.01,231.35 -273.41,236.95 -264.37,239.23 -262.69,239.63 -261.05,239.91 -255.17,240.83 -249.25,240.03 -247.57,239.75 -245.89,239.39 -236.81,237.43 -228.93,232.79 -220.81,228.15 -215.09,220.91 -209.33,213.63 -206.65,204.75 -204.05,196.27 -204.73,187.31 -205.41,178.59 -208.61,170.55 -212.09,161.95 -217.89,154.71 -223.53,147.71 -231.41,143.31 -239.17,138.99 -248.13,139.07 -257.45,139.15 -266.53,141.07 L-266.89,141.71 -266.61,142.43 -261.77,141.07 -266.61,142.43 Q-274.73,146.03 -281.65,151.83 -289.01,158.03 -293.25,166.55 M-273.61,179.91 L-279.05,179.27 -273.61,179.91 M-253.77,174.03 L-248.33,174.67 -253.77,174.03 M-254.09,223.31 Q-251.29,223.31 -249.33,221.91 -247.37,220.51 -247.37,218.51 -247.37,220.51 -249.33,221.91 -251.29,223.31 -254.09,223.31Z" test="JurorsBack" vector-effect="non-scaling-stroke" stroke-width="1"/>
      <path id="Layer3_0_1_STROKES" stroke="#FFF" stroke-width="1.6" stroke-linejoin="round" stroke-linecap="round" fill="none" d="M-266.61,142.43 Q-274.73,146.03 -281.65,151.83 -289.01,158.03 -293.25,166.55 -297.21,174.47 -298.73,183.07 -300.29,191.79 -299.01,200.51 -297.65,209.87 -292.97,217.91 -288.33,225.87 -281.01,231.35 -273.41,236.95 -264.37,239.23 -262.69,239.63 -261.05,239.91 -255.17,240.83 -249.25,240.03 -247.57,239.75 -245.89,239.39 -236.81,237.43 -228.93,232.79 -220.81,228.15 -215.09,220.91 -209.33,213.63 -206.65,204.75 -204.05,196.27 -204.73,187.31 -205.41,178.59 -208.61,170.55 -212.09,161.95 -217.89,154.71 -223.53,147.71 -231.41,143.31 -239.17,138.99 -248.13,139.07 -257.45,139.15 -266.53,141.07 L-266.89,141.71 M-261.77,141.07 L-266.61,142.43 M-273.61,179.91 L-279.05,179.27 M-253.77,174.03 L-248.33,174.67 M-254.09,223.31 Q-251.29,223.31 -249.33,221.91 -247.37,220.51 -247.37,218.51 M-52.37,134.11 Q-61.09,134.07 -69.57,135.83 -77.97,137.71 -85.61,141.95 -93.89,146.59 -99.85,153.99 -105.45,160.95 -107.89,169.51 -110.45,178.31 -110.85,187.55 -111.25,196.55 -110.09,205.51 -108.97,214.39 -103.97,221.83 -98.81,229.51 -91.29,234.75 -84.01,239.87 -75.69,243.03 -66.85,246.31 -57.41,246.75 -48.41,247.51 -40.01,244.11 -31.21,240.63 -24.89,233.43 -18.53,226.23 -14.57,217.67 -10.61,209.07 -8.97,199.63 -7.41,190.63 -8.53,181.51 -9.69,171.99 -13.97,163.31 -18.21,154.83 -25.17,148.47 -31.09,143.03 -37.93,138.79 -44.45,134.71 -51.77,132.23 L-60.37,130.75 M-44.69,177.47 L-40.85,180.39 M-76.37,180.39 L-72.53,183.31 M-84.37,218.51 Q-81.69,223.15 -76.45,221.67 -75.77,221.51 -75.09,221.39 M-54.73,251.67 Q-53.93,252.67 -53.09,253.71 -29.93,283.03 -18.41,319.99 -11.41,342.51 -4.37,364.91 M-114.77,366.63 Q-110.37,322.87 -88.41,285.87 -77.57,267.55 -62.93,253.71 -61.85,252.67 -60.77,251.67 M-301.25,372.11 Q-296.77,345.03 -289.21,319.07 -285.93,307.79 -282.81,296.39 -275.93,271.27 -265.77,248.95 -264.41,245.99 -262.93,243.23 M-247.25,243.23 Q-238.41,257.83 -232.13,275.31 -223.21,300.15 -215.29,325.91 -210.01,343.03 -204.81,360.23 M-921.97,141.07 L-926.81,142.43 Q-933.33,144.91 -939.05,148.95 -945.57,153.63 -950.17,160.19 -954.29,166.03 -956.81,172.83 -959.21,179.43 -959.93,186.43 -960.69,193.59 -959.65,200.59 -958.53,208.03 -955.25,214.83 -952.13,221.39 -946.81,226.43 -941.45,231.51 -934.81,234.99 -930.45,237.31 -925.69,238.51 -922.85,239.19 -919.85,239.51 -913.01,240.51 -906.17,239.07 -905.61,238.95 -905.01,238.83 -898.49,237.27 -892.45,234.19 -886.01,230.79 -880.77,225.83 -875.49,220.75 -871.73,214.23 -868.13,208.11 -866.41,201.19 -864.69,194.35 -865.17,187.35 -865.69,180.03 -867.85,173.11 -869.97,166.31 -873.81,160.43 -877.65,154.51 -882.81,149.43 -888.29,144.11 -895.17,140.95 -902.21,137.71 -910.13,137.51 -916.85,138.19 -923.49,140.27 -925.09,140.75 -926.73,141.11 L-927.09,141.71 M-913.97,174.03 L-908.53,174.67 M-914.29,223.31 Q-911.49,223.31 -909.53,221.91 -907.57,220.51 -907.57,218.51 M-696.77,253.55 Q-694.29,253.47 -691.81,253.19 -685.01,252.39 -678.45,250.19 -669.45,247.19 -661.89,241.35 -654.37,235.47 -649.73,226.95 -645.45,219.07 -643.33,210.43 -641.21,201.79 -641.97,192.87 -642.77,183.51 -646.93,174.95 -650.89,166.75 -656.85,159.91 -662.65,153.27 -669.29,147.43 -676.41,141.27 -685.53,138.47 -694.21,135.71 -703.09,138.11 -711.65,140.31 -719.05,145.15 -726.33,149.87 -732.61,156.07 -739.01,162.47 -743.09,170.63 -747.21,178.99 -748.21,188.15 -749.21,197.27 -747.13,206.15 -745.05,215.23 -740.49,223.23 -735.93,231.19 -729.41,237.63 -722.65,244.27 -714.21,248.51 -709.57,250.91 -704.57,252.23 -700.77,253.19 -696.77,253.55Z M-682.73,175.91 Q-679.81,175.91 -677.73,177.23 -675.69,178.55 -675.69,180.39 M-713.45,173.63 Q-710.81,173.63 -708.93,174.75 -707.05,175.87 -707.05,177.47 M-482.73,134.11 Q-462.97,132.71 -446.13,142.79 -438.49,147.35 -433.41,154.47 -422.21,170.31 -421.65,189.91 -421.33,202.15 -424.97,213.79 -425.89,216.79 -431.09,222.59 -436.21,228.31 -443.13,234.15 -455.29,244.39 -463.57,247.71 -466.85,249.03 -469.53,249.23 -474.45,249.63 -480.69,248.03 -487.45,246.27 -495.77,242.19 -511.93,234.23 -517.13,225.63 -527.13,209.15 -527.93,189.95 -528.77,170.31 -516.41,155.11 -504.65,140.63 -487.25,133.75 -485.33,132.91 -483.33,132.23 M-499.33,181.95 L-503.29,184.87 M-462.69,172.99 L-466.69,175.91 M-449.65,218.51 Q-455.73,228.47 -467.25,226.87 -468.37,226.67 -469.49,226.51 M-933.81,179.91 L-939.25,179.27 M-960.73,346.87 Q-959.77,341.07 -958.17,335.35 -952.17,313.71 -946.13,291.99 -939.61,268.67 -930.05,247.31 -929.41,245.87 -927.37,241.83 M-423.45,355.27 Q-426.57,328.99 -436.17,305.55 -445.57,282.47 -455.93,259.91 -457.97,255.51 -460.45,251.83 M-482.49,251.83 Q-485.37,258.59 -486.85,266.31 -488.73,276.07 -491.13,285.55 -496.77,307.75 -501.17,330.43 -503.57,342.95 -505.93,355.27 M-689.41,256.75 Q-684.89,263.67 -681.13,271.31 -671.97,289.99 -663.53,308.87 -656.01,325.71 -651.17,343.95 M-708.97,230.99 Q-712.05,227.79 -715.49,230.99 -715.61,231.11 -715.61,231.35 M-746.49,343.95 Q-744.53,337.71 -742.01,331.67 -732.89,310.11 -723.61,288.47 -716.81,272.55 -708.21,258.15 -707.81,257.43 -707.37,256.75 M-903.61,242.23 Q-896.13,253.07 -892.33,262.71 -883.45,285.23 -875.53,308.63 -870.25,324.11 -865.01,339.67" test="JurorsBack"/>
    </g>
    <g id="Tween-1">
      <g id="JurorsFront">
        <path fill="#000" stroke="none" d="M-641.524,275.215 Q-648.253,275.896 -654.901,277.979 -656.503,278.459 -658.145,278.82 L-658.505,279.42 -658.265,280.101 -653.379,278.78 -658.265,280.101 Q-664.753,282.624 -670.48,286.669 -677.008,291.355 -681.614,297.924 -685.739,303.771 -688.263,310.579 -690.666,317.188 -691.386,324.196 -692.147,331.365 -691.106,338.374 -689.985,345.823 -686.701,352.632 -683.577,359.2 -678.25,364.246 -672.883,369.333 -666.235,372.817 -661.865,375.139 -657.144,376.301 -654.256,377.041 -651.256,377.343 -644.408,378.344 -637.559,376.902 -636.99,376.781 -636.438,376.622 -629.868,375.113 -623.822,372.016 -617.374,368.612 -612.127,363.646 -606.841,358.559 -603.076,352.031 -599.472,345.903 -597.75,338.975 -596.027,332.126 -596.508,325.117 -597.029,317.788 -599.191,310.86 -601.314,304.051 -605.159,298.164 -609.004,292.236 -614.17,287.15 -619.657,281.823 -626.546,278.659 -633.594,275.415 -641.524,275.215 M-665.234,317.668 L-670.681,317.027 -665.234,317.668 M-645.369,311.781 L-639.922,312.422 -645.369,311.781 M-645.689,361.122 Q-642.886,361.122 -640.923,359.721 -638.961,358.319 -638.961,356.316 -638.961,358.319 -640.923,359.721 -642.886,361.122 -645.689,361.122 M-864.563,260.917 L-865.163,262.84 Q-903.091,260.757 -918.109,295.16 -926.6,314.664 -921.874,335.33 -915.586,362.885 -887.992,372.817 -883.387,374.409 -878.26,375.621 -875.934,376.159 -873.534,376.622 -872.526,376.808 -871.011,376.862 -869.518,376.854 -867.606,376.622 -866.274,376.465 -865.003,376.261 -833.981,371.234 -823.912,337.573 -813.419,302.489 -839.331,276.377 -850.065,265.643 -864.563,260.917 M-857.474,306.254 L-853.629,309.178 -857.474,306.254 M-889.193,309.178 L-885.349,312.101 -889.193,309.178 M-889.273,350.509 Q-888.593,350.349 -887.912,350.229 -888.593,350.349 -889.273,350.509 -894.56,351.991 -897.203,347.345 -894.56,351.991 -889.273,350.509 M-1040.422,356.917 Q-1035.216,337.453 -1043.706,319.31 -1050.435,304.932 -1061.048,293.158 -1071.661,281.423 -1087.241,279.701 -1108.147,279.941 -1087.361,280.021 -1106.705,282.544 -1122.445,293.959 -1139.386,306.214 -1143.431,326.599 -1147.436,346.825 -1139.185,365.528 -1131.496,383.07 -1115.636,393.883 -1108.518,398.687 -1100.377,399.931 -1097.513,400.371 -1094.53,400.371 -1092.138,400.691 -1089.844,400.772 -1072.99,401.351 -1059.967,389.278 -1045.509,375.941 -1040.422,356.917 M-1095.811,327 Q-1093.929,328.121 -1093.929,329.723 -1093.929,328.121 -1095.811,327 -1097.694,325.878 -1100.337,325.878 -1097.694,325.878 -1095.811,327 M-1073.584,327.841 Q-1071.501,329.162 -1071.501,331.005 -1071.501,329.162 -1073.584,327.841 -1075.626,326.519 -1078.55,326.519 -1075.626,326.519 -1073.584,327.841 M-1122.124,361.763 L-1102.9,368.171 -1122.124,361.763 M-145.505,271.811 L-146.106,269.888 Q-148.108,270.609 -150.031,271.45 -167.452,278.339 -179.227,292.837 -191.603,308.056 -190.761,327.721 -189.96,346.945 -179.948,363.445 -174.741,372.056 -158.561,380.026 -150.242,384.102 -143.502,385.833 -137.217,387.459 -132.288,387.075 -129.606,386.859 -126.321,385.553 -118.016,382.243 -105.855,371.976 -98.927,366.129 -93.8,360.402 -88.594,354.594 -87.673,351.59 -84.028,339.936 -84.349,327.681 -84.909,308.056 -96.123,292.196 -101.21,285.067 -108.859,280.502 -125.72,270.409 -145.505,271.811 M-162.126,319.711 L-166.091,322.634 -162.126,319.711 M-125.44,310.739 L-129.445,313.663 -125.44,310.739 M-130.006,364.687 Q-131.127,364.487 -132.248,364.326 -131.127,364.487 -130.006,364.687 -118.471,366.289 -112.384,356.316 -118.471,366.289 -130.006,364.687 M-365.58,276.176 Q-374.271,273.413 -383.162,275.816 -391.732,278.019 -399.142,282.865 -406.431,287.591 -412.719,293.798 -419.127,300.206 -423.212,308.377 -427.337,316.747 -428.338,325.918 -429.339,335.05 -427.257,343.941 -425.174,353.032 -420.608,361.042 -416.043,369.012 -409.515,375.46 -402.746,382.109 -394.296,386.354 -389.633,388.753 -384.684,390.039 -380.839,391.052 -376.834,391.4 -374.339,391.304 -371.868,391 -365.074,390.24 -358.491,388.036 -349.48,385.032 -341.91,379.185 -334.381,373.298 -329.735,364.767 -325.45,356.877 -323.327,348.226 -321.204,339.576 -321.965,330.644 -322.766,321.273 -326.931,312.702 -330.896,304.492 -336.864,297.643 -342.671,290.995 -349.319,285.148 -356.448,278.98 -365.58,276.176 M-357.81,314.985 Q-355.727,316.306 -355.727,318.149 -355.727,316.306 -357.81,314.985 -359.853,313.663 -362.776,313.663 -359.853,313.663 -357.81,314.985 M-389.009,312.502 Q-387.127,313.623 -387.127,315.225 -387.127,313.623 -389.009,312.502 -390.891,311.38 -393.535,311.38 -390.891,311.38 -389.009,312.502 M-395.577,368.812 Q-395.697,368.932 -395.697,369.172 -395.697,368.932 -395.577,368.812 -392.133,365.608 -389.049,368.812 -392.133,365.608 -395.577,368.812 M55.826,289.553 Q48.457,295.761 44.212,304.291 40.247,312.221 38.725,320.832 37.163,329.563 38.445,338.294 39.806,347.666 44.492,355.716 49.138,363.686 56.467,369.172 64.077,374.779 73.128,377.062 74.791,377.467 76.452,377.703 82.331,378.659 88.227,377.823 89.934,377.602 91.631,377.222 100.722,375.26 108.612,370.614 116.742,365.968 122.47,358.719 128.237,351.43 130.92,342.539 133.523,334.049 132.843,325.077 132.162,316.347 128.958,308.296 125.473,299.686 119.666,292.437 114.019,285.428 106.129,281.022 98.36,276.697 89.388,276.777 80.057,276.857 70.965,278.78 L70.605,279.42 70.885,280.141 75.731,278.78 70.885,280.141 Q62.755,283.746 55.826,289.553 M83.741,311.781 L89.188,312.422 83.741,311.781 M63.876,317.668 L58.43,317.027 63.876,317.668 M83.421,361.122 Q86.224,361.122 88.187,359.721 90.149,358.319 90.149,356.316 90.149,358.319 88.187,359.721 86.224,361.122 83.421,361.122Z" test="JurorsFront" vector-effect="non-scaling-stroke" stroke-width="1"/>
        <path id="Layer4_0_1_STROKES" stroke="#FFF" stroke-width="1.602" stroke-linejoin="round" stroke-linecap="round" fill="none" d="M70.885,280.141 Q62.755,283.746 55.826,289.553 48.457,295.761 44.212,304.291 40.247,312.221 38.725,320.832 37.163,329.563 38.445,338.294 39.806,347.666 44.492,355.716 49.138,363.686 56.467,369.172 64.077,374.779 73.128,377.062 74.791,377.467 76.452,377.723 82.331,378.659 88.247,377.843 89.934,377.602 91.631,377.222 100.722,375.26 108.612,370.614 116.742,365.968 122.47,358.719 128.237,351.43 130.92,342.539 133.523,334.049 132.843,325.077 132.162,316.347 128.958,308.296 125.473,299.686 119.666,292.437 114.019,285.428 106.129,281.022 98.36,276.697 89.388,276.777 80.057,276.857 70.965,278.78 L70.605,279.42 M75.731,278.78 L70.885,280.141 M83.741,311.781 L89.188,312.422 M63.876,317.668 L58.43,317.027 M-376.834,391.4 Q-374.339,391.304 -371.868,391.02 -365.074,390.24 -358.491,388.036 -349.48,385.032 -341.91,379.185 -334.381,373.298 -329.735,364.767 -325.45,356.877 -323.327,348.226 -321.204,339.576 -321.965,330.644 -322.766,321.273 -326.931,312.702 -330.896,304.492 -336.864,297.643 -342.671,290.995 -349.319,285.148 -356.448,278.98 -365.58,276.176 -374.271,273.413 -383.162,275.816 -391.732,278.019 -399.142,282.865 -406.431,287.591 -412.719,293.798 -419.127,300.206 -423.212,308.377 -427.337,316.747 -428.338,325.918 -429.339,335.05 -427.257,343.941 -425.174,353.032 -420.608,361.042 -416.043,369.012 -409.515,375.46 -402.746,382.109 -394.296,386.354 -389.633,388.753 -384.664,390.059 -380.839,391.052 -376.834,391.4Z M-362.776,313.663 Q-359.853,313.663 -357.79,314.985 -355.727,316.306 -355.727,318.149 M-393.535,311.38 Q-390.891,311.38 -389.009,312.502 -387.127,313.623 -387.127,315.225 M-145.505,271.811 Q-125.72,270.409 -108.859,280.502 -101.21,285.067 -96.123,292.196 -84.909,308.056 -84.349,327.681 -84.028,339.936 -87.673,351.59 -88.594,354.594 -93.8,360.402 -98.927,366.129 -105.855,371.976 -118.016,382.243 -126.321,385.553 -129.606,386.859 -132.288,387.075 -137.217,387.459 -143.482,385.853 -150.242,384.102 -158.561,380.026 -174.741,372.056 -179.948,363.445 -189.96,346.945 -190.761,327.721 -191.603,308.056 -179.227,292.837 -167.452,278.339 -150.031,271.45 -148.108,270.609 -146.106,269.909 M-162.126,319.711 L-166.091,322.634 M-125.44,310.739 L-129.445,313.663 M-112.384,356.316 Q-118.471,366.289 -130.006,364.687 -131.127,364.487 -132.248,364.326 M-86.151,493.247 Q-89.275,466.935 -98.887,443.465 -108.298,420.356 -118.671,397.768 -120.713,393.363 -123.197,389.678 M-145.265,389.678 Q-148.135,396.441 -149.63,404.176 -151.512,413.948 -153.915,423.44 -159.562,445.668 -163.968,468.376 -166.371,480.912 -168.734,493.247 M-426.616,481.913 Q-424.653,475.665 -422.13,469.618 -412,448.031 -403.707,426.364 -396.884,410.41 -388.308,396.006 -387.892,395.303 -387.467,394.604 M-369.465,394.604 Q-364.945,401.552 -361.174,409.182 -352.003,427.886 -343.552,446.789 -336.023,463.65 -331.177,481.913 M-389.049,368.812 Q-392.133,365.608 -395.577,368.812 -395.697,368.932 -395.697,369.172 M83.421,361.122 Q86.224,361.122 88.187,359.721 90.149,358.319 90.149,356.316 M36.202,510.108 Q40.688,482.995 48.257,457.002 51.541,445.708 54.665,434.294 61.554,409.142 71.726,386.794 73.085,383.838 74.57,381.067 M90.269,381.067 Q99.135,395.68 105.408,413.187 114.339,438.058 122.269,463.851 127.556,480.992 132.762,498.214 M-1100.337,325.878 Q-1097.694,325.878 -1095.811,327 -1093.929,328.121 -1093.929,329.723 M-1078.55,326.519 Q-1075.626,326.519 -1073.564,327.841 -1071.501,329.162 -1071.501,331.005 M-1087.361,280.021 Q-1106.705,282.544 -1122.445,293.959 -1139.386,306.214 -1143.431,326.599 -1147.436,346.825 -1139.185,365.528 -1131.496,383.07 -1115.636,393.883 -1108.518,398.687 -1100.377,399.931 -1097.513,400.371 -1094.53,400.371 -1092.138,400.691 -1089.824,400.772 -1072.99,401.351 -1059.967,389.278 -1045.509,375.941 -1040.422,356.917 -1035.216,337.453 -1043.706,319.31 -1050.435,304.932 -1061.048,293.158 -1071.661,281.423 -1087.221,279.701 M-864.563,260.937 L-873.173,259.476 M-865.163,262.84 Q-903.091,260.757 -918.109,295.16 -926.6,314.664 -921.874,335.33 -915.586,362.885 -887.992,372.817 -883.387,374.409 -878.26,375.621 -875.934,376.159 -873.514,376.622 -872.526,376.808 -871.011,376.862 -869.518,376.854 -867.586,376.622 -866.274,376.465 -865.003,376.261 -833.981,371.234 -823.912,337.573 -813.419,302.489 -839.331,276.377 -850.065,265.643 -864.563,260.937 M-857.474,306.254 L-853.629,309.178 M-889.193,309.178 L-885.349,312.101 M-897.203,347.345 Q-894.56,351.991 -889.273,350.509 -888.593,350.349 -887.912,350.229 M-658.245,280.121 Q-664.753,282.624 -670.48,286.669 -677.008,291.355 -681.614,297.924 -685.739,303.771 -688.263,310.579 -690.666,317.188 -691.386,324.196 -692.147,331.365 -691.106,338.374 -689.985,345.823 -686.701,352.632 -683.577,359.2 -678.25,364.246 -672.883,369.333 -666.235,372.817 -661.865,375.139 -657.124,376.321 -654.256,377.041 -651.256,377.343 -644.408,378.344 -637.559,376.902 -636.99,376.781 -636.418,376.642 -629.868,375.113 -623.822,372.016 -617.374,368.612 -612.127,363.646 -606.841,358.559 -603.076,352.031 -599.472,345.903 -597.75,338.975 -596.027,332.126 -596.508,325.117 -597.029,317.788 -599.191,310.86 -601.314,304.051 -605.159,298.164 -609.004,292.236 -614.17,287.15 -619.657,281.823 -626.546,278.659 -633.594,275.415 -641.524,275.215 -648.253,275.896 -654.901,277.979 -656.503,278.459 -658.145,278.82 L-658.505,279.42 M-653.379,278.78 L-658.245,280.121 M-665.234,317.668 L-670.681,317.027 M-645.369,311.781 L-639.922,312.422 M-1143.871,490.924 Q-1135.901,471.741 -1127.05,452.997 -1118.84,435.615 -1110.309,418.674 -1107.465,413.007 -1103.221,405.137 M-645.689,361.122 Q-642.886,361.122 -640.923,359.721 -638.961,358.319 -638.961,356.316 M-634.996,380.066 Q-627.52,390.937 -623.702,400.572 -614.811,423.12 -606.881,446.549 -601.594,462.048 -596.348,477.628 M-692.187,484.837 Q-691.226,479.03 -689.624,473.302 -683.617,451.635 -677.569,429.888 -671.041,406.539 -661.469,385.152 -660.815,383.695 -658.786,379.666 M-862.38,380.226 Q-841.018,412.903 -831.361,446.589 -825.274,467.936 -818.826,488.962 M-927.321,488.962 Q-919.832,444.987 -897.964,407.54 -890.502,394.713 -881.223,380.226 M-1087.641,405.137 Q-1082.797,414.792 -1078.87,422.319 -1069.659,439.901 -1061.368,457.923 -1053.959,473.983 -1048.833,490.924 M-1122.124,361.763 L-1102.9,368.171" test="JurorsFront"/>
      </g>
    </g>
    <g id="Parrot">
      <path id="Layer2_0_1_STROKES" stroke="#FFF" stroke-width="2" stroke-linejoin="round" stroke-linecap="round" fill="none" d="M521.55,249.5 Q525.25,249.95 528.55,252.9 532.55,256.45 531.05,262.1 529.55,267.75 526.75,270.6 523.95,273.4 520.35,273.3 516.7,273.2 514.1,271.1 511.45,269 510.8,265.45 510.2,262.05 511.05,258.9 511.85,256.05 512.9,254.35 513.9,252.6 516,251.5 518.05,250.35 521.55,249.5Z M521.95,261.25 Q521.45,260.6 520.7,260.5 519.9,260.4 519.85,260.4 519.55,260.4 519.2,260.7 518.35,261.45 519.05,262.95 519.65,264.2 521,263.7 521.95,263.35 522.1,262.65 522.25,262.15 522.25,261.95 522.3,261.55 521.95,261.25Z M477.2,252 Q479.4,251.8 482.35,255.2 485.25,258.5 485.05,263.15 484.85,267.7 482.75,270.5 480.7,273.25 477.15,273.15 473.55,273 470.75,270.75 467.6,268.35 467.75,264.55 468,259.35 469.75,256.25 472.15,251.95 477.2,252Z M479.85,262.8 Q479.5,262.2 478.85,262.15 478.1,262.05 478.05,262.05 477.85,262.05 477.5,262.3 476.75,263 477.4,264.35 477.95,265.5 479.05,265 479.85,264.7 480,264.05 480.1,263.65 480.1,263.45 480.2,263.1 479.85,262.8Z" test="Parrot"/>
      <path id="Layer2_0_2_STROKES" stroke="#F00" stroke-width="2" stroke-linejoin="round" stroke-linecap="round" fill="none" d="M543.1,279.9 Q546.1,280.5 546.85,280.6 547.6,280.7 549.1,280.7 551.25,280.7 555.1,278.3 M536.7,305.5 L538.15,305.9 Q539.85,306.3 541.1,306.3 541.85,306.3 543.95,304.9 545.9,303.6 546.3,303.1 M579.1,328.8 Q570.25,319.2 567.35,306.55 564.9,295.75 566.4,280.1 567.75,266.3 560.7,253.4 552.9,239.15 540.15,233.65 527.4,228.1 517.55,227.15 507.7,226.15 498.3,229.6 488.85,233.05 481.95,240 475.1,246.85 474.85,248.4 M473,317.9 Q472.55,330.95 466.05,341.55 M505.5,306.3 Q507.75,308.8 509.2,311.55 509.4,311.9 511.9,311.9 513.2,311.9 514.95,311.4 515.3,311.3 518.3,310.3" test="Parrot"/>
      <path id="Layer2_0_3_STROKES" stroke="#0FF" stroke-width="2" stroke-linejoin="round" stroke-linecap="round" fill="none" d="M470.65,334.95 L470,338.85 Q470.9,339.3 472,339.4 472.7,339.5 474.2,339.5 478.35,339.5 481.45,335.95 484.6,332.35 486.9,332.35 487.7,332.35 492.1,333 496.45,333.65 497.3,333.65 502.25,333.65 503.25,331.4 504.2,329.1 508,329.1 508.85,329.1 511.95,329.75 515.1,330.4 515.9,330.4 516.45,330.4 518.4,328.45 520.3,326.5 522.7,326.5 523.55,326.5 526.8,327.15 530.05,327.8 530.85,327.8 531.75,327.8 534.25,326.5 535.5,325.85 536.7,325.2 536.85,325.2 539.85,326.5 543.2,327.8 544.8,327.8 546.85,327.8 549.5,326.85 550.8,326.35 551.95,325.85 553.95,325.85 564,328.15 572.35,330.05 576.1,330.35 576.85,330.4 577.4,330.4 M506.45,353.25 Q505.9,355.1 504.1,371.9 502.35,388.15 501.25,391 499.7,395.2 499.15,405.9 498.55,417.25 499.95,424.2 501.5,431.9 508.75,452.95 516.2,474.55 519.5,480.2 521.05,482.9 525.75,490.2 529.55,496.1 532.5,501.7 536.4,509.1 539.5,512.05 542.65,515.1 547.5,516.05 550.75,516.7 555.8,517.9 559.2,518.3 559.2,515.4 559.2,507.3 567.65,511.5 573.6,514.45 575.65,514.85 578.95,515.5 580.7,512.8 582,510.85 583.75,507.5 585.65,504.9 589.8,503.65 592.5,502.85 594.9,504.65 595.55,505.15 597,499.75 598.65,493.65 601.25,486.95 L603.5,481.5 Q604.15,477.6 606.1,468.5 607.8,460.5 607,450.4 606,438.2 601.55,428.8 601.3,428.3 590.15,406.25 583.05,392.15 580.7,385.15 578.95,379.9 575.6,372.55 573.25,367.45 572.9,364.3 M608.55,384.8 Q607.95,384.45 607.05,384.45 606.9,384.45 599.25,387.05 597.6,386.15 595.6,385.1 595.25,387 593.9,388.45 592.75,389.65 592,389.65 590.35,389.65 589,388.45 587.9,387.5 587.8,387.7 586.95,388.6 585.7,389.2 584.25,389.85 583.25,389.65 M580.65,333.65 Q607.7,359.5 608,384.45 L608.65,384.45 M466.05,341.55 Q461.6,353.45 457.95,365.75 454.3,378 451.25,390.45 449.3,398.35 446.9,406.15 443.05,418.6 442.1,431.55 441.9,434.6 442.1,437.55 442.85,450.4 440.8,463.3 440.15,467.6 438.25,471.5 436.85,474.35 435.5,477.15 433.75,474.8 433.25,471.7 429.3,447.3 431.15,422.85 431.45,418.95 432.15,415.05 433.35,408.6 434.4,402.15 435.4,396.2 437.6,390.55 442.15,378.8 447,367.25 453.4,352.2 466.05,341.55Z M453,402.05 Q455.6,404.5 458.65,405.1 459.55,405.3 462.85,405.3 464.7,405.3 465.55,403.7 466.4,402.05 469.35,402.05 471.3,402.05 475.6,402.45 479.45,402.7 481.7,402.05 487.25,400.5 492.3,400.15 493.65,400.05 497.95,400.05" test="Parrot"/>
      <path id="Layer2_0_4_STROKES" stroke="#0F0" stroke-width="2" stroke-linejoin="round" stroke-linecap="round" fill="none" d="M612.4,411.05 Q613.2,409.8 613.2,407.6 613.2,406.05 611.05,396.45 608.8,386.7 608,385.1" test="Parrot"/>
      <path id="Layer2_0_5_STROKES" stroke="#FF0" stroke-width="2" stroke-linejoin="round" stroke-linecap="round" fill="none" d="M609.3,444.3 L615.15,444.3 Q614.85,442.9 615.9,439.1 617.1,434.95 617.1,433.9 617.1,427.6 615.2,419.55 613.6,412.75 612.4,411.05 M473.3,278.95 Q462.8,284.3 461.7,294 461.2,298.45 460.9,303 476.45,305.65 482.55,301.3 484.6,294.4 481.5,289.15 478.35,283.85 476.85,282.4 475.35,280.9 473.3,278.95Z M466.75,304.3 Q464.7,314.7 475.6,315.4 477.6,315.25 479.25,314.45 483.25,311.55 481.7,302.9 M445.85,458.7 Q448.6,461.05 449.75,462.4 450.05,462.6 453.3,462.6 455.9,462.6 464.5,459.35 471.45,456.75 473.5,456.25 473.75,456.15 473.9,456.15 473.95,457.1 478.5,457.35 479.45,457.4 484.3,457.4 486.2,457.4 490.15,456.45 494.1,455.45 495.65,455.45 498.05,455.45 498.25,455.4 499.5,455 499.9,452.75 507.7,454.55 505.75,454.05 M473.5,456.25 Q473.25,456.35 473.45,456.7 473.9,457.4 473.9,456.15 M459.5,503 Q455.55,506.05 454.65,508.55 454.3,509.6 454.3,513.7 454.3,519.1 457.45,520.85 459.85,522.15 469.35,523.15 469.35,521.55 469.05,520.2 471.05,520.95 473.9,521.85 L477.15,521.85 Q475.85,520.15 474.8,518.75 477.05,519.55 479.1,520.55 L483.65,520.55 483.65,517.3 Q480.05,514.1 478.9,508.4 478.3,502.85 477.8,501.7 477.15,501.7 475.85,501.05 M491.45,503.65 Q490.6,513.85 492.35,516.85 493.85,519.45 499.9,519.9 L499.9,516 Q499.35,514.9 498.8,512 498.95,512.2 499.05,512.45 501.9,518.2 507.05,519.25 L507.05,514.1 Q507.7,515.15 508.5,516.15 511.1,519.25 514.2,519.9 L514.9,519.9 Q515.25,517.8 514.15,514.05 512.9,509.9 512.9,508.2 512.9,504.75 515.55,503 M527.9,508.85 Q527.1,521.65 536.35,545.25 540.3,555.35 544.2,561.8 548.4,568.7 551,568.7 554.7,568.7 555.6,568.3 558.65,566.95 559.1,561.55 561.45,562.7 567.55,563.5 572.9,563.5 574.65,558 575.75,554.6 575.95,554.2 576.9,552.45 578.7,552.45 579.4,552.45 586.5,555.05 587.6,555.05 589.45,551.8 591.45,548.3 593,547.9 596.7,546.85 601.9,546.1 605.6,545.15 607.35,541.4 608.4,541.4 610.2,541.75 612,542.05 612.55,542.05 L612.55,520.55 Q609.95,511.65 607.2,499.5 605.1,490.3 603.45,486.1" test="Parrot"/>
      <path id="Layer2_0_6_STROKES" stroke="#F0F" stroke-width="2" stroke-linejoin="round" stroke-linecap="round" fill="none" d="M435.5,477.15 L436.5,486.25 Q438.1,496.1 441.35,499.75 443,501.6 443.95,503.9 444.5,505.15 445.1,507.05 445.6,508.4 446.45,508.55 447.5,508.7 449.8,507.55 452.85,506.05 455.4,503.1 457.15,501.05 459.55,501.05 461.85,501.05 467.65,501.95 472.8,502.4 475.2,500.4 477.55,498.45 482.3,499.6 485,500.25 490.85,501.7 493.8,502.05 498.15,502.9 501.65,503.3 504.5,501.7 507.45,500.05 510.45,500.15 512.35,500.25 516.9,501.05 519.5,501.4 522.35,502.45 524.15,502.8 525.35,500.4 M608.65,486.1 Q611,474.1 612.35,465.8 613.45,459.3 615.15,446.9 M570.25,631.25 Q573.05,639.35 573.8,640.55 574.9,642.3 577.7,642.3 578.75,642.3 579.05,642.2 580.45,641.55 581.95,639.05 600.65,657.9 601.85,657.9 609.35,657.9 612.55,644.95 614.5,637.15 614.5,627.7 614.5,621.75 613.2,616.1 612.35,612.4 610.6,607.8" test="Parrot"/>
      <path id="Layer2_0_7_STROKES" stroke="#F60" stroke-width="2" stroke-linejoin="round" stroke-linecap="round" fill="none" d="M552.6,573.25 Q552.1,572.45 551.55,571.65 550.4,570 550,570 L550,573.25 Q551.25,580.85 559.6,603.3 569.45,629.95 574.45,629.95 576.6,629.95 581.5,625.75 586.05,621.5 586.15,621.5 587,621.5 589.4,622.15 591.85,622.8 592.65,622.8 595.1,622.8 597.5,617.9 599.15,614.5 599.55,612.35 605.2,612.35 608.05,609.45 610.9,606.5 613.85,606.5 613.85,604.25 614.2,599.25 614.5,594.25 614.5,593.75 614.5,589.2 611.6,579.1 608.3,567.7 608,565.45 607.5,561.95 607.7,555.9 608,549.55 608,547.25 L607.35,547.25" test="Parrot"/>
    </g>
    <g id="JuryBoxFront">
      <path fill="#000" stroke="none" d="M-1930.9,514.35 L-1953.2,488.3 -1955.05,617.25 Q-1946.872,617.251 -1935.4,617.25 L-1930.9,514.35 M1011.15,500.95 L1009.8,500.95 991.95,518.5 991.95,613 Q1002.434,613.017 1011.15,613 L1011.15,500.95 M839.7,512.95 Q765.2,514.65 690.85,518.9 615.4,522.55 539.9,523 462.5,523.45 385.1,523.35 309.6,523.25 234.1,523 154.3,522.75 74.5,521.8 -4.2,520.9 -82.85,519.6 -160.95,518.35 -239.05,520.35 -316.35,522.3 -393.7,526.5 -468.95,529.75 -544.35,528.6 -623.75,527.35 -703.1,522.45 -777.05,517.5 -851.3,516.45 -925.2,515.45 -999.15,516.1 -1078.5,516.8 -1157.85,518 -1237.5,519.25 -1317.1,520.45 -1396.15,521.65 -1475.3,522.95 -1552.3,524.25 -1629.35,524.85 -1706.1,525.45 -1783.05,523.95 -1857.2,522.5 -1930.9,514.35 L-1935.4,617.25 Q-1729.442,617.16 -460.6,615.15 747.273,613.195 991.95,613 L991.95,518.5 Q916,511.25 839.7,512.95 M672,502.85 Q666.794,503.094 661.6,503.3 585.65,505.8 509.7,505.8 486.686,505.8 463.65,505.8 408.121,505.815 352.55,505.85 344.312,505.856 336.05,505.85 264.757,505.781 193.4,504.75 170.525,504.422 147.65,503.75 124.768,503.598 101.85,503.4 84.702,503.302 67.5,503.15 50.336,502.697 33.15,502.45 -46.55,501.35 -126.3,500.55 -188.337,499.94 -250.35,502.65 -259.444,503.077 -268.55,503.55 -343.6,507 -418.5,510.95 L-578.55,511.75 Q-658.85,507.9 -739.05,502.95 -811.7,497.9 -884.8,497.2 -963.85,496.4 -1042.8,497.5 -1119.9,498.6 -1197.1,500.15 -1269.75,501.65 -1342.45,503.2 -1416.35,504.75 -1490.35,505.95 -1568.3,507.2 -1646.45,506.2 -1722.15,505.25 -1797.75,500.25 -1875.55,495.6 -1953.2,488.3 L-1930.9,514.35 Q-1857.2,522.5 -1783.05,523.95 -1706.1,525.45 -1629.35,524.85 -1552.3,524.25 -1475.3,522.95 -1396.15,521.65 -1317.1,520.45 -1237.5,519.25 -1157.85,518 -1078.5,516.8 -999.15,516.1 -925.2,515.45 -851.3,516.45 -777.05,517.5 -703.1,522.45 -623.75,527.35 -544.35,528.6 -468.95,529.75 -393.7,526.5 -316.35,522.3 -239.05,520.35 -160.95,518.35 -82.85,519.6 -4.2,520.9 74.5,521.8 154.3,522.75 234.1,523 309.6,523.25 385.1,523.35 462.5,523.45 539.9,523 615.4,522.55 690.85,518.9 765.2,514.65 839.7,512.95 916,511.25 991.95,518.5 L1009.8,500.95 1009.85,500.15 Q991.462,498.494 973.05,496.85 958.952,495.536 944.85,494.6 884.885,490.798 824.7,494.4 748.431,499.691 672,502.85Z" test="JuryBoxFront"/>
      <path id="Layer1_0_1_STROKES" stroke="#F60" stroke-width="2" stroke-linejoin="round" stroke-linecap="round" fill="none" d="M1009.875,500.175 Q991.462,498.494 973.05,496.85 958.952,495.536 944.85,494.625 884.885,490.798 824.7,494.4 748.431,499.691 672,502.875 666.794,503.094 661.6,503.3 585.65,505.8 509.7,505.8 486.686,505.8 463.675,505.8 408.121,505.815 352.55,505.85 344.312,505.856 336.075,505.85 264.757,505.781 193.4,504.75 170.525,504.422 147.65,503.775 124.768,503.598 101.875,503.425 84.702,503.302 67.525,503.175 50.336,502.697 33.15,502.45 -46.55,501.35 -126.3,500.55 -188.337,499.94 -250.325,502.675 -259.444,503.077 -268.55,503.55 -343.6,507 -418.5,510.95 L-578.55,511.75 Q-658.85,507.9 -739.05,502.95 -811.7,497.9 -884.8,497.2 -963.85,496.4 -1042.8,497.5 -1119.9,498.6 -1197.1,500.15 -1269.75,501.65 -1342.45,503.2 -1416.35,504.75 -1490.35,505.95 -1568.3,507.2 -1646.45,506.2 -1722.15,505.25 -1797.75,500.25 -1875.55,495.6 -1953.2,488.3 L-1930.9,514.35 Q-1857.2,522.5 -1783.05,523.95 -1706.1,525.45 -1629.35,524.85 -1552.3,524.25 -1475.3,522.95 -1396.15,521.65 -1317.1,520.45 -1237.5,519.25 -1157.85,518 -1078.5,516.8 -999.15,516.1 -925.2,515.45 -851.3,516.45 -777.05,517.5 -703.1,522.45 -623.75,527.35 -544.35,528.6 -468.95,529.75 -393.7,526.5 -316.35,522.3 -239.05,520.35 -160.95,518.35 -82.85,519.6 -4.2,520.9 74.5,521.8 154.3,522.75 234.1,523 309.6,523.25 385.1,523.35 462.5,523.45 539.9,523 615.4,522.55 690.85,518.9 765.2,514.65 839.7,512.95 916,511.25 991.95,518.5 L1009.8,500.95 M1009.875,500.175 Q1010.512,500.242 1011.15,500.3 L1011.15,500.95 1011.15,613 1011.15,624.2 M991.95,624.2 L991.95,613.025 M-1935.4,617.25 L-1935.7,624.2 M991.95,613.025 L991.95,518.5 M-1955.15,624.2 L-1955.05,617.25 -1953.2,488.3 M-1930.9,514.35 L-1935.4,617.25" test="JuryBoxFront"/>
    </g>
  </g>
</svg>