<?xml version="1.0" encoding="utf-8"?>
<svg id="EdithAnim12" image-rendering="inherit" baseProfile="basic" version="1.1" x="0px" y="0px" width="800" height="600" xmlns="http://www.w3.org/2000/svg" xmlns:xlink="http://www.w3.org/1999/xlink">
  <g id="14_JurorParrotf8r1" overflow="visible">
    <g id="JurorsBack">
      <path fill="#000" stroke="none" d="M1167.97,132.33 Q1165.97,133.01 1164.05,133.85 1146.65,140.73 1134.89,155.21 1122.53,170.41 1123.37,190.05 1124.17,209.25 1134.17,225.73 1139.37,234.33 1155.53,242.29 1163.85,246.37 1170.61,248.13 1176.85,249.73 1181.77,249.33 1184.45,249.13 1187.73,247.81 1196.01,244.49 1208.17,234.25 1215.09,228.41 1220.21,222.69 1225.41,216.89 1226.33,213.89 1229.97,202.25 1229.65,190.01 1229.09,170.41 1217.89,154.57 1212.81,147.45 1205.17,142.89 1188.33,132.81 1168.57,134.21 L1167.97,132.33 M1151.97,182.05 L1148.01,184.97 1151.97,182.05 M1188.61,173.09 L1184.61,176.01 1188.61,173.09 M1184.05,226.97 Q1182.93,226.77 1181.81,226.61 1182.93,226.77 1184.05,226.97 1195.57,228.57 1201.65,218.61 1195.57,228.57 1184.05,226.97 M948.21,138.21 Q939.65,140.41 932.25,145.25 924.97,149.97 918.69,156.17 912.29,162.57 908.21,170.73 904.09,179.09 903.09,188.25 902.09,197.37 904.17,206.25 906.25,215.33 910.81,223.33 915.37,231.29 921.89,237.73 928.65,244.37 937.09,248.61 941.73,251.01 946.73,252.33 950.53,253.29 954.53,253.65 957.01,253.57 959.49,253.29 966.29,252.49 972.85,250.29 981.85,247.29 989.41,241.45 996.93,235.57 1001.57,227.05 1005.85,219.17 1007.97,210.53 1010.09,201.89 1009.33,192.97 1008.53,183.61 1004.37,175.05 1000.41,166.85 994.45,160.01 988.65,153.37 982.01,147.53 974.89,141.37 965.77,138.57 957.09,135.81 948.21,138.21 M973.57,177.33 Q975.61,178.65 975.61,180.49 975.61,178.65 973.57,177.33 971.49,176.01 968.57,176.01 971.49,176.01 973.57,177.33 M942.37,174.85 Q944.25,175.97 944.25,177.57 944.25,175.97 942.37,174.85 940.49,173.73 937.85,173.73 940.49,173.73 942.37,174.85 M935.81,231.09 Q935.69,231.21 935.69,231.45 935.69,231.21 935.81,231.09 939.25,227.89 942.33,231.09 939.25,227.89 935.81,231.09 M724.21,141.81 L724.49,142.53 729.33,141.17 724.49,142.53 Q717.97,145.01 712.25,149.05 705.73,153.73 701.13,160.29 697.01,166.13 694.49,172.93 692.09,179.53 691.37,186.53 690.61,193.69 691.65,200.69 692.77,208.13 696.05,214.93 699.17,221.49 704.49,226.53 709.85,231.61 716.49,235.09 720.85,237.41 725.61,238.61 728.45,239.29 731.45,239.61 738.29,240.61 745.13,239.17 745.69,239.05 746.29,238.93 752.81,237.37 758.85,234.29 765.29,230.89 770.53,225.93 775.81,220.85 779.57,214.33 783.17,208.21 784.89,201.29 786.61,194.45 786.13,187.45 785.61,180.13 783.45,173.21 781.33,166.41 777.49,160.53 773.65,154.61 768.49,149.53 763.01,144.21 756.13,141.05 749.09,137.81 741.17,137.61 734.45,138.29 727.81,140.37 726.21,140.85 724.57,141.21 L724.21,141.81 M737.33,174.13 L742.77,174.77 737.33,174.13 M741.77,222.01 Q743.73,220.61 743.73,218.61 743.73,220.61 741.77,222.01 739.81,223.41 737.01,223.41 739.81,223.41 741.77,222.01 M717.49,180.01 L712.05,179.37 717.49,180.01 M1581.73,135.93 Q1573.33,137.81 1565.69,142.05 1557.41,146.69 1551.45,154.09 1545.85,161.05 1543.41,169.61 1540.85,178.41 1540.45,187.65 1540.05,196.65 1541.21,205.61 1542.33,214.49 1547.33,221.93 1552.49,229.61 1560.01,234.85 1567.29,239.97 1575.61,243.13 1584.45,246.41 1593.89,246.85 1602.89,247.61 1611.29,244.21 1620.09,240.73 1626.41,233.53 1632.77,226.33 1636.73,217.77 1640.69,209.17 1642.33,199.73 1643.89,190.73 1642.77,181.61 1641.61,172.09 1637.33,163.41 1633.09,154.93 1626.13,148.57 1620.21,143.13 1613.37,138.89 1606.85,134.81 1599.53,132.33 L1598.93,134.21 Q1590.21,134.17 1581.73,135.93 M1606.61,177.57 L1610.45,180.49 1606.61,177.57 M1574.93,180.49 L1578.77,183.41 1574.93,180.49 M1574.85,221.77 Q1575.53,221.61 1576.21,221.49 1575.53,221.61 1574.85,221.77 1569.61,223.25 1566.93,218.61 1569.61,223.25 1574.85,221.77 M1358.05,166.65 Q1354.09,174.57 1352.57,183.17 1351.01,191.89 1352.29,200.61 1353.65,209.97 1358.33,218.01 1362.97,225.97 1370.29,231.45 1377.89,237.05 1386.93,239.33 1388.61,239.73 1390.25,240.01 1396.13,240.93 1402.05,240.13 1403.73,239.85 1405.41,239.49 1414.49,237.53 1422.37,232.89 1430.49,228.25 1436.21,221.01 1441.97,213.73 1444.65,204.85 1447.25,196.37 1446.57,187.41 1445.89,178.69 1442.69,170.65 1439.21,162.05 1433.41,154.81 1427.77,147.81 1419.89,143.41 1412.13,139.09 1403.17,139.17 1393.85,139.25 1384.77,141.17 L1384.41,141.81 1384.69,142.53 1389.53,141.17 1384.69,142.53 Q1376.57,146.13 1369.65,151.93 1362.29,158.13 1358.05,166.65 M1377.69,180.01 L1372.25,179.37 1377.69,180.01 M1397.53,174.13 L1402.97,174.77 1397.53,174.13 M1397.21,223.41 Q1400.01,223.41 1401.97,222.01 1403.93,220.61 1403.93,218.61 1403.93,220.61 1401.97,222.01 1400.01,223.41 1397.21,223.41Z" test="JurorsBack" vector-effect="non-scaling-stroke" stroke-width="1"/>
      <path id="Layer3_0_1_STROKES" stroke="#FFF" stroke-width="1.6" stroke-linejoin="round" stroke-linecap="round" fill="none" d="M1384.69,142.53 Q1376.57,146.13 1369.65,151.93 1362.29,158.13 1358.05,166.65 1354.09,174.57 1352.57,183.17 1351.01,191.89 1352.29,200.61 1353.65,209.97 1358.33,218.01 1362.97,225.97 1370.29,231.45 1377.89,237.05 1386.93,239.33 1388.61,239.73 1390.25,240.01 1396.13,240.93 1402.05,240.13 1403.73,239.85 1405.41,239.49 1414.49,237.53 1422.37,232.89 1430.49,228.25 1436.21,221.01 1441.97,213.73 1444.65,204.85 1447.25,196.37 1446.57,187.41 1445.89,178.69 1442.69,170.65 1439.21,162.05 1433.41,154.81 1427.77,147.81 1419.89,143.41 1412.13,139.09 1403.17,139.17 1393.85,139.25 1384.77,141.17 L1384.41,141.81 M1389.53,141.17 L1384.69,142.53 M1377.69,180.01 L1372.25,179.37 M1397.53,174.13 L1402.97,174.77 M1397.21,223.41 Q1400.01,223.41 1401.97,222.01 1403.93,220.61 1403.93,218.61 M1598.93,134.21 Q1590.21,134.17 1581.73,135.93 1573.33,137.81 1565.69,142.05 1557.41,146.69 1551.45,154.09 1545.85,161.05 1543.41,169.61 1540.85,178.41 1540.45,187.65 1540.05,196.65 1541.21,205.61 1542.33,214.49 1547.33,221.93 1552.49,229.61 1560.01,234.85 1567.29,239.97 1575.61,243.13 1584.45,246.41 1593.89,246.85 1602.89,247.61 1611.29,244.21 1620.09,240.73 1626.41,233.53 1632.77,226.33 1636.73,217.77 1640.69,209.17 1642.33,199.73 1643.89,190.73 1642.77,181.61 1641.61,172.09 1637.33,163.41 1633.09,154.93 1626.13,148.57 1620.21,143.13 1613.37,138.89 1606.85,134.81 1599.53,132.33 L1590.93,130.85 M1606.61,177.57 L1610.45,180.49 M1574.93,180.49 L1578.77,183.41 M1566.93,218.61 Q1569.61,223.25 1574.85,221.77 1575.53,221.61 1576.21,221.49 M1596.57,251.77 Q1597.37,252.77 1598.21,253.81 1621.37,283.13 1632.89,320.09 1639.89,342.61 1646.93,365.01 M1536.53,366.73 Q1540.93,322.97 1562.89,285.97 1573.73,267.65 1588.37,253.81 1589.45,252.77 1590.53,251.77 M1350.05,372.21 Q1354.53,345.13 1362.09,319.17 1365.37,307.89 1368.49,296.49 1375.37,271.37 1385.53,249.05 1386.89,246.09 1388.37,243.33 M1404.05,243.33 Q1412.89,257.93 1419.17,275.41 1428.09,300.25 1436.01,326.01 1441.29,343.13 1446.49,360.33 M729.33,141.17 L724.49,142.53 Q717.97,145.01 712.25,149.05 705.73,153.73 701.13,160.29 697.01,166.13 694.49,172.93 692.09,179.53 691.37,186.53 690.61,193.69 691.65,200.69 692.77,208.13 696.05,214.93 699.17,221.49 704.49,226.53 709.85,231.61 716.49,235.09 720.85,237.41 725.61,238.61 728.45,239.29 731.45,239.61 738.29,240.61 745.13,239.17 745.69,239.05 746.29,238.93 752.81,237.37 758.85,234.29 765.29,230.89 770.53,225.93 775.81,220.85 779.57,214.33 783.17,208.21 784.89,201.29 786.61,194.45 786.13,187.45 785.61,180.13 783.45,173.21 781.33,166.41 777.49,160.53 773.65,154.61 768.49,149.53 763.01,144.21 756.13,141.05 749.09,137.81 741.17,137.61 734.45,138.29 727.81,140.37 726.21,140.85 724.57,141.21 L724.21,141.81 M737.33,174.13 L742.77,174.77 M737.01,223.41 Q739.81,223.41 741.77,222.01 743.73,220.61 743.73,218.61 M954.53,253.65 Q957.01,253.57 959.49,253.29 966.29,252.49 972.85,250.29 981.85,247.29 989.41,241.45 996.93,235.57 1001.57,227.05 1005.85,219.17 1007.97,210.53 1010.09,201.89 1009.33,192.97 1008.53,183.61 1004.37,175.05 1000.41,166.85 994.45,160.01 988.65,153.37 982.01,147.53 974.89,141.37 965.77,138.57 957.09,135.81 948.21,138.21 939.65,140.41 932.25,145.25 924.97,149.97 918.69,156.17 912.29,162.57 908.21,170.73 904.09,179.09 903.09,188.25 902.09,197.37 904.17,206.25 906.25,215.33 910.81,223.33 915.37,231.29 921.89,237.73 928.65,244.37 937.09,248.61 941.73,251.01 946.73,252.33 950.53,253.29 954.53,253.65Z M968.57,176.01 Q971.49,176.01 973.57,177.33 975.61,178.65 975.61,180.49 M937.85,173.73 Q940.49,173.73 942.37,174.85 944.25,175.97 944.25,177.57 M1168.57,134.21 Q1188.33,132.81 1205.17,142.89 1212.81,147.45 1217.89,154.57 1229.09,170.41 1229.65,190.01 1229.97,202.25 1226.33,213.89 1225.41,216.89 1220.21,222.69 1215.09,228.41 1208.17,234.25 1196.01,244.49 1187.73,247.81 1184.45,249.13 1181.77,249.33 1176.85,249.73 1170.61,248.13 1163.85,246.37 1155.53,242.29 1139.37,234.33 1134.17,225.73 1124.17,209.25 1123.37,190.05 1122.53,170.41 1134.89,155.21 1146.65,140.73 1164.05,133.85 1165.97,133.01 1167.97,132.33 M1151.97,182.05 L1148.01,184.97 M1188.61,173.09 L1184.61,176.01 M1201.65,218.61 Q1195.57,228.57 1184.05,226.97 1182.93,226.77 1181.81,226.61 M717.49,180.01 L712.05,179.37 M690.57,346.97 Q691.53,341.17 693.13,335.45 699.13,313.81 705.17,292.09 711.69,268.77 721.25,247.41 721.89,245.97 723.93,241.93 M1227.85,355.37 Q1224.73,329.09 1215.13,305.65 1205.73,282.57 1195.37,260.01 1193.33,255.61 1190.85,251.93 M1168.81,251.93 Q1165.93,258.69 1164.45,266.41 1162.57,276.17 1160.17,285.65 1154.53,307.85 1150.13,330.53 1147.73,343.05 1145.37,355.37 M961.89,256.85 Q966.41,263.77 970.17,271.41 979.33,290.09 987.77,308.97 995.29,325.81 1000.13,344.05 M942.33,231.09 Q939.25,227.89 935.81,231.09 935.69,231.21 935.69,231.45 M904.81,344.05 Q906.77,337.81 909.29,331.77 918.41,310.21 927.69,288.57 934.49,272.65 943.09,258.25 943.49,257.53 943.93,256.85 M747.69,242.33 Q755.17,253.17 758.97,262.81 767.85,285.33 775.77,308.73 781.05,324.21 786.29,339.77" test="JurorsBack"/>
    </g>
    <g id="Tween-1">
      <g id="JurorsFront">
        <path fill="#000" stroke="none" d="M1101.476,275.215 Q1094.747,275.896 1088.099,277.979 1086.497,278.459 1084.855,278.82 L1084.495,279.42 1084.735,280.101 1089.621,278.78 1084.735,280.101 Q1078.247,282.624 1072.52,286.669 1065.992,291.355 1061.386,297.924 1057.261,303.771 1054.737,310.579 1052.334,317.188 1051.614,324.196 1050.853,331.365 1051.894,338.374 1053.015,345.823 1056.299,352.632 1059.423,359.2 1064.75,364.246 1070.117,369.333 1076.765,372.817 1081.135,375.139 1085.856,376.301 1088.744,377.041 1091.744,377.343 1098.592,378.344 1105.441,376.902 1106.01,376.781 1106.562,376.622 1113.132,375.113 1119.178,372.016 1125.626,368.612 1130.873,363.646 1136.159,358.559 1139.924,352.031 1143.528,345.903 1145.25,338.975 1146.973,332.126 1146.492,325.117 1145.971,317.788 1143.809,310.86 1141.686,304.051 1137.841,298.164 1133.996,292.236 1128.83,287.15 1123.343,281.823 1116.455,278.659 1109.406,275.415 1101.476,275.215 M1077.766,317.668 L1072.319,317.027 1077.766,317.668 M1097.631,311.781 L1103.078,312.422 1097.631,311.781 M1097.311,361.122 Q1100.114,361.122 1102.077,359.721 1104.039,358.319 1104.039,356.316 1104.039,358.319 1102.077,359.721 1100.114,361.122 1097.311,361.122 M878.437,260.917 L877.837,262.84 Q839.909,260.757 824.891,295.16 816.4,314.664 821.126,335.33 827.414,362.885 855.008,372.817 859.613,374.409 864.74,375.621 867.066,376.159 869.466,376.622 870.474,376.808 871.989,376.862 873.482,376.854 875.394,376.622 876.726,376.465 877.997,376.261 909.019,371.234 919.088,337.573 929.581,302.489 903.669,276.377 892.935,265.643 878.437,260.917 M885.526,306.254 L889.371,309.178 885.526,306.254 M853.807,309.178 L857.651,312.101 853.807,309.178 M853.727,350.509 Q854.407,350.349 855.088,350.229 854.407,350.349 853.727,350.509 848.44,351.991 845.797,347.345 848.44,351.991 853.727,350.509 M702.578,356.917 Q707.784,337.453 699.294,319.31 692.565,304.932 681.952,293.158 671.339,281.423 655.759,279.701 634.853,279.941 655.639,280.021 636.295,282.544 620.555,293.959 603.614,306.214 599.569,326.599 595.564,346.825 603.815,365.528 611.504,383.07 627.364,393.883 634.482,398.687 642.623,399.931 645.487,400.371 648.47,400.371 650.862,400.691 653.156,400.772 670.01,401.351 683.033,389.278 697.491,375.941 702.578,356.917 M647.189,327 Q649.071,328.121 649.071,329.723 649.071,328.121 647.189,327 645.306,325.878 642.663,325.878 645.306,325.878 647.189,327 M669.416,327.841 Q671.499,329.162 671.499,331.005 671.499,329.162 669.416,327.841 667.374,326.519 664.45,326.519 667.374,326.519 669.416,327.841 M620.876,361.763 L640.1,368.171 620.876,361.763 M1597.495,271.811 L1596.894,269.888 Q1594.892,270.609 1592.969,271.45 1575.548,278.339 1563.773,292.837 1551.398,308.056 1552.239,327.721 1553.04,346.945 1563.052,363.445 1568.259,372.056 1584.439,380.026 1592.758,384.102 1599.498,385.833 1605.783,387.459 1610.712,387.075 1613.394,386.859 1616.679,385.553 1624.984,382.243 1637.145,371.976 1644.073,366.129 1649.2,360.402 1654.406,354.594 1655.327,351.59 1658.972,339.936 1658.651,327.681 1658.091,308.056 1646.877,292.196 1641.79,285.067 1634.141,280.502 1617.28,270.409 1597.495,271.811 M1580.874,319.711 L1576.909,322.634 1580.874,319.711 M1617.56,310.739 L1613.555,313.663 1617.56,310.739 M1612.994,364.687 Q1611.873,364.487 1610.752,364.326 1611.873,364.487 1612.994,364.687 1624.529,366.289 1630.616,356.316 1624.529,366.289 1612.994,364.687 M1377.42,276.176 Q1368.729,273.413 1359.838,275.816 1351.268,278.019 1343.858,282.865 1336.569,287.591 1330.281,293.798 1323.873,300.206 1319.788,308.377 1315.663,316.747 1314.662,325.918 1313.661,335.05 1315.743,343.941 1317.826,353.032 1322.392,361.042 1326.957,369.012 1333.485,375.46 1340.254,382.109 1348.704,386.354 1353.367,388.753 1358.316,390.039 1362.161,391.052 1366.166,391.4 1368.661,391.304 1371.132,391 1377.926,390.24 1384.509,388.036 1393.52,385.032 1401.09,379.185 1408.619,373.298 1413.265,364.767 1417.55,356.877 1419.673,348.226 1421.796,339.576 1421.035,330.644 1420.234,321.273 1416.069,312.702 1412.104,304.492 1406.136,297.643 1400.329,290.995 1393.681,285.148 1386.552,278.98 1377.42,276.176 M1385.19,314.985 Q1387.273,316.306 1387.273,318.149 1387.273,316.306 1385.19,314.985 1383.147,313.663 1380.224,313.663 1383.147,313.663 1385.19,314.985 M1353.991,312.502 Q1355.873,313.623 1355.873,315.225 1355.873,313.623 1353.991,312.502 1352.109,311.38 1349.465,311.38 1352.109,311.38 1353.991,312.502 M1347.423,368.812 Q1347.303,368.932 1347.303,369.172 1347.303,368.932 1347.423,368.812 1350.867,365.608 1353.951,368.812 1350.867,365.608 1347.423,368.812 M1798.826,289.553 Q1791.457,295.761 1787.212,304.291 1783.247,312.221 1781.725,320.832 1780.163,329.563 1781.445,338.294 1782.806,347.666 1787.492,355.716 1792.138,363.686 1799.467,369.172 1807.077,374.779 1816.128,377.062 1817.791,377.467 1819.452,377.703 1825.331,378.659 1831.227,377.823 1832.934,377.602 1834.631,377.222 1843.722,375.26 1851.612,370.614 1859.742,365.968 1865.47,358.719 1871.237,351.43 1873.92,342.539 1876.523,334.049 1875.843,325.077 1875.162,316.347 1871.958,308.296 1868.473,299.686 1862.666,292.437 1857.019,285.428 1849.129,281.022 1841.36,276.697 1832.388,276.777 1823.057,276.857 1813.965,278.78 L1813.605,279.42 1813.885,280.141 1818.731,278.78 1813.885,280.141 Q1805.755,283.746 1798.826,289.553 M1826.741,311.781 L1832.188,312.422 1826.741,311.781 M1806.876,317.668 L1801.43,317.027 1806.876,317.668 M1826.421,361.122 Q1829.224,361.122 1831.187,359.721 1833.149,358.319 1833.149,356.316 1833.149,358.319 1831.187,359.721 1829.224,361.122 1826.421,361.122Z" test="JurorsFront" vector-effect="non-scaling-stroke" stroke-width="1"/>
        <path id="Layer4_0_1_STROKES" stroke="#FFF" stroke-width="1.602" stroke-linejoin="round" stroke-linecap="round" fill="none" d="M1813.885,280.141 Q1805.755,283.746 1798.826,289.553 1791.457,295.761 1787.212,304.291 1783.247,312.221 1781.725,320.832 1780.163,329.563 1781.445,338.294 1782.806,347.666 1787.492,355.716 1792.138,363.686 1799.467,369.172 1807.077,374.779 1816.128,377.062 1817.791,377.467 1819.452,377.723 1825.331,378.659 1831.247,377.843 1832.934,377.602 1834.631,377.222 1843.722,375.26 1851.612,370.614 1859.742,365.968 1865.47,358.719 1871.237,351.43 1873.92,342.539 1876.523,334.049 1875.843,325.077 1875.162,316.347 1871.958,308.296 1868.473,299.686 1862.666,292.437 1857.019,285.428 1849.129,281.022 1841.36,276.697 1832.388,276.777 1823.057,276.857 1813.965,278.78 L1813.605,279.42 M1818.731,278.78 L1813.885,280.141 M1826.741,311.781 L1832.188,312.422 M1806.876,317.668 L1801.43,317.027 M1366.166,391.4 Q1368.661,391.304 1371.132,391.02 1377.926,390.24 1384.509,388.036 1393.52,385.032 1401.09,379.185 1408.619,373.298 1413.265,364.767 1417.55,356.877 1419.673,348.226 1421.796,339.576 1421.035,330.644 1420.234,321.273 1416.069,312.702 1412.104,304.492 1406.136,297.643 1400.329,290.995 1393.681,285.148 1386.552,278.98 1377.42,276.176 1368.729,273.413 1359.838,275.816 1351.268,278.019 1343.858,282.865 1336.569,287.591 1330.281,293.798 1323.873,300.206 1319.788,308.377 1315.663,316.747 1314.662,325.918 1313.661,335.05 1315.743,343.941 1317.826,353.032 1322.392,361.042 1326.957,369.012 1333.485,375.46 1340.254,382.109 1348.704,386.354 1353.367,388.753 1358.336,390.059 1362.161,391.052 1366.166,391.4Z M1380.224,313.663 Q1383.147,313.663 1385.21,314.985 1387.273,316.306 1387.273,318.149 M1349.465,311.38 Q1352.109,311.38 1353.991,312.502 1355.873,313.623 1355.873,315.225 M1597.495,271.811 Q1617.28,270.409 1634.141,280.502 1641.79,285.067 1646.877,292.196 1658.091,308.056 1658.651,327.681 1658.972,339.936 1655.327,351.59 1654.406,354.594 1649.2,360.402 1644.073,366.129 1637.145,371.976 1624.984,382.243 1616.679,385.553 1613.394,386.859 1610.712,387.075 1605.783,387.459 1599.518,385.853 1592.758,384.102 1584.439,380.026 1568.259,372.056 1563.052,363.445 1553.04,346.945 1552.239,327.721 1551.398,308.056 1563.773,292.837 1575.548,278.339 1592.969,271.45 1594.892,270.609 1596.894,269.909 M1580.874,319.711 L1576.909,322.634 M1617.56,310.739 L1613.555,313.663 M1630.616,356.316 Q1624.529,366.289 1612.994,364.687 1611.873,364.487 1610.752,364.326 M1656.849,493.247 Q1653.725,466.935 1644.113,443.465 1634.702,420.356 1624.329,397.768 1622.287,393.363 1619.803,389.678 M1597.735,389.678 Q1594.865,396.441 1593.37,404.176 1591.488,413.948 1589.085,423.44 1583.438,445.668 1579.032,468.376 1576.629,480.912 1574.266,493.247 M1316.384,481.913 Q1318.347,475.665 1320.87,469.618 1330.001,448.031 1339.293,426.364 1346.116,410.41 1354.692,396.006 1355.108,395.303 1355.533,394.604 M1373.535,394.604 Q1378.055,401.552 1381.826,409.182 1390.997,427.886 1399.448,446.789 1406.977,463.65 1411.823,481.913 M1353.951,368.812 Q1350.867,365.608 1347.423,368.812 1347.303,368.932 1347.303,369.172 M1826.421,361.122 Q1829.224,361.122 1831.187,359.721 1833.149,358.319 1833.149,356.316 M1779.202,510.108 Q1783.688,482.995 1791.257,457.002 1794.541,445.708 1797.665,434.294 1804.554,409.142 1814.726,386.794 1816.085,383.838 1817.57,381.067 M1833.269,381.067 Q1842.135,395.68 1848.408,413.187 1857.339,438.058 1865.269,463.851 1870.556,480.992 1875.762,498.214 M642.663,325.878 Q645.306,325.878 647.189,327 649.071,328.121 649.071,329.723 M664.45,326.519 Q667.374,326.519 669.436,327.841 671.499,329.162 671.499,331.005 M655.639,280.021 Q636.295,282.544 620.555,293.959 603.614,306.214 599.569,326.599 595.564,346.825 603.815,365.528 611.504,383.07 627.364,393.883 634.482,398.687 642.623,399.931 645.487,400.371 648.47,400.371 650.862,400.691 653.176,400.772 670.01,401.351 683.033,389.278 697.491,375.941 702.578,356.917 707.784,337.453 699.294,319.31 692.565,304.932 681.952,293.158 671.339,281.423 655.779,279.701 M878.437,260.937 L869.827,259.476 M877.837,262.84 Q839.909,260.757 824.891,295.16 816.4,314.664 821.126,335.33 827.414,362.885 855.008,372.817 859.613,374.409 864.74,375.621 867.066,376.159 869.486,376.622 870.474,376.808 871.989,376.862 873.482,376.854 875.414,376.622 876.726,376.465 877.997,376.261 909.019,371.234 919.088,337.573 929.581,302.489 903.669,276.377 892.935,265.643 878.437,260.937 M885.526,306.254 L889.371,309.178 M853.807,309.178 L857.651,312.101 M845.797,347.345 Q848.44,351.991 853.727,350.509 854.407,350.349 855.088,350.229 M1084.755,280.121 Q1078.247,282.624 1072.52,286.669 1065.992,291.355 1061.386,297.924 1057.261,303.771 1054.737,310.579 1052.334,317.188 1051.614,324.196 1050.853,331.365 1051.894,338.374 1053.015,345.823 1056.299,352.632 1059.423,359.2 1064.75,364.246 1070.117,369.333 1076.765,372.817 1081.135,375.139 1085.876,376.321 1088.744,377.041 1091.744,377.343 1098.592,378.344 1105.441,376.902 1106.01,376.781 1106.582,376.642 1113.132,375.113 1119.178,372.016 1125.626,368.612 1130.873,363.646 1136.159,358.559 1139.924,352.031 1143.528,345.903 1145.25,338.975 1146.973,332.126 1146.492,325.117 1145.971,317.788 1143.809,310.86 1141.686,304.051 1137.841,298.164 1133.996,292.236 1128.83,287.15 1123.343,281.823 1116.455,278.659 1109.406,275.415 1101.476,275.215 1094.747,275.896 1088.099,277.979 1086.497,278.459 1084.855,278.82 L1084.495,279.42 M1089.621,278.78 L1084.755,280.121 M1077.766,317.668 L1072.319,317.027 M1097.631,311.781 L1103.078,312.422 M599.129,490.924 Q607.099,471.741 615.95,452.997 624.16,435.615 632.691,418.674 635.535,413.007 639.779,405.137 M1097.311,361.122 Q1100.114,361.122 1102.077,359.721 1104.039,358.319 1104.039,356.316 M1108.004,380.066 Q1115.48,390.937 1119.298,400.572 1128.189,423.12 1136.119,446.549 1141.406,462.048 1146.652,477.628 M1050.813,484.837 Q1051.774,479.03 1053.376,473.302 1059.383,451.635 1065.431,429.888 1071.959,406.539 1081.531,385.152 1082.185,383.695 1084.214,379.666 M880.62,380.226 Q901.982,412.903 911.639,446.589 917.726,467.936 924.174,488.962 M815.679,488.962 Q823.168,444.987 845.036,407.54 852.498,394.713 861.777,380.226 M655.359,405.137 Q660.203,414.792 664.13,422.319 673.341,439.901 681.632,457.923 689.041,473.983 694.167,490.924 M620.876,361.763 L640.1,368.171" test="JurorsFront"/>
      </g>
    </g>
    <g id="Parrot">
      <path id="Layer2_0_1_STROKES" stroke="#FFF" stroke-width="2" stroke-linejoin="round" stroke-linecap="round" fill="none" d="M2213.85,248.2 Q2217.55,248.65 2220.85,251.6 2224.85,255.15 2223.35,260.8 2221.85,266.45 2219.05,269.3 2216.25,272.1 2212.65,272 2209,271.9 2206.4,269.8 2203.75,267.7 2203.1,264.15 2202.5,260.75 2203.35,257.6 2204.15,254.75 2205.2,253.05 2206.2,251.3 2208.3,250.2 2210.35,249.05 2213.85,248.2Z M2214.25,259.95 Q2213.75,259.3 2213,259.2 2212.2,259.1 2212.15,259.1 2211.85,259.1 2211.5,259.4 2210.65,260.15 2211.35,261.65 2211.95,262.9 2213.3,262.4 2214.25,262.05 2214.4,261.35 2214.55,260.85 2214.55,260.65 2214.6,260.25 2214.25,259.95Z M2169.5,250.7 Q2171.7,250.5 2174.65,253.9 2177.55,257.2 2177.35,261.85 2177.15,266.4 2175.05,269.2 2173,271.95 2169.45,271.85 2165.85,271.7 2163.05,269.45 2159.9,267.05 2160.05,263.25 2160.3,258.05 2162.05,254.95 2164.45,250.65 2169.5,250.7Z M2172.15,261.5 Q2171.8,260.9 2171.15,260.85 2170.4,260.75 2170.35,260.75 2170.15,260.75 2169.8,261 2169.05,261.7 2169.7,263.05 2170.25,264.2 2171.35,263.7 2172.15,263.4 2172.3,262.75 2172.4,262.35 2172.4,262.15 2172.5,261.8 2172.15,261.5Z" test="Parrot"/>
      <path id="Layer2_0_2_STROKES" stroke="#F00" stroke-width="2" stroke-linejoin="round" stroke-linecap="round" fill="none" d="M2235.4,278.6 Q2238.4,279.2 2239.15,279.3 2239.9,279.4 2241.4,279.4 2243.55,279.4 2247.4,277 M2229,304.2 L2230.45,304.6 Q2232.15,305 2233.4,305 2234.15,305 2236.25,303.6 2238.2,302.3 2238.6,301.8 M2271.4,327.5 Q2262.55,317.9 2259.65,305.25 2257.2,294.45 2258.7,278.8 2260.05,265 2253,252.1 2245.2,237.85 2232.45,232.35 2219.7,226.8 2209.85,225.85 2200,224.85 2190.6,228.3 2181.15,231.75 2174.25,238.7 2167.4,245.55 2167.15,247.1 M2165.3,316.6 Q2164.85,329.65 2158.35,340.25 M2197.8,305 Q2200.05,307.5 2201.5,310.25 2201.7,310.6 2204.2,310.6 2205.5,310.6 2207.25,310.1 2207.6,310 2210.6,309" test="Parrot"/>
      <path id="Layer2_0_3_STROKES" stroke="#0FF" stroke-width="2" stroke-linejoin="round" stroke-linecap="round" fill="none" d="M2162.95,333.65 L2162.3,337.55 Q2163.2,338 2164.3,338.1 2165,338.2 2166.5,338.2 2170.65,338.2 2173.75,334.65 2176.9,331.05 2179.2,331.05 2180,331.05 2184.4,331.7 2188.75,332.35 2189.6,332.35 2194.55,332.35 2195.55,330.1 2196.5,327.8 2200.3,327.8 2201.15,327.8 2204.25,328.45 2207.4,329.1 2208.2,329.1 2208.75,329.1 2210.7,327.15 2212.6,325.2 2215,325.2 2215.85,325.2 2219.1,325.85 2222.35,326.5 2223.15,326.5 2224.05,326.5 2226.55,325.2 2227.8,324.55 2229,323.9 2229.15,323.9 2232.15,325.2 2235.5,326.5 2237.1,326.5 2239.15,326.5 2241.8,325.55 2243.1,325.05 2244.25,324.55 2246.25,324.55 2256.3,326.85 2264.65,328.75 2268.4,329.05 2269.15,329.1 2269.7,329.1 M2198.75,351.95 Q2198.2,353.8 2196.4,370.6 2194.65,386.85 2193.55,389.7 2192,393.9 2191.45,404.6 2190.85,415.95 2192.25,422.9 2193.8,430.6 2201.05,451.65 2208.5,473.25 2211.8,478.9 2213.35,481.6 2218.05,488.9 2221.85,494.8 2224.8,500.4 2228.7,507.8 2231.8,510.75 2234.95,513.8 2239.8,514.75 2243.05,515.4 2248.1,516.6 2251.5,517 2251.5,514.1 2251.5,506 2259.95,510.2 2265.9,513.15 2267.95,513.55 2271.25,514.2 2273,511.5 2274.3,509.55 2276.05,506.2 2277.95,503.6 2282.1,502.35 2284.8,501.55 2287.2,503.35 2287.85,503.85 2289.3,498.45 2290.95,492.35 2293.55,485.65 L2295.8,480.2 Q2296.45,476.3 2298.4,467.2 2300.1,459.2 2299.3,449.1 2298.3,436.9 2293.85,427.5 2293.6,427 2282.45,404.95 2275.35,390.85 2273,383.85 2271.25,378.6 2267.9,371.25 2265.55,366.15 2265.2,363 M2300.85,383.5 Q2300.25,383.15 2299.35,383.15 2299.2,383.15 2291.55,385.75 2289.9,384.85 2287.9,383.8 2287.55,385.7 2286.2,387.15 2285.05,388.35 2284.3,388.35 2282.65,388.35 2281.3,387.15 2280.2,386.2 2280.1,386.4 2279.25,387.3 2278,387.9 2276.55,388.55 2275.55,388.35 M2272.95,332.35 Q2300,358.2 2300.3,383.15 L2300.95,383.15 M2158.35,340.25 Q2153.9,352.15 2150.25,364.45 2146.6,376.7 2143.55,389.15 2141.6,397.05 2139.2,404.85 2135.35,417.3 2134.4,430.25 2134.2,433.3 2134.4,436.25 2135.15,449.1 2133.1,462 2132.45,466.3 2130.55,470.2 2129.15,473.05 2127.8,475.85 2126.05,473.5 2125.55,470.4 2121.6,446 2123.45,421.55 2123.75,417.65 2124.45,413.75 2125.65,407.3 2126.7,400.85 2127.7,394.9 2129.9,389.25 2134.45,377.5 2139.3,365.95 2145.7,350.9 2158.35,340.25Z M2145.3,400.75 Q2147.9,403.2 2150.95,403.8 2151.85,404 2155.15,404 2157,404 2157.85,402.4 2158.7,400.75 2161.65,400.75 2163.6,400.75 2167.9,401.15 2171.75,401.4 2174,400.75 2179.55,399.2 2184.6,398.85 2185.95,398.75 2190.25,398.75" test="Parrot"/>
      <path id="Layer2_0_4_STROKES" stroke="#0F0" stroke-width="2" stroke-linejoin="round" stroke-linecap="round" fill="none" d="M2304.7,409.75 Q2305.5,408.5 2305.5,406.3 2305.5,404.75 2303.35,395.15 2301.1,385.4 2300.3,383.8" test="Parrot"/>
      <path id="Layer2_0_5_STROKES" stroke="#FF0" stroke-width="2" stroke-linejoin="round" stroke-linecap="round" fill="none" d="M2301.6,443 L2307.45,443 Q2307.15,441.6 2308.2,437.8 2309.4,433.65 2309.4,432.6 2309.4,426.3 2307.5,418.25 2305.9,411.45 2304.7,409.75 M2165.6,277.65 Q2155.1,283 2154,292.7 2153.5,297.15 2153.2,301.7 2168.75,304.35 2174.85,300 2176.9,293.1 2173.8,287.85 2170.65,282.55 2169.15,281.1 2167.65,279.6 2165.6,277.65Z M2159.05,303 Q2157,313.4 2167.9,314.1 2169.9,313.95 2171.55,313.15 2175.55,310.25 2174,301.6 M2138.15,457.4 Q2140.9,459.75 2142.05,461.1 2142.35,461.3 2145.6,461.3 2148.2,461.3 2156.8,458.05 2163.75,455.45 2165.8,454.95 2166.05,454.85 2166.2,454.85 2166.25,455.8 2170.8,456.05 2171.75,456.1 2176.6,456.1 2178.5,456.1 2182.45,455.15 2186.4,454.15 2187.95,454.15 2190.35,454.15 2190.55,454.1 2191.8,453.7 2192.2,451.45 2200,453.25 2198.05,452.75 M2165.8,454.95 Q2165.55,455.05 2165.75,455.4 2166.2,456.1 2166.2,454.85 M2151.8,501.7 Q2147.85,504.75 2146.95,507.25 2146.6,508.3 2146.6,512.4 2146.6,517.8 2149.75,519.55 2152.15,520.85 2161.65,521.85 2161.65,520.25 2161.35,518.9 2163.35,519.65 2166.2,520.55 L2169.45,520.55 Q2168.15,518.85 2167.1,517.45 2169.35,518.25 2171.4,519.25 L2175.95,519.25 2175.95,516 Q2172.35,512.8 2171.2,507.1 2170.6,501.55 2170.1,500.4 2169.45,500.4 2168.15,499.75 M2183.75,502.35 Q2182.9,512.55 2184.65,515.55 2186.15,518.15 2192.2,518.6 L2192.2,514.7 Q2191.65,513.6 2191.1,510.7 2191.25,510.9 2191.35,511.15 2194.2,516.9 2199.35,517.95 L2199.35,512.8 Q2200,513.85 2200.8,514.85 2203.4,517.95 2206.5,518.6 L2207.2,518.6 Q2207.55,516.5 2206.45,512.75 2205.2,508.6 2205.2,506.9 2205.2,503.45 2207.85,501.7 M2220.2,507.55 Q2219.4,520.35 2228.65,543.95 2232.6,554.05 2236.5,560.5 2240.7,567.4 2243.3,567.4 2247,567.4 2247.9,567 2250.95,565.65 2251.4,560.25 2253.75,561.4 2259.85,562.2 2265.2,562.2 2266.95,556.7 2268.05,553.3 2268.25,552.9 2269.2,551.15 2271,551.15 2271.7,551.15 2278.8,553.75 2279.9,553.75 2281.75,550.5 2283.75,547 2285.3,546.6 2289,545.55 2294.2,544.8 2297.9,543.85 2299.65,540.1 2300.7,540.1 2302.5,540.45 2304.3,540.75 2304.85,540.75 L2304.85,519.25 Q2302.25,510.35 2299.5,498.2 2297.4,489 2295.75,484.8" test="Parrot"/>
      <path id="Layer2_0_6_STROKES" stroke="#F0F" stroke-width="2" stroke-linejoin="round" stroke-linecap="round" fill="none" d="M2127.8,475.85 L2128.8,484.95 Q2130.4,494.8 2133.65,498.45 2135.3,500.3 2136.25,502.6 2136.8,503.85 2137.4,505.75 2137.9,507.1 2138.75,507.25 2139.8,507.4 2142.1,506.25 2145.15,504.75 2147.7,501.8 2149.45,499.75 2151.85,499.75 2154.15,499.75 2159.95,500.65 2165.1,501.1 2167.5,499.1 2169.85,497.15 2174.6,498.3 2177.3,498.95 2183.15,500.4 2186.1,500.75 2190.45,501.6 2193.95,502 2196.8,500.4 2199.75,498.75 2202.75,498.85 2204.65,498.95 2209.2,499.75 2211.8,500.1 2214.65,501.15 2216.45,501.5 2217.65,499.1 M2300.95,484.8 Q2303.3,472.8 2304.65,464.5 2305.75,458 2307.45,445.6 M2262.55,629.95 Q2265.35,638.05 2266.1,639.25 2267.2,641 2270,641 2271.05,641 2271.35,640.9 2272.75,640.25 2274.25,637.75 2292.95,656.6 2294.15,656.6 2301.65,656.6 2304.85,643.65 2306.8,635.85 2306.8,626.4 2306.8,620.45 2305.5,614.8 2304.65,611.1 2302.9,606.5" test="Parrot"/>
      <path id="Layer2_0_7_STROKES" stroke="#F60" stroke-width="2" stroke-linejoin="round" stroke-linecap="round" fill="none" d="M2244.9,571.95 Q2244.4,571.15 2243.85,570.35 2242.7,568.7 2242.3,568.7 L2242.3,571.95 Q2243.55,579.55 2251.9,602 2261.75,628.65 2266.75,628.65 2268.9,628.65 2273.8,624.45 2278.35,620.2 2278.45,620.2 2279.3,620.2 2281.7,620.85 2284.15,621.5 2284.95,621.5 2287.4,621.5 2289.8,616.6 2291.45,613.2 2291.85,611.05 2297.5,611.05 2300.35,608.15 2303.2,605.2 2306.15,605.2 2306.15,602.95 2306.5,597.95 2306.8,592.95 2306.8,592.45 2306.8,587.9 2303.9,577.8 2300.6,566.4 2300.3,564.15 2299.8,560.65 2300,554.6 2300.3,548.25 2300.3,545.95 L2299.65,545.95" test="Parrot"/>
    </g>
    <g id="JuryBoxFront">
      <path fill="#000" stroke="none" d="M438.8,514.35 L416.5,488.3 414.65,617.25 Q422.828,617.251 434.3,617.25 L438.8,514.35 M3380.85,500.95 L3379.5,500.95 3361.65,518.5 3361.65,613 Q3372.134,613.017 3380.85,613 L3380.85,500.95 M3209.4,512.95 Q3134.9,514.65 3060.55,518.9 2985.1,522.55 2909.6,523 2832.2,523.45 2754.8,523.35 2679.3,523.25 2603.8,523 2524,522.75 2444.2,521.8 2365.5,520.9 2286.85,519.6 2208.75,518.35 2130.65,520.35 2053.35,522.3 1976,526.5 1900.75,529.75 1825.35,528.6 1745.95,527.35 1666.6,522.45 1592.65,517.5 1518.4,516.45 1444.5,515.45 1370.55,516.1 1291.2,516.8 1211.85,518 1132.2,519.25 1052.6,520.45 973.55,521.65 894.4,522.95 817.4,524.25 740.35,524.85 663.6,525.45 586.65,523.95 512.5,522.5 438.8,514.35 L434.3,617.25 Q640.258,617.16 1909.1,615.15 3116.973,613.195 3361.65,613 L3361.65,518.5 Q3285.7,511.25 3209.4,512.95 M3041.7,502.85 Q3036.494,503.094 3031.3,503.3 2955.35,505.8 2879.4,505.8 2856.386,505.8 2833.35,505.8 2777.821,505.815 2722.25,505.85 2714.012,505.856 2705.75,505.85 2634.457,505.781 2563.1,504.75 2540.225,504.422 2517.35,503.75 2494.468,503.598 2471.55,503.4 2454.402,503.302 2437.2,503.15 2420.036,502.697 2402.85,502.45 2323.15,501.35 2243.4,500.55 2181.363,499.94 2119.35,502.65 2110.256,503.077 2101.15,503.55 2026.1,507 1951.2,510.95 L1791.15,511.75 Q1710.85,507.9 1630.65,502.95 1558,497.9 1484.9,497.2 1405.85,496.4 1326.9,497.5 1249.8,498.6 1172.6,500.15 1099.95,501.65 1027.25,503.2 953.35,504.75 879.35,505.95 801.4,507.2 723.25,506.2 647.55,505.25 571.95,500.25 494.15,495.6 416.5,488.3 L438.8,514.35 Q512.5,522.5 586.65,523.95 663.6,525.45 740.35,524.85 817.4,524.25 894.4,522.95 973.55,521.65 1052.6,520.45 1132.2,519.25 1211.85,518 1291.2,516.8 1370.55,516.1 1444.5,515.45 1518.4,516.45 1592.65,517.5 1666.6,522.45 1745.95,527.35 1825.35,528.6 1900.75,529.75 1976,526.5 2053.35,522.3 2130.65,520.35 2208.75,518.35 2286.85,519.6 2365.5,520.9 2444.2,521.8 2524,522.75 2603.8,523 2679.3,523.25 2754.8,523.35 2832.2,523.45 2909.6,523 2985.1,522.55 3060.55,518.9 3134.9,514.65 3209.4,512.95 3285.7,511.25 3361.65,518.5 L3379.5,500.95 3379.55,500.15 Q3361.162,498.494 3342.75,496.85 3328.652,495.536 3314.55,494.6 3254.585,490.798 3194.4,494.4 3118.131,499.691 3041.7,502.85Z" test="JuryBoxFront"/>
      <path id="Layer1_0_1_STROKES" stroke="#F60" stroke-width="2" stroke-linejoin="round" stroke-linecap="round" fill="none" d="M3379.575,500.175 Q3361.162,498.494 3342.75,496.85 3328.652,495.536 3314.55,494.625 3254.585,490.798 3194.4,494.4 3118.131,499.691 3041.7,502.875 3036.494,503.094 3031.3,503.3 2955.35,505.8 2879.4,505.8 2856.386,505.8 2833.375,505.8 2777.821,505.815 2722.25,505.85 2714.012,505.856 2705.775,505.85 2634.457,505.781 2563.1,504.75 2540.225,504.422 2517.35,503.775 2494.468,503.598 2471.575,503.425 2454.402,503.302 2437.225,503.175 2420.036,502.697 2402.85,502.45 2323.15,501.35 2243.4,500.55 2181.363,499.94 2119.375,502.675 2110.256,503.077 2101.15,503.55 2026.1,507 1951.2,510.95 L1791.15,511.75 Q1710.85,507.9 1630.65,502.95 1558,497.9 1484.9,497.2 1405.85,496.4 1326.9,497.5 1249.8,498.6 1172.6,500.15 1099.95,501.65 1027.25,503.2 953.35,504.75 879.35,505.95 801.4,507.2 723.25,506.2 647.55,505.25 571.95,500.25 494.15,495.6 416.5,488.3 L438.8,514.35 Q512.5,522.5 586.65,523.95 663.6,525.45 740.35,524.85 817.4,524.25 894.4,522.95 973.55,521.65 1052.6,520.45 1132.2,519.25 1211.85,518 1291.2,516.8 1370.55,516.1 1444.5,515.45 1518.4,516.45 1592.65,517.5 1666.6,522.45 1745.95,527.35 1825.35,528.6 1900.75,529.75 1976,526.5 2053.35,522.3 2130.65,520.35 2208.75,518.35 2286.85,519.6 2365.5,520.9 2444.2,521.8 2524,522.75 2603.8,523 2679.3,523.25 2754.8,523.35 2832.2,523.45 2909.6,523 2985.1,522.55 3060.55,518.9 3134.9,514.65 3209.4,512.95 3285.7,511.25 3361.65,518.5 L3379.5,500.95 M3379.575,500.175 Q3380.212,500.242 3380.85,500.3 L3380.85,500.95 3380.85,613 3380.85,624.2 M3361.65,624.2 L3361.65,613.025 M434.3,617.25 L434,624.2 M3361.65,613.025 L3361.65,518.5 M414.55,624.2 L414.65,617.25 416.5,488.3 M438.8,514.35 L434.3,617.25" test="JuryBoxFront"/>
    </g>
  </g>
</svg>