<?xml version="1.0" encoding="utf-8"?>
<svg id="EdithAnim12" image-rendering="inherit" baseProfile="basic" version="1.1" x="0px" y="0px" width="800" height="600" xmlns="http://www.w3.org/2000/svg" xmlns:xlink="http://www.w3.org/1999/xlink">
  <g id="14_JurorParrotf84r1" overflow="visible">
    <g id="JurorsBack">
      <path fill="#000" stroke="none" d="M-545.63,132.23 Q-547.63,132.91 -549.55,133.75 -566.95,140.63 -578.71,155.11 -591.07,170.31 -590.23,189.95 -589.43,209.15 -579.43,225.63 -574.23,234.23 -558.07,242.19 -549.75,246.27 -542.99,248.03 -536.75,249.63 -531.83,249.23 -529.15,249.03 -525.87,247.71 -517.59,244.39 -505.43,234.15 -498.51,228.31 -493.39,222.59 -488.19,216.79 -487.27,213.79 -483.63,202.15 -483.95,189.91 -484.51,170.31 -495.71,154.47 -500.79,147.35 -508.43,142.79 -525.27,132.71 -545.03,134.11 L-545.63,132.23 M-561.63,181.95 L-565.59,184.87 -561.63,181.95 M-524.99,172.99 L-528.99,175.91 -524.99,172.99 M-529.55,226.87 Q-530.67,226.67 -531.79,226.51 -530.67,226.67 -529.55,226.87 -518.03,228.47 -511.95,218.51 -518.03,228.47 -529.55,226.87 M-765.39,138.11 Q-773.95,140.31 -781.35,145.15 -788.63,149.87 -794.91,156.07 -801.31,162.47 -805.39,170.63 -809.51,178.99 -810.51,188.15 -811.51,197.27 -809.43,206.15 -807.35,215.23 -802.79,223.23 -798.23,231.19 -791.71,237.63 -784.95,244.27 -776.51,248.51 -771.87,250.91 -766.87,252.23 -763.07,253.19 -759.07,253.55 -756.59,253.47 -754.11,253.19 -747.31,252.39 -740.75,250.19 -731.75,247.19 -724.19,241.35 -716.67,235.47 -712.03,226.95 -707.75,219.07 -705.63,210.43 -703.51,201.79 -704.27,192.87 -705.07,183.51 -709.23,174.95 -713.19,166.75 -719.15,159.91 -724.95,153.27 -731.59,147.43 -738.71,141.27 -747.83,138.47 -756.51,135.71 -765.39,138.11 M-740.03,177.23 Q-737.99,178.55 -737.99,180.39 -737.99,178.55 -740.03,177.23 -742.11,175.91 -745.03,175.91 -742.11,175.91 -740.03,177.23 M-771.23,174.75 Q-769.35,175.87 -769.35,177.47 -769.35,175.87 -771.23,174.75 -773.11,173.63 -775.75,173.63 -773.11,173.63 -771.23,174.75 M-777.79,230.99 Q-777.91,231.11 -777.91,231.35 -777.91,231.11 -777.79,230.99 -774.35,227.79 -771.27,230.99 -774.35,227.79 -777.79,230.99 M-989.39,141.71 L-989.11,142.43 -984.27,141.07 -989.11,142.43 Q-995.63,144.91 -1001.35,148.95 -1007.87,153.63 -1012.47,160.19 -1016.59,166.03 -1019.11,172.83 -1021.51,179.43 -1022.23,186.43 -1022.99,193.59 -1021.95,200.59 -1020.83,208.03 -1017.55,214.83 -1014.43,221.39 -1009.11,226.43 -1003.75,231.51 -997.11,234.99 -992.75,237.31 -987.99,238.51 -985.15,239.19 -982.15,239.51 -975.31,240.51 -968.47,239.07 -967.91,238.95 -967.31,238.83 -960.79,237.27 -954.75,234.19 -948.31,230.79 -943.07,225.83 -937.79,220.75 -934.03,214.23 -930.43,208.11 -928.71,201.19 -926.99,194.35 -927.47,187.35 -927.99,180.03 -930.15,173.11 -932.27,166.31 -936.11,160.43 -939.95,154.51 -945.11,149.43 -950.59,144.11 -957.47,140.95 -964.51,137.71 -972.43,137.51 -979.15,138.19 -985.79,140.27 -987.39,140.75 -989.03,141.11 L-989.39,141.71 M-976.27,174.03 L-970.83,174.67 -976.27,174.03 M-971.83,221.91 Q-969.87,220.51 -969.87,218.51 -969.87,220.51 -971.83,221.91 -973.79,223.31 -976.59,223.31 -973.79,223.31 -971.83,221.91 M-996.11,179.91 L-1001.55,179.27 -996.11,179.91 M-131.87,135.83 Q-140.27,137.71 -147.91,141.95 -156.19,146.59 -162.15,153.99 -167.75,160.95 -170.19,169.51 -172.75,178.31 -173.15,187.55 -173.55,196.55 -172.39,205.51 -171.27,214.39 -166.27,221.83 -161.11,229.51 -153.59,234.75 -146.31,239.87 -137.99,243.03 -129.15,246.31 -119.71,246.75 -110.71,247.51 -102.31,244.11 -93.51,240.63 -87.19,233.43 -80.83,226.23 -76.87,217.67 -72.91,209.07 -71.27,199.63 -69.71,190.63 -70.83,181.51 -71.99,171.99 -76.27,163.31 -80.51,154.83 -87.47,148.47 -93.39,143.03 -100.23,138.79 -106.75,134.71 -114.07,132.23 L-114.67,134.11 Q-123.39,134.07 -131.87,135.83 M-106.99,177.47 L-103.15,180.39 -106.99,177.47 M-138.67,180.39 L-134.83,183.31 -138.67,180.39 M-138.75,221.67 Q-138.07,221.51 -137.39,221.39 -138.07,221.51 -138.75,221.67 -143.99,223.15 -146.67,218.51 -143.99,223.15 -138.75,221.67 M-355.55,166.55 Q-359.51,174.47 -361.03,183.07 -362.59,191.79 -361.31,200.51 -359.95,209.87 -355.27,217.91 -350.63,225.87 -343.31,231.35 -335.71,236.95 -326.67,239.23 -324.99,239.63 -323.35,239.91 -317.47,240.83 -311.55,240.03 -309.87,239.75 -308.19,239.39 -299.11,237.43 -291.23,232.79 -283.11,228.15 -277.39,220.91 -271.63,213.63 -268.95,204.75 -266.35,196.27 -267.03,187.31 -267.71,178.59 -270.91,170.55 -274.39,161.95 -280.19,154.71 -285.83,147.71 -293.71,143.31 -301.47,138.99 -310.43,139.07 -319.75,139.15 -328.83,141.07 L-329.19,141.71 -328.91,142.43 -324.07,141.07 -328.91,142.43 Q-337.03,146.03 -343.95,151.83 -351.31,158.03 -355.55,166.55 M-335.91,179.91 L-341.35,179.27 -335.91,179.91 M-316.07,174.03 L-310.63,174.67 -316.07,174.03 M-316.39,223.31 Q-313.59,223.31 -311.63,221.91 -309.67,220.51 -309.67,218.51 -309.67,220.51 -311.63,221.91 -313.59,223.31 -316.39,223.31Z" test="JurorsBack" vector-effect="non-scaling-stroke" stroke-width="1"/>
      <path id="Layer3_0_1_STROKES" stroke="#FFF" stroke-width="1.6" stroke-linejoin="round" stroke-linecap="round" fill="none" d="M-328.91,142.43 Q-337.03,146.03 -343.95,151.83 -351.31,158.03 -355.55,166.55 -359.51,174.47 -361.03,183.07 -362.59,191.79 -361.31,200.51 -359.95,209.87 -355.27,217.91 -350.63,225.87 -343.31,231.35 -335.71,236.95 -326.67,239.23 -324.99,239.63 -323.35,239.91 -317.47,240.83 -311.55,240.03 -309.87,239.75 -308.19,239.39 -299.11,237.43 -291.23,232.79 -283.11,228.15 -277.39,220.91 -271.63,213.63 -268.95,204.75 -266.35,196.27 -267.03,187.31 -267.71,178.59 -270.91,170.55 -274.39,161.95 -280.19,154.71 -285.83,147.71 -293.71,143.31 -301.47,138.99 -310.43,139.07 -319.75,139.15 -328.83,141.07 L-329.19,141.71 M-324.07,141.07 L-328.91,142.43 M-335.91,179.91 L-341.35,179.27 M-316.07,174.03 L-310.63,174.67 M-316.39,223.31 Q-313.59,223.31 -311.63,221.91 -309.67,220.51 -309.67,218.51 M-114.67,134.11 Q-123.39,134.07 -131.87,135.83 -140.27,137.71 -147.91,141.95 -156.19,146.59 -162.15,153.99 -167.75,160.95 -170.19,169.51 -172.75,178.31 -173.15,187.55 -173.55,196.55 -172.39,205.51 -171.27,214.39 -166.27,221.83 -161.11,229.51 -153.59,234.75 -146.31,239.87 -137.99,243.03 -129.15,246.31 -119.71,246.75 -110.71,247.51 -102.31,244.11 -93.51,240.63 -87.19,233.43 -80.83,226.23 -76.87,217.67 -72.91,209.07 -71.27,199.63 -69.71,190.63 -70.83,181.51 -71.99,171.99 -76.27,163.31 -80.51,154.83 -87.47,148.47 -93.39,143.03 -100.23,138.79 -106.75,134.71 -114.07,132.23 L-122.67,130.75 M-106.99,177.47 L-103.15,180.39 M-138.67,180.39 L-134.83,183.31 M-146.67,218.51 Q-143.99,223.15 -138.75,221.67 -138.07,221.51 -137.39,221.39 M-117.03,251.67 Q-116.23,252.67 -115.39,253.71 -92.23,283.03 -80.71,319.99 -73.71,342.51 -66.67,364.91 M-177.07,366.63 Q-172.67,322.87 -150.71,285.87 -139.87,267.55 -125.23,253.71 -124.15,252.67 -123.07,251.67 M-363.55,372.11 Q-359.07,345.03 -351.51,319.07 -348.23,307.79 -345.11,296.39 -338.23,271.27 -328.07,248.95 -326.71,245.99 -325.23,243.23 M-309.55,243.23 Q-300.71,257.83 -294.43,275.31 -285.51,300.15 -277.59,325.91 -272.31,343.03 -267.11,360.23 M-984.27,141.07 L-989.11,142.43 Q-995.63,144.91 -1001.35,148.95 -1007.87,153.63 -1012.47,160.19 -1016.59,166.03 -1019.11,172.83 -1021.51,179.43 -1022.23,186.43 -1022.99,193.59 -1021.95,200.59 -1020.83,208.03 -1017.55,214.83 -1014.43,221.39 -1009.11,226.43 -1003.75,231.51 -997.11,234.99 -992.75,237.31 -987.99,238.51 -985.15,239.19 -982.15,239.51 -975.31,240.51 -968.47,239.07 -967.91,238.95 -967.31,238.83 -960.79,237.27 -954.75,234.19 -948.31,230.79 -943.07,225.83 -937.79,220.75 -934.03,214.23 -930.43,208.11 -928.71,201.19 -926.99,194.35 -927.47,187.35 -927.99,180.03 -930.15,173.11 -932.27,166.31 -936.11,160.43 -939.95,154.51 -945.11,149.43 -950.59,144.11 -957.47,140.95 -964.51,137.71 -972.43,137.51 -979.15,138.19 -985.79,140.27 -987.39,140.75 -989.03,141.11 L-989.39,141.71 M-976.27,174.03 L-970.83,174.67 M-976.59,223.31 Q-973.79,223.31 -971.83,221.91 -969.87,220.51 -969.87,218.51 M-759.07,253.55 Q-756.59,253.47 -754.11,253.19 -747.31,252.39 -740.75,250.19 -731.75,247.19 -724.19,241.35 -716.67,235.47 -712.03,226.95 -707.75,219.07 -705.63,210.43 -703.51,201.79 -704.27,192.87 -705.07,183.51 -709.23,174.95 -713.19,166.75 -719.15,159.91 -724.95,153.27 -731.59,147.43 -738.71,141.27 -747.83,138.47 -756.51,135.71 -765.39,138.11 -773.95,140.31 -781.35,145.15 -788.63,149.87 -794.91,156.07 -801.31,162.47 -805.39,170.63 -809.51,178.99 -810.51,188.15 -811.51,197.27 -809.43,206.15 -807.35,215.23 -802.79,223.23 -798.23,231.19 -791.71,237.63 -784.95,244.27 -776.51,248.51 -771.87,250.91 -766.87,252.23 -763.07,253.19 -759.07,253.55Z M-745.03,175.91 Q-742.11,175.91 -740.03,177.23 -737.99,178.55 -737.99,180.39 M-775.75,173.63 Q-773.11,173.63 -771.23,174.75 -769.35,175.87 -769.35,177.47 M-545.03,134.11 Q-525.27,132.71 -508.43,142.79 -500.79,147.35 -495.71,154.47 -484.51,170.31 -483.95,189.91 -483.63,202.15 -487.27,213.79 -488.19,216.79 -493.39,222.59 -498.51,228.31 -505.43,234.15 -517.59,244.39 -525.87,247.71 -529.15,249.03 -531.83,249.23 -536.75,249.63 -542.99,248.03 -549.75,246.27 -558.07,242.19 -574.23,234.23 -579.43,225.63 -589.43,209.15 -590.23,189.95 -591.07,170.31 -578.71,155.11 -566.95,140.63 -549.55,133.75 -547.63,132.91 -545.63,132.23 M-561.63,181.95 L-565.59,184.87 M-524.99,172.99 L-528.99,175.91 M-511.95,218.51 Q-518.03,228.47 -529.55,226.87 -530.67,226.67 -531.79,226.51 M-996.11,179.91 L-1001.55,179.27 M-1023.03,346.87 Q-1022.07,341.07 -1020.47,335.35 -1014.47,313.71 -1008.43,291.99 -1001.91,268.67 -992.35,247.31 -991.71,245.87 -989.67,241.83 M-485.75,355.27 Q-488.87,328.99 -498.47,305.55 -507.87,282.47 -518.23,259.91 -520.27,255.51 -522.75,251.83 M-544.79,251.83 Q-547.67,258.59 -549.15,266.31 -551.03,276.07 -553.43,285.55 -559.07,307.75 -563.47,330.43 -565.87,342.95 -568.23,355.27 M-751.71,256.75 Q-747.19,263.67 -743.43,271.31 -734.27,289.99 -725.83,308.87 -718.31,325.71 -713.47,343.95 M-771.27,230.99 Q-774.35,227.79 -777.79,230.99 -777.91,231.11 -777.91,231.35 M-808.79,343.95 Q-806.83,337.71 -804.31,331.67 -795.19,310.11 -785.91,288.47 -779.11,272.55 -770.51,258.15 -770.11,257.43 -769.67,256.75 M-965.91,242.23 Q-958.43,253.07 -954.63,262.71 -945.75,285.23 -937.83,308.63 -932.55,324.11 -927.31,339.67" test="JurorsBack"/>
    </g>
    <g id="Tween-1">
      <g id="JurorsFront">
        <path fill="#000" stroke="none" d="M-707.224,275.215 Q-713.953,275.896 -720.601,277.979 -722.203,278.459 -723.845,278.82 L-724.205,279.42 -723.965,280.101 -719.079,278.78 -723.965,280.101 Q-730.453,282.624 -736.18,286.669 -742.708,291.355 -747.314,297.924 -751.439,303.771 -753.963,310.579 -756.366,317.188 -757.086,324.196 -757.847,331.365 -756.806,338.374 -755.685,345.823 -752.401,352.632 -749.277,359.2 -743.95,364.246 -738.583,369.333 -731.935,372.817 -727.565,375.139 -722.844,376.301 -719.956,377.041 -716.956,377.343 -710.108,378.344 -703.259,376.902 -702.69,376.781 -702.138,376.622 -695.568,375.113 -689.522,372.016 -683.074,368.612 -677.827,363.646 -672.541,358.559 -668.776,352.031 -665.172,345.903 -663.45,338.975 -661.727,332.126 -662.208,325.117 -662.729,317.788 -664.891,310.86 -667.014,304.051 -670.859,298.164 -674.704,292.236 -679.87,287.15 -685.357,281.823 -692.245,278.659 -699.294,275.415 -707.224,275.215 M-730.934,317.668 L-736.381,317.027 -730.934,317.668 M-711.069,311.781 L-705.622,312.422 -711.069,311.781 M-711.389,361.122 Q-708.586,361.122 -706.623,359.721 -704.661,358.319 -704.661,356.316 -704.661,358.319 -706.623,359.721 -708.586,361.122 -711.389,361.122 M-930.263,260.917 L-930.863,262.84 Q-968.791,260.757 -983.809,295.16 -992.3,314.664 -987.574,335.33 -981.286,362.885 -953.692,372.817 -949.087,374.409 -943.96,375.621 -941.634,376.159 -939.234,376.622 -938.226,376.808 -936.711,376.862 -935.218,376.854 -933.306,376.622 -931.974,376.465 -930.703,376.261 -899.681,371.234 -889.612,337.573 -879.119,302.489 -905.031,276.377 -915.765,265.643 -930.263,260.917 M-923.174,306.254 L-919.329,309.178 -923.174,306.254 M-954.893,309.178 L-951.049,312.101 -954.893,309.178 M-954.973,350.509 Q-954.293,350.349 -953.612,350.229 -954.293,350.349 -954.973,350.509 -960.26,351.991 -962.903,347.345 -960.26,351.991 -954.973,350.509 M-1106.122,356.917 Q-1100.916,337.453 -1109.406,319.31 -1116.135,304.932 -1126.748,293.158 -1137.361,281.423 -1152.941,279.701 -1173.847,279.941 -1153.061,280.021 -1172.405,282.544 -1188.145,293.959 -1205.086,306.214 -1209.131,326.599 -1213.136,346.825 -1204.885,365.528 -1197.196,383.07 -1181.336,393.883 -1174.218,398.687 -1166.077,399.931 -1163.213,400.371 -1160.23,400.371 -1157.838,400.691 -1155.544,400.772 -1138.69,401.351 -1125.667,389.278 -1111.209,375.941 -1106.122,356.917 M-1161.511,327 Q-1159.629,328.121 -1159.629,329.723 -1159.629,328.121 -1161.511,327 -1163.394,325.878 -1166.037,325.878 -1163.394,325.878 -1161.511,327 M-1139.284,327.841 Q-1137.201,329.162 -1137.201,331.005 -1137.201,329.162 -1139.284,327.841 -1141.326,326.519 -1144.25,326.519 -1141.326,326.519 -1139.284,327.841 M-1187.824,361.763 L-1168.6,368.171 -1187.824,361.763 M-211.205,271.811 L-211.806,269.888 Q-213.808,270.609 -215.731,271.45 -233.152,278.339 -244.927,292.837 -257.302,308.056 -256.461,327.721 -255.66,346.945 -245.648,363.445 -240.441,372.056 -224.261,380.026 -215.942,384.102 -209.202,385.833 -202.917,387.459 -197.988,387.075 -195.306,386.859 -192.021,385.553 -183.716,382.243 -171.555,371.976 -164.627,366.129 -159.5,360.402 -154.294,354.594 -153.373,351.59 -149.728,339.936 -150.049,327.681 -150.609,308.056 -161.823,292.196 -166.91,285.067 -174.559,280.502 -191.42,270.409 -211.205,271.811 M-227.826,319.711 L-231.791,322.634 -227.826,319.711 M-191.14,310.739 L-195.145,313.663 -191.14,310.739 M-195.706,364.687 Q-196.827,364.487 -197.948,364.326 -196.827,364.487 -195.706,364.687 -184.171,366.289 -178.084,356.316 -184.171,366.289 -195.706,364.687 M-431.28,276.176 Q-439.971,273.413 -448.862,275.816 -457.432,278.019 -464.842,282.865 -472.131,287.591 -478.419,293.798 -484.827,300.206 -488.912,308.377 -493.037,316.747 -494.038,325.918 -495.039,335.05 -492.957,343.941 -490.874,353.032 -486.308,361.042 -481.743,369.012 -475.215,375.46 -468.446,382.109 -459.996,386.354 -455.333,388.753 -450.384,390.039 -446.539,391.052 -442.534,391.4 -440.039,391.304 -437.568,391 -430.774,390.24 -424.191,388.036 -415.18,385.032 -407.61,379.185 -400.081,373.298 -395.435,364.767 -391.15,356.877 -389.027,348.226 -386.904,339.576 -387.665,330.644 -388.466,321.273 -392.631,312.702 -396.596,304.492 -402.564,297.643 -408.371,290.995 -415.019,285.148 -422.148,278.98 -431.28,276.176 M-423.51,314.985 Q-421.427,316.306 -421.427,318.149 -421.427,316.306 -423.51,314.985 -425.553,313.663 -428.476,313.663 -425.553,313.663 -423.51,314.985 M-454.709,312.502 Q-452.827,313.623 -452.827,315.225 -452.827,313.623 -454.709,312.502 -456.591,311.38 -459.235,311.38 -456.591,311.38 -454.709,312.502 M-461.277,368.812 Q-461.397,368.932 -461.397,369.172 -461.397,368.932 -461.277,368.812 -457.833,365.608 -454.749,368.812 -457.833,365.608 -461.277,368.812 M-9.874,289.553 Q-17.243,295.761 -21.488,304.291 -25.453,312.221 -26.975,320.832 -28.537,329.563 -27.255,338.294 -25.894,347.666 -21.208,355.716 -16.562,363.686 -9.233,369.172 -1.623,374.779 7.428,377.062 9.091,377.467 10.752,377.703 16.631,378.659 22.527,377.823 24.234,377.602 25.931,377.222 35.022,375.26 42.912,370.614 51.042,365.968 56.77,358.719 62.537,351.43 65.22,342.539 67.823,334.049 67.143,325.077 66.462,316.347 63.258,308.296 59.773,299.686 53.966,292.437 48.319,285.428 40.429,281.022 32.66,276.697 23.688,276.777 14.357,276.857 5.265,278.78 L4.905,279.42 5.185,280.141 10.031,278.78 5.185,280.141 Q-2.945,283.746 -9.874,289.553 M18.041,311.781 L23.488,312.422 18.041,311.781 M-1.824,317.668 L-7.27,317.027 -1.824,317.668 M17.721,361.122 Q20.524,361.122 22.487,359.721 24.449,358.319 24.449,356.316 24.449,358.319 22.487,359.721 20.524,361.122 17.721,361.122Z" test="JurorsFront" vector-effect="non-scaling-stroke" stroke-width="1"/>
        <path id="Layer4_0_1_STROKES" stroke="#FFF" stroke-width="1.602" stroke-linejoin="round" stroke-linecap="round" fill="none" d="M5.185,280.141 Q-2.945,283.746 -9.874,289.553 -17.243,295.761 -21.488,304.291 -25.453,312.221 -26.975,320.832 -28.537,329.563 -27.255,338.294 -25.894,347.666 -21.208,355.716 -16.562,363.686 -9.233,369.172 -1.623,374.779 7.428,377.062 9.091,377.467 10.752,377.723 16.631,378.659 22.547,377.843 24.234,377.602 25.931,377.222 35.022,375.26 42.912,370.614 51.042,365.968 56.77,358.719 62.537,351.43 65.22,342.539 67.823,334.049 67.143,325.077 66.462,316.347 63.258,308.296 59.773,299.686 53.966,292.437 48.319,285.428 40.429,281.022 32.66,276.697 23.688,276.777 14.357,276.857 5.265,278.78 L4.905,279.42 M10.031,278.78 L5.185,280.141 M18.041,311.781 L23.488,312.422 M-1.824,317.668 L-7.27,317.027 M-442.534,391.4 Q-440.039,391.304 -437.568,391.02 -430.774,390.24 -424.191,388.036 -415.18,385.032 -407.61,379.185 -400.081,373.298 -395.435,364.767 -391.15,356.877 -389.027,348.226 -386.904,339.576 -387.665,330.644 -388.466,321.273 -392.631,312.702 -396.596,304.492 -402.564,297.643 -408.371,290.995 -415.019,285.148 -422.148,278.98 -431.28,276.176 -439.971,273.413 -448.862,275.816 -457.432,278.019 -464.842,282.865 -472.131,287.591 -478.419,293.798 -484.827,300.206 -488.912,308.377 -493.037,316.747 -494.038,325.918 -495.039,335.05 -492.957,343.941 -490.874,353.032 -486.308,361.042 -481.743,369.012 -475.215,375.46 -468.446,382.109 -459.996,386.354 -455.333,388.753 -450.364,390.059 -446.539,391.052 -442.534,391.4Z M-428.476,313.663 Q-425.553,313.663 -423.49,314.985 -421.427,316.306 -421.427,318.149 M-459.235,311.38 Q-456.591,311.38 -454.709,312.502 -452.827,313.623 -452.827,315.225 M-211.205,271.811 Q-191.42,270.409 -174.559,280.502 -166.91,285.067 -161.823,292.196 -150.609,308.056 -150.049,327.681 -149.728,339.936 -153.373,351.59 -154.294,354.594 -159.5,360.402 -164.627,366.129 -171.555,371.976 -183.716,382.243 -192.021,385.553 -195.306,386.859 -197.988,387.075 -202.917,387.459 -209.182,385.853 -215.942,384.102 -224.261,380.026 -240.441,372.056 -245.648,363.445 -255.66,346.945 -256.461,327.721 -257.302,308.056 -244.927,292.837 -233.152,278.339 -215.731,271.45 -213.808,270.609 -211.806,269.909 M-227.826,319.711 L-231.791,322.634 M-191.14,310.739 L-195.145,313.663 M-178.084,356.316 Q-184.171,366.289 -195.706,364.687 -196.827,364.487 -197.948,364.326 M-151.851,493.247 Q-154.975,466.935 -164.587,443.465 -173.998,420.356 -184.371,397.768 -186.413,393.363 -188.897,389.678 M-210.965,389.678 Q-213.835,396.441 -215.33,404.176 -217.212,413.948 -219.615,423.44 -225.262,445.668 -229.668,468.376 -232.071,480.912 -234.434,493.247 M-492.316,481.913 Q-490.353,475.665 -487.83,469.618 -478.699,448.031 -469.407,426.364 -462.584,410.41 -454.008,396.006 -453.592,395.303 -453.167,394.604 M-435.165,394.604 Q-430.645,401.552 -426.874,409.182 -417.703,427.886 -409.252,446.789 -401.723,463.65 -396.877,481.913 M-454.749,368.812 Q-457.833,365.608 -461.277,368.812 -461.397,368.932 -461.397,369.172 M17.721,361.122 Q20.524,361.122 22.487,359.721 24.449,358.319 24.449,356.316 M-29.498,510.108 Q-25.012,482.995 -17.443,457.002 -14.159,445.708 -11.035,434.294 -4.146,409.142 6.026,386.794 7.385,383.838 8.87,381.067 M24.569,381.067 Q33.435,395.68 39.708,413.187 48.639,438.058 56.569,463.851 61.856,480.992 67.062,498.214 M-1166.037,325.878 Q-1163.394,325.878 -1161.511,327 -1159.629,328.121 -1159.629,329.723 M-1144.25,326.519 Q-1141.326,326.519 -1139.264,327.841 -1137.201,329.162 -1137.201,331.005 M-1153.061,280.021 Q-1172.405,282.544 -1188.145,293.959 -1205.086,306.214 -1209.131,326.599 -1213.136,346.825 -1204.885,365.528 -1197.196,383.07 -1181.336,393.883 -1174.218,398.687 -1166.077,399.931 -1163.213,400.371 -1160.23,400.371 -1157.838,400.691 -1155.524,400.772 -1138.69,401.351 -1125.667,389.278 -1111.209,375.941 -1106.122,356.917 -1100.916,337.453 -1109.406,319.31 -1116.135,304.932 -1126.748,293.158 -1137.361,281.423 -1152.921,279.701 M-930.263,260.937 L-938.873,259.476 M-930.863,262.84 Q-968.791,260.757 -983.809,295.16 -992.3,314.664 -987.574,335.33 -981.286,362.885 -953.692,372.817 -949.087,374.409 -943.96,375.621 -941.634,376.159 -939.214,376.622 -938.226,376.808 -936.711,376.862 -935.218,376.854 -933.286,376.622 -931.974,376.465 -930.703,376.261 -899.681,371.234 -889.612,337.573 -879.119,302.489 -905.031,276.377 -915.765,265.643 -930.263,260.937 M-923.174,306.254 L-919.329,309.178 M-954.893,309.178 L-951.049,312.101 M-962.903,347.345 Q-960.26,351.991 -954.973,350.509 -954.293,350.349 -953.612,350.229 M-723.945,280.121 Q-730.453,282.624 -736.18,286.669 -742.708,291.355 -747.314,297.924 -751.439,303.771 -753.963,310.579 -756.366,317.188 -757.086,324.196 -757.847,331.365 -756.806,338.374 -755.685,345.823 -752.401,352.632 -749.277,359.2 -743.95,364.246 -738.583,369.333 -731.935,372.817 -727.565,375.139 -722.824,376.321 -719.956,377.041 -716.956,377.343 -710.108,378.344 -703.259,376.902 -702.69,376.781 -702.118,376.642 -695.568,375.113 -689.522,372.016 -683.074,368.612 -677.827,363.646 -672.541,358.559 -668.776,352.031 -665.172,345.903 -663.45,338.975 -661.727,332.126 -662.208,325.117 -662.729,317.788 -664.891,310.86 -667.014,304.051 -670.859,298.164 -674.704,292.236 -679.87,287.15 -685.357,281.823 -692.245,278.659 -699.294,275.415 -707.224,275.215 -713.953,275.896 -720.601,277.979 -722.203,278.459 -723.845,278.82 L-724.205,279.42 M-719.079,278.78 L-723.945,280.121 M-730.934,317.668 L-736.381,317.027 M-711.069,311.781 L-705.622,312.422 M-1209.571,490.924 Q-1201.601,471.741 -1192.75,452.997 -1184.54,435.615 -1176.009,418.674 -1173.165,413.007 -1168.921,405.137 M-711.389,361.122 Q-708.586,361.122 -706.623,359.721 -704.661,358.319 -704.661,356.316 M-700.696,380.066 Q-693.22,390.937 -689.402,400.572 -680.511,423.12 -672.581,446.549 -667.294,462.048 -662.048,477.628 M-757.887,484.837 Q-756.926,479.03 -755.324,473.302 -749.317,451.635 -743.269,429.888 -736.741,406.539 -727.169,385.152 -726.515,383.695 -724.486,379.666 M-928.08,380.226 Q-906.718,412.903 -897.061,446.589 -890.974,467.936 -884.526,488.962 M-993.021,488.962 Q-985.532,444.987 -963.664,407.54 -956.202,394.713 -946.923,380.226 M-1153.341,405.137 Q-1148.497,414.792 -1144.57,422.319 -1135.359,439.901 -1127.068,457.923 -1119.659,473.983 -1114.533,490.924 M-1187.824,361.763 L-1168.6,368.171" test="JurorsFront"/>
      </g>
    </g>
    <g id="Parrot">
      <path id="Layer2_0_1_STROKES" stroke="#FFF" stroke-width="2" stroke-linejoin="round" stroke-linecap="round" fill="none" d="M459.55,249.55 Q463.25,250 466.55,252.95 470.55,256.5 469.05,262.15 467.55,267.8 464.75,270.65 461.95,273.45 458.35,273.35 454.7,273.25 452.1,271.15 449.45,269.05 448.8,265.5 448.2,262.1 449.05,258.95 449.85,256.1 450.9,254.4 451.9,252.65 454,251.55 456.05,250.4 459.55,249.55Z M459.95,261.3 Q459.45,260.65 458.7,260.55 457.9,260.45 457.85,260.45 457.55,260.45 457.2,260.75 456.35,261.5 457.05,263 457.65,264.25 459,263.75 459.95,263.4 460.1,262.7 460.25,262.2 460.25,262 460.3,261.6 459.95,261.3Z M415.2,252.05 Q417.4,251.85 420.35,255.25 423.25,258.55 423.05,263.2 422.85,267.75 420.75,270.55 418.7,273.3 415.15,273.2 411.55,273.05 408.75,270.8 405.6,268.4 405.75,264.6 406,259.4 407.75,256.3 410.15,252 415.2,252.05Z M417.85,262.85 Q417.5,262.25 416.85,262.2 416.1,262.1 416.05,262.1 415.85,262.1 415.5,262.35 414.75,263.05 415.4,264.4 415.95,265.55 417.05,265.05 417.85,264.75 418,264.1 418.1,263.7 418.1,263.5 418.2,263.15 417.85,262.85Z" test="Parrot"/>
      <path id="Layer2_0_2_STROKES" stroke="#F00" stroke-width="2" stroke-linejoin="round" stroke-linecap="round" fill="none" d="M481.1,279.95 Q484.1,280.55 484.85,280.65 485.6,280.75 487.1,280.75 489.25,280.75 493.1,278.35 M474.7,305.55 L476.15,305.95 Q477.85,306.35 479.1,306.35 479.85,306.35 481.95,304.95 483.9,303.65 484.3,303.15 M517.1,328.85 Q508.25,319.25 505.35,306.6 502.9,295.8 504.4,280.15 505.75,266.35 498.7,253.45 490.9,239.2 478.15,233.7 465.4,228.15 455.55,227.2 445.7,226.2 436.3,229.65 426.85,233.1 419.95,240.05 413.1,246.9 412.85,248.45 M411,317.95 Q410.55,331 404.05,341.6 M443.5,306.35 Q445.75,308.85 447.2,311.6 447.4,311.95 449.9,311.95 451.2,311.95 452.95,311.45 453.3,311.35 456.3,310.35" test="Parrot"/>
      <path id="Layer2_0_3_STROKES" stroke="#0FF" stroke-width="2" stroke-linejoin="round" stroke-linecap="round" fill="none" d="M408.65,335 L408,338.9 Q408.9,339.35 410,339.45 410.7,339.55 412.2,339.55 416.35,339.55 419.45,336 422.6,332.4 424.9,332.4 425.7,332.4 430.1,333.05 434.45,333.7 435.3,333.7 440.25,333.7 441.25,331.45 442.2,329.15 446,329.15 446.85,329.15 449.95,329.8 453.1,330.45 453.9,330.45 454.45,330.45 456.4,328.5 458.3,326.55 460.7,326.55 461.55,326.55 464.8,327.2 468.05,327.85 468.85,327.85 469.75,327.85 472.25,326.55 473.5,325.9 474.7,325.25 474.85,325.25 477.85,326.55 481.2,327.85 482.8,327.85 484.85,327.85 487.5,326.9 488.8,326.4 489.95,325.9 491.95,325.9 502,328.2 510.35,330.1 514.1,330.4 514.85,330.45 515.4,330.45 M444.45,353.3 Q443.9,355.15 442.1,371.95 440.35,388.2 439.25,391.05 437.7,395.25 437.15,405.95 436.55,417.3 437.95,424.25 439.5,431.95 446.75,453 454.2,474.6 457.5,480.25 459.05,482.95 463.75,490.25 467.55,496.15 470.5,501.75 474.4,509.15 477.5,512.1 480.65,515.15 485.5,516.1 488.75,516.75 493.8,517.95 497.2,518.35 497.2,515.45 497.2,507.35 505.65,511.55 511.6,514.5 513.65,514.9 516.95,515.55 518.7,512.85 520,510.9 521.75,507.55 523.65,504.95 527.8,503.7 530.5,502.9 532.9,504.7 533.55,505.2 535,499.8 536.65,493.7 539.25,487 L541.5,481.55 Q542.15,477.65 544.1,468.55 545.8,460.55 545,450.45 544,438.25 539.55,428.85 539.3,428.35 528.15,406.3 521.05,392.2 518.7,385.2 516.95,379.95 513.6,372.6 511.25,367.5 510.9,364.35 M546.55,384.85 Q545.95,384.5 545.05,384.5 544.9,384.5 537.25,387.1 535.6,386.2 533.6,385.15 533.25,387.05 531.9,388.5 530.75,389.7 530,389.7 528.35,389.7 527,388.5 525.9,387.55 525.8,387.75 524.95,388.65 523.7,389.25 522.25,389.9 521.25,389.7 M518.65,333.7 Q545.7,359.55 546,384.5 L546.65,384.5 M404.05,341.6 Q399.6,353.5 395.95,365.8 392.3,378.05 389.25,390.5 387.3,398.4 384.9,406.2 381.05,418.65 380.1,431.6 379.9,434.65 380.1,437.6 380.85,450.45 378.8,463.35 378.15,467.65 376.25,471.55 374.85,474.4 373.5,477.2 371.75,474.85 371.25,471.75 367.3,447.35 369.15,422.9 369.45,419 370.15,415.1 371.35,408.65 372.4,402.2 373.4,396.25 375.6,390.6 380.15,378.85 385,367.3 391.4,352.25 404.05,341.6Z M391,402.1 Q393.6,404.55 396.65,405.15 397.55,405.35 400.85,405.35 402.7,405.35 403.55,403.75 404.4,402.1 407.35,402.1 409.3,402.1 413.6,402.5 417.45,402.75 419.7,402.1 425.25,400.55 430.3,400.2 431.65,400.1 435.95,400.1" test="Parrot"/>
      <path id="Layer2_0_4_STROKES" stroke="#0F0" stroke-width="2" stroke-linejoin="round" stroke-linecap="round" fill="none" d="M550.4,411.1 Q551.2,409.85 551.2,407.65 551.2,406.1 549.05,396.5 546.8,386.75 546,385.15" test="Parrot"/>
      <path id="Layer2_0_5_STROKES" stroke="#FF0" stroke-width="2" stroke-linejoin="round" stroke-linecap="round" fill="none" d="M547.3,444.35 L553.15,444.35 Q552.85,442.95 553.9,439.15 555.1,435 555.1,433.95 555.1,427.65 553.2,419.6 551.6,412.8 550.4,411.1 M411.3,279 Q400.8,284.35 399.7,294.05 399.2,298.5 398.9,303.05 414.45,305.7 420.55,301.35 422.6,294.45 419.5,289.2 416.35,283.9 414.85,282.45 413.35,280.95 411.3,279Z M404.75,304.35 Q402.7,314.75 413.6,315.45 415.6,315.3 417.25,314.5 421.25,311.6 419.7,302.95 M383.85,458.75 Q386.6,461.1 387.75,462.45 388.05,462.65 391.3,462.65 393.9,462.65 402.5,459.4 409.45,456.8 411.5,456.3 411.75,456.2 411.9,456.2 411.95,457.15 416.5,457.4 417.45,457.45 422.3,457.45 424.2,457.45 428.15,456.5 432.1,455.5 433.65,455.5 436.05,455.5 436.25,455.45 437.5,455.05 437.9,452.8 445.7,454.6 443.75,454.1 M411.5,456.3 Q411.25,456.4 411.45,456.75 411.9,457.45 411.9,456.2 M397.5,503.05 Q393.55,506.1 392.65,508.6 392.3,509.65 392.3,513.75 392.3,519.15 395.45,520.9 397.85,522.2 407.35,523.2 407.35,521.6 407.05,520.25 409.05,521 411.9,521.9 L415.15,521.9 Q413.85,520.2 412.8,518.8 415.05,519.6 417.1,520.6 L421.65,520.6 421.65,517.35 Q418.05,514.15 416.9,508.45 416.3,502.9 415.8,501.75 415.15,501.75 413.85,501.1 M429.45,503.7 Q428.6,513.9 430.35,516.9 431.85,519.5 437.9,519.95 L437.9,516.05 Q437.35,514.95 436.8,512.05 436.95,512.25 437.05,512.5 439.9,518.25 445.05,519.3 L445.05,514.15 Q445.7,515.2 446.5,516.2 449.1,519.3 452.2,519.95 L452.9,519.95 Q453.25,517.85 452.15,514.1 450.9,509.95 450.9,508.25 450.9,504.8 453.55,503.05 M465.9,508.9 Q465.1,521.7 474.35,545.3 478.3,555.4 482.2,561.85 486.4,568.75 489,568.75 492.7,568.75 493.6,568.35 496.65,567 497.1,561.6 499.45,562.75 505.55,563.55 510.9,563.55 512.65,558.05 513.75,554.65 513.95,554.25 514.9,552.5 516.7,552.5 517.4,552.5 524.5,555.1 525.6,555.1 527.45,551.85 529.45,548.35 531,547.95 534.7,546.9 539.9,546.15 543.6,545.2 545.35,541.45 546.4,541.45 548.2,541.8 550,542.1 550.55,542.1 L550.55,520.6 Q547.95,511.7 545.2,499.55 543.1,490.35 541.45,486.15" test="Parrot"/>
      <path id="Layer2_0_6_STROKES" stroke="#F0F" stroke-width="2" stroke-linejoin="round" stroke-linecap="round" fill="none" d="M373.5,477.2 L374.5,486.3 Q376.1,496.15 379.35,499.8 381,501.65 381.95,503.95 382.5,505.2 383.1,507.1 383.6,508.45 384.45,508.6 385.5,508.75 387.8,507.6 390.85,506.1 393.4,503.15 395.15,501.1 397.55,501.1 399.85,501.1 405.65,502 410.8,502.45 413.2,500.45 415.55,498.5 420.3,499.65 423,500.3 428.85,501.75 431.8,502.1 436.15,502.95 439.65,503.35 442.5,501.75 445.45,500.1 448.45,500.2 450.35,500.3 454.9,501.1 457.5,501.45 460.35,502.5 462.15,502.85 463.35,500.45 M546.65,486.15 Q549,474.15 550.35,465.85 551.45,459.35 553.15,446.95 M508.25,631.3 Q511.05,639.4 511.8,640.6 512.9,642.35 515.7,642.35 516.75,642.35 517.05,642.25 518.45,641.6 519.95,639.1 538.65,657.95 539.85,657.95 547.35,657.95 550.55,645 552.5,637.2 552.5,627.75 552.5,621.8 551.2,616.15 550.35,612.45 548.6,607.85" test="Parrot"/>
      <path id="Layer2_0_7_STROKES" stroke="#F60" stroke-width="2" stroke-linejoin="round" stroke-linecap="round" fill="none" d="M490.6,573.3 Q490.1,572.5 489.55,571.7 488.4,570.05 488,570.05 L488,573.3 Q489.25,580.9 497.6,603.35 507.45,630 512.45,630 514.6,630 519.5,625.8 524.05,621.55 524.15,621.55 525,621.55 527.4,622.2 529.85,622.85 530.65,622.85 533.1,622.85 535.5,617.95 537.15,614.55 537.55,612.4 543.2,612.4 546.05,609.5 548.9,606.55 551.85,606.55 551.85,604.3 552.2,599.3 552.5,594.3 552.5,593.8 552.5,589.25 549.6,579.15 546.3,567.75 546,565.5 545.5,562 545.7,555.95 546,549.6 546,547.3 L545.35,547.3" test="Parrot"/>
    </g>
    <g id="JuryBoxFront">
      <path fill="#000" stroke="none" d="M-2020.25,514.35 L-2042.55,488.3 -2044.4,617.25 Q-2036.222,617.251 -2024.75,617.25 L-2020.25,514.35 M921.8,500.95 L920.45,500.95 902.6,518.5 902.6,613 Q913.084,613.017 921.8,613 L921.8,500.95 M750.35,512.95 Q675.85,514.65 601.5,518.9 526.05,522.55 450.55,523 373.15,523.45 295.75,523.35 220.25,523.25 144.75,523 64.95,522.75 -14.85,521.8 -93.55,520.9 -172.2,519.6 -250.3,518.35 -328.4,520.35 -405.7,522.3 -483.05,526.5 -558.3,529.75 -633.7,528.6 -713.1,527.35 -792.45,522.45 -866.4,517.5 -940.65,516.45 -1014.55,515.45 -1088.5,516.1 -1167.85,516.8 -1247.2,518 -1326.85,519.25 -1406.45,520.45 -1485.5,521.65 -1564.65,522.95 -1641.65,524.25 -1718.7,524.85 -1795.45,525.45 -1872.4,523.95 -1946.55,522.5 -2020.25,514.35 L-2024.75,617.25 Q-1818.792,617.16 -549.95,615.15 657.923,613.195 902.6,613 L902.6,518.5 Q826.65,511.25 750.35,512.95 M582.65,502.85 Q577.444,503.094 572.25,503.3 496.3,505.8 420.35,505.8 397.336,505.8 374.3,505.8 318.771,505.815 263.2,505.85 254.962,505.856 246.7,505.85 175.407,505.781 104.05,504.75 81.175,504.422 58.3,503.75 35.418,503.598 12.5,503.4 -4.648,503.302 -21.85,503.15 -39.014,502.697 -56.2,502.45 -135.9,501.35 -215.65,500.55 -277.687,499.94 -339.7,502.65 -348.794,503.077 -357.9,503.55 -432.95,507 -507.85,510.95 L-667.9,511.75 Q-748.2,507.9 -828.4,502.95 -901.05,497.9 -974.15,497.2 -1053.2,496.4 -1132.15,497.5 -1209.25,498.6 -1286.45,500.15 -1359.1,501.65 -1431.8,503.2 -1505.7,504.75 -1579.7,505.95 -1657.65,507.2 -1735.8,506.2 -1811.5,505.25 -1887.1,500.25 -1964.9,495.6 -2042.55,488.3 L-2020.25,514.35 Q-1946.55,522.5 -1872.4,523.95 -1795.45,525.45 -1718.7,524.85 -1641.65,524.25 -1564.65,522.95 -1485.5,521.65 -1406.45,520.45 -1326.85,519.25 -1247.2,518 -1167.85,516.8 -1088.5,516.1 -1014.55,515.45 -940.65,516.45 -866.4,517.5 -792.45,522.45 -713.1,527.35 -633.7,528.6 -558.3,529.75 -483.05,526.5 -405.7,522.3 -328.4,520.35 -250.3,518.35 -172.2,519.6 -93.55,520.9 -14.85,521.8 64.95,522.75 144.75,523 220.25,523.25 295.75,523.35 373.15,523.45 450.55,523 526.05,522.55 601.5,518.9 675.85,514.65 750.35,512.95 826.65,511.25 902.6,518.5 L920.45,500.95 920.5,500.15 Q902.112,498.494 883.7,496.85 869.602,495.536 855.5,494.6 795.535,490.798 735.35,494.4 659.081,499.691 582.65,502.85Z" test="JuryBoxFront"/>
      <path id="Layer1_0_1_STROKES" stroke="#F60" stroke-width="2" stroke-linejoin="round" stroke-linecap="round" fill="none" d="M920.525,500.175 Q902.112,498.494 883.7,496.85 869.602,495.536 855.5,494.625 795.535,490.798 735.35,494.4 659.081,499.691 582.65,502.875 577.444,503.094 572.25,503.3 496.3,505.8 420.35,505.8 397.336,505.8 374.325,505.8 318.771,505.815 263.2,505.85 254.962,505.856 246.725,505.85 175.407,505.781 104.05,504.75 81.175,504.422 58.3,503.775 35.418,503.598 12.525,503.425 -4.648,503.302 -21.825,503.175 -39.014,502.697 -56.2,502.45 -135.9,501.35 -215.65,500.55 -277.687,499.94 -339.675,502.675 -348.794,503.077 -357.9,503.55 -432.95,507 -507.85,510.95 L-667.9,511.75 Q-748.2,507.9 -828.4,502.95 -901.05,497.9 -974.15,497.2 -1053.2,496.4 -1132.15,497.5 -1209.25,498.6 -1286.45,500.15 -1359.1,501.65 -1431.8,503.2 -1505.7,504.75 -1579.7,505.95 -1657.65,507.2 -1735.8,506.2 -1811.5,505.25 -1887.1,500.25 -1964.9,495.6 -2042.55,488.3 L-2020.25,514.35 Q-1946.55,522.5 -1872.4,523.95 -1795.45,525.45 -1718.7,524.85 -1641.65,524.25 -1564.65,522.95 -1485.5,521.65 -1406.45,520.45 -1326.85,519.25 -1247.2,518 -1167.85,516.8 -1088.5,516.1 -1014.55,515.45 -940.65,516.45 -866.4,517.5 -792.45,522.45 -713.1,527.35 -633.7,528.6 -558.3,529.75 -483.05,526.5 -405.7,522.3 -328.4,520.35 -250.3,518.35 -172.2,519.6 -93.55,520.9 -14.85,521.8 64.95,522.75 144.75,523 220.25,523.25 295.75,523.35 373.15,523.45 450.55,523 526.05,522.55 601.5,518.9 675.85,514.65 750.35,512.95 826.65,511.25 902.6,518.5 L920.45,500.95 M920.525,500.175 Q921.162,500.242 921.8,500.3 L921.8,500.95 921.8,613 921.8,624.2 M902.6,624.2 L902.6,613.025 M-2024.75,617.25 L-2025.05,624.2 M902.6,613.025 L902.6,518.5 M-2044.5,624.2 L-2044.4,617.25 -2042.55,488.3 M-2020.25,514.35 L-2024.75,617.25" test="JuryBoxFront"/>
    </g>
  </g>
</svg>