<?xml version="1.0" encoding="utf-8"?>
<svg id="EdithAnim12" image-rendering="inherit" baseProfile="basic" version="1.1" x="0px" y="0px" width="800" height="600" xmlns="http://www.w3.org/2000/svg" xmlns:xlink="http://www.w3.org/1999/xlink">
  <g id="14_JurorParrotf86r1" overflow="visible">
    <g id="JurorsBack">
      <path fill="#000" stroke="none" d="M-568.53,132.23 Q-570.53,132.91 -572.45,133.75 -589.85,140.63 -601.61,155.11 -613.97,170.31 -613.13,189.95 -612.33,209.15 -602.33,225.63 -597.13,234.23 -580.97,242.19 -572.65,246.27 -565.89,248.03 -559.65,249.63 -554.73,249.23 -552.05,249.03 -548.77,247.71 -540.49,244.39 -528.33,234.15 -521.41,228.31 -516.29,222.59 -511.09,216.79 -510.17,213.79 -506.53,202.15 -506.85,189.91 -507.41,170.31 -518.61,154.47 -523.69,147.35 -531.33,142.79 -548.17,132.71 -567.93,134.11 L-568.53,132.23 M-584.53,181.95 L-588.49,184.87 -584.53,181.95 M-547.89,172.99 L-551.89,175.91 -547.89,172.99 M-552.45,226.87 Q-553.57,226.67 -554.69,226.51 -553.57,226.67 -552.45,226.87 -540.93,228.47 -534.85,218.51 -540.93,228.47 -552.45,226.87 M-788.29,138.11 Q-796.85,140.31 -804.25,145.15 -811.53,149.87 -817.81,156.07 -824.21,162.47 -828.29,170.63 -832.41,178.99 -833.41,188.15 -834.41,197.27 -832.33,206.15 -830.25,215.23 -825.69,223.23 -821.13,231.19 -814.61,237.63 -807.85,244.27 -799.41,248.51 -794.77,250.91 -789.77,252.23 -785.97,253.19 -781.97,253.55 -779.49,253.47 -777.01,253.19 -770.21,252.39 -763.65,250.19 -754.65,247.19 -747.09,241.35 -739.57,235.47 -734.93,226.95 -730.65,219.07 -728.53,210.43 -726.41,201.79 -727.17,192.87 -727.97,183.51 -732.13,174.95 -736.09,166.75 -742.05,159.91 -747.85,153.27 -754.49,147.43 -761.61,141.27 -770.73,138.47 -779.41,135.71 -788.29,138.11 M-762.93,177.23 Q-760.89,178.55 -760.89,180.39 -760.89,178.55 -762.93,177.23 -765.01,175.91 -767.93,175.91 -765.01,175.91 -762.93,177.23 M-794.13,174.75 Q-792.25,175.87 -792.25,177.47 -792.25,175.87 -794.13,174.75 -796.01,173.63 -798.65,173.63 -796.01,173.63 -794.13,174.75 M-800.69,230.99 Q-800.81,231.11 -800.81,231.35 -800.81,231.11 -800.69,230.99 -797.25,227.79 -794.17,230.99 -797.25,227.79 -800.69,230.99 M-1012.29,141.71 L-1012.01,142.43 -1007.17,141.07 -1012.01,142.43 Q-1018.53,144.91 -1024.25,148.95 -1030.77,153.63 -1035.37,160.19 -1039.49,166.03 -1042.01,172.83 -1044.41,179.43 -1045.13,186.43 -1045.89,193.59 -1044.85,200.59 -1043.73,208.03 -1040.45,214.83 -1037.33,221.39 -1032.01,226.43 -1026.65,231.51 -1020.01,234.99 -1015.65,237.31 -1010.89,238.51 -1008.05,239.19 -1005.05,239.51 -998.21,240.51 -991.37,239.07 -990.81,238.95 -990.21,238.83 -983.69,237.27 -977.65,234.19 -971.21,230.79 -965.97,225.83 -960.69,220.75 -956.93,214.23 -953.33,208.11 -951.61,201.19 -949.89,194.35 -950.37,187.35 -950.89,180.03 -953.05,173.11 -955.17,166.31 -959.01,160.43 -962.85,154.51 -968.01,149.43 -973.49,144.11 -980.37,140.95 -987.41,137.71 -995.33,137.51 -1002.05,138.19 -1008.69,140.27 -1010.29,140.75 -1011.93,141.11 L-1012.29,141.71 M-999.17,174.03 L-993.73,174.67 -999.17,174.03 M-994.73,221.91 Q-992.77,220.51 -992.77,218.51 -992.77,220.51 -994.73,221.91 -996.69,223.31 -999.49,223.31 -996.69,223.31 -994.73,221.91 M-1019.01,179.91 L-1024.45,179.27 -1019.01,179.91 M-154.77,135.83 Q-163.17,137.71 -170.81,141.95 -179.09,146.59 -185.05,153.99 -190.65,160.95 -193.09,169.51 -195.65,178.31 -196.05,187.55 -196.45,196.55 -195.29,205.51 -194.17,214.39 -189.17,221.83 -184.01,229.51 -176.49,234.75 -169.21,239.87 -160.89,243.03 -152.05,246.31 -142.61,246.75 -133.61,247.51 -125.21,244.11 -116.41,240.63 -110.09,233.43 -103.73,226.23 -99.77,217.67 -95.81,209.07 -94.17,199.63 -92.61,190.63 -93.73,181.51 -94.89,171.99 -99.17,163.31 -103.41,154.83 -110.37,148.47 -116.29,143.03 -123.13,138.79 -129.65,134.71 -136.97,132.23 L-137.57,134.11 Q-146.29,134.07 -154.77,135.83 M-129.89,177.47 L-126.05,180.39 -129.89,177.47 M-161.57,180.39 L-157.73,183.31 -161.57,180.39 M-161.65,221.67 Q-160.97,221.51 -160.29,221.39 -160.97,221.51 -161.65,221.67 -166.89,223.15 -169.57,218.51 -166.89,223.15 -161.65,221.67 M-378.45,166.55 Q-382.41,174.47 -383.93,183.07 -385.49,191.79 -384.21,200.51 -382.85,209.87 -378.17,217.91 -373.53,225.87 -366.21,231.35 -358.61,236.95 -349.57,239.23 -347.89,239.63 -346.25,239.91 -340.37,240.83 -334.45,240.03 -332.77,239.75 -331.09,239.39 -322.01,237.43 -314.13,232.79 -306.01,228.15 -300.29,220.91 -294.53,213.63 -291.85,204.75 -289.25,196.27 -289.93,187.31 -290.61,178.59 -293.81,170.55 -297.29,161.95 -303.09,154.71 -308.73,147.71 -316.61,143.31 -324.37,138.99 -333.33,139.07 -342.65,139.15 -351.73,141.07 L-352.09,141.71 -351.81,142.43 -346.97,141.07 -351.81,142.43 Q-359.93,146.03 -366.85,151.83 -374.21,158.03 -378.45,166.55 M-358.81,179.91 L-364.25,179.27 -358.81,179.91 M-338.97,174.03 L-333.53,174.67 -338.97,174.03 M-339.29,223.31 Q-336.49,223.31 -334.53,221.91 -332.57,220.51 -332.57,218.51 -332.57,220.51 -334.53,221.91 -336.49,223.31 -339.29,223.31Z" test="JurorsBack" vector-effect="non-scaling-stroke" stroke-width="1"/>
      <path id="Layer3_0_1_STROKES" stroke="#FFF" stroke-width="1.6" stroke-linejoin="round" stroke-linecap="round" fill="none" d="M-351.81,142.43 Q-359.93,146.03 -366.85,151.83 -374.21,158.03 -378.45,166.55 -382.41,174.47 -383.93,183.07 -385.49,191.79 -384.21,200.51 -382.85,209.87 -378.17,217.91 -373.53,225.87 -366.21,231.35 -358.61,236.95 -349.57,239.23 -347.89,239.63 -346.25,239.91 -340.37,240.83 -334.45,240.03 -332.77,239.75 -331.09,239.39 -322.01,237.43 -314.13,232.79 -306.01,228.15 -300.29,220.91 -294.53,213.63 -291.85,204.75 -289.25,196.27 -289.93,187.31 -290.61,178.59 -293.81,170.55 -297.29,161.95 -303.09,154.71 -308.73,147.71 -316.61,143.31 -324.37,138.99 -333.33,139.07 -342.65,139.15 -351.73,141.07 L-352.09,141.71 M-346.97,141.07 L-351.81,142.43 M-358.81,179.91 L-364.25,179.27 M-338.97,174.03 L-333.53,174.67 M-339.29,223.31 Q-336.49,223.31 -334.53,221.91 -332.57,220.51 -332.57,218.51 M-137.57,134.11 Q-146.29,134.07 -154.77,135.83 -163.17,137.71 -170.81,141.95 -179.09,146.59 -185.05,153.99 -190.65,160.95 -193.09,169.51 -195.65,178.31 -196.05,187.55 -196.45,196.55 -195.29,205.51 -194.17,214.39 -189.17,221.83 -184.01,229.51 -176.49,234.75 -169.21,239.87 -160.89,243.03 -152.05,246.31 -142.61,246.75 -133.61,247.51 -125.21,244.11 -116.41,240.63 -110.09,233.43 -103.73,226.23 -99.77,217.67 -95.81,209.07 -94.17,199.63 -92.61,190.63 -93.73,181.51 -94.89,171.99 -99.17,163.31 -103.41,154.83 -110.37,148.47 -116.29,143.03 -123.13,138.79 -129.65,134.71 -136.97,132.23 L-145.57,130.75 M-129.89,177.47 L-126.05,180.39 M-161.57,180.39 L-157.73,183.31 M-169.57,218.51 Q-166.89,223.15 -161.65,221.67 -160.97,221.51 -160.29,221.39 M-139.93,251.67 Q-139.13,252.67 -138.29,253.71 -115.13,283.03 -103.61,319.99 -96.61,342.51 -89.57,364.91 M-199.97,366.63 Q-195.57,322.87 -173.61,285.87 -162.77,267.55 -148.13,253.71 -147.05,252.67 -145.97,251.67 M-386.45,372.11 Q-381.97,345.03 -374.41,319.07 -371.13,307.79 -368.01,296.39 -361.13,271.27 -350.97,248.95 -349.61,245.99 -348.13,243.23 M-332.45,243.23 Q-323.61,257.83 -317.33,275.31 -308.41,300.15 -300.49,325.91 -295.21,343.03 -290.01,360.23 M-1007.17,141.07 L-1012.01,142.43 Q-1018.53,144.91 -1024.25,148.95 -1030.77,153.63 -1035.37,160.19 -1039.49,166.03 -1042.01,172.83 -1044.41,179.43 -1045.13,186.43 -1045.89,193.59 -1044.85,200.59 -1043.73,208.03 -1040.45,214.83 -1037.33,221.39 -1032.01,226.43 -1026.65,231.51 -1020.01,234.99 -1015.65,237.31 -1010.89,238.51 -1008.05,239.19 -1005.05,239.51 -998.21,240.51 -991.37,239.07 -990.81,238.95 -990.21,238.83 -983.69,237.27 -977.65,234.19 -971.21,230.79 -965.97,225.83 -960.69,220.75 -956.93,214.23 -953.33,208.11 -951.61,201.19 -949.89,194.35 -950.37,187.35 -950.89,180.03 -953.05,173.11 -955.17,166.31 -959.01,160.43 -962.85,154.51 -968.01,149.43 -973.49,144.11 -980.37,140.95 -987.41,137.71 -995.33,137.51 -1002.05,138.19 -1008.69,140.27 -1010.29,140.75 -1011.93,141.11 L-1012.29,141.71 M-999.17,174.03 L-993.73,174.67 M-999.49,223.31 Q-996.69,223.31 -994.73,221.91 -992.77,220.51 -992.77,218.51 M-781.97,253.55 Q-779.49,253.47 -777.01,253.19 -770.21,252.39 -763.65,250.19 -754.65,247.19 -747.09,241.35 -739.57,235.47 -734.93,226.95 -730.65,219.07 -728.53,210.43 -726.41,201.79 -727.17,192.87 -727.97,183.51 -732.13,174.95 -736.09,166.75 -742.05,159.91 -747.85,153.27 -754.49,147.43 -761.61,141.27 -770.73,138.47 -779.41,135.71 -788.29,138.11 -796.85,140.31 -804.25,145.15 -811.53,149.87 -817.81,156.07 -824.21,162.47 -828.29,170.63 -832.41,178.99 -833.41,188.15 -834.41,197.27 -832.33,206.15 -830.25,215.23 -825.69,223.23 -821.13,231.19 -814.61,237.63 -807.85,244.27 -799.41,248.51 -794.77,250.91 -789.77,252.23 -785.97,253.19 -781.97,253.55Z M-767.93,175.91 Q-765.01,175.91 -762.93,177.23 -760.89,178.55 -760.89,180.39 M-798.65,173.63 Q-796.01,173.63 -794.13,174.75 -792.25,175.87 -792.25,177.47 M-567.93,134.11 Q-548.17,132.71 -531.33,142.79 -523.69,147.35 -518.61,154.47 -507.41,170.31 -506.85,189.91 -506.53,202.15 -510.17,213.79 -511.09,216.79 -516.29,222.59 -521.41,228.31 -528.33,234.15 -540.49,244.39 -548.77,247.71 -552.05,249.03 -554.73,249.23 -559.65,249.63 -565.89,248.03 -572.65,246.27 -580.97,242.19 -597.13,234.23 -602.33,225.63 -612.33,209.15 -613.13,189.95 -613.97,170.31 -601.61,155.11 -589.85,140.63 -572.45,133.75 -570.53,132.91 -568.53,132.23 M-584.53,181.95 L-588.49,184.87 M-547.89,172.99 L-551.89,175.91 M-534.85,218.51 Q-540.93,228.47 -552.45,226.87 -553.57,226.67 -554.69,226.51 M-1019.01,179.91 L-1024.45,179.27 M-1045.93,346.87 Q-1044.97,341.07 -1043.37,335.35 -1037.37,313.71 -1031.33,291.99 -1024.81,268.67 -1015.25,247.31 -1014.61,245.87 -1012.57,241.83 M-508.65,355.27 Q-511.77,328.99 -521.37,305.55 -530.77,282.47 -541.13,259.91 -543.17,255.51 -545.65,251.83 M-567.69,251.83 Q-570.57,258.59 -572.05,266.31 -573.93,276.07 -576.33,285.55 -581.97,307.75 -586.37,330.43 -588.77,342.95 -591.13,355.27 M-774.61,256.75 Q-770.09,263.67 -766.33,271.31 -757.17,289.99 -748.73,308.87 -741.21,325.71 -736.37,343.95 M-794.17,230.99 Q-797.25,227.79 -800.69,230.99 -800.81,231.11 -800.81,231.35 M-831.69,343.95 Q-829.73,337.71 -827.21,331.67 -818.09,310.11 -808.81,288.47 -802.01,272.55 -793.41,258.15 -793.01,257.43 -792.57,256.75 M-988.81,242.23 Q-981.33,253.07 -977.53,262.71 -968.65,285.23 -960.73,308.63 -955.45,324.11 -950.21,339.67" test="JurorsBack"/>
    </g>
    <g id="Tween-1">
      <g id="JurorsFront">
        <path fill="#000" stroke="none" d="M-731.424,275.215 Q-738.153,275.896 -744.801,277.979 -746.403,278.459 -748.045,278.82 L-748.405,279.42 -748.165,280.101 -743.279,278.78 -748.165,280.101 Q-754.653,282.624 -760.38,286.669 -766.908,291.355 -771.514,297.924 -775.639,303.771 -778.163,310.579 -780.566,317.188 -781.286,324.196 -782.047,331.365 -781.006,338.374 -779.885,345.823 -776.601,352.632 -773.477,359.2 -768.15,364.246 -762.783,369.333 -756.135,372.817 -751.765,375.139 -747.044,376.301 -744.156,377.041 -741.156,377.343 -734.308,378.344 -727.459,376.902 -726.89,376.781 -726.338,376.622 -719.768,375.113 -713.722,372.016 -707.274,368.612 -702.027,363.646 -696.741,358.559 -692.976,352.031 -689.372,345.903 -687.65,338.975 -685.927,332.126 -686.408,325.117 -686.929,317.788 -689.091,310.86 -691.214,304.051 -695.059,298.164 -698.904,292.236 -704.07,287.15 -709.557,281.823 -716.445,278.659 -723.494,275.415 -731.424,275.215 M-755.134,317.668 L-760.581,317.027 -755.134,317.668 M-735.269,311.781 L-729.822,312.422 -735.269,311.781 M-735.589,361.122 Q-732.786,361.122 -730.823,359.721 -728.861,358.319 -728.861,356.316 -728.861,358.319 -730.823,359.721 -732.786,361.122 -735.589,361.122 M-954.463,260.917 L-955.063,262.84 Q-992.991,260.757 -1008.009,295.16 -1016.5,314.664 -1011.774,335.33 -1005.486,362.885 -977.892,372.817 -973.287,374.409 -968.16,375.621 -965.834,376.159 -963.434,376.622 -962.426,376.808 -960.911,376.862 -959.418,376.854 -957.506,376.622 -956.174,376.465 -954.903,376.261 -923.881,371.234 -913.812,337.573 -903.319,302.489 -929.231,276.377 -939.965,265.643 -954.463,260.917 M-947.374,306.254 L-943.529,309.178 -947.374,306.254 M-979.093,309.178 L-975.249,312.101 -979.093,309.178 M-979.173,350.509 Q-978.493,350.349 -977.812,350.229 -978.493,350.349 -979.173,350.509 -984.46,351.991 -987.103,347.345 -984.46,351.991 -979.173,350.509 M-1130.322,356.917 Q-1125.116,337.453 -1133.606,319.31 -1140.335,304.932 -1150.948,293.158 -1161.561,281.423 -1177.141,279.701 -1198.047,279.941 -1177.261,280.021 -1196.605,282.544 -1212.345,293.959 -1229.286,306.214 -1233.331,326.599 -1237.336,346.825 -1229.086,365.528 -1221.396,383.07 -1205.536,393.883 -1198.418,398.687 -1190.277,399.931 -1187.413,400.371 -1184.43,400.371 -1182.038,400.691 -1179.744,400.772 -1162.89,401.351 -1149.867,389.278 -1135.409,375.941 -1130.322,356.917 M-1185.711,327 Q-1183.829,328.121 -1183.829,329.723 -1183.829,328.121 -1185.711,327 -1187.594,325.878 -1190.237,325.878 -1187.594,325.878 -1185.711,327 M-1163.484,327.841 Q-1161.401,329.162 -1161.401,331.005 -1161.401,329.162 -1163.484,327.841 -1165.526,326.519 -1168.45,326.519 -1165.526,326.519 -1163.484,327.841 M-1212.024,361.763 L-1192.8,368.171 -1212.024,361.763 M-235.405,271.811 L-236.006,269.888 Q-238.008,270.609 -239.931,271.45 -257.352,278.339 -269.127,292.837 -281.502,308.056 -280.661,327.721 -279.86,346.945 -269.848,363.445 -264.641,372.056 -248.461,380.026 -240.142,384.102 -233.402,385.833 -227.117,387.459 -222.188,387.075 -219.506,386.859 -216.221,385.553 -207.916,382.243 -195.755,371.976 -188.827,366.129 -183.7,360.402 -178.494,354.594 -177.573,351.59 -173.928,339.936 -174.249,327.681 -174.809,308.056 -186.023,292.196 -191.11,285.067 -198.759,280.502 -215.62,270.409 -235.405,271.811 M-252.026,319.711 L-255.991,322.634 -252.026,319.711 M-215.34,310.739 L-219.345,313.663 -215.34,310.739 M-219.906,364.687 Q-221.027,364.487 -222.148,364.326 -221.027,364.487 -219.906,364.687 -208.371,366.289 -202.284,356.316 -208.371,366.289 -219.906,364.687 M-455.48,276.176 Q-464.171,273.413 -473.062,275.816 -481.632,278.019 -489.042,282.865 -496.331,287.591 -502.619,293.798 -509.027,300.206 -513.112,308.377 -517.237,316.747 -518.238,325.918 -519.239,335.05 -517.157,343.941 -515.074,353.032 -510.508,361.042 -505.943,369.012 -499.415,375.46 -492.646,382.109 -484.196,386.354 -479.533,388.753 -474.584,390.039 -470.739,391.052 -466.734,391.4 -464.239,391.304 -461.768,391 -454.974,390.24 -448.391,388.036 -439.38,385.032 -431.81,379.185 -424.281,373.298 -419.635,364.767 -415.35,356.877 -413.227,348.226 -411.104,339.576 -411.865,330.644 -412.666,321.273 -416.831,312.702 -420.796,304.492 -426.764,297.643 -432.571,290.995 -439.219,285.148 -446.348,278.98 -455.48,276.176 M-447.71,314.985 Q-445.627,316.306 -445.627,318.149 -445.627,316.306 -447.71,314.985 -449.753,313.663 -452.676,313.663 -449.753,313.663 -447.71,314.985 M-478.909,312.502 Q-477.027,313.623 -477.027,315.225 -477.027,313.623 -478.909,312.502 -480.791,311.38 -483.435,311.38 -480.791,311.38 -478.909,312.502 M-485.477,368.812 Q-485.597,368.932 -485.597,369.172 -485.597,368.932 -485.477,368.812 -482.033,365.608 -478.949,368.812 -482.033,365.608 -485.477,368.812 M-34.074,289.553 Q-41.443,295.761 -45.688,304.291 -49.653,312.221 -51.175,320.832 -52.737,329.563 -51.455,338.294 -50.094,347.666 -45.408,355.716 -40.762,363.686 -33.433,369.172 -25.823,374.779 -16.772,377.062 -15.109,377.467 -13.448,377.703 -7.569,378.659 -1.673,377.823 .034,377.602 1.731,377.222 10.822,375.26 18.712,370.614 26.842,365.968 32.57,358.719 38.337,351.43 41.02,342.539 43.623,334.049 42.943,325.077 42.262,316.347 39.058,308.296 35.573,299.686 29.766,292.437 24.119,285.428 16.229,281.022 8.46,276.697 -.512,276.777 -9.843,276.857 -18.935,278.78 L-19.295,279.42 -19.015,280.141 -14.169,278.78 -19.015,280.141 Q-27.145,283.746 -34.074,289.553 M-6.159,311.781 L-.712,312.422 -6.159,311.781 M-26.024,317.668 L-31.47,317.027 -26.024,317.668 M-6.479,361.122 Q-3.676,361.122 -1.713,359.721 .249,358.319 .249,356.316 .249,358.319 -1.713,359.721 -3.676,361.122 -6.479,361.122Z" test="JurorsFront" vector-effect="non-scaling-stroke" stroke-width="1"/>
        <path id="Layer4_0_1_STROKES" stroke="#FFF" stroke-width="1.602" stroke-linejoin="round" stroke-linecap="round" fill="none" d="M-19.015,280.141 Q-27.145,283.746 -34.074,289.553 -41.443,295.761 -45.688,304.291 -49.653,312.221 -51.175,320.832 -52.737,329.563 -51.455,338.294 -50.094,347.666 -45.408,355.716 -40.762,363.686 -33.433,369.172 -25.823,374.779 -16.772,377.062 -15.109,377.467 -13.448,377.723 -7.569,378.659 -1.653,377.843 .034,377.602 1.731,377.222 10.822,375.26 18.712,370.614 26.842,365.968 32.57,358.719 38.337,351.43 41.02,342.539 43.623,334.049 42.943,325.077 42.262,316.347 39.058,308.296 35.573,299.686 29.766,292.437 24.119,285.428 16.229,281.022 8.46,276.697 -.512,276.777 -9.843,276.857 -18.935,278.78 L-19.295,279.42 M-14.169,278.78 L-19.015,280.141 M-6.159,311.781 L-.712,312.422 M-26.024,317.668 L-31.47,317.027 M-466.734,391.4 Q-464.239,391.304 -461.768,391.02 -454.974,390.24 -448.391,388.036 -439.38,385.032 -431.81,379.185 -424.281,373.298 -419.635,364.767 -415.35,356.877 -413.227,348.226 -411.104,339.576 -411.865,330.644 -412.666,321.273 -416.831,312.702 -420.796,304.492 -426.764,297.643 -432.571,290.995 -439.219,285.148 -446.348,278.98 -455.48,276.176 -464.171,273.413 -473.062,275.816 -481.632,278.019 -489.042,282.865 -496.331,287.591 -502.619,293.798 -509.027,300.206 -513.112,308.377 -517.237,316.747 -518.238,325.918 -519.239,335.05 -517.157,343.941 -515.074,353.032 -510.508,361.042 -505.943,369.012 -499.415,375.46 -492.646,382.109 -484.196,386.354 -479.533,388.753 -474.564,390.059 -470.739,391.052 -466.734,391.4Z M-452.676,313.663 Q-449.753,313.663 -447.69,314.985 -445.627,316.306 -445.627,318.149 M-483.435,311.38 Q-480.791,311.38 -478.909,312.502 -477.027,313.623 -477.027,315.225 M-235.405,271.811 Q-215.62,270.409 -198.759,280.502 -191.11,285.067 -186.023,292.196 -174.809,308.056 -174.249,327.681 -173.928,339.936 -177.573,351.59 -178.494,354.594 -183.7,360.402 -188.827,366.129 -195.755,371.976 -207.916,382.243 -216.221,385.553 -219.506,386.859 -222.188,387.075 -227.117,387.459 -233.382,385.853 -240.142,384.102 -248.461,380.026 -264.641,372.056 -269.848,363.445 -279.86,346.945 -280.661,327.721 -281.502,308.056 -269.127,292.837 -257.352,278.339 -239.931,271.45 -238.008,270.609 -236.006,269.909 M-252.026,319.711 L-255.991,322.634 M-215.34,310.739 L-219.345,313.663 M-202.284,356.316 Q-208.371,366.289 -219.906,364.687 -221.027,364.487 -222.148,364.326 M-176.051,493.247 Q-179.175,466.935 -188.787,443.465 -198.198,420.356 -208.571,397.768 -210.613,393.363 -213.097,389.678 M-235.165,389.678 Q-238.035,396.441 -239.53,404.176 -241.412,413.948 -243.815,423.44 -249.462,445.668 -253.868,468.376 -256.271,480.912 -258.634,493.247 M-516.516,481.913 Q-514.553,475.665 -512.03,469.618 -502.899,448.031 -493.607,426.364 -486.784,410.41 -478.208,396.006 -477.792,395.303 -477.367,394.604 M-459.365,394.604 Q-454.845,401.552 -451.074,409.182 -441.903,427.886 -433.452,446.789 -425.923,463.65 -421.077,481.913 M-478.949,368.812 Q-482.033,365.608 -485.477,368.812 -485.597,368.932 -485.597,369.172 M-6.479,361.122 Q-3.676,361.122 -1.713,359.721 .249,358.319 .249,356.316 M-53.698,510.108 Q-49.212,482.995 -41.643,457.002 -38.359,445.708 -35.235,434.294 -28.346,409.142 -18.174,386.794 -16.815,383.838 -15.33,381.067 M0.369,381.067 Q9.235,395.68 15.508,413.187 24.439,438.058 32.369,463.851 37.656,480.992 42.862,498.214 M-1190.237,325.878 Q-1187.594,325.878 -1185.711,327 -1183.829,328.121 -1183.829,329.723 M-1168.45,326.519 Q-1165.526,326.519 -1163.464,327.841 -1161.401,329.162 -1161.401,331.005 M-1177.261,280.021 Q-1196.605,282.544 -1212.345,293.959 -1229.286,306.214 -1233.331,326.599 -1237.336,346.825 -1229.086,365.528 -1221.396,383.07 -1205.536,393.883 -1198.418,398.687 -1190.277,399.931 -1187.413,400.371 -1184.43,400.371 -1182.038,400.691 -1179.724,400.772 -1162.89,401.351 -1149.867,389.278 -1135.409,375.941 -1130.322,356.917 -1125.116,337.453 -1133.606,319.31 -1140.335,304.932 -1150.948,293.158 -1161.561,281.423 -1177.121,279.701 M-954.463,260.937 L-963.073,259.476 M-955.063,262.84 Q-992.991,260.757 -1008.009,295.16 -1016.5,314.664 -1011.774,335.33 -1005.486,362.885 -977.892,372.817 -973.287,374.409 -968.16,375.621 -965.834,376.159 -963.414,376.622 -962.426,376.808 -960.911,376.862 -959.418,376.854 -957.486,376.622 -956.174,376.465 -954.903,376.261 -923.881,371.234 -913.812,337.573 -903.319,302.489 -929.231,276.377 -939.965,265.643 -954.463,260.937 M-947.374,306.254 L-943.529,309.178 M-979.093,309.178 L-975.249,312.101 M-987.103,347.345 Q-984.46,351.991 -979.173,350.509 -978.493,350.349 -977.812,350.229 M-748.145,280.121 Q-754.653,282.624 -760.38,286.669 -766.908,291.355 -771.514,297.924 -775.639,303.771 -778.163,310.579 -780.566,317.188 -781.286,324.196 -782.047,331.365 -781.006,338.374 -779.885,345.823 -776.601,352.632 -773.477,359.2 -768.15,364.246 -762.783,369.333 -756.135,372.817 -751.765,375.139 -747.024,376.321 -744.156,377.041 -741.156,377.343 -734.308,378.344 -727.459,376.902 -726.89,376.781 -726.318,376.642 -719.768,375.113 -713.722,372.016 -707.274,368.612 -702.027,363.646 -696.741,358.559 -692.976,352.031 -689.372,345.903 -687.65,338.975 -685.927,332.126 -686.408,325.117 -686.929,317.788 -689.091,310.86 -691.214,304.051 -695.059,298.164 -698.904,292.236 -704.07,287.15 -709.557,281.823 -716.445,278.659 -723.494,275.415 -731.424,275.215 -738.153,275.896 -744.801,277.979 -746.403,278.459 -748.045,278.82 L-748.405,279.42 M-743.279,278.78 L-748.145,280.121 M-755.134,317.668 L-760.581,317.027 M-735.269,311.781 L-729.822,312.422 M-1233.771,490.924 Q-1225.801,471.741 -1216.95,452.997 -1208.74,435.615 -1200.209,418.674 -1197.365,413.007 -1193.121,405.137 M-735.589,361.122 Q-732.786,361.122 -730.823,359.721 -728.861,358.319 -728.861,356.316 M-724.896,380.066 Q-717.42,390.937 -713.602,400.572 -704.711,423.12 -696.781,446.549 -691.494,462.048 -686.248,477.628 M-782.087,484.837 Q-781.126,479.03 -779.524,473.302 -773.517,451.635 -767.469,429.888 -760.941,406.539 -751.369,385.152 -750.715,383.695 -748.686,379.666 M-952.28,380.226 Q-930.918,412.903 -921.261,446.589 -915.174,467.936 -908.726,488.962 M-1017.221,488.962 Q-1009.732,444.987 -987.864,407.54 -980.402,394.713 -971.123,380.226 M-1177.541,405.137 Q-1172.697,414.792 -1168.77,422.319 -1159.559,439.901 -1151.268,457.923 -1143.859,473.983 -1138.733,490.924 M-1212.024,361.763 L-1192.8,368.171" test="JurorsFront"/>
      </g>
    </g>
    <g id="Parrot">
      <path id="Layer2_0_1_STROKES" stroke="#FFF" stroke-width="2" stroke-linejoin="round" stroke-linecap="round" fill="none" d="M436.85,249.55 Q440.55,250 443.85,252.95 447.85,256.5 446.35,262.15 444.85,267.8 442.05,270.65 439.25,273.45 435.65,273.35 432,273.25 429.4,271.15 426.75,269.05 426.1,265.5 425.5,262.1 426.35,258.95 427.15,256.1 428.2,254.4 429.2,252.65 431.3,251.55 433.35,250.4 436.85,249.55Z M437.25,261.3 Q436.75,260.65 436,260.55 435.2,260.45 435.15,260.45 434.85,260.45 434.5,260.75 433.65,261.5 434.35,263 434.95,264.25 436.3,263.75 437.25,263.4 437.4,262.7 437.55,262.2 437.55,262 437.6,261.6 437.25,261.3Z M392.5,252.05 Q394.7,251.85 397.65,255.25 400.55,258.55 400.35,263.2 400.15,267.75 398.05,270.55 396,273.3 392.45,273.2 388.85,273.05 386.05,270.8 382.9,268.4 383.05,264.6 383.3,259.4 385.05,256.3 387.45,252 392.5,252.05Z M395.15,262.85 Q394.8,262.25 394.15,262.2 393.4,262.1 393.35,262.1 393.15,262.1 392.8,262.35 392.05,263.05 392.7,264.4 393.25,265.55 394.35,265.05 395.15,264.75 395.3,264.1 395.4,263.7 395.4,263.5 395.5,263.15 395.15,262.85Z" test="Parrot"/>
      <path id="Layer2_0_2_STROKES" stroke="#F00" stroke-width="2" stroke-linejoin="round" stroke-linecap="round" fill="none" d="M458.4,279.95 Q461.4,280.55 462.15,280.65 462.9,280.75 464.4,280.75 466.55,280.75 470.4,278.35 M452,305.55 L453.45,305.95 Q455.15,306.35 456.4,306.35 457.15,306.35 459.25,304.95 461.2,303.65 461.6,303.15 M494.4,328.85 Q485.55,319.25 482.65,306.6 480.2,295.8 481.7,280.15 483.05,266.35 476,253.45 468.2,239.2 455.45,233.7 442.7,228.15 432.85,227.2 423,226.2 413.6,229.65 404.15,233.1 397.25,240.05 390.4,246.9 390.15,248.45 M388.3,317.95 Q387.85,331 381.35,341.6 M420.8,306.35 Q423.05,308.85 424.5,311.6 424.7,311.95 427.2,311.95 428.5,311.95 430.25,311.45 430.6,311.35 433.6,310.35" test="Parrot"/>
      <path id="Layer2_0_3_STROKES" stroke="#0FF" stroke-width="2" stroke-linejoin="round" stroke-linecap="round" fill="none" d="M385.95,335 L385.3,338.9 Q386.2,339.35 387.3,339.45 388,339.55 389.5,339.55 393.65,339.55 396.75,336 399.9,332.4 402.2,332.4 403,332.4 407.4,333.05 411.75,333.7 412.6,333.7 417.55,333.7 418.55,331.45 419.5,329.15 423.3,329.15 424.15,329.15 427.25,329.8 430.4,330.45 431.2,330.45 431.75,330.45 433.7,328.5 435.6,326.55 438,326.55 438.85,326.55 442.1,327.2 445.35,327.85 446.15,327.85 447.05,327.85 449.55,326.55 450.8,325.9 452,325.25 452.15,325.25 455.15,326.55 458.5,327.85 460.1,327.85 462.15,327.85 464.8,326.9 466.1,326.4 467.25,325.9 469.25,325.9 479.3,328.2 487.65,330.1 491.4,330.4 492.15,330.45 492.7,330.45 M421.75,353.3 Q421.2,355.15 419.4,371.95 417.65,388.2 416.55,391.05 415,395.25 414.45,405.95 413.85,417.3 415.25,424.25 416.8,431.95 424.05,453 431.5,474.6 434.8,480.25 436.35,482.95 441.05,490.25 444.85,496.15 447.8,501.75 451.7,509.15 454.8,512.1 457.95,515.15 462.8,516.1 466.05,516.75 471.1,517.95 474.5,518.35 474.5,515.45 474.5,507.35 482.95,511.55 488.9,514.5 490.95,514.9 494.25,515.55 496,512.85 497.3,510.9 499.05,507.55 500.95,504.95 505.1,503.7 507.8,502.9 510.2,504.7 510.85,505.2 512.3,499.8 513.95,493.7 516.55,487 L518.8,481.55 Q519.45,477.65 521.4,468.55 523.1,460.55 522.3,450.45 521.3,438.25 516.85,428.85 516.6,428.35 505.45,406.3 498.35,392.2 496,385.2 494.25,379.95 490.9,372.6 488.55,367.5 488.2,364.35 M523.85,384.85 Q523.25,384.5 522.35,384.5 522.2,384.5 514.55,387.1 512.9,386.2 510.9,385.15 510.55,387.05 509.2,388.5 508.05,389.7 507.3,389.7 505.65,389.7 504.3,388.5 503.2,387.55 503.1,387.75 502.25,388.65 501,389.25 499.55,389.9 498.55,389.7 M495.95,333.7 Q523,359.55 523.3,384.5 L523.95,384.5 M381.35,341.6 Q376.9,353.5 373.25,365.8 369.6,378.05 366.55,390.5 364.6,398.4 362.2,406.2 358.35,418.65 357.4,431.6 357.2,434.65 357.4,437.6 358.15,450.45 356.1,463.35 355.45,467.65 353.55,471.55 352.15,474.4 350.8,477.2 349.05,474.85 348.55,471.75 344.6,447.35 346.45,422.9 346.75,419 347.45,415.1 348.65,408.65 349.7,402.2 350.7,396.25 352.9,390.6 357.45,378.85 362.3,367.3 368.7,352.25 381.35,341.6Z M368.3,402.1 Q370.9,404.55 373.95,405.15 374.85,405.35 378.15,405.35 380,405.35 380.85,403.75 381.7,402.1 384.65,402.1 386.6,402.1 390.9,402.5 394.75,402.75 397,402.1 402.55,400.55 407.6,400.2 408.95,400.1 413.25,400.1" test="Parrot"/>
      <path id="Layer2_0_4_STROKES" stroke="#0F0" stroke-width="2" stroke-linejoin="round" stroke-linecap="round" fill="none" d="M527.7,411.1 Q528.5,409.85 528.5,407.65 528.5,406.1 526.35,396.5 524.1,386.75 523.3,385.15" test="Parrot"/>
      <path id="Layer2_0_5_STROKES" stroke="#FF0" stroke-width="2" stroke-linejoin="round" stroke-linecap="round" fill="none" d="M524.6,444.35 L530.45,444.35 Q530.15,442.95 531.2,439.15 532.4,435 532.4,433.95 532.4,427.65 530.5,419.6 528.9,412.8 527.7,411.1 M388.6,279 Q378.1,284.35 377,294.05 376.5,298.5 376.2,303.05 391.75,305.7 397.85,301.35 399.9,294.45 396.8,289.2 393.65,283.9 392.15,282.45 390.65,280.95 388.6,279Z M382.05,304.35 Q380,314.75 390.9,315.45 392.9,315.3 394.55,314.5 398.55,311.6 397,302.95 M361.15,458.75 Q363.9,461.1 365.05,462.45 365.35,462.65 368.6,462.65 371.2,462.65 379.8,459.4 386.75,456.8 388.8,456.3 389.05,456.2 389.2,456.2 389.25,457.15 393.8,457.4 394.75,457.45 399.6,457.45 401.5,457.45 405.45,456.5 409.4,455.5 410.95,455.5 413.35,455.5 413.55,455.45 414.8,455.05 415.2,452.8 423,454.6 421.05,454.1 M388.8,456.3 Q388.55,456.4 388.75,456.75 389.2,457.45 389.2,456.2 M374.8,503.05 Q370.85,506.1 369.95,508.6 369.6,509.65 369.6,513.75 369.6,519.15 372.75,520.9 375.15,522.2 384.65,523.2 384.65,521.6 384.35,520.25 386.35,521 389.2,521.9 L392.45,521.9 Q391.15,520.2 390.1,518.8 392.35,519.6 394.4,520.6 L398.95,520.6 398.95,517.35 Q395.35,514.15 394.2,508.45 393.6,502.9 393.1,501.75 392.45,501.75 391.15,501.1 M406.75,503.7 Q405.9,513.9 407.65,516.9 409.15,519.5 415.2,519.95 L415.2,516.05 Q414.65,514.95 414.1,512.05 414.25,512.25 414.35,512.5 417.2,518.25 422.35,519.3 L422.35,514.15 Q423,515.2 423.8,516.2 426.4,519.3 429.5,519.95 L430.2,519.95 Q430.55,517.85 429.45,514.1 428.2,509.95 428.2,508.25 428.2,504.8 430.85,503.05 M443.2,508.9 Q442.4,521.7 451.65,545.3 455.6,555.4 459.5,561.85 463.7,568.75 466.3,568.75 470,568.75 470.9,568.35 473.95,567 474.4,561.6 476.75,562.75 482.85,563.55 488.2,563.55 489.95,558.05 491.05,554.65 491.25,554.25 492.2,552.5 494,552.5 494.7,552.5 501.8,555.1 502.9,555.1 504.75,551.85 506.75,548.35 508.3,547.95 512,546.9 517.2,546.15 520.9,545.2 522.65,541.45 523.7,541.45 525.5,541.8 527.3,542.1 527.85,542.1 L527.85,520.6 Q525.25,511.7 522.5,499.55 520.4,490.35 518.75,486.15" test="Parrot"/>
      <path id="Layer2_0_6_STROKES" stroke="#F0F" stroke-width="2" stroke-linejoin="round" stroke-linecap="round" fill="none" d="M350.8,477.2 L351.8,486.3 Q353.4,496.15 356.65,499.8 358.3,501.65 359.25,503.95 359.8,505.2 360.4,507.1 360.9,508.45 361.75,508.6 362.8,508.75 365.1,507.6 368.15,506.1 370.7,503.15 372.45,501.1 374.85,501.1 377.15,501.1 382.95,502 388.1,502.45 390.5,500.45 392.85,498.5 397.6,499.65 400.3,500.3 406.15,501.75 409.1,502.1 413.45,502.95 416.95,503.35 419.8,501.75 422.75,500.1 425.75,500.2 427.65,500.3 432.2,501.1 434.8,501.45 437.65,502.5 439.45,502.85 440.65,500.45 M523.95,486.15 Q526.3,474.15 527.65,465.85 528.75,459.35 530.45,446.95 M485.55,631.3 Q488.35,639.4 489.1,640.6 490.2,642.35 493,642.35 494.05,642.35 494.35,642.25 495.75,641.6 497.25,639.1 515.95,657.95 517.15,657.95 524.65,657.95 527.85,645 529.8,637.2 529.8,627.75 529.8,621.8 528.5,616.15 527.65,612.45 525.9,607.85" test="Parrot"/>
      <path id="Layer2_0_7_STROKES" stroke="#F60" stroke-width="2" stroke-linejoin="round" stroke-linecap="round" fill="none" d="M467.9,573.3 Q467.4,572.5 466.85,571.7 465.7,570.05 465.3,570.05 L465.3,573.3 Q466.55,580.9 474.9,603.35 484.75,630 489.75,630 491.9,630 496.8,625.8 501.35,621.55 501.45,621.55 502.3,621.55 504.7,622.2 507.15,622.85 507.95,622.85 510.4,622.85 512.8,617.95 514.45,614.55 514.85,612.4 520.5,612.4 523.35,609.5 526.2,606.55 529.15,606.55 529.15,604.3 529.5,599.3 529.8,594.3 529.8,593.8 529.8,589.25 526.9,579.15 523.6,567.75 523.3,565.5 522.8,562 523,555.95 523.3,549.6 523.3,547.3 L522.65,547.3" test="Parrot"/>
    </g>
    <g id="JuryBoxFront">
      <path fill="#000" stroke="none" d="M-2053.1,514.35 L-2075.4,488.3 -2077.25,617.25 Q-2069.072,617.251 -2057.6,617.25 L-2053.1,514.35 M888.95,500.95 L887.6,500.95 869.75,518.5 869.75,613 Q880.234,613.017 888.95,613 L888.95,500.95 M717.5,512.95 Q643,514.65 568.65,518.9 493.2,522.55 417.7,523 340.3,523.45 262.9,523.35 187.4,523.25 111.9,523 32.1,522.75 -47.7,521.8 -126.4,520.9 -205.05,519.6 -283.15,518.35 -361.25,520.35 -438.55,522.3 -515.9,526.5 -591.15,529.75 -666.55,528.6 -745.95,527.35 -825.3,522.45 -899.25,517.5 -973.5,516.45 -1047.4,515.45 -1121.35,516.1 -1200.7,516.8 -1280.05,518 -1359.7,519.25 -1439.3,520.45 -1518.35,521.65 -1597.5,522.95 -1674.5,524.25 -1751.55,524.85 -1828.3,525.45 -1905.25,523.95 -1979.4,522.5 -2053.1,514.35 L-2057.6,617.25 Q-1851.642,617.16 -582.8,615.15 625.073,613.195 869.75,613 L869.75,518.5 Q793.8,511.25 717.5,512.95 M549.8,502.85 Q544.594,503.094 539.4,503.3 463.45,505.8 387.5,505.8 364.486,505.8 341.45,505.8 285.921,505.815 230.35,505.85 222.112,505.856 213.85,505.85 142.557,505.781 71.2,504.75 48.325,504.422 25.45,503.75 2.568,503.598 -20.35,503.4 -37.498,503.302 -54.7,503.15 -71.864,502.697 -89.05,502.45 -168.75,501.35 -248.5,500.55 -310.537,499.94 -372.55,502.65 -381.644,503.077 -390.75,503.55 -465.8,507 -540.7,510.95 L-700.75,511.75 Q-781.05,507.9 -861.25,502.95 -933.9,497.9 -1007,497.2 -1086.05,496.4 -1165,497.5 -1242.1,498.6 -1319.3,500.15 -1391.95,501.65 -1464.65,503.2 -1538.55,504.75 -1612.55,505.95 -1690.5,507.2 -1768.65,506.2 -1844.35,505.25 -1919.95,500.25 -1997.75,495.6 -2075.4,488.3 L-2053.1,514.35 Q-1979.4,522.5 -1905.25,523.95 -1828.3,525.45 -1751.55,524.85 -1674.5,524.25 -1597.5,522.95 -1518.35,521.65 -1439.3,520.45 -1359.7,519.25 -1280.05,518 -1200.7,516.8 -1121.35,516.1 -1047.4,515.45 -973.5,516.45 -899.25,517.5 -825.3,522.45 -745.95,527.35 -666.55,528.6 -591.15,529.75 -515.9,526.5 -438.55,522.3 -361.25,520.35 -283.15,518.35 -205.05,519.6 -126.4,520.9 -47.7,521.8 32.1,522.75 111.9,523 187.4,523.25 262.9,523.35 340.3,523.45 417.7,523 493.2,522.55 568.65,518.9 643,514.65 717.5,512.95 793.8,511.25 869.75,518.5 L887.6,500.95 887.65,500.15 Q869.262,498.494 850.85,496.85 836.752,495.536 822.65,494.6 762.685,490.798 702.5,494.4 626.231,499.691 549.8,502.85Z" test="JuryBoxFront"/>
      <path id="Layer1_0_1_STROKES" stroke="#F60" stroke-width="2" stroke-linejoin="round" stroke-linecap="round" fill="none" d="M887.675,500.175 Q869.262,498.494 850.85,496.85 836.752,495.536 822.65,494.625 762.685,490.798 702.5,494.4 626.231,499.691 549.8,502.875 544.594,503.094 539.4,503.3 463.45,505.8 387.5,505.8 364.486,505.8 341.475,505.8 285.921,505.815 230.35,505.85 222.112,505.856 213.875,505.85 142.557,505.781 71.2,504.75 48.325,504.422 25.45,503.775 2.568,503.598 -20.325,503.425 -37.498,503.302 -54.675,503.175 -71.864,502.697 -89.05,502.45 -168.75,501.35 -248.5,500.55 -310.537,499.94 -372.525,502.675 -381.644,503.077 -390.75,503.55 -465.8,507 -540.7,510.95 L-700.75,511.75 Q-781.05,507.9 -861.25,502.95 -933.9,497.9 -1007,497.2 -1086.05,496.4 -1165,497.5 -1242.1,498.6 -1319.3,500.15 -1391.95,501.65 -1464.65,503.2 -1538.55,504.75 -1612.55,505.95 -1690.5,507.2 -1768.65,506.2 -1844.35,505.25 -1919.95,500.25 -1997.75,495.6 -2075.4,488.3 L-2053.1,514.35 Q-1979.4,522.5 -1905.25,523.95 -1828.3,525.45 -1751.55,524.85 -1674.5,524.25 -1597.5,522.95 -1518.35,521.65 -1439.3,520.45 -1359.7,519.25 -1280.05,518 -1200.7,516.8 -1121.35,516.1 -1047.4,515.45 -973.5,516.45 -899.25,517.5 -825.3,522.45 -745.95,527.35 -666.55,528.6 -591.15,529.75 -515.9,526.5 -438.55,522.3 -361.25,520.35 -283.15,518.35 -205.05,519.6 -126.4,520.9 -47.7,521.8 32.1,522.75 111.9,523 187.4,523.25 262.9,523.35 340.3,523.45 417.7,523 493.2,522.55 568.65,518.9 643,514.65 717.5,512.95 793.8,511.25 869.75,518.5 L887.6,500.95 M887.675,500.175 Q888.312,500.242 888.95,500.3 L888.95,500.95 888.95,613 888.95,624.2 M869.75,624.2 L869.75,613.025 M-2057.6,617.25 L-2057.9,624.2 M869.75,613.025 L869.75,518.5 M-2077.35,624.2 L-2077.25,617.25 -2075.4,488.3 M-2053.1,514.35 L-2057.6,617.25" test="JuryBoxFront"/>
    </g>
  </g>
</svg>