<?xml version="1.0" encoding="utf-8"?>
<svg id="EdithAnim12" image-rendering="inherit" baseProfile="basic" version="1.1" x="0px" y="0px" width="800" height="600" xmlns="http://www.w3.org/2000/svg" xmlns:xlink="http://www.w3.org/1999/xlink">
  <g id="14_JurorParrotf88r1" overflow="visible">
    <g id="JurorsBack">
      <path fill="#000" stroke="none" d="M-590.33,132.23 Q-592.33,132.91 -594.25,133.75 -611.65,140.63 -623.41,155.11 -635.77,170.31 -634.93,189.95 -634.13,209.15 -624.13,225.63 -618.93,234.23 -602.77,242.19 -594.45,246.27 -587.69,248.03 -581.45,249.63 -576.53,249.23 -573.85,249.03 -570.57,247.71 -562.29,244.39 -550.13,234.15 -543.21,228.31 -538.09,222.59 -532.89,216.79 -531.97,213.79 -528.33,202.15 -528.65,189.91 -529.21,170.31 -540.41,154.47 -545.49,147.35 -553.13,142.79 -569.97,132.71 -589.73,134.11 L-590.33,132.23 M-606.33,181.95 L-610.29,184.87 -606.33,181.95 M-569.69,172.99 L-573.69,175.91 -569.69,172.99 M-574.25,226.87 Q-575.37,226.67 -576.49,226.51 -575.37,226.67 -574.25,226.87 -562.73,228.47 -556.65,218.51 -562.73,228.47 -574.25,226.87 M-810.09,138.11 Q-818.65,140.31 -826.05,145.15 -833.33,149.87 -839.61,156.07 -846.01,162.47 -850.09,170.63 -854.21,178.99 -855.21,188.15 -856.21,197.27 -854.13,206.15 -852.05,215.23 -847.49,223.23 -842.93,231.19 -836.41,237.63 -829.65,244.27 -821.21,248.51 -816.57,250.91 -811.57,252.23 -807.77,253.19 -803.77,253.55 -801.29,253.47 -798.81,253.19 -792.01,252.39 -785.45,250.19 -776.45,247.19 -768.89,241.35 -761.37,235.47 -756.73,226.95 -752.45,219.07 -750.33,210.43 -748.21,201.79 -748.97,192.87 -749.77,183.51 -753.93,174.95 -757.89,166.75 -763.85,159.91 -769.65,153.27 -776.29,147.43 -783.41,141.27 -792.53,138.47 -801.21,135.71 -810.09,138.11 M-784.73,177.23 Q-782.69,178.55 -782.69,180.39 -782.69,178.55 -784.73,177.23 -786.81,175.91 -789.73,175.91 -786.81,175.91 -784.73,177.23 M-815.93,174.75 Q-814.05,175.87 -814.05,177.47 -814.05,175.87 -815.93,174.75 -817.81,173.63 -820.45,173.63 -817.81,173.63 -815.93,174.75 M-822.49,230.99 Q-822.61,231.11 -822.61,231.35 -822.61,231.11 -822.49,230.99 -819.05,227.79 -815.97,230.99 -819.05,227.79 -822.49,230.99 M-1034.09,141.71 L-1033.81,142.43 -1028.97,141.07 -1033.81,142.43 Q-1040.33,144.91 -1046.05,148.95 -1052.57,153.63 -1057.17,160.19 -1061.29,166.03 -1063.81,172.83 -1066.21,179.43 -1066.93,186.43 -1067.69,193.59 -1066.65,200.59 -1065.53,208.03 -1062.25,214.83 -1059.13,221.39 -1053.81,226.43 -1048.45,231.51 -1041.81,234.99 -1037.45,237.31 -1032.69,238.51 -1029.85,239.19 -1026.85,239.51 -1020.01,240.51 -1013.17,239.07 -1012.61,238.95 -1012.01,238.83 -1005.49,237.27 -999.45,234.19 -993.01,230.79 -987.77,225.83 -982.49,220.75 -978.73,214.23 -975.13,208.11 -973.41,201.19 -971.69,194.35 -972.17,187.35 -972.69,180.03 -974.85,173.11 -976.97,166.31 -980.81,160.43 -984.65,154.51 -989.81,149.43 -995.29,144.11 -1002.17,140.95 -1009.21,137.71 -1017.13,137.51 -1023.85,138.19 -1030.49,140.27 -1032.09,140.75 -1033.73,141.11 L-1034.09,141.71 M-1020.97,174.03 L-1015.53,174.67 -1020.97,174.03 M-1016.53,221.91 Q-1014.57,220.51 -1014.57,218.51 -1014.57,220.51 -1016.53,221.91 -1018.49,223.31 -1021.29,223.31 -1018.49,223.31 -1016.53,221.91 M-1040.81,179.91 L-1046.25,179.27 -1040.81,179.91 M-176.57,135.83 Q-184.97,137.71 -192.61,141.95 -200.89,146.59 -206.85,153.99 -212.45,160.95 -214.89,169.51 -217.45,178.31 -217.85,187.55 -218.25,196.55 -217.09,205.51 -215.97,214.39 -210.97,221.83 -205.81,229.51 -198.29,234.75 -191.01,239.87 -182.69,243.03 -173.85,246.31 -164.41,246.75 -155.41,247.51 -147.01,244.11 -138.21,240.63 -131.89,233.43 -125.53,226.23 -121.57,217.67 -117.61,209.07 -115.97,199.63 -114.41,190.63 -115.53,181.51 -116.69,171.99 -120.97,163.31 -125.21,154.83 -132.17,148.47 -138.09,143.03 -144.93,138.79 -151.45,134.71 -158.77,132.23 L-159.37,134.11 Q-168.09,134.07 -176.57,135.83 M-151.69,177.47 L-147.85,180.39 -151.69,177.47 M-183.37,180.39 L-179.53,183.31 -183.37,180.39 M-183.45,221.67 Q-182.77,221.51 -182.09,221.39 -182.77,221.51 -183.45,221.67 -188.69,223.15 -191.37,218.51 -188.69,223.15 -183.45,221.67 M-400.25,166.55 Q-404.21,174.47 -405.73,183.07 -407.29,191.79 -406.01,200.51 -404.65,209.87 -399.97,217.91 -395.33,225.87 -388.01,231.35 -380.41,236.95 -371.37,239.23 -369.69,239.63 -368.05,239.91 -362.17,240.83 -356.25,240.03 -354.57,239.75 -352.89,239.39 -343.81,237.43 -335.93,232.79 -327.81,228.15 -322.09,220.91 -316.33,213.63 -313.65,204.75 -311.05,196.27 -311.73,187.31 -312.41,178.59 -315.61,170.55 -319.09,161.95 -324.89,154.71 -330.53,147.71 -338.41,143.31 -346.17,138.99 -355.13,139.07 -364.45,139.15 -373.53,141.07 L-373.89,141.71 -373.61,142.43 -368.77,141.07 -373.61,142.43 Q-381.73,146.03 -388.65,151.83 -396.01,158.03 -400.25,166.55 M-380.61,179.91 L-386.05,179.27 -380.61,179.91 M-360.77,174.03 L-355.33,174.67 -360.77,174.03 M-361.09,223.31 Q-358.29,223.31 -356.33,221.91 -354.37,220.51 -354.37,218.51 -354.37,220.51 -356.33,221.91 -358.29,223.31 -361.09,223.31Z" test="JurorsBack" vector-effect="non-scaling-stroke" stroke-width="1"/>
      <path id="Layer3_0_1_STROKES" stroke="#FFF" stroke-width="1.6" stroke-linejoin="round" stroke-linecap="round" fill="none" d="M-373.61,142.43 Q-381.73,146.03 -388.65,151.83 -396.01,158.03 -400.25,166.55 -404.21,174.47 -405.73,183.07 -407.29,191.79 -406.01,200.51 -404.65,209.87 -399.97,217.91 -395.33,225.87 -388.01,231.35 -380.41,236.95 -371.37,239.23 -369.69,239.63 -368.05,239.91 -362.17,240.83 -356.25,240.03 -354.57,239.75 -352.89,239.39 -343.81,237.43 -335.93,232.79 -327.81,228.15 -322.09,220.91 -316.33,213.63 -313.65,204.75 -311.05,196.27 -311.73,187.31 -312.41,178.59 -315.61,170.55 -319.09,161.95 -324.89,154.71 -330.53,147.71 -338.41,143.31 -346.17,138.99 -355.13,139.07 -364.45,139.15 -373.53,141.07 L-373.89,141.71 M-368.77,141.07 L-373.61,142.43 M-380.61,179.91 L-386.05,179.27 M-360.77,174.03 L-355.33,174.67 M-361.09,223.31 Q-358.29,223.31 -356.33,221.91 -354.37,220.51 -354.37,218.51 M-159.37,134.11 Q-168.09,134.07 -176.57,135.83 -184.97,137.71 -192.61,141.95 -200.89,146.59 -206.85,153.99 -212.45,160.95 -214.89,169.51 -217.45,178.31 -217.85,187.55 -218.25,196.55 -217.09,205.51 -215.97,214.39 -210.97,221.83 -205.81,229.51 -198.29,234.75 -191.01,239.87 -182.69,243.03 -173.85,246.31 -164.41,246.75 -155.41,247.51 -147.01,244.11 -138.21,240.63 -131.89,233.43 -125.53,226.23 -121.57,217.67 -117.61,209.07 -115.97,199.63 -114.41,190.63 -115.53,181.51 -116.69,171.99 -120.97,163.31 -125.21,154.83 -132.17,148.47 -138.09,143.03 -144.93,138.79 -151.45,134.71 -158.77,132.23 L-167.37,130.75 M-151.69,177.47 L-147.85,180.39 M-183.37,180.39 L-179.53,183.31 M-191.37,218.51 Q-188.69,223.15 -183.45,221.67 -182.77,221.51 -182.09,221.39 M-161.73,251.67 Q-160.93,252.67 -160.09,253.71 -136.93,283.03 -125.41,319.99 -118.41,342.51 -111.37,364.91 M-221.77,366.63 Q-217.37,322.87 -195.41,285.87 -184.57,267.55 -169.93,253.71 -168.85,252.67 -167.77,251.67 M-408.25,372.11 Q-403.77,345.03 -396.21,319.07 -392.93,307.79 -389.81,296.39 -382.93,271.27 -372.77,248.95 -371.41,245.99 -369.93,243.23 M-354.25,243.23 Q-345.41,257.83 -339.13,275.31 -330.21,300.15 -322.29,325.91 -317.01,343.03 -311.81,360.23 M-1028.97,141.07 L-1033.81,142.43 Q-1040.33,144.91 -1046.05,148.95 -1052.57,153.63 -1057.17,160.19 -1061.29,166.03 -1063.81,172.83 -1066.21,179.43 -1066.93,186.43 -1067.69,193.59 -1066.65,200.59 -1065.53,208.03 -1062.25,214.83 -1059.13,221.39 -1053.81,226.43 -1048.45,231.51 -1041.81,234.99 -1037.45,237.31 -1032.69,238.51 -1029.85,239.19 -1026.85,239.51 -1020.01,240.51 -1013.17,239.07 -1012.61,238.95 -1012.01,238.83 -1005.49,237.27 -999.45,234.19 -993.01,230.79 -987.77,225.83 -982.49,220.75 -978.73,214.23 -975.13,208.11 -973.41,201.19 -971.69,194.35 -972.17,187.35 -972.69,180.03 -974.85,173.11 -976.97,166.31 -980.81,160.43 -984.65,154.51 -989.81,149.43 -995.29,144.11 -1002.17,140.95 -1009.21,137.71 -1017.13,137.51 -1023.85,138.19 -1030.49,140.27 -1032.09,140.75 -1033.73,141.11 L-1034.09,141.71 M-1020.97,174.03 L-1015.53,174.67 M-1021.29,223.31 Q-1018.49,223.31 -1016.53,221.91 -1014.57,220.51 -1014.57,218.51 M-803.77,253.55 Q-801.29,253.47 -798.81,253.19 -792.01,252.39 -785.45,250.19 -776.45,247.19 -768.89,241.35 -761.37,235.47 -756.73,226.95 -752.45,219.07 -750.33,210.43 -748.21,201.79 -748.97,192.87 -749.77,183.51 -753.93,174.95 -757.89,166.75 -763.85,159.91 -769.65,153.27 -776.29,147.43 -783.41,141.27 -792.53,138.47 -801.21,135.71 -810.09,138.11 -818.65,140.31 -826.05,145.15 -833.33,149.87 -839.61,156.07 -846.01,162.47 -850.09,170.63 -854.21,178.99 -855.21,188.15 -856.21,197.27 -854.13,206.15 -852.05,215.23 -847.49,223.23 -842.93,231.19 -836.41,237.63 -829.65,244.27 -821.21,248.51 -816.57,250.91 -811.57,252.23 -807.77,253.19 -803.77,253.55Z M-789.73,175.91 Q-786.81,175.91 -784.73,177.23 -782.69,178.55 -782.69,180.39 M-820.45,173.63 Q-817.81,173.63 -815.93,174.75 -814.05,175.87 -814.05,177.47 M-589.73,134.11 Q-569.97,132.71 -553.13,142.79 -545.49,147.35 -540.41,154.47 -529.21,170.31 -528.65,189.91 -528.33,202.15 -531.97,213.79 -532.89,216.79 -538.09,222.59 -543.21,228.31 -550.13,234.15 -562.29,244.39 -570.57,247.71 -573.85,249.03 -576.53,249.23 -581.45,249.63 -587.69,248.03 -594.45,246.27 -602.77,242.19 -618.93,234.23 -624.13,225.63 -634.13,209.15 -634.93,189.95 -635.77,170.31 -623.41,155.11 -611.65,140.63 -594.25,133.75 -592.33,132.91 -590.33,132.23 M-606.33,181.95 L-610.29,184.87 M-569.69,172.99 L-573.69,175.91 M-556.65,218.51 Q-562.73,228.47 -574.25,226.87 -575.37,226.67 -576.49,226.51 M-1040.81,179.91 L-1046.25,179.27 M-1067.73,346.87 Q-1066.77,341.07 -1065.17,335.35 -1059.17,313.71 -1053.13,291.99 -1046.61,268.67 -1037.05,247.31 -1036.41,245.87 -1034.37,241.83 M-530.45,355.27 Q-533.57,328.99 -543.17,305.55 -552.57,282.47 -562.93,259.91 -564.97,255.51 -567.45,251.83 M-589.49,251.83 Q-592.37,258.59 -593.85,266.31 -595.73,276.07 -598.13,285.55 -603.77,307.75 -608.17,330.43 -610.57,342.95 -612.93,355.27 M-796.41,256.75 Q-791.89,263.67 -788.13,271.31 -778.97,289.99 -770.53,308.87 -763.01,325.71 -758.17,343.95 M-815.97,230.99 Q-819.05,227.79 -822.49,230.99 -822.61,231.11 -822.61,231.35 M-853.49,343.95 Q-851.53,337.71 -849.01,331.67 -839.89,310.11 -830.61,288.47 -823.81,272.55 -815.21,258.15 -814.81,257.43 -814.37,256.75 M-1010.61,242.23 Q-1003.13,253.07 -999.33,262.71 -990.45,285.23 -982.53,308.63 -977.25,324.11 -972.01,339.67" test="JurorsBack"/>
    </g>
    <g id="Tween-1">
      <g id="JurorsFront">
        <path fill="#000" stroke="none" d="M-754.424,275.215 Q-761.153,275.896 -767.801,277.979 -769.403,278.459 -771.045,278.82 L-771.405,279.42 -771.165,280.101 -766.279,278.78 -771.165,280.101 Q-777.653,282.624 -783.38,286.669 -789.908,291.355 -794.514,297.924 -798.639,303.771 -801.163,310.579 -803.566,317.188 -804.286,324.196 -805.047,331.365 -804.006,338.374 -802.885,345.823 -799.601,352.632 -796.477,359.2 -791.15,364.246 -785.783,369.333 -779.135,372.817 -774.765,375.139 -770.044,376.301 -767.156,377.041 -764.156,377.343 -757.308,378.344 -750.459,376.902 -749.89,376.781 -749.338,376.622 -742.768,375.113 -736.722,372.016 -730.274,368.612 -725.027,363.646 -719.741,358.559 -715.976,352.031 -712.372,345.903 -710.65,338.975 -708.927,332.126 -709.408,325.117 -709.929,317.788 -712.091,310.86 -714.214,304.051 -718.059,298.164 -721.904,292.236 -727.07,287.15 -732.557,281.823 -739.445,278.659 -746.494,275.415 -754.424,275.215 M-778.134,317.668 L-783.581,317.027 -778.134,317.668 M-758.269,311.781 L-752.822,312.422 -758.269,311.781 M-758.589,361.122 Q-755.786,361.122 -753.823,359.721 -751.861,358.319 -751.861,356.316 -751.861,358.319 -753.823,359.721 -755.786,361.122 -758.589,361.122 M-977.463,260.917 L-978.063,262.84 Q-1015.991,260.757 -1031.01,295.16 -1039.5,314.664 -1034.774,335.33 -1028.486,362.885 -1000.892,372.817 -996.287,374.409 -991.16,375.621 -988.834,376.159 -986.434,376.622 -985.426,376.808 -983.911,376.862 -982.418,376.854 -980.506,376.622 -979.174,376.465 -977.903,376.261 -946.881,371.234 -936.812,337.573 -926.319,302.489 -952.231,276.377 -962.965,265.643 -977.463,260.917 M-970.374,306.254 L-966.529,309.178 -970.374,306.254 M-1002.093,309.178 L-998.249,312.101 -1002.093,309.178 M-1002.173,350.509 Q-1001.493,350.349 -1000.812,350.229 -1001.493,350.349 -1002.173,350.509 -1007.46,351.991 -1010.103,347.345 -1007.46,351.991 -1002.173,350.509 M-1153.322,356.917 Q-1148.116,337.453 -1156.606,319.31 -1163.335,304.932 -1173.948,293.158 -1184.561,281.423 -1200.141,279.701 -1221.047,279.941 -1200.261,280.021 -1219.605,282.544 -1235.345,293.959 -1252.286,306.214 -1256.331,326.599 -1260.336,346.825 -1252.086,365.528 -1244.396,383.07 -1228.536,393.883 -1221.418,398.687 -1213.277,399.931 -1210.413,400.371 -1207.43,400.371 -1205.038,400.691 -1202.744,400.772 -1185.89,401.351 -1172.867,389.278 -1158.409,375.941 -1153.322,356.917 M-1208.711,327 Q-1206.829,328.121 -1206.829,329.723 -1206.829,328.121 -1208.711,327 -1210.594,325.878 -1213.237,325.878 -1210.594,325.878 -1208.711,327 M-1186.484,327.841 Q-1184.401,329.162 -1184.401,331.005 -1184.401,329.162 -1186.484,327.841 -1188.526,326.519 -1191.45,326.519 -1188.526,326.519 -1186.484,327.841 M-1235.024,361.763 L-1215.8,368.171 -1235.024,361.763 M-258.405,271.811 L-259.006,269.888 Q-261.008,270.609 -262.931,271.45 -280.352,278.339 -292.127,292.837 -304.502,308.056 -303.661,327.721 -302.86,346.945 -292.848,363.445 -287.641,372.056 -271.461,380.026 -263.142,384.102 -256.402,385.833 -250.117,387.459 -245.188,387.075 -242.506,386.859 -239.221,385.553 -230.916,382.243 -218.755,371.976 -211.827,366.129 -206.7,360.402 -201.494,354.594 -200.573,351.59 -196.928,339.936 -197.249,327.681 -197.809,308.056 -209.023,292.196 -214.11,285.067 -221.759,280.502 -238.62,270.409 -258.405,271.811 M-275.026,319.711 L-278.991,322.634 -275.026,319.711 M-238.34,310.739 L-242.345,313.663 -238.34,310.739 M-242.906,364.687 Q-244.027,364.487 -245.148,364.326 -244.027,364.487 -242.906,364.687 -231.371,366.289 -225.284,356.316 -231.371,366.289 -242.906,364.687 M-478.48,276.176 Q-487.171,273.413 -496.062,275.816 -504.632,278.019 -512.042,282.865 -519.331,287.591 -525.619,293.798 -532.027,300.206 -536.112,308.377 -540.237,316.747 -541.238,325.918 -542.239,335.05 -540.157,343.941 -538.074,353.032 -533.508,361.042 -528.943,369.012 -522.415,375.46 -515.646,382.109 -507.196,386.354 -502.533,388.753 -497.584,390.039 -493.739,391.052 -489.734,391.4 -487.239,391.304 -484.768,391 -477.974,390.24 -471.391,388.036 -462.38,385.032 -454.81,379.185 -447.281,373.298 -442.635,364.767 -438.35,356.877 -436.227,348.226 -434.104,339.576 -434.865,330.644 -435.666,321.273 -439.831,312.702 -443.796,304.492 -449.764,297.643 -455.571,290.995 -462.219,285.148 -469.348,278.98 -478.48,276.176 M-470.71,314.985 Q-468.627,316.306 -468.627,318.149 -468.627,316.306 -470.71,314.985 -472.753,313.663 -475.676,313.663 -472.753,313.663 -470.71,314.985 M-501.909,312.502 Q-500.027,313.623 -500.027,315.225 -500.027,313.623 -501.909,312.502 -503.791,311.38 -506.435,311.38 -503.791,311.38 -501.909,312.502 M-508.477,368.812 Q-508.597,368.932 -508.597,369.172 -508.597,368.932 -508.477,368.812 -505.033,365.608 -501.949,368.812 -505.033,365.608 -508.477,368.812 M-57.074,289.553 Q-64.443,295.761 -68.688,304.291 -72.653,312.221 -74.175,320.832 -75.737,329.563 -74.455,338.294 -73.094,347.666 -68.408,355.716 -63.762,363.686 -56.433,369.172 -48.823,374.779 -39.772,377.062 -38.109,377.467 -36.448,377.703 -30.569,378.659 -24.673,377.823 -22.966,377.602 -21.269,377.222 -12.178,375.26 -4.288,370.614 3.842,365.968 9.57,358.719 15.337,351.43 18.02,342.539 20.623,334.049 19.943,325.077 19.262,316.347 16.058,308.296 12.573,299.686 6.766,292.437 1.119,285.428 -6.771,281.022 -14.54,276.697 -23.512,276.777 -32.843,276.857 -41.935,278.78 L-42.295,279.42 -42.015,280.141 -37.169,278.78 -42.015,280.141 Q-50.145,283.746 -57.074,289.553 M-29.159,311.781 L-23.712,312.422 -29.159,311.781 M-49.024,317.668 L-54.47,317.027 -49.024,317.668 M-29.479,361.122 Q-26.676,361.122 -24.713,359.721 -22.751,358.319 -22.751,356.316 -22.751,358.319 -24.713,359.721 -26.676,361.122 -29.479,361.122Z" test="JurorsFront" vector-effect="non-scaling-stroke" stroke-width="1"/>
        <path id="Layer4_0_1_STROKES" stroke="#FFF" stroke-width="1.602" stroke-linejoin="round" stroke-linecap="round" fill="none" d="M-42.015,280.141 Q-50.145,283.746 -57.074,289.553 -64.443,295.761 -68.688,304.291 -72.653,312.221 -74.175,320.832 -75.737,329.563 -74.455,338.294 -73.094,347.666 -68.408,355.716 -63.762,363.686 -56.433,369.172 -48.823,374.779 -39.772,377.062 -38.109,377.467 -36.448,377.723 -30.569,378.659 -24.653,377.843 -22.966,377.602 -21.269,377.222 -12.178,375.26 -4.288,370.614 3.842,365.968 9.57,358.719 15.337,351.43 18.02,342.539 20.623,334.049 19.943,325.077 19.262,316.347 16.058,308.296 12.573,299.686 6.766,292.437 1.119,285.428 -6.771,281.022 -14.54,276.697 -23.512,276.777 -32.843,276.857 -41.935,278.78 L-42.295,279.42 M-37.169,278.78 L-42.015,280.141 M-29.159,311.781 L-23.712,312.422 M-49.024,317.668 L-54.47,317.027 M-489.734,391.4 Q-487.239,391.304 -484.768,391.02 -477.974,390.24 -471.391,388.036 -462.38,385.032 -454.81,379.185 -447.281,373.298 -442.635,364.767 -438.35,356.877 -436.227,348.226 -434.104,339.576 -434.865,330.644 -435.666,321.273 -439.831,312.702 -443.796,304.492 -449.764,297.643 -455.571,290.995 -462.219,285.148 -469.348,278.98 -478.48,276.176 -487.171,273.413 -496.062,275.816 -504.632,278.019 -512.042,282.865 -519.331,287.591 -525.619,293.798 -532.027,300.206 -536.112,308.377 -540.237,316.747 -541.238,325.918 -542.239,335.05 -540.157,343.941 -538.074,353.032 -533.508,361.042 -528.943,369.012 -522.415,375.46 -515.646,382.109 -507.196,386.354 -502.533,388.753 -497.564,390.059 -493.739,391.052 -489.734,391.4Z M-475.676,313.663 Q-472.753,313.663 -470.69,314.985 -468.627,316.306 -468.627,318.149 M-506.435,311.38 Q-503.791,311.38 -501.909,312.502 -500.027,313.623 -500.027,315.225 M-258.405,271.811 Q-238.62,270.409 -221.759,280.502 -214.11,285.067 -209.023,292.196 -197.809,308.056 -197.249,327.681 -196.928,339.936 -200.573,351.59 -201.494,354.594 -206.7,360.402 -211.827,366.129 -218.755,371.976 -230.916,382.243 -239.221,385.553 -242.506,386.859 -245.188,387.075 -250.117,387.459 -256.382,385.853 -263.142,384.102 -271.461,380.026 -287.641,372.056 -292.848,363.445 -302.86,346.945 -303.661,327.721 -304.502,308.056 -292.127,292.837 -280.352,278.339 -262.931,271.45 -261.008,270.609 -259.006,269.909 M-275.026,319.711 L-278.991,322.634 M-238.34,310.739 L-242.345,313.663 M-225.284,356.316 Q-231.371,366.289 -242.906,364.687 -244.027,364.487 -245.148,364.326 M-199.051,493.247 Q-202.175,466.935 -211.787,443.465 -221.198,420.356 -231.571,397.768 -233.613,393.363 -236.097,389.678 M-258.165,389.678 Q-261.035,396.441 -262.53,404.176 -264.412,413.948 -266.815,423.44 -272.462,445.668 -276.868,468.376 -279.271,480.912 -281.634,493.247 M-539.516,481.913 Q-537.553,475.665 -535.03,469.618 -525.899,448.031 -516.607,426.364 -509.784,410.41 -501.208,396.006 -500.792,395.303 -500.367,394.604 M-482.365,394.604 Q-477.845,401.552 -474.074,409.182 -464.903,427.886 -456.452,446.789 -448.923,463.65 -444.077,481.913 M-501.949,368.812 Q-505.033,365.608 -508.477,368.812 -508.597,368.932 -508.597,369.172 M-29.479,361.122 Q-26.676,361.122 -24.713,359.721 -22.751,358.319 -22.751,356.316 M-76.698,510.108 Q-72.212,482.995 -64.643,457.002 -61.359,445.708 -58.235,434.294 -51.346,409.142 -41.174,386.794 -39.815,383.838 -38.33,381.067 M-22.631,381.067 Q-13.765,395.68 -7.492,413.187 1.439,438.058 9.369,463.851 14.656,480.992 19.862,498.214 M-1213.237,325.878 Q-1210.594,325.878 -1208.711,327 -1206.829,328.121 -1206.829,329.723 M-1191.45,326.519 Q-1188.526,326.519 -1186.464,327.841 -1184.401,329.162 -1184.401,331.005 M-1200.261,280.021 Q-1219.605,282.544 -1235.345,293.959 -1252.286,306.214 -1256.331,326.599 -1260.336,346.825 -1252.086,365.528 -1244.396,383.07 -1228.536,393.883 -1221.418,398.687 -1213.277,399.931 -1210.413,400.371 -1207.43,400.371 -1205.038,400.691 -1202.724,400.772 -1185.89,401.351 -1172.867,389.278 -1158.409,375.941 -1153.322,356.917 -1148.116,337.453 -1156.606,319.31 -1163.335,304.932 -1173.948,293.158 -1184.561,281.423 -1200.121,279.701 M-977.463,260.937 L-986.073,259.476 M-978.063,262.84 Q-1015.991,260.757 -1031.01,295.16 -1039.5,314.664 -1034.774,335.33 -1028.486,362.885 -1000.892,372.817 -996.287,374.409 -991.16,375.621 -988.834,376.159 -986.414,376.622 -985.426,376.808 -983.911,376.862 -982.418,376.854 -980.486,376.622 -979.174,376.465 -977.903,376.261 -946.881,371.234 -936.812,337.573 -926.319,302.489 -952.231,276.377 -962.965,265.643 -977.463,260.937 M-970.374,306.254 L-966.529,309.178 M-1002.093,309.178 L-998.249,312.101 M-1010.103,347.345 Q-1007.46,351.991 -1002.173,350.509 -1001.493,350.349 -1000.812,350.229 M-771.145,280.121 Q-777.653,282.624 -783.38,286.669 -789.908,291.355 -794.514,297.924 -798.639,303.771 -801.163,310.579 -803.566,317.188 -804.286,324.196 -805.047,331.365 -804.006,338.374 -802.885,345.823 -799.601,352.632 -796.477,359.2 -791.15,364.246 -785.783,369.333 -779.135,372.817 -774.765,375.139 -770.024,376.321 -767.156,377.041 -764.156,377.343 -757.308,378.344 -750.459,376.902 -749.89,376.781 -749.318,376.642 -742.768,375.113 -736.722,372.016 -730.274,368.612 -725.027,363.646 -719.741,358.559 -715.976,352.031 -712.372,345.903 -710.65,338.975 -708.927,332.126 -709.408,325.117 -709.929,317.788 -712.091,310.86 -714.214,304.051 -718.059,298.164 -721.904,292.236 -727.07,287.15 -732.557,281.823 -739.445,278.659 -746.494,275.415 -754.424,275.215 -761.153,275.896 -767.801,277.979 -769.403,278.459 -771.045,278.82 L-771.405,279.42 M-766.279,278.78 L-771.145,280.121 M-778.134,317.668 L-783.581,317.027 M-758.269,311.781 L-752.822,312.422 M-1256.771,490.924 Q-1248.801,471.741 -1239.95,452.997 -1231.74,435.615 -1223.209,418.674 -1220.365,413.007 -1216.121,405.137 M-758.589,361.122 Q-755.786,361.122 -753.823,359.721 -751.861,358.319 -751.861,356.316 M-747.896,380.066 Q-740.42,390.937 -736.602,400.572 -727.711,423.12 -719.781,446.549 -714.494,462.048 -709.248,477.628 M-805.087,484.837 Q-804.126,479.03 -802.524,473.302 -796.517,451.635 -790.469,429.888 -783.941,406.539 -774.369,385.152 -773.715,383.695 -771.686,379.666 M-975.28,380.226 Q-953.918,412.903 -944.261,446.589 -938.174,467.936 -931.726,488.962 M-1040.221,488.962 Q-1032.732,444.987 -1010.864,407.54 -1003.402,394.713 -994.123,380.226 M-1200.541,405.137 Q-1195.697,414.792 -1191.77,422.319 -1182.559,439.901 -1174.268,457.923 -1166.859,473.983 -1161.733,490.924 M-1235.024,361.763 L-1215.8,368.171" test="JurorsFront"/>
      </g>
    </g>
    <g id="Parrot">
      <path id="Layer2_0_1_STROKES" stroke="#FFF" stroke-width="2" stroke-linejoin="round" stroke-linecap="round" fill="none" d="M415.4,249.55 Q419.1,250 422.4,252.95 426.4,256.5 424.9,262.15 423.4,267.8 420.6,270.65 417.8,273.45 414.2,273.35 410.55,273.25 407.95,271.15 405.3,269.05 404.65,265.5 404.05,262.1 404.9,258.95 405.7,256.1 406.75,254.4 407.75,252.65 409.85,251.55 411.9,250.4 415.4,249.55Z M415.8,261.3 Q415.3,260.65 414.55,260.55 413.75,260.45 413.7,260.45 413.4,260.45 413.05,260.75 412.2,261.5 412.9,263 413.5,264.25 414.85,263.75 415.8,263.4 415.95,262.7 416.1,262.2 416.1,262 416.15,261.6 415.8,261.3Z M371.05,252.05 Q373.25,251.85 376.2,255.25 379.1,258.55 378.9,263.2 378.7,267.75 376.6,270.55 374.55,273.3 371,273.2 367.4,273.05 364.6,270.8 361.45,268.4 361.6,264.6 361.85,259.4 363.6,256.3 366,252 371.05,252.05Z M373.7,262.85 Q373.35,262.25 372.7,262.2 371.95,262.1 371.9,262.1 371.7,262.1 371.35,262.35 370.6,263.05 371.25,264.4 371.8,265.55 372.9,265.05 373.7,264.75 373.85,264.1 373.95,263.7 373.95,263.5 374.05,263.15 373.7,262.85Z" test="Parrot"/>
      <path id="Layer2_0_2_STROKES" stroke="#F00" stroke-width="2" stroke-linejoin="round" stroke-linecap="round" fill="none" d="M436.95,279.95 Q439.95,280.55 440.7,280.65 441.45,280.75 442.95,280.75 445.1,280.75 448.95,278.35 M430.55,305.55 L432,305.95 Q433.7,306.35 434.95,306.35 435.7,306.35 437.8,304.95 439.75,303.65 440.15,303.15 M472.95,328.85 Q464.1,319.25 461.2,306.6 458.75,295.8 460.25,280.15 461.6,266.35 454.55,253.45 446.75,239.2 434,233.7 421.25,228.15 411.4,227.2 401.55,226.2 392.15,229.65 382.7,233.1 375.8,240.05 368.95,246.9 368.7,248.45 M366.85,317.95 Q366.4,331 359.9,341.6 M399.35,306.35 Q401.6,308.85 403.05,311.6 403.25,311.95 405.75,311.95 407.05,311.95 408.8,311.45 409.15,311.35 412.15,310.35" test="Parrot"/>
      <path id="Layer2_0_3_STROKES" stroke="#0FF" stroke-width="2" stroke-linejoin="round" stroke-linecap="round" fill="none" d="M364.5,335 L363.85,338.9 Q364.75,339.35 365.85,339.45 366.55,339.55 368.05,339.55 372.2,339.55 375.3,336 378.45,332.4 380.75,332.4 381.55,332.4 385.95,333.05 390.3,333.7 391.15,333.7 396.1,333.7 397.1,331.45 398.05,329.15 401.85,329.15 402.7,329.15 405.8,329.8 408.95,330.45 409.75,330.45 410.3,330.45 412.25,328.5 414.15,326.55 416.55,326.55 417.4,326.55 420.65,327.2 423.9,327.85 424.7,327.85 425.6,327.85 428.1,326.55 429.35,325.9 430.55,325.25 430.7,325.25 433.7,326.55 437.05,327.85 438.65,327.85 440.7,327.85 443.35,326.9 444.65,326.4 445.8,325.9 447.8,325.9 457.85,328.2 466.2,330.1 469.95,330.4 470.7,330.45 471.25,330.45 M400.3,353.3 Q399.75,355.15 397.95,371.95 396.2,388.2 395.1,391.05 393.55,395.25 393,405.95 392.4,417.3 393.8,424.25 395.35,431.95 402.6,453 410.05,474.6 413.35,480.25 414.9,482.95 419.6,490.25 423.4,496.15 426.35,501.75 430.25,509.15 433.35,512.1 436.5,515.15 441.35,516.1 444.6,516.75 449.65,517.95 453.05,518.35 453.05,515.45 453.05,507.35 461.5,511.55 467.45,514.5 469.5,514.9 472.8,515.55 474.55,512.85 475.85,510.9 477.6,507.55 479.5,504.95 483.65,503.7 486.35,502.9 488.75,504.7 489.4,505.2 490.85,499.8 492.5,493.7 495.1,487 L497.35,481.55 Q498,477.65 499.95,468.55 501.65,460.55 500.85,450.45 499.85,438.25 495.4,428.85 495.15,428.35 484,406.3 476.9,392.2 474.55,385.2 472.8,379.95 469.45,372.6 467.1,367.5 466.75,364.35 M502.4,384.85 Q501.8,384.5 500.9,384.5 500.75,384.5 493.1,387.1 491.45,386.2 489.45,385.15 489.1,387.05 487.75,388.5 486.6,389.7 485.85,389.7 484.2,389.7 482.85,388.5 481.75,387.55 481.65,387.75 480.8,388.65 479.55,389.25 478.1,389.9 477.1,389.7 M474.5,333.7 Q501.55,359.55 501.85,384.5 L502.5,384.5 M359.9,341.6 Q355.45,353.5 351.8,365.8 348.15,378.05 345.1,390.5 343.15,398.4 340.75,406.2 336.9,418.65 335.95,431.6 335.75,434.65 335.95,437.6 336.7,450.45 334.65,463.35 334,467.65 332.1,471.55 330.7,474.4 329.35,477.2 327.6,474.85 327.1,471.75 323.15,447.35 325,422.9 325.3,419 326,415.1 327.2,408.65 328.25,402.2 329.25,396.25 331.45,390.6 336,378.85 340.85,367.3 347.25,352.25 359.9,341.6Z M346.85,402.1 Q349.45,404.55 352.5,405.15 353.4,405.35 356.7,405.35 358.55,405.35 359.4,403.75 360.25,402.1 363.2,402.1 365.15,402.1 369.45,402.5 373.3,402.75 375.55,402.1 381.1,400.55 386.15,400.2 387.5,400.1 391.8,400.1" test="Parrot"/>
      <path id="Layer2_0_4_STROKES" stroke="#0F0" stroke-width="2" stroke-linejoin="round" stroke-linecap="round" fill="none" d="M506.25,411.1 Q507.05,409.85 507.05,407.65 507.05,406.1 504.9,396.5 502.65,386.75 501.85,385.15" test="Parrot"/>
      <path id="Layer2_0_5_STROKES" stroke="#FF0" stroke-width="2" stroke-linejoin="round" stroke-linecap="round" fill="none" d="M503.15,444.35 L509,444.35 Q508.7,442.95 509.75,439.15 510.95,435 510.95,433.95 510.95,427.65 509.05,419.6 507.45,412.8 506.25,411.1 M367.15,279 Q356.65,284.35 355.55,294.05 355.05,298.5 354.75,303.05 370.3,305.7 376.4,301.35 378.45,294.45 375.35,289.2 372.2,283.9 370.7,282.45 369.2,280.95 367.15,279Z M360.6,304.35 Q358.55,314.75 369.45,315.45 371.45,315.3 373.1,314.5 377.1,311.6 375.55,302.95 M339.7,458.75 Q342.45,461.1 343.6,462.45 343.9,462.65 347.15,462.65 349.75,462.65 358.35,459.4 365.3,456.8 367.35,456.3 367.6,456.2 367.75,456.2 367.8,457.15 372.35,457.4 373.3,457.45 378.15,457.45 380.05,457.45 384,456.5 387.95,455.5 389.5,455.5 391.9,455.5 392.1,455.45 393.35,455.05 393.75,452.8 401.55,454.6 399.6,454.1 M367.35,456.3 Q367.1,456.4 367.3,456.75 367.75,457.45 367.75,456.2 M353.35,503.05 Q349.4,506.1 348.5,508.6 348.15,509.65 348.15,513.75 348.15,519.15 351.3,520.9 353.7,522.2 363.2,523.2 363.2,521.6 362.9,520.25 364.9,521 367.75,521.9 L371,521.9 Q369.7,520.2 368.65,518.8 370.9,519.6 372.95,520.6 L377.5,520.6 377.5,517.35 Q373.9,514.15 372.75,508.45 372.15,502.9 371.65,501.75 371,501.75 369.7,501.1 M385.3,503.7 Q384.45,513.9 386.2,516.9 387.7,519.5 393.75,519.95 L393.75,516.05 Q393.2,514.95 392.65,512.05 392.8,512.25 392.9,512.5 395.75,518.25 400.9,519.3 L400.9,514.15 Q401.55,515.2 402.35,516.2 404.95,519.3 408.05,519.95 L408.75,519.95 Q409.1,517.85 408,514.1 406.75,509.95 406.75,508.25 406.75,504.8 409.4,503.05 M421.75,508.9 Q420.95,521.7 430.2,545.3 434.15,555.4 438.05,561.85 442.25,568.75 444.85,568.75 448.55,568.75 449.45,568.35 452.5,567 452.95,561.6 455.3,562.75 461.4,563.55 466.75,563.55 468.5,558.05 469.6,554.65 469.8,554.25 470.75,552.5 472.55,552.5 473.25,552.5 480.35,555.1 481.45,555.1 483.3,551.85 485.3,548.35 486.85,547.95 490.55,546.9 495.75,546.15 499.45,545.2 501.2,541.45 502.25,541.45 504.05,541.8 505.85,542.1 506.4,542.1 L506.4,520.6 Q503.8,511.7 501.05,499.55 498.95,490.35 497.3,486.15" test="Parrot"/>
      <path id="Layer2_0_6_STROKES" stroke="#F0F" stroke-width="2" stroke-linejoin="round" stroke-linecap="round" fill="none" d="M329.35,477.2 L330.35,486.3 Q331.95,496.15 335.2,499.8 336.85,501.65 337.8,503.95 338.35,505.2 338.95,507.1 339.45,508.45 340.3,508.6 341.35,508.75 343.65,507.6 346.7,506.1 349.25,503.15 351,501.1 353.4,501.1 355.7,501.1 361.5,502 366.65,502.45 369.05,500.45 371.4,498.5 376.15,499.65 378.85,500.3 384.7,501.75 387.65,502.1 392,502.95 395.5,503.35 398.35,501.75 401.3,500.1 404.3,500.2 406.2,500.3 410.75,501.1 413.35,501.45 416.2,502.5 418,502.85 419.2,500.45 M502.5,486.15 Q504.85,474.15 506.2,465.85 507.3,459.35 509,446.95 M464.1,631.3 Q466.9,639.4 467.65,640.6 468.75,642.35 471.55,642.35 472.6,642.35 472.9,642.25 474.3,641.6 475.8,639.1 494.5,657.95 495.7,657.95 503.2,657.95 506.4,645 508.35,637.2 508.35,627.75 508.35,621.8 507.05,616.15 506.2,612.45 504.45,607.85" test="Parrot"/>
      <path id="Layer2_0_7_STROKES" stroke="#F60" stroke-width="2" stroke-linejoin="round" stroke-linecap="round" fill="none" d="M446.45,573.3 Q445.95,572.5 445.4,571.7 444.25,570.05 443.85,570.05 L443.85,573.3 Q445.1,580.9 453.45,603.35 463.3,630 468.3,630 470.45,630 475.35,625.8 479.9,621.55 480,621.55 480.85,621.55 483.25,622.2 485.7,622.85 486.5,622.85 488.95,622.85 491.35,617.95 493,614.55 493.4,612.4 499.05,612.4 501.9,609.5 504.75,606.55 507.7,606.55 507.7,604.3 508.05,599.3 508.35,594.3 508.35,593.8 508.35,589.25 505.45,579.15 502.15,567.75 501.85,565.5 501.35,562 501.55,555.95 501.85,549.6 501.85,547.3 L501.2,547.3" test="Parrot"/>
    </g>
    <g id="JuryBoxFront">
      <path fill="#000" stroke="none" d="M-2084.4,514.35 L-2106.7,488.3 -2108.55,617.25 Q-2100.372,617.251 -2088.9,617.25 L-2084.4,514.35 M857.65,500.95 L856.3,500.95 838.45,518.5 838.45,613 Q848.934,613.017 857.65,613 L857.65,500.95 M686.2,512.95 Q611.7,514.65 537.35,518.9 461.9,522.55 386.4,523 309,523.45 231.6,523.35 156.1,523.25 80.6,523 .8,522.75 -79,521.8 -157.7,520.9 -236.35,519.6 -314.45,518.35 -392.55,520.35 -469.85,522.3 -547.2,526.5 -622.45,529.75 -697.85,528.6 -777.25,527.35 -856.6,522.45 -930.55,517.5 -1004.8,516.45 -1078.7,515.45 -1152.65,516.1 -1232,516.8 -1311.35,518 -1391,519.25 -1470.6,520.45 -1549.65,521.65 -1628.8,522.95 -1705.8,524.25 -1782.85,524.85 -1859.6,525.45 -1936.55,523.95 -2010.7,522.5 -2084.4,514.35 L-2088.9,617.25 Q-1882.942,617.16 -614.1,615.15 593.773,613.195 838.45,613 L838.45,518.5 Q762.5,511.25 686.2,512.95 M518.5,502.85 Q513.294,503.094 508.1,503.3 432.15,505.8 356.2,505.8 333.186,505.8 310.15,505.8 254.621,505.815 199.05,505.85 190.812,505.856 182.55,505.85 111.257,505.781 39.9,504.75 17.025,504.422 -5.85,503.75 -28.732,503.598 -51.65,503.4 -68.798,503.302 -86,503.15 -103.164,502.697 -120.35,502.45 -200.05,501.35 -279.8,500.55 -341.837,499.94 -403.85,502.65 -412.944,503.077 -422.05,503.55 -497.1,507 -572,510.95 L-732.05,511.75 Q-812.35,507.9 -892.55,502.95 -965.2,497.9 -1038.3,497.2 -1117.35,496.4 -1196.3,497.5 -1273.4,498.6 -1350.6,500.15 -1423.25,501.65 -1495.95,503.2 -1569.85,504.75 -1643.85,505.95 -1721.8,507.2 -1799.95,506.2 -1875.65,505.25 -1951.25,500.25 -2029.05,495.6 -2106.7,488.3 L-2084.4,514.35 Q-2010.7,522.5 -1936.55,523.95 -1859.6,525.45 -1782.85,524.85 -1705.8,524.25 -1628.8,522.95 -1549.65,521.65 -1470.6,520.45 -1391,519.25 -1311.35,518 -1232,516.8 -1152.65,516.1 -1078.7,515.45 -1004.8,516.45 -930.55,517.5 -856.6,522.45 -777.25,527.35 -697.85,528.6 -622.45,529.75 -547.2,526.5 -469.85,522.3 -392.55,520.35 -314.45,518.35 -236.35,519.6 -157.7,520.9 -79,521.8 .8,522.75 80.6,523 156.1,523.25 231.6,523.35 309,523.45 386.4,523 461.9,522.55 537.35,518.9 611.7,514.65 686.2,512.95 762.5,511.25 838.45,518.5 L856.3,500.95 856.35,500.15 Q837.962,498.494 819.55,496.85 805.452,495.536 791.35,494.6 731.385,490.798 671.2,494.4 594.931,499.691 518.5,502.85Z" test="JuryBoxFront"/>
      <path id="Layer1_0_1_STROKES" stroke="#F60" stroke-width="2" stroke-linejoin="round" stroke-linecap="round" fill="none" d="M856.375,500.175 Q837.962,498.494 819.55,496.85 805.452,495.536 791.35,494.625 731.385,490.798 671.2,494.4 594.931,499.691 518.5,502.875 513.294,503.094 508.1,503.3 432.15,505.8 356.2,505.8 333.186,505.8 310.175,505.8 254.621,505.815 199.05,505.85 190.812,505.856 182.575,505.85 111.257,505.781 39.9,504.75 17.025,504.422 -5.85,503.775 -28.732,503.598 -51.625,503.425 -68.798,503.302 -85.975,503.175 -103.164,502.697 -120.35,502.45 -200.05,501.35 -279.8,500.55 -341.837,499.94 -403.825,502.675 -412.944,503.077 -422.05,503.55 -497.1,507 -572,510.95 L-732.05,511.75 Q-812.35,507.9 -892.55,502.95 -965.2,497.9 -1038.3,497.2 -1117.35,496.4 -1196.3,497.5 -1273.4,498.6 -1350.6,500.15 -1423.25,501.65 -1495.95,503.2 -1569.85,504.75 -1643.85,505.95 -1721.8,507.2 -1799.95,506.2 -1875.65,505.25 -1951.25,500.25 -2029.05,495.6 -2106.7,488.3 L-2084.4,514.35 Q-2010.7,522.5 -1936.55,523.95 -1859.6,525.45 -1782.85,524.85 -1705.8,524.25 -1628.8,522.95 -1549.65,521.65 -1470.6,520.45 -1391,519.25 -1311.35,518 -1232,516.8 -1152.65,516.1 -1078.7,515.45 -1004.8,516.45 -930.55,517.5 -856.6,522.45 -777.25,527.35 -697.85,528.6 -622.45,529.75 -547.2,526.5 -469.85,522.3 -392.55,520.35 -314.45,518.35 -236.35,519.6 -157.7,520.9 -79,521.8 .8,522.75 80.6,523 156.1,523.25 231.6,523.35 309,523.45 386.4,523 461.9,522.55 537.35,518.9 611.7,514.65 686.2,512.95 762.5,511.25 838.45,518.5 L856.3,500.95 M856.375,500.175 Q857.012,500.242 857.65,500.3 L857.65,500.95 857.65,613 857.65,624.2 M838.45,624.2 L838.45,613.025 M-2088.9,617.25 L-2089.2,624.2 M838.45,613.025 L838.45,518.5 M-2108.65,624.2 L-2108.55,617.25 -2106.7,488.3 M-2084.4,514.35 L-2088.9,617.25" test="JuryBoxFront"/>
    </g>
  </g>
</svg>