<?xml version="1.0" encoding="utf-8"?>
<svg id="EdithAnim12" image-rendering="inherit" baseProfile="basic" version="1.1" x="0px" y="0px" width="800" height="600" xmlns="http://www.w3.org/2000/svg" xmlns:xlink="http://www.w3.org/1999/xlink">
  <g id="14_JurorParrotf95r1" overflow="visible">
    <g id="Parrot">
      <path id="Layer2_0_1_STROKES" stroke="#FFF" stroke-width="2.072" stroke-linejoin="round" stroke-linecap="round" fill="none" d="M376.369,255.706 Q380.202,256.172 383.621,259.228 387.765,262.906 386.211,268.759 384.657,274.613 381.756,277.565 378.855,280.466 375.126,280.362 371.344,280.259 368.651,278.083 365.905,275.908 365.232,272.23 364.61,268.707 365.491,265.444 366.32,262.491 367.408,260.73 368.444,258.917 370.619,257.778 372.743,256.586 376.369,255.706Z M376.783,267.879 Q376.265,267.205 375.488,267.102 374.66,266.998 374.608,266.998 374.297,266.998 373.934,267.309 373.054,268.086 373.779,269.64 374.401,270.935 375.799,270.417 376.783,270.054 376.939,269.329 377.094,268.811 377.094,268.604 377.146,268.189 376.783,267.879Z M330.422,258.296 Q332.702,258.088 335.758,261.611 338.762,265.03 338.555,269.847 338.348,274.561 336.172,277.462 334.048,280.311 330.371,280.207 326.641,280.052 323.74,277.721 320.477,275.234 320.632,271.297 320.891,265.91 322.704,262.699 325.191,258.244 330.422,258.296Z M333.168,269.484 Q332.805,268.863 332.132,268.811 331.355,268.707 331.303,268.707 331.096,268.707 330.733,268.966 329.956,269.692 330.63,271.09 331.199,272.282 332.339,271.764 333.168,271.453 333.323,270.779 333.427,270.365 333.427,270.158 333.53,269.795 333.168,269.484Z" test="Parrot"/>
      <path id="Layer2_0_2_STROKES" stroke="#F00" stroke-width="2.072" stroke-linejoin="round" stroke-linecap="round" fill="none" d="M398.695,287.2 Q401.803,287.822 402.58,287.925 403.357,288.029 404.911,288.029 407.138,288.029 411.127,285.542 M392.064,313.722 L393.567,314.136 Q395.328,314.55 396.623,314.55 397.4,314.55 399.575,313.1 401.596,311.753 402.01,311.235 M435.991,337.86 Q426.822,327.915 423.818,314.809 421.28,303.621 422.834,287.407 424.232,273.11 416.928,259.746 408.848,244.983 395.639,239.285 382.43,233.535 372.225,232.551 362.02,231.515 352.282,235.089 342.492,238.663 335.343,245.864 328.247,252.96 327.988,254.566 M326.071,326.568 Q325.605,340.088 318.871,351.069 M359.741,314.55 Q362.072,317.14 363.574,319.989 363.782,320.352 366.372,320.352 367.718,320.352 369.531,319.834 369.894,319.73 373.002,318.694" test="Parrot"/>
      <path id="Layer2_0_3_STROKES" stroke="#0FF" stroke-width="2.072" stroke-linejoin="round" stroke-linecap="round" fill="none" d="M323.637,344.232 L322.963,348.272 Q323.896,348.738 325.035,348.842 325.76,348.946 327.314,348.946 331.614,348.946 334.825,345.268 338.089,341.538 340.472,341.538 341.3,341.538 345.859,342.212 350.365,342.885 351.246,342.885 356.374,342.885 357.41,340.554 358.394,338.171 362.331,338.171 363.212,338.171 366.423,338.845 369.687,339.518 370.516,339.518 371.085,339.518 373.106,337.498 375.074,335.478 377.56,335.478 378.441,335.478 381.808,336.151 385.175,336.824 386.004,336.824 386.936,336.824 389.526,335.478 390.821,334.804 392.064,334.131 392.22,334.131 395.328,335.478 398.798,336.824 400.456,336.824 402.58,336.824 405.325,335.84 406.672,335.322 407.863,334.804 409.935,334.804 420.347,337.187 428.998,339.155 432.883,339.466 433.66,339.518 434.23,339.518 M360.725,363.191 Q360.156,365.107 358.291,382.512 356.478,399.347 355.338,402.3 353.732,406.651 353.163,417.736 352.541,429.495 353.991,436.695 355.597,444.672 363.108,466.48 370.826,488.857 374.245,494.711 375.851,497.508 380.72,505.071 384.657,511.183 387.713,516.985 391.754,524.651 394.965,527.707 398.229,530.867 403.253,531.851 406.62,532.525 411.852,533.768 415.374,534.182 415.374,531.178 415.374,522.786 424.129,527.138 430.293,530.194 432.417,530.608 435.835,531.282 437.648,528.484 438.995,526.464 440.808,522.994 442.777,520.3 447.076,519.005 449.873,518.176 452.36,520.041 453.033,520.559 454.535,514.965 456.245,508.645 458.938,501.704 L461.269,496.058 Q461.943,492.017 463.963,482.59 465.724,474.302 464.895,463.838 463.859,451.199 459.249,441.46 458.99,440.942 447.439,418.099 440.083,403.491 437.648,396.239 435.835,390.8 432.365,383.185 429.93,377.902 429.568,374.638 M466.501,395.876 Q465.879,395.514 464.947,395.514 464.792,395.514 456.866,398.207 455.157,397.275 453.085,396.187 452.722,398.156 451.324,399.658 450.132,400.901 449.355,400.901 447.646,400.901 446.247,399.658 445.108,398.674 445.004,398.881 444.123,399.813 442.828,400.435 441.326,401.108 440.29,400.901 M437.597,342.885 Q465.62,369.666 465.931,395.514 L466.605,395.514 M318.871,351.069 Q314.261,363.398 310.479,376.141 306.698,388.832 303.538,401.73 301.518,409.914 299.032,417.995 295.043,430.893 294.059,444.309 293.852,447.469 294.059,450.525 294.836,463.838 292.712,477.202 292.039,481.657 290.07,485.698 288.62,488.65 287.221,491.551 285.408,489.116 284.89,485.905 280.798,460.626 282.715,435.296 283.025,431.256 283.751,427.215 284.994,420.533 286.082,413.851 287.118,407.687 289.397,401.833 294.111,389.66 299.135,377.695 305.766,362.103 318.871,351.069Z M305.351,413.747 Q308.045,416.286 311.205,416.907 312.137,417.114 315.556,417.114 317.472,417.114 318.353,415.457 319.234,413.747 322.29,413.747 324.31,413.747 328.765,414.162 332.753,414.421 335.084,413.747 340.834,412.142 346.066,411.779 347.465,411.675 351.919,411.675" test="Parrot"/>
      <path id="Layer2_0_4_STROKES" stroke="#0F0" stroke-width="2.072" stroke-linejoin="round" stroke-linecap="round" fill="none" d="M470.49,423.071 Q471.318,421.776 471.318,419.497 471.318,417.891 469.091,407.946 466.76,397.845 465.931,396.187" test="Parrot"/>
      <path id="Layer2_0_5_STROKES" stroke="#FF0" stroke-width="2.072" stroke-linejoin="round" stroke-linecap="round" fill="none" d="M467.278,457.518 L473.339,457.518 Q473.028,456.068 474.116,452.131 475.359,447.832 475.359,446.744 475.359,440.217 473.39,431.877 471.733,424.833 470.49,423.071 M326.382,286.216 Q315.504,291.758 314.364,301.808 313.846,306.418 313.536,311.132 329.645,313.877 335.965,309.37 338.089,302.222 334.877,296.783 331.614,291.292 330.06,289.79 328.506,288.236 326.382,286.216Z M319.596,312.478 Q317.472,323.253 328.765,323.978 330.837,323.823 332.546,322.994 336.69,319.989 335.084,311.028 M297.944,472.437 Q300.793,474.871 301.984,476.27 302.295,476.477 305.662,476.477 308.356,476.477 317.265,473.11 324.465,470.417 326.589,469.899 326.848,469.795 327.004,469.795 327.055,470.779 331.769,471.038 332.753,471.09 337.778,471.09 339.746,471.09 343.839,470.106 347.931,469.07 349.537,469.07 352.023,469.07 352.23,469.018 353.525,468.604 353.94,466.273 362.02,468.137 360,467.619 M326.589,469.899 Q326.33,470.002 326.537,470.365 327.004,471.09 327.004,469.795 M312.085,518.332 Q307.993,521.491 307.061,524.081 306.698,525.169 306.698,529.417 306.698,535.011 309.961,536.824 312.448,538.171 322.29,539.207 322.29,537.549 321.979,536.151 324.051,536.928 327.004,537.86 L330.371,537.86 Q329.024,536.099 327.936,534.649 330.267,535.477 332.391,536.513 L337.105,536.513 337.105,533.146 Q333.375,529.831 332.184,523.926 331.562,518.176 331.044,516.985 330.371,516.985 329.024,516.311 M345.185,519.005 Q344.305,529.572 346.118,532.68 347.672,535.374 353.94,535.84 L353.94,531.8 Q353.37,530.66 352.8,527.656 352.955,527.863 353.059,528.122 356.012,534.079 361.347,535.167 L361.347,529.831 Q362.02,530.919 362.849,531.955 365.543,535.167 368.754,535.84 L369.48,535.84 Q369.842,533.664 368.703,529.779 367.408,525.48 367.408,523.719 367.408,520.145 370.153,518.332 M382.948,524.392 Q382.119,537.653 391.702,562.103 395.794,572.566 399.834,579.248 404.186,586.397 406.879,586.397 410.712,586.397 411.645,585.982 414.805,584.584 415.271,578.989 417.705,580.181 424.025,581.01 429.568,581.01 431.381,575.312 432.52,571.789 432.727,571.375 433.712,569.562 435.576,569.562 436.302,569.562 443.657,572.255 444.797,572.255 446.713,568.888 448.785,565.262 450.391,564.848 454.224,563.76 459.612,562.983 463.445,561 465.258,558.114 466.346,558.114 468.21,558.477 470.075,558.787 470.645,558.787 L470.645,536.513 Q467.951,527.293 465.102,514.706 462.927,505.174 461.217,500.823" test="Parrot"/>
      <path id="Layer2_0_6_STROKES" stroke="#F0F" stroke-width="2.072" stroke-linejoin="round" stroke-linecap="round" fill="none" d="M287.221,491.551 L288.257,500.979 Q289.915,511.183 293.282,514.965 294.991,516.881 295.975,519.264 296.545,520.559 297.167,522.527 297.685,523.926 298.565,524.081 299.653,524.237 302.036,523.045 305.196,521.491 307.838,518.435 309.651,516.311 312.137,516.311 314.52,516.311 320.529,517.244 325.864,517.71 328.35,515.638 330.785,513.618 335.706,514.809 338.503,515.483 344.564,516.985 347.62,517.347 352.127,518.228 355.753,518.642 358.705,516.985 361.761,515.275 364.869,515.379 366.838,515.483 371.552,516.311 374.245,516.674 377.198,517.762 379.063,518.124 380.306,515.638 M466.605,500.823 Q469.039,488.391 470.438,479.792 471.577,473.058 473.339,460.212 M426.822,651.199 Q429.723,659.59 430.5,660.833 431.64,662.646 434.54,662.646 435.628,662.646 435.939,662.543 437.389,661.869 438.943,659.279 458.317,678.808 459.56,678.808 467.33,678.808 470.645,665.392 472.665,657.311 472.665,647.521 472.665,641.357 471.318,635.503 470.438,631.67 468.625,626.904" test="Parrot"/>
      <path id="Layer2_0_7_STROKES" stroke="#F60" stroke-width="2.072" stroke-linejoin="round" stroke-linecap="round" fill="none" d="M408.537,591.111 Q408.019,590.282 407.449,589.453 406.258,587.744 405.843,587.744 L405.843,591.111 Q407.138,598.984 415.789,622.242 425.993,649.852 431.173,649.852 433.401,649.852 438.477,645.501 443.191,641.098 443.295,641.098 444.175,641.098 446.662,641.771 449.2,642.444 450.029,642.444 452.567,642.444 455.053,637.368 456.763,633.846 457.177,631.618 463.03,631.618 465.983,628.614 468.936,625.558 471.992,625.558 471.992,623.227 472.354,618.047 472.665,612.867 472.665,612.349 472.665,607.635 469.661,597.171 466.242,585.361 465.931,583.03 465.413,579.404 465.62,573.136 465.931,566.557 465.931,564.175 L465.258,564.175" test="Parrot"/>
    </g>
    <g id="JuryBoxFront">
      <path fill="#000" stroke="none" d="M-2465.769,533.841 L-2490.924,504.456 -2493.01,649.912 Q-2483.786,649.913 -2470.845,649.912 L-2465.769,533.841 M852.863,518.726 L851.34,518.726 831.206,538.522 831.206,645.118 Q843.032,645.137 852.863,645.118 L852.863,518.726 M659.468,532.262 Q575.432,534.179 491.565,538.973 406.457,543.09 321.293,543.598 233.986,544.106 146.679,543.993 61.515,543.88 -23.649,543.598 -113.664,543.316 -203.678,542.244 -292.452,541.229 -381.169,539.763 -469.266,538.353 -557.362,540.609 -644.557,542.808 -731.808,547.546 -816.69,551.212 -901.741,549.915 -991.304,548.505 -1080.811,542.978 -1164.226,537.394 -1247.98,536.21 -1331.34,535.082 -1414.755,535.815 -1504.262,536.604 -1593.769,537.958 -1683.614,539.368 -1773.403,540.722 -1862.571,542.075 -1951.852,543.542 -2038.708,545.008 -2125.621,545.685 -2212.195,546.362 -2298.994,544.67 -2382.636,543.034 -2465.769,533.841 L-2470.845,649.912 Q-2238.525,649.81 -807.271,647.543 555.21,645.338 831.206,645.118 L831.206,538.522 Q745.534,530.344 659.468,532.262 M470.302,520.869 Q464.43,521.144 458.571,521.376 372.899,524.196 287.228,524.196 261.268,524.196 235.283,524.196 172.646,524.213 109.962,524.253 100.67,524.26 91.35,524.253 10.932,524.175 -69.559,523.012 -95.362,522.642 -121.165,521.884 -146.976,521.713 -172.827,521.489 -192.17,521.379 -211.574,521.207 -230.935,520.696 -250.321,520.418 -340.222,519.177 -430.18,518.274 -500.158,517.586 -570.109,520.643 -580.367,521.125 -590.638,521.658 -675.295,525.55 -759.782,530.006 L-940.318,530.908 Q-1030.897,526.565 -1121.362,520.982 -1203.312,515.285 -1285.768,514.496 -1374.937,513.593 -1463.992,514.834 -1550.961,516.075 -1638.043,517.823 -1719.992,519.515 -1801.998,521.264 -1885.357,523.012 -1968.829,524.366 -2056.756,525.776 -2144.91,524.648 -2230.299,523.576 -2315.576,517.936 -2403.334,512.691 -2490.924,504.456 L-2465.769,533.841 Q-2382.636,543.034 -2298.994,544.67 -2212.195,546.362 -2125.621,545.685 -2038.708,545.008 -1951.852,543.542 -1862.571,542.075 -1773.403,540.722 -1683.614,539.368 -1593.769,537.958 -1504.262,536.604 -1414.755,535.815 -1331.34,535.082 -1247.98,536.21 -1164.226,537.394 -1080.811,542.978 -991.304,548.505 -901.741,549.915 -816.69,551.212 -731.808,547.546 -644.557,542.808 -557.362,540.609 -469.266,538.353 -381.169,539.763 -292.452,541.229 -203.678,542.244 -113.664,543.316 -23.649,543.598 61.515,543.88 146.679,543.993 233.986,544.106 321.293,543.598 406.457,543.09 491.565,538.973 575.432,534.179 659.468,532.262 745.534,530.344 831.206,538.522 L851.34,518.726 851.397,517.823 Q830.655,515.955 809.886,514.101 793.984,512.619 778.077,511.563 710.436,507.274 642.548,511.337 556.516,517.305 470.302,520.869Z" test="JuryBoxFront" stroke-width="1.128"/>
      <path id="Layer1_0_1_STROKES" stroke="#F60" stroke-width="2.256" stroke-linejoin="round" stroke-linecap="round" fill="none" d="M851.425,517.851 Q830.655,515.955 809.886,514.101 793.984,512.619 778.077,511.591 710.436,507.274 642.548,511.337 556.516,517.305 470.302,520.897 464.43,521.144 458.571,521.376 372.899,524.196 287.228,524.196 261.268,524.196 235.311,524.196 172.646,524.213 109.962,524.253 100.67,524.26 91.379,524.253 10.932,524.175 -69.559,523.012 -95.362,522.642 -121.165,521.912 -146.976,521.713 -172.799,521.517 -192.17,521.379 -211.546,521.235 -230.935,520.696 -250.321,520.418 -340.222,519.177 -430.18,518.274 -500.158,517.586 -570.081,520.671 -580.367,521.125 -590.638,521.658 -675.295,525.55 -759.782,530.006 L-940.318,530.908 Q-1030.897,526.565 -1121.362,520.982 -1203.312,515.285 -1285.768,514.496 -1374.937,513.593 -1463.992,514.834 -1550.961,516.075 -1638.043,517.823 -1719.992,519.515 -1801.998,521.264 -1885.357,523.012 -1968.829,524.366 -2056.756,525.776 -2144.91,524.648 -2230.299,523.576 -2315.576,517.936 -2403.334,512.691 -2490.924,504.456 L-2465.769,533.841 Q-2382.636,543.034 -2298.994,544.67 -2212.195,546.362 -2125.621,545.685 -2038.708,545.008 -1951.852,543.542 -1862.571,542.075 -1773.403,540.722 -1683.614,539.368 -1593.769,537.958 -1504.262,536.604 -1414.755,535.815 -1331.34,535.082 -1247.98,536.21 -1164.226,537.394 -1080.811,542.978 -991.304,548.505 -901.741,549.915 -816.69,551.212 -731.808,547.546 -644.557,542.808 -557.362,540.609 -469.266,538.353 -381.169,539.763 -292.452,541.229 -203.678,542.244 -113.664,543.316 -23.649,543.598 61.515,543.88 146.679,543.993 233.986,544.106 321.293,543.598 406.457,543.09 491.565,538.973 575.432,534.179 659.468,532.262 745.534,530.344 831.206,538.522 L851.34,518.726 M851.425,517.851 Q852.144,517.927 852.863,517.992 L852.863,518.726 852.863,645.118 852.863,657.752 M831.206,657.752 L831.206,645.146 M-2470.845,649.912 L-2471.184,657.752 M831.206,645.146 L831.206,538.522 M-2493.123,657.752 L-2493.01,649.912 -2490.924,504.456 M-2465.769,533.841 L-2470.845,649.912" test="JuryBoxFront"/>
    </g>
  </g>
</svg>