<?xml version="1.0" encoding="utf-8"?>
<svg id="EdithAnim08" image-rendering="inherit" baseProfile="basic" version="1.1" x="0px" y="0px" width="800" height="600" xmlns="http://www.w3.org/2000/svg" xmlns:xlink="http://www.w3.org/1999/xlink">
  <g id="Nom-rear-the-rearf1r1" overflow="visible">
    <g id="Bec-Noms-the-Rearf0r1">
      <path id="Layer2_0_1_STROKES" stroke="#FEB7AE" stroke-width="2" stroke-linejoin="round" stroke-linecap="round" fill="none" d="M509.4,758.6 Q509.2,758.85 509,759.1" test="Bec Noms the Rear_1"/>
      <g id="Bum-Nom-the-rear">
        <path fill="#000" stroke="none" d="M527.6,680.3 Q527.15,676.5 526.4,672.55 L481.25,689.45 523,732.25 Q525.686,724.509 527.1,716.35 528,711 528.4,705.45 529.25,693.4 527.6,680.3 M424.5,598.6 Q420.322,598.609 416.3,598.85 405.25,599.5 395.35,602.15 364.9,610.25 350.8,635.65 417.6,658.85 417.7,658.95 417.75,659 421.1,628.8 424.45,598.6 424.5,598.6Z" test="Bum Nom the rear"/>
        <path id="Layer3_0_1_STROKES" stroke="#FEB7AE" stroke-width="2" stroke-linejoin="round" stroke-linecap="round" fill="none" d="M350.8,635.65 Q364.9,610.25 395.35,602.15 405.25,599.5 416.3,598.85 420.322,598.609 424.5,598.625 429.824,598.674 435.4,599.15 448.286,600.251 460.25,603.925 M526.4,672.55 Q527.15,676.5 527.6,680.3 529.25,693.4 528.4,705.45 528,711 527.1,716.35 525.686,724.509 523.025,732.25 518.228,746.111 509.4,758.6 M517.5,645.625 Q522.391,654.083 524.6,663.65 525.6,668 526.4,672.55 M274.3,593.6 Q288.15,592.35 303.2,593.75 L308.45,594.3 Q330.25,597.1 343.7,605.95 343.8,606 343.9,606.05 354.1,612.8 358.4,622.75 M345.55,647.35 Q347.8,641.05 350.8,635.65 M211.65,772.95 Q204.6,765.05 199.8,758.9 190.95,747.6 185.3,736.35 168.75,703.2 178.3,668.2 188.2,631.95 219.9,611.85" test="Bum Nom the rear"/>
      </g>
      <g id="Hand-Nom-the-rear">
        <path id="Layer4_0_1_STROKES" stroke="#FFF" stroke-width="2" stroke-linejoin="round" stroke-linecap="round" fill="none" d="M303.25,593.25 Q300.6,591.1 291.75,582.6 284.4,575.55 279.45,572.15 264.05,561.65 247.35,568.25 228.85,575.55 222.95,589.2 219.2,597.9 219.9,611.85 220.1,615.85 220.65,620.3 L222.85,625.2 Q225.9,631.1 229.85,635.95 242.5,651.5 259.85,650.85 278.15,650.15 280.6,627.65 281.5,619.2 279.85,609.7 278.4,601.2 275.8,596.35 275.05,594.9 274.3,593.6" test="Hand Nom the rear"/>
      </g>
      <g id="Hand2-and-Arm-Nom-the-rear">
        <path id="Layer5_0_1_STROKES" stroke="#FFF" stroke-width="2" stroke-linejoin="round" stroke-linecap="round" fill="none" d="M528.35,815.2 Q527.791,814.227 526.9,813.3 524.45,810.7 521.15,811.15 517.8,811.85 515.1,812.3 510.05,813.2 505.35,812.95 491,812.3 477.4,801.75 463.35,790.9 456.5,777.1 452.35,768.75 450.7,758.4 449.75,752.55 456.7,744.9 462.75,738.25 467.35,736.9 471.4,735.75 477.45,736.6 484.25,737.55 488.85,740.7 494.75,744.7 509.4,758.6 M542.65,782.7 L533.25,778.5 Q531.35,772.7 528.2,766.25 521.95,753.3 515.9,750.05 M528.75,816 Q528.578,815.598 528.35,815.2" test="Hand2 and Arm Nom the rear"/>
        <path id="Layer5_0_2_STROKES" stroke="#0FF" stroke-width="2" stroke-linejoin="round" stroke-linecap="round" fill="none" d="M560.5,692.8 Q564.31,696.783 568.6,701.7 585.1,720.6 594.7,739.3 602.2,753.9 618.75,785.3 630.55,809.123 633.65,822.925 634.15,824.474 634.45,826 635.391,830.608 634.6,835.05 632.4,847.25 617.25,847.55 602.55,847.8 580.6,841.55 562.35,836.3 551.3,830.55 545.1,827.35 534.5,821.35 527.493,817.391 527.075,817.325 527.503,816.775 528.35,815.2 M524.15,736.85 Q528.681,743.129 537,755.45 549.8,774.5 550.3,777.45 550.75,779.95 550.45,781.8 550.378,782.197 550.325,782.575 554.212,781.986 557.9,782.3 561.45,782.6 571,785.25 581.65,788.25 592.3,792.15 621.35,802.8 628,812.15 631.927,817.639 633.65,822.925 M550.325,782.575 Q550.14,784.025 550.3,785.1 M528.35,815.2 Q530.385,811.449 534.8,801.85 540.35,789.7 542.3,784.75 L546.9,783.25 Q548.633,782.824 550.325,782.575 M345.5,603.15 Q361.25,590.55 381.15,588.15 389.3,586.95 397.55,586.1" test="Hand2 and Arm Nom the rear"/>
      </g>
      <g id="Nom-Bec-Head">
        <path id="Layer6_0_1_STROKES" stroke="#00F" stroke-width="2" stroke-linejoin="round" stroke-linecap="round" fill="none" d="M395.35,602.15 Q399.25,589.85 404.8,575.1 415.9,545.6 424.35,533.2 436.45,515.45 452,501 471.2,483.1 488.5,477.65 530.65,464.45 571.45,492.25 597.4,509.95 609,524 624.35,542.6 623.15,563.05 622,582.55 611.9,604.75 605.95,617.9 594.7,635.55 588,646.1 566.25,677.65 545.4,707.85 543,710.85 541.15,713.1 532.3,707.85 530.4,706.75 528.4,705.45 M416.3,598.85 Q421.15,584.55 426.05,571.7 438.6,538.85 446.2,530.4 L456.85,517.95 Q467.85,505.4 469.8,504.75 471.75,504.1 481.35,510.65 486.8,514.45 498.6,523.1 504,526.95 550.9,560.3 595.45,592.2 597.45,594.6 599.75,597.35 599.6,598.8 599.5,600.1 597.1,602.25 595.1,604.05 571.45,630.2 550.5,653.3 544.4,660.2 537.2,668.9 532.4,674.6 529.75,677.8 527.6,680.3" test="Nom Bec Head"/>
        <path id="Layer6_0_2_STROKES" stroke="#FFF" stroke-width="2" stroke-linejoin="round" stroke-linecap="round" fill="none" d="M487.15,529.4 Q503.85,525.55 511.05,541.05 511.25,541.45 511.4,541.9 M560.7,584.95 Q560.7,586.4 559.65,587.4 558.65,588.45 557.2,588.45 555.75,588.45 554.7,587.4 553.7,586.4 553.7,584.95 553.7,583.5 554.7,582.45 555.75,581.45 557.2,581.45 558.65,581.45 559.65,582.45 560.7,583.5 560.7,584.95Z M552.95,572.4 Q570.1,571.65 574.35,588.2 574.45,588.6 574.55,589.1 M498.95,548.5 Q498.95,549.95 497.9,550.95 496.9,552 495.45,552 494,552 492.95,550.95 491.95,549.95 491.95,548.5 491.95,547.05 492.95,546 494,545 495.45,545 496.9,545 497.9,546 498.95,547.05 498.95,548.5Z M473.25,588.05 Q467.45,594.75 460.175,596.2 459.75,598.483 459.75,600.55 460.9,606.4 464.3,611.2 465.2,612.45 466.125,613.7 466.338,613.947 466.55,614.2 473.4,622.35 480.55,627.95 483.4,630.2 488.45,634.35 492.75,637.85 496.2,639.85 505.4,645.1 519.4,646 519.869,646.028 520.325,646.05 519.187,639.791 520.9,635.7 522.85,630.85 531.2,622.05 M460.25,595.85 L460.175,596.2 Q458.95,596.45 457.175,596.525 448.2,596.85 440.3,590.15 M520.325,646.05 Q520.384,646.374 520.45,646.7 L520.75,648 Q521.3,649.6 522.45,651.25 526,656.55 534,660.2" test="Nom Bec Head"/>
      </g>
    </g>
    <g id="BlackMaskRect">
      <path fill="#000" stroke="none" d="M827.6,625.818 L827.6,424.8 -19.45,424.8 -19.45,625.818 827.6,625.818Z" test="BlackMaskRect" stroke-width="1.454"/>
    </g>
  </g>
</svg>