<?xml version="1.0" encoding="utf-8"?>
<svg id="EdithAnim08" image-rendering="inherit" baseProfile="basic" version="1.1" x="0px" y="0px" width="800" height="600" xmlns="http://www.w3.org/2000/svg" xmlns:xlink="http://www.w3.org/1999/xlink">
  <g id="Nom-rear-the-rearf12r1" overflow="visible">
    <g id="Bec-Noms-the-Rearf0r1">
      <path id="Layer2_0_1_STROKES" stroke="#FEB7AE" stroke-width="2" stroke-linejoin="round" stroke-linecap="round" fill="none" d="M509.4,637 Q509.2,637.25 509,637.5" test="Bec Noms the Rear_2.3242325232423263e+312.3242325232423263e+31_2324232523242325"/>
      <g id="Bum-Nom-the-rear">
        <path fill="#000" stroke="none" d="M527.6,558.7 Q527.15,554.9 526.4,550.95 L481.25,567.85 523,610.65 Q525.686,602.909 527.1,594.75 528,589.4 528.4,583.85 529.25,571.8 527.6,558.7 M424.5,477 Q420.322,477.009 416.3,477.25 405.25,477.9 395.35,480.55 364.9,488.65 350.8,514.05 417.6,537.25 417.7,537.35 417.75,537.4 421.1,507.2 424.45,477 424.5,477Z" test="Bum Nom the rear"/>
        <path id="Layer3_0_1_STROKES" stroke="#FEB7AE" stroke-width="2" stroke-linejoin="round" stroke-linecap="round" fill="none" d="M350.8,514.05 Q364.9,488.65 395.35,480.55 405.25,477.9 416.3,477.25 420.322,477.009 424.5,477.025 429.824,477.074 435.4,477.55 448.286,478.651 460.25,482.325 M526.4,550.95 Q527.15,554.9 527.6,558.7 529.25,571.8 528.4,583.85 528,589.4 527.1,594.75 525.686,602.909 523.025,610.65 518.228,624.511 509.4,637 M517.5,524.025 Q522.391,532.483 524.6,542.05 525.6,546.4 526.4,550.95 M274.3,472 Q288.15,470.75 303.2,472.15 L308.45,472.7 Q330.25,475.5 343.7,484.35 343.8,484.4 343.9,484.45 354.1,491.2 358.4,501.15 M345.55,525.75 Q347.8,519.45 350.8,514.05 M211.65,651.35 Q204.6,643.45 199.8,637.3 190.95,626 185.3,614.75 168.75,581.6 178.3,546.6 188.2,510.35 219.9,490.25" test="Bum Nom the rear"/>
      </g>
      <g id="Hand-Nom-the-rear">
        <path id="Layer4_0_1_STROKES" stroke="#FFF" stroke-width="2" stroke-linejoin="round" stroke-linecap="round" fill="none" d="M303.25,471.65 Q300.6,469.5 291.75,461 284.4,453.95 279.45,450.55 264.05,440.05 247.35,446.65 228.85,453.95 222.95,467.6 219.2,476.3 219.9,490.25 220.1,494.25 220.65,498.7 L222.85,503.6 Q225.9,509.5 229.85,514.35 242.5,529.9 259.85,529.25 278.15,528.55 280.6,506.05 281.5,497.6 279.85,488.1 278.4,479.6 275.8,474.75 275.05,473.3 274.3,472" test="Hand Nom the rear"/>
      </g>
      <g id="Hand2-and-Arm-Nom-the-rear">
        <path id="Layer5_0_1_STROKES" stroke="#FFF" stroke-width="2" stroke-linejoin="round" stroke-linecap="round" fill="none" d="M528.35,693.6 Q527.791,692.627 526.9,691.7 524.45,689.1 521.15,689.55 517.8,690.25 515.1,690.7 510.05,691.6 505.35,691.35 491,690.7 477.4,680.15 463.35,669.3 456.5,655.5 452.35,647.15 450.7,636.8 449.75,630.95 456.7,623.3 462.75,616.65 467.35,615.3 471.4,614.15 477.45,615 484.25,615.95 488.85,619.1 494.75,623.1 509.4,637 M542.65,661.1 L533.25,656.9 Q531.35,651.1 528.2,644.65 521.95,631.7 515.9,628.45 M528.75,694.4 Q528.578,693.998 528.35,693.6" test="Hand2 and Arm Nom the rear"/>
        <path id="Layer5_0_2_STROKES" stroke="#0FF" stroke-width="2" stroke-linejoin="round" stroke-linecap="round" fill="none" d="M560.5,571.2 Q564.31,575.183 568.6,580.1 585.1,599 594.7,617.7 602.2,632.3 618.75,663.7 630.55,687.523 633.65,701.325 634.15,702.874 634.45,704.4 635.391,709.008 634.6,713.45 632.4,725.65 617.25,725.95 602.55,726.2 580.6,719.95 562.35,714.7 551.3,708.95 545.1,705.75 534.5,699.75 527.493,695.791 527.075,695.725 527.503,695.175 528.35,693.6 M524.15,615.25 Q528.681,621.529 537,633.85 549.8,652.9 550.3,655.85 550.75,658.35 550.45,660.2 550.378,660.597 550.325,660.975 554.212,660.386 557.9,660.7 561.45,661 571,663.65 581.65,666.65 592.3,670.55 621.35,681.2 628,690.55 631.927,696.039 633.65,701.325 M550.325,660.975 Q550.14,662.425 550.3,663.5 M528.35,693.6 Q530.385,689.849 534.8,680.25 540.35,668.1 542.3,663.15 L546.9,661.65 Q548.633,661.224 550.325,660.975 M345.5,481.55 Q361.25,468.95 381.15,466.55 389.3,465.35 397.55,464.5" test="Hand2 and Arm Nom the rear"/>
      </g>
      <g id="Nom-Bec-Head">
        <path id="Layer6_0_1_STROKES" stroke="#00F" stroke-width="2" stroke-linejoin="round" stroke-linecap="round" fill="none" d="M395.35,480.55 Q399.25,468.25 404.8,453.5 415.9,424 424.35,411.6 436.45,393.85 452,379.4 471.2,361.5 488.5,356.05 530.65,342.85 571.45,370.65 597.4,388.35 609,402.4 624.35,421 623.15,441.45 622,460.95 611.9,483.15 605.95,496.3 594.7,513.95 588,524.5 566.25,556.05 545.4,586.25 543,589.25 541.15,591.5 532.3,586.25 530.4,585.15 528.4,583.85 M416.3,477.25 Q421.15,462.95 426.05,450.1 438.6,417.25 446.2,408.8 L456.85,396.35 Q467.85,383.8 469.8,383.15 471.75,382.5 481.35,389.05 486.8,392.85 498.6,401.5 504,405.35 550.9,438.7 595.45,470.6 597.45,473 599.75,475.75 599.6,477.2 599.5,478.5 597.1,480.65 595.1,482.45 571.45,508.6 550.5,531.7 544.4,538.6 537.2,547.3 532.4,553 529.75,556.2 527.6,558.7" test="Nom Bec Head"/>
        <path id="Layer6_0_2_STROKES" stroke="#FFF" stroke-width="2" stroke-linejoin="round" stroke-linecap="round" fill="none" d="M487.15,407.8 Q503.85,403.95 511.05,419.45 511.25,419.85 511.4,420.3 M560.7,463.35 Q560.7,464.8 559.65,465.8 558.65,466.85 557.2,466.85 555.75,466.85 554.7,465.8 553.7,464.8 553.7,463.35 553.7,461.9 554.7,460.85 555.75,459.85 557.2,459.85 558.65,459.85 559.65,460.85 560.7,461.9 560.7,463.35Z M552.95,450.8 Q570.1,450.05 574.35,466.6 574.45,467 574.55,467.5 M498.95,426.9 Q498.95,428.35 497.9,429.35 496.9,430.4 495.45,430.4 494,430.4 492.95,429.35 491.95,428.35 491.95,426.9 491.95,425.45 492.95,424.4 494,423.4 495.45,423.4 496.9,423.4 497.9,424.4 498.95,425.45 498.95,426.9Z M473.25,466.45 Q467.45,473.15 460.175,474.6 459.75,476.883 459.75,478.95 460.9,484.8 464.3,489.6 465.2,490.85 466.125,492.1 466.338,492.347 466.55,492.6 473.4,500.75 480.55,506.35 483.4,508.6 488.45,512.75 492.75,516.25 496.2,518.25 505.4,523.5 519.4,524.4 519.869,524.428 520.325,524.45 519.187,518.191 520.9,514.1 522.85,509.25 531.2,500.45 M460.25,474.25 L460.175,474.6 Q458.95,474.85 457.175,474.925 448.2,475.25 440.3,468.55 M520.325,524.45 Q520.384,524.774 520.45,525.1 L520.75,526.4 Q521.3,528 522.45,529.65 526,534.95 534,538.6" test="Nom Bec Head"/>
      </g>
    </g>
    <g id="BlackMaskRect">
      <path fill="#000" stroke="none" d="M827.6,625.818 L827.6,424.8 -19.45,424.8 -19.45,625.818 827.6,625.818Z" test="BlackMaskRect" stroke-width="1.454"/>
    </g>
  </g>
</svg>