<?xml version="1.0" encoding="utf-8"?>
<svg id="EdithAnim08" image-rendering="inherit" baseProfile="basic" version="1.1" x="0px" y="0px" width="800" height="600" xmlns="http://www.w3.org/2000/svg" xmlns:xlink="http://www.w3.org/1999/xlink">
  <g id="Nom-rear-the-rearf127r1" overflow="visible">
    <g id="Bec-Noms-the-Rearf67r1">
      <path id="Layer2_0_1_STROKES" stroke="#FEB7AE" stroke-width="2" stroke-linejoin="round" stroke-linecap="round" fill="none" d="M509.4,376.65 Q509.2,376.9 509,377.15" test="Bec Noms the Rear_1"/>
      <path id="Layer2_0_2_STROKES" stroke="#FFF" stroke-width="2" stroke-linejoin="round" stroke-linecap="round" fill="none" d="M498.725,141.25 Q512.3,139.988 518.6,153.55 518.8,153.95 518.95,154.4 M494.7,141.9 Q496.787,141.419 498.725,141.25 M581.9,200.75 L581.9,200.7 Q577.65,184.15 560.5,184.9 M488.15,161.7 Q490.85,158.95 496.25,158.95 500.3,158.95 501.65,160.3 503.05,161.65 503.05,165.7 L502.7,170.35 502.35,170.35 M446.85,196.4 Q453,203.1 455.6,205.1 460.4,208.85 465.4,208.85 468.15,208.85 470.5,206.9 471.859,205.735 474.45,202.825 M461.75,209.9 Q461.4,211.9 461.05,215.7 460.708,219.603 464.325,231.175 467.928,242.738 473.725,247.175 479.529,251.616 491.6,256.7 506.4,261.639 514.425,258.35 522.447,255.057 533.925,244.425 533.2,242.882 533.2,240.8 533.2,236.4 535.55,231.85 538.15,226.85 542.25,224.5 M552.65,204.05 Q554.6,203.75 557.3,202.8 559.65,201.95 560.1,201.95 563.3,201.95 564.1,203.35 564.45,203.95 564.45,206.45 564.45,209.2 563.8,210.95 563.25,212.1 563.4,212 M537.05,241.5 Q535.496,243.054 533.925,244.425 534.801,246.266 536.7,247.35 539.75,249.1 545.9,249.1 546.95,249.1 551.05,247.9 555.15,246.65 556.1,246.65 L556.1,246.3 Q555.1,246.3 554.75,245.95 M581.9,200.75 Q582.005,201.128 582.1,201.6" test="Bec Noms the Rear_1"/>
      <path id="Layer2_0_3_STROKES" stroke="#00F" stroke-width="2" stroke-linejoin="round" stroke-linecap="round" fill="none" d="M498.725,141.25 Q498.66,141.194 498.6,141.15 486.8,132.5 481.35,128.7 471.75,122.15 469.8,122.8 467.85,123.45 456.85,136 L446.2,148.45 Q438.6,156.9 426.05,189.75 421.15,202.6 416.3,216.9 M498.725,141.25 Q499.872,142.058 502.6,144 505.838,146.304 511.3,150.2 524.554,159.617 550.9,178.35 557.802,183.293 563.675,187.525 569.922,192.023 575.025,195.725 578.781,198.452 581.9,200.75 M395.35,220.2 Q399.25,207.9 404.8,193.15 415.9,163.65 424.35,151.25 436.45,133.5 452,119.05 471.2,101.15 488.5,95.7 530.65,82.5 571.45,110.3 597.4,128 609,142.05 624.35,160.65 623.15,181.1 622,200.6 611.9,222.8 605.95,235.95 594.7,253.6 588,264.15 566.25,295.7 545.4,325.9 543,328.9 541.15,331.15 532.3,325.9 530.4,324.8 528.4,323.5 M581.9,200.75 Q596.331,211.309 597.45,212.65 599.75,215.4 599.6,216.85 599.5,218.15 597.1,220.3 595.1,222.1 571.45,248.25 561.947,258.728 555.5,265.875 547.733,274.48 544.4,278.25 539.901,283.685 536.35,287.95 534.201,290.511 532.4,292.65 529.75,295.85 527.6,298.35" test="Bec Noms the Rear_1"/>
      <g id="Bum-Nom-the-rear">
        <path fill="#000" stroke="none" d="M527.6,298.35 Q527.15,294.55 526.4,290.6 L481.25,307.5 523,350.3 Q525.686,342.559 527.1,334.4 528,329.05 528.4,323.5 529.25,311.45 527.6,298.35 M424.5,216.65 Q420.322,216.659 416.3,216.9 405.25,217.55 395.35,220.2 364.9,228.3 350.8,253.7 417.6,276.9 417.7,277 417.75,277.05 421.1,246.85 424.45,216.65 424.5,216.65Z" test="Bum Nom the rear"/>
        <path id="Layer3_0_1_STROKES" stroke="#FEB7AE" stroke-width="2" stroke-linejoin="round" stroke-linecap="round" fill="none" d="M350.8,253.7 Q364.9,228.3 395.35,220.2 405.25,217.55 416.3,216.9 420.322,216.659 424.5,216.675 429.824,216.724 435.4,217.2 448.286,218.301 460.25,221.975 M526.4,290.6 Q527.15,294.55 527.6,298.35 529.25,311.45 528.4,323.5 528,329.05 527.1,334.4 525.686,342.559 523.025,350.3 518.228,364.161 509.4,376.65 M517.5,263.675 Q522.391,272.133 524.6,281.7 525.6,286.05 526.4,290.6 M274.3,211.65 Q288.15,210.4 303.2,211.8 L308.45,212.35 Q330.25,215.15 343.7,224 343.8,224.05 343.9,224.1 354.1,230.85 358.4,240.8 M345.55,265.4 Q347.8,259.1 350.8,253.7 M211.65,391 Q204.6,383.1 199.8,376.95 190.95,365.65 185.3,354.4 168.75,321.25 178.3,286.25 188.2,250 219.9,229.9" test="Bum Nom the rear"/>
      </g>
      <g id="Hand-Nom-the-rear">
        <path id="Layer4_0_1_STROKES" stroke="#FFF" stroke-width="2" stroke-linejoin="round" stroke-linecap="round" fill="none" d="M303.25,211.3 Q300.6,209.15 291.75,200.65 284.4,193.6 279.45,190.2 264.05,179.7 247.35,186.3 228.85,193.6 222.95,207.25 219.2,215.95 219.9,229.9 220.1,233.9 220.65,238.35 L222.85,243.25 Q225.9,249.15 229.85,254 242.5,269.55 259.85,268.9 278.15,268.2 280.6,245.7 281.5,237.25 279.85,227.75 278.4,219.25 275.8,214.4 275.05,212.95 274.3,211.65" test="Hand Nom the rear"/>
      </g>
      <g id="Hand2-and-Arm-Nom-the-rear">
        <path id="Layer5_0_1_STROKES" stroke="#FFF" stroke-width="2" stroke-linejoin="round" stroke-linecap="round" fill="none" d="M528.35,433.25 Q527.791,432.277 526.9,431.35 524.45,428.75 521.15,429.2 517.8,429.9 515.1,430.35 510.05,431.25 505.35,431 491,430.35 477.4,419.8 463.35,408.95 456.5,395.15 452.35,386.8 450.7,376.45 449.75,370.6 456.7,362.95 462.75,356.3 467.35,354.95 471.4,353.8 477.45,354.65 484.25,355.6 488.85,358.75 494.75,362.75 509.4,376.65 M542.65,400.75 L533.25,396.55 Q531.35,390.75 528.2,384.3 521.95,371.35 515.9,368.1 M528.75,434.05 Q528.578,433.648 528.35,433.25" test="Hand2 and Arm Nom the rear"/>
        <path id="Layer5_0_2_STROKES" stroke="#0FF" stroke-width="2" stroke-linejoin="round" stroke-linecap="round" fill="none" d="M560.5,310.85 Q564.31,314.833 568.6,319.75 585.1,338.65 594.7,357.35 602.2,371.95 618.75,403.35 630.55,427.173 633.65,440.975 634.15,442.524 634.45,444.05 635.391,448.658 634.6,453.1 632.4,465.3 617.25,465.6 602.55,465.85 580.6,459.6 562.35,454.35 551.3,448.6 545.1,445.4 534.5,439.4 527.493,435.441 527.075,435.375 527.503,434.825 528.35,433.25 M524.15,354.9 Q528.681,361.179 537,373.5 549.8,392.55 550.3,395.5 550.75,398 550.45,399.85 550.378,400.247 550.325,400.625 554.212,400.036 557.9,400.35 561.45,400.65 571,403.3 581.65,406.3 592.3,410.2 621.35,420.85 628,430.2 631.927,435.689 633.65,440.975 M550.325,400.625 Q550.14,402.075 550.3,403.15 M528.35,433.25 Q530.385,429.499 534.8,419.9 540.35,407.75 542.3,402.8 L546.9,401.3 Q548.633,400.874 550.325,400.625 M345.5,221.2 Q361.25,208.6 381.15,206.2 389.3,205 397.55,204.15" test="Hand2 and Arm Nom the rear"/>
      </g>
    </g>
    <g id="BlackMaskRect">
      <path fill="#000" stroke="none" d="M827.6,625.818 L827.6,424.8 -19.45,424.8 -19.45,625.818 827.6,625.818Z" test="BlackMaskRect" stroke-width="1.454"/>
    </g>
  </g>
</svg>