<?xml version="1.0" encoding="utf-8"?>
<svg id="EdithAnim08" image-rendering="inherit" baseProfile="basic" version="1.1" x="0px" y="0px" width="800" height="600" xmlns="http://www.w3.org/2000/svg" xmlns:xlink="http://www.w3.org/1999/xlink">
  <g id="Nom-rear-the-rearf134r1" overflow="visible">
    <g id="Bec-Noms-the-Rearf67r1">
      <path id="Layer2_0_1_STROKES" stroke="#FEB7AE" stroke-width="2" stroke-linejoin="round" stroke-linecap="round" fill="none" d="M509.4,383.3 Q509.2,383.55 509,383.8" test="Bec Noms the Rear_2.3242325232423263e+312.3242325232423263e+31_1"/>
      <path id="Layer2_0_2_STROKES" stroke="#FFF" stroke-width="2" stroke-linejoin="round" stroke-linecap="round" fill="none" d="M498.725,147.9 Q512.3,146.638 518.6,160.2 518.8,160.6 518.95,161.05 M494.7,148.55 Q496.787,148.069 498.725,147.9 M581.9,207.4 L581.9,207.35 Q577.65,190.8 560.5,191.55 M488.15,168.35 Q490.85,165.6 496.25,165.6 500.3,165.6 501.65,166.95 503.05,168.3 503.05,172.35 L502.7,177 502.35,177 M446.85,203.05 Q453,209.75 455.6,211.75 460.4,215.5 465.4,215.5 468.15,215.5 470.5,213.55 471.859,212.385 474.45,209.475 M461.75,216.55 Q461.4,218.55 461.05,222.35 460.708,226.253 464.325,237.825 467.928,249.388 473.725,253.825 479.529,258.266 491.6,263.35 506.4,268.289 514.425,265 522.447,261.707 533.925,251.075 533.2,249.532 533.2,247.45 533.2,243.05 535.55,238.5 538.15,233.5 542.25,231.15 M552.65,210.7 Q554.6,210.4 557.3,209.45 559.65,208.6 560.1,208.6 563.3,208.6 564.1,210 564.45,210.6 564.45,213.1 564.45,215.85 563.8,217.6 563.25,218.75 563.4,218.65 M537.05,248.15 Q535.496,249.704 533.925,251.075 534.801,252.916 536.7,254 539.75,255.75 545.9,255.75 546.95,255.75 551.05,254.55 555.15,253.3 556.1,253.3 L556.1,252.95 Q555.1,252.95 554.75,252.6 M581.9,207.4 Q582.005,207.778 582.1,208.25" test="Bec Noms the Rear_2.3242325232423263e+312.3242325232423263e+31_1"/>
      <path id="Layer2_0_3_STROKES" stroke="#00F" stroke-width="2" stroke-linejoin="round" stroke-linecap="round" fill="none" d="M498.725,147.9 Q498.66,147.844 498.6,147.8 486.8,139.15 481.35,135.35 471.75,128.8 469.8,129.45 467.85,130.1 456.85,142.65 L446.2,155.1 Q438.6,163.55 426.05,196.4 421.15,209.25 416.3,223.55 M498.725,147.9 Q499.872,148.708 502.6,150.65 505.838,152.954 511.3,156.85 524.554,166.267 550.9,185 557.802,189.943 563.675,194.175 569.922,198.673 575.025,202.375 578.781,205.102 581.9,207.4 M395.35,226.85 Q399.25,214.55 404.8,199.8 415.9,170.3 424.35,157.9 436.45,140.15 452,125.7 471.2,107.8 488.5,102.35 530.65,89.15 571.45,116.95 597.4,134.65 609,148.7 624.35,167.3 623.15,187.75 622,207.25 611.9,229.45 605.95,242.6 594.7,260.25 588,270.8 566.25,302.35 545.4,332.55 543,335.55 541.15,337.8 532.3,332.55 530.4,331.45 528.4,330.15 M581.9,207.4 Q596.331,217.959 597.45,219.3 599.75,222.05 599.6,223.5 599.5,224.8 597.1,226.95 595.1,228.75 571.45,254.9 561.947,265.378 555.5,272.525 547.733,281.13 544.4,284.9 539.901,290.335 536.35,294.6 534.201,297.161 532.4,299.3 529.75,302.5 527.6,305" test="Bec Noms the Rear_2.3242325232423263e+312.3242325232423263e+31_1"/>
      <g id="Bum-Nom-the-rear">
        <path fill="#000" stroke="none" d="M527.6,305 Q527.15,301.2 526.4,297.25 L481.25,314.15 523,356.95 Q525.686,349.209 527.1,341.05 528,335.7 528.4,330.15 529.25,318.1 527.6,305 M424.5,223.3 Q420.322,223.309 416.3,223.55 405.25,224.2 395.35,226.85 364.9,234.95 350.8,260.35 417.6,283.55 417.7,283.65 417.75,283.7 421.1,253.5 424.45,223.3 424.5,223.3Z" test="Bum Nom the rear"/>
        <path id="Layer3_0_1_STROKES" stroke="#FEB7AE" stroke-width="2" stroke-linejoin="round" stroke-linecap="round" fill="none" d="M350.8,260.35 Q364.9,234.95 395.35,226.85 405.25,224.2 416.3,223.55 420.322,223.309 424.5,223.325 429.824,223.374 435.4,223.85 448.286,224.951 460.25,228.625 M526.4,297.25 Q527.15,301.2 527.6,305 529.25,318.1 528.4,330.15 528,335.7 527.1,341.05 525.686,349.209 523.025,356.95 518.228,370.811 509.4,383.3 M517.5,270.325 Q522.391,278.783 524.6,288.35 525.6,292.7 526.4,297.25 M274.3,218.3 Q288.15,217.05 303.2,218.45 L308.45,219 Q330.25,221.8 343.7,230.65 343.8,230.7 343.9,230.75 354.1,237.5 358.4,247.45 M345.55,272.05 Q347.8,265.75 350.8,260.35 M211.65,397.65 Q204.6,389.75 199.8,383.6 190.95,372.3 185.3,361.05 168.75,327.9 178.3,292.9 188.2,256.65 219.9,236.55" test="Bum Nom the rear"/>
      </g>
      <g id="Hand-Nom-the-rear">
        <path id="Layer4_0_1_STROKES" stroke="#FFF" stroke-width="2" stroke-linejoin="round" stroke-linecap="round" fill="none" d="M303.25,217.95 Q300.6,215.8 291.75,207.3 284.4,200.25 279.45,196.85 264.05,186.35 247.35,192.95 228.85,200.25 222.95,213.9 219.2,222.6 219.9,236.55 220.1,240.55 220.65,245 L222.85,249.9 Q225.9,255.8 229.85,260.65 242.5,276.2 259.85,275.55 278.15,274.85 280.6,252.35 281.5,243.9 279.85,234.4 278.4,225.9 275.8,221.05 275.05,219.6 274.3,218.3" test="Hand Nom the rear"/>
      </g>
      <g id="Hand2-and-Arm-Nom-the-rear">
        <path id="Layer5_0_1_STROKES" stroke="#FFF" stroke-width="2" stroke-linejoin="round" stroke-linecap="round" fill="none" d="M528.35,439.9 Q527.791,438.927 526.9,438 524.45,435.4 521.15,435.85 517.8,436.55 515.1,437 510.05,437.9 505.35,437.65 491,437 477.4,426.45 463.35,415.6 456.5,401.8 452.35,393.45 450.7,383.1 449.75,377.25 456.7,369.6 462.75,362.95 467.35,361.6 471.4,360.45 477.45,361.3 484.25,362.25 488.85,365.4 494.75,369.4 509.4,383.3 M542.65,407.4 L533.25,403.2 Q531.35,397.4 528.2,390.95 521.95,378 515.9,374.75 M528.75,440.7 Q528.578,440.298 528.35,439.9" test="Hand2 and Arm Nom the rear"/>
        <path id="Layer5_0_2_STROKES" stroke="#0FF" stroke-width="2" stroke-linejoin="round" stroke-linecap="round" fill="none" d="M560.5,317.5 Q564.31,321.483 568.6,326.4 585.1,345.3 594.7,364 602.2,378.6 618.75,410 630.55,433.823 633.65,447.625 634.15,449.174 634.45,450.7 635.391,455.308 634.6,459.75 632.4,471.95 617.25,472.25 602.55,472.5 580.6,466.25 562.35,461 551.3,455.25 545.1,452.05 534.5,446.05 527.493,442.091 527.075,442.025 527.503,441.475 528.35,439.9 M524.15,361.55 Q528.681,367.829 537,380.15 549.8,399.2 550.3,402.15 550.75,404.65 550.45,406.5 550.378,406.897 550.325,407.275 554.212,406.686 557.9,407 561.45,407.3 571,409.95 581.65,412.95 592.3,416.85 621.35,427.5 628,436.85 631.927,442.339 633.65,447.625 M550.325,407.275 Q550.14,408.725 550.3,409.8 M528.35,439.9 Q530.385,436.149 534.8,426.55 540.35,414.4 542.3,409.45 L546.9,407.95 Q548.633,407.524 550.325,407.275 M345.5,227.85 Q361.25,215.25 381.15,212.85 389.3,211.65 397.55,210.8" test="Hand2 and Arm Nom the rear"/>
      </g>
    </g>
    <g id="BlackMaskRect">
      <path fill="#000" stroke="none" d="M827.6,625.818 L827.6,424.8 -19.45,424.8 -19.45,625.818 827.6,625.818Z" test="BlackMaskRect" stroke-width="1.454"/>
    </g>
  </g>
</svg>