<?xml version="1.0" encoding="utf-8"?>
<svg id="EdithAnim08" image-rendering="inherit" baseProfile="basic" version="1.1" x="0px" y="0px" width="800" height="600" xmlns="http://www.w3.org/2000/svg" xmlns:xlink="http://www.w3.org/1999/xlink">
  <g id="Nom-rear-the-rearf136r1" overflow="visible">
    <g id="Bec-Noms-the-Rearf67r1">
      <path id="Layer2_0_1_STROKES" stroke="#FEB7AE" stroke-width="2" stroke-linejoin="round" stroke-linecap="round" fill="none" d="M509.4,391.65 Q509.2,391.9 509,392.15" test="Bec Noms the Rear_2.3242325232423263e+312.3242325232423263e+31_2323"/>
      <path id="Layer2_0_2_STROKES" stroke="#FFF" stroke-width="2" stroke-linejoin="round" stroke-linecap="round" fill="none" d="M498.725,156.25 Q512.3,154.988 518.6,168.55 518.8,168.95 518.95,169.4 M494.7,156.9 Q496.787,156.419 498.725,156.25 M581.9,215.75 L581.9,215.7 Q577.65,199.15 560.5,199.9 M488.15,176.7 Q490.85,173.95 496.25,173.95 500.3,173.95 501.65,175.3 503.05,176.65 503.05,180.7 L502.7,185.35 502.35,185.35 M446.85,211.4 Q453,218.1 455.6,220.1 460.4,223.85 465.4,223.85 468.15,223.85 470.5,221.9 471.859,220.735 474.45,217.825 M461.75,224.9 Q461.4,226.9 461.05,230.7 460.708,234.603 464.325,246.175 467.928,257.738 473.725,262.175 479.529,266.616 491.6,271.7 506.4,276.639 514.425,273.35 522.447,270.057 533.925,259.425 533.2,257.882 533.2,255.8 533.2,251.4 535.55,246.85 538.15,241.85 542.25,239.5 M552.65,219.05 Q554.6,218.75 557.3,217.8 559.65,216.95 560.1,216.95 563.3,216.95 564.1,218.35 564.45,218.95 564.45,221.45 564.45,224.2 563.8,225.95 563.25,227.1 563.4,227 M537.05,256.5 Q535.496,258.054 533.925,259.425 534.801,261.266 536.7,262.35 539.75,264.1 545.9,264.1 546.95,264.1 551.05,262.9 555.15,261.65 556.1,261.65 L556.1,261.3 Q555.1,261.3 554.75,260.95 M581.9,215.75 Q582.005,216.128 582.1,216.6" test="Bec Noms the Rear_2.3242325232423263e+312.3242325232423263e+31_2323"/>
      <path id="Layer2_0_3_STROKES" stroke="#00F" stroke-width="2" stroke-linejoin="round" stroke-linecap="round" fill="none" d="M498.725,156.25 Q498.66,156.194 498.6,156.15 486.8,147.5 481.35,143.7 471.75,137.15 469.8,137.8 467.85,138.45 456.85,151 L446.2,163.45 Q438.6,171.9 426.05,204.75 421.15,217.6 416.3,231.9 M498.725,156.25 Q499.872,157.058 502.6,159 505.838,161.304 511.3,165.2 524.554,174.617 550.9,193.35 557.802,198.293 563.675,202.525 569.922,207.023 575.025,210.725 578.781,213.452 581.9,215.75 M395.35,235.2 Q399.25,222.9 404.8,208.15 415.9,178.65 424.35,166.25 436.45,148.5 452,134.05 471.2,116.15 488.5,110.7 530.65,97.5 571.45,125.3 597.4,143 609,157.05 624.35,175.65 623.15,196.1 622,215.6 611.9,237.8 605.95,250.95 594.7,268.6 588,279.15 566.25,310.7 545.4,340.9 543,343.9 541.15,346.15 532.3,340.9 530.4,339.8 528.4,338.5 M581.9,215.75 Q596.331,226.309 597.45,227.65 599.75,230.4 599.6,231.85 599.5,233.15 597.1,235.3 595.1,237.1 571.45,263.25 561.947,273.728 555.5,280.875 547.733,289.48 544.4,293.25 539.901,298.685 536.35,302.95 534.201,305.511 532.4,307.65 529.75,310.85 527.6,313.35" test="Bec Noms the Rear_2.3242325232423263e+312.3242325232423263e+31_2323"/>
      <g id="Bum-Nom-the-rear">
        <path fill="#000" stroke="none" d="M527.6,313.35 Q527.15,309.55 526.4,305.6 L481.25,322.5 523,365.3 Q525.686,357.559 527.1,349.4 528,344.05 528.4,338.5 529.25,326.45 527.6,313.35 M424.5,231.65 Q420.322,231.659 416.3,231.9 405.25,232.55 395.35,235.2 364.9,243.3 350.8,268.7 417.6,291.9 417.7,292 417.75,292.05 421.1,261.85 424.45,231.65 424.5,231.65Z" test="Bum Nom the rear"/>
        <path id="Layer3_0_1_STROKES" stroke="#FEB7AE" stroke-width="2" stroke-linejoin="round" stroke-linecap="round" fill="none" d="M350.8,268.7 Q364.9,243.3 395.35,235.2 405.25,232.55 416.3,231.9 420.322,231.659 424.5,231.675 429.824,231.724 435.4,232.2 448.286,233.301 460.25,236.975 M526.4,305.6 Q527.15,309.55 527.6,313.35 529.25,326.45 528.4,338.5 528,344.05 527.1,349.4 525.686,357.559 523.025,365.3 518.228,379.161 509.4,391.65 M517.5,278.675 Q522.391,287.133 524.6,296.7 525.6,301.05 526.4,305.6 M274.3,226.65 Q288.15,225.4 303.2,226.8 L308.45,227.35 Q330.25,230.15 343.7,239 343.8,239.05 343.9,239.1 354.1,245.85 358.4,255.8 M345.55,280.4 Q347.8,274.1 350.8,268.7 M211.65,406 Q204.6,398.1 199.8,391.95 190.95,380.65 185.3,369.4 168.75,336.25 178.3,301.25 188.2,265 219.9,244.9" test="Bum Nom the rear"/>
      </g>
      <g id="Hand-Nom-the-rear">
        <path id="Layer4_0_1_STROKES" stroke="#FFF" stroke-width="2" stroke-linejoin="round" stroke-linecap="round" fill="none" d="M303.25,226.3 Q300.6,224.15 291.75,215.65 284.4,208.6 279.45,205.2 264.05,194.7 247.35,201.3 228.85,208.6 222.95,222.25 219.2,230.95 219.9,244.9 220.1,248.9 220.65,253.35 L222.85,258.25 Q225.9,264.15 229.85,269 242.5,284.55 259.85,283.9 278.15,283.2 280.6,260.7 281.5,252.25 279.85,242.75 278.4,234.25 275.8,229.4 275.05,227.95 274.3,226.65" test="Hand Nom the rear"/>
      </g>
      <g id="Hand2-and-Arm-Nom-the-rear">
        <path id="Layer5_0_1_STROKES" stroke="#FFF" stroke-width="2" stroke-linejoin="round" stroke-linecap="round" fill="none" d="M528.35,448.25 Q527.791,447.277 526.9,446.35 524.45,443.75 521.15,444.2 517.8,444.9 515.1,445.35 510.05,446.25 505.35,446 491,445.35 477.4,434.8 463.35,423.95 456.5,410.15 452.35,401.8 450.7,391.45 449.75,385.6 456.7,377.95 462.75,371.3 467.35,369.95 471.4,368.8 477.45,369.65 484.25,370.6 488.85,373.75 494.75,377.75 509.4,391.65 M542.65,415.75 L533.25,411.55 Q531.35,405.75 528.2,399.3 521.95,386.35 515.9,383.1 M528.75,449.05 Q528.578,448.648 528.35,448.25" test="Hand2 and Arm Nom the rear"/>
        <path id="Layer5_0_2_STROKES" stroke="#0FF" stroke-width="2" stroke-linejoin="round" stroke-linecap="round" fill="none" d="M560.5,325.85 Q564.31,329.833 568.6,334.75 585.1,353.65 594.7,372.35 602.2,386.95 618.75,418.35 630.55,442.173 633.65,455.975 634.15,457.524 634.45,459.05 635.391,463.658 634.6,468.1 632.4,480.3 617.25,480.6 602.55,480.85 580.6,474.6 562.35,469.35 551.3,463.6 545.1,460.4 534.5,454.4 527.493,450.441 527.075,450.375 527.503,449.825 528.35,448.25 M524.15,369.9 Q528.681,376.179 537,388.5 549.8,407.55 550.3,410.5 550.75,413 550.45,414.85 550.378,415.247 550.325,415.625 554.212,415.036 557.9,415.35 561.45,415.65 571,418.3 581.65,421.3 592.3,425.2 621.35,435.85 628,445.2 631.927,450.689 633.65,455.975 M550.325,415.625 Q550.14,417.075 550.3,418.15 M528.35,448.25 Q530.385,444.499 534.8,434.9 540.35,422.75 542.3,417.8 L546.9,416.3 Q548.633,415.874 550.325,415.625 M345.5,236.2 Q361.25,223.6 381.15,221.2 389.3,220 397.55,219.15" test="Hand2 and Arm Nom the rear"/>
      </g>
    </g>
    <g id="BlackMaskRect">
      <path fill="#000" stroke="none" d="M827.6,625.818 L827.6,424.8 -19.45,424.8 -19.45,625.818 827.6,625.818Z" test="BlackMaskRect" stroke-width="1.454"/>
    </g>
  </g>
</svg>