<?xml version="1.0" encoding="utf-8"?>
<svg id="EdithAnim08" image-rendering="inherit" baseProfile="basic" version="1.1" x="0px" y="0px" width="800" height="600" xmlns="http://www.w3.org/2000/svg" xmlns:xlink="http://www.w3.org/1999/xlink">
  <g id="Nom-rear-the-rearf138r1" overflow="visible">
    <g id="Bec-Noms-the-Rearf67r1">
      <path id="Layer2_0_1_STROKES" stroke="#FEB7AE" stroke-width="2" stroke-linejoin="round" stroke-linecap="round" fill="none" d="M509.4,403.3 Q509.2,403.55 509,403.8" test="Bec Noms the Rear_2.3242325232423263e+312.3242325232423263e+31_2324232523242325"/>
      <path id="Layer2_0_2_STROKES" stroke="#FFF" stroke-width="2" stroke-linejoin="round" stroke-linecap="round" fill="none" d="M498.725,167.9 Q512.3,166.638 518.6,180.2 518.8,180.6 518.95,181.05 M494.7,168.55 Q496.787,168.069 498.725,167.9 M581.9,227.4 L581.9,227.35 Q577.65,210.8 560.5,211.55 M488.15,188.35 Q490.85,185.6 496.25,185.6 500.3,185.6 501.65,186.95 503.05,188.3 503.05,192.35 L502.7,197 502.35,197 M446.85,223.05 Q453,229.75 455.6,231.75 460.4,235.5 465.4,235.5 468.15,235.5 470.5,233.55 471.859,232.385 474.45,229.475 M461.75,236.55 Q461.4,238.55 461.05,242.35 460.708,246.253 464.325,257.825 467.928,269.388 473.725,273.825 479.529,278.266 491.6,283.35 506.4,288.289 514.425,285 522.447,281.707 533.925,271.075 533.2,269.532 533.2,267.45 533.2,263.05 535.55,258.5 538.15,253.5 542.25,251.15 M552.65,230.7 Q554.6,230.4 557.3,229.45 559.65,228.6 560.1,228.6 563.3,228.6 564.1,230 564.45,230.6 564.45,233.1 564.45,235.85 563.8,237.6 563.25,238.75 563.4,238.65 M537.05,268.15 Q535.496,269.704 533.925,271.075 534.801,272.916 536.7,274 539.75,275.75 545.9,275.75 546.95,275.75 551.05,274.55 555.15,273.3 556.1,273.3 L556.1,272.95 Q555.1,272.95 554.75,272.6 M581.9,227.4 Q582.005,227.778 582.1,228.25" test="Bec Noms the Rear_2.3242325232423263e+312.3242325232423263e+31_2324232523242325"/>
      <path id="Layer2_0_3_STROKES" stroke="#00F" stroke-width="2" stroke-linejoin="round" stroke-linecap="round" fill="none" d="M498.725,167.9 Q498.66,167.844 498.6,167.8 486.8,159.15 481.35,155.35 471.75,148.8 469.8,149.45 467.85,150.1 456.85,162.65 L446.2,175.1 Q438.6,183.55 426.05,216.4 421.15,229.25 416.3,243.55 M498.725,167.9 Q499.872,168.708 502.6,170.65 505.838,172.954 511.3,176.85 524.554,186.267 550.9,205 557.802,209.943 563.675,214.175 569.922,218.673 575.025,222.375 578.781,225.102 581.9,227.4 M395.35,246.85 Q399.25,234.55 404.8,219.8 415.9,190.3 424.35,177.9 436.45,160.15 452,145.7 471.2,127.8 488.5,122.35 530.65,109.15 571.45,136.95 597.4,154.65 609,168.7 624.35,187.3 623.15,207.75 622,227.25 611.9,249.45 605.95,262.6 594.7,280.25 588,290.8 566.25,322.35 545.4,352.55 543,355.55 541.15,357.8 532.3,352.55 530.4,351.45 528.4,350.15 M581.9,227.4 Q596.331,237.959 597.45,239.3 599.75,242.05 599.6,243.5 599.5,244.8 597.1,246.95 595.1,248.75 571.45,274.9 561.947,285.378 555.5,292.525 547.733,301.13 544.4,304.9 539.901,310.335 536.35,314.6 534.201,317.161 532.4,319.3 529.75,322.5 527.6,325" test="Bec Noms the Rear_2.3242325232423263e+312.3242325232423263e+31_2324232523242325"/>
      <g id="Bum-Nom-the-rear">
        <path fill="#000" stroke="none" d="M527.6,325 Q527.15,321.2 526.4,317.25 L481.25,334.15 523,376.95 Q525.686,369.209 527.1,361.05 528,355.7 528.4,350.15 529.25,338.1 527.6,325 M424.5,243.3 Q420.322,243.309 416.3,243.55 405.25,244.2 395.35,246.85 364.9,254.95 350.8,280.35 417.6,303.55 417.7,303.65 417.75,303.7 421.1,273.5 424.45,243.3 424.5,243.3Z" test="Bum Nom the rear"/>
        <path id="Layer3_0_1_STROKES" stroke="#FEB7AE" stroke-width="2" stroke-linejoin="round" stroke-linecap="round" fill="none" d="M350.8,280.35 Q364.9,254.95 395.35,246.85 405.25,244.2 416.3,243.55 420.322,243.309 424.5,243.325 429.824,243.374 435.4,243.85 448.286,244.951 460.25,248.625 M526.4,317.25 Q527.15,321.2 527.6,325 529.25,338.1 528.4,350.15 528,355.7 527.1,361.05 525.686,369.209 523.025,376.95 518.228,390.811 509.4,403.3 M517.5,290.325 Q522.391,298.783 524.6,308.35 525.6,312.7 526.4,317.25 M274.3,238.3 Q288.15,237.05 303.2,238.45 L308.45,239 Q330.25,241.8 343.7,250.65 343.8,250.7 343.9,250.75 354.1,257.5 358.4,267.45 M345.55,292.05 Q347.8,285.75 350.8,280.35 M211.65,417.65 Q204.6,409.75 199.8,403.6 190.95,392.3 185.3,381.05 168.75,347.9 178.3,312.9 188.2,276.65 219.9,256.55" test="Bum Nom the rear"/>
      </g>
      <g id="Hand-Nom-the-rear">
        <path id="Layer4_0_1_STROKES" stroke="#FFF" stroke-width="2" stroke-linejoin="round" stroke-linecap="round" fill="none" d="M303.25,237.95 Q300.6,235.8 291.75,227.3 284.4,220.25 279.45,216.85 264.05,206.35 247.35,212.95 228.85,220.25 222.95,233.9 219.2,242.6 219.9,256.55 220.1,260.55 220.65,265 L222.85,269.9 Q225.9,275.8 229.85,280.65 242.5,296.2 259.85,295.55 278.15,294.85 280.6,272.35 281.5,263.9 279.85,254.4 278.4,245.9 275.8,241.05 275.05,239.6 274.3,238.3" test="Hand Nom the rear"/>
      </g>
      <g id="Hand2-and-Arm-Nom-the-rear">
        <path id="Layer5_0_1_STROKES" stroke="#FFF" stroke-width="2" stroke-linejoin="round" stroke-linecap="round" fill="none" d="M528.35,459.9 Q527.791,458.927 526.9,458 524.45,455.4 521.15,455.85 517.8,456.55 515.1,457 510.05,457.9 505.35,457.65 491,457 477.4,446.45 463.35,435.6 456.5,421.8 452.35,413.45 450.7,403.1 449.75,397.25 456.7,389.6 462.75,382.95 467.35,381.6 471.4,380.45 477.45,381.3 484.25,382.25 488.85,385.4 494.75,389.4 509.4,403.3 M542.65,427.4 L533.25,423.2 Q531.35,417.4 528.2,410.95 521.95,398 515.9,394.75 M528.75,460.7 Q528.578,460.298 528.35,459.9" test="Hand2 and Arm Nom the rear"/>
        <path id="Layer5_0_2_STROKES" stroke="#0FF" stroke-width="2" stroke-linejoin="round" stroke-linecap="round" fill="none" d="M560.5,337.5 Q564.31,341.483 568.6,346.4 585.1,365.3 594.7,384 602.2,398.6 618.75,430 630.55,453.823 633.65,467.625 634.15,469.174 634.45,470.7 635.391,475.308 634.6,479.75 632.4,491.95 617.25,492.25 602.55,492.5 580.6,486.25 562.35,481 551.3,475.25 545.1,472.05 534.5,466.05 527.493,462.091 527.075,462.025 527.503,461.475 528.35,459.9 M524.15,381.55 Q528.681,387.829 537,400.15 549.8,419.2 550.3,422.15 550.75,424.65 550.45,426.5 550.378,426.897 550.325,427.275 554.212,426.686 557.9,427 561.45,427.3 571,429.95 581.65,432.95 592.3,436.85 621.35,447.5 628,456.85 631.927,462.339 633.65,467.625 M550.325,427.275 Q550.14,428.725 550.3,429.8 M528.35,459.9 Q530.385,456.149 534.8,446.55 540.35,434.4 542.3,429.45 L546.9,427.95 Q548.633,427.524 550.325,427.275 M345.5,247.85 Q361.25,235.25 381.15,232.85 389.3,231.65 397.55,230.8" test="Hand2 and Arm Nom the rear"/>
      </g>
    </g>
    <g id="BlackMaskRect">
      <path fill="#000" stroke="none" d="M827.6,625.818 L827.6,424.8 -19.45,424.8 -19.45,625.818 827.6,625.818Z" test="BlackMaskRect" stroke-width="1.454"/>
    </g>
  </g>
</svg>