<?xml version="1.0" encoding="utf-8"?>
<svg id="EdithAnim08" image-rendering="inherit" baseProfile="basic" version="1.1" x="0px" y="0px" width="800" height="600" xmlns="http://www.w3.org/2000/svg" xmlns:xlink="http://www.w3.org/1999/xlink">
  <g id="Nom-rear-the-rearf143r1" overflow="visible">
    <g id="Bec-Noms-the-Rearf67r1">
      <path id="Layer2_0_1_STROKES" stroke="#FEB7AE" stroke-width="2" stroke-linejoin="round" stroke-linecap="round" fill="none" d="M509.4,447 Q509.2,447.25 509,447.5" test="Bec Noms the Rear_2.3242325232423263e+312.3242325232423263e+31_2.3242325232423263e+312.3242325232423263e+31_2323"/>
      <path id="Layer2_0_2_STROKES" stroke="#FFF" stroke-width="2" stroke-linejoin="round" stroke-linecap="round" fill="none" d="M498.725,211.6 Q512.3,210.338 518.6,223.9 518.8,224.3 518.95,224.75 M494.7,212.25 Q496.787,211.769 498.725,211.6 M581.9,271.1 L581.9,271.05 Q577.65,254.5 560.5,255.25 M488.15,232.05 Q490.85,229.3 496.25,229.3 500.3,229.3 501.65,230.65 503.05,232 503.05,236.05 L502.7,240.7 502.35,240.7 M446.85,266.75 Q453,273.45 455.6,275.45 460.4,279.2 465.4,279.2 468.15,279.2 470.5,277.25 471.859,276.085 474.45,273.175 M461.75,280.25 Q461.4,282.25 461.05,286.05 460.708,289.953 464.325,301.525 467.928,313.088 473.725,317.525 479.529,321.966 491.6,327.05 506.4,331.989 514.425,328.7 522.447,325.407 533.925,314.775 533.2,313.232 533.2,311.15 533.2,306.75 535.55,302.2 538.15,297.2 542.25,294.85 M552.65,274.4 Q554.6,274.1 557.3,273.15 559.65,272.3 560.1,272.3 563.3,272.3 564.1,273.7 564.45,274.3 564.45,276.8 564.45,279.55 563.8,281.3 563.25,282.45 563.4,282.35 M537.05,311.85 Q535.496,313.404 533.925,314.775 534.801,316.616 536.7,317.7 539.75,319.45 545.9,319.45 546.95,319.45 551.05,318.25 555.15,317 556.1,317 L556.1,316.65 Q555.1,316.65 554.75,316.3 M581.9,271.1 Q582.005,271.478 582.1,271.95" test="Bec Noms the Rear_2.3242325232423263e+312.3242325232423263e+31_2.3242325232423263e+312.3242325232423263e+31_2323"/>
      <path id="Layer2_0_3_STROKES" stroke="#00F" stroke-width="2" stroke-linejoin="round" stroke-linecap="round" fill="none" d="M498.725,211.6 Q498.66,211.544 498.6,211.5 486.8,202.85 481.35,199.05 471.75,192.5 469.8,193.15 467.85,193.8 456.85,206.35 L446.2,218.8 Q438.6,227.25 426.05,260.1 421.15,272.95 416.3,287.25 M498.725,211.6 Q499.872,212.408 502.6,214.35 505.838,216.654 511.3,220.55 524.554,229.967 550.9,248.7 557.802,253.643 563.675,257.875 569.922,262.373 575.025,266.075 578.781,268.802 581.9,271.1 M395.35,290.55 Q399.25,278.25 404.8,263.5 415.9,234 424.35,221.6 436.45,203.85 452,189.4 471.2,171.5 488.5,166.05 530.65,152.85 571.45,180.65 597.4,198.35 609,212.4 624.35,231 623.15,251.45 622,270.95 611.9,293.15 605.95,306.3 594.7,323.95 588,334.5 566.25,366.05 545.4,396.25 543,399.25 541.15,401.5 532.3,396.25 530.4,395.15 528.4,393.85 M581.9,271.1 Q596.331,281.659 597.45,283 599.75,285.75 599.6,287.2 599.5,288.5 597.1,290.65 595.1,292.45 571.45,318.6 561.947,329.078 555.5,336.225 547.733,344.83 544.4,348.6 539.901,354.035 536.35,358.3 534.201,360.861 532.4,363 529.75,366.2 527.6,368.7" test="Bec Noms the Rear_2.3242325232423263e+312.3242325232423263e+31_2.3242325232423263e+312.3242325232423263e+31_2323"/>
      <g id="Bum-Nom-the-rear">
        <path fill="#000" stroke="none" d="M527.6,368.7 Q527.15,364.9 526.4,360.95 L481.25,377.85 523,420.65 Q525.686,412.909 527.1,404.75 528,399.4 528.4,393.85 529.25,381.8 527.6,368.7 M424.5,287 Q420.322,287.009 416.3,287.25 405.25,287.9 395.35,290.55 364.9,298.65 350.8,324.05 417.6,347.25 417.7,347.35 417.75,347.4 421.1,317.2 424.45,287 424.5,287Z" test="Bum Nom the rear"/>
        <path id="Layer3_0_1_STROKES" stroke="#FEB7AE" stroke-width="2" stroke-linejoin="round" stroke-linecap="round" fill="none" d="M350.8,324.05 Q364.9,298.65 395.35,290.55 405.25,287.9 416.3,287.25 420.322,287.009 424.5,287.025 429.824,287.074 435.4,287.55 448.286,288.651 460.25,292.325 M526.4,360.95 Q527.15,364.9 527.6,368.7 529.25,381.8 528.4,393.85 528,399.4 527.1,404.75 525.686,412.909 523.025,420.65 518.228,434.511 509.4,447 M517.5,334.025 Q522.391,342.483 524.6,352.05 525.6,356.4 526.4,360.95 M274.3,282 Q288.15,280.75 303.2,282.15 L308.45,282.7 Q330.25,285.5 343.7,294.35 343.8,294.4 343.9,294.45 354.1,301.2 358.4,311.15 M345.55,335.75 Q347.8,329.45 350.8,324.05 M211.65,461.35 Q204.6,453.45 199.8,447.3 190.95,436 185.3,424.75 168.75,391.6 178.3,356.6 188.2,320.35 219.9,300.25" test="Bum Nom the rear"/>
      </g>
      <g id="Hand-Nom-the-rear">
        <path id="Layer4_0_1_STROKES" stroke="#FFF" stroke-width="2" stroke-linejoin="round" stroke-linecap="round" fill="none" d="M303.25,281.65 Q300.6,279.5 291.75,271 284.4,263.95 279.45,260.55 264.05,250.05 247.35,256.65 228.85,263.95 222.95,277.6 219.2,286.3 219.9,300.25 220.1,304.25 220.65,308.7 L222.85,313.6 Q225.9,319.5 229.85,324.35 242.5,339.9 259.85,339.25 278.15,338.55 280.6,316.05 281.5,307.6 279.85,298.1 278.4,289.6 275.8,284.75 275.05,283.3 274.3,282" test="Hand Nom the rear"/>
      </g>
      <g id="Hand2-and-Arm-Nom-the-rear">
        <path id="Layer5_0_1_STROKES" stroke="#FFF" stroke-width="2" stroke-linejoin="round" stroke-linecap="round" fill="none" d="M528.35,503.6 Q527.791,502.627 526.9,501.7 524.45,499.1 521.15,499.55 517.8,500.25 515.1,500.7 510.05,501.6 505.35,501.35 491,500.7 477.4,490.15 463.35,479.3 456.5,465.5 452.35,457.15 450.7,446.8 449.75,440.95 456.7,433.3 462.75,426.65 467.35,425.3 471.4,424.15 477.45,425 484.25,425.95 488.85,429.1 494.75,433.1 509.4,447 M542.65,471.1 L533.25,466.9 Q531.35,461.1 528.2,454.65 521.95,441.7 515.9,438.45 M528.75,504.4 Q528.578,503.998 528.35,503.6" test="Hand2 and Arm Nom the rear"/>
        <path id="Layer5_0_2_STROKES" stroke="#0FF" stroke-width="2" stroke-linejoin="round" stroke-linecap="round" fill="none" d="M560.5,381.2 Q564.31,385.183 568.6,390.1 585.1,409 594.7,427.7 602.2,442.3 618.75,473.7 630.55,497.523 633.65,511.325 634.15,512.874 634.45,514.4 635.391,519.008 634.6,523.45 632.4,535.65 617.25,535.95 602.55,536.2 580.6,529.95 562.35,524.7 551.3,518.95 545.1,515.75 534.5,509.75 527.493,505.791 527.075,505.725 527.503,505.175 528.35,503.6 M524.15,425.25 Q528.681,431.529 537,443.85 549.8,462.9 550.3,465.85 550.75,468.35 550.45,470.2 550.378,470.597 550.325,470.975 554.212,470.386 557.9,470.7 561.45,471 571,473.65 581.65,476.65 592.3,480.55 621.35,491.2 628,500.55 631.927,506.039 633.65,511.325 M550.325,470.975 Q550.14,472.425 550.3,473.5 M528.35,503.6 Q530.385,499.849 534.8,490.25 540.35,478.1 542.3,473.15 L546.9,471.65 Q548.633,471.224 550.325,470.975 M345.5,291.55 Q361.25,278.95 381.15,276.55 389.3,275.35 397.55,274.5" test="Hand2 and Arm Nom the rear"/>
      </g>
    </g>
    <g id="BlackMaskRect">
      <path fill="#000" stroke="none" d="M827.6,625.818 L827.6,424.8 -19.45,424.8 -19.45,625.818 827.6,625.818Z" test="BlackMaskRect" stroke-width="1.454"/>
    </g>
  </g>
</svg>