<?xml version="1.0" encoding="utf-8"?>
<svg id="EdithAnim08" image-rendering="inherit" baseProfile="basic" version="1.1" x="0px" y="0px" width="800" height="600" xmlns="http://www.w3.org/2000/svg" xmlns:xlink="http://www.w3.org/1999/xlink">
  <g id="Nom-rear-the-rearf144r1" overflow="visible">
    <g id="Bec-Noms-the-Rearf67r1">
      <path id="Layer2_0_1_STROKES" stroke="#FEB7AE" stroke-width="2" stroke-linejoin="round" stroke-linecap="round" fill="none" d="M509.4,458.2 Q509.2,458.45 509,458.7" test="Bec Noms the Rear_2.3242325232423263e+312.3242325232423263e+31_2.3242325232423263e+312.3242325232423263e+31_23242324"/>
      <path id="Layer2_0_2_STROKES" stroke="#FFF" stroke-width="2" stroke-linejoin="round" stroke-linecap="round" fill="none" d="M498.725,222.8 Q512.3,221.538 518.6,235.1 518.8,235.5 518.95,235.95 M494.7,223.45 Q496.787,222.969 498.725,222.8 M581.9,282.3 L581.9,282.25 Q577.65,265.7 560.5,266.45 M488.15,243.25 Q490.85,240.5 496.25,240.5 500.3,240.5 501.65,241.85 503.05,243.2 503.05,247.25 L502.7,251.9 502.35,251.9 M446.85,277.95 Q453,284.65 455.6,286.65 460.4,290.4 465.4,290.4 468.15,290.4 470.5,288.45 471.859,287.285 474.45,284.375 M461.75,291.45 Q461.4,293.45 461.05,297.25 460.708,301.153 464.325,312.725 467.928,324.288 473.725,328.725 479.529,333.166 491.6,338.25 506.4,343.189 514.425,339.9 522.447,336.607 533.925,325.975 533.2,324.432 533.2,322.35 533.2,317.95 535.55,313.4 538.15,308.4 542.25,306.05 M552.65,285.6 Q554.6,285.3 557.3,284.35 559.65,283.5 560.1,283.5 563.3,283.5 564.1,284.9 564.45,285.5 564.45,288 564.45,290.75 563.8,292.5 563.25,293.65 563.4,293.55 M537.05,323.05 Q535.496,324.604 533.925,325.975 534.801,327.816 536.7,328.9 539.75,330.65 545.9,330.65 546.95,330.65 551.05,329.45 555.15,328.2 556.1,328.2 L556.1,327.85 Q555.1,327.85 554.75,327.5 M581.9,282.3 Q582.005,282.678 582.1,283.15" test="Bec Noms the Rear_2.3242325232423263e+312.3242325232423263e+31_2.3242325232423263e+312.3242325232423263e+31_23242324"/>
      <path id="Layer2_0_3_STROKES" stroke="#00F" stroke-width="2" stroke-linejoin="round" stroke-linecap="round" fill="none" d="M498.725,222.8 Q498.66,222.744 498.6,222.7 486.8,214.05 481.35,210.25 471.75,203.7 469.8,204.35 467.85,205 456.85,217.55 L446.2,230 Q438.6,238.45 426.05,271.3 421.15,284.15 416.3,298.45 M498.725,222.8 Q499.872,223.608 502.6,225.55 505.838,227.854 511.3,231.75 524.554,241.167 550.9,259.9 557.802,264.843 563.675,269.075 569.922,273.573 575.025,277.275 578.781,280.002 581.9,282.3 M395.35,301.75 Q399.25,289.45 404.8,274.7 415.9,245.2 424.35,232.8 436.45,215.05 452,200.6 471.2,182.7 488.5,177.25 530.65,164.05 571.45,191.85 597.4,209.55 609,223.6 624.35,242.2 623.15,262.65 622,282.15 611.9,304.35 605.95,317.5 594.7,335.15 588,345.7 566.25,377.25 545.4,407.45 543,410.45 541.15,412.7 532.3,407.45 530.4,406.35 528.4,405.05 M581.9,282.3 Q596.331,292.859 597.45,294.2 599.75,296.95 599.6,298.4 599.5,299.7 597.1,301.85 595.1,303.65 571.45,329.8 561.947,340.278 555.5,347.425 547.733,356.03 544.4,359.8 539.901,365.235 536.35,369.5 534.201,372.061 532.4,374.2 529.75,377.4 527.6,379.9" test="Bec Noms the Rear_2.3242325232423263e+312.3242325232423263e+31_2.3242325232423263e+312.3242325232423263e+31_23242324"/>
      <g id="Bum-Nom-the-rear">
        <path fill="#000" stroke="none" d="M527.6,379.9 Q527.15,376.1 526.4,372.15 L481.25,389.05 523,431.85 Q525.686,424.109 527.1,415.95 528,410.6 528.4,405.05 529.25,393 527.6,379.9 M424.5,298.2 Q420.322,298.209 416.3,298.45 405.25,299.1 395.35,301.75 364.9,309.85 350.8,335.25 417.6,358.45 417.7,358.55 417.75,358.6 421.1,328.4 424.45,298.2 424.5,298.2Z" test="Bum Nom the rear"/>
        <path id="Layer3_0_1_STROKES" stroke="#FEB7AE" stroke-width="2" stroke-linejoin="round" stroke-linecap="round" fill="none" d="M350.8,335.25 Q364.9,309.85 395.35,301.75 405.25,299.1 416.3,298.45 420.322,298.209 424.5,298.225 429.824,298.274 435.4,298.75 448.286,299.851 460.25,303.525 M526.4,372.15 Q527.15,376.1 527.6,379.9 529.25,393 528.4,405.05 528,410.6 527.1,415.95 525.686,424.109 523.025,431.85 518.228,445.711 509.4,458.2 M517.5,345.225 Q522.391,353.683 524.6,363.25 525.6,367.6 526.4,372.15 M274.3,293.2 Q288.15,291.95 303.2,293.35 L308.45,293.9 Q330.25,296.7 343.7,305.55 343.8,305.6 343.9,305.65 354.1,312.4 358.4,322.35 M345.55,346.95 Q347.8,340.65 350.8,335.25 M211.65,472.55 Q204.6,464.65 199.8,458.5 190.95,447.2 185.3,435.95 168.75,402.8 178.3,367.8 188.2,331.55 219.9,311.45" test="Bum Nom the rear"/>
      </g>
      <g id="Hand-Nom-the-rear">
        <path id="Layer4_0_1_STROKES" stroke="#FFF" stroke-width="2" stroke-linejoin="round" stroke-linecap="round" fill="none" d="M303.25,292.85 Q300.6,290.7 291.75,282.2 284.4,275.15 279.45,271.75 264.05,261.25 247.35,267.85 228.85,275.15 222.95,288.8 219.2,297.5 219.9,311.45 220.1,315.45 220.65,319.9 L222.85,324.8 Q225.9,330.7 229.85,335.55 242.5,351.1 259.85,350.45 278.15,349.75 280.6,327.25 281.5,318.8 279.85,309.3 278.4,300.8 275.8,295.95 275.05,294.5 274.3,293.2" test="Hand Nom the rear"/>
      </g>
      <g id="Hand2-and-Arm-Nom-the-rear">
        <path id="Layer5_0_1_STROKES" stroke="#FFF" stroke-width="2" stroke-linejoin="round" stroke-linecap="round" fill="none" d="M528.35,514.8 Q527.791,513.827 526.9,512.9 524.45,510.3 521.15,510.75 517.8,511.45 515.1,511.9 510.05,512.8 505.35,512.55 491,511.9 477.4,501.35 463.35,490.5 456.5,476.7 452.35,468.35 450.7,458 449.75,452.15 456.7,444.5 462.75,437.85 467.35,436.5 471.4,435.35 477.45,436.2 484.25,437.15 488.85,440.3 494.75,444.3 509.4,458.2 M542.65,482.3 L533.25,478.1 Q531.35,472.3 528.2,465.85 521.95,452.9 515.9,449.65 M528.75,515.6 Q528.578,515.198 528.35,514.8" test="Hand2 and Arm Nom the rear"/>
        <path id="Layer5_0_2_STROKES" stroke="#0FF" stroke-width="2" stroke-linejoin="round" stroke-linecap="round" fill="none" d="M560.5,392.4 Q564.31,396.383 568.6,401.3 585.1,420.2 594.7,438.9 602.2,453.5 618.75,484.9 630.55,508.723 633.65,522.525 634.15,524.074 634.45,525.6 635.391,530.208 634.6,534.65 632.4,546.85 617.25,547.15 602.55,547.4 580.6,541.15 562.35,535.9 551.3,530.15 545.1,526.95 534.5,520.95 527.493,516.991 527.075,516.925 527.503,516.375 528.35,514.8 M524.15,436.45 Q528.681,442.729 537,455.05 549.8,474.1 550.3,477.05 550.75,479.55 550.45,481.4 550.378,481.797 550.325,482.175 554.212,481.586 557.9,481.9 561.45,482.2 571,484.85 581.65,487.85 592.3,491.75 621.35,502.4 628,511.75 631.927,517.239 633.65,522.525 M550.325,482.175 Q550.14,483.625 550.3,484.7 M528.35,514.8 Q530.385,511.049 534.8,501.45 540.35,489.3 542.3,484.35 L546.9,482.85 Q548.633,482.424 550.325,482.175 M345.5,302.75 Q361.25,290.15 381.15,287.75 389.3,286.55 397.55,285.7" test="Hand2 and Arm Nom the rear"/>
      </g>
    </g>
    <g id="BlackMaskRect">
      <path fill="#000" stroke="none" d="M827.6,625.818 L827.6,424.8 -19.45,424.8 -19.45,625.818 827.6,625.818Z" test="BlackMaskRect" stroke-width="1.454"/>
    </g>
  </g>
</svg>