<?xml version="1.0" encoding="utf-8"?>
<svg id="EdithAnim08" image-rendering="inherit" baseProfile="basic" version="1.1" x="0px" y="0px" width="800" height="600" xmlns="http://www.w3.org/2000/svg" xmlns:xlink="http://www.w3.org/1999/xlink">
  <g id="Nom-rear-the-rearf145r1" overflow="visible">
    <g id="Bec-Noms-the-Rearf67r1">
      <path id="Layer2_0_1_STROKES" stroke="#FEB7AE" stroke-width="2" stroke-linejoin="round" stroke-linecap="round" fill="none" d="M509.4,470.3 Q509.2,470.55 509,470.8" test="Bec Noms the Rear_2.3242325232423263e+312.3242325232423263e+31_2.3242325232423263e+312.3242325232423263e+31_2324232523242325"/>
      <path id="Layer2_0_2_STROKES" stroke="#FFF" stroke-width="2" stroke-linejoin="round" stroke-linecap="round" fill="none" d="M498.725,234.9 Q512.3,233.638 518.6,247.2 518.8,247.6 518.95,248.05 M494.7,235.55 Q496.787,235.069 498.725,234.9 M581.9,294.4 L581.9,294.35 Q577.65,277.8 560.5,278.55 M488.15,255.35 Q490.85,252.6 496.25,252.6 500.3,252.6 501.65,253.95 503.05,255.3 503.05,259.35 L502.7,264 502.35,264 M446.85,290.05 Q453,296.75 455.6,298.75 460.4,302.5 465.4,302.5 468.15,302.5 470.5,300.55 471.859,299.385 474.45,296.475 M461.75,303.55 Q461.4,305.55 461.05,309.35 460.708,313.253 464.325,324.825 467.928,336.388 473.725,340.825 479.529,345.266 491.6,350.35 506.4,355.289 514.425,352 522.447,348.707 533.925,338.075 533.2,336.532 533.2,334.45 533.2,330.05 535.55,325.5 538.15,320.5 542.25,318.15 M552.65,297.7 Q554.6,297.4 557.3,296.45 559.65,295.6 560.1,295.6 563.3,295.6 564.1,297 564.45,297.6 564.45,300.1 564.45,302.85 563.8,304.6 563.25,305.75 563.4,305.65 M537.05,335.15 Q535.496,336.704 533.925,338.075 534.801,339.916 536.7,341 539.75,342.75 545.9,342.75 546.95,342.75 551.05,341.55 555.15,340.3 556.1,340.3 L556.1,339.95 Q555.1,339.95 554.75,339.6 M581.9,294.4 Q582.005,294.778 582.1,295.25" test="Bec Noms the Rear_2.3242325232423263e+312.3242325232423263e+31_2.3242325232423263e+312.3242325232423263e+31_2324232523242325"/>
      <path id="Layer2_0_3_STROKES" stroke="#00F" stroke-width="2" stroke-linejoin="round" stroke-linecap="round" fill="none" d="M498.725,234.9 Q498.66,234.844 498.6,234.8 486.8,226.15 481.35,222.35 471.75,215.8 469.8,216.45 467.85,217.1 456.85,229.65 L446.2,242.1 Q438.6,250.55 426.05,283.4 421.15,296.25 416.3,310.55 M498.725,234.9 Q499.872,235.708 502.6,237.65 505.838,239.954 511.3,243.85 524.554,253.267 550.9,272 557.802,276.943 563.675,281.175 569.922,285.673 575.025,289.375 578.781,292.102 581.9,294.4 M395.35,313.85 Q399.25,301.55 404.8,286.8 415.9,257.3 424.35,244.9 436.45,227.15 452,212.7 471.2,194.8 488.5,189.35 530.65,176.15 571.45,203.95 597.4,221.65 609,235.7 624.35,254.3 623.15,274.75 622,294.25 611.9,316.45 605.95,329.6 594.7,347.25 588,357.8 566.25,389.35 545.4,419.55 543,422.55 541.15,424.8 532.3,419.55 530.4,418.45 528.4,417.15 M581.9,294.4 Q596.331,304.959 597.45,306.3 599.75,309.05 599.6,310.5 599.5,311.8 597.1,313.95 595.1,315.75 571.45,341.9 561.947,352.378 555.5,359.525 547.733,368.13 544.4,371.9 539.901,377.335 536.35,381.6 534.201,384.161 532.4,386.3 529.75,389.5 527.6,392" test="Bec Noms the Rear_2.3242325232423263e+312.3242325232423263e+31_2.3242325232423263e+312.3242325232423263e+31_2324232523242325"/>
      <g id="Bum-Nom-the-rear">
        <path fill="#000" stroke="none" d="M527.6,392 Q527.15,388.2 526.4,384.25 L481.25,401.15 523,443.95 Q525.686,436.209 527.1,428.05 528,422.7 528.4,417.15 529.25,405.1 527.6,392 M424.5,310.3 Q420.322,310.309 416.3,310.55 405.25,311.2 395.35,313.85 364.9,321.95 350.8,347.35 417.6,370.55 417.7,370.65 417.75,370.7 421.1,340.5 424.45,310.3 424.5,310.3Z" test="Bum Nom the rear"/>
        <path id="Layer3_0_1_STROKES" stroke="#FEB7AE" stroke-width="2" stroke-linejoin="round" stroke-linecap="round" fill="none" d="M350.8,347.35 Q364.9,321.95 395.35,313.85 405.25,311.2 416.3,310.55 420.322,310.309 424.5,310.325 429.824,310.374 435.4,310.85 448.286,311.951 460.25,315.625 M526.4,384.25 Q527.15,388.2 527.6,392 529.25,405.1 528.4,417.15 528,422.7 527.1,428.05 525.686,436.209 523.025,443.95 518.228,457.811 509.4,470.3 M517.5,357.325 Q522.391,365.783 524.6,375.35 525.6,379.7 526.4,384.25 M274.3,305.3 Q288.15,304.05 303.2,305.45 L308.45,306 Q330.25,308.8 343.7,317.65 343.8,317.7 343.9,317.75 354.1,324.5 358.4,334.45 M345.55,359.05 Q347.8,352.75 350.8,347.35 M211.65,484.65 Q204.6,476.75 199.8,470.6 190.95,459.3 185.3,448.05 168.75,414.9 178.3,379.9 188.2,343.65 219.9,323.55" test="Bum Nom the rear"/>
      </g>
      <g id="Hand-Nom-the-rear">
        <path id="Layer4_0_1_STROKES" stroke="#FFF" stroke-width="2" stroke-linejoin="round" stroke-linecap="round" fill="none" d="M303.25,304.95 Q300.6,302.8 291.75,294.3 284.4,287.25 279.45,283.85 264.05,273.35 247.35,279.95 228.85,287.25 222.95,300.9 219.2,309.6 219.9,323.55 220.1,327.55 220.65,332 L222.85,336.9 Q225.9,342.8 229.85,347.65 242.5,363.2 259.85,362.55 278.15,361.85 280.6,339.35 281.5,330.9 279.85,321.4 278.4,312.9 275.8,308.05 275.05,306.6 274.3,305.3" test="Hand Nom the rear"/>
      </g>
      <g id="Hand2-and-Arm-Nom-the-rear">
        <path id="Layer5_0_1_STROKES" stroke="#FFF" stroke-width="2" stroke-linejoin="round" stroke-linecap="round" fill="none" d="M528.35,526.9 Q527.791,525.927 526.9,525 524.45,522.4 521.15,522.85 517.8,523.55 515.1,524 510.05,524.9 505.35,524.65 491,524 477.4,513.45 463.35,502.6 456.5,488.8 452.35,480.45 450.7,470.1 449.75,464.25 456.7,456.6 462.75,449.95 467.35,448.6 471.4,447.45 477.45,448.3 484.25,449.25 488.85,452.4 494.75,456.4 509.4,470.3 M542.65,494.4 L533.25,490.2 Q531.35,484.4 528.2,477.95 521.95,465 515.9,461.75 M528.75,527.7 Q528.578,527.298 528.35,526.9" test="Hand2 and Arm Nom the rear"/>
        <path id="Layer5_0_2_STROKES" stroke="#0FF" stroke-width="2" stroke-linejoin="round" stroke-linecap="round" fill="none" d="M560.5,404.5 Q564.31,408.483 568.6,413.4 585.1,432.3 594.7,451 602.2,465.6 618.75,497 630.55,520.823 633.65,534.625 634.15,536.174 634.45,537.7 635.391,542.308 634.6,546.75 632.4,558.95 617.25,559.25 602.55,559.5 580.6,553.25 562.35,548 551.3,542.25 545.1,539.05 534.5,533.05 527.493,529.091 527.075,529.025 527.503,528.475 528.35,526.9 M524.15,448.55 Q528.681,454.829 537,467.15 549.8,486.2 550.3,489.15 550.75,491.65 550.45,493.5 550.378,493.897 550.325,494.275 554.212,493.686 557.9,494 561.45,494.3 571,496.95 581.65,499.95 592.3,503.85 621.35,514.5 628,523.85 631.927,529.339 633.65,534.625 M550.325,494.275 Q550.14,495.725 550.3,496.8 M528.35,526.9 Q530.385,523.149 534.8,513.55 540.35,501.4 542.3,496.45 L546.9,494.95 Q548.633,494.524 550.325,494.275 M345.5,314.85 Q361.25,302.25 381.15,299.85 389.3,298.65 397.55,297.8" test="Hand2 and Arm Nom the rear"/>
      </g>
    </g>
    <g id="BlackMaskRect">
      <path fill="#000" stroke="none" d="M827.6,625.818 L827.6,424.8 -19.45,424.8 -19.45,625.818 827.6,625.818Z" test="BlackMaskRect" stroke-width="1.454"/>
    </g>
  </g>
</svg>