<?xml version="1.0" encoding="utf-8"?>
<svg id="EdithAnim08" image-rendering="inherit" baseProfile="basic" version="1.1" x="0px" y="0px" width="800" height="600" xmlns="http://www.w3.org/2000/svg" xmlns:xlink="http://www.w3.org/1999/xlink">
  <g id="Nom-rear-the-rearf147r1" overflow="visible">
    <g id="Bec-Noms-the-Rearf67r1">
      <path id="Layer2_0_1_STROKES" stroke="#FEB7AE" stroke-width="2" stroke-linejoin="round" stroke-linecap="round" fill="none" d="M509.4,496.95 Q509.2,497.2 509,497.45" test="Bec Noms the Rear_2.3242325232423263e+312.3242325232423263e+31_2.3242325232423263e+312.3242325232423263e+31_2.3242325232423263e+312.3242325232423263e+31"/>
      <path id="Layer2_0_2_STROKES" stroke="#FFF" stroke-width="2" stroke-linejoin="round" stroke-linecap="round" fill="none" d="M498.725,261.55 Q512.3,260.288 518.6,273.85 518.8,274.25 518.95,274.7 M494.7,262.2 Q496.787,261.719 498.725,261.55 M581.9,321.05 L581.9,321 Q577.65,304.45 560.5,305.2 M488.15,282 Q490.85,279.25 496.25,279.25 500.3,279.25 501.65,280.6 503.05,281.95 503.05,286 L502.7,290.65 502.35,290.65 M446.85,316.7 Q453,323.4 455.6,325.4 460.4,329.15 465.4,329.15 468.15,329.15 470.5,327.2 471.859,326.035 474.45,323.125 M461.75,330.2 Q461.4,332.2 461.05,336 460.708,339.903 464.325,351.475 467.928,363.038 473.725,367.475 479.529,371.916 491.6,377 506.4,381.939 514.425,378.65 522.447,375.357 533.925,364.725 533.2,363.182 533.2,361.1 533.2,356.7 535.55,352.15 538.15,347.15 542.25,344.8 M552.65,324.35 Q554.6,324.05 557.3,323.1 559.65,322.25 560.1,322.25 563.3,322.25 564.1,323.65 564.45,324.25 564.45,326.75 564.45,329.5 563.8,331.25 563.25,332.4 563.4,332.3 M537.05,361.8 Q535.496,363.354 533.925,364.725 534.801,366.566 536.7,367.65 539.75,369.4 545.9,369.4 546.95,369.4 551.05,368.2 555.15,366.95 556.1,366.95 L556.1,366.6 Q555.1,366.6 554.75,366.25 M581.9,321.05 Q582.005,321.428 582.1,321.9" test="Bec Noms the Rear_2.3242325232423263e+312.3242325232423263e+31_2.3242325232423263e+312.3242325232423263e+31_2.3242325232423263e+312.3242325232423263e+31"/>
      <path id="Layer2_0_3_STROKES" stroke="#00F" stroke-width="2" stroke-linejoin="round" stroke-linecap="round" fill="none" d="M498.725,261.55 Q498.66,261.494 498.6,261.45 486.8,252.8 481.35,249 471.75,242.45 469.8,243.1 467.85,243.75 456.85,256.3 L446.2,268.75 Q438.6,277.2 426.05,310.05 421.15,322.9 416.3,337.2 M498.725,261.55 Q499.872,262.358 502.6,264.3 505.838,266.604 511.3,270.5 524.554,279.917 550.9,298.65 557.802,303.593 563.675,307.825 569.922,312.323 575.025,316.025 578.781,318.752 581.9,321.05 M395.35,340.5 Q399.25,328.2 404.8,313.45 415.9,283.95 424.35,271.55 436.45,253.8 452,239.35 471.2,221.45 488.5,216 530.65,202.8 571.45,230.6 597.4,248.3 609,262.35 624.35,280.95 623.15,301.4 622,320.9 611.9,343.1 605.95,356.25 594.7,373.9 588,384.45 566.25,416 545.4,446.2 543,449.2 541.15,451.45 532.3,446.2 530.4,445.1 528.4,443.8 M581.9,321.05 Q596.331,331.609 597.45,332.95 599.75,335.7 599.6,337.15 599.5,338.45 597.1,340.6 595.1,342.4 571.45,368.55 561.947,379.028 555.5,386.175 547.733,394.78 544.4,398.55 539.901,403.985 536.35,408.25 534.201,410.811 532.4,412.95 529.75,416.15 527.6,418.65" test="Bec Noms the Rear_2.3242325232423263e+312.3242325232423263e+31_2.3242325232423263e+312.3242325232423263e+31_2.3242325232423263e+312.3242325232423263e+31"/>
      <g id="Bum-Nom-the-rear">
        <path fill="#000" stroke="none" d="M527.6,418.65 Q527.15,414.85 526.4,410.9 L481.25,427.8 523,470.6 Q525.686,462.859 527.1,454.7 528,449.35 528.4,443.8 529.25,431.75 527.6,418.65 M424.5,336.95 Q420.322,336.959 416.3,337.2 405.25,337.85 395.35,340.5 364.9,348.6 350.8,374 417.6,397.2 417.7,397.3 417.75,397.35 421.1,367.15 424.45,336.95 424.5,336.95Z" test="Bum Nom the rear"/>
        <path id="Layer3_0_1_STROKES" stroke="#FEB7AE" stroke-width="2" stroke-linejoin="round" stroke-linecap="round" fill="none" d="M350.8,374 Q364.9,348.6 395.35,340.5 405.25,337.85 416.3,337.2 420.322,336.959 424.5,336.975 429.824,337.024 435.4,337.5 448.286,338.601 460.25,342.275 M526.4,410.9 Q527.15,414.85 527.6,418.65 529.25,431.75 528.4,443.8 528,449.35 527.1,454.7 525.686,462.859 523.025,470.6 518.228,484.461 509.4,496.95 M517.5,383.975 Q522.391,392.433 524.6,402 525.6,406.35 526.4,410.9 M274.3,331.95 Q288.15,330.7 303.2,332.1 L308.45,332.65 Q330.25,335.45 343.7,344.3 343.8,344.35 343.9,344.4 354.1,351.15 358.4,361.1 M345.55,385.7 Q347.8,379.4 350.8,374 M211.65,511.3 Q204.6,503.4 199.8,497.25 190.95,485.95 185.3,474.7 168.75,441.55 178.3,406.55 188.2,370.3 219.9,350.2" test="Bum Nom the rear"/>
      </g>
      <g id="Hand-Nom-the-rear">
        <path id="Layer4_0_1_STROKES" stroke="#FFF" stroke-width="2" stroke-linejoin="round" stroke-linecap="round" fill="none" d="M303.25,331.6 Q300.6,329.45 291.75,320.95 284.4,313.9 279.45,310.5 264.05,300 247.35,306.6 228.85,313.9 222.95,327.55 219.2,336.25 219.9,350.2 220.1,354.2 220.65,358.65 L222.85,363.55 Q225.9,369.45 229.85,374.3 242.5,389.85 259.85,389.2 278.15,388.5 280.6,366 281.5,357.55 279.85,348.05 278.4,339.55 275.8,334.7 275.05,333.25 274.3,331.95" test="Hand Nom the rear"/>
      </g>
      <g id="Hand2-and-Arm-Nom-the-rear">
        <path id="Layer5_0_1_STROKES" stroke="#FFF" stroke-width="2" stroke-linejoin="round" stroke-linecap="round" fill="none" d="M528.35,553.55 Q527.791,552.577 526.9,551.65 524.45,549.05 521.15,549.5 517.8,550.2 515.1,550.65 510.05,551.55 505.35,551.3 491,550.65 477.4,540.1 463.35,529.25 456.5,515.45 452.35,507.1 450.7,496.75 449.75,490.9 456.7,483.25 462.75,476.6 467.35,475.25 471.4,474.1 477.45,474.95 484.25,475.9 488.85,479.05 494.75,483.05 509.4,496.95 M542.65,521.05 L533.25,516.85 Q531.35,511.05 528.2,504.6 521.95,491.65 515.9,488.4 M528.75,554.35 Q528.578,553.948 528.35,553.55" test="Hand2 and Arm Nom the rear"/>
        <path id="Layer5_0_2_STROKES" stroke="#0FF" stroke-width="2" stroke-linejoin="round" stroke-linecap="round" fill="none" d="M560.5,431.15 Q564.31,435.133 568.6,440.05 585.1,458.95 594.7,477.65 602.2,492.25 618.75,523.65 630.55,547.473 633.65,561.275 634.15,562.824 634.45,564.35 635.391,568.958 634.6,573.4 632.4,585.6 617.25,585.9 602.55,586.15 580.6,579.9 562.35,574.65 551.3,568.9 545.1,565.7 534.5,559.7 527.493,555.741 527.075,555.675 527.503,555.125 528.35,553.55 M524.15,475.2 Q528.681,481.479 537,493.8 549.8,512.85 550.3,515.8 550.75,518.3 550.45,520.15 550.378,520.547 550.325,520.925 554.212,520.336 557.9,520.65 561.45,520.95 571,523.6 581.65,526.6 592.3,530.5 621.35,541.15 628,550.5 631.927,555.989 633.65,561.275 M550.325,520.925 Q550.14,522.375 550.3,523.45 M528.35,553.55 Q530.385,549.799 534.8,540.2 540.35,528.05 542.3,523.1 L546.9,521.6 Q548.633,521.174 550.325,520.925 M345.5,341.5 Q361.25,328.9 381.15,326.5 389.3,325.3 397.55,324.45" test="Hand2 and Arm Nom the rear"/>
      </g>
    </g>
    <g id="BlackMaskRect">
      <path fill="#000" stroke="none" d="M827.6,625.818 L827.6,424.8 -19.45,424.8 -19.45,625.818 827.6,625.818Z" test="BlackMaskRect" stroke-width="1.454"/>
    </g>
  </g>
</svg>