<?xml version="1.0" encoding="utf-8"?>
<svg id="EdithAnim08" image-rendering="inherit" baseProfile="basic" version="1.1" x="0px" y="0px" width="800" height="600" xmlns="http://www.w3.org/2000/svg" xmlns:xlink="http://www.w3.org/1999/xlink">
  <g id="Nom-rear-the-rearf15r1" overflow="visible">
    <g id="Bec-Noms-the-Rearf14r1">
      <path id="Layer2_0_1_STROKES" stroke="#FEB7AE" stroke-width="2" stroke-linejoin="round" stroke-linecap="round" fill="none" d="M509.4,607.8 Q509.2,608.05 509,608.3" test="Bec Noms the Rear_1"/>
      <g id="Nom-Bec-Head">
        <path id="Layer3_0_1_STROKES" stroke="#00F" stroke-width="2" stroke-linejoin="round" stroke-linecap="round" fill="none" d="M386.95,459.75 Q390.85,447.45 396.4,432.7 407.5,403.2 415.95,390.8 428.05,373.05 443.6,358.6 462.8,340.7 480.1,335.25 522.25,322.05 563.05,349.85 589,367.55 600.6,381.6 615.95,400.2 614.75,420.65 613.6,440.15 603.5,462.35 597.55,475.5 586.3,493.15 579.6,503.7 557.85,535.25 537,565.45 534.6,568.45 532.75,570.7 523.9,565.45 522,564.35 520,563.05 M407.9,456.45 Q412.75,442.15 417.65,429.3 430.2,396.45 437.8,388 L448.45,375.55 Q459.45,363 461.4,362.35 463.35,361.7 472.95,368.25 478.4,372.05 490.2,380.7 495.6,384.55 542.5,417.9 587.05,449.8 589.05,452.2 591.35,454.95 591.2,456.4 591.1,457.7 588.7,459.85 586.7,461.65 563.05,487.8 542.1,510.9 536,517.8 528.8,526.5 524,532.2 521.35,535.4 519.2,537.9" test="Nom Bec Head"/>
        <path id="Layer3_0_2_STROKES" stroke="#FFF" stroke-width="2" stroke-linejoin="round" stroke-linecap="round" fill="none" d="M478.75,387 Q495.45,383.15 502.65,398.65 502.85,399.05 503,399.5 M552.3,442.55 Q552.3,444 551.25,445 550.25,446.05 548.8,446.05 547.35,446.05 546.3,445 545.3,444 545.3,442.55 545.3,441.1 546.3,440.05 547.35,439.05 548.8,439.05 550.25,439.05 551.25,440.05 552.3,441.1 552.3,442.55Z M544.55,430 Q561.7,429.25 565.95,445.8 566.05,446.2 566.15,446.7 M490.55,406.1 Q490.55,407.55 489.5,408.55 488.5,409.6 487.05,409.6 485.6,409.6 484.55,408.55 483.55,407.55 483.55,406.1 483.55,404.65 484.55,403.6 485.6,402.6 487.05,402.6 488.5,402.6 489.5,403.6 490.55,404.65 490.55,406.1Z M464.85,445.65 Q459.05,452.35 451.775,453.8 451.35,456.083 451.35,458.15 452.5,464 455.9,468.8 456.8,470.05 457.725,471.3 457.938,471.547 458.15,471.8 465,479.95 472.15,485.55 475,487.8 480.05,491.95 484.35,495.45 487.8,497.45 497,502.7 511,503.6 511.469,503.628 511.925,503.65 510.787,497.391 512.5,493.3 514.45,488.45 522.8,479.65 M451.85,453.45 L451.775,453.8 Q450.55,454.05 448.775,454.125 439.8,454.45 431.9,447.75 M511.925,503.65 Q511.984,503.974 512.05,504.3 L512.35,505.6 Q512.9,507.2 514.05,508.85 517.6,514.15 525.6,517.8" test="Nom Bec Head"/>
      </g>
      <g id="Bum-Nom-the-rear">
        <path fill="#000" stroke="none" d="M527.6,529.5 Q527.15,525.7 526.4,521.75 L481.25,538.65 523,581.45 Q525.686,573.709 527.1,565.55 528,560.2 528.4,554.65 529.25,542.6 527.6,529.5 M424.5,447.8 Q420.322,447.809 416.3,448.05 405.25,448.7 395.35,451.35 364.9,459.45 350.8,484.85 417.6,508.05 417.7,508.15 417.75,508.2 421.1,478 424.45,447.8 424.5,447.8Z" test="Bum Nom the rear"/>
        <path id="Layer4_0_1_STROKES" stroke="#FEB7AE" stroke-width="2" stroke-linejoin="round" stroke-linecap="round" fill="none" d="M350.8,484.85 Q364.9,459.45 395.35,451.35 405.25,448.7 416.3,448.05 420.322,447.809 424.5,447.825 429.824,447.874 435.4,448.35 448.286,449.451 460.25,453.125 M526.4,521.75 Q527.15,525.7 527.6,529.5 529.25,542.6 528.4,554.65 528,560.2 527.1,565.55 525.686,573.709 523.025,581.45 518.228,595.311 509.4,607.8 M517.5,494.825 Q522.391,503.283 524.6,512.85 525.6,517.2 526.4,521.75 M274.3,442.8 Q288.15,441.55 303.2,442.95 L308.45,443.5 Q330.25,446.3 343.7,455.15 343.8,455.2 343.9,455.25 354.1,462 358.4,471.95 M345.55,496.55 Q347.8,490.25 350.8,484.85 M211.65,622.15 Q204.6,614.25 199.8,608.1 190.95,596.8 185.3,585.55 168.75,552.4 178.3,517.4 188.2,481.15 219.9,461.05" test="Bum Nom the rear"/>
      </g>
      <g id="Hand-Nom-the-rear">
        <path id="Layer5_0_1_STROKES" stroke="#FFF" stroke-width="2" stroke-linejoin="round" stroke-linecap="round" fill="none" d="M303.25,442.45 Q300.6,440.3 291.75,431.8 284.4,424.75 279.45,421.35 264.05,410.85 247.35,417.45 228.85,424.75 222.95,438.4 219.2,447.1 219.9,461.05 220.1,465.05 220.65,469.5 L222.85,474.4 Q225.9,480.3 229.85,485.15 242.5,500.7 259.85,500.05 278.15,499.35 280.6,476.85 281.5,468.4 279.85,458.9 278.4,450.4 275.8,445.55 275.05,444.1 274.3,442.8" test="Hand Nom the rear"/>
      </g>
      <g id="Hand2-and-Arm-Nom-the-rear">
        <path id="Layer6_0_1_STROKES" stroke="#FFF" stroke-width="2" stroke-linejoin="round" stroke-linecap="round" fill="none" d="M528.35,664.4 Q527.791,663.427 526.9,662.5 524.45,659.9 521.15,660.35 517.8,661.05 515.1,661.5 510.05,662.4 505.35,662.15 491,661.5 477.4,650.95 463.35,640.1 456.5,626.3 452.35,617.95 450.7,607.6 449.75,601.75 456.7,594.1 462.75,587.45 467.35,586.1 471.4,584.95 477.45,585.8 484.25,586.75 488.85,589.9 494.75,593.9 509.4,607.8 M542.65,631.9 L533.25,627.7 Q531.35,621.9 528.2,615.45 521.95,602.5 515.9,599.25 M528.75,665.2 Q528.578,664.798 528.35,664.4" test="Hand2 and Arm Nom the rear"/>
        <path id="Layer6_0_2_STROKES" stroke="#0FF" stroke-width="2" stroke-linejoin="round" stroke-linecap="round" fill="none" d="M560.5,542 Q564.31,545.983 568.6,550.9 585.1,569.8 594.7,588.5 602.2,603.1 618.75,634.5 630.55,658.323 633.65,672.125 634.15,673.674 634.45,675.2 635.391,679.808 634.6,684.25 632.4,696.45 617.25,696.75 602.55,697 580.6,690.75 562.35,685.5 551.3,679.75 545.1,676.55 534.5,670.55 527.493,666.591 527.075,666.525 527.503,665.975 528.35,664.4 M524.15,586.05 Q528.681,592.329 537,604.65 549.8,623.7 550.3,626.65 550.75,629.15 550.45,631 550.378,631.397 550.325,631.775 554.212,631.186 557.9,631.5 561.45,631.8 571,634.45 581.65,637.45 592.3,641.35 621.35,652 628,661.35 631.927,666.839 633.65,672.125 M550.325,631.775 Q550.14,633.225 550.3,634.3 M528.35,664.4 Q530.385,660.649 534.8,651.05 540.35,638.9 542.3,633.95 L546.9,632.45 Q548.633,632.024 550.325,631.775 M345.5,452.35 Q361.25,439.75 381.15,437.35 389.3,436.15 397.55,435.3" test="Hand2 and Arm Nom the rear"/>
      </g>
    </g>
    <g id="BlackMaskRect">
      <path fill="#000" stroke="none" d="M827.6,625.818 L827.6,424.8 -19.45,424.8 -19.45,625.818 827.6,625.818Z" test="BlackMaskRect" stroke-width="1.454"/>
    </g>
  </g>
</svg>