<?xml version="1.0" encoding="utf-8"?>
<svg id="EdithAnim08" image-rendering="inherit" baseProfile="basic" version="1.1" x="0px" y="0px" width="800" height="600" xmlns="http://www.w3.org/2000/svg" xmlns:xlink="http://www.w3.org/1999/xlink">
  <g id="Nom-rear-the-rearf150r1" overflow="visible">
    <g id="Bec-Noms-the-Rearf67r1">
      <path id="Layer2_0_1_STROKES" stroke="#FEB7AE" stroke-width="2" stroke-linejoin="round" stroke-linecap="round" fill="none" d="M509.4,543.1 Q509.2,543.35 509,543.6" test="Bec Noms the Rear_2.3242325232423263e+312.3242325232423263e+31_2.3242325232423263e+312.3242325232423263e+31_2.3242325232423263e+312.3242325232423263e+31_2323"/>
      <path id="Layer2_0_2_STROKES" stroke="#FFF" stroke-width="2" stroke-linejoin="round" stroke-linecap="round" fill="none" d="M498.725,307.7 Q512.3,306.438 518.6,320 518.8,320.4 518.95,320.85 M494.7,308.35 Q496.787,307.869 498.725,307.7 M581.9,367.2 L581.9,367.15 Q577.65,350.6 560.5,351.35 M488.15,328.15 Q490.85,325.4 496.25,325.4 500.3,325.4 501.65,326.75 503.05,328.1 503.05,332.15 L502.7,336.8 502.35,336.8 M446.85,362.85 Q453,369.55 455.6,371.55 460.4,375.3 465.4,375.3 468.15,375.3 470.5,373.35 471.859,372.185 474.45,369.275 M461.75,376.35 Q461.4,378.35 461.05,382.15 460.708,386.053 464.325,397.625 467.928,409.188 473.725,413.625 479.529,418.066 491.6,423.15 506.4,428.089 514.425,424.8 522.447,421.507 533.925,410.875 533.2,409.332 533.2,407.25 533.2,402.85 535.55,398.3 538.15,393.3 542.25,390.95 M552.65,370.5 Q554.6,370.2 557.3,369.25 559.65,368.4 560.1,368.4 563.3,368.4 564.1,369.8 564.45,370.4 564.45,372.9 564.45,375.65 563.8,377.4 563.25,378.55 563.4,378.45 M537.05,407.95 Q535.496,409.504 533.925,410.875 534.801,412.716 536.7,413.8 539.75,415.55 545.9,415.55 546.95,415.55 551.05,414.35 555.15,413.1 556.1,413.1 L556.1,412.75 Q555.1,412.75 554.75,412.4 M581.9,367.2 Q582.005,367.578 582.1,368.05" test="Bec Noms the Rear_2.3242325232423263e+312.3242325232423263e+31_2.3242325232423263e+312.3242325232423263e+31_2.3242325232423263e+312.3242325232423263e+31_2323"/>
      <path id="Layer2_0_3_STROKES" stroke="#00F" stroke-width="2" stroke-linejoin="round" stroke-linecap="round" fill="none" d="M498.725,307.7 Q498.66,307.644 498.6,307.6 486.8,298.95 481.35,295.15 471.75,288.6 469.8,289.25 467.85,289.9 456.85,302.45 L446.2,314.9 Q438.6,323.35 426.05,356.2 421.15,369.05 416.3,383.35 M498.725,307.7 Q499.872,308.508 502.6,310.45 505.838,312.754 511.3,316.65 524.554,326.067 550.9,344.8 557.802,349.743 563.675,353.975 569.922,358.473 575.025,362.175 578.781,364.902 581.9,367.2 M395.35,386.65 Q399.25,374.35 404.8,359.6 415.9,330.1 424.35,317.7 436.45,299.95 452,285.5 471.2,267.6 488.5,262.15 530.65,248.95 571.45,276.75 597.4,294.45 609,308.5 624.35,327.1 623.15,347.55 622,367.05 611.9,389.25 605.95,402.4 594.7,420.05 588,430.6 566.25,462.15 545.4,492.35 543,495.35 541.15,497.6 532.3,492.35 530.4,491.25 528.4,489.95 M581.9,367.2 Q596.331,377.759 597.45,379.1 599.75,381.85 599.6,383.3 599.5,384.6 597.1,386.75 595.1,388.55 571.45,414.7 561.947,425.178 555.5,432.325 547.733,440.93 544.4,444.7 539.901,450.135 536.35,454.4 534.201,456.961 532.4,459.1 529.75,462.3 527.6,464.8" test="Bec Noms the Rear_2.3242325232423263e+312.3242325232423263e+31_2.3242325232423263e+312.3242325232423263e+31_2.3242325232423263e+312.3242325232423263e+31_2323"/>
      <g id="Bum-Nom-the-rear">
        <path fill="#000" stroke="none" d="M527.6,464.8 Q527.15,461 526.4,457.05 L481.25,473.95 523,516.75 Q525.686,509.009 527.1,500.85 528,495.5 528.4,489.95 529.25,477.9 527.6,464.8 M424.5,383.1 Q420.322,383.109 416.3,383.35 405.25,384 395.35,386.65 364.9,394.75 350.8,420.15 417.6,443.35 417.7,443.45 417.75,443.5 421.1,413.3 424.45,383.1 424.5,383.1Z" test="Bum Nom the rear"/>
        <path id="Layer3_0_1_STROKES" stroke="#FEB7AE" stroke-width="2" stroke-linejoin="round" stroke-linecap="round" fill="none" d="M350.8,420.15 Q364.9,394.75 395.35,386.65 405.25,384 416.3,383.35 420.322,383.109 424.5,383.125 429.824,383.174 435.4,383.65 448.286,384.751 460.25,388.425 M526.4,457.05 Q527.15,461 527.6,464.8 529.25,477.9 528.4,489.95 528,495.5 527.1,500.85 525.686,509.009 523.025,516.75 518.228,530.611 509.4,543.1 M517.5,430.125 Q522.391,438.583 524.6,448.15 525.6,452.5 526.4,457.05 M274.3,378.1 Q288.15,376.85 303.2,378.25 L308.45,378.8 Q330.25,381.6 343.7,390.45 343.8,390.5 343.9,390.55 354.1,397.3 358.4,407.25 M345.55,431.85 Q347.8,425.55 350.8,420.15 M211.65,557.45 Q204.6,549.55 199.8,543.4 190.95,532.1 185.3,520.85 168.75,487.7 178.3,452.7 188.2,416.45 219.9,396.35" test="Bum Nom the rear"/>
      </g>
      <g id="Hand-Nom-the-rear">
        <path id="Layer4_0_1_STROKES" stroke="#FFF" stroke-width="2" stroke-linejoin="round" stroke-linecap="round" fill="none" d="M303.25,377.75 Q300.6,375.6 291.75,367.1 284.4,360.05 279.45,356.65 264.05,346.15 247.35,352.75 228.85,360.05 222.95,373.7 219.2,382.4 219.9,396.35 220.1,400.35 220.65,404.8 L222.85,409.7 Q225.9,415.6 229.85,420.45 242.5,436 259.85,435.35 278.15,434.65 280.6,412.15 281.5,403.7 279.85,394.2 278.4,385.7 275.8,380.85 275.05,379.4 274.3,378.1" test="Hand Nom the rear"/>
      </g>
      <g id="Hand2-and-Arm-Nom-the-rear">
        <path id="Layer5_0_1_STROKES" stroke="#FFF" stroke-width="2" stroke-linejoin="round" stroke-linecap="round" fill="none" d="M528.35,599.7 Q527.791,598.727 526.9,597.8 524.45,595.2 521.15,595.65 517.8,596.35 515.1,596.8 510.05,597.7 505.35,597.45 491,596.8 477.4,586.25 463.35,575.4 456.5,561.6 452.35,553.25 450.7,542.9 449.75,537.05 456.7,529.4 462.75,522.75 467.35,521.4 471.4,520.25 477.45,521.1 484.25,522.05 488.85,525.2 494.75,529.2 509.4,543.1 M542.65,567.2 L533.25,563 Q531.35,557.2 528.2,550.75 521.95,537.8 515.9,534.55 M528.75,600.5 Q528.578,600.098 528.35,599.7" test="Hand2 and Arm Nom the rear"/>
        <path id="Layer5_0_2_STROKES" stroke="#0FF" stroke-width="2" stroke-linejoin="round" stroke-linecap="round" fill="none" d="M560.5,477.3 Q564.31,481.283 568.6,486.2 585.1,505.1 594.7,523.8 602.2,538.4 618.75,569.8 630.55,593.623 633.65,607.425 634.15,608.974 634.45,610.5 635.391,615.108 634.6,619.55 632.4,631.75 617.25,632.05 602.55,632.3 580.6,626.05 562.35,620.8 551.3,615.05 545.1,611.85 534.5,605.85 527.493,601.891 527.075,601.825 527.503,601.275 528.35,599.7 M524.15,521.35 Q528.681,527.629 537,539.95 549.8,559 550.3,561.95 550.75,564.45 550.45,566.3 550.378,566.697 550.325,567.075 554.212,566.486 557.9,566.8 561.45,567.1 571,569.75 581.65,572.75 592.3,576.65 621.35,587.3 628,596.65 631.927,602.139 633.65,607.425 M550.325,567.075 Q550.14,568.525 550.3,569.6 M528.35,599.7 Q530.385,595.949 534.8,586.35 540.35,574.2 542.3,569.25 L546.9,567.75 Q548.633,567.324 550.325,567.075 M345.5,387.65 Q361.25,375.05 381.15,372.65 389.3,371.45 397.55,370.6" test="Hand2 and Arm Nom the rear"/>
      </g>
    </g>
    <g id="BlackMaskRect">
      <path fill="#000" stroke="none" d="M827.6,625.818 L827.6,424.8 -19.45,424.8 -19.45,625.818 827.6,625.818Z" test="BlackMaskRect" stroke-width="1.454"/>
    </g>
  </g>
</svg>