<?xml version="1.0" encoding="utf-8"?>
<svg id="EdithAnim08" image-rendering="inherit" baseProfile="basic" version="1.1" x="0px" y="0px" width="800" height="600" xmlns="http://www.w3.org/2000/svg" xmlns:xlink="http://www.w3.org/1999/xlink">
  <g id="Nom-rear-the-rearf156r1" overflow="visible">
    <g id="Bec-Noms-the-Rearf67r1">
      <path id="Layer2_0_1_STROKES" stroke="#FEB7AE" stroke-width="2" stroke-linejoin="round" stroke-linecap="round" fill="none" d="M509.4,658 Q509.2,658.25 509,658.5" test="Bec Noms the Rear_2.3242325232423263e+312.3242325232423263e+31_2.3242325232423263e+312.3242325232423263e+31_2.3242325232423263e+312.3242325232423263e+31_2.3242325232423263e+312.3242325232423263e+31_22"/>
      <path id="Layer2_0_2_STROKES" stroke="#FFF" stroke-width="2" stroke-linejoin="round" stroke-linecap="round" fill="none" d="M498.725,422.6 Q512.3,421.338 518.6,434.9 518.8,435.3 518.95,435.75 M494.7,423.25 Q496.787,422.769 498.725,422.6 M581.9,482.1 L581.9,482.05 Q577.65,465.5 560.5,466.25 M488.15,443.05 Q490.85,440.3 496.25,440.3 500.3,440.3 501.65,441.65 503.05,443 503.05,447.05 L502.7,451.7 502.35,451.7 M446.85,477.75 Q453,484.45 455.6,486.45 460.4,490.2 465.4,490.2 468.15,490.2 470.5,488.25 471.859,487.085 474.45,484.175 M461.75,491.25 Q461.4,493.25 461.05,497.05 460.708,500.953 464.325,512.525 467.928,524.088 473.725,528.525 479.529,532.966 491.6,538.05 506.4,542.989 514.425,539.7 522.447,536.407 533.925,525.775 533.2,524.232 533.2,522.15 533.2,517.75 535.55,513.2 538.15,508.2 542.25,505.85 M552.65,485.4 Q554.6,485.1 557.3,484.15 559.65,483.3 560.1,483.3 563.3,483.3 564.1,484.7 564.45,485.3 564.45,487.8 564.45,490.55 563.8,492.3 563.25,493.45 563.4,493.35 M537.05,522.85 Q535.496,524.404 533.925,525.775 534.801,527.616 536.7,528.7 539.75,530.45 545.9,530.45 546.95,530.45 551.05,529.25 555.15,528 556.1,528 L556.1,527.65 Q555.1,527.65 554.75,527.3 M581.9,482.1 Q582.005,482.478 582.1,482.95" test="Bec Noms the Rear_2.3242325232423263e+312.3242325232423263e+31_2.3242325232423263e+312.3242325232423263e+31_2.3242325232423263e+312.3242325232423263e+31_2.3242325232423263e+312.3242325232423263e+31_22"/>
      <path id="Layer2_0_3_STROKES" stroke="#00F" stroke-width="2" stroke-linejoin="round" stroke-linecap="round" fill="none" d="M498.725,422.6 Q498.66,422.544 498.6,422.5 486.8,413.85 481.35,410.05 471.75,403.5 469.8,404.15 467.85,404.8 456.85,417.35 L446.2,429.8 Q438.6,438.25 426.05,471.1 421.15,483.95 416.3,498.25 M498.725,422.6 Q499.872,423.408 502.6,425.35 505.838,427.654 511.3,431.55 524.554,440.967 550.9,459.7 557.802,464.643 563.675,468.875 569.922,473.373 575.025,477.075 578.781,479.802 581.9,482.1 M395.35,501.55 Q399.25,489.25 404.8,474.5 415.9,445 424.35,432.6 436.45,414.85 452,400.4 471.2,382.5 488.5,377.05 530.65,363.85 571.45,391.65 597.4,409.35 609,423.4 624.35,442 623.15,462.45 622,481.95 611.9,504.15 605.95,517.3 594.7,534.95 588,545.5 566.25,577.05 545.4,607.25 543,610.25 541.15,612.5 532.3,607.25 530.4,606.15 528.4,604.85 M581.9,482.1 Q596.331,492.659 597.45,494 599.75,496.75 599.6,498.2 599.5,499.5 597.1,501.65 595.1,503.45 571.45,529.6 561.947,540.078 555.5,547.225 547.733,555.83 544.4,559.6 539.901,565.035 536.35,569.3 534.201,571.861 532.4,574 529.75,577.2 527.6,579.7" test="Bec Noms the Rear_2.3242325232423263e+312.3242325232423263e+31_2.3242325232423263e+312.3242325232423263e+31_2.3242325232423263e+312.3242325232423263e+31_2.3242325232423263e+312.3242325232423263e+31_22"/>
      <g id="Bum-Nom-the-rear">
        <path fill="#000" stroke="none" d="M527.6,579.7 Q527.15,575.9 526.4,571.95 L481.25,588.85 523,631.65 Q525.686,623.909 527.1,615.75 528,610.4 528.4,604.85 529.25,592.8 527.6,579.7 M424.5,498 Q420.322,498.009 416.3,498.25 405.25,498.9 395.35,501.55 364.9,509.65 350.8,535.05 417.6,558.25 417.7,558.35 417.75,558.4 421.1,528.2 424.45,498 424.5,498Z" test="Bum Nom the rear"/>
        <path id="Layer3_0_1_STROKES" stroke="#FEB7AE" stroke-width="2" stroke-linejoin="round" stroke-linecap="round" fill="none" d="M350.8,535.05 Q364.9,509.65 395.35,501.55 405.25,498.9 416.3,498.25 420.322,498.009 424.5,498.025 429.824,498.074 435.4,498.55 448.286,499.651 460.25,503.325 M526.4,571.95 Q527.15,575.9 527.6,579.7 529.25,592.8 528.4,604.85 528,610.4 527.1,615.75 525.686,623.909 523.025,631.65 518.228,645.511 509.4,658 M517.5,545.025 Q522.391,553.483 524.6,563.05 525.6,567.4 526.4,571.95 M274.3,493 Q288.15,491.75 303.2,493.15 L308.45,493.7 Q330.25,496.5 343.7,505.35 343.8,505.4 343.9,505.45 354.1,512.2 358.4,522.15 M345.55,546.75 Q347.8,540.45 350.8,535.05 M211.65,672.35 Q204.6,664.45 199.8,658.3 190.95,647 185.3,635.75 168.75,602.6 178.3,567.6 188.2,531.35 219.9,511.25" test="Bum Nom the rear"/>
      </g>
      <g id="Hand-Nom-the-rear">
        <path id="Layer4_0_1_STROKES" stroke="#FFF" stroke-width="2" stroke-linejoin="round" stroke-linecap="round" fill="none" d="M303.25,492.65 Q300.6,490.5 291.75,482 284.4,474.95 279.45,471.55 264.05,461.05 247.35,467.65 228.85,474.95 222.95,488.6 219.2,497.3 219.9,511.25 220.1,515.25 220.65,519.7 L222.85,524.6 Q225.9,530.5 229.85,535.35 242.5,550.9 259.85,550.25 278.15,549.55 280.6,527.05 281.5,518.6 279.85,509.1 278.4,500.6 275.8,495.75 275.05,494.3 274.3,493" test="Hand Nom the rear"/>
      </g>
      <g id="Hand2-and-Arm-Nom-the-rear">
        <path id="Layer5_0_1_STROKES" stroke="#FFF" stroke-width="2" stroke-linejoin="round" stroke-linecap="round" fill="none" d="M528.35,714.6 Q527.791,713.627 526.9,712.7 524.45,710.1 521.15,710.55 517.8,711.25 515.1,711.7 510.05,712.6 505.35,712.35 491,711.7 477.4,701.15 463.35,690.3 456.5,676.5 452.35,668.15 450.7,657.8 449.75,651.95 456.7,644.3 462.75,637.65 467.35,636.3 471.4,635.15 477.45,636 484.25,636.95 488.85,640.1 494.75,644.1 509.4,658 M542.65,682.1 L533.25,677.9 Q531.35,672.1 528.2,665.65 521.95,652.7 515.9,649.45 M528.75,715.4 Q528.578,714.998 528.35,714.6" test="Hand2 and Arm Nom the rear"/>
        <path id="Layer5_0_2_STROKES" stroke="#0FF" stroke-width="2" stroke-linejoin="round" stroke-linecap="round" fill="none" d="M560.5,592.2 Q564.31,596.183 568.6,601.1 585.1,620 594.7,638.7 602.2,653.3 618.75,684.7 630.55,708.523 633.65,722.325 634.15,723.874 634.45,725.4 635.391,730.008 634.6,734.45 632.4,746.65 617.25,746.95 602.55,747.2 580.6,740.95 562.35,735.7 551.3,729.95 545.1,726.75 534.5,720.75 527.493,716.791 527.075,716.725 527.503,716.175 528.35,714.6 M524.15,636.25 Q528.681,642.529 537,654.85 549.8,673.9 550.3,676.85 550.75,679.35 550.45,681.2 550.378,681.597 550.325,681.975 554.212,681.386 557.9,681.7 561.45,682 571,684.65 581.65,687.65 592.3,691.55 621.35,702.2 628,711.55 631.927,717.039 633.65,722.325 M550.325,681.975 Q550.14,683.425 550.3,684.5 M528.35,714.6 Q530.385,710.849 534.8,701.25 540.35,689.1 542.3,684.15 L546.9,682.65 Q548.633,682.224 550.325,681.975 M345.5,502.55 Q361.25,489.95 381.15,487.55 389.3,486.35 397.55,485.5" test="Hand2 and Arm Nom the rear"/>
      </g>
    </g>
    <g id="BlackMaskRect">
      <path fill="#000" stroke="none" d="M827.6,625.818 L827.6,424.8 -19.45,424.8 -19.45,625.818 827.6,625.818Z" test="BlackMaskRect" stroke-width="1.454"/>
    </g>
  </g>
</svg>