<?xml version="1.0" encoding="utf-8"?>
<svg id="EdithAnim08" image-rendering="inherit" baseProfile="basic" version="1.1" x="0px" y="0px" width="800" height="600" xmlns="http://www.w3.org/2000/svg" xmlns:xlink="http://www.w3.org/1999/xlink">
  <g id="Nom-rear-the-rearf159r1" overflow="visible">
    <g id="Bec-Noms-the-Rearf0r1">
      <path id="Layer2_0_1_STROKES" stroke="#FEB7AE" stroke-width="2" stroke-linejoin="round" stroke-linecap="round" fill="none" d="M509.4,726.65 Q509.2,726.9 509,727.15" test="Bec Noms the Rear_2.3242325232423263e+312.3242325232423263e+31_2.3242325232423263e+312.3242325232423263e+31_2.3242325232423263e+312.3242325232423263e+31_2.3242325232423263e+312.3242325232423263e+31"/>
      <g id="Bum-Nom-the-rear">
        <path fill="#000" stroke="none" d="M527.6,648.35 Q527.15,644.55 526.4,640.6 L481.25,657.5 523,700.3 Q525.686,692.559 527.1,684.4 528,679.05 528.4,673.5 529.25,661.45 527.6,648.35 M424.5,566.65 Q420.322,566.659 416.3,566.9 405.25,567.55 395.35,570.2 364.9,578.3 350.8,603.7 417.6,626.9 417.7,627 417.75,627.05 421.1,596.85 424.45,566.65 424.5,566.65Z" test="Bum Nom the rear"/>
        <path id="Layer3_0_1_STROKES" stroke="#FEB7AE" stroke-width="2" stroke-linejoin="round" stroke-linecap="round" fill="none" d="M350.8,603.7 Q364.9,578.3 395.35,570.2 405.25,567.55 416.3,566.9 420.322,566.659 424.5,566.675 429.824,566.724 435.4,567.2 448.286,568.301 460.25,571.975 M526.4,640.6 Q527.15,644.55 527.6,648.35 529.25,661.45 528.4,673.5 528,679.05 527.1,684.4 525.686,692.559 523.025,700.3 518.228,714.161 509.4,726.65 M517.5,613.675 Q522.391,622.133 524.6,631.7 525.6,636.05 526.4,640.6 M274.3,561.65 Q288.15,560.4 303.2,561.8 L308.45,562.35 Q330.25,565.15 343.7,574 343.8,574.05 343.9,574.1 354.1,580.85 358.4,590.8 M345.55,615.4 Q347.8,609.1 350.8,603.7 M211.65,741 Q204.6,733.1 199.8,726.95 190.95,715.65 185.3,704.4 168.75,671.25 178.3,636.25 188.2,600 219.9,579.9" test="Bum Nom the rear"/>
      </g>
      <g id="Hand-Nom-the-rear">
        <path id="Layer4_0_1_STROKES" stroke="#FFF" stroke-width="2" stroke-linejoin="round" stroke-linecap="round" fill="none" d="M303.25,561.3 Q300.6,559.15 291.75,550.65 284.4,543.6 279.45,540.2 264.05,529.7 247.35,536.3 228.85,543.6 222.95,557.25 219.2,565.95 219.9,579.9 220.1,583.9 220.65,588.35 L222.85,593.25 Q225.9,599.15 229.85,604 242.5,619.55 259.85,618.9 278.15,618.2 280.6,595.7 281.5,587.25 279.85,577.75 278.4,569.25 275.8,564.4 275.05,562.95 274.3,561.65" test="Hand Nom the rear"/>
      </g>
      <g id="Hand2-and-Arm-Nom-the-rear">
        <path id="Layer5_0_1_STROKES" stroke="#FFF" stroke-width="2" stroke-linejoin="round" stroke-linecap="round" fill="none" d="M528.35,783.25 Q527.791,782.277 526.9,781.35 524.45,778.75 521.15,779.2 517.8,779.9 515.1,780.35 510.05,781.25 505.35,781 491,780.35 477.4,769.8 463.35,758.95 456.5,745.15 452.35,736.8 450.7,726.45 449.75,720.6 456.7,712.95 462.75,706.3 467.35,704.95 471.4,703.8 477.45,704.65 484.25,705.6 488.85,708.75 494.75,712.75 509.4,726.65 M542.65,750.75 L533.25,746.55 Q531.35,740.75 528.2,734.3 521.95,721.35 515.9,718.1 M528.75,784.05 Q528.578,783.648 528.35,783.25" test="Hand2 and Arm Nom the rear"/>
        <path id="Layer5_0_2_STROKES" stroke="#0FF" stroke-width="2" stroke-linejoin="round" stroke-linecap="round" fill="none" d="M560.5,660.85 Q564.31,664.833 568.6,669.75 585.1,688.65 594.7,707.35 602.2,721.95 618.75,753.35 630.55,777.173 633.65,790.975 634.15,792.524 634.45,794.05 635.391,798.658 634.6,803.1 632.4,815.3 617.25,815.6 602.55,815.85 580.6,809.6 562.35,804.35 551.3,798.6 545.1,795.4 534.5,789.4 527.493,785.441 527.075,785.375 527.503,784.825 528.35,783.25 M524.15,704.9 Q528.681,711.179 537,723.5 549.8,742.55 550.3,745.5 550.75,748 550.45,749.85 550.378,750.247 550.325,750.625 554.212,750.036 557.9,750.35 561.45,750.65 571,753.3 581.65,756.3 592.3,760.2 621.35,770.85 628,780.2 631.927,785.689 633.65,790.975 M550.325,750.625 Q550.14,752.075 550.3,753.15 M528.35,783.25 Q530.385,779.499 534.8,769.9 540.35,757.75 542.3,752.8 L546.9,751.3 Q548.633,750.874 550.325,750.625 M345.5,571.2 Q361.25,558.6 381.15,556.2 389.3,555 397.55,554.15" test="Hand2 and Arm Nom the rear"/>
      </g>
      <g id="Nom-Bec-Head">
        <path id="Layer6_0_1_STROKES" stroke="#00F" stroke-width="2" stroke-linejoin="round" stroke-linecap="round" fill="none" d="M395.35,570.2 Q399.25,557.9 404.8,543.15 415.9,513.65 424.35,501.25 436.45,483.5 452,469.05 471.2,451.15 488.5,445.7 530.65,432.5 571.45,460.3 597.4,478 609,492.05 624.35,510.65 623.15,531.1 622,550.6 611.9,572.8 605.95,585.95 594.7,603.6 588,614.15 566.25,645.7 545.4,675.9 543,678.9 541.15,681.15 532.3,675.9 530.4,674.8 528.4,673.5 M416.3,566.9 Q421.15,552.6 426.05,539.75 438.6,506.9 446.2,498.45 L456.85,486 Q467.85,473.45 469.8,472.8 471.75,472.15 481.35,478.7 486.8,482.5 498.6,491.15 504,495 550.9,528.35 595.45,560.25 597.45,562.65 599.75,565.4 599.6,566.85 599.5,568.15 597.1,570.3 595.1,572.1 571.45,598.25 550.5,621.35 544.4,628.25 537.2,636.95 532.4,642.65 529.75,645.85 527.6,648.35" test="Nom Bec Head"/>
        <path id="Layer6_0_2_STROKES" stroke="#FFF" stroke-width="2" stroke-linejoin="round" stroke-linecap="round" fill="none" d="M487.15,497.45 Q503.85,493.6 511.05,509.1 511.25,509.5 511.4,509.95 M560.7,553 Q560.7,554.45 559.65,555.45 558.65,556.5 557.2,556.5 555.75,556.5 554.7,555.45 553.7,554.45 553.7,553 553.7,551.55 554.7,550.5 555.75,549.5 557.2,549.5 558.65,549.5 559.65,550.5 560.7,551.55 560.7,553Z M552.95,540.45 Q570.1,539.7 574.35,556.25 574.45,556.65 574.55,557.15 M498.95,516.55 Q498.95,518 497.9,519 496.9,520.05 495.45,520.05 494,520.05 492.95,519 491.95,518 491.95,516.55 491.95,515.1 492.95,514.05 494,513.05 495.45,513.05 496.9,513.05 497.9,514.05 498.95,515.1 498.95,516.55Z M473.25,556.1 Q467.45,562.8 460.175,564.25 459.75,566.533 459.75,568.6 460.9,574.45 464.3,579.25 465.2,580.5 466.125,581.75 466.338,581.997 466.55,582.25 473.4,590.4 480.55,596 483.4,598.25 488.45,602.4 492.75,605.9 496.2,607.9 505.4,613.15 519.4,614.05 519.869,614.078 520.325,614.1 519.187,607.841 520.9,603.75 522.85,598.9 531.2,590.1 M460.25,563.9 L460.175,564.25 Q458.95,564.5 457.175,564.575 448.2,564.9 440.3,558.2 M520.325,614.1 Q520.384,614.424 520.45,614.75 L520.75,616.05 Q521.3,617.65 522.45,619.3 526,624.6 534,628.25" test="Nom Bec Head"/>
      </g>
    </g>
    <g id="BlackMaskRect">
      <path fill="#000" stroke="none" d="M827.6,625.818 L827.6,424.8 -19.45,424.8 -19.45,625.818 827.6,625.818Z" test="BlackMaskRect" stroke-width="1.454"/>
    </g>
  </g>
</svg>