<?xml version="1.0" encoding="utf-8"?>
<svg id="EdithAnim08" image-rendering="inherit" baseProfile="basic" version="1.1" x="0px" y="0px" width="800" height="600" xmlns="http://www.w3.org/2000/svg" xmlns:xlink="http://www.w3.org/1999/xlink">
  <g id="Nom-rear-the-rearf17r1" overflow="visible">
    <g id="Bec-Noms-the-Rearf14r1">
      <path id="Layer2_0_1_STROKES" stroke="#FEB7AE" stroke-width="2" stroke-linejoin="round" stroke-linecap="round" fill="none" d="M509.4,589.3 Q509.2,589.55 509,589.8" test="Bec Noms the Rear_2323"/>
      <g id="Nom-Bec-Head">
        <path id="Layer3_0_1_STROKES" stroke="#00F" stroke-width="2" stroke-linejoin="round" stroke-linecap="round" fill="none" d="M386.95,441.25 Q390.85,428.95 396.4,414.2 407.5,384.7 415.95,372.3 428.05,354.55 443.6,340.1 462.8,322.2 480.1,316.75 522.25,303.55 563.05,331.35 589,349.05 600.6,363.1 615.95,381.7 614.75,402.15 613.6,421.65 603.5,443.85 597.55,457 586.3,474.65 579.6,485.2 557.85,516.75 537,546.95 534.6,549.95 532.75,552.2 523.9,546.95 522,545.85 520,544.55 M407.9,437.95 Q412.75,423.65 417.65,410.8 430.2,377.95 437.8,369.5 L448.45,357.05 Q459.45,344.5 461.4,343.85 463.35,343.2 472.95,349.75 478.4,353.55 490.2,362.2 495.6,366.05 542.5,399.4 587.05,431.3 589.05,433.7 591.35,436.45 591.2,437.9 591.1,439.2 588.7,441.35 586.7,443.15 563.05,469.3 542.1,492.4 536,499.3 528.8,508 524,513.7 521.35,516.9 519.2,519.4" test="Nom Bec Head"/>
        <path id="Layer3_0_2_STROKES" stroke="#FFF" stroke-width="2" stroke-linejoin="round" stroke-linecap="round" fill="none" d="M478.75,368.5 Q495.45,364.65 502.65,380.15 502.85,380.55 503,381 M552.3,424.05 Q552.3,425.5 551.25,426.5 550.25,427.55 548.8,427.55 547.35,427.55 546.3,426.5 545.3,425.5 545.3,424.05 545.3,422.6 546.3,421.55 547.35,420.55 548.8,420.55 550.25,420.55 551.25,421.55 552.3,422.6 552.3,424.05Z M544.55,411.5 Q561.7,410.75 565.95,427.3 566.05,427.7 566.15,428.2 M490.55,387.6 Q490.55,389.05 489.5,390.05 488.5,391.1 487.05,391.1 485.6,391.1 484.55,390.05 483.55,389.05 483.55,387.6 483.55,386.15 484.55,385.1 485.6,384.1 487.05,384.1 488.5,384.1 489.5,385.1 490.55,386.15 490.55,387.6Z M464.85,427.15 Q459.05,433.85 451.775,435.3 451.35,437.583 451.35,439.65 452.5,445.5 455.9,450.3 456.8,451.55 457.725,452.8 457.938,453.047 458.15,453.3 465,461.45 472.15,467.05 475,469.3 480.05,473.45 484.35,476.95 487.8,478.95 497,484.2 511,485.1 511.469,485.128 511.925,485.15 510.787,478.891 512.5,474.8 514.45,469.95 522.8,461.15 M451.85,434.95 L451.775,435.3 Q450.55,435.55 448.775,435.625 439.8,435.95 431.9,429.25 M511.925,485.15 Q511.984,485.474 512.05,485.8 L512.35,487.1 Q512.9,488.7 514.05,490.35 517.6,495.65 525.6,499.3" test="Nom Bec Head"/>
      </g>
      <g id="Bum-Nom-the-rear">
        <path fill="#000" stroke="none" d="M527.6,511 Q527.15,507.2 526.4,503.25 L481.25,520.15 523,562.95 Q525.686,555.209 527.1,547.05 528,541.7 528.4,536.15 529.25,524.1 527.6,511 M424.5,429.3 Q420.322,429.309 416.3,429.55 405.25,430.2 395.35,432.85 364.9,440.95 350.8,466.35 417.6,489.55 417.7,489.65 417.75,489.7 421.1,459.5 424.45,429.3 424.5,429.3Z" test="Bum Nom the rear"/>
        <path id="Layer4_0_1_STROKES" stroke="#FEB7AE" stroke-width="2" stroke-linejoin="round" stroke-linecap="round" fill="none" d="M350.8,466.35 Q364.9,440.95 395.35,432.85 405.25,430.2 416.3,429.55 420.322,429.309 424.5,429.325 429.824,429.374 435.4,429.85 448.286,430.951 460.25,434.625 M526.4,503.25 Q527.15,507.2 527.6,511 529.25,524.1 528.4,536.15 528,541.7 527.1,547.05 525.686,555.209 523.025,562.95 518.228,576.811 509.4,589.3 M517.5,476.325 Q522.391,484.783 524.6,494.35 525.6,498.7 526.4,503.25 M274.3,424.3 Q288.15,423.05 303.2,424.45 L308.45,425 Q330.25,427.8 343.7,436.65 343.8,436.7 343.9,436.75 354.1,443.5 358.4,453.45 M345.55,478.05 Q347.8,471.75 350.8,466.35 M211.65,603.65 Q204.6,595.75 199.8,589.6 190.95,578.3 185.3,567.05 168.75,533.9 178.3,498.9 188.2,462.65 219.9,442.55" test="Bum Nom the rear"/>
      </g>
      <g id="Hand-Nom-the-rear">
        <path id="Layer5_0_1_STROKES" stroke="#FFF" stroke-width="2" stroke-linejoin="round" stroke-linecap="round" fill="none" d="M303.25,423.95 Q300.6,421.8 291.75,413.3 284.4,406.25 279.45,402.85 264.05,392.35 247.35,398.95 228.85,406.25 222.95,419.9 219.2,428.6 219.9,442.55 220.1,446.55 220.65,451 L222.85,455.9 Q225.9,461.8 229.85,466.65 242.5,482.2 259.85,481.55 278.15,480.85 280.6,458.35 281.5,449.9 279.85,440.4 278.4,431.9 275.8,427.05 275.05,425.6 274.3,424.3" test="Hand Nom the rear"/>
      </g>
      <g id="Hand2-and-Arm-Nom-the-rear">
        <path id="Layer6_0_1_STROKES" stroke="#FFF" stroke-width="2" stroke-linejoin="round" stroke-linecap="round" fill="none" d="M528.35,645.9 Q527.791,644.927 526.9,644 524.45,641.4 521.15,641.85 517.8,642.55 515.1,643 510.05,643.9 505.35,643.65 491,643 477.4,632.45 463.35,621.6 456.5,607.8 452.35,599.45 450.7,589.1 449.75,583.25 456.7,575.6 462.75,568.95 467.35,567.6 471.4,566.45 477.45,567.3 484.25,568.25 488.85,571.4 494.75,575.4 509.4,589.3 M542.65,613.4 L533.25,609.2 Q531.35,603.4 528.2,596.95 521.95,584 515.9,580.75 M528.75,646.7 Q528.578,646.298 528.35,645.9" test="Hand2 and Arm Nom the rear"/>
        <path id="Layer6_0_2_STROKES" stroke="#0FF" stroke-width="2" stroke-linejoin="round" stroke-linecap="round" fill="none" d="M560.5,523.5 Q564.31,527.483 568.6,532.4 585.1,551.3 594.7,570 602.2,584.6 618.75,616 630.55,639.823 633.65,653.625 634.15,655.174 634.45,656.7 635.391,661.308 634.6,665.75 632.4,677.95 617.25,678.25 602.55,678.5 580.6,672.25 562.35,667 551.3,661.25 545.1,658.05 534.5,652.05 527.493,648.091 527.075,648.025 527.503,647.475 528.35,645.9 M524.15,567.55 Q528.681,573.829 537,586.15 549.8,605.2 550.3,608.15 550.75,610.65 550.45,612.5 550.378,612.897 550.325,613.275 554.212,612.686 557.9,613 561.45,613.3 571,615.95 581.65,618.95 592.3,622.85 621.35,633.5 628,642.85 631.927,648.339 633.65,653.625 M550.325,613.275 Q550.14,614.725 550.3,615.8 M528.35,645.9 Q530.385,642.149 534.8,632.55 540.35,620.4 542.3,615.45 L546.9,613.95 Q548.633,613.524 550.325,613.275 M345.5,433.85 Q361.25,421.25 381.15,418.85 389.3,417.65 397.55,416.8" test="Hand2 and Arm Nom the rear"/>
      </g>
    </g>
    <g id="BlackMaskRect">
      <path fill="#000" stroke="none" d="M827.6,625.818 L827.6,424.8 -19.45,424.8 -19.45,625.818 827.6,625.818Z" test="BlackMaskRect" stroke-width="1.454"/>
    </g>
  </g>
</svg>