<?xml version="1.0" encoding="utf-8"?>
<svg id="EdithAnim08" image-rendering="inherit" baseProfile="basic" version="1.1" x="0px" y="0px" width="800" height="600" xmlns="http://www.w3.org/2000/svg" xmlns:xlink="http://www.w3.org/1999/xlink">
  <g id="Nom-rear-the-rearf19r1" overflow="visible">
    <g id="Bec-Noms-the-Rearf14r1">
      <path id="Layer2_0_1_STROKES" stroke="#FEB7AE" stroke-width="2" stroke-linejoin="round" stroke-linecap="round" fill="none" d="M509.4,571.6 Q509.2,571.85 509,572.1" test="Bec Noms the Rear_2324232523242325"/>
      <g id="Nom-Bec-Head">
        <path id="Layer3_0_1_STROKES" stroke="#00F" stroke-width="2" stroke-linejoin="round" stroke-linecap="round" fill="none" d="M386.95,423.55 Q390.85,411.25 396.4,396.5 407.5,367 415.95,354.6 428.05,336.85 443.6,322.4 462.8,304.5 480.1,299.05 522.25,285.85 563.05,313.65 589,331.35 600.6,345.4 615.95,364 614.75,384.45 613.6,403.95 603.5,426.15 597.55,439.3 586.3,456.95 579.6,467.5 557.85,499.05 537,529.25 534.6,532.25 532.75,534.5 523.9,529.25 522,528.15 520,526.85 M407.9,420.25 Q412.75,405.95 417.65,393.1 430.2,360.25 437.8,351.8 L448.45,339.35 Q459.45,326.8 461.4,326.15 463.35,325.5 472.95,332.05 478.4,335.85 490.2,344.5 495.6,348.35 542.5,381.7 587.05,413.6 589.05,416 591.35,418.75 591.2,420.2 591.1,421.5 588.7,423.65 586.7,425.45 563.05,451.6 542.1,474.7 536,481.6 528.8,490.3 524,496 521.35,499.2 519.2,501.7" test="Nom Bec Head"/>
        <path id="Layer3_0_2_STROKES" stroke="#FFF" stroke-width="2" stroke-linejoin="round" stroke-linecap="round" fill="none" d="M478.75,350.8 Q495.45,346.95 502.65,362.45 502.85,362.85 503,363.3 M552.3,406.35 Q552.3,407.8 551.25,408.8 550.25,409.85 548.8,409.85 547.35,409.85 546.3,408.8 545.3,407.8 545.3,406.35 545.3,404.9 546.3,403.85 547.35,402.85 548.8,402.85 550.25,402.85 551.25,403.85 552.3,404.9 552.3,406.35Z M544.55,393.8 Q561.7,393.05 565.95,409.6 566.05,410 566.15,410.5 M490.55,369.9 Q490.55,371.35 489.5,372.35 488.5,373.4 487.05,373.4 485.6,373.4 484.55,372.35 483.55,371.35 483.55,369.9 483.55,368.45 484.55,367.4 485.6,366.4 487.05,366.4 488.5,366.4 489.5,367.4 490.55,368.45 490.55,369.9Z M464.85,409.45 Q459.05,416.15 451.775,417.6 451.35,419.883 451.35,421.95 452.5,427.8 455.9,432.6 456.8,433.85 457.725,435.1 457.938,435.347 458.15,435.6 465,443.75 472.15,449.35 475,451.6 480.05,455.75 484.35,459.25 487.8,461.25 497,466.5 511,467.4 511.469,467.428 511.925,467.45 510.787,461.191 512.5,457.1 514.45,452.25 522.8,443.45 M451.85,417.25 L451.775,417.6 Q450.55,417.85 448.775,417.925 439.8,418.25 431.9,411.55 M511.925,467.45 Q511.984,467.774 512.05,468.1 L512.35,469.4 Q512.9,471 514.05,472.65 517.6,477.95 525.6,481.6" test="Nom Bec Head"/>
      </g>
      <g id="Bum-Nom-the-rear">
        <path fill="#000" stroke="none" d="M527.6,493.3 Q527.15,489.5 526.4,485.55 L481.25,502.45 523,545.25 Q525.686,537.509 527.1,529.35 528,524 528.4,518.45 529.25,506.4 527.6,493.3 M424.5,411.6 Q420.322,411.609 416.3,411.85 405.25,412.5 395.35,415.15 364.9,423.25 350.8,448.65 417.6,471.85 417.7,471.95 417.75,472 421.1,441.8 424.45,411.6 424.5,411.6Z" test="Bum Nom the rear"/>
        <path id="Layer4_0_1_STROKES" stroke="#FEB7AE" stroke-width="2" stroke-linejoin="round" stroke-linecap="round" fill="none" d="M350.8,448.65 Q364.9,423.25 395.35,415.15 405.25,412.5 416.3,411.85 420.322,411.609 424.5,411.625 429.824,411.674 435.4,412.15 448.286,413.251 460.25,416.925 M526.4,485.55 Q527.15,489.5 527.6,493.3 529.25,506.4 528.4,518.45 528,524 527.1,529.35 525.686,537.509 523.025,545.25 518.228,559.111 509.4,571.6 M517.5,458.625 Q522.391,467.083 524.6,476.65 525.6,481 526.4,485.55 M274.3,406.6 Q288.15,405.35 303.2,406.75 L308.45,407.3 Q330.25,410.1 343.7,418.95 343.8,419 343.9,419.05 354.1,425.8 358.4,435.75 M345.55,460.35 Q347.8,454.05 350.8,448.65 M211.65,585.95 Q204.6,578.05 199.8,571.9 190.95,560.6 185.3,549.35 168.75,516.2 178.3,481.2 188.2,444.95 219.9,424.85" test="Bum Nom the rear"/>
      </g>
      <g id="Hand-Nom-the-rear">
        <path id="Layer5_0_1_STROKES" stroke="#FFF" stroke-width="2" stroke-linejoin="round" stroke-linecap="round" fill="none" d="M303.25,406.25 Q300.6,404.1 291.75,395.6 284.4,388.55 279.45,385.15 264.05,374.65 247.35,381.25 228.85,388.55 222.95,402.2 219.2,410.9 219.9,424.85 220.1,428.85 220.65,433.3 L222.85,438.2 Q225.9,444.1 229.85,448.95 242.5,464.5 259.85,463.85 278.15,463.15 280.6,440.65 281.5,432.2 279.85,422.7 278.4,414.2 275.8,409.35 275.05,407.9 274.3,406.6" test="Hand Nom the rear"/>
      </g>
      <g id="Hand2-and-Arm-Nom-the-rear">
        <path id="Layer6_0_1_STROKES" stroke="#FFF" stroke-width="2" stroke-linejoin="round" stroke-linecap="round" fill="none" d="M528.35,628.2 Q527.791,627.227 526.9,626.3 524.45,623.7 521.15,624.15 517.8,624.85 515.1,625.3 510.05,626.2 505.35,625.95 491,625.3 477.4,614.75 463.35,603.9 456.5,590.1 452.35,581.75 450.7,571.4 449.75,565.55 456.7,557.9 462.75,551.25 467.35,549.9 471.4,548.75 477.45,549.6 484.25,550.55 488.85,553.7 494.75,557.7 509.4,571.6 M542.65,595.7 L533.25,591.5 Q531.35,585.7 528.2,579.25 521.95,566.3 515.9,563.05 M528.75,629 Q528.578,628.598 528.35,628.2" test="Hand2 and Arm Nom the rear"/>
        <path id="Layer6_0_2_STROKES" stroke="#0FF" stroke-width="2" stroke-linejoin="round" stroke-linecap="round" fill="none" d="M560.5,505.8 Q564.31,509.783 568.6,514.7 585.1,533.6 594.7,552.3 602.2,566.9 618.75,598.3 630.55,622.123 633.65,635.925 634.15,637.474 634.45,639 635.391,643.608 634.6,648.05 632.4,660.25 617.25,660.55 602.55,660.8 580.6,654.55 562.35,649.3 551.3,643.55 545.1,640.35 534.5,634.35 527.493,630.391 527.075,630.325 527.503,629.775 528.35,628.2 M524.15,549.85 Q528.681,556.129 537,568.45 549.8,587.5 550.3,590.45 550.75,592.95 550.45,594.8 550.378,595.197 550.325,595.575 554.212,594.986 557.9,595.3 561.45,595.6 571,598.25 581.65,601.25 592.3,605.15 621.35,615.8 628,625.15 631.927,630.639 633.65,635.925 M550.325,595.575 Q550.14,597.025 550.3,598.1 M528.35,628.2 Q530.385,624.449 534.8,614.85 540.35,602.7 542.3,597.75 L546.9,596.25 Q548.633,595.824 550.325,595.575 M345.5,416.15 Q361.25,403.55 381.15,401.15 389.3,399.95 397.55,399.1" test="Hand2 and Arm Nom the rear"/>
      </g>
    </g>
    <g id="BlackMaskRect">
      <path fill="#000" stroke="none" d="M827.6,625.818 L827.6,424.8 -19.45,424.8 -19.45,625.818 827.6,625.818Z" test="BlackMaskRect" stroke-width="1.454"/>
    </g>
  </g>
</svg>