<?xml version="1.0" encoding="utf-8"?>
<svg id="EdithAnim08" image-rendering="inherit" baseProfile="basic" version="1.1" x="0px" y="0px" width="800" height="600" xmlns="http://www.w3.org/2000/svg" xmlns:xlink="http://www.w3.org/1999/xlink">
  <g id="Nom-rear-the-rearf2r1" overflow="visible">
    <g id="Bec-Noms-the-Rearf0r1">
      <path id="Layer2_0_1_STROKES" stroke="#FEB7AE" stroke-width="2" stroke-linejoin="round" stroke-linecap="round" fill="none" d="M509.4,746.6 Q509.2,746.85 509,747.1" test="Bec Noms the Rear_22"/>
      <g id="Bum-Nom-the-rear">
        <path fill="#000" stroke="none" d="M527.6,668.3 Q527.15,664.5 526.4,660.55 L481.25,677.45 523,720.25 Q525.686,712.509 527.1,704.35 528,699 528.4,693.45 529.25,681.4 527.6,668.3 M424.5,586.6 Q420.322,586.609 416.3,586.85 405.25,587.5 395.35,590.15 364.9,598.25 350.8,623.65 417.6,646.85 417.7,646.95 417.75,647 421.1,616.8 424.45,586.6 424.5,586.6Z" test="Bum Nom the rear"/>
        <path id="Layer3_0_1_STROKES" stroke="#FEB7AE" stroke-width="2" stroke-linejoin="round" stroke-linecap="round" fill="none" d="M350.8,623.65 Q364.9,598.25 395.35,590.15 405.25,587.5 416.3,586.85 420.322,586.609 424.5,586.625 429.824,586.674 435.4,587.15 448.286,588.251 460.25,591.925 M526.4,660.55 Q527.15,664.5 527.6,668.3 529.25,681.4 528.4,693.45 528,699 527.1,704.35 525.686,712.509 523.025,720.25 518.228,734.111 509.4,746.6 M517.5,633.625 Q522.391,642.083 524.6,651.65 525.6,656 526.4,660.55 M274.3,581.6 Q288.15,580.35 303.2,581.75 L308.45,582.3 Q330.25,585.1 343.7,593.95 343.8,594 343.9,594.05 354.1,600.8 358.4,610.75 M345.55,635.35 Q347.8,629.05 350.8,623.65 M211.65,760.95 Q204.6,753.05 199.8,746.9 190.95,735.6 185.3,724.35 168.75,691.2 178.3,656.2 188.2,619.95 219.9,599.85" test="Bum Nom the rear"/>
      </g>
      <g id="Hand-Nom-the-rear">
        <path id="Layer4_0_1_STROKES" stroke="#FFF" stroke-width="2" stroke-linejoin="round" stroke-linecap="round" fill="none" d="M303.25,581.25 Q300.6,579.1 291.75,570.6 284.4,563.55 279.45,560.15 264.05,549.65 247.35,556.25 228.85,563.55 222.95,577.2 219.2,585.9 219.9,599.85 220.1,603.85 220.65,608.3 L222.85,613.2 Q225.9,619.1 229.85,623.95 242.5,639.5 259.85,638.85 278.15,638.15 280.6,615.65 281.5,607.2 279.85,597.7 278.4,589.2 275.8,584.35 275.05,582.9 274.3,581.6" test="Hand Nom the rear"/>
      </g>
      <g id="Hand2-and-Arm-Nom-the-rear">
        <path id="Layer5_0_1_STROKES" stroke="#FFF" stroke-width="2" stroke-linejoin="round" stroke-linecap="round" fill="none" d="M528.35,803.2 Q527.791,802.227 526.9,801.3 524.45,798.7 521.15,799.15 517.8,799.85 515.1,800.3 510.05,801.2 505.35,800.95 491,800.3 477.4,789.75 463.35,778.9 456.5,765.1 452.35,756.75 450.7,746.4 449.75,740.55 456.7,732.9 462.75,726.25 467.35,724.9 471.4,723.75 477.45,724.6 484.25,725.55 488.85,728.7 494.75,732.7 509.4,746.6 M542.65,770.7 L533.25,766.5 Q531.35,760.7 528.2,754.25 521.95,741.3 515.9,738.05 M528.75,804 Q528.578,803.598 528.35,803.2" test="Hand2 and Arm Nom the rear"/>
        <path id="Layer5_0_2_STROKES" stroke="#0FF" stroke-width="2" stroke-linejoin="round" stroke-linecap="round" fill="none" d="M560.5,680.8 Q564.31,684.783 568.6,689.7 585.1,708.6 594.7,727.3 602.2,741.9 618.75,773.3 630.55,797.123 633.65,810.925 634.15,812.474 634.45,814 635.391,818.608 634.6,823.05 632.4,835.25 617.25,835.55 602.55,835.8 580.6,829.55 562.35,824.3 551.3,818.55 545.1,815.35 534.5,809.35 527.493,805.391 527.075,805.325 527.503,804.775 528.35,803.2 M524.15,724.85 Q528.681,731.129 537,743.45 549.8,762.5 550.3,765.45 550.75,767.95 550.45,769.8 550.378,770.197 550.325,770.575 554.212,769.986 557.9,770.3 561.45,770.6 571,773.25 581.65,776.25 592.3,780.15 621.35,790.8 628,800.15 631.927,805.639 633.65,810.925 M550.325,770.575 Q550.14,772.025 550.3,773.1 M528.35,803.2 Q530.385,799.449 534.8,789.85 540.35,777.7 542.3,772.75 L546.9,771.25 Q548.633,770.824 550.325,770.575 M345.5,591.15 Q361.25,578.55 381.15,576.15 389.3,574.95 397.55,574.1" test="Hand2 and Arm Nom the rear"/>
      </g>
      <g id="Nom-Bec-Head">
        <path id="Layer6_0_1_STROKES" stroke="#00F" stroke-width="2" stroke-linejoin="round" stroke-linecap="round" fill="none" d="M395.35,590.15 Q399.25,577.85 404.8,563.1 415.9,533.6 424.35,521.2 436.45,503.45 452,489 471.2,471.1 488.5,465.65 530.65,452.45 571.45,480.25 597.4,497.95 609,512 624.35,530.6 623.15,551.05 622,570.55 611.9,592.75 605.95,605.9 594.7,623.55 588,634.1 566.25,665.65 545.4,695.85 543,698.85 541.15,701.1 532.3,695.85 530.4,694.75 528.4,693.45 M416.3,586.85 Q421.15,572.55 426.05,559.7 438.6,526.85 446.2,518.4 L456.85,505.95 Q467.85,493.4 469.8,492.75 471.75,492.1 481.35,498.65 486.8,502.45 498.6,511.1 504,514.95 550.9,548.3 595.45,580.2 597.45,582.6 599.75,585.35 599.6,586.8 599.5,588.1 597.1,590.25 595.1,592.05 571.45,618.2 550.5,641.3 544.4,648.2 537.2,656.9 532.4,662.6 529.75,665.8 527.6,668.3" test="Nom Bec Head"/>
        <path id="Layer6_0_2_STROKES" stroke="#FFF" stroke-width="2" stroke-linejoin="round" stroke-linecap="round" fill="none" d="M487.15,517.4 Q503.85,513.55 511.05,529.05 511.25,529.45 511.4,529.9 M560.7,572.95 Q560.7,574.4 559.65,575.4 558.65,576.45 557.2,576.45 555.75,576.45 554.7,575.4 553.7,574.4 553.7,572.95 553.7,571.5 554.7,570.45 555.75,569.45 557.2,569.45 558.65,569.45 559.65,570.45 560.7,571.5 560.7,572.95Z M552.95,560.4 Q570.1,559.65 574.35,576.2 574.45,576.6 574.55,577.1 M498.95,536.5 Q498.95,537.95 497.9,538.95 496.9,540 495.45,540 494,540 492.95,538.95 491.95,537.95 491.95,536.5 491.95,535.05 492.95,534 494,533 495.45,533 496.9,533 497.9,534 498.95,535.05 498.95,536.5Z M473.25,576.05 Q467.45,582.75 460.175,584.2 459.75,586.483 459.75,588.55 460.9,594.4 464.3,599.2 465.2,600.45 466.125,601.7 466.338,601.947 466.55,602.2 473.4,610.35 480.55,615.95 483.4,618.2 488.45,622.35 492.75,625.85 496.2,627.85 505.4,633.1 519.4,634 519.869,634.028 520.325,634.05 519.187,627.791 520.9,623.7 522.85,618.85 531.2,610.05 M460.25,583.85 L460.175,584.2 Q458.95,584.45 457.175,584.525 448.2,584.85 440.3,578.15 M520.325,634.05 Q520.384,634.374 520.45,634.7 L520.75,636 Q521.3,637.6 522.45,639.25 526,644.55 534,648.2" test="Nom Bec Head"/>
      </g>
    </g>
    <g id="BlackMaskRect">
      <path fill="#000" stroke="none" d="M827.6,625.818 L827.6,424.8 -19.45,424.8 -19.45,625.818 827.6,625.818Z" test="BlackMaskRect" stroke-width="1.454"/>
    </g>
  </g>
</svg>