<?xml version="1.0" encoding="utf-8"?>
<svg id="EdithAnim08" image-rendering="inherit" baseProfile="basic" version="1.1" x="0px" y="0px" width="800" height="600" xmlns="http://www.w3.org/2000/svg" xmlns:xlink="http://www.w3.org/1999/xlink">
  <g id="Nom-rear-the-rearf21r1" overflow="visible">
    <g id="Bec-Noms-the-Rearf14r1">
      <path id="Layer2_0_1_STROKES" stroke="#FEB7AE" stroke-width="2" stroke-linejoin="round" stroke-linecap="round" fill="none" d="M509.4,554.6 Q509.2,554.85 509,555.1" test="Bec Noms the Rear_2.3242325232423263e+312.3242325232423263e+31"/>
      <g id="Nom-Bec-Head">
        <path id="Layer3_0_1_STROKES" stroke="#00F" stroke-width="2" stroke-linejoin="round" stroke-linecap="round" fill="none" d="M386.95,406.55 Q390.85,394.25 396.4,379.5 407.5,350 415.95,337.6 428.05,319.85 443.6,305.4 462.8,287.5 480.1,282.05 522.25,268.85 563.05,296.65 589,314.35 600.6,328.4 615.95,347 614.75,367.45 613.6,386.95 603.5,409.15 597.55,422.3 586.3,439.95 579.6,450.5 557.85,482.05 537,512.25 534.6,515.25 532.75,517.5 523.9,512.25 522,511.15 520,509.85 M407.9,403.25 Q412.75,388.95 417.65,376.1 430.2,343.25 437.8,334.8 L448.45,322.35 Q459.45,309.8 461.4,309.15 463.35,308.5 472.95,315.05 478.4,318.85 490.2,327.5 495.6,331.35 542.5,364.7 587.05,396.6 589.05,399 591.35,401.75 591.2,403.2 591.1,404.5 588.7,406.65 586.7,408.45 563.05,434.6 542.1,457.7 536,464.6 528.8,473.3 524,479 521.35,482.2 519.2,484.7" test="Nom Bec Head"/>
        <path id="Layer3_0_2_STROKES" stroke="#FFF" stroke-width="2" stroke-linejoin="round" stroke-linecap="round" fill="none" d="M478.75,333.8 Q495.45,329.95 502.65,345.45 502.85,345.85 503,346.3 M552.3,389.35 Q552.3,390.8 551.25,391.8 550.25,392.85 548.8,392.85 547.35,392.85 546.3,391.8 545.3,390.8 545.3,389.35 545.3,387.9 546.3,386.85 547.35,385.85 548.8,385.85 550.25,385.85 551.25,386.85 552.3,387.9 552.3,389.35Z M544.55,376.8 Q561.7,376.05 565.95,392.6 566.05,393 566.15,393.5 M490.55,352.9 Q490.55,354.35 489.5,355.35 488.5,356.4 487.05,356.4 485.6,356.4 484.55,355.35 483.55,354.35 483.55,352.9 483.55,351.45 484.55,350.4 485.6,349.4 487.05,349.4 488.5,349.4 489.5,350.4 490.55,351.45 490.55,352.9Z M464.85,392.45 Q459.05,399.15 451.775,400.6 451.35,402.883 451.35,404.95 452.5,410.8 455.9,415.6 456.8,416.85 457.725,418.1 457.938,418.347 458.15,418.6 465,426.75 472.15,432.35 475,434.6 480.05,438.75 484.35,442.25 487.8,444.25 497,449.5 511,450.4 511.469,450.428 511.925,450.45 510.787,444.191 512.5,440.1 514.45,435.25 522.8,426.45 M451.85,400.25 L451.775,400.6 Q450.55,400.85 448.775,400.925 439.8,401.25 431.9,394.55 M511.925,450.45 Q511.984,450.774 512.05,451.1 L512.35,452.4 Q512.9,454 514.05,455.65 517.6,460.95 525.6,464.6" test="Nom Bec Head"/>
      </g>
      <g id="Bum-Nom-the-rear">
        <path fill="#000" stroke="none" d="M527.6,476.3 Q527.15,472.5 526.4,468.55 L481.25,485.45 523,528.25 Q525.686,520.509 527.1,512.35 528,507 528.4,501.45 529.25,489.4 527.6,476.3 M424.5,394.6 Q420.322,394.609 416.3,394.85 405.25,395.5 395.35,398.15 364.9,406.25 350.8,431.65 417.6,454.85 417.7,454.95 417.75,455 421.1,424.8 424.45,394.6 424.5,394.6Z" test="Bum Nom the rear"/>
        <path id="Layer4_0_1_STROKES" stroke="#FEB7AE" stroke-width="2" stroke-linejoin="round" stroke-linecap="round" fill="none" d="M350.8,431.65 Q364.9,406.25 395.35,398.15 405.25,395.5 416.3,394.85 420.322,394.609 424.5,394.625 429.824,394.674 435.4,395.15 448.286,396.251 460.25,399.925 M526.4,468.55 Q527.15,472.5 527.6,476.3 529.25,489.4 528.4,501.45 528,507 527.1,512.35 525.686,520.509 523.025,528.25 518.228,542.111 509.4,554.6 M517.5,441.625 Q522.391,450.083 524.6,459.65 525.6,464 526.4,468.55 M274.3,389.6 Q288.15,388.35 303.2,389.75 L308.45,390.3 Q330.25,393.1 343.7,401.95 343.8,402 343.9,402.05 354.1,408.8 358.4,418.75 M345.55,443.35 Q347.8,437.05 350.8,431.65 M211.65,568.95 Q204.6,561.05 199.8,554.9 190.95,543.6 185.3,532.35 168.75,499.2 178.3,464.2 188.2,427.95 219.9,407.85" test="Bum Nom the rear"/>
      </g>
      <g id="Hand-Nom-the-rear">
        <path id="Layer5_0_1_STROKES" stroke="#FFF" stroke-width="2" stroke-linejoin="round" stroke-linecap="round" fill="none" d="M303.25,389.25 Q300.6,387.1 291.75,378.6 284.4,371.55 279.45,368.15 264.05,357.65 247.35,364.25 228.85,371.55 222.95,385.2 219.2,393.9 219.9,407.85 220.1,411.85 220.65,416.3 L222.85,421.2 Q225.9,427.1 229.85,431.95 242.5,447.5 259.85,446.85 278.15,446.15 280.6,423.65 281.5,415.2 279.85,405.7 278.4,397.2 275.8,392.35 275.05,390.9 274.3,389.6" test="Hand Nom the rear"/>
      </g>
      <g id="Hand2-and-Arm-Nom-the-rear">
        <path id="Layer6_0_1_STROKES" stroke="#FFF" stroke-width="2" stroke-linejoin="round" stroke-linecap="round" fill="none" d="M528.35,611.2 Q527.791,610.227 526.9,609.3 524.45,606.7 521.15,607.15 517.8,607.85 515.1,608.3 510.05,609.2 505.35,608.95 491,608.3 477.4,597.75 463.35,586.9 456.5,573.1 452.35,564.75 450.7,554.4 449.75,548.55 456.7,540.9 462.75,534.25 467.35,532.9 471.4,531.75 477.45,532.6 484.25,533.55 488.85,536.7 494.75,540.7 509.4,554.6 M542.65,578.7 L533.25,574.5 Q531.35,568.7 528.2,562.25 521.95,549.3 515.9,546.05 M528.75,612 Q528.578,611.598 528.35,611.2" test="Hand2 and Arm Nom the rear"/>
        <path id="Layer6_0_2_STROKES" stroke="#0FF" stroke-width="2" stroke-linejoin="round" stroke-linecap="round" fill="none" d="M560.5,488.8 Q564.31,492.783 568.6,497.7 585.1,516.6 594.7,535.3 602.2,549.9 618.75,581.3 630.55,605.123 633.65,618.925 634.15,620.474 634.45,622 635.391,626.608 634.6,631.05 632.4,643.25 617.25,643.55 602.55,643.8 580.6,637.55 562.35,632.3 551.3,626.55 545.1,623.35 534.5,617.35 527.493,613.391 527.075,613.325 527.503,612.775 528.35,611.2 M524.15,532.85 Q528.681,539.129 537,551.45 549.8,570.5 550.3,573.45 550.75,575.95 550.45,577.8 550.378,578.197 550.325,578.575 554.212,577.986 557.9,578.3 561.45,578.6 571,581.25 581.65,584.25 592.3,588.15 621.35,598.8 628,608.15 631.927,613.639 633.65,618.925 M550.325,578.575 Q550.14,580.025 550.3,581.1 M528.35,611.2 Q530.385,607.449 534.8,597.85 540.35,585.7 542.3,580.75 L546.9,579.25 Q548.633,578.824 550.325,578.575 M345.5,399.15 Q361.25,386.55 381.15,384.15 389.3,382.95 397.55,382.1" test="Hand2 and Arm Nom the rear"/>
      </g>
    </g>
    <g id="BlackMaskRect">
      <path fill="#000" stroke="none" d="M827.6,625.818 L827.6,424.8 -19.45,424.8 -19.45,625.818 827.6,625.818Z" test="BlackMaskRect" stroke-width="1.454"/>
    </g>
  </g>
</svg>