<?xml version="1.0" encoding="utf-8"?>
<svg id="EdithAnim08" image-rendering="inherit" baseProfile="basic" version="1.1" x="0px" y="0px" width="800" height="600" xmlns="http://www.w3.org/2000/svg" xmlns:xlink="http://www.w3.org/1999/xlink">
  <g id="Nom-rear-the-rearf24r1" overflow="visible">
    <g id="Bec-Noms-the-Rearf14r1">
      <path id="Layer2_0_1_STROKES" stroke="#FEB7AE" stroke-width="2" stroke-linejoin="round" stroke-linecap="round" fill="none" d="M509.4,530.55 Q509.2,530.8 509,531.05" test="Bec Noms the Rear_2.3242325232423263e+312.3242325232423263e+31_2323"/>
      <g id="Nom-Bec-Head">
        <path id="Layer3_0_1_STROKES" stroke="#00F" stroke-width="2" stroke-linejoin="round" stroke-linecap="round" fill="none" d="M386.95,382.5 Q390.85,370.2 396.4,355.45 407.5,325.95 415.95,313.55 428.05,295.8 443.6,281.35 462.8,263.45 480.1,258 522.25,244.8 563.05,272.6 589,290.3 600.6,304.35 615.95,322.95 614.75,343.4 613.6,362.9 603.5,385.1 597.55,398.25 586.3,415.9 579.6,426.45 557.85,458 537,488.2 534.6,491.2 532.75,493.45 523.9,488.2 522,487.1 520,485.8 M407.9,379.2 Q412.75,364.9 417.65,352.05 430.2,319.2 437.8,310.75 L448.45,298.3 Q459.45,285.75 461.4,285.1 463.35,284.45 472.95,291 478.4,294.8 490.2,303.45 495.6,307.3 542.5,340.65 587.05,372.55 589.05,374.95 591.35,377.7 591.2,379.15 591.1,380.45 588.7,382.6 586.7,384.4 563.05,410.55 542.1,433.65 536,440.55 528.8,449.25 524,454.95 521.35,458.15 519.2,460.65" test="Nom Bec Head"/>
        <path id="Layer3_0_2_STROKES" stroke="#FFF" stroke-width="2" stroke-linejoin="round" stroke-linecap="round" fill="none" d="M478.75,309.75 Q495.45,305.9 502.65,321.4 502.85,321.8 503,322.25 M552.3,365.3 Q552.3,366.75 551.25,367.75 550.25,368.8 548.8,368.8 547.35,368.8 546.3,367.75 545.3,366.75 545.3,365.3 545.3,363.85 546.3,362.8 547.35,361.8 548.8,361.8 550.25,361.8 551.25,362.8 552.3,363.85 552.3,365.3Z M544.55,352.75 Q561.7,352 565.95,368.55 566.05,368.95 566.15,369.45 M490.55,328.85 Q490.55,330.3 489.5,331.3 488.5,332.35 487.05,332.35 485.6,332.35 484.55,331.3 483.55,330.3 483.55,328.85 483.55,327.4 484.55,326.35 485.6,325.35 487.05,325.35 488.5,325.35 489.5,326.35 490.55,327.4 490.55,328.85Z M464.85,368.4 Q459.05,375.1 451.775,376.55 451.35,378.833 451.35,380.9 452.5,386.75 455.9,391.55 456.8,392.8 457.725,394.05 457.938,394.297 458.15,394.55 465,402.7 472.15,408.3 475,410.55 480.05,414.7 484.35,418.2 487.8,420.2 497,425.45 511,426.35 511.469,426.378 511.925,426.4 510.787,420.141 512.5,416.05 514.45,411.2 522.8,402.4 M451.85,376.2 L451.775,376.55 Q450.55,376.8 448.775,376.875 439.8,377.2 431.9,370.5 M511.925,426.4 Q511.984,426.724 512.05,427.05 L512.35,428.35 Q512.9,429.95 514.05,431.6 517.6,436.9 525.6,440.55" test="Nom Bec Head"/>
      </g>
      <g id="Bum-Nom-the-rear">
        <path fill="#000" stroke="none" d="M527.6,452.25 Q527.15,448.45 526.4,444.5 L481.25,461.4 523,504.2 Q525.686,496.459 527.1,488.3 528,482.95 528.4,477.4 529.25,465.35 527.6,452.25 M424.5,370.55 Q420.322,370.559 416.3,370.8 405.25,371.45 395.35,374.1 364.9,382.2 350.8,407.6 417.6,430.8 417.7,430.9 417.75,430.95 421.1,400.75 424.45,370.55 424.5,370.55Z" test="Bum Nom the rear"/>
        <path id="Layer4_0_1_STROKES" stroke="#FEB7AE" stroke-width="2" stroke-linejoin="round" stroke-linecap="round" fill="none" d="M350.8,407.6 Q364.9,382.2 395.35,374.1 405.25,371.45 416.3,370.8 420.322,370.559 424.5,370.575 429.824,370.624 435.4,371.1 448.286,372.201 460.25,375.875 M526.4,444.5 Q527.15,448.45 527.6,452.25 529.25,465.35 528.4,477.4 528,482.95 527.1,488.3 525.686,496.459 523.025,504.2 518.228,518.061 509.4,530.55 M517.5,417.575 Q522.391,426.033 524.6,435.6 525.6,439.95 526.4,444.5 M274.3,365.55 Q288.15,364.3 303.2,365.7 L308.45,366.25 Q330.25,369.05 343.7,377.9 343.8,377.95 343.9,378 354.1,384.75 358.4,394.7 M345.55,419.3 Q347.8,413 350.8,407.6 M211.65,544.9 Q204.6,537 199.8,530.85 190.95,519.55 185.3,508.3 168.75,475.15 178.3,440.15 188.2,403.9 219.9,383.8" test="Bum Nom the rear"/>
      </g>
      <g id="Hand-Nom-the-rear">
        <path id="Layer5_0_1_STROKES" stroke="#FFF" stroke-width="2" stroke-linejoin="round" stroke-linecap="round" fill="none" d="M303.25,365.2 Q300.6,363.05 291.75,354.55 284.4,347.5 279.45,344.1 264.05,333.6 247.35,340.2 228.85,347.5 222.95,361.15 219.2,369.85 219.9,383.8 220.1,387.8 220.65,392.25 L222.85,397.15 Q225.9,403.05 229.85,407.9 242.5,423.45 259.85,422.8 278.15,422.1 280.6,399.6 281.5,391.15 279.85,381.65 278.4,373.15 275.8,368.3 275.05,366.85 274.3,365.55" test="Hand Nom the rear"/>
      </g>
      <g id="Hand2-and-Arm-Nom-the-rear">
        <path id="Layer6_0_1_STROKES" stroke="#FFF" stroke-width="2" stroke-linejoin="round" stroke-linecap="round" fill="none" d="M528.35,587.15 Q527.791,586.177 526.9,585.25 524.45,582.65 521.15,583.1 517.8,583.8 515.1,584.25 510.05,585.15 505.35,584.9 491,584.25 477.4,573.7 463.35,562.85 456.5,549.05 452.35,540.7 450.7,530.35 449.75,524.5 456.7,516.85 462.75,510.2 467.35,508.85 471.4,507.7 477.45,508.55 484.25,509.5 488.85,512.65 494.75,516.65 509.4,530.55 M542.65,554.65 L533.25,550.45 Q531.35,544.65 528.2,538.2 521.95,525.25 515.9,522 M528.75,587.95 Q528.578,587.548 528.35,587.15" test="Hand2 and Arm Nom the rear"/>
        <path id="Layer6_0_2_STROKES" stroke="#0FF" stroke-width="2" stroke-linejoin="round" stroke-linecap="round" fill="none" d="M560.5,464.75 Q564.31,468.733 568.6,473.65 585.1,492.55 594.7,511.25 602.2,525.85 618.75,557.25 630.55,581.073 633.65,594.875 634.15,596.424 634.45,597.95 635.391,602.558 634.6,607 632.4,619.2 617.25,619.5 602.55,619.75 580.6,613.5 562.35,608.25 551.3,602.5 545.1,599.3 534.5,593.3 527.493,589.341 527.075,589.275 527.503,588.725 528.35,587.15 M524.15,508.8 Q528.681,515.079 537,527.4 549.8,546.45 550.3,549.4 550.75,551.9 550.45,553.75 550.378,554.147 550.325,554.525 554.212,553.936 557.9,554.25 561.45,554.55 571,557.2 581.65,560.2 592.3,564.1 621.35,574.75 628,584.1 631.927,589.589 633.65,594.875 M550.325,554.525 Q550.14,555.975 550.3,557.05 M528.35,587.15 Q530.385,583.399 534.8,573.8 540.35,561.65 542.3,556.7 L546.9,555.2 Q548.633,554.774 550.325,554.525 M345.5,375.1 Q361.25,362.5 381.15,360.1 389.3,358.9 397.55,358.05" test="Hand2 and Arm Nom the rear"/>
      </g>
    </g>
    <g id="BlackMaskRect">
      <path fill="#000" stroke="none" d="M827.6,625.818 L827.6,424.8 -19.45,424.8 -19.45,625.818 827.6,625.818Z" test="BlackMaskRect" stroke-width="1.454"/>
    </g>
  </g>
</svg>