<?xml version="1.0" encoding="utf-8"?>
<svg id="EdithAnim08" image-rendering="inherit" baseProfile="basic" version="1.1" x="0px" y="0px" width="800" height="600" xmlns="http://www.w3.org/2000/svg" xmlns:xlink="http://www.w3.org/1999/xlink">
  <g id="Nom-rear-the-rearf26r1" overflow="visible">
    <g id="Bec-Noms-the-Rearf14r1">
      <path id="Layer2_0_1_STROKES" stroke="#FEB7AE" stroke-width="2" stroke-linejoin="round" stroke-linecap="round" fill="none" d="M509.4,515.5 Q509.2,515.75 509,516" test="Bec Noms the Rear_2.3242325232423263e+312.3242325232423263e+31_2324232523242325"/>
      <g id="Nom-Bec-Head">
        <path id="Layer3_0_1_STROKES" stroke="#00F" stroke-width="2" stroke-linejoin="round" stroke-linecap="round" fill="none" d="M386.95,367.45 Q390.85,355.15 396.4,340.4 407.5,310.9 415.95,298.5 428.05,280.75 443.6,266.3 462.8,248.4 480.1,242.95 522.25,229.75 563.05,257.55 589,275.25 600.6,289.3 615.95,307.9 614.75,328.35 613.6,347.85 603.5,370.05 597.55,383.2 586.3,400.85 579.6,411.4 557.85,442.95 537,473.15 534.6,476.15 532.75,478.4 523.9,473.15 522,472.05 520,470.75 M407.9,364.15 Q412.75,349.85 417.65,337 430.2,304.15 437.8,295.7 L448.45,283.25 Q459.45,270.7 461.4,270.05 463.35,269.4 472.95,275.95 478.4,279.75 490.2,288.4 495.6,292.25 542.5,325.6 587.05,357.5 589.05,359.9 591.35,362.65 591.2,364.1 591.1,365.4 588.7,367.55 586.7,369.35 563.05,395.5 542.1,418.6 536,425.5 528.8,434.2 524,439.9 521.35,443.1 519.2,445.6" test="Nom Bec Head"/>
        <path id="Layer3_0_2_STROKES" stroke="#FFF" stroke-width="2" stroke-linejoin="round" stroke-linecap="round" fill="none" d="M478.75,294.7 Q495.45,290.85 502.65,306.35 502.85,306.75 503,307.2 M552.3,350.25 Q552.3,351.7 551.25,352.7 550.25,353.75 548.8,353.75 547.35,353.75 546.3,352.7 545.3,351.7 545.3,350.25 545.3,348.8 546.3,347.75 547.35,346.75 548.8,346.75 550.25,346.75 551.25,347.75 552.3,348.8 552.3,350.25Z M544.55,337.7 Q561.7,336.95 565.95,353.5 566.05,353.9 566.15,354.4 M490.55,313.8 Q490.55,315.25 489.5,316.25 488.5,317.3 487.05,317.3 485.6,317.3 484.55,316.25 483.55,315.25 483.55,313.8 483.55,312.35 484.55,311.3 485.6,310.3 487.05,310.3 488.5,310.3 489.5,311.3 490.55,312.35 490.55,313.8Z M464.85,353.35 Q459.05,360.05 451.775,361.5 451.35,363.783 451.35,365.85 452.5,371.7 455.9,376.5 456.8,377.75 457.725,379 457.938,379.247 458.15,379.5 465,387.65 472.15,393.25 475,395.5 480.05,399.65 484.35,403.15 487.8,405.15 497,410.4 511,411.3 511.469,411.328 511.925,411.35 510.787,405.091 512.5,401 514.45,396.15 522.8,387.35 M451.85,361.15 L451.775,361.5 Q450.55,361.75 448.775,361.825 439.8,362.15 431.9,355.45 M511.925,411.35 Q511.984,411.674 512.05,412 L512.35,413.3 Q512.9,414.9 514.05,416.55 517.6,421.85 525.6,425.5" test="Nom Bec Head"/>
      </g>
      <g id="Bum-Nom-the-rear">
        <path fill="#000" stroke="none" d="M527.6,437.2 Q527.15,433.4 526.4,429.45 L481.25,446.35 523,489.15 Q525.686,481.409 527.1,473.25 528,467.9 528.4,462.35 529.25,450.3 527.6,437.2 M424.5,355.5 Q420.322,355.509 416.3,355.75 405.25,356.4 395.35,359.05 364.9,367.15 350.8,392.55 417.6,415.75 417.7,415.85 417.75,415.9 421.1,385.7 424.45,355.5 424.5,355.5Z" test="Bum Nom the rear"/>
        <path id="Layer4_0_1_STROKES" stroke="#FEB7AE" stroke-width="2" stroke-linejoin="round" stroke-linecap="round" fill="none" d="M350.8,392.55 Q364.9,367.15 395.35,359.05 405.25,356.4 416.3,355.75 420.322,355.509 424.5,355.525 429.824,355.574 435.4,356.05 448.286,357.151 460.25,360.825 M526.4,429.45 Q527.15,433.4 527.6,437.2 529.25,450.3 528.4,462.35 528,467.9 527.1,473.25 525.686,481.409 523.025,489.15 518.228,503.011 509.4,515.5 M517.5,402.525 Q522.391,410.983 524.6,420.55 525.6,424.9 526.4,429.45 M274.3,350.5 Q288.15,349.25 303.2,350.65 L308.45,351.2 Q330.25,354 343.7,362.85 343.8,362.9 343.9,362.95 354.1,369.7 358.4,379.65 M345.55,404.25 Q347.8,397.95 350.8,392.55 M211.65,529.85 Q204.6,521.95 199.8,515.8 190.95,504.5 185.3,493.25 168.75,460.1 178.3,425.1 188.2,388.85 219.9,368.75" test="Bum Nom the rear"/>
      </g>
      <g id="Hand-Nom-the-rear">
        <path id="Layer5_0_1_STROKES" stroke="#FFF" stroke-width="2" stroke-linejoin="round" stroke-linecap="round" fill="none" d="M303.25,350.15 Q300.6,348 291.75,339.5 284.4,332.45 279.45,329.05 264.05,318.55 247.35,325.15 228.85,332.45 222.95,346.1 219.2,354.8 219.9,368.75 220.1,372.75 220.65,377.2 L222.85,382.1 Q225.9,388 229.85,392.85 242.5,408.4 259.85,407.75 278.15,407.05 280.6,384.55 281.5,376.1 279.85,366.6 278.4,358.1 275.8,353.25 275.05,351.8 274.3,350.5" test="Hand Nom the rear"/>
      </g>
      <g id="Hand2-and-Arm-Nom-the-rear">
        <path id="Layer6_0_1_STROKES" stroke="#FFF" stroke-width="2" stroke-linejoin="round" stroke-linecap="round" fill="none" d="M528.35,572.1 Q527.791,571.127 526.9,570.2 524.45,567.6 521.15,568.05 517.8,568.75 515.1,569.2 510.05,570.1 505.35,569.85 491,569.2 477.4,558.65 463.35,547.8 456.5,534 452.35,525.65 450.7,515.3 449.75,509.45 456.7,501.8 462.75,495.15 467.35,493.8 471.4,492.65 477.45,493.5 484.25,494.45 488.85,497.6 494.75,501.6 509.4,515.5 M542.65,539.6 L533.25,535.4 Q531.35,529.6 528.2,523.15 521.95,510.2 515.9,506.95 M528.75,572.9 Q528.578,572.498 528.35,572.1" test="Hand2 and Arm Nom the rear"/>
        <path id="Layer6_0_2_STROKES" stroke="#0FF" stroke-width="2" stroke-linejoin="round" stroke-linecap="round" fill="none" d="M560.5,449.7 Q564.31,453.683 568.6,458.6 585.1,477.5 594.7,496.2 602.2,510.8 618.75,542.2 630.55,566.023 633.65,579.825 634.15,581.374 634.45,582.9 635.391,587.508 634.6,591.95 632.4,604.15 617.25,604.45 602.55,604.7 580.6,598.45 562.35,593.2 551.3,587.45 545.1,584.25 534.5,578.25 527.493,574.291 527.075,574.225 527.503,573.675 528.35,572.1 M524.15,493.75 Q528.681,500.029 537,512.35 549.8,531.4 550.3,534.35 550.75,536.85 550.45,538.7 550.378,539.097 550.325,539.475 554.212,538.886 557.9,539.2 561.45,539.5 571,542.15 581.65,545.15 592.3,549.05 621.35,559.7 628,569.05 631.927,574.539 633.65,579.825 M550.325,539.475 Q550.14,540.925 550.3,542 M528.35,572.1 Q530.385,568.349 534.8,558.75 540.35,546.6 542.3,541.65 L546.9,540.15 Q548.633,539.724 550.325,539.475 M345.5,360.05 Q361.25,347.45 381.15,345.05 389.3,343.85 397.55,343" test="Hand2 and Arm Nom the rear"/>
      </g>
    </g>
    <g id="BlackMaskRect">
      <path fill="#000" stroke="none" d="M827.6,625.818 L827.6,424.8 -19.45,424.8 -19.45,625.818 827.6,625.818Z" test="BlackMaskRect" stroke-width="1.454"/>
    </g>
  </g>
</svg>