<?xml version="1.0" encoding="utf-8"?>
<svg id="EdithAnim08" image-rendering="inherit" baseProfile="basic" version="1.1" x="0px" y="0px" width="800" height="600" xmlns="http://www.w3.org/2000/svg" xmlns:xlink="http://www.w3.org/1999/xlink">
  <g id="Nom-rear-the-rearf35r1" overflow="visible">
    <g id="Bec-Noms-the-Rearf30r1">
      <path id="Layer2_0_1_STROKES" stroke="#FEB7AE" stroke-width="2" stroke-linejoin="round" stroke-linecap="round" fill="none" d="M509.4,457.1 Q509.2,457.35 509,457.6" test="Bec Noms the Rear_2324232523242325"/>
      <g id="Nom-Bec-Head">
        <path id="Layer3_0_1_STROKES" stroke="#00F" stroke-width="2" stroke-linejoin="round" stroke-linecap="round" fill="none" d="M395.35,300.65 Q399.25,288.35 404.8,273.6 415.9,244.1 424.35,231.7 436.45,213.95 452,199.5 471.2,181.6 488.5,176.15 530.65,162.95 571.45,190.75 597.4,208.45 609,222.5 624.35,241.1 623.15,261.55 622,281.05 611.9,303.25 605.95,316.4 594.7,334.05 588,344.6 566.25,376.15 545.4,406.35 543,409.35 541.15,411.6 532.3,406.35 530.4,405.25 528.4,403.95 M416.3,297.35 Q421.15,283.05 426.05,270.2 438.6,237.35 446.2,228.9 L456.85,216.45 Q467.85,203.9 469.8,203.25 471.75,202.6 481.35,209.15 486.8,212.95 498.6,221.6 504,225.45 550.9,258.8 595.45,290.7 597.45,293.1 599.75,295.85 599.6,297.3 599.5,298.6 597.1,300.75 595.1,302.55 571.45,328.7 550.5,351.8 544.4,358.7 537.2,367.4 532.4,373.1 529.75,376.3 527.6,378.8" test="Nom Bec Head"/>
        <path id="Layer3_0_2_STROKES" stroke="#FFF" stroke-width="2" stroke-linejoin="round" stroke-linecap="round" fill="none" d="M487.15,227.9 Q503.85,224.05 511.05,239.55 511.25,239.95 511.4,240.4 M560.7,283.45 Q560.7,284.9 559.65,285.9 558.65,286.95 557.2,286.95 555.75,286.95 554.7,285.9 553.7,284.9 553.7,283.45 553.7,282 554.7,280.95 555.75,279.95 557.2,279.95 558.65,279.95 559.65,280.95 560.7,282 560.7,283.45Z M552.95,270.9 Q570.1,270.15 574.35,286.7 574.45,287.1 574.55,287.6 M498.95,247 Q498.95,248.45 497.9,249.45 496.9,250.5 495.45,250.5 494,250.5 492.95,249.45 491.95,248.45 491.95,247 491.95,245.55 492.95,244.5 494,243.5 495.45,243.5 496.9,243.5 497.9,244.5 498.95,245.55 498.95,247Z M473.25,286.55 Q467.45,293.25 460.175,294.7 459.75,296.983 459.75,299.05 460.9,304.9 464.3,309.7 465.2,310.95 466.125,312.2 466.338,312.447 466.55,312.7 473.4,320.85 480.55,326.45 483.4,328.7 488.45,332.85 492.75,336.35 496.2,338.35 505.4,343.6 519.4,344.5 519.869,344.528 520.325,344.55 519.187,338.291 520.9,334.2 522.85,329.35 531.2,320.55 M460.25,294.35 L460.175,294.7 Q458.95,294.95 457.175,295.025 448.2,295.35 440.3,288.65 M520.325,344.55 Q520.384,344.874 520.45,345.2 L520.75,346.5 Q521.3,348.1 522.45,349.75 526,355.05 534,358.7" test="Nom Bec Head"/>
      </g>
      <g id="Bum-Nom-the-rear">
        <path fill="#000" stroke="none" d="M527.6,378.8 Q527.15,375 526.4,371.05 L481.25,387.95 523,430.75 Q525.686,423.009 527.1,414.85 528,409.5 528.4,403.95 529.25,391.9 527.6,378.8 M424.5,297.1 Q420.322,297.109 416.3,297.35 405.25,298 395.35,300.65 364.9,308.75 350.8,334.15 417.6,357.35 417.7,357.45 417.75,357.5 421.1,327.3 424.45,297.1 424.5,297.1Z" test="Bum Nom the rear"/>
        <path id="Layer4_0_1_STROKES" stroke="#FEB7AE" stroke-width="2" stroke-linejoin="round" stroke-linecap="round" fill="none" d="M350.8,334.15 Q364.9,308.75 395.35,300.65 405.25,298 416.3,297.35 420.322,297.109 424.5,297.125 429.824,297.174 435.4,297.65 448.286,298.751 460.25,302.425 M526.4,371.05 Q527.15,375 527.6,378.8 529.25,391.9 528.4,403.95 528,409.5 527.1,414.85 525.686,423.009 523.025,430.75 518.228,444.611 509.4,457.1 M517.5,344.125 Q522.391,352.583 524.6,362.15 525.6,366.5 526.4,371.05 M274.3,292.1 Q288.15,290.85 303.2,292.25 L308.45,292.8 Q330.25,295.6 343.7,304.45 343.8,304.5 343.9,304.55 354.1,311.3 358.4,321.25 M345.55,345.85 Q347.8,339.55 350.8,334.15 M211.65,471.45 Q204.6,463.55 199.8,457.4 190.95,446.1 185.3,434.85 168.75,401.7 178.3,366.7 188.2,330.45 219.9,310.35" test="Bum Nom the rear"/>
      </g>
      <g id="Hand-Nom-the-rear">
        <path id="Layer5_0_1_STROKES" stroke="#FFF" stroke-width="2" stroke-linejoin="round" stroke-linecap="round" fill="none" d="M303.25,291.75 Q300.6,289.6 291.75,281.1 284.4,274.05 279.45,270.65 264.05,260.15 247.35,266.75 228.85,274.05 222.95,287.7 219.2,296.4 219.9,310.35 220.1,314.35 220.65,318.8 L222.85,323.7 Q225.9,329.6 229.85,334.45 242.5,350 259.85,349.35 278.15,348.65 280.6,326.15 281.5,317.7 279.85,308.2 278.4,299.7 275.8,294.85 275.05,293.4 274.3,292.1" test="Hand Nom the rear"/>
      </g>
      <g id="Hand2-and-Arm-Nom-the-rear">
        <path id="Layer6_0_1_STROKES" stroke="#FFF" stroke-width="2" stroke-linejoin="round" stroke-linecap="round" fill="none" d="M528.35,513.7 Q527.791,512.727 526.9,511.8 524.45,509.2 521.15,509.65 517.8,510.35 515.1,510.8 510.05,511.7 505.35,511.45 491,510.8 477.4,500.25 463.35,489.4 456.5,475.6 452.35,467.25 450.7,456.9 449.75,451.05 456.7,443.4 462.75,436.75 467.35,435.4 471.4,434.25 477.45,435.1 484.25,436.05 488.85,439.2 494.75,443.2 509.4,457.1 M542.65,481.2 L533.25,477 Q531.35,471.2 528.2,464.75 521.95,451.8 515.9,448.55 M528.75,514.5 Q528.578,514.098 528.35,513.7" test="Hand2 and Arm Nom the rear"/>
        <path id="Layer6_0_2_STROKES" stroke="#0FF" stroke-width="2" stroke-linejoin="round" stroke-linecap="round" fill="none" d="M560.5,391.3 Q564.31,395.283 568.6,400.2 585.1,419.1 594.7,437.8 602.2,452.4 618.75,483.8 630.55,507.623 633.65,521.425 634.15,522.974 634.45,524.5 635.391,529.108 634.6,533.55 632.4,545.75 617.25,546.05 602.55,546.3 580.6,540.05 562.35,534.8 551.3,529.05 545.1,525.85 534.5,519.85 527.493,515.891 527.075,515.825 527.503,515.275 528.35,513.7 M524.15,435.35 Q528.681,441.629 537,453.95 549.8,473 550.3,475.95 550.75,478.45 550.45,480.3 550.378,480.697 550.325,481.075 554.212,480.486 557.9,480.8 561.45,481.1 571,483.75 581.65,486.75 592.3,490.65 621.35,501.3 628,510.65 631.927,516.139 633.65,521.425 M550.325,481.075 Q550.14,482.525 550.3,483.6 M528.35,513.7 Q530.385,509.949 534.8,500.35 540.35,488.2 542.3,483.25 L546.9,481.75 Q548.633,481.324 550.325,481.075 M345.5,301.65 Q361.25,289.05 381.15,286.65 389.3,285.45 397.55,284.6" test="Hand2 and Arm Nom the rear"/>
      </g>
    </g>
    <g id="BlackMaskRect">
      <path fill="#000" stroke="none" d="M827.6,625.818 L827.6,424.8 -19.45,424.8 -19.45,625.818 827.6,625.818Z" test="BlackMaskRect" stroke-width="1.454"/>
    </g>
  </g>
</svg>