<?xml version="1.0" encoding="utf-8"?>
<svg id="EdithAnim08" image-rendering="inherit" baseProfile="basic" version="1.1" x="0px" y="0px" width="800" height="600" xmlns="http://www.w3.org/2000/svg" xmlns:xlink="http://www.w3.org/1999/xlink">
  <g id="Nom-rear-the-rearf36r1" overflow="visible">
    <g id="Bec-Noms-the-Rearf30r1">
      <path id="Layer2_0_1_STROKES" stroke="#FEB7AE" stroke-width="2" stroke-linejoin="round" stroke-linecap="round" fill="none" d="M509.4,451.55 Q509.2,451.8 509,452.05" test="Bec Noms the Rear_23242325232423262324232523242326"/>
      <g id="Nom-Bec-Head">
        <path id="Layer3_0_1_STROKES" stroke="#00F" stroke-width="2" stroke-linejoin="round" stroke-linecap="round" fill="none" d="M395.35,295.1 Q399.25,282.8 404.8,268.05 415.9,238.55 424.35,226.15 436.45,208.4 452,193.95 471.2,176.05 488.5,170.6 530.65,157.4 571.45,185.2 597.4,202.9 609,216.95 624.35,235.55 623.15,256 622,275.5 611.9,297.7 605.95,310.85 594.7,328.5 588,339.05 566.25,370.6 545.4,400.8 543,403.8 541.15,406.05 532.3,400.8 530.4,399.7 528.4,398.4 M416.3,291.8 Q421.15,277.5 426.05,264.65 438.6,231.8 446.2,223.35 L456.85,210.9 Q467.85,198.35 469.8,197.7 471.75,197.05 481.35,203.6 486.8,207.4 498.6,216.05 504,219.9 550.9,253.25 595.45,285.15 597.45,287.55 599.75,290.3 599.6,291.75 599.5,293.05 597.1,295.2 595.1,297 571.45,323.15 550.5,346.25 544.4,353.15 537.2,361.85 532.4,367.55 529.75,370.75 527.6,373.25" test="Nom Bec Head"/>
        <path id="Layer3_0_2_STROKES" stroke="#FFF" stroke-width="2" stroke-linejoin="round" stroke-linecap="round" fill="none" d="M487.15,222.35 Q503.85,218.5 511.05,234 511.25,234.4 511.4,234.85 M560.7,277.9 Q560.7,279.35 559.65,280.35 558.65,281.4 557.2,281.4 555.75,281.4 554.7,280.35 553.7,279.35 553.7,277.9 553.7,276.45 554.7,275.4 555.75,274.4 557.2,274.4 558.65,274.4 559.65,275.4 560.7,276.45 560.7,277.9Z M552.95,265.35 Q570.1,264.6 574.35,281.15 574.45,281.55 574.55,282.05 M498.95,241.45 Q498.95,242.9 497.9,243.9 496.9,244.95 495.45,244.95 494,244.95 492.95,243.9 491.95,242.9 491.95,241.45 491.95,240 492.95,238.95 494,237.95 495.45,237.95 496.9,237.95 497.9,238.95 498.95,240 498.95,241.45Z M473.25,281 Q467.45,287.7 460.175,289.15 459.75,291.433 459.75,293.5 460.9,299.35 464.3,304.15 465.2,305.4 466.125,306.65 466.338,306.897 466.55,307.15 473.4,315.3 480.55,320.9 483.4,323.15 488.45,327.3 492.75,330.8 496.2,332.8 505.4,338.05 519.4,338.95 519.869,338.978 520.325,339 519.187,332.741 520.9,328.65 522.85,323.8 531.2,315 M460.25,288.8 L460.175,289.15 Q458.95,289.4 457.175,289.475 448.2,289.8 440.3,283.1 M520.325,339 Q520.384,339.324 520.45,339.65 L520.75,340.95 Q521.3,342.55 522.45,344.2 526,349.5 534,353.15" test="Nom Bec Head"/>
      </g>
      <g id="Bum-Nom-the-rear">
        <path fill="#000" stroke="none" d="M527.6,373.25 Q527.15,369.45 526.4,365.5 L481.25,382.4 523,425.2 Q525.686,417.459 527.1,409.3 528,403.95 528.4,398.4 529.25,386.35 527.6,373.25 M424.5,291.55 Q420.322,291.559 416.3,291.8 405.25,292.45 395.35,295.1 364.9,303.2 350.8,328.6 417.6,351.8 417.7,351.9 417.75,351.95 421.1,321.75 424.45,291.55 424.5,291.55Z" test="Bum Nom the rear"/>
        <path id="Layer4_0_1_STROKES" stroke="#FEB7AE" stroke-width="2" stroke-linejoin="round" stroke-linecap="round" fill="none" d="M350.8,328.6 Q364.9,303.2 395.35,295.1 405.25,292.45 416.3,291.8 420.322,291.559 424.5,291.575 429.824,291.624 435.4,292.1 448.286,293.201 460.25,296.875 M526.4,365.5 Q527.15,369.45 527.6,373.25 529.25,386.35 528.4,398.4 528,403.95 527.1,409.3 525.686,417.459 523.025,425.2 518.228,439.061 509.4,451.55 M517.5,338.575 Q522.391,347.033 524.6,356.6 525.6,360.95 526.4,365.5 M274.3,286.55 Q288.15,285.3 303.2,286.7 L308.45,287.25 Q330.25,290.05 343.7,298.9 343.8,298.95 343.9,299 354.1,305.75 358.4,315.7 M345.55,340.3 Q347.8,334 350.8,328.6 M211.65,465.9 Q204.6,458 199.8,451.85 190.95,440.55 185.3,429.3 168.75,396.15 178.3,361.15 188.2,324.9 219.9,304.8" test="Bum Nom the rear"/>
      </g>
      <g id="Hand-Nom-the-rear">
        <path id="Layer5_0_1_STROKES" stroke="#FFF" stroke-width="2" stroke-linejoin="round" stroke-linecap="round" fill="none" d="M303.25,286.2 Q300.6,284.05 291.75,275.55 284.4,268.5 279.45,265.1 264.05,254.6 247.35,261.2 228.85,268.5 222.95,282.15 219.2,290.85 219.9,304.8 220.1,308.8 220.65,313.25 L222.85,318.15 Q225.9,324.05 229.85,328.9 242.5,344.45 259.85,343.8 278.15,343.1 280.6,320.6 281.5,312.15 279.85,302.65 278.4,294.15 275.8,289.3 275.05,287.85 274.3,286.55" test="Hand Nom the rear"/>
      </g>
      <g id="Hand2-and-Arm-Nom-the-rear">
        <path id="Layer6_0_1_STROKES" stroke="#FFF" stroke-width="2" stroke-linejoin="round" stroke-linecap="round" fill="none" d="M528.35,508.15 Q527.791,507.177 526.9,506.25 524.45,503.65 521.15,504.1 517.8,504.8 515.1,505.25 510.05,506.15 505.35,505.9 491,505.25 477.4,494.7 463.35,483.85 456.5,470.05 452.35,461.7 450.7,451.35 449.75,445.5 456.7,437.85 462.75,431.2 467.35,429.85 471.4,428.7 477.45,429.55 484.25,430.5 488.85,433.65 494.75,437.65 509.4,451.55 M542.65,475.65 L533.25,471.45 Q531.35,465.65 528.2,459.2 521.95,446.25 515.9,443 M528.75,508.95 Q528.578,508.548 528.35,508.15" test="Hand2 and Arm Nom the rear"/>
        <path id="Layer6_0_2_STROKES" stroke="#0FF" stroke-width="2" stroke-linejoin="round" stroke-linecap="round" fill="none" d="M560.5,385.75 Q564.31,389.733 568.6,394.65 585.1,413.55 594.7,432.25 602.2,446.85 618.75,478.25 630.55,502.073 633.65,515.875 634.15,517.424 634.45,518.95 635.391,523.558 634.6,528 632.4,540.2 617.25,540.5 602.55,540.75 580.6,534.5 562.35,529.25 551.3,523.5 545.1,520.3 534.5,514.3 527.493,510.341 527.075,510.275 527.503,509.725 528.35,508.15 M524.15,429.8 Q528.681,436.079 537,448.4 549.8,467.45 550.3,470.4 550.75,472.9 550.45,474.75 550.378,475.147 550.325,475.525 554.212,474.936 557.9,475.25 561.45,475.55 571,478.2 581.65,481.2 592.3,485.1 621.35,495.75 628,505.1 631.927,510.589 633.65,515.875 M550.325,475.525 Q550.14,476.975 550.3,478.05 M528.35,508.15 Q530.385,504.399 534.8,494.8 540.35,482.65 542.3,477.7 L546.9,476.2 Q548.633,475.774 550.325,475.525 M345.5,296.1 Q361.25,283.5 381.15,281.1 389.3,279.9 397.55,279.05" test="Hand2 and Arm Nom the rear"/>
      </g>
    </g>
    <g id="BlackMaskRect">
      <path fill="#000" stroke="none" d="M827.6,625.818 L827.6,424.8 -19.45,424.8 -19.45,625.818 827.6,625.818Z" test="BlackMaskRect" stroke-width="1.454"/>
    </g>
  </g>
</svg>