<?xml version="1.0" encoding="utf-8"?>
<svg id="EdithAnim08" image-rendering="inherit" baseProfile="basic" version="1.1" x="0px" y="0px" width="800" height="600" xmlns="http://www.w3.org/2000/svg" xmlns:xlink="http://www.w3.org/1999/xlink">
  <g id="Nom-rear-the-rearf37r1" overflow="visible">
    <g id="Bec-Noms-the-Rearf30r1">
      <path id="Layer2_0_1_STROKES" stroke="#FEB7AE" stroke-width="2" stroke-linejoin="round" stroke-linecap="round" fill="none" d="M509.4,446.2 Q509.2,446.45 509,446.7" test="Bec Noms the Rear_2.3242325232423263e+312.3242325232423263e+31"/>
      <g id="Nom-Bec-Head">
        <path id="Layer3_0_1_STROKES" stroke="#00F" stroke-width="2" stroke-linejoin="round" stroke-linecap="round" fill="none" d="M395.35,289.75 Q399.25,277.45 404.8,262.7 415.9,233.2 424.35,220.8 436.45,203.05 452,188.6 471.2,170.7 488.5,165.25 530.65,152.05 571.45,179.85 597.4,197.55 609,211.6 624.35,230.2 623.15,250.65 622,270.15 611.9,292.35 605.95,305.5 594.7,323.15 588,333.7 566.25,365.25 545.4,395.45 543,398.45 541.15,400.7 532.3,395.45 530.4,394.35 528.4,393.05 M416.3,286.45 Q421.15,272.15 426.05,259.3 438.6,226.45 446.2,218 L456.85,205.55 Q467.85,193 469.8,192.35 471.75,191.7 481.35,198.25 486.8,202.05 498.6,210.7 504,214.55 550.9,247.9 595.45,279.8 597.45,282.2 599.75,284.95 599.6,286.4 599.5,287.7 597.1,289.85 595.1,291.65 571.45,317.8 550.5,340.9 544.4,347.8 537.2,356.5 532.4,362.2 529.75,365.4 527.6,367.9" test="Nom Bec Head"/>
        <path id="Layer3_0_2_STROKES" stroke="#FFF" stroke-width="2" stroke-linejoin="round" stroke-linecap="round" fill="none" d="M487.15,217 Q503.85,213.15 511.05,228.65 511.25,229.05 511.4,229.5 M560.7,272.55 Q560.7,274 559.65,275 558.65,276.05 557.2,276.05 555.75,276.05 554.7,275 553.7,274 553.7,272.55 553.7,271.1 554.7,270.05 555.75,269.05 557.2,269.05 558.65,269.05 559.65,270.05 560.7,271.1 560.7,272.55Z M552.95,260 Q570.1,259.25 574.35,275.8 574.45,276.2 574.55,276.7 M498.95,236.1 Q498.95,237.55 497.9,238.55 496.9,239.6 495.45,239.6 494,239.6 492.95,238.55 491.95,237.55 491.95,236.1 491.95,234.65 492.95,233.6 494,232.6 495.45,232.6 496.9,232.6 497.9,233.6 498.95,234.65 498.95,236.1Z M473.25,275.65 Q467.45,282.35 460.175,283.8 459.75,286.083 459.75,288.15 460.9,294 464.3,298.8 465.2,300.05 466.125,301.3 466.338,301.547 466.55,301.8 473.4,309.95 480.55,315.55 483.4,317.8 488.45,321.95 492.75,325.45 496.2,327.45 505.4,332.7 519.4,333.6 519.869,333.628 520.325,333.65 519.187,327.391 520.9,323.3 522.85,318.45 531.2,309.65 M460.25,283.45 L460.175,283.8 Q458.95,284.05 457.175,284.125 448.2,284.45 440.3,277.75 M520.325,333.65 Q520.384,333.974 520.45,334.3 L520.75,335.6 Q521.3,337.2 522.45,338.85 526,344.15 534,347.8" test="Nom Bec Head"/>
      </g>
      <g id="Bum-Nom-the-rear">
        <path fill="#000" stroke="none" d="M527.6,367.9 Q527.15,364.1 526.4,360.15 L481.25,377.05 523,419.85 Q525.686,412.109 527.1,403.95 528,398.6 528.4,393.05 529.25,381 527.6,367.9 M424.5,286.2 Q420.322,286.209 416.3,286.45 405.25,287.1 395.35,289.75 364.9,297.85 350.8,323.25 417.6,346.45 417.7,346.55 417.75,346.6 421.1,316.4 424.45,286.2 424.5,286.2Z" test="Bum Nom the rear"/>
        <path id="Layer4_0_1_STROKES" stroke="#FEB7AE" stroke-width="2" stroke-linejoin="round" stroke-linecap="round" fill="none" d="M350.8,323.25 Q364.9,297.85 395.35,289.75 405.25,287.1 416.3,286.45 420.322,286.209 424.5,286.225 429.824,286.274 435.4,286.75 448.286,287.851 460.25,291.525 M526.4,360.15 Q527.15,364.1 527.6,367.9 529.25,381 528.4,393.05 528,398.6 527.1,403.95 525.686,412.109 523.025,419.85 518.228,433.711 509.4,446.2 M517.5,333.225 Q522.391,341.683 524.6,351.25 525.6,355.6 526.4,360.15 M274.3,281.2 Q288.15,279.95 303.2,281.35 L308.45,281.9 Q330.25,284.7 343.7,293.55 343.8,293.6 343.9,293.65 354.1,300.4 358.4,310.35 M345.55,334.95 Q347.8,328.65 350.8,323.25 M211.65,460.55 Q204.6,452.65 199.8,446.5 190.95,435.2 185.3,423.95 168.75,390.8 178.3,355.8 188.2,319.55 219.9,299.45" test="Bum Nom the rear"/>
      </g>
      <g id="Hand-Nom-the-rear">
        <path id="Layer5_0_1_STROKES" stroke="#FFF" stroke-width="2" stroke-linejoin="round" stroke-linecap="round" fill="none" d="M303.25,280.85 Q300.6,278.7 291.75,270.2 284.4,263.15 279.45,259.75 264.05,249.25 247.35,255.85 228.85,263.15 222.95,276.8 219.2,285.5 219.9,299.45 220.1,303.45 220.65,307.9 L222.85,312.8 Q225.9,318.7 229.85,323.55 242.5,339.1 259.85,338.45 278.15,337.75 280.6,315.25 281.5,306.8 279.85,297.3 278.4,288.8 275.8,283.95 275.05,282.5 274.3,281.2" test="Hand Nom the rear"/>
      </g>
      <g id="Hand2-and-Arm-Nom-the-rear">
        <path id="Layer6_0_1_STROKES" stroke="#FFF" stroke-width="2" stroke-linejoin="round" stroke-linecap="round" fill="none" d="M528.35,502.8 Q527.791,501.827 526.9,500.9 524.45,498.3 521.15,498.75 517.8,499.45 515.1,499.9 510.05,500.8 505.35,500.55 491,499.9 477.4,489.35 463.35,478.5 456.5,464.7 452.35,456.35 450.7,446 449.75,440.15 456.7,432.5 462.75,425.85 467.35,424.5 471.4,423.35 477.45,424.2 484.25,425.15 488.85,428.3 494.75,432.3 509.4,446.2 M542.65,470.3 L533.25,466.1 Q531.35,460.3 528.2,453.85 521.95,440.9 515.9,437.65 M528.75,503.6 Q528.578,503.198 528.35,502.8" test="Hand2 and Arm Nom the rear"/>
        <path id="Layer6_0_2_STROKES" stroke="#0FF" stroke-width="2" stroke-linejoin="round" stroke-linecap="round" fill="none" d="M560.5,380.4 Q564.31,384.383 568.6,389.3 585.1,408.2 594.7,426.9 602.2,441.5 618.75,472.9 630.55,496.723 633.65,510.525 634.15,512.074 634.45,513.6 635.391,518.208 634.6,522.65 632.4,534.85 617.25,535.15 602.55,535.4 580.6,529.15 562.35,523.9 551.3,518.15 545.1,514.95 534.5,508.95 527.493,504.991 527.075,504.925 527.503,504.375 528.35,502.8 M524.15,424.45 Q528.681,430.729 537,443.05 549.8,462.1 550.3,465.05 550.75,467.55 550.45,469.4 550.378,469.797 550.325,470.175 554.212,469.586 557.9,469.9 561.45,470.2 571,472.85 581.65,475.85 592.3,479.75 621.35,490.4 628,499.75 631.927,505.239 633.65,510.525 M550.325,470.175 Q550.14,471.625 550.3,472.7 M528.35,502.8 Q530.385,499.049 534.8,489.45 540.35,477.3 542.3,472.35 L546.9,470.85 Q548.633,470.424 550.325,470.175 M345.5,290.75 Q361.25,278.15 381.15,275.75 389.3,274.55 397.55,273.7" test="Hand2 and Arm Nom the rear"/>
      </g>
    </g>
    <g id="BlackMaskRect">
      <path fill="#000" stroke="none" d="M827.6,625.818 L827.6,424.8 -19.45,424.8 -19.45,625.818 827.6,625.818Z" test="BlackMaskRect" stroke-width="1.454"/>
    </g>
  </g>
</svg>