<?xml version="1.0" encoding="utf-8"?>
<svg id="EdithAnim08" image-rendering="inherit" baseProfile="basic" version="1.1" x="0px" y="0px" width="800" height="600" xmlns="http://www.w3.org/2000/svg" xmlns:xlink="http://www.w3.org/1999/xlink">
  <g id="Nom-rear-the-rearf40r1" overflow="visible">
    <g id="Bec-Noms-the-Rearf30r1">
      <path id="Layer2_0_1_STROKES" stroke="#FEB7AE" stroke-width="2" stroke-linejoin="round" stroke-linecap="round" fill="none" d="M509.4,431.3 Q509.2,431.55 509,431.8" test="Bec Noms the Rear_2.3242325232423263e+312.3242325232423263e+31_2323"/>
      <g id="Nom-Bec-Head">
        <path id="Layer3_0_1_STROKES" stroke="#00F" stroke-width="2" stroke-linejoin="round" stroke-linecap="round" fill="none" d="M395.35,274.85 Q399.25,262.55 404.8,247.8 415.9,218.3 424.35,205.9 436.45,188.15 452,173.7 471.2,155.8 488.5,150.35 530.65,137.15 571.45,164.95 597.4,182.65 609,196.7 624.35,215.3 623.15,235.75 622,255.25 611.9,277.45 605.95,290.6 594.7,308.25 588,318.8 566.25,350.35 545.4,380.55 543,383.55 541.15,385.8 532.3,380.55 530.4,379.45 528.4,378.15 M416.3,271.55 Q421.15,257.25 426.05,244.4 438.6,211.55 446.2,203.1 L456.85,190.65 Q467.85,178.1 469.8,177.45 471.75,176.8 481.35,183.35 486.8,187.15 498.6,195.8 504,199.65 550.9,233 595.45,264.9 597.45,267.3 599.75,270.05 599.6,271.5 599.5,272.8 597.1,274.95 595.1,276.75 571.45,302.9 550.5,326 544.4,332.9 537.2,341.6 532.4,347.3 529.75,350.5 527.6,353" test="Nom Bec Head"/>
        <path id="Layer3_0_2_STROKES" stroke="#FFF" stroke-width="2" stroke-linejoin="round" stroke-linecap="round" fill="none" d="M487.15,202.1 Q503.85,198.25 511.05,213.75 511.25,214.15 511.4,214.6 M560.7,257.65 Q560.7,259.1 559.65,260.1 558.65,261.15 557.2,261.15 555.75,261.15 554.7,260.1 553.7,259.1 553.7,257.65 553.7,256.2 554.7,255.15 555.75,254.15 557.2,254.15 558.65,254.15 559.65,255.15 560.7,256.2 560.7,257.65Z M552.95,245.1 Q570.1,244.35 574.35,260.9 574.45,261.3 574.55,261.8 M498.95,221.2 Q498.95,222.65 497.9,223.65 496.9,224.7 495.45,224.7 494,224.7 492.95,223.65 491.95,222.65 491.95,221.2 491.95,219.75 492.95,218.7 494,217.7 495.45,217.7 496.9,217.7 497.9,218.7 498.95,219.75 498.95,221.2Z M473.25,260.75 Q467.45,267.45 460.175,268.9 459.75,271.183 459.75,273.25 460.9,279.1 464.3,283.9 465.2,285.15 466.125,286.4 466.338,286.647 466.55,286.9 473.4,295.05 480.55,300.65 483.4,302.9 488.45,307.05 492.75,310.55 496.2,312.55 505.4,317.8 519.4,318.7 519.869,318.728 520.325,318.75 519.187,312.491 520.9,308.4 522.85,303.55 531.2,294.75 M460.25,268.55 L460.175,268.9 Q458.95,269.15 457.175,269.225 448.2,269.55 440.3,262.85 M520.325,318.75 Q520.384,319.074 520.45,319.4 L520.75,320.7 Q521.3,322.3 522.45,323.95 526,329.25 534,332.9" test="Nom Bec Head"/>
      </g>
      <g id="Bum-Nom-the-rear">
        <path fill="#000" stroke="none" d="M527.6,353 Q527.15,349.2 526.4,345.25 L481.25,362.15 523,404.95 Q525.686,397.209 527.1,389.05 528,383.7 528.4,378.15 529.25,366.1 527.6,353 M424.5,271.3 Q420.322,271.309 416.3,271.55 405.25,272.2 395.35,274.85 364.9,282.95 350.8,308.35 417.6,331.55 417.7,331.65 417.75,331.7 421.1,301.5 424.45,271.3 424.5,271.3Z" test="Bum Nom the rear"/>
        <path id="Layer4_0_1_STROKES" stroke="#FEB7AE" stroke-width="2" stroke-linejoin="round" stroke-linecap="round" fill="none" d="M350.8,308.35 Q364.9,282.95 395.35,274.85 405.25,272.2 416.3,271.55 420.322,271.309 424.5,271.325 429.824,271.374 435.4,271.85 448.286,272.951 460.25,276.625 M526.4,345.25 Q527.15,349.2 527.6,353 529.25,366.1 528.4,378.15 528,383.7 527.1,389.05 525.686,397.209 523.025,404.95 518.228,418.811 509.4,431.3 M517.5,318.325 Q522.391,326.783 524.6,336.35 525.6,340.7 526.4,345.25 M274.3,266.3 Q288.15,265.05 303.2,266.45 L308.45,267 Q330.25,269.8 343.7,278.65 343.8,278.7 343.9,278.75 354.1,285.5 358.4,295.45 M345.55,320.05 Q347.8,313.75 350.8,308.35 M211.65,445.65 Q204.6,437.75 199.8,431.6 190.95,420.3 185.3,409.05 168.75,375.9 178.3,340.9 188.2,304.65 219.9,284.55" test="Bum Nom the rear"/>
      </g>
      <g id="Hand-Nom-the-rear">
        <path id="Layer5_0_1_STROKES" stroke="#FFF" stroke-width="2" stroke-linejoin="round" stroke-linecap="round" fill="none" d="M303.25,265.95 Q300.6,263.8 291.75,255.3 284.4,248.25 279.45,244.85 264.05,234.35 247.35,240.95 228.85,248.25 222.95,261.9 219.2,270.6 219.9,284.55 220.1,288.55 220.65,293 L222.85,297.9 Q225.9,303.8 229.85,308.65 242.5,324.2 259.85,323.55 278.15,322.85 280.6,300.35 281.5,291.9 279.85,282.4 278.4,273.9 275.8,269.05 275.05,267.6 274.3,266.3" test="Hand Nom the rear"/>
      </g>
      <g id="Hand2-and-Arm-Nom-the-rear">
        <path id="Layer6_0_1_STROKES" stroke="#FFF" stroke-width="2" stroke-linejoin="round" stroke-linecap="round" fill="none" d="M528.35,487.9 Q527.791,486.927 526.9,486 524.45,483.4 521.15,483.85 517.8,484.55 515.1,485 510.05,485.9 505.35,485.65 491,485 477.4,474.45 463.35,463.6 456.5,449.8 452.35,441.45 450.7,431.1 449.75,425.25 456.7,417.6 462.75,410.95 467.35,409.6 471.4,408.45 477.45,409.3 484.25,410.25 488.85,413.4 494.75,417.4 509.4,431.3 M542.65,455.4 L533.25,451.2 Q531.35,445.4 528.2,438.95 521.95,426 515.9,422.75 M528.75,488.7 Q528.578,488.298 528.35,487.9" test="Hand2 and Arm Nom the rear"/>
        <path id="Layer6_0_2_STROKES" stroke="#0FF" stroke-width="2" stroke-linejoin="round" stroke-linecap="round" fill="none" d="M560.5,365.5 Q564.31,369.483 568.6,374.4 585.1,393.3 594.7,412 602.2,426.6 618.75,458 630.55,481.823 633.65,495.625 634.15,497.174 634.45,498.7 635.391,503.308 634.6,507.75 632.4,519.95 617.25,520.25 602.55,520.5 580.6,514.25 562.35,509 551.3,503.25 545.1,500.05 534.5,494.05 527.493,490.091 527.075,490.025 527.503,489.475 528.35,487.9 M524.15,409.55 Q528.681,415.829 537,428.15 549.8,447.2 550.3,450.15 550.75,452.65 550.45,454.5 550.378,454.897 550.325,455.275 554.212,454.686 557.9,455 561.45,455.3 571,457.95 581.65,460.95 592.3,464.85 621.35,475.5 628,484.85 631.927,490.339 633.65,495.625 M550.325,455.275 Q550.14,456.725 550.3,457.8 M528.35,487.9 Q530.385,484.149 534.8,474.55 540.35,462.4 542.3,457.45 L546.9,455.95 Q548.633,455.524 550.325,455.275 M345.5,275.85 Q361.25,263.25 381.15,260.85 389.3,259.65 397.55,258.8" test="Hand2 and Arm Nom the rear"/>
      </g>
    </g>
    <g id="BlackMaskRect">
      <path fill="#000" stroke="none" d="M827.6,625.818 L827.6,424.8 -19.45,424.8 -19.45,625.818 827.6,625.818Z" test="BlackMaskRect" stroke-width="1.454"/>
    </g>
  </g>
</svg>