<?xml version="1.0" encoding="utf-8"?>
<svg id="EdithAnim08" image-rendering="inherit" baseProfile="basic" version="1.1" x="0px" y="0px" width="800" height="600" xmlns="http://www.w3.org/2000/svg" xmlns:xlink="http://www.w3.org/1999/xlink">
  <g id="Nom-rear-the-rearf44r1" overflow="visible">
    <g id="Bec-Noms-the-Rearf44r1">
      <path id="Layer2_0_1_STROKES" stroke="#FEB7AE" stroke-width="2" stroke-linejoin="round" stroke-linecap="round" fill="none" d="M509.4,414.1 Q509.2,414.35 509,414.6" test="Bec Noms the Rear"/>
      <g id="Nom-Bec-Head">
        <path id="Layer3_0_1_STROKES" stroke="#00F" stroke-width="2" stroke-linejoin="round" stroke-linecap="round" fill="none" d="M386.95,266.05 Q390.85,253.75 396.4,239 407.5,209.5 415.95,197.1 428.05,179.35 443.6,164.9 462.8,147 480.1,141.55 522.25,128.35 563.05,156.15 589,173.85 600.6,187.9 615.95,206.5 614.75,226.95 613.6,246.45 603.5,268.65 597.55,281.8 586.3,299.45 579.6,310 557.85,341.55 537,371.75 534.6,374.75 532.75,377 523.9,371.75 522,370.65 520,369.35 M407.9,262.75 Q412.75,248.45 417.65,235.6 430.2,202.75 437.8,194.3 L448.45,181.85 Q459.45,169.3 461.4,168.65 463.35,168 472.95,174.55 478.4,178.35 490.2,187 495.6,190.85 542.5,224.2 587.05,256.1 589.05,258.5 591.35,261.25 591.2,262.7 591.1,264 588.7,266.15 586.7,267.95 563.05,294.1 542.1,317.2 536,324.1 528.8,332.8 524,338.5 521.35,341.7 519.2,344.2" test="Nom Bec Head"/>
        <path id="Layer3_0_2_STROKES" stroke="#FFF" stroke-width="2" stroke-linejoin="round" stroke-linecap="round" fill="none" d="M478.75,193.3 Q495.45,189.45 502.65,204.95 502.85,205.35 503,205.8 M552.3,248.85 Q552.3,250.3 551.25,251.3 550.25,252.35 548.8,252.35 547.35,252.35 546.3,251.3 545.3,250.3 545.3,248.85 545.3,247.4 546.3,246.35 547.35,245.35 548.8,245.35 550.25,245.35 551.25,246.35 552.3,247.4 552.3,248.85Z M544.55,236.3 Q561.7,235.55 565.95,252.1 566.05,252.5 566.15,253 M490.55,212.4 Q490.55,213.85 489.5,214.85 488.5,215.9 487.05,215.9 485.6,215.9 484.55,214.85 483.55,213.85 483.55,212.4 483.55,210.95 484.55,209.9 485.6,208.9 487.05,208.9 488.5,208.9 489.5,209.9 490.55,210.95 490.55,212.4Z M464.85,251.95 Q459.05,258.65 451.775,260.1 451.35,262.383 451.35,264.45 452.5,270.3 455.9,275.1 456.8,276.35 457.725,277.6 457.938,277.847 458.15,278.1 465,286.25 472.15,291.85 475,294.1 480.05,298.25 484.35,301.75 487.8,303.75 497,309 511,309.9 511.469,309.928 511.925,309.95 510.787,303.691 512.5,299.6 514.45,294.75 522.8,285.95 M451.85,259.75 L451.775,260.1 Q450.55,260.35 448.775,260.425 439.8,260.75 431.9,254.05 M511.925,309.95 Q511.984,310.274 512.05,310.6 L512.35,311.9 Q512.9,313.5 514.05,315.15 517.6,320.45 525.6,324.1" test="Nom Bec Head"/>
      </g>
      <g id="Bum-Nom-the-rear">
        <path fill="#000" stroke="none" d="M527.6,335.8 Q527.15,332 526.4,328.05 L481.25,344.95 523,387.75 Q525.686,380.009 527.1,371.85 528,366.5 528.4,360.95 529.25,348.9 527.6,335.8 M424.5,254.1 Q420.322,254.109 416.3,254.35 405.25,255 395.35,257.65 364.9,265.75 350.8,291.15 417.6,314.35 417.7,314.45 417.75,314.5 421.1,284.3 424.45,254.1 424.5,254.1Z" test="Bum Nom the rear"/>
        <path id="Layer4_0_1_STROKES" stroke="#FEB7AE" stroke-width="2" stroke-linejoin="round" stroke-linecap="round" fill="none" d="M350.8,291.15 Q364.9,265.75 395.35,257.65 405.25,255 416.3,254.35 420.322,254.109 424.5,254.125 429.824,254.174 435.4,254.65 448.286,255.751 460.25,259.425 M526.4,328.05 Q527.15,332 527.6,335.8 529.25,348.9 528.4,360.95 528,366.5 527.1,371.85 525.686,380.009 523.025,387.75 518.228,401.611 509.4,414.1 M517.5,301.125 Q522.391,309.583 524.6,319.15 525.6,323.5 526.4,328.05 M274.3,249.1 Q288.15,247.85 303.2,249.25 L308.45,249.8 Q330.25,252.6 343.7,261.45 343.8,261.5 343.9,261.55 354.1,268.3 358.4,278.25 M345.55,302.85 Q347.8,296.55 350.8,291.15 M211.65,428.45 Q204.6,420.55 199.8,414.4 190.95,403.1 185.3,391.85 168.75,358.7 178.3,323.7 188.2,287.45 219.9,267.35" test="Bum Nom the rear"/>
      </g>
      <g id="Hand-Nom-the-rear">
        <path id="Layer5_0_1_STROKES" stroke="#FFF" stroke-width="2" stroke-linejoin="round" stroke-linecap="round" fill="none" d="M303.25,248.75 Q300.6,246.6 291.75,238.1 284.4,231.05 279.45,227.65 264.05,217.15 247.35,223.75 228.85,231.05 222.95,244.7 219.2,253.4 219.9,267.35 220.1,271.35 220.65,275.8 L222.85,280.7 Q225.9,286.6 229.85,291.45 242.5,307 259.85,306.35 278.15,305.65 280.6,283.15 281.5,274.7 279.85,265.2 278.4,256.7 275.8,251.85 275.05,250.4 274.3,249.1" test="Hand Nom the rear"/>
      </g>
      <g id="Hand2-and-Arm-Nom-the-rear">
        <path id="Layer6_0_1_STROKES" stroke="#FFF" stroke-width="2" stroke-linejoin="round" stroke-linecap="round" fill="none" d="M528.35,470.7 Q527.791,469.727 526.9,468.8 524.45,466.2 521.15,466.65 517.8,467.35 515.1,467.8 510.05,468.7 505.35,468.45 491,467.8 477.4,457.25 463.35,446.4 456.5,432.6 452.35,424.25 450.7,413.9 449.75,408.05 456.7,400.4 462.75,393.75 467.35,392.4 471.4,391.25 477.45,392.1 484.25,393.05 488.85,396.2 494.75,400.2 509.4,414.1 M542.65,438.2 L533.25,434 Q531.35,428.2 528.2,421.75 521.95,408.8 515.9,405.55 M528.75,471.5 Q528.578,471.098 528.35,470.7" test="Hand2 and Arm Nom the rear"/>
        <path id="Layer6_0_2_STROKES" stroke="#0FF" stroke-width="2" stroke-linejoin="round" stroke-linecap="round" fill="none" d="M560.5,348.3 Q564.31,352.283 568.6,357.2 585.1,376.1 594.7,394.8 602.2,409.4 618.75,440.8 630.55,464.623 633.65,478.425 634.15,479.974 634.45,481.5 635.391,486.108 634.6,490.55 632.4,502.75 617.25,503.05 602.55,503.3 580.6,497.05 562.35,491.8 551.3,486.05 545.1,482.85 534.5,476.85 527.493,472.891 527.075,472.825 527.503,472.275 528.35,470.7 M524.15,392.35 Q528.681,398.629 537,410.95 549.8,430 550.3,432.95 550.75,435.45 550.45,437.3 550.378,437.697 550.325,438.075 554.212,437.486 557.9,437.8 561.45,438.1 571,440.75 581.65,443.75 592.3,447.65 621.35,458.3 628,467.65 631.927,473.139 633.65,478.425 M550.325,438.075 Q550.14,439.525 550.3,440.6 M528.35,470.7 Q530.385,466.949 534.8,457.35 540.35,445.2 542.3,440.25 L546.9,438.75 Q548.633,438.324 550.325,438.075 M345.5,258.65 Q361.25,246.05 381.15,243.65 389.3,242.45 397.55,241.6" test="Hand2 and Arm Nom the rear"/>
      </g>
    </g>
    <g id="BlackMaskRect">
      <path fill="#000" stroke="none" d="M827.6,625.818 L827.6,424.8 -19.45,424.8 -19.45,625.818 827.6,625.818Z" test="BlackMaskRect" stroke-width="1.454"/>
    </g>
  </g>
</svg>