<?xml version="1.0" encoding="utf-8"?>
<svg id="EdithAnim08" image-rendering="inherit" baseProfile="basic" version="1.1" x="0px" y="0px" width="800" height="600" xmlns="http://www.w3.org/2000/svg" xmlns:xlink="http://www.w3.org/1999/xlink">
  <g id="Nom-rear-the-rearf45r1" overflow="visible">
    <g id="Bec-Noms-the-Rearf44r1">
      <path id="Layer2_0_1_STROKES" stroke="#FEB7AE" stroke-width="2" stroke-linejoin="round" stroke-linecap="round" fill="none" d="M509.4,410.25 Q509.2,410.5 509,410.75" test="Bec Noms the Rear_1"/>
      <g id="Nom-Bec-Head">
        <path id="Layer3_0_1_STROKES" stroke="#00F" stroke-width="2" stroke-linejoin="round" stroke-linecap="round" fill="none" d="M386.95,262.2 Q390.85,249.9 396.4,235.15 407.5,205.65 415.95,193.25 428.05,175.5 443.6,161.05 462.8,143.15 480.1,137.7 522.25,124.5 563.05,152.3 589,170 600.6,184.05 615.95,202.65 614.75,223.1 613.6,242.6 603.5,264.8 597.55,277.95 586.3,295.6 579.6,306.15 557.85,337.7 537,367.9 534.6,370.9 532.75,373.15 523.9,367.9 522,366.8 520,365.5 M407.9,258.9 Q412.75,244.6 417.65,231.75 430.2,198.9 437.8,190.45 L448.45,178 Q459.45,165.45 461.4,164.8 463.35,164.15 472.95,170.7 478.4,174.5 490.2,183.15 495.6,187 542.5,220.35 587.05,252.25 589.05,254.65 591.35,257.4 591.2,258.85 591.1,260.15 588.7,262.3 586.7,264.1 563.05,290.25 542.1,313.35 536,320.25 528.8,328.95 524,334.65 521.35,337.85 519.2,340.35" test="Nom Bec Head"/>
        <path id="Layer3_0_2_STROKES" stroke="#FFF" stroke-width="2" stroke-linejoin="round" stroke-linecap="round" fill="none" d="M478.75,189.45 Q495.45,185.6 502.65,201.1 502.85,201.5 503,201.95 M552.3,245 Q552.3,246.45 551.25,247.45 550.25,248.5 548.8,248.5 547.35,248.5 546.3,247.45 545.3,246.45 545.3,245 545.3,243.55 546.3,242.5 547.35,241.5 548.8,241.5 550.25,241.5 551.25,242.5 552.3,243.55 552.3,245Z M544.55,232.45 Q561.7,231.7 565.95,248.25 566.05,248.65 566.15,249.15 M490.55,208.55 Q490.55,210 489.5,211 488.5,212.05 487.05,212.05 485.6,212.05 484.55,211 483.55,210 483.55,208.55 483.55,207.1 484.55,206.05 485.6,205.05 487.05,205.05 488.5,205.05 489.5,206.05 490.55,207.1 490.55,208.55Z M464.85,248.1 Q459.05,254.8 451.775,256.25 451.35,258.533 451.35,260.6 452.5,266.45 455.9,271.25 456.8,272.5 457.725,273.75 457.938,273.997 458.15,274.25 465,282.4 472.15,288 475,290.25 480.05,294.4 484.35,297.9 487.8,299.9 497,305.15 511,306.05 511.469,306.078 511.925,306.1 510.787,299.841 512.5,295.75 514.45,290.9 522.8,282.1 M451.85,255.9 L451.775,256.25 Q450.55,256.5 448.775,256.575 439.8,256.9 431.9,250.2 M511.925,306.1 Q511.984,306.424 512.05,306.75 L512.35,308.05 Q512.9,309.65 514.05,311.3 517.6,316.6 525.6,320.25" test="Nom Bec Head"/>
      </g>
      <g id="Bum-Nom-the-rear">
        <path fill="#000" stroke="none" d="M527.6,331.95 Q527.15,328.15 526.4,324.2 L481.25,341.1 523,383.9 Q525.686,376.159 527.1,368 528,362.65 528.4,357.1 529.25,345.05 527.6,331.95 M424.5,250.25 Q420.322,250.259 416.3,250.5 405.25,251.15 395.35,253.8 364.9,261.9 350.8,287.3 417.6,310.5 417.7,310.6 417.75,310.65 421.1,280.45 424.45,250.25 424.5,250.25Z" test="Bum Nom the rear"/>
        <path id="Layer4_0_1_STROKES" stroke="#FEB7AE" stroke-width="2" stroke-linejoin="round" stroke-linecap="round" fill="none" d="M350.8,287.3 Q364.9,261.9 395.35,253.8 405.25,251.15 416.3,250.5 420.322,250.259 424.5,250.275 429.824,250.324 435.4,250.8 448.286,251.901 460.25,255.575 M526.4,324.2 Q527.15,328.15 527.6,331.95 529.25,345.05 528.4,357.1 528,362.65 527.1,368 525.686,376.159 523.025,383.9 518.228,397.761 509.4,410.25 M517.5,297.275 Q522.391,305.733 524.6,315.3 525.6,319.65 526.4,324.2 M274.3,245.25 Q288.15,244 303.2,245.4 L308.45,245.95 Q330.25,248.75 343.7,257.6 343.8,257.65 343.9,257.7 354.1,264.45 358.4,274.4 M345.55,299 Q347.8,292.7 350.8,287.3 M211.65,424.6 Q204.6,416.7 199.8,410.55 190.95,399.25 185.3,388 168.75,354.85 178.3,319.85 188.2,283.6 219.9,263.5" test="Bum Nom the rear"/>
      </g>
      <g id="Hand-Nom-the-rear">
        <path id="Layer5_0_1_STROKES" stroke="#FFF" stroke-width="2" stroke-linejoin="round" stroke-linecap="round" fill="none" d="M303.25,244.9 Q300.6,242.75 291.75,234.25 284.4,227.2 279.45,223.8 264.05,213.3 247.35,219.9 228.85,227.2 222.95,240.85 219.2,249.55 219.9,263.5 220.1,267.5 220.65,271.95 L222.85,276.85 Q225.9,282.75 229.85,287.6 242.5,303.15 259.85,302.5 278.15,301.8 280.6,279.3 281.5,270.85 279.85,261.35 278.4,252.85 275.8,248 275.05,246.55 274.3,245.25" test="Hand Nom the rear"/>
      </g>
      <g id="Hand2-and-Arm-Nom-the-rear">
        <path id="Layer6_0_1_STROKES" stroke="#FFF" stroke-width="2" stroke-linejoin="round" stroke-linecap="round" fill="none" d="M528.35,466.85 Q527.791,465.877 526.9,464.95 524.45,462.35 521.15,462.8 517.8,463.5 515.1,463.95 510.05,464.85 505.35,464.6 491,463.95 477.4,453.4 463.35,442.55 456.5,428.75 452.35,420.4 450.7,410.05 449.75,404.2 456.7,396.55 462.75,389.9 467.35,388.55 471.4,387.4 477.45,388.25 484.25,389.2 488.85,392.35 494.75,396.35 509.4,410.25 M542.65,434.35 L533.25,430.15 Q531.35,424.35 528.2,417.9 521.95,404.95 515.9,401.7 M528.75,467.65 Q528.578,467.248 528.35,466.85" test="Hand2 and Arm Nom the rear"/>
        <path id="Layer6_0_2_STROKES" stroke="#0FF" stroke-width="2" stroke-linejoin="round" stroke-linecap="round" fill="none" d="M560.5,344.45 Q564.31,348.433 568.6,353.35 585.1,372.25 594.7,390.95 602.2,405.55 618.75,436.95 630.55,460.773 633.65,474.575 634.15,476.124 634.45,477.65 635.391,482.258 634.6,486.7 632.4,498.9 617.25,499.2 602.55,499.45 580.6,493.2 562.35,487.95 551.3,482.2 545.1,479 534.5,473 527.493,469.041 527.075,468.975 527.503,468.425 528.35,466.85 M524.15,388.5 Q528.681,394.779 537,407.1 549.8,426.15 550.3,429.1 550.75,431.6 550.45,433.45 550.378,433.847 550.325,434.225 554.212,433.636 557.9,433.95 561.45,434.25 571,436.9 581.65,439.9 592.3,443.8 621.35,454.45 628,463.8 631.927,469.289 633.65,474.575 M550.325,434.225 Q550.14,435.675 550.3,436.75 M528.35,466.85 Q530.385,463.099 534.8,453.5 540.35,441.35 542.3,436.4 L546.9,434.9 Q548.633,434.474 550.325,434.225 M345.5,254.8 Q361.25,242.2 381.15,239.8 389.3,238.6 397.55,237.75" test="Hand2 and Arm Nom the rear"/>
      </g>
    </g>
    <g id="BlackMaskRect">
      <path fill="#000" stroke="none" d="M827.6,625.818 L827.6,424.8 -19.45,424.8 -19.45,625.818 827.6,625.818Z" test="BlackMaskRect" stroke-width="1.454"/>
    </g>
  </g>
</svg>