<?xml version="1.0" encoding="utf-8"?>
<svg id="EdithAnim08" image-rendering="inherit" baseProfile="basic" version="1.1" x="0px" y="0px" width="800" height="600" xmlns="http://www.w3.org/2000/svg" xmlns:xlink="http://www.w3.org/1999/xlink">
  <g id="Nom-rear-the-rearf47r1" overflow="visible">
    <g id="Bec-Noms-the-Rearf44r1">
      <path id="Layer2_0_1_STROKES" stroke="#FEB7AE" stroke-width="2" stroke-linejoin="round" stroke-linecap="round" fill="none" d="M509.4,403.15 Q509.2,403.4 509,403.65" test="Bec Noms the Rear_2323"/>
      <g id="Nom-Bec-Head">
        <path id="Layer3_0_1_STROKES" stroke="#00F" stroke-width="2" stroke-linejoin="round" stroke-linecap="round" fill="none" d="M386.95,255.1 Q390.85,242.8 396.4,228.05 407.5,198.55 415.95,186.15 428.05,168.4 443.6,153.95 462.8,136.05 480.1,130.6 522.25,117.4 563.05,145.2 589,162.9 600.6,176.95 615.95,195.55 614.75,216 613.6,235.5 603.5,257.7 597.55,270.85 586.3,288.5 579.6,299.05 557.85,330.6 537,360.8 534.6,363.8 532.75,366.05 523.9,360.8 522,359.7 520,358.4 M407.9,251.8 Q412.75,237.5 417.65,224.65 430.2,191.8 437.8,183.35 L448.45,170.9 Q459.45,158.35 461.4,157.7 463.35,157.05 472.95,163.6 478.4,167.4 490.2,176.05 495.6,179.9 542.5,213.25 587.05,245.15 589.05,247.55 591.35,250.3 591.2,251.75 591.1,253.05 588.7,255.2 586.7,257 563.05,283.15 542.1,306.25 536,313.15 528.8,321.85 524,327.55 521.35,330.75 519.2,333.25" test="Nom Bec Head"/>
        <path id="Layer3_0_2_STROKES" stroke="#FFF" stroke-width="2" stroke-linejoin="round" stroke-linecap="round" fill="none" d="M478.75,182.35 Q495.45,178.5 502.65,194 502.85,194.4 503,194.85 M552.3,237.9 Q552.3,239.35 551.25,240.35 550.25,241.4 548.8,241.4 547.35,241.4 546.3,240.35 545.3,239.35 545.3,237.9 545.3,236.45 546.3,235.4 547.35,234.4 548.8,234.4 550.25,234.4 551.25,235.4 552.3,236.45 552.3,237.9Z M544.55,225.35 Q561.7,224.6 565.95,241.15 566.05,241.55 566.15,242.05 M490.55,201.45 Q490.55,202.9 489.5,203.9 488.5,204.95 487.05,204.95 485.6,204.95 484.55,203.9 483.55,202.9 483.55,201.45 483.55,200 484.55,198.95 485.6,197.95 487.05,197.95 488.5,197.95 489.5,198.95 490.55,200 490.55,201.45Z M464.85,241 Q459.05,247.7 451.775,249.15 451.35,251.433 451.35,253.5 452.5,259.35 455.9,264.15 456.8,265.4 457.725,266.65 457.938,266.897 458.15,267.15 465,275.3 472.15,280.9 475,283.15 480.05,287.3 484.35,290.8 487.8,292.8 497,298.05 511,298.95 511.469,298.978 511.925,299 510.787,292.741 512.5,288.65 514.45,283.8 522.8,275 M451.85,248.8 L451.775,249.15 Q450.55,249.4 448.775,249.475 439.8,249.8 431.9,243.1 M511.925,299 Q511.984,299.324 512.05,299.65 L512.35,300.95 Q512.9,302.55 514.05,304.2 517.6,309.5 525.6,313.15" test="Nom Bec Head"/>
      </g>
      <g id="Bum-Nom-the-rear">
        <path fill="#000" stroke="none" d="M527.6,324.85 Q527.15,321.05 526.4,317.1 L481.25,334 523,376.8 Q525.686,369.059 527.1,360.9 528,355.55 528.4,350 529.25,337.95 527.6,324.85 M424.5,243.15 Q420.322,243.159 416.3,243.4 405.25,244.05 395.35,246.7 364.9,254.8 350.8,280.2 417.6,303.4 417.7,303.5 417.75,303.55 421.1,273.35 424.45,243.15 424.5,243.15Z" test="Bum Nom the rear"/>
        <path id="Layer4_0_1_STROKES" stroke="#FEB7AE" stroke-width="2" stroke-linejoin="round" stroke-linecap="round" fill="none" d="M350.8,280.2 Q364.9,254.8 395.35,246.7 405.25,244.05 416.3,243.4 420.322,243.159 424.5,243.175 429.824,243.224 435.4,243.7 448.286,244.801 460.25,248.475 M526.4,317.1 Q527.15,321.05 527.6,324.85 529.25,337.95 528.4,350 528,355.55 527.1,360.9 525.686,369.059 523.025,376.8 518.228,390.661 509.4,403.15 M517.5,290.175 Q522.391,298.633 524.6,308.2 525.6,312.55 526.4,317.1 M274.3,238.15 Q288.15,236.9 303.2,238.3 L308.45,238.85 Q330.25,241.65 343.7,250.5 343.8,250.55 343.9,250.6 354.1,257.35 358.4,267.3 M345.55,291.9 Q347.8,285.6 350.8,280.2 M211.65,417.5 Q204.6,409.6 199.8,403.45 190.95,392.15 185.3,380.9 168.75,347.75 178.3,312.75 188.2,276.5 219.9,256.4" test="Bum Nom the rear"/>
      </g>
      <g id="Hand-Nom-the-rear">
        <path id="Layer5_0_1_STROKES" stroke="#FFF" stroke-width="2" stroke-linejoin="round" stroke-linecap="round" fill="none" d="M303.25,237.8 Q300.6,235.65 291.75,227.15 284.4,220.1 279.45,216.7 264.05,206.2 247.35,212.8 228.85,220.1 222.95,233.75 219.2,242.45 219.9,256.4 220.1,260.4 220.65,264.85 L222.85,269.75 Q225.9,275.65 229.85,280.5 242.5,296.05 259.85,295.4 278.15,294.7 280.6,272.2 281.5,263.75 279.85,254.25 278.4,245.75 275.8,240.9 275.05,239.45 274.3,238.15" test="Hand Nom the rear"/>
      </g>
      <g id="Hand2-and-Arm-Nom-the-rear">
        <path id="Layer6_0_1_STROKES" stroke="#FFF" stroke-width="2" stroke-linejoin="round" stroke-linecap="round" fill="none" d="M528.35,459.75 Q527.791,458.777 526.9,457.85 524.45,455.25 521.15,455.7 517.8,456.4 515.1,456.85 510.05,457.75 505.35,457.5 491,456.85 477.4,446.3 463.35,435.45 456.5,421.65 452.35,413.3 450.7,402.95 449.75,397.1 456.7,389.45 462.75,382.8 467.35,381.45 471.4,380.3 477.45,381.15 484.25,382.1 488.85,385.25 494.75,389.25 509.4,403.15 M542.65,427.25 L533.25,423.05 Q531.35,417.25 528.2,410.8 521.95,397.85 515.9,394.6 M528.75,460.55 Q528.578,460.148 528.35,459.75" test="Hand2 and Arm Nom the rear"/>
        <path id="Layer6_0_2_STROKES" stroke="#0FF" stroke-width="2" stroke-linejoin="round" stroke-linecap="round" fill="none" d="M560.5,337.35 Q564.31,341.333 568.6,346.25 585.1,365.15 594.7,383.85 602.2,398.45 618.75,429.85 630.55,453.673 633.65,467.475 634.15,469.024 634.45,470.55 635.391,475.158 634.6,479.6 632.4,491.8 617.25,492.1 602.55,492.35 580.6,486.1 562.35,480.85 551.3,475.1 545.1,471.9 534.5,465.9 527.493,461.941 527.075,461.875 527.503,461.325 528.35,459.75 M524.15,381.4 Q528.681,387.679 537,400 549.8,419.05 550.3,422 550.75,424.5 550.45,426.35 550.378,426.747 550.325,427.125 554.212,426.536 557.9,426.85 561.45,427.15 571,429.8 581.65,432.8 592.3,436.7 621.35,447.35 628,456.7 631.927,462.189 633.65,467.475 M550.325,427.125 Q550.14,428.575 550.3,429.65 M528.35,459.75 Q530.385,455 534.8,446.4 540.35,434.25 542.3,429.3 L546.9,427.8 Q548.633,427.374 550.325,427.125 M345.5,247.7 Q361.25,235.1 381.15,232.7 389.3,231.5 397.55,230.65" test="Hand2 and Arm Nom the rear"/>
      </g>
    </g>
    <g id="BlackMaskRect">
      <path fill="#000" stroke="none" d="M827.6,625.818 L827.6,424.8 -19.45,424.8 -19.45,625.818 827.6,625.818Z" test="BlackMaskRect" stroke-width="1.454"/>
    </g>
  </g>
</svg>