<?xml version="1.0" encoding="utf-8"?>
<svg id="EdithAnim08" image-rendering="inherit" baseProfile="basic" version="1.1" x="0px" y="0px" width="800" height="600" xmlns="http://www.w3.org/2000/svg" xmlns:xlink="http://www.w3.org/1999/xlink">
  <g id="Nom-rear-the-rearf50r1" overflow="visible">
    <g id="Bec-Noms-the-Rearf44r1">
      <path id="Layer2_0_1_STROKES" stroke="#FEB7AE" stroke-width="2" stroke-linejoin="round" stroke-linecap="round" fill="none" d="M509.4,393.95 Q509.2,394.2 509,394.45" test="Bec Noms the Rear_23242325232423262324232523242326"/>
      <g id="Nom-Bec-Head">
        <path id="Layer3_0_1_STROKES" stroke="#00F" stroke-width="2" stroke-linejoin="round" stroke-linecap="round" fill="none" d="M386.95,245.9 Q390.85,233.6 396.4,218.85 407.5,189.35 415.95,176.95 428.05,159.2 443.6,144.75 462.8,126.85 480.1,121.4 522.25,108.2 563.05,136 589,153.7 600.6,167.75 615.95,186.35 614.75,206.8 613.6,226.3 603.5,248.5 597.55,261.65 586.3,279.3 579.6,289.85 557.85,321.4 537,351.6 534.6,354.6 532.75,356.85 523.9,351.6 522,350.5 520,349.2 M407.9,242.6 Q412.75,228.3 417.65,215.45 430.2,182.6 437.8,174.15 L448.45,161.7 Q459.45,149.15 461.4,148.5 463.35,147.85 472.95,154.4 478.4,158.2 490.2,166.85 495.6,170.7 542.5,204.05 587.05,235.95 589.05,238.35 591.35,241.1 591.2,242.55 591.1,243.85 588.7,246 586.7,247.8 563.05,273.95 542.1,297.05 536,303.95 528.8,312.65 524,318.35 521.35,321.55 519.2,324.05" test="Nom Bec Head"/>
        <path id="Layer3_0_2_STROKES" stroke="#FFF" stroke-width="2" stroke-linejoin="round" stroke-linecap="round" fill="none" d="M478.75,173.15 Q495.45,169.3 502.65,184.8 502.85,185.2 503,185.65 M552.3,228.7 Q552.3,230.15 551.25,231.15 550.25,232.2 548.8,232.2 547.35,232.2 546.3,231.15 545.3,230.15 545.3,228.7 545.3,227.25 546.3,226.2 547.35,225.2 548.8,225.2 550.25,225.2 551.25,226.2 552.3,227.25 552.3,228.7Z M544.55,216.15 Q561.7,215.4 565.95,231.95 566.05,232.35 566.15,232.85 M490.55,192.25 Q490.55,193.7 489.5,194.7 488.5,195.75 487.05,195.75 485.6,195.75 484.55,194.7 483.55,193.7 483.55,192.25 483.55,190.8 484.55,189.75 485.6,188.75 487.05,188.75 488.5,188.75 489.5,189.75 490.55,190.8 490.55,192.25Z M464.85,231.8 Q459.05,238.5 451.775,239.95 451.35,242.233 451.35,244.3 452.5,250.15 455.9,254.95 456.8,256.2 457.725,257.45 457.938,257.697 458.15,257.95 465,266.1 472.15,271.7 475,273.95 480.05,278.1 484.35,281.6 487.8,283.6 497,288.85 511,289.75 511.469,289.778 511.925,289.8 510.787,283.541 512.5,279.45 514.45,274.6 522.8,265.8 M451.85,239.6 L451.775,239.95 Q450.55,240.2 448.775,240.275 439.8,240.6 431.9,233.9 M511.925,289.8 Q511.984,290.124 512.05,290.45 L512.35,291.75 Q512.9,293.35 514.05,295 517.6,300.3 525.6,303.95" test="Nom Bec Head"/>
      </g>
      <g id="Bum-Nom-the-rear">
        <path fill="#000" stroke="none" d="M527.6,315.65 Q527.15,311.85 526.4,307.9 L481.25,324.8 523,367.6 Q525.686,359.859 527.1,351.7 528,346.35 528.4,340.8 529.25,328.75 527.6,315.65 M424.5,233.95 Q420.322,233.959 416.3,234.2 405.25,234.85 395.35,237.5 364.9,245.6 350.8,271 417.6,294.2 417.7,294.3 417.75,294.35 421.1,264.15 424.45,233.95 424.5,233.95Z" test="Bum Nom the rear"/>
        <path id="Layer4_0_1_STROKES" stroke="#FEB7AE" stroke-width="2" stroke-linejoin="round" stroke-linecap="round" fill="none" d="M350.8,271 Q364.9,245.6 395.35,237.5 405.25,234.85 416.3,234.2 420.322,233.959 424.5,233.975 429.824,234.024 435.4,234.5 448.286,235.601 460.25,239.275 M526.4,307.9 Q527.15,311.85 527.6,315.65 529.25,328.75 528.4,340.8 528,346.35 527.1,351.7 525.686,359.859 523.025,367.6 518.228,381.461 509.4,393.95 M517.5,280.975 Q522.391,289.433 524.6,299 525.6,303.35 526.4,307.9 M274.3,228.95 Q288.15,227.7 303.2,229.1 L308.45,229.65 Q330.25,232.45 343.7,241.3 343.8,241.35 343.9,241.4 354.1,248.15 358.4,258.1 M345.55,282.7 Q347.8,276.4 350.8,271 M211.65,408.3 Q204.6,400.4 199.8,394.25 190.95,382.95 185.3,371.7 168.75,338.55 178.3,303.55 188.2,267.3 219.9,247.2" test="Bum Nom the rear"/>
      </g>
      <g id="Hand-Nom-the-rear">
        <path id="Layer5_0_1_STROKES" stroke="#FFF" stroke-width="2" stroke-linejoin="round" stroke-linecap="round" fill="none" d="M303.25,228.6 Q300.6,226.45 291.75,217.95 284.4,210.9 279.45,207.5 264.05,197 247.35,203.6 228.85,210.9 222.95,224.55 219.2,233.25 219.9,247.2 220.1,251.2 220.65,255.65 L222.85,260.55 Q225.9,266.45 229.85,271.3 242.5,286.85 259.85,286.2 278.15,285.5 280.6,263 281.5,254.55 279.85,245.05 278.4,236.55 275.8,231.7 275.05,230.25 274.3,228.95" test="Hand Nom the rear"/>
      </g>
      <g id="Hand2-and-Arm-Nom-the-rear">
        <path id="Layer6_0_1_STROKES" stroke="#FFF" stroke-width="2" stroke-linejoin="round" stroke-linecap="round" fill="none" d="M528.35,450.55 Q527.791,449.577 526.9,448.65 524.45,446.05 521.15,446.5 517.8,447.2 515.1,447.65 510.05,448.55 505.35,448.3 491,447.65 477.4,437.1 463.35,426.25 456.5,412.45 452.35,404.1 450.7,393.75 449.75,387.9 456.7,380.25 462.75,373.6 467.35,372.25 471.4,371.1 477.45,371.95 484.25,372.9 488.85,376.05 494.75,380.05 509.4,393.95 M542.65,418.05 L533.25,413.85 Q531.35,408.05 528.2,401.6 521.95,388.65 515.9,385.4 M528.75,451.35 Q528.578,450.948 528.35,450.55" test="Hand2 and Arm Nom the rear"/>
        <path id="Layer6_0_2_STROKES" stroke="#0FF" stroke-width="2" stroke-linejoin="round" stroke-linecap="round" fill="none" d="M560.5,328.15 Q564.31,332.133 568.6,337.05 585.1,355.95 594.7,374.65 602.2,389.25 618.75,420.65 630.55,444.473 633.65,458.275 634.15,459.824 634.45,461.35 635.391,465.958 634.6,470.4 632.4,482.6 617.25,482.9 602.55,483.15 580.6,476.9 562.35,471.65 551.3,465.9 545.1,462.7 534.5,456.7 527.493,452.741 527.075,452.675 527.503,452.125 528.35,450.55 M524.15,372.2 Q528.681,378.479 537,390.8 549.8,409.85 550.3,412.8 550.75,415.3 550.45,417.15 550.378,417.547 550.325,417.925 554.212,417.336 557.9,417.65 561.45,417.95 571,420.6 581.65,423.6 592.3,427.5 621.35,438.15 628,447.5 631.927,452.989 633.65,458.275 M550.325,417.925 Q550.14,419.375 550.3,420.45 M528.35,450.55 Q530.385,446.799 534.8,437.2 540.35,425.05 542.3,420.1 L546.9,418.6 Q548.633,418.174 550.325,417.925 M345.5,238.5 Q361.25,225.9 381.15,223.5 389.3,222.3 397.55,221.45" test="Hand2 and Arm Nom the rear"/>
      </g>
    </g>
    <g id="BlackMaskRect">
      <path fill="#000" stroke="none" d="M827.6,625.818 L827.6,424.8 -19.45,424.8 -19.45,625.818 827.6,625.818Z" test="BlackMaskRect" stroke-width="1.454"/>
    </g>
  </g>
</svg>