<?xml version="1.0" encoding="utf-8"?>
<svg id="EdithAnim08" image-rendering="inherit" baseProfile="basic" version="1.1" x="0px" y="0px" width="800" height="600" xmlns="http://www.w3.org/2000/svg" xmlns:xlink="http://www.w3.org/1999/xlink">
  <g id="Nom-rear-the-rearf51r1" overflow="visible">
    <g id="Bec-Noms-the-Rearf44r1">
      <path id="Layer2_0_1_STROKES" stroke="#FEB7AE" stroke-width="2" stroke-linejoin="round" stroke-linecap="round" fill="none" d="M509.4,391.3 Q509.2,391.55 509,391.8" test="Bec Noms the Rear_2.3242325232423263e+312.3242325232423263e+31"/>
      <g id="Nom-Bec-Head">
        <path id="Layer3_0_1_STROKES" stroke="#00F" stroke-width="2" stroke-linejoin="round" stroke-linecap="round" fill="none" d="M386.95,243.25 Q390.85,230.95 396.4,216.2 407.5,186.7 415.95,174.3 428.05,156.55 443.6,142.1 462.8,124.2 480.1,118.75 522.25,105.55 563.05,133.35 589,151.05 600.6,165.1 615.95,183.7 614.75,204.15 613.6,223.65 603.5,245.85 597.55,259 586.3,276.65 579.6,287.2 557.85,318.75 537,348.95 534.6,351.95 532.75,354.2 523.9,348.95 522,347.85 520,346.55 M407.9,239.95 Q412.75,225.65 417.65,212.8 430.2,179.95 437.8,171.5 L448.45,159.05 Q459.45,146.5 461.4,145.85 463.35,145.2 472.95,151.75 478.4,155.55 490.2,164.2 495.6,168.05 542.5,201.4 587.05,233.3 589.05,235.7 591.35,238.45 591.2,239.9 591.1,241.2 588.7,243.35 586.7,245.15 563.05,271.3 542.1,294.4 536,301.3 528.8,310 524,315.7 521.35,318.9 519.2,321.4" test="Nom Bec Head"/>
        <path id="Layer3_0_2_STROKES" stroke="#FFF" stroke-width="2" stroke-linejoin="round" stroke-linecap="round" fill="none" d="M478.75,170.5 Q495.45,166.65 502.65,182.15 502.85,182.55 503,183 M552.3,226.05 Q552.3,227.5 551.25,228.5 550.25,229.55 548.8,229.55 547.35,229.55 546.3,228.5 545.3,227.5 545.3,226.05 545.3,224.6 546.3,223.55 547.35,222.55 548.8,222.55 550.25,222.55 551.25,223.55 552.3,224.6 552.3,226.05Z M544.55,213.5 Q561.7,212.75 565.95,229.3 566.05,229.7 566.15,230.2 M490.55,189.6 Q490.55,191.05 489.5,192.05 488.5,193.1 487.05,193.1 485.6,193.1 484.55,192.05 483.55,191.05 483.55,189.6 483.55,188.15 484.55,187.1 485.6,186.1 487.05,186.1 488.5,186.1 489.5,187.1 490.55,188.15 490.55,189.6Z M464.85,229.15 Q459.05,235.85 451.775,237.3 451.35,239.583 451.35,241.65 452.5,247.5 455.9,252.3 456.8,253.55 457.725,254.8 457.938,255.047 458.15,255.3 465,263.45 472.15,269.05 475,271.3 480.05,275.45 484.35,278.95 487.8,280.95 497,286.2 511,287.1 511.469,287.128 511.925,287.15 510.787,280.891 512.5,276.8 514.45,271.95 522.8,263.15 M451.85,236.95 L451.775,237.3 Q450.55,237.55 448.775,237.625 439.8,237.95 431.9,231.25 M511.925,287.15 Q511.984,287.474 512.05,287.8 L512.35,289.1 Q512.9,290.7 514.05,292.35 517.6,297.65 525.6,301.3" test="Nom Bec Head"/>
      </g>
      <g id="Bum-Nom-the-rear">
        <path fill="#000" stroke="none" d="M527.6,313 Q527.15,309.2 526.4,305.25 L481.25,322.15 523,364.95 Q525.686,357.209 527.1,349.05 528,343.7 528.4,338.15 529.25,326.1 527.6,313 M424.5,231.3 Q420.322,231.309 416.3,231.55 405.25,232.2 395.35,234.85 364.9,242.95 350.8,268.35 417.6,291.55 417.7,291.65 417.75,291.7 421.1,261.5 424.45,231.3 424.5,231.3Z" test="Bum Nom the rear"/>
        <path id="Layer4_0_1_STROKES" stroke="#FEB7AE" stroke-width="2" stroke-linejoin="round" stroke-linecap="round" fill="none" d="M350.8,268.35 Q364.9,242.95 395.35,234.85 405.25,232.2 416.3,231.55 420.322,231.309 424.5,231.325 429.824,231.374 435.4,231.85 448.286,232.951 460.25,236.625 M526.4,305.25 Q527.15,309.2 527.6,313 529.25,326.1 528.4,338.15 528,343.7 527.1,349.05 525.686,357.209 523.025,364.95 518.228,378.811 509.4,391.3 M517.5,278.325 Q522.391,286.783 524.6,296.35 525.6,300.7 526.4,305.25 M274.3,226.3 Q288.15,225.05 303.2,226.45 L308.45,227 Q330.25,229.8 343.7,238.65 343.8,238.7 343.9,238.75 354.1,245.5 358.4,255.45 M345.55,280.05 Q347.8,273.75 350.8,268.35 M211.65,405.65 Q204.6,397.75 199.8,391.6 190.95,380.3 185.3,369.05 168.75,335.9 178.3,300.9 188.2,264.65 219.9,244.55" test="Bum Nom the rear"/>
      </g>
      <g id="Hand-Nom-the-rear">
        <path id="Layer5_0_1_STROKES" stroke="#FFF" stroke-width="2" stroke-linejoin="round" stroke-linecap="round" fill="none" d="M303.25,225.95 Q300.6,223.8 291.75,215.3 284.4,208.25 279.45,204.85 264.05,194.35 247.35,200.95 228.85,208.25 222.95,221.9 219.2,230.6 219.9,244.55 220.1,248.55 220.65,253 L222.85,257.9 Q225.9,263.8 229.85,268.65 242.5,284.2 259.85,283.55 278.15,282.85 280.6,260.35 281.5,251.9 279.85,242.4 278.4,233.9 275.8,229.05 275.05,227.6 274.3,226.3" test="Hand Nom the rear"/>
      </g>
      <g id="Hand2-and-Arm-Nom-the-rear">
        <path id="Layer6_0_1_STROKES" stroke="#FFF" stroke-width="2" stroke-linejoin="round" stroke-linecap="round" fill="none" d="M528.35,447.9 Q527.791,446.927 526.9,446 524.45,443.4 521.15,443.85 517.8,444.55 515.1,445 510.05,445.9 505.35,445.65 491,445 477.4,434.45 463.35,423.6 456.5,409.8 452.35,401.45 450.7,391.1 449.75,385.25 456.7,377.6 462.75,370.95 467.35,369.6 471.4,368.45 477.45,369.3 484.25,370.25 488.85,373.4 494.75,377.4 509.4,391.3 M542.65,415.4 L533.25,411.2 Q531.35,405.4 528.2,398.95 521.95,386 515.9,382.75 M528.75,448.7 Q528.578,448.298 528.35,447.9" test="Hand2 and Arm Nom the rear"/>
        <path id="Layer6_0_2_STROKES" stroke="#0FF" stroke-width="2" stroke-linejoin="round" stroke-linecap="round" fill="none" d="M560.5,325.5 Q564.31,329.483 568.6,334.4 585.1,353.3 594.7,372 602.2,386.6 618.75,418 630.55,441.823 633.65,455.625 634.15,457.174 634.45,458.7 635.391,463.308 634.6,467.75 632.4,479.95 617.25,480.25 602.55,480.5 580.6,474.25 562.35,469 551.3,463.25 545.1,460.05 534.5,454.05 527.493,450.091 527.075,450.025 527.503,449.475 528.35,447.9 M524.15,369.55 Q528.681,375.829 537,388.15 549.8,407.2 550.3,410.15 550.75,412.65 550.45,414.5 550.378,414.897 550.325,415.275 554.212,414.686 557.9,415 561.45,415.3 571,417.95 581.65,420.95 592.3,424.85 621.35,435.5 628,444.85 631.927,450.339 633.65,455.625 M550.325,415.275 Q550.14,416.725 550.3,417.8 M528.35,447.9 Q530.385,444.149 534.8,434.55 540.35,422.4 542.3,417.45 L546.9,415.95 Q548.633,415.524 550.325,415.275 M345.5,235.85 Q361.25,223.25 381.15,220.85 389.3,219.65 397.55,218.8" test="Hand2 and Arm Nom the rear"/>
      </g>
    </g>
    <g id="BlackMaskRect">
      <path fill="#000" stroke="none" d="M827.6,625.818 L827.6,424.8 -19.45,424.8 -19.45,625.818 827.6,625.818Z" test="BlackMaskRect" stroke-width="1.454"/>
    </g>
  </g>
</svg>