<?xml version="1.0" encoding="utf-8"?>
<svg id="EdithAnim08" image-rendering="inherit" baseProfile="basic" version="1.1" x="0px" y="0px" width="800" height="600" xmlns="http://www.w3.org/2000/svg" xmlns:xlink="http://www.w3.org/1999/xlink">
  <g id="Nom-rear-the-rearf52r1" overflow="visible">
    <g id="Bec-Noms-the-Rearf44r1">
      <path id="Layer2_0_1_STROKES" stroke="#FEB7AE" stroke-width="2" stroke-linejoin="round" stroke-linecap="round" fill="none" d="M509.4,388.8 Q509.2,389.05 509,389.3" test="Bec Noms the Rear_2.3242325232423263e+312.3242325232423263e+31_1"/>
      <g id="Nom-Bec-Head">
        <path id="Layer3_0_1_STROKES" stroke="#00F" stroke-width="2" stroke-linejoin="round" stroke-linecap="round" fill="none" d="M386.95,240.75 Q390.85,228.45 396.4,213.7 407.5,184.2 415.95,171.8 428.05,154.05 443.6,139.6 462.8,121.7 480.1,116.25 522.25,103.05 563.05,130.85 589,148.55 600.6,162.6 615.95,181.2 614.75,201.65 613.6,221.15 603.5,243.35 597.55,256.5 586.3,274.15 579.6,284.7 557.85,316.25 537,346.45 534.6,349.45 532.75,351.7 523.9,346.45 522,345.35 520,344.05 M407.9,237.45 Q412.75,223.15 417.65,210.3 430.2,177.45 437.8,169 L448.45,156.55 Q459.45,144 461.4,143.35 463.35,142.7 472.95,149.25 478.4,153.05 490.2,161.7 495.6,165.55 542.5,198.9 587.05,230.8 589.05,233.2 591.35,235.95 591.2,237.4 591.1,238.7 588.7,240.85 586.7,242.65 563.05,268.8 542.1,291.9 536,298.8 528.8,307.5 524,313.2 521.35,316.4 519.2,318.9" test="Nom Bec Head"/>
        <path id="Layer3_0_2_STROKES" stroke="#FFF" stroke-width="2" stroke-linejoin="round" stroke-linecap="round" fill="none" d="M478.75,168 Q495.45,164.15 502.65,179.65 502.85,180.05 503,180.5 M552.3,223.55 Q552.3,225 551.25,226 550.25,227.05 548.8,227.05 547.35,227.05 546.3,226 545.3,225 545.3,223.55 545.3,222.1 546.3,221.05 547.35,220.05 548.8,220.05 550.25,220.05 551.25,221.05 552.3,222.1 552.3,223.55Z M544.55,211 Q561.7,210.25 565.95,226.8 566.05,227.2 566.15,227.7 M490.55,187.1 Q490.55,188.55 489.5,189.55 488.5,190.6 487.05,190.6 485.6,190.6 484.55,189.55 483.55,188.55 483.55,187.1 483.55,185.65 484.55,184.6 485.6,183.6 487.05,183.6 488.5,183.6 489.5,184.6 490.55,185.65 490.55,187.1Z M464.85,226.65 Q459.05,233.35 451.775,234.8 451.35,237.083 451.35,239.15 452.5,245 455.9,249.8 456.8,251.05 457.725,252.3 457.938,252.547 458.15,252.8 465,260.95 472.15,266.55 475,268.8 480.05,272.95 484.35,276.45 487.8,278.45 497,283.7 511,284.6 511.469,284.628 511.925,284.65 510.787,278.391 512.5,274.3 514.45,269.45 522.8,260.65 M451.85,234.45 L451.775,234.8 Q450.55,235.05 448.775,235.125 439.8,235.45 431.9,228.75 M511.925,284.65 Q511.984,284.974 512.05,285.3 L512.35,286.6 Q512.9,288.2 514.05,289.85 517.6,295.15 525.6,298.8" test="Nom Bec Head"/>
      </g>
      <g id="Bum-Nom-the-rear">
        <path fill="#000" stroke="none" d="M527.6,310.5 Q527.15,306.7 526.4,302.75 L481.25,319.65 523,362.45 Q525.686,354.709 527.1,346.55 528,341.2 528.4,335.65 529.25,323.6 527.6,310.5 M424.5,228.8 Q420.322,228.809 416.3,229.05 405.25,229.7 395.35,232.35 364.9,240.45 350.8,265.85 417.6,289.05 417.7,289.15 417.75,289.2 421.1,259 424.45,228.8 424.5,228.8Z" test="Bum Nom the rear"/>
        <path id="Layer4_0_1_STROKES" stroke="#FEB7AE" stroke-width="2" stroke-linejoin="round" stroke-linecap="round" fill="none" d="M350.8,265.85 Q364.9,240.45 395.35,232.35 405.25,229.7 416.3,229.05 420.322,228.809 424.5,228.825 429.824,228.874 435.4,229.35 448.286,230.451 460.25,234.125 M526.4,302.75 Q527.15,306.7 527.6,310.5 529.25,323.6 528.4,335.65 528,341.2 527.1,346.55 525.686,354.709 523.025,362.45 518.228,376.311 509.4,388.8 M517.5,275.825 Q522.391,284.283 524.6,293.85 525.6,298.2 526.4,302.75 M274.3,223.8 Q288.15,222.55 303.2,223.95 L308.45,224.5 Q330.25,227.3 343.7,236.15 343.8,236.2 343.9,236.25 354.1,243 358.4,252.95 M345.55,277.55 Q347.8,271.25 350.8,265.85 M211.65,403.15 Q204.6,395.25 199.8,389.1 190.95,377.8 185.3,366.55 168.75,333.4 178.3,298.4 188.2,262.15 219.9,242.05" test="Bum Nom the rear"/>
      </g>
      <g id="Hand-Nom-the-rear">
        <path id="Layer5_0_1_STROKES" stroke="#FFF" stroke-width="2" stroke-linejoin="round" stroke-linecap="round" fill="none" d="M303.25,223.45 Q300.6,221.3 291.75,212.8 284.4,205.75 279.45,202.35 264.05,191.85 247.35,198.45 228.85,205.75 222.95,219.4 219.2,228.1 219.9,242.05 220.1,246.05 220.65,250.5 L222.85,255.4 Q225.9,261.3 229.85,266.15 242.5,281.7 259.85,281.05 278.15,280.35 280.6,257.85 281.5,249.4 279.85,239.9 278.4,231.4 275.8,226.55 275.05,225.1 274.3,223.8" test="Hand Nom the rear"/>
      </g>
      <g id="Hand2-and-Arm-Nom-the-rear">
        <path id="Layer6_0_1_STROKES" stroke="#FFF" stroke-width="2" stroke-linejoin="round" stroke-linecap="round" fill="none" d="M528.35,445.4 Q527.791,444.427 526.9,443.5 524.45,440.9 521.15,441.35 517.8,442.05 515.1,442.5 510.05,443.4 505.35,443.15 491,442.5 477.4,431.95 463.35,421.1 456.5,407.3 452.35,398.95 450.7,388.6 449.75,382.75 456.7,375.1 462.75,368.45 467.35,367.1 471.4,365.95 477.45,366.8 484.25,367.75 488.85,370.9 494.75,374.9 509.4,388.8 M542.65,412.9 L533.25,408.7 Q531.35,402.9 528.2,396.45 521.95,383.5 515.9,380.25 M528.75,446.2 Q528.578,445.798 528.35,445.4" test="Hand2 and Arm Nom the rear"/>
        <path id="Layer6_0_2_STROKES" stroke="#0FF" stroke-width="2" stroke-linejoin="round" stroke-linecap="round" fill="none" d="M560.5,323 Q564.31,326.983 568.6,331.9 585.1,350.8 594.7,369.5 602.2,384.1 618.75,415.5 630.55,439.323 633.65,453.125 634.15,454.674 634.45,456.2 635.391,460.808 634.6,465.25 632.4,477.45 617.25,477.75 602.55,478 580.6,471.75 562.35,466.5 551.3,460.75 545.1,457.55 534.5,451.55 527.493,447.591 527.075,447.525 527.503,446.975 528.35,445.4 M524.15,367.05 Q528.681,373.329 537,385.65 549.8,404.7 550.3,407.65 550.75,410.15 550.45,412 550.378,412.397 550.325,412.775 554.212,412.186 557.9,412.5 561.45,412.8 571,415.45 581.65,418.45 592.3,422.35 621.35,433 628,442.35 631.927,447.839 633.65,453.125 M550.325,412.775 Q550.14,414.225 550.3,415.3 M528.35,445.4 Q530.385,441.649 534.8,432.05 540.35,419.9 542.3,414.95 L546.9,413.45 Q548.633,413.024 550.325,412.775 M345.5,233.35 Q361.25,220.75 381.15,218.35 389.3,217.15 397.55,216.3" test="Hand2 and Arm Nom the rear"/>
      </g>
    </g>
    <g id="BlackMaskRect">
      <path fill="#000" stroke="none" d="M827.6,625.818 L827.6,424.8 -19.45,424.8 -19.45,625.818 827.6,625.818Z" test="BlackMaskRect" stroke-width="1.454"/>
    </g>
  </g>
</svg>