<?xml version="1.0" encoding="utf-8"?>
<svg id="EdithAnim08" image-rendering="inherit" baseProfile="basic" version="1.1" x="0px" y="0px" width="800" height="600" xmlns="http://www.w3.org/2000/svg" xmlns:xlink="http://www.w3.org/1999/xlink">
  <g id="Nom-rear-the-rearf54r1" overflow="visible">
    <g id="Bec-Noms-the-Rearf44r1">
      <path id="Layer2_0_1_STROKES" stroke="#FEB7AE" stroke-width="2" stroke-linejoin="round" stroke-linecap="round" fill="none" d="M509.4,384.35 Q509.2,384.6 509,384.85" test="Bec Noms the Rear_2.3242325232423263e+312.3242325232423263e+31_2323"/>
      <g id="Nom-Bec-Head">
        <path id="Layer3_0_1_STROKES" stroke="#00F" stroke-width="2" stroke-linejoin="round" stroke-linecap="round" fill="none" d="M386.95,236.3 Q390.85,224 396.4,209.25 407.5,179.75 415.95,167.35 428.05,149.6 443.6,135.15 462.8,117.25 480.1,111.8 522.25,98.6 563.05,126.4 589,144.1 600.6,158.15 615.95,176.75 614.75,197.2 613.6,216.7 603.5,238.9 597.55,252.05 586.3,269.7 579.6,280.25 557.85,311.8 537,342 534.6,345 532.75,347.25 523.9,342 522,340.9 520,339.6 M407.9,233 Q412.75,218.7 417.65,205.85 430.2,173 437.8,164.55 L448.45,152.1 Q459.45,139.55 461.4,138.9 463.35,138.25 472.95,144.8 478.4,148.6 490.2,157.25 495.6,161.1 542.5,194.45 587.05,226.35 589.05,228.75 591.35,231.5 591.2,232.95 591.1,234.25 588.7,236.4 586.7,238.2 563.05,264.35 542.1,287.45 536,294.35 528.8,303.05 524,308.75 521.35,311.95 519.2,314.45" test="Nom Bec Head"/>
        <path id="Layer3_0_2_STROKES" stroke="#FFF" stroke-width="2" stroke-linejoin="round" stroke-linecap="round" fill="none" d="M478.75,163.55 Q495.45,159.7 502.65,175.2 502.85,175.6 503,176.05 M552.3,219.1 Q552.3,220.55 551.25,221.55 550.25,222.6 548.8,222.6 547.35,222.6 546.3,221.55 545.3,220.55 545.3,219.1 545.3,217.65 546.3,216.6 547.35,215.6 548.8,215.6 550.25,215.6 551.25,216.6 552.3,217.65 552.3,219.1Z M544.55,206.55 Q561.7,205.8 565.95,222.35 566.05,222.75 566.15,223.25 M490.55,182.65 Q490.55,184.1 489.5,185.1 488.5,186.15 487.05,186.15 485.6,186.15 484.55,185.1 483.55,184.1 483.55,182.65 483.55,181.2 484.55,180.15 485.6,179.15 487.05,179.15 488.5,179.15 489.5,180.15 490.55,181.2 490.55,182.65Z M464.85,222.2 Q459.05,228.9 451.775,230.35 451.35,232.633 451.35,234.7 452.5,240.55 455.9,245.35 456.8,246.6 457.725,247.85 457.938,248.097 458.15,248.35 465,256.5 472.15,262.1 475,264.35 480.05,268.5 484.35,272 487.8,274 497,279.25 511,280.15 511.469,280.178 511.925,280.2 510.787,273.941 512.5,269.85 514.45,265 522.8,256.2 M451.85,230 L451.775,230.35 Q450.55,230.6 448.775,230.675 439.8,231 431.9,224.3 M511.925,280.2 Q511.984,280.524 512.05,280.85 L512.35,282.15 Q512.9,283.75 514.05,285.4 517.6,290.7 525.6,294.35" test="Nom Bec Head"/>
      </g>
      <g id="Bum-Nom-the-rear">
        <path fill="#000" stroke="none" d="M527.6,306.05 Q527.15,302.25 526.4,298.3 L481.25,315.2 523,358 Q525.686,350.259 527.1,342.1 528,336.75 528.4,331.2 529.25,319.15 527.6,306.05 M424.5,224.35 Q420.322,224.359 416.3,224.6 405.25,225.25 395.35,227.9 364.9,236 350.8,261.4 417.6,284.6 417.7,284.7 417.75,284.75 421.1,254.55 424.45,224.35 424.5,224.35Z" test="Bum Nom the rear"/>
        <path id="Layer4_0_1_STROKES" stroke="#FEB7AE" stroke-width="2" stroke-linejoin="round" stroke-linecap="round" fill="none" d="M350.8,261.4 Q364.9,236 395.35,227.9 405.25,225.25 416.3,224.6 420.322,224.359 424.5,224.375 429.824,224.424 435.4,224.9 448.286,226.001 460.25,229.675 M526.4,298.3 Q527.15,302.25 527.6,306.05 529.25,319.15 528.4,331.2 528,336.75 527.1,342.1 525.686,350.259 523.025,358 518.228,371.861 509.4,384.35 M517.5,271.375 Q522.391,279.833 524.6,289.4 525.6,293.75 526.4,298.3 M274.3,219.35 Q288.15,218.1 303.2,219.5 L308.45,220.05 Q330.25,222.85 343.7,231.7 343.8,231.75 343.9,231.8 354.1,238.55 358.4,248.5 M345.55,273.1 Q347.8,266.8 350.8,261.4 M211.65,398.7 Q204.6,390.8 199.8,384.65 190.95,373.35 185.3,362.1 168.75,328.95 178.3,293.95 188.2,257.7 219.9,237.6" test="Bum Nom the rear"/>
      </g>
      <g id="Hand-Nom-the-rear">
        <path id="Layer5_0_1_STROKES" stroke="#FFF" stroke-width="2" stroke-linejoin="round" stroke-linecap="round" fill="none" d="M303.25,219 Q300.6,216.85 291.75,208.35 284.4,201.3 279.45,197.9 264.05,187.4 247.35,194 228.85,201.3 222.95,214.95 219.2,223.65 219.9,237.6 220.1,241.6 220.65,246.05 L222.85,250.95 Q225.9,256.85 229.85,261.7 242.5,277.25 259.85,276.6 278.15,275.9 280.6,253.4 281.5,244.95 279.85,235.45 278.4,226.95 275.8,222.1 275.05,220.65 274.3,219.35" test="Hand Nom the rear"/>
      </g>
      <g id="Hand2-and-Arm-Nom-the-rear">
        <path id="Layer6_0_1_STROKES" stroke="#FFF" stroke-width="2" stroke-linejoin="round" stroke-linecap="round" fill="none" d="M528.35,440.95 Q527.791,439.977 526.9,439.05 524.45,436.45 521.15,436.9 517.8,437.6 515.1,438.05 510.05,438.95 505.35,438.7 491,438.05 477.4,427.5 463.35,416.65 456.5,402.85 452.35,394.5 450.7,384.15 449.75,378.3 456.7,370.65 462.75,364 467.35,362.65 471.4,361.5 477.45,362.35 484.25,363.3 488.85,366.45 494.75,370.45 509.4,384.35 M542.65,408.45 L533.25,404.25 Q531.35,398.45 528.2,392 521.95,379.05 515.9,375.8 M528.75,441.75 Q528.578,441.348 528.35,440.95" test="Hand2 and Arm Nom the rear"/>
        <path id="Layer6_0_2_STROKES" stroke="#0FF" stroke-width="2" stroke-linejoin="round" stroke-linecap="round" fill="none" d="M560.5,318.55 Q564.31,322.533 568.6,327.45 585.1,346.35 594.7,365.05 602.2,379.65 618.75,411.05 630.55,434.873 633.65,448.675 634.15,450.224 634.45,451.75 635.391,456.358 634.6,460.8 632.4,473 617.25,473.3 602.55,473.55 580.6,467.3 562.35,462.05 551.3,456.3 545.1,453.1 534.5,447.1 527.493,443.141 527.075,443.075 527.503,442.525 528.35,440.95 M524.15,362.6 Q528.681,368.879 537,381.2 549.8,400.25 550.3,403.2 550.75,405.7 550.45,407.55 550.378,407.947 550.325,408.325 554.212,407.736 557.9,408.05 561.45,408.35 571,411 581.65,414 592.3,417.9 621.35,428.55 628,437.9 631.927,443.389 633.65,448.675 M550.325,408.325 Q550.14,409.775 550.3,410.85 M528.35,440.95 Q530.385,437.199 534.8,427.6 540.35,415.45 542.3,410.5 L546.9,409 Q548.633,408.574 550.325,408.325 M345.5,228.9 Q361.25,216.3 381.15,213.9 389.3,212.7 397.55,211.85" test="Hand2 and Arm Nom the rear"/>
      </g>
    </g>
    <g id="BlackMaskRect">
      <path fill="#000" stroke="none" d="M827.6,625.818 L827.6,424.8 -19.45,424.8 -19.45,625.818 827.6,625.818Z" test="BlackMaskRect" stroke-width="1.454"/>
    </g>
  </g>
</svg>