<?xml version="1.0" encoding="utf-8"?>
<svg id="EdithAnim08" image-rendering="inherit" baseProfile="basic" version="1.1" x="0px" y="0px" width="800" height="600" xmlns="http://www.w3.org/2000/svg" xmlns:xlink="http://www.w3.org/1999/xlink">
  <g id="Nom-rear-the-rearf57r1" overflow="visible">
    <g id="Bec-Noms-the-Rearf44r1">
      <path id="Layer2_0_1_STROKES" stroke="#FEB7AE" stroke-width="2" stroke-linejoin="round" stroke-linecap="round" fill="none" d="M509.4,379.15 Q509.2,379.4 509,379.65" test="Bec Noms the Rear_2.3242325232423263e+312.3242325232423263e+31_23242325232423262324232523242326"/>
      <g id="Nom-Bec-Head">
        <path id="Layer3_0_1_STROKES" stroke="#00F" stroke-width="2" stroke-linejoin="round" stroke-linecap="round" fill="none" d="M386.95,231.1 Q390.85,218.8 396.4,204.05 407.5,174.55 415.95,162.15 428.05,144.4 443.6,129.95 462.8,112.05 480.1,106.6 522.25,93.4 563.05,121.2 589,138.9 600.6,152.95 615.95,171.55 614.75,192 613.6,211.5 603.5,233.7 597.55,246.85 586.3,264.5 579.6,275.05 557.85,306.6 537,336.8 534.6,339.8 532.75,342.05 523.9,336.8 522,335.7 520,334.4 M407.9,227.8 Q412.75,213.5 417.65,200.65 430.2,167.8 437.8,159.35 L448.45,146.9 Q459.45,134.35 461.4,133.7 463.35,133.05 472.95,139.6 478.4,143.4 490.2,152.05 495.6,155.9 542.5,189.25 587.05,221.15 589.05,223.55 591.35,226.3 591.2,227.75 591.1,229.05 588.7,231.2 586.7,233 563.05,259.15 542.1,282.25 536,289.15 528.8,297.85 524,303.55 521.35,306.75 519.2,309.25" test="Nom Bec Head"/>
        <path id="Layer3_0_2_STROKES" stroke="#FFF" stroke-width="2" stroke-linejoin="round" stroke-linecap="round" fill="none" d="M478.75,158.35 Q495.45,154.5 502.65,170 502.85,170.4 503,170.85 M552.3,213.9 Q552.3,215.35 551.25,216.35 550.25,217.4 548.8,217.4 547.35,217.4 546.3,216.35 545.3,215.35 545.3,213.9 545.3,212.45 546.3,211.4 547.35,210.4 548.8,210.4 550.25,210.4 551.25,211.4 552.3,212.45 552.3,213.9Z M544.55,201.35 Q561.7,200.6 565.95,217.15 566.05,217.55 566.15,218.05 M490.55,177.45 Q490.55,178.9 489.5,179.9 488.5,180.95 487.05,180.95 485.6,180.95 484.55,179.9 483.55,178.9 483.55,177.45 483.55,176 484.55,174.95 485.6,173.95 487.05,173.95 488.5,173.95 489.5,174.95 490.55,176 490.55,177.45Z M464.85,217 Q459.05,223.7 451.775,225.15 451.35,227.433 451.35,229.5 452.5,235.35 455.9,240.15 456.8,241.4 457.725,242.65 457.938,242.897 458.15,243.15 465,251.3 472.15,256.9 475,259.15 480.05,263.3 484.35,266.8 487.8,268.8 497,274.05 511,274.95 511.469,274.978 511.925,275 510.787,268.741 512.5,264.65 514.45,259.8 522.8,251 M451.85,224.8 L451.775,225.15 Q450.55,225.4 448.775,225.475 439.8,225.8 431.9,219.1 M511.925,275 Q511.984,275.324 512.05,275.65 L512.35,276.95 Q512.9,278.55 514.05,280.2 517.6,285.5 525.6,289.15" test="Nom Bec Head"/>
      </g>
      <g id="Bum-Nom-the-rear">
        <path fill="#000" stroke="none" d="M527.6,300.85 Q527.15,297.05 526.4,293.1 L481.25,310 523,352.8 Q525.686,345.059 527.1,336.9 528,331.55 528.4,326 529.25,313.95 527.6,300.85 M424.5,219.15 Q420.322,219.159 416.3,219.4 405.25,220.05 395.35,222.7 364.9,230.8 350.8,256.2 417.6,279.4 417.7,279.5 417.75,279.55 421.1,249.35 424.45,219.15 424.5,219.15Z" test="Bum Nom the rear"/>
        <path id="Layer4_0_1_STROKES" stroke="#FEB7AE" stroke-width="2" stroke-linejoin="round" stroke-linecap="round" fill="none" d="M350.8,256.2 Q364.9,230.8 395.35,222.7 405.25,220.05 416.3,219.4 420.322,219.159 424.5,219.175 429.824,219.224 435.4,219.7 448.286,220.801 460.25,224.475 M526.4,293.1 Q527.15,297.05 527.6,300.85 529.25,313.95 528.4,326 528,331.55 527.1,336.9 525.686,345.059 523.025,352.8 518.228,366.661 509.4,379.15 M517.5,266.175 Q522.391,274.633 524.6,284.2 525.6,288.55 526.4,293.1 M274.3,214.15 Q288.15,212.9 303.2,214.3 L308.45,214.85 Q330.25,217.65 343.7,226.5 343.8,226.55 343.9,226.6 354.1,233.35 358.4,243.3 M345.55,267.9 Q347.8,261.6 350.8,256.2 M211.65,393.5 Q204.6,385.6 199.8,379.45 190.95,368.15 185.3,356.9 168.75,323.75 178.3,288.75 188.2,252.5 219.9,232.4" test="Bum Nom the rear"/>
      </g>
      <g id="Hand-Nom-the-rear">
        <path id="Layer5_0_1_STROKES" stroke="#FFF" stroke-width="2" stroke-linejoin="round" stroke-linecap="round" fill="none" d="M303.25,213.8 Q300.6,211.65 291.75,203.15 284.4,196.1 279.45,192.7 264.05,182.2 247.35,188.8 228.85,196.1 222.95,209.75 219.2,218.45 219.9,232.4 220.1,236.4 220.65,240.85 L222.85,245.75 Q225.9,251.65 229.85,256.5 242.5,272.05 259.85,271.4 278.15,270.7 280.6,248.2 281.5,239.75 279.85,230.25 278.4,221.75 275.8,216.9 275.05,215.45 274.3,214.15" test="Hand Nom the rear"/>
      </g>
      <g id="Hand2-and-Arm-Nom-the-rear">
        <path id="Layer6_0_1_STROKES" stroke="#FFF" stroke-width="2" stroke-linejoin="round" stroke-linecap="round" fill="none" d="M528.35,435.75 Q527.791,434.777 526.9,433.85 524.45,431.25 521.15,431.7 517.8,432.4 515.1,432.85 510.05,433.75 505.35,433.5 491,432.85 477.4,422.3 463.35,411.45 456.5,397.65 452.35,389.3 450.7,378.95 449.75,373.1 456.7,365.45 462.75,358.8 467.35,357.45 471.4,356.3 477.45,357.15 484.25,358.1 488.85,361.25 494.75,365.25 509.4,379.15 M542.65,403.25 L533.25,399.05 Q531.35,393.25 528.2,386.8 521.95,373.85 515.9,370.6 M528.75,436.55 Q528.578,436.148 528.35,435.75" test="Hand2 and Arm Nom the rear"/>
        <path id="Layer6_0_2_STROKES" stroke="#0FF" stroke-width="2" stroke-linejoin="round" stroke-linecap="round" fill="none" d="M560.5,313.35 Q564.31,317.333 568.6,322.25 585.1,341.15 594.7,359.85 602.2,374.45 618.75,405.85 630.55,429.673 633.65,443.475 634.15,445.024 634.45,446.55 635.391,451.158 634.6,455.6 632.4,467.8 617.25,468.1 602.55,468.35 580.6,462.1 562.35,456.85 551.3,451.1 545.1,447.9 534.5,441.9 527.493,437.941 527.075,437.875 527.503,437.325 528.35,435.75 M524.15,357.4 Q528.681,363.679 537,376 549.8,395.05 550.3,398 550.75,400.5 550.45,402.35 550.378,402.747 550.325,403.125 554.212,402.536 557.9,402.85 561.45,403.15 571,405.8 581.65,408.8 592.3,412.7 621.35,423.35 628,432.7 631.927,438.189 633.65,443.475 M550.325,403.125 Q550.14,404.575 550.3,405.65 M528.35,435.75 Q530.385,431 534.8,422.4 540.35,410.25 542.3,405.3 L546.9,403.8 Q548.633,403.374 550.325,403.125 M345.5,223.7 Q361.25,211.1 381.15,208.7 389.3,207.5 397.55,206.65" test="Hand2 and Arm Nom the rear"/>
      </g>
    </g>
    <g id="BlackMaskRect">
      <path fill="#000" stroke="none" d="M827.6,625.818 L827.6,424.8 -19.45,424.8 -19.45,625.818 827.6,625.818Z" test="BlackMaskRect" stroke-width="1.454"/>
    </g>
  </g>
</svg>