<?xml version="1.0" encoding="utf-8"?>
<svg id="EdithAnim08" image-rendering="inherit" baseProfile="basic" version="1.1" x="0px" y="0px" width="800" height="600" xmlns="http://www.w3.org/2000/svg" xmlns:xlink="http://www.w3.org/1999/xlink">
  <g id="Nom-rear-the-rearf6r1" overflow="visible">
    <g id="Bec-Noms-the-Rearf0r1">
      <path id="Layer2_0_1_STROKES" stroke="#FEB7AE" stroke-width="2" stroke-linejoin="round" stroke-linecap="round" fill="none" d="M509.4,700.45 Q509.2,700.7 509,700.95" test="Bec Noms the Rear_23242325232423262324232523242326"/>
      <g id="Bum-Nom-the-rear">
        <path fill="#000" stroke="none" d="M527.6,622.15 Q527.15,618.35 526.4,614.4 L481.25,631.3 523,674.1 Q525.686,666.359 527.1,658.2 528,652.85 528.4,647.3 529.25,635.25 527.6,622.15 M424.5,540.45 Q420.322,540.459 416.3,540.7 405.25,541.35 395.35,544 364.9,552.1 350.8,577.5 417.6,600.7 417.7,600.8 417.75,600.85 421.1,570.65 424.45,540.45 424.5,540.45Z" test="Bum Nom the rear"/>
        <path id="Layer3_0_1_STROKES" stroke="#FEB7AE" stroke-width="2" stroke-linejoin="round" stroke-linecap="round" fill="none" d="M350.8,577.5 Q364.9,552.1 395.35,544 405.25,541.35 416.3,540.7 420.322,540.459 424.5,540.475 429.824,540.524 435.4,541 448.286,542.101 460.25,545.775 M526.4,614.4 Q527.15,618.35 527.6,622.15 529.25,635.25 528.4,647.3 528,652.85 527.1,658.2 525.686,666.359 523.025,674.1 518.228,687.961 509.4,700.45 M517.5,587.475 Q522.391,595.933 524.6,605.5 525.6,609.85 526.4,614.4 M274.3,535.45 Q288.15,534.2 303.2,535.6 L308.45,536.15 Q330.25,538.95 343.7,547.8 343.8,547.85 343.9,547.9 354.1,554.65 358.4,564.6 M345.55,589.2 Q347.8,582.9 350.8,577.5 M211.65,714.8 Q204.6,706.9 199.8,700.75 190.95,689.45 185.3,678.2 168.75,645.05 178.3,610.05 188.2,573.8 219.9,553.7" test="Bum Nom the rear"/>
      </g>
      <g id="Hand-Nom-the-rear">
        <path id="Layer4_0_1_STROKES" stroke="#FFF" stroke-width="2" stroke-linejoin="round" stroke-linecap="round" fill="none" d="M303.25,535.1 Q300.6,532.95 291.75,524.45 284.4,517.4 279.45,514 264.05,503.5 247.35,510.1 228.85,517.4 222.95,531.05 219.2,539.75 219.9,553.7 220.1,557.7 220.65,562.15 L222.85,567.05 Q225.9,572.95 229.85,577.8 242.5,593.35 259.85,592.7 278.15,592 280.6,569.5 281.5,561.05 279.85,551.55 278.4,543.05 275.8,538.2 275.05,536.75 274.3,535.45" test="Hand Nom the rear"/>
      </g>
      <g id="Hand2-and-Arm-Nom-the-rear">
        <path id="Layer5_0_1_STROKES" stroke="#FFF" stroke-width="2" stroke-linejoin="round" stroke-linecap="round" fill="none" d="M528.35,757.05 Q527.791,756.077 526.9,755.15 524.45,752.55 521.15,753 517.8,753.7 515.1,754.15 510.05,755.05 505.35,754.8 491,754.15 477.4,743.6 463.35,732.75 456.5,718.95 452.35,710.6 450.7,700.25 449.75,694.4 456.7,686.75 462.75,680.1 467.35,678.75 471.4,677.6 477.45,678.45 484.25,679.4 488.85,682.55 494.75,686.55 509.4,700.45 M542.65,724.55 L533.25,720.35 Q531.35,714.55 528.2,708.1 521.95,695.15 515.9,691.9 M528.75,757.85 Q528.578,757.448 528.35,757.05" test="Hand2 and Arm Nom the rear"/>
        <path id="Layer5_0_2_STROKES" stroke="#0FF" stroke-width="2" stroke-linejoin="round" stroke-linecap="round" fill="none" d="M560.5,634.65 Q564.31,638.633 568.6,643.55 585.1,662.45 594.7,681.15 602.2,695.75 618.75,727.15 630.55,750.973 633.65,764.775 634.15,766.324 634.45,767.85 635.391,772.458 634.6,776.9 632.4,789.1 617.25,789.4 602.55,789.65 580.6,783.4 562.35,778.15 551.3,772.4 545.1,769.2 534.5,763.2 527.493,759.241 527.075,759.175 527.503,758.625 528.35,757.05 M524.15,678.7 Q528.681,684.979 537,697.3 549.8,716.35 550.3,719.3 550.75,721.8 550.45,723.65 550.378,724.047 550.325,724.425 554.212,723.836 557.9,724.15 561.45,724.45 571,727.1 581.65,730.1 592.3,734 621.35,744.65 628,754 631.927,759.489 633.65,764.775 M550.325,724.425 Q550.14,725.875 550.3,726.95 M528.35,757.05 Q530.385,753.299 534.8,743.7 540.35,731.55 542.3,726.6 L546.9,725.1 Q548.633,724.674 550.325,724.425 M345.5,545 Q361.25,532.4 381.15,530 389.3,528.8 397.55,527.95" test="Hand2 and Arm Nom the rear"/>
      </g>
      <g id="Nom-Bec-Head">
        <path id="Layer6_0_1_STROKES" stroke="#00F" stroke-width="2" stroke-linejoin="round" stroke-linecap="round" fill="none" d="M395.35,544 Q399.25,531.7 404.8,516.95 415.9,487.45 424.35,475.05 436.45,457.3 452,442.85 471.2,424.95 488.5,419.5 530.65,406.3 571.45,434.1 597.4,451.8 609,465.85 624.35,484.45 623.15,504.9 622,524.4 611.9,546.6 605.95,559.75 594.7,577.4 588,587.95 566.25,619.5 545.4,649.7 543,652.7 541.15,654.95 532.3,649.7 530.4,648.6 528.4,647.3 M416.3,540.7 Q421.15,526.4 426.05,513.55 438.6,480.7 446.2,472.25 L456.85,459.8 Q467.85,447.25 469.8,446.6 471.75,445.95 481.35,452.5 486.8,456.3 498.6,464.95 504,468.8 550.9,502.15 595.45,534.05 597.45,536.45 599.75,539.2 599.6,540.65 599.5,541.95 597.1,544.1 595.1,545.9 571.45,572.05 550.5,595.15 544.4,602.05 537.2,610.75 532.4,616.45 529.75,619.65 527.6,622.15" test="Nom Bec Head"/>
        <path id="Layer6_0_2_STROKES" stroke="#FFF" stroke-width="2" stroke-linejoin="round" stroke-linecap="round" fill="none" d="M487.15,471.25 Q503.85,467.4 511.05,482.9 511.25,483.3 511.4,483.75 M560.7,526.8 Q560.7,528.25 559.65,529.25 558.65,530.3 557.2,530.3 555.75,530.3 554.7,529.25 553.7,528.25 553.7,526.8 553.7,525.35 554.7,524.3 555.75,523.3 557.2,523.3 558.65,523.3 559.65,524.3 560.7,525.35 560.7,526.8Z M552.95,514.25 Q570.1,513.5 574.35,530.05 574.45,530.45 574.55,530.95 M498.95,490.35 Q498.95,491.8 497.9,492.8 496.9,493.85 495.45,493.85 494,493.85 492.95,492.8 491.95,491.8 491.95,490.35 491.95,488.9 492.95,487.85 494,486.85 495.45,486.85 496.9,486.85 497.9,487.85 498.95,488.9 498.95,490.35Z M473.25,529.9 Q467.45,536.6 460.175,538.05 459.75,540.333 459.75,542.4 460.9,548.25 464.3,553.05 465.2,554.3 466.125,555.55 466.338,555.797 466.55,556.05 473.4,564.2 480.55,569.8 483.4,572.05 488.45,576.2 492.75,579.7 496.2,581.7 505.4,586.95 519.4,587.85 519.869,587.878 520.325,587.9 519.187,581.641 520.9,577.55 522.85,572.7 531.2,563.9 M460.25,537.7 L460.175,538.05 Q458.95,538.3 457.175,538.375 448.2,538.7 440.3,532 M520.325,587.9 Q520.384,588.224 520.45,588.55 L520.75,589.85 Q521.3,591.45 522.45,593.1 526,598.4 534,602.05" test="Nom Bec Head"/>
      </g>
    </g>
    <g id="BlackMaskRect">
      <path fill="#000" stroke="none" d="M827.6,625.818 L827.6,424.8 -19.45,424.8 -19.45,625.818 827.6,625.818Z" test="BlackMaskRect" stroke-width="1.454"/>
    </g>
  </g>
</svg>