<?xml version="1.0" encoding="utf-8"?>
<svg id="EdithAnim08" image-rendering="inherit" baseProfile="basic" version="1.1" x="0px" y="0px" width="800" height="600" xmlns="http://www.w3.org/2000/svg" xmlns:xlink="http://www.w3.org/1999/xlink">
  <g id="Nom-rear-the-rearf79r1" overflow="visible">
    <g id="Bec-Noms-the-Rearf14r1">
      <path id="Layer2_0_1_STROKES" stroke="#FEB7AE" stroke-width="2" stroke-linejoin="round" stroke-linecap="round" fill="none" d="M509.4,376.65 Q509.2,376.9 509,377.15" test="Bec Noms the Rear_2.3242325232423263e+312.3242325232423263e+31_2.3242325232423263e+312.3242325232423263e+31_2.3242325232423263e+312.3242325232423263e+31_1"/>
      <g id="Nom-Bec-Head">
        <path id="Layer3_0_1_STROKES" stroke="#00F" stroke-width="2" stroke-linejoin="round" stroke-linecap="round" fill="none" d="M386.95,228.6 Q390.85,216.3 396.4,201.55 407.5,172.05 415.95,159.65 428.05,141.9 443.6,127.45 462.8,109.55 480.1,104.1 522.25,90.9 563.05,118.7 589,136.4 600.6,150.45 615.95,169.05 614.75,189.5 613.6,209 603.5,231.2 597.55,244.35 586.3,262 579.6,272.55 557.85,304.1 537,334.3 534.6,337.3 532.75,339.55 523.9,334.3 522,333.2 520,331.9 M407.9,225.3 Q412.75,211 417.65,198.15 430.2,165.3 437.8,156.85 L448.45,144.4 Q459.45,131.85 461.4,131.2 463.35,130.55 472.95,137.1 478.4,140.9 490.2,149.55 495.6,153.4 542.5,186.75 587.05,218.65 589.05,221.05 591.35,223.8 591.2,225.25 591.1,226.55 588.7,228.7 586.7,230.5 563.05,256.65 542.1,279.75 536,286.65 528.8,295.35 524,301.05 521.35,304.25 519.2,306.75" test="Nom Bec Head"/>
        <path id="Layer3_0_2_STROKES" stroke="#FFF" stroke-width="2" stroke-linejoin="round" stroke-linecap="round" fill="none" d="M478.75,155.85 Q495.45,152 502.65,167.5 502.85,167.9 503,168.35 M552.3,211.4 Q552.3,212.85 551.25,213.85 550.25,214.9 548.8,214.9 547.35,214.9 546.3,213.85 545.3,212.85 545.3,211.4 545.3,209.95 546.3,208.9 547.35,207.9 548.8,207.9 550.25,207.9 551.25,208.9 552.3,209.95 552.3,211.4Z M544.55,198.85 Q561.7,198.1 565.95,214.65 566.05,215.05 566.15,215.55 M490.55,174.95 Q490.55,176.4 489.5,177.4 488.5,178.45 487.05,178.45 485.6,178.45 484.55,177.4 483.55,176.4 483.55,174.95 483.55,173.5 484.55,172.45 485.6,171.45 487.05,171.45 488.5,171.45 489.5,172.45 490.55,173.5 490.55,174.95Z M464.85,214.5 Q459.05,221.2 451.775,222.65 451.35,224.933 451.35,227 452.5,232.85 455.9,237.65 456.8,238.9 457.725,240.15 457.938,240.397 458.15,240.65 465,248.8 472.15,254.4 475,256.65 480.05,260.8 484.35,264.3 487.8,266.3 497,271.55 511,272.45 511.469,272.478 511.925,272.5 510.787,266.241 512.5,262.15 514.45,257.3 522.8,248.5 M451.85,222.3 L451.775,222.65 Q450.55,222.9 448.775,222.975 439.8,223.3 431.9,216.6 M511.925,272.5 Q511.984,272.824 512.05,273.15 L512.35,274.45 Q512.9,276.05 514.05,277.7 517.6,283 525.6,286.65" test="Nom Bec Head"/>
      </g>
      <g id="Bum-Nom-the-rear">
        <path fill="#000" stroke="none" d="M527.6,298.35 Q527.15,294.55 526.4,290.6 L481.25,307.5 523,350.3 Q525.686,342.559 527.1,334.4 528,329.05 528.4,323.5 529.25,311.45 527.6,298.35 M424.5,216.65 Q420.322,216.659 416.3,216.9 405.25,217.55 395.35,220.2 364.9,228.3 350.8,253.7 417.6,276.9 417.7,277 417.75,277.05 421.1,246.85 424.45,216.65 424.5,216.65Z" test="Bum Nom the rear"/>
        <path id="Layer4_0_1_STROKES" stroke="#FEB7AE" stroke-width="2" stroke-linejoin="round" stroke-linecap="round" fill="none" d="M350.8,253.7 Q364.9,228.3 395.35,220.2 405.25,217.55 416.3,216.9 420.322,216.659 424.5,216.675 429.824,216.724 435.4,217.2 448.286,218.301 460.25,221.975 M526.4,290.6 Q527.15,294.55 527.6,298.35 529.25,311.45 528.4,323.5 528,329.05 527.1,334.4 525.686,342.559 523.025,350.3 518.228,364.161 509.4,376.65 M517.5,263.675 Q522.391,272.133 524.6,281.7 525.6,286.05 526.4,290.6 M274.3,211.65 Q288.15,210.4 303.2,211.8 L308.45,212.35 Q330.25,215.15 343.7,224 343.8,224.05 343.9,224.1 354.1,230.85 358.4,240.8 M345.55,265.4 Q347.8,259.1 350.8,253.7 M211.65,391 Q204.6,383.1 199.8,376.95 190.95,365.65 185.3,354.4 168.75,321.25 178.3,286.25 188.2,250 219.9,229.9" test="Bum Nom the rear"/>
      </g>
      <g id="Hand-Nom-the-rear">
        <path id="Layer5_0_1_STROKES" stroke="#FFF" stroke-width="2" stroke-linejoin="round" stroke-linecap="round" fill="none" d="M303.25,211.3 Q300.6,209.15 291.75,200.65 284.4,193.6 279.45,190.2 264.05,179.7 247.35,186.3 228.85,193.6 222.95,207.25 219.2,215.95 219.9,229.9 220.1,233.9 220.65,238.35 L222.85,243.25 Q225.9,249.15 229.85,254 242.5,269.55 259.85,268.9 278.15,268.2 280.6,245.7 281.5,237.25 279.85,227.75 278.4,219.25 275.8,214.4 275.05,212.95 274.3,211.65" test="Hand Nom the rear"/>
      </g>
      <g id="Hand2-and-Arm-Nom-the-rear">
        <path id="Layer6_0_1_STROKES" stroke="#FFF" stroke-width="2" stroke-linejoin="round" stroke-linecap="round" fill="none" d="M528.35,433.25 Q527.791,432.277 526.9,431.35 524.45,428.75 521.15,429.2 517.8,429.9 515.1,430.35 510.05,431.25 505.35,431 491,430.35 477.4,419.8 463.35,408.95 456.5,395.15 452.35,386.8 450.7,376.45 449.75,370.6 456.7,362.95 462.75,356.3 467.35,354.95 471.4,353.8 477.45,354.65 484.25,355.6 488.85,358.75 494.75,362.75 509.4,376.65 M542.65,400.75 L533.25,396.55 Q531.35,390.75 528.2,384.3 521.95,371.35 515.9,368.1 M528.75,434.05 Q528.578,433.648 528.35,433.25" test="Hand2 and Arm Nom the rear"/>
        <path id="Layer6_0_2_STROKES" stroke="#0FF" stroke-width="2" stroke-linejoin="round" stroke-linecap="round" fill="none" d="M560.5,310.85 Q564.31,314.833 568.6,319.75 585.1,338.65 594.7,357.35 602.2,371.95 618.75,403.35 630.55,427.173 633.65,440.975 634.15,442.524 634.45,444.05 635.391,448.658 634.6,453.1 632.4,465.3 617.25,465.6 602.55,465.85 580.6,459.6 562.35,454.35 551.3,448.6 545.1,445.4 534.5,439.4 527.493,435.441 527.075,435.375 527.503,434.825 528.35,433.25 M524.15,354.9 Q528.681,361.179 537,373.5 549.8,392.55 550.3,395.5 550.75,398 550.45,399.85 550.378,400.247 550.325,400.625 554.212,400.036 557.9,400.35 561.45,400.65 571,403.3 581.65,406.3 592.3,410.2 621.35,420.85 628,430.2 631.927,435.689 633.65,440.975 M550.325,400.625 Q550.14,402.075 550.3,403.15 M528.35,433.25 Q530.385,429.499 534.8,419.9 540.35,407.75 542.3,402.8 L546.9,401.3 Q548.633,400.874 550.325,400.625 M345.5,221.2 Q361.25,208.6 381.15,206.2 389.3,205 397.55,204.15" test="Hand2 and Arm Nom the rear"/>
      </g>
    </g>
    <g id="BlackMaskRect">
      <path fill="#000" stroke="none" d="M827.6,625.818 L827.6,424.8 -19.45,424.8 -19.45,625.818 827.6,625.818Z" test="BlackMaskRect" stroke-width="1.454"/>
    </g>
  </g>
</svg>