<?xml version="1.0" encoding="utf-8"?>
<svg id="EdithAnim06" image-rendering="inherit" baseProfile="basic" version="1.1" x="0px" y="0px" width="800" height="600" xmlns="http://www.w3.org/2000/svg" xmlns:xlink="http://www.w3.org/1999/xlink">
  <g id="Jean-Renof0r1" overflow="visible">
    <g id="Bec-nom-Jean">
      <path id="Layer3_0_1_STROKES" stroke="#F90" stroke-width="1.795" stroke-linejoin="round" stroke-linecap="round" fill="none" d="M884.582,399.675 Q884.544,399.454 884.506,399.233 M830.306,409.427 Q825.463,415.72 819.136,422.276 812.993,428.637 809.165,431.441 M910.896,398.315 Q909.018,396.969 908.242,396.483 907.922,396.365 907.759,396.21" test="Bec nom Jean"/>
      <path id="Layer3_0_2_STROKES" stroke="#FFF" stroke-width="1.795" stroke-linejoin="round" stroke-linecap="round" fill="none" d="M1004.474,221.526 Q1007.174,218.086 1008.915,216.768 1011.373,214.954 1014.143,215.227 1017.455,215.58 1020.092,219.127 1022.897,222.955 1021.441,226.582 M975.007,252.469 Q970.857,253.917 968.226,256.37 965.72,258.701 965.545,261.064 965.535,261.116 965.532,261.175 965.228,266.264 969.042,269.873 972.464,273.049 977.664,273.953 M921.369,233.533 Q927.42,235.367 929.828,238.634 931.805,241.246 932.197,246.252 932.34,247.994 932.091,249.303 L936.014,252.274 Q940.644,255.544 944.339,257.125 950.025,259.539 955.648,260.781 960.699,261.886 963.747,261.494 964.758,261.357 965.545,261.064 M938.912,207.682 Q944.448,200.068 950.703,201.229 954.373,201.922 956.917,205.503 959.162,208.616 959.747,212.568 M932.091,249.303 Q931.778,251.079 930.813,252.481 930.244,253.293 929.457,253.979 927.598,255.618 923.92,256.957" test="Bec nom Jean"/>
      <path id="Layer3_0_3_STROKES" stroke="#FEB7AE" stroke-width="1.795" stroke-linejoin="round" stroke-linecap="round" fill="none" d="M1043.673,219.937 Q1041.908,229.637 1039.494,238.784 1032.313,265.873 1021.617,279.027 1021.041,279.736 1020.171,280.686 1007.751,294.268 994.883,298.528 985.727,301.543 975.303,300.021 961.276,297.931 953.415,294.941 937.658,288.867 924.736,275.032 914.823,264.415 909.734,256.015 905.474,248.894 904.415,242.764 M942.644,292.349 Q942.388,294.579 941.66,296.98 M948.459,375.403 Q947.755,371.772 946.822,367.861 944.894,360.103 943.526,358.871 942.093,357.577 940.547,357.906 939.443,358.158 938.64,359.006 936.851,360.897 935.729,362.801 934.334,365.189 934.474,366.804 934.698,369.179 934.532,368.898 933.097,366.366 931.144,363.467 927.237,357.669 924.58,355.711 920.303,352.59 913.275,354.467 909.902,355.354 907.949,359.376 906.236,362.884 906.694,365.665 907.186,368.541 908.546,371.805 910.212,375.792 912.401,378.049 915.735,381.513 922.552,385.801 M895.047,385.417 L901.168,386.328 Q907.805,387.542 910.413,388.835 915.211,391.274 916.086,391.917 918.58,393.721 917.911,395.93 917.27,398.044 913.1,397.619 910.997,397.359 908.242,396.483 M910.896,398.315 Q914.968,402.044 916.305,406.769 L918.225,413.098 Q919.649,419.821 917.042,421.989 913.751,424.683 909.929,425.392 905.855,426.171 903.135,424.277 899.38,421.65 896.437,418.557 892.611,414.503 892.959,412.176 893.067,411.474 891.929,409.347 891.359,408.251 889.43,405.066 888.565,403.629 886.55,401.97 884.828,400.526 884.582,399.675 M955.733,300.719 L956.571,296.569" test="Bec nom Jean"/>
      <path id="Layer3_0_4_STROKES" stroke="#00F" stroke-width="1.795" stroke-linejoin="round" stroke-linecap="round" fill="none" d="M1019.946,286.344 L1012.441,315.824 1034.767,314.89 Q1035.601,310.613 1037.9,303.025 1042.467,287.882 1049.765,271.615 1057.361,254.642 1058.281,231.599 1058.735,220.411 1056.922,196.141 1055.906,182.326 1044.667,167.365 1034.813,154.27 1024.795,149.054 1007.207,139.887 997.59,136.533 976.301,128.992 959.846,132.145 936.727,136.529 922.622,143.141 903.942,151.911 896.963,165.946 889.263,181.461 882.23,217.691 875.198,253.983 878.067,263.619 880.481,271.712 891.675,282.738 897.257,288.267 902.349,292.159 L904.415,242.764 Q903.705,238.878 904.255,234.64 905.063,228.237 909.285,207.515 913.566,186.601 914.055,187.064 L938.979,189.393 Q966.648,192.281 980.631,195.07 994.614,197.859 1021.17,205.255 1034.447,208.921 1044.948,212.06 L1043.673,219.937" test="Bec nom Jean"/>
      <path id="Layer3_0_5_STROKES" stroke="#0FF" stroke-width="1.795" stroke-linejoin="round" stroke-linecap="round" fill="none" d="M943.614,378.172 L940.058,379.318 Q935.921,381.274 933.011,385.132 930.011,389.152 930.157,389.846 930.305,390.604 932.622,394.032 934.38,397.921 945.782,409.576 956.432,420.458 962.531,425.179 969.183,430.361 976.261,434.896 984.826,440.407 988.08,440.952 991.429,441.526 1001.138,438.973 1010.342,436.56 1012.677,434.876 1014.857,433.356 1017.466,427.791 1020.225,421.937 1021.96,414.618 1023.555,407.971 1021.011,395.182 1019.099,385.71 1016.178,377.631 1013.775,371.094 1007.678,358.404 1001.041,344.522 998.317,341.327 993.509,336.221 990.762,333.312 985.726,327.99 983.886,324.58 981.91,320.857 978.35,317.24 976.847,315.694 971.413,310.923 L965.554,305.687 964.418,308.258 Q962.938,310.998 961.596,311.829 960.128,312.726 957.031,312.081 955.37,311.746 950.757,310.223 945.15,308.377 942.131,307.127 936.734,304.863 935.636,303.02 934.436,300.957 933.86,298.497 933.288,296.163 933.487,294.189 M869.309,327.074 L861.154,342.221 M884.582,399.675 Q884.613,399.643 884.646,399.674 894.448,386.704 895.047,385.417 895.498,384.484 889.131,376.976 882.96,369.654 877.647,364.625 875.756,362.836 862.841,348.143 852.091,335.93 848.545,333.996 844,332.062 847.107,331.337 850.724,330.126 850.961,329.485 851.437,328.328 863.133,326.482 877.328,324.281 882.202,322.591 892.267,319.138 894.77,317.799 M927.716,292.126 Q923.509,291.544 918.952,290.939 909.871,289.761 908.285,289.805 M880.728,292.152 Q865.83,295.357 850.373,298.958 819.457,306.161 816.72,308.205 813.267,310.808 815.17,322.249 817.118,334.164 823.049,342.002 828.421,349.124 849.619,369.494 867.426,386.592 874.936,392.957 879,396.432 882.229,398.375 883.812,399.379 884.582,399.675 M848.498,372.573 L841.87,387.804 Q834.412,404.043 830.306,409.427 L843.843,424.833 Q858.544,440.969 864.298,444.684 873.736,450.773 884.715,456.28 899.364,463.655 908.397,465.406 915.165,466.743 925.137,469.135 932.163,470.656 934.38,469.293 937.253,467.563 941.072,463.267 945.26,458.579 948.382,453.191 951.14,448.448 956.899,437.399 L962.112,427.254 M981.138,384.948 L978.117,396.302 M973.647,356.231 L983.683,379.385 Q993.54,402.925 992.802,404.945 990.439,411.36 987.557,410.487 986.404,410.138 979.603,402.96 972.375,395.317 969.953,393.828 967.433,392.247 963.309,388.9 958.793,385.183 956.787,383.841 954.135,382.073 951.48,381.352 948.889,380.63 948.597,380.416" test="Bec nom Jean"/>
    </g>
    <g id="Jean-Reno-body">
      <path id="Layer2_0_1_STROKES" stroke="#FEB7AE" stroke-width="1.89" stroke-linejoin="round" stroke-linecap="round" fill="none" d="M-343.055,108.767 Q-336.913,114.91 -298.593,121.052 -272.842,125.21 -245.673,127.667 -238.397,128.329 -195.824,137.023 -159.489,144.394 -153.063,142.787 -143.282,140.33 -135.817,137.353 -126.32,133.526 -117.153,127.667 -108.034,121.808 -95.843,120.013 -85.637,118.453 -77.416,120.107 -71.51,121.288 -65.84,123.178 -63.005,124.123 -61.351,124.832 -63.005,125.304 -64.895,126.297 -68.58,128.329 -69.478,131.116 -70.376,133.904 -67.304,136.739 -65.745,138.109 -64.044,138.96 -65.934,139.716 -67.635,141.086 -71.084,143.827 -70.187,146.756 -69.289,149.733 -63.619,151.009 -60.784,151.67 -58.138,151.717 L-57.098,157.765 Q-55.634,164.097 -53.413,165.42 -51.192,166.743 -45.806,164.191 -43.112,162.963 -40.892,161.404 L-39.096,165.42 Q-36.639,169.342 -33.096,168.727 -29.552,168.16 -26.575,165.089 -25.11,163.53 -24.354,162.112 L-20.905,163.53 Q-17.219,164.711 -16.038,163.53 -14.857,162.349 -13.912,159.041 L-13.203,155.97 -10.935,168.916 Q-8.856,182.713 -9.896,186.682 -9.99,187.013 -10.982,191.88 -11.691,195.329 -12.589,197.597 -15.235,204.354 -21.992,207.945 M-89.795,162.585 Q-81.574,160.6 -70.328,162.538 -53.933,165.325 -45.381,176.287 -42.073,180.54 -35.174,189.281 -29.268,196.983 -25.961,203.173 -17.03,219.899 -20.574,237.004 -24.071,253.825 -33.426,269.275 -37.726,276.363 -46.089,286.616 -48.452,289.498 -57.24,296.397 -67.682,304.571 -80.393,312.793 -115.877,335.803 -148.149,345.726 L-163.883,350.569 Q-161.244,353.87 -159.111,364.531 -156.938,375.399 -157.835,381.4 -158.591,386.503 -155.898,389.905 -155.189,390.85 -151.693,393.448 -148.905,395.527 -144.7,402.142 -139.266,410.647 -140.353,415.656 -141.487,421.09 -146.401,426.334 -150.842,431.012 -154.764,432.193 -157.694,433.091 -163.269,433.186 L-168.23,433.138 -161.804,434.461 Q-154.575,436.776 -150.275,441.643 -144.7,447.975 -142.432,452.416 -139.786,457.519 -141.298,460.543 -142.337,462.67 -145.125,469.096 -148.574,475.049 -155,478.026 -161.001,480.814 -174.089,477.742 -180.657,475.994 -183.445,475.285 -188.17,474.104 -189.965,474.246 -192.328,474.435 -210.897,479.16 -229.703,483.979 -236.27,484.641 -243.169,485.35 -251.438,481.853 -255.312,480.058 -256.871,479.443 -259.423,478.357 -260.604,478.498 -264.384,478.687 -266.321,478.924 -269.676,479.396 -272.18,481.333 -275.015,483.507 -278.89,482.562 -282.575,481.664 -283.52,479.207 -284.607,476.419 -284.513,474.766 -284.371,472.45 -282.103,470.702 -280.024,469.096 -276.716,468.529 -275.063,468.292 -273.834,468.34 -274.732,467.3 -275.346,465.93 -276.575,463.189 -275.252,461.725 -273.787,460.118 -269.96,459.315 -266.747,458.653 -264.148,458.89 -263.014,458.984 -265.565,457.189 -268.731,454.968 -267.692,453.928 -266.463,452.7 -263.297,452.794 -261.833,452.842 -258.242,453.456 -257.013,453.645 -255.029,455.062 -253.611,456.102 -252.572,455.582 -249.264,453.928 -244.823,451.849 -238.019,448.684 -235.325,447.786 -231.073,446.368 -226.82,445.423 M-331.054,109.854 Q-326.896,107.869 -312.012,98.986 -298.026,91.096 -293.018,90.954 -280.024,90.576 -276.008,90.954 -263.203,92.135 -251.39,98.041 -226.064,110.704 -222.426,112.594 -206.219,121.194 -199.179,126.864 -192.375,132.345 -186.705,135.605 -183.87,137.259 -182.405,137.779 M-353.734,173.878 Q-353.734,169.814 -352.742,164.806 -350.71,154.741 -345.701,150.016 -335.165,140.094 -321.604,142.22 -316.406,143.023 -306.248,149.26 -296.892,154.978 -294.435,158.049 -292.498,160.459 -287.678,161.356 -283.993,162.065 -279.079,161.829 -276.433,161.734 -262.494,160.742 -249.075,159.986 -245.248,160.884 -238.916,162.349 -224.269,167.31 -207.495,173.027 -204.377,175.531 -202.014,177.421 -193.982,184.414 -186.469,190.651 -183.587,191.833 -180.279,193.156 -179.759,194.053 -179.429,194.668 -180.043,196.841 -180.279,197.692 -179.759,203.976 -179.24,210.827 -180.043,216.214 -181.035,222.876 -186.138,240.311 -190.958,256.754 -193.509,262.991 -195.588,268.141 -202.156,279.576 -208.157,290.018 -210.283,292.759 -211.748,294.696 -215.055,298.618 L-218.079,302.209 -213.543,302.965 Q-208.44,303.957 -205.794,305.28 -203.668,306.367 -199.037,308.54 -195.163,310.808 -193.037,314.257 -190.249,318.793 -189.587,321.061 -188.737,324.038 -189.729,327.487 -190.721,330.889 -193.084,334.528 -195.021,337.504 -197.289,339.772 -200.36,342.844 -202.25,344.356 -205.605,347.049 -207.92,347.332 -210.992,347.758 -212.409,347.616 -214.583,347.38 -218.315,345.915 -221.339,344.734 -223.466,342.277 -226.442,338.875 -228.474,337.41 -231.309,335.331 -232.774,332.401 -234.617,328.621 -236.507,326.542 -239.625,323.093 -241.657,321.865 -243.122,321.014 -245.957,320.4 -248.225,319.927 -248.603,320.022 -249.973,320.636 -252.335,321.581 -256.588,323.755 -258.194,324.369 -260.793,325.314 -262.258,323.235 -264.573,320.022 -264.951,318.935 -265.707,316.809 -264.62,313.785 -263.297,310.194 -262.778,309.485 -261.974,308.493 -258.95,307.17 -254.414,305.138 -248.319,307.17 -247.658,307.406 -248.319,303.957 -250.02,294.696 -250.067,294.46 -252.713,277.733 -250.209,264.409 -247.894,252.265 -241.751,233.696 -236.79,218.718 -237.215,217.159 -237.735,215.221 -251.579,215.788 -266.983,216.45 -269.345,215.505 -271.991,214.465 -286.828,210.449 -300.672,206.669 -301.523,206.055 M-374.288,184.32 Q-361.058,196.652 -353.639,201.897 -333.889,215.93 -309.791,222.829 -286.166,229.633 -263.912,236.956 -252.808,240.595 -246.429,242.91 M-217.418,440.226 Q-218.41,436.068 -236.318,403.749 -254.556,370.768 -255.926,366.516 -258.667,357.916 -260.793,347.758 -263.392,335.378 -262.305,332.685 -261.218,330.086 -258.242,327.393 -256.304,325.597 -254.036,324.18 M-227.104,435.501 Q-228.38,436.446 -230.364,437.344 -234.239,439.186 -237.499,439.045 -240.854,438.903 -247.043,436.446 -251.532,434.65 -254.273,433.138 -255.265,432.571 -256.021,430.445 -256.682,428.65 -257.817,428.65 -258.95,428.65 -261.407,430.776 -264.195,433.186 -265.376,433.611 -267.172,434.272 -270.763,433.327 -273.929,432.477 -275.771,431.248 -277.236,430.303 -277.614,428.13 -277.85,426.618 -277.661,423.452 -277.52,421.137 -276.197,419.766 -276.149,419.672 -273.173,417.309 -271.708,416.128 -270.149,415.656 -269.393,415.42 -268.92,415.42 M-260.651,415.892 Q-260.841,415.089 -260.604,414.049 -260.226,411.97 -258.289,410.931 -256.352,409.891 -253.044,410.222 -251.201,410.411 -248.13,410.931 -246.76,411.073 -244.208,412.207 -241.799,413.293 -241.043,413.293 M-226.82,452.747 Q-233.955,456.48 -241.751,460.26 -257.249,467.914 -260.368,468.34 -263.486,468.765 -266.841,468.623 L-269.582,468.34 M-163.883,350.569 L-163.931,350.593 Q-182.405,356.263 -182.831,356.263 -182.925,356.263 -178.578,372.469 -174.326,390.519 -175.082,399.118 L-176.877,418.869 Q-178.247,439.281 -176.027,442.825" test="Jean Reno body"/>
    </g>
    <g id="BlackMaskRect">
      <path fill="#000" stroke="none" d="M823.45,613.6 L823.45,508.3 -23.6,508.3 -23.6,613.6 823.45,613.6Z" test="BlackMaskRect"/>
    </g>
  </g>
</svg>