<?xml version="1.0" encoding="utf-8"?>
<svg id="EdithAnim06" image-rendering="inherit" baseProfile="basic" version="1.1" x="0px" y="0px" width="800" height="600" xmlns="http://www.w3.org/2000/svg" xmlns:xlink="http://www.w3.org/1999/xlink">
  <g id="Jean-Renof1r1" overflow="visible">
    <g id="Bec-nom-Jean">
      <path id="Layer3_0_1_STROKES" stroke="#F90" stroke-width="1.793" stroke-linejoin="round" stroke-linecap="round" fill="none" d="M861.61,401.209 Q861.556,400.992 861.501,400.775 M808.302,415.032 Q803.956,421.666 798.152,428.673 792.517,435.473 788.918,438.555 M887.71,397.861 Q885.738,396.663 884.929,396.238 884.6,396.144 884.426,396.003" test="Bec nom Jean"/>
      <path id="Layer3_0_2_STROKES" stroke="#FFF" stroke-width="1.793" stroke-linejoin="round" stroke-linecap="round" fill="none" d="M967.499,214.727 Q969.927,211.097 971.561,209.653 973.871,207.66 976.65,207.722 979.974,207.823 982.87,211.155 985.952,214.754 984.778,218.477 M940.501,247.772 Q936.477,249.528 934.043,252.171 931.725,254.681 931.73,257.048 931.724,257.101 931.726,257.16 931.808,262.25 935.88,265.555 939.527,268.458 944.774,268.965 M885.654,232.98 Q891.818,234.348 894.464,237.419 896.63,239.87 897.4,244.825 897.675,246.549 897.525,247.871 L901.657,250.533 Q906.516,253.438 910.315,254.732 916.16,256.706 921.853,257.516 926.966,258.233 929.972,257.613 930.968,257.399 931.73,257.048 M901.164,205.909 Q906.1,197.908 912.417,198.59 916.124,199.001 918.928,202.375 921.399,205.304 922.282,209.196 M897.525,247.871 Q897.349,249.663 896.494,251.133 895.989,251.984 895.257,252.727 893.53,254.5 889.969,256.112" test="Bec nom Jean"/>
      <path id="Layer3_0_3_STROKES" stroke="#FEB7AE" stroke-width="1.793" stroke-linejoin="round" stroke-linecap="round" fill="none" d="M1006.412,210.175 Q1005.39,219.968 1003.679,229.259 998.581,256.777 988.927,270.687 988.407,271.437 987.612,272.449 976.273,286.914 963.782,292.132 954.894,295.827 944.398,295.101 930.272,294.083 922.217,291.702 906.067,286.847 892.151,274.049 881.476,264.228 875.771,256.249 870.989,249.481 869.471,243.456 M911.295,289.937 Q911.209,292.176 910.667,294.622 M923.378,372.2 Q922.403,368.637 921.177,364.813 918.669,357.235 917.214,356.111 915.689,354.931 914.174,355.375 913.094,355.711 912.359,356.616 910.721,358.634 909.748,360.615 908.54,363.099 908.801,364.697 909.205,367.045 909.017,366.777 907.397,364.364 905.232,361.626 900.903,356.149 898.108,354.4 893.613,351.616 886.756,354.018 883.465,355.156 881.825,359.31 880.385,362.932 881.052,365.667 881.76,368.494 883.361,371.641 885.322,375.484 887.673,377.566 891.256,380.763 898.369,384.517 M870.951,386.218 L877.115,386.661 Q883.816,387.367 886.51,388.458 891.473,390.523 892.393,391.097 895.014,392.704 894.514,394.955 894.037,397.108 889.852,397.001 887.738,396.902 884.929,396.238 M887.71,397.861 Q892.047,401.266 893.736,405.87 L896.129,412.026 Q898.056,418.614 895.624,420.969 892.551,423.901 888.798,424.897 884.8,425.981 881.949,424.302 878.011,421.971 874.846,419.113 870.728,415.366 870.899,413.022 870.953,412.316 869.659,410.283 869.008,409.236 866.846,406.21 865.875,404.845 863.744,403.346 861.919,402.038 861.61,401.209 M924.964,297.28 L925.484,293.083" test="Bec nom Jean"/>
      <path id="Layer3_0_4_STROKES" stroke="#00F" stroke-width="1.793" stroke-linejoin="round" stroke-linecap="round" fill="none" d="M987.817,278.099 L982.577,308.024 1004.738,305.403 Q1005.245,301.08 1006.959,293.35 1010.359,277.924 1016.394,261.174 1022.672,243.697 1021.843,220.681 1021.447,209.505 1017.803,185.475 1015.745,171.796 1003.419,157.749 992.615,145.456 982.244,141.021 964.035,133.225 954.205,130.614 932.434,124.718 916.287,129.104 893.598,135.221 880.053,142.874 862.116,153.022 856.23,167.527 849.738,183.56 845.479,220.17 841.227,256.842 844.814,266.22 847.831,274.096 859.814,284.228 865.791,289.31 871.156,292.8 L869.471,243.456 Q868.469,239.641 868.696,235.379 869.015,228.941 871.65,207.987 874.328,186.837 874.85,187.261 L899.845,187.692 Q927.617,188.471 941.752,190.189 955.888,191.907 982.892,197.259 996.391,199.904 1007.085,202.234 L1006.412,210.175" test="Bec nom Jean"/>
      <path id="Layer3_0_5_STROKES" stroke="#0FF" stroke-width="1.793" stroke-linejoin="round" stroke-linecap="round" fill="none" d="M918.764,375.324 L915.31,376.735 Q911.338,378.995 908.733,383.058 906.05,387.288 906.248,387.968 906.453,388.712 909.02,391.95 911.065,395.689 923.302,406.431 934.732,416.46 941.163,420.7 948.179,425.356 955.571,429.336 964.518,434.174 967.799,434.47 971.178,434.789 980.652,431.51 989.634,428.41 991.832,426.557 993.888,424.877 996.064,419.139 998.368,413.1 999.541,405.681 1000.625,398.94 997.124,386.398 994.502,377.111 990.981,369.288 988.093,362.96 981.06,350.785 973.399,337.465 970.445,334.489 965.271,329.769 962.315,327.081 956.897,322.163 954.806,318.907 952.556,315.349 948.737,312.017 947.123,310.591 941.35,306.252 L935.119,301.482 934.183,304.129 Q932.917,306.969 931.643,307.898 930.25,308.903 927.117,308.495 925.438,308.287 920.728,307.12 915.005,305.707 911.904,304.691 906.359,302.845 905.125,301.093 903.774,299.13 903.015,296.724 902.268,294.443 902.317,292.463 M840.9,330.071 L833.928,345.772 M861.61,401.209 Q861.638,401.175 861.673,401.203 870.451,387.545 870.951,386.218 871.329,385.255 864.42,378.261 857.721,371.437 852.048,366.832 850.03,365.194 836.057,351.541 824.426,340.195 820.749,338.537 817.071,336.88 819.115,335.998 822.625,334.518 822.812,333.862 823.199,332.674 834.706,329.95 848.674,326.682 853.4,324.63 863.16,320.429 865.551,318.906 M896.413,290.845 Q892.18,290.584 887.596,290.327 878.464,289.842 876.888,290.006 M849.625,294.431 Q835.034,298.751 819.914,303.509 789.674,313.023 787.103,315.266 783.863,318.12 786.624,329.368 789.467,341.086 795.967,348.441 801.855,355.126 824.508,373.804 843.535,389.481 851.495,395.25 855.806,398.403 859.168,400.093 860.821,400.973 861.61,401.209 M823.624,376.955 L818.178,392.625 Q811.982,409.36 808.302,415.032 L822.949,429.348 Q838.81,444.302 844.821,447.565 854.681,452.913 866.031,457.566 881.177,463.799 890.305,464.859 897.145,465.677 907.256,467.304 914.369,468.286 916.473,466.761 919.203,464.82 922.68,460.253 926.495,455.268 929.195,449.666 931.583,444.733 936.481,433.295 L940.903,422.798 M956.643,379.228 L954.495,390.763 M947.008,351.2 L958.756,373.496 Q970.355,396.19 969.773,398.258 967.906,404.825 964.97,404.174 963.796,403.913 956.479,397.281 948.703,390.218 946.178,388.919 943.549,387.535 939.188,384.515 934.41,381.155 932.311,379.971 929.536,378.411 926.838,377.895 924.203,377.372 923.896,377.181" test="Bec nom Jean"/>
    </g>
    <g id="Jean-Reno-body">
      <path id="Layer2_0_1_STROKES" stroke="#FEB7AE" stroke-width="1.89" stroke-linejoin="round" stroke-linecap="round" fill="none" d="M-306.955,108.967 Q-300.813,115.11 -262.493,121.252 -236.742,125.41 -209.573,127.867 -202.297,128.529 -159.724,137.223 -123.389,144.594 -116.963,142.987 -107.182,140.53 -99.717,137.553 -90.22,133.726 -81.053,127.867 -71.934,122.008 -59.743,120.213 -49.537,118.653 -41.316,120.307 -35.41,121.488 -29.74,123.378 -26.905,124.323 -25.251,125.032 -26.905,125.504 -28.795,126.497 -32.48,128.529 -33.378,131.316 -34.276,134.104 -31.204,136.939 -29.645,138.309 -27.944,139.16 -29.834,139.916 -31.535,141.286 -34.984,144.027 -34.087,146.956 -33.189,149.933 -27.519,151.209 -24.684,151.87 -22.038,151.917 L-20,157.965 Q-19.534,164.297 -17.313,165.62 -15.092,166.943 -9.706,164.391 -7.012,163.163 -4.792,161.604 L-2.996,165.62 Q-.539,169.541 3.004,168.927 6.548,168.36 9.525,165.289 10.99,163.73 11.746,162.312 L15.195,163.73 Q18.881,164.911 20.062,163.73 21.243,162.549 22.188,159.241 L22.897,156.17 25.165,169.116 Q27.244,182.913 26.204,186.882 26.11,187.213 25.118,192.08 24.409,195.529 23.511,197.797 20.865,204.554 14.108,208.145 M-53.696,162.785 Q-45.474,160.8 -34.229,162.738 -17.833,165.525 -9.281,176.487 -5.973,180.74 .925,189.481 6.832,197.183 10.139,203.373 19.07,220.099 15.526,237.204 12.029,254.025 2.674,269.475 -1.626,276.563 -9.989,286.816 -12.352,289.698 -21.14,296.597 -31.582,304.771 -44.293,312.993 -79.777,336.003 -112.049,345.926 L-127.783,350.769 Q-125.144,354.07 -123.011,364.731 -120.838,375.599 -121.735,381.6 -122.491,386.703 -119.798,390.105 -119.089,391.049 -115.593,393.648 -112.805,395.727 -108.6,402.342 -103.166,410.847 -104.253,415.856 -105.387,421.29 -110.301,426.534 -114.742,431.212 -118.664,432.393 -121.594,433.291 -127.169,433.386 L-132.13,433.338 -125.704,434.661 Q-118.475,436.977 -114.175,441.843 -108.6,448.175 -106.332,452.616 -103.686,457.719 -105.198,460.743 -106.237,462.87 -109.025,469.295 -112.474,475.249 -118.9,478.226 -124.901,481.014 -137.989,477.942 -144.557,476.194 -147.345,475.485 -152.07,474.304 -153.865,474.446 -156.228,474.635 -174.797,479.36 -193.603,484.179 -200.17,484.841 -207.069,485.549 -215.338,482.053 -219.212,480.257 -220.771,479.643 -223.323,478.557 -224.504,478.698 -228.284,478.887 -230.221,479.124 -233.576,479.596 -236.08,481.533 -238.915,483.707 -242.79,482.762 -246.475,481.864 -247.42,479.407 -248.507,476.619 -248.413,474.966 -248.271,472.65 -246.003,470.902 -243.924,469.295 -240.616,468.729 -238.963,468.492 -237.734,468.54 -238.632,467.5 -239.246,466.13 -240.475,463.389 -239.152,461.924 -237.687,460.318 -233.86,459.515 -230.647,458.853 -228.048,459.09 -226.914,459.184 -229.465,457.389 -232.631,455.168 -231.592,454.128 -230.363,452.9 -227.197,452.994 -225.733,453.041 -222.142,453.656 -220.913,453.845 -218.929,455.262 -217.511,456.302 -216.472,455.782 -213.164,454.128 -208.723,452.049 -201.919,448.884 -199.225,447.986 -194.973,446.568 -190.72,445.623 M-294.954,110.054 Q-290.796,108.069 -275.912,99.186 -261.926,91.296 -256.918,91.154 -243.924,90.776 -239.908,91.154 -227.103,92.335 -215.29,98.241 -189.964,110.904 -186.326,112.794 -170.119,121.394 -163.079,127.064 -156.275,132.545 -150.605,135.805 -147.77,137.459 -146.305,137.979 M-317.634,174.078 Q-317.634,170.014 -316.642,165.005 -314.61,154.941 -309.601,150.216 -299.065,140.294 -285.504,142.42 -280.306,143.223 -270.148,149.46 -260.792,155.178 -258.335,158.249 -256.398,160.659 -251.578,161.556 -247.893,162.265 -242.979,162.029 -240.333,161.934 -226.394,160.942 -212.975,160.186 -209.148,161.084 -202.816,162.549 -188.169,167.51 -171.395,173.227 -168.277,175.731 -165.914,177.621 -157.882,184.614 -150.369,190.851 -147.487,192.033 -144.179,193.356 -143.659,194.253 -143.329,194.868 -143.943,197.041 -144.179,197.892 -143.659,204.176 -143.14,211.027 -143.943,216.414 -144.935,223.076 -150.038,240.511 -154.858,256.954 -157.409,263.191 -159.488,268.341 -166.056,279.776 -172.057,290.218 -174.183,292.959 -175.648,294.896 -178.955,298.818 L-181.979,302.409 -177.443,303.165 Q-172.34,304.157 -169.694,305.48 -167.568,306.566 -162.937,308.74 -159.063,311.008 -156.937,314.457 -154.149,318.993 -153.487,321.261 -152.637,324.238 -153.629,327.687 -154.621,331.089 -156.984,334.727 -158.921,337.704 -161.189,339.972 -164.26,343.044 -166.15,344.556 -169.505,347.249 -171.82,347.532 -174.892,347.958 -176.309,347.816 -178.483,347.58 -182.215,346.115 -185.239,344.934 -187.366,342.477 -190.342,339.075 -192.374,337.61 -195.209,335.531 -196.674,332.601 -198.517,328.821 -200.407,326.742 -203.525,323.293 -205.557,322.065 -207.022,321.214 -209.857,320.6 -212.125,320.127 -212.503,320.222 -213.873,320.836 -216.235,321.781 -220.488,323.955 -222.094,324.569 -224.693,325.514 -226.158,323.435 -228.473,320.222 -228.851,319.135 -229.607,317.009 -228.52,313.985 -227.197,310.394 -226.678,309.685 -225.874,308.693 -222.85,307.37 -218.314,305.338 -212.219,307.37 -211.558,307.606 -212.219,304.157 -213.92,294.896 -213.967,294.66 -216.613,277.933 -214.109,264.609 -211.794,252.465 -205.651,233.896 -200.69,218.918 -201.115,217.359 -201.635,215.421 -215.479,215.988 -230.883,216.65 -233.245,215.705 -235.891,214.665 -250.728,210.649 -264.572,206.869 -265.423,206.255 M-338.188,184.52 Q-324.958,196.852 -317.539,202.097 -297.789,216.13 -273.691,223.029 -250.066,229.832 -227.812,237.156 -216.708,240.795 -210.329,243.11 M-181.318,440.426 Q-182.31,436.268 -200.218,403.949 -218.456,370.968 -219.826,366.716 -222.567,358.116 -224.693,347.958 -227.292,335.578 -226.205,332.885 -225.118,330.286 -222.142,327.593 -220.204,325.797 -217.936,324.38 M-191.004,435.701 Q-192.28,436.646 -194.264,437.544 -198.139,439.386 -201.399,439.245 -204.754,439.103 -210.943,436.646 -215.432,434.85 -218.173,433.338 -219.165,432.771 -219.921,430.645 -220.582,428.85 -221.716,428.85 -222.85,428.85 -225.307,430.976 -228.095,433.386 -229.276,433.811 -231.072,434.472 -234.663,433.527 -237.829,432.677 -239.671,431.448 -241.136,430.503 -241.514,428.33 -241.75,426.818 -241.561,423.652 -241.42,421.337 -240.097,419.967 -240.049,419.872 -237.073,417.51 -235.608,416.328 -234.049,415.856 -233.293,415.619 -232.82,415.619 M-224.551,416.092 Q-224.74,415.289 -224.504,414.249 -224.126,412.17 -222.189,411.131 -220.252,410.091 -216.944,410.422 -215.101,410.611 -212.03,411.131 -210.66,411.273 -208.108,412.406 -205.699,413.493 -204.943,413.493 M-190.72,452.947 Q-197.855,456.68 -205.651,460.46 -221.149,468.114 -224.268,468.54 -227.386,468.965 -230.741,468.823 L-233.482,468.54 M-127.783,350.769 L-127.831,350.792 Q-146.305,356.463 -146.731,356.463 -146.825,356.463 -142.478,372.669 -138.226,390.719 -138.982,399.318 L-140.777,419.069 Q-142.147,439.481 -139.927,443.025" test="Jean Reno body"/>
    </g>
    <g id="BlackMaskRect">
      <path fill="#000" stroke="none" d="M823.45,613.6 L823.45,508.3 -23.6,508.3 -23.6,613.6 823.45,613.6Z" test="BlackMaskRect"/>
    </g>
  </g>
</svg>