<?xml version="1.0" encoding="utf-8"?>
<svg id="EdithAnim06" image-rendering="inherit" baseProfile="basic" version="1.1" x="0px" y="0px" width="800" height="600" xmlns="http://www.w3.org/2000/svg" xmlns:xlink="http://www.w3.org/1999/xlink">
  <g id="Jean-Renof10r1" overflow="visible">
    <g id="Bec-nom-Jean">
      <path id="Layer3_0_1_STROKES" stroke="#F90" stroke-width="1.796" stroke-linejoin="round" stroke-linecap="round" fill="none" d="M665.45,388.091 Q665.27,387.957 665.091,387.822 M632.718,432.498 Q633.526,440.4 633.436,449.515 633.346,458.36 632.493,463.03 M683.634,369.009 Q681.344,369.323 680.446,369.503 680.132,369.638 679.908,369.638" test="Bec nom Jean"/>
      <path id="Layer3_0_2_STROKES" stroke="#FFF" stroke-width="1.796" stroke-linejoin="round" stroke-linecap="round" fill="none" d="M630.069,176.208 Q629.665,171.853 630.024,169.698 630.563,166.689 632.763,164.983 635.412,162.963 639.767,163.726 644.437,164.579 645.873,168.216 M629.934,218.953 Q627.913,222.859 627.689,226.451 627.471,229.867 628.969,231.705 628.997,231.75 629.036,231.794 632.314,235.701 637.567,235.701 642.237,235.656 646.637,232.737 M577.94,242.077 Q583.597,239.248 587.593,239.966 590.826,240.505 594.553,243.873 595.855,245.04 596.573,246.163 L601.467,245.624 Q607.08,244.816 610.851,243.424 616.644,241.268 621.583,238.305 626.012,235.634 627.958,233.254 628.598,232.459 628.969,231.705 M572.911,211.23 Q571.699,201.891 577.042,198.434 580.185,196.413 584.495,197.266 588.267,197.985 591.41,200.454 M596.573,246.163 Q597.567,247.668 597.83,249.35 597.975,250.331 597.875,251.371 597.651,253.84 595.9,257.343" test="Bec nom Jean"/>
      <path id="Layer3_0_3_STROKES" stroke="#FEB7AE" stroke-width="1.796" stroke-linejoin="round" stroke-linecap="round" fill="none" d="M657.458,148.101 Q662.846,156.362 667.381,164.669 680.789,189.289 682.063,206.201 682.132,207.113 682.153,208.402 682.467,226.811 676.046,238.754 671.466,247.24 662.846,253.302 651.217,261.429 643.449,264.661 627.824,271.082 608.921,269.915 594.418,269.017 584.944,266.412 576.952,264.167 571.968,260.441 M633.84,270.184 Q635.187,271.98 636.31,274.225 M695.174,326.534 Q692.165,324.378 688.798,322.178 682.063,317.868 680.222,317.913 678.291,317.958 677.393,319.26 676.765,320.203 676.765,321.37 676.765,323.974 677.259,326.129 677.887,328.823 679.099,329.901 680.895,331.472 680.581,331.383 677.797,330.53 674.385,329.766 667.56,328.24 664.282,328.644 659.029,329.317 655.213,335.513 653.372,338.477 654.719,342.742 655.886,346.469 658.131,348.175 660.466,349.926 663.699,351.363 667.65,353.114 670.793,353.249 675.597,353.474 683.5,351.902 M663.25,370.535 L668.323,366.988 Q673.981,363.307 676.765,362.453 681.928,360.927 683.006,360.792 686.059,360.388 687.092,362.453 688.079,364.429 684.757,366.988 683.051,368.246 680.446,369.503 M683.634,369.009 Q689.157,368.919 693.378,371.434 L699.125,374.711 Q704.782,378.618 704.378,381.985 703.839,386.206 701.549,389.349 699.125,392.716 695.847,393.21 691.312,393.884 687.047,393.659 681.479,393.345 680.132,391.414 679.728,390.83 677.438,390.067 676.271,389.663 672.679,388.675 671.062,388.226 668.458,388.406 666.213,388.54 665.45,388.091 M649.106,267.266 L646.861,263.674" test="Bec nom Jean"/>
      <path id="Layer3_0_4_STROKES" stroke="#00F" stroke-width="1.796" stroke-linejoin="round" stroke-linecap="round" fill="none" d="M685.879,212.667 L700.696,239.248 716.277,223.219 Q713.942,219.537 710.395,212.443 703.301,198.299 697.419,181.462 691.267,163.906 676.091,146.529 668.728,138.088 650.723,121.7 640.485,112.36 622.031,109.217 605.868,106.479 595.002,109.577 575.919,115.01 566.625,119.185 545.971,128.345 536.183,141.95 522.398,161.032 516.696,175.535 509.153,194.752 513.733,209.749 518.806,226.317 538.607,257.477 558.453,288.683 567.164,293.712 574.482,297.932 590.197,298.246 598.055,298.426 604.431,297.753 L571.968,260.441 Q568.78,258.106 566.266,254.649 562.449,249.44 551.269,231.48 539,213.341 540.673,213.341 L560.384,197.895 Q582.475,180.968 594.553,173.38 606.631,165.791 631.012,152.905 643.179,146.44 652.968,141.501 L657.458,148.101" test="Bec nom Jean"/>
      <path id="Layer3_0_5_STROKES" stroke="#0FF" stroke-width="1.796" stroke-linejoin="round" stroke-linecap="round" fill="none" d="M693.557,331.877 L691.761,335.154 Q690.1,339.42 690.639,344.224 691.222,349.208 691.806,349.612 692.435,350.061 696.476,350.959 700.427,352.576 716.726,353.204 731.947,353.788 739.625,353.025 748.021,352.216 756.283,350.645 766.295,348.759 769.034,346.918 771.863,345.032 777.161,336.501 782.19,328.419 782.729,325.591 783.267,322.986 781.337,317.149 779.316,310.998 775.545,304.488 772.132,298.561 761.491,291.018 753.589,285.45 745.911,281.589 739.67,278.491 726.514,273.462 712.146,267.939 707.97,267.49 700.966,267.086 696.97,266.861 689.651,266.457 685.969,265.245 681.973,263.898 676.899,263.718 674.744,263.629 667.515,263.898 L659.658,264.123 660.601,266.772 Q661.409,269.78 661.005,271.307 660.556,272.968 657.862,274.629 656.425,275.527 652.025,277.593 646.682,280.107 643.628,281.274 638.151,283.34 636.085,282.756 633.795,282.083 631.685,280.691 629.665,279.388 628.452,277.817 M604.431,345.841 L608.921,362.453 M665.45,388.091 Q665.45,388.047 665.495,388.047 663.699,371.883 663.25,370.535 662.935,369.548 653.147,368.47 643.628,367.393 636.31,367.393 633.706,367.393 614.219,365.597 598.01,364.115 594.104,365.148 590.197,366.18 591.23,364.205 593.026,360.837 592.757,360.208 592.308,359.041 599.537,349.657 608.337,338.297 610.717,333.718 615.656,324.289 616.554,321.595 M622.84,280.287 Q619.382,282.756 615.656,285.45 608.247,290.838 607.125,291.96 M588.716,312.614 Q580.095,325.186 571.339,338.432 553.828,364.923 553.245,368.291 552.526,372.556 561.776,379.56 571.384,386.879 581.083,388.496 589.883,389.977 619.293,390.202 643.988,390.381 653.821,389.843 659.164,389.573 662.846,388.765 664.687,388.406 665.45,388.091 M620.595,393.21 L626.252,408.835 Q631,425.763 632.718,432.498 L653.147,434.383 Q674.924,436 681.659,434.742 692.704,432.677 704.468,429.13 720.183,424.415 727.951,419.477 733.788,415.795 742.678,410.676 748.829,406.949 749.503,404.435 750.401,401.202 750.221,395.455 750.041,389.169 748.605,383.107 747.347,377.764 743.935,365.776 L740.747,354.821 M725.481,310.998 L731.094,321.325 M700.292,295.283 L723.506,305.206 Q746.853,315.533 747.707,317.509 750.401,323.795 747.707,325.142 746.629,325.68 736.751,325.142 726.244,324.558 723.461,325.142 720.542,325.725 715.244,326.129 709.407,326.534 707.027,326.938 703.884,327.476 701.46,328.779 699.08,330.036 698.721,330.081" test="Bec nom Jean"/>
    </g>
    <g id="Jean-Reno-body">
      <path id="Layer2_0_1_STROKES" stroke="#FEB7AE" stroke-width="1.89" stroke-linejoin="round" stroke-linecap="round" fill="none" d="M17.844,111.017 Q23.987,117.16 62.307,123.302 88.058,127.46 115.227,129.917 122.503,130.579 165.075,139.273 201.411,146.644 207.837,145.037 217.617,142.58 225.083,139.603 234.58,135.776 243.747,129.917 252.866,124.058 265.057,122.263 275.263,120.703 283.484,122.357 289.39,123.538 295.06,125.428 297.895,126.373 299.549,127.082 297.895,127.554 296.005,128.547 292.32,130.579 291.422,133.366 290.524,136.154 293.596,138.989 295.155,140.359 296.856,141.21 294.966,141.966 293.265,143.336 289.816,146.077 290.713,149.006 291.611,151.983 297.281,153.259 300.116,153.92 302.762,153.967 L303.802,160.015 Q305.266,166.347 307.487,167.67 309.708,168.993 315.094,166.441 317.788,165.213 320.008,163.654 L321.804,167.67 Q324.261,171.592 327.804,170.977 331.348,170.41 334.325,167.339 335.79,165.78 336.546,164.362 L339.995,165.78 Q343.681,166.961 344.862,165.78 346.043,164.599 346.988,161.291 L347.697,158.22 349.965,171.166 Q352.044,184.963 351.004,188.932 350.91,189.263 349.918,194.13 349.209,197.579 348.311,199.847 345.665,206.604 338.908,210.195 M271.105,164.835 Q279.326,162.85 290.571,164.788 306.967,167.575 315.52,178.537 318.827,182.79 325.726,191.531 331.632,199.233 334.939,205.423 343.87,222.149 340.326,239.254 336.829,256.075 327.474,271.525 323.174,278.613 314.811,288.866 312.448,291.748 303.66,298.647 293.218,306.821 280.507,315.043 245.022,338.053 212.751,347.976 L197.016,352.819 Q199.656,356.12 201.789,366.781 203.962,377.649 203.064,383.65 202.308,388.753 205.002,392.155 205.71,393.1 209.207,395.698 211.995,397.777 216.2,404.392 221.634,412.897 220.547,417.906 219.413,423.34 214.499,428.584 210.057,433.262 206.136,434.443 203.206,435.341 197.631,435.436 L192.67,435.388 199.096,436.711 Q206.325,439.026 210.624,443.893 216.2,450.225 218.468,454.666 221.114,459.769 219.602,462.793 218.563,464.92 215.775,471.346 212.325,477.299 205.9,480.276 199.899,483.064 186.811,479.992 180.243,478.244 177.455,477.535 172.73,476.354 170.935,476.496 168.572,476.685 150.003,481.41 131.197,486.229 124.63,486.891 117.731,487.6 109.462,484.103 105.588,482.308 104.029,481.693 101.477,480.607 100.296,480.748 96.516,480.937 94.578,481.174 91.224,481.646 88.719,483.583 85.884,485.757 82.01,484.812 78.324,483.914 77.38,481.457 76.293,478.669 76.387,477.016 76.529,474.7 78.797,472.952 80.876,471.346 84.184,470.779 85.837,470.542 87.066,470.59 86.168,469.55 85.554,468.18 84.325,465.439 85.648,463.975 87.113,462.368 90.94,461.565 94.153,460.903 96.752,461.14 97.886,461.234 95.334,459.439 92.169,457.218 93.208,456.178 94.437,454.95 97.602,455.044 99.067,455.092 102.658,455.706 103.887,455.895 105.871,457.312 107.289,458.352 108.328,457.832 111.636,456.178 116.077,454.099 122.881,450.934 125.575,450.036 129.827,448.618 134.08,447.673 M29.846,112.104 Q34.004,110.119 48.888,101.236 62.874,93.346 67.882,93.204 80.876,92.826 84.892,93.204 97.697,94.385 109.51,100.291 134.836,112.954 138.474,114.844 154.681,123.444 161.721,129.114 168.525,134.595 174.195,137.855 177.03,139.509 178.495,140.029 M7.166,176.128 Q7.166,172.064 8.158,167.056 10.19,156.991 15.198,152.266 25.735,142.344 39.296,144.47 44.494,145.273 54.652,151.51 64.008,157.228 66.465,160.299 68.402,162.709 73.221,163.606 76.907,164.315 81.821,164.079 84.467,163.984 98.406,162.992 111.825,162.236 115.652,163.134 121.983,164.599 136.631,169.56 153.405,175.277 156.523,177.781 158.886,179.671 166.918,186.664 174.431,192.901 177.313,194.083 180.621,195.406 181.14,196.303 181.471,196.918 180.857,199.091 180.621,199.942 181.14,206.226 181.66,213.077 180.857,218.464 179.865,225.126 174.762,242.561 169.942,259.004 167.391,265.241 165.312,270.391 158.744,281.826 152.743,292.268 150.617,295.009 149.152,296.946 145.845,300.868 L142.821,304.459 147.357,305.215 Q152.46,306.207 155.106,307.53 157.232,308.617 161.862,310.79 165.737,313.058 167.863,316.507 170.651,321.043 171.313,323.311 172.163,326.288 171.171,329.737 170.179,333.139 167.816,336.778 165.879,339.754 163.611,342.022 160.539,345.094 158.65,346.606 155.295,349.299 152.98,349.582 149.908,350.008 148.491,349.866 146.317,349.63 142.585,348.165 139.561,346.984 137.434,344.527 134.457,341.125 132.426,339.66 129.591,337.581 128.126,334.651 126.283,330.871 124.393,328.792 121.275,325.343 119.243,324.115 117.778,323.264 114.943,322.65 112.675,322.177 112.297,322.272 110.927,322.886 108.565,323.831 104.312,326.005 102.706,326.619 100.107,327.564 98.642,325.485 96.327,322.272 95.949,321.185 95.193,319.059 96.279,316.035 97.602,312.444 98.122,311.735 98.926,310.743 101.949,309.42 106.486,307.388 112.581,309.42 113.242,309.656 112.581,306.207 110.88,296.946 110.832,296.71 108.187,279.983 110.691,266.659 113.006,254.515 119.148,235.946 124.11,220.968 123.684,219.409 123.165,217.471 109.32,218.038 93.917,218.7 91.554,217.755 88.908,216.715 74.072,212.699 60.228,208.919 59.377,208.305 M-13.388,186.57 Q-.158,198.902 7.261,204.147 27.011,218.18 51.108,225.079 74.733,231.883 96.988,239.206 108.092,242.845 114.471,245.16 M143.482,442.476 Q142.49,438.318 124.582,405 106.344,373.018 104.973,368.766 102.233,360.166 100.107,350.008 97.508,337.628 98.595,334.935 99.682,332.336 102.658,329.643 104.596,327.847 106.863,326.43 M133.796,437.751 Q132.52,438.696 130.536,439.594 126.661,441.436 123.401,441.295 120.046,441.153 113.857,438.696 109.368,436.9 106.627,435.388 105.635,434.821 104.879,432.695 104.217,430.9 103.083,430.9 101.949,430.9 99.492,433.026 96.705,435.436 95.523,435.861 93.728,436.522 90.137,435.577 86.971,434.727 85.128,433.498 83.664,432.553 83.286,430.38 83.05,428.868 83.238,425.702 83.38,423.387 84.703,422.016 84.751,421.922 87.727,419.559 89.192,418.378 90.751,417.906 91.507,417.67 91.98,417.67 M100.249,418.142 Q100.059,417.339 100.296,416.299 100.674,414.22 102.611,413.181 104.548,412.141 107.856,412.472 109.699,412.661 112.77,413.181 114.14,413.323 116.691,414.457 119.101,415.543 119.857,415.543 M134.08,454.997 Q126.945,458.73 119.148,462.51 103.651,470.164 100.532,470.59 97.413,471.015 94.059,470.873 L91.318,470.59 M197.016,352.819 L196.969,352.843 Q178.495,358.513 178.069,358.513 177.975,358.513 182.322,374.719 186.574,392.769 185.818,401.368 L184.023,421.119 Q182.652,441.531 184.873,445.075" test="Jean Reno body"/>
    </g>
    <g id="BlackMaskRect">
      <path fill="#000" stroke="none" d="M823.45,613.6 L823.45,508.3 -23.6,508.3 -23.6,613.6 823.45,613.6Z" test="BlackMaskRect"/>
    </g>
  </g>
</svg>