<?xml version="1.0" encoding="utf-8"?>
<svg id="EdithAnim06" image-rendering="inherit" baseProfile="basic" version="1.1" x="0px" y="0px" width="800" height="600" xmlns="http://www.w3.org/2000/svg" xmlns:xlink="http://www.w3.org/1999/xlink">
  <defs>
    <g id="TearGraphic" overflow="visible">
      <path id="Layer4_0_1_STROKES" stroke="#0FF" stroke-width="1" stroke-linejoin="round" stroke-linecap="round" fill="none" d="M-1.15 1.6Q-1.25 5.75 -2.25 8.6 -3.4 11.65 -6.8 16.5 -10.25 21.45 -8.25 27.95 -6.25 34.6 -.7 34.8 4.75 35 7.25 30.15 9.3 26.2 8.9 20.65 8.7 17.9 4.8 12.25 .55 6.05 -.7 0" test="TearGraphic"/>
    </g>
  </defs>
  <g id="Jean-Renof150r1" overflow="visible">
    <g id="Jean-Reno-body">
      <path id="Layer2_0_1_STROKES" stroke="#FEB7AE" stroke-width="1.89" stroke-linejoin="round" stroke-linecap="round" fill="none" d="M515.895,321.067 Q522.037,327.21 560.357,333.352 586.108,337.51 613.277,339.967 620.553,340.629 663.126,349.323 699.461,356.694 705.887,355.087 715.668,352.63 723.133,349.653 732.63,345.826 741.797,339.967 750.916,334.108 763.107,332.313 773.313,330.753 781.534,332.407 787.44,333.588 793.11,335.478 795.945,336.423 797.599,337.132 795.945,337.605 794.055,338.597 790.37,340.629 789.472,343.416 788.574,346.204 791.646,349.039 793.205,350.409 794.906,351.26 793.016,352.016 791.315,353.386 787.866,356.127 788.763,359.056 789.661,362.033 795.331,363.309 798.166,363.97 800.812,364.017 L801.852,370.065 Q803.316,376.397 805.537,377.72 807.758,379.043 813.144,376.491 815.838,375.263 818.058,373.704 L819.854,377.72 Q822.311,381.642 825.854,381.027 829.398,380.46 832.375,377.389 833.84,375.83 834.596,374.412 L838.045,375.83 Q841.731,377.011 842.912,375.83 844.093,374.649 845.038,371.341 L845.747,368.27 848.015,381.216 Q850.094,395.013 849.054,398.982 848.96,399.313 847.968,404.18 847.259,407.629 846.361,409.897 843.715,416.654 836.958,420.245 M769.155,374.885 Q777.376,372.9 788.622,374.838 805.017,377.625 813.57,388.587 816.877,392.84 823.776,401.581 829.682,409.283 832.989,415.473 841.92,432.199 838.376,449.304 834.879,466.125 825.524,481.575 821.224,488.663 812.861,498.916 810.498,501.798 801.71,508.697 791.268,516.871 778.557,525.093 743.073,548.103 710.801,558.026 L695.067,562.869 Q697.706,566.17 699.839,576.831 702.012,587.699 701.115,593.7 700.359,598.803 703.052,602.205 703.761,603.15 707.257,605.748 710.045,607.827 714.25,614.442 719.684,622.947 718.597,627.956 717.463,633.39 712.549,638.634 708.108,643.312 704.186,644.493 701.256,645.391 695.681,645.486 L690.72,645.438 697.146,646.761 Q704.375,649.077 708.675,653.943 714.25,660.275 716.518,664.716 719.164,669.819 717.652,672.843 716.613,674.97 713.825,681.396 710.376,687.349 703.95,690.326 697.949,693.114 684.861,690.042 678.293,688.294 675.505,687.585 670.78,686.404 668.985,686.546 666.622,686.735 648.053,691.46 629.247,696.279 622.68,696.941 615.781,697.65 607.512,694.153 603.638,692.358 602.079,691.743 599.527,690.657 598.346,690.798 594.566,690.987 592.629,691.224 589.274,691.696 586.77,693.633 583.935,695.807 580.06,694.862 576.375,693.964 575.43,691.507 574.343,688.719 574.437,687.066 574.579,684.75 576.847,683.002 578.926,681.396 582.234,680.829 583.887,680.592 585.116,680.64 584.218,679.6 583.604,678.23 582.375,675.489 583.698,674.025 585.163,672.418 588.99,671.615 592.203,670.953 594.802,671.19 595.936,671.284 593.385,669.489 590.219,667.268 591.258,666.228 592.487,665 595.653,665.094 597.117,665.142 600.708,665.756 601.937,665.945 603.921,667.362 605.339,668.402 606.378,667.882 609.686,666.228 614.127,664.149 620.931,660.984 623.625,660.086 627.877,658.668 632.13,657.723 M527.896,322.154 Q532.054,320.169 546.938,311.286 560.924,303.396 565.932,303.254 578.926,302.876 582.942,303.254 595.747,304.435 607.56,310.341 632.886,323.004 636.524,324.894 652.731,333.494 659.771,339.164 666.575,344.645 672.245,347.905 675.08,349.559 676.545,350.079 M505.216,386.178 Q505.216,382.114 506.208,377.106 508.24,367.041 513.249,362.316 523.785,352.394 537.346,354.52 542.544,355.323 552.702,361.56 562.058,367.278 564.515,370.349 566.452,372.759 571.272,373.656 574.957,374.365 579.871,374.129 582.517,374.034 596.456,373.042 609.875,372.286 613.702,373.184 620.034,374.649 634.681,379.61 651.455,385.327 654.573,387.831 656.936,389.721 664.968,396.714 672.481,402.951 675.363,404.133 678.671,405.456 679.191,406.353 679.521,406.968 678.907,409.141 678.671,409.992 679.191,416.276 679.71,423.127 678.907,428.514 677.915,435.176 672.812,452.611 667.992,469.054 665.441,475.291 663.362,480.441 656.794,491.876 650.793,502.318 648.667,505.059 647.202,506.996 643.895,510.918 L640.871,514.509 645.407,515.265 Q650.51,516.257 653.156,517.58 655.282,518.667 659.913,520.84 663.787,523.108 665.913,526.557 668.701,531.093 669.363,533.361 670.213,536.338 669.221,539.787 668.229,543.189 665.866,546.828 663.929,549.804 661.661,552.072 658.59,555.144 656.7,556.656 653.345,559.349 651.03,559.632 647.958,560.058 646.541,559.916 644.367,559.68 640.635,558.215 637.611,557.034 635.484,554.577 632.508,551.175 630.476,549.71 627.641,547.631 626.176,544.701 624.333,540.921 622.443,538.842 619.325,535.393 617.293,534.165 615.828,533.314 612.993,532.7 610.725,532.227 610.347,532.322 608.977,532.936 606.615,533.881 602.362,536.055 600.756,536.669 598.157,537.614 596.692,535.535 594.377,532.322 593,531.235 593.243,529.109 594.33,526.085 595.653,522.494 596.172,521.785 596.976,520.793 600,519.47 604.536,517.438 610.631,519.47 611.292,519.706 610.631,516.257 608.93,506.996 608.883,506.76 606.237,490.033 608.741,476.709 611.056,464.565 617.199,445.996 622.16,431.018 621.735,429.459 621.215,427.521 607.371,428.088 591.967,428.75 589.605,427.805 586.959,426.765 572.122,422.749 558.278,418.969 557.427,418.355 M484.662,396.62 Q497.892,408.952 505.311,414.197 525.061,428.23 549.159,435.129 572.784,441.933 595.038,449.256 606.142,452.895 612.521,455.21 M641.532,652.526 Q640.54,648.368 622.632,616.049 604.394,583.068 603.024,578.816 600.283,570.216 598.157,560.058 595.558,547.678 596.645,544.985 597.732,542.386 600.708,539.693 602.646,537.897 604.914,536.48 M631.846,647.801 Q630.57,648.746 628.586,649.644 624.711,651.486 621.451,651.345 618.096,651.203 611.907,648.746 607.418,646.95 604.677,645.438 603.685,644.871 602.929,642.745 602.268,640.95 601.134,640.95 600,640.95 597.543,643.076 594.755,645.486 593.574,645.911 591.778,646.572 588.187,645.627 585.021,644.777 583.179,643.548 581.714,642.603 581.336,640.43 581.1,638.918 581.289,635.752 581.43,633.437 582.753,632.067 582.801,631.972 585.777,629.61 587.242,628.428 588.801,627.956 589.557,627.72 590.03,627.72 M598.299,628.192 Q598.11,627.389 598.346,626.349 598.724,624.27 600.661,623.231 602.598,622.191 605.906,622.522 607.749,622.711 610.82,623.231 612.19,623.373 614.742,624.507 617.151,625.593 617.907,625.593 M632.13,665.047 Q624.995,668.78 617.199,672.56 601.701,680.214 598.582,680.64 595.464,681.065 592.109,680.923 L589.368,680.64 M695.067,562.869 L695.019,562.893 Q676.545,568.563 676.119,568.563 676.025,568.563 680.372,584.769 684.624,602.819 683.868,611.418 L682.073,631.169 Q680.703,651.581 682.923,655.125" test="Jean Reno body"/>
    </g>
    <g id="Jean-Renof81r1">
      <g id="JeanRenoFace">
        <path fill="#000" stroke="none" d="M453.185,118.108 Q448.602,121.463 446.381,125.905 443.263,132.189 437.687,138.71 430.411,147.309 425.119,147.64 420.158,147.923 406.313,142.49 391.619,136.3 387.791,134.882 383.35,133.229 377.302,126.047 369.458,116.786 367.899,115.462 365.962,113.809 364.97,111.257 364.166,108.422 363.836,107.336 363.269,105.398 362.229,104.973 360.953,104.406 357.977,105.54 350.322,108.139 347.015,109.604 341.534,112.013 336.714,116.88 328.445,124.96 324.24,129.07 316.727,136.489 313.562,140.552 295.134,164.65 289.464,171.737 285.448,176.746 283.322,182.274 281.573,186.81 280.014,194.89 278.124,204.812 270.092,232.217 L269.761,262.505 Q269.432,296.706 269.666,317.362 273.257,320.622 275.762,325.725 277.321,328.796 280.487,336.215 281.904,339.239 282.755,346.042 283.369,351.476 287.102,356.532 290.362,360.974 294.473,364.234 298.158,367.116 300.804,371.18 301.796,372.691 306.616,383.37 309.451,389.701 313.089,390.552 314.129,390.788 322.303,394.568 327.878,397.167 331.517,395.75 333.407,394.994 335.816,395.088 337.187,395.135 339.974,395.324 345.361,395.466 350.889,391.025 355.709,387.15 365.3,383.748 373.616,380.819 375.459,378.267 376.735,376.519 378.341,376.472 379.428,376.472 381.554,377.369 386.752,379.637 390.154,378.267 393.698,376.85 402.155,373.353 409.763,370.754 415.196,371.652 418.976,372.266 428.663,376.282 437.546,379.921 442.129,380.157 446.051,380.393 452.902,385.969 458.903,390.883 462.919,389.607 465.376,388.851 467.927,389.56 468.967,389.843 472.133,391.403 477.283,393.812 481.346,391.025 483.756,389.371 487.111,388.52 489.048,388.048 492.734,387.386 499.207,385.874 501.664,380.157 504.83,372.786 507.523,368.25 510.122,363.809 514.421,358.422 516.028,356.39 523.871,349.633 529.4,344.861 530.486,340.467 531.573,336.167 535.164,331.631 539.7,325.82 540.881,323.457 542.535,320.15 544.425,315.661 546.079,312.684 549.386,312.07 552.883,311.456 553.403,313.345 553.639,314.149 553.166,319.205 552.883,322.465 551.324,324.922 L549.859,326.765 551.324,324.922 Q552.883,322.465 553.166,319.205 553.639,314.149 553.403,313.345 552.883,311.456 549.386,312.07 546.079,312.684 544.425,315.661 542.535,320.15 540.881,323.457 539.7,325.82 535.164,331.631 531.573,336.167 530.486,340.467 529.4,344.861 523.871,349.633 516.028,356.39 514.421,358.422 510.122,363.809 507.523,368.25 504.83,372.786 501.664,380.157 499.207,385.874 492.734,387.386 489.048,388.048 487.111,388.52 483.756,389.371 481.346,391.025 477.283,393.812 472.133,391.403 468.967,389.843 467.927,389.56 465.376,388.851 462.919,389.607 458.903,390.883 452.902,385.969 446.051,380.393 442.129,380.157 437.546,379.921 428.663,376.282 418.976,372.266 415.196,371.652 409.763,370.754 402.155,373.353 393.698,376.85 390.154,378.267 386.752,379.637 381.554,377.369 379.428,376.472 378.341,376.472 376.735,376.519 375.459,378.267 373.616,380.819 365.3,383.748 355.709,387.15 350.889,391.025 345.361,395.466 339.974,395.324 337.187,395.135 335.816,395.088 333.407,394.994 331.517,395.75 327.878,397.167 322.303,394.568 314.129,390.788 313.089,390.552 309.451,389.701 306.616,383.37 301.796,372.691 300.804,371.18 298.158,367.116 294.473,364.234 290.362,360.974 287.102,356.532 283.369,351.476 282.755,346.042 281.904,339.239 280.487,336.215 277.321,328.796 275.762,325.725 273.257,320.622 269.666,317.362 269.665,317.48 269.666,317.598 269.903,334.75 270.564,340.94 271.037,345.665 272.832,353.555 274.769,361.824 277.652,371.416 277.888,372.125 284.219,385.213 290.267,397.781 292.299,405.672 296.552,422.399 299.434,426.887 300.993,429.344 304.159,432.321 306.191,434.258 312.144,439.692 313.751,441.204 319.515,448.575 325.185,455.852 326.886,457.364 331.044,461.096 338.888,465.254 345.644,468.798 349.472,473.24 356.417,481.272 362.182,484.391 368.419,487.698 377.822,487.887 378.011,487.887 392.705,490.628 404.707,492.895 410.944,491.195 415.763,489.871 426.206,489.73 436.223,489.588 441.845,487.792 450.492,485.052 456.115,481.177 462.116,476.972 469.061,468.515 472.605,465.349 474.448,463.6 477.708,460.482 478.653,456.088 479.504,452.119 487.914,444.417 496.514,436.573 497.742,432.179 500.294,423.06 504.31,416.634 508.232,410.444 514.28,405.578 518.627,402.128 522.454,391.875 526.328,381.575 529.163,379.165 534.077,375.054 536.676,367.447 538.85,359.32 539.936,356.532 545.276,342.641 549.292,333.332 L552.221,326.765 552.836,328.607 Q554.489,330.592 559.781,331.49 565.31,332.435 569.231,328.088 571.83,325.158 573.011,321.095 573.295,320.055 571.358,309.896 569.184,298.556 569.704,289.862 570.318,279.987 574.949,269.497 577.264,264.158 582.981,254.425 586.903,247.763 587.706,242.518 588.651,236.234 585.344,231.272 580.855,224.516 578.776,223.429 574.949,221.397 568.145,225.744 567.247,229.382 565.168,235.572 561.199,247.479 561.199,251.59 561.199,256.598 559.545,264.3 558.742,268.127 557.891,270.962 548.914,237.887 545.134,225.13 541.637,213.365 531.904,189.125 521.083,162.193 517.256,158.035 512.957,153.357 499.727,142.348 486.355,131.197 480.401,127.322 477.85,125.669 470.715,118.959 465.99,114.518 462.446,114.518 458.005,114.518 453.185,118.108 M517.729,243.983 Q522.879,251.543 522.926,251.59 522.879,251.543 517.729,243.983 513.665,237.982 509.696,235.997 505.491,233.918 493.348,235.43 479.693,237.651 475.204,238.36 468.683,239.399 455.312,244.691 442.365,249.794 436.459,253.48 442.365,249.794 455.312,244.691 468.683,239.399 475.204,238.36 479.693,237.651 493.348,235.43 505.491,233.918 509.696,235.997 513.665,237.982 517.729,243.983 M502.42,261.323 L501.333,266.048 Q499.774,271.34 497.411,274.27 494.435,278.003 489.899,279.42 484.89,280.979 477.094,279.94 464.478,278.286 463.391,260.284 458.217,262.206 452.996,264.631 L448.744,266.71 452.996,264.631 Q458.217,262.206 463.391,260.284 463.462,260.262 463.533,260.236 479.74,254.33 489.851,255.37 494.246,255.834 502.42,261.323 503.385,261.973 504.404,262.694 514.185,269.639 516.784,270.017 514.185,269.639 504.404,262.694 503.385,261.973 502.42,261.323 M506.436,284.145 Q511.114,282.16 512.059,278.995 511.114,282.16 506.436,284.145 502.892,285.61 498.356,286.082 502.892,285.61 506.436,284.145 M474.07,305.502 Q480.496,306.164 485.126,304.037 480.496,306.164 474.07,305.502 467.597,304.84 463.391,301.675 467.597,304.84 474.07,305.502 M451.106,275.215 Q454.508,282.917 461.501,286.082 454.508,282.917 451.106,275.215 M439.814,339.002 L439.766,335.742 439.814,339.002 Q439.719,342.641 438.821,344.72 437.924,346.799 432.632,349.019 L427.481,350.862 Q424.363,351.382 422.756,346.751 422.756,346.94 422.756,347.082 422.756,350.437 420.536,354.075 418.079,357.997 413.306,361.73 408.062,365.84 401.494,365.51 394.312,365.131 386.846,359.367 380.515,354.5 377.916,344.483 375.932,336.97 376.404,328.655 376.688,323.457 381.271,308.668 386.138,293.642 386.846,290.807 387.791,287.264 387.886,275.357 387.791,262.93 387.791,260.567 387.791,255.653 385.665,250.409 382.83,243.557 377.822,241.667 374.75,240.533 368.183,239.777 362.087,239.069 356.087,236.47 347.771,232.831 335.249,230.705 322.445,228.485 316.869,229.855 311.435,231.225 304.82,235.572 298.678,239.683 294.189,244.502 298.678,239.683 304.82,235.572 311.435,231.225 316.869,229.855 322.445,228.485 335.249,230.705 347.771,232.831 356.087,236.47 362.087,239.069 368.183,239.777 374.75,240.533 377.822,241.667 382.83,243.557 385.665,250.409 387.791,255.653 387.791,260.567 387.791,262.93 387.886,275.357 387.791,287.264 386.846,290.807 386.138,293.642 381.271,308.668 376.688,323.457 376.404,328.655 375.932,336.97 377.916,344.483 380.515,354.5 386.846,359.367 394.312,365.131 401.494,365.51 408.062,365.84 413.306,361.73 418.079,357.997 420.536,354.075 422.756,350.437 422.756,347.082 422.756,346.94 422.756,346.751 422.378,345.712 422.095,344.389 L421.339,337.16 422.048,340.514 Q422.709,344.2 422.756,346.751 424.363,351.382 427.481,350.862 L432.632,349.019 Q437.924,346.799 438.821,344.72 439.719,342.641 439.814,339.002 M444.491,400.002 Q447.468,400.758 453.044,405.105 459.092,409.783 461.974,410.87 465.423,412.193 465.423,419.564 465.423,424.383 465.423,424.761 465.612,427.265 466.699,427.88 470.006,429.77 470.951,432.085 472.227,435.109 468.116,437.33 467.408,437.708 455.17,443.283 446.287,447.347 444.019,449.615 442.885,450.749 441.845,453.111 L440.144,457.08 Q437.782,461.521 432.679,460.955 426.536,460.293 422,460.529 417.89,460.766 413.779,461.9 403.904,464.593 400.643,465.16 390.815,466.814 387.791,463.79 377.538,453.678 371.207,449.615 368.75,448.055 365.3,442.433 362.087,437.141 359.394,435.912 356.276,434.495 355.189,432.652 354.197,430.242 352.779,428.352 351.031,425.99 351.031,422.682 L351.362,419.847 Q353.535,413.988 357.457,408.743 359.205,406.428 364.592,400.475 367.19,397.592 372.293,396.411 378.294,394.946 380.657,393.387 383.87,391.261 390.296,391.025 397.714,390.788 399.604,390.08 402.108,389.182 410.755,390.316 419.827,391.544 423.701,390.552 428.096,389.465 434.805,394.049 442.979,399.624 444.491,400.002 M369.317,261.985 Q360.405,257.528 357.173,256.031 L357.599,257.118 Q357.882,259.102 357.032,263.402 355.898,269.309 351.976,272.285 347.156,276.018 337.659,275.687 328.634,275.357 324.335,269.497 321.689,265.765 320.507,258.583 309.268,262.938 306.474,266.71 309.268,262.938 320.507,258.583 320.67,258.553 320.838,258.488 327.311,256.078 334.966,254.047 341.581,252.299 344.274,252.062 347.629,251.779 356.276,255.606 356.654,255.774 357.173,256.031 360.405,257.528 369.317,261.985 M364.781,279.987 Q367.427,276.538 367.427,272.852 367.427,276.538 364.781,279.987 362.324,283.153 358.922,284.665 362.324,283.153 364.781,279.987 M311.483,284.617 Q315.924,288.303 320.649,289.39 315.924,288.303 311.483,284.617 306.852,280.743 304.112,275.215 306.852,280.743 311.483,284.617 M320.177,297.895 Q325.091,302.195 327.17,303.045 332.556,305.219 340.494,302.147 332.556,305.219 327.17,303.045 325.091,302.195 320.177,297.895 M507.287,83.758 Q502.467,82.34 500.341,80.97 497.411,79.175 496.939,76.245 496.041,70.953 504.215,65.992 508.279,63.488 512.531,62.07 508.421,61.598 502.987,61.834 492.119,62.306 485.599,65.85 482.102,67.787 479.126,67.315 477.141,67.031 474.212,65.283 470.762,63.204 469.203,62.684 466.037,61.598 462.446,62.543 456.446,64.102 445.011,58.715 438.302,55.55 437.404,55.171 433.766,53.754 432.206,54.51 429.041,56.117 409.148,55.219 391.571,54.415 382.547,53.093 376.593,52.195 367.663,44.777 L359.867,37.5 360.528,40.76 Q361.237,44.588 361.331,47.612 361.709,57.156 356.087,54.51 350.464,51.864 338.557,51.486 L327.737,51.675 335.486,58.763 Q342.195,65.614 337.187,64.433 332.178,63.251 321.641,67.504 L312.144,71.993 314.318,72.134 Q316.822,72.418 318.476,73.127 323.768,75.347 318.759,80.97 308.128,92.877 302.741,99.776 291.212,114.565 281.432,132.047 273.494,146.222 270.848,179.534 269.194,200.654 269.855,224.988 269.95,229.524 270.092,232.217 278.124,204.812 280.014,194.89 281.573,186.81 283.322,182.274 285.448,176.746 289.464,171.737 295.134,164.65 313.562,140.552 316.727,136.489 324.24,129.07 328.445,124.96 336.714,116.88 341.534,112.013 347.015,109.604 350.322,108.139 357.977,105.54 360.953,104.406 362.229,104.973 363.269,105.398 363.836,107.336 364.166,108.422 364.97,111.257 365.962,113.809 367.899,115.462 369.458,116.786 377.302,126.047 383.35,133.229 387.791,134.882 391.619,136.3 406.313,142.49 420.158,147.923 425.119,147.64 430.411,147.309 437.687,138.71 443.263,132.189 446.381,125.905 448.602,121.463 453.185,118.108 458.005,114.518 462.446,114.518 465.99,114.518 470.715,118.959 477.85,125.669 480.401,127.322 486.355,131.197 499.727,142.348 512.957,153.357 517.256,158.035 521.083,162.193 531.904,189.125 541.637,213.365 545.134,225.13 548.914,237.887 557.891,270.962 558.742,268.127 559.545,264.3 561.199,256.598 561.199,251.59 561.199,247.479 565.168,235.572 567.247,229.382 568.145,225.744 568.853,222.626 568.759,221.35 568.523,218.751 567.247,210.86 565.735,201.883 564.979,195.362 562.286,172.163 561.908,168.383 559.97,149.577 560.254,143.86 560.585,137.434 546.362,117.022 532.66,97.319 524.344,90.893 519.95,87.491 507.287,83.758Z" test="JeanRenoFace" vector-effect="non-scaling-stroke" stroke-width="1"/>
        <path id="Layer3_0_1_STROKES" stroke="#FFF" stroke-width="1.89" stroke-linejoin="round" stroke-linecap="round" fill="none" d="M270.092,232.217 Q269.95,229.524 269.855,224.988 269.194,200.654 270.848,179.534 273.494,146.222 281.432,132.047 291.212,114.565 302.741,99.776 308.128,92.877 318.759,80.97 323.768,75.347 318.476,73.127 316.822,72.418 314.318,72.134 L312.144,71.993 321.641,67.504 Q332.178,63.251 337.187,64.433 342.195,65.614 335.486,58.763 L327.737,51.675 338.557,51.486 Q350.464,51.864 356.087,54.51 361.709,57.156 361.331,47.612 361.237,44.588 360.528,40.76 L359.867,37.5 367.663,44.777 Q376.593,52.195 382.547,53.093 391.571,54.415 409.148,55.219 429.041,56.117 432.206,54.51 433.766,53.754 437.404,55.171 438.302,55.55 445.011,58.715 456.446,64.102 462.446,62.543 466.037,61.598 469.203,62.684 470.762,63.204 474.212,65.283 477.141,67.031 479.126,67.315 482.102,67.787 485.599,65.85 492.119,62.306 502.987,61.834 508.421,61.598 512.531,62.07 508.279,63.488 504.215,65.992 496.041,70.953 496.939,76.245 497.411,79.175 500.341,80.97 502.467,82.34 507.287,83.758 519.95,87.491 524.344,90.893 532.66,97.319 546.362,117.022 560.585,137.434 560.254,143.86 559.97,149.577 561.908,168.383 562.286,172.163 564.979,195.362 565.735,201.883 567.247,210.86 568.523,218.751 568.759,221.35 568.853,222.626 568.145,225.744 574.949,221.397 578.776,223.429 580.855,224.516 585.344,231.272 588.651,236.234 587.706,242.518 586.903,247.763 582.981,254.425 577.264,264.158 574.949,269.497 570.318,279.987 569.704,289.862 569.184,298.556 571.358,309.896 573.295,320.055 573.011,321.095 571.83,325.158 569.231,328.088 565.31,332.435 559.781,331.49 554.489,330.592 552.836,328.607 L552.221,326.765 549.292,333.332 Q545.276,342.641 539.936,356.532 538.85,359.32 536.676,367.447 534.077,375.054 529.163,379.165 526.328,381.575 522.454,391.875 518.627,402.128 514.28,405.578 508.232,410.444 504.31,416.634 500.294,423.06 497.742,432.179 496.514,436.573 487.914,444.417 479.504,452.119 478.653,456.088 477.708,460.482 474.448,463.6 472.605,465.349 469.061,468.515 462.116,476.972 456.115,481.177 450.492,485.052 441.845,487.792 436.223,489.588 426.206,489.73 415.763,489.871 410.944,491.195 404.707,492.895 392.705,490.628 378.011,487.887 377.822,487.887 368.419,487.698 362.182,484.391 356.417,481.272 349.472,473.24 345.644,468.798 338.888,465.254 331.044,461.096 326.886,457.364 325.185,455.852 319.515,448.575 313.751,441.204 312.144,439.692 306.191,434.258 304.159,432.321 300.993,429.344 299.434,426.887 296.552,422.399 292.299,405.672 290.267,397.781 284.219,385.213 277.888,372.125 277.652,371.416 274.769,361.824 272.832,353.555 271.037,345.665 270.564,340.94 269.903,334.75 269.666,317.598 269.665,317.48 269.666,317.362 269.432,296.706 269.761,262.505 L270.092,232.217 Q278.124,204.812 280.014,194.89 281.573,186.81 283.322,182.274 285.448,176.746 289.464,171.737 295.134,164.65 313.562,140.552 316.727,136.489 324.24,129.07 328.445,124.96 336.714,116.88 341.534,112.013 347.015,109.604 350.322,108.139 357.977,105.54 360.953,104.406 362.229,104.973 363.269,105.398 363.836,107.336 364.166,108.422 364.97,111.257 365.962,113.809 367.899,115.462 369.458,116.786 377.302,126.047 383.35,133.229 387.791,134.882 391.619,136.3 406.313,142.49 420.158,147.923 425.119,147.64 430.411,147.309 437.687,138.71 443.263,132.189 446.381,125.905 448.602,121.463 453.185,118.108 458.005,114.518 462.446,114.518 465.99,114.518 470.715,118.959 477.85,125.669 480.401,127.322 486.355,131.197 499.727,142.348 512.957,153.357 517.256,158.035 521.083,162.193 531.904,189.125 541.637,213.365 545.134,225.13 548.914,237.887 557.891,270.962 558.742,268.127 559.545,264.3 561.199,256.598 561.199,251.59 561.199,247.479 565.168,235.572 567.247,229.382 568.145,225.744 M436.459,253.48 Q442.365,249.794 455.312,244.691 468.683,239.399 475.204,238.36 479.693,237.651 493.348,235.43 505.491,233.918 509.696,235.997 513.665,237.982 517.729,243.983 522.879,251.543 522.926,251.59 M463.391,260.284 Q464.478,278.286 477.094,279.94 484.89,280.979 489.899,279.42 494.435,278.003 497.411,274.27 499.774,271.34 501.333,266.048 L502.42,261.323 Q494.246,255.834 489.851,255.37 479.74,254.33 463.533,260.236 463.462,260.262 463.391,260.284 458.217,262.206 452.996,264.631 L448.744,266.71 M502.42,261.323 Q503.385,261.973 504.404,262.694 514.185,269.639 516.784,270.017 M498.356,286.082 Q502.892,285.61 506.436,284.145 511.114,282.16 512.059,278.995 M269.666,317.362 Q273.257,320.622 275.762,325.725 277.321,328.796 280.487,336.215 281.904,339.239 282.755,346.042 283.369,351.476 287.102,356.532 290.362,360.974 294.473,364.234 298.158,367.116 300.804,371.18 301.796,372.691 306.616,383.37 309.451,389.701 313.089,390.552 314.129,390.788 322.303,394.568 327.878,397.167 331.517,395.75 333.407,394.994 335.816,395.088 337.187,395.135 339.974,395.324 345.361,395.466 350.889,391.025 355.709,387.15 365.3,383.748 373.616,380.819 375.459,378.267 376.735,376.519 378.341,376.472 379.428,376.472 381.554,377.369 386.752,379.637 390.154,378.267 393.698,376.85 402.155,373.353 409.763,370.754 415.196,371.652 418.976,372.266 428.663,376.282 437.546,379.921 442.129,380.157 446.051,380.393 452.902,385.969 458.903,390.883 462.919,389.607 465.376,388.851 467.927,389.56 468.967,389.843 472.133,391.403 477.283,393.812 481.346,391.025 483.756,389.371 487.111,388.52 489.048,388.048 492.734,387.386 499.207,385.874 501.664,380.157 504.83,372.786 507.523,368.25 510.122,363.809 514.421,358.422 516.028,356.39 523.871,349.633 529.4,344.861 530.486,340.467 531.573,336.167 535.164,331.631 539.7,325.82 540.881,323.457 542.535,320.15 544.425,315.661 546.079,312.684 549.386,312.07 552.883,311.456 553.403,313.345 553.639,314.149 553.166,319.205 552.883,322.465 551.324,324.922 L549.859,326.765 M488.434,261.985 L492.214,262.93 M463.391,301.675 Q467.597,304.84 474.07,305.502 480.496,306.164 485.126,304.037 M451.106,275.215 Q454.508,282.917 461.501,286.082 M422.756,346.751 Q424.363,351.382 427.481,350.862 L432.632,349.019 Q437.924,346.799 438.821,344.72 439.719,342.641 439.814,339.002 L439.766,335.742 M422.756,346.751 Q422.709,344.2 422.048,340.514 L421.339,337.16 422.095,344.389 Q422.378,345.712 422.756,346.751 422.756,346.94 422.756,347.082 422.756,350.437 420.536,354.075 418.079,357.997 413.306,361.73 408.062,365.84 401.494,365.51 394.312,365.131 386.846,359.367 380.515,354.5 377.916,344.483 375.932,336.97 376.404,328.655 376.688,323.457 381.271,308.668 386.138,293.642 386.846,290.807 387.791,287.264 387.886,275.357 387.791,262.93 387.791,260.567 387.791,255.653 385.665,250.409 382.83,243.557 377.822,241.667 374.75,240.533 368.183,239.777 362.087,239.069 356.087,236.47 347.771,232.831 335.249,230.705 322.445,228.485 316.869,229.855 311.435,231.225 304.82,235.572 298.678,239.683 294.189,244.502 M366.009,416.067 Q370.167,413.421 375.743,411.815 381.791,410.066 386.846,410.397 389.587,410.586 395.777,412.807 400.974,414.697 405.746,414.177 409.526,413.752 416.614,411.248 422.898,408.98 427.481,408.98 433.34,408.98 438.491,411.342 442.649,413.279 445.909,416.54 M351.362,419.847 Q353.535,413.988 357.457,408.743 359.205,406.428 364.592,400.475 367.19,397.592 372.293,396.411 378.294,394.946 380.657,393.387 383.87,391.261 390.296,391.025 397.714,390.788 399.604,390.08 402.108,389.182 410.755,390.316 419.827,391.544 423.701,390.552 428.096,389.465 434.805,394.049 442.979,399.624 444.491,400.002 447.468,400.758 453.044,405.105 459.092,409.783 461.974,410.87 465.423,412.193 465.423,419.564 465.423,424.383 465.423,424.761 465.612,427.265 466.699,427.88 470.006,429.77 470.951,432.085 472.227,435.109 468.116,437.33 467.408,437.708 455.17,443.283 446.287,447.347 444.019,449.615 442.885,450.749 441.845,453.111 L440.144,457.08 Q437.782,461.521 432.679,460.955 426.536,460.293 422,460.529 417.89,460.766 413.779,461.9 403.904,464.593 400.643,465.16 390.815,466.814 387.791,463.79 377.538,453.678 371.207,449.615 368.75,448.055 365.3,442.433 362.087,437.141 359.394,435.912 356.276,434.495 355.189,432.652 354.197,430.242 352.779,428.352 351.031,425.99 351.031,422.682 L351.362,419.847Z M269.147,224.657 Q263.949,217.711 255.822,217.381 247.79,217.097 245.994,223.24 244.766,227.445 251.003,241.006 257.807,255.701 257.807,260.567 257.807,265.765 258.043,284.003 258.043,300.777 256.861,306.4 255.586,312.542 257.854,314.669 259.649,316.322 263.477,315.425 M369.317,261.985 Q360.405,257.528 357.197,256.031 L357.599,257.118 Q357.882,259.102 357.032,263.402 355.898,269.309 351.976,272.285 347.156,276.018 337.659,275.687 328.634,275.357 324.335,269.497 321.689,265.765 320.507,258.606 309.268,262.938 306.474,266.71 M357.197,256.031 Q356.654,255.774 356.276,255.606 347.629,251.779 344.274,252.062 341.581,252.299 334.966,254.047 327.311,256.078 320.838,258.488 320.67,258.553 320.507,258.606 M345.219,258.205 L347.582,258.677 M358.922,284.665 Q362.324,283.153 364.781,279.987 367.427,276.538 367.427,272.852 M304.112,275.215 Q306.852,280.743 311.483,284.617 315.924,288.303 320.649,289.39 M320.177,297.895 Q325.091,302.195 327.17,303.045 332.556,305.219 340.494,302.147 M400.076,400.002 Q408.581,401.42 412.834,401.42 M400.549,422.21 Q404.187,421.737 405.227,421.784 407.447,421.879 410.944,423.155" test="JeanRenoFace"/>
      </g>
      <g id="TearAnimf21r1">
        <use xlink:href="#TearGraphic" transform="matrix(.914 0 0 .914 342.5 367.1)"/>
      </g>
      <g id="TearAnimf6r1">
        <use xlink:href="#TearGraphic" transform="matrix(.914 0 0 .914 342.5 276.45)"/>
      </g>
    </g>
    <g id="BlackMaskRect">
      <path fill="#000" stroke="none" d="M823.45,613.6 L823.45,508.3 -23.6,508.3 -23.6,613.6 823.45,613.6Z" test="BlackMaskRect"/>
    </g>
  </g>
</svg>