<?xml version="1.0" encoding="utf-8"?>
<svg id="EdithAnim06" image-rendering="inherit" baseProfile="basic" version="1.1" x="0px" y="0px" width="800" height="600" xmlns="http://www.w3.org/2000/svg" xmlns:xlink="http://www.w3.org/1999/xlink">
  <defs>
    <g id="TearGraphic" overflow="visible">
      <path id="Layer4_0_1_STROKES" stroke="#0FF" stroke-width="1" stroke-linejoin="round" stroke-linecap="round" fill="none" d="M-1.15 1.6Q-1.25 5.75 -2.25 8.6 -3.4 11.65 -6.8 16.5 -10.25 21.45 -8.25 27.95 -6.25 34.6 -.7 34.8 4.75 35 7.25 30.15 9.3 26.2 8.9 20.65 8.7 17.9 4.8 12.25 .55 6.05 -.7 0" test="TearGraphic"/>
    </g>
  </defs>
  <g id="Jean-Renof152r1" overflow="visible">
    <g id="Jean-Reno-body">
      <path id="Layer2_0_1_STROKES" stroke="#FEB7AE" stroke-width="1.89" stroke-linejoin="round" stroke-linecap="round" fill="none" d="M519.745,322.967 Q525.887,329.11 564.207,335.252 589.958,339.41 617.127,341.867 624.403,342.529 666.976,351.222 703.311,358.594 709.737,356.987 719.518,354.53 726.983,351.553 736.48,347.726 745.647,341.867 754.766,336.008 766.957,334.213 777.163,332.653 785.384,334.307 791.29,335.488 796.96,337.378 799.795,338.323 801.449,339.032 799.795,339.505 797.905,340.497 794.22,342.529 793.322,345.316 792.424,348.104 795.496,350.939 797.055,352.309 798.756,353.16 796.866,353.916 795.165,355.286 791.716,358.027 792.613,360.956 793.511,363.933 799.181,365.209 802.016,365.87 804.662,365.917 L805.702,371.965 Q807.166,378.297 809.387,379.62 811.608,380.943 816.994,378.391 819.688,377.163 821.908,375.604 L823.704,379.62 Q826.161,383.542 829.705,382.927 833.248,382.36 836.225,379.289 837.69,377.73 838.446,376.312 L841.895,377.73 Q845.581,378.911 846.762,377.73 847.943,376.549 848.888,373.241 L849.597,370.17 851.865,383.116 Q853.944,396.913 852.904,400.882 852.81,401.213 851.818,406.08 851.109,409.529 850.211,411.797 847.565,418.554 840.808,422.145 M773.005,376.785 Q781.226,374.8 792.472,376.738 808.867,379.525 817.42,390.487 820.727,394.74 827.626,403.481 833.532,411.183 836.839,417.373 845.77,434.099 842.226,451.203 838.729,468.025 829.374,483.475 825.074,490.563 816.711,500.816 814.348,503.698 805.56,510.597 795.118,518.771 782.407,526.993 746.923,550.003 714.651,559.926 L698.917,564.769 Q701.556,568.07 703.689,578.731 705.862,589.599 704.965,595.6 704.209,600.703 706.902,604.104 707.611,605.05 711.107,607.648 713.895,609.727 718.1,616.342 723.534,624.847 722.447,629.856 721.313,635.29 716.399,640.534 711.958,645.212 708.036,646.393 705.106,647.291 699.531,647.386 L694.57,647.338 700.996,648.661 Q708.225,650.977 712.525,655.843 718.1,662.175 720.368,666.616 723.014,671.719 721.502,674.743 720.463,676.87 717.675,683.296 714.226,689.249 707.8,692.226 701.799,695.014 688.711,691.942 682.143,690.194 679.355,689.485 674.63,688.304 672.835,688.446 670.472,688.635 651.903,693.36 633.097,698.179 626.53,698.841 619.631,699.55 611.362,696.053 607.488,694.257 605.929,693.643 603.377,692.556 602.196,692.698 598.416,692.887 596.479,693.123 593.124,693.596 590.62,695.533 587.785,697.707 583.91,696.762 580.225,695.864 579.28,693.407 578.193,690.619 578.287,688.966 578.429,686.65 580.697,684.902 582.776,683.296 586.084,682.728 587.737,682.492 588.966,682.54 588.068,681.5 587.454,680.13 586.225,677.389 587.548,675.925 589.013,674.318 592.84,673.515 596.053,672.853 598.652,673.09 599.786,673.184 597.235,671.389 594.069,669.168 595.108,668.128 596.337,666.9 599.503,666.994 600.967,667.041 604.558,667.656 605.787,667.845 607.771,669.262 609.189,670.302 610.228,669.782 613.536,668.128 617.977,666.049 624.781,662.884 627.475,661.986 631.727,660.568 635.98,659.623 M531.746,324.054 Q535.904,322.069 550.788,313.186 564.774,305.296 569.782,305.154 582.776,304.776 586.792,305.154 599.597,306.335 611.41,312.241 636.736,324.904 640.374,326.794 656.581,335.394 663.621,341.064 670.425,346.545 676.095,349.805 678.93,351.459 680.395,351.979 M509.066,388.078 Q509.066,384.014 510.058,379.006 512.09,368.941 517.099,364.216 527.635,354.294 541.196,356.42 546.394,357.223 556.552,363.46 565.908,369.178 568.365,372.249 570.302,374.659 575.122,375.556 578.807,376.265 583.721,376.029 586.367,375.934 600.306,374.942 613.725,374.186 617.552,375.084 623.884,376.549 638.531,381.51 655.305,387.227 658.423,389.731 660.786,391.621 668.818,398.614 676.331,404.851 679.213,406.033 682.521,407.356 683.041,408.253 683.371,408.868 682.757,411.041 682.521,411.892 683.041,418.176 683.56,425.027 682.757,430.414 681.765,437.076 676.662,454.511 671.842,470.954 669.291,477.191 667.212,482.341 660.644,493.776 654.643,504.218 652.517,506.959 651.052,508.896 647.745,512.818 L644.721,516.409 649.257,517.165 Q654.36,518.157 657.006,519.48 659.132,520.567 663.763,522.74 667.637,525.008 669.763,528.457 672.551,532.993 673.213,535.261 674.063,538.238 673.071,541.687 672.079,545.089 669.716,548.728 667.779,551.704 665.511,553.972 662.44,557.044 660.55,558.555 657.195,561.249 654.88,561.532 651.808,561.958 650.391,561.816 648.217,561.579 644.485,560.115 641.461,558.934 639.334,556.477 636.358,553.075 634.326,551.61 631.491,549.531 630.026,546.601 628.183,542.821 626.293,540.742 623.175,537.293 621.143,536.065 619.678,535.214 616.843,534.6 614.575,534.127 614.197,534.222 612.827,534.836 610.465,535.781 606.212,537.954 604.606,538.569 602.007,539.514 600.542,537.435 598.227,534.222 597.849,533.135 597.093,531.009 598.18,527.985 599.503,524.394 600.022,523.685 600.826,522.693 603.85,521.37 608.386,519.338 614.481,521.37 615.142,521.606 614.481,518.157 612.78,508.896 612.733,508.66 610.087,491.933 612.591,478.609 614.906,466.465 621.049,447.896 626.01,432.918 625.585,431.359 625.065,429.421 611.221,429.988 595.817,430.65 593.455,429.705 590.809,428.665 575.972,424.649 562.128,420.869 561.277,420.255 M488.512,398.52 Q501.742,410.852 509.161,416.097 528.911,430.13 553.009,437.029 576.634,443.833 598.888,451.156 609.992,454.795 616.371,457.11 M645.382,654.426 Q644.39,650.268 626.482,617.949 608.244,584.968 606.874,580.716 604.133,572.116 602.007,561.958 599.408,549.578 600.495,546.885 601.582,544.286 604.558,541.593 606.496,539.797 608.764,538.38 M635.696,649.701 Q634.42,650.646 632.436,651.544 628.561,653.386 625.301,653.245 621.946,653.103 615.757,650.646 611.268,648.85 608.527,647.338 607.535,646.771 606.779,644.645 606.118,642.85 604.984,642.85 603.85,642.85 601.393,644.976 598.605,647.386 597.424,647.811 595.628,648.472 592.037,647.527 588.871,646.677 587.029,645.448 585.564,644.503 585.186,642.33 584.95,640.818 585.139,637.652 585.28,635.337 586.603,633.967 586.651,633.872 589.627,631.51 591.092,630.328 592.651,629.856 593.407,629.62 593.88,629.62 M602.149,630.092 Q601.96,629.289 602.196,628.249 602.574,626.17 604.511,625.131 606.448,624.091 609.756,624.422 611.599,624.611 614.67,625.131 616.04,625.273 618.592,626.406 621.001,627.493 621.757,627.493 M635.98,666.947 Q628.845,670.68 621.049,674.46 605.551,682.114 602.432,682.54 599.314,682.965 595.959,682.823 L593.218,682.54 M698.917,564.769 L698.869,564.793 Q680.395,570.463 679.969,570.463 679.875,570.463 684.222,586.669 688.474,604.719 687.718,613.318 L685.923,633.069 Q684.553,653.481 686.773,657.025" test="Jean Reno body"/>
    </g>
    <g id="Jean-Renof83r1">
      <g id="JeanRenoFace">
        <path fill="#000" stroke="none" d="M458.135,120.759 Q453.552,124.113 451.331,128.555 448.213,134.839 442.637,141.36 435.361,149.959 430.069,150.29 425.108,150.573 411.263,145.14 396.569,138.95 392.741,137.532 388.3,135.879 382.252,128.696 374.408,119.435 372.849,118.112 370.912,116.459 369.92,113.907 369.116,111.072 368.786,109.986 368.219,108.048 367.179,107.623 365.903,107.056 362.927,108.19 355.272,110.789 351.965,112.254 346.484,114.663 341.664,119.53 333.395,127.61 329.19,131.721 321.677,139.139 318.512,143.202 300.084,167.3 294.414,174.387 290.398,179.396 288.272,184.924 286.523,189.46 284.964,197.54 283.074,207.462 275.042,234.867 L274.711,265.155 Q274.382,299.356 274.616,320.012 278.207,323.272 280.712,328.375 282.271,331.446 285.437,338.864 286.854,341.888 287.705,348.692 288.319,354.126 292.052,359.182 295.312,363.624 299.423,366.884 303.108,369.766 305.754,373.83 306.746,375.341 311.566,386.02 314.401,392.351 318.039,393.202 319.079,393.438 327.253,397.218 332.828,399.817 336.467,398.4 338.357,397.643 340.766,397.738 342.137,397.785 344.924,397.974 350.311,398.116 355.839,393.674 360.659,389.8 370.25,386.398 378.566,383.468 380.409,380.917 381.685,379.169 383.291,379.121 384.378,379.121 386.504,380.019 391.702,382.287 395.104,380.917 398.648,379.499 407.105,376.003 414.713,373.404 420.146,374.302 423.926,374.916 433.613,378.932 442.496,382.571 447.079,382.807 451.001,383.043 457.852,388.619 463.853,393.533 467.869,392.257 470.326,391.501 472.877,392.21 473.917,392.493 477.083,394.052 482.233,396.462 486.296,393.674 488.706,392.021 492.061,391.17 493.998,390.698 497.684,390.036 504.157,388.524 506.614,382.807 509.78,375.436 512.473,370.9 515.072,366.458 519.371,361.072 520.978,359.04 528.821,352.283 534.35,347.511 535.436,343.117 536.523,338.817 540.114,334.281 544.65,328.47 545.831,326.107 547.485,322.799 549.375,318.311 551.029,315.334 554.336,314.72 557.833,314.105 558.353,315.995 558.589,316.799 558.116,321.855 557.833,325.115 556.274,327.572 L554.809,329.415 556.274,327.572 Q557.833,325.115 558.116,321.855 558.589,316.799 558.353,315.995 557.833,314.105 554.336,314.72 551.029,315.334 549.375,318.311 547.485,322.799 545.831,326.107 544.65,328.47 540.114,334.281 536.523,338.817 535.436,343.117 534.35,347.511 528.821,352.283 520.978,359.04 519.371,361.072 515.072,366.458 512.473,370.9 509.78,375.436 506.614,382.807 504.157,388.524 497.684,390.036 493.998,390.698 492.061,391.17 488.706,392.021 486.296,393.674 482.233,396.462 477.083,394.052 473.917,392.493 472.877,392.21 470.326,391.501 467.869,392.257 463.853,393.533 457.852,388.619 451.001,383.043 447.079,382.807 442.496,382.571 433.613,378.932 423.926,374.916 420.146,374.302 414.713,373.404 407.105,376.003 398.648,379.499 395.104,380.917 391.702,382.287 386.504,380.019 384.378,379.121 383.291,379.121 381.685,379.169 380.409,380.917 378.566,383.468 370.25,386.398 360.659,389.8 355.839,393.674 350.311,398.116 344.924,397.974 342.137,397.785 340.766,397.738 338.357,397.643 336.467,398.4 332.828,399.817 327.253,397.218 319.079,393.438 318.039,393.202 314.401,392.351 311.566,386.02 306.746,375.341 305.754,373.83 303.108,369.766 299.423,366.884 295.312,363.624 292.052,359.182 288.319,354.126 287.705,348.692 286.854,341.888 285.437,338.864 282.271,331.446 280.712,328.375 278.207,323.272 274.616,320.012 274.615,320.13 274.616,320.248 274.853,337.4 275.514,343.59 275.987,348.315 277.782,356.205 279.719,364.474 282.602,374.066 282.838,374.775 289.169,387.863 295.217,400.431 297.249,408.322 301.502,425.049 304.384,429.537 305.943,431.994 309.109,434.971 311.141,436.908 317.094,442.342 318.701,443.854 324.465,451.225 330.135,458.501 331.836,460.013 335.994,463.746 343.838,467.904 350.594,471.448 354.422,475.89 361.367,483.922 367.132,487.04 373.369,490.348 382.772,490.537 382.961,490.537 397.655,493.278 409.657,495.545 415.894,493.845 420.713,492.521 431.156,492.38 441.173,492.238 446.795,490.442 455.442,487.702 461.065,483.827 467.066,479.622 474.011,471.165 477.555,467 479.398,466.25 482.658,463.132 483.603,458.738 484.454,454.769 492.864,447.067 501.464,439.223 502.692,434.829 505.244,425.71 509.26,419.284 513.182,413.094 519.23,408.227 523.577,404.778 527.404,394.525 531.278,384.225 534.113,381.815 539.027,377.704 541.626,370.097 543.8,361.97 544.886,359.182 550.226,345.29 554.242,335.982 L557.171,329.415 557.786,331.257 Q559.439,333.242 564.731,334.14 570.26,335.085 574.181,330.737 576.78,327.808 577.961,323.744 578.245,322.705 576.308,312.546 574.134,301.206 574.654,292.512 575.268,282.637 579.899,272.148 582.214,266.808 587.931,257.075 591.853,250.413 592.656,245.168 593.601,238.884 590.294,233.922 585.805,227.166 583.726,226.079 579.899,224.047 573.095,228.394 572.197,232.032 570.118,238.222 566.149,250.129 566.149,254.24 566.149,259.248 564.495,266.95 563.692,270.777 562.841,273.612 553.864,240.537 550.084,227.78 546.587,216.015 536.854,191.775 526.034,164.843 522.206,160.685 517.907,156.007 504.677,144.998 491.305,133.847 485.351,129.972 482.8,128.319 475.665,121.609 470.94,117.167 467.396,117.167 462.955,117.167 458.135,120.759 M522.679,246.633 Q527.829,254.193 527.876,254.24 527.829,254.193 522.679,246.633 518.615,240.632 514.646,238.647 510.441,236.568 498.298,238.08 484.643,240.301 480.154,241.01 473.633,242.049 460.262,247.341 447.315,252.444 441.409,256.13 447.315,252.444 460.262,247.341 473.633,242.049 480.154,241.01 484.643,240.301 498.298,238.08 510.441,236.568 514.646,238.647 518.615,240.632 522.679,246.633 M507.37,263.973 L506.283,268.698 Q504.724,273.99 502.361,276.92 499.385,280.653 494.849,282.07 489.84,283.629 482.044,282.59 469.428,280.936 468.341,262.934 463.167,264.856 457.946,267.281 L453.694,269.36 457.946,267.281 Q463.167,264.856 468.341,262.934 468.412,262.912 468.483,262.886 484.69,256.98 494.801,258.02 499.196,258.484 507.37,263.973 508.335,264.623 509.354,265.344 519.135,272.289 521.734,272.667 519.135,272.289 509.354,265.344 508.335,264.623 507.37,263.973 M511.386,286.795 Q516.064,284.81 517.009,281.645 516.064,284.81 511.386,286.795 507.842,288.26 503.306,288.732 507.842,288.26 511.386,286.795 M479.02,308.152 Q485.446,308.814 490.076,306.687 485.446,308.814 479.02,308.152 472.547,307.49 468.341,304.325 472.547,307.49 479.02,308.152 M456.056,277.865 Q459.458,285.566 466.451,288.732 459.458,285.566 456.056,277.865 M444.764,341.652 L444.716,338.392 444.764,341.652 Q444.669,345.29 443.771,347.369 442.874,349.448 437.582,351.669 L432.431,353.512 Q429.313,354.032 427.706,349.401 427.706,349.59 427.706,349.732 427.706,353.087 425.486,356.725 423.029,360.647 418.256,364.38 413.012,368.49 406.444,368.16 399.262,367.781 391.796,362.017 385.465,357.15 382.866,347.133 380.882,339.62 381.354,331.304 381.638,326.107 386.221,311.318 391.088,296.292 391.796,293.457 392.741,289.914 392.836,278.006 392.741,265.58 392.741,263.217 392.741,258.303 390.615,253.059 387.78,246.207 382.772,244.317 379.7,243.183 373.133,242.427 367.037,241.719 361.037,239.12 352.721,235.481 340.199,233.355 327.395,231.135 321.819,232.505 316.385,233.875 309.77,238.222 303.628,242.333 299.139,247.152 303.628,242.333 309.77,238.222 316.385,233.875 321.819,232.505 327.395,231.135 340.199,233.355 352.721,235.481 361.037,239.12 367.037,241.719 373.133,242.427 379.7,243.183 382.772,244.317 387.78,246.207 390.615,253.059 392.741,258.303 392.741,263.217 392.741,265.58 392.836,278.006 392.741,289.914 391.796,293.457 391.088,296.292 386.221,311.318 381.638,326.107 381.354,331.304 380.882,339.62 382.866,347.133 385.465,357.15 391.796,362.017 399.262,367.781 406.444,368.16 413.012,368.49 418.256,364.38 423.029,360.647 425.486,356.725 427.706,353.087 427.706,349.732 427.706,349.59 427.706,349.401 427.328,348.362 427.045,347.039 L426.289,339.809 426.998,343.164 Q427.659,346.85 427.706,349.401 429.313,354.032 432.431,353.512 L437.582,351.669 Q442.874,349.448 443.771,347.369 444.669,345.29 444.764,341.652 M449.441,402.652 Q452.418,403.408 457.994,407.755 464.042,412.433 466.924,413.52 470.373,414.843 470.373,422.213 470.373,427.033 470.373,427.411 470.562,429.915 471.649,430.53 474.956,432.42 475.901,434.735 477.177,437.759 473.066,439.98 472.358,440.357 460.12,445.933 451.237,449.996 448.969,452.265 447.835,453.398 446.795,455.761 L445.094,459.73 Q442.732,464.171 437.629,463.605 431.486,462.943 426.95,463.179 422.84,463.415 418.729,464.549 408.854,467.243 405.593,467.81 395.765,469.463 392.741,466.439 382.488,456.328 376.157,452.265 373.7,450.705 370.25,445.083 367.037,439.79 364.344,438.562 361.226,437.145 360.139,435.302 359.147,432.892 357.729,431.002 355.981,428.64 355.981,425.332 L356.312,422.497 Q358.485,416.638 362.407,411.393 364.155,409.078 369.542,403.124 372.14,400.242 377.243,399.061 383.244,397.596 385.607,396.037 388.82,393.911 395.246,393.674 402.664,393.438 404.554,392.73 407.058,391.832 415.705,392.966 424.777,394.194 428.651,393.202 433.046,392.115 439.755,396.698 447.929,402.274 449.441,402.652 M374.267,264.635 Q365.355,260.178 362.123,258.681 L362.549,259.768 Q362.832,261.753 361.982,266.052 360.848,271.959 356.926,274.935 352.106,278.668 342.609,278.337 333.584,278.006 329.285,272.148 326.639,268.415 325.457,261.233 314.218,265.588 311.424,269.36 314.218,265.588 325.457,261.233 325.62,261.203 325.788,261.138 332.261,258.729 339.916,256.697 346.531,254.949 349.224,254.712 352.579,254.429 361.226,258.256 361.604,258.424 362.123,258.681 365.355,260.178 374.267,264.635 M369.731,282.637 Q372.377,279.188 372.377,275.502 372.377,279.188 369.731,282.637 367.274,285.803 363.872,287.315 367.274,285.803 369.731,282.637 M316.433,287.268 Q320.874,290.953 325.599,292.04 320.874,290.953 316.433,287.268 311.802,283.393 309.062,277.865 311.802,283.393 316.433,287.268 M325.127,300.545 Q330.041,304.845 332.12,305.695 337.506,307.869 345.444,304.797 337.506,307.869 332.12,305.695 330.041,304.845 325.127,300.545 M512.237,86.408 Q507.417,84.99 505.291,83.62 502.361,81.825 501.889,78.895 500.991,73.603 509.165,68.642 513.229,66.137 517.481,64.72 513.371,64.248 507.937,64.484 497.069,64.956 490.549,68.5 487.052,70.437 484.076,69.965 482.091,69.681 479.162,67.933 475.712,65.854 474.153,65.334 470.987,64.248 467.396,65.192 461.396,66.752 449.961,61.365 443.252,58.2 442.354,57.822 438.716,56.404 437.156,57.16 433.991,58.766 414.098,57.869 396.521,57.066 387.497,55.743 381.543,54.845 372.613,47.427 L364.817,40.15 365.478,43.41 Q366.187,47.238 366.281,50.262 366.659,59.806 361.037,57.16 355.414,54.514 343.507,54.136 L332.687,54.325 340.436,61.412 Q347.145,68.264 342.137,67.083 337.128,65.901 326.591,70.154 L317.094,74.643 319.268,74.784 Q321.772,75.068 323.426,75.777 328.718,77.997 323.709,83.62 313.078,95.527 307.691,102.426 296.162,117.215 286.382,134.697 278.444,148.872 275.798,182.184 274.144,203.304 274.805,227.638 274.9,232.174 275.042,234.867 283.074,207.462 284.964,197.54 286.523,189.46 288.272,184.924 290.398,179.396 294.414,174.387 300.084,167.3 318.512,143.202 321.677,139.139 329.19,131.721 333.395,127.61 341.664,119.53 346.484,114.663 351.965,112.254 355.272,110.789 362.927,108.19 365.903,107.056 367.179,107.623 368.219,108.048 368.786,109.986 369.116,111.072 369.92,113.907 370.912,116.459 372.849,118.112 374.408,119.435 382.252,128.696 388.3,135.879 392.741,137.532 396.569,138.95 411.263,145.14 425.108,150.573 430.069,150.29 435.361,149.959 442.637,141.36 448.213,134.839 451.331,128.555 453.552,124.113 458.135,120.759 462.955,117.167 467.396,117.167 470.94,117.167 475.665,121.609 482.8,128.319 485.351,129.972 491.305,133.847 504.677,144.998 517.907,156.007 522.206,160.685 526.034,164.843 536.854,191.775 546.587,216.015 550.084,227.78 553.864,240.537 562.841,273.612 563.692,270.777 564.495,266.95 566.149,259.248 566.149,254.24 566.149,250.129 570.118,238.222 572.197,232.032 573.095,228.394 573.803,225.276 573.709,224 573.473,221.401 572.197,213.51 570.685,204.533 569.929,198.012 567.236,174.813 566.858,171.033 564.92,152.227 565.204,146.51 565.535,140.084 551.312,119.672 537.61,99.968 529.294,93.542 524.9,90.141 512.237,86.408Z" test="JeanRenoFace" vector-effect="non-scaling-stroke" stroke-width="1"/>
        <path id="Layer3_0_1_STROKES" stroke="#FFF" stroke-width="1.89" stroke-linejoin="round" stroke-linecap="round" fill="none" d="M275.042,234.867 Q274.9,232.174 274.805,227.638 274.144,203.304 275.798,182.184 278.444,148.872 286.382,134.697 296.162,117.215 307.691,102.426 313.078,95.527 323.709,83.62 328.718,77.997 323.426,75.777 321.772,75.068 319.268,74.784 L317.094,74.643 326.591,70.154 Q337.128,65.901 342.137,67.083 347.145,68.264 340.436,61.412 L332.687,54.325 343.507,54.136 Q355.414,54.514 361.037,57.16 366.659,59.806 366.281,50.262 366.187,47.238 365.478,43.41 L364.817,40.15 372.613,47.427 Q381.543,54.845 387.497,55.743 396.521,57.066 414.098,57.869 433.991,58.766 437.156,57.16 438.716,56.404 442.354,57.822 443.252,58.2 449.961,61.365 461.396,66.752 467.396,65.192 470.987,64.248 474.153,65.334 475.712,65.854 479.162,67.933 482.091,69.681 484.076,69.965 487.052,70.437 490.549,68.5 497.069,64.956 507.937,64.484 513.371,64.248 517.481,64.72 513.229,66.137 509.165,68.642 500.991,73.603 501.889,78.895 502.361,81.825 505.291,83.62 507.417,84.99 512.237,86.408 524.9,90.141 529.294,93.542 537.61,99.968 551.312,119.672 565.535,140.084 565.204,146.51 564.92,152.227 566.858,171.033 567.236,174.813 569.929,198.012 570.685,204.533 572.197,213.51 573.473,221.401 573.709,224 573.803,225.276 573.095,228.394 579.899,224.047 583.726,226.079 585.805,227.166 590.294,233.922 593.601,238.884 592.656,245.168 591.853,250.413 587.931,257.075 582.214,266.808 579.899,272.148 575.268,282.637 574.654,292.512 574.134,301.206 576.308,312.546 578.245,322.705 577.961,323.744 576.78,327.808 574.181,330.737 570.26,335.085 564.731,334.14 559.439,333.242 557.786,331.257 L557.171,329.415 554.242,335.982 Q550.226,345.29 544.886,359.182 543.8,361.97 541.626,370.097 539.027,377.704 534.113,381.815 531.278,384.225 527.404,394.525 523.577,404.778 519.23,408.227 513.182,413.094 509.26,419.284 505.244,425.71 502.692,434.829 501.464,439.223 492.864,447.067 484.454,454.769 483.603,458.738 482.658,463.132 479.398,466.25 477.555,467 474.011,471.165 467.066,479.622 461.065,483.827 455.442,487.702 446.795,490.442 441.173,492.238 431.156,492.38 420.713,492.521 415.894,493.845 409.657,495.545 397.655,493.278 382.961,490.537 382.772,490.537 373.369,490.348 367.132,487.04 361.367,483.922 354.422,475.89 350.594,471.448 343.838,467.904 335.994,463.746 331.836,460.013 330.135,458.501 324.465,451.225 318.701,443.854 317.094,442.342 311.141,436.908 309.109,434.971 305.943,431.994 304.384,429.537 301.502,425.049 297.249,408.322 295.217,400.431 289.169,387.863 282.838,374.775 282.602,374.066 279.719,364.474 277.782,356.205 275.987,348.315 275.514,343.59 274.853,337.4 274.616,320.248 274.615,320.13 274.616,320.012 274.382,299.356 274.711,265.155 L275.042,234.867 Q283.074,207.462 284.964,197.54 286.523,189.46 288.272,184.924 290.398,179.396 294.414,174.387 300.084,167.3 318.512,143.202 321.677,139.139 329.19,131.721 333.395,127.61 341.664,119.53 346.484,114.663 351.965,112.254 355.272,110.789 362.927,108.19 365.903,107.056 367.179,107.623 368.219,108.048 368.786,109.986 369.116,111.072 369.92,113.907 370.912,116.459 372.849,118.112 374.408,119.435 382.252,128.696 388.3,135.879 392.741,137.532 396.569,138.95 411.263,145.14 425.108,150.573 430.069,150.29 435.361,149.959 442.637,141.36 448.213,134.839 451.331,128.555 453.552,124.113 458.135,120.759 462.955,117.167 467.396,117.167 470.94,117.167 475.665,121.609 482.8,128.319 485.351,129.972 491.305,133.847 504.677,144.998 517.907,156.007 522.206,160.685 526.034,164.843 536.854,191.775 546.587,216.015 550.084,227.78 553.864,240.537 562.841,273.612 563.692,270.777 564.495,266.95 566.149,259.248 566.149,254.24 566.149,250.129 570.118,238.222 572.197,232.032 573.095,228.394 M441.409,256.13 Q447.315,252.444 460.262,247.341 473.633,242.049 480.154,241.01 484.643,240.301 498.298,238.08 510.441,236.568 514.646,238.647 518.615,240.632 522.679,246.633 527.829,254.193 527.876,254.24 M468.341,262.934 Q469.428,280.936 482.044,282.59 489.84,283.629 494.849,282.07 499.385,280.653 502.361,276.92 504.724,273.99 506.283,268.698 L507.37,263.973 Q499.196,258.484 494.801,258.02 484.69,256.98 468.483,262.886 468.412,262.912 468.341,262.934 463.167,264.856 457.946,267.281 L453.694,269.36 M507.37,263.973 Q508.335,264.623 509.354,265.344 519.135,272.289 521.734,272.667 M503.306,288.732 Q507.842,288.26 511.386,286.795 516.064,284.81 517.009,281.645 M274.616,320.012 Q278.207,323.272 280.712,328.375 282.271,331.446 285.437,338.864 286.854,341.888 287.705,348.692 288.319,354.126 292.052,359.182 295.312,363.624 299.423,366.884 303.108,369.766 305.754,373.83 306.746,375.341 311.566,386.02 314.401,392.351 318.039,393.202 319.079,393.438 327.253,397.218 332.828,399.817 336.467,398.4 338.357,397.643 340.766,397.738 342.137,397.785 344.924,397.974 350.311,398.116 355.839,393.674 360.659,389.8 370.25,386.398 378.566,383.468 380.409,380.917 381.685,379.169 383.291,379.121 384.378,379.121 386.504,380.019 391.702,382.287 395.104,380.917 398.648,379.499 407.105,376.003 414.713,373.404 420.146,374.302 423.926,374.916 433.613,378.932 442.496,382.571 447.079,382.807 451.001,383.043 457.852,388.619 463.853,393.533 467.869,392.257 470.326,391.501 472.877,392.21 473.917,392.493 477.083,394.052 482.233,396.462 486.296,393.674 488.706,392.021 492.061,391.17 493.998,390.698 497.684,390.036 504.157,388.524 506.614,382.807 509.78,375.436 512.473,370.9 515.072,366.458 519.371,361.072 520.978,359.04 528.821,352.283 534.35,347.511 535.436,343.117 536.523,338.817 540.114,334.281 544.65,328.47 545.831,326.107 547.485,322.799 549.375,318.311 551.029,315.334 554.336,314.72 557.833,314.105 558.353,315.995 558.589,316.799 558.116,321.855 557.833,325.115 556.274,327.572 L554.809,329.415 M493.384,264.635 L497.164,265.58 M468.341,304.325 Q472.547,307.49 479.02,308.152 485.446,308.814 490.076,306.687 M456.056,277.865 Q459.458,285.566 466.451,288.732 M427.706,349.401 Q429.313,354.032 432.431,353.512 L437.582,351.669 Q442.874,349.448 443.771,347.369 444.669,345.29 444.764,341.652 L444.716,338.392 M427.706,349.401 Q427.659,346.85 426.998,343.164 L426.289,339.809 427.045,347.039 Q427.328,348.362 427.706,349.401 427.706,349.59 427.706,349.732 427.706,353.087 425.486,356.725 423.029,360.647 418.256,364.38 413.012,368.49 406.444,368.16 399.262,367.781 391.796,362.017 385.465,357.15 382.866,347.133 380.882,339.62 381.354,331.304 381.638,326.107 386.221,311.318 391.088,296.292 391.796,293.457 392.741,289.914 392.836,278.006 392.741,265.58 392.741,263.217 392.741,258.303 390.615,253.059 387.78,246.207 382.772,244.317 379.7,243.183 373.133,242.427 367.037,241.719 361.037,239.12 352.721,235.481 340.199,233.355 327.395,231.135 321.819,232.505 316.385,233.875 309.77,238.222 303.628,242.333 299.139,247.152 M370.959,418.717 Q375.117,416.071 380.693,414.465 386.741,412.716 391.796,413.047 394.537,413.236 400.727,415.457 405.924,417.347 410.696,416.827 414.476,416.402 421.564,413.898 427.848,411.63 432.431,411.63 438.29,411.63 443.441,413.992 447.599,415.929 450.859,419.189 M356.312,422.497 Q358.485,416.638 362.407,411.393 364.155,409.078 369.542,403.124 372.14,400.242 377.243,399.061 383.244,397.596 385.607,396.037 388.82,393.911 395.246,393.674 402.664,393.438 404.554,392.73 407.058,391.832 415.705,392.966 424.777,394.194 428.651,393.202 433.046,392.115 439.755,396.698 447.929,402.274 449.441,402.652 452.418,403.408 457.994,407.755 464.042,412.433 466.924,413.52 470.373,414.843 470.373,422.213 470.373,427.033 470.373,427.411 470.562,429.915 471.649,430.53 474.956,432.42 475.901,434.735 477.177,437.759 473.066,439.98 472.358,440.357 460.12,445.933 451.237,449.996 448.969,452.265 447.835,453.398 446.795,455.761 L445.094,459.73 Q442.732,464.171 437.629,463.605 431.486,462.943 426.95,463.179 422.84,463.415 418.729,464.549 408.854,467.243 405.593,467.81 395.765,469.463 392.741,466.439 382.488,456.328 376.157,452.265 373.7,450.705 370.25,445.083 367.037,439.79 364.344,438.562 361.226,437.145 360.139,435.302 359.147,432.892 357.729,431.002 355.981,428.64 355.981,425.332 L356.312,422.497Z M274.097,227.307 Q268.899,220.361 260.772,220.031 252.74,219.747 250.944,225.89 249.716,230.095 255.953,243.656 262.757,258.351 262.757,263.217 262.757,268.415 262.993,286.653 262.993,303.427 261.812,309.05 260.536,315.192 262.804,317.319 264.599,318.972 268.427,318.075 M374.267,264.635 Q365.355,260.178 362.147,258.681 L362.549,259.768 Q362.832,261.753 361.982,266.052 360.848,271.959 356.926,274.935 352.106,278.668 342.609,278.337 333.584,278.006 329.285,272.148 326.639,268.415 325.457,261.256 314.218,265.588 311.424,269.36 M362.147,258.681 Q361.604,258.424 361.226,258.256 352.579,254.429 349.224,254.712 346.531,254.949 339.916,256.697 332.261,258.729 325.788,261.138 325.62,261.203 325.457,261.256 M350.169,260.855 L352.532,261.327 M363.872,287.315 Q367.274,285.803 369.731,282.637 372.377,279.188 372.377,275.502 M309.062,277.865 Q311.802,283.393 316.433,287.268 320.874,290.953 325.599,292.04 M325.127,300.545 Q330.041,304.845 332.12,305.695 337.506,307.869 345.444,304.797 M405.026,402.652 Q413.531,404.07 417.784,404.07 M405.499,424.859 Q409.137,424.387 410.177,424.434 412.397,424.529 415.894,425.804" test="JeanRenoFace"/>
      </g>
      <g id="TearAnimf23r1">
        <use xlink:href="#TearGraphic" transform="matrix(.914 0 0 .914 347.45 392.65)"/>
      </g>
      <g id="TearAnimf8r1">
        <use xlink:href="#TearGraphic" transform="matrix(.914 0 0 .914 347.45 282.95)"/>
      </g>
    </g>
    <g id="BlackMaskRect">
      <path fill="#000" stroke="none" d="M823.45,613.6 L823.45,508.3 -23.6,508.3 -23.6,613.6 823.45,613.6Z" test="BlackMaskRect"/>
    </g>
  </g>
</svg>