<?xml version="1.0" encoding="utf-8"?>
<svg id="EdithAnim06" image-rendering="inherit" baseProfile="basic" version="1.1" x="0px" y="0px" width="800" height="600" xmlns="http://www.w3.org/2000/svg" xmlns:xlink="http://www.w3.org/1999/xlink">
  <defs>
    <g id="TearGraphic" overflow="visible">
      <path id="Layer4_0_1_STROKES" stroke="#0FF" stroke-width="1" stroke-linejoin="round" stroke-linecap="round" fill="none" d="M-1.15 1.6Q-1.25 5.75 -2.25 8.6 -3.4 11.65 -6.8 16.5 -10.25 21.45 -8.25 27.95 -6.25 34.6 -.7 34.8 4.75 35 7.25 30.15 9.3 26.2 8.9 20.65 8.7 17.9 4.8 12.25 .55 6.05 -.7 0" test="TearGraphic"/>
    </g>
  </defs>
  <g id="Jean-Renof154r1" overflow="visible">
    <g id="Jean-Reno-body">
      <path id="Layer2_0_1_STROKES" stroke="#FEB7AE" stroke-width="1.89" stroke-linejoin="round" stroke-linecap="round" fill="none" d="M527.495,326.867 Q533.637,333.01 571.957,339.152 597.708,343.31 624.877,345.767 632.153,346.429 674.726,355.123 711.061,362.494 717.487,360.887 727.268,358.43 734.733,355.453 744.23,351.626 753.397,345.767 762.516,339.908 774.707,338.113 784.913,336.553 793.134,338.207 799.04,339.388 804.71,341.278 807.545,342.223 809.199,342.932 807.545,343.405 805.655,344.397 801.97,346.429 801.072,349.216 800.174,352.004 803.246,354.839 804.805,356.209 806.506,357.06 804.616,357.816 802.915,359.186 799.466,361.927 800.363,364.856 801.261,367.833 806.931,369.109 809.766,369.77 812.412,369.817 L813.452,375.865 Q814.916,382.197 817.137,383.52 819.358,384.843 824.744,382.291 827.438,381.063 829.658,379.504 L831.454,383.52 Q833.911,387.442 837.455,386.827 840.998,386.26 843.975,383.189 845.44,381.63 846.196,380.212 L849.645,381.63 Q853.331,382.811 854.512,381.63 855.693,380.449 856.638,377.141 L857.347,374.07 859.615,387.016 Q861.694,400.813 860.654,404.782 860.56,405.113 859.568,409.98 858.859,413.429 857.961,415.697 855.315,422.454 848.558,426.045 M780.755,380.685 Q788.976,378.7 800.222,380.638 816.617,383.425 825.17,394.387 828.477,398.64 835.376,407.381 841.282,415.083 844.589,421.273 853.52,437 849.976,455.104 846.479,471.925 837.124,487.375 832.824,494.463 824.461,504.716 822.098,507.598 813.31,514.497 802.868,522.671 790.157,530.893 754.673,553.903 722.401,563.826 L706.667,568.669 Q709.306,571.97 711.439,582.631 713.612,593.499 712.715,599.5 711.959,604.603 714.652,608.005 715.361,608.95 718.857,611.548 721.645,613.627 725.85,620.242 731.284,628.747 730.197,633.756 729.063,639.19 724.149,644.434 719.708,649.112 715.786,650.293 712.856,651.191 707.281,651.286 L702.32,651.238 708.746,652.561 Q715.975,654.877 720.275,659.743 725.85,666.075 728.118,670.516 730.764,675.619 729.252,678.643 728.213,680.77 725.425,687.196 721.976,693.149 715.55,696.126 709.549,698.914 696.461,695.842 689.893,694.094 687.105,693.385 682.38,692.204 680.585,692.346 678.222,692.535 659.653,697.26 640.847,702.079 634.28,702.741 627.381,703.45 619.112,699.953 615.238,698.158 613.679,697.543 611.127,696.457 609.946,696.598 606.166,696.787 604.229,697.024 600.874,697.496 598.37,699.433 595.535,701.607 591.66,700.662 587.975,699.764 587.03,697.307 585.943,694.519 586.037,692.866 586.179,690.55 588.447,688.802 590.526,687.196 593.834,686.629 595.487,686.392 596.716,686.44 595.818,685.4 595.204,684.03 593.975,681.289 595.298,679.825 596.763,678.218 600.59,677.415 603.803,676.753 606.402,676.99 607.536,677.084 604.985,675.289 601.819,673.068 602.858,672.028 604.087,670.8 607.253,670.894 608.717,670.942 612.308,671.556 613.537,671.745 615.521,673.162 616.939,674.202 617.978,673.682 621.286,672.028 625.727,669.949 632.531,666.784 635.225,665.886 639.477,664.468 643.73,663.523 M539.496,327.954 Q543.654,325.969 558.538,317.086 572.524,309.196 577.532,309.054 590.526,308.676 594.542,309.054 607.347,310.235 619.16,316.141 644.486,328.804 648.124,330.694 664.331,339.294 671.371,344.964 678.175,350.445 683.845,353.705 686.68,355.359 688.145,355.879 M516.816,391.978 Q516.816,387.914 517.808,382.906 519.84,372.841 524.849,368.116 535.385,358.194 548.946,360.32 554.144,361.123 564.302,367.36 573.658,373.078 576.115,376.149 578.052,378.559 582.872,379.456 586.557,380.165 591.471,379.929 594.117,379.834 608.056,378.842 621.475,378.086 625.302,378.984 631.634,380.449 646.281,385.41 663.055,391.127 666.173,393.631 668.536,395.521 676.568,402.514 684.081,408.751 686.963,409.933 690.271,411.256 690.791,412.153 691.121,412.768 690.507,414.941 690.271,415.792 690.791,422.076 691.31,428.927 690.507,434.314 689.515,440.976 684.412,458.411 679.592,474.854 677.041,481.091 674.962,486.241 668.394,497.676 662.393,508.118 660.267,510.859 658.802,512.796 655.495,516.718 L652.471,520.309 657.007,521.065 Q662.11,522.057 664.756,523.38 666.882,524.467 671.513,526.64 675.387,528.908 677.513,532.357 680.301,536.893 680.963,539.161 681.813,542.138 680.821,545.587 679.829,548.989 677.466,552.628 675.529,555.604 673.261,557.872 670.19,560.944 668.3,562.456 664.945,565.149 662.63,565.432 659.558,565.858 658.141,565.716 655.967,565.48 652.235,564.015 649.211,562.834 647.084,560.377 644.108,556.975 642.076,555.51 639.241,553.431 637.776,550.501 635.933,546.721 634.043,544.642 630.925,541.193 628.893,539.965 627.428,539.114 624.593,538.5 622.325,538.027 621.947,538.122 620.577,538.736 618.215,539.681 613.962,541.855 612.356,542.469 609.757,543.414 608.292,541.335 605.977,538.122 605.599,537.035 604.843,534.909 605.93,531.885 607.253,528.294 607.772,527.585 608.576,526.593 611.6,525.27 616.136,523.238 622.231,525.27 622.892,525.506 622.231,522.057 620.53,512.796 620.483,512.56 617.837,495.833 620.341,482.509 622.656,470.365 628.799,451.796 633.76,436.818 633.335,435.259 632.815,433.321 618.971,433.888 603.567,434.55 601.205,433.605 598.559,432.565 583.722,428.549 569.878,424.769 569.027,424.155 M496.262,402.42 Q509.492,414.752 516.911,419.997 536.661,434.03 560.759,440.929 584.384,447.733 606.638,455.056 617.742,458.695 624.121,461.01 M653.132,658.326 Q652.14,654.168 634.232,621.849 615.994,588.868 614.624,584.616 611.883,576.016 609.757,565.858 607.158,553.478 608.245,550.785 609.332,548.186 612.308,545.493 614.246,543.697 616.514,542.28 M643.446,653.601 Q642.17,654.546 640.186,655.444 636.311,657.286 633.051,657.145 629.696,657.003 623.507,654.546 619.018,652.75 616.277,651.238 615.285,650.671 614.529,648.545 613.868,646.75 612.734,646.75 611.6,646.75 609.143,648.876 606.355,651.286 605.174,651.711 603.378,652.372 599.787,651.427 596.621,650.577 594.779,649.348 593.314,648.403 592.936,646.23 592.7,644.718 592.889,641.552 593.03,639.237 594.353,637.867 594.401,637.772 597.377,635.41 598.842,634.228 600.401,633.756 601.157,633.52 601.63,633.52 M609.899,633.992 Q609.71,633.189 609.946,632.149 610.324,630.07 612.261,629.031 614.198,627.991 617.506,628.322 619.349,628.511 622.42,629.031 623.79,629.173 626.342,630.307 628.751,631.393 629.507,631.393 M643.73,670.847 Q636.595,674.58 628.799,678.36 613.301,686.014 610.182,686.44 607.064,686.865 603.709,686.723 L600.968,686.44 M706.667,568.669 L706.619,568.693 Q688.145,574.363 687.719,574.363 687.625,574.363 691.972,590.569 696.224,608.619 695.468,617.218 L693.673,636.969 Q692.303,657.381 694.523,660.925" test="Jean Reno body"/>
    </g>
    <g id="Jean-Renof85r1">
      <g id="JeanRenoFace">
        <path fill="#000" stroke="none" d="M468.185,126.108 Q463.602,129.463 461.381,133.905 458.263,140.189 452.687,146.71 445.411,155.309 440.119,155.64 435.158,155.923 421.313,150.49 406.619,144.3 402.791,142.882 398.35,141.229 392.302,134.046 384.458,124.786 382.899,123.462 380.962,121.809 379.97,119.257 379.166,116.422 378.836,115.336 378.269,113.398 377.229,112.973 375.953,112.406 372.977,113.54 365.322,116.139 362.015,117.604 356.534,120.013 351.714,124.88 343.445,132.96 339.24,137.07 331.727,144.489 328.562,148.552 310.134,172.65 304.464,179.737 300.448,184.746 298.322,190.274 296.573,194.81 295.014,202.89 293.124,212.812 285.092,240.217 L284.761,270.505 Q284.432,304.706 284.666,325.362 288.257,328.622 290.762,333.725 292.321,336.796 295.487,344.215 296.904,347.239 297.755,354.042 298.369,359.476 302.102,364.532 305.362,368.974 309.473,372.234 313.158,375.116 315.804,379.18 316.796,380.691 321.616,391.37 324.451,397.701 328.089,398.552 329.129,398.788 337.303,402.568 342.878,405.167 346.517,403.75 348.407,402.994 350.816,403.088 352.187,403.135 354.974,403.324 360.361,403.466 365.889,399.025 370.709,395.15 380.3,391.748 388.616,388.819 390.459,386.267 391.735,384.519 393.341,384.472 394.428,384.472 396.554,385.369 401.752,387.637 405.154,386.267 408.698,384.85 417.155,381.353 424.763,378.754 430.196,379.652 433.976,380.266 443.663,384.282 452.546,387.921 457.129,388.157 461.051,388.393 467.902,393.969 473.903,398.883 477.919,397.607 480.376,396.851 482.927,397.56 483.967,397.843 487.133,399.403 492.283,401.812 496.346,399.025 498.756,397.371 502.111,396.52 504.048,396.048 507.734,395.386 514.207,393.874 516.664,388.157 519.83,380.786 522.523,376.25 525.122,371.809 529.421,366.422 531.028,364.39 538.871,357.633 544.4,352.861 545.486,348.467 546.573,344.167 550.164,339.631 554.7,333.82 555.881,331.457 557.535,328.15 559.425,323.661 561.079,320.684 564.386,320.07 567.883,319.456 568.403,321.345 568.639,322.149 568.166,327.205 567.883,330.465 566.324,332.922 L564.859,334.765 566.324,332.922 Q567.883,330.465 568.166,327.205 568.639,322.149 568.403,321.345 567.883,319.456 564.386,320.07 561.079,320.684 559.425,323.661 557.535,328.15 555.881,331.457 554.7,333.82 550.164,339.631 546.573,344.167 545.486,348.467 544.4,352.861 538.871,357.633 531.028,364.39 529.421,366.422 525.122,371.809 522.523,376.25 519.83,380.786 516.664,388.157 514.207,393.874 507.734,395.386 504.048,396.048 502.111,396.52 498.756,397.371 496.346,399.025 492.283,401.812 487.133,399.403 483.967,397.843 482.927,397.56 480.376,396.851 477.919,397.607 473.903,398.883 467.902,393.969 461.051,388.393 457.129,388.157 452.546,387.921 443.663,384.282 433.976,380.266 430.196,379.652 424.763,378.754 417.155,381.353 408.698,384.85 405.154,386.267 401.752,387.637 396.554,385.369 394.428,384.472 393.341,384.472 391.735,384.519 390.459,386.267 388.616,388.819 380.3,391.748 370.709,395.15 365.889,399.025 360.361,403.466 354.974,403.324 352.187,403.135 350.816,403.088 348.407,402.994 346.517,403.75 342.878,405.167 337.303,402.568 329.129,398.788 328.089,398.552 324.451,397.701 321.616,391.37 316.796,380.691 315.804,379.18 313.158,375.116 309.473,372.234 305.362,368.974 302.102,364.532 298.369,359.476 297.755,354.042 296.904,347.239 295.487,344.215 292.321,336.796 290.762,333.725 288.257,328.622 284.666,325.362 284.665,325.48 284.666,325.598 284.903,342.75 285.564,348.94 286.037,353.665 287.832,361.555 289.769,369.824 292.652,379.416 292.888,380.125 299.219,393.213 305.267,405.781 307.299,413.672 311.552,430.399 314.434,434.887 315.993,437.344 319.159,440.321 321.191,442.258 327.144,447.692 328.751,449.204 334.515,456.575 340.185,463.852 341.886,465.364 346.044,469.096 353.888,473.254 360.644,476.798 364.472,481.24 371.417,489.272 377.182,492.391 383.419,495.698 392.822,495.887 393.011,495.887 407.705,498.628 419.707,500.895 425.944,499.195 430.763,497.871 441.206,497.73 451.223,497.588 456.845,495.792 465.492,493.052 471.115,489.177 477.116,484.972 484.061,476.515 487.605,473.349 489.448,471.6 492.708,468.482 493.653,464.088 494.504,460.119 502.914,452.417 511.514,444.573 512.742,440.179 515.294,431.06 519.31,424.634 523.232,418.444 529.28,413.578 533.627,410.128 537.454,399.875 541.328,389.575 544.163,387.165 549.077,383.054 551.676,375.447 553.85,367.32 554.936,364.532 560.276,350.641 564.292,341.332 L567.221,334.765 567.836,336.607 Q569.489,338.592 574.781,339.49 580.31,340.435 584.231,336.088 586.83,333.158 588.011,329.095 588.295,328.055 586.358,317.896 584.184,306.556 584.704,297.862 585.318,287.987 589.949,277.497 592.264,272.158 597.981,262.425 601.903,255.763 602.706,250.518 603.651,244.234 600.344,239.272 595.855,232.516 593.776,231.429 589.949,229.397 583.145,233.744 582.247,237.382 580.168,243.572 576.199,255.479 576.199,259.59 576.199,264.598 574.545,272.3 573.742,276.127 572.891,278.962 563.914,245.887 560.134,233.13 556.637,221.365 546.904,197.125 536.084,170.193 532.256,166.035 527.957,161.357 514.727,150.348 501.355,139.197 495.401,135.322 492.85,133.669 485.715,126.959 480.99,122.518 477.446,122.518 473.005,122.518 468.185,126.108 M532.729,251.983 Q537.879,259.543 537.926,259.59 537.879,259.543 532.729,251.983 528.665,245.982 524.696,243.997 520.491,241.918 508.348,243.43 494.693,245.651 490.204,246.36 483.683,247.399 470.312,252.691 457.365,257.794 451.459,261.48 457.365,257.794 470.312,252.691 483.683,247.399 490.204,246.36 494.693,245.651 508.348,243.43 520.491,241.918 524.696,243.997 528.665,245.982 532.729,251.983 M517.42,269.323 L516.333,274.048 Q514.774,279.34 512.411,282.27 509.435,286.003 504.899,287.42 499.89,288.979 492.094,287.94 479.478,286.286 478.391,268.284 473.217,270.206 467.996,272.631 L463.744,274.71 467.996,272.631 Q473.217,270.206 478.391,268.284 478.462,268.262 478.533,268.237 494.74,262.33 504.851,263.37 509.246,263.834 517.42,269.323 518.385,269.973 519.404,270.694 529.185,277.639 531.784,278.017 529.185,277.639 519.404,270.694 518.385,269.973 517.42,269.323 M521.436,292.145 Q526.114,290.16 527.059,286.995 526.114,290.16 521.436,292.145 517.892,293.61 513.356,294.082 517.892,293.61 521.436,292.145 M489.07,313.502 Q495.496,314.164 500.126,312.037 495.496,314.164 489.07,313.502 482.597,312.84 478.391,309.675 482.597,312.84 489.07,313.502 M466.106,283.215 Q469.508,290.917 476.501,294.082 469.508,290.917 466.106,283.215 M454.814,347.002 L454.766,343.742 454.814,347.002 Q454.719,350.641 453.821,352.72 452.924,354.799 447.632,357.019 L442.481,358.862 Q439.363,359.382 437.756,354.751 437.756,354.94 437.756,355.082 437.756,358.437 435.536,362.075 433.079,365.997 428.306,369.73 423.062,373.84 416.494,373.51 409.312,373.131 401.846,367.367 395.515,362.5 392.916,352.483 390.932,344.97 391.404,336.655 391.688,331.457 396.271,316.668 401.138,301.642 401.846,298.807 402.791,295.264 402.886,283.357 402.791,270.93 402.791,268.567 402.791,263.653 400.665,258.409 397.83,251.557 392.822,249.667 389.75,248.533 383.183,247.777 377.087,247.069 371.087,244.47 362.771,240.831 350.249,238.705 337.445,236.485 331.869,237.855 326.435,239.225 319.82,243.572 313.678,247.683 309.189,252.502 313.678,247.683 319.82,243.572 326.435,239.225 331.869,237.855 337.445,236.485 350.249,238.705 362.771,240.831 371.087,244.47 377.087,247.069 383.183,247.777 389.75,248.533 392.822,249.667 397.83,251.557 400.665,258.409 402.791,263.653 402.791,268.567 402.791,270.93 402.886,283.357 402.791,295.264 401.846,298.807 401.138,301.642 396.271,316.668 391.688,331.457 391.404,336.655 390.932,344.97 392.916,352.483 395.515,362.5 401.846,367.367 409.312,373.131 416.494,373.51 423.062,373.84 428.306,369.73 433.079,365.997 435.536,362.075 437.756,358.437 437.756,355.082 437.756,354.94 437.756,354.751 437.378,353.712 437.095,352.389 L436.339,345.16 437.048,348.514 Q437.709,352.2 437.756,354.751 439.363,359.382 442.481,358.862 L447.632,357.019 Q452.924,354.799 453.821,352.72 454.719,350.641 454.814,347.002 M459.491,408.002 Q462.468,408.758 468.044,413.105 474.092,417.783 476.974,418.87 480.423,420.193 480.423,427.564 480.423,432.383 480.423,432.761 480.612,435.265 481.699,435.88 485.006,437.77 485.951,440.085 487.227,443.109 483.116,445.33 482.408,445.708 470.17,451.283 461.287,455.347 459.019,457.615 457.885,458.749 456.845,461.111 L455.144,465.08 Q452.782,469.521 447.679,468.955 441.536,468.293 437,468.529 432.89,468.766 428.779,469.9 418.904,472.593 415.643,473.16 405.815,474.814 402.791,471.79 392.538,461.678 386.207,457.615 383.75,456.055 380.3,450.433 377.087,445.141 374.394,443.912 371.276,442.495 370.189,440.652 369.197,438.242 367.779,436.352 366.031,433.99 366.031,430.682 L366.362,427.847 Q368.535,421.988 372.457,416.743 374.205,414.428 379.592,408.475 382.19,405.592 387.293,404.411 393.294,402.946 395.657,401.387 398.87,399.261 405.296,399.025 412.714,398.788 414.604,398.08 417.108,397.182 425.755,398.316 434.827,399.544 438.701,398.552 443.096,397.465 449.805,402.049 457.979,407.624 459.491,408.002 M384.317,269.985 Q375.405,265.528 372.173,264.031 L372.599,265.118 Q372.882,267.102 372.032,271.402 370.898,277.309 366.976,280.285 362.156,284.018 352.659,283.687 343.634,283.357 339.335,277.497 336.689,273.765 335.507,266.583 324.268,270.938 321.474,274.71 324.268,270.938 335.507,266.583 335.67,266.553 335.838,266.488 342.311,264.078 349.966,262.047 356.581,260.299 359.274,260.062 362.629,259.779 371.276,263.606 371.654,263.774 372.173,264.031 375.405,265.528 384.317,269.985 M379.781,287.987 Q382.427,284.538 382.427,280.852 382.427,284.538 379.781,287.987 377.324,291.153 373.922,292.665 377.324,291.153 379.781,287.987 M326.483,292.617 Q330.924,296.303 335.649,297.39 330.924,296.303 326.483,292.617 321.852,288.743 319.112,283.215 321.852,288.743 326.483,292.617 M335.177,305.895 Q340.091,310.195 342.17,311.045 347.556,313.219 355.494,310.147 347.556,313.219 342.17,311.045 340.091,310.195 335.177,305.895 M522.287,91.758 Q517.467,90.34 515.341,88.97 512.411,87.175 511.939,84.245 511.041,78.953 519.215,73.992 523.279,71.488 527.531,70.07 523.421,69.598 517.987,69.834 507.119,70.306 500.599,73.85 497.102,75.787 494.126,75.315 492.141,75.031 489.212,73.283 485.762,71.204 484.203,70.684 481.037,69.598 477.446,70.543 471.446,72.102 460.011,66.715 453.302,63.55 452.404,63.171 448.766,61.754 447.206,62.51 444.041,64.117 424.148,63.219 406.571,62.415 397.547,61.093 391.593,60.195 382.663,52.777 L374.867,45.5 375.528,48.76 Q376.237,52.588 376.331,55.612 376.709,65.156 371.087,62.51 365.464,59.864 353.557,59.486 L342.737,59.675 350.486,66.763 Q357.195,73.614 352.187,72.433 347.178,71.251 336.641,75.504 L327.144,79.993 329.318,80.134 Q331.822,80.418 333.476,81.127 338.768,83.347 333.759,88.97 323.128,100.877 317.741,107.776 306.212,122.565 296.432,140.047 288.494,154.222 285.848,187.534 284.194,208.654 284.855,232.988 284.95,237.524 285.092,240.217 293.124,212.812 295.014,202.89 296.573,194.81 298.322,190.274 300.448,184.746 304.464,179.737 310.134,172.65 328.562,148.552 331.727,144.489 339.24,137.07 343.445,132.96 351.714,124.88 356.534,120.013 362.015,117.604 365.322,116.139 372.977,113.54 375.953,112.406 377.229,112.973 378.269,113.398 378.836,115.336 379.166,116.422 379.97,119.257 380.962,121.809 382.899,123.462 384.458,124.786 392.302,134.046 398.35,141.229 402.791,142.882 406.619,144.3 421.313,150.49 435.158,155.923 440.119,155.64 445.411,155.309 452.687,146.71 458.263,140.189 461.381,133.905 463.602,129.463 468.185,126.108 473.005,122.518 477.446,122.518 480.99,122.518 485.715,126.959 492.85,133.669 495.401,135.322 501.355,139.197 514.727,150.348 527.957,161.357 532.256,166.035 536.084,170.193 546.904,197.125 556.637,221.365 560.134,233.13 563.914,245.887 572.891,278.962 573.742,276.127 574.545,272.3 576.199,264.598 576.199,259.59 576.199,255.479 580.168,243.572 582.247,237.382 583.145,233.744 583.853,230.626 583.759,229.35 583.523,226.751 582.247,218.86 580.735,209.883 579.979,203.362 577.286,180.163 576.908,176.383 574.97,157.577 575.254,151.86 575.585,145.434 561.362,125.022 547.66,105.319 539.344,98.893 534.95,95.491 522.287,91.758Z" test="JeanRenoFace" vector-effect="non-scaling-stroke" stroke-width="1"/>
        <path id="Layer3_0_1_STROKES" stroke="#FFF" stroke-width="1.89" stroke-linejoin="round" stroke-linecap="round" fill="none" d="M285.092,240.217 Q284.95,237.524 284.855,232.988 284.194,208.654 285.848,187.534 288.494,154.222 296.432,140.047 306.212,122.565 317.741,107.776 323.128,100.877 333.759,88.97 338.768,83.347 333.476,81.127 331.822,80.418 329.318,80.134 L327.144,79.993 336.641,75.504 Q347.178,71.251 352.187,72.433 357.195,73.614 350.486,66.763 L342.737,59.675 353.557,59.486 Q365.464,59.864 371.087,62.51 376.709,65.156 376.331,55.612 376.237,52.588 375.528,48.76 L374.867,45.5 382.663,52.777 Q391.593,60.195 397.547,61.093 406.571,62.415 424.148,63.219 444.041,64.117 447.206,62.51 448.766,61.754 452.404,63.171 453.302,63.55 460.011,66.715 471.446,72.102 477.446,70.543 481.037,69.598 484.203,70.684 485.762,71.204 489.212,73.283 492.141,75.031 494.126,75.315 497.102,75.787 500.599,73.85 507.119,70.306 517.987,69.834 523.421,69.598 527.531,70.07 523.279,71.488 519.215,73.992 511.041,78.953 511.939,84.245 512.411,87.175 515.341,88.97 517.467,90.34 522.287,91.758 534.95,95.491 539.344,98.893 547.66,105.319 561.362,125.022 575.585,145.434 575.254,151.86 574.97,157.577 576.908,176.383 577.286,180.163 579.979,203.362 580.735,209.883 582.247,218.86 583.523,226.751 583.759,229.35 583.853,230.626 583.145,233.744 589.949,229.397 593.776,231.429 595.855,232.516 600.344,239.272 603.651,244.234 602.706,250.518 601.903,255.763 597.981,262.425 592.264,272.158 589.949,277.497 585.318,287.987 584.704,297.862 584.184,306.556 586.358,317.896 588.295,328.055 588.011,329.095 586.83,333.158 584.231,336.088 580.31,340.435 574.781,339.49 569.489,338.592 567.836,336.607 L567.221,334.765 564.292,341.332 Q560.276,350.641 554.936,364.532 553.85,367.32 551.676,375.447 549.077,383.054 544.163,387.165 541.328,389.575 537.454,399.875 533.627,410.128 529.28,413.578 523.232,418.444 519.31,424.634 515.294,431.06 512.742,440.179 511.514,444.573 502.914,452.417 494.504,460.119 493.653,464.088 492.708,468.482 489.448,471.6 487.605,473.349 484.061,476.515 477.116,484.972 471.115,489.177 465.492,493.052 456.845,495.792 451.223,497.588 441.206,497.73 430.763,497.871 425.944,499.195 419.707,500.895 407.705,498.628 393.011,495.887 392.822,495.887 383.419,495.698 377.182,492.391 371.417,489.272 364.472,481.24 360.644,476.798 353.888,473.254 346.044,469.096 341.886,465.364 340.185,463.852 334.515,456.575 328.751,449.204 327.144,447.692 321.191,442.258 319.159,440.321 315.993,437.344 314.434,434.887 311.552,430.399 307.299,413.672 305.267,405.781 299.219,393.213 292.888,380.125 292.652,379.416 289.769,369.824 287.832,361.555 286.037,353.665 285.564,348.94 284.903,342.75 284.666,325.598 284.665,325.48 284.666,325.362 284.432,304.706 284.761,270.505 L285.092,240.217 Q293.124,212.812 295.014,202.89 296.573,194.81 298.322,190.274 300.448,184.746 304.464,179.737 310.134,172.65 328.562,148.552 331.727,144.489 339.24,137.07 343.445,132.96 351.714,124.88 356.534,120.013 362.015,117.604 365.322,116.139 372.977,113.54 375.953,112.406 377.229,112.973 378.269,113.398 378.836,115.336 379.166,116.422 379.97,119.257 380.962,121.809 382.899,123.462 384.458,124.786 392.302,134.046 398.35,141.229 402.791,142.882 406.619,144.3 421.313,150.49 435.158,155.923 440.119,155.64 445.411,155.309 452.687,146.71 458.263,140.189 461.381,133.905 463.602,129.463 468.185,126.108 473.005,122.518 477.446,122.518 480.99,122.518 485.715,126.959 492.85,133.669 495.401,135.322 501.355,139.197 514.727,150.348 527.957,161.357 532.256,166.035 536.084,170.193 546.904,197.125 556.637,221.365 560.134,233.13 563.914,245.887 572.891,278.962 573.742,276.127 574.545,272.3 576.199,264.598 576.199,259.59 576.199,255.479 580.168,243.572 582.247,237.382 583.145,233.744 M451.459,261.48 Q457.365,257.794 470.312,252.691 483.683,247.399 490.204,246.36 494.693,245.651 508.348,243.43 520.491,241.918 524.696,243.997 528.665,245.982 532.729,251.983 537.879,259.543 537.926,259.59 M478.391,268.284 Q479.478,286.286 492.094,287.94 499.89,288.979 504.899,287.42 509.435,286.003 512.411,282.27 514.774,279.34 516.333,274.048 L517.42,269.323 Q509.246,263.834 504.851,263.37 494.74,262.33 478.533,268.237 478.462,268.262 478.391,268.284 473.217,270.206 467.996,272.631 L463.744,274.71 M517.42,269.323 Q518.385,269.973 519.404,270.694 529.185,277.639 531.784,278.017 M513.356,294.082 Q517.892,293.61 521.436,292.145 526.114,290.16 527.059,286.995 M284.666,325.362 Q288.257,328.622 290.762,333.725 292.321,336.796 295.487,344.215 296.904,347.239 297.755,354.042 298.369,359.476 302.102,364.532 305.362,368.974 309.473,372.234 313.158,375.116 315.804,379.18 316.796,380.691 321.616,391.37 324.451,397.701 328.089,398.552 329.129,398.788 337.303,402.568 342.878,405.167 346.517,403.75 348.407,402.994 350.816,403.088 352.187,403.135 354.974,403.324 360.361,403.466 365.889,399.025 370.709,395.15 380.3,391.748 388.616,388.819 390.459,386.267 391.735,384.519 393.341,384.472 394.428,384.472 396.554,385.369 401.752,387.637 405.154,386.267 408.698,384.85 417.155,381.353 424.763,378.754 430.196,379.652 433.976,380.266 443.663,384.282 452.546,387.921 457.129,388.157 461.051,388.393 467.902,393.969 473.903,398.883 477.919,397.607 480.376,396.851 482.927,397.56 483.967,397.843 487.133,399.403 492.283,401.812 496.346,399.025 498.756,397.371 502.111,396.52 504.048,396.048 507.734,395.386 514.207,393.874 516.664,388.157 519.83,380.786 522.523,376.25 525.122,371.809 529.421,366.422 531.028,364.39 538.871,357.633 544.4,352.861 545.486,348.467 546.573,344.167 550.164,339.631 554.7,333.82 555.881,331.457 557.535,328.15 559.425,323.661 561.079,320.684 564.386,320.07 567.883,319.456 568.403,321.345 568.639,322.149 568.166,327.205 567.883,330.465 566.324,332.922 L564.859,334.765 M503.434,269.985 L507.214,270.93 M478.391,309.675 Q482.597,312.84 489.07,313.502 495.496,314.164 500.126,312.037 M466.106,283.215 Q469.508,290.917 476.501,294.082 M437.756,354.751 Q439.363,359.382 442.481,358.862 L447.632,357.019 Q452.924,354.799 453.821,352.72 454.719,350.641 454.814,347.002 L454.766,343.742 M437.756,354.751 Q437.709,352.2 437.048,348.514 L436.339,345.16 437.095,352.389 Q437.378,353.712 437.756,354.751 437.756,354.94 437.756,355.082 437.756,358.437 435.536,362.075 433.079,365.997 428.306,369.73 423.062,373.84 416.494,373.51 409.312,373.131 401.846,367.367 395.515,362.5 392.916,352.483 390.932,344.97 391.404,336.655 391.688,331.457 396.271,316.668 401.138,301.642 401.846,298.807 402.791,295.264 402.886,283.357 402.791,270.93 402.791,268.567 402.791,263.653 400.665,258.409 397.83,251.557 392.822,249.667 389.75,248.533 383.183,247.777 377.087,247.069 371.087,244.47 362.771,240.831 350.249,238.705 337.445,236.485 331.869,237.855 326.435,239.225 319.82,243.572 313.678,247.683 309.189,252.502 M381.009,424.067 Q385.167,421.421 390.743,419.815 396.791,418.066 401.846,418.397 404.587,418.586 410.777,420.807 415.974,422.697 420.746,422.177 424.526,421.752 431.614,419.248 437.898,416.98 442.481,416.98 448.34,416.98 453.491,419.342 457.649,421.279 460.909,424.54 M366.362,427.847 Q368.535,421.988 372.457,416.743 374.205,414.428 379.592,408.475 382.19,405.592 387.293,404.411 393.294,402.946 395.657,401.387 398.87,399.261 405.296,399.025 412.714,398.788 414.604,398.08 417.108,397.182 425.755,398.316 434.827,399.544 438.701,398.552 443.096,397.465 449.805,402.049 457.979,407.624 459.491,408.002 462.468,408.758 468.044,413.105 474.092,417.783 476.974,418.87 480.423,420.193 480.423,427.564 480.423,432.383 480.423,432.761 480.612,435.265 481.699,435.88 485.006,437.77 485.951,440.085 487.227,443.109 483.116,445.33 482.408,445.708 470.17,451.283 461.287,455.347 459.019,457.615 457.885,458.749 456.845,461.111 L455.144,465.08 Q452.782,469.521 447.679,468.955 441.536,468.293 437,468.529 432.89,468.766 428.779,469.9 418.904,472.593 415.643,473.16 405.815,474.814 402.791,471.79 392.538,461.678 386.207,457.615 383.75,456.055 380.3,450.433 377.087,445.141 374.394,443.912 371.276,442.495 370.189,440.652 369.197,438.242 367.779,436.352 366.031,433.99 366.031,430.682 L366.362,427.847Z M284.147,232.657 Q278.949,225.711 270.822,225.381 262.79,225.097 260.994,231.24 259.766,235.445 266.003,249.006 272.807,263.701 272.807,268.567 272.807,273.765 273.043,292.003 273.043,308.777 271.862,314.4 270.586,320.542 272.854,322.669 274.649,324.322 278.477,323.425 M384.317,269.985 Q375.405,265.528 372.197,264.031 L372.599,265.118 Q372.882,267.102 372.032,271.402 370.898,277.309 366.976,280.285 362.156,284.018 352.659,283.687 343.634,283.357 339.335,277.497 336.689,273.765 335.507,266.606 324.268,270.938 321.474,274.71 M372.197,264.031 Q371.654,263.774 371.276,263.606 362.629,259.779 359.274,260.062 356.581,260.299 349.966,262.047 342.311,264.078 335.838,266.488 335.67,266.553 335.507,266.606 M360.219,266.205 L362.582,266.677 M373.922,292.665 Q377.324,291.153 379.781,287.987 382.427,284.538 382.427,280.852 M319.112,283.215 Q321.852,288.743 326.483,292.617 330.924,296.303 335.649,297.39 M335.177,305.895 Q340.091,310.195 342.17,311.045 347.556,313.219 355.494,310.147 M415.076,408.002 Q423.581,409.42 427.834,409.42 M415.549,430.21 Q419.187,429.737 420.227,429.784 422.447,429.879 425.944,431.155" test="JeanRenoFace"/>
      </g>
      <g id="TearAnimf25r1">
        <use xlink:href="#TearGraphic" transform="matrix(.914 0 0 .914 357.5 423.4)"/>
      </g>
      <g id="TearAnimf10r1">
        <use xlink:href="#TearGraphic" transform="matrix(.914 0 0 .914 357.5 294.6)"/>
      </g>
    </g>
    <g id="BlackMaskRect">
      <path fill="#000" stroke="none" d="M823.45,613.6 L823.45,508.3 -23.6,508.3 -23.6,613.6 823.45,613.6Z" test="BlackMaskRect"/>
    </g>
  </g>
</svg>