<?xml version="1.0" encoding="utf-8"?>
<svg id="EdithAnim06" image-rendering="inherit" baseProfile="basic" version="1.1" x="0px" y="0px" width="800" height="600" xmlns="http://www.w3.org/2000/svg" xmlns:xlink="http://www.w3.org/1999/xlink">
  <defs>
    <g id="TearGraphic" overflow="visible">
      <path id="Layer4_0_1_STROKES" stroke="#0FF" stroke-width="1" stroke-linejoin="round" stroke-linecap="round" fill="none" d="M-1.15 1.6Q-1.25 5.75 -2.25 8.6 -3.4 11.65 -6.8 16.5 -10.25 21.45 -8.25 27.95 -6.25 34.6 -.7 34.8 4.75 35 7.25 30.15 9.3 26.2 8.9 20.65 8.7 17.9 4.8 12.25 .55 6.05 -.7 0" test="TearGraphic"/>
    </g>
  </defs>
  <g id="Jean-Renof155r1" overflow="visible">
    <g id="Jean-Reno-body">
      <path id="Layer2_0_1_STROKES" stroke="#FEB7AE" stroke-width="1.89" stroke-linejoin="round" stroke-linecap="round" fill="none" d="M532.795,329.517 Q538.937,335.66 577.257,341.802 603.008,345.96 630.177,348.417 637.453,349.079 680.026,357.773 716.361,365.144 722.787,363.537 732.568,361.08 740.033,358.103 749.53,354.276 758.697,348.417 767.816,342.558 780.007,340.763 790.213,339.203 798.434,340.857 804.34,342.038 810.01,343.928 812.845,344.873 814.499,345.582 812.845,346.054 810.955,347.047 807.27,349.079 806.372,351.866 805.474,354.654 808.546,357.489 810.105,358.859 811.806,359.71 809.916,360.466 808.215,361.836 804.766,364.577 805.663,367.506 806.561,370.483 812.231,371.759 815.066,372.42 817.712,372.467 L818.752,378.515 Q820.216,384.847 822.437,386.17 824.658,387.493 830.044,384.941 832.738,383.713 834.958,382.154 L836.754,386.17 Q839.211,390.092 842.755,389.477 846.298,388.91 849.275,385.839 850.74,384.28 851.496,382.862 L854.945,384.28 Q858.631,385.461 859.812,384.28 860.993,383.099 861.938,379.791 L862.647,376.72 864.915,389.666 Q866.994,403.463 865.954,407.432 865.86,407.763 864.868,412.63 864.159,416.079 863.261,418.347 860.615,425.104 853.858,428.695 M786.055,383.335 Q794.276,381.35 805.522,383.288 821.917,386.075 830.469,397.037 833.777,401.29 840.676,410.031 846.582,417.733 849.889,423.923 858.82,440.649 855.276,457.754 851.779,474.575 842.424,490.025 838.124,497.113 829.761,507.366 827.398,510.248 818.61,517.147 808.168,525.321 795.457,533.543 759.973,556.553 727.701,566.476 L711.967,571.319 Q714.606,574.62 716.739,585.281 718.912,596.149 718.015,602.15 717.258,607.253 719.952,610.655 720.661,611.6 724.157,614.198 726.945,616.277 731.15,622.892 736.584,631.397 735.497,636.406 734.363,641.84 729.449,647.084 725.007,651.762 721.086,652.943 718.156,653.841 712.581,653.936 L707.62,653.888 714.046,655.211 Q721.275,657.527 725.575,662.393 731.15,668.725 733.418,673.166 736.064,678.269 734.552,681.293 733.512,683.42 730.725,689.846 727.276,695.799 720.85,698.776 714.849,701.564 701.761,698.492 695.193,696.744 692.405,696.035 687.68,694.854 685.885,694.996 683.522,695.185 664.953,699.91 646.147,704.729 639.579,705.391 632.681,706.1 624.412,702.603 620.538,700.808 618.978,700.193 616.427,699.107 615.246,699.248 611.466,699.437 609.529,699.674 606.174,700.146 603.67,702.083 600.834,704.257 596.96,703.312 593.275,702.414 592.329,699.957 591.243,697.169 591.337,695.516 591.479,693.2 593.747,691.452 595.826,689.846 599.134,689.279 600.787,689.042 602.016,689.09 601.118,688.05 600.504,686.68 599.275,683.939 600.598,682.475 602.063,680.868 605.89,680.065 609.103,679.403 611.702,679.64 612.836,679.734 610.285,677.939 607.119,675.718 608.158,674.678 609.387,673.45 612.553,673.544 614.017,673.592 617.608,674.206 618.837,674.395 620.821,675.812 622.239,676.852 623.278,676.332 626.586,674.678 631.027,672.599 637.831,669.434 640.525,668.536 644.777,667.118 649.03,666.173 M544.796,330.604 Q548.954,328.619 563.838,319.736 577.824,311.846 582.832,311.704 595.826,311.326 599.842,311.704 612.647,312.885 624.459,318.791 649.786,331.454 653.424,333.344 669.631,341.944 676.671,347.614 683.475,353.095 689.145,356.355 691.98,358.009 693.445,358.529 M522.116,394.628 Q522.116,390.564 523.108,385.556 525.14,375.491 530.149,370.766 540.685,360.844 554.246,362.97 559.444,363.773 569.602,370.01 578.958,375.728 581.415,378.799 583.352,381.209 588.171,382.106 591.857,382.815 596.771,382.579 599.417,382.484 613.356,381.492 626.775,380.736 630.602,381.634 636.934,383.099 651.581,388.06 668.355,393.777 671.473,396.281 673.836,398.171 681.868,405.164 689.381,411.401 692.263,412.583 695.571,413.906 696.091,414.803 696.421,415.418 695.807,417.591 695.571,418.442 696.091,424.726 696.61,431.577 695.807,436.964 694.815,443.626 689.712,461.061 684.892,477.504 682.341,483.741 680.262,488.891 673.694,500.326 667.693,510.768 665.567,513.509 664.102,515.446 660.795,519.367 L657.771,522.958 662.307,523.715 Q667.41,524.707 670.056,526.03 672.182,527.117 676.813,529.29 680.687,531.558 682.813,535.007 685.601,539.543 686.262,541.811 687.113,544.788 686.121,548.237 685.129,551.639 682.766,555.278 680.829,558.254 678.561,560.522 675.49,563.594 673.6,565.106 670.245,567.799 667.93,568.082 664.858,568.508 663.441,568.366 661.267,568.13 657.535,566.665 654.511,565.484 652.384,563.027 649.408,559.625 647.376,558.16 644.541,556.081 643.076,553.151 641.233,549.371 639.343,547.292 636.225,543.843 634.193,542.615 632.728,541.764 629.893,541.15 627.625,540.677 627.247,540.772 625.877,541.386 623.515,542.331 619.262,544.505 617.656,545.119 615.057,546.064 613.592,543.985 611.277,540.772 610.899,539.685 610.143,537.559 611.229,534.535 612.553,530.944 613.072,530.235 613.876,529.243 616.9,527.92 621.435,525.888 627.531,527.92 628.192,528.156 627.531,524.707 625.83,515.446 625.783,515.21 623.137,498.483 625.641,485.159 627.956,473.015 634.099,454.446 639.06,439.468 638.635,437.909 638.115,435.971 624.271,436.538 608.867,437.2 606.505,436.255 603.858,435.215 589.022,431.199 575.178,427.419 574.327,426.805 M501.562,405.07 Q514.792,417.402 522.211,422.647 541.961,436.68 566.059,443.579 589.684,450.383 611.938,457.706 623.042,461.345 629.421,463.66 M658.432,660.976 Q657.44,656.818 639.532,624.499 621.294,591.518 619.924,587.266 617.183,578.666 615.057,568.508 612.458,556.128 613.545,553.435 614.632,550.836 617.608,548.143 619.546,546.347 621.814,544.93 M648.746,656.251 Q647.47,657.196 645.486,658.094 641.611,659.936 638.351,659.795 634.996,659.653 628.807,657.196 624.318,655.4 621.577,653.888 620.585,653.321 619.829,651.195 619.168,649.4 618.034,649.4 616.9,649.4 614.443,651.526 611.655,653.936 610.474,654.361 608.678,655.022 605.087,654.077 601.921,653.227 600.079,651.998 598.614,651.053 598.236,648.88 598,647.368 598.189,644.202 598.33,641.887 599.653,640.517 599.701,640.422 602.677,638.06 604.142,636.878 605.701,636.406 606.457,636.17 606.93,636.17 M615.199,636.642 Q615.01,635.839 615.246,634.799 615.624,632.72 617.561,631.681 619.498,630.641 622.806,630.972 624.649,631.161 627.72,631.681 629.09,631.823 631.642,632.957 634.051,634.043 634.807,634.043 M649.03,673.497 Q641.895,677.23 634.099,681.01 618.601,688.664 615.482,689.09 612.363,689.515 609.009,689.373 L606.268,689.09 M711.967,571.319 L711.919,571.343 Q693.445,577.013 693.019,577.013 692.925,577.013 697.272,593.219 701.524,611.269 700.768,619.868 L698.973,639.619 Q697.603,660.031 699.823,663.575" test="Jean Reno body"/>
    </g>
    <g id="Jean-Renof86r1">
      <g id="JeanRenoFace">
        <path fill="#000" stroke="none" d="M475.035,129.759 Q470.452,133.113 468.231,137.555 465.113,143.839 459.537,150.36 452.261,158.959 446.969,159.29 442.008,159.573 428.163,154.14 413.469,147.95 409.641,146.532 405.2,144.879 399.152,137.697 391.308,128.435 389.749,127.112 387.812,125.459 386.82,122.907 386.016,120.072 385.686,118.986 385.119,117.048 384.079,116.623 382.803,116.056 379.827,117.19 372.172,119.789 368.865,121.254 363.383,123.663 358.564,128.53 350.295,136.61 346.09,140.721 338.577,148.139 335.412,152.202 316.984,176.3 311.314,183.387 307.298,188.396 305.172,193.924 303.423,198.46 301.864,206.54 299.974,216.462 291.942,243.867 L291.611,274.155 Q291.282,308.356 291.516,329.012 295.107,332.272 297.612,337.375 299.171,340.446 302.337,347.864 303.754,350.888 304.605,357.692 305.219,363.126 308.952,368.182 312.212,372.624 316.323,375.884 320.008,378.766 322.654,382.83 323.646,384.341 328.466,395.02 331.301,401.351 334.939,402.202 335.979,402.438 344.153,406.218 349.728,408.817 353.367,407.4 355.257,406.643 357.666,406.738 359.037,406.785 361.824,406.974 367.211,407.116 372.739,402.674 377.559,398.8 387.15,395.398 395.466,392.468 397.309,389.917 398.585,388.169 400.191,388.121 401.278,388.121 403.404,389.019 408.602,391.287 412.004,389.917 415.548,388.499 424.005,385.003 431.613,382.404 437.046,383.302 440.826,383.916 450.513,387.932 459.395,391.571 463.979,391.807 467.9,392.043 474.752,397.619 480.753,402.533 484.769,401.257 487.226,400.501 489.777,401.21 490.817,401.493 493.982,403.052 499.133,405.462 503.196,402.674 505.606,401.021 508.961,400.17 510.898,399.698 514.583,399.036 521.057,397.524 523.514,391.807 526.68,384.436 529.373,379.9 531.972,375.458 536.271,370.072 537.878,368.04 545.721,361.283 551.25,356.511 552.336,352.117 553.423,347.817 557.014,343.281 561.55,337.47 562.731,335.107 564.385,331.799 566.275,327.311 567.929,324.334 571.236,323.72 574.733,323.105 575.252,324.995 575.489,325.799 575.016,330.855 574.733,334.115 573.174,336.572 L571.709,338.415 573.174,336.572 Q574.733,334.115 575.016,330.855 575.489,325.799 575.252,324.995 574.733,323.105 571.236,323.72 567.929,324.334 566.275,327.311 564.385,331.799 562.731,335.107 561.55,337.47 557.014,343.281 553.423,347.817 552.336,352.117 551.25,356.511 545.721,361.283 537.878,368.04 536.271,370.072 531.972,375.458 529.373,379.9 526.68,384.436 523.514,391.807 521.057,397.524 514.583,399.036 510.898,399.698 508.961,400.17 505.606,401.021 503.196,402.674 499.133,405.462 493.982,403.052 490.817,401.493 489.777,401.21 487.226,400.501 484.769,401.257 480.753,402.533 474.752,397.619 467.9,392.043 463.979,391.807 459.395,391.571 450.513,387.932 440.826,383.916 437.046,383.302 431.613,382.404 424.005,385.003 415.548,388.499 412.004,389.917 408.602,391.287 403.404,389.019 401.278,388.121 400.191,388.121 398.585,388.169 397.309,389.917 395.466,392.468 387.15,395.398 377.559,398.8 372.739,402.674 367.211,407.116 361.824,406.974 359.037,406.785 357.666,406.738 355.257,406.643 353.367,407.4 349.728,408.817 344.153,406.218 335.979,402.438 334.939,402.202 331.301,401.351 328.466,395.02 323.646,384.341 322.654,382.83 320.008,378.766 316.323,375.884 312.212,372.624 308.952,368.182 305.219,363.126 304.605,357.692 303.754,350.888 302.337,347.864 299.171,340.446 297.612,337.375 295.107,332.272 291.516,329.012 291.515,329.13 291.516,329.248 291.753,346.4 292.414,352.59 292.886,357.315 294.682,365.205 296.619,373.474 299.501,383.066 299.738,383.775 306.069,396.863 312.117,409.431 314.149,417.322 318.402,434.049 321.284,438.537 322.843,440.994 326.009,443.971 328.041,445.908 333.994,451.342 335.601,452.854 341.365,460.225 347.035,467.501 348.736,469.013 352.894,472.746 360.738,476.904 367.494,480.448 371.322,484.89 378.267,492.922 384.032,496.04 390.269,499.348 399.672,499.537 399.861,499.537 414.555,502.278 426.557,504.545 432.794,502.845 437.613,501.521 448.056,501.38 458.073,501.238 463.695,499.442 472.342,496.702 477.965,492.827 483.965,488.622 490.911,480.165 494.455,476 496.298,475.25 499.558,472.132 500.503,467.738 501.354,463.769 509.764,456.067 518.363,448.223 519.592,443.829 522.144,434.71 526.16,428.284 530.082,422.094 536.13,417.227 540.477,413.778 544.304,403.525 548.178,393.225 551.013,390.815 555.927,386.704 558.526,379.097 560.7,370.97 561.786,368.182 567.126,354.29 571.142,344.982 L574.071,338.415 574.686,340.257 Q576.339,342.242 581.631,343.14 587.16,344.085 591.081,339.737 593.68,336.808 594.861,332.744 595.145,331.705 593.208,321.546 591.034,310.206 591.554,301.512 592.168,291.637 596.799,281.148 599.114,275.808 604.831,266.075 608.753,259.412 609.556,254.168 610.501,247.884 607.194,242.922 602.705,236.166 600.626,235.079 596.799,233.047 589.995,237.394 589.097,241.032 587.018,247.222 583.049,259.129 583.049,263.24 583.049,268.248 581.395,275.95 580.592,279.777 579.741,282.612 570.764,249.537 566.984,236.78 563.487,225.015 553.754,200.775 542.934,173.843 539.106,169.685 534.807,165.007 521.577,153.998 508.205,142.847 502.251,138.972 499.7,137.319 492.565,130.609 487.84,126.167 484.296,126.167 479.855,126.167 475.035,129.759 M539.579,255.633 Q544.729,263.193 544.776,263.24 544.729,263.193 539.579,255.633 535.515,249.632 531.546,247.647 527.341,245.568 515.198,247.08 501.542,249.301 497.054,250.01 490.533,251.049 477.162,256.341 464.215,261.444 458.309,265.13 464.215,261.444 477.162,256.341 490.533,251.049 497.054,250.01 501.542,249.301 515.198,247.08 527.341,245.568 531.546,247.647 535.515,249.632 539.579,255.633 M524.27,272.973 L523.183,277.698 Q521.624,282.99 519.261,285.92 516.285,289.653 511.749,291.07 506.74,292.629 498.944,291.59 486.328,289.936 485.241,271.934 480.067,273.856 474.846,276.281 L470.594,278.36 474.846,276.281 Q480.067,273.856 485.241,271.934 485.312,271.912 485.383,271.886 501.59,265.98 511.701,267.02 516.096,267.484 524.27,272.973 525.235,273.623 526.254,274.344 536.035,281.289 538.634,281.667 536.035,281.289 526.254,274.344 525.235,273.623 524.27,272.973 M528.286,295.795 Q532.964,293.81 533.909,290.645 532.964,293.81 528.286,295.795 524.742,297.26 520.206,297.732 524.742,297.26 528.286,295.795 M495.92,317.152 Q502.346,317.814 506.976,315.687 502.346,317.814 495.92,317.152 489.447,316.49 485.241,313.325 489.447,316.49 495.92,317.152 M472.956,286.865 Q476.358,294.566 483.351,297.732 476.358,294.566 472.956,286.865 M461.664,350.652 L461.616,347.392 461.664,350.652 Q461.569,354.29 460.671,356.369 459.774,358.448 454.482,360.669 L449.331,362.512 Q446.213,363.032 444.606,358.401 444.606,358.59 444.606,358.732 444.606,362.087 442.386,365.725 439.929,369.647 435.156,373.38 429.912,377.49 423.344,377.16 416.162,376.781 408.696,371.017 402.365,366.15 399.766,356.133 397.782,348.62 398.254,340.304 398.537,335.107 403.121,320.318 407.988,305.292 408.696,302.457 409.641,298.914 409.736,287.006 409.641,274.58 409.641,272.217 409.641,267.303 407.515,262.058 404.68,255.207 399.672,253.317 396.6,252.183 390.032,251.427 383.937,250.719 377.937,248.12 369.621,244.481 357.099,242.355 344.295,240.135 338.719,241.505 333.285,242.875 326.67,247.222 320.528,251.333 316.039,256.152 320.528,251.333 326.67,247.222 333.285,242.875 338.719,241.505 344.295,240.135 357.099,242.355 369.621,244.481 377.937,248.12 383.937,250.719 390.032,251.427 396.6,252.183 399.672,253.317 404.68,255.207 407.515,262.058 409.641,267.303 409.641,272.217 409.641,274.58 409.736,287.006 409.641,298.914 408.696,302.457 407.988,305.292 403.121,320.318 398.537,335.107 398.254,340.304 397.782,348.62 399.766,356.133 402.365,366.15 408.696,371.017 416.162,376.781 423.344,377.16 429.912,377.49 435.156,373.38 439.929,369.647 442.386,365.725 444.606,362.087 444.606,358.732 444.606,358.59 444.606,358.401 444.228,357.362 443.945,356.039 L443.189,348.809 443.898,352.164 Q444.559,355.85 444.606,358.401 446.213,363.032 449.331,362.512 L454.482,360.669 Q459.774,358.448 460.671,356.369 461.569,354.29 461.664,350.652 M466.341,411.652 Q469.318,412.408 474.893,416.755 480.942,421.433 483.824,422.52 487.273,423.843 487.273,431.213 487.273,436.033 487.273,436.411 487.462,438.915 488.549,439.53 491.856,441.42 492.801,443.735 494.077,446.759 489.966,448.98 489.258,449.357 477.02,454.933 468.137,458.996 465.869,461.265 464.735,462.398 463.695,464.761 L461.994,468.73 Q459.632,473.171 454.529,472.605 448.386,471.943 443.85,472.179 439.739,472.415 435.629,473.549 425.754,476.243 422.493,476.81 412.665,478.463 409.641,475.439 399.388,465.328 393.057,461.265 390.6,459.705 387.15,454.083 383.937,448.79 381.244,447.562 378.126,446.145 377.039,444.302 376.047,441.892 374.629,440.002 372.881,437.64 372.881,434.332 L373.212,431.497 Q375.385,425.638 379.307,420.393 381.055,418.078 386.442,412.124 389.04,409.242 394.143,408.061 400.144,406.596 402.507,405.037 405.72,402.911 412.145,402.674 419.564,402.438 421.454,401.73 423.958,400.832 432.605,401.966 441.677,403.194 445.551,402.202 449.946,401.115 456.655,405.698 464.829,411.274 466.341,411.652 M391.167,273.635 Q382.255,269.178 379.023,267.681 L379.448,268.768 Q379.732,270.753 378.882,275.052 377.748,280.959 373.826,283.935 369.006,287.668 359.509,287.337 350.484,287.006 346.184,281.148 343.539,277.415 342.357,270.233 331.118,274.588 328.324,278.36 331.118,274.588 342.357,270.233 342.52,270.203 342.688,270.138 349.161,267.729 356.816,265.697 363.431,263.948 366.124,263.712 369.479,263.429 378.126,267.256 378.504,267.424 379.023,267.681 382.255,269.178 391.167,273.635 M386.631,291.637 Q389.277,288.188 389.277,284.502 389.277,288.188 386.631,291.637 384.174,294.803 380.772,296.315 384.174,294.803 386.631,291.637 M333.333,296.268 Q337.774,299.953 342.499,301.04 337.774,299.953 333.333,296.268 328.702,292.393 325.962,286.865 328.702,292.393 333.333,296.268 M342.027,309.545 Q346.941,313.845 349.02,314.695 354.406,316.869 362.344,313.797 354.406,316.869 349.02,314.695 346.941,313.845 342.027,309.545 M529.137,95.408 Q524.317,93.99 522.191,92.62 519.261,90.825 518.789,87.895 517.891,82.603 526.065,77.642 530.129,75.137 534.381,73.72 530.271,73.248 524.837,73.484 513.969,73.956 507.449,77.5 503.952,79.437 500.976,78.965 498.991,78.681 496.061,76.933 492.612,74.854 491.053,74.334 487.887,73.248 484.296,74.193 478.296,75.752 466.861,70.365 460.152,67.2 459.254,66.822 455.616,65.404 454.056,66.16 450.891,67.767 430.998,66.869 413.421,66.066 404.397,64.742 398.443,63.845 389.513,56.427 L381.717,49.15 382.378,52.41 Q383.087,56.238 383.181,59.262 383.559,68.806 377.937,66.16 372.314,63.514 360.407,63.136 L349.587,63.325 357.336,70.413 Q364.045,77.264 359.037,76.083 354.028,74.901 343.491,79.154 L333.994,83.643 336.168,83.784 Q338.672,84.068 340.326,84.777 345.618,86.997 340.609,92.62 329.978,104.527 324.591,111.426 313.062,126.215 303.282,143.697 295.344,157.872 292.698,191.184 291.044,212.304 291.705,236.638 291.8,241.174 291.942,243.867 299.974,216.462 301.864,206.54 303.423,198.46 305.172,193.924 307.298,188.396 311.314,183.387 316.984,176.3 335.412,152.202 338.577,148.139 346.09,140.721 350.295,136.61 358.564,128.53 363.383,123.663 368.865,121.254 372.172,119.789 379.827,117.19 382.803,116.056 384.079,116.623 385.119,117.048 385.686,118.986 386.016,120.072 386.82,122.907 387.812,125.459 389.749,127.112 391.308,128.435 399.152,137.697 405.2,144.879 409.641,146.532 413.469,147.95 428.163,154.14 442.008,159.573 446.969,159.29 452.261,158.959 459.537,150.36 465.113,143.839 468.231,137.555 470.452,133.113 475.035,129.759 479.855,126.167 484.296,126.167 487.84,126.167 492.565,130.609 499.7,137.319 502.251,138.972 508.205,142.847 521.577,153.998 534.807,165.007 539.106,169.685 542.934,173.843 553.754,200.775 563.487,225.015 566.984,236.78 570.764,249.537 579.741,282.612 580.592,279.777 581.395,275.95 583.049,268.248 583.049,263.24 583.049,259.129 587.018,247.222 589.097,241.032 589.995,237.394 590.703,234.276 590.609,233 590.373,230.401 589.097,222.51 587.585,213.533 586.829,207.012 584.136,183.813 583.757,180.033 581.82,161.227 582.104,155.51 582.435,149.084 568.212,128.672 554.51,108.968 546.194,102.542 541.8,99.141 529.137,95.408Z" test="JeanRenoFace" vector-effect="non-scaling-stroke" stroke-width="1"/>
        <path id="Layer3_0_1_STROKES" stroke="#FFF" stroke-width="1.89" stroke-linejoin="round" stroke-linecap="round" fill="none" d="M291.942,243.867 Q291.8,241.174 291.705,236.638 291.044,212.304 292.698,191.184 295.344,157.872 303.282,143.697 313.062,126.215 324.591,111.426 329.978,104.527 340.609,92.62 345.618,86.997 340.326,84.777 338.672,84.068 336.168,83.784 L333.994,83.643 343.491,79.154 Q354.028,74.901 359.037,76.083 364.045,77.264 357.336,70.413 L349.587,63.325 360.407,63.136 Q372.314,63.514 377.937,66.16 383.559,68.806 383.181,59.262 383.087,56.238 382.378,52.41 L381.717,49.15 389.513,56.427 Q398.443,63.845 404.397,64.742 413.421,66.066 430.998,66.869 450.891,67.767 454.056,66.16 455.616,65.404 459.254,66.822 460.152,67.2 466.861,70.365 478.296,75.752 484.296,74.193 487.887,73.248 491.053,74.334 492.612,74.854 496.061,76.933 498.991,78.681 500.976,78.965 503.952,79.437 507.449,77.5 513.969,73.956 524.837,73.484 530.271,73.248 534.381,73.72 530.129,75.137 526.065,77.642 517.891,82.603 518.789,87.895 519.261,90.825 522.191,92.62 524.317,93.99 529.137,95.408 541.8,99.141 546.194,102.542 554.51,108.968 568.212,128.672 582.435,149.084 582.104,155.51 581.82,161.227 583.757,180.033 584.136,183.813 586.829,207.012 587.585,213.533 589.097,222.51 590.373,230.401 590.609,233 590.703,234.276 589.995,237.394 596.799,233.047 600.626,235.079 602.705,236.166 607.194,242.922 610.501,247.884 609.556,254.168 608.753,259.412 604.831,266.075 599.114,275.808 596.799,281.148 592.168,291.637 591.554,301.512 591.034,310.206 593.208,321.546 595.145,331.705 594.861,332.744 593.68,336.808 591.081,339.737 587.16,344.085 581.631,343.14 576.339,342.242 574.686,340.257 L574.071,338.415 571.142,344.982 Q567.126,354.29 561.786,368.182 560.7,370.97 558.526,379.097 555.927,386.704 551.013,390.815 548.178,393.225 544.304,403.525 540.477,413.778 536.13,417.227 530.082,422.094 526.16,428.284 522.144,434.71 519.592,443.829 518.363,448.223 509.764,456.067 501.354,463.769 500.503,467.738 499.558,472.132 496.298,475.25 494.455,476 490.911,480.165 483.965,488.622 477.965,492.827 472.342,496.702 463.695,499.442 458.073,501.238 448.056,501.38 437.613,501.521 432.794,502.845 426.557,504.545 414.555,502.278 399.861,499.537 399.672,499.537 390.269,499.348 384.032,496.04 378.267,492.922 371.322,484.89 367.494,480.448 360.738,476.904 352.894,472.746 348.736,469.013 347.035,467.501 341.365,460.225 335.601,452.854 333.994,451.342 328.041,445.908 326.009,443.971 322.843,440.994 321.284,438.537 318.402,434.049 314.149,417.322 312.117,409.431 306.069,396.863 299.738,383.775 299.501,383.066 296.619,373.474 294.682,365.205 292.886,357.315 292.414,352.59 291.753,346.4 291.516,329.248 291.515,329.13 291.516,329.012 291.282,308.356 291.611,274.155 L291.942,243.867 Q299.974,216.462 301.864,206.54 303.423,198.46 305.172,193.924 307.298,188.396 311.314,183.387 316.984,176.3 335.412,152.202 338.577,148.139 346.09,140.721 350.295,136.61 358.564,128.53 363.383,123.663 368.865,121.254 372.172,119.789 379.827,117.19 382.803,116.056 384.079,116.623 385.119,117.048 385.686,118.986 386.016,120.072 386.82,122.907 387.812,125.459 389.749,127.112 391.308,128.435 399.152,137.697 405.2,144.879 409.641,146.532 413.469,147.95 428.163,154.14 442.008,159.573 446.969,159.29 452.261,158.959 459.537,150.36 465.113,143.839 468.231,137.555 470.452,133.113 475.035,129.759 479.855,126.167 484.296,126.167 487.84,126.167 492.565,130.609 499.7,137.319 502.251,138.972 508.205,142.847 521.577,153.998 534.807,165.007 539.106,169.685 542.934,173.843 553.754,200.775 563.487,225.015 566.984,236.78 570.764,249.537 579.741,282.612 580.592,279.777 581.395,275.95 583.049,268.248 583.049,263.24 583.049,259.129 587.018,247.222 589.097,241.032 589.995,237.394 M458.309,265.13 Q464.215,261.444 477.162,256.341 490.533,251.049 497.054,250.01 501.542,249.301 515.198,247.08 527.341,245.568 531.546,247.647 535.515,249.632 539.579,255.633 544.729,263.193 544.776,263.24 M485.241,271.934 Q486.328,289.936 498.944,291.59 506.74,292.629 511.749,291.07 516.285,289.653 519.261,285.92 521.624,282.99 523.183,277.698 L524.27,272.973 Q516.096,267.484 511.701,267.02 501.59,265.98 485.383,271.886 485.312,271.912 485.241,271.934 480.067,273.856 474.846,276.281 L470.594,278.36 M524.27,272.973 Q525.235,273.623 526.254,274.344 536.035,281.289 538.634,281.667 M520.206,297.732 Q524.742,297.26 528.286,295.795 532.964,293.81 533.909,290.645 M291.516,329.012 Q295.107,332.272 297.612,337.375 299.171,340.446 302.337,347.864 303.754,350.888 304.605,357.692 305.219,363.126 308.952,368.182 312.212,372.624 316.323,375.884 320.008,378.766 322.654,382.83 323.646,384.341 328.466,395.02 331.301,401.351 334.939,402.202 335.979,402.438 344.153,406.218 349.728,408.817 353.367,407.4 355.257,406.643 357.666,406.738 359.037,406.785 361.824,406.974 367.211,407.116 372.739,402.674 377.559,398.8 387.15,395.398 395.466,392.468 397.309,389.917 398.585,388.169 400.191,388.121 401.278,388.121 403.404,389.019 408.602,391.287 412.004,389.917 415.548,388.499 424.005,385.003 431.613,382.404 437.046,383.302 440.826,383.916 450.513,387.932 459.395,391.571 463.979,391.807 467.9,392.043 474.752,397.619 480.753,402.533 484.769,401.257 487.226,400.501 489.777,401.21 490.817,401.493 493.982,403.052 499.133,405.462 503.196,402.674 505.606,401.021 508.961,400.17 510.898,399.698 514.583,399.036 521.057,397.524 523.514,391.807 526.68,384.436 529.373,379.9 531.972,375.458 536.271,370.072 537.878,368.04 545.721,361.283 551.25,356.511 552.336,352.117 553.423,347.817 557.014,343.281 561.55,337.47 562.731,335.107 564.385,331.799 566.275,327.311 567.929,324.334 571.236,323.72 574.733,323.105 575.252,324.995 575.489,325.799 575.016,330.855 574.733,334.115 573.174,336.572 L571.709,338.415 M510.284,273.635 L514.064,274.58 M485.241,313.325 Q489.447,316.49 495.92,317.152 502.346,317.814 506.976,315.687 M472.956,286.865 Q476.358,294.566 483.351,297.732 M444.606,358.401 Q446.213,363.032 449.331,362.512 L454.482,360.669 Q459.774,358.448 460.671,356.369 461.569,354.29 461.664,350.652 L461.616,347.392 M444.606,358.401 Q444.559,355.85 443.898,352.164 L443.189,348.809 443.945,356.039 Q444.228,357.362 444.606,358.401 444.606,358.59 444.606,358.732 444.606,362.087 442.386,365.725 439.929,369.647 435.156,373.38 429.912,377.49 423.344,377.16 416.162,376.781 408.696,371.017 402.365,366.15 399.766,356.133 397.782,348.62 398.254,340.304 398.537,335.107 403.121,320.318 407.988,305.292 408.696,302.457 409.641,298.914 409.736,287.006 409.641,274.58 409.641,272.217 409.641,267.303 407.515,262.058 404.68,255.207 399.672,253.317 396.6,252.183 390.032,251.427 383.937,250.719 377.937,248.12 369.621,244.481 357.099,242.355 344.295,240.135 338.719,241.505 333.285,242.875 326.67,247.222 320.528,251.333 316.039,256.152 M387.859,427.717 Q392.017,425.071 397.593,423.465 403.641,421.716 408.696,422.047 411.437,422.236 417.626,424.457 422.824,426.347 427.596,425.827 431.376,425.402 438.464,422.898 444.748,420.63 449.331,420.63 455.19,420.63 460.34,422.992 464.499,424.929 467.759,428.189 M373.212,431.497 Q375.385,425.638 379.307,420.393 381.055,418.078 386.442,412.124 389.04,409.242 394.143,408.061 400.144,406.596 402.507,405.037 405.72,402.911 412.145,402.674 419.564,402.438 421.454,401.73 423.958,400.832 432.605,401.966 441.677,403.194 445.551,402.202 449.946,401.115 456.655,405.698 464.829,411.274 466.341,411.652 469.318,412.408 474.893,416.755 480.942,421.433 483.824,422.52 487.273,423.843 487.273,431.213 487.273,436.033 487.273,436.411 487.462,438.915 488.549,439.53 491.856,441.42 492.801,443.735 494.077,446.759 489.966,448.98 489.258,449.357 477.02,454.933 468.137,458.996 465.869,461.265 464.735,462.398 463.695,464.761 L461.994,468.73 Q459.632,473.171 454.529,472.605 448.386,471.943 443.85,472.179 439.739,472.415 435.629,473.549 425.754,476.243 422.493,476.81 412.665,478.463 409.641,475.439 399.388,465.328 393.057,461.265 390.6,459.705 387.15,454.083 383.937,448.79 381.244,447.562 378.126,446.145 377.039,444.302 376.047,441.892 374.629,440.002 372.881,437.64 372.881,434.332 L373.212,431.497Z M290.996,236.307 Q285.799,229.361 277.672,229.031 269.64,228.747 267.844,234.89 266.616,239.095 272.852,252.656 279.657,267.351 279.657,272.217 279.657,277.415 279.893,295.653 279.893,312.427 278.712,318.05 277.436,324.192 279.704,326.319 281.499,327.972 285.327,327.075 M391.167,273.635 Q382.255,269.178 379.047,267.681 L379.448,268.768 Q379.732,270.753 378.882,275.052 377.748,280.959 373.826,283.935 369.006,287.668 359.509,287.337 350.484,287.006 346.184,281.148 343.539,277.415 342.357,270.256 331.118,274.588 328.324,278.36 M379.047,267.681 Q378.504,267.424 378.126,267.256 369.479,263.429 366.124,263.712 363.431,263.948 356.816,265.697 349.161,267.729 342.688,270.138 342.52,270.203 342.357,270.256 M367.069,269.855 L369.432,270.327 M380.772,296.315 Q384.174,294.803 386.631,291.637 389.277,288.188 389.277,284.502 M325.962,286.865 Q328.702,292.393 333.333,296.268 337.774,299.953 342.499,301.04 M342.027,309.545 Q346.941,313.845 349.02,314.695 354.406,316.869 362.344,313.797 M421.926,411.652 Q430.431,413.07 434.684,413.07 M422.399,433.859 Q426.037,433.387 427.077,433.434 429.297,433.529 432.794,434.804" test="JeanRenoFace"/>
      </g>
      <g id="TearAnimf26r1">
        <use xlink:href="#TearGraphic" transform="matrix(.914 0 0 .914 364.35 440.75)"/>
      </g>
      <g id="TearAnimf11r1">
        <use xlink:href="#TearGraphic" transform="matrix(.914 0 0 .914 364.35 302.4)"/>
      </g>
    </g>
    <g id="BlackMaskRect">
      <path fill="#000" stroke="none" d="M823.45,613.6 L823.45,508.3 -23.6,508.3 -23.6,613.6 823.45,613.6Z" test="BlackMaskRect"/>
    </g>
  </g>
</svg>