<?xml version="1.0" encoding="utf-8"?>
<svg id="EdithAnim06" image-rendering="inherit" baseProfile="basic" version="1.1" x="0px" y="0px" width="800" height="600" xmlns="http://www.w3.org/2000/svg" xmlns:xlink="http://www.w3.org/1999/xlink">
  <defs>
    <g id="TearGraphic" overflow="visible">
      <path id="Layer4_0_1_STROKES" stroke="#0FF" stroke-width="1" stroke-linejoin="round" stroke-linecap="round" fill="none" d="M-1.15 1.6Q-1.25 5.75 -2.25 8.6 -3.4 11.65 -6.8 16.5 -10.25 21.45 -8.25 27.95 -6.25 34.6 -.7 34.8 4.75 35 7.25 30.15 9.3 26.2 8.9 20.65 8.7 17.9 4.8 12.25 .55 6.05 -.7 0" test="TearGraphic"/>
    </g>
  </defs>
  <g id="Jean-Renof156r1" overflow="visible">
    <g id="Jean-Reno-body">
      <path id="Layer2_0_1_STROKES" stroke="#FEB7AE" stroke-width="1.89" stroke-linejoin="round" stroke-linecap="round" fill="none" d="M539.095,332.667 Q545.237,338.809 583.557,344.952 609.308,349.11 636.477,351.567 643.753,352.229 686.326,360.923 722.661,368.294 729.087,366.687 738.868,364.23 746.333,361.253 755.83,357.426 764.997,351.567 774.116,345.708 786.307,343.913 796.513,342.353 804.734,344.007 810.64,345.188 816.31,347.078 819.145,348.023 820.799,348.732 819.145,349.204 817.255,350.197 813.57,352.229 812.672,355.016 811.774,357.804 814.846,360.639 816.405,362.009 818.106,362.86 816.216,363.616 814.515,364.986 811.066,367.727 811.963,370.656 812.861,373.633 818.531,374.909 821.366,375.57 824.012,375.617 L825.052,381.665 Q826.516,387.997 828.737,389.32 830.958,390.643 836.344,388.091 839.038,386.863 841.258,385.304 L843.054,389.32 Q845.511,393.242 849.055,392.627 852.598,392.06 855.575,388.989 857.04,387.43 857.796,386.012 L861.245,387.43 Q864.931,388.611 866.112,387.43 867.293,386.249 868.238,382.941 L868.947,379.87 871.215,392.816 Q873.294,406.613 872.254,410.582 872.16,410.913 871.168,415.78 870.459,419.229 869.561,421.497 866.915,428.254 860.158,431.845 M792.355,386.485 Q800.576,384.5 811.822,386.438 828.217,389.225 836.77,400.187 840.077,404.44 846.976,413.181 852.882,420.883 856.189,427.073 865.12,443.799 861.576,460.904 858.079,477.725 848.724,493.175 844.424,500.263 836.061,510.516 833.698,513.398 824.91,520.297 814.468,528.471 801.757,536.693 766.273,559.703 734.001,569.626 L718.267,574.469 Q720.906,577.77 723.039,588.431 725.212,599.299 724.315,605.3 723.559,610.402 726.252,613.805 726.961,614.75 730.457,617.348 733.245,619.427 737.45,626.042 742.884,634.547 741.797,639.556 740.663,644.989 735.749,650.234 731.308,654.912 727.386,656.093 724.456,656.991 718.881,657.085 L713.92,657.038 720.346,658.361 Q727.575,660.676 731.875,665.543 737.45,671.875 739.718,676.316 742.364,681.419 740.852,684.443 739.813,686.57 737.025,692.996 733.576,698.949 727.15,701.926 721.149,704.714 708.061,701.642 701.493,699.894 698.705,699.185 693.98,698.004 692.185,698.146 689.822,698.335 671.253,703.06 652.447,707.879 645.88,708.541 638.981,709.249 630.712,705.753 626.838,703.958 625.279,703.343 622.727,702.257 621.546,702.398 617.766,702.587 615.829,702.824 612.474,703.296 609.97,705.233 607.135,707.407 603.26,706.462 599.575,705.564 598.63,703.107 597.543,700.319 597.637,698.666 597.779,696.35 600.047,694.602 602.126,692.996 605.434,692.429 607.087,692.192 608.316,692.239 607.418,691.2 606.804,689.83 605.575,687.089 606.898,685.624 608.363,684.018 612.19,683.215 615.403,682.553 618.002,682.79 619.136,682.884 616.585,681.089 613.419,678.868 614.458,677.828 615.687,676.6 618.853,676.694 620.317,676.742 623.908,677.356 625.137,677.545 627.121,678.962 628.539,680.002 629.578,679.482 632.886,677.828 637.327,675.749 644.131,672.584 646.825,671.686 651.077,670.268 655.33,669.323 M551.096,333.754 Q555.254,331.769 570.138,322.886 584.124,314.996 589.132,314.854 602.126,314.476 606.142,314.854 618.947,316.035 630.76,321.941 656.086,334.604 659.724,336.494 675.931,345.094 682.971,350.764 689.775,356.245 695.445,359.505 698.28,361.159 699.745,361.679 M528.416,397.778 Q528.416,393.714 529.408,388.706 531.44,378.641 536.449,373.916 546.985,363.994 560.546,366.12 565.744,366.923 575.902,373.16 585.258,378.878 587.715,381.949 589.652,384.359 594.472,385.256 598.157,385.965 603.071,385.729 605.717,385.634 619.656,384.642 633.075,383.886 636.902,384.784 643.234,386.249 657.881,391.21 674.655,396.927 677.773,399.431 680.136,401.321 688.168,408.314 695.681,414.551 698.563,415.732 701.871,417.056 702.391,417.953 702.721,418.568 702.107,420.741 701.871,421.592 702.391,427.876 702.91,434.727 702.107,440.114 701.115,446.776 696.012,464.211 691.192,480.654 688.641,486.891 686.562,492.041 679.994,503.476 673.993,513.918 671.867,516.659 670.402,518.596 667.095,522.517 L664.071,526.108 668.607,526.865 Q673.71,527.857 676.356,529.18 678.482,530.267 683.113,532.44 686.987,534.708 689.113,538.157 691.901,542.693 692.563,544.961 693.413,547.938 692.421,551.387 691.429,554.789 689.066,558.428 687.129,561.404 684.861,563.672 681.79,566.743 679.9,568.256 676.545,570.949 674.23,571.232 671.158,571.658 669.741,571.516 667.567,571.28 663.835,569.815 660.811,568.633 658.684,566.177 655.708,562.775 653.676,561.31 650.841,559.231 649.376,556.301 647.533,552.521 645.643,550.442 642.525,546.993 640.493,545.765 639.028,544.914 636.193,544.3 633.925,543.827 633.547,543.922 632.177,544.536 629.815,545.481 625.562,547.655 623.956,548.269 621.357,549.214 619.892,547.135 617.577,543.922 617.199,542.835 616.443,540.709 617.53,537.685 618.853,534.094 619.372,533.385 620.176,532.393 623.2,531.07 627.736,529.038 633.831,531.07 634.492,531.306 633.831,527.857 632.13,518.596 632.083,518.36 629.437,501.633 631.941,488.309 634.256,476.165 640.399,457.596 645.36,442.618 644.935,441.059 644.415,439.121 630.571,439.688 615.167,440.35 612.805,439.405 610.159,438.365 595.322,434.349 581.478,430.569 580.627,429.955 M507.862,408.22 Q521.092,420.552 528.511,425.797 548.261,439.83 572.359,446.729 595.984,453.532 618.238,460.856 629.342,464.494 635.721,466.81 M664.732,664.126 Q663.74,659.968 645.832,627.649 627.594,594.668 626.224,590.416 623.483,581.816 621.357,571.658 618.758,559.278 619.845,556.585 620.932,553.986 623.908,551.293 625.846,549.497 628.114,548.08 M655.046,659.401 Q653.77,660.346 651.786,661.244 647.911,663.086 644.651,662.945 641.296,662.803 635.107,660.346 630.618,658.55 627.877,657.038 626.885,656.471 626.129,654.345 625.468,652.55 624.334,652.55 623.2,652.55 620.743,654.676 617.955,657.085 616.774,657.511 614.978,658.172 611.387,657.227 608.221,656.377 606.379,655.148 604.914,654.203 604.536,652.03 604.3,650.518 604.489,647.352 604.63,645.037 605.953,643.666 606.001,643.572 608.977,641.209 610.442,640.028 612.001,639.556 612.757,639.32 613.23,639.32 M621.499,639.792 Q621.31,638.989 621.546,637.949 621.924,635.87 623.861,634.831 625.798,633.791 629.106,634.122 630.949,634.311 634.02,634.831 635.39,634.973 637.942,636.107 640.351,637.193 641.107,637.193 M655.33,676.647 Q648.195,680.38 640.399,684.16 624.901,691.814 621.782,692.239 618.664,692.665 615.309,692.523 L612.568,692.239 M718.267,574.469 L718.219,574.493 Q699.745,580.163 699.319,580.163 699.225,580.163 703.572,596.369 707.824,614.419 707.068,623.018 L705.273,642.769 Q703.903,663.181 706.123,666.725" test="Jean Reno body"/>
    </g>
    <g id="Jean-Renof87r1">
      <g id="JeanRenoFace">
        <path fill="#000" stroke="none" d="M483.135,134.109 Q478.552,137.463 476.331,141.905 473.213,148.189 467.637,154.71 460.361,163.309 455.069,163.64 450.108,163.923 436.263,158.49 421.569,152.3 417.741,150.882 413.3,149.229 407.252,142.046 399.408,132.786 397.849,131.462 395.912,129.809 394.92,127.257 394.116,124.422 393.786,123.336 393.219,121.398 392.179,120.973 390.903,120.406 387.927,121.54 380.272,124.139 376.965,125.604 371.484,128.013 366.664,132.88 358.395,140.96 354.19,145.07 346.677,152.489 343.512,156.552 325.084,180.65 319.414,187.737 315.398,192.746 313.272,198.274 311.523,202.81 309.964,210.89 308.074,220.812 300.042,248.217 L299.711,278.505 Q299.382,312.706 299.616,333.362 303.207,336.622 305.712,341.725 307.271,344.796 310.437,352.215 311.854,355.239 312.705,362.042 313.319,367.476 317.052,372.532 320.312,376.974 324.423,380.234 328.108,383.116 330.754,387.18 331.746,388.691 336.566,399.37 339.401,405.701 343.039,406.552 344.079,406.788 352.253,410.568 357.828,413.167 361.467,411.75 363.357,410.994 365.766,411.088 367.137,411.135 369.924,411.324 375.311,411.466 380.839,407.025 385.659,403.15 395.25,399.748 403.566,396.819 405.409,394.267 406.685,392.519 408.291,392.472 409.378,392.472 411.504,393.369 416.702,395.637 420.104,394.267 423.648,392.85 432.105,389.353 439.713,386.754 445.146,387.652 448.926,388.266 458.613,392.282 467.496,395.921 472.079,396.157 476.001,396.393 482.852,401.969 488.853,406.883 492.869,405.607 495.326,404.851 497.877,405.56 498.917,405.843 502.083,407.403 507.233,409.812 511.296,407.025 513.706,405.371 517.061,404.52 518.998,404.048 522.684,403.386 529.157,401.874 531.614,396.157 534.78,388.786 537.473,384.25 540.072,379.809 544.371,374.422 545.978,372.39 553.821,365.633 559.35,360.861 560.436,356.467 561.523,352.167 565.114,347.631 569.65,341.82 570.831,339.457 572.485,336.15 574.375,331.661 576.029,328.684 579.336,328.07 582.833,327.456 583.353,329.345 583.589,330.149 583.116,335.205 582.833,338.465 581.274,340.922 L579.809,342.765 581.274,340.922 Q582.833,338.465 583.116,335.205 583.589,330.149 583.353,329.345 582.833,327.456 579.336,328.07 576.029,328.684 574.375,331.661 572.485,336.15 570.831,339.457 569.65,341.82 565.114,347.631 561.523,352.167 560.436,356.467 559.35,360.861 553.821,365.633 545.978,372.39 544.371,374.422 540.072,379.809 537.473,384.25 534.78,388.786 531.614,396.157 529.157,401.874 522.684,403.386 518.998,404.048 517.061,404.52 513.706,405.371 511.296,407.025 507.233,409.812 502.083,407.403 498.917,405.843 497.877,405.56 495.326,404.851 492.869,405.607 488.853,406.883 482.852,401.969 476.001,396.393 472.079,396.157 467.496,395.921 458.613,392.282 448.926,388.266 445.146,387.652 439.713,386.754 432.105,389.353 423.648,392.85 420.104,394.267 416.702,395.637 411.504,393.369 409.378,392.472 408.291,392.472 406.685,392.519 405.409,394.267 403.566,396.819 395.25,399.748 385.659,403.15 380.839,407.025 375.311,411.466 369.924,411.324 367.137,411.135 365.766,411.088 363.357,410.994 361.467,411.75 357.828,413.167 352.253,410.568 344.079,406.788 343.039,406.552 339.401,405.701 336.566,399.37 331.746,388.691 330.754,387.18 328.108,383.116 324.423,380.234 320.312,376.974 317.052,372.532 313.319,367.476 312.705,362.042 311.854,355.239 310.437,352.215 307.271,344.796 305.712,341.725 303.207,336.622 299.616,333.362 299.615,333.48 299.616,333.598 299.853,350.75 300.514,356.94 300.987,361.665 302.782,369.555 304.719,377.824 307.602,387.416 307.838,388.125 314.169,401.213 320.217,413.781 322.249,421.672 326.502,438.399 329.384,442.887 330.943,445.344 334.109,448.321 336.141,450.258 342.094,455.692 343.701,457.204 349.465,464.575 355.135,471.852 356.836,473.364 360.994,477.096 368.838,481.254 375.594,484.798 379.422,489.24 386.367,497.272 392.132,500.391 398.369,503.698 407.772,503.887 407.961,503.887 422.655,506.628 434.657,508.895 440.894,507.195 445.713,505.871 456.156,505.73 466.173,505.588 471.795,503.792 480.442,501.052 486.065,497.177 492.066,492.972 499.011,484.515 502.555,481.349 504.398,479.6 507.658,476.482 508.603,472.088 509.454,468.119 517.864,460.417 526.464,452.573 527.692,448.179 530.244,439.06 534.26,432.634 538.182,426.444 544.23,421.578 548.577,418.128 552.404,407.875 556.278,397.575 559.113,395.165 564.027,391.054 566.626,383.447 568.8,375.32 569.886,372.532 575.226,358.641 579.242,349.332 L582.171,342.765 582.786,344.607 Q584.439,346.592 589.731,347.49 595.26,348.435 599.181,344.088 601.78,341.158 602.961,337.095 603.245,336.055 601.308,325.896 599.134,314.556 599.654,305.862 600.268,295.987 604.899,285.497 607.214,280.158 612.931,270.425 616.853,263.763 617.656,258.518 618.601,252.234 615.294,247.272 610.805,240.516 608.726,239.429 604.899,237.397 598.095,241.744 597.197,245.382 595.118,251.572 591.149,263.479 591.149,267.59 591.149,272.598 589.495,280.3 588.692,284.127 587.841,286.962 578.864,253.887 575.084,241.13 571.587,229.365 561.854,205.125 551.034,178.193 547.206,174.035 542.907,169.357 529.677,158.348 516.305,147.197 510.351,143.322 507.8,141.669 500.665,134.959 495.94,130.517 492.396,130.517 487.955,130.517 483.135,134.109 M547.679,259.982 Q552.829,267.543 552.876,267.59 552.829,267.543 547.679,259.982 543.615,253.982 539.646,251.997 535.441,249.918 523.298,251.43 509.643,253.651 505.154,254.36 498.633,255.399 485.262,260.691 472.315,265.794 466.409,269.48 472.315,265.794 485.262,260.691 498.633,255.399 505.154,254.36 509.643,253.651 523.298,251.43 535.441,249.918 539.646,251.997 543.615,253.982 547.679,259.982 M532.37,277.323 L531.283,282.048 Q529.724,287.34 527.361,290.27 524.385,294.003 519.849,295.42 514.84,296.979 507.044,295.94 494.428,294.286 493.341,276.284 488.167,278.206 482.946,280.631 L478.694,282.71 482.946,280.631 Q488.167,278.206 493.341,276.284 493.412,276.262 493.483,276.237 509.69,270.33 519.801,271.37 524.196,271.834 532.37,277.323 533.335,277.973 534.354,278.694 544.135,285.639 546.734,286.017 544.135,285.639 534.354,278.694 533.335,277.973 532.37,277.323 M536.386,300.145 Q541.064,298.16 542.009,294.995 541.064,298.16 536.386,300.145 532.842,301.61 528.306,302.082 532.842,301.61 536.386,300.145 M504.02,321.502 Q510.446,322.164 515.076,320.037 510.446,322.164 504.02,321.502 497.547,320.84 493.341,317.675 497.547,320.84 504.02,321.502 M481.056,291.215 Q484.458,298.917 491.451,302.082 484.458,298.917 481.056,291.215 M469.764,355.002 L469.716,351.742 469.764,355.002 Q469.669,358.641 468.771,360.72 467.874,362.799 462.582,365.019 L457.431,366.862 Q454.313,367.382 452.706,362.751 452.706,362.94 452.706,363.082 452.706,366.437 450.486,370.075 448.029,373.997 443.256,377.73 438.012,381.84 431.444,381.51 424.262,381.131 416.796,375.367 410.465,370.5 407.866,360.483 405.882,352.97 406.354,344.655 406.638,339.457 411.221,324.668 416.088,309.642 416.796,306.807 417.741,303.264 417.836,291.357 417.741,278.93 417.741,276.567 417.741,271.653 415.615,266.409 412.78,259.557 407.772,257.667 404.7,256.533 398.133,255.777 392.037,255.069 386.037,252.47 377.721,248.831 365.199,246.705 352.395,244.485 346.819,245.855 341.385,247.225 334.77,251.572 328.628,255.683 324.139,260.502 328.628,255.683 334.77,251.572 341.385,247.225 346.819,245.855 352.395,244.485 365.199,246.705 377.721,248.831 386.037,252.47 392.037,255.069 398.133,255.777 404.7,256.533 407.772,257.667 412.78,259.557 415.615,266.409 417.741,271.653 417.741,276.567 417.741,278.93 417.836,291.357 417.741,303.264 416.796,306.807 416.088,309.642 411.221,324.668 406.638,339.457 406.354,344.655 405.882,352.97 407.866,360.483 410.465,370.5 416.796,375.367 424.262,381.131 431.444,381.51 438.012,381.84 443.256,377.73 448.029,373.997 450.486,370.075 452.706,366.437 452.706,363.082 452.706,362.94 452.706,362.751 452.328,361.712 452.045,360.389 L451.289,353.16 451.998,356.514 Q452.659,360.2 452.706,362.751 454.313,367.382 457.431,366.862 L462.582,365.019 Q467.874,362.799 468.771,360.72 469.669,358.641 469.764,355.002 M474.441,416.002 Q477.418,416.758 482.994,421.105 489.042,425.783 491.924,426.87 495.373,428.193 495.373,435.564 495.373,440.383 495.373,440.761 495.562,443.265 496.649,443.88 499.956,445.77 500.901,448.085 502.177,451.109 498.066,453.33 497.358,453.708 485.12,459.283 476.237,463.347 473.969,465.615 472.835,466.749 471.795,469.111 L470.094,473.08 Q467.732,477.521 462.629,476.955 456.486,476.293 451.95,476.529 447.84,476.766 443.729,477.9 433.854,480.593 430.593,481.16 420.765,482.814 417.741,479.79 407.488,469.678 401.157,465.615 398.7,464.055 395.25,458.433 392.037,453.141 389.344,451.912 386.226,450.495 385.139,448.652 384.147,446.242 382.729,444.352 380.981,441.99 380.981,438.682 L381.312,435.847 Q383.485,429.988 387.407,424.743 389.155,422.428 394.542,416.475 397.14,413.592 402.243,412.411 408.244,410.946 410.607,409.387 413.82,407.261 420.246,407.025 427.664,406.788 429.554,406.08 432.058,405.182 440.705,406.316 449.777,407.544 453.651,406.552 458.046,405.465 464.755,410.049 472.929,415.624 474.441,416.002 M399.267,277.985 Q390.355,273.528 387.123,272.031 L387.549,273.118 Q387.832,275.102 386.982,279.402 385.848,285.309 381.926,288.285 377.106,292.018 367.609,291.687 358.584,291.357 354.285,285.497 351.639,281.765 350.457,274.583 339.218,278.938 336.424,282.71 339.218,278.938 350.457,274.583 350.62,274.553 350.788,274.488 357.261,272.078 364.916,270.047 371.531,268.299 374.224,268.062 377.579,267.779 386.226,271.606 386.604,271.774 387.123,272.031 390.355,273.528 399.267,277.985 M394.731,295.987 Q397.377,292.538 397.377,288.852 397.377,292.538 394.731,295.987 392.274,299.153 388.872,300.665 392.274,299.153 394.731,295.987 M341.433,300.617 Q345.874,304.303 350.599,305.39 345.874,304.303 341.433,300.617 336.802,296.743 334.062,291.215 336.802,296.743 341.433,300.617 M350.127,313.895 Q355.041,318.195 357.12,319.045 362.506,321.219 370.444,318.147 362.506,321.219 357.12,319.045 355.041,318.195 350.127,313.895 M537.237,99.758 Q532.417,98.34 530.291,96.97 527.361,95.175 526.889,92.245 525.991,86.953 534.165,81.992 538.229,79.488 542.481,78.07 538.371,77.598 532.937,77.834 522.069,78.306 515.549,81.85 512.052,83.787 509.076,83.315 507.091,83.031 504.162,81.283 500.712,79.204 499.153,78.684 495.987,77.598 492.396,78.543 486.396,80.102 474.961,74.715 468.252,71.55 467.354,71.172 463.716,69.754 462.156,70.51 458.991,72.117 439.098,71.219 421.521,70.416 412.497,69.093 406.543,68.195 397.613,60.777 L389.817,53.5 390.478,56.76 Q391.187,60.588 391.281,63.612 391.659,73.156 386.037,70.51 380.414,67.864 368.507,67.486 L357.687,67.675 365.436,74.763 Q372.145,81.614 367.137,80.433 362.128,79.251 351.591,83.504 L342.094,87.993 344.268,88.134 Q346.772,88.418 348.426,89.127 353.718,91.347 348.709,96.97 338.078,108.877 332.691,115.776 321.162,130.565 311.382,148.047 303.444,162.222 300.798,195.534 299.144,216.654 299.805,240.988 299.9,245.524 300.042,248.217 308.074,220.812 309.964,210.89 311.523,202.81 313.272,198.274 315.398,192.746 319.414,187.737 325.084,180.65 343.512,156.552 346.677,152.489 354.19,145.07 358.395,140.96 366.664,132.88 371.484,128.013 376.965,125.604 380.272,124.139 387.927,121.54 390.903,120.406 392.179,120.973 393.219,121.398 393.786,123.336 394.116,124.422 394.92,127.257 395.912,129.809 397.849,131.462 399.408,132.786 407.252,142.046 413.3,149.229 417.741,150.882 421.569,152.3 436.263,158.49 450.108,163.923 455.069,163.64 460.361,163.309 467.637,154.71 473.213,148.189 476.331,141.905 478.552,137.463 483.135,134.109 487.955,130.517 492.396,130.517 495.94,130.517 500.665,134.959 507.8,141.669 510.351,143.322 516.305,147.197 529.677,158.348 542.907,169.357 547.206,174.035 551.034,178.193 561.854,205.125 571.587,229.365 575.084,241.13 578.864,253.887 587.841,286.962 588.692,284.127 589.495,280.3 591.149,272.598 591.149,267.59 591.149,263.479 595.118,251.572 597.197,245.382 598.095,241.744 598.803,238.626 598.709,237.35 598.473,234.751 597.197,226.86 595.685,217.883 594.929,211.362 592.236,188.163 591.858,184.383 589.92,165.577 590.204,159.86 590.535,153.434 576.312,133.022 562.61,113.319 554.294,106.893 549.9,103.491 537.237,99.758Z" test="JeanRenoFace" vector-effect="non-scaling-stroke" stroke-width="1"/>
        <path id="Layer3_0_1_STROKES" stroke="#FFF" stroke-width="1.89" stroke-linejoin="round" stroke-linecap="round" fill="none" d="M300.042,248.217 Q299.9,245.524 299.805,240.988 299.144,216.654 300.798,195.534 303.444,162.222 311.382,148.047 321.162,130.565 332.691,115.776 338.078,108.877 348.709,96.97 353.718,91.347 348.426,89.127 346.772,88.418 344.268,88.134 L342.094,87.993 351.591,83.504 Q362.128,79.251 367.137,80.433 372.145,81.614 365.436,74.763 L357.687,67.675 368.507,67.486 Q380.414,67.864 386.037,70.51 391.659,73.156 391.281,63.612 391.187,60.588 390.478,56.76 L389.817,53.5 397.613,60.777 Q406.543,68.195 412.497,69.093 421.521,70.416 439.098,71.219 458.991,72.117 462.156,70.51 463.716,69.754 467.354,71.172 468.252,71.55 474.961,74.715 486.396,80.102 492.396,78.543 495.987,77.598 499.153,78.684 500.712,79.204 504.162,81.283 507.091,83.031 509.076,83.315 512.052,83.787 515.549,81.85 522.069,78.306 532.937,77.834 538.371,77.598 542.481,78.07 538.229,79.488 534.165,81.992 525.991,86.953 526.889,92.245 527.361,95.175 530.291,96.97 532.417,98.34 537.237,99.758 549.9,103.491 554.294,106.893 562.61,113.319 576.312,133.022 590.535,153.434 590.204,159.86 589.92,165.577 591.858,184.383 592.236,188.163 594.929,211.362 595.685,217.883 597.197,226.86 598.473,234.751 598.709,237.35 598.803,238.626 598.095,241.744 604.899,237.397 608.726,239.429 610.805,240.516 615.294,247.272 618.601,252.234 617.656,258.518 616.853,263.763 612.931,270.425 607.214,280.158 604.899,285.497 600.268,295.987 599.654,305.862 599.134,314.556 601.308,325.896 603.245,336.055 602.961,337.095 601.78,341.158 599.181,344.088 595.26,348.435 589.731,347.49 584.439,346.592 582.786,344.607 L582.171,342.765 579.242,349.332 Q575.226,358.641 569.886,372.532 568.8,375.32 566.626,383.447 564.027,391.054 559.113,395.165 556.278,397.575 552.404,407.875 548.577,418.128 544.23,421.578 538.182,426.444 534.26,432.634 530.244,439.06 527.692,448.179 526.464,452.573 517.864,460.417 509.454,468.119 508.603,472.088 507.658,476.482 504.398,479.6 502.555,481.349 499.011,484.515 492.066,492.972 486.065,497.177 480.442,501.052 471.795,503.792 466.173,505.588 456.156,505.73 445.713,505.871 440.894,507.195 434.657,508.895 422.655,506.628 407.961,503.887 407.772,503.887 398.369,503.698 392.132,500.391 386.367,497.272 379.422,489.24 375.594,484.798 368.838,481.254 360.994,477.096 356.836,473.364 355.135,471.852 349.465,464.575 343.701,457.204 342.094,455.692 336.141,450.258 334.109,448.321 330.943,445.344 329.384,442.887 326.502,438.399 322.249,421.672 320.217,413.781 314.169,401.213 307.838,388.125 307.602,387.416 304.719,377.824 302.782,369.555 300.987,361.665 300.514,356.94 299.853,350.75 299.616,333.598 299.615,333.48 299.616,333.362 299.382,312.706 299.711,278.505 L300.042,248.217 Q308.074,220.812 309.964,210.89 311.523,202.81 313.272,198.274 315.398,192.746 319.414,187.737 325.084,180.65 343.512,156.552 346.677,152.489 354.19,145.07 358.395,140.96 366.664,132.88 371.484,128.013 376.965,125.604 380.272,124.139 387.927,121.54 390.903,120.406 392.179,120.973 393.219,121.398 393.786,123.336 394.116,124.422 394.92,127.257 395.912,129.809 397.849,131.462 399.408,132.786 407.252,142.046 413.3,149.229 417.741,150.882 421.569,152.3 436.263,158.49 450.108,163.923 455.069,163.64 460.361,163.309 467.637,154.71 473.213,148.189 476.331,141.905 478.552,137.463 483.135,134.109 487.955,130.517 492.396,130.517 495.94,130.517 500.665,134.959 507.8,141.669 510.351,143.322 516.305,147.197 529.677,158.348 542.907,169.357 547.206,174.035 551.034,178.193 561.854,205.125 571.587,229.365 575.084,241.13 578.864,253.887 587.841,286.962 588.692,284.127 589.495,280.3 591.149,272.598 591.149,267.59 591.149,263.479 595.118,251.572 597.197,245.382 598.095,241.744 M466.409,269.48 Q472.315,265.794 485.262,260.691 498.633,255.399 505.154,254.36 509.643,253.651 523.298,251.43 535.441,249.918 539.646,251.997 543.615,253.982 547.679,259.982 552.829,267.543 552.876,267.59 M493.341,276.284 Q494.428,294.286 507.044,295.94 514.84,296.979 519.849,295.42 524.385,294.003 527.361,290.27 529.724,287.34 531.283,282.048 L532.37,277.323 Q524.196,271.834 519.801,271.37 509.69,270.33 493.483,276.237 493.412,276.262 493.341,276.284 488.167,278.206 482.946,280.631 L478.694,282.71 M532.37,277.323 Q533.335,277.973 534.354,278.694 544.135,285.639 546.734,286.017 M528.306,302.082 Q532.842,301.61 536.386,300.145 541.064,298.16 542.009,294.995 M299.616,333.362 Q303.207,336.622 305.712,341.725 307.271,344.796 310.437,352.215 311.854,355.239 312.705,362.042 313.319,367.476 317.052,372.532 320.312,376.974 324.423,380.234 328.108,383.116 330.754,387.18 331.746,388.691 336.566,399.37 339.401,405.701 343.039,406.552 344.079,406.788 352.253,410.568 357.828,413.167 361.467,411.75 363.357,410.994 365.766,411.088 367.137,411.135 369.924,411.324 375.311,411.466 380.839,407.025 385.659,403.15 395.25,399.748 403.566,396.819 405.409,394.267 406.685,392.519 408.291,392.472 409.378,392.472 411.504,393.369 416.702,395.637 420.104,394.267 423.648,392.85 432.105,389.353 439.713,386.754 445.146,387.652 448.926,388.266 458.613,392.282 467.496,395.921 472.079,396.157 476.001,396.393 482.852,401.969 488.853,406.883 492.869,405.607 495.326,404.851 497.877,405.56 498.917,405.843 502.083,407.403 507.233,409.812 511.296,407.025 513.706,405.371 517.061,404.52 518.998,404.048 522.684,403.386 529.157,401.874 531.614,396.157 534.78,388.786 537.473,384.25 540.072,379.809 544.371,374.422 545.978,372.39 553.821,365.633 559.35,360.861 560.436,356.467 561.523,352.167 565.114,347.631 569.65,341.82 570.831,339.457 572.485,336.15 574.375,331.661 576.029,328.684 579.336,328.07 582.833,327.456 583.353,329.345 583.589,330.149 583.116,335.205 582.833,338.465 581.274,340.922 L579.809,342.765 M518.384,277.985 L522.164,278.93 M493.341,317.675 Q497.547,320.84 504.02,321.502 510.446,322.164 515.076,320.037 M481.056,291.215 Q484.458,298.917 491.451,302.082 M452.706,362.751 Q454.313,367.382 457.431,366.862 L462.582,365.019 Q467.874,362.799 468.771,360.72 469.669,358.641 469.764,355.002 L469.716,351.742 M452.706,362.751 Q452.659,360.2 451.998,356.514 L451.289,353.16 452.045,360.389 Q452.328,361.712 452.706,362.751 452.706,362.94 452.706,363.082 452.706,366.437 450.486,370.075 448.029,373.997 443.256,377.73 438.012,381.84 431.444,381.51 424.262,381.131 416.796,375.367 410.465,370.5 407.866,360.483 405.882,352.97 406.354,344.655 406.638,339.457 411.221,324.668 416.088,309.642 416.796,306.807 417.741,303.264 417.836,291.357 417.741,278.93 417.741,276.567 417.741,271.653 415.615,266.409 412.78,259.557 407.772,257.667 404.7,256.533 398.133,255.777 392.037,255.069 386.037,252.47 377.721,248.831 365.199,246.705 352.395,244.485 346.819,245.855 341.385,247.225 334.77,251.572 328.628,255.683 324.139,260.502 M395.959,432.067 Q400.117,429.421 405.693,427.815 411.741,426.066 416.796,426.397 419.537,426.586 425.727,428.807 430.924,430.697 435.696,430.177 439.476,429.752 446.564,427.248 452.848,424.98 457.431,424.98 463.29,424.98 468.441,427.342 472.599,429.279 475.859,432.54 M381.312,435.847 Q383.485,429.988 387.407,424.743 389.155,422.428 394.542,416.475 397.14,413.592 402.243,412.411 408.244,410.946 410.607,409.387 413.82,407.261 420.246,407.025 427.664,406.788 429.554,406.08 432.058,405.182 440.705,406.316 449.777,407.544 453.651,406.552 458.046,405.465 464.755,410.049 472.929,415.624 474.441,416.002 477.418,416.758 482.994,421.105 489.042,425.783 491.924,426.87 495.373,428.193 495.373,435.564 495.373,440.383 495.373,440.761 495.562,443.265 496.649,443.88 499.956,445.77 500.901,448.085 502.177,451.109 498.066,453.33 497.358,453.708 485.12,459.283 476.237,463.347 473.969,465.615 472.835,466.749 471.795,469.111 L470.094,473.08 Q467.732,477.521 462.629,476.955 456.486,476.293 451.95,476.529 447.84,476.766 443.729,477.9 433.854,480.593 430.593,481.16 420.765,482.814 417.741,479.79 407.488,469.678 401.157,465.615 398.7,464.055 395.25,458.433 392.037,453.141 389.344,451.912 386.226,450.495 385.139,448.652 384.147,446.242 382.729,444.352 380.981,441.99 380.981,438.682 L381.312,435.847Z M299.097,240.657 Q293.899,233.711 285.772,233.381 277.74,233.097 275.944,239.24 274.716,243.445 280.953,257.006 287.757,271.701 287.757,276.567 287.757,281.765 287.993,300.003 287.993,316.777 286.812,322.4 285.536,328.542 287.804,330.669 289.599,332.322 293.427,331.425 M399.267,277.985 Q390.355,273.528 387.147,272.031 L387.549,273.118 Q387.832,275.102 386.982,279.402 385.848,285.309 381.926,288.285 377.106,292.018 367.609,291.687 358.584,291.357 354.285,285.497 351.639,281.765 350.457,274.606 339.218,278.938 336.424,282.71 M387.147,272.031 Q386.604,271.774 386.226,271.606 377.579,267.779 374.224,268.062 371.531,268.299 364.916,270.047 357.261,272.078 350.788,274.488 350.62,274.553 350.457,274.606 M375.169,274.205 L377.532,274.677 M388.872,300.665 Q392.274,299.153 394.731,295.987 397.377,292.538 397.377,288.852 M334.062,291.215 Q336.802,296.743 341.433,300.617 345.874,304.303 350.599,305.39 M350.127,313.895 Q355.041,318.195 357.12,319.045 362.506,321.219 370.444,318.147 M430.026,416.002 Q438.531,417.42 442.784,417.42 M430.499,438.21 Q434.137,437.737 435.177,437.784 437.397,437.879 440.894,439.155" test="JeanRenoFace"/>
      </g>
      <g id="TearAnimf27r1">
        <use xlink:href="#TearGraphic" transform="matrix(.914 0 0 .914 372.45 459.45)"/>
      </g>
      <g id="TearAnimf12r1">
        <use xlink:href="#TearGraphic" transform="matrix(.914 0 0 .914 372.45 311.55)"/>
      </g>
    </g>
    <g id="BlackMaskRect">
      <path fill="#000" stroke="none" d="M823.45,613.6 L823.45,508.3 -23.6,508.3 -23.6,613.6 823.45,613.6Z" test="BlackMaskRect"/>
    </g>
  </g>
</svg>