<?xml version="1.0" encoding="utf-8"?>
<svg id="EdithAnim06" image-rendering="inherit" baseProfile="basic" version="1.1" x="0px" y="0px" width="800" height="600" xmlns="http://www.w3.org/2000/svg" xmlns:xlink="http://www.w3.org/1999/xlink">
  <defs>
    <g id="TearGraphic" overflow="visible">
      <path id="Layer4_0_1_STROKES" stroke="#0FF" stroke-width="1" stroke-linejoin="round" stroke-linecap="round" fill="none" d="M-1.15 1.6Q-1.25 5.75 -2.25 8.6 -3.4 11.65 -6.8 16.5 -10.25 21.45 -8.25 27.95 -6.25 34.6 -.7 34.8 4.75 35 7.25 30.15 9.3 26.2 8.9 20.65 8.7 17.9 4.8 12.25 .55 6.05 -.7 0" test="TearGraphic"/>
    </g>
  </defs>
  <g id="Jean-Renof157r1" overflow="visible">
    <g id="Jean-Reno-body">
      <path id="Layer2_0_1_STROKES" stroke="#FEB7AE" stroke-width="1.89" stroke-linejoin="round" stroke-linecap="round" fill="none" d="M546.345,336.267 Q552.487,342.41 590.807,348.552 616.558,352.71 643.727,355.167 651.003,355.829 693.576,364.523 729.911,371.894 736.337,370.287 746.118,367.83 753.583,364.853 763.08,361.026 772.247,355.167 781.366,349.308 793.557,347.513 803.763,345.953 811.984,347.607 817.89,348.788 823.56,350.678 826.395,351.623 828.049,352.332 826.395,352.804 824.505,353.797 820.82,355.829 819.922,358.616 819.024,361.404 822.096,364.239 823.655,365.609 825.356,366.46 823.466,367.216 821.765,368.586 818.316,371.327 819.213,374.256 820.111,377.233 825.781,378.509 828.616,379.17 831.262,379.217 L832.302,385.265 Q833.766,391.597 835.987,392.92 838.208,394.243 843.594,391.691 846.288,390.463 848.508,388.904 L850.304,392.92 Q852.761,396.842 856.305,396.227 859.848,395.66 862.825,392.589 864.29,391.03 865.046,389.612 L868.495,391.03 Q872.181,392.211 873.362,391.03 874.543,389.849 875.488,386.541 L876.197,383.47 878.465,396.416 Q880.544,410.213 879.504,414.182 879.41,414.513 878.418,419.38 877.709,422.829 876.811,425.097 874.165,431.854 867.408,435.445 M799.605,390.085 Q807.826,388.1 819.072,390.038 835.467,392.825 844.02,403.787 847.327,408.04 854.226,416.781 860.132,424.483 863.439,430.673 872.37,447.399 868.826,464.504 865.329,481.325 855.974,496.775 851.674,503.863 843.311,514.116 840.948,516.998 832.16,523.897 821.718,532.071 809.007,540.293 773.523,563.303 741.251,573.226 L725.517,578.069 Q728.156,581.37 730.289,592.031 732.462,602.899 731.565,608.9 730.809,614.003 733.502,617.405 734.211,618.35 737.707,620.948 740.495,623.027 744.7,629.642 750.134,638.147 749.047,643.156 747.913,648.59 742,653.834 738.558,658.512 734.636,659.693 731.706,660.591 726.131,660.686 L721.17,660.638 727.596,661.961 Q734.825,664.277 739.125,669.143 744.7,675.475 746.968,679.916 749.614,685.019 748.102,688.043 747.063,690.17 744.275,696.596 740.826,702.549 734.4,705.526 728.399,708.314 715.311,705.242 708.743,703.494 705.955,702.785 701.23,701.604 699.435,701.746 697.072,701.935 678.503,706.66 659.697,711.479 653.13,712.141 646.231,712.85 637.962,709.353 634.088,707.558 632.529,706.943 629.977,705.857 628.796,705.998 625.016,706.187 623.079,706.424 619.724,706.896 617.22,708.833 614.385,711.007 610.51,710.062 606.825,709.164 605.88,706.707 604.793,703.919 604.887,702.266 605.029,699.95 607.297,698.202 609.376,696.596 612.684,696.029 614.337,695.792 615.566,695.84 614.668,694.8 614.054,693.43 612.825,690.689 614.148,689.225 615.613,687.618 619.44,686.815 622.653,686.153 625.252,686.39 626.386,686.484 623.835,684.689 620.669,682.468 621.708,681.428 622.937,680.2 626.103,680.294 627.567,680.342 631.158,680.956 632.387,681.145 634.371,682.562 635.789,683.602 636.828,683.082 640.136,681.428 644.577,679.349 651.381,676.184 654.075,675.286 658.327,673.868 662.58,672.923 M558.346,337.354 Q562.504,335.369 577.388,326.486 591.374,318.596 596.382,318.454 609.376,318.076 613.392,318.454 626.197,319.635 638.01,325.541 663.336,338.204 666.974,340.094 683.181,348.694 690.221,354.364 697.025,359.845 702.695,363.105 705.53,364.759 706.995,365.279 M535.666,401.378 Q535.666,397.314 536.658,392.306 538.69,382.241 543.699,377.516 554.235,367.594 567.796,369.72 572.994,370.523 583.152,376.76 592.508,382.478 594.965,385.549 596.902,387.959 601.722,388.856 605.407,389.565 610.321,389.329 612.967,389.234 626.906,388.242 640.325,387.486 644.152,388.384 650.484,389.849 665.131,394.81 681.905,400.527 685.023,403.031 687.386,404.921 695.418,411.914 702.931,418.151 705.813,419.333 709.121,420.656 709.641,421.553 709.971,422.168 709.357,424.341 709.121,425.192 709.641,431.476 710.16,438.327 709.357,443.714 708.365,450.376 703.262,467.811 698.442,484.254 695.891,490.491 693.812,495.641 687.244,507.076 681.243,517.518 679.117,520.259 677.652,522.196 674.345,526.118 L671.321,529.709 675.857,530.465 Q680.96,531.457 683.606,532.78 685.732,533.867 690.363,536.04 694.237,538.308 696.363,541.757 699.151,546.293 699.813,548.561 700.663,551.538 699.671,554.987 698.679,558.389 696.316,562.028 694.379,565.004 692.111,567.272 689.04,570.344 687.15,571.856 683.795,574.549 681.48,574.832 678.408,575.258 676.991,575.116 674.817,574.88 671.085,573.415 668.061,572.234 665.934,569.777 662.958,566.375 660.926,564.91 658.091,562.831 656.626,559.901 654.783,556.121 652.893,554.042 649.775,550.593 647.743,549.365 646.278,548.514 643.443,547.9 641.175,547.427 640.797,547.522 639.427,548.136 637.065,549.081 632.812,551.255 631.206,551.869 628.607,552.814 627.142,550.735 624.827,547.522 624.449,546.435 623.693,544.309 624.78,541.285 626.103,537.694 626.622,536.985 627.426,535.993 630.45,534.67 634.986,532.638 641.081,534.67 641.742,534.906 641.081,531.457 639.38,522.196 639.333,521.96 636.687,505.233 639.191,491.909 641.506,479.765 647.649,461.196 652.61,446.218 652.185,444.659 651.665,442.721 637.821,443.288 622.417,443.95 620.055,443.005 617.409,441.965 602.572,437.949 588.728,434.169 587.877,433.555 M515.112,411.82 Q528.342,424.152 535.761,429.397 555.511,443.43 579.609,450.329 603.234,457.133 625.488,464.456 636.592,468.095 642.971,470.41 M671.982,667.726 Q670.99,663.568 653.082,631.249 634.844,598.268 633.474,594.016 630.733,585.416 628.607,575.258 626.008,562.878 627.095,560.185 628.182,557.586 631.158,554.893 633.096,553.097 635.364,551.68 M662.296,663.001 Q661.02,663.946 659.036,664.844 655.161,666.686 651.901,666.545 648.546,666.403 642.357,663.946 637.868,662.15 635.127,660.638 634.135,660.071 633.379,657.945 632.718,656.15 631.584,656.15 630.45,656.15 627.993,658.276 625.205,660.686 624.024,661.111 622.228,661.772 618.637,660.827 615.471,659.977 613.629,658.748 612.164,657.803 611.786,655.63 611.55,654.118 611.739,650.952 611.88,648.637 613.203,647.267 613.251,647.172 616.227,644.81 617.692,643.628 619.251,643.156 620.007,642.92 620.48,642.92 M628.749,643.392 Q628.56,642.589 628.796,641.549 629.174,639.47 631.111,638.431 633.048,637.391 636.356,637.722 638.199,637.911 641.27,638.431 642.64,638.573 645.192,639.707 647.601,640.793 648.357,640.793 M662.58,680.247 Q655.445,683.98 647.649,687.76 632.151,695.414 629.032,695.84 625.914,696.265 622.559,696.123 L619.818,695.84 M725.517,578.069 L725.469,578.093 Q706.995,583.763 706.569,583.763 706.475,583.763 710.822,599.969 715.074,618.019 714.318,626.618 L712.523,646.369 Q711.153,666.781 713.373,670.325" test="Jean Reno body"/>
    </g>
    <g id="Jean-Renof88r1">
      <g id="JeanRenoFace">
        <path fill="#000" stroke="none" d="M492.535,139.109 Q487.952,142.463 485.731,146.905 482.613,153.189 477.037,159.71 469.761,168.309 464.469,168.64 459.508,168.923 445.663,163.49 430.969,157.3 427.141,155.882 422.7,154.229 416.652,147.046 408.808,137.786 407.249,136.462 405.312,134.809 404.32,132.257 403.516,129.422 403.186,128.336 402.619,126.398 401.579,125.973 400.303,125.406 397.327,126.54 389.672,129.139 386.365,130.604 380.883,133.013 376.064,137.88 367.795,145.96 363.59,150.07 356.077,157.489 352.912,161.552 334.484,185.65 328.814,192.737 324.798,197.746 322.672,203.274 320.923,207.81 319.364,215.89 317.474,225.812 309.442,253.217 L309.111,283.505 Q308.782,317.706 309.016,338.362 312.607,341.622 315.112,346.725 316.671,349.796 319.837,357.215 321.254,360.239 322.105,367.042 322.719,372.476 326.452,377.532 329.712,381.974 333.823,385.234 337.508,388.116 340.154,392.18 341.146,393.691 345.966,404.37 348.801,410.701 352.439,411.552 353.479,411.788 361.653,415.568 367.228,418.167 370.867,416.75 372.757,415.994 375.166,416.088 376.537,416.135 379.324,416.324 384.711,416.466 390.239,412.025 395.059,408.15 404.65,404.748 412.966,401.819 414.809,399.267 416.085,397.519 417.691,397.472 418.778,397.472 420.904,398.369 426.102,400.637 429.504,399.267 433.048,397.85 441.505,394.353 449.113,391.754 454.546,392.652 458.326,393.266 468.013,397.282 476.895,400.921 481.479,401.157 485.4,401.393 492.252,406.969 498.253,411.883 502.269,410.607 504.726,409.851 507.277,410.56 508.317,410.843 511.482,412.403 516.633,414.812 520.696,412.025 523.106,410.371 526.461,409.52 528.398,409.048 532.084,408.386 538.557,406.874 541.014,401.157 544.18,393.786 546.873,389.25 549.472,384.809 553.771,379.422 555.378,377.39 563.221,370.633 568.75,365.861 569.836,361.467 570.923,357.167 574.514,352.631 579.05,346.82 580.231,344.457 581.885,341.15 583.775,336.661 585.429,333.684 588.736,333.07 592.233,332.456 592.752,334.345 592.989,335.149 592.516,340.205 592.233,343.465 590.674,345.922 L589.209,347.765 590.674,345.922 Q592.233,343.465 592.516,340.205 592.989,335.149 592.752,334.345 592.233,332.456 588.736,333.07 585.429,333.684 583.775,336.661 581.885,341.15 580.231,344.457 579.05,346.82 574.514,352.631 570.923,357.167 569.836,361.467 568.75,365.861 563.221,370.633 555.378,377.39 553.771,379.422 549.472,384.809 546.873,389.25 544.18,393.786 541.014,401.157 538.557,406.874 532.084,408.386 528.398,409.048 526.461,409.52 523.106,410.371 520.696,412.025 516.633,414.812 511.482,412.403 508.317,410.843 507.277,410.56 504.726,409.851 502.269,410.607 498.253,411.883 492.252,406.969 485.4,401.393 481.479,401.157 476.895,400.921 468.013,397.282 458.326,393.266 454.546,392.652 449.113,391.754 441.505,394.353 433.048,397.85 429.504,399.267 426.102,400.637 420.904,398.369 418.778,397.472 417.691,397.472 416.085,397.519 414.809,399.267 412.966,401.819 404.65,404.748 395.059,408.15 390.239,412.025 384.711,416.466 379.324,416.324 376.537,416.135 375.166,416.088 372.757,415.994 370.867,416.75 367.228,418.167 361.653,415.568 353.479,411.788 352.439,411.552 348.801,410.701 345.966,404.37 341.146,393.691 340.154,392.18 337.508,388.116 333.823,385.234 329.712,381.974 326.452,377.532 322.719,372.476 322.105,367.042 321.254,360.239 319.837,357.215 316.671,349.796 315.112,346.725 312.607,341.622 309.016,338.362 309.015,338.48 309.016,338.598 309.253,355.75 309.914,361.94 310.386,366.665 312.182,374.555 314.119,382.824 317.001,392.416 317.238,393.125 323.569,406.213 329.617,418.781 331.649,426.672 335.902,443.399 338.784,447.887 340.343,450.344 343.509,453.321 345.541,455.258 351.494,460.692 353.101,462.204 358.865,469.575 364.535,476.852 366.236,478.364 370.394,482.096 378.238,486.254 384.994,489.798 388.822,494.24 395.767,502.272 401.532,505.391 407.769,508.698 417.172,508.887 417.361,508.887 432.055,511.628 444.057,513.895 450.294,512.195 455.113,510.871 465.556,510.73 475.573,510.588 481.195,508.792 489.842,506.052 495.465,502.177 501.465,497.972 508.411,489.515 511.955,486.349 513.798,484.6 517.058,481.482 518.003,477.088 518.853,473.119 527.264,465.417 535.863,457.573 537.092,453.179 539.644,444.06 543.66,437.634 547.582,431.444 553.63,426.578 557.977,423.128 561.804,412.875 565.678,402.575 568.513,400.165 573.427,396.054 576.026,388.447 578.2,380.32 579.286,377.532 584.626,363.641 588.642,354.332 L591.571,347.765 592.186,349.607 Q593.839,351.592 599.131,352.49 604.66,353.435 608.581,349.088 611.18,346.158 612.361,342.095 612.645,341.055 610.708,330.896 608.534,319.556 609.054,310.862 609.668,300.987 614.299,290.497 616.614,285.158 622.331,275.425 626.253,268.763 627.056,263.518 628.001,257.234 624.694,252.272 620.205,245.516 618.126,244.429 614.299,242.397 607.495,246.744 606.597,250.382 604.518,256.572 600.549,268.479 600.549,272.59 600.549,277.598 598.895,285.3 598.092,289.127 597.241,291.962 588.264,258.887 584.484,246.13 580.987,234.365 571.254,210.125 560.434,183.193 556.606,179.035 552.307,174.357 539.077,163.348 525.705,152.197 519.751,148.322 517.2,146.669 510.065,139.959 505.34,135.517 501.796,135.517 497.355,135.517 492.535,139.109 M557.079,264.982 Q562.229,272.543 562.276,272.59 562.229,272.543 557.079,264.982 553.015,258.982 549.046,256.997 544.841,254.918 532.698,256.43 519.043,258.651 514.554,259.36 508.033,260.399 494.662,265.691 481.715,270.794 475.809,274.48 481.715,270.794 494.662,265.691 508.033,260.399 514.554,259.36 519.043,258.651 532.698,256.43 544.841,254.918 549.046,256.997 553.015,258.982 557.079,264.982 M541.77,282.323 L540.683,287.048 Q539.124,292.34 536.761,295.27 533.785,299.003 529.248,300.42 524.24,301.979 516.444,300.94 503.828,299.286 502.741,281.284 497.567,283.206 492.346,285.631 L488.094,287.71 492.346,285.631 Q497.567,283.206 502.741,281.284 502.812,281.262 502.883,281.237 519.09,275.33 529.201,276.37 533.596,276.834 541.77,282.323 542.735,282.973 543.754,283.694 553.535,290.639 556.134,291.017 553.535,290.639 543.754,283.694 542.735,282.973 541.77,282.323 M545.786,305.145 Q550.464,303.16 551.409,299.995 550.464,303.16 545.786,305.145 542.242,306.61 537.706,307.082 542.242,306.61 545.786,305.145 M513.42,326.502 Q519.846,327.164 524.476,325.037 519.846,327.164 513.42,326.502 506.947,325.84 502.741,322.675 506.947,325.84 513.42,326.502 M490.456,296.215 Q493.858,303.917 500.851,307.082 493.858,303.917 490.456,296.215 M479.164,360.002 L479.116,356.742 479.164,360.002 Q479.069,363.641 478.171,365.72 477.274,367.799 471.982,370.019 L466.831,371.862 Q463.713,372.382 462.106,367.751 462.106,367.94 462.106,368.082 462.106,371.437 459.886,375.075 457.429,378.997 452.656,382.73 447.412,386.84 440.844,386.51 433.662,386.131 426.196,380.367 419.865,375.5 417.266,365.483 415.282,357.97 415.754,349.655 416.037,344.457 420.621,329.668 425.488,314.642 426.196,311.807 427.141,308.264 427.236,296.357 427.141,283.93 427.141,281.567 427.141,276.653 425.015,271.409 422.18,264.557 417.172,262.667 414.1,261.533 407.532,260.777 401.437,260.068 395.437,257.47 387.121,253.831 374.599,251.705 361.795,249.485 356.219,250.855 350.785,252.225 344.17,256.572 338.028,260.683 333.539,265.502 338.028,260.683 344.17,256.572 350.785,252.225 356.219,250.855 361.795,249.485 374.599,251.705 387.121,253.831 395.437,257.47 401.437,260.068 407.532,260.777 414.1,261.533 417.172,262.667 422.18,264.557 425.015,271.409 427.141,276.653 427.141,281.567 427.141,283.93 427.236,296.357 427.141,308.264 426.196,311.807 425.488,314.642 420.621,329.668 416.037,344.457 415.754,349.655 415.282,357.97 417.266,365.483 419.865,375.5 426.196,380.367 433.662,386.131 440.844,386.51 447.412,386.84 452.656,382.73 457.429,378.997 459.886,375.075 462.106,371.437 462.106,368.082 462.106,367.94 462.106,367.751 461.728,366.712 461.445,365.389 L460.689,358.16 461.398,361.514 Q462.059,365.2 462.106,367.751 463.713,372.382 466.831,371.862 L471.982,370.019 Q477.274,367.799 478.171,365.72 479.069,363.641 479.164,360.002 M483.841,421.002 Q486.818,421.758 492.393,426.105 498.442,430.783 501.324,431.87 504.773,433.193 504.773,440.564 504.773,445.383 504.773,445.761 504.962,448.265 506.049,448.88 509.356,450.77 510.301,453.085 511.577,456.109 507.466,458.33 506.758,458.708 494.52,464.283 485.637,468.347 483.369,470.615 482.235,471.749 481.195,474.111 L479.494,478.08 Q477.132,482.521 472.029,481.955 465.886,481.293 461.35,481.529 457.239,481.766 453.129,482.9 443.254,485.593 439.993,486.16 430.165,487.814 427.141,484.79 416.888,474.678 410.557,470.615 408.1,469.055 404.65,463.433 401.437,458.141 398.744,456.912 395.626,455.495 394.539,453.652 393.547,451.242 392.129,449.352 390.381,446.99 390.381,443.682 L390.712,440.847 Q392.885,434.988 396.807,429.743 398.555,427.428 403.942,421.475 406.54,418.592 411.643,417.411 417.644,415.946 420.007,414.387 423.22,412.261 429.645,412.025 437.064,411.788 438.954,411.08 441.458,410.182 450.105,411.316 459.177,412.544 463.051,411.552 467.446,410.465 474.155,415.049 482.329,420.624 483.841,421.002 M408.667,282.985 Q399.755,278.528 396.523,277.031 L396.948,278.118 Q397.232,280.102 396.382,284.402 395.248,290.309 391.326,293.285 386.506,297.018 377.009,296.687 367.984,296.357 363.684,290.497 361.039,286.765 359.857,279.583 348.618,283.938 345.824,287.71 348.618,283.938 359.857,279.583 360.02,279.553 360.188,279.488 366.661,277.078 374.316,275.047 380.931,273.299 383.624,273.062 386.979,272.779 395.626,276.606 396.004,276.774 396.523,277.031 399.755,278.528 408.667,282.985 M404.131,300.987 Q406.777,297.538 406.777,293.852 406.777,297.538 404.131,300.987 401.674,304.153 398.272,305.665 401.674,304.153 404.131,300.987 M350.833,305.617 Q355.274,309.303 359,310.39 355.274,309.303 350.833,305.617 346.202,301.743 343.462,296.215 346.202,301.743 350.833,305.617 M359.527,318.895 Q364.441,323.195 366.52,324.045 371.906,326.219 379.844,323.147 371.906,326.219 366.52,324.045 364.441,323.195 359.527,318.895 M546.637,104.758 Q541.817,103.34 539.691,101.97 536.761,100.175 536.289,97.245 535.391,91.953 543.565,86.992 547.629,84.488 551.881,83.07 547.771,82.598 542.337,82.834 531.469,83.306 524.949,86.85 521.452,88.787 518.476,88.315 516.491,88.031 513.562,86.283 510.112,84.204 508.553,83.684 505.387,82.598 501.796,83.543 495.796,85.102 484.361,79.715 477.652,76.55 476.754,76.172 473.116,74.754 471.556,75.51 468.391,77.117 448.498,76.219 430.921,75.416 421.897,74.093 415.943,73.195 407.013,65.777 L399.217,58.5 399.878,61.76 Q400.587,65.588 400.681,68.612 401.059,78.156 395.437,75.51 389.814,72.864 377.907,72.486 L367.087,72.675 374.836,79.763 Q381.545,86.614 376.537,85.433 371.528,84.251 360.991,88.504 L351.494,92.993 353.668,93.134 Q356.172,93.418 357.826,94.127 363.118,96.347 358.109,101.97 347.478,113.877 342.091,120.776 330.562,135.565 320.782,153.047 312.844,167.222 310.198,200.534 308.544,221.654 309.205,245.988 309.3,250.524 309.442,253.217 317.474,225.812 319.364,215.89 320.923,207.81 322.672,203.274 324.798,197.746 328.814,192.737 334.484,185.65 352.912,161.552 356.077,157.489 363.59,150.07 367.795,145.96 376.064,137.88 380.883,133.013 386.365,130.604 389.672,129.139 397.327,126.54 400.303,125.406 401.579,125.973 402.619,126.398 403.186,128.336 403.516,129.422 404.32,132.257 405.312,134.809 407.249,136.462 408.808,137.786 416.652,147.046 422.7,154.229 427.141,155.882 430.969,157.3 445.663,163.49 459.508,168.923 464.469,168.64 469.761,168.309 477.037,159.71 482.613,153.189 485.731,146.905 487.952,142.463 492.535,139.109 497.355,135.517 501.796,135.517 505.34,135.517 510.065,139.959 517.2,146.669 519.751,148.322 525.705,152.197 539.077,163.348 552.307,174.357 556.606,179.035 560.434,183.193 571.254,210.125 580.987,234.365 584.484,246.13 588.264,258.887 597.241,291.962 598.092,289.127 598.895,285.3 600.549,277.598 600.549,272.59 600.549,268.479 604.518,256.572 606.597,250.382 607.495,246.744 608.203,243.626 608.109,242.35 607.873,239.751 606.597,231.86 605.085,222.883 604.329,216.362 601.636,193.163 601.257,189.383 599.32,170.577 599.604,164.86 599.935,158.434 585.712,138.022 572.01,118.319 563.694,111.893 559.3,108.491 546.637,104.758Z" test="JeanRenoFace" vector-effect="non-scaling-stroke" stroke-width="1"/>
        <path id="Layer3_0_1_STROKES" stroke="#FFF" stroke-width="1.89" stroke-linejoin="round" stroke-linecap="round" fill="none" d="M309.442,253.217 Q309.3,250.524 309.205,245.988 308.544,221.654 310.198,200.534 312.844,167.222 320.782,153.047 330.562,135.565 342.091,120.776 347.478,113.877 358.109,101.97 363.118,96.347 357.826,94.127 356.172,93.418 353.668,93.134 L351.494,92.993 360.991,88.504 Q371.528,84.251 376.537,85.433 381.545,86.614 374.836,79.763 L367.087,72.675 377.907,72.486 Q389.814,72.864 395.437,75.51 401.059,78.156 400.681,68.612 400.587,65.588 399.878,61.76 L399.217,58.5 407.013,65.777 Q415.943,73.195 421.897,74.093 430.921,75.416 448.498,76.219 468.391,77.117 471.556,75.51 473.116,74.754 476.754,76.172 477.652,76.55 484.361,79.715 495.796,85.102 501.796,83.543 505.387,82.598 508.553,83.684 510.112,84.204 513.562,86.283 516.491,88.031 518.476,88.315 521.452,88.787 524.949,86.85 531.469,83.306 542.337,82.834 547.771,82.598 551.881,83.07 547.629,84.488 543.565,86.992 535.391,91.953 536.289,97.245 536.761,100.175 539.691,101.97 541.817,103.34 546.637,104.758 559.3,108.491 563.694,111.893 572.01,118.319 585.712,138.022 599.935,158.434 599.604,164.86 599.32,170.577 601.257,189.383 601.636,193.163 604.329,216.362 605.085,222.883 606.597,231.86 607.873,239.751 608.109,242.35 608.203,243.626 607.495,246.744 614.299,242.397 618.126,244.429 620.205,245.516 624.694,252.272 628.001,257.234 627.056,263.518 626.253,268.763 622.331,275.425 616.614,285.158 614.299,290.497 609.668,300.987 609.054,310.862 608.534,319.556 610.708,330.896 612.645,341.055 612.361,342.095 611.18,346.158 608.581,349.088 604.66,353.435 599.131,352.49 593.839,351.592 592.186,349.607 L591.571,347.765 588.642,354.332 Q584.626,363.641 579.286,377.532 578.2,380.32 576.026,388.447 573.427,396.054 568.513,400.165 565.678,402.575 561.804,412.875 557.977,423.128 553.63,426.578 547.582,431.444 543.66,437.634 539.644,444.06 537.092,453.179 535.863,457.573 527.264,465.417 518.853,473.119 518.003,477.088 517.058,481.482 513.798,484.6 511.955,486.349 508.411,489.515 501.465,497.972 495.465,502.177 489.842,506.052 481.195,508.792 475.573,510.588 465.556,510.73 455.113,510.871 450.294,512.195 444.057,513.895 432.055,511.628 417.361,508.887 417.172,508.887 407.769,508.698 401.532,505.391 395.767,502.272 388.822,494.24 384.994,489.798 378.238,486.254 370.394,482.096 366.236,478.364 364.535,476.852 358.865,469.575 353.101,462.204 351.494,460.692 345.541,455.258 343.509,453.321 340.343,450.344 338.784,447.887 335.902,443.399 331.649,426.672 329.617,418.781 323.569,406.213 317.238,393.125 317.001,392.416 314.119,382.824 312.182,374.555 310.386,366.665 309.914,361.94 309.253,355.75 309.016,338.598 309.015,338.48 309.016,338.362 308.782,317.706 309.111,283.505 L309.442,253.217 Q317.474,225.812 319.364,215.89 320.923,207.81 322.672,203.274 324.798,197.746 328.814,192.737 334.484,185.65 352.912,161.552 356.077,157.489 363.59,150.07 367.795,145.96 376.064,137.88 380.883,133.013 386.365,130.604 389.672,129.139 397.327,126.54 400.303,125.406 401.579,125.973 402.619,126.398 403.186,128.336 403.516,129.422 404.32,132.257 405.312,134.809 407.249,136.462 408.808,137.786 416.652,147.046 422.7,154.229 427.141,155.882 430.969,157.3 445.663,163.49 459.508,168.923 464.469,168.64 469.761,168.309 477.037,159.71 482.613,153.189 485.731,146.905 487.952,142.463 492.535,139.109 497.355,135.517 501.796,135.517 505.34,135.517 510.065,139.959 517.2,146.669 519.751,148.322 525.705,152.197 539.077,163.348 552.307,174.357 556.606,179.035 560.434,183.193 571.254,210.125 580.987,234.365 584.484,246.13 588.264,258.887 597.241,291.962 598.092,289.127 598.895,285.3 600.549,277.598 600.549,272.59 600.549,268.479 604.518,256.572 606.597,250.382 607.495,246.744 M475.809,274.48 Q481.715,270.794 494.662,265.691 508.033,260.399 514.554,259.36 519.043,258.651 532.698,256.43 544.841,254.918 549.046,256.997 553.015,258.982 557.079,264.982 562.229,272.543 562.276,272.59 M502.741,281.284 Q503.828,299.286 516.444,300.94 524.24,301.979 529.248,300.42 533.785,299.003 536.761,295.27 539.124,292.34 540.683,287.048 L541.77,282.323 Q533.596,276.834 529.201,276.37 519.09,275.33 502.883,281.237 502.812,281.262 502.741,281.284 497.567,283.206 492.346,285.631 L488.094,287.71 M541.77,282.323 Q542.735,282.973 543.754,283.694 553.535,290.639 556.134,291.017 M537.706,307.082 Q542.242,306.61 545.786,305.145 550.464,303.16 551.409,299.995 M309.016,338.362 Q312.607,341.622 315.112,346.725 316.671,349.796 319.837,357.215 321.254,360.239 322.105,367.042 322.719,372.476 326.452,377.532 329.712,381.974 333.823,385.234 337.508,388.116 340.154,392.18 341.146,393.691 345.966,404.37 348.801,410.701 352.439,411.552 353.479,411.788 361.653,415.568 367.228,418.167 370.867,416.75 372.757,415.994 375.166,416.088 376.537,416.135 379.324,416.324 384.711,416.466 390.239,412.025 395.059,408.15 404.65,404.748 412.966,401.819 414.809,399.267 416.085,397.519 417.691,397.472 418.778,397.472 420.904,398.369 426.102,400.637 429.504,399.267 433.048,397.85 441.505,394.353 449.113,391.754 454.546,392.652 458.326,393.266 468.013,397.282 476.895,400.921 481.479,401.157 485.4,401.393 492.252,406.969 498.253,411.883 502.269,410.607 504.726,409.851 507.277,410.56 508.317,410.843 511.482,412.403 516.633,414.812 520.696,412.025 523.106,410.371 526.461,409.52 528.398,409.048 532.084,408.386 538.557,406.874 541.014,401.157 544.18,393.786 546.873,389.25 549.472,384.809 553.771,379.422 555.378,377.39 563.221,370.633 568.75,365.861 569.836,361.467 570.923,357.167 574.514,352.631 579.05,346.82 580.231,344.457 581.885,341.15 583.775,336.661 585.429,333.684 588.736,333.07 592.233,332.456 592.752,334.345 592.989,335.149 592.516,340.205 592.233,343.465 590.674,345.922 L589.209,347.765 M527.784,282.985 L531.564,283.93 M502.741,322.675 Q506.947,325.84 513.42,326.502 519.846,327.164 524.476,325.037 M490.456,296.215 Q493.858,303.917 500.851,307.082 M462.106,367.751 Q463.713,372.382 466.831,371.862 L471.982,370.019 Q477.274,367.799 478.171,365.72 479.069,363.641 479.164,360.002 L479.116,356.742 M462.106,367.751 Q462.059,365.2 461.398,361.514 L460.689,358.16 461.445,365.389 Q461.728,366.712 462.106,367.751 462.106,367.94 462.106,368.082 462.106,371.437 459.886,375.075 457.429,378.997 452.656,382.73 447.412,386.84 440.844,386.51 433.662,386.131 426.196,380.367 419.865,375.5 417.266,365.483 415.282,357.97 415.754,349.655 416.037,344.457 420.621,329.668 425.488,314.642 426.196,311.807 427.141,308.264 427.236,296.357 427.141,283.93 427.141,281.567 427.141,276.653 425.015,271.409 422.18,264.557 417.172,262.667 414.1,261.533 407.532,260.777 401.437,260.068 395.437,257.47 387.121,253.831 374.599,251.705 361.795,249.485 356.219,250.855 350.785,252.225 344.17,256.572 338.028,260.683 333.539,265.502 M405.359,437.067 Q409.517,434.421 415.093,432.815 421.141,431.066 426.196,431.397 428.937,431.586 435.126,433.807 440.324,435.697 445.096,435.177 448.876,434.752 455.964,432.248 462.248,429.98 466.831,429.98 472.69,429.98 477.84,432.342 481,434.279 485.259,437.54 M390.712,440.847 Q392.885,434.988 396.807,429.743 398.555,427.428 403.942,421.475 406.54,418.592 411.643,417.411 417.644,415.946 420.007,414.387 423.22,412.261 429.645,412.025 437.064,411.788 438.954,411.08 441.458,410.182 450.105,411.316 459.177,412.544 463.051,411.552 467.446,410.465 474.155,415.049 482.329,420.624 483.841,421.002 486.818,421.758 492.393,426.105 498.442,430.783 501.324,431.87 504.773,433.193 504.773,440.564 504.773,445.383 504.773,445.761 504.962,448.265 506.049,448.88 509.356,450.77 510.301,453.085 511.577,456.109 507.466,458.33 506.758,458.708 494.52,464.283 485.637,468.347 483.369,470.615 482.235,471.749 481.195,474.111 L479.494,478.08 Q477.132,482.521 472.029,481.955 465.886,481.293 461.35,481.529 457.239,481.766 453.129,482.9 443.254,485.593 439.993,486.16 430.165,487.814 427.141,484.79 416.888,474.678 410.557,470.615 408.1,469.055 404.65,463.433 401.437,458.141 398.744,456.912 395.626,455.495 394.539,453.652 393.547,451.242 392.129,449.352 390.381,446.99 390.381,443.682 L390.712,440.847Z M308.496,245.657 Q303.299,238.711 295.172,238.381 287.14,238.097 285.344,244.24 284.116,248.445 290.352,262.006 297.157,276.701 297.157,281.567 297.157,286.765 297.393,305.003 297.393,321.777 296.212,327.4 294.936,333.542 297.204,335.669 298,337.322 302.827,336.425 M408.667,282.985 Q399.755,278.528 396.547,277.031 L396.948,278.118 Q397.232,280.102 396.382,284.402 395.248,290.309 391.326,293.285 386.506,297.018 377.009,296.687 367.984,296.357 363.684,290.497 361.039,286.765 359.857,279.606 348.618,283.938 345.824,287.71 M396.547,277.031 Q396.004,276.774 395.626,276.606 386.979,272.779 383.624,273.062 380.931,273.299 374.316,275.047 366.661,277.078 360.188,279.488 360.02,279.553 359.857,279.606 M384.569,279.205 L386.932,279.677 M398.272,305.665 Q401.674,304.153 404.131,300.987 406.777,297.538 406.777,293.852 M343.462,296.215 Q346.202,301.743 350.833,305.617 355.274,309.303 359,310.39 M359.527,318.895 Q364.441,323.195 366.52,324.045 371.906,326.219 379.844,323.147 M439.426,421.002 Q447.931,422.42 452.184,422.42 M439.899,443.21 Q443.537,442.737 444.577,442.784 446.797,442.879 450.294,444.155" test="JeanRenoFace"/>
      </g>
      <g id="TearAnimf28r1">
        <use xlink:href="#TearGraphic" transform="matrix(.914 0 0 .914 381.85 479.35)"/>
      </g>
      <g id="TearAnimf13r1">
        <use xlink:href="#TearGraphic" transform="matrix(.914 0 0 .914 381.85 321.95)"/>
      </g>
    </g>
    <g id="BlackMaskRect">
      <path fill="#000" stroke="none" d="M823.45,613.6 L823.45,508.3 -23.6,508.3 -23.6,613.6 823.45,613.6Z" test="BlackMaskRect"/>
    </g>
  </g>
</svg>