<?xml version="1.0" encoding="utf-8"?>
<svg id="EdithAnim06" image-rendering="inherit" baseProfile="basic" version="1.1" x="0px" y="0px" width="800" height="600" xmlns="http://www.w3.org/2000/svg" xmlns:xlink="http://www.w3.org/1999/xlink">
  <defs>
    <g id="TearGraphic" overflow="visible">
      <path id="Layer4_0_1_STROKES" stroke="#0FF" stroke-width="1" stroke-linejoin="round" stroke-linecap="round" fill="none" d="M-1.15 1.6Q-1.25 5.75 -2.25 8.6 -3.4 11.65 -6.8 16.5 -10.25 21.45 -8.25 27.95 -6.25 34.6 -.7 34.8 4.75 35 7.25 30.15 9.3 26.2 8.9 20.65 8.7 17.9 4.8 12.25 .55 6.05 -.7 0" test="TearGraphic"/>
    </g>
  </defs>
  <g id="Jean-Renof161r1" overflow="visible">
    <g id="Jean-Reno-body">
      <path id="Layer2_0_1_STROKES" stroke="#FEB7AE" stroke-width="1.89" stroke-linejoin="round" stroke-linecap="round" fill="none" d="M584.995,355.617 Q591.137,361.76 629.457,367.902 655.208,372.06 682.377,374.517 689.653,375.179 732.226,383.873 768.561,391.244 774.987,389.637 784.768,387.18 792.233,384.203 801.73,380.376 810.897,374.517 820.016,368.658 832.207,366.863 842.413,365.303 850.634,366.957 856.54,368.138 862.21,370.028 865.045,370.973 866.699,371.682 865.045,372.155 863.155,373.147 859.47,375.179 858.572,377.966 857.674,380.754 860.746,383.589 862.305,384.959 864.006,385.81 862.116,386.566 860.415,387.936 856.966,390.677 857.863,393.606 858.761,396.583 864.431,397.859 867.266,398.52 869.912,398.567 L870.952,404.615 Q872.416,410.947 874.637,412.27 876.858,413.593 882.244,411.041 884.938,409.813 887.158,408.254 L888.954,412.27 Q891.411,416.192 894.955,415.577 898.498,415.01 901.475,411.939 902.94,410.38 903.696,408.962 L907.145,410.38 Q910.831,411.561 912.012,410.38 913.193,409.199 914.138,405.891 L914.847,402.82 917.115,415.766 Q919.194,429.563 918.154,433.532 918.06,433.863 917.068,438.73 916.359,442.179 915.461,444.447 912.815,451.204 906.058,454.795 M838.255,409.435 Q846.476,407.45 857.722,409.388 874.117,412.175 882.67,423.137 885.977,427.39 892.876,436.131 898.782,443.833 902.089,450.023 911.02,466.749 907.476,483.854 903.979,500.675 894.624,516.125 890.324,523.213 881.961,533.466 879.598,536.348 870.81,543.247 860.368,551.421 847.657,559.643 812.173,582.653 779.901,592.576 L764.167,597.419 Q766.806,600.72 768.939,611.381 771.112,622.249 770.215,628.25 769.459,633.353 772.152,636.755 772.861,637.7 776.357,640.298 779.145,642.377 783.35,648.992 788.784,657.497 787.697,662.506 786.563,667.94 781.649,673.184 777.208,677.862 773.286,679.043 770.356,679.941 764.781,680.036 L759.82,679.988 766.246,681.311 Q773.475,683.627 777.775,688.493 783.35,694.825 785.618,699.266 788.264,704.369 786.752,707.393 785.713,709.52 782.925,715.946 779.476,721.899 773.05,724.876 767.049,727.664 753.961,724.592 747.393,722.844 744.605,722.135 739.88,720.954 738.085,721.096 735.722,721.285 717.153,726.01 698.347,730.829 691.78,731.491 684.881,732.2 676.612,728.703 672.738,726.908 671.179,726.293 668.627,725.207 667.446,725.348 663.666,725.537 661.729,725.774 658.374,726.246 655.87,728.183 653.035,730.357 649.16,729.412 645.475,728.514 644.53,726.057 643.443,723.269 643.537,721.616 643.679,719.3 645.947,717.552 648.026,715.946 651.334,715.379 652.987,715.142 654.216,715.19 653.318,714.15 652.704,712.78 651.475,710.039 652.798,708.575 654.263,706.968 658.09,706.165 661.303,705.503 663.902,705.74 665.036,705.834 662.485,704.039 659.319,701.818 660.358,700.778 661.587,699.55 664.753,699.644 666.217,699.692 669.808,700.306 671.037,700.495 673.021,701.912 674.439,702.952 675.478,702.432 678.786,700.778 683.227,698.699 690.031,695.534 692.725,694.636 696.977,693.218 701.23,692.273 M596.996,356.704 Q601.154,354.719 616.038,345.836 630.024,337.946 635.032,337.804 648.026,337.426 652.042,337.804 664.847,338.985 676.66,344.891 701.986,357.554 705.624,359.444 721.831,368.044 728.871,373.714 735.675,379.195 741.345,382.455 744.18,384.109 745.645,384.629 M574.316,420.728 Q574.316,416.664 575.308,411.656 577.34,401.591 582.349,396.866 592.885,386.944 606.446,389.07 611.644,389.873 621.802,396.11 631.158,401.828 633.615,404.899 635.552,407.309 640.372,408.206 644.057,408.915 648.971,408.679 651.617,408.584 665.556,407.592 678.975,406.836 682.802,407.734 689.134,409.199 703.781,414.16 720.555,419.877 723.673,422.381 726.036,424.271 734.068,431.264 741.581,437.501 744.463,438.683 747.771,440.006 748.291,440.903 748.621,441.518 748.007,443.691 747.771,444.542 748.291,450.826 748.81,457.677 748.007,463.064 747.015,469.726 741.912,487.161 737.092,503.604 734.541,509.841 732.462,514.991 725.894,526.426 719.893,536.868 717.767,539.609 716.302,541.546 712.995,545.468 L709.971,549.059 714.507,549.815 Q719.61,550.807 722.256,552.13 724.382,553.217 729.013,555.39 732.887,557.658 735.013,561.107 737.801,565.643 738.463,567.911 739.313,570.888 738.321,574.337 737.329,577.739 734.966,581.378 733.029,584.354 730.761,586.622 727.69,589.694 725.8,591.206 722.445,593.899 720.13,594.182 717.058,594.608 715.641,594.466 713.467,594.23 709.735,592.765 706.711,591.584 704.584,589.127 701.608,585.725 699.576,584.26 696.741,582.181 695.276,579.251 693.433,575.471 691.543,573.392 688.425,569.943 686.393,568.715 684.928,567.864 682.093,567.25 679.825,566.777 679.447,566.872 678.077,567.486 675.715,568.431 671.462,570.605 669.856,571.219 667.257,572.164 665.792,570.085 663.477,566.872 663.099,565.785 662.343,563.659 663.43,560.635 664.753,557.044 665.272,556.335 666.076,555.343 669.1,554.02 673.636,551.988 679.731,554.02 680.392,554.256 679.731,550.807 678.03,541.546 677.983,541.31 675.337,524.583 677.841,511.259 680.156,499.115 686.299,480.546 691.26,465.568 690.835,464.009 690.315,462.071 676.471,462.638 661.067,463.3 658.705,462.355 656.059,461.315 641.222,457.299 627.378,453.519 626.527,452.905 M553.762,431.17 Q566.992,443.502 574.411,448.747 594.161,462.78 618.259,469.679 641.884,476.483 664.138,483.806 675.242,487.445 681.621,489.76 M710.632,687.076 Q709.64,682.918 691.732,650.599 673.494,617.618 672.124,613.366 669.383,604.766 667.257,594.608 664.658,582.228 665.745,579.535 666.832,576.936 669.808,574.243 671.746,572.447 674.014,571.03 M700.946,682.351 Q699.67,683.296 697.686,684.194 693.811,686.036 690.551,685.895 687.196,685.753 681.007,683.296 676.518,681.5 673.777,679.988 672.785,679.421 672.029,677.295 671.368,675.5 670.234,675.5 669.1,675.5 666.643,677.626 663.855,680.036 662.674,680.461 660.878,681.122 657.287,680.177 654.121,679.327 652.279,678.098 650.814,677.153 650.436,674.98 650.2,673.468 650.389,670.302 650.53,667.987 651.853,666.617 651.901,666.522 654.877,664.16 656.342,662.978 657.901,662.506 658.657,662.27 659.13,662.27 M667.399,662.742 Q667.21,661.939 667.446,660.899 667.824,658.82 669.761,657.781 671.698,656.741 675.006,657.072 676.849,657.261 679.92,657.781 681.29,657.923 683.842,659.057 686.251,660.143 687.007,660.143 M701.23,699.597 Q694.095,703.33 686.299,707.11 670.801,714.764 667.682,715.19 664.564,715.615 661.209,715.473 L658.468,715.19 M764.167,597.419 L764.119,597.443 Q745.645,603.113 745.219,603.113 745.125,603.113 749.472,619.319 753.724,637.369 752.968,645.968 L751.173,665.719 Q749.803,686.131 752.023,689.675" test="Jean Reno body"/>
    </g>
    <g id="Jean-Renof92r1">
      <g id="JeanRenoFace">
        <path fill="#000" stroke="none" d="M542.535,165.759 Q537.952,169.113 535.731,173.555 532.613,179.839 527.037,186.36 519.761,194.959 514.469,195.29 509.508,195.573 495.663,190.14 480.969,183.95 477.141,182.532 472.7,180.879 466.652,173.697 458.808,164.436 457.249,163.113 455.312,161.459 454.32,158.907 453.516,156.072 453.186,154.986 452.619,153.048 451.579,152.623 450.303,152.056 447.327,153.19 439.672,155.789 436.365,157.254 430.883,159.663 426.064,164.53 417.795,172.61 413.59,176.721 406.077,184.139 402.912,188.202 384.484,212.3 378.814,219.387 374.798,224.396 372.672,229.924 370.923,234.46 369.364,242.54 367.474,252.462 359.442,279.867 L359.111,310.155 Q358.782,344.356 359.016,365.012 362.607,368.272 365.112,373.375 366.671,376.446 369.837,383.865 371.254,386.889 372.105,393.693 372.719,399.126 376.452,404.182 379.712,408.624 383.823,411.884 387.508,414.766 390.154,418.83 391.146,420.342 395.966,431.02 398.801,437.352 402.439,438.202 403.479,438.438 411.653,442.218 417.228,444.817 420.867,443.4 422.757,442.644 425.166,442.738 426.537,442.785 429.324,442.974 434.711,443.116 440.239,438.674 445.059,434.8 454.65,431.398 462.966,428.468 464.809,425.917 466.085,424.169 467.691,424.121 468.778,424.121 470.904,425.019 476.102,427.287 479.504,425.917 483.048,424.5 491.505,421.003 499.113,418.404 504.546,419.302 508.326,419.916 518.013,423.933 526.896,427.571 531.479,427.807 535.401,428.043 542.252,433.619 548.252,438.533 552.269,437.257 554.726,436.501 557.277,437.21 558.317,437.493 561.483,439.053 566.633,441.462 570.696,438.674 573.106,437.021 576.461,436.17 578.398,435.698 582.084,435.036 588.557,433.524 591.014,427.807 594.18,420.436 596.873,415.9 599.472,411.458 603.771,406.072 605.378,404.04 613.221,397.284 618.75,392.511 619.836,388.117 620.923,383.817 624.514,379.281 629.05,373.47 630.231,371.107 631.885,367.799 633.775,363.311 635.429,360.334 638.736,359.72 642.233,359.106 642.752,360.996 642.989,361.799 642.516,366.855 642.233,370.115 640.674,372.572 L639.209,374.415 640.674,372.572 Q642.233,370.115 642.516,366.855 642.989,361.799 642.752,360.996 642.233,359.106 638.736,359.72 635.429,360.334 633.775,363.311 631.885,367.799 630.231,371.107 629.05,373.47 624.514,379.281 620.923,383.817 619.836,388.117 618.75,392.511 613.221,397.284 605.378,404.04 603.771,406.072 599.472,411.458 596.873,415.9 594.18,420.436 591.014,427.807 588.557,433.524 582.084,435.036 578.398,435.698 576.461,436.17 573.106,437.021 570.696,438.674 566.633,441.462 561.483,439.053 558.317,437.493 557.277,437.21 554.726,436.501 552.269,437.257 548.252,438.533 542.252,433.619 535.401,428.043 531.479,427.807 526.896,427.571 518.013,423.933 508.326,419.916 504.546,419.302 499.113,418.404 491.505,421.003 483.048,424.5 479.504,425.917 476.102,427.287 470.904,425.019 468.778,424.121 467.691,424.121 466.085,424.169 464.809,425.917 462.966,428.468 454.65,431.398 445.059,434.8 440.239,438.674 434.711,443.116 429.324,442.974 426.537,442.785 425.166,442.738 422.757,442.644 420.867,443.4 417.228,444.817 411.653,442.218 403.479,438.438 402.439,438.202 398.801,437.352 395.966,431.02 391.146,420.342 390.154,418.83 387.508,414.766 383.823,411.884 379.712,408.624 376.452,404.182 372.719,399.126 372.105,393.693 371.254,386.889 369.837,383.865 366.671,376.446 365.112,373.375 362.607,368.272 359.016,365.012 359.015,365.13 359.016,365.248 359.253,382.4 359.914,388.59 360.386,393.315 362.182,401.205 364.119,409.474 367.001,419.066 367.238,419.775 373.569,432.863 379.617,445.431 381.649,453.322 385.902,470.049 388.784,474.537 390.343,476.994 393.509,479.971 395.541,481.908 401.494,487.342 403.101,488.854 408.865,496.225 414.535,503.501 416.236,505.014 420.394,508.746 428.238,512.904 434.994,516.448 438.822,520.89 445.767,528.922 451.532,532.041 457.769,535.348 467.172,535.537 467.361,535.537 482.055,538.278 494.057,540.546 500.294,538.845 505.113,537.522 515.555,537.38 525.573,537.238 531.195,535.443 539.842,532.702 545.465,528.828 551.466,524.622 558.411,516.165 561.955,512 563.798,511.251 567.058,508.132 568.003,503.738 568.853,499.769 577.264,492.067 585.863,484.223 587.092,479.829 589.644,470.71 593.66,464.284 597.582,458.094 603.63,453.227 607.977,449.778 611.804,439.525 615.678,429.225 618.513,426.815 623.427,422.704 626.026,415.097 628.2,406.97 629.286,404.182 634.626,390.29 638.642,380.982 L641.571,374.415 642.186,376.257 Q643.839,378.242 649.131,379.14 654.66,380.085 658.581,375.737 661.18,372.808 662.361,368.745 662.645,367.705 660.708,357.546 658.534,346.206 659.054,337.512 659.668,327.637 664.299,317.148 666.614,311.808 672.331,302.075 676.253,295.413 677.056,290.168 678.001,283.884 674.694,278.922 670.205,272.166 668.126,271.079 664.299,269.047 657.495,273.394 656.597,277.032 654.518,283.222 650.549,295.129 650.549,299.24 650.549,304.248 648.895,311.95 648.092,315.777 647.241,318.612 638.264,285.537 634.484,272.78 630.987,261.015 621.254,236.775 610.434,209.843 606.606,205.685 602.307,201.007 589.077,189.998 575.705,178.847 569.751,174.972 567.2,173.319 560.065,166.609 555.34,162.168 551.796,162.168 547.355,162.168 542.535,165.759 M607.079,291.633 Q612.229,299.193 612.276,299.24 612.229,299.193 607.079,291.633 603.015,285.632 599.046,283.647 594.841,281.568 582.698,283.08 569.043,285.301 564.554,286.01 558.033,287.049 544.661,292.341 531.715,297.444 525.809,301.13 531.715,297.444 544.661,292.341 558.033,287.049 564.554,286.01 569.043,285.301 582.698,283.08 594.841,281.568 599.046,283.647 603.015,285.632 607.079,291.633 M591.77,308.973 L590.683,313.698 Q589.124,318.99 586.761,321.92 583.785,325.653 579.248,327.07 574.24,328.629 566.444,327.59 553.828,325.936 552.741,307.934 547.567,309.856 542.346,312.281 L538.094,314.36 542.346,312.281 Q547.567,309.856 552.741,307.934 552.812,307.912 552.883,307.886 569.09,301.98 579.201,303.02 583.596,303.484 591.77,308.973 592.735,309.623 593.754,310.344 603.535,317.289 606.134,317.667 603.535,317.289 593.754,310.344 592.735,309.623 591.77,308.973 M595.786,331.795 Q600.464,329.81 601.409,326.645 600.464,329.81 595.786,331.795 592.242,333.26 587.706,333.732 592.242,333.26 595.786,331.795 M563.42,353.152 Q569.846,353.814 574.476,351.687 569.846,353.814 563.42,353.152 556.947,352.491 552.741,349.325 556.947,352.491 563.42,353.152 M540.456,322.865 Q543.858,330.567 550.851,333.732 543.858,330.567 540.456,322.865 M529.164,386.652 L529.116,383.392 529.164,386.652 Q529.069,390.29 528.171,392.37 527.274,394.448 521.982,396.669 L516.831,398.512 Q513.713,399.032 512.106,394.401 512.106,394.59 512.106,394.732 512.106,398.087 509.886,401.725 507.429,405.647 502.656,409.38 497.412,413.49 490.844,413.16 483.662,412.781 476.196,407.017 469.865,402.15 467.266,392.133 465.282,384.621 465.754,376.304 466.037,371.107 470.621,356.318 475.488,341.292 476.196,338.457 477.141,334.914 477.236,323.006 477.141,310.58 477.141,308.217 477.141,303.303 475.015,298.059 472.18,291.207 467.172,289.317 464.1,288.183 457.532,287.427 451.437,286.719 445.437,284.12 437.121,280.482 424.599,278.355 411.795,276.135 406.219,277.505 400.785,278.875 394.17,283.222 388.028,287.333 383.539,292.152 388.028,287.333 394.17,283.222 400.785,278.875 406.219,277.505 411.795,276.135 424.599,278.355 437.121,280.482 445.437,284.12 451.437,286.719 457.532,287.427 464.1,288.183 467.172,289.317 472.18,291.207 475.015,298.059 477.141,303.303 477.141,308.217 477.141,310.58 477.236,323.006 477.141,334.914 476.196,338.457 475.488,341.292 470.621,356.318 466.037,371.107 465.754,376.304 465.282,384.621 467.266,392.133 469.865,402.15 476.196,407.017 483.662,412.781 490.844,413.16 497.412,413.49 502.656,409.38 507.429,405.647 509.886,401.725 512.106,398.087 512.106,394.732 512.106,394.59 512.106,394.401 511.728,393.362 511.445,392.039 L510.689,384.809 511.398,388.164 Q512.059,391.85 512.106,394.401 513.713,399.032 516.831,398.512 L521.982,396.669 Q527.274,394.448 528.171,392.37 529.069,390.29 529.164,386.652 M533.841,447.652 Q536.818,448.408 542.394,452.755 548.442,457.433 551.324,458.52 554.773,459.843 554.773,467.213 554.773,472.033 554.773,472.411 554.962,474.915 556.049,475.53 559.356,477.42 560.301,479.735 561.577,482.759 557.466,484.98 556.757,485.357 544.52,490.933 535.637,494.996 533.369,497.265 532.235,498.399 531.195,500.761 L529.494,504.73 Q527.132,509.171 522.029,508.605 515.886,507.943 511.35,508.179 507.239,508.415 503.129,509.549 493.254,512.243 489.993,512.81 480.165,514.463 477.141,511.439 466.888,501.328 460.557,497.265 458.1,495.705 454.65,490.083 451.437,484.79 448.744,483.562 445.626,482.145 444.539,480.302 443.547,477.892 442.129,476.002 440.381,473.64 440.381,470.332 L440.712,467.497 Q442.885,461.638 446.807,456.393 448.555,454.078 453.942,448.125 456.54,445.242 461.643,444.061 467.644,442.596 470.007,441.037 473.22,438.911 479.645,438.674 487.064,438.438 488.954,437.73 491.458,436.832 500.105,437.966 509.177,439.194 513.051,438.202 517.446,437.115 524.155,441.698 532.329,447.274 533.841,447.652 M458.667,309.635 Q449.755,305.178 446.523,303.681 L446.948,304.768 Q447.232,306.753 446.382,311.052 445.248,316.959 441.326,319.935 436.506,323.668 427.009,323.337 417.984,323.006 413.684,317.148 411.039,313.415 409.857,306.233 398.618,310.588 395.824,314.36 398.618,310.588 409.857,306.233 410.02,306.203 410.188,306.138 416.661,303.729 424.316,301.697 430.931,299.948 433.624,299.712 436.979,299.429 445.626,303.256 446.004,303.424 446.523,303.681 449.755,305.178 458.667,309.635 M454.131,327.637 Q456.777,324.188 456.777,320.502 456.777,324.188 454.131,327.637 451.674,330.803 448.272,332.315 451.674,330.803 454.131,327.637 M400.833,332.268 Q405.274,335.953 409,337.04 405.274,335.953 400.833,332.268 396.202,328.393 393.462,322.865 396.202,328.393 400.833,332.268 M409.527,345.545 Q414.441,349.845 416.52,350.695 421.906,352.869 429.844,349.797 421.906,352.869 416.52,350.695 414.441,349.845 409.527,345.545 M596.637,131.408 Q591.817,129.99 589.691,128.62 586.761,126.825 586.289,123.895 585.391,118.603 593.565,113.642 597.629,111.138 601.881,109.72 597.771,109.248 592.337,109.484 581.469,109.956 574.949,113.5 571.452,115.437 568.476,114.965 566.491,114.681 563.562,112.933 560.112,110.854 558.553,110.334 555.387,109.248 551.796,110.193 545.796,111.752 534.361,106.365 527.652,103.2 526.754,102.822 523.116,101.404 521.556,102.16 518.391,103.767 498.498,102.869 480.921,102.066 471.897,100.743 465.943,99.845 457.013,92.427 L449.217,85.15 449.878,88.41 Q450.587,92.238 450.681,95.262 451.059,104.806 445.437,102.16 439.814,99.514 427.907,99.136 L417.087,99.325 424.836,106.413 Q431.545,113.264 426.537,112.083 421.528,110.901 410.991,115.154 L401.494,119.643 403.668,119.784 Q406.172,120.068 407.826,120.777 413.118,122.997 408.109,128.62 397.478,140.527 392.091,147.426 380.562,162.215 370.782,179.697 362.844,193.872 360.198,227.184 358.544,248.304 359.205,272.638 359.3,277.174 359.442,279.867 367.474,252.462 369.364,242.54 370.923,234.46 372.672,229.924 374.798,224.396 378.814,219.387 384.484,212.3 402.912,188.202 406.077,184.139 413.59,176.721 417.795,172.61 426.064,164.53 430.883,159.663 436.365,157.254 439.672,155.789 447.327,153.19 450.303,152.056 451.579,152.623 452.619,153.048 453.186,154.986 453.516,156.072 454.32,158.907 455.312,161.459 457.249,163.113 458.808,164.436 466.652,173.697 472.7,180.879 477.141,182.532 480.969,183.95 495.663,190.14 509.508,195.573 514.469,195.29 519.761,194.959 527.037,186.36 532.613,179.839 535.731,173.555 537.952,169.113 542.535,165.759 547.355,162.168 551.796,162.168 555.34,162.168 560.065,166.609 567.2,173.319 569.751,174.972 575.705,178.847 589.077,189.998 602.307,201.007 606.606,205.685 610.434,209.843 621.254,236.775 630.987,261.015 634.484,272.78 638.264,285.537 647.241,318.612 648.092,315.777 648.895,311.95 650.549,304.248 650.549,299.24 650.549,295.129 654.518,283.222 656.597,277.032 657.495,273.394 658.203,270.275 658.109,269 657.873,266.401 656.597,258.51 655.085,249.533 654.329,243.012 651.636,219.813 651.257,216.033 649.32,197.227 649.604,191.51 649.935,185.084 635.712,164.672 622.01,144.969 613.694,138.543 609.3,135.141 596.637,131.408Z" test="JeanRenoFace" vector-effect="non-scaling-stroke" stroke-width="1"/>
        <path id="Layer3_0_1_STROKES" stroke="#FFF" stroke-width="1.89" stroke-linejoin="round" stroke-linecap="round" fill="none" d="M359.442,279.867 Q359.3,277.174 359.205,272.638 358.544,248.304 360.198,227.184 362.844,193.872 370.782,179.697 380.562,162.215 392.091,147.426 397.478,140.527 408.109,128.62 413.118,122.997 407.826,120.777 406.172,120.068 403.668,119.784 L401.494,119.643 410.991,115.154 Q421.528,110.901 426.537,112.083 431.545,113.264 424.836,106.413 L417.087,99.325 427.907,99.136 Q439.814,99.514 445.437,102.16 451.059,104.806 450.681,95.262 450.587,92.238 449.878,88.41 L449.217,85.15 457.013,92.427 Q465.943,99.845 471.897,100.743 480.921,102.066 498.498,102.869 518.391,103.767 521.556,102.16 523.116,101.404 526.754,102.822 527.652,103.2 534.361,106.365 545.796,111.752 551.796,110.193 555.387,109.248 558.553,110.334 560.112,110.854 563.562,112.933 566.491,114.681 568.476,114.965 571.452,115.437 574.949,113.5 581.469,109.956 592.337,109.484 597.771,109.248 601.881,109.72 597.629,111.138 593.565,113.642 585.391,118.603 586.289,123.895 586.761,126.825 589.691,128.62 591.817,129.99 596.637,131.408 609.3,135.141 613.694,138.543 622.01,144.969 635.712,164.672 649.935,185.084 649.604,191.51 649.32,197.227 651.257,216.033 651.636,219.813 654.329,243.012 655.085,249.533 656.597,258.51 657.873,266.401 658.109,269 658.203,270.275 657.495,273.394 664.299,269.047 668.126,271.079 670.205,272.166 674.694,278.922 678.001,283.884 677.056,290.168 676.253,295.413 672.331,302.075 666.614,311.808 664.299,317.148 659.668,327.637 659.054,337.512 658.534,346.206 660.708,357.546 662.645,367.705 662.361,368.745 661.18,372.808 658.581,375.737 654.66,380.085 649.131,379.14 643.839,378.242 642.186,376.257 L641.571,374.415 638.642,380.982 Q634.626,390.29 629.286,404.182 628.2,406.97 626.026,415.097 623.427,422.704 618.513,426.815 615.678,429.225 611.804,439.525 607.977,449.778 603.63,453.227 597.582,458.094 593.66,464.284 589.644,470.71 587.092,479.829 585.863,484.223 577.264,492.067 568.853,499.769 568.003,503.738 567.058,508.132 563.798,511.251 561.955,512 558.411,516.165 551.466,524.622 545.465,528.828 539.842,532.702 531.195,535.443 525.573,537.238 515.555,537.38 505.113,537.522 500.294,538.845 494.057,540.546 482.055,538.278 467.361,535.537 467.172,535.537 457.769,535.348 451.532,532.041 445.767,528.922 438.822,520.89 434.994,516.448 428.238,512.904 420.394,508.746 416.236,505.014 414.535,503.501 408.865,496.225 403.101,488.854 401.494,487.342 395.541,481.908 393.509,479.971 390.343,476.994 388.784,474.537 385.902,470.049 381.649,453.322 379.617,445.431 373.569,432.863 367.238,419.775 367.001,419.066 364.119,409.474 362.182,401.205 360.386,393.315 359.914,388.59 359.253,382.4 359.016,365.248 359.015,365.13 359.016,365.012 358.782,344.356 359.111,310.155 L359.442,279.867 Q367.474,252.462 369.364,242.54 370.923,234.46 372.672,229.924 374.798,224.396 378.814,219.387 384.484,212.3 402.912,188.202 406.077,184.139 413.59,176.721 417.795,172.61 426.064,164.53 430.883,159.663 436.365,157.254 439.672,155.789 447.327,153.19 450.303,152.056 451.579,152.623 452.619,153.048 453.186,154.986 453.516,156.072 454.32,158.907 455.312,161.459 457.249,163.113 458.808,164.436 466.652,173.697 472.7,180.879 477.141,182.532 480.969,183.95 495.663,190.14 509.508,195.573 514.469,195.29 519.761,194.959 527.037,186.36 532.613,179.839 535.731,173.555 537.952,169.113 542.535,165.759 547.355,162.168 551.796,162.168 555.34,162.168 560.065,166.609 567.2,173.319 569.751,174.972 575.705,178.847 589.077,189.998 602.307,201.007 606.606,205.685 610.434,209.843 621.254,236.775 630.987,261.015 634.484,272.78 638.264,285.537 647.241,318.612 648.092,315.777 648.895,311.95 650.549,304.248 650.549,299.24 650.549,295.129 654.518,283.222 656.597,277.032 657.495,273.394 M525.809,301.13 Q531.715,297.444 544.661,292.341 558.033,287.049 564.554,286.01 569.043,285.301 582.698,283.08 594.841,281.568 599.046,283.647 603.015,285.632 607.079,291.633 612.229,299.193 612.276,299.24 M552.741,307.934 Q553.828,325.936 566.444,327.59 574.24,328.629 579.248,327.07 583.785,325.653 586.761,321.92 589.124,318.99 590.683,313.698 L591.77,308.973 Q583.596,303.484 579.201,303.02 569.09,301.98 552.883,307.886 552.812,307.912 552.741,307.934 547.567,309.856 542.346,312.281 L538.094,314.36 M591.77,308.973 Q592.735,309.623 593.754,310.344 603.535,317.289 606.134,317.667 M587.706,333.732 Q592.242,333.26 595.786,331.795 600.464,329.81 601.409,326.645 M359.016,365.012 Q362.607,368.272 365.112,373.375 366.671,376.446 369.837,383.865 371.254,386.889 372.105,393.693 372.719,399.126 376.452,404.182 379.712,408.624 383.823,411.884 387.508,414.766 390.154,418.83 391.146,420.342 395.966,431.02 398.801,437.352 402.439,438.202 403.479,438.438 411.653,442.218 417.228,444.817 420.867,443.4 422.757,442.644 425.166,442.738 426.537,442.785 429.324,442.974 434.711,443.116 440.239,438.674 445.059,434.8 454.65,431.398 462.966,428.468 464.809,425.917 466.085,424.169 467.691,424.121 468.778,424.121 470.904,425.019 476.102,427.287 479.504,425.917 483.048,424.5 491.505,421.003 499.113,418.404 504.546,419.302 508.326,419.916 518.013,423.933 526.896,427.571 531.479,427.807 535.401,428.043 542.252,433.619 548.252,438.533 552.269,437.257 554.726,436.501 557.277,437.21 558.317,437.493 561.483,439.053 566.633,441.462 570.696,438.674 573.106,437.021 576.461,436.17 578.398,435.698 582.084,435.036 588.557,433.524 591.014,427.807 594.18,420.436 596.873,415.9 599.472,411.458 603.771,406.072 605.378,404.04 613.221,397.284 618.75,392.511 619.836,388.117 620.923,383.817 624.514,379.281 629.05,373.47 630.231,371.107 631.885,367.799 633.775,363.311 635.429,360.334 638.736,359.72 642.233,359.106 642.752,360.996 642.989,361.799 642.516,366.855 642.233,370.115 640.674,372.572 L639.209,374.415 M577.784,309.635 L581.564,310.58 M552.741,349.325 Q556.947,352.491 563.42,353.152 569.846,353.814 574.476,351.687 M540.456,322.865 Q543.858,330.567 550.851,333.732 M512.106,394.401 Q513.713,399.032 516.831,398.512 L521.982,396.669 Q527.274,394.448 528.171,392.37 529.069,390.29 529.164,386.652 L529.116,383.392 M512.106,394.401 Q512.059,391.85 511.398,388.164 L510.689,384.809 511.445,392.039 Q511.728,393.362 512.106,394.401 512.106,394.59 512.106,394.732 512.106,398.087 509.886,401.725 507.429,405.647 502.656,409.38 497.412,413.49 490.844,413.16 483.662,412.781 476.196,407.017 469.865,402.15 467.266,392.133 465.282,384.621 465.754,376.304 466.037,371.107 470.621,356.318 475.488,341.292 476.196,338.457 477.141,334.914 477.236,323.006 477.141,310.58 477.141,308.217 477.141,303.303 475.015,298.059 472.18,291.207 467.172,289.317 464.1,288.183 457.532,287.427 451.437,286.719 445.437,284.12 437.121,280.482 424.599,278.355 411.795,276.135 406.219,277.505 400.785,278.875 394.17,283.222 388.028,287.333 383.539,292.152 M455.359,463.717 Q459.517,461.071 465.093,459.465 471.141,457.716 476.196,458.047 478.937,458.236 485.126,460.457 490.324,462.347 495.096,461.827 498.876,461.402 505.964,458.898 512.248,456.63 516.831,456.63 522.69,456.63 527.841,458.992 531,460.929 535.259,464.189 M440.712,467.497 Q442.885,461.638 446.807,456.393 448.555,454.078 453.942,448.125 456.54,445.242 461.643,444.061 467.644,442.596 470.007,441.037 473.22,438.911 479.645,438.674 487.064,438.438 488.954,437.73 491.458,436.832 500.105,437.966 509.177,439.194 513.051,438.202 517.446,437.115 524.155,441.698 532.329,447.274 533.841,447.652 536.818,448.408 542.394,452.755 548.442,457.433 551.324,458.52 554.773,459.843 554.773,467.213 554.773,472.033 554.773,472.411 554.962,474.915 556.049,475.53 559.356,477.42 560.301,479.735 561.577,482.759 557.466,484.98 556.757,485.357 544.52,490.933 535.637,494.996 533.369,497.265 532.235,498.399 531.195,500.761 L529.494,504.73 Q527.132,509.171 522.029,508.605 515.886,507.943 511.35,508.179 507.239,508.415 503.129,509.549 493.254,512.243 489.993,512.81 480.165,514.463 477.141,511.439 466.888,501.328 460.557,497.265 458.1,495.705 454.65,490.083 451.437,484.79 448.744,483.562 445.626,482.145 444.539,480.302 443.547,477.892 442.129,476.002 440.381,473.64 440.381,470.332 L440.712,467.497Z M358.496,272.307 Q353.299,265.362 345.172,265.031 337.14,264.747 335.344,270.89 334.116,275.095 340.352,288.656 347.157,303.351 347.157,308.217 347.157,313.415 347.393,331.653 347.393,348.427 346.212,354.05 344.936,360.192 347.204,362.319 348,363.972 352.827,363.075 M458.667,309.635 Q449.755,305.178 446.547,303.681 L446.948,304.768 Q447.232,306.753 446.382,311.052 445.248,316.959 441.326,319.935 436.506,323.668 427.009,323.337 417.984,323.006 413.684,317.148 411.039,313.415 409.857,306.256 398.618,310.588 395.824,314.36 M446.547,303.681 Q446.004,303.424 445.626,303.256 436.979,299.429 433.624,299.712 430.931,299.948 424.316,301.697 416.661,303.729 410.188,306.138 410.02,306.203 409.857,306.256 M434.569,305.855 L436.932,306.327 M448.272,332.315 Q451.674,330.803 454.131,327.637 456.777,324.188 456.777,320.502 M393.462,322.865 Q396.202,328.393 400.833,332.268 405.274,335.953 409,337.04 M409.527,345.545 Q414.441,349.845 416.52,350.695 421.906,352.869 429.844,349.797 M489.426,447.652 Q497.931,449.07 502.184,449.07 M489.899,469.86 Q493.537,469.387 494.577,469.434 496.797,469.529 500.294,470.804" test="JeanRenoFace"/>
      </g>
      <g id="TearAnimf2r1">
        <use xlink:href="#TearGraphic" transform="matrix(.502 0 0 .502 431.9 322.85)"/>
      </g>
      <g id="TearAnimf17r1">
        <use xlink:href="#TearGraphic" transform="matrix(.914 0 0 .914 431.85 376.6)"/>
      </g>
    </g>
    <g id="BlackMaskRect">
      <path fill="#000" stroke="none" d="M823.45,613.6 L823.45,508.3 -23.6,508.3 -23.6,613.6 823.45,613.6Z" test="BlackMaskRect"/>
    </g>
  </g>
</svg>