<?xml version="1.0" encoding="utf-8"?>
<svg id="EdithAnim06" image-rendering="inherit" baseProfile="basic" version="1.1" x="0px" y="0px" width="800" height="600" xmlns="http://www.w3.org/2000/svg" xmlns:xlink="http://www.w3.org/1999/xlink">
  <defs>
    <g id="TearGraphic" overflow="visible">
      <path id="Layer4_0_1_STROKES" stroke="#0FF" stroke-width="1" stroke-linejoin="round" stroke-linecap="round" fill="none" d="M-1.15 1.6Q-1.25 5.75 -2.25 8.6 -3.4 11.65 -6.8 16.5 -10.25 21.45 -8.25 27.95 -6.25 34.6 -.7 34.8 4.75 35 7.25 30.15 9.3 26.2 8.9 20.65 8.7 17.9 4.8 12.25 .55 6.05 -.7 0" test="TearGraphic"/>
    </g>
  </defs>
  <g id="Jean-Renof162r1" overflow="visible">
    <g id="Jean-Reno-body">
      <path id="Layer2_0_1_STROKES" stroke="#FEB7AE" stroke-width="1.89" stroke-linejoin="round" stroke-linecap="round" fill="none" d="M597.095,361.667 Q603.237,367.809 641.557,373.952 667.308,378.11 694.477,380.567 701.753,381.229 744.326,389.923 780.661,397.294 787.087,395.687 796.868,393.23 804.333,390.253 813.83,386.426 822.997,380.567 832.116,374.708 844.307,372.913 854.513,371.353 862.734,373.007 868.64,374.188 874.31,376.078 877.145,377.023 878.799,377.732 877.145,378.204 875.255,379.197 871.57,381.229 870.672,384.016 869.774,386.804 872.846,389.639 874.405,391.009 876.106,391.86 874.216,392.616 872.515,393.986 869.066,396.727 869.963,399.656 870.861,402.633 876.531,403.909 879.366,404.57 882.012,404.617 L883.052,410.665 Q884.516,416.997 886.737,418.32 888.958,419.643 894.344,417.091 897.038,415.863 899.258,414.304 L901.054,418.32 Q903.511,422.242 907.055,421.627 910.598,421.06 913.575,417.989 915.04,416.43 915.796,415.012 L919.245,416.43 Q922.931,417.611 924.112,416.43 925.293,415.249 926.238,411.941 L926.947,408.87 929.215,421.816 Q931.294,435.613 930.254,439.582 930.16,439.913 929.168,444.78 928.459,448.229 927.561,450.497 924.915,457.254 918.158,460.845 M850.355,415.485 Q858.576,413.5 869.822,415.438 886.217,418.225 894.77,429.187 898.077,433.44 904.976,442.181 910.882,449.883 914.189,456.073 923.12,472.799 919.576,489.904 916.079,506.725 906.724,522.175 902.424,529.263 894.061,539.516 891.698,542.398 882.91,549.297 872.468,557.471 859.757,565.693 824.273,588.703 792.001,598.626 L776.267,603.469 Q778.906,606.77 781.039,617.431 783.212,628.299 782.315,634.3 781.559,639.402 784.252,642.805 784.961,643.75 788.457,646.348 791.245,648.427 795.45,655.042 800.884,663.547 799.797,668.556 798.663,673.989 793.749,679.234 789.308,683.912 785.386,685.093 782.456,685.991 776.881,686.085 L771.92,686.038 778.346,687.361 Q785.575,689.676 789.875,694.543 795.45,700.875 797.718,705.316 800.364,710.419 798.852,713.443 797.813,715.57 795.025,721.996 791.576,727.949 785.15,730.926 779.149,733.714 766.061,730.642 759.493,728.894 756.705,728.185 751.98,727.004 750.185,727.146 747.822,727.335 729.253,732.06 710.447,736.879 703.88,737.541 696.981,738.249 688.712,734.753 684.838,732.958 683.279,732.343 680.727,731.257 679.546,731.398 675.766,731.587 673.829,731.824 670.474,732.296 667.97,734.233 665.135,736.407 661.26,735.462 657.575,734.564 656.63,732.107 655.543,729.319 655.637,727.666 655.779,725.35 658.047,723.602 660.126,721.996 663.434,721.429 665.087,721.192 666.316,721.239 665.418,720.2 664.804,718.83 663.575,716.089 664.898,714.624 666.363,713.018 670.19,712.215 673.403,711.553 676.002,711.79 677.136,711.884 674.585,710.089 671.419,707.868 672.458,706.828 673.687,705.6 676.853,705.694 678.317,705.742 681.908,706.356 683.137,706.545 685.121,707.962 686.539,709.002 687.578,708.482 690.886,706.828 695.327,704.749 702.131,701.584 704.825,700.686 709.077,699.268 713.33,698.323 M609.096,362.754 Q613.254,360.769 628.138,351.886 642.124,343.996 647.132,343.854 660.126,343.476 664.142,343.854 676.947,345.035 688.76,350.941 714.086,363.604 717.724,365.494 733.931,374.094 740.971,379.764 747.775,385.245 753.445,388.505 756.28,390.159 757.745,390.679 M586.416,426.778 Q586.416,422.714 587.408,417.706 589.44,407.641 594.449,402.916 604.985,392.994 618.546,395.12 623.744,395.923 633.902,402.16 643.258,407.878 645.715,410.949 647.652,413.359 652.472,414.256 656.157,414.965 661.071,414.729 663.717,414.634 677.656,413.642 691.075,412.886 694.902,413.784 701.234,415.249 715.881,420.21 732.655,425.927 735.773,428.431 738.136,430.321 746.168,437.314 753.681,443.551 756.563,444.732 759.871,446.056 760.391,446.953 760.721,447.568 760.107,449.741 759.871,450.592 760.391,456.876 760.91,463.727 760.107,469.114 759.115,475.776 754.012,493.211 749.192,509.654 746.641,515.891 744.562,521.041 737.994,532.476 731.993,542.918 729.867,545.659 728.402,547.596 725.095,551.517 L722.071,555.108 726.607,555.865 Q731.71,556.857 734.356,558.18 736.482,559.267 741.113,561.44 744.987,563.708 747.113,567.157 749.901,571.693 750.563,573.961 751.413,576.938 750.421,580.387 749.429,583.789 747.066,587.428 745.129,590.404 742.861,592.672 739.79,595.743 737.9,597.256 734.545,599.949 732.23,600.232 729.158,600.658 727.741,600.516 725.567,600.28 721.835,598.815 718.811,597.633 716.684,595.177 713.708,591.775 711.676,590.31 708.841,588.231 707.376,585.301 705.533,581.521 703.643,579.442 700.525,575.993 698.493,574.765 697.028,573.914 694.193,573.3 691.925,572.827 691.547,572.922 690.177,573.536 687.815,574.481 683.562,576.655 681.956,577.269 679.357,578.214 677.892,576.135 675.577,572.922 675.199,571.835 674.443,569.709 675.53,566.685 676.853,563.094 677.372,562.385 678.176,561.393 681.2,560.07 685.736,558.038 691.831,560.07 692.492,560.306 691.831,556.857 690.13,547.596 690.083,547.36 687.437,530.633 689.941,517.309 692.256,505.165 698.399,486.596 703.36,471.618 702.935,470.059 702.415,468.121 688.571,468.688 673.167,469.35 670.805,468.405 668.159,467.365 653.322,463.349 639.478,459.569 638.627,458.955 M565.862,437.22 Q579.092,449.552 586.511,454.797 606.261,468.83 630.359,475.729 653.984,482.532 676.238,489.856 687.342,493.494 693.721,495.81 M722.732,693.126 Q721.74,688.968 703.832,656.649 685.594,623.668 684.224,619.416 681.483,610.816 679.357,600.658 676.758,588.278 677.845,585.585 678.932,582.986 681.908,580.293 683.846,578.497 686.114,577.08 M713.046,688.401 Q711.77,689.346 709.786,690.244 705.911,692.086 702.651,691.945 699.296,691.803 693.107,689.346 688.618,687.55 685.877,686.038 684.885,685.471 684.129,683.345 683.468,681.55 682.334,681.55 681.2,681.55 678.743,683.676 675.955,686.085 674.774,686.511 672.978,687.172 669.387,686.227 666.221,685.377 664.379,684.148 662.914,683.203 662.536,681.03 662.3,679.518 662.489,676.352 662.63,674.037 663.953,672.666 664.001,672.572 666.977,670.209 668.442,669.028 670.001,668.556 670.757,668.32 671.23,668.32 M679.499,668.792 Q679.31,667.989 679.546,666.949 679.924,664.87 681.861,663.831 683.798,662.791 687.106,663.122 688.949,663.311 692.02,663.831 693.39,663.973 695.942,665.107 698.351,666.193 699.107,666.193 M713.33,705.647 Q706.195,709.38 698.399,713.16 682.901,720.814 679.782,721.239 676.664,721.665 673.309,721.523 L670.568,721.239 M776.267,603.469 L776.219,603.493 Q757.745,609.163 757.319,609.163 757.225,609.163 761.572,625.369 765.824,643.419 765.068,652.018 L763.273,671.769 Q761.903,692.181 764.123,695.725" test="Jean Reno body"/>
    </g>
    <g id="Jean-Renof93r1">
      <g id="JeanRenoFace">
        <path fill="#000" stroke="none" d="M558.185,174.109 Q553.602,177.463 551.381,181.905 548.263,188.189 542.687,194.71 535.411,203.309 530.119,203.64 525.158,203.923 511.313,198.49 496.619,192.3 492.791,190.882 488.35,189.229 482.302,182.046 474.458,172.786 472.899,171.462 470.962,169.809 469.97,167.257 469.166,164.422 468.836,163.336 468.269,161.398 467.229,160.973 465.953,160.406 462.977,161.54 455.322,164.139 452.015,165.604 446.534,168.013 441.714,172.88 433.445,180.96 429.24,185.07 421.727,192.489 418.562,196.552 400.134,220.65 394.464,227.737 390.448,232.746 388.322,238.274 386.573,242.81 385.014,250.89 383.124,260.812 375.092,288.217 L374.761,318.505 Q374.432,352.706 374.666,373.362 378.257,376.622 380.762,381.725 382.321,384.796 385.487,392.215 386.904,395.239 387.755,402.042 388.369,407.476 392.102,412.532 395.362,416.974 399.473,420.234 403.158,423.116 405.804,427.18 406.796,428.691 411.616,439.37 414.451,445.701 418.089,446.552 419.129,446.788 427.303,450.568 432.878,453.167 436.517,451.75 438.407,450.994 440.816,451.088 442.187,451.135 444.974,451.324 450.361,451.466 455.889,447.025 460.709,443.15 470.3,439.748 478.616,436.819 480.459,434.267 481.735,432.519 483.341,432.472 484.428,432.472 486.554,433.369 491.752,435.637 495.154,434.267 498.698,432.85 507.155,429.353 514.763,426.754 520.196,427.652 523.976,428.266 533.663,432.282 542.546,435.921 547.129,436.157 551.051,436.393 557.902,441.969 563.903,446.883 567.919,445.607 570.376,444.851 572.927,445.56 573.967,445.843 577.133,447.403 582.283,449.812 586.346,447.025 588.756,445.371 592.111,444.52 594.048,444.048 597.734,443.386 604.207,441.874 606.664,436.157 609.83,428.786 612.523,424.25 615.122,419.809 619.421,414.422 621.028,412.39 628.871,405.633 634.4,400.861 635.486,396.467 636.573,392.167 640.164,387.631 644.7,381.82 645.881,379.457 647.535,376.15 649.425,371.661 651.079,368.684 654.386,368.07 657.883,367.456 658.403,369.345 658.639,370.149 658.166,375.205 657.883,378.465 656.324,380.922 L654.859,382.765 656.324,380.922 Q657.883,378.465 658.166,375.205 658.639,370.149 658.403,369.345 657.883,367.456 654.386,368.07 651.079,368.684 649.425,371.661 647.535,376.15 645.881,379.457 644.7,381.82 640.164,387.631 636.573,392.167 635.486,396.467 634.4,400.861 628.871,405.633 621.028,412.39 619.421,414.422 615.122,419.809 612.523,424.25 609.83,428.786 606.664,436.157 604.207,441.874 597.734,443.386 594.048,444.048 592.111,444.52 588.756,445.371 586.346,447.025 582.283,449.812 577.133,447.403 573.967,445.843 572.927,445.56 570.376,444.851 567.919,445.607 563.903,446.883 557.902,441.969 551.051,436.393 547.129,436.157 542.546,435.921 533.663,432.282 523.976,428.266 520.196,427.652 514.763,426.754 507.155,429.353 498.698,432.85 495.154,434.267 491.752,435.637 486.554,433.369 484.428,432.472 483.341,432.472 481.735,432.519 480.459,434.267 478.616,436.819 470.3,439.748 460.709,443.15 455.889,447.025 450.361,451.466 444.974,451.324 442.187,451.135 440.816,451.088 438.407,450.994 436.517,451.75 432.878,453.167 427.303,450.568 419.129,446.788 418.089,446.552 414.451,445.701 411.616,439.37 406.796,428.691 405.804,427.18 403.158,423.116 399.473,420.234 395.362,416.974 392.102,412.532 388.369,407.476 387.755,402.042 386.904,395.239 385.487,392.215 382.321,384.796 380.762,381.725 378.257,376.622 374.666,373.362 374.665,373.48 374.666,373.598 374.903,390.75 375.564,396.94 376.037,401.665 377.832,409.555 379.769,417.824 382.652,427.416 382.888,428.125 389.219,441.213 395.267,453.781 397.299,461.672 401.552,478.399 404.434,482.887 405.993,485.344 409.159,488.321 411.191,490.258 417.144,495.692 418.751,497.204 424.515,504.575 430.185,511.852 431.886,513.363 436.044,517.096 443.888,521.254 450.644,524.798 454.472,529.24 461.417,537.272 467.182,540.391 473.419,543.698 482.822,543.887 483.011,543.887 497.705,546.628 509.707,548.896 515.944,547.195 520.763,545.872 531.206,545.73 541.223,545.588 546.845,543.793 555.492,541.052 561.115,537.178 567.116,532.972 574.061,524.515 577.605,521.349 579.448,519.601 582.708,516.482 583.653,512.088 584.504,508.119 592.914,500.417 601.514,492.573 602.742,488.179 605.294,479.06 609.31,472.634 613.232,466.444 619.28,461.578 623.627,458.128 627.454,447.875 631.328,437.575 634.163,435.165 639.077,431.054 641.676,423.447 643.85,415.32 644.936,412.532 650.276,398.641 654.292,389.332 L657.221,382.765 657.836,384.607 Q659.489,386.592 664.781,387.49 670.31,388.435 674.231,384.088 676.83,381.158 678.011,377.095 678.295,376.055 676.358,365.896 674.184,354.556 674.704,345.862 675.318,335.987 679.949,325.497 682.264,320.158 687.981,310.425 691.903,303.763 692.706,298.518 693.651,292.234 690.344,287.272 685.855,280.516 683.776,279.429 679.949,277.397 673.145,281.744 672.247,285.382 670.168,291.572 666.199,303.479 666.199,307.59 666.199,312.598 664.545,320.3 663.742,324.127 662.891,326.962 653.914,293.887 650.134,281.13 646.637,269.365 636.904,245.125 626.084,218.193 622.256,214.035 617.957,209.357 604.727,198.348 591.355,187.197 585.401,183.322 582.85,181.669 575.715,174.959 570.99,170.517 567.446,170.517 563.005,170.517 558.185,174.109 M622.729,299.982 Q627.879,307.543 627.926,307.59 627.879,307.543 622.729,299.982 618.665,293.982 614.696,291.997 610.491,289.918 598.348,291.43 584.693,293.651 580.204,294.36 573.683,295.399 560.312,300.691 547.365,305.794 541.459,309.48 547.365,305.794 560.312,300.691 573.683,295.399 580.204,294.36 584.693,293.651 598.348,291.43 610.491,289.918 614.696,291.997 618.665,293.982 622.729,299.982 M607.42,317.323 L606.333,322.048 Q604.774,327.34 602.411,330.27 599.435,334.003 594.899,335.42 589.89,336.979 582.094,335.94 569.478,334.286 568.391,316.284 563.217,318.206 557.996,320.631 L553.744,322.71 557.996,320.631 Q563.217,318.206 568.391,316.284 568.462,316.262 568.533,316.237 584.74,310.33 594.851,311.37 599.246,311.834 607.42,317.323 608.385,317.973 609.404,318.694 619.185,325.639 621.784,326.017 619.185,325.639 609.404,318.694 608.385,317.973 607.42,317.323 M611.436,340.145 Q616.114,338.16 617.059,334.995 616.114,338.16 611.436,340.145 607.892,341.61 603.356,342.082 607.892,341.61 611.436,340.145 M579.07,361.502 Q585.496,362.164 590.126,360.037 585.496,362.164 579.07,361.502 572.597,360.84 568.391,357.675 572.597,360.84 579.07,361.502 M556.106,331.215 Q559.508,338.917 566.501,342.082 559.508,338.917 556.106,331.215 M544.814,395.002 L544.766,391.742 544.814,395.002 Q544.719,398.641 543.821,400.72 542.924,402.799 537.632,405.019 L532.481,406.862 Q529.363,407.382 527.756,402.751 527.756,402.94 527.756,403.082 527.756,406.437 525.536,410.075 523.079,413.997 518.306,417.73 513.062,421.84 506.494,421.51 499.312,421.131 491.846,415.367 485.515,410.5 482.916,400.483 480.932,392.97 481.404,384.655 481.688,379.457 486.271,364.668 491.138,349.642 491.846,346.807 492.791,343.264 492.886,331.357 492.791,318.93 492.791,316.567 492.791,311.653 490.665,306.409 487.83,299.557 482.822,297.667 479.75,296.533 473.183,295.777 467.087,295.069 461.087,292.47 452.771,288.832 440.249,286.705 427.445,284.485 421.869,285.855 416.435,287.225 409.82,291.572 403.678,295.683 399.189,300.502 403.678,295.683 409.82,291.572 416.435,287.225 421.869,285.855 427.445,284.485 440.249,286.705 452.771,288.832 461.087,292.47 467.087,295.069 473.183,295.777 479.75,296.533 482.822,297.667 487.83,299.557 490.665,306.409 492.791,311.653 492.791,316.567 492.791,318.93 492.886,331.357 492.791,343.264 491.846,346.807 491.138,349.642 486.271,364.668 481.688,379.457 481.404,384.655 480.932,392.97 482.916,400.483 485.515,410.5 491.846,415.367 499.312,421.131 506.494,421.51 513.062,421.84 518.306,417.73 523.079,413.997 525.536,410.075 527.756,406.437 527.756,403.082 527.756,402.94 527.756,402.751 527.378,401.712 527.095,400.389 L526.339,393.16 527.048,396.514 Q527.709,400.2 527.756,402.751 529.363,407.382 532.481,406.862 L537.632,405.019 Q542.924,402.799 543.821,400.72 544.719,398.641 544.814,395.002 M549.491,456.002 Q552.468,456.758 558.044,461.105 564.092,465.783 566.974,466.87 570.423,468.193 570.423,475.564 570.423,480.383 570.423,480.761 570.612,483.265 571.699,483.88 575.006,485.77 575.951,488.085 577.227,491.109 573.116,493.33 572.408,493.708 560.17,499.283 551.287,503.347 549.019,505.615 547.885,506.749 546.845,509.111 L545.144,513.08 Q542.782,517.521 537.679,516.955 531.536,516.293 527,516.529 522.89,516.766 518.779,517.9 508.904,520.593 505.643,521.16 495.815,522.814 492.791,519.79 482.538,509.678 476.207,505.615 473.75,504.055 470.3,498.433 467.087,493.141 464.394,491.912 461.276,490.495 460.189,488.652 459.197,486.242 457.779,484.352 456.031,481.99 456.031,478.682 L456.362,475.847 Q458.535,469.988 462.457,464.743 464.205,462.428 469.592,456.475 472.19,453.592 477.293,452.411 483.294,450.946 485.657,449.387 488.87,447.261 495.296,447.025 502.714,446.788 504.604,446.08 507.108,445.182 515.755,446.316 524.827,447.544 528.701,446.552 533.096,445.465 539.805,450.049 547.979,455.624 549.491,456.002 M474.317,317.985 Q465.405,313.528 462.173,312.031 L462.599,313.118 Q462.882,315.102 462.032,319.402 460.898,325.309 456.976,328.285 452.156,332.018 442.659,331.687 433.634,331.357 429.335,325.497 426.689,321.765 425.507,314.583 414.268,318.938 411.474,322.71 414.268,318.938 425.507,314.583 425.67,314.553 425.838,314.488 432.311,312.078 439.966,310.047 446.581,308.299 449.274,308.062 452.629,307.779 461.276,311.606 461.654,311.774 462.173,312.031 465.405,313.528 474.317,317.985 M469.781,335.987 Q472.427,332.538 472.427,328.852 472.427,332.538 469.781,335.987 467.324,339.153 463.922,340.665 467.324,339.153 469.781,335.987 M416.483,340.617 Q420.924,344.303 425.649,345.39 420.924,344.303 416.483,340.617 411.852,336.743 409.112,331.215 411.852,336.743 416.483,340.617 M425.177,353.895 Q430.091,358.195 432.17,359.045 437.556,361.219 445.494,358.147 437.556,361.219 432.17,359.045 430.091,358.195 425.177,353.895 M612.287,139.758 Q607.467,138.34 605.341,136.97 602.411,135.175 601.939,132.245 601.041,126.953 609.215,121.992 613.279,119.488 617.531,118.07 613.421,117.598 607.987,117.834 597.119,118.306 590.599,121.85 587.102,123.787 584.126,123.315 582.141,123.031 579.212,121.283 575.762,119.204 574.203,118.684 571.037,117.598 567.446,118.543 561.446,120.102 550.011,114.715 543.302,111.55 542.404,111.172 538.766,109.754 537.206,110.51 534.041,112.117 514.148,111.219 496.571,110.416 487.547,109.093 481.593,108.195 472.663,100.777 L464.867,93.5 465.528,96.76 Q466.237,100.588 466.331,103.612 466.709,113.156 461.087,110.51 455.464,107.864 443.557,107.486 L432.737,107.675 440.486,114.763 Q447.195,121.614 442.187,120.433 437.178,119.251 426.641,123.504 L417.144,127.993 419.318,128.134 Q421.822,128.418 423.476,129.127 428.768,131.347 423.759,136.97 413.128,148.877 407.741,155.776 396.212,170.565 386.432,188.047 378.494,202.222 375.848,235.534 374.194,256.654 374.855,280.988 374.95,285.524 375.092,288.217 383.124,260.812 385.014,250.89 386.573,242.81 388.322,238.274 390.448,232.746 394.464,227.737 400.134,220.65 418.562,196.552 421.727,192.489 429.24,185.07 433.445,180.96 441.714,172.88 446.534,168.013 452.015,165.604 455.322,164.139 462.977,161.54 465.953,160.406 467.229,160.973 468.269,161.398 468.836,163.336 469.166,164.422 469.97,167.257 470.962,169.809 472.899,171.462 474.458,172.786 482.302,182.046 488.35,189.229 492.791,190.882 496.619,192.3 511.313,198.49 525.158,203.923 530.119,203.64 535.411,203.309 542.687,194.71 548.263,188.189 551.381,181.905 553.602,177.463 558.185,174.109 563.005,170.517 567.446,170.517 570.99,170.517 575.715,174.959 582.85,181.669 585.401,183.322 591.355,187.197 604.727,198.348 617.957,209.357 622.256,214.035 626.084,218.193 636.904,245.125 646.637,269.365 650.134,281.13 653.914,293.887 662.891,326.962 663.742,324.127 664.545,320.3 666.199,312.598 666.199,307.59 666.199,303.479 670.168,291.572 672.247,285.382 673.145,281.744 673.853,278.626 673.759,277.35 673.523,274.751 672.247,266.86 670.735,257.883 669.979,251.362 667.286,228.163 666.908,224.383 664.97,205.577 665.254,199.86 665.585,193.434 651.362,173.022 637.66,153.319 629.344,146.892 624.95,143.491 612.287,139.758Z" test="JeanRenoFace" vector-effect="non-scaling-stroke" stroke-width="1"/>
        <path id="Layer3_0_1_STROKES" stroke="#FFF" stroke-width="1.89" stroke-linejoin="round" stroke-linecap="round" fill="none" d="M375.092,288.217 Q374.95,285.524 374.855,280.988 374.194,256.654 375.848,235.534 378.494,202.222 386.432,188.047 396.212,170.565 407.741,155.776 413.128,148.877 423.759,136.97 428.768,131.347 423.476,129.127 421.822,128.418 419.318,128.134 L417.144,127.993 426.641,123.504 Q437.178,119.251 442.187,120.433 447.195,121.614 440.486,114.763 L432.737,107.675 443.557,107.486 Q455.464,107.864 461.087,110.51 466.709,113.156 466.331,103.612 466.237,100.588 465.528,96.76 L464.867,93.5 472.663,100.777 Q481.593,108.195 487.547,109.093 496.571,110.416 514.148,111.219 534.041,112.117 537.206,110.51 538.766,109.754 542.404,111.172 543.302,111.55 550.011,114.715 561.446,120.102 567.446,118.543 571.037,117.598 574.203,118.684 575.762,119.204 579.212,121.283 582.141,123.031 584.126,123.315 587.102,123.787 590.599,121.85 597.119,118.306 607.987,117.834 613.421,117.598 617.531,118.07 613.279,119.488 609.215,121.992 601.041,126.953 601.939,132.245 602.411,135.175 605.341,136.97 607.467,138.34 612.287,139.758 624.95,143.491 629.344,146.892 637.66,153.319 651.362,173.022 665.585,193.434 665.254,199.86 664.97,205.577 666.908,224.383 667.286,228.163 669.979,251.362 670.735,257.883 672.247,266.86 673.523,274.751 673.759,277.35 673.853,278.626 673.145,281.744 679.949,277.397 683.776,279.429 685.855,280.516 690.344,287.272 693.651,292.234 692.706,298.518 691.903,303.763 687.981,310.425 682.264,320.158 679.949,325.497 675.318,335.987 674.704,345.862 674.184,354.556 676.358,365.896 678.295,376.055 678.011,377.095 676.83,381.158 674.231,384.088 670.31,388.435 664.781,387.49 659.489,386.592 657.836,384.607 L657.221,382.765 654.292,389.332 Q650.276,398.641 644.936,412.532 643.85,415.32 641.676,423.447 639.077,431.054 634.163,435.165 631.328,437.575 627.454,447.875 623.627,458.128 619.28,461.578 613.232,466.444 609.31,472.634 605.294,479.06 602.742,488.179 601.514,492.573 592.914,500.417 584.504,508.119 583.653,512.088 582.708,516.482 579.448,519.601 577.605,521.349 574.061,524.515 567.116,532.972 561.115,537.178 555.492,541.052 546.845,543.793 541.223,545.588 531.206,545.73 520.763,545.872 515.944,547.195 509.707,548.896 497.705,546.628 483.011,543.887 482.822,543.887 473.419,543.698 467.182,540.391 461.417,537.272 454.472,529.24 450.644,524.798 443.888,521.254 436.044,517.096 431.886,513.363 430.185,511.852 424.515,504.575 418.751,497.204 417.144,495.692 411.191,490.258 409.159,488.321 405.993,485.344 404.434,482.887 401.552,478.399 397.299,461.672 395.267,453.781 389.219,441.213 382.888,428.125 382.652,427.416 379.769,417.824 377.832,409.555 376.037,401.665 375.564,396.94 374.903,390.75 374.666,373.598 374.665,373.48 374.666,373.362 374.432,352.706 374.761,318.505 L375.092,288.217 Q383.124,260.812 385.014,250.89 386.573,242.81 388.322,238.274 390.448,232.746 394.464,227.737 400.134,220.65 418.562,196.552 421.727,192.489 429.24,185.07 433.445,180.96 441.714,172.88 446.534,168.013 452.015,165.604 455.322,164.139 462.977,161.54 465.953,160.406 467.229,160.973 468.269,161.398 468.836,163.336 469.166,164.422 469.97,167.257 470.962,169.809 472.899,171.462 474.458,172.786 482.302,182.046 488.35,189.229 492.791,190.882 496.619,192.3 511.313,198.49 525.158,203.923 530.119,203.64 535.411,203.309 542.687,194.71 548.263,188.189 551.381,181.905 553.602,177.463 558.185,174.109 563.005,170.517 567.446,170.517 570.99,170.517 575.715,174.959 582.85,181.669 585.401,183.322 591.355,187.197 604.727,198.348 617.957,209.357 622.256,214.035 626.084,218.193 636.904,245.125 646.637,269.365 650.134,281.13 653.914,293.887 662.891,326.962 663.742,324.127 664.545,320.3 666.199,312.598 666.199,307.59 666.199,303.479 670.168,291.572 672.247,285.382 673.145,281.744 M541.459,309.48 Q547.365,305.794 560.312,300.691 573.683,295.399 580.204,294.36 584.693,293.651 598.348,291.43 610.491,289.918 614.696,291.997 618.665,293.982 622.729,299.982 627.879,307.543 627.926,307.59 M568.391,316.284 Q569.478,334.286 582.094,335.94 589.89,336.979 594.899,335.42 599.435,334.003 602.411,330.27 604.774,327.34 606.333,322.048 L607.42,317.323 Q599.246,311.834 594.851,311.37 584.74,310.33 568.533,316.237 568.462,316.262 568.391,316.284 563.217,318.206 557.996,320.631 L553.744,322.71 M607.42,317.323 Q608.385,317.973 609.404,318.694 619.185,325.639 621.784,326.017 M603.356,342.082 Q607.892,341.61 611.436,340.145 616.114,338.16 617.059,334.995 M374.666,373.362 Q378.257,376.622 380.762,381.725 382.321,384.796 385.487,392.215 386.904,395.239 387.755,402.042 388.369,407.476 392.102,412.532 395.362,416.974 399.473,420.234 403.158,423.116 405.804,427.18 406.796,428.691 411.616,439.37 414.451,445.701 418.089,446.552 419.129,446.788 427.303,450.568 432.878,453.167 436.517,451.75 438.407,450.994 440.816,451.088 442.187,451.135 444.974,451.324 450.361,451.466 455.889,447.025 460.709,443.15 470.3,439.748 478.616,436.819 480.459,434.267 481.735,432.519 483.341,432.472 484.428,432.472 486.554,433.369 491.752,435.637 495.154,434.267 498.698,432.85 507.155,429.353 514.763,426.754 520.196,427.652 523.976,428.266 533.663,432.282 542.546,435.921 547.129,436.157 551.051,436.393 557.902,441.969 563.903,446.883 567.919,445.607 570.376,444.851 572.927,445.56 573.967,445.843 577.133,447.403 582.283,449.812 586.346,447.025 588.756,445.371 592.111,444.52 594.048,444.048 597.734,443.386 604.207,441.874 606.664,436.157 609.83,428.786 612.523,424.25 615.122,419.809 619.421,414.422 621.028,412.39 628.871,405.633 634.4,400.861 635.486,396.467 636.573,392.167 640.164,387.631 644.7,381.82 645.881,379.457 647.535,376.15 649.425,371.661 651.079,368.684 654.386,368.07 657.883,367.456 658.403,369.345 658.639,370.149 658.166,375.205 657.883,378.465 656.324,380.922 L654.859,382.765 M593.434,317.985 L597.214,318.93 M568.391,357.675 Q572.597,360.84 579.07,361.502 585.496,362.164 590.126,360.037 M556.106,331.215 Q559.508,338.917 566.501,342.082 M527.756,402.751 Q529.363,407.382 532.481,406.862 L537.632,405.019 Q542.924,402.799 543.821,400.72 544.719,398.641 544.814,395.002 L544.766,391.742 M527.756,402.751 Q527.709,400.2 527.048,396.514 L526.339,393.16 527.095,400.389 Q527.378,401.712 527.756,402.751 527.756,402.94 527.756,403.082 527.756,406.437 525.536,410.075 523.079,413.997 518.306,417.73 513.062,421.84 506.494,421.51 499.312,421.131 491.846,415.367 485.515,410.5 482.916,400.483 480.932,392.97 481.404,384.655 481.688,379.457 486.271,364.668 491.138,349.642 491.846,346.807 492.791,343.264 492.886,331.357 492.791,318.93 492.791,316.567 492.791,311.653 490.665,306.409 487.83,299.557 482.822,297.667 479.75,296.533 473.183,295.777 467.087,295.069 461.087,292.47 452.771,288.832 440.249,286.705 427.445,284.485 421.869,285.855 416.435,287.225 409.82,291.572 403.678,295.683 399.189,300.502 M471.009,472.067 Q475.167,469.421 480.743,467.815 486.791,466.066 491.846,466.397 494.587,466.586 500.777,468.807 505.974,470.697 510.746,470.177 514.526,469.752 521.614,467.248 527.898,464.98 532.481,464.98 538.34,464.98 543.491,467.342 547.649,469.279 550.909,472.54 M456.362,475.847 Q458.535,469.988 462.457,464.743 464.205,462.428 469.592,456.475 472.19,453.592 477.293,452.411 483.294,450.946 485.657,449.387 488.87,447.261 495.296,447.025 502.714,446.788 504.604,446.08 507.108,445.182 515.755,446.316 524.827,447.544 528.701,446.552 533.096,445.465 539.805,450.049 547.979,455.624 549.491,456.002 552.468,456.758 558.044,461.105 564.092,465.783 566.974,466.87 570.423,468.193 570.423,475.564 570.423,480.383 570.423,480.761 570.612,483.265 571.699,483.88 575.006,485.77 575.951,488.085 577.227,491.109 573.116,493.33 572.408,493.708 560.17,499.283 551.287,503.347 549.019,505.615 547.885,506.749 546.845,509.111 L545.144,513.08 Q542.782,517.521 537.679,516.955 531.536,516.293 527,516.529 522.89,516.766 518.779,517.9 508.904,520.593 505.643,521.16 495.815,522.814 492.791,519.79 482.538,509.678 476.207,505.615 473.75,504.055 470.3,498.433 467.087,493.141 464.394,491.912 461.276,490.495 460.189,488.652 459.197,486.242 457.779,484.352 456.031,481.99 456.031,478.682 L456.362,475.847Z M374.147,280.657 Q368.949,273.712 360.822,273.381 352.79,273.097 350.994,279.24 349.766,283.445 356.003,297.006 362.807,311.701 362.807,316.567 362.807,321.765 363.043,340.003 363.043,356.777 361.862,362.4 360.586,368.542 362.854,370.669 364.649,372.322 368.477,371.425 M474.317,317.985 Q465.405,313.528 462.197,312.031 L462.599,313.118 Q462.882,315.102 462.032,319.402 460.898,325.309 456.976,328.285 452.156,332.018 442.659,331.687 433.634,331.357 429.335,325.497 426.689,321.765 425.507,314.606 414.268,318.938 411.474,322.71 M462.197,312.031 Q461.654,311.774 461.276,311.606 452.629,307.779 449.274,308.062 446.581,308.299 439.966,310.047 432.311,312.078 425.838,314.488 425.67,314.553 425.507,314.606 M450.219,314.205 L452.582,314.677 M463.922,340.665 Q467.324,339.153 469.781,335.987 472.427,332.538 472.427,328.852 M409.112,331.215 Q411.852,336.743 416.483,340.617 420.924,344.303 425.649,345.39 M425.177,353.895 Q430.091,358.195 432.17,359.045 437.556,361.219 445.494,358.147 M505.076,456.002 Q513.581,457.42 517.834,457.42 M505.549,478.21 Q509.187,477.737 510.227,477.784 512.447,477.879 515.944,479.155" test="JeanRenoFace"/>
      </g>
      <g id="TearAnimf3r1">
        <use xlink:href="#TearGraphic" transform="matrix(.708 0 0 .708 447.8 331.2)"/>
      </g>
      <g id="TearAnimf18r1">
        <use xlink:href="#TearGraphic" transform="matrix(.914 0 0 .914 447.5 393.5)"/>
      </g>
    </g>
    <g id="BlackMaskRect">
      <path fill="#000" stroke="none" d="M823.45,613.6 L823.45,508.3 -23.6,508.3 -23.6,613.6 823.45,613.6Z" test="BlackMaskRect"/>
    </g>
  </g>
</svg>