<?xml version="1.0" encoding="utf-8"?>
<svg id="EdithAnim06" image-rendering="inherit" baseProfile="basic" version="1.1" x="0px" y="0px" width="800" height="600" xmlns="http://www.w3.org/2000/svg" xmlns:xlink="http://www.w3.org/1999/xlink">
  <defs>
    <g id="TearGraphic" overflow="visible">
      <path id="Layer4_0_1_STROKES" stroke="#0FF" stroke-width="1" stroke-linejoin="round" stroke-linecap="round" fill="none" d="M-1.15 1.6Q-1.25 5.75 -2.25 8.6 -3.4 11.65 -6.8 16.5 -10.25 21.45 -8.25 27.95 -6.25 34.6 -.7 34.8 4.75 35 7.25 30.15 9.3 26.2 8.9 20.65 8.7 17.9 4.8 12.25 .55 6.05 -.7 0" test="TearGraphic"/>
    </g>
  </defs>
  <g id="Jean-Renof163r1" overflow="visible">
    <g id="Jean-Reno-body">
      <path id="Layer2_0_1_STROKES" stroke="#FEB7AE" stroke-width="1.89" stroke-linejoin="round" stroke-linecap="round" fill="none" d="M610.145,368.167 Q616.287,374.309 654.607,380.452 680.358,384.61 707.527,387.067 714.803,387.729 757.376,396.423 793.711,403.794 800.137,402.187 809.918,399.73 817.383,396.753 826.88,392.926 836.047,387.067 845.166,381.208 857.357,379.413 867.563,377.853 875.784,379.507 881.69,380.688 887.36,382.578 890.195,383.523 891.849,384.232 890.195,384.704 888.305,385.697 884.62,387.729 883.722,390.516 882.824,393.304 885.896,396.139 887.455,397.509 889.156,398.36 887.266,399.116 885.565,400.486 882.116,403.227 883.013,406.156 883.911,409.133 889.581,410.409 892.416,411.07 895.062,411.117 L896.102,417.165 Q897.566,423.497 899.787,424.82 902.008,426.143 907.394,423.591 910.088,422.363 912.308,420.804 L914.104,424.82 Q916.561,428.742 920.104,428.127 923.648,427.56 926.625,424.489 928.09,422.93 928.846,421.512 L932.295,422.93 Q935.981,424.111 937.162,422.93 938.343,421.749 939.288,418.441 L939.997,415.37 942.265,428.316 Q944.344,442.113 943.304,446.082 943.21,446.413 942.218,451.28 941.509,454.729 940.611,456.997 937.965,463.754 931.208,467.345 M863.405,421.985 Q871.626,420 882.872,421.938 899.267,424.725 907.82,435.687 911.127,439.94 918.026,448.681 923.932,456.383 927.239,462.573 936.17,479.299 932.626,496.404 929.129,513.225 919.774,528.675 915.474,535.763 907.111,546.016 904.748,548.898 895.96,555.797 885.518,563.971 872.807,572.193 837.323,595.203 805.051,605.126 L789.317,609.969 Q791.956,613.27 794.089,623.931 796.262,634.799 795.365,640.8 794.609,645.902 797.302,649.305 798.011,650.25 801.507,652.848 804.295,654.927 808.5,661.542 813.934,670.047 812.847,675.056 811.713,680.489 806.799,685.734 802.358,690.412 798.436,691.593 795.506,692.491 789.931,692.585 L784.97,692.538 791.396,693.861 Q798.625,696.176 802.925,701.043 808.5,707.375 810.768,711.816 813.414,716.919 811.902,719.943 810.863,722.07 808.075,728.496 804.626,734.449 798.2,737.426 792.199,740.214 779.111,737.142 772.543,735.394 769.755,734.685 765.03,733.504 763.235,733.646 760.872,733.835 742.303,738.56 723.497,743.379 716.93,744.041 710.031,744.749 701.762,741.253 697.888,739.458 696.329,738.843 693.777,737.757 692.596,737.898 688.816,738.087 686.879,738.324 683.524,738.796 681.02,740.733 678.185,742.907 674.31,741.962 670.625,741.064 669.68,738.607 668.593,735.819 668.687,734.166 668.829,731.85 671.097,730.102 673.176,728.496 676.484,727.929 678.137,727.692 679.366,727.739 678.468,726.7 677.854,725.33 676.625,722.589 677.948,721.124 679.413,719.518 683.24,718.715 686.453,718.053 689.052,718.29 690.186,718.384 687.635,716.589 684.469,714.368 685.508,713.328 686.737,712.1 689.903,712.194 691.367,712.242 694.958,712.856 696.187,713.045 698.171,714.462 699.589,715.502 700.628,714.982 703.936,713.328 708.377,711.249 715.181,708.084 717.875,707.186 722.127,705.768 726.38,704.823 M622.146,369.254 Q626.304,367.269 641.188,358.386 655.174,350.496 660.182,350.354 673.176,349.976 677.192,350.354 689.997,351.535 701.81,357.441 727.136,370.104 730.774,371.994 746.981,380.594 754.021,386.264 760.825,391.745 766.495,395.005 769.33,396.659 770.795,397.179 M599.466,433.278 Q599.466,429.214 600.458,424.206 602.49,414.141 607.499,409.416 618.035,399.494 631.596,401.62 636.794,402.423 646.952,408.66 656.308,414.378 658.765,417.449 660.702,419.859 665.522,420.756 669.207,421.465 674.121,421.229 676.767,421.134 690.706,420.142 704.125,419.386 707.952,420.284 714.284,421.749 728.931,426.71 745.705,432.427 748.823,434.931 751.186,436.821 759.218,443.814 766.731,450.051 769.613,451.232 772.921,452.556 773.441,453.453 773.771,454.068 773.157,456.241 772.921,457.092 773.441,463.376 773.96,470.227 773.157,475.614 772.165,482.276 767.062,499.711 762.242,516.154 759.691,522.391 757.612,527.541 751.044,538.976 745.043,549.418 742.917,552.159 741.452,554.096 738.145,558.017 L735.121,561.608 739.657,562.365 Q744.76,563.357 747.406,564.68 749.532,565.767 754.163,567.94 758.037,570.208 760.163,573.657 762.951,578.193 763.613,580.461 764.463,583.438 763.471,586.887 762.479,590.289 760.116,593.928 758.179,596.904 755.911,599.172 752.84,602.243 750.95,603.756 747.595,606.449 745.28,606.732 742.208,607.158 740.791,607.016 738.617,606.78 734.885,605.315 731.861,604.133 729.734,601.677 726.758,598.275 724.726,596.81 721.891,594.731 720.426,591.801 718.583,588.021 716.693,585.942 713.575,582.493 711.543,581.265 710.078,580.414 707.243,579.8 704.975,579.327 704.597,579.422 703.227,580.036 700.865,580.981 696.612,583.155 695.006,583.769 692.407,584.714 690.942,582.635 688.627,579.422 688.249,578.335 687.493,576.209 688.58,573.185 689.903,569.594 690.422,568.885 691.226,567.893 694.25,566.57 698.786,564.538 704.881,566.57 705.542,566.806 704.881,563.357 703.18,554.096 703.133,553.86 700.487,537.133 702.991,523.809 705.306,511.665 711.449,493.096 716.41,478.118 715.985,476.559 715.465,474.621 701.621,475.188 686.217,475.85 683.855,474.905 681.209,473.865 666.372,469.849 652.528,466.069 651.677,465.455 M578.912,443.72 Q592.142,456.052 599.561,461.297 619.311,475.33 643.409,482.229 667.034,489.032 689.288,496.356 700.392,499.994 706.771,502.31 M735.782,699.626 Q734.79,695.468 716.882,663.149 698.644,630.168 697.274,625.916 694.533,617.316 692.407,607.158 689.808,594.778 690.895,592.085 691.982,589.486 694.958,586.793 696.896,584.997 699.164,583.58 M726.096,694.901 Q724.82,695.846 722.836,696.744 718.961,698.586 715.701,698.445 712.346,698.303 706.157,695.846 701.668,694.05 698.927,692.538 697.935,691.971 697.179,689.845 696.518,688.05 695.384,688.05 694.25,688.05 691.793,690.176 689.005,692.585 687.824,693.011 686.028,693.672 682.437,692.727 679.271,691.877 677.429,690.648 675.964,689.703 675.586,687.53 675.35,686.018 675.539,682.852 675.68,680.537 677.003,679.166 677.051,679.072 680.027,676.709 681.492,675.528 683.051,675.056 683.807,674.82 684.28,674.82 M692.549,675.292 Q692.36,674.489 692.596,673.449 692.974,671.37 694.911,670.331 696.848,669.291 700.156,669.622 701,669.811 705.07,670.331 706.44,670.473 708.992,671.607 711.401,672.693 712.157,672.693 M726.38,712.147 Q719.245,715.88 711.449,719.66 695.951,727.314 692.832,727.739 689.714,728.165 686.359,728.023 L683.618,727.739 M789.317,609.969 L789.269,609.993 Q770.795,615.663 770.369,615.663 770.275,615.663 774.622,631.869 778.874,649.919 778.118,658.518 L776.323,678.269 Q774.953,698.681 777.173,702.225" test="Jean Reno body"/>
    </g>
    <g id="Jean-Renof94r1">
      <g id="JeanRenoFace">
        <path fill="#000" stroke="none" d="M575.035,183.109 Q570.452,186.463 568.231,190.905 565.113,197.189 559.537,203.71 552.261,212.309 546.969,212.64 542.008,212.923 528.163,207.49 513.469,201.3 509.641,199.882 505.2,198.229 499.152,191.046 491.308,181.786 489.749,180.462 487.812,178.809 486.82,176.257 486.016,173.422 485.686,172.336 485.119,170.398 484.079,169.973 482.803,169.406 479.827,170.54 472.172,173.139 468.865,174.604 463.384,177.013 458.564,181.88 450.295,189.96 446.09,194.07 438.577,201.489 435.412,205.552 416.984,229.65 411.314,236.737 407.298,241.746 405.172,247.274 403.423,251.81 401.864,259.89 399.974,269.812 391.942,297.217 L391.611,327.505 Q391.282,361.706 391.516,382.362 395.107,385.622 397.612,390.725 399.171,393.796 402.337,401.215 403.754,404.239 404.605,411.042 405.219,416.476 408.952,421.532 412.212,425.974 416.323,429.234 420.008,432.116 422.654,436.18 423.646,437.691 428.466,448.37 431.301,454.701 434.939,455.552 435.979,455.788 444.153,459.568 449.728,462.167 453.367,460.75 455.257,459.994 457.666,460.088 459.037,460.135 461.824,460.324 467.211,460.466 472.739,456.025 477.559,452.15 487.15,448.748 495.466,445.819 497.309,443.267 498.585,441.519 500.191,441.472 501.278,441.472 503.404,442.369 508.602,444.637 512.004,443.267 515.548,441.85 524.005,438.353 531.613,435.754 537.046,436.652 540.826,437.266 550.513,441.282 559.396,444.921 563.979,445.157 567.901,445.393 574.752,450.969 580.753,455.883 584.769,454.607 587.226,453.851 589.777,454.56 590.817,454.843 593.983,456.403 599.133,458.812 603.196,456.025 605.606,454.371 608.961,453.52 610.898,453.048 614.584,452.386 621.057,450.874 623.514,445.157 626.68,437.786 629.373,433.25 631.972,428.809 636.271,423.422 637.878,421.39 645.721,414.633 651.25,409.861 652.336,405.467 653.423,401.167 657.014,396.631 661.55,390.82 662.731,388.457 664.385,385.15 666.275,380.661 667.929,377.684 671.236,377.07 674.733,376.456 675.253,378.345 675.489,379.149 675.016,384.205 674.733,387.465 673.174,389.922 L671.709,391.765 673.174,389.922 Q674.733,387.465 675.016,384.205 675.489,379.149 675.253,378.345 674.733,376.456 671.236,377.07 667.929,377.684 666.275,380.661 664.385,385.15 662.731,388.457 661.55,390.82 657.014,396.631 653.423,401.167 652.336,405.467 651.25,409.861 645.721,414.633 637.878,421.39 636.271,423.422 631.972,428.809 629.373,433.25 626.68,437.786 623.514,445.157 621.057,450.874 614.584,452.386 610.898,453.048 608.961,453.52 605.606,454.371 603.196,456.025 599.133,458.812 593.983,456.403 590.817,454.843 589.777,454.56 587.226,453.851 584.769,454.607 580.753,455.883 574.752,450.969 567.901,445.393 563.979,445.157 559.396,444.921 550.513,441.282 540.826,437.266 537.046,436.652 531.613,435.754 524.005,438.353 515.548,441.85 512.004,443.267 508.602,444.637 503.404,442.369 501.278,441.472 500.191,441.472 498.585,441.519 497.309,443.267 495.466,445.819 487.15,448.748 477.559,452.15 472.739,456.025 467.211,460.466 461.824,460.324 459.037,460.135 457.666,460.088 455.257,459.994 453.367,460.75 449.728,462.167 444.153,459.568 435.979,455.788 434.939,455.552 431.301,454.701 428.466,448.37 423.646,437.691 422.654,436.18 420.008,432.116 416.323,429.234 412.212,425.974 408.952,421.532 405.219,416.476 404.605,411.042 403.754,404.239 402.337,401.215 399.171,393.796 397.612,390.725 395.107,385.622 391.516,382.362 391.515,382.48 391.516,382.598 391.753,399.75 392.414,405.94 392.887,410.665 394.682,418.555 396.619,426.824 399.502,436.416 399.738,437.125 406.069,450.213 412.117,462.781 414.149,470.672 418.402,487.399 421.284,491.887 422.843,494.344 426.009,497.321 428.041,499.258 433.994,504.692 435.601,506.204 441.365,513.575 447.035,520.852 448.736,522.363 452.894,526.096 460.738,530.254 467.494,533.798 471.322,538.24 478.267,546.272 484.032,549.391 490.269,552.698 499.672,552.887 499.861,552.887 514.555,555.628 526.557,557.896 532.794,556.195 537.613,554.872 548.056,554.73 558.073,554.588 563.695,552.793 572.342,550.052 577.965,546.178 583.966,541.972 590.911,533.515 594.455,530.349 596.298,528.601 599.558,525.482 600.503,521.088 601.354,517.119 609.764,509.417 618.364,501.573 619.592,497.179 622.144,488.06 626.16,481.634 630.082,475.444 636.13,470.578 640.477,467.128 644.304,456.875 648.178,446.575 651.013,444.165 655.927,440.054 658.526,432.447 660.7,424.32 661.786,421.532 667.126,407.641 671.142,398.332 L674.071,391.765 674.686,393.607 Q676.339,395.592 681.631,396.49 687.16,397.435 691.081,393.088 693.68,390.158 694.861,386.095 695.145,385.055 693.208,374.896 691.034,363.556 691.554,354.862 692.168,344.987 696.799,334.497 699.114,329.158 704.831,319.425 708.753,312.763 709.556,307.518 710.501,301.234 707.194,296.272 702.705,289.516 700.626,288.429 696.799,286.397 689.995,290.744 689.097,294.382 687.018,300.572 683.049,312.479 683.049,316.59 683.049,321.598 681.395,329.3 680.592,333.127 679.741,335.962 670.764,302.887 666.984,290.13 663.487,278.365 653.754,254.125 642.934,227.193 639.106,223.035 634.807,218.357 621.577,207.348 608.205,196.197 602.251,192.322 599.7,190.669 592.565,183.959 587.84,179.517 584.296,179.517 579.855,179.517 575.035,183.109 M639.579,308.982 Q644.729,316.543 644.776,316.59 644.729,316.543 639.579,308.982 635.515,302.982 631.546,300.997 627.341,298.918 615.198,300.43 601.543,302.651 597.054,303.36 590.533,304.399 577.162,309.691 564.215,314.794 558.309,318.48 564.215,314.794 577.162,309.691 590.533,304.399 597.054,303.36 601.543,302.651 615.198,300.43 627.341,298.918 631.546,300.997 635.515,302.982 639.579,308.982 M624.27,326.323 L623.183,331.048 Q621.624,336.34 619.261,339.27 616.285,343.003 611.749,344.42 606.74,345.979 598.944,344.94 586.328,343.286 585.241,325.284 580.067,327.206 574.846,329.631 L570.594,331.71 574.846,329.631 Q580.067,327.206 585.241,325.284 585.312,325.262 585.383,325.237 601.59,319.33 611.701,320.37 616.096,320.834 624.27,326.323 625.235,326.973 626.254,327.694 636.035,334.639 638.634,335.017 636.035,334.639 626.254,327.694 625.235,326.973 624.27,326.323 M628.286,349.145 Q632.964,347.16 633.909,343.995 632.964,347.16 628.286,349.145 624.742,350.61 620.206,351.082 624.742,350.61 628.286,349.145 M595.92,370.502 Q602.346,371.164 606.976,369.037 602.346,371.164 595.92,370.502 589.447,369.84 585.241,366.675 589.447,369.84 595.92,370.502 M572.956,340.215 Q576.358,347.917 583.351,351.082 576.358,347.917 572.956,340.215 M561.664,404.002 L561.616,400.742 561.664,404.002 Q561.569,407.641 560.671,409.72 559.774,411.799 554.482,414.019 L549.331,415.862 Q546.213,416.382 544.606,411.751 544.606,411.94 544.606,412.082 544.606,415.437 542.386,419.075 539.929,422.997 535.156,426.73 529.912,430.84 523.344,430.51 516.162,430.131 508.696,424.367 502.365,419.5 499.766,409.483 497.782,401.97 498.254,393.655 498.538,388.457 503.121,373.668 507.988,358.642 508.696,355.807 509.641,352.264 509.736,340.357 509.641,327.93 509.641,325.567 509.641,320.653 507.515,315.409 504.68,308.557 499.672,306.667 496.6,305.533 490.033,304.777 483.937,304.069 477.937,301.47 469.621,297.832 457.099,295.705 444.295,293.485 438.719,294.855 433.285,296.225 426.67,300.572 420.528,304.683 416.039,309.502 420.528,304.683 426.67,300.572 433.285,296.225 438.719,294.855 444.295,293.485 457.099,295.705 469.621,297.832 477.937,301.47 483.937,304.069 490.033,304.777 496.6,305.533 499.672,306.667 504.68,308.557 507.515,315.409 509.641,320.653 509.641,325.567 509.641,327.93 509.736,340.357 509.641,352.264 508.696,355.807 507.988,358.642 503.121,373.668 498.538,388.457 498.254,393.655 497.782,401.97 499.766,409.483 502.365,419.5 508.696,424.367 516.162,430.131 523.344,430.51 529.912,430.84 535.156,426.73 539.929,422.997 542.386,419.075 544.606,415.437 544.606,412.082 544.606,411.94 544.606,411.751 544.228,410.712 543.945,409.389 L543.189,402.16 543.898,405.514 Q544.559,409.2 544.606,411.751 546.213,416.382 549.331,415.862 L554.482,414.019 Q559.774,411.799 560.671,409.72 561.569,407.641 561.664,404.002 M566.341,465.002 Q569.318,465.758 574.894,470.105 580.942,474.783 583.824,475.87 587.273,477.193 587.273,484.564 587.273,489.383 587.273,489.761 587.462,492.265 588.549,492.88 591.856,494.77 592.801,497.085 594.077,500.109 589.966,502.33 589.258,502.708 577.02,508.283 568.137,512.347 565.869,514.615 564.735,515.748 563.695,518.111 L561.994,522.08 Q559.632,526.522 554.529,525.955 548.386,525.293 543.85,525.529 539.74,525.766 535.629,526.9 525.754,529.593 522.493,530.16 512.665,531.814 509.641,528.79 499.388,518.678 493.057,514.615 490.6,513.055 487.15,507.433 483.937,502.141 481.244,500.912 478.126,499.495 477.039,497.652 476.047,495.242 474.629,493.352 472.881,490.99 472.881,487.682 L473.212,484.847 Q475.385,478.988 479.307,473.743 481.055,471.428 486.442,465.475 489.04,462.592 494.143,461.411 500.144,459.946 502.507,458.387 505.72,456.261 512.146,456.025 519.564,455.788 521.454,455.08 523.958,454.182 532.605,455.316 541.677,456.544 545.551,455.552 549.946,454.465 556.655,459.049 564.829,464.624 566.341,465.002 M491.167,326.985 Q482.255,322.528 479.023,321.031 L479.449,322.118 Q479.732,324.102 478.882,328.402 477.748,334.309 473.826,337.285 469.006,341.018 459.509,340.687 450.484,340.357 446.185,334.497 443.539,330.765 442.357,323.583 431.118,327.938 428.324,331.71 431.118,327.938 442.357,323.583 442.52,323.553 442.688,323.488 449.161,321.078 456.816,319.047 463.431,317.299 466.124,317.062 469.479,316.779 478.126,320.606 478.504,320.774 479.023,321.031 482.255,322.528 491.167,326.985 M486.631,344.987 Q489.277,341.538 489.277,337.852 489.277,341.538 486.631,344.987 484.174,348.153 480.772,349.665 484.174,348.153 486.631,344.987 M433.333,349.617 Q437.774,353.303 442.499,354.39 437.774,353.303 433.333,349.617 428.702,345.743 425.962,340.215 428.702,345.743 433.333,349.617 M442.027,362.895 Q446.941,367.195 449.02,368.045 454.406,370.219 462.344,367.147 454.406,370.219 449.02,368.045 446.941,367.195 442.027,362.895 M629.137,148.758 Q624.317,147.34 622.191,145.97 619.261,144.175 618.789,141.245 617.891,135.953 626.065,130.992 630.129,128.488 634.381,127.07 630.271,126.598 624.837,126.834 613.969,127.306 607.449,130.85 603.952,132.787 600.976,132.315 598.991,132.031 596.062,130.283 592.612,128.204 591.053,127.684 587.887,126.598 584.296,127.543 578.296,129.102 566.861,123.715 560.152,120.55 559.254,120.172 555.616,118.754 554.056,119.51 550.891,121.117 530.998,120.219 513.421,119.416 504.397,118.093 498.443,117.195 489.513,109.777 L481.717,102.5 482.378,105.76 Q483.087,109.588 483.181,112.612 483.559,122.156 477.937,119.51 472.314,116.864 460.407,116.486 L449.587,116.675 457.336,123.763 Q464.045,130.614 459.037,129.433 454.028,128.251 443.491,132.504 L433.994,136.993 436.168,137.134 Q438.672,137.418 440.326,138.127 445.618,140.347 440.609,145.97 429.978,157.877 424.591,164.776 413.062,179.565 403.282,197.047 395.344,211.222 392.698,244.534 391.044,265.654 391.705,289.988 391.8,294.524 391.942,297.217 399.974,269.812 401.864,259.89 403.423,251.81 405.172,247.274 407.298,241.746 411.314,236.737 416.984,229.65 435.412,205.552 438.577,201.489 446.09,194.07 450.295,189.96 458.564,181.88 463.384,177.013 468.865,174.604 472.172,173.139 479.827,170.54 482.803,169.406 484.079,169.973 485.119,170.398 485.686,172.336 486.016,173.422 486.82,176.257 487.812,178.809 489.749,180.462 491.308,181.786 499.152,191.046 505.2,198.229 509.641,199.882 513.469,201.3 528.163,207.49 542.008,212.923 546.969,212.64 552.261,212.309 559.537,203.71 565.113,197.189 568.231,190.905 570.452,186.463 575.035,183.109 579.855,179.517 584.296,179.517 587.84,179.517 592.565,183.959 599.7,190.669 602.251,192.322 608.205,196.197 621.577,207.348 634.807,218.357 639.106,223.035 642.934,227.193 653.754,254.125 663.487,278.365 666.984,290.13 670.764,302.887 679.741,335.962 680.592,333.127 681.395,329.3 683.049,321.598 683.049,316.59 683.049,312.479 687.018,300.572 689.097,294.382 689.995,290.744 690.703,287.626 690.609,286.35 690.373,283.751 689.097,275.86 687.585,266.883 686.829,260.362 684.136,237.163 683.758,233.383 681.82,214.577 682.104,208.86 682.435,202.434 668.212,182.022 654.51,162.319 646.194,155.892 641.8,152.491 629.137,148.758Z" test="JeanRenoFace" vector-effect="non-scaling-stroke" stroke-width="1"/>
        <path id="Layer3_0_1_STROKES" stroke="#FFF" stroke-width="1.89" stroke-linejoin="round" stroke-linecap="round" fill="none" d="M391.942,297.217 Q391.8,294.524 391.705,289.988 391.044,265.654 392.698,244.534 395.344,211.222 403.282,197.047 413.062,179.565 424.591,164.776 429.978,157.877 440.609,145.97 445.618,140.347 440.326,138.127 438.672,137.418 436.168,137.134 L433.994,136.993 443.491,132.504 Q454.028,128.251 459.037,129.433 464.045,130.614 457.336,123.763 L449.587,116.675 460.407,116.486 Q472.314,116.864 477.937,119.51 483.559,122.156 483.181,112.612 483.087,109.588 482.378,105.76 L481.717,102.5 489.513,109.777 Q498.443,117.195 504.397,118.093 513.421,119.416 530.998,120.219 550.891,121.117 554.056,119.51 555.616,118.754 559.254,120.172 560.152,120.55 566.861,123.715 578.296,129.102 584.296,127.543 587.887,126.598 591.053,127.684 592.612,128.204 596.062,130.283 598.991,132.031 600.976,132.315 603.952,132.787 607.449,130.85 613.969,127.306 624.837,126.834 630.271,126.598 634.381,127.07 630.129,128.488 626.065,130.992 617.891,135.953 618.789,141.245 619.261,144.175 622.191,145.97 624.317,147.34 629.137,148.758 641.8,152.491 646.194,155.892 654.51,162.319 668.212,182.022 682.435,202.434 682.104,208.86 681.82,214.577 683.758,233.383 684.136,237.163 686.829,260.362 687.585,266.883 689.097,275.86 690.373,283.751 690.609,286.35 690.703,287.626 689.995,290.744 696.799,286.397 700.626,288.429 702.705,289.516 707.194,296.272 710.501,301.234 709.556,307.518 708.753,312.763 704.831,319.425 699.114,329.158 696.799,334.497 692.168,344.987 691.554,354.862 691.034,363.556 693.208,374.896 695.145,385.055 694.861,386.095 693.68,390.158 691.081,393.088 687.16,397.435 681.631,396.49 676.339,395.592 674.686,393.607 L674.071,391.765 671.142,398.332 Q667.126,407.641 661.786,421.532 660.7,424.32 658.526,432.447 655.927,440.054 651.013,444.165 648.178,446.575 644.304,456.875 640.477,467.128 636.13,470.578 630.082,475.444 626.16,481.634 622.144,488.06 619.592,497.179 618.364,501.573 609.764,509.417 601.354,517.119 600.503,521.088 599.558,525.482 596.298,528.601 594.455,530.349 590.911,533.515 583.966,541.972 577.965,546.178 572.342,550.052 563.695,552.793 558.073,554.588 548.056,554.73 537.613,554.872 532.794,556.195 526.557,557.896 514.555,555.628 499.861,552.887 499.672,552.887 490.269,552.698 484.032,549.391 478.267,546.272 471.322,538.24 467.494,533.798 460.738,530.254 452.894,526.096 448.736,522.363 447.035,520.852 441.365,513.575 435.601,506.204 433.994,504.692 428.041,499.258 426.009,497.321 422.843,494.344 421.284,491.887 418.402,487.399 414.149,470.672 412.117,462.781 406.069,450.213 399.738,437.125 399.502,436.416 396.619,426.824 394.682,418.555 392.887,410.665 392.414,405.94 391.753,399.75 391.516,382.598 391.515,382.48 391.516,382.362 391.282,361.706 391.611,327.505 L391.942,297.217 Q399.974,269.812 401.864,259.89 403.423,251.81 405.172,247.274 407.298,241.746 411.314,236.737 416.984,229.65 435.412,205.552 438.577,201.489 446.09,194.07 450.295,189.96 458.564,181.88 463.384,177.013 468.865,174.604 472.172,173.139 479.827,170.54 482.803,169.406 484.079,169.973 485.119,170.398 485.686,172.336 486.016,173.422 486.82,176.257 487.812,178.809 489.749,180.462 491.308,181.786 499.152,191.046 505.2,198.229 509.641,199.882 513.469,201.3 528.163,207.49 542.008,212.923 546.969,212.64 552.261,212.309 559.537,203.71 565.113,197.189 568.231,190.905 570.452,186.463 575.035,183.109 579.855,179.517 584.296,179.517 587.84,179.517 592.565,183.959 599.7,190.669 602.251,192.322 608.205,196.197 621.577,207.348 634.807,218.357 639.106,223.035 642.934,227.193 653.754,254.125 663.487,278.365 666.984,290.13 670.764,302.887 679.741,335.962 680.592,333.127 681.395,329.3 683.049,321.598 683.049,316.59 683.049,312.479 687.018,300.572 689.097,294.382 689.995,290.744 M558.309,318.48 Q564.215,314.794 577.162,309.691 590.533,304.399 597.054,303.36 601.543,302.651 615.198,300.43 627.341,298.918 631.546,300.997 635.515,302.982 639.579,308.982 644.729,316.543 644.776,316.59 M585.241,325.284 Q586.328,343.286 598.944,344.94 606.74,345.979 611.749,344.42 616.285,343.003 619.261,339.27 621.624,336.34 623.183,331.048 L624.27,326.323 Q616.096,320.834 611.701,320.37 601.59,319.33 585.383,325.237 585.312,325.262 585.241,325.284 580.067,327.206 574.846,329.631 L570.594,331.71 M624.27,326.323 Q625.235,326.973 626.254,327.694 636.035,334.639 638.634,335.017 M620.206,351.082 Q624.742,350.61 628.286,349.145 632.964,347.16 633.909,343.995 M391.516,382.362 Q395.107,385.622 397.612,390.725 399.171,393.796 402.337,401.215 403.754,404.239 404.605,411.042 405.219,416.476 408.952,421.532 412.212,425.974 416.323,429.234 420.008,432.116 422.654,436.18 423.646,437.691 428.466,448.37 431.301,454.701 434.939,455.552 435.979,455.788 444.153,459.568 449.728,462.167 453.367,460.75 455.257,459.994 457.666,460.088 459.037,460.135 461.824,460.324 467.211,460.466 472.739,456.025 477.559,452.15 487.15,448.748 495.466,445.819 497.309,443.267 498.585,441.519 500.191,441.472 501.278,441.472 503.404,442.369 508.602,444.637 512.004,443.267 515.548,441.85 524.005,438.353 531.613,435.754 537.046,436.652 540.826,437.266 550.513,441.282 559.396,444.921 563.979,445.157 567.901,445.393 574.752,450.969 580.753,455.883 584.769,454.607 587.226,453.851 589.777,454.56 590.817,454.843 593.983,456.403 599.133,458.812 603.196,456.025 605.606,454.371 608.961,453.52 610.898,453.048 614.584,452.386 621.057,450.874 623.514,445.157 626.68,437.786 629.373,433.25 631.972,428.809 636.271,423.422 637.878,421.39 645.721,414.633 651.25,409.861 652.336,405.467 653.423,401.167 657.014,396.631 661.55,390.82 662.731,388.457 664.385,385.15 666.275,380.661 667.929,377.684 671.236,377.07 674.733,376.456 675.253,378.345 675.489,379.149 675.016,384.205 674.733,387.465 673.174,389.922 L671.709,391.765 M610.284,326.985 L614.064,327.93 M585.241,366.675 Q589.447,369.84 595.92,370.502 602.346,371.164 606.976,369.037 M572.956,340.215 Q576.358,347.917 583.351,351.082 M544.606,411.751 Q546.213,416.382 549.331,415.862 L554.482,414.019 Q559.774,411.799 560.671,409.72 561.569,407.641 561.664,404.002 L561.616,400.742 M544.606,411.751 Q544.559,409.2 543.898,405.514 L543.189,402.16 543.945,409.389 Q544.228,410.712 544.606,411.751 544.606,411.94 544.606,412.082 544.606,415.437 542.386,419.075 539.929,422.997 535.156,426.73 529.912,430.84 523.344,430.51 516.162,430.131 508.696,424.367 502.365,419.5 499.766,409.483 497.782,401.97 498.254,393.655 498.538,388.457 503.121,373.668 507.988,358.642 508.696,355.807 509.641,352.264 509.736,340.357 509.641,327.93 509.641,325.567 509.641,320.653 507.515,315.409 504.68,308.557 499.672,306.667 496.6,305.533 490.033,304.777 483.937,304.069 477.937,301.47 469.621,297.832 457.099,295.705 444.295,293.485 438.719,294.855 433.285,296.225 426.67,300.572 420.528,304.683 416.039,309.502 M487.859,481.067 Q492.017,478.421 497.593,476.815 503.641,475.066 508.696,475.397 511.437,475.586 517.627,477.807 522.824,479.697 527.596,479.177 531.376,478.752 538.464,476.248 544.748,473.98 549.331,473.98 555.19,473.98 560.341,476.342 564.499,478.279 567.759,481.54 M473.212,484.847 Q475.385,478.988 479.307,473.743 481.055,471.428 486.442,465.475 489.04,462.592 494.143,461.411 500.144,459.946 502.507,458.387 505.72,456.261 512.146,456.025 519.564,455.788 521.454,455.08 523.958,454.182 532.605,455.316 541.677,456.544 545.551,455.552 549.946,454.465 556.655,459.049 564.829,464.624 566.341,465.002 569.318,465.758 574.894,470.105 580.942,474.783 583.824,475.87 587.273,477.193 587.273,484.564 587.273,489.383 587.273,489.761 587.462,492.265 588.549,492.88 591.856,494.77 592.801,497.085 594.077,500.109 589.966,502.33 589.258,502.708 577.02,508.283 568.137,512.347 565.869,514.615 564.735,515.748 563.695,518.111 L561.994,522.08 Q559.632,526.522 554.529,525.955 548.386,525.293 543.85,525.529 539.74,525.766 535.629,526.9 525.754,529.593 522.493,530.16 512.665,531.814 509.641,528.79 499.388,518.678 493.057,514.615 490.6,513.055 487.15,507.433 483.937,502.141 481.244,500.912 478.126,499.495 477.039,497.652 476.047,495.242 474.629,493.352 472.881,490.99 472.881,487.682 L473.212,484.847Z M390.997,289.657 Q385.799,282.712 377.672,282.381 369.64,282.097 367.844,288.24 366.616,292.445 372.853,306.006 379.657,320.701 379.657,325.567 379.657,330.765 379.893,349.003 379.893,365.777 378.712,371.4 377.436,377.542 379.704,379.669 381.499,381.322 385.327,380.425 M491.167,326.985 Q482.255,322.528 479.047,321.031 L479.449,322.118 Q479.732,324.102 478.882,328.402 477.748,334.309 473.826,337.285 469.006,341.018 459.509,340.687 450.484,340.357 446.185,334.497 443.539,330.765 442.357,323.606 431.118,327.938 428.324,331.71 M479.047,321.031 Q478.504,320.774 478.126,320.606 469.479,316.779 466.124,317.062 463.431,317.299 456.816,319.047 449.161,321.078 442.688,323.488 442.52,323.553 442.357,323.606 M467.069,323.205 L469.432,323.677 M480.772,349.665 Q484.174,348.153 486.631,344.987 489.277,341.538 489.277,337.852 M425.962,340.215 Q428.702,345.743 433.333,349.617 437.774,353.303 442.499,354.39 M442.027,362.895 Q446.941,367.195 449.02,368.045 454.406,370.219 462.344,367.147 M521.926,465.002 Q530.431,466.42 534.684,466.42 M522.399,487.21 Q526.037,486.737 527.077,486.784 529.297,486.879 532.794,488.155" test="JeanRenoFace"/>
      </g>
      <g id="TearAnimf4r1">
        <use xlink:href="#TearGraphic" transform="matrix(.914 0 0 .914 464.35 340.2)"/>
      </g>
      <g id="TearAnimf19r1">
        <use xlink:href="#TearGraphic" transform="matrix(.914 0 0 .914 464.35 411.75)"/>
      </g>
    </g>
    <g id="BlackMaskRect">
      <path fill="#000" stroke="none" d="M823.45,613.6 L823.45,508.3 -23.6,508.3 -23.6,613.6 823.45,613.6Z" test="BlackMaskRect"/>
    </g>
  </g>
</svg>