<?xml version="1.0" encoding="utf-8"?>
<svg id="EdithAnim06" image-rendering="inherit" baseProfile="basic" version="1.1" x="0px" y="0px" width="800" height="600" xmlns="http://www.w3.org/2000/svg" xmlns:xlink="http://www.w3.org/1999/xlink">
  <defs>
    <g id="TearGraphic" overflow="visible">
      <path id="Layer4_0_1_STROKES" stroke="#0FF" stroke-width="1" stroke-linejoin="round" stroke-linecap="round" fill="none" d="M-1.15 1.6Q-1.25 5.75 -2.25 8.6 -3.4 11.65 -6.8 16.5 -10.25 21.45 -8.25 27.95 -6.25 34.6 -.7 34.8 4.75 35 7.25 30.15 9.3 26.2 8.9 20.65 8.7 17.9 4.8 12.25 .55 6.05 -.7 0" test="TearGraphic"/>
    </g>
  </defs>
  <g id="Jean-Renof164r1" overflow="visible">
    <g id="Jean-Reno-body">
      <path id="Layer2_0_1_STROKES" stroke="#FEB7AE" stroke-width="1.89" stroke-linejoin="round" stroke-linecap="round" fill="none" d="M624.145,375.217 Q630.287,381.36 668.607,387.502 694.358,391.66 721.527,394.117 728.803,394.779 771.376,403.473 807.711,410.844 814.137,409.237 823.918,406.78 831.383,403.803 840.88,399.976 850.047,394.117 859.166,388.258 871.357,386.463 881.563,384.903 889.784,386.557 895.69,387.738 901.36,389.628 904.195,390.573 905.849,391.282 904.195,391.755 902.305,392.747 898.62,394.779 897.722,397.566 896.824,400.354 899.896,403.189 901.455,404.559 903.156,405.41 901.266,406.166 899.565,407.536 896.116,410.277 897.013,413.206 897.911,416.183 903.581,417.459 906.416,418.12 909.062,418.167 L910.102,424.215 Q911.566,430.547 913.787,431.87 916.008,433.193 921.394,430.641 924.088,429.413 926.308,427.854 L928.104,431.87 Q930.561,435.792 934.104,435.177 937.648,434.61 940.625,431.539 942.09,429.98 942.846,428.562 L946.295,429.98 Q949.981,431.161 951.162,429.98 952.343,428.799 953.288,425.491 L953.997,422.42 956.265,435.366 Q958.344,449.163 957.304,453.132 957.21,453.463 956.218,458.33 955.509,461.779 954.611,464.047 951.965,470.804 945.208,474.395 M877.405,429.035 Q885.626,427.05 896.872,428.988 913.267,431.775 921.82,442.737 925.127,446.99 932.026,455.731 937.932,463.433 941.239,469.623 950.17,486.349 946.626,503.454 943.129,520.275 933.774,535.725 929.474,542.813 921.111,553.066 918.748,555.948 909.96,562.847 899.518,571.021 886.807,579.243 851.323,602.253 819.051,612.176 L803.317,617.019 Q805.956,620.32 808.089,630.981 810.262,641.849 809.365,647.85 808.609,652.953 811.302,656.355 812.011,657.3 815.507,659.898 818.295,661.977 822.5,668.592 827.934,677.097 826.847,682.106 825.713,687.54 820.799,692.784 816.358,697.462 812.436,698.643 809.506,699.541 803.931,699.636 L798.97,699.588 805.396,700.911 Q812.625,703.227 816.925,708.093 822.5,714.425 824.768,718.866 827.414,723.969 825.902,726.993 824.863,729.12 822.075,735.546 818.626,741.499 812.2,744.476 806.199,747.264 793.111,744.192 786.543,742.444 783.755,741.735 779.03,740.554 777.235,740.696 774.872,740.885 756.303,745.61 737.497,750.429 730.93,751.091 724.031,751.8 715.762,748.303 711.888,746.508 710.329,745.893 707.777,744.807 706.596,744.948 702.816,745.137 700.879,745.374 697.524,745.846 695.02,747.783 692.185,749.957 688.31,749.012 684.625,748.114 683.68,745.657 682.593,742.869 682.687,741.216 682.829,738.9 685.097,737.152 687.176,735.546 690.484,734.979 692.137,734.742 693.366,734.79 692.468,733.75 691.854,732.38 690.625,729.639 691.948,728.175 693.413,726.568 697.24,725.765 700.453,725.103 703.052,725.34 704.186,725.434 701.635,723.639 698.469,721.418 699.508,720.378 700.737,719.15 703.903,719.244 705.367,719.292 708.958,719.906 710.187,720.095 712.171,721.512 713.589,722.552 714.628,722.032 717.936,720.378 722.377,718.299 729.181,715.134 731.875,714.236 736.127,712.818 740.38,711.873 M636.146,376.304 Q640.304,374.319 655.188,365.436 669.174,357.546 674.182,357.404 687.176,357.026 691.192,357.404 703.997,358.585 715.81,364.491 741.136,377.154 744.774,379.044 760.981,387.644 768.021,393.314 774.825,398.795 780.495,402.055 783.33,403.709 784.795,404.229 M613.466,440.328 Q613.466,436.264 614.458,431.256 616.49,421.191 621.499,416.466 632.035,406.544 645.596,408.67 650.794,409.473 660.952,415.71 670.308,421.428 672.765,424.499 674.702,426.909 679.522,427.806 683.207,428.515 688.121,428.279 690.767,428.184 704.706,427.192 718.125,426.436 721.952,427.334 728.284,428.799 742.931,433.76 759.705,439.477 762.823,441.981 765.186,443.871 773.218,450.864 780.731,457.101 783.613,458.283 786.921,459.606 787.441,460.503 787.771,461.118 787.157,463.291 786.921,464.142 787.441,470.426 787.96,477.277 787.157,482.664 786.165,489.326 781.062,506.761 776.242,523.204 773.691,529.441 771.612,534.591 765.044,546.026 759.043,556.468 756.917,559.209 755.452,561.146 752.145,565.068 L749.121,568.659 753.657,569.415 Q758.76,570.407 761.406,571.73 763.532,572.817 768.163,574.99 772.037,577.258 774.163,580.707 776.951,585.243 777.613,587.511 778.463,590.488 777.471,593.937 776.479,597.339 774.116,600.978 772.179,603.954 769.911,606.222 766.84,609.294 764.95,610.806 761.595,613.499 759.28,613.782 756.208,614.208 754.791,614.066 752.617,613.83 748.885,612.365 745.861,611.184 743.734,608.727 740.758,605.325 738.726,603.86 735.891,601.781 734.426,598.851 732.583,595.071 730.693,592.992 727.575,589.543 725.543,588.315 724.078,587.464 721.243,586.85 718.975,586.377 718.597,586.472 717.227,587.086 714.865,588.031 710.612,590.205 709.006,590.819 706.407,591.764 704.942,589.685 702.627,586.472 702.249,585.385 701.493,583.259 702.58,580.235 703.903,576.644 704.422,575.935 705.226,574.943 708.25,573.62 712.786,571.588 718.881,573.62 719.542,573.856 718.881,570.407 717.18,561.146 717.133,560.91 714.487,544.183 716.991,530.859 719.306,518.715 725.449,500.146 730.41,485.168 729.985,483.609 729.465,481.671 715.621,482.238 700.217,482.9 697.855,481.955 695.209,480.915 680.372,476.899 666.528,473.119 665.677,472.505 M592.912,450.77 Q606.142,463.102 613.561,468.347 633.311,482.38 657.409,489.279 681.034,496.083 703.288,503.406 714.392,507.045 720.771,509.36 M749.782,706.676 Q748.79,702.518 730.882,670.199 712.644,637.218 711.274,632.966 708.533,624.366 706.407,614.208 703.808,601.828 704.895,599.135 705.982,596.536 708.958,593.843 710.896,592.047 713.164,590.63 M740.096,701.951 Q738.82,702.896 736.836,703.794 732.961,705.636 729.701,705.495 726.346,705.353 720.157,702.896 715.668,701.1 712.927,699.588 711.935,699.021 711.179,696.895 710.518,695.1 709.384,695.1 708.25,695.1 705.793,697.226 703.005,699.636 701.824,700.061 700.028,700.722 696.437,699.777 693.271,698.927 691.429,697.698 689.964,696.753 689.586,694.58 689.35,693.068 689.539,689.902 689.68,687.587 691.003,686.217 691.051,686.122 694.027,683.76 695.492,682.578 697.051,682.106 697.807,681.87 698.28,681.87 M706.549,682.342 Q706.36,681.539 706.596,680.499 706.974,678.42 708.911,677.381 710.848,676.341 714.156,676.672 715,676.861 719.07,677.381 720.44,677.523 722.992,678.657 725.401,679.743 726.157,679.743 M740.38,719.197 Q733.245,722.93 725.449,726.71 709.951,734.364 706.832,734.79 703.714,735.215 700.359,735.073 L697.618,734.79 M803.317,617.019 L803.269,617.043 Q784.795,622.713 784.369,622.713 784.275,622.713 788.622,638.919 792.874,656.969 792.118,665.568 L790.323,685.319 Q788.953,705.731 791.173,709.275" test="Jean Reno body"/>
    </g>
    <g id="Jean-Renof95r1">
      <g id="JeanRenoFace">
        <path fill="#000" stroke="none" d="M593.135,192.759 Q588.552,196.113 586.331,200.555 583.213,206.839 577.637,213.36 570.361,221.959 565.069,222.29 560.108,222.573 546.263,217.14 531.569,210.95 527.741,209.532 523.3,207.879 517.252,200.697 509.408,191.436 507.849,190.113 505.912,188.459 504.92,185.907 504.116,183.072 503.785,181.986 503.218,180.048 502.179,179.623 500.903,179.056 497.927,180.19 490.272,182.789 486.964,184.254 481.483,186.663 476.664,191.53 468.395,199.61 464.19,203.721 456.677,211.139 453.511,215.202 435.084,239.3 429.414,246.387 425.398,251.396 423.271,256.924 421.523,261.46 419.964,269.54 418.074,279.462 410.041,306.867 L409.711,337.155 Q409.382,371.356 409.616,392.012 413.207,395.272 415.711,400.375 417.271,403.446 420.436,410.865 421.854,413.889 422.704,420.693 423.319,426.126 427.051,431.182 430.312,435.624 434.422,438.884 438.108,441.766 440.754,445.83 441.746,447.342 446.566,458.02 449.401,464.352 453.039,465.202 454.078,465.438 462.253,469.218 467.828,471.817 471.467,470.4 473.357,469.644 475.766,469.738 477.136,469.785 479.924,469.974 485.311,470.116 490.839,465.674 495.658,461.8 505.25,458.398 513.566,455.468 515.409,452.917 516.685,451.169 518.291,451.121 519.378,451.121 521.504,452.019 526.702,454.287 530.104,452.917 533.647,451.5 542.105,448.003 549.713,445.404 555.146,446.302 558.926,446.916 568.613,450.933 577.496,454.571 582.079,454.807 586.001,455.043 592.852,460.619 598.853,465.533 602.869,464.257 605.326,463.501 607.877,464.21 608.917,464.493 612.083,466.053 617.233,468.462 621.296,465.674 623.706,464.021 627.061,463.17 628.998,462.698 632.684,462.036 639.157,460.524 641.614,454.807 644.78,447.436 647.473,442.9 650.072,438.458 654.371,433.072 655.978,431.04 663.821,424.284 669.349,419.511 670.436,415.117 671.523,410.817 675.114,406.281 679.65,400.47 680.831,398.107 682.485,394.799 684.375,390.311 686.029,387.334 689.336,386.72 692.833,386.106 693.353,387.996 693.589,388.799 693.116,393.855 692.833,397.115 691.274,399.572 L689.809,401.415 691.274,399.572 Q692.833,397.115 693.116,393.855 693.589,388.799 693.353,387.996 692.833,386.106 689.336,386.72 686.029,387.334 684.375,390.311 682.485,394.799 680.831,398.107 679.65,400.47 675.114,406.281 671.523,410.817 670.436,415.117 669.349,419.511 663.821,424.284 655.978,431.04 654.371,433.072 650.072,438.458 647.473,442.9 644.78,447.436 641.614,454.807 639.157,460.524 632.684,462.036 628.998,462.698 627.061,463.17 623.706,464.021 621.296,465.674 617.233,468.462 612.083,466.053 608.917,464.493 607.877,464.21 605.326,463.501 602.869,464.257 598.853,465.533 592.852,460.619 586.001,455.043 582.079,454.807 577.496,454.571 568.613,450.933 558.926,446.916 555.146,446.302 549.713,445.404 542.105,448.003 533.647,451.5 530.104,452.917 526.702,454.287 521.504,452.019 519.378,451.121 518.291,451.121 516.685,451.169 515.409,452.917 513.566,455.468 505.25,458.398 495.658,461.8 490.839,465.674 485.311,470.116 479.924,469.974 477.136,469.785 475.766,469.738 473.357,469.644 471.467,470.4 467.828,471.817 462.253,469.218 454.078,465.438 453.039,465.202 449.401,464.352 446.566,458.02 441.746,447.342 440.754,445.83 438.108,441.766 434.422,438.884 430.312,435.624 427.051,431.182 423.319,426.126 422.704,420.693 421.854,413.889 420.436,410.865 417.271,403.446 415.711,400.375 413.207,395.272 409.616,392.012 409.615,392.13 409.616,392.248 409.852,409.4 410.514,415.59 410.987,420.315 412.782,428.205 414.719,436.474 417.602,446.066 417.838,446.775 424.169,459.863 430.217,472.431 432.249,480.322 436.501,497.049 439.384,501.537 440.943,503.994 444.109,506.971 446.141,508.908 452.094,514.342 453.701,515.854 459.465,523.225 465.135,530.502 466.836,532.014 470.994,535.746 478.838,539.904 485.594,543.448 489.422,547.89 496.367,555.922 502.132,559.041 508.369,562.348 517.771,562.537 517.96,562.537 532.655,565.278 544.657,567.546 550.894,565.845 555.713,564.522 566.156,564.38 576.172,564.238 581.795,562.443 590.442,559.702 596.065,555.828 602.065,551.622 609.011,543.165 612.555,539 614.398,538.251 617.658,535.132 618.603,530.738 619.454,526.769 627.864,519.067 636.464,511.223 637.692,506.829 640.243,497.71 644.26,491.284 648.181,485.094 654.229,480.227 658.576,476.778 662.404,466.525 666.278,456.225 669.113,453.815 674.027,449.704 676.626,442.097 678.8,433.97 679.886,431.182 685.226,417.29 689.242,407.982 L692.171,401.415 692.786,403.257 Q694.439,405.242 699.731,406.14 705.259,407.085 709.181,402.737 711.78,399.808 712.961,395.745 713.245,394.705 711.307,384.546 709.134,373.206 709.654,364.512 710.268,354.637 714.899,344.148 717.214,338.808 722.931,329.075 726.853,322.413 727.656,317.168 728.601,310.884 725.294,305.922 720.805,299.166 718.726,298.079 714.899,296.047 708.094,300.394 707.197,304.032 705.118,310.222 701.149,322.129 701.149,326.24 701.149,331.248 699.495,338.95 698.692,342.777 697.841,345.612 688.864,312.537 685.084,299.78 681.587,288.015 671.854,263.775 661.034,236.843 657.206,232.685 652.906,228.007 639.676,216.998 626.305,205.847 620.351,201.972 617.8,200.319 610.665,193.609 605.94,189.168 602.396,189.168 597.955,189.168 593.135,192.759 M657.679,318.633 Q662.829,326.193 662.876,326.24 662.829,326.193 657.679,318.633 653.615,312.632 649.646,310.647 645.441,308.568 633.298,310.08 619.642,312.301 615.154,313.01 608.633,314.049 595.262,319.341 582.315,324.444 576.409,328.13 582.315,324.444 595.262,319.341 608.633,314.049 615.154,313.01 619.642,312.301 633.298,310.08 645.441,308.568 649.646,310.647 653.615,312.632 657.679,318.633 M642.37,335.973 L641.283,340.698 Q639.724,345.99 637.361,348.92 634.384,352.653 629.849,354.07 624.84,355.629 617.044,354.59 604.428,352.936 603.341,334.934 598.167,336.856 592.946,339.281 L588.694,341.36 592.946,339.281 Q598.167,336.856 603.341,334.934 603.412,334.912 603.483,334.886 619.69,328.98 629.801,330.02 634.195,330.484 642.37,335.973 643.335,336.623 644.354,337.344 654.135,344.289 656.734,344.667 654.135,344.289 644.354,337.344 643.335,336.623 642.37,335.973 M646.386,358.795 Q651.064,356.81 652.009,353.645 651.064,356.81 646.386,358.795 642.842,360.26 638.306,360.732 642.842,360.26 646.386,358.795 M614.02,380.152 Q620.446,380.814 625.076,378.687 620.446,380.814 614.02,380.152 607.546,379.491 603.341,376.325 607.546,379.491 614.02,380.152 M591.056,349.865 Q594.458,357.567 601.451,360.732 594.458,357.567 591.056,349.865 M579.763,413.652 L579.716,410.392 579.763,413.652 Q579.669,417.29 578.771,419.37 577.873,421.448 572.582,423.669 L567.431,425.512 Q564.313,426.032 562.706,421.401 562.706,421.59 562.706,421.732 562.706,425.087 560.486,428.725 558.029,432.647 553.256,436.38 548.012,440.49 541.444,440.16 534.262,439.781 526.796,434.017 520.465,429.15 517.866,419.133 515.881,411.621 516.354,403.304 516.637,398.107 521.221,383.318 526.088,368.292 526.796,365.457 527.741,361.914 527.836,350.006 527.741,337.58 527.741,335.217 527.741,330.303 525.615,325.059 522.78,318.207 517.771,316.317 514.7,315.183 508.132,314.427 502.037,313.719 496.036,311.12 487.72,307.482 475.199,305.355 462.394,303.135 456.819,304.505 451.385,305.875 444.77,310.222 438.628,314.333 434.139,319.152 438.628,314.333 444.77,310.222 451.385,305.875 456.819,304.505 462.394,303.135 475.199,305.355 487.72,307.482 496.036,311.12 502.037,313.719 508.132,314.427 514.7,315.183 517.771,316.317 522.78,318.207 525.615,325.059 527.741,330.303 527.741,335.217 527.741,337.58 527.836,350.006 527.741,361.914 526.796,365.457 526.088,368.292 521.221,383.318 516.637,398.107 516.354,403.304 515.881,411.621 517.866,419.133 520.465,429.15 526.796,434.017 534.262,439.781 541.444,440.16 548.012,440.49 553.256,436.38 558.029,432.647 560.486,428.725 562.706,425.087 562.706,421.732 562.706,421.59 562.706,421.401 562.328,420.362 562.045,419.039 L561.289,411.809 561.998,415.164 Q562.659,418.85 562.706,421.401 564.313,426.032 567.431,425.512 L572.582,423.669 Q577.873,421.448 578.771,419.37 579.669,417.29 579.763,413.652 M584.441,474.652 Q587.418,475.408 592.993,479.755 599.041,484.433 601.924,485.52 605.373,486.843 605.373,494.213 605.373,499.033 605.373,499.411 605.562,501.915 606.649,502.53 609.956,504.42 610.901,506.735 612.177,509.759 608.066,511.98 607.358,512.357 595.12,517.933 586.237,521.996 583.969,524.265 582.835,525.399 581.795,527.761 L580.094,531.73 Q577.732,536.171 572.629,535.605 566.486,534.943 561.95,535.179 557.839,535.416 553.729,536.55 543.853,539.243 540.593,539.81 530.765,541.464 527.741,538.44 517.488,528.328 511.156,524.265 508.699,522.705 505.25,517.083 502.037,511.79 499.344,510.562 496.225,509.145 495.139,507.302 494.146,504.892 492.729,503.002 490.981,500.64 490.981,497.332 L491.311,494.497 Q493.485,488.638 497.407,483.393 499.155,481.078 504.541,475.125 507.14,472.242 512.243,471.061 518.244,469.596 520.607,468.037 523.819,465.911 530.246,465.674 537.664,465.438 539.554,464.73 542.058,463.832 550.705,464.966 559.777,466.194 563.651,465.202 568.046,464.115 574.755,468.698 582.929,474.274 584.441,474.652 M509.266,336.635 Q500.355,332.178 497.123,330.681 L497.548,331.768 Q497.832,333.753 496.982,338.052 495.847,343.959 491.926,346.935 487.106,350.668 477.609,350.337 468.584,350.006 464.285,344.148 461.638,340.415 460.457,333.233 449.218,337.588 446.424,341.36 449.218,337.588 460.457,333.233 460.62,333.203 460.788,333.138 467.261,330.729 474.916,328.697 481.531,326.948 484.224,326.712 487.579,326.429 496.225,330.256 496.603,330.424 497.123,330.681 500.355,332.178 509.266,336.635 M504.73,354.637 Q507.376,351.188 507.376,347.502 507.376,351.188 504.73,354.637 502.273,357.803 498.871,359.315 502.273,357.803 504.73,354.637 M451.432,359.268 Q455.874,362.953 460.599,364.04 455.874,362.953 451.432,359.268 446.802,355.393 444.061,349.865 446.802,355.393 451.432,359.268 M460.126,372.545 Q465.04,376.845 467.119,377.695 472.506,379.869 480.444,376.797 472.506,379.869 467.119,377.695 465.04,376.845 460.126,372.545 M647.237,158.408 Q642.417,156.99 640.291,155.62 637.361,153.825 636.889,150.895 635.991,145.603 644.165,140.642 648.229,138.138 652.481,136.72 648.371,136.248 642.937,136.484 632.069,136.956 625.549,140.5 622.052,142.437 619.075,141.965 617.091,141.681 614.161,139.933 610.712,137.854 609.153,137.334 605.987,136.248 602.396,137.193 596.396,138.752 584.961,133.365 578.252,130.2 577.354,129.822 573.715,128.404 572.156,129.16 568.991,130.767 549.098,129.869 531.521,129.066 522.496,127.743 516.543,126.845 507.613,119.427 L499.816,112.15 500.478,115.41 Q501.187,119.238 501.281,122.262 501.659,131.806 496.036,129.16 490.414,126.514 478.507,126.136 L467.686,126.325 475.435,133.413 Q482.145,140.264 477.136,139.083 472.128,137.901 461.591,142.154 L452.094,146.643 454.267,146.784 Q456.772,147.068 458.425,147.777 463.718,149.997 458.709,155.62 448.078,167.527 442.691,174.426 431.162,189.215 421.381,206.697 413.444,220.872 410.797,254.184 409.144,275.304 409.805,299.638 409.9,304.174 410.041,306.867 418.074,279.462 419.964,269.54 421.523,261.46 423.271,256.924 425.398,251.396 429.414,246.387 435.084,239.3 453.511,215.202 456.677,211.139 464.19,203.721 468.395,199.61 476.664,191.53 481.483,186.663 486.964,184.254 490.272,182.789 497.927,180.19 500.903,179.056 502.179,179.623 503.218,180.048 503.785,181.986 504.116,183.072 504.92,185.907 505.912,188.459 507.849,190.113 509.408,191.436 517.252,200.697 523.3,207.879 527.741,209.532 531.569,210.95 546.263,217.14 560.108,222.573 565.069,222.29 570.361,221.959 577.637,213.36 583.213,206.839 586.331,200.555 588.552,196.113 593.135,192.759 597.955,189.168 602.396,189.168 605.94,189.168 610.665,193.609 617.8,200.319 620.351,201.972 626.305,205.847 639.676,216.998 652.906,228.007 657.206,232.685 661.034,236.843 671.854,263.775 681.587,288.015 685.084,299.78 688.864,312.537 697.841,345.612 698.692,342.777 699.495,338.95 701.149,331.248 701.149,326.24 701.149,322.129 705.118,310.222 707.197,304.032 708.094,300.394 708.803,297.275 708.709,296 708.473,293.401 707.197,285.51 705.685,276.533 704.929,270.012 702.236,246.813 701.858,243.033 699.92,224.227 700.204,218.51 700.535,212.084 686.312,191.672 672.61,171.969 664.294,165.543 659.9,162.141 647.237,158.408Z" test="JeanRenoFace" vector-effect="non-scaling-stroke" stroke-width="1"/>
        <path id="Layer3_0_1_STROKES" stroke="#FFF" stroke-width="1.89" stroke-linejoin="round" stroke-linecap="round" fill="none" d="M410.041,306.867 Q409.9,304.174 409.805,299.638 409.144,275.304 410.797,254.184 413.444,220.872 421.381,206.697 431.162,189.215 442.691,174.426 448.078,167.527 458.709,155.62 463.718,149.997 458.425,147.777 456.772,147.068 454.267,146.784 L452.094,146.643 461.591,142.154 Q472.128,137.901 477.136,139.083 482.145,140.264 475.435,133.413 L467.686,126.325 478.507,126.136 Q490.414,126.514 496.036,129.16 501.659,131.806 501.281,122.262 501.187,119.238 500.478,115.41 L499.816,112.15 507.613,119.427 Q516.543,126.845 522.496,127.743 531.521,129.066 549.098,129.869 568.991,130.767 572.156,129.16 573.715,128.404 577.354,129.822 578.252,130.2 584.961,133.365 596.396,138.752 602.396,137.193 605.987,136.248 609.153,137.334 610.712,137.854 614.161,139.933 617.091,141.681 619.075,141.965 622.052,142.437 625.549,140.5 632.069,136.956 642.937,136.484 648.371,136.248 652.481,136.72 648.229,138.138 644.165,140.642 635.991,145.603 636.889,150.895 637.361,153.825 640.291,155.62 642.417,156.99 647.237,158.408 659.9,162.141 664.294,165.543 672.61,171.969 686.312,191.672 700.535,212.084 700.204,218.51 699.92,224.227 701.858,243.033 702.236,246.813 704.929,270.012 705.685,276.533 707.197,285.51 708.473,293.401 708.709,296 708.803,297.275 708.094,300.394 714.899,296.047 718.726,298.079 720.805,299.166 725.294,305.922 728.601,310.884 727.656,317.168 726.853,322.413 722.931,329.075 717.214,338.808 714.899,344.148 710.268,354.637 709.654,364.512 709.134,373.206 711.307,384.546 713.245,394.705 712.961,395.745 711.78,399.808 709.181,402.737 705.259,407.085 699.731,406.14 694.439,405.242 692.786,403.257 L692.171,401.415 689.242,407.982 Q685.226,417.29 679.886,431.182 678.8,433.97 676.626,442.097 674.027,449.704 669.113,453.815 666.278,456.225 662.404,466.525 658.576,476.778 654.229,480.227 648.181,485.094 644.26,491.284 640.243,497.71 637.692,506.829 636.464,511.223 627.864,519.067 619.454,526.769 618.603,530.738 617.658,535.132 614.398,538.251 612.555,539 609.011,543.165 602.065,551.622 596.065,555.828 590.442,559.702 581.795,562.443 576.172,564.238 566.156,564.38 555.713,564.522 550.894,565.845 544.657,567.546 532.655,565.278 517.96,562.537 517.771,562.537 508.369,562.348 502.132,559.041 496.367,555.922 489.422,547.89 485.594,543.448 478.838,539.904 470.994,535.746 466.836,532.014 465.135,530.502 459.465,523.225 453.701,515.854 452.094,514.342 446.141,508.908 444.109,506.971 440.943,503.994 439.384,501.537 436.501,497.049 432.249,480.322 430.217,472.431 424.169,459.863 417.838,446.775 417.602,446.066 414.719,436.474 412.782,428.205 410.987,420.315 410.514,415.59 409.852,409.4 409.616,392.248 409.615,392.13 409.616,392.012 409.382,371.356 409.711,337.155 L410.041,306.867 Q418.074,279.462 419.964,269.54 421.523,261.46 423.271,256.924 425.398,251.396 429.414,246.387 435.084,239.3 453.511,215.202 456.677,211.139 464.19,203.721 468.395,199.61 476.664,191.53 481.483,186.663 486.964,184.254 490.272,182.789 497.927,180.19 500.903,179.056 502.179,179.623 503.218,180.048 503.785,181.986 504.116,183.072 504.92,185.907 505.912,188.459 507.849,190.113 509.408,191.436 517.252,200.697 523.3,207.879 527.741,209.532 531.569,210.95 546.263,217.14 560.108,222.573 565.069,222.29 570.361,221.959 577.637,213.36 583.213,206.839 586.331,200.555 588.552,196.113 593.135,192.759 597.955,189.168 602.396,189.168 605.94,189.168 610.665,193.609 617.8,200.319 620.351,201.972 626.305,205.847 639.676,216.998 652.906,228.007 657.206,232.685 661.034,236.843 671.854,263.775 681.587,288.015 685.084,299.78 688.864,312.537 697.841,345.612 698.692,342.777 699.495,338.95 701.149,331.248 701.149,326.24 701.149,322.129 705.118,310.222 707.197,304.032 708.094,300.394 M576.409,328.13 Q582.315,324.444 595.262,319.341 608.633,314.049 615.154,313.01 619.642,312.301 633.298,310.08 645.441,308.568 649.646,310.647 653.615,312.632 657.679,318.633 662.829,326.193 662.876,326.24 M603.341,334.934 Q604.428,352.936 617.044,354.59 624.84,355.629 629.849,354.07 634.384,352.653 637.361,348.92 639.724,345.99 641.283,340.698 L642.37,335.973 Q634.195,330.484 629.801,330.02 619.69,328.98 603.483,334.886 603.412,334.912 603.341,334.934 598.167,336.856 592.946,339.281 L588.694,341.36 M642.37,335.973 Q643.335,336.623 644.354,337.344 654.135,344.289 656.734,344.667 M638.306,360.732 Q642.842,360.26 646.386,358.795 651.064,356.81 652.009,353.645 M409.616,392.012 Q413.207,395.272 415.711,400.375 417.271,403.446 420.436,410.865 421.854,413.889 422.704,420.693 423.319,426.126 427.051,431.182 430.312,435.624 434.422,438.884 438.108,441.766 440.754,445.83 441.746,447.342 446.566,458.02 449.401,464.352 453.039,465.202 454.078,465.438 462.253,469.218 467.828,471.817 471.467,470.4 473.357,469.644 475.766,469.738 477.136,469.785 479.924,469.974 485.311,470.116 490.839,465.674 495.658,461.8 505.25,458.398 513.566,455.468 515.409,452.917 516.685,451.169 518.291,451.121 519.378,451.121 521.504,452.019 526.702,454.287 530.104,452.917 533.647,451.5 542.105,448.003 549.713,445.404 555.146,446.302 558.926,446.916 568.613,450.933 577.496,454.571 582.079,454.807 586.001,455.043 592.852,460.619 598.853,465.533 602.869,464.257 605.326,463.501 607.877,464.21 608.917,464.493 612.083,466.053 617.233,468.462 621.296,465.674 623.706,464.021 627.061,463.17 628.998,462.698 632.684,462.036 639.157,460.524 641.614,454.807 644.78,447.436 647.473,442.9 650.072,438.458 654.371,433.072 655.978,431.04 663.821,424.284 669.349,419.511 670.436,415.117 671.523,410.817 675.114,406.281 679.65,400.47 680.831,398.107 682.485,394.799 684.375,390.311 686.029,387.334 689.336,386.72 692.833,386.106 693.353,387.996 693.589,388.799 693.116,393.855 692.833,397.115 691.274,399.572 L689.809,401.415 M628.384,336.635 L632.164,337.58 M603.341,376.325 Q607.546,379.491 614.02,380.152 620.446,380.814 625.076,378.687 M591.056,349.865 Q594.458,357.567 601.451,360.732 M562.706,421.401 Q564.313,426.032 567.431,425.512 L572.582,423.669 Q577.873,421.448 578.771,419.37 579.669,417.29 579.763,413.652 L579.716,410.392 M562.706,421.401 Q562.659,418.85 561.998,415.164 L561.289,411.809 562.045,419.039 Q562.328,420.362 562.706,421.401 562.706,421.59 562.706,421.732 562.706,425.087 560.486,428.725 558.029,432.647 553.256,436.38 548.012,440.49 541.444,440.16 534.262,439.781 526.796,434.017 520.465,429.15 517.866,419.133 515.881,411.621 516.354,403.304 516.637,398.107 521.221,383.318 526.088,368.292 526.796,365.457 527.741,361.914 527.836,350.006 527.741,337.58 527.741,335.217 527.741,330.303 525.615,325.059 522.78,318.207 517.771,316.317 514.7,315.183 508.132,314.427 502.037,313.719 496.036,311.12 487.72,307.482 475.199,305.355 462.394,303.135 456.819,304.505 451.385,305.875 444.77,310.222 438.628,314.333 434.139,319.152 M505.959,490.717 Q510.117,488.071 515.693,486.465 521.741,484.716 526.796,485.047 529.537,485.236 535.727,487.457 540.924,489.347 545.696,488.827 549.476,488.402 556.564,485.898 562.848,483.63 567.431,483.63 573.29,483.63 578.44,485.992 582.599,487.929 585.859,491.189 M491.311,494.497 Q493.485,488.638 497.407,483.393 499.155,481.078 504.541,475.125 507.14,472.242 512.243,471.061 518.244,469.596 520.607,468.037 523.819,465.911 530.246,465.674 537.664,465.438 539.554,464.73 542.058,463.832 550.705,464.966 559.777,466.194 563.651,465.202 568.046,464.115 574.755,468.698 582.929,474.274 584.441,474.652 587.418,475.408 592.993,479.755 599.041,484.433 601.924,485.52 605.373,486.843 605.373,494.213 605.373,499.033 605.373,499.411 605.562,501.915 606.649,502.53 609.956,504.42 610.901,506.735 612.177,509.759 608.066,511.98 607.358,512.357 595.12,517.933 586.237,521.996 583.969,524.265 582.835,525.399 581.795,527.761 L580.094,531.73 Q577.732,536.171 572.629,535.605 566.486,534.943 561.95,535.179 557.839,535.416 553.729,536.55 543.853,539.243 540.593,539.81 530.765,541.464 527.741,538.44 517.488,528.328 511.156,524.265 508.699,522.705 505.25,517.083 502.037,511.79 499.344,510.562 496.225,509.145 495.139,507.302 494.146,504.892 492.729,503.002 490.981,500.64 490.981,497.332 L491.311,494.497Z M409.097,299.307 Q403.899,292.362 395.772,292.031 387.739,291.747 385.944,297.89 384.715,302.095 390.953,315.656 397.756,330.351 397.756,335.217 397.756,340.415 397.993,358.653 397.993,375.427 396.811,381.05 395.536,387.192 397.804,389.319 399.599,390.972 403.426,390.075 M509.266,336.635 Q500.355,332.178 497.147,330.681 L497.548,331.768 Q497.832,333.753 496.982,338.052 495.847,343.959 491.926,346.935 487.106,350.668 477.609,350.337 468.584,350.006 464.285,344.148 461.638,340.415 460.457,333.256 449.218,337.588 446.424,341.36 M497.147,330.681 Q496.603,330.424 496.225,330.256 487.579,326.429 484.224,326.712 481.531,326.948 474.916,328.697 467.261,330.729 460.788,333.138 460.62,333.203 460.457,333.256 M485.169,332.855 L487.531,333.327 M498.871,359.315 Q502.273,357.803 504.73,354.637 507.376,351.188 507.376,347.502 M444.061,349.865 Q446.802,355.393 451.432,359.268 455.874,362.953 460.599,364.04 M460.126,372.545 Q465.04,376.845 467.119,377.695 472.506,379.869 480.444,376.797 M540.026,474.652 Q548.531,476.07 552.784,476.07 M540.499,496.86 Q544.137,496.387 545.176,496.434 547.397,496.529 550.894,497.804" test="JeanRenoFace"/>
      </g>
      <g id="TearAnimf5r1">
        <use xlink:href="#TearGraphic" transform="matrix(.914 0 0 .914 482.45 350.15)"/>
      </g>
      <g id="TearAnimf20r1">
        <use xlink:href="#TearGraphic" transform="matrix(.914 0 0 .914 482.45 431.25)"/>
      </g>
    </g>
    <g id="BlackMaskRect">
      <path fill="#000" stroke="none" d="M823.45,613.6 L823.45,508.3 -23.6,508.3 -23.6,613.6 823.45,613.6Z" test="BlackMaskRect"/>
    </g>
  </g>
</svg>