<?xml version="1.0" encoding="utf-8"?>
<svg id="EdithAnim06" image-rendering="inherit" baseProfile="basic" version="1.1" x="0px" y="0px" width="800" height="600" xmlns="http://www.w3.org/2000/svg" xmlns:xlink="http://www.w3.org/1999/xlink">
  <defs>
    <g id="TearGraphic" overflow="visible">
      <path id="Layer4_0_1_STROKES" stroke="#0FF" stroke-width="1" stroke-linejoin="round" stroke-linecap="round" fill="none" d="M-1.15 1.6Q-1.25 5.75 -2.25 8.6 -3.4 11.65 -6.8 16.5 -10.25 21.45 -8.25 27.95 -6.25 34.6 -.7 34.8 4.75 35 7.25 30.15 9.3 26.2 8.9 20.65 8.7 17.9 4.8 12.25 .55 6.05 -.7 0" test="TearGraphic"/>
    </g>
  </defs>
  <g id="Jean-Renof168r1" overflow="visible">
    <g id="Jean-Reno-body">
      <path id="Layer2_0_1_STROKES" stroke="#FEB7AE" stroke-width="1.89" stroke-linejoin="round" stroke-linecap="round" fill="none" d="M689.895,408.067 Q696.037,414.209 734.357,420.352 760.108,424.51 787.277,426.967 794.553,427.629 837.126,436.323 873.461,443.694 879.887,442.087 889.668,439.63 897.133,436.653 906.63,432.826 915.797,426.967 924.916,421.108 937.107,419.313 947.313,417.753 955.534,419.407 961.44,420.588 967.11,422.478 969.945,423.423 971.599,424.132 969.945,424.604 968.055,425.597 964.37,427.629 963.472,430.416 962.574,433.204 965.646,436.039 967.205,437.409 968.906,438.26 967.016,439.016 965.315,440.386 961.866,443.126 962.763,446.056 963.661,449.033 969.331,450.309 972.166,450.97 974.812,451.017 L975.852,457.065 Q977.316,463.397 979.537,464.72 981.758,466.043 987.144,463.491 989.838,462.263 992.058,460.703 L993.854,464.72 Q996.311,468.641 999.854,468.027 1003.398,467.46 1006.375,464.389 1007.84,462.83 1008.596,461.412 L1012.045,462.83 Q1015.731,464.011 1016.912,462.83 1018.093,461.648 1019.038,458.341 L1019.747,455.27 1022.015,468.216 Q1024.094,482.013 1023.054,485.982 1022.96,486.313 1021.968,491.18 1021.259,494.629 1020.361,496.897 1017.715,503.654 1010.958,507.245 M943.155,461.885 Q951.376,459.9 962.622,461.838 979.017,464.625 987.57,475.587 990.877,479.84 997.776,488.581 1003.682,496.283 1006.989,502.472 1015.92,519.199 1012.376,536.304 1008.879,553.124 999.524,568.575 995.224,575.663 986.861,585.916 984.498,588.798 975.71,595.697 965.268,603.871 952.557,612.093 917.073,635.103 884.801,645.026 L869.067,649.869 Q871.706,653.17 873.839,663.831 876.012,674.699 875.115,680.7 874.359,685.803 877.052,689.204 877.761,690.15 881.257,692.748 884.045,694.827 888.25,701.442 893.684,709.947 892.597,714.956 891.463,720.39 886.549,725.634 882.108,730.312 878.186,731.493 875.256,732.391 869.681,732.486 L864.72,732.438 871.146,733.761 Q878.375,736.076 882.675,740.943 888.25,747.275 890.518,751.716 893.164,756.819 891.652,759.843 890.613,761.969 887.825,768.396 884.376,774.349 877.95,777.326 871.949,780.113 858.861,777.042 852.293,775.294 849.505,774.585 844.78,773.404 842.985,773.546 840.622,773.735 822.053,778.46 803.247,783.279 796.68,783.941 789.781,784.65 781.512,781.153 777.638,779.358 776.079,778.743 773.527,777.656 772.346,777.798 768.566,777.987 766.629,778.224 763.274,778.696 760.77,780.633 757.935,782.807 754.06,781.862 750.375,780.964 749.43,778.507 748.343,775.719 748.437,774.065 748.579,771.75 750.847,770.002 752.926,768.396 756.234,767.829 757.887,767.592 759.116,767.64 758.218,766.6 757.604,765.23 756.375,762.489 757.698,761.025 759.163,759.418 762.99,758.615 766.203,757.953 768.802,758.19 769.936,758.284 767.385,756.488 764.219,754.268 765.258,753.228 766.487,752 769.653,752.094 771.117,752.142 774.708,752.756 775.937,752.945 777.921,754.362 779.339,755.402 780.378,754.882 783.686,753.228 788.127,751.149 794.931,747.983 797.625,747.086 801.877,745.668 806.13,744.723 M701.896,409.154 Q706.054,407.169 720.938,398.286 734.924,390.395 739.932,390.254 752.926,389.876 756.942,390.254 769.747,391.435 781.56,397.341 806.886,410.004 810.524,411.894 826.731,420.494 833.771,426.164 840.575,431.645 846.245,434.905 849.08,436.559 850.545,437.078 M679.216,473.177 Q679.216,469.114 680.208,464.105 682.24,454.041 687.249,449.316 697.785,439.394 711.346,441.52 716.544,442.323 726.702,448.56 736.058,454.278 738.515,457.349 740.452,459.758 745.272,460.656 748.957,461.365 753.871,461.129 756.517,461.034 770.456,460.042 783.875,459.286 787.702,460.184 794.034,461.648 808.681,466.61 825.455,472.327 828.573,474.831 830.936,476.721 838.968,483.714 846.481,489.951 849.363,491.132 852.671,492.456 853.191,493.353 853.521,493.968 852.907,496.141 852.671,496.992 853.191,503.276 853.71,510.127 852.907,515.513 851.915,522.176 846.812,539.611 841.992,556.054 839.441,562.291 837.362,567.441 830.794,578.876 824.793,589.318 822.667,592.059 821.202,593.996 817.895,597.917 L814.871,601.508 819.407,602.265 Q824.51,603.257 827.156,604.58 829.282,605.666 833.913,607.84 837.787,610.108 839.913,613.557 842.701,618.093 843.363,620.361 844.213,623.338 843.221,626.787 842.229,630.189 839.866,633.828 837.929,636.804 835.661,639.072 832.59,642.143 830.7,643.656 827.345,646.349 825.03,646.632 821.958,647.058 820.541,646.916 818.367,646.68 814.635,645.215 811.611,644.034 809.484,641.576 806.508,638.175 804.476,636.71 801.641,634.631 800.176,631.701 798.333,627.921 796.443,625.842 793.325,622.393 791.293,621.165 789.828,620.314 786.993,619.7 784.725,619.227 784.347,619.322 782.977,619.936 780.615,620.881 776.362,623.055 774.756,623.669 772.157,624.614 770.692,622.535 768.377,619.322 767,618.235 767.243,616.109 768.33,613.085 769.653,609.494 770.172,608.785 770.976,607.793 774,606.47 778.536,604.438 784.631,606.47 785.292,606.706 784.631,603.257 782.93,593.996 782.883,593.76 780.237,577.033 782.741,563.709 785.056,551.565 791.199,532.996 796.16,518.018 795.735,516.458 795.215,514.521 781.371,515.088 765.967,515.75 763.605,514.805 760.959,513.765 746.122,509.749 732.278,505.969 731.427,505.355 M658.662,483.62 Q671.892,495.952 679.311,501.197 699.061,515.23 723.159,522.128 746.784,528.933 769.038,536.256 780.142,539.895 786.521,542.21 M815.532,739.526 Q814.54,735.368 796.632,703.049 778.394,670.068 777.024,665.816 774.283,657.216 772.157,647.058 769.558,634.678 770.645,631.985 771.732,629.386 774.708,626.693 776.646,624.897 778.914,623.48 M805.846,734.801 Q804.57,735.746 802.586,736.643 798.711,738.486 795.451,738.344 792.096,738.203 785.907,735.746 781.418,733.95 778.677,732.438 777.685,731.871 776.929,729.745 776.268,727.95 775.134,727.95 774,727.95 771.543,730.076 768.755,732.486 767.574,732.911 765.778,733.572 762.187,732.627 759.021,731.777 757.179,730.548 755.714,729.603 755.336,727.43 755.1,725.918 755.289,722.752 755.43,720.437 756.753,719.066 756.801,718.972 759.777,716.609 761.242,715.428 762.801,714.956 763.557,714.719 764.03,714.719 M772.299,715.192 Q772.11,714.389 772.346,713.349 772.724,711.27 774.661,710.231 776.598,709.191 779.906,709.522 781.749,709.711 784.82,710.231 786.19,710.373 788.742,711.507 791.151,712.593 791.907,712.593 M806.13,752.047 Q798.995,755.78 791.199,759.56 775.701,767.214 772.582,767.64 769.464,768.065 766.109,767.923 L763.368,767.64 M869.067,649.869 L869.019,649.892 Q850.545,655.563 850.119,655.563 850.025,655.563 854.372,671.769 858.624,689.819 857.868,698.418 L856.073,718.169 Q854.703,738.581 856.923,742.124" test="Jean Reno body"/>
    </g>
    <g id="Jean-Renof99r1">
      <g id="JeanRenoFace">
        <path fill="#000" stroke="none" d="M678.135,238.109 Q673.552,241.463 671.331,245.905 668.213,252.189 662.637,258.71 655.361,267.309 650.069,267.64 645.108,267.923 631.263,262.49 616.569,256.3 612.741,254.882 608.3,253.229 602.252,246.046 594.408,236.786 592.849,235.462 590.912,233.809 589.92,231.257 589.116,228.422 588.786,227.336 588.219,225.398 587.179,224.973 585.903,224.406 582.926,225.54 575.272,228.139 571.964,229.604 566.483,232.013 561.664,236.88 553.395,244.96 549.19,249.07 541.677,256.489 538.512,260.552 520.084,284.65 514.414,291.737 510.398,296.746 508.271,302.274 506.523,306.81 504.964,314.89 503.074,324.812 495.041,352.217 L494.711,382.505 Q494.382,416.706 494.616,437.362 498.207,440.622 500.711,445.725 502.271,448.796 505.436,456.215 506.854,459.239 507.704,466.042 508.319,471.476 512.051,476.532 515.312,480.974 519.422,484.234 523.108,487.116 525.754,491.18 526.746,492.691 531.566,503.37 534.401,509.701 538.039,510.552 539.079,510.788 547.253,514.568 552.828,517.167 556.467,515.75 558.357,514.994 560.766,515.088 562.137,515.135 564.924,515.324 570.311,515.466 575.839,511.025 580.659,507.15 590.25,503.748 598.566,500.819 600.409,498.267 601.685,496.519 603.291,496.472 604.378,496.472 606.504,497.369 611.702,499.637 615.104,498.267 618.647,496.85 627.105,493.353 634.713,490.754 640.146,491.652 643.926,492.266 653.613,496.282 662.496,499.921 667.079,500.157 671.001,500.393 677.852,505.969 683.853,510.883 687.869,509.607 690.326,508.851 692.877,509.56 693.917,509.843 697.083,511.403 702.233,513.812 706.296,511.025 708.706,509.371 712.061,508.52 713.998,508.048 717.684,507.386 724.157,505.874 726.614,500.157 729.78,492.786 732.473,488.25 735.072,483.809 739.371,478.422 740.978,476.39 748.821,469.633 754.349,464.861 755.436,460.467 756.523,456.167 760.114,451.631 764.65,445.82 765.831,443.457 767.485,440.15 769.375,435.661 771.029,432.684 774.336,432.07 777.833,431.456 778.353,433.345 778.589,434.149 778.116,439.205 777.833,442.465 776.274,444.922 L774.809,446.765 776.274,444.922 Q777.833,442.465 778.116,439.205 778.589,434.149 778.353,433.345 777.833,431.456 774.336,432.07 771.029,432.684 769.375,435.661 767.485,440.15 765.831,443.457 764.65,445.82 760.114,451.631 756.523,456.167 755.436,460.467 754.349,464.861 748.821,469.633 740.978,476.39 739.371,478.422 735.072,483.809 732.473,488.25 729.78,492.786 726.614,500.157 724.157,505.874 717.684,507.386 713.998,508.048 712.061,508.52 708.706,509.371 706.296,511.025 702.233,513.812 697.083,511.403 693.917,509.843 692.877,509.56 690.326,508.851 687.869,509.607 683.853,510.883 677.852,505.969 671.001,500.393 667.079,500.157 662.496,499.921 653.613,496.282 643.926,492.266 640.146,491.652 634.713,490.754 627.105,493.353 618.647,496.85 615.104,498.267 611.702,499.637 606.504,497.369 604.378,496.472 603.291,496.472 601.685,496.519 600.409,498.267 598.566,500.819 590.25,503.748 580.659,507.15 575.839,511.025 570.311,515.466 564.924,515.324 562.137,515.135 560.766,515.088 558.357,514.994 556.467,515.75 552.828,517.167 547.253,514.568 539.079,510.788 538.039,510.552 534.401,509.701 531.566,503.37 526.746,492.691 525.754,491.18 523.108,487.116 519.422,484.234 515.312,480.974 512.051,476.532 508.319,471.476 507.704,466.042 506.854,459.239 505.436,456.215 502.271,448.796 500.711,445.725 498.207,440.622 494.616,437.362 494.615,437.48 494.616,437.598 494.852,454.75 495.514,460.94 495.987,465.665 497.782,473.555 499.719,481.824 502.602,491.416 502.838,492.125 509.169,505.213 515.217,517.781 517.249,525.672 521.501,542.399 524.384,546.887 525.943,549.344 529.109,552.321 531.141,554.258 537.094,559.692 538.7,561.204 544.465,568.575 550.135,575.852 551.836,577.363 555.994,581.096 563.838,585.254 570.594,588.798 574.421,593.24 581.367,601.272 587.132,604.391 593.369,607.698 602.772,607.887 602.96,607.887 617.655,610.628 629.657,612.896 635.894,611.195 640.713,609.872 651.156,609.73 661.172,609.588 666.795,607.793 675.442,605.052 681.065,601.178 687.065,596.972 694.011,588.515 697.555,585.349 699.398,583.601 702.658,580.482 703.603,576.088 704.454,572.119 712.864,564.417 721.464,556.574 722.692,552.179 725.243,543.06 729.26,536.634 733.181,530.444 739.229,525.578 743.576,522.128 747.404,511.875 751.278,501.575 754.113,499.165 759.027,495.054 761.626,487.447 763.8,479.32 764.886,476.532 770.226,462.641 774.242,453.332 L777.171,446.765 777.786,448.607 Q779.439,450.592 784.731,451.49 790.259,452.435 794.181,448.088 796.78,445.158 797.961,441.095 798.245,440.055 796.307,429.896 794.134,418.556 794.654,409.862 795.268,399.987 799.899,389.497 802.214,384.158 807.931,374.425 811.853,367.763 812.656,362.518 813.601,356.234 810.294,351.272 805.805,344.516 803.726,343.429 799.899,341.397 793.094,345.744 792.197,349.382 790.118,355.572 786.149,367.479 786.149,371.59 786.149,376.598 784.495,384.3 783.692,388.127 782.841,390.962 773.864,357.887 770.084,345.13 766.587,333.365 756.854,309.125 746.034,282.193 742.206,278.035 737.906,273.357 724.676,262.348 711.305,251.197 705.351,247.322 702.8,245.669 695.665,238.959 690.94,234.517 687.396,234.517 682.955,234.517 678.135,238.109 M742.679,363.982 Q747.829,371.543 747.876,371.59 747.829,371.543 742.679,363.982 738.615,357.982 734.646,355.997 730.441,353.918 718.298,355.43 704.642,357.651 700.154,358.36 693.633,359.399 680.262,364.691 667.315,369.794 661.409,373.48 667.315,369.794 680.262,364.691 693.633,359.399 700.154,358.36 704.642,357.651 718.298,355.43 730.441,353.918 734.646,355.997 738.615,357.982 742.679,363.982 M727.37,381.323 L726.283,386.048 Q724.724,391.34 722.361,394.27 719.384,398.003 714.849,399.42 709.84,400.979 702.044,399.94 689.428,398.286 688.341,380.284 683.167,382.206 677.946,384.631 L673.694,386.71 677.946,384.631 Q683.167,382.206 688.341,380.284 688.412,380.262 688.483,380.237 704.69,374.33 714.801,375.37 719.195,375.834 727.37,381.323 728.335,381.973 729.354,382.694 739.135,389.639 741.734,390.017 739.135,389.639 729.354,382.694 728.335,381.973 727.37,381.323 M731.386,404.145 Q736.064,402.16 737.009,398.995 736.064,402.16 731.386,404.145 727.842,405.61 723.306,406.082 727.842,405.61 731.386,404.145 M699.02,425.502 Q705.446,426.164 710.076,424.037 705.446,426.164 699.02,425.502 692.546,424.84 688.341,421.675 692.546,424.84 699.02,425.502 M676.056,395.215 Q679.458,402.917 686.451,406.082 679.458,402.917 676.056,395.215 M664.763,459.002 L664.716,455.742 664.763,459.002 Q664.669,462.641 663.771,464.72 662.873,466.799 657.582,469.019 L652.431,470.862 Q649.313,471.382 647.706,466.751 647.706,466.94 647.706,467.082 647.706,470.437 645.486,474.075 643.029,477.997 638.256,481.73 633.012,485.84 626.444,485.51 619.262,485.131 611.796,479.367 605.465,474.5 602.866,464.483 600.882,456.97 601.354,448.655 601.637,443.457 606.221,428.668 611.088,413.642 611.796,410.807 612.741,407.264 612.836,395.357 612.741,382.93 612.741,380.567 612.741,375.653 610.615,370.409 607.78,363.557 602.772,361.667 599.7,360.533 593.132,359.777 587.037,359.069 581.036,356.47 572.72,352.832 560.199,350.705 547.395,348.485 541.819,349.855 536.385,351.225 529.77,355.572 523.628,359.683 519.139,364.502 523.628,359.683 529.77,355.572 536.385,351.225 541.819,349.855 547.395,348.485 560.199,350.705 572.72,352.832 581.036,356.47 587.037,359.069 593.132,359.777 599.7,360.533 602.772,361.667 607.78,363.557 610.615,370.409 612.741,375.653 612.741,380.567 612.741,382.93 612.836,395.357 612.741,407.264 611.796,410.807 611.088,413.642 606.221,428.668 601.637,443.457 601.354,448.655 600.882,456.97 602.866,464.483 605.465,474.5 611.796,479.367 619.262,485.131 626.444,485.51 633.012,485.84 638.256,481.73 643.029,477.997 645.486,474.075 647.706,470.437 647.706,467.082 647.706,466.94 647.706,466.751 647.328,465.712 647.045,464.389 L646.289,457.16 646.998,460.514 Q647.659,464.2 647.706,466.751 649.313,471.382 652.431,470.862 L657.582,469.019 Q662.873,466.799 663.771,464.72 664.669,462.641 664.763,459.002 M669.441,520.002 Q672.418,520.758 677.993,525.105 684.041,529.783 686.924,530.87 690.373,532.193 690.373,539.564 690.373,544.383 690.373,544.761 690.562,547.265 691.649,547.88 694.956,549.77 695.901,552.085 697.177,555.109 693.066,557.33 692.358,557.708 680.12,563.283 671.237,567.347 668.969,569.615 667.835,570.748 666.795,573.111 L665.094,577.08 Q662.732,581.522 657.629,580.955 651.486,580.293 646.95,580.529 642.839,580.766 638.729,581.9 628.853,584.593 625.593,585.16 615.765,586.814 612.741,583.79 602.488,573.678 596.156,569.615 593.7,568.055 590.25,562.433 587.037,557.141 584.344,555.912 581.226,554.495 580.139,552.652 579.147,550.242 577.729,548.352 575.981,545.99 575.981,542.682 L576.312,539.847 Q578.485,533.988 582.407,528.743 584.155,526.428 589.541,520.475 592.14,517.592 597.243,516.411 603.244,514.946 605.607,513.387 608.82,511.261 615.246,511.025 622.664,510.788 624.554,510.08 627.058,509.182 635.705,510.316 644.777,511.544 648.651,510.552 653.046,509.465 659.755,514.049 667.929,519.624 669.441,520.002 M594.267,381.985 Q585.355,377.528 582.123,376.031 L582.549,377.118 Q582.832,379.102 581.982,383.402 580.848,389.309 576.926,392.285 572.106,396.018 562.609,395.687 553.584,395.357 549.285,389.497 546.638,385.765 545.457,378.583 534.218,382.938 531.424,386.71 534.218,382.938 545.457,378.583 545.62,378.553 545.788,378.488 552.261,376.078 559.916,374.047 566.531,372.299 569.224,372.062 572.579,371.779 581.226,375.606 581.603,375.774 582.123,376.031 585.355,377.528 594.267,381.985 M589.731,399.987 Q592.377,396.538 592.377,392.852 592.377,396.538 589.731,399.987 587.274,403.153 583.872,404.665 587.274,403.153 589.731,399.987 M536.433,404.617 Q540.874,408.303 545.599,409.39 540.874,408.303 536.433,404.617 531.802,400.743 529.062,395.215 531.802,400.743 536.433,404.617 M545.127,417.895 Q550.041,422.195 552.12,423.045 557.506,425.219 565.444,422.147 557.506,425.219 552.12,423.045 550.041,422.195 545.127,417.895 M732.237,203.758 Q727.417,202.34 725.291,200.97 722.361,199.175 721.889,196.245 720.991,190.953 729.165,185.992 733.229,183.488 737.481,182.07 733.371,181.598 727.937,181.834 717.069,182.306 710.549,185.85 707.052,187.787 704.075,187.315 702.091,187.031 699.161,185.283 695.712,183.204 694.153,182.684 690.987,181.598 687.396,182.543 681.396,184.102 669.961,178.715 663.252,175.55 662.354,175.172 658.715,173.754 657.156,174.51 653.991,176.117 634.098,175.219 616.521,174.416 607.497,173.093 601.543,172.195 592.613,164.777 L584.816,157.5 585.478,160.76 Q586.187,164.588 586.281,167.612 586.659,177.156 581.036,174.51 575.414,171.864 563.507,171.486 L552.687,171.675 560.435,178.763 Q567.145,185.614 562.137,184.433 557.128,183.251 546.591,187.504 L537.094,191.993 539.267,192.134 Q541.772,192.418 543.426,193.127 548.718,195.347 543.709,200.97 533.078,212.877 527.691,219.776 516.162,234.565 506.381,252.047 498.444,266.222 495.797,299.534 494.144,320.654 494.805,344.988 494.9,349.524 495.041,352.217 503.074,324.812 504.964,314.89 506.523,306.81 508.271,302.274 510.398,296.746 514.414,291.737 520.084,284.65 538.512,260.552 541.677,256.489 549.19,249.07 553.395,244.96 561.664,236.88 566.483,232.013 571.964,229.604 575.272,228.139 582.926,225.54 585.903,224.406 587.179,224.973 588.219,225.398 588.786,227.336 589.116,228.422 589.92,231.257 590.912,233.809 592.849,235.462 594.408,236.786 602.252,246.046 608.3,253.229 612.741,254.882 616.569,256.3 631.263,262.49 645.108,267.923 650.069,267.64 655.361,267.309 662.637,258.71 668.213,252.189 671.331,245.905 673.552,241.463 678.135,238.109 682.955,234.517 687.396,234.517 690.94,234.517 695.665,238.959 702.8,245.669 705.351,247.322 711.305,251.197 724.676,262.348 737.906,273.357 742.206,278.035 746.034,282.193 756.854,309.125 766.587,333.365 770.084,345.13 773.864,357.887 782.841,390.962 783.692,388.127 784.495,384.3 786.149,376.598 786.149,371.59 786.149,367.479 790.118,355.572 792.197,349.382 793.094,345.744 793.803,342.626 793.709,341.35 793.473,338.751 792.197,330.86 790.685,321.883 789.929,315.362 787.236,292.163 786.858,288.383 784.92,269.577 785.204,263.86 785.535,257.434 771.312,237.022 757.61,217.319 749.294,210.892 744.9,207.491 732.237,203.758Z" test="JeanRenoFace" vector-effect="non-scaling-stroke" stroke-width="1"/>
        <path id="Layer3_0_1_STROKES" stroke="#FFF" stroke-width="1.89" stroke-linejoin="round" stroke-linecap="round" fill="none" d="M495.041,352.217 Q494.9,349.524 494.805,344.988 494.144,320.654 495.797,299.534 498.444,266.222 506.381,252.047 516.162,234.565 527.691,219.776 533.078,212.877 543.709,200.97 548.718,195.347 543.426,193.127 541.772,192.418 539.267,192.134 L537.094,191.993 546.591,187.504 Q557.128,183.251 562.137,184.433 567.145,185.614 560.435,178.763 L552.687,171.675 563.507,171.486 Q575.414,171.864 581.036,174.51 586.659,177.156 586.281,167.612 586.187,164.588 585.478,160.76 L584.816,157.5 592.613,164.777 Q601.543,172.195 607.497,173.093 616.521,174.416 634.098,175.219 653.991,176.117 657.156,174.51 658.715,173.754 662.354,175.172 663.252,175.55 669.961,178.715 681.396,184.102 687.396,182.543 690.987,181.598 694.153,182.684 695.712,183.204 699.161,185.283 702.091,187.031 704.075,187.315 707.052,187.787 710.549,185.85 717.069,182.306 727.937,181.834 733.371,181.598 737.481,182.07 733.229,183.488 729.165,185.992 720.991,190.953 721.889,196.245 722.361,199.175 725.291,200.97 727.417,202.34 732.237,203.758 744.9,207.491 749.294,210.892 757.61,217.319 771.312,237.022 785.535,257.434 785.204,263.86 784.92,269.577 786.858,288.383 787.236,292.163 789.929,315.362 790.685,321.883 792.197,330.86 793.473,338.751 793.709,341.35 793.803,342.626 793.094,345.744 799.899,341.397 803.726,343.429 805.805,344.516 810.294,351.272 813.601,356.234 812.656,362.518 811.853,367.763 807.931,374.425 802.214,384.158 799.899,389.497 795.268,399.987 794.654,409.862 794.134,418.556 796.307,429.896 798.245,440.055 797.961,441.095 796.78,445.158 794.181,448.088 790.259,452.435 784.731,451.49 779.439,450.592 777.786,448.607 L777.171,446.765 774.242,453.332 Q770.226,462.641 764.886,476.532 763.8,479.32 761.626,487.447 759.027,495.054 754.113,499.165 751.278,501.575 747.404,511.875 743.576,522.128 739.229,525.578 733.181,530.444 729.26,536.634 725.243,543.06 722.692,552.179 721.464,556.574 712.864,564.417 704.454,572.119 703.603,576.088 702.658,580.482 699.398,583.601 697.555,585.349 694.011,588.515 687.065,596.972 681.065,601.178 675.442,605.052 666.795,607.793 661.172,609.588 651.156,609.73 640.713,609.872 635.894,611.195 629.657,612.896 617.655,610.628 602.96,607.887 602.772,607.887 593.369,607.698 587.132,604.391 581.367,601.272 574.421,593.24 570.594,588.798 563.838,585.254 555.994,581.096 551.836,577.363 550.135,575.852 544.465,568.575 538.7,561.204 537.094,559.692 531.141,554.258 529.109,552.321 525.943,549.344 524.384,546.887 521.501,542.399 517.249,525.672 515.217,517.781 509.169,505.213 502.838,492.125 502.602,491.416 499.719,481.824 497.782,473.555 495.987,465.665 495.514,460.94 494.852,454.75 494.616,437.598 494.615,437.48 494.616,437.362 494.382,416.706 494.711,382.505 L495.041,352.217 Q503.074,324.812 504.964,314.89 506.523,306.81 508.271,302.274 510.398,296.746 514.414,291.737 520.084,284.65 538.512,260.552 541.677,256.489 549.19,249.07 553.395,244.96 561.664,236.88 566.483,232.013 571.964,229.604 575.272,228.139 582.926,225.54 585.903,224.406 587.179,224.973 588.219,225.398 588.786,227.336 589.116,228.422 589.92,231.257 590.912,233.809 592.849,235.462 594.408,236.786 602.252,246.046 608.3,253.229 612.741,254.882 616.569,256.3 631.263,262.49 645.108,267.923 650.069,267.64 655.361,267.309 662.637,258.71 668.213,252.189 671.331,245.905 673.552,241.463 678.135,238.109 682.955,234.517 687.396,234.517 690.94,234.517 695.665,238.959 702.8,245.669 705.351,247.322 711.305,251.197 724.676,262.348 737.906,273.357 742.206,278.035 746.034,282.193 756.854,309.125 766.587,333.365 770.084,345.13 773.864,357.887 782.841,390.962 783.692,388.127 784.495,384.3 786.149,376.598 786.149,371.59 786.149,367.479 790.118,355.572 792.197,349.382 793.094,345.744 M661.409,373.48 Q667.315,369.794 680.262,364.691 693.633,359.399 700.154,358.36 704.642,357.651 718.298,355.43 730.441,353.918 734.646,355.997 738.615,357.982 742.679,363.982 747.829,371.543 747.876,371.59 M688.341,380.284 Q689.428,398.286 702.044,399.94 709.84,400.979 714.849,399.42 719.384,398.003 722.361,394.27 724.724,391.34 726.283,386.048 L727.37,381.323 Q719.195,375.834 714.801,375.37 704.69,374.33 688.483,380.237 688.412,380.262 688.341,380.284 683.167,382.206 677.946,384.631 L673.694,386.71 M727.37,381.323 Q728.335,381.973 729.354,382.694 739.135,389.639 741.734,390.017 M723.306,406.082 Q727.842,405.61 731.386,404.145 736.064,402.16 737.009,398.995 M494.616,437.362 Q498.207,440.622 500.711,445.725 502.271,448.796 505.436,456.215 506.854,459.239 507.704,466.042 508.319,471.476 512.051,476.532 515.312,480.974 519.422,484.234 523.108,487.116 525.754,491.18 526.746,492.691 531.566,503.37 534.401,509.701 538.039,510.552 539.079,510.788 547.253,514.568 552.828,517.167 556.467,515.75 558.357,514.994 560.766,515.088 562.137,515.135 564.924,515.324 570.311,515.466 575.839,511.025 580.659,507.15 590.25,503.748 598.566,500.819 600.409,498.267 601.685,496.519 603.291,496.472 604.378,496.472 606.504,497.369 611.702,499.637 615.104,498.267 618.647,496.85 627.105,493.353 634.713,490.754 640.146,491.652 643.926,492.266 653.613,496.282 662.496,499.921 667.079,500.157 671.001,500.393 677.852,505.969 683.853,510.883 687.869,509.607 690.326,508.851 692.877,509.56 693.917,509.843 697.083,511.403 702.233,513.812 706.296,511.025 708.706,509.371 712.061,508.52 713.998,508.048 717.684,507.386 724.157,505.874 726.614,500.157 729.78,492.786 732.473,488.25 735.072,483.809 739.371,478.422 740.978,476.39 748.821,469.633 754.349,464.861 755.436,460.467 756.523,456.167 760.114,451.631 764.65,445.82 765.831,443.457 767.485,440.15 769.375,435.661 771.029,432.684 774.336,432.07 777.833,431.456 778.353,433.345 778.589,434.149 778.116,439.205 777.833,442.465 776.274,444.922 L774.809,446.765 M713.384,381.985 L717.164,382.93 M688.341,421.675 Q692.546,424.84 699.02,425.502 705.446,426.164 710.076,424.037 M676.056,395.215 Q679.458,402.917 686.451,406.082 M647.706,466.751 Q649.313,471.382 652.431,470.862 L657.582,469.019 Q662.873,466.799 663.771,464.72 664.669,462.641 664.763,459.002 L664.716,455.742 M647.706,466.751 Q647.659,464.2 646.998,460.514 L646.289,457.16 647.045,464.389 Q647.328,465.712 647.706,466.751 647.706,466.94 647.706,467.082 647.706,470.437 645.486,474.075 643.029,477.997 638.256,481.73 633.012,485.84 626.444,485.51 619.262,485.131 611.796,479.367 605.465,474.5 602.866,464.483 600.882,456.97 601.354,448.655 601.637,443.457 606.221,428.668 611.088,413.642 611.796,410.807 612.741,407.264 612.836,395.357 612.741,382.93 612.741,380.567 612.741,375.653 610.615,370.409 607.78,363.557 602.772,361.667 599.7,360.533 593.132,359.777 587.037,359.069 581.036,356.47 572.72,352.832 560.199,350.705 547.395,348.485 541.819,349.855 536.385,351.225 529.77,355.572 523.628,359.683 519.139,364.502 M590.959,536.067 Q595.117,533.421 600.693,531.815 606.741,530.066 611.796,530.397 614.537,530.586 620.727,532.807 625.924,534.697 630.696,534.177 634.476,533.752 641.564,531.248 647.848,528.98 652.431,528.98 658.29,528.98 663.44,531.342 667.599,533.279 670.859,536.54 M576.312,539.847 Q578.485,533.988 582.407,528.743 584.155,526.428 589.541,520.475 592.14,517.592 597.243,516.411 603.244,514.946 605.607,513.387 608.82,511.261 615.246,511.025 622.664,510.788 624.554,510.08 627.058,509.182 635.705,510.316 644.777,511.544 648.651,510.552 653.046,509.465 659.755,514.049 667.929,519.624 669.441,520.002 672.418,520.758 677.993,525.105 684.041,529.783 686.924,530.87 690.373,532.193 690.373,539.564 690.373,544.383 690.373,544.761 690.562,547.265 691.649,547.88 694.956,549.77 695.901,552.085 697.177,555.109 693.066,557.33 692.358,557.708 680.12,563.283 671.237,567.347 668.969,569.615 667.835,570.748 666.795,573.111 L665.094,577.08 Q662.732,581.522 657.629,580.955 651.486,580.293 646.95,580.529 642.839,580.766 638.729,581.9 628.853,584.593 625.593,585.16 615.765,586.814 612.741,583.79 602.488,573.678 596.156,569.615 593.7,568.055 590.25,562.433 587.037,557.141 584.344,555.912 581.226,554.495 580.139,552.652 579.147,550.242 577.729,548.352 575.981,545.99 575.981,542.682 L576.312,539.847Z M494.097,344.657 Q488.899,337.712 480.772,337.381 472.739,337.097 470.944,343.24 469.715,347.445 475.953,361.006 482.756,375.701 482.756,380.567 482.756,385.765 482.993,404.003 482.993,420.777 481.811,426.4 480.536,432.542 482.804,434.669 484.599,436.322 488.426,435.425 M594.267,381.985 Q585.355,377.528 582.147,376.031 L582.549,377.118 Q582.832,379.102 581.982,383.402 580.848,389.309 576.926,392.285 572.106,396.018 562.609,395.687 553.584,395.357 549.285,389.497 546.638,385.765 545.457,378.606 534.218,382.938 531.424,386.71 M582.147,376.031 Q581.603,375.774 581.226,375.606 572.579,371.779 569.224,372.062 566.531,372.299 559.916,374.047 552.261,376.078 545.788,378.488 545.62,378.553 545.457,378.606 M570.169,378.205 L572.531,378.677 M583.872,404.665 Q587.274,403.153 589.731,399.987 592.377,396.538 592.377,392.852 M529.062,395.215 Q531.802,400.743 536.433,404.617 540.874,408.303 545.599,409.39 M545.127,417.895 Q550.041,422.195 552.12,423.045 557.506,425.219 565.444,422.147 M625.026,520.002 Q633.531,521.42 637.784,521.42 M625.499,542.209 Q629.137,541.737 630.176,541.784 632.397,541.879 635.894,543.155" test="JeanRenoFace"/>
      </g>
      <g id="TearAnimf9r1">
        <use xlink:href="#TearGraphic" transform="matrix(.914 0 0 .914 567.45 403.1)"/>
      </g>
      <g id="TearAnimf24r1">
        <use xlink:href="#TearGraphic" transform="matrix(.914 0 0 .914 567.45 522.35)"/>
      </g>
    </g>
    <g id="BlackMaskRect">
      <path fill="#000" stroke="none" d="M823.45,613.6 L823.45,508.3 -23.6,508.3 -23.6,613.6 823.45,613.6Z" test="BlackMaskRect"/>
    </g>
  </g>
</svg>