<?xml version="1.0" encoding="utf-8"?>
<svg id="EdithAnim06" image-rendering="inherit" baseProfile="basic" version="1.1" x="0px" y="0px" width="800" height="600" xmlns="http://www.w3.org/2000/svg" xmlns:xlink="http://www.w3.org/1999/xlink">
  <defs>
    <g id="TearGraphic" overflow="visible">
      <path id="Layer4_0_1_STROKES" stroke="#0FF" stroke-width="1" stroke-linejoin="round" stroke-linecap="round" fill="none" d="M-1.15 1.6Q-1.25 5.75 -2.25 8.6 -3.4 11.65 -6.8 16.5 -10.25 21.45 -8.25 27.95 -6.25 34.6 -.7 34.8 4.75 35 7.25 30.15 9.3 26.2 8.9 20.65 8.7 17.9 4.8 12.25 .55 6.05 -.7 0" test="TearGraphic"/>
    </g>
  </defs>
  <g id="Jean-Renof169r1" overflow="visible">
    <g id="Jean-Reno-body">
      <path id="Layer2_0_1_STROKES" stroke="#FEB7AE" stroke-width="1.89" stroke-linejoin="round" stroke-linecap="round" fill="none" d="M708.745,417.467 Q714.887,423.61 753.207,429.752 778.958,433.91 806.127,436.367 813.403,437.029 855.976,445.723 892.311,453.094 898.737,451.487 908.518,449.03 915.983,446.053 925.48,442.226 934.647,436.367 943.766,430.508 955.957,428.713 966.163,427.153 974.384,428.807 980.29,429.988 985.96,431.878 988.795,432.823 990.449,433.532 988.795,434.005 986.905,434.997 983.22,437.029 982.322,439.816 981.424,442.604 984.496,445.439 986.055,446.809 987.756,447.66 985.866,448.416 984.165,449.786 980.716,452.527 981.613,455.456 982.511,458.433 988.181,459.709 991.016,460.37 993.662,460.417 L994.702,466.465 Q996.166,472.797 998.387,474.12 1000.608,475.443 1005.994,472.891 1008.688,471.663 1010.908,470.104 L1012.704,474.12 Q1015.161,478.042 1018.705,477.427 1022.248,476.86 1025.225,473.789 1026.69,472.23 1027.446,470.812 L1030.895,472.23 Q1034.581,473.411 1035.762,472.23 1036.943,471.049 1037.888,467.741 L1038.597,464.67 1040.865,477.616 Q1042.944,491.413 1041.904,495.382 1041.81,495.713 1040.818,500.58 1040.109,504.029 1039.211,506.297 1036.565,513.054 1029.808,516.645 M962.005,471.285 Q970.226,469.3 981.472,471.238 997.867,474.025 1006.42,484.987 1009.727,489.24 1016.626,497.981 1022.532,505.683 1025.839,511.873 1034.77,528.599 1031.226,545.704 1027.729,562.525 1018.374,577.975 1014.074,585.063 1005.711,595.316 1003.348,598.198 994.56,605.097 984.118,613.271 971.407,621.493 935.923,644.503 903.651,654.426 L887.917,659.269 Q890.556,662.57 892.689,673.231 894.862,684.099 893.965,690.1 893.209,695.203 895.902,698.605 896.611,699.55 900.107,702.148 902.895,704.227 907.1,710.842 912.534,719.347 911.447,724.356 910.313,729.79 905.399,735.034 900.958,739.712 897.036,740.893 894.106,741.791 888.531,741.886 L883.57,741.838 889.996,743.161 Q897.225,745.477 901.525,750.343 907.1,756.675 909.368,761.116 912.014,766.219 910.502,769.243 909.463,771.37 906.675,777.796 903.226,783.749 896.8,786.726 890.799,789.514 877.711,786.442 871.143,784.694 868.355,783.985 863.63,782.804 861.835,782.946 859.472,783.135 840.903,787.86 822.097,792.679 815.53,793.341 808.631,794.05 800.362,790.553 796.488,788.758 794.929,788.143 792.377,787.057 791.196,787.198 787.416,787.387 785.479,787.624 782.124,788.096 779.62,790.033 776.785,792.207 772.91,791.262 769.225,790.364 768.28,787.907 767.193,785.119 767.287,783.466 767.429,781.15 769.697,779.402 771.776,777.796 775.084,777.229 776.737,776.992 777.966,777.04 777.068,776 776.454,774.63 775.225,771.889 776.548,770.425 778.013,768.818 781.84,768.015 785.053,767.353 787.652,767.59 788.786,767.684 786.235,765.889 783.069,763.668 784.108,762.628 785.337,761.4 788.503,761.494 789.967,761.542 793.558,762.156 794.787,762.345 796.771,763.762 798.189,764.802 799.228,764.282 802.536,762.628 806.977,760.549 813.781,757.384 816.475,756.486 820.727,755.068 824.98,754.123 M720.746,418.554 Q724.904,416.569 739.788,407.686 753.774,399.796 758.782,399.654 771.776,399.276 775.792,399.654 788.597,400.835 800.41,406.741 825.736,419.404 829.374,421.294 845.581,429.894 852.621,435.564 859.425,441.045 865.095,444.305 867.93,445.959 869.395,446.479 M698.066,482.578 Q698.066,478.514 699.058,473.506 701.09,463.441 706.099,458.716 716.635,448.794 730.196,450.92 735.394,451.723 745.552,457.96 754.908,463.678 757.365,466.749 759.302,469.159 764.122,470.056 767.807,470.765 772.721,470.529 775.367,470.434 789.306,469.442 802.725,468.686 806.552,469.584 812.884,471.049 827.531,476.01 844.305,481.727 847.423,484.231 849.786,486.121 857.818,493.114 865.331,499.351 868.213,500.533 871.521,501.856 872.041,502.753 872.371,503.368 871.757,505.541 871.521,506.392 872.041,512.676 872.56,519.527 871.757,524.914 870.765,531.576 865.662,549.011 860.842,565.454 858.291,571.691 856.212,576.841 849.644,588.276 843.643,598.718 841.517,601.459 840.052,603.396 836.745,607.318 L833.721,610.909 838.257,611.665 Q843.36,612.657 846.006,613.98 848.132,615.067 852.763,617.24 856.637,619.508 858.763,622.957 861.551,627.493 862.213,629.761 863.063,632.738 862.071,636.187 861.079,639.589 858.716,643.228 856.779,646.204 854.511,648.472 851.44,651.544 849.55,653.056 846.195,655.749 843.88,656.032 840.808,656.458 839.391,656.316 837.217,656.08 833.485,654.615 830.461,653.434 828.334,650.977 825.358,647.575 823.326,646.11 820.491,644.031 819.026,641.101 817.183,637.321 815.293,635.242 812.175,631.793 810.143,630.565 808.678,629.714 805.843,629.1 803.575,628.627 803.197,628.722 801.827,629.336 799.465,630.281 795.212,632.455 793.606,633.069 791.007,634.014 789.542,631.935 787.227,628.722 786.849,627.635 786.093,625.509 787.18,622.485 788.503,618.894 789.022,618.185 789.826,617.193 792.85,615.87 797.386,613.838 803.481,615.87 804.142,616.106 803.481,612.657 801.78,603.396 801.733,603.16 799.087,586.433 801.591,573.109 803.906,560.965 810.049,542.396 815.01,527.418 814.585,525.859 814.065,523.921 800.221,524.488 784.817,525.15 782.455,524.205 779.809,523.165 764.972,519.149 751.128,515.369 750.277,514.755 M677.512,493.02 Q690.742,505.352 698.161,510.597 717.911,524.63 742.009,531.529 765.634,538.333 787.888,545.656 798.992,549.295 805.371,551.61 M834.382,748.926 Q833.39,744.768 815.482,712.449 797.244,679.468 795.874,675.216 793.133,666.616 791.007,656.458 788.408,644.078 789.495,641.385 790.582,638.786 793.558,636.093 795.496,634.297 797.764,632.88 M824.696,744.201 Q823.42,745.146 821.436,746.044 817.561,747.886 814.301,747.745 810.946,747.603 804.757,745.146 800.268,743.35 797.527,741.838 796.535,741.271 795.779,739.145 795.118,737.35 793.984,737.35 792.85,737.35 790.393,739.476 787.605,741.886 786.424,742.311 784.628,742.972 781.037,742.027 777.871,741.177 776.029,739.948 774.564,739.003 774.186,736.83 773.95,735.318 774.139,732.152 774.28,729.837 775.603,728.467 775.651,728.372 778.627,726.01 780.092,724.828 781.651,724.356 782.407,724.12 782.88,724.12 M791.149,724.592 Q790.96,723.789 791.196,722.749 791.574,720.67 793.511,719.631 795.448,718.591 798.756,718.922 800.599,719.111 803.67,719.631 805.04,719.773 807.592,720.907 810.001,721.993 810.757,721.993 M824.98,761.447 Q817.845,765.18 810.049,768.96 794.551,776.614 791.432,777.04 788.314,777.465 784.959,777.323 L782.218,777.04 M887.917,659.269 L887.869,659.293 Q869.395,664.963 868.969,664.963 868.875,664.963 873.222,681.169 877.474,699.219 876.718,707.818 L874.923,727.569 Q873.553,747.981 875.773,751.525" test="Jean Reno body"/>
    </g>
    <g id="Jean-Renof100r1">
      <g id="JeanRenoFace">
        <path fill="#000" stroke="none" d="M702.535,251.109 Q697.952,254.463 695.731,258.905 692.613,265.189 687.037,271.71 679.761,280.309 674.469,280.64 669.508,280.923 655.663,275.49 640.969,269.3 637.141,267.882 632.7,266.229 626.652,259.046 618.808,249.786 617.249,248.462 615.312,246.809 614.32,244.257 613.516,241.422 613.186,240.336 612.619,238.398 611.579,237.973 610.303,237.406 607.327,238.54 599.672,241.139 596.365,242.604 590.884,245.013 586.064,249.88 577.795,257.96 573.59,262.07 566.077,269.489 562.912,273.552 544.484,297.65 538.814,304.737 534.798,309.746 532.672,315.274 530.923,319.81 529.364,327.89 527.474,337.812 519.442,365.217 L519.111,395.505 Q518.782,429.706 519.016,450.362 522.607,453.622 525.112,458.725 526.671,461.796 529.837,469.215 531.254,472.239 532.105,479.042 532.719,484.476 536.452,489.532 539.712,493.974 543.823,497.234 547.508,500.116 550.154,504.18 551.146,505.691 555.966,516.37 558.801,522.701 562.439,523.552 563.479,523.788 571.653,527.568 577.228,530.167 580.867,528.75 582.757,527.994 585.166,528.088 586.537,528.135 589.324,528.324 594.711,528.466 600.239,524.025 605.059,520.15 614.65,516.748 622.966,513.819 624.809,511.267 626.085,509.519 627.691,509.472 628.778,509.472 630.904,510.369 636.102,512.637 639.504,511.267 643.048,509.85 651.505,506.353 659.113,503.754 664.546,504.652 668.326,505.266 678.013,509.282 686.896,512.921 691.479,513.157 695.401,513.393 702.252,518.969 708.253,523.883 712.269,522.607 714.726,521.851 717.277,522.56 718.317,522.843 721.483,524.402 726.633,526.812 730.696,524.025 733.106,522.371 736.461,521.52 738.398,521.048 742.084,520.386 748.557,518.874 751.014,513.157 754.18,505.786 756.873,501.25 759.472,496.809 763.771,491.422 765.378,489.39 773.221,482.633 778.75,477.861 779.836,473.467 780.923,469.167 784.514,464.631 789.05,458.82 790.231,456.457 791.885,453.15 793.775,448.661 795.429,445.684 798.736,445.07 802.233,444.456 802.753,446.345 802.989,447.149 802.516,452.205 802.233,455.465 800.674,457.922 L799.209,459.765 800.674,457.922 Q802.233,455.465 802.516,452.205 802.989,447.149 802.753,446.345 802.233,444.456 798.736,445.07 795.429,445.684 793.775,448.661 791.885,453.15 790.231,456.457 789.05,458.82 784.514,464.631 780.923,469.167 779.836,473.467 778.75,477.861 773.221,482.633 765.378,489.39 763.771,491.422 759.472,496.809 756.873,501.25 754.18,505.786 751.014,513.157 748.557,518.874 742.084,520.386 738.398,521.048 736.461,521.52 733.106,522.371 730.696,524.025 726.633,526.812 721.483,524.402 718.317,522.843 717.277,522.56 714.726,521.851 712.269,522.607 708.253,523.883 702.252,518.969 695.401,513.393 691.479,513.157 686.896,512.921 678.013,509.282 668.326,505.266 664.546,504.652 659.113,503.754 651.505,506.353 643.048,509.85 639.504,511.267 636.102,512.637 630.904,510.369 628.778,509.472 627.691,509.472 626.085,509.519 624.809,511.267 622.966,513.819 614.65,516.748 605.059,520.15 600.239,524.025 594.711,528.466 589.324,528.324 586.537,528.135 585.166,528.088 582.757,527.994 580.867,528.75 577.228,530.167 571.653,527.568 563.479,523.788 562.439,523.552 558.801,522.701 555.966,516.37 551.146,505.691 550.154,504.18 547.508,500.116 543.823,497.234 539.712,493.974 536.452,489.532 532.719,484.476 532.105,479.042 531.254,472.239 529.837,469.215 526.671,461.796 525.112,458.725 522.607,453.622 519.016,450.362 519.015,450.48 519.016,450.598 519.253,467.75 519.914,473.94 520.387,478.665 522.182,486.555 524.119,494.824 527.002,504.416 527.238,505.125 533.569,518.213 539.617,530.781 541.649,538.672 545.902,555.399 548.784,559.887 550.343,562.344 553.509,565.321 555.541,567.258 561.494,572.692 563.101,574.204 568.865,581.575 574.535,588.852 576.236,590.363 580.394,594.096 588.238,598.254 594.994,601.798 598.822,606.24 605.767,614.272 611.532,617.391 617.769,620.698 627.172,620.887 627.361,620.887 642.055,623.628 654.057,625.896 660.294,624.195 665.113,622.872 675.556,622.73 685.573,622.588 691.195,620.793 699.842,618.052 705.465,614.178 711.466,609.972 718.411,601.515 721.955,598.349 723.798,596.601 727.058,593.482 728.003,589.088 728.854,585.119 737.264,577.417 745.864,569.574 747.092,565.179 749.644,556.06 753.66,549.634 757.582,543.444 763.63,538.578 767.977,535.128 771.804,524.875 775.678,514.574 778.513,512.165 783.427,508.054 786.026,500.447 788.2,492.32 789.286,489.532 794.626,475.641 798.642,466.332 L801.571,459.765 802.186,461.607 Q803.839,463.592 809.131,464.49 814.66,465.435 818.581,461.088 821.18,458.158 822.361,454.095 822.645,453.055 820.708,442.896 818.534,431.556 819.054,422.862 819.668,412.987 824.299,402.497 826.614,397.158 832.331,387.425 836.253,380.763 837.056,375.518 838.001,369.234 834.694,364.272 830.205,357.516 828.126,356.429 824.299,354.397 817.495,358.744 816.597,362.382 814.518,368.572 810.549,380.479 810.549,384.59 810.549,389.598 808.895,397.3 808.092,401.127 807.241,403.962 798.264,370.887 794.484,358.13 790.987,346.365 781.254,322.125 770.434,295.193 766.606,291.035 762.307,286.357 749.077,275.348 735.705,264.197 729.751,260.322 727.2,258.669 720.065,251.959 715.34,247.517 711.796,247.517 707.355,247.517 702.535,251.109 M767.079,376.982 Q772.229,384.543 772.276,384.59 772.229,384.543 767.079,376.982 763.015,370.982 759.046,368.997 754.841,366.918 742.698,368.43 729.043,370.651 724.554,371.36 718.033,372.399 704.662,377.691 691.715,382.794 685.809,386.48 691.715,382.794 704.662,377.691 718.033,372.399 724.554,371.36 729.043,370.651 742.698,368.43 754.841,366.918 759.046,368.997 763.015,370.982 767.079,376.982 M751.77,394.323 L750.683,399.048 Q749.124,404.34 746.761,407.27 743.785,411.003 739.249,412.42 734.24,413.979 726.444,412.94 713.828,411.286 712.741,393.284 707.567,395.206 702.346,397.631 L698.094,399.71 702.346,397.631 Q707.567,395.206 712.741,393.284 712.812,393.262 712.883,393.237 729.09,387.33 739.201,388.37 743.596,388.834 751.77,394.323 752.735,394.973 753.754,395.694 763.535,402.639 766.134,403.017 763.535,402.639 753.754,395.694 752.735,394.973 751.77,394.323 M755.786,417.145 Q760.464,415.16 761.409,411.995 760.464,415.16 755.786,417.145 752.242,418.61 747.706,419.082 752.242,418.61 755.786,417.145 M723.42,438.502 Q729.846,439.164 734.476,437.037 729.846,439.164 723.42,438.502 716.947,437.84 712.741,434.675 716.947,437.84 723.42,438.502 M700.456,408.215 Q703.858,415.917 710.851,419.082 703.858,415.917 700.456,408.215 M689.164,472.002 L689.116,468.742 689.164,472.002 Q689.069,475.641 688.171,477.72 687.274,479.799 681.982,482.019 L676.831,483.862 Q673.713,484.382 672.106,479.751 672.106,479.94 672.106,480.082 672.106,483.437 669.886,487.075 667.429,490.997 662.656,494.73 657.412,498.84 650.844,498.51 643.662,498.131 636.196,492.367 629.865,487.5 627.266,477.483 625.282,469.97 625.754,461.655 626.038,456.457 630.621,441.668 635.488,426.642 636.196,423.807 637.141,420.264 637.236,408.357 637.141,395.93 637.141,393.567 637.141,388.653 635.015,383.409 632.18,376.557 627.172,374.667 624.1,373.533 617.533,372.777 611.437,372.069 605.437,369.47 597.121,365.832 584.599,363.705 571.795,361.485 566.219,362.855 560.785,364.225 554.17,368.572 548.028,372.683 543.539,377.502 548.028,372.683 554.17,368.572 560.785,364.225 566.219,362.855 571.795,361.485 584.599,363.705 597.121,365.832 605.437,369.47 611.437,372.069 617.533,372.777 624.1,373.533 627.172,374.667 632.18,376.557 635.015,383.409 637.141,388.653 637.141,393.567 637.141,395.93 637.236,408.357 637.141,420.264 636.196,423.807 635.488,426.642 630.621,441.668 626.038,456.457 625.754,461.655 625.282,469.97 627.266,477.483 629.865,487.5 636.196,492.367 643.662,498.131 650.844,498.51 657.412,498.84 662.656,494.73 667.429,490.997 669.886,487.075 672.106,483.437 672.106,480.082 672.106,479.94 672.106,479.751 671.728,478.712 671.445,477.389 L670.689,470.16 671.398,473.514 Q672.059,477.2 672.106,479.751 673.713,484.382 676.831,483.862 L681.982,482.019 Q687.274,479.799 688.171,477.72 689.069,475.641 689.164,472.002 M693.841,533.002 Q696.818,533.758 702.394,538.105 708.442,542.783 711.324,543.87 714.773,545.193 714.773,552.564 714.773,557.383 714.773,557.761 714.962,560.265 716.049,560.88 719.356,562.77 720.301,565.085 721.577,568.109 717.466,570.33 716.758,570.708 704.52,576.283 695.637,580.347 693.369,582.615 692.235,583.748 691.195,586.111 L689.494,590.08 Q687.132,594.522 682.029,593.955 675.886,593.293 671.35,593.529 667.24,593.766 663.129,594.9 653.254,597.593 649.993,598.16 640.165,599.814 637.141,596.79 626.888,586.678 620.557,582.615 618.1,581.055 614.65,575.433 611.437,570.141 608.744,568.912 605.626,567.495 604.539,565.652 603.547,563.242 602.129,561.352 600.381,558.99 600.381,555.682 L600.712,552.847 Q602.885,546.988 606.807,541.743 608.555,539.428 613.942,533.475 616.54,530.592 621.643,529.411 627.644,527.946 630.007,526.387 633.22,524.261 639.646,524.025 647.064,523.788 648.954,523.08 651.458,522.182 660.105,523.316 669.177,524.544 673.051,523.552 677.446,522.465 684.155,527.049 692.329,532.624 693.841,533.002 M618.667,394.985 Q609.755,390.528 606.523,389.031 L606.949,390.118 Q607.232,392.102 606.382,396.402 605.248,402.309 601.326,405.285 596.506,409.018 587.009,408.687 577.984,408.357 573.685,402.497 571.039,398.765 569.857,391.583 558.618,395.938 555.824,399.71 558.618,395.938 569.857,391.583 570.02,391.553 570.188,391.488 576.661,389.078 584.316,387.047 590.931,385.299 593.624,385.062 596.979,384.779 605.626,388.606 606.004,388.774 606.523,389.031 609.755,390.528 618.667,394.985 M614.131,412.987 Q616.777,409.538 616.777,405.852 616.777,409.538 614.131,412.987 611.674,416.153 608.272,417.665 611.674,416.153 614.131,412.987 M560.833,417.617 Q565.274,421.303 569,422.39 565.274,421.303 560.833,417.617 556.202,413.743 553.462,408.215 556.202,413.743 560.833,417.617 M569.527,430.895 Q574.441,435.195 576.52,436.045 581.906,438.219 589.844,435.147 581.906,438.219 576.52,436.045 574.441,435.195 569.527,430.895 M756.637,216.758 Q751.817,215.34 749.691,213.97 746.761,212.175 746.289,209.245 745.391,203.953 753.565,198.992 757.629,196.488 761.881,195.07 757.771,194.598 752.337,194.834 741.469,195.306 734.949,198.85 731.452,200.787 728.476,200.315 726.491,200.031 723.562,198.283 720.112,196.204 718.553,195.684 715.387,194.598 711.796,195.543 705.796,197.102 694.361,191.715 687.652,188.55 686.754,188.172 683.116,186.754 681.556,187.51 678.391,189.117 658.498,188.219 640.921,187.416 631.897,186.093 625.943,185.195 617.013,177.777 L609.217,170.5 609.878,173.76 Q610.587,177.588 610.681,180.612 611.059,190.156 605.437,187.51 599.814,184.864 587.907,184.486 L577.087,184.675 584.836,191.763 Q591.545,198.614 586.537,197.433 581.528,196.251 570.991,200.504 L561.494,204.993 563.668,205.134 Q566.172,205.418 567.826,206.127 573.118,208.347 568.109,213.97 557.478,225.877 552.091,232.776 540.562,247.565 530.782,265.047 522.844,279.222 520.198,312.534 518.544,333.654 519.205,357.988 519.3,362.524 519.442,365.217 527.474,337.812 529.364,327.89 530.923,319.81 532.672,315.274 534.798,309.746 538.814,304.737 544.484,297.65 562.912,273.552 566.077,269.489 573.59,262.07 577.795,257.96 586.064,249.88 590.884,245.013 596.365,242.604 599.672,241.139 607.327,238.54 610.303,237.406 611.579,237.973 612.619,238.398 613.186,240.336 613.516,241.422 614.32,244.257 615.312,246.809 617.249,248.462 618.808,249.786 626.652,259.046 632.7,266.229 637.141,267.882 640.969,269.3 655.663,275.49 669.508,280.923 674.469,280.64 679.761,280.309 687.037,271.71 692.613,265.189 695.731,258.905 697.952,254.463 702.535,251.109 707.355,247.517 711.796,247.517 715.34,247.517 720.065,251.959 727.2,258.669 729.751,260.322 735.705,264.197 749.077,275.348 762.307,286.357 766.606,291.035 770.434,295.193 781.254,322.125 790.987,346.365 794.484,358.13 798.264,370.887 807.241,403.962 808.092,401.127 808.895,397.3 810.549,389.598 810.549,384.59 810.549,380.479 814.518,368.572 816.597,362.382 817.495,358.744 818.203,355.626 818.109,354.35 817.873,351.751 816.597,343.86 815.085,334.883 814.329,328.362 811.636,305.163 811.258,301.383 809.32,282.577 809.604,276.86 809.935,270.434 795.712,250.022 782.01,230.319 773.694,223.892 769.3,220.491 756.637,216.758Z" test="JeanRenoFace" vector-effect="non-scaling-stroke" stroke-width="1"/>
        <path id="Layer3_0_1_STROKES" stroke="#FFF" stroke-width="1.89" stroke-linejoin="round" stroke-linecap="round" fill="none" d="M519.442,365.217 Q519.3,362.524 519.205,357.988 518.544,333.654 520.198,312.534 522.844,279.222 530.782,265.047 540.562,247.565 552.091,232.776 557.478,225.877 568.109,213.97 573.118,208.347 567.826,206.127 566.172,205.418 563.668,205.134 L561.494,204.993 570.991,200.504 Q581.528,196.251 586.537,197.433 591.545,198.614 584.836,191.763 L577.087,184.675 587.907,184.486 Q599.814,184.864 605.437,187.51 611.059,190.156 610.681,180.612 610.587,177.588 609.878,173.76 L609.217,170.5 617.013,177.777 Q625.943,185.195 631.897,186.093 640.921,187.416 658.498,188.219 678.391,189.117 681.556,187.51 683.116,186.754 686.754,188.172 687.652,188.55 694.361,191.715 705.796,197.102 711.796,195.543 715.387,194.598 718.553,195.684 720.112,196.204 723.562,198.283 726.491,200.031 728.476,200.315 731.452,200.787 734.949,198.85 741.469,195.306 752.337,194.834 757.771,194.598 761.881,195.07 757.629,196.488 753.565,198.992 745.391,203.953 746.289,209.245 746.761,212.175 749.691,213.97 751.817,215.34 756.637,216.758 769.3,220.491 773.694,223.892 782.01,230.319 795.712,250.022 809.935,270.434 809.604,276.86 809.32,282.577 811.258,301.383 811.636,305.163 814.329,328.362 815.085,334.883 816.597,343.86 817.873,351.751 818.109,354.35 818.203,355.626 817.495,358.744 824.299,354.397 828.126,356.429 830.205,357.516 834.694,364.272 838.001,369.234 837.056,375.518 836.253,380.763 832.331,387.425 826.614,397.158 824.299,402.497 819.668,412.987 819.054,422.862 818.534,431.556 820.708,442.896 822.645,453.055 822.361,454.095 821.18,458.158 818.581,461.088 814.66,465.435 809.131,464.49 803.839,463.592 802.186,461.607 L801.571,459.765 798.642,466.332 Q794.626,475.641 789.286,489.532 788.2,492.32 786.026,500.447 783.427,508.054 778.513,512.165 775.678,514.574 771.804,524.875 767.977,535.128 763.63,538.578 757.582,543.444 753.66,549.634 749.644,556.06 747.092,565.179 745.864,569.574 737.264,577.417 728.854,585.119 728.003,589.088 727.058,593.482 723.798,596.601 721.955,598.349 718.411,601.515 711.466,609.972 705.465,614.178 699.842,618.052 691.195,620.793 685.573,622.588 675.556,622.73 665.113,622.872 660.294,624.195 654.057,625.896 642.055,623.628 627.361,620.887 627.172,620.887 617.769,620.698 611.532,617.391 605.767,614.272 598.822,606.24 594.994,601.798 588.238,598.254 580.394,594.096 576.236,590.363 574.535,588.852 568.865,581.575 563.101,574.204 561.494,572.692 555.541,567.258 553.509,565.321 550.343,562.344 548.784,559.887 545.902,555.399 541.649,538.672 539.617,530.781 533.569,518.213 527.238,505.125 527.002,504.416 524.119,494.824 522.182,486.555 520.387,478.665 519.914,473.94 519.253,467.75 519.016,450.598 519.015,450.48 519.016,450.362 518.782,429.706 519.111,395.505 L519.442,365.217 Q527.474,337.812 529.364,327.89 530.923,319.81 532.672,315.274 534.798,309.746 538.814,304.737 544.484,297.65 562.912,273.552 566.077,269.489 573.59,262.07 577.795,257.96 586.064,249.88 590.884,245.013 596.365,242.604 599.672,241.139 607.327,238.54 610.303,237.406 611.579,237.973 612.619,238.398 613.186,240.336 613.516,241.422 614.32,244.257 615.312,246.809 617.249,248.462 618.808,249.786 626.652,259.046 632.7,266.229 637.141,267.882 640.969,269.3 655.663,275.49 669.508,280.923 674.469,280.64 679.761,280.309 687.037,271.71 692.613,265.189 695.731,258.905 697.952,254.463 702.535,251.109 707.355,247.517 711.796,247.517 715.34,247.517 720.065,251.959 727.2,258.669 729.751,260.322 735.705,264.197 749.077,275.348 762.307,286.357 766.606,291.035 770.434,295.193 781.254,322.125 790.987,346.365 794.484,358.13 798.264,370.887 807.241,403.962 808.092,401.127 808.895,397.3 810.549,389.598 810.549,384.59 810.549,380.479 814.518,368.572 816.597,362.382 817.495,358.744 M685.809,386.48 Q691.715,382.794 704.662,377.691 718.033,372.399 724.554,371.36 729.043,370.651 742.698,368.43 754.841,366.918 759.046,368.997 763.015,370.982 767.079,376.982 772.229,384.543 772.276,384.59 M712.741,393.284 Q713.828,411.286 726.444,412.94 734.24,413.979 739.249,412.42 743.785,411.003 746.761,407.27 749.124,404.34 750.683,399.048 L751.77,394.323 Q743.596,388.834 739.201,388.37 729.09,387.33 712.883,393.237 712.812,393.262 712.741,393.284 707.567,395.206 702.346,397.631 L698.094,399.71 M751.77,394.323 Q752.735,394.973 753.754,395.694 763.535,402.639 766.134,403.017 M747.706,419.082 Q752.242,418.61 755.786,417.145 760.464,415.16 761.409,411.995 M519.016,450.362 Q522.607,453.622 525.112,458.725 526.671,461.796 529.837,469.215 531.254,472.239 532.105,479.042 532.719,484.476 536.452,489.532 539.712,493.974 543.823,497.234 547.508,500.116 550.154,504.18 551.146,505.691 555.966,516.37 558.801,522.701 562.439,523.552 563.479,523.788 571.653,527.568 577.228,530.167 580.867,528.75 582.757,527.994 585.166,528.088 586.537,528.135 589.324,528.324 594.711,528.466 600.239,524.025 605.059,520.15 614.65,516.748 622.966,513.819 624.809,511.267 626.085,509.519 627.691,509.472 628.778,509.472 630.904,510.369 636.102,512.637 639.504,511.267 643.048,509.85 651.505,506.353 659.113,503.754 664.546,504.652 668.326,505.266 678.013,509.282 686.896,512.921 691.479,513.157 695.401,513.393 702.252,518.969 708.253,523.883 712.269,522.607 714.726,521.851 717.277,522.56 718.317,522.843 721.483,524.402 726.633,526.812 730.696,524.025 733.106,522.371 736.461,521.52 738.398,521.048 742.084,520.386 748.557,518.874 751.014,513.157 754.18,505.786 756.873,501.25 759.472,496.809 763.771,491.422 765.378,489.39 773.221,482.633 778.75,477.861 779.836,473.467 780.923,469.167 784.514,464.631 789.05,458.82 790.231,456.457 791.885,453.15 793.775,448.661 795.429,445.684 798.736,445.07 802.233,444.456 802.753,446.345 802.989,447.149 802.516,452.205 802.233,455.465 800.674,457.922 L799.209,459.765 M737.784,394.985 L741.564,395.93 M712.741,434.675 Q716.947,437.84 723.42,438.502 729.846,439.164 734.476,437.037 M700.456,408.215 Q703.858,415.917 710.851,419.082 M672.106,479.751 Q673.713,484.382 676.831,483.862 L681.982,482.019 Q687.274,479.799 688.171,477.72 689.069,475.641 689.164,472.002 L689.116,468.742 M672.106,479.751 Q672.059,477.2 671.398,473.514 L670.689,470.16 671.445,477.389 Q671.728,478.712 672.106,479.751 672.106,479.94 672.106,480.082 672.106,483.437 669.886,487.075 667.429,490.997 662.656,494.73 657.412,498.84 650.844,498.51 643.662,498.131 636.196,492.367 629.865,487.5 627.266,477.483 625.282,469.97 625.754,461.655 626.038,456.457 630.621,441.668 635.488,426.642 636.196,423.807 637.141,420.264 637.236,408.357 637.141,395.93 637.141,393.567 637.141,388.653 635.015,383.409 632.18,376.557 627.172,374.667 624.1,373.533 617.533,372.777 611.437,372.069 605.437,369.47 597.121,365.832 584.599,363.705 571.795,361.485 566.219,362.855 560.785,364.225 554.17,368.572 548.028,372.683 543.539,377.502 M615.359,549.067 Q619.517,546.421 625.093,544.815 631.141,543.066 636.196,543.397 638.937,543.586 645.127,545.807 650.324,547.697 655.096,547.177 658.876,546.752 665.964,544.248 672.248,541.98 676.831,541.98 682.69,541.98 687.841,544.342 691,546.279 695.259,549.54 M600.712,552.847 Q602.885,546.988 606.807,541.743 608.555,539.428 613.942,533.475 616.54,530.592 621.643,529.411 627.644,527.946 630.007,526.387 633.22,524.261 639.646,524.025 647.064,523.788 648.954,523.08 651.458,522.182 660.105,523.316 669.177,524.544 673.051,523.552 677.446,522.465 684.155,527.049 692.329,532.624 693.841,533.002 696.818,533.758 702.394,538.105 708.442,542.783 711.324,543.87 714.773,545.193 714.773,552.564 714.773,557.383 714.773,557.761 714.962,560.265 716.049,560.88 719.356,562.77 720.301,565.085 721.577,568.109 717.466,570.33 716.758,570.708 704.52,576.283 695.637,580.347 693.369,582.615 692.235,583.748 691.195,586.111 L689.494,590.08 Q687.132,594.522 682.029,593.955 675.886,593.293 671.35,593.529 667.24,593.766 663.129,594.9 653.254,597.593 649.993,598.16 640.165,599.814 637.141,596.79 626.888,586.678 620.557,582.615 618.1,581.055 614.65,575.433 611.437,570.141 608.744,568.912 605.626,567.495 604.539,565.652 603.547,563.242 602.129,561.352 600.381,558.99 600.381,555.682 L600.712,552.847Z M518.497,357.657 Q513.299,350.712 505.172,350.381 497.14,350.097 495.344,356.24 494.116,360.445 500.353,374.006 507.157,388.701 507.157,393.567 507.157,398.765 507.393,417.003 507.393,433.777 506.212,439.4 504.936,445.542 507.204,447.669 508,449.322 512.827,448.425 M618.667,394.985 Q609.755,390.528 606.547,389.031 L606.949,390.118 Q607.232,392.102 606.382,396.402 605.248,402.309 601.326,405.285 596.506,409.018 587.009,408.687 577.984,408.357 573.685,402.497 571.039,398.765 569.857,391.606 558.618,395.938 555.824,399.71 M606.547,389.031 Q606.004,388.774 605.626,388.606 596.979,384.779 593.624,385.062 590.931,385.299 584.316,387.047 576.661,389.078 570.188,391.488 570.02,391.553 569.857,391.606 M594.569,391.205 L596.932,391.677 M608.272,417.665 Q611.674,416.153 614.131,412.987 616.777,409.538 616.777,405.852 M553.462,408.215 Q556.202,413.743 560.833,417.617 565.274,421.303 569,422.39 M569.527,430.895 Q574.441,435.195 576.52,436.045 581.906,438.219 589.844,435.147 M649.426,533.002 Q657.931,534.42 662.184,534.42 M649.899,555.209 Q653.537,554.737 654.577,554.784 656.797,554.879 660.294,556.155" test="JeanRenoFace"/>
      </g>
      <g id="TearAnimf10r1">
        <use xlink:href="#TearGraphic" transform="matrix(.914 0 0 .914 591.85 419.6)"/>
      </g>
      <g id="TearAnimf25r1">
        <use xlink:href="#TearGraphic" transform="matrix(.914 0 0 .914 591.85 548.4)"/>
      </g>
    </g>
    <g id="BlackMaskRect">
      <path fill="#000" stroke="none" d="M823.45,613.6 L823.45,508.3 -23.6,508.3 -23.6,613.6 823.45,613.6Z" test="BlackMaskRect"/>
    </g>
  </g>
</svg>