<?xml version="1.0" encoding="utf-8"?>
<svg id="EdithAnim06" image-rendering="inherit" baseProfile="basic" version="1.1" x="0px" y="0px" width="800" height="600" xmlns="http://www.w3.org/2000/svg" xmlns:xlink="http://www.w3.org/1999/xlink">
  <defs>
    <g id="TearGraphic" overflow="visible">
      <path id="Layer4_0_1_STROKES" stroke="#0FF" stroke-width="1" stroke-linejoin="round" stroke-linecap="round" fill="none" d="M-1.15 1.6Q-1.25 5.75 -2.25 8.6 -3.4 11.65 -6.8 16.5 -10.25 21.45 -8.25 27.95 -6.25 34.6 -.7 34.8 4.75 35 7.25 30.15 9.3 26.2 8.9 20.65 8.7 17.9 4.8 12.25 .55 6.05 -.7 0" test="TearGraphic"/>
    </g>
  </defs>
  <g id="Jean-Renof170r1" overflow="visible">
    <g id="Jean-Reno-body">
      <path id="Layer2_0_1_STROKES" stroke="#FEB7AE" stroke-width="1.89" stroke-linejoin="round" stroke-linecap="round" fill="none" d="M728.545,427.367 Q734.687,433.51 773.007,439.652 798.758,443.81 825.927,446.267 833.203,446.929 875.776,455.623 912.111,462.994 918.537,461.387 928.318,458.93 935.783,455.953 945.28,452.126 954.447,446.267 963.566,440.408 975.757,438.613 985.963,437.053 994.184,438.707 1000.09,439.888 1005.76,441.778 1008.595,442.723 1010.249,443.432 1008.595,443.905 1006.705,444.897 1003.02,446.929 1002.122,449.716 1001.224,452.504 1004.296,455.339 1005.855,456.709 1007.556,457.56 1005.666,458.316 1003.965,459.686 1000.516,462.427 1001.413,465.356 1002.311,468.333 1007.981,469.609 1010.816,470.27 1013.462,470.317 L1014.502,476.365 Q1015.966,482.697 1018.187,484.02 1020.408,485.343 1025.794,482.791 1028.488,481.563 1030.708,480.004 L1032.504,484.02 Q1034.961,487.942 1038.505,487.327 1042.048,486.76 1045.025,483.689 1046.49,482.13 1047.246,480.712 L1050.695,482.13 Q1054.381,483.311 1055.562,482.13 1056.743,480.949 1057.688,477.641 L1058.397,474.57 1060.665,487.516 Q1062.744,501.313 1061.704,505.282 1061.61,505.613 1060.618,510.48 1059.909,513.929 1059.011,516.197 1056.365,522.954 1049.608,526.545 M981.805,481.185 Q990.026,479.2 1001.272,481.138 1017.667,483.925 1026.219,494.887 1029.527,499.14 1036.426,507.881 1042.332,515.583 1045.639,521.773 1054.57,538.499 1051.026,555.604 1047.529,572.425 1038.174,587.875 1033.874,594.963 1025.511,605.216 1023.148,608.098 1014.36,614.997 1003.918,623.171 991.207,631.393 955.723,654.403 923.451,664.326 L907.717,669.169 Q910.356,672.47 912.489,683.131 914.662,693 913.765,700 913.008,705.103 915.702,708.505 916.411,709.45 919.907,712.048 922.695,714.127 926.9,720.742 932.334,729.247 931.247,734.256 930.113,739.69 925.199,744.934 920.757,749.612 916.836,750.793 913.906,751.691 908.331,751.786 L903.37,751.738 909.796,753.061 Q917.025,755.377 921.325,760.243 926.9,766.575 929.168,771.016 931.814,776.119 930.302,779.143 929.262,781.27 926.475,787.696 923.026,793.649 916.6,796.626 910.599,799.414 897.511,796.342 890.943,794.594 888.155,793.885 883.43,792.704 881.635,792.846 879.272,793.035 860.703,797.76 841.897,802.579 835.329,803.241 828.431,803.95 820.162,800.453 816.288,798.658 814.728,798.043 812.177,796.957 810.996,797.098 807.216,797.287 805.279,797.524 801.924,797.996 799.42,799.933 796.584,802.107 792.71,801.162 789.025,800.264 788.079,797.807 786.993,795.019 787.087,793.366 787.229,791.05 789.497,789.302 791.576,787.696 794.884,787.129 796.537,786.892 797.766,786.94 796.868,785.9 796.254,784.53 795.025,781.789 796.348,780.325 797.813,778.718 801.64,777.915 804.853,777.253 807.452,777.49 808.586,777.584 806.035,775.789 802.869,773.568 803.908,772.528 805.137,771.3 808.303,771.394 809.767,771.442 813.358,772.056 814.587,772.245 816.571,773.662 817.989,774.702 819.028,774.182 822.336,772.528 826.777,770.449 833.581,767.284 836.275,766.386 840.527,764.968 844.78,764.023 M740.546,428.454 Q744.704,426.469 759.588,417.586 773.574,409.696 778.582,409.554 791.576,409.176 795.592,409.554 808.397,410.735 820.209,416.641 845.536,429.304 849.174,431.194 865.381,439.794 872.421,445.464 879.225,450.945 884.895,454.205 887.73,455.859 889.195,456.379 M717.866,492.478 Q717.866,488.414 718.858,483.406 720.89,473.341 725.899,468.616 736.435,458.694 749.996,460.82 755.194,461.623 765.352,467.86 774.708,473.578 777.165,476.649 779.102,479.059 783.921,479.956 787.607,480.665 792.521,480.429 795.167,480.334 809.106,479.342 822.525,478.586 826.352,479.484 832.684,480.949 847.331,485.91 864.105,491.627 867.223,494.131 869.586,496.021 877.618,503.014 885.131,509.251 888.013,510.433 891.321,511.756 891.841,512.653 892.171,513.268 891.557,515.441 891.321,516.292 891.841,522.576 892.36,529.427 891.557,534.814 890.565,541.476 885.462,558.911 880.642,575.354 878.091,581.591 876.012,586.741 869.444,598.176 863.443,608.618 861.317,611.359 859.852,613.296 856.545,617.218 L853.521,620.809 858.057,621.565 Q863.16,622.557 865.806,623.88 867.932,624.967 872.563,627.14 876.437,629.408 878.563,632.857 881.351,637.393 882.012,639.661 882.863,642.638 881.871,646.087 880.879,649.489 878.516,653.128 876.579,656.104 874.311,658.372 871.24,661.444 869.35,662.956 865.995,665.649 863.68,665.932 860.608,666.358 859.191,666.216 857.017,665.98 853.285,664.515 850.261,663.334 848.134,660.877 845.158,657.475 843.126,656.01 840.291,653.931 838.826,651.001 836.983,647.221 835.093,645.142 831.975,641.693 829.943,640.465 828.478,639.614 825.643,639 823.375,638.527 822.997,638.622 821.627,639.236 819.265,640.181 815.012,642.355 813.406,642.969 810.807,643.914 809.342,641.835 807.027,638.622 806.649,637.535 805.893,635.409 806.979,632.385 808.303,628.794 808.822,628.085 809.626,627.093 812.65,625.77 817.185,623.738 823.281,625.77 823.942,626.006 823.281,622.557 821.58,613.296 821.533,613.06 818.887,596.333 821.391,583.009 823.706,570.865 829.849,552.296 834.81,537.318 834.385,535.759 833.865,533.821 820.021,534.388 804.617,535.05 802.255,534.105 799.608,533.065 784.772,529.049 770.928,525.269 770.077,524.655 M697.312,502.92 Q710.542,515.252 717.961,520.497 737.711,534.53 761.809,541.429 785.434,548.233 807.688,555.556 818.792,559.195 825.171,561.51 M854.182,758.826 Q853.19,754.668 835.282,722.349 817.044,689.368 815.674,685.116 812.933,676.516 810.807,666.358 808.208,653.978 809.295,651.285 810.382,648.686 813.358,645.993 815.296,644.197 817.564,642.78 M844.496,754.101 Q843.22,755.046 841.236,755.944 837.361,757.786 834.101,757.645 830.746,757.503 824.557,755.046 820.068,753.25 817.327,751.738 816.335,751.171 815.579,749.045 814.918,747.25 813.784,747.25 812.65,747.25 810.193,749.376 807.405,751.786 806.224,752.211 804.428,752.872 800.837,751.927 797.671,751.077 795.829,749.848 794.364,748.903 793.986,746.73 793.75,745.218 793.939,742.052 794.08,739.737 795.403,738.367 795.451,738.272 798.427,735.91 799.892,734.728 801.451,734.256 802.207,734.02 802.68,734.02 M810.949,734.492 Q810.76,733.689 810.996,732.649 811.374,730.57 813.311,729.531 815.248,728.491 818.556,728.822 820.399,729.011 823.47,729.531 824.84,729.673 827.392,730.807 829.801,731.893 830.557,731.893 M844.78,771.347 Q837.645,775.08 829.849,778.86 814.351,786.514 811.232,786.94 808.113,787.365 804.759,787.223 L802.018,786.94 M907.717,669.169 L907.669,669.193 Q889.195,674.863 888.769,674.863 888.675,674.863 893.022,691.069 897.274,709.119 896.518,717.718 L894.723,737.469 Q893.353,757.881 895.573,761.425" test="Jean Reno body"/>
    </g>
    <g id="Jean-Renof101r1">
      <g id="JeanRenoFace">
        <path fill="#000" stroke="none" d="M728.135,264.759 Q723.552,268.113 721.331,272.555 718.213,278.839 712.637,285.36 705.361,293.959 700.069,294.29 695.108,294.573 681.263,289.14 666.569,282.95 662.741,281.532 658.3,279.879 652.252,272.697 644.408,263.436 642.849,262.113 640.912,260.459 639.92,257.907 639.116,255.072 638.786,253.986 638.219,252.048 637.179,251.623 635.903,251.056 632.926,252.19 625.272,254.789 621.964,256.254 616.483,258.663 611.664,263.53 603.395,271.61 599.19,275.721 591.677,283.139 588.512,287.202 570.084,311.3 564.414,318.387 560.398,323.396 558.272,328.924 556.523,333.46 554.964,341.54 553.074,351.462 545.041,378.867 L544.711,409.155 Q544.382,443.356 544.616,464.012 548.207,467.272 550.711,472.375 552.271,475.446 555.436,482.865 556.854,485.889 557.704,492.693 558.319,498.126 562.051,503.182 565.312,507.624 569.422,510.884 573.108,513.766 575.754,517.83 576.746,519.342 581.566,530.02 584.401,536.352 588.039,537.202 589.079,537.438 597.253,541.218 602.828,543.817 606.467,542.4 608.357,541.644 610.766,541.738 612.137,541.785 614.924,541.974 620.311,542.116 625.839,537.675 630.659,533.8 640.25,530.398 648.566,527.469 650.409,524.917 651.685,523.169 653.291,523.121 654.378,523.121 656.504,524.019 661.702,526.287 665.104,524.917 668.647,523.5 677.105,520.003 684.713,517.404 690.146,518.302 693.926,518.916 703.613,522.933 712.496,526.571 717.079,526.807 721.001,527.043 727.852,532.619 733.853,537.533 737.869,536.257 740.326,535.501 742.877,536.21 743.917,536.493 747.083,538.053 752.233,540.462 756.296,537.675 758.706,536.021 762.061,535.17 763.998,534.698 767.684,534.036 774.157,532.524 776.614,526.807 779.78,519.436 782.473,514.9 785.072,510.458 789.371,505.072 790.978,503.04 798.821,496.284 804.349,491.511 805.436,487.117 806.523,482.817 810.114,478.281 814.65,472.47 815.831,470.107 817.485,466.799 819.375,462.311 821.029,459.334 824.336,458.72 827.833,458.106 828.353,459.996 828.589,460.799 828.116,465.855 827.833,469.115 826.274,471.572 L824.809,473.415 826.274,471.572 Q827.833,469.115 828.116,465.855 828.589,460.799 828.353,459.996 827.833,458.106 824.336,458.72 821.029,459.334 819.375,462.311 817.485,466.799 815.831,470.107 814.65,472.47 810.114,478.281 806.523,482.817 805.436,487.117 804.349,491.511 798.821,496.284 790.978,503.04 789.371,505.072 785.072,510.458 782.473,514.9 779.78,519.436 776.614,526.807 774.157,532.524 767.684,534.036 763.998,534.698 762.061,535.17 758.706,536.021 756.296,537.675 752.233,540.462 747.083,538.053 743.917,536.493 742.877,536.21 740.326,535.501 737.869,536.257 733.853,537.533 727.852,532.619 721.001,527.043 717.079,526.807 712.496,526.571 703.613,522.933 693.926,518.916 690.146,518.302 684.713,517.404 677.105,520.003 668.647,523.5 665.104,524.917 661.702,526.287 656.504,524.019 654.378,523.121 653.291,523.121 651.685,523.169 650.409,524.917 648.566,527.469 640.25,530.398 630.659,533.8 625.839,537.675 620.311,542.116 614.924,541.974 612.137,541.785 610.766,541.738 608.357,541.644 606.467,542.4 602.828,543.817 597.253,541.218 589.079,537.438 588.039,537.202 584.401,536.352 581.566,530.02 576.746,519.342 575.754,517.83 573.108,513.766 569.422,510.884 565.312,507.624 562.051,503.182 558.319,498.126 557.704,492.693 556.854,485.889 555.436,482.865 552.271,475.446 550.711,472.375 548.207,467.272 544.616,464.012 544.615,464.13 544.616,464.248 544.853,481.4 545.514,487.59 545.987,492.315 547.782,500.205 549.719,508.474 552.602,518.066 552.838,518.775 559.169,531.863 565.217,544.431 567.249,552.322 571.502,569.049 574.384,573.537 575.943,575.994 579.109,578.971 581.141,580.908 587.094,586.342 588.7,587.854 594.465,595.225 600.135,602.502 601.836,604.014 605.994,607.746 613.838,611.904 620.594,615.448 624.421,619.89 631.367,627.922 637.132,631.041 643.369,634.348 652.772,634.537 652.96,634.537 667.655,637.278 679.657,639.546 685.894,637.845 690.713,636.522 701.156,636.38 711.172,636.238 716.795,634.443 725.442,631.702 731.065,627.828 737.065,623.622 744.011,615.165 747.555,611 749.398,610.251 752.658,607.132 753.603,602.738 754.454,598.769 762.864,591.067 771.464,583.224 772.692,578.829 775.243,569.71 779.26,563.284 783.181,557.094 789.229,552.228 793.576,548.778 797.404,538.525 801.278,528.225 804.113,525.815 809.027,521.704 811.626,514.097 813.8,505.97 814.886,503.182 820.226,489.29 824.242,479.982 L827.171,473.415 827.786,475.257 Q829.439,477.242 834.731,478.14 840.259,479.085 844.181,474.737 846.78,471.808 847.961,467.745 848.245,466.705 846.307,456.546 844.134,445.206 844.654,436.512 845.268,426.637 849.899,416.148 852.214,410.808 857.931,401.075 861.853,394.413 862.656,389.168 863.601,382.884 860.294,377.922 855.805,371.166 853.726,370.079 849.899,368.047 843.094,372.394 842.197,376.032 840.118,382.222 836.149,394.129 836.149,398.24 836.149,403.248 834.495,410.95 833.692,414.777 832.841,417.612 823.864,384.537 820.084,371.78 816.587,360.015 806.854,335.775 796.034,308.843 792.206,304.685 787.906,300.007 774.676,288.998 761.305,277.847 755.351,273.972 752.8,272.319 745.665,265.609 740.94,261.168 737.396,261.168 732.955,261.168 728.135,264.759 M792.679,390.633 Q797.829,398.193 797.876,398.24 797.829,398.193 792.679,390.633 788.615,384.632 784.646,382.647 780.441,380.568 768.298,382.08 754.642,384.301 750.154,385.01 743.633,386.049 730.262,391.341 717.315,396.444 711.409,400.13 717.315,396.444 730.262,391.341 743.633,386.049 750.154,385.01 754.642,384.301 768.298,382.08 780.441,380.568 784.646,382.647 788.615,384.632 792.679,390.633 M777.37,407.973 L776.283,412.698 Q774.724,417.99 772.361,420.92 769.384,424.653 764.849,426.07 759.84,427.629 752.044,426.59 739.428,424.936 738.341,406.934 733.167,408.856 727.946,411.281 L723.694,413.36 727.946,411.281 Q733.167,408.856 738.341,406.934 738.412,406.912 738.483,406.886 754.69,400.98 764.801,402.02 769.195,402.484 777.37,407.973 778.335,408.623 779.354,409.344 789.135,416.289 791.734,416.667 789.135,416.289 779.354,409.344 778.335,408.623 777.37,407.973 M781.386,430.795 Q786.064,428.81 787.009,425.645 786.064,428.81 781.386,430.795 777.842,432.26 773.306,432.732 777.842,432.26 781.386,430.795 M749.02,452.152 Q755.446,452.814 760.076,450.687 755.446,452.814 749.02,452.152 742.546,451.491 738.341,448.325 742.546,451.491 749.02,452.152 M726.056,421.865 Q729.458,429.567 736.451,432.732 729.458,429.567 726.056,421.865 M714.763,485.652 L714.716,482.392 714.763,485.652 Q714.669,489.29 713.771,491.37 712.873,493.448 707.582,495.669 L702.431,497.512 Q699.313,498.032 697.706,493.401 697.706,493.59 697.706,493.732 697.706,497.087 695.486,500.725 693.029,504.647 688.256,508.38 683.012,512.49 676.444,512.16 669.262,511.781 661.796,506.017 655.465,501.15 652.866,491.133 650.882,483.621 651.354,475.304 651.637,470.107 656.221,455.318 661.088,440.292 661.796,437.457 662.741,433.914 662.836,422.006 662.741,409.58 662.741,407.217 662.741,402.303 660.615,397.059 657.78,390.207 652.772,388.317 649.7,387.183 643.132,386.427 637.037,385.719 631.036,383.12 622.72,379.482 610.199,377.355 597.395,375.135 591.819,376.505 586.385,377.875 579.77,382.222 573.628,386.333 569.139,391.152 573.628,386.333 579.77,382.222 586.385,377.875 591.819,376.505 597.395,375.135 610.199,377.355 622.72,379.482 631.036,383.12 637.037,385.719 643.132,386.427 649.7,387.183 652.772,388.317 657.78,390.207 660.615,397.059 662.741,402.303 662.741,407.217 662.741,409.58 662.836,422.006 662.741,433.914 661.796,437.457 661.088,440.292 656.221,455.318 651.637,470.107 651.354,475.304 650.882,483.621 652.866,491.133 655.465,501.15 661.796,506.017 669.262,511.781 676.444,512.16 683.012,512.49 688.256,508.38 693.029,504.647 695.486,500.725 697.706,497.087 697.706,493.732 697.706,493.59 697.706,493.401 697.328,492.362 697.045,491.039 L696.289,483.809 696.998,487.164 Q697.659,490.85 697.706,493.401 699.313,498.032 702.431,497.512 L707.582,495.669 Q712.873,493.448 713.771,491.37 714.669,489.29 714.763,485.652 M719.441,546.652 Q722.418,547.408 727.993,551.755 734.041,556.433 736.924,557.52 740.373,558.843 740.373,566.214 740.373,571.033 740.373,571.411 740.562,573.915 741.649,574.53 744.956,576.42 745.901,578.735 747.177,581.759 743.066,583.98 742.358,584.358 730.12,589.933 721.237,593.997 718.969,596.265 717.835,597.399 716.795,599.761 L715.094,603.73 Q712.732,608.171 707.629,607.605 701.486,606.943 696.95,607.179 692.839,607.416 688.729,608.55 678.853,611.243 675.593,611.81 665.765,613.464 662.741,610.44 652.488,600.328 646.156,596.265 643.7,594.705 640.25,589.083 637.037,583.791 634.344,582.562 631.226,581.145 630.139,579.302 629.147,576.892 627.729,575.002 625.981,572.64 625.981,569.332 L626.312,566.497 Q628.485,560.638 632.407,555.393 634.155,553.078 639.541,547.125 642.14,544.242 647.243,543.061 653.244,541.596 655.607,540.037 658.82,537.911 665.246,537.675 672.664,537.438 674.554,536.73 677.058,535.832 685.705,536.966 694.777,538.194 698.651,537.202 703.046,536.115 709.755,540.699 717.929,546.274 719.441,546.652 M644.267,408.635 Q635.355,404.178 632.123,402.681 L632.549,403.768 Q632.832,405.753 631.982,410.052 630.848,415.959 626.926,418.935 622.106,422.668 612.609,422.337 603.584,422.006 599.285,416.148 596.638,412.415 595.457,405.233 584.218,409.588 581.424,413.36 584.218,409.588 595.457,405.233 595.62,405.203 595.788,405.138 602.261,402.729 609.916,400.697 616.531,398.948 619.224,398.712 622.579,398.429 631.226,402.256 631.603,402.424 632.123,402.681 635.355,404.178 644.267,408.635 M639.731,426.637 Q642.377,423.188 642.377,419.502 642.377,423.188 639.731,426.637 637.274,429.803 633.872,431.315 637.274,429.803 639.731,426.637 M586.433,431.268 Q590.874,434.953 595.599,436.04 590.874,434.953 586.433,431.268 581.802,427.393 579.062,421.865 581.802,427.393 586.433,431.268 M595.127,444.545 Q600.041,448.845 602.12,449.695 607.506,451.869 615.444,448.797 607.506,451.869 602.12,449.695 600.041,448.845 595.127,444.545 M782.237,230.408 Q777.417,228.99 775.291,227.62 772.361,225.825 771.889,222.895 770.991,217.603 779.165,212.642 783.229,210.138 787.481,208.72 783.371,208.248 777.937,208.484 767.069,208.956 760.549,212.5 757.052,214.437 754.075,213.965 752.091,213.681 749.161,211.933 745.712,209.854 744.153,209.334 740.987,208.248 737.396,209.193 731.396,210.752 719.961,205.365 713.252,202.2 712.354,201.822 708.715,200.404 707.156,201.16 703.991,202.767 684.098,201.869 666.521,201.066 657.497,199.743 651.543,198.845 642.613,191.427 L634.816,184.15 635.478,187.41 Q636.187,191.238 636.281,194.262 636.659,203.806 631.036,201.16 625.414,198.514 613.507,198.136 L602.687,198.325 610.435,205.413 Q617.145,212.264 612.137,211.083 607.128,209.901 596.591,214.154 L587.094,218.643 589.267,218.784 Q591.772,219.068 593.426,219.777 598.718,221.997 593.709,227.62 583.078,239.527 577.691,246.426 566.162,261.215 556.382,278.697 548.444,292.872 545.797,326.184 544.144,347.304 544.805,371.638 544.9,376.174 545.041,378.867 553.074,351.462 554.964,341.54 556.523,333.46 558.272,328.924 560.398,323.396 564.414,318.387 570.084,311.3 588.512,287.202 591.677,283.139 599.19,275.721 603.395,271.61 611.664,263.53 616.483,258.663 621.964,256.254 625.272,254.789 632.926,252.19 635.903,251.056 637.179,251.623 638.219,252.048 638.786,253.986 639.116,255.072 639.92,257.907 640.912,260.459 642.849,262.113 644.408,263.436 652.252,272.697 658.3,279.879 662.741,281.532 666.569,282.95 681.263,289.14 695.108,294.573 700.069,294.29 705.361,293.959 712.637,285.36 718.213,278.839 721.331,272.555 723.552,268.113 728.135,264.759 732.955,261.168 737.396,261.168 740.94,261.168 745.665,265.609 752.8,272.319 755.351,273.972 761.305,277.847 774.676,288.998 787.906,300.007 792.206,304.685 796.034,308.843 806.854,335.775 816.587,360.015 820.084,371.78 823.864,384.537 832.841,417.612 833.692,414.777 834.495,410.95 836.149,403.248 836.149,398.24 836.149,394.129 840.118,382.222 842.197,376.032 843.094,372.394 843.803,369.275 843.709,368 843.473,365.401 842.197,357.51 840.685,348.533 839.929,342.012 837.236,318.813 836.858,315.033 834.92,296.227 835.204,290.51 835.535,284.084 821.312,263.672 807.61,243.969 799.294,237.543 794.9,234.141 782.237,230.408Z" test="JeanRenoFace" vector-effect="non-scaling-stroke" stroke-width="1"/>
        <path id="Layer3_0_1_STROKES" stroke="#FFF" stroke-width="1.89" stroke-linejoin="round" stroke-linecap="round" fill="none" d="M545.041,378.867 Q544.9,376.174 544.805,371.638 544.144,347.304 545.797,326.184 548.444,292.872 556.382,278.697 566.162,261.215 577.691,246.426 583.078,239.527 593.709,227.62 598.718,221.997 593.426,219.777 591.772,219.068 589.267,218.784 L587.094,218.643 596.591,214.154 Q607.128,209.901 612.137,211.083 617.145,212.264 610.435,205.413 L602.687,198.325 613.507,198.136 Q625.414,198.514 631.036,201.16 636.659,203.806 636.281,194.262 636.187,191.238 635.478,187.41 L634.816,184.15 642.613,191.427 Q651.543,198.845 657.497,199.743 666.521,201.066 684.098,201.869 703.991,202.767 707.156,201.16 708.715,200.404 712.354,201.822 713.252,202.2 719.961,205.365 731.396,210.752 737.396,209.193 740.987,208.248 744.153,209.334 745.712,209.854 749.161,211.933 752.091,213.681 754.075,213.965 757.052,214.437 760.549,212.5 767.069,208.956 777.937,208.484 783.371,208.248 787.481,208.72 783.229,210.138 779.165,212.642 770.991,217.603 771.889,222.895 772.361,225.825 775.291,227.62 777.417,228.99 782.237,230.408 794.9,234.141 799.294,237.543 807.61,243.969 821.312,263.672 835.535,284.084 835.204,290.51 834.92,296.227 836.858,315.033 837.236,318.813 839.929,342.012 840.685,348.533 842.197,357.51 843.473,365.401 843.709,368 843.803,369.275 843.094,372.394 849.899,368.047 853.726,370.079 855.805,371.166 860.294,377.922 863.601,382.884 862.656,389.168 861.853,394.413 857.931,401.075 852.214,410.808 849.899,416.148 845.268,426.637 844.654,436.512 844.134,445.206 846.307,456.546 848.245,466.705 847.961,467.745 846.78,471.808 844.181,474.737 840.259,479.085 834.731,478.14 829.439,477.242 827.786,475.257 L827.171,473.415 824.242,479.982 Q820.226,489.29 814.886,503.182 813.8,505.97 811.626,514.097 809.027,521.704 804.113,525.815 801.278,528.225 797.404,538.525 793.576,548.778 789.229,552.228 783.181,557.094 779.26,563.284 775.243,569.71 772.692,578.829 771.464,583.224 762.864,591.067 754.454,598.769 753.603,602.738 752.658,607.132 749.398,610.251 747.555,611 744.011,615.165 737.065,623.622 731.065,627.828 725.442,631.702 716.795,634.443 711.172,636.238 701.156,636.38 690.713,636.522 685.894,637.845 679.657,639.546 667.655,637.278 652.96,634.537 652.772,634.537 643.369,634.348 637.132,631.041 631.367,627.922 624.421,619.89 620.594,615.448 613.838,611.904 605.994,607.746 601.836,604.014 600.135,602.502 594.465,595.225 588.7,587.854 587.094,586.342 581.141,580.908 579.109,578.971 575.943,575.994 574.384,573.537 571.502,569.049 567.249,552.322 565.217,544.431 559.169,531.863 552.838,518.775 552.602,518.066 549.719,508.474 547.782,500.205 545.987,492.315 545.514,487.59 544.853,481.4 544.616,464.248 544.615,464.13 544.616,464.012 544.382,443.356 544.711,409.155 L545.041,378.867 Q553.074,351.462 554.964,341.54 556.523,333.46 558.272,328.924 560.398,323.396 564.414,318.387 570.084,311.3 588.512,287.202 591.677,283.139 599.19,275.721 603.395,271.61 611.664,263.53 616.483,258.663 621.964,256.254 625.272,254.789 632.926,252.19 635.903,251.056 637.179,251.623 638.219,252.048 638.786,253.986 639.116,255.072 639.92,257.907 640.912,260.459 642.849,262.113 644.408,263.436 652.252,272.697 658.3,279.879 662.741,281.532 666.569,282.95 681.263,289.14 695.108,294.573 700.069,294.29 705.361,293.959 712.637,285.36 718.213,278.839 721.331,272.555 723.552,268.113 728.135,264.759 732.955,261.168 737.396,261.168 740.94,261.168 745.665,265.609 752.8,272.319 755.351,273.972 761.305,277.847 774.676,288.998 787.906,300.007 792.206,304.685 796.034,308.843 806.854,335.775 816.587,360.015 820.084,371.78 823.864,384.537 832.841,417.612 833.692,414.777 834.495,410.95 836.149,403.248 836.149,398.24 836.149,394.129 840.118,382.222 842.197,376.032 843.094,372.394 M711.409,400.13 Q717.315,396.444 730.262,391.341 743.633,386.049 750.154,385.01 754.642,384.301 768.298,382.08 780.441,380.568 784.646,382.647 788.615,384.632 792.679,390.633 797.829,398.193 797.876,398.24 M738.341,406.934 Q739.428,424.936 752.044,426.59 759.84,427.629 764.849,426.07 769.384,424.653 772.361,420.92 774.724,417.99 776.283,412.698 L777.37,407.973 Q769.195,402.484 764.801,402.02 754.69,400.98 738.483,406.886 738.412,406.912 738.341,406.934 733.167,408.856 727.946,411.281 L723.694,413.36 M777.37,407.973 Q778.335,408.623 779.354,409.344 789.135,416.289 791.734,416.667 M773.306,432.732 Q777.842,432.26 781.386,430.795 786.064,428.81 787.009,425.645 M544.616,464.012 Q548.207,467.272 550.711,472.375 552.271,475.446 555.436,482.865 556.854,485.889 557.704,492.693 558.319,498.126 562.051,503.182 565.312,507.624 569.422,510.884 573.108,513.766 575.754,517.83 576.746,519.342 581.566,530.02 584.401,536.352 588.039,537.202 589.079,537.438 597.253,541.218 602.828,543.817 606.467,542.4 608.357,541.644 610.766,541.738 612.137,541.785 614.924,541.974 620.311,542.116 625.839,537.675 630.659,533.8 640.25,530.398 648.566,527.469 650.409,524.917 651.685,523.169 653.291,523.121 654.378,523.121 656.504,524.019 661.702,526.287 665.104,524.917 668.647,523.5 677.105,520.003 684.713,517.404 690.146,518.302 693.926,518.916 703.613,522.933 712.496,526.571 717.079,526.807 721.001,527.043 727.852,532.619 733.853,537.533 737.869,536.257 740.326,535.501 742.877,536.21 743.917,536.493 747.083,538.053 752.233,540.462 756.296,537.675 758.706,536.021 762.061,535.17 763.998,534.698 767.684,534.036 774.157,532.524 776.614,526.807 779.78,519.436 782.473,514.9 785.072,510.458 789.371,505.072 790.978,503.04 798.821,496.284 804.349,491.511 805.436,487.117 806.523,482.817 810.114,478.281 814.65,472.47 815.831,470.107 817.485,466.799 819.375,462.311 821.029,459.334 824.336,458.72 827.833,458.106 828.353,459.996 828.589,460.799 828.116,465.855 827.833,469.115 826.274,471.572 L824.809,473.415 M763.384,408.635 L767.164,409.58 M738.341,448.325 Q742.546,451.491 749.02,452.152 755.446,452.814 760.076,450.687 M726.056,421.865 Q729.458,429.567 736.451,432.732 M697.706,493.401 Q699.313,498.032 702.431,497.512 L707.582,495.669 Q712.873,493.448 713.771,491.37 714.669,489.29 714.763,485.652 L714.716,482.392 M697.706,493.401 Q697.659,490.85 696.998,487.164 L696.289,483.809 697.045,491.039 Q697.328,492.362 697.706,493.401 697.706,493.59 697.706,493.732 697.706,497.087 695.486,500.725 693.029,504.647 688.256,508.38 683.012,512.49 676.444,512.16 669.262,511.781 661.796,506.017 655.465,501.15 652.866,491.133 650.882,483.621 651.354,475.304 651.637,470.107 656.221,455.318 661.088,440.292 661.796,437.457 662.741,433.914 662.836,422.006 662.741,409.58 662.741,407.217 662.741,402.303 660.615,397.059 657.78,390.207 652.772,388.317 649.7,387.183 643.132,386.427 637.037,385.719 631.036,383.12 622.72,379.482 610.199,377.355 597.395,375.135 591.819,376.505 586.385,377.875 579.77,382.222 573.628,386.333 569.139,391.152 M640.959,562.717 Q645.117,560.071 650.693,558.465 656.741,556.716 661.796,557.047 664.537,557.236 670.727,559.457 675.924,561.347 680.696,560.827 684.476,560.402 691.564,557.898 697.848,555.63 702.431,555.63 708.29,555.63 713.44,557.992 717.599,559.929 720.859,563.19 M626.312,566.497 Q628.485,560.638 632.407,555.393 634.155,553.078 639.541,547.125 642.14,544.242 647.243,543.061 653.244,541.596 655.607,540.037 658.82,537.911 665.246,537.675 672.664,537.438 674.554,536.73 677.058,535.832 685.705,536.966 694.777,538.194 698.651,537.202 703.046,536.115 709.755,540.699 717.929,546.274 719.441,546.652 722.418,547.408 727.993,551.755 734.041,556.433 736.924,557.52 740.373,558.843 740.373,566.214 740.373,571.033 740.373,571.411 740.562,573.915 741.649,574.53 744.956,576.42 745.901,578.735 747.177,581.759 743.066,583.98 742.358,584.358 730.12,589.933 721.237,593.997 718.969,596.265 717.835,597.399 716.795,599.761 L715.094,603.73 Q712.732,608.171 707.629,607.605 701.486,606.943 696.95,607.179 692.839,607.416 688.729,608.55 678.853,611.243 675.593,611.81 665.765,613.464 662.741,610.44 652.488,600.328 646.156,596.265 643.7,594.705 640.25,589.083 637.037,583.791 634.344,582.562 631.226,581.145 630.139,579.302 629.147,576.892 627.729,575.002 625.981,572.64 625.981,569.332 L626.312,566.497Z M544.097,371.307 Q538.899,364.362 530.772,364.031 522.739,363.747 520.944,369.89 519.716,374.095 525.953,387.656 532.757,402.351 532.757,407.217 532.757,412.415 532.993,430.653 532.993,447.427 531.811,453.05 530.536,459.192 532.804,461.319 534.599,462.972 538.426,462.075 M644.267,408.635 Q635.355,404.178 632.147,402.681 L632.549,403.768 Q632.832,405.753 631.982,410.052 630.848,415.959 626.926,418.935 622.106,422.668 612.609,422.337 603.584,422.006 599.285,416.148 596.638,412.415 595.457,405.256 584.218,409.588 581.424,413.36 M632.147,402.681 Q631.603,402.424 631.226,402.256 622.579,398.429 619.224,398.712 616.531,398.948 609.916,400.697 602.261,402.729 595.788,405.138 595.62,405.203 595.457,405.256 M620.169,404.855 L622.531,405.327 M633.872,431.315 Q637.274,429.803 639.731,426.637 642.377,423.188 642.377,419.502 M579.062,421.865 Q581.802,427.393 586.433,431.268 590.874,434.953 595.599,436.04 M595.127,444.545 Q600.041,448.845 602.12,449.695 607.506,451.869 615.444,448.797 M675.026,546.652 Q683.531,548.07 687.784,548.07 M675.499,568.86 Q679.137,568.387 680.176,568.434 682.397,568.529 685.894,569.805" test="JeanRenoFace"/>
      </g>
      <g id="TearAnimf11r1">
        <use xlink:href="#TearGraphic" transform="matrix(.914 0 0 .914 617.45 437.4)"/>
      </g>
      <g id="TearAnimf26r1">
        <use xlink:href="#TearGraphic" transform="matrix(.914 0 0 .914 617.45 575.75)"/>
      </g>
    </g>
    <g id="BlackMaskRect">
      <path fill="#000" stroke="none" d="M823.45,613.6 L823.45,508.3 -23.6,508.3 -23.6,613.6 823.45,613.6Z" test="BlackMaskRect"/>
    </g>
  </g>
</svg>