<?xml version="1.0" encoding="utf-8"?>
<svg id="EdithAnim06" image-rendering="inherit" baseProfile="basic" version="1.1" x="0px" y="0px" width="800" height="600" xmlns="http://www.w3.org/2000/svg" xmlns:xlink="http://www.w3.org/1999/xlink">
  <defs>
    <g id="TearGraphic" overflow="visible">
      <path id="Layer4_0_1_STROKES" stroke="#0FF" stroke-width="1" stroke-linejoin="round" stroke-linecap="round" fill="none" d="M-1.15 1.6Q-1.25 5.75 -2.25 8.6 -3.4 11.65 -6.8 16.5 -10.25 21.45 -8.25 27.95 -6.25 34.6 -.7 34.8 4.75 35 7.25 30.15 9.3 26.2 8.9 20.65 8.7 17.9 4.8 12.25 .55 6.05 -.7 0" test="TearGraphic"/>
    </g>
  </defs>
  <g id="Jean-Renof172r1" overflow="visible">
    <g id="Jean-Reno-body">
      <path id="Layer2_0_1_STROKES" stroke="#FEB7AE" stroke-width="1.89" stroke-linejoin="round" stroke-linecap="round" fill="none" d="M771.095,448.667 Q777.237,454.809 815.557,460.952 841.308,465.11 868.477,467.567 875.753,468.229 918.326,476.923 954.661,484.294 961.087,482.687 970.868,480.23 978.333,477.253 987.83,473.426 996.997,467.567 1006.116,461.708 1018.307,459.913 1028.513,458.353 1036.734,460.007 1042.64,461.188 1048.31,463.078 1051.145,464.023 1052.799,464.732 1051.145,465.204 1049.255,466.197 1045.57,468.229 1044.672,471.016 1043.774,473.804 1046.846,476.639 1048.405,478.009 1050.106,478.86 1048.216,479.616 1046.515,480.986 1043.066,483.727 1043.963,486.656 1044.861,489.633 1050.531,490.909 1053.366,491.57 1056.012,491.617 L1057.052,497.665 Q1058.516,503.997 1060.737,505.32 1062.958,506.643 1068.344,504.091 1071.038,502.863 1073.258,501.304 L1075.054,505.32 Q1077.511,509.242 1081.055,508.627 1084.598,508.06 1087.575,504.989 1089.04,503.43 1089.796,502.012 L1093.245,503.43 Q1096.931,504.611 1098.112,503.43 1099.293,502.249 1100.238,498.941 L1100.947,495.87 1103.215,508.816 Q1105.294,522.613 1104.254,526.582 1104.16,526.913 1103.168,531.78 1102.459,535.229 1101.561,537.497 1098.915,544.254 1092.158,547.845 M1024.354,502.485 Q1032.576,500.5 1043.822,502.438 1060.217,505.225 1068.77,516.187 1072.077,520.44 1078.976,529.181 1084.882,536.883 1088.189,543.073 1097.12,559.799 1093.576,576.904 1090.079,593.725 1080.724,609.175 1076.424,616.263 1068.061,626.516 1065.698,629.398 1056.91,636.297 1046.468,644.471 1033.757,652.693 998.273,675.703 966.001,685.626 L950.267,690.469 Q952.906,693.77 955.039,704.431 957.212,715.299 956.315,721.3 955.559,726.402 958.252,729.805 958.961,730.75 962.457,733.348 965.245,735.427 969.45,742.042 974.884,750.547 973.797,755.556 972.663,760.989 967.749,766.234 963.308,770.912 959.386,772.093 956.456,772.991 950.881,773.085 L945.92,773.038 952.346,774.361 Q959.575,776.676 963.875,781.543 969.45,787.875 971.718,792.316 974.364,797.419 972.852,800.443 971.813,802.57 969.025,808.996 965.576,814.949 959.15,817.926 953.149,820.714 940.061,817.642 933.493,815.894 930.705,815.185 925.98,814.004 924.185,814.146 921.822,814.335 903.253,819.06 884.447,823.879 877.88,824.541 870.981,825.249 862.712,821.753 858.838,819.958 857.279,819.343 854.727,818.257 853.546,818.398 849.766,818.587 847.829,818.824 844.474,819.296 841.97,821.233 839.135,823.407 835.26,822.462 831.575,821.564 830.63,819.107 829.543,816.319 829.637,814.666 829.779,812.35 832.047,810.602 834.126,808.996 837.434,808.429 839.087,808.192 840.316,808.239 839.418,807.2 838.804,805.83 837.575,803.089 838.898,801.624 840.363,800.018 844.19,799.215 847.403,798.553 850.002,798.79 851.136,798.884 848.585,797.089 845.419,794.868 846.458,793.828 847.687,792.6 850.853,792.694 852.317,792.742 855.908,793.356 857.137,793.545 859.121,794.962 860.539,796.002 861.578,795.482 864.886,793.828 869.327,791.749 876.131,788.584 878.825,787.686 883.077,786.268 887.33,785.323 M783.096,449.754 Q787.254,447.769 802.138,438.886 816.124,430.996 821.132,430.854 834.126,430.476 838.142,430.854 850.947,432.035 862.76,437.941 888.086,450.604 891.724,452.494 907.931,461.094 914.971,466.764 921.775,472.245 927.445,475.505 930.28,477.159 931.745,477.679 M760.416,513.778 Q760.416,509.714 761.408,504.706 763.44,494.641 768.449,489.916 778.985,479.994 792.546,482.12 797.744,482.923 807.902,489.16 817.258,494.878 819.715,497.949 821.652,500.359 826.472,501.256 830.157,501.965 835.071,501.729 837.717,501.634 851.656,500.642 865.075,499.886 868.902,500.784 875.234,502.249 889.881,507.21 906.655,512.927 909.773,515.431 912.136,517.321 920.168,524.314 927.681,530.551 930.563,531.733 933.871,533.055 934.391,533.953 934.721,534.568 934.107,536.741 933.871,537.592 934.391,543.876 934.91,550.727 934.107,556.113 933.115,562.776 928.012,580.211 923.192,596.654 920.641,602.891 918.562,608.041 911.994,619.476 905.993,629.918 903.867,632.659 902.402,634.596 899.095,638.517 L896.071,642.108 900.607,642.865 Q905.71,643.857 908.356,645.18 910.482,646.267 915.113,648.44 918.987,650.708 921.113,654.157 923.901,658.693 924.563,660.961 925.413,663.938 924.421,667.387 923.429,670.789 921.066,674.428 919.129,677.404 916.861,679.672 913.79,682.743 911.9,684.256 908.545,686.949 906.23,687.232 903.158,687.658 901.741,687.516 899.567,687.28 895.835,685.815 892.811,684.633 890.684,682.177 887.708,678.775 885.676,677.31 882.841,675.231 881.376,672.301 879.533,668.521 877.643,666.442 874.525,662.993 872.493,661.765 871.028,660.914 868.193,660.3 865.925,659.827 865.547,659.922 864.177,660.536 861.815,661.481 857.562,663.655 855.956,664.269 853.357,665.214 851.892,663.135 849.577,659.922 849.199,658.835 848.443,656.709 849.53,653.685 850.853,650.094 851.372,649.385 852.176,648.393 855.2,647.07 859.736,645.038 865.831,647.07 866.492,647.306 865.831,643.857 864.13,634.596 864.083,634.36 861.437,617.633 863.941,604.309 866.256,592.165 872.399,573.596 877.36,558.618 876.935,557.059 876.415,555.121 862.571,555.688 847.167,556.35 844.805,555.405 842.159,554.365 827.322,550.349 813.478,546.569 812.627,545.955 M739.862,524.22 Q753.092,536.552 760.511,541.797 780.261,555.83 804.359,562.728 827.984,569.533 850.238,576.856 861.342,580.495 867.721,582.81 M896.732,780.126 Q895.74,775.968 877.832,743.649 859.594,710.668 858.224,706.416 855.483,697.816 853.357,687.658 850.758,675.278 851.845,672.585 852.932,669.986 855.908,667.293 857.846,665.497 860.114,664.08 M887.046,775.401 Q885.77,776.346 883.786,777.244 879.911,779.086 876.651,778.945 873.296,778.803 867.107,776.346 862.618,774.55 859.877,773.038 858.885,772.471 858.129,770.345 857.468,768.55 856.334,768.55 855.2,768.55 852.743,770.676 849.955,773.085 848.774,773.511 846.978,774.172 843.387,773.227 840.221,772.377 838.379,771.148 836.914,770.203 836.536,768.03 836.3,766.518 836.489,763.352 836.63,761.037 837.953,759.666 838.001,759.572 840.977,757.209 842.442,756.028 844.001,755.556 844.757,755.32 845.23,755.32 M853.499,755.792 Q853.31,754.989 853.546,753.949 853.924,751.87 855.861,750.831 857.798,749.791 861.106,750.122 862.949,750.311 866.02,750.831 867.39,750.973 869.942,752.107 872.351,753.193 873.107,753.193 M887.33,792.647 Q880.195,796.38 872.399,800.16 856.901,807.814 853.782,808.239 850.664,808.665 847.309,808.523 L844.568,808.239 M950.267,690.469 L950.219,690.493 Q931.745,696.163 931.319,696.163 931.225,696.163 935.572,712.369 939.824,730.419 939.068,739.018 L937.273,758.769 Q935.903,779.181 938.123,782.725" test="Jean Reno body"/>
    </g>
    <g id="Jean-Renof103r1">
      <g id="JeanRenoFace">
        <path fill="#000" stroke="none" d="M783.135,294.109 Q778.552,297.463 776.331,301.905 773.213,308.189 767.637,314.71 760.361,323.309 755.069,323.64 750.108,323.923 736.263,318.49 721.569,312.3 717.741,310.882 713.3,309.229 707.252,302.047 699.408,292.786 697.849,291.463 695.912,289.809 694.92,287.257 694.116,284.422 693.786,283.336 693.219,281.398 692.179,280.973 690.903,280.406 687.926,281.54 680.272,284.139 676.964,285.604 671.483,288.013 666.664,292.88 658.395,300.96 654.19,305.071 646.677,312.489 643.512,316.552 625.084,340.65 619.414,347.737 615.398,352.746 613.272,358.274 611.523,362.81 609.964,370.89 608.074,380.812 600.041,408.217 L599.711,438.505 Q599.382,472.706 599.616,493.362 603.207,496.622 605.711,501.725 607.271,504.796 610.436,512.215 611.854,515.238 612.704,522.043 613.319,527.476 617.051,532.532 620.312,536.974 624.422,540.234 628.108,543.116 630.754,547.18 631.746,548.691 636.566,559.37 639.401,565.701 643.039,566.552 644.079,566.788 652.253,570.568 657.828,573.167 661.467,571.75 663.357,570.994 665.766,571.088 667.137,571.135 669.924,571.324 675.311,571.466 680.839,567.025 685.659,563.15 695.25,559.748 703.566,556.819 705.409,554.267 706.685,552.519 708.291,552.472 709.378,552.472 711.504,553.369 716.702,555.637 720.104,554.267 723.647,552.85 732.105,549.353 739.713,546.754 745.146,547.652 748.926,548.266 758.613,552.283 767.496,555.921 772.079,556.157 776.001,556.393 782.852,561.969 788.853,566.883 792.869,565.607 795.326,564.851 797.877,565.56 798.917,565.843 802.083,567.402 807.233,569.812 811.296,567.025 813.706,565.371 817.061,564.52 818.998,564.048 822.684,563.386 829.157,561.874 831.614,556.157 834.78,548.786 837.473,544.25 840.072,539.809 844.371,534.422 845.978,532.39 853.821,525.633 859.349,520.861 860.436,516.467 861.523,512.167 865.114,507.631 869.65,501.82 870.831,499.457 872.485,496.15 874.375,491.661 876.029,488.684 879.336,488.07 882.833,487.456 883.353,489.345 883.589,490.149 883.116,495.205 882.833,498.465 881.274,500.922 L879.809,502.765 881.274,500.922 Q882.833,498.465 883.116,495.205 883.589,490.149 883.353,489.345 882.833,487.456 879.336,488.07 876.029,488.684 874.375,491.661 872.485,496.15 870.831,499.457 869.65,501.82 865.114,507.631 861.523,512.167 860.436,516.467 859.349,520.861 853.821,525.633 845.978,532.39 844.371,534.422 840.072,539.809 837.473,544.25 834.78,548.786 831.614,556.157 829.157,561.874 822.684,563.386 818.998,564.048 817.061,564.52 813.706,565.371 811.296,567.025 807.233,569.812 802.083,567.402 798.917,565.843 797.877,565.56 795.326,564.851 792.869,565.607 788.853,566.883 782.852,561.969 776.001,556.393 772.079,556.157 767.496,555.921 758.613,552.283 748.926,548.266 745.146,547.652 739.713,546.754 732.105,549.353 723.647,552.85 720.104,554.267 716.702,555.637 711.504,553.369 709.378,552.472 708.291,552.472 706.685,552.519 705.409,554.267 703.566,556.819 695.25,559.748 685.659,563.15 680.839,567.025 675.311,571.466 669.924,571.324 667.137,571.135 665.766,571.088 663.357,570.994 661.467,571.75 657.828,573.167 652.253,570.568 644.079,566.788 643.039,566.552 639.401,565.701 636.566,559.37 631.746,548.691 630.754,547.18 628.108,543.116 624.422,540.234 620.312,536.974 617.051,532.532 613.319,527.476 612.704,522.043 611.854,515.238 610.436,512.215 607.271,504.796 605.711,501.725 603.207,496.622 599.616,493.362 599.615,493.48 599.616,493.598 599.853,510.75 600.514,516.939 600.987,521.665 602.782,529.555 604.719,537.824 607.602,547.416 607.838,548.125 614.169,561.213 620.217,573.781 622.249,581.672 626.502,598.399 629.384,602.887 630.943,605.344 634.109,608.321 636.141,610.258 642.094,615.692 643.7,617.204 649.465,624.575 655.135,631.852 656.836,633.363 660.994,637.096 668.838,641.254 675.594,644.798 679.421,649.24 686.367,657.272 692.132,660.391 698.369,663.698 707.772,663.887 707.96,663.887 722.655,666.628 734.657,668.896 740.894,667.195 745.713,665.872 756.156,665.73 766.172,665.588 771.795,663.793 780.442,661.052 786.065,657.178 792.065,652.972 799.011,644.515 802.555,641.349 804.398,639.601 807.658,636.482 808.603,632.088 809.454,628.119 817.864,620.417 826.464,612.574 827.692,608.179 830.243,599.06 834.26,592.634 838.181,586.444 844.229,581.578 848.576,578.128 852.404,567.875 856.278,557.575 859.113,555.165 864.027,551.054 866.626,543.447 868.8,535.32 869.886,532.532 875.226,518.641 879.242,509.332 L882.171,502.765 882.786,504.607 Q884.439,506.592 889.731,507.49 895.259,508.435 899.181,504.088 901.78,501.158 902.961,497.095 903.245,496.055 901.307,485.896 899.134,474.556 899.654,465.862 900.268,455.987 904.899,445.497 907.214,440.158 912.931,430.425 916.853,423.763 917.656,418.518 918.601,412.234 915.294,407.272 910.805,400.516 908.726,399.429 904.899,397.397 898.094,401.744 897.197,405.382 895.118,411.572 891.149,423.479 891.149,427.59 891.149,432.598 889.495,440.3 888.692,444.127 887.841,446.962 878.864,413.887 875.084,401.13 871.587,389.365 861.854,365.125 851.034,338.193 847.206,334.035 842.906,329.357 829.676,318.348 816.305,307.197 810.351,303.322 807.8,301.669 800.665,294.959 795.94,290.518 792.396,290.518 787.955,290.518 783.135,294.109 M847.679,419.982 Q852.829,427.543 852.876,427.59 852.829,427.543 847.679,419.982 843.615,413.982 839.646,411.997 835.441,409.918 823.298,411.43 809.642,413.651 805.154,414.36 798.633,415.399 785.262,420.691 772.315,425.794 766.409,429.48 772.315,425.794 785.262,420.691 798.633,415.399 805.154,414.36 809.642,413.651 823.298,411.43 835.441,409.918 839.646,411.997 843.615,413.982 847.679,419.982 M832.37,437.323 L831.283,442.048 Q829.724,447.34 827.361,450.27 824.384,454.003 819.849,455.42 814.84,456.979 807.044,455.94 794.428,454.286 793.341,436.284 788.167,438.206 782.946,440.631 L778.694,442.71 782.946,440.631 Q788.167,438.206 793.341,436.284 793.412,436.262 793.483,436.237 809.69,430.33 819.801,431.37 824.195,431.834 832.37,437.323 833.335,437.973 834.354,438.694 844.135,445.639 846.734,446.017 844.135,445.639 834.354,438.694 833.335,437.973 832.37,437.323 M836.386,460.145 Q841.064,458.16 842.009,454.995 841.064,458.16 836.386,460.145 832.842,461.61 828.306,462.082 832.842,461.61 836.386,460.145 M804.02,481.502 Q810.446,482.164 815.076,480.037 810.446,482.164 804.02,481.502 797.546,480.84 793.341,477.675 797.546,480.84 804.02,481.502 M781.056,451.215 Q784.458,458.917 791.451,462.082 784.458,458.917 781.056,451.215 M769.763,515.002 L769.716,511.742 769.763,515.002 Q769.669,518.641 768.771,520.719 767.873,522.799 762.582,525.019 L757.431,526.862 Q754.313,527.382 752.706,522.751 752.706,522.94 752.706,523.082 752.706,526.437 750.486,530.075 748.029,533.997 743.256,537.73 738.012,541.84 731.444,541.51 724.262,541.132 716.796,535.367 710.465,530.5 707.866,520.483 705.882,512.97 706.354,504.655 706.637,499.457 711.221,484.668 716.088,469.642 716.796,466.807 717.741,463.264 717.836,451.357 717.741,438.93 717.741,436.567 717.741,431.653 715.615,426.409 712.78,419.557 707.772,417.667 704.7,416.533 698.132,415.777 692.037,415.069 686.036,412.47 677.72,408.832 665.199,406.705 652.395,404.485 646.819,405.855 641.385,407.225 634.77,411.572 628.628,415.683 624.139,420.502 628.628,415.683 634.77,411.572 641.385,407.225 646.819,405.855 652.395,404.485 665.199,406.705 677.72,408.832 686.036,412.47 692.037,415.069 698.132,415.777 704.7,416.533 707.772,417.667 712.78,419.557 715.615,426.409 717.741,431.653 717.741,436.567 717.741,438.93 717.836,451.357 717.741,463.264 716.796,466.807 716.088,469.642 711.221,484.668 706.637,499.457 706.354,504.655 705.882,512.97 707.866,520.483 710.465,530.5 716.796,535.367 724.262,541.132 731.444,541.51 738.012,541.84 743.256,537.73 748.029,533.997 750.486,530.075 752.706,526.437 752.706,523.082 752.706,522.94 752.706,522.751 752.328,521.712 752.045,520.389 L751.289,513.16 751.998,516.514 Q752.659,520.2 752.706,522.751 754.313,527.382 757.431,526.862 L762.582,525.019 Q767.873,522.799 768.771,520.719 769.669,518.641 769.763,515.002 M774.441,576.002 Q777.418,576.758 782.993,581.105 789.041,585.783 791.924,586.87 795.373,588.193 795.373,595.564 795.373,600.383 795.373,600.761 795.562,603.265 796.649,603.88 799.956,605.77 800.901,608.085 802.177,611.109 798.066,613.33 797.358,613.708 785.12,619.283 776.237,623.347 773.969,625.615 772.835,626.748 771.795,629.111 L770.094,633.08 Q767.732,637.522 762.629,636.955 756.486,636.293 751.95,636.529 747.839,636.766 743.729,637.9 733.853,640.593 730.593,641.16 720.765,642.814 717.741,639.79 707.488,629.678 701.156,625.615 698.7,624.055 695.25,618.433 692.037,613.141 689.344,611.912 686.226,610.495 685.139,608.652 684.147,606.242 682.729,604.352 680.981,601.99 680.981,598.682 L681.312,595.847 Q683.485,589.988 687.407,584.743 689.155,582.428 694.541,576.475 697.14,573.592 702.243,572.411 708.244,570.946 710.607,569.387 713.82,567.261 720.246,567.025 727.664,566.788 729.554,566.08 732.058,565.182 740.705,566.316 749.777,567.544 753.651,566.552 758.046,565.465 764.755,570.049 772.929,575.624 774.441,576.002 M699.267,437.985 Q690.355,433.528 687.123,432.031 L687.549,433.118 Q687.832,435.102 686.982,439.402 685.848,445.309 681.926,448.285 677.106,452.018 667.609,451.687 658.584,451.357 654.285,445.497 651.638,441.765 650.457,434.583 639.218,438.938 636.424,442.71 639.218,438.938 650.457,434.583 650.62,434.553 650.788,434.488 657.261,432.078 664.916,430.047 671.531,428.299 674.224,428.062 677.579,427.779 686.226,431.606 686.603,431.774 687.123,432.031 690.355,433.528 699.267,437.985 M694.731,455.987 Q697.377,452.538 697.377,448.852 697.377,452.538 694.731,455.987 692.274,459.153 688.872,460.665 692.274,459.153 694.731,455.987 M641.433,460.617 Q645.874,464.303 650.599,465.39 645.874,464.303 641.433,460.617 636.802,456.743 634.062,451.215 636.802,456.743 641.433,460.617 M650.127,473.895 Q655.041,478.195 657.12,479.045 662.506,481.219 670.444,478.147 662.506,481.219 657.12,479.045 655.041,478.195 650.127,473.895 M837.237,259.758 Q832.417,258.34 830.291,256.97 827.361,255.175 826.889,252.245 825.991,246.953 834.165,241.992 838.229,239.488 842.481,238.07 838.371,237.598 832.937,237.834 822.069,238.306 815.549,241.85 812.052,243.787 809.075,243.315 807.091,243.031 804.161,241.283 800.712,239.204 799.153,238.684 795.987,237.598 792.396,238.543 786.396,240.102 774.961,234.715 768.252,231.55 767.354,231.172 763.715,229.754 762.156,230.51 758.991,232.117 739.098,231.219 721.521,230.416 712.497,229.093 706.543,228.195 697.613,220.777 L689.816,213.5 690.478,216.76 Q691.187,220.588 691.281,223.612 691.659,233.156 686.036,230.51 680.414,227.864 668.507,227.486 L657.687,227.675 665.435,234.763 Q672.145,241.614 667.137,240.433 662.128,239.251 651.591,243.504 L642.094,247.993 644.267,248.134 Q646.772,248.418 648.426,249.127 653.718,251.347 648.709,256.97 638.078,268.877 632.691,275.776 621.162,290.565 611.382,308.047 603.444,322.222 600.797,355.534 599.144,376.654 599.805,400.988 599.9,405.524 600.041,408.217 608.074,380.812 609.964,370.89 611.523,362.81 613.272,358.274 615.398,352.746 619.414,347.737 625.084,340.65 643.512,316.552 646.677,312.489 654.19,305.071 658.395,300.96 666.664,292.88 671.483,288.013 676.964,285.604 680.272,284.139 687.926,281.54 690.903,280.406 692.179,280.973 693.219,281.398 693.786,283.336 694.116,284.422 694.92,287.257 695.912,289.809 697.849,291.463 699.408,292.786 707.252,302.047 713.3,309.229 717.741,310.882 721.569,312.3 736.263,318.49 750.108,323.923 755.069,323.64 760.361,323.309 767.637,314.71 773.213,308.189 776.331,301.905 778.552,297.463 783.135,294.109 787.955,290.518 792.396,290.518 795.94,290.518 800.665,294.959 807.8,301.669 810.351,303.322 816.305,307.197 829.676,318.348 842.906,329.357 847.206,334.035 851.034,338.193 861.854,365.125 871.587,389.365 875.084,401.13 878.864,413.887 887.841,446.962 888.692,444.127 889.495,440.3 891.149,432.598 891.149,427.59 891.149,423.479 895.118,411.572 897.197,405.382 898.094,401.744 898.803,398.626 898.709,397.35 898.473,394.751 897.197,386.86 895.685,377.883 894.929,371.362 892.236,348.163 891.858,344.383 889.92,325.577 890.204,319.86 890.535,313.434 876.312,293.022 862.61,273.319 854.294,266.893 849.9,263.491 837.237,259.758Z" test="JeanRenoFace" vector-effect="non-scaling-stroke" stroke-width="1"/>
        <path id="Layer3_0_1_STROKES" stroke="#FFF" stroke-width="1.89" stroke-linejoin="round" stroke-linecap="round" fill="none" d="M600.041,408.217 Q599.9,405.524 599.805,400.988 599.144,376.654 600.797,355.534 603.444,322.222 611.382,308.047 621.162,290.565 632.691,275.776 638.078,268.877 648.709,256.97 653.718,251.347 648.426,249.127 646.772,248.418 644.267,248.134 L642.094,247.993 651.591,243.504 Q662.128,239.251 667.137,240.433 672.145,241.614 665.435,234.763 L657.687,227.675 668.507,227.486 Q680.414,227.864 686.036,230.51 691.659,233.156 691.281,223.612 691.187,220.588 690.478,216.76 L689.816,213.5 697.613,220.777 Q706.543,228.195 712.497,229.093 721.521,230.416 739.098,231.219 758.991,232.117 762.156,230.51 763.715,229.754 767.354,231.172 768.252,231.55 774.961,234.715 786.396,240.102 792.396,238.543 795.987,237.598 799.153,238.684 800.712,239.204 804.161,241.283 807.091,243.031 809.075,243.315 812.052,243.787 815.549,241.85 822.069,238.306 832.937,237.834 838.371,237.598 842.481,238.07 838.229,239.488 834.165,241.992 825.991,246.953 826.889,252.245 827.361,255.175 830.291,256.97 832.417,258.34 837.237,259.758 849.9,263.491 854.294,266.893 862.61,273.319 876.312,293.022 890.535,313.434 890.204,319.86 889.92,325.577 891.858,344.383 892.236,348.163 894.929,371.362 895.685,377.883 897.197,386.86 898.473,394.751 898.709,397.35 898.803,398.626 898.094,401.744 904.899,397.397 908.726,399.429 910.805,400.516 915.294,407.272 918.601,412.234 917.656,418.518 916.853,423.763 912.931,430.425 907.214,440.158 904.899,445.497 900.268,455.987 899.654,465.862 899.134,474.556 901.307,485.896 903.245,496.055 902.961,497.095 901.78,501.158 899.181,504.088 895.259,508.435 889.731,507.49 884.439,506.592 882.786,504.607 L882.171,502.765 879.242,509.332 Q875.226,518.641 869.886,532.532 868.8,535.32 866.626,543.447 864.027,551.054 859.113,555.165 856.278,557.575 852.404,567.875 848.576,578.128 844.229,581.578 838.181,586.444 834.26,592.634 830.243,599.06 827.692,608.179 826.464,612.574 817.864,620.417 809.454,628.119 808.603,632.088 807.658,636.482 804.398,639.601 802.555,641.349 799.011,644.515 792.065,652.972 786.065,657.178 780.442,661.052 771.795,663.793 766.172,665.588 756.156,665.73 745.713,665.872 740.894,667.195 734.657,668.896 722.655,666.628 707.96,663.887 707.772,663.887 698.369,663.698 692.132,660.391 686.367,657.272 679.421,649.24 675.594,644.798 668.838,641.254 660.994,637.096 656.836,633.363 655.135,631.852 649.465,624.575 643.7,617.204 642.094,615.692 636.141,610.258 634.109,608.321 630.943,605.344 629.384,602.887 626.502,598.399 622.249,581.672 620.217,573.781 614.169,561.213 607.838,548.125 607.602,547.416 604.719,537.824 602.782,529.555 600.987,521.665 600.514,516.939 599.853,510.75 599.616,493.598 599.615,493.48 599.616,493.362 599.382,472.706 599.711,438.505 L600.041,408.217 Q608.074,380.812 609.964,370.89 611.523,362.81 613.272,358.274 615.398,352.746 619.414,347.737 625.084,340.65 643.512,316.552 646.677,312.489 654.19,305.071 658.395,300.96 666.664,292.88 671.483,288.013 676.964,285.604 680.272,284.139 687.926,281.54 690.903,280.406 692.179,280.973 693.219,281.398 693.786,283.336 694.116,284.422 694.92,287.257 695.912,289.809 697.849,291.463 699.408,292.786 707.252,302.047 713.3,309.229 717.741,310.882 721.569,312.3 736.263,318.49 750.108,323.923 755.069,323.64 760.361,323.309 767.637,314.71 773.213,308.189 776.331,301.905 778.552,297.463 783.135,294.109 787.955,290.518 792.396,290.518 795.94,290.518 800.665,294.959 807.8,301.669 810.351,303.322 816.305,307.197 829.676,318.348 842.906,329.357 847.206,334.035 851.034,338.193 861.854,365.125 871.587,389.365 875.084,401.13 878.864,413.887 887.841,446.962 888.692,444.127 889.495,440.3 891.149,432.598 891.149,427.59 891.149,423.479 895.118,411.572 897.197,405.382 898.094,401.744 M766.409,429.48 Q772.315,425.794 785.262,420.691 798.633,415.399 805.154,414.36 809.642,413.651 823.298,411.43 835.441,409.918 839.646,411.997 843.615,413.982 847.679,419.982 852.829,427.543 852.876,427.59 M793.341,436.284 Q794.428,454.286 807.044,455.94 814.84,456.979 819.849,455.42 824.384,454.003 827.361,450.27 829.724,447.34 831.283,442.048 L832.37,437.323 Q824.195,431.834 819.801,431.37 809.69,430.33 793.483,436.237 793.412,436.262 793.341,436.284 788.167,438.206 782.946,440.631 L778.694,442.71 M832.37,437.323 Q833.335,437.973 834.354,438.694 844.135,445.639 846.734,446.017 M828.306,462.082 Q832.842,461.61 836.386,460.145 841.064,458.16 842.009,454.995 M599.616,493.362 Q603.207,496.622 605.711,501.725 607.271,504.796 610.436,512.215 611.854,515.238 612.704,522.043 613.319,527.476 617.051,532.532 620.312,536.974 624.422,540.234 628.108,543.116 630.754,547.18 631.746,548.691 636.566,559.37 639.401,565.701 643.039,566.552 644.079,566.788 652.253,570.568 657.828,573.167 661.467,571.75 663.357,570.994 665.766,571.088 667.137,571.135 669.924,571.324 675.311,571.466 680.839,567.025 685.659,563.15 695.25,559.748 703.566,556.819 705.409,554.267 706.685,552.519 708.291,552.472 709.378,552.472 711.504,553.369 716.702,555.637 720.104,554.267 723.647,552.85 732.105,549.353 739.713,546.754 745.146,547.652 748.926,548.266 758.613,552.283 767.496,555.921 772.079,556.157 776.001,556.393 782.852,561.969 788.853,566.883 792.869,565.607 795.326,564.851 797.877,565.56 798.917,565.843 802.083,567.402 807.233,569.812 811.296,567.025 813.706,565.371 817.061,564.52 818.998,564.048 822.684,563.386 829.157,561.874 831.614,556.157 834.78,548.786 837.473,544.25 840.072,539.809 844.371,534.422 845.978,532.39 853.821,525.633 859.349,520.861 860.436,516.467 861.523,512.167 865.114,507.631 869.65,501.82 870.831,499.457 872.485,496.15 874.375,491.661 876.029,488.684 879.336,488.07 882.833,487.456 883.353,489.345 883.589,490.149 883.116,495.205 882.833,498.465 881.274,500.922 L879.809,502.765 M818.384,437.985 L822.164,438.93 M793.341,477.675 Q797.546,480.84 804.02,481.502 810.446,482.164 815.076,480.037 M781.056,451.215 Q784.458,458.917 791.451,462.082 M752.706,522.751 Q754.313,527.382 757.431,526.862 L762.582,525.019 Q767.873,522.799 768.771,520.719 769.669,518.641 769.763,515.002 L769.716,511.742 M752.706,522.751 Q752.659,520.2 751.998,516.514 L751.289,513.16 752.045,520.389 Q752.328,521.712 752.706,522.751 752.706,522.94 752.706,523.082 752.706,526.437 750.486,530.075 748.029,533.997 743.256,537.73 738.012,541.84 731.444,541.51 724.262,541.132 716.796,535.367 710.465,530.5 707.866,520.483 705.882,512.97 706.354,504.655 706.637,499.457 711.221,484.668 716.088,469.642 716.796,466.807 717.741,463.264 717.836,451.357 717.741,438.93 717.741,436.567 717.741,431.653 715.615,426.409 712.78,419.557 707.772,417.667 704.7,416.533 698.132,415.777 692.037,415.069 686.036,412.47 677.72,408.832 665.199,406.705 652.395,404.485 646.819,405.855 641.385,407.225 634.77,411.572 628.628,415.683 624.139,420.502 M695.959,592.067 Q700.117,589.421 705.693,587.815 711.741,586.066 716.796,586.397 719.537,586.586 725.727,588.807 730.924,590.697 735.696,590.177 739.476,589.752 746.564,587.248 752.848,584.98 757.431,584.98 763.29,584.98 768.44,587.342 772.599,589.279 775.859,592.54 M681.312,595.847 Q683.485,589.988 687.407,584.743 689.155,582.428 694.541,576.475 697.14,573.592 702.243,572.411 708.244,570.946 710.607,569.387 713.82,567.261 720.246,567.025 727.664,566.788 729.554,566.08 732.058,565.182 740.705,566.316 749.777,567.544 753.651,566.552 758.046,565.465 764.755,570.049 772.929,575.624 774.441,576.002 777.418,576.758 782.993,581.105 789.041,585.783 791.924,586.87 795.373,588.193 795.373,595.564 795.373,600.383 795.373,600.761 795.562,603.265 796.649,603.88 799.956,605.77 800.901,608.085 802.177,611.109 798.066,613.33 797.358,613.708 785.12,619.283 776.237,623.347 773.969,625.615 772.835,626.748 771.795,629.111 L770.094,633.08 Q767.732,637.522 762.629,636.955 756.486,636.293 751.95,636.529 747.839,636.766 743.729,637.9 733.853,640.593 730.593,641.16 720.765,642.814 717.741,639.79 707.488,629.678 701.156,625.615 698.7,624.055 695.25,618.433 692.037,613.141 689.344,611.912 686.226,610.495 685.139,608.652 684.147,606.242 682.729,604.352 680.981,601.99 680.981,598.682 L681.312,595.847Z M599.097,400.657 Q593.899,393.712 585.772,393.381 577.739,393.097 575.944,399.24 574.716,403.445 580.953,417.006 587.757,431.701 587.757,436.567 587.757,441.765 587.993,460.003 587.993,476.777 586.811,482.4 585.536,488.542 587.804,490.669 589.599,492.322 593.426,491.425 M699.267,437.985 Q690.355,433.528 687.147,432.031 L687.549,433.118 Q687.832,435.102 686.982,439.402 685.848,445.309 681.926,448.285 677.106,452.018 667.609,451.687 658.584,451.357 654.285,445.497 651.638,441.765 650.457,434.606 639.218,438.938 636.424,442.71 M687.147,432.031 Q686.603,431.774 686.226,431.606 677.579,427.779 674.224,428.062 671.531,428.299 664.916,430.047 657.261,432.078 650.788,434.488 650.62,434.553 650.457,434.606 M675.169,434.205 L677.531,434.677 M688.872,460.665 Q692.274,459.153 694.731,455.987 697.377,452.538 697.377,448.852 M634.062,451.215 Q636.802,456.743 641.433,460.617 645.874,464.303 650.599,465.39 M650.127,473.895 Q655.041,478.195 657.12,479.045 662.506,481.219 670.444,478.147 M730.026,576.002 Q738.531,577.42 742.784,577.42 M730.499,598.209 Q734.137,597.737 735.176,597.784 737.397,597.879 740.894,599.155" test="JeanRenoFace"/>
      </g>
      <g id="TearAnimf13r1">
        <use xlink:href="#TearGraphic" transform="matrix(.914 0 0 .914 672.45 476.95)"/>
      </g>
      <g id="TearAnimf28r1">
        <use xlink:href="#TearGraphic" transform="matrix(.914 0 0 .914 672.45 634.35)"/>
      </g>
    </g>
    <g id="BlackMaskRect">
      <path fill="#000" stroke="none" d="M823.45,613.6 L823.45,508.3 -23.6,508.3 -23.6,613.6 823.45,613.6Z" test="BlackMaskRect"/>
    </g>
  </g>
</svg>