<?xml version="1.0" encoding="utf-8"?>
<svg id="EdithAnim06" image-rendering="inherit" baseProfile="basic" version="1.1" x="0px" y="0px" width="800" height="600" xmlns="http://www.w3.org/2000/svg" xmlns:xlink="http://www.w3.org/1999/xlink">
  <defs>
    <g id="TearGraphic" overflow="visible">
      <path id="Layer4_0_1_STROKES" stroke="#0FF" stroke-width="1" stroke-linejoin="round" stroke-linecap="round" fill="none" d="M-1.15 1.6Q-1.25 5.75 -2.25 8.6 -3.4 11.65 -6.8 16.5 -10.25 21.45 -8.25 27.95 -6.25 34.6 -.7 34.8 4.75 35 7.25 30.15 9.3 26.2 8.9 20.65 8.7 17.9 4.8 12.25 .55 6.05 -.7 0" test="TearGraphic"/>
    </g>
  </defs>
  <g id="Jean-Renof173r1" overflow="visible">
    <g id="Jean-Reno-body">
      <path id="Layer2_0_1_STROKES" stroke="#FEB7AE" stroke-width="1.89" stroke-linejoin="round" stroke-linecap="round" fill="none" d="M793.795,460.017 Q799.937,466.16 838.257,472.302 864.008,476.46 891.177,478.917 898.453,479.579 941.026,488.273 977.361,495.644 983.787,494.037 993.568,491.58 1001.033,488.603 1010.53,484.776 1019.697,478.917 1028.816,473.058 1041.007,471.263 1051.213,469.703 1059.434,471.357 1065.34,472.538 1071.01,474.428 1073.845,475.373 1075.499,476.082 1073.845,476.554 1071.955,477.547 1068.27,479.579 1067.372,482.366 1066.474,485.154 1069.546,487.989 1071.105,489.359 1072.806,490.21 1070.916,490.966 1069.215,492.336 1065.766,495.077 1066.663,498.006 1067.561,500.983 1073.231,502.259 1076.066,502.92 1078.712,502.967 L1079.751,509.015 Q1081.216,515.347 1083.437,516.67 1085.658,517.993 1091.044,515.441 1093.738,514.213 1095.958,512.654 L1097.754,516.67 Q1100.211,520.592 1103.755,519.977 1107.298,519.41 1110.275,516.339 1111.74,514.78 1112.496,513.362 L1115.945,514.78 Q1119.631,515.961 1120.812,514.78 1121.993,513.599 1122.938,510.291 L1123.647,507.22 1125.915,520.166 Q1127.994,533.963 1126.954,537.932 1126.86,538.263 1125.868,543.13 1125.159,546.579 1124.261,548.847 1121.615,555.604 1114.858,559.195 M1047.055,513.835 Q1055.276,511.85 1066.522,513.788 1082.917,516.575 1091.47,527.537 1094.777,531.79 1101.676,540.531 1107.582,548.233 1110.889,554.423 1119.82,571.149 1116.276,588.254 1112.779,605.075 1103.424,620.525 1099.124,627.613 1090.761,637.866 1088.398,640.748 1079.61,647.647 1069.168,655.821 1056.457,664.043 1020.973,687.053 988.701,696.976 L972.967,701.819 Q975.606,705.12 977.739,715.781 979.912,726.649 979.015,732.65 978.258,737.753 980.952,741.155 981.661,742.1 985.157,744.698 987.945,746.777 992.15,753.392 997.584,761.897 996.497,766.906 995.363,772.34 990.449,777.584 986.007,782.262 982.086,783.443 979.156,784.341 973.581,784.436 L968.62,784.388 975.046,785.711 Q982.275,788.027 986.575,792.893 992.15,799.225 994.418,803.666 997.064,808.769 995.552,811.793 994.512,813.92 991.725,820.346 988.276,826.299 981.85,829.276 975.849,832.064 962.761,828.992 956.193,827.244 953.405,826.535 948.68,825.354 946.885,825.496 944.522,825.685 925.953,830.41 907.147,835.229 900.579,835.891 893.681,836.6 885.412,833.103 881.538,831.308 879.978,830.693 877.427,829.607 876.246,829.748 872.466,829.937 870.529,830.174 867.174,830.646 864.67,832.583 861.834,834.757 857.96,833.812 854.275,832.914 853.329,830.457 852.243,827.669 852.337,826.016 852.479,823.7 854.747,821.952 856.826,820.346 860.134,819.779 861.787,819.542 863.016,819.59 862.118,818.55 861.504,817.18 860.275,814.439 861.598,812.975 863.063,811.368 866.89,810.565 870.103,809.903 872.702,810.14 873.836,810.234 871.285,808.439 868.119,806.218 869.158,805.178 870.387,803.95 873.553,804.044 875.017,804.092 878.608,804.706 879.837,804.895 881.821,806.312 883.239,807.352 884.278,806.832 887.586,805.178 892.027,803.099 898.831,799.934 901.525,799.036 905.777,797.618 910.03,796.673 M805.796,461.104 Q809.954,459.119 824.838,450.236 838.824,442.346 843.832,442.204 856.826,441.826 860.842,442.204 873.647,443.385 885.459,449.291 910.786,461.954 914.424,463.844 930.631,472.444 937.671,478.114 944.475,483.595 950.145,486.855 952.98,488.509 954.445,489.029 M783.116,525.128 Q783.116,521.064 784.108,516.056 786.14,505.991 791.149,501.266 801.685,491.344 815.246,493.47 820.444,494.273 830.602,500.51 839.958,506.228 842.415,509.299 844.352,511.709 849.171,512.606 852.857,513.315 857.771,513.079 860.417,512.984 874.356,511.992 887.775,511.236 891.602,512.134 897.934,513.599 912.581,518.56 929.355,524.277 932.473,526.781 934.836,528.671 942.868,535.664 950.381,541.901 953.263,543.083 956.571,544.406 957.091,545.303 957.421,545.918 956.807,548.091 956.571,548.942 957.091,555.226 957.61,562.077 956.807,567.464 955.815,574.126 950.712,591.561 945.892,608.004 943.341,614.241 941.262,619.391 934.694,630.826 928.693,641.268 926.567,644.009 925.102,645.946 921.795,649.868 L918.771,653.459 923.307,654.215 Q928.41,655.207 931.056,656.53 933.182,657.617 937.813,659.79 941.687,662.058 943.813,665.507 946.601,670.043 947.262,672.311 948.113,675.288 947.121,678.737 946.129,682.139 943.766,685.778 941.829,688.754 939.561,691.022 936.49,694.094 934.6,695.606 931.245,698.299 928.93,698.582 925.858,699.008 924.441,698.866 922.267,698.63 918.535,697.165 915.511,695.984 913.384,693.527 910.408,690.125 908.376,688.66 905.541,686.581 904.076,683.651 902.233,679.871 900.343,677.792 897.225,674.343 895.193,673.115 893.728,672.264 890.893,671.65 888.625,671.177 888.247,671.272 886.877,671.886 884.515,672.831 880.262,675.005 878.656,675.619 876.057,676.564 874.592,674.485 872.277,671.272 871.899,670.185 871.143,668.059 872.229,665.035 873.553,661.444 874.072,660.735 874.876,659.743 877.9,658.42 882.435,656.388 888.531,658.42 889.192,658.656 888.531,655.207 886.83,645.946 886.783,645.71 884.137,628.983 886.641,615.659 888.956,603.515 895.099,584.946 900.06,569.968 899.635,568.409 899.115,566.471 885.271,567.038 869.867,567.7 867.505,566.755 864.858,565.715 850.022,561.699 836.178,557.919 835.327,557.305 M762.562,535.57 Q775.792,547.902 783.211,553.147 802.961,567.18 827.059,574.079 850.684,580.883 872.938,588.206 884.042,591.845 890.421,594.16 M919.432,791.476 Q918.44,787.318 900.532,754 882.294,722.018 880.924,717.766 878.183,709.166 876.057,699.008 873.458,686.628 874.545,683.935 875.632,681.336 878.608,678.643 880.546,676.847 882.814,675.43 M909.746,786.751 Q908.47,787.696 906.486,788.594 902.611,790.436 899.351,790.295 895.996,790.153 889.807,787.696 885.318,785.9 882.577,784.388 881.585,783.821 880.829,781.695 880.168,779.9 879.034,779.9 877.9,779.9 875.443,782.026 872.655,784.436 871.474,784.861 869.678,785.522 866.087,784.577 862.921,783.727 861.079,782.498 859.614,781.553 859.236,779.38 859,777.868 859.189,774.702 859.33,772.387 860.653,771.017 860.701,770.922 863.677,768.56 865.142,767.378 866.701,766.906 867.457,766.67 867.93,766.67 M876.199,767.142 Q876.01,766.339 876.246,765.299 876.624,763.22 878.561,762.181 880.498,761.141 883.806,761.472 885.649,761.661 888.72,762.181 890.09,762.323 892.642,763.457 895.051,764.543 895.807,764.543 M910.03,803.997 Q902.895,807.73 895.099,811.51 879.601,819.164 876.482,819.59 873.363,820.015 870.009,819.873 L867.268,819.59 M972.967,701.819 L972.919,701.843 Q954.445,707.513 954.019,707.513 953.925,707.513 958.272,723.719 962.524,741.769 961.768,750.368 L959.973,770.119 Q958.603,790.531 960.823,794.075" test="Jean Reno body"/>
    </g>
    <g id="Jean-Renof104r1">
      <g id="JeanRenoFace">
        <path fill="#000" stroke="none" d="M812.535,309.759 Q807.952,313.113 805.731,317.555 802.613,323.839 797.037,330.36 789.761,338.959 784.469,339.29 779.508,339.573 765.663,334.14 750.969,327.95 747.141,326.532 742.7,324.879 736.652,317.697 728.808,308.436 727.249,307.113 725.312,305.459 724.32,302.907 723.516,300.072 723.186,298.986 722.619,297.048 721.579,296.623 720.303,296.056 717.327,297.19 709.672,299.789 706.365,301.254 700.884,303.663 696.064,308.53 687.795,316.61 683.59,320.721 676.077,328.139 672.912,332.202 654.484,356.3 648.814,363.387 644.798,368.396 642.672,373.924 640.923,378.46 639.364,386.54 637.474,396.462 629.442,423.867 L629.111,454.155 Q628.782,488.356 629.016,509.012 632.607,512.272 635.112,517.375 636.671,520.446 639.837,527.865 641.254,530.889 642.105,537.693 642.719,543.126 646.452,548.182 649.712,552.624 653.823,555.884 657.508,558.766 660.154,562.83 661.146,564.342 665.966,575.02 668.801,581.352 672.439,582.202 673.479,582.438 681.653,586.218 687.228,588.817 690.867,587.4 692.757,586.644 695.166,586.738 696.537,586.785 699.324,586.974 704.711,587.116 710.239,582.675 715.059,578.8 724.65,575.398 732.966,572.469 734.809,569.917 736.085,568.169 737.691,568.122 738.778,568.122 740.904,569.019 746.102,571.287 749.504,569.917 753.048,568.5 761.505,565.003 769.113,562.404 774.546,563.302 778.326,563.916 788.013,567.933 796.896,571.571 801.479,571.807 805.401,572.043 812.252,577.619 818.253,582.533 822.269,581.257 824.726,580.501 827.277,581.21 828.317,581.493 831.483,583.053 836.633,585.462 840.696,582.675 843.106,581.021 846.461,580.17 848.398,579.698 852.084,579.036 858.557,577.524 861.014,571.807 864.18,564.436 866.873,559.9 869.472,555.459 873.771,550.072 875.378,548.04 883.221,541.284 888.75,536.511 889.836,532.117 890.923,527.817 894.514,523.281 899.05,517.47 900.231,515.107 901.885,511.799 903.775,507.311 905.429,504.334 908.736,503.72 912.233,503.106 912.753,504.996 912.989,505.799 912.516,510.855 912.233,514.115 910.674,516.572 L909.209,518.415 910.674,516.572 Q912.233,514.115 912.516,510.855 912.989,505.799 912.753,504.996 912.233,503.106 908.736,503.72 905.429,504.334 903.775,507.311 901.885,511.799 900.231,515.107 899.05,517.47 894.514,523.281 890.923,527.817 889.836,532.117 888.75,536.511 883.221,541.284 875.378,548.04 873.771,550.072 869.472,555.459 866.873,559.9 864.18,564.436 861.014,571.807 858.557,577.524 852.084,579.036 848.398,579.698 846.461,580.17 843.106,581.021 840.696,582.675 836.633,585.462 831.483,583.053 828.317,581.493 827.277,581.21 824.726,580.501 822.269,581.257 818.253,582.533 812.252,577.619 805.401,572.043 801.479,571.807 796.896,571.571 788.013,567.933 778.326,563.916 774.546,563.302 769.113,562.404 761.505,565.003 753.048,568.5 749.504,569.917 746.102,571.287 740.904,569.019 738.778,568.122 737.691,568.122 736.085,568.169 734.809,569.917 732.966,572.469 724.65,575.398 715.059,578.8 710.239,582.675 704.711,587.116 699.324,586.974 696.537,586.785 695.166,586.738 692.757,586.644 690.867,587.4 687.228,588.817 681.653,586.218 673.479,582.438 672.439,582.202 668.801,581.352 665.966,575.02 661.146,564.342 660.154,562.83 657.508,558.766 653.823,555.884 649.712,552.624 646.452,548.182 642.719,543.126 642.105,537.693 641.254,530.889 639.837,527.865 636.671,520.446 635.112,517.375 632.607,512.272 629.016,509.012 629.015,509.13 629.016,509.248 629.253,526.4 629.914,532.59 630.387,537.315 632.182,545.205 634.119,553.474 637.002,563.066 637.238,563.775 643.569,576.863 649.617,589.431 651.649,597.322 655.902,614.049 658.784,618.537 660.343,620.994 663.509,623.971 665.541,625.908 671.494,631.342 673.101,632.854 678.865,640.225 684.535,647.502 686.236,649.014 690.394,652.746 698.238,656.904 704.994,660.448 708.822,664.89 715.767,672.922 721.532,676.041 727.769,679.348 737.172,679.537 737.361,679.537 752.055,682.278 764.057,684.546 770.294,682.845 775.113,681.522 785.556,681.38 795.573,681.238 801.195,679.443 809.842,676.702 815.465,672.828 821.466,668.622 828.411,660.165 831.955,656 833.798,655.251 837.058,652.132 838.003,647.738 838.854,643.769 847.264,636.067 855.864,628.224 857.092,623.829 859.644,614.71 863.66,608.284 867.582,602.094 873.63,597.228 877.977,593.778 881.804,583.525 885.678,573.225 888.513,570.815 893.427,566.704 896.026,559.097 898.2,550.97 899.286,548.182 904.626,534.291 908.642,524.982 L911.571,518.415 912.186,520.257 Q913.839,522.242 919.131,523.14 924.66,524.085 928.581,519.737 931.18,516.808 932.361,512.745 932.645,511.705 930.708,501.546 928.534,490.206 929.054,481.512 929.668,471.637 934.299,461.148 936.614,455.808 942.331,446.075 946.253,439.413 947.056,434.168 948.001,427.884 944.694,422.922 940.205,416.166 938.126,415.079 934.299,413.047 927.495,417.394 926.597,421.032 924.518,427.222 920.549,439.129 920.549,443.24 920.549,448.248 918.895,455.95 918.092,459.777 917.241,462.612 908.264,429.537 904.484,416.78 900.987,405.015 891.254,380.775 880.434,353.843 876.606,349.685 872.307,345.007 859.077,333.998 845.705,322.847 839.751,318.972 837.2,317.319 830.065,310.609 825.34,306.168 821.796,306.168 817.355,306.168 812.535,309.759 M877.079,435.633 Q882.229,443.193 882.276,443.24 882.229,443.193 877.079,435.633 873.015,429.632 869.046,427.647 864.841,425.568 852.698,427.08 839.043,429.301 834.554,430.01 828.033,431.049 814.662,436.341 801.715,441.444 795.809,445.13 801.715,441.444 814.662,436.341 828.033,431.049 834.554,430.01 839.043,429.301 852.698,427.08 864.841,425.568 869.046,427.647 873.015,429.632 877.079,435.633 M861.77,452.973 L860.683,457.698 Q859.124,462.99 856.761,465.92 853.785,469.653 849.249,471.07 844.24,472.629 836.444,471.59 823.828,469.936 822.741,451.934 817.567,453.856 812.346,456.281 L808.094,458.36 812.346,456.281 Q817.567,453.856 822.741,451.934 822.812,451.912 822.883,451.886 839.09,445.98 849.201,447.02 853.596,447.484 861.77,452.973 862.735,453.623 863.754,454.344 873.535,461.289 876.134,461.667 873.535,461.289 863.754,454.344 862.735,453.623 861.77,452.973 M865.786,475.795 Q870.464,473.81 871.409,470.645 870.464,473.81 865.786,475.795 862.242,477.26 857.706,477.732 862.242,477.26 865.786,475.795 M833.42,497.152 Q839.846,497.814 844.476,495.687 839.846,497.814 833.42,497.152 826.947,496.491 822.741,493.325 826.947,496.491 833.42,497.152 M810.456,466.865 Q813.858,474.567 820.851,477.732 813.858,474.567 810.456,466.865 M799.164,530.652 L799.116,527.392 799.164,530.652 Q799.069,534.291 798.171,536.37 797.274,538.449 791.982,540.669 L786.831,542.512 Q783.713,543.032 782.106,538.401 782.106,538.59 782.106,538.732 782.106,542.087 779.886,545.725 777.429,549.647 772.656,553.38 767.412,557.49 760.844,557.16 753.662,556.781 746.196,551.017 739.865,546.15 737.266,536.133 735.282,528.621 735.754,520.304 736.038,515.107 740.621,500.318 745.488,485.292 746.196,482.457 747.141,478.914 747.236,467.006 747.141,454.58 747.141,452.217 747.141,447.303 745.015,442.059 742.18,435.207 737.172,433.317 734.1,432.183 727.533,431.427 721.437,430.719 715.437,428.12 707.121,424.482 694.599,422.355 681.795,420.135 676.219,421.505 670.785,422.875 664.17,427.222 658.028,431.333 653.539,436.152 658.028,431.333 664.17,427.222 670.785,422.875 676.219,421.505 681.795,420.135 694.599,422.355 707.121,424.482 715.437,428.12 721.437,430.719 727.533,431.427 734.1,432.183 737.172,433.317 742.18,435.207 745.015,442.059 747.141,447.303 747.141,452.217 747.141,454.58 747.236,467.006 747.141,478.914 746.196,482.457 745.488,485.292 740.621,500.318 736.038,515.107 735.754,520.304 735.282,528.621 737.266,536.133 739.865,546.15 746.196,551.017 753.662,556.781 760.844,557.16 767.412,557.49 772.656,553.38 777.429,549.647 779.886,545.725 782.106,542.087 782.106,538.732 782.106,538.59 782.106,538.401 781.728,537.362 781.445,536.039 L780.689,528.81 781.398,532.164 Q782.059,535.85 782.106,538.401 783.713,543.032 786.831,542.512 L791.982,540.669 Q797.274,538.449 798.171,536.37 799.069,534.291 799.164,530.652 M803.841,591.652 Q806.818,592.408 812.394,596.755 818.442,601.433 821.324,602.52 824.773,603.843 824.773,611.214 824.773,616.033 824.773,616.411 824.962,618.915 826.049,619.53 829.356,621.42 830.301,623.735 831.577,626.759 827.466,628.98 826.758,629.358 814.52,634.933 805.637,638.997 803.369,641.265 802.235,642.399 801.195,644.761 L799.494,648.73 Q797.132,653.171 792.029,652.605 785.886,651.943 781.35,652.179 777.24,652.416 773.129,653.55 763.254,656.243 759.993,656.81 750.165,658.464 747.141,655.44 736.888,645.328 730.557,641.265 728.1,639.705 724.65,634.083 721.437,628.791 718.744,627.562 715.626,626.145 714.539,624.302 713.547,621.892 712.129,620.002 710.381,617.64 710.381,614.332 L710.712,611.497 Q712.885,605.638 716.807,600.393 718.555,598.078 723.942,592.125 726.54,589.242 731.643,588.061 737.644,586.596 740.007,585.037 743.22,582.911 749.646,582.675 757.064,582.438 758.954,581.73 761.458,580.832 770.105,581.966 779.177,583.194 783.051,582.202 787.446,581.115 794.155,585.699 802.329,591.274 803.841,591.652 M728.667,453.635 Q719.755,449.178 716.523,447.681 L716.949,448.768 Q717.232,450.753 716.382,455.052 715.248,460.959 711.326,463.935 706.506,467.668 697.009,467.337 687.984,467.006 683.685,461.148 681.039,457.415 679.857,450.233 668.618,454.588 665.824,458.36 668.618,454.588 679.857,450.233 680.02,450.203 680.188,450.138 686.661,447.729 694.316,445.697 700.931,443.948 703.624,443.712 706.979,443.429 715.626,447.256 716.004,447.424 716.523,447.681 719.755,449.178 728.667,453.635 M724.131,471.637 Q726.777,468.188 726.777,464.502 726.777,468.188 724.131,471.637 721.674,474.803 718.272,476.315 721.674,474.803 724.131,471.637 M670.833,476.268 Q675.274,479.953 679,481.04 675.274,479.953 670.833,476.268 666.202,472.393 663.462,466.865 666.202,472.393 670.833,476.268 M679.527,489.545 Q684.441,493.845 686.52,494.695 691.906,496.869 699.844,493.797 691.906,496.869 686.52,494.695 684.441,493.845 679.527,489.545 M866.637,275.408 Q861.817,273.99 859.691,272.62 856.761,270.825 856.289,267.895 855.391,262.603 863.565,257.642 867.629,255.138 871.881,253.72 867.771,253.248 862.337,253.484 851.469,253.956 844.949,257.5 841.452,259.437 838.476,258.965 836.491,258.681 833.562,256.933 830.112,254.854 828.553,254.334 825.387,253.248 821.796,254.193 815.796,255.752 804.361,250.365 797.652,247.2 796.754,246.822 793.116,245.404 791.556,246.16 788.391,247.767 768.498,246.869 750.921,246.066 741.897,244.743 735.943,243.845 727.013,236.427 L719.217,229.15 719.878,232.41 Q720.587,236.238 720.681,239.262 721.059,248.806 715.437,246.16 709.814,243.514 697.907,243.136 L687.087,243.325 694.836,250.413 Q701.545,257.264 696.537,256.082 691.528,254.901 680.991,259.154 L671.494,263.643 673.668,263.784 Q676.172,264.068 677.826,264.777 683.118,266.997 678.109,272.62 667.478,284.527 662.091,291.426 650.562,306.215 640.782,323.697 632.844,337.872 630.198,371.184 628.544,392.304 629.205,416.638 629.3,421.174 629.442,423.867 637.474,396.462 639.364,386.54 640.923,378.46 642.672,373.924 644.798,368.396 648.814,363.387 654.484,356.3 672.912,332.202 676.077,328.139 683.59,320.721 687.795,316.61 696.064,308.53 700.884,303.663 706.365,301.254 709.672,299.789 717.327,297.19 720.303,296.056 721.579,296.623 722.619,297.048 723.186,298.986 723.516,300.072 724.32,302.907 725.312,305.459 727.249,307.113 728.808,308.436 736.652,317.697 742.7,324.879 747.141,326.532 750.969,327.95 765.663,334.14 779.508,339.573 784.469,339.29 789.761,338.959 797.037,330.36 802.613,323.839 805.731,317.555 807.952,313.113 812.535,309.759 817.355,306.168 821.796,306.168 825.34,306.168 830.065,310.609 837.2,317.319 839.751,318.972 845.705,322.847 859.077,333.998 872.307,345.007 876.606,349.685 880.434,353.843 891.254,380.775 900.987,405.015 904.484,416.78 908.264,429.537 917.241,462.612 918.092,459.777 918.895,455.95 920.549,448.248 920.549,443.24 920.549,439.129 924.518,427.222 926.597,421.032 927.495,417.394 928.203,414.275 928.109,413 927.873,410.401 926.597,402.51 925.085,393.533 924.329,387.012 921.636,363.813 921.258,360.033 919.32,341.227 919.604,335.51 919.935,329.084 905.712,308.672 892.01,288.969 883.694,282.543 879.3,279.141 866.637,275.408Z" test="JeanRenoFace" vector-effect="non-scaling-stroke" stroke-width="1"/>
        <path id="Layer3_0_1_STROKES" stroke="#FFF" stroke-width="1.89" stroke-linejoin="round" stroke-linecap="round" fill="none" d="M629.442,423.867 Q629.3,421.174 629.205,416.638 628.544,392.304 630.198,371.184 632.844,337.872 640.782,323.697 650.562,306.215 662.091,291.426 667.478,284.527 678.109,272.62 683.118,266.997 677.826,264.777 676.172,264.068 673.668,263.784 L671.494,263.643 680.991,259.154 Q691.528,254.901 696.537,256.082 701.545,257.264 694.836,250.413 L687.087,243.325 697.907,243.136 Q709.814,243.514 715.437,246.16 721.059,248.806 720.681,239.262 720.587,236.238 719.878,232.41 L719.217,229.15 727.013,236.427 Q735.943,243.845 741.897,244.743 750.921,246.066 768.498,246.869 788.391,247.767 791.556,246.16 793.116,245.404 796.754,246.822 797.652,247.2 804.361,250.365 815.796,255.752 821.796,254.193 825.387,253.248 828.553,254.334 830.112,254.854 833.562,256.933 836.491,258.681 838.476,258.965 841.452,259.437 844.949,257.5 851.469,253.956 862.337,253.484 867.771,253.248 871.881,253.72 867.629,255.138 863.565,257.642 855.391,262.603 856.289,267.895 856.761,270.825 859.691,272.62 861.817,273.99 866.637,275.408 879.3,279.141 883.694,282.543 892.01,288.969 905.712,308.672 919.935,329.084 919.604,335.51 919.32,341.227 921.258,360.033 921.636,363.813 924.329,387.012 925.085,393.533 926.597,402.51 927.873,410.401 928.109,413 928.203,414.275 927.495,417.394 934.299,413.047 938.126,415.079 940.205,416.166 944.694,422.922 948.001,427.884 947.056,434.168 946.253,439.413 942.331,446.075 936.614,455.808 934.299,461.148 929.668,471.637 929.054,481.512 928.534,490.206 930.708,501.546 932.645,511.705 932.361,512.745 931.18,516.808 928.581,519.737 924.66,524.085 919.131,523.14 913.839,522.242 912.186,520.257 L911.571,518.415 908.642,524.982 Q904.626,534.291 899.286,548.182 898.2,550.97 896.026,559.097 893.427,566.704 888.513,570.815 885.678,573.225 881.804,583.525 877.977,593.778 873.63,597.228 867.582,602.094 863.66,608.284 859.644,614.71 857.092,623.829 855.864,628.224 847.264,636.067 838.854,643.769 838.003,647.738 837.058,652.132 833.798,655.251 831.955,656 828.411,660.165 821.466,668.622 815.465,672.828 809.842,676.702 801.195,679.443 795.573,681.238 785.556,681.38 775.113,681.522 770.294,682.845 764.057,684.546 752.055,682.278 737.361,679.537 737.172,679.537 727.769,679.348 721.532,676.041 715.767,672.922 708.822,664.89 704.994,660.448 698.238,656.904 690.394,652.746 686.236,649.014 684.535,647.502 678.865,640.225 673.101,632.854 671.494,631.342 665.541,625.908 663.509,623.971 660.343,620.994 658.784,618.537 655.902,614.049 651.649,597.322 649.617,589.431 643.569,576.863 637.238,563.775 637.002,563.066 634.119,553.474 632.182,545.205 630.387,537.315 629.914,532.59 629.253,526.4 629.016,509.248 629.015,509.13 629.016,509.012 628.782,488.356 629.111,454.155 L629.442,423.867 Q637.474,396.462 639.364,386.54 640.923,378.46 642.672,373.924 644.798,368.396 648.814,363.387 654.484,356.3 672.912,332.202 676.077,328.139 683.59,320.721 687.795,316.61 696.064,308.53 700.884,303.663 706.365,301.254 709.672,299.789 717.327,297.19 720.303,296.056 721.579,296.623 722.619,297.048 723.186,298.986 723.516,300.072 724.32,302.907 725.312,305.459 727.249,307.113 728.808,308.436 736.652,317.697 742.7,324.879 747.141,326.532 750.969,327.95 765.663,334.14 779.508,339.573 784.469,339.29 789.761,338.959 797.037,330.36 802.613,323.839 805.731,317.555 807.952,313.113 812.535,309.759 817.355,306.168 821.796,306.168 825.34,306.168 830.065,310.609 837.2,317.319 839.751,318.972 845.705,322.847 859.077,333.998 872.307,345.007 876.606,349.685 880.434,353.843 891.254,380.775 900.987,405.015 904.484,416.78 908.264,429.537 917.241,462.612 918.092,459.777 918.895,455.95 920.549,448.248 920.549,443.24 920.549,439.129 924.518,427.222 926.597,421.032 927.495,417.394 M795.809,445.13 Q801.715,441.444 814.662,436.341 828.033,431.049 834.554,430.01 839.043,429.301 852.698,427.08 864.841,425.568 869.046,427.647 873.015,429.632 877.079,435.633 882.229,443.193 882.276,443.24 M822.741,451.934 Q823.828,469.936 836.444,471.59 844.24,472.629 849.249,471.07 853.785,469.653 856.761,465.92 859.124,462.99 860.683,457.698 L861.77,452.973 Q853.596,447.484 849.201,447.02 839.09,445.98 822.883,451.886 822.812,451.912 822.741,451.934 817.567,453.856 812.346,456.281 L808.094,458.36 M861.77,452.973 Q862.735,453.623 863.754,454.344 873.535,461.289 876.134,461.667 M857.706,477.732 Q862.242,477.26 865.786,475.795 870.464,473.81 871.409,470.645 M629.016,509.012 Q632.607,512.272 635.112,517.375 636.671,520.446 639.837,527.865 641.254,530.889 642.105,537.693 642.719,543.126 646.452,548.182 649.712,552.624 653.823,555.884 657.508,558.766 660.154,562.83 661.146,564.342 665.966,575.02 668.801,581.352 672.439,582.202 673.479,582.438 681.653,586.218 687.228,588.817 690.867,587.4 692.757,586.644 695.166,586.738 696.537,586.785 699.324,586.974 704.711,587.116 710.239,582.675 715.059,578.8 724.65,575.398 732.966,572.469 734.809,569.917 736.085,568.169 737.691,568.122 738.778,568.122 740.904,569.019 746.102,571.287 749.504,569.917 753.048,568.5 761.505,565.003 769.113,562.404 774.546,563.302 778.326,563.916 788.013,567.933 796.896,571.571 801.479,571.807 805.401,572.043 812.252,577.619 818.253,582.533 822.269,581.257 824.726,580.501 827.277,581.21 828.317,581.493 831.483,583.053 836.633,585.462 840.696,582.675 843.106,581.021 846.461,580.17 848.398,579.698 852.084,579.036 858.557,577.524 861.014,571.807 864.18,564.436 866.873,559.9 869.472,555.459 873.771,550.072 875.378,548.04 883.221,541.284 888.75,536.511 889.836,532.117 890.923,527.817 894.514,523.281 899.05,517.47 900.231,515.107 901.885,511.799 903.775,507.311 905.429,504.334 908.736,503.72 912.233,503.106 912.753,504.996 912.989,505.799 912.516,510.855 912.233,514.115 910.674,516.572 L909.209,518.415 M847.784,453.635 L851.564,454.58 M822.741,493.325 Q826.947,496.491 833.42,497.152 839.846,497.814 844.476,495.687 M810.456,466.865 Q813.858,474.567 820.851,477.732 M782.106,538.401 Q783.713,543.032 786.831,542.512 L791.982,540.669 Q797.274,538.449 798.171,536.37 799.069,534.291 799.164,530.652 L799.116,527.392 M782.106,538.401 Q782.059,535.85 781.398,532.164 L780.689,528.81 781.445,536.039 Q781.728,537.362 782.106,538.401 782.106,538.59 782.106,538.732 782.106,542.087 779.886,545.725 777.429,549.647 772.656,553.38 767.412,557.49 760.844,557.16 753.662,556.781 746.196,551.017 739.865,546.15 737.266,536.133 735.282,528.621 735.754,520.304 736.038,515.107 740.621,500.318 745.488,485.292 746.196,482.457 747.141,478.914 747.236,467.006 747.141,454.58 747.141,452.217 747.141,447.303 745.015,442.059 742.18,435.207 737.172,433.317 734.1,432.183 727.533,431.427 721.437,430.719 715.437,428.12 707.121,424.482 694.599,422.355 681.795,420.135 676.219,421.505 670.785,422.875 664.17,427.222 658.028,431.333 653.539,436.152 M725.359,607.717 Q729.517,605.071 735.093,603.465 741.141,601.716 746.196,602.047 748.937,602.236 755.127,604.457 760.324,606.347 765.096,605.827 768.876,605.402 775.964,602.898 782.248,600.63 786.831,600.63 792.69,600.63 797.841,602.992 801,604.929 805.259,608.19 M710.712,611.497 Q712.885,605.638 716.807,600.393 718.555,598.078 723.942,592.125 726.54,589.242 731.643,588.061 737.644,586.596 740.007,585.037 743.22,582.911 749.646,582.675 757.064,582.438 758.954,581.73 761.458,580.832 770.105,581.966 779.177,583.194 783.051,582.202 787.446,581.115 794.155,585.699 802.329,591.274 803.841,591.652 806.818,592.408 812.394,596.755 818.442,601.433 821.324,602.52 824.773,603.843 824.773,611.214 824.773,616.033 824.773,616.411 824.962,618.915 826.049,619.53 829.356,621.42 830.301,623.735 831.577,626.759 827.466,628.98 826.758,629.358 814.52,634.933 805.637,638.997 803.369,641.265 802.235,642.399 801.195,644.761 L799.494,648.73 Q797.132,653.171 792.029,652.605 785.886,651.943 781.35,652.179 777.24,652.416 773.129,653.55 763.254,656.243 759.993,656.81 750.165,658.464 747.141,655.44 736.888,645.328 730.557,641.265 728.1,639.705 724.65,634.083 721.437,628.791 718.744,627.562 715.626,626.145 714.539,624.302 713.547,621.892 712.129,620.002 710.381,617.64 710.381,614.332 L710.712,611.497Z M628.497,416.307 Q623.299,409.362 615.172,409.031 607.14,408.747 605.344,414.89 604.116,419.095 610.353,432.656 617.157,447.351 617.157,452.217 617.157,457.415 617.393,475.653 617.393,492.427 616.212,498.05 614.936,504.192 617.204,506.319 618,507.972 622.827,507.075 M728.667,453.635 Q719.755,449.178 716.547,447.681 L716.949,448.768 Q717.232,450.753 716.382,455.052 715.248,460.959 711.326,463.935 706.506,467.668 697.009,467.337 687.984,467.006 683.685,461.148 681.039,457.415 679.857,450.256 668.618,454.588 665.824,458.36 M716.547,447.681 Q716.004,447.424 715.626,447.256 706.979,443.429 703.624,443.712 700.931,443.948 694.316,445.697 686.661,447.729 680.188,450.138 680.02,450.203 679.857,450.256 M704.569,449.855 L706.932,450.327 M718.272,476.315 Q721.674,474.803 724.131,471.637 726.777,468.188 726.777,464.502 M663.462,466.865 Q666.202,472.393 670.833,476.268 675.274,479.953 679,481.04 M679.527,489.545 Q684.441,493.845 686.52,494.695 691.906,496.869 699.844,493.797 M759.426,591.652 Q767.931,593.07 772.184,593.07 M759.899,613.86 Q763.537,613.387 764.577,613.434 766.797,613.529 770.294,614.805" test="JeanRenoFace"/>
      </g>
      <g id="TearAnimf14r1">
        <use xlink:href="#TearGraphic" transform="matrix(.914 0 0 .914 701.85 498.6)"/>
      </g>
      <g id="TearAnimf29r1">
        <use xlink:href="#TearGraphic" transform="matrix(.914 0 0 .914 701.85 665.6)"/>
      </g>
    </g>
    <g id="BlackMaskRect">
      <path fill="#000" stroke="none" d="M823.45,613.6 L823.45,508.3 -23.6,508.3 -23.6,613.6 823.45,613.6Z" test="BlackMaskRect"/>
    </g>
  </g>
</svg>