<?xml version="1.0" encoding="utf-8"?>
<svg id="EdithAnim06" image-rendering="inherit" baseProfile="basic" version="1.1" x="0px" y="0px" width="800" height="600" xmlns="http://www.w3.org/2000/svg" xmlns:xlink="http://www.w3.org/1999/xlink">
  <defs>
    <g id="TearGraphic" overflow="visible">
      <path id="Layer4_0_1_STROKES" stroke="#0FF" stroke-width="1" stroke-linejoin="round" stroke-linecap="round" fill="none" d="M-1.15 1.6Q-1.25 5.75 -2.25 8.6 -3.4 11.65 -6.8 16.5 -10.25 21.45 -8.25 27.95 -6.25 34.6 -.7 34.8 4.75 35 7.25 30.15 9.3 26.2 8.9 20.65 8.7 17.9 4.8 12.25 .55 6.05 -.7 0" test="TearGraphic"/>
    </g>
  </defs>
  <g id="Jean-Renof174r1" overflow="visible">
    <g id="Jean-Reno-body">
      <path id="Layer2_0_1_STROKES" stroke="#FEB7AE" stroke-width="1.89" stroke-linejoin="round" stroke-linecap="round" fill="none" d="M817.495,471.867 Q823.637,478.01 861.957,484.152 887.708,488.31 914.877,490.767 922.153,491.429 964.726,500.123 1001.061,507.494 1007.487,505.887 1017.268,503.43 1024.733,500.453 1034.23,496.626 1043.397,490.767 1052.516,484.908 1064.707,483.113 1074.913,481.553 1083.134,483.207 1089.04,484.388 1094.71,486.278 1097.545,487.223 1099.199,487.932 1097.545,488.405 1095.655,489.397 1091.97,491.429 1091.072,494.216 1090.174,497.004 1093.246,499.839 1094.805,501.209 1096.506,502.06 1094.616,502.816 1092.915,504.186 1089.466,506.927 1090.363,509.856 1091.261,512.833 1096.931,514.109 1099.766,514.77 1102.412,514.817 L1103.452,520.865 Q1104.916,527.197 1107.137,528.52 1109.358,529.843 1114.744,527.291 1117.438,526.063 1119.658,524.504 L1121.454,528.52 Q1123.911,532.442 1127.455,531.827 1130.998,531.26 1133.975,528.189 1135.44,526.63 1136.196,525.212 L1139.645,526.63 Q1143.331,527.811 1144.512,526.63 1145.693,525.449 1146.638,522.141 L1147.347,519.07 1149.615,532.016 Q1151.694,545.813 1150.654,549.782 1150.56,550.113 1149.568,554.98 1148.859,558.429 1147.961,560.697 1145.315,567.454 1138.558,571.045 M1070.755,525.685 Q1078.976,523.7 1090.222,525.638 1106.617,528.425 1115.17,539.387 1118.477,543.64 1125.376,552.381 1131.282,560.083 1134.589,566.273 1143.52,582 1139.976,600.104 1136.479,616.925 1127.124,632.375 1122.824,639.463 1114.461,649.716 1112.098,652.598 1103.31,659.497 1092.868,667.671 1080.157,675.893 1044.673,698.903 1012.401,708.826 L996.667,713.669 Q999.306,716.97 1001.439,727.631 1003.612,738.499 1002.715,744.5 1001.959,749.603 1004.652,753.005 1005.361,753.95 1008.857,756.548 1011.645,758.627 1015.85,765.242 1021.284,773.747 1020.197,778.756 1019.063,784.19 1014.149,789.434 1009.708,794.112 1005.786,795.293 1002.856,796.191 997.281,796.286 L992.32,796.238 998.746,797.561 Q1005.975,799.877 1010.275,804.743 1015.85,811.075 1018.118,815.516 1020.764,820.619 1019.252,823.643 1018.213,825.77 1015.425,832.196 1011.976,838.149 1005.55,841.126 999.549,843.914 986.461,840.842 979.893,839.094 977.105,838.385 972.38,837.204 970.585,837.346 968.222,837.535 949.653,842.26 930.847,847.079 924.28,847.741 917.381,848.45 909.112,844.953 905.238,843.158 903.679,842.543 901.127,841.457 899.946,841.598 896.166,841.787 894.229,842.024 890.874,842.496 888.37,844.433 885.535,846.607 881.66,845.662 877.975,844.764 877.03,842.307 875.943,839.519 876.037,837.866 876.179,835.55 878.447,833.802 880.526,832.196 883.834,831.629 885.487,831.392 886.716,831.44 885.818,830.4 885.204,829.03 883.975,826.289 885.298,824.825 886.763,823.218 890.59,822.415 893.803,821.753 896.402,821.99 897.536,822.084 894.985,820.289 891.819,818.068 892.858,817.028 894.087,815.8 897.253,815.894 898.717,815.942 902.308,816.556 903.537,816.745 905.521,818.162 906.939,819.202 907.978,818.682 911.286,817.028 915.727,814.949 922.531,811.784 925.225,810.886 929.477,809.468 933.73,808.523 M829.496,472.954 Q833.654,470.969 848.538,462.086 862.524,454.196 867.532,454.054 880.526,453.676 884.542,454.054 897.347,455.235 909.16,461.141 934.486,473.804 938.124,475.694 954.331,484.294 961.371,489.964 968.175,495.445 973.845,498.705 976.68,500.359 978.145,500.879 M806.816,536.978 Q806.816,532.914 807.808,527.906 809.84,517.841 814.849,513.116 825.385,503.194 838.946,505.32 844.144,506.123 854.302,512.36 863.658,518.078 866.115,521.149 868.052,523.559 872.872,524.456 876.557,525.165 881.471,524.929 884.117,524.834 898.056,523.842 911.475,523.086 915.302,523.984 921.634,525.449 936.281,530.41 953.055,536.127 956.173,538.631 958.536,540.521 966.568,547.514 974.081,553.751 976.963,554.933 980.271,556.256 980.791,557.153 981.121,557.768 980.507,559.941 980.271,560.792 980.791,567.076 981.31,573.927 980.507,579.314 979.515,585.976 974.412,603.411 969.592,619.854 967.041,626.091 964.962,631.241 958.394,642.676 952.393,653.118 950.267,655.859 948.802,657.796 945.495,661.718 L942.471,665.309 947.007,666.065 Q952.11,667.057 954.756,668.38 956.882,669.467 961.513,671.64 965.387,673.908 967.513,677.357 970.301,681.893 970.963,684.161 971.813,687.138 970.821,690.587 969.829,693.989 967.466,697.628 965.529,700.604 963.261,702.872 960.19,705.944 958.3,707.456 954.945,710.149 952.63,710.432 949.558,710.858 948.141,710.716 945.967,710.48 942.235,709.015 939.211,707.834 937.084,705.377 934.108,701.975 932.076,700.51 929.241,698.431 927.776,695.501 925.933,691.721 924.043,689.642 920.925,686.193 918.893,684.965 917.428,684.114 914.593,683.5 912.325,683.027 911.947,683.122 910.577,683.736 908.215,684.681 903.962,686.855 902.356,687.469 899.757,688.414 898.292,686.335 895.977,683.122 895.599,682.035 894.843,679.909 895.93,676.885 897.253,673.294 897.772,672.585 898.576,671.593 901.6,670.27 906.136,668.238 912.231,670.27 912.892,670.506 912.231,667.057 910.53,657.796 910.483,657.56 907.837,640.833 910.341,627.509 912.656,615.365 918.799,596.796 923.76,581.818 923.335,580.259 922.815,578.321 908.971,578.888 893.567,579.55 891.205,578.605 888.559,577.565 873.722,573.549 859.878,569.769 859.027,569.155 M786.262,547.42 Q799.492,559.752 806.911,564.997 826.661,579.03 850.759,585.929 874.384,592.733 896.638,600.056 907.742,603.695 914.121,606.01 M943.132,803.326 Q942.14,799.168 924.232,766.849 905.994,733.868 904.624,729.616 901.883,721.016 899.757,710.858 897.158,698.478 898.245,695.785 899.332,693.186 902.308,690.493 904.246,688.697 906.514,687.28 M933.446,798.601 Q932.17,799.546 930.186,800.444 926.311,802.286 923.051,802.145 919.696,802.003 913.507,799.546 909.018,797.75 906.277,796.238 905.285,795.671 904.529,793.545 903.868,791.75 902.734,791.75 901.6,791.75 899.143,793.876 896.355,796.286 895.174,796.711 893.378,797.372 889.787,796.427 886.621,795.577 884.779,794.348 883.314,793.403 882.936,791.23 882.7,789.718 882.889,786.552 883.03,784.237 884.353,782.867 884.401,782.772 887.377,780.41 888.842,779.228 890.401,778.756 891.157,778.52 891.63,778.52 M899.899,778.992 Q899.71,778.189 899.946,777.149 900.324,775.07 902.261,774.031 904.198,772.991 907.506,773.322 909.349,773.511 912.42,774.031 913.79,774.173 916.342,775.307 918.751,776.393 919.507,776.393 M933.73,815.847 Q926.595,819.58 918.799,823.36 903.301,831.014 900.182,831.44 897.064,831.865 893.709,831.723 L890.968,831.44 M996.667,713.669 L996.619,713.693 Q978.145,719.363 977.719,719.363 977.625,719.363 981.972,735.569 986.224,753.619 985.468,762.218 L983.673,781.969 Q982.303,802.381 984.523,805.925" test="Jean Reno body"/>
    </g>
    <g id="Jean-Renof105r1">
      <g id="JeanRenoFace">
        <path fill="#000" stroke="none" d="M843.135,326.109 Q838.552,329.463 836.331,333.905 833.213,340.189 827.637,346.71 820.361,355.309 815.069,355.64 810.108,355.923 796.263,350.49 781.569,344.3 777.741,342.882 773.3,341.229 767.252,334.047 759.408,324.786 757.849,323.463 755.912,321.809 754.92,319.257 754.116,316.422 753.786,315.336 753.219,313.398 752.179,312.973 750.903,312.406 747.926,313.54 740.272,316.139 736.964,317.604 731.483,320.013 726.664,324.88 718.395,332.96 714.19,337.071 706.677,344.489 703.512,348.552 685.084,372.65 679.414,379.737 675.398,384.746 673.272,390.274 671.523,394.81 669.964,402.89 668.074,412.812 660.041,440.217 L659.711,470.505 Q659.382,504.706 659.616,525.362 663.207,528.622 665.711,533.725 667.271,536.796 670.436,544.215 671.854,547.238 672.704,554.043 673.319,559.476 677.051,564.532 680.312,568.974 684.422,572.234 688.108,575.116 690.754,579.18 691.746,580.691 696.566,591.37 699.401,597.701 703.039,598.552 704.079,598.788 712.253,602.568 717.828,605.167 721.467,603.75 723.357,602.994 725.766,603.088 727.137,603.135 729.924,603.324 735.311,603.466 740.839,599.025 745.659,595.15 755.25,591.748 763.566,588.819 765.409,586.267 766.685,584.519 768.291,584.472 769.378,584.472 771.504,585.369 776.702,587.637 780.104,586.267 783.647,584.85 792.105,581.353 799.713,578.754 805.146,579.652 808.926,580.266 818.613,584.283 827.496,587.921 832.079,588.157 836.001,588.393 842.852,593.969 848.853,598.883 852.869,597.607 855.326,596.851 857.877,597.56 858.917,597.843 862.083,599.402 867.233,601.812 871.296,599.025 873.706,597.371 877.061,596.52 878.998,596.048 882.684,595.386 889.157,593.874 891.614,588.157 894.78,580.786 897.473,576.25 900.072,571.809 904.371,566.422 905.978,564.39 913.821,557.633 919.349,552.861 920.436,548.467 921.523,544.167 925.114,539.631 929.65,533.82 930.831,531.457 932.485,528.15 934.375,523.661 936.029,520.684 939.336,520.07 942.833,519.456 943.353,521.345 943.589,522.149 943.116,527.205 942.833,530.465 941.274,532.922 L939.809,534.765 941.274,532.922 Q942.833,530.465 943.116,527.205 943.589,522.149 943.353,521.345 942.833,519.456 939.336,520.07 936.029,520.684 934.375,523.661 932.485,528.15 930.831,531.457 929.65,533.82 925.114,539.631 921.523,544.167 920.436,548.467 919.349,552.861 913.821,557.633 905.978,564.39 904.371,566.422 900.072,571.809 897.473,576.25 894.78,580.786 891.614,588.157 889.157,593.874 882.684,595.386 878.998,596.048 877.061,596.52 873.706,597.371 871.296,599.025 867.233,601.812 862.083,599.402 858.917,597.843 857.877,597.56 855.326,596.851 852.869,597.607 848.853,598.883 842.852,593.969 836.001,588.393 832.079,588.157 827.496,587.921 818.613,584.283 808.926,580.266 805.146,579.652 799.713,578.754 792.105,581.353 783.647,584.85 780.104,586.267 776.702,587.637 771.504,585.369 769.378,584.472 768.291,584.472 766.685,584.519 765.409,586.267 763.566,588.819 755.25,591.748 745.659,595.15 740.839,599.025 735.311,603.466 729.924,603.324 727.137,603.135 725.766,603.088 723.357,602.994 721.467,603.75 717.828,605.167 712.253,602.568 704.079,598.788 703.039,598.552 699.401,597.701 696.566,591.37 691.746,580.691 690.754,579.18 688.108,575.116 684.422,572.234 680.312,568.974 677.051,564.532 673.319,559.476 672.704,554.043 671.854,547.238 670.436,544.215 667.271,536.796 665.711,533.725 663.207,528.622 659.616,525.362 659.615,525.48 659.616,525.598 659.853,542.75 660.514,548.94 660.987,553.665 662.782,561.555 664.719,569.824 667.602,579.416 667.838,580.125 674.169,593.213 680.217,605.781 682.249,613.672 686.502,630.399 689.384,634.887 690.943,637.344 694.109,640.321 696.141,642.258 702.094,647.692 703.7,649.204 709.465,656.575 715.135,663.852 716.836,665.363 720.994,669.096 728.838,673.254 735.594,676.798 739.421,681.24 746.367,689.272 752.132,692.391 758.369,695.698 767.772,695.887 767.96,695.887 782.655,698.628 794.657,700.896 800.894,699.195 805.713,697.872 816.156,697.73 826.172,697.588 831.795,695.793 840.442,693.052 846.065,689.178 852.065,684.972 859.011,676.515 862.555,673.349 864.398,671.601 867.658,668.482 868.603,664.088 869.454,660.119 877.864,652.417 886.464,644.574 887.692,640.179 890.243,631.06 894.26,624.634 898.181,618.444 904.229,613.578 908.576,610.128 912.404,599.875 916.278,589.575 919.113,587.165 924.027,583.054 926.626,575.447 928.8,567.32 929.886,564.532 935.226,550.641 939.242,541.332 L942.171,534.765 942.786,536.607 Q944.439,538.592 949.731,539.49 955.259,540.435 959.181,536.088 961.78,533.158 962.961,529.094 963.245,528.055 961.307,517.896 959.134,506.556 959.654,497.862 960.268,487.987 964.899,477.497 967.214,472.158 972.931,462.425 976.853,455.763 977.656,450.518 978.601,444.234 975.294,439.272 970.805,432.516 968.726,431.429 964.899,429.397 958.094,433.744 957.197,437.382 955.118,443.572 951.149,455.479 951.149,459.59 951.149,464.598 949.495,472.3 948.692,476.127 947.841,478.962 938.864,445.887 935.084,433.13 931.587,421.365 921.854,397.125 911.034,370.193 907.206,366.035 902.906,361.357 889.676,350.348 876.305,339.197 870.351,335.322 867.8,333.669 860.665,326.959 855.94,322.518 852.396,322.518 847.955,322.518 843.135,326.109 M907.679,451.982 Q912.829,459.543 912.876,459.59 912.829,459.543 907.679,451.982 903.615,445.982 899.646,443.997 895.441,441.918 883.298,443.43 869.642,445.651 865.154,446.36 858.633,447.399 845.262,452.691 832.315,457.794 826.409,461.48 832.315,457.794 845.262,452.691 858.633,447.399 865.154,446.36 869.642,445.651 883.298,443.43 895.441,441.918 899.646,443.997 903.615,445.982 907.679,451.982 M892.37,469.323 L891.283,474.048 Q889.724,479.34 887.361,482.27 884.384,486.003 879.849,487.42 874.84,488.979 867.044,487.94 854.428,486.286 853.341,468.284 848.167,470.206 842.946,472.631 L838.694,474.71 842.946,472.631 Q848.167,470.206 853.341,468.284 853.412,468.262 853.483,468.237 869.69,462.33 879.801,463.37 884.195,463.834 892.37,469.323 893.335,469.973 894.354,470.694 904.135,477.639 906.734,478.017 904.135,477.639 894.354,470.694 893.335,469.973 892.37,469.323 M896.386,492.145 Q901.064,490.16 902.009,486.995 901.064,490.16 896.386,492.145 892.842,493.61 888.306,494.082 892.842,493.61 896.386,492.145 M864.02,513.502 Q870.446,514.164 875.076,512.037 870.446,514.164 864.02,513.502 857.546,512.841 853.341,509.675 857.546,512.841 864.02,513.502 M841.056,483.215 Q844.458,490.917 851.451,494.082 844.458,490.917 841.056,483.215 M829.763,547.002 L829.716,543.742 829.763,547.002 Q829.669,550.641 828.771,552.719 827.873,554.799 822.582,557.019 L817.431,558.862 Q814.313,559.382 812.706,554.751 812.706,554.94 812.706,555.082 812.706,558.437 810.486,562.075 808.029,565.997 803.256,569.73 798.012,573.84 791.444,573.51 784.262,573.132 776.796,567.367 770.465,562.5 767.866,552.483 765.882,544.97 766.354,536.655 766.637,531.457 771.221,516.668 776.088,501.642 776.796,498.807 777.741,495.264 777.836,483.357 777.741,470.93 777.741,468.567 777.741,463.653 775.615,458.409 772.78,451.557 767.772,449.667 764.7,448.533 758.132,447.777 752.037,447.069 746.036,444.47 737.72,440.832 725.199,438.705 712.395,436.485 706.819,437.855 701.385,439.225 694.77,443.572 688.628,447.683 684.139,452.502 688.628,447.683 694.77,443.572 701.385,439.225 706.819,437.855 712.395,436.485 725.199,438.705 737.72,440.832 746.036,444.47 752.037,447.069 758.132,447.777 764.7,448.533 767.772,449.667 772.78,451.557 775.615,458.409 777.741,463.653 777.741,468.567 777.741,470.93 777.836,483.357 777.741,495.264 776.796,498.807 776.088,501.642 771.221,516.668 766.637,531.457 766.354,536.655 765.882,544.97 767.866,552.483 770.465,562.5 776.796,567.367 784.262,573.132 791.444,573.51 798.012,573.84 803.256,569.73 808.029,565.997 810.486,562.075 812.706,558.437 812.706,555.082 812.706,554.94 812.706,554.751 812.328,553.712 812.045,552.389 L811.289,545.16 811.998,548.514 Q812.659,552.2 812.706,554.751 814.313,559.382 817.431,558.862 L822.582,557.019 Q827.873,554.799 828.771,552.719 829.669,550.641 829.763,547.002 M834.441,608.002 Q837.418,608.758 842.993,613.105 849.041,617.783 851.924,618.87 855.373,620.193 855.373,627.564 855.373,632.383 855.373,632.761 855.562,635.265 856.649,635.88 859.956,637.77 860.901,640.085 862.177,643.109 858.066,645.33 857.358,645.708 845.12,651.283 836.237,655.347 833.969,657.615 832.835,658.748 831.795,661.111 L830.094,665.08 Q827.732,669.522 822.629,668.955 816.486,668.293 811.95,668.529 807.839,668.766 803.729,669.9 793.853,672.593 790.593,673.16 780.765,674.814 777.741,671.79 767.488,661.678 761.156,657.615 758.7,656.055 755.25,650.433 752.037,645.141 749.344,643.912 746.226,642.495 745.139,640.652 744.147,638.242 742.729,636.352 740.981,633.99 740.981,630.682 L741.312,627.847 Q743.485,621.988 747.407,616.743 749.155,614.428 754.541,608.475 757.14,605.592 762.243,604.411 768.244,602.946 770.607,601.387 773.82,599.261 780.246,599.025 787.664,598.788 789.554,598.08 792.058,597.182 800.705,598.316 809.777,599.544 813.651,598.552 818.046,597.465 824.755,602.049 832.929,607.624 834.441,608.002 M759.267,469.985 Q750.355,465.528 747.123,464.031 L747.549,465.118 Q747.832,467.102 746.982,471.402 745.848,477.309 741.926,480.285 737.106,484.018 727.609,483.687 718.584,483.357 714.285,477.497 711.638,473.765 710.457,466.583 699.218,470.938 696.424,474.71 699.218,470.938 710.457,466.583 710.62,466.553 710.788,466.488 717.261,464.078 724.916,462.047 731.531,460.299 734.224,460.062 737.579,459.779 746.226,463.606 746.603,463.774 747.123,464.031 750.355,465.528 759.267,469.985 M754.731,487.987 Q757.377,484.538 757.377,480.852 757.377,484.538 754.731,487.987 752.274,491.153 748.872,492.665 752.274,491.153 754.731,487.987 M701.433,492.617 Q705.874,496.303 710.599,497.39 705.874,496.303 701.433,492.617 696.802,488.743 694.062,483.215 696.802,488.743 701.433,492.617 M710.127,505.895 Q715.041,510.195 717.12,511.045 722.506,513.218 730.444,510.147 722.506,513.218 717.12,511.045 715.041,510.195 710.127,505.895 M897.237,291.758 Q892.417,290.34 890.291,288.97 887.361,287.175 886.889,284.245 885.991,278.953 894.165,273.992 898.229,271.488 902.481,270.07 898.371,269.598 892.937,269.834 882.069,270.306 875.549,273.85 872.052,275.787 869.075,275.315 867.091,275.031 864.161,273.283 860.712,271.204 859.153,270.684 855.987,269.598 852.396,270.543 846.396,272.102 834.961,266.715 828.252,263.55 827.354,263.172 823.715,261.754 822.156,262.51 818.991,264.117 799.098,263.219 781.521,262.416 772.497,261.092 766.543,260.195 757.613,252.777 L749.816,245.5 750.478,248.76 Q751.187,252.588 751.281,255.612 751.659,265.156 746.036,262.51 740.414,259.864 728.507,259.486 L717.687,259.675 725.435,266.763 Q732.145,273.614 727.137,272.433 722.128,271.251 711.591,275.504 L702.094,279.993 704.267,280.134 Q706.772,280.418 708.426,281.127 713.718,283.347 708.709,288.97 698.078,300.877 692.691,307.776 681.162,322.565 671.382,340.047 663.444,354.222 660.797,387.534 659.144,408.654 659.805,432.988 659.9,437.524 660.041,440.217 668.074,412.812 669.964,402.89 671.523,394.81 673.272,390.274 675.398,384.746 679.414,379.737 685.084,372.65 703.512,348.552 706.677,344.489 714.19,337.071 718.395,332.96 726.664,324.88 731.483,320.013 736.964,317.604 740.272,316.139 747.926,313.54 750.903,312.406 752.179,312.973 753.219,313.398 753.786,315.336 754.116,316.422 754.92,319.257 755.912,321.809 757.849,323.463 759.408,324.786 767.252,334.047 773.3,341.229 777.741,342.882 781.569,344.3 796.263,350.49 810.108,355.923 815.069,355.64 820.361,355.309 827.637,346.71 833.213,340.189 836.331,333.905 838.552,329.463 843.135,326.109 847.955,322.518 852.396,322.518 855.94,322.518 860.665,326.959 867.8,333.669 870.351,335.322 876.305,339.197 889.676,350.348 902.906,361.357 907.206,366.035 911.034,370.193 921.854,397.125 931.587,421.365 935.084,433.13 938.864,445.887 947.841,478.962 948.692,476.127 949.495,472.3 951.149,464.598 951.149,459.59 951.149,455.479 955.118,443.572 957.197,437.382 958.094,433.744 958.803,430.626 958.709,429.35 958.473,426.751 957.197,418.86 955.685,409.883 954.929,403.362 952.236,380.163 951.858,376.383 949.92,357.577 950.204,351.86 950.535,345.434 936.312,325.022 922.61,305.319 914.294,298.893 909.9,295.491 897.237,291.758Z" test="JeanRenoFace" vector-effect="non-scaling-stroke" stroke-width="1"/>
        <path id="Layer3_0_1_STROKES" stroke="#FFF" stroke-width="1.89" stroke-linejoin="round" stroke-linecap="round" fill="none" d="M660.041,440.217 Q659.9,437.524 659.805,432.988 659.144,408.654 660.797,387.534 663.444,354.222 671.382,340.047 681.162,322.565 692.691,307.776 698.078,300.877 708.709,288.97 713.718,283.347 708.426,281.127 706.772,280.418 704.267,280.134 L702.094,279.993 711.591,275.504 Q722.128,271.251 727.137,272.433 732.145,273.614 725.435,266.763 L717.687,259.675 728.507,259.486 Q740.414,259.864 746.036,262.51 751.659,265.156 751.281,255.612 751.187,252.588 750.478,248.76 L749.816,245.5 757.613,252.777 Q766.543,260.195 772.497,261.092 781.521,262.416 799.098,263.219 818.991,264.117 822.156,262.51 823.715,261.754 827.354,263.172 828.252,263.55 834.961,266.715 846.396,272.102 852.396,270.543 855.987,269.598 859.153,270.684 860.712,271.204 864.161,273.283 867.091,275.031 869.075,275.315 872.052,275.787 875.549,273.85 882.069,270.306 892.937,269.834 898.371,269.598 902.481,270.07 898.229,271.488 894.165,273.992 885.991,278.953 886.889,284.245 887.361,287.175 890.291,288.97 892.417,290.34 897.237,291.758 909.9,295.491 914.294,298.893 922.61,305.319 936.312,325.022 950.535,345.434 950.204,351.86 949.92,357.577 951.858,376.383 952.236,380.163 954.929,403.362 955.685,409.883 957.197,418.86 958.473,426.751 958.709,429.35 958.803,430.626 958.094,433.744 964.899,429.397 968.726,431.429 970.805,432.516 975.294,439.272 978.601,444.234 977.656,450.518 976.853,455.763 972.931,462.425 967.214,472.158 964.899,477.497 960.268,487.987 959.654,497.862 959.134,506.556 961.307,517.896 963.245,528.055 962.961,529.094 961.78,533.158 959.181,536.088 955.259,540.435 949.731,539.49 944.439,538.592 942.786,536.607 L942.171,534.765 939.242,541.332 Q935.226,550.641 929.886,564.532 928.8,567.32 926.626,575.447 924.027,583.054 919.113,587.165 916.278,589.575 912.404,599.875 908.576,610.128 904.229,613.578 898.181,618.444 894.26,624.634 890.243,631.06 887.692,640.179 886.464,644.574 877.864,652.417 869.454,660.119 868.603,664.088 867.658,668.482 864.398,671.601 862.555,673.349 859.011,676.515 852.065,684.972 846.065,689.178 840.442,693.052 831.795,695.793 826.172,697.588 816.156,697.73 805.713,697.872 800.894,699.195 794.657,700.896 782.655,698.628 767.96,695.887 767.772,695.887 758.369,695.698 752.132,692.391 746.367,689.272 739.421,681.24 735.594,676.798 728.838,673.254 720.994,669.096 716.836,665.363 715.135,663.852 709.465,656.575 703.7,649.204 702.094,647.692 696.141,642.258 694.109,640.321 690.943,637.344 689.384,634.887 686.502,630.399 682.249,613.672 680.217,605.781 674.169,593.213 667.838,580.125 667.602,579.416 664.719,569.824 662.782,561.555 660.987,553.665 660.514,548.94 659.853,542.75 659.616,525.598 659.615,525.48 659.616,525.362 659.382,504.706 659.711,470.505 L660.041,440.217 Q668.074,412.812 669.964,402.89 671.523,394.81 673.272,390.274 675.398,384.746 679.414,379.737 685.084,372.65 703.512,348.552 706.677,344.489 714.19,337.071 718.395,332.96 726.664,324.88 731.483,320.013 736.964,317.604 740.272,316.139 747.926,313.54 750.903,312.406 752.179,312.973 753.219,313.398 753.786,315.336 754.116,316.422 754.92,319.257 755.912,321.809 757.849,323.463 759.408,324.786 767.252,334.047 773.3,341.229 777.741,342.882 781.569,344.3 796.263,350.49 810.108,355.923 815.069,355.64 820.361,355.309 827.637,346.71 833.213,340.189 836.331,333.905 838.552,329.463 843.135,326.109 847.955,322.518 852.396,322.518 855.94,322.518 860.665,326.959 867.8,333.669 870.351,335.322 876.305,339.197 889.676,350.348 902.906,361.357 907.206,366.035 911.034,370.193 921.854,397.125 931.587,421.365 935.084,433.13 938.864,445.887 947.841,478.962 948.692,476.127 949.495,472.3 951.149,464.598 951.149,459.59 951.149,455.479 955.118,443.572 957.197,437.382 958.094,433.744 M826.409,461.48 Q832.315,457.794 845.262,452.691 858.633,447.399 865.154,446.36 869.642,445.651 883.298,443.43 895.441,441.918 899.646,443.997 903.615,445.982 907.679,451.982 912.829,459.543 912.876,459.59 M853.341,468.284 Q854.428,486.286 867.044,487.94 874.84,488.979 879.849,487.42 884.384,486.003 887.361,482.27 889.724,479.34 891.283,474.048 L892.37,469.323 Q884.195,463.834 879.801,463.37 869.69,462.33 853.483,468.237 853.412,468.262 853.341,468.284 848.167,470.206 842.946,472.631 L838.694,474.71 M892.37,469.323 Q893.335,469.973 894.354,470.694 904.135,477.639 906.734,478.017 M888.306,494.082 Q892.842,493.61 896.386,492.145 901.064,490.16 902.009,486.995 M659.616,525.362 Q663.207,528.622 665.711,533.725 667.271,536.796 670.436,544.215 671.854,547.238 672.704,554.043 673.319,559.476 677.051,564.532 680.312,568.974 684.422,572.234 688.108,575.116 690.754,579.18 691.746,580.691 696.566,591.37 699.401,597.701 703.039,598.552 704.079,598.788 712.253,602.568 717.828,605.167 721.467,603.75 723.357,602.994 725.766,603.088 727.137,603.135 729.924,603.324 735.311,603.466 740.839,599.025 745.659,595.15 755.25,591.748 763.566,588.819 765.409,586.267 766.685,584.519 768.291,584.472 769.378,584.472 771.504,585.369 776.702,587.637 780.104,586.267 783.647,584.85 792.105,581.353 799.713,578.754 805.146,579.652 808.926,580.266 818.613,584.283 827.496,587.921 832.079,588.157 836.001,588.393 842.852,593.969 848.853,598.883 852.869,597.607 855.326,596.851 857.877,597.56 858.917,597.843 862.083,599.402 867.233,601.812 871.296,599.025 873.706,597.371 877.061,596.52 878.998,596.048 882.684,595.386 889.157,593.874 891.614,588.157 894.78,580.786 897.473,576.25 900.072,571.809 904.371,566.422 905.978,564.39 913.821,557.633 919.349,552.861 920.436,548.467 921.523,544.167 925.114,539.631 929.65,533.82 930.831,531.457 932.485,528.15 934.375,523.661 936.029,520.684 939.336,520.07 942.833,519.456 943.353,521.345 943.589,522.149 943.116,527.205 942.833,530.465 941.274,532.922 L939.809,534.765 M878.384,469.985 L882.164,470.93 M853.341,509.675 Q857.546,512.841 864.02,513.502 870.446,514.164 875.076,512.037 M841.056,483.215 Q844.458,490.917 851.451,494.082 M812.706,554.751 Q814.313,559.382 817.431,558.862 L822.582,557.019 Q827.873,554.799 828.771,552.719 829.669,550.641 829.763,547.002 L829.716,543.742 M812.706,554.751 Q812.659,552.2 811.998,548.514 L811.289,545.16 812.045,552.389 Q812.328,553.712 812.706,554.751 812.706,554.94 812.706,555.082 812.706,558.437 810.486,562.075 808.029,565.997 803.256,569.73 798.012,573.84 791.444,573.51 784.262,573.132 776.796,567.367 770.465,562.5 767.866,552.483 765.882,544.97 766.354,536.655 766.637,531.457 771.221,516.668 776.088,501.642 776.796,498.807 777.741,495.264 777.836,483.357 777.741,470.93 777.741,468.567 777.741,463.653 775.615,458.409 772.78,451.557 767.772,449.667 764.7,448.533 758.132,447.777 752.037,447.069 746.036,444.47 737.72,440.832 725.199,438.705 712.395,436.485 706.819,437.855 701.385,439.225 694.77,443.572 688.628,447.683 684.139,452.502 M755.959,624.067 Q760.117,621.421 765.693,619.815 771.741,618.066 776.796,618.397 779.537,618.586 785.727,620.807 790.924,622.697 795.696,622.177 799.476,621.752 806.564,619.248 812.848,616.98 817.431,616.98 823.29,616.98 828.44,619.342 832.599,621.279 835.859,624.54 M741.312,627.847 Q743.485,621.988 747.407,616.743 749.155,614.428 754.541,608.475 757.14,605.592 762.243,604.411 768.244,602.946 770.607,601.387 773.82,599.261 780.246,599.025 787.664,598.788 789.554,598.08 792.058,597.182 800.705,598.316 809.777,599.544 813.651,598.552 818.046,597.465 824.755,602.049 832.929,607.624 834.441,608.002 837.418,608.758 842.993,613.105 849.041,617.783 851.924,618.87 855.373,620.193 855.373,627.564 855.373,632.383 855.373,632.761 855.562,635.265 856.649,635.88 859.956,637.77 860.901,640.085 862.177,643.109 858.066,645.33 857.358,645.708 845.12,651.283 836.237,655.347 833.969,657.615 832.835,658.748 831.795,661.111 L830.094,665.08 Q827.732,669.522 822.629,668.955 816.486,668.293 811.95,668.529 807.839,668.766 803.729,669.9 793.853,672.593 790.593,673.16 780.765,674.814 777.741,671.79 767.488,661.678 761.156,657.615 758.7,656.055 755.25,650.433 752.037,645.141 749.344,643.912 746.226,642.495 745.139,640.652 744.147,638.242 742.729,636.352 740.981,633.99 740.981,630.682 L741.312,627.847Z M659.097,432.657 Q653.899,425.712 645.772,425.381 637.739,425.097 635.944,431.24 634.716,435.445 640.953,449.006 647.757,463.701 647.757,468.567 647.757,473.765 647.993,492.003 647.993,508.777 646.811,514.4 645.536,520.542 647.804,522.669 649.599,524.322 653.426,523.425 M759.267,469.985 Q750.355,465.528 747.147,464.031 L747.549,465.118 Q747.832,467.102 746.982,471.402 745.848,477.309 741.926,480.285 737.106,484.018 727.609,483.687 718.584,483.357 714.285,477.497 711.638,473.765 710.457,466.606 699.218,470.938 696.424,474.71 M747.147,464.031 Q746.603,463.774 746.226,463.606 737.579,459.779 734.224,460.062 731.531,460.299 724.916,462.047 717.261,464.078 710.788,466.488 710.62,466.553 710.457,466.606 M735.169,466.205 L737.531,466.677 M748.872,492.665 Q752.274,491.153 754.731,487.987 757.377,484.538 757.377,480.852 M694.062,483.215 Q696.802,488.743 701.433,492.617 705.874,496.303 710.599,497.39 M710.127,505.895 Q715.041,510.195 717.12,511.045 722.506,513.218 730.444,510.147 M790.026,608.002 Q798.531,609.42 802.784,609.42 M790.499,630.209 Q794.137,629.737 795.176,629.784 797.397,629.879 800.894,631.155" test="JeanRenoFace"/>
      </g>
      <g id="TearAnimf15r1">
        <use xlink:href="#TearGraphic" transform="matrix(.914 0 0 .914 732.45 521.65)"/>
      </g>
      <g id="TearAnimf0r1">
        <use xlink:href="#TearGraphic" transform="matrix(.091 0 0 .091 732.05 483.2)"/>
      </g>
    </g>
    <g id="BlackMaskRect">
      <path fill="#000" stroke="none" d="M823.45,613.6 L823.45,508.3 -23.6,508.3 -23.6,613.6 823.45,613.6Z" test="BlackMaskRect"/>
    </g>
  </g>
</svg>