<?xml version="1.0" encoding="utf-8"?>
<svg id="EdithAnim06" image-rendering="inherit" baseProfile="basic" version="1.1" x="0px" y="0px" width="800" height="600" xmlns="http://www.w3.org/2000/svg" xmlns:xlink="http://www.w3.org/1999/xlink">
  <defs>
    <g id="TearGraphic" overflow="visible">
      <path id="Layer4_0_1_STROKES" stroke="#0FF" stroke-width="1" stroke-linejoin="round" stroke-linecap="round" fill="none" d="M-1.15 1.6Q-1.25 5.75 -2.25 8.6 -3.4 11.65 -6.8 16.5 -10.25 21.45 -8.25 27.95 -6.25 34.6 -.7 34.8 4.75 35 7.25 30.15 9.3 26.2 8.9 20.65 8.7 17.9 4.8 12.25 .55 6.05 -.7 0" test="TearGraphic"/>
    </g>
  </defs>
  <g id="Jean-Renof175r1" overflow="visible">
    <g id="Jean-Reno-body">
      <path id="Layer2_0_1_STROKES" stroke="#FEB7AE" stroke-width="1.89" stroke-linejoin="round" stroke-linecap="round" fill="none" d="M842.145,484.167 Q848.287,490.309 886.607,496.452 912.358,500.61 939.527,503.067 946.803,503.729 989.376,512.423 1025.711,519.794 1032.137,518.187 1041.918,515.73 1049.383,512.753 1058.88,508.926 1068.047,503.067 1077.166,497.208 1089.357,495.413 1099.563,493.853 1107.784,495.507 1113.69,496.688 1119.36,498.578 1122.195,499.523 1123.849,500.232 1122.195,500.704 1120.305,501.697 1116.62,503.729 1115.722,506.516 1114.824,509.304 1117.896,512.139 1119.455,513.509 1121.156,514.36 1119.266,515.116 1117.565,516.486 1114.116,519.227 1115.013,522.156 1115.911,525.133 1121.581,526.409 1124.416,527.07 1127.062,527.117 L1128.102,533.165 Q1129.566,539.497 1131.787,540.82 1134.008,542.143 1139.394,539.591 1142.088,538.363 1144.308,536.804 L1146.104,540.82 Q1148.561,544.742 1152.105,544.127 1155.648,543.56 1158.625,540.489 1160.09,538.93 1160.846,537.512 L1164.295,538.93 Q1167.981,540.111 1169.162,538.93 1170.343,537.749 1171.288,534.441 L1171.997,531.37 1174.265,544.316 Q1176.344,558.113 1175.304,562.082 1175.21,562.413 1174.218,567.28 1173.509,570.729 1172.611,572.997 1169.965,579.754 1163.208,583.345 M1095.405,537.985 Q1103.626,536 1114.872,537.938 1131.267,540.725 1139.82,551.687 1143.127,555.94 1150.026,564.681 1155.932,572.383 1159.239,578.573 1168.17,595.299 1164.626,612.404 1161.129,629.225 1151.774,644.675 1147.474,651.763 1139.111,662.016 1136.748,664.898 1127.96,671.797 1117.518,679.971 1104.807,688.193 1069.323,711.203 1037.051,721.126 L1021.317,725.969 Q1023.956,729.27 1026.089,739.931 1028.262,750.799 1027.364,756.8 1026.609,761.902 1029.302,765.305 1030.011,766.25 1033.507,768.848 1036.295,770.927 1040.5,777.542 1045.934,786.047 1044.847,791.056 1043.713,796.489 1038.799,801.734 1034.358,806.412 1030.436,807.593 1027.506,808.491 1021.931,808.585 L1016.97,808.538 1023.396,809.861 Q1030.625,812.176 1034.925,817.043 1040.5,823.375 1042.768,827.816 1045.414,832.919 1043.902,835.943 1042.863,838.07 1040.075,844.496 1036.626,850.449 1030.2,853.426 1024.199,856.214 1011.111,853.142 1004.543,851.394 1001.755,850.685 997.03,849.504 995.235,849.646 992.872,849.835 974.303,854.56 955.497,859.379 948.93,860.041 942.031,860.749 933.762,857.253 929.888,855.458 928.329,854.843 925.777,853.757 924.596,853.898 920.816,854.087 918.879,854.324 915.524,854.796 913.02,856.733 910.185,858.907 906.31,857.962 902.625,857.064 901.68,854.607 900.593,851.819 900.687,850.166 900.829,847.85 903.097,846.102 905.176,844.496 908.484,843.929 910.137,843.692 911.366,843.739 910.468,842.7 909.854,841.33 908.625,838.589 909.948,837.124 911.413,835.518 915.24,834.715 918.453,834.053 921.052,834.29 922.186,834.384 919.635,832.589 916.469,830.368 917.508,829.328 918.737,828.1 921.903,828.194 923.367,828.242 926.958,828.856 928.187,829.045 930.171,830.462 931.589,831.502 932.628,830.982 935.936,829.328 940.377,827.249 947.181,824.084 949.875,823.186 954.127,821.768 958.38,820.823 M854.146,485.254 Q858.304,483.269 873.188,474.386 887.174,466.496 892.182,466.354 905.176,465.976 909.192,466.354 921.997,467.535 933.81,473.441 959.136,486.104 962.774,487.994 978.981,496.594 986.021,502.264 992.825,507.745 998.495,511.005 1001.33,512.659 1002.795,513.179 M831.466,549.278 Q831.466,545.214 832.458,540.206 834.49,530.141 839.499,525.416 850.035,515.494 863.596,517.62 868.794,518.423 878.952,524.66 888.308,530.378 890.765,533.449 892.702,535.859 897.522,536.756 901.207,537.465 906.121,537.229 908.767,537.134 922.706,536.142 936.125,535.386 939.952,536.284 946.284,537.749 960.931,542.71 977.705,548.427 980.823,550.931 983.186,552.821 991.218,559.814 998.731,566.051 1001.613,567.233 1004.921,568.555 1005.441,569.453 1005.771,570.068 1005.157,572.241 1004.921,573.092 1005.441,579.376 1005.96,586.227 1005.157,591.613 1004.165,598.276 999.062,615.711 994.242,632.154 991.691,638.391 989.612,643.541 983.044,654.976 977.043,665.418 974.917,668.159 973.452,670.096 970.145,674.017 L967.121,677.608 971.657,678.365 Q976.76,679.357 979.406,680.68 981.532,681.767 986.163,683.94 990.037,686.208 992.163,689.657 994.951,694.193 995.613,696.461 996.463,699.438 995.471,702.887 994.479,706.289 992.116,709.928 990.179,712.904 987.911,715.172 984.84,718.243 982.95,719.756 979.595,722.449 977.28,722.732 974.208,723.158 972.791,723.016 970.617,722.78 966.885,721.315 963.861,720.133 961.734,717.677 958.758,714.275 956.726,712.81 953.891,710.731 952.426,707.801 950.583,704.021 948.693,701.942 945.575,698.493 943.543,697.265 942.078,696.414 939.243,695.8 936.975,695.327 936.597,695.422 935.227,696.036 932.865,696.981 928.612,699.155 927.006,699.769 924.407,700.714 922.942,698.635 920.627,695.422 920.249,694.335 919.493,692.209 920.58,689.185 921.903,685.594 922.422,684.885 923.226,683.893 926.25,682.57 930.786,680.538 936.881,682.57 937.542,682.806 936.881,679.357 935.18,670.096 935.133,669.86 932.487,653.133 934.991,639.809 937.306,627.665 943.449,609.096 948.41,594.118 947.985,592.559 947.465,590.621 933.621,591.188 918.217,591.85 915.855,590.905 913.209,589.865 898.372,585.849 884.528,582.069 883.677,581.455 M810.912,559.72 Q824.142,572.052 831.561,577.297 851.311,591.33 875.409,598.228 899.034,605.033 921.288,612.356 932.392,615.995 938.771,618.31 M967.782,815.626 Q966.79,811.468 948.882,779.149 930.644,746.168 929.274,741.916 926.533,733.316 924.407,723.158 921.808,710.778 922.895,708.085 923.982,705.486 926.958,702.793 928.896,700.997 931.164,699.58 M958.096,810.901 Q956.82,811.846 954.836,812.744 950.961,814.586 947.701,814.445 944.346,814.303 938.157,811.846 933.668,810.05 930.927,808.538 929.935,807.971 929.179,805.845 928.518,804.05 927.384,804.05 926.25,804.05 923.793,806.176 921.005,808.585 919.824,809.011 918.028,809.672 914.437,808.727 911.271,807.877 909.429,806.648 907.964,805.703 907.586,803.53 907.35,802.018 907.539,798.852 907.68,796.537 909.003,795.166 909.051,795.072 912.027,792.709 913.492,791.528 915.051,791.056 915.807,790.82 916.28,790.82 M924.549,791.292 Q924.36,790.489 924.596,789.449 924.974,787.37 926.911,786.331 928.848,785.291 932.156,785.622 933,785.811 937.07,786.331 938.44,786.473 940.992,787.607 943.401,788.693 944.157,788.693 M958.38,828.147 Q951.245,831.88 943.449,835.66 927.951,843.314 924.832,843.739 921.714,844.165 918.359,844.023 L915.618,843.739 M1021.317,725.969 L1021.269,725.993 Q1002.795,731.663 1002.369,731.663 1002.275,731.663 1006.622,747.869 1010.874,765.919 1010.118,774.518 L1008.323,794.269 Q1006.953,814.681 1009.173,818.225" test="Jean Reno body"/>
    </g>
    <g id="Jean-Renof106r1">
      <g id="JeanRenoFace">
        <path fill="#000" stroke="none" d="M875.035,343.109 Q870.452,346.463 868.231,350.905 865.113,357.189 859.537,363.71 852.261,372.309 846.969,372.64 842.008,372.923 828.163,367.49 813.469,361.3 809.641,359.882 805.2,358.229 799.152,351.047 791.308,341.786 789.749,340.463 787.812,338.809 786.82,336.257 786.016,333.422 785.686,332.336 785.119,330.398 784.079,329.973 782.803,329.406 779.827,330.54 772.172,333.139 768.865,334.604 763.384,337.013 758.564,341.88 750.295,349.96 746.09,354.071 738.577,361.489 735.412,365.552 716.984,389.65 711.314,396.737 707.298,401.746 705.172,407.274 703.423,411.81 701.864,419.89 699.974,429.812 691.942,457.217 L691.611,487.505 Q691.282,521.706 691.516,542.362 695.107,545.622 697.612,550.725 699.171,553.796 702.337,561.215 703.754,564.238 704.605,571.043 705.219,576.476 708.952,581.532 712.212,585.974 716.323,589.234 720.008,592.116 722.654,596.18 723.646,597.691 728.466,608.37 731.301,614.701 734.939,615.552 735.979,615.788 744.153,619.568 749.728,622.167 753.367,620.75 755.257,619.994 757.666,620.088 759.037,620.135 761.824,620.324 767.211,620.466 772.739,616.025 777.559,612.15 787.15,608.748 795.466,605.819 797.309,603.267 798.585,601.519 800.191,601.472 801.278,601.472 803.404,602.369 808.602,604.637 812.004,603.267 815.548,601.85 824.005,598.353 831.613,595.754 837.046,596.652 840.826,597.266 850.513,601.283 859.396,604.921 863.979,605.157 867.901,605.393 874.752,610.969 880.753,615.883 884.769,614.607 887.226,613.851 889.777,614.56 890.817,614.843 893.983,616.402 899.133,618.812 903.196,616.025 905.606,614.371 908.961,613.52 910.898,613.048 914.584,612.386 921.057,610.874 923.514,605.157 926.68,597.786 929.373,593.25 931.972,588.809 936.271,583.422 937.878,581.39 945.721,574.633 951.25,569.861 952.336,565.467 953.423,561.167 957.014,556.631 961.55,550.82 962.731,548.457 964.385,545.15 966.275,540.661 967.929,537.684 971.236,537.07 974.733,536.456 975.253,538.345 975.489,539.149 975.016,544.205 974.733,547.465 973.174,549.922 L971.709,551.765 973.174,549.922 Q974.733,547.465 975.016,544.205 975.489,539.149 975.253,538.345 974.733,536.456 971.236,537.07 967.929,537.684 966.275,540.661 964.385,545.15 962.731,548.457 961.55,550.82 957.014,556.631 953.423,561.167 952.336,565.467 951.25,569.861 945.721,574.633 937.878,581.39 936.271,583.422 931.972,588.809 929.373,593.25 926.68,597.786 923.514,605.157 921.057,610.874 914.584,612.386 910.898,613.048 908.961,613.52 905.606,614.371 903.196,616.025 899.133,618.812 893.983,616.402 890.817,614.843 889.777,614.56 887.226,613.851 884.769,614.607 880.753,615.883 874.752,610.969 867.901,605.393 863.979,605.157 859.396,604.921 850.513,601.283 840.826,597.266 837.046,596.652 831.613,595.754 824.005,598.353 815.548,601.85 812.004,603.267 808.602,604.637 803.404,602.369 801.278,601.472 800.191,601.472 798.585,601.519 797.309,603.267 795.466,605.819 787.15,608.748 777.559,612.15 772.739,616.025 767.211,620.466 761.824,620.324 759.037,620.135 757.666,620.088 755.257,619.994 753.367,620.75 749.728,622.167 744.153,619.568 735.979,615.788 734.939,615.552 731.301,614.701 728.466,608.37 723.646,597.691 722.654,596.18 720.008,592.116 716.323,589.234 712.212,585.974 708.952,581.532 705.219,576.476 704.605,571.043 703.754,564.238 702.337,561.215 699.171,553.796 697.612,550.725 695.107,545.622 691.516,542.362 691.515,542.48 691.516,542.598 691.753,559.75 692.414,565.94 692.887,570.665 694.682,578.555 696.619,586.824 699.502,596.416 699.738,597.125 706.069,610.213 712.117,622.781 714.149,630.672 718.402,647.399 721.284,651.887 722.843,654.344 726.009,657.321 728.041,659.258 733.994,664.692 735.601,666.204 741.365,673.575 747.035,680.852 748.736,682.363 752.894,686.096 760.738,690.254 767.494,693.798 771.322,698.24 778.267,706.272 784.032,709.391 790.269,712.698 799.672,712.887 799.861,712.887 814.555,715.628 826.557,717.896 832.794,716.195 837.613,714.872 848.056,714.73 858.073,714.588 863.695,712.793 872.342,710.052 877.965,706.178 883.966,701.972 890.911,693.515 894.455,690.349 896.298,688.601 899.558,685.482 900.503,681.088 901.354,677.119 909.764,669.417 918.364,661.574 919.592,657.179 922.144,648.06 926.16,641.634 930.082,635.444 936.13,630.578 940.477,627.128 944.304,616.875 948.178,606.575 951.013,604.165 955.927,600.054 958.526,592.447 960.7,584.32 961.786,581.532 967.126,567.641 971.142,558.332 L974.071,551.765 974.686,553.607 Q976.339,555.592 981.631,556.49 987.16,557.435 991.081,553.088 993.68,550.158 994.861,546.094 995.145,545.055 993.208,534.896 991.034,523.556 991.554,514.862 992.168,504.987 996.799,494.497 999.114,489.158 1004.831,479.425 1008.753,472.763 1009.556,467.518 1010.501,461.234 1007.194,456.272 1002.705,449.516 1000.626,448.429 996.799,446.397 989.995,450.744 989.097,454.382 987.018,460.572 983.049,472.479 983.049,476.59 983.049,481.598 981.395,489.3 980.592,493.127 979.741,495.962 970.764,462.887 966.984,450.13 963.487,438.365 953.754,414.125 942.934,387.193 939.106,383.035 934.807,378.357 921.577,367.348 908.205,356.197 902.251,352.322 899.7,350.669 892.565,343.959 887.84,339.518 884.296,339.518 879.855,339.518 875.035,343.109 M939.579,468.982 Q944.729,476.543 944.776,476.59 944.729,476.543 939.579,468.982 935.515,462.982 931.546,460.997 927.341,458.918 915.198,460.43 901.543,462.651 897.054,463.36 890.533,464.399 877.162,469.691 864.215,474.794 858.309,478.48 864.215,474.794 877.162,469.691 890.533,464.399 897.054,463.36 901.543,462.651 915.198,460.43 927.341,458.918 931.546,460.997 935.515,462.982 939.579,468.982 M924.27,486.323 L923.183,491.048 Q921.624,496.34 919.261,499.27 916.285,503.003 911.749,504.42 906.74,505.979 898.944,504.94 886.328,503.286 885.241,485.284 880.067,487.206 874.846,489.631 L870.594,491.71 874.846,489.631 Q880.067,487.206 885.241,485.284 885.312,485.262 885.383,485.237 901.59,479.33 911.701,480.37 916.096,480.834 924.27,486.323 925.235,486.973 926.254,487.694 936.035,494.639 938.634,495.017 936.035,494.639 926.254,487.694 925.235,486.973 924.27,486.323 M928.286,509.145 Q932.964,507.16 933.909,503.995 932.964,507.16 928.286,509.145 924.742,510.61 920.206,511.082 924.742,510.61 928.286,509.145 M895.92,530.502 Q902.346,531.164 906.976,529.037 902.346,531.164 895.92,530.502 889.447,529.841 885.241,526.675 889.447,529.841 895.92,530.502 M872.956,500.215 Q876.358,507.917 883.351,511.082 876.358,507.917 872.956,500.215 M861.664,564.002 L861.616,560.742 861.664,564.002 Q861.569,567.641 860.671,569.719 859.774,571.799 854.482,574.019 L849.331,575.862 Q846.213,576.382 844.606,571.751 844.606,571.94 844.606,572.082 844.606,575.437 842.386,579.075 839.929,582.997 835.156,586.73 829.912,590.84 823.344,590.51 816.162,590.132 808.696,584.367 802.365,579.5 799.766,569.483 797.782,561.97 798.254,553.655 798.538,548.457 803.121,533.668 807.988,518.642 808.696,515.807 809.641,512.264 809.736,500.357 809.641,487.93 809.641,485.567 809.641,480.653 807.515,475.409 804.68,468.557 799.672,466.667 796.6,465.533 790.033,464.777 783.937,464.069 777.937,461.47 769.621,457.832 757.099,455.705 744.295,453.485 738.719,454.855 733.285,456.225 726.67,460.572 720.528,464.683 716.039,469.502 720.528,464.683 726.67,460.572 733.285,456.225 738.719,454.855 744.295,453.485 757.099,455.705 769.621,457.832 777.937,461.47 783.937,464.069 790.033,464.777 796.6,465.533 799.672,466.667 804.68,468.557 807.515,475.409 809.641,480.653 809.641,485.567 809.641,487.93 809.736,500.357 809.641,512.264 808.696,515.807 807.988,518.642 803.121,533.668 798.538,548.457 798.254,553.655 797.782,561.97 799.766,569.483 802.365,579.5 808.696,584.367 816.162,590.132 823.344,590.51 829.912,590.84 835.156,586.73 839.929,582.997 842.386,579.075 844.606,575.437 844.606,572.082 844.606,571.94 844.606,571.751 844.228,570.712 843.945,569.389 L843.189,562.16 843.898,565.514 Q844.559,569.2 844.606,571.751 846.213,576.382 849.331,575.862 L854.482,574.019 Q859.774,571.799 860.671,569.719 861.569,567.641 861.664,564.002 M866.341,625.002 Q869.318,625.758 874.894,630.105 880.942,634.783 883.824,635.87 887.273,637.193 887.273,644.564 887.273,649.383 887.273,649.761 887.462,652.265 888.549,652.88 891.856,654.77 892.801,657.085 894.077,660.109 889.966,662.33 889.258,662.708 877.02,668.283 868.137,672.347 865.869,674.615 864.735,675.748 863.695,678.111 L861.994,682.08 Q859.632,686.522 854.529,685.955 848.386,685.293 843.85,685.529 839.74,685.766 835.629,686.9 825.754,689.593 822.493,690.16 812.665,691.814 809.641,688.79 799.388,678.678 793.057,674.615 790.6,673.055 787.15,667.433 783.937,662.141 781.244,660.912 778.126,659.495 777.039,657.652 776.047,655.242 774.629,653.352 772.881,650.99 772.881,647.682 L773.212,644.847 Q775.385,638.988 779.307,633.743 781.055,631.428 786.442,625.475 789.04,622.592 794.143,621.411 800.144,619.946 802.507,618.387 805.72,616.261 812.146,616.025 819.564,615.788 821.454,615.08 823.958,614.182 832.605,615.316 841.677,616.544 845.551,615.552 849.946,614.465 856.655,619.049 864.829,624.624 866.341,625.002 M791.167,486.985 Q782.255,482.528 779.023,481.031 L779.449,482.118 Q779.732,484.102 778.882,488.402 777.748,494.309 773.826,497.285 769.006,501.018 759.509,500.687 750.484,500.357 746.185,494.497 743.539,490.765 742.357,483.583 731.118,487.938 728.324,491.71 731.118,487.938 742.357,483.583 742.52,483.553 742.688,483.488 749.161,481.078 756.816,479.047 763.431,477.299 766.124,477.062 769.479,476.779 778.126,480.606 778.504,480.774 779.023,481.031 782.255,482.528 791.167,486.985 M786.631,504.987 Q789.277,501.538 789.277,497.852 789.277,501.538 786.631,504.987 784.174,508.153 780.772,509.665 784.174,508.153 786.631,504.987 M733.333,509.617 Q737.774,513.303 742.499,514.39 737.774,513.303 733.333,509.617 728.702,505.743 725.962,500.215 728.702,505.743 733.333,509.617 M742.027,522.895 Q746.941,527.195 749.02,528.045 754.406,530.219 762.344,527.147 754.406,530.219 749.02,528.045 746.941,527.195 742.027,522.895 M929.137,308.758 Q924.317,307.34 922.191,305.97 919.261,304.175 918.789,301.245 917.891,295.953 926.065,290.992 930.129,288.488 934.381,287.07 930.271,286.598 924.837,286.834 913.969,287.306 907.449,290.85 903.952,292.787 900.976,292.315 898.991,292.031 896.062,290.283 892.612,288.204 891.053,287.684 887.887,286.598 884.296,287.543 878.296,289.102 866.861,283.715 860.152,280.55 859.254,280.172 855.616,278.754 854.056,279.51 850.891,281.117 830.998,280.219 813.421,279.416 804.397,278.093 798.443,277.195 789.513,269.777 L781.717,262.5 782.378,265.76 Q783.087,269.588 783.181,272.612 783.559,282.156 777.937,279.51 772.314,276.864 760.407,276.486 L749.587,276.675 757.336,283.763 Q764.045,290.614 759.037,289.433 754.028,288.251 743.491,292.504 L733.994,296.993 736.168,297.134 Q738.672,297.418 740.326,298.127 745.618,300.347 740.609,305.97 729.978,317.877 724.591,324.776 713.062,339.565 703.282,357.047 695.344,371.222 692.698,404.534 691.044,425.654 691.705,449.988 691.8,454.524 691.942,457.217 699.974,429.812 701.864,419.89 703.423,411.81 705.172,407.274 707.298,401.746 711.314,396.737 716.984,389.65 735.412,365.552 738.577,361.489 746.09,354.071 750.295,349.96 758.564,341.88 763.384,337.013 768.865,334.604 772.172,333.139 779.827,330.54 782.803,329.406 784.079,329.973 785.119,330.398 785.686,332.336 786.016,333.422 786.82,336.257 787.812,338.809 789.749,340.463 791.308,341.786 799.152,351.047 805.2,358.229 809.641,359.882 813.469,361.3 828.163,367.49 842.008,372.923 846.969,372.64 852.261,372.309 859.537,363.71 865.113,357.189 868.231,350.905 870.452,346.463 875.035,343.109 879.855,339.518 884.296,339.518 887.84,339.518 892.565,343.959 899.7,350.669 902.251,352.322 908.205,356.197 921.577,367.348 934.807,378.357 939.106,383.035 942.934,387.193 953.754,414.125 963.487,438.365 966.984,450.13 970.764,462.887 979.741,495.962 980.592,493.127 981.395,489.3 983.049,481.598 983.049,476.59 983.049,472.479 987.018,460.572 989.097,454.382 989.995,450.744 990.703,447.626 990.609,446.35 990.373,443.751 989.097,435.86 987.585,426.883 986.829,420.362 984.136,397.163 983.758,393.383 981.82,374.577 982.104,368.86 982.435,362.434 968.212,342.022 954.51,322.319 946.194,315.893 941.8,312.491 929.137,308.758Z" test="JeanRenoFace" vector-effect="non-scaling-stroke" stroke-width="1"/>
        <path id="Layer3_0_1_STROKES" stroke="#FFF" stroke-width="1.89" stroke-linejoin="round" stroke-linecap="round" fill="none" d="M691.942,457.217 Q691.8,454.524 691.705,449.988 691.044,425.654 692.698,404.534 695.344,371.222 703.282,357.047 713.062,339.565 724.591,324.776 729.978,317.877 740.609,305.97 745.618,300.347 740.326,298.127 738.672,297.418 736.168,297.134 L733.994,296.993 743.491,292.504 Q754.028,288.251 759.037,289.433 764.045,290.614 757.336,283.763 L749.587,276.675 760.407,276.486 Q772.314,276.864 777.937,279.51 783.559,282.156 783.181,272.612 783.087,269.588 782.378,265.76 L781.717,262.5 789.513,269.777 Q798.443,277.195 804.397,278.093 813.421,279.416 830.998,280.219 850.891,281.117 854.056,279.51 855.616,278.754 859.254,280.172 860.152,280.55 866.861,283.715 878.296,289.102 884.296,287.543 887.887,286.598 891.053,287.684 892.612,288.204 896.062,290.283 898.991,292.031 900.976,292.315 903.952,292.787 907.449,290.85 913.969,287.306 924.837,286.834 930.271,286.598 934.381,287.07 930.129,288.488 926.065,290.992 917.891,295.953 918.789,301.245 919.261,304.175 922.191,305.97 924.317,307.34 929.137,308.758 941.8,312.491 946.194,315.893 954.51,322.319 968.212,342.022 982.435,362.434 982.104,368.86 981.82,374.577 983.758,393.383 984.136,397.163 986.829,420.362 987.585,426.883 989.097,435.86 990.373,443.751 990.609,446.35 990.703,447.626 989.995,450.744 996.799,446.397 1000.626,448.429 1002.705,449.516 1007.194,456.272 1010.501,461.234 1009.556,467.518 1008.753,472.763 1004.831,479.425 999.114,489.158 996.799,494.497 992.168,504.987 991.554,514.862 991.034,523.556 993.208,534.896 995.145,545.055 994.861,546.094 993.68,550.158 991.081,553.088 987.16,557.435 981.631,556.49 976.339,555.592 974.686,553.607 L974.071,551.765 971.142,558.332 Q967.126,567.641 961.786,581.532 960.7,584.32 958.526,592.447 955.927,600.054 951.013,604.165 948.178,606.575 944.304,616.875 940.477,627.128 936.13,630.578 930.082,635.444 926.16,641.634 922.144,648.06 919.592,657.179 918.364,661.574 909.764,669.417 901.354,677.119 900.503,681.088 899.558,685.482 896.298,688.601 894.455,690.349 890.911,693.515 883.966,701.972 877.965,706.178 872.342,710.052 863.695,712.793 858.073,714.588 848.056,714.73 837.613,714.872 832.794,716.195 826.557,717.896 814.555,715.628 799.861,712.887 799.672,712.887 790.269,712.698 784.032,709.391 778.267,706.272 771.322,698.24 767.494,693.798 760.738,690.254 752.894,686.096 748.736,682.363 747.035,680.852 741.365,673.575 735.601,666.204 733.994,664.692 728.041,659.258 726.009,657.321 722.843,654.344 721.284,651.887 718.402,647.399 714.149,630.672 712.117,622.781 706.069,610.213 699.738,597.125 699.502,596.416 696.619,586.824 694.682,578.555 692.887,570.665 692.414,565.94 691.753,559.75 691.516,542.598 691.515,542.48 691.516,542.362 691.282,521.706 691.611,487.505 L691.942,457.217 Q699.974,429.812 701.864,419.89 703.423,411.81 705.172,407.274 707.298,401.746 711.314,396.737 716.984,389.65 735.412,365.552 738.577,361.489 746.09,354.071 750.295,349.96 758.564,341.88 763.384,337.013 768.865,334.604 772.172,333.139 779.827,330.54 782.803,329.406 784.079,329.973 785.119,330.398 785.686,332.336 786.016,333.422 786.82,336.257 787.812,338.809 789.749,340.463 791.308,341.786 799.152,351.047 805.2,358.229 809.641,359.882 813.469,361.3 828.163,367.49 842.008,372.923 846.969,372.64 852.261,372.309 859.537,363.71 865.113,357.189 868.231,350.905 870.452,346.463 875.035,343.109 879.855,339.518 884.296,339.518 887.84,339.518 892.565,343.959 899.7,350.669 902.251,352.322 908.205,356.197 921.577,367.348 934.807,378.357 939.106,383.035 942.934,387.193 953.754,414.125 963.487,438.365 966.984,450.13 970.764,462.887 979.741,495.962 980.592,493.127 981.395,489.3 983.049,481.598 983.049,476.59 983.049,472.479 987.018,460.572 989.097,454.382 989.995,450.744 M858.309,478.48 Q864.215,474.794 877.162,469.691 890.533,464.399 897.054,463.36 901.543,462.651 915.198,460.43 927.341,458.918 931.546,460.997 935.515,462.982 939.579,468.982 944.729,476.543 944.776,476.59 M885.241,485.284 Q886.328,503.286 898.944,504.94 906.74,505.979 911.749,504.42 916.285,503.003 919.261,499.27 921.624,496.34 923.183,491.048 L924.27,486.323 Q916.096,480.834 911.701,480.37 901.59,479.33 885.383,485.237 885.312,485.262 885.241,485.284 880.067,487.206 874.846,489.631 L870.594,491.71 M924.27,486.323 Q925.235,486.973 926.254,487.694 936.035,494.639 938.634,495.017 M920.206,511.082 Q924.742,510.61 928.286,509.145 932.964,507.16 933.909,503.995 M691.516,542.362 Q695.107,545.622 697.612,550.725 699.171,553.796 702.337,561.215 703.754,564.238 704.605,571.043 705.219,576.476 708.952,581.532 712.212,585.974 716.323,589.234 720.008,592.116 722.654,596.18 723.646,597.691 728.466,608.37 731.301,614.701 734.939,615.552 735.979,615.788 744.153,619.568 749.728,622.167 753.367,620.75 755.257,619.994 757.666,620.088 759.037,620.135 761.824,620.324 767.211,620.466 772.739,616.025 777.559,612.15 787.15,608.748 795.466,605.819 797.309,603.267 798.585,601.519 800.191,601.472 801.278,601.472 803.404,602.369 808.602,604.637 812.004,603.267 815.548,601.85 824.005,598.353 831.613,595.754 837.046,596.652 840.826,597.266 850.513,601.283 859.396,604.921 863.979,605.157 867.901,605.393 874.752,610.969 880.753,615.883 884.769,614.607 887.226,613.851 889.777,614.56 890.817,614.843 893.983,616.402 899.133,618.812 903.196,616.025 905.606,614.371 908.961,613.52 910.898,613.048 914.584,612.386 921.057,610.874 923.514,605.157 926.68,597.786 929.373,593.25 931.972,588.809 936.271,583.422 937.878,581.39 945.721,574.633 951.25,569.861 952.336,565.467 953.423,561.167 957.014,556.631 961.55,550.82 962.731,548.457 964.385,545.15 966.275,540.661 967.929,537.684 971.236,537.07 974.733,536.456 975.253,538.345 975.489,539.149 975.016,544.205 974.733,547.465 973.174,549.922 L971.709,551.765 M910.284,486.985 L914.064,487.93 M885.241,526.675 Q889.447,529.841 895.92,530.502 902.346,531.164 906.976,529.037 M872.956,500.215 Q876.358,507.917 883.351,511.082 M844.606,571.751 Q846.213,576.382 849.331,575.862 L854.482,574.019 Q859.774,571.799 860.671,569.719 861.569,567.641 861.664,564.002 L861.616,560.742 M844.606,571.751 Q844.559,569.2 843.898,565.514 L843.189,562.16 843.945,569.389 Q844.228,570.712 844.606,571.751 844.606,571.94 844.606,572.082 844.606,575.437 842.386,579.075 839.929,582.997 835.156,586.73 829.912,590.84 823.344,590.51 816.162,590.132 808.696,584.367 802.365,579.5 799.766,569.483 797.782,561.97 798.254,553.655 798.538,548.457 803.121,533.668 807.988,518.642 808.696,515.807 809.641,512.264 809.736,500.357 809.641,487.93 809.641,485.567 809.641,480.653 807.515,475.409 804.68,468.557 799.672,466.667 796.6,465.533 790.033,464.777 783.937,464.069 777.937,461.47 769.621,457.832 757.099,455.705 744.295,453.485 738.719,454.855 733.285,456.225 726.67,460.572 720.528,464.683 716.039,469.502 M787.859,641.067 Q792.017,638.421 797.593,636.815 803.641,635.066 808.696,635.397 811.437,635.586 817.627,637.807 822.824,639.697 827.596,639.177 831.376,638.752 838.464,636.248 844.748,633.98 849.331,633.98 855.19,633.98 860.341,636.342 864.499,638.279 867.759,641.54 M773.212,644.847 Q775.385,638.988 779.307,633.743 781.055,631.428 786.442,625.475 789.04,622.592 794.143,621.411 800.144,619.946 802.507,618.387 805.72,616.261 812.146,616.025 819.564,615.788 821.454,615.08 823.958,614.182 832.605,615.316 841.677,616.544 845.551,615.552 849.946,614.465 856.655,619.049 864.829,624.624 866.341,625.002 869.318,625.758 874.894,630.105 880.942,634.783 883.824,635.87 887.273,637.193 887.273,644.564 887.273,649.383 887.273,649.761 887.462,652.265 888.549,652.88 891.856,654.77 892.801,657.085 894.077,660.109 889.966,662.33 889.258,662.708 877.02,668.283 868.137,672.347 865.869,674.615 864.735,675.748 863.695,678.111 L861.994,682.08 Q859.632,686.522 854.529,685.955 848.386,685.293 843.85,685.529 839.74,685.766 835.629,686.9 825.754,689.593 822.493,690.16 812.665,691.814 809.641,688.79 799.388,678.678 793.057,674.615 790.6,673.055 787.15,667.433 783.937,662.141 781.244,660.912 778.126,659.495 777.039,657.652 776.047,655.242 774.629,653.352 772.881,650.99 772.881,647.682 L773.212,644.847Z M690.997,449.657 Q685.799,442.712 677.672,442.381 669.64,442.097 667.844,448.24 666.616,452.445 672.853,466.006 679.657,480.701 679.657,485.567 679.657,490.765 679.893,509.003 679.893,525.777 678.712,531.4 677.436,537.542 679.704,539.669 681.499,541.322 685.327,540.425 M791.167,486.985 Q782.255,482.528 779.047,481.031 L779.449,482.118 Q779.732,484.102 778.882,488.402 777.748,494.309 773.826,497.285 769.006,501.018 759.509,500.687 750.484,500.357 746.185,494.497 743.539,490.765 742.357,483.606 731.118,487.938 728.324,491.71 M779.047,481.031 Q778.504,480.774 778.126,480.606 769.479,476.779 766.124,477.062 763.431,477.299 756.816,479.047 749.161,481.078 742.688,483.488 742.52,483.553 742.357,483.606 M767.069,483.205 L769.432,483.677 M780.772,509.665 Q784.174,508.153 786.631,504.987 789.277,501.538 789.277,497.852 M725.962,500.215 Q728.702,505.743 733.333,509.617 737.774,513.303 742.499,514.39 M742.027,522.895 Q746.941,527.195 749.02,528.045 754.406,530.219 762.344,527.147 M821.926,625.002 Q830.431,626.42 834.684,626.42 M822.399,647.209 Q826.037,646.737 827.077,646.784 829.297,646.879 832.794,648.155" test="JeanRenoFace"/>
      </g>
      <g id="TearAnimf16r1">
        <use xlink:href="#TearGraphic" transform="matrix(.914 0 0 .914 764.35 545.95)"/>
      </g>
      <g id="TearAnimf1r1">
        <use xlink:href="#TearGraphic" transform="matrix(.297 0 0 .297 764.15 500.2)"/>
      </g>
    </g>
    <g id="BlackMaskRect">
      <path fill="#000" stroke="none" d="M823.45,613.6 L823.45,508.3 -23.6,508.3 -23.6,613.6 823.45,613.6Z" test="BlackMaskRect"/>
    </g>
  </g>
</svg>