<?xml version="1.0" encoding="utf-8"?>
<svg id="EdithAnim06" image-rendering="inherit" baseProfile="basic" version="1.1" x="0px" y="0px" width="800" height="600" xmlns="http://www.w3.org/2000/svg" xmlns:xlink="http://www.w3.org/1999/xlink">
  <defs>
    <g id="TearGraphic" overflow="visible">
      <path id="Layer4_0_1_STROKES" stroke="#0FF" stroke-width="1" stroke-linejoin="round" stroke-linecap="round" fill="none" d="M-1.15 1.6Q-1.25 5.75 -2.25 8.6 -3.4 11.65 -6.8 16.5 -10.25 21.45 -8.25 27.95 -6.25 34.6 -.7 34.8 4.75 35 7.25 30.15 9.3 26.2 8.9 20.65 8.7 17.9 4.8 12.25 .55 6.05 -.7 0" test="TearGraphic"/>
    </g>
  </defs>
  <g id="Jean-Renof176r1" overflow="visible">
    <g id="Jean-Reno-body">
      <path id="Layer2_0_1_STROKES" stroke="#FEB7AE" stroke-width="1.89" stroke-linejoin="round" stroke-linecap="round" fill="none" d="M867.745,496.967 Q873.887,503.11 912.207,509.252 937.958,513.41 965.127,515.867 972.403,516.529 1014.976,525.223 1051.311,532.594 1057.737,530.987 1067.518,528.53 1074.983,525.553 1084.48,521.726 1093.647,515.867 1102.766,510.008 1114.957,508.213 1125.163,506.653 1133.384,508.307 1139.29,509.488 1144.96,511.378 1147.795,512.323 1149.449,513.032 1147.795,513.505 1145.905,514.497 1142.22,516.529 1141.322,519.316 1140.424,522.104 1143.496,524.939 1145.055,526.309 1146.756,527.16 1144.866,527.916 1143.165,529.286 1139.716,532.027 1140.613,534.956 1141.511,537.933 1147.181,539.209 1150.016,539.87 1152.662,539.917 L1153.702,545.965 Q1155.166,552.297 1157.387,553.62 1159.608,554.943 1164.994,552.391 1167.688,551.163 1169.908,549.604 L1171.704,553.62 Q1174.161,557.542 1177.705,556.927 1181.248,556.36 1184.225,553.289 1185.69,551.73 1186.446,550.312 L1189.895,551.73 Q1193.581,552.911 1194.762,551.73 1195.943,550.549 1196.888,547.241 L1197.597,544.17 1199.865,557.116 Q1201.944,570.913 1200.904,574.882 1200.81,575.213 1199.818,580.08 1199.109,583.529 1198.211,585.797 1195.565,592.554 1188.808,596.145 M1121.005,550.785 Q1129.226,548.8 1140.472,550.738 1156.867,553.525 1165.42,564.487 1168.727,568.74 1175.626,577.481 1181.532,585.183 1184.839,591.373 1193.77,608.099 1190.226,625.204 1186.729,642.025 1177.374,657.475 1173.074,664.563 1164.711,674.816 1162.348,677.698 1153.56,684.597 1143.118,692.771 1130.407,700.993 1094.923,724.003 1062.651,733.926 L1046.917,738.769 Q1049.556,742.07 1051.689,752.731 1053.862,763.599 1052.965,769.6 1052.209,774.703 1054.902,778.105 1055.611,779.05 1059.107,781.648 1061.895,783.727 1066.1,790.342 1071.534,798.847 1070.447,803.856 1069.313,809.29 1064.399,814.534 1059.958,819.212 1056.036,820.393 1053.106,821.291 1047.531,821.386 L1042.57,821.338 1048.996,822.661 Q1056.225,824.977 1060.525,829.843 1066.1,836.175 1068.368,840.616 1071.014,845.719 1069.502,848.743 1068.463,850.87 1065.675,857.296 1062.226,863.249 1055.8,866.226 1049.799,869.014 1036.71,865.942 1030.143,864.194 1027.355,863.485 1022.63,862.304 1020.835,862.446 1018.472,862.635 999.903,867.36 981.097,872.179 974.53,872.841 967.631,873.55 959.362,870.053 955.488,868.258 953.929,867.643 951.377,866.557 950.196,866.698 946.416,866.887 944.479,867.124 941.124,867.596 938.62,869.533 935.785,871.707 931.91,870.762 928.225,869.864 927.28,867.407 926.193,864.619 926.287,862.966 926.429,860.65 928.697,858.902 930.776,857.296 934.084,856.729 935.737,856.492 936.966,856.54 936.068,855.5 935.454,854.13 934.225,851.389 935.548,849.925 937.013,848.318 940.84,847.515 944.053,846.853 946.652,847.09 947.786,847.184 945.235,845.389 942.069,843.168 943.108,842.128 944.337,840.9 947.503,840.994 948.967,841.042 952.558,841.656 953.787,841.845 955.771,843.262 957.189,844.302 958.228,843.782 961.536,842.128 965.977,840.049 972.781,836.884 975.475,835.986 979.727,834.568 983.98,833.623 M879.746,498.054 Q883.904,496.069 898.788,487.186 912.774,479.296 917.782,479.154 930.776,478.776 934.792,479.154 947.597,480.335 959.41,486.241 984.736,498.904 988.374,500.794 1004.581,509.394 1011.621,515.064 1018.425,520.545 1024.095,523.805 1026.93,525.459 1028.395,525.979 M857.066,562.078 Q857.066,558.014 858.058,553.006 860.09,542.941 865.099,538.216 875.635,528.294 889.196,530.42 894.394,531.223 904.552,537.46 913.908,543.178 916.365,546.249 918.302,548.659 923.122,549.556 926.807,550.265 931.721,550.029 934.367,549.934 948.306,548.942 961.725,548.186 965.552,549.084 971.884,550.549 986.531,555.51 1003.305,561.227 1006.423,563.731 1008.786,565.621 1016.818,572.614 1024.331,578.851 1027.213,580.033 1030.521,581.356 1031.041,582.253 1031.371,582.868 1030.757,585.041 1030.521,585.892 1031.041,592.176 1031.56,599.027 1030.757,604.414 1029.765,611.076 1024.662,628.511 1019.842,644.954 1017.291,651.191 1015.212,656.341 1008.644,667.776 1002.643,678.218 1000.517,680.959 999.052,682.896 995.745,686.818 L992.721,690.409 997.257,691.165 Q1002.36,692.157 1005.006,693.48 1007.132,694.567 1011.763,696.74 1015.637,699.008 1017.763,702.457 1020.551,706.993 1021.213,709.261 1022.063,712.238 1021.071,715.687 1020.079,719.089 1017.716,722.728 1015.779,725.704 1013.511,727.972 1010.44,731.044 1008.55,732.556 1005.195,735.249 1002.88,735.532 999.808,735.958 998.391,735.816 996.217,735.58 992.485,734.115 989.461,732.934 987.334,730.477 984.358,727.075 982.326,725.61 979.491,723.531 978.026,720.601 976.183,716.821 974.293,714.742 971.175,711.293 969.143,710.065 967.678,709.214 964.843,708.6 962.575,708.127 962.197,708.222 960.827,708.836 958.465,709.781 954.212,711.955 952.606,712.569 950.007,713.514 948.542,711.435 946.227,708.222 945.849,707.135 945.093,705.009 946.18,701.985 947.503,698.394 948.022,697.685 948.826,696.693 951.85,695.37 956.386,693.338 962.481,695.37 963.142,695.606 962.481,692.157 960.78,682.896 960.733,682.66 958.087,665.933 960.591,652.609 962.906,640.465 969.049,621.896 974.01,606.918 973.585,605.359 973.065,603.421 959.221,603.988 943.817,604.65 941.455,603.705 938.809,602.665 923.972,598.649 910.128,594.869 909.277,594.255 M836.512,572.52 Q849.742,584.852 857.161,590.097 876.911,604.13 901.009,611.029 924.634,617.833 946.888,625.156 957.992,628.795 964.371,631.11 M993.382,828.426 Q992.39,824.268 974.482,791.949 956.244,758.968 954.874,754.716 952.133,746.116 950.007,735.958 947.408,723.578 948.495,720.885 949.582,718.286 952.558,715.593 954.496,713.797 956.764,712.38 M983.696,823.701 Q982.42,824.646 980.436,825.544 976.561,827.386 973.301,827.245 969.946,827.103 963.757,824.646 959.268,822.85 956.527,821.338 955.535,820.771 954.779,818.645 954.118,816.85 952.984,816.85 951.85,816.85 949.393,818.976 946.605,821.386 945.424,821.811 943.628,822.472 940.037,821.527 936.871,820.677 935.029,819.448 933.564,818.503 933.186,816.33 932.95,814.818 933.139,811.652 933.28,809.337 934.603,807.967 934.651,807.872 937.627,805.51 939.092,804.328 940.651,803.856 941.407,803.62 941.88,803.62 M950.149,804.092 Q949.96,803.289 950.196,802.249 950.574,800.17 952.511,799.131 954.448,798.091 957.756,798.422 959.599,798.611 962.67,799.131 964.04,799.273 966.592,800.407 969.001,801.493 969.757,801.493 M983.98,840.947 Q976.845,844.68 969.049,848.46 953.551,856.114 950.432,856.54 947.314,856.965 943.959,856.823 L941.218,856.54 M1046.917,738.769 L1046.869,738.793 Q1028.395,744.463 1027.969,744.463 1027.875,744.463 1032.222,760.669 1036.474,778.719 1035.718,787.318 L1033.923,807.069 Q1032.553,827.481 1034.773,831.025" test="Jean Reno body"/>
    </g>
    <g id="Jean-Renof107r1">
      <g id="JeanRenoFace">
        <path fill="#000" stroke="none" d="M908.135,360.758 Q903.552,364.113 901.331,368.555 898.213,374.839 892.637,381.359 885.361,389.959 880.069,390.29 875.108,390.573 861.263,385.14 846.569,378.95 842.741,377.532 838.3,375.879 832.252,368.696 824.408,359.436 822.849,358.112 820.912,356.459 819.92,353.907 819.116,351.072 818.786,349.986 818.219,348.048 817.179,347.623 815.903,347.056 812.926,348.19 805.272,350.789 801.964,352.254 796.483,354.663 791.664,359.53 783.395,367.61 779.19,371.72 771.677,379.139 768.512,383.202 750.084,407.3 744.414,414.387 740.398,419.396 738.272,424.924 736.523,429.46 734.964,437.54 733.074,447.462 725.041,474.867 L724.711,505.155 Q724.382,539.356 724.616,560.012 728.207,563.272 730.711,568.375 732.271,571.446 735.436,578.864 736.854,581.889 737.704,588.692 738.319,594.126 742.051,599.182 745.312,603.623 749.422,606.884 753.108,609.766 755.754,613.83 756.746,615.342 761.566,626.02 764.401,632.352 768.039,633.202 769.079,633.438 777.253,637.218 782.828,639.817 786.467,638.4 788.357,637.643 790.766,637.738 792.137,637.785 794.924,637.974 800.311,638.116 805.839,633.675 810.659,629.8 820.25,626.398 828.566,623.469 830.409,620.917 831.685,619.169 833.291,619.122 834.378,619.122 836.504,620.019 841.702,622.287 845.104,620.917 848.647,619.499 857.105,616.003 864.713,613.404 870.146,614.302 873.926,614.916 883.613,618.932 892.496,622.571 897.079,622.807 901.001,623.043 907.852,628.619 913.853,633.533 917.869,632.257 920.326,631.501 922.877,632.21 923.917,632.493 927.083,634.053 932.233,636.462 936.296,633.675 938.706,632.021 942.061,631.17 943.998,630.698 947.684,630.036 954.157,628.524 956.614,622.807 959.78,615.436 962.473,610.9 965.072,606.459 969.371,601.072 970.978,599.04 978.821,592.284 984.349,587.511 985.436,583.117 986.523,578.817 990.114,574.281 994.65,568.469 995.831,566.107 997.485,562.8 999.375,558.311 1001.029,555.334 1004.336,554.72 1007.833,554.105 1008.353,555.996 1008.589,556.799 1008.116,561.854 1007.833,565.115 1006.274,567.572 L1004.809,569.415 1006.274,567.572 Q1007.833,565.115 1008.116,561.854 1008.589,556.799 1008.353,555.996 1007.833,554.105 1004.336,554.72 1001.029,555.334 999.375,558.311 997.485,562.8 995.831,566.107 994.65,568.469 990.114,574.281 986.523,578.817 985.436,583.117 984.349,587.511 978.821,592.284 970.978,599.04 969.371,601.072 965.072,606.459 962.473,610.9 959.78,615.436 956.614,622.807 954.157,628.524 947.684,630.036 943.998,630.698 942.061,631.17 938.706,632.021 936.296,633.675 932.233,636.462 927.083,634.053 923.917,632.493 922.877,632.21 920.326,631.501 917.869,632.257 913.853,633.533 907.852,628.619 901.001,623.043 897.079,622.807 892.496,622.571 883.613,618.932 873.926,614.916 870.146,614.302 864.713,613.404 857.105,616.003 848.647,619.499 845.104,620.917 841.702,622.287 836.504,620.019 834.378,619.122 833.291,619.122 831.685,619.169 830.409,620.917 828.566,623.469 820.25,626.398 810.659,629.8 805.839,633.675 800.311,638.116 794.924,637.974 792.137,637.785 790.766,637.738 788.357,637.643 786.467,638.4 782.828,639.817 777.253,637.218 769.079,633.438 768.039,633.202 764.401,632.352 761.566,626.02 756.746,615.342 755.754,613.83 753.108,609.766 749.422,606.884 745.312,603.623 742.051,599.182 738.319,594.126 737.704,588.692 736.854,581.889 735.436,578.864 732.271,571.446 730.711,568.375 728.207,563.272 724.616,560.012 724.615,560.13 724.616,560.248 724.853,577.4 725.514,583.59 725.987,588.315 727.782,596.205 729.719,604.474 732.602,614.066 732.838,614.775 739.169,627.863 745.217,640.431 747.249,648.322 751.502,665.049 754.384,669.537 755.943,671.994 759.109,674.971 761.141,676.908 767.094,682.342 768.7,683.854 774.465,691.225 780.135,698.502 781.836,700.014 785.994,703.746 793.838,707.904 800.594,711.448 804.421,715.89 811.367,723.922 817.132,727.041 823.369,730.348 832.772,730.537 832.96,730.537 847.655,733.277 859.657,735.546 865.894,733.844 870.713,732.522 881.156,732.38 891.172,732.238 896.795,730.442 905.442,727.702 911.065,723.827 917.065,719.622 924.011,711.165 927.555,707 929.398,706.25 932.658,703.132 933.603,698.738 934.454,694.769 942.864,687.067 951.464,679.224 952.692,674.829 955.243,665.71 959.26,659.284 963.181,653.094 969.229,648.228 973.576,644.778 977.404,634.525 981.278,624.225 984.113,621.815 989.027,617.704 991.626,610.097 993.8,601.97 994.886,599.182 1000.226,585.291 1004.242,575.982 L1007.171,569.415 1007.786,571.257 Q1009.439,573.242 1014.731,574.14 1020.259,575.084 1024.181,570.738 1026.78,567.808 1027.961,563.745 1028.245,562.705 1026.307,552.546 1024.134,541.206 1024.654,532.512 1025.268,522.637 1029.899,512.147 1032.214,506.808 1037.931,497.075 1041.853,490.412 1042.656,485.168 1043.601,478.883 1040.294,473.922 1035.805,467.165 1033.726,466.079 1029.899,464.047 1023.094,468.394 1022.197,472.032 1020.118,478.222 1016.149,490.129 1016.149,494.24 1016.149,499.248 1014.495,506.95 1013.692,510.777 1012.841,513.612 1003.864,480.537 1000.084,467.78 996.587,456.015 986.854,431.775 976.034,404.843 972.206,400.685 967.906,396.007 954.676,384.998 941.305,373.847 935.351,369.972 932.8,368.319 925.665,361.609 920.94,357.167 917.396,357.167 912.955,357.167 908.135,360.758 M972.679,486.632 Q977.829,494.193 977.876,494.24 977.829,494.193 972.679,486.632 968.615,480.632 964.646,478.647 960.441,476.568 948.298,478.08 934.642,480.301 930.154,481.01 923.633,482.049 910.262,487.341 897.315,492.444 891.409,496.13 897.315,492.444 910.262,487.341 923.633,482.049 930.154,481.01 934.642,480.301 948.298,478.08 960.441,476.568 964.646,478.647 968.615,480.632 972.679,486.632 M957.37,503.973 L956.283,508.698 Q954.724,513.99 952.361,516.92 949.384,520.652 944.849,522.07 939.84,523.629 932.044,522.59 919.428,520.936 918.341,502.934 913.167,504.856 907.946,507.281 L903.694,509.36 907.946,507.281 Q913.167,504.856 918.341,502.934 918.412,502.912 918.483,502.886 934.69,496.98 944.801,498.02 949.195,498.484 957.37,503.973 958.335,504.623 959.354,505.343 969.135,512.289 971.734,512.667 969.135,512.289 959.354,505.343 958.335,504.623 957.37,503.973 M961.386,526.795 Q966.064,524.81 967.009,521.645 966.064,524.81 961.386,526.795 957.842,528.26 953.306,528.732 957.842,528.26 961.386,526.795 M929.02,548.152 Q935.446,548.814 940.076,546.687 935.446,548.814 929.02,548.152 922.546,547.49 918.341,544.325 922.546,547.49 929.02,548.152 M906.056,517.865 Q909.458,525.566 916.451,528.732 909.458,525.566 906.056,517.865 M894.763,581.652 L894.716,578.392 894.763,581.652 Q894.669,585.291 893.771,587.37 892.873,589.449 887.582,591.669 L882.431,593.512 Q879.313,594.032 877.706,589.401 877.706,589.59 877.706,589.732 877.706,593.087 875.486,596.725 873.029,600.647 868.256,604.38 863.012,608.49 856.444,608.16 849.262,607.781 841.796,602.017 835.465,597.15 832.866,587.133 830.882,579.621 831.354,571.305 831.637,566.107 836.221,551.318 841.088,536.292 841.796,533.457 842.741,529.914 842.836,518.006 842.741,505.58 842.741,503.217 842.741,498.303 840.615,493.059 837.78,486.207 832.772,484.317 829.7,483.183 823.132,482.427 817.037,481.718 811.036,479.12 802.72,475.482 790.199,473.355 777.395,471.135 771.819,472.505 766.385,473.875 759.77,478.222 753.628,482.333 749.139,487.152 753.628,482.333 759.77,478.222 766.385,473.875 771.819,472.505 777.395,471.135 790.199,473.355 802.72,475.482 811.036,479.12 817.037,481.718 823.132,482.427 829.7,483.183 832.772,484.317 837.78,486.207 840.615,493.059 842.741,498.303 842.741,503.217 842.741,505.58 842.836,518.006 842.741,529.914 841.796,533.457 841.088,536.292 836.221,551.318 831.637,566.107 831.354,571.305 830.882,579.621 832.866,587.133 835.465,597.15 841.796,602.017 849.262,607.781 856.444,608.16 863.012,608.49 868.256,604.38 873.029,600.647 875.486,596.725 877.706,593.087 877.706,589.732 877.706,589.59 877.706,589.401 877.328,588.362 877.045,587.039 L876.289,579.81 876.998,583.164 Q877.659,586.85 877.706,589.401 879.313,594.032 882.431,593.512 L887.582,591.669 Q892.873,589.449 893.771,587.37 894.669,585.291 894.763,581.652 M899.441,642.652 Q902.418,643.408 907.993,647.755 914.041,652.433 916.924,653.52 920.373,654.843 920.373,662.214 920.373,667.033 920.373,667.411 920.562,669.915 921.649,670.53 924.956,672.42 925.901,674.735 927.177,677.759 923.066,679.979 922.358,680.358 910.12,685.933 901.237,689.997 898.969,692.265 897.835,693.399 896.795,695.761 L895.094,699.73 Q892.732,704.171 887.629,703.604 881.486,702.943 876.95,703.179 872.839,703.416 868.729,704.55 858.853,707.243 855.593,707.81 845.765,709.464 842.741,706.44 832.488,696.328 826.156,692.265 823.7,690.705 820.25,685.083 817.037,679.791 814.344,678.562 811.226,677.145 810.139,675.302 809.147,672.892 807.729,671.002 805.981,668.64 805.981,665.332 L806.312,662.497 Q808.485,656.638 812.407,651.393 814.155,649.078 819.541,643.124 822.14,640.242 827.243,639.061 833.244,637.596 835.607,636.037 838.82,633.911 845.246,633.675 852.664,633.438 854.554,632.729 857.058,631.832 865.705,632.966 874.777,634.194 878.651,633.202 883.046,632.115 889.755,636.699 897.929,642.274 899.441,642.652 M824.267,504.635 Q815.355,500.178 812.123,498.681 L812.549,499.768 Q812.832,501.752 811.982,506.052 810.848,511.958 806.926,514.935 802.106,518.668 792.609,518.337 783.584,518.006 779.285,512.147 776.638,508.415 775.457,501.233 764.218,505.588 761.424,509.36 764.218,505.588 775.457,501.233 775.62,501.203 775.788,501.138 782.261,498.728 789.916,496.697 796.531,494.948 799.224,494.712 802.579,494.429 811.226,498.256 811.603,498.424 812.123,498.681 815.355,500.178 824.267,504.635 M819.731,522.637 Q822.377,519.188 822.377,515.502 822.377,519.188 819.731,522.637 817.274,525.803 813.872,527.315 817.274,525.803 819.731,522.637 M766.433,527.267 Q770.874,530.953 775.599,532.04 770.874,530.953 766.433,527.267 761.802,523.393 759.062,517.865 761.802,523.393 766.433,527.267 M775.127,540.545 Q780.041,544.844 782.12,545.695 787.506,547.869 795.444,544.797 787.506,547.869 782.12,545.695 780.041,544.844 775.127,540.545 M962.237,326.408 Q957.417,324.99 955.291,323.62 952.361,321.825 951.889,318.895 950.991,313.603 959.165,308.642 963.229,306.138 967.481,304.72 963.371,304.248 957.937,304.484 947.069,304.956 940.549,308.5 937.052,310.437 934.075,309.965 932.091,309.681 929.161,307.933 925.712,305.854 924.153,305.334 920.987,304.248 917.396,305.193 911.396,306.752 899.961,301.365 893.252,298.2 892.354,297.821 888.715,296.404 887.156,297.16 883.991,298.766 864.098,297.869 846.521,297.066 837.497,295.742 831.543,294.845 822.613,287.427 L814.816,280.15 815.478,283.41 Q816.187,287.237 816.281,290.261 816.659,299.806 811.036,297.16 805.414,294.514 793.507,294.136 L782.687,294.325 790.435,301.412 Q797.145,308.264 792.137,307.083 787.128,305.901 776.591,310.154 L767.094,314.643 769.267,314.784 Q771.772,315.068 773.426,315.777 778.718,317.997 773.709,323.62 763.078,335.527 757.691,342.426 746.162,357.215 736.382,374.697 728.444,388.872 725.797,422.184 724.144,443.304 724.805,467.638 724.9,472.174 725.041,474.867 733.074,447.462 734.964,437.54 736.523,429.46 738.272,424.924 740.398,419.396 744.414,414.387 750.084,407.3 768.512,383.202 771.677,379.139 779.19,371.72 783.395,367.61 791.664,359.53 796.483,354.663 801.964,352.254 805.272,350.789 812.926,348.19 815.903,347.056 817.179,347.623 818.219,348.048 818.786,349.986 819.116,351.072 819.92,353.907 820.912,356.459 822.849,358.112 824.408,359.436 832.252,368.696 838.3,375.879 842.741,377.532 846.569,378.95 861.263,385.14 875.108,390.573 880.069,390.29 885.361,389.959 892.637,381.359 898.213,374.839 901.331,368.555 903.552,364.113 908.135,360.758 912.955,357.167 917.396,357.167 920.94,357.167 925.665,361.609 932.8,368.319 935.351,369.972 941.305,373.847 954.676,384.998 967.906,396.007 972.206,400.685 976.034,404.843 986.854,431.775 996.587,456.015 1000.084,467.78 1003.864,480.537 1012.841,513.612 1013.692,510.777 1014.495,506.95 1016.149,499.248 1016.149,494.24 1016.149,490.129 1020.118,478.222 1022.197,472.032 1023.094,468.394 1023.803,465.275 1023.709,464 1023.473,461.401 1022.197,453.51 1020.685,444.533 1019.929,438.012 1017.236,414.813 1016.858,411.032 1014.92,392.227 1015.204,386.51 1015.535,380.084 1001.312,359.672 987.61,339.968 979.294,333.542 974.9,330.141 962.237,326.408Z" test="JeanRenoFace" vector-effect="non-scaling-stroke" stroke-width="1"/>
        <path id="Layer3_0_1_STROKES" stroke="#FFF" stroke-width="1.89" stroke-linejoin="round" stroke-linecap="round" fill="none" d="M725.041,474.867 Q724.9,472.174 724.805,467.638 724.144,443.304 725.797,422.184 728.444,388.872 736.382,374.697 746.162,357.215 757.691,342.426 763.078,335.527 773.709,323.62 778.718,317.997 773.426,315.777 771.772,315.068 769.267,314.784 L767.094,314.643 776.591,310.154 Q787.128,305.901 792.137,307.083 797.145,308.264 790.435,301.412 L782.687,294.325 793.507,294.136 Q805.414,294.514 811.036,297.16 816.659,299.806 816.281,290.261 816.187,287.237 815.478,283.41 L814.816,280.15 822.613,287.427 Q831.543,294.845 837.497,295.742 846.521,297.066 864.098,297.869 883.991,298.766 887.156,297.16 888.715,296.404 892.354,297.821 893.252,298.2 899.961,301.365 911.396,306.752 917.396,305.193 920.987,304.248 924.153,305.334 925.712,305.854 929.161,307.933 932.091,309.681 934.075,309.965 937.052,310.437 940.549,308.5 947.069,304.956 957.937,304.484 963.371,304.248 967.481,304.72 963.229,306.138 959.165,308.642 950.991,313.603 951.889,318.895 952.361,321.825 955.291,323.62 957.417,324.99 962.237,326.408 974.9,330.141 979.294,333.542 987.61,339.968 1001.312,359.672 1015.535,380.084 1015.204,386.51 1014.92,392.227 1016.858,411.032 1017.236,414.813 1019.929,438.012 1020.685,444.533 1022.197,453.51 1023.473,461.401 1023.709,464 1023.803,465.275 1023.094,468.394 1029.899,464.047 1033.726,466.079 1035.805,467.165 1040.294,473.922 1043.601,478.883 1042.656,485.168 1041.853,490.412 1037.931,497.075 1032.214,506.808 1029.899,512.147 1025.268,522.637 1024.654,532.512 1024.134,541.206 1026.307,552.546 1028.245,562.705 1027.961,563.745 1026.78,567.808 1024.181,570.738 1020.259,575.084 1014.731,574.14 1009.439,573.242 1007.786,571.257 L1007.171,569.415 1004.242,575.982 Q1000.226,585.291 994.886,599.182 993.8,601.97 991.626,610.097 989.027,617.704 984.113,621.815 981.278,624.225 977.404,634.525 973.576,644.778 969.229,648.228 963.181,653.094 959.26,659.284 955.243,665.71 952.692,674.829 951.464,679.224 942.864,687.067 934.454,694.769 933.603,698.738 932.658,703.132 929.398,706.25 927.555,707 924.011,711.165 917.065,719.622 911.065,723.827 905.442,727.702 896.795,730.442 891.172,732.238 881.156,732.38 870.713,732.522 865.894,733.844 859.657,735.546 847.655,733.277 832.96,730.537 832.772,730.537 823.369,730.348 817.132,727.041 811.367,723.922 804.421,715.89 800.594,711.448 793.838,707.904 785.994,703.746 781.836,700.014 780.135,698.502 774.465,691.225 768.7,683.854 767.094,682.342 761.141,676.908 759.109,674.971 755.943,671.994 754.384,669.537 751.502,665.049 747.249,648.322 745.217,640.431 739.169,627.863 732.838,614.775 732.602,614.066 729.719,604.474 727.782,596.205 725.987,588.315 725.514,583.59 724.853,577.4 724.616,560.248 724.615,560.13 724.616,560.012 724.382,539.356 724.711,505.155 L725.041,474.867 Q733.074,447.462 734.964,437.54 736.523,429.46 738.272,424.924 740.398,419.396 744.414,414.387 750.084,407.3 768.512,383.202 771.677,379.139 779.19,371.72 783.395,367.61 791.664,359.53 796.483,354.663 801.964,352.254 805.272,350.789 812.926,348.19 815.903,347.056 817.179,347.623 818.219,348.048 818.786,349.986 819.116,351.072 819.92,353.907 820.912,356.459 822.849,358.112 824.408,359.436 832.252,368.696 838.3,375.879 842.741,377.532 846.569,378.95 861.263,385.14 875.108,390.573 880.069,390.29 885.361,389.959 892.637,381.359 898.213,374.839 901.331,368.555 903.552,364.113 908.135,360.758 912.955,357.167 917.396,357.167 920.94,357.167 925.665,361.609 932.8,368.319 935.351,369.972 941.305,373.847 954.676,384.998 967.906,396.007 972.206,400.685 976.034,404.843 986.854,431.775 996.587,456.015 1000.084,467.78 1003.864,480.537 1012.841,513.612 1013.692,510.777 1014.495,506.95 1016.149,499.248 1016.149,494.24 1016.149,490.129 1020.118,478.222 1022.197,472.032 1023.094,468.394 M891.409,496.13 Q897.315,492.444 910.262,487.341 923.633,482.049 930.154,481.01 934.642,480.301 948.298,478.08 960.441,476.568 964.646,478.647 968.615,480.632 972.679,486.632 977.829,494.193 977.876,494.24 M918.341,502.934 Q919.428,520.936 932.044,522.59 939.84,523.629 944.849,522.07 949.384,520.652 952.361,516.92 954.724,513.99 956.283,508.698 L957.37,503.973 Q949.195,498.484 944.801,498.02 934.69,496.98 918.483,502.886 918.412,502.912 918.341,502.934 913.167,504.856 907.946,507.281 L903.694,509.36 M957.37,503.973 Q958.335,504.623 959.354,505.343 969.135,512.289 971.734,512.667 M953.306,528.732 Q957.842,528.26 961.386,526.795 966.064,524.81 967.009,521.645 M724.616,560.012 Q728.207,563.272 730.711,568.375 732.271,571.446 735.436,578.864 736.854,581.889 737.704,588.692 738.319,594.126 742.051,599.182 745.312,603.623 749.422,606.884 753.108,609.766 755.754,613.83 756.746,615.342 761.566,626.02 764.401,632.352 768.039,633.202 769.079,633.438 777.253,637.218 782.828,639.817 786.467,638.4 788.357,637.643 790.766,637.738 792.137,637.785 794.924,637.974 800.311,638.116 805.839,633.675 810.659,629.8 820.25,626.398 828.566,623.469 830.409,620.917 831.685,619.169 833.291,619.122 834.378,619.122 836.504,620.019 841.702,622.287 845.104,620.917 848.647,619.499 857.105,616.003 864.713,613.404 870.146,614.302 873.926,614.916 883.613,618.932 892.496,622.571 897.079,622.807 901.001,623.043 907.852,628.619 913.853,633.533 917.869,632.257 920.326,631.501 922.877,632.21 923.917,632.493 927.083,634.053 932.233,636.462 936.296,633.675 938.706,632.021 942.061,631.17 943.998,630.698 947.684,630.036 954.157,628.524 956.614,622.807 959.78,615.436 962.473,610.9 965.072,606.459 969.371,601.072 970.978,599.04 978.821,592.284 984.349,587.511 985.436,583.117 986.523,578.817 990.114,574.281 994.65,568.469 995.831,566.107 997.485,562.8 999.375,558.311 1001.029,555.334 1004.336,554.72 1007.833,554.105 1008.353,555.996 1008.589,556.799 1008.116,561.854 1007.833,565.115 1006.274,567.572 L1004.809,569.415 M943.384,504.635 L947.164,505.58 M918.341,544.325 Q922.546,547.49 929.02,548.152 935.446,548.814 940.076,546.687 M906.056,517.865 Q909.458,525.566 916.451,528.732 M877.706,589.401 Q879.313,594.032 882.431,593.512 L887.582,591.669 Q892.873,589.449 893.771,587.37 894.669,585.291 894.763,581.652 L894.716,578.392 M877.706,589.401 Q877.659,586.85 876.998,583.164 L876.289,579.81 877.045,587.039 Q877.328,588.362 877.706,589.401 877.706,589.59 877.706,589.732 877.706,593.087 875.486,596.725 873.029,600.647 868.256,604.38 863.012,608.49 856.444,608.16 849.262,607.781 841.796,602.017 835.465,597.15 832.866,587.133 830.882,579.621 831.354,571.305 831.637,566.107 836.221,551.318 841.088,536.292 841.796,533.457 842.741,529.914 842.836,518.006 842.741,505.58 842.741,503.217 842.741,498.303 840.615,493.059 837.78,486.207 832.772,484.317 829.7,483.183 823.132,482.427 817.037,481.718 811.036,479.12 802.72,475.482 790.199,473.355 777.395,471.135 771.819,472.505 766.385,473.875 759.77,478.222 753.628,482.333 749.139,487.152 M820.959,658.717 Q825.117,656.071 830.693,654.465 836.741,652.716 841.796,653.047 844.537,653.236 850.727,655.457 855.924,657.347 860.696,656.827 864.476,656.402 871.564,653.898 877.848,651.63 882.431,651.63 888.29,651.63 893.44,653.992 897.599,655.929 900.859,659.19 M806.312,662.497 Q808.485,656.638 812.407,651.393 814.155,649.078 819.541,643.124 822.14,640.242 827.243,639.061 833.244,637.596 835.607,636.037 838.82,633.911 845.246,633.675 852.664,633.438 854.554,632.729 857.058,631.832 865.705,632.966 874.777,634.194 878.651,633.202 883.046,632.115 889.755,636.699 897.929,642.274 899.441,642.652 902.418,643.408 907.993,647.755 914.041,652.433 916.924,653.52 920.373,654.843 920.373,662.214 920.373,667.033 920.373,667.411 920.562,669.915 921.649,670.53 924.956,672.42 925.901,674.735 927.177,677.759 923.066,679.979 922.358,680.358 910.12,685.933 901.237,689.997 898.969,692.265 897.835,693.399 896.795,695.761 L895.094,699.73 Q892.732,704.171 887.629,703.604 881.486,702.943 876.95,703.179 872.839,703.416 868.729,704.55 858.853,707.243 855.593,707.81 845.765,709.464 842.741,706.44 832.488,696.328 826.156,692.265 823.7,690.705 820.25,685.083 817.037,679.791 814.344,678.562 811.226,677.145 810.139,675.302 809.147,672.892 807.729,671.002 805.981,668.64 805.981,665.332 L806.312,662.497Z M724.097,467.307 Q718.899,460.362 710.772,460.031 702.739,459.747 700.944,465.89 699.716,470.095 705.953,483.656 712.757,498.351 712.757,503.217 712.757,508.415 712.993,526.653 712.993,543.427 711.811,549.05 710.536,555.192 712.804,557.319 714.599,558.972 718.426,558.075 M824.267,504.635 Q815.355,500.178 812.147,498.681 L812.549,499.768 Q812.832,501.752 811.982,506.052 810.848,511.958 806.926,514.935 802.106,518.668 792.609,518.337 783.584,518.006 779.285,512.147 776.638,508.415 775.457,501.256 764.218,505.588 761.424,509.36 M812.147,498.681 Q811.603,498.424 811.226,498.256 802.579,494.429 799.224,494.712 796.531,494.948 789.916,496.697 782.261,498.728 775.788,501.138 775.62,501.203 775.457,501.256 M800.169,500.855 L802.531,501.327 M813.872,527.315 Q817.274,525.803 819.731,522.637 822.377,519.188 822.377,515.502 M759.062,517.865 Q761.802,523.393 766.433,527.267 770.874,530.953 775.599,532.04 M775.127,540.545 Q780.041,544.844 782.12,545.695 787.506,547.869 795.444,544.797 M855.026,642.652 Q863.531,644.07 867.784,644.07 M855.499,664.86 Q859.137,664.387 860.176,664.434 862.397,664.529 865.894,665.805" test="JeanRenoFace"/>
      </g>
      <g id="TearAnimf17r1">
        <use xlink:href="#TearGraphic" transform="matrix(.914 0 0 .914 797.45 571.6)"/>
      </g>
      <g id="TearAnimf2r1">
        <use xlink:href="#TearGraphic" transform="matrix(.502 0 0 .502 797.5 517.85)"/>
      </g>
    </g>
    <g id="BlackMaskRect">
      <path fill="#000" stroke="none" d="M823.45,613.6 L823.45,508.3 -23.6,508.3 -23.6,613.6 823.45,613.6Z" test="BlackMaskRect"/>
    </g>
  </g>
</svg>