<?xml version="1.0" encoding="utf-8"?>
<svg id="EdithAnim06" image-rendering="inherit" baseProfile="basic" version="1.1" x="0px" y="0px" width="800" height="600" xmlns="http://www.w3.org/2000/svg" xmlns:xlink="http://www.w3.org/1999/xlink">
  <defs>
    <g id="TearGraphic" overflow="visible">
      <path id="Layer4_0_1_STROKES" stroke="#0FF" stroke-width="1" stroke-linejoin="round" stroke-linecap="round" fill="none" d="M-1.15 1.6Q-1.25 5.75 -2.25 8.6 -3.4 11.65 -6.8 16.5 -10.25 21.45 -8.25 27.95 -6.25 34.6 -.7 34.8 4.75 35 7.25 30.15 9.3 26.2 8.9 20.65 8.7 17.9 4.8 12.25 .55 6.05 -.7 0" test="TearGraphic"/>
    </g>
  </defs>
  <g id="Jean-Renof179r1" overflow="visible">
    <g id="Jean-Reno-body">
      <path id="Layer2_0_1_STROKES" stroke="#FEB7AE" stroke-width="1.89" stroke-linejoin="round" stroke-linecap="round" fill="none" d="M950.445,538.367 Q956.587,544.51 994.907,550.652 1020.658,554.81 1047.827,557.267 1055.103,557.929 1097.676,566.623 1134.011,573.994 1140.437,572.387 1150.218,569.93 1157.683,566.953 1167.18,563.126 1176.347,557.267 1185.466,551.408 1197.657,549.613 1207.863,548.053 1216.084,549.707 1221.99,550.888 1227.66,552.778 1230.495,553.723 1232.149,554.432 1230.495,554.905 1228.605,555.897 1224.92,557.929 1224.022,560.716 1223.124,563.504 1226.196,566.339 1227.755,567.709 1229.456,568.56 1227.566,569.316 1225.865,570.686 1222.416,573.427 1223.313,576.356 1224.211,579.333 1229.881,580.609 1232.716,581.27 1235.362,581.317 L1236.402,587.365 Q1237.866,593.697 1240.087,595.02 1242.308,596.343 1247.694,593.791 1250.388,592.563 1252.608,591.004 L1254.404,595.02 Q1256.861,598.942 1260.404,598.327 1263.948,597.76 1266.925,594.689 1268.39,593.13 1269.146,591.712 L1272.595,593.13 Q1276.28,594.311 1277.462,593.13 1278.643,591.949 1279.588,588.641 L1280.297,585.57 1282.565,598.516 Q1284.644,612.313 1283.604,616.282 1283.51,616.613 1282.518,621.48 1281.809,624.929 1280.911,627.197 1278.265,633.954 1271.508,637.545 M1203.704,592.185 Q1211.926,590.2 1223.172,592.138 1239.567,594.925 1248.12,605.887 1251.427,610.14 1258.326,618.881 1264.232,626.583 1267.539,632.773 1276.47,649.499 1272.926,666.604 1269.429,683.425 1260.074,698.875 1255.774,705.963 1247.411,716.216 1245.048,719.098 1236.26,725.997 1225.817,734.171 1213.107,742.393 1177.623,765.403 1145.351,775.326 L1129.616,780.169 Q1132.256,783.47 1134.389,794.131 1136.562,804 1135.664,811 1134.909,816.103 1137.602,819.505 1138.311,820.45 1141.807,823.048 1144.595,825.127 1148.8,831.742 1154.234,840.247 1153.147,845.256 1152.013,850.69 1147.099,855.934 1142.658,860.612 1138.736,861.793 1135.806,862.691 1130.231,862.786 L1125.269,862.738 1131.696,864.061 Q1138.925,866.377 1143.225,871.243 1148.8,877.575 1151.068,882.016 1153.714,887.119 1152.202,890.143 1151.163,892.27 1148.375,898.696 1144.926,904.649 1138.5,907.626 1132.499,910.414 1119.411,907.342 1112.843,905.594 1110.055,904.885 1105.33,903.704 1103.535,903.846 1101.172,904.035 1082.603,908.76 1063.797,913.579 1057.23,914.241 1050.331,914.95 1042.062,911.453 1038.188,909.658 1036.629,909.043 1034.077,907.957 1032.896,908.098 1029.116,908.287 1027.179,908.524 1023.824,908.996 1021.32,910.933 1018.484,913.107 1014.61,912.162 1010.925,911.264 1009.979,908.807 1008.893,906.019 1008.987,904.366 1009.129,902.05 1011.397,900.302 1013.476,898.696 1016.784,898.129 1018.437,897.892 1019.666,897.94 1018.768,896.9 1018.154,895.53 1016.925,892.789 1018.248,891.325 1019.713,889.718 1023.54,888.915 1026.753,888.253 1029.352,888.49 1030.486,888.584 1027.934,886.789 1024.769,884.568 1025.808,883.528 1027.037,882.3 1030.202,882.394 1031.667,882.442 1035.258,883.056 1036.487,883.245 1038.471,884.662 1039.889,885.702 1040.928,885.182 1044.236,883.528 1048.677,881.449 1055.481,878.284 1058.174,877.386 1062.427,875.968 1066.68,875.023 M962.446,539.454 Q966.604,537.469 981.488,528.586 995.474,520.696 1000.482,520.554 1013.476,520.176 1017.492,520.554 1030.297,521.735 1042.11,527.641 1067.436,540.304 1071.074,542.194 1087.28,550.794 1094.321,556.464 1101.125,561.945 1106.795,565.205 1109.63,566.859 1111.095,567.379 M939.766,603.478 Q939.766,599.414 940.758,594.406 942.79,584.341 947.799,579.616 958.335,569.694 971.896,571.82 977.094,572.623 987.252,578.86 996.608,584.578 999.065,587.649 1001.002,590.059 1005.822,590.956 1009.507,591.665 1014.421,591.429 1017.067,591.334 1031.006,590.342 1044.425,589.586 1048.252,590.484 1054.584,591.949 1069.231,596.91 1086.005,602.627 1089.123,605.131 1091.486,607.021 1099.518,614.014 1107.031,620.251 1109.913,621.433 1113.221,622.756 1113.741,623.653 1114.071,624.268 1113.457,626.441 1113.221,627.292 1113.741,633.576 1114.26,640.427 1113.457,645.814 1112.465,652.476 1107.362,669.911 1102.542,686.354 1099.991,692.591 1097.912,697.741 1091.344,709.176 1085.343,719.618 1083.217,722.359 1081.752,724.296 1078.445,728.218 L1075.421,731.809 1079.957,732.565 Q1085.06,733.557 1087.706,734.88 1089.832,735.967 1094.462,738.14 1098.337,740.408 1100.463,743.857 1103.251,748.393 1103.913,750.661 1104.763,753.638 1103.771,757.087 1102.779,760.489 1100.416,764.128 1098.479,767.104 1096.211,769.372 1093.14,772.444 1091.25,773.956 1087.895,776.649 1085.58,776.932 1082.508,777.358 1081.091,777.216 1078.917,776.98 1075.184,775.515 1072.161,774.334 1070.034,771.877 1067.058,768.475 1065.026,767.01 1062.191,764.931 1060.726,762.001 1058.883,758.221 1056.993,756.142 1053.875,752.693 1051.843,751.465 1050.378,750.614 1047.543,750 1045.275,749.527 1044.897,749.622 1043.527,750.236 1041.164,751.181 1036.912,753.355 1035.305,753.969 1032.707,754.914 1031.242,752.835 1028.927,749.622 1028.549,748.535 1027.793,746.409 1028.88,743.385 1030.202,739.794 1030.722,739.085 1031.526,738.093 1034.549,736.77 1039.085,734.738 1045.181,736.77 1045.842,737.006 1045.181,733.557 1043.48,724.296 1043.432,724.06 1040.786,707.333 1043.291,694.009 1045.606,681.865 1051.749,663.296 1056.71,648.318 1056.285,646.759 1055.765,644.821 1041.921,645.388 1026.517,646.05 1024.154,645.105 1021.508,644.065 1006.672,640.049 992.828,636.269 991.977,635.655 M919.212,613.92 Q932.442,626.252 939.861,631.497 959.611,645.53 983.709,652.429 1007.334,659.233 1029.588,666.556 1040.692,670.195 1047.071,672.51 M1076.082,869.826 Q1075.09,865.668 1057.182,833.349 1038.944,800.368 1037.574,796.116 1034.833,787.516 1032.707,777.358 1030.108,764.978 1031.195,762.285 1032.282,759.686 1035.258,756.993 1037.196,755.197 1039.463,753.78 M1066.396,865.101 Q1065.12,866.046 1063.136,866.944 1059.261,868.786 1056.001,868.645 1052.646,868.503 1046.457,866.046 1041.968,864.25 1039.227,862.738 1038.235,862.171 1037.479,860.045 1036.817,858.25 1035.683,858.25 1034.549,858.25 1032.093,860.376 1029.305,862.786 1028.123,863.211 1026.328,863.872 1022.737,862.927 1019.571,862.077 1017.728,860.848 1016.264,859.903 1015.886,857.73 1015.65,856.218 1015.839,853.052 1015.98,850.737 1017.303,849.367 1017.351,849.272 1020.327,846.91 1021.792,845.728 1023.351,845.256 1024.107,845.02 1024.58,845.02 M1032.849,845.492 Q1032.66,844.689 1032.896,843.649 1033.274,841.57 1035.211,840.531 1037.148,839.491 1040.456,839.822 1042.298,840.011 1045.37,840.531 1046.74,840.673 1049.292,841.807 1051.701,842.893 1052.457,842.893 M1066.68,882.347 Q1059.545,886.08 1051.749,889.86 1036.25,897.514 1033.132,897.94 1030.014,898.365 1026.659,898.223 L1023.918,897.94 M1129.616,780.169 L1129.569,780.193 Q1111.095,785.863 1110.669,785.863 1110.575,785.863 1114.922,802.069 1119.174,820.119 1118.418,828.718 L1116.623,848.469 Q1115.253,868.881 1117.473,872.425" test="Jean Reno body"/>
    </g>
    <g id="Jean-Renof110r1">
      <g id="JeanRenoFace">
        <path fill="#000" stroke="none" d="M1015.085,417.758 Q1010.502,421.113 1008.281,425.555 1005.163,431.839 999.587,438.359 992.311,446.959 987.019,447.29 982.058,447.573 968.213,442.14 953.519,435.95 949.691,434.532 945.25,432.879 939.202,425.696 931.358,416.436 929.799,415.112 927.862,413.459 926.87,410.907 926.066,408.072 925.736,406.986 925.169,405.048 924.129,404.623 922.853,404.056 919.877,405.19 912.222,407.789 908.915,409.254 903.434,411.663 898.614,416.53 890.345,424.61 886.14,428.72 878.627,436.139 875.462,440.202 857.034,464.3 851.364,471.387 847.348,476.396 845.222,481.924 843.473,486.46 841.914,494.54 840.024,504.462 831.992,531.867 L831.661,562.155 Q831.332,596.356 831.566,617.012 835.157,620.272 837.661,625.375 839.221,628.446 842.387,635.864 843.804,638.889 844.655,645.692 845.269,651.126 849.002,656.182 852.262,660.623 856.373,663.884 860.058,666.766 862.704,670.83 863.696,672.342 868.516,683.02 871.351,689.352 874.989,690.202 876.029,690.438 884.203,694.218 889.778,696.817 893.417,695.4 895.307,694.643 897.716,694.738 899.087,694.785 901.874,694.974 907.261,695.116 912.789,690.675 917.609,686.8 927.2,683.398 935.516,680.469 937.359,677.917 938.635,676.169 940.241,676.122 941.328,676.122 943.454,677.019 948.652,679.287 952.054,677.917 955.598,676.499 964.055,673.003 971.663,670.404 977.096,671.302 980.876,671.916 990.563,675.932 999.446,679.571 1004.029,679.807 1007.951,680.043 1014.802,685.619 1020.803,690.533 1024.819,689.257 1027.276,688.501 1029.827,689.21 1030.867,689.493 1034.033,691.053 1039.183,693.462 1043.246,690.675 1045.656,689.021 1049.011,688.17 1050.948,687.698 1054.634,687.036 1061.107,685.524 1063.564,679.807 1066.73,672.436 1069.423,667.9 1072.022,663.459 1076.321,658.072 1077.928,656.04 1085.771,649.284 1091.3,644.511 1092.386,640.117 1093.473,635.817 1097.064,631.281 1101.6,625.469 1102.781,623.107 1104.435,619.8 1106.325,615.311 1107.979,612.334 1111.286,611.72 1114.783,611.105 1115.303,612.996 1115.539,613.799 1115.066,618.854 1114.783,622.115 1113.224,624.572 L1111.759,626.415 1113.224,624.572 Q1114.783,622.115 1115.066,618.854 1115.539,613.799 1115.303,612.996 1114.783,611.105 1111.286,611.72 1107.979,612.334 1106.325,615.311 1104.435,619.8 1102.781,623.107 1101.6,625.469 1097.064,631.281 1093.473,635.817 1092.386,640.117 1091.3,644.511 1085.771,649.284 1077.928,656.04 1076.321,658.072 1072.022,663.459 1069.423,667.9 1066.73,672.436 1063.564,679.807 1061.107,685.524 1054.634,687.036 1050.948,687.698 1049.011,688.17 1045.656,689.021 1043.246,690.675 1039.183,693.462 1034.033,691.053 1030.867,689.493 1029.827,689.21 1027.276,688.501 1024.819,689.257 1020.803,690.533 1014.802,685.619 1007.951,680.043 1004.029,679.807 999.446,679.571 990.563,675.932 980.876,671.916 977.096,671.302 971.663,670.404 964.055,673.003 955.598,676.499 952.054,677.917 948.652,679.287 943.454,677.019 941.328,676.122 940.241,676.122 938.635,676.169 937.359,677.917 935.516,680.469 927.2,683.398 917.609,686.8 912.789,690.675 907.261,695.116 901.874,694.974 899.087,694.785 897.716,694.738 895.307,694.643 893.417,695.4 889.778,696.817 884.203,694.218 876.029,690.438 874.989,690.202 871.351,689.352 868.516,683.02 863.696,672.342 862.704,670.83 860.058,666.766 856.373,663.884 852.262,660.623 849.002,656.182 845.269,651.126 844.655,645.692 843.804,638.889 842.387,635.864 839.221,628.446 837.661,625.375 835.157,620.272 831.566,617.012 831.565,617.13 831.566,617.248 831.803,634.4 832.464,640.59 832.937,645.315 834.732,653.205 836.669,661.474 839.552,671.066 839.788,671.775 846.119,684.863 852.167,697.431 854.199,705.322 858.452,722.049 861.334,726.537 862.893,728.994 866.059,731.971 868.091,733.908 874.044,739.342 875.651,740.854 881.415,748.225 887.085,755.502 888.786,757.014 892.944,760.746 900.788,764.904 907.544,768.448 911.372,772.89 918.317,780.922 924.082,784.041 930.319,787.348 939.722,787.537 939.911,787.537 954.605,790.277 966.607,792.546 972.844,790.844 977.663,789.522 988.106,789.38 998.123,789.238 1003.745,787.442 1012.392,784.702 1018.015,780.827 1024.016,776.622 1030.961,768.165 1034.505,764 1036.348,763.25 1039.608,760.132 1040.553,755.738 1041.403,751.769 1049.814,744.067 1058.414,736.224 1059.642,731.829 1062.194,722.71 1066.21,716.284 1070.132,710.094 1076.18,705.228 1080.527,701.778 1084.354,691.525 1088.228,681.225 1091.063,678.815 1095.977,674.704 1098.576,667.097 1100.75,658.97 1101.836,656.182 1107.176,642.291 1111.192,632.982 L1114.121,626.415 1114.736,628.257 Q1116.389,630.242 1121.681,631.14 1127.21,632.084 1131.131,627.738 1133.73,624.808 1134.911,620.745 1135.195,619.705 1133.258,609.546 1131.084,598.206 1131.604,589.512 1132.218,579.637 1136.849,569.147 1139.164,563.808 1144.881,554.075 1148.803,547.412 1149.606,542.168 1150.551,535.883 1147.244,530.922 1142.755,524.165 1140.676,523.079 1136.849,521.047 1130.045,525.394 1129.147,529.032 1127.068,535.222 1123.099,547.129 1123.099,551.24 1123.099,556.248 1121.445,563.95 1120.642,567.777 1119.791,570.612 1110.814,537.537 1107.034,524.78 1103.537,513.015 1093.804,488.775 1082.984,461.843 1079.156,457.685 1074.857,453.007 1061.627,441.998 1048.255,430.847 1042.301,426.972 1039.75,425.319 1032.615,418.609 1027.89,414.167 1024.346,414.167 1019.905,414.167 1015.085,417.758 M1079.629,543.632 Q1084.779,551.193 1084.826,551.24 1084.779,551.193 1079.629,543.632 1075.565,537.632 1071.596,535.647 1067.391,533.568 1055.248,535.08 1041.593,537.301 1037.104,538.01 1030.583,539.049 1017.212,544.341 1004.265,549.444 998.359,553.13 1004.265,549.444 1017.212,544.341 1030.583,539.049 1037.104,538.01 1041.593,537.301 1055.248,535.08 1067.391,533.568 1071.596,535.647 1075.565,537.632 1079.629,543.632 M1064.32,560.973 L1063.233,565.698 Q1061.674,570.99 1059.311,573.92 1056.335,577.652 1051.798,579.07 1046.79,580.629 1038.994,579.59 1026.378,577.936 1025.291,559.934 1020.117,561.856 1014.896,564.281 L1010.644,566.36 1014.896,564.281 Q1020.117,561.856 1025.291,559.934 1025.362,559.912 1025.433,559.887 1041.64,553.98 1051.751,555.02 1056.146,555.484 1064.32,560.973 1065.285,561.623 1066.304,562.344 1076.085,569.289 1078.684,569.667 1076.085,569.289 1066.304,562.344 1065.285,561.623 1064.32,560.973 M1068.336,583.795 Q1073.014,581.81 1073.959,578.645 1073.014,581.81 1068.336,583.795 1064.792,585.26 1060.256,585.732 1064.792,585.26 1068.336,583.795 M1035.97,605.152 Q1042.396,605.814 1047.026,603.687 1042.396,605.814 1035.97,605.152 1029.497,604.49 1025.291,601.325 1029.497,604.49 1035.97,605.152 M1013.006,574.865 Q1016.408,582.566 1023.401,585.732 1016.408,582.566 1013.006,574.865 M1001.714,638.652 L1001.666,635.392 1001.714,638.652 Q1001.619,642.291 1000.721,644.37 999.824,646.449 994.532,648.669 L989.381,650.512 Q986.263,651.032 984.656,646.401 984.656,646.59 984.656,646.732 984.656,650.087 982.436,653.725 979.979,657.647 975.206,661.38 969.962,665.49 963.394,665.16 956.212,664.781 948.746,659.017 942.415,654.15 939.816,644.133 937.832,636.621 938.304,628.305 938.588,623.107 943.171,608.318 948.038,593.292 948.746,590.457 949.691,586.914 949.786,575.007 949.691,562.58 949.691,560.217 949.691,555.303 947.565,550.059 944.73,543.207 939.722,541.317 936.65,540.183 930.083,539.427 923.987,538.719 917.987,536.12 909.671,532.482 897.149,530.355 884.345,528.135 878.769,529.505 873.335,530.875 866.72,535.222 860.578,539.333 856.089,544.152 860.578,539.333 866.72,535.222 873.335,530.875 878.769,529.505 884.345,528.135 897.149,530.355 909.671,532.482 917.987,536.12 923.987,538.719 930.083,539.427 936.65,540.183 939.722,541.317 944.73,543.207 947.565,550.059 949.691,555.303 949.691,560.217 949.691,562.58 949.786,575.007 949.691,586.914 948.746,590.457 948.038,593.292 943.171,608.318 938.588,623.107 938.304,628.305 937.832,636.621 939.816,644.133 942.415,654.15 948.746,659.017 956.212,664.781 963.394,665.16 969.962,665.49 975.206,661.38 979.979,657.647 982.436,653.725 984.656,650.087 984.656,646.732 984.656,646.59 984.656,646.401 984.278,645.362 983.995,644.039 L983.239,636.81 983.948,640.164 Q984.609,643.85 984.656,646.401 986.263,651.032 989.381,650.512 L994.532,648.669 Q999.824,646.449 1000.721,644.37 1001.619,642.291 1001.714,638.652 M1006.391,699.652 Q1009.368,700.408 1014.944,704.755 1020.992,709.433 1023.874,710.52 1027.323,711.843 1027.323,719.214 1027.323,724.033 1027.323,724.411 1027.512,726.915 1028.599,727.53 1031.906,729.42 1032.851,731.735 1034.127,734.759 1030.016,736.979 1029.307,737.358 1017.07,742.933 1008.187,746.997 1005.919,749.265 1004.785,750.399 1003.745,752.761 L1002.044,756.73 Q999.682,761.171 994.579,760.604 988.436,759.943 983.9,760.179 979.79,760.416 975.679,761.55 965.804,764.243 962.543,764.81 952.715,766.464 949.691,763.44 939.438,753.328 933.107,749.265 930.65,747.705 927.2,742.083 923.987,736.791 921.294,735.562 918.176,734.145 917.089,732.302 916.097,729.892 914.679,728.002 912.931,725.64 912.931,722.332 L913.262,719.497 Q915.435,713.638 919.357,708.393 921.105,706.078 926.492,700.124 929.09,697.242 934.193,696.061 940.194,694.596 942.557,693.037 945.77,690.911 952.196,690.675 959.614,690.438 961.504,689.729 964.008,688.832 972.655,689.966 981.727,691.194 985.601,690.202 989.996,689.115 996.705,693.699 1004.879,699.274 1006.391,699.652 M931.217,561.635 Q922.305,557.178 919.073,555.681 L919.499,556.768 Q919.782,558.752 918.932,563.052 917.798,568.959 913.876,571.935 909.056,575.668 899.559,575.337 890.534,575.007 886.235,569.147 883.589,565.415 882.407,558.233 871.168,562.588 868.374,566.36 871.168,562.588 882.407,558.233 882.57,558.203 882.738,558.138 889.211,555.728 896.866,553.697 903.481,551.949 906.174,551.712 909.529,551.429 918.176,555.256 918.554,555.424 919.073,555.681 922.305,557.178 931.217,561.635 M926.681,579.637 Q929.327,576.188 929.327,572.502 929.327,576.188 926.681,579.637 924.224,582.803 920.822,584.315 924.224,582.803 926.681,579.637 M873.383,584.267 Q877.824,587.953 882.549,589.04 877.824,587.953 873.383,584.267 868.752,580.393 866.012,574.865 868.752,580.393 873.383,584.267 M882.077,597.545 Q886.991,601.844 889.07,602.695 894.456,604.869 902.394,601.797 894.456,604.869 889.07,602.695 886.991,601.844 882.077,597.545 M1069.187,383.408 Q1064.367,381.99 1062.241,380.62 1059.311,378.825 1058.839,375.895 1057.941,370.603 1066.115,365.642 1070.179,363.138 1074.431,361.72 1070.321,361.248 1064.887,361.484 1054.019,361.956 1047.499,365.5 1044.002,367.437 1041.026,366.965 1039.041,366.681 1036.112,364.933 1032.662,362.854 1031.103,362.334 1027.937,361.248 1024.346,362.193 1018.346,363.752 1006.911,358.365 1000.202,355.2 999.304,354.821 995.666,353.404 994.106,354.16 990.941,355.766 971.048,354.869 953.471,354.066 944.447,352.742 938.493,351.845 929.563,344.427 L921.767,337.15 922.428,340.41 Q923.137,344.237 923.231,347.261 923.609,356.806 917.987,354.16 912.364,351.514 900.457,351.136 L889.637,351.325 897.386,358.412 Q904.095,365.264 899.087,364.083 894.078,362.901 883.541,367.154 L874.044,371.643 876.218,371.784 Q878.722,372.068 880.376,372.777 885.668,374.997 880.659,380.62 870.028,392.527 864.641,399.426 853.112,414.215 843.332,431.697 835.394,445.872 832.748,479.184 831.094,500.304 831.755,524.638 831.85,529.174 831.992,531.867 840.024,504.462 841.914,494.54 843.473,486.46 845.222,481.924 847.348,476.396 851.364,471.387 857.034,464.3 875.462,440.202 878.627,436.139 886.14,428.72 890.345,424.61 898.614,416.53 903.434,411.663 908.915,409.254 912.222,407.789 919.877,405.19 922.853,404.056 924.129,404.623 925.169,405.048 925.736,406.986 926.066,408.072 926.87,410.907 927.862,413.459 929.799,415.112 931.358,416.436 939.202,425.696 945.25,432.879 949.691,434.532 953.519,435.95 968.213,442.14 982.058,447.573 987.019,447.29 992.311,446.959 999.587,438.359 1005.163,431.839 1008.281,425.555 1010.502,421.113 1015.085,417.758 1019.905,414.167 1024.346,414.167 1027.89,414.167 1032.615,418.609 1039.75,425.319 1042.301,426.972 1048.255,430.847 1061.627,441.998 1074.857,453.007 1079.156,457.685 1082.984,461.843 1093.804,488.775 1103.537,513.015 1107.034,524.78 1110.814,537.537 1119.791,570.612 1120.642,567.777 1121.445,563.95 1123.099,556.248 1123.099,551.24 1123.099,547.129 1127.068,535.222 1129.147,529.032 1130.045,525.394 1130.753,522.275 1130.659,521 1130.423,518.401 1129.147,510.51 1127.635,501.533 1126.879,495.012 1124.186,471.813 1123.808,468.032 1121.87,449.227 1122.154,443.51 1122.485,437.084 1108.262,416.672 1094.56,396.968 1086.244,390.542 1081.85,387.141 1069.187,383.408Z" test="JeanRenoFace" vector-effect="non-scaling-stroke" stroke-width="1"/>
        <path id="Layer3_0_1_STROKES" stroke="#FFF" stroke-width="1.89" stroke-linejoin="round" stroke-linecap="round" fill="none" d="M831.992,531.867 Q831.85,529.174 831.755,524.638 831.094,500.304 832.748,479.184 835.394,445.872 843.332,431.697 853.112,414.215 864.641,399.426 870.028,392.527 880.659,380.62 885.668,374.997 880.376,372.777 878.722,372.068 876.218,371.784 L874.044,371.643 883.541,367.154 Q894.078,362.901 899.087,364.083 904.095,365.264 897.386,358.412 L889.637,351.325 900.457,351.136 Q912.364,351.514 917.987,354.16 923.609,356.806 923.231,347.261 923.137,344.237 922.428,340.41 L921.767,337.15 929.563,344.427 Q938.493,351.845 944.447,352.742 953.471,354.066 971.048,354.869 990.941,355.766 994.106,354.16 995.666,353.404 999.304,354.821 1000.202,355.2 1006.911,358.365 1018.346,363.752 1024.346,362.193 1027.937,361.248 1031.103,362.334 1032.662,362.854 1036.112,364.933 1039.041,366.681 1041.026,366.965 1044.002,367.437 1047.499,365.5 1054.019,361.956 1064.887,361.484 1070.321,361.248 1074.431,361.72 1070.179,363.138 1066.115,365.642 1057.941,370.603 1058.839,375.895 1059.311,378.825 1062.241,380.62 1064.367,381.99 1069.187,383.408 1081.85,387.141 1086.244,390.542 1094.56,396.968 1108.262,416.672 1122.485,437.084 1122.154,443.51 1121.87,449.227 1123.808,468.032 1124.186,471.813 1126.879,495.012 1127.635,501.533 1129.147,510.51 1130.423,518.401 1130.659,521 1130.753,522.275 1130.045,525.394 1136.849,521.047 1140.676,523.079 1142.755,524.165 1147.244,530.922 1150.551,535.883 1149.606,542.168 1148.803,547.412 1144.881,554.075 1139.164,563.808 1136.849,569.147 1132.218,579.637 1131.604,589.512 1131.084,598.206 1133.258,609.546 1135.195,619.705 1134.911,620.745 1133.73,624.808 1131.131,627.738 1127.21,632.084 1121.681,631.14 1116.389,630.242 1114.736,628.257 L1114.121,626.415 1111.192,632.982 Q1107.176,642.291 1101.836,656.182 1100.75,658.97 1098.576,667.097 1095.977,674.704 1091.063,678.815 1088.228,681.225 1084.354,691.525 1080.527,701.778 1076.18,705.228 1070.132,710.094 1066.21,716.284 1062.194,722.71 1059.642,731.829 1058.414,736.224 1049.814,744.067 1041.403,751.769 1040.553,755.738 1039.608,760.132 1036.348,763.25 1034.505,764 1030.961,768.165 1024.016,776.622 1018.015,780.827 1012.392,784.702 1003.745,787.442 998.123,789.238 988.106,789.38 977.663,789.522 972.844,790.844 966.607,792.546 954.605,790.277 939.911,787.537 939.722,787.537 930.319,787.348 924.082,784.041 918.317,780.922 911.372,772.89 907.544,768.448 900.788,764.904 892.944,760.746 888.786,757.014 887.085,755.502 881.415,748.225 875.651,740.854 874.044,739.342 868.091,733.908 866.059,731.971 862.893,728.994 861.334,726.537 858.452,722.049 854.199,705.322 852.167,697.431 846.119,684.863 839.788,671.775 839.552,671.066 836.669,661.474 834.732,653.205 832.937,645.315 832.464,640.59 831.803,634.4 831.566,617.248 831.565,617.13 831.566,617.012 831.332,596.356 831.661,562.155 L831.992,531.867 Q840.024,504.462 841.914,494.54 843.473,486.46 845.222,481.924 847.348,476.396 851.364,471.387 857.034,464.3 875.462,440.202 878.627,436.139 886.14,428.72 890.345,424.61 898.614,416.53 903.434,411.663 908.915,409.254 912.222,407.789 919.877,405.19 922.853,404.056 924.129,404.623 925.169,405.048 925.736,406.986 926.066,408.072 926.87,410.907 927.862,413.459 929.799,415.112 931.358,416.436 939.202,425.696 945.25,432.879 949.691,434.532 953.519,435.95 968.213,442.14 982.058,447.573 987.019,447.29 992.311,446.959 999.587,438.359 1005.163,431.839 1008.281,425.555 1010.502,421.113 1015.085,417.758 1019.905,414.167 1024.346,414.167 1027.89,414.167 1032.615,418.609 1039.75,425.319 1042.301,426.972 1048.255,430.847 1061.627,441.998 1074.857,453.007 1079.156,457.685 1082.984,461.843 1093.804,488.775 1103.537,513.015 1107.034,524.78 1110.814,537.537 1119.791,570.612 1120.642,567.777 1121.445,563.95 1123.099,556.248 1123.099,551.24 1123.099,547.129 1127.068,535.222 1129.147,529.032 1130.045,525.394 M998.359,553.13 Q1004.265,549.444 1017.212,544.341 1030.583,539.049 1037.104,538.01 1041.593,537.301 1055.248,535.08 1067.391,533.568 1071.596,535.647 1075.565,537.632 1079.629,543.632 1084.779,551.193 1084.826,551.24 M1025.291,559.934 Q1026.378,577.936 1038.994,579.59 1046.79,580.629 1051.798,579.07 1056.335,577.652 1059.311,573.92 1061.674,570.99 1063.233,565.698 L1064.32,560.973 Q1056.146,555.484 1051.751,555.02 1041.64,553.98 1025.433,559.887 1025.362,559.912 1025.291,559.934 1020.117,561.856 1014.896,564.281 L1010.644,566.36 M1064.32,560.973 Q1065.285,561.623 1066.304,562.344 1076.085,569.289 1078.684,569.667 M1060.256,585.732 Q1064.792,585.26 1068.336,583.795 1073.014,581.81 1073.959,578.645 M831.566,617.012 Q835.157,620.272 837.661,625.375 839.221,628.446 842.387,635.864 843.804,638.889 844.655,645.692 845.269,651.126 849.002,656.182 852.262,660.623 856.373,663.884 860.058,666.766 862.704,670.83 863.696,672.342 868.516,683.02 871.351,689.352 874.989,690.202 876.029,690.438 884.203,694.218 889.778,696.817 893.417,695.4 895.307,694.643 897.716,694.738 899.087,694.785 901.874,694.974 907.261,695.116 912.789,690.675 917.609,686.8 927.2,683.398 935.516,680.469 937.359,677.917 938.635,676.169 940.241,676.122 941.328,676.122 943.454,677.019 948.652,679.287 952.054,677.917 955.598,676.499 964.055,673.003 971.663,670.404 977.096,671.302 980.876,671.916 990.563,675.932 999.446,679.571 1004.029,679.807 1007.951,680.043 1014.802,685.619 1020.803,690.533 1024.819,689.257 1027.276,688.501 1029.827,689.21 1030.867,689.493 1034.033,691.053 1039.183,693.462 1043.246,690.675 1045.656,689.021 1049.011,688.17 1050.948,687.698 1054.634,687.036 1061.107,685.524 1063.564,679.807 1066.73,672.436 1069.423,667.9 1072.022,663.459 1076.321,658.072 1077.928,656.04 1085.771,649.284 1091.3,644.511 1092.386,640.117 1093.473,635.817 1097.064,631.281 1101.6,625.469 1102.781,623.107 1104.435,619.8 1106.325,615.311 1107.979,612.334 1111.286,611.72 1114.783,611.105 1115.303,612.996 1115.539,613.799 1115.066,618.854 1114.783,622.115 1113.224,624.572 L1111.759,626.415 M1050.334,561.635 L1054.114,562.58 M1025.291,601.325 Q1029.497,604.49 1035.97,605.152 1042.396,605.814 1047.026,603.687 M1013.006,574.865 Q1016.408,582.566 1023.401,585.732 M984.656,646.401 Q986.263,651.032 989.381,650.512 L994.532,648.669 Q999.824,646.449 1000.721,644.37 1001.619,642.291 1001.714,638.652 L1001.666,635.392 M984.656,646.401 Q984.609,643.85 983.948,640.164 L983.239,636.81 983.995,644.039 Q984.278,645.362 984.656,646.401 984.656,646.59 984.656,646.732 984.656,650.087 982.436,653.725 979.979,657.647 975.206,661.38 969.962,665.49 963.394,665.16 956.212,664.781 948.746,659.017 942.415,654.15 939.816,644.133 937.832,636.621 938.304,628.305 938.588,623.107 943.171,608.318 948.038,593.292 948.746,590.457 949.691,586.914 949.786,575.007 949.691,562.58 949.691,560.217 949.691,555.303 947.565,550.059 944.73,543.207 939.722,541.317 936.65,540.183 930.083,539.427 923.987,538.719 917.987,536.12 909.671,532.482 897.149,530.355 884.345,528.135 878.769,529.505 873.335,530.875 866.72,535.222 860.578,539.333 856.089,544.152 M927.909,715.717 Q932.067,713.071 937.643,711.465 943.691,709.716 948.746,710.047 951.487,710.236 957.677,712.457 962.874,714.347 967.646,713.827 971.426,713.402 978.514,710.898 984.798,708.63 989.381,708.63 995.24,708.63 1000.391,710.992 1004.549,712.929 1007.809,716.19 M913.262,719.497 Q915.435,713.638 919.357,708.393 921.105,706.078 926.492,700.124 929.09,697.242 934.193,696.061 940.194,694.596 942.557,693.037 945.77,690.911 952.196,690.675 959.614,690.438 961.504,689.729 964.008,688.832 972.655,689.966 981.727,691.194 985.601,690.202 989.996,689.115 996.705,693.699 1004.879,699.274 1006.391,699.652 1009.368,700.408 1014.944,704.755 1020.992,709.433 1023.874,710.52 1027.323,711.843 1027.323,719.214 1027.323,724.033 1027.323,724.411 1027.512,726.915 1028.599,727.53 1031.906,729.42 1032.851,731.735 1034.127,734.759 1030.016,736.979 1029.307,737.358 1017.07,742.933 1008.187,746.997 1005.919,749.265 1004.785,750.399 1003.745,752.761 L1002.044,756.73 Q999.682,761.171 994.579,760.604 988.436,759.943 983.9,760.179 979.79,760.416 975.679,761.55 965.804,764.243 962.543,764.81 952.715,766.464 949.691,763.44 939.438,753.328 933.107,749.265 930.65,747.705 927.2,742.083 923.987,736.791 921.294,735.562 918.176,734.145 917.089,732.302 916.097,729.892 914.679,728.002 912.931,725.64 912.931,722.332 L913.262,719.497Z M831.047,524.307 Q825.849,517.362 817.722,517.031 809.69,516.747 807.894,522.89 806.666,527.095 812.903,540.656 819.707,555.351 819.707,560.217 819.707,565.415 819.943,583.653 819.943,600.427 818.762,606.05 817.486,612.192 819.754,614.319 821.549,615.972 825.377,615.075 M931.217,561.635 Q922.305,557.178 919.097,555.681 L919.499,556.768 Q919.782,558.752 918.932,563.052 917.798,568.959 913.876,571.935 909.056,575.668 899.559,575.337 890.534,575.007 886.235,569.147 883.589,565.415 882.407,558.256 871.168,562.588 868.374,566.36 M919.097,555.681 Q918.554,555.424 918.176,555.256 909.529,551.429 906.174,551.712 903.481,551.949 896.866,553.697 889.211,555.728 882.738,558.138 882.57,558.203 882.407,558.256 M907.119,557.855 L909.482,558.327 M920.822,584.315 Q924.224,582.803 926.681,579.637 929.327,576.188 929.327,572.502 M866.012,574.865 Q868.752,580.393 873.383,584.267 877.824,587.953 882.549,589.04 M882.077,597.545 Q886.991,601.844 889.07,602.695 894.456,604.869 902.394,601.797 M961.976,699.652 Q970.481,701.07 974.734,701.07 M962.449,721.86 Q966.087,721.387 967.127,721.434 969.347,721.529 972.844,722.805" test="JeanRenoFace"/>
      </g>
      <g id="TearAnimf20r1">
        <use xlink:href="#TearGraphic" transform="matrix(.914 0 0 .914 904.4 656.25)"/>
      </g>
      <g id="TearAnimf5r1">
        <use xlink:href="#TearGraphic" transform="matrix(.914 0 0 .914 904.4 575.15)"/>
      </g>
    </g>
    <g id="BlackMaskRect">
      <path fill="#000" stroke="none" d="M823.45,613.6 L823.45,508.3 -23.6,508.3 -23.6,613.6 823.45,613.6Z" test="BlackMaskRect"/>
    </g>
  </g>
</svg>