<?xml version="1.0" encoding="utf-8"?>
<svg id="EdithAnim06" image-rendering="inherit" baseProfile="basic" version="1.1" x="0px" y="0px" width="800" height="600" xmlns="http://www.w3.org/2000/svg" xmlns:xlink="http://www.w3.org/1999/xlink">
  <g id="Jean-Renof2r1" overflow="visible">
    <g id="Bec-nom-Jean">
      <path id="Layer3_0_1_STROKES" stroke="#F90" stroke-width="1.793" stroke-linejoin="round" stroke-linecap="round" fill="none" d="M838.772,402.216 Q838.702,402.003 838.631,401.79 M786.626,419.949 Q782.783,426.886 777.513,434.306 772.396,441.504 769.034,444.845 M864.556,396.944 Q862.5,395.896 861.662,395.531 861.327,395.462 861.143,395.334" test="Bec nom Jean"/>
      <path id="Layer3_0_2_STROKES" stroke="#FFF" stroke-width="1.793" stroke-linejoin="round" stroke-linecap="round" fill="none" d="M930.58,208.384 Q932.732,204.584 934.255,203.022 936.412,200.864 939.188,200.72 942.511,200.574 945.646,203.683 948.986,207.045 948.09,210.845 M906.098,243.341 Q902.215,245.39 899.983,248.206 897.857,250.882 898.037,253.242 898.035,253.295 898.041,253.354 898.5,258.424 902.806,261.419 906.658,264.045 911.929,264.162 M850.3,232.648 Q856.55,233.555 859.415,236.422 861.758,238.707 862.892,243.592 863.294,245.291 863.242,246.621 L867.561,248.97 Q872.622,251.507 876.506,252.517 882.482,254.053 888.22,254.44 893.373,254.777 896.326,253.935 897.303,253.648 898.037,253.242 M863.766,204.499 Q868.097,196.154 874.447,196.366 878.175,196.502 881.222,199.659 883.903,202.398 885.071,206.214 M863.242,246.621 Q863.199,248.421 862.455,249.95 862.015,250.837 861.34,251.632 859.748,253.528 856.316,255.4" test="Bec nom Jean"/>
      <path id="Layer3_0_3_STROKES" stroke="#FEB7AE" stroke-width="1.793" stroke-linejoin="round" stroke-linecap="round" fill="none" d="M969.054,200.963 Q968.759,210.806 967.74,220.2 964.693,248.023 956.094,262.611 955.631,263.398 954.913,264.466 944.674,279.733 932.602,285.861 924.01,290.205 913.489,290.258 899.324,290.288 891.114,288.509 874.647,284.862 859.82,273.128 848.446,264.123 842.166,256.587 836.895,250.19 834.935,244.294 M880.09,287.557 Q880.17,289.797 879.81,292.277 M898.231,368.71 Q896.994,365.229 895.489,361.506 892.426,354.133 890.892,353.12 889.284,352.056 887.806,352.611 886.753,353.026 886.087,353.982 884.602,356.117 883.778,358.165 882.758,360.731 883.137,362.306 883.713,364.618 883.506,364.365 881.711,362.078 879.35,359.507 874.626,354.365 871.71,352.827 867.02,350.384 860.359,353.286 857.161,354.666 855.833,358.93 854.665,362.65 855.532,365.328 856.447,368.094 858.278,371.115 860.518,374.803 863.017,376.706 866.826,379.629 874.199,382.846 M846.978,386.573 L853.159,386.558 Q859.895,386.766 862.663,387.654 867.766,389.347 868.726,389.851 871.458,391.261 871.127,393.542 870.81,395.725 866.628,395.928 864.513,395.986 861.662,395.531 M864.556,396.944 Q869.134,400.019 871.159,404.486 L874.001,410.45 Q876.41,416.877 874.159,419.406 871.311,422.558 867.642,423.829 863.735,425.206 860.767,423.742 856.666,421.709 853.298,419.093 848.914,415.661 848.911,413.31 848.913,412.602 847.471,410.67 846.745,409.674 844.364,406.816 843.295,405.526 841.058,404.189 839.142,403.019 838.772,402.216 M894.266,293.869 L894.474,289.645" test="Bec nom Jean"/>
      <path id="Layer3_0_4_STROKES" stroke="#00F" stroke-width="1.793" stroke-linejoin="round" stroke-linecap="round" fill="none" d="M955.535,270.086 L952.524,300.32 974.433,296.066 Q974.618,291.717 975.756,283.88 978.006,268.243 982.785,251.09 987.753,233.194 985.222,210.299 983,199.182 978.586,175.485 975.521,161.994 962.188,148.896 950.502,137.435 939.83,133.779 921.092,127.352 911.094,125.475 888.943,121.206 873.164,126.776 850.986,134.557 838.044,143.192 820.905,154.642 816.108,169.544 810.82,186.016 809.282,222.845 807.756,259.736 812.028,268.824 815.62,276.456 828.321,285.674 834.658,290.301 840.268,293.384 L834.935,244.294 Q833.654,240.563 833.564,236.296 833.406,229.851 834.482,208.757 835.588,187.464 836.14,187.848 L861.102,186.427 Q888.858,185.149 903.084,185.816 917.31,186.483 944.639,189.822 958.298,191.461 969.137,192.994 L969.054,200.963" test="Bec nom Jean"/>
      <path id="Layer3_0_5_STROKES" stroke="#0FF" stroke-width="1.793" stroke-linejoin="round" stroke-linecap="round" fill="none" d="M893.86,372.168 L890.519,373.83 Q886.726,376.379 884.428,380.624 882.065,385.042 882.313,385.706 882.572,386.432 885.372,389.472 887.689,393.05 900.689,402.858 912.831,412.014 919.559,415.766 926.902,419.891 934.569,423.314 943.85,427.477 947.145,427.53 950.538,427.597 959.745,423.626 968.474,419.869 970.529,417.858 972.455,416.03 974.201,410.146 976.052,403.952 976.673,396.466 977.255,389.662 972.834,377.413 969.532,368.344 965.441,360.802 962.092,354.704 954.177,343.082 945.55,330.363 942.383,327.614 936.873,323.29 933.726,320.827 927.958,316.323 925.631,313.23 923.124,309.848 919.068,306.808 917.353,305.506 911.274,301.605 L904.706,297.309 903.969,300.018 Q902.916,302.944 901.714,303.965 900.399,305.07 897.244,304.896 895.554,304.813 890.77,303.997 884.958,303.011 881.79,302.227 876.122,300.797 874.762,299.141 873.27,297.283 872.334,294.939 871.42,292.72 871.322,290.741 M812.85,332.797 L807.058,348.973 M838.772,402.216 Q838.798,402.179 838.834,402.205 846.578,387.933 846.978,386.573 847.284,385.584 839.876,379.12 832.689,372.81 826.69,368.637 824.556,367.152 809.609,354.57 797.169,344.114 793.378,342.733 789.588,341.352 791.561,340.322 794.953,338.586 795.09,337.917 795.388,336.704 806.663,333.134 820.353,328.842 824.914,326.445 834.338,321.533 836.61,319.837 M865.314,289.565 Q861.073,289.618 856.482,289.701 847.338,289.893 845.778,290.173 M818.914,296.605 Q804.681,301.994 789.953,307.858 760.497,319.586 758.098,322.013 755.078,325.099 758.665,336.114 762.367,347.59 769.394,354.445 775.762,360.677 799.738,377.629 819.876,391.856 828.242,397.021 832.775,399.846 836.254,401.283 837.967,402.038 838.772,402.216 M799.09,380.837 L794.818,396.869 Q789.878,414.019 786.626,419.949 L802.295,433.142 Q819.222,446.883 825.458,449.693 835.689,454.298 847.353,458.098 862.921,463.194 872.103,463.574 878.986,463.885 889.191,464.758 896.358,465.211 898.343,463.534 900.922,461.397 904.052,456.584 907.489,451.33 909.767,445.542 911.783,440.446 915.822,428.675 L919.455,417.878 M931.929,373.258 L930.641,384.922 M920.244,346.016 L933.612,367.384 Q946.86,389.16 946.433,391.266 945.057,397.954 942.081,397.522 940.89,397.349 933.102,391.275 924.823,384.806 922.209,383.698 919.484,382.512 914.911,379.822 909.897,376.826 907.716,375.8 904.833,374.45 902.103,374.134 899.436,373.808 899.116,373.64" test="Bec nom Jean"/>
    </g>
    <g id="Jean-Reno-body">
      <path id="Layer2_0_1_STROKES" stroke="#FEB7AE" stroke-width="1.89" stroke-linejoin="round" stroke-linecap="round" fill="none" d="M-270.855,109.167 Q-264.713,115.309 -226.393,121.452 -200.642,125.61 -173.473,128.067 -166.197,128.729 -123.624,137.422 -87.289,144.794 -80.863,143.187 -71.083,140.73 -63.617,137.753 -54.12,133.926 -44.953,128.067 -35.834,122.208 -23.644,120.413 -13.437,118.853 -5.216,120.507 .69,121.688 6.36,123.578 9.195,124.523 10.849,125.232 9.195,125.704 7.305,126.697 3.62,128.729 2.722,131.516 1.824,134.304 4.895,137.139 6.455,138.509 8.156,139.36 6.266,140.116 4.565,141.486 1.115,144.227 2.013,147.156 2.911,150.133 8.581,151.409 11.416,152.07 14.062,152.117 L15.101,158.165 Q16.566,164.497 18.787,165.82 21.008,167.143 26.394,164.591 29.088,163.363 31.308,161.804 L33.104,165.82 Q35.561,169.741 39.104,169.127 42.648,168.56 45.625,165.489 47.09,163.93 47.846,162.512 L51.295,163.93 Q54.981,165.111 56.162,163.93 57.343,162.748 58.288,159.441 L58.997,156.37 61.265,169.316 Q63.344,183.113 62.304,187.082 62.21,187.413 61.218,192.28 60.509,195.729 59.611,197.997 56.965,204.754 50.208,208.345 M-17.596,162.985 Q-9.374,161 1.871,162.938 18.267,165.725 26.819,176.687 30.127,180.94 37.025,189.681 42.932,197.383 46.239,203.573 55.17,220.299 51.626,237.403 48.129,254.224 38.774,269.675 34.474,276.763 26.111,287.016 23.748,289.898 14.96,296.797 4.517,304.971 -8.193,313.193 -43.678,336.203 -75.949,346.126 L-91.684,350.969 Q-89.044,354.27 -86.911,364.931 -84.738,375.799 -85.636,381.799 -86.392,386.903 -83.698,390.304 -82.989,391.249 -79.493,393.848 -76.705,395.927 -72.5,402.542 -67.066,411.047 -68.153,416.056 -69.287,421.489 -74.201,426.734 -78.643,431.412 -82.564,432.593 -85.494,433.491 -91.069,433.585 L-96.03,433.538 -89.604,434.861 Q-82.375,437.176 -78.075,442.043 -72.5,448.375 -70.232,452.816 -67.586,457.919 -69.098,460.943 -70.137,463.069 -72.925,469.496 -76.375,475.449 -82.8,478.426 -88.801,481.213 -101.889,478.142 -108.457,476.394 -111.245,475.685 -115.97,474.504 -117.765,474.646 -120.128,474.835 -138.697,479.56 -157.503,484.379 -164.07,485.041 -170.969,485.749 -179.238,482.253 -183.112,480.458 -184.671,479.843 -187.223,478.756 -188.404,478.898 -192.184,479.087 -194.121,479.323 -197.476,479.796 -199.98,481.733 -202.815,483.907 -206.69,482.962 -210.375,482.064 -211.32,479.607 -212.407,476.819 -212.313,475.165 -212.171,472.85 -209.903,471.102 -207.824,469.496 -204.516,468.929 -202.863,468.692 -201.634,468.739 -202.532,467.7 -203.146,466.33 -204.375,463.589 -203.052,462.124 -201.587,460.518 -197.76,459.715 -194.547,459.053 -191.948,459.29 -190.814,459.384 -193.365,457.588 -196.531,455.368 -195.492,454.328 -194.263,453.1 -191.097,453.194 -189.633,453.242 -186.042,453.856 -184.813,454.045 -182.829,455.462 -181.411,456.502 -180.372,455.982 -177.064,454.328 -172.623,452.249 -165.819,449.083 -163.125,448.186 -158.873,446.768 -154.62,445.823 M-258.854,110.254 Q-254.696,108.269 -239.812,99.386 -225.826,91.496 -220.818,91.354 -207.824,90.976 -203.808,91.354 -191.003,92.535 -179.19,98.441 -153.864,111.104 -150.226,112.994 -134.019,121.594 -126.979,127.264 -120.175,132.745 -114.505,136.005 -111.67,137.659 -110.205,138.179 M-281.534,174.277 Q-281.534,170.214 -280.542,165.205 -278.51,155.141 -273.501,150.416 -262.965,140.494 -249.404,142.62 -244.206,143.423 -234.048,149.66 -224.692,155.378 -222.235,158.449 -220.298,160.859 -215.478,161.756 -211.793,162.465 -206.879,162.229 -204.233,162.134 -190.294,161.142 -176.875,160.386 -173.048,161.284 -166.716,162.748 -152.069,167.71 -135.295,173.427 -132.177,175.931 -129.814,177.821 -121.782,184.814 -114.269,191.051 -111.387,192.233 -108.079,193.556 -107.559,194.453 -107.229,195.068 -107.843,197.241 -108.079,198.092 -107.559,204.376 -107.04,211.227 -107.843,216.614 -108.835,223.276 -113.938,240.711 -118.758,257.154 -121.309,263.391 -123.388,268.541 -129.956,279.976 -135.957,290.418 -138.083,293.159 -139.548,295.096 -142.855,299.018 L-145.879,302.609 -141.343,303.364 Q-136.24,304.357 -133.594,305.68 -131.468,306.766 -126.837,308.94 -122.963,311.208 -120.837,314.657 -118.049,319.193 -117.387,321.461 -116.537,324.438 -117.529,327.887 -118.521,331.289 -120.884,334.927 -122.821,337.904 -125.089,340.172 -128.161,343.244 -130.05,344.756 -133.405,347.449 -135.72,347.732 -138.792,348.157 -140.209,348.016 -142.383,347.78 -146.115,346.315 -149.139,345.133 -151.266,342.677 -154.242,339.275 -156.274,337.81 -159.109,335.731 -160.574,332.801 -162.417,329.021 -164.307,326.942 -167.425,323.493 -169.457,322.265 -170.922,321.414 -173.757,320.8 -176.025,320.327 -176.403,320.422 -177.773,321.036 -180.135,321.981 -184.388,324.155 -185.994,324.769 -188.593,325.714 -190.058,323.635 -192.373,320.422 -192.751,319.335 -193.507,317.209 -192.42,314.185 -191.097,310.594 -190.578,309.885 -189.774,308.893 -186.75,307.57 -182.214,305.538 -176.119,307.57 -175.458,307.806 -176.119,304.357 -177.82,295.096 -177.867,294.859 -180.513,278.133 -178.009,264.809 -175.694,252.665 -169.551,234.096 -164.59,219.118 -165.015,217.558 -165.535,215.621 -179.379,216.188 -194.783,216.85 -197.145,215.905 -199.791,214.865 -214.628,210.849 -228.472,207.069 -229.323,206.455 M-302.088,184.72 Q-288.858,197.052 -281.439,202.297 -261.689,216.33 -237.591,223.229 -213.966,230.032 -191.712,237.356 -180.608,240.995 -174.229,243.31 M-145.218,440.626 Q-146.21,436.468 -164.118,404.149 -182.356,371.168 -183.726,366.916 -186.467,358.316 -188.593,348.157 -191.192,335.778 -190.105,333.085 -189.018,330.486 -186.042,327.793 -184.104,325.997 -181.836,324.58 M-154.904,435.901 Q-156.18,436.846 -158.164,437.744 -162.039,439.586 -165.299,439.444 -168.654,439.303 -174.843,436.846 -179.332,435.05 -182.073,433.538 -183.065,432.971 -183.821,430.845 -184.483,429.049 -185.616,429.049 -186.75,429.049 -189.207,431.176 -191.995,433.585 -193.176,434.011 -194.972,434.672 -198.563,433.727 -201.729,432.877 -203.571,431.648 -205.036,430.703 -205.414,428.53 -205.65,427.018 -205.461,423.852 -205.32,421.537 -203.997,420.166 -203.949,420.072 -200.973,417.709 -199.508,416.528 -197.949,416.056 -197.193,415.819 -196.72,415.819 M-188.451,416.292 Q-188.64,415.489 -188.404,414.449 -188.026,412.37 -186.089,411.331 -184.152,410.291 -180.844,410.622 -179.001,410.811 -175.93,411.331 -174.56,411.472 -172.008,412.607 -169.599,413.693 -168.843,413.693 M-154.62,453.147 Q-161.755,456.88 -169.551,460.66 -185.049,468.314 -188.168,468.739 -191.286,469.165 -194.641,469.023 L-197.382,468.739 M-91.684,350.969 L-91.731,350.992 Q-110.205,356.662 -110.631,356.662 -110.725,356.662 -106.378,372.869 -102.126,390.919 -102.882,399.518 L-104.677,419.269 Q-106.047,439.681 -103.827,443.225" test="Jean Reno body"/>
    </g>
    <g id="BlackMaskRect">
      <path fill="#000" stroke="none" d="M823.45,613.6 L823.45,508.3 -23.6,508.3 -23.6,613.6 823.45,613.6Z" test="BlackMaskRect"/>
    </g>
  </g>
</svg>