<?xml version="1.0" encoding="utf-8"?>
<svg id="EdithAnim06" image-rendering="inherit" baseProfile="basic" version="1.1" x="0px" y="0px" width="800" height="600" xmlns="http://www.w3.org/2000/svg" xmlns:xlink="http://www.w3.org/1999/xlink">
  <g id="Jean-Renof50r1" overflow="visible">
    <g id="Bec-nom-Jean">
      <path id="Layer3_0_1_STROKES" stroke="#F90" stroke-width="1.796" stroke-linejoin="round" stroke-linecap="round" fill="none" d="M665.35,387.991 Q665.17,387.857 664.991,387.722 M632.618,432.398 Q633.426,440.3 633.336,449.415 633.246,458.26 632.393,462.93 M683.534,368.909 Q681.244,369.223 680.346,369.403 680.032,369.538 679.808,369.538" test="Bec nom Jean"/>
      <path id="Layer3_0_2_STROKES" stroke="#FFF" stroke-width="1.796" stroke-linejoin="round" stroke-linecap="round" fill="none" d="M629.969,176.108 Q629.565,171.753 629.924,169.598 630.463,166.59 632.663,164.883 635.312,162.863 639.667,163.626 644.337,164.479 645.773,168.116 M629.834,218.853 Q627.813,222.759 627.589,226.351 627.371,229.767 628.869,231.605 628.897,231.65 628.936,231.695 632.214,235.601 637.467,235.601 642.137,235.556 646.537,232.637 M577.84,241.977 Q583.497,239.148 587.493,239.866 590.726,240.405 594.453,243.773 595.755,244.94 596.473,246.063 L601.367,245.524 Q606.98,244.716 610.751,243.324 616.544,241.168 621.483,238.205 625.912,235.534 627.858,233.154 628.498,232.359 628.869,231.605 M572.811,211.13 Q571.599,201.791 576.942,198.334 580.085,196.313 584.395,197.166 588.167,197.885 591.31,200.354 M596.473,246.063 Q597.467,247.568 597.73,249.25 597.875,250.231 597.775,251.271 597.551,253.74 595.8,257.243" test="Bec nom Jean"/>
      <path id="Layer3_0_3_STROKES" stroke="#FEB7AE" stroke-width="1.796" stroke-linejoin="round" stroke-linecap="round" fill="none" d="M657.358,148.001 Q662.746,156.263 667.281,164.569 680.689,189.189 681.963,206.102 682.032,207.013 682.053,208.302 682.367,226.711 675.946,238.654 671.366,247.14 662.746,253.202 651.117,261.329 643.349,264.561 627.724,270.982 608.821,269.815 594.318,268.917 584.844,266.312 576.852,264.067 571.868,260.341 M633.74,270.084 Q635.087,271.88 636.21,274.125 M695.074,326.434 Q692.065,324.278 688.698,322.078 681.963,317.768 680.122,317.813 678.191,317.858 677.293,319.16 676.665,320.103 676.665,321.27 676.665,323.874 677.159,326.029 677.787,328.723 678,329.801 680.795,331.373 680.481,331.283 677.697,330.43 674.285,329.666 667.46,328.14 664.182,328.544 658.929,329.217 655.113,335.414 653.272,338.377 654.619,342.642 655.786,346.369 658.031,348.075 660.366,349.826 663.599,351.263 667.55,353.014 670.693,353.149 675.497,353.374 683.4,351.802 M663.15,370.436 L668.223,366.888 Q673.881,363.207 676.665,362.354 681.828,360.827 682.906,360.692 685.959,360.288 686.992,362.354 687.979,364.329 684.657,366.888 682.951,368.146 680.346,369.403 M683.534,368.909 Q689.057,368.819 693.278,371.334 L699.025,374.611 Q704.682,378.518 704.278,381.885 703.739,386.106 701.449,389.249 699.025,392.616 695.747,393.11 691.212,393.784 686.947,393.559 681.379,393.245 680.032,391.314 679.628,390.73 677.338,389.967 676.171,389.563 672.579,388.575 670.962,388.126 668.358,388.306 666.113,388.44 665.35,387.991 M649.006,267.166 L646.761,263.574" test="Bec nom Jean"/>
      <path id="Layer3_0_4_STROKES" stroke="#00F" stroke-width="1.796" stroke-linejoin="round" stroke-linecap="round" fill="none" d="M685.779,212.567 L700.596,239.148 716.177,223.119 Q713.842,219.437 710.295,212.343 703.2,198.199 697.319,181.362 691.167,163.806 675.991,146.429 668.627,137.988 650.623,121.6 640.385,112.261 621.931,109.118 605.767,106.379 594.902,109.477 575.819,114.91 566.525,119.085 545.871,128.245 536.083,141.85 522.298,160.932 516.596,175.435 509.053,194.652 513.633,209.649 518.706,226.217 538.507,257.377 558.353,288.583 567.064,293.612 574.382,297.832 590.097,298.147 597.955,298.326 604.331,297.653 L571.868,260.341 Q568.68,258.006 566.166,254.549 562.349,249.34 551.169,231.38 539.899,213.241 540.573,213.241 L560.284,197.795 Q582.375,180.868 594.453,173.28 606.531,165.692 630.911,152.805 643.079,146.34 652.868,141.401 L657.358,148.001" test="Bec nom Jean"/>
      <path id="Layer3_0_5_STROKES" stroke="#0FF" stroke-width="1.796" stroke-linejoin="round" stroke-linecap="round" fill="none" d="M693.457,331.777 L691.661,335.054 Q690,339.32 690.539,344.124 691.122,349.108 691.706,349.512 692.335,349.961 696.376,350.859 700.327,352.476 716.626,353.104 731.847,353.688 739.525,352.925 747.921,352.116 756.183,350.545 766.195,348.659 768.934,346.818 771.763,344.932 777.061,336.401 782.09,328.319 782.629,325.491 783.167,322.886 781.237,317.049 779.216,310.898 775.445,304.388 772.032,298.461 761.391,290.918 753.488,285.35 745.811,281.489 739.57,278.391 726.414,273.362 712.046,267.839 707.87,267.39 700.866,266.986 696.87,266.761 689.551,266.357 685.869,265.145 681.873,263.798 676.799,263.618 674.644,263.529 667.415,263.798 L659.558,264.023 660.501,266.672 Q661.309,269.68 660.905,271.207 660.456,272.868 657.762,274.529 656.325,275.427 651.925,277.493 646.582,280.007 643.528,281.174 638.051,283.24 635.985,282.656 633.695,281.983 631.585,280.591 629.565,279.289 628.352,277.717 M604.331,345.741 L608.821,362.354 M665.35,387.991 Q665.35,387.947 665.395,387.947 663.599,371.783 663.15,370.436 662.835,369.448 653.047,368.37 643.528,367.293 636.21,367.293 633.606,367.293 614.119,365.497 597.91,364.015 594.004,365.048 590.097,366.08 591.13,364.105 592.926,360.737 592.657,360.109 592.208,358.941 599.437,349.557 608.237,338.197 610.617,333.618 615.556,324.189 616.454,321.495 M622.74,280.187 Q619.282,282.656 615.556,285.35 608.147,290.738 607.025,291.861 M588.616,312.515 Q579.995,325.087 571.239,338.332 553.728,364.823 553.145,368.191 552.426,372.456 561.676,379.46 571.284,386.779 580.983,388.396 589.783,389.877 619.193,390.102 643.888,390.281 653.721,389.743 659.064,389.473 662.746,388.665 664.587,388.306 665.35,387.991 M620.495,393.11 L626.152,408.735 Q631.899,425.663 632.618,432.398 L653.047,434.283 Q674.824,435.9 681.559,434.643 692.604,432.577 704.368,429.03 720.083,424.316 727.851,419.377 733.688,415.695 742.578,410.576 748.729,406.849 749.403,404.335 750.301,401.102 750.121,395.355 749.941,389.069 748.505,383.008 747.247,377.664 743.835,365.676 L740.647,354.721 M725.381,310.898 L730.994,321.225 M700.192,295.183 L723.406,305.106 Q746.753,315.433 747.607,317.409 750.301,323.695 747.607,325.042 746.529,325.58 736.651,325.042 726.144,324.458 723.361,325.042 720.442,325.625 715.144,326.029 709.307,326.434 706.927,326.838 703.784,327.376 701.36,328.679 698.98,329.936 698.621,329.981" test="Bec nom Jean"/>
    </g>
    <g id="Jean-Reno-body">
      <path id="Layer2_0_1_STROKES" stroke="#FEB7AE" stroke-width="1.89" stroke-linejoin="round" stroke-linecap="round" fill="none" d="M17.844,111.017 Q23.987,117.16 62.307,123.302 88.058,127.46 115.227,129.917 122.503,130.579 165.075,139.273 201.411,146.644 207.837,145.037 217.617,142.58 225.083,139.603 234.58,135.776 243.747,129.917 252.866,124.058 265.057,122.263 275.263,120.703 283.484,122.357 289.39,123.538 295.06,125.428 297.895,126.373 299.549,127.082 297.895,127.554 296.005,128.547 292.32,130.579 291.422,133.366 290.524,136.154 293.596,138.989 295.155,140.359 296.856,141.21 294.966,141.966 293.265,143.336 289.816,146.077 290.713,149.006 291.611,151.983 297.281,153.259 300.116,153.92 302.762,153.967 L303.802,160.015 Q305.266,166.347 307.487,167.67 309.708,168.993 315.094,166.441 317.788,165.213 320.008,163.654 L321.804,167.67 Q324.261,171.592 327.804,170.977 331.348,170.41 334.325,167.339 335.79,165.78 336.546,164.362 L339.995,165.78 Q343.681,166.961 344.862,165.78 346.043,164.599 346.988,161.291 L347.697,158.22 349.965,171.166 Q352.044,184.963 351.004,188.932 350.91,189.263 349.918,194.13 349.209,197.579 348.311,199.847 345.665,206.604 338.908,210.195 M271.105,164.835 Q279.326,162.85 290.571,164.788 306.967,167.575 315.52,178.537 318.827,182.79 325.726,191.531 331.632,199.233 334.939,205.423 343.87,222.149 340.326,239.254 336.829,256.075 327.474,271.525 323.174,278.613 314.811,288.866 312.448,291.748 303.66,298.647 293.218,306.821 280.507,315.043 245.022,338.053 212.751,347.976 L197.016,352.819 Q199.656,356.12 201.789,366.781 203.962,377.649 203.064,383.65 202.308,388.753 205.002,392.155 205.71,393.1 209.207,395.698 211.995,397.777 216.2,404.392 221.634,412.897 220.547,417.906 219.413,423.34 214.499,428.584 210.057,433.262 206.136,434.443 203.206,435.341 197.631,435.436 L192.67,435.388 199.096,436.711 Q206.325,439.026 210.624,443.893 216.2,450.225 218.468,454.666 221.114,459.769 219.602,462.793 218.563,464.92 215.775,471.346 212.325,477.299 205.9,480.276 199.899,483.064 186.811,479.992 180.243,478.244 177.455,477.535 172.73,476.354 170.935,476.496 168.572,476.685 150.003,481.41 131.197,486.229 124.63,486.891 117.731,487.6 109.462,484.103 105.588,482.308 104.029,481.693 101.477,480.607 100.296,480.748 96.516,480.937 94.578,481.174 91.224,481.646 88.719,483.583 85.884,485.757 82.01,484.812 78.324,483.914 77.38,481.457 76.293,478.669 76.387,477.016 76.529,474.7 78.797,472.952 80.876,471.346 84.184,470.779 85.837,470.542 87.066,470.59 86.168,469.55 85.554,468.18 84.325,465.439 85.648,463.975 87.113,462.368 90.94,461.565 94.153,460.903 96.752,461.14 97.886,461.234 95.334,459.439 92.169,457.218 93.208,456.178 94.437,454.95 97.602,455.044 99.067,455.092 102.658,455.706 103.887,455.895 105.871,457.312 107.289,458.352 108.328,457.832 111.636,456.178 116.077,454.099 122.881,450.934 125.575,450.036 129.827,448.618 134.08,447.673 M29.846,112.104 Q34.004,110.119 48.888,101.236 62.874,93.346 67.882,93.204 80.876,92.826 84.892,93.204 97.697,94.385 109.51,100.291 134.836,112.954 138.474,114.844 154.681,123.444 161.721,129.114 168.525,134.595 174.195,137.855 177.03,139.509 178.495,140.029 M7.166,176.128 Q7.166,172.064 8.158,167.056 10.19,156.991 15.198,152.266 25.735,142.344 39.296,144.47 44.494,145.273 54.652,151.51 64.008,157.228 66.465,160.299 68.402,162.709 73.221,163.606 76.907,164.315 81.821,164.079 84.467,163.984 98.406,162.992 111.825,162.236 115.652,163.134 121.983,164.599 136.631,169.56 153.405,175.277 156.523,177.781 158.886,179.671 166.918,186.664 174.431,192.901 177.313,194.083 180.621,195.406 181.14,196.303 181.471,196.918 180.857,199.091 180.621,199.942 181.14,206.226 181.66,213.077 180.857,218.464 179.865,225.126 174.762,242.561 169.942,259.004 167.391,265.241 165.312,270.391 158.744,281.826 152.743,292.268 150.617,295.009 149.152,296.946 145.845,300.868 L142.821,304.459 147.357,305.215 Q152.46,306.207 155.106,307.53 157.232,308.617 161.862,310.79 165.737,313.058 167.863,316.507 170.651,321.043 171.313,323.311 172.163,326.288 171.171,329.737 170.179,333.139 167.816,336.778 165.879,339.754 163.611,342.022 160.539,345.094 158.65,346.606 155.295,349.299 152.98,349.582 149.908,350.008 148.491,349.866 146.317,349.63 142.585,348.165 139.561,346.984 137.434,344.527 134.457,341.125 132.426,339.66 129.591,337.581 128.126,334.651 126.283,330.871 124.393,328.792 121.275,325.343 119.243,324.115 117.778,323.264 114.943,322.65 112.675,322.177 112.297,322.272 110.927,322.886 108.565,323.831 104.312,326.005 102.706,326.619 100.107,327.564 98.642,325.485 96.327,322.272 95.949,321.185 95.193,319.059 96.279,316.035 97.602,312.444 98.122,311.735 98.926,310.743 101.949,309.42 106.486,307.388 112.581,309.42 113.242,309.656 112.581,306.207 110.88,296.946 110.832,296.71 108.187,279.983 110.691,266.659 113.006,254.515 119.148,235.946 124.11,220.968 123.684,219.409 123.165,217.471 109.32,218.038 93.917,218.7 91.554,217.755 88.908,216.715 74.072,212.699 60.228,208.919 59.377,208.305 M-13.388,186.57 Q-.158,198.902 7.261,204.147 27.011,218.18 51.108,225.079 74.733,231.883 96.988,239.206 108.092,242.845 114.471,245.16 M143.482,442.476 Q142.49,438.318 124.582,405 106.344,373.018 104.973,368.766 102.233,360.166 100.107,350.008 97.508,337.628 98.595,334.935 99.682,332.336 102.658,329.643 104.596,327.847 106.863,326.43 M133.796,437.751 Q132.52,438.696 130.536,439.594 126.661,441.436 123.401,441.295 120.046,441.153 113.857,438.696 109.368,436.9 106.627,435.388 105.635,434.821 104.879,432.695 104.217,430.9 103.083,430.9 101.949,430.9 99.492,433.026 96.705,435.436 95.523,435.861 93.728,436.522 90.137,435.577 86.971,434.727 85.128,433.498 83.664,432.553 83.286,430.38 83.05,428.868 83.238,425.702 83.38,423.387 84.703,422.016 84.751,421.922 87.727,419.559 89.192,418.378 90.751,417.906 91.507,417.67 91.98,417.67 M100.249,418.142 Q100.059,417.339 100.296,416.299 100.674,414.22 102.611,413.181 104.548,412.141 107.856,412.472 109.699,412.661 112.77,413.181 114.14,413.323 116.691,414.457 119.101,415.543 119.857,415.543 M134.08,454.997 Q126.945,458.73 119.148,462.51 103.651,470.164 100.532,470.59 97.413,471.015 94.059,470.873 L91.318,470.59 M197.016,352.819 L196.969,352.843 Q178.495,358.513 178.069,358.513 177.975,358.513 182.322,374.719 186.574,392.769 185.818,401.368 L184.023,421.119 Q182.652,441.531 184.873,445.075" test="Jean Reno body"/>
    </g>
    <g id="BlackMaskRect">
      <path fill="#000" stroke="none" d="M823.45,613.6 L823.45,508.3 -23.6,508.3 -23.6,613.6 823.45,613.6Z" test="BlackMaskRect"/>
    </g>
  </g>
</svg>