<?xml version="1.0" encoding="utf-8"?>
<svg id="EdithAnim06" image-rendering="inherit" baseProfile="basic" version="1.1" x="0px" y="0px" width="800" height="600" xmlns="http://www.w3.org/2000/svg" xmlns:xlink="http://www.w3.org/1999/xlink">
  <g id="Jean-Renof56r1" overflow="visible">
    <g id="Bec-nom-Jean">
      <path id="Layer3_0_1_STROKES" stroke="#F90" stroke-width="1.796" stroke-linejoin="round" stroke-linecap="round" fill="none" d="M677.6,394.891 Q677.42,394.757 677.241,394.622 M644.868,439.298 Q645.676,447.2 645.586,456.315 645.496,465.16 644.643,469.83 M695.784,375.809 Q693.494,376.123 692.596,376.303 692.282,376.438 692.058,376.438" test="Bec nom Jean"/>
      <path id="Layer3_0_2_STROKES" stroke="#FFF" stroke-width="1.796" stroke-linejoin="round" stroke-linecap="round" fill="none" d="M642.219,183.008 Q641.815,178.653 642.174,176.498 642.713,173.49 644.913,171.783 647.562,169.763 651.917,170.526 656.587,171.379 658.023,175.016 M642.084,225.753 Q640.063,229.659 639.839,233.251 639.621,236.667 641.119,238.505 641.147,238.55 641.186,238.594 644.464,242.501 649.717,242.501 654.387,242.456 658.787,239.537 M590.09,248.877 Q595.747,246.048 599.743,246.766 602.976,247.305 606.703,250.673 608.005,251.84 608.723,252.963 L613.617,252.424 Q619.23,251.616 623.001,250.224 628.794,248.068 633.733,245.105 638.162,242.434 640.108,240.054 640.748,239.259 641.119,238.505 M585.061,218.03 Q583.849,208.691 589.192,205.234 592.335,203.213 596.645,204.066 600.417,204.785 603.56,207.254 M608.723,252.963 Q609.717,254.468 609.98,256.15 610.125,257.131 610.025,258.171 609.801,260.64 608.05,264.143" test="Bec nom Jean"/>
      <path id="Layer3_0_3_STROKES" stroke="#FEB7AE" stroke-width="1.796" stroke-linejoin="round" stroke-linecap="round" fill="none" d="M669.608,154.901 Q674.996,163.163 679.531,171.469 692.939,196.089 694.213,213.002 694.282,213.913 694.303,215.202 694.617,233.611 688.196,245.554 683.616,254.04 674.996,260.102 663.367,268.229 655.599,271.461 639.974,277.882 621.071,276.715 606.568,275.817 597.094,273.212 589.102,270.967 584.118,267.241 M645.99,276.984 Q647.337,278.78 648.46,281.025 M707.324,333.334 Q704.315,331.178 700.948,328.978 694.213,324.668 692.372,324.713 690.441,324.758 689.543,326.06 688.915,327.003 688.915,328.17 688.915,330.774 689.409,332.929 690.037,335.623 691.249,336.701 693.045,338.273 692.731,338.183 689.947,337.33 686.535,336.566 679.71,335.04 676.432,335.444 671.179,336.117 667.363,342.314 665.522,345.277 666.869,349.542 668.036,353.269 670.281,354.975 672.616,356.726 675.849,358.163 679.8,359.914 682.943,360.049 687.747,360.274 695.65,358.702 M675.4,377.336 L680.473,373.788 Q686.131,370.107 688.915,369.254 694.078,367.727 695.156,367.592 698.209,367.188 699.242,369.254 700.229,371.229 696.907,373.788 695.201,375.046 692.596,376.303 M695.784,375.809 Q701.307,375.719 705.528,378.234 L711.275,381.511 Q716.932,385.418 716.528,388.785 715.989,393.006 713.699,396.149 711.275,399.516 707.997,400.01 703.462,400.684 699.197,400.459 693.629,400.145 692.282,398.214 691.878,397.63 689.588,396.867 688.421,396.463 684.829,395.475 683.212,395.026 680.608,395.206 678.363,395.34 677.6,394.891 M661.256,274.066 L659.011,270.474" test="Bec nom Jean"/>
      <path id="Layer3_0_4_STROKES" stroke="#00F" stroke-width="1.796" stroke-linejoin="round" stroke-linecap="round" fill="none" d="M698.029,219.467 L712.846,246.048 728.427,230.019 Q726.092,226.337 722.545,219.243 715.45,205.099 709.569,188.262 703.417,170.706 688.241,153.329 680.877,144.888 662.873,128.5 652.635,119.16 634.181,116.017 618.017,113.279 607.152,116.377 588.069,121.81 578.775,125.985 558.121,135.145 548.333,148.75 534.548,167.832 528.846,182.335 521.303,201.552 525.883,216.549 530.956,233.117 550.757,264.277 570.603,295.483 579.314,300.512 586.632,304.732 602.347,305.047 610.205,305.226 616.581,304.553 L584.118,267.241 Q580.93,264.906 578.416,261.449 574.599,256.24 563.419,238.28 552.149,220.141 552.823,220.141 L572.534,204.695 Q594.625,187.768 606.703,180.18 618.781,172.592 643.161,159.705 655.329,153.24 665.118,148.301 L669.608,154.901" test="Bec nom Jean"/>
      <path id="Layer3_0_5_STROKES" stroke="#0FF" stroke-width="1.796" stroke-linejoin="round" stroke-linecap="round" fill="none" d="M705.707,338.677 L703.911,341.954 Q702.25,346.22 702.789,351.024 703.372,356.008 703.956,356.412 704.585,356.861 708.626,357.759 712.577,359.376 728.876,360.004 744.097,360.588 751.775,359.825 760.171,359.016 768.433,357.445 778.445,355.559 781.184,353.718 784.013,351.832 789.311,343.301 794.34,335.219 794.879,332.391 795.417,329.786 793.487,323.949 791.466,317.798 787.695,311.288 784.282,305.361 773.641,297.818 765.738,292.25 758.061,288.389 751.82,285.291 738.664,280.262 724.296,274.739 720.12,274.29 713.116,273.886 709.12,273.661 701.801,273.257 698.119,272.045 694.123,270.698 689.049,270.518 686.894,270.429 679.665,270.698 L671.808,270.923 672.751,273.572 Q673.559,276.58 673.155,278.107 672.706,279.768 670.012,281.429 668.575,282.327 664.175,284.393 658.832,286.907 655.778,288.074 650.301,290.14 648.235,289.556 645.945,288.883 643.835,287.491 641.815,286.189 640.602,284.617 M616.581,352.641 L621.071,369.254 M677.6,394.891 Q677.6,394.847 677.645,394.847 675.849,378.683 675.4,377.336 675.085,376.348 665.297,375.27 655.778,374.193 648.46,374.193 645.856,374.193 626.369,372.397 610.16,370.915 606.254,371.948 602.347,372.98 603.38,371.005 605.176,367.637 604.907,367.009 604.458,365.841 611.687,356.457 620.487,345.097 622.867,340.518 627.806,331.089 628.704,328.395 M634.99,287.087 Q631.532,289.556 627.806,292.25 620.397,297.638 619.275,298.761 M600.866,319.415 Q592.245,331.987 583.489,345.232 565.978,371.723 565.395,375.091 564.676,379.356 573.926,386.36 583.534,393.679 593.233,395.296 602.033,396.777 631.443,397.002 656.138,397.181 665.971,396.643 671.314,396.373 674.996,395.565 676.837,395.206 677.6,394.891 M632.745,400.01 L638.402,415.635 Q644.149,432.563 644.868,439.298 L665.297,441.183 Q687.074,442.8 693.809,441.543 704.854,439.477 716.618,435.93 732.333,431.216 740.101,426.277 745.938,422.595 754.828,417.476 760.979,413.749 761.653,411.235 762.551,408.002 762.371,402.255 762.191,395.969 760.755,389.908 759.497,384.564 756.085,372.576 L752.897,361.621 M737.631,317.798 L743.244,328.125 M712.442,302.083 L735.656,312.006 Q759.003,322.333 759.857,324.309 762.551,330.595 759.857,331.942 758.779,332.48 748.901,331.942 738.394,331.358 735.611,331.942 732.692,332.525 727.394,332.929 721.557,333.334 719.177,333.738 716.034,334.276 713.61,335.579 711.23,336.836 710.871,336.881" test="Bec nom Jean"/>
    </g>
    <g id="Jean-Reno-body">
      <path id="Layer2_0_1_STROKES" stroke="#FEB7AE" stroke-width="1.89" stroke-linejoin="round" stroke-linecap="round" fill="none" d="M33.394,117.567 Q39.537,123.71 77.857,129.852 103.608,134.01 130.777,136.467 138.053,137.129 180.626,145.823 216.961,153.194 223.387,151.587 233.168,149.13 240.633,146.153 250.13,142.326 259.297,136.467 268.416,130.608 280.607,128.813 290.813,127.253 299.034,128.907 304.94,130.088 310.61,131.978 313.445,132.923 315.099,133.632 313.445,134.105 311.555,135.097 307.87,137.129 306.972,139.916 306.074,142.704 309.145,145.539 310.705,146.909 312.406,147.76 310.516,148.516 308.815,149.886 305.366,152.627 306.263,155.556 307.161,158.533 312.831,159.809 315.666,160.47 318.312,160.517 L319.352,166.565 Q320.816,172.897 323.037,174.22 325.258,175.543 330.644,172.991 333.338,171.763 335.558,170.204 L337.354,174.22 Q339.811,178.142 343.355,177.527 346.898,176.96 349.875,173.889 351.34,172.33 352.096,170.912 L355.545,172.33 Q359.231,173.511 360.412,172.33 361.593,171.149 362.538,167.841 L363.247,164.77 365.515,177.716 Q367.594,191.513 366.554,195.482 366.46,195.813 365.468,200.68 364.759,204.129 363.861,206.397 361.215,213.154 354.458,216.745 M286.655,171.385 Q294.876,169.4 306.121,171.338 322.517,174.125 331.069,185.087 334.377,189.34 341.275,198.081 347.182,205.783 350.489,211.973 359.42,228.699 355.876,245.804 352.379,262.625 343.024,278.075 338.724,285.163 330.361,295.416 327.998,298.298 319.21,305.197 308.768,313.371 296.057,321.593 260.573,344.603 228.301,354.526 L212.567,359.369 Q215.206,362.67 217.339,373.331 219.512,384.199 218.615,390.2 217.859,395.303 220.552,398.705 221.26,399.65 224.757,402.248 227.545,404.327 231.75,410.942 237.184,419.447 236.097,424.456 234.963,429.89 230.049,435.134 225.608,439.812 221.686,440.993 218.756,441.891 213.181,441.986 L208.22,441.938 214.646,443.261 Q221.875,445.577 226.175,450.443 231.75,456.775 234.018,461.216 236.664,466.319 235.152,469.343 234.113,471.47 231.325,477.895 227.876,483.849 221.45,486.826 215.449,489.614 202.361,486.542 195.793,484.794 193.005,484.085 188.28,482.904 186.485,483.046 184.122,483.235 165.553,487.96 146.747,492.779 140.18,493.441 133.281,494.15 125.012,490.653 121.138,488.857 119.579,488.243 117.027,487.157 115.846,487.298 112.066,487.487 110.129,487.724 106.774,488.196 104.27,490.133 101.435,492.307 97.56,491.362 93.875,490.464 92.93,488.007 91.843,485.219 91.937,483.566 92.079,481.25 94.347,479.502 96.426,477.895 99.734,477.329 101.387,477.092 102.616,477.14 101.718,476.1 101.104,474.73 99.875,471.989 101.198,470.525 102.663,468.918 106.49,468.115 109.703,467.453 112.302,467.69 113.436,467.784 110.885,465.989 107.719,463.768 108.758,462.728 109.987,461.5 113.153,461.594 114.617,461.641 118.208,462.256 119.437,462.445 121.421,463.862 122.839,464.902 123.878,464.382 127.186,462.728 131.627,460.649 138.431,457.484 141.125,456.586 145.377,455.168 149.63,454.223 M45.396,118.654 Q49.554,116.669 64.438,107.786 78.424,99.896 83.432,99.754 96.426,99.376 100.442,99.754 113.247,100.935 125.06,106.841 150.386,119.504 154.024,121.394 170.231,129.994 177.271,135.664 184.075,141.145 189.745,144.405 192.58,146.059 194.045,146.579 M22.716,182.678 Q22.716,178.614 23.708,173.606 25.74,163.541 30.749,158.816 41.285,148.894 54.846,151.02 60.044,151.823 70.202,158.06 79.558,163.778 82.015,166.849 83.952,169.259 88.772,170.156 92.457,170.865 97.371,170.629 100.017,170.534 113.956,169.542 127.375,168.786 131.202,169.684 137.534,171.149 152.181,176.11 168.955,181.827 172.073,184.331 174.436,186.221 182.468,193.214 189.981,199.451 192.863,200.633 196.171,201.956 196.691,202.853 197.021,203.468 196.407,205.641 196.171,206.492 196.691,212.776 197.21,219.627 196.407,225.014 195.415,231.676 190.312,249.111 185.492,265.554 182.941,271.791 180.862,276.941 174.294,288.376 168.293,298.818 166.167,301.559 164.702,303.496 161.395,307.418 L158.371,311.009 162.907,311.765 Q168.01,312.757 170.656,314.08 172.782,315.167 177.413,317.34 181.287,319.608 183.413,323.057 186.201,327.593 186.863,329.861 187.713,332.838 186.721,336.287 185.729,339.689 183.366,343.328 181.429,346.304 179.161,348.572 176.09,351.644 174.2,353.156 170.845,355.849 168.53,356.132 165.458,356.558 164.041,356.416 161.867,356.18 158.135,354.715 155.111,353.534 152.984,351.077 150.008,347.675 147.976,346.21 145.141,344.131 143.676,341.201 141.833,337.421 139.943,335.342 136.825,331.893 134.793,330.665 133.328,329.814 130.493,329.2 128.225,328.727 127.847,328.822 126.477,329.436 124.115,330.381 119.862,332.555 118.256,333.169 115.657,334.114 114.192,332.035 111.877,328.822 111.499,327.735 110.743,325.609 111.83,322.585 113.153,318.994 113.672,318.285 114.476,317.293 117.5,315.97 122.036,313.938 128.131,315.97 128.792,316.206 128.131,312.757 126.43,303.496 126.383,303.26 123.737,286.533 126.241,273.209 128.556,261.065 134.699,242.496 139.66,227.518 139.235,225.959 138.715,224.021 124.871,224.588 109.467,225.25 107.105,224.305 104.459,223.265 89.622,219.249 75.778,215.469 74.927,214.855 M2.162,193.12 Q15.392,205.452 22.811,210.697 42.561,224.73 66.659,231.629 90.284,238.433 112.538,245.756 123.642,249.395 130.021,251.71 M159.032,449.026 Q158.04,444.868 140.132,412.549 121.894,379.568 120.524,375.316 117.783,366.716 115.657,356.558 113.058,344.178 114.145,341.485 115.232,338.886 118.208,336.193 120.146,334.397 122.414,332.98 M149.346,444.301 Q148.07,445.246 146.086,446.144 142.211,447.986 138.951,447.845 135.596,447.703 129.407,445.246 124.918,443.45 122.177,441.938 121.185,441.371 120.429,439.245 119.768,437.45 118.634,437.45 117.5,437.45 115.043,439.576 112.255,441.986 111.074,442.411 109.278,443.072 105.687,442.127 102.521,441.277 100.679,440.048 99.214,439.103 98.836,436.93 98.6,435.418 98.789,432.252 98.93,429.937 100.253,428.567 100.301,428.472 103.277,426.11 104.742,424.928 106.301,424.456 107.057,424.22 107.53,424.22 M115.799,424.692 Q115.61,423.889 115.846,422.849 116.224,420.77 118.161,419.731 120.098,418.691 123.406,419.022 125.249,419.211 128.32,419.731 129.69,419.873 132.242,421.006 134.651,422.093 135.407,422.093 M149.63,461.547 Q142.495,465.28 134.699,469.06 119.201,476.714 116.082,477.14 112.964,477.565 109.609,477.423 L106.868,477.14 M212.567,359.369 L212.519,359.393 Q194.045,365.063 193.619,365.063 193.525,365.063 197.872,381.269 202.124,399.319 201.368,407.918 L199.573,427.669 Q198.203,448.081 200.423,451.625" test="Jean Reno body"/>
    </g>
    <g id="Jean-Renof0r1">
      <g id="JeanRenoFace">
        <path fill="#000" stroke="none" d="M-129.165,-129.091 Q-133.748,-125.737 -135.969,-121.295 -139.087,-115.011 -144.663,-108.49 -151.939,-99.891 -157.231,-99.56 -162.192,-99.277 -176.037,-104.71 -190.731,-110.9 -194.559,-112.318 -199,-113.971 -205.048,-121.153 -212.892,-130.414 -214.451,-131.737 -216.388,-133.391 -217.38,-135.943 -218.184,-138.778 -218.514,-139.864 -219.081,-141.802 -220.121,-142.227 -221.397,-142.794 -224.373,-141.66 -232.028,-139.061 -235.335,-137.596 -240.817,-135.187 -245.636,-130.32 -253.905,-122.24 -258.11,-118.129 -265.623,-110.711 -268.788,-106.648 -287.216,-82.55 -292.886,-75.463 -296.902,-70.454 -299.028,-64.926 -300.777,-60.39 -302.336,-52.31 -304.226,-42.388 -312.258,-14.983 L-312.589,15.304 Q-312.918,49.506 -312.684,70.162 -309.093,73.422 -306.588,78.525 -305.029,81.596 -301.864,89.015 -300.446,92.039 -299.595,98.842 -298.981,104.276 -295.249,109.332 -291.988,113.774 -287.877,117.034 -284.192,119.916 -281.546,123.98 -280.554,125.491 -275.734,136.17 -272.899,142.501 -269.261,143.352 -268.221,143.588 -260.047,147.368 -254.472,149.967 -250.833,148.55 -248.943,147.794 -246.534,147.888 -245.163,147.935 -242.376,148.124 -236.989,148.266 -231.461,143.825 -226.641,139.95 -217.05,136.548 -208.734,133.618 -206.891,131.067 -205.615,129.319 -204.009,129.272 -202.922,129.272 -200.796,130.169 -195.598,132.437 -192.196,131.067 -188.652,129.649 -180.195,126.153 -172.587,123.554 -167.154,124.452 -163.374,125.066 -153.687,129.082 -144.804,132.721 -140.221,132.957 -136.299,133.193 -129.448,138.769 -123.447,143.683 -119.431,142.407 -116.974,141.651 -114.423,142.36 -113.383,142.643 -110.217,144.203 -105.067,146.612 -101.004,143.825 -98.594,142.171 -95.239,141.32 -93.302,140.848 -89.616,140.186 -83.143,138.674 -80.686,132.957 -77.521,125.586 -74.827,121.05 -72.228,116.608 -67.929,111.222 -66.322,109.19 -58.479,102.433 -52.951,97.661 -51.864,93.267 -50.777,88.967 -47.186,84.431 -42.65,78.62 -41.469,76.257 -39.815,72.95 -37.925,68.461 -36.271,65.484 -32.964,64.87 -29.467,64.255 -28.948,66.145 -28.711,66.949 -29.184,72.005 -29.467,75.265 -31.026,77.722 L-32.491,79.565 -31.026,77.722 Q-29.467,75.265 -29.184,72.005 -28.711,66.949 -28.948,66.145 -29.467,64.255 -32.964,64.87 -36.271,65.484 -37.925,68.461 -39.815,72.95 -41.469,76.257 -42.65,78.62 -47.186,84.431 -50.777,88.967 -51.864,93.267 -52.951,97.661 -58.479,102.433 -66.322,109.19 -67.929,111.222 -72.228,116.608 -74.827,121.05 -77.521,125.586 -80.686,132.957 -83.143,138.674 -89.616,140.186 -93.302,140.848 -95.239,141.32 -98.594,142.171 -101.004,143.825 -105.067,146.612 -110.217,144.203 -113.383,142.643 -114.423,142.36 -116.974,141.651 -119.431,142.407 -123.447,143.683 -129.448,138.769 -136.299,133.193 -140.221,132.957 -144.804,132.721 -153.687,129.082 -163.374,125.066 -167.154,124.452 -172.587,123.554 -180.195,126.153 -188.652,129.649 -192.196,131.067 -195.598,132.437 -200.796,130.169 -202.922,129.272 -204.009,129.272 -205.615,129.319 -206.891,131.067 -208.734,133.618 -217.05,136.548 -226.641,139.95 -231.461,143.825 -236.989,148.266 -242.376,148.124 -245.163,147.935 -246.534,147.888 -248.943,147.794 -250.833,148.55 -254.472,149.967 -260.047,147.368 -268.221,143.588 -269.261,143.352 -272.899,142.501 -275.734,136.17 -280.554,125.491 -281.546,123.98 -284.192,119.916 -287.877,117.034 -291.988,113.774 -295.249,109.332 -298.981,104.276 -299.595,98.842 -300.446,92.039 -301.864,89.015 -305.029,81.596 -306.588,78.525 -309.093,73.422 -312.684,70.162 -312.685,70.28 -312.684,70.398 -312.447,87.55 -311.786,93.74 -311.313,98.465 -309.518,106.355 -307.581,114.624 -304.698,124.216 -304.462,124.925 -298.131,138.013 -292.083,150.581 -290.051,158.472 -285.798,175.199 -282.916,179.687 -281.357,182.144 -278.191,185.121 -276.159,187.058 -270.206,192.492 -268.599,194.004 -262.835,201.375 -257.165,208.652 -255.464,210.164 -251.306,213.896 -243.462,218.054 -236.706,221.598 -232.878,226.04 -225.933,234.072 -220.168,237.191 -213.931,240.498 -204.528,240.687 -204.339,240.687 -189.645,243.428 -177.643,245.695 -171.406,243.995 -166.587,242.671 -156.144,242.53 -146.127,242.388 -140.505,240.592 -131.858,237.852 -126.235,233.977 -120.234,229.772 -113.289,221.315 -109.745,218.149 -107.902,216.4 -104.642,213.282 -103.697,208.888 -102.846,204.919 -94.436,197.217 -85.836,189.373 -84.608,184.979 -82.057,175.86 -78.04,169.434 -74.118,163.244 -68.071,158.378 -63.723,154.928 -59.896,144.675 -56.022,134.375 -53.187,131.965 -48.273,127.854 -45.674,120.247 -43.501,112.12 -42.414,109.332 -37.074,95.44 -33.058,86.132 L-30.129,79.565 -29.514,81.407 Q-27.861,83.392 -22.569,84.29 -17.041,85.235 -13.119,80.887 -10.52,77.958 -9.339,73.895 -9.055,72.855 -10.993,62.696 -13.166,51.356 -12.646,42.662 -12.032,32.787 -7.401,22.297 -5.086,16.958 .631,7.225 4.553,.563 5.356,-4.682 6.301,-10.966 2.994,-15.928 -1.495,-22.684 -3.574,-23.771 -7.401,-25.803 -14.205,-21.456 -15.103,-17.818 -17.182,-11.628 -21.151,.279 -21.151,4.39 -21.151,9.398 -22.805,17.1 -23.608,20.927 -24.459,23.762 -33.436,-9.313 -37.216,-22.07 -40.713,-33.835 -50.446,-58.075 -61.267,-85.007 -65.094,-89.165 -69.393,-93.843 -82.623,-104.852 -95.995,-116.003 -101.949,-119.878 -104.5,-121.531 -111.635,-128.241 -116.36,-132.682 -119.904,-132.682 -124.345,-132.682 -129.165,-129.091 M-64.621,-3.218 Q-59.471,4.343 -59.424,4.39 -59.471,4.343 -64.621,-3.218 -68.685,-9.218 -72.654,-11.203 -76.859,-13.282 -89.002,-11.77 -102.657,-9.549 -107.146,-8.84 -113.667,-7.801 -127.038,-2.509 -139.985,2.594 -145.891,6.28 -139.985,2.594 -127.038,-2.509 -113.667,-7.801 -107.146,-8.84 -102.657,-9.549 -89.002,-11.77 -76.859,-13.282 -72.654,-11.203 -68.685,-9.218 -64.621,-3.218 M-79.93,14.123 L-81.017,18.848 Q-82.576,24.14 -84.939,27.07 -87.916,30.803 -92.452,32.22 -97.46,33.779 -105.256,32.74 -117.872,31.086 -118.959,13.084 -124.133,15.006 -129.354,17.431 L-133.606,19.51 -129.354,17.431 Q-124.133,15.006 -118.959,13.084 -118.888,13.062 -118.817,13.036 -102.61,7.13 -92.499,8.17 -88.104,8.634 -79.93,14.123 -78.965,14.773 -77.946,15.494 -68.165,22.439 -65.566,22.817 -68.165,22.439 -77.946,15.494 -78.965,14.773 -79.93,14.123 M-75.914,36.945 Q-71.236,34.96 -70.291,31.795 -71.236,34.96 -75.914,36.945 -79.458,38.41 -83.994,38.882 -79.458,38.41 -75.914,36.945 M-108.28,58.302 Q-101.854,58.964 -97.224,56.837 -101.854,58.964 -108.28,58.302 -114.753,57.64 -118.959,54.475 -114.753,57.64 -108.28,58.302 M-131.244,28.015 Q-127.842,35.717 -120.849,38.882 -127.842,35.717 -131.244,28.015 M-142.536,91.802 L-142.584,88.542 -142.536,91.802 Q-142.631,95.44 -143.529,97.52 -144.426,99.599 -149.718,101.819 L-154.869,103.662 Q-157.987,104.182 -159.594,99.551 -159.594,99.74 -159.594,99.882 -159.594,103.237 -161.814,106.875 -164.271,110.797 -169.044,114.53 -174.288,118.64 -180.856,118.31 -188.038,117.931 -195.504,112.167 -201.835,107.3 -204.434,97.283 -206.418,89.77 -205.946,81.455 -205.662,76.257 -201.079,61.468 -196.212,46.442 -195.504,43.607 -194.559,40.064 -194.464,28.156 -194.559,15.73 -194.559,13.367 -194.559,8.453 -196.685,3.209 -199.52,-3.643 -204.528,-5.533 -207.6,-6.667 -214.167,-7.423 -220.263,-8.131 -226.263,-10.73 -234.579,-14.369 -247.101,-16.495 -259.906,-18.715 -265.481,-17.345 -270.915,-15.975 -277.53,-11.628 -283.672,-7.517 -288.161,-2.698 -283.672,-7.517 -277.53,-11.628 -270.915,-15.975 -265.481,-17.345 -259.906,-18.715 -247.101,-16.495 -234.579,-14.369 -226.263,-10.73 -220.263,-8.131 -214.167,-7.423 -207.6,-6.667 -204.528,-5.533 -199.52,-3.643 -196.685,3.209 -194.559,8.453 -194.559,13.367 -194.559,15.73 -194.464,28.156 -194.559,40.064 -195.504,43.607 -196.212,46.442 -201.079,61.468 -205.662,76.257 -205.946,81.455 -206.418,89.77 -204.434,97.283 -201.835,107.3 -195.504,112.167 -188.038,117.931 -180.856,118.31 -174.288,118.64 -169.044,114.53 -164.271,110.797 -161.814,106.875 -159.594,103.237 -159.594,99.882 -159.594,99.74 -159.594,99.551 -159.972,98.512 -160.255,97.189 L-161.011,89.959 -160.302,93.314 Q-159.641,97 -159.594,99.551 -157.987,104.182 -154.869,103.662 L-149.718,101.819 Q-144.426,99.599 -143.529,97.52 -142.631,95.44 -142.536,91.802 M-137.859,152.802 Q-134.882,153.558 -129.306,157.905 -123.258,162.583 -120.376,163.67 -116.927,164.993 -116.927,172.364 -116.927,177.183 -116.927,177.561 -116.738,180.065 -115.651,180.68 -112.344,182.57 -111.399,184.885 -110.123,187.909 -114.234,190.13 -114.942,190.508 -127.18,196.083 -136.063,200.147 -138.331,202.415 -139.465,203.549 -140.505,205.911 L-142.206,209.88 Q-144.568,214.321 -149.671,213.755 -155.814,213.093 -160.35,213.329 -164.46,213.566 -168.571,214.7 -178.446,217.393 -181.707,217.96 -191.535,219.614 -194.559,216.59 -204.812,206.478 -211.143,202.415 -213.6,200.855 -217.05,195.233 -220.263,189.941 -222.956,188.712 -226.074,187.295 -227.161,185.452 -228.153,183.042 -229.571,181.152 -231.319,178.79 -231.319,175.482 L-230.988,172.647 Q-228.815,166.788 -224.893,161.543 -223.145,159.228 -217.758,153.275 -215.16,150.392 -210.057,149.211 -204.056,147.746 -201.693,146.187 -198.48,144.061 -192.054,143.825 -184.636,143.588 -182.746,142.88 -180.242,141.982 -171.595,143.116 -162.523,144.344 -158.649,143.352 -154.254,142.265 -147.545,146.849 -139.371,152.424 -137.859,152.802 M-213.033,14.785 Q-221.945,10.328 -225.177,8.831 L-224.751,9.918 Q-224.468,11.903 -225.318,16.202 -226.452,22.109 -230.374,25.085 -235.194,28.818 -244.691,28.487 -253.716,28.156 -258.015,22.297 -260.661,18.565 -261.843,11.383 -273.082,15.738 -275.876,19.51 -273.082,15.738 -261.843,11.383 -261.68,11.353 -261.512,11.288 -255.039,8.879 -247.384,6.847 -240.769,5.099 -238.076,4.862 -234.721,4.579 -226.074,8.406 -225.696,8.574 -225.177,8.831 -221.945,10.328 -213.033,14.785 M-217.569,32.787 Q-214.923,29.338 -214.923,25.652 -214.923,29.338 -217.569,32.787 -220.026,35.953 -223.428,37.465 -220.026,35.953 -217.569,32.787 M-270.867,37.417 Q-266.426,41.103 -261.701,42.19 -266.426,41.103 -270.867,37.417 -275.498,33.543 -278.238,28.015 -275.498,33.543 -270.867,37.417 M-262.173,50.695 Q-257.259,54.995 -255.18,55.845 -249.794,58.019 -241.856,54.947 -249.794,58.019 -255.18,55.845 -257.259,54.995 -262.173,50.695 M-75.063,-163.442 Q-79.883,-164.86 -82.009,-166.23 -84.939,-168.025 -85.411,-170.955 -86.309,-176.247 -78.135,-181.208 -74.071,-183.712 -69.819,-185.13 -73.929,-185.602 -79.363,-185.366 -90.231,-184.894 -96.751,-181.35 -100.248,-179.413 -103.224,-179.885 -105.209,-180.169 -108.138,-181.917 -111.588,-183.996 -113.147,-184.516 -116.313,-185.602 -119.904,-184.657 -125.905,-183.098 -137.339,-188.485 -144.048,-191.65 -144.946,-192.028 -148.584,-193.446 -150.144,-192.69 -153.309,-191.083 -173.202,-191.981 -190.779,-192.784 -199.803,-194.107 -205.757,-195.005 -214.687,-202.423 L-222.483,-209.7 -221.822,-206.44 Q-221.113,-202.612 -221.019,-199.588 -220.641,-190.044 -226.263,-192.69 -231.886,-195.336 -243.793,-195.714 L-254.613,-195.525 -246.864,-188.437 Q-240.155,-181.586 -245.163,-182.767 -250.172,-183.949 -260.709,-179.696 L-270.206,-175.207 -268.032,-175.066 Q-265.528,-174.782 -263.874,-174.073 -258.582,-171.853 -263.591,-166.23 -274.222,-154.323 -279.609,-147.424 -291.138,-132.635 -300.918,-115.153 -308.856,-100.978 -311.502,-67.666 -313.156,-46.546 -312.495,-22.212 -312.4,-17.676 -312.258,-14.983 -304.226,-42.388 -302.336,-52.31 -300.777,-60.39 -299.028,-64.926 -296.902,-70.454 -292.886,-75.463 -287.216,-82.55 -268.788,-106.648 -265.623,-110.711 -258.11,-118.129 -253.905,-122.24 -245.636,-130.32 -240.817,-135.187 -235.335,-137.596 -232.028,-139.061 -224.373,-141.66 -221.397,-142.794 -220.121,-142.227 -219.081,-141.802 -218.514,-139.864 -218.184,-138.778 -217.38,-135.943 -216.388,-133.391 -214.451,-131.737 -212.892,-130.414 -205.048,-121.153 -199,-113.971 -194.559,-112.318 -190.731,-110.9 -176.037,-104.71 -162.192,-99.277 -157.231,-99.56 -151.939,-99.891 -144.663,-108.49 -139.087,-115.011 -135.969,-121.295 -133.748,-125.737 -129.165,-129.091 -124.345,-132.682 -119.904,-132.682 -116.36,-132.682 -111.635,-128.241 -104.5,-121.531 -101.949,-119.878 -95.995,-116.003 -82.623,-104.852 -69.393,-93.843 -65.094,-89.165 -61.267,-85.007 -50.446,-58.075 -40.713,-33.835 -37.216,-22.07 -33.436,-9.313 -24.459,23.762 -23.608,20.927 -22.805,17.1 -21.151,9.398 -21.151,4.39 -21.151,.279 -17.182,-11.628 -15.103,-17.818 -14.205,-21.456 -13.497,-24.574 -13.591,-25.85 -13.828,-28.449 -15.103,-36.34 -16.615,-45.317 -17.371,-51.838 -20.065,-75.037 -20.442,-78.817 -22.38,-97.623 -22.096,-103.34 -21.766,-109.766 -35.988,-130.178 -49.69,-149.881 -58.006,-156.307 -62.401,-159.709 -75.063,-163.442Z" test="JeanRenoFace" vector-effect="non-scaling-stroke" stroke-width="1"/>
        <path id="Layer4_0_1_STROKES" stroke="#FFF" stroke-width="1.89" stroke-linejoin="round" stroke-linecap="round" fill="none" d="M-312.258,-14.983 Q-312.4,-17.676 -312.495,-22.212 -313.156,-46.546 -311.502,-67.666 -308.856,-100.978 -300.918,-115.153 -291.138,-132.635 -279.609,-147.424 -274.222,-154.323 -263.591,-166.23 -258.582,-171.853 -263.874,-174.073 -265.528,-174.782 -268.032,-175.066 L-270.206,-175.207 -260.709,-179.696 Q-250.172,-183.949 -245.163,-182.767 -240.155,-181.586 -246.864,-188.437 L-254.613,-195.525 -243.793,-195.714 Q-231.886,-195.336 -226.263,-192.69 -220.641,-190.044 -221.019,-199.588 -221.113,-202.612 -221.822,-206.44 L-222.483,-209.7 -214.687,-202.423 Q-205.757,-195.005 -199.803,-194.107 -190.779,-192.784 -173.202,-191.981 -153.309,-191.083 -150.144,-192.69 -148.584,-193.446 -144.946,-192.028 -144.048,-191.65 -137.339,-188.485 -125.905,-183.098 -119.904,-184.657 -116.313,-185.602 -113.147,-184.516 -111.588,-183.996 -108.138,-181.917 -105.209,-180.169 -103.224,-179.885 -100.248,-179.413 -96.751,-181.35 -90.231,-184.894 -79.363,-185.366 -73.929,-185.602 -69.819,-185.13 -74.071,-183.712 -78.135,-181.208 -86.309,-176.247 -85.411,-170.955 -84.939,-168.025 -82.009,-166.23 -79.883,-164.86 -75.063,-163.442 -62.401,-159.709 -58.006,-156.307 -49.69,-149.881 -35.988,-130.178 -21.766,-109.766 -22.096,-103.34 -22.38,-97.623 -20.442,-78.817 -20.065,-75.037 -17.371,-51.838 -16.615,-45.317 -15.103,-36.34 -13.828,-28.449 -13.591,-25.85 -13.497,-24.574 -14.205,-21.456 -7.401,-25.803 -3.574,-23.771 -1.495,-22.684 2.994,-15.928 6.301,-10.966 5.356,-4.682 4.553,.563 .631,7.225 -5.086,16.958 -7.401,22.297 -12.032,32.787 -12.646,42.662 -13.166,51.356 -10.993,62.696 -9.055,72.855 -9.339,73.895 -10.52,77.958 -13.119,80.887 -17.041,85.235 -22.569,84.29 -27.861,83.392 -29.514,81.407 L-30.129,79.565 -33.058,86.132 Q-37.074,95.44 -42.414,109.332 -43.501,112.12 -45.674,120.247 -48.273,127.854 -53.187,131.965 -56.022,134.375 -59.896,144.675 -63.723,154.928 -68.071,158.378 -74.118,163.244 -78.04,169.434 -82.057,175.86 -84.608,184.979 -85.836,189.373 -94.436,197.217 -102.846,204.919 -103.697,208.888 -104.642,213.282 -107.902,216.4 -109.745,218.149 -113.289,221.315 -120.234,229.772 -126.235,233.977 -131.858,237.852 -140.505,240.592 -146.127,242.388 -156.144,242.53 -166.587,242.671 -171.406,243.995 -177.643,245.695 -189.645,243.428 -204.339,240.687 -204.528,240.687 -213.931,240.498 -220.168,237.191 -225.933,234.072 -232.878,226.04 -236.706,221.598 -243.462,218.054 -251.306,213.896 -255.464,210.164 -257.165,208.652 -262.835,201.375 -268.599,194.004 -270.206,192.492 -276.159,187.058 -278.191,185.121 -281.357,182.144 -282.916,179.687 -285.798,175.199 -290.051,158.472 -292.083,150.581 -298.131,138.013 -304.462,124.925 -304.698,124.216 -307.581,114.624 -309.518,106.355 -311.313,98.465 -311.786,93.74 -312.447,87.55 -312.684,70.398 -312.685,70.28 -312.684,70.162 -312.918,49.506 -312.589,15.304 L-312.258,-14.983 Q-304.226,-42.388 -302.336,-52.31 -300.777,-60.39 -299.028,-64.926 -296.902,-70.454 -292.886,-75.463 -287.216,-82.55 -268.788,-106.648 -265.623,-110.711 -258.11,-118.129 -253.905,-122.24 -245.636,-130.32 -240.817,-135.187 -235.335,-137.596 -232.028,-139.061 -224.373,-141.66 -221.397,-142.794 -220.121,-142.227 -219.081,-141.802 -218.514,-139.864 -218.184,-138.778 -217.38,-135.943 -216.388,-133.391 -214.451,-131.737 -212.892,-130.414 -205.048,-121.153 -199,-113.971 -194.559,-112.318 -190.731,-110.9 -176.037,-104.71 -162.192,-99.277 -157.231,-99.56 -151.939,-99.891 -144.663,-108.49 -139.087,-115.011 -135.969,-121.295 -133.748,-125.737 -129.165,-129.091 -124.345,-132.682 -119.904,-132.682 -116.36,-132.682 -111.635,-128.241 -104.5,-121.531 -101.949,-119.878 -95.995,-116.003 -82.623,-104.852 -69.393,-93.843 -65.094,-89.165 -61.267,-85.007 -50.446,-58.075 -40.713,-33.835 -37.216,-22.07 -33.436,-9.313 -24.459,23.762 -23.608,20.927 -22.805,17.1 -21.151,9.398 -21.151,4.39 -21.151,.279 -17.182,-11.628 -15.103,-17.818 -14.205,-21.456 M-145.891,6.28 Q-139.985,2.594 -127.038,-2.509 -113.667,-7.801 -107.146,-8.84 -102.657,-9.549 -89.002,-11.77 -76.859,-13.282 -72.654,-11.203 -68.685,-9.218 -64.621,-3.218 -59.471,4.343 -59.424,4.39 M-118.959,13.084 Q-117.872,31.086 -105.256,32.74 -97.46,33.779 -92.452,32.22 -87.916,30.803 -84.939,27.07 -82.576,24.14 -81.017,18.848 L-79.93,14.123 Q-88.104,8.634 -92.499,8.17 -102.61,7.13 -118.817,13.036 -118.888,13.062 -118.959,13.084 -124.133,15.006 -129.354,17.431 L-133.606,19.51 M-79.93,14.123 Q-78.965,14.773 -77.946,15.494 -68.165,22.439 -65.566,22.817 M-83.994,38.882 Q-79.458,38.41 -75.914,36.945 -71.236,34.96 -70.291,31.795 M-312.684,70.162 Q-309.093,73.422 -306.588,78.525 -305.029,81.596 -301.864,89.015 -300.446,92.039 -299.595,98.842 -298.981,104.276 -295.249,109.332 -291.988,113.774 -287.877,117.034 -284.192,119.916 -281.546,123.98 -280.554,125.491 -275.734,136.17 -272.899,142.501 -269.261,143.352 -268.221,143.588 -260.047,147.368 -254.472,149.967 -250.833,148.55 -248.943,147.794 -246.534,147.888 -245.163,147.935 -242.376,148.124 -236.989,148.266 -231.461,143.825 -226.641,139.95 -217.05,136.548 -208.734,133.618 -206.891,131.067 -205.615,129.319 -204.009,129.272 -202.922,129.272 -200.796,130.169 -195.598,132.437 -192.196,131.067 -188.652,129.649 -180.195,126.153 -172.587,123.554 -167.154,124.452 -163.374,125.066 -153.687,129.082 -144.804,132.721 -140.221,132.957 -136.299,133.193 -129.448,138.769 -123.447,143.683 -119.431,142.407 -116.974,141.651 -114.423,142.36 -113.383,142.643 -110.217,144.203 -105.067,146.612 -101.004,143.825 -98.594,142.171 -95.239,141.32 -93.302,140.848 -89.616,140.186 -83.143,138.674 -80.686,132.957 -77.521,125.586 -74.827,121.05 -72.228,116.608 -67.929,111.222 -66.322,109.19 -58.479,102.433 -52.951,97.661 -51.864,93.267 -50.777,88.967 -47.186,84.431 -42.65,78.62 -41.469,76.257 -39.815,72.95 -37.925,68.461 -36.271,65.484 -32.964,64.87 -29.467,64.255 -28.948,66.145 -28.711,66.949 -29.184,72.005 -29.467,75.265 -31.026,77.722 L-32.491,79.565 M-93.916,14.785 L-90.136,15.73 M-118.959,54.475 Q-114.753,57.64 -108.28,58.302 -101.854,58.964 -97.224,56.837 M-131.244,28.015 Q-127.842,35.717 -120.849,38.882 M-159.594,99.551 Q-157.987,104.182 -154.869,103.662 L-149.718,101.819 Q-144.426,99.599 -143.529,97.52 -142.631,95.44 -142.536,91.802 L-142.584,88.542 M-159.594,99.551 Q-159.641,97 -160.302,93.314 L-161.011,89.959 -160.255,97.189 Q-159.972,98.512 -159.594,99.551 -159.594,99.74 -159.594,99.882 -159.594,103.237 -161.814,106.875 -164.271,110.797 -169.044,114.53 -174.288,118.64 -180.856,118.31 -188.038,117.931 -195.504,112.167 -201.835,107.3 -204.434,97.283 -206.418,89.77 -205.946,81.455 -205.662,76.257 -201.079,61.468 -196.212,46.442 -195.504,43.607 -194.559,40.064 -194.464,28.156 -194.559,15.73 -194.559,13.367 -194.559,8.453 -196.685,3.209 -199.52,-3.643 -204.528,-5.533 -207.6,-6.667 -214.167,-7.423 -220.263,-8.131 -226.263,-10.73 -234.579,-14.369 -247.101,-16.495 -259.906,-18.715 -265.481,-17.345 -270.915,-15.975 -277.53,-11.628 -283.672,-7.517 -288.161,-2.698 M-216.341,168.867 Q-212.183,166.221 -206.607,164.615 -200.559,162.866 -195.504,163.197 -192.763,163.386 -186.573,165.607 -181.376,167.497 -176.604,166.977 -172.824,166.552 -165.736,164.048 -159.452,161.78 -154.869,161.78 -149.01,161.78 -143.859,164.142 -139.701,166.079 -136.441,169.34 M-230.988,172.647 Q-228.815,166.788 -224.893,161.543 -223.145,159.228 -217.758,153.275 -215.16,150.392 -210.057,149.211 -204.056,147.746 -201.693,146.187 -198.48,144.061 -192.054,143.825 -184.636,143.588 -182.746,142.88 -180.242,141.982 -171.595,143.116 -162.523,144.344 -158.649,143.352 -154.254,142.265 -147.545,146.849 -139.371,152.424 -137.859,152.802 -134.882,153.558 -129.306,157.905 -123.258,162.583 -120.376,163.67 -116.927,164.993 -116.927,172.364 -116.927,177.183 -116.927,177.561 -116.738,180.065 -115.651,180.68 -112.344,182.57 -111.399,184.885 -110.123,187.909 -114.234,190.13 -114.942,190.508 -127.18,196.083 -136.063,200.147 -138.331,202.415 -139.465,203.549 -140.505,205.911 L-142.206,209.88 Q-144.568,214.321 -149.671,213.755 -155.814,213.093 -160.35,213.329 -164.46,213.566 -168.571,214.7 -178.446,217.393 -181.707,217.96 -191.535,219.614 -194.559,216.59 -204.812,206.478 -211.143,202.415 -213.6,200.855 -217.05,195.233 -220.263,189.941 -222.956,188.712 -226.074,187.295 -227.161,185.452 -228.153,183.042 -229.571,181.152 -231.319,178.79 -231.319,175.482 L-230.988,172.647Z M-313.203,-22.543 Q-318.401,-29.489 -326.528,-29.819 -334.56,-30.103 -336.356,-23.96 -337.584,-19.755 -331.347,-6.194 -324.543,8.501 -324.543,13.367 -324.543,18.565 -324.307,36.803 -324.307,53.577 -325.489,59.2 -326.764,65.342 -324.496,67.469 -322.701,69.122 -318.874,68.225 M-213.033,14.785 Q-221.945,10.328 -225.153,8.831 L-224.751,9.918 Q-224.468,11.903 -225.318,16.202 -226.452,22.109 -230.374,25.085 -235.194,28.818 -244.691,28.487 -253.716,28.156 -258.015,22.297 -260.661,18.565 -261.843,11.406 -273.082,15.738 -275.876,19.51 M-225.153,8.831 Q-225.696,8.574 -226.074,8.406 -234.721,4.579 -238.076,4.862 -240.769,5.099 -247.384,6.847 -255.039,8.879 -261.512,11.288 -261.68,11.353 -261.843,11.406 M-237.131,11.005 L-234.768,11.477 M-223.428,37.465 Q-220.026,35.953 -217.569,32.787 -214.923,29.338 -214.923,25.652 M-278.238,28.015 Q-275.498,33.543 -270.867,37.417 -266.426,41.103 -261.701,42.19 M-262.173,50.695 Q-257.259,54.995 -255.18,55.845 -249.794,58.019 -241.856,54.947 M-182.274,152.802 Q-173.769,154.22 -169.516,154.22 M-181.801,175.01 Q-178.163,174.537 -177.123,174.584 -174.903,174.679 -171.406,175.955" test="JeanRenoFace"/>
      </g>
      <g id="TearAnimf0r1">
        <g id="TearGraphic">
          <path id="Layer5_0_1_STROKES" stroke="#0FF" stroke-width="1" stroke-linejoin="round" stroke-linecap="round" fill="none" d="M-240.255,28.096 Q-240.264,28.473 -240.355,28.733 -240.459,29.01 -240.769,29.452 -241.083,29.902 -240.901,30.493 -240.719,31.099 -240.214,31.117 -239.718,31.135 -239.49,30.694 -239.304,30.334 -239.34,29.829 -239.358,29.579 -239.713,29.065 -240.1,28.501 -240.214,27.95" test="TearGraphic" vector-effect="non-scaling-stroke"/>
        </g>
      </g>
    </g>
    <g id="BlackMaskRect">
      <path fill="#000" stroke="none" d="M823.45,613.6 L823.45,508.3 -23.6,508.3 -23.6,613.6 823.45,613.6Z" test="BlackMaskRect"/>
    </g>
  </g>
</svg>