<?xml version="1.0" encoding="utf-8"?>
<svg id="EdithAnim06" image-rendering="inherit" baseProfile="basic" version="1.1" x="0px" y="0px" width="800" height="600" xmlns="http://www.w3.org/2000/svg" xmlns:xlink="http://www.w3.org/1999/xlink">
  <g id="Jean-Renof6r1" overflow="visible">
    <g id="Bec-nom-Jean">
      <path id="Layer3_0_1_STROKES" stroke="#F90" stroke-width="1.793" stroke-linejoin="round" stroke-linecap="round" fill="none" d="M750.388,401.058 Q750.256,400.876 750.125,400.694 M705.983,433.655 Q704.404,441.428 701.608,450.089 698.893,458.494 696.691,462.692 M773.395,388.274 Q771.119,387.893 770.21,387.797 769.87,387.832 769.656,387.765" test="Bec nom Jean"/>
      <path id="Layer3_0_2_STROKES" stroke="#FFF" stroke-width="1.793" stroke-linejoin="round" stroke-linecap="round" fill="none" d="M779.66,188.565 Q780.57,184.293 781.553,182.345 782.961,179.638 785.565,178.666 788.691,177.527 792.616,179.55 796.813,181.751 797.102,185.645 M766.822,229.27 Q763.735,232.393 762.453,235.75 761.229,238.941 762.111,241.138 762.125,241.19 762.148,241.244 764.111,245.942 769.119,247.504 773.583,248.85 778.645,247.376 M710.385,235.853 Q716.618,234.838 720.214,236.711 723.135,238.186 725.687,242.504 726.581,244.004 726.932,245.288 L731.757,246.229 Q737.347,247.128 741.356,246.922 747.518,246.59 753.108,245.234 758.124,244.005 760.687,242.314 761.533,241.747 762.111,241.138 M714.762,204.954 Q716.384,195.691 722.505,193.984 726.101,192.993 729.957,195.087 733.338,196.894 735.6,200.182 M726.932,245.288 Q727.432,247.018 727.182,248.7 727.028,249.678 726.624,250.64 725.676,252.927 722.966,255.745" test="Bec nom Jean"/>
      <path id="Layer3_0_3_STROKES" stroke="#FEB7AE" stroke-width="1.793" stroke-linejoin="round" stroke-linecap="round" fill="none" d="M814.125,169.915 Q816.804,179.392 818.658,188.659 824.119,216.114 820.304,232.614 820.099,233.504 819.736,234.738 814.562,252.38 804.89,261.855 798.002,268.583 787.982,271.798 774.48,276.087 766.115,276.859 749.311,278.333 731.64,271.6 718.082,266.432 709.826,261.133 702.875,256.617 699.232,251.582 M755.313,279.266 Q756.063,281.379 756.466,283.853 M797.024,351.216 Q794.797,348.268 792.241,345.169 787.103,339.058 785.335,338.553 783.481,338.022 782.238,338.996 781.358,339.708 781.011,340.821 780.237,343.303 780.067,345.505 779.865,348.259 780.7,349.647 781.945,351.679 781.672,351.5 779.272,349.859 776.246,348.117 770.195,344.633 766.95,344.043 761.742,343.123 756.262,347.895 753.626,350.172 753.642,354.639 753.647,358.538 755.279,360.832 756.984,363.196 759.639,365.526 762.884,368.37 765.84,369.433 770.353,371.076 778.353,371.927 M753.51,383.669 L759.401,381.796 Q765.889,379.968 768.796,379.983 774.172,380.063 775.239,380.255 778.27,380.778 778.64,383.053 778.994,385.23 775.066,386.682 773.066,387.373 770.21,387.797 M773.395,388.274 Q778.686,389.831 781.962,393.482 L786.466,398.316 Q790.697,403.721 789.311,406.811 787.542,410.674 784.425,412.989 781.112,415.478 777.841,414.975 773.318,414.268 769.319,412.786 764.105,410.831 763.395,408.59 763.184,407.914 761.228,406.505 760.235,405.773 757.105,403.763 755.697,402.855 753.162,402.252 750.982,401.712 750.388,401.058 M770.733,281.023 L769.661,276.932" test="Bec nom Jean"/>
      <path id="Layer3_0_4_STROKES" stroke="#00F" stroke-width="1.793" stroke-linejoin="round" stroke-linecap="round" fill="none" d="M822.02,239.912 L828.241,269.655 847.858,259.008 Q846.727,254.804 845.456,246.987 842.898,231.396 842.298,213.597 841.654,195.033 832.354,173.957 827.845,163.722 815.555,142.746 808.573,130.8 791.917,122.317 777.323,114.9 766.044,114.623 746.239,114.128 736.138,115.345 713.726,117.935 700.351,127.993 681.538,142.085 671.79,154.214 658.886,170.289 658.793,185.946 658.703,203.248 668.313,238.839 677.952,274.485 684.76,281.869 690.482,288.068 705.368,293.04 712.805,295.548 719.083,296.801 L699.232,251.582 Q696.887,248.409 695.519,244.366 693.429,238.266 688.112,217.822 682.763,197.18 683.405,197.38 L706.786,188.518 Q732.877,178.95 746.646,175.308 760.415,171.666 787.487,166.632 801.008,164.086 811.807,162.289 L814.125,169.915" test="Bec nom Jean"/>
      <path id="Layer3_0_5_STROKES" stroke="#0FF" stroke-width="1.793" stroke-linejoin="round" stroke-linecap="round" fill="none" d="M793.895,355.829 L791.208,358.419 Q788.356,361.991 787.441,366.731 786.516,371.656 786.952,372.214 787.418,372.829 791.003,374.887 794.289,377.602 809.638,383.048 823.974,388.13 831.519,389.685 839.763,391.411 848.106,392.369 858.211,393.549 861.369,392.608 864.626,391.652 872.213,385.095 879.41,378.886 880.764,376.35 882.052,374.028 881.947,367.89 881.85,361.426 880.191,354.098 878.7,347.434 870.799,337.08 864.922,329.423 858.751,323.459 853.723,318.65 842.678,309.945 830.624,300.409 826.777,298.739 820.221,296.271 816.478,294.869 809.622,292.308 806.473,290.058 803.064,287.586 798.281,285.906 796.253,285.179 789.282,283.287 L781.726,281.165 781.837,283.97 Q781.713,287.078 780.874,288.413 779.952,289.863 776.89,290.646 775.253,291.075 770.445,291.735 764.604,292.543 761.346,292.748 755.511,293.088 753.715,291.918 751.733,290.595 750.135,288.641 748.596,286.799 747.908,284.94 M704.785,342.64 L704.125,359.811 M750.388,401.058 Q750.401,401.015 750.444,401.028 753.538,385.086 753.51,383.669 753.504,382.634 744.494,378.696 735.741,374.839 728.765,372.663 726.282,371.888 708.241,364.382 693.231,358.151 689.2,357.974 685.17,357.797 686.741,356.22 689.455,353.544 689.385,352.865 689.304,351.619 698.985,344.823 710.751,336.611 714.381,332.953 721.893,325.434 723.55,323.133 M741.824,285.626 Q737.794,286.952 733.44,288.412 724.776,291.345 723.373,292.081 M699.684,306.296 Q687.728,315.716 675.444,325.739 650.875,345.785 649.318,348.821 647.365,352.673 654.099,362.1 661.082,371.934 669.846,376.358 677.794,380.387 705.762,389.345 729.248,396.859 738.782,399.269 743.955,400.601 747.705,400.925 749.566,401.13 750.388,401.058 M706.108,392.6 L706.855,409.177 Q707.301,427.021 705.983,433.655 L724.896,441.526 Q745.174,449.542 751.968,450.346 763.111,451.661 775.379,451.778 791.761,451.956 800.633,449.558 807.292,447.784 817.288,445.548 824.26,443.824 825.65,441.628 827.467,438.813 829.005,433.282 830.702,427.236 831.135,421.031 831.525,415.564 831.837,403.122 L832.055,391.731 M830.533,345.419 L832.813,356.932 M811.195,322.95 L830.372,339.31 Q849.558,356.096 849.783,358.233 850.482,365.026 847.514,365.509 846.326,365.702 837.071,362.252 827.229,358.571 824.402,358.3 821.446,357.989 816.276,356.799 810.592,355.448 808.203,355.126 805.047,354.705 802.348,355.225 799.706,355.716 799.351,355.652" test="Bec nom Jean"/>
    </g>
    <g id="Jean-Reno-body">
      <path id="Layer2_0_1_STROKES" stroke="#FEB7AE" stroke-width="1.89" stroke-linejoin="round" stroke-linecap="round" fill="none" d="M-126.556,110.117 Q-120.413,116.26 -82.093,122.402 -56.342,126.56 -29.173,129.017 -21.897,129.679 20.676,138.373 57.011,145.744 63.437,144.137 73.218,141.68 80.683,138.703 90.18,134.876 99.347,129.017 108.466,123.158 120.657,121.363 130.863,119.803 139.084,121.457 144.99,122.638 150.66,124.528 153.495,125.473 155.149,126.182 153.495,126.655 151.605,127.647 147.92,129.679 147.022,132.466 146.124,135.254 149.196,138.089 150.755,139.459 152.456,140.31 150.566,141.066 148.865,142.436 145.416,145.177 146.313,148.106 147.211,151.083 152.881,152.359 155.716,153.02 158.362,153.067 L159.402,159.115 Q160.866,165.447 163.087,166.77 165.308,168.093 170.694,165.541 173.388,164.313 175.608,162.754 L177.404,166.77 Q179.861,170.692 183.404,170.077 186.948,169.51 189.925,166.439 191.39,164.88 192.146,163.462 L195.595,164.88 Q199.281,166.061 200.462,164.88 201.643,163.699 202.588,160.391 L203.297,157.32 205.565,170.266 Q207.644,184.063 206.604,188.032 206.51,188.363 205.518,193.23 204.809,196.679 203.911,198.947 201.265,205.704 194.508,209.295 M126.704,163.935 Q134.926,161.95 146.171,163.888 162.567,166.675 171.12,177.637 174.427,181.89 181.326,190.631 187.232,198.333 190.539,204.523 199.47,221.249 195.926,238.354 192.429,255.175 183.074,270.625 178.774,277.713 170.411,287.966 168.048,290.848 159.26,297.747 148.818,305.921 136.107,314.143 100.622,337.153 68.351,347.076 L52.617,351.919 Q55.256,355.22 57.389,365.881 59.562,376.749 58.665,382.75 57.908,387.853 60.602,391.255 61.31,392.2 64.807,394.798 67.595,396.877 71.8,403.492 77.234,411.997 76.147,417.006 75.013,422.44 70.099,427.684 65.658,432.362 61.736,433.543 58.806,434.441 53.231,434.536 L48.27,434.488 54.695,435.811 Q61.925,438.126 66.225,442.993 71.8,449.325 74.068,453.766 76.714,458.869 75.202,461.893 74.163,464.02 71.375,470.446 67.926,476.399 61.5,479.376 55.499,482.164 42.411,479.092 35.843,477.344 33.055,476.635 28.33,475.454 26.535,475.596 24.172,475.785 5.603,480.51 -13.203,485.329 -19.77,485.991 -26.669,486.7 -34.938,483.203 -38.812,481.408 -40.371,480.793 -42.923,479.707 -44.104,479.848 -47.884,480.037 -49.821,480.274 -53.176,480.746 -55.681,482.683 -58.515,484.857 -62.39,483.912 -66.075,483.014 -67.02,480.557 -68.107,477.769 -68.013,476.116 -67.871,473.8 -65.603,472.052 -63.524,470.446 -60.216,469.879 -58.563,469.642 -57.334,469.69 -58.232,468.65 -58.846,467.28 -60.075,464.539 -58.752,463.075 -57.287,461.468 -53.46,460.665 -50.247,460.003 -47.648,460.24 -46.514,460.334 -49.065,458.539 -52.231,456.318 -51.192,455.278 -49.963,454.05 -46.797,454.144 -45.333,454.192 -41.742,454.806 -40.513,454.995 -38.529,456.412 -37.111,457.452 -36.072,456.932 -32.764,455.278 -28.323,453.199 -21.519,450.034 -18.825,449.136 -14.573,447.718 -10.32,446.773 M-114.554,111.204 Q-110.396,109.219 -95.512,100.336 -81.526,92.446 -76.518,92.304 -63.524,91.926 -59.508,92.304 -46.703,93.485 -34.89,99.391 -9.564,112.054 -5.926,113.944 10.281,122.544 17.321,128.214 24.125,133.695 29.795,136.955 32.63,138.609 34.095,139.129 M-137.234,175.228 Q-137.234,171.164 -136.242,166.156 -134.21,156.091 -129.201,151.366 -118.665,141.444 -105.104,143.57 -99.906,144.373 -89.748,150.61 -80.392,156.328 -77.935,159.399 -75.998,161.809 -71.178,162.706 -67.493,163.415 -62.579,163.179 -59.933,163.084 -45.994,162.092 -32.575,161.336 -28.748,162.234 -22.417,163.699 -7.769,168.66 9.005,174.377 12.123,176.881 14.486,178.771 22.518,185.764 30.031,192.001 32.913,193.183 36.221,194.506 36.741,195.403 37.071,196.018 36.457,198.191 36.221,199.042 36.741,205.326 37.26,212.177 36.457,217.564 35.465,224.226 30.362,241.661 25.542,258.104 22.991,264.341 20.912,269.491 14.344,280.926 8.343,291.368 6.217,294.109 4.752,296.046 1.445,299.968 L-1.579,303.559 2.957,304.315 Q8.06,305.307 10.706,306.63 12.832,307.717 17.463,309.89 21.337,312.158 23.463,315.607 26.251,320.143 26.913,322.411 27.763,325.388 26.771,328.837 25.779,332.239 23.416,335.878 21.479,338.854 19.211,341.122 16.139,344.194 14.25,345.706 10.895,348.399 8.58,348.682 5.508,349.108 4.091,348.966 1.917,348.73 -1.815,347.265 -4.839,346.084 -6.966,343.627 -9.942,340.225 -11.974,338.76 -14.809,336.681 -16.274,333.751 -18.117,329.971 -20.007,327.892 -23.125,324.443 -25.157,323.215 -26.622,322.364 -29.457,321.75 -31.725,321.277 -32.103,321.372 -33.473,321.986 -35.835,322.931 -40.088,325.105 -41.694,325.719 -44.293,326.664 -45.758,324.585 -48.073,321.372 -48.451,320.285 -49.207,318.159 -48.121,315.135 -46.797,311.544 -46.278,310.835 -45.474,309.843 -42.451,308.52 -37.914,306.488 -31.819,308.52 -31.158,308.756 -31.819,305.307 -33.52,296.046 -33.567,295.81 -36.213,279.083 -33.709,265.759 -31.394,253.615 -25.251,235.046 -20.29,220.068 -20.715,218.509 -21.235,216.571 -35.079,217.138 -50.483,217.8 -52.845,216.855 -55.491,215.815 -70.328,211.799 -84.172,208.019 -85.023,207.405 M-157.788,185.67 Q-144.558,198.002 -137.139,203.247 -117.389,217.28 -93.291,224.179 -69.666,230.983 -47.412,238.306 -36.308,241.945 -29.929,244.26 M-.918,441.576 Q-1.91,437.418 -19.818,405.099 -38.056,372.118 -39.427,367.866 -42.167,359.266 -44.293,349.108 -46.892,336.728 -45.805,334.035 -44.718,331.436 -41.742,328.743 -39.804,326.947 -37.537,325.53 M-10.604,436.851 Q-11.88,437.796 -13.864,438.694 -17.739,440.536 -20,440.395 -24.354,440.253 -30.543,437.796 -35.032,436 -37.773,434.488 -38.765,433.921 -39.521,431.795 -40.183,430 -41.317,430 -42.451,430 -44.907,432.126 -47.695,434.536 -48.877,434.961 -50.672,435.622 -54.263,434.677 -57.429,433.827 -59.271,432.598 -60.736,431.653 -61.114,429.48 -61.35,427.968 -61.162,424.802 -61.02,422.487 -59.697,421.117 -59.649,421.022 -56.673,418.66 -55.208,417.478 -53.649,417.006 -52.893,416.77 -52.42,416.77 M-44.151,417.242 Q-44.341,416.439 -44.104,415.399 -43.726,413.32 -41.789,412.281 -39.852,411.241 -36.544,411.572 -34.701,411.761 -31.63,412.281 -30.26,412.423 -27.708,413.557 -25.299,414.643 -24.543,414.643 M-10.32,454.097 Q-17.455,457.83 -25.251,461.61 -40.749,469.264 -43.868,469.69 -46.987,470.115 -50.341,469.973 L-53.082,469.69 M52.617,351.919 L52.569,351.943 Q34.095,357.613 33.669,357.613 33.575,357.613 37.922,373.819 42.174,391.869 41.418,400.468 L39.623,420.219 Q38.253,440.631 40.473,444.175" test="Jean Reno body"/>
    </g>
    <g id="BlackMaskRect">
      <path fill="#000" stroke="none" d="M823.45,613.6 L823.45,508.3 -23.6,508.3 -23.6,613.6 823.45,613.6Z" test="BlackMaskRect"/>
    </g>
  </g>
</svg>