<?xml version="1.0" encoding="utf-8"?>
<svg id="EdithAnim06" image-rendering="inherit" baseProfile="basic" version="1.1" x="0px" y="0px" width="800" height="600" xmlns="http://www.w3.org/2000/svg" xmlns:xlink="http://www.w3.org/1999/xlink">
  <g id="Jean-Renof61r1" overflow="visible">
    <g id="Bec-nom-Jean">
      <path id="Layer3_0_1_STROKES" stroke="#F90" stroke-width="1.796" stroke-linejoin="round" stroke-linecap="round" fill="none" d="M714.25,415.291 Q714.07,415.157 713.891,415.022 M681.518,459.698 Q682.326,467.6 682.236,476.715 682.146,485.56 681.293,490.23 M732.434,396.209 Q730.144,396.523 729.246,396.703 728.932,396.838 728.708,396.838" test="Bec nom Jean"/>
      <path id="Layer3_0_2_STROKES" stroke="#FFF" stroke-width="1.796" stroke-linejoin="round" stroke-linecap="round" fill="none" d="M678.869,203.408 Q678.465,199.053 678.824,196.898 679.363,193.889 681.563,192.183 684.212,190.163 688.567,190.926 693.237,191.779 694.673,195.416 M678.734,246.153 Q676.713,250.059 676.489,253.651 676.271,257.067 677.769,258.905 677.797,258.95 677.836,258.994 681.114,262.901 686.367,262.901 691.037,262.856 695.437,259.937 M626.74,269.277 Q632.397,266.448 636.393,267.166 639.626,267.705 643.353,271.073 644.655,272.24 645.373,273.362 L650.267,272.824 Q655.88,272.016 659.651,270.624 665.444,268.468 670.383,265.505 674.812,262.834 676.758,260.454 677.398,259.659 677.769,258.905 M621.711,238.43 Q620.499,229.091 625.842,225.634 628.985,223.613 633.295,224.466 637.067,225.185 640.21,227.654 M645.373,273.362 Q646.367,274.868 646.63,276.55 646.775,277.531 646.675,278.571 646.451,281.04 644.7,284.543" test="Bec nom Jean"/>
      <path id="Layer3_0_3_STROKES" stroke="#FEB7AE" stroke-width="1.796" stroke-linejoin="round" stroke-linecap="round" fill="none" d="M706.258,175.301 Q711.646,183.562 716.181,191.869 729.589,216.489 730.863,233.401 730.932,234.313 730.953,235.602 731.267,254.011 724.846,265.954 720.266,274.44 711.646,280.502 700.017,288.629 692.249,291.861 676.624,298.282 657.721,297.115 643.218,296.217 633.744,293.612 625.752,291.367 620.768,287.641 M682.64,297.384 Q683.987,299.18 685.11,301.425 M743.974,353.734 Q740.965,351.578 737.598,349.378 730.863,345.068 729.022,345.113 727.091,345.158 726.193,346.46 725.565,347.403 725.565,348.57 725.565,351.174 726.059,353.329 726.687,356.023 727.899,357.101 729.695,358.672 729.381,358.583 726.597,357.73 723.185,356.966 716.36,355.44 713.082,355.844 707.829,356.517 704.013,362.713 702.172,365.677 703.519,369.942 704.686,373.669 706.931,375.375 709.266,377.126 712.499,378.563 716.45,380.314 719.593,380.449 724.397,380.674 732.3,379.102 M712.05,397.736 L717.123,394.188 Q722.781,390.507 725.565,389.654 730.728,388.127 731.806,387.992 734.859,387.588 735.892,389.654 736.879,391.629 733.557,394.188 731.851,395.446 729.246,396.703 M732.434,396.209 Q737.957,396.119 742.178,398.633 L747.925,401.911 Q753.582,405.818 753.178,409.185 752.639,413.406 750.349,416.549 747.925,419.916 744.647,420.41 740.112,421.083 735.847,420.859 730.279,420.545 728.932,418.614 728.528,418.03 726.238,417.267 725.071,416.863 721.479,415.875 719.862,415.426 717.258,415.606 715.013,415.74 714.25,415.291 M697.906,294.465 L695.661,290.874" test="Bec nom Jean"/>
      <path id="Layer3_0_4_STROKES" stroke="#00F" stroke-width="1.796" stroke-linejoin="round" stroke-linecap="round" fill="none" d="M734.679,239.867 L749.496,266.448 765.077,250.419 Q762.742,246.737 759.195,239.643 752.101,225.499 746.219,208.662 740.067,191.106 724.891,173.729 717.528,165.288 699.523,148.9 689.285,139.56 670.832,136.417 654.668,133.679 643.802,136.777 624.719,142.21 615.425,146.385 594.771,155.545 584.983,169.15 571.198,188.232 565.496,202.735 557.953,221.952 562.533,236.949 567.606,253.517 587.407,284.677 607.253,315.883 615.964,320.912 623.282,325.132 638.997,325.446 646.855,325.626 653.231,324.953 L620.768,287.641 Q617.58,285.306 615.066,281.849 611.249,276.64 600.069,258.68 588.799,240.541 589.473,240.541 L609.184,225.095 Q631.275,208.168 643.353,200.58 655.431,192.991 679.812,180.105 691.979,173.64 701.768,168.701 L706.258,175.301" test="Bec nom Jean"/>
      <path id="Layer3_0_5_STROKES" stroke="#0FF" stroke-width="1.796" stroke-linejoin="round" stroke-linecap="round" fill="none" d="M742.357,359.077 L740.561,362.354 Q738.9,366.62 739.439,371.424 740.022,376.408 740.606,376.812 741.235,377.261 745.276,378.159 749.227,379.775 765.526,380.404 780.747,380.988 788.425,380.225 796.821,379.416 805.083,377.845 815.095,375.959 817.834,374.118 820.663,372.232 825.961,363.701 830.99,355.619 831.529,352.791 832.067,350.186 830.137,344.349 828.116,338.198 824.345,331.688 820.932,325.761 810.291,318.218 802.389,312.65 794.711,308.789 788.47,305.691 775.314,300.662 760.946,295.139 756.77,294.69 749.766,294.286 745.77,294.061 738.451,293.657 734.769,292.445 730.773,291.098 725.699,290.918 723.544,290.829 716.315,291.098 L708.458,291.323 709.401,293.972 Q710.209,296.98 709.805,298.506 709.356,300.168 706.662,301.829 705.225,302.727 700.825,304.792 695.482,307.307 692.428,308.474 686.951,310.54 684.885,309.956 682.595,309.282 680.485,307.891 678.465,306.588 677.252,305.017 M653.231,373.04 L657.721,389.654 M714.25,415.291 Q714.25,415.246 714.295,415.246 712.499,399.083 712.05,397.736 711.735,396.748 701.947,395.67 692.428,394.593 685.11,394.593 682.506,394.593 663.019,392.797 646.81,391.315 642.904,392.347 638.997,393.38 640.03,391.405 641.826,388.037 641.557,387.409 641.108,386.241 648.337,376.857 657.137,365.497 659.517,360.917 664.456,351.489 665.354,348.795 M671.64,307.487 Q668.182,309.956 664.456,312.65 657.047,318.038 655.925,319.16 M637.516,339.814 Q628.895,352.386 620.139,365.632 602.628,392.123 602.045,395.491 601.326,399.756 610.576,406.76 620.184,414.079 629.883,415.696 638.683,417.177 668.093,417.402 692.788,417.581 702.621,417.042 707.964,416.773 711.646,415.965 713.487,415.606 714.25,415.291 M669.395,420.41 L675.052,436.035 Q680.799,452.963 681.518,459.698 L701.947,461.583 Q723.724,463.2 730.459,461.943 741.504,459.877 753.268,456.33 768.983,451.616 776.751,446.677 782.588,442.995 791.478,437.876 797.629,434.149 798.303,431.635 799.201,428.402 799.021,422.655 798.841,416.369 797.405,410.308 796.147,404.964 792.735,392.976 L789.547,382.02 M774.281,338.198 L779.894,348.525 M749.092,322.483 L772.306,332.406 Q795.654,342.733 796.507,344.709 799.201,350.995 796.507,352.342 795.429,352.88 785.551,352.342 775.044,351.758 772.261,352.342 769.342,352.925 764.044,353.329 758.207,353.734 755.827,354.138 752.684,354.676 750.26,355.979 747.88,357.236 747.521,357.281" test="Bec nom Jean"/>
    </g>
    <g id="Jean-Reno-body">
      <path id="Layer2_0_1_STROKES" stroke="#FEB7AE" stroke-width="1.89" stroke-linejoin="round" stroke-linecap="round" fill="none" d="M80.045,137.267 Q86.187,143.41 124.507,149.552 150.258,153.71 177.427,156.167 184.703,156.829 227.276,165.523 263.611,172.894 270.037,171.287 279.818,168.83 287.283,165.853 296.78,162.026 305.947,156.167 315.066,150.308 327.257,148.513 337.463,146.953 345.684,148.607 351.59,149.788 357.26,151.678 360.095,152.623 361.749,153.332 360.095,153.805 358.205,154.797 354.52,156.829 353.622,159.616 352.724,162.404 355.796,165.239 357.355,166.609 359.056,167.46 357.166,168.216 355.465,169.586 352.016,172.327 352.913,175.256 353.811,178.233 359.481,179.509 362.316,180.17 364.962,180.217 L366.001,186.265 Q367.466,192.597 369.687,193.92 371.908,195.243 377.294,192.691 379.988,191.463 382.208,189.904 L384.004,193.92 Q386.461,197.842 390.005,197.227 393.548,196.66 396.525,193.589 397.99,192.03 398.746,190.612 L402.195,192.03 Q405.881,193.211 407.062,192.03 408.243,190.849 409.188,187.541 L409.897,184.47 412.165,197.416 Q414.244,211.213 413.204,215.182 413.11,215.513 412.118,220.38 411.409,223.829 410.511,226.097 407.865,232.854 401.108,236.445 M333.304,191.085 Q341.526,189.1 352.772,191.038 369.167,193.825 377.72,204.787 381.027,209.04 387.926,217.781 393.832,225.483 397.139,231.673 406.07,248.399 402.526,265.504 399.029,282.325 389.674,297.775 385.374,304.863 377.011,315.116 374.648,317.998 365.86,324.897 355.418,333.071 342.707,341.293 307.222,364.303 274.951,374.226 L259.217,379.069 Q261.856,382.37 263.989,393.031 266.162,403.899 265.265,409.9 264.509,415.003 267.202,418.405 267.911,419.35 271.407,421.948 274.195,424.027 278.4,430.642 283.834,439.147 282.747,444.156 281.613,449.59 276.699,454.834 272.258,459.512 268.336,460.693 265.406,461.591 259.831,461.686 L254.87,461.638 261.296,462.961 Q268.525,465.276 272.825,470.143 278.4,476.475 280.668,480.916 283.314,486.019 281.802,489.043 280.763,491.17 277.975,497.596 274.526,503.549 268.1,506.526 262.099,509.314 249.011,506.242 242.443,504.494 239.655,503.785 234.93,502.604 233.135,502.746 230.772,502.935 212.203,507.66 193.397,512.479 186.83,513.141 179.931,513.85 171.662,510.353 167.788,508.558 166.229,507.943 163.677,506.857 162.496,506.998 158.716,507.187 156.779,507.424 153.424,507.896 150.92,509.833 148.085,512.007 144.21,511.062 140.525,510.164 139.58,507.707 138.493,504.919 138.587,503.266 138.729,500.95 140.997,499.202 143.076,497.596 146.384,497.029 148.037,496.792 149.266,496.84 148.368,495.8 147.754,494.43 146.525,491.689 147.848,490.225 149.313,488.618 153.14,487.815 156.353,487.153 158.952,487.39 160.086,487.484 157.535,485.689 154.369,483.468 155.408,482.428 156.637,481.2 159.803,481.294 161.267,481.342 164.858,481.956 166.087,482.145 168.071,483.562 169.489,484.602 170.528,484.082 173.836,482.428 178.277,480.349 185.081,477.184 187.775,476.286 192.027,474.868 196.28,473.923 M92.046,138.354 Q96.204,136.369 111.088,127.486 125.074,119.596 130.082,119.454 143.076,119.076 147.092,119.454 159.897,120.635 171.71,126.541 197.036,139.204 200.674,141.094 216.881,149.694 223.921,155.364 230.725,160.845 236.395,164.105 239.23,165.759 240.695,166.279 M69.366,202.378 Q69.366,198.314 70.358,193.306 72.39,183.241 77.399,178.516 87.935,168.594 101.496,170.72 106.694,171.523 116.852,177.76 126.208,183.478 128.665,186.549 130.602,188.959 135.422,189.856 139.107,190.565 144.021,190.329 146.667,190.234 160.606,189.242 174.025,188.486 177.852,189.384 184.184,190.849 198.831,195.81 215.605,201.527 218.723,204.031 221.086,205.921 229.118,212.914 236.631,219.151 239.513,220.333 242.821,221.656 243.341,222.553 243.671,223.168 243.057,225.341 242.821,226.192 243.341,232.476 243.86,239.327 243.057,244.714 242.065,251.376 236.962,268.811 232.142,285.254 229.591,291.491 227.512,296.641 220.944,308.076 214.943,318.518 212.817,321.259 211.352,323.196 208.045,327.118 L205.021,330.709 209.557,331.465 Q214.66,332.457 217.306,333.78 219.432,334.867 224.063,337.04 227.937,339.308 230.063,342.757 232.851,347.293 233.513,349.561 234.363,352.538 233.371,355.987 232.379,359.389 230.016,363.028 228.079,366.004 225.811,368.272 222.74,371.344 220.85,372.856 217.495,375.549 215.18,375.832 212.108,376.258 210.691,376.116 208.517,375.88 204.785,374.415 201.761,373.234 199.634,370.777 196.658,367.375 194.626,365.91 191.791,363.831 190.326,360.901 188.483,357.121 186.593,355.042 183.475,351.593 181.443,350.365 179.978,349.514 177.143,348.9 174.875,348.427 174.497,348.522 173.127,349.136 170.765,350.081 166.512,352.255 164.906,352.869 162.307,353.814 160.842,351.735 158.527,348.522 158.149,347.435 157.393,345.309 158.48,342.285 159.803,338.694 160.322,337.985 161.126,336.993 164.15,335.67 168.686,333.638 174.781,335.67 175.442,335.906 174.781,332.457 173.08,323.196 173.033,322.96 170.387,306.233 172.891,292.909 175.206,280.765 181.349,262.196 186.31,247.218 185.885,245.659 185.365,243.721 171.521,244.288 156.117,244.95 153.755,244.005 151.109,242.965 136.272,238.949 122.428,235.169 121.577,234.555 M48.812,212.82 Q62.042,225.152 69.461,230.397 89.211,244.43 113.309,251.329 136.934,258.133 159.188,265.456 170.292,269.095 176.671,271.41 M205.682,468.726 Q204.69,464.568 186.782,432.249 168.544,399.268 167.174,395.016 164.433,386.416 162.307,376.258 159.708,363.878 160.795,361.185 161.882,358.586 164.858,355.893 166.796,354.097 169.064,352.68 M195.996,464.001 Q194.72,464.946 192.736,465.844 188.861,467.686 185.601,467.545 182.246,467.403 176.057,464.946 171.568,463.15 168.827,461.638 167.835,461.071 167.079,458.945 166.418,457.15 165.284,457.15 164.15,457.15 161.693,459.276 158.905,461.686 157.724,462.111 155.928,462.772 152.337,461.827 149.171,460.977 147.329,459.748 145.864,458.803 145.486,456.63 145.25,455.118 145.439,451.952 145.58,449.637 146.903,448.266 146.951,448.172 149.927,445.809 151.392,444.628 152.951,444.156 153.707,443.92 154.18,443.92 M162.449,444.392 Q162.26,443.589 162.496,442.549 162.874,440.47 164.811,439.431 166.748,438.391 170.056,438.722 171.899,438.911 174.97,439.431 176.34,439.573 178.892,440.707 181.301,441.793 182.057,441.793 M196.28,481.247 Q189.145,484.98 181.349,488.76 165.851,496.414 162.732,496.84 159.614,497.265 156.259,497.123 L153.518,496.84 M259.217,379.069 L259.169,379.093 Q240.695,384.763 240.269,384.763 240.175,384.763 244.522,400.969 248.774,419.019 248.018,427.618 L246.223,447.369 Q244.853,467.781 247.073,471.325" test="Jean Reno body"/>
    </g>
    <g id="Jean-Renof0r1">
      <g id="JeanRenoFace">
        <path fill="#000" stroke="none" d="M-72.865,-105.192 Q-77.448,-101.837 -79.669,-97.395 -82.787,-91.111 -88.363,-84.591 -95.639,-75.991 -100.931,-75.66 -105.892,-75.377 -119.737,-80.811 -134.431,-87 -138.259,-88.418 -142.7,-90.072 -148.748,-97.254 -156.592,-106.515 -158.151,-107.838 -160.088,-109.491 -161.08,-112.043 -161.884,-114.878 -162.214,-115.965 -162.781,-117.902 -163.821,-118.327 -165.097,-118.894 -168.073,-117.76 -175.728,-115.161 -179.035,-113.697 -184.516,-111.287 -189.336,-106.42 -197.605,-98.34 -201.81,-94.23 -209.323,-86.811 -212.488,-82.748 -230.916,-58.65 -236.586,-51.563 -240.602,-46.554 -242.728,-41.026 -244.477,-36.49 -246.036,-28.41 -247.926,-18.488 -255.959,8.917 L-256.289,39.204 Q-256.618,73.406 -256.384,94.062 -252.793,97.322 -250.288,102.425 -248.729,105.496 -245.564,112.914 -244.146,115.938 -243.295,122.742 -242.681,128.176 -238.949,133.232 -235.688,137.674 -231.577,140.934 -227.892,143.816 -225.246,147.88 -224.254,149.391 -219.434,160.07 -216.599,166.401 -212.961,167.252 -211.921,167.488 -203.747,171.268 -198.172,173.867 -194.533,172.45 -192.643,171.693 -190.234,171.788 -188.863,171.835 -186.076,172.024 -180.689,172.166 -175.161,167.724 -170.341,163.85 -160.75,160.448 -152.434,157.518 -150.591,154.967 -149.315,153.219 -147.709,153.171 -146.622,153.171 -144.496,154.069 -139.298,156.337 -135.896,154.967 -132.352,153.549 -123.895,150.053 -116.288,147.454 -110.854,148.352 -107.074,148.966 -97.387,152.982 -88.504,156.621 -83.921,156.857 -80,157.093 -73.148,162.669 -67.148,167.583 -63.131,166.307 -60.674,165.551 -58.123,166.26 -57.083,166.543 -53.918,168.102 -48.767,170.512 -44.704,167.724 -42.294,166.071 -38.939,165.22 -37.002,164.748 -33.317,164.086 -26.843,162.574 -24.386,156.857 -21.221,149.486 -18.527,144.95 -15.928,140.508 -11.629,135.122 -10.022,133.09 -2.179,126.333 3.349,121.561 4.436,117.167 5.523,112.867 9.114,108.331 13.65,102.52 14.831,100.157 16.485,96.849 18.375,92.361 20.029,89.384 23.336,88.77 26.833,88.155 27.352,90.045 27.589,90.849 27.116,95.904 26.833,99.165 25.274,101.622 L23.809,103.464 25.274,101.622 Q26.833,99.165 27.116,95.904 27.589,90.849 27.352,90.045 26.833,88.155 23.336,88.77 20.029,89.384 18.375,92.361 16.485,96.849 14.831,100.157 13.65,102.52 9.114,108.331 5.523,112.867 4.436,117.167 3.349,121.561 -2.179,126.333 -10.022,133.09 -11.629,135.122 -15.928,140.508 -18.527,144.95 -21.221,149.486 -24.386,156.857 -26.843,162.574 -33.317,164.086 -37.002,164.748 -38.939,165.22 -42.294,166.071 -44.704,167.724 -48.767,170.512 -53.918,168.102 -57.083,166.543 -58.123,166.26 -60.674,165.551 -63.131,166.307 -67.148,167.583 -73.148,162.669 -80,157.093 -83.921,156.857 -88.504,156.621 -97.387,152.982 -107.074,148.966 -110.854,148.352 -116.288,147.454 -123.895,150.053 -132.352,153.549 -135.896,154.967 -139.298,156.337 -144.496,154.069 -146.622,153.171 -147.709,153.171 -149.315,153.219 -150.591,154.967 -152.434,157.518 -160.75,160.448 -170.341,163.85 -175.161,167.724 -180.689,172.166 -186.076,172.024 -188.863,171.835 -190.234,171.788 -192.643,171.693 -194.533,172.45 -198.172,173.867 -203.747,171.268 -211.921,167.488 -212.961,167.252 -216.599,166.401 -219.434,160.07 -224.254,149.391 -225.246,147.88 -227.892,143.816 -231.577,140.934 -235.688,137.674 -238.949,133.232 -242.681,128.176 -243.295,122.742 -244.146,115.938 -245.564,112.914 -248.729,105.496 -250.288,102.425 -252.793,97.322 -256.384,94.062 -256.385,94.18 -256.384,94.298 -256.147,111.45 -255.486,117.64 -255.014,122.365 -253.218,130.255 -251.281,138.524 -248.398,148.116 -248.162,148.825 -241.831,161.913 -235.783,174.481 -233.751,182.372 -229.498,199.099 -226.616,203.587 -225.057,206.044 -221.891,209.021 -219.859,210.958 -213.906,216.392 -212.299,217.904 -206.535,225.275 -200.865,232.551 -199.164,234.063 -195.006,237.796 -187.162,241.954 -180.406,245.498 -176.578,249.94 -169.633,257.972 -163.868,261.09 -157.631,264.398 -148.228,264.587 -148.039,264.587 -133.345,267.328 -121.343,269.595 -115.106,267.895 -110.287,266.571 -99.845,266.43 -89.827,266.288 -84.205,264.492 -75.558,261.752 -69.935,257.877 -63.935,253.672 -56.989,245.215 -53.445,242.049 -51.602,240.3 -48.342,237.182 -47.397,232.788 -46.547,228.819 -38.136,221.117 -29.537,213.273 -28.308,208.879 -25.757,199.76 -21.74,193.334 -17.818,187.144 -11.771,182.277 -7.424,178.828 -3.596,168.575 .278,158.275 3.113,155.865 8.027,151.754 10.626,144.147 12.799,136.02 13.886,133.232 19.225,119.34 23.242,110.032 L26.171,103.464 26.786,105.307 Q28.439,107.292 33.731,108.19 39.259,109.135 43.181,104.787 45.78,101.858 46.961,97.794 47.245,96.755 45.307,86.596 43.134,75.256 43.654,66.562 44.268,56.687 48.899,46.197 51.214,40.858 56.931,31.125 60.853,24.462 61.656,19.218 62.601,12.933 59.294,7.972 54.805,1.215 52.726,.129 48.899,-1.903 42.095,2.444 41.197,6.082 39.118,12.272 35.149,24.179 35.149,28.29 35.149,33.298 33.495,41 32.692,44.827 31.841,47.662 22.864,14.587 19.084,1.83 15.587,-9.936 5.854,-34.175 -4.967,-61.107 -8.794,-65.265 -13.094,-69.943 -26.324,-80.952 -39.695,-92.103 -45.649,-95.978 -48.2,-97.632 -55.335,-104.341 -60.06,-108.783 -63.604,-108.783 -68.045,-108.783 -72.865,-105.192 M-8.321,20.682 Q-3.171,28.242 -3.124,28.29 -3.171,28.242 -8.321,20.682 -12.385,14.682 -16.354,12.697 -20.559,10.618 -32.702,12.13 -46.358,14.351 -50.846,15.06 -57.367,16.099 -70.738,21.391 -83.685,26.494 -89.591,30.18 -83.685,26.494 -70.738,21.391 -57.367,16.099 -50.846,15.06 -46.358,14.351 -32.702,12.13 -20.559,10.618 -16.354,12.697 -12.385,14.682 -8.321,20.682 M-23.63,38.023 L-24.717,42.748 Q-26.276,48.04 -28.639,50.97 -31.616,54.702 -36.152,56.12 -41.16,57.679 -48.956,56.64 -61.572,54.986 -62.659,36.984 -67.833,38.906 -73.054,41.331 L-77.306,43.41 -73.054,41.331 Q-67.833,38.906 -62.659,36.984 -62.588,36.962 -62.517,36.936 -46.31,31.03 -36.199,32.07 -31.805,32.534 -23.63,38.023 -22.665,38.673 -21.646,39.393 -11.865,46.339 -9.266,46.717 -11.865,46.339 -21.646,39.393 -22.665,38.673 -23.63,38.023 M-19.614,60.845 Q-14.936,58.86 -13.991,55.695 -14.936,58.86 -19.614,60.845 -23.158,62.31 -27.694,62.782 -23.158,62.31 -19.614,60.845 M-51.98,82.202 Q-45.554,82.863 -40.924,80.737 -45.554,82.863 -51.98,82.202 -58.454,81.54 -62.659,78.375 -58.454,81.54 -51.98,82.202 M-74.944,51.915 Q-71.542,59.616 -64.549,62.782 -71.542,59.616 -74.944,51.915 M-86.236,115.702 L-86.284,112.442 -86.236,115.702 Q-86.331,119.34 -87.229,121.419 -88.126,123.498 -93.419,125.719 L-98.569,127.562 Q-101.687,128.082 -103.294,123.451 -103.294,123.64 -103.294,123.782 -103.294,127.137 -105.514,130.775 -107.971,134.697 -112.744,138.43 -117.988,142.54 -124.556,142.21 -131.738,141.831 -139.204,136.067 -145.535,131.2 -148.134,121.183 -150.118,113.67 -149.646,105.354 -149.362,100.157 -144.779,85.368 -139.912,70.342 -139.204,67.507 -138.259,63.963 -138.164,52.056 -138.259,39.63 -138.259,37.267 -138.259,32.353 -140.385,27.108 -143.22,20.257 -148.228,18.367 -151.3,17.233 -157.867,16.477 -163.963,15.768 -169.963,13.17 -178.279,9.531 -190.801,7.405 -203.605,5.184 -209.181,6.555 -214.615,7.925 -221.23,12.272 -227.372,16.383 -231.861,21.202 -227.372,16.383 -221.23,12.272 -214.615,7.925 -209.181,6.555 -203.605,5.184 -190.801,7.405 -178.279,9.531 -169.963,13.17 -163.963,15.768 -157.867,16.477 -151.3,17.233 -148.228,18.367 -143.22,20.257 -140.385,27.108 -138.259,32.353 -138.259,37.267 -138.259,39.63 -138.164,52.056 -138.259,63.963 -139.204,67.507 -139.912,70.342 -144.779,85.368 -149.362,100.157 -149.646,105.354 -150.118,113.67 -148.134,121.183 -145.535,131.2 -139.204,136.067 -131.738,141.831 -124.556,142.21 -117.988,142.54 -112.744,138.43 -107.971,134.697 -105.514,130.775 -103.294,127.137 -103.294,123.782 -103.294,123.64 -103.294,123.451 -103.672,122.412 -103.955,121.089 L-104.711,113.859 -104.002,117.214 Q-103.341,120.9 -103.294,123.451 -101.687,128.082 -98.569,127.562 L-93.419,125.719 Q-88.126,123.498 -87.229,121.419 -86.331,119.34 -86.236,115.702 M-81.559,176.702 Q-78.582,177.458 -73.007,181.805 -66.958,186.483 -64.076,187.57 -60.627,188.892 -60.627,196.263 -60.627,201.083 -60.627,201.461 -60.438,203.965 -59.351,204.58 -56.044,206.469 -55.099,208.785 -53.823,211.809 -57.934,214.029 -58.643,214.407 -70.88,219.983 -79.763,224.046 -82.031,226.315 -83.165,227.448 -84.205,229.811 L-85.906,233.78 Q-88.268,238.221 -93.371,237.654 -99.514,236.993 -104.05,237.229 -108.16,237.465 -112.271,238.599 -122.146,241.293 -125.407,241.86 -135.235,243.513 -138.259,240.489 -148.512,230.378 -154.843,226.315 -157.3,224.755 -160.75,219.133 -163.963,213.84 -166.656,212.612 -169.774,211.195 -170.861,209.352 -171.853,206.942 -173.271,205.052 -175.019,202.69 -175.019,199.382 L-174.688,196.547 Q-172.515,190.688 -168.593,185.443 -166.845,183.128 -161.459,177.174 -158.86,174.292 -153.757,173.111 -147.756,171.646 -145.393,170.087 -142.18,167.961 -135.754,167.724 -128.336,167.488 -126.446,166.779 -123.942,165.882 -115.295,167.016 -106.223,168.244 -102.349,167.252 -97.954,166.165 -91.245,170.748 -83.071,176.324 -81.559,176.702 M-156.733,38.685 Q-165.645,34.228 -168.877,32.731 L-168.451,33.818 Q-168.168,35.802 -169.018,40.102 -170.152,46.009 -174.074,48.985 -178.894,52.718 -188.391,52.387 -197.416,52.056 -201.716,46.197 -204.361,42.465 -205.543,35.283 -216.782,39.638 -219.576,43.41 -216.782,39.638 -205.543,35.283 -205.38,35.253 -205.212,35.188 -198.739,32.778 -191.084,30.747 -184.469,28.998 -181.776,28.762 -178.421,28.479 -169.774,32.306 -169.396,32.474 -168.877,32.731 -165.645,34.228 -156.733,38.685 M-161.269,56.687 Q-158.623,53.238 -158.623,49.552 -158.623,53.238 -161.269,56.687 -163.726,59.853 -167.128,61.365 -163.726,59.853 -161.269,56.687 M-214.567,61.317 Q-210.126,65.003 -205.401,66.09 -210.126,65.003 -214.567,61.317 -219.198,57.443 -221.938,51.915 -219.198,57.443 -214.567,61.317 M-205.873,74.595 Q-200.959,78.895 -198.88,79.745 -193.494,81.919 -185.556,78.847 -193.494,81.919 -198.88,79.745 -200.959,78.895 -205.873,74.595 M-18.764,-139.542 Q-23.583,-140.96 -25.709,-142.33 -28.639,-144.126 -29.111,-147.055 -30.009,-152.347 -21.835,-157.308 -17.771,-159.812 -13.519,-161.23 -17.63,-161.703 -23.063,-161.466 -33.931,-160.994 -40.451,-157.45 -43.948,-155.513 -46.924,-155.985 -48.909,-156.269 -51.838,-158.017 -55.288,-160.096 -56.847,-160.616 -60.013,-161.703 -63.604,-160.758 -69.604,-159.198 -81.039,-164.585 -87.748,-167.751 -88.646,-168.128 -92.285,-169.546 -93.844,-168.79 -97.009,-167.183 -116.902,-168.081 -134.479,-168.884 -143.503,-170.207 -149.457,-171.105 -158.387,-178.523 L-166.183,-185.8 -165.522,-182.54 Q-164.813,-178.712 -164.719,-175.688 -164.341,-166.144 -169.963,-168.79 -175.586,-171.436 -187.493,-171.814 L-198.313,-171.625 -190.564,-164.538 Q-183.855,-157.686 -188.863,-158.867 -193.872,-160.049 -204.409,-155.796 L-213.906,-151.307 -211.733,-151.166 Q-209.228,-150.882 -207.574,-150.174 -202.282,-147.953 -207.291,-142.33 -217.922,-130.423 -223.309,-123.525 -234.838,-108.735 -244.618,-91.253 -252.556,-77.078 -255.202,-43.767 -256.856,-22.646 -256.195,1.688 -256.1,6.224 -255.959,8.917 -247.926,-18.488 -246.036,-28.41 -244.477,-36.49 -242.728,-41.026 -240.602,-46.554 -236.586,-51.563 -230.916,-58.65 -212.488,-82.748 -209.323,-86.811 -201.81,-94.23 -197.605,-98.34 -189.336,-106.42 -184.516,-111.287 -179.035,-113.697 -175.728,-115.161 -168.073,-117.76 -165.097,-118.894 -163.821,-118.327 -162.781,-117.902 -162.214,-115.965 -161.884,-114.878 -161.08,-112.043 -160.088,-109.491 -158.151,-107.838 -156.592,-106.515 -148.748,-97.254 -142.7,-90.072 -138.259,-88.418 -134.431,-87 -119.737,-80.811 -105.892,-75.377 -100.931,-75.66 -95.639,-75.991 -88.363,-84.591 -82.787,-91.111 -79.669,-97.395 -77.448,-101.837 -72.865,-105.192 -68.045,-108.783 -63.604,-108.783 -60.06,-108.783 -55.335,-104.341 -48.2,-97.632 -45.649,-95.978 -39.695,-92.103 -26.324,-80.952 -13.094,-69.943 -8.794,-65.265 -4.967,-61.107 5.854,-34.175 15.587,-9.936 19.084,1.83 22.864,14.587 31.841,47.662 32.692,44.827 33.495,41 35.149,33.298 35.149,28.29 35.149,24.179 39.118,12.272 41.197,6.082 42.095,2.444 42.803,-.675 42.709,-1.95 42.472,-4.549 41.197,-12.44 39.685,-21.417 38.929,-27.938 36.235,-51.138 35.858,-54.918 33.92,-73.723 34.204,-79.44 34.534,-85.866 20.312,-106.278 6.61,-125.982 -1.706,-132.408 -6.101,-135.809 -18.764,-139.542Z" test="JeanRenoFace" vector-effect="non-scaling-stroke" stroke-width="1"/>
        <path id="Layer4_0_1_STROKES" stroke="#FFF" stroke-width="1.89" stroke-linejoin="round" stroke-linecap="round" fill="none" d="M-255.959,8.917 Q-256.1,6.224 -256.195,1.688 -256.856,-22.646 -255.202,-43.767 -252.556,-77.078 -244.618,-91.253 -234.838,-108.735 -223.309,-123.525 -217.922,-130.423 -207.291,-142.33 -202.282,-147.953 -207.574,-150.174 -209.228,-150.882 -211.733,-151.166 L-213.906,-151.307 -204.409,-155.796 Q-193.872,-160.049 -188.863,-158.867 -183.855,-157.686 -190.564,-164.538 L-198.313,-171.625 -187.493,-171.814 Q-175.586,-171.436 -169.963,-168.79 -164.341,-166.144 -164.719,-175.688 -164.813,-178.712 -165.522,-182.54 L-166.183,-185.8 -158.387,-178.523 Q-149.457,-171.105 -143.503,-170.207 -134.479,-168.884 -116.902,-168.081 -97.009,-167.183 -93.844,-168.79 -92.285,-169.546 -88.646,-168.128 -87.748,-167.751 -81.039,-164.585 -69.604,-159.198 -63.604,-160.758 -60.013,-161.703 -56.847,-160.616 -55.288,-160.096 -51.838,-158.017 -48.909,-156.269 -46.924,-155.985 -43.948,-155.513 -40.451,-157.45 -33.931,-160.994 -23.063,-161.466 -17.63,-161.703 -13.519,-161.23 -17.771,-159.812 -21.835,-157.308 -30.009,-152.347 -29.111,-147.055 -28.639,-144.126 -25.709,-142.33 -23.583,-140.96 -18.764,-139.542 -6.101,-135.809 -1.706,-132.408 6.61,-125.982 20.312,-106.278 34.534,-85.866 34.204,-79.44 33.92,-73.723 35.858,-54.918 36.235,-51.138 38.929,-27.938 39.685,-21.417 41.197,-12.44 42.472,-4.549 42.709,-1.95 42.803,-.675 42.095,2.444 48.899,-1.903 52.726,.129 54.805,1.215 59.294,7.972 62.601,12.933 61.656,19.218 60.853,24.462 56.931,31.125 51.214,40.858 48.899,46.197 44.268,56.687 43.654,66.562 43.134,75.256 45.307,86.596 47.245,96.755 46.961,97.794 45.78,101.858 43.181,104.787 39.259,109.135 33.731,108.19 28.439,107.292 26.786,105.307 L26.171,103.464 23.242,110.032 Q19.225,119.34 13.886,133.232 12.799,136.02 10.626,144.147 8.027,151.754 3.113,155.865 .278,158.275 -3.596,168.575 -7.424,178.828 -11.771,182.277 -17.818,187.144 -21.74,193.334 -25.757,199.76 -28.308,208.879 -29.537,213.273 -38.136,221.117 -46.547,228.819 -47.397,232.788 -48.342,237.182 -51.602,240.3 -53.445,242.049 -56.989,245.215 -63.935,253.672 -69.935,257.877 -75.558,261.752 -84.205,264.492 -89.827,266.288 -99.845,266.43 -110.287,266.571 -115.106,267.895 -121.343,269.595 -133.345,267.328 -148.039,264.587 -148.228,264.587 -157.631,264.398 -163.868,261.09 -169.633,257.972 -176.578,249.94 -180.406,245.498 -187.162,241.954 -195.006,237.796 -199.164,234.063 -200.865,232.551 -206.535,225.275 -212.299,217.904 -213.906,216.392 -219.859,210.958 -221.891,209.021 -225.057,206.044 -226.616,203.587 -229.498,199.099 -233.751,182.372 -235.783,174.481 -241.831,161.913 -248.162,148.825 -248.398,148.116 -251.281,138.524 -253.218,130.255 -255.014,122.365 -255.486,117.64 -256.147,111.45 -256.384,94.298 -256.385,94.18 -256.384,94.062 -256.618,73.406 -256.289,39.204 L-255.959,8.917 Q-247.926,-18.488 -246.036,-28.41 -244.477,-36.49 -242.728,-41.026 -240.602,-46.554 -236.586,-51.563 -230.916,-58.65 -212.488,-82.748 -209.323,-86.811 -201.81,-94.23 -197.605,-98.34 -189.336,-106.42 -184.516,-111.287 -179.035,-113.697 -175.728,-115.161 -168.073,-117.76 -165.097,-118.894 -163.821,-118.327 -162.781,-117.902 -162.214,-115.965 -161.884,-114.878 -161.08,-112.043 -160.088,-109.491 -158.151,-107.838 -156.592,-106.515 -148.748,-97.254 -142.7,-90.072 -138.259,-88.418 -134.431,-87 -119.737,-80.811 -105.892,-75.377 -100.931,-75.66 -95.639,-75.991 -88.363,-84.591 -82.787,-91.111 -79.669,-97.395 -77.448,-101.837 -72.865,-105.192 -68.045,-108.783 -63.604,-108.783 -60.06,-108.783 -55.335,-104.341 -48.2,-97.632 -45.649,-95.978 -39.695,-92.103 -26.324,-80.952 -13.094,-69.943 -8.794,-65.265 -4.967,-61.107 5.854,-34.175 15.587,-9.936 19.084,1.83 22.864,14.587 31.841,47.662 32.692,44.827 33.495,41 35.149,33.298 35.149,28.29 35.149,24.179 39.118,12.272 41.197,6.082 42.095,2.444 M-89.591,30.18 Q-83.685,26.494 -70.738,21.391 -57.367,16.099 -50.846,15.06 -46.358,14.351 -32.702,12.13 -20.559,10.618 -16.354,12.697 -12.385,14.682 -8.321,20.682 -3.171,28.242 -3.124,28.29 M-62.659,36.984 Q-61.572,54.986 -48.956,56.64 -41.16,57.679 -36.152,56.12 -31.616,54.702 -28.639,50.97 -26.276,48.04 -24.717,42.748 L-23.63,38.023 Q-31.805,32.534 -36.199,32.07 -46.31,31.03 -62.517,36.936 -62.588,36.962 -62.659,36.984 -67.833,38.906 -73.054,41.331 L-77.306,43.41 M-23.63,38.023 Q-22.665,38.673 -21.646,39.393 -11.865,46.339 -9.266,46.717 M-27.694,62.782 Q-23.158,62.31 -19.614,60.845 -14.936,58.86 -13.991,55.695 M-256.384,94.062 Q-252.793,97.322 -250.288,102.425 -248.729,105.496 -245.564,112.914 -244.146,115.938 -243.295,122.742 -242.681,128.176 -238.949,133.232 -235.688,137.674 -231.577,140.934 -227.892,143.816 -225.246,147.88 -224.254,149.391 -219.434,160.07 -216.599,166.401 -212.961,167.252 -211.921,167.488 -203.747,171.268 -198.172,173.867 -194.533,172.45 -192.643,171.693 -190.234,171.788 -188.863,171.835 -186.076,172.024 -180.689,172.166 -175.161,167.724 -170.341,163.85 -160.75,160.448 -152.434,157.518 -150.591,154.967 -149.315,153.219 -147.709,153.171 -146.622,153.171 -144.496,154.069 -139.298,156.337 -135.896,154.967 -132.352,153.549 -123.895,150.053 -116.288,147.454 -110.854,148.352 -107.074,148.966 -97.387,152.982 -88.504,156.621 -83.921,156.857 -80,157.093 -73.148,162.669 -67.148,167.583 -63.131,166.307 -60.674,165.551 -58.123,166.26 -57.083,166.543 -53.918,168.102 -48.767,170.512 -44.704,167.724 -42.294,166.071 -38.939,165.22 -37.002,164.748 -33.317,164.086 -26.843,162.574 -24.386,156.857 -21.221,149.486 -18.527,144.95 -15.928,140.508 -11.629,135.122 -10.022,133.09 -2.179,126.333 3.349,121.561 4.436,117.167 5.523,112.867 9.114,108.331 13.65,102.52 14.831,100.157 16.485,96.849 18.375,92.361 20.029,89.384 23.336,88.77 26.833,88.155 27.352,90.045 27.589,90.849 27.116,95.904 26.833,99.165 25.274,101.622 L23.809,103.464 M-37.616,38.685 L-33.836,39.63 M-62.659,78.375 Q-58.454,81.54 -51.98,82.202 -45.554,82.863 -40.924,80.737 M-74.944,51.915 Q-71.542,59.616 -64.549,62.782 M-103.294,123.451 Q-101.687,128.082 -98.569,127.562 L-93.419,125.719 Q-88.126,123.498 -87.229,121.419 -86.331,119.34 -86.236,115.702 L-86.284,112.442 M-103.294,123.451 Q-103.341,120.9 -104.002,117.214 L-104.711,113.859 -103.955,121.089 Q-103.672,122.412 -103.294,123.451 -103.294,123.64 -103.294,123.782 -103.294,127.137 -105.514,130.775 -107.971,134.697 -112.744,138.43 -117.988,142.54 -124.556,142.21 -131.738,141.831 -139.204,136.067 -145.535,131.2 -148.134,121.183 -150.118,113.67 -149.646,105.354 -149.362,100.157 -144.779,85.368 -139.912,70.342 -139.204,67.507 -138.259,63.963 -138.164,52.056 -138.259,39.63 -138.259,37.267 -138.259,32.353 -140.385,27.108 -143.22,20.257 -148.228,18.367 -151.3,17.233 -157.867,16.477 -163.963,15.768 -169.963,13.17 -178.279,9.531 -190.801,7.405 -203.605,5.184 -209.181,6.555 -214.615,7.925 -221.23,12.272 -227.372,16.383 -231.861,21.202 M-160.041,192.767 Q-155.883,190.121 -150.307,188.515 -144.259,186.766 -139.204,187.097 -136.463,187.286 -130.274,189.507 -125.076,191.397 -120.304,190.877 -116.524,190.452 -109.436,187.948 -103.152,185.68 -98.569,185.68 -92.71,185.68 -87.56,188.042 -83.401,189.979 -80.141,193.239 M-174.688,196.547 Q-172.515,190.688 -168.593,185.443 -166.845,183.128 -161.459,177.174 -158.86,174.292 -153.757,173.111 -147.756,171.646 -145.393,170.087 -142.18,167.961 -135.754,167.724 -128.336,167.488 -126.446,166.779 -123.942,165.882 -115.295,167.016 -106.223,168.244 -102.349,167.252 -97.954,166.165 -91.245,170.748 -83.071,176.324 -81.559,176.702 -78.582,177.458 -73.007,181.805 -66.958,186.483 -64.076,187.57 -60.627,188.892 -60.627,196.263 -60.627,201.083 -60.627,201.461 -60.438,203.965 -59.351,204.58 -56.044,206.469 -55.099,208.785 -53.823,211.809 -57.934,214.029 -58.643,214.407 -70.88,219.983 -79.763,224.046 -82.031,226.315 -83.165,227.448 -84.205,229.811 L-85.906,233.78 Q-88.268,238.221 -93.371,237.654 -99.514,236.993 -104.05,237.229 -108.16,237.465 -112.271,238.599 -122.146,241.293 -125.407,241.86 -135.235,243.513 -138.259,240.489 -148.512,230.378 -154.843,226.315 -157.3,224.755 -160.75,219.133 -163.963,213.84 -166.656,212.612 -169.774,211.195 -170.861,209.352 -171.853,206.942 -173.271,205.052 -175.019,202.69 -175.019,199.382 L-174.688,196.547Z M-256.903,1.357 Q-262.101,-5.589 -270.228,-5.919 -278.26,-6.203 -280.056,-.06 -281.284,4.145 -275.047,17.706 -268.243,32.4 -268.243,37.267 -268.243,42.465 -268.007,60.703 -268.007,77.477 -269.189,83.1 -270.464,89.242 -268.196,91.368 -266.401,93.022 -262.573,92.125 M-156.733,38.685 Q-165.645,34.228 -168.853,32.731 L-168.451,33.818 Q-168.168,35.802 -169.018,40.102 -170.152,46.009 -174.074,48.985 -178.894,52.718 -188.391,52.387 -197.416,52.056 -201.716,46.197 -204.361,42.465 -205.543,35.306 -216.782,39.638 -219.576,43.41 M-168.853,32.731 Q-169.396,32.474 -169.774,32.306 -178.421,28.479 -181.776,28.762 -184.469,28.998 -191.084,30.747 -198.739,32.778 -205.212,35.188 -205.38,35.253 -205.543,35.306 M-180.831,34.905 L-178.468,35.377 M-167.128,61.365 Q-163.726,59.853 -161.269,56.687 -158.623,53.238 -158.623,49.552 M-221.938,51.915 Q-219.198,57.443 -214.567,61.317 -210.126,65.003 -205.401,66.09 M-205.873,74.595 Q-200.959,78.895 -198.88,79.745 -193.494,81.919 -185.556,78.847 M-125.974,176.702 Q-117.469,178.12 -113.216,178.12 M-125.501,198.909 Q-121.863,198.437 -120.823,198.484 -118.603,198.579 -115.106,199.854" test="JeanRenoFace"/>
      </g>
      <g id="TearAnimf0r1">
        <g id="TearGraphic">
          <path id="Layer5_0_1_STROKES" stroke="#0FF" stroke-width="1" stroke-linejoin="round" stroke-linecap="round" fill="none" d="M-183.955,51.996 Q-183.964,52.373 -184.055,52.633 -184.159,52.91 -184.469,53.352 -184.783,53.802 -184.601,54.393 -184.419,54 -183.914,55.017 -183.418,55.035 -183.19,54.594 -183.004,54.234 -183.04,53.729 -183.058,53.479 -183.413,52.965 -183.8,52.401 -183.914,51.85" test="TearGraphic" vector-effect="non-scaling-stroke"/>
        </g>
      </g>
    </g>
    <g id="BlackMaskRect">
      <path fill="#000" stroke="none" d="M823.45,613.6 L823.45,508.3 -23.6,508.3 -23.6,613.6 823.45,613.6Z" test="BlackMaskRect"/>
    </g>
  </g>
</svg>