<?xml version="1.0" encoding="utf-8"?>
<svg id="EdithAnim06" image-rendering="inherit" baseProfile="basic" version="1.1" x="0px" y="0px" width="800" height="600" xmlns="http://www.w3.org/2000/svg" xmlns:xlink="http://www.w3.org/1999/xlink">
  <g id="Jean-Renof65r1" overflow="visible">
    <g id="Bec-nom-Jean">
      <path id="Layer3_0_1_STROKES" stroke="#F90" stroke-width="1.796" stroke-linejoin="round" stroke-linecap="round" fill="none" d="M761.1,441.341 Q760.92,441.207 760.741,441.072 M728.368,485.748 Q729.176,493.65 729.086,502.765 728.996,511.61 728.143,516.28 M779.284,422.259 Q776.994,422.573 776.096,422.753 775.782,422.888 775.558,422.888" test="Bec nom Jean"/>
      <path id="Layer3_0_2_STROKES" stroke="#FFF" stroke-width="1.796" stroke-linejoin="round" stroke-linecap="round" fill="none" d="M725.719,229.458 Q725.315,225.103 725.674,222.948 726.213,219.939 728.413,218.233 731.062,216.213 735.417,216.976 740.087,217.829 741.523,221.466 M725.584,272.203 Q723.563,276.109 723.339,279.701 723.121,283.117 724.619,284.955 724.647,285 724.686,285.045 727.964,288.951 733.217,288.951 737.887,288.906 742.287,285.987 M673.59,295.327 Q679.247,292.498 683.243,293.216 686.476,293.755 690.203,297.123 691.505,298.29 692.223,299.412 L697.117,298.874 Q702.73,298.066 706.501,296.674 712.294,294.518 717.233,291.555 721.662,288.884 723.608,286.504 724.248,285.709 724.619,284.955 M668.561,264.48 Q667.349,255.141 672.692,251.684 675.835,249.663 680.145,250.516 683.917,251.235 687.06,253.704 M692.223,299.412 Q693.217,300.918 693.48,302.6 693.625,303.581 693.525,304.621 693.301,307.09 691.55,310.593" test="Bec nom Jean"/>
      <path id="Layer3_0_3_STROKES" stroke="#FEB7AE" stroke-width="1.796" stroke-linejoin="round" stroke-linecap="round" fill="none" d="M753.108,201.351 Q758.496,209.612 763.031,217.919 776.439,242.539 777.713,259.452 777.782,260.363 777.803,261.652 778.117,280.061 771.696,292.004 767.116,300.49 758.496,306.552 746.867,314.679 739.099,317.911 723.474,324.332 704.571,323.165 690.068,322.267 680.594,319.662 672.602,317.417 667.618,313.691 M729.49,323.434 Q730.837,325.23 731.96,327.475 M790.824,379.784 Q787.815,377.628 784.448,375.428 777.713,371.118 775.872,371.163 773.941,371.208 773.043,372.51 772.415,373.453 772.415,374.62 772.415,377.224 772.909,379.379 773.537,382.073 774.749,383.151 776.545,384.722 776.231,384.633 773.447,383.78 770.035,383.016 763.21,381.49 759.932,381.894 754.679,382.567 750.863,388.763 749.022,391.727 750.369,395.992 751.536,399.719 753.781,401.425 756.116,403.176 759.349,404.613 763.3,406.364 766.443,406.499 771.247,406.724 779.15,405.152 M758.9,423.785 L763.973,420.238 Q769.631,416.557 772.415,415.703 777.578,414.177 778.656,414.042 781.709,413.638 782.742,415.703 783.729,417.679 780.407,420.238 778.701,421.496 776.096,422.753 M779.284,422.259 Q784.807,422.169 789.028,424.684 L794.775,427.961 Q800.432,431.868 800.028,435.235 799.489,439.456 797.199,442.599 794.775,445.966 791.497,446.46 786.962,447.134 782.697,446.909 777.129,446.595 775.782,444.664 775.378,444.08 773.088,443.317 771.921,442.913 768.329,441.925 766.712,441.476 764.108,441.656 761.863,441.79 761.1,441.341 M744.756,320.516 L742.511,316.924" test="Bec nom Jean"/>
      <path id="Layer3_0_4_STROKES" stroke="#00F" stroke-width="1.796" stroke-linejoin="round" stroke-linecap="round" fill="none" d="M781.529,265.917 L796.346,292.498 811.927,276.469 Q809.592,272.787 806.045,265.693 798.95,251.549 793.069,234.712 786.917,217.156 771.741,199.779 764.377,191.338 746.373,174.95 736.135,165.61 717.681,162.467 701.517,159.729 690.652,162.827 671.569,168.26 662.275,172.435 641.621,181.595 631.833,195.2 618.048,214.282 612.346,228.785 604.803,248.002 609.383,262 614.456,279.567 634.257,310.727 654.103,341.933 662.814,346.962 670.132,351.182 685.847,351.496 693.705,351.676 700.081,351.003 L667.618,313.691 Q664.43,311.356 661.916,307.899 658.099,302.69 646.919,284.73 635.649,266.591 636.323,266.591 L656.034,251.145 Q678.125,234.218 690.203,226.63 702.281,219.041 726.661,206.155 738.829,199.69 748.618,194.751 L753.108,201.351" test="Bec nom Jean"/>
      <path id="Layer3_0_5_STROKES" stroke="#0FF" stroke-width="1.796" stroke-linejoin="round" stroke-linecap="round" fill="none" d="M789.207,385.127 L787.411,388.404 Q785.75,392.67 786.289,397.474 786.872,402.458 787.456,402.862 788.085,403.311 792.126,404.209 796.077,405.826 812.376,406.454 827.597,407.038 835.275,406.275 843.671,405.466 851.933,403.895 861.945,402.009 864.684,400.168 867.513,398.282 872.811,389.751 877.84,381.669 878.379,378.841 878.917,376.236 876.987,370.399 874.966,364.248 871.195,357.738 867.782,351.811 857.141,344.268 849.238,338.7 841.561,334.839 835.32,331.741 822.164,326.712 807.796,321.189 803.62,320.74 796.616,320.336 792.62,320.111 785.301,319.707 781.619,318.495 777.623,317.148 772.549,316.968 770.394,316.879 763.165,317.148 L755.308,317.373 756.251,320.022 Q757.059,323.03 756.655,324.557 756.206,326.218 753.512,327.879 752.075,328.777 747.675,330.843 742.332,333.357 739.278,334.524 733.801,336.59 731.735,336.006 729.445,335.333 727.335,333.941 725.315,332.638 724.102,331.067 M700.081,399.091 L704.571,415.703 M761.1,441.341 Q761.1,441.297 761.145,441.297 759.349,425.133 758.9,423.785 758.585,422.798 748.797,421.72 739.278,420.643 731.96,420.643 729.356,420.643 709.869,418.847 693.66,417.365 689.754,418.398 685.847,419.43 686.88,417.455 688.676,414.087 688.407,413.458 687.958,412.291 695.187,402.907 703.987,391.547 706.367,386.968 711.306,377.539 712.204,374.845 M718.49,333.537 Q715.032,336.006 711.306,338.7 703.897,344.088 702.775,345.21 M684.366,365.864 Q675.745,378.436 666.989,391.682 649.478,418.173 648.895,421.541 648.176,425.806 657.426,432.81 667.034,440.129 676.733,441.746 685.533,443.227 714.943,443.452 739.638,443.631 749.471,443.093 754.814,442.823 758.496,442.015 760.337,441.656 761.1,441.341 M716.245,446.46 L721.902,462.085 Q727.649,479.013 728.368,485.748 L748.797,487.633 Q770.574,489.25 777.309,487.992 788.354,485.927 800.118,482.38 815.833,477.665 823.601,472.727 829.438,469.045 838.328,463.926 844.479,460.199 845.153,457.685 846.051,454.452 845.871,448.705 845.691,442.419 844.255,436.357 842.997,431.014 839.585,419.026 L836.397,408.071 M821.131,364.248 L826.744,374.575 M795.942,348.533 L819.156,358.456 Q842.503,368.783 843.357,370.759 846.051,377.045 843.357,378.392 842.279,378.93 832.401,378.392 821.894,377.808 819.111,378.392 816.192,378.975 810.894,379.379 805.057,379.784 802.677,380.188 799.534,380.726 797.11,382.029 794.73,383.286 794.371,383.331" test="Bec nom Jean"/>
    </g>
    <g id="Jean-Reno-body">
      <path id="Layer2_0_1_STROKES" stroke="#FEB7AE" stroke-width="1.89" stroke-linejoin="round" stroke-linecap="round" fill="none" d="M139.745,162.417 Q145.887,168.56 184.207,174.702 209.958,178.86 237.127,181.317 244.403,181.979 286.976,190.672 323.311,198.044 329.737,196.437 339.518,193.98 346.983,191.003 356.48,187.176 365.647,181.317 374.766,175.458 386.957,173.663 397.163,172.103 405.384,173.757 411.29,174.938 416.96,176.828 419.795,177.773 421.449,178.482 419.795,178.954 417.905,179.947 414.22,181.979 413.322,184.766 412.424,187.554 415.496,190.389 417.055,191.759 418.756,192.61 416.866,193.366 415.165,194.736 411.716,197.477 412.613,200.406 413.511,203.383 419.181,204.659 422.016,205.32 424.662,205.367 L425.702,211.415 Q427.166,217.747 429.387,219.07 431.608,220.393 436.994,217.841 439.688,216.613 441.908,215.054 L443.704,219.07 Q446.161,222.991 449.705,222.377 453.248,221.81 456.225,218.739 457.69,217.18 458.446,215.762 L461.895,217.18 Q465.581,218.361 466.762,217.18 467.943,215.998 468.888,212.691 L469.597,209.62 471.865,222.566 Q473.944,236.363 472.904,240.332 472.81,240.663 471.818,245.53 471.109,248.979 470.211,251.247 467.565,258.004 460.808,261.595 M393.005,216.235 Q401.226,214.25 412.472,216.188 428.867,218.975 437.42,229.937 440.727,234.19 447.626,242.931 453.532,250.633 456.839,256.823 465.77,273.549 462.226,290.654 458.729,307.475 449.374,322.925 445.074,330.013 436.711,340.266 434.348,343.148 425.56,350.047 415.118,358.221 402.407,366.443 366.923,389.453 334.651,399.376 L318.917,404.219 Q321.556,407.52 323.689,418.181 325.862,429.049 324.965,435.049 324.209,440.153 326.902,443.554 327.611,444.499 331.107,447.098 333.895,449.177 338.1,455.792 343.534,464.297 342.447,469.306 341.313,474.739 336.399,479.984 331.958,484.662 328.036,485.843 325.106,486.741 319.531,486.835 L314.57,486.788 320.996,488.111 Q328.225,490.426 332.525,495.293 338.1,501.625 340.368,506.066 343.014,511.169 341.502,514.193 340.463,516.319 337.675,522.746 334.226,528.699 327.8,531.676 321.799,534.464 308.711,531.392 302.143,529.644 299.355,528.935 294.63,527.754 292.835,527.896 290.472,528.085 271.903,532.81 253.097,537.629 246.53,538.291 239.631,538 231.362,535.503 227.488,533.708 225.929,533.093 223.377,532.007 222.196,532.148 218.416,532.337 216.479,532.574 213.124,533.046 210.62,534.983 207.785,537.157 203.91,536.212 200.225,535.314 199.28,532.857 198.193,530.069 198.287,528.416 198.429,526.1 200.697,524.352 202.776,522.746 206.084,522.179 207.737,521.942 208.966,521.989 208.068,520.95 207.454,519.58 206.225,516.839 207.548,515.374 209.013,513.768 212.84,512.965 216.053,512.303 218.652,512.54 219.786,512.634 217.235,510.838 214.069,508.618 215.108,507.578 216.337,506.35 219.503,506.444 220.967,506.492 224.558,507.106 225.787,507.295 227.771,508.712 229.189,509.752 230.228,509.232 233.536,507.578 237.977,505.499 244.781,502.333 247.475,501.436 251.727,500.018 255.98,499.073 M151.746,163.504 Q155.904,161.519 170.788,152.636 184.774,144.746 189.782,144.604 202.776,144.226 206.792,144.604 219.597,145.785 231.41,151.691 256.736,164.354 260.374,166.244 276.581,174.844 283.621,180.514 290.425,185.995 296.095,189.255 298.93,190.909 300.395,191.429 M129.066,227.527 Q129.066,223.464 130.058,218.455 132.09,208.391 137.099,203.666 147.635,193.744 161.196,195.87 166.394,196.673 176.552,202.91 185.908,208.628 188.365,211.699 190.302,214.109 195.122,215.006 198.807,215.715 203.721,215.479 206.367,215.384 220.306,214.392 233.725,213.636 237.552,214.534 243.884,215.998 258.531,220.96 275.305,226.677 278.423,229.181 280.786,231.071 288.818,238.064 296.331,244.301 299.213,245.483 302.521,246.806 303.041,247.703 303.371,248.318 302.757,250.491 302.521,251.342 303.041,257.626 303.56,264.477 302.757,269.864 301.765,276.526 296.662,293.961 291.842,310.404 289.291,316.641 287.212,321.791 280.644,333.226 274.643,343.668 272.517,346.409 271.052,348.346 267.745,352.268 L264.721,355.859 269.257,356.614 Q274.36,357.607 277.006,358.93 279.132,360.016 283.763,362.19 287.637,364.458 289.763,367.907 292.551,372.443 293.213,374.711 294.063,377.688 293.071,381.137 292.079,384.539 289.716,388.177 287.779,391.154 285.511,393.422 282.44,396.494 280.55,398.006 277.195,400.699 274.88,400.982 271.808,401.407 270.391,401.266 268.217,401.03 264.485,399.565 261.461,398.383 259.334,395.927 256.358,392.525 254.326,391.06 251.491,388.981 250.026,386.051 248.183,382.271 246.293,380.192 243.175,376.743 241.143,375.515 239.678,374.664 236.843,374.05 234.575,373.577 234.197,373.672 232.827,374.286 230.465,375.231 226.212,377.405 224.606,378.019 222.007,378.964 220.542,376.885 218.227,373.672 217.849,372.585 217.093,370.459 218.18,367.435 219.503,363.844 220.022,363.135 220.826,362.143 223.85,360.82 228.386,358.788 234.481,360.82 235.142,361.056 234.481,357.607 232.78,348.346 232.733,348.109 230.087,331.383 232.591,318.059 234.906,305.915 241.049,287.346 246.01,272.368 245.585,270.809 245.065,268.871 231.221,269.438 215.817,270.1 213.455,269.155 210.809,268.115 195.972,264.099 182.128,260.319 181.277,259.705 M108.512,237.97 Q121.742,250.302 129.161,255.547 148.911,269.58 173.009,276.479 196.634,283.282 218.888,290.606 229.992,294.244 236.371,296.56 M265.382,493.876 Q264.39,489.718 246.482,457.399 228.244,424.418 226.874,420.166 224.133,411.566 222.007,401.407 219.408,389.028 220.495,386.335 221.582,383.736 224.558,381.043 226.496,379.247 228.764,377.83 M255.696,489.151 Q254.42,490.096 252.436,490.994 248.561,492.836 245.301,492.694 241.946,492.553 235.757,490.096 231.268,488.3 228.527,486.788 227.535,486.221 226.779,484.095 226.118,482.299 224.984,482.299 223.85,482.299 221.393,484.426 218.605,486.835 217.424,487.261 215.628,487.922 212.037,486.977 208.871,486.127 207.029,484.898 205.564,483.953 205.186,481.78 204.95,480.268 205.139,477.102 205.28,474.787 206.603,473.416 206.651,473.322 209.627,470.959 211.092,469.778 212.651,469.306 213.407,469.069 213.88,469.069 M222.149,469.542 Q221.96,468.739 222.196,467.699 222.574,465.62 224.511,464.581 226.448,463.541 229.756,463.872 231.599,464.061 234.67,464.581 236.04,464.722 238.592,465.857 241.001,466.943 241.757,466.943 M255.98,506.397 Q248.845,510.13 241.049,513.91 225.551,521.564 222.432,521.989 219.314,522.415 215.959,522.273 L213.218,521.989 M318.917,404.219 L318.869,404.242 Q300.395,409.912 299.969,409.912 299.875,409.912 304.222,426.119 308.474,444.169 307.718,452.768 L305.923,472.519 Q304.553,492.931 306.773,496.475" test="Jean Reno body"/>
    </g>
    <g id="Jean-Renof0r1">
      <g id="JeanRenoFace">
        <path fill="#000" stroke="none" d="M-.765,-74.591 Q-5.348,-71.237 -7.569,-66.795 -10.687,-60.511 -16.263,-53.99 -23.539,-45.391 -28.831,-45.06 -33.793,-44.777 -47.637,-50.21 -62.331,-56.4 -66.159,-57.818 -70.6,-59.471 -76.648,-66.653 -84.492,-75.914 -86.051,-77.237 -87.988,-78.891 -88.98,-81.443 -89.784,-84.278 -90.114,-85.364 -90.681,-87.302 -91.721,-87.727 -92.997,-88.294 -95.973,-87.16 -103.628,-84.561 -106.935,-83.096 -112.417,-80.687 -117.236,-75.82 -125.505,-67.74 -129.71,-63.629 -137.223,-56.211 -140.388,-52.148 -158.816,-28.05 -164.486,-20.963 -168.502,-15.954 -170.628,-10.426 -172.377,-5.89 -173.936,2.19 -175.826,12.112 -183.858,39.517 L-184.189,69.804 Q-184.518,104.006 -184.284,124.662 -180.693,127.922 -178.188,133.025 -176.629,136.096 -173.463,143.515 -172.046,146.539 -171.195,153.342 -170.581,158.776 -166.848,163.832 -163.588,168.274 -159.477,171.534 -155.792,174.416 -153.146,178.48 -152.154,179.991 -147.334,190.67 -144.499,197.001 -140.861,197.852 -139.821,198.088 -131.647,201.868 -126.072,204.467 -122.433,203.05 -120.543,202.294 -118.134,202.388 -116.763,202.435 -113.976,202.624 -108.589,202.766 -103.061,198.325 -98.241,194.45 -88.65,191.048 -80.334,188.118 -78.491,185.567 -77.215,183.819 -75.609,183.772 -74.522,183.772 -72.396,184.669 -67.198,186.937 -63.796,185.567 -60.252,184.15 -51.795,180.653 -44.187,178.054 -38.754,178.952 -34.974,179.566 -25.287,183.582 -16.405,187.221 -11.821,187.457 -7.9,187.693 -1.048,193.269 4.952,198.183 8.969,196.907 11.426,196.151 13.977,196.86 15.017,197.143 18.182,198.703 23.333,201.112 27.396,198.325 29.806,196.671 33.161,195.82 35.098,195.348 38.784,194.686 45.257,193.174 47.714,187.457 50.879,180.086 53.573,175.55 56.172,171.109 60.471,165.722 62.078,163.69 69.921,156.933 75.45,152.161 76.536,147.767 77.623,143.467 81.214,138.931 85.75,133.12 86.931,130.757 88.585,127.45 90.475,122.961 92.129,119.984 95.436,119.37 98.933,118.755 99.452,120.645 99.689,121.449 99.216,126.505 98.933,129.765 97.374,132.222 L95.909,134.065 97.374,132.222 Q98.933,129.765 99.216,126.505 99.689,121.449 99.452,120.645 98.933,118.755 95.436,119.37 92.129,119.984 90.475,122.961 88.585,127.45 86.931,130.757 85.75,133.12 81.214,138.931 77.623,143.467 76.536,147.767 75.45,152.161 69.921,156.933 62.078,163.69 60.471,165.722 56.172,171.109 53.573,175.55 50.879,180.086 47.714,187.457 45.257,193.174 38.784,194.686 35.098,195.348 33.161,195.82 29.806,196.671 27.396,198.325 23.333,201.112 18.182,198.703 15.017,197.143 13.977,196.86 11.426,196.151 8.969,196.907 4.952,198.183 -1.048,193.269 -7.9,187.693 -11.821,187.457 -16.405,187.221 -25.287,183.582 -34.974,179.566 -38.754,178.952 -44.187,178.054 -51.795,180.653 -60.252,184.15 -63.796,185.567 -67.198,186.937 -72.396,184.669 -74.522,183.772 -75.609,183.772 -77.215,183.819 -78.491,185.567 -80.334,188.118 -88.65,191.048 -98.241,194.45 -103.061,198.325 -108.589,202.766 -113.976,202.624 -116.763,202.435 -118.134,202.388 -120.543,202.294 -122.433,203.05 -126.072,204.467 -131.647,201.868 -139.821,198.088 -140.861,197.852 -144.499,197.001 -147.334,190.67 -152.154,179.991 -153.146,178.48 -155.792,174.416 -159.477,171.534 -163.588,168.274 -166.848,163.832 -170.581,158.776 -171.195,153.342 -172.046,146.539 -173.463,143.515 -176.629,136.096 -178.188,133.025 -180.693,127.922 -184.284,124.662 -184.285,124.78 -184.284,124.898 -184.047,142.05 -183.386,148.24 -182.913,152.965 -181.118,160.855 -179.181,169.124 -176.298,178.716 -176.062,179.425 -169.731,192.513 -163.683,205.081 -161.651,212.972 -157.398,229.699 -154.516,234.187 -152.957,236.644 -149.791,239.621 -147.759,241.558 -141.806,246.992 -140.199,248.504 -134.435,255.875 -128.765,263.152 -127.064,264.664 -122.906,268.396 -115.062,272.554 -108.306,276.098 -104.478,280.54 -97.533,288.572 -91.768,291.691 -85.531,294.998 -76.128,295.187 -75.94,295.187 -61.245,297.928 -49.243,300.196 -43.006,298.495 -38.187,297.172 -27.745,297.03 -17.728,296.888 -12.105,295.093 -3.458,292.352 2.165,288.477 8.165,284.272 15.111,275.815 18.655,272.649 20.498,270.9 23.758,267.782 24.703,263.388 25.553,259.419 33.964,251.717 42.564,243.873 43.792,239.479 46.343,230.36 50.36,223.934 54.282,217.744 60.329,212.878 64.677,209.428 68.504,199.175 72.378,188.875 75.213,186.465 80.127,182.354 82.726,174.747 84.899,166.62 85.986,163.832 91.326,149.941 95.342,140.632 L98.271,134.065 98.886,135.907 Q100.539,137.892 105.831,138.79 111.36,139.735 115.281,135.388 117.88,132.458 119.061,128.395 119.345,127.355 117.408,117.196 115.234,105.856 115.754,97.162 116.368,87.287 120,76.797 123.314,71.458 129.031,61.725 132.953,55.063 133.756,49.818 134.701,43.534 131.394,38.572 126.905,31.816 124.826,30.729 120,28.697 114.195,33.044 113.297,36.682 111.218,42.872 107.249,54.779 107.249,58.89 107.249,63.898 105.595,71.6 104.792,75.427 103.941,78.262 94.964,45.187 91.184,32.43 87.687,20.665 77.954,-3.575 67.134,-30.507 63.306,-34.665 59.006,-39.343 45.776,-50.352 32.405,-61.503 26.451,-65.378 23.9,-67.031 16.765,-73.741 12.04,-78.182 8.496,-78.182 4.055,-78.182 -.765,-74.591 M63.779,51.283 Q68.929,58.843 68.976,58.89 68.929,58.843 63.779,51.283 59.715,45.282 55.746,43.297 51.541,41.218 39.398,42.73 25.742,44.951 21.254,45.66 14.733,46.699 1.361,51.991 -11.585,57.094 -17.491,60.78 -11.585,57.094 1.361,51.991 14.733,46.699 21.254,45.66 25.742,44.951 39.398,42.73 51.541,41.218 55.746,43.297 59.715,45.282 63.779,51.283 M48.47,68.623 L47.383,73.348 Q45.824,78.64 43.461,81.57 40.484,85.303 35.948,86.72 30.94,88.279 23.144,87.24 10.528,85.586 9.441,67.584 4.267,69.506 -.954,71.931 L-5.206,74.01 -.954,71.931 Q4.267,69.506 9.441,67.584 9.512,67.562 9.583,67.536 25.79,61.63 35.901,62.67 40.296,63.134 48.47,68.623 49.435,69.273 50.454,69.994 60.235,76.939 62.834,77.317 60.235,76.939 50.454,69.994 49.435,69.273 48.47,68.623 M52.486,91.445 Q57.164,89.46 58.109,86.295 57.164,89.46 52.486,91.445 48.942,92.91 44.406,93.382 48.942,92.91 52.486,91.445 M20.12,112.802 Q26.546,113.464 31.176,111.337 26.546,113.464 20.12,112.802 13.646,112.14 9.441,108.975 13.646,112.14 20.12,112.802 M-2.844,82.515 Q0.558,90.217 7.551,93.382 .558,90.217 -2.844,82.515 M-14.137,146.302 L-14.184,143.042 -14.137,146.302 Q-14.231,149.941 -15.129,152.02 -16.027,154.099 -21.319,156.319 L-26.469,158.162 Q-29.587,158.682 -31.194,154.051 -31.194,154.24 -31.194,154.382 -31.194,157.737 -33.415,161.375 -35.872,165.297 -40.644,169.03 -45.888,173.14 -52.456,172.81 -59.638,172.431 -67.104,166.667 -73.435,161.8 -76.034,151.783 -78.018,144.27 -77.546,135.955 -77.262,130.757 -72.679,115.968 -67.812,100.942 -67.104,98.107 -66.159,94.564 -66.064,82.657 -66.159,70.23 -66.159,67.867 -66.159,62.953 -68.285,57.709 -71.12,50.857 -76.128,48.967 -79.2,47.833 -85.767,47.077 -91.863,46.369 -97.863,43.77 -106.179,40.131 -118.701,38.005 -131.505,35.785 -137.081,37.155 -142.515,38.525 -149.13,42.872 -155.272,46.983 -159.761,51.802 -155.272,46.983 -149.13,42.872 -142.515,38.525 -137.081,37.155 -131.505,35.785 -118.701,38.005 -106.179,40.131 -97.863,43.77 -91.863,46.369 -85.767,47.077 -79.2,47.833 -76.128,48.967 -71.12,50.857 -68.285,57.709 -66.159,62.953 -66.159,67.867 -66.159,70.23 -66.064,82.657 -66.159,94.564 -67.104,98.107 -67.812,100.942 -72.679,115.968 -77.262,130.757 -77.546,135.955 -78.018,144.27 -76.034,151.783 -73.435,161.8 -67.104,166.667 -59.638,172.431 -52.456,172.81 -45.888,173.14 -40.644,169.03 -35.872,165.297 -33.415,161.375 -31.194,157.737 -31.194,154.382 -31.194,154.24 -31.194,154.051 -31.572,153.012 -31.855,151.689 L-32.611,144.46 -31.903,147.814 Q-31.241,151.5 -31.194,154.051 -29.587,158.682 -26.469,158.162 L-21.319,156.319 Q-16.027,154.099 -15.129,152.02 -14.231,149.941 -14.137,146.302 M-9.459,207.302 Q-6.482,208.058 -.907,212.405 5.142,217.083 8.024,218.17 11.473,219.493 11.473,226.864 11.473,231.683 11.473,232.061 11.662,234.565 12.749,235.18 16.056,237.07 17.001,239.385 18.277,242.409 14.166,244.63 13.457,245.008 1.22,250.583 -7.663,254.647 -9.931,256.915 -11.065,258.049 -12.105,260.411 L-13.806,264.38 Q-16.168,268.821 -21.271,268.255 -27.414,267.593 -31.95,267.829 -36.061,268.066 -40.171,269.2 -50.046,271.893 -53.307,272.46 -63.135,274.114 -66.159,271.09 -76.412,260.978 -82.743,256.915 -85.2,255.355 -88.65,249.733 -91.863,244.441 -94.556,243.212 -97.674,241.795 -98.761,239.952 -99.753,237.542 -101.171,235.652 -102.919,233.29 -102.919,229.982 L-102.588,227.147 Q-100.415,221.288 -96.493,216.043 -94.745,213.728 -89.358,207.775 -86.76,204.892 -81.657,203.711 -75.656,202.246 -73.293,200.687 -70.08,198.561 -63.654,198.325 -56.236,198.088 -54.346,197.38 -51.842,196.482 -43.195,197.616 -34.123,198.844 -30.249,197.852 -25.854,196.765 -19.145,201.349 -10.971,206.924 -9.459,207.302 M-84.633,69.285 Q-93.545,64.828 -96.777,63.331 L-96.351,64.418 Q-96.068,66.403 -96.918,70.702 -98.052,76.609 -101.974,79.585 -106.794,83.318 -116.291,82.987 -125.316,82.657 -129.615,76.797 -132.261,73.065 -133.443,65.883 -144.682,70.238 -147.476,74.01 -144.682,70.238 -133.443,65.883 -133.28,65.853 -133.112,65.788 -126.639,63.379 -118.984,61.347 -112.369,59.599 -109.676,59.362 -106.321,59.079 -97.674,62.906 -97.297,63.074 -96.777,63.331 -93.545,64.828 -84.633,69.285 M-89.169,87.287 Q-86.523,83.838 -86.523,80.152 -86.523,83.838 -89.169,87.287 -91.626,90.453 -95.028,91.965 -91.626,90.453 -89.169,87.287 M-142.467,91.917 Q-138.026,95.603 -133.301,96.69 -138.026,95.603 -142.467,91.917 -147.098,88.043 -149.838,82.515 -147.098,88.043 -142.467,91.917 M-133.773,105.195 Q-128.859,109.495 -126.78,110.345 -121.394,112.519 -113.456,109.447 -121.394,112.519 -126.78,110.345 -128.859,109.495 -133.773,105.195 M53.336,-108.942 Q48.517,-110.36 46.391,-111.73 43.461,-113.525 42.989,-116.455 42.091,-121.747 50.265,-126.708 54.329,-129.212 58.581,-130.63 54.47,-131.102 49.037,-130.866 38.169,-130.394 31.649,-126.85 28.152,-124.913 25.176,-125.385 23.191,-125.669 20.261,-127.417 16.812,-129.496 15.253,-130.016 12.087,-131.102 8.496,-130.157 2.495,-128.598 -8.939,-133.985 -15.649,-137.15 -16.546,-137.528 -20.185,-138.946 -21.744,-138.19 -24.909,-136.583 -44.802,-137.481 -62.379,-138.284 -71.403,-139.607 -77.357,-140.505 -86.287,-147.923 L-94.083,-155.2 -93.422,-151.94 Q-92.713,-148.112 -92.619,-145.088 -92.241,-135.544 -97.863,-138.19 -103.486,-140.836 -115.393,-141.214 L-126.213,-141.025 -118.464,-133.937 Q-111.755,-127.086 -116.763,-128.267 -121.772,-129.449 -132.309,-125.196 L-141.806,-120.707 -139.632,-120.566 Q-137.128,-120.282 -135.474,-119.573 -130.182,-117.353 -135.191,-111.73 -145.822,-99.823 -151.209,-92.924 -162.738,-78.135 -172.518,-60.653 -180.456,-46.478 -183.102,-13.166 -184.756,7.954 -184.095,32.288 -184,36.824 -183.858,39.517 -175.826,12.112 -173.936,2.19 -172.377,-5.89 -170.628,-10.426 -168.502,-15.954 -164.486,-20.963 -158.816,-28.05 -140.388,-52.148 -137.223,-56.211 -129.71,-63.629 -125.505,-67.74 -117.236,-75.82 -112.417,-80.687 -106.935,-83.096 -103.628,-84.561 -95.973,-87.16 -92.997,-88.294 -91.721,-87.727 -90.681,-87.302 -90.114,-85.364 -89.784,-84.278 -88.98,-81.443 -87.988,-78.891 -86.051,-77.237 -84.492,-75.914 -76.648,-66.653 -70.6,-59.471 -66.159,-57.818 -62.331,-56.4 -47.637,-50.21 -33.793,-44.777 -28.831,-45.06 -23.539,-45.391 -16.263,-53.99 -10.687,-60.511 -7.569,-66.795 -5.348,-71.237 -.765,-74.591 4.055,-78.182 8.496,-78.182 12.04,-78.182 16.765,-73.741 23.9,-67.031 26.451,-65.378 32.405,-61.503 45.776,-50.352 59.006,-39.343 63.306,-34.665 67.134,-30.507 77.954,-3.575 87.687,20.665 91.184,32.43 94.964,45.187 103.941,78.262 104.792,75.427 105.595,71.6 107.249,63.898 107.249,58.89 107.249,54.779 111.218,42.872 113.297,36.682 114.195,33.044 114.903,29.926 114.809,28.65 114.572,26.051 113.297,18.16 111.785,9.183 111.029,2.662 108.336,-20.537 107.958,-24.317 106.02,-43.123 106.304,-48.84 106.635,-55.266 92.412,-75.678 78.71,-95.381 70.394,-101.807 65,-105.209 53.336,-108.942Z" test="JeanRenoFace" vector-effect="non-scaling-stroke" stroke-width="1"/>
        <path id="Layer4_0_1_STROKES" stroke="#FFF" stroke-width="1.89" stroke-linejoin="round" stroke-linecap="round" fill="none" d="M-183.858,39.517 Q-184,36.824 -184.095,32.288 -184.756,7.954 -183.102,-13.166 -180.456,-46.478 -172.518,-60.653 -162.738,-78.135 -151.209,-92.924 -145.822,-99.823 -135.191,-111.73 -130.182,-117.353 -135.474,-119.573 -137.128,-120.282 -139.632,-120.566 L-141.806,-120.707 -132.309,-125.196 Q-121.772,-129.449 -116.763,-128.267 -111.755,-127.086 -118.464,-133.937 L-126.213,-141.025 -115.393,-141.214 Q-103.486,-140.836 -97.863,-138.19 -92.241,-135.544 -92.619,-145.088 -92.713,-148.112 -93.422,-151.94 L-94.083,-155.2 -86.287,-147.923 Q-77.357,-140.505 -71.403,-139.607 -62.379,-138.284 -44.802,-137.481 -24.909,-136.583 -21.744,-138.19 -20.185,-138.946 -16.546,-137.528 -15.649,-137.15 -8.939,-133.985 2.495,-128.598 8.496,-130.157 12.087,-131.102 15.253,-130.016 16.812,-129.496 20.261,-127.417 23.191,-125.669 25.176,-125.385 28.152,-124.913 31.649,-126.85 38.169,-130.394 49.037,-130.866 54.47,-131.102 58.581,-130.63 54.329,-129.212 50.265,-126.708 42.091,-121.747 42.989,-116.455 43.461,-113.525 46.391,-111.73 48.517,-110.36 53.336,-108.942 65,-105.209 70.394,-101.807 78.71,-95.381 92.412,-75.678 106.635,-55.266 106.304,-48.84 106.02,-43.123 107.958,-24.317 108.336,-20.537 111.029,2.662 111.785,9.183 113.297,18.16 114.572,26.051 114.809,28.65 114.903,29.926 114.195,33.044 120,28.697 124.826,30.729 126.905,31.816 131.394,38.572 134.701,43.534 133.756,49.818 132.953,55.063 129.031,61.725 123.314,71.458 120,76.797 116.368,87.287 115.754,97.162 115.234,105.856 117.408,117.196 119.345,127.355 119.061,128.395 117.88,132.458 115.281,135.388 111.36,139.735 105.831,138.79 100.539,137.892 98.886,135.907 L98.271,134.065 95.342,140.632 Q91.326,149.941 85.986,163.832 84.899,166.62 82.726,174.747 80.127,182.354 75.213,186.465 72.378,188.875 68.504,199.175 64.677,209.428 60.329,212.878 54.282,217.744 50.36,223.934 46.343,230.36 43.792,239.479 42.564,243.873 33.964,251.717 25.553,259.419 24.703,263.388 23.758,267.782 20.498,270.9 18.655,272.649 15.111,275.815 8.165,284.272 2.165,288.477 -3.458,292.352 -12.105,295.093 -17.728,296.888 -27.745,297.03 -38.187,297.172 -43.006,298.495 -49.243,300.196 -61.245,297.928 -75.94,295.187 -76.128,295.187 -85.531,294.998 -91.768,291.691 -97.533,288.572 -104.478,280.54 -108.306,276.098 -115.062,272.554 -122.906,268.396 -127.064,264.664 -128.765,263.152 -134.435,255.875 -140.199,248.504 -141.806,246.992 -147.759,241.558 -149.791,239.621 -152.957,236.644 -154.516,234.187 -157.398,229.699 -161.651,212.972 -163.683,205.081 -169.731,192.513 -176.062,179.425 -176.298,178.716 -179.181,169.124 -181.118,160.855 -182.913,152.965 -183.386,148.24 -184.047,142.05 -184.284,124.898 -184.285,124.78 -184.284,124.662 -184.518,104.006 -184.189,69.804 L-183.858,39.517 Q-175.826,12.112 -173.936,2.19 -172.377,-5.89 -170.628,-10.426 -168.502,-15.954 -164.486,-20.963 -158.816,-28.05 -140.388,-52.148 -137.223,-56.211 -129.71,-63.629 -125.505,-67.74 -117.236,-75.82 -112.417,-80.687 -106.935,-83.096 -103.628,-84.561 -95.973,-87.16 -92.997,-88.294 -91.721,-87.727 -90.681,-87.302 -90.114,-85.364 -89.784,-84.278 -88.98,-81.443 -87.988,-78.891 -86.051,-77.237 -84.492,-75.914 -76.648,-66.653 -70.6,-59.471 -66.159,-57.818 -62.331,-56.4 -47.637,-50.21 -33.793,-44.777 -28.831,-45.06 -23.539,-45.391 -16.263,-53.99 -10.687,-60.511 -7.569,-66.795 -5.348,-71.237 -.765,-74.591 4.055,-78.182 8.496,-78.182 12.04,-78.182 16.765,-73.741 23.9,-67.031 26.451,-65.378 32.405,-61.503 45.776,-50.352 59.006,-39.343 63.306,-34.665 67.134,-30.507 77.954,-3.575 87.687,20.665 91.184,32.43 94.964,45.187 103.941,78.262 104.792,75.427 105.595,71.6 107.249,63.898 107.249,58.89 107.249,54.779 111.218,42.872 113.297,36.682 114.195,33.044 M-17.491,60.78 Q-11.585,57.094 1.361,51.991 14.733,46.699 21.254,45.66 25.742,44.951 39.398,42.73 51.541,41.218 55.746,43.297 59.715,45.282 63.779,51.283 68.929,58.843 68.976,58.89 M9.441,67.584 Q10.528,85.586 23.144,87.24 30.94,88.279 35.948,86.72 40.484,85.303 43.461,81.57 45.824,78.64 47.383,73.348 L48.47,68.623 Q40.296,63.134 35.901,62.67 25.79,61.63 9.583,67.536 9.512,67.562 9.441,67.584 4.267,69.506 -.954,71.931 L-5.206,74.01 M48.47,68.623 Q49.435,69.273 50.454,69.994 60.235,76.939 62.834,77.317 M44.406,93.382 Q48.942,92.91 52.486,91.445 57.164,89.46 58.109,86.295 M-184.284,124.662 Q-180.693,127.922 -178.188,133.025 -176.629,136.096 -173.463,143.515 -172.046,146.539 -171.195,153.342 -170.581,158.776 -166.848,163.832 -163.588,168.274 -159.477,171.534 -155.792,174.416 -153.146,178.48 -152.154,179.991 -147.334,190.67 -144.499,197.001 -140.861,197.852 -139.821,198.088 -131.647,201.868 -126.072,204.467 -122.433,203.05 -120.543,202.294 -118.134,202.388 -116.763,202.435 -113.976,202.624 -108.589,202.766 -103.061,198.325 -98.241,194.45 -88.65,191.048 -80.334,188.118 -78.491,185.567 -77.215,183.819 -75.609,183.772 -74.522,183.772 -72.396,184.669 -67.198,186.937 -63.796,185.567 -60.252,184.15 -51.795,180.653 -44.187,178.054 -38.754,178.952 -34.974,179.566 -25.287,183.582 -16.405,187.221 -11.821,187.457 -7.9,187.693 -1.048,193.269 4.952,198.183 8.969,196.907 11.426,196.151 13.977,196.86 15.017,197.143 18.182,198.703 23.333,201.112 27.396,198.325 29.806,196.671 33.161,195.82 35.098,195.348 38.784,194.686 45.257,193.174 47.714,187.457 50.879,180.086 53.573,175.55 56.172,171.109 60.471,165.722 62.078,163.69 69.921,156.933 75.45,152.161 76.536,147.767 77.623,143.467 81.214,138.931 85.75,133.12 86.931,130.757 88.585,127.45 90.475,122.961 92.129,119.984 95.436,119.37 98.933,118.755 99.452,120.645 99.689,121.449 99.216,126.505 98.933,129.765 97.374,132.222 L95.909,134.065 M34.484,69.285 L38.264,70.23 M9.441,108.975 Q13.646,112.14 20.12,112.802 26.546,113.464 31.176,111.337 M-2.844,82.515 Q0.558,90.217 7.551,93.382 M-31.194,154.051 Q-29.587,158.682 -26.469,158.162 L-21.319,156.319 Q-16.027,154.099 -15.129,152.02 -14.231,149.941 -14.137,146.302 L-14.184,143.042 M-31.194,154.051 Q-31.241,151.5 -31.903,147.814 L-32.611,144.46 -31.855,151.689 Q-31.572,153.012 -31.194,154.051 -31.194,154.24 -31.194,154.382 -31.194,157.737 -33.415,161.375 -35.872,165.297 -40.644,169.03 -45.888,173.14 -52.456,172.81 -59.638,172.431 -67.104,166.667 -73.435,161.8 -76.034,151.783 -78.018,144.27 -77.546,135.955 -77.262,130.757 -72.679,115.968 -67.812,100.942 -67.104,98.107 -66.159,94.564 -66.064,82.657 -66.159,70.23 -66.159,67.867 -66.159,62.953 -68.285,57.709 -71.12,50.857 -76.128,48.967 -79.2,47.833 -85.767,47.077 -91.863,46.369 -97.863,43.77 -106.179,40.131 -118.701,38.005 -131.505,35.785 -137.081,37.155 -142.515,38.525 -149.13,42.872 -155.272,46.983 -159.761,51.802 M-87.941,223.367 Q-83.783,220.721 -78.207,219.115 -72.16,217.366 -67.104,217.697 -64.363,217.886 -58.174,220.107 -52.976,221.997 -48.204,221.477 -44.424,221.052 -37.336,218.548 -31.052,216.28 -26.469,216.28 -20.61,216.28 -15.46,218.642 -11.301,220.579 -8.041,223.84 M-102.588,227.147 Q-100.415,221.288 -96.493,216.043 -94.745,213.728 -89.358,207.775 -86.76,204.892 -81.657,203.711 -75.656,202.246 -73.293,200.687 -70.08,198.561 -63.654,198.325 -56.236,198.088 -54.346,197.38 -51.842,196.482 -43.195,197.616 -34.123,198.844 -30.249,197.852 -25.854,196.765 -19.145,201.349 -10.971,206.924 -9.459,207.302 -6.482,208.058 -.907,212.405 5.142,217.083 8.024,218.17 11.473,219.493 11.473,226.864 11.473,231.683 11.473,232.061 11.662,234.565 12.749,235.18 16.056,237.07 17.001,239.385 18.277,242.409 14.166,244.63 13.457,245.008 1.22,250.583 -7.663,254.647 -9.931,256.915 -11.065,258.049 -12.105,260.411 L-13.806,264.38 Q-16.168,268.821 -21.271,268.255 -27.414,267.593 -31.95,267.829 -36.061,268.066 -40.171,269.2 -50.046,271.893 -53.307,272.46 -63.135,274.114 -66.159,271.09 -76.412,260.978 -82.743,256.915 -85.2,255.355 -88.65,249.733 -91.863,244.441 -94.556,243.212 -97.674,241.795 -98.761,239.952 -99.753,237.542 -101.171,235.652 -102.919,233.29 -102.919,229.982 L-102.588,227.147Z M-184.803,31.957 Q-190.001,25.011 -198.128,24.681 -206.16,24.397 -207.956,30.54 -209.184,34.745 -202.947,48.306 -196.143,63.001 -196.143,67.867 -196.143,73.065 -195.907,91.303 -195.907,108.077 -197.088,113.7 -198.364,119.842 -196.096,121.969 -194.301,123.622 -190.473,122.725 M-84.633,69.285 Q-93.545,64.828 -96.753,63.331 L-96.351,64.418 Q-96.068,66.403 -96.918,70.702 -98.052,76.609 -101.974,79.585 -106.794,83.318 -116.291,82.987 -125.316,82.657 -129.615,76.797 -132.261,73.065 -133.443,65.906 -144.682,70.238 -147.476,74.01 M-96.753,63.331 Q-97.297,63.074 -97.674,62.906 -106.321,59.079 -109.676,59.362 -112.369,59.599 -118.984,61.347 -126.639,63.379 -133.112,65.788 -133.28,65.853 -133.443,65.906 M-108.731,65.505 L-106.368,65.977 M-95.028,91.965 Q-91.626,90.453 -89.169,87.287 -86.523,83.838 -86.523,80.152 M-149.838,82.515 Q-147.098,88.043 -142.467,91.917 -138.026,95.603 -133.301,96.69 M-133.773,105.195 Q-128.859,109.495 -126.78,110.345 -121.394,112.519 -113.456,109.447 M-53.874,207.302 Q-45.369,208.72 -41.116,208.72 M-53.401,229.51 Q-49.763,229.037 -48.723,229.084 -46.503,229.179 -43.006,230.455" test="JeanRenoFace"/>
      </g>
      <g id="TearAnimf0r1">
        <g id="TearGraphic">
          <path id="Layer5_0_1_STROKES" stroke="#0FF" stroke-width="1" stroke-linejoin="round" stroke-linecap="round" fill="none" d="M-111.855,82.596 Q-111.864,82.973 -111.955,83.233 -112.059,83.51 -112.369,83.952 -112.683,84.402 -112.501,84.993 -112.319,85.599 -111.814,85.617 -111.318,85.635 -111.09,85.194 -110.904,84.834 -110.94,84.329 -110.958,84.079 -111.313,83.565 -111.7,83.001 -111.814,82.45" test="TearGraphic" vector-effect="non-scaling-stroke"/>
        </g>
      </g>
    </g>
    <g id="BlackMaskRect">
      <path fill="#000" stroke="none" d="M823.45,613.6 L823.45,508.3 -23.6,508.3 -23.6,613.6 823.45,613.6Z" test="BlackMaskRect"/>
    </g>
  </g>
</svg>