<?xml version="1.0" encoding="utf-8"?>
<svg id="EdithAnim06" image-rendering="inherit" baseProfile="basic" version="1.1" x="0px" y="0px" width="800" height="600" xmlns="http://www.w3.org/2000/svg" xmlns:xlink="http://www.w3.org/1999/xlink">
  <g id="Jean-Renof67r1" overflow="visible">
    <g id="Bec-nom-Jean">
      <path id="Layer3_0_1_STROKES" stroke="#F90" stroke-width="1.796" stroke-linejoin="round" stroke-linecap="round" fill="none" d="M790.4,457.691 Q790.22,457.557 790.041,457.422 M757.668,502.098 Q758.476,510 758.386,519.115 758.296,527.96 757.443,532.63 M808.584,438.609 Q806.294,438.923 805.396,439.103 805.082,439.238 804.858,439.238" test="Bec nom Jean"/>
      <path id="Layer3_0_2_STROKES" stroke="#FFF" stroke-width="1.796" stroke-linejoin="round" stroke-linecap="round" fill="none" d="M755.019,245.808 Q754.615,241.453 754.974,239.298 755.513,236.29 757.713,234.583 760.362,232.563 764.717,233.326 769.387,234.179 770.823,237.816 M754.884,288.553 Q752.863,292.459 752.639,296.051 752.421,299.467 753.919,301.305 753.947,301.35 753.986,301.395 757.264,305.301 762.517,305.301 767.187,305.256 771.587,302.337 M702.89,311.677 Q708.547,308.848 712.543,309.566 715.776,310.105 719.503,313.473 720.805,314.64 721.523,315.763 L726.417,315.224 Q732.03,314.416 735.801,313.024 741.594,310.868 746.533,307.905 750.962,305.234 752.908,302.854 753.548,302.059 753.919,301.305 M697.861,280.83 Q696.649,271.491 701.992,268.034 705.135,266.013 709.445,266.866 713.217,267.585 716.36,270.054 M721.523,315.763 Q722.517,317.268 722.78,318.95 722.925,319.931 722.825,320.971 722.601,323.44 720.85,326.943" test="Bec nom Jean"/>
      <path id="Layer3_0_3_STROKES" stroke="#FEB7AE" stroke-width="1.796" stroke-linejoin="round" stroke-linecap="round" fill="none" d="M782.408,217.701 Q787.796,225.963 792.331,234.269 805.739,258.889 807.013,275.802 807.082,276.713 807.103,278.002 807.417,296.411 800.996,308.354 796.416,316.84 787.796,322.902 776.167,331.029 768.399,334.261 752.774,340.682 733.871,339.515 719.368,338.617 709.894,336.012 701.902,333.767 696.918,330.041 M758.79,339.784 Q760.137,341.58 761.26,343.825 M820.124,396.134 Q817.115,393.978 813.748,391.778 807.013,387.468 805.172,387.513 803.241,387.558 802.343,388.86 801.715,389.803 801.715,390.97 801.715,393.574 802.209,395.729 802.837,398.423 804.049,399.501 805.845,401.073 805.531,400.983 802.747,400.13 799.335,399.366 792.51,397.84 789.232,398.244 783.979,398.917 780.163,405.114 778.322,408.077 779.669,412.342 780.836,416.069 783.081,417.775 785.416,419.526 788.649,420.963 792.6,422.714 795.743,422.849 800.547,423.074 808.45,421.502 M788.2,440.136 L793.273,436.588 Q798.931,432.907 801.715,432.054 806.878,430.527 807.956,430.392 811.009,429.988 812.042,432.054 813.029,434.029 809.707,436.588 808.001,437.846 805.396,439.103 M808.584,438.609 Q814.107,438.519 818.328,441.034 L824.075,444.311 Q829.732,448.218 829.328,451.585 828.789,455.806 826.499,458.949 824.075,462.316 820.797,462.81 816.262,463.484 811.997,463.259 806.429,462.945 805.082,461.014 804.678,460.43 802.388,459.667 801.221,459.263 797.629,458.275 796.012,457.826 793.408,458.006 791.163,458.14 790.4,457.691 M774.056,336.866 L771.811,333.274" test="Bec nom Jean"/>
      <path id="Layer3_0_4_STROKES" stroke="#00F" stroke-width="1.796" stroke-linejoin="round" stroke-linecap="round" fill="none" d="M810.829,282.267 L825.646,308.848 841.227,292.819 Q838.892,289.137 835.345,282.043 828.251,267.899 822.369,251.062 816.217,233.506 801.041,216.129 793.678,207.688 775.673,191.3 765.435,181.961 746.982,178.818 730.818,176.079 719.952,179.177 700.869,184.61 691.575,188.785 670.921,197.945 661.133,211.55 647.348,230.632 641.646,245.135 634.103,264.352 638.683,279.349 643.756,295.917 663.557,327.077 683.403,358.283 692.114,363.312 699.432,367.532 715.147,367.847 723.005,368.026 729.381,367.353 L696.918,330.041 Q693.73,327.706 691.216,324.249 687.399,319.04 676.219,301.08 664.949,282.941 665.623,282.941 L685.334,267.495 Q707.425,250.568 719.503,242.98 731.581,235.392 755.962,222.505 768.129,216.04 777.918,211.101 L782.408,217.701" test="Bec nom Jean"/>
      <path id="Layer3_0_5_STROKES" stroke="#0FF" stroke-width="1.796" stroke-linejoin="round" stroke-linecap="round" fill="none" d="M818.507,401.477 L816.711,404.754 Q815.05,409.02 815.589,413.824 816.172,418.808 816.756,419.212 817.385,419.661 821.426,420.559 825.377,422.176 841.676,422.804 856.897,423.388 864.575,422.625 872.971,421.816 881.233,420.245 891.245,418.359 893.984,416.518 896.813,414.632 902.111,406.101 907.14,398.019 907.679,395.191 908.217,392.586 906.287,386.749 904.266,380.598 900.495,374.088 897.082,368.161 886.441,360.618 878.539,355.05 870.861,351.189 864.62,348.091 851.464,343.062 837.096,337.539 832.92,337.09 825.916,336.686 821.92,336.461 814.601,336.057 810.919,334.845 806.923,333.498 801.849,333.318 799.694,333.229 792.465,333.498 L784.608,333.723 785.551,336.372 Q786.359,339.38 785.955,340.907 785.506,342.568 782.812,344.229 781.375,345.127 776.975,347.193 771.632,349.707 768.578,350.874 763.101,352.94 761.035,352.356 758.745,351.683 756.635,350.291 754.615,348.989 753.402,347.417 M729.381,415.441 L733.871,432.054 M790.4,457.691 Q790.4,457.647 790.445,457.647 788.649,441.483 788.2,440.136 787.885,439.148 778.097,438.07 768.578,436.993 761.26,436.993 758.656,436.993 739.169,435.197 722.96,433.715 719.054,434.748 715.147,435.78 716.18,433.805 717.976,430.437 717.707,429.809 717.258,428.641 724.487,419.257 733.287,407.897 735.667,403.318 740.606,393.889 741.504,391.195 M747.79,349.887 Q744.332,352.356 740.606,355.05 733.197,360.438 732.075,361.561 M713.666,382.215 Q705.045,394.787 696.289,408.032 678.778,434.523 678.195,437.891 677.476,442.156 686.726,449.16 696.334,456.479 706.033,458.096 714.833,459.577 744.243,459.802 768.938,459.981 778.771,459.443 784.114,459.173 787.796,458.365 789.637,458.006 790.4,457.691 M745.545,462.81 L751.202,478.435 Q756.949,495.363 757.668,502.098 L778.097,503.983 Q799.874,505.6 806.609,504.343 817.654,502.277 829.418,498.73 845.133,494.016 852.901,489.077 858.738,485.395 867.628,480.276 873.779,476.549 874.453,474.035 875.351,470.802 875.171,465.055 874.991,458.769 873.555,452.708 872.297,447.364 868.885,435.376 L865.697,424.421 M850.431,380.598 L856.044,390.925 M825.242,364.883 L848.456,374.806 Q871.804,385.133 872.657,387.109 875.351,393.395 872.657,394.742 871.579,395.28 861.701,394.742 851.194,394.158 848.411,394.742 845.492,395.325 840.194,395.729 834.357,396.134 831.977,396.538 828.834,397.076 826.41,398.379 824.03,399.636 823.671,399.681" test="Bec nom Jean"/>
    </g>
    <g id="Jean-Reno-body">
      <path id="Layer2_0_1_STROKES" stroke="#FEB7AE" stroke-width="1.89" stroke-linejoin="round" stroke-linecap="round" fill="none" d="M177.044,178.167 Q183.187,184.31 221.507,190.452 247.258,194.61 274.427,197.067 281.703,197.729 324.275,206.422 360.611,213.794 367.037,212.187 376.818,209.73 384.283,206.753 393.78,202.926 402.947,197.067 412.066,191.208 424.256,189.413 434.463,187.853 442.684,189.507 448.59,190.688 454.26,192.578 457.095,193.523 458.749,194.232 457.095,194.704 455.205,195.697 451.52,197.729 450.622,200.516 449.724,203.304 452.795,206.139 454.355,207.509 456.056,208.36 454.166,209.116 452.465,210.486 449.016,213.227 449.913,216.156 450.811,219.133 456.481,220.409 459.316,221.07 461.962,221.117 L463.001,227.165 Q464.466,233.497 466.687,234.82 468.908,236.143 474.294,233.591 476.987,232.363 479.208,230.804 L481.004,234.82 Q483.461,238.741 487.004,238.127 490.548,237.56 493.525,234.489 494.99,232.93 495.746,231.512 L499.195,232.93 Q502.881,234.111 504.062,232.93 505.243,231.748 506.188,228.441 L506.897,225.37 509.165,238.316 Q511.244,252.113 510.204,256.082 510.11,256.413 509.117,261.28 508.409,264.729 507.511,266.997 504.865,273.754 498.108,277.345 M430.304,231.985 Q438.526,230 449.771,231.938 466.167,234.725 474.719,245.687 478.027,249.94 484.925,258.681 490.832,266.383 494.139,272.573 503.069,289.299 499.526,306.404 496.029,323.225 486.674,338.675 482.374,345.763 474.011,356.016 471.648,358.898 462.86,365.797 452.417,373.971 439.707,382.193 404.222,405.203 371.951,415.126 L356.217,419.969 Q358.856,423.27 360.989,433.931 363.162,444.799 362.265,450.799 361.508,455.903 364.202,459.304 364.91,460.249 368.407,462.848 371.195,464.927 375.4,471.542 380.834,480.047 379.747,485.056 378.613,490.489 373.699,495.734 369.258,500.412 365.336,501.593 362.406,502.491 356.831,502.585 L351.869,502.538 358.295,503.861 Q365.525,506.176 369.825,511.043 375.4,517.375 377.668,521.816 380.314,526.919 378.802,529.943 377.763,532.07 374.975,538.496 371.525,544.449 365.1,547.426 359.099,550.214 346.011,547.142 339.443,545.394 336.655,544.685 331.93,543.504 330.135,543.646 327.772,543.835 309.203,548.56 290.397,553.379 283.83,554.041 276.931,554.749 268.662,551.253 264.788,549.458 263.229,548.843 260.677,547.757 259.496,547.898 255.716,548.087 253.778,548.324 250.424,548.796 247.919,550.733 245.085,552.907 241.21,551.962 237.525,551.064 236.58,548.607 235.493,545.819 235.587,544.166 235.729,541.85 237.997,540.102 240.076,538.496 243.383,537.929 245.037,537.692 246.266,537.739 245.368,536.7 244.754,535.33 243.525,532.589 244.848,531.124 246.313,529.518 250.14,528.715 253.353,528.053 255.952,528.29 257.086,528.384 254.534,526.589 251.369,524.368 252.408,523.328 253.637,522.1 256.803,522.194 258.267,522.242 261.858,522.856 263.087,523.045 265.071,524.462 266.489,525.502 267.528,524.982 270.836,523.328 275.277,521.249 282.081,518.083 284.775,517.186 289.027,515.768 293.28,514.823 M189.046,179.254 Q193.204,177.269 208.088,168.386 222.074,160.496 227.082,160.354 240.076,159.976 244.092,160.354 256.897,161.535 268.71,167.441 294.035,180.104 297.674,181.994 313.881,190.594 320.921,196.264 327.725,201.745 333.395,205.005 336.23,206.659 337.694,207.179 M166.366,243.277 Q166.366,239.214 167.358,234.205 169.39,224.141 174.398,219.416 184.935,209.494 198.496,211.62 203.694,212.423 213.852,218.66 223.208,224.378 225.665,227.449 227.602,229.859 232.421,230.756 236.107,231.465 241.021,231.229 243.667,231.134 257.606,230.142 271.025,229.386 274.852,230.284 281.184,231.748 295.831,236.71 312.605,242.427 315.723,244.931 318.086,246.821 326.118,253.814 333.631,260.051 336.513,261.232 339.821,262.556 340.34,263.453 340.671,264.068 340.057,266.241 339.821,267.092 340.34,273.376 340.86,280.227 340.057,285.614 339.065,292.276 333.962,309.711 329.142,326.154 326.591,332.391 324.512,337.541 317.944,348.976 311.943,359.418 309.817,362.159 308.352,364.096 305.045,368.018 L302.021,371.609 306.557,372.364 Q311.66,373.357 314.306,374.68 316.432,375.766 321.063,377.94 324.937,380.208 327.063,383.657 329.851,388.193 330.513,390.461 331.363,393.438 330.371,396.887 329.379,400.289 327.016,403.927 325.079,406.904 322.811,409.172 319.739,412.244 317.85,413.756 314.495,416.449 312.179,416.732 309.108,417.157 307.691,417.016 305.517,416.78 301.785,415.315 298.761,414.133 296.634,411.677 293.657,408.275 291.626,406.81 288.791,404.731 287.326,401.801 285.483,398.021 283.593,395.942 280.475,392.493 278.443,391.265 276.978,390.414 274.143,389.8 271.875,389.327 271.497,389.422 270.127,390.036 267.765,390.981 263.512,393.155 261.905,393.769 259.307,394.714 257.842,392.635 255.527,389.422 255.149,388.335 254.393,386.209 255.479,383.185 256.803,379.594 257.322,378.885 258.126,377.893 261.15,376.57 265.686,374.538 271.781,376.57 272.442,376.806 271.781,373.357 270.08,364.096 270.032,363.859 267.386,347.133 269.891,333.809 272.206,321.665 278.349,303.096 283.31,288.118 282.885,286.559 282.365,284.621 268.52,285.188 253.117,285.85 250.754,284.905 248.109,283.865 233.272,279.849 219.428,276.069 218.577,275.455 M145.812,253.72 Q159.042,266.052 166.461,271.297 186.211,285.33 210.308,292.229 233.933,299.032 256.188,306.356 267.292,309.994 273.671,312.31 M302.682,509.626 Q301.69,505.468 283.782,473.149 265.544,440.168 264.174,435.916 261.433,427.316 259.307,417.157 256.708,404.778 257.795,402.085 258.881,399.486 261.858,396.793 263.796,394.997 266.064,393.58 M292.996,504.901 Q291.72,505.846 289.736,506.744 285.861,508.586 282.601,508.444 279.246,508.303 273.057,505.846 268.568,504.05 265.827,502.538 264.835,501.971 264.079,499.845 263.417,498.049 262.284,498.049 261.15,498.049 258.693,500.176 255.905,502.585 254.723,503.011 252.928,503.672 249.337,502.727 246.171,501.877 244.328,500.648 242.864,499.703 242.486,497.53 242.249,496.018 242.438,492.852 242.58,490.537 243.903,489.166 243.95,489.072 246.927,486.709 248.392,485.528 249.951,485.056 250.707,484.819 251.18,484.819 M259.448,485.292 Q259.26,484.489 259.496,483.449 259.874,481.37 261.811,480.331 263.748,479.291 267.056,479.622 268.898,479.811 271.97,480.331 273.34,480.472 275.891,481.607 278.301,482.693 279.057,482.693 M293.28,522.147 Q286.145,525.88 278.349,529.66 262.851,537.314 259.732,537.739 256.614,538.165 253.259,538.023 L250.518,537.739 M356.217,419.969 L356.169,419.992 Q337.694,425.662 337.269,425.662 337.175,425.662 341.522,441.869 345.774,459.919 345.018,468.518 L343.223,488.269 Q341.852,508.681 344.073,512.225" test="Jean Reno body"/>
    </g>
    <g id="Jean-Renof0r1">
      <g id="JeanRenoFace">
        <path fill="#000" stroke="none" d="M44.185,-55.491 Q39.602,-52.137 37.381,-47.695 34.263,-41.411 28.687,-34.89 21.411,-26.291 16.119,-25.96 11.157,-25.677 -2.687,-31.11 -17.381,-37.3 -21.209,-38.718 -25.65,-40.371 -31.698,-47.553 -39.542,-56.814 -41.101,-58.137 -43.038,-59.791 -44.03,-62.343 -44.834,-65.178 -45.164,-66.264 -45.731,-68.202 -46.771,-68.627 -48.047,-69.194 -51.023,-68.06 -58.678,-65.461 -61.985,-63.996 -67.467,-61.587 -72.286,-56.72 -80.555,-48.64 -84.76,-44.529 -92.273,-37.111 -95.438,-33.048 -113.866,-8.95 -119.536,-1.863 -123.552,3.146 -125.679,8.674 -127.427,13.21 -128.986,21.29 -130.876,31.212 -138.908,58.617 L-139.239,88.904 Q-139.568,123.106 -139.334,143.762 -135.743,147.022 -133.239,152.125 -131.679,155.196 -128.514,162.615 -127.096,165.639 -126.245,172.442 -125.631,177.876 -121.899,182.932 -118.638,187.374 -114.527,190.634 -110.842,193.516 -108.196,197.58 -107.204,199.091 -102.384,209.77 -99.549,216.101 -95.911,216.952 -94.871,217.188 -86.697,220.968 -81.122,223.567 -77.483,222.15 -75.593,221.394 -73.184,221.488 -71.813,221.535 -69.026,221.724 -63.639,221.866 -58.111,217.425 -53.291,213.55 -43.7,210.148 -35.384,207.218 -33.541,204.667 -32.265,202.919 -30.659,202.872 -29.572,202.872 -27.446,203.769 -22.248,206.037 -18.846,204.667 -15.302,203.249 -6.845,199.753 .763,197.154 6.196,198.052 9.976,198.666 19.663,202.682 28.545,206.321 33.129,206.557 37.051,206.793 43.902,212.369 49.902,217.283 53.919,216.007 56.376,215.251 58.927,215.96 59.967,216.243 63.133,217.802 68.283,220.212 72.346,217.425 74.756,215.771 78.111,214.92 80.048,214.448 83.733,213.786 90.207,212.274 92.664,206.557 95.829,199.186 98.523,194.65 101.122,190.209 105.421,184.822 107.028,182.79 114.871,176.033 120.399,171.261 121.486,166.867 122.573,162.567 126.164,158.031 130.7,152.22 131.881,149.857 133.535,146.55 135.425,142.061 137.079,139.084 140.386,138.47 143.883,137.855 144.402,139.745 144.639,140.549 144.166,145.605 143.883,148.865 142.324,151.322 L140.859,153.165 142.324,151.322 Q143.883,148.865 144.166,145.605 144.639,140.549 144.402,139.745 143.883,137.855 140.386,138.47 137.079,139.084 135.425,142.061 133.535,146.55 131.881,149.857 130.7,152.22 126.164,158.031 122.573,162.567 121.486,166.867 120.399,171.261 114.871,176.033 107.028,182.79 105.421,184.822 101.122,190.209 98.523,194.65 95.829,199.186 92.664,206.557 90.207,212.274 83.733,213.786 80.048,214.448 78.111,214.92 74.756,215.771 72.346,217.425 68.283,220.212 63.133,217.802 59.967,216.243 58.927,215.96 56.376,215.251 53.919,216.007 49.902,217.283 43.902,212.369 37.051,206.793 33.129,206.557 28.545,206.321 19.663,202.682 9.976,198.666 6.196,198.052 .763,197.154 -6.845,199.753 -15.302,203.249 -18.846,204.667 -22.248,206.037 -27.446,203.769 -29.572,202.872 -30.659,202.872 -32.265,202.919 -33.541,204.667 -35.384,207.218 -43.7,210.148 -53.291,213.55 -58.111,217.425 -63.639,221.866 -69.026,221.724 -71.813,221.535 -73.184,221.488 -75.593,221.394 -77.483,222.15 -81.122,223.567 -86.697,220.968 -94.871,217.188 -95.911,216.952 -99.549,216.101 -102.384,209.77 -107.204,199.091 -108.196,197.58 -110.842,193.516 -114.527,190.634 -118.638,187.374 -121.899,182.932 -125.631,177.876 -126.245,172.442 -127.096,165.639 -128.514,162.615 -131.679,155.196 -133.239,152.125 -135.743,147.022 -139.334,143.762 -139.335,143.88 -139.334,143.998 -139.097,161.15 -138.436,167.34 -137.963,172.065 -136.168,179.955 -134.231,188.224 -131.348,197.816 -131.112,198.525 -124.781,211.613 -118.733,224.181 -116.701,232.072 -112.448,248.799 -109.566,253.287 -108.007,255.744 -104.841,258.721 -102.809,260.658 -96.856,266.092 -95.249,267.604 -89.485,274.975 -83.815,282.251 -82.114,283.764 -77.956,287.496 -70.112,291.654 -63.356,295.198 -59.528,299.64 -52.583,307.672 -46.818,310.79 -40.581,314.098 -31.178,314.287 -30.989,314.287 -16.295,317.028 -4.293,319.295 1.944,317.595 6.763,316.271 17.206,316.13 27.222,315.988 32.845,314.193 41.492,311.452 47.115,307.578 53.116,303.372 60.061,294.915 63.605,291.749 65.448,290.001 68.708,286.882 69.653,282.488 70.503,278.519 78.914,270.817 87.514,262.973 88.742,258.579 91.293,249.46 95.31,243.034 99.232,236.844 105.279,231.978 109.627,228.528 113.454,218.275 117.328,207.975 120.163,205.565 125.077,201.454 127.676,193.847 129.849,185.72 130.936,182.932 136.276,169.04 140.292,159.732 L143.221,153.165 143.836,155.007 Q145.489,156.992 150.781,157.89 156.31,158.835 160.231,154.487 162.83,151.558 164.011,147.495 164.295,146.455 162.358,136.296 160.184,124.956 160.704,116.262 161.318,106.387 165.949,95.897 168.264,90.558 173.981,80.825 177.903,74.163 178.706,68.918 179.651,62.634 176.344,57.672 171.855,50.916 169.776,49.829 165.949,47.797 159.145,52.144 158.247,55.782 156.168,61.972 152.199,73.879 152.199,77.99 152.199,82.998 150.545,90.7 149.742,94.527 148.891,97.362 139.914,64.287 136.134,51.53 132.637,39.765 122.904,15.525 112.083,-11.407 108.256,-15.565 103.956,-20.243 90.726,-31.252 77.355,-42.403 71.401,-46.278 68.85,-47.931 61.715,-54.641 56.99,-59.082 53.446,-59.082 49.005,-59.082 44.185,-55.491 M108.729,70.383 Q113.879,77.943 113.926,77.99 113.879,77.943 108.729,70.383 104.665,64.382 100.696,62.397 96.491,60.318 84.348,61.83 70.693,64.051 66.204,64.76 59.683,65.799 46.312,71.091 33.365,76.194 27.459,79.88 33.365,76.194 46.312,71.091 59.683,65.799 66.204,64.76 70.693,64.051 84.348,61.83 96.491,60.318 100.696,62.397 104.665,64.382 108.729,70.383 M93.42,87.723 L92.333,92.448 Q90.774,97.74 88.411,100.67 85.434,104.403 80.898,105.82 75.89,107.379 68.094,106.34 55.478,104.686 54.391,86.684 49.217,88.606 43.996,91.031 L39.744,93.11 43.996,91.031 Q49.217,88.606 54.391,86.684 54.462,86.662 54.533,86.636 70.74,80.73 80.851,81.77 85.246,82.234 93.42,87.723 94.385,88.373 95.404,89.094 105.185,96.039 107.784,96.417 105.185,96.039 95.404,89.094 94.385,88.373 93.42,87.723 M97.436,110.545 Q102.114,108.56 103.059,105.395 102.114,108.56 97.436,110.545 93.892,112.01 89.356,112.482 93.892,112.01 97.436,110.545 M65.07,131.902 Q71.496,132.564 76.126,130.437 71.496,132.564 65.07,131.902 58.597,131.24 54.391,128.075 58.597,131.24 65.07,131.902 M42.106,101.615 Q45.508,109.316 52.501,112.482 45.508,109.316 42.106,101.615 M30.813,165.402 L30.766,162.142 30.813,165.402 Q30.719,169.04 29.821,171.12 28.923,173.199 23.631,175.419 L18.481,177.262 Q15.363,177.782 13.756,173.151 13.756,173.34 13.756,173.482 13.756,176.837 11.535,180.475 9.079,184.397 4.306,188.13 -.939,192.24 -7.506,191.91 -14.688,191.531 -22.154,185.767 -28.485,180.9 -31.084,170.883 -33.068,163.37 -32.596,155.055 -32.312,149.857 -27.729,135.068 -22.862,120.042 -22.154,117.207 -21.209,113.664 -21.114,101.756 -21.209,89.33 -21.209,86.967 -21.209,82.053 -23.335,76.809 -26.17,69.957 -31.178,68.067 -34.25,66.933 -40.817,66.177 -46.913,65.469 -52.913,62.87 -61.229,59.231 -73.751,57.105 -86.556,54.885 -92.131,56.255 -97.565,57.625 -104.18,61.972 -110.322,66.083 -114.811,70.902 -110.322,66.083 -104.18,61.972 -97.565,57.625 -92.131,56.255 -86.556,54.885 -73.751,57.105 -61.229,59.231 -52.913,62.87 -46.913,65.469 -40.817,66.177 -34.25,66.933 -31.178,68.067 -26.17,69.957 -23.335,76.809 -21.209,82.053 -21.209,86.967 -21.209,89.33 -21.114,101.756 -21.209,113.664 -22.154,117.207 -22.862,120.042 -27.729,135.068 -32.312,149.857 -32.596,155.055 -33.068,163.37 -31.084,170.883 -28.485,180.9 -22.154,185.767 -14.688,191.531 -7.506,191.91 -.939,192.24 4.306,188.13 9.079,184.397 11.535,180.475 13.756,176.837 13.756,173.482 13.756,173.34 13.756,173.151 13.378,172.112 13.095,170.789 L12.339,163.56 13.048,166.914 Q13.709,170.6 13.756,173.151 15.363,177.782 18.481,177.262 L23.631,175.419 Q28.923,173.199 29.821,171.12 30.719,169.04 30.813,165.402 M35.491,226.402 Q38.468,227.158 44.043,231.505 50.092,236.183 52.974,237.27 56.423,238.593 56.423,245.963 56.423,250.783 56.423,251.161 56.612,253.665 57.699,254.28 61.006,256.169 61.951,258.485 63.227,261.509 59.116,263.73 58.408,264.107 46.17,269.683 37.287,273.746 35.019,276.015 33.885,277.149 32.845,279.511 L31.144,283.48 Q28.782,287.921 23.679,287.355 17.536,286.693 13,286.929 8.89,287.165 4.779,288.299 -5.096,290.993 -8.357,291.56 -18.185,293.213 -21.209,290.189 -31.462,280.078 -37.793,276.015 -40.25,274.455 -43.7,268.833 -46.913,263.54 -49.606,262.312 -52.724,260.895 -53.811,259.052 -54.803,256.642 -56.221,254.752 -57.969,252.39 -57.969,249.082 L-57.638,246.247 Q-55.465,240.388 -51.543,235.143 -49.795,232.828 -44.408,226.874 -41.81,223.992 -36.707,222.811 -30.706,221.346 -28.343,219.787 -25.13,217.661 -18.705,217.425 -11.286,217.188 -9.396,216.48 -6.892,215.582 1.755,216.716 10.827,217.944 14.701,216.952 19.096,215.865 25.805,220.449 33.979,226.024 35.491,226.402 M-39.683,88.385 Q-48.595,83.928 -51.827,82.431 L-51.401,83.518 Q-51.118,85.503 -51.968,89.802 -53.102,95.709 -57.024,98.685 -61.844,102.418 -71.341,102.087 -80.366,101.756 -84.666,95.897 -87.312,92.165 -88.493,84.983 -99.732,89.338 -102.526,93.11 -99.732,89.338 -88.493,84.983 -88.33,84.953 -88.162,84.888 -81.689,82.479 -74.034,80.447 -67.419,78.699 -64.726,78.462 -61.371,78.179 -52.724,82.006 -52.346,82.174 -51.827,82.431 -48.595,83.928 -39.683,88.385 M-44.219,106.387 Q-41.573,102.938 -41.573,99.252 -41.573,102.938 -44.219,106.387 -46.676,109.553 -50.078,111.065 -46.676,109.553 -44.219,106.387 M-97.517,111.017 Q-93.076,114.703 -88.351,115.79 -93.076,114.703 -97.517,111.017 -102.148,107.143 -104.888,101.615 -102.148,107.143 -97.517,111.017 M-88.823,124.295 Q-83.909,128.595 -81.83,129.445 -76.444,131.619 -68.506,128.547 -76.444,131.619 -81.83,129.445 -83.909,128.595 -88.823,124.295 M98.286,-89.842 Q93.467,-91.26 91.341,-92.63 88.411,-94.425 87.939,-97.355 87.041,-102.647 95.215,-107.608 99.279,-110.112 103.531,-111.53 99.42,-112.002 93.987,-111.766 83.119,-111.294 76.599,-107.75 73.102,-105.813 70.126,-106.285 68.141,-106.569 65.212,-108.317 61.762,-110.396 60.203,-110.916 57.037,-112.002 53.446,-111.057 47.445,-109.498 36.011,-114.885 29.301,-118.05 28.404,-118.428 24.765,-119.846 23.206,-119.09 20.041,-117.483 .148,-118.381 -17.429,-119.184 -26.453,-120.507 -32.407,-121.405 -41.337,-128.823 L-49.133,-136.1 -48.472,-132.84 Q-47.763,-129.012 -47.669,-125.988 -47.291,-116.444 -52.913,-119.09 -58.536,-121.736 -70.443,-122.114 L-81.263,-121.925 -73.514,-114.837 Q-66.805,-107.986 -71.813,-109.167 -76.822,-110.349 -87.359,-106.096 L-96.856,-101.607 -94.682,-101.466 Q-92.178,-101.182 -90.524,-100.473 -85.232,-98.253 -90.241,-92.63 -100.872,-80.723 -106.259,-73.824 -117.788,-59.035 -127.568,-41.553 -135.506,-27.378 -138.152,5.934 -139.806,27.054 -139.145,51.388 -139.05,55.924 -138.908,58.617 -130.876,31.212 -128.986,21.29 -127.427,13.21 -125.679,8.674 -123.552,3.146 -119.536,-1.863 -113.866,-8.95 -95.438,-33.048 -92.273,-37.111 -84.76,-44.529 -80.555,-48.64 -72.286,-56.72 -67.467,-61.587 -61.985,-63.996 -58.678,-65.461 -51.023,-68.06 -48.047,-69.194 -46.771,-68.627 -45.731,-68.202 -45.164,-66.264 -44.834,-65.178 -44.03,-62.343 -43.038,-59.791 -41.101,-58.137 -39.542,-56.814 -31.698,-47.553 -25.65,-40.371 -21.209,-38.718 -17.381,-37.3 -2.687,-31.11 11.157,-25.677 16.119,-25.96 21.411,-26.291 28.687,-34.89 34.263,-41.411 37.381,-47.695 39.602,-52.137 44.185,-55.491 49.005,-59.082 53.446,-59.082 56.99,-59.082 61.715,-54.641 68.85,-47.931 71.401,-46.278 77.355,-42.403 90.726,-31.252 103.956,-20.243 108.256,-15.565 112.083,-11.407 122.904,15.525 132.637,39.765 136.134,51.53 139.914,64.287 148.891,97.362 149.742,94.527 150.545,90.7 152.199,82.998 152.199,77.99 152.199,73.879 156.168,61.972 158.247,55.782 159.145,52.144 159.853,49.025 159.759,47.75 159.522,45.151 158.247,37.26 156.735,28.283 155.979,21.762 153.285,-1.437 152.908,-5.218 150.97,-24.023 151.254,-29.74 151.585,-36.166 137.362,-56.578 123.66,-76.281 115.344,-82.707 110.949,-86.109 98.286,-89.842Z" test="JeanRenoFace" vector-effect="non-scaling-stroke" stroke-width="1"/>
        <path id="Layer4_0_1_STROKES" stroke="#FFF" stroke-width="1.89" stroke-linejoin="round" stroke-linecap="round" fill="none" d="M-138.908,58.617 Q-139.05,55.924 -139.145,51.388 -139.806,27.054 -138.152,5.934 -135.506,-27.378 -127.568,-41.553 -117.788,-59.035 -106.259,-73.824 -100.872,-80.723 -90.241,-92.63 -85.232,-98.253 -90.524,-100.473 -92.178,-101.182 -94.682,-101.466 L-96.856,-101.607 -87.359,-106.096 Q-76.822,-110.349 -71.813,-109.167 -66.805,-107.986 -73.514,-114.837 L-81.263,-121.925 -70.443,-122.114 Q-58.536,-121.736 -52.913,-119.09 -47.291,-116.444 -47.669,-125.988 -47.763,-129.012 -48.472,-132.84 L-49.133,-136.1 -41.337,-128.823 Q-32.407,-121.405 -26.453,-120.507 -17.429,-119.184 .148,-118.381 20.041,-117.483 23.206,-119.09 24.765,-119.846 28.404,-118.428 29.301,-118.05 36.011,-114.885 47.445,-109.498 53.446,-111.057 57.037,-112.002 60.203,-110.916 61.762,-110.396 65.212,-108.317 68.141,-106.569 70.126,-106.285 73.102,-105.813 76.599,-107.75 83.119,-111.294 93.987,-111.766 99.42,-112.002 103.531,-111.53 99.279,-110.112 95.215,-107.608 87.041,-102.647 87.939,-97.355 88.411,-94.425 91.341,-92.63 93.467,-91.26 98.286,-89.842 110.949,-86.109 115.344,-82.707 123.66,-76.281 137.362,-56.578 151.585,-36.166 151.254,-29.74 150.97,-24.023 152.908,-5.218 153.285,-1.437 155.979,21.762 156.735,28.283 158.247,37.26 159.522,45.151 159.759,47.75 159.853,49.025 159.145,52.144 165.949,47.797 169.776,49.829 171.855,50.916 176.344,57.672 179.651,62.634 178.706,68.918 177.903,74.163 173.981,80.825 168.264,90.558 165.949,95.897 161.318,106.387 160.704,116.262 160.184,124.956 162.358,136.296 164.295,146.455 164.011,147.495 162.83,151.558 160.231,154.487 156.31,158.835 150.781,157.89 145.489,156.992 143.836,155.007 L143.221,153.165 140.292,159.732 Q136.276,169.04 130.936,182.932 129.849,185.72 127.676,193.847 125.077,201.454 120.163,205.565 117.328,207.975 113.454,218.275 109.627,228.528 105.279,231.978 99.232,236.844 95.31,243.034 91.293,249.46 88.742,258.579 87.514,262.973 78.914,270.817 70.503,278.519 69.653,282.488 68.708,286.882 65.448,290.001 63.605,291.749 60.061,294.915 53.116,303.372 47.115,307.578 41.492,311.452 32.845,314.193 27.222,315.988 17.206,316.13 6.763,316.271 1.944,317.595 -4.293,319.295 -16.295,317.028 -30.989,314.287 -31.178,314.287 -40.581,314.098 -46.818,310.79 -52.583,307.672 -59.528,299.64 -63.356,295.198 -70.112,291.654 -77.956,287.496 -82.114,283.764 -83.815,282.251 -89.485,274.975 -95.249,267.604 -96.856,266.092 -102.809,260.658 -104.841,258.721 -108.007,255.744 -109.566,253.287 -112.448,248.799 -116.701,232.072 -118.733,224.181 -124.781,211.613 -131.112,198.525 -131.348,197.816 -134.231,188.224 -136.168,179.955 -137.963,172.065 -138.436,167.34 -139.097,161.15 -139.334,143.998 -139.335,143.88 -139.334,143.762 -139.568,123.106 -139.239,88.904 L-138.908,58.617 Q-130.876,31.212 -128.986,21.29 -127.427,13.21 -125.679,8.674 -123.552,3.146 -119.536,-1.863 -113.866,-8.95 -95.438,-33.048 -92.273,-37.111 -84.76,-44.529 -80.555,-48.64 -72.286,-56.72 -67.467,-61.587 -61.985,-63.996 -58.678,-65.461 -51.023,-68.06 -48.047,-69.194 -46.771,-68.627 -45.731,-68.202 -45.164,-66.264 -44.834,-65.178 -44.03,-62.343 -43.038,-59.791 -41.101,-58.137 -39.542,-56.814 -31.698,-47.553 -25.65,-40.371 -21.209,-38.718 -17.381,-37.3 -2.687,-31.11 11.157,-25.677 16.119,-25.96 21.411,-26.291 28.687,-34.89 34.263,-41.411 37.381,-47.695 39.602,-52.137 44.185,-55.491 49.005,-59.082 53.446,-59.082 56.99,-59.082 61.715,-54.641 68.85,-47.931 71.401,-46.278 77.355,-42.403 90.726,-31.252 103.956,-20.243 108.256,-15.565 112.083,-11.407 122.904,15.525 132.637,39.765 136.134,51.53 139.914,64.287 148.891,97.362 149.742,94.527 150.545,90.7 152.199,82.998 152.199,77.99 152.199,73.879 156.168,61.972 158.247,55.782 159.145,52.144 M27.459,79.88 Q33.365,76.194 46.312,71.091 59.683,65.799 66.204,64.76 70.693,64.051 84.348,61.83 96.491,60.318 100.696,62.397 104.665,64.382 108.729,70.383 113.879,77.943 113.926,77.99 M54.391,86.684 Q55.478,104.686 68.094,106.34 75.89,107.379 80.898,105.82 85.434,104.403 88.411,100.67 90.774,97.74 92.333,92.448 L93.42,87.723 Q85.246,82.234 80.851,81.77 70.74,80.73 54.533,86.636 54.462,86.662 54.391,86.684 49.217,88.606 43.996,91.031 L39.744,93.11 M93.42,87.723 Q94.385,88.373 95.404,89.094 105.185,96.039 107.784,96.417 M89.356,112.482 Q93.892,112.01 97.436,110.545 102.114,108.56 103.059,105.395 M-139.334,143.762 Q-135.743,147.022 -133.239,152.125 -131.679,155.196 -128.514,162.615 -127.096,165.639 -126.245,172.442 -125.631,177.876 -121.899,182.932 -118.638,187.374 -114.527,190.634 -110.842,193.516 -108.196,197.58 -107.204,199.091 -102.384,209.77 -99.549,216.101 -95.911,216.952 -94.871,217.188 -86.697,220.968 -81.122,223.567 -77.483,222.15 -75.593,221.394 -73.184,221.488 -71.813,221.535 -69.026,221.724 -63.639,221.866 -58.111,217.425 -53.291,213.55 -43.7,210.148 -35.384,207.218 -33.541,204.667 -32.265,202.919 -30.659,202.872 -29.572,202.872 -27.446,203.769 -22.248,206.037 -18.846,204.667 -15.302,203.249 -6.845,199.753 .763,197.154 6.196,198.052 9.976,198.666 19.663,202.682 28.545,206.321 33.129,206.557 37.051,206.793 43.902,212.369 49.902,217.283 53.919,216.007 56.376,215.251 58.927,215.96 59.967,216.243 63.133,217.802 68.283,220.212 72.346,217.425 74.756,215.771 78.111,214.92 80.048,214.448 83.733,213.786 90.207,212.274 92.664,206.557 95.829,199.186 98.523,194.65 101.122,190.209 105.421,184.822 107.028,182.79 114.871,176.033 120.399,171.261 121.486,166.867 122.573,162.567 126.164,158.031 130.7,152.22 131.881,149.857 133.535,146.55 135.425,142.061 137.079,139.084 140.386,138.47 143.883,137.855 144.402,139.745 144.639,140.549 144.166,145.605 143.883,148.865 142.324,151.322 L140.859,153.165 M79.434,88.385 L83.214,89.33 M54.391,128.075 Q58.597,131.24 65.07,131.902 71.496,132.564 76.126,130.437 M42.106,101.615 Q45.508,109.316 52.501,112.482 M13.756,173.151 Q15.363,177.782 18.481,177.262 L23.631,175.419 Q28.923,173.199 29.821,171.12 30.719,169.04 30.813,165.402 L30.766,162.142 M13.756,173.151 Q13.709,170.6 13.048,166.914 L12.339,163.56 13.095,170.789 Q13.378,172.112 13.756,173.151 13.756,173.34 13.756,173.482 13.756,176.837 11.535,180.475 9.079,184.397 4.306,188.13 -.939,192.24 -7.506,191.91 -14.688,191.531 -22.154,185.767 -28.485,180.9 -31.084,170.883 -33.068,163.37 -32.596,155.055 -32.312,149.857 -27.729,135.068 -22.862,120.042 -22.154,117.207 -21.209,113.664 -21.114,101.756 -21.209,89.33 -21.209,86.967 -21.209,82.053 -23.335,76.809 -26.17,69.957 -31.178,68.067 -34.25,66.933 -40.817,66.177 -46.913,65.469 -52.913,62.87 -61.229,59.231 -73.751,57.105 -86.556,54.885 -92.131,56.255 -97.565,57.625 -104.18,61.972 -110.322,66.083 -114.811,70.902 M-42.991,242.467 Q-38.833,239.821 -33.257,238.215 -27.209,236.466 -22.154,236.797 -19.413,236.986 -13.223,239.207 -8.026,241.097 -3.254,240.577 .526,240.152 7.614,237.648 13.898,235.38 18.481,235.38 24.34,235.38 29.49,237.742 33.649,239.679 36.909,242.939 M-57.638,246.247 Q-55.465,240.388 -51.543,235.143 -49.795,232.828 -44.408,226.874 -41.81,223.992 -36.707,222.811 -30.706,221.346 -28.343,219.787 -25.13,217.661 -18.705,217.425 -11.286,217.188 -9.396,216.48 -6.892,215.582 1.755,216.716 10.827,217.944 14.701,216.952 19.096,215.865 25.805,220.449 33.979,226.024 35.491,226.402 38.468,227.158 44.043,231.505 50.092,236.183 52.974,237.27 56.423,238.593 56.423,245.963 56.423,250.783 56.423,251.161 56.612,253.665 57.699,254.28 61.006,256.169 61.951,258.485 63.227,261.509 59.116,263.73 58.408,264.107 46.17,269.683 37.287,273.746 35.019,276.015 33.885,277.149 32.845,279.511 L31.144,283.48 Q28.782,287.921 23.679,287.355 17.536,286.693 13,286.929 8.89,287.165 4.779,288.299 -5.096,290.993 -8.357,291.56 -18.185,293.213 -21.209,290.189 -31.462,280.078 -37.793,276.015 -40.25,274.455 -43.7,268.833 -46.913,263.54 -49.606,262.312 -52.724,260.895 -53.811,259.052 -54.803,256.642 -56.221,254.752 -57.969,252.39 -57.969,249.082 L-57.638,246.247Z M-139.853,51.057 Q-145.051,44.111 -153.178,43.781 -161.21,43.497 -163.006,49.64 -164.234,53.845 -157.997,67.406 -151.193,82.101 -151.193,86.967 -151.193,92.165 -150.957,110.403 -150.957,127.177 -152.139,132.8 -153.414,138.942 -151.146,141.069 -149.351,142.722 -145.523,141.825 M-39.683,88.385 Q-48.595,83.928 -51.803,82.431 L-51.401,83.518 Q-51.118,85.503 -51.968,89.802 -53.102,95.709 -57.024,98.685 -61.844,102.418 -71.341,102.087 -80.366,101.756 -84.666,95.897 -87.312,92.165 -88.493,85.006 -99.732,89.338 -102.526,93.11 M-51.803,82.431 Q-52.346,82.174 -52.724,82.006 -61.371,78.179 -64.726,78.462 -67.419,78.699 -74.034,80.447 -81.689,82.479 -88.162,84.888 -88.33,84.953 -88.493,85.006 M-63.781,84.605 L-61.418,85.077 M-50.078,111.065 Q-46.676,109.553 -44.219,106.387 -41.573,102.938 -41.573,99.252 M-104.888,101.615 Q-102.148,107.143 -97.517,111.017 -93.076,114.703 -88.351,115.79 M-88.823,124.295 Q-83.909,128.595 -81.83,129.445 -76.444,131.619 -68.506,128.547 M-8.924,226.402 Q-.419,227.82 3.834,227.82 M-8.451,248.61 Q-4.813,248.137 -3.774,248.184 -1.553,248.279 1.944,249.555" test="JeanRenoFace"/>
      </g>
      <g id="TearAnimf0r1">
        <g id="TearGraphic">
          <path id="Layer5_0_1_STROKES" stroke="#0FF" stroke-width="1" stroke-linejoin="round" stroke-linecap="round" fill="none" d="M-66.905,101.696 Q-66.914,102.073 -67.005,102.333 -67.109,102.61 -67.419,103.052 -67.733,103.502 -67.551,104.093 -67.369,104.699 -66.864,104.717 -66.368,104.735 -66.14,104.294 -65.954,103.934 -65.99,103.429 -66.008,103.179 -66.363,102.665 -66.75,102.101 -66.864,101.55" test="TearGraphic" vector-effect="non-scaling-stroke"/>
        </g>
      </g>
    </g>
    <g id="BlackMaskRect">
      <path fill="#000" stroke="none" d="M823.45,613.6 L823.45,508.3 -23.6,508.3 -23.6,613.6 823.45,613.6Z" test="BlackMaskRect"/>
    </g>
  </g>
</svg>