<?xml version="1.0" encoding="utf-8"?>
<svg id="EdithAnim06" image-rendering="inherit" baseProfile="basic" version="1.1" x="0px" y="0px" width="800" height="600" xmlns="http://www.w3.org/2000/svg" xmlns:xlink="http://www.w3.org/1999/xlink">
  <g id="Jean-Renof68r1" overflow="visible">
    <g id="Bec-nom-Jean">
      <path id="Layer3_0_1_STROKES" stroke="#F90" stroke-width="1.796" stroke-linejoin="round" stroke-linecap="round" fill="none" d="M806.55,466.641 Q806.37,466.507 806.191,466.372 M773.818,511.048 Q774.626,518.95 774.536,528.065 774.446,536.91 773.593,541.58 M824.734,447.559 Q822.444,447.873 821.546,448.053 821.232,448.188 821.008,448.188" test="Bec nom Jean"/>
      <path id="Layer3_0_2_STROKES" stroke="#FFF" stroke-width="1.796" stroke-linejoin="round" stroke-linecap="round" fill="none" d="M771.169,254.758 Q770.765,250.403 771.124,248.248 771.663,245.24 773.863,243.533 776.512,241.513 780.867,242.276 785.537,243.129 786.973,246.766 M771.034,297.503 Q769.013,301.409 768.789,305.001 768.571,308.417 770.069,310.255 770.097,310.3 770.136,310.345 773.414,314.251 778.667,314.251 783.337,314.206 787.737,311.287 M719.04,320.627 Q724.697,317.798 728.693,318.516 731.926,319.055 735.653,322.423 736.955,323.59 737.673,324.713 L742.567,324.174 Q748.18,323.366 751.951,321.974 757.744,319.818 762.683,316.855 767.112,314.184 769.058,311.804 769.698,311.009 770.069,310.255 M714.011,289.78 Q712.799,280.441 718.142,276.984 721.285,274.963 725.595,275.816 729.367,276.535 732.51,279.004 M737.673,324.713 Q738.667,326.218 738.93,327.9 739.075,328.881 738.975,329.921 738.751,332.39 737,335.893" test="Bec nom Jean"/>
      <path id="Layer3_0_3_STROKES" stroke="#FEB7AE" stroke-width="1.796" stroke-linejoin="round" stroke-linecap="round" fill="none" d="M798.558,226.651 Q803.946,234.913 808.481,243.219 821.889,267.839 823.163,284.751 823.232,285.663 823.253,286.952 823.567,305.361 817.146,317.304 812.566,325.79 803.946,331.852 792.317,339.979 784.549,343.211 768.924,349.632 750.021,348.465 735.518,347.567 726.044,344.962 718.052,342.717 713.068,338.991 M774.94,348.734 Q776.287,350.53 777.41,352.775 M836.274,405.084 Q833.265,402.928 829.898,400.728 823.163,396.418 821.322,396.463 819.391,396.508 818.493,397.81 817.865,398.753 817.865,399.92 817.865,402.524 818.359,404.679 818.987,407.373 820.199,408.451 821.995,410.023 821.681,409.933 818.897,409.08 815.485,408.316 808.66,406.79 805.382,407.194 800.129,407.867 796.313,414.064 794.472,417.027 795.819,421.292 796.986,425.019 799.231,426.725 801.566,428.476 804.799,429.913 808.75,431.664 811.893,431.799 816.697,432.024 824.6,430.452 M804.35,449.086 L809.423,445.538 Q815.081,441.857 817.865,441.004 823.028,439.477 824.106,439.342 827.159,438.938 828.192,441.004 829.179,442.979 825.857,445.538 824.151,446.796 821.546,448.053 M824.734,447.559 Q830.257,447.469 834.478,449.984 L840.225,453.261 Q845.882,457.168 845.478,460.535 844.939,464.756 842.649,467.899 840.225,471.266 836.947,471.76 832.412,472.434 828.147,472.209 822.579,471.895 821.232,469.964 820.828,469.38 818.538,468.617 817.371,468.213 813.779,467.225 812.162,466.776 809.558,466.956 807.313,467.09 806.55,466.641 M790.206,345.816 L787.961,342.224" test="Bec nom Jean"/>
      <path id="Layer3_0_4_STROKES" stroke="#00F" stroke-width="1.796" stroke-linejoin="round" stroke-linecap="round" fill="none" d="M826.979,291.217 L841.796,317.798 857.377,301.769 Q855.042,298.087 851.495,290.993 844.401,276.849 838.519,260.012 832.367,242.456 817.191,225.079 809.828,216.638 791.823,200.25 781.585,190.91 763.132,187.767 746.968,185.029 736.102,188.127 717.019,193.56 707.725,197.735 687.071,206.895 677.283,220.5 663.498,239.582 657.796,254.085 650.253,273.302 654.833,288.299 659.906,304.867 679.707,336.027 699.553,367.233 708.264,372.262 715.582,376.482 731.297,376.797 739.155,376.976 745.531,376.303 L713.068,338.991 Q709.88,336.656 707.366,333.199 703.549,327.99 692.369,310.03 681.099,291.891 681.773,291.891 L701.484,276.445 Q723.575,259.518 735.653,251.93 747.731,244.342 772.112,231.455 784.279,224.99 794.068,220.051 L798.558,226.651" test="Bec nom Jean"/>
      <path id="Layer3_0_5_STROKES" stroke="#0FF" stroke-width="1.796" stroke-linejoin="round" stroke-linecap="round" fill="none" d="M834.657,410.427 L832.861,413.704 Q831.2,417.97 831.739,422.774 832.322,427.758 832.906,428.162 833.535,428.611 837.576,429.509 841.527,431.126 857.826,431.754 873.047,432.338 880.725,431.575 889.121,430.766 897.383,429.195 907.395,427.309 910.134,425.468 912.963,423.582 918.261,415.051 923.29,406.969 923.829,404.141 924.367,401.536 922.437,395.699 920.416,389.548 916.645,383.038 913.232,377.111 902.591,369.568 894.689,364 887.011,360.139 880.77,357.041 867.614,352.012 853.246,346.489 849.07,346.04 842.066,345.636 838.07,345.411 830.751,345.007 827.069,343.795 823.073,342.448 817,342.268 815.844,342.179 808.615,342.448 L800.758,342.673 801.701,345.322 Q802.509,348.33 802.105,349.857 801.656,351.518 798.962,353.179 797.525,354.077 793.125,356.143 787.782,358.657 784.728,359.824 779.251,361.89 777.185,361.306 774.895,360.633 772.785,359.241 770.765,357.939 769.552,356.367 M745.531,424.391 L750.021,441.004 M806.55,466.641 Q806.55,466.597 806.595,466.597 804.799,450.433 804.35,449.086 804.035,448.098 794.247,447.02 784.728,445.943 777.41,445.943 774.806,445.943 755.319,444.147 739.11,442.665 735.204,443.698 731.297,444.73 732.33,442.755 734.126,439.387 733.857,438.759 733.408,437.591 740.637,428.207 749.437,416.847 751.817,412.268 756.756,402.839 757.654,400.145 M763.94,358.837 Q760.482,361.306 756.756,364 749.347,369.388 748.225,370.511 M729.816,391.165 Q721.195,403.737 712.439,416.982 694.928,443.473 694.345,446.841 693.626,451.106 702.876,458.11 712.484,465.429 722.183,467.046 730.983,468.527 760.393,468.752 785.088,468.931 794.921,468.393 800.264,468.123 803.946,467.315 805.787,466.956 806.55,466.641 M761.695,471.76 L767.352,487.385 Q773.099,504.313 773.818,511.048 L794.247,512.933 Q816.024,514.55 822.759,513.293 833.804,511.227 845.568,507.68 861.283,502.966 869.051,498.027 874.888,494.345 883.778,489.226 889.929,485.499 890.603,482.985 891.501,479.752 891.321,474.005 891.141,467.719 889.705,461.658 888.447,456.314 885.035,444.326 L881.847,433.371 M866.581,389.548 L872.194,399.875 M841.392,373.833 L864.606,383.756 Q887.954,394.083 888.807,396.059 891.501,402.345 888.807,403.692 887.729,404.23 877.851,403.692 867.344,403.108 864.561,403.692 861.642,404.275 856.344,404.679 850.507,405.084 848.127,405.488 844.984,406.026 842.56,407.329 840.18,408.586 839.821,408.631" test="Bec nom Jean"/>
    </g>
    <g id="Jean-Reno-body">
      <path id="Layer2_0_1_STROKES" stroke="#FEB7AE" stroke-width="1.89" stroke-linejoin="round" stroke-linecap="round" fill="none" d="M197.594,186.817 Q203.737,192.96 242.057,199.102 267.808,203.26 294.977,205.717 302.253,206.379 344.826,215.073 381.161,222.444 387.587,220.837 397.368,218.38 404.833,215.403 414.33,211.576 423.497,205.717 432.616,199.858 444.807,198.063 455.013,196.503 463.234,198.157 469.14,199.338 474.81,201.228 477.645,202.173 479.299,202.882 477.645,203.355 475.755,204.347 472.07,206.379 471.172,209.166 470.274,211.954 473.346,214.789 474.905,216.159 476.606,217.01 474.716,217.766 473.015,219.136 469.566,221.877 470.463,224.806 471.361,227.783 477.031,229.059 479.866,229.72 482.512,229.767 L483.552,235.815 Q485.016,242.147 487.237,243.47 489.458,244.793 494.844,242.241 497.538,241.013 499.758,239.454 L501.554,243.47 Q504.011,247.392 507.554,246.777 511.098,246.21 514.075,243.139 515.54,241.58 516.296,240.162 L519.745,241.58 Q523.43,242.761 524.612,241.58 525.793,240.399 526.738,237.091 L527.447,234.02 529.715,246.966 Q531.794,260.763 530.754,264.732 530.66,265.063 529.668,269.93 528.959,273.379 528.061,275.647 525.415,282.404 518.658,285.995 M450.855,240.635 Q459.076,238.65 470.321,240.588 486.717,243.375 495.27,254.337 498.577,258.59 505.476,267.331 511.382,275.033 514.689,281.223 523.62,297.949 520.076,315.054 516.579,331.875 507.224,347.325 502.924,354.413 494.561,364.666 492.198,367.548 483.41,374.447 472.968,382.621 460.257,390.843 424.773,413.853 392.501,423.776 L376.767,428.619 Q379.406,431.92 381.539,442.581 383.712,453.449 382.815,459.45 382.059,464.553 384.752,467.955 385.46,468.9 388.957,471.498 391.745,473.577 395.95,480.192 401.384,488.697 400.297,493.706 399.163,499.14 394.249,504.384 389.808,509.062 385.886,510.243 382.956,511.141 377.381,511.236 L372.42,511.188 378.846,512.511 Q386.075,514.827 390.375,519.693 395.95,526.025 398.218,530.466 400.864,535.569 399.352,538.593 398.313,540.72 395.525,547.146 392.076,553.099 385.65,556.076 379.649,558.864 366.561,555.792 359.993,554.044 357.205,553.335 352.48,552.154 350.685,552.296 348.322,552.485 329.753,557.21 310.947,562.029 304.38,562.691 297.481,563.4 289.212,559.903 285.338,558.108 283.779,557.493 281.227,556.407 280.046,556.548 276.266,556.737 274.328,556.974 270.974,557.446 268.47,559.383 265.635,561.557 261.76,560.612 258.075,559.714 257.13,557.257 256.043,554.469 256.137,552.816 256.279,550.5 258.547,548.752 260.626,547.146 263.934,546.579 265.587,546.342 266.816,546.39 265.918,545.35 265.304,543.98 264.075,541.239 265.398,539.775 266.863,538.168 270.69,537.365 273.903,536.703 276.502,536.94 277.636,537.034 275.085,535.239 271.919,533.018 272.958,531.978 274.187,530.75 277.352,530.844 278.817,530.892 282.408,531.506 283.637,531.695 285.621,533.112 287.039,534.152 288.078,533.632 291.386,531.978 295.827,529.899 302.631,526.734 305.325,525.836 309.577,524.418 313.83,523.473 M209.596,187.904 Q213.754,185.919 228.638,177.036 242.624,169.146 247.632,169.004 260.626,168.626 264.642,169.004 277.447,170.185 289.26,176.091 314.585,188.754 318.224,190.644 334.431,199.244 341.471,204.914 348.275,210.395 353.945,213.655 356.78,215.309 358.245,215.829 M186.916,251.928 Q186.916,247.864 187.908,242.856 189.94,232.791 194.949,228.066 205.485,218.144 219.046,220.27 224.244,221.073 234.402,227.31 243.758,233.028 246.215,236.099 248.152,238.509 252.972,239.406 256.657,240.115 261.571,239.879 264.217,239.784 278.156,238.792 291.575,238.036 295.402,238.934 301.734,240.399 316.381,245.36 333.155,251.077 336.273,253.581 338.636,255.471 346.668,262.464 354.181,268.701 357.063,269.883 360.371,271.206 360.891,272.103 361.221,272.718 360.607,274.891 360.371,275.742 360.891,282.026 361.41,288.877 360.607,294.264 359.615,300.926 354.512,318.361 349.692,334.804 347.141,341.041 345.062,346.191 338.494,357.626 332.493,368.068 330.367,370.809 328.902,372.746 325.595,376.668 L322.571,380.259 327.107,381.015 Q332.21,382.007 334.856,383.33 336.982,384.417 341.613,386.59 345.487,388.858 347.613,392.307 350.401,396.843 351.063,399.111 351.913,402.088 350.921,405.537 349.929,408.939 347.566,412.578 345.629,415.554 343.361,417.822 340.29,420.894 338.4,422.406 335.045,425.099 332.73,425.382 329.658,425.808 328.241,425.666 326.067,425.43 322.335,423.965 319.311,422.784 317.184,420.327 314.208,416.925 312.176,415.46 309.341,413.381 307.876,410.451 306.033,406.671 304.143,404.592 301.025,401.143 298.993,399.915 297.528,399.064 294.693,398.45 292.425,397.977 292.047,398.072 290.677,398.686 288.315,399.631 284.062,401.805 282.456,402.419 279.857,403.364 278.392,401.285 276.077,398.072 275.699,396.985 274.943,394.859 276.03,391.835 277.352,388.244 277.872,387.535 278.676,386.543 281.7,385.22 286.236,383.188 292.331,385.22 292.992,385.456 292.331,382.007 290.63,372.746 290.583,372.51 287.937,355.783 290.441,342.459 292.756,330.315 298.899,311.746 303.86,296.768 303.435,295.209 302.915,293.271 289.071,293.838 273.667,294.5 271.304,293.555 268.659,292.515 253.822,288.499 239.978,284.719 239.127,284.105 M166.362,262.37 Q179.592,274.702 187.011,279.947 206.761,293.98 230.859,300.879 254.484,307.683 276.738,315.006 287.842,318.645 294.221,320.96 M323.232,518.276 Q322.24,514.118 304.332,481.799 286.094,448.818 284.724,444.566 281.983,435.966 279.857,425.808 277.258,413.428 278.345,410.735 279.432,408.136 282.408,405.443 284.346,403.647 286.614,402.23 M313.546,513.551 Q312.27,514.496 310.286,515.394 306.411,517.236 303.151,517.095 299.796,516.953 293.607,514.496 289.118,512.7 286.377,511.188 285.385,510.621 284.629,508.495 283.968,506.7 282.833,506.7 281.7,506.7 279.243,508.826 276.455,511.236 275.274,511.661 273.478,512.322 269.887,511.377 266.721,510.527 264.879,509.298 263.414,508.353 263.036,506.18 262.799,504.668 262.989,501.502 263.13,499.187 264.453,497.817 264.501,497.722 267.477,495.36 268.942,494.178 270.501,493.706 271.257,493.47 271.73,493.47 M279,493.942 Q279.809,493.139 280.046,492.099 280.424,490.02 282.361,488.981 284.298,487.941 287.606,488.272 289.448,488.461 292.52,488.981 293.89,489.123 296.442,490.256 298.851,491.343 299.607,491.343 M313.83,530.797 Q306.695,534.53 298.899,538.31 283.4,545.964 280.282,546.39 277.164,546.815 273.809,546.673 L271.068,546.39 M376.767,428.619 L376.719,428.643 Q358.245,434.313 357.819,434.313 357.725,434.313 362.072,450.519 366.324,468.569 365.568,477.168 L363.773,496.919 Q362.403,517.331 364.623,520.875" test="Jean Reno body"/>
    </g>
    <g id="Jean-Renof0r1">
      <g id="JeanRenoFace">
        <path fill="#000" stroke="none" d="M68.985,-44.991 Q64.402,-41.637 62.181,-37.195 59.063,-30.911 53.487,-24.391 46.211,-15.791 40.919,-15.46 35.957,-15.177 22.113,-20.61 7.419,-26.8 3.591,-28.218 -.85,-29.871 -6.898,-37.053 -14.742,-46.314 -16.301,-47.637 -18.238,-49.291 -19.23,-51.843 -20.034,-54.678 -20.364,-55.764 -20.931,-57.702 -21.971,-58.127 -23.247,-58.694 -26.223,-57.56 -33.878,-54.961 -37.185,-53.496 -42.667,-51.087 -47.486,-46.22 -55.755,-38.14 -59.96,-34.029 -67.473,-26.611 -70.638,-22.548 -89.066,1.55 -94.736,8.637 -98.752,13.646 -100.878,19.174 -102.627,23.71 -104.186,31.79 -106.076,41.712 -114.108,69.117 L-114.439,99.404 Q-114.768,133.606 -114.534,154.262 -110.943,157.522 -108.438,162.625 -106.879,165.696 -103.714,173.115 -102.296,176.139 -101.445,182.942 -100.831,188.376 -97.098,193.432 -93.838,197.874 -89.727,201.134 -86.042,204.016 -83.396,208.08 -82.404,209.591 -77.584,220.27 -74.749,226.601 -71.111,227.452 -70.071,227.688 -61.897,231.468 -56.322,234.067 -52.683,232.65 -50.793,231.894 -48.384,231.988 -47.013,232.035 -44.226,232.224 -38.839,232.366 -33.311,227.925 -28.492,224.05 -18.9,220.648 -10.584,217.718 -8.741,215.167 -7.465,213.419 -5.859,213.372 -4.772,213.372 -2.646,214.269 2.552,216.537 5.954,215.167 9.497,213.749 17.955,210.253 25.563,207.654 30.996,208.552 34.776,209.166 44.463,213.182 53.346,216.821 57.929,217.057 61.851,217.293 68.702,222.869 74.702,227.783 78.719,226.507 81.176,225.751 83.727,226.46 84.767,226.743 87.933,228.302 93.083,230.712 97.146,227.925 99.556,226.271 102.911,225.42 104.848,224.948 108.534,224.286 115.007,222.774 117.464,217.057 120.629,209.686 123.323,205.15 125.922,200.709 130.221,195.322 131.828,193.29 139.671,186.533 145.2,181.761 146.286,177.367 147.373,173.067 150.964,168.531 155.5,162.72 156.681,160.357 158.335,157.05 160.225,152.561 161.879,149.584 165.186,148.97 168.683,148.355 169.203,150.245 169.439,151.049 168.966,156.105 168.683,159.365 167.124,161.822 L165.659,163.665 167.124,161.822 Q168.683,159.365 168.966,156.105 169.439,151.049 169.203,150.245 168.683,148.355 165.186,148.97 161.879,149.584 160.225,152.561 158.335,157.05 156.681,160.357 155.5,162.72 150.964,168.531 147.373,173.067 146.286,177.367 145.2,181.761 139.671,186.533 131.828,193.29 130.221,195.322 125.922,200.709 123.323,205.15 120.629,209.686 117.464,217.057 115.007,222.774 108.534,224.286 104.848,224.948 102.911,225.42 99.556,226.271 97.146,227.925 93.083,230.712 87.933,228.302 84.767,226.743 83.727,226.46 81.176,225.751 78.719,226.507 74.702,227.783 68.702,222.869 61.851,217.293 57.929,217.057 53.346,216.821 44.463,213.182 34.776,209.166 30.996,208.552 25.563,207.654 17.955,210.253 9.497,213.749 5.954,215.167 2.552,216.537 -2.646,214.269 -4.772,213.372 -5.859,213.372 -7.465,213.419 -8.741,215.167 -10.584,217.718 -18.9,220.648 -28.492,224.05 -33.311,227.925 -38.839,232.366 -44.226,232.224 -47.013,232.035 -48.384,231.988 -50.793,231.894 -52.683,232.65 -56.322,234.067 -61.897,231.468 -70.071,227.688 -71.111,227.452 -74.749,226.601 -77.584,220.27 -82.404,209.591 -83.396,208.08 -86.042,204.016 -89.727,201.134 -93.838,197.874 -97.098,193.432 -100.831,188.376 -101.445,182.942 -102.296,176.139 -103.714,173.115 -106.879,165.696 -108.438,162.625 -110.943,157.522 -114.534,154.262 -114.535,154.38 -114.534,154.498 -114.297,171.65 -113.636,177.84 -113.163,182.565 -111.368,190.455 -109.431,198.724 -106.548,208.316 -106.312,209.025 -99.981,222.113 -93.933,234.681 -91.901,242.572 -87.648,259.299 -84.766,263.787 -83.207,266.244 -80.041,269.221 -78.009,271.158 -72.056,276.592 -70.449,278.104 -64.685,285.475 -59.015,292.751 -57.314,294.264 -53.156,297.996 -45.312,302.154 -38.556,305.698 -34.728,310.14 -27.783,318.172 -22.018,321.29 -15.781,324.598 -6.378,324.787 -6.19,324.787 8.505,327.528 20.507,329.795 26.744,328.095 31.563,326.771 42.006,326.63 52.022,326.488 57.645,324.693 66.292,321.952 71.915,318.078 77.916,313.872 84.861,305.415 88.405,302.249 90.248,300.501 93.508,297.382 94.453,292.988 95.303,289.019 103.714,281.317 112.314,273.473 113.542,269.079 116.093,259.96 120.11,253.534 124.032,247.344 130.08,242.478 134.427,239.028 138.254,228.775 142.128,218.475 144.963,216.065 149.877,211.954 152.476,204.347 154.65,196.22 155.736,193.432 161.076,179.54 165.092,170.232 L168.021,163.665 168.636,165.507 Q170.289,167.492 175.581,168.39 181.11,169.335 185.031,164.987 187.63,162.058 188.811,157.995 189.095,156.955 187.158,146.796 184.984,135.456 185.504,126.762 186.118,116.887 190.749,106.397 193.064,101.058 198.781,91.325 202.703,84.663 203.506,79.418 204.451,73.134 201.144,68.172 196.655,61.416 194.576,60.329 190.749,58.297 183.945,62.644 183.047,66.282 180.968,72.472 176,84.379 176,88.49 176,93.498 175.345,101.2 174.542,105.027 173.691,107.862 164.714,74.787 160.934,62.03 157.437,50.265 147.704,26.025 136.884,-.907 133.056,-5.065 128.756,-9.743 115.527,-20.752 102.155,-31.903 96.201,-35.778 93.65,-37.431 86.515,-44.141 81.79,-48.582 78.246,-48.582 73.805,-48.582 68.985,-44.991 M133.529,80.883 Q138.679,88.443 138.726,88.49 138.679,88.443 133.529,80.883 129.465,74.882 125.496,72.897 121.291,70.818 109.148,72.33 95.492,74.551 91.004,75.26 84.483,76.299 71.112,81.591 58.165,86.694 52.259,90.38 58.165,86.694 71.112,81.591 84.483,76.299 91.004,75.26 95.492,74.551 109.148,72.33 121.291,70.818 125.496,72.897 129.465,74.882 133.529,80.883 M118.22,98.223 L117.133,102.948 Q115.574,108.24 113.211,111.17 110.235,114.903 105.699,116.32 100.69,117.879 92.894,116.84 80.278,115.186 79.191,97.184 74.017,99.106 68.796,101.531 L64.544,103.61 68.796,101.531 Q74.017,99.106 79.191,97.184 79.262,97.162 79.333,97.136 95.54,91.23 105.651,92.27 110.046,92.734 118.22,98.223 119.185,98.873 120.204,99.594 129.985,106.539 132.584,106.917 129.985,106.539 120.204,99.594 119.185,98.873 118.22,98.223 M122.236,121.045 Q126.914,119.06 127.859,115.895 126.914,119.06 122.236,121.045 118.692,122.51 114.156,122.982 118.692,122.51 122.236,121.045 M89.87,142.402 Q96.296,143.064 100.926,140.937 96.296,143.064 89.87,142.402 83.397,141.74 79.191,138.575 83.397,141.74 89.87,142.402 M66.906,112.115 Q70.308,119.816 77.301,122.982 70.308,119.816 66.906,112.115 M55.614,175.902 L55.566,172.642 55.614,175.902 Q55.519,179.54 54.621,181.62 53.724,183.699 48.432,185.919 L43.281,187.762 Q40.163,188.282 38.556,183.651 38.556,183.84 38.556,183.982 38.556,187.337 36.335,190.975 33.878,194.897 29.106,198.63 23.862,202.74 17.294,202.41 10.112,202.031 2.646,196.267 -3.685,191.4 -6.284,181.383 -8.268,173.87 -7.796,165.555 -7.513,160.357 -2.929,145.568 1.938,130.542 2.646,127.707 3.591,124.164 3.686,112.256 3.591,99.83 3.591,97.467 3.591,92.553 1.465,87.309 -1.37,80.457 -6.378,78.567 -9.45,77.433 -16.017,76.677 -22.113,75.969 -28.113,73.37 -36.429,69.731 -48.951,67.605 -61.756,65.385 -67.331,66.755 -72.765,68.125 -79.38,72.472 -85.522,76.583 -90.011,81.402 -85.522,76.583 -79.38,72.472 -72.765,68.125 -67.331,66.755 -61.756,65.385 -48.951,67.605 -36.429,69.731 -28.113,73.37 -22.113,75.969 -16.017,76.677 -9.45,77.433 -6.378,78.567 -1.37,80.457 1.465,87.309 3.591,92.553 3.591,97.467 3.591,99.83 3.686,112.256 3.591,124.164 2.646,127.707 1.938,130.542 -2.929,145.568 -7.513,160.357 -7.796,165.555 -8.268,173.87 -6.284,181.383 -3.685,191.4 2.646,196.267 10.112,202.031 17.294,202.41 23.862,202.74 29.106,198.63 33.878,194.897 36.335,190.975 38.556,187.337 38.556,183.982 38.556,183.84 38.556,183.651 38.178,182.612 37.895,181.289 L37.139,174.06 37.848,177.414 Q38.509,181.1 38.556,183.651 40.163,188.282 43.281,187.762 L48.432,185.919 Q53.724,183.699 54.621,181.62 55.519,179.54 55.614,175.902 M60.291,236.902 Q63.268,237.658 68.843,242.005 74.892,246.683 77.774,247.77 81.223,249.093 81.223,256.463 81.223,261.283 81.223,261.661 81.412,264.165 82.499,264.78 85.806,266.67 86.751,268.985 88.027,272.009 83.916,274.23 83.208,274.607 70.97,280.183 62.087,284.246 59.819,286.515 58.685,287.649 57.645,290.011 L55.944,293.98 Q53.582,298.421 48.479,297.855 42.336,297.193 37.8,297.429 33.689,297.665 29.579,298.799 19.704,301.493 16.443,302.06 6.615,303.713 3.591,300.689 -6.662,290.578 -12.993,286.515 -15.45,284.955 -18.9,279.333 -22.113,274.04 -24.806,272.812 -27.924,271.395 -29.011,269.552 -30.003,267.142 -31.421,265.252 -33.169,262.89 -33.169,259.582 L-32.838,256.747 Q-30.665,250.888 -26.743,245.643 -24.995,243.328 -19.608,237.374 -17.01,234.492 -11.907,233.311 -5.906,231.846 -3.543,230.287 -.331,228.161 6.095,227.925 13.514,227.688 15.404,226.98 17.908,226.082 26.555,227.216 35.627,228.444 39.501,227.452 43.896,226.365 50.605,230.949 58.779,236.524 60.291,236.902 M-14.883,98.885 Q-23.795,94.428 -27.027,92.931 L-26.601,94.018 Q-26.318,96.003 -27.168,100.302 -28.302,106.209 -32.224,109.185 -37.044,112.918 -46.541,112.587 -55.566,112.256 -59.866,106.397 -62.512,102.665 -63.693,95.483 -74.932,99.838 -77.726,103.61 -74.932,99.838 -63.693,95.483 -63.53,95.453 -63.362,95.388 -56.889,92.979 -49.234,90.947 -42.619,89.199 -39.926,88.962 -36.571,88.679 -27.924,92.506 -27.546,92.674 -27.027,92.931 -23.795,94.428 -14.883,98.885 M-19.419,116.887 Q-16.773,113.438 -16.773,109.752 -16.773,113.438 -19.419,116.887 -21.876,120.053 -25.278,121.565 -21.876,120.053 -19.419,116.887 M-72.717,121.517 Q-68.276,125.203 -63.551,126.29 -68.276,125.203 -72.717,121.517 -77.348,117.643 -80.088,112.115 -77.348,117.643 -72.717,121.517 M-64.023,134.795 Q-59.109,139.095 -57.03,139.945 -51.644,142.119 -43.706,139.047 -51.644,142.119 -57.03,139.945 -59.109,139.095 -64.023,134.795 M123.087,-79.342 Q118.267,-80.76 116.141,-82.13 113.211,-83.925 112.739,-86.855 111.841,-92.147 120.015,-97.108 124.079,-99.612 128.331,-101.03 124.22,-101.502 118.787,-101.266 107.919,-100.794 101.399,-97.25 97.902,-95.313 94.926,-95.785 92.941,-96.069 90.012,-97.817 86.562,-99.896 85.003,-100.416 81.837,-101.502 78.246,-100.557 72.246,-98.998 60.811,-104.385 54.102,-107.55 53.204,-107.928 49.566,-109.346 48.006,-108.59 44.841,-106.983 24.948,-107.881 7.371,-108.684 -1.653,-110.007 -7.607,-110.905 -16.537,-118.323 L-24.333,-125.6 -23.672,-122.34 Q-22.963,-118.512 -22.869,-115.488 -22.491,-105.944 -28.113,-108.59 -33.736,-111.236 -45.643,-111.614 L-56.463,-111.425 -48.714,-104.337 Q-42.005,-97.486 -47.013,-98.667 -52.022,-99.849 -62.559,-95.596 L-72.056,-91.107 -69.882,-90.966 Q-67.378,-90.682 -65.724,-89.973 -60.432,-87.753 -65.441,-82.13 -76.072,-70.223 -81.459,-63.324 -92.988,-48.535 -102.768,-31.053 -110.706,-16.878 -113.352,16.434 -115.006,37.554 -114.345,61.888 -114.25,66.424 -114.108,69.117 -106.076,41.712 -104.186,31.79 -102.627,23.71 -100.878,19.174 -98.752,13.646 -94.736,8.637 -89.066,1.55 -70.638,-22.548 -67.473,-26.611 -59.96,-34.029 -55.755,-38.14 -47.486,-46.22 -42.667,-51.087 -37.185,-53.496 -33.878,-54.961 -26.223,-57.56 -23.247,-58.694 -21.971,-58.127 -20.931,-57.702 -20.364,-55.764 -20.034,-54.678 -19.23,-51.843 -18.238,-49.291 -16.301,-47.637 -14.742,-46.314 -6.898,-37.053 -.85,-29.871 3.591,-28.218 7.419,-26.8 22.113,-20.61 35.957,-15.177 40.919,-15.46 46.211,-15.791 53.487,-24.391 59.063,-30.911 62.181,-37.195 64.402,-41.637 68.985,-44.991 73.805,-48.582 78.246,-48.582 81.79,-48.582 86.515,-44.141 93.65,-37.431 96.201,-35.778 102.155,-31.903 115.527,-20.752 128.756,-9.743 133.056,-5.065 136.884,-.907 147.704,26.025 157.437,50.265 160.934,62.03 164.714,74.787 173.691,107.862 174.542,105.027 175.345,101.2 176,93.498 176,88.49 176,84.379 180.968,72.472 183.047,66.282 183.945,62.644 184.653,59.525 184.559,58.25 184.323,55.651 183.047,47.76 181.535,38.783 180.779,32.262 178.086,9.063 177.708,5.282 175.77,-13.523 176.054,-19.24 176.385,-25.666 162.162,-46.078 148.46,-65.781 140.144,-72.207 135.749,-75.609 123.087,-79.342Z" test="JeanRenoFace" vector-effect="non-scaling-stroke" stroke-width="1"/>
        <path id="Layer4_0_1_STROKES" stroke="#FFF" stroke-width="1.89" stroke-linejoin="round" stroke-linecap="round" fill="none" d="M-114.108,69.117 Q-114.25,66.424 -114.345,61.888 -115.006,37.554 -113.352,16.434 -110.706,-16.878 -102.768,-31.053 -92.988,-48.535 -81.459,-63.324 -76.072,-70.223 -65.441,-82.13 -60.432,-87.753 -65.724,-89.973 -67.378,-90.682 -69.882,-90.966 L-72.056,-91.107 -62.559,-95.596 Q-52.022,-99.849 -47.013,-98.667 -42.005,-97.486 -48.714,-104.337 L-56.463,-111.425 -45.643,-111.614 Q-33.736,-111.236 -28.113,-108.59 -22.491,-105.944 -22.869,-115.488 -22.963,-118.512 -23.672,-122.34 L-24.333,-125.6 -16.537,-118.323 Q-7.607,-110.905 -1.653,-110.007 7.371,-108.684 24.948,-107.881 44.841,-106.983 48.006,-108.59 49.566,-109.346 53.204,-107.928 54.102,-107.55 60.811,-104.385 72.246,-98.998 78.246,-100.557 81.837,-101.502 85.003,-100.416 86.562,-99.896 90.012,-97.817 92.941,-96.069 94.926,-95.785 97.902,-95.313 101.399,-97.25 107.919,-100.794 118.787,-101.266 124.22,-101.502 128.331,-101.03 124.079,-99.612 120.015,-97.108 111.841,-92.147 112.739,-86.855 113.211,-83.925 116.141,-82.13 118.267,-80.76 123.087,-79.342 135.749,-75.609 140.144,-72.207 148.46,-65.781 162.162,-46.078 176.385,-25.666 176.054,-19.24 175.77,-13.523 177.708,5.282 178.086,9.063 180.779,32.262 181.535,38.783 183.047,47.76 184.323,55.651 184.559,58.25 184.653,59.525 183.945,62.644 190.749,58.297 194.576,60.329 196.655,61.416 201.144,68.172 204.451,73.134 203.506,79.418 202.703,84.663 198.781,91.325 193.064,101.058 190.749,106.397 186.118,116.887 185.504,126.762 184.984,135.456 187.158,146.796 189.095,156.955 188.811,157.995 187.63,162.058 185.031,164.987 181.11,169.335 175.581,168.39 170.289,167.492 168.636,165.507 L168.021,163.665 165.092,170.232 Q161.076,179.54 155.736,193.432 154.65,196.22 152.476,204.347 149.877,211.954 144.963,216.065 142.128,218.475 138.254,228.775 134.427,239.028 130.08,242.478 124.032,247.344 120.11,253.534 116.093,259.96 113.542,269.079 112.314,273.473 103.714,281.317 95.303,289.019 94.453,292.988 93.508,297.382 90.248,300.501 88.405,302.249 84.861,305.415 77.916,313.872 71.915,318.078 66.292,321.952 57.645,324.693 52.022,326.488 42.006,326.63 31.563,326.771 26.744,328.095 20.507,329.795 8.505,327.528 -6.19,324.787 -6.378,324.787 -15.781,324.598 -22.018,321.29 -27.783,318.172 -34.728,310.14 -38.556,305.698 -45.312,302.154 -53.156,297.996 -57.314,294.264 -59.015,292.751 -64.685,285.475 -70.449,278.104 -72.056,276.592 -78.009,271.158 -80.041,269.221 -83.207,266.244 -84.766,263.787 -87.648,259.299 -91.901,242.572 -93.933,234.681 -99.981,222.113 -106.312,209.025 -106.548,208.316 -109.431,198.724 -111.368,190.455 -113.163,182.565 -113.636,177.84 -114.297,171.65 -114.534,154.498 -114.535,154.38 -114.534,154.262 -114.768,133.606 -114.439,99.404 L-114.108,69.117 Q-106.076,41.712 -104.186,31.79 -102.627,23.71 -100.878,19.174 -98.752,13.646 -94.736,8.637 -89.066,1.55 -70.638,-22.548 -67.473,-26.611 -59.96,-34.029 -55.755,-38.14 -47.486,-46.22 -42.667,-51.087 -37.185,-53.496 -33.878,-54.961 -26.223,-57.56 -23.247,-58.694 -21.971,-58.127 -20.931,-57.702 -20.364,-55.764 -20.034,-54.678 -19.23,-51.843 -18.238,-49.291 -16.301,-47.637 -14.742,-46.314 -6.898,-37.053 -.85,-29.871 3.591,-28.218 7.419,-26.8 22.113,-20.61 35.957,-15.177 40.919,-15.46 46.211,-15.791 53.487,-24.391 59.063,-30.911 62.181,-37.195 64.402,-41.637 68.985,-44.991 73.805,-48.582 78.246,-48.582 81.79,-48.582 86.515,-44.141 93.65,-37.431 96.201,-35.778 102.155,-31.903 115.527,-20.752 128.756,-9.743 133.056,-5.065 136.884,-.907 147.704,26.025 157.437,50.265 160.934,62.03 164.714,74.787 173.691,107.862 174.542,105.027 175.345,101.2 176,93.498 176,88.49 176,84.379 180.968,72.472 183.047,66.282 183.945,62.644 M52.259,90.38 Q58.165,86.694 71.112,81.591 84.483,76.299 91.004,75.26 95.492,74.551 109.148,72.33 121.291,70.818 125.496,72.897 129.465,74.882 133.529,80.883 138.679,88.443 138.726,88.49 M79.191,97.184 Q80.278,115.186 92.894,116.84 100.69,117.879 105.699,116.32 110.235,114.903 113.211,111.17 115.574,108.24 117.133,102.948 L118.22,98.223 Q110.046,92.734 105.651,92.27 95.54,91.23 79.333,97.136 79.262,97.162 79.191,97.184 74.017,99.106 68.796,101.531 L64.544,103.61 M118.22,98.223 Q119.185,98.873 120.204,99.594 129.985,106.539 132.584,106.917 M114.156,122.982 Q118.692,122.51 122.236,121.045 126.914,119.06 127.859,115.895 M-114.534,154.262 Q-110.943,157.522 -108.438,162.625 -106.879,165.696 -103.714,173.115 -102.296,176.139 -101.445,182.942 -100.831,188.376 -97.098,193.432 -93.838,197.874 -89.727,201.134 -86.042,204.016 -83.396,208.08 -82.404,209.591 -77.584,220.27 -74.749,226.601 -71.111,227.452 -70.071,227.688 -61.897,231.468 -56.322,234.067 -52.683,232.65 -50.793,231.894 -48.384,231.988 -47.013,232.035 -44.226,232.224 -38.839,232.366 -33.311,227.925 -28.492,224.05 -18.9,220.648 -10.584,217.718 -8.741,215.167 -7.465,213.419 -5.859,213.372 -4.772,213.372 -2.646,214.269 2.552,216.537 5.954,215.167 9.497,213.749 17.955,210.253 25.563,207.654 30.996,208.552 34.776,209.166 44.463,213.182 53.346,216.821 57.929,217.057 61.851,217.293 68.702,222.869 74.702,227.783 78.719,226.507 81.176,225.751 83.727,226.46 84.767,226.743 87.933,228.302 93.083,230.712 97.146,227.925 99.556,226.271 102.911,225.42 104.848,224.948 108.534,224.286 115.007,222.774 117.464,217.057 120.629,209.686 123.323,205.15 125.922,200.709 130.221,195.322 131.828,193.29 139.671,186.533 145.2,181.761 146.286,177.367 147.373,173.067 150.964,168.531 155.5,162.72 156.681,160.357 158.335,157.05 160.225,152.561 161.879,149.584 165.186,148.97 168.683,148.355 169.203,150.245 169.439,151.049 168.966,156.105 168.683,159.365 167.124,161.822 L165.659,163.665 M104.234,98.885 L108.014,99.83 M79.191,138.575 Q83.397,141.74 89.87,142.402 96.296,143.064 100.926,140.937 M66.906,112.115 Q70.308,119.816 77.301,122.982 M38.556,183.651 Q40.163,188.282 43.281,187.762 L48.432,185.919 Q53.724,183.699 54.621,181.62 55.519,179.54 55.614,175.902 L55.566,172.642 M38.556,183.651 Q38.509,181.1 37.848,177.414 L37.139,174.06 37.895,181.289 Q38.178,182.612 38.556,183.651 38.556,183.84 38.556,183.982 38.556,187.337 36.335,190.975 33.878,194.897 29.106,198.63 23.862,202.74 17.294,202.41 10.112,202.031 2.646,196.267 -3.685,191.4 -6.284,181.383 -8.268,173.87 -7.796,165.555 -7.513,160.357 -2.929,145.568 1.938,130.542 2.646,127.707 3.591,124.164 3.686,112.256 3.591,99.83 3.591,97.467 3.591,92.553 1.465,87.309 -1.37,80.457 -6.378,78.567 -9.45,77.433 -16.017,76.677 -22.113,75.969 -28.113,73.37 -36.429,69.731 -48.951,67.605 -61.756,65.385 -67.331,66.755 -72.765,68.125 -79.38,72.472 -85.522,76.583 -90.011,81.402 M-18.191,252.967 Q-14.033,250.321 -8.457,248.715 -2.41,246.966 2.646,247.297 5.387,247.486 11.577,249.707 16.774,251.597 21.546,251.077 25.326,250.652 32.414,248.148 38.698,245.88 43.281,245.88 49.14,245.88 54.29,248.242 58.448,250.179 61.709,253.439 M-32.838,256.747 Q-30.665,250.888 -26.743,245.643 -24.995,243.328 -19.608,237.374 -17.01,234.492 -11.907,233.311 -5.906,231.846 -3.543,230.287 -.331,228.161 6.095,227.925 13.514,227.688 15.404,226.98 17.908,226.082 26.555,227.216 35.627,228.444 39.501,227.452 43.896,226.365 50.605,230.949 58.779,236.524 60.291,236.902 63.268,237.658 68.843,242.005 74.892,246.683 77.774,247.77 81.223,249.093 81.223,256.463 81.223,261.283 81.223,261.661 81.412,264.165 82.499,264.78 85.806,266.67 86.751,268.985 88.027,272.009 83.916,274.23 83.208,274.607 70.97,280.183 62.087,284.246 59.819,286.515 58.685,287.649 57.645,290.011 L55.944,293.98 Q53.582,298.421 48.479,297.855 42.336,297.193 37.8,297.429 33.689,297.665 29.579,298.799 19.704,301.493 16.443,302.06 6.615,303.713 3.591,300.689 -6.662,290.578 -12.993,286.515 -15.45,284.955 -18.9,279.333 -22.113,274.04 -24.806,272.812 -27.924,271.395 -29.011,269.552 -30.003,267.142 -31.421,265.252 -33.169,262.89 -33.169,259.582 L-32.838,256.747Z M-115.053,61.557 Q-120.251,54.611 -128.378,54.281 -136.41,53.997 -138.206,60.14 -139.434,64.345 -133.197,77.906 -126.393,92.601 -126.393,97.467 -126.393,102.665 -126.157,120.903 -126.157,137.677 -127.339,143.3 -128.614,149.442 -126.346,151.569 -124.551,153.222 -120.723,152.325 M-14.883,98.885 Q-23.795,94.428 -27.003,92.931 L-26.601,94.018 Q-26.318,96.003 -27.168,100.302 -28.302,106.209 -32.224,109.185 -37.044,112.918 -46.541,112.587 -55.566,112.256 -59.866,106.397 -62.512,102.665 -63.693,95.506 -74.932,99.838 -77.726,103.61 M-27.003,92.931 Q-27.546,92.674 -27.924,92.506 -36.571,88.679 -39.926,88.962 -42.619,89.199 -49.234,90.947 -56.889,92.979 -63.362,95.388 -63.53,95.453 -63.693,95.506 M-38.981,95.105 L-36.618,95.577 M-25.278,121.565 Q-21.876,120.053 -19.419,116.887 -16.773,113.438 -16.773,109.752 M-80.088,112.115 Q-77.348,117.643 -72.717,121.517 -68.276,125.203 -63.551,126.29 M-64.023,134.795 Q-59.109,139.095 -57.03,139.945 -51.644,142.119 -43.706,139.047 M15.876,236.902 Q24.381,238.32 28.634,238.32 M16.349,259.11 Q19.987,258.637 21.027,258.684 23.247,258.779 26.744,260.054" test="JeanRenoFace"/>
      </g>
      <g id="TearAnimf0r1">
        <g id="TearGraphic">
          <path id="Layer5_0_1_STROKES" stroke="#0FF" stroke-width="1" stroke-linejoin="round" stroke-linecap="round" fill="none" d="M-42.105,112.196 Q-42.114,112.573 -42.205,112.833 -42.309,113.11 -42.619,113.552 -42.933,114.002 -42.751,114.593 -42.569,115.199 -42.064,115.217 -41.568,115.235 -41.34,114.794 -41.154,114.434 -41.19,113.929 -41.208,113.679 -41.563,113.165 -41.95,112.601 -42.064,112.05" test="TearGraphic" vector-effect="non-scaling-stroke"/>
        </g>
      </g>
    </g>
    <g id="BlackMaskRect">
      <path fill="#000" stroke="none" d="M823.45,613.6 L823.45,508.3 -23.6,508.3 -23.6,613.6 823.45,613.6Z" test="BlackMaskRect"/>
    </g>
  </g>
</svg>