<?xml version="1.0" encoding="utf-8"?>
<svg id="EdithAnim06" image-rendering="inherit" baseProfile="basic" version="1.1" x="0px" y="0px" width="800" height="600" xmlns="http://www.w3.org/2000/svg" xmlns:xlink="http://www.w3.org/1999/xlink">
  <g id="Jean-Renof69r1" overflow="visible">
    <g id="Bec-nom-Jean">
      <path id="Layer3_0_1_STROKES" stroke="#F90" stroke-width="1.796" stroke-linejoin="round" stroke-linecap="round" fill="none" d="M823.65,476.141 Q823.47,476.007 823.291,475.872 M790.918,520.548 Q791.726,528.45 791.636,537.565 791.546,546.41 790.693,551.08 M841.834,457.059 Q839.544,457.373 838.646,457.553 838.332,457.688 838.108,457.688" test="Bec nom Jean"/>
      <path id="Layer3_0_2_STROKES" stroke="#FFF" stroke-width="1.796" stroke-linejoin="round" stroke-linecap="round" fill="none" d="M788.269,264.258 Q787.865,259.903 788.224,257.748 788.763,254.74 790.963,253.033 793.612,251.013 797.967,251.776 802.637,252.629 804.073,256.266 M788.134,307.003 Q786.113,310.909 785.889,314.501 785.671,317.917 787.169,319.755 787.197,319.8 787.236,319.845 790.514,323.751 795.767,323.751 800.437,323.706 804.837,320.787 M736.14,330.127 Q741.797,327.298 745.793,328.016 749.026,328.555 752.753,331.923 754.055,333.09 754.773,334.213 L759.667,333.674 Q765.28,332.866 769.051,331.474 774.844,329.318 779.783,326.355 784.212,323.684 786.158,321.304 786.798,320.509 787.169,319.755 M731.111,299.28 Q729.899,289.941 735.242,286.484 738.385,284.463 742.695,285.316 746.467,286.035 749.61,288.504 M754.773,334.213 Q755.767,335.718 756.03,337.4 756.175,338.381 756.075,339.421 755.851,341.89 754.1,345.393" test="Bec nom Jean"/>
      <path id="Layer3_0_3_STROKES" stroke="#FEB7AE" stroke-width="1.796" stroke-linejoin="round" stroke-linecap="round" fill="none" d="M815.658,236.151 Q821.046,244.413 825.581,252.719 838.989,277.339 840.263,294.251 840.332,295.163 840.353,296.452 840.667,314.861 834.246,326.804 829.666,335.29 821.046,341.352 809.417,349.479 801.649,352.711 786.024,359.132 767.121,357.965 752.618,357.067 743.144,354.462 735.152,352.217 730.168,348.491 M792.04,358.234 Q793.387,360.03 794.51,362.275 M853.374,414.584 Q850.365,412.428 846.998,410.228 840.263,405.918 838.422,405.963 836.491,406.008 835.593,407.31 834.965,408.253 834.965,409.42 834.965,412.024 835.459,414.179 836.087,416.873 837.299,417.951 839.095,419.523 838.781,419.433 835.997,418.58 832.585,417.816 825.76,416.29 822.482,416.694 817.229,417.367 813.413,423.564 811.572,426.527 812.919,430.792 814.086,434.519 816.331,436.225 818.666,437.976 821.899,439.413 825.85,441.164 828.993,441.299 833.797,441.524 841.7,439.952 M821.45,458.586 L826.523,455.038 Q832.181,451.357 834.965,450.504 840.128,448.977 841.206,448.842 844.259,448.438 845.292,450.504 846.279,452.479 842.957,455.038 841.251,456.296 838.646,457.553 M841.834,457.059 Q847.357,456.969 851.578,459.484 L857.325,462.761 Q862.982,466.668 862.578,470.035 862.039,474.256 859.749,477.399 857.325,480.766 854.047,481.26 849.512,481.934 845.247,481.709 839.679,481.395 838.332,479.464 837.928,478.88 835.638,478.117 834.471,477.713 830.879,476.725 829.262,476.276 826.658,476.456 824.413,476.59 823.65,476.141 M807.306,355.316 L805.061,351.724" test="Bec nom Jean"/>
      <path id="Layer3_0_4_STROKES" stroke="#00F" stroke-width="1.796" stroke-linejoin="round" stroke-linecap="round" fill="none" d="M844.079,300.717 L858.896,327.298 874.477,311.269 Q872.142,307.587 868.595,300.493 861.501,286.349 855.619,269.512 849.467,251.956 834.291,234.579 826.928,226.138 808.923,209.75 798.685,200.41 780.232,197.267 764.068,194.529 753.202,197.627 734.119,203.06 724.825,207.235 704.171,216.395 694.383,230 680.598,249.082 674.896,263.585 667.353,282.802 671.933,297.799 677.006,314.367 696.807,345.527 716.653,376.733 725.364,381.762 732.682,385.982 748.397,386.297 756.255,386.476 762.631,385.803 L730.168,348.491 Q726.98,346.156 724.466,342.699 720.649,337.49 709.469,319.53 698.199,301.391 698.873,301.391 L718.584,285.945 Q740.675,269.018 752.753,261.43 764.831,253.842 789.212,240.955 801.379,234.49 811.168,229.551 L815.658,236.151" test="Bec nom Jean"/>
      <path id="Layer3_0_5_STROKES" stroke="#0FF" stroke-width="1.796" stroke-linejoin="round" stroke-linecap="round" fill="none" d="M851.757,419.927 L849.961,423.204 Q848.3,427.47 848.839,432.274 849.422,437.258 850.006,437.662 850.635,438.111 854.676,439.009 858.627,440.626 874.926,441.254 890.147,441.838 897.825,441.075 906.221,440.266 914.483,438.695 924.495,436.809 927.234,434.968 930.063,433.082 935.361,424.551 940.39,416.469 940.929,413.641 941.467,411.036 939.537,405.199 937.516,399.048 933.745,392.538 930.332,386.611 919.691,379.068 911.789,373.5 904.111,369.639 897.87,366.541 884.714,361.512 870.346,355.989 866.17,355.54 859.166,355.136 855.17,354.911 847.851,354.507 844.169,353.295 840.173,351.948 835.099,351.768 832.944,351.679 825.715,351.948 L817.858,352.173 818.801,354.822 Q819.609,357.83 819.205,359.357 818.756,361.018 816.062,362.679 814.625,363.577 810.225,365.643 804.882,368.157 801.828,369.324 796.351,371.39 794.285,370.806 791.995,370.133 789.885,368.741 787.865,367.439 786.652,365.867 M762.631,433.891 L767.121,450.504 M823.65,476.141 Q823.65,476.097 823.695,476.097 821.899,459.933 821.45,458.586 821.135,457.598 811.347,456.52 801.828,455.443 794.51,455.443 791.906,455.443 772.419,453.647 756.21,452.165 752.304,453.198 748.397,454.23 749.43,452.255 751.226,448.887 750.957,448.259 750.508,447.091 757.737,437.707 766.537,426.347 768.917,421.768 773.856,412.339 774.754,409.645 M781.04,368.337 Q777.582,370.806 773.856,373.5 766.447,378.888 765.325,380.011 M746.916,400.665 Q738.295,413.237 729.539,426.482 712.028,452.973 711.445,456.341 710.726,460.606 719.976,467.61 729.584,474.929 739.283,476.546 748.083,478.027 777.493,478.252 802.188,478.431 812.021,477.893 817.364,477.623 821.046,476.815 822.887,476.456 823.65,476.141 M778.795,481.26 L784.452,496.885 Q790.199,513.813 790.918,520.548 L811.347,522.433 Q833.124,524.05 839.859,522.793 850.904,520.727 862.668,517.18 878.383,512.466 886.151,507.527 891.988,503.845 900.878,498.726 907.029,494 907.703,492.485 908.601,489.252 908.421,483.505 908.241,477.219 906.805,471.158 905.547,465.814 902.135,453.826 L898.947,442.871 M883.681,399.048 L889.294,409.375 M858.492,383.333 L881.706,393.256 Q905.054,403.583 905.907,405.559 908.601,411.845 905.907,413.192 904.829,413.73 894.951,413.192 884.444,412.608 881.661,413.192 878.742,413.775 873.444,414.179 867.607,414.584 865.227,414.988 862.084,415.526 859.66,416.829 857.28,418.086 856.921,418.131" test="Bec nom Jean"/>
    </g>
    <g id="Jean-Reno-body">
      <path id="Layer2_0_1_STROKES" stroke="#FEB7AE" stroke-width="1.89" stroke-linejoin="round" stroke-linecap="round" fill="none" d="M219.344,196.017 Q225.487,202.16 263.807,208.302 289.558,212.46 316.727,214.917 324.003,215.579 366.576,224.273 402.911,231.644 409.337,230.037 419.118,227.58 426.583,224.603 436.08,220.776 445.247,214.917 454.366,209.058 466.557,207.263 476.763,205.703 484.984,207.357 490.89,208.538 496.56,210.428 499.395,211.373 501.049,212.082 499.395,212.555 497.505,213.547 493.82,215.579 492.922,218.366 492.024,221.154 495.096,223.989 496.655,225.359 498.356,226.21 496.466,226.966 494.765,228.336 491.316,231.077 492.213,234.006 493.111,236.983 498.781,238.259 501.616,238.92 504.262,238.967 L505.302,245.015 Q506.766,251.347 508.987,252.67 511.208,253.993 516.594,251.441 519.288,250.213 521.508,248.654 L523.304,252.67 Q525.761,256.592 529.305,255.977 532.848,255.41 535.825,252.339 537.29,250.78 538.046,249.362 L541.495,250.78 Q545.18,251.961 546.362,250.78 547.543,249.599 548.488,246.291 L549.197,243.22 551.465,256.166 Q553.544,269.963 552.504,273.932 552.41,274.263 551.418,279.13 550.709,282.579 549.811,284.847 547.165,291.604 540.408,295.195 M472.605,249.835 Q480.826,247.85 492.071,249.788 508.467,252.575 517.02,263.537 520.327,267.79 527.226,276.531 533.132,284.233 536.439,290.423 545.37,307.149 541.826,324.254 538.329,341.075 528.974,356.525 524.674,363.613 516.311,373.866 513.948,376.748 505.16,383.647 494.718,391.821 482.007,400.043 446.523,423.053 414.251,432.976 L398.517,437.819 Q401.156,441.12 403.289,451.781 405.462,462.649 404.565,468.65 403.809,473.753 406.502,477.155 407.21,478.1 410.707,480.698 413.495,482.777 417.7,489.392 423.134,497.897 422.047,502.906 420.913,508.34 415,513.584 411.558,518.262 407.636,519.443 404.706,520.341 399.131,520.436 L394.17,520.388 400.596,521.711 Q407.825,524.026 412.125,528.893 417.7,535.225 419.968,539.666 422.614,544.769 421.102,547.793 420.063,549.92 417.275,556.346 413.826,562.299 407.4,565.276 401.399,568.064 388.311,564.992 381.743,563.244 378.955,562.535 374.23,561.354 372.435,561.496 370.072,561.685 351.503,566.41 332.697,571.229 326.13,571.891 319.231,572.6 310.962,569.103 307.088,567.308 305.529,566.693 302.977,565.607 301.796,565.748 298.016,565.937 296.078,566.174 292.724,566.646 290.22,568.583 287.385,570.757 283.51,569.812 279.825,568.914 278.88,566.457 277.793,563.669 277.887,562.016 278.029,559.7 280.297,557.952 282.376,556.346 285.684,555.779 287.337,555.542 288.566,555.59 287.668,554.55 287.054,553.18 285.825,550.439 287.148,548.975 288.613,547.368 292.44,546.565 295.653,545.903 298.252,546.14 299.386,546.234 296.835,544.439 293.669,542.218 294.708,541.178 295.937,539.95 299.102,540.044 300.567,540.092 304.158,540.706 305.387,540.895 307.371,542.312 308.789,543.352 309.828,542.832 313.136,541.178 317.577,539.099 324.381,535.934 327.075,535.036 331.327,533.618 335.58,532.673 M231.346,197.104 Q235.504,195.119 250.388,186.236 264.374,178.346 269.382,178.204 282.376,177.826 286.392,178.204 299.197,179.385 311.01,185.291 336.335,197.954 339.974,199.844 356.181,208.444 363.221,214.114 370.025,219.595 375.695,222.855 378.53,224.509 379.995,225.029 M208.666,261.128 Q208.666,257.064 209.658,252.056 211.69,241.991 216.699,237.266 227.235,227.344 240.796,229.47 245.994,230.273 256.152,236.51 265.508,242.228 267.965,245.299 269.902,247.709 274.722,248.606 278.407,249.315 283.321,249.079 285.967,248.984 299.906,247.992 313.325,247.236 317.152,248.134 323.484,249.599 338.131,254.56 354.905,260.277 358.023,262.781 360.386,264.671 368.418,271.664 375.931,277.901 378.813,279.083 382.121,280.406 382.641,281.303 382.971,281.918 382.357,284.091 382.121,284.942 382.641,291.226 383.16,298.077 382.357,303.464 381.365,310.126 376.262,327.561 371.442,344.004 368.891,350.241 366.812,355.391 360.244,366.826 354.243,377.268 352.117,380.009 350.652,381.946 347.345,385.868 L344.321,389.459 348.857,390.215 Q353.96,391.207 356.606,392.53 358.732,393.617 363.363,395.79 367.237,398.058 369.363,401.507 372.151,406.043 372.813,408.311 373.663,411.288 372.671,414.737 371.679,418.139 369.316,421.778 367.379,424.754 365.111,427.022 362.04,430.094 360.15,431.606 356.795,434.299 354.48,434.582 351.408,435.008 349.991,434.866 347.817,434.63 344.085,433.165 341.061,431.984 338.934,429.527 335.958,426.125 333.926,424.66 331.091,422.581 329.626,419.651 327.783,415.871 325.893,413.792 322.775,410.343 320.743,409.115 319.278,408.264 316.443,407.65 314.175,407.177 313.797,407.272 312.427,407.886 310.065,408.831 305.812,411.005 304.206,411.619 301.607,412.564 300.142,410.485 297.827,407.272 297.449,406.185 296.693,404.059 297.78,401.035 299.102,397.444 299.622,396.735 300.426,395.743 303.45,394.42 307.986,392.388 314.081,394.42 314.742,394.656 314.081,391.207 312.38,381.946 312.333,381.71 309.687,364.983 312.191,351.659 314.506,339.515 320.649,320.946 325.61,305.968 325.185,304.409 324.665,302.471 310.821,303.038 295.417,303.7 293.054,302.755 290.409,301.715 275.572,297.699 261.728,293.919 260.877,293.305 M188.112,271.57 Q201.342,283.902 208.761,289.147 228.511,303.18 252.609,310.079 276.234,316.883 298.488,324.206 309.592,327.845 315.971,330.16 M344.982,527.476 Q343.99,523.318 326.082,490 307.844,458.018 306.474,453.766 303.733,445.166 301.607,435.008 299.008,422.628 300.095,419.935 301.182,417.336 304.158,414.643 306.096,412.847 308.364,411.43 M335.296,522.751 Q334.02,523.696 332.036,524.594 328.161,526.436 324.901,526.295 321.546,526.153 315.357,523.696 310.868,521.9 308.127,520.388 307.135,519.821 306.379,517.695 305.718,515.9 304.583,515.9 303.45,515.9 300.993,518.026 298.205,520.436 297.024,520.861 295.228,521.522 291.637,520.577 288.471,519.727 286.629,518.498 285.164,517.553 284.786,515.38 284.549,513.868 284.739,510.702 284.88,508.387 286.203,507.016 286.251,506.922 289.227,504.559 290.692,503.378 292.251,502.906 293.007,502.67 293.48,502.67 M301.749,503.142 Q301.559,502.339 301.796,501.299 302.174,499.22 304.111,498.181 306.048,497.141 309.356,497.472 311.198,497.661 314.27,498.181 315.64,498.323 318.192,499.457 320.601,500.543 321.357,500.543 M335.58,539.997 Q328.445,543.73 320.649,547.51 305.15,555.164 302.032,555.59 298.914,556.015 295.559,555.873 L292.818,555.59 M398.517,437.819 L398.469,437.843 Q379.995,443.513 379.569,443.513 379.475,443.513 383.822,459.719 388.074,477.769 387.318,486.368 L385.523,506.119 Q384.153,526.531 386.373,530.075" test="Jean Reno body"/>
    </g>
    <g id="Jean-Renof0r1">
      <g id="JeanRenoFace">
        <path fill="#000" stroke="none" d="M95.235,-33.842 Q90.652,-30.487 88.431,-26.045 85.313,-19.761 79.737,-13.241 72.461,-4.641 67.169,-4.31 62.207,-4.027 48.363,-9.461 33.669,-15.65 29.841,-17.068 25.4,-18.722 19.352,-25.904 11.508,-35.165 9.949,-36.488 8.012,-38.141 7.02,-40.693 6.216,-43.528 5.886,-44.615 5.319,-46.552 4.279,-46.977 3.003,-47.544 .027,-46.41 -7.628,-43.811 -10.935,-42.347 -16.417,-39.937 -21.236,-35.07 -29.505,-26.99 -33.71,-22.88 -41.223,-15.461 -44.388,-11.398 -62.816,12.7 -68.486,19.787 -72.502,24.796 -74.628,30.324 -76.377,34.86 -77.936,42.94 -79.826,52.862 -87.858,80.267 L-88.189,110.554 Q-88.518,144.756 -88.284,165.412 -84.693,168.672 -82.188,173.775 -80.629,176.846 -77.464,184.265 -76.046,187.289 -75.195,194.092 -74.581,199.526 -70.848,204.582 -67.588,209.024 -63.477,212.284 -59.792,215.166 -57.146,219.23 -56.154,220.741 -51.334,231.42 -48.499,237.751 -44.861,238.602 -43.821,238.838 -35.647,242.618 -30.072,245.217 -26.433,243.8 -24.543,243.044 -22.134,243.138 -20.763,243.185 -17.976,243.374 -12.589,243.516 -7.061,239.075 -2.242,235.2 7.35,231.798 15.666,228.868 17.509,226.317 18.785,224.569 20.391,224.522 21.478,224.522 23.604,225.419 28.802,227.687 32.204,226.317 35.748,224.9 44.205,221.403 51.813,218.804 57.246,219.702 61.026,220.316 70.713,224.332 79.596,227.971 84.179,228.207 88.101,228.443 94.952,234.019 100.952,238.933 104.969,237.657 107.426,236.901 109.977,237.61 111.017,237.893 114.183,239.453 119.333,241.862 123.396,239.075 125.806,237.421 129.161,236.57 131.098,236.098 134.784,235.436 141.257,233.924 143.714,228.207 146.879,220.836 149.573,216.3 152.172,211.859 156.471,206.472 158.078,204.44 165.921,197.683 171.45,192.911 172.536,188.517 173.623,184.217 177.214,179.681 181.75,173.87 182.931,171.507 184.585,168.2 186.475,163.711 188.129,160.734 191.436,160.12 194.933,159.505 195.453,161.395 195.689,162.199 195.216,167.255 194.933,170.515 193.374,172.972 L191.909,174.815 193.374,172.972 Q194.933,170.515 195.216,167.255 195.689,162.199 195.453,161.395 194.933,159.505 191.436,160.12 188.129,160.734 186.475,163.711 184.585,168.2 182.931,171.507 181.75,173.87 177.214,179.681 173.623,184.217 172.536,188.517 171.45,192.911 165.921,197.683 158.078,204.44 156.471,206.472 152.172,211.859 149.573,216.3 146.879,220.836 143.714,228.207 141.257,233.924 134.784,235.436 131.098,236.098 129.161,236.57 125.806,237.421 123.396,239.075 119.333,241.862 114.183,239.453 111.017,237.893 109.977,237.61 107.426,236.901 104.969,237.657 100.952,238.933 94.952,234.019 88.101,228.443 84.179,228.207 79.596,227.971 70.713,224.332 61.026,220.316 57.246,219.702 51.813,218.804 44.205,221.403 35.748,224.9 32.204,226.317 28.802,227.687 23.604,225.419 21.478,224.522 20.391,224.522 18.785,224.569 17.509,226.317 15.666,228.868 7.35,231.798 -2.242,235.2 -7.061,239.075 -12.589,243.516 -17.976,243.374 -20.763,243.185 -22.134,243.138 -24.543,243.044 -26.433,243.8 -30.072,245.217 -35.647,242.618 -43.821,238.838 -44.861,238.602 -48.499,237.751 -51.334,231.42 -56.154,220.741 -57.146,219.23 -59.792,215.166 -63.477,212.284 -67.588,209.024 -70.848,204.582 -74.581,199.526 -75.195,194.092 -76.046,187.289 -77.464,184.265 -80.629,176.846 -82.188,173.775 -84.693,168.672 -88.284,165.412 -88.285,165.53 -88.284,165.648 -88.047,182.8 -87.386,188.99 -86.913,193.715 -85.118,201.605 -83.181,209.874 -80.298,219.466 -80.062,220.175 -73.731,233.263 -67.683,245.831 -65.651,253.722 -61.398,270.449 -58.516,274.937 -56.957,277.394 -53.791,280.371 -51.759,282.308 -45.806,287.742 -44.199,289.254 -38.435,296.625 -32.765,303.902 -31.064,305.414 -26.906,309.146 -19.062,313.304 -12.306,316.848 -8.478,321.29 -1.533,329.322 4.232,332.441 10.469,335.748 19.872,335.937 20.06,335.937 34.755,338.678 46.757,340.946 52.994,339.245 57.813,337.922 68.256,337.78 78.273,337.638 83.895,335.843 92.542,333.102 98.165,329.227 104.166,325.022 111.111,316.565 114.655,313.399 116.498,311.65 119.758,308.532 120.703,304.138 121.553,300.169 129.964,292.467 138.564,284.624 139.792,280.229 142.343,271.11 146.36,264.684 150.282,258.494 156.33,253.628 160.677,250.178 164.504,239.925 168.378,229.625 171.213,227.215 176.127,223.104 178.726,215.497 180.9,207.37 181.986,204.582 187.326,190.691 191.342,181.382 L194.271,174.815 194.886,176.657 Q196.539,178.642 201.831,179.54 207.36,180.485 211.281,176.138 213.88,173.208 215.061,169.145 215.345,168.105 213.408,157.946 211.234,146.606 211.754,137.912 212.368,128.037 216,117.547 219.314,112.208 225.031,102.475 228.953,95.812 229.756,90.568 230.701,84.283 227.394,79.322 222.905,72.566 220.826,71.479 216,69.447 210.195,73.794 209.297,77.432 207.218,83.622 203.249,95.529 203.249,99.64 203.249,104.648 201.595,112.35 200.792,116.177 199.941,119.012 190.964,85.937 187.184,73.18 183.687,61.414 173.954,37.175 163.134,10.243 159.306,6.085 155.007,1.407 141.777,-9.602 128.405,-20.753 122.451,-24.628 119.9,-26.282 112.765,-32.991 108.04,-37.433 104.496,-37.433 100.055,-37.433 95.235,-33.842 M159.779,92.032 Q164.929,99.592 164.976,99.64 164.929,99.592 159.779,92.032 155.715,86.032 151.746,84.047 147.541,81.968 135.398,83.48 121.742,85.701 117.254,86.41 110.733,87.449 97.362,92.741 84.415,97.844 78.509,101.53 84.415,97.844 97.362,92.741 110.733,87.449 117.254,86.41 121.742,85.701 135.398,83.48 147.541,81.968 151.746,84.047 155.715,86.032 159.779,92.032 M144.47,109.373 L143.383,114.098 Q141.824,119.39 139.461,122.32 136.485,126.053 131.949,127.47 126.94,129.029 119.144,127.99 106.528,126.336 105.441,108.334 100.267,110.256 95.046,112.681 L90.794,114.76 95.046,112.681 Q100.267,110.256 105.441,108.334 105.512,108.312 105.583,108.286 121.79,102.38 131.901,103.42 136.296,103.884 144.47,109.373 145.435,110.023 146.454,110.744 156.235,117.689 158.834,118.067 156.235,117.689 146.454,110.744 145.435,110.023 144.47,109.373 M148.486,132.195 Q153.164,130.21 154.109,127.045 153.164,130.21 148.486,132.195 144.942,133.66 140.406,134.132 144.942,133.66 148.486,132.195 M116.12,153.552 Q122.546,154.214 127.176,152.087 122.546,154.214 116.12,153.552 109.647,152.89 105.441,149.725 109.647,152.89 116.12,153.552 M93.156,123.265 Q96.558,130.967 103.551,134.132 96.558,130.967 93.156,123.265 M81.864,187.052 L81.816,183.792 81.864,187.052 Q81.769,190.691 80.871,192.77 79.974,194.849 74.682,197.069 L69.531,198.912 Q66.413,199.432 64.806,194.801 64.806,194.99 64.806,195.132 64.806,198.487 62.585,202.125 60.128,206.047 55.356,209.78 50.112,213.89 43.544,213.56 36.362,213.181 28.896,207.417 22.565,202.55 19.966,192.533 17.982,185.02 18.454,176.705 18.737,171.507 23.321,156.718 28.188,141.692 28.896,138.857 29.841,135.313 29.936,123.406 29.841,110.98 29.841,108.617 29.841,103.703 27.715,98.459 24.88,91.607 19.872,89.717 16.8,88.583 10.233,87.827 4.137,87.119 -1.863,84.52 -10.179,80.881 -22.701,78.755 -35.506,76.535 -41.081,77.905 -46.515,79.275 -53.13,83.622 -59.272,87.733 -63.761,92.552 -59.272,87.733 -53.13,83.622 -46.515,79.275 -41.081,77.905 -35.506,76.535 -22.701,78.755 -10.179,80.881 -1.863,84.52 4.137,87.119 10.233,87.827 16.8,88.583 19.872,89.717 24.88,91.607 27.715,98.459 29.841,103.703 29.841,108.617 29.841,110.98 29.936,123.406 29.841,135.313 28.896,138.857 28.188,141.692 23.321,156.718 18.737,171.507 18.454,176.705 17.982,185.02 19.966,192.533 22.565,202.55 28.896,207.417 36.362,213.181 43.544,213.56 50.112,213.89 55.356,209.78 60.128,206.047 62.585,202.125 64.806,198.487 64.806,195.132 64.806,194.99 64.806,194.801 64.428,193.762 64.145,192.439 L63.389,185.21 64.098,188.564 Q64.759,192.25 64.806,194.801 66.413,199.432 69.531,198.912 L74.682,197.069 Q79.974,194.849 80.871,192.77 81.769,190.691 81.864,187.052 M86.541,248.052 Q89.518,248.808 95.093,253.155 101.142,257.833 104.024,258.92 107.473,260.243 107.473,267.614 107.473,272.433 107.473,272.811 107.662,275.315 108.749,275.93 112.056,277.82 113.001,280.135 114.277,283.159 110.166,285.38 109.458,285.758 97.22,291.333 88.337,295.397 86.069,297.665 84.935,298.799 83.895,301.161 L82.194,305.13 Q79.832,309.571 74.729,309.005 68.586,308.343 64.05,308.579 59.939,308.816 55.829,309.95 45.954,312.643 42.693,313.21 32.865,314.864 29.841,311.84 19.588,301.728 13.257,297.665 10.8,296.105 7.35,290.483 4.137,285.191 1.444,283.962 -1.674,282.545 -2.761,280.702 -3.753,278.292 -5.171,276.402 -6.919,274.04 -6.919,270.732 L-6.588,267.897 Q-4.415,262.038 -.493,256.793 1.255,254.478 6.642,248.525 9.24,245.642 14.343,244.461 20.344,242.996 22.707,241.437 25.92,239.311 32.346,239.075 39.764,238.838 41.654,238.13 44.158,237.232 52.805,238.366 61.877,239.594 65.751,238.602 70.146,237.515 76.855,242.099 85.029,247.674 86.541,248.052 M11.367,110.035 Q2.455,105.578 -.777,104.081 L-.352,105.168 Q-.068,107.152 -.918,111.452 -2.052,117.359 -5.974,120.335 -10.794,124.068 -20.291,123.737 -29.316,123.406 -33.616,117.547 -36.262,113.815 -37.443,106.633 -48.682,110.988 -51.476,114.76 -48.682,110.988 -37.443,106.633 -37.28,106.603 -37.112,106.538 -30.639,104.128 -22.984,102.097 -16.369,100.348 -13.676,100.112 -10.321,99.829 -1.674,103.656 -1.297,103.824 -.777,104.081 2.455,105.578 11.367,110.035 M6.831,128.037 Q9.477,124.588 9.477,120.902 9.477,124.588 6.831,128.037 4.374,131.203 .972,132.715 4.374,131.203 6.831,128.037 M-46.467,132.667 Q-42.026,136.353 -37.301,137.44 -42.026,136.353 -46.467,132.667 -51.098,128.793 -53.838,123.265 -51.098,128.793 -46.467,132.667 M-37.773,145.945 Q-32.859,150.245 -30.78,151.095 -25.394,153.269 -17.456,150.197 -25.394,153.269 -30.78,151.095 -32.859,150.245 -37.773,145.945 M149.337,-68.192 Q144.517,-69.61 142.391,-70.98 139.461,-72.775 138.989,-75.705 138.091,-80.997 146.265,-85.958 150.329,-88.462 154.581,-89.88 150.471,-90.352 145.037,-90.116 134.169,-89.644 127.649,-86.1 124.152,-84.163 121.176,-84.635 119.191,-84.919 116.262,-86.667 112.812,-88.746 111.253,-89.266 108.087,-90.352 104.496,-89.407 98.496,-87.848 87.061,-93.235 80.352,-96.4 79.454,-96.779 75.816,-98.196 74.256,-97.44 71.09,-95.833 51.198,-96.731 33.621,-97.535 24.597,-98.857 18.643,-99.755 9.713,-107.173 L1.917,-114.45 2.578,-111.19 Q3.287,-107.362 3.381,-104.339 3.759,-94.794 -1.863,-97.44 -7.486,-100.086 -19.393,-100.464 L-30.213,-100.275 -22.464,-93.187 Q-15.755,-86.336 -20.763,-87.518 -25.772,-88.699 -36.309,-84.446 L-45.806,-79.958 -43.632,-79.816 Q-41.128,-79.532 -39.474,-78.823 -34.182,-76.603 -39.191,-70.98 -49.822,-59.073 -55.209,-52.174 -66.738,-37.385 -76.518,-19.903 -84.456,-5.728 -87.102,27.584 -88.756,48.704 -88.095,73.038 -88,77.574 -87.858,80.267 -79.826,52.862 -77.936,42.94 -76.377,34.86 -74.628,30.324 -72.502,24.796 -68.486,19.787 -62.816,12.7 -44.388,-11.398 -41.223,-15.461 -33.71,-22.88 -29.505,-26.99 -21.236,-35.07 -16.417,-39.937 -10.935,-42.347 -7.628,-43.811 .027,-46.41 3.003,-47.544 4.279,-46.977 5.319,-46.552 5.886,-44.615 6.216,-43.528 7.02,-40.693 8.012,-38.141 9.949,-36.488 11.508,-35.165 19.352,-25.904 25.4,-18.722 29.841,-17.068 33.669,-15.65 48.363,-9.461 62.207,-4.027 67.169,-4.31 72.461,-4.641 79.737,-13.241 85.313,-19.761 88.431,-26.045 90.652,-30.487 95.235,-33.842 100.055,-37.433 104.496,-37.433 108.04,-37.433 112.765,-32.991 119.9,-26.282 122.451,-24.628 128.405,-20.753 141.777,-9.602 155.007,1.407 159.306,6.085 163.134,10.243 173.954,37.175 183.687,61.414 187.184,73.18 190.964,85.937 199.941,119.012 200.792,116.177 201.595,112.35 203.249,104.648 203.249,99.64 203.249,95.529 207.218,83.622 209.297,77.432 210.195,73.794 210.903,70.675 210.809,69.4 210.573,66.801 209.297,58.91 207.785,49.933 207.029,43.412 204.336,20.212 203.958,16.432 202.02,-2.373 202.304,-8.09 202.635,-14.516 188.412,-34.928 174.71,-54.632 166.394,-61.058 161,-64.46 149.337,-68.192Z" test="JeanRenoFace" vector-effect="non-scaling-stroke" stroke-width="1"/>
        <path id="Layer4_0_1_STROKES" stroke="#FFF" stroke-width="1.89" stroke-linejoin="round" stroke-linecap="round" fill="none" d="M-87.858,80.267 Q-88,77.574 -88.095,73.038 -88.756,48.704 -87.102,27.584 -84.456,-5.728 -76.518,-19.903 -66.738,-37.385 -55.209,-52.174 -49.822,-59.073 -39.191,-70.98 -34.182,-76.603 -39.474,-78.823 -41.128,-79.532 -43.632,-79.816 L-45.806,-79.958 -36.309,-84.446 Q-25.772,-88.699 -20.763,-87.518 -15.755,-86.336 -22.464,-93.187 L-30.213,-100.275 -19.393,-100.464 Q-7.486,-100.086 -1.863,-97.44 3.759,-94.794 3.381,-104.339 3.287,-107.362 2.578,-111.19 L1.917,-114.45 9.713,-107.173 Q18.643,-99.755 24.597,-98.857 33.621,-97.535 51.198,-96.731 71.09,-95.833 74.256,-97.44 75.816,-98.196 79.454,-96.779 80.352,-96.4 87.061,-93.235 98.496,-87.848 104.496,-89.407 108.087,-90.352 111.253,-89.266 112.812,-88.746 116.262,-86.667 119.191,-84.919 121.176,-84.635 124.152,-84.163 127.649,-86.1 134.169,-89.644 145.037,-90.116 150.471,-90.352 154.581,-89.88 150.329,-88.462 146.265,-85.958 138.091,-80.997 138.989,-75.705 139.461,-72.775 142.391,-70.98 144.517,-69.61 149.337,-68.192 161,-64.46 166.394,-61.058 174.71,-54.632 188.412,-34.928 202.635,-14.516 202.304,-8.09 202.02,-2.373 203.958,16.432 204.336,20.212 207.029,43.412 207.785,49.933 209.297,58.91 210.573,66.801 210.809,69.4 210.903,70.675 210.195,73.794 216,69.447 220.826,71.479 222.905,72.566 227.394,79.322 230.701,84.283 229.756,90.568 228.953,95.812 225.031,102.475 219.314,112.208 216,117.547 212.368,128.037 211.754,137.912 211.234,146.606 213.408,157.946 215.345,168.105 215.061,169.145 213.88,173.208 211.281,176.138 207.36,180.485 201.831,179.54 196.539,178.642 194.886,176.657 L194.271,174.815 191.342,181.382 Q187.326,190.691 181.986,204.582 180.9,207.37 178.726,215.497 176.127,223.104 171.213,227.215 168.378,229.625 164.504,239.925 160.677,250.178 156.33,253.628 150.282,258.494 146.36,264.684 142.343,271.11 139.792,280.229 138.564,284.624 129.964,292.467 121.553,300.169 120.703,304.138 119.758,308.532 116.498,311.65 114.655,313.399 111.111,316.565 104.166,325.022 98.165,329.227 92.542,333.102 83.895,335.843 78.273,337.638 68.256,337.78 57.813,337.922 52.994,339.245 46.757,340.946 34.755,338.678 20.06,335.937 19.872,335.937 10.469,335.748 4.232,332.441 -1.533,329.322 -8.478,321.29 -12.306,316.848 -19.062,313.304 -26.906,309.146 -31.064,305.414 -32.765,303.902 -38.435,296.625 -44.199,289.254 -45.806,287.742 -51.759,282.308 -53.791,280.371 -56.957,277.394 -58.516,274.937 -61.398,270.449 -65.651,253.722 -67.683,245.831 -73.731,233.263 -80.062,220.175 -80.298,219.466 -83.181,209.874 -85.118,201.605 -86.913,193.715 -87.386,188.99 -88.047,182.8 -88.284,165.648 -88.285,165.53 -88.284,165.412 -88.518,144.756 -88.189,110.554 L-87.858,80.267 Q-79.826,52.862 -77.936,42.94 -76.377,34.86 -74.628,30.324 -72.502,24.796 -68.486,19.787 -62.816,12.7 -44.388,-11.398 -41.223,-15.461 -33.71,-22.88 -29.505,-26.99 -21.236,-35.07 -16.417,-39.937 -10.935,-42.347 -7.628,-43.811 .027,-46.41 3.003,-47.544 4.279,-46.977 5.319,-46.552 5.886,-44.615 6.216,-43.528 7.02,-40.693 8.012,-38.141 9.949,-36.488 11.508,-35.165 19.352,-25.904 25.4,-18.722 29.841,-17.068 33.669,-15.65 48.363,-9.461 62.207,-4.027 67.169,-4.31 72.461,-4.641 79.737,-13.241 85.313,-19.761 88.431,-26.045 90.652,-30.487 95.235,-33.842 100.055,-37.433 104.496,-37.433 108.04,-37.433 112.765,-32.991 119.9,-26.282 122.451,-24.628 128.405,-20.753 141.777,-9.602 155.007,1.407 159.306,6.085 163.134,10.243 173.954,37.175 183.687,61.414 187.184,73.18 190.964,85.937 199.941,119.012 200.792,116.177 201.595,112.35 203.249,104.648 203.249,99.64 203.249,95.529 207.218,83.622 209.297,77.432 210.195,73.794 M78.509,101.53 Q84.415,97.844 97.362,92.741 110.733,87.449 117.254,86.41 121.742,85.701 135.398,83.48 147.541,81.968 151.746,84.047 155.715,86.032 159.779,92.032 164.929,99.592 164.976,99.64 M105.441,108.334 Q106.528,126.336 119.144,127.99 126.94,129.029 131.949,127.47 136.485,126.053 139.461,122.32 141.824,119.39 143.383,114.098 L144.47,109.373 Q136.296,103.884 131.901,103.42 121.79,102.38 105.583,108.286 105.512,108.312 105.441,108.334 100.267,110.256 95.046,112.681 L90.794,114.76 M144.47,109.373 Q145.435,110.023 146.454,110.744 156.235,117.689 158.834,118.067 M140.406,134.132 Q144.942,133.66 148.486,132.195 153.164,130.21 154.109,127.045 M-88.284,165.412 Q-84.693,168.672 -82.188,173.775 -80.629,176.846 -77.464,184.265 -76.046,187.289 -75.195,194.092 -74.581,199.526 -70.848,204.582 -67.588,209.024 -63.477,212.284 -59.792,215.166 -57.146,219.23 -56.154,220.741 -51.334,231.42 -48.499,237.751 -44.861,238.602 -43.821,238.838 -35.647,242.618 -30.072,245.217 -26.433,243.8 -24.543,243.044 -22.134,243.138 -20.763,243.185 -17.976,243.374 -12.589,243.516 -7.061,239.075 -2.242,235.2 7.35,231.798 15.666,228.868 17.509,226.317 18.785,224.569 20.391,224.522 21.478,224.522 23.604,225.419 28.802,227.687 32.204,226.317 35.748,224.9 44.205,221.403 51.813,218.804 57.246,219.702 61.026,220.316 70.713,224.332 79.596,227.971 84.179,228.207 88.101,228.443 94.952,234.019 100.952,238.933 104.969,237.657 107.426,236.901 109.977,237.61 111.017,237.893 114.183,239.453 119.333,241.862 123.396,239.075 125.806,237.421 129.161,236.57 131.098,236.098 134.784,235.436 141.257,233.924 143.714,228.207 146.879,220.836 149.573,216.3 152.172,211.859 156.471,206.472 158.078,204.44 165.921,197.683 171.45,192.911 172.536,188.517 173.623,184.217 177.214,179.681 181.75,173.87 182.931,171.507 184.585,168.2 186.475,163.711 188.129,160.734 191.436,160.12 194.933,159.505 195.453,161.395 195.689,162.199 195.216,167.255 194.933,170.515 193.374,172.972 L191.909,174.815 M130.484,110.035 L134.264,110.98 M105.441,149.725 Q109.647,152.89 116.12,153.552 122.546,154.214 127.176,152.087 M93.156,123.265 Q96.558,130.967 103.551,134.132 M64.806,194.801 Q66.413,199.432 69.531,198.912 L74.682,197.069 Q79.974,194.849 80.871,192.77 81.769,190.691 81.864,187.052 L81.816,183.792 M64.806,194.801 Q64.759,192.25 64.098,188.564 L63.389,185.21 64.145,192.439 Q64.428,193.762 64.806,194.801 64.806,194.99 64.806,195.132 64.806,198.487 62.585,202.125 60.128,206.047 55.356,209.78 50.112,213.89 43.544,213.56 36.362,213.181 28.896,207.417 22.565,202.55 19.966,192.533 17.982,185.02 18.454,176.705 18.737,171.507 23.321,156.718 28.188,141.692 28.896,138.857 29.841,135.313 29.936,123.406 29.841,110.98 29.841,108.617 29.841,103.703 27.715,98.459 24.88,91.607 19.872,89.717 16.8,88.583 10.233,87.827 4.137,87.119 -1.863,84.52 -10.179,80.881 -22.701,78.755 -35.506,76.535 -41.081,77.905 -46.515,79.275 -53.13,83.622 -59.272,87.733 -63.761,92.552 M8.059,264.117 Q12.217,261.471 17.793,259.865 23.841,258.116 28.896,258.447 31.637,258.636 37.826,260.857 43.024,262.747 47.796,262.227 51.576,261.802 58.664,259.298 64.948,257.03 69.531,257.03 75.39,257.03 80.541,259.392 84.699,261.329 87.959,264.59 M-6.588,267.897 Q-4.415,262.038 -.493,256.793 1.255,254.478 6.642,248.525 9.24,245.642 14.343,244.461 20.344,242.996 22.707,241.437 25.92,239.311 32.346,239.075 39.764,238.838 41.654,238.13 44.158,237.232 52.805,238.366 61.877,239.594 65.751,238.602 70.146,237.515 76.855,242.099 85.029,247.674 86.541,248.052 89.518,248.808 95.093,253.155 101.142,257.833 104.024,258.92 107.473,260.243 107.473,267.614 107.473,272.433 107.473,272.811 107.662,275.315 108.749,275.93 112.056,277.82 113.001,280.135 114.277,283.159 110.166,285.38 109.458,285.758 97.22,291.333 88.337,295.397 86.069,297.665 84.935,298.799 83.895,301.161 L82.194,305.13 Q79.832,309.571 74.729,309.005 68.586,308.343 64.05,308.579 59.939,308.816 55.829,309.95 45.954,312.643 42.693,313.21 32.865,314.864 29.841,311.84 19.588,301.728 13.257,297.665 10.8,296.105 7.35,290.483 4.137,285.191 1.444,283.962 -1.674,282.545 -2.761,280.702 -3.753,278.292 -5.171,276.402 -6.919,274.04 -6.919,270.732 L-6.588,267.897Z M-88.803,72.707 Q-94.001,65.761 -102.128,65.431 -110.16,65.147 -111.956,71.29 -113.184,75.495 -106.947,89.056 -100.143,103.751 -100.143,108.617 -100.143,113.815 -99.907,132.053 -99.907,148.827 -101.089,154.45 -102.364,160.592 -100.096,162.719 -98.301,164.372 -94.473,163.475 M11.367,110.035 Q2.455,105.578 -.753,104.081 L-.352,105.168 Q-.068,107.152 -.918,111.452 -2.052,117.359 -5.974,120.335 -10.794,124.068 -20.291,123.737 -29.316,123.406 -33.616,117.547 -36.262,113.815 -37.443,106.656 -48.682,110.988 -51.476,114.76 M-.753,104.081 Q-1.297,103.824 -1.674,103.656 -10.321,99.829 -13.676,100.112 -16.369,100.348 -22.984,102.097 -30.639,104.128 -37.112,106.538 -37.28,106.603 -37.443,106.656 M-12.731,106.255 L-10.368,106.727 M0.972,132.715 Q4.374,131.203 6.831,128.037 9.477,124.588 9.477,120.902 M-53.838,123.265 Q-51.098,128.793 -46.467,132.667 -42.026,136.353 -37.301,137.44 M-37.773,145.945 Q-32.859,150.245 -30.78,151.095 -25.394,153.269 -17.456,150.197 M42.126,248.052 Q50.631,249.47 54.884,249.47 M42.599,270.26 Q46.237,269.787 47.277,269.834 49.497,269.929 52.994,271.205" test="JeanRenoFace"/>
      </g>
      <g id="TearAnimf0r1">
        <g id="TearGraphic">
          <path id="Layer5_0_1_STROKES" stroke="#0FF" stroke-width="1" stroke-linejoin="round" stroke-linecap="round" fill="none" d="M-15.855,123.346 Q-15.864,123.723 -15.955,123.983 -16.059,124.26 -16.369,124.702 -16.683,125.152 -16.501,125.743 -16.319,126.349 -15.814,126.367 -15.318,126.385 -15.09,125.944 -14.904,125.584 -14.94,125.079 -14.958,124.829 -15.313,124.315 -15.7,123.751 -15.814,123.2" test="TearGraphic" vector-effect="non-scaling-stroke"/>
        </g>
      </g>
    </g>
    <g id="BlackMaskRect">
      <path fill="#000" stroke="none" d="M823.45,613.6 L823.45,508.3 -23.6,508.3 -23.6,613.6 823.45,613.6Z" test="BlackMaskRect"/>
    </g>
  </g>
</svg>