<?xml version="1.0" encoding="utf-8"?>
<svg id="EdithAnim06" image-rendering="inherit" baseProfile="basic" version="1.1" x="0px" y="0px" width="800" height="600" xmlns="http://www.w3.org/2000/svg" xmlns:xlink="http://www.w3.org/1999/xlink">
  <g id="Jean-Renof7r1" overflow="visible">
    <g id="Bec-nom-Jean">
      <path id="Layer3_0_1_STROKES" stroke="#F90" stroke-width="1.794" stroke-linejoin="round" stroke-linecap="round" fill="none" d="M728.529,399.258 Q728.384,399.087 728.24,398.915 M686.683,435.115 Q685.692,442.988 683.554,451.839 681.477,460.427 679.596,464.78 M750.52,384.776 Q748.22,384.567 747.306,384.54 746.97,384.6 746.751,384.55" test="Bec nom Jean"/>
      <path id="Layer3_0_2_STROKES" stroke="#FFF" stroke-width="1.794" stroke-linejoin="round" stroke-linecap="round" fill="none" d="M741.755,185.079 Q742.342,180.75 743.176,178.733 744.377,175.926 746.902,174.76 749.935,173.39 754.002,175.112 758.355,176.993 758.935,180.856 M732.009,226.651 Q729.164,229 728.137,233.444 727.156,236.72 728.201,238.845 728.219,238.895 728.246,238.948 730.558,243.487 735.671,244.669 740.225,245.675 745.165,243.825 M676.203,237.461 Q682.345,235.981 686.073,237.579 689.098,238.83 691.968,242.946 692.972,244.375 693.419,245.629 L698.304,246.206 Q703.948,246.682 707.932,246.175 714.054,245.381 719.527,243.608 724.44,242.005 726.869,240.125 727.67,239.496 728.201,238.845 M678.247,206.308 Q679.168,196.946 685.146,194.783 688.659,193.523 692.663,195.323 696.172,196.871 698.675,199.981 M693.419,245.629 Q694.048,247.318 693.926,249.015 693.846,250.002 693.515,250.991 692.741,253.344 690.249,256.359" test="Bec nom Jean"/>
      <path id="Layer3_0_3_STROKES" stroke="#FEB7AE" stroke-width="1.794" stroke-linejoin="round" stroke-linecap="round" fill="none" d="M774.735,163.884 Q778.12,173.137 780.666,182.242 788.178,209.219 785.613,225.967 785.475,226.869 785.205,228.128 781.37,246.116 772.435,256.296 766.068,263.525 756.314,267.485 743.168,272.779 734.881,274.178 718.229,276.912 700.094,271.524 686.181,267.388 677.546,262.722 670.272,258.739 666.26,253.991 M724.287,277.392 Q725.194,279.443 725.781,281.88 M771.305,346.032 Q768.862,343.258 766.08,340.359 760.494,334.649 758.692,334.278 756.803,333.888 755.636,334.953 754.812,335.729 754.55,336.865 753.964,339.4 753.96,341.609 753.966,344.372 754.903,345.694 756.298,347.627 756.012,347.469 753.494,346.013 750.345,344.502 744.046,341.481 740.765,341.137 735.501,340.611 730.392,345.783 727.934,348.253 728.286,352.708 728.583,356.597 730.385,358.763 732.263,360.992 735.086,363.118 738.538,365.711 741.567,366.549 746.192,367.848 754.237,368.096 M730.337,381.677 L736.073,379.366 Q742.407,377.055 745.308,376.851 750.677,376.527 751.756,376.638 754.819,376.931 755.359,379.174 755.876,381.319 752.067,383.062 750.123,383.902 747.306,384.54 M750.52,384.776 Q755.915,385.931 759.457,389.328 L764.314,393.811 Q768.941,398.885 767.79,402.072 766.316,406.059 763.381,408.602 760.263,411.335 756.962,411.078 752.397,410.713 748.296,409.535 742.948,407.977 742.071,405.795 741.809,405.136 739.752,403.878 738.707,403.222 735.433,401.453 733.961,400.652 731.386,400.241 729.171,399.867 728.529,399.258 M739.801,277.985 L738.424,273.984" test="Bec nom Jean"/>
      <path id="Layer3_0_4_STROKES" stroke="#00F" stroke-width="1.794" stroke-linejoin="round" stroke-linecap="round" fill="none" d="M787.873,233.118 L796.315,262.321 815.084,250.225 Q813.64,246.117 811.784,238.414 808.061,223.053 806.123,205.342 804.086,186.872 793.224,166.546 787.956,156.674 774.118,136.674 766.256,125.281 749.002,118.071 733.886,111.769 722.614,112.34 702.819,113.336 692.834,115.309 670.672,119.578 658.085,130.617 640.376,146.089 631.564,158.921 619.9,175.928 620.984,191.554 622.195,208.821 634.457,243.603 646.753,278.438 654.1,285.292 660.273,291.046 675.498,294.887 683.105,296.829 689.462,297.608 L666.26,253.991 Q663.682,251.002 662.013,247.071 659.47,241.143 652.628,221.149 645.74,200.959 646.396,201.11 L669.054,190.511 Q694.363,179.006 707.825,174.337 721.287,169.669 747.915,162.611 761.212,159.055 771.849,156.45 L774.735,163.884" test="Bec nom Jean"/>
      <path id="Layer3_0_5_STROKES" stroke="#0FF" stroke-width="1.794" stroke-linejoin="round" stroke-linecap="round" fill="none" d="M768.53,350.869 L766.045,353.655 Q763.469,357.433 762.912,362.23 762.359,367.212 762.836,367.736 763.347,368.315 767.078,370.098 770.56,372.56 786.282,376.838 800.965,380.83 808.609,381.814 816.963,382.916 825.357,383.245 835.527,383.662 838.606,382.486 841.784,381.287 848.859,374.176 855.572,367.441 856.732,364.809 857.843,362.396 857.277,356.281 856.694,349.839 854.487,342.654 852.499,336.118 843.839,326.383 837.401,319.187 830.796,313.701 825.419,309.282 813.746,301.428 801.004,292.821 797.041,291.445 790.315,289.476 786.476,288.359 779.444,286.319 776.133,284.311 772.547,282.101 767.649,280.785 765.572,280.213 758.476,278.849 L750.778,277.3 751.099,280.09 Q751.209,283.2 750.473,284.595 749.662,286.111 746.666,287.122 745.066,287.672 740.319,288.693 734.553,289.938 731.319,290.388 725.522,291.166 723.644,290.133 721.566,288.962 719.826,287.133 718.152,285.411 717.326,283.609 M678.645,344.411 L679.278,361.59 M728.529,399.258 Q728.539,399.215 728.583,399.225 730.471,383.089 730.337,381.677 730.253,380.645 720.969,377.394 711.947,374.204 704.824,372.558 702.289,371.972 683.727,365.841 668.285,360.752 664.251,360.879 660.216,361.005 661.666,359.315 664.171,356.441 664.051,355.769 663.876,354.532 673.023,347.024 684.143,337.948 687.49,334.026 694.418,325.96 695.898,323.54 M711.308,284.75 Q707.387,286.376 703.154,288.159 694.732,291.737 693.387,292.577 M670.824,308.538 Q659.605,318.835 648.104,329.757 625.102,351.601 623.777,354.747 622.118,358.737 629.545,367.635 637.25,376.919 646.326,380.674 654.558,384.096 683.131,390.93 707.125,396.659 716.817,398.347 722.078,399.287 725.843,399.328 727.715,399.393 728.529,399.258 M683.721,394.15 L685.713,410.631 Q687.498,428.398 686.683,435.115 L706.142,441.546 Q726.973,448.017 733.811,448.309 745.025,448.783 757.273,447.977 773.628,446.924 782.299,443.864 788.809,441.594 798.613,438.612 805.438,436.368 806.659,434.072 808.26,431.128 809.378,425.494 810.617,419.336 810.582,413.113 810.561,407.63 809.936,395.194 L809.298,383.814 M804.297,337.729 L807.437,349.043 M783.317,316.768 L803.678,331.648 Q824.079,346.951 824.464,349.065 825.672,355.789 822.747,356.494 821.577,356.776 812.085,354.03 801.99,351.098 799.149,351.04 796.178,350.952 790.93,350.153 785.158,349.234 782.751,349.092 779.571,348.909 776.918,349.631 774.319,350.319 773.96,350.282" test="Bec nom Jean"/>
    </g>
    <g id="Jean-Reno-body">
      <path id="Layer2_0_1_STROKES" stroke="#FEB7AE" stroke-width="1.89" stroke-linejoin="round" stroke-linecap="round" fill="none" d="M-90.455,110.317 Q-84.313,116.46 -45.993,122.602 -20.242,126.76 6.927,129.217 14.203,129.879 56.776,138.573 93.111,145.944 99.537,144.337 109.318,141.88 116.783,138.903 126.28,135.076 135.447,129.217 144.566,123.358 156.757,121.563 166.963,120.003 175.184,121.657 181.09,122.838 186.76,124.728 189.595,125.673 191.249,126.382 189.595,126.855 187.705,127.847 184.02,129.879 183.122,132.666 182.224,135.454 185.296,138.289 186.855,139.659 188.556,140.51 186.666,141.266 184.965,142.636 181.516,145.377 182.413,148.306 183.311,151.283 188.981,152.559 191.816,153.22 194.462,153.267 L195.502,159.315 Q196.966,165.647 199.187,166.97 201.408,168.293 206.794,165.741 209.488,164.513 211.708,162.954 L213.504,166.97 Q215.961,170.892 219.504,170.277 223.048,169.71 226.025,166.639 227.49,165.08 228.246,163.662 L231.695,165.08 Q235.381,166.261 236.562,165.08 237.743,163.899 238.688,160.591 L239.397,157.52 241.665,170.466 Q243.744,184.263 242.704,188.232 242.61,188.563 241.618,193.43 240.909,196.879 240.011,199.147 237.365,205.904 230.608,209.495 M162.805,164.135 Q171.026,162.15 182.271,164.088 198.667,166.875 207.219,177.837 210.527,182.09 217.426,190.831 223.332,198.533 226.639,204.723 235.57,221.449 232.026,238.554 228.529,255.375 219.174,270.825 214.874,277.913 206.511,288.166 204.148,291.048 195.36,297.947 184.918,306.121 172.207,314.343 136.723,337.353 104.451,347.276 L88.717,352.119 Q91.356,355.42 93.489,366.081 95.662,376.949 94.765,382.95 94.009,388.053 96.702,391.455 97.41,392.4 100.907,394.998 103.695,397.077 107.9,403.692 113.334,412.197 112.247,417.206 111.113,422.64 106.199,427.884 101.758,432.562 97.836,433.743 94.906,434.641 89.331,434.736 L84.37,434.688 90.796,436.011 Q98.025,438.327 102.325,443.193 107.9,449.525 110.168,453.966 112.814,459.069 111.302,462.093 110.262,464.22 107.475,470.645 104.026,476.599 97.6,479.576 91.599,482.364 78.511,479.292 71.943,477.544 69.155,476.835 64.43,475.654 62.634,475.796 60.272,475.985 41.703,480.71 22.897,485.529 16.33,486.191 9.431,486.9 1.162,483.403 -2.712,481.607 -4.271,480.993 -6.823,479.907 -8.004,480.048 -11.784,480.237 -13.721,480.474 -17.076,480.946 -19.581,482.883 -22.415,485.057 -26.29,484.112 -29.976,483.214 -30.92,480.757 -32.007,477.969 -31.913,476.316 -31.771,474 -29.503,472.252 -27.424,470.645 -24.116,470.079 -22.463,469.842 -21.234,469.89 -22.132,468.85 -22.746,467.48 -23.975,464.739 -22.652,463.275 -21.187,461.668 -17.36,460.865 -14.147,460.203 -11.548,460.44 -10.414,460.534 -12.965,458.739 -16.131,456.518 -15.092,455.478 -13.863,454.25 -10.697,454.344 -9.233,454.391 -5.642,455.006 -4.413,455.195 -2.429,456.612 -1.011,457.652 .028,457.132 3.336,455.478 7.777,453.399 14.581,450.234 17.275,449.336 21.527,447.918 25.78,446.973 M-78.454,111.404 Q-74.296,109.419 -59.412,100.536 -45.426,92.646 -40.418,92.504 -27.424,92.126 -23.408,92.504 -10.603,93.685 1.21,99.591 26.536,112.254 30.174,114.144 46.381,122.744 53.421,128.414 60.225,133.895 65.895,137.155 68.73,138.809 70.195,139.329 M-101.134,175.428 Q-101.134,171.364 -100.142,166.356 -98.11,156.291 -93.101,151.566 -82.565,141.644 -69.004,143.77 -63.806,144.573 -53.648,150.81 -44.292,156.528 -41.835,159.599 -39.898,162.009 -35.078,162.906 -31.393,163.615 -26.479,163.379 -23.833,163.284 -9.894,162.292 3.525,161.536 7.352,162.434 13.683,163.899 28.331,168.86 45.105,174.577 48.223,177.081 50.586,178.971 58.618,185.964 66.131,192.201 69.013,193.383 72.321,194.706 72.84,195.603 73.171,196.218 72.557,198.391 72.321,199.242 72.84,205.526 73.36,212.377 72.557,217.764 71.565,224.426 66.462,241.861 61.642,258.304 59.091,264.541 57.012,269.691 50.444,281.126 44.443,291.568 42.317,294.309 40.852,296.246 37.545,300.168 L34.521,303.759 39.057,304.515 Q44.16,305.507 46.806,306.83 48.932,307.917 53.563,310.09 57.437,312.358 59.563,315.807 62.351,320.343 63.012,322.611 63.863,325.588 62.871,329.037 61.878,332.439 59.516,336.078 57.579,339.054 55.311,341.322 52.24,344.394 50.35,345.906 46.995,348.599 44.68,348.882 41.608,349.308 40.191,349.166 38.017,348.93 34.285,347.465 31.261,346.284 29.134,343.827 26.158,340.425 24.126,338.96 21.291,336.881 19.826,333.951 17.983,330.171 16.093,328.092 12.975,324.643 10.943,323.415 9.478,322.564 6.643,321.95 4.375,321.477 3.997,321.572 2.627,322.186 .265,323.131 -3.988,325.305 -5.594,325.919 -8.193,326.864 -9.658,324.785 -11.973,321.572 -12.351,320.485 -13.107,318.359 -12.021,315.335 -10.697,311.744 -10.178,311.035 -9.374,310.043 -6.351,308.72 -1.814,306.688 4.281,308.72 4.942,308.956 4.281,305.507 2.58,296.246 2.532,296.01 -.113,279.283 2.391,265.959 4.706,253.815 10.849,235.246 15.81,220.268 15.385,218.709 14.865,216.771 1.02,217.338 -14.383,218 -16.745,217.055 -19.391,216.015 -34.228,211 -48.072,208.219 -48.923,207.605 M-121.688,185.87 Q-108.458,198.202 -101.039,203.447 -81.289,217.48 -57.191,224.379 -33.566,231.183 -11.312,238.506 -.208,242.145 6.171,244.46 M35.182,441.776 Q34.19,437.618 16.282,405.299 -1.956,372.318 -3.327,368.066 -6.067,359.466 -8.193,349.308 -10.792,336.928 -9.705,334.235 -8.618,331.636 -5.642,328.943 -3.704,327.147 -1.437,325.73 M25.496,437.051 Q24.22,437.996 22.236,438.894 18.361,440.736 15.101,440.595 11.746,440.453 5.557,437.996 1.068,436.2 -1.673,434.688 -2.665,434.121 -3.421,431.995 -4.083,430.2 -5.217,430.2 -6.351,430.2 -8.807,432.326 -11.595,434.736 -12.777,435.161 -14.572,435.822 -18.163,434.877 -21.329,434.027 -23.171,432.798 -24.636,431.853 -25.014,429.68 -25.25,428.168 -25.062,425.002 -24.92,422.687 -23.597,421.317 -23.549,421.222 -20.573,418.86 -19.108,417.678 -17.549,417.206 -16.793,416.97 -16.32,416.97 M-8.051,417.442 Q-8.241,416.639 -8.004,415.599 -7.626,413.52 -5.689,412.481 -3.752,411.441 -.444,411.772 1.398,411.961 4.47,412.481 5.84,412.623 8.392,413.756 10.801,414.843 11.557,414.843 M25.78,454.297 Q18.645,458.03 10.849,461.81 -4.649,469.464 -7.768,469.89 -10.887,470.315 -14.241,470.173 L-16.982,469.89 M88.717,352.119 L88.669,352.143 Q70.195,357.813 69.769,357.813 69.675,357.813 74.022,374.019 78.274,392.069 77.518,400.668 L75.723,420.419 Q74.352,440.831 76.573,444.375" test="Jean Reno body"/>
    </g>
    <g id="BlackMaskRect">
      <path fill="#000" stroke="none" d="M823.45,613.6 L823.45,508.3 -23.6,508.3 -23.6,613.6 823.45,613.6Z" test="BlackMaskRect"/>
    </g>
  </g>
</svg>