<?xml version="1.0" encoding="utf-8"?>
<svg id="EdithAnim06" image-rendering="inherit" baseProfile="basic" version="1.1" x="0px" y="0px" width="800" height="600" xmlns="http://www.w3.org/2000/svg" xmlns:xlink="http://www.w3.org/1999/xlink">
  <g id="Jean-Renof70r1" overflow="visible">
    <g id="Bec-nom-Jean">
      <path id="Layer3_0_1_STROKES" stroke="#F90" stroke-width="1.796" stroke-linejoin="round" stroke-linecap="round" fill="none" d="M841.7,486.191 Q841.52,486.057 841.341,485.922 M808.968,530.598 Q809.776,538.5 809.686,547.615 809.596,556.46 808.743,561.13 M859.884,467.109 Q857.594,467.423 856.696,467.603 856.382,467.738 856.158,467.738" test="Bec nom Jean"/>
      <path id="Layer3_0_2_STROKES" stroke="#FFF" stroke-width="1.796" stroke-linejoin="round" stroke-linecap="round" fill="none" d="M806.319,274.308 Q805.915,269.953 806.274,267.798 806.813,264.79 809.013,263.083 811.662,261.063 816.017,261.826 820.687,262.679 822.123,266.316 M806.184,317.053 Q804.163,320.959 803.939,324.551 803.721,327.967 805.219,329.805 805.247,329.85 805.286,329.895 808.564,333.801 813.817,333.801 818.487,333.756 822.887,330.837 M754.19,340.177 Q759.847,337.348 763.843,338.066 767.076,338.605 770.803,341.973 772.105,343.14 772.823,344.263 L777.717,343.724 Q783.33,342.916 787.101,341.524 792.894,339.368 797.833,336.405 802.262,333.734 804.208,331.354 804.848,330.559 805.219,329.805 M749.161,309.33 Q747.949,299.991 753.292,296.534 756.435,294.513 760.745,295.366 764.517,296.085 767.66,298.554 M772.823,344.263 Q773.817,345.768 774.08,347.45 774.225,348.431 774.125,349.471 773.901,351.94 772.15,355.443" test="Bec nom Jean"/>
      <path id="Layer3_0_3_STROKES" stroke="#FEB7AE" stroke-width="1.796" stroke-linejoin="round" stroke-linecap="round" fill="none" d="M833.708,246.201 Q839.096,254.463 843.631,262.769 857.039,287.389 858.313,304.302 858.382,305.213 858.403,306.502 858.717,324.911 852.296,336.854 847.716,345.34 839.096,351.402 827.467,359.529 819.699,362.761 804.074,369.182 785.171,368.015 770.668,367.117 761.194,364.512 753.202,362.267 748.218,358.541 M810.09,368.284 Q811.437,370.08 812.56,372.325 M871.424,424.634 Q868.415,422.478 865.048,420.278 858.313,415.968 856.472,416.013 854.541,416.058 853.643,417.36 853.015,418.303 853.015,419.47 853.015,422.074 853.509,424.229 854.137,426.923 855.349,428.001 857.145,429.573 856.831,429.483 854.047,428.63 850.635,427.866 843.81,426.34 840.532,426.744 835.279,427.417 831.463,433.614 829.622,436.577 830.969,440.842 832.136,444.569 834.381,446.275 836.716,448.026 839.949,449.463 843.9,451.214 847.043,451.349 851.847,451.574 859.75,450.002 M839.5,468.636 L844.573,465.088 Q850.231,461.407 853.015,460.554 858.178,459.027 859.256,458.892 862.309,458.488 863.342,460.554 864.329,462.529 861.007,465.088 859.301,466.346 856.696,467.603 M859.884,467.109 Q865.407,467.019 869.628,469.534 L875.375,472.811 Q881.032,476.718 880.628,480.085 880.089,484.306 877.799,487.449 875.375,490.816 872.097,491.31 867.562,491.984 863.297,491.759 857.729,491.445 856.382,489.514 855.978,488.93 853.688,488.167 852.521,487.763 848.929,486.775 847.312,486.326 844.708,486.506 842.463,486.64 841.7,486.191 M825.356,365.366 L823.111,361.774" test="Bec nom Jean"/>
      <path id="Layer3_0_4_STROKES" stroke="#00F" stroke-width="1.796" stroke-linejoin="round" stroke-linecap="round" fill="none" d="M862.129,310.767 L876.946,337.348 892.527,321.319 Q890.192,317.637 886.645,310.543 879.551,296.399 873.669,279.562 867.517,262.006 852.341,244.629 844.978,236.188 826.973,219.8 816.735,210.461 798.281,207.318 782.118,204.579 771.252,207.677 752.169,213.11 742.875,217.285 722.221,226.445 712.433,240.05 698.648,259.132 692.946,273.635 685.403,292.852 689.983,307.849 695.056,324.417 714.857,355.577 734.703,386.783 743.414,391.812 750.732,396.032 766.447,396.347 774.305,396.526 780.681,395.853 L748.218,358.541 Q745.03,356.206 742.516,352.749 738.699,347.54 727.519,329.58 716.249,311.441 716.923,311.441 L736.634,295.995 Q758.725,279.068 770.803,271.48 782.881,263.892 807.262,251.005 819.429,244.54 829.218,239.601 L833.708,246.201" test="Bec nom Jean"/>
      <path id="Layer3_0_5_STROKES" stroke="#0FF" stroke-width="1.796" stroke-linejoin="round" stroke-linecap="round" fill="none" d="M869.807,429.977 L868.011,433.254 Q866.35,437.52 866.889,442.324 867.472,447.308 868.056,447.712 868.685,448.161 872.726,449.059 876.677,450.676 892.976,451.304 908.197,451.888 915.875,451.125 924.271,450.316 932.533,448.745 942.545,446.859 945.284,445.018 948.113,443.132 953.411,434.601 958.44,426.519 958.979,423.691 959.517,421.086 957.587,415.249 955.566,409.098 951.795,402.588 948.382,396.661 937.741,389.118 929.839,383.55 922.161,379.689 915.92,376.591 902.764,371.562 888.396,366.039 884.22,365.59 877.216,365.186 873.22,364.961 865.901,364.557 862.219,363.345 858.223,361.998 853.149,361.818 850.994,361.729 843.765,361.998 L835.908,362.223 836.851,364.872 Q837.659,367.88 837.255,369.407 836.806,371.068 834.112,372.729 832.675,373.627 828.275,375.693 822.932,378.207 819.878,379.374 814.401,381.44 812.335,380.856 810.045,380.183 807.935,378.791 805.915,377.489 804.702,375.917 M780.681,443.941 L785.171,460.554 M841.7,486.191 Q841.7,486.147 841.745,486.147 839.949,469.983 839.5,468.636 839.185,467.648 829.397,466.57 819.878,465.493 812.56,465.493 809.956,465.493 790.469,463.697 774.26,462.215 770.354,463.248 766.447,464.28 767.48,462.305 769.276,458.937 769.007,458.309 768.558,457.141 775.787,447.757 784.587,436.397 786.967,431.818 791.906,422.389 792.804,419.695 M799.09,378.387 Q795.632,380.856 791.906,383.55 784.497,388.938 783.375,390.061 M764.966,410.715 Q756.345,423.287 747.589,436.532 730.078,463.023 729.495,466.391 728.776,470.656 738.026,477.66 747.634,484.979 757.333,486.596 766.133,488.077 795.543,488.302 820.238,488.481 830.071,487.943 835.414,487.673 839.096,486.865 840.937,486.506 841.7,486.191 M796.845,491.31 L802.502,506.935 Q808.249,523.862 808.968,530.598 L829.397,532.483 Q851.174,534.1 857.909,532.843 868.954,530.777 880.718,527.23 896.433,522.516 904.201,517.577 910.038,513.895 918.928,508.776 925.079,505.049 925.753,502.535 926.651,499.302 926.471,493.555 926.291,487.269 924.855,481.208 923.597,475.864 920.185,463.876 L916.997,452.921 M901.731,409.098 L907.344,419.425 M876.542,393.383 L899.756,403.306 Q923.103,413.633 923.957,415.609 926.651,421.895 923.957,423.242 922.879,423.78 913.001,423.242 902.494,422.658 899.711,423.242 896.792,423.825 891.494,424.229 885.657,424.634 883.277,425.038 880.134,425.576 877.71,426.879 875.33,428.136 874.971,428.181" test="Bec nom Jean"/>
    </g>
    <g id="Jean-Reno-body">
      <path id="Layer2_0_1_STROKES" stroke="#FEB7AE" stroke-width="1.89" stroke-linejoin="round" stroke-linecap="round" fill="none" d="M242.344,205.717 Q248.487,211.86 286.807,218.002 312.558,222.16 339.727,224.617 347.003,225.279 389.576,233.973 425.911,241.344 432.337,239.737 442.118,237.28 449.583,234.303 459.08,230.476 468.247,224.617 477.366,218.758 489.557,216.963 499.763,215.403 507.984,217.057 513.89,218.238 519.56,220.128 522.395,221.073 524.049,221.782 522.395,222.254 520.505,223.247 516.82,225.279 515.922,228.066 515.024,230.854 518.096,233.689 519.655,235.059 521.356,235.91 519.466,236.666 517.765,238.036 514.315,240.777 515.213,243.706 516.111,246.683 521.781,247.959 524.616,248.62 527.262,248.667 L528.302,254.715 Q529.766,261.047 531.987,262.37 534.208,263.693 539.594,261.141 542.288,259.913 544.508,258.354 L546.304,262.37 Q548.761,266.292 552.305,265.677 555.848,265.11 558.825,262.039 560.29,260.48 561.046,259.062 L564.495,260.48 Q568.18,261.661 569.362,260.48 570.543,259.299 571.488,255.991 L572.197,252.92 574.465,265.866 Q576.544,279.663 575.504,283.632 575.41,283.963 574.418,288.83 573.709,292.279 572.811,294.547 570.165,301.304 563.408,304.895 M495.605,259.535 Q503.826,257.55 515.072,259.488 531.467,262.275 540.02,273.237 543.327,277.49 550.226,286.231 556.132,293.933 559.439,300.123 568.37,316.849 564.826,333.953 561.329,350.775 551.974,366.225 547.674,373.313 539.311,383.566 536.948,386.448 528.16,393.347 517.718,401.521 505.007,409.743 469.523,432.753 437.251,442.676 L421.517,447.519 Q424.156,450.82 426.289,461.481 428.462,472.349 427.565,478.35 426.809,483.453 429.502,486.855 430.21,487.799 433.707,490.398 436.495,492.477 440.7,499.092 446.134,507.597 445.047,512.606 443.913,518.04 438,523.284 434.558,527.962 430.636,529.143 427.706,530.041 422.131,530.136 L417.17,530.088 423.596,531.411 Q430.825,533.727 435.125,538.593 440.7,544.925 442.968,549.366 445.614,554.469 444.102,557.493 443.063,559.62 440.275,566.046 436.826,571 430.4,574.976 424.399,577.764 411.311,574.692 404.743,572.944 401.955,572.235 397.23,571.054 395.435,571.196 393.072,571.385 374.503,576.11 355.697,580.929 349.13,581.591 342.231,582.3 333.962,578.803 330.088,577.007 328.529,576.393 325.977,575.306 324.796,575.448 321.016,575.637 319.078,575.873 315.724,576.346 313.22,578.283 310.385,580.457 306.51,579.512 302.825,578.614 301.88,576.157 300.793,573.369 300.887,571.716 301.029,569.4 303.297,567.652 305.376,566.046 308.684,565.478 310.337,565.242 311.566,565.29 310.668,564.25 310.054,562.88 308.825,560.139 310.148,558.675 311.613,557.068 315.44,556.265 318.653,555.603 321.252,555.84 322.386,555.934 319.835,554.139 316.669,551.918 317.708,550.878 318.937,549.65 322.102,549.744 323.567,549.791 327.158,550.406 328.387,550.595 330.371,552.012 331.789,553.052 332.828,552.532 336.136,550.878 340.577,548.799 347.381,545.634 350.075,544.736 354.327,543.318 358.58,542.373 M254.346,206.804 Q258.504,204.819 273.388,195.936 287.374,188.046 292.382,187.904 305.376,187.526 309.392,187.904 322.197,189.085 334.01,194.991 359.335,207.654 362.974,209.544 379.181,218.144 386.221,223.814 393.025,229.295 398.695,232.555 401.53,234.209 402.995,234.729 M231.666,270.828 Q231.666,266.764 232.658,261.755 234.69,251.691 239.699,246.966 250.235,237.044 263.796,239.17 268.994,239.973 279.152,246.21 288.508,251.928 290.965,254 292.902,257.409 297.722,258.306 301.407,259.015 306.321,258.779 308.967,258.684 322.906,257.692 336.325,256.936 340.152,257.834 346.484,259.299 361.131,264.26 377.905,269.977 381.023,272.481 383.386,274.371 391.418,281.364 398.931,287.601 401.813,288.783 405.121,290.106 405.641,291.003 405.971,291.618 405.357,293.791 405.121,294.642 405.641,300.926 406.16,307.777 405.357,313.164 404.365,319.826 399.262,337.261 394.442,353.704 391.891,359.941 389.812,365.091 383.244,376.526 377.243,386.968 375.117,389.709 373.652,391.646 370.345,395.568 L367.321,399.159 371.857,399.915 Q376.96,400.907 379.606,402.23 381.732,403.316 386.363,405.49 390.237,407.758 392.363,411.207 395.151,415.743 395.813,418.011 396.663,420.988 395.671,424.437 394.679,427.839 392.316,431.477 390.379,434.454 388.111,436.722 385.04,439.794 383.15,441.306 379.795,443 377.48,444.282 374.408,444.708 372.991,444.566 370.817,444.33 367.085,442.865 364.061,441.684 361.934,439.227 358.958,435.825 356.926,434.36 354.091,432.281 352.626,429.351 350.783,425.571 348.893,423.492 345.775,420.043 343.743,418.815 342.278,417.964 339.443,417.35 337.175,416.877 336.797,416.972 335.427,417.586 333.065,418.531 328.812,420.705 327.206,421.319 324.607,422.264 323.142,420.185 320.827,416.972 320.449,415.885 319.693,413.759 320.78,410.735 322.102,407.144 322.622,406.435 323.426,405.443 326.45,404.12 330.986,402.088 337.081,404.12 337.742,404.356 337.081,400.907 335.38,391.646 335.333,391.41 332.687,374.683 335.191,361.359 337.506,349.215 343.649,330.646 348.61,315.668 348.185,314.109 347.665,312.171 333.821,312.738 318.417,313.4 316.054,312.455 313.409,311.415 298.572,307.399 284.728,303.619 283.877,303.005 M211.112,281.27 Q224.342,293.602 231.761,298.847 251.511,312.88 275.609,319.779 299.234,326.583 321.488,333.906 332.592,337.545 338.971,339.86 M367.982,537.176 Q366.99,533.018 349.082,500.699 330.844,467.718 329.474,463.466 326.733,454.866 324.607,444.708 322.008,432.328 323.095,429.635 324.182,427.036 327.158,424.343 329.096,422.547 331.364,421.13 M358.296,532.451 Q357.02,533.396 355.036,534.294 351.161,536.136 347.901,535.995 344.546,535.853 338.357,533.396 333.868,531.6 331.127,530.088 330.135,529.521 329.379,527.395 328.718,525.6 327.583,525.6 326.45,525.6 323.993,527.726 321.205,530.136 320.024,530.561 318.228,531.222 314.637,530.277 311.471,529.427 309.629,528.198 308.164,527.253 307.786,525.08 307.549,523.568 307.739,520.402 307.88,518.087 309.203,516.717 309.251,516.622 312.227,514.26 313.692,513.078 315.251,512.606 316.007,512.37 316.48,512.37 M324.749,512.842 Q324.559,512.039 324.796,510 325.174,508.92 327.111,507.881 329.048,506.841 332.356,507.172 334.198,507.361 337.27,507.881 338.64,508.023 341.192,509.156 343.601,510.243 344.357,510.243 M358.58,549.697 Q351.445,553.43 343.649,557.21 328.15,564.864 325.032,565.29 321.914,565.715 318.559,565.573 L315.818,565.29 M421.517,447.519 L421.469,447.542 Q402.995,453.213 402.569,453.213 402.475,453.213 406.822,469.419 411.074,487.469 410.318,496.068 L408.523,515.819 Q407.153,536.231 409.373,539.775" test="Jean Reno body"/>
    </g>
    <g id="Jean-Renof0r1">
      <g id="JeanRenoFace">
        <path fill="#000" stroke="none" d="M123.035,-22.042 Q118.452,-18.687 116.231,-14.245 113.113,-7.961 107.537,-1.441 100.261,7.159 94.969,7.49 90.008,7.773 76.163,2.339 61.469,-3.85 57.641,-5.268 53.2,-6.922 47.152,-14.104 39.308,-23.365 37.749,-24.688 35.812,-26.341 34.82,-28.893 34.016,-31.728 33.686,-32.815 33.119,-34.752 32.079,-35.177 30.803,-35.744 27.827,-34.61 20.172,-32.011 16.865,-30.547 11.383,-28.137 6.564,-23.27 -1.705,-15.19 -5.91,-11.08 -13.423,-3.661 -16.588,.402 -35.016,24.5 -40.686,31.587 -44.702,36.596 -46.829,42.124 -48.577,46.66 -50.136,54.74 -52.026,64.662 -60.058,92.067 L-60.389,122.354 Q-60.718,156.556 -60.484,177.212 -56.893,180.472 -54.389,185.575 -52.829,188.646 -49.664,196.064 -48.246,199.088 -47.395,205.892 -46.781,211.326 -43.049,216.382 -39.788,220.824 -35.677,224.084 -31.992,226.966 -29.346,231.03 -28.354,232.541 -23.534,243.22 -20.699,249.551 -17.061,250.402 -16.021,250.638 -7.847,254.418 -2.272,257.017 1.367,255.6 3.257,254.843 5.666,254.938 7.037,254.985 9.824,255.174 15.211,255.316 20.739,250.874 25.559,247 35.15,243.598 43.466,240.668 45.309,238.117 46.585,236.369 48.191,236.322 49.278,236.322 51.404,237.219 56.602,239.487 60.004,238.117 63.548,236.699 72.005,233.203 79.613,230.604 85.046,231.502 88.826,232.116 98.513,236.132 107.396,239.771 111.979,240.007 115.901,240.243 122.752,245.819 128.753,250.733 132.769,249.457 135.226,248.701 137.777,249.41 138.817,249.693 141.983,251.252 147.133,253.662 151.196,250.874 153.606,249.221 156.961,248.37 158.898,247.898 162.584,247.236 169.057,245.724 171.514,240.007 174.68,232.636 177.373,228.1 179.972,223.658 184.271,218.272 185.878,216.24 193.721,209.483 199.25,204.711 200.336,200.317 201.423,196.017 205.014,191.481 209.55,185.67 210.731,183.307 212.385,179 214.275,175.511 215.929,172.534 219.236,171.92 222.733,171.305 223.253,173.195 223.489,173 223.016,179.055 222.733,182.315 221.174,184.772 L219.709,186.615 221.174,184.772 Q222.733,182.315 223.016,179.055 223.489,173 223.253,173.195 222.733,171.305 219.236,171.92 215.929,172.534 214.275,175.511 212.385,179 210.731,183.307 209.55,185.67 205.014,191.481 201.423,196.017 200.336,200.317 199.25,204.711 193.721,209.483 185.878,216.24 184.271,218.272 179.972,223.658 177.373,228.1 174.68,232.636 171.514,240.007 169.057,245.724 162.584,247.236 158.898,247.898 156.961,248.37 153.606,249.221 151.196,250.874 147.133,253.662 141.983,251.252 138.817,249.693 137.777,249.41 135.226,248.701 132.769,249.457 128.753,250.733 122.752,245.819 115.901,240.243 111.979,240.007 107.396,239.771 98.513,236.132 88.826,232.116 85.046,231.502 79.613,230.604 72.005,233.203 63.548,236.699 60.004,238.117 56.602,239.487 51.404,237.219 49.278,236.322 48.191,236.322 46.585,236.369 45.309,238.117 43.466,240.668 35.15,243.598 25.559,247 20.739,250.874 15.211,255.316 9.824,255.174 7.037,254.985 5.666,254.938 3.257,254.843 1.367,255.6 -2.272,257.017 -7.847,254.418 -16.021,250.638 -17.061,250.402 -20.699,249.551 -23.534,243.22 -28.354,232.541 -29.346,231.03 -31.992,226.966 -35.677,224.084 -39.788,220.824 -43.049,216.382 -46.781,211.326 -47.395,205.892 -48.246,199.088 -49.664,196.064 -52.829,188.646 -54.389,185.575 -56.893,180.472 -60.484,177.212 -60.485,177.33 -60.484,177.448 -60.247,194.6 -59.586,200.79 -59.113,205.515 -57.318,213.405 -55.381,221.674 -52.498,231.266 -52.262,231.975 -45.931,245.063 -39.883,257.631 -37.851,265.522 -33.598,282.249 -30.716,286.737 -29.157,289.194 -25.991,292.171 -23.959,294.108 -18.006,299.542 -16.399,301.054 -10.635,308.425 -4.965,315.702 -3.264,317.213 .894,320.946 8.738,325.104 15.494,328.648 19.322,333.09 26.267,341.122 32.032,344.241 38.269,347.548 47.672,347.737 47.861,347.737 62.555,350.477 74.557,352.746 80.794,351.045 85.613,349.722 96.056,349.58 106.073,349.438 111.695,347.642 120.342,344.902 125.965,341.027 131.966,336.822 138.911,328.365 142.455,325.199 144.298,323.45 147.558,320.332 148.503,315.938 149.354,311.969 157.764,304.267 166.364,296.424 167.592,292.029 170.144,282.91 174.16,276.484 178.082,270.294 184.13,265.428 188.477,261.978 192.304,251.725 196.178,241.425 199.013,239.015 203.927,234.904 206.526,227.297 208.7,219.17 209.786,216.382 215.126,202.49 219.142,193.182 L222.071,186.615 222.686,188.457 Q224.339,190.442 229.631,191.34 235.159,192.285 239.081,187.937 241.68,185.008 242.861,180.944 243.145,179.905 241.207,169.746 239.034,158.406 239.554,149.712 240.168,139.837 244.799,129.347 247.114,124.008 252.831,114.275 256.753,107.612 257.556,102.368 258.501,96.083 255.194,91.122 250.705,84.366 248.626,83.279 244.799,81.247 237.995,85.594 237.097,89.232 235.018,95.422 231.049,107.329 231.049,111.44 231.049,116.448 229.395,124.15 228.592,127.977 227.741,130.812 218.764,97.737 214.984,84.98 211.487,73.214 201.754,48.975 190.933,22.043 187.106,17.885 182.807,13.207 169.577,2.198 156.205,-8.953 150.251,-12.828 147.7,-14.482 140.565,-21.191 135.84,-25.633 132.296,-25.633 127.855,-25.633 123.035,-22.042 M187.579,103.832 Q192.729,111.392 192.776,111.44 192.729,111.392 187.579,103.832 183.515,97.832 179.546,95.847 175.341,93.768 163.198,95.28 149.543,97.501 145.054,98.21 138.533,99.249 125.162,104.541 112.215,109.644 106.309,113.33 112.215,109.644 125.162,104.541 138.533,99.249 145.054,98.21 149.543,97.501 163.198,95.28 175.341,93.768 179.546,95.847 183.515,97.832 187.579,103.832 M172.27,121.173 L171.183,125.898 Q169.624,131.19 167.261,134.12 164.284,137.853 159.748,139.27 154.74,140.829 146.944,139.79 134.328,138.136 133.241,120.134 128.067,122.056 122.846,124.481 L118.594,126.56 122.846,124.481 Q128.067,122.056 133.241,120.134 133.312,120.112 133.383,120.086 149.59,114.18 159.701,115.22 164.096,115.684 172.27,121.173 173.235,121.823 174.254,122.544 184.035,129.489 186.634,129.867 184.035,129.489 174.254,122.544 173.235,121.823 172.27,121.173 M176.286,143.995 Q180.964,142.01 181.909,138.845 180.964,142.01 176.286,143.995 172.742,145.46 168.206,145.932 172.742,145.46 176.286,143.995 M143.92,165.352 Q150.346,166.014 154.976,163.887 150.346,166.014 143.92,165.352 137.447,164.69 133.241,161.525 137.447,164.69 143.92,165.352 M120.956,135.065 Q124.358,142.766 131.351,145.932 124.358,142.766 120.956,135.065 M109.664,198.852 L109.616,195.592 109.664,198.852 Q109.569,202.49 108.671,204.569 107.774,206.648 102.482,208.869 L97.331,210.712 Q94.213,211.232 92.606,206.601 92.606,206.79 92.606,206.932 92.606,210.287 90.386,213.925 87.929,217.847 83.156,221.58 77.912,225.69 71.344,225.36 64.162,224.981 56.696,219.217 50.365,214.35 47.766,204.333 45.782,196.82 46.254,188.504 46.538,183.307 51.121,168.518 55.988,153.492 56.696,150.657 57.641,147.114 57.736,135.206 57.641,122.78 57.641,120.417 57.641,115.503 55.515,110.259 52.68,103.407 47.672,101.517 44.6,100.383 38.033,99.627 31.937,98.919 25.937,96.32 17.621,92.681 5.099,90.555 -7.706,88.334 -13.281,89.705 -18.715,91.075 -25.33,95.422 -31.472,99.533 -35.961,104.352 -31.472,99.533 -25.33,95.422 -18.715,91.075 -13.281,89.705 -7.706,88.334 5.099,90.555 17.621,92.681 25.937,96.32 31.937,98.919 38.033,99.627 44.6,100.383 47.672,101.517 52.68,103.407 55.515,110.259 57.641,115.503 57.641,120.417 57.641,122.78 57.736,135.206 57.641,147.114 56.696,150.657 55.988,153.492 51.121,168.518 46.538,183.307 46.254,188.504 45.782,196.82 47.766,204.333 50.365,214.35 56.696,219.217 64.162,224.981 71.344,225.36 77.912,225.69 83.156,221.58 87.929,217.847 90.386,213.925 92.606,210.287 92.606,206.932 92.606,206.79 92.606,206.601 92.228,205.562 91.945,204.239 L91.189,197.009 91.898,200.364 Q92.559,204.05 92.606,206.601 94.213,211.232 97.331,210.712 L102.482,208.869 Q107.774,206.648 108.671,204.569 109.569,202.49 109.664,198.852 M114.341,259.852 Q117.318,260.608 122.893,264.955 128.942,269.633 131.824,270.72 135.273,272.043 135.273,279.414 135.273,284.233 135.273,284.611 135.462,287.115 136.549,287.73 139.856,289.62 140.801,291.935 142.077,294.959 137.966,297.179 137.258,297.558 125.02,303.133 116.137,307.197 113.869,309.465 112.735,310.598 111.695,312.961 L109.994,316.93 Q107.632,321.371 102.529,320.804 96.386,320.143 91.85,320.379 87.74,320.616 83.629,321.75 73.754,324.443 70.493,325.01 60.665,326.664 57.641,323.64 47.388,313.528 41.057,309.465 38.6,307.905 35.15,302.283 31.937,296.991 29.244,295.762 26.126,294.345 25.039,292.502 24.047,290.092 22.629,288.202 20.881,285.84 20.881,282.532 L21.212,279.697 Q23.385,273.838 27.307,268.593 29.055,266.278 34.442,260.324 37.04,257.442 42.143,256.261 48.144,254.796 50.507,253.237 53.72,251.111 60.146,250.874 67.564,250.638 69.454,249.93 71.958,249.032 80.605,250.166 89.677,251.394 93.551,250.402 97.946,249.315 104.655,253.898 112.829,259.474 114.341,259.852 M39.167,121.835 Q30.255,117.378 27.023,115.881 L27.449,116.968 Q27.732,118.952 26.882,123.252 25.748,129.159 21.826,132.135 17.006,135.868 7.509,135.537 -1.516,135.206 -5.815,129.347 -8.461,125.615 -9.643,118.433 -20.882,122.788 -23.676,126.56 -20.882,122.788 -9.643,118.433 -9.48,118.403 -9.312,118.338 -2.839,115.928 4.816,113.897 11.431,112.148 14.124,111.912 17.479,111.629 26.126,115.456 26.504,115.624 27.023,115.881 30.255,117.378 39.167,121.835 M34.631,139.837 Q37.277,136.388 37.277,132.702 37.277,136.388 34.631,139.837 32.174,143.003 28.772,144.515 32.174,143.003 34.631,139.837 M-18.667,144.467 Q-14.226,148.153 -9.501,149.24 -14.226,148.153 -18.667,144.467 -23.298,140.593 -26.038,135.065 -23.298,140.593 -18.667,144.467 M-9.973,157.745 Q-5.059,162.045 -2.98,162.895 2.406,165.069 10.344,161.997 2.406,165.069 -2.98,162.895 -5.059,162.045 -9.973,157.745 M177.137,-56.392 Q172.317,-57.81 170.191,-59.18 167.261,-60.976 166.789,-63.905 165.891,-69.197 174.065,-74.158 178.129,-76.663 182.381,-78.08 178.271,-78.553 172.837,-78.316 161.969,-77.844 155.449,-74.3 151.952,-72.363 148.976,-72.835 146.991,-73.119 144.062,-74.867 140.612,-76.946 139.053,-77.466 135.887,-78.553 132.296,-77.607 126.296,-76.048 114.861,-81.435 108.152,-84.601 107.254,-84.979 103.616,-86.396 102.056,-85.64 98.891,-84.033 78.998,-84.931 61.421,-85.735 52.397,-87.057 46.443,-87.955 37.513,-95.373 L29.717,-102.65 30.378,-99.39 Q31.087,-95.562 31.181,-92.538 31.559,-82.994 25.937,-85.64 20.314,-88.286 8.407,-88.664 L-2.413,-88.475 5.336,-81.387 Q12.045,-74.536 7.037,-75.717 2.028,-76.899 -8.509,-72.646 L-18.006,-68.157 -15.832,-68.016 Q-13.328,-67.732 -11.674,-67.024 -6.382,-64.803 -11.391,-59.18 -22.022,-47.273 -27.409,-40.375 -38.938,-25.585 -48.718,-8.103 -56.656,6.072 -59.302,39.384 -60.956,60.504 -60.295,84.838 -60.2,89.374 -60.058,92.067 -52.026,64.662 -50.136,54.74 -48.577,46.66 -46.829,42.124 -44.702,36.596 -40.686,31.587 -35.016,24.5 -16.588,.402 -13.423,-3.661 -5.91,-11.08 -1.705,-15.19 6.564,-23.27 11.383,-28.137 16.865,-30.547 20.172,-32.011 27.827,-34.61 30.803,-35.744 32.079,-35.177 33.119,-34.752 33.686,-32.815 34.016,-31.728 34.82,-28.893 35.812,-26.341 37.749,-24.688 39.308,-23.365 47.152,-14.104 53.2,-6.922 57.641,-5.268 61.469,-3.85 76.163,2.339 90.008,7.773 94.969,7.49 100.261,7.159 107.537,-1.441 113.113,-7.961 116.231,-14.245 118.452,-18.687 123.035,-22.042 127.855,-25.633 132.296,-25.633 135.84,-25.633 140.565,-21.191 147.7,-14.482 150.251,-12.828 156.205,-8.953 169.577,2.198 182.807,13.207 187.106,17.885 190.933,22.043 201.754,48.975 211.487,73.214 214.984,84.98 218.764,97.737 227.741,130.812 228.592,127.977 229.395,124.15 231.049,116.448 231.049,111.44 231.049,107.329 235.018,95.422 237.097,89.232 237.995,85.594 238.703,82.475 238.609,81.2 238.373,78.601 237.097,70.71 235.585,61.733 234.829,55.212 232.135,32.012 231.758,28.232 229.82,9.427 230.104,3.71 230.435,-2.716 216.212,-23.128 202.51,-42.832 194.194,-49.258 189.8,-52.66 177.137,-56.392Z" test="JeanRenoFace" vector-effect="non-scaling-stroke" stroke-width="1"/>
        <path id="Layer4_0_1_STROKES" stroke="#FFF" stroke-width="1.89" stroke-linejoin="round" stroke-linecap="round" fill="none" d="M-60.058,92.067 Q-60.2,89.374 -60.295,84.838 -60.956,60.504 -59.302,39.384 -56.656,6.072 -48.718,-8.103 -38.938,-25.585 -27.409,-40.375 -22.022,-47.273 -11.391,-59.18 -6.382,-64.803 -11.674,-67.024 -13.328,-67.732 -15.832,-68.016 L-18.006,-68.157 -8.509,-72.646 Q2.028,-76.899 7.037,-75.717 12.045,-74.536 5.336,-81.387 L-2.413,-88.475 8.407,-88.664 Q20.314,-88.286 25.937,-85.64 31.559,-82.994 31.181,-92.538 31.087,-95.562 30.378,-99.39 L29.717,-102.65 37.513,-95.373 Q46.443,-87.955 52.397,-87.057 61.421,-85.735 78.998,-84.931 98.891,-84.033 102.056,-85.64 103.616,-86.396 107.254,-84.979 108.152,-84.601 114.861,-81.435 126.296,-76.048 132.296,-77.607 135.887,-78.553 139.053,-77.466 140.612,-76.946 144.062,-74.867 146.991,-73.119 148.976,-72.835 151.952,-72.363 155.449,-74.3 161.969,-77.844 172.837,-78.316 178.271,-78.553 182.381,-78.08 178.129,-76.663 174.065,-74.158 165.891,-69.197 166.789,-63.905 167.261,-60.976 170.191,-59.18 172.317,-57.81 177.137,-56.392 189.8,-52.66 194.194,-49.258 202.51,-42.832 216.212,-23.128 230.435,-2.716 230.104,3.71 229.82,9.427 231.758,28.232 232.135,32.012 234.829,55.212 235.585,61.733 237.097,70.71 238.373,78.601 238.609,81.2 238.703,82.475 237.995,85.594 244.799,81.247 248.626,83.279 250.705,84.366 255.194,91.122 258.501,96.083 257.556,102.368 256.753,107.612 252.831,114.275 247.114,124.008 244.799,129.347 240.168,139.837 239.554,149.712 239.034,158.406 241.207,169.746 243.145,179.905 242.861,180.944 241.68,185.008 239.081,187.937 235.159,192.285 229.631,191.34 224.339,190.442 222.686,188.457 L222.071,186.615 219.142,193.182 Q215.126,202.49 209.786,216.382 208.7,219.17 206.526,227.297 203.927,234.904 199.013,239.015 196.178,241.425 192.304,251.725 188.477,261.978 184.13,265.428 178.082,270.294 174.16,276.484 170.144,282.91 167.592,292.029 166.364,296.424 157.764,304.267 149.354,311.969 148.503,315.938 147.558,320.332 144.298,323.45 142.455,325.199 138.911,328.365 131.966,336.822 125.965,341.027 120.342,344.902 111.695,347.642 106.073,349.438 96.056,349.58 85.613,349.722 80.794,351.045 74.557,352.746 62.555,350.477 47.861,347.737 47.672,347.737 38.269,347.548 32.032,344.241 26.267,341.122 19.322,333.09 15.494,328.648 8.738,325.104 .894,320.946 -3.264,317.213 -4.965,315.702 -10.635,308.425 -16.399,301.054 -18.006,299.542 -23.959,294.108 -25.991,292.171 -29.157,289.194 -30.716,286.737 -33.598,282.249 -37.851,265.522 -39.883,257.631 -45.931,245.063 -52.262,231.975 -52.498,231.266 -55.381,221.674 -57.318,213.405 -59.113,205.515 -59.586,200.79 -60.247,194.6 -60.484,177.448 -60.485,177.33 -60.484,177.212 -60.718,156.556 -60.389,122.354 L-60.058,92.067 Q-52.026,64.662 -50.136,54.74 -48.577,46.66 -46.829,42.124 -44.702,36.596 -40.686,31.587 -35.016,24.5 -16.588,.402 -13.423,-3.661 -5.91,-11.08 -1.705,-15.19 6.564,-23.27 11.383,-28.137 16.865,-30.547 20.172,-32.011 27.827,-34.61 30.803,-35.744 32.079,-35.177 33.119,-34.752 33.686,-32.815 34.016,-31.728 34.82,-28.893 35.812,-26.341 37.749,-24.688 39.308,-23.365 47.152,-14.104 53.2,-6.922 57.641,-5.268 61.469,-3.85 76.163,2.339 90.008,7.773 94.969,7.49 100.261,7.159 107.537,-1.441 113.113,-7.961 116.231,-14.245 118.452,-18.687 123.035,-22.042 127.855,-25.633 132.296,-25.633 135.84,-25.633 140.565,-21.191 147.7,-14.482 150.251,-12.828 156.205,-8.953 169.577,2.198 182.807,13.207 187.106,17.885 190.933,22.043 201.754,48.975 211.487,73.214 214.984,84.98 218.764,97.737 227.741,130.812 228.592,127.977 229.395,124.15 231.049,116.448 231.049,111.44 231.049,107.329 235.018,95.422 237.097,89.232 237.995,85.594 M106.309,113.33 Q112.215,109.644 125.162,104.541 138.533,99.249 145.054,98.21 149.543,97.501 163.198,95.28 175.341,93.768 179.546,95.847 183.515,97.832 187.579,103.832 192.729,111.392 192.776,111.44 M133.241,120.134 Q134.328,138.136 146.944,139.79 154.74,140.829 159.748,139.27 164.284,137.853 167.261,134.12 169.624,131.19 171.183,125.898 L172.27,121.173 Q164.096,115.684 159.701,115.22 149.59,114.18 133.383,120.086 133.312,120.112 133.241,120.134 128.067,122.056 122.846,124.481 L118.594,126.56 M172.27,121.173 Q173.235,121.823 174.254,122.544 184.035,129.489 186.634,129.867 M168.206,145.932 Q172.742,145.46 176.286,143.995 180.964,142.01 181.909,138.845 M-60.484,177.212 Q-56.893,180.472 -54.389,185.575 -52.829,188.646 -49.664,196.064 -48.246,199.088 -47.395,205.892 -46.781,211.326 -43.049,216.382 -39.788,220.824 -35.677,224.084 -31.992,226.966 -29.346,231.03 -28.354,232.541 -23.534,243.22 -20.699,249.551 -17.061,250.402 -16.021,250.638 -7.847,254.418 -2.272,257.017 1.367,255.6 3.257,254.843 5.666,254.938 7.037,254.985 9.824,255.174 15.211,255.316 20.739,250.874 25.559,247 35.15,243.598 43.466,240.668 45.309,238.117 46.585,236.369 48.191,236.322 49.278,236.322 51.404,237.219 56.602,239.487 60.004,238.117 63.548,236.699 72.005,233.203 79.613,230.604 85.046,231.502 88.826,232.116 98.513,236.132 107.396,239.771 111.979,240.007 115.901,240.243 122.752,245.819 128.753,250.733 132.769,249.457 135.226,248.701 137.777,249.41 138.817,249.693 141.983,251.252 147.133,253.662 151.196,250.874 153.606,249.221 156.961,248.37 158.898,247.898 162.584,247.236 169.057,245.724 171.514,240.007 174.68,232.636 177.373,228.1 179.972,223.658 184.271,218.272 185.878,216.24 193.721,209.483 199.25,204.711 200.336,200.317 201.423,196.017 205.014,191.481 209.55,185.67 210.731,183.307 212.385,179 214.275,175.511 215.929,172.534 219.236,171.92 222.733,171.305 223.253,173.195 223.489,173 223.016,179.055 222.733,182.315 221.174,184.772 L219.709,186.615 M158.284,121.835 L162.064,122.78 M133.241,161.525 Q137.447,164.69 143.92,165.352 150.346,166.014 154.976,163.887 M120.956,135.065 Q124.358,142.766 131.351,145.932 M92.606,206.601 Q94.213,211.232 97.331,210.712 L102.482,208.869 Q107.774,206.648 108.671,204.569 109.569,202.49 109.664,198.852 L109.616,195.592 M92.606,206.601 Q92.559,204.05 91.898,200.364 L91.189,197.009 91.945,204.239 Q92.228,205.562 92.606,206.601 92.606,206.79 92.606,206.932 92.606,210.287 90.386,213.925 87.929,217.847 83.156,221.58 77.912,225.69 71.344,225.36 64.162,224.981 56.696,219.217 50.365,214.35 47.766,204.333 45.782,196.82 46.254,188.504 46.538,183.307 51.121,168.518 55.988,153.492 56.696,150.657 57.641,147.114 57.736,135.206 57.641,122.78 57.641,120.417 57.641,115.503 55.515,110.259 52.68,103.407 47.672,101.517 44.6,100.383 38.033,99.627 31.937,98.919 25.937,96.32 17.621,92.681 5.099,90.555 -7.706,88.334 -13.281,89.705 -18.715,91.075 -25.33,95.422 -31.472,99.533 -35.961,104.352 M35.859,275.917 Q40.017,273.271 45.593,271.665 51.641,269.916 56.696,270.247 59.437,270.436 65.627,272.657 70.824,274.547 75.596,274.027 79.376,273.602 86.464,271.097 92.748,268.83 97.331,268.83 103.19,268.83 108.34,271.192 112.499,273.129 115.759,276.39 M21.212,279.697 Q23.385,273.838 27.307,268.593 29.055,266.278 34.442,260.324 37.04,257.442 42.143,256.261 48.144,254.796 50.507,253.237 53.72,251.111 60.146,250.874 67.564,250.638 69.454,249.93 71.958,249.032 80.605,250.166 89.677,251.394 93.551,250.402 97.946,249.315 104.655,253.898 112.829,259.474 114.341,259.852 117.318,260.608 122.893,264.955 128.942,269.633 131.824,270.72 135.273,272.043 135.273,279.414 135.273,284.233 135.273,284.611 135.462,287.115 136.549,287.73 139.856,289.62 140.801,291.935 142.077,294.959 137.966,297.179 137.258,297.558 125.02,303.133 116.137,307.197 113.869,309.465 112.735,310.598 111.695,312.961 L109.994,316.93 Q107.632,321.371 102.529,320.804 96.386,320.143 91.85,320.379 87.74,320.616 83.629,321.75 73.754,324.443 70.493,325.01 60.665,326.664 57.641,323.64 47.388,313.528 41.057,309.465 38.6,307.905 35.15,302.283 31.937,296.991 29.244,295.762 26.126,294.345 25.039,292.502 24.047,290.092 22.629,288.202 20.881,285.84 20.881,282.532 L21.212,279.697Z M-61.003,84.507 Q-66.201,77.561 -74.328,77.231 -82.36,76.947 -84.156,83.09 -85.384,87.295 -79.147,100.856 -72.343,115.551 -72.343,120.417 -72.343,125.615 -72.107,143.853 -72.107,160.627 -73.289,166.25 -74.564,172.392 -72.296,174.519 -70.501,176.172 -66.673,175.275 M39.167,121.835 Q30.255,117.378 27.047,115.881 L27.449,116.968 Q27.732,118.952 26.882,123.252 25.748,129.159 21.826,132.135 17.006,135.868 7.509,135.537 -1.516,135.206 -5.815,129.347 -8.461,125.615 -9.643,118.456 -20.882,122.788 -23.676,126.56 M27.047,115.881 Q26.504,115.624 26.126,115.456 17.479,111.629 14.124,111.912 11.431,112.148 4.816,113.897 -2.839,115.928 -9.312,118.338 -9.48,118.403 -9.643,118.456 M15.069,118.055 L17.432,118.527 M28.772,144.515 Q32.174,143.003 34.631,139.837 37.277,136.388 37.277,132.702 M-26.038,135.065 Q-23.298,140.593 -18.667,144.467 -14.226,148.153 -9.501,149.24 M-9.973,157.745 Q-5.059,162.045 -2.98,162.895 2.406,165.069 10.344,161.997 M69.926,259.852 Q78.431,261.27 82.684,261.27 M70.399,282.059 Q74.037,281.587 75.077,281.634 77.297,281.729 80.794,283.005" test="JeanRenoFace"/>
      </g>
      <g id="TearAnimf0r1">
        <g id="TearGraphic">
          <path id="Layer5_0_1_STROKES" stroke="#0FF" stroke-width="1" stroke-linejoin="round" stroke-linecap="round" fill="none" d="M11.845,135.146 Q11.836,135.523 11.745,135.783 11.641,136.06 11.331,136.502 11.017,136.952 11.199,137.543 11.381,138.149 11.886,138.167 12.382,138.185 12.61,137.744 12.796,137.384 12.76,136.879 12.742,136.629 12.387,136.115 12,135.551 11.886,135" test="TearGraphic" vector-effect="non-scaling-stroke"/>
        </g>
      </g>
    </g>
    <g id="BlackMaskRect">
      <path fill="#000" stroke="none" d="M823.45,613.6 L823.45,508.3 -23.6,508.3 -23.6,613.6 823.45,613.6Z" test="BlackMaskRect"/>
    </g>
  </g>
</svg>