<?xml version="1.0" encoding="utf-8"?>
<svg id="EdithAnim06" image-rendering="inherit" baseProfile="basic" version="1.1" x="0px" y="0px" width="800" height="600" xmlns="http://www.w3.org/2000/svg" xmlns:xlink="http://www.w3.org/1999/xlink">
  <g id="Jean-Renof76r1" overflow="visible">
    <g id="Bec-nom-Jean">
      <path id="Layer3_0_1_STROKES" stroke="#F90" stroke-width="1.796" stroke-linejoin="round" stroke-linecap="round" fill="none" d="M946.2,544.391 Q946.02,544.257 945.841,544.122 M913.468,588.798 Q914.276,596.7 914.186,605.815 914.096,614.66 913.243,619.33 M964.384,525.309 Q962.094,525.623 961.196,525.803 960.882,525.938 960.658,525.938" test="Bec nom Jean"/>
      <path id="Layer3_0_2_STROKES" stroke="#FFF" stroke-width="1.796" stroke-linejoin="round" stroke-linecap="round" fill="none" d="M910.819,332.508 Q910.415,328.153 910.774,325.998 911.313,322.99 913.513,321.283 916.162,319.263 920.517,320.026 925.187,320.879 926.623,324.516 M910.684,375.253 Q908.663,379.159 908.439,382.751 908.221,386.167 909.719,388.005 909.747,388.05 909.786,388.095 913.064,392.001 918.317,392.001 922.987,391.956 927.387,389.037 M858.69,398.377 Q864.347,395.548 868.343,396.266 871.576,396.805 875.303,400.173 876.605,401.34 877.323,402.463 L882.217,401.924 Q887.83,401.116 891.601,399.724 897.394,397.568 902.333,394.605 906.762,391.934 908.708,389.554 909.348,388.759 909.719,388.005 M853.661,367.53 Q852.449,358.191 857.792,354.734 860.935,352.713 865.245,353.566 869.017,354.285 872.16,356.754 M877.323,402.463 Q878.317,403.968 878.58,405.65 878.725,406.631 878.625,407.671 878.401,410.14 876.65,413.643" test="Bec nom Jean"/>
      <path id="Layer3_0_3_STROKES" stroke="#FEB7AE" stroke-width="1.796" stroke-linejoin="round" stroke-linecap="round" fill="none" d="M938.208,304.401 Q943.596,312.663 948.131,320.969 961.539,345.589 962.813,362.501 962.882,363.413 962.903,364.702 963.217,383.111 956.796,395.054 952.216,403.54 943.596,409.602 931.967,417.729 924.199,420.961 908.574,427.382 889.671,426.215 875.168,425.317 865.694,422.712 857.702,420.467 852.718,416.741 M914.59,426.484 Q915.937,428.28 917.06,430.525 M975.924,482.834 Q972.915,480.678 969.548,478.478 962.813,474.168 960.972,474.213 959.041,474.258 958.143,475.56 957.515,476.503 957.515,477.67 957.515,480.274 958.009,482.429 958.637,485.123 959.849,486.201 961.645,487.773 961.331,487.683 958.547,486.83 955.135,486.066 948.31,484.54 945.032,484.944 939.779,485.617 935.963,491.814 934.122,494.777 935.469,499.042 936.636,502.769 938.881,504.475 941.216,506.226 944.449,507.663 948.4,509.414 951.543,509.549 956.347,509.774 964.25,508.202 M944,526.836 L949.073,523.288 Q954.731,519.607 957.515,518.754 962.678,517.227 963.756,517.092 966.809,516.688 967.842,518.754 968.829,520.729 965.507,523.288 963.801,524.546 961.196,525.803 M964.384,525.309 Q969.907,525.219 974.128,527.734 L979.875,531.011 Q985.532,534.918 985.128,538.285 984.589,542.506 982.299,545.649 979.875,549.016 976.597,549.51 972.062,550.184 967.797,549.959 962.229,549.645 960.882,547.714 960.478,547.13 958.188,546.367 957.021,545.963 953.429,544.975 951.812,544.526 949.208,544.706 946.963,544.84 946.2,544.391 M929.856,423.566 L927.611,419.974" test="Bec nom Jean"/>
      <path id="Layer3_0_4_STROKES" stroke="#00F" stroke-width="1.796" stroke-linejoin="round" stroke-linecap="round" fill="none" d="M966.629,368.967 L981.446,395.548 997.027,379.519 Q994.692,375.837 991.145,368.743 984.051,354.599 978.169,337.762 972.017,320.206 956.841,302.829 949.478,294.388 931.473,278 921.235,268.66 902.781,265.518 886.618,262.779 875.752,265.877 856.669,271.31 847.375,275.485 826.721,284.645 816.933,298.25 803.148,317.332 797.446,331.835 789.903,351.052 794.483,366.049 799.556,382.617 819.357,413.777 839.203,444.983 847.914,450.012 855.232,454.232 870.947,454.547 878.805,454.726 885.181,454.053 L852.718,416.741 Q849.53,414.406 847.016,410.949 843.199,405.74 832.019,387.78 820.749,369.641 821.423,369.641 L841.134,354.195 Q863.225,337.268 875.303,329.68 887.381,322.092 911.762,309.205 923.929,302.74 933.718,297.801 L938.208,304.401" test="Bec nom Jean"/>
      <path id="Layer3_0_5_STROKES" stroke="#0FF" stroke-width="1.796" stroke-linejoin="round" stroke-linecap="round" fill="none" d="M974.307,488.177 L972.511,491.454 Q970.85,495.72 971.389,500.524 971.972,505.508 972.556,505.912 973.185,506.361 977.226,507.259 981.177,508.876 997.476,509.504 1012.697,510.088 1020.375,509.325 1028.771,508.516 1037.033,506.945 1047.045,505.059 1049.784,503.218 1052.613,501.332 1057.911,492.801 1062.94,484.719 1063.479,481.891 1064.017,479.286 1062.087,473.449 1060.066,467.298 1056.295,460.788 1052.882,454.861 1042.241,447.318 1034.339,441.75 1026.661,437.889 1020.42,434.791 1007.264,429.762 992.896,424.239 988.72,423.79 981.716,423.386 977.72,423.161 970.401,422.757 966.719,421.545 962.723,420.198 957.649,420.018 955.494,419.929 948.265,420.198 L940.408,420.423 941.351,423.072 Q942.159,426.08 941.755,427.607 941.306,429.268 938.612,430.929 937.175,431.827 932.775,433.893 927.432,436.407 924.378,437.574 918.901,439.64 916.835,439.056 914.545,438.383 912.435,436.991 910.415,435.689 909.202,434.117 M885.181,502.141 L889.671,518.754 M946.2,544.391 Q946.2,544.347 946.245,544.347 944.449,528.183 944,526.836 943.685,525.848 933.897,524.77 924.378,523.693 917.06,523.693 914.456,523.693 894.969,521.897 878.76,520.415 874.854,521.448 870.947,522.48 871.98,520.505 873.776,517.137 873.507,516.509 873.058,515.341 880.287,505.957 889.087,494.597 891.467,490.018 896.406,480.589 897.304,477.895 M903.59,436.587 Q900.132,439.056 896.406,441.75 888.997,447.138 887.875,448.261 M869.466,468.915 Q860.845,481.487 852.089,494.732 834.578,521.223 833.995,524.591 833.276,528.856 842.526,535.86 852.134,543.179 861.833,544.796 870.633,546.277 900.043,546.502 924.738,546.681 934.571,546.143 939.914,545.873 943.596,545.065 945.437,544.706 946.2,544.391 M901.345,549.51 L907.002,565.135 Q912.749,582.063 913.468,588.798 L933.897,590.683 Q955.674,592.3 962.409,591.043 973.454,588.977 985.218,585.43 1000.933,580.716 1008.701,575.777 1014.538,572.095 1023.428,566.976 1029.579,563.249 1030.253,560.735 1031.151,557.502 1030.971,551.755 1030.791,545.469 1029.355,539.408 1028.097,534.064 1024.685,522.076 L1021.497,511.121 M1006.231,467.298 L1011.844,477.625 M981.042,451.583 L1004.256,461.506 Q1027.603,471.833 1028.457,473.809 1031.151,480.095 1028.457,481.442 1027.379,481.98 1017.501,481.442 1006.994,480.858 1004.211,481.442 1001.292,482.025 995.994,482.429 990.157,482.834 987.777,483.238 984.634,483.776 982.21,485.079 979.83,486.336 979.471,486.381" test="Bec nom Jean"/>
    </g>
    <g id="Jean-Reno-body">
      <path id="Layer2_0_1_STROKES" stroke="#FEB7AE" stroke-width="1.89" stroke-linejoin="round" stroke-linecap="round" fill="none" d="M375.444,261.867 Q381.587,268.01 419.907,274.152 445.658,278.31 472.827,280.767 480.103,281.429 522.675,290.123 559.011,297.494 565.437,295.887 575.218,293.43 582.683,290.453 592.18,286.626 601.347,280.767 610.466,274.908 622.656,273.113 632.863,271.553 641.084,273.207 646.99,274.388 652.66,276.278 655.495,277.223 657.149,277.932 655.495,278.405 653.605,279.397 649.92,281.429 649.022,284.216 648.124,287.004 651.195,289.839 652.755,291.209 654.456,292.06 652.566,292.816 650.865,294.186 647.416,296.927 648.313,299.856 649.211,302.833 654.881,304.109 657.716,304.77 660.362,304.817 L661.402,310.865 Q662.866,317.197 665.087,318.52 667.308,319.843 672.694,317.291 675.387,316.063 677.608,314.504 L679.404,318.52 Q681.861,322.442 685.404,321.827 688.948,321.26 691.925,318.189 693.39,316.63 694.146,315.212 L697.595,316.63 Q701.281,317.811 702.462,316.63 703.643,315.449 704.588,312.141 L705.297,309.07 707.565,322.016 Q709.644,335.813 708.604,339.782 708.51,340.113 707.517,344.98 706.809,348.429 705.911,350.697 703.265,357.454 696.508,361.045 M628.704,315.685 Q636.926,313.7 648.171,315.638 664.567,318.425 673.119,329.387 676.427,333.64 683.325,342.381 689.232,350.083 692.539,356.273 701.469,372 697.926,390.104 694.429,406.925 685.074,422.375 680.774,429.463 672.411,439.716 670.048,442.598 661.26,449.497 650.818,457.671 638.107,465.893 602.623,488.903 570.351,498.826 L554.617,503.669 Q557.256,506.97 559.389,517.631 561.562,528.499 560.665,534.5 559.909,539.603 562.602,543.005 563.31,543.95 566.807,546.548 569.595,548.627 573.8,555.242 579.234,563.747 578.147,568.756 577.013,574.19 572.099,579.434 567.657,584.112 563.736,585.293 560.806,586.191 555.231,586.286 L550.27,586.238 556.695,587.561 Q563.925,589.877 568.224,594.743 573.8,601.075 576.068,605.516 578.714,610.619 577.202,613.643 576.162,615.77 573.375,622.196 569.926,628.149 563.499,631.126 557.499,633.914 544.411,630.842 537.843,629.094 535.055,628.385 530.33,627.204 528.535,627.346 526.172,627.535 507.603,632.26 488.797,637.079 482.23,637.741 475.331,638.45 467.062,634.953 463.188,633.158 461.629,632.543 459.077,631.457 457.896,631.598 454.116,631.787 452.179,632.024 448.824,632.496 446.319,634.433 443.484,636.607 439.61,635.662 435.924,634.764 434.98,632.307 433.893,629.519 433.987,627.866 434.129,625.55 436.397,623.802 438.476,622.196 441.783,621.629 443.437,621.392 444.666,621.44 443.768,620.4 443.154,619.03 441.925,616.289 443.248,614.825 444.713,613.218 448.54,612.415 451.753,611.753 454.352,611.99 455.486,612.084 452.934,610.289 449.769,608.068 450.808,607.028 452.037,605.8 455.203,605.894 456.667,605.942 460.258,606.556 461.487,606.745 463.471,608.162 464.889,609.202 465.928,608.682 469.236,607.028 473.677,604.949 480.481,601.784 483.174,600.886 487.427,599.468 491.679,598.523 M387.446,262.954 Q391.604,260.969 406.488,252.086 420.474,244.196 425.482,244.054 438.476,243.676 442.492,244.054 455.297,245.235 467.109,251.141 492.435,263.804 496.074,265.694 512.28,274.294 519.321,279.964 526.125,285.445 531.795,288.705 534.63,290.359 536.094,290.879 M364.766,326.978 Q364.766,322.914 365.758,317.906 367.79,307.841 372.799,303.116 383.335,293.194 396.896,295.32 402.093,296.123 412.252,302.36 421.608,308.078 424.065,311.149 426.002,313.559 430.821,314.456 434.507,315.165 439.421,314.929 442.067,314.834 456.006,313.842 469.425,313.086 473.252,313.984 479.583,315.449 494.231,320.41 511.005,326.127 514.123,328.631 516.486,330.521 524.518,337.514 532.031,343.751 534.913,344.933 538.221,346.256 538.741,347.153 539.071,347.768 538.457,349.941 538.221,350.792 538.741,357.076 539.26,363.927 538.457,369.314 537.465,375.976 532.362,393.411 527.542,409.854 524.991,416.091 522.912,421.241 516.344,432.676 510.343,443.118 508.217,445.859 506.752,447.796 503.445,451.718 L500.421,455.309 504.957,456.065 Q510.06,457.057 512.706,458.38 514.832,459.467 519.463,461.64 523.337,463.908 525.463,467.357 528.251,471.893 528.912,474.161 529.763,477.138 528.771,480.587 527.779,483.989 525.416,487.628 523.479,490.604 521.211,492.872 518.14,495.944 516.249,497.456 512.895,500.149 510.579,500.432 507.508,500.858 506.091,500.716 503.917,500.48 500.184,499.015 497.16,497.834 495.034,495.377 492.057,491.975 490.026,490.51 487.191,488.431 485.726,485.501 483.883,481.721 481.993,479.642 478.875,476.193 476.843,474.965 475.378,474.114 472.543,473.5 470.275,473.027 469.897,473.122 468.527,473.736 466.165,474.681 461.912,476.855 460.305,477.469 457.707,478.414 456.242,476.335 453.927,473.122 453.549,472.035 452.793,469.909 453.879,466.885 455.203,463.294 455.722,462.585 456.525,461.593 459.549,460.27 464.085,458.238 470.181,460.27 470.842,460.506 470.181,457.057 468.48,447.796 468.432,447.56 465.786,430.833 468.291,417.509 470.606,405.365 476.749,386.796 481.71,371.818 481.285,370.259 480.765,368.321 466.92,368.888 451.517,369.55 449.155,368.605 446.508,367.565 431.672,363.549 417.828,359.769 416.977,359.155 M344.212,337.42 Q357.442,349.752 364.861,354.997 384.611,369.03 408.708,375.929 432.333,382.733 454.588,390.056 465.692,393.695 472.071,396.01 M501.082,593.326 Q500.09,589.168 482.182,556.849 463.944,523.868 462.573,519.616 459.833,511.016 457.707,500.858 455.108,488.478 456.195,485.785 457.281,483.186 460.258,480.493 462.196,478.697 464.463,477.28 M491.396,588.601 Q490.12,589.546 488.136,590.444 484.261,592.286 481.001,592.145 477.646,592.003 471.456,589.546 466.968,587.75 464.227,586.238 463.235,585.671 462.479,583.545 461.817,581.75 460.684,581.75 459.549,581.75 457.093,583.876 454.305,586.286 453.123,586.711 451.328,587.372 447.737,586.427 444.571,585.577 442.728,584.348 441.264,583.403 440.886,581.23 440.65,579.718 440.838,576.552 440.98,574.237 442.303,572.867 442.35,572.772 445.327,570.41 446.792,569.228 448.351,568.756 449.107,568.52 449.58,568.52 M457.848,568.992 Q457.66,568.189 457.896,567.149 458.274,565.07 460.211,564.031 462.148,562.991 465.456,563.322 467.298,563.511 470.37,564.031 471.74,564.173 474.291,565.307 476.701,566.393 477.457,566.393 M491.679,605.847 Q484.545,609.58 476.749,613.36 461.251,621.014 458.132,621.44 455.013,621.865 451.659,621.723 L448.918,621.44 M554.617,503.669 L554.569,503.693 Q536.094,509.363 535.669,509.363 535.575,509.363 539.922,525.569 544.174,543.619 543.418,552.218 L541.623,571.969 Q540.252,592.381 542.473,595.925" test="Jean Reno body"/>
    </g>
    <g id="Jean-Renof0r1">
      <g id="JeanRenoFace">
        <path fill="#000" stroke="none" d="M283.685,46.108 Q279.102,49.463 276.881,53.905 273.763,60.189 268.187,66.709 260.911,75.309 255.619,75.64 250.658,75.923 236.813,70.489 222.118,64.3 218.291,62.882 213.85,61.229 207.802,54.046 199.958,44.786 198.399,43.462 196.462,41.809 195.469,39.257 194.666,36.422 194.336,35.335 193.769,33.398 192.729,32.973 191.453,32.406 188.477,33.54 180.822,36.139 177.515,37.604 172.034,40.013 167.214,44.88 158.945,52.96 154.74,57.07 147.227,64.489 144.062,68.552 125.634,92.65 119.964,99.737 115.948,104.746 113.821,110.274 112.073,114.81 110.514,122.89 108.624,132.812 100.592,160.217 L100.261,190.504 Q99.932,224.706 100.166,245.362 103.757,248.622 106.261,253.725 107.821,256.796 110.986,264.215 112.404,267.239 113.255,274.042 113.869,279.476 117.601,284.532 120.862,288.974 124.973,292.234 128.658,295.116 131.304,299.18 132.296,300.691 137.116,311.37 139.951,317.701 143.589,318.552 144.629,318.788 152.803,322.568 158.378,325.167 162.017,323.75 163.907,322.994 166.316,323.088 167.687,323.135 170.474,323.324 175.861,323.466 181.389,319.025 186.209,315.15 195.8,311.748 204.116,308.819 205.959,306.267 207.235,304.519 208.841,304.472 209.928,304.472 212.054,305.369 217.252,307.637 220.654,306.267 224.198,304.85 232.655,301.353 240.263,298.754 245.696,299.652 249.476,300.266 259.163,304.282 268.046,307.921 272.629,308.157 276.551,308.393 283.402,313.969 289.403,318.883 293.419,317.607 295.876,316.851 298.427,317.56 299.467,317.843 302.633,319.403 307.783,321.812 311.846,319.025 314.256,317.371 317.611,316.52 319.548,316.048 323.234,315.386 329.707,313.874 332.164,308.157 335.33,300.786 338.023,296.25 340.621,291.809 344.921,286.422 346.528,284.39 354.371,277.633 359.9,272.861 360.986,268.467 362.073,264.167 365.664,259.631 370.2,253.82 371.381,251.457 373.035,248.15 374.925,243.661 376.579,240.684 379.886,240.07 383.383,239.455 383.903,241.345 384.139,242.149 383.666,247.205 383.383,250.465 381.823,252.922 L380.359,254.765 381.823,252.922 Q383.383,250.465 383.666,247.205 384.139,242.149 383.903,241.345 383.383,239.455 379.886,240.07 376.579,240.684 374.925,243.661 373.035,248.15 371.381,251.457 370.2,253.82 365.664,259.631 362.073,264.167 360.986,268.467 359.9,272.861 354.371,277.633 346.528,284.39 344.921,286.422 340.621,291.809 338.023,296.25 335.33,300.786 332.164,308.157 329.707,313.874 323.234,315.386 319.548,316.048 317.611,316.52 314.256,317.371 311.846,319.025 307.783,321.812 302.633,319.403 299.467,317.843 298.427,317.56 295.876,316.851 293.419,317.607 289.403,318.883 283.402,313.969 276.551,308.393 272.629,308.157 268.046,307.921 259.163,304.282 249.476,300.266 245.696,299.652 240.263,298.754 232.655,301.353 224.198,304.85 220.654,306.267 217.252,307.637 212.054,305.369 209.928,304.472 208.841,304.472 207.235,304.519 205.959,306.267 204.116,308.819 195.8,311.748 186.209,315.15 181.389,319.025 175.861,323.466 170.474,323.324 167.687,323.135 166.316,323.088 163.907,322.994 162.017,323.75 158.378,325.167 152.803,322.568 144.629,318.788 143.589,318.552 139.951,317.701 137.116,311.37 132.296,300.691 131.304,299.18 128.658,295.116 124.973,292.234 120.862,288.974 117.601,284.532 113.869,279.476 113.255,274.042 112.404,267.239 110.986,264.215 107.821,256.796 106.261,253.725 103.757,248.622 100.166,245.362 100.165,245.48 100.166,245.598 100.403,262.75 101.064,268.94 101.536,273.665 103.332,281.555 105.269,289.824 108.152,299.416 108.388,300.125 114.719,313.213 120.767,325.781 122.799,333.672 127.052,350.399 129.934,354.887 131.493,357.344 134.659,360.321 136.691,362.258 142.644,367.692 144.251,369.204 150.015,376.575 155.685,383.852 157.386,385.364 161.544,389.096 169.388,393.254 176.144,396.798 179.972,401.24 186.917,409.272 192.682,412.391 198.919,415.698 208.322,415.887 208.51,415.887 223.205,418.628 235.207,420.895 241.444,419.195 246.263,417.871 256.705,417.73 266.722,417.588 272.345,415.792 280.992,413.052 286.615,409.177 292.616,404.972 299.561,396.515 303.105,393.349 304.948,391.6 308.208,388.482 309.153,384.088 310.004,380.119 318.414,372.417 327.014,364.573 328.242,360.179 330.794,351.06 334.81,344.634 338.732,338.444 344.78,333.578 349.126,330.128 352.954,319.875 356.828,309.575 359.663,307.165 364.577,303.054 367.176,295.447 369.35,287.32 370.436,284.532 375.775,270.641 379.792,261.332 L382.721,254.765 383.336,256.607 Q384.989,258.592 390.281,259.49 395.809,260.435 399.731,256.087 402.33,253.158 403.511,249.094 403.795,248.055 401.857,237.896 399.684,226.556 400.204,217.862 400.818,207.987 405.448,197.497 407.764,192.158 413.481,182.425 417.403,175.763 418.206,170.518 419.151,164.234 415.844,159.272 411.355,152.516 409.276,151.429 405.448,149.397 398.645,153.744 397.747,157.382 395.668,163.572 391.699,175.479 391.699,179.59 391.699,184.598 390.045,192.3 389.242,196.127 388.391,198.962 379.414,165.887 375.634,153.13 372.137,141.365 362.404,117.125 351.583,90.193 347.756,86.035 343.457,81.357 330.227,70.348 316.855,59.197 310.901,55.322 308.35,53.668 301.215,46.959 296.49,42.518 292.946,42.518 288.505,42.518 283.685,46.108 M348.229,171.983 Q353.379,179.543 353.426,179.59 353.379,179.543 348.229,171.983 344.165,165.982 340.196,163.997 335.991,161.918 323.848,163.43 310.193,165.651 305.704,166.36 299.183,167.399 285.812,172.691 272.865,177.794 266.959,181.48 272.865,177.794 285.812,172.691 299.183,167.399 305.704,166.36 310.193,165.651 323.848,163.43 335.991,161.918 340.196,163.997 344.165,165.982 348.229,171.983 M332.92,189.323 L331.833,194.048 Q330.274,199.34 327.911,202.27 324.934,206.003 320.399,207.42 315.39,208.979 307.594,207.94 294.978,206.286 293.891,188.284 288.717,190.206 283.496,192.631 L279.244,194.71 283.496,192.631 Q288.717,190.206 293.891,188.284 293.962,188.262 294.033,188.236 310.24,182.33 320.351,183.37 324.746,183.834 332.92,189.323 333.885,189.973 334.904,190.694 344.685,197.639 347.284,198.017 344.685,197.639 334.904,190.694 333.885,189.973 332.92,189.323 M336.936,212.145 Q341.614,210.16 342.559,206.995 341.614,210.16 336.936,212.145 333.392,213.61 328.856,214.082 333.392,213.61 336.936,212.145 M304.57,233.502 Q310.996,234.164 315.626,232.037 310.996,234.164 304.57,233.502 298.097,232.84 293.891,229.675 298.097,232.84 304.57,233.502 M281.606,203.215 Q285.008,210.916 292.001,214.082 285.008,210.916 281.606,203.215 M270.314,267.002 L270.266,263.742 270.314,267.002 Q270.219,270.641 269.321,272.72 268.424,274.799 263.132,277.019 L257.981,278.862 Q254.863,279.382 253.256,274.751 253.256,274.94 253.256,275.082 253.256,278.437 251.035,282.075 248.579,285.997 243.806,289.73 238.562,293.84 231.994,293.51 224.812,293.131 217.346,287.367 211.015,282.5 208.416,272.483 206.432,264.97 206.904,256.654 207.188,251.457 211.771,236.668 216.638,221.642 217.346,218.807 218.291,215.264 218.386,203.356 218.291,190.93 218.291,188.567 218.291,183.653 216.165,178.409 213.33,171.557 208.322,169.667 205.25,168.533 198.683,167.777 192.587,167.069 186.587,164.47 178.271,160.831 165.749,158.705 152.945,156.485 147.369,157.855 141.935,159.225 135.32,163.572 129.178,167.683 124.689,172.502 129.178,167.683 135.32,163.572 141.935,159.225 147.369,157.855 152.945,156.485 165.749,158.705 178.271,160.831 186.587,164.47 192.587,167.069 198.683,167.777 205.25,168.533 208.322,169.667 213.33,171.557 216.165,178.409 218.291,183.653 218.291,188.567 218.291,190.93 218.386,203.356 218.291,215.264 217.346,218.807 216.638,221.642 211.771,236.668 207.188,251.457 206.904,256.654 206.432,264.97 208.416,272.483 211.015,282.5 217.346,287.367 224.812,293.131 231.994,293.51 238.562,293.84 243.806,289.73 248.579,285.997 251.035,282.075 253.256,278.437 253.256,275.082 253.256,274.94 253.256,274.751 252.878,273.712 252.595,272.389 L251.839,265.16 252.547,268.514 Q253.209,272.2 253.256,274.751 254.863,279.382 257.981,278.862 L263.132,277.019 Q268.424,274.799 269.321,272.72 270.219,270.641 270.314,267.002 M274.991,328.002 Q277.968,328.758 283.544,333.105 289.592,337.783 292.474,338.87 295.923,340.193 295.923,347.564 295.923,352.383 295.923,352.761 296.112,355.265 297.199,355.88 300.506,357.77 301.451,360.085 302.727,363.109 298.616,365.33 297.907,365.708 285.67,371.283 276.787,375.347 274.519,377.615 273.385,378.749 272.345,381.111 L270.644,385.08 Q268.282,389.521 263.179,388.955 257.036,388.293 252.5,388.529 248.39,388.766 244.279,389.9 234.404,392.593 231.143,393.16 221.315,394.814 218.291,391.79 208.038,381.678 201.707,377.615 199.25,376.055 195.8,370.433 192.587,365.141 189.894,363.912 186.776,362.495 185.689,360.652 184.697,358.242 183.279,356.352 181.531,353.99 181.531,350.682 L181.862,347.847 Q184.035,341.988 187.957,336.743 189.705,334.428 195.092,328.475 197.69,325.592 202.793,324.411 208.794,322.946 211.157,321.387 214.37,319.261 220.796,319.025 228.214,318.788 230.104,318.08 232.608,317.182 241.255,318.316 250.327,319.544 254.201,318.552 258.596,317.465 265.305,322.049 273.479,327.624 274.991,328.002 M199.817,189.985 Q190.905,185.528 187.673,184.031 L188.099,185.118 Q188.382,187.103 187.532,191.402 186.398,197.309 182.476,200.285 177.656,204.018 168.159,203.687 159.134,203.356 154.835,197.497 152.188,193.765 151.007,186.583 139.768,190.938 136.974,194.71 139.768,190.938 151.007,186.583 151.17,186.553 151.338,186.488 157.811,184.079 165.466,182.047 172.081,180.299 174.774,180.062 178.129,179.779 186.776,183.606 187.154,183.774 187.673,184.031 190.905,185.528 199.817,189.985 M195.281,207.987 Q197.927,204.538 197.927,200.852 197.927,204.538 195.281,207.987 192.824,211.153 189.422,212.665 192.824,211.153 195.281,207.987 M141.983,212.617 Q146.424,216.303 151.149,217.39 146.424,216.303 141.983,212.617 137.352,208.743 134.612,203.215 137.352,208.743 141.983,212.617 M150.677,225.895 Q155.591,230.195 157.67,231.045 163.056,233.219 170.994,230.147 163.056,233.219 157.67,231.045 155.591,230.195 150.677,225.895 M337.787,11.758 Q332.967,10.34 330.841,8.97 327.911,7.175 327.439,4.245 326.541,-1.047 334.715,-6.008 338.779,-8.513 343.031,-9.93 338.921,-10.402 333.487,-10.166 322.619,-9.694 316.099,-6.15 312.602,-4.213 309.626,-4.685 307.641,-4.969 304.712,-6.717 301.262,-8.796 299.703,-9.316 296.537,-10.402 292.946,-9.457 286.946,-7.898 275.511,-13.285 268.802,-16.45 267.904,-16.828 264.266,-18.246 262.706,-17.49 259.541,-15.884 239.648,-16.781 222.071,-17.585 213.047,-18.907 207.093,-19.805 198.163,-27.223 L190.367,-34.5 191.028,-31.24 Q191.737,-27.412 191.831,-24.388 192.209,-14.844 186.587,-17.49 180.964,-20.136 169.057,-20.514 L158.237,-20.325 165.986,-13.237 Q172.695,-6.386 167.687,-7.568 162.678,-8.749 152.141,-4.496 L142.644,-.008 144.818,.134 Q147.322,.418 148.976,1.127 154.267,3.347 149.259,8.97 138.628,20.877 133.241,27.776 121.712,42.565 111.932,60.047 103.994,74.222 101.348,107.534 99.694,128.654 100.355,152.988 100.45,157.524 100.592,160.217 108.624,132.812 110.514,122.89 112.073,114.81 113.821,110.274 115.948,104.746 119.964,99.737 125.634,92.65 144.062,68.552 147.227,64.489 154.74,57.07 158.945,52.96 167.214,44.88 172.034,40.013 177.515,37.604 180.822,36.139 188.477,33.54 191.453,32.406 192.729,32.973 193.769,33.398 194.336,35.335 194.666,36.422 195.469,39.257 196.462,41.809 198.399,43.462 199.958,44.786 207.802,54.046 213.85,61.229 218.291,62.882 222.118,64.3 236.813,70.489 250.658,75.923 255.619,75.64 260.911,75.309 268.187,66.709 273.763,60.189 276.881,53.905 279.102,49.463 283.685,46.108 288.505,42.518 292.946,42.518 296.49,42.518 301.215,46.959 308.35,53.668 310.901,55.322 316.855,59.197 330.227,70.348 343.457,81.357 347.756,86.035 351.583,90.193 362.404,117.125 372.137,141.365 375.634,153.13 379.414,165.887 388.391,198.962 389.242,196.127 390.045,192.3 391.699,184.598 391.699,179.59 391.699,175.479 395.668,163.572 397.747,157.382 398.645,153.744 399.353,150.626 399.259,149.35 399.023,146.751 397.747,138.86 396.235,129.883 395.479,123.362 392.785,100.163 392.408,96.383 390.47,77.577 390.754,71.86 391.085,65.434 376.862,45.022 363.16,25.318 354.844,18.893 350.45,15.49 337.787,11.758Z" test="JeanRenoFace" vector-effect="non-scaling-stroke" stroke-width="1"/>
        <path id="Layer4_0_1_STROKES" stroke="#FFF" stroke-width="1.89" stroke-linejoin="round" stroke-linecap="round" fill="none" d="M100.592,160.217 Q100.45,157.524 100.355,152.988 99.694,128.654 101.348,107.534 103.994,74.222 111.932,60.047 121.712,42.565 133.241,27.776 138.628,20.877 149.259,8.97 154.267,3.347 148.976,1.127 147.322,.418 144.818,.134 L142.644,-.008 152.141,-4.496 Q162.678,-8.749 167.687,-7.568 172.695,-6.386 165.986,-13.237 L158.237,-20.325 169.057,-20.514 Q180.964,-20.136 186.587,-17.49 192.209,-14.844 191.831,-24.388 191.737,-27.412 191.028,-31.24 L190.367,-34.5 198.163,-27.223 Q207.093,-19.805 213.047,-18.907 222.071,-17.585 239.648,-16.781 259.541,-15.884 262.706,-17.49 264.266,-18.246 267.904,-16.828 268.802,-16.45 275.511,-13.285 286.946,-7.898 292.946,-9.457 296.537,-10.402 299.703,-9.316 301.262,-8.796 304.712,-6.717 307.641,-4.969 309.626,-4.685 312.602,-4.213 316.099,-6.15 322.619,-9.694 333.487,-10.166 338.921,-10.402 343.031,-9.93 338.779,-8.513 334.715,-6.008 326.541,-1.047 327.439,4.245 327.911,7.175 330.841,8.97 332.967,10.34 337.787,11.758 350.45,15.49 354.844,18.893 363.16,25.318 376.862,45.022 391.085,65.434 390.754,71.86 390.47,77.577 392.408,96.383 392.785,100.163 395.479,123.362 396.235,129.883 397.747,138.86 399.023,146.751 399.259,149.35 399.353,150.626 398.645,153.744 405.448,149.397 409.276,151.429 411.355,152.516 415.844,159.272 419.151,164.234 418.206,170.518 417.403,175.763 413.481,182.425 407.764,192.158 405.448,197.497 400.818,207.987 400.204,217.862 399.684,226.556 401.857,237.896 403.795,248.055 403.511,249.094 402.33,253.158 399.731,256.087 395.809,260.435 390.281,259.49 384.989,258.592 383.336,256.607 L382.721,254.765 379.792,261.332 Q375.775,270.641 370.436,284.532 369.35,287.32 367.176,295.447 364.577,303.054 359.663,307.165 356.828,309.575 352.954,319.875 349.126,330.128 344.78,333.578 338.732,338.444 334.81,344.634 330.794,351.06 328.242,360.179 327.014,364.573 318.414,372.417 310.004,380.119 309.153,384.088 308.208,388.482 304.948,391.6 303.105,393.349 299.561,396.515 292.616,404.972 286.615,409.177 280.992,413.052 272.345,415.792 266.722,417.588 256.705,417.73 246.263,417.871 241.444,419.195 235.207,420.895 223.205,418.628 208.51,415.887 208.322,415.887 198.919,415.698 192.682,412.391 186.917,409.272 179.972,401.24 176.144,396.798 169.388,393.254 161.544,389.096 157.386,385.364 155.685,383.852 150.015,376.575 144.251,369.204 142.644,367.692 136.691,362.258 134.659,360.321 131.493,357.344 129.934,354.887 127.052,350.399 122.799,333.672 120.767,325.781 114.719,313.213 108.388,300.125 108.152,299.416 105.269,289.824 103.332,281.555 101.536,273.665 101.064,268.94 100.403,262.75 100.166,245.598 100.165,245.48 100.166,245.362 99.932,224.706 100.261,190.504 L100.592,160.217 Q108.624,132.812 110.514,122.89 112.073,114.81 113.821,110.274 115.948,104.746 119.964,99.737 125.634,92.65 144.062,68.552 147.227,64.489 154.74,57.07 158.945,52.96 167.214,44.88 172.034,40.013 177.515,37.604 180.822,36.139 188.477,33.54 191.453,32.406 192.729,32.973 193.769,33.398 194.336,35.335 194.666,36.422 195.469,39.257 196.462,41.809 198.399,43.462 199.958,44.786 207.802,54.046 213.85,61.229 218.291,62.882 222.118,64.3 236.813,70.489 250.658,75.923 255.619,75.64 260.911,75.309 268.187,66.709 273.763,60.189 276.881,53.905 279.102,49.463 283.685,46.108 288.505,42.518 292.946,42.518 296.49,42.518 301.215,46.959 308.35,53.668 310.901,55.322 316.855,59.197 330.227,70.348 343.457,81.357 347.756,86.035 351.583,90.193 362.404,117.125 372.137,141.365 375.634,153.13 379.414,165.887 388.391,198.962 389.242,196.127 390.045,192.3 391.699,184.598 391.699,179.59 391.699,175.479 395.668,163.572 397.747,157.382 398.645,153.744 M266.959,181.48 Q272.865,177.794 285.812,172.691 299.183,167.399 305.704,166.36 310.193,165.651 323.848,163.43 335.991,161.918 340.196,163.997 344.165,165.982 348.229,171.983 353.379,179.543 353.426,179.59 M293.891,188.284 Q294.978,206.286 307.594,207.94 315.39,208.979 320.399,207.42 324.934,206.003 327.911,202.27 330.274,199.34 331.833,194.048 L332.92,189.323 Q324.746,183.834 320.351,183.37 310.24,182.33 294.033,188.236 293.962,188.262 293.891,188.284 288.717,190.206 283.496,192.631 L279.244,194.71 M332.92,189.323 Q333.885,189.973 334.904,190.694 344.685,197.639 347.284,198.017 M328.856,214.082 Q333.392,213.61 336.936,212.145 341.614,210.16 342.559,206.995 M100.166,245.362 Q103.757,248.622 106.261,253.725 107.821,256.796 110.986,264.215 112.404,267.239 113.255,274.042 113.869,279.476 117.601,284.532 120.862,288.974 124.973,292.234 128.658,295.116 131.304,299.18 132.296,300.691 137.116,311.37 139.951,317.701 143.589,318.552 144.629,318.788 152.803,322.568 158.378,325.167 162.017,323.75 163.907,322.994 166.316,323.088 167.687,323.135 170.474,323.324 175.861,323.466 181.389,319.025 186.209,315.15 195.8,311.748 204.116,308.819 205.959,306.267 207.235,304.519 208.841,304.472 209.928,304.472 212.054,305.369 217.252,307.637 220.654,306.267 224.198,304.85 232.655,301.353 240.263,298.754 245.696,299.652 249.476,300.266 259.163,304.282 268.046,307.921 272.629,308.157 276.551,308.393 283.402,313.969 289.403,318.883 293.419,317.607 295.876,316.851 298.427,317.56 299.467,317.843 302.633,319.403 307.783,321.812 311.846,319.025 314.256,317.371 317.611,316.52 319.548,316.048 323.234,315.386 329.707,313.874 332.164,308.157 335.33,300.786 338.023,296.25 340.621,291.809 344.921,286.422 346.528,284.39 354.371,277.633 359.9,272.861 360.986,268.467 362.073,264.167 365.664,259.631 370.2,253.82 371.381,251.457 373.035,248.15 374.925,243.661 376.579,240.684 379.886,240.07 383.383,239.455 383.903,241.345 384.139,242.149 383.666,247.205 383.383,250.465 381.823,252.922 L380.359,254.765 M318.934,189.985 L322.714,190.93 M293.891,229.675 Q298.097,232.84 304.57,233.502 310.996,234.164 315.626,232.037 M281.606,203.215 Q285.008,210.916 292.001,214.082 M253.256,274.751 Q254.863,279.382 257.981,278.862 L263.132,277.019 Q268.424,274.799 269.321,272.72 270.219,270.641 270.314,267.002 L270.266,263.742 M253.256,274.751 Q253.209,272.2 252.547,268.514 L251.839,265.16 252.595,272.389 Q252.878,273.712 253.256,274.751 253.256,274.94 253.256,275.082 253.256,278.437 251.035,282.075 248.579,285.997 243.806,289.73 238.562,293.84 231.994,293.51 224.812,293.131 217.346,287.367 211.015,282.5 208.416,272.483 206.432,264.97 206.904,256.654 207.188,251.457 211.771,236.668 216.638,221.642 217.346,218.807 218.291,215.264 218.386,203.356 218.291,190.93 218.291,188.567 218.291,183.653 216.165,178.409 213.33,171.557 208.322,169.667 205.25,168.533 198.683,167.777 192.587,167.069 186.587,164.47 178.271,160.831 165.749,158.705 152.945,156.485 147.369,157.855 141.935,159.225 135.32,163.572 129.178,167.683 124.689,172.502 M196.509,344.067 Q200.667,341.421 206.243,339.815 212.291,338.066 217.346,338.397 220.087,338.586 226.277,340.807 231.474,342.697 236.246,342.177 240.026,341.752 247.114,339.248 253.398,336.98 257.981,336.98 263.84,336.98 268.991,339.342 273.149,341.279 276.409,344.54 M181.862,347.847 Q184.035,341.988 187.957,336.743 189.705,334.428 195.092,328.475 197.69,325.592 202.793,324.411 208.794,322.946 211.157,321.387 214.37,319.261 220.796,319.025 228.214,318.788 230.104,318.08 232.608,317.182 241.255,318.316 250.327,319.544 254.201,318.552 258.596,317.465 265.305,322.049 273.479,327.624 274.991,328.002 277.968,328.758 283.544,333.105 289.592,337.783 292.474,338.87 295.923,340.193 295.923,347.564 295.923,352.383 295.923,352.761 296.112,355.265 297.199,355.88 300.506,357.77 301.451,360.085 302.727,363.109 298.616,365.33 297.907,365.708 285.67,371.283 276.787,375.347 274.519,377.615 273.385,378.749 272.345,381.111 L270.644,385.08 Q268.282,389.521 263.179,388.955 257.036,388.293 252.5,388.529 248.39,388.766 244.279,389.9 234.404,392.593 231.143,393.16 221.315,394.814 218.291,391.79 208.038,381.678 201.707,377.615 199.25,376.055 195.8,370.433 192.587,365.141 189.894,363.912 186.776,362.495 185.689,360.652 184.697,358.242 183.279,356.352 181.531,353.99 181.531,350.682 L181.862,347.847Z M99.647,152.657 Q94.449,145.711 86.322,145.381 78.29,145.097 76.494,151.24 75.266,155.445 81.503,169.006 88.307,183.701 88.307,188.567 88.307,193.765 88.543,212.003 88.543,228.777 87.361,234.4 86.086,240.542 88.354,242.669 90.149,244.322 93.976,243.425 M199.817,189.985 Q190.905,185.528 187.697,184.031 L188.099,185.118 Q188.382,187.103 187.532,191.402 186.398,197.309 182.476,200.285 177.656,204.018 168.159,203.687 159.134,203.356 154.835,197.497 152.188,193.765 151.007,186.606 139.768,190.938 136.974,194.71 M187.697,184.031 Q187.154,183.774 186.776,183.606 178.129,179.779 174.774,180.062 172.081,180.299 165.466,182.047 157.811,184.079 151.338,186.488 151.17,186.553 151.007,186.606 M175.719,186.205 L178.082,186.677 M189.422,212.665 Q192.824,211.153 195.281,207.987 197.927,204.538 197.927,200.852 M134.612,203.215 Q137.352,208.743 141.983,212.617 146.424,216.303 151.149,217.39 M150.677,225.895 Q155.591,230.195 157.67,231.045 163.056,233.219 170.994,230.147 M230.576,328.002 Q239.081,329.42 243.334,329.42 M231.049,350.21 Q234.687,349.737 235.727,349.784 237.947,349.879 241.444,351.155" test="JeanRenoFace"/>
      </g>
      <g id="TearAnimf0r1">
        <g id="TearGraphic">
          <path id="Layer5_0_1_STROKES" stroke="#0FF" stroke-width="1" stroke-linejoin="round" stroke-linecap="round" fill="none" d="M172.495,203.296 Q172.486,203.673 172.395,203.933 172.291,204.21 171.981,204.652 171.667,205.102 171.849,205.693 172.031,206.299 172.536,206.317 173.032,206.335 173.26,205.894 173.446,205.534 173.41,205.029 173.392,204.779 173.037,204.265 172.65,203.701 172.536,203.15" test="TearGraphic" vector-effect="non-scaling-stroke"/>
        </g>
      </g>
    </g>
    <g id="BlackMaskRect">
      <path fill="#000" stroke="none" d="M823.45,613.6 L823.45,508.3 -23.6,508.3 -23.6,613.6 823.45,613.6Z" test="BlackMaskRect"/>
    </g>
  </g>
</svg>