<?xml version="1.0" encoding="utf-8"?>
<svg id="EdithAnim06" image-rendering="inherit" baseProfile="basic" version="1.1" x="0px" y="0px" width="800" height="600" xmlns="http://www.w3.org/2000/svg" xmlns:xlink="http://www.w3.org/1999/xlink">
  <g id="Jean-Renof85r1" overflow="visible">
    <g id="Bec-nom-Jean">
      <path id="Layer3_0_1_STROKES" stroke="#F90" stroke-width="1.796" stroke-linejoin="round" stroke-linecap="round" fill="none" d="M1038.5,595.741 Q1038.32,595.607 1038.141,595.472 M1005.768,640.148 Q1006.576,648.05 1006.486,657.165 1006.396,666.01 1005.543,670.68 M1056.684,576.659 Q1054.394,576.973 1053.496,577.153 1053.182,577.288 1052.958,577.288" test="Bec nom Jean"/>
      <path id="Layer3_0_2_STROKES" stroke="#FFF" stroke-width="1.796" stroke-linejoin="round" stroke-linecap="round" fill="none" d="M1003.119,383.858 Q1002.715,379.503 1003.074,377.348 1003.613,374.34 1005.813,372.633 1008.462,370.613 1012.817,371.376 1017.487,372.229 1018.923,375.866 M1002.984,426.603 Q1000.963,430.509 1000.739,434.101 1000.521,437.517 1002.019,439.355 1002.047,439.4 1002.086,439.445 1005.364,443.351 1010.617,443.351 1015.287,443.306 1019.687,440.387 M950.99,449.727 Q956.647,446.898 960.643,447.616 963.876,448.155 967.603,451.523 968.905,452.69 969.623,453.813 L974.517,453.274 Q980.13,452.466 983.901,451.074 989.694,448.918 994.633,445.955 999.062,443.284 1001.008,440.904 1001.648,440.109 1002.019,439.355 M945.961,418.88 Q944.749,409.541 950.092,406.084 953.235,404.063 957.545,404.916 961.317,405.635 964.46,408.104 M969.623,453.813 Q970.617,455.318 970.88,457 971.025,457.981 970.925,459.021 970.701,461.49 968.95,464.993" test="Bec nom Jean"/>
      <path id="Layer3_0_3_STROKES" stroke="#FEB7AE" stroke-width="1.796" stroke-linejoin="round" stroke-linecap="round" fill="none" d="M1030.508,355.751 Q1035.896,364.013 1040.43,372.319 1053.839,396.939 1055.113,413.852 1055.182,414.763 1055.203,416.052 1055.517,434.461 1049.096,446.404 1044.516,454.89 1035.896,460.952 1024.267,469.079 1016.499,472.311 1000.874,478.732 981.971,477.565 967.468,476.667 957.994,474.062 950.002,471.817 945.018,468.091 M1006.89,477.834 Q1008.237,479.63 1009.36,481.875 M1068.224,534.184 Q1065.215,532.028 1061.848,529.828 1055.113,525.518 1053.272,525.563 1051.341,525.608 1050.443,526.91 1049.815,527.853 1049.815,529.02 1049.815,531.624 1050.309,533.779 1050.937,536.473 1052.149,537.551 1053.945,539.123 1053.631,539.033 1050.847,538.18 1047.435,537.416 1040.61,535.89 1037.332,536.294 1032.079,536.967 1028.263,543.164 1026.422,546.127 1027.769,550.392 1028.936,554.119 1031.181,555.825 1033.516,557.576 1036.749,559.013 1040.7,560.764 1043.843,560.899 1048.647,561.124 1056.55,559.552 M1036.3,578.186 L1041.373,574.638 Q1047.031,570.957 1049.815,570.104 1054.978,568.577 1056.056,568.442 1059.109,568.038 1060.142,570.104 1061.129,572.079 1057.807,574.638 1056.101,575.896 1053.496,577.153 M1056.684,576.659 Q1062.207,576.569 1066.428,579.084 L1072.175,582.361 Q1077.832,586.268 1077.428,589.635 1076.889,593.856 1074.599,596 1072.175,600.366 1068.897,600.86 1064.362,601.534 1060.097,601.309 1054.529,600.995 1053.182,599.064 1052.778,598.48 1050.488,597.717 1049.321,597.313 1045.729,596.325 1044.112,595.876 1041.508,596.056 1039.263,596.19 1038.5,595.741 M1022.156,474.916 L1019.911,471.324" test="Bec nom Jean"/>
      <path id="Layer3_0_4_STROKES" stroke="#00F" stroke-width="1.796" stroke-linejoin="round" stroke-linecap="round" fill="none" d="M1058.929,420.317 L1073.746,446.898 1089.327,430.869 Q1086.992,427.187 1083.445,420.093 1076.351,405.949 1070.469,389.112 1064.317,371.556 1049.141,354.179 1041.778,345.738 1023.773,329.35 1013.535,320.011 995.082,316.868 978.918,314.129 968.052,317.227 948.969,322.66 939.675,326.835 919.021,335.995 909.233,349.6 895.448,368.682 889.746,383.185 882.203,402.402 886.783,417.399 891.856,433.967 911.657,465.127 931.503,496.333 940.214,501.362 947.532,505.582 963.247,505.897 971.105,506.076 977.481,505.403 L945.018,468.091 Q941.83,465.756 939.316,462.299 935.499,457.09 924.319,439.13 913.049,420.991 913.723,420.991 L933.434,405.545 Q955.525,388.618 967.603,381.03 979.681,373.442 1004.062,360.555 1016.229,354.09 1026.018,349.151 L1030.508,355.751" test="Bec nom Jean"/>
      <path id="Layer3_0_5_STROKES" stroke="#0FF" stroke-width="1.796" stroke-linejoin="round" stroke-linecap="round" fill="none" d="M1066.607,539.527 L1064.811,542.804 Q1063.15,547.07 1063.689,551.874 1064.272,556.858 1064.856,557.262 1065.485,557.711 1069.526,558.609 1073.477,560.226 1089.776,560.854 1104.997,561.438 1112.675,560.675 1121.071,559.866 1129.333,558.295 1139.345,556.409 1142.084,554.568 1144.913,552.682 1150.211,544.151 1155.24,536.069 1155.779,533.241 1156.317,530.636 1154.387,524.799 1152.366,518.648 1148.595,512.138 1145.182,506.211 1134.541,498.668 1126.639,493.1 1118.961,489.239 1112.72,486.141 1099.564,481.112 1085.196,475.589 1081.02,475.14 1074.016,474.736 1070.02,474.511 1062.701,474.107 1059.019,472.895 1055.023,471.548 1049.949,471.368 1047.794,471.279 1040.565,471.548 L1032.708,471.773 1033.651,474.422 Q1034.459,477.43 1034.055,478.957 1033.606,480.618 1030.912,482.279 1029.475,483.177 1025.075,485.243 1019.732,487.757 1016.678,488.924 1011.201,490.99 1009.135,490.406 1006.845,489.733 1004.735,488.341 1002.715,487.039 1001.502,485.467 M977.481,553.491 L981.971,570.104 M1038.5,595.741 Q1038.5,595.697 1038.545,595.697 1036.749,579.533 1036.3,578.186 1035.985,577.198 1026.197,576.12 1016.678,575.043 1009.36,575.043 1006.756,575.043 987.269,573.247 971.06,571.765 967.154,572.798 963.247,573.83 964.28,571.855 966.076,568.487 965.807,567.859 965.358,566.691 972.587,557.307 981.387,545.947 983.767,541.368 988.706,531.939 989.604,529.245 M995.89,487.937 Q992.432,490.406 988.706,493.1 981.297,498.488 980.175,499.611 M961.766,520.265 Q953.145,532.837 944.389,546.082 926.878,572.573 926.295,575.941 925.576,580.206 934.826,587.21 944.434,594.529 954.133,596.146 962.933,597.627 992.343,597.852 1017.038,598.031 1026.871,597.493 1032.214,597.223 1035.896,596.415 1037.737,596.056 1038.5,595.741 M993.645,600.86 L999.302,616.485 Q1005.049,633.413 1005.768,640.148 L1026.197,642.033 Q1047.974,643.65 1054.709,642.393 1065.754,640.327 1077.518,636.78 1093.233,632.066 1101.001,627.127 1106.838,623.445 1115.728,618.326 1121.879,614.599 1122.553,612.085 1123.451,608.852 1123.271,603.105 1123.091,596.819 1121.655,590.758 1120.397,585.414 1116.985,573.426 L1113.797,562.471 M1098.531,518.648 L1104.144,528.975 M1073.342,502.933 L1096.556,512.856 Q1119.904,523.183 1120.757,525.159 1123.451,531.445 1120.757,532.792 1119.679,533.33 1109.801,532.792 1099.294,532.208 1096.511,532.792 1093.592,533.375 1088.294,533.779 1082.457,534.184 1080.077,534.588 1076.934,535.126 1074.51,536.429 1072.13,537.686 1071.771,537.731" test="Bec nom Jean"/>
    </g>
    <g id="Jean-Reno-body">
      <path id="Layer2_0_1_STROKES" stroke="#FEB7AE" stroke-width="1.89" stroke-linejoin="round" stroke-linecap="round" fill="none" d="M492.995,311.417 Q499.137,317.559 537.457,323.702 563.208,327.86 590.377,330.317 597.653,330.979 640.226,339.673 676.561,347.044 682.987,345.437 692.768,342.98 700.233,340.003 709.73,336.176 718.897,330.317 728.016,324.458 740.207,322.663 750.413,321.103 758.634,322.757 764.54,323.938 770.21,325.828 773.045,326.773 774.699,327.482 773.045,327.954 771.155,328.947 767.47,330.979 766.572,333.766 765.674,336.554 768.746,339.389 770.305,340.759 772.006,341.61 770.116,342.366 768.415,343.736 764.966,346.477 765.863,349.406 766.761,352.383 772.431,353.659 775.266,354.32 777.912,354.367 L778.952,360.415 Q780.416,366.747 782.637,368.07 784.858,369.393 790.244,366.841 792.938,365.613 795.158,364.054 L796.954,368.07 Q799.411,371.992 802.955,371.377 806.498,370.81 809.475,367.739 810.94,366.18 811.696,364.762 L815.145,366.18 Q818.831,367.361 820.012,366.18 821.193,364 822.138,361.691 L822.847,358.62 825.115,371.566 Q827.194,385.363 826.154,389.332 826.06,389.663 825.068,394.53 824.359,397.979 823.461,400.247 820.815,407.004 814.058,410.595 M746.255,365.235 Q754.476,363.25 765.722,365.188 782.117,367.975 790.67,378.937 793.977,383.19 800.876,391.931 806.782,399.633 810.089,405.823 819.02,422.549 815.476,439.654 811.979,456.475 802.624,471.925 798.324,479.013 789.961,489.266 787.598,492.148 778.81,499.047 768.368,507.221 755.657,515.443 720.173,538.453 687.901,548.376 L672.167,553.219 Q674.806,556.52 676.939,567.181 679.112,578.049 678.215,584.05 677.459,589.152 680.152,592.555 680.861,593.5 684.357,596.098 687.145,598.177 691.35,604.792 696.784,613.297 695.697,618.306 694.563,623.739 689.649,628.984 685.208,633.662 681.286,634.843 678.356,635.741 672.781,635.835 L667.82,635.788 674.246,637.111 Q681.475,639.426 685.775,644.293 691.35,650.625 693.618,655.066 696.264,660.169 694.752,663.193 693.713,665.32 690.925,671.746 687.476,677.699 681.05,680.676 675.049,683.464 661.961,680.392 655.393,678.644 652.605,677.935 647.88,676.754 646.085,676.896 643.722,677.085 625.153,681.81 606.347,686.629 599.78,687.291 592.881,687 584.612,684.503 580.738,682.708 579.179,682.093 576.627,681.007 575.446,681.148 571.666,681.337 569.729,681.574 566.374,682.046 563.87,683.983 561.035,686.157 557.16,685.212 553.475,684.314 552.53,681.857 551.443,679.069 551.537,677.416 551.679,675.1 553.947,673.352 556.026,671.746 559.334,671.179 560.987,670.942 562.216,670.989 561.318,669.95 560.704,668.58 559.475,665.839 560.798,664.374 562.263,662.768 566.09,661.965 569.303,661.303 571.902,661.54 573.036,661.634 570.485,659.839 567.319,657.618 568.358,656.578 569.587,655.35 572.753,655.444 574.217,655.492 577.808,656.106 579.037,656.295 581.021,657.712 582.439,658.752 583.478,658.232 586.786,656.578 591.227,654.499 598.031,651.334 600.725,650.436 604.977,649.018 609.23,648.073 M504.996,312.504 Q509.154,310.519 524.038,301.636 538.024,293.746 543.032,293.604 556.026,293.226 560.042,293.604 572.847,294.785 584.66,300.691 609.986,313.354 613.624,315.244 629.831,323.844 636.871,329.514 643.675,334.995 649.345,338.255 652.18,339.909 653.645,340.429 M482.316,376.528 Q482.316,372.464 483.308,367.456 485.34,357.391 490.349,352.666 500.885,342.744 514.446,344.87 519.644,345.673 529.802,351.91 539.158,357.628 541.615,360.699 543.552,363.109 548.372,364.006 552.057,364.715 556.971,364.479 559.617,364.384 573.556,363.392 586.975,362.636 590.802,363.534 597.134,364 611.781,369.96 628.555,375.677 631.673,378.181 634.036,380.071 642.068,387.064 649.581,393.301 652.463,394.482 655.771,395.806 656.291,396.703 656.621,397.318 656.007,399.491 655.771,400.342 656.291,406.626 656.81,413.477 656.007,418.864 655.015,425.526 649.912,442.961 645.092,459.404 642.541,465.641 640.462,470.791 633.894,482.226 627.893,492.668 625.767,495.409 624.302,497.346 620.995,501.268 L617.971,504.859 622.507,505.614 Q627.61,506.607 630.256,507.93 632.382,509.016 637.013,511.19 640.887,513.458 643.013,516.907 645.801,521.443 646.463,523.711 647.313,526.688 646.321,530.137 645.329,533.539 642.966,537.178 641.029,540.154 638.761,542.422 635.69,545.493 633.8,547.006 630.445,549.699 628.13,549.982 625.058,550.408 623.641,550.266 621.467,550.03 617.735,548.565 614.711,547.383 612.584,544.927 609.608,541.525 607.576,540.06 604.741,537.981 603.276,535.051 601.433,531.271 599.543,529.192 596.425,525.743 594.393,524.515 592.928,523.664 590.093,523.05 587.825,522.577 587.447,522.672 586.077,523.286 583.715,524.231 579.462,526.405 577.856,527.019 575.257,527.964 573.792,525.885 571.477,522.672 571.099,521.585 570.343,519.459 571.43,516.435 572.753,512.844 573.272,512.135 574.076,511.143 577.1,509.82 581.636,507.788 587.731,509.82 588.392,510.056 587.731,506.607 586.03,497.346 585.983,497.109 583.337,480.383 585.841,467.059 588.156,454.915 594.299,436.346 599.26,421.368 598.835,419.809 598.315,417.871 584.471,418.438 569.067,419.1 566.705,418.155 564.059,417.115 549.222,413.099 535.378,409.319 534.527,408.705 M461.762,386.97 Q474.992,399.302 482.411,404.547 502.161,418.58 526.259,425.479 549.884,432.282 572.138,439.606 583.242,443.244 589.621,445.56 M618.632,642.876 Q617.64,638.718 599.732,606.399 581.494,573.418 580.124,569.166 577.383,560.566 575.257,550.408 572.658,538.028 573.745,535.335 574.832,532.736 577.808,530.043 579.746,528.247 582.014,526.83 M608.946,638.151 Q607.67,639.096 605.686,639.994 601.811,641.836 598.551,641.695 595.196,641.553 589.007,639.096 584.518,637.3 581.777,635.788 580.785,635.221 580.029,633.095 579.368,631.3 578.234,631.3 577.1,631.3 574.643,633.426 571.855,635.835 570.674,636.261 568.878,636.922 565.287,635.977 562.121,635.127 560.279,633.898 558.814,632.953 558.436,630.78 558.2,629.268 558.389,626.102 558.53,623.787 559.853,622.416 559.901,622.322 562.877,619.959 564.342,618.778 565.901,618.306 566.657,618.07 567.13,618.07 M575.399,618.542 Q575.21,617.739 575.446,616.699 575.824,614.62 577.761,613.581 579.698,612.541 583.006,612.872 584.849,613.061 587.92,613.581 589.29,613.723 591.842,614.857 594.251,615.943 595.007,615.943 M609.23,655.397 Q602.095,659.13 594.299,662.91 578.801,670.564 575.682,670.989 572.564,671.415 569.209,671.273 L566.468,670.989 M672.167,553.219 L672.119,553.243 Q653.645,558.913 653.219,558.913 653.125,558.913 657.472,575.119 661.724,593.169 660.968,601.768 L659.173,621.519 Q657.803,641.931 660.023,645.475" test="Jean Reno body"/>
    </g>
    <g id="Jean-Renof0r1">
      <g id="JeanRenoFace">
        <path fill="#000" stroke="none" d="M425.535,106.309 Q420.952,109.663 418.731,114.105 415.613,120.389 410.037,126.91 402.761,135.509 397.469,135.84 392.508,136.123 378.663,130.689 363.969,124.5 360.141,123.082 355.7,121.429 349.652,114.247 341.808,104.986 340.249,103.663 338.312,102.009 337.32,99.457 336.516,96.622 336.186,95.536 335.619,93.598 334.579,93.173 333.303,92.606 330.327,93.74 322.672,96.339 319.365,97.804 313.883,100.213 309.064,105.08 300.795,113.16 296.59,117.271 289.077,124.689 285.912,128.752 267.484,152.85 261.814,159.937 257.798,164.946 255.671,170.474 253.923,175.01 252.364,183.09 250.474,193.012 242.442,220.417 L242.111,250.704 Q241.782,284.906 242.016,305.562 245.607,308.822 248.111,313.925 249.671,316.996 252.836,324.415 254.254,327.439 255.105,334.242 255.719,339.676 259.452,344.732 262.712,349.174 266.823,352.434 270.508,355.316 273.154,359.38 274.146,360.891 278.966,371.57 281.801,377.901 285.439,378.752 286.479,378.988 294.653,382.768 300.228,385.367 303.867,383.95 305.757,383.194 308.166,383.288 309.537,383.335 312.324,383.524 317.711,383.666 323.239,379.225 328.059,375.35 337.65,371.948 345.966,369.018 347.809,366.467 349.085,364.719 350.691,364.672 351.778,364.672 353.904,365.569 359.102,367.837 362.504,366.467 366.048,365.049 374.505,361.553 382.113,358.954 387.546,359.852 391.326,360.466 401.013,364.482 409.895,368.121 414.479,368.357 418.4,368.593 425.252,374.169 431.253,379.083 435.269,377.807 437.726,377.051 440.277,377.76 441.317,378.043 444.482,379.602 449.633,382.012 453.696,379.225 456.106,377.571 459.461,376.72 461.398,376.248 465.083,375.586 471.557,374.074 474.014,368.357 477.179,360.986 479.873,356.45 482.472,352.008 486.771,346.622 488.378,344.59 496.221,337.833 501.75,333.061 502.836,328.667 503.923,324.367 507.514,319.831 512.05,314.02 513.231,311.657 514.885,308.35 516.775,303.861 518.429,300.884 521.736,300.27 525.233,299.655 525.752,301.545 525.989,302.349 525.516,307.405 525.233,310.665 523.674,313.122 L522.209,314.965 523.674,313.122 Q525.233,310.665 525.516,307.405 525.989,302.349 525.752,301.545 525.233,299.655 521.736,300.27 518.429,300.884 516.775,303.861 514.885,308.35 513.231,311.657 512.05,314.02 507.514,319.831 503.923,324.367 502.836,328.667 501.75,333.061 496.221,337.833 488.378,344.59 486.771,346.622 482.472,352.008 479.873,356.45 477.179,360.986 474.014,368.357 471.557,374.074 465.083,375.586 461.398,376.248 459.461,376.72 456.106,377.571 453.696,379.225 449.633,382.012 444.482,379.602 441.317,378.043 440.277,377.76 437.726,377.051 435.269,377.807 431.253,379.083 425.252,374.169 418.4,368.593 414.479,368.357 409.895,368.121 401.013,364.482 391.326,360.466 387.546,359.852 382.113,358.954 374.505,361.553 366.048,365.049 362.504,366.467 359.102,367.837 353.904,365.569 351.778,364.672 350.691,364.672 349.085,364.719 347.809,366.467 345.966,369.018 337.65,371.948 328.059,375.35 323.239,379.225 317.711,383.666 312.324,383.524 309.537,383.335 308.166,383.288 305.757,383.194 303.867,383.95 300.228,385.367 294.653,382.768 286.479,378.988 285.439,378.752 281.801,377.901 278.966,371.57 274.146,360.891 273.154,359.38 270.508,355.316 266.823,352.434 262.712,349.174 259.452,344.732 255.719,339.676 255.105,334.242 254.254,327.439 252.836,324.415 249.671,316.996 248.111,313.925 245.607,308.822 242.016,305.562 242.015,305.68 242.016,305.798 242.253,322.95 242.914,329.14 243.386,333.865 245.182,341.755 247.119,350.024 250.002,359.616 250.238,360.325 256.569,373.413 262.617,385.981 264.649,393.872 268.902,410.599 271.784,415.087 273.343,417.544 276.509,420.521 278.541,422.458 284.494,427.892 286.101,429.404 291.865,436.775 297.535,444.052 299.236,445.564 303.394,449.296 311.238,453.454 317.994,456.998 321.822,461.44 328.767,469.472 334.532,472.59 340.769,475.898 350.172,476.087 350.361,476.087 365.055,478.828 377.057,481.095 383.294,479.395 388.113,478.071 398.556,477.93 408.573,477.788 414.195,475.992 422.842,473.252 428.465,469.377 434.465,465.172 441.411,456.715 444.955,453.549 446.798,451.8 450.058,448.682 451.003,444.288 451.854,440.319 460.264,432.617 468.864,424.773 470.092,420.379 472.643,411.26 476.66,404.834 480.582,398.644 486.63,393.778 490.977,390.328 494.804,380.075 498.678,369.775 501.513,367.365 506.427,363.254 509.026,355.647 511.199,347.52 512.286,344.732 517.626,330.84 521.642,321.532 L524.571,314.965 525.186,316.807 Q526.839,318.792 532.131,319.69 537.66,320.635 541.581,316.287 544.18,313.358 545.361,309.295 545.645,308.255 543.708,298.096 541.534,286.756 542.054,278.062 542.668,268.187 547.299,257.698 549.614,252.358 555.331,242.625 559.253,235.962 560.056,230.718 561.001,224.433 557.694,219.472 553.205,212.716 551.126,211.629 547.299,209.597 540.495,213.944 539.597,217.582 537.518,223.772 533.549,235.679 533.549,239.79 533.549,244.798 531.895,252.5 531.092,256.327 530.241,259.162 521.264,226.087 517.484,213.33 513.987,201.564 504.254,177.325 493.434,150.393 489.606,146.235 485.307,141.557 472.077,130.548 458.705,119.397 452.751,115.522 450.2,113.869 443.065,107.159 438.34,102.718 434.796,102.718 430.355,102.718 425.535,106.309 M490.079,232.182 Q495.229,239.742 495.276,239.79 495.229,239.742 490.079,232.182 486.015,226.182 482.046,224.197 477.841,222.118 465.698,223.63 452.042,225.851 447.554,226.56 441.033,227.599 427.662,232.891 414.715,237.994 408.809,241.68 414.715,237.994 427.662,232.891 441.033,227.599 447.554,226.56 452.042,225.851 465.698,223.63 477.841,222.118 482.046,224.197 486.015,226.182 490.079,232.182 M474.77,249.523 L473.683,254.248 Q472.124,259.54 469.761,262.47 466.785,266.203 462.249,267.62 457.24,269.179 449.444,268.14 436.828,266.486 435.741,248.484 430.567,250.406 425.346,252.831 L421.094,254.91 425.346,252.831 Q430.567,250.406 435.741,248.484 435.812,248.462 435.883,248.436 452.09,242.53 462.201,243.57 466.596,244.034 474.77,249.523 475.735,250.173 476.754,250.894 486.535,257.839 489.134,258.217 486.535,257.839 476.754,250.894 475.735,250.173 474.77,249.523 M478.786,272.345 Q483.464,270.36 484.409,267.195 483.464,270.36 478.786,272.345 475.242,273.81 470.706,274.282 475.242,273.81 478.786,272.345 M446.42,293.702 Q452.846,294.364 457.476,292.237 452.846,294.364 446.42,293.702 439.947,293.04 435.741,289.875 439.947,293.04 446.42,293.702 M423.456,263.415 Q426.858,271.117 433.851,274.282 426.858,271.117 423.456,263.415 M412.164,327.202 L412.116,323.942 412.164,327.202 Q412.069,330.84 411.171,332.92 410.274,334 404.982,337.219 L399.831,339.062 Q396.713,339.582 395.106,334.951 395.106,335.14 395.106,335.282 395.106,338.637 392.886,342.275 390.429,346.197 385.656,349.93 380.412,354.04 373.844,353.71 366.662,353.331 359.196,347.567 352.865,342.7 350.266,332.683 348.282,325.17 348.754,316.855 349.037,311.657 353.621,296.868 358.488,281.842 359.196,279.007 360.141,275.464 360.236,263.557 360.141,251.13 360.141,248.767 360.141,243.853 358.015,238.609 355.18,231.757 350.172,229.867 347.1,228.733 340.532,227.977 334.437,227.269 328.437,224.67 320.121,221.031 307.599,218.905 294.795,216.685 289.219,218.055 283.785,219.425 277.17,223.772 271.028,227.883 266.539,232.702 271.028,227.883 277.17,223.772 283.785,219.425 289.219,218.055 294.795,216.685 307.599,218.905 320.121,221.031 328.437,224.67 334.437,227.269 340.532,227.977 347.1,228.733 350.172,229.867 355.18,231.757 358.015,238.609 360.141,243.853 360.141,248.767 360.141,251.13 360.236,263.557 360.141,275.464 359.196,279.007 358.488,281.842 353.621,296.868 349.037,311.657 348.754,316.855 348.282,325.17 350.266,332.683 352.865,342.7 359.196,347.567 366.662,353.331 373.844,353.71 380.412,354.04 385.656,349.93 390.429,346.197 392.886,342.275 395.106,338.637 395.106,335.282 395.106,335.14 395.106,334.951 394.728,333.912 394.445,332.589 L393.689,325.359 394.398,328.714 Q395.059,332.4 395.106,334.951 396.713,339.582 399.831,339.062 L404.982,337.219 Q410.274,334 411.171,332.92 412.069,330.84 412.164,327.202 M416.841,388.202 Q419.818,388.958 425.393,393.305 431.442,397.983 434.324,399.07 437.773,400.393 437.773,407.763 437.773,412.583 437.773,412.961 437.962,415.465 439.049,416.08 442.356,417.97 443.301,420.285 444.577,423.309 440.466,425.53 439.758,425.907 427.52,431.483 418.637,435.547 416.369,437.815 415.235,438.948 414.195,441.311 L412.494,445.28 Q410.132,449.721 405.029,449.155 398.886,448.493 394.35,448.729 390.239,448.965 386.129,450.1 376.254,452.793 372.993,453.36 363.165,455.013 360.141,451.989 349.888,441.878 343.557,437.815 341.1,436.255 337.65,430.633 334.437,425.34 331.744,424.112 328.626,422.695 327.539,420.852 326.547,418.442 325.129,416.552 323.381,414.19 323.381,410.882 L323.712,408.047 Q325.885,402.188 329.807,396.943 331.555,394.628 336.942,388.674 339.54,385.792 344.643,384.611 350.644,383.146 353.007,381.587 356.22,379.461 362.645,379.225 370.064,378.988 371.954,378.28 374.458,377.382 383.105,378.516 392.177,379.744 396.051,378.752 400.446,377.665 407.155,382.249 415.329,387.824 416.841,388.202 M341.667,250.185 Q332.755,245.728 329.523,244.231 L329.948,245.318 Q330.232,247.302 329.382,251.602 328.248,257.509 324.326,260.485 319.506,264.218 310.009,263.887 300.984,263.557 296.684,257.698 294.039,253.965 292.857,246.783 281.618,251.138 278.824,254.91 281.618,251.138 292.857,246.783 293.02,246.753 293.188,246.688 299.661,244.278 307.316,242.247 313.931,240.498 316.624,240.262 319.979,239.979 328.626,243.806 329.004,243.974 329.523,244.231 332.755,245.728 341.667,250.185 M337.131,268.187 Q339.777,264.738 339.777,261.052 339.777,264.738 337.131,268.187 334.674,271.353 331.272,272.865 334.674,271.353 337.131,268.187 M283.833,272.818 Q288.274,276.503 292,277.59 288.274,276.503 283.833,272.818 279.202,268.943 276.462,263.415 279.202,268.943 283.833,272.818 M292.527,286.095 Q297.441,290.395 299.52,291.245 304.906,293.419 312.844,290.347 304.906,293.419 299.52,291.245 297.441,290.395 292.527,286.095 M479.636,71.958 Q474.817,70.54 472.691,69.17 469.761,67.375 469.289,64.445 468.391,59.153 476.565,54.192 480.629,51.688 484.881,50.27 480.77,49.798 475.337,50.034 464.469,50.506 457.949,54.05 454.452,55.987 451.476,55.515 449.491,55.231 446.561,53.483 443.112,51.404 441.553,50.884 438.387,49.798 434.796,50.743 428.796,52.302 417.361,46.915 410.652,43.75 409.754,43.372 406.116,41.954 404.556,42.71 401.391,44.317 381.498,43.419 363.921,42.616 354.897,41.293 348.943,40.395 340.013,32.977 L332.217,25.7 332.878,28.96 Q333.587,32.788 333.681,35.811 334.059,45.356 328.437,42.71 322.814,40.064 310.907,39.686 L300.087,39.875 307.836,46.963 Q314.545,53.814 309.537,52.632 304.528,51.451 293.991,55.704 L284.494,60.192 286.668,60.334 Q289.172,60.618 290.826,61.326 296.118,63.547 291.109,69.17 280.478,81.077 275.091,87.976 263.562,102.765 253.782,120.247 245.844,134.422 243.198,167.734 241.544,188.854 242.205,213.188 242.3,217.724 242.442,220.417 250.474,193.012 252.364,183.09 253.923,175.01 255.671,170.474 257.798,164.946 261.814,159.937 267.484,152.85 285.912,128.752 289.077,124.689 296.59,117.271 300.795,113.16 309.064,105.08 313.883,100.213 319.365,97.804 322.672,96.339 330.327,93.74 333.303,92.606 334.579,93.173 335.619,93.598 336.186,95.536 336.516,96.622 337.32,99.457 338.312,102.009 340.249,103.663 341.808,104.986 349.652,114.247 355.7,121.429 360.141,123.082 363.969,124.5 378.663,130.689 392.508,136.123 397.469,135.84 402.761,135.509 410.037,126.91 415.613,120.389 418.731,114.105 420.952,109.663 425.535,106.309 430.355,102.718 434.796,102.718 438.34,102.718 443.065,107.159 450.2,113.869 452.751,115.522 458.705,119.397 472.077,130.548 485.307,141.557 489.606,146.235 493.434,150.393 504.254,177.325 513.987,201.564 517.484,213.33 521.264,226.087 530.241,259.162 531.092,256.327 531.895,252.5 533.549,244.798 533.549,239.79 533.549,235.679 537.518,223.772 539.597,217.582 540.495,213.944 541.203,210.825 541.109,209.55 540.873,206.951 539.597,199.06 538.085,190.083 537.329,183.562 534.636,160.362 534.257,156.582 532.32,137.777 532.604,132.06 532.935,125.634 518.712,105.222 505.01,85.518 496.694,79.093 492.299,75.691 479.636,71.958Z" test="JeanRenoFace" vector-effect="non-scaling-stroke" stroke-width="1"/>
        <path id="Layer4_0_1_STROKES" stroke="#FFF" stroke-width="1.89" stroke-linejoin="round" stroke-linecap="round" fill="none" d="M242.442,220.417 Q242.3,217.724 242.205,213.188 241.544,188.854 243.198,167.734 245.844,134.422 253.782,120.247 263.562,102.765 275.091,87.976 280.478,81.077 291.109,69.17 296.118,63.547 290.826,61.326 289.172,60.618 286.668,60.334 L284.494,60.192 293.991,55.704 Q304.528,51.451 309.537,52.632 314.545,53.814 307.836,46.963 L300.087,39.875 310.907,39.686 Q322.814,40.064 328.437,42.71 334.059,45.356 333.681,35.811 333.587,32.788 332.878,28.96 L332.217,25.7 340.013,32.977 Q348.943,40.395 354.897,41.293 363.921,42.616 381.498,43.419 401.391,44.317 404.556,42.71 406.116,41.954 409.754,43.372 410.652,43.75 417.361,46.915 428.796,52.302 434.796,50.743 438.387,49.798 441.553,50.884 443.112,51.404 446.561,53.483 449.491,55.231 451.476,55.515 454.452,55.987 457.949,54.05 464.469,50.506 475.337,50.034 480.77,49.798 484.881,50.27 480.629,51.688 476.565,54.192 468.391,59.153 469.289,64.445 469.761,67.375 472.691,69.17 474.817,70.54 479.636,71.958 492.299,75.691 496.694,79.093 505.01,85.518 518.712,105.222 532.935,125.634 532.604,132.06 532.32,137.777 534.257,156.582 534.636,160.362 537.329,183.562 538.085,190.083 539.597,199.06 540.873,206.951 541.109,209.55 541.203,210.825 540.495,213.944 547.299,209.597 551.126,211.629 553.205,212.716 557.694,219.472 561.001,224.433 560.056,230.718 559.253,235.962 555.331,242.625 549.614,252.358 547.299,257.698 542.668,268.187 542.054,278.062 541.534,286.756 543.708,298.096 545.645,308.255 545.361,309.295 544.18,313.358 541.581,316.287 537.66,320.635 532.131,319.69 526.839,318.792 525.186,316.807 L524.571,314.965 521.642,321.532 Q517.626,330.84 512.286,344.732 511.199,347.52 509.026,355.647 506.427,363.254 501.513,367.365 498.678,369.775 494.804,380.075 490.977,390.328 486.63,393.778 480.582,398.644 476.66,404.834 472.643,411.26 470.092,420.379 468.864,424.773 460.264,432.617 451.854,440.319 451.003,444.288 450.058,448.682 446.798,451.8 444.955,453.549 441.411,456.715 434.465,465.172 428.465,469.377 422.842,473.252 414.195,475.992 408.573,477.788 398.556,477.93 388.113,478.071 383.294,479.395 377.057,481.095 365.055,478.828 350.361,476.087 350.172,476.087 340.769,475.898 334.532,472.59 328.767,469.472 321.822,461.44 317.994,456.998 311.238,453.454 303.394,449.296 299.236,445.564 297.535,444.052 291.865,436.775 286.101,429.404 284.494,427.892 278.541,422.458 276.509,420.521 273.343,417.544 271.784,415.087 268.902,410.599 264.649,393.872 262.617,385.981 256.569,373.413 250.238,360.325 250.002,359.616 247.119,350.024 245.182,341.755 243.386,333.865 242.914,329.14 242.253,322.95 242.016,305.798 242.015,305.68 242.016,305.562 241.782,284.906 242.111,250.704 L242.442,220.417 Q250.474,193.012 252.364,183.09 253.923,175.01 255.671,170.474 257.798,164.946 261.814,159.937 267.484,152.85 285.912,128.752 289.077,124.689 296.59,117.271 300.795,113.16 309.064,105.08 313.883,100.213 319.365,97.804 322.672,96.339 330.327,93.74 333.303,92.606 334.579,93.173 335.619,93.598 336.186,95.536 336.516,96.622 337.32,99.457 338.312,102.009 340.249,103.663 341.808,104.986 349.652,114.247 355.7,121.429 360.141,123.082 363.969,124.5 378.663,130.689 392.508,136.123 397.469,135.84 402.761,135.509 410.037,126.91 415.613,120.389 418.731,114.105 420.952,109.663 425.535,106.309 430.355,102.718 434.796,102.718 438.34,102.718 443.065,107.159 450.2,113.869 452.751,115.522 458.705,119.397 472.077,130.548 485.307,141.557 489.606,146.235 493.434,150.393 504.254,177.325 513.987,201.564 517.484,213.33 521.264,226.087 530.241,259.162 531.092,256.327 531.895,252.5 533.549,244.798 533.549,239.79 533.549,235.679 537.518,223.772 539.597,217.582 540.495,213.944 M408.809,241.68 Q414.715,237.994 427.662,232.891 441.033,227.599 447.554,226.56 452.042,225.851 465.698,223.63 477.841,222.118 482.046,224.197 486.015,226.182 490.079,232.182 495.229,239.742 495.276,239.79 M435.741,248.484 Q436.828,266.486 449.444,268.14 457.24,269.179 462.249,267.62 466.785,266.203 469.761,262.47 472.124,259.54 473.683,254.248 L474.77,249.523 Q466.596,244.034 462.201,243.57 452.09,242.53 435.883,248.436 435.812,248.462 435.741,248.484 430.567,250.406 425.346,252.831 L421.094,254.91 M474.77,249.523 Q475.735,250.173 476.754,250.894 486.535,257.839 489.134,258.217 M470.706,274.282 Q475.242,273.81 478.786,272.345 483.464,270.36 484.409,267.195 M242.016,305.562 Q245.607,308.822 248.111,313.925 249.671,316.996 252.836,324.415 254.254,327.439 255.105,334.242 255.719,339.676 259.452,344.732 262.712,349.174 266.823,352.434 270.508,355.316 273.154,359.38 274.146,360.891 278.966,371.57 281.801,377.901 285.439,378.752 286.479,378.988 294.653,382.768 300.228,385.367 303.867,383.95 305.757,383.194 308.166,383.288 309.537,383.335 312.324,383.524 317.711,383.666 323.239,379.225 328.059,375.35 337.65,371.948 345.966,369.018 347.809,366.467 349.085,364.719 350.691,364.672 351.778,364.672 353.904,365.569 359.102,367.837 362.504,366.467 366.048,365.049 374.505,361.553 382.113,358.954 387.546,359.852 391.326,360.466 401.013,364.482 409.895,368.121 414.479,368.357 418.4,368.593 425.252,374.169 431.253,379.083 435.269,377.807 437.726,377.051 440.277,377.76 441.317,378.043 444.482,379.602 449.633,382.012 453.696,379.225 456.106,377.571 459.461,376.72 461.398,376.248 465.083,375.586 471.557,374.074 474.014,368.357 477.179,360.986 479.873,356.45 482.472,352.008 486.771,346.622 488.378,344.59 496.221,337.833 501.75,333.061 502.836,328.667 503.923,324.367 507.514,319.831 512.05,314.02 513.231,311.657 514.885,308.35 516.775,303.861 518.429,300.884 521.736,300.27 525.233,299.655 525.752,301.545 525.989,302.349 525.516,307.405 525.233,310.665 523.674,313.122 L522.209,314.965 M460.784,250.185 L464.564,251.13 M435.741,289.875 Q439.947,293.04 446.42,293.702 452.846,294.364 457.476,292.237 M423.456,263.415 Q426.858,271.117 433.851,274.282 M395.106,334.951 Q396.713,339.582 399.831,339.062 L404.982,337.219 Q410.274,334 411.171,332.92 412.069,330.84 412.164,327.202 L412.116,323.942 M395.106,334.951 Q395.059,332.4 394.398,328.714 L393.689,325.359 394.445,332.589 Q394.728,333.912 395.106,334.951 395.106,335.14 395.106,335.282 395.106,338.637 392.886,342.275 390.429,346.197 385.656,349.93 380.412,354.04 373.844,353.71 366.662,353.331 359.196,347.567 352.865,342.7 350.266,332.683 348.282,325.17 348.754,316.855 349.037,311.657 353.621,296.868 358.488,281.842 359.196,279.007 360.141,275.464 360.236,263.557 360.141,251.13 360.141,248.767 360.141,243.853 358.015,238.609 355.18,231.757 350.172,229.867 347.1,228.733 340.532,227.977 334.437,227.269 328.437,224.67 320.121,221.031 307.599,218.905 294.795,216.685 289.219,218.055 283.785,219.425 277.17,223.772 271.028,227.883 266.539,232.702 M338.359,404.267 Q342.517,401.621 348.093,400.015 354.141,398.266 359.196,398.597 361.937,398.786 368.126,401.007 373.324,402.897 378.096,402.377 381.876,401.952 388.964,399.448 395.248,397.18 399.831,397.18 405.69,397.18 410.84,399.542 414,401.479 418.259,404.739 M323.712,408.047 Q325.885,402.188 329.807,396.943 331.555,394.628 336.942,388.674 339.54,385.792 344.643,384.611 350.644,383.146 353.007,381.587 356.22,379.461 362.645,379.225 370.064,378.988 371.954,378.28 374.458,377.382 383.105,378.516 392.177,379.744 396.051,378.752 400.446,377.665 407.155,382.249 415.329,387.824 416.841,388.202 419.818,388.958 425.393,393.305 431.442,397.983 434.324,399.07 437.773,400.393 437.773,407.763 437.773,412.583 437.773,412.961 437.962,415.465 439.049,416.08 442.356,417.97 443.301,420.285 444.577,423.309 440.466,425.53 439.758,425.907 427.52,431.483 418.637,435.547 416.369,437.815 415.235,438.948 414.195,441.311 L412.494,445.28 Q410.132,449.721 405.029,449.155 398.886,448.493 394.35,448.729 390.239,448.965 386.129,450.1 376.254,452.793 372.993,453.36 363.165,455.013 360.141,451.989 349.888,441.878 343.557,437.815 341.1,436.255 337.65,430.633 334.437,425.34 331.744,424.112 328.626,422.695 327.539,420.852 326.547,418.442 325.129,416.552 323.381,414.19 323.381,410.882 L323.712,408.047Z M241.497,212.857 Q236.299,205.911 228.172,205.581 220.14,205.297 218.344,211.44 217.116,215.645 223.353,229.206 230.157,243.901 230.157,248.767 230.157,253.965 230.393,272.203 230.393,288.977 229.211,294.6 227.936,300.742 230.204,302.869 231,304.522 235.826,303.625 M341.667,250.185 Q332.755,245.728 329.547,244.231 L329.948,245.318 Q330.232,247.302 329.382,251.602 328.248,257.509 324.326,260.485 319.506,264.218 310.009,263.887 300.984,263.557 296.684,257.698 294.039,253.965 292.857,246.806 281.618,251.138 278.824,254.91 M329.547,244.231 Q329.004,243.974 328.626,243.806 319.979,239.979 316.624,240.262 313.931,240.498 307.316,242.247 299.661,244.278 293.188,246.688 293.02,246.753 292.857,246.806 M317.569,246.405 L319.932,246.877 M331.272,272.865 Q334.674,271.353 337.131,268.187 339.777,264.738 339.777,261.052 M276.462,263.415 Q279.202,268.943 283.833,272.818 288.274,276.503 292,277.59 M292.527,286.095 Q297.441,290.395 299.52,291.245 304.906,293.419 312.844,290.347 M372.426,388.202 Q380.931,389.62 385.184,389.62 M372.899,410.41 Q376.537,409.937 377.577,409.984 379.797,410.079 383.294,411.355" test="JeanRenoFace"/>
      </g>
      <g id="TearAnimf0r1">
        <g id="TearGraphic">
          <path id="Layer5_0_1_STROKES" stroke="#0FF" stroke-width="1" stroke-linejoin="round" stroke-linecap="round" fill="none" d="M314.345,263.546 Q314.336,263.923 314.245,264.183 314.141,264.46 313.831,264.902 313.517,265.352 313.699,265.943 313.881,266.549 314.386,266.567 314.882,266.585 315.11,266.144 315.296,265.784 315.26,265.279 315.242,265.029 314.887,264.515 314.5,263.951 314.386,263.4" test="TearGraphic" vector-effect="non-scaling-stroke"/>
        </g>
      </g>
    </g>
    <g id="BlackMaskRect">
      <path fill="#000" stroke="none" d="M823.45,613.6 L823.45,508.3 -23.6,508.3 -23.6,613.6 823.45,613.6Z" test="BlackMaskRect"/>
    </g>
  </g>
</svg>