<?xml version="1.0" encoding="utf-8"?>
<svg id="EdithAnim06" image-rendering="inherit" baseProfile="basic" version="1.1" x="0px" y="0px" width="800" height="600" xmlns="http://www.w3.org/2000/svg" xmlns:xlink="http://www.w3.org/1999/xlink">
  <g id="Jean-Renof86r1" overflow="visible">
    <g id="Bec-nom-Jean">
      <path id="Layer3_0_1_STROKES" stroke="#F90" stroke-width="1.796" stroke-linejoin="round" stroke-linecap="round" fill="none" d="M1043.9,598.741 Q1043.72,598.607 1043.541,598.472 M1011.168,643.148 Q1011.976,651.05 1011.886,660.165 1011.796,669.01 1010.943,673.68 M1062.084,579.659 Q1059.794,579.973 1058.896,580.153 1058.582,580.288 1058.358,580.288" test="Bec nom Jean"/>
      <path id="Layer3_0_2_STROKES" stroke="#FFF" stroke-width="1.796" stroke-linejoin="round" stroke-linecap="round" fill="none" d="M1008.519,386.858 Q1008.114,382.503 1008.474,380.348 1009.012,377.34 1011.213,375.633 1013.862,373.613 1018.217,374.376 1022.887,375.229 1024.323,378.866 M1008.384,429.603 Q1006.363,433.509 1006.139,437.101 1005.921,440.517 1007.419,442.355 1007.447,442.4 1007.486,442.445 1010.764,446.351 1016.017,446.351 1020.686,446.306 1025.087,443.387 M956.39,452.727 Q962.047,449.898 966.043,450.616 969.276,451.155 973.003,454.523 974.305,455.69 975.023,456.813 L979.917,456.274 Q985.53,455.466 989.301,454.074 995.094,451.918 1000.032,448.955 1004.462,446.284 1006.408,443.904 1007.048,443.109 1007.419,442.355 M951.361,421.88 Q950.149,412.541 955.492,409.084 958.635,407.063 962.945,407.916 966.717,408.635 969.86,411.104 M975.023,456.813 Q976.017,458.318 976.28,460 976.425,460.981 976.325,462.021 976.101,464.49 974.35,467.993" test="Bec nom Jean"/>
      <path id="Layer3_0_3_STROKES" stroke="#FEB7AE" stroke-width="1.796" stroke-linejoin="round" stroke-linecap="round" fill="none" d="M1035.908,358.751 Q1041.296,367.013 1045.83,375.319 1059.239,399.939 1060.513,416.852 1060.582,417.763 1060.603,419.052 1060.917,437.461 1054.496,449.404 1049.916,457.89 1041.296,463.952 1029.666,472.079 1021.899,475.311 1006.274,481.732 987.371,480.565 972.868,479.667 963.394,477.062 955.402,474.817 950.418,471.091 M1012.29,480.834 Q1013.637,482.63 1014.76,484.875 M1073.624,537.184 Q1070.615,535.028 1067.248,532.828 1060.513,528.518 1058.672,528.563 1056.741,528.608 1055.843,529.91 1055.215,530.853 1055.215,532.02 1055.215,534.624 1055.709,536.779 1056.337,539.473 1057.549,540.551 1059.345,542.123 1059.031,542.033 1056.247,541.18 1052.835,540.416 1046.01,538.89 1042.732,539.294 1037.479,539.967 1033.663,546.164 1031.822,549.127 1033.169,553.392 1034.336,557.119 1036.581,558.825 1038.916,560.576 1042.149,562.013 1046.1,563.764 1049.243,563.899 1054.047,564.124 1061.95,562.552 M1041.7,581.186 L1046.773,577.638 Q1052.431,573.957 1055.215,573.104 1060.378,571.577 1061.456,571.442 1064.509,571.038 1065.542,573.104 1066.529,575.079 1063.207,577.638 1061.501,578.896 1058.896,580.153 M1062.084,579.659 Q1067.607,579.569 1071.828,582.084 L1077.575,585.361 Q1083.232,589.268 1082.828,592.635 1082.289,596.856 1079,599 1077.575,603.366 1074.297,603.86 1069.762,604.534 1065.497,604.309 1059.929,603.995 1058.582,602.064 1058.178,601.48 1055.888,600.717 1054.721,600.313 1051.129,599.325 1049.512,598.876 1046.908,599.056 1044.663,599.19 1043.9,598.741 M1027.556,477.916 L1025.311,474.324" test="Bec nom Jean"/>
      <path id="Layer3_0_4_STROKES" stroke="#00F" stroke-width="1.796" stroke-linejoin="round" stroke-linecap="round" fill="none" d="M1064.329,423.317 L1079.146,449.898 1094.727,433.869 Q1092.392,430.187 1088.845,423.093 1081.75,408.949 1075.869,392.112 1069.717,374.556 1054.541,357.179 1047.178,348.738 1029.173,332.35 1018.935,323.011 1000.481,319.868 984.317,317.129 973.452,320.227 954.369,325.66 945.075,329.835 924.421,338.995 914.633,352.6 900.848,371.682 895.146,386.185 887.603,405.402 892.183,420.399 897.256,436.967 917.057,468.127 936.903,499.333 945.614,504.362 952.932,508.582 968.647,508.897 976.505,509.076 982.881,508.403 L950.418,471.091 Q947.23,468.756 944.716,465.299 940.899,460.09 929.719,442.13 918.449,423.991 919.123,423.991 L938.834,408.545 Q960.925,391.618 973.003,384.03 985.081,376.442 1009.461,363.555 1021.629,357.09 1031.418,352.151 L1035.908,358.751" test="Bec nom Jean"/>
      <path id="Layer3_0_5_STROKES" stroke="#0FF" stroke-width="1.796" stroke-linejoin="round" stroke-linecap="round" fill="none" d="M1072.007,542.527 L1070.211,545.804 Q1068.55,550.07 1069.089,554.874 1069.672,559.858 1070.256,560.262 1070.885,560.711 1074.926,561.609 1078.877,563.226 1095.176,563.854 1110.397,564.438 1118.075,563.675 1126.471,562.866 1134.732,561.295 1144.745,559.409 1147.484,557.568 1150.313,555.682 1155.611,547.151 1160.64,539.069 1161.179,536.241 1161.717,533.636 1159.787,527.799 1157.766,521.648 1153.995,515.138 1150.582,509.211 1139.941,501.668 1132.039,496.1 1124.361,492.239 1118.12,489.141 1104.964,484.112 1090.596,478.589 1086.42,478.14 1079.416,477.736 1075.42,477.511 1068.101,477.107 1064.419,475.895 1060.423,474.548 1055.349,474.368 1053.194,474.279 1045.965,474.548 L1038.108,474.773 1039.051,477.422 Q1039.859,480.43 1039.455,481.957 1039.006,483.618 1036.312,485.279 1034.875,486.177 1030.475,488.243 1025.132,490.757 1022.078,491.924 1016.601,493.99 1014.535,493.406 1012.245,492.733 1010.135,491.341 1008.114,490.039 1006.902,488.467 M982.881,556.491 L987.371,573.104 M1043.9,598.741 Q1043.9,598.697 1043.945,598.697 1042.149,582.533 1041.7,581.186 1041.385,580.198 1031.597,579.12 1022.078,578.043 1014.76,578.043 1012.156,578.043 992.669,576.247 976.46,574.765 972.554,575.798 968.647,576.83 969.68,574.855 971.476,571.487 971.207,570.859 970.758,569.691 977.987,560.307 986.787,548.947 989.167,544.368 994.106,534.939 995.004,532.245 M1001.29,490.937 Q997.832,493.406 994.106,496.1 986.697,501.488 985.575,502.611 M967.166,523.265 Q958.545,535.837 949.789,549.082 932.278,575.573 931.695,578.941 930.976,583.206 940.226,590.21 949.834,597.529 959.533,599.146 968.333,600.627 997.743,600.852 1022.438,601.031 1032.271,600.493 1037.614,600.223 1041.296,599.415 1043.136,599.056 1043.9,598.741 M999.045,603.86 L1004.702,619.485 Q1010.449,636.413 1011.168,643.148 L1031.597,645.033 Q1053.374,646.65 1060.109,645.393 1071.154,643.327 1082.918,639.78 1098.633,635.066 1106.401,630.127 1112.238,626.445 1121.128,621.326 1127.279,617.599 1127.953,615.085 1128.851,611.852 1128.671,606.105 1128.491,599.819 1127.055,593.758 1125.797,588.414 1122.385,576.426 L1119.197,565.471 M1103.931,521.648 L1109.544,531.975 M1078.742,505.933 L1101.956,515.856 Q1125.304,526.183 1126.157,528.159 1128.851,534.445 1126.157,535.792 1125.079,536.33 1115.201,535.792 1104.694,535.208 1101.911,535.792 1098.992,536.375 1093.694,536.779 1087.857,537.184 1085.477,537.588 1082.334,538.126 1079.91,539.429 1077.53,540.686 1077.171,540.731" test="Bec nom Jean"/>
    </g>
    <g id="Jean-Reno-body">
      <path id="Layer2_0_1_STROKES" stroke="#FEB7AE" stroke-width="1.89" stroke-linejoin="round" stroke-linecap="round" fill="none" d="M499.845,314.317 Q505.987,320.46 544.307,326.602 570.058,330.76 597.227,333.217 604.503,333.879 647.076,342.573 683.411,349.944 689.837,348.337 699.618,345.88 707.083,342.903 716.58,339.076 725.747,333.217 734.866,327.358 747.057,325.563 757.263,324.003 765.484,325.657 771.39,326.838 777.06,328.728 779.895,329.673 781.549,330.382 779.895,330.855 778.005,331.847 774.32,333.879 773.422,336.666 772.524,339.454 775.596,342.289 777.155,343.659 778.856,344.51 776.966,345.266 775.265,346.636 771.816,349.377 772.713,352.306 773.611,355.283 779.281,356.559 782.116,357.22 784.762,357.267 L785.802,363.315 Q787.266,369.647 789.487,370.97 791.708,372.293 797.094,369.741 799.788,368.513 802.008,366.954 L803.804,370.97 Q806.261,374.892 809.805,374.277 813.348,373.71 816.325,370.639 817.79,369.08 818.546,367.662 L821.995,369.08 Q825.681,370.261 826.862,369.08 828.043,367.899 828.988,364.591 L829.697,361.52 831.965,374.466 Q834.044,388.263 833.004,392.232 832.91,392.563 831.918,397.43 831.209,400.879 830.311,403.147 827.665,409.904 820.908,413.495 M753.105,368.135 Q761.326,366.15 772.572,368.088 788.967,370.875 797.52,381.837 800.827,386.09 807.726,394.831 813.632,402.533 816.939,408.723 825.87,425.449 822.326,442.554 818.829,459.375 809.474,474.825 805.174,481.913 796.811,492.166 794.448,495.048 785.66,501.947 775.218,510.121 762.507,518.343 727.023,541.353 694.751,551.276 L679.017,556.119 Q681.656,559.42 683.789,570.081 685.962,580.949 685.065,586.95 684.309,592.053 687.002,595.455 687.711,596.4 691.207,598.998 693.995,601.077 698.2,607.692 703.634,616.197 702.547,621.206 701.413,626.64 696.499,631.884 692.058,636.562 688.136,637.743 685.206,638.641 679.631,638.736 L674.67,638.688 681.096,640.011 Q688.325,642.327 692.625,647.193 698.2,653.525 700.468,657.966 703.114,663.069 701.602,666.093 700.563,668.22 697.775,674.646 694.326,680.599 687.9,683.576 681.899,686.364 668.811,683.292 662.243,681.544 659.455,680.835 654.73,679.654 652.935,679.796 650.572,679.985 632.003,684.71 613.197,689.529 606.63,690.191 599.731,690.9 591.462,687.403 587.588,685.608 586.029,684.993 583.477,683.907 582.296,684.048 578.516,684.237 576.579,684.474 573.224,684.946 570.72,686.883 567.885,689.057 564.01,688.112 560.325,687.214 559.38,684.757 558.293,681.969 558.387,680.316 558.529,678 560.797,676.252 562.876,674.646 566.184,674.079 567.837,673.842 569.066,673.89 568.168,672.85 567.554,671.48 566.325,668.739 567.648,667.275 569.113,665.668 572.94,664.865 576.153,664.203 578.752,664.44 579.886,664.534 577.335,662.739 574.169,660.518 575.208,659.478 576.437,658.25 579.603,658.344 581.067,658.392 584.658,659.006 585.887,659.195 587.871,660.612 589.289,661.652 590.328,661.132 593.636,659.478 598.077,657.399 604.881,654.234 607.575,653.336 611.827,651.918 616.08,650.973 M511.846,315.404 Q516.004,313.419 530.888,304.536 544.874,296.646 549.882,296.504 562.876,296.126 566.892,296.504 579.697,297.685 591.51,303.591 616.836,316.254 620.474,318.144 636.681,326.744 643.721,332.414 650.525,337.895 656.195,341.155 659.03,342.809 660.495,343.329 M489.166,379.428 Q489.166,375.364 490.158,370.356 492.19,360.291 497.199,355.566 507.735,345.644 521.296,347.77 526.494,348.573 536.652,354.81 546.008,360.528 548.465,363.599 550.402,366.009 555.222,366.906 558.907,367.615 563.821,367.379 566.467,367.284 580.406,366.292 593.825,365.536 597.652,366.434 603.984,367.899 618.631,372.86 635.405,378.577 638.523,381.081 640.886,382.971 648.918,389.964 656.431,396.201 659.313,397.383 662.621,398.706 663.141,399.603 663.471,400.218 662.857,402.391 662.621,403.242 663.141,409.526 663.66,416.377 662.857,421.764 661.865,428.426 656.762,445.861 651.942,462.304 649.391,468.541 647.312,473.691 640.744,485.126 634.743,495.568 632.617,498.309 631.152,500.246 627.845,504.168 L624.821,507.759 629.357,508.515 Q634.46,509.507 637.106,510.83 639.232,511.917 643.863,514.09 647.737,516.358 649.863,519.807 652.651,524.343 653.313,526.611 654.163,529.588 653.171,533.037 652.179,536.439 649.816,540.078 647.879,543.054 645.611,545.322 642.54,548.394 640.65,549.906 637.295,552.599 634.98,552.882 631.908,553.308 630.491,553.166 628.317,552.93 624.585,551.465 621.561,550.284 619.434,547.827 616.458,544.425 614.426,542.96 611.591,540.881 610.126,537.951 608.283,534.171 606.393,532.092 603.275,528.643 601.243,527.415 599.778,526.564 596.943,525.95 594.675,525.477 594.297,525.572 592.927,526.186 590.565,527.131 586.312,529.305 584.706,529.919 582.107,530.864 580.642,528.785 578.327,525.572 577.949,524.485 577.193,522.359 578.28,519.335 579.603,515.744 580.122,515.035 580.926,514.043 583.95,512.72 588.486,510.688 594.581,512.72 595.242,512.956 594.581,509.507 592.88,500.246 592.833,500.01 590.187,483.283 592.691,469.959 595.006,457.815 601.149,439.246 606.11,424.268 605.685,422.709 605.165,420.771 591.321,421.338 575.917,422 573.555,421.055 570.909,420.015 556.072,415 542.228,412.219 541.377,411.605 M468.612,389.87 Q481.842,402.202 489.261,407.447 509.011,421.48 533.109,428.379 556.734,435.183 578.988,442.506 590.092,446.145 596.471,448.46 M625.482,645.776 Q624.49,641.618 606.582,609.299 588.344,576.318 586.974,572.066 584.233,563.466 582.107,553.308 579.508,540.928 580.595,538.235 581.682,535.636 584.658,532.943 586.596,531.147 588.864,529.73 M615.796,641.051 Q614.52,641.996 612.536,642.894 608.661,644.736 605.401,644.595 602.046,644.453 595.857,641.996 591.368,640.2 588.627,638.688 587.635,638.121 586.879,635.995 586.218,634.2 585.084,634.2 583.95,634.2 581.493,636.326 578.705,638.736 577.524,639.161 575.728,639.822 572.137,638.877 568.971,638.027 567.129,636.798 565.664,635.853 565.286,633.68 565.05,632.168 565.239,629.002 565.38,626.687 566.703,625.317 566.751,625.222 569.727,622.86 571.192,621.678 572.751,621.206 573.507,620.97 573.98,620.97 M582.249,621.442 Q582.06,620.639 582.296,619.599 582.674,617.52 584.611,616.481 586.548,615.441 589.856,615.772 591.699,615.961 594.77,616.481 596.14,616.623 598.692,617.757 601.101,618.843 601.857,618.843 M616.08,658.297 Q608.945,662.03 601.149,665.81 585.651,673.464 582.532,673.89 579.414,674.315 576.059,674.173 L573.318,673.89 M679.017,556.119 L678.969,556.143 Q660.495,561.813 660.069,561.813 659.975,561.813 664.322,578.019 668.574,596.069 667.818,604.668 L666.023,624.419 Q664.653,644.831 666.873,648.375" test="Jean Reno body"/>
    </g>
    <g id="Jean-Renof0r1">
      <g id="JeanRenoFace">
        <path fill="#000" stroke="none" d="M433.835,109.809 Q429.252,113.163 427.031,117.605 423.913,123.889 418.337,130.409 411.061,139.009 405.769,139.34 400.808,139.623 386.963,134.189 372.269,128 368.441,126.582 364,124.929 357.952,117.747 350.108,108.486 348.549,107.163 346.612,105.509 345.62,102.957 344.816,100.122 344.486,99.036 343.919,97.098 342.879,96.673 341.603,96.106 338.627,97.24 330.972,99.839 327.665,101.304 322.184,103.713 317.364,108.58 309.095,116.66 304.89,120.771 297.377,128.189 294.212,132.252 275.784,156.35 270.114,163.437 266.098,168.446 263.972,173.974 262.223,178.51 260.664,186.59 258.774,196.512 250.742,223.917 L250.411,254.204 Q250.082,288.406 250.316,309.062 253.907,312.322 256.412,317.425 257.971,320.496 261.136,327.915 262.554,330.939 263.405,337.742 264.019,343.176 267.751,348.232 271.012,352.674 275.123,355.934 278.808,358.816 281.454,362.88 282.446,364.391 287.266,375.07 290.101,381.401 293.739,382.252 294.779,382.488 302.953,386.268 308.528,388.867 312.167,387.45 314.057,386.694 316.466,386.788 317.837,386.835 320.624,387.024 326.011,387.166 331.539,382.725 336.359,378.85 345.95,375.448 354.266,372.518 356.109,369.967 357.385,368.219 358.991,368.172 360.078,368.172 362.204,369.069 367.402,371.337 370.804,369.967 374.348,368.549 382.805,365.053 390.413,362.454 395.846,363.352 399.626,363.966 409.313,367.982 418.196,371.621 422.779,371.857 426.701,372.093 433.552,377.669 439.553,382.583 443.569,381.307 446.026,380.551 448.577,381.26 449.617,381.543 452.783,383.102 457.933,385.512 461.996,382.725 464.406,381.071 467.761,380.22 469.698,379.748 473.384,379.086 479.857,377.574 482.314,371.857 485.48,364.486 488.173,359.95 490.772,355.508 495.071,350.122 496.678,348.09 504.521,341.333 510.049,336.561 511.136,332.167 512.223,327.867 515.814,323.331 520.35,317.52 521.531,315.157 523.185,311.85 525.075,307.361 526.729,304.384 530.036,303.77 533.533,303.155 534.053,305.045 534.289,305.849 533.816,310.905 533.533,314.165 531.974,316.622 L530.509,318.465 531.974,316.622 Q533.533,314.165 533.816,310.905 534.289,305.849 534.053,305.045 533.533,303.155 530.036,303.77 526.729,304.384 525.075,307.361 523.185,311.85 521.531,315.157 520.35,317.52 515.814,323.331 512.223,327.867 511.136,332.167 510.049,336.561 504.521,341.333 496.678,348.09 495.071,350.122 490.772,355.508 488.173,359.95 485.48,364.486 482.314,371.857 479.857,377.574 473.384,379.086 469.698,379.748 467.761,380.22 464.406,381.071 461.996,382.725 457.933,385.512 452.783,383.102 449.617,381.543 448.577,381.26 446.026,380.551 443.569,381.307 439.553,382.583 433.552,377.669 426.701,372.093 422.779,371.857 418.196,371.621 409.313,367.982 399.626,363.966 395.846,363.352 390.413,362.454 382.805,365.053 374.348,368.549 370.804,369.967 367.402,371.337 362.204,369.069 360.078,368.172 358.991,368.172 357.385,368.219 356.109,369.967 354.266,372.518 345.95,375.448 336.359,378.85 331.539,382.725 326.011,387.166 320.624,387.024 317.837,386.835 316.466,386.788 314.057,386.694 312.167,387.45 308.528,388.867 302.953,386.268 294.779,382.488 293.739,382.252 290.101,381.401 287.266,375.07 282.446,364.391 281.454,362.88 278.808,358.816 275.123,355.934 271.012,352.674 267.751,348.232 264.019,343.176 263.405,337.742 262.554,330.939 261.136,327.915 257.971,320.496 256.412,317.425 253.907,312.322 250.316,309.062 250.315,309.18 250.316,309.298 250.553,326.45 251.214,332.64 251.687,337.365 253.482,345.255 255.419,353.524 258.302,363.116 258.538,363.825 264.869,376.913 270.917,389.481 272.949,397.372 277.202,414.099 280.084,418.587 281.643,421.044 284.809,424.021 286.841,425.958 292.794,431.392 294.401,432.904 300.165,440.275 305.835,447.552 307.536,449.064 311.694,452.796 319.538,456.954 326.294,460.498 330.122,464.94 337.067,472.972 342.832,476.09 349.069,479.398 358.472,479.587 358.661,479.587 373.355,482.328 385.357,484.595 391.594,482.895 396.413,481.571 406.856,481.43 416.873,481.288 422.495,479.492 431.142,476.752 436.765,472.877 442.766,468.672 449.711,460.215 453.255,457.049 455.098,455.3 458.358,452.182 459.303,447.788 460.154,443.819 468.564,436.117 477.164,428.273 478.392,423.879 480.944,414.76 484.96,408.334 488.882,402.144 494.929,397.278 499.277,393.828 503.104,383.575 506.978,373.275 509.813,370.865 514.727,366.754 517.326,359.147 519.5,351.02 520.586,348.232 525.926,334.34 529.942,325.032 L532.871,318.465 533.486,320.307 Q535.139,322.292 540.431,323.19 545.959,324.135 549.881,319.787 552.48,316.858 553.661,312.795 553.945,311.755 552.007,301.596 549.834,290.256 550.354,281.562 550.968,271.687 555.599,261.198 557.914,255.858 563.631,246.125 567.553,239.462 568.356,234.218 569.301,227.933 565.994,222.972 561.505,216.216 559.426,215.129 555.599,213.097 548.795,217.444 547.897,221.082 545.818,227.272 541.849,239.179 541.849,243.29 541.849,248.298 540.195,256 539.392,259.827 538.541,262.662 529.564,229.587 525.784,216.83 522.287,205.064 512.554,180.825 501.734,153.893 497.906,149.735 493.607,145.057 480.376,134.048 467.005,122.897 461.051,119.022 458.5,117.369 451.365,110.659 446.64,106.218 443.096,106.218 438.655,106.218 433.835,109.809 M498.379,235.682 Q503.529,243.242 503.576,243.29 503.529,243.242 498.379,235.682 494.315,229.682 490.346,227.697 486.141,225.618 473.998,227.13 460.343,229.351 455.854,230.06 449.333,231.099 435.962,236.391 423.015,241.494 417.109,245.18 423.015,241.494 435.962,236.391 449.333,231.099 455.854,230.06 460.343,229.351 473.998,227.13 486.141,225.618 490.346,227.697 494.315,229.682 498.379,235.682 M483.07,253.023 L481.983,257.748 Q480.424,263.04 478.061,265.97 475.085,269.703 470.549,271.12 465.54,272.679 457.744,271.64 445.128,269.986 444.041,251.984 438.867,253.906 433.646,256.331 L429.394,258.41 433.646,256.331 Q438.867,253.906 444.041,251.984 444.112,251.962 444.183,251.936 460.39,246.03 470.501,247.07 474.895,247.534 483.07,253.023 484.035,253.673 485.054,254.394 494.835,261.339 497.434,261.717 494.835,261.339 485.054,254.394 484.035,253.673 483.07,253.023 M487.086,275.845 Q491.764,273.86 492.709,270.695 491.764,273.86 487.086,275.845 483.542,277.31 479.006,277.782 483.542,277.31 487.086,275.845 M454.72,297.202 Q461.146,297.864 465.776,295.737 461.146,297.864 454.72,297.202 448.246,296.54 444.041,293.375 448.246,296.54 454.72,297.202 M431.756,266.915 Q435.158,274.617 442.151,277.782 435.158,274.617 431.756,266.915 M420.464,330.702 L420.416,327.442 420.464,330.702 Q420.369,334.34 419.471,336.42 418.574,338.499 413.282,340.719 L408.131,342.562 Q405.013,343.082 403.406,338.451 403.406,338.64 403.406,338.782 403.406,342.137 401.186,345.775 398.729,349.697 393.956,353.43 388.712,357.54 382.144,357.21 374.962,356.831 367.496,351.067 361.165,346.2 358.566,336.183 356.582,328.67 357.054,320.355 357.338,315.157 361.921,300.368 366.788,285.342 367.496,282.507 368.441,278.964 368.536,267.057 368.441,254.63 368.441,252.267 368.441,247.353 366.315,242.109 363.48,235.257 358.472,233.367 355.4,232.233 348.833,231.477 342.737,230.769 336.737,228.17 328.421,224.531 315.899,222.405 303.095,220.185 297.519,221.555 292.085,222.925 285.47,227.272 279.328,231.383 274.839,236.202 279.328,231.383 285.47,227.272 292.085,222.925 297.519,221.555 303.095,220.185 315.899,222.405 328.421,224.531 336.737,228.17 342.737,230.769 348.833,231.477 355.4,232.233 358.472,233.367 363.48,235.257 366.315,242.109 368.441,247.353 368.441,252.267 368.441,254.63 368.536,267.057 368.441,278.964 367.496,282.507 366.788,285.342 361.921,300.368 357.338,315.157 357.054,320.355 356.582,328.67 358.566,336.183 361.165,346.2 367.496,351.067 374.962,356.831 382.144,357.21 388.712,357.54 393.956,353.43 398.729,349.697 401.186,345.775 403.406,342.137 403.406,338.782 403.406,338.64 403.406,338.451 403.028,337.412 402.745,336.089 L401.989,328.859 402.698,332.214 Q403.359,335.9 403.406,338.451 405.013,343.082 408.131,342.562 L413.282,340.719 Q418.574,338.499 419.471,336.42 420.369,334.34 420.464,330.702 M425.141,391.702 Q428.118,392.458 433.694,396.805 439.742,401.483 442.624,402.57 446.073,403.893 446.073,411.263 446.073,416.083 446.073,416.461 446.262,418.965 447.349,419.58 450.656,421.47 451.601,423.785 452.877,426.809 448.766,429.03 448.058,429.407 435.82,434.983 426.937,439.047 424.669,441.315 423.535,442.448 422.495,444.811 L420.794,448.78 Q418.432,453.221 413.329,452.655 407.186,451.993 402.65,452.229 398.54,452.465 394.429,453.6 384.554,456.293 381.293,456.86 371.465,458.513 368.441,455.489 358.188,445.378 351.857,441.315 349.4,439.755 345.95,434.133 342.737,428.84 340.044,427.612 336.926,426.195 335.839,424.352 334.847,421.942 333.429,420.052 331.681,417.69 331.681,414.382 L332.012,411.547 Q334.185,405.688 338.107,400.443 339.855,398.128 345.242,392.174 347.84,389.292 352.943,388.111 358.944,386.646 361.307,385.087 364.52,382.961 370.946,382.725 378.364,382.488 380.254,381.78 382.758,380.882 391.405,382.016 400.477,383.244 404.351,382.252 408.746,381.165 415.455,385.749 423.629,391.324 425.141,391.702 M349.967,253.685 Q341.055,249.228 337.823,247.731 L338.249,248.818 Q338.532,250.802 337.682,255.102 336.548,261.009 332.626,263.985 327.806,267.718 318.309,267.387 309.284,267.057 304.985,261.198 302.339,257.465 301.157,250.283 289.918,254.638 287.124,258.41 289.918,254.638 301.157,250.283 301.32,250.253 301.488,250.188 307.961,247.778 315.616,245.747 322.231,243.998 324.924,243.762 328.279,243.479 336.926,247.306 337.304,247.474 337.823,247.731 341.055,249.228 349.967,253.685 M345.431,271.687 Q348.077,268.238 348.077,264.552 348.077,268.238 345.431,271.687 342.974,274.853 339.572,276.365 342.974,274.853 345.431,271.687 M292.133,276.318 Q296.574,280.003 301.299,281.09 296.574,280.003 292.133,276.318 287.502,272.443 284.762,266.915 287.502,272.443 292.133,276.318 M300.827,289.595 Q305.741,293.895 307.82,294.745 313.206,296.919 321.144,293.847 313.206,296.919 307.82,294.745 305.741,293.895 300.827,289.595 M487.937,75.458 Q483.117,74.04 480.991,72.67 478.061,70.875 477.589,67.945 476.691,62.653 484.865,57.692 488.929,55.188 493.181,53.77 489.071,53.298 483.637,53.534 472.769,54.006 466.249,57.55 462.752,59.487 459.776,59.015 457.791,58.731 454.862,56.983 451.412,54.904 449.853,54.384 446.687,53.298 443.096,54.243 437.096,55.802 425.661,50.415 418.952,47.25 418.054,46.872 414.416,45.454 412.856,46.21 409.691,47.817 389.798,46.919 372.221,46.116 363.197,44.793 357.243,43.895 348.313,36.477 L340.517,29.2 341.178,32.46 Q341.887,36.288 341.981,39.311 342.359,48.856 336.737,46.21 331.114,43.564 319.207,43.186 L308.387,43.375 316.136,50.463 Q322.845,57.314 317.837,56.132 312.828,54.951 302.291,59.204 L292.794,63.692 294.968,63.834 Q297.472,64.118 299.126,64.826 304.418,67.047 299.409,72.67 288.778,84.577 283.391,91.476 271.862,106.265 262.082,123.747 254.144,137.922 251.498,171.234 249.844,192.354 250.505,216.688 250.6,221.224 250.742,223.917 258.774,196.512 260.664,186.59 262.223,178.51 263.972,173.974 266.098,168.446 270.114,163.437 275.784,156.35 294.212,132.252 297.377,128.189 304.89,120.771 309.095,116.66 317.364,108.58 322.184,103.713 327.665,101.304 330.972,99.839 338.627,97.24 341.603,96.106 342.879,96.673 343.919,97.098 344.486,99.036 344.816,100.122 345.62,102.957 346.612,105.509 348.549,107.163 350.108,108.486 357.952,117.747 364,124.929 368.441,126.582 372.269,128 386.963,134.189 400.808,139.623 405.769,139.34 411.061,139.009 418.337,130.409 423.913,123.889 427.031,117.605 429.252,113.163 433.835,109.809 438.655,106.218 443.096,106.218 446.64,106.218 451.365,110.659 458.5,117.369 461.051,119.022 467.005,122.897 480.376,134.048 493.607,145.057 497.906,149.735 501.734,153.893 512.554,180.825 522.287,205.064 525.784,216.83 529.564,229.587 538.541,262.662 539.392,259.827 540.195,256 541.849,248.298 541.849,243.29 541.849,239.179 545.818,227.272 547.897,221.082 548.795,217.444 549.503,214.325 549.409,213.05 549.173,210.451 547.897,202.56 546.385,193.583 545.629,187.062 542.936,163.862 542.558,160.082 540.62,141.277 540.904,135.56 541.235,129.134 527.012,108.722 513.31,89.018 504.994,82.593 500.6,79.191 487.937,75.458Z" test="JeanRenoFace" vector-effect="non-scaling-stroke" stroke-width="1"/>
        <path id="Layer4_0_1_STROKES" stroke="#FFF" stroke-width="1.89" stroke-linejoin="round" stroke-linecap="round" fill="none" d="M250.742,223.917 Q250.6,221.224 250.505,216.688 249.844,192.354 251.498,171.234 254.144,137.922 262.082,123.747 271.862,106.265 283.391,91.476 288.778,84.577 299.409,72.67 304.418,67.047 299.126,64.826 297.472,64.118 294.968,63.834 L292.794,63.692 302.291,59.204 Q312.828,54.951 317.837,56.132 322.845,57.314 316.136,50.463 L308.387,43.375 319.207,43.186 Q331.114,43.564 336.737,46.21 342.359,48.856 341.981,39.311 341.887,36.288 341.178,32.46 L340.517,29.2 348.313,36.477 Q357.243,43.895 363.197,44.793 372.221,46.116 389.798,46.919 409.691,47.817 412.856,46.21 414.416,45.454 418.054,46.872 418.952,47.25 425.661,50.415 437.096,55.802 443.096,54.243 446.687,53.298 449.853,54.384 451.412,54.904 454.862,56.983 457.791,58.731 459.776,59.015 462.752,59.487 466.249,57.55 472.769,54.006 483.637,53.534 489.071,53.298 493.181,53.77 488.929,55.188 484.865,57.692 476.691,62.653 477.589,67.945 478.061,70.875 480.991,72.67 483.117,74.04 487.937,75.458 500.6,79.191 504.994,82.593 513.31,89.018 527.012,108.722 541.235,129.134 540.904,135.56 540.62,141.277 542.558,160.082 542.936,163.862 545.629,187.062 546.385,193.583 547.897,202.56 549.173,210.451 549.409,213.05 549.503,214.325 548.795,217.444 555.599,213.097 559.426,215.129 561.505,216.216 565.994,222.972 569.301,227.933 568.356,234.218 567.553,239.462 563.631,246.125 557.914,255.858 555.599,261.198 550.968,271.687 550.354,281.562 549.834,290.256 552.007,301.596 553.945,311.755 553.661,312.795 552.48,316.858 549.881,319.787 545.959,324.135 540.431,323.19 535.139,322.292 533.486,320.307 L532.871,318.465 529.942,325.032 Q525.926,334.34 520.586,348.232 519.5,351.02 517.326,359.147 514.727,366.754 509.813,370.865 506.978,373.275 503.104,383.575 499.277,393.828 494.929,397.278 488.882,402.144 484.96,408.334 480.944,414.76 478.392,423.879 477.164,428.273 468.564,436.117 460.154,443.819 459.303,447.788 458.358,452.182 455.098,455.3 453.255,457.049 449.711,460.215 442.766,468.672 436.765,472.877 431.142,476.752 422.495,479.492 416.873,481.288 406.856,481.43 396.413,481.571 391.594,482.895 385.357,484.595 373.355,482.328 358.661,479.587 358.472,479.587 349.069,479.398 342.832,476.09 337.067,472.972 330.122,464.94 326.294,460.498 319.538,456.954 311.694,452.796 307.536,449.064 305.835,447.552 300.165,440.275 294.401,432.904 292.794,431.392 286.841,425.958 284.809,424.021 281.643,421.044 280.084,418.587 277.202,414.099 272.949,397.372 270.917,389.481 264.869,376.913 258.538,363.825 258.302,363.116 255.419,353.524 253.482,345.255 251.687,337.365 251.214,332.64 250.553,326.45 250.316,309.298 250.315,309.18 250.316,309.062 250.082,288.406 250.411,254.204 L250.742,223.917 Q258.774,196.512 260.664,186.59 262.223,178.51 263.972,173.974 266.098,168.446 270.114,163.437 275.784,156.35 294.212,132.252 297.377,128.189 304.89,120.771 309.095,116.66 317.364,108.58 322.184,103.713 327.665,101.304 330.972,99.839 338.627,97.24 341.603,96.106 342.879,96.673 343.919,97.098 344.486,99.036 344.816,100.122 345.62,102.957 346.612,105.509 348.549,107.163 350.108,108.486 357.952,117.747 364,124.929 368.441,126.582 372.269,128 386.963,134.189 400.808,139.623 405.769,139.34 411.061,139.009 418.337,130.409 423.913,123.889 427.031,117.605 429.252,113.163 433.835,109.809 438.655,106.218 443.096,106.218 446.64,106.218 451.365,110.659 458.5,117.369 461.051,119.022 467.005,122.897 480.376,134.048 493.607,145.057 497.906,149.735 501.734,153.893 512.554,180.825 522.287,205.064 525.784,216.83 529.564,229.587 538.541,262.662 539.392,259.827 540.195,256 541.849,248.298 541.849,243.29 541.849,239.179 545.818,227.272 547.897,221.082 548.795,217.444 M417.109,245.18 Q423.015,241.494 435.962,236.391 449.333,231.099 455.854,230.06 460.343,229.351 473.998,227.13 486.141,225.618 490.346,227.697 494.315,229.682 498.379,235.682 503.529,243.242 503.576,243.29 M444.041,251.984 Q445.128,269.986 457.744,271.64 465.54,272.679 470.549,271.12 475.085,269.703 478.061,265.97 480.424,263.04 481.983,257.748 L483.07,253.023 Q474.895,247.534 470.501,247.07 460.39,246.03 444.183,251.936 444.112,251.962 444.041,251.984 438.867,253.906 433.646,256.331 L429.394,258.41 M483.07,253.023 Q484.035,253.673 485.054,254.394 494.835,261.339 497.434,261.717 M479.006,277.782 Q483.542,277.31 487.086,275.845 491.764,273.86 492.709,270.695 M250.316,309.062 Q253.907,312.322 256.412,317.425 257.971,320.496 261.136,327.915 262.554,330.939 263.405,337.742 264.019,343.176 267.751,348.232 271.012,352.674 275.123,355.934 278.808,358.816 281.454,362.88 282.446,364.391 287.266,375.07 290.101,381.401 293.739,382.252 294.779,382.488 302.953,386.268 308.528,388.867 312.167,387.45 314.057,386.694 316.466,386.788 317.837,386.835 320.624,387.024 326.011,387.166 331.539,382.725 336.359,378.85 345.95,375.448 354.266,372.518 356.109,369.967 357.385,368.219 358.991,368.172 360.078,368.172 362.204,369.069 367.402,371.337 370.804,369.967 374.348,368.549 382.805,365.053 390.413,362.454 395.846,363.352 399.626,363.966 409.313,367.982 418.196,371.621 422.779,371.857 426.701,372.093 433.552,377.669 439.553,382.583 443.569,381.307 446.026,380.551 448.577,381.26 449.617,381.543 452.783,383.102 457.933,385.512 461.996,382.725 464.406,381.071 467.761,380.22 469.698,379.748 473.384,379.086 479.857,377.574 482.314,371.857 485.48,364.486 488.173,359.95 490.772,355.508 495.071,350.122 496.678,348.09 504.521,341.333 510.049,336.561 511.136,332.167 512.223,327.867 515.814,323.331 520.35,317.52 521.531,315.157 523.185,311.85 525.075,307.361 526.729,304.384 530.036,303.77 533.533,303.155 534.053,305.045 534.289,305.849 533.816,310.905 533.533,314.165 531.974,316.622 L530.509,318.465 M469.084,253.685 L472.864,254.63 M444.041,293.375 Q448.246,296.54 454.72,297.202 461.146,297.864 465.776,295.737 M431.756,266.915 Q435.158,274.617 442.151,277.782 M403.406,338.451 Q405.013,343.082 408.131,342.562 L413.282,340.719 Q418.574,338.499 419.471,336.42 420.369,334.34 420.464,330.702 L420.416,327.442 M403.406,338.451 Q403.359,335.9 402.698,332.214 L401.989,328.859 402.745,336.089 Q403.028,337.412 403.406,338.451 403.406,338.64 403.406,338.782 403.406,342.137 401.186,345.775 398.729,349.697 393.956,353.43 388.712,357.54 382.144,357.21 374.962,356.831 367.496,351.067 361.165,346.2 358.566,336.183 356.582,328.67 357.054,320.355 357.338,315.157 361.921,300.368 366.788,285.342 367.496,282.507 368.441,278.964 368.536,267.057 368.441,254.63 368.441,252.267 368.441,247.353 366.315,242.109 363.48,235.257 358.472,233.367 355.4,232.233 348.833,231.477 342.737,230.769 336.737,228.17 328.421,224.531 315.899,222.405 303.095,220.185 297.519,221.555 292.085,222.925 285.47,227.272 279.328,231.383 274.839,236.202 M346.659,407.767 Q350.817,405.121 356.393,403.515 362.441,401.766 367.496,402.097 370.237,402.286 376.427,404.507 381.624,406.397 386.396,405.877 390.176,405.452 397.264,402.948 403.548,400.68 408.131,400.68 413.99,400.68 419.141,403.042 423.299,404.979 426.559,408.239 M332.012,411.547 Q334.185,405.688 338.107,400.443 339.855,398.128 345.242,392.174 347.84,389.292 352.943,388.111 358.944,386.646 361.307,385.087 364.52,382.961 370.946,382.725 378.364,382.488 380.254,381.78 382.758,380.882 391.405,382.016 400.477,383.244 404.351,382.252 408.746,381.165 415.455,385.749 423.629,391.324 425.141,391.702 428.118,392.458 433.694,396.805 439.742,401.483 442.624,402.57 446.073,403.893 446.073,411.263 446.073,416.083 446.073,416.461 446.262,418.965 447.349,419.58 450.656,421.47 451.601,423.785 452.877,426.809 448.766,429.03 448.058,429.407 435.82,434.983 426.937,439.047 424.669,441.315 423.535,442.448 422.495,444.811 L420.794,448.78 Q418.432,453.221 413.329,452.655 407.186,451.993 402.65,452.229 398.54,452.465 394.429,453.6 384.554,456.293 381.293,456.86 371.465,458.513 368.441,455.489 358.188,445.378 351.857,441.315 349.4,439.755 345.95,434.133 342.737,428.84 340.044,427.612 336.926,426.195 335.839,424.352 334.847,421.942 333.429,420.052 331.681,417.69 331.681,414.382 L332.012,411.547Z M249.797,216.357 Q244.599,209.411 236.472,209.081 228.44,208.797 226.644,214.94 225.416,219.145 231.653,232.706 238.457,247.401 238.457,252.267 238.457,257.465 238.693,275.703 238.693,292.477 237.511,298.1 236.236,304.242 238.504,306.369 240.299,308.022 244.127,307.125 M349.967,253.685 Q341.055,249.228 337.847,247.731 L338.249,248.818 Q338.532,250.802 337.682,255.102 336.548,261.009 332.626,263.985 327.806,267.718 318.309,267.387 309.284,267.057 304.985,261.198 302.339,257.465 301.157,250.306 289.918,254.638 287.124,258.41 M337.847,247.731 Q337.304,247.474 336.926,247.306 328.279,243.479 324.924,243.762 322.231,243.998 315.616,245.747 307.961,247.778 301.488,250.188 301.32,250.253 301.157,250.306 M325.869,249.905 L328.232,250.377 M339.572,276.365 Q342.974,274.853 345.431,271.687 348.077,268.238 348.077,264.552 M284.762,266.915 Q287.502,272.443 292.133,276.318 296.574,280.003 301.299,281.09 M300.827,289.595 Q305.741,293.895 307.82,294.745 313.206,296.919 321.144,293.847 M380.726,391.702 Q389.231,393.12 393.484,393.12 M381.199,413.91 Q384.837,413.437 385.877,413.484 388.097,413.579 391.594,414.855" test="JeanRenoFace"/>
      </g>
      <g id="TearAnimf0r1">
        <g id="TearGraphic">
          <path id="Layer5_0_1_STROKES" stroke="#0FF" stroke-width="1" stroke-linejoin="round" stroke-linecap="round" fill="none" d="M322.645,267.046 Q322.636,267.423 322.545,267.683 322.441,267.96 322.131,268.402 321.817,268.852 321,269.443 322.181,270.049 322.686,270.067 323.182,270.085 323.41,269.644 323.596,269.284 323.56,268.779 323.542,268.529 323.187,268.015 322.8,267.451 322.686,266.9" test="TearGraphic" vector-effect="non-scaling-stroke"/>
        </g>
      </g>
    </g>
    <g id="BlackMaskRect">
      <path fill="#000" stroke="none" d="M823.45,613.6 L823.45,508.3 -23.6,508.3 -23.6,613.6 823.45,613.6Z" test="BlackMaskRect"/>
    </g>
  </g>
</svg>