<?xml version="1.0" encoding="utf-8"?>
<svg id="EdithAnim06" image-rendering="inherit" baseProfile="basic" version="1.1" x="0px" y="0px" width="800" height="600" xmlns="http://www.w3.org/2000/svg" xmlns:xlink="http://www.w3.org/1999/xlink">
  <g id="Jean-Renof89r1" overflow="visible">
    <g id="Bec-nom-Jean">
      <path id="Layer3_0_1_STROKES" stroke="#F90" stroke-width="1.796" stroke-linejoin="round" stroke-linecap="round" fill="none" d="M1054.15,604.441 Q1053.97,604.307 1053.791,604.172 M1021.418,648.848 Q1022.226,656.75 1022.136,665.865 1022.046,674.71 1021.193,679.38 M1072.334,585.359 Q1070.044,585.673 1069.146,585.853 1068.832,585.988 1068.608,585.988" test="Bec nom Jean"/>
      <path id="Layer3_0_2_STROKES" stroke="#FFF" stroke-width="1.796" stroke-linejoin="round" stroke-linecap="round" fill="none" d="M1018.769,392.558 Q1018.364,388.203 1018.724,386.048 1019.262,383.04 1021.463,381.333 1024.112,379.313 1028.467,380.076 1033.137,380.929 1034.573,384.566 M1018.634,435.303 Q1016.613,439.209 1016.389,442.801 1016.171,446.217 1017.669,448.055 1017.697,448.1 1017.736,448.145 1021.014,452.051 1026.267,452.051 1030.936,452.006 1035.337,449.087 M966.64,458.427 Q972.297,455.598 976.293,456.316 979.526,456.855 983.253,460.223 984.555,461.39 985.273,462.513 L990.167,461.974 Q995.78,461.166 999.551,459.774 1005.344,457.618 1010.282,454.655 1014.712,451.984 1016.658,449.604 1017.298,448.809 1017.669,448.055 M961.611,427.58 Q960.399,418.241 965.742,414.784 968.885,412.763 973.195,413.616 976.967,414.335 980.11,416.804 M985.273,462.513 Q986.267,464.018 986.53,465.7 986.675,466.681 986.575,467.721 986.351,470.19 984.6,473.693" test="Bec nom Jean"/>
      <path id="Layer3_0_3_STROKES" stroke="#FEB7AE" stroke-width="1.796" stroke-linejoin="round" stroke-linecap="round" fill="none" d="M1046.158,364.451 Q1051.546,372.713 1056.08,381.019 1069.489,405.639 1070.763,422.552 1070.832,423.463 1070.853,424.752 1071.167,443.161 1064.746,455.104 1060.166,463.59 1051.546,469.652 1039.916,477.779 1032.149,481.011 1016.524,487.432 997.621,486.265 983.118,485.367 973.644,482.762 965.652,480.517 960.668,476.791 M1022.54,486.534 Q1023.887,488.33 1025.01,490.575 M1083.874,542.884 Q1080.865,540.728 1077.498,538.528 1070.763,534.218 1068.922,534.263 1066.991,534.308 1066.093,535.61 1065.465,536.553 1065.465,537.72 1065.465,540.324 1065.959,542.479 1066.587,545.173 1067.799,546.251 1069.595,547.823 1069.281,547.733 1066.497,546.88 1063.085,546.116 1056.26,544.59 1052.982,544.994 1047.729,545.667 1043.913,551.864 1042.072,554.827 1043.419,559.092 1044.586,562.819 1046.831,564.525 1049.166,566.276 1052.399,567.713 1056.35,569.464 1059.493,569.599 1064.297,569.824 1072.2,568.252 M1051.95,586.886 L1057.023,583.338 Q1062.681,579.657 1065.465,578.804 1070.628,577.277 1071.706,577.142 1074.759,576.738 1075.792,578.804 1076.779,580.779 1073.457,583.338 1071.751,584.596 1069.146,585.853 M1072.334,585.359 Q1077.857,585.269 1082.078,587.784 L1087.825,591.061 Q1093.482,594.968 1093.078,598.335 1092.539,602.556 1090.249,605.699 1087.825,609.066 1084.547,609.56 1080.012,610.234 1075.747,610.009 1070.179,609.695 1068.832,607.764 1068.428,607.18 1066.138,606.417 1064.971,606.013 1061.379,605.025 1059.762,604.576 1057.158,604.756 1054.913,604.89 1054.15,604.441 M1037.806,483.616 L1035.561,480.024" test="Bec nom Jean"/>
      <path id="Layer3_0_4_STROKES" stroke="#00F" stroke-width="1.796" stroke-linejoin="round" stroke-linecap="round" fill="none" d="M1074.579,429.017 L1089.396,455.598 1104.977,439.569 Q1102.642,435.887 1099.095,428.793 1092,414.649 1086.119,397.812 1079.967,380.256 1064.791,362.879 1057.428,354.438 1039.423,338.05 1029.185,328.711 1010.731,325.568 994.567,322.829 983.702,325.927 964.619,331.36 955.325,335.535 934.671,344.695 924.883,358.3 911.098,377.382 905.396,391.885 897.853,411.102 902.433,426.099 907.506,442.667 927.307,473.827 947.153,505.033 955.864,510.062 963.182,514.282 978.897,514.597 986.755,514.776 993.131,514.103 L960.668,476.791 Q957.48,474.456 954.966,470 951.149,465.79 939.969,447.83 928.699,429.691 929.373,429.691 L949.084,414.245 Q971.175,397.318 983.253,389.73 995.331,382.142 1019.711,369.255 1031.879,362.79 1041.668,357.851 L1046.158,364.451" test="Bec nom Jean"/>
      <path id="Layer3_0_5_STROKES" stroke="#0FF" stroke-width="1.796" stroke-linejoin="round" stroke-linecap="round" fill="none" d="M1082.257,548.227 L1080.461,551.504 Q1078.8,555.77 1079.339,560.574 1079.922,565.558 1080.506,565.962 1081.135,566.411 1085.176,567.309 1089.127,568.926 1105.426,569.554 1120.647,570.138 1128.325,569.375 1136.721,568.566 1144.982,566.995 1154.995,565.109 1157.734,563.268 1160.563,561.382 1165.861,552.851 1170.89,544.769 1171.429,541.941 1171.967,539.336 1170.037,533.499 1168.016,527.348 1164.245,520.838 1160.832,514.911 1150.191,507.368 1142.289,501.8 1134.611,497.939 1128.37,494.841 1115.214,489.812 1100.846,484.289 1096.67,483.84 1089.666,483.436 1085.67,483.211 1078.351,482.807 1074.669,481.595 1070.673,480.248 1065.599,480.068 1063.444,479.979 1056.215,480.248 L1048.358,480.473 1049.301,483.122 Q1050.109,486.13 1049.705,487.657 1049.256,489.318 1046.562,490.979 1045.125,491.877 1040.725,493.943 1035.382,496.457 1032.328,497.624 1026.851,499.69 1024.785,499.106 1022.495,498.433 1020.385,497.041 1018.364,495.739 1017.152,494.167 M993.131,562.191 L997.621,578.804 M1054.15,604.441 Q1054.15,604.397 1054.195,604.397 1052.399,588.233 1051.95,586.886 1051.635,585.898 1041.847,584.82 1032.328,583.743 1025.01,583.743 1022.406,583.743 1002.919,581.947 986.71,580.465 982.804,581.498 978.897,582.53 979.93,580.555 981.726,577.187 981.457,576.559 981.008,575.391 988.237,566.007 997.037,554.647 999.417,550.068 1004.356,540.639 1005.254,537.945 M1011.54,496.637 Q1008.082,499.106 1004.356,501.8 996.947,507.188 995.825,508.311 M977.416,528.965 Q968.795,541.537 960.039,554.782 942.528,581.273 941.945,584.641 941.226,588.906 950.476,595.91 960.084,603.229 969.783,604.846 978.583,606.327 1007.993,606.552 1032.688,606.731 1042.521,606.193 1047.864,605.923 1051.546,605.115 1053.386,604.756 1054.15,604.441 M1009.295,609.56 L1014.952,625.185 Q1020.699,642.113 1021.418,648.848 L1041.847,650.733 Q1063.624,652.35 1070.359,651.093 1081.404,649.027 1093.168,645.48 1108.883,640.766 1116.651,635.827 1122.488,632.145 1131.378,627.026 1137.529,623.299 1138.203,620.785 1139.101,617.552 1138.921,611.805 1138.741,605.519 1137.305,599.458 1136.047,594.114 1132.635,582.126 L1129.447,571.171 M1114.181,527.348 L1119.794,537.675 M1088.992,511.633 L1112.206,521.556 Q1135.554,531.883 1136.407,533.859 1139.101,540.145 1136.407,541.492 1135.329,542.03 1125.451,541.492 1114.944,540.908 1112.161,541.492 1109.242,542.075 1103.944,542.479 1098.107,542.884 1095.727,543.288 1092.584,543.826 1090.16,545.129 1087.78,546.386 1087.421,546.431" test="Bec nom Jean"/>
    </g>
    <g id="Jean-Reno-body">
      <path id="Layer2_0_1_STROKES" stroke="#FEB7AE" stroke-width="1.89" stroke-linejoin="round" stroke-linecap="round" fill="none" d="M512.895,319.817 Q519.037,325.96 557.357,332.102 583.108,336.26 610.277,338.717 617.553,339.379 660.126,348.073 696.461,355.444 702.887,353.837 712.668,351.38 720.133,348.403 729.63,344.576 738.797,338.717 747.916,332.858 760.107,331.063 770.313,329.503 778.534,331.157 784.44,332.338 790.11,334.228 792.945,335.173 794.599,335.882 792.945,336.355 791.055,337.347 787.37,339.379 786.472,342.166 785.574,344.954 788.646,347.789 790.205,349.159 791.906,350.01 790.016,350.766 788.315,352.136 784.866,354.877 785.763,357.806 786.661,360.783 792.331,362.059 795.166,362.72 797.812,362.767 L798.852,368.815 Q800.316,375.147 802.537,376.47 804.758,377.793 810.144,375.241 812.838,374.013 815.058,372.454 L816.854,376.47 Q819.311,380.392 822.854,379.777 826.398,379.21 829.375,376.139 830.84,374.58 831.596,373.162 L835.045,374.58 Q838.731,375.761 839.912,374.58 841.093,373.399 842.038,370.091 L842.747,367.02 845.015,379.966 Q847.094,393.763 846.054,397.732 845.96,398.063 844.968,402.93 844.259,406.379 843.361,408.647 840.715,415.404 833.958,418.995 M766.155,373.635 Q774.376,371.65 785.622,373.588 802.017,376.375 810.57,387.337 813.877,391.59 820.776,400.331 826.682,408.033 829.989,414.223 838.92,430.949 835.376,448.054 831.879,464.875 822.524,480.325 818.224,487.413 809.861,497.666 807.498,500.548 798.71,507.447 788.268,515.621 775.557,523.843 740.073,546.853 707.801,556.776 L692.067,561.619 Q694.706,564.92 696.839,575.581 699.012,586.449 698.115,592.45 697.359,597.553 700.052,600.955 700.761,601.9 704.257,604.498 707.045,606.577 711.25,613.192 716.684,621.697 715.597,626.706 714.463,632.14 709.549,637.384 705.108,642.062 701.186,643.243 698.256,644.141 692.681,644.236 L687.72,644.188 694.146,645.511 Q701.375,647.827 705.675,652.693 711.25,659.025 713.518,663.466 716.164,668.569 714.652,671.593 713.613,673.72 710.825,680.146 707.376,686.099 700.95,689.076 694.949,691.864 681.861,688.792 675.293,687.044 672.505,686.335 667.78,685.154 665.985,685.296 663.622,685.485 645.053,690.21 626.247,695.029 619.68,695.691 612.781,696.4 604.512,692.903 600.638,691.108 599.079,690.493 596.527,689.407 595.346,689.548 591.566,689.737 589.629,689.974 586.274,690.446 583.77,692.383 580.935,694.557 577.06,693.612 573.375,692.714 572.43,690.257 571.343,687.469 571.437,685.816 571.579,683.5 573.847,681.752 575.926,680.146 579.234,679.579 580.887,679.342 582.116,679.39 581.218,678.35 580.604,676.98 579.375,674.239 580.698,672.775 582.163,671.168 585.99,670.365 589.203,669.703 591.802,669.94 592.936,670.034 590.385,668.239 587.219,666.018 588.258,664.978 589.487,663.75 592.653,663.844 594.117,663.892 597.708,664.506 598.937,664.695 600.921,666.112 602.339,667.152 603.378,666.632 606.686,664.978 611.127,662.899 617.931,659.734 620.625,658.836 624.877,657.418 629.13,656.473 M524.896,320.904 Q529.054,318.919 543.938,310.036 557.924,302.146 562.932,302.004 575.926,301.626 579.942,302.004 592.747,303.185 604.56,309.091 629.886,321.754 633.524,323.644 649.731,332.244 656.771,337.914 663.575,343.395 669.245,346.655 672.08,348.309 673.545,348.829 M502.216,384.928 Q502.216,380.864 503.208,375.856 505.24,365.791 510.249,361.066 520.785,351.144 534.346,353.27 539.544,354.073 549.702,360.31 559.058,366.028 561.515,369.099 563.452,371.509 568.272,372.406 571.957,373.115 576.871,372.879 579.517,372.784 593.456,371.792 606.875,371.036 610.702,371.934 617.034,373.399 631.681,378.36 648.455,384.077 651.573,386.581 653.936,388.471 661.968,395.464 669.481,401.701 672.363,402.883 675.671,404.206 676.191,405.103 676.521,405.718 675.907,407.891 675.671,408.742 676.191,415.026 676.71,421.877 675.907,427.264 674.915,433.926 669.812,451.361 664.992,467.804 662.441,474.041 660.362,479.191 653.794,490.626 647.793,501.068 645.667,503.809 644.202,505.746 640.895,509.668 L637.871,513.259 642.407,514.015 Q647.51,515.007 650.156,516.33 652.282,517.417 656.913,519.59 660.787,521.858 662.913,525.307 665.701,529.843 666.363,532.111 667.213,535.088 666.221,538.537 665.229,541.939 662.866,545.578 660.929,548.554 658.661,550.822 655.59,553.894 653.7,555.406 650.345,558.099 648.03,558.382 644.958,558.808 643.541,558.666 641.367,558.43 637.635,556.965 634.611,555.784 632.484,553.327 629.508,549.925 627.476,548.46 624.641,546.381 623.176,543.451 621.333,539.671 619.443,537.592 616.325,534.143 614.293,532.915 612.828,532.064 609.993,531.45 607.725,530.977 607.347,531.072 605.977,531.686 603.615,532.631 599.362,534.805 597.756,535.419 595.157,536.364 593.692,534.285 591.377,531.072 590,529.985 590.243,527.859 591.33,524.835 592.653,521.244 593.172,520.535 593.976,519.543 597,518.22 601.536,516.188 607.631,518.22 608.292,518.456 607.631,515.007 605.93,505.746 605.883,505.51 603.237,488.783 605.741,475.459 608.056,463.315 614.199,444.746 619.16,429.768 618.735,428.209 618.215,426.271 604.371,426.838 588.967,427.5 586.605,426.555 583.959,425.515 569.122,421.499 555.278,417.719 554.427,417.105 M481.662,395.37 Q494.892,407.702 502.311,412.947 522.061,426.98 546.159,433.879 569.784,440.683 592.038,448.006 603.142,451.645 609.521,453.96 M638.532,651.276 Q637.54,647.118 619.632,614.799 601.394,581.818 600.024,577.566 597.283,568.966 595.157,558.808 592.558,546.428 593.645,543.735 594.732,541.136 597.708,538.443 599.646,536.647 601.914,535.23 M628.846,646.551 Q627.57,647.496 625.586,648.394 621.711,650.236 618.451,650.095 615.096,649.953 608.907,647.496 604.418,645.7 601.677,644.188 600.685,643.621 599.929,641.495 599.268,639.7 598.134,639.7 597,639.7 594.543,641.826 591.755,644.236 590.574,644.661 588.778,645.322 585.187,644.377 582.021,643.527 580.179,642.298 578.714,641.353 578.336,639.18 578.1,637.668 578.289,634.502 578.43,632.187 579.753,630.817 579.801,630.722 582.777,628.36 584.242,627.178 585.801,626.706 586.557,626.47 587.03,626.47 M595.299,626.942 Q595.11,626.139 595.346,625.099 595.724,623.02 597.661,621.981 599.598,620.941 602.906,621.272 604.749,621.461 607.82,621.981 609.19,622.123 611.742,623.257 614.151,624.343 614.907,624.343 M629.13,663.797 Q621.995,667.53 614.199,671.31 598.701,678.964 595.582,679.39 592.464,679.815 589.109,679.673 L586.368,679.39 M692.067,561.619 L692.019,561.643 Q673.545,567.313 673.119,567.313 673.025,567.313 677.372,583.519 681.624,601.569 680.868,610.168 L679.073,629.919 Q677.703,650.331 679.923,653.875" test="Jean Reno body"/>
    </g>
    <g id="Jean-Renof0r1">
      <g id="JeanRenoFace">
        <path fill="#000" stroke="none" d="M449.585,116.458 Q445.002,119.813 442.781,124.255 439.663,130.539 434.087,137.06 426.811,145.659 421.519,145.99 416.558,146.273 402.713,140.84 388.019,134.65 384.191,133.232 379.75,131.579 373.702,124.397 365.858,115.136 364.299,113.813 362.362,112.159 361.37,109.607 360.566,106.772 360.236,105.685 359.669,103.748 358.629,103.323 357.353,102.756 354.377,103.89 346.722,106.489 343.415,107.953 337.934,110.363 333.114,115.23 324.845,123.31 320.64,127.421 313.127,134.839 309.962,138.902 291.534,163 285.864,170.087 281.848,175.096 279.722,180.624 277.973,185.16 276.414,193.24 274.524,203.162 266.492,230.567 L266.161,260.854 Q265.832,295.056 266.066,315.712 269.657,318.972 272.162,324.075 273.721,327.146 276.886,334.565 278.304,337.589 279.155,344.393 279.769,349.826 283.501,354.882 286.762,359.324 290.873,362.584 294.558,365.466 297.204,369.53 298.196,371.042 303.016,381.72 305.851,388.052 309.489,388.902 310.529,389.138 318.703,392.918 324.278,395.517 327.917,394.1 329.807,393.344 332.216,393.438 333.587,393.485 336.374,393.674 341.761,393.816 347.289,389.375 352.109,385.5 361.7,382.098 370.016,379.169 371.859,376.617 373.135,374.869 374.741,374.822 375.828,374.822 377.954,375.719 383.152,377.987 386.554,376.617 390.098,375.2 398.555,371.703 406.163,369.104 411.596,370.002 415.376,370.616 425.063,374.633 433.946,378.271 438.529,378.507 442.451,378.743 449.302,384.319 455.303,389.233 459.319,387.957 461.776,387.201 464.327,387.91 465.367,388.193 468.533,389.753 473.683,392.162 477.746,389.375 480.156,387.721 483.511,386.87 485.448,386.398 489.134,385.736 495.607,384.224 498.064,378.507 501.23,371.136 503.923,366.6 506.522,362.159 510.821,356.772 512.428,354.74 520.271,347.984 525.8,343.211 526.886,338.817 527.973,334.517 531.564,329.981 536.1,324.17 537.281,321.807 538.935,318.5 540.825,314.011 542.479,311.034 545.786,310.42 549.283,309.806 549.803,311.696 550.039,312.499 549.566,317.555 549.283,320.815 547.724,323.272 L546.259,325.115 547.724,323.272 Q549.283,320.815 549.566,317.555 550.039,312.499 549.803,311.696 549.283,309.806 545.786,310.42 542.479,311.034 540.825,314.011 538.935,318.5 537.281,321.807 536.1,324.17 531.564,329.981 527.973,334.517 526.886,338.817 525.8,343.211 520.271,347.984 512.428,354.74 510.821,356.772 506.522,362.159 503.923,366.6 501.23,371.136 498.064,378.507 495.607,384.224 489.134,385.736 485.448,386.398 483.511,386.87 480.156,387.721 477.746,389.375 473.683,392.162 468.533,389.753 465.367,388.193 464.327,387.91 461.776,387.201 459.319,387.957 455.303,389.233 449.302,384.319 442.451,378.743 438.529,378.507 433.946,378.271 425.063,374.633 415.376,370.616 411.596,370.002 406.163,369.104 398.555,371.703 390.098,375.2 386.554,376.617 383.152,377.987 377.954,375.719 375.828,374.822 374.741,374.822 373.135,374.869 371.859,376.617 370.016,379.169 361.7,382.098 352.109,385.5 347.289,389.375 341.761,393.816 336.374,393.674 333.587,393.485 332.216,393.438 329.807,393.344 327.917,394.1 324.278,395.517 318.703,392.918 310.529,389.138 309.489,388.902 305.851,388.052 303.016,381.72 298.196,371.042 297.204,369.53 294.558,365.466 290.873,362.584 286.762,359.324 283.501,354.882 279.769,349.826 279.155,344.393 278.304,337.589 276.886,334.565 273.721,327.146 272.162,324.075 269.657,318.972 266.066,315.712 266.065,315.83 266.066,315.948 266.303,333.1 266.964,339.29 267.437,344.015 269.232,351.905 271.169,360.174 274.052,369.766 274.288,370.475 280.619,383.563 286.667,396.131 288.699,404.022 292.952,420.749 295.834,425.237 297.393,427.694 300.559,430.671 302.591,432.608 308.544,438.042 310.151,439.554 315.915,446.925 321.585,454.202 323.286,455.714 327.444,459.446 335.288,463.604 342.044,467.148 345.872,471.59 352.817,479.622 358.582,482.741 364.819,486.048 374.222,486.237 374.411,486.237 389.105,488.978 401.107,491.246 407.344,489.545 412.163,488.222 422.606,488.08 432.623,487.938 438.245,486.143 446.892,483.402 452.515,479.528 458.516,475.322 465.461,466.865 469.005,463.699 470.848,461.951 474.108,458.832 475.053,454.438 475.904,450.469 484.314,442.767 492.914,434.924 494.142,430.529 496.694,421.41 500.71,414.984 504.632,408.794 510.679,403.928 515.026,400.478 518.854,390.225 522.728,379.925 525.563,377.515 530.477,373.404 533.076,365.797 535.25,357.67 536.336,354.882 541.676,340.991 545.692,331.682 L548.621,325.115 549.236,326.957 Q550.889,328.942 556.181,329.84 561.709,330.785 565.631,326.438 568.23,323.508 569.411,319.445 569.695,318.405 567.757,308.246 565.584,296.906 566.104,288.212 566.718,278.337 571.349,267.847 573.664,262.508 579.381,252.775 583.303,246.112 584.106,240.868 585.051,234.584 581.744,229.622 577.255,222.866 575.176,221.779 571.349,219.747 564.545,224.094 563.647,227.732 561.568,233.922 557.599,245.829 557.599,249.94 557.599,254.948 555.945,262.65 555.142,266.477 554.291,269.312 545.314,236.237 541.534,223.48 538.037,211.715 528.304,187.475 517.484,160.543 513.656,156.385 509.357,151.707 496.126,140.698 482.755,129.547 476.801,125.672 474.25,124.018 467.115,117.309 462.39,112.868 458.846,112.868 454.405,112.868 449.585,116.458 M514.129,242.332 Q519.279,249.892 519.326,249.94 519.279,249.892 514.129,242.332 510.065,236.332 506.096,234.347 501.891,232.268 489.748,233.78 476.093,236.001 471.604,236.71 465.083,237.749 451.712,243.041 438.765,248.144 432.859,251.83 438.765,248.144 451.712,243.041 465.083,237.749 471.604,236.71 476.093,236.001 489.748,233.78 501.891,232.268 506.096,234.347 510.065,236.332 514.129,242.332 M498.82,259.673 L497.733,264.398 Q496.174,269.69 493.811,272.62 490.835,276.353 486.299,277.77 481.29,279.329 473.494,278.29 460.878,276.636 459.791,258.634 454.617,260.556 449.396,262.981 L445.144,265.06 449.396,262.981 Q454.617,260.556 459.791,258.634 459.862,258.612 459.933,258.587 476.14,252.68 486.251,253.72 490.645,254.184 498.82,259.673 499.785,260.323 500.804,261.044 510.585,267.989 513.184,268.367 510.585,267.989 500.804,261.044 499.785,260.323 498.82,259.673 M502.836,282.495 Q507.514,280.511 508.459,277.345 507.514,280.511 502.836,282.495 499.292,283.96 494.756,284.432 499.292,283.96 502.836,282.495 M470.47,303.852 Q476.896,304.514 481.526,302.387 476.896,304.514 470.47,303.852 463.996,303.191 459.791,300.025 463.996,303.191 470.47,303.852 M447.506,273.565 Q450.908,281.267 457.901,284.432 450.908,281.267 447.506,273.565 M436.214,337.352 L436.166,334.092 436.214,337.352 Q436.119,340.991 435.221,343.07 434.324,345.149 429.032,347.369 L423.881,349.212 Q420.763,349.732 419.156,345.101 419.156,345.29 419.156,345.432 419.156,348.787 416.936,352.425 414.479,356.347 409.706,360.08 404.462,364.19 397.894,363.86 390.712,363.482 383.246,357.717 376.915,352.85 374.316,342.833 372.332,335.321 372.804,327.005 373.088,321.807 377.671,307.018 382.538,291.992 383.246,289.157 384.191,285.614 384.286,273.707 384.191,261.28 384.191,258.917 384.191,254.003 382.065,248.759 379.23,241.907 374.222,240.017 371.15,238.883 364.583,238.127 358.487,237.419 352.487,234.82 344.171,231.181 331.649,229.055 318.845,226.835 313.269,228.205 307.835,229.575 301.22,233.922 295.078,238.033 290.589,242.852 295.078,238.033 301.22,233.922 307.835,229.575 313.269,228.205 318.845,226.835 331.649,229.055 344.171,231.181 352.487,234.82 358.487,237.419 364.583,238.127 371.15,238.883 374.222,240.017 379.23,241.907 382.065,248.759 384.191,254.003 384.191,258.917 384.191,261.28 384.286,273.707 384.191,285.614 383.246,289.157 382.538,291.992 377.671,307.018 373.088,321.807 372.804,327.005 372.332,335.321 374.316,342.833 376.915,352.85 383.246,357.717 390.712,363.482 397.894,363.86 404.462,364.19 409.706,360.08 414.479,356.347 416.936,352.425 419.156,348.787 419.156,345.432 419.156,345.29 419.156,345.101 418.778,344.062 418.495,342.739 L417.739,335.51 418.448,338.864 Q419.109,342.55 419.156,345.101 420.763,349.732 423.881,349.212 L429.032,347.369 Q434.324,345.149 435.221,343.07 436.119,340.991 436.214,337.352 M440.891,398.352 Q443.868,399.108 449.444,403.455 455.492,408.133 458.374,409.22 461.823,410.543 461.823,417.914 461.823,422.733 461.823,423.111 462.012,425.615 463.099,426.23 466.406,428.12 467.351,430.435 468.627,433.459 464.516,435.68 463.808,436.058 451.57,441.633 442.687,445.697 440.419,447.965 439.285,449.099 438.245,451.461 L436.544,455.43 Q434.182,459.871 429.079,459.305 422.936,458.643 418.4,458.879 414.29,459.116 410.179,460.25 400.304,462.943 397.043,463.51 387.215,465.164 384.191,462.14 373.938,452.028 367.607,447.965 365.15,446.405 361.7,440.783 358.487,435.491 355.794,434.262 352.676,432.845 351.589,431.002 350.597,428.592 349.179,426.702 347.431,424.34 347.431,421.032 L347.762,418.197 Q349.935,412.338 353.857,407.093 355.605,404.778 360.992,398.825 363.59,395.942 368.693,394.761 374.694,393.296 377.057,391.737 380.27,389.611 386.696,389.375 394.114,389.138 396.004,388.43 398.508,387.532 407.155,388.666 416.227,389.894 420.101,388.902 424.496,387.815 431.205,392.399 439.379,397.974 440.891,398.352 M365.717,260.335 Q356.805,255.878 353.573,254.381 L353,255.468 Q354.282,257.453 353.432,261.752 352.298,267.659 348.376,270.635 343.556,274.368 334.059,274.037 325.034,273.707 320.735,267.847 318.089,264.115 316.907,256.933 305.668,261.288 302.874,265.06 305.668,261.288 316.907,256.933 317.07,256.903 317.238,256.838 323.711,254.429 331.366,252.397 337.981,250.648 340.674,250.412 344.029,250.129 352.676,253.956 353.054,254.124 353.573,254.381 356.805,255.878 365.717,260.335 M361.181,278.337 Q363.827,274.888 363.827,271.202 363.827,274.888 361.181,278.337 358.724,281.503 355.322,283.015 358.724,281.503 361.181,278.337 M307.883,282.968 Q312.324,286.653 317.049,287.74 312.324,286.653 307.883,282.968 303.252,279.093 300.512,273.565 303.252,279.093 307.883,282.968 M316.577,296.245 Q321.491,300.545 323.57,301.395 328.956,303.569 336.894,300.497 328.956,303.569 323.57,301.395 321.491,300.545 316.577,296.245 M503.687,82.108 Q498.867,80.69 496.741,79.32 493.811,77.525 493.339,74.595 492.441,69.303 500.615,64.342 504.679,61.838 508.931,60.42 504.821,59.948 499.387,60.184 488.519,60.656 481,64.2 478.502,66.137 475.526,65.665 473.541,65.381 470.612,63.633 467.162,61.554 465.603,61.034 462.437,59.948 458.846,60.893 452.846,62.452 441.411,57.065 434.702,53.9 433.804,53.522 430.166,52.104 428.606,52.86 425.441,54.467 405.548,53.569 387.971,52.766 378.947,51.443 372.993,50.545 364.063,43.127 L356.267,35.85 356.928,39.11 Q357.637,42.938 357.731,45.962 358.109,55.506 352.487,52.86 346.864,50.214 334.957,49.836 L324.137,50.025 331.886,57.113 Q338.595,63.964 333.587,62.783 328.578,61.601 318.041,65.854 L308.544,70.343 310.718,70.484 Q313.222,70.768 314.876,71.477 320.168,73.697 315.159,79.32 304.528,91.227 299.141,98.126 287.612,112.915 277.832,130.397 269.894,144.572 267.248,177.884 265.594,199.004 266.255,223.338 266.35,227.874 266.492,230.567 274.524,203.162 276.414,193.24 277.973,185.16 279.722,180.624 281.848,175.096 285.864,170.087 291.534,163 309.962,138.902 313.127,134.839 320.64,127.421 324.845,123.31 333.114,115.23 337.934,110.363 343.415,107.953 346.722,106.489 354.377,103.89 357.353,102.756 358.629,103.323 359.669,103.748 360.236,105.685 360.566,106.772 361.37,109.607 362.362,112.159 364.299,113.813 365.858,115.136 373.702,124.397 379.75,131.579 384.191,133.232 388.019,134.65 402.713,140.84 416.558,146.273 421.519,145.99 426.811,145.659 434.087,137.06 439.663,130.539 442.781,124.255 445.002,119.813 449.585,116.458 454.405,112.868 458.846,112.868 462.39,112.868 467.115,117.309 474.25,124.018 476.801,125.672 482.755,129.547 496.126,140.698 509.357,151.707 513.656,156.385 517.484,160.543 528.304,187.475 538.037,211.715 541.534,223.48 545.314,236.237 554.291,269.312 555.142,266.477 555.945,262.65 557.599,254.948 557.599,249.94 557.599,245.829 561.568,233.922 563.647,227.732 564.545,224.094 565.253,220.975 565.159,219.7 564.923,217.101 563.647,209.21 562.135,200.233 561.379,193.712 558.686,170.513 558.308,166.733 556.37,147.927 556.654,142.21 556.985,135.784 542.762,115.372 529.06,95.669 520.744,89.243 516.35,85.84 503.687,82.108Z" test="JeanRenoFace" vector-effect="non-scaling-stroke" stroke-width="1"/>
        <path id="Layer4_0_1_STROKES" stroke="#FFF" stroke-width="1.89" stroke-linejoin="round" stroke-linecap="round" fill="none" d="M266.492,230.567 Q266.35,227.874 266.255,223.338 265.594,199.004 267.248,177.884 269.894,144.572 277.832,130.397 287.612,112.915 299.141,98.126 304.528,91.227 315.159,79.32 320.168,73.697 314.876,71.477 313.222,70.768 310.718,70.484 L308.544,70.343 318.041,65.854 Q328.578,61.601 333.587,62.783 338.595,63.964 331.886,57.113 L324.137,50.025 334.957,49.836 Q346.864,50.214 352.487,52.86 358.109,55.506 357.731,45.962 357.637,42.938 356.928,39.11 L356.267,35.85 364.063,43.127 Q372.993,50.545 378.947,51.443 387.971,52.766 405.548,53.569 425.441,54.467 428.606,52.86 430.166,52.104 433.804,53.522 434.702,53.9 441.411,57.065 452.846,62.452 458.846,60.893 462.437,59.948 465.603,61.034 467.162,61.554 470.612,63.633 473.541,65.381 475.526,65.665 478.502,66.137 481,64.2 488.519,60.656 499.387,60.184 504.821,59.948 508.931,60.42 504.679,61.838 500.615,64.342 492.441,69.303 493.339,74.595 493.811,77.525 496.741,79.32 498.867,80.69 503.687,82.108 516.35,85.84 520.744,89.243 529.06,95.669 542.762,115.372 556.985,135.784 556.654,142.21 556.37,147.927 558.308,166.733 558.686,170.513 561.379,193.712 562.135,200.233 563.647,209.21 564.923,217.101 565.159,219.7 565.253,220.975 564.545,224.094 571.349,219.747 575.176,221.779 577.255,222.866 581.744,229.622 585.051,234.584 584.106,240.868 583.303,246.112 579.381,252.775 573.664,262.508 571.349,267.847 566.718,278.337 566.104,288.212 565.584,296.906 567.757,308.246 569.695,318.405 569.411,319.445 568.23,323.508 565.631,326.438 561.709,330.785 556.181,329.84 550.889,328.942 549.236,326.957 L548.621,325.115 545.692,331.682 Q541.676,340.991 536.336,354.882 535.25,357.67 533.076,365.797 530.477,373.404 525.563,377.515 522.728,379.925 518.854,390.225 515.026,400.478 510.679,403.928 504.632,408.794 500.71,414.984 496.694,421.41 494.142,430.529 492.914,434.924 484.314,442.767 475.904,450.469 475.053,454.438 474.108,458.832 470.848,461.951 469.005,463.699 465.461,466.865 458.516,475.322 452.515,479.528 446.892,483.402 438.245,486.143 432.623,487.938 422.606,488.08 412.163,488.222 407.344,489.545 401.107,491.246 389.105,488.978 374.411,486.237 374.222,486.237 364.819,486.048 358.582,482.741 352.817,479.622 345.872,471.59 342.044,467.148 335.288,463.604 327.444,459.446 323.286,455.714 321.585,454.202 315.915,446.925 310.151,439.554 308.544,438.042 302.591,432.608 300.559,430.671 297.393,427.694 295.834,425.237 292.952,420.749 288.699,404.022 286.667,396.131 280.619,383.563 274.288,370.475 274.052,369.766 271.169,360.174 269.232,351.905 267.437,344.015 266.964,339.29 266.303,333.1 266.066,315.948 266.065,315.83 266.066,315.712 265.832,295.056 266.161,260.854 L266.492,230.567 Q274.524,203.162 276.414,193.24 277.973,185.16 279.722,180.624 281.848,175.096 285.864,170.087 291.534,163 309.962,138.902 313.127,134.839 320.64,127.421 324.845,123.31 333.114,115.23 337.934,110.363 343.415,107.953 346.722,106.489 354.377,103.89 357.353,102.756 358.629,103.323 359.669,103.748 360.236,105.685 360.566,106.772 361.37,109.607 362.362,112.159 364.299,113.813 365.858,115.136 373.702,124.397 379.75,131.579 384.191,133.232 388.019,134.65 402.713,140.84 416.558,146.273 421.519,145.99 426.811,145.659 434.087,137.06 439.663,130.539 442.781,124.255 445.002,119.813 449.585,116.458 454.405,112.868 458.846,112.868 462.39,112.868 467.115,117.309 474.25,124.018 476.801,125.672 482.755,129.547 496.126,140.698 509.357,151.707 513.656,156.385 517.484,160.543 528.304,187.475 538.037,211.715 541.534,223.48 545.314,236.237 554.291,269.312 555.142,266.477 555.945,262.65 557.599,254.948 557.599,249.94 557.599,245.829 561.568,233.922 563.647,227.732 564.545,224.094 M432.859,251.83 Q438.765,248.144 451.712,243.041 465.083,237.749 471.604,236.71 476.093,236.001 489.748,233.78 501.891,232.268 506.096,234.347 510.065,236.332 514.129,242.332 519.279,249.892 519.326,249.94 M459.791,258.634 Q460.878,276.636 473.494,278.29 481.29,279.329 486.299,277.77 490.835,276.353 493.811,272.62 496.174,269.69 497.733,264.398 L498.82,259.673 Q490.645,254.184 486.251,253.72 476.14,252.68 459.933,258.587 459.862,258.612 459.791,258.634 454.617,260.556 449.396,262.981 L445.144,265.06 M498.82,259.673 Q499.785,260.323 500.804,261.044 510.585,267.989 513.184,268.367 M494.756,284.432 Q499.292,283.96 502.836,282.495 507.514,280.511 508.459,277.345 M266.066,315.712 Q269.657,318.972 272.162,324.075 273.721,327.146 276.886,334.565 278.304,337.589 279.155,344.393 279.769,349.826 283.501,354.882 286.762,359.324 290.873,362.584 294.558,365.466 297.204,369.53 298.196,371.042 303.016,381.72 305.851,388.052 309.489,388.902 310.529,389.138 318.703,392.918 324.278,395.517 327.917,394.1 329.807,393.344 332.216,393.438 333.587,393.485 336.374,393.674 341.761,393.816 347.289,389.375 352.109,385.5 361.7,382.098 370.016,379.169 371.859,376.617 373.135,374.869 374.741,374.822 375.828,374.822 377.954,375.719 383.152,377.987 386.554,376.617 390.098,375.2 398.555,371.703 406.163,369.104 411.596,370.002 415.376,370.616 425.063,374.633 433.946,378.271 438.529,378.507 442.451,378.743 449.302,384.319 455.303,389.233 459.319,387.957 461.776,387.201 464.327,387.91 465.367,388.193 468.533,389.753 473.683,392.162 477.746,389.375 480.156,387.721 483.511,386.87 485.448,386.398 489.134,385.736 495.607,384.224 498.064,378.507 501.23,371.136 503.923,366.6 506.522,362.159 510.821,356.772 512.428,354.74 520.271,347.984 525.8,343.211 526.886,338.817 527.973,334.517 531.564,329.981 536.1,324.17 537.281,321.807 538.935,318.5 540.825,314.011 542.479,311.034 545.786,310.42 549.283,309.806 549.803,311.696 550.039,312.499 549.566,317.555 549.283,320.815 547.724,323.272 L546.259,325.115 M484.834,260.335 L488.614,261.28 M459.791,300.025 Q463.996,303.191 470.47,303.852 476.896,304.514 481.526,302.387 M447.506,273.565 Q450.908,281.267 457.901,284.432 M419.156,345.101 Q420.763,349.732 423.881,349.212 L429.032,347.369 Q434.324,345.149 435.221,343.07 436.119,340.991 436.214,337.352 L436.166,334.092 M419.156,345.101 Q419.109,342.55 418.448,338.864 L417.739,335.51 418.495,342.739 Q418.778,344.062 419.156,345.101 419.156,345.29 419.156,345.432 419.156,348.787 416.936,352.425 414.479,356.347 409.706,360.08 404.462,364.19 397.894,363.86 390.712,363.482 383.246,357.717 376.915,352.85 374.316,342.833 372.332,335.321 372.804,327.005 373.088,321.807 377.671,307.018 382.538,291.992 383.246,289.157 384.191,285.614 384.286,273.707 384.191,261.28 384.191,258.917 384.191,254.003 382.065,248.759 379.23,241.907 374.222,240.017 371.15,238.883 364.583,238.127 358.487,237.419 352.487,234.82 344.171,231.181 331.649,229.055 318.845,226.835 313.269,228.205 307.835,229.575 301.22,233.922 295.078,238.033 290.589,242.852 M362.409,414.417 Q366.567,411.771 372.143,410.165 378.191,408.416 383.246,408.747 385.987,408.936 392.177,411.157 397.374,413.047 402.146,412.527 405.926,412.102 413.014,409.598 419.298,407.33 423.881,407.33 429.74,407.33 434.891,409.692 439.049,411.629 442.309,414.89 M347.762,418.197 Q349.935,412.338 353.857,407.093 355.605,404.778 360.992,398.825 363.59,395.942 368.693,394.761 374.694,393.296 377.057,391.737 380.27,389.611 386.696,389.375 394.114,389.138 396.004,388.43 398.508,387.532 407.155,388.666 416.227,389.894 420.101,388.902 424.496,387.815 431.205,392.399 439.379,397.974 440.891,398.352 443.868,399.108 449.444,403.455 455.492,408.133 458.374,409.22 461.823,410.543 461.823,417.914 461.823,422.733 461.823,423.111 462.012,425.615 463.099,426.23 466.406,428.12 467.351,430.435 468.627,433.459 464.516,435.68 463.808,436.058 451.57,441.633 442.687,445.697 440.419,447.965 439.285,449.099 438.245,451.461 L436.544,455.43 Q434.182,459.871 429.079,459.305 422.936,458.643 418.4,458.879 414.29,459.116 410.179,460.25 400.304,462.943 397.043,463.51 387.215,465.164 384.191,462.14 373.938,452.028 367.607,447.965 365.15,446.405 361.7,440.783 358.487,435.491 355.794,434.262 352.676,432.845 351.589,431.002 350.597,428.592 349.179,426.702 347.431,424.34 347.431,421.032 L347.762,418.197Z M265.547,223.007 Q260.349,216.061 252.222,215.731 244.19,215.447 242.394,221.59 241.166,225.795 247.403,239.356 254.207,254.051 254.207,258.917 254.207,264.115 254.443,282.353 254.443,299.127 253.261,304.75 251.986,310.892 254.254,313.019 256.049,314.672 259.876,313.775 M365.717,260.335 Q356.805,255.878 353.597,254.381 L353,255.468 Q354.282,257.453 353.432,261.752 352.298,267.659 348.376,270.635 343.556,274.368 334.059,274.037 325.034,273.707 320.735,267.847 318.089,264.115 316.907,256.956 305.668,261.288 302.874,265.06 M353.597,254.381 Q353.054,254.124 352.676,253.956 344.029,250.129 340.674,250.412 337.981,250.648 331.366,252.397 323.711,254.429 317.238,256.838 317.07,256.903 316.907,256.956 M341.619,256.555 L343.982,257.027 M355.322,283.015 Q358.724,281.503 361.181,278.337 363.827,274.888 363.827,271.202 M300.512,273.565 Q303.252,279.093 307.883,282.968 312.324,286.653 317.049,287.74 M316.577,296.245 Q321.491,300.545 323.57,301.395 328.956,303.569 336.894,300.497 M396.476,398.352 Q404.981,399.77 409.234,399.77 M396.949,420.56 Q400.587,420.087 401.627,420.134 403.847,420.229 407.344,421.505" test="JeanRenoFace"/>
      </g>
      <g id="TearAnimf0r1">
        <g id="TearGraphic">
          <path id="Layer5_0_1_STROKES" stroke="#0FF" stroke-width="1" stroke-linejoin="round" stroke-linecap="round" fill="none" d="M338.395,273.696 Q338.386,274.073 338.295,274.333 338.191,274.61 337.881,275.052 337.567,275.502 337.749,276.093 337.931,276.699 338.436,276.717 338.932,276.735 339.16,276.294 339.346,275.934 339.31,275.429 339.292,275.179 338.937,274.665 338.55,274.101 338.436,273.55" test="TearGraphic" vector-effect="non-scaling-stroke"/>
        </g>
      </g>
    </g>
    <g id="BlackMaskRect">
      <path fill="#000" stroke="none" d="M823.45,613.6 L823.45,508.3 -23.6,508.3 -23.6,613.6 823.45,613.6Z" test="BlackMaskRect"/>
    </g>
  </g>
</svg>