<?xml version="1.0" encoding="utf-8"?>
<svg id="EdithAnim07" image-rendering="inherit" baseProfile="basic" version="1.1" x="0px" y="0px" width="800" height="600" xmlns="http://www.w3.org/2000/svg" xmlns:xlink="http://www.w3.org/1999/xlink">
  <g id="Vinegarf1r1" overflow="visible">
    <g id="VinegarBottle">
      <path id="Layer1_0_1_STROKES" stroke="#F00" stroke-width="2" stroke-linejoin="round" stroke-linecap="round" fill="none" d="M784.45,163.4 Q785.5,162.85 802.85,159.7 811.55,158.15 820,156.65 828.45,156.65 847.5,159.6 857.05,161.1 864.85,162.55 M785.25,164.25 L793.75,226.9 799.9,227.75 Q808.4,228.6 820,228.6 831.65,228.6 846.9,226.05 854.5,224.8 859.8,223.5 L865.7,163.4 Q860.4,164.45 853.1,165.55 838.5,167.65 828.45,167.65 819.35,167.65 800.8,165.65 785.25,163.95 785.25,164.25Z M767.3,335.05 Q770.7,335.9 774.2,336.75 801.1,343.1 821.7,342.05 L828.85,341.5 Q837.85,340.65 847.2,339 866.1,335.7 881.7,330 M725.55,473 Q737.2,477.9 749.5,481.45 785.1,491.65 823.4,489.4 L834.65,489.45 Q848.7,489.1 862.65,487.15 896.3,482.5 919.95,470.25" test="VinegarBottle"/>
      <path id="Layer1_0_2_STROKES" stroke="#F60" stroke-width="2" stroke-linejoin="round" stroke-linecap="round" fill="none" d="M881.7,330 Q880.9,328.4 880.1,326.8 868.7,304 863.5,291.25 855.55,271.9 853.85,258.25 853.3,253.8 852.9,249.75 852.2,242.25 852.05,236.2 L852.15,229.45 M802.45,248.55 Q806.6,247.25 814.7,246.35 821.6,245.55 825.25,245.55 828.65,245.55 831.05,245.85 834.65,246.25 841.55,247.8 844.15,248.4 847.55,249.2 850.2,249.75 852.9,250.25 848.4,252.2 842.55,254.15 830.85,258.1 823.95,258.1 819.8,258.1 816.8,257.65 812.35,257.05 806.15,255.1 L794.75,251.25 802.45,248.55Z M881.7,330 Q892,350.7 898.45,364.05 900,367 901.6,369.9 901.85,370.35 902.15,370.85 919.85,409.8 920.5,452.55 920.65,461.5 919.95,470.25 916.7,510.9 895.7,546.95 891.25,554.4 886.05,561.2 884.75,561.4 883.5,561.6 868.7,564.55 854,566.65 806.45,574.1 760.7,560.25 755.85,558.05 753.1,554.6 748.3,548.55 739.8,526 731.8,504.8 727.7,488.55 725.95,481.65 725.55,473 725.05,463.4 726.2,451.6 728.2,430.8 733.55,409.4 738.85,387.95 755.75,356.75 762.5,344.3 767.3,335.05 774.55,320.95 777.5,314.05 782.3,302.5 789.4,273.5 792.4,261.3 794.4,251.2 794.45,251.05 794.45,250.95 L793.75,250.6 M794.4,251.2 L794.75,251.05 794.45,250.95 Q797.15,237.55 797.15,231.15" test="VinegarBottle"/>
      <path id="Layer1_0_3_STROKES" stroke="#FF0" stroke-width="2" stroke-linejoin="round" stroke-linecap="round" fill="none" d="M782.7,359.4 Q782.65,359.55 782.55,359.95 782.9,359.9 783.25,359.8 786.4,359 789.7,359 793.8,359 795,360.25 795.85,361.15 795.85,364.05 795.85,369 790.5,373.95 785.9,378.25 779.45,380.8 788.05,379.05 792.6,384.55 795.85,388.5 795.85,393.45 795.85,399.75 785.25,403.85 777.55,406.85 772.95,406.85 768.9,406.85 766.7,406.3 766.4,407.15 766.2,407.65 L766.3,406.2 Q765.8,406 765.45,405.85 763.1,404.25 760.7,403 M778.9,360.25 Q780.35,360.4 782.55,359.95 781.7,362.6 776.55,375.25 770.6,389.8 770,393.3 769.45,396.65 768.05,401.75 767.25,404.65 766.7,406.3 766.45,406.2 766.3,406.2 M806,392.85 Q812,392.1 814.4,388.45 815.75,386.35 815.75,383.75 815.75,382.75 814.9,381.85 814.1,381 813.2,381 808,381 804.3,388.2 801.35,394 801.35,398.55 801.35,401.3 802.2,403 803.35,405.15 805.75,405.15 808.55,405.15 814.4,401.05 818.9,397.85 819.95,396.65 M779.45,380.8 Q779.15,380.9 778.9,381 L778.5,381 Q778.95,380.9 779.45,380.8Z M776.35,423.7 Q770.55,457.1 770.4,457.85 768.55,467.65 767.05,469.85 M743.75,416.55 Q744,427.9 745,439.7 745.9,450.2 745.9,454.85 745.9,460.55 745.05,461.85 L745.05,462.7 Q750,450.95 755.8,436 760.8,423.1 761.15,421.65 M787.4,469.95 Q786.2,450.2 788.55,430.45 788.6,430.1 788.6,429.75 M788.85,429.3 Q789.1,429.6 789.35,429.9 801.4,443.9 804.65,465.55 805.1,468.55 805.55,471.6 805.4,467.25 807.6,450.4 810.1,431.4 810.1,428.45 M890.25,420.1 Q892.6,419.85 895.5,418.4 898.4,416.95 901.35,424.9 904.3,432.85 903.4,436.2 902.45,439.5 899.95,441.1 897.2,442.65 896.55,443.15 898.6,446.15 904.05,452.05 911,459.6 913.9,460.5 M869.95,381 Q869.5,378.5 865.3,377.8 864,377.6 860.2,377.6 856.75,377.6 855.55,378.9 854.7,379.85 854.7,382.05 854.7,384.9 860.2,389 865.7,393.1 865.7,397.1 865.7,399 863.6,399.65 862.35,400.05 859.55,400.05 856.3,400.05 855.65,399.7 853.95,398.8 853.4,394.55 M847.9,364.5 Q848.75,365.75 849.1,367.65 L849.6,370.4 M839.85,382.7 Q838,381.25 837.75,381.1 837.5,381 836.05,381 832.1,381 828.85,386.95 825.9,392.4 825.9,397.7 825.9,400.9 826.3,401.75 826.85,403 829.05,403 837.1,398.9 842,394.55 M863.15,428.2 Q861.15,427.15 860.5,426.85 859.65,426.5 857.4,426.5 852.15,426.5 849.15,436.65 847.05,443.8 847.05,449.55 847.05,460.75 847.9,463.75 848.75,466.7 851.9,466.7 855.65,466.7 858.1,463.85 860,461.65 863.15,454.85 L863.15,454.65 Q863.25,456.4 864.2,461.25 865.2,465.85 865.7,467.55 M823.7,430.2 Q823.7,430.75 823.9,435.1 824,440.6 823.75,447.1 824.25,447 828.5,446.6 832.85,446.25 833.7,446.05 M824,430.8 L829.75,429.65 Q835.6,428.5 836.4,428.5 M889.35,420.3 Q889.55,421.1 890.55,427 892,434.55 894.4,444 894.75,445.5 897.3,454.75 899.1,461.25 899.1,462.2 L899.5,462.2 M879.8,424 Q882.1,433.6 883.5,446.95 883.55,446.95 883.6,446.95 L883.65,446.55 883.85,448.55 885.25,463.45 M859.35,453.15 Q860.5,453.1 863.5,452.35 866.4,451.65 867.8,451.05 M878.1,448.65 Q882.7,447.1 883.5,446.95 883.55,447.75 883.85,448.55 M879.55,422.4 Q879.55,425.9 877.15,443.75 874.7,461.55 874.7,462.4 M823.75,447.1 Q823.45,454.1 822.9,472.05 826.65,471.1 830.75,469.9 833.4,469.35 835.85,470.15" test="VinegarBottle"/>
    </g>
  </g>
</svg>