<?xml version="1.0" encoding="utf-8"?>
<svg id="EdithAnim07" image-rendering="inherit" baseProfile="basic" version="1.1" x="0px" y="0px" width="800" height="600" xmlns="http://www.w3.org/2000/svg" xmlns:xlink="http://www.w3.org/1999/xlink">
  <g id="Vinegarf10r1" overflow="visible">
    <g id="VinegarBottle">
      <path id="Layer1_0_1_STROKES" stroke="#F00" stroke-width="2" stroke-linejoin="round" stroke-linecap="round" fill="none" d="M374.15,163.4 Q375.2,162.85 392.55,159.7 401.25,158.15 409.7,156.65 418.15,156.65 437.2,159.6 446.75,161.1 454.55,162.55 M374.95,164.25 L383.45,226.9 389.6,227.75 Q398.1,228.6 409.7,228.6 421.35,228.6 436.6,226.05 444.2,224.8 449.5,223.5 L455.4,163.4 Q450.1,164.45 442.8,165.55 428.2,167.65 418.15,167.65 409.05,167.65 390.5,165.65 374.95,163.95 374.95,164.25Z M357,335.05 Q360.4,335.9 363.9,336.75 390.8,343.1 411.4,342.05 L418.55,341.5 Q427.55,340.65 436.9,339 455.8,335.7 471.4,330 M315.25,473 Q326.9,477.9 339.2,481.45 374.8,491.65 413.1,489.4 L424.35,489.45 Q438.4,489.1 452.35,487.15 486,482.5 509.65,470.25" test="VinegarBottle"/>
      <path id="Layer1_0_2_STROKES" stroke="#F60" stroke-width="2" stroke-linejoin="round" stroke-linecap="round" fill="none" d="M471.4,330 Q470.6,328.4 469.8,326.8 458.4,304 453.2,291.25 445.25,271.9 443.55,258.25 443,253.8 442.6,249.75 441.9,242.25 441.75,236.2 L441.85,229.45 M392.15,248.55 Q396.3,247.25 404.4,246.35 411.3,245.55 414.95,245.55 418.35,245.55 420.75,245.85 424.35,246.25 431.25,247.8 433.85,248.4 437.25,249.2 439.9,249.75 442.6,250.25 438.1,252.2 432.25,254.15 420.55,258.1 413.65,258.1 409.5,258.1 406.5,257.65 402.05,257.05 395.85,255.1 L384.45,251.25 392.15,248.55Z M471.4,330 Q481.7,350.7 488.15,364.05 489.7,367 491.3,369.9 491.55,370.35 491.85,370.85 509.55,409.8 510.2,452.55 510.35,461.5 509.65,470.25 506.4,510.9 485.4,546.95 480.95,554.4 475.75,561.2 474.45,561.4 473.2,561.6 458.4,564.55 443.7,566.65 396.15,574.1 350.4,560.25 345.55,558.05 342.8,554.6 338,548.55 329.5,526 321.5,504.8 317.4,488.55 315.65,481.65 315.25,473 314.75,463.4 315.9,451.6 317.9,430.8 323.25,409.4 328.55,387.95 345.45,356.75 352.2,344.3 357,335.05 364.25,320.95 367.2,314.05 372,302.5 379.1,273.5 382.1,261.3 384.1,251.2 384.15,251.05 384.15,250.95 L383.45,250.6 M384.1,251.2 L384.45,251.05 384.15,250.95 Q386.85,237.55 386.85,231.15" test="VinegarBottle"/>
      <path id="Layer1_0_3_STROKES" stroke="#FF0" stroke-width="2" stroke-linejoin="round" stroke-linecap="round" fill="none" d="M372.4,359.4 Q372.35,359.55 372.25,359.95 372.6,359.9 372.95,359.8 376.1,359 379.4,359 383.5,359 384.7,360.25 385.55,361.15 385.55,364.05 385.55,369 380.2,373.95 375.6,378.25 369.15,380.8 377.75,379.05 382.3,384.55 385.55,388.5 385.55,393.45 385.55,399.75 374.95,403.85 367.25,406.85 362.65,406.85 358.6,406.85 356.4,406.3 356.1,407.15 355.9,407.65 L356,406.2 Q355.5,406 355.15,405.85 352.8,404.25 350.4,403 M368.6,360.25 Q370.05,360.4 372.25,359.95 371.4,362.6 366.25,375.25 360.3,389.8 359.7,393.3 359.15,396.65 357.75,401.75 356.95,404.65 356.4,406.3 356.15,406.2 356,406.2 M395.7,392.85 Q401.7,392.1 404.1,388.45 405.45,386.35 405.45,383.75 405.45,382.75 404.6,381.85 403.8,381 402.9,381 397.7,381 394,388.2 391.05,394 391.05,398.55 391.05,401.3 391.9,403 393.05,405.15 395.45,405.15 398.25,405.15 404.1,401.05 408.6,397.85 409.65,396.65 M369.15,380.8 Q368.85,380.9 368.6,381 L368.2,381 Q368.65,380.9 369.15,380.8Z M366.05,423.7 Q360.25,457.1 360.1,457.85 358.25,467.65 356.75,469.85 M333.45,416.55 Q333.7,427.9 334.7,439.7 335.6,450.2 335.6,454.85 335.6,460.55 334.75,461.85 L334.75,462.7 Q339.7,450.95 345.5,436 350.5,423.1 350.85,421.65 M377.1,469.95 Q375.9,450.2 378.25,430.45 378.3,430.1 378.3,429.75 M378.55,429.3 Q378.8,429.6 379.05,429.9 391.1,443.9 394.35,465.55 394.8,468.55 395.25,471.6 395.1,467.25 397.3,450.4 399.8,431.4 399.8,428.45 M479.95,420.1 Q482.3,419.85 485.2,418.4 488.1,416.95 491.05,424.9 494,432.85 493.1,436.2 492.15,439.5 489.65,441.1 486.9,442.65 486.25,443.15 488.3,446.15 493.75,452.05 500.7,459.6 503.6,460.5 M459.65,381 Q459.2,378.5 455,377.8 453.7,377.6 449.9,377.6 446.45,377.6 445.25,378.9 444.4,379.85 444.4,382.05 444.4,384.9 449.9,389 455.4,393.1 455.4,397.1 455.4,399 453.3,399.65 452.05,400.05 449.25,400.05 446,400.05 445.35,399.7 443.65,398.8 443.1,394.55 M437.6,364.5 Q438.45,365.75 438.8,367.65 L439.3,370.4 M429.55,382.7 Q427.7,381.25 427.45,381.1 427.2,381 425.75,381 421.8,381 418.55,386.95 415.6,392.4 415.6,397.7 415.6,400.9 416,401.75 416.55,403 418.75,403 426.8,398.9 431.7,394.55 M452.85,428.2 Q450.85,427.15 450.2,426.85 449.35,426.5 447.1,426.5 441.85,426.5 438.85,436.65 436.75,443.8 436.75,449.55 436.75,460.75 437.6,463.75 438.45,466.7 441.6,466.7 445.35,466.7 447.8,463.85 449.7,461.65 452.85,454.85 L452.85,454.65 Q452.95,456.4 453.9,461.25 454.9,465.85 455.4,467.55 M413.4,430.2 Q413.4,430.75 413.6,435.1 413.7,440.6 413.45,447.1 413.95,447 418.2,446.6 422.55,446.25 423.4,446.05 M413.7,430.8 L419.45,429.65 Q425.3,428.5 426.1,428.5 M479.05,420.3 Q479.25,421.1 480.25,427 481.7,434.55 484.1,444 484.45,445.5 487,454.75 488.8,461.25 488.8,462.2 L489.2,462.2 M469.5,424 Q471.8,433.6 473.2,446.95 473.25,446.95 473.3,446.95 L473.35,446.55 473.55,448.55 474.95,463.45 M449.05,453.15 Q450.2,453.1 453.2,452.35 456.1,451.65 457.5,451.05 M467.8,448.65 Q472.4,447.1 473.2,446.95 473.25,447.75 473.55,448.55 M469.25,422.4 Q469.25,425.9 466.85,443.75 464.4,461.55 464.4,462.4 M413.45,447.1 Q413.15,454.1 412.6,472.05 416.35,471.1 420.45,469.9 423.1,469.35 425.55,470.15" test="VinegarBottle"/>
    </g>
  </g>
</svg>