<?xml version="1.0" encoding="utf-8"?>
<svg id="EdithAnim07" image-rendering="inherit" baseProfile="basic" version="1.1" x="0px" y="0px" width="800" height="600" xmlns="http://www.w3.org/2000/svg" xmlns:xlink="http://www.w3.org/1999/xlink">
  <g id="Vinegarf106r1" overflow="visible">
    <g id="VinegarBottle">
      <path id="Layer2_0_1_STROKES" stroke="#F00" stroke-width="2" stroke-linejoin="round" stroke-linecap="round" fill="none" d="M368.95,163.4 Q370,162.85 387.35,159.7 396.05,158.15 404.5,156.65 412.95,156.65 432,159.6 441.55,161.1 449.35,162.55 M369.75,164.25 L378.25,226.9 384.4,227.75 Q392.9,228.6 404.5,228.6 416.15,228.6 431.4,226.05 439,224.8 444.3,223.5 L450.2,163.4 Q444.9,164.45 437.6,165.55 423,167.65 412.95,167.65 403.85,167.65 385.3,165.65 369.75,163.95 369.75,164.25Z M351.8,335.05 Q355.2,335.9 358.7,336.75 385.6,343.1 406.2,342.05 L413.35,341.5 Q422.35,340.65 431.7,339 450.6,335.7 466.2,330 M310.05,473 Q321.7,477.9 334,481.45 369.6,491.65 407.9,489.4 L419.15,489.45 Q433.2,489.1 447.15,487.15 480.8,482.5 504.45,470.25" test="VinegarBottle"/>
      <path id="Layer2_0_2_STROKES" stroke="#F60" stroke-width="2" stroke-linejoin="round" stroke-linecap="round" fill="none" d="M466.2,330 Q465.4,328.4 464.6,326.8 453.2,304 448,291.25 440.05,271.9 438.35,258.25 437.8,253.8 437.4,249.75 436.7,242.25 436.55,236.2 L436.65,229.45 M386.95,248.55 Q391.1,247.25 399.2,246.35 406.1,245.55 409.75,245.55 413.15,245.55 415.55,245.85 419.15,246.25 426.05,247.8 428.65,248.4 432.05,249.2 434.7,249.75 437.4,250.25 432.9,252.2 427.05,254.15 415.35,258.1 408.45,258.1 404.3,258.1 401.3,257.65 396.85,257.05 390.65,255.1 L379.25,251.25 386.95,248.55Z M466.2,330 Q476.5,350.7 482.95,364.05 484.5,367 486.1,369.9 486.35,370.35 486.65,370.85 504.35,409.8 505,452.55 505.15,461.5 504.45,470.25 501.2,510.9 480.2,546.95 475.75,554.4 470.55,561.2 469.25,561.4 468,561.6 453.2,564.55 438.5,566.65 390.95,574.1 345.2,560.25 340.35,558.05 337.6,554.6 332.8,548.55 324.3,526 316.3,504.8 312.2,488.55 310.45,481.65 310.05,473 309.55,463.4 310.7,451.6 312.7,430.8 318.05,409.4 323.35,387.95 340.25,356.75 347,344.3 351.8,335.05 359.05,320.95 362,314.05 366.8,302.5 373.9,273.5 376.9,261.3 378.9,251.2 378.95,251.05 378.95,250.95 L378.25,250.6 M378.9,251.2 L379.25,251.05 378.95,250.95 Q381.65,237.55 381.65,231.15" test="VinegarBottle"/>
      <path id="Layer2_0_3_STROKES" stroke="#FF0" stroke-width="2" stroke-linejoin="round" stroke-linecap="round" fill="none" d="M367.2,359.4 Q367.15,359.55 367.05,359.95 367.4,359.9 367.75,359.8 370.9,359 374.2,359 378.3,359 379.5,360.25 380.35,361.15 380.35,364.05 380.35,369 375,373.95 370.4,378.25 363.95,380.8 372.55,379.05 377.1,384.55 380.35,388.5 380.35,393.45 380.35,399.75 369.75,403.85 362.05,406.85 357.45,406.85 353.4,406.85 351.2,406.3 350.9,407.15 350.7,407.65 L350.8,406.2 Q350.3,406 349.95,405.85 347.6,404.25 345.2,403 M363.4,360.25 Q364.85,360.4 367.05,359.95 366.2,362.6 361.05,375.25 355.1,389.8 354.5,393.3 353.95,396.65 352.55,401.75 351.75,404.65 351.2,406.3 350.95,406.2 350.8,406.2 M390.5,392.85 Q396.5,392.1 398.9,388.45 400.25,386.35 400.25,383.75 400.25,382.75 399.4,381.85 398.6,381 397.7,381 392.5,381 388.8,388.2 385.85,394 385.85,398.55 385.85,401.3 386.7,403 387.85,405.15 390.25,405.15 393.05,405.15 398.9,401.05 403.4,397.85 404.45,396.65 M363.95,380.8 Q363.65,380.9 363.4,381 L363,381 Q363.45,380.9 363.95,380.8Z M360.85,423.7 Q355.05,457.1 354.9,457.85 353.05,467.65 351.55,469.85 M328.25,416.55 Q328.5,427.9 329.5,439.7 330.4,450.2 330.4,454.85 330.4,460.55 329.55,461.85 L329.55,462.7 Q334.5,450.95 340.3,436 345.3,423.1 345.65,421.65 M371.9,469.95 Q370.7,450.2 373.05,430.45 373.1,430.1 373.1,429.75 M373.35,429.3 Q373.6,429.6 373.85,429.9 385.9,443.9 389.15,465.55 389.6,468.55 390.05,471.6 389.9,467.25 392.1,450.4 394.6,431.4 394.6,428.45 M474.75,420.1 Q477.1,419.85 480,418.4 482.9,416.95 485.85,424.9 488.8,432.85 487.9,436.2 486.95,439.5 484.45,441.1 481.7,442.65 481.05,443.15 483.1,446.15 488.55,452.05 495.5,459.6 498.4,460.5 M454.45,381 Q454,378.5 449.8,377.8 448.5,377.6 444.7,377.6 441.25,377.6 440.05,378.9 439.2,379.85 439.2,382.05 439.2,384.9 444.7,389 450.2,393.1 450.2,397.1 450.2,399 448.1,399.65 446.85,400.05 444.05,400.05 440.8,400.05 440.15,399.7 438.45,398.8 437.9,394.55 M432.4,364.5 Q433.25,365.75 433.6,367.65 L434.1,370.4 M424.35,382.7 Q422.5,381.25 422.25,381.1 422,381 420.55,381 416.6,381 413.35,386.95 410.4,392.4 410.4,397.7 410.4,400.9 410.8,401.75 411.35,403 413.55,403 421.6,398.9 426.5,394.55 M447.65,428.2 Q445.65,427.15 445,426.85 444.15,426.5 441.9,426.5 436.65,426.5 433.65,436.65 431.55,443.8 431.55,449.55 431.55,460.75 432.4,463.75 433.25,466.7 436.4,466.7 440.15,466.7 442.6,463.85 444.5,461.65 447.65,454.85 L447.65,454.65 Q447.75,456.4 448.7,461.25 449.7,465.85 450.2,467.55 M408.2,430.2 Q408.2,430.75 408.4,435.1 408.5,440.6 408.25,447.1 408.75,447 413,446.6 417.35,446.25 418.2,446.05 M408.5,430.8 L414.25,429.65 Q420.1,428.5 420.9,428.5 M473.85,420.3 Q474.05,421.1 475.05,427 476.5,434.55 478.9,444 479.25,445.5 481.8,454.75 483.6,461.25 483.6,462.2 L484,462.2 M464.3,424 Q466.6,433.6 468,446.95 468.05,446.95 468.1,446.95 L468.15,446.55 468.35,448.55 469.75,463.45 M443.85,453.15 Q445,453.1 448,452.35 450.9,451.65 452.3,451.05 M462.6,448.65 Q467.2,447.1 468,446.95 468.05,447.75 468.35,448.55 M464.05,422.4 Q464.05,425.9 461.65,443.75 459.2,461.55 459.2,462.4 M408.25,447.1 Q407.95,454.1 407.4,472.05 411.15,471.1 415.25,469.9 417.9,469.35 420.35,470.15" test="VinegarBottle"/>
    </g>
    <g id="Yum-Splash">
      <path fill="#000" stroke="none" d="M617.45,270.4 L649.4,200.9 590.75,214.65 Q590.5,217 583.45,118.15 L517,154.6 469.65,118.9 449.55,201.65 372.25,215.25 408.85,256.35 382.4,313.8 451.45,321.05 446.15,383.05 498.05,365.05 548.05,416.05 614.45,339.25 683.5,323.65 617.45,270.4Z" test="Yum Splash"/>
      <path id="Layer1_0_1_STROKES" stroke="#FFF" stroke-width="2" stroke-linejoin="round" stroke-linecap="round" fill="none" d="M590.75,214.65 L649.4,200.9 617.45,270.4 683.5,323.65 614.45,339.25 548.05,416.05 498.05,365.05 446.15,383.05 451.45,321.05 382.4,313.8 408.85,256.35 372.25,215.25 449.55,201.65 469.65,118.9 517,154.6 583.45,118.15 Q590.5,217 590.75,214.65Z" test="Yum Splash"/>
      <g id="Yum">
        <path id="Layer3_0_1_STROKES" stroke="#F00" stroke-width="2" stroke-linejoin="round" stroke-linecap="round" fill="none" d="M472.75,196.4 L470.65,202.25 Q468.55,209.15 468.5,213.8 468.5,218.7 472.1,227.95 474.65,234.75 477.3,239.55 479.25,243.1 480.2,244.3 481.35,245.9 482.65,246.3 M497.4,249.1 Q488.55,257.45 483.15,266.55 475.85,278.8 480.55,284.75 485.25,290.8 495.4,285.6 503.55,281.45 508.95,274.45 512.75,269.55 514.2,266.15 515.4,263.3 516.15,258.35 M508,221.15 Q499.7,228.75 486.75,243.2 470.7,261.2 465.95,270.3 M502.1,308.8 L507.95,300.85 Q514.9,291.65 520,285.5 525.85,278.4 531.05,274.6 535.9,271.15 537.45,272.45 538,273 536.75,277.5 536,280.2 533.9,287.35 529.95,301.95 533.5,304.8 537.1,307.7 552.95,297.3 556.9,294.7 563.85,290 569.05,286.6 569.95,287 571.25,287.55 558,312.25 544.25,337.85 545.5,341.15 M615.75,291.85 Q608.4,299.1 600.6,307.15 584.9,323.3 582.45,327.4 M568.8,343.4 Q566.3,343.25 565.05,344.15 564.35,344.6 564.3,345.2 564,346.95 566.9,347.4 568.95,347.7 569.55,347.25 569.8,347 570.3,345.5" test="Yum"/>
      </g>
    </g>
  </g>
</svg>