<?xml version="1.0" encoding="utf-8"?>
<svg id="EdithAnim07" image-rendering="inherit" baseProfile="basic" version="1.1" x="0px" y="0px" width="800" height="600" xmlns="http://www.w3.org/2000/svg" xmlns:xlink="http://www.w3.org/1999/xlink">
  <g id="Vinegarf109r1" overflow="visible">
    <g id="VinegarBottle">
      <path id="Layer2_0_1_STROKES" stroke="#F00" stroke-width="2" stroke-linejoin="round" stroke-linecap="round" fill="none" d="M377.9,163.4 Q378.95,162.85 396.3,159.7 405,158.15 413.45,156.65 421.9,156.65 440.95,159.6 450.5,161.1 458.3,162.55 M378.7,164.25 L387.2,226.9 393.35,227.75 Q401.85,228.6 413.45,228.6 425.1,228.6 440.35,226.05 447.95,224.8 453.25,223.5 L459.15,163.4 Q453.85,164.45 446.55,165.55 431.95,167.65 421.9,167.65 412.8,167.65 394.25,165.65 378.7,163.95 378.7,164.25Z M360.75,335.05 Q364.15,335.9 367.65,336.75 394.55,343.1 415.15,342.05 L422.3,341.5 Q431.3,340.65 440.65,339 459.55,335.7 475.15,330 M319,473 Q330.65,477.9 342.95,481.45 378.55,491.65 416.85,489.4 L428.1,489.45 Q442.15,489.1 456.1,487.15 489.75,482.5 513.4,470.25" test="VinegarBottle"/>
      <path id="Layer2_0_2_STROKES" stroke="#F60" stroke-width="2" stroke-linejoin="round" stroke-linecap="round" fill="none" d="M475.15,330 Q474.35,328.4 473.55,326.8 462.15,304 456.95,291.25 449,271.9 447.3,258.25 446.75,253.8 446.35,249.75 445.65,242.25 445.5,236.2 L445.6,229.45 M395.9,248.55 Q400.05,247.25 408.15,246.35 415.05,245.55 418.7,245.55 422.1,245.55 424.5,245.85 428.1,246.25 435,247.8 437.6,248.4 441,249.2 443.65,249.75 446.35,250.25 441.85,252.2 436,254.15 424.3,258.1 417.4,258.1 413.25,258.1 410.25,257.65 405.8,257.05 399.6,255.1 L388.2,251.25 395.9,248.55Z M475.15,330 Q485.45,350.7 491.9,364.05 493.45,367 495.05,369.9 495.3,370.35 495.6,370.85 513.3,409.8 513.95,452.55 514.1,461.5 513.4,470.25 510.15,510.9 489.15,546.95 484.7,554.4 479.5,561.2 478.2,561.4 476.95,561.6 462.15,564.55 447.45,566.65 399.9,574.1 354.15,560.25 349.3,558.05 346.55,554.6 341.75,548.55 333.25,526 325.25,504.8 321.15,488.55 319.4,481.65 319,473 318.5,463.4 319.65,451.6 321.65,430.8 327,409.4 332.3,387.95 349.2,356.75 355.95,344.3 360.75,335.05 368,320.95 370.95,314.05 375.75,302.5 382.85,273.5 385.85,261.3 387.85,251.2 387.9,251.05 387.9,250.95 L387.2,250.6 M387.85,251.2 L388.2,251.05 387.9,250.95 Q390.6,237.55 390.6,231.15" test="VinegarBottle"/>
      <path id="Layer2_0_3_STROKES" stroke="#FF0" stroke-width="2" stroke-linejoin="round" stroke-linecap="round" fill="none" d="M376.15,359.4 Q376.1,359.55 376,359.95 376.35,359.9 376.7,359.8 379.85,359 383.15,359 387.25,359 388.45,360.25 389.3,361.15 389.3,364.05 389.3,369 383.95,373.95 379.35,378.25 372.9,380.8 381.5,379.05 386.05,384.55 389.3,388.5 389.3,393.45 389.3,399.75 378.7,403.85 371,406.85 366.4,406.85 362.35,406.85 360.15,406.3 359.85,407.15 359.65,407.65 L359.75,406.2 Q359.25,406 358.9,405.85 356.55,404.25 354.15,403 M372.35,360.25 Q373.8,360.4 376,359.95 375.15,362.6 370,375.25 364.05,389.8 363.45,393.3 362.9,396.65 361.5,401.75 360.7,404.65 360.15,406.3 359.9,406.2 359.75,406.2 M399.45,392.85 Q405.45,392.1 407.85,388.45 409.2,386.35 409.2,383.75 409.2,382.75 408.35,381.85 407.55,381 406.65,381 401.45,381 397.75,388.2 394.8,394 394.8,398.55 394.8,401.3 395.65,403 396.8,405.15 399.2,405.15 402,405.15 407.85,401.05 412.35,397.85 413.4,396.65 M372.9,380.8 Q372.6,380.9 372.35,381 L371.95,381 Q372.4,380.9 372.9,380.8Z M369.8,423.7 Q364,457.1 363.85,457.85 362,467.65 360.5,469.85 M337.2,416.55 Q337.45,427.9 338.45,439.7 339.35,450.2 339.35,454.85 339.35,460.55 338.5,461.85 L338.5,462.7 Q343.45,450.95 349.25,436 354.25,423.1 354.6,421.65 M380.85,469.95 Q379.65,450.2 382,430.45 382.05,430.1 382.05,429.75 M382.3,429.3 Q382.55,429.6 382.8,429.9 394.85,443.9 398.1,465.55 398.55,468.55 399,471.6 398.85,467.25 401.05,450.4 403.55,431.4 403.55,428.45 M483.7,420.1 Q486.05,419.85 488.95,418.4 491.85,416.95 494.8,424.9 497.75,432.85 496.85,436.2 495.9,439.5 493.4,441.1 490.65,442.65 490,443.15 492.05,446.15 497.5,452.05 504.45,459.6 507.35,460.5 M463.4,381 Q462.95,378.5 458.75,377.8 457.45,377.6 453.65,377.6 450.2,377.6 449,378.9 448.15,379.85 448.15,382.05 448.15,384.9 453.65,389 459.15,393.1 459.15,397.1 459.15,399 457.05,399.65 455.8,400.05 453,400.05 449.75,400.05 449.1,399.7 447.4,398.8 446.85,394.55 M441.35,364.5 Q442.2,365.75 442.55,367.65 L443.05,370.4 M433.3,382.7 Q431.45,381.25 431.2,381.1 430.95,381 429.5,381 425.55,381 422.3,386.95 419.35,392.4 419.35,397.7 419.35,400.9 419.75,401.75 420.3,403 422.5,403 430.55,398.9 435.45,394.55 M456.6,428.2 Q454.6,427.15 453.95,426.85 453.1,426.5 450.85,426.5 445.6,426.5 442.6,436.65 440.5,443.8 440.5,449.55 440.5,460.75 441.35,463.75 442.2,466.7 445.35,466.7 449.1,466.7 451.55,463.85 453.45,461.65 456.6,454.85 L456.6,454.65 Q456.7,456.4 457.65,461.25 458.65,465.85 459.15,467.55 M417.15,430.2 Q417.15,430.75 417.35,435.1 417.45,440.6 417.2,447.1 417.7,447 421.95,446.6 426.3,446.25 427.15,446.05 M417.45,430.8 L423.2,429.65 Q429.05,428.5 429.85,428.5 M482.8,420.3 Q483,421.1 484,427 485.45,434.55 487.85,444 488.2,445.5 490.75,454.75 492.55,461.25 492.55,462.2 L492.95,462.2 M473.25,424 Q475.55,433.6 476.95,446.95 477,446.95 477.05,446.95 L477.1,446.55 477.3,448.55 478.7,463.45 M452.8,453.15 Q453.95,453.1 456.95,452.35 459.85,451.65 461.25,451.05 M471.55,448.65 Q476.15,447.1 476.95,446.95 477,447.75 477.3,448.55 M473,422.4 Q473,425.9 470.6,443.75 468.15,461.55 468.15,462.4 M417.2,447.1 Q416.9,454.1 416.35,472.05 420.1,471.1 424.2,469.9 426.85,469.35 429.3,470.15" test="VinegarBottle"/>
    </g>
    <g id="Yum-Splash">
      <path fill="#000" stroke="none" d="M629.4,270.4 L661.35,200.9 602.7,214.65 Q602.45,217 595.4,118.15 L528.95,154.6 481.6,118.9 461.5,201.65 384.2,215.25 420.8,256.35 394.35,313.8 463.4,321.05 458.1,383.05 510,365.05 560,416.05 626.4,339.25 695.45,323.65 629.4,270.4Z" test="Yum Splash"/>
      <path id="Layer1_0_1_STROKES" stroke="#FFF" stroke-width="2" stroke-linejoin="round" stroke-linecap="round" fill="none" d="M602.7,214.65 L661.35,200.9 629.4,270.4 695.45,323.65 626.4,339.25 560,416.05 510,365.05 458.1,383.05 463.4,321.05 394.35,313.8 420.8,256.35 384.2,215.25 461.5,201.65 481.6,118.9 528.95,154.6 595.4,118.15 Q602.45,217 602.7,214.65Z" test="Yum Splash"/>
      <g id="Yum">
        <path id="Layer3_0_1_STROKES" stroke="#F00" stroke-width="2" stroke-linejoin="round" stroke-linecap="round" fill="none" d="M484.7,196.4 L482.6,202.25 Q480.5,209.15 480.45,213.8 480.45,218.7 484.05,227.95 486.6,234.75 489.25,239.55 491.2,243.1 492.15,244.3 493.3,245.9 494.6,246.3 M509.35,249.1 Q500.5,257.45 495.1,266.55 487.8,278.8 492.5,284.75 497.2,290.8 507.35,285.6 515.5,281.45 520.9,274.45 524.7,269.55 526.15,266.15 527.35,263.3 528.1,258.35 M519.95,221.15 Q511.65,228.75 498.7,243.2 482.65,261.2 477.9,270.3 M514.05,308.8 L519.9,300.85 Q526.85,291.65 531.95,285.5 537.8,278.4 543,274.6 547.85,271.15 549.4,272.45 549.95,273 548.7,277.5 547.95,280.2 545.85,287.35 541.9,301.95 545.45,304.8 549.05,307.7 564.9,297.3 568.85,294.7 575.8,290 581,286.6 581.9,287 583.2,287.55 569.95,312.25 556.2,337.85 557.45,341.15 M627.7,291.85 Q620.35,299.1 612.55,307.15 596.85,323.3 594.4,327.4 M580.75,343.4 Q578.25,343.25 577,344.15 576.3,344.6 576.25,345.2 575.95,346.95 578.85,347.4 580.9,347.7 581.5,347.25 581.75,347 582.25,345.5" test="Yum"/>
      </g>
    </g>
  </g>
</svg>