<?xml version="1.0" encoding="utf-8"?>
<svg id="EdithAnim07" image-rendering="inherit" baseProfile="basic" version="1.1" x="0px" y="0px" width="800" height="600" xmlns="http://www.w3.org/2000/svg" xmlns:xlink="http://www.w3.org/1999/xlink">
  <g id="Vinegarf115r1" overflow="visible">
    <g id="VinegarBottle">
      <path id="Layer2_0_1_STROKES" stroke="#F00" stroke-width="2" stroke-linejoin="round" stroke-linecap="round" fill="none" d="M428,163.4 Q429.05,162.85 446.4,159.7 455.1,158.15 463.55,156.65 472,156.65 491.05,159.6 500.6,161.1 508.4,162.55 M428.8,164.25 L437.3,226.9 443.45,227.75 Q451.95,228.6 463.55,228.6 475.2,228.6 490.45,226.05 498.05,224.8 503.35,223.5 L509.25,163.4 Q503.95,164.45 496.65,165.55 482.05,167.65 472,167.65 462.9,167.65 444.35,165.65 428.8,163.95 428.8,164.25Z M410.85,335.05 Q414.25,335.9 417.75,336.75 444.65,343.1 465.25,342.05 L472.4,341.5 Q481.4,340.65 490.75,339 509.65,335.7 525.25,330 M369.1,473 Q380.75,477.9 393.05,481.45 428.65,491.65 466.95,489.4 L478.2,489.45 Q492.25,489.1 506.2,487.15 539.85,482.5 563.5,470.25" test="VinegarBottle"/>
      <path id="Layer2_0_2_STROKES" stroke="#F60" stroke-width="2" stroke-linejoin="round" stroke-linecap="round" fill="none" d="M525.25,330 Q524.45,328.4 523.65,326.8 512.25,304 507.05,291.25 499.1,271.9 497.4,258.25 496.85,253.8 496.45,249.75 495.75,242.25 495.6,236.2 L495.7,229.45 M446,248.55 Q450.15,247.25 458.25,246.35 465.15,245.55 468.8,245.55 472.2,245.55 474.6,245.85 478.2,246.25 485.1,247.8 487.7,248.4 491.1,249.2 493.75,249.75 496.45,250.25 491.95,252.2 486.1,254.15 474.4,258.1 467.5,258.1 463.35,258.1 460.35,257.65 455.9,257.05 449.7,255.1 L438.3,251.25 446,248.55Z M525.25,330 Q535.55,350.7 542,364.05 543.55,367 545.15,369.9 545.4,370.35 545.7,370.85 563.4,409.8 564.05,452.55 564.2,461.5 563.5,470.25 560.25,510.9 539.25,546.95 534.8,554.4 529.6,561.2 528.3,561.4 527.05,561.6 512.25,564.55 497.55,566.65 450,574.1 404.25,560.25 399.4,558.05 396.65,554.6 391.85,548.55 383.35,526 375.35,504.8 371.25,488.55 369.5,481.65 369.1,473 368.6,463.4 369.75,451.6 371.75,430.8 377.1,409.4 382.4,387.95 399.3,356.75 406.05,344.3 410.85,335.05 418.1,320.95 421.05,314.05 425.85,302.5 432.95,273.5 435.95,261.3 437.95,251.2 438,251.05 438,250.95 L437.3,250.6 M437.95,251.2 L438.3,251.05 438,250.95 Q440.7,237.55 440.7,231.15" test="VinegarBottle"/>
      <path id="Layer2_0_3_STROKES" stroke="#FF0" stroke-width="2" stroke-linejoin="round" stroke-linecap="round" fill="none" d="M426.25,359.4 Q426.2,359.55 426.1,359.95 426.45,359.9 426.8,359.8 429.95,359 433.25,359 437.35,359 438.55,360.25 439.4,361.15 439.4,364.05 439.4,369 434.05,373.95 429.45,378.25 423,380.8 431.6,379.05 436.15,384.55 439.4,388.5 439.4,393.45 439.4,399.75 428.8,403.85 421.1,406.85 416.5,406.85 412.45,406.85 410.25,406.3 409.95,407.15 409.75,407.65 L409.85,406.2 Q409.35,406 409,405.85 406.65,404.25 404.25,403 M422.45,360.25 Q423.9,360.4 426.1,359.95 425.25,362.6 420.1,375.25 414.15,389.8 413.55,393.3 413,396.65 411.6,401.75 410.8,404.65 410.25,406.3 410,406.2 409.85,406.2 M449.55,392.85 Q455.55,392.1 457.95,388.45 459.3,386.35 459.3,383.75 459.3,382.75 458.45,381.85 457.65,381 456.75,381 451.55,381 447.85,388.2 444.9,394 444.9,398.55 444.9,401.3 445.75,403 446.9,405.15 449.3,405.15 452.1,405.15 457.95,401.05 462.45,397.85 463.5,396.65 M423,380.8 Q422.7,380.9 422.45,381 L422.05,381 Q422.5,380.9 423,380.8Z M419.9,423.7 Q414.1,457.1 413.95,457.85 412.1,467.65 410.6,469.85 M387.3,416.55 Q387.55,427.9 388.55,439.7 389.45,450.2 389.45,454.85 389.45,460.55 388.6,461.85 L388.6,462.7 Q393.55,450.95 399.35,436 404.35,423.1 404.7,421.65 M430.95,469.95 Q429.75,450.2 432.1,430.45 432.15,430.1 432.15,429.75 M432.4,429.3 Q432.65,429.6 432.9,429.9 444.95,443.9 448.2,465.55 448.65,468.55 449.1,471.6 448.95,467.25 451.15,450.4 453.65,431.4 453.65,428.45 M533.8,420.1 Q536.15,419.85 539.05,418.4 541.95,416.95 544.9,424.9 547.85,432.85 546.95,436.2 546,439.5 543.5,441.1 540.75,442.65 540.1,443.15 542.15,446.15 547.6,452.05 554.55,459.6 557.45,460.5 M513.5,381 Q513.05,378.5 508.85,377.8 507.55,377.6 503.75,377.6 500.3,377.6 499.1,378.9 498.25,379.85 498.25,382.05 498.25,384.9 503.75,389 509.25,393.1 509.25,397.1 509.25,399 507.15,399.65 505.9,400.05 503.1,400.05 499.85,400.05 499.2,399.7 497.5,398.8 496.95,394.55 M491.45,364.5 Q492.3,365.75 492.65,367.65 L493.15,370.4 M483.4,382.7 Q481.55,381.25 481.3,381.1 481.05,381 479.6,381 475.65,381 472.4,386.95 469.45,392.4 469.45,397.7 469.45,400.9 469.85,401.75 470.4,403 472.6,403 480.65,398.9 485.55,394.55 M506.7,428.2 Q504.7,427.15 504.05,426.85 503.2,426.5 500.95,426.5 495.7,426.5 492.7,436.65 490.6,443.8 490.6,449.55 490.6,460.75 491.45,463.75 492.3,466.7 495.45,466.7 499.2,466.7 501.65,463.85 503.55,461.65 506.7,454.85 L506.7,454.65 Q506.8,456.4 507.75,461.25 508.75,465.85 509.25,467.55 M467.25,430.2 Q467.25,430.75 467.45,435.1 467.55,440.6 467.3,447.1 467.8,447 472.05,446.6 476.4,446.25 477.25,446.05 M467.55,430.8 L473.3,429.65 Q479.15,428.5 479.95,428.5 M532.9,420.3 Q533.1,421.1 534.1,427 535.55,434.55 537.95,444 538.3,445.5 540.85,454.75 542.65,461.25 542.65,462.2 L543.05,462.2 M523.35,424 Q525.65,433.6 527.05,446.95 527.1,446.95 527.15,446.95 L527.2,446.55 527.4,448.55 528.8,463.45 M502.9,453.15 Q504.05,453.1 507.05,452.35 509.95,451.65 511.35,451.05 M521.65,448.65 Q526.25,447.1 527.05,446.95 527.1,447.75 527.4,448.55 M523.1,422.4 Q523.1,425.9 520.7,443.75 518.25,461.55 518.25,462.4 M467.3,447.1 Q467,454.1 466.45,472.05 470.2,471.1 474.3,469.9 476.95,469.35 479.4,470.15" test="VinegarBottle"/>
    </g>
    <g id="Yum-Splash">
      <path fill="#000" stroke="none" d="M696.5,270.4 L728.45,200.9 669.8,214.65 Q669.55,217 662.5,118.15 L596.05,154.6 548.7,118.9 528.6,201.65 451.3,215.25 487.9,256.35 461.45,313.8 530.5,321.05 525.2,383.05 577.1,365.05 627.1,416.05 693.5,339.25 762.55,323.65 696.5,270.4Z" test="Yum Splash"/>
      <path id="Layer1_0_1_STROKES" stroke="#FFF" stroke-width="2" stroke-linejoin="round" stroke-linecap="round" fill="none" d="M669.8,214.65 L728.45,200.9 696.5,270.4 762.55,323.65 693.5,339.25 627.1,416.05 577.1,365.05 525.2,383.05 530.5,321.05 461.45,313.8 487.9,256.35 451.3,215.25 528.6,201.65 548.7,118.9 596.05,154.6 662.5,118.15 Q669.55,217 669.8,214.65Z" test="Yum Splash"/>
      <g id="Yum">
        <path id="Layer3_0_1_STROKES" stroke="#F00" stroke-width="2" stroke-linejoin="round" stroke-linecap="round" fill="none" d="M551.8,196.4 L549.7,202.25 Q547.6,209.15 547.55,213.8 547.55,218.7 551.15,227.95 553.7,234.75 556.35,239.55 558.3,243.1 559.25,244.3 560.4,245.9 561.7,246.3 M576.45,249.1 Q567.6,257.45 562.2,266.55 554.9,278.8 559.6,284.75 564.3,290.8 574.45,285.6 582.6,281.45 588,274.45 591.8,269.55 593.25,266.15 594.45,263.3 595.2,258.35 M587.05,221.15 Q578.75,228.75 565.8,243.2 549.75,261.2 545,270.3 M581.15,308.8 L587,300.85 Q593.95,291.65 599.05,285.5 604.9,278.4 610.1,274.6 614.95,271.15 616.5,272.45 617.05,273 615.8,277.5 615.05,280.2 612.95,287.35 609,301.95 612.55,304.8 616.15,307.7 632,297.3 635.95,294.7 642.9,290 648.1,286.6 649,287 650.3,287.55 637.05,312.25 623.3,337.85 624.55,341.15 M694.8,291.85 Q687.45,299.1 679.65,307.15 663.95,323.3 661.5,327.4 M647.85,343.4 Q645.35,343.25 644.1,344.15 643.4,344.6 643.35,345.2 643.05,346.95 645.95,347.4 648,347.7 648.6,347.25 648.85,347 649.35,345.5" test="Yum"/>
      </g>
    </g>
  </g>
</svg>