<?xml version="1.0" encoding="utf-8"?>
<svg id="EdithAnim07" image-rendering="inherit" baseProfile="basic" version="1.1" x="0px" y="0px" width="800" height="600" xmlns="http://www.w3.org/2000/svg" xmlns:xlink="http://www.w3.org/1999/xlink">
  <g id="Vinegarf127r1" overflow="visible">
    <g id="VinegarBottle">
      <path id="Layer2_0_1_STROKES" stroke="#F00" stroke-width="2" stroke-linejoin="round" stroke-linecap="round" fill="none" d="M656.95,163.4 Q658,162.85 675.35,159.7 684.05,158.15 692.5,156.65 700.95,156.65 720,159.6 729.55,161.1 737.35,162.55 M657.75,164.25 L666.25,226.9 672.4,227.75 Q680.9,228.6 692.5,228.6 704.15,228.6 719.4,226.05 727,224.8 732.3,223.5 L738.2,163.4 Q732.9,164.45 725.6,165.55 711,167.65 700.95,167.65 691.85,167.65 673.3,165.65 657.75,163.95 657.75,164.25Z M639.8,335.05 Q643.2,335.9 646.7,336.75 673.6,343.1 694.2,342.05 L701.35,341.5 Q710.35,340.65 719.7,339 738.6,335.7 754.2,330 M598.05,473 Q609.7,477.9 622,481.45 657.6,491.65 695.9,489.4 L707.15,489.45 Q721.2,489.1 735.15,487.15 768.8,482.5 792.45,470.25" test="VinegarBottle"/>
      <path id="Layer2_0_2_STROKES" stroke="#F60" stroke-width="2" stroke-linejoin="round" stroke-linecap="round" fill="none" d="M754.2,330 Q753.4,328.4 752.6,326.8 741.2,304 736,291.25 728.05,271.9 726.35,258.25 725.8,253.8 725.4,249.75 724.7,242.25 724.55,236.2 L724.65,229.45 M674.95,248.55 Q679.1,247.25 687.2,246.35 694.1,245.55 697.75,245.55 701.15,245.55 703.55,245.85 707.15,246.25 714.05,247.8 716.65,248.4 720.05,249.2 722.7,249.75 725.4,250.25 720.9,252.2 715.05,254.15 703.35,258.1 696.45,258.1 692.3,258.1 689.3,257.65 684.85,257.05 678.65,255.1 L667.25,251.25 674.95,248.55Z M754.2,330 Q764.5,350.7 770.95,364.05 772.5,367 774.1,369.9 774.35,370.35 774.65,370.85 792.35,409.8 793,452.55 793.15,461.5 792.45,470.25 789.2,510.9 768.2,546.95 763.75,554.4 758.55,561.2 757.25,561.4 756,561.6 741.2,564.55 726.5,566.65 678.95,574.1 633.2,560.25 628.35,558.05 625.6,554.6 620.8,548.55 612.3,526 604.3,504.8 600.2,488.55 598.45,481.65 598.05,473 597.55,463.4 598.7,451.6 600.7,430.8 606.05,409.4 611.35,387.95 628.25,356.75 635,344.3 639.8,335.05 647.05,320.95 650,314.05 654.8,302.5 661.9,273.5 664.9,261.3 666.9,251.2 666.95,251.05 666.95,250.95 L666.25,250.6 M666.9,251.2 L667.25,251.05 666.95,250.95 Q669.65,237.55 669.65,231.15" test="VinegarBottle"/>
      <path id="Layer2_0_3_STROKES" stroke="#FF0" stroke-width="2" stroke-linejoin="round" stroke-linecap="round" fill="none" d="M655.2,359.4 Q655.15,359.55 655.05,359.95 655.4,359.9 655.75,359.8 658.9,359 662.2,359 666.3,359 667.5,360.25 668.35,361.15 668.35,364.05 668.35,369 663,373.95 658.4,378.25 651.95,380.8 660.55,379.05 665.1,384.55 668.35,388.5 668.35,393.45 668.35,399.75 657.75,403.85 650.05,406.85 645.45,406.85 641.4,406.85 639.2,406.3 638.9,407.15 638.7,407.65 L638.8,406.2 Q638.3,406 637.95,405.85 635.6,404.25 633.2,403 M651.4,360.25 Q652.85,360.4 655.05,359.95 654.2,362.6 649.05,375.25 643.1,389.8 642.5,393.3 641.95,396.65 640.55,401.75 639.75,404.65 639.2,406.3 638.95,406.2 638.8,406.2 M678.5,392.85 Q684.5,392.1 686.9,388.45 688.25,386.35 688.25,383.75 688.25,382.75 687.4,381.85 686.6,381 685.7,381 680.5,381 676.8,388.2 673.85,394 673.85,398.55 673.85,401.3 674.7,403 675.85,405.15 678.25,405.15 681.05,405.15 686.9,401.05 691.4,397.85 692.45,396.65 M651.95,380.8 Q651.65,380.9 651.4,381 L651,381 Q651.45,380.9 651.95,380.8Z M648.85,423.7 Q643.05,457.1 642.9,457.85 641.05,467.65 639.55,469.85 M616.25,416.55 Q616.5,427.9 617.5,439.7 618.4,450.2 618.4,454.85 618.4,460.55 617.55,461.85 L617.55,462.7 Q622.5,450.95 628.3,436 633.3,423.1 633.65,421.65 M659.9,469.95 Q658.7,450.2 661.05,430.45 661.1,430.1 661.1,429.75 M661.35,429.3 Q661.6,429.6 661.85,429.9 673.9,443.9 677.15,465.55 677.6,468.55 678.05,471.6 677.9,467.25 680.1,450.4 682.6,431.4 682.6,428.45 M762.75,420.1 Q765.1,419.85 768,418.4 770.9,416.95 773.85,424.9 776.8,432.85 775.9,436.2 774.95,439.5 772.45,441.1 769.7,442.65 769.05,443.15 771.1,446.15 776.55,452.05 783.5,459.6 786.4,460.5 M742.45,381 Q742,378.5 737.8,377.8 736.5,377.6 732.7,377.6 729.25,377.6 728.05,378.9 727.2,379.85 727.2,382.05 727.2,384.9 732.7,389 738.2,393.1 738.2,397.1 738.2,399 736.1,399.65 734.85,400.05 732.05,400.05 728.8,400.05 728.15,399.7 726.45,398.8 725.9,394.55 M720.4,364.5 Q721.25,365.75 721.6,367.65 L722.1,370.4 M712.35,382.7 Q710.5,381.25 710.25,381.1 710,381 708.55,381 704.6,381 701.35,386.95 698.4,392.4 698.4,397.7 698.4,400.9 698.8,401.75 699.35,403 701.55,403 709.6,398.9 714.5,394.55 M735.65,428.2 Q733.65,427.15 733,426.85 732.15,426.5 729.9,426.5 724.65,426.5 721.65,436.65 719.55,443.8 719.55,449.55 719.55,460.75 720.4,463.75 721.25,466.7 724.4,466.7 728.15,466.7 730.6,463.85 732.5,461.65 735.65,454.85 L735.65,454.65 Q735.75,456.4 736.7,461.25 737.7,465.85 738.2,467.55 M696.2,430.2 Q696.2,430.75 696.4,435.1 696.5,440.6 696.25,447.1 696.75,447 701,446.6 705.35,446.25 706.2,446.05 M696.5,430.8 L702.25,429.65 Q708.1,428.5 708.9,428.5 M761.85,420.3 Q762.05,421.1 763.05,427 764.5,434.55 766.9,444 767.25,445.5 769.8,454.75 771.6,461.25 771.6,462.2 L772,462.2 M752.3,424 Q754.6,433.6 756,446.95 756.05,446.95 756.1,446.95 L756.15,446.55 756.35,448.55 757.75,463.45 M731.85,453.15 Q733,453.1 736,452.35 738.9,451.65 740.3,451.05 M750.6,448.65 Q755.2,447.1 756,446.95 756.05,447.75 756.35,448.55 M752.05,422.4 Q752.05,425.9 749.65,443.75 747.2,461.55 747.2,462.4 M696.25,447.1 Q695.95,454.1 695.4,472.05 699.15,471.1 703.25,469.9 705.9,469.35 708.35,470.15" test="VinegarBottle"/>
    </g>
    <g id="Yum-Splash">
      <path fill="#000" stroke="none" d="M1003.1,270.4 L1035.05,200.9 976.4,214.65 Q976.15,217 969.1,118.15 L902.65,154.6 855.3,118.9 835.2,201.65 757.9,215.25 794.5,256.35 768.05,313.8 837.1,321.05 831.8,383.05 883.7,365.05 933.7,416.05 1000.1,339.25 1069.15,323.65 1003.1,270.4Z" test="Yum Splash"/>
      <path id="Layer1_0_1_STROKES" stroke="#FFF" stroke-width="2" stroke-linejoin="round" stroke-linecap="round" fill="none" d="M976.4,214.65 L1035.05,200.9 1003.1,270.4 1069.15,323.65 1000.1,339.25 933.7,416.05 883.7,365.05 831.8,383.05 837.1,321.05 768.05,313.8 794.5,256.35 757.9,215.25 835.2,201.65 855.3,118.9 902.65,154.6 969.1,118.15 Q976.15,217 976.4,214.65Z" test="Yum Splash"/>
      <g id="Yum">
        <path id="Layer3_0_1_STROKES" stroke="#F00" stroke-width="2" stroke-linejoin="round" stroke-linecap="round" fill="none" d="M858.4,196.4 L856.3,202.25 Q854.2,209.15 854.15,213.8 854.15,218.7 857.75,227.95 860.3,234.75 862.95,239.55 864.9,243.1 865.85,244.3 867,245.9 868.3,246.3 M883.05,249.1 Q874.2,257.45 868.8,266.55 861.5,278.8 866.2,284.75 870.9,290.8 881.05,285.6 889.2,281.45 894.6,274.45 898.4,269.55 899.85,266.15 901.05,263.3 901.8,258.35 M893.65,221.15 Q885.35,228.75 872.4,243.2 856.35,261.2 851.6,270.3 M887.75,308.8 L893.6,300.85 Q900.55,291.65 905.65,285.5 911.5,278.4 916.7,274.6 921.55,271.15 923.1,272.45 923.65,273 922.4,277.5 921.65,280.2 919.55,287.35 915.6,301.95 919.15,304.8 922.75,307.7 938.6,297.3 942.55,294.7 949.5,290 954.7,286.6 955.6,287 956.9,287.55 943.65,312.25 929.9,337.85 931.15,341.15 M1001.4,291.85 Q994.05,299.1 986.25,307.15 970.55,323.3 968.1,327.4 M954.45,343.4 Q951.95,343.25 950.7,344.15 950,344.6 949.95,345.2 949.65,346.95 952.55,347.4 954.6,347.7 955.2,347.25 955.45,347 955.95,345.5" test="Yum"/>
      </g>
    </g>
  </g>
</svg>