<?xml version="1.0" encoding="utf-8"?>
<svg id="EdithAnim07" image-rendering="inherit" baseProfile="basic" version="1.1" x="0px" y="0px" width="800" height="600" xmlns="http://www.w3.org/2000/svg" xmlns:xlink="http://www.w3.org/1999/xlink">
  <g id="Vinegarf129r1" overflow="visible">
    <g id="VinegarBottle">
      <path id="Layer2_0_1_STROKES" stroke="#F00" stroke-width="2" stroke-linejoin="round" stroke-linecap="round" fill="none" d="M711.85,163.4 Q712.9,162.85 730.25,159.7 738.95,158.15 747.4,156.65 755.85,156.65 774.9,159.6 784.45,161.1 792.25,162.55 M712.65,164.25 L721.15,226.9 727.3,227.75 Q735.8,228.6 747.4,228.6 759.05,228.6 774.3,226.05 781.9,224.8 787.2,223.5 L793.1,163.4 Q787.8,164.45 780.5,165.55 765.9,167.65 755.85,167.65 746.75,167.65 728.2,165.65 712.65,163.95 712.65,164.25Z M694.7,335.05 Q698.1,335.9 701.6,336.75 728.5,343.1 749.1,342.05 L756.25,341.5 Q765.25,340.65 774.6,339 793.5,335.7 809.1,330 M652.95,473 Q664.6,477.9 676.9,481.45 712.5,491.65 750.8,489.4 L762.05,489.45 Q776.1,489.1 790.05,487.15 823.7,482.5 847.35,470.25" test="VinegarBottle"/>
      <path id="Layer2_0_2_STROKES" stroke="#F60" stroke-width="2" stroke-linejoin="round" stroke-linecap="round" fill="none" d="M809.1,330 Q808.3,328.4 807.5,326.8 796.1,304 790.9,291.25 782.95,271.9 781.25,258.25 780.7,253.8 780.3,249.75 779.6,242.25 779.45,236.2 L779.55,229.45 M729.85,248.55 Q734,247.25 742.1,246.35 749,245.55 752.65,245.55 756.05,245.55 758.45,245.85 762.05,246.25 768.95,247.8 771.55,248.4 774.95,249.2 777.6,249.75 780.3,250.25 775.8,252.2 769.95,254.15 758.25,258.1 751.35,258.1 747.2,258.1 744.2,257.65 739.75,257.05 733.55,255.1 L722.15,251.25 729.85,248.55Z M809.1,330 Q819.4,350.7 825.85,364.05 827.4,367 829,369.9 829.25,370.35 829.55,370.85 847.25,409.8 847.9,452.55 848.05,461.5 847.35,470.25 844.1,510.9 823.1,546.95 818.65,554.4 813.45,561.2 812.15,561.4 810.9,561.6 796.1,564.55 781.4,566.65 733.85,574.1 688.1,560.25 683.25,558.05 680.5,554.6 675.7,548.55 667.2,526 659.2,504.8 655.1,488.55 653.35,481.65 652.95,473 652.45,463.4 653.6,451.6 655.6,430.8 660.95,409.4 666.25,387.95 683.15,356.75 689.9,344.3 694.7,335.05 701.95,320.95 704.9,314.05 709.7,302.5 716.8,273.5 719.8,261.3 721.8,251.2 721.85,251.05 721.85,250.95 L721.15,250.6 M721.8,251.2 L722.15,251.05 721.85,250.95 Q724.55,237.55 724.55,231.15" test="VinegarBottle"/>
      <path id="Layer2_0_3_STROKES" stroke="#FF0" stroke-width="2" stroke-linejoin="round" stroke-linecap="round" fill="none" d="M710.1,359.4 Q710.05,359.55 709.95,359.95 710.3,359.9 710.65,359.8 713.8,359 717.1,359 721.2,359 722.4,360.25 723.25,361.15 723.25,364.05 723.25,369 717.9,373.95 713.3,378.25 706.85,380.8 715.45,379.05 720,384.55 723.25,388.5 723.25,393.45 723.25,399.75 712.65,403.85 704.95,406.85 700.35,406.85 696.3,406.85 694.1,406.3 693.8,407.15 693.6,407.65 L693.7,406.2 Q693.2,406 692.85,405.85 690.5,404.25 688.1,403 M706.3,360.25 Q707.75,360.4 709.95,359.95 709.1,362.6 703.95,375.25 698,389.8 697.4,393.3 696.85,396.65 695.45,401.75 694.65,404.65 694.1,406.3 693.85,406.2 693.7,406.2 M733.4,392.85 Q739.4,392.1 741.8,388.45 743.15,386.35 743.15,383.75 743.15,382.75 742.3,381.85 741.5,381 740.6,381 735.4,381 731.7,388.2 728.75,394 728.75,398.55 728.75,401.3 729.6,403 730.75,405.15 733.15,405.15 735.95,405.15 741.8,401.05 746.3,397.85 747.35,396.65 M706.85,380.8 Q706.55,380.9 706.3,381 L705.9,381 Q706.35,380.9 706.85,380.8Z M703.75,423.7 Q697.95,457.1 697.8,457.85 695.95,467.65 694.45,469.85 M671.15,416.55 Q671.4,427.9 672.4,439.7 673.3,450.2 673.3,454.85 673.3,460.55 672.45,461.85 L672.45,462.7 Q677.4,450.95 683.2,436 688.2,423.1 688.55,421.65 M714.8,469.95 Q713.6,450.2 715.95,430.45 716,430.1 716,429.75 M716.25,429.3 Q716.5,429.6 716.75,429.9 728.8,443.9 732.05,465.55 732.5,468.55 732.95,471.6 732.8,467.25 735,450.4 737.5,431.4 737.5,428.45 M817.65,420.1 Q820,419.85 822.9,418.4 825.8,416.95 828.75,424.9 831.7,432.85 830.8,436.2 829.85,439.5 827.35,441.1 824.6,442.65 823.95,443.15 826,446.15 831.45,452.05 838.4,459.6 841.3,460.5 M797.35,381 Q796.9,378.5 792.7,377.8 791.4,377.6 787.6,377.6 784.15,377.6 782.95,378.9 782.1,379.85 782.1,382.05 782.1,384.9 787.6,389 793.1,393.1 793.1,397.1 793.1,399 791,399.65 789.75,400.05 786.95,400.05 783.7,400.05 783.05,399.7 781.35,398.8 780.8,394.55 M775.3,364.5 Q776.15,365.75 776.5,367.65 L777,370.4 M767.25,382.7 Q765.4,381.25 765.15,381.1 764.9,381 763.45,381 759.5,381 756.25,386.95 753.3,392.4 753.3,397.7 753.3,400.9 753.7,401.75 754.25,403 756.45,403 764.5,398.9 769.4,394.55 M790.55,428.2 Q788.55,427.15 787.9,426.85 787.05,426.5 784.8,426.5 779.55,426.5 776.55,436.65 774.45,443.8 774.45,449.55 774.45,460.75 775.3,463.75 776.15,466.7 779.3,466.7 783.05,466.7 785.5,463.85 787.4,461.65 790.55,454.85 L790.55,454.65 Q790.65,456.4 791.6,461.25 792.6,465.85 793.1,467.55 M751.1,430.2 Q751.1,430.75 751.3,435.1 751.4,440.6 751.15,447.1 751.65,447 755.9,446.6 760.25,446.25 761.1,446.05 M751.4,430.8 L757.15,429.65 Q763,428.5 763.8,428.5 M816.75,420.3 Q816.95,421.1 817.95,427 819.4,434.55 821.8,444 822.15,445.5 824.7,454.75 826.5,461.25 826.5,462.2 L826.9,462.2 M807.2,424 Q809.5,433.6 810.9,446.95 810.95,446.95 811,446.95 L811.05,446.55 811.25,448.55 812.65,463.45 M786.75,453.15 Q787.9,453.1 790.9,452.35 793.8,451.65 795.2,451.05 M805.5,448.65 Q810.1,447.1 810.9,446.95 810.95,447.75 811.25,448.55 M806.95,422.4 Q806.95,425.9 804.55,443.75 802.1,461.55 802.1,462.4 M751.15,447.1 Q750.85,454.1 750.3,472.05 754.05,471.1 758.15,469.9 760.8,469.35 763.25,470.15" test="VinegarBottle"/>
    </g>
    <g id="Yum-Splash">
      <path fill="#000" stroke="none" d="M1076.55,270.4 L1108.5,200.9 1049.85,214.65 Q1049.6,217 1042.55,118.15 L976.1,154.6 928.75,118.9 908.65,201.65 831.35,215.25 867.95,256.35 841.5,313.8 910.55,321.05 905.25,383.05 957.15,365.05 1007.15,416.05 1073.55,339.25 1142.6,323.65 1076.55,270.4Z" test="Yum Splash"/>
      <path id="Layer1_0_1_STROKES" stroke="#FFF" stroke-width="2" stroke-linejoin="round" stroke-linecap="round" fill="none" d="M1049.85,214.65 L1108.5,200.9 1076.55,270.4 1142.6,323.65 1073.55,339.25 1007.15,416.05 957.15,365.05 905.25,383.05 910.55,321.05 841.5,313.8 867.95,256.35 831.35,215.25 908.65,201.65 928.75,118.9 976.1,154.6 1042.55,118.15 Q1049.6,217 1049.85,214.65Z" test="Yum Splash"/>
      <g id="Yum">
        <path id="Layer3_0_1_STROKES" stroke="#F00" stroke-width="2" stroke-linejoin="round" stroke-linecap="round" fill="none" d="M931.85,196.4 L929.75,202.25 Q927.65,209.15 927.6,213.8 927.6,218.7 931.2,227.95 933.75,234.75 936.4,239.55 938.35,243.1 939.3,244.3 940.45,245.9 941.75,246.3 M956.5,249.1 Q947.65,257.45 942.25,266.55 934.95,278.8 939.65,284.75 944.35,290.8 954.5,285.6 962.65,281.45 968.05,274.45 971.85,269.55 973.3,266.15 974.5,263.3 975.25,258.35 M967.1,221.15 Q958.8,228.75 945.85,243.2 929.8,261.2 925.05,270.3 M961.2,308.8 L967.05,300.85 Q974,291.65 979.1,285.5 984.95,278.4 990.15,274.6 995,271.15 996.55,272.45 997.1,273 995.85,277.5 995.1,280.2 993,287.35 989.05,301.95 992.6,304.8 996.2,307.7 1012.05,297.3 1016,294.7 1022.95,290 1028.15,286.6 1029.05,287 1030.35,287.55 1017.1,312.25 1003.35,337.85 1004.6,341.15 M1074.85,291.85 Q1067.5,299.1 1059.7,307.15 1044,323.3 1041.55,327.4 M1027.9,343.4 Q1025.4,343.25 1024.15,344.15 1023.45,344.6 1023.4,345.2 1023.1,346.95 1026,347.4 1028.05,347.7 1028.65,347.25 1028.9,347 1029.4,345.5" test="Yum"/>
      </g>
    </g>
  </g>
</svg>