<?xml version="1.0" encoding="utf-8"?>
<svg id="EdithAnim07" image-rendering="inherit" baseProfile="basic" version="1.1" x="0px" y="0px" width="800" height="600" xmlns="http://www.w3.org/2000/svg" xmlns:xlink="http://www.w3.org/1999/xlink">
  <g id="Vinegarf130r1" overflow="visible">
    <g id="VinegarBottle">
      <path id="Layer2_0_1_STROKES" stroke="#F00" stroke-width="2" stroke-linejoin="round" stroke-linecap="round" fill="none" d="M741.05,163.4 Q742.1,162.85 759.45,159.7 768.15,158.15 776.6,156.65 785.05,156.65 804.1,159.6 813.65,161.1 821.45,162.55 M741.85,164.25 L750.35,226.9 756.5,227.75 Q765,228.6 776.6,228.6 788.25,228.6 803.5,226.05 811.1,224.8 816.4,223.5 L822.3,163.4 Q817,164.45 809.7,165.55 795.1,167.65 785.05,167.65 775.95,167.65 757.4,165.65 741.85,163.95 741.85,164.25Z M723.9,335.05 Q727.3,335.9 730.8,336.75 757.7,343.1 778.3,342.05 L785.45,341.5 Q794.45,340.65 803.8,339 822.7,335.7 838.3,330 M682.15,473 Q693.8,477.9 706.1,481.45 741.7,491.65 780,489.4 L791.25,489.45 Q805.3,489.1 819.25,487.15 852.9,482.5 876.55,470.25" test="VinegarBottle"/>
      <path id="Layer2_0_2_STROKES" stroke="#F60" stroke-width="2" stroke-linejoin="round" stroke-linecap="round" fill="none" d="M838.3,330 Q837.5,328.4 836.7,326.8 825.3,304 820.1,291.25 812.15,271.9 810.45,258.25 809.9,253.8 809.5,249.75 808.8,242.25 808.65,236.2 L808.75,229.45 M759.05,248.55 Q763.2,247.25 771.3,246.35 778.2,245.55 781.85,245.55 785.25,245.55 787.65,245.85 791.25,246.25 798.15,247.8 800.75,248.4 804.15,249.2 806.8,249.75 809.5,250.25 805,252.2 799.15,254.15 787.45,258.1 780.55,258.1 776.4,258.1 773.4,257.65 768.95,257.05 762.75,255.1 L751.35,251.25 759.05,248.55Z M838.3,330 Q848.6,350.7 855.05,364.05 856.6,367 858.2,369.9 858.45,370.35 858.75,370.85 876.45,409.8 877.1,452.55 877.25,461.5 876.55,470.25 873.3,510.9 852.3,546.95 847.85,554.4 842.65,561.2 841.35,561.4 840.1,561.6 825.3,564.55 810.6,566.65 763.05,574.1 717.3,560.25 712.45,558.05 709.7,554.6 704.9,548.55 696.4,526 688.4,504.8 684.3,488.55 682.55,481.65 682.15,473 681.65,463.4 682.8,451.6 684.8,430.8 690.15,409.4 695.45,387.95 712.35,356.75 719.1,344.3 723.9,335.05 731.15,320.95 734.1,314.05 738.9,302.5 746,273.5 749,261.3 751,251.2 751.05,251.05 751.05,250.95 L750.35,250.6 M751,251.2 L751.35,251.05 751.05,250.95 Q753.75,237.55 753.75,231.15" test="VinegarBottle"/>
      <path id="Layer2_0_3_STROKES" stroke="#FF0" stroke-width="2" stroke-linejoin="round" stroke-linecap="round" fill="none" d="M739.3,359.4 Q739.25,359.55 739.15,359.95 739.5,359.9 739.85,359.8 743,359 746.3,359 750.4,359 751.6,360.25 752.45,361.15 752.45,364.05 752.45,369 747.1,373.95 742.5,378.25 736.05,380.8 744.65,379.05 749.2,384.55 752.45,388.5 752.45,393.45 752.45,399.75 741.85,403.85 734.15,406.85 729.55,406.85 725.5,406.85 723.3,406.3 723,407.15 722.8,407.65 L722.9,406.2 Q722.4,406 722.05,405.85 719.7,404.25 717.3,403 M735.5,360.25 Q736.95,360.4 739.15,359.95 738.3,362.6 733.15,375.25 727.2,389.8 726.6,393.3 726.05,396.65 724.65,401.75 723.85,404.65 723.3,406.3 723.05,406.2 722.9,406.2 M762.6,392.85 Q768.6,392.1 771,388.45 772.35,386.35 772.35,383.75 772.35,382.75 771.5,381.85 770.7,381 769.8,381 764.6,381 760.9,388.2 757.95,394 757.95,398.55 757.95,401.3 758.8,403 759.95,405.15 762.35,405.15 765.15,405.15 771,401.05 775.5,397.85 776.55,396.65 M736.05,380.8 Q735.75,380.9 735.5,381 L735.1,381 Q735.55,380.9 736.05,380.8Z M732.95,423.7 Q727.15,457.1 727,457.85 725.15,467.65 723.65,469.85 M700.35,416.55 Q700.6,427.9 701.6,439.7 702.5,450.2 702.5,454.85 702.5,460.55 701.65,461.85 L701.65,462.7 Q706.6,450.95 712.4,436 717.4,423.1 717.75,421.65 M744,469.95 Q742.8,450.2 745.15,430.45 745.2,430.1 745.2,429.75 M745.45,429.3 Q745.7,429.6 745.95,429.9 758,443.9 761.25,465.55 761.7,468.55 762.15,471.6 762,467.25 764.2,450.4 766.7,431.4 766.7,428.45 M846.85,420.1 Q849.2,419.85 852.1,418.4 855,416.95 857.95,424.9 860.9,432.85 860,436.2 859.05,439.5 856.55,441.1 853.8,442.65 853.15,443.15 855.2,446.15 860.65,452.05 867.6,459.6 870.5,460.5 M826.55,381 Q826.1,378.5 821.9,377.8 820.6,377.6 816.8,377.6 813.35,377.6 812.15,378.9 811.3,379.85 811.3,382.05 811.3,384.9 816.8,389 822.3,393.1 822.3,397.1 822.3,399 820.2,399.65 818.95,400.05 816.15,400.05 812.9,400.05 812.25,399.7 810.55,398.8 810,394.55 M804.5,364.5 Q805.35,365.75 805.7,367.65 L806.2,370.4 M796.45,382.7 Q794.6,381.25 794.35,381.1 794.1,381 792.65,381 788.7,381 785.45,386.95 782.5,392.4 782.5,397.7 782.5,400.9 782.9,401.75 783.45,403 785.65,403 793.7,398.9 798.6,394.55 M819.75,428.2 Q817.75,427.15 817.1,426.85 816.25,426.5 814,426.5 808.75,426.5 805.75,436.65 803.65,443.8 803.65,449.55 803.65,460.75 804.5,463.75 805.35,466.7 808.5,466.7 812.25,466.7 814.7,463.85 816.6,461.65 819.75,454.85 L819.75,454.65 Q819.85,456.4 820.8,461.25 821.8,465.85 822.3,467.55 M780.3,430.2 Q780.3,430.75 780.5,435.1 780.6,440.6 780.35,447.1 780.85,447 785.1,446.6 789.45,446.25 790.3,446.05 M780.6,430.8 L786.35,429.65 Q792.2,428.5 793,428.5 M845.95,420.3 Q846.15,421.1 847.15,427 848.6,434.55 851,444 851.35,445.5 853.9,454.75 855.7,461.25 855.7,462.2 L856.1,462.2 M836.4,424 Q838.7,433.6 840.1,446.95 840.15,446.95 840.2,446.95 L840.25,446.55 840.45,448.55 841.85,463.45 M815.95,453.15 Q817.1,453.1 820.1,452.35 823,451.65 824.4,451.05 M834.7,448.65 Q839.3,447.1 840.1,446.95 840.15,447.75 840.45,448.55 M836.15,422.4 Q836.15,425.9 833.75,443.75 831.3,461.55 831.3,462.4 M780.35,447.1 Q780.05,454.1 779.5,472.05 783.25,471.1 787.35,469.9 790,469.35 792.45,470.15" test="VinegarBottle"/>
    </g>
    <g id="Yum-Splash">
      <path fill="#000" stroke="none" d="M1115.7,270.4 L1147.65,200.9 1089,214.65 Q1088.75,217 1081.7,118.15 L1015.25,154.6 967.9,118.9 947.8,201.65 870.5,215.25 907.1,256.35 880.65,313.8 949.7,321.05 944.4,383.05 996.3,365.05 1046.3,416.05 1112.7,339.25 1181.75,323.65 1115.7,270.4Z" test="Yum Splash"/>
      <path id="Layer1_0_1_STROKES" stroke="#FFF" stroke-width="2" stroke-linejoin="round" stroke-linecap="round" fill="none" d="M1089,214.65 L1147.65,200.9 1115.7,270.4 1181.75,323.65 1112.7,339.25 1046.3,416.05 996.3,365.05 944.4,383.05 949.7,321.05 880.65,313.8 907.1,256.35 870.5,215.25 947.8,201.65 967.9,118.9 1015.25,154.6 1081.7,118.15 Q1088.75,217 1089,214.65Z" test="Yum Splash"/>
      <g id="Yum">
        <path id="Layer3_0_1_STROKES" stroke="#F00" stroke-width="2" stroke-linejoin="round" stroke-linecap="round" fill="none" d="M971,196.4 L968.9,202.25 Q966.8,209.15 966.75,213.8 966.75,218.7 970.35,227.95 972.9,234.75 975.55,239.55 977.5,243.1 978.45,244.3 979.6,245.9 980.9,246.3 M995.65,249.1 Q986.8,257.45 981.4,266.55 974.1,278.8 978.8,284.75 983.5,290.8 993.65,285.6 1001.8,281.45 1007.2,274.45 1011,269.55 1012.45,266.15 1013.65,263.3 1014.4,258.35 M1006.25,221.15 Q997.95,228.75 985,243.2 968.95,261.2 964.2,270.3 M1000.35,308.8 L1006.2,300.85 Q1013.15,291.65 1018.25,285.5 1024.1,278.4 1029.3,274.6 1034.15,271.15 1035.7,272.45 1036.25,273 1035,277.5 1034.25,280.2 1032.15,287.35 1028.2,301.95 1031.75,304.8 1035.35,307.7 1051.2,297.3 1055.15,294.7 1062.1,290 1067.3,286.6 1068.2,287 1069.5,287.55 1056.25,312.25 1042.5,337.85 1043.75,341.15 M1114,291.85 Q1106.65,299.1 1098.85,307.15 1083.15,323.3 1080.7,327.4 M1067.05,343.4 Q1064.55,343.25 1063.3,344.15 1062.6,344.6 1062.55,345.2 1062.25,346.95 1065.15,347.4 1067.2,347.7 1067.8,347.25 1068.05,347 1068.55,345.5" test="Yum"/>
      </g>
    </g>
  </g>
</svg>