<?xml version="1.0" encoding="utf-8"?>
<svg id="EdithAnim07" image-rendering="inherit" baseProfile="basic" version="1.1" x="0px" y="0px" width="800" height="600" xmlns="http://www.w3.org/2000/svg" xmlns:xlink="http://www.w3.org/1999/xlink">
  <g id="Vinegarf131r1" overflow="visible">
    <g id="VinegarBottle">
      <path id="Layer2_0_1_STROKES" stroke="#F00" stroke-width="2" stroke-linejoin="round" stroke-linecap="round" fill="none" d="M771.45,163.4 Q772.5,162.85 789.85,159.7 798.55,158.15 807,156.65 815.45,156.65 834.5,159.6 844.05,161.1 851.85,162.55 M772.25,164.25 L780.75,226.9 786.9,227.75 Q795.4,228.6 807,228.6 818.65,228.6 833.9,226.05 841.5,224.8 846.8,223.5 L852.7,163.4 Q847.4,164.45 840.1,165.55 825.5,167.65 815.45,167.65 806.35,167.65 787.8,165.65 772.25,163.95 772.25,164.25Z M754.3,335.05 Q757.7,335.9 761.2,336.75 788.1,343.1 808.7,342.05 L815.85,341.5 Q824.85,340.65 834.2,339 853.1,335.7 868.7,330 M712.55,473 Q724.2,477.9 736.5,481.45 772.1,491.65 810.4,489.4 L821.65,489.45 Q835.7,489.1 849.65,487.15 883.3,482.5 906.95,470.25" test="VinegarBottle"/>
      <path id="Layer2_0_2_STROKES" stroke="#F60" stroke-width="2" stroke-linejoin="round" stroke-linecap="round" fill="none" d="M868.7,330 Q867.9,328.4 867.1,326.8 855.7,304 850.5,291.25 842.55,271.9 840.85,258.25 840.3,253.8 839.9,249.75 839.2,242.25 839.05,236.2 L839.15,229.45 M789.45,248.55 Q793.6,247.25 801.7,246.35 808.6,245.55 812.25,245.55 815.65,245.55 818.05,245.85 821.65,246.25 828.55,247.8 831.15,248.4 834.55,249.2 837.2,249.75 839.9,250.25 835.4,252.2 829.55,254.15 817.85,258.1 810.95,258.1 806.8,258.1 803.8,257.65 799.35,257.05 793.15,255.1 L781.75,251.25 789.45,248.55Z M868.7,330 Q879,350.7 885.45,364.05 887,367 888.6,369.9 888.85,370.35 889.15,370.85 906.85,409.8 907.5,452.55 907.65,461.5 906.95,470.25 903.7,510.9 882.7,546.95 878.25,554.4 873.05,561.2 871.75,561.4 870.5,561.6 855.7,564.55 841,566.65 793.45,574.1 747.7,560.25 742.85,558.05 740.1,554.6 735.3,548.55 726.8,526 718.8,504.8 714.7,488.55 712.95,481.65 712.55,473 712.05,463.4 713.2,451.6 715.2,430.8 720.55,409.4 725.85,387.95 742.75,356.75 749.5,344.3 754.3,335.05 761.55,320.95 764.5,314.05 769.3,302.5 776.4,273.5 779.4,261.3 781.4,251.2 781.45,251.05 781.45,250.95 L780.75,250.6 M781.4,251.2 L781.75,251.05 781.45,250.95 Q784.15,237.55 784.15,231.15" test="VinegarBottle"/>
      <path id="Layer2_0_3_STROKES" stroke="#FF0" stroke-width="2" stroke-linejoin="round" stroke-linecap="round" fill="none" d="M769.7,359.4 Q769.65,359.55 769.55,359.95 769.9,359.9 770.25,359.8 773.4,359 776.7,359 780.8,359 782,360.25 782.85,361.15 782.85,364.05 782.85,369 777.5,373.95 772.9,378.25 766.45,380.8 775.05,379.05 779.6,384.55 782.85,388.5 782.85,393.45 782.85,399.75 772.25,403.85 764.55,406.85 759.95,406.85 755.9,406.85 753.7,406.3 753.4,407.15 753.2,407.65 L753.3,406.2 Q752.8,406 752.45,405.85 750.1,404.25 747.7,403 M765.9,360.25 Q767.35,360.4 769.55,359.95 768.7,362.6 763.55,375.25 757.6,389.8 757,393.3 756.45,396.65 755.05,401.75 754.25,404.65 753.7,406.3 753.45,406.2 753.3,406.2 M793,392.85 Q799,392.1 801.4,388.45 802.75,386.35 802.75,383.75 802.75,382.75 801.9,381.85 801.1,381 800.2,381 795,381 791.3,388.2 788.35,394 788.35,398.55 788.35,401.3 789.2,403 790.35,405.15 792.75,405.15 795.55,405.15 801.4,401.05 805.9,397.85 806.95,396.65 M766.45,380.8 Q766.15,380.9 765.9,381 L765.5,381 Q765.95,380.9 766.45,380.8Z M763.35,423.7 Q757.55,457.1 757.4,457.85 755.55,467.65 754.05,469.85 M730.75,416.55 Q731,427.9 732,439.7 732.9,450.2 732.9,454.85 732.9,460.55 732.05,461.85 L732.05,462.7 Q737,450.95 742.8,436 747.8,423.1 748.15,421.65 M774.4,469.95 Q773.2,450.2 775.55,430.45 775.6,430.1 775.6,429.75 M775.85,429.3 Q776.1,429.6 776.35,429.9 788.4,443.9 791.65,465.55 792.1,468.55 792.55,471.6 792.4,467.25 794.6,450.4 797.1,431.4 797.1,428.45 M877.25,420.1 Q879.6,419.85 882.5,418.4 885.4,416.95 888.35,424.9 891.3,432.85 890.4,436.2 889.45,439.5 886.95,441.1 884.2,442.65 883.55,443.15 885.6,446.15 891.05,452.05 898,459.6 900.9,460.5 M856.95,381 Q856.5,378.5 852.3,377.8 851,377.6 847.2,377.6 843.75,377.6 842.55,378.9 841.7,379.85 841.7,382.05 841.7,384.9 847.2,389 852.7,393.1 852.7,397.1 852.7,399 850.6,399.65 849.35,400.05 846.55,400.05 843.3,400.05 842.65,399.7 840.95,398.8 840.4,394.55 M834.9,364.5 Q835.75,365.75 836.1,367.65 L836.6,370.4 M826.85,382.7 Q825,381.25 824.75,381.1 824.5,381 823.05,381 819.1,381 815.85,386.95 812.9,392.4 812.9,397.7 812.9,400.9 813.3,401.75 813.85,403 816.05,403 824.1,398.9 829,394.55 M850.15,428.2 Q848.15,427.15 847.5,426.85 846.65,426.5 844.4,426.5 839.15,426.5 836.15,436.65 834.05,443.8 834.05,449.55 834.05,460.75 834.9,463.75 835.75,466.7 838.9,466.7 842.65,466.7 845.1,463.85 847,461.65 850.15,454.85 L850.15,454.65 Q850.25,456.4 851.2,461.25 852.2,465.85 852.7,467.55 M810.7,430.2 Q810.7,430.75 810.9,435.1 811,440.6 810.75,447.1 811.25,447 815.5,446.6 819.85,446.25 820.7,446.05 M811,430.8 L816.75,429.65 Q822.6,428.5 823.4,428.5 M876.35,420.3 Q876.55,421.1 877.55,427 879,434.55 881.4,444 881.75,445.5 884.3,454.75 886.1,461.25 886.1,462.2 L886.5,462.2 M866.8,424 Q869.1,433.6 870.5,446.95 870.55,446.95 870.6,446.95 L870.65,446.55 870.85,448.55 872.25,463.45 M846.35,453.15 Q847.5,453.1 850.5,452.35 853.4,451.65 854.8,451.05 M865.1,448.65 Q869.7,447.1 870.5,446.95 870.55,447.75 870.85,448.55 M866.55,422.4 Q866.55,425.9 864.15,443.75 861.7,461.55 861.7,462.4 M810.75,447.1 Q810.45,454.1 809.9,472.05 813.65,471.1 817.75,469.9 820.4,469.35 822.85,470.15" test="VinegarBottle"/>
    </g>
    <g id="Yum-Splash">
      <path fill="#000" stroke="none" d="M1156.4,270.4 L1188.35,200.9 1129.7,214.65 Q1129.45,217 1122.4,118.15 L1055.95,154.6 1008.6,118.9 988.5,201.65 911.2,215.25 947.8,256.35 921.35,313.8 990.4,321.05 985.1,383.05 1037,365.05 1087,416.05 1153.4,339.25 1222.45,323.65 1156.4,270.4Z" test="Yum Splash"/>
      <path id="Layer1_0_1_STROKES" stroke="#FFF" stroke-width="2" stroke-linejoin="round" stroke-linecap="round" fill="none" d="M1129.7,214.65 L1188.35,200.9 1156.4,270.4 1222.45,323.65 1153.4,339.25 1087,416.05 1037,365.05 985.1,383.05 990.4,321.05 921.35,313.8 947.8,256.35 911.2,215.25 988.5,201.65 1008.6,118.9 1055.95,154.6 1122.4,118.15 Q1129.45,217 1129.7,214.65Z" test="Yum Splash"/>
      <g id="Yum">
        <path id="Layer3_0_1_STROKES" stroke="#F00" stroke-width="2" stroke-linejoin="round" stroke-linecap="round" fill="none" d="M1011.7,196.4 L1009.6,202.25 Q1007.5,209.15 1007.45,213.8 1007.45,218.7 1011.05,227.95 1013.6,234.75 1016.25,239.55 1018.2,243.1 1019.15,244.3 1020.3,245.9 1021.6,246.3 M1036.35,249.1 Q1027.5,257.45 1022.1,266.55 1014.8,278.8 1019.5,284.75 1024.2,290.8 1034.35,285.6 1042.5,281.45 1047.9,274.45 1051.7,269.55 1053.15,266.15 1054.35,263.3 1055.1,258.35 M1046.95,221.15 Q1038.65,228.75 1025.7,243.2 1009.65,261.2 1004.9,270.3 M1041.05,308.8 L1046.9,300.85 Q1053.85,291.65 1058.95,285.5 1064.8,278.4 1070,274.6 1074.85,271.15 1076.4,272.45 1076.95,273 1075.7,277.5 1074.95,280.2 1072.85,287.35 1068.9,301.95 1072.45,304.8 1076.05,307.7 1091.9,297.3 1095.85,294.7 1102.8,290 1108,286.6 1108.9,287 1110.2,287.55 1096.95,312.25 1083.2,337.85 1084.45,341.15 M1154.7,291.85 Q1147.35,299.1 1139.55,307.15 1123.85,323.3 1121.4,327.4 M1107.75,343.4 Q1105.25,343.25 1104,344.15 1103.3,344.6 1103.25,345.2 1102.95,346.95 1105.85,347.4 1107.9,347.7 1108.5,347.25 1108.75,347 1109.25,345.5" test="Yum"/>
      </g>
    </g>
  </g>
</svg>