<?xml version="1.0" encoding="utf-8"?>
<svg id="EdithAnim07" image-rendering="inherit" baseProfile="basic" version="1.1" x="0px" y="0px" width="800" height="600" xmlns="http://www.w3.org/2000/svg" xmlns:xlink="http://www.w3.org/1999/xlink">
  <g id="Vinegarf132r1" overflow="visible">
    <g id="VinegarBottle">
      <path id="Layer2_0_1_STROKES" stroke="#F00" stroke-width="2" stroke-linejoin="round" stroke-linecap="round" fill="none" d="M803.05,163.4 Q804.1,162.85 821.45,159.7 830.15,158.15 838.6,156.65 847.05,156.65 866.1,159.6 875.65,161.1 883.45,162.55 M803.85,164.25 L812.35,226.9 818.5,227.75 Q827,228.6 838.6,228.6 850.25,228.6 865.5,226.05 873.1,224.8 878.4,223.5 L884.3,163.4 Q879,164.45 871.7,165.55 857.1,167.65 847.05,167.65 837.95,167.65 819.4,165.65 803.85,163.95 803.85,164.25Z M785.9,335.05 Q789.3,335.9 792.8,336.75 819.7,343.1 840.3,342.05 L847.45,341.5 Q856.45,340.65 865.8,339 884.7,335.7 900.3,330 M744.15,473 Q755.8,477.9 768.1,481.45 803.7,491.65 842,489.4 L853.25,489.45 Q867.3,489.1 881.25,487.15 914.9,482.5 938.55,470.25" test="VinegarBottle"/>
      <path id="Layer2_0_2_STROKES" stroke="#F60" stroke-width="2" stroke-linejoin="round" stroke-linecap="round" fill="none" d="M900.3,330 Q899.5,328.4 898.7,326.8 887.3,304 882.1,291.25 874.15,271.9 872.45,258.25 871.9,253.8 871.5,249.75 870.8,242.25 870.65,236.2 L870.75,229.45 M821.05,248.55 Q825.2,247.25 833.3,246.35 840.2,245.55 843.85,245.55 847.25,245.55 849.65,245.85 853.25,246.25 860.15,247.8 862.75,248.4 866.15,249.2 868.8,249.75 871.5,250.25 867,252.2 861.15,254.15 849.45,258.1 842.55,258.1 838.4,258.1 835.4,257.65 830.95,257.05 824.75,255.1 L813.35,251.25 821.05,248.55Z M900.3,330 Q910.6,350.7 917.05,364.05 918.6,367 920.2,369.9 920.45,370.35 920.75,370.85 938.45,409.8 939.1,452.55 939.25,461.5 938.55,470.25 935.3,510.9 914.3,546.95 909.85,554.4 904.65,561.2 903.35,561.4 902.1,561.6 887.3,564.55 872.6,566.65 825.05,574.1 779.3,560.25 774.45,558.05 771.7,554.6 766.9,548.55 758.4,526 750.4,504.8 746.3,488.55 744.55,481.65 744.15,473 743.65,463.4 744.8,451.6 746.8,430.8 752.15,409.4 757.45,387.95 774.35,356.75 781.1,344.3 785.9,335.05 793.15,320.95 796.1,314.05 800.9,302.5 808,273.5 811,261.3 813,251.2 813.05,251.05 813.05,250.95 L812.35,250.6 M813,251.2 L813.35,251.05 813.05,250.95 Q815.75,237.55 815.75,231.15" test="VinegarBottle"/>
      <path id="Layer2_0_3_STROKES" stroke="#FF0" stroke-width="2" stroke-linejoin="round" stroke-linecap="round" fill="none" d="M801.3,359.4 Q801.25,359.55 801.15,359.95 801.5,359.9 801.85,359.8 805,359 808.3,359 812.4,359 813.6,360.25 814.45,361.15 814.45,364.05 814.45,369 809.1,373.95 804.5,378.25 798.05,380.8 806.65,379.05 811.2,384.55 814.45,388.5 814.45,393.45 814.45,399.75 803.85,403.85 796.15,406.85 791.55,406.85 787.5,406.85 785.3,406.3 785,407.15 784.8,407.65 L784.9,406.2 Q784.4,406 784.05,405.85 781.7,404.25 779.3,403 M797.5,360.25 Q798.95,360.4 801.15,359.95 800.3,362.6 795.15,375.25 789.2,389.8 788.6,393.3 788.05,396.65 786.65,401.75 785.85,404.65 785.3,406.3 785.05,406.2 784.9,406.2 M824.6,392.85 Q830.6,392.1 833,388.45 834.35,386.35 834.35,383.75 834.35,382.75 833.5,381.85 832.7,381 831.8,381 826.6,381 822.9,388.2 819.95,394 819.95,398.55 819.95,401.3 820.8,403 821.95,405.15 824.35,405.15 827.15,405.15 833,401.05 837.5,397.85 838.55,396.65 M798.05,380.8 Q797.75,380.9 797.5,381 L797.1,381 Q797.55,380.9 798.05,380.8Z M794.95,423.7 Q789.15,457.1 789,457.85 787.15,467.65 785.65,469.85 M762.35,416.55 Q762.6,427.9 763.6,439.7 764.5,450.2 764.5,454.85 764.5,460.55 763.65,461.85 L763.65,462.7 Q768.6,450.95 774.4,436 779.4,423.1 779.75,421.65 M806,469.95 Q804.8,450.2 807.15,430.45 807.2,430.1 807.2,429.75 M807.45,429.3 Q807.7,429.6 807.95,429.9 820,443.9 823.25,465.55 823.7,468.55 824.15,471.6 824,467.25 826.2,450.4 828.7,431.4 828.7,428.45 M908.85,420.1 Q911.2,419.85 914.1,418.4 917,416.95 919.95,424.9 922.9,432.85 922,436.2 921.05,439.5 918.55,441.1 915.8,442.65 915.15,443.15 917.2,446.15 922.65,452.05 929.6,459.6 932.5,460.5 M888.55,381 Q888.1,378.5 883.9,377.8 882.6,377.6 878.8,377.6 875.35,377.6 874.15,378.9 873.3,379.85 873.3,382.05 873.3,384.9 878.8,389 884.3,393.1 884.3,397.1 884.3,399 882.2,399.65 880.95,400.05 878.15,400.05 874.9,400.05 874.25,399.7 872.55,398.8 872,394.55 M866.5,364.5 Q867.35,365.75 867.7,367.65 L868.2,370.4 M858.45,382.7 Q856.6,381.25 856.35,381.1 856.1,381 854.65,381 850.7,381 847.45,386.95 844.5,392.4 844.5,397.7 844.5,400.9 844.9,401.75 845.45,403 847.65,403 855.7,398.9 860.6,394.55 M881.75,428.2 Q879.75,427.15 879.1,426.85 878.25,426.5 876,426.5 870.75,426.5 867.75,436.65 865.65,443.8 865.65,449.55 865.65,460.75 866.5,463.75 867.35,466.7 870.5,466.7 874.25,466.7 876.7,463.85 878.6,461.65 881.75,454.85 L881.75,454.65 Q881.85,456.4 882.8,461.25 883.8,465.85 884.3,467.55 M842.3,430.2 Q842.3,430.75 842.5,435.1 842.6,440.6 842.35,447.1 842.85,447 847.1,446.6 851.45,446.25 852.3,446.05 M842.6,430.8 L848.35,429.65 Q854.2,428.5 855,428.5 M907.95,420.3 Q908.15,421.1 909.15,427 910.6,434.55 913,444 913.35,445.5 915.9,454.75 917.7,461.25 917.7,462.2 L918.1,462.2 M898.4,424 Q900.7,433.6 902.1,446.95 902.15,446.95 902.2,446.95 L902.25,446.55 902.45,448.55 903.85,463.45 M877.95,453.15 Q879.1,453.1 882.1,452.35 885,451.65 886.4,451.05 M896.7,448.65 Q901.3,447.1 902.1,446.95 902.15,447.75 902.45,448.55 M898.15,422.4 Q898.15,425.9 895.75,443.75 893.3,461.55 893.3,462.4 M842.35,447.1 Q842.05,454.1 841.5,472.05 845.25,471.1 849.35,469.9 852,469.35 854.45,470.15" test="VinegarBottle"/>
    </g>
    <g id="Yum-Splash">
      <path fill="#000" stroke="none" d="M1198.7,270.4 L1230.65,200.9 1172,214.65 Q1171.75,217 1164.7,118.15 L1098.25,154.6 1050.9,118.9 1030.8,201.65 953.5,215.25 990.1,256.35 963.65,313.8 1032.7,321.05 1027.4,383.05 1079.3,365.05 1129.3,416.05 1195.7,339.25 1264.75,323.65 1198.7,270.4Z" test="Yum Splash"/>
      <path id="Layer1_0_1_STROKES" stroke="#FFF" stroke-width="2" stroke-linejoin="round" stroke-linecap="round" fill="none" d="M1172,214.65 L1230.65,200.9 1198.7,270.4 1264.75,323.65 1195.7,339.25 1129.3,416.05 1079.3,365.05 1027.4,383.05 1032.7,321.05 963.65,313.8 990.1,256.35 953.5,215.25 1030.8,201.65 1050.9,118.9 1098.25,154.6 1164.7,118.15 Q1171.75,217 1172,214.65Z" test="Yum Splash"/>
      <g id="Yum">
        <path id="Layer3_0_1_STROKES" stroke="#F00" stroke-width="2" stroke-linejoin="round" stroke-linecap="round" fill="none" d="M1054,196.4 L1051.9,202.25 Q1049.8,209.15 1049.75,213.8 1049.75,218.7 1053.35,227.95 1055.9,234.75 1058.55,239.55 1060.5,243.1 1061.45,244.3 1062.6,245.9 1063.9,246.3 M1078.65,249.1 Q1069.8,257.45 1064.4,266.55 1057.1,278.8 1061.8,284.75 1066.5,290.8 1076.65,285.6 1084.8,281.45 1090.2,274.45 1094,269.55 1095.45,266.15 1096.65,263.3 1097.4,258.35 M1089.25,221.15 Q1080.95,228.75 1068,243.2 1051.95,261.2 1047.2,270.3 M1083.35,308.8 L1089.2,300.85 Q1096.15,291.65 1101.25,285.5 1107.1,278.4 1112.3,274.6 1117.15,271.15 1118.7,272.45 1119.25,273 1118,277.5 1117.25,280.2 1115.15,287.35 1111.2,301.95 1114.75,304.8 1118.35,307.7 1134.2,297.3 1138.15,294.7 1145.1,290 1150.3,286.6 1151.2,287 1152.5,287.55 1139.25,312.25 1125.5,337.85 1126.75,341.15 M1197,291.85 Q1189.65,299.1 1181.85,307.15 1166.15,323.3 1163.7,327.4 M1150.05,343.4 Q1147.55,343.25 1146.3,344.15 1145.6,344.6 1145.55,345.2 1145.25,346.95 1148.15,347.4 1150.2,347.7 1150.8,347.25 1151.05,347 1151.55,345.5" test="Yum"/>
      </g>
    </g>
  </g>
</svg>