<?xml version="1.0" encoding="utf-8"?>
<svg id="EdithAnim07" image-rendering="inherit" baseProfile="basic" version="1.1" x="0px" y="0px" width="800" height="600" xmlns="http://www.w3.org/2000/svg" xmlns:xlink="http://www.w3.org/1999/xlink">
  <g id="Vinegarf133r1" overflow="visible">
    <g id="VinegarBottle">
      <path id="Layer2_0_1_STROKES" stroke="#F00" stroke-width="2" stroke-linejoin="round" stroke-linecap="round" fill="none" d="M835.85,163.4 Q836.9,162.85 854.25,159.7 862.95,158.15 871.4,156.65 879.85,156.65 898.9,159.6 908.45,161.1 916.25,162.55 M836.65,164.25 L845.15,226.9 851.3,227.75 Q859.8,228.6 871.4,228.6 883.05,228.6 898.3,226.05 905.9,224.8 911.2,223.5 L917.1,163.4 Q911.8,164.45 904.5,165.55 889.9,167.65 879.85,167.65 870.75,167.65 852.2,165.65 836.65,163.95 836.65,164.25Z M818.7,335.05 Q822.1,335.9 825.6,336.75 852.5,343.1 873.1,342.05 L880.25,341.5 Q889.25,340.65 898.6,339 917.5,335.7 933.1,330 M776.95,473 Q788.6,477.9 800.9,481.45 836.5,491.65 874.8,489.4 L886.05,489.45 Q900.1,489.1 914.05,487.15 947.7,482.5 971.35,470.25" test="VinegarBottle"/>
      <path id="Layer2_0_2_STROKES" stroke="#F60" stroke-width="2" stroke-linejoin="round" stroke-linecap="round" fill="none" d="M933.1,330 Q932.3,328.4 931.5,326.8 920.1,304 914.9,291.25 906.95,271.9 905.25,258.25 904.7,253.8 904.3,249.75 903.6,242.25 903.45,236.2 L903.55,229.45 M853.85,248.55 Q858,247.25 866.1,246.35 873,245.55 876.65,245.55 880.05,245.55 882.45,245.85 886.05,246.25 892.95,247.8 895.55,248.4 898.95,249.2 901.6,249.75 904.3,250.25 899.8,252.2 893.95,254.15 882.25,258.1 875.35,258.1 871.2,258.1 868.2,257.65 863.75,257.05 857.55,255.1 L846.15,251.25 853.85,248.55Z M933.1,330 Q943.4,350.7 949.85,364.05 951.4,367 953,369.9 953.25,370.35 953.55,370.85 971.25,409.8 971.9,452.55 972.05,461.5 971.35,470.25 968.1,510.9 947.1,546.95 942.65,554.4 937.45,561.2 936.15,561.4 934.9,561.6 920.1,564.55 905.4,566.65 857.85,574.1 812.1,560.25 807.25,558.05 804.5,554.6 799.7,548.55 791.2,526 783.2,504.8 779.1,488.55 777.35,481.65 776.95,473 776.45,463.4 777.6,451.6 779.6,430.8 784.95,409.4 790.25,387.95 807.15,356.75 813.9,344.3 818.7,335.05 825.95,320.95 828.9,314.05 833.7,302.5 840.8,273.5 843.8,261.3 845.8,251.2 845.85,251.05 845.85,250.95 L845.15,250.6 M845.8,251.2 L846.15,251.05 845.85,250.95 Q848.55,237.55 848.55,231.15" test="VinegarBottle"/>
      <path id="Layer2_0_3_STROKES" stroke="#FF0" stroke-width="2" stroke-linejoin="round" stroke-linecap="round" fill="none" d="M834.1,359.4 Q834.05,359.55 833.95,359.95 834.3,359.9 834.65,359.8 837.8,359 841.1,359 845.2,359 846.4,360.25 847.25,361.15 847.25,364.05 847.25,369 841.9,373.95 837.3,378.25 830.85,380.8 839.45,379.05 844,384.55 847.25,388.5 847.25,393.45 847.25,399.75 836.65,403.85 828.95,406.85 824.35,406.85 820.3,406.85 818.1,406.3 817.8,407.15 817.6,407.65 L817.7,406.2 Q817.2,406 816.85,405.85 814.5,404.25 812.1,403 M830.3,360.25 Q831.75,360.4 833.95,359.95 833.1,362.6 827.95,375.25 822,389.8 821.4,393.3 820.85,396.65 819.45,401.75 818.65,404.65 818.1,406.3 817.85,406.2 817.7,406.2 M857.4,392.85 Q863.4,392.1 865.8,388.45 867.15,386.35 867.15,383.75 867.15,382.75 866.3,381.85 865.5,381 864.6,381 859.4,381 855.7,388.2 852.75,394 852.75,398.55 852.75,401.3 853.6,403 854.75,405.15 857.15,405.15 859.95,405.15 865.8,401.05 870.3,397.85 871.35,396.65 M830.85,380.8 Q830.55,380.9 830.3,381 L829.9,381 Q830.35,380.9 830.85,380.8Z M827.75,423.7 Q821.95,457.1 821.8,457.85 819.95,467.65 818.45,469.85 M795.15,416.55 Q795.4,427.9 796.4,439.7 797.3,450.2 797.3,454.85 797.3,460.55 796.45,461.85 L796.45,462.7 Q801.4,450.95 807.2,436 812.2,423.1 812.55,421.65 M838.8,469.95 Q837.6,450.2 839.95,430.45 840,430.1 840,429.75 M840.25,429.3 Q840.5,429.6 840.75,429.9 852.8,443.9 856.05,465.55 856.5,468.55 856.95,471.6 856.8,467.25 859,450.4 861.5,431.4 861.5,428.45 M941.65,420.1 Q944,419.85 946.9,418.4 949.8,416.95 952.75,424.9 955.7,432.85 954.8,436.2 953.85,439.5 951.35,441.1 948.6,442.65 947.95,443.15 950,446.15 955.45,452.05 962.4,459.6 965.3,460.5 M921.35,381 Q920.9,378.5 916.7,377.8 915.4,377.6 911.6,377.6 908.15,377.6 906.95,378.9 906.1,379.85 906.1,382.05 906.1,384.9 911.6,389 917.1,393.1 917.1,397.1 917.1,399 915,399.65 913.75,400.05 910.95,400.05 907.7,400.05 907.05,399.7 905.35,398.8 904.8,394.55 M899.3,364.5 Q900.15,365.75 900.5,367.65 L901,370.4 M891.25,382.7 Q889.4,381.25 889.15,381.1 888.9,381 887.45,381 883.5,381 880.25,386.95 877.3,392.4 877.3,397.7 877.3,400.9 877.7,401.75 878.25,403 880.45,403 888.5,398.9 893.4,394.55 M914.55,428.2 Q912.55,427.15 911.9,426.85 911.05,426.5 908.8,426.5 903.55,426.5 900.55,436.65 898.45,443.8 898.45,449.55 898.45,460.75 899.3,463.75 900.15,466.7 903.3,466.7 907.05,466.7 909.5,463.85 911.4,461.65 914.55,454.85 L914.55,454.65 Q914.65,456.4 915.6,461.25 916.6,465.85 917.1,467.55 M875.1,430.2 Q875.1,430.75 875.3,435.1 875.4,440.6 875.15,447.1 875.65,447 879.9,446.6 884.25,446.25 885.1,446.05 M875.4,430.8 L881.15,429.65 Q887,428.5 887.8,428.5 M940.75,420.3 Q940.95,421.1 941.95,427 943.4,434.55 945.8,444 946.15,445.5 948.7,454.75 950.5,461.25 950.5,462.2 L950.9,462.2 M931.2,424 Q933.5,433.6 934.9,446.95 934.95,446.95 935,446.95 L935.05,446.55 935.25,448.55 936.65,463.45 M910.75,453.15 Q911.9,453.1 914.9,452.35 917.8,451.65 919.2,451.05 M929.5,448.65 Q934.1,447.1 934.9,446.95 934.95,447.75 935.25,448.55 M930.95,422.4 Q930.95,425.9 928.55,443.75 926.1,461.55 926.1,462.4 M875.15,447.1 Q874.85,454.1 874.3,472.05 878.05,471.1 882.15,469.9 884.8,469.35 887.25,470.15" test="VinegarBottle"/>
    </g>
    <g id="Yum-Splash">
      <path fill="#000" stroke="none" d="M1242.65,270.4 L1274.6,200.9 1215.95,214.65 Q1215.7,217 1208.65,118.15 L1142.2,154.6 1094.85,118.9 1074.75,201.65 997.45,215.25 1034.05,256.35 1007.6,313.8 1076.65,321.05 1071.35,383.05 1123.25,365.05 1173.25,416.05 1239.65,339.25 1308.7,323.65 1242.65,270.4Z" test="Yum Splash"/>
      <path id="Layer1_0_1_STROKES" stroke="#FFF" stroke-width="2" stroke-linejoin="round" stroke-linecap="round" fill="none" d="M1215.95,214.65 L1274.6,200.9 1242.65,270.4 1308.7,323.65 1239.65,339.25 1173.25,416.05 1123.25,365.05 1071.35,383.05 1076.65,321.05 1007.6,313.8 1034.05,256.35 997.45,215.25 1074.75,201.65 1094.85,118.9 1142.2,154.6 1208.65,118.15 Q1215.7,217 1215.95,214.65Z" test="Yum Splash"/>
      <g id="Yum">
        <path id="Layer3_0_1_STROKES" stroke="#F00" stroke-width="2" stroke-linejoin="round" stroke-linecap="round" fill="none" d="M1097.95,196.4 L1095.85,202.25 Q1093.75,209.15 1093.7,213.8 1093.7,218.7 1097.3,227.95 1099.85,234.75 1102.5,239.55 1104.45,243.1 1105.4,244.3 1106.55,245.9 1107.85,246.3 M1122.6,249.1 Q1113.75,257.45 1108.35,266.55 1101.05,278.8 1105.75,284.75 1110.45,290.8 1120.6,285.6 1128.75,281.45 1134.15,274.45 1137.95,269.55 1139.4,266.15 1140.6,263.3 1141.35,258.35 M1133.2,221.15 Q1124.9,228.75 1111.95,243.2 1095.9,261.2 1091.15,270.3 M1127.3,308.8 L1133.15,300.85 Q1140.1,291.65 1145.2,285.5 1151.05,278.4 1156.25,274.6 1161.1,271.15 1162.65,272.45 1163.2,273 1161.95,277.5 1161.2,280.2 1159.1,287.35 1155.15,301.95 1158.7,304.8 1162.3,307.7 1178.15,297.3 1182.1,294.7 1189.05,290 1194.25,286.6 1195.15,287 1196.45,287.55 1183.2,312.25 1169.45,337.85 1170.7,341.15 M1240.95,291.85 Q1233.6,299.1 1225.8,307.15 1210.1,323.3 1207.65,327.4 M1194,343.4 Q1191.5,343.25 1190.25,344.15 1189.55,344.6 1189.5,345.2 1189.2,346.95 1192.1,347.4 1194.15,347.7 1194.75,347.25 1195,347 1195.5,345.5" test="Yum"/>
      </g>
    </g>
  </g>
</svg>