<?xml version="1.0" encoding="utf-8"?>
<svg id="EdithAnim07" image-rendering="inherit" baseProfile="basic" version="1.1" x="0px" y="0px" width="800" height="600" xmlns="http://www.w3.org/2000/svg" xmlns:xlink="http://www.w3.org/1999/xlink">
  <g id="Vinegarf134r1" overflow="visible">
    <g id="VinegarBottle">
      <path id="Layer2_0_1_STROKES" stroke="#F00" stroke-width="2" stroke-linejoin="round" stroke-linecap="round" fill="none" d="M869.85,163.4 Q870.9,162.85 888.25,159.7 896.95,158.15 905.4,156.65 913.85,156.65 932.9,159.6 942.45,161.1 950.25,162.55 M870.65,164.25 L879.15,226.9 885.3,227.75 Q893.8,228.6 905.4,228.6 917.05,228.6 932.3,226.05 939.9,224.8 945.2,223.5 L951.1,163.4 Q945.8,164.45 938.5,165.55 923.9,167.65 913.85,167.65 904.75,167.65 886.2,165.65 870.65,163.95 870.65,164.25Z M852.7,335.05 Q856.1,335.9 859.6,336.75 886.5,343.1 907.1,342.05 L914.25,341.5 Q923.25,340.65 932.6,339 951.5,335.7 967.1,330 M810.95,473 Q822.6,477.9 834.9,481.45 870.5,491.65 908.8,489.4 L920.05,489.45 Q934.1,489.1 948.05,487.15 981.7,482.5 1005.35,470.25" test="VinegarBottle"/>
      <path id="Layer2_0_2_STROKES" stroke="#F60" stroke-width="2" stroke-linejoin="round" stroke-linecap="round" fill="none" d="M967.1,330 Q966.3,328.4 965.5,326.8 954.1,304 948.9,291.25 940.95,271.9 939.25,258.25 938.7,253.8 938.3,249.75 937.6,242.25 937.45,236.2 L937.55,229.45 M887.85,248.55 Q892,247.25 900.1,246.35 907,245.55 910.65,245.55 914.05,245.55 916.45,245.85 920.05,246.25 926.95,247.8 929.55,248.4 932.95,249.2 935.6,249.75 938.3,250.25 933.8,252.2 927.95,254.15 916.25,258.1 909.35,258.1 905.2,258.1 902.2,257.65 897.75,257.05 891.55,255.1 L880.15,251.25 887.85,248.55Z M967.1,330 Q977.4,350.7 983.85,364.05 985.4,367 987,369.9 987.25,370.35 987.55,370.85 1005.25,409.8 1005.9,452.55 1006.05,461.5 1005.35,470.25 1002.1,510.9 981.1,546.95 976.65,554.4 971.45,561.2 970.15,561.4 968.9,561.6 954.1,564.55 939.4,566.65 891.85,574.1 846.1,560.25 841.25,558.05 838.5,554.6 833.7,548.55 825.2,526 817.2,504.8 813.1,488.55 811.35,481.65 810.95,473 810.45,463.4 811.6,451.6 813.6,430.8 818.95,409.4 824.25,387.95 841.15,356.75 847.9,344.3 852.7,335.05 859.95,320.95 862.9,314.05 867.7,302.5 874.8,273.5 877.8,261.3 879.8,251.2 879.85,251.05 879.85,250.95 L879.15,250.6 M879.8,251.2 L880.15,251.05 879.85,250.95 Q882.55,237.55 882.55,231.15" test="VinegarBottle"/>
      <path id="Layer2_0_3_STROKES" stroke="#FF0" stroke-width="2" stroke-linejoin="round" stroke-linecap="round" fill="none" d="M868.1,359.4 Q868.05,359.55 867.95,359.95 868.3,359.9 868.65,359.8 871.8,359 875.1,359 879.2,359 880.4,360.25 881.25,361.15 881.25,364.05 881.25,369 875.9,373.95 871.3,378.25 864.85,380.8 873.45,379.05 878,384.55 881.25,388.5 881.25,393.45 881.25,399.75 870.65,403.85 862.95,406.85 858.35,406.85 854.3,406.85 852.1,406.3 851.8,407.15 851.6,407.65 L851.7,406.2 Q851.2,406 850.85,405.85 848.5,404.25 846.1,403 M864.3,360.25 Q865.75,360.4 867.95,359.95 867.1,362.6 861.95,375.25 856,389.8 855.4,393.3 854.85,396.65 853.45,401.75 852.65,404.65 852.1,406.3 851.85,406.2 851.7,406.2 M891.4,392.85 Q897.4,392.1 899.8,388.45 901.15,386.35 901.15,383.75 901.15,382.75 900.3,381.85 899.5,381 898.6,381 893.4,381 889.7,388.2 886.75,394 886.75,398.55 886.75,401.3 887.6,403 888.75,405.15 891.15,405.15 893.95,405.15 899.8,401.05 904.3,397.85 905.35,396.65 M864.85,380.8 Q864.55,380.9 864.3,381 L863.9,381 Q864.35,380.9 864.85,380.8Z M861.75,423.7 Q855.95,457.1 855.8,457.85 853.95,467.65 852.45,469.85 M829.15,416.55 Q829.4,427.9 830.4,439.7 831.3,450.2 831.3,454.85 831.3,460.55 830.45,461.85 L830.45,462.7 Q835.4,450.95 841.2,436 846.2,423.1 846.55,421.65 M872.8,469.95 Q871.6,450.2 873.95,430.45 874,430.1 874,429.75 M874.25,429.3 Q874.5,429.6 874.75,429.9 886.8,443.9 890.05,465.55 890.5,468.55 890.95,471.6 890.8,467.25 893,450.4 895.5,431.4 895.5,428.45 M975.65,420.1 Q978,419.85 980.9,418.4 983.8,416.95 986.75,424.9 989.7,432.85 988.8,436.2 987.85,439.5 985.35,441.1 982.6,442.65 981.95,443.15 984,446.15 989.45,452.05 996.4,459.6 999.3,460.5 M955.35,381 Q954.9,378.5 950.7,377.8 949.4,377.6 945.6,377.6 942.15,377.6 940.95,378.9 940.1,379.85 940.1,382.05 940.1,384.9 945.6,389 951.1,393.1 951.1,397.1 951.1,399 949,399.65 947.75,400.05 944.95,400.05 941.7,400.05 941.05,399.7 939.35,398.8 938.8,394.55 M933.3,364.5 Q934.15,365.75 934.5,367.65 L935,370.4 M925.25,382.7 Q923.4,381.25 923.15,381.1 922.9,381 921.45,381 917.5,381 914.25,386.95 911.3,392.4 911.3,397.7 911.3,400.9 911.7,401.75 912.25,403 914.45,403 922.5,398.9 927.4,394.55 M948.55,428.2 Q946.55,427.15 945.9,426.85 945.05,426.5 942.8,426.5 937.55,426.5 934.55,436.65 932.45,443.8 932.45,449.55 932.45,460.75 933.3,463.75 934.15,466.7 937.3,466.7 941.05,466.7 943.5,463.85 945.4,461.65 948.55,454.85 L948.55,454.65 Q948.65,456.4 949.6,461.25 950.6,465.85 951.1,467.55 M909.1,430.2 Q909.1,430.75 909.3,435.1 909.4,440.6 909.15,447.1 909.65,447 913.9,446.6 918.25,446.25 919.1,446.05 M909.4,430.8 L915.15,429.65 Q921,428.5 921.8,428.5 M974.75,420.3 Q974.95,421.1 975.95,427 977.4,434.55 979.8,444 980.15,445.5 982.7,454.75 984.5,461.25 984.5,462.2 L984.9,462.2 M965.2,424 Q967.5,433.6 968.9,446.95 968.95,446.95 969,446.95 L969.05,446.55 969.25,448.55 970.65,463.45 M944.75,453.15 Q945.9,453.1 948.9,452.35 951.8,451.65 953.2,451.05 M963.5,448.65 Q968.1,447.1 968.9,446.95 968.95,447.75 969.25,448.55 M964.95,422.4 Q964.95,425.9 962.55,443.75 960.1,461.55 960.1,462.4 M909.15,447.1 Q908.85,454.1 908.3,472.05 912.05,471.1 916.15,469.9 918.8,469.35 921.25,470.15" test="VinegarBottle"/>
    </g>
    <g id="Yum-Splash">
      <path fill="#000" stroke="none" d="M1288.15,270.4 L1320.1,200.9 1261.45,214.65 Q1261.2,217 1254.15,118.15 L1187.7,154.6 1140.35,118.9 1120.25,201.65 1042.95,215.25 1079.55,256.35 1053.1,313.8 1122.15,321.05 1116.85,383.05 1168.75,365.05 1218.75,416.05 1285.15,339.25 1354.2,323.65 1288.15,270.4Z" test="Yum Splash"/>
      <path id="Layer1_0_1_STROKES" stroke="#FFF" stroke-width="2" stroke-linejoin="round" stroke-linecap="round" fill="none" d="M1261.45,214.65 L1320.1,200.9 1288.15,270.4 1354.2,323.65 1285.15,339.25 1218.75,416.05 1168.75,365.05 1116.85,383.05 1122.15,321.05 1053.1,313.8 1079.55,256.35 1042.95,215.25 1120.25,201.65 1140.35,118.9 1187.7,154.6 1254.15,118.15 Q1261.2,217 1261.45,214.65Z" test="Yum Splash"/>
      <g id="Yum">
        <path id="Layer3_0_1_STROKES" stroke="#F00" stroke-width="2" stroke-linejoin="round" stroke-linecap="round" fill="none" d="M1143.45,196.4 L1141.35,202.25 Q1139.25,209.15 1139.2,213.8 1139.2,218.7 1142.8,227.95 1145.35,234.75 1148,239.55 1149.95,243.1 1150.9,244.3 1152.05,245.9 1153.35,246.3 M1168.1,249.1 Q1159.25,257.45 1153.85,266.55 1146.55,278.8 1151.25,284.75 1155.95,290.8 1166.1,285.6 1174.25,281.45 1179.65,274.45 1183.45,269.55 1184.9,266.15 1186.1,263.3 1186.85,258.35 M1178.7,221.15 Q1170.4,228.75 1157.45,243.2 1141.4,261.2 1136.65,270.3 M1172.8,308.8 L1178.65,300.85 Q1185.6,291.65 1190.7,285.5 1196.55,278.4 1201.75,274.6 1206.6,271.15 1208.15,272.45 1208.7,273 1207.45,277.5 1206.7,280.2 1204.6,287.35 1200.65,301.95 1204.2,304.8 1207.8,307.7 1223.65,297.3 1227.6,294.7 1234.55,290 1239.75,286.6 1240.65,287 1241.95,287.55 1228.7,312.25 1214.95,337.85 1216.2,341.15 M1286.45,291.85 Q1279.1,299.1 1271.3,307.15 1255.6,323.3 1253.15,327.4 M1239.5,343.4 Q1237,343.25 1235.75,344.15 1235.05,344.6 1235,345.2 1234.7,346.95 1237.6,347.4 1239.65,347.7 1240.25,347.25 1240.5,347 1241,345.5" test="Yum"/>
      </g>
    </g>
  </g>
</svg>