<?xml version="1.0" encoding="utf-8"?>
<svg id="EdithAnim07" image-rendering="inherit" baseProfile="basic" version="1.1" x="0px" y="0px" width="800" height="600" xmlns="http://www.w3.org/2000/svg" xmlns:xlink="http://www.w3.org/1999/xlink">
  <g id="Vinegarf3r1" overflow="visible">
    <g id="VinegarBottle">
      <path id="Layer1_0_1_STROKES" stroke="#F00" stroke-width="2" stroke-linejoin="round" stroke-linecap="round" fill="none" d="M637.6,163.4 Q638.65,162.85 656,159.7 664.7,158.15 673.15,156.65 681.6,156.65 700.65,159.6 710.2,161.1 718,162.55 M638.4,164.25 L646.9,226.9 653.05,227.75 Q661.55,228.6 673.15,228.6 684.8,228.6 700.05,226.05 707.65,224.8 712.95,223.5 L718.85,163.4 Q713.55,164.45 706.25,165.55 691.65,167.65 681.6,167.65 672.5,167.65 653.95,165.65 638.4,163.95 638.4,164.25Z M620.45,335.05 Q623.85,335.9 627.35,336.75 654.25,343.1 674.85,342.05 L682,341.5 Q691,340.65 700.35,339 719.25,335.7 734.85,330 M578.7,473 Q590.35,477.9 602.65,481.45 638.25,491.65 676.55,489.4 L687.8,489.45 Q701.85,489.1 715.8,487.15 749.45,482.5 773.1,470.25" test="VinegarBottle"/>
      <path id="Layer1_0_2_STROKES" stroke="#F60" stroke-width="2" stroke-linejoin="round" stroke-linecap="round" fill="none" d="M734.85,330 Q734.05,328.4 733.25,326.8 721.85,304 716.65,291.25 708.7,271.9 707,258.25 706.45,253.8 706.05,249.75 705.35,242.25 705.2,236.2 L705.3,229.45 M655.6,248.55 Q659.75,247.25 667.85,246.35 674.75,245.55 678.4,245.55 681.8,245.55 684.2,245.85 687.8,246.25 694.7,247.8 697.3,248.4 700.7,249.2 703.35,249.75 706.05,250.25 701.55,252.2 695.7,254.15 684,258.1 677.1,258.1 672.95,258.1 669.95,257.65 665.5,257.05 659.3,255.1 L647.9,251.25 655.6,248.55Z M734.85,330 Q745.15,350.7 751.6,364.05 753.15,367 754.75,369.9 755,370.35 755.3,370.85 773,409.8 773.65,452.55 773.8,461.5 773.1,470.25 769.85,510.9 748.85,546.95 744.4,554.4 739.2,561.2 737.9,561.4 736.65,561.6 721.85,564.55 707.15,566.65 659.6,574.1 613.85,560.25 609,558.05 606.25,554.6 601.45,548.55 592.95,526 584.95,504.8 580.85,488.55 579.1,481.65 578.7,473 578.2,463.4 579.35,451.6 581.35,430.8 586.7,409.4 592,387.95 608.9,356.75 615.65,344.3 620.45,335.05 627.7,320.95 630.65,314.05 635.45,302.5 642.55,273.5 645.55,261.3 647.55,251.2 647.6,251.05 647.6,250.95 L646.9,250.6 M647.55,251.2 L647.9,251.05 647.6,250.95 Q650.3,237.55 650.3,231.15" test="VinegarBottle"/>
      <path id="Layer1_0_3_STROKES" stroke="#FF0" stroke-width="2" stroke-linejoin="round" stroke-linecap="round" fill="none" d="M635.85,359.4 Q635.8,359.55 635.7,359.95 636.05,359.9 636.4,359.8 639.55,359 642.85,359 646.95,359 648.15,360.25 649,361.15 649,364.05 649,369 643.65,373.95 639.05,378.25 632.6,380.8 641.2,379.05 645.75,384.55 649,388.5 649,393.45 649,399.75 638.4,403.85 630.7,406.85 626.1,406.85 622.05,406.85 619.85,406.3 619.55,407.15 619.35,407.65 L619.45,406.2 Q618.95,406 618.6,405.85 616.25,404.25 613.85,403 M632.05,360.25 Q633.5,360.4 635.7,359.95 634.85,362.6 629.7,375.25 623.75,389.8 623.15,393.3 622.6,396.65 621.2,401.75 620.4,404.65 619.85,406.3 619.6,406.2 619.45,406.2 M659.15,392.85 Q665.15,392.1 667.55,388.45 668.9,386.35 668.9,383.75 668.9,382.75 668.05,381.85 667.25,381 666.35,381 661.15,381 657.45,388.2 654.5,394 654.5,398.55 654.5,401.3 655.35,403 656.5,405.15 658.9,405.15 661.7,405.15 667.55,401.05 672.05,397.85 673.1,396.65 M632.6,380.8 Q632.3,380.9 632.05,381 L631.65,381 Q632.1,380.9 632.6,380.8Z M629.5,423.7 Q623.7,457.1 623.55,457.85 621.7,467.65 620.2,469.85 M596.9,416.55 Q597.15,427.9 598.15,439.7 599.05,450.2 599.05,454.85 599.05,460.55 598.2,461.85 L598.2,462.7 Q603.15,450.95 608.95,436 613.95,423.1 614.3,421.65 M640.55,469.95 Q639.35,450.2 641.7,430.45 641.75,430.1 641.75,429.75 M642,429.3 Q642.25,429.6 642.5,429.9 654.55,443.9 657.8,465.55 658.25,468.55 658.7,471.6 658.55,467.25 660.75,450.4 663.25,431.4 663.25,428.45 M743.4,420.1 Q745.75,419.85 748.65,418.4 751.55,416.95 754.5,424.9 757.45,432.85 756.55,436.2 755.6,439.5 753.1,441.1 750.35,442.65 749.7,443.15 751.75,446.15 757.2,452.05 764.15,459.6 767.05,460.5 M723.1,381 Q722.65,378.5 718.45,377.8 717.15,377.6 713.35,377.6 709.9,377.6 708.7,378.9 707.85,379.85 707.85,382.05 707.85,384.9 713.35,389 718.85,393.1 718.85,397.1 718.85,399 716.75,399.65 715.5,400.05 712.7,400.05 709.45,400.05 708.8,399.7 707.1,398.8 706.55,394.55 M701.05,364.5 Q701.9,365.75 702.25,367.65 L702.75,370.4 M693,382.7 Q691.15,381.25 690.9,381.1 690.65,381 689.2,381 685.25,381 682,386.95 679.05,392.4 679.05,397.7 679.05,400.9 679.45,401.75 680,403 682.2,403 690.25,398.9 695.15,394.55 M716.3,428.2 Q714.3,427.15 713.65,426.85 712.8,426.5 710.55,426.5 705.3,426.5 702.3,436.65 700.2,443.8 700.2,449.55 700.2,460.75 701.05,463.75 701.9,466.7 705.05,466.7 708.8,466.7 711.25,463.85 713.15,461.65 716.3,454.85 L716.3,454.65 Q716.4,456.4 717.35,461.25 718.35,465.85 718.85,467.55 M676.85,430.2 Q676.85,430.75 677.05,435.1 677.15,440.6 676.9,447.1 677.4,447 681.65,446.6 686,446.25 686.85,446.05 M677.15,430.8 L682.9,429.65 Q688.75,428.5 689.55,428.5 M742.5,420.3 Q742.7,421.1 743.7,427 745.15,434.55 747.55,444 747.9,445.5 750.45,454.75 752.25,461.25 752.25,462.2 L752.65,462.2 M732.95,424 Q735.25,433.6 736.65,446.95 736.7,446.95 736.75,446.95 L736.8,446.55 737,448.55 738.4,463.45 M712.5,453.15 Q713.65,453.1 716.65,452.35 719.55,451.65 720.95,451.05 M731.25,448.65 Q735.85,447.1 736.65,446.95 736.7,447.75 737,448.55 M732.7,422.4 Q732.7,425.9 730.3,443.75 727.85,461.55 727.85,462.4 M676.9,447.1 Q676.6,454.1 676.05,472.05 679.8,471.1 683.9,469.9 686.55,469.35 689,470.15" test="VinegarBottle"/>
    </g>
  </g>
</svg>