<?xml version="1.0" encoding="utf-8"?>
<svg id="EdithAnim07" image-rendering="inherit" baseProfile="basic" version="1.1" x="0px" y="0px" width="800" height="600" xmlns="http://www.w3.org/2000/svg" xmlns:xlink="http://www.w3.org/1999/xlink">
  <g id="Vinegarf5r1" overflow="visible">
    <g id="VinegarBottle">
      <path id="Layer1_0_1_STROKES" stroke="#F00" stroke-width="2" stroke-linejoin="round" stroke-linecap="round" fill="none" d="M522.5,163.4 Q523.55,162.85 540.9,159.7 549.6,158.15 558.05,156.65 566.5,156.65 585.55,159.6 595.1,161.1 602.9,162.55 M523.3,164.25 L531.8,226.9 537.95,227.75 Q546.45,228.6 558.05,228.6 569.7,228.6 584.95,226.05 592.55,224.8 597.85,223.5 L603.75,163.4 Q598.45,164.45 591.15,165.55 576.55,167.65 566.5,167.65 557.4,167.65 538.85,165.65 523.3,163.95 523.3,164.25Z M505.35,335.05 Q508.75,335.9 512.25,336.75 539.15,343.1 559.75,342.05 L566.9,341.5 Q575.9,340.65 585.25,339 604.15,335.7 619.75,330 M463.6,473 Q475.25,477.9 487.55,481.45 523.15,491.65 561.45,489.4 L572.7,489.45 Q586.75,489.1 600.7,487.15 634.35,482.5 658,470.25" test="VinegarBottle"/>
      <path id="Layer1_0_2_STROKES" stroke="#F60" stroke-width="2" stroke-linejoin="round" stroke-linecap="round" fill="none" d="M619.75,330 Q618.95,328.4 618.15,326.8 606.75,304 601.55,291.25 593.6,271.9 591.9,258.25 591.35,253.8 590.95,249.75 590.25,242.25 590.1,236.2 L590.2,229.45 M540.5,248.55 Q544.65,247.25 552.75,246.35 559.65,245.55 563.3,245.55 566.7,245.55 569.1,245.85 572.7,246.25 579.6,247.8 582.2,248.4 585.6,249.2 588.25,249.75 590.95,250.25 586.45,252.2 580.6,254.15 568.9,258.1 562,258.1 557.85,258.1 554.85,257.65 550.4,257.05 544.2,255.1 L532.8,251.25 540.5,248.55Z M619.75,330 Q630.05,350.7 636.5,364.05 638.05,367 639.65,369.9 639.9,370.35 640.2,370.85 657.9,409.8 658.55,452.55 658.7,461.5 658,470.25 654.75,510.9 633.75,546.95 629.3,554.4 624.1,561.2 622.8,561.4 621.55,561.6 606.75,564.55 592.05,566.65 544.5,574.1 498.75,560.25 493.9,558.05 491.15,554.6 486.35,548.55 477.85,526 469.85,504.8 465.75,488.55 464,481.65 463.6,473 463.1,463.4 464.25,451.6 466.25,430.8 471.6,409.4 476.9,387.95 493.8,356.75 500.55,344.3 505.35,335.05 512.6,320.95 515.55,314.05 520.35,302.5 527.45,273.5 530.45,261.3 532.45,251.2 532.5,251.05 532.5,250.95 L531.8,250.6 M532.45,251.2 L532.8,251.05 532.5,250.95 Q535.2,237.55 535.2,231.15" test="VinegarBottle"/>
      <path id="Layer1_0_3_STROKES" stroke="#FF0" stroke-width="2" stroke-linejoin="round" stroke-linecap="round" fill="none" d="M520.75,359.4 Q520.7,359.55 520.6,359.95 520.95,359.9 521.3,359.8 524.45,359 527.75,359 531.85,359 533.05,360.25 533.9,361.15 533.9,364.05 533.9,369 528.55,373.95 523.95,378.25 517.5,380.8 526.1,379.05 530.65,384.55 533.9,388.5 533.9,393.45 533.9,399.75 523.3,403.85 515.6,406.85 511,406.85 506.95,406.85 504.75,406.3 504.45,407.15 504.25,407.65 L504.35,406.2 Q503.85,406 503.5,405.85 501.15,404.25 498.75,403 M516.95,360.25 Q518.4,360.4 520.6,359.95 519.75,362.6 514.6,375.25 508.65,389.8 508.05,393.3 507.5,396.65 506.1,401.75 505.3,404.65 504.75,406.3 504.5,406.2 504.35,406.2 M544.05,392.85 Q550.05,392.1 552.45,388.45 553.8,386.35 553.8,383.75 553.8,382.75 552.95,381.85 552.15,381 551.25,381 546.05,381 542.35,388.2 539.4,394 539.4,398.55 539.4,401.3 540.25,403 541.4,405.15 543.8,405.15 546.6,405.15 552.45,401.05 556.95,397.85 558,396.65 M517.5,380.8 Q517.2,380.9 516.95,381 L516.55,381 Q517,380.9 517.5,380.8Z M514.4,423.7 Q508.6,457.1 508.45,457.85 506.6,467.65 505.1,469.85 M481.8,416.55 Q482.05,427.9 483.05,439.7 483.95,450.2 483.95,454.85 483.95,460.55 483.1,461.85 L483.1,462.7 Q488.05,450.95 493.85,436 498.85,423.1 499.2,421.65 M525.45,469.95 Q524.25,450.2 526.6,430.45 526.65,430.1 526.65,429.75 M526.9,429.3 Q527.15,429.6 527.4,429.9 539.45,443.9 542.7,465.55 543.15,468.55 543.6,471.6 543.45,467.25 545.65,450.4 548.15,431.4 548.15,428.45 M628.3,420.1 Q630.65,419.85 633.55,418.4 636.45,416.95 639.4,424.9 642.35,432.85 641.45,436.2 640.5,439.5 638,441.1 635.25,442.65 634.6,443.15 636.65,446.15 642.1,452.05 649.05,459.6 651.95,460.5 M608,381 Q607.55,378.5 603.35,377.8 602.05,377.6 598.25,377.6 594.8,377.6 593.6,378.9 592.75,379.85 592.75,382.05 592.75,384.9 598.25,389 603.75,393.1 603.75,397.1 603.75,399 601.65,399.65 600.4,400.05 597.6,400.05 594.35,400.05 593.7,399.7 592,398.8 591.45,394.55 M585.95,364.5 Q586.8,365.75 587.15,367.65 L587.65,370.4 M577.9,382.7 Q576.05,381.25 575.8,381.1 575.55,381 574.1,381 570.15,381 566.9,386.95 563.95,392.4 563.95,397.7 563.95,400.9 564.35,401.75 564.9,403 567.1,403 575.15,398.9 580.05,394.55 M601.2,428.2 Q599.2,427.15 598.55,426.85 597.7,426.5 595.45,426.5 590.2,426.5 587.2,436.65 585.1,443.8 585.1,449.55 585.1,460.75 585.95,463.75 586.8,466.7 589.95,466.7 593.7,466.7 596.15,463.85 598.05,461.65 601.2,454.85 L601.2,454.65 Q601.3,456.4 602.25,461.25 603.25,465.85 603.75,467.55 M561.75,430.2 Q561.75,430.75 561.95,435.1 562.05,440.6 561.8,447.1 562.3,447 566.55,446.6 570.9,446.25 571.75,446.05 M562.05,430.8 L567.8,429.65 Q573.65,428.5 574.45,428.5 M627.4,420.3 Q627.6,421.1 628.6,427 630.05,434.55 632.45,444 632.8,445.5 635.35,454.75 637.15,461.25 637.15,462.2 L637.55,462.2 M617.85,424 Q620.15,433.6 621.55,446.95 621.6,446.95 621.65,446.95 L621.7,446.55 621.9,448.55 623.3,463.45 M597.4,453.15 Q598.55,453.1 601.55,452.35 604.45,451.65 605.85,451.05 M616.15,448.65 Q620.75,447.1 621.55,446.95 621.6,447.75 621.9,448.55 M617.6,422.4 Q617.6,425.9 615.2,443.75 612.75,461.55 612.75,462.4 M561.8,447.1 Q561.5,454.1 560.95,472.05 564.7,471.1 568.8,469.9 571.45,469.35 573.9,470.15" test="VinegarBottle"/>
    </g>
  </g>
</svg>