<?xml version="1.0" encoding="utf-8"?>
<svg id="EdithAnim07" image-rendering="inherit" baseProfile="basic" version="1.1" x="0px" y="0px" width="800" height="600" xmlns="http://www.w3.org/2000/svg" xmlns:xlink="http://www.w3.org/1999/xlink">
  <g id="Vinegarf7r1" overflow="visible">
    <g id="VinegarBottle">
      <path id="Layer1_0_1_STROKES" stroke="#F00" stroke-width="2" stroke-linejoin="round" stroke-linecap="round" fill="none" d="M439.3,163.4 Q440.35,162.85 457.7,159.7 466.4,158.15 474.85,156.65 483.3,156.65 502.35,159.6 511.9,161.1 519.7,162.55 M440.1,164.25 L448.6,226.9 454.75,227.75 Q463.25,228.6 474.85,228.6 486.5,228.6 501.75,226.05 509.35,224.8 514.65,223.5 L520.55,163.4 Q515.25,164.45 507.95,165.55 493.35,167.65 483.3,167.65 474.2,167.65 455.65,165.65 440.1,163.95 440.1,164.25Z M422.15,335.05 Q425.55,335.9 429.05,336.75 455.95,343.1 476.55,342.05 L483.7,341.5 Q492.7,340.65 502.05,339 520.95,335.7 536.55,330 M380.4,473 Q392.05,477.9 404.35,481.45 439.95,491.65 478.25,489.4 L489.5,489.45 Q503.55,489.1 517.5,487.15 551.15,482.5 574.8,470.25" test="VinegarBottle"/>
      <path id="Layer1_0_2_STROKES" stroke="#F60" stroke-width="2" stroke-linejoin="round" stroke-linecap="round" fill="none" d="M536.55,330 Q535.75,328.4 534.95,326.8 523.55,304 518.35,291.25 510.4,271.9 508.7,258.25 508.15,253.8 507.75,249.75 507.05,242.25 506.9,236.2 L507,229.45 M457.3,248.55 Q461.45,247.25 469.55,246.35 476.45,245.55 480.1,245.55 483.5,245.55 485.9,245.85 489.5,246.25 496.4,247.8 499,248.4 502.4,249.2 505.05,249.75 507.75,250.25 503.25,252.2 497.4,254.15 485.7,258.1 478.8,258.1 474.65,258.1 471.65,257.65 467.2,257.05 461,255.1 L449.6,251.25 457.3,248.55Z M536.55,330 Q546.85,350.7 553.3,364.05 554.85,367 556.45,369.9 556.7,370.35 557,370.85 574.7,409.8 575.35,452.55 575.5,461.5 574.8,470.25 571.55,510.9 550.55,546.95 546.1,554.4 540.9,561.2 539.6,561.4 538.35,561.6 523.55,564.55 508.85,566.65 461.3,574.1 415.55,560.25 410.7,558.05 407.95,554.6 403.15,548.55 394.65,526 386.65,504.8 382.55,488.55 380.8,481.65 380.4,473 379.9,463.4 381.05,451.6 383.05,430.8 388.4,409.4 393.7,387.95 410.6,356.75 417.35,344.3 422.15,335.05 429.4,320.95 432.35,314.05 437.15,302.5 444.25,273.5 447.25,261.3 449.25,251.2 449.3,251.05 449.3,250.95 L448.6,250.6 M449.25,251.2 L449.6,251.05 449.3,250.95 Q452,237.55 452,231.15" test="VinegarBottle"/>
      <path id="Layer1_0_3_STROKES" stroke="#FF0" stroke-width="2" stroke-linejoin="round" stroke-linecap="round" fill="none" d="M437.55,359.4 Q437.5,359.55 437.4,359.95 437.75,359.9 438.1,359.8 441.25,359 444.55,359 448.65,359 449.85,360.25 450.7,361.15 450.7,364.05 450.7,369 445.35,373.95 440.75,378.25 434.3,380.8 442.9,379.05 447.45,384.55 450.7,388.5 450.7,393.45 450.7,399.75 440.1,403.85 432.4,406.85 427.8,406.85 423.75,406.85 421.55,406.3 421.25,407.15 421.05,407.65 L421.15,406.2 Q420.65,406 420.3,405.85 417.95,404.25 415.55,403 M433.75,360.25 Q435.2,360.4 437.4,359.95 436.55,362.6 431.4,375.25 425.45,389.8 424.85,393.3 424.3,396.65 422.9,401.75 422.1,404.65 421.55,406.3 421.3,406.2 421.15,406.2 M460.85,392.85 Q466.85,392.1 469.25,388.45 470.6,386.35 470.6,383.75 470.6,382.75 469.75,381.85 468.95,381 468.05,381 462.85,381 459.15,388.2 456.2,394 456.2,398.55 456.2,401.3 457.05,403 458.2,405.15 460.6,405.15 463.4,405.15 469.25,401.05 473.75,397.85 474.8,396.65 M434.3,380.8 Q434,380.9 433.75,381 L433.35,381 Q433.8,380.9 434.3,380.8Z M431.2,423.7 Q425.4,457.1 425.25,457.85 423.4,467.65 421.9,469.85 M398.6,416.55 Q398.85,427.9 399.85,439.7 400.75,450.2 400.75,454.85 400.75,460.55 399.9,461.85 L399.9,462.7 Q404.85,450.95 410.65,436 415.65,423.1 416,421.65 M442.25,469.95 Q441.05,450.2 443.4,430.45 443.45,430.1 443.45,429.75 M443.7,429.3 Q443.95,429.6 444.2,429.9 456.25,443.9 459.5,465.55 459.95,468.55 460.4,471.6 460.25,467.25 462.45,450.4 464.95,431.4 464.95,428.45 M545.1,420.1 Q547.45,419.85 550.35,418.4 553.25,416.95 556.2,424.9 559.15,432.85 558.25,436.2 557.3,439.5 554.8,441.1 552.05,442.65 551.4,443.15 553.45,446.15 558.9,452.05 565.85,459.6 568.75,460.5 M524.8,381 Q524.35,378.5 520.15,377.8 518.85,377.6 515.05,377.6 511.6,377.6 510.4,378.9 509.55,379.85 509.55,382.05 509.55,384.9 515.05,389 520.55,393.1 520.55,397.1 520.55,399 518.45,399.65 517.2,400.05 514.4,400.05 511.15,400.05 510.5,399.7 508.8,398.8 508.25,394.55 M502.75,364.5 Q503.6,365.75 503.95,367.65 L504.45,370.4 M494.7,382.7 Q492.85,381.25 492.6,381.1 492.35,381 490.9,381 486.95,381 483.7,386.95 480.75,392.4 480.75,397.7 480.75,400.9 481.15,401.75 481.7,403 483.9,403 491.95,398.9 496.85,394.55 M518,428.2 Q516,427.15 515.35,426.85 514.5,426.5 512.25,426.5 507,426.5 504,436.65 501.9,443.8 501.9,449.55 501.9,460.75 502.75,463.75 503.6,466.7 506.75,466.7 510.5,466.7 512.95,463.85 514.85,461.65 518,454.85 L518,454.65 Q518.1,456.4 519.05,461.25 520.05,465.85 520.55,467.55 M478.55,430.2 Q478.55,430.75 478.75,435.1 478.85,440.6 478.6,447.1 479.1,447 483.35,446.6 487.7,446.25 488.55,446.05 M478.85,430.8 L484.6,429.65 Q490.45,428.5 491.25,428.5 M544.2,420.3 Q544.4,421.1 545.4,427 546.85,434.55 549.25,444 549.6,445.5 552.15,454.75 553.95,461.25 553.95,462.2 L554.35,462.2 M534.65,424 Q536.95,433.6 538.35,446.95 538.4,446.95 538.45,446.95 L538.5,446.55 538.7,448.55 540.1,463.45 M514.2,453.15 Q515.35,453.1 518.35,452.35 521.25,451.65 522.65,451.05 M532.95,448.65 Q537.55,447.1 538.35,446.95 538.4,447.75 538.7,448.55 M534.4,422.4 Q534.4,425.9 532,443.75 529.55,461.55 529.55,462.4 M478.6,447.1 Q478.3,454.1 477.75,472.05 481.5,471.1 485.6,469.9 488.25,469.35 490.7,470.15" test="VinegarBottle"/>
    </g>
  </g>
</svg>