<?xml version="1.0" encoding="utf-8"?>
<svg id="EdithAnim07" image-rendering="inherit" baseProfile="basic" version="1.1" x="0px" y="0px" width="800" height="600" xmlns="http://www.w3.org/2000/svg" xmlns:xlink="http://www.w3.org/1999/xlink">
  <g id="Vinegarf76r1" overflow="visible">
    <g id="VinegarBottle">
      <path id="Layer2_0_1_STROKES" stroke="#F00" stroke-width="2" stroke-linejoin="round" stroke-linecap="round" fill="none" d="M368.35,163.4 Q369.4,162.85 386.75,159.7 395.45,158.15 403.9,156.65 412.35,156.65 431.4,159.6 440.95,161.1 448.75,162.55 M369.15,164.25 L377.65,226.9 383.8,227.75 Q392.3,228.6 403.9,228.6 415.55,228.6 430.8,226.05 438.4,224.8 443.7,223.5 L449.6,163.4 Q444.3,164.45 437,165.55 422.4,167.65 412.35,167.65 403.25,167.65 384.7,165.65 369.15,163.95 369.15,164.25Z M351.2,335.05 Q354.6,335.9 358.1,336.75 385,343.1 405.6,342.05 L412.75,341.5 Q421.75,340.65 431.1,339 450,335.7 465.6,330 M309.45,473 Q321.1,477.9 333.4,481.45 369,491.65 407.3,489.4 L418.55,489.45 Q432.6,489.1 446.55,487.15 480.2,482.5 503.85,470.25" test="VinegarBottle"/>
      <path id="Layer2_0_2_STROKES" stroke="#F60" stroke-width="2" stroke-linejoin="round" stroke-linecap="round" fill="none" d="M465.6,330 Q464.8,328.4 464,326.8 452.6,304 447.4,291.25 439.45,271.9 437.75,258.25 437.2,253.8 436.8,249.75 436.1,242.25 435.95,236.2 L436.05,229.45 M386.35,248.55 Q390.5,247.25 398.6,246.35 405.5,245.55 409.15,245.55 412.55,245.55 414.95,245.85 418.55,246.25 425.45,247.8 428.05,248.4 431.45,249.2 434.1,249.75 436.8,250.25 432.3,252.2 426.45,254.15 414.75,258.1 407.85,258.1 403.7,258.1 400.7,257.65 396.25,257.05 390.05,255.1 L378.65,251.25 386.35,248.55Z M465.6,330 Q475.9,350.7 482.35,364.05 483.9,367 485.5,369.9 485.75,370.35 486.05,370.85 503.75,409.8 504.4,452.55 504.55,461.5 503.85,470.25 500.6,510.9 479.6,546.95 475.15,554.4 469.95,561.2 468.65,561.4 467.4,561.6 452.6,564.55 437.9,566.65 390.35,574.1 344.6,560.25 339.75,558.05 337,554.6 332.2,548.55 323.7,526 315.7,504.8 311.6,488.55 309.85,481.65 309.45,473 308.95,463.4 310.1,451.6 312.1,430.8 317.45,409.4 322.75,387.95 339.65,356.75 346.4,344.3 351.2,335.05 358.45,320.95 361.4,314.05 366.2,302.5 373.3,273.5 376.3,261.3 378.3,251.2 378.35,251.05 378.35,250.95 L377.65,250.6 M378.3,251.2 L378.65,251.05 378.35,250.95 Q381.05,237.55 381.05,231.15" test="VinegarBottle"/>
      <path id="Layer2_0_3_STROKES" stroke="#FF0" stroke-width="2" stroke-linejoin="round" stroke-linecap="round" fill="none" d="M366.6,359.4 Q366.55,359.55 366.45,359.95 366.8,359.9 367.15,359.8 370.3,359 373.6,359 377.7,359 378.9,360.25 379.75,361.15 379.75,364.05 379.75,369 374.4,373.95 369.8,378.25 363.35,380.8 371.95,379.05 376.5,384.55 379.75,388.5 379.75,393.45 379.75,399.75 369.15,403.85 361.45,406.85 356.85,406.85 352.8,406.85 350.6,406.3 350.3,407.15 350.1,407.65 L350.2,406.2 Q349.7,406 349.35,405.85 347,404.25 344.6,403 M362.8,360.25 Q364.25,360.4 366.45,359.95 365.6,362.6 360.45,375.25 354.5,389.8 353.9,393.3 353.35,396.65 351.95,401.75 351.15,404.65 350.6,406.3 350.35,406.2 350.2,406.2 M389.9,392.85 Q395.9,392.1 398.3,388.45 399.65,386.35 399.65,383.75 399.65,382.75 398.8,381.85 398,381 397.1,381 391.9,381 388.2,388.2 385.25,394 385.25,398.55 385.25,401.3 386.1,403 387.25,405.15 389.65,405.15 392.45,405.15 398.3,401.05 402.8,397.85 403.85,396.65 M363.35,380.8 Q363.05,380.9 362.8,381 L362.4,381 Q362.85,380.9 363.35,380.8Z M360.25,423.7 Q354.45,457.1 354.3,457.85 352.45,467.65 350.95,469.85 M327.65,416.55 Q327.9,427.9 328.9,439.7 329.8,450.2 329.8,454.85 329.8,460.55 328.95,461.85 L328.95,462.7 Q333.9,450.95 339.7,436 344.7,423.1 345.05,421.65 M371.3,469.95 Q370.1,450.2 372.45,430.45 372.5,430.1 372.5,429.75 M372.75,429.3 Q373,429.6 373.25,429.9 385.3,443.9 388.55,465.55 389,468.55 389.45,471.6 389.3,467.25 391.5,450.4 394,431.4 394,428.45 M474.15,420.1 Q476.5,419.85 479.4,418.4 482.3,416.95 485.25,424.9 488.2,432.85 487.3,436.2 486.35,439.5 483.85,441.1 481.1,442.65 480.45,443.15 482.5,446.15 487.95,452.05 494.9,459.6 497.8,460.5 M453.85,381 Q453.4,378.5 449.2,377.8 447.9,377.6 444.1,377.6 440.65,377.6 439.45,378.9 438.6,379.85 438.6,382.05 438.6,384.9 444.1,389 449.6,393.1 449.6,397.1 449.6,399 447.5,399.65 446.25,400.05 443.45,400.05 440.2,400.05 439.55,399.7 437.85,398.8 437.3,394.55 M431.8,364.5 Q432.65,365.75 433,367.65 L433.5,370.4 M423.75,382.7 Q421.9,381.25 421.65,381.1 421.4,381 419.95,381 416,381 412.75,386.95 409.8,392.4 409.8,397.7 409.8,400.9 410.2,401.75 410.75,403 412.95,403 421,398.9 425.9,394.55 M447.05,428.2 Q445.05,427.15 444.4,426.85 443.55,426.5 441.3,426.5 436.05,426.5 433.05,436.65 430.95,443.8 430.95,449.55 430.95,460.75 431.8,463.75 432.65,466.7 435.8,466.7 439.55,466.7 442,463.85 443.9,461.65 447.05,454.85 L447.05,454.65 Q447.15,456.4 448.1,461.25 449.1,465.85 449.6,467.55 M407.6,430.2 Q407.6,430.75 407.8,435.1 407.9,440.6 407.65,447.1 408.15,447 412.4,446.6 416.75,446.25 417.6,446.05 M407.9,430.8 L413.65,429.65 Q419.5,428.5 420.3,428.5 M473.25,420.3 Q473.45,421.1 474.45,427 475.9,434.55 478.3,444 478.65,445.5 481.2,454.75 483,461.25 483,462.2 L483.4,462.2 M463.7,424 Q466,433.6 467.4,446.95 467.45,446.95 467.5,446.95 L467.55,446.55 467.75,448.55 469.15,463.45 M443.25,453.15 Q444.4,453.1 447.4,452.35 450.3,451.65 451.7,451.05 M462,448.65 Q466.6,447.1 467.4,446.95 467.45,447.75 467.75,448.55 M463.45,422.4 Q463.45,425.9 461.05,443.75 458.6,461.55 458.6,462.4 M407.65,447.1 Q407.35,454.1 406.8,472.05 410.55,471.1 414.65,469.9 417.3,469.35 419.75,470.15" test="VinegarBottle"/>
    </g>
    <g id="Yum-Splash">
      <path fill="#000" stroke="none" d="M1146.935,299.476 L1215.596,150.121 1089.557,179.67 Q1089.02,184.72 1073.869,-27.709 L931.068,50.622 829.313,-26.097 786.118,151.733 620.001,180.959 698.654,269.283 641.813,392.743 790.201,408.323 778.812,541.561 890.345,502.879 997.795,612.478 1140.488,447.435 1288.877,413.911 1146.935,299.476Z" test="Yum Splash" stroke-width="2.149"/>
      <path id="Layer1_0_1_STROKES" stroke="#FFF" stroke-width="4.298" stroke-linejoin="round" stroke-linecap="round" fill="none" d="M1089.557,179.67 L1215.596,150.121 1146.935,299.476 1288.877,413.911 1140.488,447.435 997.795,612.478 890.345,502.879 778.812,541.561 790.201,408.323 641.813,392.743 698.654,269.283 620.001,180.959 786.118,151.733 829.313,-26.097 931.068,50.622 1073.869,-27.709 Q1089.02,184.72 1089.557,179.67Z" test="Yum Splash"/>
      <g id="Yum">
        <path id="Layer3_0_1_STROKES" stroke="#F00" stroke-width="4.298" stroke-linejoin="round" stroke-linecap="round" fill="none" d="M835.947,140.422 L831.434,152.994 Q826.921,167.822 826.814,177.815 826.814,188.345 834.55,208.223 840.03,222.836 845.725,233.151 849.915,240.78 851.957,243.359 854.428,246.798 857.222,247.657 M888.92,253.674 Q869.901,271.619 858.296,291.174 842.609,317.5 852.709,330.286 862.809,343.288 884.622,332.113 902.136,323.195 913.741,308.152 921.907,297.621 925.023,290.315 927.602,284.19 929.213,273.553 M911.699,193.61 Q893.862,209.942 866.033,240.995 831.541,279.677 821.334,299.233 M899.02,381.97 L911.592,364.885 Q926.527,345.114 937.487,331.898 950.059,316.64 961.234,308.474 971.656,301.06 974.987,303.854 976.169,305.036 973.483,314.706 971.871,320.508 967.358,335.874 958.87,367.249 966.499,373.374 974.235,379.606 1008.297,357.256 1016.785,351.669 1031.721,341.569 1042.896,334.262 1044.83,335.122 1047.623,336.303 1019.149,389.384 989.6,444.398 992.287,451.49 M1143.254,345.544 Q1127.459,361.124 1110.696,378.424 1076.957,413.13 1071.692,421.941 M1042.358,456.325 Q1036.986,456.003 1034.3,457.937 1032.795,458.904 1032.688,460.193 1032.043,463.954 1038.275,464.921 1042.681,465.566 1043.97,464.599 1044.507,464.062 1045.582,460.838" test="Yum"/>
      </g>
    </g>
  </g>
</svg>