<?xml version="1.0" encoding="utf-8"?>
<svg id="EdithAnim07" image-rendering="inherit" baseProfile="basic" version="1.1" x="0px" y="0px" width="800" height="600" xmlns="http://www.w3.org/2000/svg" xmlns:xlink="http://www.w3.org/1999/xlink">
  <g id="Vinegarf8r1" overflow="visible">
    <g id="VinegarBottle">
      <path id="Layer1_0_1_STROKES" stroke="#F00" stroke-width="2" stroke-linejoin="round" stroke-linecap="round" fill="none" d="M409.65,163.4 Q410.7,162.85 428.05,159.7 436.75,158.15 445.2,156.65 453.65,156.65 472.7,159.6 482.25,161.1 490.05,162.55 M410.45,164.25 L418.95,226.9 425.1,227.75 Q433.6,228.6 445.2,228.6 456.85,228.6 472.1,226.05 479.7,224.8 485,223.5 L490.9,163.4 Q485.6,164.45 478.3,165.55 463.7,167.65 453.65,167.65 444.55,167.65 426,165.65 410.45,163.95 410.45,164.25Z M392.5,335.05 Q395.9,335.9 399.4,336.75 426.3,343.1 446.9,342.05 L454.05,341.5 Q463.05,340.65 472.4,339 491.3,335.7 506.9,330 M350.75,473 Q362.4,477.9 374.7,481.45 410.3,491.65 448.6,489.4 L459.85,489.45 Q473.9,489.1 487.85,487.15 521.5,482.5 545.15,470.25" test="VinegarBottle"/>
      <path id="Layer1_0_2_STROKES" stroke="#F60" stroke-width="2" stroke-linejoin="round" stroke-linecap="round" fill="none" d="M506.9,330 Q506.1,328.4 505.3,326.8 493.9,304 488.7,291.25 480.75,271.9 479.05,258.25 478.5,253.8 478.1,249.75 477.4,242.25 477.25,236.2 L477.35,229.45 M427.65,248.55 Q431.8,247.25 439.9,246.35 446.8,245.55 450.45,245.55 453.85,245.55 456.25,245.85 459.85,246.25 466.75,247.8 469.35,248.4 472.75,249.2 475.4,249.75 478.1,250.25 473.6,252.2 467.75,254.15 456.05,258.1 449.15,258.1 445,258.1 442,257.65 437.55,257.05 431.35,255.1 L419.95,251.25 427.65,248.55Z M506.9,330 Q517.2,350.7 523.65,364.05 525.2,367 526.8,369.9 527.05,370.35 527.35,370.85 545.05,409.8 545.7,452.55 545.85,461.5 545.15,470.25 541.9,510.9 520.9,546.95 516.45,554.4 511.25,561.2 509.95,561.4 508.7,561.6 493.9,564.55 479.2,566.65 431.65,574.1 385.9,560.25 381.05,558.05 378.3,554.6 373.5,548.55 365,526 357,504.8 352.9,488.55 351.15,481.65 350.75,473 350.25,463.4 351.4,451.6 353.4,430.8 358.75,409.4 364.05,387.95 380.95,356.75 387.7,344.3 392.5,335.05 399.75,320.95 402.7,314.05 407.5,302.5 414.6,273.5 417.6,261.3 419.6,251.2 419.65,251.05 419.65,250.95 L418.95,250.6 M419.6,251.2 L419.95,251.05 419.65,250.95 Q422.35,237.55 422.35,231.15" test="VinegarBottle"/>
      <path id="Layer1_0_3_STROKES" stroke="#FF0" stroke-width="2" stroke-linejoin="round" stroke-linecap="round" fill="none" d="M407.9,359.4 Q407.85,359.55 407.75,359.95 408.1,359.9 408.45,359.8 411.6,359 414.9,359 419,359 420.2,360.25 421.05,361.15 421.05,364.05 421.05,369 415.7,373.95 411.1,378.25 404.65,380.8 413.25,379.05 417.8,384.55 421.05,388.5 421.05,393.45 421.05,399.75 410.45,403.85 402.75,406.85 398.15,406.85 394.1,406.85 391.9,406.3 391.6,407.15 391.4,407.65 L391.5,406.2 Q391,406 390.65,405.85 388.3,404.25 385.9,403 M404.1,360.25 Q405.55,360.4 407.75,359.95 406.9,362.6 401.75,375.25 395.8,389.8 395.2,393.3 394.65,396.65 393.25,401.75 392.45,404.65 391.9,406.3 391.65,406.2 391.5,406.2 M431.2,392.85 Q437.2,392.1 439.6,388.45 440.95,386.35 440.95,383.75 440.95,382.75 440.1,381.85 439.3,381 438.4,381 433.2,381 429.5,388.2 426.55,394 426.55,398.55 426.55,401.3 427.4,403 428.55,405.15 430.95,405.15 433.75,405.15 439.6,401.05 444.1,397.85 445.15,396.65 M404.65,380.8 Q404.35,380.9 404.1,381 L403.7,381 Q404.15,380.9 404.65,380.8Z M401.55,423.7 Q395.75,457.1 395.6,457.85 393.75,467.65 392.25,469.85 M368.95,416.55 Q369.2,427.9 370.2,439.7 371.1,450.2 371.1,454.85 371.1,460.55 370.25,461.85 L370.25,462.7 Q375.2,450.95 381,436 386,423.1 386.35,421.65 M412.6,469.95 Q411.4,450.2 413.75,430.45 413.8,430.1 413.8,429.75 M414.05,429.3 Q414.3,429.6 414.55,429.9 426.6,443.9 429.85,465.55 430.3,468.55 430.75,471.6 430.6,467.25 432.8,450.4 435.3,431.4 435.3,428.45 M515.45,420.1 Q517.8,419.85 520.7,418.4 523.6,416.95 526.55,424.9 529.5,432.85 528.6,436.2 527.65,439.5 525.15,441.1 522.4,442.65 521.75,443.15 523.8,446.15 529.25,452.05 536.2,459.6 539.1,460.5 M495.15,381 Q494.7,378.5 490.5,377.8 489.2,377.6 485.4,377.6 481.95,377.6 480.75,378.9 479.9,379.85 479.9,382.05 479.9,384.9 485.4,389 490.9,393.1 490.9,397.1 490.9,399 488.8,399.65 487.55,400.05 484.75,400.05 481.5,400.05 480.85,399.7 479.15,398.8 478.6,394.55 M473.1,364.5 Q473.95,365.75 474.3,367.65 L474.8,370.4 M465.05,382.7 Q463.2,381.25 462.95,381.1 462.7,381 461.25,381 457.3,381 454.05,386.95 451.1,392.4 451.1,397.7 451.1,400.9 451.5,401.75 452.05,403 454.25,403 462.3,398.9 467.2,394.55 M488.35,428.2 Q486.35,427.15 485.7,426.85 484.85,426.5 482.6,426.5 477.35,426.5 474.35,436.65 472.25,443.8 472.25,449.55 472.25,460.75 473.1,463.75 473.95,466.7 477.1,466.7 480.85,466.7 483.3,463.85 485.2,461.65 488.35,454.85 L488.35,454.65 Q488.45,456.4 489.4,461.25 490.4,465.85 490.9,467.55 M448.9,430.2 Q448.9,430.75 449.1,435.1 449.2,440.6 448.95,447.1 449.45,447 453.7,446.6 458.05,446.25 458.9,446.05 M449.2,430.8 L454.95,429.65 Q460.8,428.5 461.6,428.5 M514.55,420.3 Q514.75,421.1 515.75,427 517.2,434.55 519.6,444 519.95,445.5 522.5,454.75 524.3,461.25 524.3,462.2 L524.7,462.2 M505,424 Q507.3,433.6 508.7,446.95 508.75,446.95 508.8,446.95 L508.85,446.55 509.05,448.55 510.45,463.45 M484.55,453.15 Q485.7,453.1 488.7,452.35 491.6,451.65 493,451.05 M503.3,448.65 Q507.9,447.1 508.7,446.95 508.75,447.75 509.05,448.55 M504.75,422.4 Q504.75,425.9 502.35,443.75 499.9,461.55 499.9,462.4 M448.95,447.1 Q448.65,454.1 448.1,472.05 451.85,471.1 455.95,469.9 458.6,469.35 461.05,470.15" test="VinegarBottle"/>
    </g>
  </g>
</svg>