<?xml version="1.0" encoding="utf-8"?>
<svg id="EdithAnim07" image-rendering="inherit" baseProfile="basic" version="1.1" x="0px" y="0px" width="800" height="600" xmlns="http://www.w3.org/2000/svg" xmlns:xlink="http://www.w3.org/1999/xlink">
  <g id="Vinegarf9r1" overflow="visible">
    <g id="VinegarBottle">
      <path id="Layer1_0_1_STROKES" stroke="#F00" stroke-width="2" stroke-linejoin="round" stroke-linecap="round" fill="none" d="M387.9,163.4 Q388.95,162.85 406.3,159.7 415,158.15 423.45,156.65 431.9,156.65 450.95,159.6 460.5,161.1 468.3,162.55 M388.7,164.25 L397.2,226.9 403.35,227.75 Q411.85,228.6 423.45,228.6 435.1,228.6 450.35,226.05 457.95,224.8 463.25,223.5 L469.15,163.4 Q463.85,164.45 456.55,165.55 441.95,167.65 431.9,167.65 422.8,167.65 404.25,165.65 388.7,163.95 388.7,164.25Z M370.75,335.05 Q374.15,335.9 377.65,336.75 404.55,343.1 425.15,342.05 L432.3,341.5 Q441.3,340.65 450.65,339 469.55,335.7 485.15,330 M329,473 Q340.65,477.9 352.95,481.45 388.55,491.65 426.85,489.4 L438.1,489.45 Q452.15,489.1 466.1,487.15 499.75,482.5 523.4,470.25" test="VinegarBottle"/>
      <path id="Layer1_0_2_STROKES" stroke="#F60" stroke-width="2" stroke-linejoin="round" stroke-linecap="round" fill="none" d="M485.15,330 Q484.35,328.4 483.55,326.8 472.15,304 466.95,291.25 459,271.9 457.3,258.25 456.75,253.8 456.35,249.75 455.65,242.25 455.5,236.2 L455.6,229.45 M405.9,248.55 Q410.05,247.25 418.15,246.35 425.05,245.55 428.7,245.55 432.1,245.55 434.5,245.85 438.1,246.25 445,247.8 447.6,248.4 451,249.2 453.65,249.75 456.35,250.25 451.85,252.2 446,254.15 434.3,258.1 427.4,258.1 423.25,258.1 420.25,257.65 415.8,257.05 409.6,255.1 L398.2,251.25 405.9,248.55Z M485.15,330 Q495.45,350.7 501.9,364.05 503.45,367 505.05,369.9 505.3,370.35 505.6,370.85 523.3,409.8 523.95,452.55 524.1,461.5 523.4,470.25 520.15,510.9 499.15,546.95 494.7,554.4 489.5,561.2 488.2,561.4 486.95,561.6 472.15,564.55 457.45,566.65 409.9,574.1 364.15,560.25 359.3,558.05 356.55,554.6 351.75,548.55 343.25,526 335.25,504.8 331.15,488.55 329.4,481.65 329,473 328.5,463.4 329.65,451.6 331.65,430.8 337,409.4 342.3,387.95 359.2,356.75 365.95,344.3 370.75,335.05 378,320.95 380.95,314.05 385.75,302.5 392.85,273.5 395.85,261.3 397.85,251.2 397.9,251.05 397.9,250.95 L397.2,250.6 M397.85,251.2 L398.2,251.05 397.9,250.95 Q400.6,237.55 400.6,231.15" test="VinegarBottle"/>
      <path id="Layer1_0_3_STROKES" stroke="#FF0" stroke-width="2" stroke-linejoin="round" stroke-linecap="round" fill="none" d="M386.15,359.4 Q386.1,359.55 386,359.95 386.35,359.9 386.7,359.8 389.85,359 393.15,359 397.25,359 398.45,360.25 399.3,361.15 399.3,364.05 399.3,369 393.95,373.95 389.35,378.25 382.9,380.8 391.5,379.05 396.05,384.55 399.3,388.5 399.3,393.45 399.3,399.75 388.7,403.85 381,406.85 376.4,406.85 372.35,406.85 370.15,406.3 369.85,407.15 369.65,407.65 L369.75,406.2 Q369.25,406 368.9,405.85 366.55,404.25 364.15,403 M382.35,360.25 Q383.8,360.4 386,359.95 385.15,362.6 380,375.25 374.05,389.8 373.45,393.3 372.9,396.65 371.5,401.75 370.7,404.65 370.15,406.3 369.9,406.2 369.75,406.2 M409.45,392.85 Q415.45,392.1 417.85,388.45 419.2,386.35 419.2,383.75 419.2,382.75 418.35,381.85 417.55,381 416.65,381 411.45,381 407.75,388.2 404.8,394 404.8,398.55 404.8,401.3 405.65,403 406.8,405.15 409.2,405.15 412,405.15 417.85,401.05 422.35,397.85 423.4,396.65 M382.9,380.8 Q382.6,380.9 382.35,381 L381.95,381 Q382.4,380.9 382.9,380.8Z M379.8,423.7 Q374,457.1 373.85,457.85 372,467.65 370.5,469.85 M347.2,416.55 Q347.45,427.9 348.45,439.7 349.35,450.2 349.35,454.85 349.35,460.55 348.5,461.85 L348.5,462.7 Q353.45,450.95 359.25,436 364.25,423.1 364.6,421.65 M390.85,469.95 Q389.65,450.2 392,430.45 392.05,430.1 392.05,429.75 M392.3,429.3 Q392.55,429.6 392.8,429.9 404.85,443.9 408.1,465.55 408.55,468.55 409,471.6 408.85,467.25 411.05,450.4 413.55,431.4 413.55,428.45 M493.7,420.1 Q496.05,419.85 498.95,418.4 501.85,416.95 504.8,424.9 507.75,432.85 506.85,436.2 505.9,439.5 503.4,441.1 500.65,442.65 500,443.15 502.05,446.15 507.5,452.05 514.45,459.6 517.35,460.5 M473.4,381 Q472.95,378.5 468.75,377.8 467.45,377.6 463.65,377.6 460.2,377.6 459,378.9 458.15,379.85 458.15,382.05 458.15,384.9 463.65,389 469.15,393.1 469.15,397.1 469.15,399 467.05,399.65 465.8,400.05 463,400.05 459.75,400.05 459.1,399.7 457.4,398.8 456.85,394.55 M451.35,364.5 Q452.2,365.75 452.55,367.65 L453.05,370.4 M443.3,382.7 Q441.45,381.25 441.2,381.1 440.95,381 439.5,381 435.55,381 432.3,386.95 429.35,392.4 429.35,397.7 429.35,400.9 429.75,401.75 430.3,403 432.5,403 440.55,398.9 445.45,394.55 M466.6,428.2 Q464.6,427.15 463.95,426.85 463.1,426.5 460.85,426.5 455.6,426.5 452.6,436.65 450.5,443.8 450.5,449.55 450.5,460.75 451.35,463.75 452.2,466.7 455.35,466.7 459.1,466.7 461.55,463.85 463.45,461.65 466.6,454.85 L466.6,454.65 Q466.7,456.4 467.65,461.25 468.65,465.85 469.15,467.55 M427.15,430.2 Q427.15,430.75 427.35,435.1 427.45,440.6 427.2,447.1 427.7,447 431.95,446.6 436.3,446.25 437.15,446.05 M427.45,430.8 L433.2,429.65 Q439.05,428.5 439.85,428.5 M492.8,420.3 Q493,421.1 494,427 495.45,434.55 497.85,444 498.2,445.5 500.75,454.75 502.55,461.25 502.55,462.2 L502.95,462.2 M483.25,424 Q485.55,433.6 486.95,446.95 487,446.95 487.05,446.95 L487.1,446.55 487.3,448.55 488.7,463.45 M462.8,453.15 Q463.95,453.1 466.95,452.35 469.85,451.65 471.25,451.05 M481.55,448.65 Q486.15,447.1 486.95,446.95 487,447.75 487.3,448.55 M483,422.4 Q483,425.9 480.6,443.75 478.15,461.55 478.15,462.4 M427.2,447.1 Q426.9,454.1 426.35,472.05 430.1,471.1 434.2,469.9 436.85,469.35 439.3,470.15" test="VinegarBottle"/>
    </g>
  </g>
</svg>