<?xml version="1.0" encoding="utf-8"?>
<svg id="EdithAnim12" image-rendering="inherit" baseProfile="basic" version="1.1" x="0px" y="0px" width="800" height="600" xmlns="http://www.w3.org/2000/svg" xmlns:xlink="http://www.w3.org/1999/xlink">
  <g id="21_GarbageDrawerf1r1" overflow="visible">
    <g id="GarbageDrawerGroupf1r1">
      <g id="Drawer">
        <path fill="#000" stroke="none" d="M7.5,280.75 Q7.2,281.05 6.95,281.35 L6.95,298.3 Q7.2,298.55 7.5,298.85 11.15,302.5 16.25,302.6 L16.55,302.6 Q21.85,302.6 25.6,298.85 29.35,295.1 29.35,289.8 29.35,284.5 25.6,280.75 21.85,277 16.55,277 L16.25,277 Q11.15,277.1 7.5,280.75 M-331.05,227 Q-334.25,241.7 -333.65,257.85 -331.75,303.3 -332.45,332.05 -333.05,360 -331.05,367.8 -269.05,366.95 -207.85,369.55 -183.65,368.85 -167.55,369.7 -151.2,370.55 -139.85,370.55 -135.5,370.55 -131.05,370.5 -124.8,371.25 -118.6,371.15 -107.2,370.25 -95.9,368.6 -84.2,367.15 -72.35,368.5 -61,369.8 -49.75,369.5 -37.95,369.15 -26.25,368.45 -12.55,368.2 6.95,367.8 L6.95,302.6 6.95,298.3 6.95,281.35 Q6.9,279.15 6.9,277 6.25,243.1 6.95,209.4 L-14.65,209.4 -14.65,227 -67.05,225.05 Q-205.8,229.6 -331.05,227Z" test="Drawer"/>
        <path id="Layer3_0_1_STROKES" stroke="#F60" stroke-width="2" stroke-linejoin="round" stroke-linecap="round" fill="none" d="M6.95,298.3 L6.95,302.6 6.95,367.8 Q-12.55,368.2 -26.25,368.45 -37.95,369.15 -49.75,369.5 -61,369.8 -72.35,368.5 -84.2,367.15 -95.9,368.6 -107.2,370.25 -118.6,371.15 -124.8,371.25 -131.05,370.5 -135.5,370.55 -139.85,370.55 -151.2,370.55 -167.55,369.7 -183.65,368.85 -207.85,369.55 -269.05,366.95 -331.05,367.8 -333.05,360 -332.45,332.05 -331.75,303.3 -333.65,257.85 -334.25,241.7 -331.05,227 -205.8,229.6 -67.05,225.05 L-14.65,227 -14.65,209.4 6.95,209.4 Q6.25,243.1 6.9,277 6.9,279.15 6.95,281.35 7.2,281.05 7.5,280.75 11.15,277.1 16.25,277 L16.55,277 Q21.85,277 25.6,280.75 29.35,284.5 29.35,289.8 29.35,295.1 25.6,298.85 21.85,302.6 16.55,302.6 L16.25,302.6 Q11.15,302.5 7.5,298.85 7.2,298.55 6.95,298.3 L6.95,281.35" test="Drawer"/>
      </g>
      <g id="DrawersCabinetFront">
        <path fill="#000" stroke="none" d="M6.4,467.25 Q6.65,467.5 6.95,467.8 10.6,471.45 15.7,471.55 L16,471.55 Q21.3,471.55 25.05,467.8 28.8,464.05 28.8,458.75 28.8,453.45 25.05,449.7 21.3,445.95 16,445.95 L15.7,445.95 Q10.6,446.05 6.95,449.7 6.65,450 6.4,450.3 L6.4,467.25 M6.4,378.35 L-15.2,378.35 -15.2,395.95 -67.6,394 Q-206.35,398.55 -331.6,395.95 -334.8,410.65 -334.2,426.8 -332.3,472.25 -333,501 -333.6,528.95 -331.6,536.75 -269.6,535.9 -208.4,538.5 -184.2,537.8 -168.1,538.65 -151.75,539.5 -140.4,539.5 -136.05,539.5 -131.6,539.45 -125.35,540.2 -119.15,540.1 -107.75,539.2 -96.45,537.55 -84.75,536.1 -72.9,537.45 -61.55,538.75 -50.3,538.45 -38.5,538.1 -26.8,537.4 -13.1,537.15 6.4,536.75 L6.4,471.55 6.4,467.25 6.4,450.3 Q6.35,448.1 6.35,445.95 5.7,412.05 6.4,378.35Z" test="DrawersCabinetFront"/>
        <path id="Layer2_0_1_STROKES" stroke="#F60" stroke-width="2" stroke-linejoin="round" stroke-linecap="round" fill="none" d="M6.4,467.25 L6.4,471.55 6.4,536.75 Q-13.1,537.15 -26.8,537.4 -38.5,538.1 -50.3,538.45 -61.55,538.75 -72.9,537.45 -84.75,536.1 -96.45,537.55 -107.75,539.2 -119.15,540.1 -125.35,540.2 -131.6,539.45 -136.05,539.5 -140.4,539.5 -151.75,539.5 -168.1,538.65 -184.2,537.8 -208.4,538.5 -269.6,535.9 -331.6,536.75 -333.6,528.95 -333,501 -332.3,472.25 -334.2,426.8 -334.8,410.65 -331.6,395.95 -206.35,398.55 -67.6,394 L-15.2,395.95 -15.2,378.35 6.4,378.35 Q5.7,412.05 6.35,445.95 6.35,448.1 6.4,450.3 6.65,450 6.95,449.7 10.6,446.05 15.7,445.95 L16,445.95 Q21.3,445.95 25.05,449.7 28.8,453.45 28.8,458.75 28.8,464.05 25.05,467.8 21.3,471.55 16,471.55 L15.7,471.55 Q10.6,471.45 6.95,467.8 6.65,467.5 6.4,467.25 L6.4,450.3" test="DrawersCabinetFront"/>
        <path fill="#000" stroke="none" d="M-40.75,201.35 Q-62.251,200.555 -82.95,199.35 -103.592,198.197 -158.25,198.4 -212.87,198.657 -238.1,198.95 -263.268,199.293 -295.2,199 -327.143,198.703 -345.6,200.95 -346.9,211.55 -348.4,296.8 -349.95,385.35 -348.5,402.8 -347.95,409.9 -351.6,473.85 -355.198,537.799 -352.45,539.2 -349.656,540.602 -342.25,540.05 -339.475,539.879 -336.25,539.45 -330.05,538.65 -323.8,537.85 -294.45,534.85 -265.05,535.75 -251.412,535.84 -236.95,536 -164.3,536.85 -154.7,536.85 -145.8,536.85 -80.65,539.35 -79.9,539.4 -79.1,539.4 -77.05,539.5 -75,539.55 -72.1,539.65 -69.3,539.7 -16.65,541.25 -15.45,539.35 -14.05,537.15 -13.95,528.45 -14,516.05 -14,508 -14,449.45 -13.25,429.1 -12.9,419.1 -14,372.8 -15.05,326.2 -14.7,314.55 -14.051,293.006 -14.55,247.3 -14.998,201.587 -17.1,201.85 -19.203,202.159 -40.75,201.35Z" test="DrawersCabinetFront"/>
        <path id="Layer1_0_1_STROKES" stroke="#F60" stroke-width="2" stroke-linejoin="round" stroke-linecap="round" fill="none" d="M-345.6,200.95 Q-327.143,198.703 -295.2,199 -263.268,199.293 -238.075,198.975 -212.87,198.657 -158.225,198.425 -103.592,198.197 -82.925,199.375 -62.251,200.555 -40.725,201.35 -19.203,202.159 -17.1,201.875 -14.998,201.587 -14.525,247.3 -14.051,293.006 -14.7,314.55 -15.05,326.2 -14,372.8 -12.9,419.1 -13.25,429.1 -14,449.45 -14,508 -14,516.05 -13.95,528.45 -14.05,537.15 -15.45,539.35 -16.65,541.25 -69.3,539.7 -72.1,539.65 -75,539.55 -77.05,539.5 -79.1,539.4 -79.9,539.4 -80.65,539.35 -145.8,536.85 -154.7,536.85 -164.3,536.85 -236.95,536 -251.412,535.84 -265.05,535.75 -294.45,534.85 -323.8,537.85 -330.05,538.65 -336.25,539.475 -339.475,539.879 -342.225,540.075 -349.656,540.602 -352.425,539.2 -355.198,537.799 -351.575,473.85 -347.95,409.9 -348.5,402.8 -349.95,385.35 -348.4,296.8 -346.9,211.55 -345.6,200.95Z" test="DrawersCabinetFront"/>
      </g>
    </g>
  </g>
</svg>