<?xml version="1.0" encoding="utf-8"?>
<svg id="EdithAnim12" image-rendering="inherit" baseProfile="basic" version="1.1" x="0px" y="0px" width="800" height="600" xmlns="http://www.w3.org/2000/svg" xmlns:xlink="http://www.w3.org/1999/xlink">
  <g id="21_GarbageDrawerf103r1" overflow="visible">
    <g id="GarbageDrawerGroupf103r1">
      <g id="Tween-6">
        <path fill="#000" stroke="none" d="M435.509,295.202 Q432.579,293.65 431.085,293.65 423.904,293.65 419.882,302.325 416.55,309.334 416.091,320.078 416.033,320.307 415.976,320.537 415.573,321.801 414.252,323.065 L405.003,323.065 Q404.83,323.122 401.211,323.467 398.568,323.754 397.649,325.133 397.362,325.535 397.304,326.742 397.247,328.121 397.19,328.35 395.811,326.972 388.917,326.972 380.184,326.972 380.184,334.095 380.184,334.727 380.357,336.623 380.472,338.749 380.644,339.381 378.691,339.725 376.737,342.081 373.98,345.298 373.98,350.296 373.98,351.273 374.612,353.801 374.956,355.237 375.588,357.765 375.99,359.546 376.393,360.178 377.599,361.901 380.644,362.361 381.448,362.476 391.1,365.061 403.509,367.876 418.101,369.484 423.617,370.116 460.385,375.632 488.707,379.883 508.183,380.745 528.348,381.664 555.349,383.847 574.25,385.341 591.026,385.341 605.79,385.341 628.311,381.032 651.521,376.666 658.013,372.242 660.483,370.576 662.953,369.887 665.653,369.14 666.975,368.335 671.801,365.233 672.95,363.51 676.109,358.684 676.799,356.616 677.086,355.754 677.086,353.284 677.086,350.698 676.397,348.917 675.362,346.964 674.788,345.815 L674.788,345.356 Q674.099,344.666 674.099,343.747 674.099,343.689 678.809,340.013 683.52,335.761 683.52,333.176 683.52,328.465 682.256,325.363 680.533,321.227 676.167,318.239 673.639,316.516 669.1,315.539 664.734,314.735 663.757,314.333 664.275,313.356 666.745,310.541 669.043,307.496 669.043,304.336 669.043,299.51 665.596,295.029 661.115,289.284 653.417,289.284 648.303,289.284 644.454,290.663 644.914,290.146 645.259,289.572 645.833,288.48 645.833,286.527 645.833,281.873 640.548,278.024 633.654,272.969 620.67,272.969 L613.891,273.773 Q611.076,275.037 609.41,279.058 609.295,279.46 609.065,279.863 609.295,279.46 609.41,279.058 610.616,274.749 602.171,270.958 594.473,267.453 588.728,267.453 581.949,267.453 579.076,269.636 576.204,271.82 575.514,277.565 573.216,275.267 571.895,274.29 569.597,272.509 567.931,272.509 560.979,272.509 557.073,275.611 555.12,277.162 549.317,284.918 L549.317,284.688 Q548.628,279.92 548.168,278.082 547.479,274.979 546.042,273.428 542.653,269.751 529.439,269.751 526.797,269.751 524.097,271.245 521.396,272.681 519.213,275.267 518.639,274.692 517.432,272.566 515.996,270.039 515.996,269.981 512.377,264.581 510.021,262.685 507.436,260.559 504.047,260.559 485.95,260.559 475.609,267.109 466.704,272.796 468.428,278.943 466.13,276.071 464.693,274.635 462.165,272.049 459.58,272.049 451.135,272.049 444.069,280.609 437.06,289.054 438.554,297.097 438.094,296.523 435.509,295.202 M476.7,300.832 Q478.424,301.636 481.067,303.302 482.905,304.279 483.135,304.451 483.594,304.738 482.905,304.681 483.594,304.738 483.135,304.451 482.905,304.279 481.067,303.302 478.424,301.636 476.7,300.832 473.598,299.395 470.266,299.395 459.58,299.395 453.72,304.451 459.58,299.395 470.266,299.395 473.598,299.395 476.7,300.832 M517.662,295.431 Q522.316,293.421 527.486,293.421 532.082,293.421 535.529,300.774 535.529,301.234 535.127,301.694 534.667,302.211 534.15,302.383 534.667,302.211 535.127,301.694 535.529,301.234 535.529,300.774 532.082,293.421 527.486,293.421 522.316,293.421 517.662,295.431 512.836,297.557 510.481,301.004 512.836,297.557 517.662,295.431 M598.839,290.893 Q599.241,290.893 601.884,293.765 604.469,296.638 604.469,297.097 604.469,303.015 602.229,306.117 600.735,308.185 598.724,308.588 600.735,308.185 602.229,306.117 604.469,303.015 604.469,297.097 604.469,296.638 601.884,293.765 599.241,290.893 598.839,290.893 584.362,290.893 577.583,296.638 584.362,290.893 598.839,290.893 M649.165,304.164 Q651.578,306.002 651.578,313.069 651.578,320.02 645.661,324.559 640.95,328.178 637.56,327.891 640.95,328.178 645.661,324.559 651.578,320.02 651.578,313.069 651.578,306.002 649.165,304.164 646.867,302.383 638.02,302.613 646.867,302.383 649.165,304.164 M653.187,325.823 Q661.402,325.708 662.091,325.937 665.136,326.857 665.136,332.717 665.136,334.67 663.355,336.508 662.206,337.6 659.161,339.611 658.357,340.128 656.978,341.334 655.715,342.368 655.255,342.598 655.715,342.368 656.978,341.334 658.357,340.128 659.161,339.611 662.206,337.6 663.355,336.508 665.136,334.67 665.136,332.717 665.136,326.857 662.091,325.937 661.402,325.708 653.187,325.823Z" test="Tween 6" stroke-width="1.149"/>
        <path id="Layer6_0_1_STROKES" stroke="#FFF" stroke-width="1.149" stroke-linejoin="round" stroke-linecap="round" fill="none" d="M674.788,345.815 Q675.362,346.964 676.397,348.917 677.086,350.698 677.086,353.284 677.086,355.754 676.799,356.616 676.109,358.684 672.95,363.51 671.801,365.233 666.975,368.335 665.653,369.14 662.953,369.887 660.483,370.576 658.013,372.242 651.521,376.666 628.311,381.032 605.79,385.341 591.026,385.341 574.25,385.341 555.349,383.847 528.348,381.664 508.183,380.745 488.707,379.883 460.385,375.632 423.617,370.116 418.101,369.484 403.509,367.876 391.1,365.061 381.448,362.476 380.644,362.361 377.599,361.901 376.393,360.178 375.99,359.546 375.588,357.765 374.956,355.237 374.612,353.801 373.98,351.273 373.98,350.296 373.98,345.298 376.737,342.081 378.691,339.725 380.644,339.381 380.472,338.749 380.357,336.623 380.184,334.727 380.184,334.095 380.184,326.972 388.917,326.972 395.811,326.972 397.19,328.35 397.247,328.121 397.304,326.742 397.362,325.535 397.649,325.133 398.568,323.754 401.211,323.467 404.83,323.122 405.003,323.065 L414.252,323.065 Q415.573,321.801 415.976,320.537 416.033,320.307 416.091,320.078 416.55,309.334 419.882,302.325 423.904,293.65 431.085,293.65 432.579,293.65 435.509,295.202 438.094,296.523 438.554,297.097 437.06,289.054 444.069,280.609 451.135,272.049 459.58,272.049 462.165,272.049 464.693,274.635 466.13,276.071 468.428,278.943 466.704,272.796 475.609,267.109 485.95,260.559 504.047,260.559 507.436,260.559 510.021,262.685 512.377,264.581 515.996,269.981 515.996,270.039 517.432,272.566 518.639,274.692 519.213,275.267 521.396,272.681 524.097,271.245 526.797,269.751 529.439,269.751 542.653,269.751 546.042,273.428 547.479,274.979 548.168,278.082 548.628,279.92 549.317,284.688 L549.317,284.918 Q555.12,277.162 557.073,275.611 560.979,272.509 567.931,272.509 569.597,272.509 571.895,274.29 573.216,275.267 575.514,277.565 576.204,271.82 579.076,269.636 581.949,267.453 588.728,267.453 594.473,267.453 602.171,270.958 610.616,274.749 609.41,279.058 611.076,275.037 613.891,273.773 615.787,272.969 620.67,272.969 633.654,272.969 640.548,278.024 645.833,281.873 645.833,286.527 645.833,288.48 645.259,289.572 644.914,290.146 644.454,290.663 648.303,289.284 653.417,289.284 661.115,289.284 665.596,295.029 669.043,299.51 669.043,304.336 669.043,307.496 666.745,310.541 664.275,313.356 663.757,314.333 664.734,314.735 669.1,315.539 673.639,316.516 676.167,318.239 680.533,321.227 682.256,325.363 683.52,328.465 683.52,333.176 683.52,335.761 678.809,340.013 674.099,343.689 674.099,343.747 674.099,344.666 674.788,345.356 M453.72,304.451 Q459.58,299.395 470.266,299.395 473.598,299.395 476.7,300.832 478.424,301.636 481.067,303.302 482.905,304.279 483.135,304.451 483.594,304.738 482.905,304.681 M510.481,301.004 Q512.836,297.557 517.662,295.431 522.316,293.421 527.486,293.421 532.082,293.421 535.529,300.774 535.529,301.234 535.127,301.694 534.667,302.211 534.15,302.383 M609.41,279.058 Q609.295,279.46 609.065,279.863 M577.583,296.638 Q584.362,290.893 598.839,290.893 599.241,290.893 601.884,293.765 604.469,296.638 604.469,297.097 604.469,303.015 602.229,306.117 600.735,308.185 598.724,308.588 M638.02,302.613 Q646.867,302.383 649.165,304.164 651.578,306.002 651.578,313.069 651.578,320.02 645.661,324.559 640.95,328.178 637.56,327.891 M653.187,325.823 Q661.402,325.708 662.091,325.937 665.136,326.857 665.136,332.717 665.136,334.67 663.355,336.508 662.206,337.6 659.161,339.611 658.357,340.128 656.978,341.334 655.715,342.368 655.255,342.598" test="Tween 6"/>
      </g>
      <g id="Tween-5">
        <g id="Tin-can-Rubbish">
          <path fill="#000" stroke="none" d="M411.648,339.901 Q402.629,350.759 398.205,354.838 387.692,364.547 379.419,364.777 L379.649,366.386 Q379.649,367.477 379.476,368.511 379.246,369.545 379.246,369.89 379.246,370.694 380.395,371.154 381.372,371.499 382.751,371.499 385.509,371.499 391.943,368.339 L392.23,368.339 Q389.128,372.475 389.128,373.682 389.128,377.071 393.207,377.071 395.677,377.071 396.022,376.957 396.367,376.784 397.975,375.578 398.262,374.946 398.55,374.659 L398.55,375.061 Q398.205,375.29 397.975,375.578 397.573,376.21 397.056,377.244 395.792,379.944 395.792,381.897 395.792,384.942 400.216,386.436 404.18,387.757 402.916,392.008 407.052,392.181 408.201,393.732 408.489,394.134 408.776,394.881 L408.776,394.938 Q419.174,390.745 423.655,387.47 427.964,384.253 429.745,379.772 427.964,384.253 423.655,387.47 419.174,390.745 408.776,394.938 409.178,396.087 409.638,397.983 410.155,399.305 412.74,401.315 414.406,402.694 413.544,405.452 L417.508,405.452 Q433.537,398.845 450.599,378.68 467.145,359.204 471.166,343.463 L471.166,339.901 Q468.524,339.327 465.249,339.901 L462.894,339.901 Q464.043,337.259 460.825,335.937 456.402,334.788 454.276,334.041 453.07,333.582 452.265,331.916 451.519,329.79 451.059,328.756 449.335,324.907 444.739,326.113 L444.739,322.953 Q445.544,322.149 445.544,321 445.544,319.392 442.384,319.104 438.822,319.047 438.018,318.989 438.018,318.415 438.42,316.979 438.822,315.6 438.822,315.14 438.822,313.015 435.26,312.727 436.869,309.797 434.226,308.189 431.928,307.327 430.492,306.753 432.158,307.787 432.158,310.142 432.158,317.553 426.47,324.045 417.738,332.605 411.648,339.901 M435.95,339.384 Q434.111,342.487 432.962,342.716 434.111,342.487 435.95,339.384 437.099,337.373 440.775,330.882 437.099,337.373 435.95,339.384 M458.7,348.289 Q456.517,351.621 453.874,352.54 456.517,351.621 458.7,348.289 460.94,344.842 462.089,339.901 460.94,344.842 458.7,348.289 M420.266,358.458 Q418.772,360.871 416.244,365.409 414.521,368.569 413.946,369.143 414.521,368.569 416.244,365.409 418.772,360.871 420.266,358.458 M388.266,337.661 Q379.017,349.495 377.983,355.47 377.408,358.4 377.236,360.009 376.948,361.675 377.063,362.02 377.006,362.192 376.948,362.364 376.891,362.824 376.891,363.169 376.891,364.088 377.236,364.375 377.695,364.777 379.017,364.777 379.189,364.777 379.419,364.777 387.692,364.547 398.205,354.838 402.629,350.759 411.648,339.901 417.738,332.605 426.47,324.045 432.158,317.553 432.158,310.142 432.158,307.787 430.492,306.753 429.802,306.35 428.941,306.178 428.079,306.006 426.987,306.006 421.989,306.006 409.752,315.945 397.516,325.826 388.266,337.661Z" test="Tin can Rubbish" stroke-width="1.149"/>
          <path id="Layer9_0_1_STROKES" stroke="#009EFF" stroke-width="1.149" stroke-linejoin="round" stroke-linecap="round" fill="none" d="M377.236,360.009 Q376.948,361.675 377.063,362.02 M430.492,306.753 Q431.928,307.327 434.226,308.189 436.869,309.797 435.26,312.727 438.822,313.015 438.822,315.14 438.822,315.6 438.42,316.979 438.018,318.415 438.018,318.989 438.822,319.047 442.384,319.104 445.544,319.392 445.544,321 445.544,322.149 444.739,322.953 L444.739,326.113 Q449.335,324.907 451.059,328.756 451.519,329.79 452.265,331.916 453.07,333.582 454.276,334.041 456.402,334.788 460.825,335.937 464.043,337.259 462.894,339.901 L465.249,339.901 Q468.524,339.327 471.166,339.901 L471.166,343.463 Q467.145,359.204 450.599,378.68 433.537,398.845 417.508,405.452 L413.544,405.452 Q414.406,402.694 412.74,401.315 410.155,399.305 409.638,397.983 409.178,396.087 408.776,394.938 L408.776,394.881 Q408.489,394.134 408.201,393.732 407.052,392.181 402.916,392.008 404.18,387.757 400.216,386.436 395.792,384.942 395.792,381.897 395.792,379.944 397.056,377.244 397.573,376.21 397.975,375.578 396.367,376.784 396.022,376.957 395.677,377.071 393.207,377.071 389.128,377.071 389.128,373.682 389.128,372.475 392.23,368.339 L391.943,368.339 Q385.509,371.499 382.751,371.499 381.372,371.499 380.395,371.154 379.246,370.694 379.246,369.89 379.246,369.545 379.476,368.511 379.649,367.477 379.649,366.386 M440.775,330.882 Q437.099,337.373 435.95,339.384 434.111,342.487 432.962,342.716 M462.089,339.901 Q460.94,344.842 458.7,348.289 456.517,351.621 453.874,352.54 M420.266,358.458 Q418.772,360.871 416.244,365.409 414.521,368.569 413.946,369.143 M397.975,375.578 Q398.205,375.29 398.55,375.061 L398.55,374.659 Q398.262,374.946 397.975,375.578Z M408.776,394.938 Q419.174,390.745 423.655,387.47 427.964,384.253 429.745,379.772" test="Tin can Rubbish"/>
          <path id="Layer9_0_2_STROKES" stroke="#FFF" stroke-width="1.149" stroke-linejoin="round" stroke-linecap="round" fill="none" d="M430.492,306.753 Q429.802,306.35 428.941,306.178 428.079,306.006 426.987,306.006 421.989,306.006 409.752,315.945 397.516,325.826 388.266,337.661 379.017,349.495 377.983,355.47 377.408,358.4 377.236,360.009 M377.063,362.02 Q377.006,362.192 376.948,362.364 376.891,362.824 376.891,363.169 376.891,364.088 377.236,364.375 377.695,364.777 379.017,364.777 379.189,364.777 379.419,364.777 387.692,364.547 398.205,354.838 402.629,350.759 411.648,339.901 417.738,332.605 426.47,324.045 432.158,317.553 432.158,310.142 432.158,307.787 430.492,306.753" test="Tin can Rubbish"/>
        </g>
        <g id="Bottle">
          <path fill="#000" stroke="none" d="M634.362,399.141 Q632.581,398.912 626.261,397.59 620.746,396.384 617.644,396.441 611.899,396.499 603.454,391.615 595.123,386.847 587.368,379.206 581.853,373.748 576.969,365.533 573.063,358.122 572.661,357.547 570.765,354.905 569.271,352.147 566.686,347.551 566.858,345.311 553.817,363.522 539.052,380.24 523.139,398.165 511.361,418.847 500.503,437.92 519.002,451.134 538.248,464.864 560.136,472.792 572.258,477.273 581.967,467.334 598.513,450.387 611.669,430.164 622.01,414.193 634.075,399.486 L634.362,399.141 M600.122,320.435 Q600.007,320.377 599.892,320.377 588.172,319.918 579.669,329.11 572.661,336.693 566.858,345.311 566.686,347.551 569.271,352.147 570.765,354.905 572.661,357.547 573.063,358.122 576.969,365.533 581.853,373.748 587.368,379.206 595.123,386.847 603.454,391.615 611.899,396.499 617.644,396.441 620.746,396.384 626.261,397.59 632.581,398.912 634.362,399.141 647.116,386.79 653.033,370.244 653.263,369.669 653.493,369.095 652.918,369.037 652.688,369.095 651.022,369.152 650.39,369.21 649.529,369.267 648.15,369.612 646.829,369.957 644.818,369.957 639.877,369.957 627.468,361.569 615.576,353.583 608.911,346.287 603.396,340.198 601.845,332.787 601.041,325.088 600.122,320.435 M656.997,324.054 Q649.988,318.482 645.335,307.796 625.055,322.043 600.122,320.435 601.041,325.088 601.845,332.787 603.396,340.198 608.911,346.287 615.576,353.583 627.468,361.569 639.877,369.957 644.818,369.957 646.829,369.957 648.15,369.612 649.529,369.267 650.39,369.21 651.022,369.152 652.688,369.095 652.918,369.037 653.493,369.095 647.69,345.828 666.419,330.891 666.936,330.489 667.453,329.972 658.721,325.433 656.997,324.054 M645.22,306.474 L645.335,307.796 Q649.988,318.482 656.997,324.054 658.721,325.433 667.453,329.972 L670.785,330.546 Q673.313,329.512 676.473,323.307 679.46,317.39 679.46,314.345 679.46,310.668 671.187,301.706 667.223,297.397 664.236,295.157 660.961,292.629 658.95,292.629 655.676,292.629 650.448,299.063 648.437,301.534 645.22,306.474 M662.11,298.776 Q661.766,298.259 661.708,298.202 661.766,298.259 662.11,298.776 662.972,299.983 665.73,304.062 670.498,310.324 674.749,313.139 670.498,310.324 665.73,304.062 662.972,299.983 662.11,298.776Z" test="Bottle" stroke-width="1.149"/>
          <path id="Layer10_0_1_STROKES" stroke="#FFF" stroke-width="1.149" stroke-linejoin="round" stroke-linecap="round" fill="none" d="M645.335,307.796 Q649.988,318.482 656.997,324.054 658.721,325.433 667.453,329.972 M670.785,330.546 Q673.313,329.512 676.473,323.307 679.46,317.39 679.46,314.345 679.46,310.668 671.187,301.706 667.223,297.397 664.236,295.157 660.961,292.629 658.95,292.629 655.676,292.629 650.448,299.063 648.437,301.534 645.22,306.474 M674.749,313.139 Q670.498,310.324 665.73,304.062 662.972,299.983 662.11,298.776 661.766,298.259 661.708,298.202 M566.858,345.311 Q566.686,347.551 569.271,352.147 570.765,354.905 572.661,357.547 573.063,358.122 576.969,365.533 581.853,373.748 587.368,379.206 595.123,386.847 603.454,391.615 611.899,396.499 617.644,396.441 620.746,396.384 626.261,397.59 632.581,398.912 634.362,399.141 M653.493,369.095 Q652.918,369.037 652.688,369.095 651.022,369.152 650.39,369.21 649.529,369.267 648.15,369.612 646.829,369.957 644.818,369.957 639.877,369.957 627.468,361.569 615.576,353.583 608.911,346.287 603.396,340.198 601.845,332.787 601.041,325.088 600.122,320.435 600.007,319.803 599.892,319.228 M634.362,399.141 Q634.592,399.199 634.707,399.199 634.707,399.371 634.075,399.486" test="Bottle"/>
          <path id="Layer10_0_2_STROKES" stroke="#0F0" stroke-width="1.149" stroke-linejoin="round" stroke-linecap="round" fill="none" d="M600.122,320.435 Q600.007,320.377 599.892,320.377 588.172,319.918 579.669,329.11 572.661,336.693 566.858,345.311 M634.362,399.141 Q647.116,386.79 653.033,370.244 653.263,369.669 653.493,369.095 647.69,345.828 666.419,330.891 666.936,330.489 667.453,329.972 M645.335,307.796 Q625.055,322.043 600.122,320.435 M634.075,399.486 Q622.01,414.193 611.669,430.164 598.513,450.387 581.967,467.334 572.258,477.273 560.136,472.792 538.248,464.864 519.002,451.134 500.503,437.92 511.361,418.847 523.139,398.165 539.052,380.24 553.817,363.522 566.858,345.311 M634.075,399.486 L634.362,399.141" test="Bottle"/>
        </g>
        <g id="Banana">
          <path fill="#000" stroke="none" d="M511.491,274.704 L510.916,275.279 Q507.125,280.794 502.529,289.469 498.967,296.075 497.186,297.799 491.268,303.372 483.857,308.025 476.389,312.391 473.459,314.345 459.671,323.479 447.434,342.667 435.312,361.568 436.346,371.565 L436.346,376.505 Q436.461,376.678 437.093,376.678 439.276,376.678 441.172,373.288 442.206,371.392 443.815,367.601 444.447,366.452 447.147,362.775 448.526,360.879 448.698,360.534 455.132,358.753 465.186,352.032 476.733,344.391 481.732,337.21 486.787,329.971 498.162,321.124 509.135,312.564 509.71,311.644 L510.112,311.644 510.112,313.942 Q507.125,326.811 492.934,350.998 485.523,363.579 483.742,367.084 479.606,374.897 479.376,378.689 479.721,378.689 480.87,378.918 481.961,379.091 482.478,379.091 486.902,379.091 499.369,367.371 512.352,355.192 518.097,344.736 519.304,342.495 520.74,333.763 522.291,324.398 522.751,323.02 524.245,318.998 524.589,317.792 525.049,315.953 525.911,312.851 530.277,319.687 535.735,325.892 539.526,330.316 554.291,347.091 560.955,354.904 564.172,371.507 566.126,381.619 566.126,388.11 571.181,388.168 574.169,381.504 576.811,375.471 576.811,366.452 576.811,357.892 573.824,350.825 572.33,347.321 566.873,338.588 561.759,330.373 559.174,323.594 555.268,313.31 547.512,306.934 539.699,300.499 536.884,294.18 534.011,287.86 531.426,282.747 528.841,277.577 529.645,276.14 L528.726,275.106 Q527.117,276.542 524.532,277.462 521.602,278.438 518.844,278.438 517.523,278.438 514.478,276.887 512.008,275.623 511.491,274.704 M525.106,245.692 Q520.108,244.198 518.557,249.311 518.097,250.92 517.695,257.929 517.236,264.765 514.191,268.499 511.318,272.119 511.318,274.244 511.318,274.474 511.491,274.704 512.008,275.623 514.478,276.887 517.523,278.438 518.844,278.438 521.602,278.438 524.532,277.462 527.117,276.542 528.726,275.106 529.645,274.302 530.219,273.325 529.875,273.095 529.53,272.923 528.209,272.061 527.289,271.372 525.279,269.993 524.647,269.304 523.555,268.04 523.555,260.284 523.555,255.114 525.106,245.692Z" test="Banana" stroke-width="1.149"/>
          <path id="Layer11_0_1_STROKES" stroke="#FF0" stroke-width="1.149" stroke-linejoin="round" stroke-linecap="round" fill="none" d="M529.645,276.14 Q528.841,277.577 531.426,282.747 534.011,287.86 536.884,294.18 539.699,300.499 547.512,306.934 555.268,313.31 559.174,323.594 561.759,330.373 566.873,338.588 572.33,347.321 573.824,350.825 576.811,357.892 576.811,366.452 576.811,375.471 574.169,381.504 571.181,388.168 566.126,388.11 566.126,381.619 564.172,371.507 560.955,354.904 554.291,347.091 539.526,330.316 535.735,325.892 530.277,319.687 525.911,312.851 525.049,315.953 524.589,317.792 524.245,318.998 522.751,323.02 522.291,324.398 520.74,333.763 519.304,342.495 518.097,344.736 512.352,355.192 499.369,367.371 486.902,379.091 482.478,379.091 481.961,379.091 480.87,378.918 479.721,378.689 479.376,378.689 479.606,374.897 483.742,367.084 485.523,363.579 492.934,350.998 507.125,326.811 510.112,313.942 L510.112,311.644 509.71,311.644 Q509.135,312.564 498.162,321.124 486.787,329.971 481.732,337.21 476.733,344.391 465.186,352.032 455.132,358.753 448.698,360.534 448.526,360.879 447.147,362.775 444.447,366.452 443.815,367.601 442.206,371.392 441.172,373.288 439.276,376.678 437.093,376.678 436.461,376.678 436.346,376.505 L436.346,371.565 Q435.312,361.568 447.434,342.667 459.671,323.479 473.459,314.345 476.389,312.391 483.857,308.025 491.268,303.372 497.186,297.799 498.967,296.075 502.529,289.469 507.125,280.794 510.916,275.279" test="Banana"/>
          <path id="Layer11_0_2_STROKES" stroke="#FFF" stroke-width="1.149" stroke-linejoin="round" stroke-linecap="round" fill="none" d="M511.491,274.704 Q511.318,274.474 511.318,274.244 511.318,272.119 514.191,268.499 517.236,264.765 517.695,257.929 518.097,250.92 518.557,249.311 520.108,244.198 525.106,245.692 523.555,255.114 523.555,260.284 523.555,268.04 524.647,269.304 525.279,269.993 527.289,271.372 528.209,272.061 529.53,272.923 529.875,273.095 530.219,273.325 529.645,274.302 528.726,275.106 M511.491,274.704 Q512.008,275.623 514.478,276.887 517.523,278.438 518.844,278.438 521.602,278.438 524.532,277.462 527.117,276.542 528.726,275.106" test="Banana"/>
        </g>
      </g>
      <g id="Tween-4">
        <path id="Layer5_0_1_STROKES" stroke="#FFF" stroke-width="1.149" stroke-linejoin="round" stroke-linecap="round" fill="none" d="M614.82,383.332 Q614.82,378.851 621.542,375.346" test="Tween 4"/>
        <g id="Garbage">
          <path fill="#000" stroke="none" d="M538.584,356.353 L537.091,355.492 Q536.976,355.721 536.631,356.353 536.976,355.721 537.091,355.492 537.091,355.377 537.091,355.319 537.091,351.815 535.08,350.436 532.322,348.425 524.452,348.425 516.121,348.425 498.829,357.158 496.818,358.134 493.543,364.339 493.026,365.373 492.394,366.235 491.935,361.122 485.788,357.56 479.698,353.94 472.172,353.94 463.612,353.94 457.005,357.905 448.675,362.903 448.675,372.267 448.675,372.727 448.732,373.129 444.711,369.337 435.289,369.337 427.361,369.337 422.478,371.807 417.307,374.45 412.769,381.172 409.207,386.4 408.69,390.421 408.403,392.547 408.805,394.96 406.737,390.191 405.013,387.951 401.968,383.929 395.017,383.929 388.467,383.929 383.986,387.893 379.62,391.857 379.62,397.545 379.62,398.579 380.252,406.967 378.586,409.954 377.609,413.171 376.058,419.548 376.058,425.523 376.058,430.981 380.022,434.428 383.642,437.588 388.295,437.588 390.019,437.588 395.936,436.611 401.796,435.634 405.645,435.634 410.241,435.634 421.903,438.966 433.508,442.299 445.515,442.299 449.02,442.299 477.055,439.771 509.342,437.186 533.931,437.186 539.446,437.128 543.64,437.186 L557.83,437.932 558.405,437.645 Q559.036,437.415 559.554,437.358 562.943,437.186 565.93,435.519 568.171,434.83 569.607,434.198 578.569,430.292 580.465,430.119 L580.867,430.119 Q580.867,429.947 607.697,437.473 637.168,445.114 649.176,445.114 662.964,445.114 669.628,438.047 673.017,434.543 673.592,430.866 673.592,429.028 673.477,428.855 673.419,428.74 673.305,428.625 672.845,428.223 671.638,428.108 672.845,428.223 673.305,428.625 L673.592,428.108 Q675.43,426.959 681.29,424.834 686.231,422.249 686.231,417.48 686.231,414.493 682.669,413.516 L683.071,413.516 Q684.909,411.735 689.735,407.943 693.699,404.267 693.699,400.475 693.699,397.258 691.746,393.409 689.276,388.64 685.656,388.64 679.681,390.077 677.556,390.249 680.313,387.893 680.313,386.687 680.199,384.734 679.107,382.895 677.039,379.276 672.385,379.276 663.251,379.276 659.402,380.597 655.61,381.919 649.52,387.089 648.256,380.54 643.948,376.346 639.466,372.095 633.549,372.095 627.574,372.095 621.542,375.312 L614.82,383.297 Q614.82,384.332 615.567,390.651 615.05,390.364 613.786,390.077 612.58,389.847 611.833,389.847 609.075,389.847 605.801,393.006 604.594,394.213 602.986,396.971 601.492,399.613 600.975,401.279 600.86,401.796 600.745,402.371 600.228,404.439 598.505,405.818 597.988,406.22 597.356,406.45 597.126,406.277 596.953,406.105 593.736,402.945 592.875,398.579 592.415,397.2 591.496,395.707 589.83,392.892 587.187,390.249 593.506,390.938 598.907,388.928 604.939,386.687 605.686,381.976 605.801,381.287 605.801,380.54 605.801,377.552 605.284,375.944 604.192,372.439 600.573,369.337 596.781,366.062 592.702,365.258 591.381,364.971 587.589,364.971 587.647,364.856 590.806,359.283 591.094,358.766 591.323,358.249 L591.84,357.56 Q592.128,357.158 592.185,356.87 592.645,354.515 591.955,352.217 591.553,351.125 589.945,347.736 588.106,343.944 585.866,342.336 580.58,338.544 567.597,338.544 553.981,338.544 542.261,351.757 540.423,353.826 538.584,356.353 M569.32,383.125 Q569.09,383.7 568.631,384.619 569.09,383.7 569.32,383.125 569.78,382.091 569.78,381.287 569.78,376.576 565.643,376.576 563.575,376.576 561.507,377.15 557.37,378.357 557.141,381.402 557.37,378.357 561.507,377.15 563.575,376.576 565.643,376.576 569.78,376.576 569.78,381.287 569.78,382.091 569.32,383.125 M654.116,405.071 Q657.104,407.024 657.104,410.127 657.104,407.024 654.116,405.071 651.646,403.462 648.946,403.462 645.154,403.462 643.028,404.784 640.788,406.105 640.788,408.518 640.788,406.105 643.028,404.784 645.154,403.462 648.946,403.462 651.646,403.462 654.116,405.071 M476.481,387.089 Q479.813,388.87 480.617,391.053 479.813,388.87 476.481,387.089 473.379,385.481 470.966,385.481 467.863,385.481 465.623,387.491 462.52,390.364 462.52,396.568 462.52,397.488 462.693,398.005 463.038,398.924 464.072,400.475 463.038,398.924 462.693,398.005 462.52,397.488 462.52,396.568 462.52,390.364 465.623,387.491 467.863,385.481 470.966,385.481 473.379,385.481 476.481,387.089 M523.245,381.976 Q524.049,383.355 524.049,386.917 524.049,393.351 518.994,397.775 513.536,402.486 505.091,402.084 513.536,402.486 518.994,397.775 524.049,393.351 524.049,386.917 524.049,383.355 523.245,381.976 522.326,380.367 519.741,380.367 519.224,380.367 518.477,380.597 517.385,380.942 516.179,381.172 517.385,380.942 518.477,380.597 519.224,380.367 519.741,380.367 522.326,380.367 523.245,381.976Z" test="Garbage" stroke-width="1.149"/>
          <path id="Layer7_0_1_STROKES" stroke="#FFF" stroke-width="1.149" stroke-linejoin="round" stroke-linecap="round" fill="none" d="M537.091,355.492 Q536.976,355.721 536.631,356.353 M673.305,428.625 Q673.419,428.74 673.477,428.855 673.592,429.028 673.592,430.866 673.017,434.543 669.628,438.047 662.964,445.114 649.176,445.114 637.168,445.114 607.697,437.473 580.867,429.947 580.867,430.119 L580.465,430.119 Q578.569,430.292 569.607,434.198 568.171,434.83 565.93,435.519 562.943,437.186 559.554,437.358 559.036,437.415 558.405,437.645 L557.83,437.932 543.64,437.186 Q539.446,437.128 533.931,437.186 509.342,437.186 477.055,439.771 449.02,442.299 445.515,442.299 433.508,442.299 421.903,438.966 410.241,435.634 405.645,435.634 401.796,435.634 395.936,436.611 390.019,437.588 388.295,437.588 383.642,437.588 380.022,434.428 376.058,430.981 376.058,425.523 376.058,419.548 377.609,413.171 378.586,409.954 380.252,406.967 379.62,398.579 379.62,397.545 379.62,391.857 383.986,387.893 388.467,383.929 395.017,383.929 401.968,383.929 405.013,387.951 406.737,390.191 408.805,394.96 408.403,392.547 408.69,390.421 409.207,386.4 412.769,381.172 417.307,374.45 422.478,371.807 427.361,369.337 435.289,369.337 444.711,369.337 448.732,373.129 448.675,372.727 448.675,372.267 448.675,362.903 457.005,357.905 463.612,353.94 472.172,353.94 479.698,353.94 485.788,357.56 491.935,361.122 492.394,366.235 493.026,365.373 493.543,364.339 496.818,358.134 498.829,357.158 516.121,348.425 524.452,348.425 532.322,348.425 535.08,350.436 537.091,351.815 537.091,355.319 537.091,355.377 537.091,355.492 M538.584,356.353 Q540.423,353.826 542.261,351.757 553.981,338.544 567.597,338.544 580.58,338.544 585.866,342.336 588.106,343.944 589.945,347.736 591.553,351.125 591.955,352.217 592.645,354.515 592.185,356.87 592.128,357.158 591.84,357.56 L591.323,358.249 Q591.094,358.766 590.806,359.283 587.647,364.856 587.589,364.971 591.381,364.971 592.702,365.258 596.781,366.062 600.573,369.337 604.192,372.439 605.284,375.944 605.801,377.552 605.801,380.54 605.801,381.287 605.686,381.976 604.939,386.687 598.907,388.928 593.506,390.938 587.187,390.249 589.83,392.892 591.496,395.707 592.415,397.2 592.875,398.579 593.736,402.945 596.953,406.105 597.126,406.277 597.356,406.45 597.988,406.22 598.505,405.818 600.228,404.439 600.745,402.371 600.86,401.796 600.975,401.279 601.492,399.613 602.986,396.971 604.594,394.213 605.801,393.006 609.075,389.847 611.833,389.847 612.58,389.847 613.786,390.077 615.05,390.364 615.567,390.651 614.82,384.332 614.82,383.297 M621.542,375.312 Q627.574,372.095 633.549,372.095 639.466,372.095 643.948,376.346 648.256,380.54 649.52,387.089 655.61,381.919 659.402,380.597 663.251,379.276 672.385,379.276 677.039,379.276 679.107,382.895 680.199,384.734 680.313,386.687 680.313,387.893 677.556,390.249 679.681,390.077 685.656,388.64 689.276,388.64 691.746,393.409 693.699,397.258 693.699,400.475 693.699,404.267 689.735,407.943 684.909,411.735 683.071,413.516 L682.669,413.516 Q686.231,414.493 686.231,417.48 686.231,422.249 681.29,424.834 675.43,426.959 673.592,428.108 M671.638,428.108 Q672.845,428.223 673.305,428.625 M557.141,381.402 Q557.37,378.357 561.507,377.15 563.575,376.576 565.643,376.576 569.78,376.576 569.78,381.287 569.78,382.091 569.32,383.125 569.09,383.7 568.631,384.619 M640.788,408.518 Q640.788,406.105 643.028,404.784 645.154,403.462 648.946,403.462 651.646,403.462 654.116,405.071 657.104,407.024 657.104,410.127 M464.072,400.475 Q463.038,398.924 462.693,398.005 462.52,397.488 462.52,396.568 462.52,390.364 465.623,387.491 467.863,385.481 470.966,385.481 473.379,385.481 476.481,387.089 479.813,388.87 480.617,391.053 M516.179,381.172 Q517.385,380.942 518.477,380.597 519.224,380.367 519.741,380.367 522.326,380.367 523.245,381.976 524.049,383.355 524.049,386.917 524.049,393.351 518.994,397.775 513.536,402.486 505.091,402.084" test="Garbage"/>
        </g>
        <g id="GarbageCloud">
          <path id="Layer8_0_1_STROKES" stroke="#FFF" stroke-width="1.149" stroke-linejoin="round" stroke-linecap="round" fill="none" d="M566.647,301.113 Q568.371,300.194 568.716,299.677 569.405,298.7 569.405,296 569.405,292.611 566.475,287.555 563.545,282.499 563.545,277.961 563.545,274.284 567.854,267.16 572.163,260.037 572.163,256.877 572.163,255.038 570.554,252.913 570.324,252.625 568.199,250.213 M634.668,282.959 Q635.358,281.465 638.115,278.995 641.792,275.605 644.78,275.433 645.584,277.042 645.584,278.593 645.584,278.995 641.62,282.959 L634.668,282.959 Q634.553,283.189 634.381,283.706 634.783,283.878 635.185,284.166 636.851,285.257 636.851,286.464 636.851,287.727 636.507,288.072 636.105,288.474 634.726,288.474 633.462,288.474 632.543,287.727 631.738,286.981 631.738,286.061 631.738,285.372 632.026,284.912 629.383,284.912 627.774,284.51 623.868,283.648 623.868,280.948 623.868,278.938 624.615,277.444 625.649,275.433 627.602,275.433 630.36,275.433 632.083,277.903 633.232,279.627 634.094,282.959 L634.668,282.959Z M632.026,284.912 L632.083,284.912 Q632.887,284.912 633.117,284.855 633.404,284.797 633.692,284.51 L633.692,283.706 Q632.945,283.993 632.543,284.28 632.198,284.51 632.026,284.912Z M634.381,283.706 Q633.175,283.131 632.141,283.361 M434.685,273.135 Q434.857,272.561 435.087,271.986 431.697,272.101 428.423,274.399 425.55,276.295 424.574,278.191 L424.574,282.155 428.136,282.155 Q433.536,278.076 434.283,274.629 434.455,273.882 434.685,273.135 434.398,273.135 434.053,273.135 M438.764,273.939 Q437.787,273.078 437.155,272.618 435.604,272.676 435.259,272.733 M437.155,272.618 Q436.638,272.216 436.351,272.044 436.179,271.929 435.661,271.929 435.374,271.929 435.087,271.986 436.581,268.194 439.97,264.001 L443.532,264.001 Q443.532,264.403 443.762,265.437 443.934,266.471 443.934,266.988 443.934,271.412 440.028,272.446 438.304,272.561 437.155,272.618Z M465.995,289.279 Q467.546,286.004 468.638,283.534 470.763,278.765 470.763,276.984 470.763,275.491 467.604,272.331 464.444,269.114 464.444,268.137 464.444,265.322 465.823,261.013 467.202,256.647 467.202,254.751 467.202,250.615 466.972,249.408 466.455,246.363 464.444,245.444 M434.857,273.939 L434.685,274.686 Q434.455,275.605 434.455,276.237 434.455,277.272 435.604,277.789 436.466,278.191 437.27,278.191 437.845,278.191 438.534,277.961 439.855,277.501 439.97,277.444 439.74,274.974 438.132,273.939 436.925,273.25 434.685,273.135" test="GarbageCloud"/>
        </g>
      </g>
      <path fill="#000" stroke="none" d="M319.55,289.375 L319.55,523.771 761.686,523.771 761.686,289.375 319.55,289.375Z" test="GarbageDrawerGroup" stroke-width="1.149"/>
      <g id="Drawer">
        <path fill="#000" stroke="none" d="M725.545,340.035 Q725.201,340.379 724.913,340.724 L724.913,360.199 Q725.201,360.487 725.545,360.831 729.739,365.025 735.599,365.14 L735.944,365.14 Q742.033,365.14 746.342,360.831 750.651,356.523 750.651,350.433 750.651,344.343 746.342,340.035 742.033,335.726 735.944,335.726 L735.599,335.726 Q729.739,335.841 725.545,340.035 M336.551,278.276 Q332.875,295.166 333.564,313.722 335.747,365.944 334.943,398.978 334.253,431.093 336.551,440.055 407.789,439.078 478.108,442.066 505.914,441.261 524.413,442.238 543.199,443.215 556.24,443.215 561.238,443.215 566.351,443.157 573.533,444.019 580.656,443.904 593.755,442.87 606.739,440.974 620.182,439.308 633.798,440.859 646.839,442.353 659.765,442.008 673.323,441.606 686.767,440.802 702.508,440.515 724.913,440.055 L724.913,365.14 724.913,360.199 724.913,340.724 Q724.856,338.196 724.856,335.726 724.109,296.775 724.913,258.053 L700.095,258.053 700.095,278.276 639.887,276.035 Q480.464,281.263 336.551,278.276Z" test="Drawer" stroke-width="1.149"/>
        <path id="Layer4_0_1_STROKES" stroke="#F60" stroke-width="2.298" stroke-linejoin="round" stroke-linecap="round" fill="none" d="M724.913,360.199 L724.913,365.14 724.913,440.055 Q702.508,440.515 686.767,440.802 673.323,441.606 659.765,442.008 646.839,442.353 633.798,440.859 620.182,439.308 606.739,440.974 593.755,442.87 580.656,443.904 573.533,444.019 566.351,443.157 561.238,443.215 556.24,443.215 543.199,443.215 524.413,442.238 505.914,441.261 478.108,442.066 407.789,439.078 336.551,440.055 334.253,431.093 334.943,398.978 335.747,365.944 333.564,313.722 332.875,295.166 336.551,278.276 480.464,281.263 639.887,276.035 L700.095,278.276 700.095,258.053 724.913,258.053 Q724.109,296.775 724.856,335.726 724.856,338.196 724.913,340.724 725.201,340.379 725.545,340.035 729.739,335.841 735.599,335.726 L735.944,335.726 Q742.033,335.726 746.342,340.035 750.651,344.343 750.651,350.433 750.651,356.523 746.342,360.831 742.033,365.14 735.944,365.14 L735.599,365.14 Q729.739,365.025 725.545,360.831 725.201,360.487 724.913,360.199 L724.913,340.724" test="Drawer"/>
      </g>
      <g id="DrawersCabinetFront">
        <path fill="#000" stroke="none" d="M365.777,554.311 Q366.065,554.598 366.409,554.943 370.603,559.137 376.463,559.252 L376.808,559.252 Q382.897,559.252 387.206,554.943 391.515,550.634 391.515,544.545 391.515,538.455 387.206,534.146 382.897,529.837 376.808,529.837 L376.463,529.837 Q370.603,529.952 366.409,534.146 366.065,534.491 365.777,534.836 L365.777,554.311 M365.777,452.165 L340.959,452.165 340.959,472.387 280.751,470.147 Q121.328,475.375 -22.585,472.387 -26.261,489.278 -25.572,507.834 -23.389,560.056 -24.193,593.09 -24.883,625.204 -22.585,634.167 48.653,633.19 118.972,636.177 146.778,635.373 165.277,636.35 184.063,637.326 197.104,637.326 202.102,637.326 207.215,637.269 214.397,638.131 221.52,638.016 234.619,636.982 247.603,635.086 261.046,633.42 274.662,634.971 287.703,636.465 300.629,636.12 314.187,635.718 327.631,634.914 343.372,634.626 365.777,634.167 L365.777,559.252 365.777,554.311 365.777,534.836 Q365.72,532.308 365.72,529.837 364.973,490.886 365.777,452.165Z" test="DrawersCabinetFront" stroke-width="1.149"/>
        <path id="Layer3_0_1_STROKES" stroke="#F60" stroke-width="2.298" stroke-linejoin="round" stroke-linecap="round" fill="none" d="M365.777,554.311 L365.777,559.252 365.777,634.167 Q343.372,634.626 327.631,634.914 314.187,635.718 300.629,636.12 287.703,636.465 274.662,634.971 261.046,633.42 247.603,635.086 234.619,636.982 221.52,638.016 214.397,638.131 207.215,637.269 202.102,637.326 197.104,637.326 184.063,637.326 165.277,636.35 146.778,635.373 118.972,636.177 48.653,633.19 -22.585,634.167 -24.883,625.204 -24.193,593.09 -23.389,560.056 -25.572,507.834 -26.261,489.278 -22.585,472.387 121.328,475.375 280.751,470.147 L340.959,472.387 340.959,452.165 365.777,452.165 Q364.973,490.886 365.72,529.837 365.72,532.308 365.777,534.836 366.065,534.491 366.409,534.146 370.603,529.952 376.463,529.837 L376.808,529.837 Q382.897,529.837 387.206,534.146 391.515,538.455 391.515,544.545 391.515,550.634 387.206,554.943 382.897,559.252 376.808,559.252 L376.463,559.252 Q370.603,559.137 366.409,554.943 366.065,554.598 365.777,554.311 L365.777,534.836" test="DrawersCabinetFront"/>
        <path fill="#000" stroke="none" d="M311.602,248.792 Q286.897,247.879 263.114,246.494 239.397,245.169 176.595,245.403 113.836,245.698 84.847,246.034 55.929,246.429 19.239,246.092 -17.464,245.751 -38.671,248.332 -40.164,260.512 -41.888,358.464 -43.669,460.208 -42.003,480.258 -41.371,488.416 -45.565,561.895 -49.699,635.372 -46.541,636.982 -43.331,638.593 -34.821,637.958 -31.633,637.762 -27.927,637.269 -20.804,636.35 -13.622,635.431 20.101,631.984 53.881,633.018 69.551,633.121 86.168,633.305 169.643,634.282 180.673,634.282 190.9,634.282 265.757,637.154 266.619,637.212 267.538,637.212 269.893,637.326 272.249,637.384 275.581,637.499 278.798,637.556 339.293,639.337 340.672,637.154 342.28,634.626 342.395,624.63 342.338,610.382 342.338,601.133 342.338,533.859 343.2,510.477 343.602,498.987 342.338,445.788 341.131,392.245 341.533,378.859 342.279,354.105 341.706,301.589 341.191,249.064 338.776,249.367 336.36,249.722 311.602,248.792Z" test="DrawersCabinetFront" stroke-width="1.149"/>
        <path id="Layer2_0_1_STROKES" stroke="#F60" stroke-width="2.298" stroke-linejoin="round" stroke-linecap="round" fill="none" d="M-38.671,248.332 Q-17.464,245.751 19.239,246.092 55.929,246.429 84.876,246.063 113.836,245.698 176.623,245.431 239.397,245.169 263.143,246.523 286.897,247.879 311.631,248.792 336.36,249.722 338.776,249.395 341.191,249.064 341.735,301.589 342.279,354.105 341.533,378.859 341.131,392.245 342.338,445.788 343.602,498.987 343.2,510.477 342.338,533.859 342.338,601.133 342.338,610.382 342.395,624.63 342.28,634.626 340.672,637.154 339.293,639.337 278.798,637.556 275.581,637.499 272.249,637.384 269.893,637.326 267.538,637.212 266.619,637.212 265.757,637.154 190.9,634.282 180.673,634.282 169.643,634.282 86.168,633.305 69.551,633.121 53.881,633.018 20.101,631.984 -13.622,635.431 -20.804,636.35 -27.927,637.298 -31.633,637.762 -34.793,637.987 -43.331,638.593 -46.513,636.982 -49.699,635.372 -45.536,561.895 -41.371,488.416 -42.003,480.258 -43.669,460.208 -41.888,358.464 -40.164,260.512 -38.671,248.332Z" test="DrawersCabinetFront"/>
      </g>
    </g>
  </g>
</svg>