<?xml version="1.0" encoding="utf-8"?>
<svg id="EdithAnim12" image-rendering="inherit" baseProfile="basic" version="1.1" x="0px" y="0px" width="800" height="600" xmlns="http://www.w3.org/2000/svg" xmlns:xlink="http://www.w3.org/1999/xlink">
  <g id="21_GarbageDrawerf106r1" overflow="visible">
    <g id="GarbageDrawerGroupf106r1">
      <g id="Tween-6">
        <path fill="#000" stroke="none" d="M408.686,309.502 Q405.529,307.831 403.92,307.831 396.183,307.831 391.85,317.178 388.259,324.73 387.764,336.305 387.702,336.553 387.64,336.8 387.207,338.162 385.783,339.524 L375.817,339.524 Q375.632,339.586 371.732,339.957 368.885,340.267 367.894,341.752 367.585,342.186 367.523,343.485 367.461,344.971 367.399,345.219 365.913,343.733 358.485,343.733 349.077,343.733 349.077,351.409 349.077,352.09 349.262,354.132 349.386,356.422 349.572,357.103 347.467,357.475 345.363,360.013 342.391,363.479 342.391,368.864 342.391,369.917 343.072,372.64 343.444,374.188 344.125,376.911 344.558,378.83 344.991,379.511 346.291,381.368 349.572,381.863 350.438,381.987 360.838,384.773 374.208,387.806 389.931,389.539 395.873,390.22 435.489,396.162 466.006,400.743 486.99,401.671 508.717,402.662 537.81,405.014 558.175,406.623 576.25,406.623 592.158,406.623 616.423,401.981 641.43,397.277 648.425,392.51 651.087,390.715 653.748,389.972 656.658,389.168 658.081,388.301 663.281,384.958 664.519,383.101 667.924,377.902 668.666,375.673 668.976,374.745 668.976,372.083 668.976,369.298 668.233,367.379 667.119,365.274 666.5,364.036 L666.5,363.541 Q665.757,362.798 665.757,361.808 665.757,361.746 670.833,357.784 675.909,353.204 675.909,350.418 675.909,345.342 674.547,342 672.69,337.543 667.985,334.324 665.262,332.467 660.372,331.415 655.667,330.548 654.615,330.115 655.172,329.063 657.834,326.03 660.31,322.749 660.31,319.344 660.31,314.145 656.596,309.317 651.768,303.127 643.473,303.127 637.964,303.127 633.817,304.612 634.312,304.055 634.683,303.436 635.302,302.26 635.302,300.155 635.302,295.141 629.607,290.994 622.179,285.547 608.19,285.547 L600.886,286.414 Q597.853,287.775 596.058,292.108 595.934,292.542 595.686,292.975 595.934,292.542 596.058,292.108 597.358,287.466 588.258,283.381 579.964,279.605 573.774,279.605 566.469,279.605 563.374,281.957 560.279,284.309 559.537,290.499 557.061,288.023 555.637,286.971 553.161,285.052 551.366,285.052 543.876,285.052 539.667,288.394 537.562,290.066 531.31,298.422 L531.31,298.175 Q530.567,293.037 530.072,291.056 529.329,287.713 527.782,286.042 524.13,282.081 509.893,282.081 507.045,282.081 504.136,283.69 501.227,285.237 498.875,288.023 498.256,287.404 496.956,285.114 495.408,282.39 495.408,282.328 491.508,276.51 488.971,274.467 486.185,272.177 482.533,272.177 463.035,272.177 451.893,279.233 442.298,285.361 444.155,291.985 441.679,288.89 440.131,287.342 437.408,284.557 434.622,284.557 425.523,284.557 417.909,293.78 410.358,302.879 411.967,311.545 411.472,310.926 408.686,309.502 M453.069,315.569 Q454.926,316.435 457.773,318.23 459.754,319.282 460.001,319.468 460.497,319.778 459.754,319.716 460.497,319.778 460.001,319.468 459.754,319.282 457.773,318.23 454.926,316.435 453.069,315.569 449.726,314.021 446.136,314.021 434.622,314.021 428.309,319.468 434.622,314.021 446.136,314.021 449.726,314.021 453.069,315.569 M497.203,309.75 Q502.217,307.583 507.788,307.583 512.74,307.583 516.454,315.507 516.454,316.002 516.021,316.497 515.526,317.054 514.969,317.24 515.526,317.054 516.021,316.497 516.454,316.002 516.454,315.507 512.74,307.583 507.788,307.583 502.217,307.583 497.203,309.75 492.004,312.04 489.466,315.754 492.004,312.04 497.203,309.75 M584.668,304.86 Q585.101,304.86 587.949,307.955 590.734,311.05 590.734,311.545 590.734,317.921 588.32,321.263 586.711,323.492 584.544,323.925 586.711,323.492 588.32,321.263 590.734,317.921 590.734,311.545 590.734,311.05 587.949,307.955 585.101,304.86 584.668,304.86 569.069,304.86 561.765,311.05 569.069,304.86 584.668,304.86 M638.892,319.159 Q641.492,321.14 641.492,328.753 641.492,336.243 635.117,341.133 630.041,345.033 626.389,344.723 630.041,345.033 635.117,341.133 641.492,336.243 641.492,328.753 641.492,321.14 638.892,319.159 636.416,317.24 626.884,317.487 636.416,317.24 638.892,319.159 M643.225,342.495 Q652.077,342.371 652.82,342.619 656.101,343.609 656.101,349.923 656.101,352.028 654.182,354.008 652.944,355.184 649.663,357.351 648.796,357.908 647.311,359.208 645.949,360.322 645.454,360.57 645.949,360.322 647.311,359.208 648.796,357.908 649.663,357.351 652.944,355.184 654.182,354.008 656.101,352.028 656.101,349.923 656.101,343.609 652.82,342.619 652.077,342.371 643.225,342.495Z" test="Tween 6" stroke-width="1.238"/>
        <path id="Layer6_0_1_STROKES" stroke="#FFF" stroke-width="1.238" stroke-linejoin="round" stroke-linecap="round" fill="none" d="M666.5,364.036 Q667.119,365.274 668.233,367.379 668.976,369.298 668.976,372.083 668.976,374.745 668.666,375.673 667.924,377.902 664.519,383.101 663.281,384.958 658.081,388.301 656.658,389.168 653.748,389.972 651.087,390.715 648.425,392.51 641.43,397.277 616.423,401.981 592.158,406.623 576.25,406.623 558.175,406.623 537.81,405.014 508.717,402.662 486.99,401.671 466.006,400.743 435.489,396.162 395.873,390.22 389.931,389.539 374.208,387.806 360.838,384.773 350.438,381.987 349.572,381.863 346.291,381.368 344.991,379.511 344.558,378.83 344.125,376.911 343.444,374.188 343.072,372.64 342.391,369.917 342.391,368.864 342.391,363.479 345.363,360.013 347.467,357.475 349.572,357.103 349.386,356.422 349.262,354.132 349.077,352.09 349.077,351.409 349.077,343.733 358.485,343.733 365.913,343.733 367.399,345.219 367.461,344.971 367.523,343.485 367.585,342.186 367.894,341.752 368.885,340.267 371.732,339.957 375.632,339.586 375.817,339.524 L385.783,339.524 Q387.207,338.162 387.64,336.8 387.702,336.553 387.764,336.305 388.259,324.73 391.85,317.178 396.183,307.831 403.92,307.831 405.529,307.831 408.686,309.502 411.472,310.926 411.967,311.545 410.358,302.879 417.909,293.78 425.523,284.557 434.622,284.557 437.408,284.557 440.131,287.342 441.679,288.89 444.155,291.985 442.298,285.361 451.893,279.233 463.035,272.177 482.533,272.177 486.185,272.177 488.971,274.467 491.508,276.51 495.408,282.328 495.408,282.39 496.956,285.114 498.256,287.404 498.875,288.023 501.227,285.237 504.136,283.69 507.045,282.081 509.893,282.081 524.13,282.081 527.782,286.042 529.329,287.713 530.072,291.056 530.567,293.037 531.31,298.175 L531.31,298.422 Q537.562,290.066 539.667,288.394 543.876,285.052 551.366,285.052 553.161,285.052 555.637,286.971 557.061,288.023 559.537,290.499 560.279,284.309 563.374,281.957 566.469,279.605 573.774,279.605 579.964,279.605 588.258,283.381 597.358,287.466 596.058,292.108 597.853,287.775 600.886,286.414 602.929,285.547 608.19,285.547 622.179,285.547 629.607,290.994 635.302,295.141 635.302,300.155 635.302,302.26 634.683,303.436 634.312,304.055 633.817,304.612 637.964,303.127 643.473,303.127 651.768,303.127 656.596,309.317 660.31,314.145 660.31,319.344 660.31,322.749 657.834,326.03 655.172,329.063 654.615,330.115 655.667,330.548 660.372,331.415 665.262,332.467 667.985,334.324 672.69,337.543 674.547,342 675.909,345.342 675.909,350.418 675.909,353.204 670.833,357.784 665.757,361.746 665.757,361.808 665.757,362.798 666.5,363.541 M428.309,319.468 Q434.622,314.021 446.136,314.021 449.726,314.021 453.069,315.569 454.926,316.435 457.773,318.23 459.754,319.282 460.001,319.468 460.497,319.778 459.754,319.716 M489.466,315.754 Q492.004,312.04 497.203,309.75 502.217,307.583 507.788,307.583 512.74,307.583 516.454,315.507 516.454,316.002 516.021,316.497 515.526,317.054 514.969,317.24 M596.058,292.108 Q595.934,292.542 595.686,292.975 M561.765,311.05 Q569.069,304.86 584.668,304.86 585.101,304.86 587.949,307.955 590.734,311.05 590.734,311.545 590.734,317.921 588.32,321.263 586.711,323.492 584.544,323.925 M626.884,317.487 Q636.416,317.24 638.892,319.159 641.492,321.14 641.492,328.753 641.492,336.243 635.117,341.133 630.041,345.033 626.389,344.723 M643.225,342.495 Q652.077,342.371 652.82,342.619 656.101,343.609 656.101,349.923 656.101,352.028 654.182,354.008 652.944,355.184 649.663,357.351 648.796,357.908 647.311,359.208 645.949,360.322 645.454,360.57" test="Tween 6"/>
      </g>
      <g id="Tween-5">
        <g id="Tin-can-Rubbish">
          <path fill="#000" stroke="none" d="M382.942,346.678 Q373.223,358.377 368.457,362.772 357.129,373.233 348.216,373.48 L348.463,375.213 Q348.463,376.39 348.278,377.504 348.03,378.618 348.03,378.989 348.03,379.856 349.268,380.351 350.32,380.722 351.806,380.722 354.777,380.722 361.71,377.318 L362.019,377.318 Q358.677,381.775 358.677,383.075 358.677,386.727 363.072,386.727 365.733,386.727 366.105,386.603 366.476,386.417 368.209,385.117 368.519,384.436 368.828,384.127 L368.828,384.56 Q368.457,384.808 368.209,385.117 367.776,385.798 367.219,386.912 365.857,389.822 365.857,391.926 365.857,395.207 370.623,396.817 374.895,398.24 373.533,402.821 377.99,403.006 379.228,404.678 379.537,405.111 379.847,405.916 L379.847,405.978 Q391.05,401.459 395.879,397.931 400.521,394.464 402.44,389.636 400.521,394.464 395.879,397.931 391.05,401.459 379.847,405.978 380.28,407.216 380.775,409.258 381.332,410.682 384.118,412.849 385.913,414.334 384.984,417.305 L389.255,417.305 Q406.525,410.187 424.91,388.46 442.737,367.476 447.07,350.515 L447.07,346.678 Q444.222,346.059 440.694,346.678 L438.156,346.678 Q439.394,343.83 435.928,342.406 431.162,341.168 428.871,340.364 427.571,339.869 426.705,338.073 425.9,335.783 425.405,334.669 423.548,330.522 418.596,331.822 L418.596,328.417 Q419.463,327.55 419.463,326.312 419.463,324.579 416.058,324.27 412.22,324.208 411.354,324.146 411.354,323.527 411.787,321.979 412.22,320.494 412.22,319 412.22,317.708 408.382,317.399 410.116,314.242 407.268,312.509 404.792,311.58 403.245,310.961 405.04,312.075 405.04,314.613 405.04,322.598 398.912,329.593 389.503,338.816 382.942,346.678 M409.125,346.12 Q407.144,349.463 405.906,349.711 407.144,349.463 409.125,346.12 410.363,343.954 414.325,336.959 410.363,343.954 409.125,346.12 M433.638,355.715 Q431.285,359.305 428.438,360.296 431.285,359.305 433.638,355.715 436.052,352.001 437.29,346.678 436.052,352.001 433.638,355.715 M392.227,366.671 Q390.617,369.271 387.894,374.161 386.037,377.566 385.418,378.185 386.037,377.566 387.894,374.161 390.617,369.271 392.227,366.671 M357.748,344.263 Q347.782,357.015 346.668,363.452 346.049,366.609 345.863,368.343 345.554,370.138 345.678,370.509 345.616,370.695 345.554,370.88 345.492,371.376 345.492,371.747 345.492,372.737 345.863,373.047 346.359,373.48 347.782,373.48 347.968,373.48 348.216,373.48 357.129,373.233 368.457,362.772 373.223,358.377 382.942,346.678 389.503,338.816 398.912,329.593 405.04,322.598 405.04,314.613 405.04,312.075 403.245,310.961 402.502,310.528 401.573,310.342 400.645,310.157 399.469,310.157 394.084,310.157 380.899,320.865 367.714,331.512 357.748,344.263Z" test="Tin can Rubbish" stroke-width="1.238"/>
          <path id="Layer9_0_1_STROKES" stroke="#009EFF" stroke-width="1.238" stroke-linejoin="round" stroke-linecap="round" fill="none" d="M345.863,368.343 Q345.554,370.138 345.678,370.509 M403.245,310.961 Q404.792,311.58 407.268,312.509 410.116,314.242 408.382,317.399 412.22,317.708 412.22,319 412.22,320.494 411.787,321.979 411.354,323.527 411.354,324.146 412.22,324.208 416.058,324.27 419.463,324.579 419.463,326.312 419.463,327.55 418.596,328.417 L418.596,331.822 Q423.548,330.522 425.405,334.669 425.9,335.783 426.705,338.073 427.571,339.869 428.871,340.364 431.162,341.168 435.928,342.406 439.394,343.83 438.156,346.678 L440.694,346.678 Q444.222,346.059 447.07,346.678 L447.07,350.515 Q442.737,367.476 424.91,388.46 406.525,410.187 389.255,417.305 L384.984,417.305 Q385.913,414.334 384.118,412.849 381.332,410.682 380.775,409.258 380.28,407.216 379.847,405.978 L379.847,405.916 Q379.537,405.111 379.228,404.678 377.99,403.006 373.533,402.821 374.895,398.24 370.623,396.817 365.857,395.207 365.857,391.926 365.857,389.822 367.219,386.912 367.776,385.798 368.209,385.117 366.476,386.417 366.105,386.603 365.733,386.727 363.072,386.727 358.677,386.727 358.677,383.075 358.677,381.775 362.019,377.318 L361.71,377.318 Q354.777,380.722 351.806,380.722 350.32,380.722 349.268,380.351 348.03,379.856 348.03,378.989 348.03,378.618 348.278,377.504 348.463,376.39 348.463,375.213 M414.325,336.959 Q410.363,343.954 409.125,346.12 407.144,349.463 405.906,349.711 M437.29,346.678 Q436.052,352.001 433.638,355.715 431.285,359.305 428.438,360.296 M392.227,366.671 Q390.617,369.271 387.894,374.161 386.037,377.566 385.418,378.185 M368.209,385.117 Q368.457,384.808 368.828,384.56 L368.828,384.127 Q368.519,384.436 368.209,385.117Z M379.847,405.978 Q391.05,401.459 395.879,397.931 400.521,394.464 402.44,389.636" test="Tin can Rubbish"/>
          <path id="Layer9_0_2_STROKES" stroke="#FFF" stroke-width="1.238" stroke-linejoin="round" stroke-linecap="round" fill="none" d="M403.245,310.961 Q402.502,310.528 401.573,310.342 400.645,310.157 399.469,310.157 394.084,310.157 380.899,320.865 367.714,331.512 357.748,344.263 347.782,357.015 346.668,363.452 346.049,366.609 345.863,368.343 M345.678,370.509 Q345.616,370.695 345.554,370.88 345.492,371.376 345.492,371.747 345.492,372.737 345.863,373.047 346.359,373.48 347.782,373.48 347.968,373.48 348.216,373.48 357.129,373.233 368.457,362.772 373.223,358.377 382.942,346.678 389.503,338.816 398.912,329.593 405.04,322.598 405.04,314.613 405.04,312.075 403.245,310.961" test="Tin can Rubbish"/>
        </g>
        <g id="Bottle">
          <path fill="#000" stroke="none" d="M622.885,410.511 Q620.966,410.263 614.157,408.839 608.214,407.539 604.872,407.601 598.682,407.663 589.583,402.402 580.607,397.264 572.251,389.031 566.308,383.151 561.047,374.299 556.837,366.314 556.404,365.695 554.361,362.848 552.752,359.876 549.967,354.924 550.152,352.51 536.101,372.133 520.193,390.146 503.046,409.458 490.357,431.742 478.658,452.293 498.59,466.53 519.326,481.324 542.91,489.866 555.971,494.695 566.432,483.986 584.259,465.725 598.434,443.937 609.576,426.728 622.575,410.882 L622.885,410.511 M585.992,325.708 Q585.869,325.646 585.745,325.646 573.117,325.151 563.956,335.055 556.404,343.225 550.152,352.51 549.967,354.924 552.752,359.876 554.361,362.848 556.404,365.695 556.837,366.314 561.047,374.299 566.308,383.151 572.251,389.031 580.607,397.264 589.583,402.402 598.682,407.663 604.872,407.601 608.214,407.539 614.157,408.839 620.966,410.263 622.885,410.511 636.627,397.202 643.002,379.375 643.25,378.756 643.497,378.137 642.878,378.075 642.631,378.137 640.836,378.199 640.155,378.261 639.226,378.323 637.741,378.694 636.317,379.065 634.151,379.065 628.827,379.065 615.457,370.028 602.643,361.424 595.463,353.563 589.521,347.001 587.849,339.016 586.983,330.722 585.992,325.708 M647.273,329.607 Q639.722,323.603 634.708,312.09 612.857,327.441 585.992,325.708 586.983,330.722 587.849,339.016 589.521,347.001 595.463,353.563 602.643,361.424 615.457,370.028 628.827,379.065 634.151,379.065 636.317,379.065 637.741,378.694 639.226,378.323 640.155,378.261 640.836,378.199 642.631,378.137 642.878,378.075 643.497,378.137 637.246,353.067 657.425,336.973 657.982,336.54 658.539,335.983 649.13,331.093 647.273,329.607 M634.584,310.666 L634.708,312.09 Q639.722,323.603 647.273,329.607 649.13,331.093 658.539,335.983 L662.129,336.602 Q664.853,335.488 668.257,328.803 671.476,322.427 671.476,319.146 671.476,315.185 662.563,305.528 658.292,300.886 655.073,298.472 651.544,295.748 649.378,295.748 645.85,295.748 640.217,302.681 638.05,305.343 634.584,310.666 M652.782,302.371 Q652.411,301.814 652.349,301.752 652.411,301.814 652.782,302.371 653.711,303.671 656.682,308.066 661.82,314.813 666.4,317.846 661.82,314.813 656.682,308.066 653.711,303.671 652.782,302.371Z" test="Bottle" stroke-width="1.238"/>
          <path id="Layer10_0_1_STROKES" stroke="#FFF" stroke-width="1.238" stroke-linejoin="round" stroke-linecap="round" fill="none" d="M634.708,312.09 Q639.722,323.603 647.273,329.607 649.13,331.093 658.539,335.983 M662.129,336.602 Q664.853,335.488 668.257,328.803 671.476,322.427 671.476,319.146 671.476,315.185 662.563,305.528 658.292,300.886 655.073,298.472 651.544,295.748 649.378,295.748 645.85,295.748 640.217,302.681 638.05,305.343 634.584,310.666 M666.4,317.846 Q661.82,314.813 656.682,308.066 653.711,303.671 652.782,302.371 652.411,301.814 652.349,301.752 M550.152,352.51 Q549.967,354.924 552.752,359.876 554.361,362.848 556.404,365.695 556.837,366.314 561.047,374.299 566.308,383.151 572.251,389.031 580.607,397.264 589.583,402.402 598.682,407.663 604.872,407.601 608.214,407.539 614.157,408.839 620.966,410.263 622.885,410.511 M643.497,378.137 Q642.878,378.075 642.631,378.137 640.836,378.199 640.155,378.261 639.226,378.323 637.741,378.694 636.317,379.065 634.151,379.065 628.827,379.065 615.457,370.028 602.643,361.424 595.463,353.563 589.521,347.001 587.849,339.016 586.983,330.722 585.992,325.708 585.869,325.027 585.745,324.408 M622.885,410.511 Q623.132,410.573 623.256,410.573 623.256,410.758 622.575,410.882" test="Bottle"/>
          <path id="Layer10_0_2_STROKES" stroke="#0F0" stroke-width="1.238" stroke-linejoin="round" stroke-linecap="round" fill="none" d="M585.992,325.708 Q585.869,325.646 585.745,325.646 573.117,325.151 563.956,335.055 556.404,343.225 550.152,352.51 M622.885,410.511 Q636.627,397.202 643.002,379.375 643.25,378.756 643.497,378.137 637.246,353.067 657.425,336.973 657.982,336.54 658.539,335.983 M634.708,312.09 Q612.857,327.441 585.992,325.708 M622.575,410.882 Q609.576,426.728 598.434,443.937 584.259,465.725 566.432,483.986 555.971,494.695 542.91,489.866 519.326,481.324 498.59,466.53 478.658,452.293 490.357,431.742 503.046,409.458 520.193,390.146 536.101,372.133 550.152,352.51 M622.575,410.882 L622.885,410.511" test="Bottle"/>
        </g>
        <g id="Banana">
          <path fill="#000" stroke="none" d="M490.523,276.401 L489.904,277.02 Q485.819,282.963 480.867,292.309 477.029,299.428 475.11,301.285 468.735,307.289 460.75,312.303 452.703,317.008 449.546,319.112 434.69,328.954 421.505,349.629 408.444,369.994 409.558,380.765 L409.558,386.088 Q409.682,386.274 410.363,386.274 412.715,386.274 414.758,382.621 415.872,380.579 417.605,376.493 418.286,375.255 421.195,371.294 422.681,369.251 422.867,368.88 429.799,366.961 440.632,359.718 453.074,351.486 458.459,343.748 463.906,335.949 476.163,326.416 487.986,317.193 488.605,316.203 L489.038,316.203 489.038,318.679 Q485.819,332.544 470.53,358.604 462.545,372.16 460.626,375.936 456.169,384.355 455.921,388.44 456.293,388.44 457.531,388.688 458.707,388.873 459.264,388.873 464.03,388.873 477.463,376.246 491.452,363.123 497.642,351.857 498.942,349.443 500.489,340.034 502.161,329.945 502.656,328.459 504.265,324.126 504.637,322.826 505.132,320.845 506.06,317.503 510.765,324.869 516.645,331.554 520.731,336.32 536.639,354.395 543.819,362.814 547.286,380.703 549.39,391.597 549.39,398.592 554.838,398.654 558.056,391.473 560.904,384.974 560.904,375.255 560.904,366.032 557.685,358.419 556.076,354.643 550.195,345.234 544.686,336.382 541.9,329.078 537.691,317.998 529.335,311.127 520.916,304.194 517.883,297.385 514.788,290.576 512.003,285.067 509.217,279.496 510.084,277.949 L509.093,276.834 Q507.36,278.382 504.575,279.372 501.418,280.425 498.447,280.425 497.023,280.425 493.742,278.753 491.081,277.391 490.523,276.401 M505.194,245.142 Q499.808,243.532 498.137,249.041 497.642,250.775 497.209,258.326 496.713,265.692 493.433,269.716 490.338,273.616 490.338,275.906 490.338,276.154 490.523,276.401 491.081,277.391 493.742,278.753 497.023,280.425 498.447,280.425 501.418,280.425 504.575,279.372 507.36,278.382 509.093,276.834 510.084,275.968 510.703,274.915 510.331,274.668 509.96,274.482 508.536,273.554 507.546,272.811 505.379,271.325 504.698,270.583 503.522,269.221 503.522,260.864 503.522,255.293 505.194,245.142Z" test="Banana" stroke-width="1.238"/>
          <path id="Layer11_0_1_STROKES" stroke="#FF0" stroke-width="1.238" stroke-linejoin="round" stroke-linecap="round" fill="none" d="M510.084,277.949 Q509.217,279.496 512.003,285.067 514.788,290.576 517.883,297.385 520.916,304.194 529.335,311.127 537.691,317.998 541.9,329.078 544.686,336.382 550.195,345.234 556.076,354.643 557.685,358.419 560.904,366.032 560.904,375.255 560.904,384.974 558.056,391.473 554.838,398.654 549.39,398.592 549.39,391.597 547.286,380.703 543.819,362.814 536.639,354.395 520.731,336.32 516.645,331.554 510.765,324.869 506.06,317.503 505.132,320.845 504.637,322.826 504.265,324.126 502.656,328.459 502.161,329.945 500.489,340.034 498.942,349.443 497.642,351.857 491.452,363.123 477.463,376.246 464.03,388.873 459.264,388.873 458.707,388.873 457.531,388.688 456.293,388.44 455.921,388.44 456.169,384.355 460.626,375.936 462.545,372.16 470.53,358.604 485.819,332.544 489.038,318.679 L489.038,316.203 488.605,316.203 Q487.986,317.193 476.163,326.416 463.906,335.949 458.459,343.748 453.074,351.486 440.632,359.718 429.799,366.961 422.867,368.88 422.681,369.251 421.195,371.294 418.286,375.255 417.605,376.493 415.872,380.579 414.758,382.621 412.715,386.274 410.363,386.274 409.682,386.274 409.558,386.088 L409.558,380.765 Q408.444,369.994 421.505,349.629 434.69,328.954 449.546,319.112 452.703,317.008 460.75,312.303 468.735,307.289 475.11,301.285 477.029,299.428 480.867,292.309 485.819,282.963 489.904,277.02" test="Banana"/>
          <path id="Layer11_0_2_STROKES" stroke="#FFF" stroke-width="1.238" stroke-linejoin="round" stroke-linecap="round" fill="none" d="M490.523,276.401 Q490.338,276.154 490.338,275.906 490.338,273.616 493.433,269.716 496.713,265.692 497.209,258.326 497.642,250.775 498.137,249.041 499.808,243.532 505.194,245.142 503.522,255.293 503.522,260.864 503.522,269.221 504.698,270.583 505.379,271.325 507.546,272.811 508.536,273.554 509.96,274.482 510.331,274.668 510.703,274.915 510.084,275.968 509.093,276.834 M490.523,276.401 Q491.081,277.391 493.742,278.753 497.023,280.425 498.447,280.425 501.418,280.425 504.575,279.372 507.36,278.382 509.093,276.834" test="Banana"/>
        </g>
      </g>
      <g id="Tween-4">
        <path id="Layer5_0_1_STROKES" stroke="#FFF" stroke-width="1.238" stroke-linejoin="round" stroke-linecap="round" fill="none" d="M601.865,394.078 Q601.865,389.25 609.107,385.474" test="Tween 4"/>
        <g id="Garbage">
          <path fill="#000" stroke="none" d="M519.724,365.008 L518.114,364.079 Q517.99,364.327 517.619,365.008 517.99,364.327 518.114,364.079 518.114,363.955 518.114,363.894 518.114,360.118 515.948,358.632 512.976,356.466 504.496,356.466 495.521,356.466 476.889,365.874 474.722,366.927 471.194,373.612 470.637,374.726 469.956,375.655 469.461,370.145 462.837,366.308 456.276,362.408 448.167,362.408 438.944,362.408 431.826,366.679 422.85,372.064 422.85,382.154 422.85,382.649 422.912,383.083 418.579,378.997 408.427,378.997 399.885,378.997 394.624,381.659 389.053,384.506 384.163,391.749 380.325,397.381 379.768,401.714 379.458,404.005 379.891,406.605 377.663,401.467 375.806,399.053 372.525,394.72 365.035,394.72 357.979,394.72 353.151,398.991 348.446,403.262 348.446,409.39 348.446,410.504 349.127,419.542 347.332,422.76 346.28,426.227 344.608,433.098 344.608,439.535 344.608,445.416 348.88,449.13 352.779,452.534 357.793,452.534 359.65,452.534 366.026,451.482 372.34,450.43 376.487,450.43 381.439,450.43 394.005,454.02 406.508,457.61 419.446,457.61 423.221,457.61 453.429,454.887 488.216,452.101 514.71,452.101 520.652,452.039 525.171,452.101 L540.46,452.906 541.079,452.596 Q541.76,452.349 542.317,452.287 545.969,452.101 549.188,450.306 551.602,449.563 553.15,448.882 562.806,444.673 564.849,444.487 L565.282,444.487 Q565.282,444.302 594.189,452.41 625.944,460.643 638.881,460.643 653.737,460.643 660.917,453.03 664.57,449.254 665.189,445.292 665.189,443.311 665.065,443.126 665.003,443.002 664.879,442.878 664.384,442.445 663.084,442.321 664.384,442.445 664.879,442.878 L665.189,442.321 Q667.169,441.083 673.483,438.793 678.807,436.007 678.807,430.869 678.807,427.65 674.969,426.598 L675.402,426.598 Q677.383,424.679 682.582,420.594 686.854,416.632 686.854,412.547 686.854,409.081 684.749,404.933 682.087,399.796 678.188,399.796 671.75,401.343 669.46,401.529 672.431,398.991 672.431,397.691 672.307,395.586 671.131,393.606 668.903,389.706 663.889,389.706 654.047,389.706 649.899,391.13 645.814,392.553 639.252,398.124 637.891,391.068 633.248,386.549 628.42,381.968 622.044,381.968 615.607,381.968 609.107,385.435 L601.865,394.039 Q601.865,395.153 602.67,401.962 602.112,401.653 600.751,401.343 599.451,401.095 598.646,401.095 595.675,401.095 592.147,404.5 590.847,405.8 589.113,408.771 587.504,411.618 586.947,413.414 586.823,413.971 586.699,414.59 586.142,416.818 584.285,418.304 583.728,418.737 583.047,418.984 582.8,418.799 582.614,418.613 579.148,415.209 578.219,410.504 577.724,409.019 576.733,407.409 574.938,404.376 572.091,401.529 578.9,402.272 584.719,400.105 591.218,397.691 592.023,392.615 592.147,391.872 592.147,391.068 592.147,387.849 591.589,386.116 590.413,382.34 586.514,378.997 582.428,375.469 578.033,374.602 576.61,374.293 572.524,374.293 572.586,374.169 575.991,368.165 576.3,367.607 576.548,367.05 L577.105,366.308 Q577.414,365.874 577.476,365.565 577.971,363.027 577.229,360.551 576.795,359.375 575.062,355.723 573.081,351.637 570.667,349.904 564.972,345.819 550.983,345.819 536.313,345.819 523.685,360.056 521.704,362.284 519.724,365.008 M552.84,393.853 Q552.592,394.472 552.097,395.463 552.592,394.472 552.84,393.853 553.335,392.739 553.335,391.872 553.335,386.797 548.878,386.797 546.65,386.797 544.422,387.416 539.965,388.715 539.717,391.996 539.965,388.715 544.422,387.416 546.65,386.797 548.878,386.797 553.335,386.797 553.335,391.872 553.335,392.739 552.84,393.853 M644.204,417.499 Q647.423,419.604 647.423,422.946 647.423,419.604 644.204,417.499 641.543,415.766 638.633,415.766 634.548,415.766 632.258,417.189 629.844,418.613 629.844,421.213 629.844,418.613 632.258,417.189 634.548,415.766 638.633,415.766 641.543,415.766 644.204,417.499 M452.81,398.124 Q456.4,400.043 457.266,402.395 456.4,400.043 452.81,398.124 449.467,396.391 446.867,396.391 443.525,396.391 441.111,398.558 437.768,401.653 437.768,408.338 437.768,409.328 437.954,409.885 438.325,410.876 439.439,412.547 438.325,410.876 437.954,409.885 437.768,409.328 437.768,408.338 437.768,401.653 441.111,398.558 443.525,396.391 446.867,396.391 449.467,396.391 452.81,398.124 M503.196,392.615 Q504.063,394.101 504.063,397.939 504.063,404.871 498.616,409.638 492.735,414.713 483.636,414.28 492.735,414.713 498.616,409.638 504.063,404.871 504.063,397.939 504.063,394.101 503.196,392.615 502.206,390.882 499.42,390.882 498.863,390.882 498.059,391.13 496.882,391.501 495.583,391.749 496.882,391.501 498.059,391.13 498.863,390.882 499.42,390.882 502.206,390.882 503.196,392.615Z" test="Garbage" stroke-width="1.238"/>
          <path id="Layer7_0_1_STROKES" stroke="#FFF" stroke-width="1.238" stroke-linejoin="round" stroke-linecap="round" fill="none" d="M518.114,364.079 Q517.99,364.327 517.619,365.008 M664.879,442.878 Q665.003,443.002 665.065,443.126 665.189,443.311 665.189,445.292 664.57,449.254 660.917,453.03 653.737,460.643 638.881,460.643 625.944,460.643 594.189,452.41 565.282,444.302 565.282,444.487 L564.849,444.487 Q562.806,444.673 553.15,448.882 551.602,449.563 549.188,450.306 545.969,452.101 542.317,452.287 541.76,452.349 541.079,452.596 L540.46,452.906 525.171,452.101 Q520.652,452.039 514.71,452.101 488.216,452.101 453.429,454.887 423.221,457.61 419.446,457.61 406.508,457.61 394.005,454.02 381.439,450.43 376.487,450.43 372.34,450.43 366.026,451.482 359.65,452.534 357.793,452.534 352.779,452.534 348.88,449.13 344.608,445.416 344.608,439.535 344.608,433.098 346.28,426.227 347.332,422.76 349.127,419.542 348.446,410.504 348.446,409.39 348.446,403.262 353.151,398.991 357.979,394.72 365.035,394.72 372.525,394.72 375.806,399.053 377.663,401.467 379.891,406.605 379.458,404.005 379.768,401.714 380.325,397.381 384.163,391.749 389.053,384.506 394.624,381.659 399.885,378.997 408.427,378.997 418.579,378.997 422.912,383.083 422.85,382.649 422.85,382.154 422.85,372.064 431.826,366.679 438.944,362.408 448.167,362.408 456.276,362.408 462.837,366.308 469.461,370.145 469.956,375.655 470.637,374.726 471.194,373.612 474.722,366.927 476.889,365.874 495.521,356.466 504.496,356.466 512.976,356.466 515.948,358.632 518.114,360.118 518.114,363.894 518.114,363.955 518.114,364.079 M519.724,365.008 Q521.704,362.284 523.685,360.056 536.313,345.819 550.983,345.819 564.972,345.819 570.667,349.904 573.081,351.637 575.062,355.723 576.795,359.375 577.229,360.551 577.971,363.027 577.476,365.565 577.414,365.874 577.105,366.308 L576.548,367.05 Q576.3,367.607 575.991,368.165 572.586,374.169 572.524,374.293 576.61,374.293 578.033,374.602 582.428,375.469 586.514,378.997 590.413,382.34 591.589,386.116 592.147,387.849 592.147,391.068 592.147,391.872 592.023,392.615 591.218,397.691 584.719,400.105 578.9,402.272 572.091,401.529 574.938,404.376 576.733,407.409 577.724,409.019 578.219,410.504 579.148,415.209 582.614,418.613 582.8,418.799 583.047,418.984 583.728,418.737 584.285,418.304 586.142,416.818 586.699,414.59 586.823,413.971 586.947,413.414 587.504,411.618 589.113,408.771 590.847,405.8 592.147,404.5 595.675,401.095 598.646,401.095 599.451,401.095 600.751,401.343 602.112,401.653 602.67,401.962 601.865,395.153 601.865,394.039 M609.107,385.435 Q615.607,381.968 622.044,381.968 628.42,381.968 633.248,386.549 637.891,391.068 639.252,398.124 645.814,392.553 649.899,391.13 654.047,389.706 663.889,389.706 668.903,389.706 671.131,393.606 672.307,395.586 672.431,397.691 672.431,398.991 669.46,401.529 671.75,401.343 678.188,399.796 682.087,399.796 684.749,404.933 686.854,409.081 686.854,412.547 686.854,416.632 682.582,420.594 677.383,424.679 675.402,426.598 L674.969,426.598 Q678.807,427.65 678.807,430.869 678.807,436.007 673.483,438.793 667.169,441.083 665.189,442.321 M663.084,442.321 Q664.384,442.445 664.879,442.878 M539.717,391.996 Q539.965,388.715 544.422,387.416 546.65,386.797 548.878,386.797 553.335,386.797 553.335,391.872 553.335,392.739 552.84,393.853 552.592,394.472 552.097,395.463 M629.844,421.213 Q629.844,418.613 632.258,417.189 634.548,415.766 638.633,415.766 641.543,415.766 644.204,417.499 647.423,419.604 647.423,422.946 M439.439,412.547 Q438.325,410.876 437.954,409.885 437.768,409.328 437.768,408.338 437.768,401.653 441.111,398.558 443.525,396.391 446.867,396.391 449.467,396.391 452.81,398.124 456.4,400.043 457.266,402.395 M495.583,391.749 Q496.882,391.501 498.059,391.13 498.863,390.882 499.42,390.882 502.206,390.882 503.196,392.615 504.063,394.101 504.063,397.939 504.063,404.871 498.616,409.638 492.735,414.713 483.636,414.28" test="Garbage"/>
        </g>
        <g id="GarbageCloud">
          <path id="Layer8_0_1_STROKES" stroke="#FFF" stroke-width="1.238" stroke-linejoin="round" stroke-linecap="round" fill="none" d="M549.945,305.472 Q551.802,304.481 552.173,303.924 552.916,302.872 552.916,299.962 552.916,296.31 549.759,290.863 546.602,285.416 546.602,280.526 546.602,276.564 551.245,268.889 555.887,261.213 555.887,257.808 555.887,255.828 554.154,253.537 553.907,253.228 551.616,250.628 M623.235,285.911 Q623.977,284.302 626.949,281.64 630.91,277.988 634.129,277.802 634.996,279.535 634.996,281.207 634.996,281.64 630.725,285.911 L623.235,285.911 Q623.111,286.159 622.925,286.716 623.358,286.902 623.792,287.211 625.587,288.387 625.587,289.687 625.587,291.049 625.215,291.42 624.782,291.854 623.296,291.854 621.935,291.854 620.944,291.049 620.078,290.244 620.078,289.254 620.078,288.511 620.387,288.016 617.54,288.016 615.807,287.582 611.597,286.654 611.597,283.745 611.597,281.578 612.402,279.969 613.516,277.802 615.621,277.802 618.592,277.802 620.449,280.464 621.687,282.321 622.616,285.911 L623.235,285.911Z M620.387,288.016 L620.449,288.016 Q621.316,288.016 621.563,287.954 621.873,287.892 622.182,287.582 L622.182,286.716 Q621.378,287.025 620.944,287.335 620.573,287.582 620.387,288.016Z M622.925,286.716 Q621.625,286.097 620.511,286.344 M407.761,275.326 Q407.946,274.707 408.194,274.088 404.542,274.212 401.014,276.688 397.919,278.731 396.866,280.773 L396.866,285.045 400.704,285.045 Q406.523,280.65 407.327,276.936 407.513,276.131 407.761,275.326 407.451,275.326 407.08,275.326 M412.156,276.193 Q411.103,275.264 410.422,274.769 408.751,274.831 408.38,274.893 M410.422,274.769 Q409.865,274.336 409.556,274.15 409.37,274.026 408.813,274.026 408.504,274.026 408.194,274.088 409.803,270.003 413.456,265.484 L417.293,265.484 Q417.293,265.917 417.541,267.032 417.727,268.146 417.727,268.703 417.727,273.469 413.517,274.583 411.66,274.707 410.422,274.769Z M441.496,292.72 Q443.167,289.192 444.344,286.53 446.634,281.392 446.634,279.474 446.634,277.864 443.229,274.46 439.825,270.993 439.825,269.941 439.825,266.908 441.311,262.265 442.796,257.561 442.796,255.518 442.796,251.061 442.549,249.761 441.991,246.481 439.825,245.49 M407.946,276.193 L407.761,276.998 Q407.513,277.988 407.513,278.669 407.513,279.783 408.751,280.34 409.68,280.773 410.546,280.773 411.165,280.773 411.908,280.526 413.332,280.031 413.456,279.969 413.208,277.307 411.475,276.193 410.175,275.45 407.761,275.326" test="GarbageCloud"/>
        </g>
      </g>
      <path fill="#000" stroke="none" d="M283.725,321.053 L283.725,573.605 760.107,573.605 760.107,321.053 283.725,321.053Z" test="GarbageDrawerGroup" stroke-width="1.238"/>
      <g id="Drawer">
        <path fill="#000" stroke="none" d="M721.159,375.639 Q720.787,376.01 720.478,376.382 L720.478,397.366 Q720.787,397.675 721.159,398.047 725.677,402.566 731.991,402.689 L732.363,402.689 Q738.924,402.689 743.566,398.047 748.209,393.404 748.209,386.843 748.209,380.282 743.566,375.639 738.924,370.996 732.363,370.996 L731.991,370.996 Q725.677,371.12 721.159,375.639 M302.034,309.097 Q298.072,327.295 298.815,347.289 301.167,403.556 300.301,439.148 299.558,473.751 302.034,483.407 378.79,482.355 454.555,485.573 484.515,484.707 504.447,485.759 524.688,486.811 538.739,486.811 544.125,486.811 549.634,486.75 557.371,487.678 565.047,487.554 579.16,486.44 593.149,484.397 607.634,482.602 622.304,484.273 636.356,485.883 650.283,485.511 664.892,485.078 679.376,484.212 696.337,483.902 720.478,483.407 L720.478,402.689 720.478,397.366 720.478,376.382 Q720.416,373.658 720.416,370.996 719.611,329.028 720.478,287.308 L693.737,287.308 693.737,309.097 628.866,306.682 Q457.093,312.315 302.034,309.097Z" test="Drawer" stroke-width="1.238"/>
        <path id="Layer4_0_1_STROKES" stroke="#F60" stroke-width="2.476" stroke-linejoin="round" stroke-linecap="round" fill="none" d="M720.478,397.366 L720.478,402.689 720.478,483.407 Q696.337,483.902 679.376,484.212 664.892,485.078 650.283,485.511 636.356,485.883 622.304,484.273 607.634,482.602 593.149,484.397 579.16,486.44 565.047,487.554 557.371,487.678 549.634,486.75 544.125,486.811 538.739,486.811 524.688,486.811 504.447,485.759 484.515,484.707 454.555,485.573 378.79,482.355 302.034,483.407 299.558,473.751 300.301,439.148 301.167,403.556 298.815,347.289 298.072,327.295 302.034,309.097 457.093,312.315 628.866,306.682 L693.737,309.097 693.737,287.308 720.478,287.308 Q719.611,329.028 720.416,370.996 720.416,373.658 720.478,376.382 720.787,376.01 721.159,375.639 725.677,371.12 731.991,370.996 L732.363,370.996 Q738.924,370.996 743.566,375.639 748.209,380.282 748.209,386.843 748.209,393.404 743.566,398.047 738.924,402.689 732.363,402.689 L731.991,402.689 Q725.677,402.566 721.159,398.047 720.787,397.675 720.478,397.366 L720.478,376.382" test="Drawer"/>
      </g>
      <g id="DrawersCabinetFront">
        <path fill="#000" stroke="none" d="M333.546,606.491 Q333.855,606.801 334.227,607.172 338.745,611.691 345.059,611.815 L345.431,611.815 Q351.992,611.815 356.634,607.172 361.277,602.53 361.277,595.968 361.277,589.407 356.634,584.764 351.992,580.122 345.431,580.122 L345.059,580.122 Q338.745,580.246 334.227,584.764 333.855,585.136 333.546,585.507 L333.546,606.491 M333.546,496.433 L306.805,496.433 306.805,518.222 241.934,515.808 Q70.161,521.441 -84.898,518.222 -88.86,536.421 -88.117,556.414 -85.765,612.681 -86.631,648.274 -87.374,682.876 -84.898,692.532 -8.142,691.48 67.623,694.699 97.583,693.832 117.515,694.885 137.756,695.937 151.807,695.937 157.193,695.937 162.702,695.875 170.439,696.803 178.115,696.68 192.228,695.565 206.217,693.523 220.702,691.728 235.372,693.399 249.424,695.008 263.351,694.637 277.96,694.204 292.444,693.337 309.405,693.027 333.546,692.532 L333.546,611.815 333.546,606.491 333.546,585.507 Q333.484,582.784 333.484,580.122 332.679,538.154 333.546,496.433Z" test="DrawersCabinetFront" stroke-width="1.238"/>
        <path id="Layer3_0_1_STROKES" stroke="#F60" stroke-width="2.476" stroke-linejoin="round" stroke-linecap="round" fill="none" d="M333.546,606.491 L333.546,611.815 333.546,692.532 Q309.405,693.027 292.444,693.337 277.96,694.204 263.351,694.637 249.424,695.008 235.372,693.399 220.702,691.728 206.217,693.523 192.228,695.565 178.115,696.68 170.439,696.803 162.702,695.875 157.193,695.937 151.807,695.937 137.756,695.937 117.515,694.885 97.583,693.832 67.623,694.699 -8.142,691.48 -84.898,692.532 -87.374,682.876 -86.631,648.274 -85.765,612.681 -88.117,556.414 -88.86,536.421 -84.898,518.222 70.161,521.441 241.934,515.808 L306.805,518.222 306.805,496.433 333.546,496.433 Q332.679,538.154 333.484,580.122 333.484,582.784 333.546,585.507 333.855,585.136 334.227,584.764 338.745,580.246 345.059,580.122 L345.431,580.122 Q351.992,580.122 356.634,584.764 361.277,589.407 361.277,595.968 361.277,602.53 356.634,607.172 351.992,611.815 345.431,611.815 L345.059,611.815 Q338.745,611.691 334.227,607.172 333.855,606.801 333.546,606.491 L333.546,585.507" test="DrawersCabinetFront"/>
        <path fill="#000" stroke="none" d="M275.174,277.307 Q248.556,276.323 222.93,274.831 197.376,273.404 129.709,273.655 62.089,273.973 30.855,274.336 -.303,274.761 -39.835,274.398 -79.381,274.03 -102.23,276.812 -103.84,289.935 -105.697,395.474 -107.616,505.099 -105.82,526.702 -105.14,535.492 -109.658,614.662 -114.113,693.831 -110.711,695.565 -107.252,697.301 -98.083,696.618 -94.648,696.406 -90.655,695.875 -82.979,694.885 -75.242,693.894 -38.907,690.18 -2.509,691.294 14.374,691.406 32.278,691.604 122.219,692.656 134.104,692.656 145.122,692.656 225.778,695.751 226.706,695.813 227.697,695.813 230.235,695.937 232.772,695 236.363,696.123 239.829,696.184 305.01,698.103 306.495,695.751 308.229,693.027 308.352,682.257 308.291,666.906 308.291,656.94 308.291,584.455 309.219,559.262 309.652,546.882 308.291,489.562 306.991,431.871 307.424,417.449 308.227,390.777 307.61,334.193 307.055,277.601 304.453,277.926 301.849,278.309 275.174,277.307Z" test="DrawersCabinetFront" stroke-width="1.238"/>
        <path id="Layer2_0_1_STROKES" stroke="#F60" stroke-width="2.476" stroke-linejoin="round" stroke-linecap="round" fill="none" d="M-102.23,276.812 Q-79.381,274.03 -39.835,274.398 -.303,274.761 30.886,274.367 62.089,273.973 129.74,273.686 197.376,273.404 222.961,274.862 248.556,276.323 275.205,277.307 301.849,278.309 304.453,277.957 307.055,277.601 307.641,334.193 308.227,390.777 307.424,417.449 306.991,431.871 308.291,489.562 309.652,546.882 309.219,559.262 308.291,584.455 308.291,656.94 308.291,666.906 308.352,682.257 308.229,693.027 306.495,695.751 305.01,698.103 239.829,696.184 236.363,696.123 232.772,695 230.235,695.937 227.697,695.813 226.706,695.813 225.778,695.751 145.122,692.656 134.104,692.656 122.219,692.656 32.278,691.604 14.374,691.406 -2.509,691.294 -38.907,690.18 -75.242,693.894 -82.979,694.885 -90.655,695.906 -94.648,696.406 -98.052,696.649 -107.252,697.301 -110.68,695.565 -114.113,693.831 -109.627,614.662 -105.14,535.492 -105.82,526.702 -107.616,505.099 -105.697,395.474 -103.84,289.935 -102.23,276.812Z" test="DrawersCabinetFront"/>
      </g>
    </g>
  </g>
</svg>