<?xml version="1.0" encoding="utf-8"?>
<svg id="EdithAnim12" image-rendering="inherit" baseProfile="basic" version="1.1" x="0px" y="0px" width="800" height="600" xmlns="http://www.w3.org/2000/svg" xmlns:xlink="http://www.w3.org/1999/xlink">
  <g id="21_GarbageDrawerf107r1" overflow="visible">
    <g id="GarbageDrawerGroupf107r1">
      <g id="Tween-6">
        <path fill="#000" stroke="none" d="M399.802,313.678 Q396.568,311.966 394.92,311.966 386.995,311.966 382.557,321.539 378.88,329.274 378.373,341.13 378.309,341.384 378.246,341.637 377.802,343.032 376.344,344.427 L366.136,344.427 Q365.946,344.49 361.952,344.871 359.036,345.188 358.021,346.709 357.704,347.153 357.641,348.484 357.577,350.006 357.514,350.26 355.992,348.738 348.384,348.738 338.748,348.738 338.748,356.6 338.748,357.297 338.938,359.389 339.065,361.735 339.255,362.432 337.099,362.813 334.944,365.412 331.9,368.963 331.9,374.478 331.9,375.556 332.598,378.346 332.978,379.931 333.676,382.72 334.119,384.686 334.563,385.383 335.895,387.285 339.255,387.792 340.142,387.919 350.794,390.772 364.488,393.879 380.592,395.654 386.678,396.351 427.254,402.438 458.51,407.129 480.003,408.08 502.256,409.095 532.054,411.504 552.913,413.152 571.426,413.152 587.719,413.152 612.572,408.397 638.186,403.579 645.35,398.697 648.076,396.859 650.802,396.098 653.782,395.274 655.24,394.386 660.566,390.962 661.834,389.06 665.321,383.735 666.082,381.452 666.399,380.501 666.399,377.775 666.399,374.922 665.638,372.957 664.497,370.801 663.863,369.533 L663.863,369.026 Q663.102,368.265 663.102,367.251 663.102,367.187 668.301,363.13 673.5,358.438 673.5,355.585 673.5,350.386 672.105,346.963 670.203,342.398 665.384,339.101 662.595,337.199 657.586,336.121 652.768,335.234 651.69,334.79 652.261,333.712 654.987,330.606 657.523,327.245 657.523,323.758 657.523,318.433 653.719,313.488 648.774,307.148 640.278,307.148 634.635,307.148 630.388,308.669 630.895,308.099 631.275,307.465 631.909,306.26 631.909,304.104 631.909,298.969 626.076,294.721 618.468,289.142 604.14,289.142 L596.659,290.03 Q593.552,291.424 591.714,295.862 591.587,296.306 591.333,296.75 591.587,296.306 591.714,295.862 593.045,291.107 583.725,286.923 575.23,283.056 568.89,283.056 561.408,283.056 558.238,285.465 555.068,287.874 554.308,294.214 551.772,291.678 550.313,290.6 547.777,288.635 545.939,288.635 538.267,288.635 533.956,292.058 531.801,293.77 525.397,302.329 L525.397,302.076 Q524.636,296.813 524.129,294.785 523.368,291.361 521.783,289.649 518.043,285.592 503.461,285.592 500.544,285.592 497.565,287.24 494.585,288.825 492.176,291.678 491.542,291.044 490.21,288.698 488.625,285.909 488.625,285.845 484.631,279.886 482.032,277.793 479.179,275.448 475.438,275.448 455.467,275.448 444.055,282.675 434.228,288.952 436.13,295.736 433.594,292.566 432.009,290.981 429.219,288.128 426.366,288.128 417.047,288.128 409.248,297.574 401.514,306.894 403.162,315.77 402.655,315.136 399.802,313.678 M445.26,319.891 Q447.162,320.779 450.078,322.617 452.107,323.695 452.36,323.885 452.868,324.202 452.107,324.139 452.868,324.202 452.36,323.885 452.107,323.695 450.078,322.617 447.162,320.779 445.26,319.891 441.836,318.306 438.159,318.306 426.366,318.306 419.9,323.885 426.366,318.306 438.159,318.306 441.836,318.306 445.26,319.891 M490.464,313.931 Q495.599,311.712 501.305,311.712 506.377,311.712 510.181,319.828 510.181,320.335 509.737,320.842 509.23,321.413 508.66,321.603 509.23,321.413 509.737,320.842 510.181,320.335 510.181,319.828 506.377,311.712 501.305,311.712 495.599,311.712 490.464,313.931 485.138,316.277 482.539,320.081 485.138,316.277 490.464,313.931 M580.048,308.923 Q580.492,308.923 583.408,312.093 586.261,315.263 586.261,315.77 586.261,322.3 583.789,325.724 582.14,328.006 579.921,328.45 582.14,328.006 583.789,325.724 586.261,322.3 586.261,315.77 586.261,315.263 583.408,312.093 580.492,308.923 580.048,308.923 564.071,308.923 556.59,315.263 564.071,308.923 580.048,308.923 M635.586,323.568 Q638.249,325.597 638.249,333.395 638.249,341.067 631.719,346.075 626.52,350.069 622.78,349.752 626.52,350.069 631.719,346.075 638.249,341.067 638.249,333.395 638.249,325.597 635.586,323.568 633.05,321.603 623.287,321.856 633.05,321.603 635.586,323.568 M640.024,347.47 Q649.091,347.343 649.851,347.597 653.212,348.611 653.212,355.078 653.212,357.234 651.246,359.262 649.978,360.467 646.618,362.686 645.73,363.257 644.209,364.588 642.814,365.729 642.307,365.983 642.814,365.729 644.209,364.588 645.73,363.257 646.618,362.686 649.978,360.467 651.246,359.262 653.212,357.234 653.212,355.078 653.212,348.611 649.851,347.597 649.091,347.343 640.024,347.47Z" test="Tween 6" stroke-width="1.268"/>
        <path id="Layer6_0_1_STROKES" stroke="#FFF" stroke-width="1.268" stroke-linejoin="round" stroke-linecap="round" fill="none" d="M663.863,369.533 Q664.497,370.801 665.638,372.957 666.399,374.922 666.399,377.775 666.399,380.501 666.082,381.452 665.321,383.735 661.834,389.06 660.566,390.962 655.24,394.386 653.782,395.274 650.802,396.098 648.076,396.859 645.35,398.697 638.186,403.579 612.572,408.397 587.719,413.152 571.426,413.152 552.913,413.152 532.054,411.504 502.256,409.095 480.003,408.08 458.51,407.129 427.254,402.438 386.678,396.351 380.592,395.654 364.488,393.879 350.794,390.772 340.142,387.919 339.255,387.792 335.895,387.285 334.563,385.383 334.119,384.686 333.676,382.72 332.978,379.931 332.598,378.346 331.9,375.556 331.9,374.478 331.9,368.963 334.944,365.412 337.099,362.813 339.255,362.432 339.065,361.735 338.938,359.389 338.748,357.297 338.748,356.6 338.748,348.738 348.384,348.738 355.992,348.738 357.514,350.26 357.577,350.006 357.641,348.484 357.704,347.153 358.021,346.709 359.036,345.188 361.952,344.871 365.946,344.49 366.136,344.427 L376.344,344.427 Q377.802,343.032 378.246,341.637 378.309,341.384 378.373,341.13 378.88,329.274 382.557,321.539 386.995,311.966 394.92,311.966 396.568,311.966 399.802,313.678 402.655,315.136 403.162,315.77 401.514,306.894 409.248,297.574 417.047,288.128 426.366,288.128 429.219,288.128 432.009,290.981 433.594,292.566 436.13,295.736 434.228,288.952 444.055,282.675 455.467,275.448 475.438,275.448 479.179,275.448 482.032,277.793 484.631,279.886 488.625,285.845 488.625,285.909 490.21,288.698 491.542,291.044 492.176,291.678 494.585,288.825 497.565,287.24 500.544,285.592 503.461,285.592 518.043,285.592 521.783,289.649 523.368,291.361 524.129,294.785 524.636,296.813 525.397,302.076 L525.397,302.329 Q531.801,293.77 533.956,292.058 538.267,288.635 545.939,288.635 547.777,288.635 550.313,290.6 551.772,291.678 554.308,294.214 555.068,287.874 558.238,285.465 561.408,283.056 568.89,283.056 575.23,283.056 583.725,286.923 593.045,291.107 591.714,295.862 593.552,291.424 596.659,290.03 598.751,289.142 604.14,289.142 618.468,289.142 626.076,294.721 631.909,298.969 631.909,304.104 631.909,306.26 631.275,307.465 630.895,308.099 630.388,308.669 634.635,307.148 640.278,307.148 648.774,307.148 653.719,313.488 657.523,318.433 657.523,323.758 657.523,327.245 654.987,330.606 652.261,333.712 651.69,334.79 652.768,335.234 657.586,336.121 662.595,337.199 665.384,339.101 670.203,342.398 672.105,346.963 673.5,350.386 673.5,355.585 673.5,358.438 668.301,363.13 663.102,367.187 663.102,367.251 663.102,368.265 663.863,369.026 M419.9,323.885 Q426.366,318.306 438.159,318.306 441.836,318.306 445.26,319.891 447.162,320.779 450.078,322.617 452.107,323.695 452.36,323.885 452.868,324.202 452.107,324.139 M482.539,320.081 Q485.138,316.277 490.464,313.931 495.599,311.712 501.305,311.712 506.377,311.712 510.181,319.828 510.181,320.335 509.737,320.842 509.23,321.413 508.66,321.603 M591.714,295.862 Q591.587,296.306 591.333,296.75 M556.59,315.263 Q564.071,308.923 580.048,308.923 580.492,308.923 583.408,312.093 586.261,315.263 586.261,315.77 586.261,322.3 583.789,325.724 582.14,328.006 579.921,328.45 M623.287,321.856 Q633.05,321.603 635.586,323.568 638.249,325.597 638.249,333.395 638.249,341.067 631.719,346.075 626.52,350.069 622.78,349.752 M640.024,347.47 Q649.091,347.343 649.851,347.597 653.212,348.611 653.212,355.078 653.212,357.234 651.246,359.262 649.978,360.467 646.618,362.686 645.73,363.257 644.209,364.588 642.814,365.729 642.307,365.983" test="Tween 6"/>
      </g>
      <g id="Tween-5">
        <g id="Tin-can-Rubbish">
          <path fill="#000" stroke="none" d="M373.469,347.965 Q363.515,359.948 358.633,364.449 347.031,375.164 337.902,375.417 L338.155,377.192 Q338.155,378.397 337.965,379.538 337.711,380.679 337.711,381.06 337.711,381.947 338.979,382.455 340.057,382.835 341.579,382.835 344.622,382.835 351.723,379.348 L352.04,379.348 Q348.616,383.913 348.616,385.244 348.616,388.985 353.118,388.985 355.844,388.985 356.224,388.858 356.605,388.668 358.38,387.336 358.697,386.639 359.014,386.322 L359.014,386.766 Q358.633,387.019 358.38,387.336 357.936,388.034 357.365,389.175 355.971,392.155 355.971,394.31 355.971,397.671 360.852,399.319 365.227,400.777 363.832,405.469 368.397,405.659 369.665,407.371 369.982,407.815 370.299,408.639 L370.299,408.702 Q381.774,404.074 386.72,400.46 391.475,396.91 393.44,391.965 391.475,396.91 386.72,400.46 381.774,404.074 370.299,408.702 370.743,409.97 371.25,412.062 371.821,413.521 374.674,415.74 376.512,417.261 375.561,420.304 L379.936,420.304 Q397.624,413.013 416.454,390.76 434.713,369.267 439.151,351.896 L439.151,347.965 Q436.235,347.331 432.621,347.965 L430.022,347.965 Q431.29,345.049 427.739,343.59 422.858,342.322 420.512,341.498 419.18,340.991 418.293,339.152 417.469,336.807 416.961,335.665 415.059,331.418 409.987,332.749 L409.987,329.262 Q410.875,328.374 410.875,327.106 410.875,325.331 407.388,325.014 403.457,324.951 402.57,324.887 402.57,324.253 403.013,322.668 403.457,321.147 403.457,320.64 403.457,318.294 399.526,317.977 401.302,314.743 398.385,312.968 395.849,312.017 394.264,311.383 396.103,312.524 396.103,315.124 396.103,323.302 389.826,330.467 380.189,339.913 373.469,347.965 M400.287,347.394 Q398.258,350.818 396.99,351.072 398.258,350.818 400.287,347.394 401.555,345.175 405.613,338.011 401.555,345.175 400.287,347.394 M425.394,357.221 Q422.984,360.899 420.068,361.913 422.984,360.899 425.394,357.221 427.866,353.417 429.134,347.965 427.866,353.417 425.394,357.221 M382.979,368.443 Q381.331,371.106 378.541,376.115 376.639,379.602 376.005,380.236 376.639,379.602 378.541,376.115 381.331,371.106 382.979,368.443 M347.665,345.492 Q337.458,358.553 336.317,365.146 335.683,368.38 335.492,370.155 335.175,371.994 335.302,372.374 335.239,372.564 335.175,372.754 335.112,373.262 335.112,373.642 335.112,374.656 335.492,374.973 336,375.417 337.458,375.417 337.648,375.417 337.902,375.417 347.031,375.164 358.633,364.449 363.515,359.948 373.469,347.965 380.189,339.913 389.826,330.467 396.103,323.302 396.103,315.124 396.103,312.524 394.264,311.383 393.503,310.939 392.552,310.749 391.601,310.559 390.397,310.559 384.881,310.559 371.377,321.527 357.873,332.432 347.665,345.492Z" test="Tin can Rubbish" stroke-width="1.268"/>
          <path id="Layer9_0_1_STROKES" stroke="#009EFF" stroke-width="1.268" stroke-linejoin="round" stroke-linecap="round" fill="none" d="M335.492,370.155 Q335.175,371.994 335.302,372.374 M394.264,311.383 Q395.849,312.017 398.385,312.968 401.302,314.743 399.526,317.977 403.457,318.294 403.457,320.64 403.457,321.147 403.013,322.668 402.57,324.253 402.57,324.887 403.457,324.951 407.388,325.014 410.875,325.331 410.875,327.106 410.875,328.374 409.987,329.262 L409.987,332.749 Q415.059,331.418 416.961,335.665 417.469,336.807 418.293,339.152 419.18,340.991 420.512,341.498 422.858,342.322 427.739,343.59 431.29,345.049 430.022,347.965 L432.621,347.965 Q436.235,347.331 439.151,347.965 L439.151,351.896 Q434.713,369.267 416.454,390.76 397.624,413.013 379.936,420.304 L375.561,420.304 Q376.512,417.261 374.674,415.74 371.821,413.521 371.25,412.062 370.743,409.97 370.299,408.702 L370.299,408.639 Q369.982,407.815 369.665,407.371 368.397,405.659 363.832,405.469 365.227,400.777 360.852,399.319 355.971,397.671 355.971,394.31 355.971,392.155 357.365,389.175 357.936,388.034 358.38,387.336 356.605,388.668 356.224,388.858 355.844,388.985 353.118,388.985 348.616,388.985 348.616,385.244 348.616,383.913 352.04,379.348 L351.723,379.348 Q344.622,382.835 341.579,382.835 340.057,382.835 338.979,382.455 337.711,381.947 337.711,381.06 337.711,380.679 337.965,379.538 338.155,378.397 338.155,377.192 M405.613,338.011 Q401.555,345.175 400.287,347.394 398.258,350.818 396.99,351.072 M429.134,347.965 Q427.866,353.417 425.394,357.221 422.984,360.899 420.068,361.913 M382.979,368.443 Q381.331,371.106 378.541,376.115 376.639,379.602 376.005,380.236 M358.38,387.336 Q358.633,387.019 359.014,386.766 L359.014,386.322 Q358.697,386.639 358.38,387.336Z M370.299,408.702 Q381.774,404.074 386.72,400.46 391.475,396.91 393.44,391.965" test="Tin can Rubbish"/>
          <path id="Layer9_0_2_STROKES" stroke="#FFF" stroke-width="1.268" stroke-linejoin="round" stroke-linecap="round" fill="none" d="M394.264,311.383 Q393.503,310.939 392.552,310.749 391.601,310.559 390.397,310.559 384.881,310.559 371.377,321.527 357.873,332.432 347.665,345.492 337.458,358.553 336.317,365.146 335.683,368.38 335.492,370.155 M335.302,372.374 Q335.239,372.564 335.175,372.754 335.112,373.262 335.112,373.642 335.112,374.656 335.492,374.973 336,375.417 337.458,375.417 337.648,375.417 337.902,375.417 347.031,375.164 358.633,364.449 363.515,359.948 373.469,347.965 380.189,339.913 389.826,330.467 396.103,323.302 396.103,315.124 396.103,312.524 394.264,311.383" test="Tin can Rubbish"/>
        </g>
        <g id="Bottle">
          <path fill="#000" stroke="none" d="M619.204,413.322 Q617.239,413.068 610.265,411.61 604.178,410.278 600.755,410.342 594.415,410.405 585.095,405.016 575.902,399.754 567.343,391.322 561.257,385.299 555.868,376.233 551.556,368.054 551.113,367.42 549.02,364.504 547.372,361.46 544.519,356.388 544.709,353.916 530.317,374.014 514.024,392.463 496.462,412.244 483.465,435.068 471.482,456.117 491.897,470.699 513.136,485.851 537.291,494.6 550.669,499.546 561.383,488.577 579.643,469.874 594.161,447.558 605.573,429.932 618.887,413.702 L619.204,413.322 M581.418,326.464 Q581.291,326.4 581.164,326.4 568.231,325.893 558.847,336.037 551.113,344.406 544.709,353.916 544.519,356.388 547.372,361.46 549.02,364.504 551.113,367.42 551.556,368.054 555.868,376.233 561.257,385.299 567.343,391.322 575.902,399.754 585.095,405.016 594.415,410.405 600.755,410.342 604.178,410.278 610.265,411.61 617.239,413.068 619.204,413.322 633.279,399.691 639.809,381.431 640.063,380.797 640.316,380.163 639.682,380.1 639.429,380.163 637.59,380.227 636.893,380.29 635.942,380.354 634.42,380.734 632.962,381.114 630.743,381.114 625.291,381.114 611.596,371.858 598.472,363.045 591.118,354.994 585.032,348.273 583.32,340.095 582.432,331.599 581.418,326.464 M644.184,330.458 Q636.449,324.308 631.314,312.516 608.933,328.239 581.418,326.464 582.432,331.599 583.32,340.095 585.032,348.273 591.118,354.994 598.472,363.045 611.596,371.858 625.291,381.114 630.743,381.114 632.962,381.114 634.42,380.734 635.942,380.354 636.893,380.29 637.59,380.227 639.429,380.163 639.682,380.1 640.316,380.163 633.913,354.486 654.581,338.002 655.152,337.559 655.723,336.988 646.086,331.979 644.184,330.458 M631.187,311.057 L631.314,312.516 Q636.449,324.308 644.184,330.458 646.086,331.979 655.723,336.988 L659.4,337.622 Q662.189,336.481 665.676,329.634 668.973,323.103 668.973,319.743 668.973,315.686 659.844,305.795 655.469,301.04 652.172,298.568 648.558,295.778 646.339,295.778 642.726,295.778 636.956,302.879 634.737,305.605 631.187,311.057 M649.826,302.562 Q649.446,301.991 649.383,301.928 649.446,301.991 649.826,302.562 650.777,303.893 653.821,308.395 659.083,315.305 663.774,318.412 659.083,315.305 653.821,308.395 650.777,303.893 649.826,302.562Z" test="Bottle" stroke-width="1.268"/>
          <path id="Layer10_0_1_STROKES" stroke="#FFF" stroke-width="1.268" stroke-linejoin="round" stroke-linecap="round" fill="none" d="M631.314,312.516 Q636.449,324.308 644.184,330.458 646.086,331.979 655.723,336.988 M659.4,337.622 Q662.189,336.481 665.676,329.634 668.973,323.103 668.973,319.743 668.973,315.686 659.844,305.795 655.469,301.04 652.172,298.568 648.558,295.778 646.339,295.778 642.726,295.778 636.956,302.879 634.737,305.605 631.187,311.057 M663.774,318.412 Q659.083,315.305 653.821,308.395 650.777,303.893 649.826,302.562 649.446,301.991 649.383,301.928 M544.709,353.916 Q544.519,356.388 547.372,361.46 549.02,364.504 551.113,367.42 551.556,368.054 555.868,376.233 561.257,385.299 567.343,391.322 575.902,399.754 585.095,405.016 594.415,410.405 600.755,410.342 604.178,410.278 610.265,411.61 617.239,413.068 619.204,413.322 M640.316,380.163 Q639.682,380.1 639.429,380.163 637.59,380.227 636.893,380.29 635.942,380.354 634.42,380.734 632.962,381.114 630.743,381.114 625.291,381.114 611.596,371.858 598.472,363.045 591.118,354.994 585.032,348.273 583.32,340.095 582.432,331.599 581.418,326.464 581.291,325.766 581.164,325.132 M619.204,413.322 Q619.458,413.385 619.585,413.385 619.585,413.575 618.887,413.702" test="Bottle"/>
          <path id="Layer10_0_2_STROKES" stroke="#0F0" stroke-width="1.268" stroke-linejoin="round" stroke-linecap="round" fill="none" d="M581.418,326.464 Q581.291,326.4 581.164,326.4 568.231,325.893 558.847,336.037 551.113,344.406 544.709,353.916 M619.204,413.322 Q633.279,399.691 639.809,381.431 640.063,380.797 640.316,380.163 633.913,354.486 654.581,338.002 655.152,337.559 655.723,336.988 M631.314,312.516 Q608.933,328.239 581.418,326.464 M618.887,413.702 Q605.573,429.932 594.161,447.558 579.643,469.874 561.383,488.577 550.669,499.546 537.291,494.6 513.136,485.851 491.897,470.699 471.482,456.117 483.465,435.068 496.462,412.244 514.024,392.463 530.317,374.014 544.709,353.916 M618.887,413.702 L619.204,413.322" test="Bottle"/>
        </g>
        <g id="Banana">
          <path fill="#000" stroke="none" d="M483.652,276.005 L483.018,276.639 Q478.834,282.725 473.762,292.298 469.831,299.589 467.866,301.491 461.336,307.641 453.157,312.777 444.915,317.595 441.682,319.751 426.466,329.831 412.961,351.007 399.584,371.865 400.725,382.897 L400.725,388.349 Q400.852,388.54 401.549,388.54 403.959,388.54 406.051,384.799 407.192,382.707 408.967,378.522 409.665,377.254 412.644,373.197 414.166,371.105 414.356,370.724 421.457,368.759 432.552,361.341 445.295,352.909 450.811,344.984 456.39,336.995 468.944,327.232 481.053,317.785 481.687,316.771 L482.131,316.771 482.131,319.307 Q478.834,333.508 463.174,360.2 454.996,374.084 453.03,377.952 448.465,386.574 448.212,390.759 448.592,390.759 449.86,391.012 451.065,391.202 451.635,391.202 456.517,391.202 470.275,378.269 484.603,364.828 490.943,353.289 492.275,350.817 493.86,341.18 495.572,330.846 496.079,329.324 497.727,324.886 498.108,323.555 498.615,321.526 499.566,318.102 504.384,325.647 510.407,332.494 514.592,337.376 530.885,355.889 538.24,364.511 541.79,382.834 543.946,393.992 543.946,401.156 549.525,401.22 552.822,393.865 555.738,387.208 555.738,377.254 555.738,367.808 552.441,360.01 550.793,356.142 544.77,346.505 539.127,337.439 536.274,329.958 531.963,318.609 523.404,311.572 514.782,304.471 511.675,297.497 508.505,290.523 505.652,284.881 502.799,279.175 503.687,277.59 L502.672,276.448 Q500.897,278.033 498.044,279.048 494.811,280.126 491.768,280.126 490.309,280.126 486.949,278.414 484.223,277.019 483.652,276.005 M498.678,243.988 Q493.162,242.339 491.451,247.982 490.943,249.757 490.5,257.492 489.992,265.036 486.632,269.157 483.462,273.152 483.462,275.497 483.462,275.751 483.652,276.005 484.223,277.019 486.949,278.414 490.309,280.126 491.768,280.126 494.811,280.126 498.044,279.048 500.897,278.033 502.672,276.448 503.687,275.561 504.321,274.483 503.94,274.229 503.56,274.039 502.102,273.088 501.087,272.327 498.868,270.806 498.171,270.045 496.966,268.65 496.966,260.091 496.966,254.385 498.678,243.988Z" test="Banana" stroke-width="1.268"/>
          <path id="Layer11_0_1_STROKES" stroke="#FF0" stroke-width="1.268" stroke-linejoin="round" stroke-linecap="round" fill="none" d="M503.687,277.59 Q502.799,279.175 505.652,284.881 508.505,290.523 511.675,297.497 514.782,304.471 523.404,311.572 531.963,318.609 536.274,329.958 539.127,337.439 544.77,346.505 550.793,356.142 552.441,360.01 555.738,367.808 555.738,377.254 555.738,387.208 552.822,393.865 549.525,401.22 543.946,401.156 543.946,393.992 541.79,382.834 538.24,364.511 530.885,355.889 514.592,337.376 510.407,332.494 504.384,325.647 499.566,318.102 498.615,321.526 498.108,323.555 497.727,324.886 496.079,329.324 495.572,330.846 493.86,341.18 492.275,350.817 490.943,353.289 484.603,364.828 470.275,378.269 456.517,391.202 451.635,391.202 451.065,391.202 449.86,391.012 448.592,390.759 448.212,390.759 448.465,386.574 453.03,377.952 454.996,374.084 463.174,360.2 478.834,333.508 482.131,319.307 L482.131,316.771 481.687,316.771 Q481.053,317.785 468.944,327.232 456.39,336.995 450.811,344.984 445.295,352.909 432.552,361.341 421.457,368.759 414.356,370.724 414.166,371.105 412.644,373.197 409.665,377.254 408.967,378.522 407.192,382.707 406.051,384.799 403.959,388.54 401.549,388.54 400.852,388.54 400.725,388.349 L400.725,382.897 Q399.584,371.865 412.961,351.007 426.466,329.831 441.682,319.751 444.915,317.595 453.157,312.777 461.336,307.641 467.866,301.491 469.831,299.589 473.762,292.298 478.834,282.725 483.018,276.639" test="Banana"/>
          <path id="Layer11_0_2_STROKES" stroke="#FFF" stroke-width="1.268" stroke-linejoin="round" stroke-linecap="round" fill="none" d="M483.652,276.005 Q483.462,275.751 483.462,275.497 483.462,273.152 486.632,269.157 489.992,265.036 490.5,257.492 490.943,249.757 491.451,247.982 493.162,242.339 498.678,243.988 496.966,254.385 496.966,260.091 496.966,268.65 498.171,270.045 498.868,270.806 501.087,272.327 502.102,273.088 503.56,274.039 503.94,274.229 504.321,274.483 503.687,275.561 502.672,276.448 M483.652,276.005 Q484.223,277.019 486.949,278.414 490.309,280.126 491.768,280.126 494.811,280.126 498.044,279.048 500.897,278.033 502.672,276.448" test="Banana"/>
        </g>
      </g>
      <g id="Tween-4">
        <path id="Layer5_0_1_STROKES" stroke="#FFF" stroke-width="1.268" stroke-linejoin="round" stroke-linecap="round" fill="none" d="M597.653,396.721 Q597.653,391.776 605.071,387.908" test="Tween 4"/>
        <g id="Garbage">
          <path fill="#000" stroke="none" d="M513.521,366.982 L511.873,366.031 Q511.746,366.285 511.365,366.982 511.746,366.285 511.873,366.031 511.873,365.904 511.873,365.841 511.873,361.974 509.654,360.452 506.61,358.233 497.925,358.233 488.732,358.233 469.648,367.87 467.429,368.948 463.815,375.795 463.245,376.936 462.547,377.887 462.04,372.244 455.256,368.314 448.536,364.319 440.231,364.319 430.784,364.319 423.493,368.694 414.3,374.21 414.3,384.544 414.3,385.051 414.363,385.495 409.925,381.311 399.528,381.311 390.779,381.311 385.39,384.037 379.684,386.953 374.675,394.371 370.744,400.14 370.174,404.578 369.857,406.924 370.3,409.587 368.018,404.325 366.116,401.852 362.756,397.414 355.084,397.414 347.857,397.414 342.912,401.789 338.093,406.163 338.093,412.44 338.093,413.581 338.791,422.838 336.952,426.134 335.874,429.685 334.162,436.722 334.162,443.316 334.162,449.339 338.537,453.143 342.531,456.63 347.667,456.63 349.569,456.63 356.099,455.552 362.566,454.474 366.813,454.474 371.885,454.474 384.756,458.151 397.562,461.829 410.813,461.829 414.68,461.829 445.62,459.039 481.25,456.186 508.386,456.186 514.472,456.123 519.1,456.186 L534.76,457.01 535.394,456.693 Q536.091,456.44 536.662,456.376 540.403,456.186 543.699,454.347 546.172,453.587 547.757,452.889 557.647,448.578 559.74,448.388 L560.183,448.388 Q560.183,448.198 589.791,456.503 622.315,464.935 635.566,464.935 650.782,464.935 658.136,457.137 661.877,453.27 662.511,449.212 662.511,447.183 662.384,446.993 662.321,446.866 662.194,446.739 661.687,446.296 660.355,446.169 661.687,446.296 662.194,446.739 L662.511,446.169 Q664.54,444.901 671.007,442.555 676.459,439.702 676.459,434.44 676.459,431.143 672.528,430.065 L672.972,430.065 Q675.001,428.1 680.326,423.915 684.701,419.858 684.701,415.673 684.701,412.123 682.545,407.875 679.819,402.613 675.825,402.613 669.231,404.198 666.886,404.388 669.929,401.789 669.929,400.457 669.802,398.302 668.597,396.273 666.315,392.279 661.18,392.279 651.099,392.279 646.851,393.737 642.667,395.195 635.946,400.901 634.552,393.674 629.797,389.045 624.851,384.354 618.321,384.354 611.728,384.354 605.071,387.904 L597.653,396.717 Q597.653,397.858 598.477,404.832 597.906,404.515 596.512,404.198 595.18,403.944 594.356,403.944 591.313,403.944 587.699,407.431 586.368,408.763 584.592,411.806 582.944,414.722 582.373,416.561 582.247,417.132 582.12,417.766 581.549,420.048 579.647,421.57 579.077,422.013 578.379,422.267 578.126,422.077 577.935,421.887 574.385,418.4 573.434,413.581 572.927,412.06 571.912,410.411 570.074,407.305 567.157,404.388 574.131,405.149 580.091,402.93 586.748,400.457 587.572,395.259 587.699,394.498 587.699,393.674 587.699,390.377 587.128,388.602 585.924,384.734 581.93,381.311 577.745,377.697 573.244,376.809 571.786,376.492 567.601,376.492 567.665,376.365 571.152,370.216 571.469,369.645 571.722,369.074 L572.293,368.314 Q572.61,367.87 572.673,367.553 573.18,364.953 572.42,362.417 571.976,361.213 570.201,357.472 568.172,353.288 565.699,351.513 559.866,347.328 545.538,347.328 530.512,347.328 517.579,361.91 515.55,364.193 513.521,366.982 M547.44,396.527 Q547.186,397.161 546.679,398.175 547.186,397.161 547.44,396.527 547.947,395.385 547.947,394.498 547.947,389.299 543.382,389.299 541.1,389.299 538.818,389.933 534.253,391.264 533,394.625 534.253,391.264 538.818,389.933 541.1,389.299 543.382,389.299 547.947,389.299 547.947,394.498 547.947,395.385 547.44,396.527 M641.018,420.745 Q644.315,422.901 644.315,426.325 644.315,422.901 641.018,420.745 638.292,418.97 635.312,418.97 631.128,418.97 628.782,420.428 626.31,421.887 626.31,424.549 626.31,421.887 628.782,420.428 631.128,418.97 635.312,418.97 638.292,418.97 641.018,420.745 M444.986,400.901 Q448.663,402.867 449.55,405.276 448.663,402.867 444.986,400.901 441.562,399.126 438.899,399.126 435.476,399.126 433.003,401.345 429.579,404.515 429.579,411.362 429.579,412.377 429.77,412.947 430.15,413.962 431.291,415.673 430.15,413.962 429.77,412.947 429.579,412.377 429.579,411.362 429.579,404.515 433.003,401.345 435.476,399.126 438.899,399.126 441.562,399.126 444.986,400.901 M496.593,395.259 Q497.481,396.78 497.481,400.711 497.481,407.812 491.902,412.694 485.879,417.892 476.559,417.449 485.879,417.892 491.902,412.694 497.481,407.812 497.481,400.711 497.481,396.78 496.593,395.259 495.579,393.483 492.726,393.483 492.155,393.483 491.331,393.737 490.126,394.117 488.795,394.371 490.126,394.117 491.331,393.737 492.155,393.483 492.726,393.483 495.579,393.483 496.593,395.259Z" test="Garbage" stroke-width="1.268"/>
          <path id="Layer7_0_1_STROKES" stroke="#FFF" stroke-width="1.268" stroke-linejoin="round" stroke-linecap="round" fill="none" d="M511.873,366.031 Q511.746,366.285 511.365,366.982 M662.194,446.739 Q662.321,446.866 662.384,446.993 662.511,447.183 662.511,449.212 661.877,453.27 658.136,457.137 650.782,464.935 635.566,464.935 622.315,464.935 589.791,456.503 560.183,448.198 560.183,448.388 L559.74,448.388 Q557.647,448.578 547.757,452.889 546.172,453.587 543.699,454.347 540.403,456.186 536.662,456.376 536.091,456.44 535.394,456.693 L534.76,457.01 519.1,456.186 Q514.472,456.123 508.386,456.186 481.25,456.186 445.62,459.039 414.68,461.829 410.813,461.829 397.562,461.829 384.756,458.151 371.885,454.474 366.813,454.474 362.566,454.474 356.099,455.552 349.569,456.63 347.667,456.63 342.531,456.63 338.537,453.143 334.162,449.339 334.162,443.316 334.162,436.722 335.874,429.685 336.952,426.134 338.791,422.838 338.093,413.581 338.093,412.44 338.093,406.163 342.912,401.789 347.857,397.414 355.084,397.414 362.756,397.414 366.116,401.852 368.018,404.325 370.3,409.587 369.857,406.924 370.174,404.578 370.744,400.14 374.675,394.371 379.684,386.953 385.39,384.037 390.779,381.311 399.528,381.311 409.925,381.311 414.363,385.495 414.3,385.051 414.3,384.544 414.3,374.21 423.493,368.694 430.784,364.319 440.231,364.319 448.536,364.319 455.256,368.314 462.04,372.244 462.547,377.887 463.245,376.936 463.815,375.795 467.429,368.948 469.648,367.87 488.732,358.233 497.925,358.233 506.61,358.233 509.654,360.452 511.873,361.974 511.873,365.841 511.873,365.904 511.873,366.031 M513.521,366.982 Q515.55,364.193 517.579,361.91 530.512,347.328 545.538,347.328 559.866,347.328 565.699,351.513 568.172,353.288 570.201,357.472 571.976,361.213 572.42,362.417 573.18,364.953 572.673,367.553 572.61,367.87 572.293,368.314 L571.722,369.074 Q571.469,369.645 571.152,370.216 567.665,376.365 567.601,376.492 571.786,376.492 573.244,376.809 577.745,377.697 581.93,381.311 585.924,384.734 587.128,388.602 587.699,390.377 587.699,393.674 587.699,394.498 587.572,395.259 586.748,400.457 580.091,402.93 574.131,405.149 567.157,404.388 570.074,407.305 571.912,410.411 572.927,412.06 573.434,413.581 574.385,418.4 577.935,421.887 578.126,422.077 578.379,422.267 579.077,422.013 579.647,421.57 581.549,420.048 582.12,417.766 582.247,417.132 582.373,416.561 582.944,414.722 584.592,411.806 586.368,408.763 587.699,407.431 591.313,403.944 594.356,403.944 595.18,403.944 596.512,404.198 597.906,404.515 598.477,404.832 597.653,397.858 597.653,396.717 M605.071,387.904 Q611.728,384.354 618.321,384.354 624.851,384.354 629.797,389.045 634.552,393.674 635.946,400.901 642.667,395.195 646.851,393.737 651.099,392.279 661.18,392.279 666.315,392.279 668.597,396.273 669.802,398.302 669.929,400.457 669.929,401.789 666.886,404.388 669.231,404.198 675.825,402.613 679.819,402.613 682.545,407.875 684.701,412.123 684.701,415.673 684.701,419.858 680.326,423.915 675.001,428.1 672.972,430.065 L672.528,430.065 Q676.459,431.143 676.459,434.44 676.459,439.702 671.007,442.555 664.54,444.901 662.511,446.169 M660.355,446.169 Q661.687,446.296 662.194,446.739 M533,394.625 Q534.253,391.264 538.818,389.933 541.1,389.299 543.382,389.299 547.947,389.299 547.947,394.498 547.947,395.385 547.44,396.527 547.186,397.161 546.679,398.175 M626.31,424.549 Q626.31,421.887 628.782,420.428 631.128,418.97 635.312,418.97 638.292,418.97 641.018,420.745 644.315,422.901 644.315,426.325 M431.291,415.673 Q430.15,413.962 429.77,412.947 429.579,412.377 429.579,411.362 429.579,404.515 433.003,401.345 435.476,399.126 438.899,399.126 441.562,399.126 444.986,400.901 448.663,402.867 449.55,405.276 M488.795,394.371 Q490.126,394.117 491.331,393.737 492.155,393.483 492.726,393.483 495.579,393.483 496.593,395.259 497.481,396.78 497.481,400.711 497.481,407.812 491.902,412.694 485.879,417.892 476.559,417.449" test="Garbage"/>
        </g>
        <g id="GarbageCloud">
          <path id="Layer8_0_1_STROKES" stroke="#FFF" stroke-width="1.268" stroke-linejoin="round" stroke-linecap="round" fill="none" d="M544.52,305.949 Q546.422,304.935 546.802,304.364 547.563,303.286 547.563,300.306 547.563,296.566 544.33,290.987 541.096,285.407 541.096,280.399 541.096,276.341 545.851,268.48 550.606,260.618 550.606,257.131 550.606,255.102 548.831,252.756 548.578,252.439 546.232,249.777 M619.586,285.915 Q620.346,284.266 623.39,281.54 627.447,277.799 630.744,277.609 631.632,279.384 631.632,281.096 631.632,281.54 627.257,285.915 L619.586,285.915 Q619.459,286.168 619.269,286.739 619.712,286.929 620.156,287.246 621.995,288.451 621.995,289.782 621.995,291.177 621.614,291.557 621.171,292.001 619.649,292.001 618.254,292.001 617.24,291.177 616.352,290.353 616.352,289.338 616.352,288.577 616.669,288.07 613.753,288.07 611.978,287.626 607.666,286.675 607.666,283.696 607.666,281.477 608.491,279.828 609.632,277.609 611.787,277.609 614.831,277.609 616.733,280.335 618.001,282.237 618.952,285.915 L619.586,285.915Z M616.669,288.07 L616.733,288.07 Q617.62,288.07 617.874,288.007 618.191,287.943 618.508,287.626 L618.508,286.739 Q617.684,287.056 617.24,287.373 616.859,287.626 616.669,288.07Z M619.269,286.739 Q617.937,286.105 616.796,286.358 M398.89,275.073 Q399.08,274.439 399.334,273.805 395.593,273.932 391.98,276.468 388.81,278.56 387.732,280.652 L387.732,285.027 391.663,285.027 Q397.622,280.526 398.446,276.722 398.637,275.897 398.89,275.073 398.573,275.073 398.193,275.073 M403.392,275.961 Q402.314,275.01 401.616,274.503 399.905,274.566 399.524,274.629 M401.616,274.503 Q401.046,274.059 400.729,273.869 400.539,273.742 399.968,273.742 399.651,273.742 399.334,273.805 400.982,269.621 404.723,264.993 L408.654,264.993 Q408.654,265.436 408.907,266.578 409.098,267.719 409.098,268.289 409.098,273.171 404.786,274.312 402.884,274.439 401.616,274.503Z M433.443,292.889 Q435.155,289.275 436.36,286.549 438.705,281.286 438.705,279.321 438.705,277.673 435.218,274.186 431.731,270.635 431.731,269.557 431.731,266.451 433.253,261.696 434.775,256.877 434.775,254.785 434.775,250.22 434.521,248.889 433.95,245.529 431.731,244.514 M399.08,275.961 L398.89,276.785 Q398.637,277.799 398.637,278.497 398.637,279.638 399.905,280.209 400.856,280.652 401.743,280.652 402.377,280.652 403.138,280.399 404.596,279.892 404.723,279.828 404.469,277.102 402.694,275.961 401.363,275.2 398.89,275.073" test="GarbageCloud"/>
        </g>
      </g>
      <path fill="#000" stroke="none" d="M271.813,331.577 L271.813,590.249 759.739,590.249 759.739,331.577 271.813,331.577Z" test="GarbageDrawerGroup" stroke-width="1.268"/>
      <g id="Drawer">
        <path fill="#000" stroke="none" d="M719.85,387.454 Q719.469,387.834 719.152,388.215 L719.152,409.707 Q719.469,410.024 719.85,410.405 724.478,415.033 730.945,415.16 L731.325,415.16 Q738.045,415.16 742.8,410.405 747.555,405.65 747.555,398.929 747.555,392.209 742.8,387.454 738.045,382.699 731.325,382.699 L730.945,382.699 Q724.478,382.826 719.85,387.454 M290.568,319.299 Q286.511,337.939 287.271,358.417 289.681,416.047 288.793,452.502 288.032,487.943 290.568,497.833 369.184,496.756 446.786,500.052 477.471,499.165 497.886,500.243 518.618,501.32 533.01,501.32 538.526,501.32 544.168,501.257 552.093,502.208 559.955,502.081 574.41,500.94 588.738,498.848 603.574,497.009 618.6,498.721 632.992,500.369 647.257,499.989 662.219,499.545 677.055,498.658 694.426,498.341 719.152,497.833 L719.152,415.16 719.152,409.707 719.152,388.215 Q719.089,385.425 719.089,382.699 718.265,339.714 719.152,296.982 L691.763,296.982 691.763,319.299 625.32,316.826 Q449.385,322.596 290.568,319.299Z" test="Drawer" stroke-width="1.268"/>
        <path id="Layer4_0_1_STROKES" stroke="#F60" stroke-width="2.536" stroke-linejoin="round" stroke-linecap="round" fill="none" d="M719.152,409.707 L719.152,415.16 719.152,497.833 Q694.426,498.341 677.055,498.658 662.219,499.545 647.257,499.989 632.992,500.369 618.6,498.721 603.574,497.009 588.738,498.848 574.41,500.94 559.955,502.081 552.093,502.208 544.168,501.257 538.526,501.32 533.01,501.32 518.618,501.32 497.886,500.243 477.471,499.165 446.786,500.052 369.184,496.756 290.568,497.833 288.032,487.943 288.793,452.502 289.681,416.047 287.271,358.417 286.511,337.939 290.568,319.299 449.385,322.596 625.32,316.826 L691.763,319.299 691.763,296.982 719.152,296.982 Q718.265,339.714 719.089,382.699 719.089,385.425 719.152,388.215 719.469,387.834 719.85,387.454 724.478,382.826 730.945,382.699 L731.325,382.699 Q738.045,382.699 742.8,387.454 747.555,392.209 747.555,398.929 747.555,405.65 742.8,410.405 738.045,415.16 731.325,415.16 L730.945,415.16 Q724.478,415.033 719.85,410.405 719.469,410.024 719.152,409.707 L719.152,388.215" test="Drawer"/>
      </g>
      <g id="DrawersCabinetFront">
        <path fill="#000" stroke="none" d="M322.85,623.932 Q323.167,624.249 323.548,624.629 328.176,629.257 334.643,629.384 L335.023,629.384 Q341.743,629.384 346.498,624.629 351.253,619.874 351.253,613.154 351.253,606.433 346.498,601.678 341.743,596.923 335.023,596.923 L334.643,596.923 Q328.176,597.05 323.548,601.678 323.167,602.059 322.85,602.439 L322.85,623.932 M322.85,511.207 L295.461,511.207 295.461,533.523 229.018,531.051 Q53.083,536.82 -105.734,533.523 -109.791,552.163 -109.031,572.641 -106.621,630.272 -107.509,666.727 -108.27,702.167 -105.734,712.058 -27.118,710.98 50.484,714.277 81.169,713.389 101.584,714.467 122.316,715.545 136.708,715.545 142.224,715.545 147.866,715.481 155.791,716.432 163.653,716.306 178.108,715.164 192.436,713.072 207.272,711.234 222.298,712.945 236.69,714.594 250.955,714.213 265.917,713.77 280.753,712.882 298.124,712.565 322.85,712.058 L322.85,629.384 322.85,623.932 322.85,602.439 Q322.787,599.65 322.787,596.923 321.963,553.938 322.85,511.207Z" test="DrawersCabinetFront" stroke-width="1.268"/>
        <path id="Layer3_0_1_STROKES" stroke="#F60" stroke-width="2.536" stroke-linejoin="round" stroke-linecap="round" fill="none" d="M322.85,623.932 L322.85,629.384 322.85,712.058 Q298.124,712.565 280.753,712.882 265.917,713.77 250.955,714.213 236.69,714.594 222.298,712.945 207.272,711.234 192.436,713.072 178.108,715.164 163.653,716.306 155.791,716.432 147.866,715.481 142.224,715.545 136.708,715.545 122.316,715.545 101.584,714.467 81.169,713.389 50.484,714.277 -27.118,710.98 -105.734,712.058 -108.27,702.167 -107.509,666.727 -106.621,630.272 -109.031,572.641 -109.791,552.163 -105.734,533.523 53.083,536.82 229.018,531.051 L295.461,533.523 295.461,511.207 322.85,511.207 Q321.963,553.938 322.787,596.923 322.787,599.65 322.85,602.439 323.167,602.059 323.548,601.678 328.176,597.05 334.643,596.923 L335.023,596.923 Q341.743,596.923 346.498,601.678 351.253,606.433 351.253,613.154 351.253,619.874 346.498,624.629 341.743,629.384 335.023,629.384 L334.643,629.384 Q328.176,629.257 323.548,624.629 323.167,624.249 322.85,623.932 L322.85,602.439" test="DrawersCabinetFront"/>
        <path fill="#000" stroke="none" d="M263.064,286.771 Q235.801,285.763 209.554,284.235 183.38,282.773 114.074,283.03 44.816,283.356 12.824,283.727 -19.089,284.162 -59.579,283.791 -100.082,283.414 -123.486,286.263 -125.134,299.704 -127.036,407.801 -129.002,520.083 -127.163,542.209 -126.466,551.212 -131.094,632.301 -135.656,713.388 -132.172,715.164 -128.629,716.942 -119.238,716.242 -115.719,716.025 -111.63,715.481 -103.768,714.467 -95.843,713.453 -58.628,709.649 -21.348,710.79 -4.055,710.904 14.282,711.107 106.403,712.185 118.575,712.185 129.861,712.185 212.471,715.355 213.422,715.418 214.436,715.418 217.036,715.545 219.635,715.608 223.312,715.735 226.863,715.798 293.623,717.764 295.144,715.355 296.92,712.565 297.046,701.533 296.983,685.81 296.983,675.603 296.983,601.361 297.934,575.558 298.378,562.878 296.983,504.169 295.652,445.08 296.095,430.308 296.918,402.99 296.286,345.035 295.718,287.071 293.052,287.405 290.386,287.796 263.064,286.771Z" test="DrawersCabinetFront" stroke-width="1.268"/>
        <path id="Layer2_0_1_STROKES" stroke="#F60" stroke-width="2.536" stroke-linejoin="round" stroke-linecap="round" fill="none" d="M-123.486,286.263 Q-100.082,283.414 -59.579,283.791 -19.089,284.162 12.856,283.759 44.816,283.356 114.106,283.062 183.38,282.773 209.586,284.266 235.801,285.763 263.096,286.771 290.386,287.796 293.052,287.436 295.718,287.071 296.317,345.035 296.918,402.99 296.095,430.308 295.652,445.08 296.983,504.169 298.378,562.878 297.934,575.558 296.983,601.361 296.983,675.603 296.983,685.81 297.046,701.533 296.92,712.565 295.144,715.355 293.623,717.764 226.863,715.798 223.312,715.735 219.635,715.608 217.036,715.545 214.436,715.418 213.422,715.418 212.471,715.355 129.861,712.185 118.575,712.185 106.403,712.185 14.282,711.107 -4.055,710.904 -21.348,710.79 -58.628,709.649 -95.843,713.453 -103.768,714.467 -111.63,715.513 -115.719,716.025 -119.206,716.274 -128.629,716.942 -132.14,715.164 -135.656,713.388 -131.062,632.301 -126.466,551.212 -127.163,542.209 -129.002,520.083 -127.036,407.801 -125.134,299.704 -123.486,286.263Z" test="DrawersCabinetFront"/>
      </g>
    </g>
  </g>
</svg>