<?xml version="1.0" encoding="utf-8"?>
<svg id="EdithAnim12" image-rendering="inherit" baseProfile="basic" version="1.1" x="0px" y="0px" width="800" height="600" xmlns="http://www.w3.org/2000/svg" xmlns:xlink="http://www.w3.org/1999/xlink">
  <g id="21_GarbageDrawerf108r1" overflow="visible">
    <g id="GarbageDrawerGroupf108r1">
      <g id="Tween-6">
        <path fill="#000" stroke="none" d="M390.748,317.627 Q387.441,315.876 385.755,315.876 377.649,315.876 373.109,325.669 369.348,333.581 368.829,345.708 368.764,345.967 368.699,346.226 368.246,347.653 366.754,349.08 L356.313,349.08 Q356.119,349.145 352.033,349.534 349.05,349.858 348.012,351.414 347.688,351.868 347.623,353.23 347.558,354.787 347.494,355.046 345.937,353.489 338.155,353.489 328.298,353.489 328.298,361.531 328.298,362.244 328.492,364.384 328.622,366.784 328.817,367.497 326.612,367.886 324.407,370.545 321.294,374.177 321.294,379.819 321.294,380.921 322.007,383.774 322.397,385.396 323.11,388.249 323.564,390.259 324.018,390.973 325.38,392.918 328.817,393.437 329.725,393.567 340.619,396.485 354.627,399.663 371.099,401.479 377.325,402.192 418.829,408.417 450.8,413.216 472.784,414.189 495.546,415.227 526.026,417.691 547.361,419.377 566.297,419.377 582.964,419.377 608.385,414.513 634.584,409.585 641.913,404.591 644.701,402.711 647.49,401.932 650.538,401.089 652.029,400.182 657.477,396.68 658.774,394.734 662.34,389.287 663.118,386.952 663.443,385.979 663.443,383.191 663.443,380.273 662.665,378.262 661.497,376.057 660.849,374.76 L660.849,374.242 Q660.071,373.463 660.071,372.426 660.071,372.361 665.388,368.21 670.706,363.412 670.706,360.493 670.706,355.176 669.279,351.674 667.334,347.005 662.405,343.632 659.552,341.687 654.429,340.584 649.5,339.676 648.398,339.222 648.981,338.12 651.77,334.942 654.364,331.505 654.364,327.939 654.364,322.491 650.473,317.433 645.414,310.948 636.725,310.948 630.953,310.948 626.608,312.504 627.127,311.921 627.516,311.272 628.164,310.04 628.164,307.835 628.164,302.582 622.198,298.237 614.416,292.53 599.76,292.53 L592.108,293.438 Q588.93,294.865 587.049,299.405 586.92,299.859 586.66,300.313 586.92,299.859 587.049,299.405 588.411,294.541 578.878,290.261 570.188,286.305 563.703,286.305 556.051,286.305 552.809,288.769 549.566,291.234 548.788,297.719 546.194,295.125 544.702,294.022 542.108,292.012 540.228,292.012 532.381,292.012 527.971,295.514 525.766,297.265 519.216,306.019 L519.216,305.76 Q518.438,300.377 517.919,298.302 517.141,294.8 515.52,293.049 511.694,288.899 496.778,288.899 493.795,288.899 490.747,290.585 487.699,292.206 485.235,295.125 484.586,294.476 483.225,292.077 481.603,289.223 481.603,289.158 477.518,283.062 474.859,280.922 471.941,278.523 468.115,278.523 447.687,278.523 436.014,285.916 425.962,292.336 427.908,299.275 425.314,296.032 423.692,294.411 420.839,291.493 417.921,291.493 408.388,291.493 400.411,301.156 392.499,310.689 394.186,319.768 393.667,319.119 390.748,317.627 M437.246,323.983 Q439.191,324.891 442.175,326.771 444.25,327.874 444.509,328.068 445.028,328.393 444.25,328.328 445.028,328.393 444.509,328.068 444.25,327.874 442.175,326.771 439.191,324.891 437.246,323.983 433.744,322.362 429.983,322.362 417.921,322.362 411.306,328.068 417.921,322.362 429.983,322.362 433.744,322.362 437.246,323.983 M483.484,317.887 Q488.737,315.617 494.573,315.617 499.761,315.617 503.652,323.918 503.652,324.437 503.198,324.956 502.68,325.539 502.096,325.734 502.68,325.539 503.198,324.956 503.652,324.437 503.652,323.918 499.761,315.617 494.573,315.617 488.737,315.617 483.484,317.887 478.037,320.286 475.378,324.177 478.037,320.286 483.484,317.887 M575.117,312.764 Q575.571,312.764 578.554,316.006 581.472,319.249 581.472,319.768 581.472,326.447 578.943,329.949 577.257,332.284 574.987,332.738 577.257,332.284 578.943,329.949 581.472,326.447 581.472,319.768 581.472,319.249 578.554,316.006 575.571,312.764 575.117,312.764 558.775,312.764 551.123,319.249 558.775,312.764 575.117,312.764 M631.926,327.744 Q634.649,329.819 634.649,337.796 634.649,345.643 627.97,350.766 622.652,354.851 618.826,354.527 622.652,354.851 627.97,350.766 634.649,345.643 634.649,337.796 634.649,329.819 631.926,327.744 629.332,325.734 619.345,325.993 629.332,325.734 631.926,327.744 M636.465,352.193 Q645.739,352.063 646.517,352.322 649.954,353.36 649.954,359.975 649.954,362.179 647.944,364.255 646.647,365.487 643.209,367.756 642.302,368.34 640.745,369.702 639.319,370.869 638.8,371.129 639.319,370.869 640.745,369.702 642.302,368.34 643.209,367.756 646.647,365.487 647.944,364.255 649.954,362.179 649.954,359.975 649.954,353.36 646.517,352.322 645.739,352.063 636.465,352.193Z" test="Tween 6" stroke-width="1.297"/>
        <path id="Layer6_0_1_STROKES" stroke="#FFF" stroke-width="1.297" stroke-linejoin="round" stroke-linecap="round" fill="none" d="M660.849,374.76 Q661.497,376.057 662.665,378.262 663.443,380.273 663.443,383.191 663.443,385.979 663.118,386.952 662.34,389.287 658.774,394.734 657.477,396.68 652.029,400.182 650.538,401.089 647.49,401.932 644.701,402.711 641.913,404.591 634.584,409.585 608.385,414.513 582.964,419.377 566.297,419.377 547.361,419.377 526.026,417.691 495.546,415.227 472.784,414.189 450.8,413.216 418.829,408.417 377.325,402.192 371.099,401.479 354.627,399.663 340.619,396.485 329.725,393.567 328.817,393.437 325.38,392.918 324.018,390.973 323.564,390.259 323.11,388.249 322.397,385.396 322.007,383.774 321.294,380.921 321.294,379.819 321.294,374.177 324.407,370.545 326.612,367.886 328.817,367.497 328.622,366.784 328.492,364.384 328.298,362.244 328.298,361.531 328.298,353.489 338.155,353.489 345.937,353.489 347.494,355.046 347.558,354.787 347.623,353.23 347.688,351.868 348.012,351.414 349.05,349.858 352.033,349.534 356.119,349.145 356.313,349.08 L366.754,349.08 Q368.246,347.653 368.699,346.226 368.764,345.967 368.829,345.708 369.348,333.581 373.109,325.669 377.649,315.876 385.755,315.876 387.441,315.876 390.748,317.627 393.667,319.119 394.186,319.768 392.499,310.689 400.411,301.156 408.388,291.493 417.921,291.493 420.839,291.493 423.692,294.411 425.314,296.032 427.908,299.275 425.962,292.336 436.014,285.916 447.687,278.523 468.115,278.523 471.941,278.523 474.859,280.922 477.518,283.062 481.603,289.158 481.603,289.223 483.225,292.077 484.586,294.476 485.235,295.125 487.699,292.206 490.747,290.585 493.795,288.899 496.778,288.899 511.694,288.899 515.52,293.049 517.141,294.8 517.919,298.302 518.438,300.377 519.216,305.76 L519.216,306.019 Q525.766,297.265 527.971,295.514 532.381,292.012 540.228,292.012 542.108,292.012 544.702,294.022 546.194,295.125 548.788,297.719 549.566,291.234 552.809,288.769 556.051,286.305 563.703,286.305 570.188,286.305 578.878,290.261 588.411,294.541 587.049,299.405 588.93,294.865 592.108,293.438 594.248,292.53 599.76,292.53 614.416,292.53 622.198,298.237 628.164,302.582 628.164,307.835 628.164,310.04 627.516,311.272 627.127,311.921 626.608,312.504 630.953,310.948 636.725,310.948 645.414,310.948 650.473,317.433 654.364,322.491 654.364,327.939 654.364,331.505 651.77,334.942 648.981,338.12 648.398,339.222 649.5,339.676 654.429,340.584 659.552,341.687 662.405,343.632 667.334,347.005 669.279,351.674 670.706,355.176 670.706,360.493 670.706,363.412 665.388,368.21 660.071,372.361 660.071,372.426 660.071,373.463 660.849,374.242 M411.306,328.068 Q417.921,322.362 429.983,322.362 433.744,322.362 437.246,323.983 439.191,324.891 442.175,326.771 444.25,327.874 444.509,328.068 445.028,328.393 444.25,328.328 M475.378,324.177 Q478.037,320.286 483.484,317.887 488.737,315.617 494.573,315.617 499.761,315.617 503.652,323.918 503.652,324.437 503.198,324.956 502.68,325.539 502.096,325.734 M587.049,299.405 Q586.92,299.859 586.66,300.313 M551.123,319.249 Q558.775,312.764 575.117,312.764 575.571,312.764 578.554,316.006 581.472,319.249 581.472,319.768 581.472,326.447 578.943,329.949 577.257,332.284 574.987,332.738 M619.345,325.993 Q629.332,325.734 631.926,327.744 634.649,329.819 634.649,337.796 634.649,345.643 627.97,350.766 622.652,354.851 618.826,354.527 M636.465,352.193 Q645.739,352.063 646.517,352.322 649.954,353.36 649.954,359.975 649.954,362.179 647.944,364.255 646.647,365.487 643.209,367.756 642.302,368.34 640.745,369.702 639.319,370.869 638.8,371.129" test="Tween 6"/>
      </g>
      <g id="Tween-5">
        <g id="Tin-can-Rubbish">
          <path fill="#000" stroke="none" d="M363.807,348.866 Q353.626,361.123 348.632,365.727 336.765,376.687 327.426,376.946 L327.686,378.762 Q327.686,379.994 327.491,381.162 327.232,382.329 327.232,382.718 327.232,383.626 328.529,384.145 329.631,384.534 331.188,384.534 334.301,384.534 341.564,380.967 L341.888,380.967 Q338.386,385.636 338.386,386.998 338.386,390.824 342.99,390.824 345.779,390.824 346.168,390.695 346.557,390.5 348.373,389.138 348.697,388.425 349.021,388.101 L349.021,388.554 Q348.632,388.814 348.373,389.138 347.919,389.851 347.335,391.019 345.909,394.067 345.909,396.272 345.909,399.709 350.902,401.395 355.377,402.886 353.95,407.685 358.619,407.88 359.916,409.631 360.241,410.085 360.565,410.928 L360.565,410.993 Q372.303,406.258 377.361,402.562 382.225,398.93 384.235,393.872 382.225,398.93 377.361,402.562 372.303,406.258 360.565,410.993 361.019,412.29 361.538,414.43 362.121,415.921 365.039,418.191 366.92,419.747 365.947,422.86 L370.422,422.86 Q388.515,415.402 407.776,392.64 426.452,370.656 430.992,352.887 L430.992,348.866 Q428.009,348.218 424.312,348.866 L421.653,348.866 Q422.95,345.883 419.319,344.392 414.325,343.095 411.926,342.252 410.564,341.733 409.656,339.852 408.813,337.453 408.294,336.285 406.349,331.94 401.161,333.302 L401.161,329.736 Q402.069,328.828 402.069,327.531 402.069,325.715 398.502,325.391 394.481,325.326 393.573,325.261 393.573,324.612 394.027,322.991 394.481,321.435 394.481,320.916 394.481,318.516 390.461,318.192 392.276,314.885 389.293,313.069 386.699,312.096 385.078,311.448 386.959,312.615 386.959,315.274 386.959,323.64 380.539,330.968 370.681,340.63 363.807,348.866 M391.239,348.283 Q389.164,351.785 387.867,352.044 389.164,351.785 391.239,348.283 392.536,346.013 396.686,338.685 392.536,346.013 391.239,348.283 M416.919,358.334 Q414.455,362.096 411.472,363.133 414.455,362.096 416.919,358.334 419.449,354.443 420.746,348.866 419.449,354.443 416.919,358.334 M373.535,369.813 Q371.849,372.537 368.995,377.66 367.05,381.226 366.401,381.875 367.05,381.226 368.995,377.66 371.849,372.537 373.535,369.813 M337.413,346.337 Q326.972,359.696 325.805,366.441 325.157,369.748 324.962,371.564 324.638,373.444 324.768,373.834 324.703,374.028 324.638,374.223 324.573,374.741 324.573,375.131 324.573,376.168 324.962,376.492 325.481,376.946 326.972,376.946 327.167,376.946 327.426,376.946 336.765,376.687 348.632,365.727 353.626,361.123 363.807,348.866 370.681,340.63 380.539,330.968 386.959,323.64 386.959,315.274 386.959,312.615 385.078,311.448 384.3,310.994 383.327,310.799 382.354,310.605 381.122,310.605 375.48,310.605 361.667,321.824 347.854,332.978 337.413,346.337Z" test="Tin can Rubbish" stroke-width="1.297"/>
          <path id="Layer9_0_1_STROKES" stroke="#009EFF" stroke-width="1.297" stroke-linejoin="round" stroke-linecap="round" fill="none" d="M324.962,371.564 Q324.638,373.444 324.768,373.834 M385.078,311.448 Q386.699,312.096 389.293,313.069 392.276,314.885 390.461,318.192 394.481,318.516 394.481,320.916 394.481,321.435 394.027,322.991 393.573,324.612 393.573,325.261 394.481,325.326 398.502,325.391 402.069,325.715 402.069,327.531 402.069,328.828 401.161,329.736 L401.161,333.302 Q406.349,331.94 408.294,336.285 408.813,337.453 409.656,339.852 410.564,341.733 411.926,342.252 414.325,343.095 419.319,344.392 422.95,345.883 421.653,348.866 L424.312,348.866 Q428.009,348.218 430.992,348.866 L430.992,352.887 Q426.452,370.656 407.776,392.64 388.515,415.402 370.422,422.86 L365.947,422.86 Q366.92,419.747 365.039,418.191 362.121,415.921 361.538,414.43 361.019,412.29 360.565,410.993 L360.565,410.928 Q360.241,410.085 359.916,409.631 358.619,407.88 353.95,407.685 355.377,402.886 350.902,401.395 345.909,399.709 345.909,396.272 345.909,394.067 347.335,391.019 347.919,389.851 348.373,389.138 346.557,390.5 346.168,390.695 345.779,390.824 342.99,390.824 338.386,390.824 338.386,386.998 338.386,385.636 341.888,380.967 L341.564,380.967 Q334.301,384.534 331.188,384.534 329.631,384.534 328.529,384.145 327.232,383.626 327.232,382.718 327.232,382.329 327.491,381.162 327.686,379.994 327.686,378.762 M396.686,338.685 Q392.536,346.013 391.239,348.283 389.164,351.785 387.867,352.044 M420.746,348.866 Q419.449,354.443 416.919,358.334 414.455,362.096 411.472,363.133 M373.535,369.813 Q371.849,372.537 368.995,377.66 367.05,381.226 366.401,381.875 M348.373,389.138 Q348.632,388.814 349.021,388.554 L349.021,388.101 Q348.697,388.425 348.373,389.138Z M360.565,410.993 Q372.303,406.258 377.361,402.562 382.225,398.93 384.235,393.872" test="Tin can Rubbish"/>
          <path id="Layer9_0_2_STROKES" stroke="#FFF" stroke-width="1.297" stroke-linejoin="round" stroke-linecap="round" fill="none" d="M385.078,311.448 Q384.3,310.994 383.327,310.799 382.354,310.605 381.122,310.605 375.48,310.605 361.667,321.824 347.854,332.978 337.413,346.337 326.972,359.696 325.805,366.441 325.157,369.748 324.962,371.564 M324.768,373.834 Q324.703,374.028 324.638,374.223 324.573,374.741 324.573,375.131 324.573,376.168 324.962,376.492 325.481,376.946 326.972,376.946 327.167,376.946 327.426,376.946 336.765,376.687 348.632,365.727 353.626,361.123 363.807,348.866 370.681,340.63 380.539,330.968 386.959,323.64 386.959,315.274 386.959,312.615 385.078,311.448" test="Tin can Rubbish"/>
        </g>
        <g id="Bottle">
          <path fill="#000" stroke="none" d="M615.188,415.719 Q613.178,415.46 606.044,413.968 599.819,412.606 596.317,412.671 589.832,412.736 580.299,407.224 570.896,401.841 562.141,393.216 555.915,387.055 550.403,377.782 545.993,369.416 545.539,368.768 543.399,365.784 541.713,362.672 538.795,357.484 538.989,354.954 524.268,375.512 507.602,394.383 489.638,414.616 476.344,437.962 464.088,459.493 484.969,474.408 506.694,489.907 531.402,498.857 545.085,503.915 556.045,492.696 574.722,473.565 589.572,450.738 601.245,432.71 614.864,416.108 L615.188,415.719 M576.537,326.874 Q576.408,326.81 576.278,326.81 563.049,326.291 553.451,336.667 545.539,345.227 538.989,354.954 538.795,357.484 541.713,362.672 543.399,365.784 545.539,368.768 545.993,369.416 550.403,377.782 555.915,387.055 562.141,393.216 570.896,401.841 580.299,407.224 589.832,412.736 596.317,412.671 599.819,412.606 606.044,413.968 613.178,415.46 615.188,415.719 629.585,401.776 636.264,383.099 636.524,382.451 636.783,381.802 636.135,381.738 635.875,381.802 633.995,381.867 633.281,381.932 632.308,381.997 630.752,382.386 629.261,382.775 626.991,382.775 621.414,382.775 607.406,373.307 593.982,364.293 586.46,356.057 580.234,349.183 578.483,340.817 577.575,332.127 576.537,326.874 M640.739,330.96 Q632.827,324.67 627.574,312.607 604.682,328.69 576.537,326.874 577.575,332.127 578.483,340.817 580.234,349.183 586.46,356.057 593.982,364.293 607.406,373.307 621.414,382.775 626.991,382.775 629.261,382.775 630.752,382.386 632.308,381.997 633.281,381.932 633.995,381.867 635.875,381.802 636.135,381.738 636.783,381.802 630.233,355.538 651.374,338.677 651.958,338.223 652.542,337.64 642.684,332.516 640.739,330.96 M627.445,311.116 L627.574,312.607 Q632.827,324.67 640.739,330.96 642.684,332.516 652.542,337.64 L656.303,338.288 Q659.156,337.121 662.723,330.117 666.095,323.437 666.095,320 666.095,315.85 656.757,305.733 652.282,300.87 648.91,298.34 645.214,295.487 642.944,295.487 639.247,295.487 633.346,302.75 631.076,305.539 627.445,311.116 M646.511,302.426 Q646.122,301.842 646.057,301.777 646.122,301.842 646.511,302.426 647.483,303.788 650.596,308.392 655.979,315.461 660.778,318.638 655.979,315.461 650.596,308.392 647.483,303.788 646.511,302.426Z" test="Bottle" stroke-width="1.297"/>
          <path id="Layer10_0_1_STROKES" stroke="#FFF" stroke-width="1.297" stroke-linejoin="round" stroke-linecap="round" fill="none" d="M627.574,312.607 Q632.827,324.67 640.739,330.96 642.684,332.516 652.542,337.64 M656.303,338.288 Q659.156,337.121 662.723,330.117 666.095,323.437 666.095,320 666.095,315.85 656.757,305.733 652.282,300.87 648.91,298.34 645.214,295.487 642.944,295.487 639.247,295.487 633.346,302.75 631.076,305.539 627.445,311.116 M660.778,318.638 Q655.979,315.461 650.596,308.392 647.483,303.788 646.511,302.426 646.122,301.842 646.057,301.777 M538.989,354.954 Q538.795,357.484 541.713,362.672 543.399,365.784 545.539,368.768 545.993,369.416 550.403,377.782 555.915,387.055 562.141,393.216 570.896,401.841 580.299,407.224 589.832,412.736 596.317,412.671 599.819,412.606 606.044,413.968 613.178,415.46 615.188,415.719 M636.783,381.802 Q636.135,381.738 635.875,381.802 633.995,381.867 633.281,381.932 632.308,381.997 630.752,382.386 629.261,382.775 626.991,382.775 621.414,382.775 607.406,373.307 593.982,364.293 586.46,356.057 580.234,349.183 578.483,340.817 577.575,332.127 576.537,326.874 576.408,326.161 576.278,325.513 M615.188,415.719 Q615.447,415.784 615.577,415.784 615.577,415.978 614.864,416.108" test="Bottle"/>
          <path id="Layer10_0_2_STROKES" stroke="#0F0" stroke-width="1.297" stroke-linejoin="round" stroke-linecap="round" fill="none" d="M576.537,326.874 Q576.408,326.81 576.278,326.81 563.049,326.291 553.451,336.667 545.539,345.227 538.989,354.954 M615.188,415.719 Q629.585,401.776 636.264,383.099 636.524,382.451 636.783,381.802 630.233,355.538 651.374,338.677 651.958,338.223 652.542,337.64 M627.574,312.607 Q604.682,328.69 576.537,326.874 M614.864,416.108 Q601.245,432.71 589.572,450.738 574.722,473.565 556.045,492.696 545.085,503.915 531.402,498.857 506.694,489.907 484.969,474.408 464.088,459.493 476.344,437.962 489.638,414.616 507.602,394.383 524.268,375.512 538.989,354.954 M614.864,416.108 L615.188,415.719" test="Bottle"/>
        </g>
        <g id="Banana">
          <path fill="#000" stroke="none" d="M476.527,275.245 L475.879,275.893 Q471.599,282.119 466.411,291.911 462.39,299.369 460.379,301.314 453.7,307.605 445.334,312.858 436.904,317.786 433.596,319.991 418.032,330.302 404.219,351.962 390.536,373.298 391.703,384.582 L391.703,390.159 Q391.833,390.353 392.546,390.353 395.011,390.353 397.151,386.527 398.318,384.387 400.134,380.107 400.847,378.81 403.895,374.66 405.452,372.52 405.646,372.131 412.909,370.12 424.258,362.533 437.293,353.908 442.935,345.801 448.642,337.63 461.482,327.643 473.868,317.981 474.517,316.943 L474.971,316.943 474.971,319.537 Q471.599,334.064 455.581,361.365 447.215,375.568 445.205,379.523 440.535,388.343 440.276,392.623 440.665,392.623 441.962,392.883 443.194,393.077 443.778,393.077 448.771,393.077 462.844,379.848 477.5,366.1 483.985,354.297 485.347,351.768 486.968,341.91 488.719,331.34 489.238,329.784 490.924,325.244 491.313,323.882 491.832,321.807 492.804,318.305 497.733,326.022 503.894,333.026 508.174,338.019 524.84,356.956 532.363,365.775 535.995,384.517 538.199,395.93 538.199,403.259 543.906,403.323 547.278,395.801 550.262,388.992 550.262,378.81 550.262,369.147 546.889,361.171 545.203,357.215 539.043,347.358 533.271,338.084 530.353,330.432 525.943,318.824 517.188,311.626 508.368,304.362 505.191,297.229 501.948,290.095 499.03,284.324 496.112,278.487 497.02,276.866 L495.982,275.699 Q494.166,277.32 491.248,278.357 487.941,279.46 484.828,279.46 483.336,279.46 479.899,277.709 477.111,276.282 476.527,275.245 M491.897,242.495 Q486.255,240.809 484.504,246.581 483.985,248.397 483.531,256.308 483.012,264.026 479.575,268.241 476.333,272.326 476.333,274.726 476.333,274.985 476.527,275.245 477.111,276.282 479.899,277.709 483.336,279.46 484.828,279.46 487.941,279.46 491.248,278.357 494.166,277.32 495.982,275.699 497.02,274.791 497.668,273.688 497.279,273.429 496.89,273.234 495.398,272.262 494.361,271.483 492.091,269.927 491.378,269.149 490.146,267.722 490.146,258.967 490.146,253.131 491.897,242.495Z" test="Banana" stroke-width="1.297"/>
          <path id="Layer11_0_1_STROKES" stroke="#FF0" stroke-width="1.297" stroke-linejoin="round" stroke-linecap="round" fill="none" d="M497.02,276.866 Q496.112,278.487 499.03,284.324 501.948,290.095 505.191,297.229 508.368,304.362 517.188,311.626 525.943,318.824 530.353,330.432 533.271,338.084 539.043,347.358 545.203,357.215 546.889,361.171 550.262,369.147 550.262,378.81 550.262,388.992 547.278,395.801 543.906,403.323 538.199,403.259 538.199,395.93 535.995,384.517 532.363,365.775 524.84,356.956 508.174,338.019 503.894,333.026 497.733,326.022 492.804,318.305 491.832,321.807 491.313,323.882 490.924,325.244 489.238,329.784 488.719,331.34 486.968,341.91 485.347,351.768 483.985,354.297 477.5,366.1 462.844,379.848 448.771,393.077 443.778,393.077 443.194,393.077 441.962,392.883 440.665,392.623 440.276,392.623 440.535,388.343 445.205,379.523 447.215,375.568 455.581,361.365 471.599,334.064 474.971,319.537 L474.971,316.943 474.517,316.943 Q473.868,317.981 461.482,327.643 448.642,337.63 442.935,345.801 437.293,353.908 424.258,362.533 412.909,370.12 405.646,372.131 405.452,372.52 403.895,374.66 400.847,378.81 400.134,380.107 398.318,384.387 397.151,386.527 395.011,390.353 392.546,390.353 391.833,390.353 391.703,390.159 L391.703,384.582 Q390.536,373.298 404.219,351.962 418.032,330.302 433.596,319.991 436.904,317.786 445.334,312.858 453.7,307.605 460.379,301.314 462.39,299.369 466.411,291.911 471.599,282.119 475.879,275.893" test="Banana"/>
          <path id="Layer11_0_2_STROKES" stroke="#FFF" stroke-width="1.297" stroke-linejoin="round" stroke-linecap="round" fill="none" d="M476.527,275.245 Q476.333,274.985 476.333,274.726 476.333,272.326 479.575,268.241 483.012,264.026 483.531,256.308 483.985,248.397 484.504,246.581 486.255,240.809 491.897,242.495 490.146,253.131 490.146,258.967 490.146,267.722 491.378,269.149 492.091,269.927 494.361,271.483 495.398,272.262 496.89,273.234 497.279,273.429 497.668,273.688 497.02,274.791 495.982,275.699 M476.527,275.245 Q477.111,276.282 479.899,277.709 483.336,279.46 484.828,279.46 487.941,279.46 491.248,278.357 494.166,277.32 495.982,275.699" test="Banana"/>
        </g>
      </g>
      <g id="Tween-4">
        <path id="Layer5_0_1_STROKES" stroke="#FFF" stroke-width="1.297" stroke-linejoin="round" stroke-linecap="round" fill="none" d="M593.171,398.931 Q593.171,393.872 600.759,389.917" test="Tween 4"/>
        <g id="Garbage">
          <path fill="#000" stroke="none" d="M507.115,368.488 L505.429,367.515 Q505.299,367.774 504.91,368.488 505.299,367.774 505.429,367.515 505.429,367.385 505.429,367.32 505.429,363.364 503.159,361.808 500.047,359.538 491.162,359.538 481.759,359.538 462.239,369.395 459.969,370.498 456.273,377.502 455.689,378.669 454.976,379.642 454.457,373.87 447.518,369.849 440.644,365.764 432.149,365.764 422.486,365.764 415.028,370.239 405.625,375.88 405.625,386.451 405.625,386.97 405.69,387.424 401.15,383.144 390.515,383.144 381.566,383.144 376.053,385.932 370.217,388.915 365.094,396.503 361.073,402.404 360.489,406.944 360.165,409.343 360.619,412.067 358.285,406.684 356.339,404.155 352.902,399.616 345.055,399.616 337.662,399.616 332.604,404.09 327.675,408.565 327.675,414.985 327.675,416.152 328.389,425.62 326.508,428.993 325.406,432.624 323.655,439.823 323.655,446.567 323.655,452.728 328.129,456.619 332.215,460.185 337.468,460.185 339.413,460.185 346.093,459.083 352.707,457.981 357.052,457.981 362.24,457.981 375.405,461.742 388.505,465.503 402.058,465.503 406.014,465.503 437.661,462.65 474.107,459.732 501.862,459.732 508.088,459.667 512.822,459.732 L528.84,460.575 529.488,460.25 Q530.202,459.991 530.786,459.926 534.612,459.732 537.984,457.851 540.513,457.073 542.134,456.359 552.251,451.95 554.391,451.755 L554.845,451.755 Q554.845,451.56 585.13,460.056 618.398,468.681 631.952,468.681 647.516,468.681 655.038,460.704 658.864,456.748 659.513,452.598 659.513,450.523 659.383,450.328 659.318,450.199 659.189,450.069 658.67,449.615 657.308,449.485 658.67,449.615 659.189,450.069 L659.513,449.485 Q661.588,448.188 668.203,445.789 673.78,442.871 673.78,437.488 673.78,434.116 669.759,433.013 L670.213,433.013 Q672.288,431.003 677.736,426.723 682.21,422.572 682.21,418.292 682.21,414.661 680.005,410.316 677.217,404.933 673.131,404.933 666.387,406.555 663.987,406.749 667.1,404.09 667.1,402.728 666.97,400.523 665.738,398.448 663.404,394.363 658.151,394.363 647.84,394.363 643.495,395.854 639.215,397.346 632.341,403.182 630.914,395.789 626.05,391.055 620.992,386.256 614.312,386.256 607.568,386.256 600.759,389.888 L593.171,398.902 Q593.171,400.07 594.014,407.203 593.431,406.879 592.004,406.555 590.642,406.295 589.799,406.295 586.686,406.295 582.99,409.862 581.628,411.224 579.812,414.337 578.126,417.32 577.542,419.2 577.413,419.784 577.283,420.432 576.699,422.767 574.754,424.323 574.17,424.777 573.457,425.037 573.197,424.842 573.003,424.648 569.371,421.081 568.399,416.152 567.88,414.596 566.842,412.91 564.961,409.732 561.978,406.749 569.112,407.527 575.208,405.258 582.017,402.728 582.86,397.411 582.99,396.632 582.99,395.789 582.99,392.417 582.406,390.601 581.174,386.646 577.088,383.144 572.808,379.447 568.204,378.539 566.712,378.215 562.432,378.215 562.497,378.085 566.064,371.795 566.388,371.211 566.648,370.628 L567.231,369.849 Q567.555,369.395 567.62,369.071 568.139,366.412 567.361,363.818 566.907,362.586 565.091,358.76 563.016,354.48 560.487,352.664 554.521,348.384 539.865,348.384 524.495,348.384 511.266,363.3 509.19,365.634 507.115,368.488 M541.81,398.708 Q541.551,399.356 541.032,400.394 541.551,399.356 541.81,398.708 542.329,397.54 542.329,396.632 542.329,391.315 537.66,391.315 535.325,391.315 532.99,391.963 528.321,393.325 528.062,396.762 528.321,393.325 532.99,391.963 535.325,391.315 537.66,391.315 542.329,391.315 542.329,396.632 542.329,397.54 541.81,398.708 M637.529,423.48 Q640.901,425.685 640.901,429.187 640.901,425.685 637.529,423.48 634.74,421.665 631.692,421.665 627.412,421.665 625.013,423.156 622.483,424.648 622.483,427.371 622.483,424.648 625.013,423.156 627.412,421.665 631.692,421.665 634.74,421.665 637.529,423.48 M437.012,403.182 Q440.774,405.193 441.682,407.657 440.774,405.193 437.012,403.182 433.511,401.367 430.787,401.367 427.285,401.367 424.756,403.636 421.254,406.879 421.254,413.883 421.254,414.92 421.448,415.504 421.838,416.541 423.005,418.292 421.838,416.541 421.448,415.504 421.254,414.92 421.254,413.883 421.254,406.879 424.756,403.636 427.285,401.367 430.787,401.367 433.511,401.367 437.012,403.182 M489.8,397.411 Q490.708,398.967 490.708,402.988 490.708,410.251 485.001,415.244 478.841,420.562 469.308,420.108 478.841,420.562 485.001,415.244 490.708,410.251 490.708,402.988 490.708,398.967 489.8,397.411 488.763,395.595 485.844,395.595 485.261,395.595 484.418,395.854 483.186,396.243 481.824,396.503 483.186,396.243 484.418,395.854 485.261,395.595 485.844,395.595 488.763,395.595 489.8,397.411Z" test="Garbage" stroke-width="1.297"/>
          <path id="Layer7_0_1_STROKES" stroke="#FFF" stroke-width="1.297" stroke-linejoin="round" stroke-linecap="round" fill="none" d="M505.429,367.515 Q505.299,367.774 504.91,368.488 M659.189,450.069 Q659.318,450.199 659.383,450.328 659.513,450.523 659.513,452.598 658.864,456.748 655.038,460.704 647.516,468.681 631.952,468.681 618.398,468.681 585.13,460.056 554.845,451.56 554.845,451.755 L554.391,451.755 Q552.251,451.95 542.134,456.359 540.513,457.073 537.984,457.851 534.612,459.732 530.786,459.926 530.202,459.991 529.488,460.25 L528.84,460.575 512.822,459.732 Q508.088,459.667 501.862,459.732 474.107,459.732 437.661,462.65 406.014,465.503 402.058,465.503 388.505,465.503 375.405,461.742 362.24,457.981 357.052,457.981 352.707,457.981 346.093,459.083 339.413,460.185 337.468,460.185 332.215,460.185 328.129,456.619 323.655,452.728 323.655,446.567 323.655,439.823 325.406,432.624 326.508,428.993 328.389,425.62 327.675,416.152 327.675,414.985 327.675,408.565 332.604,404.09 337.662,399.616 345.055,399.616 352.902,399.616 356.339,404.155 358.285,406.684 360.619,412.067 360.165,409.343 360.489,406.944 361.073,402.404 365.094,396.503 370.217,388.915 376.053,385.932 381.566,383.144 390.515,383.144 401.15,383.144 405.69,387.424 405.625,386.97 405.625,386.451 405.625,375.88 415.028,370.239 422.486,365.764 432.149,365.764 440.644,365.764 447.518,369.849 454.457,373.87 454.976,379.642 455.689,378.669 456.273,377.502 459.969,370.498 462.239,369.395 481.759,359.538 491.162,359.538 500.047,359.538 503.159,361.808 505.429,363.364 505.429,367.32 505.429,367.385 505.429,367.515 M507.115,368.488 Q509.19,365.634 511.266,363.3 524.495,348.384 539.865,348.384 554.521,348.384 560.487,352.664 563.016,354.48 565.091,358.76 566.907,362.586 567.361,363.818 568.139,366.412 567.62,369.071 567.555,369.395 567.231,369.849 L566.648,370.628 Q566.388,371.211 566.064,371.795 562.497,378.085 562.432,378.215 566.712,378.215 568.204,378.539 572.808,379.447 577.088,383.144 581.174,386.646 582.406,390.601 582.99,392.417 582.99,395.789 582.99,396.632 582.86,397.411 582.017,402.728 575.208,405.258 569.112,407.527 561.978,406.749 564.961,409.732 566.842,412.91 567.88,414.596 568.399,416.152 569.371,421.081 573.003,424.648 573.197,424.842 573.457,425.037 574.17,424.777 574.754,424.323 576.699,422.767 577.283,420.432 577.413,419.784 577.542,419.2 578.126,417.32 579.812,414.337 581.628,411.224 582.99,409.862 586.686,406.295 589.799,406.295 590.642,406.295 592.004,406.555 593.431,406.879 594.014,407.203 593.171,400.07 593.171,398.902 M600.759,389.888 Q607.568,386.256 614.312,386.256 620.992,386.256 626.05,391.055 630.914,395.789 632.341,403.182 639.215,397.346 643.495,395.854 647.84,394.363 658.151,394.363 663.404,394.363 665.738,398.448 666.97,400.523 667.1,402.728 667.1,404.09 663.987,406.749 666.387,406.555 673.131,404.933 677.217,404.933 680.005,410.316 682.21,414.661 682.21,418.292 682.21,422.572 677.736,426.723 672.288,431.003 670.213,433.013 L669.759,433.013 Q673.78,434.116 673.78,437.488 673.78,442.871 668.203,445.789 661.588,448.188 659.513,449.485 M657.308,449.485 Q658.67,449.615 659.189,450.069 M528.062,396.762 Q528.321,393.325 532.99,391.963 535.325,391.315 537.66,391.315 542.329,391.315 542.329,396.632 542.329,397.54 541.81,398.708 541.551,399.356 541.032,400.394 M622.483,427.371 Q622.483,424.648 625.013,423.156 627.412,421.665 631.692,421.665 634.74,421.665 637.529,423.48 640.901,425.685 640.901,429.187 M423.005,418.292 Q421.838,416.541 421.448,415.504 421.254,414.92 421.254,413.883 421.254,406.879 424.756,403.636 427.285,401.367 430.787,401.367 433.511,401.367 437.012,403.182 440.774,405.193 441.682,407.657 M481.824,396.503 Q483.186,396.243 484.418,395.854 485.261,395.595 485.844,395.595 488.763,395.595 489.8,397.411 490.708,398.967 490.708,402.988 490.708,410.251 485.001,415.244 478.841,420.562 469.308,420.108" test="Garbage"/>
        </g>
        <g id="GarbageCloud">
          <path id="Layer8_0_1_STROKES" stroke="#FFF" stroke-width="1.297" stroke-linejoin="round" stroke-linecap="round" fill="none" d="M538.818,306.102 Q540.763,305.065 541.152,304.481 541.93,303.379 541.93,300.331 541.93,296.504 538.623,290.798 535.316,285.091 535.316,279.968 535.316,275.817 540.179,267.776 545.043,259.734 545.043,256.168 545.043,254.093 543.227,251.693 542.968,251.369 540.568,248.645 M615.6,285.61 Q616.378,283.924 619.491,281.135 623.641,277.309 627.014,277.114 627.921,278.93 627.921,280.681 627.921,281.135 623.447,285.61 L615.6,285.61 Q615.47,285.869 615.276,286.453 615.73,286.647 616.184,286.972 618.064,288.204 618.064,289.566 618.064,290.992 617.675,291.381 617.221,291.835 615.665,291.835 614.238,291.835 613.2,290.992 612.293,290.149 612.293,289.112 612.293,288.333 612.617,287.815 609.634,287.815 607.818,287.361 603.408,286.388 603.408,283.34 603.408,281.07 604.251,279.384 605.418,277.114 607.623,277.114 610.736,277.114 612.682,279.903 613.979,281.848 614.951,285.61 L615.6,285.61Z M612.617,287.815 L612.682,287.815 Q613.59,287.815 613.849,287.75 614.173,287.685 614.497,287.361 L614.497,286.453 Q613.654,286.777 613.2,287.101 612.811,287.361 612.617,287.815Z M615.276,286.453 Q613.914,285.804 612.747,286.064 M389.857,274.52 Q390.052,273.872 390.311,273.223 386.485,273.353 382.788,275.947 379.546,278.087 378.443,280.227 L378.443,284.702 382.464,284.702 Q388.56,280.097 389.403,276.206 389.598,275.363 389.857,274.52 389.533,274.52 389.144,274.52 M394.461,275.428 Q393.359,274.455 392.646,273.937 390.895,274.001 390.506,274.066 M392.646,273.937 Q392.062,273.483 391.738,273.288 391.543,273.158 390.96,273.158 390.635,273.158 390.311,273.223 391.997,268.943 395.823,264.209 L399.844,264.209 Q399.844,264.663 400.103,265.83 400.298,266.998 400.298,267.581 400.298,272.575 395.888,273.742 393.943,273.872 392.646,273.937Z M425.2,292.743 Q426.951,289.047 428.183,286.258 430.583,280.876 430.583,278.865 430.583,277.179 427.016,273.612 423.449,269.981 423.449,268.878 423.449,265.701 425.006,260.837 426.562,255.908 426.562,253.768 426.562,249.099 426.303,247.737 425.719,244.3 423.449,243.263 M390.052,275.428 L389.857,276.271 Q389.598,277.309 389.598,278.022 389.598,279.189 390.895,279.773 391.867,280.227 392.775,280.227 393.424,280.227 394.202,279.968 395.694,279.449 395.823,279.384 395.564,276.595 393.748,275.428 392.386,274.65 389.857,274.52" test="GarbageCloud"/>
        </g>
      </g>
      <path fill="#000" stroke="none" d="M259.861,342.158 L259.861,606.746 758.947,606.746 758.947,342.158 259.861,342.158Z" test="GarbageDrawerGroup" stroke-width="1.297"/>
      <g id="Drawer">
        <path fill="#000" stroke="none" d="M718.131,399.328 Q717.742,399.718 717.418,400.107 L717.418,422.091 Q717.742,422.415 718.131,422.804 722.865,427.538 729.48,427.668 L729.869,427.668 Q736.743,427.668 741.607,422.804 746.47,417.94 746.47,411.066 746.47,404.192 741.607,399.328 736.743,394.465 729.869,394.465 L729.48,394.465 Q722.865,394.594 718.131,399.328 M279.032,329.615 Q274.881,348.681 275.659,369.627 278.124,428.576 277.216,465.865 276.438,502.116 279.032,512.232 359.446,511.13 438.822,514.502 470.209,513.594 491.091,514.697 512.297,515.799 527.018,515.799 532.66,515.799 538.432,515.734 546.538,516.707 554.579,516.577 569.365,515.41 584.021,513.27 599.196,511.389 614.565,513.14 629.286,514.826 643.878,514.437 659.182,513.983 674.357,513.075 692.126,512.751 717.418,512.232 L717.418,427.668 717.418,422.091 717.418,400.107 Q717.353,397.253 717.353,394.465 716.51,350.496 717.418,306.788 L689.402,306.788 689.402,329.615 621.44,327.086 Q441.481,332.987 279.032,329.615Z" test="Drawer" stroke-width="1.297"/>
        <path id="Layer4_0_1_STROKES" stroke="#F60" stroke-width="2.594" stroke-linejoin="round" stroke-linecap="round" fill="none" d="M717.418,422.091 L717.418,427.668 717.418,512.232 Q692.126,512.751 674.357,513.075 659.182,513.983 643.878,514.437 629.286,514.826 614.565,513.14 599.196,511.389 584.021,513.27 569.365,515.41 554.579,516.577 546.538,516.707 538.432,515.734 532.66,515.799 527.018,515.799 512.297,515.799 491.091,514.697 470.209,513.594 438.822,514.502 359.446,511.13 279.032,512.232 276.438,502.116 277.216,465.865 278.124,428.576 275.659,369.627 274.881,348.681 279.032,329.615 441.481,332.987 621.44,327.086 L689.402,329.615 689.402,306.788 717.418,306.788 Q716.51,350.496 717.353,394.465 717.353,397.253 717.418,400.107 717.742,399.718 718.131,399.328 722.865,394.594 729.48,394.465 L729.869,394.465 Q736.743,394.465 741.607,399.328 746.47,404.192 746.47,411.066 746.47,417.94 741.607,422.804 736.743,427.668 729.869,427.668 L729.48,427.668 Q722.865,427.538 718.131,422.804 717.742,422.415 717.418,422.091 L717.418,400.107" test="Drawer"/>
      </g>
      <g id="DrawersCabinetFront">
        <path fill="#000" stroke="none" d="M312.06,641.231 Q312.384,641.555 312.773,641.944 317.507,646.678 324.122,646.808 L324.511,646.808 Q331.385,646.808 336.249,641.944 341.112,637.081 341.112,630.206 341.112,623.332 336.249,618.469 331.385,613.605 324.511,613.605 L324.122,613.605 Q317.507,613.735 312.773,618.469 312.384,618.858 312.06,619.247 L312.06,641.231 M312.06,525.928 L284.044,525.928 284.044,548.755 216.082,546.226 Q36.123,552.127 -126.326,548.755 -130.477,567.821 -129.699,588.767 -127.234,647.716 -128.142,685.005 -128.92,721.256 -126.326,731.372 -45.912,730.27 33.464,733.642 64.851,732.734 85.733,733.837 106.939,734.939 121.66,734.939 127.302,734.939 133.074,734.874 141.18,735.847 149.221,735.717 164.007,734.55 178.663,732.41 193.838,730.529 209.207,732.28 223.928,733.966 238.52,733.577 253.824,733.123 268,732.216 286.768,731.891 312.06,731.372 L312.06,646.808 312.06,641.231 312.06,619.247 Q311.995,616.393 311.995,613.605 311.152,569.637 312.06,525.928Z" test="DrawersCabinetFront" stroke-width="1.297"/>
        <path id="Layer3_0_1_STROKES" stroke="#F60" stroke-width="2.594" stroke-linejoin="round" stroke-linecap="round" fill="none" d="M312.06,641.231 L312.06,646.808 312.06,731.372 Q286.768,731.891 268,732.216 253.824,733.123 238.52,733.577 223.928,733.966 209.207,732.28 193.838,730.529 178.663,732.41 164.007,734.55 149.221,735.717 141.18,735.847 133.074,734.874 127.302,734.939 121.66,734.939 106.939,734.939 85.733,733.837 64.851,732.734 33.464,733.642 -45.912,730.27 -126.326,731.372 -128.92,721.256 -128.142,685.005 -127.234,647.716 -129.699,588.767 -130.477,567.821 -126.326,548.755 36.123,552.127 216.082,546.226 L284.044,548.755 284.044,525.928 312.06,525.928 Q311.152,569.637 311.995,613.605 311.995,616.393 312.06,619.247 312.384,618.858 312.773,618.469 317.507,613.735 324.122,613.605 L324.511,613.605 Q331.385,613.605 336.249,618.469 341.112,623.332 341.112,630.206 341.112,637.081 336.249,641.944 331.385,646.808 324.511,646.808 L324.122,646.808 Q317.507,646.678 312.773,641.944 312.384,641.555 312.06,641.231 L312.06,619.247" test="DrawersCabinetFront"/>
        <path fill="#000" stroke="none" d="M250.906,296.359 Q223.019,295.328 196.173,293.765 169.4,292.269 98.509,292.533 27.666,292.866 -5.057,293.246 -37.7,293.691 -79.116,293.311 -120.546,292.925 -144.484,295.84 -146.171,309.588 -148.116,420.157 -150.126,535.007 -148.246,557.639 -147.532,566.848 -152.266,649.791 -156.933,732.733 -153.369,734.55 -149.745,736.368 -140.139,735.653 -136.54,735.431 -132.357,734.874 -124.316,733.837 -116.21,732.799 -78.143,728.908 -40.011,730.075 -22.323,730.192 -3.565,730.4 90.662,731.502 103.113,731.502 114.656,731.502 199.156,734.745 200.128,734.81 201.166,734.81 203.825,734.939 206.484,735.004 210.245,735.134 213.877,735.199 282.164,737.209 283.72,734.745 285.536,731.891 285.666,720.607 285.601,704.525 285.601,694.084 285.601,618.144 286.573,591.75 287.027,578.78 285.601,518.729 284.239,458.289 284.693,443.179 285.535,415.236 284.887,355.956 284.306,296.666 281.58,297.007 278.852,297.408 250.906,296.359Z" test="DrawersCabinetFront" stroke-width="1.297"/>
        <path id="Layer2_0_1_STROKES" stroke="#F60" stroke-width="2.594" stroke-linejoin="round" stroke-linecap="round" fill="none" d="M-144.484,295.84 Q-120.546,292.925 -79.116,293.311 -37.7,293.691 -5.025,293.278 27.666,292.866 98.541,292.565 169.4,292.269 196.205,293.797 223.019,295.328 250.938,296.359 278.852,297.408 281.58,297.04 284.306,296.666 284.92,355.956 285.535,415.236 284.693,443.179 284.239,458.289 285.601,518.729 287.027,578.78 286.573,591.75 285.601,618.144 285.601,694.084 285.601,704.525 285.666,720.607 285.536,731.891 283.72,734.745 282.164,737.209 213.877,735.199 210.245,735.134 206.484,735.004 203.825,734.939 201.166,734.81 200.128,734.81 199.156,734.745 114.656,731.502 103.113,731.502 90.662,731.502 -3.565,730.4 -22.323,730.192 -40.011,730.075 -78.143,728.908 -116.21,732.799 -124.316,733.837 -132.357,734.907 -136.54,735.431 -140.107,735.685 -149.745,736.368 -153.336,734.55 -156.933,732.733 -152.234,649.791 -147.532,566.848 -148.246,557.639 -150.126,535.007 -148.116,420.157 -146.171,309.588 -144.484,295.84Z" test="DrawersCabinetFront"/>
      </g>
    </g>
  </g>
</svg>