<?xml version="1.0" encoding="utf-8"?>
<svg id="EdithAnim12" image-rendering="inherit" baseProfile="basic" version="1.1" x="0px" y="0px" width="800" height="600" xmlns="http://www.w3.org/2000/svg" xmlns:xlink="http://www.w3.org/1999/xlink">
  <g id="21_GarbageDrawerf113r1" overflow="visible">
    <g id="GarbageDrawerGroupf113r1">
      <g id="Tween-6">
        <path fill="#000" stroke="none" d="M346.157,332.829 Q342.47,330.877 340.59,330.877 331.553,330.877 326.492,341.794 322.298,350.615 321.72,364.135 321.647,364.424 321.575,364.713 321.069,366.304 319.406,367.895 L307.766,367.895 Q307.549,367.967 302.994,368.401 299.668,368.762 298.511,370.497 298.15,371.004 298.078,372.522 298.005,374.257 297.933,374.546 296.198,372.811 287.522,372.811 276.532,372.811 276.532,381.776 276.532,382.572 276.749,384.957 276.894,387.633 277.111,388.428 274.652,388.862 272.194,391.826 268.724,395.875 268.724,402.165 268.724,403.394 269.519,406.575 269.953,408.383 270.748,411.564 271.254,413.805 271.76,414.6 273.279,416.769 277.111,417.348 278.123,417.492 290.269,420.746 305.886,424.289 324.25,426.313 331.191,427.108 377.463,434.049 413.107,439.399 437.617,440.484 462.994,441.641 496.975,444.388 520.762,446.268 541.873,446.268 560.454,446.268 588.796,440.845 618.005,435.351 626.175,429.783 629.284,427.687 632.393,426.819 635.791,425.879 637.454,424.867 643.527,420.963 644.973,418.794 648.95,412.721 649.817,410.118 650.179,409.033 650.179,405.924 650.179,402.671 649.311,400.43 648.01,397.971 647.287,396.525 L647.287,395.947 Q646.419,395.079 646.419,393.923 646.419,393.85 652.348,389.223 658.276,383.873 658.276,380.619 658.276,374.691 656.686,370.787 654.517,365.581 649.022,361.821 645.841,359.652 640.129,358.423 634.634,357.411 633.405,356.905 634.056,355.676 637.165,352.133 640.057,348.301 640.057,344.325 640.057,338.252 635.719,332.612 630.079,325.382 620.391,325.382 613.956,325.382 609.112,327.117 609.691,326.467 610.124,325.744 610.847,324.37 610.847,321.912 610.847,316.056 604.196,311.211 595.52,304.849 579.18,304.849 L570.649,305.861 Q567.106,307.452 565.009,312.513 564.865,313.019 564.575,313.525 564.865,313.019 565.009,312.513 566.528,307.09 555.899,302.319 546.211,297.908 538.981,297.908 530.45,297.908 526.835,300.656 523.22,303.403 522.352,310.633 519.46,307.741 517.797,306.512 514.905,304.271 512.809,304.271 504.06,304.271 499.144,308.175 496.686,310.127 489.383,319.887 L489.383,319.598 Q488.516,313.597 487.937,311.284 487.07,307.38 485.262,305.427 480.997,300.8 464.368,300.8 461.042,300.8 457.644,302.68 454.246,304.488 451.498,307.741 450.775,307.018 449.257,304.343 447.449,301.162 447.449,301.089 442.895,294.293 439.93,291.907 436.677,289.232 432.411,289.232 409.637,289.232 396.623,297.474 385.416,304.632 387.585,312.368 384.693,308.753 382.886,306.946 379.704,303.692 376.451,303.692 365.823,303.692 356.93,314.465 348.109,325.093 349.989,335.215 349.411,334.492 346.157,332.829 M397.996,339.915 Q400.165,340.927 403.491,343.023 405.805,344.253 406.094,344.469 406.672,344.831 405.805,344.759 406.672,344.831 406.094,344.469 405.805,344.253 403.491,343.023 400.165,340.927 397.996,339.915 394.092,338.107 389.899,338.107 376.451,338.107 369.076,344.469 376.451,338.107 389.899,338.107 394.092,338.107 397.996,339.915 M449.546,333.118 Q455.402,330.588 461.909,330.588 467.693,330.588 472.031,339.842 472.031,340.421 471.525,340 470.947,341.65 470.296,341.867 470.947,341.65 471.525,340 472.031,340.421 472.031,339.842 467.693,330.588 461.909,330.588 455.402,330.588 449.546,333.118 443.473,335.793 440.509,340.131 443.473,335.793 449.546,333.118 M551.706,327.407 Q552.212,327.407 555.538,331.022 558.791,334.637 558.791,335.215 558.791,342.662 555.972,346.566 554.092,349.169 551.561,349.675 554.092,349.169 555.972,346.566 558.791,342.662 558.791,335.215 558.791,334.637 555.538,331.022 552.212,327.407 551.706,327.407 533.486,327.407 524.955,334.637 533.486,327.407 551.706,327.407 M615.041,344.108 Q618.077,346.422 618.077,355.314 618.077,364.063 610.631,369.774 604.702,374.329 600.436,373.968 604.702,374.329 610.631,369.774 618.077,364.063 618.077,355.314 618.077,346.422 615.041,344.108 612.149,341.867 601.015,342.156 612.149,341.867 615.041,344.108 M620.102,371.365 Q630.441,371.22 631.308,371.51 635.14,372.666 635.14,380.041 635.14,382.499 632.899,384.813 631.453,386.187 627.621,388.717 626.609,389.368 624.874,390.886 623.283,392.187 622.705,392.477 623.283,392.187 624.874,390.886 626.609,389.368 627.621,388.717 631.453,386.187 632.899,384.813 635.14,382.499 635.14,380.041 635.14,372.666 631.308,371.51 630.441,371.22 620.102,371.365Z" test="Tween 6" stroke-width="1.446"/>
        <path id="Layer6_0_1_STROKES" stroke="#FFF" stroke-width="1.446" stroke-linejoin="round" stroke-linecap="round" fill="none" d="M647.287,396.525 Q648.01,397.971 649.311,400.43 650.179,402.671 650.179,405.924 650.179,409.033 649.817,410.118 648.95,412.721 644.973,418.794 643.527,420.963 637.454,424.867 635.791,425.879 632.393,426.819 629.284,427.687 626.175,429.783 618.005,435.351 588.796,440.845 560.454,446.268 541.873,446.268 520.762,446.268 496.975,444.388 462.994,441.641 437.617,440.484 413.107,439.399 377.463,434.049 331.191,427.108 324.25,426.313 305.886,424.289 290.269,420.746 278.123,417.492 277.111,417.348 273.279,416.769 271.76,414.6 271.254,413.805 270.748,411.564 269.953,408.383 269.519,406.575 268.724,403.394 268.724,402.165 268.724,395.875 272.194,391.826 274.652,388.862 277.111,388.428 276.894,387.633 276.749,384.957 276.532,382.572 276.532,381.776 276.532,372.811 287.522,372.811 296.198,372.811 297.933,374.546 298.005,374.257 298.078,372.522 298.15,371.004 298.511,370.497 299.668,368.762 302.994,368.401 307.549,367.967 307.766,367.895 L319.406,367.895 Q321.069,366.304 321.575,364.713 321.647,364.424 321.72,364.135 322.298,350.615 326.492,341.794 331.553,330.877 340.59,330.877 342.47,330.877 346.157,332.829 349.411,334.492 349.989,335.215 348.109,325.093 356.93,314.465 365.823,303.692 376.451,303.692 379.704,303.692 382.886,306.946 384.693,308.753 387.585,312.368 385.416,304.632 396.623,297.474 409.637,289.232 432.411,289.232 436.677,289.232 439.93,291.907 442.895,294.293 447.449,301.089 447.449,301.162 449.257,304.343 450.775,307.018 451.498,307.741 454.246,304.488 457.644,302.68 461.042,300.8 464.368,300.8 480.997,300.8 485.262,305.427 487.07,307.38 487.937,311.284 488.516,313.597 489.383,319.598 L489.383,319.887 Q496.686,310.127 499.144,308.175 504.06,304.271 512.809,304.271 514.905,304.271 517.797,306.512 519.46,307.741 522.352,310.633 523.22,303.403 526.835,300.656 530.45,297.908 538.981,297.908 546.211,297.908 555.899,302.319 566.528,307.09 565.009,312.513 567.106,307.452 570.649,305.861 573.035,304.849 579.18,304.849 595.52,304.849 604.196,311.211 610.847,316.056 610.847,321.912 610.847,324.37 610.124,325.744 609.691,326.467 609.112,327.117 613.956,325.382 620.391,325.382 630.079,325.382 635.719,332.612 640.057,338.252 640.057,344.325 640.057,348.301 637.165,352.133 634.056,355.676 633.405,356.905 634.634,357.411 640.129,358.423 645.841,359.652 649.022,361.821 654.517,365.581 656.686,370.787 658.276,374.691 658.276,380.619 658.276,383.873 652.348,389.223 646.419,393.85 646.419,393.923 646.419,395.079 647.287,395.947 M369.076,344.469 Q376.451,338.107 389.899,338.107 394.092,338.107 397.996,339.915 400.165,340.927 403.491,343.023 405.805,344.253 406.094,344.469 406.672,344.831 405.805,344.759 M440.509,340.131 Q443.473,335.793 449.546,333.118 455.402,330.588 461.909,330.588 467.693,330.588 472.031,339.842 472.031,340.421 471.525,340 470.947,341.65 470.296,341.867 M565.009,312.513 Q564.865,313.019 564.575,313.525 M524.955,334.637 Q533.486,327.407 551.706,327.407 552.212,327.407 555.538,331.022 558.791,334.637 558.791,335.215 558.791,342.662 555.972,346.566 554.092,349.169 551.561,349.675 M601.015,342.156 Q612.149,341.867 615.041,344.108 618.077,346.422 618.077,355.314 618.077,364.063 610.631,369.774 604.702,374.329 600.436,373.968 M620.102,371.365 Q630.441,371.22 631.308,371.51 635.14,372.666 635.14,380.041 635.14,382.499 632.899,384.813 631.453,386.187 627.621,388.717 626.609,389.368 624.874,390.886 623.283,392.187 622.705,392.477" test="Tween 6"/>
      </g>
      <g id="Tween-5">
        <g id="Tin-can-Rubbish">
          <path fill="#000" stroke="none" d="M316.155,346.218 Q304.804,359.882 299.237,365.016 286.006,377.234 275.595,377.523 L275.884,379.548 Q275.884,380.922 275.668,382.223 275.378,383.524 275.378,383.958 275.378,384.97 276.824,385.549 278.053,385.983 279.789,385.983 283.259,385.983 291.357,382.006 L291.718,382.006 Q287.814,387.212 287.814,388.73 287.814,392.996 292.947,392.996 296.056,392.996 296.49,392.851 296.924,392.634 298.948,391.116 299.31,390.321 299.671,389.959 L299.671,390.465 Q299.237,390.754 298.948,391.116 298.442,391.911 297.791,393.213 296.201,396.611 296.201,399.069 296.201,402.901 301.768,404.781 306.756,406.443 305.166,411.794 310.371,412.011 311.818,413.963 312.179,414.469 312.541,415.409 L312.541,415.481 Q325.627,410.203 331.266,406.082 336.689,402.033 338.93,396.394 336.689,402.033 331.266,406.082 325.627,410.203 312.541,415.481 313.047,416.927 313.625,419.313 314.276,420.976 317.529,423.506 319.626,425.241 318.541,428.712 L323.53,428.712 Q343.702,420.397 365.175,395.02 385.997,370.51 391.058,350.7 L391.058,346.218 Q387.732,345.495 383.611,346.218 L380.647,346.218 Q382.093,342.892 378.044,341.229 372.477,339.783 369.802,338.843 368.284,338.265 367.272,336.168 366.332,333.493 365.753,332.191 363.584,327.347 357.8,328.866 L357.8,324.889 Q358.813,323.877 358.813,322.431 358.813,320.406 354.836,320.045 350.353,319.973 349.341,319.9 349.341,319.177 349.847,317.37 350.353,315.635 350.353,315.056 350.353,312.381 345.871,312.02 347.895,308.332 344.569,306.308 341.677,305.223 339.87,304.5 341.967,305.802 341.967,308.766 341.967,318.093 334.809,326.263 323.819,337.035 316.155,346.218 M346.738,345.567 Q344.425,349.471 342.979,349.76 344.425,349.471 346.738,345.567 348.184,343.036 352.812,334.866 348.184,343.036 346.738,345.567 M375.369,356.773 Q372.622,360.967 369.296,362.124 372.622,360.967 375.369,356.773 378.189,352.435 379.635,346.218 378.189,352.435 375.369,356.773 M327.001,369.57 Q325.121,372.607 321.94,378.319 319.77,382.295 319.048,383.018 319.77,382.295 321.94,378.319 325.121,372.607 327.001,369.57 M286.729,343.398 Q275.089,358.292 273.788,365.811 273.065,369.498 272.848,371.523 272.486,373.619 272.631,374.053 272.559,374.27 272.486,374.487 272.414,375.065 272.414,375.499 272.414,376.656 272.848,377.017 273.426,377.523 275.089,377.523 275.306,377.523 275.595,377.523 286.006,377.234 299.237,365.016 304.804,359.882 316.155,346.218 323.819,337.035 334.809,326.263 341.967,318.093 341.967,308.766 341.967,305.802 339.87,304.5 339.002,303.994 337.918,303.777 336.833,303.561 335.46,303.561 329.17,303.561 313.77,316.068 298.37,328.504 286.729,343.398Z" test="Tin can Rubbish" stroke-width="1.446"/>
          <path id="Layer9_0_1_STROKES" stroke="#009EFF" stroke-width="1.446" stroke-linejoin="round" stroke-linecap="round" fill="none" d="M272.848,371.523 Q272.486,373.619 272.631,374.053 M339.87,304.5 Q341.677,305.223 344.569,306.308 347.895,308.332 345.871,312.02 350.353,312.381 350.353,315.056 350.353,315.635 349.847,317.37 349.341,319.177 349.341,319.9 350.353,319.973 354.836,320.045 358.813,320.406 358.813,322.431 358.813,323.877 357.8,324.889 L357.8,328.866 Q363.584,327.347 365.753,332.191 366.332,333.493 367.272,336.168 368.284,338.265 369.802,338.843 372.477,339.783 378.044,341.229 382.093,342.892 380.647,346.218 L383.611,346.218 Q387.732,345.495 391.058,346.218 L391.058,350.7 Q385.997,370.51 365.175,395.02 343.702,420.397 323.53,428.712 L318.541,428.712 Q319.626,425.241 317.529,423.506 314.276,420.976 313.625,419.313 313.047,416.927 312.541,415.481 L312.541,415.409 Q312.179,414.469 311.818,413.963 310.371,412.011 305.166,411.794 306.756,406.443 301.768,404.781 296.201,402.901 296.201,399.069 296.201,396.611 297.791,393.213 298.442,391.911 298.948,391.116 296.924,392.634 296.49,392.851 296.056,392.996 292.947,392.996 287.814,392.996 287.814,388.73 287.814,387.212 291.718,382.006 L291.357,382.006 Q283.259,385.983 279.789,385.983 278.053,385.983 276.824,385.549 275.378,384.97 275.378,383.958 275.378,383.524 275.668,382.223 275.884,380.922 275.884,379.548 M352.812,334.866 Q348.184,343.036 346.738,345.567 344.425,349.471 342.979,349.76 M379.635,346.218 Q378.189,352.435 375.369,356.773 372.622,360.967 369.296,362.124 M327.001,369.57 Q325.121,372.607 321.94,378.319 319.77,382.295 319.048,383.018 M298.948,391.116 Q299.237,390.754 299.671,390.465 L299.671,389.959 Q299.31,390.321 298.948,391.116Z M312.541,415.481 Q325.627,410.203 331.266,406.082 336.689,402.033 338.93,396.394" test="Tin can Rubbish"/>
          <path id="Layer9_0_2_STROKES" stroke="#FFF" stroke-width="1.446" stroke-linejoin="round" stroke-linecap="round" fill="none" d="M339.87,304.5 Q339.002,303.994 337.918,303.777 336.833,303.561 335.46,303.561 329.17,303.561 313.77,316.068 298.37,328.504 286.729,343.398 275.089,358.292 273.788,365.811 273.065,369.498 272.848,371.523 M272.631,374.053 Q272.559,374.27 272.486,374.487 272.414,375.065 272.414,375.499 272.414,376.656 272.848,377.017 273.426,377.523 275.089,377.523 275.306,377.523 275.595,377.523 286.006,377.234 299.237,365.016 304.804,359.882 316.155,346.218 323.819,337.035 334.809,326.263 341.967,318.093 341.967,308.766 341.967,305.802 339.87,304.5" test="Tin can Rubbish"/>
        </g>
        <g id="Bottle">
          <path fill="#000" stroke="none" d="M596.4,420.76 Q594.159,420.471 586.206,418.808 579.265,417.29 575.361,417.362 568.131,417.434 557.503,411.289 547.019,405.288 537.259,395.672 530.318,388.804 524.172,378.465 519.256,369.138 518.75,368.415 516.364,365.089 514.484,361.619 511.231,355.835 511.447,353.015 495.035,375.934 476.454,396.974 456.427,419.531 441.606,445.559 427.941,469.563 451.222,486.192 475.442,503.471 502.988,513.449 518.244,519.088 530.462,506.58 551.285,485.252 567.841,459.802 580.855,439.703 596.038,421.194 L596.4,420.76 M553.309,321.709 Q553.165,321.637 553.02,321.637 538.271,321.059 527.57,332.626 518.75,342.17 511.447,353.015 511.231,355.835 514.484,361.619 516.364,365.089 518.75,368.415 519.256,369.138 524.172,378.465 530.318,388.804 537.259,395.672 547.019,405.288 557.503,411.289 568.131,417.434 575.361,417.362 579.265,417.29 586.206,418.808 594.159,420.471 596.4,420.76 612.451,405.216 619.897,384.393 620.187,383.67 620.476,382.947 619.753,382.875 619.464,382.947 617.367,383.02 616.572,383.092 615.487,383.164 613.752,383.598 612.089,384.032 609.559,384.032 603.341,384.032 587.724,373.476 572.758,363.426 564.371,354.244 557.43,346.58 555.478,337.254 554.466,327.566 553.309,321.709 M624.886,326.264 Q616.066,319.251 610.209,305.803 584.687,323.734 553.309,321.709 554.466,327.566 555.478,337.254 557.43,346.58 564.371,354.244 572.758,363.426 587.724,373.476 603.341,384.032 609.559,384.032 612.089,384.032 613.752,383.598 615.487,383.164 616.572,383.092 617.367,383.02 619.464,382.947 619.753,382.875 620.476,382.947 613.174,353.666 636.743,334.868 637.394,334.362 638.045,333.711 627.055,327 624.886,326.264 M610.065,304.14 L610.209,305.803 Q616.066,319.251 624.886,326.264 627.055,327 638.045,333.711 L642.238,334.434 Q645.419,333.133 649.396,325.324 653.155,317.877 653.155,314.045 653.155,309.418 642.744,298.139 637.756,292.717 633.996,289.897 629.875,286.716 627.344,286.716 623.223,286.716 616.644,294.814 614.113,297.923 610.065,304.14 M631.321,294.452 Q630.887,293.801 630.815,293.729 630.887,293.801 631.321,294.452 632.405,295.97 635.876,301.104 641.877,308.984 647.227,312.527 641.877,308.984 635.876,301.104 632.405,295.97 631.321,294.452Z" test="Bottle" stroke-width="1.446"/>
          <path id="Layer10_0_1_STROKES" stroke="#FFF" stroke-width="1.446" stroke-linejoin="round" stroke-linecap="round" fill="none" d="M610.209,305.803 Q616.066,319.251 624.886,326.264 627.055,327 638.045,333.711 M642.238,334.434 Q645.419,333.133 649.396,325.324 653.155,317.877 653.155,314.045 653.155,309.418 642.744,298.139 637.756,292.717 633.996,289.897 629.875,286.716 627.344,286.716 623.223,286.716 616.644,294.814 614.113,297.923 610.065,304.14 M647.227,312.527 Q641.877,308.984 635.876,301.104 632.405,295.97 631.321,294.452 630.887,293.801 630.815,293.729 M511.447,353.015 Q511.231,355.835 514.484,361.619 516.364,365.089 518.75,368.415 519.256,369.138 524.172,378.465 530.318,388.804 537.259,395.672 547.019,405.288 557.503,411.289 568.131,417.434 575.361,417.362 579.265,417.29 586.206,418.808 594.159,420.471 596.4,420.76 M620.476,382.947 Q619.753,382.875 619.464,382.947 617.367,383.02 616.572,383.092 615.487,383.164 613.752,383.598 612.089,384.032 609.559,384.032 603.341,384.032 587.724,373.476 572.758,363.426 564.371,354.244 557.43,346.58 555.478,337.254 554.466,327.566 553.309,321.709 553.165,320.914 553.02,320.191 M596.4,420.76 Q596.689,420.833 596.834,420.833 596.834,421.049 596.038,421.194" test="Bottle"/>
          <path id="Layer10_0_2_STROKES" stroke="#0F0" stroke-width="1.446" stroke-linejoin="round" stroke-linecap="round" fill="none" d="M553.309,321.709 Q553.165,321.637 553.02,321.637 538.271,321.059 527.57,332.626 518.75,342.17 511.447,353.015 M596.4,420.76 Q612.451,405.216 619.897,384.393 620.187,383.67 620.476,382.947 613.174,353.666 636.743,334.868 637.394,334.362 638.045,333.711 M610.209,305.803 Q584.687,323.734 553.309,321.709 M596.038,421.194 Q580.855,439.703 567.841,459.802 551.285,485.252 530.462,506.58 518.244,519.088 502.988,513.449 475.442,503.471 451.222,486.192 427.941,469.563 441.606,445.559 456.427,419.531 476.454,396.974 495.035,375.934 511.447,353.015 M596.038,421.194 L596.4,420.76" test="Bottle"/>
        </g>
        <g id="Banana">
          <path fill="#000" stroke="none" d="M441.818,264.149 L441.095,264.872 Q436.323,271.813 430.539,282.73 426.056,291.044 423.815,293.213 416.368,300.226 407.042,306.083 397.643,311.578 393.955,314.036 376.603,325.531 361.203,349.68 345.948,373.466 347.249,386.047 L347.249,392.264 Q347.394,392.481 348.189,392.481 350.937,392.481 353.323,388.216 354.624,385.83 356.648,381.058 357.444,379.612 360.842,374.985 362.577,372.599 362.794,372.165 370.892,369.924 383.544,361.465 398.076,351.849 404.366,342.811 410.729,333.701 425.044,322.567 438.854,311.794 439.577,310.638 L440.083,310.638 440.083,313.53 Q436.323,329.725 418.465,360.163 409.138,375.997 406.897,380.407 401.691,390.24 401.402,395.012 401.836,395.012 403.282,395.301 404.656,395.518 405.306,395.518 410.873,395.518 426.563,380.769 442.902,365.441 450.132,352.282 451.651,349.463 453.458,338.473 455.41,326.688 455.989,324.953 457.868,319.892 458.302,318.374 458.881,316.06 459.965,312.156 465.46,320.76 472.328,328.568 477.1,334.135 495.681,355.247 504.068,365.08 508.117,385.974 510.575,398.699 510.575,406.869 516.938,406.941 520.697,398.554 524.023,390.963 524.023,379.612 524.023,368.839 520.263,359.946 518.384,355.536 511.515,344.546 505.08,334.207 501.827,325.676 496.91,312.734 487.15,304.709 477.317,296.611 473.774,288.658 470.159,280.705 466.906,274.271 463.652,267.764 464.665,265.956 L463.508,264.655 Q461.483,266.462 458.23,267.619 454.543,268.848 451.072,268.848 449.409,268.848 445.577,266.896 442.469,265.306 441.818,264.149 M458.953,227.637 Q452.663,225.757 450.711,232.192 450.132,234.217 449.626,243.037 449.048,251.641 445.216,256.34 441.601,260.895 441.601,263.57 441.601,263.86 441.818,264.149 442.469,265.306 445.577,266.896 449.409,268.848 451.072,268.848 454.543,268.848 458.23,267.619 461.483,266.462 463.508,264.655 464.665,263.643 465.388,262.414 464.954,262.124 464.52,261.907 462.857,260.823 461.7,259.955 459.17,258.22 458.375,257.353 457.001,255.762 457.001,246.001 457.001,239.494 458.953,227.637Z" test="Banana" stroke-width="1.446"/>
          <path id="Layer11_0_1_STROKES" stroke="#FF0" stroke-width="1.446" stroke-linejoin="round" stroke-linecap="round" fill="none" d="M464.665,265.956 Q463.652,267.764 466.906,274.271 470.159,280.705 473.774,288.658 477.317,296.611 487.15,304.709 496.91,312.734 501.827,325.676 505.08,334.207 511.515,344.546 518.384,355.536 520.263,359.946 524.023,368.839 524.023,379.612 524.023,390.963 520.697,398.554 516.938,406.941 510.575,406.869 510.575,398.699 508.117,385.974 504.068,365.08 495.681,355.247 477.1,334.135 472.328,328.568 465.46,320.76 459.965,312.156 458.881,316.06 458.302,318.374 457.868,319.892 455.989,324.953 455.41,326.688 453.458,338.473 451.651,349.463 450.132,352.282 442.902,365.441 426.563,380.769 410.873,395.518 405.306,395.518 404.656,395.518 403.282,395.301 401.836,395.012 401.402,395.012 401.691,390.24 406.897,380.407 409.138,375.997 418.465,360.163 436.323,329.725 440.083,313.53 L440.083,310.638 439.577,310.638 Q438.854,311.794 425.044,322.567 410.729,333.701 404.366,342.811 398.076,351.849 383.544,361.465 370.892,369.924 362.794,372.165 362.577,372.599 360.842,374.985 357.444,379.612 356.648,381.058 354.624,385.83 353.323,388.216 350.937,392.481 348.189,392.481 347.394,392.481 347.249,392.264 L347.249,386.047 Q345.948,373.466 361.203,349.68 376.603,325.531 393.955,314.036 397.643,311.578 407.042,306.083 416.368,300.226 423.815,293.213 426.056,291.044 430.539,282.73 436.323,271.813 441.095,264.872" test="Banana"/>
          <path id="Layer11_0_2_STROKES" stroke="#FFF" stroke-width="1.446" stroke-linejoin="round" stroke-linecap="round" fill="none" d="M441.818,264.149 Q441.601,263.86 441.601,263.57 441.601,260.895 445.216,256.34 449.048,251.641 449.626,243.037 450.132,234.217 450.711,232.192 452.663,225.757 458.953,227.637 457.001,239.494 457.001,246.001 457.001,255.762 458.375,257.353 459.17,258.22 461.7,259.955 462.857,260.823 464.52,261.907 464.954,262.124 465.388,262.414 464.665,263.643 463.508,264.655 M441.818,264.149 Q442.469,265.306 445.577,266.896 449.409,268.848 451.072,268.848 454.543,268.848 458.23,267.619 461.483,266.462 463.508,264.655" test="Banana"/>
        </g>
      </g>
      <g id="Tween-4">
        <path id="Layer5_0_1_STROKES" stroke="#FFF" stroke-width="1.446" stroke-linejoin="round" stroke-linecap="round" fill="none" d="M571.792,403.263 Q571.792,397.623 580.251,393.213" test="Tween 4"/>
        <g id="Garbage">
          <path fill="#000" stroke="none" d="M475.85,369.341 L473.97,368.256 Q473.825,368.546 473.391,369.341 473.825,368.546 473.97,368.256 473.97,368.112 473.97,368.04 473.97,363.629 471.439,361.894 467.969,359.364 458.064,359.364 447.58,359.364 425.818,370.353 423.287,371.582 419.166,379.391 418.516,380.692 417.72,381.777 417.142,375.342 409.406,370.859 401.742,366.304 392.271,366.304 381.498,366.304 373.184,371.293 362.7,377.583 362.7,389.368 362.7,389.946 362.772,390.453 357.711,385.681 345.854,385.681 335.877,385.681 329.731,388.79 323.224,392.115 317.513,400.575 313.03,407.154 312.379,412.215 312.018,414.89 312.524,417.927 309.921,411.926 307.752,409.106 303.92,404.045 295.172,404.045 286.93,404.045 281.29,409.034 275.795,414.022 275.795,421.18 275.795,422.481 276.591,433.037 274.494,436.797 273.265,440.846 271.313,448.871 271.313,456.39 271.313,463.259 276.302,467.597 280.856,471.573 286.713,471.573 288.882,471.573 296.329,470.344 303.703,469.115 308.547,469.115 314.331,469.115 329.008,473.308 343.613,477.502 358.724,477.502 363.134,477.502 398.416,474.321 439.049,471.067 469.993,471.067 476.934,470.995 482.212,471.067 L500.07,472.007 500.793,471.645 Q501.588,471.356 502.239,471.284 506.505,471.067 510.264,468.97 513.084,468.103 514.891,467.307 526.17,462.391 528.556,462.174 L529.062,462.174 Q529.062,461.957 562.826,471.429 599.916,481.044 615.027,481.044 632.379,481.044 640.766,472.152 645.031,467.741 645.755,463.114 645.755,460.8 645.61,460.583 645.538,460.439 645.393,460.294 644.815,459.788 643.296,459.644 644.815,459.788 645.393,460.294 L645.755,459.644 Q648.068,458.198 655.443,455.523 661.661,452.269 661.661,446.268 661.661,442.508 657.178,441.279 L657.684,441.279 Q659.998,439.038 666.071,434.266 671.06,429.639 671.06,424.867 671.06,420.819 668.601,415.974 665.492,409.974 660.938,409.974 653.418,411.781 650.743,411.998 654.214,409.034 654.214,407.515 654.069,405.057 652.695,402.744 650.093,398.189 644.236,398.189 632.741,398.189 627.896,399.852 623.125,401.514 615.461,408.021 613.87,399.779 608.448,394.501 602.808,389.151 595.361,389.151 587.842,389.151 580.251,393.2 L571.792,403.25 Q571.792,404.551 572.732,412.504 572.081,412.143 570.49,411.781 568.972,411.492 568.032,411.492 564.562,411.492 560.44,415.468 558.922,416.987 556.898,420.457 555.018,423.783 554.367,425.88 554.223,426.53 554.078,427.253 553.427,429.856 551.258,431.591 550.608,432.097 549.812,432.387 549.523,432.17 549.306,431.953 545.257,427.976 544.173,422.481 543.595,420.746 542.438,418.866 540.341,415.324 537.015,411.998 544.968,412.866 551.765,410.335 559.356,407.515 560.296,401.587 560.44,400.719 560.44,399.779 560.44,396.02 559.79,393.995 558.416,389.585 553.861,385.681 549.089,381.56 543.956,380.547 542.293,380.186 537.521,380.186 537.594,380.041 541.57,373.028 541.932,372.378 542.221,371.727 L542.872,370.859 Q543.233,370.353 543.305,369.992 543.884,367.027 543.016,364.135 542.51,362.762 540.486,358.496 538.172,353.724 535.352,351.7 528.701,346.928 512.361,346.928 495.226,346.928 480.477,363.557 478.163,366.16 475.85,369.341 M514.53,403.033 Q514.241,403.756 513.662,404.912 514.241,403.756 514.53,403.033 515.108,401.731 515.108,400.719 515.108,394.791 509.903,394.791 507.3,394.791 504.697,395.513 499.492,397.032 499.202,400.864 499.492,397.032 504.697,395.513 507.3,394.791 509.903,394.791 515.108,394.791 515.108,400.719 515.108,401.731 514.53,403.033 M621.245,430.651 Q625.004,433.109 625.004,437.014 625.004,433.109 621.245,430.651 618.136,428.627 614.738,428.627 609.966,428.627 607.291,430.29 604.471,431.953 604.471,434.989 604.471,431.953 607.291,430.29 609.966,428.627 614.738,428.627 618.136,428.627 621.245,430.651 M397.693,408.021 Q401.887,410.263 402.899,413.01 401.887,410.263 397.693,408.021 393.789,405.997 390.752,405.997 386.848,405.997 384.029,408.528 380.124,412.143 380.124,419.951 380.124,421.108 380.341,421.758 380.775,422.915 382.076,424.867 380.775,422.915 380.341,421.758 380.124,421.108 380.124,419.951 380.124,412.143 384.029,408.528 386.848,405.997 390.752,405.997 393.789,405.997 397.693,408.021 M456.545,401.587 Q457.558,403.322 457.558,407.804 457.558,415.902 451.195,421.469 444.327,427.398 433.699,426.892 444.327,427.398 451.195,421.469 457.558,415.902 457.558,407.804 457.558,403.322 456.545,401.587 455.389,399.562 452.135,399.562 451.484,399.562 450.545,399.852 449.171,400.285 447.653,400.575 449.171,400.285 450.545,399.852 451.484,399.562 452.135,399.562 455.389,399.562 456.545,401.587Z" test="Garbage" stroke-width="1.446"/>
          <path id="Layer7_0_1_STROKES" stroke="#FFF" stroke-width="1.446" stroke-linejoin="round" stroke-linecap="round" fill="none" d="M473.97,368.256 Q473.825,368.546 473.391,369.341 M645.393,460.294 Q645.538,460.439 645.61,460.583 645.755,460.8 645.755,463.114 645.031,467.741 640.766,472.152 632.379,481.044 615.027,481.044 599.916,481.044 562.826,471.429 529.062,461.957 529.062,462.174 L528.556,462.174 Q526.17,462.391 514.891,467.307 513.084,468.103 510.264,468.97 506.505,471.067 502.239,471.284 501.588,471.356 500.793,471.645 L500.07,472.007 482.212,471.067 Q476.934,470.995 469.993,471.067 439.049,471.067 398.416,474.321 363.134,477.502 358.724,477.502 343.613,477.502 329.008,473.308 314.331,469.115 308.547,469.115 303.703,469.115 296.329,470.344 288.882,471.573 286.713,471.573 280.856,471.573 276.302,467.597 271.313,463.259 271.313,456.39 271.313,448.871 273.265,440.846 274.494,436.797 276.591,433.037 275.795,422.481 275.795,421.18 275.795,414.022 281.29,409.034 286.93,404.045 295.172,404.045 303.92,404.045 307.752,409.106 309.921,411.926 312.524,417.927 312.018,414.89 312.379,412.215 313.03,407.154 317.513,400.575 323.224,392.115 329.731,388.79 335.877,385.681 345.854,385.681 357.711,385.681 362.772,390.453 362.7,389.946 362.7,389.368 362.7,377.583 373.184,371.293 381.498,366.304 392.271,366.304 401.742,366.304 409.406,370.859 417.142,375.342 417.72,381.777 418.516,380.692 419.166,379.391 423.287,371.582 425.818,370.353 447.58,359.364 458.064,359.364 467.969,359.364 471.439,361.894 473.97,363.629 473.97,368.04 473.97,368.112 473.97,368.256 M475.85,369.341 Q478.163,366.16 480.477,363.557 495.226,346.928 512.361,346.928 528.701,346.928 535.352,351.7 538.172,353.724 540.486,358.496 542.51,362.762 543.016,364.135 543.884,367.027 543.305,369.992 543.233,370.353 542.872,370.859 L542.221,371.727 Q541.932,372.378 541.57,373.028 537.594,380.041 537.521,380.186 542.293,380.186 543.956,380.547 549.089,381.56 553.861,385.681 558.416,389.585 559.79,393.995 560.44,396.02 560.44,399.779 560.44,400.719 560.296,401.587 559.356,407.515 551.765,410.335 544.968,412.866 537.015,411.998 540.341,415.324 542.438,418.866 543.595,420.746 544.173,422.481 545.257,427.976 549.306,431.953 549.523,432.17 549.812,432.387 550.608,432.097 551.258,431.591 553.427,429.856 554.078,427.253 554.223,426.53 554.367,425.88 555.018,423.783 556.898,420.457 558.922,416.987 560.44,415.468 564.562,411.492 568.032,411.492 568.972,411.492 570.49,411.781 572.081,412.143 572.732,412.504 571.792,404.551 571.792,403.25 M580.251,393.2 Q587.842,389.151 595.361,389.151 602.808,389.151 608.448,394.501 613.87,399.779 615.461,408.021 623.125,401.514 627.896,399.852 632.741,398.189 644.236,398.189 650.093,398.189 652.695,402.744 654.069,405.057 654.214,407.515 654.214,409.034 650.743,411.998 653.418,411.781 660.938,409.974 665.492,409.974 668.601,415.974 671.06,420.819 671.06,424.867 671.06,429.639 666.071,434.266 659.998,439.038 657.684,441.279 L657.178,441.279 Q661.661,442.508 661.661,446.268 661.661,452.269 655.443,455.523 648.068,458.198 645.755,459.644 M643.296,459.644 Q644.815,459.788 645.393,460.294 M499.202,400.864 Q499.492,397.032 504.697,395.513 507.3,394.791 509.903,394.791 515.108,394.791 515.108,400.719 515.108,401.731 514.53,403.033 514.241,403.756 513.662,404.912 M604.471,434.989 Q604.471,431.953 607.291,430.29 609.966,428.627 614.738,428.627 618.136,428.627 621.245,430.651 625.004,433.109 625.004,437.014 M382.076,424.867 Q380.775,422.915 380.341,421.758 380.124,421.108 380.124,419.951 380.124,412.143 384.029,408.528 386.848,405.997 390.752,405.997 393.789,405.997 397.693,408.021 401.887,410.263 402.899,413.01 M447.653,400.575 Q449.171,400.285 450.545,399.852 451.484,399.562 452.135,399.562 455.389,399.562 456.545,401.587 457.558,403.322 457.558,407.804 457.558,415.902 451.195,421.469 444.327,427.398 433.699,426.892" test="Garbage"/>
        </g>
        <g id="GarbageCloud">
          <path id="Layer8_0_1_STROKES" stroke="#FFF" stroke-width="1.446" stroke-linejoin="round" stroke-linecap="round" fill="none" d="M511.165,299.766 Q513.334,298.609 513.768,297.958 514.635,296.729 514.635,293.331 514.635,289.065 510.948,282.703 507.261,276.34 507.261,270.629 507.261,266.001 512.683,257.036 518.106,248.071 518.106,244.094 518.106,241.781 516.081,239.106 515.792,238.744 513.117,235.708 M596.768,276.919 Q597.636,275.039 601.106,271.93 605.733,267.664 609.493,267.447 610.505,269.472 610.505,271.424 610.505,271.93 605.517,276.919 L596.768,276.919 Q596.624,277.208 596.407,277.859 596.913,278.076 597.419,278.437 599.516,279.811 599.516,281.329 599.516,282.92 599.082,283.353 598.576,283.859 596.841,283.859 595.25,283.859 594.093,282.92 593.081,281.98 593.081,280.823 593.081,279.955 593.442,279.377 590.117,279.377 588.092,278.871 583.176,277.786 583.176,274.388 583.176,271.858 584.116,269.978 585.417,267.447 587.875,267.447 591.346,267.447 593.515,270.556 594.961,272.725 596.045,276.919 L596.768,276.919Z M593.442,279.377 L593.515,279.377 Q594.527,279.377 594.816,279.305 595.178,279.232 595.539,278.871 L595.539,277.859 Q594.599,278.22 594.093,278.582 593.659,278.871 593.442,279.377Z M596.407,277.859 Q594.888,277.136 593.587,277.425 M345.092,264.555 Q345.309,263.832 345.598,263.109 341.332,263.254 337.211,266.146 333.596,268.532 332.367,270.918 L332.367,275.907 336.85,275.907 Q343.646,270.773 344.586,266.435 344.803,265.495 345.092,264.555 344.73,264.555 344.297,264.555 M350.225,265.568 Q348.996,264.483 348.201,263.905 346.249,263.977 345.815,264.049 M348.201,263.905 Q347.55,263.399 347.189,263.182 346.972,263.037 346.321,263.037 345.96,263.037 345.598,263.109 347.478,258.338 351.744,253.06 L356.226,253.06 Q356.226,253.566 356.515,254.867 356.732,256.169 356.732,256.819 356.732,262.386 351.816,263.688 349.647,263.832 348.201,263.905Z M384.495,284.872 Q386.448,280.751 387.821,277.642 390.496,271.641 390.496,269.4 390.496,267.52 386.52,263.543 382.543,259.494 382.543,258.265 382.543,254.723 384.279,249.3 386.014,243.805 386.014,241.419 386.014,236.214 385.725,234.695 385.074,230.864 382.543,229.707 M345.309,265.568 L345.092,266.508 Q344.803,267.664 344.803,268.46 344.803,269.761 346.249,270.412 347.333,270.918 348.345,270.918 349.068,270.918 349.936,270.629 351.599,270.05 351.744,269.978 351.454,266.869 349.43,265.568 347.912,264.7 345.092,264.555" test="GarbageCloud"/>
        </g>
      </g>
      <path fill="#000" stroke="none" d="M200.212,394.883 L200.212,689.867 756.632,689.867 756.632,394.883 200.212,394.883Z" test="GarbageDrawerGroup" stroke-width="1.446"/>
      <g id="Drawer">
        <path fill="#000" stroke="none" d="M711.126,458.613 Q710.692,459.047 710.331,459.481 L710.331,483.99 Q710.692,484.352 711.126,484.786 716.404,490.064 723.779,490.208 L724.213,490.208 Q731.876,490.208 737.299,484.786 742.721,479.363 742.721,471.699 742.721,464.036 737.299,458.613 731.876,453.191 724.213,453.191 L723.779,453.191 Q716.404,453.335 711.126,458.613 M221.583,380.891 Q216.956,402.147 217.823,425.5 220.571,491.22 219.558,532.793 218.691,573.209 221.583,584.487 311.235,583.258 399.73,587.018 434.723,586.006 458.004,587.235 481.646,588.464 498.058,588.464 504.348,588.464 510.783,588.392 519.82,589.476 528.786,589.331 545.27,588.03 561.61,585.644 578.528,583.547 595.663,585.5 612.075,587.379 628.343,586.946 645.406,586.439 662.324,585.427 682.134,585.066 710.331,584.487 L710.331,490.208 710.331,483.99 710.331,459.481 Q710.259,456.299 710.259,453.191 709.319,404.171 710.331,355.441 L679.097,355.441 679.097,380.891 603.327,378.071 Q402.694,384.65 221.583,380.891Z" test="Drawer" stroke-width="1.446"/>
        <path id="Layer4_0_1_STROKES" stroke="#F60" stroke-width="2.892" stroke-linejoin="round" stroke-linecap="round" fill="none" d="M710.331,483.99 L710.331,490.208 710.331,584.487 Q682.134,585.066 662.324,585.427 645.406,586.439 628.343,586.946 612.075,587.379 595.663,585.5 578.528,583.547 561.61,585.644 545.27,588.03 528.786,589.331 519.82,589.476 510.783,588.392 504.348,588.464 498.058,588.464 481.646,588.464 458.004,587.235 434.723,586.006 399.73,587.018 311.235,583.258 221.583,584.487 218.691,573.209 219.558,532.793 220.571,491.22 217.823,425.5 216.956,402.147 221.583,380.891 402.694,384.65 603.327,378.071 L679.097,380.891 679.097,355.441 710.331,355.441 Q709.319,404.171 710.259,453.191 710.259,456.299 710.331,459.481 710.692,459.047 711.126,458.613 716.404,453.335 723.779,453.191 L724.213,453.191 Q731.876,453.191 737.299,458.613 742.721,464.036 742.721,471.699 742.721,479.363 737.299,484.786 731.876,490.208 724.213,490.208 L723.779,490.208 Q716.404,490.064 711.126,484.786 710.692,484.352 710.331,483.99 L710.331,459.481" test="Drawer"/>
      </g>
      <g id="DrawersCabinetFront">
        <path fill="#000" stroke="none" d="M258.437,728.292 Q258.798,728.654 259.232,729.087 264.51,734.365 271.885,734.51 L272.319,734.51 Q279.982,734.51 285.405,729.087 290.827,723.665 290.827,716.001 290.827,708.337 285.405,702.915 279.982,697.492 272.319,697.492 L271.885,697.492 Q264.51,697.637 259.232,702.915 258.798,703.349 258.437,703.782 L258.437,728.292 M258.437,599.743 L227.203,599.743 227.203,625.192 151.433,622.373 Q-49.2,628.952 -230.311,625.192 -234.938,646.449 -234.071,669.801 -231.323,735.522 -232.335,777.095 -233.203,817.51 -230.311,828.789 -140.659,827.56 -52.164,831.32 -17.171,830.307 6.11,831.537 29.752,832.766 46.164,832.766 52.454,832.766 58.889,832.693 67.926,833.778 76.892,833.633 93.376,832.332 109.716,829.946 126.634,827.849 143.769,829.801 160.181,831.681 176.449,831.247 193.511,830.741 210.43,829.729 230.24,829.368 258.437,828.789 L258.437,734.51 258.437,728.292 258.437,703.782 Q258.365,700.601 258.365,697.492 257.425,648.473 258.437,599.743Z" test="DrawersCabinetFront" stroke-width="1.446"/>
        <path id="Layer3_0_1_STROKES" stroke="#F60" stroke-width="2.892" stroke-linejoin="round" stroke-linecap="round" fill="none" d="M258.437,728.292 L258.437,734.51 258.437,828.789 Q230.24,829.368 210.43,829.729 193.511,830.741 176.449,831.247 160.181,831.681 143.769,829.801 126.634,827.849 109.716,829.946 93.376,832.332 76.892,833.633 67.926,833.778 58.889,832.693 52.454,832.766 46.164,832.766 29.752,832.766 6.11,831.537 -17.171,830.307 -52.164,831.32 -140.659,827.56 -230.311,828.789 -233.203,817.51 -232.335,777.095 -231.323,735.522 -234.071,669.801 -234.938,646.449 -230.311,625.192 -49.2,628.952 151.433,622.373 L227.203,625.192 227.203,599.743 258.437,599.743 Q257.425,648.473 258.365,697.492 258.365,700.601 258.437,703.782 258.798,703.349 259.232,702.915 264.51,697.637 271.885,697.492 L272.319,697.492 Q279.982,697.492 285.405,702.915 290.827,708.337 290.827,716.001 290.827,723.665 285.405,729.087 279.982,734.51 272.319,734.51 L271.885,734.51 Q264.51,734.365 259.232,729.087 258.798,728.654 258.437,728.292 L258.437,703.782" test="DrawersCabinetFront"/>
        <path fill="#000" stroke="none" d="M190.258,343.801 Q159.168,342.651 129.237,340.909 99.388,339.241 20.353,339.535 -58.628,339.907 -95.11,340.33 -131.503,340.826 -177.677,340.403 -223.866,339.973 -250.555,343.222 -252.435,358.55 -254.604,481.821 -256.845,609.865 -254.748,635.097 -253.953,645.364 -259.231,737.836 -264.434,830.306 -260.46,832.332 -256.42,834.359 -245.711,833.561 -241.698,833.314 -237.035,832.693 -228.07,831.537 -219.032,830.38 -176.592,826.042 -134.08,827.343 -114.359,827.473 -93.447,827.705 11.605,828.934 25.486,828.934 38.356,828.934 132.563,832.549 133.647,832.621 134.804,832.621 137.768,832.766 140.733,832.838 144.926,832.983 148.975,833.055 225.107,835.296 226.842,832.549 228.866,829.368 229.011,816.787 228.939,798.857 228.939,787.217 228.939,702.553 230.023,673.127 230.529,658.667 228.939,591.717 227.42,524.334 227.926,507.488 228.865,476.335 228.143,410.244 227.495,344.143 224.456,344.524 221.415,344.971 190.258,343.801Z" test="DrawersCabinetFront" stroke-width="1.446"/>
        <path id="Layer2_0_1_STROKES" stroke="#F60" stroke-width="2.892" stroke-linejoin="round" stroke-linecap="round" fill="none" d="M-250.555,343.222 Q-223.866,339.973 -177.677,340.403 -131.503,340.826 -95.074,340.366 -58.628,339.907 20.389,339.571 99.388,339.241 129.273,340.945 159.168,342.651 190.294,343.801 221.415,344.971 224.456,344.56 227.495,344.143 228.179,410.244 228.865,476.335 227.926,507.488 227.42,524.334 228.939,591.717 230.529,658.667 230.023,673.127 228.939,702.553 228.939,787.217 228.939,798.857 229.011,816.787 228.866,829.368 226.842,832.549 225.107,835.296 148.975,833.055 144.926,832.983 140.733,832.838 137.768,832.766 134.804,832.621 133.647,832.621 132.563,832.549 38.356,828.934 25.486,828.934 11.605,828.934 -93.447,827.705 -114.359,827.473 -134.08,827.343 -176.592,826.042 -219.032,830.38 -228.07,831.537 -237.035,832.729 -241.698,833.314 -245.675,833.597 -256.42,834.359 -260.424,832.332 -264.434,830.306 -259.195,737.836 -253.953,645.364 -254.748,635.097 -256.845,609.865 -254.604,481.821 -252.435,358.55 -250.555,343.222Z" test="DrawersCabinetFront"/>
      </g>
    </g>
  </g>
</svg>