<?xml version="1.0" encoding="utf-8"?>
<svg id="EdithAnim12" image-rendering="inherit" baseProfile="basic" version="1.1" x="0px" y="0px" width="800" height="600" xmlns="http://www.w3.org/2000/svg" xmlns:xlink="http://www.w3.org/1999/xlink">
  <g id="21_GarbageDrawerf115r1" overflow="visible">
    <g id="GarbageDrawerGroupf115r1">
      <g id="Tween-6">
        <path fill="#000" stroke="none" d="M328.338,336.83 Q324.498,334.797 322.54,334.797 313.128,334.797 307.857,346.167 303.489,355.354 302.887,369.435 302.811,369.736 302.736,370.037 302.209,371.694 300.477,373.351 L288.354,373.351 Q288.128,373.426 283.384,373.878 279.92,374.254 278.715,376.061 278.339,376.589 278.264,378.17 278.188,379.977 278.113,380.278 276.306,378.471 267.27,378.471 255.824,378.471 255.824,387.808 255.824,388.637 256.05,391.121 256.201,393.907 256.427,394.736 253.866,395.188 251.306,398.275 247.692,402.492 247.692,409.043 247.692,410.323 248.52,413.636 248.972,415.519 249.8,418.832 250.327,421.166 250.854,421.994 252.436,424.253 256.427,424.856 257.481,425.006 270.131,428.395 286.396,432.085 305.522,434.193 312.751,435.021 360.943,442.25 398.066,447.822 423.593,448.952 450.023,450.157 485.414,453.018 510.188,454.976 532.175,454.976 551.527,454.976 581.045,449.328 611.466,443.606 619.975,437.807 623.213,435.624 626.451,434.72 629.99,433.741 631.722,432.687 638.047,428.621 639.553,426.362 643.695,420.037 644.598,417.326 644.975,416.196 644.975,412.958 644.975,409.57 644.071,407.236 642.716,404.675 641.963,403.169 L641.963,402.567 Q641.059,401.663 641.059,400.459 641.059,400.383 647.234,395.564 653.408,389.992 653.408,386.603 653.408,380.429 651.752,376.363 649.493,370.941 643.77,367.025 640.457,364.766 634.508,363.486 628.785,362.432 627.505,361.905 628.183,360.625 631.421,356.935 634.433,352.944 634.433,348.803 634.433,342.478 629.915,336.604 624.041,329.074 613.951,329.074 607.249,329.074 602.204,330.881 602.807,330.204 603.258,329.451 604.011,328.02 604.011,325.46 604.011,319.361 597.084,314.315 588.048,307.689 571.03,307.689 L562.145,308.743 Q558.455,310.4 556.271,315.671 556.121,316.198 555.819,316.725 556.121,316.198 556.271,315.671 557.853,310.023 546.783,305.054 536.693,300.46 529.163,300.46 520.278,300.46 516.513,303.322 512.748,306.183 511.844,313.713 508.832,310.701 507.1,309.421 504.088,307.087 501.905,307.087 492.793,307.087 487.673,311.153 485.113,313.186 477.507,323.351 L477.507,323.05 Q476.604,316.8 476.001,314.391 475.098,310.325 473.215,308.291 468.773,303.472 451.454,303.472 447.99,303.472 444.451,305.43 440.912,307.313 438.05,310.701 437.297,309.948 435.716,307.162 433.833,303.849 433.833,303.773 429.09,296.695 426.002,294.21 422.614,291.424 418.171,291.424 394.452,291.424 380.898,300.008 369.226,307.463 371.485,315.52 368.473,311.755 366.591,309.873 363.277,306.484 359.889,306.484 348.82,306.484 339.558,317.704 330.371,328.773 332.329,339.315 331.727,338.562 328.338,336.83 M382.328,344.21 Q384.587,345.264 388.051,347.447 390.461,348.727 390.762,348.953 391.364,349.33 390.461,349.255 391.364,349.33 390.762,348.953 390.461,348.727 388.051,347.447 384.587,345.264 382.328,344.21 378.262,342.327 373.895,342.327 359.889,342.327 352.208,348.953 359.889,342.327 373.895,342.327 378.262,342.327 382.328,344.21 M436.017,337.131 Q442.116,334.496 448.893,334.496 454.917,334.496 459.435,344.134 459.435,344.737 458.908,345.339 458.306,346.017 457.628,346.243 458.306,346.017 458.908,345.339 459.435,344.737 459.435,344.134 454.917,334.496 448.893,334.496 442.116,334.496 436.017,337.131 429.692,339.917 426.605,344.435 429.692,339.917 436.017,337.131 M542.416,331.183 Q542.943,331.183 546.407,334.948 549.795,338.713 549.795,339.315 549.795,347.071 546.859,351.137 544.901,353.848 542.265,354.375 544.901,353.848 546.859,351.137 549.795,347.071 549.795,339.315 549.795,338.713 546.407,334.948 542.943,331.183 542.416,331.183 523.44,331.183 514.555,338.713 523.44,331.183 542.416,331.183 M608.379,348.577 Q611.541,350.987 611.541,360.248 611.541,369.36 603.786,375.308 597.611,380.052 593.168,379.676 597.611,380.052 603.786,375.308 611.541,369.36 611.541,360.248 611.541,350.987 608.379,348.577 605.367,346.243 593.771,346.544 605.367,346.243 608.379,348.577 M613.65,376.965 Q624.418,376.814 625.321,377.116 629.312,378.32 629.312,386.001 629.312,388.561 626.978,390.971 625.472,392.402 621.481,395.037 620.427,395.715 618.62,397.296 616.963,398.651 616.361,398.953 616.963,398.651 618.62,397.296 620.427,395.715 621.481,395.037 625.472,392.402 626.978,390.971 629.312,388.561 629.312,386.001 629.312,378.32 625.321,377.116 624.418,376.814 613.65,376.965Z" test="Tween 6" stroke-width="1.506"/>
        <path id="Layer6_0_1_STROKES" stroke="#FFF" stroke-width="1.506" stroke-linejoin="round" stroke-linecap="round" fill="none" d="M641.963,403.169 Q642.716,404.675 644.071,407.236 644.975,409.57 644.975,412.958 644.975,416.196 644.598,417.326 643.695,420.037 639.553,426.362 638.047,428.621 631.722,432.687 629.99,433.741 626.451,434.72 623.213,435.624 619.975,437.807 611.466,443.606 581.045,449.328 551.527,454.976 532.175,454.976 510.188,454.976 485.414,453.018 450.023,450.157 423.593,448.952 398.066,447.822 360.943,442.25 312.751,435.021 305.522,434.193 286.396,432.085 270.131,428.395 257.481,425.006 256.427,424.856 252.436,424.253 250.854,421.994 250.327,421.166 249.8,418.832 248.972,415.519 248.52,413.636 247.692,410.323 247.692,409.043 247.692,402.492 251.306,398.275 253.866,395.188 256.427,394.736 256.201,393.907 256.05,391.121 255.824,388.637 255.824,387.808 255.824,378.471 267.27,378.471 276.306,378.471 278.113,380.278 278.188,379.977 278.264,378.17 278.339,376.589 278.715,376.061 279.92,374.254 283.384,373.878 288.128,373.426 288.354,373.351 L300.477,373.351 Q302.209,371.694 302.736,370.037 302.811,369.736 302.887,369.435 303.489,355.354 307.857,346.167 313.128,334.797 322.54,334.797 324.498,334.797 328.338,336.83 331.727,338.562 332.329,339.315 330.371,328.773 339.558,317.704 348.82,306.484 359.889,306.484 363.277,306.484 366.591,309.873 368.473,311.755 371.485,315.52 369.226,307.463 380.898,300.008 394.452,291.424 418.171,291.424 422.614,291.424 426.002,294.21 429.09,296.695 433.833,303.773 433.833,303.849 435.716,307.162 437.297,309.948 438.05,310.701 440.912,307.313 444.451,305.43 447.99,303.472 451.454,303.472 468.773,303.472 473.215,308.291 475.098,310.325 476.001,314.391 476.604,316.8 477.507,323.05 L477.507,323.351 Q485.113,313.186 487.673,311.153 492.793,307.087 501.905,307.087 504.088,307.087 507.1,309.421 508.832,310.701 511.844,313.713 512.748,306.183 516.513,303.322 520.278,300.46 529.163,300.46 536.693,300.46 546.783,305.054 557.853,310.023 556.271,315.671 558.455,310.4 562.145,308.743 564.63,307.689 571.03,307.689 588.048,307.689 597.084,314.315 604.011,319.361 604.011,325.46 604.011,328.02 603.258,329.451 602.807,330.204 602.204,330.881 607.249,329.074 613.951,329.074 624.041,329.074 629.915,336.604 634.433,342.478 634.433,348.803 634.433,352.944 631.421,356.935 628.183,360.625 627.505,361.905 628.785,362.432 634.508,363.486 640.457,364.766 643.77,367.025 649.493,370.941 651.752,376.363 653.408,380.429 653.408,386.603 653.408,389.992 647.234,395.564 641.059,400.383 641.059,400.459 641.059,401.663 641.963,402.567 M352.208,348.953 Q359.889,342.327 373.895,342.327 378.262,342.327 382.328,344.21 384.587,345.264 388.051,347.447 390.461,348.727 390.762,348.953 391.364,349.33 390.461,349.255 M426.605,344.435 Q429.692,339.917 436.017,337.131 442.116,334.496 448.893,334.496 454.917,334.496 459.435,344.134 459.435,344.737 458.908,345.339 458.306,346.017 457.628,346.243 M556.271,315.671 Q556.121,316.198 555.819,316.725 M514.555,338.713 Q523.44,331.183 542.416,331.183 542.943,331.183 546.407,334.948 549.795,338.713 549.795,339.315 549.795,347.071 546.859,351.137 544.901,353.848 542.265,354.375 M593.771,346.544 Q605.367,346.243 608.379,348.577 611.541,350.987 611.541,360.248 611.541,369.36 603.786,375.308 597.611,380.052 593.168,379.676 M613.65,376.965 Q624.418,376.814 625.321,377.116 629.312,378.32 629.312,386.001 629.312,388.561 626.978,390.971 625.472,392.402 621.481,395.037 620.427,395.715 618.62,397.296 616.963,398.651 616.361,398.953" test="Tween 6"/>
      </g>
      <g id="Tween-5">
        <g id="Tin-can-Rubbish">
          <path fill="#000" stroke="none" d="M297.061,341.943 Q285.238,356.174 279.44,361.52 265.66,374.246 254.817,374.547 L255.118,376.656 Q255.118,378.087 254.892,379.442 254.591,380.797 254.591,381.249 254.591,382.303 256.097,382.906 257.377,383.357 259.185,383.357 262.799,383.357 271.233,379.216 L271.609,379.216 Q267.543,384.638 267.543,386.219 267.543,390.662 272.889,390.662 276.127,390.662 276.579,390.511 277.031,390.285 279.139,388.704 279.516,387.876 279.892,387.499 L279.892,388.026 Q279.44,388.327 279.139,388.704 278.612,389.532 277.934,390.888 276.278,394.427 276.278,396.987 276.278,400.978 282.076,402.936 287.272,404.667 285.615,410.24 291.037,410.465 292.543,412.499 292.919,413.026 293.296,414.005 L293.296,414.08 Q306.925,408.583 312.798,404.291 318.446,400.074 320.78,394.201 318.446,400.074 312.798,404.291 306.925,408.583 293.296,414.08 293.823,415.586 294.425,418.071 295.103,419.803 298.491,422.438 300.675,424.245 299.545,427.86 L304.741,427.86 Q325.75,419.2 348.114,392.77 369.8,367.243 375.071,346.611 L375.071,341.943 Q371.608,341.189 367.315,341.943 L364.228,341.943 Q365.734,338.479 361.517,336.747 355.719,335.241 352.933,334.262 351.352,333.66 350.298,331.476 349.319,328.69 348.716,327.334 346.457,322.289 340.433,323.871 L340.433,319.729 Q341.488,318.675 341.488,317.169 341.488,315.06 337.346,314.684 332.677,314.609 331.623,314.533 331.623,313.78 332.15,311.898 332.677,310.091 332.677,309.488 332.677,306.702 328.009,306.326 330.117,302.485 326.653,300.377 323.641,299.247 321.759,298.494 323.943,299.85 323.943,302.937 323.943,312.651 316.488,321.16 305.042,332.379 297.061,341.943 M328.912,341.265 Q326.503,345.331 324.997,345.632 326.503,345.331 328.912,341.265 330.418,338.629 335.238,330.12 330.418,338.629 328.912,341.265 M358.731,352.936 Q355.87,357.304 352.406,358.508 355.87,357.304 358.731,352.936 361.668,348.418 363.174,341.943 361.668,348.418 358.731,352.936 M308.356,366.264 Q306.398,369.427 303.085,375.376 300.826,379.517 300.073,380.27 300.826,379.517 303.085,375.376 306.398,369.427 308.356,366.264 M266.413,339.006 Q254.29,354.518 252.935,362.349 252.182,366.189 251.956,368.297 251.579,370.481 251.73,370.933 251.655,371.159 251.579,371.385 251.504,371.987 251.504,372.439 251.504,373.644 251.956,374.02 252.558,374.547 254.29,374.547 254.516,374.547 254.817,374.547 265.66,374.246 279.44,361.52 285.238,356.174 297.061,341.943 305.042,332.379 316.488,321.16 323.943,312.651 323.943,302.937 323.943,299.85 321.759,298.494 320.855,297.967 319.726,297.741 318.596,297.516 317.166,297.516 310.615,297.516 294.576,310.542 278.537,323.494 266.413,339.006Z" test="Tin can Rubbish" stroke-width="1.506"/>
          <path id="Layer9_0_1_STROKES" stroke="#009EFF" stroke-width="1.506" stroke-linejoin="round" stroke-linecap="round" fill="none" d="M251.956,368.297 Q251.579,370.481 251.73,370.933 M321.759,298.494 Q323.641,299.247 326.653,300.377 330.117,302.485 328.009,306.326 332.677,306.702 332.677,309.488 332.677,310.091 332.15,311.898 331.623,313.78 331.623,314.533 332.677,314.609 337.346,314.684 341.488,315.06 341.488,317.169 341.488,318.675 340.433,319.729 L340.433,323.871 Q346.457,322.289 348.716,327.334 349.319,328.69 350.298,331.476 351.352,333.66 352.933,334.262 355.719,335.241 361.517,336.747 365.734,338.479 364.228,341.943 L367.315,341.943 Q371.608,341.189 375.071,341.943 L375.071,346.611 Q369.8,367.243 348.114,392.77 325.75,419.2 304.741,427.86 L299.545,427.86 Q300.675,424.245 298.491,422.438 295.103,419.803 294.425,418.071 293.823,415.586 293.296,414.08 L293.296,414.005 Q292.919,413.026 292.543,412.499 291.037,410.465 285.615,410.24 287.272,404.667 282.076,402.936 276.278,400.978 276.278,396.987 276.278,394.427 277.934,390.888 278.612,389.532 279.139,388.704 277.031,390.285 276.579,390.511 276.127,390.662 272.889,390.662 267.543,390.662 267.543,386.219 267.543,384.638 271.609,379.216 L271.233,379.216 Q262.799,383.357 259.185,383.357 257.377,383.357 256.097,382.906 254.591,382.303 254.591,381.249 254.591,380.797 254.892,379.442 255.118,378.087 255.118,376.656 M335.238,330.12 Q330.418,338.629 328.912,341.265 326.503,345.331 324.997,345.632 M363.174,341.943 Q361.668,348.418 358.731,352.936 355.87,357.304 352.406,358.508 M308.356,366.264 Q306.398,369.427 303.085,375.376 300.826,379.517 300.073,380.27 M279.139,388.704 Q279.44,388.327 279.892,388.026 L279.892,387.499 Q279.516,387.876 279.139,388.704Z M293.296,414.08 Q306.925,408.583 312.798,404.291 318.446,400.074 320.78,394.201" test="Tin can Rubbish"/>
          <path id="Layer9_0_2_STROKES" stroke="#FFF" stroke-width="1.506" stroke-linejoin="round" stroke-linecap="round" fill="none" d="M321.759,298.494 Q320.855,297.967 319.726,297.741 318.596,297.516 317.166,297.516 310.615,297.516 294.576,310.542 278.537,323.494 266.413,339.006 254.29,354.518 252.935,362.349 252.182,366.189 251.956,368.297 M251.73,370.933 Q251.655,371.159 251.579,371.385 251.504,371.987 251.504,372.439 251.504,373.644 251.956,374.02 252.558,374.547 254.29,374.547 254.516,374.547 254.817,374.547 265.66,374.246 279.44,361.52 285.238,356.174 297.061,341.943 305.042,332.379 316.488,321.16 323.943,312.651 323.943,302.937 323.943,299.85 321.759,298.494" test="Tin can Rubbish"/>
        </g>
        <g id="Bottle">
          <path fill="#000" stroke="none" d="M588.939,419.582 Q586.605,419.281 578.322,417.549 571.093,415.968 567.027,416.043 559.497,416.118 548.428,409.718 537.509,403.468 527.344,393.453 520.115,386.3 513.714,375.532 508.594,365.818 508.067,365.065 505.582,361.601 503.624,357.987 500.236,351.963 500.461,349.026 483.368,372.896 464.016,394.809 443.158,418.302 427.722,445.41 413.49,470.41 437.737,487.729 462.962,505.725 491.651,516.117 507.54,521.99 520.265,508.963 541.952,486.75 559.195,460.244 572.749,439.311 588.562,420.034 L588.939,419.582 M544.06,316.421 Q543.91,316.346 543.759,316.346 528.398,315.744 517.253,327.792 508.067,337.731 500.461,349.026 500.236,351.963 503.624,357.987 505.582,361.601 508.067,365.065 508.594,365.818 513.714,375.532 520.115,386.3 527.344,393.453 537.509,403.468 548.428,409.718 559.497,416.118 567.027,416.043 571.093,415.968 578.322,417.549 586.605,419.281 588.939,419.582 605.656,403.393 613.411,381.706 613.713,380.953 614.014,380.2 613.261,380.125 612.96,380.2 610.776,380.276 609.948,380.351 608.818,380.426 607.011,380.878 605.279,381.33 602.644,381.33 596.168,381.33 579.903,370.336 564.316,359.869 555.581,350.306 548.352,342.324 546.319,332.611 545.265,322.52 544.06,316.421 M618.607,321.165 Q609.421,313.861 603.321,299.855 576.74,318.53 544.06,316.421 545.265,322.52 546.319,332.611 548.352,342.324 555.581,350.306 564.316,359.869 579.903,370.336 596.168,381.33 602.644,381.33 605.279,381.33 607.011,380.878 608.818,380.426 609.948,380.351 610.776,380.276 612.96,380.2 613.261,380.125 614.014,380.2 606.409,349.704 630.956,330.126 631.634,329.599 632.312,328.921 620.866,322.972 618.607,321.165 M603.171,298.123 L603.321,299.855 Q609.421,313.861 618.607,321.165 620.866,322.972 632.312,328.921 L636.679,329.674 Q639.992,328.319 644.134,320.186 648.049,312.43 648.049,308.439 648.049,303.62 637.206,291.873 632.011,286.226 628.095,283.289 623.803,279.976 621.167,279.976 616.875,279.976 610.023,288.41 607.387,291.648 603.171,298.123 M625.309,288.033 Q624.857,287.355 624.782,287.28 624.857,287.355 625.309,288.033 626.438,289.614 630.053,294.961 636.303,303.168 641.875,306.858 636.303,303.168 630.053,294.961 626.438,289.614 625.309,288.033Z" test="Bottle" stroke-width="1.506"/>
          <path id="Layer10_0_1_STROKES" stroke="#FFF" stroke-width="1.506" stroke-linejoin="round" stroke-linecap="round" fill="none" d="M603.321,299.855 Q609.421,313.861 618.607,321.165 620.866,322.972 632.312,328.921 M636.679,329.674 Q639.992,328.319 644.134,320.186 648.049,312.43 648.049,308.439 648.049,303.62 637.206,291.873 632.011,286.226 628.095,283.289 623.803,279.976 621.167,279.976 616.875,279.976 610.023,288.41 607.387,291.648 603.171,298.123 M641.875,306.858 Q636.303,303.168 630.053,294.961 626.438,289.614 625.309,288.033 624.857,287.355 624.782,287.28 M500.461,349.026 Q500.236,351.963 503.624,357.987 505.582,361.601 508.067,365.065 508.594,365.818 513.714,375.532 520.115,386.3 527.344,393.453 537.509,403.468 548.428,409.718 559.497,416.118 567.027,416.043 571.093,415.968 578.322,417.549 586.605,419.281 588.939,419.582 M614.014,380.2 Q613.261,380.125 612.96,380.2 610.776,380.276 609.948,380.351 608.818,380.426 607.011,380.878 605.279,381.33 602.644,381.33 596.168,381.33 579.903,370.336 564.316,359.869 555.581,350.306 548.352,342.324 546.319,332.611 545.265,322.52 544.06,316.421 543.91,315.593 543.759,314.84 M588.939,419.582 Q589.24,419.657 589.391,419.657 589.391,419.883 588.562,420.034" test="Bottle"/>
          <path id="Layer10_0_2_STROKES" stroke="#0F0" stroke-width="1.506" stroke-linejoin="round" stroke-linecap="round" fill="none" d="M544.06,316.421 Q543.91,316.346 543.759,316.346 528.398,315.744 517.253,327.792 508.067,337.731 500.461,349.026 M588.939,419.582 Q605.656,403.393 613.411,381.706 613.713,380.953 614.014,380.2 606.409,349.704 630.956,330.126 631.634,329.599 632.312,328.921 M603.321,299.855 Q576.74,318.53 544.06,316.421 M588.562,420.034 Q572.749,439.311 559.195,460.244 541.952,486.75 520.265,508.963 507.54,521.99 491.651,516.117 462.962,505.725 437.737,487.729 413.49,470.41 427.722,445.41 443.158,418.302 464.016,394.809 483.368,372.896 500.461,349.026 M588.562,420.034 L588.939,419.582" test="Bottle"/>
        </g>
        <g id="Banana">
          <path fill="#000" stroke="none" d="M427.926,256.506 L427.173,257.259 Q422.203,264.488 416.179,275.858 411.51,284.517 409.176,286.776 401.42,294.08 391.707,300.18 381.918,305.903 378.077,308.463 360.005,320.435 343.966,345.586 328.078,370.359 329.433,383.462 L329.433,389.937 Q329.584,390.163 330.412,390.163 333.274,390.163 335.759,385.721 337.114,383.236 339.222,378.266 340.051,376.76 343.59,371.941 345.397,369.456 345.623,369.004 354.057,366.67 367.234,357.86 382.369,347.845 388.92,338.432 395.547,328.944 410.456,317.348 424.839,306.128 425.592,304.924 L426.119,304.924 426.119,307.936 Q422.203,324.803 403.604,356.504 393.89,372.995 391.556,377.588 386.134,387.829 385.833,392.799 386.285,392.799 387.791,393.1 389.222,393.326 389.899,393.326 395.697,393.326 412.037,377.965 429.055,362.001 436.585,348.296 438.167,345.36 440.049,333.914 442.082,321.64 442.685,319.833 444.642,314.562 445.094,312.981 445.697,310.571 446.826,306.505 452.549,315.466 459.702,323.598 464.672,329.396 484.024,351.384 492.759,361.625 496.976,383.386 499.536,396.639 499.536,405.148 506.163,405.223 510.078,396.488 513.542,388.582 513.542,376.76 513.542,365.54 509.626,356.278 507.669,351.685 500.515,340.239 493.813,329.471 490.425,320.586 485.304,307.107 475.139,298.749 464.898,290.315 461.208,282.032 457.443,273.749 454.055,267.048 450.666,260.271 451.721,258.388 L450.516,257.033 Q448.407,258.915 445.019,260.12 441.179,261.4 437.564,261.4 435.832,261.4 431.841,259.367 428.604,257.711 427.926,256.506 M445.772,218.479 Q439.221,216.521 437.188,223.223 436.585,225.332 436.058,234.518 435.456,243.479 431.465,248.373 427.7,253.117 427.7,255.903 427.7,256.205 427.926,256.506 428.604,257.711 431.841,259.367 435.832,261.4 437.564,261.4 441.179,261.4 445.019,260.12 448.407,258.915 450.516,257.033 451.721,255.979 452.474,254.699 452.022,254.397 451.57,254.171 449.838,253.042 448.633,252.138 445.998,250.331 445.17,249.428 443.739,247.771 443.739,237.605 443.739,230.828 445.772,218.479Z" test="Banana" stroke-width="1.506"/>
          <path id="Layer11_0_1_STROKES" stroke="#FF0" stroke-width="1.506" stroke-linejoin="round" stroke-linecap="round" fill="none" d="M451.721,258.388 Q450.666,260.271 454.055,267.048 457.443,273.749 461.208,282.032 464.898,290.315 475.139,298.749 485.304,307.107 490.425,320.586 493.813,329.471 500.515,340.239 507.669,351.685 509.626,356.278 513.542,365.54 513.542,376.76 513.542,388.582 510.078,396.488 506.163,405.223 499.536,405.148 499.536,396.639 496.976,383.386 492.759,361.625 484.024,351.384 464.672,329.396 459.702,323.598 452.549,315.466 446.826,306.505 445.697,310.571 445.094,312.981 444.642,314.562 442.685,319.833 442.082,321.64 440.049,333.914 438.167,345.36 436.585,348.296 429.055,362.001 412.037,377.965 395.697,393.326 389.899,393.326 389.222,393.326 387.791,393.1 386.285,392.799 385.833,392.799 386.134,387.829 391.556,377.588 393.89,372.995 403.604,356.504 422.203,324.803 426.119,307.936 L426.119,304.924 425.592,304.924 Q424.839,306.128 410.456,317.348 395.547,328.944 388.92,338.432 382.369,347.845 367.234,357.86 354.057,366.67 345.623,369.004 345.397,369.456 343.59,371.941 340.051,376.76 339.222,378.266 337.114,383.236 335.759,385.721 333.274,390.163 330.412,390.163 329.584,390.163 329.433,389.937 L329.433,383.462 Q328.078,370.359 343.966,345.586 360.005,320.435 378.077,308.463 381.918,305.903 391.707,300.18 401.42,294.08 409.176,286.776 411.51,284.517 416.179,275.858 422.203,264.488 427.173,257.259" test="Banana"/>
          <path id="Layer11_0_2_STROKES" stroke="#FFF" stroke-width="1.506" stroke-linejoin="round" stroke-linecap="round" fill="none" d="M427.926,256.506 Q427.7,256.205 427.7,255.903 427.7,253.117 431.465,248.373 435.456,243.479 436.058,234.518 436.585,225.332 437.188,223.223 439.221,216.521 445.772,218.479 443.739,230.828 443.739,237.605 443.739,247.771 445.17,249.428 445.998,250.331 448.633,252.138 449.838,253.042 451.57,254.171 452.022,254.397 452.474,254.699 451.721,255.979 450.516,257.033 M427.926,256.506 Q428.604,257.711 431.841,259.367 435.832,261.4 437.564,261.4 441.179,261.4 445.019,260.12 448.407,258.915 450.516,257.033" test="Banana"/>
        </g>
      </g>
      <g id="Tween-4">
        <path id="Layer5_0_1_STROKES" stroke="#FFF" stroke-width="1.506" stroke-linejoin="round" stroke-linecap="round" fill="none" d="M563.368,401.749 Q563.368,395.875 572.178,391.282" test="Tween 4"/>
        <g id="Garbage">
          <path fill="#000" stroke="none" d="M463.445,366.39 L461.487,365.26 Q461.336,365.562 460.884,366.39 461.336,365.562 461.487,365.26 461.487,365.11 461.487,365.035 461.487,360.441 458.851,358.634 455.237,355 444.921,355 434.002,355 411.337,367.444 408.701,368.724 404.409,376.857 403.732,378.212 402.903,379.342 402.301,372.64 394.244,367.971 386.262,363.227 376.398,363.227 365.178,363.227 356.519,368.423 345.6,374.974 345.6,387.248 345.6,387.85 345.675,388.378 340.404,383.408 328.055,383.408 317.664,383.408 311.263,386.646 304.486,390.109 298.538,398.92 293.869,405.772 293.191,411.043 292.815,413.829 293.342,416.992 290.631,410.742 288.372,407.805 284.381,402.534 275.27,402.534 266.686,402.534 260.812,407.73 255.089,412.925 255.089,420.38 255.089,421.735 255.918,432.729 253.734,436.645 252.454,440.862 250.421,449.22 250.421,457.051 250.421,464.205 255.617,468.723 260.36,472.864 266.46,472.864 268.719,472.864 276.475,471.584 284.155,470.304 289.2,470.304 295.224,470.304 310.51,474.671 325.721,479.039 341.459,479.039 346.052,479.039 382.798,475.726 425.117,472.337 457.345,472.337 464.574,472.262 470.071,472.337 L488.67,473.316 489.423,472.939 Q490.251,472.638 490.929,472.563 495.372,472.337 499.287,470.153 502.224,469.25 504.107,468.421 515.853,463.301 518.338,463.075 L518.865,463.075 Q518.865,462.849 554.03,472.714 592.659,482.728 608.397,482.728 626.469,482.728 635.204,473.467 639.647,468.873 640.4,464.054 640.4,461.644 640.249,461.419 640.174,461.268 640.023,461.117 639.421,460.59 637.839,460.44 639.421,460.59 640.023,461.117 L640.4,460.44 Q642.809,458.934 650.49,456.148 656.966,452.759 656.966,446.509 656.966,442.594 652.297,441.313 L652.824,441.313 Q655.234,438.979 661.559,434.009 666.755,429.19 666.755,424.22 666.755,420.004 664.194,414.958 660.956,408.709 656.213,408.709 648.381,410.591 645.595,410.817 649.21,407.73 649.21,406.148 649.059,403.588 647.628,401.179 644.918,396.435 638.818,396.435 626.846,396.435 621.8,398.167 616.831,399.898 608.849,406.675 607.192,398.091 601.545,392.594 595.671,387.022 587.915,387.022 580.084,387.022 572.178,391.239 L563.368,401.706 Q563.368,403.061 564.347,411.344 563.669,410.968 562.012,410.591 560.431,410.29 559.452,410.29 555.838,410.29 551.546,414.431 549.964,416.013 547.856,419.627 545.898,423.091 545.22,425.275 545.07,425.952 544.919,426.705 544.241,429.416 541.982,431.223 541.305,431.75 540.476,432.052 540.175,431.826 539.949,431.6 535.733,427.458 534.603,421.735 534.001,419.928 532.796,417.97 530.612,414.281 527.148,410.817 535.431,411.721 542.51,409.085 550.416,406.148 551.395,399.974 551.546,399.07 551.546,398.091 551.546,394.176 550.868,392.067 549.437,387.474 544.693,383.408 539.723,379.116 534.377,378.061 532.645,377.685 527.675,377.685 527.751,377.534 531.892,370.23 532.269,369.553 532.57,368.875 L533.248,367.971 Q533.624,367.444 533.699,367.068 534.302,363.98 533.398,360.968 532.871,359.538 530.763,355.095 528.353,350.125 525.416,348.017 518.489,343.047 501.471,343.047 483.625,343.047 468.264,360.366 465.854,363.077 463.445,366.39 M503.73,401.48 Q503.429,402.233 502.826,403.438 503.429,402.233 503.73,401.48 504.332,400.124 504.332,399.07 504.332,392.896 498.911,392.896 496.2,392.896 493.489,393.649 488.068,395.23 487.766,399.221 488.068,395.23 493.489,393.649 496.2,392.896 498.911,392.896 504.332,392.896 504.332,399.07 504.332,400.124 503.73,401.48 M614.873,430.244 Q618.788,432.805 618.788,436.871 618.788,432.805 614.873,430.244 611.635,428.136 608.096,428.136 603.126,428.136 600.34,429.868 597.403,431.6 597.403,434.762 597.403,431.6 600.34,429.868 603.126,428.136 608.096,428.136 611.635,428.136 614.873,430.244 M382.045,406.675 Q386.413,409.01 387.467,411.871 386.413,409.01 382.045,406.675 377.979,404.567 374.816,404.567 370.75,404.567 367.814,407.203 363.747,410.968 363.747,419.1 363.747,420.305 363.973,420.982 364.425,422.187 365.78,424.22 364.425,422.187 363.973,420.982 363.747,420.305 363.747,419.1 363.747,410.968 367.814,407.203 370.75,404.567 374.816,404.567 377.979,404.567 382.045,406.675 M443.339,399.974 Q444.394,401.781 444.394,406.45 444.394,414.883 437.767,420.681 430.614,426.856 419.545,426.329 430.614,426.856 437.767,420.681 444.394,414.883 444.394,406.45 444.394,401.781 443.339,399.974 442.135,397.865 438.746,397.865 438.068,397.865 437.09,398.167 435.659,398.618 434.078,398.92 435.659,398.618 437.09,398.167 438.068,397.865 438.746,397.865 442.135,397.865 443.339,399.974Z" test="Garbage" stroke-width="1.506"/>
          <path id="Layer7_0_1_STROKES" stroke="#FFF" stroke-width="1.506" stroke-linejoin="round" stroke-linecap="round" fill="none" d="M461.487,365.26 Q461.336,365.562 460.884,366.39 M640.023,461.117 Q640.174,461.268 640.249,461.419 640.4,461.644 640.4,464.054 639.647,468.873 635.204,473.467 626.469,482.728 608.397,482.728 592.659,482.728 554.03,472.714 518.865,462.849 518.865,463.075 L518.338,463.075 Q515.853,463.301 504.107,468.421 502.224,469.25 499.287,470.153 495.372,472.337 490.929,472.563 490.251,472.638 489.423,472.939 L488.67,473.316 470.071,472.337 Q464.574,472.262 457.345,472.337 425.117,472.337 382.798,475.726 346.052,479.039 341.459,479.039 325.721,479.039 310.51,474.671 295.224,470.304 289.2,470.304 284.155,470.304 276.475,471.584 268.719,472.864 266.46,472.864 260.36,472.864 255.617,468.723 250.421,464.205 250.421,457.051 250.421,449.22 252.454,440.862 253.734,436.645 255.918,432.729 255.089,421.735 255.089,420.38 255.089,412.925 260.812,407.73 266.686,402.534 275.27,402.534 284.381,402.534 288.372,407.805 290.631,410.742 293.342,416.992 292.815,413.829 293.191,411.043 293.869,405.772 298.538,398.92 304.486,390.109 311.263,386.646 317.664,383.408 328.055,383.408 340.404,383.408 345.675,388.378 345.6,387.85 345.6,387.248 345.6,374.974 356.519,368.423 365.178,363.227 376.398,363.227 386.262,363.227 394.244,367.971 402.301,372.64 402.903,379.342 403.732,378.212 404.409,376.857 408.701,368.724 411.337,367.444 434.002,355 444.921,355 455.237,355 458.851,358.634 461.487,360.441 461.487,365.035 461.487,365.11 461.487,365.26 M463.445,366.39 Q465.854,363.077 468.264,360.366 483.625,343.047 501.471,343.047 518.489,343.047 525.416,348.017 528.353,350.125 530.763,355.095 532.871,359.538 533.398,360.968 534.302,363.98 533.699,367.068 533.624,367.444 533.248,367.971 L532.57,368.875 Q532.269,369.553 531.892,370.23 527.751,377.534 527.675,377.685 532.645,377.685 534.377,378.061 539.723,379.116 544.693,383.408 549.437,387.474 550.868,392.067 551.546,394.176 551.546,398.091 551.546,399.07 551.395,399.974 550.416,406.148 542.51,409.085 535.431,411.721 527.148,410.817 530.612,414.281 532.796,417.97 534.001,419.928 534.603,421.735 535.733,427.458 539.949,431.6 540.175,431.826 540.476,432.052 541.305,431.75 541.982,431.223 544.241,429.416 544.919,426.705 545.07,425.952 545.22,425.275 545.898,423.091 547.856,419.627 549.964,416.013 551.546,414.431 555.838,410.29 559.452,410.29 560.431,410.29 562.012,410.591 563.669,410.968 564.347,411.344 563.368,403.061 563.368,401.706 M572.178,391.239 Q580.084,387.022 587.915,387.022 595.671,387.022 601.545,392.594 607.192,398.091 608.849,406.675 616.831,399.898 621.8,398.167 626.846,396.435 638.818,396.435 644.918,396.435 647.628,401.179 649.059,403.588 649.21,406.148 649.21,407.73 645.595,410.817 648.381,410.591 656.213,408.709 660.956,408.709 664.194,414.958 666.755,420.004 666.755,424.22 666.755,429.19 661.559,434.009 655.234,438.979 652.824,441.313 L652.297,441.313 Q656.966,442.594 656.966,446.509 656.966,452.759 650.49,456.148 642.809,458.934 640.4,460.44 M637.839,460.44 Q639.421,460.59 640.023,461.117 M487.766,399.221 Q488.068,395.23 493.489,393.649 496.2,392.896 498.911,392.896 504.332,392.896 504.332,399.07 504.332,400.124 503.73,401.48 503.429,402.233 502.826,403.438 M597.403,434.762 Q597.403,431.6 600.34,429.868 603.126,428.136 608.096,428.136 611.635,428.136 614.873,430.244 618.788,432.805 618.788,436.871 M365.78,424.22 Q364.425,422.187 363.973,420.982 363.747,420.305 363.747,419.1 363.747,410.968 367.814,407.203 370.75,404.567 374.816,404.567 377.979,404.567 382.045,406.675 386.413,409.01 387.467,411.871 M434.078,398.92 Q435.659,398.618 437.09,398.167 438.068,397.865 438.746,397.865 442.135,397.865 443.339,399.974 444.394,401.781 444.394,406.45 444.394,414.883 437.767,420.681 430.614,426.856 419.545,426.329" test="Garbage"/>
        </g>
        <g id="GarbageCloud">
          <path id="Layer8_0_1_STROKES" stroke="#FFF" stroke-width="1.506" stroke-linejoin="round" stroke-linecap="round" fill="none" d="M500.265,293.971 Q502.524,292.766 502.976,292.088 503.879,290.808 503.879,287.269 503.879,282.826 500.039,276.2 496.199,269.573 496.199,263.625 496.199,258.805 501.846,249.468 507.494,240.131 507.494,235.99 507.494,233.58 505.385,230.794 505.084,230.417 502.298,227.255 M589.42,270.176 Q590.324,268.218 593.938,264.98 598.757,260.537 602.673,260.311 603.727,262.42 603.727,264.453 603.727,264.98 598.532,270.176 L589.42,270.176 Q589.27,270.477 589.044,271.155 589.571,271.381 590.098,271.757 592.282,273.188 592.282,274.769 592.282,276.426 591.83,276.877 591.303,277.405 589.496,277.405 587.839,277.405 586.634,276.426 585.58,275.447 585.58,274.242 585.58,273.338 585.956,272.736 582.493,272.736 580.384,272.209 575.264,271.079 575.264,267.54 575.264,264.905 576.243,262.947 577.598,260.311 580.158,260.311 583.773,260.311 586.032,263.549 587.538,265.808 588.667,270.176 L589.42,270.176Z M585.956,272.736 L586.032,272.736 Q587.086,272.736 587.387,272.661 587.764,272.585 588.14,272.209 L588.14,271.155 Q587.161,271.531 586.634,271.908 586.182,272.209 585.956,272.736Z M589.044,271.155 Q587.462,270.402 586.107,270.703 M327.301,257.299 Q327.527,256.546 327.828,255.793 323.385,255.944 319.093,258.956 315.328,261.441 314.048,263.926 L314.048,269.121 318.717,269.121 Q325.795,263.775 326.774,259.257 327,258.278 327.301,257.299 326.924,257.299 326.473,257.299 M332.647,258.354 Q331.367,257.224 330.539,256.622 328.506,256.697 328.054,256.772 M330.539,256.622 Q329.861,256.095 329.485,255.869 329.259,255.718 328.581,255.718 328.205,255.718 327.828,255.793 329.786,250.824 334.229,245.327 L338.897,245.327 Q338.897,245.854 339.198,247.209 339.424,248.565 339.424,249.242 339.424,255.04 334.304,256.396 332.045,256.546 330.539,256.622Z M368.339,278.459 Q370.373,274.167 371.803,270.929 374.589,264.679 374.589,262.345 374.589,260.387 370.448,256.245 366.306,252.028 366.306,250.748 366.306,247.059 368.114,241.411 369.921,235.688 369.921,233.203 369.921,227.782 369.62,226.2 368.942,222.21 366.306,221.005 M327.527,258.354 L327.301,259.332 Q327,260.537 327,261.366 327,262.721 328.506,263.399 329.635,263.926 330.689,263.926 331.442,263.926 332.346,263.625 334.078,263.022 334.229,262.947 333.927,259.709 331.819,258.354 330.238,257.45 327.301,257.299" test="GarbageCloud"/>
        </g>
      </g>
      <path fill="#000" stroke="none" d="M176.338,415.93 L176.338,723.154 755.846,723.154 755.846,415.93 176.338,415.93Z" test="GarbageDrawerGroup" stroke-width="1.506"/>
      <g id="Drawer">
        <path fill="#000" stroke="none" d="M708.458,482.343 Q708.006,482.795 707.63,483.247 L707.63,508.773 Q708.006,509.15 708.458,509.602 713.955,515.098 721.636,515.249 L722.088,515.249 Q730.069,515.249 735.717,509.602 741.364,503.954 741.364,495.972 741.364,487.991 735.717,482.343 730.069,476.696 722.088,476.696 L721.636,476.696 Q713.955,476.846 708.458,482.343 M198.602,401.395 Q193.783,423.534 194.686,447.856 197.548,516.303 196.493,559.601 195.59,601.694 198.602,613.44 291.974,612.16 384.141,616.076 420.586,615.022 444.833,616.302 469.456,617.582 486.549,617.582 493.1,617.582 499.802,617.507 509.214,618.636 518.552,618.485 535.72,617.13 552.738,614.645 570.358,612.461 588.204,614.495 605.297,616.452 622.24,616.001 640.011,615.473 657.631,614.419 678.263,614.043 707.63,613.44 L707.63,515.249 707.63,508.773 707.63,483.247 Q707.555,479.933 707.555,476.696 706.576,425.642 707.63,374.89 L675.1,374.89 675.1,401.395 596.186,398.459 Q387.228,405.311 198.602,401.395Z" test="Drawer" stroke-width="1.506"/>
        <path id="Layer4_0_1_STROKES" stroke="#F60" stroke-width="3.012" stroke-linejoin="round" stroke-linecap="round" fill="none" d="M707.63,508.773 L707.63,515.249 707.63,613.44 Q678.263,614.043 657.631,614.419 640.011,615.473 622.24,616.001 605.297,616.452 588.204,614.495 570.358,612.461 552.738,614.645 535.72,617.13 518.552,618.485 509.214,618.636 499.802,617.507 493.1,617.582 486.549,617.582 469.456,617.582 444.833,616.302 420.586,615.022 384.141,616.076 291.974,612.16 198.602,613.44 195.59,601.694 196.493,559.601 197.548,516.303 194.686,447.856 193.783,423.534 198.602,401.395 387.228,405.311 596.186,398.459 L675.1,401.395 675.1,374.89 707.63,374.89 Q706.576,425.642 707.555,476.696 707.555,479.933 707.63,483.247 708.006,482.795 708.458,482.343 713.955,476.846 721.636,476.696 L722.088,476.696 Q730.069,476.696 735.717,482.343 741.364,487.991 741.364,495.972 741.364,503.954 735.717,509.602 730.069,515.249 722.088,515.249 L721.636,515.249 Q713.955,515.098 708.458,509.602 708.006,509.15 707.63,508.773 L707.63,483.247" test="Drawer"/>
      </g>
      <g id="DrawersCabinetFront">
        <path fill="#000" stroke="none" d="M236.996,763.173 Q237.372,763.55 237.824,764.001 243.321,769.498 251.002,769.649 L251.454,769.649 Q259.435,769.649 265.083,764.001 270.73,758.354 270.73,750.372 270.73,742.39 265.083,736.743 259.435,731.095 251.454,731.095 L251.002,731.095 Q243.321,731.246 237.824,736.743 237.372,737.195 236.996,737.646 L236.996,763.173 M236.996,629.29 L204.466,629.29 204.466,655.795 125.552,652.859 Q-83.406,659.711 -272.032,655.795 -276.851,677.934 -275.948,702.255 -273.086,770.703 -274.14,814.001 -275.044,856.093 -272.032,867.84 -178.66,866.56 -86.493,870.476 -50.048,869.421 -25.801,870.702 -1.178,871.982 15.915,871.982 22.466,871.982 29.168,871.906 38.58,873.036 47.918,872.885 65.086,871.53 82.104,869.045 99.724,866.861 117.57,868.894 134.663,870.852 151.606,870.4 169.377,869.873 186.997,868.819 207.629,868.443 236.996,867.84 L236.996,769.649 236.996,763.173 236.996,737.646 Q236.921,734.333 236.921,731.095 235.942,680.042 236.996,629.29Z" test="DrawersCabinetFront" stroke-width="1.506"/>
        <path id="Layer3_0_1_STROKES" stroke="#F60" stroke-width="3.012" stroke-linejoin="round" stroke-linecap="round" fill="none" d="M236.996,763.173 L236.996,769.649 236.996,867.84 Q207.629,868.443 186.997,868.819 169.377,869.873 151.606,870.4 134.663,870.852 117.57,868.894 99.724,866.861 82.104,869.045 65.086,871.53 47.918,872.885 38.58,873.036 29.168,871.906 22.466,871.982 15.915,871.982 -1.178,871.982 -25.801,870.702 -50.048,869.421 -86.493,870.476 -178.66,866.56 -272.032,867.84 -275.044,856.093 -274.14,814.001 -273.086,770.703 -275.948,702.255 -276.851,677.934 -272.032,655.795 -83.406,659.711 125.552,652.859 L204.466,655.795 204.466,629.29 236.996,629.29 Q235.942,680.042 236.921,731.095 236.921,734.333 236.996,737.646 237.372,737.195 237.824,736.743 243.321,731.246 251.002,731.095 L251.454,731.095 Q259.435,731.095 265.083,736.743 270.73,742.39 270.73,750.372 270.73,758.354 265.083,764.001 259.435,769.649 251.454,769.649 L251.002,769.649 Q243.321,769.498 237.824,764.001 237.372,763.55 236.996,763.173 L236.996,737.646" test="DrawersCabinetFront"/>
        <path fill="#000" stroke="none" d="M165.988,362.728 Q133.607,361.53 102.435,359.716 71.348,357.979 -10.967,358.285 -93.225,358.672 -131.221,359.113 -169.124,359.63 -217.214,359.189 -265.32,358.741 -293.116,362.125 -295.074,378.089 -297.333,506.475 -299.667,639.832 -297.483,666.111 -296.655,676.804 -302.152,773.113 -307.571,869.42 -303.432,871.53 -299.224,873.641 -288.071,872.81 -283.892,872.552 -279.035,871.906 -269.698,870.702 -260.285,869.497 -216.084,864.979 -171.808,866.334 -151.269,866.47 -129.489,866.711 -20.078,867.991 -5.621,867.991 7.783,867.991 105.899,871.756 107.028,871.831 108.233,871.831 111.32,871.982 114.408,872.057 118.775,872.208 122.992,872.283 202.283,874.617 204.09,871.756 206.198,868.443 206.349,855.34 206.273,836.666 206.273,824.543 206.273,736.366 207.403,705.719 207.93,690.659 206.273,620.931 204.692,550.752 205.219,533.207 206.197,500.762 205.445,431.928 204.771,363.085 201.605,363.481 198.438,363.946 165.988,362.728Z" test="DrawersCabinetFront" stroke-width="1.506"/>
        <path id="Layer2_0_1_STROKES" stroke="#F60" stroke-width="3.012" stroke-linejoin="round" stroke-linecap="round" fill="none" d="M-293.116,362.125 Q-265.32,358.741 -217.214,359.189 -169.124,359.63 -131.183,359.151 -93.225,358.672 -10.929,358.323 71.348,357.979 102.472,359.753 133.607,361.53 166.026,362.728 198.438,363.946 201.605,363.518 204.771,363.085 205.483,431.928 206.197,500.762 205.219,533.207 204.692,550.752 206.273,620.931 207.93,690.659 207.403,705.719 206.273,736.366 206.273,824.543 206.273,836.666 206.349,855.34 206.198,868.443 204.09,871.756 202.283,874.617 122.992,872.283 118.775,872.208 114.408,872.057 111.32,871.982 108.233,871.831 107.028,871.831 105.899,871.756 7.783,867.991 -5.621,867.991 -20.078,867.991 -129.489,866.711 -151.269,866.47 -171.808,866.334 -216.084,864.979 -260.285,869.497 -269.698,870.702 -279.035,871.944 -283.892,872.552 -288.033,872.848 -299.224,873.641 -303.395,871.53 -307.571,869.42 -302.114,773.113 -296.655,676.804 -297.483,666.111 -299.667,639.832 -297.333,506.475 -295.074,378.089 -293.116,362.125Z" test="DrawersCabinetFront"/>
      </g>
    </g>
  </g>
</svg>