<?xml version="1.0" encoding="utf-8"?>
<svg id="EdithAnim12" image-rendering="inherit" baseProfile="basic" version="1.1" x="0px" y="0px" width="800" height="600" xmlns="http://www.w3.org/2000/svg" xmlns:xlink="http://www.w3.org/1999/xlink">
  <g id="21_GarbageDrawerf117r1" overflow="visible">
    <g id="GarbageDrawerGroupf117r1">
      <g id="Tween-6">
        <path fill="#000" stroke="none" d="M310.45,339.855 Q306.46,337.742 304.425,337.742 294.644,337.742 289.166,349.558 284.628,359.105 284.002,373.737 283.924,374.051 283.845,374.364 283.298,376.085 281.498,377.807 L268.9,377.807 Q268.665,377.885 263.735,378.354 260.135,378.746 258.884,380.624 258.492,381.171 258.414,382.814 258.336,384.693 258.258,385.006 256.38,383.128 246.99,383.128 235.096,383.128 235.096,392.831 235.096,393.691 235.33,396.273 235.487,399.169 235.722,400.03 233.061,400.499 230.4,403.707 226.645,408.089 226.645,414.897 226.645,416.227 227.505,419.67 227.975,421.626 228.835,425.069 229.383,427.495 229.931,428.356 231.574,430.703 235.722,431.329 236.817,431.486 249.963,435.007 266.865,438.842 286.741,441.032 294.253,441.893 344.333,449.405 382.91,455.196 409.436,456.369 436.902,457.621 473.68,460.595 499.424,462.629 522.273,462.629 542.383,462.629 573.057,456.761 604.67,450.814 613.513,444.789 616.877,442.519 620.242,441.58 623.92,440.563 625.719,439.468 632.293,435.242 633.858,432.895 638.161,426.321 639.1,423.505 639.492,422.331 639.492,418.966 639.492,415.445 638.553,413.019 637.144,410.359 636.362,408.794 L636.362,408.167 Q635.423,407.229 635.423,405.977 635.423,405.898 641.839,400.89 648.256,395.1 648.256,391.578 648.256,385.162 646.534,380.936 644.187,375.302 638.24,371.234 634.796,368.886 628.615,367.556 622.668,366.46 621.338,365.912 622.042,364.582 625.406,360.748 628.536,356.601 628.536,352.297 628.536,345.724 623.842,339.621 617.738,331.795 607.252,331.795 600.288,331.795 595.046,333.674 595.671,332.969 596.141,332.187 596.924,330.7 596.924,328.04 596.924,321.701 589.725,316.458 580.334,309.573 562.65,309.573 L553.416,310.668 Q549.582,312.39 547.313,317.867 547.156,318.415 546.844,318.963 547.156,318.415 547.313,317.867 548.956,311.998 537.454,306.834 526.968,302.061 519.143,302.061 509.91,302.061 505.997,305.034 502.085,308.008 501.145,315.833 498.016,312.703 496.216,311.372 493.086,308.947 490.817,308.947 481.348,308.947 476.027,313.172 473.367,315.285 465.464,325.849 L465.464,325.535 Q464.525,319.041 463.899,316.537 462.96,312.311 461.003,310.198 456.387,305.191 438.389,305.191 434.79,305.191 431.112,307.225 427.434,309.181 424.46,312.703 423.678,311.92 422.035,309.025 420.078,305.582 420.078,305.504 415.149,298.148 411.941,295.566 408.419,292.671 403.803,292.671 379.154,292.671 365.069,301.591 352.94,309.338 355.288,317.71 352.157,313.798 350.201,311.842 346.758,308.321 343.237,308.321 331.734,308.321 322.109,319.98 312.563,331.482 314.597,342.438 313.972,341.655 310.45,339.855 M366.556,347.524 Q368.903,348.619 372.503,350.888 375.007,352.219 375.32,352.453 375.946,352.845 375.007,352.766 375.946,352.845 375.32,352.453 375.007,352.219 372.503,350.888 368.903,348.619 366.556,347.524 362.33,345.568 357.792,345.568 343.237,345.568 335.256,352.453 343.237,345.568 357.792,345.568 362.33,345.568 366.556,347.524 M422.348,340.168 Q428.686,337.429 435.729,337.429 441.989,337.429 446.684,347.446 446.684,348.071 446.136,348.698 445.51,349.402 444.806,349.636 445.51,349.402 446.136,348.698 446.684,348.071 446.684,347.446 441.989,337.429 435.729,337.429 428.686,337.429 422.348,340.168 415.775,343.064 412.567,347.758 415.775,343.064 422.348,340.168 M532.915,333.987 Q533.463,333.987 537.062,337.899 540.584,341.811 540.584,342.438 540.584,350.497 537.532,354.723 535.497,357.54 532.759,358.088 535.497,357.54 537.532,354.723 540.584,350.497 540.584,342.438 540.584,341.811 537.062,337.899 533.463,333.987 532.915,333.987 513.196,333.987 503.963,341.811 513.196,333.987 532.915,333.987 M601.462,352.062 Q604.748,354.566 604.748,364.191 604.748,373.659 596.689,379.841 590.272,384.771 585.656,384.379 590.272,384.771 596.689,379.841 604.748,373.659 604.748,364.191 604.748,354.566 601.462,352.062 598.332,349.636 586.281,349.95 598.332,349.636 601.462,352.062 M606.94,381.563 Q618.129,381.406 619.068,381.719 623.216,382.971 623.216,390.953 623.216,393.613 620.79,396.117 619.225,397.604 615.078,400.343 613.982,401.047 612.104,402.69 610.382,404.098 609.757,404.412 610.382,404.098 612.104,402.69 613.982,401.047 615.078,400.343 619.225,397.604 620.79,396.117 623.216,393.613 623.216,390.953 623.216,382.971 619.068,381.719 618.129,381.406 606.94,381.563Z" test="Tween 6" stroke-width="1.565"/>
        <path id="Layer6_0_1_STROKES" stroke="#FFF" stroke-width="1.565" stroke-linejoin="round" stroke-linecap="round" fill="none" d="M636.362,408.794 Q637.144,410.359 638.553,413.019 639.492,415.445 639.492,418.966 639.492,422.331 639.1,423.505 638.161,426.321 633.858,432.895 632.293,435.242 625.719,439.468 623.92,440.563 620.242,441.58 616.877,442.519 613.513,444.789 604.67,450.814 573.057,456.761 542.383,462.629 522.273,462.629 499.424,462.629 473.68,460.595 436.902,457.621 409.436,456.369 382.91,455.196 344.333,449.405 294.253,441.893 286.741,441.032 266.865,438.842 249.963,435.007 236.817,431.486 235.722,431.329 231.574,430.703 229.931,428.356 229.383,427.495 228.835,425.069 227.975,421.626 227.505,419.67 226.645,416.227 226.645,414.897 226.645,408.089 230.4,403.707 233.061,400.499 235.722,400.03 235.487,399.169 235.33,396.273 235.096,393.691 235.096,392.831 235.096,383.128 246.99,383.128 256.38,383.128 258.258,385.006 258.336,384.693 258.414,382.814 258.492,381.171 258.884,380.624 260.135,378.746 263.735,378.354 268.665,377.885 268.9,377.807 L281.498,377.807 Q283.298,376.085 283.845,374.364 283.924,374.051 284.002,373.737 284.628,359.105 289.166,349.558 294.644,337.742 304.425,337.742 306.46,337.742 310.45,339.855 313.972,341.655 314.597,342.438 312.563,331.482 322.109,319.98 331.734,308.321 343.237,308.321 346.758,308.321 350.201,311.842 352.157,313.798 355.288,317.71 352.94,309.338 365.069,301.591 379.154,292.671 403.803,292.671 408.419,292.671 411.941,295.566 415.149,298.148 420.078,305.504 420.078,305.582 422.035,309.025 423.678,311.92 424.46,312.703 427.434,309.181 431.112,307.225 434.79,305.191 438.389,305.191 456.387,305.191 461.003,310.198 462.96,312.311 463.899,316.537 464.525,319.041 465.464,325.535 L465.464,325.849 Q473.367,315.285 476.027,313.172 481.348,308.947 490.817,308.947 493.086,308.947 496.216,311.372 498.016,312.703 501.145,315.833 502.085,308.008 505.997,305.034 509.91,302.061 519.143,302.061 526.968,302.061 537.454,306.834 548.956,311.998 547.313,317.867 549.582,312.39 553.416,310.668 555,309.573 562.65,309.573 580.334,309.573 589.725,316.458 596.924,321.701 596.924,328.04 596.924,330.7 596.141,332.187 595.671,332.969 595.046,333.674 600.288,331.795 607.252,331.795 617.738,331.795 623.842,339.621 628.536,345.724 628.536,352.297 628.536,356.601 625.406,360.748 622.042,364.582 621.338,365.912 622.668,366.46 628.615,367.556 634.796,368.886 638.24,371.234 644.187,375.302 646.534,380.936 648.256,385.162 648.256,391.578 648.256,395.1 641.839,400.89 635.423,405.898 635.423,405.977 635.423,407.229 636.362,408.167 M335.256,352.453 Q343.237,345.568 357.792,345.568 362.33,345.568 366.556,347.524 368.903,348.619 372.503,350.888 375.007,352.219 375.32,352.453 375.946,352.845 375.007,352.766 M412.567,347.758 Q415.775,343.064 422.348,340.168 428.686,337.429 435.729,337.429 441.989,337.429 446.684,347.446 446.684,348.071 446.136,348.698 445.51,349.402 444.806,349.636 M547.313,317.867 Q547.156,318.415 546.844,318.963 M503.963,341.811 Q513.196,333.987 532.915,333.987 533.463,333.987 537.062,337.899 540.584,341.811 540.584,342.438 540.584,350.497 537.532,354.723 535.497,357.54 532.759,358.088 M586.281,349.95 Q598.332,349.636 601.462,352.062 604.748,354.566 604.748,364.191 604.748,373.659 596.689,379.841 590.272,384.771 585.656,384.379 M606.94,381.563 Q618.129,381.406 619.068,381.719 623.216,382.971 623.216,390.953 623.216,393.613 620.79,396.117 619.225,397.604 615.078,400.343 613.982,401.047 612.104,402.69 610.382,404.098 609.757,404.412" test="Tween 6"/>
      </g>
      <g id="Tween-5">
        <g id="Tin-can-Rubbish">
          <path fill="#000" stroke="none" d="M277.926,335.881 Q265.641,350.671 259.616,356.226 245.296,369.451 234.028,369.763 L234.341,371.955 Q234.341,373.441 234.106,374.85 233.793,376.258 233.793,376.728 233.793,377.823 235.358,378.449 236.689,378.919 238.567,378.919 242.323,378.919 251.087,374.615 L251.478,374.615 Q247.252,380.249 247.252,381.892 247.252,386.509 252.808,386.509 256.173,386.509 256.642,386.352 257.112,386.118 259.303,384.475 259.694,383.614 260.085,383.222 L260.085,383.77 Q259.616,384.083 259.303,384.475 258.755,385.335 258.051,386.744 256.329,390.422 256.329,393.082 256.329,397.229 262.355,399.264 267.754,401.064 266.032,406.854 271.666,407.089 273.231,409.201 273.623,409.749 274.014,410.766 L274.014,410.845 Q288.177,405.133 294.281,400.672 300.149,396.29 302.575,390.187 300.149,396.29 294.281,400.672 288.177,405.133 274.014,410.845 274.562,412.41 275.188,414.992 275.892,416.792 279.413,419.53 281.682,421.409 280.509,425.165 L285.908,425.165 Q307.74,416.166 330.98,388.7 353.516,362.173 358.993,340.733 L358.993,335.881 Q355.394,335.099 350.934,335.881 L347.725,335.881 Q349.29,332.282 344.908,330.482 338.883,328.917 335.988,327.9 334.345,327.274 333.249,325.005 332.232,322.109 331.606,320.701 329.258,315.458 322.998,317.101 L322.998,312.797 Q324.094,311.702 324.094,310.137 324.094,307.946 319.79,307.555 314.939,307.477 313.843,307.398 313.843,306.616 314.391,304.66 314.939,302.782 314.939,302.155 314.939,299.26 310.087,298.869 312.278,294.878 308.679,292.687 305.549,291.513 303.592,290.731 305.862,292.14 305.862,295.348 305.862,305.442 298.115,314.284 286.221,325.944 277.926,335.881 M311.026,335.177 Q308.522,339.403 306.957,339.715 308.522,339.403 311.026,335.177 312.591,332.438 317.599,323.596 312.591,332.438 311.026,335.177 M342.013,347.306 Q339.04,351.844 335.44,353.096 339.04,351.844 342.013,347.306 345.065,342.611 346.63,335.881 345.065,342.611 342.013,347.306 M289.664,361.156 Q287.629,364.443 284.186,370.624 281.839,374.928 281.056,375.71 281.839,374.928 284.186,370.624 287.629,364.443 289.664,361.156 M246.079,332.83 Q233.48,348.949 232.072,357.087 231.289,361.078 231.055,363.269 230.663,365.538 230.82,366.008 230.742,366.242 230.663,366.477 230.585,367.103 230.585,367.573 230.585,368.825 231.055,369.216 231.681,369.763 233.48,369.763 233.715,369.763 234.028,369.763 245.296,369.451 259.616,356.226 265.641,350.671 277.926,335.881 286.221,325.944 298.115,314.284 305.862,305.442 305.862,295.348 305.862,292.14 303.592,290.731 302.653,290.183 301.48,289.948 300.306,289.714 298.819,289.714 292.011,289.714 275.344,303.251 258.677,316.71 246.079,332.83Z" test="Tin can Rubbish" stroke-width="1.565"/>
          <path id="Layer9_0_1_STROKES" stroke="#009EFF" stroke-width="1.565" stroke-linejoin="round" stroke-linecap="round" fill="none" d="M231.055,363.269 Q230.663,365.538 230.82,366.008 M303.592,290.731 Q305.549,291.513 308.679,292.687 312.278,294.878 310.087,298.869 314.939,299.26 314.939,302.155 314.939,302.782 314.391,304.66 313.843,306.616 313.843,307.398 314.939,307.477 319.79,307.555 324.094,307.946 324.094,310.137 324.094,311.702 322.998,312.797 L322.998,317.101 Q329.258,315.458 331.606,320.701 332.232,322.109 333.249,325.005 334.345,327.274 335.988,327.9 338.883,328.917 344.908,330.482 349.29,332.282 347.725,335.881 L350.934,335.881 Q355.394,335.099 358.993,335.881 L358.993,340.733 Q353.516,362.173 330.98,388.7 307.74,416.166 285.908,425.165 L280.509,425.165 Q281.682,421.409 279.413,419.53 275.892,416.792 275.188,414.992 274.562,412.41 274.014,410.845 L274.014,410.766 Q273.623,409.749 273.231,409.201 271.666,407.089 266.032,406.854 267.754,401.064 262.355,399.264 256.329,397.229 256.329,393.082 256.329,390.422 258.051,386.744 258.755,385.335 259.303,384.475 257.112,386.118 256.642,386.352 256.173,386.509 252.808,386.509 247.252,386.509 247.252,381.892 247.252,380.249 251.478,374.615 L251.087,374.615 Q242.323,378.919 238.567,378.919 236.689,378.919 235.358,378.449 233.793,377.823 233.793,376.728 233.793,376.258 234.106,374.85 234.341,373.441 234.341,371.955 M317.599,323.596 Q312.591,332.438 311.026,335.177 308.522,339.403 306.957,339.715 M346.63,335.881 Q345.065,342.611 342.013,347.306 339.04,351.844 335.44,353.096 M289.664,361.156 Q287.629,364.443 284.186,370.624 281.839,374.928 281.056,375.71 M259.303,384.475 Q259.616,384.083 260.085,383.77 L260.085,383.222 Q259.694,383.614 259.303,384.475Z M274.014,410.845 Q288.177,405.133 294.281,400.672 300.149,396.29 302.575,390.187" test="Tin can Rubbish"/>
          <path id="Layer9_0_2_STROKES" stroke="#FFF" stroke-width="1.565" stroke-linejoin="round" stroke-linecap="round" fill="none" d="M303.592,290.731 Q302.653,290.183 301.48,289.948 300.306,289.714 298.819,289.714 292.011,289.714 275.344,303.251 258.677,316.71 246.079,332.83 233.48,348.949 232.072,357.087 231.289,361.078 231.055,363.269 M230.82,366.008 Q230.742,366.242 230.663,366.477 230.585,367.103 230.585,367.573 230.585,368.825 231.055,369.216 231.681,369.763 233.48,369.763 233.715,369.763 234.028,369.763 245.296,369.451 259.616,356.226 265.641,350.671 277.926,335.881 286.221,325.944 298.115,314.284 305.862,305.442 305.862,295.348 305.862,292.14 303.592,290.731" test="Tin can Rubbish"/>
        </g>
        <g id="Bottle">
          <path fill="#000" stroke="none" d="M581.242,416.541 Q578.817,416.228 570.209,414.428 562.697,412.785 558.472,412.863 550.647,412.941 539.144,406.29 527.798,399.795 517.234,389.388 509.722,381.954 503.071,370.764 497.75,360.67 497.202,359.888 494.62,356.288 492.585,352.532 489.064,346.272 489.299,343.22 471.536,368.026 451.426,390.796 429.75,415.21 413.709,443.38 398.92,469.359 424.116,487.357 450.33,506.059 480.143,516.857 496.654,522.961 509.878,509.423 532.414,486.34 550.334,458.796 564.419,437.042 580.851,417.01 L581.242,416.541 M534.605,309.338 Q534.449,309.26 534.292,309.26 518.329,308.634 506.748,321.154 497.202,331.483 489.299,343.22 489.064,346.272 492.585,352.532 494.62,356.288 497.202,359.888 497.75,360.67 503.071,370.764 509.722,381.954 517.234,389.388 527.798,399.795 539.144,406.29 550.647,412.941 558.472,412.863 562.697,412.785 570.209,414.428 578.817,416.228 581.242,416.541 598.614,399.717 606.674,377.181 606.987,376.398 607.3,375.616 606.517,375.538 606.204,375.616 603.935,375.694 603.074,375.772 601.9,375.851 600.022,376.32 598.223,376.79 595.484,376.79 588.754,376.79 571.852,365.365 555.655,354.488 546.578,344.551 539.066,336.256 536.953,326.162 535.857,315.676 534.605,309.338 M612.073,314.268 Q602.526,306.678 596.188,292.123 568.566,311.529 534.605,309.338 535.857,315.676 536.953,326.162 539.066,336.256 546.578,344.551 555.655,354.488 571.852,365.365 588.754,376.79 595.484,376.79 598.223,376.79 600.022,376.32 601.9,375.851 603.074,375.772 603.935,375.694 606.204,375.616 606.517,375.538 607.3,375.616 599.396,343.925 624.906,323.58 625.61,323.032 626.314,322.328 614.42,316.146 612.073,314.268 M596.032,290.323 L596.188,292.123 Q602.526,306.678 612.073,314.268 614.42,316.146 626.314,322.328 L630.853,323.11 Q634.296,321.702 638.6,313.251 642.669,305.191 642.669,301.044 642.669,296.036 631.401,283.829 626.001,277.96 621.932,274.908 617.472,271.465 614.733,271.465 610.273,271.465 603.152,280.229 600.414,283.594 596.032,290.323 M619.037,279.838 Q618.568,279.134 618.489,279.055 618.568,279.134 619.037,279.838 620.211,281.481 623.967,287.037 630.462,295.566 636.252,299.4 630.462,295.566 623.967,287.037 620.211,281.481 619.037,279.838Z" test="Bottle" stroke-width="1.565"/>
          <path id="Layer10_0_1_STROKES" stroke="#FFF" stroke-width="1.565" stroke-linejoin="round" stroke-linecap="round" fill="none" d="M596.188,292.123 Q602.526,306.678 612.073,314.268 614.42,316.146 626.314,322.328 M630.853,323.11 Q634.296,321.702 638.6,313.251 642.669,305.191 642.669,301.044 642.669,296.036 631.401,283.829 626.001,277.96 621.932,274.908 617.472,271.465 614.733,271.465 610.273,271.465 603.152,280.229 600.414,283.594 596.032,290.323 M636.252,299.4 Q630.462,295.566 623.967,287.037 620.211,281.481 619.037,279.838 618.568,279.134 618.489,279.055 M489.299,343.22 Q489.064,346.272 492.585,352.532 494.62,356.288 497.202,359.888 497.75,360.67 503.071,370.764 509.722,381.954 517.234,389.388 527.798,399.795 539.144,406.29 550.647,412.941 558.472,412.863 562.697,412.785 570.209,414.428 578.817,416.228 581.242,416.541 M607.3,375.616 Q606.517,375.538 606.204,375.616 603.935,375.694 603.074,375.772 601.9,375.851 600.022,376.32 598.223,376.79 595.484,376.79 588.754,376.79 571.852,365.365 555.655,354.488 546.578,344.551 539.066,336.256 536.953,326.162 535.857,315.676 534.605,309.338 534.449,308.477 534.292,307.695 M581.242,416.541 Q581.555,416.619 581.712,416.619 581.712,416.854 580.851,417.01" test="Bottle"/>
          <path id="Layer10_0_2_STROKES" stroke="#0F0" stroke-width="1.565" stroke-linejoin="round" stroke-linecap="round" fill="none" d="M534.605,309.338 Q534.449,309.26 534.292,309.26 518.329,308.634 506.748,321.154 497.202,331.483 489.299,343.22 M581.242,416.541 Q598.614,399.717 606.674,377.181 606.987,376.398 607.3,375.616 599.396,343.925 624.906,323.58 625.61,323.032 626.314,322.328 M596.188,292.123 Q568.566,311.529 534.605,309.338 M580.851,417.01 Q564.419,437.042 550.334,458.796 532.414,486.34 509.878,509.423 496.654,522.961 480.143,516.857 450.33,506.059 424.116,487.357 398.92,469.359 413.709,443.38 429.75,415.21 451.426,390.796 471.536,368.026 489.299,343.22 M580.851,417.01 L581.242,416.541" test="Bottle"/>
        </g>
        <g id="Banana">
          <path fill="#000" stroke="none" d="M413.929,247.049 L413.147,247.832 Q407.983,255.344 401.722,267.16 396.871,276.158 394.445,278.506 386.386,286.096 376.291,292.434 366.119,298.381 362.128,301.042 343.348,313.484 326.681,339.619 310.17,365.363 311.578,378.979 L311.578,385.708 Q311.735,385.943 312.596,385.943 315.569,385.943 318.152,381.326 319.56,378.744 321.751,373.58 322.612,372.015 326.29,367.007 328.168,364.424 328.402,363.955 337.166,361.529 350.86,352.374 366.588,341.967 373.396,332.185 380.282,322.326 395.775,310.275 410.721,298.616 411.504,297.364 L412.052,297.364 412.052,300.494 Q407.983,318.022 388.655,350.965 378.561,368.102 376.135,372.875 370.501,383.517 370.188,388.682 370.657,388.682 372.222,388.995 373.709,389.23 374.413,389.23 380.439,389.23 397.419,373.267 415.103,356.678 422.928,342.436 424.572,339.384 426.528,327.49 428.641,314.736 429.267,312.858 431.301,307.38 431.77,305.737 432.397,303.233 433.57,299.007 439.517,308.319 446.951,316.77 452.116,322.795 472.226,345.644 481.303,356.286 485.685,378.901 488.345,392.673 488.345,401.515 495.231,401.593 499.3,392.516 502.9,384.3 502.9,372.015 502.9,360.355 498.831,350.731 496.796,345.957 489.362,334.063 482.398,322.874 478.877,313.64 473.556,299.633 462.992,290.948 452.35,282.184 448.516,273.576 444.604,264.969 441.082,258.004 437.561,250.962 438.657,249.006 L437.405,247.597 Q435.214,249.553 431.692,250.805 427.702,252.136 423.946,252.136 422.146,252.136 417,250.023 414.634,248.301 413.929,247.049 M432.475,207.533 Q425.667,205.499 423.554,212.463 422.928,214.654 422.381,224.2 421.755,233.512 417.607,238.598 413.695,243.528 413.695,246.423 413.695,246.736 413.929,247.049 414.634,248.301 417,250.023 422.146,252.136 423.946,252.136 427.702,252.136 431.692,250.805 435.214,249.553 437.405,247.597 438.657,246.502 439.439,245.171 438.97,244.858 438.5,244.624 436.7,243.45 435.448,242.511 432.71,240.633 431.849,239.694 430.362,237.972 430.362,227.409 430.362,220.366 432.475,207.533Z" test="Banana" stroke-width="1.565"/>
          <path id="Layer11_0_1_STROKES" stroke="#FF0" stroke-width="1.565" stroke-linejoin="round" stroke-linecap="round" fill="none" d="M438.657,249.006 Q437.561,250.962 441.082,258.004 444.604,264.969 448.516,273.576 452.35,282.184 462.992,290.948 473.556,299.633 478.877,313.64 482.398,322.874 489.362,334.063 496.796,345.957 498.831,350.731 502.9,360.355 502.9,372.015 502.9,384.3 499.3,392.516 495.231,401.593 488.345,401.515 488.345,392.673 485.685,378.901 481.303,356.286 472.226,345.644 452.116,322.795 446.951,316.77 439.517,308.319 433.57,299.007 432.397,303.233 431.77,305.737 431.301,307.38 429.267,312.858 428.641,314.736 426.528,327.49 424.572,339.384 422.928,342.436 415.103,356.678 397.419,373.267 380.439,389.23 374.413,389.23 373.709,389.23 372.222,388.995 370.657,388.682 370.188,388.682 370.501,383.517 376.135,372.875 378.561,368.102 388.655,350.965 407.983,318.022 412.052,300.494 L412.052,297.364 411.504,297.364 Q410.721,298.616 395.775,310.275 380.282,322.326 373.396,332.185 366.588,341.967 350.86,352.374 337.166,361.529 328.402,363.955 328.168,364.424 326.29,367.007 322.612,372.015 321.751,373.58 319.56,378.744 318.152,381.326 315.569,385.943 312.596,385.943 311.735,385.943 311.578,385.708 L311.578,378.979 Q310.17,365.363 326.681,339.619 343.348,313.484 362.128,301.042 366.119,298.381 376.291,292.434 386.386,286.096 394.445,278.506 396.871,276.158 401.722,267.16 407.983,255.344 413.147,247.832" test="Banana"/>
          <path id="Layer11_0_2_STROKES" stroke="#FFF" stroke-width="1.565" stroke-linejoin="round" stroke-linecap="round" fill="none" d="M413.929,247.049 Q413.695,246.736 413.695,246.423 413.695,243.528 417.607,238.598 421.755,233.512 422.381,224.2 422.928,214.654 423.554,212.463 425.667,205.499 432.475,207.533 430.362,220.366 430.362,227.409 430.362,237.972 431.849,239.694 432.71,240.633 435.448,242.511 436.7,243.45 438.5,244.624 438.97,244.858 439.439,245.171 438.657,246.502 437.405,247.597 M413.929,247.049 Q414.634,248.301 417,250.023 422.146,252.136 423.946,252.136 427.702,252.136 431.692,250.805 435.214,249.553 437.405,247.597" test="Banana"/>
        </g>
      </g>
      <g id="Tween-4">
        <path id="Layer5_0_1_STROKES" stroke="#FFF" stroke-width="1.565" stroke-linejoin="round" stroke-linecap="round" fill="none" d="M554.674,398.552 Q554.674,392.448 563.829,387.675" test="Tween 4"/>
        <g id="Garbage">
          <path fill="#000" stroke="none" d="M450.836,361.82 L448.802,360.646 Q448.645,360.959 448.176,361.82 448.645,360.959 448.802,360.646 448.802,360.49 448.802,360.411 448.802,355.638 446.063,353.76 442.307,351.021 431.587,351.021 420.241,351.021 396.687,362.915 393.949,364.246 389.488,372.697 388.784,374.105 387.923,375.279 387.297,368.315 378.924,363.463 370.63,358.533 360.379,358.533 348.72,358.533 339.721,363.933 328.375,370.74 328.375,383.495 328.375,384.121 328.453,384.669 322.976,379.504 310.143,379.504 299.344,379.504 292.693,382.869 285.651,386.469 279.469,395.624 274.617,402.745 273.913,408.222 273.522,411.117 274.07,414.404 271.253,407.909 268.905,404.857 264.758,399.38 255.29,399.38 246.369,399.38 240.266,404.779 234.319,410.178 234.319,417.925 234.319,419.334 235.179,430.758 232.91,434.827 231.58,439.209 229.467,447.895 229.467,456.033 229.467,463.467 234.866,468.162 239.796,472.465 246.134,472.465 248.482,472.465 256.541,471.135 264.523,469.805 269.766,469.805 276.026,469.805 291.911,474.343 307.717,478.882 324.071,478.882 328.845,478.882 367.031,475.439 411.007,471.918 444.498,471.918 452.01,471.839 457.722,471.918 L477.05,472.935 477.833,472.544 Q478.693,472.231 479.398,472.152 484.014,471.918 488.083,469.648 491.135,468.709 493.091,467.849 505.298,462.528 507.881,462.293 L508.428,462.293 Q508.428,462.058 544.971,472.309 585.113,482.716 601.468,482.716 620.248,482.716 629.325,473.091 633.941,468.318 634.724,463.31 634.724,460.806 634.567,460.571 634.489,460.415 634.333,460.258 633.707,459.711 632.063,459.554 633.707,459.711 634.333,460.258 L634.724,459.554 Q637.228,457.989 645.209,455.094 651.939,451.573 651.939,445.078 651.939,441.009 647.087,439.679 L647.635,439.679 Q650.139,437.253 656.712,432.088 662.111,427.08 662.111,421.916 662.111,417.534 659.451,412.291 656.086,405.796 651.156,405.796 643.018,407.753 640.123,407.987 643.879,404.779 643.879,403.136 643.723,400.475 642.236,397.971 639.419,393.042 633.081,393.042 620.639,393.042 615.396,394.841 610.232,396.641 601.937,403.684 600.216,394.763 594.347,389.051 588.243,383.26 580.184,383.26 572.046,383.26 563.829,387.642 L554.674,398.519 Q554.674,399.928 555.691,408.535 554.987,408.144 553.266,407.753 551.622,407.44 550.605,407.44 546.849,407.44 542.389,411.743 540.746,413.387 538.555,417.143 536.52,420.742 535.816,423.011 535.659,423.716 535.503,424.498 534.799,427.315 532.451,429.193 531.747,429.741 530.886,430.054 530.573,429.819 530.338,429.584 525.956,425.281 524.783,419.334 524.157,417.456 522.905,415.421 520.635,411.587 517.036,407.987 525.643,408.926 532,406.188 541.215,403.136 542.232,396.719 542.389,395.78 542.389,394.763 542.389,390.694 541.685,388.503 540.198,383.73 535.268,379.504 530.103,375.044 524.548,373.949 522.748,373.557 517.583,373.557 517.662,373.401 521.966,365.811 522.357,365.106 522.67,364.402 L523.374,363.463 Q523.765,362.915 523.843,362.524 524.47,359.316 523.53,356.186 522.983,354.699 520.792,350.082 518.288,344.918 515.236,342.727 508.037,337.562 490.353,337.562 471.807,337.562 455.844,355.56 453.34,358.377 450.836,361.82 M492.7,398.284 Q492.387,399.067 491.761,400.319 492.387,399.067 492.7,398.284 493.326,396.876 493.326,395.78 493.326,389.364 487.692,389.364 484.875,389.364 482.058,390.146 476.424,391.79 476.111,395.937 476.424,391.79 482.058,390.146 484.875,389.364 487.692,389.364 493.326,389.364 493.326,395.78 493.326,396.876 492.7,398.284 M608.197,428.176 Q612.266,430.836 612.266,435.062 612.266,430.836 608.197,428.176 604.832,425.985 601.155,425.985 595.99,425.985 593.095,427.785 590.043,429.584 590.043,432.871 590.043,429.584 593.095,427.785 595.99,425.985 601.155,425.985 604.832,425.985 608.197,428.176 M366.248,403.684 Q370.787,406.109 371.882,409.083 370.787,406.109 366.248,403.684 362.023,401.493 358.736,401.493 354.511,401.493 351.459,404.231 347.233,408.144 347.233,416.595 347.233,417.847 347.468,418.551 347.938,419.803 349.346,421.916 347.938,419.803 347.468,418.551 347.233,417.847 347.233,416.595 347.233,408.144 351.459,404.231 354.511,401.493 358.736,401.493 362.023,401.493 366.248,403.684 M429.944,396.719 Q431.039,398.597 431.039,403.449 431.039,412.213 424.153,418.238 416.719,424.655 405.217,424.107 416.719,424.655 424.153,418.238 431.039,412.213 431.039,403.449 431.039,398.597 429.944,396.719 428.692,394.528 425.17,394.528 424.466,394.528 423.449,394.841 421.962,395.311 420.319,395.624 421.962,395.311 423.449,394.841 424.466,394.528 425.17,394.528 428.692,394.528 429.944,396.719Z" test="Garbage" stroke-width="1.565"/>
          <path id="Layer7_0_1_STROKES" stroke="#FFF" stroke-width="1.565" stroke-linejoin="round" stroke-linecap="round" fill="none" d="M448.802,360.646 Q448.645,360.959 448.176,361.82 M634.333,460.258 Q634.489,460.415 634.567,460.571 634.724,460.806 634.724,463.31 633.941,468.318 629.325,473.091 620.248,482.716 601.468,482.716 585.113,482.716 544.971,472.309 508.428,462.058 508.428,462.293 L507.881,462.293 Q505.298,462.528 493.091,467.849 491.135,468.709 488.083,469.648 484.014,471.918 479.398,472.152 478.693,472.231 477.833,472.544 L477.05,472.935 457.722,471.918 Q452.01,471.839 444.498,471.918 411.007,471.918 367.031,475.439 328.845,478.882 324.071,478.882 307.717,478.882 291.911,474.343 276.026,469.805 269.766,469.805 264.523,469.805 256.541,471.135 248.482,472.465 246.134,472.465 239.796,472.465 234.866,468.162 229.467,463.467 229.467,456.033 229.467,447.895 231.58,439.209 232.91,434.827 235.179,430.758 234.319,419.334 234.319,417.925 234.319,410.178 240.266,404.779 246.369,399.38 255.29,399.38 264.758,399.38 268.905,404.857 271.253,407.909 274.07,414.404 273.522,411.117 273.913,408.222 274.617,402.745 279.469,395.624 285.651,386.469 292.693,382.869 299.344,379.504 310.143,379.504 322.976,379.504 328.453,384.669 328.375,384.121 328.375,383.495 328.375,370.74 339.721,363.933 348.72,358.533 360.379,358.533 370.63,358.533 378.924,363.463 387.297,368.315 387.923,375.279 388.784,374.105 389.488,372.697 393.949,364.246 396.687,362.915 420.241,351.021 431.587,351.021 442.307,351.021 446.063,353.76 448.802,355.638 448.802,360.411 448.802,360.49 448.802,360.646 M450.836,361.82 Q453.34,358.377 455.844,355.56 471.807,337.562 490.353,337.562 508.037,337.562 515.236,342.727 518.288,344.918 520.792,350.082 522.983,354.699 523.53,356.186 524.47,359.316 523.843,362.524 523.765,362.915 523.374,363.463 L522.67,364.402 Q522.357,365.106 521.966,365.811 517.662,373.401 517.583,373.557 522.748,373.557 524.548,373.949 530.103,375.044 535.268,379.504 540.198,383.73 541.685,388.503 542.389,390.694 542.389,394.763 542.389,395.78 542.232,396.719 541.215,403.136 532,406.188 525.643,408.926 517.036,407.987 520.635,411.587 522.905,415.421 524.157,417.456 524.783,419.334 525.956,425.281 530.338,429.584 530.573,429.819 530.886,430.054 531.747,429.741 532.451,429.193 534.799,427.315 535.503,424.498 535.659,423.716 535.816,423.011 536.52,420.742 538.555,417.143 540.746,413.387 542.389,411.743 546.849,407.44 550.605,407.44 551.622,407.44 553.266,407.753 554.987,408.144 555.691,408.535 554.674,399.928 554.674,398.519 M563.829,387.642 Q572.046,383.26 580.184,383.26 588.243,383.26 594.347,389.051 600.216,394.763 601.937,403.684 610.232,396.641 615.396,394.841 620.639,393.042 633.081,393.042 639.419,393.042 642.236,397.971 643.723,400.475 643.879,403.136 643.879,404.779 640.123,407.987 643.018,407.753 651.156,405.796 656.086,405.796 659.451,412.291 662.111,417.534 662.111,421.916 662.111,427.08 656.712,432.088 650.139,437.253 647.635,439.679 L647.087,439.679 Q651.939,441.009 651.939,445.078 651.939,451.573 645.209,455.094 637.228,457.989 634.724,459.554 M632.063,459.554 Q633.707,459.711 634.333,460.258 M476.111,395.937 Q476.424,391.79 482.058,390.146 484.875,389.364 487.692,389.364 493.326,389.364 493.326,395.78 493.326,396.876 492.7,398.284 492.387,399.067 491.761,400.319 M590.043,432.871 Q590.043,429.584 593.095,427.785 595.99,425.985 601.155,425.985 604.832,425.985 608.197,428.176 612.266,430.836 612.266,435.062 M349.346,421.916 Q347.938,419.803 347.468,418.551 347.233,417.847 347.233,416.595 347.233,408.144 351.459,404.231 354.511,401.493 358.736,401.493 362.023,401.493 366.248,403.684 370.787,406.109 371.882,409.083 M420.319,395.624 Q421.962,395.311 423.449,394.841 424.466,394.528 425.17,394.528 428.692,394.528 429.944,396.719 431.039,398.597 431.039,403.449 431.039,412.213 424.153,418.238 416.719,424.655 405.217,424.107" test="Garbage"/>
        </g>
        <g id="GarbageCloud">
          <path id="Layer8_0_1_STROKES" stroke="#FFF" stroke-width="1.565" stroke-linejoin="round" stroke-linecap="round" fill="none" d="M489.088,286.551 Q491.435,285.299 491.905,284.595 492.844,283.265 492.844,279.587 492.844,274.97 488.853,268.084 484.862,261.198 484.862,255.017 484.862,250.009 490.731,240.306 496.6,230.603 496.6,226.299 496.6,223.795 494.409,220.9 494.096,220.508 491.2,217.222 M581.736,261.824 Q582.675,259.79 586.431,256.425 591.439,251.808 595.507,251.574 596.603,253.765 596.603,255.877 596.603,256.425 591.204,261.824 L581.736,261.824 Q581.579,262.137 581.344,262.842 581.892,263.076 582.44,263.468 584.709,264.954 584.709,266.597 584.709,268.319 584.24,268.789 583.692,269.336 581.814,269.336 580.092,269.336 578.84,268.319 577.745,267.302 577.745,266.05 577.745,265.111 578.136,264.485 574.536,264.485 572.346,263.937 567.025,262.763 567.025,259.085 567.025,256.347 568.042,254.312 569.45,251.574 572.111,251.574 575.867,251.574 578.214,254.938 579.779,257.286 580.953,261.824 L581.736,261.824Z M578.136,264.485 L578.214,264.485 Q579.31,264.485 579.623,264.407 580.014,264.328 580.405,263.937 L580.405,262.842 Q579.388,263.233 578.84,263.624 578.371,263.937 578.136,264.485Z M581.344,262.842 Q579.701,262.059 578.293,262.372 M309.347,248.444 Q309.582,247.661 309.895,246.879 305.278,247.035 300.818,250.165 296.906,252.747 295.575,255.33 L295.575,260.729 300.427,260.729 Q307.782,255.173 308.8,250.478 309.034,249.461 309.347,248.444 308.956,248.444 308.487,248.444 M314.903,249.539 Q313.573,248.365 312.712,247.739 310.599,247.818 310.13,247.896 M312.712,247.739 Q312.008,247.192 311.617,246.957 311.382,246.8 310.678,246.8 310.286,246.8 309.895,246.879 311.93,241.714 316.546,236.002 L321.398,236.002 Q321.398,236.55 321.711,237.958 321.946,239.367 321.946,240.071 321.946,246.096 316.625,247.505 314.277,247.661 312.712,247.739Z M351.994,270.432 Q354.106,265.972 355.593,262.607 358.488,256.112 358.488,253.686 358.488,251.652 354.185,247.348 349.881,242.966 349.881,241.636 349.881,237.802 351.759,231.933 353.637,225.986 353.637,223.404 353.637,217.77 353.324,216.126 352.62,211.979 349.881,210.727 M309.582,249.539 L309.347,250.556 Q309.034,251.808 309.034,252.669 309.034,254.078 310.599,254.782 311.773,255.33 312.869,255.33 313.651,255.33 314.59,255.017 316.39,254.391 316.546,254.312 316.233,250.948 314.042,249.539 312.399,248.6 309.347,248.444" test="GarbageCloud"/>
        </g>
      </g>
      <path fill="#000" stroke="none" d="M152.474,437.084 L152.474,756.344 754.686,756.344 754.686,437.084 152.474,437.084Z" test="GarbageDrawerGroup" stroke-width="1.565"/>
      <g id="Drawer">
        <path fill="#000" stroke="none" d="M705.43,506.083 Q704.961,506.552 704.57,507.022 L704.57,533.548 Q704.961,533.94 705.43,534.409 711.143,540.121 719.124,540.278 L719.594,540.278 Q727.888,540.278 733.757,534.409 739.626,528.54 739.626,520.246 739.626,511.951 733.757,506.083 727.888,500.214 719.594,500.214 L719.124,500.214 Q711.143,500.37 705.43,506.083 M175.6,421.964 Q170.592,444.969 171.531,470.244 174.504,541.373 173.409,586.367 172.47,630.109 175.6,642.316 272.63,640.986 368.408,645.055 406.281,643.959 431.477,645.289 457.065,646.62 474.828,646.62 481.636,646.62 488.6,646.541 498.381,647.715 508.084,647.559 525.925,646.15 543.61,643.568 561.92,641.299 580.465,643.411 598.228,645.446 615.834,644.976 634.301,644.429 652.612,643.333 674.052,642.942 704.57,642.316 L704.57,540.278 704.57,533.548 704.57,507.022 Q704.492,503.579 704.492,500.214 703.474,447.16 704.57,394.42 L670.766,394.42 670.766,421.964 588.76,418.912 Q371.616,426.033 175.6,421.964Z" test="Drawer" stroke-width="1.565"/>
        <path id="Layer4_0_1_STROKES" stroke="#F60" stroke-width="3.13" stroke-linejoin="round" stroke-linecap="round" fill="none" d="M704.57,533.548 L704.57,540.278 704.57,642.316 Q674.052,642.942 652.612,643.333 634.301,644.429 615.834,644.976 598.228,645.446 580.465,643.411 561.92,641.299 543.61,643.568 525.925,646.15 508.084,647.559 498.381,647.715 488.6,646.541 481.636,646.62 474.828,646.62 457.065,646.62 431.477,645.289 406.281,643.959 368.408,645.055 272.63,640.986 175.6,642.316 172.47,630.109 173.409,586.367 174.504,541.373 171.531,470.244 170.592,444.969 175.6,421.964 371.616,426.033 588.76,418.912 L670.766,421.964 670.766,394.42 704.57,394.42 Q703.474,447.16 704.492,500.214 704.492,503.579 704.57,507.022 704.961,506.552 705.43,506.083 711.143,500.37 719.124,500.214 L719.594,500.214 Q727.888,500.214 733.757,506.083 739.626,511.951 739.626,520.246 739.626,528.54 733.757,534.409 727.888,540.278 719.594,540.278 L719.124,540.278 Q711.143,540.121 705.43,534.409 704.961,533.94 704.57,533.548 L704.57,507.022" test="Drawer"/>
      </g>
      <g id="DrawersCabinetFront">
        <path fill="#000" stroke="none" d="M215.51,797.963 Q215.901,798.354 216.37,798.824 222.083,804.536 230.064,804.692 L230.534,804.692 Q238.828,804.692 244.697,798.824 250.566,792.955 250.566,784.66 250.566,776.366 244.697,770.497 238.828,764.628 230.534,764.628 L230.064,764.628 Q222.083,764.785 216.37,770.497 215.901,770.967 215.51,771.436 L215.51,797.963 M215.51,658.834 L181.706,658.834 181.706,686.378 99.7,683.327 Q-117.444,690.447 -313.46,686.378 -318.468,709.384 -317.529,734.659 -314.556,805.788 -315.651,850.782 -316.59,894.523 -313.46,906.73 -216.43,905.4 -120.652,909.469 -82.779,908.374 -57.583,909.704 -31.995,911.034 -14.232,911.034 -7.425,911.034 -.46,910.956 9.321,912.13 19.024,911.973 36.865,910.565 54.549,907.982 72.86,905.713 91.405,907.826 109.168,909.86 126.774,909.391 145.241,908.843 163.552,907.748 184.992,907.356 215.51,906.73 L215.51,804.692 215.51,797.963 215.51,771.436 Q215.432,767.993 215.432,764.628 214.414,711.575 215.51,658.834Z" test="DrawersCabinetFront" stroke-width="1.565"/>
        <path id="Layer3_0_1_STROKES" stroke="#F60" stroke-width="3.13" stroke-linejoin="round" stroke-linecap="round" fill="none" d="M215.51,797.963 L215.51,804.692 215.51,906.73 Q184.992,907.356 163.552,907.748 145.241,908.843 126.774,909.391 109.168,909.86 91.405,907.826 72.86,905.713 54.549,907.982 36.865,910.565 19.024,911.973 9.321,912.13 -.46,910.956 -7.425,911.034 -14.232,911.034 -31.995,911.034 -57.583,909.704 -82.779,908.374 -120.652,909.469 -216.43,905.4 -313.46,906.73 -316.59,894.523 -315.651,850.782 -314.556,805.788 -317.529,734.659 -318.468,709.384 -313.46,686.378 -117.444,690.447 99.7,683.327 L181.706,686.378 181.706,658.834 215.51,658.834 Q214.414,711.575 215.432,764.628 215.432,767.993 215.51,771.436 215.901,770.967 216.37,770.497 222.083,764.785 230.064,764.628 L230.534,764.628 Q238.828,764.628 244.697,770.497 250.566,776.366 250.566,784.66 250.566,792.955 244.697,798.824 238.828,804.692 230.534,804.692 L230.064,804.692 Q222.083,804.536 216.37,798.824 215.901,798.354 215.51,797.963 L215.51,771.436" test="DrawersCabinetFront"/>
        <path fill="#000" stroke="none" d="M141.72,381.829 Q108.071,380.585 75.677,378.699 43.372,376.895 -42.168,377.213 -127.648,377.615 -167.133,378.073 -206.521,378.61 -256.494,378.152 -306.485,377.687 -335.37,381.203 -337.405,397.792 -339.752,531.209 -342.178,669.789 -339.909,697.099 -339.048,708.21 -344.76,808.292 -350.391,908.372 -346.09,910.565 -341.718,912.759 -330.127,911.895 -325.785,911.627 -320.737,910.956 -311.034,909.704 -301.253,908.452 -255.32,903.757 -209.309,905.165 -187.966,905.306 -165.333,905.556 -51.636,906.887 -36.612,906.887 -22.683,906.887 79.276,910.799 80.45,910.878 81.702,910.878 84.91,911.034 88.119,911.112 92.657,911.269 97.039,911.347 179.437,913.773 181.314,910.799 183.505,907.356 183.662,893.741 183.584,874.335 183.584,861.737 183.584,770.106 184.757,738.258 185.305,722.608 183.584,650.149 181.94,577.22 182.488,558.987 183.504,525.271 182.723,453.741 182.022,382.2 178.732,382.612 175.441,383.095 141.72,381.829Z" test="DrawersCabinetFront" stroke-width="1.565"/>
        <path id="Layer2_0_1_STROKES" stroke="#F60" stroke-width="3.13" stroke-linejoin="round" stroke-linecap="round" fill="none" d="M-335.37,381.203 Q-306.485,377.687 -256.494,378.152 -206.521,378.61 -167.094,378.112 -127.648,377.615 -42.128,377.252 43.372,376.895 75.716,378.738 108.071,380.585 141.759,381.829 175.441,383.095 178.732,382.651 182.022,382.2 182.762,453.741 183.504,525.271 182.488,558.987 181.94,577.22 183.584,650.149 185.305,722.608 184.757,738.258 183.584,770.106 183.584,861.737 183.584,874.335 183.662,893.741 183.505,907.356 181.314,910.799 179.437,913.773 97.039,911.347 92.657,911.269 88.119,911.112 84.91,911.034 81.702,910.878 80.45,910.878 79.276,910.799 -22.683,906.887 -36.612,906.887 -51.636,906.887 -165.333,905.556 -187.966,905.306 -209.309,905.165 -255.32,903.757 -301.253,908.452 -311.034,909.704 -320.737,910.995 -325.785,911.627 -330.088,911.934 -341.718,912.759 -346.051,910.565 -350.391,908.372 -344.721,808.292 -339.048,708.21 -339.909,697.099 -342.178,669.789 -339.752,531.209 -337.405,397.792 -335.37,381.203Z" test="DrawersCabinetFront"/>
      </g>
    </g>
  </g>
</svg>