<?xml version="1.0" encoding="utf-8"?>
<svg id="EdithAnim12" image-rendering="inherit" baseProfile="basic" version="1.1" x="0px" y="0px" width="800" height="600" xmlns="http://www.w3.org/2000/svg" xmlns:xlink="http://www.w3.org/1999/xlink">
  <g id="21_GarbageDrawerf136r1" overflow="visible">
    <g id="GarbageDrawerGroupf136r1">
      <g id="Tween-6">
        <path fill="#000" stroke="none" d="M292.531,341.606 Q288.387,339.413 286.275,339.413 276.119,339.413 270.431,351.681 265.719,361.594 265.069,376.788 264.987,377.113 264.906,377.438 264.338,379.225 262.469,381.013 L249.387,381.013 Q249.144,381.094 244.025,381.581 240.288,381.988 238.987,383.938 238.581,384.506 238.5,386.213 238.419,388.163 238.337,388.488 236.387,386.538 226.637,386.538 214.287,386.538 214.287,396.613 214.287,397.506 214.531,400.188 214.694,403.194 214.937,404.088 212.175,404.575 209.412,407.906 205.513,412.456 205.513,419.525 205.513,420.906 206.406,424.481 206.894,426.513 207.787,430.088 208.356,432.606 208.925,433.5 210.631,435.938 214.937,436.588 216.075,436.75 229.725,440.406 247.275,444.388 267.913,446.663 275.713,447.556 327.713,455.356 367.769,461.369 395.313,462.588 423.831,463.888 462.019,466.975 488.75,469.088 512.475,469.088 533.356,469.088 565.206,462.994 598.031,456.819 607.213,450.563 610.706,448.206 614.2,447.231 618.019,446.175 619.887,445.038 626.713,440.65 628.338,438.213 632.806,431.388 633.781,428.463 634.188,427.244 634.188,423.75 634.188,420.094 633.213,417.575 631.75,414.813 630.938,413.188 L630.938,412.538 Q629.963,411.563 629.963,410.263 629.963,410.181 636.625,404.981 643.287,398.969 643.287,395.313 643.287,388.65 641.5,384.263 639.063,378.413 632.888,374.188 629.313,371.75 622.894,370.369 616.719,369.231 615.338,368.663 616.069,367.281 619.563,363.3 622.813,358.994 622.813,354.525 622.813,347.7 617.938,341.363 611.6,333.238 600.713,333.238 593.481,333.238 588.038,335.188 588.688,334.456 589.175,333.644 589.988,332.1 589.988,329.338 589.988,322.756 582.512,317.313 572.762,310.163 554.4,310.163 L544.813,311.3 Q540.831,313.088 538.475,318.775 538.313,319.344 537.988,319.913 538.313,319.344 538.475,318.775 540.181,312.681 528.238,307.319 517.35,302.363 509.225,302.363 499.638,302.363 495.575,305.45 491.513,308.538 490.537,316.663 487.287,313.413 485.419,312.031 482.169,309.513 479.813,309.513 469.981,309.513 464.456,313.9 461.694,316.094 453.487,327.063 L453.487,326.738 Q452.513,319.994 451.862,317.394 450.888,313.006 448.856,310.813 444.063,305.613 425.375,305.613 421.638,305.613 417.819,307.725 414,309.756 410.912,313.413 410.1,312.6 408.394,309.594 406.362,306.019 406.362,305.938 401.244,298.3 397.912,295.619 394.256,292.613 389.463,292.613 363.869,292.613 349.244,301.875 336.65,309.919 339.088,318.613 335.838,314.55 333.806,312.519 330.231,308.863 326.575,308.863 314.631,308.863 304.638,320.969 294.725,332.913 296.838,344.288 296.188,343.475 292.531,341.606 M350.787,349.569 Q353.225,350.706 356.963,353.063 359.563,354.444 359.888,354.688 360.537,355.094 359.563,355.013 360.537,355.094 359.888,354.688 359.563,354.444 356.963,353.063 353.225,350.706 350.787,349.569 346.4,347.538 341.688,347.538 326.575,347.538 318.287,354.688 326.575,347.538 341.688,347.538 346.4,347.538 350.787,349.569 M408.719,341.931 Q415.3,339.088 422.612,339.088 429.112,339.088 433.987,349.488 433.987,350.138 433.419,350.788 432.769,351.519 432.037,351.763 432.769,351.519 433.419,350.788 433.987,350.138 433.987,349.488 429.112,339.088 422.612,339.088 415.3,339.088 408.719,341.931 401.894,344.938 398.563,349.813 401.894,344.938 408.719,341.931 M523.525,335.513 Q524.094,335.513 527.831,339.575 531.488,343.638 531.488,344.288 531.488,352.656 528.319,357.044 526.206,359.969 523.362,360.538 526.206,359.969 528.319,357.044 531.488,352.656 531.488,344.288 531.488,343.638 527.831,339.575 524.094,335.513 523.525,335.513 503.05,335.513 493.463,343.638 503.05,335.513 523.525,335.513 M594.7,354.281 Q598.113,356.881 598.113,366.875 598.113,376.706 589.744,383.125 583.081,388.244 578.288,387.838 583.081,388.244 589.744,383.125 598.113,376.706 598.113,366.875 598.113,356.881 594.7,354.281 591.45,351.763 578.938,352.088 591.45,351.763 594.7,354.281 M600.387,384.913 Q612.006,384.75 612.981,385.075 617.288,386.375 617.288,394.663 617.288,397.425 614.769,400.025 613.144,401.569 608.838,404.413 607.7,405.144 605.75,406.85 603.963,408.313 603.313,408.638 603.963,408.313 605.75,406.85 607.7,405.144 608.838,404.413 613.144,401.569 614.769,400.025 617.288,397.425 617.288,394.663 617.288,386.375 612.981,385.075 612.006,384.75 600.387,384.913Z" test="Tween 6" stroke-width="1.625"/>
        <path id="Layer5_0_1_STROKES" stroke="#FFF" stroke-width="1.625" stroke-linejoin="round" stroke-linecap="round" fill="none" d="M630.938,413.188 Q631.75,414.813 633.213,417.575 634.188,420.094 634.188,423.75 634.188,427.244 633.781,428.463 632.806,431.388 628.338,438.213 626.713,440.65 619.887,445.038 618.019,446.175 614.2,447.231 610.706,448.206 607.213,450.563 598.031,456.819 565.206,462.994 533.356,469.088 512.475,469.088 488.75,469.088 462.019,466.975 423.831,463.888 395.313,462.588 367.769,461.369 327.713,455.356 275.713,447.556 267.913,446.663 247.275,444.388 229.725,440.406 216.075,436.75 214.937,436.588 210.631,435.938 208.925,433.5 208.356,432.606 207.787,430.088 206.894,426.513 206.406,424.481 205.513,420.906 205.513,419.525 205.513,412.456 209.412,407.906 212.175,404.575 214.937,404.088 214.694,403.194 214.531,400.188 214.287,397.506 214.287,396.613 214.287,386.538 226.637,386.538 236.387,386.538 238.337,388.488 238.419,388.163 238.5,386.213 238.581,384.506 238.987,383.938 240.288,381.988 244.025,381.581 249.144,381.094 249.387,381.013 L262.469,381.013 Q264.338,379.225 264.906,377.438 264.987,377.113 265.069,376.788 265.719,361.594 270.431,351.681 276.119,339.413 286.275,339.413 288.387,339.413 292.531,341.606 296.188,343.475 296.838,344.288 294.725,332.913 304.638,320.969 314.631,308.863 326.575,308.863 330.231,308.863 333.806,312.519 335.838,314.55 339.088,318.613 336.65,309.919 349.244,301.875 363.869,292.613 389.463,292.613 394.256,292.613 397.912,295.619 401.244,298.3 406.362,305.938 406.362,306.019 408.394,309.594 410.1,312.6 410.912,313.413 414,309.756 417.819,307.725 421.638,305.613 425.375,305.613 444.063,305.613 448.856,310.813 450.888,313.006 451.862,317.394 452.513,319.994 453.487,326.738 L453.487,327.063 Q461.694,316.094 464.456,313.9 469.981,309.513 479.813,309.513 482.169,309.513 485.419,312.031 487.287,313.413 490.537,316.663 491.513,308.538 495.575,305.45 499.638,302.363 509.225,302.363 517.35,302.363 528.238,307.319 540.181,312.681 538.475,318.775 540.831,313.088 544.813,311.3 547.494,310.163 554.4,310.163 572.762,310.163 582.512,317.313 589.988,322.756 589.988,329.338 589.988,332.1 589.175,333.644 588.688,334.456 588.038,335.188 593.481,333.238 600.713,333.238 611.6,333.238 617.938,341.363 622.813,347.7 622.813,354.525 622.813,358.994 619.563,363.3 616.069,367.281 615.338,368.663 616.719,369.231 622.894,370.369 629.313,371.75 632.888,374.188 639.063,378.413 641.5,384.263 643.287,388.65 643.287,395.313 643.287,398.969 636.625,404.981 629.963,410.181 629.963,410.263 629.963,411.563 630.938,412.538 M318.287,354.688 Q326.575,347.538 341.688,347.538 346.4,347.538 350.787,349.569 353.225,350.706 356.963,353.063 359.563,354.444 359.888,354.688 360.537,355.094 359.563,355.013 M398.563,349.813 Q401.894,344.938 408.719,341.931 415.3,339.088 422.612,339.088 429.112,339.088 433.987,349.488 433.987,350.138 433.419,350.788 432.769,351.519 432.037,351.763 M538.475,318.775 Q538.313,319.344 537.988,319.913 M493.463,343.638 Q503.05,335.513 523.525,335.513 524.094,335.513 527.831,339.575 531.488,343.638 531.488,344.288 531.488,352.656 528.319,357.044 526.206,359.969 523.362,360.538 M578.938,352.088 Q591.45,351.763 594.7,354.281 598.113,356.881 598.113,366.875 598.113,376.706 589.744,383.125 583.081,388.244 578.288,387.838 M600.387,384.913 Q612.006,384.75 612.981,385.075 617.288,386.375 617.288,394.663 617.288,397.425 614.769,400.025 613.144,401.569 608.838,404.413 607.7,405.144 605.75,406.85 603.963,408.313 603.313,408.638" test="Tween 6"/>
      </g>
      <g id="Tween-5">
        <g id="Tin-can-Rubbish">
          <path fill="#000" stroke="none" d="M258.781,327.856 Q246.025,343.213 239.769,348.981 224.9,362.713 213.2,363.037 L213.525,365.313 Q213.525,366.856 213.281,368.319 212.956,369.781 212.956,370.269 212.956,371.406 214.581,372.056 215.963,372.544 217.913,372.544 221.813,372.544 230.913,368.075 L231.319,368.075 Q226.931,373.925 226.931,375.631 226.931,380.425 232.7,380.425 236.194,380.425 236.681,380.263 237.169,380.019 239.444,378.313 239.85,377.419 240.256,377.013 L240.256,377.581 Q239.769,377.906 239.444,378.313 238.875,379.206 238.144,380.669 236.356,384.488 236.356,387.25 236.356,391.556 242.613,393.669 248.219,395.537 246.431,401.55 252.281,401.794 253.906,403.988 254.313,404.556 254.719,405.613 L254.719,405.694 Q269.425,399.763 275.763,395.131 281.856,390.581 284.375,384.244 281.856,390.581 275.763,395.131 269.425,399.763 254.719,405.694 255.288,407.319 255.938,410 256.669,411.869 260.325,414.713 262.681,416.662 261.462,420.563 L267.069,420.563 Q289.738,411.219 313.869,382.7 337.269,355.156 342.956,332.894 L342.956,327.856 Q339.219,327.044 334.588,327.856 L331.256,327.856 Q332.881,324.119 328.331,322.25 322.075,320.625 319.069,319.569 317.363,318.919 316.225,316.563 315.169,313.556 314.519,312.094 312.081,306.65 305.581,308.356 L305.581,303.888 Q306.719,302.75 306.719,301.125 306.719,298.85 302.25,298.444 297.213,298.363 296.075,298.281 296.075,297.469 296.644,295.438 297.213,293.488 297.213,292.838 297.213,289.831 292.175,289.425 294.45,285.281 290.713,283.006 287.463,281.787 285.431,280.975 287.788,282.438 287.788,285.769 287.788,296.25 279.744,305.431 267.394,317.537 258.781,327.856 M293.15,327.125 Q290.55,331.513 288.925,331.838 290.55,331.513 293.15,327.125 294.775,324.281 299.975,315.1 294.775,324.281 293.15,327.125 M325.325,339.719 Q322.238,344.431 318.5,345.731 322.238,344.431 325.325,339.719 328.494,334.844 330.119,327.856 328.494,334.844 325.325,339.719 M270.969,354.1 Q268.856,357.513 265.281,363.931 262.844,368.4 262.031,369.213 262.844,368.4 265.281,363.931 268.856,357.513 270.969,354.1 M225.713,324.688 Q212.631,341.425 211.169,349.875 210.356,354.019 210.113,356.294 209.706,358.65 209.869,359.138 209.788,359.381 209.706,359.625 209.625,360.275 209.625,360.763 209.625,362.063 210.113,362.469 210.763,363.037 212.631,363.037 212.875,363.037 213.2,363.037 224.9,362.713 239.769,348.981 246.025,343.213 258.781,327.856 267.394,317.537 279.744,305.431 287.788,296.25 287.788,285.769 287.788,282.438 285.431,280.975 284.456,280.406 283.238,280.162 282.019,279.919 280.475,279.919 273.406,279.919 256.1,293.975 238.794,307.95 225.713,324.688Z" test="Tin can Rubbish" stroke-width="1.625"/>
          <path id="Layer8_0_1_STROKES" stroke="#009EFF" stroke-width="1.625" stroke-linejoin="round" stroke-linecap="round" fill="none" d="M210.113,356.294 Q209.706,358.65 209.869,359.138 M285.431,280.975 Q287.463,281.787 290.713,283.006 294.45,285.281 292.175,289.425 297.213,289.831 297.213,292.838 297.213,293.488 296.644,295.438 296.075,297.469 296.075,298.281 297.213,298.363 302.25,298.444 306.719,298.85 306.719,301.125 306.719,302.75 305.581,303.888 L305.581,308.356 Q312.081,306.65 314.519,312.094 315.169,313.556 316.225,316.563 317.363,318.919 319.069,319.569 322.075,320.625 328.331,322.25 332.881,324.119 331.256,327.856 L334.588,327.856 Q339.219,327.044 342.956,327.856 L342.956,332.894 Q337.269,355.156 313.869,382.7 289.738,411.219 267.069,420.563 L261.462,420.563 Q262.681,416.662 260.325,414.713 256.669,411.869 255.938,410 255.288,407.319 254.719,405.694 L254.719,405.613 Q254.313,404.556 253.906,403.988 252.281,401.794 246.431,401.55 248.219,395.537 242.613,393.669 236.356,391.556 236.356,387.25 236.356,384.488 238.144,380.669 238.875,379.206 239.444,378.313 237.169,380.019 236.681,380.263 236.194,380.425 232.7,380.425 226.931,380.425 226.931,375.631 226.931,373.925 231.319,368.075 L230.913,368.075 Q221.813,372.544 217.913,372.544 215.963,372.544 214.581,372.056 212.956,371.406 212.956,370.269 212.956,369.781 213.281,368.319 213.525,366.856 213.525,365.313 M299.975,315.1 Q294.775,324.281 293.15,327.125 290.55,331.513 288.925,331.838 M330.119,327.856 Q328.494,334.844 325.325,339.719 322.238,344.431 318.5,345.731 M270.969,354.1 Q268.856,357.513 265.281,363.931 262.844,368.4 262.031,369.213 M239.444,378.313 Q239.769,377.906 240.256,377.581 L240.256,377.013 Q239.85,377.419 239.444,378.313Z M254.719,405.694 Q269.425,399.763 275.763,395.131 281.856,390.581 284.375,384.244" test="Tin can Rubbish"/>
          <path id="Layer8_0_2_STROKES" stroke="#FFF" stroke-width="1.625" stroke-linejoin="round" stroke-linecap="round" fill="none" d="M285.431,280.975 Q284.456,280.406 283.238,280.162 282.019,279.919 280.475,279.919 273.406,279.919 256.1,293.975 238.794,307.95 225.713,324.688 212.631,341.425 211.169,349.875 210.356,354.019 210.113,356.294 M209.869,359.138 Q209.788,359.381 209.706,359.625 209.625,360.275 209.625,360.763 209.625,362.063 210.113,362.469 210.763,363.037 212.631,363.037 212.875,363.037 213.2,363.037 224.9,362.713 239.769,348.981 246.025,343.213 258.781,327.856 267.394,317.537 279.744,305.431 287.788,296.25 287.788,285.769 287.788,282.438 285.431,280.975" test="Tin can Rubbish"/>
        </g>
        <g id="Bottle">
          <path fill="#000" stroke="none" d="M573.731,411.613 Q571.213,411.288 562.275,409.419 554.475,407.713 550.088,407.794 541.963,407.875 530.019,400.969 518.237,394.225 507.269,383.419 499.469,375.7 492.562,364.081 487.037,353.6 486.469,352.788 483.787,349.05 481.675,345.15 478.019,338.65 478.262,335.481 459.819,361.238 438.937,384.881 416.431,410.231 399.775,439.481 384.419,466.456 410.581,485.144 437.8,504.563 468.756,515.775 485.9,522.113 499.631,508.056 523.031,484.088 541.637,455.488 556.262,432.9 573.325,412.1 L573.731,411.613 M525.306,300.3 Q525.144,300.219 524.981,300.219 508.406,299.569 496.381,312.569 486.469,323.294 478.262,335.481 478.019,338.65 481.675,345.15 483.787,349.05 486.469,352.788 487.037,353.6 492.562,364.081 499.469,375.7 507.269,383.419 518.237,394.225 530.019,400.969 541.963,407.875 550.088,407.794 554.475,407.713 562.275,409.419 571.213,411.288 573.731,411.613 591.769,394.144 600.137,370.744 600.463,369.931 600.787,369.119 599.975,369.038 599.65,369.119 597.294,369.2 596.4,369.281 595.181,369.363 593.231,369.85 591.363,370.338 588.519,370.338 581.531,370.338 563.981,358.475 547.162,347.181 537.738,336.863 529.938,328.25 527.744,317.769 526.606,306.881 525.306,300.3 M605.744,305.419 Q595.831,297.538 589.25,282.425 560.569,302.575 525.306,300.3 526.606,306.881 527.744,317.769 529.938,328.25 537.738,336.863 547.162,347.181 563.981,358.475 581.531,370.338 588.519,370.338 591.363,370.338 593.231,369.85 595.181,369.363 596.4,369.281 597.294,369.2 599.65,369.119 599.975,369.038 600.787,369.119 592.581,336.213 619.069,315.088 619.8,314.519 620.531,313.788 608.181,307.369 605.744,305.419 M589.088,280.556 L589.25,282.425 Q595.831,297.538 605.744,305.419 608.181,307.369 620.531,313.788 L625.244,314.6 Q628.819,313.138 633.287,304.363 637.512,295.994 637.512,291.688 637.512,286.488 625.813,273.813 620.206,267.719 615.981,264.55 611.35,260.975 608.506,260.975 603.875,260.975 596.481,270.075 593.637,273.569 589.088,280.556 M612.975,269.669 Q612.488,268.938 612.406,268.856 612.488,268.938 612.975,269.669 614.194,271.375 618.094,277.144 624.838,286 630.85,289.981 624.838,286 618.094,277.144 614.194,271.375 612.975,269.669Z" test="Bottle" stroke-width="1.625"/>
          <path id="Layer9_0_1_STROKES" stroke="#FFF" stroke-width="1.625" stroke-linejoin="round" stroke-linecap="round" fill="none" d="M589.25,282.425 Q595.831,297.538 605.744,305.419 608.181,307.369 620.531,313.788 M625.244,314.6 Q628.819,313.138 633.287,304.363 637.512,295.994 637.512,291.688 637.512,286.488 625.813,273.813 620.206,267.719 615.981,264.55 611.35,260.975 608.506,260.975 603.875,260.975 596.481,270.075 593.637,273.569 589.088,280.556 M630.85,289.981 Q624.838,286 618.094,277.144 614.194,271.375 612.975,269.669 612.488,268.938 612.406,268.856 M478.262,335.481 Q478.019,338.65 481.675,345.15 483.787,349.05 486.469,352.788 487.037,353.6 492.562,364.081 499.469,375.7 507.269,383.419 518.237,394.225 530.019,400.969 541.963,407.875 550.088,407.794 554.475,407.713 562.275,409.419 571.213,411.288 573.731,411.613 M600.787,369.119 Q599.975,369.038 599.65,369.119 597.294,369.2 596.4,369.281 595.181,369.363 593.231,369.85 591.363,370.338 588.519,370.338 581.531,370.338 563.981,358.475 547.162,347.181 537.738,336.863 529.938,328.25 527.744,317.769 526.606,306.881 525.306,300.3 525.144,299.406 524.981,298.594 M573.731,411.613 Q574.056,411.694 574.219,411.694 574.219,411.938 573.325,412.1" test="Bottle"/>
          <path id="Layer9_0_2_STROKES" stroke="#0F0" stroke-width="1.625" stroke-linejoin="round" stroke-linecap="round" fill="none" d="M525.306,300.3 Q525.144,300.219 524.981,300.219 508.406,299.569 496.381,312.569 486.469,323.294 478.262,335.481 M573.731,411.613 Q591.769,394.144 600.137,370.744 600.463,369.931 600.787,369.119 592.581,336.213 619.069,315.088 619.8,314.519 620.531,313.788 M589.25,282.425 Q560.569,302.575 525.306,300.3 M573.325,412.1 Q556.262,432.9 541.637,455.488 523.031,484.088 499.631,508.056 485.9,522.113 468.756,515.775 437.8,504.563 410.581,485.144 384.419,466.456 399.775,439.481 416.431,410.231 438.937,384.881 459.819,361.238 478.262,335.481 M573.325,412.1 L573.731,411.613" test="Bottle"/>
        </g>
        <g id="Banana">
          <path fill="#000" stroke="none" d="M400.038,235.606 L399.225,236.419 Q393.863,244.219 387.363,256.488 382.325,265.831 379.806,268.269 371.438,276.15 360.956,282.731 350.394,288.906 346.25,291.669 326.75,304.588 309.444,331.725 292.3,358.456 293.763,372.594 L293.763,379.581 Q293.925,379.825 294.819,379.825 297.906,379.825 300.588,375.031 302.05,372.35 304.325,366.988 305.219,365.363 309.038,360.163 310.988,357.481 311.231,356.994 320.331,354.475 334.55,344.969 350.881,334.163 357.95,324.006 365.1,313.769 381.188,301.256 396.706,289.15 397.519,287.85 L398.088,287.85 398.088,291.1 Q393.863,309.3 373.794,343.506 363.313,361.3 360.794,366.256 354.944,377.306 354.619,382.669 355.106,382.669 356.731,382.994 358.275,383.238 359.006,383.238 365.263,383.238 382.894,366.663 401.256,349.438 409.381,334.65 411.088,331.481 413.119,319.131 415.313,305.888 415.963,303.938 418.075,298.25 418.563,296.544 419.213,293.944 420.431,289.556 426.606,299.225 434.325,308 439.688,314.256 460.569,337.981 469.994,349.031 474.544,372.513 477.306,386.813 477.306,395.994 484.456,396.075 488.681,386.65 492.419,378.119 492.419,365.363 492.419,353.256 488.194,343.263 486.081,338.306 478.363,325.956 471.131,314.338 467.475,304.75 461.95,290.206 450.981,281.188 439.931,272.088 435.95,263.15 431.888,254.213 428.231,246.981 424.575,239.669 425.713,237.638 L424.413,236.175 Q422.138,238.206 418.481,239.506 414.338,240.888 410.438,240.888 408.569,240.888 404.263,238.694 400.769,236.906 400.038,235.606 M419.294,194.575 Q412.225,192.462 410.031,199.694 409.381,201.969 408.813,211.881 408.163,221.55 403.856,226.831 399.794,231.95 399.794,234.956 399.794,235.281 400.038,235.606 400.769,236.906 404.263,238.694 408.569,240.888 410.438,240.888 414.338,240.888 418.481,239.506 422.138,238.206 424.413,236.175 425.713,235.038 426.525,233.656 426.038,233.331 425.55,233.088 423.681,231.869 422.381,230.894 419.538,228.944 418.644,227.969 417.1,226.181 417.1,215.212 417.1,207.9 419.294,194.575Z" test="Banana" stroke-width="1.625"/>
          <path id="Layer10_0_1_STROKES" stroke="#FF0" stroke-width="1.625" stroke-linejoin="round" stroke-linecap="round" fill="none" d="M425.713,237.638 Q424.575,239.669 428.231,246.981 431.888,254.213 435.95,263.15 439.931,272.088 450.981,281.188 461.95,290.206 467.475,304.75 471.131,314.338 478.363,325.956 486.081,338.306 488.194,343.263 492.419,353.256 492.419,365.363 492.419,378.119 488.681,386.65 484.456,396.075 477.306,395.994 477.306,386.813 474.544,372.513 469.994,349.031 460.569,337.981 439.688,314.256 434.325,308 426.606,299.225 420.431,289.556 419.213,293.944 418.563,296.544 418.075,298.25 415.963,303.938 415.313,305.888 413.119,319.131 411.088,331.481 409.381,334.65 401.256,349.438 382.894,366.663 365.263,383.238 359.006,383.238 358.275,383.238 356.731,382.994 355.106,382.669 354.619,382.669 354.944,377.306 360.794,366.256 363.313,361.3 373.794,343.506 393.863,309.3 398.088,291.1 L398.088,287.85 397.519,287.85 Q396.706,289.15 381.188,301.256 365.1,313.769 357.95,324.006 350.881,334.163 334.55,344.969 320.331,354.475 311.231,356.994 310.988,357.481 309.038,360.163 305.219,365.363 304.325,366.988 302.05,372.35 300.588,375.031 297.906,379.825 294.819,379.825 293.925,379.825 293.763,379.581 L293.763,372.594 Q292.3,358.456 309.444,331.725 326.75,304.588 346.25,291.669 350.394,288.906 360.956,282.731 371.438,276.15 379.806,268.269 382.325,265.831 387.363,256.488 393.863,244.219 399.225,236.419" test="Banana"/>
          <path id="Layer10_0_2_STROKES" stroke="#FFF" stroke-width="1.625" stroke-linejoin="round" stroke-linecap="round" fill="none" d="M400.038,235.606 Q399.794,235.281 399.794,234.956 399.794,231.95 403.856,226.831 408.163,221.55 408.813,211.881 409.381,201.969 410.031,199.694 412.225,192.462 419.294,194.575 417.1,207.9 417.1,215.212 417.1,226.181 418.644,227.969 419.538,228.944 422.381,230.894 423.681,231.869 425.55,233.088 426.038,233.331 426.525,233.656 425.713,235.038 424.413,236.175 M400.038,235.606 Q400.769,236.906 404.263,238.694 408.569,240.888 410.438,240.888 414.338,240.888 418.481,239.506 422.138,238.206 424.413,236.175" test="Banana"/>
        </g>
      </g>
      <g id="Tween-4">
        <path id="Layer4_0_1_STROKES" stroke="#FFF" stroke-width="1.625" stroke-linejoin="round" stroke-linecap="round" fill="none" d="M546.1,393.438 Q546.1,387.1 555.606,382.144" test="Tween 4"/>
        <g id="Garbage">
          <path fill="#000" stroke="none" d="M438.281,355.319 L436.169,354.1 Q436.006,354.425 435.519,355.319 436.006,354.425 436.169,354.1 436.169,353.938 436.169,353.856 436.169,348.9 433.325,346.95 429.425,344.106 418.294,344.106 406.513,344.106 382.056,356.456 379.213,357.838 374.581,366.613 373.85,368.075 372.956,369.294 372.306,362.063 363.613,357.025 355,351.906 344.356,351.906 332.25,351.906 322.906,357.513 311.125,364.581 311.125,377.825 311.125,378.475 311.206,379.044 305.519,373.681 292.194,373.681 280.981,373.681 274.075,377.175 266.763,380.912 260.344,390.419 255.306,397.813 254.575,403.5 254.169,406.506 254.737,409.919 251.813,403.175 249.375,400.006 245.069,394.319 235.237,394.319 225.975,394.319 219.638,399.925 213.463,405.531 213.463,413.575 213.463,415.037 214.356,426.9 212,431.125 210.619,435.675 208.425,444.694 208.425,453.144 208.425,460.863 214.031,465.738 219.15,470.206 225.731,470.206 228.169,470.206 236.538,468.825 244.825,467.444 250.269,467.444 256.769,467.444 273.263,472.156 289.675,476.869 306.656,476.869 311.613,476.869 351.263,473.294 396.925,469.638 431.7,469.638 439.5,469.556 445.431,469.638 L465.5,470.694 466.313,470.287 Q467.206,469.963 467.938,469.881 472.731,469.638 476.956,467.281 480.125,466.306 482.156,465.412 494.831,459.888 497.513,459.644 L498.081,459.644 Q498.081,459.4 536.025,470.044 577.706,480.85 594.688,480.85 614.188,480.85 623.613,470.856 628.406,465.9 629.219,460.7 629.219,458.1 629.056,457.856 628.975,457.694 628.813,457.531 628.163,456.963 626.456,456.8 628.163,456.963 628.813,457.531 L629.219,456.8 Q631.819,455.175 640.106,452.169 647.094,448.513 647.094,441.769 647.094,437.544 642.056,436.162 L642.625,436.162 Q645.225,433.644 652.05,428.281 657.656,423.081 657.656,417.719 657.656,413.169 654.894,407.725 651.4,400.981 646.281,400.981 637.831,403.013 634.825,403.256 638.725,399.925 638.725,398.219 638.563,395.456 637.019,392.856 634.094,387.738 627.513,387.738 614.594,387.738 609.15,389.606 603.788,391.475 595.175,398.787 593.388,389.525 587.294,383.594 580.956,377.581 572.588,377.581 564.138,377.581 555.606,382.131 L546.1,393.425 Q546.1,394.888 547.156,403.825 546.425,403.419 544.638,403.013 542.931,402.688 541.875,402.688 537.975,402.688 533.344,407.156 531.638,408.863 529.363,412.763 527.25,416.5 526.519,418.856 526.356,419.588 526.194,420.4 525.463,423.325 523.025,425.275 522.294,425.844 521.4,426.169 521.075,425.925 520.831,425.681 516.281,421.213 515.063,415.037 514.413,413.088 513.112,410.975 510.756,406.994 507.019,403.256 515.956,404.231 523.594,401.388 532.125,398.219 533.181,391.556 533.344,390.581 533.344,389.525 533.344,385.3 532.613,383.025 531.069,378.069 525.95,373.681 520.588,369.05 514.819,367.912 512.95,367.506 507.588,367.506 507.669,367.344 512.138,359.463 512.544,358.731 512.869,358 L513.6,357.025 Q514.006,356.456 514.088,356.05 514.737,352.719 513.763,349.469 513.194,347.925 510.919,343.131 508.319,337.769 505.15,335.494 497.675,330.131 479.313,330.131 460.056,330.131 443.481,348.819 440.881,351.744 438.281,355.319 M481.75,393.181 Q481.425,393.994 480.775,395.294 481.425,393.994 481.75,393.181 482.4,391.719 482.4,390.581 482.4,383.919 476.55,383.919 473.625,383.919 470.7,384.731 464.85,386.438 464.525,390.744 464.85,386.438 470.7,384.731 473.625,383.919 476.55,383.919 482.4,383.919 482.4,390.581 482.4,391.719 481.75,393.181 M601.675,424.219 Q605.9,426.981 605.9,431.369 605.9,426.981 601.675,424.219 598.181,421.944 594.363,421.944 589,421.944 585.994,423.813 582.825,425.681 582.825,429.094 582.825,425.681 585.994,423.813 589,421.944 594.363,421.944 598.181,421.944 601.675,424.219 M350.45,398.787 Q355.163,401.306 356.3,404.394 355.163,401.306 350.45,398.787 346.063,396.513 342.65,396.513 338.263,396.513 335.094,399.356 330.706,403.419 330.706,412.194 330.706,413.494 330.95,414.225 331.438,415.525 332.9,417.719 331.438,415.525 330.95,414.225 330.706,413.494 330.706,412.194 330.706,403.419 335.094,399.356 338.263,396.513 342.65,396.513 346.063,396.513 350.45,398.787 M416.588,391.556 Q417.725,393.506 417.725,398.544 417.725,407.644 410.575,413.9 402.856,420.563 390.913,419.994 402.856,420.563 410.575,413.9 417.725,407.644 417.725,398.544 417.725,393.506 416.588,391.556 415.288,389.281 411.631,389.281 410.9,389.281 409.844,389.606 408.3,390.094 406.594,390.419 408.3,390.094 409.844,389.606 410.9,389.281 411.631,389.281 415.288,389.281 416.588,391.556Z" test="Garbage" stroke-width="1.625"/>
          <path id="Layer6_0_1_STROKES" stroke="#FFF" stroke-width="1.625" stroke-linejoin="round" stroke-linecap="round" fill="none" d="M436.169,354.1 Q436.006,354.425 435.519,355.319 M628.813,457.531 Q628.975,457.694 629.056,457.856 629.219,458.1 629.219,460.7 628.406,465.9 623.613,470.856 614.188,480.85 594.688,480.85 577.706,480.85 536.025,470.044 498.081,459.4 498.081,459.644 L497.513,459.644 Q494.831,459.888 482.156,465.412 480.125,466.306 476.956,467.281 472.731,469.638 467.938,469.881 467.206,469.963 466.313,470.287 L465.5,470.694 445.431,469.638 Q439.5,469.556 431.7,469.638 396.925,469.638 351.263,473.294 311.613,476.869 306.656,476.869 289.675,476.869 273.263,472.156 256.769,467.444 250.269,467.444 244.825,467.444 236.538,468.825 228.169,470.206 225.731,470.206 219.15,470.206 214.031,465.738 208.425,460.863 208.425,453.144 208.425,444.694 210.619,435.675 212,431.125 214.356,426.9 213.463,415.037 213.463,413.575 213.463,405.531 219.638,399.925 225.975,394.319 235.237,394.319 245.069,394.319 249.375,400.006 251.813,403.175 254.737,409.919 254.169,406.506 254.575,403.5 255.306,397.813 260.344,390.419 266.763,380.912 274.075,377.175 280.981,373.681 292.194,373.681 305.519,373.681 311.206,379.044 311.125,378.475 311.125,377.825 311.125,364.581 322.906,357.513 332.25,351.906 344.356,351.906 355,351.906 363.613,357.025 372.306,362.063 372.956,369.294 373.85,368.075 374.581,366.613 379.213,357.838 382.056,356.456 406.513,344.106 418.294,344.106 429.425,344.106 433.325,346.95 436.169,348.9 436.169,353.856 436.169,353.938 436.169,354.1 M438.281,355.319 Q440.881,351.744 443.481,348.819 460.056,330.131 479.313,330.131 497.675,330.131 505.15,335.494 508.319,337.769 510.919,343.131 513.194,347.925 513.763,349.469 514.737,352.719 514.088,356.05 514.006,356.456 513.6,357.025 L512.869,358 Q512.544,358.731 512.138,359.463 507.669,367.344 507.588,367.506 512.95,367.506 514.819,367.912 520.588,369.05 525.95,373.681 531.069,378.069 532.613,383.025 533.344,385.3 533.344,389.525 533.344,390.581 533.181,391.556 532.125,398.219 523.594,401.388 515.956,404.231 507.019,403.256 510.756,406.994 513.112,410.975 514.413,413.088 515.063,415.037 516.281,421.213 520.831,425.681 521.075,425.925 521.4,426.169 522.294,425.844 523.025,425.275 525.463,423.325 526.194,420.4 526.356,419.588 526.519,418.856 527.25,416.5 529.363,412.763 531.638,408.863 533.344,407.156 537.975,402.688 541.875,402.688 542.931,402.688 544.638,403.013 546.425,403.419 547.156,403.825 546.1,394.888 546.1,393.425 M555.606,382.131 Q564.138,377.581 572.588,377.581 580.956,377.581 587.294,383.594 593.388,389.525 595.175,398.787 603.788,391.475 609.15,389.606 614.594,387.738 627.513,387.738 634.094,387.738 637.019,392.856 638.563,395.456 638.725,398.219 638.725,399.925 634.825,403.256 637.831,403.013 646.281,400.981 651.4,400.981 654.894,407.725 657.656,413.169 657.656,417.719 657.656,423.081 652.05,428.281 645.225,433.644 642.625,436.162 L642.056,436.162 Q647.094,437.544 647.094,441.769 647.094,448.513 640.106,452.169 631.819,455.175 629.219,456.8 M626.456,456.8 Q628.163,456.963 628.813,457.531 M464.525,390.744 Q464.85,386.438 470.7,384.731 473.625,383.919 476.55,383.919 482.4,383.919 482.4,390.581 482.4,391.719 481.75,393.181 481.425,393.994 480.775,395.294 M582.825,429.094 Q582.825,425.681 585.994,423.813 589,421.944 594.363,421.944 598.181,421.944 601.675,424.219 605.9,426.981 605.9,431.369 M332.9,417.719 Q331.438,415.525 330.95,414.225 330.706,413.494 330.706,412.194 330.706,403.419 335.094,399.356 338.263,396.513 342.65,396.513 346.063,396.513 350.45,398.787 355.163,401.306 356.3,404.394 M406.594,390.419 Q408.3,390.094 409.844,389.606 410.9,389.281 411.631,389.281 415.288,389.281 416.588,391.556 417.725,393.506 417.725,398.544 417.725,407.644 410.575,413.9 402.856,420.563 390.913,419.994" test="Garbage"/>
        </g>
        <g id="GarbageCloud">
          <path id="Layer7_0_1_STROKES" stroke="#FFF" stroke-width="1.625" stroke-linejoin="round" stroke-linecap="round" fill="none" d="M477.988,277.156 Q480.425,275.856 480.913,275.125 481.888,273.744 481.888,269.925 481.888,265.131 477.744,257.981 473.6,250.831 473.6,244.413 473.6,239.213 479.694,229.138 485.788,219.063 485.788,214.594 485.788,211.994 483.513,208.988 483.188,208.581 480.181,205.169 M574.188,251.481 Q575.163,249.369 579.063,245.875 584.263,241.081 588.488,240.838 589.625,243.113 589.625,245.306 589.625,245.875 584.019,251.481 L574.188,251.481 Q574.025,251.806 573.781,252.538 574.35,252.781 574.919,253.188 577.275,254.731 577.275,256.438 577.275,258.225 576.788,258.712 576.219,259.281 574.269,259.281 572.481,259.281 571.181,258.225 570.044,257.169 570.044,255.869 570.044,254.894 570.45,254.244 566.713,254.244 564.438,253.675 558.913,252.456 558.913,248.638 558.913,245.794 559.969,243.681 561.431,240.838 564.194,240.838 568.094,240.838 570.531,244.331 572.156,246.769 573.375,251.481 L574.188,251.481Z M570.45,254.244 L570.531,254.244 Q571.669,254.244 571.994,254.163 572.4,254.081 572.806,253.675 L572.806,252.538 Q571.75,252.944 571.181,253.35 570.694,253.675 570.45,254.244Z M573.781,252.538 Q572.075,251.725 570.613,252.05 M291.356,237.588 Q291.6,236.775 291.925,235.963 287.131,236.125 282.5,239.375 278.438,242.056 277.056,244.738 L277.056,250.344 282.094,250.344 Q289.731,244.575 290.788,239.7 291.031,238.644 291.356,237.588 290.95,237.588 290.463,237.588 M297.125,238.725 Q295.744,237.506 294.85,236.856 292.656,236.938 292.169,237.019 M294.85,236.856 Q294.119,236.288 293.713,236.044 293.469,235.881 292.738,235.881 292.331,235.881 291.925,235.963 294.038,230.6 298.831,224.669 L303.869,224.669 Q303.869,225.238 304.194,226.7 304.438,228.163 304.438,228.894 304.438,235.15 298.913,236.613 296.475,236.775 294.85,236.856Z M335.638,260.419 Q337.831,255.788 339.375,252.294 342.381,245.55 342.381,243.031 342.381,240.919 337.913,236.45 333.444,231.9 333.444,230.519 333.444,226.538 335.394,220.444 337.344,214.269 337.344,211.588 337.344,205.738 337.019,204.031 336.288,199.725 333.444,198.425 M291.6,238.725 L291.356,239.781 Q291.031,241.081 291.031,241.975 291.031,243.438 292.656,244.169 293.875,244.738 295.013,244.738 295.825,244.738 296.8,244.413 298.669,243.763 298.831,243.681 298.506,240.188 296.231,238.725 294.525,237.75 291.356,237.588" test="GarbageCloud"/>
        </g>
      </g>
      <g id="Drawer">
        <path fill="#000" stroke="none" d="M702.662,529.763 Q702.175,530.25 701.769,530.738 L701.769,558.281 Q702.175,558.688 702.662,559.175 708.594,565.106 716.881,565.269 L717.369,565.269 Q725.981,565.269 732.075,559.175 738.169,553.081 738.169,544.469 738.169,535.856 732.075,529.763 725.981,523.669 717.369,523.669 L716.881,523.669 Q708.594,523.831 702.662,529.763 M152.519,442.419 Q147.319,466.306 148.294,492.55 151.381,566.406 150.244,613.125 149.269,658.544 152.519,671.219 253.269,669.838 352.719,674.063 392.044,672.925 418.206,674.306 444.775,675.688 463.219,675.688 470.287,675.688 477.519,675.606 487.675,676.825 497.75,676.663 516.275,675.2 534.637,672.519 553.65,670.163 572.906,672.356 591.35,674.469 609.631,673.981 628.806,673.413 647.819,672.275 670.081,671.869 701.769,671.219 L701.769,565.269 701.769,558.281 701.769,530.738 Q701.688,527.163 701.688,523.669 700.631,468.581 701.769,413.819 L666.669,413.819 666.669,442.419 581.519,439.25 Q356.05,446.644 152.519,442.419Z" test="Drawer" stroke-width="1.625"/>
        <path id="Layer3_0_1_STROKES" stroke="#F60" stroke-width="3.25" stroke-linejoin="round" stroke-linecap="round" fill="none" d="M701.769,558.281 L701.769,565.269 701.769,671.219 Q670.081,671.869 647.819,672.275 628.806,673.413 609.631,673.981 591.35,674.469 572.906,672.356 553.65,670.163 534.637,672.519 516.275,675.2 497.75,676.663 487.675,676.825 477.519,675.606 470.287,675.688 463.219,675.688 444.775,675.688 418.206,674.306 392.044,672.925 352.719,674.063 253.269,669.838 152.519,671.219 149.269,658.544 150.244,613.125 151.381,566.406 148.294,492.55 147.319,466.306 152.519,442.419 356.05,446.644 581.519,439.25 L666.669,442.419 666.669,413.819 701.769,413.819 Q700.631,468.581 701.688,523.669 701.688,527.163 701.769,530.738 702.175,530.25 702.662,529.763 708.594,523.831 716.881,523.669 L717.369,523.669 Q725.981,523.669 732.075,529.763 738.169,535.856 738.169,544.469 738.169,553.081 732.075,559.175 725.981,565.269 717.369,565.269 L716.881,565.269 Q708.594,565.106 702.662,559.175 702.175,558.688 701.769,558.281 L701.769,530.738" test="Drawer"/>
      </g>
      <g id="DrawersCabinetFront">
        <path fill="#000" stroke="none" d="M193.919,832.844 Q194.325,833.25 194.813,833.738 200.744,839.669 209.031,839.831 L209.519,839.831 Q218.131,839.831 224.225,833.738 230.319,827.644 230.319,819.031 230.319,810.419 224.225,804.325 218.131,798.231 209.519,798.231 L209.031,798.231 Q200.744,798.394 194.813,804.325 194.325,804.813 193.919,805.3 L193.919,832.844 M193.919,688.381 L158.819,688.381 158.819,716.981 73.669,713.813 Q-151.8,721.206 -355.331,716.981 -360.531,740.869 -359.556,767.113 -356.469,840.969 -357.606,887.688 -358.581,933.106 -355.331,945.781 -254.581,944.4 -155.131,948.625 -115.806,947.488 -89.644,948.869 -63.075,950.25 -44.631,950.25 -37.562,950.25 -30.331,950.169 -20.175,951.388 -10.1,951.225 8.425,949.763 26.787,947.081 45.8,944.725 65.056,946.919 83.5,949.031 101.781,948.544 120.956,947.975 139.969,946.838 162.231,946.431 193.919,945.781 L193.919,839.831 193.919,832.844 193.919,805.3 Q193.837,801.725 193.837,798.231 192.781,743.144 193.919,688.381Z" test="DrawersCabinetFront" stroke-width="1.625"/>
        <path id="Layer2_0_1_STROKES" stroke="#F60" stroke-width="3.25" stroke-linejoin="round" stroke-linecap="round" fill="none" d="M193.919,832.844 L193.919,839.831 193.919,945.781 Q162.231,946.431 139.969,946.838 120.956,947.975 101.781,948.544 83.5,949.031 65.056,946.919 45.8,944.725 26.787,947.081 8.425,949.763 -10.1,951.225 -20.175,951.388 -30.331,950.169 -37.562,950.25 -44.631,950.25 -63.075,950.25 -89.644,948.869 -115.806,947.488 -155.131,948.625 -254.581,944.4 -355.331,945.781 -358.581,933.106 -357.606,887.688 -356.469,840.969 -359.556,767.113 -360.531,740.869 -355.331,716.981 -151.8,721.206 73.669,713.813 L158.819,716.981 158.819,688.381 193.919,688.381 Q192.781,743.144 193.837,798.231 193.837,801.725 193.919,805.3 194.325,804.813 194.813,804.325 200.744,798.394 209.031,798.231 L209.519,798.231 Q218.131,798.231 224.225,804.325 230.319,810.419 230.319,819.031 230.319,827.644 224.225,833.738 218.131,839.831 209.519,839.831 L209.031,839.831 Q200.744,839.669 194.813,833.738 194.325,833.25 193.919,832.844 L193.919,805.3" test="DrawersCabinetFront"/>
        <path fill="#000" stroke="none" d="M117.3,400.756 Q82.361,399.464 48.725,397.506 15.182,395.633 -73.637,395.963 -162.395,396.38 -203.394,396.856 -244.292,397.414 -296.181,396.937 -348.089,396.455 -378.081,400.106 -380.194,417.331 -382.631,555.863 -385.15,699.756 -382.794,728.113 -381.9,739.65 -387.831,843.569 -393.678,947.486 -389.212,949.763 -384.672,952.041 -372.637,951.144 -368.128,950.866 -362.887,950.169 -352.812,948.869 -342.656,947.569 -294.963,942.694 -247.187,944.156 -225.026,944.303 -201.525,944.563 -83.469,945.944 -67.869,945.944 -53.406,945.944 52.462,950.006 53.681,950.088 54.981,950.088 58.313,950.25 61.644,950.331 66.356,950.494 70.906,950.575 156.462,953.094 158.413,950.006 160.688,946.431 160.85,932.294 160.769,912.144 160.769,899.063 160.769,803.919 161.988,770.85 162.556,754.6 160.769,679.363 159.063,603.637 159.631,584.706 160.686,549.697 159.875,475.425 159.147,401.141 155.731,401.569 152.314,402.071 117.3,400.756Z" test="DrawersCabinetFront" stroke-width="1.625"/>
        <path id="Layer1_0_1_STROKES" stroke="#F60" stroke-width="3.25" stroke-linejoin="round" stroke-linecap="round" fill="none" d="M-378.081,400.106 Q-348.089,396.455 -296.181,396.937 -244.292,397.414 -203.353,396.897 -162.395,396.38 -73.597,396.003 15.182,395.633 48.766,397.547 82.361,399.464 117.341,400.756 152.314,402.071 155.731,401.609 159.147,401.141 159.916,475.425 160.686,549.697 159.631,584.706 159.063,603.637 160.769,679.363 162.556,754.6 161.988,770.85 160.769,803.919 160.769,899.063 160.769,912.144 160.85,932.294 160.688,946.431 158.413,950.006 156.462,953.094 70.906,950.575 66.356,950.494 61.644,950.331 58.313,950.25 54.981,950.088 53.681,950.088 52.462,950.006 -53.406,945.944 -67.869,945.944 -83.469,945.944 -201.525,944.563 -225.026,944.303 -247.187,944.156 -294.963,942.694 -342.656,947.569 -352.812,948.869 -362.887,950.209 -368.128,950.866 -372.597,951.184 -384.672,952.041 -389.172,949.763 -393.678,947.486 -387.791,843.569 -381.9,739.65 -382.794,728.113 -385.15,699.756 -382.631,555.863 -380.194,417.331 -378.081,400.106Z" test="DrawersCabinetFront"/>
      </g>
    </g>
  </g>
</svg>