<?xml version="1.0" encoding="utf-8"?>
<svg id="EdithAnim12" image-rendering="inherit" baseProfile="basic" version="1.1" x="0px" y="0px" width="800" height="600" xmlns="http://www.w3.org/2000/svg" xmlns:xlink="http://www.w3.org/1999/xlink">
  <g id="21_GarbageDrawerf14r1" overflow="visible">
    <g id="GarbageDrawerGroupf14r1">
      <g id="Drawer">
        <path fill="#000" stroke="none" d="M332.7,280.75 Q332.4,281.05 332.15,281.35 L332.15,298.3 Q332.4,298.55 332.7,298.85 336.35,302.5 341.45,302.6 L341.75,302.6 Q347.05,302.6 350.8,298.85 354.55,295.1 354.55,289.8 354.55,284.5 350.8,280.75 347.05,277 341.75,277 L341.45,277 Q336.35,277.1 332.7,280.75 M-5.85,227 Q-9.05,241.7 -8.45,257.85 -6.55,303.3 -7.25,332.05 -7.85,360 -5.85,367.8 56.15,366.95 117.35,369.55 141.55,368.85 157.65,369.7 174,370.55 185.35,370.55 189.7,370.55 194.15,370.5 200.4,371.25 206.6,371.15 218,370.25 229.3,368.6 241,367.15 252.85,368.5 264.2,369.8 275.45,369.5 287.25,369.15 298.95,368.45 312.65,368.2 332.15,367.8 L332.15,302.6 332.15,298.3 332.15,281.35 Q332.1,279.15 332.1,277 331.45,243.1 332.15,209.4 L310.55,209.4 310.55,227 258.15,225.05 Q119.4,229.6 -5.85,227Z" test="Drawer"/>
        <path id="Layer3_0_1_STROKES" stroke="#F60" stroke-width="2" stroke-linejoin="round" stroke-linecap="round" fill="none" d="M332.15,298.3 L332.15,302.6 332.15,367.8 Q312.65,368.2 298.95,368.45 287.25,369.15 275.45,369.5 264.2,369.8 252.85,368.5 241,367.15 229.3,368.6 218,370.25 206.6,371.15 200.4,371.25 194.15,370.5 189.7,370.55 185.35,370.55 174,370.55 157.65,369.7 141.55,368.85 117.35,369.55 56.15,366.95 -5.85,367.8 -7.85,360 -7.25,332.05 -6.55,303.3 -8.45,257.85 -9.05,241.7 -5.85,227 119.4,229.6 258.15,225.05 L310.55,227 310.55,209.4 332.15,209.4 Q331.45,243.1 332.1,277 332.1,279.15 332.15,281.35 332.4,281.05 332.7,280.75 336.35,277.1 341.45,277 L341.75,277 Q347.05,277 350.8,280.75 354.55,284.5 354.55,289.8 354.55,295.1 350.8,298.85 347.05,302.6 341.75,302.6 L341.45,302.6 Q336.35,302.5 332.7,298.85 332.4,298.55 332.15,298.3 L332.15,281.35" test="Drawer"/>
      </g>
      <g id="DrawersCabinetFront">
        <path fill="#000" stroke="none" d="M331.6,467.25 Q331.85,467.5 332.15,467.8 335.8,471.45 340.9,471.55 L341.2,471.55 Q346.5,471.55 350.25,467.8 354,464.05 354,458.75 354,453.45 350.25,449.7 346.5,445.95 341.2,445.95 L340.9,445.95 Q335.8,446.05 332.15,449.7 331.85,450 331.6,450.3 L331.6,467.25 M331.6,378.35 L310,378.35 310,395.95 257.6,394 Q118.85,398.55 -6.4,395.95 -9.6,410.65 -9,426.8 -7.1,472.25 -7.8,501 -8.4,528.95 -6.4,536.75 55.6,535.9 116.8,538.5 141,537.8 157.1,538.65 173.45,539.5 184.8,539.5 189.15,539.5 193.6,539.45 199.85,540.2 206.05,540.1 217.45,539.2 228.75,537.55 240.45,536.1 252.3,537.45 263.65,538.75 274.9,538.45 286.7,538.1 298.4,537.4 312.1,537.15 331.6,536.75 L331.6,471.55 331.6,467.25 331.6,450.3 Q331.55,448.1 331.55,445.95 330.9,412.05 331.6,378.35Z" test="DrawersCabinetFront"/>
        <path id="Layer2_0_1_STROKES" stroke="#F60" stroke-width="2" stroke-linejoin="round" stroke-linecap="round" fill="none" d="M331.6,467.25 L331.6,471.55 331.6,536.75 Q312.1,537.15 298.4,537.4 286.7,538.1 274.9,538.45 263.65,538.75 252.3,537.45 240.45,536.1 228.75,537.55 217.45,539.2 206.05,540.1 199.85,540.2 193.6,539.45 189.15,539.5 184.8,539.5 173.45,539.5 157.1,538.65 141,537.8 116.8,538.5 55.6,535.9 -6.4,536.75 -8.4,528.95 -7.8,501 -7.1,472.25 -9,426.8 -9.6,410.65 -6.4,395.95 118.85,398.55 257.6,394 L310,395.95 310,378.35 331.6,378.35 Q330.9,412.05 331.55,445.95 331.55,448.1 331.6,450.3 331.85,450 332.15,449.7 335.8,446.05 340.9,445.95 L341.2,445.95 Q346.5,445.95 350.25,449.7 354,453.45 354,458.75 354,464.05 350.25,467.8 346.5,471.55 341.2,471.55 L340.9,471.55 Q335.8,471.45 332.15,467.8 331.85,467.5 331.6,467.25 L331.6,450.3" test="DrawersCabinetFront"/>
        <path fill="#000" stroke="none" d="M284.45,201.35 Q262.949,200.555 242.25,199.35 221.608,198.197 166.95,198.4 112.33,198.657 87.1,198.95 61.932,199.293 30,199 -1.943,198.703 -20.4,200.95 -21.7,211.55 -23.2,296.8 -24.75,385.35 -23.3,402.8 -22.75,409.9 -26.4,473.85 -29.998,537.799 -27.25,539.2 -24.456,540.602 -17.05,540.05 -14.275,539.879 -11.05,539.45 -4.85,538.65 1.4,537.85 30.75,534.85 60.15,535.75 73.788,535.84 88.25,536 160.9,536.85 170.5,536.85 179.4,536.85 244.55,539.35 245.3,539.4 246.1,539.4 248.15,539.5 250.2,539.55 253.1,539.65 255.9,539.7 308.55,541.25 309.75,539.35 311.15,537.15 311.25,528.45 311.2,516.05 311.2,508 311.2,449.45 311.95,429.1 312.3,419.1 311.2,372.8 310.15,326.2 310.5,314.55 311.149,293.006 310.65,247.3 310.202,201.587 308.1,201.85 305.997,202.159 284.45,201.35Z" test="DrawersCabinetFront"/>
        <path id="Layer1_0_1_STROKES" stroke="#F60" stroke-width="2" stroke-linejoin="round" stroke-linecap="round" fill="none" d="M-20.4,200.95 Q-1.943,198.703 30,199 61.932,199.293 87.125,198.975 112.33,198.657 166.975,198.425 221.608,198.197 242.275,199.375 262.949,200.555 284.475,201.35 305.997,202.159 308.1,201.875 310.202,201.587 310.675,247.3 311.149,293.006 310.5,314.55 310.15,326.2 311.2,372.8 312.3,419.1 311.95,429.1 311.2,449.45 311.2,508 311.2,516.05 311.25,528.45 311.15,537.15 309.75,539.35 308.55,541.25 255.9,539.7 253.1,539.65 250.2,539.55 248.15,539.5 246.1,539.4 245.3,539.4 244.55,539.35 179.4,536.85 170.5,536.85 160.9,536.85 88.25,536 73.788,535.84 60.15,535.75 30.75,534.85 1.4,537.85 -4.85,538.65 -11.05,539.475 -14.275,539.879 -17.025,540.075 -24.456,540.602 -27.225,539.2 -29.998,537.799 -26.375,473.85 -22.75,409.9 -23.3,402.8 -24.75,385.35 -23.2,296.8 -21.7,211.55 -20.4,200.95Z" test="DrawersCabinetFront"/>
      </g>
    </g>
  </g>
</svg>