<?xml version="1.0" encoding="utf-8"?>
<svg id="EdithAnim12" image-rendering="inherit" baseProfile="basic" version="1.1" x="0px" y="0px" width="800" height="600" xmlns="http://www.w3.org/2000/svg" xmlns:xlink="http://www.w3.org/1999/xlink">
  <g id="21_GarbageDrawerf15r1" overflow="visible">
    <g id="GarbageDrawerGroupf15r1">
      <g id="Drawer">
        <path fill="#000" stroke="none" d="M347.8,280.75 Q347.5,281.05 347.25,281.35 L347.25,298.3 Q347.5,298.55 347.8,298.85 351.45,302.5 356.55,302.6 L356.85,302.6 Q362.15,302.6 365.9,298.85 369.65,295.1 369.65,289.8 369.65,284.5 365.9,280.75 362.15,277 356.85,277 L356.55,277 Q351.45,277.1 347.8,280.75 M9.25,227 Q6.05,241.7 6.65,257.85 8.55,303.3 7.85,332.05 7.25,360 9.25,367.8 71.25,366.95 132.45,369.55 156.65,368.85 172.75,369.7 189.1,370.55 200.45,370.55 204.8,370.55 209.25,370.5 215.5,371.25 221.7,371.15 233.1,370.25 244.4,368.6 256.1,367.15 267.95,368.5 279.3,369.8 290.55,369.5 302.35,369.15 314.05,368.45 327.75,368.2 347.25,367.8 L347.25,302.6 347.25,298.3 347.25,281.35 Q347.2,279.15 347.2,277 346.55,243.1 347.25,209.4 L325.65,209.4 325.65,227 273.25,225.05 Q134.5,229.6 9.25,227Z" test="Drawer"/>
        <path id="Layer3_0_1_STROKES" stroke="#F60" stroke-width="2" stroke-linejoin="round" stroke-linecap="round" fill="none" d="M347.25,298.3 L347.25,302.6 347.25,367.8 Q327.75,368.2 314.05,368.45 302.35,369.15 290.55,369.5 279.3,369.8 267.95,368.5 256.1,367.15 244.4,368.6 233.1,370.25 221.7,371.15 215.5,371.25 209.25,370.5 204.8,370.55 200.45,370.55 189.1,370.55 172.75,369.7 156.65,368.85 132.45,369.55 71.25,366.95 9.25,367.8 7.25,360 7.85,332.05 8.55,303.3 6.65,257.85 6.05,241.7 9.25,227 134.5,229.6 273.25,225.05 L325.65,227 325.65,209.4 347.25,209.4 Q346.55,243.1 347.2,277 347.2,279.15 347.25,281.35 347.5,281.05 347.8,280.75 351.45,277.1 356.55,277 L356.85,277 Q362.15,277 365.9,280.75 369.65,284.5 369.65,289.8 369.65,295.1 365.9,298.85 362.15,302.6 356.85,302.6 L356.55,302.6 Q351.45,302.5 347.8,298.85 347.5,298.55 347.25,298.3 L347.25,281.35" test="Drawer"/>
      </g>
      <g id="DrawersCabinetFront">
        <path fill="#000" stroke="none" d="M346.7,467.25 Q346.95,467.5 347.25,467.8 350.9,471.45 356,471.55 L356.3,471.55 Q361.6,471.55 365.35,467.8 369.1,464.05 369.1,458.75 369.1,453.45 365.35,449.7 361.6,445.95 356.3,445.95 L356,445.95 Q350.9,446.05 347.25,449.7 346.95,450 346.7,450.3 L346.7,467.25 M346.7,378.35 L325.1,378.35 325.1,395.95 272.7,394 Q133.95,398.55 8.7,395.95 5.5,410.65 6.1,426.8 8,472.25 7.3,501 6.7,528.95 8.7,536.75 70.7,535.9 131.9,538.5 156.1,537.8 172.2,538.65 188.55,539.5 199.9,539.5 204.25,539.5 208.7,539.45 214.95,540.2 221.15,540.1 232.55,539.2 243.85,537.55 255.55,536.1 267.4,537.45 278.75,538.75 290,538.45 301.8,538.1 313.5,537.4 327.2,537.15 346.7,536.75 L346.7,471.55 346.7,467.25 346.7,450.3 Q346.65,448.1 346.65,445.95 346,412.05 346.7,378.35Z" test="DrawersCabinetFront"/>
        <path id="Layer2_0_1_STROKES" stroke="#F60" stroke-width="2" stroke-linejoin="round" stroke-linecap="round" fill="none" d="M346.7,467.25 L346.7,471.55 346.7,536.75 Q327.2,537.15 313.5,537.4 301.8,538.1 290,538.45 278.75,538.75 267.4,537.45 255.55,536.1 243.85,537.55 232.55,539.2 221.15,540.1 214.95,540.2 208.7,539.45 204.25,539.5 199.9,539.5 188.55,539.5 172.2,538.65 156.1,537.8 131.9,538.5 70.7,535.9 8.7,536.75 6.7,528.95 7.3,501 8,472.25 6.1,426.8 5.5,410.65 8.7,395.95 133.95,398.55 272.7,394 L325.1,395.95 325.1,378.35 346.7,378.35 Q346,412.05 346.65,445.95 346.65,448.1 346.7,450.3 346.95,450 347.25,449.7 350.9,446.05 356,445.95 L356.3,445.95 Q361.6,445.95 365.35,449.7 369.1,453.45 369.1,458.75 369.1,464.05 365.35,467.8 361.6,471.55 356.3,471.55 L356,471.55 Q350.9,471.45 347.25,467.8 346.95,467.5 346.7,467.25 L346.7,450.3" test="DrawersCabinetFront"/>
        <path fill="#000" stroke="none" d="M299.55,201.35 Q278.049,200.555 257.35,199.35 236.708,198.197 182.05,198.4 127.43,198.657 102.2,198.95 77.032,199.293 45.1,199 13.157,198.703 -5.3,200.95 -6.6,211.55 -8.1,296.8 -9.65,385.35 -8.2,402.8 -7.65,409.9 -11.3,473.85 -14.898,537.799 -12.15,539.2 -9.356,540.602 -1.95,540.05 .825,539.879 4.05,539.45 10.25,538.65 16.5,537.85 45.85,534.85 75.25,535.75 88.888,535.84 103.35,536 176,536.85 185.6,536.85 194.5,536.85 259.65,539.35 260.4,539.4 261.2,539.4 263.25,539.5 265.3,539.55 268.2,539.65 271,539.7 323.65,541.25 324.85,539.35 326.25,537.15 326.35,528.45 326.3,516.05 326.3,508 326.3,449.45 327.05,429.1 327.4,419.1 326.3,372.8 325.25,326.2 325.6,314.55 326.249,293.006 325.75,247.3 325.302,201.587 323.2,201.85 321.097,202.159 299.55,201.35Z" test="DrawersCabinetFront"/>
        <path id="Layer1_0_1_STROKES" stroke="#F60" stroke-width="2" stroke-linejoin="round" stroke-linecap="round" fill="none" d="M-5.3,200.95 Q13.157,198.703 45.1,199 77.032,199.293 102.225,198.975 127.43,198.657 182.075,198.425 236.708,198.197 257.375,199.375 278.049,200.555 299.575,201.35 321.097,202.159 323.2,201.875 325.302,201.587 325.775,247.3 326.249,293.006 325.6,314.55 325.25,326.2 326.3,372.8 327.4,419.1 327.05,429.1 326.3,449.45 326.3,508 326.3,516.05 326.35,528.45 326.25,537.15 324.85,539.35 323.65,541.25 271,539.7 268.2,539.65 265.3,539.55 263.25,539.5 261.2,539.4 260.4,539.4 259.65,539.35 194.5,536.85 185.6,536.85 176,536.85 103.35,536 88.888,535.84 75.25,535.75 45.85,534.85 16.5,537.85 10.25,538.65 4.05,539.475 .825,539.879 -1.925,540.075 -9.356,540.602 -12.125,539.2 -14.898,537.799 -11.275,473.85 -7.65,409.9 -8.2,402.8 -9.65,385.35 -8.1,296.8 -6.6,211.55 -5.3,200.95Z" test="DrawersCabinetFront"/>
      </g>
    </g>
  </g>
</svg>