<?xml version="1.0" encoding="utf-8"?>
<svg id="EdithAnim12" image-rendering="inherit" baseProfile="basic" version="1.1" x="0px" y="0px" width="800" height="600" xmlns="http://www.w3.org/2000/svg" xmlns:xlink="http://www.w3.org/1999/xlink">
  <g id="21_GarbageDrawerf154r1" overflow="visible">
    <g id="GarbageDrawerGroupf154r1">
      <g id="Tween-6">
        <path fill="#000" stroke="none" d="M292.531,350.956 Q288.387,348.763 286.275,348.763 276.119,348.763 270.431,361.031 265.719,370.944 265.069,386.138 264.987,386.463 264.906,386.787 264.338,388.575 262.469,390.363 L249.387,390.363 Q249.144,390.444 244.025,390.931 240.288,391.338 238.987,393.287 238.581,393.856 238.5,395.563 238.419,397.513 238.337,397.838 236.387,395.888 226.637,395.888 214.287,395.888 214.287,405.963 214.287,406.856 214.531,409.537 214.694,412.544 214.937,413.438 212.175,413.925 209.412,417.256 205.513,421.806 205.513,428.875 205.513,430.256 206.406,433.831 206.894,435.863 207.787,439.438 208.356,441.956 208.925,442.85 210.631,445.287 214.937,445.938 216.075,446.1 229.725,449.756 247.275,453.738 267.913,456.013 275.713,456.906 327.713,464.706 367.769,470.719 395.313,471.938 423.831,473.238 462.019,476.325 488.75,478.438 512.475,478.438 533.356,478.438 565.206,472.344 598.031,466.169 607.213,459.912 610.706,457.556 614.2,456.581 618.019,455.525 619.887,454.388 626.713,450 628.338,447.563 632.806,440.738 633.781,437.813 634.188,436.594 634.188,433.1 634.188,429.444 633.213,426.925 631.75,424.162 630.938,422.537 L630.938,421.888 Q629.963,420.912 629.963,419.613 629.963,419.531 636.625,414.331 643.287,408.319 643.287,404.662 643.287,398 641.5,393.613 639.063,387.763 632.888,383.537 629.313,381.1 622.894,379.719 616.719,378.581 615.338,378.013 616.069,376.631 619.563,372.65 622.813,368.344 622.813,363.875 622.813,357.05 617.938,350.713 611.6,342.588 600.713,342.588 593.481,342.588 588.038,344.537 588.688,343.806 589.175,342.994 589.988,341.45 589.988,338.688 589.988,332.106 582.512,326.662 572.762,319.513 554.4,319.513 L544.813,320.65 Q540.831,322.438 538.475,328.125 538.313,328.694 537.988,329.263 538.313,328.694 538.475,328.125 540.181,322.031 528.238,316.669 517.35,311.713 509.225,311.713 499.638,311.713 495.575,314.8 491.513,317.888 490.537,326.013 487.287,322.763 485.419,321.381 482.169,318.863 479.813,318.863 469.981,318.863 464.456,323.25 461.694,325.444 453.487,336.412 L453.487,336.088 Q452.513,329.344 451.862,326.744 450.888,322.356 448.856,320.162 444.063,314.963 425.375,314.963 421.638,314.963 417.819,317.075 414,319.106 410.912,322.763 410.1,321.95 408.394,318.944 406.362,315.369 406.362,315.287 401.244,307.65 397.912,304.969 394.256,301.963 389.463,301.963 363.869,301.963 349.244,311.225 336.65,319.269 339.088,327.963 335.838,323.9 333.806,321.869 330.231,318.213 326.575,318.213 314.631,318.213 304.638,330.319 294.725,342.263 296.838,353.638 296.188,352.825 292.531,350.956 M350.787,358.919 Q353.225,360.056 356.963,362.412 359.563,363.794 359.888,364.037 360.537,364.444 359.563,364.363 360.537,364.444 359.888,364.037 359.563,363.794 356.963,362.412 353.225,360.056 350.787,358.919 346.4,356.888 341.688,356.888 326.575,356.888 318.287,364.037 326.575,356.888 341.688,356.888 346.4,356.888 350.787,358.919 M408.719,351.281 Q415.3,348.438 422.612,348.438 429.112,348.438 433.987,358.838 433.987,359.488 433.419,360.138 432.769,360.869 432.037,361.113 432.769,360.869 433.419,360.138 433.987,359.488 433.987,358.838 429.112,348.438 422.612,348.438 415.3,348.438 408.719,351.281 401.894,354.287 398.563,359.162 401.894,354.287 408.719,351.281 M523.525,344.863 Q524.094,344.863 527.831,348.925 531.488,352.988 531.488,353.638 531.488,362.006 528.319,366.394 526.206,369.319 523.362,369.888 526.206,369.319 528.319,366.394 531.488,362.006 531.488,353.638 531.488,352.988 527.831,348.925 524.094,344.863 523.525,344.863 503.05,344.863 493.463,352.988 503.05,344.863 523.525,344.863 M594.7,363.631 Q598.113,366.231 598.113,376.225 598.113,386.056 589.744,392.475 583.081,397.594 578.288,397.188 583.081,397.594 589.744,392.475 598.113,386.056 598.113,376.225 598.113,366.231 594.7,363.631 591.45,361.113 578.938,361.438 591.45,361.113 594.7,363.631 M600.387,394.263 Q612.006,394.1 612.981,394.425 617.288,395.725 617.288,404.013 617.288,406.775 614.769,409.375 613.144,410.919 608.838,413.763 607.7,414.494 605.75,416.2 603.963,417.662 603.313,417.988 603.963,417.662 605.75,416.2 607.7,414.494 608.838,413.763 613.144,410.919 614.769,409.375 617.288,406.775 617.288,404.013 617.288,395.725 612.981,394.425 612.006,394.1 600.387,394.263Z" test="Tween 6" stroke-width="1.625"/>
        <path id="Layer5_0_1_STROKES" stroke="#FFF" stroke-width="1.625" stroke-linejoin="round" stroke-linecap="round" fill="none" d="M630.938,422.537 Q631.75,424.162 633.213,426.925 634.188,429.444 634.188,433.1 634.188,436.594 633.781,437.813 632.806,440.738 628.338,447.563 626.713,450 619.887,454.388 618.019,455.525 614.2,456.581 610.706,457.556 607.213,459.912 598.031,466.169 565.206,472.344 533.356,478.438 512.475,478.438 488.75,478.438 462.019,476.325 423.831,473.238 395.313,471.938 367.769,470.719 327.713,464.706 275.713,456.906 267.913,456.013 247.275,453.738 229.725,449.756 216.075,446.1 214.937,445.938 210.631,445.287 208.925,442.85 208.356,441.956 207.787,439.438 206.894,435.863 206.406,433.831 205.513,430.256 205.513,428.875 205.513,421.806 209.412,417.256 212.175,413.925 214.937,413.438 214.694,412.544 214.531,409.537 214.287,406.856 214.287,405.963 214.287,395.888 226.637,395.888 236.387,395.888 238.337,397.838 238.419,397.513 238.5,395.563 238.581,393.856 238.987,393.287 240.288,391.338 244.025,390.931 249.144,390.444 249.387,390.363 L262.469,390.363 Q264.338,388.575 264.906,386.787 264.987,386.463 265.069,386.138 265.719,370.944 270.431,361.031 276.119,348.763 286.275,348.763 288.387,348.763 292.531,350.956 296.188,352.825 296.838,353.638 294.725,342.263 304.638,330.319 314.631,318.213 326.575,318.213 330.231,318.213 333.806,321.869 335.838,323.9 339.088,327.963 336.65,319.269 349.244,311.225 363.869,301.963 389.463,301.963 394.256,301.963 397.912,304.969 401.244,307.65 406.362,315.287 406.362,315.369 408.394,318.944 410.1,321.95 410.912,322.763 414,319.106 417.819,317.075 421.638,314.963 425.375,314.963 444.063,314.963 448.856,320.162 450.888,322.356 451.862,326.744 452.513,329.344 453.487,336.088 L453.487,336.412 Q461.694,325.444 464.456,323.25 469.981,318.863 479.813,318.863 482.169,318.863 485.419,321.381 487.287,322.763 490.537,326.013 491.513,317.888 495.575,314.8 499.638,311.713 509.225,311.713 517.35,311.713 528.238,316.669 540.181,322.031 538.475,328.125 540.831,322.438 544.813,320.65 547.494,319.513 554.4,319.513 572.762,319.513 582.512,326.662 589.988,332.106 589.988,338.688 589.988,341.45 589.175,342.994 588.688,343.806 588.038,344.537 593.481,342.588 600.713,342.588 611.6,342.588 617.938,350.713 622.813,357.05 622.813,363.875 622.813,368.344 619.563,372.65 616.069,376.631 615.338,378.013 616.719,378.581 622.894,379.719 629.313,381.1 632.888,383.537 639.063,387.763 641.5,393.613 643.287,398 643.287,404.662 643.287,408.319 636.625,414.331 629.963,419.531 629.963,419.613 629.963,420.912 630.938,421.888 M318.287,364.037 Q326.575,356.888 341.688,356.888 346.4,356.888 350.787,358.919 353.225,360.056 356.963,362.412 359.563,363.794 359.888,364.037 360.537,364.444 359.563,364.363 M398.563,359.162 Q401.894,354.287 408.719,351.281 415.3,348.438 422.612,348.438 429.112,348.438 433.987,358.838 433.987,359.488 433.419,360.138 432.769,360.869 432.037,361.113 M538.475,328.125 Q538.313,328.694 537.988,329.263 M493.463,352.988 Q503.05,344.863 523.525,344.863 524.094,344.863 527.831,348.925 531.488,352.988 531.488,353.638 531.488,362.006 528.319,366.394 526.206,369.319 523.362,369.888 M578.938,361.438 Q591.45,361.113 594.7,363.631 598.113,366.231 598.113,376.225 598.113,386.056 589.744,392.475 583.081,397.594 578.288,397.188 M600.387,394.263 Q612.006,394.1 612.981,394.425 617.288,395.725 617.288,404.013 617.288,406.775 614.769,409.375 613.144,410.919 608.838,413.763 607.7,414.494 605.75,416.2 603.963,417.662 603.313,417.988" test="Tween 6"/>
      </g>
      <g id="Tween-5">
        <g id="Tin-can-Rubbish">
          <path fill="#000" stroke="none" d="M258.781,339.306 Q246.025,354.662 239.769,360.431 224.9,374.162 213.2,374.487 L213.525,376.763 Q213.525,378.306 213.281,379.769 212.956,381.231 212.956,381.719 212.956,382.856 214.581,383.506 215.963,383.994 217.913,383.994 221.813,383.994 230.913,379.525 L231.319,379.525 Q226.931,385.375 226.931,387.081 226.931,391.875 232.7,391.875 236.194,391.875 236.681,391.713 237.169,391.469 239.444,389.763 239.85,388.869 240.256,388.463 L240.256,389.031 Q239.769,389.356 239.444,389.763 238.875,390.656 238.144,392.119 236.356,395.938 236.356,398.7 236.356,403.006 242.613,405.119 248.219,406.987 246.431,413 252.281,413.244 253.906,415.438 254.313,416.006 254.719,417.063 L254.719,417.144 Q269.425,411.213 275.763,406.581 281.856,402.031 284.375,395.694 281.856,402.031 275.763,406.581 269.425,411.213 254.719,417.144 255.288,418.769 255.938,421.45 256.669,423.319 260.325,426.162 262.681,428.112 261.462,432.013 L267.069,432.013 Q289.738,422.669 313.869,394.15 337.269,366.606 342.956,344.344 L342.956,339.306 Q339.219,338.494 334.588,339.306 L331.256,339.306 Q332.881,335.569 328.331,333.7 322.075,332.075 319.069,331.019 317.363,330.369 316.225,328.013 315.169,325.006 314.519,323.544 312.081,318.1 305.581,319.806 L305.581,315.338 Q306.719,314.2 306.719,312.575 306.719,310.3 302.25,309.894 297.213,309.813 296.075,309.731 296.075,308.919 296.644,306.888 297.213,304.938 297.213,304.287 297.213,301.281 292.175,300.875 294.45,296.731 290.713,294.456 287.463,293.237 285.431,292.425 287.788,293.888 287.788,297.219 287.788,307.7 279.744,316.881 267.394,328.987 258.781,339.306 M293.15,338.575 Q290.55,342.963 288.925,343.287 290.55,342.963 293.15,338.575 294.775,335.731 299.975,326.55 294.775,335.731 293.15,338.575 M325.325,351.169 Q322.238,355.881 318.5,357.181 322.238,355.881 325.325,351.169 328.494,346.294 330.119,339.306 328.494,346.294 325.325,351.169 M270.969,365.55 Q268.856,368.963 265.281,375.381 262.844,379.85 262.031,380.662 262.844,379.85 265.281,375.381 268.856,368.963 270.969,365.55 M225.713,336.138 Q212.631,352.875 211.169,361.325 210.356,365.469 210.113,367.744 209.706,370.1 209.869,370.588 209.788,370.831 209.706,371.075 209.625,371.725 209.625,372.213 209.625,373.513 210.113,373.919 210.763,374.487 212.631,374.487 212.875,374.487 213.2,374.487 224.9,374.162 239.769,360.431 246.025,354.662 258.781,339.306 267.394,328.987 279.744,316.881 287.788,307.7 287.788,297.219 287.788,293.888 285.431,292.425 284.456,291.856 283.238,291.612 282.019,291.369 280.475,291.369 273.406,291.369 256.1,305.425 238.794,319.4 225.713,336.138Z" test="Tin can Rubbish" stroke-width="1.625"/>
          <path id="Layer8_0_1_STROKES" stroke="#009EFF" stroke-width="1.625" stroke-linejoin="round" stroke-linecap="round" fill="none" d="M210.113,367.744 Q209.706,370.1 209.869,370.588 M285.431,292.425 Q287.463,293.237 290.713,294.456 294.45,296.731 292.175,300.875 297.213,301.281 297.213,304.287 297.213,304.938 296.644,306.888 296.075,308.919 296.075,309.731 297.213,309.813 302.25,309.894 306.719,310.3 306.719,312.575 306.719,314.2 305.581,315.338 L305.581,319.806 Q312.081,318.1 314.519,323.544 315.169,325.006 316.225,328.013 317.363,330.369 319.069,331.019 322.075,332.075 328.331,333.7 332.881,335.569 331.256,339.306 L334.588,339.306 Q339.219,338.494 342.956,339.306 L342.956,344.344 Q337.269,366.606 313.869,394.15 289.738,422.669 267.069,432.013 L261.462,432.013 Q262.681,428.112 260.325,426.162 256.669,423.319 255.938,421.45 255.288,418.769 254.719,417.144 L254.719,417.063 Q254.313,416.006 253.906,415.438 252.281,413.244 246.431,413 248.219,406.987 242.613,405.119 236.356,403.006 236.356,398.7 236.356,395.938 238.144,392.119 238.875,390.656 239.444,389.763 237.169,391.469 236.681,391.713 236.194,391.875 232.7,391.875 226.931,391.875 226.931,387.081 226.931,385.375 231.319,379.525 L230.913,379.525 Q221.813,383.994 217.913,383.994 215.963,383.994 214.581,383.506 212.956,382.856 212.956,381.719 212.956,381.231 213.281,379.769 213.525,378.306 213.525,376.763 M299.975,326.55 Q294.775,335.731 293.15,338.575 290.55,342.963 288.925,343.287 M330.119,339.306 Q328.494,346.294 325.325,351.169 322.238,355.881 318.5,357.181 M270.969,365.55 Q268.856,368.963 265.281,375.381 262.844,379.85 262.031,380.662 M239.444,389.763 Q239.769,389.356 240.256,389.031 L240.256,388.463 Q239.85,388.869 239.444,389.763Z M254.719,417.144 Q269.425,411.213 275.763,406.581 281.856,402.031 284.375,395.694" test="Tin can Rubbish"/>
          <path id="Layer8_0_2_STROKES" stroke="#FFF" stroke-width="1.625" stroke-linejoin="round" stroke-linecap="round" fill="none" d="M285.431,292.425 Q284.456,291.856 283.238,291.612 282.019,291.369 280.475,291.369 273.406,291.369 256.1,305.425 238.794,319.4 225.713,336.138 212.631,352.875 211.169,361.325 210.356,365.469 210.113,367.744 M209.869,370.588 Q209.788,370.831 209.706,371.075 209.625,371.725 209.625,372.213 209.625,373.513 210.113,373.919 210.763,374.487 212.631,374.487 212.875,374.487 213.2,374.487 224.9,374.162 239.769,360.431 246.025,354.662 258.781,339.306 267.394,328.987 279.744,316.881 287.788,307.7 287.788,297.219 287.788,293.888 285.431,292.425" test="Tin can Rubbish"/>
        </g>
        <g id="Bottle">
          <path fill="#000" stroke="none" d="M573.731,423.063 Q571.213,422.738 562.275,420.869 554.475,419.163 550.088,419.244 541.963,419.325 530.019,412.419 518.237,405.675 507.269,394.869 499.469,387.15 492.562,375.531 487.037,365.05 486.469,364.238 483.787,360.5 481.675,356.6 478.019,350.1 478.262,346.931 459.819,372.688 438.937,396.331 416.431,421.681 399.775,450.931 384.419,477.906 410.581,496.594 437.8,516.013 468.756,527.225 485.9,533.563 499.631,519.506 523.031,495.538 541.637,466.938 556.262,444.35 573.325,423.55 L573.731,423.063 M525.306,311.75 Q525.144,311.669 524.981,311.669 508.406,311.019 496.381,324.019 486.469,334.744 478.262,346.931 478.019,350.1 481.675,356.6 483.787,360.5 486.469,364.238 487.037,365.05 492.562,375.531 499.469,387.15 507.269,394.869 518.237,405.675 530.019,412.419 541.963,419.325 550.088,419.244 554.475,419.163 562.275,420.869 571.213,422.738 573.731,423.063 591.769,405.594 600.137,382.194 600.463,381.381 600.787,380.569 599.975,380.488 599.65,380.569 597.294,380.65 596.4,380.731 595.181,380.813 593.231,381.3 591.363,381.788 588.519,381.788 581.531,381.788 563.981,369.925 547.162,358.631 537.738,348.313 529.938,339.7 527.744,329.219 526.606,318.331 525.306,311.75 M605.744,316.869 Q595.831,308.988 589.25,293.875 560.569,314.025 525.306,311.75 526.606,318.331 527.744,329.219 529.938,339.7 537.738,348.313 547.162,358.631 563.981,369.925 581.531,381.788 588.519,381.788 591.363,381.788 593.231,381.3 595.181,380.813 596.4,380.731 597.294,380.65 599.65,380.569 599.975,380.488 600.787,380.569 592.581,347.663 619.069,326.538 619.8,325.969 620.531,325.238 608.181,318.819 605.744,316.869 M589.088,292.006 L589.25,293.875 Q595.831,308.988 605.744,316.869 608.181,318.819 620.531,325.238 L625.244,326.05 Q628.819,324.588 633.287,315.813 637.512,307.444 637.512,303.138 637.512,297.938 625.813,285.263 620.206,279.169 615.981,276 611.35,272.425 608.506,272.425 603.875,272.425 596.481,281.525 593.637,285.019 589.088,292.006 M612.975,281.119 Q612.488,280.388 612.406,280.306 612.488,280.388 612.975,281.119 614.194,282.825 618.094,288.594 624.838,297.45 630.85,301.431 624.838,297.45 618.094,288.594 614.194,282.825 612.975,281.119Z" test="Bottle" stroke-width="1.625"/>
          <path id="Layer9_0_1_STROKES" stroke="#FFF" stroke-width="1.625" stroke-linejoin="round" stroke-linecap="round" fill="none" d="M589.25,293.875 Q595.831,308.988 605.744,316.869 608.181,318.819 620.531,325.238 M625.244,326.05 Q628.819,324.588 633.287,315.813 637.512,307.444 637.512,303.138 637.512,297.938 625.813,285.263 620.206,279.169 615.981,276 611.35,272.425 608.506,272.425 603.875,272.425 596.481,281.525 593.637,285.019 589.088,292.006 M630.85,301.431 Q624.838,297.45 618.094,288.594 614.194,282.825 612.975,281.119 612.488,280.388 612.406,280.306 M478.262,346.931 Q478.019,350.1 481.675,356.6 483.787,360.5 486.469,364.238 487.037,365.05 492.562,375.531 499.469,387.15 507.269,394.869 518.237,405.675 530.019,412.419 541.963,419.325 550.088,419.244 554.475,419.163 562.275,420.869 571.213,422.738 573.731,423.063 M600.787,380.569 Q599.975,380.488 599.65,380.569 597.294,380.65 596.4,380.731 595.181,380.813 593.231,381.3 591.363,381.788 588.519,381.788 581.531,381.788 563.981,369.925 547.162,358.631 537.738,348.313 529.938,339.7 527.744,329.219 526.606,318.331 525.306,311.75 525.144,310.856 524.981,310.044 M573.731,423.063 Q574.056,423.144 574.219,423.144 574.219,423.388 573.325,423.55" test="Bottle"/>
          <path id="Layer9_0_2_STROKES" stroke="#0F0" stroke-width="1.625" stroke-linejoin="round" stroke-linecap="round" fill="none" d="M525.306,311.75 Q525.144,311.669 524.981,311.669 508.406,311.019 496.381,324.019 486.469,334.744 478.262,346.931 M573.731,423.063 Q591.769,405.594 600.137,382.194 600.463,381.381 600.787,380.569 592.581,347.663 619.069,326.538 619.8,325.969 620.531,325.238 M589.25,293.875 Q560.569,314.025 525.306,311.75 M573.325,423.55 Q556.262,444.35 541.637,466.938 523.031,495.538 499.631,519.506 485.9,533.563 468.756,527.225 437.8,516.013 410.581,496.594 384.419,477.906 399.775,450.931 416.431,421.681 438.937,396.331 459.819,372.688 478.262,346.931 M573.325,423.55 L573.731,423.063" test="Bottle"/>
        </g>
        <g id="Banana">
          <path fill="#000" stroke="none" d="M400.038,247.056 L399.225,247.869 Q393.863,255.669 387.363,267.938 382.325,277.281 379.806,279.719 371.438,287.6 360.956,294.181 350.394,300.356 346.25,303.119 326.75,316.037 309.444,343.175 292.3,369.906 293.763,384.044 L293.763,391.031 Q293.925,391.275 294.819,391.275 297.906,391.275 300.588,386.481 302.05,383.8 304.325,378.438 305.219,376.813 309.038,371.613 310.988,368.931 311.231,368.444 320.331,365.925 334.55,356.419 350.881,345.613 357.95,335.456 365.1,325.219 381.188,312.706 396.706,300.6 397.519,299.3 L398.088,299.3 398.088,302.55 Q393.863,320.75 373.794,354.956 363.313,372.75 360.794,377.706 354.944,388.756 354.619,394.119 355.106,394.119 356.731,394.444 358.275,394.688 359.006,394.688 365.263,394.688 382.894,378.113 401.256,360.888 409.381,346.1 411.088,342.931 413.119,330.581 415.313,317.338 415.963,315.388 418.075,309.7 418.563,307.994 419.213,305.394 420.431,301.006 426.606,310.675 434.325,319.45 439.688,325.706 460.569,349.431 469.994,360.481 474.544,383.963 477.306,398.263 477.306,407.444 484.456,407.525 488.681,398.1 492.419,389.569 492.419,376.813 492.419,364.706 488.194,354.713 486.081,349.756 478.363,337.406 471.131,325.787 467.475,316.2 461.95,301.656 450.981,292.638 439.931,283.537 435.95,274.6 431.888,265.662 428.231,258.431 424.575,251.119 425.713,249.087 L424.413,247.625 Q422.138,249.656 418.481,250.956 414.338,252.337 410.438,252.337 408.569,252.337 404.263,250.144 400.769,248.356 400.038,247.056 M419.294,206.025 Q412.225,203.912 410.031,211.144 409.381,213.419 408.813,223.331 408.163,233 403.856,238.281 399.794,243.4 399.794,246.406 399.794,246.731 400.038,247.056 400.769,248.356 404.263,250.144 408.569,252.337 410.438,252.337 414.338,252.337 418.481,250.956 422.138,249.656 424.413,247.625 425.713,246.487 426.525,245.106 426.038,244.781 425.55,244.538 423.681,243.319 422.381,242.344 419.538,240.394 418.644,239.419 417.1,237.631 417.1,226.662 417.1,219.35 419.294,206.025Z" test="Banana" stroke-width="1.625"/>
          <path id="Layer10_0_1_STROKES" stroke="#FF0" stroke-width="1.625" stroke-linejoin="round" stroke-linecap="round" fill="none" d="M425.713,249.087 Q424.575,251.119 428.231,258.431 431.888,265.662 435.95,274.6 439.931,283.537 450.981,292.638 461.95,301.656 467.475,316.2 471.131,325.787 478.363,337.406 486.081,349.756 488.194,354.713 492.419,364.706 492.419,376.813 492.419,389.569 488.681,398.1 484.456,407.525 477.306,407.444 477.306,398.263 474.544,383.963 469.994,360.481 460.569,349.431 439.688,325.706 434.325,319.45 426.606,310.675 420.431,301.006 419.213,305.394 418.563,307.994 418.075,309.7 415.963,315.388 415.313,317.338 413.119,330.581 411.088,342.931 409.381,346.1 401.256,360.888 382.894,378.113 365.263,394.688 359.006,394.688 358.275,394.688 356.731,394.444 355.106,394.119 354.619,394.119 354.944,388.756 360.794,377.706 363.313,372.75 373.794,354.956 393.863,320.75 398.088,302.55 L398.088,299.3 397.519,299.3 Q396.706,300.6 381.188,312.706 365.1,325.219 357.95,335.456 350.881,345.613 334.55,356.419 320.331,365.925 311.231,368.444 310.988,368.931 309.038,371.613 305.219,376.813 304.325,378.438 302.05,383.8 300.588,386.481 297.906,391.275 294.819,391.275 293.925,391.275 293.763,391.031 L293.763,384.044 Q292.3,369.906 309.444,343.175 326.75,316.037 346.25,303.119 350.394,300.356 360.956,294.181 371.438,287.6 379.806,279.719 382.325,277.281 387.363,267.938 393.863,255.669 399.225,247.869" test="Banana"/>
          <path id="Layer10_0_2_STROKES" stroke="#FFF" stroke-width="1.625" stroke-linejoin="round" stroke-linecap="round" fill="none" d="M400.038,247.056 Q399.794,246.731 399.794,246.406 399.794,243.4 403.856,238.281 408.163,233 408.813,223.331 409.381,213.419 410.031,211.144 412.225,203.912 419.294,206.025 417.1,219.35 417.1,226.662 417.1,237.631 418.644,239.419 419.538,240.394 422.381,242.344 423.681,243.319 425.55,244.538 426.038,244.781 426.525,245.106 425.713,246.487 424.413,247.625 M400.038,247.056 Q400.769,248.356 404.263,250.144 408.569,252.337 410.438,252.337 414.338,252.337 418.481,250.956 422.138,249.656 424.413,247.625" test="Banana"/>
        </g>
      </g>
      <g id="Tween-4">
        <path id="Layer4_0_1_STROKES" stroke="#FFF" stroke-width="1.625" stroke-linejoin="round" stroke-linecap="round" fill="none" d="M546.1,405.238 Q546.1,398.9 555.606,393.944" test="Tween 4"/>
        <g id="Garbage">
          <path fill="#000" stroke="none" d="M438.281,367.119 L436.169,365.9 Q436.006,366.225 435.519,367.119 436.006,366.225 436.169,365.9 436.169,365.738 436.169,365.656 436.169,360.7 433.325,358.75 429.425,355.906 418.294,355.906 406.513,355.906 382.056,368.256 379.213,369.638 374.581,378.413 373.85,379.875 372.956,381.094 372.306,373.863 363.613,368.825 355,363.706 344.356,363.706 332.25,363.706 322.906,369.313 311.125,376.381 311.125,389.625 311.125,390.275 311.206,390.844 305.519,385.481 292.194,385.481 280.981,385.481 274.075,388.975 266.763,392.713 260.344,402.219 255.306,409.613 254.575,415.3 254.169,418.306 254.737,421.719 251.813,414.975 249.375,411.806 245.069,406.119 235.237,406.119 225.975,406.119 219.638,411.725 213.463,417.331 213.463,425.375 213.463,426.838 214.356,438.7 212,442.925 210.619,447.475 208.425,456.494 208.425,464.944 208.425,472.663 214.031,477.538 219.15,482.006 225.731,482.006 228.169,482.006 236.538,480.625 244.825,479.244 250.269,479.244 256.769,479.244 273.263,483.956 289.675,488.669 306.656,488.669 311.613,488.669 351.263,485.094 396.925,481.438 431.7,481.438 439.5,481.356 445.431,481.438 L465.5,482.494 466.313,482.088 Q467.206,481.763 467.938,481.681 472.731,481.438 476.956,479.081 480.125,478.106 482.156,477.213 494.831,471.688 497.513,471.444 L498.081,471.444 Q498.081,471.2 536.025,481.844 577.706,492.65 594.688,492.65 614.188,492.65 623.613,482.656 628.406,477.7 629.219,472.5 629.219,469.9 629.056,469.656 628.975,469.494 628.813,469.331 628.163,468.763 626.456,468.6 628.163,468.763 628.813,469.331 L629.219,468.6 Q631.819,466.975 640.106,463.969 647.094,460.313 647.094,453.569 647.094,449.344 642.056,447.963 L642.625,447.963 Q645.225,445.444 652.05,440.081 657.656,434.881 657.656,429.519 657.656,424.969 654.894,419.525 651.4,412.781 646.281,412.781 637.831,414.813 634.825,415.056 638.725,411.725 638.725,410.019 638.563,407.256 637.019,404.656 634.094,399.538 627.513,399.538 614.594,399.538 609.15,401.406 603.788,403.275 595.175,410.588 593.388,401.325 587.294,395.394 580.956,389.381 572.588,389.381 564.138,389.381 555.606,393.931 L546.1,405.225 Q546.1,406.688 547.156,415.625 546.425,415.219 544.638,414.813 542.931,414.488 541.875,414.488 537.975,414.488 533.344,418.956 531.638,420.663 529.363,424.563 527.25,428.3 526.519,430.656 526.356,431.388 526.194,432.2 525.463,435.125 523.025,437.075 522.294,437.644 521.4,437.969 521.075,437.725 520.831,437.481 516.281,433.013 515.063,426.838 514.413,424.888 513.112,422.775 510.756,418.794 507.019,415.056 515.956,416.031 523.594,413.188 532.125,410.019 533.181,403.356 533.344,402.381 533.344,401.325 533.344,397.1 532.613,394.825 531.069,389.869 525.95,385.481 520.588,380.85 514.819,379.713 512.95,379.306 507.588,379.306 507.669,379.144 512.138,371.263 512.544,370.531 512.869,369.8 L513.6,368.825 Q514.006,368.256 514.088,367.85 514.737,364.519 513.763,361.269 513.194,359.725 510.919,354.931 508.319,349.569 505.15,347.294 497.675,341.931 479.313,341.931 460.056,341.931 443.481,360.619 440.881,363.544 438.281,367.119 M481.75,404.981 Q481.425,405.794 480.775,407.094 481.425,405.794 481.75,404.981 482.4,403.519 482.4,402.381 482.4,395.719 476.55,395.719 473.625,395.719 470.7,396.531 464.85,398.238 464.525,402.544 464.85,398.238 470.7,396.531 473.625,395.719 476.55,395.719 482.4,395.719 482.4,402.381 482.4,403.519 481.75,404.981 M601.675,436.019 Q605.9,438.781 605.9,443.169 605.9,438.781 601.675,436.019 598.181,433.744 594.363,433.744 589,433.744 585.994,435.613 582.825,437.481 582.825,440.894 582.825,437.481 585.994,435.613 589,433.744 594.363,433.744 598.181,433.744 601.675,436.019 M350.45,410.588 Q355.163,413.106 356.3,416.194 355.163,413.106 350.45,410.588 346.063,408.313 342.65,408.313 338.263,408.313 335.094,411.156 330.706,415.219 330.706,423.994 330.706,425.294 330.95,426.025 331.438,427.325 332.9,429.519 331.438,427.325 330.95,426.025 330.706,425.294 330.706,423.994 330.706,415.219 335.094,411.156 338.263,408.313 342.65,408.313 346.063,408.313 350.45,410.588 M416.588,403.356 Q417.725,405.306 417.725,410.344 417.725,419.444 410.575,425.7 402.856,432.363 390.913,431.794 402.856,432.363 410.575,425.7 417.725,419.444 417.725,410.344 417.725,405.306 416.588,403.356 415.288,401.081 411.631,401.081 410.9,401.081 409.844,401.406 408.3,401.894 406.594,402.219 408.3,401.894 409.844,401.406 410.9,401.081 411.631,401.081 415.288,401.081 416.588,403.356Z" test="Garbage" stroke-width="1.625"/>
          <path id="Layer6_0_1_STROKES" stroke="#FFF" stroke-width="1.625" stroke-linejoin="round" stroke-linecap="round" fill="none" d="M436.169,365.9 Q436.006,366.225 435.519,367.119 M628.813,469.331 Q628.975,469.494 629.056,469.656 629.219,469.9 629.219,472.5 628.406,477.7 623.613,482.656 614.188,492.65 594.688,492.65 577.706,492.65 536.025,481.844 498.081,471.2 498.081,471.444 L497.513,471.444 Q494.831,471.688 482.156,477.213 480.125,478.106 476.956,479.081 472.731,481.438 467.938,481.681 467.206,481.763 466.313,482.088 L465.5,482.494 445.431,481.438 Q439.5,481.356 431.7,481.438 396.925,481.438 351.263,485.094 311.613,488.669 306.656,488.669 289.675,488.669 273.263,483.956 256.769,479.244 250.269,479.244 244.825,479.244 236.538,480.625 228.169,482.006 225.731,482.006 219.15,482.006 214.031,477.538 208.425,472.663 208.425,464.944 208.425,456.494 210.619,447.475 212,442.925 214.356,438.7 213.463,426.838 213.463,425.375 213.463,417.331 219.638,411.725 225.975,406.119 235.237,406.119 245.069,406.119 249.375,411.806 251.813,414.975 254.737,421.719 254.169,418.306 254.575,415.3 255.306,409.613 260.344,402.219 266.763,392.713 274.075,388.975 280.981,385.481 292.194,385.481 305.519,385.481 311.206,390.844 311.125,390.275 311.125,389.625 311.125,376.381 322.906,369.313 332.25,363.706 344.356,363.706 355,363.706 363.613,368.825 372.306,373.863 372.956,381.094 373.85,379.875 374.581,378.413 379.213,369.638 382.056,368.256 406.513,355.906 418.294,355.906 429.425,355.906 433.325,358.75 436.169,360.7 436.169,365.656 436.169,365.738 436.169,365.9 M438.281,367.119 Q440.881,363.544 443.481,360.619 460.056,341.931 479.313,341.931 497.675,341.931 505.15,347.294 508.319,349.569 510.919,354.931 513.194,359.725 513.763,361.269 514.737,364.519 514.088,367.85 514.006,368.256 513.6,368.825 L512.869,369.8 Q512.544,370.531 512.138,371.263 507.669,379.144 507.588,379.306 512.95,379.306 514.819,379.713 520.588,380.85 525.95,385.481 531.069,389.869 532.613,394.825 533.344,397.1 533.344,401.325 533.344,402.381 533.181,403.356 532.125,410.019 523.594,413.188 515.956,416.031 507.019,415.056 510.756,418.794 513.112,422.775 514.413,424.888 515.063,426.838 516.281,433.013 520.831,437.481 521.075,437.725 521.4,437.969 522.294,437.644 523.025,437.075 525.463,435.125 526.194,432.2 526.356,431.388 526.519,430.656 527.25,428.3 529.363,424.563 531.638,420.663 533.344,418.956 537.975,414.488 541.875,414.488 542.931,414.488 544.638,414.813 546.425,415.219 547.156,415.625 546.1,406.688 546.1,405.225 M555.606,393.931 Q564.138,389.381 572.588,389.381 580.956,389.381 587.294,395.394 593.388,401.325 595.175,410.588 603.788,403.275 609.15,401.406 614.594,399.538 627.513,399.538 634.094,399.538 637.019,404.656 638.563,407.256 638.725,410.019 638.725,411.725 634.825,415.056 637.831,414.813 646.281,412.781 651.4,412.781 654.894,419.525 657.656,424.969 657.656,429.519 657.656,434.881 652.05,440.081 645.225,445.444 642.625,447.963 L642.056,447.963 Q647.094,449.344 647.094,453.569 647.094,460.313 640.106,463.969 631.819,466.975 629.219,468.6 M626.456,468.6 Q628.163,468.763 628.813,469.331 M464.525,402.544 Q464.85,398.238 470.7,396.531 473.625,395.719 476.55,395.719 482.4,395.719 482.4,402.381 482.4,403.519 481.75,404.981 481.425,405.794 480.775,407.094 M582.825,440.894 Q582.825,437.481 585.994,435.613 589,433.744 594.363,433.744 598.181,433.744 601.675,436.019 605.9,438.781 605.9,443.169 M332.9,429.519 Q331.438,427.325 330.95,426.025 330.706,425.294 330.706,423.994 330.706,415.219 335.094,411.156 338.263,408.313 342.65,408.313 346.063,408.313 350.45,410.588 355.163,413.106 356.3,416.194 M406.594,402.219 Q408.3,401.894 409.844,401.406 410.9,401.081 411.631,401.081 415.288,401.081 416.588,403.356 417.725,405.306 417.725,410.344 417.725,419.444 410.575,425.7 402.856,432.363 390.913,431.794" test="Garbage"/>
        </g>
        <g id="GarbageCloud">
          <path id="Layer7_0_1_STROKES" stroke="#FFF" stroke-width="1.625" stroke-linejoin="round" stroke-linecap="round" fill="none" d="M477.988,288.956 Q480.425,287.656 480.913,286.925 481.888,285.544 481.888,281.725 481.888,276.931 477.744,269.781 473.6,262.631 473.6,256.213 473.6,251.013 479.694,240.938 485.788,230.863 485.788,226.394 485.788,223.794 483.513,220.788 483.188,220.381 480.181,216.969 M574.188,263.281 Q575.163,261.169 579.063,257.675 584.263,252.881 588.488,252.638 589.625,254.913 589.625,257.106 589.625,257.675 584.019,263.281 L574.188,263.281 Q574.025,263.606 573.781,264.338 574.35,264.581 574.919,264.988 577.275,266.531 577.275,268.238 577.275,270.025 576.788,270.513 576.219,271.081 574.269,271.081 572.481,271.081 571.181,270.025 570.044,268.969 570.044,267.669 570.044,266.694 570.45,266.044 566.713,266.044 564.438,265.475 558.913,264.256 558.913,260.438 558.913,257.594 559.969,255.481 561.431,252.638 564.194,252.638 568.094,252.638 570.531,256.131 572.156,258.569 573.375,263.281 L574.188,263.281Z M570.45,266.044 L570.531,266.044 Q571.669,266.044 571.994,265.963 572.4,265.881 572.806,265.475 L572.806,264.338 Q571.75,264.744 571.181,265.15 570.694,265.475 570.45,266.044Z M573.781,264.338 Q572.075,263.525 570.613,263.85 M291.356,249.388 Q291.6,248.575 291.925,247.763 287.131,247.925 282.5,251.175 278.438,253.856 277.056,256.538 L277.056,262.144 282.094,262.144 Q289.731,256.375 290.788,251.5 291.031,250.444 291.356,249.388 290.95,249.388 290.463,249.388 M297.125,250.525 Q295.744,249.306 294.85,248.656 292.656,248.738 292.169,248.819 M294.85,248.656 Q294.119,248.088 293.713,247.844 293.469,247.681 292.738,247.681 292.331,247.681 291.925,247.763 294.038,242.4 298.831,236.469 L303.869,236.469 Q303.869,237.038 304.194,238.5 304.438,239.963 304.438,240.694 304.438,246.95 298.913,248.413 296.475,248.575 294.85,248.656Z M335.638,272.219 Q337.831,267.588 339.375,264.094 342.381,257.35 342.381,254.831 342.381,252.719 337.913,248.25 333.444,243.7 333.444,242.319 333.444,238.338 335.394,232.244 337.344,226.069 337.344,223.388 337.344,217.538 337.019,215.831 336.288,211.525 333.444,210.225 M291.6,250.525 L291.356,251.581 Q291.031,252.881 291.031,253.775 291.031,255.238 292.656,255.969 293.875,256.538 295.013,256.538 295.825,256.538 296.8,256.213 298.669,255.563 298.831,255.481 298.506,251.988 296.231,250.525 294.525,249.55 291.356,249.388" test="GarbageCloud"/>
        </g>
      </g>
      <g id="Drawer">
        <path fill="#000" stroke="none" d="M702.662,543.513 Q702.175,544 701.769,544.488 L701.769,572.031 Q702.175,572.438 702.662,572.925 708.594,578.856 716.881,579.019 L717.369,579.019 Q725.981,579.019 732.075,572.925 738.169,566.831 738.169,558.219 738.169,549.606 732.075,543.513 725.981,537.419 717.369,537.419 L716.881,537.419 Q708.594,537.581 702.662,543.513 M152.519,456.169 Q147.319,480.056 148.294,506.3 151.381,580.156 150.244,626.875 149.269,672.294 152.519,684.969 253.269,683.588 352.719,687.813 392.044,686.675 418.206,688.056 444.775,689.438 463.219,689.438 470.287,689.438 477.519,689.356 487.675,690.575 497.75,690.413 516.275,688.95 534.637,686.269 553.65,683.913 572.906,686.106 591.35,688.219 609.631,687.731 628.806,687.163 647.819,686.025 670.081,685.619 701.769,684.969 L701.769,579.019 701.769,572.031 701.769,544.488 Q701.688,540.913 701.688,537.419 700.631,482.331 701.769,427.569 L666.669,427.569 666.669,456.169 581.519,453 Q356.05,460.394 152.519,456.169Z" test="Drawer" stroke-width="1.625"/>
        <path id="Layer3_0_1_STROKES" stroke="#F60" stroke-width="3.25" stroke-linejoin="round" stroke-linecap="round" fill="none" d="M701.769,572.031 L701.769,579.019 701.769,684.969 Q670.081,685.619 647.819,686.025 628.806,687.163 609.631,687.731 591.35,688.219 572.906,686.106 553.65,683.913 534.637,686.269 516.275,688.95 497.75,690.413 487.675,690.575 477.519,689.356 470.287,689.438 463.219,689.438 444.775,689.438 418.206,688.056 392.044,686.675 352.719,687.813 253.269,683.588 152.519,684.969 149.269,672.294 150.244,626.875 151.381,580.156 148.294,506.3 147.319,480.056 152.519,456.169 356.05,460.394 581.519,453 L666.669,456.169 666.669,427.569 701.769,427.569 Q700.631,482.331 701.688,537.419 701.688,540.913 701.769,544.488 702.175,544 702.662,543.513 708.594,537.581 716.881,537.419 L717.369,537.419 Q725.981,537.419 732.075,543.513 738.169,549.606 738.169,558.219 738.169,566.831 732.075,572.925 725.981,579.019 717.369,579.019 L716.881,579.019 Q708.594,578.856 702.662,572.925 702.175,572.438 701.769,572.031 L701.769,544.488" test="Drawer"/>
      </g>
      <g id="DrawersCabinetFront">
        <path fill="#000" stroke="none" d="M193.919,846.544 Q194.325,846.95 194.813,847.438 200.744,853.369 209.031,853.531 L209.519,853.531 Q218.131,853.531 224.225,847.438 230.319,841.344 230.319,832.731 230.319,824.119 224.225,818.025 218.131,811.931 209.519,811.931 L209.031,811.931 Q200.744,812.094 194.813,818.025 194.325,818.513 193.919,819 L193.919,846.544 M193.919,702.081 L158.819,702.081 158.819,730.681 73.669,727.513 Q-151.8,734.906 -355.331,730.681 -360.531,754.569 -359.556,780.813 -356.469,854.669 -357.606,901.388 -358.581,946.806 -355.331,959.481 -254.581,958.1 -155.131,962.325 -115.806,961.188 -89.644,962.569 -63.075,963.95 -44.631,963.95 -37.562,963.95 -30.331,963.869 -20.175,965.088 -10.1,964.925 8.425,963.463 26.787,960.781 45.8,958.425 65.056,960.619 83.5,962.731 101.781,962.244 120.956,961.675 139.969,960.538 162.231,960.131 193.919,959.481 L193.919,853.531 193.919,846.544 193.919,819 Q193.837,815.425 193.837,811.931 192.781,756.844 193.919,702.081Z" test="DrawersCabinetFront" stroke-width="1.625"/>
        <path id="Layer2_0_1_STROKES" stroke="#F60" stroke-width="3.25" stroke-linejoin="round" stroke-linecap="round" fill="none" d="M193.919,846.544 L193.919,853.531 193.919,959.481 Q162.231,960.131 139.969,960.538 120.956,961.675 101.781,962.244 83.5,962.731 65.056,960.619 45.8,958.425 26.787,960.781 8.425,963.463 -10.1,964.925 -20.175,965.088 -30.331,963.869 -37.562,963.95 -44.631,963.95 -63.075,963.95 -89.644,962.569 -115.806,961.188 -155.131,962.325 -254.581,958.1 -355.331,959.481 -358.581,946.806 -357.606,901.388 -356.469,854.669 -359.556,780.813 -360.531,754.569 -355.331,730.681 -151.8,734.906 73.669,727.513 L158.819,730.681 158.819,702.081 193.919,702.081 Q192.781,756.844 193.837,811.931 193.837,815.425 193.919,819 194.325,818.513 194.813,818.025 200.744,812.094 209.031,811.931 L209.519,811.931 Q218.131,811.931 224.225,818.025 230.319,824.119 230.319,832.731 230.319,841.344 224.225,847.438 218.131,853.531 209.519,853.531 L209.031,853.531 Q200.744,853.369 194.813,847.438 194.325,846.95 193.919,846.544 L193.919,819" test="DrawersCabinetFront"/>
        <path fill="#000" stroke="none" d="M117.3,414.456 Q82.361,413.164 48.725,411.206 15.182,409.333 -73.637,409.663 -162.395,410.08 -203.394,410.556 -244.292,411.114 -296.181,410.638 -348.089,410.155 -378.081,413.806 -380.194,431.031 -382.631,569.563 -385.15,713.456 -382.794,741.813 -381.9,753.35 -387.831,857.269 -393.678,961.186 -389.212,963.463 -384.672,965.741 -372.637,964.844 -368.128,964.566 -362.887,963.869 -352.812,962.569 -342.656,961.269 -294.963,956.394 -247.187,957.856 -225.026,958.003 -201.525,958.263 -83.469,959.644 -67.869,959.644 -53.406,959.644 52.462,963.706 53.681,963.788 54.981,963.788 58.313,963.95 61.644,964.031 66.356,964.194 70.906,964.275 156.462,966.794 158.413,963.706 160.688,960.131 160.85,945.994 160.769,925.844 160.769,912.763 160.769,817.619 161.988,784.55 162.556,768.3 160.769,693.063 159.063,617.338 159.631,598.406 160.686,563.397 159.875,489.125 159.147,414.841 155.731,415.269 152.314,415.771 117.3,414.456Z" test="DrawersCabinetFront" stroke-width="1.625"/>
        <path id="Layer1_0_1_STROKES" stroke="#F60" stroke-width="3.25" stroke-linejoin="round" stroke-linecap="round" fill="none" d="M-378.081,413.806 Q-348.089,410.155 -296.181,410.638 -244.292,411.114 -203.353,410.597 -162.395,410.08 -73.597,409.703 15.182,409.333 48.766,411.247 82.361,413.164 117.341,414.456 152.314,415.771 155.731,415.309 159.147,414.841 159.916,489.125 160.686,563.397 159.631,598.406 159.063,617.338 160.769,693.063 162.556,768.3 161.988,784.55 160.769,817.619 160.769,912.763 160.769,925.844 160.85,945.994 160.688,960.131 158.413,963.706 156.462,966.794 70.906,964.275 66.356,964.194 61.644,964.031 58.313,963.95 54.981,963.788 53.681,963.788 52.462,963.706 -53.406,959.644 -67.869,959.644 -83.469,959.644 -201.525,958.263 -225.026,958.003 -247.187,957.856 -294.963,956.394 -342.656,961.269 -352.812,962.569 -362.887,963.909 -368.128,964.566 -372.597,964.884 -384.672,965.741 -389.172,963.463 -393.678,961.186 -387.791,857.269 -381.9,753.35 -382.794,741.813 -385.15,713.456 -382.631,569.563 -380.194,431.031 -378.081,413.806Z" test="DrawersCabinetFront"/>
      </g>
    </g>
  </g>
</svg>