<?xml version="1.0" encoding="utf-8"?>
<svg id="EdithAnim12" image-rendering="inherit" baseProfile="basic" version="1.1" x="0px" y="0px" width="800" height="600" xmlns="http://www.w3.org/2000/svg" xmlns:xlink="http://www.w3.org/1999/xlink">
  <g id="21_GarbageDrawerf156r1" overflow="visible">
    <g id="GarbageDrawerGroupf156r1">
      <g id="Tween-6">
        <path fill="#000" stroke="none" d="M292.531,359.956 Q288.387,357.763 286.275,357.763 276.119,357.763 270.431,370.031 265.719,379.944 265.069,395.138 264.987,395.463 264.906,395.787 264.338,397.575 262.469,399.363 L249.387,399.363 Q249.144,399.444 244.025,399.931 240.288,400.338 238.987,402.287 238.581,402.856 238.5,404.563 238.419,406.513 238.337,406.838 236.387,404.888 226.637,404.888 214.287,404.888 214.287,414.963 214.287,415.856 214.531,418.537 214.694,421.544 214.937,422.438 212.175,422.925 209.412,426.256 205.513,430.806 205.513,437.875 205.513,439.256 206.406,442.831 206.894,444.863 207.787,448.438 208.356,450.956 208.925,451.85 210.631,454.287 214.937,454.938 216.075,455.1 229.725,458.756 247.275,462.738 267.913,465.013 275.713,465.906 327.713,473.706 367.769,479.719 395.313,480.938 423.831,482.238 462.019,485.325 488.75,487.438 512.475,487.438 533.356,487.438 565.206,481.344 598.031,475.169 607.213,468.912 610.706,466.556 614.2,465.581 618.019,464.525 619.887,463.388 626.713,459 628.338,456.563 632.806,449.738 633.781,446.813 634.188,445.594 634.188,442.1 634.188,438.444 633.213,435.925 631.75,433.162 630.938,431.537 L630.938,430.888 Q629.963,429.912 629.963,428.613 629.963,428.531 636.625,423.331 643.287,417.319 643.287,413.662 643.287,407 641.5,402.613 639.063,396.763 632.888,392.537 629.313,390.1 622.894,388.719 616.719,387.581 615.338,387.013 616.069,385.631 619.563,381.65 622.813,377.344 622.813,372.875 622.813,366.05 617.938,359.713 611.6,351.588 600.713,351.588 593.481,351.588 588.038,353.537 588.688,352.806 589.175,351.994 589.988,350.45 589.988,347.688 589.988,341.106 582.512,335.662 572.762,328.513 554.4,328.513 L544.813,329.65 Q540.831,331.438 538.475,337.125 538.313,337.694 537.988,338.263 538.313,337.694 538.475,337.125 540.181,331.031 528.238,325.669 517.35,320.713 509.225,320.713 499.638,320.713 495.575,323.8 491.513,326.888 490.537,335.013 487.287,331.763 485.419,330.381 482.169,327.863 479.813,327.863 469.981,327.863 464.456,332.25 461.694,334.444 453.487,345.412 L453.487,345.088 Q452.513,338.344 451.862,335.744 450.888,331.356 448.856,329.162 444.063,323.963 425.375,323.963 421.638,323.963 417.819,326.075 414,328.106 410.912,331.763 410.1,330.95 408.394,327.944 406.362,324.369 406.362,324.287 401.244,316.65 397.912,313.969 394.256,310.963 389.463,310.963 363.869,310.963 349.244,320.225 336.65,328.269 339.088,336.963 335.838,332.9 333.806,330.869 330.231,327.213 326.575,327.213 314.631,327.213 304.638,339.319 294.725,351.263 296.838,362.638 296.188,361.825 292.531,359.956 M350.787,367.919 Q353.225,369.056 356.963,371.412 359.563,372.794 359.888,373.037 360.537,373.444 359.563,373.363 360.537,373.444 359.888,373.037 359.563,372.794 356.963,371.412 353.225,369.056 350.787,367.919 346.4,365.888 341.688,365.888 326.575,365.888 318.287,373.037 326.575,365.888 341.688,365.888 346.4,365.888 350.787,367.919 M408.719,360.281 Q415.3,357.438 422.612,357.438 429.112,357.438 433.987,367.838 433.987,368.488 433.419,369.138 432.769,369.869 432.037,370.113 432.769,369.869 433.419,369.138 433.987,368.488 433.987,367.838 429.112,357.438 422.612,357.438 415.3,357.438 408.719,360.281 401.894,363.287 398.563,368.162 401.894,363.287 408.719,360.281 M523.525,353.863 Q524.094,353.863 527.831,357.925 531.488,361.988 531.488,362.638 531.488,371.006 528.319,375.394 526.206,378.319 523.362,378.888 526.206,378.319 528.319,375.394 531.488,371.006 531.488,362.638 531.488,361.988 527.831,357.925 524.094,353.863 523.525,353.863 503.05,353.863 493.463,361.988 503.05,353.863 523.525,353.863 M594.7,372.631 Q598.113,375.231 598.113,385.225 598.113,395.056 589.744,401.475 583.081,406.594 578.288,406.188 583.081,406.594 589.744,401.475 598.113,395.056 598.113,385.225 598.113,375.231 594.7,372.631 591.45,370.113 578.938,370.438 591.45,370.113 594.7,372.631 M600.387,403.263 Q612.006,403.1 612.981,403.425 617.288,404.725 617.288,413.013 617.288,415.775 614.769,418.375 613.144,419.919 608.838,422.763 607.7,423.494 605.75,425.2 603.963,426.662 603.313,426.988 603.963,426.662 605.75,425.2 607.7,423.494 608.838,422.763 613.144,419.919 614.769,418.375 617.288,415.775 617.288,413.013 617.288,404.725 612.981,403.425 612.006,403.1 600.387,403.263Z" test="Tween 6" stroke-width="1.625"/>
        <path id="Layer5_0_1_STROKES" stroke="#FFF" stroke-width="1.625" stroke-linejoin="round" stroke-linecap="round" fill="none" d="M630.938,431.537 Q631.75,433.162 633.213,435.925 634.188,438.444 634.188,442.1 634.188,445.594 633.781,446.813 632.806,449.738 628.338,456.563 626.713,459 619.887,463.388 618.019,464.525 614.2,465.581 610.706,466.556 607.213,468.912 598.031,475.169 565.206,481.344 533.356,487.438 512.475,487.438 488.75,487.438 462.019,485.325 423.831,482.238 395.313,480.938 367.769,479.719 327.713,473.706 275.713,465.906 267.913,465.013 247.275,462.738 229.725,458.756 216.075,455.1 214.937,454.938 210.631,454.287 208.925,451.85 208.356,450.956 207.787,448.438 206.894,444.863 206.406,442.831 205.513,439.256 205.513,437.875 205.513,430.806 209.412,426.256 212.175,422.925 214.937,422.438 214.694,421.544 214.531,418.537 214.287,415.856 214.287,414.963 214.287,404.888 226.637,404.888 236.387,404.888 238.337,406.838 238.419,406.513 238.5,404.563 238.581,402.856 238.987,402.287 240.288,400.338 244.025,399.931 249.144,399.444 249.387,399.363 L262.469,399.363 Q264.338,397.575 264.906,395.787 264.987,395.463 265.069,395.138 265.719,379.944 270.431,370.031 276.119,357.763 286.275,357.763 288.387,357.763 292.531,359.956 296.188,361.825 296.838,362.638 294.725,351.263 304.638,339.319 314.631,327.213 326.575,327.213 330.231,327.213 333.806,330.869 335.838,332.9 339.088,336.963 336.65,328.269 349.244,320.225 363.869,310.963 389.463,310.963 394.256,310.963 397.912,313.969 401.244,316.65 406.362,324.287 406.362,324.369 408.394,327.944 410.1,330.95 410.912,331.763 414,328.106 417.819,326.075 421.638,323.963 425.375,323.963 444.063,323.963 448.856,329.162 450.888,331.356 451.862,335.744 452.513,338.344 453.487,345.088 L453.487,345.412 Q461.694,334.444 464.456,332.25 469.981,327.863 479.813,327.863 482.169,327.863 485.419,330.381 487.287,331.763 490.537,335.013 491.513,326.888 495.575,323.8 499.638,320.713 509.225,320.713 517.35,320.713 528.238,325.669 540.181,331.031 538.475,337.125 540.831,331.438 544.813,329.65 547.494,328.513 554.4,328.513 572.762,328.513 582.512,335.662 589.988,341.106 589.988,347.688 589.988,350.45 589.175,351.994 588.688,352.806 588.038,353.537 593.481,351.588 600.713,351.588 611.6,351.588 617.938,359.713 622.813,366.05 622.813,372.875 622.813,377.344 619.563,381.65 616.069,385.631 615.338,387.013 616.719,387.581 622.894,388.719 629.313,390.1 632.888,392.537 639.063,396.763 641.5,402.613 643.287,407 643.287,413.662 643.287,417.319 636.625,423.331 629.963,428.531 629.963,428.613 629.963,429.912 630.938,430.888 M318.287,373.037 Q326.575,365.888 341.688,365.888 346.4,365.888 350.787,367.919 353.225,369.056 356.963,371.412 359.563,372.794 359.888,373.037 360.537,373.444 359.563,373.363 M398.563,368.162 Q401.894,363.287 408.719,360.281 415.3,357.438 422.612,357.438 429.112,357.438 433.987,367.838 433.987,368.488 433.419,369.138 432.769,369.869 432.037,370.113 M538.475,337.125 Q538.313,337.694 537.988,338.263 M493.463,361.988 Q503.05,353.863 523.525,353.863 524.094,353.863 527.831,357.925 531.488,361.988 531.488,362.638 531.488,371.006 528.319,375.394 526.206,378.319 523.362,378.888 M578.938,370.438 Q591.45,370.113 594.7,372.631 598.113,375.231 598.113,385.225 598.113,395.056 589.744,401.475 583.081,406.594 578.288,406.188 M600.387,403.263 Q612.006,403.1 612.981,403.425 617.288,404.725 617.288,413.013 617.288,415.775 614.769,418.375 613.144,419.919 608.838,422.763 607.7,423.494 605.75,425.2 603.963,426.662 603.313,426.988" test="Tween 6"/>
      </g>
      <g id="Tween-5">
        <g id="Tin-can-Rubbish">
          <path fill="#000" stroke="none" d="M258.781,350.356 Q246.025,365.713 239.769,371.481 224.9,385.213 213.2,385.537 L213.525,387.813 Q213.525,389.356 213.281,390.819 212.956,392.281 212.956,392.769 212.956,393.906 214.581,394.556 215.963,395.044 217.913,395.044 221.813,395.044 230.913,390.575 L231.319,390.575 Q226.931,396.425 226.931,398.131 226.931,402.925 232.7,402.925 236.194,402.925 236.681,402.763 237.169,402.519 239.444,400.813 239.85,399.919 240.256,399.513 L240.256,400.081 Q239.769,400.406 239.444,400.813 238.875,401.706 238.144,403.169 236.356,406.988 236.356,409.75 236.356,414.056 242.613,416.169 248.219,418.037 246.431,424.05 252.281,424.294 253.906,426.488 254.313,427.056 254.719,428.113 L254.719,428.194 Q269.425,422.263 275.763,417.631 281.856,413.081 284.375,406.744 281.856,413.081 275.763,417.631 269.425,422.263 254.719,428.194 255.288,429.819 255.938,432.5 256.669,434.369 260.325,437.213 262.681,439.162 261.462,443.063 L267.069,443.063 Q289.738,433.719 313.869,405.2 337.269,377.656 342.956,355.394 L342.956,350.356 Q339.219,349.544 334.588,350.356 L331.256,350.356 Q332.881,346.619 328.331,344.75 322.075,343.125 319.069,342.069 317.363,341.419 316.225,339.063 315.169,336.056 314.519,334.594 312.081,329.15 305.581,330.856 L305.581,326.388 Q306.719,325.25 306.719,323.625 306.719,321.35 302.25,320.944 297.213,320.863 296.075,320.781 296.075,319.969 296.644,317.938 297.213,315.988 297.213,315.338 297.213,312.331 292.175,311.925 294.45,307.781 290.713,305.506 287.463,304.287 285.431,303.475 287.788,304.938 287.788,308.269 287.788,318.75 279.744,327.931 267.394,340.037 258.781,350.356 M293.15,349.625 Q290.55,354.013 288.925,354.338 290.55,354.013 293.15,349.625 294.775,346.781 299.975,337.6 294.775,346.781 293.15,349.625 M325.325,362.219 Q322.238,366.931 318.5,368.231 322.238,366.931 325.325,362.219 328.494,357.344 330.119,350.356 328.494,357.344 325.325,362.219 M270.969,376.6 Q268.856,380.013 265.281,386.431 262.844,390.9 262.031,391.713 262.844,390.9 265.281,386.431 268.856,380.013 270.969,376.6 M225.713,347.188 Q212.631,363.925 211.169,372.375 210.356,376.519 210.113,378.794 209.706,381.15 209.869,381.638 209.788,381.881 209.706,382.125 209.625,382.775 209.625,383.263 209.625,384.563 210.113,384.969 210.763,385.537 212.631,385.537 212.875,385.537 213.2,385.537 224.9,385.213 239.769,371.481 246.025,365.713 258.781,350.356 267.394,340.037 279.744,327.931 287.788,318.75 287.788,308.269 287.788,304.938 285.431,303.475 284.456,302.906 283.238,302.662 282.019,302.419 280.475,302.419 273.406,302.419 256.1,316.475 238.794,330.45 225.713,347.188Z" test="Tin can Rubbish" stroke-width="1.625"/>
          <path id="Layer8_0_1_STROKES" stroke="#009EFF" stroke-width="1.625" stroke-linejoin="round" stroke-linecap="round" fill="none" d="M210.113,378.794 Q209.706,381.15 209.869,381.638 M285.431,303.475 Q287.463,304.287 290.713,305.506 294.45,307.781 292.175,311.925 297.213,312.331 297.213,315.338 297.213,315.988 296.644,317.938 296.075,319.969 296.075,320.781 297.213,320.863 302.25,320.944 306.719,321.35 306.719,323.625 306.719,325.25 305.581,326.388 L305.581,330.856 Q312.081,329.15 314.519,334.594 315.169,336.056 316.225,339.063 317.363,341.419 319.069,342.069 322.075,343.125 328.331,344.75 332.881,346.619 331.256,350.356 L334.588,350.356 Q339.219,349.544 342.956,350.356 L342.956,355.394 Q337.269,377.656 313.869,405.2 289.738,433.719 267.069,443.063 L261.462,443.063 Q262.681,439.162 260.325,437.213 256.669,434.369 255.938,432.5 255.288,429.819 254.719,428.194 L254.719,428.113 Q254.313,427.056 253.906,426.488 252.281,424.294 246.431,424.05 248.219,418.037 242.613,416.169 236.356,414.056 236.356,409.75 236.356,406.988 238.144,403.169 238.875,401.706 239.444,400.813 237.169,402.519 236.681,402.763 236.194,402.925 232.7,402.925 226.931,402.925 226.931,398.131 226.931,396.425 231.319,390.575 L230.913,390.575 Q221.813,395.044 217.913,395.044 215.963,395.044 214.581,394.556 212.956,393.906 212.956,392.769 212.956,392.281 213.281,390.819 213.525,389.356 213.525,387.813 M299.975,337.6 Q294.775,346.781 293.15,349.625 290.55,354.013 288.925,354.338 M330.119,350.356 Q328.494,357.344 325.325,362.219 322.238,366.931 318.5,368.231 M270.969,376.6 Q268.856,380.013 265.281,386.431 262.844,390.9 262.031,391.713 M239.444,400.813 Q239.769,400.406 240.256,400.081 L240.256,399.513 Q239.85,399.919 239.444,400.813Z M254.719,428.194 Q269.425,422.263 275.763,417.631 281.856,413.081 284.375,406.744" test="Tin can Rubbish"/>
          <path id="Layer8_0_2_STROKES" stroke="#FFF" stroke-width="1.625" stroke-linejoin="round" stroke-linecap="round" fill="none" d="M285.431,303.475 Q284.456,302.906 283.238,302.662 282.019,302.419 280.475,302.419 273.406,302.419 256.1,316.475 238.794,330.45 225.713,347.188 212.631,363.925 211.169,372.375 210.356,376.519 210.113,378.794 M209.869,381.638 Q209.788,381.881 209.706,382.125 209.625,382.775 209.625,383.263 209.625,384.563 210.113,384.969 210.763,385.537 212.631,385.537 212.875,385.537 213.2,385.537 224.9,385.213 239.769,371.481 246.025,365.713 258.781,350.356 267.394,340.037 279.744,327.931 287.788,318.75 287.788,308.269 287.788,304.938 285.431,303.475" test="Tin can Rubbish"/>
        </g>
        <g id="Bottle">
          <path fill="#000" stroke="none" d="M573.731,434.113 Q571.213,433.788 562.275,431.919 554.475,430.213 550.088,430.294 541.963,430.375 530.019,423.469 518.237,416.725 507.269,405.919 499.469,398.2 492.562,386.581 487.037,376.1 486.469,375.288 483.787,371.55 481.675,367.65 478.019,361.15 478.262,357.981 459.819,383.738 438.937,407.381 416.431,432.731 399.775,461.981 384.419,488.956 410.581,507.644 437.8,527.063 468.756,538.275 485.9,544.613 499.631,530.556 523.031,506.588 541.637,477.988 556.262,455.4 573.325,434.6 L573.731,434.113 M525.306,322.8 Q525.144,322.719 524.981,322.719 508.406,322.069 496.381,335.069 486.469,345.794 478.262,357.981 478.019,361.15 481.675,367.65 483.787,371.55 486.469,375.288 487.037,376.1 492.562,386.581 499.469,398.2 507.269,405.919 518.237,416.725 530.019,423.469 541.963,430.375 550.088,430.294 554.475,430.213 562.275,431.919 571.213,433.788 573.731,434.113 591.769,416.644 600.137,393.244 600.463,392.431 600.787,391.619 599.975,391.538 599.65,391.619 597.294,391.7 596.4,391.781 595.181,391.863 593.231,392.35 591.363,392.838 588.519,392.838 581.531,392.838 563.981,380.975 547.162,369.681 537.738,359.363 529.938,350.75 527.744,340.269 526.606,329.381 525.306,322.8 M605.744,327.919 Q595.831,320.038 589.25,304.925 560.569,325.075 525.306,322.8 526.606,329.381 527.744,340.269 529.938,350.75 537.738,359.363 547.162,369.681 563.981,380.975 581.531,392.838 588.519,392.838 591.363,392.838 593.231,392.35 595.181,391.863 596.4,391.781 597.294,391.7 599.65,391.619 599.975,391.538 600.787,391.619 592.581,358.713 619.069,337.588 619.8,337.019 620.531,336.288 608.181,329.869 605.744,327.919 M589.088,303.056 L589.25,304.925 Q595.831,320.038 605.744,327.919 608.181,329.869 620.531,336.288 L625.244,337.1 Q628.819,335.638 633.287,326.863 637.512,318.494 637.512,314.188 637.512,308.988 625.813,296.313 620.206,290.219 615.981,287.05 611.35,283.475 608.506,283.475 603.875,283.475 596.481,292.575 593.637,296.069 589.088,303.056 M612.975,292.169 Q612.488,291.438 612.406,291.356 612.488,291.438 612.975,292.169 614.194,293.875 618.094,299.644 624.838,308.5 630.85,312.481 624.838,308.5 618.094,299.644 614.194,293.875 612.975,292.169Z" test="Bottle" stroke-width="1.625"/>
          <path id="Layer9_0_1_STROKES" stroke="#FFF" stroke-width="1.625" stroke-linejoin="round" stroke-linecap="round" fill="none" d="M589.25,304.925 Q595.831,320.038 605.744,327.919 608.181,329.869 620.531,336.288 M625.244,337.1 Q628.819,335.638 633.287,326.863 637.512,318.494 637.512,314.188 637.512,308.988 625.813,296.313 620.206,290.219 615.981,287.05 611.35,283.475 608.506,283.475 603.875,283.475 596.481,292.575 593.637,296.069 589.088,303.056 M630.85,312.481 Q624.838,308.5 618.094,299.644 614.194,293.875 612.975,292.169 612.488,291.438 612.406,291.356 M478.262,357.981 Q478.019,361.15 481.675,367.65 483.787,371.55 486.469,375.288 487.037,376.1 492.562,386.581 499.469,398.2 507.269,405.919 518.237,416.725 530.019,423.469 541.963,430.375 550.088,430.294 554.475,430.213 562.275,431.919 571.213,433.788 573.731,434.113 M600.787,391.619 Q599.975,391.538 599.65,391.619 597.294,391.7 596.4,391.781 595.181,391.863 593.231,392.35 591.363,392.838 588.519,392.838 581.531,392.838 563.981,380.975 547.162,369.681 537.738,359.363 529.938,350.75 527.744,340.269 526.606,329.381 525.306,322.8 525.144,321.906 524.981,321.094 M573.731,434.113 Q574.056,434.194 574.219,434.194 574.219,434.438 573.325,434.6" test="Bottle"/>
          <path id="Layer9_0_2_STROKES" stroke="#0F0" stroke-width="1.625" stroke-linejoin="round" stroke-linecap="round" fill="none" d="M525.306,322.8 Q525.144,322.719 524.981,322.719 508.406,322.069 496.381,335.069 486.469,345.794 478.262,357.981 M573.731,434.113 Q591.769,416.644 600.137,393.244 600.463,392.431 600.787,391.619 592.581,358.713 619.069,337.588 619.8,337.019 620.531,336.288 M589.25,304.925 Q560.569,325.075 525.306,322.8 M573.325,434.6 Q556.262,455.4 541.637,477.988 523.031,506.588 499.631,530.556 485.9,544.613 468.756,538.275 437.8,527.063 410.581,507.644 384.419,488.956 399.775,461.981 416.431,432.731 438.937,407.381 459.819,383.738 478.262,357.981 M573.325,434.6 L573.731,434.113" test="Bottle"/>
        </g>
        <g id="Banana">
          <path fill="#000" stroke="none" d="M400.038,258.106 L399.225,258.919 Q393.863,266.719 387.363,278.988 382.325,288.331 379.806,290.769 371.438,298.65 360.956,305.231 350.394,311.406 346.25,314.169 326.75,327.088 309.444,354.225 292.3,380.956 293.763,395.094 L293.763,402.081 Q293.925,402.325 294.819,402.325 297.906,402.325 300.588,397.531 302.05,394.85 304.325,389.488 305.219,387.863 309.038,382.663 310.988,379.981 311.231,379.494 320.331,376.975 334.55,367.469 350.881,356.663 357.95,346.506 365.1,336.269 381.188,323.756 396.706,311.65 397.519,310.35 L398.088,310.35 398.088,313.6 Q393.863,331.8 373.794,366.006 363.313,383.8 360.794,388.756 354.944,399.806 354.619,405.169 355.106,405.169 356.731,405.494 358.275,405.738 359.006,405.738 365.263,405.738 382.894,389.163 401.256,371.938 409.381,357.15 411.088,353.981 413.119,341.631 415.313,328.388 415.963,326.438 418.075,320.75 418.563,319.044 419.213,316.444 420.431,312.056 426.606,321.725 434.325,330.5 439.688,336.756 460.569,360.481 469.994,371.531 474.544,395.013 477.306,409.313 477.306,418.494 484.456,418.575 488.681,409.15 492.419,400.619 492.419,387.863 492.419,375.756 488.194,365.763 486.081,360.806 478.363,348.456 471.131,336.838 467.475,327.25 461.95,312.706 450.981,303.688 439.931,294.588 435.95,285.65 431.888,276.713 428.231,269.481 424.575,262.169 425.713,260.138 L424.413,258.675 Q422.138,260.706 418.481,262.006 414.338,263.388 410.438,263.388 408.569,263.388 404.263,261.194 400.769,259.406 400.038,258.106 M419.294,217.075 Q412.225,214.962 410.031,222.194 409.381,224.469 408.813,234.381 408.163,244.05 403.856,249.331 399.794,254.45 399.794,257.456 399.794,257.781 400.038,258.106 400.769,259.406 404.263,261.194 408.569,263.388 410.438,263.388 414.338,263.388 418.481,262.006 422.138,260.706 424.413,258.675 425.713,257.538 426.525,256.156 426.038,255.831 425.55,255.588 423.681,254.369 422.381,253.394 419.538,251.444 418.644,250.469 417.1,248.681 417.1,237.712 417.1,230.4 419.294,217.075Z" test="Banana" stroke-width="1.625"/>
          <path id="Layer10_0_1_STROKES" stroke="#FF0" stroke-width="1.625" stroke-linejoin="round" stroke-linecap="round" fill="none" d="M425.713,260.138 Q424.575,262.169 428.231,269.481 431.888,276.713 435.95,285.65 439.931,294.588 450.981,303.688 461.95,312.706 467.475,327.25 471.131,336.838 478.363,348.456 486.081,360.806 488.194,365.763 492.419,375.756 492.419,387.863 492.419,400.619 488.681,409.15 484.456,418.575 477.306,418.494 477.306,409.313 474.544,395.013 469.994,371.531 460.569,360.481 439.688,336.756 434.325,330.5 426.606,321.725 420.431,312.056 419.213,316.444 418.563,319.044 418.075,320.75 415.963,326.438 415.313,328.388 413.119,341.631 411.088,353.981 409.381,357.15 401.256,371.938 382.894,389.163 365.263,405.738 359.006,405.738 358.275,405.738 356.731,405.494 355.106,405.169 354.619,405.169 354.944,399.806 360.794,388.756 363.313,383.8 373.794,366.006 393.863,331.8 398.088,313.6 L398.088,310.35 397.519,310.35 Q396.706,311.65 381.188,323.756 365.1,336.269 357.95,346.506 350.881,356.663 334.55,367.469 320.331,376.975 311.231,379.494 310.988,379.981 309.038,382.663 305.219,387.863 304.325,389.488 302.05,394.85 300.588,397.531 297.906,402.325 294.819,402.325 293.925,402.325 293.763,402.081 L293.763,395.094 Q292.3,380.956 309.444,354.225 326.75,327.088 346.25,314.169 350.394,311.406 360.956,305.231 371.438,298.65 379.806,290.769 382.325,288.331 387.363,278.988 393.863,266.719 399.225,258.919" test="Banana"/>
          <path id="Layer10_0_2_STROKES" stroke="#FFF" stroke-width="1.625" stroke-linejoin="round" stroke-linecap="round" fill="none" d="M400.038,258.106 Q399.794,257.781 399.794,257.456 399.794,254.45 403.856,249.331 408.163,244.05 408.813,234.381 409.381,224.469 410.031,222.194 412.225,214.962 419.294,217.075 417.1,230.4 417.1,237.712 417.1,248.681 418.644,250.469 419.538,251.444 422.381,253.394 423.681,254.369 425.55,255.588 426.038,255.831 426.525,256.156 425.713,257.538 424.413,258.675 M400.038,258.106 Q400.769,259.406 404.263,261.194 408.569,263.388 410.438,263.388 414.338,263.388 418.481,262.006 422.138,260.706 424.413,258.675" test="Banana"/>
        </g>
      </g>
      <g id="Tween-4">
        <path id="Layer4_0_1_STROKES" stroke="#FFF" stroke-width="1.625" stroke-linejoin="round" stroke-linecap="round" fill="none" d="M546.1,416.488 Q546.1,410.15 555.606,405.194" test="Tween 4"/>
        <g id="Garbage">
          <path fill="#000" stroke="none" d="M438.281,378.369 L436.169,377.15 Q436.006,377.475 435.519,378.369 436.006,377.475 436.169,377.15 436.169,376.988 436.169,376.906 436.169,371.95 433.325,370 429.425,367.156 418.294,367.156 406.513,367.156 382.056,379.506 379.213,380.888 374.581,389.663 373.85,391.125 372.956,392.344 372.306,385.113 363.613,380.075 355,374.956 344.356,374.956 332.25,374.956 322.906,380.563 311.125,387.631 311.125,400.875 311.125,401.525 311.206,402.094 305.519,396.731 292.194,396.731 280.981,396.731 274.075,400.225 266.763,403.963 260.344,413.469 255.306,420.863 254.575,426.55 254.169,429.556 254.737,432.969 251.813,426.225 249.375,423.056 245.069,417.369 235.237,417.369 225.975,417.369 219.638,422.975 213.463,428.581 213.463,436.625 213.463,438.088 214.356,449.95 212,454.175 210.619,458.725 208.425,467.744 208.425,476.194 208.425,483.913 214.031,488.788 219.15,493.256 225.731,493.256 228.169,493.256 236.538,491.875 244.825,490.494 250.269,490.494 256.769,490.494 273.263,495.206 289.675,499.919 306.656,499.919 311.613,499.919 351.263,496.344 396.925,492.688 431.7,492.688 439.5,492.606 445.431,492.688 L465.5,493.744 466.313,493.338 Q467.206,493.013 467.938,492.931 472.731,492.688 476.956,490.331 480.125,489.356 482.156,488.463 494.831,482.938 497.513,482.694 L498.081,482.694 Q498.081,482.45 536.025,493.094 577.706,503.9 594.688,503.9 614.188,503.9 623.613,493.906 628.406,488.95 629.219,483.75 629.219,481.15 629.056,480.906 628.975,480.744 628.813,480.581 628.163,480.013 626.456,479.85 628.163,480.013 628.813,480.581 L629.219,479.85 Q631.819,478.225 640.106,475.219 647.094,471.563 647.094,464.819 647.094,460.594 642.056,459.213 L642.625,459.213 Q645.225,456.694 652.05,451.331 657.656,446.131 657.656,440.769 657.656,436.219 654.894,430.775 651.4,424.031 646.281,424.031 637.831,426.063 634.825,426.306 638.725,422.975 638.725,421.269 638.563,418.506 637.019,415.906 634.094,410.788 627.513,410.788 614.594,410.788 609.15,412.656 603.788,414.525 595.175,421.838 593.388,412.575 587.294,406.644 580.956,400.631 572.588,400.631 564.138,400.631 555.606,405.181 L546.1,416.475 Q546.1,417.938 547.156,426.875 546.425,426.469 544.638,426.063 542.931,425.738 541.875,425.738 537.975,425.738 533.344,430.206 531.638,431.913 529.363,435.813 527.25,439.55 526.519,441.906 526.356,442.638 526.194,443.45 525.463,446.375 523.025,448.325 522.294,448.894 521.4,449.219 521.075,448.975 520.831,448.731 516.281,444.263 515.063,438.088 514.413,436.138 513.112,434.025 510.756,430.044 507.019,426.306 515.956,427.281 523.594,424.438 532.125,421.269 533.181,414.606 533.344,413.631 533.344,412.575 533.344,408.35 532.613,406.075 531.069,401.119 525.95,396.731 520.588,392.1 514.819,390.963 512.95,390.556 507.588,390.556 507.669,390.394 512.138,382.513 512.544,381.781 512.869,381.05 L513.6,380.075 Q514.006,379.506 514.088,379.1 514.737,375.769 513.763,372.519 513.194,370.975 510.919,366.181 508.319,360.819 505.15,358.544 497.675,353.181 479.313,353.181 460.056,353.181 443.481,371.869 440.881,374.794 438.281,378.369 M481.75,416.231 Q481.425,417.044 480.775,418.344 481.425,417.044 481.75,416.231 482.4,414.769 482.4,413.631 482.4,406.969 476.55,406.969 473.625,406.969 470.7,407.781 464.85,409.488 464.525,413.794 464.85,409.488 470.7,407.781 473.625,406.969 476.55,406.969 482.4,406.969 482.4,413.631 482.4,414.769 481.75,416.231 M601.675,447.269 Q605.9,450.031 605.9,454.419 605.9,450.031 601.675,447.269 598.181,444.994 594.363,444.994 589,444.994 585.994,446.863 582.825,448.731 582.825,452.144 582.825,448.731 585.994,446.863 589,444.994 594.363,444.994 598.181,444.994 601.675,447.269 M350.45,421.838 Q355.163,424.356 356.3,427.444 355.163,424.356 350.45,421.838 346.063,419.563 342.65,419.563 338.263,419.563 335.094,422.406 330.706,426.469 330.706,435.244 330.706,436.544 330.95,437.275 331.438,438.575 332.9,440.769 331.438,438.575 330.95,437.275 330.706,436.544 330.706,435.244 330.706,426.469 335.094,422.406 338.263,419.563 342.65,419.563 346.063,419.563 350.45,421.838 M416.588,414.606 Q417.725,416.556 417.725,421.594 417.725,430.694 410.575,436.95 402.856,443.613 390.913,443.044 402.856,443.613 410.575,436.95 417.725,430.694 417.725,421.594 417.725,416.556 416.588,414.606 415.288,412.331 411.631,412.331 410.9,412.331 409.844,412.656 408.3,413.144 406.594,413.469 408.3,413.144 409.844,412.656 410.9,412.331 411.631,412.331 415.288,412.331 416.588,414.606Z" test="Garbage" stroke-width="1.625"/>
          <path id="Layer6_0_1_STROKES" stroke="#FFF" stroke-width="1.625" stroke-linejoin="round" stroke-linecap="round" fill="none" d="M436.169,377.15 Q436.006,377.475 435.519,378.369 M628.813,480.581 Q628.975,480.744 629.056,480.906 629.219,481.15 629.219,483.75 628.406,488.95 623.613,493.906 614.188,503.9 594.688,503.9 577.706,503.9 536.025,493.094 498.081,482.45 498.081,482.694 L497.513,482.694 Q494.831,482.938 482.156,488.463 480.125,489.356 476.956,490.331 472.731,492.688 467.938,492.931 467.206,493.013 466.313,493.338 L465.5,493.744 445.431,492.688 Q439.5,492.606 431.7,492.688 396.925,492.688 351.263,496.344 311.613,499.919 306.656,499.919 289.675,499.919 273.263,495.206 256.769,490.494 250.269,490.494 244.825,490.494 236.538,491.875 228.169,493.256 225.731,493.256 219.15,493.256 214.031,488.788 208.425,483.913 208.425,476.194 208.425,467.744 210.619,458.725 212,454.175 214.356,449.95 213.463,438.088 213.463,436.625 213.463,428.581 219.638,422.975 225.975,417.369 235.237,417.369 245.069,417.369 249.375,423.056 251.813,426.225 254.737,432.969 254.169,429.556 254.575,426.55 255.306,420.863 260.344,413.469 266.763,403.963 274.075,400.225 280.981,396.731 292.194,396.731 305.519,396.731 311.206,402.094 311.125,401.525 311.125,400.875 311.125,387.631 322.906,380.563 332.25,374.956 344.356,374.956 355,374.956 363.613,380.075 372.306,385.113 372.956,392.344 373.85,391.125 374.581,389.663 379.213,380.888 382.056,379.506 406.513,367.156 418.294,367.156 429.425,367.156 433.325,370 436.169,371.95 436.169,376.906 436.169,376.988 436.169,377.15 M438.281,378.369 Q440.881,374.794 443.481,371.869 460.056,353.181 479.313,353.181 497.675,353.181 505.15,358.544 508.319,360.819 510.919,366.181 513.194,370.975 513.763,372.519 514.737,375.769 514.088,379.1 514.006,379.506 513.6,380.075 L512.869,381.05 Q512.544,381.781 512.138,382.513 507.669,390.394 507.588,390.556 512.95,390.556 514.819,390.963 520.588,392.1 525.95,396.731 531.069,401.119 532.613,406.075 533.344,408.35 533.344,412.575 533.344,413.631 533.181,414.606 532.125,421.269 523.594,424.438 515.956,427.281 507.019,426.306 510.756,430.044 513.112,434.025 514.413,436.138 515.063,438.088 516.281,444.263 520.831,448.731 521.075,448.975 521.4,449.219 522.294,448.894 523.025,448.325 525.463,446.375 526.194,443.45 526.356,442.638 526.519,441.906 527.25,439.55 529.363,435.813 531.638,431.913 533.344,430.206 537.975,425.738 541.875,425.738 542.931,425.738 544.638,426.063 546.425,426.469 547.156,426.875 546.1,417.938 546.1,416.475 M555.606,405.181 Q564.138,400.631 572.588,400.631 580.956,400.631 587.294,406.644 593.388,412.575 595.175,421.838 603.788,414.525 609.15,412.656 614.594,410.788 627.513,410.788 634.094,410.788 637.019,415.906 638.563,418.506 638.725,421.269 638.725,422.975 634.825,426.306 637.831,426.063 646.281,424.031 651.4,424.031 654.894,430.775 657.656,436.219 657.656,440.769 657.656,446.131 652.05,451.331 645.225,456.694 642.625,459.213 L642.056,459.213 Q647.094,460.594 647.094,464.819 647.094,471.563 640.106,475.219 631.819,478.225 629.219,479.85 M626.456,479.85 Q628.163,480.013 628.813,480.581 M464.525,413.794 Q464.85,409.488 470.7,407.781 473.625,406.969 476.55,406.969 482.4,406.969 482.4,413.631 482.4,414.769 481.75,416.231 481.425,417.044 480.775,418.344 M582.825,452.144 Q582.825,448.731 585.994,446.863 589,444.994 594.363,444.994 598.181,444.994 601.675,447.269 605.9,450.031 605.9,454.419 M332.9,440.769 Q331.438,438.575 330.95,437.275 330.706,436.544 330.706,435.244 330.706,426.469 335.094,422.406 338.263,419.563 342.65,419.563 346.063,419.563 350.45,421.838 355.163,424.356 356.3,427.444 M406.594,413.469 Q408.3,413.144 409.844,412.656 410.9,412.331 411.631,412.331 415.288,412.331 416.588,414.606 417.725,416.556 417.725,421.594 417.725,430.694 410.575,436.95 402.856,443.613 390.913,443.044" test="Garbage"/>
        </g>
        <g id="GarbageCloud">
          <path id="Layer7_0_1_STROKES" stroke="#FFF" stroke-width="1.625" stroke-linejoin="round" stroke-linecap="round" fill="none" d="M477.988,300.206 Q480.425,298.906 480.913,298.175 481.888,296.794 481.888,292.975 481.888,288.181 477.744,281.031 473.6,273.881 473.6,267.463 473.6,262.263 479.694,252.188 485.788,242.113 485.788,237.644 485.788,235.044 483.513,232.038 483.188,231.631 480.181,228.219 M574.188,274.531 Q575.163,272.419 579.063,268.925 584.263,264.131 588.488,263.888 589.625,266.163 589.625,268.356 589.625,268.925 584.019,274.531 L574.188,274.531 Q574.025,274.856 573.781,275.588 574.35,275.831 574.919,276.238 577.275,277.781 577.275,279.488 577.275,281.275 576.788,281.763 576.219,282.331 574.269,282.331 572.481,282.331 571.181,281.275 570.044,280.219 570.044,278.919 570.044,277.944 570.45,277.294 566.713,277.294 564.438,276.725 558.913,275.506 558.913,271.688 558.913,268.844 559.969,266.731 561.431,263.888 564.194,263.888 568.094,263.888 570.531,267.381 572.156,269.819 573.375,274.531 L574.188,274.531Z M570.45,277.294 L570.531,277.294 Q571.669,277.294 571.994,277.213 572.4,277.131 572.806,276.725 L572.806,275.588 Q571.75,275.994 571.181,276.4 570.694,276.725 570.45,277.294Z M573.781,275.588 Q572.075,274.775 570.613,275.1 M291.356,260.638 Q291.6,259.825 291.925,259.013 287.131,259.175 282.5,262.425 278.438,265.106 277.056,267.788 L277.056,273.394 282.094,273.394 Q289.731,267.625 290.788,262.75 291.031,261.694 291.356,260.638 290.95,260.638 290.463,260.638 M297.125,261.775 Q295.744,260.556 294.85,259.906 292.656,259.988 292.169,260.069 M294.85,259.906 Q294.119,259.338 293.713,259.094 293.469,258.931 292.738,258.931 292.331,258.931 291.925,259.013 294.038,253.65 298.831,247.719 L303.869,247.719 Q303.869,248.288 304.194,249.75 304.438,251.213 304.438,251.944 304.438,258.2 298.913,259.663 296.475,259.825 294.85,259.906Z M335.638,283.469 Q337.831,278.838 339.375,275.344 342.381,268.6 342.381,266.081 342.381,263.969 337.913,259.5 333.444,254.95 333.444,253.569 333.444,249.588 335.394,243.494 337.344,237.319 337.344,234.638 337.344,228.788 337.019,227.081 336.288,222.775 333.444,221.475 M291.6,261.775 L291.356,262.831 Q291.031,264.131 291.031,265.025 291.031,266.488 292.656,267.219 293.875,267.788 295.013,267.788 295.825,267.788 296.8,267.463 298.669,266.813 298.831,266.731 298.506,263.238 296.231,261.775 294.525,260.8 291.356,260.638" test="GarbageCloud"/>
        </g>
      </g>
      <g id="Drawer">
        <path fill="#000" stroke="none" d="M702.662,556.663 Q702.175,557.15 701.769,557.638 L701.769,585.181 Q702.175,585.588 702.662,586.075 708.594,592.006 716.881,592.169 L717.369,592.169 Q725.981,592.169 732.075,586.075 738.169,579.981 738.169,571.369 738.169,562.756 732.075,556.663 725.981,550.569 717.369,550.569 L716.881,550.569 Q708.594,550.731 702.662,556.663 M152.519,469.319 Q147.319,493.206 148.294,519.45 151.381,593.306 150.244,640.025 149.269,685.444 152.519,698.119 253.269,696.738 352.719,700.963 392.044,699.825 418.206,701.206 444.775,702.588 463.219,702.588 470.287,702.588 477.519,702.506 487.675,703.725 497.75,703.563 516.275,702.1 534.637,699.419 553.65,697.063 572.906,699.256 591.35,701.369 609.631,700.881 628.806,700.313 647.819,699.175 670.081,698.769 701.769,698.119 L701.769,592.169 701.769,585.181 701.769,557.638 Q701.688,554.063 701.688,550.569 700.631,495.481 701.769,440.719 L666.669,440.719 666.669,469.319 581.519,466.15 Q356.05,473.544 152.519,469.319Z" test="Drawer" stroke-width="1.625"/>
        <path id="Layer3_0_1_STROKES" stroke="#F60" stroke-width="3.25" stroke-linejoin="round" stroke-linecap="round" fill="none" d="M701.769,585.181 L701.769,592.169 701.769,698.119 Q670.081,698.769 647.819,699.175 628.806,700.313 609.631,700.881 591.35,701.369 572.906,699.256 553.65,697.063 534.637,699.419 516.275,702.1 497.75,703.563 487.675,703.725 477.519,702.506 470.287,702.588 463.219,702.588 444.775,702.588 418.206,701.206 392.044,699.825 352.719,700.963 253.269,696.738 152.519,698.119 149.269,685.444 150.244,640.025 151.381,593.306 148.294,519.45 147.319,493.206 152.519,469.319 356.05,473.544 581.519,466.15 L666.669,469.319 666.669,440.719 701.769,440.719 Q700.631,495.481 701.688,550.569 701.688,554.063 701.769,557.638 702.175,557.15 702.662,556.663 708.594,550.731 716.881,550.569 L717.369,550.569 Q725.981,550.569 732.075,556.663 738.169,562.756 738.169,571.369 738.169,579.981 732.075,586.075 725.981,592.169 717.369,592.169 L716.881,592.169 Q708.594,592.006 702.662,586.075 702.175,585.588 701.769,585.181 L701.769,557.638" test="Drawer"/>
      </g>
      <g id="DrawersCabinetFront">
        <path fill="#000" stroke="none" d="M193.919,859.744 Q194.325,860.15 194.813,860.637 200.744,866.569 209.031,866.731 L209.519,866.731 Q218.131,866.731 224.225,860.637 230.319,854.544 230.319,845.931 230.319,837.319 224.225,831.225 218.131,825.131 209.519,825.131 L209.031,825.131 Q200.744,825.294 194.813,831.225 194.325,831.713 193.919,832.2 L193.919,859.744 M193.919,715.281 L158.819,715.281 158.819,743.881 73.669,740.713 Q-151.8,748.106 -355.331,743.881 -360.531,767.769 -359.556,794.012 -356.469,867.869 -357.606,914.588 -358.581,960.006 -355.331,972.681 -254.581,971.3 -155.131,975.525 -115.806,974.388 -89.644,975.769 -63.075,977.15 -44.631,977.15 -37.562,977.15 -30.331,977.069 -20.175,978.287 -10.1,978.125 8.425,976.662 26.787,973.981 45.8,971.625 65.056,973.819 83.5,975.931 101.781,975.444 120.956,974.875 139.969,973.738 162.231,973.331 193.919,972.681 L193.919,866.731 193.919,859.744 193.919,832.2 Q193.837,828.625 193.837,825.131 192.781,770.044 193.919,715.281Z" test="DrawersCabinetFront" stroke-width="1.625"/>
        <path id="Layer2_0_1_STROKES" stroke="#F60" stroke-width="3.25" stroke-linejoin="round" stroke-linecap="round" fill="none" d="M193.919,859.744 L193.919,866.731 193.919,972.681 Q162.231,973.331 139.969,973.738 120.956,974.875 101.781,975.444 83.5,975.931 65.056,973.819 45.8,971.625 26.787,973.981 8.425,976.662 -10.1,978.125 -20.175,978.287 -30.331,977.069 -37.562,977.15 -44.631,977.15 -63.075,977.15 -89.644,975.769 -115.806,974.388 -155.131,975.525 -254.581,971.3 -355.331,972.681 -358.581,960.006 -357.606,914.588 -356.469,867.869 -359.556,794.012 -360.531,767.769 -355.331,743.881 -151.8,748.106 73.669,740.713 L158.819,743.881 158.819,715.281 193.919,715.281 Q192.781,770.044 193.837,825.131 193.837,828.625 193.919,832.2 194.325,831.713 194.813,831.225 200.744,825.294 209.031,825.131 L209.519,825.131 Q218.131,825.131 224.225,831.225 230.319,837.319 230.319,845.931 230.319,854.544 224.225,860.637 218.131,866.731 209.519,866.731 L209.031,866.731 Q200.744,866.569 194.813,860.637 194.325,860.15 193.919,859.744 L193.919,832.2" test="DrawersCabinetFront"/>
        <path fill="#000" stroke="none" d="M117.3,427.656 Q82.361,426.364 48.725,424.406 15.182,422.533 -73.637,422.862 -162.395,423.28 -203.394,423.756 -244.292,424.314 -296.181,423.837 -348.089,423.355 -378.081,427.006 -380.194,444.231 -382.631,582.762 -385.15,726.656 -382.794,755.012 -381.9,766.55 -387.831,870.469 -393.678,974.386 -389.212,976.662 -384.672,978.941 -372.637,978.044 -368.128,977.766 -362.887,977.069 -352.812,975.769 -342.656,974.469 -294.963,969.594 -247.187,971.056 -225.026,971.202 -201.525,971.462 -83.469,972.844 -67.869,972.844 -53.406,972.844 52.462,976.906 53.681,976.988 54.981,976.988 58.313,977.15 61.644,977.231 66.356,977.394 70.906,977.475 156.462,979.994 158.413,976.906 160.688,973.331 160.85,959.194 160.769,939.044 160.769,925.963 160.769,830.819 161.988,797.75 162.556,781.5 160.769,706.262 159.063,630.537 159.631,611.606 160.686,576.597 159.875,502.325 159.147,428.041 155.731,428.469 152.314,428.971 117.3,427.656Z" test="DrawersCabinetFront" stroke-width="1.625"/>
        <path id="Layer1_0_1_STROKES" stroke="#F60" stroke-width="3.25" stroke-linejoin="round" stroke-linecap="round" fill="none" d="M-378.081,427.006 Q-348.089,423.355 -296.181,423.837 -244.292,424.314 -203.353,423.797 -162.395,423.28 -73.597,422.903 15.182,422.533 48.766,424.447 82.361,426.364 117.341,427.656 152.314,428.971 155.731,428.509 159.147,428.041 159.916,502.325 160.686,576.597 159.631,611.606 159.063,630.537 160.769,706.262 162.556,781.5 161.988,797.75 160.769,830.819 160.769,925.963 160.769,939.044 160.85,959.194 160.688,973.331 158.413,976.906 156.462,979.994 70.906,977.475 66.356,977.394 61.644,977.231 58.313,977.15 54.981,976.988 53.681,976.988 52.462,976.906 -53.406,972.844 -67.869,972.844 -83.469,972.844 -201.525,971.462 -225.026,971.202 -247.187,971.056 -294.963,969.594 -342.656,974.469 -352.812,975.769 -362.887,977.109 -368.128,977.766 -372.597,978.084 -384.672,978.941 -389.172,976.662 -393.678,974.386 -387.791,870.469 -381.9,766.55 -382.794,755.012 -385.15,726.656 -382.631,582.762 -380.194,444.231 -378.081,427.006Z" test="DrawersCabinetFront"/>
      </g>
    </g>
  </g>
</svg>