<?xml version="1.0" encoding="utf-8"?>
<svg id="EdithAnim12" image-rendering="inherit" baseProfile="basic" version="1.1" x="0px" y="0px" width="800" height="600" xmlns="http://www.w3.org/2000/svg" xmlns:xlink="http://www.w3.org/1999/xlink">
  <g id="21_GarbageDrawerf157r1" overflow="visible">
    <g id="GarbageDrawerGroupf157r1">
      <g id="Tween-6">
        <path fill="#000" stroke="none" d="M292.531,365.556 Q288.387,363.363 286.275,363.363 276.119,363.363 270.431,375.631 265.719,385.544 265.069,400.738 264.987,401.063 264.906,401.388 264.338,403.175 262.469,404.963 L249.387,404.963 Q249.144,405.044 244.025,405.531 240.288,405.938 238.987,407.888 238.581,408.456 238.5,410.163 238.419,412.113 238.337,412.438 236.387,410.488 226.637,410.488 214.287,410.488 214.287,420.563 214.287,421.456 214.531,424.138 214.694,427.144 214.937,428.038 212.175,428.525 209.412,431.856 205.513,436.406 205.513,443.475 205.513,444.856 206.406,448.431 206.894,450.463 207.787,454.038 208.356,456.556 208.925,457.45 210.631,459.888 214.937,460.538 216.075,460.7 229.725,464.356 247.275,468.338 267.913,470.613 275.713,471.506 327.713,479.306 367.769,485.319 395.313,486.538 423.831,487.838 462.019,490.925 488.75,493.038 512.475,493.038 533.356,493.038 565.206,486.944 598.031,480.769 607.213,474.513 610.706,472.156 614.2,471.181 618.019,470.125 619.887,468.988 626.713,464.6 628.338,462.163 632.806,455.338 633.781,452.413 634.188,451.194 634.188,447.7 634.188,444.044 633.213,441.525 631.75,438.763 630.938,437.138 L630.938,436.488 Q629.963,435.513 629.963,434.213 629.963,434.131 636.625,428.931 643.287,422.919 643.287,419.263 643.287,412.6 641.5,408.213 639.063,402.363 632.888,398.138 629.313,395.7 622.894,394.319 616.719,393.181 615.338,392.613 616.069,391.231 619.563,387.25 622.813,382.944 622.813,378.475 622.813,371.65 617.938,365.313 611.6,357.188 600.713,357.188 593.481,357.188 588.038,359.138 588.688,358.406 589.175,357.594 589.988,356.05 589.988,353.288 589.988,346.706 582.512,341.263 572.762,334.113 554.4,334.113 L544.813,335.25 Q540.831,337.038 538.475,342.725 538.313,343.294 537.988,343.863 538.313,343.294 538.475,342.725 540.181,336.631 528.238,331.269 517.35,326.313 509.225,326.313 499.638,326.313 495.575,329.4 491.513,332.488 490.537,340.613 487.287,337.363 485.419,335.981 482.169,333.463 479.813,333.463 469.981,333.463 464.456,337.85 461.694,340.044 453.487,351.013 L453.487,350.688 Q452.513,343.944 451.862,341.344 450.888,336.956 448.856,334.763 444.063,329.563 425.375,329.563 421.638,329.563 417.819,331.675 414,333.706 410.912,337.363 410.1,336.55 408.394,333.544 406.362,329.969 406.362,329.888 401.244,322.25 397.912,319.569 394.256,316.563 389.463,316.563 363.869,316.563 349.244,325.825 336.65,333.869 339.088,342.563 335.838,338.5 333.806,336.469 330.231,332.813 326.575,332.813 314.631,332.813 304.638,344.919 294.725,356.863 296.838,368.238 296.188,367.425 292.531,365.556 M350.787,373.519 Q353.225,374.656 356.963,377.013 359.563,378.394 359.888,378.638 360.537,379.044 359.563,378.963 360.537,379.044 359.888,378.638 359.563,378.394 356.963,377.013 353.225,374.656 350.787,373.519 346.4,371.488 341.688,371.488 326.575,371.488 318.287,378.638 326.575,371.488 341.688,371.488 346.4,371.488 350.787,373.519 M408.719,365.881 Q415.3,363.038 422.612,363.038 429.112,363.038 433.987,373.438 433.987,374.088 433.419,374.738 432.769,375.469 432.037,375.713 432.769,375.469 433.419,374.738 433.987,374.088 433.987,373.438 429.112,363.038 422.612,363.038 415.3,363.038 408.719,365.881 401.894,368.888 398.563,373.763 401.894,368.888 408.719,365.881 M523.525,359.463 Q524.094,359.463 527.831,363.525 531.488,367.588 531.488,368.238 531.488,376.606 528.319,380.994 526.206,383.919 523.362,384.488 526.206,383.919 528.319,380.994 531.488,376.606 531.488,368.238 531.488,367.588 527.831,363.525 524.094,359.463 523.525,359.463 503.05,359.463 493.463,367.588 503.05,359.463 523.525,359.463 M594.7,378.231 Q598.113,380.831 598.113,390.825 598.113,400.656 589.744,407.075 583.081,412.194 578.288,411.788 583.081,412.194 589.744,407.075 598.113,400.656 598.113,390.825 598.113,380.831 594.7,378.231 591.45,375.713 578.938,376.038 591.45,375.713 594.7,378.231 M600.387,408.863 Q612.006,408.7 612.981,409.025 617.288,410.325 617.288,418.613 617.288,421.375 614.769,423.975 613.144,425.519 608.838,428.363 607.7,429.094 605.75,430.8 603.963,432.263 603.313,432.588 603.963,432.263 605.75,430.8 607.7,429.094 608.838,428.363 613.144,425.519 614.769,423.975 617.288,421.375 617.288,418.613 617.288,410.325 612.981,409.025 612.006,408.7 600.387,408.863Z" test="Tween 6" stroke-width="1.625"/>
        <path id="Layer5_0_1_STROKES" stroke="#FFF" stroke-width="1.625" stroke-linejoin="round" stroke-linecap="round" fill="none" d="M630.938,437.138 Q631.75,438.763 633.213,441.525 634.188,444.044 634.188,447.7 634.188,451.194 633.781,452.413 632.806,455.338 628.338,462.163 626.713,464.6 619.887,468.988 618.019,470.125 614.2,471.181 610.706,472.156 607.213,474.513 598.031,480.769 565.206,486.944 533.356,493.038 512.475,493.038 488.75,493.038 462.019,490.925 423.831,487.838 395.313,486.538 367.769,485.319 327.713,479.306 275.713,471.506 267.913,470.613 247.275,468.338 229.725,464.356 216.075,460.7 214.937,460.538 210.631,459.888 208.925,457.45 208.356,456.556 207.787,454.038 206.894,450.463 206.406,448.431 205.513,444.856 205.513,443.475 205.513,436.406 209.412,431.856 212.175,428.525 214.937,428.038 214.694,427.144 214.531,424.138 214.287,421.456 214.287,420.563 214.287,410.488 226.637,410.488 236.387,410.488 238.337,412.438 238.419,412.113 238.5,410.163 238.581,408.456 238.987,407.888 240.288,405.938 244.025,405.531 249.144,405.044 249.387,404.963 L262.469,404.963 Q264.338,403.175 264.906,401.388 264.987,401.063 265.069,400.738 265.719,385.544 270.431,375.631 276.119,363.363 286.275,363.363 288.387,363.363 292.531,365.556 296.188,367.425 296.838,368.238 294.725,356.863 304.638,344.919 314.631,332.813 326.575,332.813 330.231,332.813 333.806,336.469 335.838,338.5 339.088,342.563 336.65,333.869 349.244,325.825 363.869,316.563 389.463,316.563 394.256,316.563 397.912,319.569 401.244,322.25 406.362,329.888 406.362,329.969 408.394,333.544 410.1,336.55 410.912,337.363 414,333.706 417.819,331.675 421.638,329.563 425.375,329.563 444.063,329.563 448.856,334.763 450.888,336.956 451.862,341.344 452.513,343.944 453.487,350.688 L453.487,351.013 Q461.694,340.044 464.456,337.85 469.981,333.463 479.813,333.463 482.169,333.463 485.419,335.981 487.287,337.363 490.537,340.613 491.513,332.488 495.575,329.4 499.638,326.313 509.225,326.313 517.35,326.313 528.238,331.269 540.181,336.631 538.475,342.725 540.831,337.038 544.813,335.25 547.494,334.113 554.4,334.113 572.762,334.113 582.512,341.263 589.988,346.706 589.988,353.288 589.988,356.05 589.175,357.594 588.688,358.406 588.038,359.138 593.481,357.188 600.713,357.188 611.6,357.188 617.938,365.313 622.813,371.65 622.813,378.475 622.813,382.944 619.563,387.25 616.069,391.231 615.338,392.613 616.719,393.181 622.894,394.319 629.313,395.7 632.888,398.138 639.063,402.363 641.5,408.213 643.287,412.6 643.287,419.263 643.287,422.919 636.625,428.931 629.963,434.131 629.963,434.213 629.963,435.513 630.938,436.488 M318.287,378.638 Q326.575,371.488 341.688,371.488 346.4,371.488 350.787,373.519 353.225,374.656 356.963,377.013 359.563,378.394 359.888,378.638 360.537,379.044 359.563,378.963 M398.563,373.763 Q401.894,368.888 408.719,365.881 415.3,363.038 422.612,363.038 429.112,363.038 433.987,373.438 433.987,374.088 433.419,374.738 432.769,375.469 432.037,375.713 M538.475,342.725 Q538.313,343.294 537.988,343.863 M493.463,367.588 Q503.05,359.463 523.525,359.463 524.094,359.463 527.831,363.525 531.488,367.588 531.488,368.238 531.488,376.606 528.319,380.994 526.206,383.919 523.362,384.488 M578.938,376.038 Q591.45,375.713 594.7,378.231 598.113,380.831 598.113,390.825 598.113,400.656 589.744,407.075 583.081,412.194 578.288,411.788 M600.387,408.863 Q612.006,408.7 612.981,409.025 617.288,410.325 617.288,418.613 617.288,421.375 614.769,423.975 613.144,425.519 608.838,428.363 607.7,429.094 605.75,430.8 603.963,432.263 603.313,432.588" test="Tween 6"/>
      </g>
      <g id="Tween-5">
        <g id="Tin-can-Rubbish">
          <path fill="#000" stroke="none" d="M258.781,357.206 Q246.025,372.563 239.769,378.331 224.9,392.063 213.2,392.388 L213.525,394.663 Q213.525,396.206 213.281,397.669 212.956,399.131 212.956,399.619 212.956,400.756 214.581,401.406 215.963,401.894 217.913,401.894 221.813,401.894 230.913,397.425 L231.319,397.425 Q226.931,403.275 226.931,404.981 226.931,409.775 232.7,409.775 236.194,409.775 236.681,409.613 237.169,409.369 239.444,407.663 239.85,406.769 240.256,406.363 L240.256,406.931 Q239.769,407.256 239.444,407.663 238.875,408.556 238.144,410.019 236.356,413.838 236.356,416.6 236.356,420.906 242.613,423.019 248.219,424.888 246.431,430.9 252.281,431.144 253.906,433.338 254.313,433.906 254.719,434.963 L254.719,435.044 Q269.425,429.113 275.763,424.481 281.856,419.931 284.375,413.594 281.856,419.931 275.763,424.481 269.425,429.113 254.719,435.044 255.288,436.669 255.938,439.35 256.669,441.219 260.325,444.063 262.681,446.013 261.462,449.913 L267.069,449.913 Q289.738,440.569 313.869,412.05 337.269,384.506 342.956,362.244 L342.956,357.206 Q339.219,356.394 334.588,357.206 L331.256,357.206 Q332.881,353.469 328.331,351.6 322.075,349.975 319.069,348.919 317.363,348.269 316.225,345.913 315.169,342.906 314.519,341.444 312.081,336 305.581,337.706 L305.581,333.238 Q306.719,332.1 306.719,330.475 306.719,328.2 302.25,327.794 297.213,327.713 296.075,327.631 296.075,326.819 296.644,324.788 297.213,322.838 297.213,322.188 297.213,319.181 292.175,318.775 294.45,314.631 290.713,312.356 287.463,311.138 285.431,310.325 287.788,311.788 287.788,315.119 287.788,325.6 279.744,334.781 267.394,346.888 258.781,357.206 M293.15,356.475 Q290.55,360.863 288.925,361.188 290.55,360.863 293.15,356.475 294.775,353.631 299.975,344.45 294.775,353.631 293.15,356.475 M325.325,369.069 Q322.238,373.781 318.5,375.081 322.238,373.781 325.325,369.069 328.494,364.194 330.119,357.206 328.494,364.194 325.325,369.069 M270.969,383.45 Q268.856,386.863 265.281,393.281 262.844,397.75 262.031,398.563 262.844,397.75 265.281,393.281 268.856,386.863 270.969,383.45 M225.713,354.038 Q212.631,370.775 211.169,379.225 210.356,383.369 210.113,385.644 209.706,388 209.869,388.488 209.788,388.731 209.706,388.975 209.625,389.625 209.625,390.113 209.625,391.413 210.113,391.819 210.763,392.388 212.631,392.388 212.875,392.388 213.2,392.388 224.9,392.063 239.769,378.331 246.025,372.563 258.781,357.206 267.394,346.888 279.744,334.781 287.788,325.6 287.788,315.119 287.788,311.788 285.431,310.325 284.456,309.756 283.238,309.513 282.019,309.269 280.475,309.269 273.406,309.269 256.1,323.325 238.794,337.3 225.713,354.038Z" test="Tin can Rubbish" stroke-width="1.625"/>
          <path id="Layer8_0_1_STROKES" stroke="#009EFF" stroke-width="1.625" stroke-linejoin="round" stroke-linecap="round" fill="none" d="M210.113,385.644 Q209.706,388 209.869,388.488 M285.431,310.325 Q287.463,311.138 290.713,312.356 294.45,314.631 292.175,318.775 297.213,319.181 297.213,322.188 297.213,322.838 296.644,324.788 296.075,326.819 296.075,327.631 297.213,327.713 302.25,327.794 306.719,328.2 306.719,330.475 306.719,332.1 305.581,333.238 L305.581,337.706 Q312.081,336 314.519,341.444 315.169,342.906 316.225,345.913 317.363,348.269 319.069,348.919 322.075,349.975 328.331,351.6 332.881,353.469 331.256,357.206 L334.588,357.206 Q339.219,356.394 342.956,357.206 L342.956,362.244 Q337.269,384.506 313.869,412.05 289.738,440.569 267.069,449.913 L261.462,449.913 Q262.681,446.013 260.325,444.063 256.669,441.219 255.938,439.35 255.288,436.669 254.719,435.044 L254.719,434.963 Q254.313,433.906 253.906,433.338 252.281,431.144 246.431,430.9 248.219,424.888 242.613,423.019 236.356,420.906 236.356,416.6 236.356,413.838 238.144,410.019 238.875,408.556 239.444,407.663 237.169,409.369 236.681,409.613 236.194,409.775 232.7,409.775 226.931,409.775 226.931,404.981 226.931,403.275 231.319,397.425 L230.913,397.425 Q221.813,401.894 217.913,401.894 215.963,401.894 214.581,401.406 212.956,400.756 212.956,399.619 212.956,399.131 213.281,397.669 213.525,396.206 213.525,394.663 M299.975,344.45 Q294.775,353.631 293.15,356.475 290.55,360.863 288.925,361.188 M330.119,357.206 Q328.494,364.194 325.325,369.069 322.238,373.781 318.5,375.081 M270.969,383.45 Q268.856,386.863 265.281,393.281 262.844,397.75 262.031,398.563 M239.444,407.663 Q239.769,407.256 240.256,406.931 L240.256,406.363 Q239.85,406.769 239.444,407.663Z M254.719,435.044 Q269.425,429.113 275.763,424.481 281.856,419.931 284.375,413.594" test="Tin can Rubbish"/>
          <path id="Layer8_0_2_STROKES" stroke="#FFF" stroke-width="1.625" stroke-linejoin="round" stroke-linecap="round" fill="none" d="M285.431,310.325 Q284.456,309.756 283.238,309.513 282.019,309.269 280.475,309.269 273.406,309.269 256.1,323.325 238.794,337.3 225.713,354.038 212.631,370.775 211.169,379.225 210.356,383.369 210.113,385.644 M209.869,388.488 Q209.788,388.731 209.706,388.975 209.625,389.625 209.625,390.113 209.625,391.413 210.113,391.819 210.763,392.388 212.631,392.388 212.875,392.388 213.2,392.388 224.9,392.063 239.769,378.331 246.025,372.563 258.781,357.206 267.394,346.888 279.744,334.781 287.788,325.6 287.788,315.119 287.788,311.788 285.431,310.325" test="Tin can Rubbish"/>
        </g>
        <g id="Bottle">
          <path fill="#000" stroke="none" d="M573.731,440.963 Q571.213,440.638 562.275,438.769 554.475,437.063 550.088,437.144 541.963,437.225 530.019,430.319 518.237,423.575 507.269,412.769 499.469,405.05 492.562,393.431 487.037,382.95 486.469,382.138 483.787,378.4 481.675,374.5 478.019,368 478.262,364.831 459.819,390.588 438.937,414.231 416.431,439.581 399.775,468.831 384.419,495.806 410.581,514.494 437.8,533.913 468.756,545.125 485.9,551.463 499.631,537.406 523.031,513.438 541.637,484.838 556.262,462.25 573.325,441.45 L573.731,440.963 M525.306,329.65 Q525.144,329.569 524.981,329.569 508.406,328.919 496.381,341.919 486.469,352.644 478.262,364.831 478.019,368 481.675,374.5 483.787,378.4 486.469,382.138 487.037,382.95 492.562,393.431 499.469,405.05 507.269,412.769 518.237,423.575 530.019,430.319 541.963,437.225 550.088,437.144 554.475,437.063 562.275,438.769 571.213,440.638 573.731,440.963 591.769,423.494 600.137,400.094 600.463,399.281 600.787,398.469 599.975,398.388 599.65,398.469 597.294,398.55 596.4,398.631 595.181,398.713 593.231,399.2 591.363,399.688 588.519,399.688 581.531,399.688 563.981,387.825 547.162,376.531 537.738,366.213 529.938,357.6 527.744,347.119 526.606,336.231 525.306,329.65 M605.744,334.769 Q595.831,326.888 589.25,311.775 560.569,331.925 525.306,329.65 526.606,336.231 527.744,347.119 529.938,357.6 537.738,366.213 547.162,376.531 563.981,387.825 581.531,399.688 588.519,399.688 591.363,399.688 593.231,399.2 595.181,398.713 596.4,398.631 597.294,398.55 599.65,398.469 599.975,398.388 600.787,398.469 592.581,365.563 619.069,344.438 619.8,343.869 620.531,343.138 608.181,336.719 605.744,334.769 M589.088,309.906 L589.25,311.775 Q595.831,326.888 605.744,334.769 608.181,336.719 620.531,343.138 L625.244,343.95 Q628.819,342.488 633.287,333.713 637.512,325.344 637.512,321.037 637.512,315.838 625.813,303.163 620.206,297.069 615.981,293.9 611.35,290.325 608.506,290.325 603.875,290.325 596.481,299.425 593.637,302.919 589.088,309.906 M612.975,299.019 Q612.488,298.288 612.406,298.206 612.488,298.288 612.975,299.019 614.194,300.725 618.094,306.494 624.838,315.35 630.85,319.331 624.838,315.35 618.094,306.494 614.194,300.725 612.975,299.019Z" test="Bottle" stroke-width="1.625"/>
          <path id="Layer9_0_1_STROKES" stroke="#FFF" stroke-width="1.625" stroke-linejoin="round" stroke-linecap="round" fill="none" d="M589.25,311.775 Q595.831,326.888 605.744,334.769 608.181,336.719 620.531,343.138 M625.244,343.95 Q628.819,342.488 633.287,333.713 637.512,325.344 637.512,321.037 637.512,315.838 625.813,303.163 620.206,297.069 615.981,293.9 611.35,290.325 608.506,290.325 603.875,290.325 596.481,299.425 593.637,302.919 589.088,309.906 M630.85,319.331 Q624.838,315.35 618.094,306.494 614.194,300.725 612.975,299.019 612.488,298.288 612.406,298.206 M478.262,364.831 Q478.019,368 481.675,374.5 483.787,378.4 486.469,382.138 487.037,382.95 492.562,393.431 499.469,405.05 507.269,412.769 518.237,423.575 530.019,430.319 541.963,437.225 550.088,437.144 554.475,437.063 562.275,438.769 571.213,440.638 573.731,440.963 M600.787,398.469 Q599.975,398.388 599.65,398.469 597.294,398.55 596.4,398.631 595.181,398.713 593.231,399.2 591.363,399.688 588.519,399.688 581.531,399.688 563.981,387.825 547.162,376.531 537.738,366.213 529.938,357.6 527.744,347.119 526.606,336.231 525.306,329.65 525.144,328.756 524.981,327.944 M573.731,440.963 Q574.056,441.044 574.219,441.044 574.219,441.287 573.325,441.45" test="Bottle"/>
          <path id="Layer9_0_2_STROKES" stroke="#0F0" stroke-width="1.625" stroke-linejoin="round" stroke-linecap="round" fill="none" d="M525.306,329.65 Q525.144,329.569 524.981,329.569 508.406,328.919 496.381,341.919 486.469,352.644 478.262,364.831 M573.731,440.963 Q591.769,423.494 600.137,400.094 600.463,399.281 600.787,398.469 592.581,365.563 619.069,344.438 619.8,343.869 620.531,343.138 M589.25,311.775 Q560.569,331.925 525.306,329.65 M573.325,441.45 Q556.262,462.25 541.637,484.838 523.031,513.438 499.631,537.406 485.9,551.463 468.756,545.125 437.8,533.913 410.581,514.494 384.419,495.806 399.775,468.831 416.431,439.581 438.937,414.231 459.819,390.588 478.262,364.831 M573.325,441.45 L573.731,440.963" test="Bottle"/>
        </g>
        <g id="Banana">
          <path fill="#000" stroke="none" d="M400.038,264.956 L399.225,265.769 Q393.863,273.569 387.363,285.838 382.325,295.181 379.806,297.619 371.438,305.5 360.956,312.081 350.394,318.256 346.25,321.019 326.75,333.938 309.444,361.075 292.3,387.806 293.763,401.944 L293.763,408.931 Q293.925,409.175 294.819,409.175 297.906,409.175 300.588,404.381 302.05,401.7 304.325,396.338 305.219,394.713 309.038,389.513 310.988,386.831 311.231,386.344 320.331,383.825 334.55,374.319 350.881,363.513 357.95,353.356 365.1,343.119 381.188,330.606 396.706,318.5 397.519,317.2 L398.088,317.2 398.088,320.45 Q393.863,338.65 373.794,372.856 363.313,390.65 360.794,395.606 354.944,406.656 354.619,412.019 355.106,412.019 356.731,412.344 358.275,412.588 359.006,412.588 365.263,412.588 382.894,396.013 401.256,378.788 409.381,364 411.088,360.831 413.119,348.481 415.313,335.238 415.963,333.288 418.075,327.6 418.563,325.894 419.213,323.294 420.431,318.906 426.606,328.575 434.325,337.35 439.688,343.606 460.569,367.331 469.994,378.381 474.544,401.863 477.306,416.163 477.306,425.344 484.456,425.425 488.681,416 492.419,407.469 492.419,394.713 492.419,382.606 488.194,372.613 486.081,367.656 478.363,355.306 471.131,343.688 467.475,334.1 461.95,319.556 450.981,310.538 439.931,301.438 435.95,292.5 431.888,283.563 428.231,276.331 424.575,269.019 425.713,266.988 L424.413,265.525 Q422.138,267.556 418.481,268.856 414.338,270.238 410.438,270.238 408.569,270.238 404.263,268.044 400.769,266.256 400.038,264.956 M419.294,223.925 Q412.225,221.813 410.031,229.044 409.381,231.319 408.813,241.231 408.163,250.9 403.856,256.181 399.794,261.3 399.794,264.306 399.794,264.631 400.038,264.956 400.769,266.256 404.263,268.044 408.569,270.238 410.438,270.238 414.338,270.238 418.481,268.856 422.138,267.556 424.413,265.525 425.713,264.388 426.525,263.006 426.038,262.681 425.55,262.438 423.681,261.219 422.381,260.244 419.538,258.294 418.644,257.319 417.1,255.531 417.1,244.563 417.1,237.25 419.294,223.925Z" test="Banana" stroke-width="1.625"/>
          <path id="Layer10_0_1_STROKES" stroke="#FF0" stroke-width="1.625" stroke-linejoin="round" stroke-linecap="round" fill="none" d="M425.713,266.988 Q424.575,269.019 428.231,276.331 431.888,283.563 435.95,292.5 439.931,301.438 450.981,310.538 461.95,319.556 467.475,334.1 471.131,343.688 478.363,355.306 486.081,367.656 488.194,372.613 492.419,382.606 492.419,394.713 492.419,407.469 488.681,416 484.456,425.425 477.306,425.344 477.306,416.163 474.544,401.863 469.994,378.381 460.569,367.331 439.688,343.606 434.325,337.35 426.606,328.575 420.431,318.906 419.213,323.294 418.563,325.894 418.075,327.6 415.963,333.288 415.313,335.238 413.119,348.481 411.088,360.831 409.381,364 401.256,378.788 382.894,396.013 365.263,412.588 359.006,412.588 358.275,412.588 356.731,412.344 355.106,412.019 354.619,412.019 354.944,406.656 360.794,395.606 363.313,390.65 373.794,372.856 393.863,338.65 398.088,320.45 L398.088,317.2 397.519,317.2 Q396.706,318.5 381.188,330.606 365.1,343.119 357.95,353.356 350.881,363.513 334.55,374.319 320.331,383.825 311.231,386.344 310.988,386.831 309.038,389.513 305.219,394.713 304.325,396.338 302.05,401.7 300.588,404.381 297.906,409.175 294.819,409.175 293.925,409.175 293.763,408.931 L293.763,401.944 Q292.3,387.806 309.444,361.075 326.75,333.938 346.25,321.019 350.394,318.256 360.956,312.081 371.438,305.5 379.806,297.619 382.325,295.181 387.363,285.838 393.863,273.569 399.225,265.769" test="Banana"/>
          <path id="Layer10_0_2_STROKES" stroke="#FFF" stroke-width="1.625" stroke-linejoin="round" stroke-linecap="round" fill="none" d="M400.038,264.956 Q399.794,264.631 399.794,264.306 399.794,261.3 403.856,256.181 408.163,250.9 408.813,241.231 409.381,231.319 410.031,229.044 412.225,221.813 419.294,223.925 417.1,237.25 417.1,244.563 417.1,255.531 418.644,257.319 419.538,258.294 422.381,260.244 423.681,261.219 425.55,262.438 426.038,262.681 426.525,263.006 425.713,264.388 424.413,265.525 M400.038,264.956 Q400.769,266.256 404.263,268.044 408.569,270.238 410.438,270.238 414.338,270.238 418.481,268.856 422.138,267.556 424.413,265.525" test="Banana"/>
        </g>
      </g>
      <g id="Tween-4">
        <path id="Layer4_0_1_STROKES" stroke="#FFF" stroke-width="1.625" stroke-linejoin="round" stroke-linecap="round" fill="none" d="M546.1,423.488 Q546.1,417.15 555.606,412.194" test="Tween 4"/>
        <g id="Garbage">
          <path fill="#000" stroke="none" d="M438.281,385.369 L436.169,384.15 Q436.006,384.475 435.519,385.369 436.006,384.475 436.169,384.15 436.169,383.988 436.169,383.906 436.169,378.95 433.325,377 429.425,374.156 418.294,374.156 406.513,374.156 382.056,386.506 379.213,387.888 374.581,396.663 373.85,398.125 372.956,399.344 372.306,392.113 363.613,387.075 355,381.956 344.356,381.956 332.25,381.956 322.906,387.563 311.125,394.631 311.125,407.875 311.125,408.525 311.206,409.094 305.519,403.731 292.194,403.731 280.981,403.731 274.075,407.225 266.763,410.963 260.344,420.469 255.306,427.863 254.575,433.55 254.169,436.556 254.737,439.969 251.813,433.225 249.375,430.056 245.069,424.369 235.237,424.369 225.975,424.369 219.638,429.975 213.463,435.581 213.463,443.625 213.463,445.088 214.356,456.95 212,461.175 210.619,465.725 208.425,474.744 208.425,483.194 208.425,490.913 214.031,495.788 219.15,500.256 225.731,500.256 228.169,500.256 236.538,498.875 244.825,497.494 250.269,497.494 256.769,497.494 273.263,502.206 289.675,506.919 306.656,506.919 311.613,506.919 351.263,503.344 396.925,499.688 431.7,499.688 439.5,499.606 445.431,499.688 L465.5,500.744 466.313,500.338 Q467.206,500.013 467.938,499.931 472.731,499.688 476.956,497.331 480.125,496.356 482.156,495.463 494.831,489.938 497.513,489.694 L498.081,489.694 Q498.081,489.45 536.025,500.094 577.706,510.9 594.688,510.9 614.188,510.9 623.613,500.906 628.406,495.95 629.219,490.75 629.219,488.15 629.056,487.906 628.975,487.744 628.813,487.581 628.163,487.013 626.456,486.85 628.163,487.013 628.813,487.581 L629.219,486.85 Q631.819,485.225 640.106,482.219 647.094,478.563 647.094,471.819 647.094,467.594 642.056,466.213 L642.625,466.213 Q645.225,463.694 652.05,458.331 657.656,453.131 657.656,447.769 657.656,443.219 654.894,437.775 651.4,431.031 646.281,431.031 637.831,433.063 634.825,433.306 638.725,429.975 638.725,428.269 638.563,425.506 637.019,422.906 634.094,417.788 627.513,417.788 614.594,417.788 609.15,419.656 603.788,421.525 595.175,428.838 593.388,419.575 587.294,413.644 580.956,407.631 572.588,407.631 564.138,407.631 555.606,412.181 L546.1,423.475 Q546.1,424.938 547.156,433.875 546.425,433.469 544.638,433.063 542.931,432.738 541.875,432.738 537.975,432.738 533.344,437.206 531.638,438.913 529.363,442.813 527.25,446.55 526.519,448.906 526.356,449.638 526.194,450.45 525.463,453.375 523.025,455.325 522.294,455.894 521.4,456.219 521.075,455.975 520.831,455.731 516.281,451.263 515.063,445.088 514.413,443.138 513.112,441.025 510.756,437.044 507.019,433.306 515.956,434.281 523.594,431.438 532.125,428.269 533.181,421.606 533.344,420.631 533.344,419.575 533.344,415.35 532.613,413.075 531.069,408.119 525.95,403.731 520.588,399.1 514.819,397.963 512.95,397.556 507.588,397.556 507.669,397.394 512.138,389.513 512.544,388.781 512.869,388.05 L513.6,387.075 Q514.006,386.506 514.088,386.1 514.737,382.769 513.763,379.519 513.194,377.975 510.919,373.181 508.319,367.819 505.15,365.544 497.675,360.181 479.313,360.181 460.056,360.181 443.481,378.869 440.881,381.794 438.281,385.369 M481.75,423.231 Q481.425,424.044 480.775,425.344 481.425,424.044 481.75,423.231 482.4,421.769 482.4,420.631 482.4,413.969 476.55,413.969 473.625,413.969 470.7,414.781 464.85,416.488 464.525,420.794 464.85,416.488 470.7,414.781 473.625,413.969 476.55,413.969 482.4,413.969 482.4,420.631 482.4,421.769 481.75,423.231 M601.675,454.269 Q605.9,457.031 605.9,461.419 605.9,457.031 601.675,454.269 598.181,451.994 594.363,451.994 589,451.994 585.994,453.863 582.825,455.731 582.825,459.144 582.825,455.731 585.994,453.863 589,451.994 594.363,451.994 598.181,451.994 601.675,454.269 M350.45,428.838 Q355.163,431.356 356.3,434.444 355.163,431.356 350.45,428.838 346.063,426.563 342.65,426.563 338.263,426.563 335.094,429.406 330.706,433.469 330.706,442.244 330.706,443.544 330.95,444.275 331.438,445.575 332.9,447.769 331.438,445.575 330.95,444.275 330.706,443.544 330.706,442.244 330.706,433.469 335.094,429.406 338.263,426.563 342.65,426.563 346.063,426.563 350.45,428.838 M416.588,421.606 Q417.725,423.556 417.725,428.594 417.725,437.694 410.575,443.95 402.856,450.613 390.913,450.044 402.856,450.613 410.575,443.95 417.725,437.694 417.725,428.594 417.725,423.556 416.588,421.606 415.288,419.331 411.631,419.331 410.9,419.331 409.844,419.656 408.3,420.144 406.594,420.469 408.3,420.144 409.844,419.656 410.9,419.331 411.631,419.331 415.288,419.331 416.588,421.606Z" test="Garbage" stroke-width="1.625"/>
          <path id="Layer6_0_1_STROKES" stroke="#FFF" stroke-width="1.625" stroke-linejoin="round" stroke-linecap="round" fill="none" d="M436.169,384.15 Q436.006,384.475 435.519,385.369 M628.813,487.581 Q628.975,487.744 629.056,487.906 629.219,488.15 629.219,490.75 628.406,495.95 623.613,500.906 614.188,510.9 594.688,510.9 577.706,510.9 536.025,500.094 498.081,489.45 498.081,489.694 L497.513,489.694 Q494.831,489.938 482.156,495.463 480.125,496.356 476.956,497.331 472.731,499.688 467.938,499.931 467.206,500.013 466.313,500.338 L465.5,500.744 445.431,499.688 Q439.5,499.606 431.7,499.688 396.925,499.688 351.263,503.344 311.613,506.919 306.656,506.919 289.675,506.919 273.263,502.206 256.769,497.494 250.269,497.494 244.825,497.494 236.538,498.875 228.169,500.256 225.731,500.256 219.15,500.256 214.031,495.788 208.425,490.913 208.425,483.194 208.425,474.744 210.619,465.725 212,461.175 214.356,456.95 213.463,445.088 213.463,443.625 213.463,435.581 219.638,429.975 225.975,424.369 235.237,424.369 245.069,424.369 249.375,430.056 251.813,433.225 254.737,439.969 254.169,436.556 254.575,433.55 255.306,427.863 260.344,420.469 266.763,410.963 274.075,407.225 280.981,403.731 292.194,403.731 305.519,403.731 311.206,409.094 311.125,408.525 311.125,407.875 311.125,394.631 322.906,387.563 332.25,381.956 344.356,381.956 355,381.956 363.613,387.075 372.306,392.113 372.956,399.344 373.85,398.125 374.581,396.663 379.213,387.888 382.056,386.506 406.513,374.156 418.294,374.156 429.425,374.156 433.325,377 436.169,378.95 436.169,383.906 436.169,383.988 436.169,384.15 M438.281,385.369 Q440.881,381.794 443.481,378.869 460.056,360.181 479.313,360.181 497.675,360.181 505.15,365.544 508.319,367.819 510.919,373.181 513.194,377.975 513.763,379.519 514.737,382.769 514.088,386.1 514.006,386.506 513.6,387.075 L512.869,388.05 Q512.544,388.781 512.138,389.513 507.669,397.394 507.588,397.556 512.95,397.556 514.819,397.963 520.588,399.1 525.95,403.731 531.069,408.119 532.613,413.075 533.344,415.35 533.344,419.575 533.344,420.631 533.181,421.606 532.125,428.269 523.594,431.438 515.956,434.281 507.019,433.306 510.756,437.044 513.112,441.025 514.413,443.138 515.063,445.088 516.281,451.263 520.831,455.731 521.075,455.975 521.4,456.219 522.294,455.894 523.025,455.325 525.463,453.375 526.194,450.45 526.356,449.638 526.519,448.906 527.25,446.55 529.363,442.813 531.638,438.913 533.344,437.206 537.975,432.738 541.875,432.738 542.931,432.738 544.638,433.063 546.425,433.469 547.156,433.875 546.1,424.938 546.1,423.475 M555.606,412.181 Q564.138,407.631 572.588,407.631 580.956,407.631 587.294,413.644 593.388,419.575 595.175,428.838 603.788,421.525 609.15,419.656 614.594,417.788 627.513,417.788 634.094,417.788 637.019,422.906 638.563,425.506 638.725,428.269 638.725,429.975 634.825,433.306 637.831,433.063 646.281,431.031 651.4,431.031 654.894,437.775 657.656,443.219 657.656,447.769 657.656,453.131 652.05,458.331 645.225,463.694 642.625,466.213 L642.056,466.213 Q647.094,467.594 647.094,471.819 647.094,478.563 640.106,482.219 631.819,485.225 629.219,486.85 M626.456,486.85 Q628.163,487.013 628.813,487.581 M464.525,420.794 Q464.85,416.488 470.7,414.781 473.625,413.969 476.55,413.969 482.4,413.969 482.4,420.631 482.4,421.769 481.75,423.231 481.425,424.044 480.775,425.344 M582.825,459.144 Q582.825,455.731 585.994,453.863 589,451.994 594.363,451.994 598.181,451.994 601.675,454.269 605.9,457.031 605.9,461.419 M332.9,447.769 Q331.438,445.575 330.95,444.275 330.706,443.544 330.706,442.244 330.706,433.469 335.094,429.406 338.263,426.563 342.65,426.563 346.063,426.563 350.45,428.838 355.163,431.356 356.3,434.444 M406.594,420.469 Q408.3,420.144 409.844,419.656 410.9,419.331 411.631,419.331 415.288,419.331 416.588,421.606 417.725,423.556 417.725,428.594 417.725,437.694 410.575,443.95 402.856,450.613 390.913,450.044" test="Garbage"/>
        </g>
        <g id="GarbageCloud">
          <path id="Layer7_0_1_STROKES" stroke="#FFF" stroke-width="1.625" stroke-linejoin="round" stroke-linecap="round" fill="none" d="M477.988,307.206 Q480.425,305.906 480.913,305.175 481.888,303.794 481.888,299.975 481.888,295.181 477.744,288.031 473.6,280.881 473.6,274.463 473.6,269.263 479.694,259.188 485.788,249.113 485.788,244.644 485.788,242.044 483.513,239.038 483.188,238.631 480.181,235.219 M574.188,281.531 Q575.163,279.419 579.063,275.925 584.263,271.131 588.488,270.888 589.625,273.163 589.625,275.356 589.625,275.925 584.019,281.531 L574.188,281.531 Q574.025,281.856 573.781,282.588 574.35,282.831 574.919,283.238 577.275,284.781 577.275,286.488 577.275,288.275 576.788,288.763 576.219,289.331 574.269,289.331 572.481,289.331 571.181,288.275 570.044,287.219 570.044,285.919 570.044,284.944 570.45,284.294 566.713,284.294 564.438,283.725 558.913,282.506 558.913,278.688 558.913,275.844 559.969,273.731 561.431,270.888 564.194,270.888 568.094,270.888 570.531,274.381 572.156,276.819 573.375,281.531 L574.188,281.531Z M570.45,284.294 L570.531,284.294 Q571.669,284.294 571.994,284.213 572.4,284.131 572.806,283.725 L572.806,282.588 Q571.75,282.994 571.181,283.4 570.694,283.725 570.45,284.294Z M573.781,282.588 Q572.075,281.775 570.613,282.1 M291.356,267.638 Q291.6,266.825 291.925,266.013 287.131,266.175 282.5,269.425 278.438,272.106 277.056,274.788 L277.056,280.394 282.094,280.394 Q289.731,274.625 290.788,269.75 291.031,268.694 291.356,267.638 290.95,267.638 290.463,267.638 M297.125,268.775 Q295.744,267.556 294.85,266.906 292.656,266.988 292.169,267.069 M294.85,266.906 Q294.119,266.338 293.713,266.094 293.469,265.931 292.738,265.931 292.331,265.931 291.925,266.013 294.038,260.65 298.831,254.719 L303.869,254.719 Q303.869,255.288 304.194,256.75 304.438,258.213 304.438,258.944 304.438,265.2 298.913,266.663 296.475,266.825 294.85,266.906Z M335.638,290.469 Q337.831,285.838 339.375,282.344 342.381,275.6 342.381,273.081 342.381,270.969 337.913,266.5 333.444,261.95 333.444,260.569 333.444,256.588 335.394,250.494 337.344,244.319 337.344,241.638 337.344,235.788 337.019,234.081 336.288,229.775 333.444,228.475 M291.6,268.775 L291.356,269.831 Q291.031,271.131 291.031,272.025 291.031,273.488 292.656,274.219 293.875,274.788 295.013,274.788 295.825,274.788 296.8,274.463 298.669,273.813 298.831,273.731 298.506,270.238 296.231,268.775 294.525,267.8 291.356,267.638" test="GarbageCloud"/>
        </g>
      </g>
      <g id="Drawer">
        <path fill="#000" stroke="none" d="M702.662,564.863 Q702.175,565.35 701.769,565.838 L701.769,593.381 Q702.175,593.787 702.662,594.275 708.594,600.206 716.881,600.369 L717.369,600.369 Q725.981,600.369 732.075,594.275 738.169,588.181 738.169,579.569 738.169,570.956 732.075,564.863 725.981,558.769 717.369,558.769 L716.881,558.769 Q708.594,558.931 702.662,564.863 M152.519,477.519 Q147.319,501.406 148.294,527.65 151.381,601.506 150.244,648.225 149.269,693.644 152.519,706.319 253.269,704.938 352.719,709.162 392.044,708.025 418.206,709.406 444.775,710.787 463.219,710.787 470.287,710.787 477.519,710.706 487.675,711.925 497.75,711.762 516.275,710.3 534.637,707.619 553.65,705.262 572.906,707.456 591.35,709.569 609.631,709.081 628.806,708.512 647.819,707.375 670.081,706.969 701.769,706.319 L701.769,600.369 701.769,593.381 701.769,565.838 Q701.688,562.262 701.688,558.769 700.631,503.681 701.769,448.919 L666.669,448.919 666.669,477.519 581.519,474.35 Q356.05,481.744 152.519,477.519Z" test="Drawer" stroke-width="1.625"/>
        <path id="Layer3_0_1_STROKES" stroke="#F60" stroke-width="3.25" stroke-linejoin="round" stroke-linecap="round" fill="none" d="M701.769,593.381 L701.769,600.369 701.769,706.319 Q670.081,706.969 647.819,707.375 628.806,708.512 609.631,709.081 591.35,709.569 572.906,707.456 553.65,705.262 534.637,707.619 516.275,710.3 497.75,711.762 487.675,711.925 477.519,710.706 470.287,710.787 463.219,710.787 444.775,710.787 418.206,709.406 392.044,708.025 352.719,709.162 253.269,704.938 152.519,706.319 149.269,693.644 150.244,648.225 151.381,601.506 148.294,527.65 147.319,501.406 152.519,477.519 356.05,481.744 581.519,474.35 L666.669,477.519 666.669,448.919 701.769,448.919 Q700.631,503.681 701.688,558.769 701.688,562.262 701.769,565.838 702.175,565.35 702.662,564.863 708.594,558.931 716.881,558.769 L717.369,558.769 Q725.981,558.769 732.075,564.863 738.169,570.956 738.169,579.569 738.169,588.181 732.075,594.275 725.981,600.369 717.369,600.369 L716.881,600.369 Q708.594,600.206 702.662,594.275 702.175,593.787 701.769,593.381 L701.769,565.838" test="Drawer"/>
      </g>
      <g id="DrawersCabinetFront">
        <path fill="#000" stroke="none" d="M193.919,867.944 Q194.325,868.35 194.813,868.838 200.744,874.769 209.031,874.931 L209.519,874.931 Q218.131,874.931 224.225,868.838 230.319,862.744 230.319,854.131 230.319,845.519 224.225,839.425 218.131,833.331 209.519,833.331 L209.031,833.331 Q200.744,833.494 194.813,839.425 194.325,839.913 193.919,840.4 L193.919,867.944 M193.919,723.481 L158.819,723.481 158.819,752.081 73.669,748.913 Q-151.8,756.306 -355.331,752.081 -360.531,775.969 -359.556,802.213 -356.469,876.069 -357.606,922.788 -358.581,968.206 -355.331,980.881 -254.581,979.5 -155.131,983.725 -115.806,982.588 -89.644,983.969 -63.075,985.35 -44.631,985.35 -37.562,985.35 -30.331,985.269 -20.175,986.488 -10.1,986.325 8.425,984.863 26.787,982.181 45.8,979.825 65.056,982.019 83.5,984.131 101.781,983.644 120.956,983.075 139.969,981.938 162.231,981.531 193.919,980.881 L193.919,874.931 193.919,867.944 193.919,840.4 Q193.837,836.825 193.837,833.331 192.781,778.244 193.919,723.481Z" test="DrawersCabinetFront" stroke-width="1.625"/>
        <path id="Layer2_0_1_STROKES" stroke="#F60" stroke-width="3.25" stroke-linejoin="round" stroke-linecap="round" fill="none" d="M193.919,867.944 L193.919,874.931 193.919,980.881 Q162.231,981.531 139.969,981.938 120.956,983.075 101.781,983.644 83.5,984.131 65.056,982.019 45.8,979.825 26.787,982.181 8.425,984.863 -10.1,986.325 -20.175,986.488 -30.331,985.269 -37.562,985.35 -44.631,985.35 -63.075,985.35 -89.644,983.969 -115.806,982.588 -155.131,983.725 -254.581,979.5 -355.331,980.881 -358.581,968.206 -357.606,922.788 -356.469,876.069 -359.556,802.213 -360.531,775.969 -355.331,752.081 -151.8,756.306 73.669,748.913 L158.819,752.081 158.819,723.481 193.919,723.481 Q192.781,778.244 193.837,833.331 193.837,836.825 193.919,840.4 194.325,839.913 194.813,839.425 200.744,833.494 209.031,833.331 L209.519,833.331 Q218.131,833.331 224.225,839.425 230.319,845.519 230.319,854.131 230.319,862.744 224.225,868.838 218.131,874.931 209.519,874.931 L209.031,874.931 Q200.744,874.769 194.813,868.838 194.325,868.35 193.919,867.944 L193.919,840.4" test="DrawersCabinetFront"/>
        <path fill="#000" stroke="none" d="M117.3,435.856 Q82.361,434.564 48.725,432.606 15.182,430.733 -73.637,431.063 -162.395,431.48 -203.394,431.956 -244.292,432.514 -296.181,432.037 -348.089,431.555 -378.081,435.206 -380.194,452.431 -382.631,590.963 -385.15,734.856 -382.794,763.213 -381.9,774.75 -387.831,878.669 -393.678,982.586 -389.212,984.863 -384.672,987.141 -372.637,986.244 -368.128,985.966 -362.887,985.269 -352.812,983.969 -342.656,982.669 -294.963,977.794 -247.187,979.256 -225.026,979.402 -201.525,979.662 -83.469,981.044 -67.869,981.044 -53.406,981.044 52.462,985.106 53.681,985.188 54.981,985.188 58.313,985.35 61.644,985.431 66.356,985.594 70.906,985.675 156.462,988.194 158.413,985.106 160.688,981.531 160.85,967.394 160.769,947.244 160.769,934.163 160.769,839.019 161.988,805.95 162.556,789.7 160.769,714.463 159.063,638.738 159.631,619.806 160.686,584.797 159.875,510.525 159.147,436.241 155.731,436.669 152.314,437.171 117.3,435.856Z" test="DrawersCabinetFront" stroke-width="1.625"/>
        <path id="Layer1_0_1_STROKES" stroke="#F60" stroke-width="3.25" stroke-linejoin="round" stroke-linecap="round" fill="none" d="M-378.081,435.206 Q-348.089,431.555 -296.181,432.037 -244.292,432.514 -203.353,431.997 -162.395,431.48 -73.597,431.103 15.182,430.733 48.766,432.647 82.361,434.564 117.341,435.856 152.314,437.171 155.731,436.709 159.147,436.241 159.916,510.525 160.686,584.797 159.631,619.806 159.063,638.738 160.769,714.463 162.556,789.7 161.988,805.95 160.769,839.019 160.769,934.163 160.769,947.244 160.85,967.394 160.688,981.531 158.413,985.106 156.462,988.194 70.906,985.675 66.356,985.594 61.644,985.431 58.313,985.35 54.981,985.188 53.681,985.188 52.462,985.106 -53.406,981.044 -67.869,981.044 -83.469,981.044 -201.525,979.662 -225.026,979.402 -247.187,979.256 -294.963,977.794 -342.656,982.669 -352.812,983.969 -362.887,985.309 -368.128,985.966 -372.597,986.284 -384.672,987.141 -389.172,984.863 -393.678,982.586 -387.791,878.669 -381.9,774.75 -382.794,763.213 -385.15,734.856 -382.631,590.963 -380.194,452.431 -378.081,435.206Z" test="DrawersCabinetFront"/>
      </g>
    </g>
  </g>
</svg>