<?xml version="1.0" encoding="utf-8"?>
<svg id="EdithAnim12" image-rendering="inherit" baseProfile="basic" version="1.1" x="0px" y="0px" width="800" height="600" xmlns="http://www.w3.org/2000/svg" xmlns:xlink="http://www.w3.org/1999/xlink">
  <g id="21_GarbageDrawerf159r1" overflow="visible">
    <g id="GarbageDrawerGroupf159r1">
      <g id="Tween-6">
        <path fill="#000" stroke="none" d="M292.531,379.156 Q288.387,376.963 286.275,376.963 276.119,376.963 270.431,389.231 265.719,399.144 265.069,414.338 264.987,414.662 264.906,414.987 264.338,416.775 262.469,418.563 L249.387,418.563 Q249.144,418.644 244.025,419.131 240.288,419.537 238.987,421.487 238.581,422.056 238.5,423.763 238.419,425.713 238.337,426.037 236.387,424.088 226.637,424.088 214.287,424.088 214.287,434.162 214.287,435.056 214.531,437.737 214.694,440.744 214.937,441.638 212.175,442.125 209.412,445.456 205.513,450.006 205.513,457.075 205.513,458.456 206.406,462.031 206.894,464.063 207.787,467.638 208.356,470.156 208.925,471.05 210.631,473.487 214.937,474.138 216.075,474.3 229.725,477.956 247.275,481.938 267.913,484.213 275.713,485.106 327.713,492.906 367.769,498.919 395.313,500.138 423.831,501.438 462.019,504.525 488.75,506.638 512.475,506.638 533.356,506.638 565.206,500.544 598.031,494.369 607.213,488.112 610.706,485.756 614.2,484.781 618.019,483.725 619.887,482.588 626.713,478.2 628.338,475.763 632.806,468.938 633.781,466.013 634.188,464.794 634.188,461.3 634.188,457.644 633.213,455.125 631.75,452.362 630.938,450.737 L630.938,450.088 Q629.963,449.112 629.963,447.813 629.963,447.731 636.625,442.531 643.287,436.519 643.287,432.862 643.287,426.2 641.5,421.813 639.063,415.963 632.888,411.737 629.313,409.3 622.894,407.919 616.719,406.781 615.338,406.213 616.069,404.831 619.563,400.85 622.813,396.544 622.813,392.075 622.813,385.25 617.938,378.912 611.6,370.787 600.713,370.787 593.481,370.787 588.038,372.737 588.688,372.006 589.175,371.194 589.988,369.65 589.988,366.888 589.988,360.306 582.512,354.862 572.762,347.713 554.4,347.713 L544.813,348.85 Q540.831,350.638 538.475,356.325 538.313,356.894 537.988,357.463 538.313,356.894 538.475,356.325 540.181,350.231 528.238,344.869 517.35,339.912 509.225,339.912 499.638,339.912 495.575,343 491.513,346.088 490.537,354.213 487.287,350.963 485.419,349.581 482.169,347.063 479.813,347.063 469.981,347.063 464.456,351.45 461.694,353.644 453.487,364.612 L453.487,364.287 Q452.513,357.544 451.862,354.944 450.888,350.556 448.856,348.362 444.063,343.162 425.375,343.162 421.638,343.162 417.819,345.275 414,347.306 410.912,350.963 410.1,350.15 408.394,347.144 406.362,343.569 406.362,343.487 401.244,335.85 397.912,333.169 394.256,330.162 389.463,330.162 363.869,330.162 349.244,339.425 336.65,347.469 339.088,356.162 335.838,352.1 333.806,350.069 330.231,346.412 326.575,346.412 314.631,346.412 304.638,358.519 294.725,370.463 296.838,381.838 296.188,381.025 292.531,379.156 M350.787,387.119 Q353.225,388.256 356.963,390.612 359.563,391.994 359.888,392.237 360.537,392.644 359.563,392.563 360.537,392.644 359.888,392.237 359.563,391.994 356.963,390.612 353.225,388.256 350.787,387.119 346.4,385.088 341.688,385.088 326.575,385.088 318.287,392.237 326.575,385.088 341.688,385.088 346.4,385.088 350.787,387.119 M408.719,379.481 Q415.3,376.638 422.612,376.638 429.112,376.638 433.987,387.037 433.987,387.688 433.419,388.338 432.769,389.069 432.037,389.313 432.769,389.069 433.419,388.338 433.987,387.688 433.987,387.037 429.112,376.638 422.612,376.638 415.3,376.638 408.719,379.481 401.894,382.487 398.563,387.362 401.894,382.487 408.719,379.481 M523.525,373.063 Q524.094,373.063 527.831,377.125 531.488,381.188 531.488,381.838 531.488,390.206 528.319,394.594 526.206,397.519 523.362,398.088 526.206,397.519 528.319,394.594 531.488,390.206 531.488,381.838 531.488,381.188 527.831,377.125 524.094,373.063 523.525,373.063 503.05,373.063 493.463,381.188 503.05,373.063 523.525,373.063 M594.7,391.831 Q598.113,394.431 598.113,404.425 598.113,414.256 589.744,420.675 583.081,425.794 578.288,425.388 583.081,425.794 589.744,420.675 598.113,414.256 598.113,404.425 598.113,394.431 594.7,391.831 591.45,389.313 578.938,389.638 591.45,389.313 594.7,391.831 M600.387,422.463 Q612.006,422.3 612.981,422.625 617.288,423.925 617.288,432.213 617.288,434.975 614.769,437.575 613.144,439.119 608.838,441.963 607.7,442.694 605.75,444.4 603.963,445.862 603.313,446.188 603.963,445.862 605.75,444.4 607.7,442.694 608.838,441.963 613.144,439.119 614.769,437.575 617.288,434.975 617.288,432.213 617.288,423.925 612.981,422.625 612.006,422.3 600.387,422.463Z" test="Tween 6" stroke-width="1.625"/>
        <path id="Layer5_0_1_STROKES" stroke="#FFF" stroke-width="1.625" stroke-linejoin="round" stroke-linecap="round" fill="none" d="M630.938,450.737 Q631.75,452.362 633.213,455.125 634.188,457.644 634.188,461.3 634.188,464.794 633.781,466.013 632.806,468.938 628.338,475.763 626.713,478.2 619.887,482.588 618.019,483.725 614.2,484.781 610.706,485.756 607.213,488.112 598.031,494.369 565.206,500.544 533.356,506.638 512.475,506.638 488.75,506.638 462.019,504.525 423.831,501.438 395.313,500.138 367.769,498.919 327.713,492.906 275.713,485.106 267.913,484.213 247.275,481.938 229.725,477.956 216.075,474.3 214.937,474.138 210.631,473.487 208.925,471.05 208.356,470.156 207.787,467.638 206.894,464.063 206.406,462.031 205.513,458.456 205.513,457.075 205.513,450.006 209.412,445.456 212.175,442.125 214.937,441.638 214.694,440.744 214.531,437.737 214.287,435.056 214.287,434.162 214.287,424.088 226.637,424.088 236.387,424.088 238.337,426.037 238.419,425.713 238.5,423.763 238.581,422.056 238.987,421.487 240.288,419.537 244.025,419.131 249.144,418.644 249.387,418.563 L262.469,418.563 Q264.338,416.775 264.906,414.987 264.987,414.662 265.069,414.338 265.719,399.144 270.431,389.231 276.119,376.963 286.275,376.963 288.387,376.963 292.531,379.156 296.188,381.025 296.838,381.838 294.725,370.463 304.638,358.519 314.631,346.412 326.575,346.412 330.231,346.412 333.806,350.069 335.838,352.1 339.088,356.162 336.65,347.469 349.244,339.425 363.869,330.162 389.463,330.162 394.256,330.162 397.912,333.169 401.244,335.85 406.362,343.487 406.362,343.569 408.394,347.144 410.1,350.15 410.912,350.963 414,347.306 417.819,345.275 421.638,343.162 425.375,343.162 444.063,343.162 448.856,348.362 450.888,350.556 451.862,354.944 452.513,357.544 453.487,364.287 L453.487,364.612 Q461.694,353.644 464.456,351.45 469.981,347.063 479.813,347.063 482.169,347.063 485.419,349.581 487.287,350.963 490.537,354.213 491.513,346.088 495.575,343 499.638,339.912 509.225,339.912 517.35,339.912 528.238,344.869 540.181,350.231 538.475,356.325 540.831,350.638 544.813,348.85 547.494,347.713 554.4,347.713 572.762,347.713 582.512,354.862 589.988,360.306 589.988,366.888 589.988,369.65 589.175,371.194 588.688,372.006 588.038,372.737 593.481,370.787 600.713,370.787 611.6,370.787 617.938,378.912 622.813,385.25 622.813,392.075 622.813,396.544 619.563,400.85 616.069,404.831 615.338,406.213 616.719,406.781 622.894,407.919 629.313,409.3 632.888,411.737 639.063,415.963 641.5,421.813 643.287,426.2 643.287,432.862 643.287,436.519 636.625,442.531 629.963,447.731 629.963,447.813 629.963,449.112 630.938,450.088 M318.287,392.237 Q326.575,385.088 341.688,385.088 346.4,385.088 350.787,387.119 353.225,388.256 356.963,390.612 359.563,391.994 359.888,392.237 360.537,392.644 359.563,392.563 M398.563,387.362 Q401.894,382.487 408.719,379.481 415.3,376.638 422.612,376.638 429.112,376.638 433.987,387.037 433.987,387.688 433.419,388.338 432.769,389.069 432.037,389.313 M538.475,356.325 Q538.313,356.894 537.988,357.463 M493.463,381.188 Q503.05,373.063 523.525,373.063 524.094,373.063 527.831,377.125 531.488,381.188 531.488,381.838 531.488,390.206 528.319,394.594 526.206,397.519 523.362,398.088 M578.938,389.638 Q591.45,389.313 594.7,391.831 598.113,394.431 598.113,404.425 598.113,414.256 589.744,420.675 583.081,425.794 578.288,425.388 M600.387,422.463 Q612.006,422.3 612.981,422.625 617.288,423.925 617.288,432.213 617.288,434.975 614.769,437.575 613.144,439.119 608.838,441.963 607.7,442.694 605.75,444.4 603.963,445.862 603.313,446.188" test="Tween 6"/>
      </g>
      <g id="Tween-5">
        <g id="Tin-can-Rubbish">
          <path fill="#000" stroke="none" d="M258.781,373.756 Q246.025,389.113 239.769,394.881 224.9,408.613 213.2,408.938 L213.525,411.213 Q213.525,412.756 213.281,414.219 212.956,415.681 212.956,416.169 212.956,417.306 214.581,417.956 215.963,418.444 217.913,418.444 221.813,418.444 230.913,413.975 L231.319,413.975 Q226.931,419.825 226.931,421.531 226.931,426.325 232.7,426.325 236.194,426.325 236.681,426.163 237.169,425.919 239.444,424.213 239.85,423.319 240.256,422.913 L240.256,423.481 Q239.769,423.806 239.444,424.213 238.875,425.106 238.144,426.569 236.356,430.388 236.356,433.15 236.356,437.456 242.613,439.569 248.219,441.438 246.431,447.45 252.281,447.694 253.906,449.888 254.313,450.456 254.719,451.513 L254.719,451.594 Q269.425,445.663 275.763,441.031 281.856,436.481 284.375,430.144 281.856,436.481 275.763,441.031 269.425,445.663 254.719,451.594 255.288,453.219 255.938,455.9 256.669,457.769 260.325,460.613 262.681,462.563 261.462,466.463 L267.069,466.463 Q289.738,457.119 313.869,428.6 337.269,401.056 342.956,378.794 L342.956,373.756 Q339.219,372.944 334.588,373.756 L331.256,373.756 Q332.881,370.019 328.331,368.15 322.075,366.525 319.069,365.469 317.363,364.819 316.225,362.463 315.169,359.456 314.519,357.994 312.081,352.55 305.581,354.256 L305.581,349.788 Q306.719,348.65 306.719,347.025 306.719,344.75 302.25,344.344 297.213,344.263 296.075,344.181 296.075,343.369 296.644,341.338 297.213,339.388 297.213,338.738 297.213,335.731 292.175,335.325 294.45,331.181 290.713,328.906 287.463,327.688 285.431,326.875 287.788,328.338 287.788,331.669 287.788,342.15 279.744,351.331 267.394,363.438 258.781,373.756 M293.15,373.025 Q290.55,377.413 288.925,377.738 290.55,377.413 293.15,373.025 294.775,370.181 299.975,361 294.775,370.181 293.15,373.025 M325.325,385.619 Q322.238,390.331 318.5,391.631 322.238,390.331 325.325,385.619 328.494,380.744 330.119,373.756 328.494,380.744 325.325,385.619 M270.969,400 Q268.856,403.413 265.281,409.831 262.844,414.3 262.031,415.113 262.844,414.3 265.281,409.831 268.856,403.413 270.969,400 M225.713,370.588 Q212.631,387.325 211.169,395.775 210.356,399.919 210.113,402.194 209.706,404.55 209.869,405.038 209.788,405.281 209.706,405.525 209.625,406.175 209.625,406.663 209.625,407.963 210.113,408.369 210.763,408.938 212.631,408.938 212.875,408.938 213.2,408.938 224.9,408.613 239.769,394.881 246.025,389.113 258.781,373.756 267.394,363.438 279.744,351.331 287.788,342.15 287.788,331.669 287.788,328.338 285.431,326.875 284.456,326.306 283.238,326.063 282.019,325.819 280.475,325.819 273.406,325.819 256.1,339.875 238.794,353.85 225.713,370.588Z" test="Tin can Rubbish" stroke-width="1.625"/>
          <path id="Layer8_0_1_STROKES" stroke="#009EFF" stroke-width="1.625" stroke-linejoin="round" stroke-linecap="round" fill="none" d="M210.113,402.194 Q209.706,404.55 209.869,405.038 M285.431,326.875 Q287.463,327.688 290.713,328.906 294.45,331.181 292.175,335.325 297.213,335.731 297.213,338.738 297.213,339.388 296.644,341.338 296.075,343.369 296.075,344.181 297.213,344.263 302.25,344.344 306.719,344.75 306.719,347.025 306.719,348.65 305.581,349.788 L305.581,354.256 Q312.081,352.55 314.519,357.994 315.169,359.456 316.225,362.463 317.363,364.819 319.069,365.469 322.075,366.525 328.331,368.15 332.881,370.019 331.256,373.756 L334.588,373.756 Q339.219,372.944 342.956,373.756 L342.956,378.794 Q337.269,401.056 313.869,428.6 289.738,457.119 267.069,466.463 L261.462,466.463 Q262.681,462.563 260.325,460.613 256.669,457.769 255.938,455.9 255.288,453.219 254.719,451.594 L254.719,451.513 Q254.313,450.456 253.906,449.888 252.281,447.694 246.431,447.45 248.219,441.438 242.613,439.569 236.356,437.456 236.356,433.15 236.356,430.388 238.144,426.569 238.875,425.106 239.444,424.213 237.169,425.919 236.681,426.163 236.194,426.325 232.7,426.325 226.931,426.325 226.931,421.531 226.931,419.825 231.319,413.975 L230.913,413.975 Q221.813,418.444 217.913,418.444 215.963,418.444 214.581,417.956 212.956,417.306 212.956,416.169 212.956,415.681 213.281,414.219 213.525,412.756 213.525,411.213 M299.975,361 Q294.775,370.181 293.15,373.025 290.55,377.413 288.925,377.738 M330.119,373.756 Q328.494,380.744 325.325,385.619 322.238,390.331 318.5,391.631 M270.969,400 Q268.856,403.413 265.281,409.831 262.844,414.3 262.031,415.113 M239.444,424.213 Q239.769,423.806 240.256,423.481 L240.256,422.913 Q239.85,423.319 239.444,424.213Z M254.719,451.594 Q269.425,445.663 275.763,441.031 281.856,436.481 284.375,430.144" test="Tin can Rubbish"/>
          <path id="Layer8_0_2_STROKES" stroke="#FFF" stroke-width="1.625" stroke-linejoin="round" stroke-linecap="round" fill="none" d="M285.431,326.875 Q284.456,326.306 283.238,326.063 282.019,325.819 280.475,325.819 273.406,325.819 256.1,339.875 238.794,353.85 225.713,370.588 212.631,387.325 211.169,395.775 210.356,399.919 210.113,402.194 M209.869,405.038 Q209.788,405.281 209.706,405.525 209.625,406.175 209.625,406.663 209.625,407.963 210.113,408.369 210.763,408.938 212.631,408.938 212.875,408.938 213.2,408.938 224.9,408.613 239.769,394.881 246.025,389.113 258.781,373.756 267.394,363.438 279.744,351.331 287.788,342.15 287.788,331.669 287.788,328.338 285.431,326.875" test="Tin can Rubbish"/>
        </g>
        <g id="Bottle">
          <path fill="#000" stroke="none" d="M573.731,457.513 Q571.213,457.188 562.275,455.319 554.475,453.613 550.088,453.694 541.963,453.775 530.019,446.869 518.237,440.125 507.269,429.319 499.469,421.6 492.562,409.981 487.037,399.5 486.469,398.688 483.787,394.95 481.675,391.05 478.019,384.55 478.262,381.381 459.819,407.138 438.937,430.781 416.431,456.131 399.775,485.381 384.419,512.356 410.581,531.044 437.8,550.463 468.756,561.675 485.9,568.013 499.631,553.956 523.031,529.988 541.637,501.388 556.262,478.8 573.325,458 L573.731,457.513 M525.306,346.2 Q525.144,346.119 524.981,346.119 508.406,345.469 496.381,358.469 486.469,369.194 478.262,381.381 478.019,384.55 481.675,391.05 483.787,394.95 486.469,398.688 487.037,399.5 492.562,409.981 499.469,421.6 507.269,429.319 518.237,440.125 530.019,446.869 541.963,453.775 550.088,453.694 554.475,453.613 562.275,455.319 571.213,457.188 573.731,457.513 591.769,440.044 600.137,416.644 600.463,415.831 600.787,415.019 599.975,414.938 599.65,415.019 597.294,415.1 596.4,415.181 595.181,415.263 593.231,415.75 591.363,416.238 588.519,416.238 581.531,416.238 563.981,404.375 547.162,393.081 537.738,382.763 529.938,374.15 527.744,363.669 526.606,352.781 525.306,346.2 M605.744,351.319 Q595.831,343.438 589.25,328.325 560.569,348.475 525.306,346.2 526.606,352.781 527.744,363.669 529.938,374.15 537.738,382.763 547.162,393.081 563.981,404.375 581.531,416.238 588.519,416.238 591.363,416.238 593.231,415.75 595.181,415.263 596.4,415.181 597.294,415.1 599.65,415.019 599.975,414.938 600.787,415.019 592.581,382.113 619.069,360.988 619.8,360.419 620.531,359.688 608.181,353.269 605.744,351.319 M589.088,326.456 L589.25,328.325 Q595.831,343.438 605.744,351.319 608.181,353.269 620.531,359.688 L625.244,360.5 Q628.819,359.038 633.287,350.263 637.512,341.894 637.512,337.588 637.512,332.388 625.813,319.713 620.206,313.619 615.981,310.45 611.35,306.875 608.506,306.875 603.875,306.875 596.481,315.975 593.637,319.469 589.088,326.456 M612.975,315.569 Q612.488,314.838 612.406,314.756 612.488,314.838 612.975,315.569 614.194,317.275 618.094,323.044 624.838,331.9 630.85,335.881 624.838,331.9 618.094,323.044 614.194,317.275 612.975,315.569Z" test="Bottle" stroke-width="1.625"/>
          <path id="Layer9_0_1_STROKES" stroke="#FFF" stroke-width="1.625" stroke-linejoin="round" stroke-linecap="round" fill="none" d="M589.25,328.325 Q595.831,343.438 605.744,351.319 608.181,353.269 620.531,359.688 M625.244,360.5 Q628.819,359.038 633.287,350.263 637.512,341.894 637.512,337.588 637.512,332.388 625.813,319.713 620.206,313.619 615.981,310.45 611.35,306.875 608.506,306.875 603.875,306.875 596.481,315.975 593.637,319.469 589.088,326.456 M630.85,335.881 Q624.838,331.9 618.094,323.044 614.194,317.275 612.975,315.569 612.488,314.838 612.406,314.756 M478.262,381.381 Q478.019,384.55 481.675,391.05 483.787,394.95 486.469,398.688 487.037,399.5 492.562,409.981 499.469,421.6 507.269,429.319 518.237,440.125 530.019,446.869 541.963,453.775 550.088,453.694 554.475,453.613 562.275,455.319 571.213,457.188 573.731,457.513 M600.787,415.019 Q599.975,414.938 599.65,415.019 597.294,415.1 596.4,415.181 595.181,415.263 593.231,415.75 591.363,416.238 588.519,416.238 581.531,416.238 563.981,404.375 547.162,393.081 537.738,382.763 529.938,374.15 527.744,363.669 526.606,352.781 525.306,346.2 525.144,345.306 524.981,344.494 M573.731,457.513 Q574.056,457.594 574.219,457.594 574.219,457.838 573.325,458" test="Bottle"/>
          <path id="Layer9_0_2_STROKES" stroke="#0F0" stroke-width="1.625" stroke-linejoin="round" stroke-linecap="round" fill="none" d="M525.306,346.2 Q525.144,346.119 524.981,346.119 508.406,345.469 496.381,358.469 486.469,369.194 478.262,381.381 M573.731,457.513 Q591.769,440.044 600.137,416.644 600.463,415.831 600.787,415.019 592.581,382.113 619.069,360.988 619.8,360.419 620.531,359.688 M589.25,328.325 Q560.569,348.475 525.306,346.2 M573.325,458 Q556.262,478.8 541.637,501.388 523.031,529.988 499.631,553.956 485.9,568.013 468.756,561.675 437.8,550.463 410.581,531.044 384.419,512.356 399.775,485.381 416.431,456.131 438.937,430.781 459.819,407.138 478.262,381.381 M573.325,458 L573.731,457.513" test="Bottle"/>
        </g>
        <g id="Banana">
          <path fill="#000" stroke="none" d="M400.038,281.506 L399.225,282.319 Q393.863,290.119 387.363,302.388 382.325,311.731 379.806,314.169 371.438,322.05 360.956,328.631 350.394,334.806 346.25,337.569 326.75,350.487 309.444,377.625 292.3,404.356 293.763,418.494 L293.763,425.481 Q293.925,425.725 294.819,425.725 297.906,425.725 300.588,420.931 302.05,418.25 304.325,412.888 305.219,411.263 309.038,406.063 310.988,403.381 311.231,402.894 320.331,400.375 334.55,390.869 350.881,380.063 357.95,369.906 365.1,359.669 381.188,347.156 396.706,335.05 397.519,333.75 L398.088,333.75 398.088,337 Q393.863,355.2 373.794,389.406 363.313,407.2 360.794,412.156 354.944,423.206 354.619,428.569 355.106,428.569 356.731,428.894 358.275,429.138 359.006,429.138 365.263,429.138 382.894,412.563 401.256,395.338 409.381,380.55 411.088,377.381 413.119,365.031 415.313,351.787 415.963,349.838 418.075,344.15 418.563,342.444 419.213,339.844 420.431,335.456 426.606,345.125 434.325,353.9 439.688,360.156 460.569,383.881 469.994,394.931 474.544,418.412 477.306,432.713 477.306,441.894 484.456,441.975 488.681,432.55 492.419,424.019 492.419,411.263 492.419,399.156 488.194,389.162 486.081,384.206 478.363,371.856 471.131,360.237 467.475,350.65 461.95,336.106 450.981,327.088 439.931,317.987 435.95,309.05 431.888,300.112 428.231,292.881 424.575,285.569 425.713,283.537 L424.413,282.075 Q422.138,284.106 418.481,285.406 414.338,286.787 410.438,286.787 408.569,286.787 404.263,284.594 400.769,282.806 400.038,281.506 M419.294,240.475 Q412.225,238.362 410.031,245.594 409.381,247.869 408.813,257.781 408.163,267.45 403.856,272.731 399.794,277.85 399.794,280.856 399.794,281.181 400.038,281.506 400.769,282.806 404.263,284.594 408.569,286.787 410.438,286.787 414.338,286.787 418.481,285.406 422.138,284.106 424.413,282.075 425.713,280.938 426.525,279.556 426.038,279.231 425.55,278.987 423.681,277.769 422.381,276.794 419.538,274.844 418.644,273.869 417.1,272.081 417.1,261.112 417.1,253.8 419.294,240.475Z" test="Banana" stroke-width="1.625"/>
          <path id="Layer10_0_1_STROKES" stroke="#FF0" stroke-width="1.625" stroke-linejoin="round" stroke-linecap="round" fill="none" d="M425.713,283.537 Q424.575,285.569 428.231,292.881 431.888,300.112 435.95,309.05 439.931,317.987 450.981,327.088 461.95,336.106 467.475,350.65 471.131,360.237 478.363,371.856 486.081,384.206 488.194,389.162 492.419,399.156 492.419,411.263 492.419,424.019 488.681,432.55 484.456,441.975 477.306,441.894 477.306,432.713 474.544,418.412 469.994,394.931 460.569,383.881 439.688,360.156 434.325,353.9 426.606,345.125 420.431,335.456 419.213,339.844 418.563,342.444 418.075,344.15 415.963,349.838 415.313,351.787 413.119,365.031 411.088,377.381 409.381,380.55 401.256,395.338 382.894,412.563 365.263,429.138 359.006,429.138 358.275,429.138 356.731,428.894 355.106,428.569 354.619,428.569 354.944,423.206 360.794,412.156 363.313,407.2 373.794,389.406 393.863,355.2 398.088,337 L398.088,333.75 397.519,333.75 Q396.706,335.05 381.188,347.156 365.1,359.669 357.95,369.906 350.881,380.063 334.55,390.869 320.331,400.375 311.231,402.894 310.988,403.381 309.038,406.063 305.219,411.263 304.325,412.888 302.05,418.25 300.588,420.931 297.906,425.725 294.819,425.725 293.925,425.725 293.763,425.481 L293.763,418.494 Q292.3,404.356 309.444,377.625 326.75,350.487 346.25,337.569 350.394,334.806 360.956,328.631 371.438,322.05 379.806,314.169 382.325,311.731 387.363,302.388 393.863,290.119 399.225,282.319" test="Banana"/>
          <path id="Layer10_0_2_STROKES" stroke="#FFF" stroke-width="1.625" stroke-linejoin="round" stroke-linecap="round" fill="none" d="M400.038,281.506 Q399.794,281.181 399.794,280.856 399.794,277.85 403.856,272.731 408.163,267.45 408.813,257.781 409.381,247.869 410.031,245.594 412.225,238.362 419.294,240.475 417.1,253.8 417.1,261.112 417.1,272.081 418.644,273.869 419.538,274.844 422.381,276.794 423.681,277.769 425.55,278.987 426.038,279.231 426.525,279.556 425.713,280.938 424.413,282.075 M400.038,281.506 Q400.769,282.806 404.263,284.594 408.569,286.787 410.438,286.787 414.338,286.787 418.481,285.406 422.138,284.106 424.413,282.075" test="Banana"/>
        </g>
      </g>
      <g id="Tween-4">
        <path id="Layer4_0_1_STROKES" stroke="#FFF" stroke-width="1.625" stroke-linejoin="round" stroke-linecap="round" fill="none" d="M546.1,440.488 Q546.1,434.15 555.606,429.194" test="Tween 4"/>
        <g id="Garbage">
          <path fill="#000" stroke="none" d="M438.281,402.369 L436.169,401.15 Q436.006,401.475 435.519,402.369 436.006,401.475 436.169,401.15 436.169,400.988 436.169,400.906 436.169,395.95 433.325,394 429.425,391.156 418.294,391.156 406.513,391.156 382.056,403.506 379.213,404.888 374.581,413.663 373.85,415.125 372.956,416.344 372.306,409.113 363.613,404.075 355,398.956 344.356,398.956 332.25,398.956 322.906,404.563 311.125,411.631 311.125,424.875 311.125,425.525 311.206,426.094 305.519,420.731 292.194,420.731 280.981,420.731 274.075,424.225 266.763,427.963 260.344,437.469 255.306,444.863 254.575,450.55 254.169,453.556 254.737,456.969 251.813,450.225 249.375,447.056 245.069,441.369 235.237,441.369 225.975,441.369 219.638,446.975 213.463,452.581 213.463,460.625 213.463,462.088 214.356,473.95 212,478.175 210.619,482.725 208.425,491.744 208.425,500.194 208.425,507.913 214.031,512.788 219.15,517.256 225.731,517.256 228.169,517.256 236.538,515.875 244.825,514.494 250.269,514.494 256.769,514.494 273.263,519.206 289.675,523.919 306.656,523.919 311.613,523.919 351.263,520.344 396.925,516.688 431.7,516.688 439.5,516.606 445.431,516.688 L465.5,517.744 466.313,517.338 Q467.206,517.013 467.938,516.931 472.731,516.688 476.956,514.331 480.125,513.356 482.156,512.463 494.831,506.938 497.513,506.694 L498.081,506.694 Q498.081,506.45 536.025,517.094 577.706,527.9 594.688,527.9 614.188,527.9 623.613,517.906 628.406,512.95 629.219,507.75 629.219,505.15 629.056,504.906 628.975,504.744 628.813,504.581 628.163,504.013 626.456,503.85 628.163,504.013 628.813,504.581 L629.219,503.85 Q631.819,502.225 640.106,499.219 647.094,495.563 647.094,488.819 647.094,484.594 642.056,483.213 L642.625,483.213 Q645.225,480.694 652.05,475.331 657.656,470.131 657.656,464.769 657.656,460.219 654.894,454.775 651.4,448.031 646.281,448.031 637.831,450.063 634.825,450.306 638.725,446.975 638.725,445.269 638.563,442.506 637.019,439.906 634.094,434.788 627.513,434.788 614.594,434.788 609.15,436.656 603.788,438.525 595.175,445.838 593.388,436.575 587.294,430.644 580.956,424.631 572.588,424.631 564.138,424.631 555.606,429.181 L546.1,440.475 Q546.1,441.938 547.156,450.875 546.425,450.469 544.638,450.063 542.931,449.738 541.875,449.738 537.975,449.738 533.344,454.206 531.638,455.913 529.363,459.813 527.25,463.55 526.519,465.906 526.356,466.638 526.194,467.45 525.463,470.375 523.025,472.325 522.294,472.894 521.4,473.219 521.075,472.975 520.831,472.731 516.281,468.263 515.063,462.088 514.413,460.138 513.112,458.025 510.756,454.044 507.019,450.306 515.956,451.281 523.594,448.438 532.125,445.269 533.181,438.606 533.344,437.631 533.344,436.575 533.344,432.35 532.613,430.075 531.069,425.119 525.95,420.731 520.588,416.1 514.819,414.963 512.95,414.556 507.588,414.556 507.669,414.394 512.138,406.513 512.544,405.781 512.869,405.05 L513.6,404.075 Q514.006,403.506 514.088,403.1 514.737,399.769 513.763,396.519 513.194,394.975 510.919,390.181 508.319,384.819 505.15,382.544 497.675,377.181 479.313,377.181 460.056,377.181 443.481,395.869 440.881,398.794 438.281,402.369 M481.75,440.231 Q481.425,441.044 480.775,442.344 481.425,441.044 481.75,440.231 482.4,438.769 482.4,437.631 482.4,430.969 476.55,430.969 473.625,430.969 470.7,431.781 464.85,433.488 464.525,437.794 464.85,433.488 470.7,431.781 473.625,430.969 476.55,430.969 482.4,430.969 482.4,437.631 482.4,438.769 481.75,440.231 M601.675,471.269 Q605.9,474.031 605.9,478.419 605.9,474.031 601.675,471.269 598.181,468.994 594.363,468.994 589,468.994 585.994,470.863 582.825,472.731 582.825,476.144 582.825,472.731 585.994,470.863 589,468.994 594.363,468.994 598.181,468.994 601.675,471.269 M350.45,445.838 Q355.163,448.356 356.3,451.444 355.163,448.356 350.45,445.838 346.063,443.563 342.65,443.563 338.263,443.563 335.094,446.406 330.706,450.469 330.706,459.244 330.706,460.544 330.95,461.275 331.438,462.575 332.9,464.769 331.438,462.575 330.95,461.275 330.706,460.544 330.706,459.244 330.706,450.469 335.094,446.406 338.263,443.563 342.65,443.563 346.063,443.563 350.45,445.838 M416.588,438.606 Q417.725,440.556 417.725,445.594 417.725,454.694 410.575,460.95 402.856,467.613 390.913,467.044 402.856,467.613 410.575,460.95 417.725,454.694 417.725,445.594 417.725,440.556 416.588,438.606 415.288,436.331 411.631,436.331 410.9,436.331 409.844,436.656 408.3,437.144 406.594,437.469 408.3,437.144 409.844,436.656 410.9,436.331 411.631,436.331 415.288,436.331 416.588,438.606Z" test="Garbage" stroke-width="1.625"/>
          <path id="Layer6_0_1_STROKES" stroke="#FFF" stroke-width="1.625" stroke-linejoin="round" stroke-linecap="round" fill="none" d="M436.169,401.15 Q436.006,401.475 435.519,402.369 M628.813,504.581 Q628.975,504.744 629.056,504.906 629.219,505.15 629.219,507.75 628.406,512.95 623.613,517.906 614.188,527.9 594.688,527.9 577.706,527.9 536.025,517.094 498.081,506.45 498.081,506.694 L497.513,506.694 Q494.831,506.938 482.156,512.463 480.125,513.356 476.956,514.331 472.731,516.688 467.938,516.931 467.206,517.013 466.313,517.338 L465.5,517.744 445.431,516.688 Q439.5,516.606 431.7,516.688 396.925,516.688 351.263,520.344 311.613,523.919 306.656,523.919 289.675,523.919 273.263,519.206 256.769,514.494 250.269,514.494 244.825,514.494 236.538,515.875 228.169,517.256 225.731,517.256 219.15,517.256 214.031,512.788 208.425,507.913 208.425,500.194 208.425,491.744 210.619,482.725 212,478.175 214.356,473.95 213.463,462.088 213.463,460.625 213.463,452.581 219.638,446.975 225.975,441.369 235.237,441.369 245.069,441.369 249.375,447.056 251.813,450.225 254.737,456.969 254.169,453.556 254.575,450.55 255.306,444.863 260.344,437.469 266.763,427.963 274.075,424.225 280.981,420.731 292.194,420.731 305.519,420.731 311.206,426.094 311.125,425.525 311.125,424.875 311.125,411.631 322.906,404.563 332.25,398.956 344.356,398.956 355,398.956 363.613,404.075 372.306,409.113 372.956,416.344 373.85,415.125 374.581,413.663 379.213,404.888 382.056,403.506 406.513,391.156 418.294,391.156 429.425,391.156 433.325,394 436.169,395.95 436.169,400.906 436.169,400.988 436.169,401.15 M438.281,402.369 Q440.881,398.794 443.481,395.869 460.056,377.181 479.313,377.181 497.675,377.181 505.15,382.544 508.319,384.819 510.919,390.181 513.194,394.975 513.763,396.519 514.737,399.769 514.088,403.1 514.006,403.506 513.6,404.075 L512.869,405.05 Q512.544,405.781 512.138,406.513 507.669,414.394 507.588,414.556 512.95,414.556 514.819,414.963 520.588,416.1 525.95,420.731 531.069,425.119 532.613,430.075 533.344,432.35 533.344,436.575 533.344,437.631 533.181,438.606 532.125,445.269 523.594,448.438 515.956,451.281 507.019,450.306 510.756,454.044 513.112,458.025 514.413,460.138 515.063,462.088 516.281,468.263 520.831,472.731 521.075,472.975 521.4,473.219 522.294,472.894 523.025,472.325 525.463,470.375 526.194,467.45 526.356,466.638 526.519,465.906 527.25,463.55 529.363,459.813 531.638,455.913 533.344,454.206 537.975,449.738 541.875,449.738 542.931,449.738 544.638,450.063 546.425,450.469 547.156,450.875 546.1,441.938 546.1,440.475 M555.606,429.181 Q564.138,424.631 572.588,424.631 580.956,424.631 587.294,430.644 593.388,436.575 595.175,445.838 603.788,438.525 609.15,436.656 614.594,434.788 627.513,434.788 634.094,434.788 637.019,439.906 638.563,442.506 638.725,445.269 638.725,446.975 634.825,450.306 637.831,450.063 646.281,448.031 651.4,448.031 654.894,454.775 657.656,460.219 657.656,464.769 657.656,470.131 652.05,475.331 645.225,480.694 642.625,483.213 L642.056,483.213 Q647.094,484.594 647.094,488.819 647.094,495.563 640.106,499.219 631.819,502.225 629.219,503.85 M626.456,503.85 Q628.163,504.013 628.813,504.581 M464.525,437.794 Q464.85,433.488 470.7,431.781 473.625,430.969 476.55,430.969 482.4,430.969 482.4,437.631 482.4,438.769 481.75,440.231 481.425,441.044 480.775,442.344 M582.825,476.144 Q582.825,472.731 585.994,470.863 589,468.994 594.363,468.994 598.181,468.994 601.675,471.269 605.9,474.031 605.9,478.419 M332.9,464.769 Q331.438,462.575 330.95,461.275 330.706,460.544 330.706,459.244 330.706,450.469 335.094,446.406 338.263,443.563 342.65,443.563 346.063,443.563 350.45,445.838 355.163,448.356 356.3,451.444 M406.594,437.469 Q408.3,437.144 409.844,436.656 410.9,436.331 411.631,436.331 415.288,436.331 416.588,438.606 417.725,440.556 417.725,445.594 417.725,454.694 410.575,460.95 402.856,467.613 390.913,467.044" test="Garbage"/>
        </g>
        <g id="GarbageCloud">
          <path id="Layer7_0_1_STROKES" stroke="#FFF" stroke-width="1.625" stroke-linejoin="round" stroke-linecap="round" fill="none" d="M477.988,324.206 Q480.425,322.906 480.913,322.175 481.888,320.794 481.888,316.975 481.888,312.181 477.744,305.031 473.6,297.881 473.6,291.463 473.6,286.263 479.694,276.188 485.788,266.113 485.788,261.644 485.788,259.044 483.513,256.038 483.188,255.631 480.181,252.219 M574.188,298.531 Q575.163,296.419 579.063,292.925 584.263,288.131 588.488,287.888 589.625,290.163 589.625,292.356 589.625,292.925 584.019,298.531 L574.188,298.531 Q574.025,298.856 573.781,299.588 574.35,299.831 574.919,300.238 577.275,301.781 577.275,303.488 577.275,305.275 576.788,305.763 576.219,306.331 574.269,306.331 572.481,306.331 571.181,305.275 570.044,304.219 570.044,302.919 570.044,301.944 570.45,301.294 566.713,301.294 564.438,300.725 558.913,299.506 558.913,295.688 558.913,292.844 559.969,290.731 561.431,287.888 564.194,287.888 568.094,287.888 570.531,291.381 572.156,293.819 573.375,298.531 L574.188,298.531Z M570.45,301.294 L570.531,301.294 Q571.669,301.294 571.994,301.213 572.4,301.131 572.806,300.725 L572.806,299.588 Q571.75,299.994 571.181,300.4 570.694,300.725 570.45,301.294Z M573.781,299.588 Q572.075,298.775 570.613,299.1 M291.356,284.638 Q291.6,283.825 291.925,283.013 287.131,283.175 282.5,286.425 278.438,289.106 277.056,291.788 L277.056,297.394 282.094,297.394 Q289.731,291.625 290.788,286.75 291.031,285.694 291.356,284.638 290.95,284.638 290.463,284.638 M297.125,285.775 Q295.744,284.556 294.85,283.906 292.656,283.988 292.169,284.069 M294.85,283.906 Q294.119,283.338 293.713,283.094 293.469,282.931 292.738,282.931 292.331,282.931 291.925,283.013 294.038,277.65 298.831,271.719 L303.869,271.719 Q303.869,272.288 304.194,273.75 304.438,275.213 304.438,275.944 304.438,282.2 298.913,283.663 296.475,283.825 294.85,283.906Z M335.638,307.469 Q337.831,302.838 339.375,299.344 342.381,292.6 342.381,290.081 342.381,287.969 337.913,283.5 333.444,278.95 333.444,277.569 333.444,273.588 335.394,267.494 337.344,261.319 337.344,258.638 337.344,252.788 337.019,251.081 336.288,246.775 333.444,245.475 M291.6,285.775 L291.356,286.831 Q291.031,288.131 291.031,289.025 291.031,290.488 292.656,291.219 293.875,291.788 295.013,291.788 295.825,291.788 296.8,291.463 298.669,290.813 298.831,290.731 298.506,287.238 296.231,285.775 294.525,284.8 291.356,284.638" test="GarbageCloud"/>
        </g>
      </g>
      <g id="Drawer">
        <path fill="#000" stroke="none" d="M702.662,584.613 Q702.175,585.1 701.769,585.588 L701.769,613.131 Q702.175,613.537 702.662,614.025 708.594,619.956 716.881,620.119 L717.369,620.119 Q725.981,620.119 732.075,614.025 738.169,607.931 738.169,599.319 738.169,590.706 732.075,584.613 725.981,578.519 717.369,578.519 L716.881,578.519 Q708.594,578.681 702.662,584.613 M152.519,497.269 Q147.319,521.156 148.294,547.4 151.381,621.256 150.244,667.975 149.269,713.394 152.519,726.069 253.269,724.688 352.719,728.912 392.044,727.775 418.206,729.156 444.775,730.537 463.219,730.537 470.287,730.537 477.519,730.456 487.675,731.675 497.75,731.512 516.275,730.05 534.637,727.369 553.65,725.012 572.906,727.206 591.35,729.319 609.631,728.831 628.806,728.262 647.819,727.125 670.081,726.719 701.769,726.069 L701.769,620.119 701.769,613.131 701.769,585.588 Q701.688,582.012 701.688,578.519 700.631,523.431 701.769,468.669 L666.669,468.669 666.669,497.269 581.519,494.1 Q356.05,501.494 152.519,497.269Z" test="Drawer" stroke-width="1.625"/>
        <path id="Layer3_0_1_STROKES" stroke="#F60" stroke-width="3.25" stroke-linejoin="round" stroke-linecap="round" fill="none" d="M701.769,613.131 L701.769,620.119 701.769,726.069 Q670.081,726.719 647.819,727.125 628.806,728.262 609.631,728.831 591.35,729.319 572.906,727.206 553.65,725.012 534.637,727.369 516.275,730.05 497.75,731.512 487.675,731.675 477.519,730.456 470.287,730.537 463.219,730.537 444.775,730.537 418.206,729.156 392.044,727.775 352.719,728.912 253.269,724.688 152.519,726.069 149.269,713.394 150.244,667.975 151.381,621.256 148.294,547.4 147.319,521.156 152.519,497.269 356.05,501.494 581.519,494.1 L666.669,497.269 666.669,468.669 701.769,468.669 Q700.631,523.431 701.688,578.519 701.688,582.012 701.769,585.588 702.175,585.1 702.662,584.613 708.594,578.681 716.881,578.519 L717.369,578.519 Q725.981,578.519 732.075,584.613 738.169,590.706 738.169,599.319 738.169,607.931 732.075,614.025 725.981,620.119 717.369,620.119 L716.881,620.119 Q708.594,619.956 702.662,614.025 702.175,613.537 701.769,613.131 L701.769,585.588" test="Drawer"/>
      </g>
      <g id="DrawersCabinetFront">
        <path fill="#000" stroke="none" d="M193.919,887.744 Q194.325,888.15 194.813,888.637 200.744,894.569 209.031,894.731 L209.519,894.731 Q218.131,894.731 224.225,888.637 230.319,882.544 230.319,873.931 230.319,865.319 224.225,859.225 218.131,853.131 209.519,853.131 L209.031,853.131 Q200.744,853.294 194.813,859.225 194.325,859.713 193.919,860.2 L193.919,887.744 M193.919,743.281 L158.819,743.281 158.819,771.881 73.669,768.713 Q-151.8,776.106 -355.331,771.881 -360.531,795.769 -359.556,822.012 -356.469,895.869 -357.606,942.588 -358.581,988.006 -355.331,1000.681 -254.581,999.3 -155.131,1003.525 -115.806,1002.388 -89.644,1003.769 -63.075,1005.15 -44.631,1005.15 -37.562,1005.15 -30.331,1005.069 -20.175,1006.287 -10.1,1006.125 8.425,1004.662 26.787,1001.981 45.8,999.625 65.056,1001.819 83.5,1003.931 101.781,1003.444 120.956,1002.875 139.969,1001.738 162.231,1001.331 193.919,1000.681 L193.919,894.731 193.919,887.744 193.919,860.2 Q193.837,856.625 193.837,853.131 192.781,798.044 193.919,743.281Z" test="DrawersCabinetFront" stroke-width="1.625"/>
        <path id="Layer2_0_1_STROKES" stroke="#F60" stroke-width="3.25" stroke-linejoin="round" stroke-linecap="round" fill="none" d="M193.919,887.744 L193.919,894.731 193.919,1000.681 Q162.231,1001.331 139.969,1001.738 120.956,1002.875 101.781,1003.444 83.5,1003.931 65.056,1001.819 45.8,999.625 26.787,1001.981 8.425,1004.662 -10.1,1006.125 -20.175,1006.287 -30.331,1005.069 -37.562,1005.15 -44.631,1005.15 -63.075,1005.15 -89.644,1003.769 -115.806,1002.388 -155.131,1003.525 -254.581,999.3 -355.331,1000.681 -358.581,988.006 -357.606,942.588 -356.469,895.869 -359.556,822.012 -360.531,795.769 -355.331,771.881 -151.8,776.106 73.669,768.713 L158.819,771.881 158.819,743.281 193.919,743.281 Q192.781,798.044 193.837,853.131 193.837,856.625 193.919,860.2 194.325,859.713 194.813,859.225 200.744,853.294 209.031,853.131 L209.519,853.131 Q218.131,853.131 224.225,859.225 230.319,865.319 230.319,873.931 230.319,882.544 224.225,888.637 218.131,894.731 209.519,894.731 L209.031,894.731 Q200.744,894.569 194.813,888.637 194.325,888.15 193.919,887.744 L193.919,860.2" test="DrawersCabinetFront"/>
        <path fill="#000" stroke="none" d="M117.3,455.656 Q82.361,454.364 48.725,452.406 15.182,450.533 -73.637,450.862 -162.395,451.28 -203.394,451.756 -244.292,452.314 -296.181,451.837 -348.089,451.355 -378.081,455.006 -380.194,472.231 -382.631,610.762 -385.15,754.656 -382.794,783.012 -381.9,794.55 -387.831,898.469 -393.678,1002.386 -389.212,1004.662 -384.672,1006.941 -372.637,1006.044 -368.128,1005.766 -362.887,1005.069 -352.812,1003.769 -342.656,1002.469 -294.963,997.594 -247.187,999.056 -225.026,999.202 -201.525,999.462 -83.469,1000.844 -67.869,1000.844 -53.406,1000.844 52.462,1004.906 53.681,1004.988 54.981,1004.988 58.313,1005.15 61.644,1005.231 66.356,1005.394 70.906,1005.475 156.462,1007.994 158.413,1004.906 160.688,1001.331 160.85,987.194 160.769,967.044 160.769,953.963 160.769,858.819 161.988,825.75 162.556,809.5 160.769,734.262 159.063,658.537 159.631,639.606 160.686,604.597 159.875,530.325 159.147,456.041 155.731,456.469 152.314,456.971 117.3,455.656Z" test="DrawersCabinetFront" stroke-width="1.625"/>
        <path id="Layer1_0_1_STROKES" stroke="#F60" stroke-width="3.25" stroke-linejoin="round" stroke-linecap="round" fill="none" d="M-378.081,455.006 Q-348.089,451.355 -296.181,451.837 -244.292,452.314 -203.353,451.797 -162.395,451.28 -73.597,450.903 15.182,450.533 48.766,452.447 82.361,454.364 117.341,455.656 152.314,456.971 155.731,456.509 159.147,456.041 159.916,530.325 160.686,604.597 159.631,639.606 159.063,658.537 160.769,734.262 162.556,809.5 161.988,825.75 160.769,858.819 160.769,953.963 160.769,967.044 160.85,987.194 160.688,1001.331 158.413,1004.906 156.462,1007.994 70.906,1005.475 66.356,1005.394 61.644,1005.231 58.313,1005.15 54.981,1004.988 53.681,1004.988 52.462,1004.906 -53.406,1000.844 -67.869,1000.844 -83.469,1000.844 -201.525,999.462 -225.026,999.202 -247.187,999.056 -294.963,997.594 -342.656,1002.469 -352.812,1003.769 -362.887,1005.109 -368.128,1005.766 -372.597,1006.084 -384.672,1006.941 -389.172,1004.662 -393.678,1002.386 -387.791,898.469 -381.9,794.55 -382.794,783.012 -385.15,754.656 -382.631,610.762 -380.194,472.231 -378.081,455.006Z" test="DrawersCabinetFront"/>
      </g>
    </g>
  </g>
</svg>