<?xml version="1.0" encoding="utf-8"?>
<svg id="EdithAnim12" image-rendering="inherit" baseProfile="basic" version="1.1" x="0px" y="0px" width="800" height="600" xmlns="http://www.w3.org/2000/svg" xmlns:xlink="http://www.w3.org/1999/xlink">
  <g id="21_GarbageDrawerf160r1" overflow="visible">
    <g id="GarbageDrawerGroupf160r1">
      <g id="Tween-6">
        <path fill="#000" stroke="none" d="M292.531,387.006 Q288.387,384.813 286.275,384.813 276.119,384.813 270.431,397.081 265.719,406.994 265.069,422.188 264.987,422.513 264.906,422.838 264.338,424.625 262.469,426.413 L249.387,426.413 Q249.144,426.494 244.025,426.981 240.288,427.388 238.987,429.338 238.581,429.906 238.5,431.613 238.419,433.563 238.337,433.888 236.387,431.938 226.637,431.938 214.287,431.938 214.287,442.013 214.287,442.906 214.531,445.588 214.694,448.594 214.937,449.488 212.175,449.975 209.412,453.306 205.513,457.856 205.513,464.925 205.513,466.306 206.406,469.881 206.894,471.913 207.787,475.488 208.356,478.006 208.925,478.9 210.631,481.338 214.937,481.988 216.075,482.15 229.725,485.806 247.275,489.788 267.913,492.063 275.713,492.956 327.713,500.756 367.769,506.769 395.313,507.988 423.831,509.288 462.019,512.375 488.75,514.487 512.475,514.487 533.356,514.487 565.206,508.394 598.031,502.219 607.213,495.963 610.706,493.606 614.2,492.631 618.019,491.575 619.887,490.438 626.713,486.05 628.338,483.613 632.806,476.788 633.781,473.863 634.188,472.644 634.188,469.15 634.188,465.494 633.213,462.975 631.75,460.213 630.938,458.588 L630.938,457.938 Q629.963,456.963 629.963,455.663 629.963,455.581 636.625,450.381 643.287,444.369 643.287,440.713 643.287,434.05 641.5,429.663 639.063,423.813 632.888,419.588 629.313,417.15 622.894,415.769 616.719,414.631 615.338,414.063 616.069,412.681 619.563,408.7 622.813,404.394 622.813,399.925 622.813,393.1 617.938,386.763 611.6,378.638 600.713,378.638 593.481,378.638 588.038,380.588 588.688,379.856 589.175,379.044 589.988,377.5 589.988,374.738 589.988,368.156 582.512,362.713 572.762,355.563 554.4,355.563 L544.813,356.7 Q540.831,358.488 538.475,364.175 538.313,364.744 537.988,365.313 538.313,364.744 538.475,364.175 540.181,358.081 528.238,352.719 517.35,347.763 509.225,347.763 499.638,347.763 495.575,350.85 491.513,353.938 490.537,362.063 487.287,358.813 485.419,357.431 482.169,354.913 479.813,354.913 469.981,354.913 464.456,359.3 461.694,361.494 453.487,372.463 L453.487,372.138 Q452.513,365.394 451.862,362.794 450.888,358.406 448.856,356.213 444.063,351.013 425.375,351.013 421.638,351.013 417.819,353.125 414,355.156 410.912,358.813 410.1,358 408.394,354.994 406.362,351.419 406.362,351.338 401.244,343.7 397.912,341.019 394.256,338.013 389.463,338.013 363.869,338.013 349.244,347.275 336.65,355.319 339.088,364.013 335.838,359.95 333.806,357.919 330.231,354.263 326.575,354.263 314.631,354.263 304.638,366.369 294.725,378.313 296.838,389.688 296.188,388.875 292.531,387.006 M350.787,394.969 Q353.225,396.106 356.963,398.463 359.563,399.844 359.888,400.088 360.537,400.494 359.563,400.413 360.537,400.494 359.888,400.088 359.563,399.844 356.963,398.463 353.225,396.106 350.787,394.969 346.4,392.938 341.688,392.938 326.575,392.938 318.287,400.088 326.575,392.938 341.688,392.938 346.4,392.938 350.787,394.969 M408.719,387.331 Q415.3,384.488 422.612,384.488 429.112,384.488 433.987,394.888 433.987,395.538 433.419,396.188 432.769,396.919 432.037,397.163 432.769,396.919 433.419,396.188 433.987,395.538 433.987,394.888 429.112,384.488 422.612,384.488 415.3,384.488 408.719,387.331 401.894,390.338 398.563,395.213 401.894,390.338 408.719,387.331 M523.525,380.913 Q524.094,380.913 527.831,384.975 531.488,389.038 531.488,389.688 531.488,398.056 528.319,402.444 526.206,405.369 523.362,405.938 526.206,405.369 528.319,402.444 531.488,398.056 531.488,389.688 531.488,389.038 527.831,384.975 524.094,380.913 523.525,380.913 503.05,380.913 493.463,389.038 503.05,380.913 523.525,380.913 M594.7,399.681 Q598.113,402.281 598.113,412.275 598.113,422.106 589.744,428.525 583.081,433.644 578.288,433.238 583.081,433.644 589.744,428.525 598.113,422.106 598.113,412.275 598.113,402.281 594.7,399.681 591.45,397.163 578.938,397.488 591.45,397.163 594.7,399.681 M600.387,430.313 Q612.006,430.15 612.981,430.475 617.288,431.775 617.288,440.063 617.288,442.825 614.769,445.425 613.144,446.969 608.838,449.813 607.7,450.544 605.75,452.25 603.963,453.713 603.313,454.038 603.963,453.713 605.75,452.25 607.7,450.544 608.838,449.813 613.144,446.969 614.769,445.425 617.288,442.825 617.288,440.063 617.288,431.775 612.981,430.475 612.006,430.15 600.387,430.313Z" test="Tween 6" stroke-width="1.625"/>
        <path id="Layer5_0_1_STROKES" stroke="#FFF" stroke-width="1.625" stroke-linejoin="round" stroke-linecap="round" fill="none" d="M630.938,458.588 Q631.75,460.213 633.213,462.975 634.188,465.494 634.188,469.15 634.188,472.644 633.781,473.863 632.806,476.788 628.338,483.613 626.713,486.05 619.887,490.438 618.019,491.575 614.2,492.631 610.706,493.606 607.213,495.963 598.031,502.219 565.206,508.394 533.356,514.487 512.475,514.487 488.75,514.487 462.019,512.375 423.831,509.288 395.313,507.988 367.769,506.769 327.713,500.756 275.713,492.956 267.913,492.063 247.275,489.788 229.725,485.806 216.075,482.15 214.937,481.988 210.631,481.338 208.925,478.9 208.356,478.006 207.787,475.488 206.894,471.913 206.406,469.881 205.513,466.306 205.513,464.925 205.513,457.856 209.412,453.306 212.175,449.975 214.937,449.488 214.694,448.594 214.531,445.588 214.287,442.906 214.287,442.013 214.287,431.938 226.637,431.938 236.387,431.938 238.337,433.888 238.419,433.563 238.5,431.613 238.581,429.906 238.987,429.338 240.288,427.388 244.025,426.981 249.144,426.494 249.387,426.413 L262.469,426.413 Q264.338,424.625 264.906,422.838 264.987,422.513 265.069,422.188 265.719,406.994 270.431,397.081 276.119,384.813 286.275,384.813 288.387,384.813 292.531,387.006 296.188,388.875 296.838,389.688 294.725,378.313 304.638,366.369 314.631,354.263 326.575,354.263 330.231,354.263 333.806,357.919 335.838,359.95 339.088,364.013 336.65,355.319 349.244,347.275 363.869,338.013 389.463,338.013 394.256,338.013 397.912,341.019 401.244,343.7 406.362,351.338 406.362,351.419 408.394,354.994 410.1,358 410.912,358.813 414,355.156 417.819,353.125 421.638,351.013 425.375,351.013 444.063,351.013 448.856,356.213 450.888,358.406 451.862,362.794 452.513,365.394 453.487,372.138 L453.487,372.463 Q461.694,361.494 464.456,359.3 469.981,354.913 479.813,354.913 482.169,354.913 485.419,357.431 487.287,358.813 490.537,362.063 491.513,353.938 495.575,350.85 499.638,347.763 509.225,347.763 517.35,347.763 528.238,352.719 540.181,358.081 538.475,364.175 540.831,358.488 544.813,356.7 547.494,355.563 554.4,355.563 572.762,355.563 582.512,362.713 589.988,368.156 589.988,374.738 589.988,377.5 589.175,379.044 588.688,379.856 588.038,380.588 593.481,378.638 600.713,378.638 611.6,378.638 617.938,386.763 622.813,393.1 622.813,399.925 622.813,404.394 619.563,408.7 616.069,412.681 615.338,414.063 616.719,414.631 622.894,415.769 629.313,417.15 632.888,419.588 639.063,423.813 641.5,429.663 643.287,434.05 643.287,440.713 643.287,444.369 636.625,450.381 629.963,455.581 629.963,455.663 629.963,456.963 630.938,457.938 M318.287,400.088 Q326.575,392.938 341.688,392.938 346.4,392.938 350.787,394.969 353.225,396.106 356.963,398.463 359.563,399.844 359.888,400.088 360.537,400.494 359.563,400.413 M398.563,395.213 Q401.894,390.338 408.719,387.331 415.3,384.488 422.612,384.488 429.112,384.488 433.987,394.888 433.987,395.538 433.419,396.188 432.769,396.919 432.037,397.163 M538.475,364.175 Q538.313,364.744 537.988,365.313 M493.463,389.038 Q503.05,380.913 523.525,380.913 524.094,380.913 527.831,384.975 531.488,389.038 531.488,389.688 531.488,398.056 528.319,402.444 526.206,405.369 523.362,405.938 M578.938,397.488 Q591.45,397.163 594.7,399.681 598.113,402.281 598.113,412.275 598.113,422.106 589.744,428.525 583.081,433.644 578.288,433.238 M600.387,430.313 Q612.006,430.15 612.981,430.475 617.288,431.775 617.288,440.063 617.288,442.825 614.769,445.425 613.144,446.969 608.838,449.813 607.7,450.544 605.75,452.25 603.963,453.713 603.313,454.038" test="Tween 6"/>
      </g>
      <g id="Tween-5">
        <g id="Tin-can-Rubbish">
          <path fill="#000" stroke="none" d="M258.781,383.406 Q246.025,398.763 239.769,404.531 224.9,418.263 213.2,418.588 L213.525,420.863 Q213.525,422.406 213.281,423.869 212.956,425.331 212.956,425.819 212.956,426.956 214.581,427.606 215.963,428.094 217.913,428.094 221.813,428.094 230.913,423.625 L231.319,423.625 Q226.931,429.475 226.931,431.181 226.931,435.975 232.7,435.975 236.194,435.975 236.681,435.813 237.169,435.569 239.444,433.863 239.85,432.969 240.256,432.563 L240.256,433.131 Q239.769,433.456 239.444,433.863 238.875,434.756 238.144,436.219 236.356,440.038 236.356,442.8 236.356,447.106 242.613,449.219 248.219,451.088 246.431,457.1 252.281,457.344 253.906,459.538 254.313,460.106 254.719,461.163 L254.719,461.244 Q269.425,455.313 275.763,450.681 281.856,446.131 284.375,439.794 281.856,446.131 275.763,450.681 269.425,455.313 254.719,461.244 255.288,462.869 255.938,465.55 256.669,467.419 260.325,470.263 262.681,472.213 261.462,476.113 L267.069,476.113 Q289.738,466.769 313.869,438.25 337.269,410.706 342.956,388.444 L342.956,383.406 Q339.219,382.594 334.588,383.406 L331.256,383.406 Q332.881,379.669 328.331,377.8 322.075,376.175 319.069,375.119 317.363,374.469 316.225,372.113 315.169,369.106 314.519,367.644 312.081,362.2 305.581,363.906 L305.581,359.438 Q306.719,358.3 306.719,356.675 306.719,354.4 302.25,353.994 297.213,353.913 296.075,353.831 296.075,353.019 296.644,350.988 297.213,349.038 297.213,348.388 297.213,345.381 292.175,344.975 294.45,340.831 290.713,338.556 287.463,337.338 285.431,336.525 287.788,337.988 287.788,341.319 287.788,351.8 279.744,360.981 267.394,373.088 258.781,383.406 M293.15,382.675 Q290.55,387.063 288.925,387.388 290.55,387.063 293.15,382.675 294.775,379.831 299.975,370.65 294.775,379.831 293.15,382.675 M325.325,395.269 Q322.238,399.981 318.5,401.281 322.238,399.981 325.325,395.269 328.494,390.394 330.119,383.406 328.494,390.394 325.325,395.269 M270.969,409.65 Q268.856,413.063 265.281,419.481 262.844,423.95 262.031,424.763 262.844,423.95 265.281,419.481 268.856,413.063 270.969,409.65 M225.713,380.238 Q212.631,396.975 211.169,405.425 210.356,409.569 210.113,411.844 209.706,414.2 209.869,414.688 209.788,414.931 209.706,415.175 209.625,415.825 209.625,416.313 209.625,417.613 210.113,418.019 210.763,418.588 212.631,418.588 212.875,418.588 213.2,418.588 224.9,418.263 239.769,404.531 246.025,398.763 258.781,383.406 267.394,373.088 279.744,360.981 287.788,351.8 287.788,341.319 287.788,337.988 285.431,336.525 284.456,335.956 283.238,335.713 282.019,335.469 280.475,335.469 273.406,335.469 256.1,349.525 238.794,363.5 225.713,380.238Z" test="Tin can Rubbish" stroke-width="1.625"/>
          <path id="Layer8_0_1_STROKES" stroke="#009EFF" stroke-width="1.625" stroke-linejoin="round" stroke-linecap="round" fill="none" d="M210.113,411.844 Q209.706,414.2 209.869,414.688 M285.431,336.525 Q287.463,337.338 290.713,338.556 294.45,340.831 292.175,344.975 297.213,345.381 297.213,348.388 297.213,349.038 296.644,350.988 296.075,353.019 296.075,353.831 297.213,353.913 302.25,353.994 306.719,354.4 306.719,356.675 306.719,358.3 305.581,359.438 L305.581,363.906 Q312.081,362.2 314.519,367.644 315.169,369.106 316.225,372.113 317.363,374.469 319.069,375.119 322.075,376.175 328.331,377.8 332.881,379.669 331.256,383.406 L334.588,383.406 Q339.219,382.594 342.956,383.406 L342.956,388.444 Q337.269,410.706 313.869,438.25 289.738,466.769 267.069,476.113 L261.462,476.113 Q262.681,472.213 260.325,470.263 256.669,467.419 255.938,465.55 255.288,462.869 254.719,461.244 L254.719,461.163 Q254.313,460.106 253.906,459.538 252.281,457.344 246.431,457.1 248.219,451.088 242.613,449.219 236.356,447.106 236.356,442.8 236.356,440.038 238.144,436.219 238.875,434.756 239.444,433.863 237.169,435.569 236.681,435.813 236.194,435.975 232.7,435.975 226.931,435.975 226.931,431.181 226.931,429.475 231.319,423.625 L230.913,423.625 Q221.813,428.094 217.913,428.094 215.963,428.094 214.581,427.606 212.956,426.956 212.956,425.819 212.956,425.331 213.281,423.869 213.525,422.406 213.525,420.863 M299.975,370.65 Q294.775,379.831 293.15,382.675 290.55,387.063 288.925,387.388 M330.119,383.406 Q328.494,390.394 325.325,395.269 322.238,399.981 318.5,401.281 M270.969,409.65 Q268.856,413.063 265.281,419.481 262.844,423.95 262.031,424.763 M239.444,433.863 Q239.769,433.456 240.256,433.131 L240.256,432.563 Q239.85,432.969 239.444,433.863Z M254.719,461.244 Q269.425,455.313 275.763,450.681 281.856,446.131 284.375,439.794" test="Tin can Rubbish"/>
          <path id="Layer8_0_2_STROKES" stroke="#FFF" stroke-width="1.625" stroke-linejoin="round" stroke-linecap="round" fill="none" d="M285.431,336.525 Q284.456,335.956 283.238,335.713 282.019,335.469 280.475,335.469 273.406,335.469 256.1,349.525 238.794,363.5 225.713,380.238 212.631,396.975 211.169,405.425 210.356,409.569 210.113,411.844 M209.869,414.688 Q209.788,414.931 209.706,415.175 209.625,415.825 209.625,416.313 209.625,417.613 210.113,418.019 210.763,418.588 212.631,418.588 212.875,418.588 213.2,418.588 224.9,418.263 239.769,404.531 246.025,398.763 258.781,383.406 267.394,373.088 279.744,360.981 287.788,351.8 287.788,341.319 287.788,337.988 285.431,336.525" test="Tin can Rubbish"/>
        </g>
        <g id="Bottle">
          <path fill="#000" stroke="none" d="M573.731,467.162 Q571.213,466.838 562.275,464.969 554.475,463.263 550.088,463.344 541.963,463.425 530.019,456.519 518.237,449.775 507.269,438.969 499.469,431.25 492.562,419.631 487.037,409.15 486.469,408.338 483.787,404.6 481.675,400.7 478.019,394.2 478.262,391.031 459.819,416.787 438.937,440.431 416.431,465.781 399.775,495.031 384.419,522.006 410.581,540.694 437.8,560.113 468.756,571.325 485.9,577.663 499.631,563.606 523.031,539.637 541.637,511.037 556.262,488.45 573.325,467.65 L573.731,467.162 M525.306,355.85 Q525.144,355.769 524.981,355.769 508.406,355.119 496.381,368.119 486.469,378.844 478.262,391.031 478.019,394.2 481.675,400.7 483.787,404.6 486.469,408.338 487.037,409.15 492.562,419.631 499.469,431.25 507.269,438.969 518.237,449.775 530.019,456.519 541.963,463.425 550.088,463.344 554.475,463.263 562.275,464.969 571.213,466.838 573.731,467.162 591.769,449.694 600.137,426.294 600.463,425.481 600.787,424.669 599.975,424.588 599.65,424.669 597.294,424.75 596.4,424.831 595.181,424.912 593.231,425.4 591.363,425.888 588.519,425.888 581.531,425.888 563.981,414.025 547.162,402.731 537.738,392.412 529.938,383.8 527.744,373.319 526.606,362.431 525.306,355.85 M605.744,360.969 Q595.831,353.088 589.25,337.975 560.569,358.125 525.306,355.85 526.606,362.431 527.744,373.319 529.938,383.8 537.738,392.412 547.162,402.731 563.981,414.025 581.531,425.888 588.519,425.888 591.363,425.888 593.231,425.4 595.181,424.912 596.4,424.831 597.294,424.75 599.65,424.669 599.975,424.588 600.787,424.669 592.581,391.763 619.069,370.638 619.8,370.069 620.531,369.338 608.181,362.919 605.744,360.969 M589.088,336.106 L589.25,337.975 Q595.831,353.088 605.744,360.969 608.181,362.919 620.531,369.338 L625.244,370.15 Q628.819,368.688 633.287,359.912 637.512,351.544 637.512,347.237 637.512,342.037 625.813,329.362 620.206,323.269 615.981,320.1 611.35,316.525 608.506,316.525 603.875,316.525 596.481,325.625 593.637,329.119 589.088,336.106 M612.975,325.219 Q612.488,324.487 612.406,324.406 612.488,324.487 612.975,325.219 614.194,326.925 618.094,332.694 624.838,341.55 630.85,345.531 624.838,341.55 618.094,332.694 614.194,326.925 612.975,325.219Z" test="Bottle" stroke-width="1.625"/>
          <path id="Layer9_0_1_STROKES" stroke="#FFF" stroke-width="1.625" stroke-linejoin="round" stroke-linecap="round" fill="none" d="M589.25,337.975 Q595.831,353.088 605.744,360.969 608.181,362.919 620.531,369.338 M625.244,370.15 Q628.819,368.688 633.287,359.912 637.512,351.544 637.512,347.237 637.512,342.037 625.813,329.362 620.206,323.269 615.981,320.1 611.35,316.525 608.506,316.525 603.875,316.525 596.481,325.625 593.637,329.119 589.088,336.106 M630.85,345.531 Q624.838,341.55 618.094,332.694 614.194,326.925 612.975,325.219 612.488,324.487 612.406,324.406 M478.262,391.031 Q478.019,394.2 481.675,400.7 483.787,404.6 486.469,408.338 487.037,409.15 492.562,419.631 499.469,431.25 507.269,438.969 518.237,449.775 530.019,456.519 541.963,463.425 550.088,463.344 554.475,463.263 562.275,464.969 571.213,466.838 573.731,467.162 M600.787,424.669 Q599.975,424.588 599.65,424.669 597.294,424.75 596.4,424.831 595.181,424.912 593.231,425.4 591.363,425.888 588.519,425.888 581.531,425.888 563.981,414.025 547.162,402.731 537.738,392.412 529.938,383.8 527.744,373.319 526.606,362.431 525.306,355.85 525.144,354.956 524.981,354.144 M573.731,467.162 Q574.056,467.244 574.219,467.244 574.219,467.487 573.325,467.65" test="Bottle"/>
          <path id="Layer9_0_2_STROKES" stroke="#0F0" stroke-width="1.625" stroke-linejoin="round" stroke-linecap="round" fill="none" d="M525.306,355.85 Q525.144,355.769 524.981,355.769 508.406,355.119 496.381,368.119 486.469,378.844 478.262,391.031 M573.731,467.162 Q591.769,449.694 600.137,426.294 600.463,425.481 600.787,424.669 592.581,391.763 619.069,370.638 619.8,370.069 620.531,369.338 M589.25,337.975 Q560.569,358.125 525.306,355.85 M573.325,467.65 Q556.262,488.45 541.637,511.037 523.031,539.637 499.631,563.606 485.9,577.663 468.756,571.325 437.8,560.113 410.581,540.694 384.419,522.006 399.775,495.031 416.431,465.781 438.937,440.431 459.819,416.787 478.262,391.031 M573.325,467.65 L573.731,467.162" test="Bottle"/>
        </g>
        <g id="Banana">
          <path fill="#000" stroke="none" d="M400.038,291.156 L399.225,291.969 Q393.863,299.769 387.363,312.038 382.325,321.381 379.806,323.819 371.438,331.7 360.956,338.281 350.394,344.456 346.25,347.219 326.75,360.138 309.444,387.275 292.3,414.006 293.763,428.144 L293.763,435.131 Q293.925,435.375 294.819,435.375 297.906,435.375 300.588,430.581 302.05,427.9 304.325,422.538 305.219,420.913 309.038,415.713 310.988,413.031 311.231,412.544 320.331,410.025 334.55,400.519 350.881,389.713 357.95,379.556 365.1,369.319 381.188,356.806 396.706,344.7 397.519,343.4 L398.088,343.4 398.088,346.65 Q393.863,364.85 373.794,399.056 363.313,416.85 360.794,421.806 354.944,432.856 354.619,438.219 355.106,438.219 356.731,438.544 358.275,438.788 359.006,438.788 365.263,438.788 382.894,422.213 401.256,404.988 409.381,390.2 411.088,387.031 413.119,374.681 415.313,361.438 415.963,359.488 418.075,353.8 418.563,352.094 419.213,349.494 420.431,345.106 426.606,354.775 434.325,363.55 439.688,369.806 460.569,393.531 469.994,404.581 474.544,428.063 477.306,442.363 477.306,451.544 484.456,451.625 488.681,442.2 492.419,433.669 492.419,420.913 492.419,408.806 488.194,398.813 486.081,393.856 478.363,381.506 471.131,369.888 467.475,360.3 461.95,345.756 450.981,336.738 439.931,327.638 435.95,318.7 431.888,309.763 428.231,302.531 424.575,295.219 425.713,293.188 L424.413,291.725 Q422.138,293.756 418.481,295.056 414.338,296.438 410.438,296.438 408.569,296.438 404.263,294.244 400.769,292.456 400.038,291.156 M419.294,250.125 Q412.225,248.013 410.031,255.244 409.381,257.519 408.813,267.431 408.163,277.1 403.856,282.381 399.794,287.5 399.794,290.506 399.794,290.831 400.038,291.156 400.769,292.456 404.263,294.244 408.569,296.438 410.438,296.438 414.338,296.438 418.481,295.056 422.138,293.756 424.413,291.725 425.713,290.588 426.525,289.206 426.038,288.881 425.55,288.638 423.681,287.419 422.381,286.444 419.538,284.494 418.644,283.519 417.1,281.731 417.1,270.763 417.1,263.45 419.294,250.125Z" test="Banana" stroke-width="1.625"/>
          <path id="Layer10_0_1_STROKES" stroke="#FF0" stroke-width="1.625" stroke-linejoin="round" stroke-linecap="round" fill="none" d="M425.713,293.188 Q424.575,295.219 428.231,302.531 431.888,309.763 435.95,318.7 439.931,327.638 450.981,336.738 461.95,345.756 467.475,360.3 471.131,369.888 478.363,381.506 486.081,393.856 488.194,398.813 492.419,408.806 492.419,420.913 492.419,433.669 488.681,442.2 484.456,451.625 477.306,451.544 477.306,442.363 474.544,428.063 469.994,404.581 460.569,393.531 439.688,369.806 434.325,363.55 426.606,354.775 420.431,345.106 419.213,349.494 418.563,352.094 418.075,353.8 415.963,359.488 415.313,361.438 413.119,374.681 411.088,387.031 409.381,390.2 401.256,404.988 382.894,422.213 365.263,438.788 359.006,438.788 358.275,438.788 356.731,438.544 355.106,438.219 354.619,438.219 354.944,432.856 360.794,421.806 363.313,416.85 373.794,399.056 393.863,364.85 398.088,346.65 L398.088,343.4 397.519,343.4 Q396.706,344.7 381.188,356.806 365.1,369.319 357.95,379.556 350.881,389.713 334.55,400.519 320.331,410.025 311.231,412.544 310.988,413.031 309.038,415.713 305.219,420.913 304.325,422.538 302.05,427.9 300.588,430.581 297.906,435.375 294.819,435.375 293.925,435.375 293.763,435.131 L293.763,428.144 Q292.3,414.006 309.444,387.275 326.75,360.138 346.25,347.219 350.394,344.456 360.956,338.281 371.438,331.7 379.806,323.819 382.325,321.381 387.363,312.038 393.863,299.769 399.225,291.969" test="Banana"/>
          <path id="Layer10_0_2_STROKES" stroke="#FFF" stroke-width="1.625" stroke-linejoin="round" stroke-linecap="round" fill="none" d="M400.038,291.156 Q399.794,290.831 399.794,290.506 399.794,287.5 403.856,282.381 408.163,277.1 408.813,267.431 409.381,257.519 410.031,255.244 412.225,248.013 419.294,250.125 417.1,263.45 417.1,270.763 417.1,281.731 418.644,283.519 419.538,284.494 422.381,286.444 423.681,287.419 425.55,288.638 426.038,288.881 426.525,289.206 425.713,290.588 424.413,291.725 M400.038,291.156 Q400.769,292.456 404.263,294.244 408.569,296.438 410.438,296.438 414.338,296.438 418.481,295.056 422.138,293.756 424.413,291.725" test="Banana"/>
        </g>
      </g>
      <g id="Tween-4">
        <path id="Layer4_0_1_STROKES" stroke="#FFF" stroke-width="1.625" stroke-linejoin="round" stroke-linecap="round" fill="none" d="M546.1,450.288 Q546.1,443.95 555.606,438.994" test="Tween 4"/>
        <g id="Garbage">
          <path fill="#000" stroke="none" d="M438.281,412.169 L436.169,410.95 Q436.006,411.275 435.519,412.169 436.006,411.275 436.169,410.95 436.169,410.788 436.169,410.706 436.169,405.75 433.325,403.8 429.425,400.956 418.294,400.956 406.513,400.956 382.056,413.306 379.213,414.688 374.581,423.463 373.85,424.925 372.956,426.144 372.306,418.913 363.613,413.875 355,408.756 344.356,408.756 332.25,408.756 322.906,414.363 311.125,421.431 311.125,434.675 311.125,435.325 311.206,435.894 305.519,430.531 292.194,430.531 280.981,430.531 274.075,434.025 266.763,437.763 260.344,447.269 255.306,454.663 254.575,460.35 254.169,463.356 254.737,466.769 251.813,460.025 249.375,456.856 245.069,451.169 235.237,451.169 225.975,451.169 219.638,456.775 213.463,462.381 213.463,470.425 213.463,471.888 214.356,483.75 212,487.975 210.619,492.525 208.425,501.544 208.425,509.994 208.425,517.713 214.031,522.588 219.15,527.056 225.731,527.056 228.169,527.056 236.538,525.675 244.825,524.294 250.269,524.294 256.769,524.294 273.263,529.006 289.675,533.719 306.656,533.719 311.613,533.719 351.263,530.144 396.925,526.488 431.7,526.488 439.5,526.406 445.431,526.488 L465.5,527.544 466.313,527.138 Q467.206,526.813 467.938,526.731 472.731,526.488 476.956,524.131 480.125,523.156 482.156,522.263 494.831,516.737 497.513,516.494 L498.081,516.494 Q498.081,516.25 536.025,526.894 577.706,537.7 594.688,537.7 614.188,537.7 623.613,527.706 628.406,522.75 629.219,517.55 629.219,514.95 629.056,514.706 628.975,514.544 628.813,514.381 628.163,513.813 626.456,513.65 628.163,513.813 628.813,514.381 L629.219,513.65 Q631.819,512.025 640.106,509.019 647.094,505.363 647.094,498.619 647.094,494.394 642.056,493.013 L642.625,493.013 Q645.225,490.494 652.05,485.131 657.656,479.931 657.656,474.569 657.656,470.019 654.894,464.575 651.4,457.831 646.281,457.831 637.831,459.863 634.825,460.106 638.725,456.775 638.725,455.069 638.563,452.306 637.019,449.706 634.094,444.588 627.513,444.588 614.594,444.588 609.15,446.456 603.788,448.325 595.175,455.638 593.388,446.375 587.294,440.444 580.956,434.431 572.588,434.431 564.138,434.431 555.606,438.981 L546.1,450.275 Q546.1,451.738 547.156,460.675 546.425,460.269 544.638,459.863 542.931,459.538 541.875,459.538 537.975,459.538 533.344,464.006 531.638,465.713 529.363,469.613 527.25,473.35 526.519,475.706 526.356,476.438 526.194,477.25 525.463,480.175 523.025,482.125 522.294,482.694 521.4,483.019 521.075,482.775 520.831,482.531 516.281,478.063 515.063,471.888 514.413,469.938 513.112,467.825 510.756,463.844 507.019,460.106 515.956,461.081 523.594,458.238 532.125,455.069 533.181,448.406 533.344,447.431 533.344,446.375 533.344,442.15 532.613,439.875 531.069,434.919 525.95,430.531 520.588,425.9 514.819,424.763 512.95,424.356 507.588,424.356 507.669,424.194 512.138,416.313 512.544,415.581 512.869,414.85 L513.6,413.875 Q514.006,413.306 514.088,412.9 514.737,409.569 513.763,406.319 513.194,404.775 510.919,399.981 508.319,394.619 505.15,392.344 497.675,386.981 479.313,386.981 460.056,386.981 443.481,405.669 440.881,408.594 438.281,412.169 M481.75,450.031 Q481.425,450.844 480.775,452.144 481.425,450.844 481.75,450.031 482.4,448.569 482.4,447.431 482.4,440.769 476.55,440.769 473.625,440.769 470.7,441.581 464.85,443.288 464.525,447.594 464.85,443.288 470.7,441.581 473.625,440.769 476.55,440.769 482.4,440.769 482.4,447.431 482.4,448.569 481.75,450.031 M601.675,481.069 Q605.9,483.831 605.9,488.219 605.9,483.831 601.675,481.069 598.181,478.794 594.363,478.794 589,478.794 585.994,480.663 582.825,482.531 582.825,485.944 582.825,482.531 585.994,480.663 589,478.794 594.363,478.794 598.181,478.794 601.675,481.069 M350.45,455.638 Q355.163,458.156 356.3,461.244 355.163,458.156 350.45,455.638 346.063,453.363 342.65,453.363 338.263,453.363 335.094,456.206 330.706,460.269 330.706,469.044 330.706,470.344 330.95,471.075 331.438,472.375 332.9,474.569 331.438,472.375 330.95,471.075 330.706,470.344 330.706,469.044 330.706,460.269 335.094,456.206 338.263,453.363 342.65,453.363 346.063,453.363 350.45,455.638 M416.588,448.406 Q417.725,450.356 417.725,455.394 417.725,464.494 410.575,470.75 402.856,477.413 390.913,476.844 402.856,477.413 410.575,470.75 417.725,464.494 417.725,455.394 417.725,450.356 416.588,448.406 415.288,446.131 411.631,446.131 410.9,446.131 409.844,446.456 408.3,446.944 406.594,447.269 408.3,446.944 409.844,446.456 410.9,446.131 411.631,446.131 415.288,446.131 416.588,448.406Z" test="Garbage" stroke-width="1.625"/>
          <path id="Layer6_0_1_STROKES" stroke="#FFF" stroke-width="1.625" stroke-linejoin="round" stroke-linecap="round" fill="none" d="M436.169,410.95 Q436.006,411.275 435.519,412.169 M628.813,514.381 Q628.975,514.544 629.056,514.706 629.219,514.95 629.219,517.55 628.406,522.75 623.613,527.706 614.188,537.7 594.688,537.7 577.706,537.7 536.025,526.894 498.081,516.25 498.081,516.494 L497.513,516.494 Q494.831,516.737 482.156,522.263 480.125,523.156 476.956,524.131 472.731,526.488 467.938,526.731 467.206,526.813 466.313,527.138 L465.5,527.544 445.431,526.488 Q439.5,526.406 431.7,526.488 396.925,526.488 351.263,530.144 311.613,533.719 306.656,533.719 289.675,533.719 273.263,529.006 256.769,524.294 250.269,524.294 244.825,524.294 236.538,525.675 228.169,527.056 225.731,527.056 219.15,527.056 214.031,522.588 208.425,517.713 208.425,509.994 208.425,501.544 210.619,492.525 212,487.975 214.356,483.75 213.463,471.888 213.463,470.425 213.463,462.381 219.638,456.775 225.975,451.169 235.237,451.169 245.069,451.169 249.375,456.856 251.813,460.025 254.737,466.769 254.169,463.356 254.575,460.35 255.306,454.663 260.344,447.269 266.763,437.763 274.075,434.025 280.981,430.531 292.194,430.531 305.519,430.531 311.206,435.894 311.125,435.325 311.125,434.675 311.125,421.431 322.906,414.363 332.25,408.756 344.356,408.756 355,408.756 363.613,413.875 372.306,418.913 372.956,426.144 373.85,424.925 374.581,423.463 379.213,414.688 382.056,413.306 406.513,400.956 418.294,400.956 429.425,400.956 433.325,403.8 436.169,405.75 436.169,410.706 436.169,410.788 436.169,410.95 M438.281,412.169 Q440.881,408.594 443.481,405.669 460.056,386.981 479.313,386.981 497.675,386.981 505.15,392.344 508.319,394.619 510.919,399.981 513.194,404.775 513.763,406.319 514.737,409.569 514.088,412.9 514.006,413.306 513.6,413.875 L512.869,414.85 Q512.544,415.581 512.138,416.313 507.669,424.194 507.588,424.356 512.95,424.356 514.819,424.763 520.588,425.9 525.95,430.531 531.069,434.919 532.613,439.875 533.344,442.15 533.344,446.375 533.344,447.431 533.181,448.406 532.125,455.069 523.594,458.238 515.956,461.081 507.019,460.106 510.756,463.844 513.112,467.825 514.413,469.938 515.063,471.888 516.281,478.063 520.831,482.531 521.075,482.775 521.4,483.019 522.294,482.694 523.025,482.125 525.463,480.175 526.194,477.25 526.356,476.438 526.519,475.706 527.25,473.35 529.363,469.613 531.638,465.713 533.344,464.006 537.975,459.538 541.875,459.538 542.931,459.538 544.638,459.863 546.425,460.269 547.156,460.675 546.1,451.738 546.1,450.275 M555.606,438.981 Q564.138,434.431 572.588,434.431 580.956,434.431 587.294,440.444 593.388,446.375 595.175,455.638 603.788,448.325 609.15,446.456 614.594,444.588 627.513,444.588 634.094,444.588 637.019,449.706 638.563,452.306 638.725,455.069 638.725,456.775 634.825,460.106 637.831,459.863 646.281,457.831 651.4,457.831 654.894,464.575 657.656,470.019 657.656,474.569 657.656,479.931 652.05,485.131 645.225,490.494 642.625,493.013 L642.056,493.013 Q647.094,494.394 647.094,498.619 647.094,505.363 640.106,509.019 631.819,512.025 629.219,513.65 M626.456,513.65 Q628.163,513.813 628.813,514.381 M464.525,447.594 Q464.85,443.288 470.7,441.581 473.625,440.769 476.55,440.769 482.4,440.769 482.4,447.431 482.4,448.569 481.75,450.031 481.425,450.844 480.775,452.144 M582.825,485.944 Q582.825,482.531 585.994,480.663 589,478.794 594.363,478.794 598.181,478.794 601.675,481.069 605.9,483.831 605.9,488.219 M332.9,474.569 Q331.438,472.375 330.95,471.075 330.706,470.344 330.706,469.044 330.706,460.269 335.094,456.206 338.263,453.363 342.65,453.363 346.063,453.363 350.45,455.638 355.163,458.156 356.3,461.244 M406.594,447.269 Q408.3,446.944 409.844,446.456 410.9,446.131 411.631,446.131 415.288,446.131 416.588,448.406 417.725,450.356 417.725,455.394 417.725,464.494 410.575,470.75 402.856,477.413 390.913,476.844" test="Garbage"/>
        </g>
        <g id="GarbageCloud">
          <path id="Layer7_0_1_STROKES" stroke="#FFF" stroke-width="1.625" stroke-linejoin="round" stroke-linecap="round" fill="none" d="M477.988,334.006 Q480.425,332.706 480.913,331.975 481.888,330.594 481.888,326.775 481.888,321.981 477.744,314.831 473.6,307.681 473.6,301.263 473.6,296.063 479.694,285.988 485.788,275.913 485.788,271.444 485.788,268.844 483.513,265.838 483.188,265.431 480.181,262.019 M574.188,308.331 Q575.163,306.219 579.063,302.725 584.263,297.931 588.488,297.688 589.625,299.963 589.625,302.156 589.625,302.725 584.019,308.331 L574.188,308.331 Q574.025,308.656 573.781,309.388 574.35,309.631 574.919,310.038 577.275,311.581 577.275,313.288 577.275,315.075 576.788,315.563 576.219,316.131 574.269,316.131 572.481,316.131 571.181,315.075 570.044,314.019 570.044,312.719 570.044,311.744 570.45,311.094 566.713,311.094 564.438,310.525 558.913,309.306 558.913,305.488 558.913,302.644 559.969,300.531 561.431,297.688 564.194,297.688 568.094,297.688 570.531,301.181 572.156,303.619 573.375,308.331 L574.188,308.331Z M570.45,311.094 L570.531,311.094 Q571.669,311.094 571.994,311.013 572.4,310.931 572.806,310.525 L572.806,309.388 Q571.75,309.794 571.181,310.2 570.694,310.525 570.45,311.094Z M573.781,309.388 Q572.075,308.575 570.613,308.9 M291.356,294.438 Q291.6,293.625 291.925,292.813 287.131,292.975 282.5,296.225 278.438,298.906 277.056,301.588 L277.056,307.194 282.094,307.194 Q289.731,301.425 290.788,296.55 291.031,295.494 291.356,294.438 290.95,294.438 290.463,294.438 M297.125,295.575 Q295.744,294.356 294.85,293.706 292.656,293.788 292.169,293.869 M294.85,293.706 Q294.119,293.138 293.713,292.894 293.469,292.731 292.738,292.731 292.331,292.731 291.925,292.813 294.038,287.45 298.831,281.519 L303.869,281.519 Q303.869,282.088 304.194,283.55 304.438,285.013 304.438,285.744 304.438,292 298.913,293.463 296.475,293.625 294.85,293.706Z M335.638,317.269 Q337.831,312.638 339.375,309.144 342.381,302.4 342.381,299.881 342.381,297.769 337.913,293.3 333.444,288.75 333.444,287.369 333.444,283.388 335.394,277.294 337.344,271.119 337.344,268.438 337.344,262.588 337.019,260.881 336.288,256.575 333.444,255.275 M291.6,295.575 L291.356,296.631 Q291.031,297.931 291.031,298.825 291.031,300.288 292.656,301.019 293.875,301.588 295.013,301.588 295.825,301.588 296.8,301.263 298.669,300.613 298.831,300.531 298.506,297.038 296.231,295.575 294.525,294.6 291.356,294.438" test="GarbageCloud"/>
        </g>
      </g>
      <g id="Drawer">
        <path fill="#000" stroke="none" d="M702.662,596.163 Q702.175,596.65 701.769,597.138 L701.769,624.681 Q702.175,625.088 702.662,625.575 708.594,631.506 716.881,631.669 L717.369,631.669 Q725.981,631.669 732.075,625.575 738.169,619.481 738.169,610.869 738.169,602.256 732.075,596.163 725.981,590.069 717.369,590.069 L716.881,590.069 Q708.594,590.231 702.662,596.163 M152.519,508.819 Q147.319,532.706 148.294,558.95 151.381,632.806 150.244,679.525 149.269,724.944 152.519,737.619 253.269,736.238 352.719,740.463 392.044,739.325 418.206,740.706 444.775,742.088 463.219,742.088 470.287,742.088 477.519,742.006 487.675,743.225 497.75,743.063 516.275,741.6 534.637,738.919 553.65,736.563 572.906,738.756 591.35,740.869 609.631,740.381 628.806,739.813 647.819,738.675 670.081,738.269 701.769,737.619 L701.769,631.669 701.769,624.681 701.769,597.138 Q701.688,593.563 701.688,590.069 700.631,534.981 701.769,480.219 L666.669,480.219 666.669,508.819 581.519,505.65 Q356.05,513.044 152.519,508.819Z" test="Drawer" stroke-width="1.625"/>
        <path id="Layer3_0_1_STROKES" stroke="#F60" stroke-width="3.25" stroke-linejoin="round" stroke-linecap="round" fill="none" d="M701.769,624.681 L701.769,631.669 701.769,737.619 Q670.081,738.269 647.819,738.675 628.806,739.813 609.631,740.381 591.35,740.869 572.906,738.756 553.65,736.563 534.637,738.919 516.275,741.6 497.75,743.063 487.675,743.225 477.519,742.006 470.287,742.088 463.219,742.088 444.775,742.088 418.206,740.706 392.044,739.325 352.719,740.463 253.269,736.238 152.519,737.619 149.269,724.944 150.244,679.525 151.381,632.806 148.294,558.95 147.319,532.706 152.519,508.819 356.05,513.044 581.519,505.65 L666.669,508.819 666.669,480.219 701.769,480.219 Q700.631,534.981 701.688,590.069 701.688,593.563 701.769,597.138 702.175,596.65 702.662,596.163 708.594,590.231 716.881,590.069 L717.369,590.069 Q725.981,590.069 732.075,596.163 738.169,602.256 738.169,610.869 738.169,619.481 732.075,625.575 725.981,631.669 717.369,631.669 L716.881,631.669 Q708.594,631.506 702.662,625.575 702.175,625.088 701.769,624.681 L701.769,597.138" test="Drawer"/>
      </g>
      <g id="DrawersCabinetFront">
        <path fill="#000" stroke="none" d="M193.919,899.294 Q194.325,899.7 194.813,900.188 200.744,906.119 209.031,906.281 L209.519,906.281 Q218.131,906.281 224.225,900.188 230.319,894.094 230.319,885.481 230.319,876.869 224.225,870.775 218.131,864.681 209.519,864.681 L209.031,864.681 Q200.744,864.844 194.813,870.775 194.325,871.263 193.919,871.75 L193.919,899.294 M193.919,754.831 L158.819,754.831 158.819,783.431 73.669,780.263 Q-151.8,787.656 -355.331,783.431 -360.531,807.319 -359.556,833.563 -356.469,907.419 -357.606,954.138 -358.581,999.556 -355.331,1012.231 -254.581,1010.85 -155.131,1015.075 -115.806,1013.938 -89.644,1015.319 -63.075,1016.7 -44.631,1016.7 -37.562,1016.7 -30.331,1016.619 -20.175,1017.838 -10.1,1017.675 8.425,1016.213 26.787,1013.531 45.8,1011.175 65.056,1013.369 83.5,1015.481 101.781,1014.994 120.956,1014.425 139.969,1013.288 162.231,1012.881 193.919,1012.231 L193.919,906.281 193.919,899.294 193.919,871.75 Q193.837,868.175 193.837,864.681 192.781,809.594 193.919,754.831Z" test="DrawersCabinetFront" stroke-width="1.625"/>
        <path id="Layer2_0_1_STROKES" stroke="#F60" stroke-width="3.25" stroke-linejoin="round" stroke-linecap="round" fill="none" d="M193.919,899.294 L193.919,906.281 193.919,1012.231 Q162.231,1012.881 139.969,1013.288 120.956,1014.425 101.781,1014.994 83.5,1015.481 65.056,1013.369 45.8,1011.175 26.787,1013.531 8.425,1016.213 -10.1,1017.675 -20.175,1017.838 -30.331,1016.619 -37.562,1016.7 -44.631,1016.7 -63.075,1016.7 -89.644,1015.319 -115.806,1013.938 -155.131,1015.075 -254.581,1010.85 -355.331,1012.231 -358.581,999.556 -357.606,954.138 -356.469,907.419 -359.556,833.563 -360.531,807.319 -355.331,783.431 -151.8,787.656 73.669,780.263 L158.819,783.431 158.819,754.831 193.919,754.831 Q192.781,809.594 193.837,864.681 193.837,868.175 193.919,871.75 194.325,871.263 194.813,870.775 200.744,864.844 209.031,864.681 L209.519,864.681 Q218.131,864.681 224.225,870.775 230.319,876.869 230.319,885.481 230.319,894.094 224.225,900.188 218.131,906.281 209.519,906.281 L209.031,906.281 Q200.744,906.119 194.813,900.188 194.325,899.7 193.919,899.294 L193.919,871.75" test="DrawersCabinetFront"/>
        <path fill="#000" stroke="none" d="M117.3,467.206 Q82.361,465.914 48.725,463.956 15.182,462.083 -73.637,462.413 -162.395,462.83 -203.394,463.306 -244.292,463.864 -296.181,463.388 -348.089,462.905 -378.081,466.556 -380.194,483.781 -382.631,622.313 -385.15,766.206 -382.794,794.563 -381.9,806.1 -387.831,910.019 -393.678,1013.936 -389.212,1016.213 -384.672,1018.491 -372.637,1017.594 -368.128,1017.316 -362.887,1016.619 -352.812,1015.319 -342.656,1014.019 -294.963,1009.144 -247.187,1010.606 -225.026,1010.753 -201.525,1011.013 -83.469,1012.394 -67.869,1012.394 -53.406,1012.394 52.462,1016.456 53.681,1016.538 54.981,1016.538 58.313,1016.7 61.644,1016.781 66.356,1016.944 70.906,1017.025 156.462,1019.544 158.413,1016.456 160.688,1012.881 160.85,998.744 160.769,978.594 160.769,965.513 160.769,870.369 161.988,837.3 162.556,821.05 160.769,745.813 159.063,670.088 159.631,651.156 160.686,616.147 159.875,541.875 159.147,467.591 155.731,468.019 152.314,468.521 117.3,467.206Z" test="DrawersCabinetFront" stroke-width="1.625"/>
        <path id="Layer1_0_1_STROKES" stroke="#F60" stroke-width="3.25" stroke-linejoin="round" stroke-linecap="round" fill="none" d="M-378.081,466.556 Q-348.089,462.905 -296.181,463.388 -244.292,463.864 -203.353,463.347 -162.395,462.83 -73.597,462.453 15.182,462.083 48.766,463.997 82.361,465.914 117.341,467.206 152.314,468.521 155.731,468.059 159.147,467.591 159.916,541.875 160.686,616.147 159.631,651.156 159.063,670.088 160.769,745.813 162.556,821.05 161.988,837.3 160.769,870.369 160.769,965.513 160.769,978.594 160.85,998.744 160.688,1012.881 158.413,1016.456 156.462,1019.544 70.906,1017.025 66.356,1016.944 61.644,1016.781 58.313,1016.7 54.981,1016.538 53.681,1016.538 52.462,1016.456 -53.406,1012.394 -67.869,1012.394 -83.469,1012.394 -201.525,1011.013 -225.026,1010.753 -247.187,1010.606 -294.963,1009.144 -342.656,1014.019 -352.812,1015.319 -362.887,1016.659 -368.128,1017.316 -372.597,1017.634 -384.672,1018.491 -389.172,1016.213 -393.678,1013.936 -387.791,910.019 -381.9,806.1 -382.794,794.563 -385.15,766.206 -382.631,622.313 -380.194,483.781 -378.081,466.556Z" test="DrawersCabinetFront"/>
      </g>
    </g>
  </g>
</svg>