<?xml version="1.0" encoding="utf-8"?>
<svg id="EdithAnim12" image-rendering="inherit" baseProfile="basic" version="1.1" x="0px" y="0px" width="800" height="600" xmlns="http://www.w3.org/2000/svg" xmlns:xlink="http://www.w3.org/1999/xlink">
  <g id="21_GarbageDrawerf161r1" overflow="visible">
    <g id="GarbageDrawerGroupf161r1">
      <g id="Tween-6">
        <path fill="#000" stroke="none" d="M292.531,395.606 Q288.387,393.413 286.275,393.413 276.119,393.413 270.431,405.681 265.719,415.594 265.069,430.788 264.987,431.113 264.906,431.438 264.338,433.225 262.469,435.013 L249.387,435.013 Q249.144,435.094 244.025,435.581 240.288,435.988 238.987,437.938 238.581,438.506 238.5,440.213 238.419,442.163 238.337,442.488 236.387,440.538 226.637,440.538 214.287,440.538 214.287,450.613 214.287,451.506 214.531,454.188 214.694,457.194 214.937,458.088 212.175,458.575 209.412,461.906 205.513,466.456 205.513,473.525 205.513,474.906 206.406,478.481 206.894,480.513 207.787,484.088 208.356,486.606 208.925,487.5 210.631,489.938 214.937,490.588 216.075,490.75 229.725,494.406 247.275,498.388 267.913,500.663 275.713,501.556 327.713,509.356 367.769,515.369 395.313,516.588 423.831,517.888 462.019,520.975 488.75,523.088 512.475,523.088 533.356,523.088 565.206,516.994 598.031,510.819 607.213,504.563 610.706,502.206 614.2,501.231 618.019,500.175 619.887,499.038 626.713,494.65 628.338,492.213 632.806,485.388 633.781,482.463 634.188,481.244 634.188,477.75 634.188,474.094 633.213,471.575 631.75,468.813 630.938,467.188 L630.938,466.538 Q629.963,465.563 629.963,464.263 629.963,464.181 636.625,458.981 643.287,452.969 643.287,449.313 643.287,442.65 641.5,438.263 639.063,432.413 632.888,428.188 629.313,425.75 622.894,424.369 616.719,423.231 615.338,422.663 616.069,421.281 619.563,417.3 622.813,412.994 622.813,408.525 622.813,401.7 617.938,395.363 611.6,387.238 600.713,387.238 593.481,387.238 588.038,389.188 588.688,388.456 589.175,387.644 589.988,386.1 589.988,383.338 589.988,376.756 582.512,371.313 572.762,364.163 554.4,364.163 L544.813,365.3 Q540.831,367.088 538.475,372.775 538.313,373.344 537.988,373.913 538.313,373.344 538.475,372.775 540.181,366.681 528.238,361.319 517.35,356.363 509.225,356.363 499.638,356.363 495.575,359.45 491.513,362.538 490.537,370.663 487.287,367.413 485.419,366.031 482.169,363.513 479.813,363.513 469.981,363.513 464.456,367.9 461.694,370.094 453.487,381.063 L453.487,380.738 Q452.513,373.994 451.862,371.394 450.888,367.006 448.856,364.813 444.063,359.613 425.375,359.613 421.638,359.613 417.819,361.725 414,363.756 410.912,367.413 410.1,366.6 408.394,363.594 406.362,360.019 406.362,359.938 401.244,352.3 397.912,349.619 394.256,346.613 389.463,346.613 363.869,346.613 349.244,355.875 336.65,363.919 339.088,372.613 335.838,368.55 333.806,366.519 330.231,362.863 326.575,362.863 314.631,362.863 304.638,374.969 294.725,386.913 296.838,398.288 296.188,397.475 292.531,395.606 M350.787,403.569 Q353.225,404.706 356.963,407.063 359.563,408.444 359.888,408.688 360.537,409.094 359.563,409.013 360.537,409.094 359.888,408.688 359.563,408.444 356.963,407.063 353.225,404.706 350.787,403.569 346.4,401.538 341.688,401.538 326.575,401.538 318.287,408.688 326.575,401.538 341.688,401.538 346.4,401.538 350.787,403.569 M408.719,395.931 Q415.3,393.088 422.612,393.088 429.112,393.088 433.987,403.488 433.987,404.138 433.419,404.788 432.769,405.519 432.037,405.763 432.769,405.519 433.419,404.788 433.987,404.138 433.987,403.488 429.112,393.088 422.612,393.088 415.3,393.088 408.719,395.931 401.894,398.938 398.563,403.813 401.894,398.938 408.719,395.931 M523.525,389.513 Q524.094,389.513 527.831,393.575 531.488,397.638 531.488,398.288 531.488,406.656 528.319,411.044 526.206,413.969 523.362,414.538 526.206,413.969 528.319,411.044 531.488,406.656 531.488,398.288 531.488,397.638 527.831,393.575 524.094,389.513 523.525,389.513 503.05,389.513 493.463,397.638 503.05,389.513 523.525,389.513 M594.7,408.281 Q598.113,410.881 598.113,420.875 598.113,430.706 589.744,437.125 583.081,442.244 578.288,441.838 583.081,442.244 589.744,437.125 598.113,430.706 598.113,420.875 598.113,410.881 594.7,408.281 591.45,405.763 578.938,406.088 591.45,405.763 594.7,408.281 M600.387,438.913 Q612.006,438.75 612.981,439.075 617.288,440.375 617.288,448.663 617.288,451.425 614.769,454.025 613.144,455.569 608.838,458.413 607.7,459.144 605.75,460.85 603.963,462.313 603.313,462.638 603.963,462.313 605.75,460.85 607.7,459.144 608.838,458.413 613.144,455.569 614.769,454.025 617.288,451.425 617.288,448.663 617.288,440.375 612.981,439.075 612.006,438.75 600.387,438.913Z" test="Tween 6" stroke-width="1.625"/>
        <path id="Layer5_0_1_STROKES" stroke="#FFF" stroke-width="1.625" stroke-linejoin="round" stroke-linecap="round" fill="none" d="M630.938,467.188 Q631.75,468.813 633.213,471.575 634.188,474.094 634.188,477.75 634.188,481.244 633.781,482.463 632.806,485.388 628.338,492.213 626.713,494.65 619.887,499.038 618.019,500.175 614.2,501.231 610.706,502.206 607.213,504.563 598.031,510.819 565.206,516.994 533.356,523.088 512.475,523.088 488.75,523.088 462.019,520.975 423.831,517.888 395.313,516.588 367.769,515.369 327.713,509.356 275.713,501.556 267.913,500.663 247.275,498.388 229.725,494.406 216.075,490.75 214.937,490.588 210.631,489.938 208.925,487.5 208.356,486.606 207.787,484.088 206.894,480.513 206.406,478.481 205.513,474.906 205.513,473.525 205.513,466.456 209.412,461.906 212.175,458.575 214.937,458.088 214.694,457.194 214.531,454.188 214.287,451.506 214.287,450.613 214.287,440.538 226.637,440.538 236.387,440.538 238.337,442.488 238.419,442.163 238.5,440.213 238.581,438.506 238.987,437.938 240.288,435.988 244.025,435.581 249.144,435.094 249.387,435.013 L262.469,435.013 Q264.338,433.225 264.906,431.438 264.987,431.113 265.069,430.788 265.719,415.594 270.431,405.681 276.119,393.413 286.275,393.413 288.387,393.413 292.531,395.606 296.188,397.475 296.838,398.288 294.725,386.913 304.638,374.969 314.631,362.863 326.575,362.863 330.231,362.863 333.806,366.519 335.838,368.55 339.088,372.613 336.65,363.919 349.244,355.875 363.869,346.613 389.463,346.613 394.256,346.613 397.912,349.619 401.244,352.3 406.362,359.938 406.362,360.019 408.394,363.594 410.1,366.6 410.912,367.413 414,363.756 417.819,361.725 421.638,359.613 425.375,359.613 444.063,359.613 448.856,364.813 450.888,367.006 451.862,371.394 452.513,373.994 453.487,380.738 L453.487,381.063 Q461.694,370.094 464.456,367.9 469.981,363.513 479.813,363.513 482.169,363.513 485.419,366.031 487.287,367.413 490.537,370.663 491.513,362.538 495.575,359.45 499.638,356.363 509.225,356.363 517.35,356.363 528.238,361.319 540.181,366.681 538.475,372.775 540.831,367.088 544.813,365.3 547.494,364.163 554.4,364.163 572.762,364.163 582.512,371.313 589.988,376.756 589.988,383.338 589.988,386.1 589.175,387.644 588.688,388.456 588.038,389.188 593.481,387.238 600.713,387.238 611.6,387.238 617.938,395.363 622.813,401.7 622.813,408.525 622.813,412.994 619.563,417.3 616.069,421.281 615.338,422.663 616.719,423.231 622.894,424.369 629.313,425.75 632.888,428.188 639.063,432.413 641.5,438.263 643.287,442.65 643.287,449.313 643.287,452.969 636.625,458.981 629.963,464.181 629.963,464.263 629.963,465.563 630.938,466.538 M318.287,408.688 Q326.575,401.538 341.688,401.538 346.4,401.538 350.787,403.569 353.225,404.706 356.963,407.063 359.563,408.444 359.888,408.688 360.537,409.094 359.563,409.013 M398.563,403.813 Q401.894,398.938 408.719,395.931 415.3,393.088 422.612,393.088 429.112,393.088 433.987,403.488 433.987,404.138 433.419,404.788 432.769,405.519 432.037,405.763 M538.475,372.775 Q538.313,373.344 537.988,373.913 M493.463,397.638 Q503.05,389.513 523.525,389.513 524.094,389.513 527.831,393.575 531.488,397.638 531.488,398.288 531.488,406.656 528.319,411.044 526.206,413.969 523.362,414.538 M578.938,406.088 Q591.45,405.763 594.7,408.281 598.113,410.881 598.113,420.875 598.113,430.706 589.744,437.125 583.081,442.244 578.288,441.838 M600.387,438.913 Q612.006,438.75 612.981,439.075 617.288,440.375 617.288,448.663 617.288,451.425 614.769,454.025 613.144,455.569 608.838,458.413 607.7,459.144 605.75,460.85 603.963,462.313 603.313,462.638" test="Tween 6"/>
      </g>
      <g id="Tween-5">
        <g id="Tin-can-Rubbish">
          <path fill="#000" stroke="none" d="M258.781,393.906 Q246.025,409.263 239.769,415.031 224.9,428.763 213.2,429.088 L213.525,431.363 Q213.525,432.906 213.281,434.369 212.956,435.831 212.956,436.319 212.956,437.456 214.581,438.106 215.963,438.594 217.913,438.594 221.813,438.594 230.913,434.125 L231.319,434.125 Q226.931,439.975 226.931,441.681 226.931,446.475 232.7,446.475 236.194,446.475 236.681,446.313 237.169,446.069 239.444,444.363 239.85,443.469 240.256,443.063 L240.256,443.631 Q239.769,443.956 239.444,444.363 238.875,445.256 238.144,446.719 236.356,450.538 236.356,453.3 236.356,457.606 242.613,459.719 248.219,461.588 246.431,467.6 252.281,467.844 253.906,470.038 254.313,470.606 254.719,471.663 L254.719,471.744 Q269.425,465.813 275.763,461.181 281.856,456.631 284.375,450.294 281.856,456.631 275.763,461.181 269.425,465.813 254.719,471.744 255.288,473.369 255.938,476.05 256.669,477.919 260.325,480.763 262.681,482.713 261.462,486.613 L267.069,486.613 Q289.738,477.269 313.869,448.75 337.269,421.206 342.956,398.944 L342.956,393.906 Q339.219,393.094 334.588,393.906 L331.256,393.906 Q332.881,390.169 328.331,388.3 322.075,386.675 319.069,385.619 317.363,384.969 316.225,382.613 315.169,379.606 314.519,378.144 312.081,372.7 305.581,374.406 L305.581,369.938 Q306.719,368.8 306.719,367.175 306.719,364.9 302.25,364.494 297.213,364.413 296.075,364.331 296.075,363.519 296.644,361.488 297.213,359.538 297.213,358.888 297.213,355.881 292.175,355.475 294.45,351.331 290.713,349.056 287.463,347.838 285.431,347.025 287.788,348.488 287.788,351.819 287.788,362.3 279.744,371.481 267.394,383.588 258.781,393.906 M293.15,393.175 Q290.55,397.563 288.925,397.888 290.55,397.563 293.15,393.175 294.775,390.331 299.975,381.15 294.775,390.331 293.15,393.175 M325.325,405.769 Q322.238,410.481 318.5,411.781 322.238,410.481 325.325,405.769 328.494,400.894 330.119,393.906 328.494,400.894 325.325,405.769 M270.969,420.15 Q268.856,423.563 265.281,429.981 262.844,434.45 262.031,435.263 262.844,434.45 265.281,429.981 268.856,423.563 270.969,420.15 M225.713,390.738 Q212.631,407.475 211.169,415.925 210.356,420.069 210.113,422.344 209.706,424.7 209.869,425.188 209.788,425.431 209.706,425.675 209.625,426.325 209.625,426.813 209.625,428.113 210.113,428.519 210.763,429.088 212.631,429.088 212.875,429.088 213.2,429.088 224.9,428.763 239.769,415.031 246.025,409.263 258.781,393.906 267.394,383.588 279.744,371.481 287.788,362.3 287.788,351.819 287.788,348.488 285.431,347.025 284.456,346.456 283.238,346.213 282.019,345.969 280.475,345.969 273.406,345.969 256.1,360.025 238.794,374 225.713,390.738Z" test="Tin can Rubbish" stroke-width="1.625"/>
          <path id="Layer8_0_1_STROKES" stroke="#009EFF" stroke-width="1.625" stroke-linejoin="round" stroke-linecap="round" fill="none" d="M210.113,422.344 Q209.706,424.7 209.869,425.188 M285.431,347.025 Q287.463,347.838 290.713,349.056 294.45,351.331 292.175,355.475 297.213,355.881 297.213,358.888 297.213,359.538 296.644,361.488 296.075,363.519 296.075,364.331 297.213,364.413 302.25,364.494 306.719,364.9 306.719,367.175 306.719,368.8 305.581,369.938 L305.581,374.406 Q312.081,372.7 314.519,378.144 315.169,379.606 316.225,382.613 317.363,384.969 319.069,385.619 322.075,386.675 328.331,388.3 332.881,390.169 331.256,393.906 L334.588,393.906 Q339.219,393.094 342.956,393.906 L342.956,398.944 Q337.269,421.206 313.869,448.75 289.738,477.269 267.069,486.613 L261.462,486.613 Q262.681,482.713 260.325,480.763 256.669,477.919 255.938,476.05 255.288,473.369 254.719,471.744 L254.719,471.663 Q254.313,470.606 253.906,470.038 252.281,467.844 246.431,467.6 248.219,461.588 242.613,459.719 236.356,457.606 236.356,453.3 236.356,450.538 238.144,446.719 238.875,445.256 239.444,444.363 237.169,446.069 236.681,446.313 236.194,446.475 232.7,446.475 226.931,446.475 226.931,441.681 226.931,439.975 231.319,434.125 L230.913,434.125 Q221.813,438.594 217.913,438.594 215.963,438.594 214.581,438.106 212.956,437.456 212.956,436.319 212.956,435.831 213.281,434.369 213.525,432.906 213.525,431.363 M299.975,381.15 Q294.775,390.331 293.15,393.175 290.55,397.563 288.925,397.888 M330.119,393.906 Q328.494,400.894 325.325,405.769 322.238,410.481 318.5,411.781 M270.969,420.15 Q268.856,423.563 265.281,429.981 262.844,434.45 262.031,435.263 M239.444,444.363 Q239.769,443.956 240.256,443.631 L240.256,443.063 Q239.85,443.469 239.444,444.363Z M254.719,471.744 Q269.425,465.813 275.763,461.181 281.856,456.631 284.375,450.294" test="Tin can Rubbish"/>
          <path id="Layer8_0_2_STROKES" stroke="#FFF" stroke-width="1.625" stroke-linejoin="round" stroke-linecap="round" fill="none" d="M285.431,347.025 Q284.456,346.456 283.238,346.213 282.019,345.969 280.475,345.969 273.406,345.969 256.1,360.025 238.794,374 225.713,390.738 212.631,407.475 211.169,415.925 210.356,420.069 210.113,422.344 M209.869,425.188 Q209.788,425.431 209.706,425.675 209.625,426.325 209.625,426.813 209.625,428.113 210.113,428.519 210.763,429.088 212.631,429.088 212.875,429.088 213.2,429.088 224.9,428.763 239.769,415.031 246.025,409.263 258.781,393.906 267.394,383.588 279.744,371.481 287.788,362.3 287.788,351.819 287.788,348.488 285.431,347.025" test="Tin can Rubbish"/>
        </g>
        <g id="Bottle">
          <path fill="#000" stroke="none" d="M573.731,477.662 Q571.213,477.338 562.275,475.469 554.475,473.763 550.088,473.844 541.963,473.925 530.019,467.019 518.237,460.275 507.269,449.469 499.469,441.75 492.562,430.131 487.037,419.65 486.469,418.838 483.787,415.1 481.675,411.2 478.019,404.7 478.262,401.531 459.819,427.287 438.937,450.931 416.431,476.281 399.775,505.531 384.419,532.506 410.581,551.194 437.8,570.613 468.756,581.825 485.9,588.163 499.631,574.106 523.031,550.137 541.637,521.538 556.262,498.95 573.325,478.15 L573.731,477.662 M525.306,366.35 Q525.144,366.269 524.981,366.269 508.406,365.619 496.381,378.619 486.469,389.344 478.262,401.531 478.019,404.7 481.675,411.2 483.787,415.1 486.469,418.838 487.037,419.65 492.562,430.131 499.469,441.75 507.269,449.469 518.237,460.275 530.019,467.019 541.963,473.925 550.088,473.844 554.475,473.763 562.275,475.469 571.213,477.338 573.731,477.662 591.769,460.194 600.137,436.794 600.463,435.981 600.787,435.169 599.975,435.088 599.65,435.169 597.294,435.25 596.4,435.331 595.181,435.412 593.231,435.9 591.363,436.388 588.519,436.388 581.531,436.388 563.981,424.525 547.162,413.231 537.738,402.912 529.938,394.3 527.744,383.819 526.606,372.931 525.306,366.35 M605.744,371.469 Q595.831,363.588 589.25,348.475 560.569,368.625 525.306,366.35 526.606,372.931 527.744,383.819 529.938,394.3 537.738,402.912 547.162,413.231 563.981,424.525 581.531,436.388 588.519,436.388 591.363,436.388 593.231,435.9 595.181,435.412 596.4,435.331 597.294,435.25 599.65,435.169 599.975,435.088 600.787,435.169 592.581,402.263 619.069,381.138 619.8,380.569 620.531,379.838 608.181,373.419 605.744,371.469 M589.088,346.606 L589.25,348.475 Q595.831,363.588 605.744,371.469 608.181,373.419 620.531,379.838 L625.244,380.65 Q628.819,379.188 633.287,370.412 637.512,362.044 637.512,357.737 637.512,352.537 625.813,339.862 620.206,333.769 615.981,330.6 611.35,327.025 608.506,327.025 603.875,327.025 596.481,336.125 593.637,339.619 589.088,346.606 M612.975,335.719 Q612.488,334.987 612.406,334.906 612.488,334.987 612.975,335.719 614.194,337.425 618.094,343.194 624.838,352.05 630.85,356.031 624.838,352.05 618.094,343.194 614.194,337.425 612.975,335.719Z" test="Bottle" stroke-width="1.625"/>
          <path id="Layer9_0_1_STROKES" stroke="#FFF" stroke-width="1.625" stroke-linejoin="round" stroke-linecap="round" fill="none" d="M589.25,348.475 Q595.831,363.588 605.744,371.469 608.181,373.419 620.531,379.838 M625.244,380.65 Q628.819,379.188 633.287,370.412 637.512,362.044 637.512,357.737 637.512,352.537 625.813,339.862 620.206,333.769 615.981,330.6 611.35,327.025 608.506,327.025 603.875,327.025 596.481,336.125 593.637,339.619 589.088,346.606 M630.85,356.031 Q624.838,352.05 618.094,343.194 614.194,337.425 612.975,335.719 612.488,334.987 612.406,334.906 M478.262,401.531 Q478.019,404.7 481.675,411.2 483.787,415.1 486.469,418.838 487.037,419.65 492.562,430.131 499.469,441.75 507.269,449.469 518.237,460.275 530.019,467.019 541.963,473.925 550.088,473.844 554.475,473.763 562.275,475.469 571.213,477.338 573.731,477.662 M600.787,435.169 Q599.975,435.088 599.65,435.169 597.294,435.25 596.4,435.331 595.181,435.412 593.231,435.9 591.363,436.388 588.519,436.388 581.531,436.388 563.981,424.525 547.162,413.231 537.738,402.912 529.938,394.3 527.744,383.819 526.606,372.931 525.306,366.35 525.144,365.456 524.981,364.644 M573.731,477.662 Q574.056,477.744 574.219,477.744 574.219,477.987 573.325,478.15" test="Bottle"/>
          <path id="Layer9_0_2_STROKES" stroke="#0F0" stroke-width="1.625" stroke-linejoin="round" stroke-linecap="round" fill="none" d="M525.306,366.35 Q525.144,366.269 524.981,366.269 508.406,365.619 496.381,378.619 486.469,389.344 478.262,401.531 M573.731,477.662 Q591.769,460.194 600.137,436.794 600.463,435.981 600.787,435.169 592.581,402.263 619.069,381.138 619.8,380.569 620.531,379.838 M589.25,348.475 Q560.569,368.625 525.306,366.35 M573.325,478.15 Q556.262,498.95 541.637,521.538 523.031,550.137 499.631,574.106 485.9,588.163 468.756,581.825 437.8,570.613 410.581,551.194 384.419,532.506 399.775,505.531 416.431,476.281 438.937,450.931 459.819,427.287 478.262,401.531 M573.325,478.15 L573.731,477.662" test="Bottle"/>
        </g>
        <g id="Banana">
          <path fill="#000" stroke="none" d="M400.038,301.656 L399.225,302.469 Q393.863,310.269 387.363,322.538 382.325,331.881 379.806,334.319 371.438,342.2 360.956,348.781 350.394,354.956 346.25,357.719 326.75,370.638 309.444,397.775 292.3,424.506 293.763,438.644 L293.763,445.631 Q293.925,445.875 294.819,445.875 297.906,445.875 300.588,441.081 302.05,438.4 304.325,433.038 305.219,431.413 309.038,426.213 310.988,423.531 311.231,423.044 320.331,420.525 334.55,411.019 350.881,400.213 357.95,390.056 365.1,379.819 381.188,367.306 396.706,355.2 397.519,353.9 L398.088,353.9 398.088,357.15 Q393.863,375.35 373.794,409.556 363.313,427.35 360.794,432.306 354.944,443.356 354.619,448.719 355.106,448.719 356.731,449.044 358.275,449.288 359.006,449.288 365.263,449.288 382.894,432.713 401.256,415.488 409.381,400.7 411.088,397.531 413.119,385.181 415.313,371.938 415.963,369.988 418.075,364.3 418.563,362.594 419.213,359.994 420.431,355.606 426.606,365.275 434.325,374.05 439.688,380.306 460.569,404.031 469.994,415.081 474.544,438.563 477.306,452.863 477.306,462.044 484.456,462.125 488.681,452.7 492.419,444.169 492.419,431.413 492.419,419.306 488.194,409.313 486.081,404.356 478.363,392.006 471.131,380.388 467.475,370.8 461.95,356.256 450.981,347.238 439.931,338.138 435.95,329.2 431.888,320.263 428.231,313.031 424.575,305.719 425.713,303.688 L424.413,302.225 Q422.138,304.256 418.481,305.556 414.338,306.938 410.438,306.938 408.569,306.938 404.263,304.744 400.769,302.956 400.038,301.656 M419.294,260.625 Q412.225,258.513 410.031,265.744 409.381,268.019 408.813,277.931 408.163,287.6 403.856,292.881 399.794,298 399.794,301.006 399.794,301.331 400.038,301.656 400.769,302.956 404.263,304.744 408.569,306.938 410.438,306.938 414.338,306.938 418.481,305.556 422.138,304.256 424.413,302.225 425.713,301.088 426.525,299.706 426.038,299.381 425.55,299.138 423.681,297.919 422.381,296.944 419.538,294.994 418.644,294.019 417.1,292.231 417.1,281.263 417.1,273.95 419.294,260.625Z" test="Banana" stroke-width="1.625"/>
          <path id="Layer10_0_1_STROKES" stroke="#FF0" stroke-width="1.625" stroke-linejoin="round" stroke-linecap="round" fill="none" d="M425.713,303.688 Q424.575,305.719 428.231,313.031 431.888,320.263 435.95,329.2 439.931,338.138 450.981,347.238 461.95,356.256 467.475,370.8 471.131,380.388 478.363,392.006 486.081,404.356 488.194,409.313 492.419,419.306 492.419,431.413 492.419,444.169 488.681,452.7 484.456,462.125 477.306,462.044 477.306,452.863 474.544,438.563 469.994,415.081 460.569,404.031 439.688,380.306 434.325,374.05 426.606,365.275 420.431,355.606 419.213,359.994 418.563,362.594 418.075,364.3 415.963,369.988 415.313,371.938 413.119,385.181 411.088,397.531 409.381,400.7 401.256,415.488 382.894,432.713 365.263,449.288 359.006,449.288 358.275,449.288 356.731,449.044 355.106,448.719 354.619,448.719 354.944,443.356 360.794,432.306 363.313,427.35 373.794,409.556 393.863,375.35 398.088,357.15 L398.088,353.9 397.519,353.9 Q396.706,355.2 381.188,367.306 365.1,379.819 357.95,390.056 350.881,400.213 334.55,411.019 320.331,420.525 311.231,423.044 310.988,423.531 309.038,426.213 305.219,431.413 304.325,433.038 302.05,438.4 300.588,441.081 297.906,445.875 294.819,445.875 293.925,445.875 293.763,445.631 L293.763,438.644 Q292.3,424.506 309.444,397.775 326.75,370.638 346.25,357.719 350.394,354.956 360.956,348.781 371.438,342.2 379.806,334.319 382.325,331.881 387.363,322.538 393.863,310.269 399.225,302.469" test="Banana"/>
          <path id="Layer10_0_2_STROKES" stroke="#FFF" stroke-width="1.625" stroke-linejoin="round" stroke-linecap="round" fill="none" d="M400.038,301.656 Q399.794,301.331 399.794,301.006 399.794,298 403.856,292.881 408.163,287.6 408.813,277.931 409.381,268.019 410.031,265.744 412.225,258.513 419.294,260.625 417.1,273.95 417.1,281.263 417.1,292.231 418.644,294.019 419.538,294.994 422.381,296.944 423.681,297.919 425.55,299.138 426.038,299.381 426.525,299.706 425.713,301.088 424.413,302.225 M400.038,301.656 Q400.769,302.956 404.263,304.744 408.569,306.938 410.438,306.938 414.338,306.938 418.481,305.556 422.138,304.256 424.413,302.225" test="Banana"/>
        </g>
      </g>
      <g id="Tween-4">
        <path id="Layer4_0_1_STROKES" stroke="#FFF" stroke-width="1.625" stroke-linejoin="round" stroke-linecap="round" fill="none" d="M546.1,461.138 Q546.1,454.8 555.606,449.844" test="Tween 4"/>
        <g id="Garbage">
          <path fill="#000" stroke="none" d="M438.281,423.019 L436.169,421.8 Q436.006,422.125 435.519,423.019 436.006,422.125 436.169,421.8 436.169,421.638 436.169,421.556 436.169,416.6 433.325,414.65 429.425,411.806 418.294,411.806 406.513,411.806 382.056,424.156 379.213,425.537 374.581,434.313 373.85,435.775 372.956,436.994 372.306,429.763 363.613,424.725 355,419.606 344.356,419.606 332.25,419.606 322.906,425.213 311.125,432.281 311.125,445.525 311.125,446.175 311.206,446.744 305.519,441.381 292.194,441.381 280.981,441.381 274.075,444.875 266.763,448.612 260.344,458.119 255.306,465.513 254.575,471.2 254.169,474.206 254.737,477.619 251.813,470.875 249.375,467.706 245.069,462.019 235.237,462.019 225.975,462.019 219.638,467.625 213.463,473.231 213.463,481.275 213.463,482.737 214.356,494.6 212,498.825 210.619,503.375 208.425,512.394 208.425,520.844 208.425,528.563 214.031,533.438 219.15,537.906 225.731,537.906 228.169,537.906 236.538,536.525 244.825,535.144 250.269,535.144 256.769,535.144 273.263,539.856 289.675,544.569 306.656,544.569 311.613,544.569 351.263,540.994 396.925,537.338 431.7,537.338 439.5,537.256 445.431,537.338 L465.5,538.394 466.313,537.988 Q467.206,537.663 467.938,537.581 472.731,537.338 476.956,534.981 480.125,534.006 482.156,533.113 494.831,527.588 497.513,527.344 L498.081,527.344 Q498.081,527.1 536.025,537.744 577.706,548.55 594.688,548.55 614.188,548.55 623.613,538.556 628.406,533.6 629.219,528.4 629.219,525.8 629.056,525.556 628.975,525.394 628.813,525.231 628.163,524.663 626.456,524.5 628.163,524.663 628.813,525.231 L629.219,524.5 Q631.819,522.875 640.106,519.869 647.094,516.213 647.094,509.469 647.094,505.244 642.056,503.862 L642.625,503.862 Q645.225,501.344 652.05,495.981 657.656,490.781 657.656,485.419 657.656,480.869 654.894,475.425 651.4,468.681 646.281,468.681 637.831,470.713 634.825,470.956 638.725,467.625 638.725,465.919 638.563,463.156 637.019,460.556 634.094,455.438 627.513,455.438 614.594,455.438 609.15,457.306 603.788,459.175 595.175,466.487 593.388,457.225 587.294,451.294 580.956,445.281 572.588,445.281 564.138,445.281 555.606,449.831 L546.1,461.125 Q546.1,462.588 547.156,471.525 546.425,471.119 544.638,470.713 542.931,470.388 541.875,470.388 537.975,470.388 533.344,474.856 531.638,476.563 529.363,480.463 527.25,484.2 526.519,486.556 526.356,487.287 526.194,488.1 525.463,491.025 523.025,492.975 522.294,493.544 521.4,493.869 521.075,493.625 520.831,493.381 516.281,488.912 515.063,482.737 514.413,480.787 513.112,478.675 510.756,474.694 507.019,470.956 515.956,471.931 523.594,469.088 532.125,465.919 533.181,459.256 533.344,458.281 533.344,457.225 533.344,453 532.613,450.725 531.069,445.769 525.95,441.381 520.588,436.75 514.819,435.612 512.95,435.206 507.588,435.206 507.669,435.044 512.138,427.162 512.544,426.431 512.869,425.7 L513.6,424.725 Q514.006,424.156 514.088,423.75 514.737,420.419 513.763,417.169 513.194,415.625 510.919,410.831 508.319,405.469 505.15,403.194 497.675,397.831 479.313,397.831 460.056,397.831 443.481,416.519 440.881,419.444 438.281,423.019 M481.75,460.881 Q481.425,461.694 480.775,462.994 481.425,461.694 481.75,460.881 482.4,459.419 482.4,458.281 482.4,451.619 476.55,451.619 473.625,451.619 470.7,452.431 464.85,454.138 464.525,458.444 464.85,454.138 470.7,452.431 473.625,451.619 476.55,451.619 482.4,451.619 482.4,458.281 482.4,459.419 481.75,460.881 M601.675,491.919 Q605.9,494.681 605.9,499.069 605.9,494.681 601.675,491.919 598.181,489.644 594.363,489.644 589,489.644 585.994,491.513 582.825,493.381 582.825,496.794 582.825,493.381 585.994,491.513 589,489.644 594.363,489.644 598.181,489.644 601.675,491.919 M350.45,466.487 Q355.163,469.006 356.3,472.094 355.163,469.006 350.45,466.487 346.063,464.213 342.65,464.213 338.263,464.213 335.094,467.056 330.706,471.119 330.706,479.894 330.706,481.194 330.95,481.925 331.438,483.225 332.9,485.419 331.438,483.225 330.95,481.925 330.706,481.194 330.706,479.894 330.706,471.119 335.094,467.056 338.263,464.213 342.65,464.213 346.063,464.213 350.45,466.487 M416.588,459.256 Q417.725,461.206 417.725,466.244 417.725,475.344 410.575,481.6 402.856,488.263 390.913,487.694 402.856,488.263 410.575,481.6 417.725,475.344 417.725,466.244 417.725,461.206 416.588,459.256 415.288,456.981 411.631,456.981 410.9,456.981 409.844,457.306 408.3,457.794 406.594,458.119 408.3,457.794 409.844,457.306 410.9,456.981 411.631,456.981 415.288,456.981 416.588,459.256Z" test="Garbage" stroke-width="1.625"/>
          <path id="Layer6_0_1_STROKES" stroke="#FFF" stroke-width="1.625" stroke-linejoin="round" stroke-linecap="round" fill="none" d="M436.169,421.8 Q436.006,422.125 435.519,423.019 M628.813,525.231 Q628.975,525.394 629.056,525.556 629.219,525.8 629.219,528.4 628.406,533.6 623.613,538.556 614.188,548.55 594.688,548.55 577.706,548.55 536.025,537.744 498.081,527.1 498.081,527.344 L497.513,527.344 Q494.831,527.588 482.156,533.113 480.125,534.006 476.956,534.981 472.731,537.338 467.938,537.581 467.206,537.663 466.313,537.988 L465.5,538.394 445.431,537.338 Q439.5,537.256 431.7,537.338 396.925,537.338 351.263,540.994 311.613,544.569 306.656,544.569 289.675,544.569 273.263,539.856 256.769,535.144 250.269,535.144 244.825,535.144 236.538,536.525 228.169,537.906 225.731,537.906 219.15,537.906 214.031,533.438 208.425,528.563 208.425,520.844 208.425,512.394 210.619,503.375 212,498.825 214.356,494.6 213.463,482.737 213.463,481.275 213.463,473.231 219.638,467.625 225.975,462.019 235.237,462.019 245.069,462.019 249.375,467.706 251.813,470.875 254.737,477.619 254.169,474.206 254.575,471.2 255.306,465.513 260.344,458.119 266.763,448.612 274.075,444.875 280.981,441.381 292.194,441.381 305.519,441.381 311.206,446.744 311.125,446.175 311.125,445.525 311.125,432.281 322.906,425.213 332.25,419.606 344.356,419.606 355,419.606 363.613,424.725 372.306,429.763 372.956,436.994 373.85,435.775 374.581,434.313 379.213,425.537 382.056,424.156 406.513,411.806 418.294,411.806 429.425,411.806 433.325,414.65 436.169,416.6 436.169,421.556 436.169,421.638 436.169,421.8 M438.281,423.019 Q440.881,419.444 443.481,416.519 460.056,397.831 479.313,397.831 497.675,397.831 505.15,403.194 508.319,405.469 510.919,410.831 513.194,415.625 513.763,417.169 514.737,420.419 514.088,423.75 514.006,424.156 513.6,424.725 L512.869,425.7 Q512.544,426.431 512.138,427.162 507.669,435.044 507.588,435.206 512.95,435.206 514.819,435.612 520.588,436.75 525.95,441.381 531.069,445.769 532.613,450.725 533.344,453 533.344,457.225 533.344,458.281 533.181,459.256 532.125,465.919 523.594,469.088 515.956,471.931 507.019,470.956 510.756,474.694 513.112,478.675 514.413,480.787 515.063,482.737 516.281,488.912 520.831,493.381 521.075,493.625 521.4,493.869 522.294,493.544 523.025,492.975 525.463,491.025 526.194,488.1 526.356,487.287 526.519,486.556 527.25,484.2 529.363,480.463 531.638,476.563 533.344,474.856 537.975,470.388 541.875,470.388 542.931,470.388 544.638,470.713 546.425,471.119 547.156,471.525 546.1,462.588 546.1,461.125 M555.606,449.831 Q564.138,445.281 572.588,445.281 580.956,445.281 587.294,451.294 593.388,457.225 595.175,466.487 603.788,459.175 609.15,457.306 614.594,455.438 627.513,455.438 634.094,455.438 637.019,460.556 638.563,463.156 638.725,465.919 638.725,467.625 634.825,470.956 637.831,470.713 646.281,468.681 651.4,468.681 654.894,475.425 657.656,480.869 657.656,485.419 657.656,490.781 652.05,495.981 645.225,501.344 642.625,503.862 L642.056,503.862 Q647.094,505.244 647.094,509.469 647.094,516.213 640.106,519.869 631.819,522.875 629.219,524.5 M626.456,524.5 Q628.163,524.663 628.813,525.231 M464.525,458.444 Q464.85,454.138 470.7,452.431 473.625,451.619 476.55,451.619 482.4,451.619 482.4,458.281 482.4,459.419 481.75,460.881 481.425,461.694 480.775,462.994 M582.825,496.794 Q582.825,493.381 585.994,491.513 589,489.644 594.363,489.644 598.181,489.644 601.675,491.919 605.9,494.681 605.9,499.069 M332.9,485.419 Q331.438,483.225 330.95,481.925 330.706,481.194 330.706,479.894 330.706,471.119 335.094,467.056 338.263,464.213 342.65,464.213 346.063,464.213 350.45,466.487 355.163,469.006 356.3,472.094 M406.594,458.119 Q408.3,457.794 409.844,457.306 410.9,456.981 411.631,456.981 415.288,456.981 416.588,459.256 417.725,461.206 417.725,466.244 417.725,475.344 410.575,481.6 402.856,488.263 390.913,487.694" test="Garbage"/>
        </g>
        <g id="GarbageCloud">
          <path id="Layer7_0_1_STROKES" stroke="#FFF" stroke-width="1.625" stroke-linejoin="round" stroke-linecap="round" fill="none" d="M477.988,344.856 Q480.425,343.556 480.913,342.825 481.888,341.444 481.888,337.625 481.888,332.831 477.744,325.681 473.6,318.531 473.6,312.113 473.6,306.912 479.694,296.838 485.788,286.763 485.788,282.294 485.788,279.694 483.513,276.688 483.188,276.281 480.181,272.869 M574.188,319.181 Q575.163,317.069 579.063,313.575 584.263,308.781 588.488,308.537 589.625,310.813 589.625,313.006 589.625,313.575 584.019,319.181 L574.188,319.181 Q574.025,319.506 573.781,320.238 574.35,320.481 574.919,320.888 577.275,322.431 577.275,324.138 577.275,325.925 576.788,326.412 576.219,326.981 574.269,326.981 572.481,326.981 571.181,325.925 570.044,324.869 570.044,323.569 570.044,322.594 570.45,321.944 566.713,321.944 564.438,321.375 558.913,320.156 558.913,316.338 558.913,313.494 559.969,311.381 561.431,308.537 564.194,308.537 568.094,308.537 570.531,312.031 572.156,314.469 573.375,319.181 L574.188,319.181Z M570.45,321.944 L570.531,321.944 Q571.669,321.944 571.994,321.863 572.4,321.781 572.806,321.375 L572.806,320.238 Q571.75,320.644 571.181,321.05 570.694,321.375 570.45,321.944Z M573.781,320.238 Q572.075,319.425 570.613,319.75 M291.356,305.287 Q291.6,304.475 291.925,303.662 287.131,303.825 282.5,307.075 278.438,309.756 277.056,312.438 L277.056,318.044 282.094,318.044 Q289.731,312.275 290.788,307.4 291.031,306.344 291.356,305.287 290.95,305.287 290.463,305.287 M297.125,306.425 Q295.744,305.206 294.85,304.556 292.656,304.638 292.169,304.719 M294.85,304.556 Q294.119,303.988 293.713,303.744 293.469,303.581 292.738,303.581 292.331,303.581 291.925,303.662 294.038,298.3 298.831,292.369 L303.869,292.369 Q303.869,292.938 304.194,294.4 304.438,295.863 304.438,296.594 304.438,302.85 298.913,304.313 296.475,304.475 294.85,304.556Z M335.638,328.119 Q337.831,323.488 339.375,319.994 342.381,313.25 342.381,310.731 342.381,308.619 337.913,304.15 333.444,299.6 333.444,298.219 333.444,294.238 335.394,288.144 337.344,281.969 337.344,279.287 337.344,273.438 337.019,271.731 336.288,267.425 333.444,266.125 M291.6,306.425 L291.356,307.481 Q291.031,308.781 291.031,309.675 291.031,311.138 292.656,311.869 293.875,312.438 295.013,312.438 295.825,312.438 296.8,312.113 298.669,311.463 298.831,311.381 298.506,307.888 296.231,306.425 294.525,305.45 291.356,305.287" test="GarbageCloud"/>
        </g>
      </g>
      <g id="Drawer">
        <path fill="#000" stroke="none" d="M702.662,608.763 Q702.175,609.25 701.769,609.738 L701.769,637.281 Q702.175,637.688 702.662,638.175 708.594,644.106 716.881,644.269 L717.369,644.269 Q725.981,644.269 732.075,638.175 738.169,632.081 738.169,623.469 738.169,614.856 732.075,608.763 725.981,602.669 717.369,602.669 L716.881,602.669 Q708.594,602.831 702.662,608.763 M152.519,521.419 Q147.319,545.306 148.294,571.55 151.381,645.406 150.244,692.125 149.269,737.544 152.519,750.219 253.269,748.838 352.719,753.063 392.044,751.925 418.206,753.306 444.775,754.688 463.219,754.688 470.287,754.688 477.519,754.606 487.675,755.825 497.75,755.663 516.275,754.2 534.637,751.519 553.65,749.163 572.906,751.356 591.35,753.469 609.631,752.981 628.806,752.413 647.819,751.275 670.081,750.869 701.769,750.219 L701.769,644.269 701.769,637.281 701.769,609.738 Q701.688,606.163 701.688,602.669 700.631,547.581 701.769,492.819 L666.669,492.819 666.669,521.419 581.519,518.25 Q356.05,525.644 152.519,521.419Z" test="Drawer" stroke-width="1.625"/>
        <path id="Layer3_0_1_STROKES" stroke="#F60" stroke-width="3.25" stroke-linejoin="round" stroke-linecap="round" fill="none" d="M701.769,637.281 L701.769,644.269 701.769,750.219 Q670.081,750.869 647.819,751.275 628.806,752.413 609.631,752.981 591.35,753.469 572.906,751.356 553.65,749.163 534.637,751.519 516.275,754.2 497.75,755.663 487.675,755.825 477.519,754.606 470.287,754.688 463.219,754.688 444.775,754.688 418.206,753.306 392.044,751.925 352.719,753.063 253.269,748.838 152.519,750.219 149.269,737.544 150.244,692.125 151.381,645.406 148.294,571.55 147.319,545.306 152.519,521.419 356.05,525.644 581.519,518.25 L666.669,521.419 666.669,492.819 701.769,492.819 Q700.631,547.581 701.688,602.669 701.688,606.163 701.769,609.738 702.175,609.25 702.662,608.763 708.594,602.831 716.881,602.669 L717.369,602.669 Q725.981,602.669 732.075,608.763 738.169,614.856 738.169,623.469 738.169,632.081 732.075,638.175 725.981,644.269 717.369,644.269 L716.881,644.269 Q708.594,644.106 702.662,638.175 702.175,637.688 701.769,637.281 L701.769,609.738" test="Drawer"/>
      </g>
      <g id="DrawersCabinetFront">
        <path fill="#000" stroke="none" d="M193.919,911.894 Q194.325,912.3 194.813,912.788 200.744,918.719 209.031,918.881 L209.519,918.881 Q218.131,918.881 224.225,912.788 230.319,906.694 230.319,898.081 230.319,889.469 224.225,883.375 218.131,877.281 209.519,877.281 L209.031,877.281 Q200.744,877.444 194.813,883.375 194.325,883.863 193.919,884.35 L193.919,911.894 M193.919,767.431 L158.819,767.431 158.819,796.031 73.669,792.863 Q-151.8,800.256 -355.331,796.031 -360.531,819.919 -359.556,846.163 -356.469,920.019 -357.606,966.738 -358.581,1012.156 -355.331,1024.831 -254.581,1023.45 -155.131,1027.675 -115.806,1026.538 -89.644,1027.919 -63.075,1029.3 -44.631,1029.3 -37.562,1029.3 -30.331,1029.219 -20.175,1030.438 -10.1,1030.275 8.425,1028.813 26.787,1026.131 45.8,1023.775 65.056,1025.969 83.5,1028.081 101.781,1027.594 120.956,1027.025 139.969,1025.888 162.231,1025.481 193.919,1024.831 L193.919,918.881 193.919,911.894 193.919,884.35 Q193.837,880.775 193.837,877.281 192.781,822.194 193.919,767.431Z" test="DrawersCabinetFront" stroke-width="1.625"/>
        <path id="Layer2_0_1_STROKES" stroke="#F60" stroke-width="3.25" stroke-linejoin="round" stroke-linecap="round" fill="none" d="M193.919,911.894 L193.919,918.881 193.919,1024.831 Q162.231,1025.481 139.969,1025.888 120.956,1027.025 101.781,1027.594 83.5,1028.081 65.056,1025.969 45.8,1023.775 26.787,1026.131 8.425,1028.813 -10.1,1030.275 -20.175,1030.438 -30.331,1029.219 -37.562,1029.3 -44.631,1029.3 -63.075,1029.3 -89.644,1027.919 -115.806,1026.538 -155.131,1027.675 -254.581,1023.45 -355.331,1024.831 -358.581,1012.156 -357.606,966.738 -356.469,920.019 -359.556,846.163 -360.531,819.919 -355.331,796.031 -151.8,800.256 73.669,792.863 L158.819,796.031 158.819,767.431 193.919,767.431 Q192.781,822.194 193.837,877.281 193.837,880.775 193.919,884.35 194.325,883.863 194.813,883.375 200.744,877.444 209.031,877.281 L209.519,877.281 Q218.131,877.281 224.225,883.375 230.319,889.469 230.319,898.081 230.319,906.694 224.225,912.788 218.131,918.881 209.519,918.881 L209.031,918.881 Q200.744,918.719 194.813,912.788 194.325,912.3 193.919,911.894 L193.919,884.35" test="DrawersCabinetFront"/>
        <path fill="#000" stroke="none" d="M117.3,479.806 Q82.361,478.514 48.725,476.556 15.182,474.683 -73.637,475.013 -162.395,475.43 -203.394,475.906 -244.292,476.464 -296.181,475.988 -348.089,475.505 -378.081,479.156 -380.194,496.381 -382.631,634.913 -385.15,778.806 -382.794,807.163 -381.9,818.7 -387.831,922.619 -393.678,1026.536 -389.212,1028.813 -384.672,1031.091 -372.637,1030.194 -368.128,1029.916 -362.887,1029.219 -352.812,1027.919 -342.656,1026.619 -294.963,1021.744 -247.187,1023.206 -225.026,1023.353 -201.525,1023.613 -83.469,1024.994 -67.869,1024.994 -53.406,1024.994 52.462,1029.056 53.681,1029.138 54.981,1029.138 58.313,1029.3 61.644,1029.381 66.356,1029.544 70.906,1029.625 156.462,1032.144 158.413,1029.056 160.688,1025.481 160.85,1011.344 160.769,991.194 160.769,978.113 160.769,882.969 161.988,849.9 162.556,833.65 160.769,758.413 159.063,682.688 159.631,663.756 160.686,628.747 159.875,554.475 159.147,480.191 155.731,480.619 152.314,481.121 117.3,479.806Z" test="DrawersCabinetFront" stroke-width="1.625"/>
        <path id="Layer1_0_1_STROKES" stroke="#F60" stroke-width="3.25" stroke-linejoin="round" stroke-linecap="round" fill="none" d="M-378.081,479.156 Q-348.089,475.505 -296.181,475.988 -244.292,476.464 -203.353,475.947 -162.395,475.43 -73.597,475.053 15.182,474.683 48.766,476.597 82.361,478.514 117.341,479.806 152.314,481.121 155.731,480.659 159.147,480.191 159.916,554.475 160.686,628.747 159.631,663.756 159.063,682.688 160.769,758.413 162.556,833.65 161.988,849.9 160.769,882.969 160.769,978.113 160.769,991.194 160.85,1011.344 160.688,1025.481 158.413,1029.056 156.462,1032.144 70.906,1029.625 66.356,1029.544 61.644,1029.381 58.313,1029.3 54.981,1029.138 53.681,1029.138 52.462,1029.056 -53.406,1024.994 -67.869,1024.994 -83.469,1024.994 -201.525,1023.613 -225.026,1023.353 -247.187,1023.206 -294.963,1021.744 -342.656,1026.619 -352.812,1027.919 -362.887,1029.259 -368.128,1029.916 -372.597,1030.234 -384.672,1031.091 -389.172,1028.813 -393.678,1026.536 -387.791,922.619 -381.9,818.7 -382.794,807.163 -385.15,778.806 -382.631,634.913 -380.194,496.381 -378.081,479.156Z" test="DrawersCabinetFront"/>
      </g>
    </g>
  </g>
</svg>