<?xml version="1.0" encoding="utf-8"?>
<svg id="EdithAnim12" image-rendering="inherit" baseProfile="basic" version="1.1" x="0px" y="0px" width="800" height="600" xmlns="http://www.w3.org/2000/svg" xmlns:xlink="http://www.w3.org/1999/xlink">
  <g id="21_GarbageDrawerf165r1" overflow="visible">
    <g id="GarbageDrawerGroupf165r1">
      <g id="Tween-6">
        <path fill="#000" stroke="none" d="M292.531,437.656 Q288.387,435.463 286.275,435.463 276.119,435.463 270.431,447.731 265.719,457.644 265.069,472.838 264.987,473.162 264.906,473.487 264.338,475.275 262.469,477.063 L249.387,477.063 Q249.144,477.144 244.025,477.631 240.288,478.037 238.987,479.987 238.581,480.556 238.5,482.263 238.419,484.213 238.337,484.537 236.387,482.588 226.637,482.588 214.287,482.588 214.287,492.662 214.287,493.556 214.531,496.237 214.694,499.244 214.937,500.138 212.175,500.625 209.412,503.956 205.513,508.506 205.513,515.575 205.513,516.956 206.406,520.531 206.894,522.563 207.787,526.137 208.356,528.656 208.925,529.55 210.631,531.988 214.937,532.637 216.075,532.8 229.725,536.456 247.275,540.438 267.913,542.713 275.713,543.606 327.713,551.406 367.769,557.419 395.313,558.637 423.831,559.938 462.019,563.025 488.75,565.137 512.475,565.137 533.356,565.137 565.206,559.044 598.031,552.869 607.213,546.613 610.706,544.256 614.2,543.281 618.019,542.225 619.887,541.088 626.713,536.7 628.338,534.262 632.806,527.438 633.781,524.512 634.188,523.294 634.188,519.8 634.188,516.144 633.213,513.625 631.75,510.862 630.938,509.237 L630.938,508.588 Q629.963,507.612 629.963,506.313 629.963,506.231 636.625,501.031 643.287,495.019 643.287,491.362 643.287,484.7 641.5,480.313 639.063,474.463 632.888,470.237 629.313,467.8 622.894,466.419 616.719,465.281 615.338,464.713 616.069,463.331 619.563,459.35 622.813,455.044 622.813,450.575 622.813,443.75 617.938,437.412 611.6,429.287 600.713,429.287 593.481,429.287 588.038,431.237 588.688,430.506 589.175,429.694 589.988,428.15 589.988,425.388 589.988,418.806 582.512,413.362 572.762,406.213 554.4,406.213 L544.813,407.35 Q540.831,409.138 538.475,414.825 538.313,415.394 537.988,415.963 538.313,415.394 538.475,414.825 540.181,408.731 528.238,403.369 517.35,398.412 509.225,398.412 499.638,398.412 495.575,401.5 491.513,404.588 490.537,412.713 487.287,409.463 485.419,408.081 482.169,405.563 479.813,405.563 469.981,405.563 464.456,409.95 461.694,412.144 453.487,423.112 L453.487,422.787 Q452.513,416.044 451.862,413.444 450.888,409.056 448.856,406.862 444.063,401.662 425.375,401.662 421.638,401.662 417.819,403.775 414,405.806 410.912,409.463 410.1,408.65 408.394,405.644 406.362,402.069 406.362,401.987 401.244,394.35 397.912,391.669 394.256,388.662 389.463,388.662 363.869,388.662 349.244,397.925 336.65,405.969 339.088,414.662 335.838,410.6 333.806,408.569 330.231,404.912 326.575,404.912 314.631,404.912 304.638,417.019 294.725,428.963 296.838,440.338 296.188,439.525 292.531,437.656 M350.787,445.619 Q353.225,446.756 356.963,449.112 359.563,450.494 359.888,450.737 360.537,451.144 359.563,451.063 360.537,451.144 359.888,450.737 359.563,450.494 356.963,449.112 353.225,446.756 350.787,445.619 346.4,443.588 341.688,443.588 326.575,443.588 318.287,450.737 326.575,443.588 341.688,443.588 346.4,443.588 350.787,445.619 M408.719,437.981 Q415.3,435.138 422.612,435.138 429.112,435.138 433.987,445.537 433.987,446.188 433.419,446.838 432.769,447.569 432.037,447.813 432.769,447.569 433.419,446.838 433.987,446.188 433.987,445.537 429.112,435.138 422.612,435.138 415.3,435.138 408.719,437.981 401.894,440.987 398.563,445.862 401.894,440.987 408.719,437.981 M523.525,431.563 Q524.094,431.563 527.831,435.625 531.488,439.688 531.488,440.338 531.488,448.706 528.319,453.094 526.206,456.019 523.362,456.588 526.206,456.019 528.319,453.094 531.488,448.706 531.488,440.338 531.488,439.688 527.831,435.625 524.094,431.563 523.525,431.563 503.05,431.563 493.463,439.688 503.05,431.563 523.525,431.563 M594.7,450.331 Q598.113,452.931 598.113,462.925 598.113,472.756 589.744,479.175 583.081,484.294 578.288,483.888 583.081,484.294 589.744,479.175 598.113,472.756 598.113,462.925 598.113,452.931 594.7,450.331 591.45,447.813 578.938,448.138 591.45,447.813 594.7,450.331 M600.387,480.963 Q612.006,480.8 612.981,481.125 617.288,482.425 617.288,490.713 617.288,493.475 614.769,496.075 613.144,497.619 608.838,500.463 607.7,501.194 605.75,502.9 603.963,504.362 603.313,504.688 603.963,504.362 605.75,502.9 607.7,501.194 608.838,500.463 613.144,497.619 614.769,496.075 617.288,493.475 617.288,490.713 617.288,482.425 612.981,481.125 612.006,480.8 600.387,480.963Z" test="Tween 6" stroke-width="1.625"/>
        <path id="Layer5_0_1_STROKES" stroke="#FFF" stroke-width="1.625" stroke-linejoin="round" stroke-linecap="round" fill="none" d="M630.938,509.237 Q631.75,510.862 633.213,513.625 634.188,516.144 634.188,519.8 634.188,523.294 633.781,524.512 632.806,527.438 628.338,534.262 626.713,536.7 619.887,541.088 618.019,542.225 614.2,543.281 610.706,544.256 607.213,546.613 598.031,552.869 565.206,559.044 533.356,565.137 512.475,565.137 488.75,565.137 462.019,563.025 423.831,559.938 395.313,558.637 367.769,557.419 327.713,551.406 275.713,543.606 267.913,542.713 247.275,540.438 229.725,536.456 216.075,532.8 214.937,532.637 210.631,531.988 208.925,529.55 208.356,528.656 207.787,526.137 206.894,522.563 206.406,520.531 205.513,516.956 205.513,515.575 205.513,508.506 209.412,503.956 212.175,500.625 214.937,500.138 214.694,499.244 214.531,496.237 214.287,493.556 214.287,492.662 214.287,482.588 226.637,482.588 236.387,482.588 238.337,484.537 238.419,484.213 238.5,482.263 238.581,480.556 238.987,479.987 240.288,478.037 244.025,477.631 249.144,477.144 249.387,477.063 L262.469,477.063 Q264.338,475.275 264.906,473.487 264.987,473.162 265.069,472.838 265.719,457.644 270.431,447.731 276.119,435.463 286.275,435.463 288.387,435.463 292.531,437.656 296.188,439.525 296.838,440.338 294.725,428.963 304.638,417.019 314.631,404.912 326.575,404.912 330.231,404.912 333.806,408.569 335.838,410.6 339.088,414.662 336.65,405.969 349.244,397.925 363.869,388.662 389.463,388.662 394.256,388.662 397.912,391.669 401.244,394.35 406.362,401.987 406.362,402.069 408.394,405.644 410.1,408.65 410.912,409.463 414,405.806 417.819,403.775 421.638,401.662 425.375,401.662 444.063,401.662 448.856,406.862 450.888,409.056 451.862,413.444 452.513,416.044 453.487,422.787 L453.487,423.112 Q461.694,412.144 464.456,409.95 469.981,405.563 479.813,405.563 482.169,405.563 485.419,408.081 487.287,409.463 490.537,412.713 491.513,404.588 495.575,401.5 499.638,398.412 509.225,398.412 517.35,398.412 528.238,403.369 540.181,408.731 538.475,414.825 540.831,409.138 544.813,407.35 547.494,406.213 554.4,406.213 572.762,406.213 582.512,413.362 589.988,418.806 589.988,425.388 589.988,428.15 589.175,429.694 588.688,430.506 588.038,431.237 593.481,429.287 600.713,429.287 611.6,429.287 617.938,437.412 622.813,443.75 622.813,450.575 622.813,455.044 619.563,459.35 616.069,463.331 615.338,464.713 616.719,465.281 622.894,466.419 629.313,467.8 632.888,470.237 639.063,474.463 641.5,480.313 643.287,484.7 643.287,491.362 643.287,495.019 636.625,501.031 629.963,506.231 629.963,506.313 629.963,507.612 630.938,508.588 M318.287,450.737 Q326.575,443.588 341.688,443.588 346.4,443.588 350.787,445.619 353.225,446.756 356.963,449.112 359.563,450.494 359.888,450.737 360.537,451.144 359.563,451.063 M398.563,445.862 Q401.894,440.987 408.719,437.981 415.3,435.138 422.612,435.138 429.112,435.138 433.987,445.537 433.987,446.188 433.419,446.838 432.769,447.569 432.037,447.813 M538.475,414.825 Q538.313,415.394 537.988,415.963 M493.463,439.688 Q503.05,431.563 523.525,431.563 524.094,431.563 527.831,435.625 531.488,439.688 531.488,440.338 531.488,448.706 528.319,453.094 526.206,456.019 523.362,456.588 M578.938,448.138 Q591.45,447.813 594.7,450.331 598.113,452.931 598.113,462.925 598.113,472.756 589.744,479.175 583.081,484.294 578.288,483.888 M600.387,480.963 Q612.006,480.8 612.981,481.125 617.288,482.425 617.288,490.713 617.288,493.475 614.769,496.075 613.144,497.619 608.838,500.463 607.7,501.194 605.75,502.9 603.963,504.362 603.313,504.688" test="Tween 6"/>
      </g>
      <g id="Tween-5">
        <g id="Tin-can-Rubbish">
          <path fill="#000" stroke="none" d="M258.781,445.356 Q246.025,460.713 239.769,466.481 224.9,480.213 213.2,480.537 L213.525,482.813 Q213.525,484.356 213.281,485.819 212.956,487.281 212.956,487.769 212.956,488.906 214.581,489.556 215.963,490.044 217.913,490.044 221.813,490.044 230.913,485.575 L231.319,485.575 Q226.931,491.425 226.931,493.131 226.931,497.925 232.7,497.925 236.194,497.925 236.681,497.763 237.169,497.519 239.444,495.813 239.85,494.919 240.256,494.513 L240.256,495.081 Q239.769,495.406 239.444,495.813 238.875,496.706 238.144,498.169 236.356,501.988 236.356,504.75 236.356,509.056 242.613,511.169 248.219,513.038 246.431,519.05 252.281,519.294 253.906,521.487 254.313,522.056 254.719,523.112 L254.719,523.194 Q269.425,517.263 275.763,512.631 281.856,508.081 284.375,501.744 281.856,508.081 275.763,512.631 269.425,517.263 254.719,523.194 255.288,524.819 255.938,527.5 256.669,529.369 260.325,532.213 262.681,534.163 261.462,538.063 L267.069,538.063 Q289.738,528.719 313.869,500.2 337.269,472.656 342.956,450.394 L342.956,445.356 Q339.219,444.544 334.588,445.356 L331.256,445.356 Q332.881,441.619 328.331,439.75 322.075,438.125 319.069,437.069 317.363,436.419 316.225,434.063 315.169,431.056 314.519,429.594 312.081,424.15 305.581,425.856 L305.581,421.388 Q306.719,420.25 306.719,418.625 306.719,416.35 302.25,415.944 297.213,415.863 296.075,415.781 296.075,414.969 296.644,412.938 297.213,410.988 297.213,410.338 297.213,407.331 292.175,406.925 294.45,402.781 290.713,400.506 287.463,399.287 285.431,398.475 287.788,399.938 287.788,403.269 287.788,413.75 279.744,422.931 267.394,435.037 258.781,445.356 M293.15,444.625 Q290.55,449.013 288.925,449.338 290.55,449.013 293.15,444.625 294.775,441.781 299.975,432.6 294.775,441.781 293.15,444.625 M325.325,457.219 Q322.238,461.931 318.5,463.231 322.238,461.931 325.325,457.219 328.494,452.344 330.119,445.356 328.494,452.344 325.325,457.219 M270.969,471.6 Q268.856,475.013 265.281,481.431 262.844,485.9 262.031,486.713 262.844,485.9 265.281,481.431 268.856,475.013 270.969,471.6 M225.713,442.188 Q212.631,458.925 211.169,467.375 210.356,471.519 210.113,473.794 209.706,476.15 209.869,476.638 209.788,476.881 209.706,477.125 209.625,477.775 209.625,478.263 209.625,479.563 210.113,479.969 210.763,480.537 212.631,480.537 212.875,480.537 213.2,480.537 224.9,480.213 239.769,466.481 246.025,460.713 258.781,445.356 267.394,435.037 279.744,422.931 287.788,413.75 287.788,403.269 287.788,399.938 285.431,398.475 284.456,397.906 283.238,397.662 282.019,397.419 280.475,397.419 273.406,397.419 256.1,411.475 238.794,425.45 225.713,442.188Z" test="Tin can Rubbish" stroke-width="1.625"/>
          <path id="Layer8_0_1_STROKES" stroke="#009EFF" stroke-width="1.625" stroke-linejoin="round" stroke-linecap="round" fill="none" d="M210.113,473.794 Q209.706,476.15 209.869,476.638 M285.431,398.475 Q287.463,399.287 290.713,400.506 294.45,402.781 292.175,406.925 297.213,407.331 297.213,410.338 297.213,410.988 296.644,412.938 296.075,414.969 296.075,415.781 297.213,415.863 302.25,415.944 306.719,416.35 306.719,418.625 306.719,420.25 305.581,421.388 L305.581,425.856 Q312.081,424.15 314.519,429.594 315.169,431.056 316.225,434.063 317.363,436.419 319.069,437.069 322.075,438.125 328.331,439.75 332.881,441.619 331.256,445.356 L334.588,445.356 Q339.219,444.544 342.956,445.356 L342.956,450.394 Q337.269,472.656 313.869,500.2 289.738,528.719 267.069,538.063 L261.462,538.063 Q262.681,534.163 260.325,532.213 256.669,529.369 255.938,527.5 255.288,524.819 254.719,523.194 L254.719,523.112 Q254.313,522.056 253.906,521.487 252.281,519.294 246.431,519.05 248.219,513.038 242.613,511.169 236.356,509.056 236.356,504.75 236.356,501.988 238.144,498.169 238.875,496.706 239.444,495.813 237.169,497.519 236.681,497.763 236.194,497.925 232.7,497.925 226.931,497.925 226.931,493.131 226.931,491.425 231.319,485.575 L230.913,485.575 Q221.813,490.044 217.913,490.044 215.963,490.044 214.581,489.556 212.956,488.906 212.956,487.769 212.956,487.281 213.281,485.819 213.525,484.356 213.525,482.813 M299.975,432.6 Q294.775,441.781 293.15,444.625 290.55,449.013 288.925,449.338 M330.119,445.356 Q328.494,452.344 325.325,457.219 322.238,461.931 318.5,463.231 M270.969,471.6 Q268.856,475.013 265.281,481.431 262.844,485.9 262.031,486.713 M239.444,495.813 Q239.769,495.406 240.256,495.081 L240.256,494.513 Q239.85,494.919 239.444,495.813Z M254.719,523.194 Q269.425,517.263 275.763,512.631 281.856,508.081 284.375,501.744" test="Tin can Rubbish"/>
          <path id="Layer8_0_2_STROKES" stroke="#FFF" stroke-width="1.625" stroke-linejoin="round" stroke-linecap="round" fill="none" d="M285.431,398.475 Q284.456,397.906 283.238,397.662 282.019,397.419 280.475,397.419 273.406,397.419 256.1,411.475 238.794,425.45 225.713,442.188 212.631,458.925 211.169,467.375 210.356,471.519 210.113,473.794 M209.869,476.638 Q209.788,476.881 209.706,477.125 209.625,477.775 209.625,478.263 209.625,479.563 210.113,479.969 210.763,480.537 212.631,480.537 212.875,480.537 213.2,480.537 224.9,480.213 239.769,466.481 246.025,460.713 258.781,445.356 267.394,435.037 279.744,422.931 287.788,413.75 287.788,403.269 287.788,399.938 285.431,398.475" test="Tin can Rubbish"/>
        </g>
        <g id="Bottle">
          <path fill="#000" stroke="none" d="M573.731,529.113 Q571.213,528.788 562.275,526.919 554.475,525.213 550.088,525.294 541.963,525.375 530.019,518.469 518.237,511.725 507.269,500.919 499.469,493.2 492.562,481.581 487.037,471.1 486.469,470.288 483.787,466.55 481.675,462.65 478.019,456.15 478.262,452.981 459.819,478.738 438.937,502.381 416.431,527.731 399.775,556.981 384.419,583.956 410.581,602.644 437.8,622.063 468.756,633.275 485.9,639.613 499.631,625.556 523.031,601.588 541.637,572.988 556.262,550.4 573.325,529.6 L573.731,529.113 M525.306,417.8 Q525.144,417.719 524.981,417.719 508.406,417.069 496.381,430.069 486.469,440.794 478.262,452.981 478.019,456.15 481.675,462.65 483.787,466.55 486.469,470.288 487.037,471.1 492.562,481.581 499.469,493.2 507.269,500.919 518.237,511.725 530.019,518.469 541.963,525.375 550.088,525.294 554.475,525.213 562.275,526.919 571.213,528.788 573.731,529.113 591.769,511.644 600.137,488.244 600.463,487.431 600.787,486.619 599.975,486.538 599.65,486.619 597.294,486.7 596.4,486.781 595.181,486.863 593.231,487.35 591.363,487.838 588.519,487.838 581.531,487.838 563.981,475.975 547.162,464.681 537.738,454.363 529.938,445.75 527.744,435.269 526.606,424.381 525.306,417.8 M605.744,422.919 Q595.831,415.038 589.25,399.925 560.569,420.075 525.306,417.8 526.606,424.381 527.744,435.269 529.938,445.75 537.738,454.363 547.162,464.681 563.981,475.975 581.531,487.838 588.519,487.838 591.363,487.838 593.231,487.35 595.181,486.863 596.4,486.781 597.294,486.7 599.65,486.619 599.975,486.538 600.787,486.619 592.581,453.713 619.069,432.588 619.8,432.019 620.531,431.288 608.181,424.869 605.744,422.919 M589.088,398.056 L589.25,399.925 Q595.831,415.038 605.744,422.919 608.181,424.869 620.531,431.288 L625.244,432.1 Q628.819,430.638 633.287,421.863 637.512,413.494 637.512,409.188 637.512,403.988 625.813,391.313 620.206,385.219 615.981,382.05 611.35,378.475 608.506,378.475 603.875,378.475 596.481,387.575 593.637,391.069 589.088,398.056 M612.975,387.169 Q612.488,386.438 612.406,386.356 612.488,386.438 612.975,387.169 614.194,388.875 618.094,394.644 624.838,403.5 630.85,407.481 624.838,403.5 618.094,394.644 614.194,388.875 612.975,387.169Z" test="Bottle" stroke-width="1.625"/>
          <path id="Layer9_0_1_STROKES" stroke="#FFF" stroke-width="1.625" stroke-linejoin="round" stroke-linecap="round" fill="none" d="M589.25,399.925 Q595.831,415.038 605.744,422.919 608.181,424.869 620.531,431.288 M625.244,432.1 Q628.819,430.638 633.287,421.863 637.512,413.494 637.512,409.188 637.512,403.988 625.813,391.313 620.206,385.219 615.981,382.05 611.35,378.475 608.506,378.475 603.875,378.475 596.481,387.575 593.637,391.069 589.088,398.056 M630.85,407.481 Q624.838,403.5 618.094,394.644 614.194,388.875 612.975,387.169 612.488,386.438 612.406,386.356 M478.262,452.981 Q478.019,456.15 481.675,462.65 483.787,466.55 486.469,470.288 487.037,471.1 492.562,481.581 499.469,493.2 507.269,500.919 518.237,511.725 530.019,518.469 541.963,525.375 550.088,525.294 554.475,525.213 562.275,526.919 571.213,528.788 573.731,529.113 M600.787,486.619 Q599.975,486.538 599.65,486.619 597.294,486.7 596.4,486.781 595.181,486.863 593.231,487.35 591.363,487.838 588.519,487.838 581.531,487.838 563.981,475.975 547.162,464.681 537.738,454.363 529.938,445.75 527.744,435.269 526.606,424.381 525.306,417.8 525.144,416.906 524.981,416.094 M573.731,529.113 Q574.056,529.194 574.219,529.194 574.219,529.438 573.325,529.6" test="Bottle"/>
          <path id="Layer9_0_2_STROKES" stroke="#0F0" stroke-width="1.625" stroke-linejoin="round" stroke-linecap="round" fill="none" d="M525.306,417.8 Q525.144,417.719 524.981,417.719 508.406,417.069 496.381,430.069 486.469,440.794 478.262,452.981 M573.731,529.113 Q591.769,511.644 600.137,488.244 600.463,487.431 600.787,486.619 592.581,453.713 619.069,432.588 619.8,432.019 620.531,431.288 M589.25,399.925 Q560.569,420.075 525.306,417.8 M573.325,529.6 Q556.262,550.4 541.637,572.988 523.031,601.588 499.631,625.556 485.9,639.613 468.756,633.275 437.8,622.063 410.581,602.644 384.419,583.956 399.775,556.981 416.431,527.731 438.937,502.381 459.819,478.738 478.262,452.981 M573.325,529.6 L573.731,529.113" test="Bottle"/>
        </g>
        <g id="Banana">
          <path fill="#000" stroke="none" d="M400.038,353.106 L399.225,353.919 Q393.863,361.719 387.363,373.988 382.325,383.331 379.806,385.769 371.438,393.65 360.956,400.231 350.394,406.406 346.25,409.169 326.75,422.088 309.444,449.225 292.3,475.956 293.763,490.094 L293.763,497.081 Q293.925,497.325 294.819,497.325 297.906,497.325 300.588,492.531 302.05,489.85 304.325,484.488 305.219,482.863 309.038,477.663 310.988,474.981 311.231,474.494 320.331,471.975 334.55,462.469 350.881,451.663 357.95,441.506 365.1,431.269 381.188,418.756 396.706,406.65 397.519,405.35 L398.088,405.35 398.088,408.6 Q393.863,426.8 373.794,461.006 363.313,478.8 360.794,483.756 354.944,494.806 354.619,500.169 355.106,500.169 356.731,500.494 358.275,500.738 359.006,500.738 365.263,500.738 382.894,484.163 401.256,466.938 409.381,452.15 411.088,448.981 413.119,436.631 415.313,423.388 415.963,421.438 418.075,415.75 418.563,414.044 419.213,411.444 420.431,407.056 426.606,416.725 434.325,425.5 439.688,431.756 460.569,455.481 469.994,466.531 474.544,490.013 477.306,504.313 477.306,513.494 484.456,513.575 488.681,504.15 492.419,495.619 492.419,482.863 492.419,470.756 488.194,460.763 486.081,455.806 478.363,443.456 471.131,431.838 467.475,422.25 461.95,407.706 450.981,398.688 439.931,389.588 435.95,380.65 431.888,371.713 428.231,364.481 424.575,357.169 425.713,355.138 L424.413,353.675 Q422.138,355.706 418.481,357.006 414.338,358.388 410.438,358.388 408.569,358.388 404.263,356.194 400.769,354.406 400.038,353.106 M419.294,312.075 Q412.225,309.963 410.031,317.194 409.381,319.469 408.813,329.381 408.163,339.05 403.856,344.331 399.794,349.45 399.794,352.456 399.794,352.781 400.038,353.106 400.769,354.406 404.263,356.194 408.569,358.388 410.438,358.388 414.338,358.388 418.481,357.006 422.138,355.706 424.413,353.675 425.713,352.538 426.525,351.156 426.038,350.831 425.55,350.588 423.681,349.369 422.381,348.394 419.538,346.444 418.644,345.469 417.1,343.681 417.1,332.713 417.1,325.4 419.294,312.075Z" test="Banana" stroke-width="1.625"/>
          <path id="Layer10_0_1_STROKES" stroke="#FF0" stroke-width="1.625" stroke-linejoin="round" stroke-linecap="round" fill="none" d="M425.713,355.138 Q424.575,357.169 428.231,364.481 431.888,371.713 435.95,380.65 439.931,389.588 450.981,398.688 461.95,407.706 467.475,422.25 471.131,431.838 478.363,443.456 486.081,455.806 488.194,460.763 492.419,470.756 492.419,482.863 492.419,495.619 488.681,504.15 484.456,513.575 477.306,513.494 477.306,504.313 474.544,490.013 469.994,466.531 460.569,455.481 439.688,431.756 434.325,425.5 426.606,416.725 420.431,407.056 419.213,411.444 418.563,414.044 418.075,415.75 415.963,421.438 415.313,423.388 413.119,436.631 411.088,448.981 409.381,452.15 401.256,466.938 382.894,484.163 365.263,500.738 359.006,500.738 358.275,500.738 356.731,500.494 355.106,500.169 354.619,500.169 354.944,494.806 360.794,483.756 363.313,478.8 373.794,461.006 393.863,426.8 398.088,408.6 L398.088,405.35 397.519,405.35 Q396.706,406.65 381.188,418.756 365.1,431.269 357.95,441.506 350.881,451.663 334.55,462.469 320.331,471.975 311.231,474.494 310.988,474.981 309.038,477.663 305.219,482.863 304.325,484.488 302.05,489.85 300.588,492.531 297.906,497.325 294.819,497.325 293.925,497.325 293.763,497.081 L293.763,490.094 Q292.3,475.956 309.444,449.225 326.75,422.088 346.25,409.169 350.394,406.406 360.956,400.231 371.438,393.65 379.806,385.769 382.325,383.331 387.363,373.988 393.863,361.719 399.225,353.919" test="Banana"/>
          <path id="Layer10_0_2_STROKES" stroke="#FFF" stroke-width="1.625" stroke-linejoin="round" stroke-linecap="round" fill="none" d="M400.038,353.106 Q399.794,352.781 399.794,352.456 399.794,349.45 403.856,344.331 408.163,339.05 408.813,329.381 409.381,319.469 410.031,317.194 412.225,309.963 419.294,312.075 417.1,325.4 417.1,332.713 417.1,343.681 418.644,345.469 419.538,346.444 422.381,348.394 423.681,349.369 425.55,350.588 426.038,350.831 426.525,351.156 425.713,352.538 424.413,353.675 M400.038,353.106 Q400.769,354.406 404.263,356.194 408.569,358.388 410.438,358.388 414.338,358.388 418.481,357.006 422.138,355.706 424.413,353.675" test="Banana"/>
        </g>
      </g>
      <g id="Tween-4">
        <path id="Layer4_0_1_STROKES" stroke="#FFF" stroke-width="1.625" stroke-linejoin="round" stroke-linecap="round" fill="none" d="M546.1,513.788 Q546.1,507.45 555.606,502.494" test="Tween 4"/>
        <g id="Garbage">
          <path fill="#000" stroke="none" d="M438.281,475.669 L436.169,474.45 Q436.006,474.775 435.519,475.669 436.006,474.775 436.169,474.45 436.169,474.287 436.169,474.206 436.169,469.25 433.325,467.3 429.425,464.456 418.294,464.456 406.513,464.456 382.056,476.806 379.213,478.187 374.581,486.963 373.85,488.425 372.956,489.644 372.306,482.412 363.613,477.375 355,472.256 344.356,472.256 332.25,472.256 322.906,477.862 311.125,484.931 311.125,498.175 311.125,498.825 311.206,499.394 305.519,494.031 292.194,494.031 280.981,494.031 274.075,497.525 266.763,501.262 260.344,510.769 255.306,518.162 254.575,523.85 254.169,526.856 254.737,530.269 251.813,523.525 249.375,520.356 245.069,514.669 235.237,514.669 225.975,514.669 219.638,520.275 213.463,525.881 213.463,533.925 213.463,535.387 214.356,547.25 212,551.475 210.619,556.025 208.425,565.044 208.425,573.494 208.425,581.213 214.031,586.088 219.15,590.556 225.731,590.556 228.169,590.556 236.538,589.175 244.825,587.794 250.269,587.794 256.769,587.794 273.263,592.506 289.675,597.219 306.656,597.219 311.613,597.219 351.263,593.644 396.925,589.988 431.7,589.988 439.5,589.906 445.431,589.988 L465.5,591.044 466.313,590.637 Q467.206,590.313 467.938,590.231 472.731,589.988 476.956,587.631 480.125,586.656 482.156,585.762 494.831,580.238 497.513,579.994 L498.081,579.994 Q498.081,579.75 536.025,590.394 577.706,601.2 594.688,601.2 614.188,601.2 623.613,591.206 628.406,586.25 629.219,581.05 629.219,578.45 629.056,578.206 628.975,578.044 628.813,577.881 628.163,577.313 626.456,577.15 628.163,577.313 628.813,577.881 L629.219,577.15 Q631.819,575.525 640.106,572.519 647.094,568.863 647.094,562.119 647.094,557.894 642.056,556.512 L642.625,556.512 Q645.225,553.994 652.05,548.631 657.656,543.431 657.656,538.069 657.656,533.519 654.894,528.075 651.4,521.331 646.281,521.331 637.831,523.362 634.825,523.606 638.725,520.275 638.725,518.569 638.563,515.806 637.019,513.206 634.094,508.088 627.513,508.088 614.594,508.088 609.15,509.956 603.788,511.825 595.175,519.137 593.388,509.875 587.294,503.944 580.956,497.931 572.588,497.931 564.138,497.931 555.606,502.481 L546.1,513.775 Q546.1,515.237 547.156,524.175 546.425,523.769 544.638,523.362 542.931,523.037 541.875,523.037 537.975,523.037 533.344,527.506 531.638,529.213 529.363,533.113 527.25,536.85 526.519,539.206 526.356,539.938 526.194,540.75 525.463,543.675 523.025,545.625 522.294,546.194 521.4,546.519 521.075,546.275 520.831,546.031 516.281,541.563 515.063,535.387 514.413,533.438 513.112,531.325 510.756,527.344 507.019,523.606 515.956,524.581 523.594,521.737 532.125,518.569 533.181,511.906 533.344,510.931 533.344,509.875 533.344,505.65 532.613,503.375 531.069,498.419 525.95,494.031 520.588,489.4 514.819,488.262 512.95,487.856 507.588,487.856 507.669,487.694 512.138,479.812 512.544,479.081 512.869,478.35 L513.6,477.375 Q514.006,476.806 514.088,476.4 514.737,473.069 513.763,469.819 513.194,468.275 510.919,463.481 508.319,458.119 505.15,455.844 497.675,450.481 479.313,450.481 460.056,450.481 443.481,469.169 440.881,472.094 438.281,475.669 M481.75,513.531 Q481.425,514.344 480.775,515.644 481.425,514.344 481.75,513.531 482.4,512.069 482.4,510.931 482.4,504.269 476.55,504.269 473.625,504.269 470.7,505.081 464.85,506.787 464.525,511.094 464.85,506.787 470.7,505.081 473.625,504.269 476.55,504.269 482.4,504.269 482.4,510.931 482.4,512.069 481.75,513.531 M601.675,544.569 Q605.9,547.331 605.9,551.719 605.9,547.331 601.675,544.569 598.181,542.294 594.363,542.294 589,542.294 585.994,544.162 582.825,546.031 582.825,549.444 582.825,546.031 585.994,544.162 589,542.294 594.363,542.294 598.181,542.294 601.675,544.569 M350.45,519.137 Q355.163,521.656 356.3,524.744 355.163,521.656 350.45,519.137 346.063,516.862 342.65,516.862 338.263,516.862 335.094,519.706 330.706,523.769 330.706,532.544 330.706,533.844 330.95,534.575 331.438,535.875 332.9,538.069 331.438,535.875 330.95,534.575 330.706,533.844 330.706,532.544 330.706,523.769 335.094,519.706 338.263,516.862 342.65,516.862 346.063,516.862 350.45,519.137 M416.588,511.906 Q417.725,513.856 417.725,518.894 417.725,527.994 410.575,534.25 402.856,540.912 390.913,540.344 402.856,540.912 410.575,534.25 417.725,527.994 417.725,518.894 417.725,513.856 416.588,511.906 415.288,509.631 411.631,509.631 410.9,509.631 409.844,509.956 408.3,510.444 406.594,510.769 408.3,510.444 409.844,509.956 410.9,509.631 411.631,509.631 415.288,509.631 416.588,511.906Z" test="Garbage" stroke-width="1.625"/>
          <path id="Layer6_0_1_STROKES" stroke="#FFF" stroke-width="1.625" stroke-linejoin="round" stroke-linecap="round" fill="none" d="M436.169,474.45 Q436.006,474.775 435.519,475.669 M628.813,577.881 Q628.975,578.044 629.056,578.206 629.219,578.45 629.219,581.05 628.406,586.25 623.613,591.206 614.188,601.2 594.688,601.2 577.706,601.2 536.025,590.394 498.081,579.75 498.081,579.994 L497.513,579.994 Q494.831,580.238 482.156,585.762 480.125,586.656 476.956,587.631 472.731,589.988 467.938,590.231 467.206,590.313 466.313,590.637 L465.5,591.044 445.431,589.988 Q439.5,589.906 431.7,589.988 396.925,589.988 351.263,593.644 311.613,597.219 306.656,597.219 289.675,597.219 273.263,592.506 256.769,587.794 250.269,587.794 244.825,587.794 236.538,589.175 228.169,590.556 225.731,590.556 219.15,590.556 214.031,586.088 208.425,581.213 208.425,573.494 208.425,565.044 210.619,556.025 212,551.475 214.356,547.25 213.463,535.387 213.463,533.925 213.463,525.881 219.638,520.275 225.975,514.669 235.237,514.669 245.069,514.669 249.375,520.356 251.813,523.525 254.737,530.269 254.169,526.856 254.575,523.85 255.306,518.162 260.344,510.769 266.763,501.262 274.075,497.525 280.981,494.031 292.194,494.031 305.519,494.031 311.206,499.394 311.125,498.825 311.125,498.175 311.125,484.931 322.906,477.862 332.25,472.256 344.356,472.256 355,472.256 363.613,477.375 372.306,482.412 372.956,489.644 373.85,488.425 374.581,486.963 379.213,478.187 382.056,476.806 406.513,464.456 418.294,464.456 429.425,464.456 433.325,467.3 436.169,469.25 436.169,474.206 436.169,474.287 436.169,474.45 M438.281,475.669 Q440.881,472.094 443.481,469.169 460.056,450.481 479.313,450.481 497.675,450.481 505.15,455.844 508.319,458.119 510.919,463.481 513.194,468.275 513.763,469.819 514.737,473.069 514.088,476.4 514.006,476.806 513.6,477.375 L512.869,478.35 Q512.544,479.081 512.138,479.812 507.669,487.694 507.588,487.856 512.95,487.856 514.819,488.262 520.588,489.4 525.95,494.031 531.069,498.419 532.613,503.375 533.344,505.65 533.344,509.875 533.344,510.931 533.181,511.906 532.125,518.569 523.594,521.737 515.956,524.581 507.019,523.606 510.756,527.344 513.112,531.325 514.413,533.438 515.063,535.387 516.281,541.563 520.831,546.031 521.075,546.275 521.4,546.519 522.294,546.194 523.025,545.625 525.463,543.675 526.194,540.75 526.356,539.938 526.519,539.206 527.25,536.85 529.363,533.113 531.638,529.213 533.344,527.506 537.975,523.037 541.875,523.037 542.931,523.037 544.638,523.362 546.425,523.769 547.156,524.175 546.1,515.237 546.1,513.775 M555.606,502.481 Q564.138,497.931 572.588,497.931 580.956,497.931 587.294,503.944 593.388,509.875 595.175,519.137 603.788,511.825 609.15,509.956 614.594,508.088 627.513,508.088 634.094,508.088 637.019,513.206 638.563,515.806 638.725,518.569 638.725,520.275 634.825,523.606 637.831,523.362 646.281,521.331 651.4,521.331 654.894,528.075 657.656,533.519 657.656,538.069 657.656,543.431 652.05,548.631 645.225,553.994 642.625,556.512 L642.056,556.512 Q647.094,557.894 647.094,562.119 647.094,568.863 640.106,572.519 631.819,575.525 629.219,577.15 M626.456,577.15 Q628.163,577.313 628.813,577.881 M464.525,511.094 Q464.85,506.787 470.7,505.081 473.625,504.269 476.55,504.269 482.4,504.269 482.4,510.931 482.4,512.069 481.75,513.531 481.425,514.344 480.775,515.644 M582.825,549.444 Q582.825,546.031 585.994,544.162 589,542.294 594.363,542.294 598.181,542.294 601.675,544.569 605.9,547.331 605.9,551.719 M332.9,538.069 Q331.438,535.875 330.95,534.575 330.706,533.844 330.706,532.544 330.706,523.769 335.094,519.706 338.263,516.862 342.65,516.862 346.063,516.862 350.45,519.137 355.163,521.656 356.3,524.744 M406.594,510.769 Q408.3,510.444 409.844,509.956 410.9,509.631 411.631,509.631 415.288,509.631 416.588,511.906 417.725,513.856 417.725,518.894 417.725,527.994 410.575,534.25 402.856,540.912 390.913,540.344" test="Garbage"/>
        </g>
        <g id="GarbageCloud">
          <path id="Layer7_0_1_STROKES" stroke="#FFF" stroke-width="1.625" stroke-linejoin="round" stroke-linecap="round" fill="none" d="M477.988,397.506 Q480.425,396.206 480.913,395.475 481.888,394.094 481.888,390.275 481.888,385.481 477.744,378.331 473.6,371.181 473.6,364.763 473.6,359.563 479.694,349.488 485.788,339.413 485.788,334.944 485.788,332.344 483.513,329.338 483.188,328.931 480.181,325.519 M574.188,371.831 Q575.163,369.719 579.063,366.225 584.263,361.431 588.488,361.188 589.625,363.463 589.625,365.656 589.625,366.225 584.019,371.831 L574.188,371.831 Q574.025,372.156 573.781,372.888 574.35,373.131 574.919,373.538 577.275,375.081 577.275,376.788 577.275,378.575 576.788,379.063 576.219,379.631 574.269,379.631 572.481,379.631 571.181,378.575 570.044,377.519 570.044,376.219 570.044,375.244 570.45,374.594 566.713,374.594 564.438,374.025 558.913,372.806 558.913,368.988 558.913,366.144 559.969,364.031 561.431,361.188 564.194,361.188 568.094,361.188 570.531,364.681 572.156,367.119 573.375,371.831 L574.188,371.831Z M570.45,374.594 L570.531,374.594 Q571.669,374.594 571.994,374.513 572.4,374.431 572.806,374.025 L572.806,372.888 Q571.75,373.294 571.181,373.7 570.694,374.025 570.45,374.594Z M573.781,372.888 Q572.075,372.075 570.613,372.4 M291.356,357.938 Q291.6,357.125 291.925,356.313 287.131,356.475 282.5,359.725 278.438,362.406 277.056,365.088 L277.056,370.694 282.094,370.694 Q289.731,364.925 290.788,360.05 291.031,358.994 291.356,357.938 290.95,357.938 290.463,357.938 M297.125,359.075 Q295.744,357.856 294.85,357.206 292.656,357.288 292.169,357.369 M294.85,357.206 Q294.119,356.638 293.713,356.394 293.469,356.231 292.738,356.231 292.331,356.231 291.925,356.313 294.038,350.95 298.831,345.019 L303.869,345.019 Q303.869,345.588 304.194,347.05 304.438,348.513 304.438,349.244 304.438,355.5 298.913,356.963 296.475,357.125 294.85,357.206Z M335.638,380.769 Q337.831,376.138 339.375,372.644 342.381,365.9 342.381,363.381 342.381,361.269 337.913,356.8 333.444,352.25 333.444,350.869 333.444,346.888 335.394,340.794 337.344,334.619 337.344,331.938 337.344,326.088 337.019,324.381 336.288,320.075 333.444,318.775 M291.6,359.075 L291.356,360.131 Q291.031,361.431 291.031,362.325 291.031,363.788 292.656,364.519 293.875,365.088 295.013,365.088 295.825,365.088 296.8,364.763 298.669,364.113 298.831,364.031 298.506,360.538 296.231,359.075 294.525,358.1 291.356,357.938" test="GarbageCloud"/>
        </g>
      </g>
      <g id="Drawer">
        <path fill="#000" stroke="none" d="M702.662,670.163 Q702.175,670.65 701.769,671.138 L701.769,698.681 Q702.175,699.088 702.662,699.575 708.594,705.506 716.881,705.669 L717.369,705.669 Q725.981,705.669 732.075,699.575 738.169,693.481 738.169,684.869 738.169,676.256 732.075,670.163 725.981,664.069 717.369,664.069 L716.881,664.069 Q708.594,664.231 702.662,670.163 M152.519,582.819 Q147.319,606.706 148.294,632.95 151.381,706.806 150.244,753.525 149.269,798.944 152.519,811.619 253.269,810.238 352.719,814.463 392.044,813.325 418.206,814.706 444.775,816.088 463.219,816.088 470.287,816.088 477.519,816.006 487.675,817.225 497.75,817.063 516.275,815.6 534.637,812.919 553.65,810.563 572.906,812.756 591.35,814.869 609.631,814.381 628.806,813.813 647.819,812.675 670.081,812.269 701.769,811.619 L701.769,705.669 701.769,698.681 701.769,671.138 Q701.688,667.563 701.688,664.069 700.631,608.981 701.769,554.219 L666.669,554.219 666.669,582.819 581.519,579.65 Q356.05,587.044 152.519,582.819Z" test="Drawer" stroke-width="1.625"/>
        <path id="Layer3_0_1_STROKES" stroke="#F60" stroke-width="3.25" stroke-linejoin="round" stroke-linecap="round" fill="none" d="M701.769,698.681 L701.769,705.669 701.769,811.619 Q670.081,812.269 647.819,812.675 628.806,813.813 609.631,814.381 591.35,814.869 572.906,812.756 553.65,810.563 534.637,812.919 516.275,815.6 497.75,817.063 487.675,817.225 477.519,816.006 470.287,816.088 463.219,816.088 444.775,816.088 418.206,814.706 392.044,813.325 352.719,814.463 253.269,810.238 152.519,811.619 149.269,798.944 150.244,753.525 151.381,706.806 148.294,632.95 147.319,606.706 152.519,582.819 356.05,587.044 581.519,579.65 L666.669,582.819 666.669,554.219 701.769,554.219 Q700.631,608.981 701.688,664.069 701.688,667.563 701.769,671.138 702.175,670.65 702.662,670.163 708.594,664.231 716.881,664.069 L717.369,664.069 Q725.981,664.069 732.075,670.163 738.169,676.256 738.169,684.869 738.169,693.481 732.075,699.575 725.981,705.669 717.369,705.669 L716.881,705.669 Q708.594,705.506 702.662,699.575 702.175,699.088 701.769,698.681 L701.769,671.138" test="Drawer"/>
      </g>
      <g id="DrawersCabinetFront">
        <path fill="#000" stroke="none" d="M193.919,973.394 Q194.325,973.8 194.813,974.288 200.744,980.219 209.031,980.381 L209.519,980.381 Q218.131,980.381 224.225,974.288 230.319,968.194 230.319,959.581 230.319,950.969 224.225,944.875 218.131,938.781 209.519,938.781 L209.031,938.781 Q200.744,938.944 194.813,944.875 194.325,945.363 193.919,945.85 L193.919,973.394 M193.919,828.931 L158.819,828.931 158.819,857.531 73.669,854.363 Q-151.8,861.756 -355.331,857.531 -360.531,881.419 -359.556,907.663 -356.469,981.519 -357.606,1028.238 -358.581,1073.656 -355.331,1086.331 -254.581,1084.95 -155.131,1089.175 -115.806,1088.038 -89.644,1089.419 -63.075,1090.8 -44.631,1090.8 -37.562,1090.8 -30.331,1090.719 -20.175,1091.938 -10.1,1091.775 8.425,1090.313 26.787,1087.631 45.8,1085.275 65.056,1087.469 83.5,1089.581 101.781,1089.094 120.956,1088.525 139.969,1087.388 162.231,1086.981 193.919,1086.331 L193.919,980.381 193.919,973.394 193.919,945.85 Q193.837,942.275 193.837,938.781 192.781,883.694 193.919,828.931Z" test="DrawersCabinetFront" stroke-width="1.625"/>
        <path id="Layer2_0_1_STROKES" stroke="#F60" stroke-width="3.25" stroke-linejoin="round" stroke-linecap="round" fill="none" d="M193.919,973.394 L193.919,980.381 193.919,1086.331 Q162.231,1086.981 139.969,1087.388 120.956,1088.525 101.781,1089.094 83.5,1089.581 65.056,1087.469 45.8,1085.275 26.787,1087.631 8.425,1090.313 -10.1,1091.775 -20.175,1091.938 -30.331,1090.719 -37.562,1090.8 -44.631,1090.8 -63.075,1090.8 -89.644,1089.419 -115.806,1088.038 -155.131,1089.175 -254.581,1084.95 -355.331,1086.331 -358.581,1073.656 -357.606,1028.238 -356.469,981.519 -359.556,907.663 -360.531,881.419 -355.331,857.531 -151.8,861.756 73.669,854.363 L158.819,857.531 158.819,828.931 193.919,828.931 Q192.781,883.694 193.837,938.781 193.837,942.275 193.919,945.85 194.325,945.363 194.813,944.875 200.744,938.944 209.031,938.781 L209.519,938.781 Q218.131,938.781 224.225,944.875 230.319,950.969 230.319,959.581 230.319,968.194 224.225,974.288 218.131,980.381 209.519,980.381 L209.031,980.381 Q200.744,980.219 194.813,974.288 194.325,973.8 193.919,973.394 L193.919,945.85" test="DrawersCabinetFront"/>
        <path fill="#000" stroke="none" d="M117.3,541.306 Q82.361,540.014 48.725,538.056 15.182,536.183 -73.637,536.513 -162.395,536.93 -203.394,537.406 -244.292,537.964 -296.181,537.488 -348.089,537.005 -378.081,540.656 -380.194,557.881 -382.631,696.413 -385.15,840.306 -382.794,868.663 -381.9,880.2 -387.831,984.119 -393.678,1088.036 -389.212,1090.313 -384.672,1092.591 -372.637,1091.694 -368.128,1091.416 -362.887,1090.719 -352.812,1089.419 -342.656,1088.119 -294.963,1083.244 -247.187,1084.706 -225.026,1084.853 -201.525,1085.113 -83.469,1086.494 -67.869,1086.494 -53.406,1086.494 52.462,1090.556 53.681,1090.638 54.981,1090.638 58.313,1090.8 61.644,1090.881 66.356,1091.044 70.906,1091.125 156.462,1093.644 158.413,1090.556 160.688,1086.981 160.85,1072.844 160.769,1052.694 160.769,1039.613 160.769,944.469 161.988,911.4 162.556,895.15 160.769,819.913 159.063,744.188 159.631,725.256 160.686,690.247 159.875,615.975 159.147,541.691 155.731,542.119 152.314,542.621 117.3,541.306Z" test="DrawersCabinetFront" stroke-width="1.625"/>
        <path id="Layer1_0_1_STROKES" stroke="#F60" stroke-width="3.25" stroke-linejoin="round" stroke-linecap="round" fill="none" d="M-378.081,540.656 Q-348.089,537.005 -296.181,537.488 -244.292,537.964 -203.353,537.447 -162.395,536.93 -73.597,536.553 15.182,536.183 48.766,538.097 82.361,540.014 117.341,541.306 152.314,542.621 155.731,542.159 159.147,541.691 159.916,615.975 160.686,690.247 159.631,725.256 159.063,744.188 160.769,819.913 162.556,895.15 161.988,911.4 160.769,944.469 160.769,1039.613 160.769,1052.694 160.85,1072.844 160.688,1086.981 158.413,1090.556 156.462,1093.644 70.906,1091.125 66.356,1091.044 61.644,1090.881 58.313,1090.8 54.981,1090.638 53.681,1090.638 52.462,1090.556 -53.406,1086.494 -67.869,1086.494 -83.469,1086.494 -201.525,1085.113 -225.026,1084.853 -247.187,1084.706 -294.963,1083.244 -342.656,1088.119 -352.812,1089.419 -362.887,1090.759 -368.128,1091.416 -372.597,1091.734 -384.672,1092.591 -389.172,1090.313 -393.678,1088.036 -387.791,984.119 -381.9,880.2 -382.794,868.663 -385.15,840.306 -382.631,696.413 -380.194,557.881 -378.081,540.656Z" test="DrawersCabinetFront"/>
      </g>
    </g>
  </g>
</svg>