<?xml version="1.0" encoding="utf-8"?>
<svg id="EdithAnim12" image-rendering="inherit" baseProfile="basic" version="1.1" x="0px" y="0px" width="800" height="600" xmlns="http://www.w3.org/2000/svg" xmlns:xlink="http://www.w3.org/1999/xlink">
  <g id="21_GarbageDrawerf168r1" overflow="visible">
    <g id="GarbageDrawerGroupf168r1">
      <g id="Tween-6">
        <path fill="#000" stroke="none" d="M292.531,476.956 Q288.387,474.763 286.275,474.763 276.119,474.763 270.431,487.031 265.719,496.944 265.069,512.138 264.987,512.463 264.906,512.788 264.338,514.575 262.469,516.363 L249.387,516.363 Q249.144,516.444 244.025,516.931 240.288,517.338 238.987,519.288 238.581,519.856 238.5,521.563 238.419,523.513 238.337,523.838 236.387,521.888 226.637,521.888 214.287,521.888 214.287,531.963 214.287,532.856 214.531,535.538 214.694,538.544 214.937,539.438 212.175,539.925 209.412,543.256 205.513,547.806 205.513,554.875 205.513,556.256 206.406,559.831 206.894,561.863 207.787,565.438 208.356,567.956 208.925,568.85 210.631,571.288 214.937,571.938 216.075,572.1 229.725,575.756 247.275,579.738 267.913,582.013 275.713,582.906 327.713,590.706 367.769,596.719 395.313,597.938 423.831,599.238 462.019,602.325 488.75,604.438 512.475,604.438 533.356,604.438 565.206,598.344 598.031,592.169 607.213,585.913 610.706,583.556 614.2,582.581 618.019,581.525 619.887,580.388 626.713,576 628.338,573.563 632.806,566.738 633.781,563.813 634.188,562.594 634.188,559.1 634.188,555.444 633.213,552.925 631.75,550.163 630.938,548.538 L630.938,547.888 Q629.963,546.913 629.963,545.613 629.963,545.531 636.625,540.331 643.287,534.319 643.287,530.663 643.287,524 641.5,519.613 639.063,513.763 632.888,509.538 629.313,507.1 622.894,505.719 616.719,504.581 615.338,504.013 616.069,502.631 619.563,498.65 622.813,494.344 622.813,489.875 622.813,483.05 617.938,476.713 611.6,468.588 600.713,468.588 593.481,468.588 588.038,470.538 588.688,469.806 589.175,468.994 589.988,467.45 589.988,464.688 589.988,458.106 582.512,452.663 572.762,445.513 554.4,445.513 L544.813,446.65 Q540.831,448.438 538.475,454.125 538.313,454.694 537.988,455.263 538.313,454.694 538.475,454.125 540.181,448.031 528.238,442.669 517.35,437.713 509.225,437.713 499.638,437.713 495.575,440.8 491.513,443.888 490.537,452.013 487.287,448.763 485.419,447.381 482.169,444.863 479.813,444.863 469.981,444.863 464.456,449.25 461.694,451.444 453.487,462.413 L453.487,462.088 Q452.513,455.344 451.862,452.744 450.888,448.356 448.856,446.163 444.063,440.963 425.375,440.963 421.638,440.963 417.819,443.075 414,445.106 410.912,448.763 410.1,447.95 408.394,444.944 406.362,441.369 406.362,441.288 401.244,433.65 397.912,430.969 394.256,427.963 389.463,427.963 363.869,427.963 349.244,437.225 336.65,445.269 339.088,453.963 335.838,449.9 333.806,447.869 330.231,444.213 326.575,444.213 314.631,444.213 304.638,456.319 294.725,468.263 296.838,479.638 296.188,478.825 292.531,476.956 M350.787,484.919 Q353.225,486.056 356.963,488.413 359.563,489.794 359.888,490.038 360.537,490.444 359.563,490.363 360.537,490.444 359.888,490.038 359.563,489.794 356.963,488.413 353.225,486.056 350.787,484.919 346.4,482.888 341.688,482.888 326.575,482.888 318.287,490.038 326.575,482.888 341.688,482.888 346.4,482.888 350.787,484.919 M408.719,477.281 Q415.3,474.438 422.612,474.438 429.112,474.438 433.987,484.838 433.987,485.488 433.419,486.138 432.769,486.869 432.037,487.113 432.769,486.869 433.419,486.138 433.987,485.488 433.987,484.838 429.112,474.438 422.612,474.438 415.3,474.438 408.719,477.281 401.894,480.288 398.563,485.163 401.894,480.288 408.719,477.281 M523.525,470.863 Q524.094,470.863 527.831,474.925 531.488,478.988 531.488,479.638 531.488,488.006 528.319,492.394 526.206,495.319 523.362,495.888 526.206,495.319 528.319,492.394 531.488,488.006 531.488,479.638 531.488,478.988 527.831,474.925 524.094,470.863 523.525,470.863 503.05,470.863 493.463,478.988 503.05,470.863 523.525,470.863 M594.7,489.631 Q598.113,492.231 598.113,502.225 598.113,512.056 589.744,518.475 583.081,523.594 578.288,523.188 583.081,523.594 589.744,518.475 598.113,512.056 598.113,502.225 598.113,492.231 594.7,489.631 591.45,487.113 578.938,487.438 591.45,487.113 594.7,489.631 M600.387,520.263 Q612.006,520.1 612.981,520.425 617.288,521.725 617.288,530.013 617.288,532.775 614.769,535.375 613.144,536.919 608.838,539.763 607.7,540.494 605.75,542.2 603.963,543.663 603.313,543.988 603.963,543.663 605.75,542.2 607.7,540.494 608.838,539.763 613.144,536.919 614.769,535.375 617.288,532.775 617.288,530.013 617.288,521.725 612.981,520.425 612.006,520.1 600.387,520.263Z" test="Tween 6" stroke-width="1.625"/>
        <path id="Layer5_0_1_STROKES" stroke="#FFF" stroke-width="1.625" stroke-linejoin="round" stroke-linecap="round" fill="none" d="M630.938,548.538 Q631.75,550.163 633.213,552.925 634.188,555.444 634.188,559.1 634.188,562.594 633.781,563.813 632.806,566.738 628.338,573.563 626.713,576 619.887,580.388 618.019,581.525 614.2,582.581 610.706,583.556 607.213,585.913 598.031,592.169 565.206,598.344 533.356,604.438 512.475,604.438 488.75,604.438 462.019,602.325 423.831,599.238 395.313,597.938 367.769,596.719 327.713,590.706 275.713,582.906 267.913,582.013 247.275,579.738 229.725,575.756 216.075,572.1 214.937,571.938 210.631,571.288 208.925,568.85 208.356,567.956 207.787,565.438 206.894,561.863 206.406,559.831 205.513,556.256 205.513,554.875 205.513,547.806 209.412,543.256 212.175,539.925 214.937,539.438 214.694,538.544 214.531,535.538 214.287,532.856 214.287,531.963 214.287,521.888 226.637,521.888 236.387,521.888 238.337,523.838 238.419,523.513 238.5,521.563 238.581,519.856 238.987,519.288 240.288,517.338 244.025,516.931 249.144,516.444 249.387,516.363 L262.469,516.363 Q264.338,514.575 264.906,512.788 264.987,512.463 265.069,512.138 265.719,496.944 270.431,487.031 276.119,474.763 286.275,474.763 288.387,474.763 292.531,476.956 296.188,478.825 296.838,479.638 294.725,468.263 304.638,456.319 314.631,444.213 326.575,444.213 330.231,444.213 333.806,447.869 335.838,449.9 339.088,453.963 336.65,445.269 349.244,437.225 363.869,427.963 389.463,427.963 394.256,427.963 397.912,430.969 401.244,433.65 406.362,441.288 406.362,441.369 408.394,444.944 410.1,447.95 410.912,448.763 414,445.106 417.819,443.075 421.638,440.963 425.375,440.963 444.063,440.963 448.856,446.163 450.888,448.356 451.862,452.744 452.513,455.344 453.487,462.088 L453.487,462.413 Q461.694,451.444 464.456,449.25 469.981,444.863 479.813,444.863 482.169,444.863 485.419,447.381 487.287,448.763 490.537,452.013 491.513,443.888 495.575,440.8 499.638,437.713 509.225,437.713 517.35,437.713 528.238,442.669 540.181,448.031 538.475,454.125 540.831,448.438 544.813,446.65 547.494,445.513 554.4,445.513 572.762,445.513 582.512,452.663 589.988,458.106 589.988,464.688 589.988,467.45 589.175,468.994 588.688,469.806 588.038,470.538 593.481,468.588 600.713,468.588 611.6,468.588 617.938,476.713 622.813,483.05 622.813,489.875 622.813,494.344 619.563,498.65 616.069,502.631 615.338,504.013 616.719,504.581 622.894,505.719 629.313,507.1 632.888,509.538 639.063,513.763 641.5,519.613 643.287,524 643.287,530.663 643.287,534.319 636.625,540.331 629.963,545.531 629.963,545.613 629.963,546.913 630.938,547.888 M318.287,490.038 Q326.575,482.888 341.688,482.888 346.4,482.888 350.787,484.919 353.225,486.056 356.963,488.413 359.563,489.794 359.888,490.038 360.537,490.444 359.563,490.363 M398.563,485.163 Q401.894,480.288 408.719,477.281 415.3,474.438 422.612,474.438 429.112,474.438 433.987,484.838 433.987,485.488 433.419,486.138 432.769,486.869 432.037,487.113 M538.475,454.125 Q538.313,454.694 537.988,455.263 M493.463,478.988 Q503.05,470.863 523.525,470.863 524.094,470.863 527.831,474.925 531.488,478.988 531.488,479.638 531.488,488.006 528.319,492.394 526.206,495.319 523.362,495.888 M578.938,487.438 Q591.45,487.113 594.7,489.631 598.113,492.231 598.113,502.225 598.113,512.056 589.744,518.475 583.081,523.594 578.288,523.188 M600.387,520.263 Q612.006,520.1 612.981,520.425 617.288,521.725 617.288,530.013 617.288,532.775 614.769,535.375 613.144,536.919 608.838,539.763 607.7,540.494 605.75,542.2 603.963,543.663 603.313,543.988" test="Tween 6"/>
      </g>
      <g id="Tween-5">
        <g id="Tin-can-Rubbish">
          <path fill="#000" stroke="none" d="M258.781,493.506 Q246.025,508.863 239.769,514.631 224.9,528.363 213.2,528.688 L213.525,530.963 Q213.525,532.506 213.281,533.969 212.956,535.431 212.956,535.919 212.956,537.056 214.581,537.706 215.963,538.194 217.913,538.194 221.813,538.194 230.913,533.725 L231.319,533.725 Q226.931,539.575 226.931,541.281 226.931,546.075 232.7,546.075 236.194,546.075 236.681,545.913 237.169,545.669 239.444,543.963 239.85,543.069 240.256,542.663 L240.256,543.231 Q239.769,543.556 239.444,543.963 238.875,544.856 238.144,546.319 236.356,550.138 236.356,552.9 236.356,557.206 242.613,559.319 248.219,561.188 246.431,567.2 252.281,567.444 253.906,569.638 254.313,570.206 254.719,571.263 L254.719,571.344 Q269.425,565.413 275.763,560.781 281.856,556.231 284.375,549.894 281.856,556.231 275.763,560.781 269.425,565.413 254.719,571.344 255.288,572.969 255.938,575.65 256.669,577.519 260.325,580.363 262.681,582.313 261.462,586.213 L267.069,586.213 Q289.738,576.869 313.869,548.35 337.269,520.806 342.956,498.544 L342.956,493.506 Q339.219,492.694 334.588,493.506 L331.256,493.506 Q332.881,489.769 328.331,487.9 322.075,486.275 319.069,485.219 317.363,484.569 316.225,482.213 315.169,479.206 314.519,477.744 312.081,472.3 305.581,474.006 L305.581,469.538 Q306.719,468.4 306.719,466.775 306.719,464.5 302.25,464.094 297.213,464.013 296.075,463.931 296.075,463.119 296.644,461.088 297.213,459.138 297.213,458.488 297.213,455.481 292.175,455.075 294.45,450.931 290.713,448.656 287.463,447.438 285.431,446.625 287.788,448.088 287.788,451.419 287.788,461.9 279.744,471.081 267.394,483.188 258.781,493.506 M293.15,492.775 Q290.55,497.163 288.925,497.488 290.55,497.163 293.15,492.775 294.775,489.931 299.975,480.75 294.775,489.931 293.15,492.775 M325.325,505.369 Q322.238,510.081 318.5,511.381 322.238,510.081 325.325,505.369 328.494,500.494 330.119,493.506 328.494,500.494 325.325,505.369 M270.969,519.75 Q268.856,523.163 265.281,529.581 262.844,534.05 262.031,534.863 262.844,534.05 265.281,529.581 268.856,523.163 270.969,519.75 M225.713,490.338 Q212.631,507.075 211.169,515.525 210.356,519.669 210.113,521.944 209.706,524.3 209.869,524.788 209.788,525.031 209.706,525.275 209.625,525.925 209.625,526.413 209.625,527.713 210.113,528.119 210.763,528.688 212.631,528.688 212.875,528.688 213.2,528.688 224.9,528.363 239.769,514.631 246.025,508.863 258.781,493.506 267.394,483.188 279.744,471.081 287.788,461.9 287.788,451.419 287.788,448.088 285.431,446.625 284.456,446.056 283.238,445.813 282.019,445.569 280.475,445.569 273.406,445.569 256.1,459.625 238.794,473.6 225.713,490.338Z" test="Tin can Rubbish" stroke-width="1.625"/>
          <path id="Layer8_0_1_STROKES" stroke="#009EFF" stroke-width="1.625" stroke-linejoin="round" stroke-linecap="round" fill="none" d="M210.113,521.944 Q209.706,524.3 209.869,524.788 M285.431,446.625 Q287.463,447.438 290.713,448.656 294.45,450.931 292.175,455.075 297.213,455.481 297.213,458.488 297.213,459.138 296.644,461.088 296.075,463.119 296.075,463.931 297.213,464.013 302.25,464.094 306.719,464.5 306.719,466.775 306.719,468.4 305.581,469.538 L305.581,474.006 Q312.081,472.3 314.519,477.744 315.169,479.206 316.225,482.213 317.363,484.569 319.069,485.219 322.075,486.275 328.331,487.9 332.881,489.769 331.256,493.506 L334.588,493.506 Q339.219,492.694 342.956,493.506 L342.956,498.544 Q337.269,520.806 313.869,548.35 289.738,576.869 267.069,586.213 L261.462,586.213 Q262.681,582.313 260.325,580.363 256.669,577.519 255.938,575.65 255.288,572.969 254.719,571.344 L254.719,571.263 Q254.313,570.206 253.906,569.638 252.281,567.444 246.431,567.2 248.219,561.188 242.613,559.319 236.356,557.206 236.356,552.9 236.356,550.138 238.144,546.319 238.875,544.856 239.444,543.963 237.169,545.669 236.681,545.913 236.194,546.075 232.7,546.075 226.931,546.075 226.931,541.281 226.931,539.575 231.319,533.725 L230.913,533.725 Q221.813,538.194 217.913,538.194 215.963,538.194 214.581,537.706 212.956,537.056 212.956,535.919 212.956,535.431 213.281,533.969 213.525,532.506 213.525,530.963 M299.975,480.75 Q294.775,489.931 293.15,492.775 290.55,497.163 288.925,497.488 M330.119,493.506 Q328.494,500.494 325.325,505.369 322.238,510.081 318.5,511.381 M270.969,519.75 Q268.856,523.163 265.281,529.581 262.844,534.05 262.031,534.863 M239.444,543.963 Q239.769,543.556 240.256,543.231 L240.256,542.663 Q239.85,543.069 239.444,543.963Z M254.719,571.344 Q269.425,565.413 275.763,560.781 281.856,556.231 284.375,549.894" test="Tin can Rubbish"/>
          <path id="Layer8_0_2_STROKES" stroke="#FFF" stroke-width="1.625" stroke-linejoin="round" stroke-linecap="round" fill="none" d="M285.431,446.625 Q284.456,446.056 283.238,445.813 282.019,445.569 280.475,445.569 273.406,445.569 256.1,459.625 238.794,473.6 225.713,490.338 212.631,507.075 211.169,515.525 210.356,519.669 210.113,521.944 M209.869,524.788 Q209.788,525.031 209.706,525.275 209.625,525.925 209.625,526.413 209.625,527.713 210.113,528.119 210.763,528.688 212.631,528.688 212.875,528.688 213.2,528.688 224.9,528.363 239.769,514.631 246.025,508.863 258.781,493.506 267.394,483.188 279.744,471.081 287.788,461.9 287.788,451.419 287.788,448.088 285.431,446.625" test="Tin can Rubbish"/>
        </g>
        <g id="Bottle">
          <path fill="#000" stroke="none" d="M573.731,577.263 Q571.213,576.938 562.275,575.069 554.475,573.363 550.088,573.444 541.963,573.525 530.019,566.619 518.237,559.875 507.269,549.069 499.469,541.35 492.562,529.731 487.037,519.25 486.469,518.438 483.787,514.7 481.675,510.8 478.019,504.3 478.262,501.131 459.819,526.888 438.937,550.531 416.431,575.881 399.775,605.131 384.419,632.106 410.581,650.794 437.8,670.213 468.756,681.425 485.9,687.763 499.631,673.706 523.031,649.738 541.637,621.138 556.262,598.55 573.325,577.75 L573.731,577.263 M525.306,465.95 Q525.144,465.869 524.981,465.869 508.406,465.219 496.381,478.219 486.469,488.944 478.262,501.131 478.019,504.3 481.675,510.8 483.787,514.7 486.469,518.438 487.037,519.25 492.562,529.731 499.469,541.35 507.269,549.069 518.237,559.875 530.019,566.619 541.963,573.525 550.088,573.444 554.475,573.363 562.275,575.069 571.213,576.938 573.731,577.263 591.769,559.794 600.137,536.394 600.463,535.581 600.787,534.769 599.975,534.688 599.65,534.769 597.294,534.85 596.4,534.931 595.181,535.013 593.231,535.5 591.363,535.988 588.519,535.988 581.531,535.988 563.981,524.125 547.162,512.831 537.738,502.513 529.938,493.9 527.744,483.419 526.606,472.531 525.306,465.95 M605.744,471.069 Q595.831,463.188 589.25,448.075 560.569,468.225 525.306,465.95 526.606,472.531 527.744,483.419 529.938,493.9 537.738,502.513 547.162,512.831 563.981,524.125 581.531,535.988 588.519,535.988 591.363,535.988 593.231,535.5 595.181,535.013 596.4,534.931 597.294,534.85 599.65,534.769 599.975,534.688 600.787,534.769 592.581,501.863 619.069,480.738 619.8,480.169 620.531,479.438 608.181,473.019 605.744,471.069 M589.088,446.206 L589.25,448.075 Q595.831,463.188 605.744,471.069 608.181,473.019 620.531,479.438 L625.244,480.25 Q628.819,478.788 633.287,470.013 637.512,461.644 637.512,457.338 637.512,452.138 625.813,439.463 620.206,433.369 615.981,430.2 611.35,426.625 608.506,426.625 603.875,426.625 596.481,435.725 593.637,439.219 589.088,446.206 M612.975,435.319 Q612.488,434.588 612.406,434.506 612.488,434.588 612.975,435.319 614.194,437.025 618.094,442.794 624.838,451.65 630.85,455.631 624.838,451.65 618.094,442.794 614.194,437.025 612.975,435.319Z" test="Bottle" stroke-width="1.625"/>
          <path id="Layer9_0_1_STROKES" stroke="#FFF" stroke-width="1.625" stroke-linejoin="round" stroke-linecap="round" fill="none" d="M589.25,448.075 Q595.831,463.188 605.744,471.069 608.181,473.019 620.531,479.438 M625.244,480.25 Q628.819,478.788 633.287,470.013 637.512,461.644 637.512,457.338 637.512,452.138 625.813,439.463 620.206,433.369 615.981,430.2 611.35,426.625 608.506,426.625 603.875,426.625 596.481,435.725 593.637,439.219 589.088,446.206 M630.85,455.631 Q624.838,451.65 618.094,442.794 614.194,437.025 612.975,435.319 612.488,434.588 612.406,434.506 M478.262,501.131 Q478.019,504.3 481.675,510.8 483.787,514.7 486.469,518.438 487.037,519.25 492.562,529.731 499.469,541.35 507.269,549.069 518.237,559.875 530.019,566.619 541.963,573.525 550.088,573.444 554.475,573.363 562.275,575.069 571.213,576.938 573.731,577.263 M600.787,534.769 Q599.975,534.688 599.65,534.769 597.294,534.85 596.4,534.931 595.181,535.013 593.231,535.5 591.363,535.988 588.519,535.988 581.531,535.988 563.981,524.125 547.162,512.831 537.738,502.513 529.938,493.9 527.744,483.419 526.606,472.531 525.306,465.95 525.144,465.056 524.981,464.244 M573.731,577.263 Q574.056,577.344 574.219,577.344 574.219,577.588 573.325,577.75" test="Bottle"/>
          <path id="Layer9_0_2_STROKES" stroke="#0F0" stroke-width="1.625" stroke-linejoin="round" stroke-linecap="round" fill="none" d="M525.306,465.95 Q525.144,465.869 524.981,465.869 508.406,465.219 496.381,478.219 486.469,488.944 478.262,501.131 M573.731,577.263 Q591.769,559.794 600.137,536.394 600.463,535.581 600.787,534.769 592.581,501.863 619.069,480.738 619.8,480.169 620.531,479.438 M589.25,448.075 Q560.569,468.225 525.306,465.95 M573.325,577.75 Q556.262,598.55 541.637,621.138 523.031,649.738 499.631,673.706 485.9,687.763 468.756,681.425 437.8,670.213 410.581,650.794 384.419,632.106 399.775,605.131 416.431,575.881 438.937,550.531 459.819,526.888 478.262,501.131 M573.325,577.75 L573.731,577.263" test="Bottle"/>
        </g>
        <g id="Banana">
          <path fill="#000" stroke="none" d="M400.038,401.256 L399.225,402.069 Q393.863,409.869 387.363,422.138 382.325,431.481 379.806,433.919 371.438,441.8 360.956,448.381 350.394,454.556 346.25,457.319 326.75,470.237 309.444,497.375 292.3,524.106 293.763,538.244 L293.763,545.231 Q293.925,545.475 294.819,545.475 297.906,545.475 300.588,540.681 302.05,538 304.325,532.637 305.219,531.012 309.038,525.813 310.988,523.131 311.231,522.644 320.331,520.125 334.55,510.619 350.881,499.813 357.95,489.656 365.1,479.419 381.188,466.906 396.706,454.8 397.519,453.5 L398.088,453.5 398.088,456.75 Q393.863,474.95 373.794,509.156 363.313,526.95 360.794,531.906 354.944,542.956 354.619,548.319 355.106,548.319 356.731,548.644 358.275,548.887 359.006,548.887 365.263,548.887 382.894,532.313 401.256,515.088 409.381,500.3 411.088,497.131 413.119,484.781 415.313,471.537 415.963,469.588 418.075,463.9 418.563,462.194 419.213,459.594 420.431,455.206 426.606,464.875 434.325,473.65 439.688,479.906 460.569,503.631 469.994,514.681 474.544,538.163 477.306,552.463 477.306,561.644 484.456,561.725 488.681,552.3 492.419,543.769 492.419,531.012 492.419,518.906 488.194,508.912 486.081,503.956 478.363,491.606 471.131,479.987 467.475,470.4 461.95,455.856 450.981,446.838 439.931,437.737 435.95,428.8 431.888,419.862 428.231,412.631 424.575,405.319 425.713,403.287 L424.413,401.825 Q422.138,403.856 418.481,405.156 414.338,406.537 410.438,406.537 408.569,406.537 404.263,404.344 400.769,402.556 400.038,401.256 M419.294,360.225 Q412.225,358.112 410.031,365.344 409.381,367.619 408.813,377.531 408.163,387.2 403.856,392.481 399.794,397.6 399.794,400.606 399.794,400.931 400.038,401.256 400.769,402.556 404.263,404.344 408.569,406.537 410.438,406.537 414.338,406.537 418.481,405.156 422.138,403.856 424.413,401.825 425.713,400.688 426.525,399.306 426.038,398.981 425.55,398.737 423.681,397.519 422.381,396.544 419.538,394.594 418.644,393.619 417.1,391.831 417.1,380.862 417.1,373.55 419.294,360.225Z" test="Banana" stroke-width="1.625"/>
          <path id="Layer10_0_1_STROKES" stroke="#FF0" stroke-width="1.625" stroke-linejoin="round" stroke-linecap="round" fill="none" d="M425.713,403.287 Q424.575,405.319 428.231,412.631 431.888,419.862 435.95,428.8 439.931,437.737 450.981,446.838 461.95,455.856 467.475,470.4 471.131,479.987 478.363,491.606 486.081,503.956 488.194,508.912 492.419,518.906 492.419,531.012 492.419,543.769 488.681,552.3 484.456,561.725 477.306,561.644 477.306,552.463 474.544,538.163 469.994,514.681 460.569,503.631 439.688,479.906 434.325,473.65 426.606,464.875 420.431,455.206 419.213,459.594 418.563,462.194 418.075,463.9 415.963,469.588 415.313,471.537 413.119,484.781 411.088,497.131 409.381,500.3 401.256,515.088 382.894,532.313 365.263,548.887 359.006,548.887 358.275,548.887 356.731,548.644 355.106,548.319 354.619,548.319 354.944,542.956 360.794,531.906 363.313,526.95 373.794,509.156 393.863,474.95 398.088,456.75 L398.088,453.5 397.519,453.5 Q396.706,454.8 381.188,466.906 365.1,479.419 357.95,489.656 350.881,499.813 334.55,510.619 320.331,520.125 311.231,522.644 310.988,523.131 309.038,525.813 305.219,531.012 304.325,532.637 302.05,538 300.588,540.681 297.906,545.475 294.819,545.475 293.925,545.475 293.763,545.231 L293.763,538.244 Q292.3,524.106 309.444,497.375 326.75,470.237 346.25,457.319 350.394,454.556 360.956,448.381 371.438,441.8 379.806,433.919 382.325,431.481 387.363,422.138 393.863,409.869 399.225,402.069" test="Banana"/>
          <path id="Layer10_0_2_STROKES" stroke="#FFF" stroke-width="1.625" stroke-linejoin="round" stroke-linecap="round" fill="none" d="M400.038,401.256 Q399.794,400.931 399.794,400.606 399.794,397.6 403.856,392.481 408.163,387.2 408.813,377.531 409.381,367.619 410.031,365.344 412.225,358.112 419.294,360.225 417.1,373.55 417.1,380.862 417.1,391.831 418.644,393.619 419.538,394.594 422.381,396.544 423.681,397.519 425.55,398.737 426.038,398.981 426.525,399.306 425.713,400.688 424.413,401.825 M400.038,401.256 Q400.769,402.556 404.263,404.344 408.569,406.537 410.438,406.537 414.338,406.537 418.481,405.156 422.138,403.856 424.413,401.825" test="Banana"/>
        </g>
      </g>
      <g id="Tween-4">
        <path id="Layer4_0_1_STROKES" stroke="#FFF" stroke-width="1.625" stroke-linejoin="round" stroke-linecap="round" fill="none" d="M546.1,563.188 Q546.1,556.85 555.606,551.894" test="Tween 4"/>
        <g id="Garbage">
          <path fill="#000" stroke="none" d="M438.281,525.069 L436.169,523.85 Q436.006,524.175 435.519,525.069 436.006,524.175 436.169,523.85 436.169,523.688 436.169,523.606 436.169,518.65 433.325,516.7 429.425,513.856 418.294,513.856 406.513,513.856 382.056,526.206 379.213,527.588 374.581,536.363 373.85,537.825 372.956,539.044 372.306,531.813 363.613,526.775 355,521.656 344.356,521.656 332.25,521.656 322.906,527.263 311.125,534.331 311.125,547.575 311.125,548.225 311.206,548.794 305.519,543.431 292.194,543.431 280.981,543.431 274.075,546.925 266.763,550.663 260.344,560.169 255.306,567.563 254.575,573.25 254.169,576.256 254.737,579.669 251.813,572.925 249.375,569.756 245.069,564.069 235.237,564.069 225.975,564.069 219.638,569.675 213.463,575.281 213.463,583.325 213.463,584.788 214.356,596.65 212,600.875 210.619,605.425 208.425,614.444 208.425,622.894 208.425,630.613 214.031,635.488 219.15,639.956 225.731,639.956 228.169,639.956 236.538,638.575 244.825,637.194 250.269,637.194 256.769,637.194 273.263,641.906 289.675,646.619 306.656,646.619 311.613,646.619 351.263,643.044 396.925,639.388 431.7,639.388 439.5,639.306 445.431,639.388 L465.5,640.444 466.313,640.038 Q467.206,639.713 467.938,639.631 472.731,639.388 476.956,637.031 480.125,636.056 482.156,635.163 494.831,629.638 497.513,629.394 L498.081,629.394 Q498.081,629.15 536.025,639.794 577.706,650.6 594.688,650.6 614.188,650.6 623.613,640.606 628.406,635.65 629.219,630.45 629.219,627.85 629.056,627.606 628.975,627.444 628.813,627.281 628.163,626.713 626.456,626.55 628.163,626.713 628.813,627.281 L629.219,626.55 Q631.819,624.925 640.106,621.919 647.094,618.263 647.094,611.519 647.094,607.294 642.056,605.913 L642.625,605.913 Q645.225,603.394 652.05,598.031 657.656,592.831 657.656,587.469 657.656,582.919 654.894,577.475 651.4,570.731 646.281,570.731 637.831,572.763 634.825,573.006 638.725,569.675 638.725,567.969 638.563,565.206 637.019,562.606 634.094,557.488 627.513,557.488 614.594,557.488 609.15,559.356 603.788,561.225 595.175,568.538 593.388,559.275 587.294,553.344 580.956,547.331 572.588,547.331 564.138,547.331 555.606,551.881 L546.1,563.175 Q546.1,564.638 547.156,573.575 546.425,573.169 544.638,572.763 542.931,572.438 541.875,572.438 537.975,572.438 533.344,576.906 531.638,578.613 529.363,582.513 527.25,586.25 526.519,588.606 526.356,589.338 526.194,590.15 525.463,593.075 523.025,595.025 522.294,595.594 521.4,595.919 521.075,595.675 520.831,595.431 516.281,590.963 515.063,584.788 514.413,582.838 513.112,580.725 510.756,576.744 507.019,573.006 515.956,573.981 523.594,571.138 532.125,567.969 533.181,561.306 533.344,560.331 533.344,559.275 533.344,555.05 532.613,552.775 531.069,547.819 525.95,543.431 520.588,538.8 514.819,537.663 512.95,537.256 507.588,537.256 507.669,537.094 512.138,529.213 512.544,528.481 512.869,527.75 L513.6,526.775 Q514.006,526.206 514.088,525.8 514.737,522.469 513.763,519.219 513.194,517.675 510.919,512.881 508.319,507.519 505.15,505.244 497.675,499.881 479.313,499.881 460.056,499.881 443.481,518.569 440.881,521.494 438.281,525.069 M481.75,562.931 Q481.425,563.744 480.775,565.044 481.425,563.744 481.75,562.931 482.4,561.469 482.4,560.331 482.4,553.669 476.55,553.669 473.625,553.669 470.7,554.481 464.85,556.188 464.525,560.494 464.85,556.188 470.7,554.481 473.625,553.669 476.55,553.669 482.4,553.669 482.4,560.331 482.4,561.469 481.75,562.931 M601.675,593.969 Q605.9,596.731 605.9,601.119 605.9,596.731 601.675,593.969 598.181,591.694 594.363,591.694 589,591.694 585.994,593.563 582.825,595.431 582.825,598.844 582.825,595.431 585.994,593.563 589,591.694 594.363,591.694 598.181,591.694 601.675,593.969 M350.45,568.538 Q355.163,571.056 356.3,574.144 355.163,571.056 350.45,568.538 346.063,566.263 342.65,566.263 338.263,566.263 335.094,569.106 330.706,573.169 330.706,581.944 330.706,583.244 330.95,583.975 331.438,585.275 332.9,587.469 331.438,585.275 330.95,583.975 330.706,583.244 330.706,581.944 330.706,573.169 335.094,569.106 338.263,566.263 342.65,566.263 346.063,566.263 350.45,568.538 M416.588,561.306 Q417.725,563.256 417.725,568.294 417.725,577.394 410.575,583.65 402.856,590.313 390.913,589.744 402.856,590.313 410.575,583.65 417.725,577.394 417.725,568.294 417.725,563.256 416.588,561.306 415.288,559.031 411.631,559.031 410.9,559.031 409.844,559.356 408.3,559.844 406.594,560.169 408.3,559.844 409.844,559.356 410.9,559.031 411.631,559.031 415.288,559.031 416.588,561.306Z" test="Garbage" stroke-width="1.625"/>
          <path id="Layer6_0_1_STROKES" stroke="#FFF" stroke-width="1.625" stroke-linejoin="round" stroke-linecap="round" fill="none" d="M436.169,523.85 Q436.006,524.175 435.519,525.069 M628.813,627.281 Q628.975,627.444 629.056,627.606 629.219,627.85 629.219,630.45 628.406,635.65 623.613,640.606 614.188,650.6 594.688,650.6 577.706,650.6 536.025,639.794 498.081,629.15 498.081,629.394 L497.513,629.394 Q494.831,629.638 482.156,635.163 480.125,636.056 476.956,637.031 472.731,639.388 467.938,639.631 467.206,639.713 466.313,640.038 L465.5,640.444 445.431,639.388 Q439.5,639.306 431.7,639.388 396.925,639.388 351.263,643.044 311.613,646.619 306.656,646.619 289.675,646.619 273.263,641.906 256.769,637.194 250.269,637.194 244.825,637.194 236.538,638.575 228.169,639.956 225.731,639.956 219.15,639.956 214.031,635.488 208.425,630.613 208.425,622.894 208.425,614.444 210.619,605.425 212,600.875 214.356,596.65 213.463,584.788 213.463,583.325 213.463,575.281 219.638,569.675 225.975,564.069 235.237,564.069 245.069,564.069 249.375,569.756 251.813,572.925 254.737,579.669 254.169,576.256 254.575,573.25 255.306,567.563 260.344,560.169 266.763,550.663 274.075,546.925 280.981,543.431 292.194,543.431 305.519,543.431 311.206,548.794 311.125,548.225 311.125,547.575 311.125,534.331 322.906,527.263 332.25,521.656 344.356,521.656 355,521.656 363.613,526.775 372.306,531.813 372.956,539.044 373.85,537.825 374.581,536.363 379.213,527.588 382.056,526.206 406.513,513.856 418.294,513.856 429.425,513.856 433.325,516.7 436.169,518.65 436.169,523.606 436.169,523.688 436.169,523.85 M438.281,525.069 Q440.881,521.494 443.481,518.569 460.056,499.881 479.313,499.881 497.675,499.881 505.15,505.244 508.319,507.519 510.919,512.881 513.194,517.675 513.763,519.219 514.737,522.469 514.088,525.8 514.006,526.206 513.6,526.775 L512.869,527.75 Q512.544,528.481 512.138,529.213 507.669,537.094 507.588,537.256 512.95,537.256 514.819,537.663 520.588,538.8 525.95,543.431 531.069,547.819 532.613,552.775 533.344,555.05 533.344,559.275 533.344,560.331 533.181,561.306 532.125,567.969 523.594,571.138 515.956,573.981 507.019,573.006 510.756,576.744 513.112,580.725 514.413,582.838 515.063,584.788 516.281,590.963 520.831,595.431 521.075,595.675 521.4,595.919 522.294,595.594 523.025,595.025 525.463,593.075 526.194,590.15 526.356,589.338 526.519,588.606 527.25,586.25 529.363,582.513 531.638,578.613 533.344,576.906 537.975,572.438 541.875,572.438 542.931,572.438 544.638,572.763 546.425,573.169 547.156,573.575 546.1,564.638 546.1,563.175 M555.606,551.881 Q564.138,547.331 572.588,547.331 580.956,547.331 587.294,553.344 593.388,559.275 595.175,568.538 603.788,561.225 609.15,559.356 614.594,557.488 627.513,557.488 634.094,557.488 637.019,562.606 638.563,565.206 638.725,567.969 638.725,569.675 634.825,573.006 637.831,572.763 646.281,570.731 651.4,570.731 654.894,577.475 657.656,582.919 657.656,587.469 657.656,592.831 652.05,598.031 645.225,603.394 642.625,605.913 L642.056,605.913 Q647.094,607.294 647.094,611.519 647.094,618.263 640.106,621.919 631.819,624.925 629.219,626.55 M626.456,626.55 Q628.163,626.713 628.813,627.281 M464.525,560.494 Q464.85,556.188 470.7,554.481 473.625,553.669 476.55,553.669 482.4,553.669 482.4,560.331 482.4,561.469 481.75,562.931 481.425,563.744 480.775,565.044 M582.825,598.844 Q582.825,595.431 585.994,593.563 589,591.694 594.363,591.694 598.181,591.694 601.675,593.969 605.9,596.731 605.9,601.119 M332.9,587.469 Q331.438,585.275 330.95,583.975 330.706,583.244 330.706,581.944 330.706,573.169 335.094,569.106 338.263,566.263 342.65,566.263 346.063,566.263 350.45,568.538 355.163,571.056 356.3,574.144 M406.594,560.169 Q408.3,559.844 409.844,559.356 410.9,559.031 411.631,559.031 415.288,559.031 416.588,561.306 417.725,563.256 417.725,568.294 417.725,577.394 410.575,583.65 402.856,590.313 390.913,589.744" test="Garbage"/>
        </g>
        <g id="GarbageCloud">
          <path id="Layer7_0_1_STROKES" stroke="#FFF" stroke-width="1.625" stroke-linejoin="round" stroke-linecap="round" fill="none" d="M477.988,446.906 Q480.425,445.606 480.913,444.875 481.888,443.494 481.888,439.675 481.888,434.881 477.744,427.731 473.6,420.581 473.6,414.163 473.6,408.963 479.694,398.888 485.788,388.813 485.788,384.344 485.788,381.744 483.513,378.738 483.188,378.331 480.181,374.919 M574.188,421.231 Q575.163,419.119 579.063,415.625 584.263,410.831 588.488,410.588 589.625,412.863 589.625,415.056 589.625,415.625 584.019,421.231 L574.188,421.231 Q574.025,421.556 573.781,422.288 574.35,422.531 574.919,422.938 577.275,424.481 577.275,426.188 577.275,427.975 576.788,428.463 576.219,429.031 574.269,429.031 572.481,429.031 571.181,427.975 570.044,426.919 570.044,425.619 570.044,424.644 570.45,423.994 566.713,423.994 564.438,423.425 558.913,422.206 558.913,418.388 558.913,415.544 559.969,413.431 561.431,410.588 564.194,410.588 568.094,410.588 570.531,414.081 572.156,416.519 573.375,421.231 L574.188,421.231Z M570.45,423.994 L570.531,423.994 Q571.669,423.994 571.994,423.913 572.4,423.831 572.806,423.425 L572.806,422.288 Q571.75,422.694 571.181,423.1 570.694,423.425 570.45,423.994Z M573.781,422.288 Q572.075,421.475 570.613,421.8 M291.356,407.338 Q291.6,406.525 291.925,405.713 287.131,405.875 282.5,409.125 278.438,411.806 277.056,414.488 L277.056,420.094 282.094,420.094 Q289.731,414.325 290.788,409.45 291.031,408.394 291.356,407.338 290.95,407.338 290.463,407.338 M297.125,408.475 Q295.744,407.256 294.85,406.606 292.656,406.688 292.169,406.769 M294.85,406.606 Q294.119,406.038 293.713,405.794 293.469,405.631 292.738,405.631 292.331,405.631 291.925,405.713 294.038,400.35 298.831,394.419 L303.869,394.419 Q303.869,394.988 304.194,396.45 304.438,397.913 304.438,398.644 304.438,404.9 298.913,406.363 296.475,406.525 294.85,406.606Z M335.638,430.169 Q337.831,425.538 339.375,422.044 342.381,415.3 342.381,412.781 342.381,410.669 337.913,406.2 333.444,401.65 333.444,400.269 333.444,396.288 335.394,390.194 337.344,384.019 337.344,381.338 337.344,375.488 337.019,373.781 336.288,369.475 333.444,368.175 M291.6,408.475 L291.356,409.531 Q291.031,410.831 291.031,411.725 291.031,413.188 292.656,413.919 293.875,414.488 295.013,414.488 295.825,414.488 296.8,414.163 298.669,413.513 298.831,413.431 298.506,409.938 296.231,408.475 294.525,407.5 291.356,407.338" test="GarbageCloud"/>
        </g>
      </g>
      <g id="Drawer">
        <path fill="#000" stroke="none" d="M702.662,727.763 Q702.175,728.25 701.769,728.738 L701.769,756.281 Q702.175,756.688 702.662,757.175 708.594,763.106 716.881,763.269 L717.369,763.269 Q725.981,763.269 732.075,757.175 738.169,751.081 738.169,742.469 738.169,733.856 732.075,727.763 725.981,721.669 717.369,721.669 L716.881,721.669 Q708.594,721.831 702.662,727.763 M152.519,640.419 Q147.319,664.306 148.294,690.55 151.381,764.406 150.244,811.125 149.269,856.544 152.519,869.219 253.269,867.838 352.719,872.063 392.044,870.925 418.206,872.306 444.775,873.688 463.219,873.688 470.287,873.688 477.519,873.606 487.675,874.825 497.75,874.663 516.275,873.2 534.637,870.519 553.65,868.163 572.906,870.356 591.35,872.469 609.631,871.981 628.806,871.413 647.819,870.275 670.081,869.869 701.769,869.219 L701.769,763.269 701.769,756.281 701.769,728.738 Q701.688,725.163 701.688,721.669 700.631,666.581 701.769,611.819 L666.669,611.819 666.669,640.419 581.519,637.25 Q356.05,644.644 152.519,640.419Z" test="Drawer" stroke-width="1.625"/>
        <path id="Layer3_0_1_STROKES" stroke="#F60" stroke-width="3.25" stroke-linejoin="round" stroke-linecap="round" fill="none" d="M701.769,756.281 L701.769,763.269 701.769,869.219 Q670.081,869.869 647.819,870.275 628.806,871.413 609.631,871.981 591.35,872.469 572.906,870.356 553.65,868.163 534.637,870.519 516.275,873.2 497.75,874.663 487.675,874.825 477.519,873.606 470.287,873.688 463.219,873.688 444.775,873.688 418.206,872.306 392.044,870.925 352.719,872.063 253.269,867.838 152.519,869.219 149.269,856.544 150.244,811.125 151.381,764.406 148.294,690.55 147.319,664.306 152.519,640.419 356.05,644.644 581.519,637.25 L666.669,640.419 666.669,611.819 701.769,611.819 Q700.631,666.581 701.688,721.669 701.688,725.163 701.769,728.738 702.175,728.25 702.662,727.763 708.594,721.831 716.881,721.669 L717.369,721.669 Q725.981,721.669 732.075,727.763 738.169,733.856 738.169,742.469 738.169,751.081 732.075,757.175 725.981,763.269 717.369,763.269 L716.881,763.269 Q708.594,763.106 702.662,757.175 702.175,756.688 701.769,756.281 L701.769,728.738" test="Drawer"/>
      </g>
      <g id="DrawersCabinetFront">
        <path fill="#000" stroke="none" d="M193.919,1031.094 Q194.325,1031.5 194.813,1031.988 200.744,1037.919 209.031,1038.081 L209.519,1038.081 Q218.131,1038.081 224.225,1031.988 230.319,1025.894 230.319,1017.281 230.319,1008.669 224.225,1002.575 218.131,996.481 209.519,996.481 L209.031,996.481 Q200.744,996.644 194.813,1002.575 194.325,1003.063 193.919,1003.55 L193.919,1031.094 M193.919,886.631 L158.819,886.631 158.819,915.231 73.669,912.063 Q-151.8,919.456 -355.331,915.231 -360.531,939.119 -359.556,965.363 -356.469,1039.219 -357.606,1085.938 -358.581,1131.356 -355.331,1144.031 -254.581,1142.65 -155.131,1146.875 -115.806,1145.738 -89.644,1147.119 -63.075,1148.5 -44.631,1148.5 -37.562,1148.5 -30.331,1148.419 -20.175,1149.638 -10.1,1149.475 8.425,1148.013 26.787,1145.331 45.8,1142.975 65.056,1145.169 83.5,1147.281 101.781,1146.794 120.956,1146.225 139.969,1145.088 162.231,1144.681 193.919,1144.031 L193.919,1038.081 193.919,1031.094 193.919,1003.55 Q193.837,999.975 193.837,996.481 192.781,941.394 193.919,886.631Z" test="DrawersCabinetFront" stroke-width="1.625"/>
        <path id="Layer2_0_1_STROKES" stroke="#F60" stroke-width="3.25" stroke-linejoin="round" stroke-linecap="round" fill="none" d="M193.919,1031.094 L193.919,1038.081 193.919,1144.031 Q162.231,1144.681 139.969,1145.088 120.956,1146.225 101.781,1146.794 83.5,1147.281 65.056,1145.169 45.8,1142.975 26.787,1145.331 8.425,1148.013 -10.1,1149.475 -20.175,1149.638 -30.331,1148.419 -37.562,1148.5 -44.631,1148.5 -63.075,1148.5 -89.644,1147.119 -115.806,1145.738 -155.131,1146.875 -254.581,1142.65 -355.331,1144.031 -358.581,1131.356 -357.606,1085.938 -356.469,1039.219 -359.556,965.363 -360.531,939.119 -355.331,915.231 -151.8,919.456 73.669,912.063 L158.819,915.231 158.819,886.631 193.919,886.631 Q192.781,941.394 193.837,996.481 193.837,999.975 193.919,1003.55 194.325,1003.063 194.813,1002.575 200.744,996.644 209.031,996.481 L209.519,996.481 Q218.131,996.481 224.225,1002.575 230.319,1008.669 230.319,1017.281 230.319,1025.894 224.225,1031.988 218.131,1038.081 209.519,1038.081 L209.031,1038.081 Q200.744,1037.919 194.813,1031.988 194.325,1031.5 193.919,1031.094 L193.919,1003.55" test="DrawersCabinetFront"/>
        <path fill="#000" stroke="none" d="M117.3,599.006 Q82.361,597.714 48.725,595.756 15.182,593.883 -73.637,594.213 -162.395,594.63 -203.394,595.106 -244.292,595.664 -296.181,595.188 -348.089,594.705 -378.081,598.356 -380.194,615.581 -382.631,754.113 -385.15,898.006 -382.794,926.363 -381.9,937.9 -387.831,1041.819 -393.678,1145.736 -389.212,1148.013 -384.672,1150.291 -372.637,1149.394 -368.128,1149.116 -362.887,1148.419 -352.812,1147.119 -342.656,1145.819 -294.963,1140.944 -247.187,1142.406 -225.026,1142.553 -201.525,1142.813 -83.469,1144.194 -67.869,1144.194 -53.406,1144.194 52.462,1148.256 53.681,1148.338 54.981,1148.338 58.313,1148.5 61.644,1148.581 66.356,1148.744 70.906,1148.825 156.462,1151.344 158.413,1148.256 160.688,1144.681 160.85,1130.544 160.769,1110.394 160.769,1097.313 160.769,1002.169 161.988,969.1 162.556,952.85 160.769,877.613 159.063,801.887 159.631,782.956 160.686,747.947 159.875,673.675 159.147,599.391 155.731,599.819 152.314,600.321 117.3,599.006Z" test="DrawersCabinetFront" stroke-width="1.625"/>
        <path id="Layer1_0_1_STROKES" stroke="#F60" stroke-width="3.25" stroke-linejoin="round" stroke-linecap="round" fill="none" d="M-378.081,598.356 Q-348.089,594.705 -296.181,595.188 -244.292,595.664 -203.353,595.147 -162.395,594.63 -73.597,594.253 15.182,593.883 48.766,595.797 82.361,597.714 117.341,599.006 152.314,600.321 155.731,599.859 159.147,599.391 159.916,673.675 160.686,747.947 159.631,782.956 159.063,801.887 160.769,877.613 162.556,952.85 161.988,969.1 160.769,1002.169 160.769,1097.313 160.769,1110.394 160.85,1130.544 160.688,1144.681 158.413,1148.256 156.462,1151.344 70.906,1148.825 66.356,1148.744 61.644,1148.581 58.313,1148.5 54.981,1148.338 53.681,1148.338 52.462,1148.256 -53.406,1144.194 -67.869,1144.194 -83.469,1144.194 -201.525,1142.813 -225.026,1142.553 -247.187,1142.406 -294.963,1140.944 -342.656,1145.819 -352.812,1147.119 -362.887,1148.459 -368.128,1149.116 -372.597,1149.434 -384.672,1150.291 -389.172,1148.013 -393.678,1145.736 -387.791,1041.819 -381.9,937.9 -382.794,926.363 -385.15,898.006 -382.631,754.113 -380.194,615.581 -378.081,598.356Z" test="DrawersCabinetFront"/>
      </g>
    </g>
  </g>
</svg>