<?xml version="1.0" encoding="utf-8"?>
<svg id="EdithAnim12" image-rendering="inherit" baseProfile="basic" version="1.1" x="0px" y="0px" width="800" height="600" xmlns="http://www.w3.org/2000/svg" xmlns:xlink="http://www.w3.org/1999/xlink">
  <g id="21_GarbageDrawerf177r1" overflow="visible">
    <g id="GarbageDrawerGroupf177r1">
      <g id="Tween-6">
        <path fill="#000" stroke="none" d="M292.531,635.656 Q288.387,633.463 286.275,633.463 276.119,633.463 270.431,645.731 265.719,655.644 265.069,670.838 264.987,671.163 264.906,671.488 264.338,673.275 262.469,675.063 L249.387,675.063 Q249.144,675.144 244.025,675.631 240.288,676.038 238.987,677.988 238.581,678.556 238.5,680.262 238.419,682.213 238.337,682.538 236.387,680.588 226.637,680.588 214.287,680.588 214.287,690.663 214.287,691.556 214.531,694.238 214.694,697.244 214.937,698.137 212.175,698.625 209.412,701.956 205.513,706.506 205.513,713.575 205.513,714.956 206.406,718.531 206.894,720.563 207.787,724.137 208.356,726.656 208.925,727.55 210.631,729.988 214.937,730.637 216.075,730.8 229.725,734.456 247.275,738.438 267.913,740.713 275.713,741.606 327.713,749.406 367.769,755.419 395.313,756.637 423.831,757.938 462.019,761.025 488.75,763.137 512.475,763.137 533.356,763.137 565.206,757.044 598.031,750.869 607.213,744.613 610.706,742.256 614.2,741.281 618.019,740.225 619.887,739.088 626.713,734.7 628.338,732.262 632.806,725.438 633.781,722.512 634.188,721.294 634.188,717.8 634.188,714.144 633.213,711.625 631.75,708.863 630.938,707.238 L630.938,706.588 Q629.963,705.613 629.963,704.313 629.963,704.231 636.625,699.031 643.287,693.019 643.287,689.363 643.287,682.7 641.5,678.313 639.063,672.463 632.888,668.238 629.313,665.8 622.894,664.419 616.719,663.281 615.338,662.713 616.069,661.331 619.563,657.35 622.813,653.044 622.813,648.575 622.813,641.75 617.938,635.413 611.6,627.288 600.713,627.288 593.481,627.288 588.038,629.238 588.688,628.506 589.175,627.694 589.988,626.15 589.988,623.387 589.988,616.806 582.512,611.363 572.762,604.213 554.4,604.213 L544.813,605.35 Q540.831,607.137 538.475,612.825 538.313,613.394 537.988,613.963 538.313,613.394 538.475,612.825 540.181,606.731 528.238,601.369 517.35,596.413 509.225,596.413 499.638,596.413 495.575,599.5 491.513,602.588 490.537,610.713 487.287,607.463 485.419,606.081 482.169,603.563 479.813,603.563 469.981,603.563 464.456,607.95 461.694,610.144 453.487,621.113 L453.487,620.788 Q452.513,614.044 451.862,611.444 450.888,607.056 448.856,604.863 444.063,599.663 425.375,599.663 421.638,599.663 417.819,601.775 414,603.806 410.912,607.463 410.1,606.65 408.394,603.644 406.362,600.069 406.362,599.988 401.244,592.35 397.912,589.669 394.256,586.663 389.463,586.663 363.869,586.663 349.244,595.925 336.65,603.969 339.088,612.663 335.838,608.6 333.806,606.569 330.231,602.913 326.575,602.913 314.631,602.913 304.638,615.019 294.725,626.963 296.838,638.338 296.188,637.525 292.531,635.656 M350.787,643.619 Q353.225,644.756 356.963,647.113 359.563,648.494 359.888,648.738 360.537,649.144 359.563,649.063 360.537,649.144 359.888,648.738 359.563,648.494 356.963,647.113 353.225,644.756 350.787,643.619 346.4,641.588 341.688,641.588 326.575,641.588 318.287,648.738 326.575,641.588 341.688,641.588 346.4,641.588 350.787,643.619 M408.719,635.981 Q415.3,633.137 422.612,633.137 429.112,633.137 433.987,643.538 433.987,644.188 433.419,644.838 432.769,645.569 432.037,645.813 432.769,645.569 433.419,644.838 433.987,644.188 433.987,643.538 429.112,633.137 422.612,633.137 415.3,633.137 408.719,635.981 401.894,638.988 398.563,643.863 401.894,638.988 408.719,635.981 M523.525,629.563 Q524.094,629.563 527.831,633.625 531.488,637.688 531.488,638.338 531.488,646.706 528.319,651.094 526.206,654.019 523.362,654.588 526.206,654.019 528.319,651.094 531.488,646.706 531.488,638.338 531.488,637.688 527.831,633.625 524.094,629.563 523.525,629.563 503.05,629.563 493.463,637.688 503.05,629.563 523.525,629.563 M594.7,648.331 Q598.113,650.931 598.113,660.925 598.113,670.756 589.744,677.175 583.081,682.294 578.288,681.887 583.081,682.294 589.744,677.175 598.113,670.756 598.113,660.925 598.113,650.931 594.7,648.331 591.45,645.813 578.938,646.137 591.45,645.813 594.7,648.331 M600.387,678.963 Q612.006,678.8 612.981,679.125 617.288,680.425 617.288,688.713 617.288,691.475 614.769,694.075 613.144,695.619 608.838,698.463 607.7,699.194 605.75,700.9 603.963,702.363 603.313,702.688 603.963,702.363 605.75,700.9 607.7,699.194 608.838,698.463 613.144,695.619 614.769,694.075 617.288,691.475 617.288,688.713 617.288,680.425 612.981,679.125 612.006,678.8 600.387,678.963Z" test="Tween 6" stroke-width="1.625"/>
        <path id="Layer5_0_1_STROKES" stroke="#FFF" stroke-width="1.625" stroke-linejoin="round" stroke-linecap="round" fill="none" d="M630.938,707.238 Q631.75,708.863 633.213,711.625 634.188,714.144 634.188,717.8 634.188,721.294 633.781,722.512 632.806,725.438 628.338,732.262 626.713,734.7 619.887,739.088 618.019,740.225 614.2,741.281 610.706,742.256 607.213,744.613 598.031,750.869 565.206,757.044 533.356,763.137 512.475,763.137 488.75,763.137 462.019,761.025 423.831,757.938 395.313,756.637 367.769,755.419 327.713,749.406 275.713,741.606 267.913,740.713 247.275,738.438 229.725,734.456 216.075,730.8 214.937,730.637 210.631,729.988 208.925,727.55 208.356,726.656 207.787,724.137 206.894,720.563 206.406,718.531 205.513,714.956 205.513,713.575 205.513,706.506 209.412,701.956 212.175,698.625 214.937,698.137 214.694,697.244 214.531,694.238 214.287,691.556 214.287,690.663 214.287,680.588 226.637,680.588 236.387,680.588 238.337,682.538 238.419,682.213 238.5,680.262 238.581,678.556 238.987,677.988 240.288,676.038 244.025,675.631 249.144,675.144 249.387,675.063 L262.469,675.063 Q264.338,673.275 264.906,671.488 264.987,671.163 265.069,670.838 265.719,655.644 270.431,645.731 276.119,633.463 286.275,633.463 288.387,633.463 292.531,635.656 296.188,637.525 296.838,638.338 294.725,626.963 304.638,615.019 314.631,602.913 326.575,602.913 330.231,602.913 333.806,606.569 335.838,608.6 339.088,612.663 336.65,603.969 349.244,595.925 363.869,586.663 389.463,586.663 394.256,586.663 397.912,589.669 401.244,592.35 406.362,599.988 406.362,600.069 408.394,603.644 410.1,606.65 410.912,607.463 414,603.806 417.819,601.775 421.638,599.663 425.375,599.663 444.063,599.663 448.856,604.863 450.888,607.056 451.862,611.444 452.513,614.044 453.487,620.788 L453.487,621.113 Q461.694,610.144 464.456,607.95 469.981,603.563 479.813,603.563 482.169,603.563 485.419,606.081 487.287,607.463 490.537,610.713 491.513,602.588 495.575,599.5 499.638,596.413 509.225,596.413 517.35,596.413 528.238,601.369 540.181,606.731 538.475,612.825 540.831,607.137 544.813,605.35 547.494,604.213 554.4,604.213 572.762,604.213 582.512,611.363 589.988,616.806 589.988,623.387 589.988,626.15 589.175,627.694 588.688,628.506 588.038,629.238 593.481,627.288 600.713,627.288 611.6,627.288 617.938,635.413 622.813,641.75 622.813,648.575 622.813,653.044 619.563,657.35 616.069,661.331 615.338,662.713 616.719,663.281 622.894,664.419 629.313,665.8 632.888,668.238 639.063,672.463 641.5,678.313 643.287,682.7 643.287,689.363 643.287,693.019 636.625,699.031 629.963,704.231 629.963,704.313 629.963,705.613 630.938,706.588 M318.287,648.738 Q326.575,641.588 341.688,641.588 346.4,641.588 350.787,643.619 353.225,644.756 356.963,647.113 359.563,648.494 359.888,648.738 360.537,649.144 359.563,649.063 M398.563,643.863 Q401.894,638.988 408.719,635.981 415.3,633.137 422.612,633.137 429.112,633.137 433.987,643.538 433.987,644.188 433.419,644.838 432.769,645.569 432.037,645.813 M538.475,612.825 Q538.313,613.394 537.988,613.963 M493.463,637.688 Q503.05,629.563 523.525,629.563 524.094,629.563 527.831,633.625 531.488,637.688 531.488,638.338 531.488,646.706 528.319,651.094 526.206,654.019 523.362,654.588 M578.938,646.137 Q591.45,645.813 594.7,648.331 598.113,650.931 598.113,660.925 598.113,670.756 589.744,677.175 583.081,682.294 578.288,681.887 M600.387,678.963 Q612.006,678.8 612.981,679.125 617.288,680.425 617.288,688.713 617.288,691.475 614.769,694.075 613.144,695.619 608.838,698.463 607.7,699.194 605.75,700.9 603.963,702.363 603.313,702.688" test="Tween 6"/>
      </g>
      <g id="Tween-5">
        <g id="Tin-can-Rubbish">
          <path fill="#000" stroke="none" d="M258.781,687.706 Q246.025,703.063 239.769,708.831 224.9,722.563 213.2,722.887 L213.525,725.162 Q213.525,726.706 213.281,728.169 212.956,729.631 212.956,730.119 212.956,731.256 214.581,731.906 215.963,732.394 217.913,732.394 221.813,732.394 230.913,727.925 L231.319,727.925 Q226.931,733.775 226.931,735.481 226.931,740.275 232.7,740.275 236.194,740.275 236.681,740.113 237.169,739.869 239.444,738.162 239.85,737.269 240.256,736.863 L240.256,737.431 Q239.769,737.756 239.444,738.162 238.875,739.056 238.144,740.519 236.356,744.338 236.356,747.1 236.356,751.406 242.613,753.519 248.219,755.387 246.431,761.4 252.281,761.644 253.906,763.838 254.313,764.406 254.719,765.463 L254.719,765.544 Q269.425,759.613 275.763,754.981 281.856,750.431 284.375,744.094 281.856,750.431 275.763,754.981 269.425,759.613 254.719,765.544 255.288,767.169 255.938,769.85 256.669,771.719 260.325,774.563 262.681,776.512 261.462,780.412 L267.069,780.412 Q289.738,771.069 313.869,742.55 337.269,715.006 342.956,692.744 L342.956,687.706 Q339.219,686.894 334.588,687.706 L331.256,687.706 Q332.881,683.969 328.331,682.1 322.075,680.475 319.069,679.419 317.363,678.769 316.225,676.412 315.169,673.406 314.519,671.944 312.081,666.5 305.581,668.206 L305.581,663.738 Q306.719,662.6 306.719,660.975 306.719,658.7 302.25,658.294 297.213,658.213 296.075,658.131 296.075,657.319 296.644,655.287 297.213,653.338 297.213,652.688 297.213,649.681 292.175,649.275 294.45,645.131 290.713,642.856 287.463,641.637 285.431,640.825 287.788,642.287 287.788,645.619 287.788,656.1 279.744,665.281 267.394,677.387 258.781,687.706 M293.15,686.975 Q290.55,691.363 288.925,691.688 290.55,691.363 293.15,686.975 294.775,684.131 299.975,674.95 294.775,684.131 293.15,686.975 M325.325,699.569 Q322.238,704.281 318.5,705.581 322.238,704.281 325.325,699.569 328.494,694.694 330.119,687.706 328.494,694.694 325.325,699.569 M270.969,713.95 Q268.856,717.363 265.281,723.781 262.844,728.25 262.031,729.063 262.844,728.25 265.281,723.781 268.856,717.363 270.969,713.95 M225.713,684.537 Q212.631,701.275 211.169,709.725 210.356,713.869 210.113,716.144 209.706,718.5 209.869,718.988 209.788,719.231 209.706,719.475 209.625,720.125 209.625,720.613 209.625,721.912 210.113,722.319 210.763,722.887 212.631,722.887 212.875,722.887 213.2,722.887 224.9,722.563 239.769,708.831 246.025,703.063 258.781,687.706 267.394,677.387 279.744,665.281 287.788,656.1 287.788,645.619 287.788,642.287 285.431,640.825 284.456,640.256 283.238,640.012 282.019,639.769 280.475,639.769 273.406,639.769 256.1,653.825 238.794,667.8 225.713,684.537Z" test="Tin can Rubbish" stroke-width="1.625"/>
          <path id="Layer8_0_1_STROKES" stroke="#009EFF" stroke-width="1.625" stroke-linejoin="round" stroke-linecap="round" fill="none" d="M210.113,716.144 Q209.706,718.5 209.869,718.988 M285.431,640.825 Q287.463,641.637 290.713,642.856 294.45,645.131 292.175,649.275 297.213,649.681 297.213,652.688 297.213,653.338 296.644,655.287 296.075,657.319 296.075,658.131 297.213,658.213 302.25,658.294 306.719,658.7 306.719,660.975 306.719,662.6 305.581,663.738 L305.581,668.206 Q312.081,666.5 314.519,671.944 315.169,673.406 316.225,676.412 317.363,678.769 319.069,679.419 322.075,680.475 328.331,682.1 332.881,683.969 331.256,687.706 L334.588,687.706 Q339.219,686.894 342.956,687.706 L342.956,692.744 Q337.269,715.006 313.869,742.55 289.738,771.069 267.069,780.412 L261.462,780.412 Q262.681,776.512 260.325,774.563 256.669,771.719 255.938,769.85 255.288,767.169 254.719,765.544 L254.719,765.463 Q254.313,764.406 253.906,763.838 252.281,761.644 246.431,761.4 248.219,755.387 242.613,753.519 236.356,751.406 236.356,747.1 236.356,744.338 238.144,740.519 238.875,739.056 239.444,738.162 237.169,739.869 236.681,740.113 236.194,740.275 232.7,740.275 226.931,740.275 226.931,735.481 226.931,733.775 231.319,727.925 L230.913,727.925 Q221.813,732.394 217.913,732.394 215.963,732.394 214.581,731.906 212.956,731.256 212.956,730.119 212.956,729.631 213.281,728.169 213.525,726.706 213.525,725.162 M299.975,674.95 Q294.775,684.131 293.15,686.975 290.55,691.363 288.925,691.688 M330.119,687.706 Q328.494,694.694 325.325,699.569 322.238,704.281 318.5,705.581 M270.969,713.95 Q268.856,717.363 265.281,723.781 262.844,728.25 262.031,729.063 M239.444,738.162 Q239.769,737.756 240.256,737.431 L240.256,736.863 Q239.85,737.269 239.444,738.162Z M254.719,765.544 Q269.425,759.613 275.763,754.981 281.856,750.431 284.375,744.094" test="Tin can Rubbish"/>
          <path id="Layer8_0_2_STROKES" stroke="#FFF" stroke-width="1.625" stroke-linejoin="round" stroke-linecap="round" fill="none" d="M285.431,640.825 Q284.456,640.256 283.238,640.012 282.019,639.769 280.475,639.769 273.406,639.769 256.1,653.825 238.794,667.8 225.713,684.537 212.631,701.275 211.169,709.725 210.356,713.869 210.113,716.144 M209.869,718.988 Q209.788,719.231 209.706,719.475 209.625,720.125 209.625,720.613 209.625,721.912 210.113,722.319 210.763,722.887 212.631,722.887 212.875,722.887 213.2,722.887 224.9,722.563 239.769,708.831 246.025,703.063 258.781,687.706 267.394,677.387 279.744,665.281 287.788,656.1 287.788,645.619 287.788,642.287 285.431,640.825" test="Tin can Rubbish"/>
        </g>
        <g id="Bottle">
          <path fill="#000" stroke="none" d="M573.731,771.463 Q571.213,771.138 562.275,769.269 554.475,767.563 550.088,767.644 541.963,767.725 530.019,760.819 518.237,754.075 507.269,743.269 499.469,735.55 492.562,723.931 487.037,713.45 486.469,712.638 483.787,708.9 481.675,705 478.019,698.5 478.262,695.331 459.819,721.088 438.937,744.731 416.431,770.081 399.775,799.331 384.419,826.306 410.581,844.994 437.8,864.413 468.756,875.625 485.9,881.963 499.631,867.906 523.031,843.938 541.637,815.338 556.262,792.75 573.325,771.95 L573.731,771.463 M525.306,660.15 Q525.144,660.069 524.981,660.069 508.406,659.419 496.381,672.419 486.469,683.144 478.262,695.331 478.019,698.5 481.675,705 483.787,708.9 486.469,712.638 487.037,713.45 492.562,723.931 499.469,735.55 507.269,743.269 518.237,754.075 530.019,760.819 541.963,767.725 550.088,767.644 554.475,767.563 562.275,769.269 571.213,771.138 573.731,771.463 591.769,753.994 600.137,730.594 600.463,729.781 600.787,728.969 599.975,728.888 599.65,728.969 597.294,729.05 596.4,729.131 595.181,729.213 593.231,729.7 591.363,730.188 588.519,730.188 581.531,730.188 563.981,718.325 547.162,707.031 537.738,696.713 529.938,688.1 527.744,677.619 526.606,666.731 525.306,660.15 M605.744,665.269 Q595.831,657.388 589.25,642.275 560.569,662.425 525.306,660.15 526.606,666.731 527.744,677.619 529.938,688.1 537.738,696.713 547.162,707.031 563.981,718.325 581.531,730.188 588.519,730.188 591.363,730.188 593.231,729.7 595.181,729.213 596.4,729.131 597.294,729.05 599.65,728.969 599.975,728.888 600.787,728.969 592.581,696.063 619.069,674.938 619.8,674.369 620.531,673.638 608.181,667.219 605.744,665.269 M589.088,640.406 L589.25,642.275 Q595.831,657.388 605.744,665.269 608.181,667.219 620.531,673.638 L625.244,674.45 Q628.819,672.988 633.287,664.213 637.512,655.844 637.512,651.538 637.512,646.338 625.813,633.663 620.206,627.569 615.981,624.4 611.35,620.825 608.506,620.825 603.875,620.825 596.481,629.925 593.637,633.419 589.088,640.406 M612.975,629.519 Q612.488,628.788 612.406,628.706 612.488,628.788 612.975,629.519 614.194,631.225 618.094,636.994 624.838,645.85 630.85,649.831 624.838,645.85 618.094,636.994 614.194,631.225 612.975,629.519Z" test="Bottle" stroke-width="1.625"/>
          <path id="Layer9_0_1_STROKES" stroke="#FFF" stroke-width="1.625" stroke-linejoin="round" stroke-linecap="round" fill="none" d="M589.25,642.275 Q595.831,657.388 605.744,665.269 608.181,667.219 620.531,673.638 M625.244,674.45 Q628.819,672.988 633.287,664.213 637.512,655.844 637.512,651.538 637.512,646.338 625.813,633.663 620.206,627.569 615.981,624.4 611.35,620.825 608.506,620.825 603.875,620.825 596.481,629.925 593.637,633.419 589.088,640.406 M630.85,649.831 Q624.838,645.85 618.094,636.994 614.194,631.225 612.975,629.519 612.488,628.788 612.406,628.706 M478.262,695.331 Q478.019,698.5 481.675,705 483.787,708.9 486.469,712.638 487.037,713.45 492.562,723.931 499.469,735.55 507.269,743.269 518.237,754.075 530.019,760.819 541.963,767.725 550.088,767.644 554.475,767.563 562.275,769.269 571.213,771.138 573.731,771.463 M600.787,728.969 Q599.975,728.888 599.65,728.969 597.294,729.05 596.4,729.131 595.181,729.213 593.231,729.7 591.363,730.188 588.519,730.188 581.531,730.188 563.981,718.325 547.162,707.031 537.738,696.713 529.938,688.1 527.744,677.619 526.606,666.731 525.306,660.15 525.144,659.256 524.981,658.444 M573.731,771.463 Q574.056,771.544 574.219,771.544 574.219,771.788 573.325,771.95" test="Bottle"/>
          <path id="Layer9_0_2_STROKES" stroke="#0F0" stroke-width="1.625" stroke-linejoin="round" stroke-linecap="round" fill="none" d="M525.306,660.15 Q525.144,660.069 524.981,660.069 508.406,659.419 496.381,672.419 486.469,683.144 478.262,695.331 M573.731,771.463 Q591.769,753.994 600.137,730.594 600.463,729.781 600.787,728.969 592.581,696.063 619.069,674.938 619.8,674.369 620.531,673.638 M589.25,642.275 Q560.569,662.425 525.306,660.15 M573.325,771.95 Q556.262,792.75 541.637,815.338 523.031,843.938 499.631,867.906 485.9,881.963 468.756,875.625 437.8,864.413 410.581,844.994 384.419,826.306 399.775,799.331 416.431,770.081 438.937,744.731 459.819,721.088 478.262,695.331 M573.325,771.95 L573.731,771.463" test="Bottle"/>
        </g>
        <g id="Banana">
          <path fill="#000" stroke="none" d="M400.038,595.456 L399.225,596.269 Q393.863,604.069 387.363,616.338 382.325,625.681 379.806,628.119 371.438,636 360.956,642.581 350.394,648.756 346.25,651.519 326.75,664.438 309.444,691.575 292.3,718.306 293.763,732.444 L293.763,739.431 Q293.925,739.675 294.819,739.675 297.906,739.675 300.588,734.881 302.05,732.2 304.325,726.838 305.219,725.213 309.038,720.013 310.988,717.331 311.231,716.844 320.331,714.325 334.55,704.819 350.881,694.013 357.95,683.856 365.1,673.619 381.188,661.106 396.706,649 397.519,647.7 L398.088,647.7 398.088,650.95 Q393.863,669.15 373.794,703.356 363.313,721.15 360.794,726.106 354.944,737.156 354.619,742.519 355.106,742.519 356.731,742.844 358.275,743.088 359.006,743.088 365.263,743.088 382.894,726.513 401.256,709.288 409.381,694.5 411.088,691.331 413.119,678.981 415.313,665.738 415.963,663.788 418.075,658.1 418.563,656.394 419.213,653.794 420.431,649.406 426.606,659.075 434.325,667.85 439.688,674.106 460.569,697.831 469.994,708.881 474.544,732.363 477.306,746.663 477.306,755.844 484.456,755.925 488.681,746.5 492.419,737.969 492.419,725.213 492.419,713.106 488.194,703.113 486.081,698.156 478.363,685.806 471.131,674.188 467.475,664.6 461.95,650.056 450.981,641.038 439.931,631.938 435.95,623 431.888,614.063 428.231,606.831 424.575,599.519 425.713,597.488 L424.413,596.025 Q422.138,598.056 418.481,599.356 414.338,600.738 410.438,600.738 408.569,600.738 404.263,598.544 400.769,596.756 400.038,595.456 M419.294,554.425 Q412.225,552.313 410.031,559.544 409.381,561.819 408.813,571.731 408.163,581.4 403.856,586.681 399.794,591.8 399.794,594.806 399.794,595.131 400.038,595.456 400.769,596.756 404.263,598.544 408.569,600.738 410.438,600.738 414.338,600.738 418.481,599.356 422.138,598.056 424.413,596.025 425.713,594.888 426.525,593.506 426.038,593.181 425.55,592.938 423.681,591.719 422.381,590.744 419.538,588.794 418.644,587.819 417.1,586.031 417.1,575.063 417.1,567.75 419.294,554.425Z" test="Banana" stroke-width="1.625"/>
          <path id="Layer10_0_1_STROKES" stroke="#FF0" stroke-width="1.625" stroke-linejoin="round" stroke-linecap="round" fill="none" d="M425.713,597.488 Q424.575,599.519 428.231,606.831 431.888,614.063 435.95,623 439.931,631.938 450.981,641.038 461.95,650.056 467.475,664.6 471.131,674.188 478.363,685.806 486.081,698.156 488.194,703.113 492.419,713.106 492.419,725.213 492.419,737.969 488.681,746.5 484.456,755.925 477.306,755.844 477.306,746.663 474.544,732.363 469.994,708.881 460.569,697.831 439.688,674.106 434.325,667.85 426.606,659.075 420.431,649.406 419.213,653.794 418.563,656.394 418.075,658.1 415.963,663.788 415.313,665.738 413.119,678.981 411.088,691.331 409.381,694.5 401.256,709.288 382.894,726.513 365.263,743.088 359.006,743.088 358.275,743.088 356.731,742.844 355.106,742.519 354.619,742.519 354.944,737.156 360.794,726.106 363.313,721.15 373.794,703.356 393.863,669.15 398.088,650.95 L398.088,647.7 397.519,647.7 Q396.706,649 381.188,661.106 365.1,673.619 357.95,683.856 350.881,694.013 334.55,704.819 320.331,714.325 311.231,716.844 310.988,717.331 309.038,720.013 305.219,725.213 304.325,726.838 302.05,732.2 300.588,734.881 297.906,739.675 294.819,739.675 293.925,739.675 293.763,739.431 L293.763,732.444 Q292.3,718.306 309.444,691.575 326.75,664.438 346.25,651.519 350.394,648.756 360.956,642.581 371.438,636 379.806,628.119 382.325,625.681 387.363,616.338 393.863,604.069 399.225,596.269" test="Banana"/>
          <path id="Layer10_0_2_STROKES" stroke="#FFF" stroke-width="1.625" stroke-linejoin="round" stroke-linecap="round" fill="none" d="M400.038,595.456 Q399.794,595.131 399.794,594.806 399.794,591.8 403.856,586.681 408.163,581.4 408.813,571.731 409.381,561.819 410.031,559.544 412.225,552.313 419.294,554.425 417.1,567.75 417.1,575.063 417.1,586.031 418.644,587.819 419.538,588.794 422.381,590.744 423.681,591.719 425.55,592.938 426.038,593.181 426.525,593.506 425.713,594.888 424.413,596.025 M400.038,595.456 Q400.769,596.756 404.263,598.544 408.569,600.738 410.438,600.738 414.338,600.738 418.481,599.356 422.138,598.056 424.413,596.025" test="Banana"/>
        </g>
      </g>
      <g id="Tween-4">
        <path id="Layer4_0_1_STROKES" stroke="#FFF" stroke-width="1.625" stroke-linejoin="round" stroke-linecap="round" fill="none" d="M546.1,762.088 Q546.1,755.75 555.606,750.794" test="Tween 4"/>
        <g id="Garbage">
          <path fill="#000" stroke="none" d="M438.281,723.969 L436.169,722.75 Q436.006,723.075 435.519,723.969 436.006,723.075 436.169,722.75 436.169,722.588 436.169,722.506 436.169,717.55 433.325,715.6 429.425,712.756 418.294,712.756 406.513,712.756 382.056,725.106 379.213,726.488 374.581,735.263 373.85,736.725 372.956,737.944 372.306,730.713 363.613,725.675 355,720.556 344.356,720.556 332.25,720.556 322.906,726.163 311.125,733.231 311.125,746.475 311.125,747.125 311.206,747.694 305.519,742.331 292.194,742.331 280.981,742.331 274.075,745.825 266.763,749.563 260.344,759.069 255.306,766.463 254.575,772.15 254.169,775.156 254.737,778.569 251.813,771.825 249.375,768.656 245.069,762.969 235.237,762.969 225.975,762.969 219.638,768.575 213.463,774.181 213.463,782.225 213.463,783.688 214.356,795.55 212,799.775 210.619,804.325 208.425,813.344 208.425,821.794 208.425,829.513 214.031,834.388 219.15,838.856 225.731,838.856 228.169,838.856 236.538,837.475 244.825,836.094 250.269,836.094 256.769,836.094 273.263,840.806 289.675,845.519 306.656,845.519 311.613,845.519 351.263,841.944 396.925,838.288 431.7,838.288 439.5,838.206 445.431,838.288 L465.5,839.344 466.313,838.938 Q467.206,838.613 467.938,838.531 472.731,838.288 476.956,835.931 480.125,834.956 482.156,834.063 494.831,828.538 497.513,828.294 L498.081,828.294 Q498.081,828.05 536.025,838.694 577.706,849.5 594.688,849.5 614.188,849.5 623.613,839.506 628.406,834.55 629.219,829.35 629.219,826.75 629.056,826.506 628.975,826.344 628.813,826.181 628.163,825.613 626.456,825.45 628.163,825.613 628.813,826.181 L629.219,825.45 Q631.819,823.825 640.106,820.819 647.094,817.163 647.094,810.419 647.094,806.194 642.056,804.813 L642.625,804.813 Q645.225,802.294 652.05,796.931 657.656,791.731 657.656,786.369 657.656,781.819 654.894,776.375 651.4,769.631 646.281,769.631 637.831,771.663 634.825,771.906 638.725,768.575 638.725,766.869 638.563,764.106 637.019,761.506 634.094,756.388 627.513,756.388 614.594,756.388 609.15,758.256 603.788,760.125 595.175,767.438 593.388,758.175 587.294,752.244 580.956,746.231 572.588,746.231 564.138,746.231 555.606,750.781 L546.1,762.075 Q546.1,763.538 547.156,772.475 546.425,772.069 544.638,771.663 542.931,771.338 541.875,771.338 537.975,771.338 533.344,775.806 531.638,777.513 529.363,781.413 527.25,785.15 526.519,787.506 526.356,788.238 526.194,789.05 525.463,791.975 523.025,793.925 522.294,794.494 521.4,794.819 521.075,794.575 520.831,794.331 516.281,789.863 515.063,783.688 514.413,781.738 513.112,779.625 510.756,775.644 507.019,771.906 515.956,772.881 523.594,770.038 532.125,766.869 533.181,760.206 533.344,759.231 533.344,758.175 533.344,753.95 532.613,751.675 531.069,746.719 525.95,742.331 520.588,737.7 514.819,736.563 512.95,736.156 507.588,736.156 507.669,735.994 512.138,728.113 512.544,727.381 512.869,726.65 L513.6,725.675 Q514.006,725.106 514.088,724.7 514.737,721.369 513.763,718.119 513.194,716.575 510.919,711.781 508.319,706.419 505.15,704.144 497.675,698.781 479.313,698.781 460.056,698.781 443.481,717.469 440.881,720.394 438.281,723.969 M481.75,761.831 Q481.425,762.644 480.775,763.944 481.425,762.644 481.75,761.831 482.4,760.369 482.4,759.231 482.4,752.569 476.55,752.569 473.625,752.569 470.7,753.381 464.85,755.088 464.525,759.394 464.85,755.088 470.7,753.381 473.625,752.569 476.55,752.569 482.4,752.569 482.4,759.231 482.4,760.369 481.75,761.831 M601.675,792.869 Q605.9,795.631 605.9,800.019 605.9,795.631 601.675,792.869 598.181,790.594 594.363,790.594 589,790.594 585.994,792.463 582.825,794.331 582.825,797.744 582.825,794.331 585.994,792.463 589,790.594 594.363,790.594 598.181,790.594 601.675,792.869 M350.45,767.438 Q355.163,769.956 356.3,773.044 355.163,769.956 350.45,767.438 346.063,765.163 342.65,765.163 338.263,765.163 335.094,768.006 330.706,772.069 330.706,780.844 330.706,782.144 330.95,782.875 331.438,784.175 332.9,786.369 331.438,784.175 330.95,782.875 330.706,782.144 330.706,780.844 330.706,772.069 335.094,768.006 338.263,765.163 342.65,765.163 346.063,765.163 350.45,767.438 M416.588,760.206 Q417.725,762.156 417.725,767.194 417.725,776.294 410.575,782.55 402.856,789.213 390.913,788.644 402.856,789.213 410.575,782.55 417.725,776.294 417.725,767.194 417.725,762.156 416.588,760.206 415.288,757.931 411.631,757.931 410.9,757.931 409.844,758.256 408.3,758.744 406.594,759.069 408.3,758.744 409.844,758.256 410.9,757.931 411.631,757.931 415.288,757.931 416.588,760.206Z" test="Garbage" stroke-width="1.625"/>
          <path id="Layer6_0_1_STROKES" stroke="#FFF" stroke-width="1.625" stroke-linejoin="round" stroke-linecap="round" fill="none" d="M436.169,722.75 Q436.006,723.075 435.519,723.969 M628.813,826.181 Q628.975,826.344 629.056,826.506 629.219,826.75 629.219,829.35 628.406,834.55 623.613,839.506 614.188,849.5 594.688,849.5 577.706,849.5 536.025,838.694 498.081,828.05 498.081,828.294 L497.513,828.294 Q494.831,828.538 482.156,834.063 480.125,834.956 476.956,835.931 472.731,838.288 467.938,838.531 467.206,838.613 466.313,838.938 L465.5,839.344 445.431,838.288 Q439.5,838.206 431.7,838.288 396.925,838.288 351.263,841.944 311.613,845.519 306.656,845.519 289.675,845.519 273.263,840.806 256.769,836.094 250.269,836.094 244.825,836.094 236.538,837.475 228.169,838.856 225.731,838.856 219.15,838.856 214.031,834.388 208.425,829.513 208.425,821.794 208.425,813.344 210.619,804.325 212,799.775 214.356,795.55 213.463,783.688 213.463,782.225 213.463,774.181 219.638,768.575 225.975,762.969 235.237,762.969 245.069,762.969 249.375,768.656 251.813,771.825 254.737,778.569 254.169,775.156 254.575,772.15 255.306,766.463 260.344,759.069 266.763,749.563 274.075,745.825 280.981,742.331 292.194,742.331 305.519,742.331 311.206,747.694 311.125,747.125 311.125,746.475 311.125,733.231 322.906,726.163 332.25,720.556 344.356,720.556 355,720.556 363.613,725.675 372.306,730.713 372.956,737.944 373.85,736.725 374.581,735.263 379.213,726.488 382.056,725.106 406.513,712.756 418.294,712.756 429.425,712.756 433.325,715.6 436.169,717.55 436.169,722.506 436.169,722.588 436.169,722.75 M438.281,723.969 Q440.881,720.394 443.481,717.469 460.056,698.781 479.313,698.781 497.675,698.781 505.15,704.144 508.319,706.419 510.919,711.781 513.194,716.575 513.763,718.119 514.737,721.369 514.088,724.7 514.006,725.106 513.6,725.675 L512.869,726.65 Q512.544,727.381 512.138,728.113 507.669,735.994 507.588,736.156 512.95,736.156 514.819,736.563 520.588,737.7 525.95,742.331 531.069,746.719 532.613,751.675 533.344,753.95 533.344,758.175 533.344,759.231 533.181,760.206 532.125,766.869 523.594,770.038 515.956,772.881 507.019,771.906 510.756,775.644 513.112,779.625 514.413,781.738 515.063,783.688 516.281,789.863 520.831,794.331 521.075,794.575 521.4,794.819 522.294,794.494 523.025,793.925 525.463,791.975 526.194,789.05 526.356,788.238 526.519,787.506 527.25,785.15 529.363,781.413 531.638,777.513 533.344,775.806 537.975,771.338 541.875,771.338 542.931,771.338 544.638,771.663 546.425,772.069 547.156,772.475 546.1,763.538 546.1,762.075 M555.606,750.781 Q564.138,746.231 572.588,746.231 580.956,746.231 587.294,752.244 593.388,758.175 595.175,767.438 603.788,760.125 609.15,758.256 614.594,756.388 627.513,756.388 634.094,756.388 637.019,761.506 638.563,764.106 638.725,766.869 638.725,768.575 634.825,771.906 637.831,771.663 646.281,769.631 651.4,769.631 654.894,776.375 657.656,781.819 657.656,786.369 657.656,791.731 652.05,796.931 645.225,802.294 642.625,804.813 L642.056,804.813 Q647.094,806.194 647.094,810.419 647.094,817.163 640.106,820.819 631.819,823.825 629.219,825.45 M626.456,825.45 Q628.163,825.613 628.813,826.181 M464.525,759.394 Q464.85,755.088 470.7,753.381 473.625,752.569 476.55,752.569 482.4,752.569 482.4,759.231 482.4,760.369 481.75,761.831 481.425,762.644 480.775,763.944 M582.825,797.744 Q582.825,794.331 585.994,792.463 589,790.594 594.363,790.594 598.181,790.594 601.675,792.869 605.9,795.631 605.9,800.019 M332.9,786.369 Q331.438,784.175 330.95,782.875 330.706,782.144 330.706,780.844 330.706,772.069 335.094,768.006 338.263,765.163 342.65,765.163 346.063,765.163 350.45,767.438 355.163,769.956 356.3,773.044 M406.594,759.069 Q408.3,758.744 409.844,758.256 410.9,757.931 411.631,757.931 415.288,757.931 416.588,760.206 417.725,762.156 417.725,767.194 417.725,776.294 410.575,782.55 402.856,789.213 390.913,788.644" test="Garbage"/>
        </g>
        <g id="GarbageCloud">
          <path id="Layer7_0_1_STROKES" stroke="#FFF" stroke-width="1.625" stroke-linejoin="round" stroke-linecap="round" fill="none" d="M477.988,645.806 Q480.425,644.506 480.913,643.775 481.888,642.394 481.888,638.575 481.888,633.781 477.744,626.631 473.6,619.481 473.6,613.063 473.6,607.863 479.694,597.788 485.788,587.713 485.788,583.244 485.788,580.644 483.513,577.637 483.188,577.231 480.181,573.819 M574.188,620.131 Q575.163,618.019 579.063,614.525 584.263,609.731 588.488,609.488 589.625,611.762 589.625,613.956 589.625,614.525 584.019,620.131 L574.188,620.131 Q574.025,620.456 573.781,621.188 574.35,621.431 574.919,621.838 577.275,623.381 577.275,625.088 577.275,626.875 576.788,627.363 576.219,627.931 574.269,627.931 572.481,627.931 571.181,626.875 570.044,625.819 570.044,624.519 570.044,623.544 570.45,622.894 566.713,622.894 564.438,622.325 558.913,621.106 558.913,617.288 558.913,614.444 559.969,612.331 561.431,609.488 564.194,609.488 568.094,609.488 570.531,612.981 572.156,615.419 573.375,620.131 L574.188,620.131Z M570.45,622.894 L570.531,622.894 Q571.669,622.894 571.994,622.813 572.4,622.731 572.806,622.325 L572.806,621.188 Q571.75,621.594 571.181,622 570.694,622.325 570.45,622.894Z M573.781,621.188 Q572.075,620.375 570.613,620.7 M291.356,606.238 Q291.6,605.425 291.925,604.613 287.131,604.775 282.5,608.025 278.438,610.706 277.056,613.387 L277.056,618.994 282.094,618.994 Q289.731,613.225 290.788,608.35 291.031,607.294 291.356,606.238 290.95,606.238 290.463,606.238 M297.125,607.375 Q295.744,606.156 294.85,605.506 292.656,605.588 292.169,605.669 M294.85,605.506 Q294.119,604.938 293.713,604.694 293.469,604.531 292.738,604.531 292.331,604.531 291.925,604.613 294.038,599.25 298.831,593.319 L303.869,593.319 Q303.869,593.887 304.194,595.35 304.438,596.813 304.438,597.544 304.438,603.8 298.913,605.262 296.475,605.425 294.85,605.506Z M335.638,629.069 Q337.831,624.438 339.375,620.944 342.381,614.2 342.381,611.681 342.381,609.569 337.913,605.1 333.444,600.55 333.444,599.169 333.444,595.188 335.394,589.094 337.344,582.919 337.344,580.238 337.344,574.387 337.019,572.681 336.288,568.375 333.444,567.075 M291.6,607.375 L291.356,608.431 Q291.031,609.731 291.031,610.625 291.031,612.088 292.656,612.819 293.875,613.387 295.013,613.387 295.825,613.387 296.8,613.063 298.669,612.413 298.831,612.331 298.506,608.838 296.231,607.375 294.525,606.4 291.356,606.238" test="GarbageCloud"/>
        </g>
      </g>
      <g id="Drawer">
        <path fill="#000" stroke="none" d="M702.662,959.813 Q702.175,960.3 701.769,960.788 L701.769,988.331 Q702.175,988.738 702.662,989.225 708.594,995.156 716.881,995.319 L717.369,995.319 Q725.981,995.319 732.075,989.225 738.169,983.131 738.169,974.519 738.169,965.906 732.075,959.813 725.981,953.719 717.369,953.719 L716.881,953.719 Q708.594,953.881 702.662,959.813 M152.519,872.469 Q147.319,896.356 148.294,922.6 151.381,996.456 150.244,1043.175 149.269,1088.594 152.519,1101.269 253.269,1099.888 352.719,1104.113 392.044,1102.975 418.206,1104.356 444.775,1105.738 463.219,1105.738 470.287,1105.738 477.519,1105.656 487.675,1106.875 497.75,1106.713 516.275,1105.25 534.637,1102.569 553.65,1100.213 572.906,1102.406 591.35,1104.519 609.631,1104.031 628.806,1103.463 647.819,1102.325 670.081,1101.919 701.769,1101.269 L701.769,995.319 701.769,988.331 701.769,960.788 Q701.688,957.213 701.688,953.719 700.631,898.631 701.769,843.869 L666.669,843.869 666.669,872.469 581.519,869.3 Q356.05,876.694 152.519,872.469Z" test="Drawer" stroke-width="1.625"/>
        <path id="Layer3_0_1_STROKES" stroke="#F60" stroke-width="3.25" stroke-linejoin="round" stroke-linecap="round" fill="none" d="M701.769,988.331 L701.769,995.319 701.769,1101.269 Q670.081,1101.919 647.819,1102.325 628.806,1103.463 609.631,1104.031 591.35,1104.519 572.906,1102.406 553.65,1100.213 534.637,1102.569 516.275,1105.25 497.75,1106.713 487.675,1106.875 477.519,1105.656 470.287,1105.738 463.219,1105.738 444.775,1105.738 418.206,1104.356 392.044,1102.975 352.719,1104.113 253.269,1099.888 152.519,1101.269 149.269,1088.594 150.244,1043.175 151.381,996.456 148.294,922.6 147.319,896.356 152.519,872.469 356.05,876.694 581.519,869.3 L666.669,872.469 666.669,843.869 701.769,843.869 Q700.631,898.631 701.688,953.719 701.688,957.213 701.769,960.788 702.175,960.3 702.662,959.813 708.594,953.881 716.881,953.719 L717.369,953.719 Q725.981,953.719 732.075,959.813 738.169,965.906 738.169,974.519 738.169,983.131 732.075,989.225 725.981,995.319 717.369,995.319 L716.881,995.319 Q708.594,995.156 702.662,989.225 702.175,988.738 701.769,988.331 L701.769,960.788" test="Drawer"/>
      </g>
      <g id="DrawersCabinetFront">
        <path fill="#000" stroke="none" d="M193.919,1263.294 Q194.325,1263.7 194.813,1264.188 200.744,1270.119 209.031,1270.281 L209.519,1270.281 Q218.131,1270.281 224.225,1264.188 230.319,1258.094 230.319,1249.481 230.319,1240.869 224.225,1234.775 218.131,1228.681 209.519,1228.681 L209.031,1228.681 Q200.744,1228.844 194.813,1234.775 194.325,1235.262 193.919,1235.75 L193.919,1263.294 M193.919,1118.831 L158.819,1118.831 158.819,1147.431 73.669,1144.262 Q-151.8,1151.656 -355.331,1147.431 -360.531,1171.319 -359.556,1197.563 -356.469,1271.419 -357.606,1318.137 -358.581,1363.556 -355.331,1376.231 -254.581,1374.85 -155.131,1379.075 -115.806,1377.938 -89.644,1379.319 -63.075,1380.7 -44.631,1380.7 -37.562,1380.7 -30.331,1380.619 -20.175,1381.837 -10.1,1381.675 8.425,1380.212 26.787,1377.531 45.8,1375.175 65.056,1377.369 83.5,1379.481 101.781,1378.994 120.956,1378.425 139.969,1377.288 162.231,1376.881 193.919,1376.231 L193.919,1270.281 193.919,1263.294 193.919,1235.75 Q193.837,1232.175 193.837,1228.681 192.781,1173.594 193.919,1118.831Z" test="DrawersCabinetFront" stroke-width="1.625"/>
        <path id="Layer2_0_1_STROKES" stroke="#F60" stroke-width="3.25" stroke-linejoin="round" stroke-linecap="round" fill="none" d="M193.919,1263.294 L193.919,1270.281 193.919,1376.231 Q162.231,1376.881 139.969,1377.288 120.956,1378.425 101.781,1378.994 83.5,1379.481 65.056,1377.369 45.8,1375.175 26.787,1377.531 8.425,1380.212 -10.1,1381.675 -20.175,1381.837 -30.331,1380.619 -37.562,1380.7 -44.631,1380.7 -63.075,1380.7 -89.644,1379.319 -115.806,1377.938 -155.131,1379.075 -254.581,1374.85 -355.331,1376.231 -358.581,1363.556 -357.606,1318.137 -356.469,1271.419 -359.556,1197.563 -360.531,1171.319 -355.331,1147.431 -151.8,1151.656 73.669,1144.262 L158.819,1147.431 158.819,1118.831 193.919,1118.831 Q192.781,1173.594 193.837,1228.681 193.837,1232.175 193.919,1235.75 194.325,1235.262 194.813,1234.775 200.744,1228.844 209.031,1228.681 L209.519,1228.681 Q218.131,1228.681 224.225,1234.775 230.319,1240.869 230.319,1249.481 230.319,1258.094 224.225,1264.188 218.131,1270.281 209.519,1270.281 L209.031,1270.281 Q200.744,1270.119 194.813,1264.188 194.325,1263.7 193.919,1263.294 L193.919,1235.75" test="DrawersCabinetFront"/>
        <path fill="#000" stroke="none" d="M117.3,831.206 Q82.361,829.914 48.725,827.956 15.182,826.083 -73.637,826.412 -162.395,826.83 -203.394,827.306 -244.292,827.864 -296.181,827.387 -348.089,826.905 -378.081,830.556 -380.194,847.781 -382.631,986.312 -385.15,1130.206 -382.794,1158.563 -381.9,1170.1 -387.831,1274.019 -393.678,1377.936 -389.212,1380.212 -384.672,1382.491 -372.637,1381.594 -368.128,1381.316 -362.887,1380.619 -352.812,1379.319 -342.656,1378.019 -294.963,1373.144 -247.187,1374.606 -225.026,1374.752 -201.525,1375.012 -83.469,1376.394 -67.869,1376.394 -53.406,1376.394 52.462,1380.456 53.681,1380.538 54.981,1380.538 58.313,1380.7 61.644,1380.781 66.356,1380.944 70.906,1381.025 156.462,1383.544 158.413,1380.456 160.688,1376.881 160.85,1362.744 160.769,1342.594 160.769,1329.512 160.769,1234.369 161.988,1201.3 162.556,1185.05 160.769,1109.813 159.063,1034.087 159.631,1015.156 160.686,980.147 159.875,905.875 159.147,831.591 155.731,832.019 152.314,832.521 117.3,831.206Z" test="DrawersCabinetFront" stroke-width="1.625"/>
        <path id="Layer1_0_1_STROKES" stroke="#F60" stroke-width="3.25" stroke-linejoin="round" stroke-linecap="round" fill="none" d="M-378.081,830.556 Q-348.089,826.905 -296.181,827.387 -244.292,827.864 -203.353,827.347 -162.395,826.83 -73.597,826.453 15.182,826.083 48.766,827.997 82.361,829.914 117.341,831.206 152.314,832.521 155.731,832.059 159.147,831.591 159.916,905.875 160.686,980.147 159.631,1015.156 159.063,1034.087 160.769,1109.813 162.556,1185.05 161.988,1201.3 160.769,1234.369 160.769,1329.512 160.769,1342.594 160.85,1362.744 160.688,1376.881 158.413,1380.456 156.462,1383.544 70.906,1381.025 66.356,1380.944 61.644,1380.781 58.313,1380.7 54.981,1380.538 53.681,1380.538 52.462,1380.456 -53.406,1376.394 -67.869,1376.394 -83.469,1376.394 -201.525,1375.012 -225.026,1374.752 -247.187,1374.606 -294.963,1373.144 -342.656,1378.019 -352.812,1379.319 -362.887,1380.659 -368.128,1381.316 -372.597,1381.634 -384.672,1382.491 -389.172,1380.212 -393.678,1377.936 -387.791,1274.019 -381.9,1170.1 -382.794,1158.563 -385.15,1130.206 -382.631,986.312 -380.194,847.781 -378.081,830.556Z" test="DrawersCabinetFront"/>
      </g>
    </g>
  </g>
</svg>