<?xml version="1.0" encoding="utf-8"?>
<svg id="EdithAnim12" image-rendering="inherit" baseProfile="basic" version="1.1" x="0px" y="0px" width="800" height="600" xmlns="http://www.w3.org/2000/svg" xmlns:xlink="http://www.w3.org/1999/xlink">
  <g id="21_GarbageDrawerf178r1" overflow="visible">
    <g id="GarbageDrawerGroupf178r1">
      <g id="Tween-6">
        <path fill="#000" stroke="none" d="M292.531,657.006 Q288.387,654.813 286.275,654.813 276.119,654.813 270.431,667.081 265.719,676.994 265.069,692.188 264.987,692.513 264.906,692.838 264.338,694.625 262.469,696.413 L249.387,696.413 Q249.144,696.494 244.025,696.981 240.288,697.388 238.987,699.338 238.581,699.906 238.5,701.613 238.419,703.563 238.337,703.888 236.387,701.938 226.637,701.938 214.287,701.938 214.287,712.013 214.287,712.906 214.531,715.588 214.694,718.594 214.937,719.488 212.175,719.975 209.412,723.306 205.513,727.856 205.513,734.925 205.513,736.306 206.406,739.881 206.894,741.913 207.787,745.488 208.356,748.006 208.925,748.9 210.631,751.338 214.937,751.988 216.075,752.15 229.725,755.806 247.275,759.788 267.913,762.063 275.713,762.956 327.713,770.756 367.769,776.769 395.313,777.988 423.831,779.288 462.019,782.375 488.75,784.488 512.475,784.488 533.356,784.488 565.206,778.394 598.031,772.219 607.213,765.963 610.706,763.606 614.2,762.631 618.019,761.575 619.887,760.438 626.713,756.05 628.338,753.613 632.806,746.788 633.781,743.863 634.188,742.644 634.188,739.15 634.188,735.494 633.213,732.975 631.75,730.213 630.938,728.588 L630.938,727.938 Q629.963,726.963 629.963,725.663 629.963,725.581 636.625,720.381 643.287,714.369 643.287,710.713 643.287,704.05 641.5,699.663 639.063,693.813 632.888,689.588 629.313,687.15 622.894,685.769 616.719,684.631 615.338,684.063 616.069,682.681 619.563,678.7 622.813,674.394 622.813,669.925 622.813,663.1 617.938,656.763 611.6,648.638 600.713,648.638 593.481,648.638 588.038,650.588 588.688,649.856 589.175,649.044 589.988,647.5 589.988,644.738 589.988,638.156 582.512,632.713 572.762,625.563 554.4,625.563 L544.813,626.7 Q540.831,628.488 538.475,634.175 538.313,634.744 537.988,635.313 538.313,634.744 538.475,634.175 540.181,628.081 528.238,622.719 517.35,617.763 509.225,617.763 499.638,617.763 495.575,620.85 491.513,623.938 490.537,632.063 487.287,628.813 485.419,627.431 482.169,624.913 479.813,624.913 469.981,624.913 464.456,629.3 461.694,631.494 453.487,642.463 L453.487,642.138 Q452.513,635.394 451.862,632.794 450.888,628.406 448.856,626.213 444.063,621.013 425.375,621.013 421.638,621.013 417.819,623.125 414,625.156 410.912,628.813 410.1,628 408.394,624.994 406.362,621.419 406.362,621.338 401.244,613.7 397.912,611.019 394.256,608.013 389.463,608.013 363.869,608.013 349.244,617.275 336.65,625.319 339.088,634.013 335.838,629.95 333.806,627.919 330.231,624.263 326.575,624.263 314.631,624.263 304.638,636.369 294.725,648.313 296.838,659.688 296.188,658.875 292.531,657.006 M350.787,664.969 Q353.225,666.106 356.963,668.463 359.563,669.844 359.888,670.088 360.537,670.494 359.563,670.413 360.537,670.494 359.888,670.088 359.563,669.844 356.963,668.463 353.225,666.106 350.787,664.969 346.4,662.938 341.688,662.938 326.575,662.938 318.287,670.088 326.575,662.938 341.688,662.938 346.4,662.938 350.787,664.969 M408.719,657.331 Q415.3,654.488 422.612,654.488 429.112,654.488 433.987,664.888 433.987,665.538 433.419,666.188 432.769,666.919 432.037,667.163 432.769,666.919 433.419,666.188 433.987,665.538 433.987,664.888 429.112,654.488 422.612,654.488 415.3,654.488 408.719,657.331 401.894,660.338 398.563,665.213 401.894,660.338 408.719,657.331 M523.525,650.913 Q524.094,650.913 527.831,654.975 531.488,659.038 531.488,659.688 531.488,668.056 528.319,672.444 526.206,675.369 523.362,675.938 526.206,675.369 528.319,672.444 531.488,668.056 531.488,659.688 531.488,659.038 527.831,654.975 524.094,650.913 523.525,650.913 503.05,650.913 493.463,659.038 503.05,650.913 523.525,650.913 M594.7,669.681 Q598.113,672.281 598.113,682.275 598.113,692.106 589.744,698.525 583.081,703.644 578.288,703.238 583.081,703.644 589.744,698.525 598.113,692.106 598.113,682.275 598.113,672.281 594.7,669.681 591.45,667.163 578.938,667.488 591.45,667.163 594.7,669.681 M600.387,700.313 Q612.006,700.15 612.981,700.475 617.288,701.775 617.288,710.063 617.288,712.825 614.769,715.425 613.144,716.969 608.838,719.813 607.7,720.544 605.75,722.25 603.963,723.713 603.313,724.038 603.963,723.713 605.75,722.25 607.7,720.544 608.838,719.813 613.144,716.969 614.769,715.425 617.288,712.825 617.288,710.063 617.288,701.775 612.981,700.475 612.006,700.15 600.387,700.313Z" test="Tween 6" stroke-width="1.625"/>
        <path id="Layer5_0_1_STROKES" stroke="#FFF" stroke-width="1.625" stroke-linejoin="round" stroke-linecap="round" fill="none" d="M630.938,728.588 Q631.75,730.213 633.213,732.975 634.188,735.494 634.188,739.15 634.188,742.644 633.781,743.863 632.806,746.788 628.338,753.613 626.713,756.05 619.887,760.438 618.019,761.575 614.2,762.631 610.706,763.606 607.213,765.963 598.031,772.219 565.206,778.394 533.356,784.488 512.475,784.488 488.75,784.488 462.019,782.375 423.831,779.288 395.313,777.988 367.769,776.769 327.713,770.756 275.713,762.956 267.913,762.063 247.275,759.788 229.725,755.806 216.075,752.15 214.937,751.988 210.631,751.338 208.925,748.9 208.356,748.006 207.787,745.488 206.894,741.913 206.406,739.881 205.513,736.306 205.513,734.925 205.513,727.856 209.412,723.306 212.175,719.975 214.937,719.488 214.694,718.594 214.531,715.588 214.287,712.906 214.287,712.013 214.287,701.938 226.637,701.938 236.387,701.938 238.337,703.888 238.419,703.563 238.5,701.613 238.581,699.906 238.987,699.338 240.288,697.388 244.025,696.981 249.144,696.494 249.387,696.413 L262.469,696.413 Q264.338,694.625 264.906,692.838 264.987,692.513 265.069,692.188 265.719,676.994 270.431,667.081 276.119,654.813 286.275,654.813 288.387,654.813 292.531,657.006 296.188,658.875 296.838,659.688 294.725,648.313 304.638,636.369 314.631,624.263 326.575,624.263 330.231,624.263 333.806,627.919 335.838,629.95 339.088,634.013 336.65,625.319 349.244,617.275 363.869,608.013 389.463,608.013 394.256,608.013 397.912,611.019 401.244,613.7 406.362,621.338 406.362,621.419 408.394,624.994 410.1,628 410.912,628.813 414,625.156 417.819,623.125 421.638,621.013 425.375,621.013 444.063,621.013 448.856,626.213 450.888,628.406 451.862,632.794 452.513,635.394 453.487,642.138 L453.487,642.463 Q461.694,631.494 464.456,629.3 469.981,624.913 479.813,624.913 482.169,624.913 485.419,627.431 487.287,628.813 490.537,632.063 491.513,623.938 495.575,620.85 499.638,617.763 509.225,617.763 517.35,617.763 528.238,622.719 540.181,628.081 538.475,634.175 540.831,628.488 544.813,626.7 547.494,625.563 554.4,625.563 572.762,625.563 582.512,632.713 589.988,638.156 589.988,644.738 589.988,647.5 589.175,649.044 588.688,649.856 588.038,650.588 593.481,648.638 600.713,648.638 611.6,648.638 617.938,656.763 622.813,663.1 622.813,669.925 622.813,674.394 619.563,678.7 616.069,682.681 615.338,684.063 616.719,684.631 622.894,685.769 629.313,687.15 632.888,689.588 639.063,693.813 641.5,699.663 643.287,704.05 643.287,710.713 643.287,714.369 636.625,720.381 629.963,725.581 629.963,725.663 629.963,726.963 630.938,727.938 M318.287,670.088 Q326.575,662.938 341.688,662.938 346.4,662.938 350.787,664.969 353.225,666.106 356.963,668.463 359.563,669.844 359.888,670.088 360.537,670.494 359.563,670.413 M398.563,665.213 Q401.894,660.338 408.719,657.331 415.3,654.488 422.612,654.488 429.112,654.488 433.987,664.888 433.987,665.538 433.419,666.188 432.769,666.919 432.037,667.163 M538.475,634.175 Q538.313,634.744 537.988,635.313 M493.463,659.038 Q503.05,650.913 523.525,650.913 524.094,650.913 527.831,654.975 531.488,659.038 531.488,659.688 531.488,668.056 528.319,672.444 526.206,675.369 523.362,675.938 M578.938,667.488 Q591.45,667.163 594.7,669.681 598.113,672.281 598.113,682.275 598.113,692.106 589.744,698.525 583.081,703.644 578.288,703.238 M600.387,700.313 Q612.006,700.15 612.981,700.475 617.288,701.775 617.288,710.063 617.288,712.825 614.769,715.425 613.144,716.969 608.838,719.813 607.7,720.544 605.75,722.25 603.963,723.713 603.313,724.038" test="Tween 6"/>
      </g>
      <g id="Tween-5">
        <g id="Tin-can-Rubbish">
          <path fill="#000" stroke="none" d="M258.781,713.856 Q246.025,729.213 239.769,734.981 224.9,748.713 213.2,749.038 L213.525,751.313 Q213.525,752.856 213.281,754.319 212.956,755.781 212.956,756.269 212.956,757.406 214.581,758.056 215.963,758.544 217.913,758.544 221.813,758.544 230.913,754.075 L231.319,754.075 Q226.931,759.925 226.931,761.631 226.931,766.425 232.7,766.425 236.194,766.425 236.681,766.263 237.169,766.019 239.444,764.313 239.85,763.419 240.256,763.013 L240.256,763.581 Q239.769,763.906 239.444,764.313 238.875,765.206 238.144,766.669 236.356,770.488 236.356,773.25 236.356,777.556 242.613,779.669 248.219,781.538 246.431,787.55 252.281,787.794 253.906,789.988 254.313,790.556 254.719,791.613 L254.719,791.694 Q269.425,785.763 275.763,781.131 281.856,776.581 284.375,770.244 281.856,776.581 275.763,781.131 269.425,785.763 254.719,791.694 255.288,793.319 255.938,796 256.669,797.869 260.325,800.713 262.681,802.663 261.462,806.563 L267.069,806.563 Q289.738,797.219 313.869,768.7 337.269,741.156 342.956,718.894 L342.956,713.856 Q339.219,713.044 334.588,713.856 L331.256,713.856 Q332.881,710.119 328.331,708.25 322.075,706.625 319.069,705.569 317.363,704.919 316.225,702.563 315.169,699.556 314.519,698.094 312.081,692.65 305.581,694.356 L305.581,689.888 Q306.719,688.75 306.719,687.125 306.719,684.85 302.25,684.444 297.213,684.363 296.075,684.281 296.075,683.469 296.644,681.438 297.213,679.488 297.213,678.838 297.213,675.831 292.175,675.425 294.45,671.281 290.713,669.006 287.463,667.788 285.431,666.975 287.788,668.438 287.788,671.769 287.788,682.25 279.744,691.431 267.394,703.538 258.781,713.856 M293.15,713.125 Q290.55,717.513 288.925,717.838 290.55,717.513 293.15,713.125 294.775,710.281 299.975,701.1 294.775,710.281 293.15,713.125 M325.325,725.719 Q322.238,730.431 318.5,731.731 322.238,730.431 325.325,725.719 328.494,720.844 330.119,713.856 328.494,720.844 325.325,725.719 M270.969,740.1 Q268.856,743.513 265.281,749.931 262.844,754.4 262.031,755.213 262.844,754.4 265.281,749.931 268.856,743.513 270.969,740.1 M225.713,710.688 Q212.631,727.425 211.169,735.875 210.356,740.019 210.113,742.294 209.706,744.65 209.869,745.138 209.788,745.381 209.706,745.625 209.625,746.275 209.625,746.763 209.625,748.063 210.113,748.469 210.763,749.038 212.631,749.038 212.875,749.038 213.2,749.038 224.9,748.713 239.769,734.981 246.025,729.213 258.781,713.856 267.394,703.538 279.744,691.431 287.788,682.25 287.788,671.769 287.788,668.438 285.431,666.975 284.456,666.406 283.238,666.163 282.019,665.919 280.475,665.919 273.406,665.919 256.1,679.975 238.794,693.95 225.713,710.688Z" test="Tin can Rubbish" stroke-width="1.625"/>
          <path id="Layer8_0_1_STROKES" stroke="#009EFF" stroke-width="1.625" stroke-linejoin="round" stroke-linecap="round" fill="none" d="M210.113,742.294 Q209.706,744.65 209.869,745.138 M285.431,666.975 Q287.463,667.788 290.713,669.006 294.45,671.281 292.175,675.425 297.213,675.831 297.213,678.838 297.213,679.488 296.644,681.438 296.075,683.469 296.075,684.281 297.213,684.363 302.25,684.444 306.719,684.85 306.719,687.125 306.719,688.75 305.581,689.888 L305.581,694.356 Q312.081,692.65 314.519,698.094 315.169,699.556 316.225,702.563 317.363,704.919 319.069,705.569 322.075,706.625 328.331,708.25 332.881,710.119 331.256,713.856 L334.588,713.856 Q339.219,713.044 342.956,713.856 L342.956,718.894 Q337.269,741.156 313.869,768.7 289.738,797.219 267.069,806.563 L261.462,806.563 Q262.681,802.663 260.325,800.713 256.669,797.869 255.938,796 255.288,793.319 254.719,791.694 L254.719,791.613 Q254.313,790.556 253.906,789.988 252.281,787.794 246.431,787.55 248.219,781.538 242.613,779.669 236.356,777.556 236.356,773.25 236.356,770.488 238.144,766.669 238.875,765.206 239.444,764.313 237.169,766.019 236.681,766.263 236.194,766.425 232.7,766.425 226.931,766.425 226.931,761.631 226.931,759.925 231.319,754.075 L230.913,754.075 Q221.813,758.544 217.913,758.544 215.963,758.544 214.581,758.056 212.956,757.406 212.956,756.269 212.956,755.781 213.281,754.319 213.525,752.856 213.525,751.313 M299.975,701.1 Q294.775,710.281 293.15,713.125 290.55,717.513 288.925,717.838 M330.119,713.856 Q328.494,720.844 325.325,725.719 322.238,730.431 318.5,731.731 M270.969,740.1 Q268.856,743.513 265.281,749.931 262.844,754.4 262.031,755.213 M239.444,764.313 Q239.769,763.906 240.256,763.581 L240.256,763.013 Q239.85,763.419 239.444,764.313Z M254.719,791.694 Q269.425,785.763 275.763,781.131 281.856,776.581 284.375,770.244" test="Tin can Rubbish"/>
          <path id="Layer8_0_2_STROKES" stroke="#FFF" stroke-width="1.625" stroke-linejoin="round" stroke-linecap="round" fill="none" d="M285.431,666.975 Q284.456,666.406 283.238,666.163 282.019,665.919 280.475,665.919 273.406,665.919 256.1,679.975 238.794,693.95 225.713,710.688 212.631,727.425 211.169,735.875 210.356,740.019 210.113,742.294 M209.869,745.138 Q209.788,745.381 209.706,745.625 209.625,746.275 209.625,746.763 209.625,748.063 210.113,748.469 210.763,749.038 212.631,749.038 212.875,749.038 213.2,749.038 224.9,748.713 239.769,734.981 246.025,729.213 258.781,713.856 267.394,703.538 279.744,691.431 287.788,682.25 287.788,671.769 287.788,668.438 285.431,666.975" test="Tin can Rubbish"/>
        </g>
        <g id="Bottle">
          <path fill="#000" stroke="none" d="M573.731,797.613 Q571.213,797.288 562.275,795.419 554.475,793.713 550.088,793.794 541.963,793.875 530.019,786.969 518.237,780.225 507.269,769.419 499.469,761.7 492.562,750.081 487.037,739.6 486.469,738.788 483.787,735.05 481.675,731.15 478.019,724.65 478.262,721.481 459.819,747.238 438.937,770.881 416.431,796.231 399.775,825.481 384.419,852.456 410.581,871.144 437.8,890.563 468.756,901.775 485.9,908.113 499.631,894.056 523.031,870.088 541.637,841.488 556.262,818.9 573.325,798.1 L573.731,797.613 M525.306,686.3 Q525.144,686.219 524.981,686.219 508.406,685.569 496.381,698.569 486.469,709.294 478.262,721.481 478.019,724.65 481.675,731.15 483.787,735.05 486.469,738.788 487.037,739.6 492.562,750.081 499.469,761.7 507.269,769.419 518.237,780.225 530.019,786.969 541.963,793.875 550.088,793.794 554.475,793.713 562.275,795.419 571.213,797.288 573.731,797.613 591.769,780.144 600.137,756.744 600.463,755.931 600.787,755.119 599.975,755.038 599.65,755.119 597.294,755.2 596.4,755.281 595.181,755.363 593.231,755.85 591.363,756.338 588.519,756.338 581.531,756.338 563.981,744.475 547.162,733.181 537.738,722.863 529.938,714.25 527.744,703.769 526.606,692.881 525.306,686.3 M605.744,691.419 Q595.831,683.538 589.25,668.425 560.569,688.575 525.306,686.3 526.606,692.881 527.744,703.769 529.938,714.25 537.738,722.863 547.162,733.181 563.981,744.475 581.531,756.338 588.519,756.338 591.363,756.338 593.231,755.85 595.181,755.363 596.4,755.281 597.294,755.2 599.65,755.119 599.975,755.038 600.787,755.119 592.581,722.213 619.069,701.088 619.8,700.519 620.531,699.788 608.181,693.369 605.744,691.419 M589.088,666.556 L589.25,668.425 Q595.831,683.538 605.744,691.419 608.181,693.369 620.531,699.788 L625.244,700.6 Q628.819,699.138 633.287,690.363 637.512,681.994 637.512,677.688 637.512,672.488 625.813,659.813 620.206,653.719 615.981,650.55 611.35,646.975 608.506,646.975 603.875,646.975 596.481,656.075 593.637,659.569 589.088,666.556 M612.975,655.669 Q612.488,654.938 612.406,654.856 612.488,654.938 612.975,655.669 614.194,657.375 618.094,663.144 624.838,672 630.85,675.981 624.838,672 618.094,663.144 614.194,657.375 612.975,655.669Z" test="Bottle" stroke-width="1.625"/>
          <path id="Layer9_0_1_STROKES" stroke="#FFF" stroke-width="1.625" stroke-linejoin="round" stroke-linecap="round" fill="none" d="M589.25,668.425 Q595.831,683.538 605.744,691.419 608.181,693.369 620.531,699.788 M625.244,700.6 Q628.819,699.138 633.287,690.363 637.512,681.994 637.512,677.688 637.512,672.488 625.813,659.813 620.206,653.719 615.981,650.55 611.35,646.975 608.506,646.975 603.875,646.975 596.481,656.075 593.637,659.569 589.088,666.556 M630.85,675.981 Q624.838,672 618.094,663.144 614.194,657.375 612.975,655.669 612.488,654.938 612.406,654.856 M478.262,721.481 Q478.019,724.65 481.675,731.15 483.787,735.05 486.469,738.788 487.037,739.6 492.562,750.081 499.469,761.7 507.269,769.419 518.237,780.225 530.019,786.969 541.963,793.875 550.088,793.794 554.475,793.713 562.275,795.419 571.213,797.288 573.731,797.613 M600.787,755.119 Q599.975,755.038 599.65,755.119 597.294,755.2 596.4,755.281 595.181,755.363 593.231,755.85 591.363,756.338 588.519,756.338 581.531,756.338 563.981,744.475 547.162,733.181 537.738,722.863 529.938,714.25 527.744,703.769 526.606,692.881 525.306,686.3 525.144,685.406 524.981,684.594 M573.731,797.613 Q574.056,797.694 574.219,797.694 574.219,797.938 573.325,798.1" test="Bottle"/>
          <path id="Layer9_0_2_STROKES" stroke="#0F0" stroke-width="1.625" stroke-linejoin="round" stroke-linecap="round" fill="none" d="M525.306,686.3 Q525.144,686.219 524.981,686.219 508.406,685.569 496.381,698.569 486.469,709.294 478.262,721.481 M573.731,797.613 Q591.769,780.144 600.137,756.744 600.463,755.931 600.787,755.119 592.581,722.213 619.069,701.088 619.8,700.519 620.531,699.788 M589.25,668.425 Q560.569,688.575 525.306,686.3 M573.325,798.1 Q556.262,818.9 541.637,841.488 523.031,870.088 499.631,894.056 485.9,908.113 468.756,901.775 437.8,890.563 410.581,871.144 384.419,852.456 399.775,825.481 416.431,796.231 438.937,770.881 459.819,747.238 478.262,721.481 M573.325,798.1 L573.731,797.613" test="Bottle"/>
        </g>
        <g id="Banana">
          <path fill="#000" stroke="none" d="M400.038,621.606 L399.225,622.419 Q393.863,630.219 387.363,642.488 382.325,651.831 379.806,654.269 371.438,662.15 360.956,668.731 350.394,674.906 346.25,677.669 326.75,690.588 309.444,717.725 292.3,744.456 293.763,758.594 L293.763,765.581 Q293.925,765.825 294.819,765.825 297.906,765.825 300.588,761.031 302.05,758.35 304.325,752.988 305.219,751.363 309.038,746.163 310.988,743.481 311.231,742.994 320.331,740.475 334.55,730.969 350.881,720.163 357.95,710.006 365.1,699.769 381.188,687.256 396.706,675.15 397.519,673.85 L398.088,673.85 398.088,677.1 Q393.863,695.3 373.794,729.506 363.313,747.3 360.794,752.256 354.944,763.306 354.619,768.669 355.106,768.669 356.731,768.994 358.275,769.238 359.006,769.238 365.263,769.238 382.894,752.663 401.256,735.438 409.381,720.65 411.088,717.481 413.119,705.131 415.313,691.888 415.963,689.938 418.075,684.25 418.563,682.544 419.213,679.944 420.431,675.556 426.606,685.225 434.325,694 439.688,700.256 460.569,723.981 469.994,735.031 474.544,758.513 477.306,772.813 477.306,781.994 484.456,782.075 488.681,772.65 492.419,764.119 492.419,751.363 492.419,739.256 488.194,729.263 486.081,724.306 478.363,711.956 471.131,700.338 467.475,690.75 461.95,676.206 450.981,667.188 439.931,658.088 435.95,649.15 431.888,640.213 428.231,632.981 424.575,625.669 425.713,623.638 L424.413,622.175 Q422.138,624.206 418.481,625.506 414.338,626.888 410.438,626.888 408.569,626.888 404.263,624.694 400.769,622.906 400.038,621.606 M419.294,580.575 Q412.225,578.463 410.031,585.694 409.381,587.969 408.813,597.881 408.163,607.55 403.856,612.831 399.794,617.95 399.794,620.956 399.794,621.281 400.038,621.606 400.769,622.906 404.263,624.694 408.569,626.888 410.438,626.888 414.338,626.888 418.481,625.506 422.138,624.206 424.413,622.175 425.713,621.038 426.525,619.656 426.038,619.331 425.55,619.088 423.681,617.869 422.381,616.894 419.538,614.944 418.644,613.969 417.1,612.181 417.1,601.213 417.1,593.9 419.294,580.575Z" test="Banana" stroke-width="1.625"/>
          <path id="Layer10_0_1_STROKES" stroke="#FF0" stroke-width="1.625" stroke-linejoin="round" stroke-linecap="round" fill="none" d="M425.713,623.638 Q424.575,625.669 428.231,632.981 431.888,640.213 435.95,649.15 439.931,658.088 450.981,667.188 461.95,676.206 467.475,690.75 471.131,700.338 478.363,711.956 486.081,724.306 488.194,729.263 492.419,739.256 492.419,751.363 492.419,764.119 488.681,772.65 484.456,782.075 477.306,781.994 477.306,772.813 474.544,758.513 469.994,735.031 460.569,723.981 439.688,700.256 434.325,694 426.606,685.225 420.431,675.556 419.213,679.944 418.563,682.544 418.075,684.25 415.963,689.938 415.313,691.888 413.119,705.131 411.088,717.481 409.381,720.65 401.256,735.438 382.894,752.663 365.263,769.238 359.006,769.238 358.275,769.238 356.731,768.994 355.106,768.669 354.619,768.669 354.944,763.306 360.794,752.256 363.313,747.3 373.794,729.506 393.863,695.3 398.088,677.1 L398.088,673.85 397.519,673.85 Q396.706,675.15 381.188,687.256 365.1,699.769 357.95,710.006 350.881,720.163 334.55,730.969 320.331,740.475 311.231,742.994 310.988,743.481 309.038,746.163 305.219,751.363 304.325,752.988 302.05,758.35 300.588,761.031 297.906,765.825 294.819,765.825 293.925,765.825 293.763,765.581 L293.763,758.594 Q292.3,744.456 309.444,717.725 326.75,690.588 346.25,677.669 350.394,674.906 360.956,668.731 371.438,662.15 379.806,654.269 382.325,651.831 387.363,642.488 393.863,630.219 399.225,622.419" test="Banana"/>
          <path id="Layer10_0_2_STROKES" stroke="#FFF" stroke-width="1.625" stroke-linejoin="round" stroke-linecap="round" fill="none" d="M400.038,621.606 Q399.794,621.281 399.794,620.956 399.794,617.95 403.856,612.831 408.163,607.55 408.813,597.881 409.381,587.969 410.031,585.694 412.225,578.463 419.294,580.575 417.1,593.9 417.1,601.213 417.1,612.181 418.644,613.969 419.538,614.944 422.381,616.894 423.681,617.869 425.55,619.088 426.038,619.331 426.525,619.656 425.713,621.038 424.413,622.175 M400.038,621.606 Q400.769,622.906 404.263,624.694 408.569,626.888 410.438,626.888 414.338,626.888 418.481,625.506 422.138,624.206 424.413,622.175" test="Banana"/>
        </g>
      </g>
      <g id="Tween-4">
        <path id="Layer4_0_1_STROKES" stroke="#FFF" stroke-width="1.625" stroke-linejoin="round" stroke-linecap="round" fill="none" d="M546.1,788.888 Q546.1,782.55 555.606,777.594" test="Tween 4"/>
        <g id="Garbage">
          <path fill="#000" stroke="none" d="M438.281,750.769 L436.169,749.55 Q436.006,749.875 435.519,750.769 436.006,749.875 436.169,749.55 436.169,749.387 436.169,749.306 436.169,744.35 433.325,742.4 429.425,739.556 418.294,739.556 406.513,739.556 382.056,751.906 379.213,753.288 374.581,762.063 373.85,763.525 372.956,764.744 372.306,757.512 363.613,752.475 355,747.356 344.356,747.356 332.25,747.356 322.906,752.963 311.125,760.031 311.125,773.275 311.125,773.925 311.206,774.494 305.519,769.131 292.194,769.131 280.981,769.131 274.075,772.625 266.763,776.363 260.344,785.869 255.306,793.262 254.575,798.95 254.169,801.956 254.737,805.369 251.813,798.625 249.375,795.456 245.069,789.769 235.237,789.769 225.975,789.769 219.638,795.375 213.463,800.981 213.463,809.025 213.463,810.488 214.356,822.35 212,826.575 210.619,831.125 208.425,840.144 208.425,848.594 208.425,856.313 214.031,861.188 219.15,865.656 225.731,865.656 228.169,865.656 236.538,864.275 244.825,862.894 250.269,862.894 256.769,862.894 273.263,867.606 289.675,872.319 306.656,872.319 311.613,872.319 351.263,868.744 396.925,865.088 431.7,865.088 439.5,865.006 445.431,865.088 L465.5,866.144 466.313,865.738 Q467.206,865.413 467.938,865.331 472.731,865.088 476.956,862.731 480.125,861.756 482.156,860.863 494.831,855.338 497.513,855.094 L498.081,855.094 Q498.081,854.85 536.025,865.494 577.706,876.3 594.688,876.3 614.188,876.3 623.613,866.306 628.406,861.35 629.219,856.15 629.219,853.55 629.056,853.306 628.975,853.144 628.813,852.981 628.163,852.413 626.456,852.25 628.163,852.413 628.813,852.981 L629.219,852.25 Q631.819,850.625 640.106,847.619 647.094,843.963 647.094,837.219 647.094,832.994 642.056,831.613 L642.625,831.613 Q645.225,829.094 652.05,823.731 657.656,818.531 657.656,813.169 657.656,808.619 654.894,803.175 651.4,796.431 646.281,796.431 637.831,798.463 634.825,798.706 638.725,795.375 638.725,793.669 638.563,790.906 637.019,788.306 634.094,783.188 627.513,783.188 614.594,783.188 609.15,785.056 603.788,786.925 595.175,794.238 593.388,784.975 587.294,779.044 580.956,773.031 572.588,773.031 564.138,773.031 555.606,777.581 L546.1,788.875 Q546.1,790.338 547.156,799.275 546.425,798.869 544.638,798.463 542.931,798.137 541.875,798.137 537.975,798.137 533.344,802.606 531.638,804.313 529.363,808.213 527.25,811.95 526.519,814.306 526.356,815.038 526.194,815.85 525.463,818.775 523.025,820.725 522.294,821.294 521.4,821.619 521.075,821.375 520.831,821.131 516.281,816.663 515.063,810.488 514.413,808.538 513.112,806.425 510.756,802.444 507.019,798.706 515.956,799.681 523.594,796.838 532.125,793.669 533.181,787.006 533.344,786.031 533.344,784.975 533.344,780.75 532.613,778.475 531.069,773.519 525.95,769.131 520.588,764.5 514.819,763.363 512.95,762.956 507.588,762.956 507.669,762.794 512.138,754.913 512.544,754.181 512.869,753.45 L513.6,752.475 Q514.006,751.906 514.088,751.5 514.737,748.169 513.763,744.919 513.194,743.375 510.919,738.581 508.319,733.219 505.15,730.944 497.675,725.581 479.313,725.581 460.056,725.581 443.481,744.269 440.881,747.194 438.281,750.769 M481.75,788.631 Q481.425,789.444 480.775,790.744 481.425,789.444 481.75,788.631 482.4,787.169 482.4,786.031 482.4,779.369 476.55,779.369 473.625,779.369 470.7,780.181 464.85,781.887 464.525,786.194 464.85,781.887 470.7,780.181 473.625,779.369 476.55,779.369 482.4,779.369 482.4,786.031 482.4,787.169 481.75,788.631 M601.675,819.669 Q605.9,822.431 605.9,826.819 605.9,822.431 601.675,819.669 598.181,817.394 594.363,817.394 589,817.394 585.994,819.262 582.825,821.131 582.825,824.544 582.825,821.131 585.994,819.262 589,817.394 594.363,817.394 598.181,817.394 601.675,819.669 M350.45,794.238 Q355.163,796.756 356.3,799.844 355.163,796.756 350.45,794.238 346.063,791.963 342.65,791.963 338.263,791.963 335.094,794.806 330.706,798.869 330.706,807.644 330.706,808.944 330.95,809.675 331.438,810.975 332.9,813.169 331.438,810.975 330.95,809.675 330.706,808.944 330.706,807.644 330.706,798.869 335.094,794.806 338.263,791.963 342.65,791.963 346.063,791.963 350.45,794.238 M416.588,787.006 Q417.725,788.956 417.725,793.994 417.725,803.094 410.575,809.35 402.856,816.012 390.913,815.444 402.856,816.012 410.575,809.35 417.725,803.094 417.725,793.994 417.725,788.956 416.588,787.006 415.288,784.731 411.631,784.731 410.9,784.731 409.844,785.056 408.3,785.544 406.594,785.869 408.3,785.544 409.844,785.056 410.9,784.731 411.631,784.731 415.288,784.731 416.588,787.006Z" test="Garbage" stroke-width="1.625"/>
          <path id="Layer6_0_1_STROKES" stroke="#FFF" stroke-width="1.625" stroke-linejoin="round" stroke-linecap="round" fill="none" d="M436.169,749.55 Q436.006,749.875 435.519,750.769 M628.813,852.981 Q628.975,853.144 629.056,853.306 629.219,853.55 629.219,856.15 628.406,861.35 623.613,866.306 614.188,876.3 594.688,876.3 577.706,876.3 536.025,865.494 498.081,854.85 498.081,855.094 L497.513,855.094 Q494.831,855.338 482.156,860.863 480.125,861.756 476.956,862.731 472.731,865.088 467.938,865.331 467.206,865.413 466.313,865.738 L465.5,866.144 445.431,865.088 Q439.5,865.006 431.7,865.088 396.925,865.088 351.263,868.744 311.613,872.319 306.656,872.319 289.675,872.319 273.263,867.606 256.769,862.894 250.269,862.894 244.825,862.894 236.538,864.275 228.169,865.656 225.731,865.656 219.15,865.656 214.031,861.188 208.425,856.313 208.425,848.594 208.425,840.144 210.619,831.125 212,826.575 214.356,822.35 213.463,810.488 213.463,809.025 213.463,800.981 219.638,795.375 225.975,789.769 235.237,789.769 245.069,789.769 249.375,795.456 251.813,798.625 254.737,805.369 254.169,801.956 254.575,798.95 255.306,793.262 260.344,785.869 266.763,776.363 274.075,772.625 280.981,769.131 292.194,769.131 305.519,769.131 311.206,774.494 311.125,773.925 311.125,773.275 311.125,760.031 322.906,752.963 332.25,747.356 344.356,747.356 355,747.356 363.613,752.475 372.306,757.512 372.956,764.744 373.85,763.525 374.581,762.063 379.213,753.288 382.056,751.906 406.513,739.556 418.294,739.556 429.425,739.556 433.325,742.4 436.169,744.35 436.169,749.306 436.169,749.387 436.169,749.55 M438.281,750.769 Q440.881,747.194 443.481,744.269 460.056,725.581 479.313,725.581 497.675,725.581 505.15,730.944 508.319,733.219 510.919,738.581 513.194,743.375 513.763,744.919 514.737,748.169 514.088,751.5 514.006,751.906 513.6,752.475 L512.869,753.45 Q512.544,754.181 512.138,754.913 507.669,762.794 507.588,762.956 512.95,762.956 514.819,763.363 520.588,764.5 525.95,769.131 531.069,773.519 532.613,778.475 533.344,780.75 533.344,784.975 533.344,786.031 533.181,787.006 532.125,793.669 523.594,796.838 515.956,799.681 507.019,798.706 510.756,802.444 513.112,806.425 514.413,808.538 515.063,810.488 516.281,816.663 520.831,821.131 521.075,821.375 521.4,821.619 522.294,821.294 523.025,820.725 525.463,818.775 526.194,815.85 526.356,815.038 526.519,814.306 527.25,811.95 529.363,808.213 531.638,804.313 533.344,802.606 537.975,798.137 541.875,798.137 542.931,798.137 544.638,798.463 546.425,798.869 547.156,799.275 546.1,790.338 546.1,788.875 M555.606,777.581 Q564.138,773.031 572.588,773.031 580.956,773.031 587.294,779.044 593.388,784.975 595.175,794.238 603.788,786.925 609.15,785.056 614.594,783.188 627.513,783.188 634.094,783.188 637.019,788.306 638.563,790.906 638.725,793.669 638.725,795.375 634.825,798.706 637.831,798.463 646.281,796.431 651.4,796.431 654.894,803.175 657.656,808.619 657.656,813.169 657.656,818.531 652.05,823.731 645.225,829.094 642.625,831.613 L642.056,831.613 Q647.094,832.994 647.094,837.219 647.094,843.963 640.106,847.619 631.819,850.625 629.219,852.25 M626.456,852.25 Q628.163,852.413 628.813,852.981 M464.525,786.194 Q464.85,781.887 470.7,780.181 473.625,779.369 476.55,779.369 482.4,779.369 482.4,786.031 482.4,787.169 481.75,788.631 481.425,789.444 480.775,790.744 M582.825,824.544 Q582.825,821.131 585.994,819.262 589,817.394 594.363,817.394 598.181,817.394 601.675,819.669 605.9,822.431 605.9,826.819 M332.9,813.169 Q331.438,810.975 330.95,809.675 330.706,808.944 330.706,807.644 330.706,798.869 335.094,794.806 338.263,791.963 342.65,791.963 346.063,791.963 350.45,794.238 355.163,796.756 356.3,799.844 M406.594,785.869 Q408.3,785.544 409.844,785.056 410.9,784.731 411.631,784.731 415.288,784.731 416.588,787.006 417.725,788.956 417.725,793.994 417.725,803.094 410.575,809.35 402.856,816.012 390.913,815.444" test="Garbage"/>
        </g>
        <g id="GarbageCloud">
          <path id="Layer7_0_1_STROKES" stroke="#FFF" stroke-width="1.625" stroke-linejoin="round" stroke-linecap="round" fill="none" d="M477.988,672.606 Q480.425,671.306 480.913,670.575 481.888,669.194 481.888,665.375 481.888,660.581 477.744,653.431 473.6,646.281 473.6,639.863 473.6,634.663 479.694,624.588 485.788,614.513 485.788,610.044 485.788,607.444 483.513,604.438 483.188,604.031 480.181,600.619 M574.188,646.931 Q575.163,644.819 579.063,641.325 584.263,636.531 588.488,636.288 589.625,638.563 589.625,640.756 589.625,641.325 584.019,646.931 L574.188,646.931 Q574.025,647.256 573.781,647.988 574.35,648.231 574.919,648.638 577.275,650.181 577.275,651.888 577.275,653.675 576.788,654.163 576.219,654.731 574.269,654.731 572.481,654.731 571.181,653.675 570.044,652.619 570.044,651.319 570.044,650.344 570.45,649.694 566.713,649.694 564.438,649.125 558.913,647.906 558.913,644.088 558.913,641.244 559.969,639.131 561.431,636.288 564.194,636.288 568.094,636.288 570.531,639.781 572.156,642.219 573.375,646.931 L574.188,646.931Z M570.45,649.694 L570.531,649.694 Q571.669,649.694 571.994,649.613 572.4,649.531 572.806,649.125 L572.806,647.988 Q571.75,648.394 571.181,648.8 570.694,649.125 570.45,649.694Z M573.781,647.988 Q572.075,647.175 570.613,647.5 M291.356,633.038 Q291.6,632.225 291.925,631.413 287.131,631.575 282.5,634.825 278.438,637.506 277.056,640.188 L277.056,645.794 282.094,645.794 Q289.731,640.025 290.788,635.15 291.031,634.094 291.356,633.038 290.95,633.038 290.463,633.038 M297.125,634.175 Q295.744,632.956 294.85,632.306 292.656,632.388 292.169,632.469 M294.85,632.306 Q294.119,631.738 293.713,631.494 293.469,631.331 292.738,631.331 292.331,631.331 291.925,631.413 294.038,626.05 298.831,620.119 L303.869,620.119 Q303.869,620.688 304.194,622.15 304.438,623.613 304.438,624.344 304.438,630.6 298.913,632.063 296.475,632.225 294.85,632.306Z M335.638,655.869 Q337.831,651.238 339.375,647.744 342.381,641 342.381,638.481 342.381,636.369 337.913,631.9 333.444,627.35 333.444,625.969 333.444,621.988 335.394,615.894 337.344,609.719 337.344,607.038 337.344,601.188 337.019,599.481 336.288,595.175 333.444,593.875 M291.6,634.175 L291.356,635.231 Q291.031,636.531 291.031,637.425 291.031,638.888 292.656,639.619 293.875,640.188 295.013,640.188 295.825,640.188 296.8,639.863 298.669,639.213 298.831,639.131 298.506,635.638 296.231,634.175 294.525,633.2 291.356,633.038" test="GarbageCloud"/>
        </g>
      </g>
      <g id="Drawer">
        <path fill="#000" stroke="none" d="M702.662,991.113 Q702.175,991.6 701.769,992.088 L701.769,1019.631 Q702.175,1020.037 702.662,1020.525 708.594,1026.456 716.881,1026.619 L717.369,1026.619 Q725.981,1026.619 732.075,1020.525 738.169,1014.431 738.169,1005.819 738.169,997.206 732.075,991.113 725.981,985.019 717.369,985.019 L716.881,985.019 Q708.594,985.181 702.662,991.113 M152.519,903.769 Q147.319,927.656 148.294,953.9 151.381,1027.756 150.244,1074.475 149.269,1119.894 152.519,1132.569 253.269,1131.188 352.719,1135.413 392.044,1134.275 418.206,1135.656 444.775,1137.038 463.219,1137.038 470.287,1137.038 477.519,1136.956 487.675,1138.175 497.75,1138.013 516.275,1136.55 534.637,1133.869 553.65,1131.513 572.906,1133.706 591.35,1135.819 609.631,1135.331 628.806,1134.763 647.819,1133.625 670.081,1133.219 701.769,1132.569 L701.769,1026.619 701.769,1019.631 701.769,992.088 Q701.688,988.512 701.688,985.019 700.631,929.931 701.769,875.169 L666.669,875.169 666.669,903.769 581.519,900.6 Q356.05,907.994 152.519,903.769Z" test="Drawer" stroke-width="1.625"/>
        <path id="Layer3_0_1_STROKES" stroke="#F60" stroke-width="3.25" stroke-linejoin="round" stroke-linecap="round" fill="none" d="M701.769,1019.631 L701.769,1026.619 701.769,1132.569 Q670.081,1133.219 647.819,1133.625 628.806,1134.763 609.631,1135.331 591.35,1135.819 572.906,1133.706 553.65,1131.513 534.637,1133.869 516.275,1136.55 497.75,1138.013 487.675,1138.175 477.519,1136.956 470.287,1137.038 463.219,1137.038 444.775,1137.038 418.206,1135.656 392.044,1134.275 352.719,1135.413 253.269,1131.188 152.519,1132.569 149.269,1119.894 150.244,1074.475 151.381,1027.756 148.294,953.9 147.319,927.656 152.519,903.769 356.05,907.994 581.519,900.6 L666.669,903.769 666.669,875.169 701.769,875.169 Q700.631,929.931 701.688,985.019 701.688,988.512 701.769,992.088 702.175,991.6 702.662,991.113 708.594,985.181 716.881,985.019 L717.369,985.019 Q725.981,985.019 732.075,991.113 738.169,997.206 738.169,1005.819 738.169,1014.431 732.075,1020.525 725.981,1026.619 717.369,1026.619 L716.881,1026.619 Q708.594,1026.456 702.662,1020.525 702.175,1020.037 701.769,1019.631 L701.769,992.088" test="Drawer"/>
      </g>
      <g id="DrawersCabinetFront">
        <path fill="#000" stroke="none" d="M193.919,1294.594 Q194.325,1295 194.813,1295.488 200.744,1301.419 209.031,1301.581 L209.519,1301.581 Q218.131,1301.581 224.225,1295.488 230.319,1289.394 230.319,1280.781 230.319,1272.169 224.225,1266.075 218.131,1259.981 209.519,1259.981 L209.031,1259.981 Q200.744,1260.144 194.813,1266.075 194.325,1266.563 193.919,1267.05 L193.919,1294.594 M193.919,1150.131 L158.819,1150.131 158.819,1178.731 73.669,1175.563 Q-151.8,1182.956 -355.331,1178.731 -360.531,1202.619 -359.556,1228.863 -356.469,1302.719 -357.606,1349.438 -358.581,1394.856 -355.331,1407.531 -254.581,1406.15 -155.131,1410.375 -115.806,1409.238 -89.644,1410.619 -63.075,1412 -44.631,1412 -37.562,1412 -30.331,1411.919 -20.175,1413.138 -10.1,1412.975 8.425,1411.513 26.787,1408.831 45.8,1406.475 65.056,1408.669 83.5,1410.781 101.781,1410.294 120.956,1409.725 139.969,1408.588 162.231,1408.181 193.919,1407.531 L193.919,1301.581 193.919,1294.594 193.919,1267.05 Q193.837,1263.475 193.837,1259.981 192.781,1204.894 193.919,1150.131Z" test="DrawersCabinetFront" stroke-width="1.625"/>
        <path id="Layer2_0_1_STROKES" stroke="#F60" stroke-width="3.25" stroke-linejoin="round" stroke-linecap="round" fill="none" d="M193.919,1294.594 L193.919,1301.581 193.919,1407.531 Q162.231,1408.181 139.969,1408.588 120.956,1409.725 101.781,1410.294 83.5,1410.781 65.056,1408.669 45.8,1406.475 26.787,1408.831 8.425,1411.513 -10.1,1412.975 -20.175,1413.138 -30.331,1411.919 -37.562,1412 -44.631,1412 -63.075,1412 -89.644,1410.619 -115.806,1409.238 -155.131,1410.375 -254.581,1406.15 -355.331,1407.531 -358.581,1394.856 -357.606,1349.438 -356.469,1302.719 -359.556,1228.863 -360.531,1202.619 -355.331,1178.731 -151.8,1182.956 73.669,1175.563 L158.819,1178.731 158.819,1150.131 193.919,1150.131 Q192.781,1204.894 193.837,1259.981 193.837,1263.475 193.919,1267.05 194.325,1266.563 194.813,1266.075 200.744,1260.144 209.031,1259.981 L209.519,1259.981 Q218.131,1259.981 224.225,1266.075 230.319,1272.169 230.319,1280.781 230.319,1289.394 224.225,1295.488 218.131,1301.581 209.519,1301.581 L209.031,1301.581 Q200.744,1301.419 194.813,1295.488 194.325,1295 193.919,1294.594 L193.919,1267.05" test="DrawersCabinetFront"/>
        <path fill="#000" stroke="none" d="M117.3,862.506 Q82.361,861.214 48.725,859.256 15.182,857.383 -73.637,857.713 -162.395,858.13 -203.394,858.606 -244.292,859.164 -296.181,858.688 -348.089,858.205 -378.081,861.856 -380.194,879.081 -382.631,1017.613 -385.15,1161.506 -382.794,1189.863 -381.9,1201.4 -387.831,1305.319 -393.678,1409.236 -389.212,1411.513 -384.672,1413.791 -372.637,1412.894 -368.128,1412.616 -362.887,1411.919 -352.812,1410.619 -342.656,1409.319 -294.963,1404.444 -247.187,1405.906 -225.026,1406.053 -201.525,1406.313 -83.469,1407.694 -67.869,1407.694 -53.406,1407.694 52.462,1411.756 53.681,1411.838 54.981,1411.838 58.313,1412 61.644,1412.081 66.356,1412.244 70.906,1412.325 156.462,1414.844 158.413,1411.756 160.688,1408.181 160.85,1394.044 160.769,1373.894 160.769,1360.813 160.769,1265.669 161.988,1232.6 162.556,1216.35 160.769,1141.113 159.063,1065.388 159.631,1046.456 160.686,1011.447 159.875,937.175 159.147,862.891 155.731,863.319 152.314,863.821 117.3,862.506Z" test="DrawersCabinetFront" stroke-width="1.625"/>
        <path id="Layer1_0_1_STROKES" stroke="#F60" stroke-width="3.25" stroke-linejoin="round" stroke-linecap="round" fill="none" d="M-378.081,861.856 Q-348.089,858.205 -296.181,858.688 -244.292,859.164 -203.353,858.647 -162.395,858.13 -73.597,857.753 15.182,857.383 48.766,859.297 82.361,861.214 117.341,862.506 152.314,863.821 155.731,863.359 159.147,862.891 159.916,937.175 160.686,1011.447 159.631,1046.456 159.063,1065.388 160.769,1141.113 162.556,1216.35 161.988,1232.6 160.769,1265.669 160.769,1360.813 160.769,1373.894 160.85,1394.044 160.688,1408.181 158.413,1411.756 156.462,1414.844 70.906,1412.325 66.356,1412.244 61.644,1412.081 58.313,1412 54.981,1411.838 53.681,1411.838 52.462,1411.756 -53.406,1407.694 -67.869,1407.694 -83.469,1407.694 -201.525,1406.313 -225.026,1406.053 -247.187,1405.906 -294.963,1404.444 -342.656,1409.319 -352.812,1410.619 -362.887,1411.959 -368.128,1412.616 -372.597,1412.934 -384.672,1413.791 -389.172,1411.513 -393.678,1409.236 -387.791,1305.319 -381.9,1201.4 -382.794,1189.863 -385.15,1161.506 -382.631,1017.613 -380.194,879.081 -378.081,861.856Z" test="DrawersCabinetFront"/>
      </g>
    </g>
  </g>
</svg>