<?xml version="1.0" encoding="utf-8"?>
<svg id="EdithAnim12" image-rendering="inherit" baseProfile="basic" version="1.1" x="0px" y="0px" width="800" height="600" xmlns="http://www.w3.org/2000/svg" xmlns:xlink="http://www.w3.org/1999/xlink">
  <g id="21_GarbageDrawerf179r1" overflow="visible">
    <g id="GarbageDrawerGroupf179r1">
      <g id="Tween-6">
        <path fill="#000" stroke="none" d="M292.531,679.106 Q288.387,676.913 286.275,676.913 276.119,676.913 270.431,689.181 265.719,699.094 265.069,714.288 264.987,714.613 264.906,714.938 264.338,716.725 262.469,718.513 L249.387,718.513 Q249.144,718.594 244.025,719.081 240.288,719.488 238.987,721.438 238.581,722.006 238.5,723.713 238.419,725.663 238.337,725.988 236.387,724.038 226.637,724.038 214.287,724.038 214.287,734.113 214.287,735.006 214.531,737.688 214.694,740.694 214.937,741.588 212.175,742.075 209.412,745.406 205.513,749.956 205.513,757.025 205.513,758.406 206.406,761.981 206.894,764.013 207.787,767.588 208.356,770.106 208.925,771 210.631,773.438 214.937,774.088 216.075,774.25 229.725,777.906 247.275,781.888 267.913,784.163 275.713,785.056 327.713,792.856 367.769,798.869 395.313,800.088 423.831,801.388 462.019,804.475 488.75,806.588 512.475,806.588 533.356,806.588 565.206,800.494 598.031,794.319 607.213,788.063 610.706,785.706 614.2,784.731 618.019,783.675 619.887,782.538 626.713,778.15 628.338,775.713 632.806,768.888 633.781,765.963 634.188,764.744 634.188,761.25 634.188,757.594 633.213,755.075 631.75,752.313 630.938,750.688 L630.938,750.038 Q629.963,749.063 629.963,747.763 629.963,747.681 636.625,742.481 643.287,736.469 643.287,732.813 643.287,726.15 641.5,721.763 639.063,715.913 632.888,711.688 629.313,709.25 622.894,707.869 616.719,706.731 615.338,706.163 616.069,704.781 619.563,700.8 622.813,696.494 622.813,692.025 622.813,685.2 617.938,678.863 611.6,670.738 600.713,670.738 593.481,670.738 588.038,672.688 588.688,671.956 589.175,671.144 589.988,669.6 589.988,666.838 589.988,660.256 582.512,654.813 572.762,647.663 554.4,647.663 L544.813,648.8 Q540.831,650.588 538.475,656.275 538.313,656.844 537.988,657.413 538.313,656.844 538.475,656.275 540.181,650.181 528.238,644.819 517.35,639.863 509.225,639.863 499.638,639.863 495.575,642.95 491.513,646.038 490.537,654.163 487.287,650.913 485.419,649.531 482.169,647.013 479.813,647.013 469.981,647.013 464.456,651.4 461.694,653.594 453.487,664.563 L453.487,664.238 Q452.513,657.494 451.862,654.894 450.888,650.506 448.856,648.313 444.063,643.113 425.375,643.113 421.638,643.113 417.819,645.225 414,647.256 410.912,650.913 410.1,650.1 408.394,647.094 406.362,643.519 406.362,643.438 401.244,635.8 397.912,633.119 394.256,630.113 389.463,630.113 363.869,630.113 349.244,639.375 336.65,647.419 339.088,656.113 335.838,652.05 333.806,650.019 330.231,646.363 326.575,646.363 314.631,646.363 304.638,658.469 294.725,670.413 296.838,681.788 296.188,680.975 292.531,679.106 M350.787,687.069 Q353.225,688.206 356.963,690.563 359.563,691.944 359.888,692.188 360.537,692.594 359.563,692.513 360.537,692.594 359.888,692.188 359.563,691.944 356.963,690.563 353.225,688.206 350.787,687.069 346.4,685.038 341.688,685.038 326.575,685.038 318.287,692.188 326.575,685.038 341.688,685.038 346.4,685.038 350.787,687.069 M408.719,679.431 Q415.3,676.588 422.612,676.588 429.112,676.588 433.987,686.988 433.987,687.638 433.419,688.288 432.769,689.019 432.037,689.263 432.769,689.019 433.419,688.288 433.987,687.638 433.987,686.988 429.112,676.588 422.612,676.588 415.3,676.588 408.719,679.431 401.894,682.438 398.563,687.313 401.894,682.438 408.719,679.431 M523.525,673.013 Q524.094,673.013 527.831,677.075 531.488,681.138 531.488,681.788 531.488,690.156 528.319,694.544 526.206,697.469 523.362,698.038 526.206,697.469 528.319,694.544 531.488,690.156 531.488,681.788 531.488,681.138 527.831,677.075 524.094,673.013 523.525,673.013 503.05,673.013 493.463,681.138 503.05,673.013 523.525,673.013 M594.7,691.781 Q598.113,694.381 598.113,704.375 598.113,714.206 589.744,720.625 583.081,725.744 578.288,725.338 583.081,725.744 589.744,720.625 598.113,714.206 598.113,704.375 598.113,694.381 594.7,691.781 591.45,689.263 578.938,689.588 591.45,689.263 594.7,691.781 M600.387,722.413 Q612.006,722.25 612.981,722.575 617.288,723.875 617.288,732.163 617.288,734.925 614.769,737.525 613.144,739.069 608.838,741.913 607.7,742.644 605.75,744.35 603.963,745.813 603.313,746.138 603.963,745.813 605.75,744.35 607.7,742.644 608.838,741.913 613.144,739.069 614.769,737.525 617.288,734.925 617.288,732.163 617.288,723.875 612.981,722.575 612.006,722.25 600.387,722.413Z" test="Tween 6" stroke-width="1.625"/>
        <path id="Layer5_0_1_STROKES" stroke="#FFF" stroke-width="1.625" stroke-linejoin="round" stroke-linecap="round" fill="none" d="M630.938,750.688 Q631.75,752.313 633.213,755.075 634.188,757.594 634.188,761.25 634.188,764.744 633.781,765.963 632.806,768.888 628.338,775.713 626.713,778.15 619.887,782.538 618.019,783.675 614.2,784.731 610.706,785.706 607.213,788.063 598.031,794.319 565.206,800.494 533.356,806.588 512.475,806.588 488.75,806.588 462.019,804.475 423.831,801.388 395.313,800.088 367.769,798.869 327.713,792.856 275.713,785.056 267.913,784.163 247.275,781.888 229.725,777.906 216.075,774.25 214.937,774.088 210.631,773.438 208.925,771 208.356,770.106 207.787,767.588 206.894,764.013 206.406,761.981 205.513,758.406 205.513,757.025 205.513,749.956 209.412,745.406 212.175,742.075 214.937,741.588 214.694,740.694 214.531,737.688 214.287,735.006 214.287,734.113 214.287,724.038 226.637,724.038 236.387,724.038 238.337,725.988 238.419,725.663 238.5,723.713 238.581,722.006 238.987,721.438 240.288,719.488 244.025,719.081 249.144,718.594 249.387,718.513 L262.469,718.513 Q264.338,716.725 264.906,714.938 264.987,714.613 265.069,714.288 265.719,699.094 270.431,689.181 276.119,676.913 286.275,676.913 288.387,676.913 292.531,679.106 296.188,680.975 296.838,681.788 294.725,670.413 304.638,658.469 314.631,646.363 326.575,646.363 330.231,646.363 333.806,650.019 335.838,652.05 339.088,656.113 336.65,647.419 349.244,639.375 363.869,630.113 389.463,630.113 394.256,630.113 397.912,633.119 401.244,635.8 406.362,643.438 406.362,643.519 408.394,647.094 410.1,650.1 410.912,650.913 414,647.256 417.819,645.225 421.638,643.113 425.375,643.113 444.063,643.113 448.856,648.313 450.888,650.506 451.862,654.894 452.513,657.494 453.487,664.238 L453.487,664.563 Q461.694,653.594 464.456,651.4 469.981,647.013 479.813,647.013 482.169,647.013 485.419,649.531 487.287,650.913 490.537,654.163 491.513,646.038 495.575,642.95 499.638,639.863 509.225,639.863 517.35,639.863 528.238,644.819 540.181,650.181 538.475,656.275 540.831,650.588 544.813,648.8 547.494,647.663 554.4,647.663 572.762,647.663 582.512,654.813 589.988,660.256 589.988,666.838 589.988,669.6 589.175,671.144 588.688,671.956 588.038,672.688 593.481,670.738 600.713,670.738 611.6,670.738 617.938,678.863 622.813,685.2 622.813,692.025 622.813,696.494 619.563,700.8 616.069,704.781 615.338,706.163 616.719,706.731 622.894,707.869 629.313,709.25 632.888,711.688 639.063,715.913 641.5,721.763 643.287,726.15 643.287,732.813 643.287,736.469 636.625,742.481 629.963,747.681 629.963,747.763 629.963,749.063 630.938,750.038 M318.287,692.188 Q326.575,685.038 341.688,685.038 346.4,685.038 350.787,687.069 353.225,688.206 356.963,690.563 359.563,691.944 359.888,692.188 360.537,692.594 359.563,692.513 M398.563,687.313 Q401.894,682.438 408.719,679.431 415.3,676.588 422.612,676.588 429.112,676.588 433.987,686.988 433.987,687.638 433.419,688.288 432.769,689.019 432.037,689.263 M538.475,656.275 Q538.313,656.844 537.988,657.413 M493.463,681.138 Q503.05,673.013 523.525,673.013 524.094,673.013 527.831,677.075 531.488,681.138 531.488,681.788 531.488,690.156 528.319,694.544 526.206,697.469 523.362,698.038 M578.938,689.588 Q591.45,689.263 594.7,691.781 598.113,694.381 598.113,704.375 598.113,714.206 589.744,720.625 583.081,725.744 578.288,725.338 M600.387,722.413 Q612.006,722.25 612.981,722.575 617.288,723.875 617.288,732.163 617.288,734.925 614.769,737.525 613.144,739.069 608.838,741.913 607.7,742.644 605.75,744.35 603.963,745.813 603.313,746.138" test="Tween 6"/>
      </g>
      <g id="Tween-5">
        <g id="Tin-can-Rubbish">
          <path fill="#000" stroke="none" d="M258.781,740.906 Q246.025,756.263 239.769,762.031 224.9,775.763 213.2,776.088 L213.525,778.363 Q213.525,779.906 213.281,781.369 212.956,782.831 212.956,783.319 212.956,784.456 214.581,785.106 215.963,785.594 217.913,785.594 221.813,785.594 230.913,781.125 L231.319,781.125 Q226.931,786.975 226.931,788.681 226.931,793.475 232.7,793.475 236.194,793.475 236.681,793.313 237.169,793.069 239.444,791.363 239.85,790.469 240.256,790.063 L240.256,790.631 Q239.769,790.956 239.444,791.363 238.875,792.256 238.144,793.719 236.356,797.538 236.356,800.3 236.356,804.606 242.613,806.719 248.219,808.588 246.431,814.6 252.281,814.844 253.906,817.038 254.313,817.606 254.719,818.663 L254.719,818.744 Q269.425,812.813 275.763,808.181 281.856,803.631 284.375,797.294 281.856,803.631 275.763,808.181 269.425,812.813 254.719,818.744 255.288,820.369 255.938,823.05 256.669,824.919 260.325,827.763 262.681,829.713 261.462,833.613 L267.069,833.613 Q289.738,824.269 313.869,795.75 337.269,768.206 342.956,745.944 L342.956,740.906 Q339.219,740.094 334.588,740.906 L331.256,740.906 Q332.881,737.169 328.331,735.3 322.075,733.675 319.069,732.619 317.363,731.969 316.225,729.613 315.169,726.606 314.519,725.144 312.081,719.7 305.581,721.406 L305.581,716.938 Q306.719,715.8 306.719,714.175 306.719,711.9 302.25,711.494 297.213,711.413 296.075,711.331 296.075,710.519 296.644,708.488 297.213,706.538 297.213,705.888 297.213,702.881 292.175,702.475 294.45,698.331 290.713,696.056 287.463,694.838 285.431,694.025 287.788,695.488 287.788,698.819 287.788,709.3 279.744,718.481 267.394,730.588 258.781,740.906 M293.15,740.175 Q290.55,744.563 288.925,744.888 290.55,744.563 293.15,740.175 294.775,737.331 299.975,728.15 294.775,737.331 293.15,740.175 M325.325,752.769 Q322.238,757.481 318.5,758.781 322.238,757.481 325.325,752.769 328.494,747.894 330.119,740.906 328.494,747.894 325.325,752.769 M270.969,767.15 Q268.856,770.563 265.281,776.981 262.844,781.45 262.031,782.263 262.844,781.45 265.281,776.981 268.856,770.563 270.969,767.15 M225.713,737.738 Q212.631,754.475 211.169,762.925 210.356,767.069 210.113,769.344 209.706,771.7 209.869,772.188 209.788,772.431 209.706,772.675 209.625,773.325 209.625,773.813 209.625,775.113 210.113,775.519 210.763,776.088 212.631,776.088 212.875,776.088 213.2,776.088 224.9,775.763 239.769,762.031 246.025,756.263 258.781,740.906 267.394,730.588 279.744,718.481 287.788,709.3 287.788,698.819 287.788,695.488 285.431,694.025 284.456,693.456 283.238,693.213 282.019,692.969 280.475,692.969 273.406,692.969 256.1,707.025 238.794,721 225.713,737.738Z" test="Tin can Rubbish" stroke-width="1.625"/>
          <path id="Layer8_0_1_STROKES" stroke="#009EFF" stroke-width="1.625" stroke-linejoin="round" stroke-linecap="round" fill="none" d="M210.113,769.344 Q209.706,771.7 209.869,772.188 M285.431,694.025 Q287.463,694.838 290.713,696.056 294.45,698.331 292.175,702.475 297.213,702.881 297.213,705.888 297.213,706.538 296.644,708.488 296.075,710.519 296.075,711.331 297.213,711.413 302.25,711.494 306.719,711.9 306.719,714.175 306.719,715.8 305.581,716.938 L305.581,721.406 Q312.081,719.7 314.519,725.144 315.169,726.606 316.225,729.613 317.363,731.969 319.069,732.619 322.075,733.675 328.331,735.3 332.881,737.169 331.256,740.906 L334.588,740.906 Q339.219,740.094 342.956,740.906 L342.956,745.944 Q337.269,768.206 313.869,795.75 289.738,824.269 267.069,833.613 L261.462,833.613 Q262.681,829.713 260.325,827.763 256.669,824.919 255.938,823.05 255.288,820.369 254.719,818.744 L254.719,818.663 Q254.313,817.606 253.906,817.038 252.281,814.844 246.431,814.6 248.219,808.588 242.613,806.719 236.356,804.606 236.356,800.3 236.356,797.538 238.144,793.719 238.875,792.256 239.444,791.363 237.169,793.069 236.681,793.313 236.194,793.475 232.7,793.475 226.931,793.475 226.931,788.681 226.931,786.975 231.319,781.125 L230.913,781.125 Q221.813,785.594 217.913,785.594 215.963,785.594 214.581,785.106 212.956,784.456 212.956,783.319 212.956,782.831 213.281,781.369 213.525,779.906 213.525,778.363 M299.975,728.15 Q294.775,737.331 293.15,740.175 290.55,744.563 288.925,744.888 M330.119,740.906 Q328.494,747.894 325.325,752.769 322.238,757.481 318.5,758.781 M270.969,767.15 Q268.856,770.563 265.281,776.981 262.844,781.45 262.031,782.263 M239.444,791.363 Q239.769,790.956 240.256,790.631 L240.256,790.063 Q239.85,790.469 239.444,791.363Z M254.719,818.744 Q269.425,812.813 275.763,808.181 281.856,803.631 284.375,797.294" test="Tin can Rubbish"/>
          <path id="Layer8_0_2_STROKES" stroke="#FFF" stroke-width="1.625" stroke-linejoin="round" stroke-linecap="round" fill="none" d="M285.431,694.025 Q284.456,693.456 283.238,693.213 282.019,692.969 280.475,692.969 273.406,692.969 256.1,707.025 238.794,721 225.713,737.738 212.631,754.475 211.169,762.925 210.356,767.069 210.113,769.344 M209.869,772.188 Q209.788,772.431 209.706,772.675 209.625,773.325 209.625,773.813 209.625,775.113 210.113,775.519 210.763,776.088 212.631,776.088 212.875,776.088 213.2,776.088 224.9,775.763 239.769,762.031 246.025,756.263 258.781,740.906 267.394,730.588 279.744,718.481 287.788,709.3 287.788,698.819 287.788,695.488 285.431,694.025" test="Tin can Rubbish"/>
        </g>
        <g id="Bottle">
          <path fill="#000" stroke="none" d="M573.731,824.663 Q571.213,824.338 562.275,822.469 554.475,820.762 550.088,820.844 541.963,820.925 530.019,814.019 518.237,807.275 507.269,796.469 499.469,788.75 492.562,777.131 487.037,766.65 486.469,765.838 483.787,762.1 481.675,758.2 478.019,751.7 478.262,748.531 459.819,774.288 438.937,797.931 416.431,823.281 399.775,852.531 384.419,879.506 410.581,898.194 437.8,917.613 468.756,928.825 485.9,935.163 499.631,921.106 523.031,897.137 541.637,868.538 556.262,845.95 573.325,825.15 L573.731,824.663 M525.306,713.35 Q525.144,713.269 524.981,713.269 508.406,712.619 496.381,725.619 486.469,736.344 478.262,748.531 478.019,751.7 481.675,758.2 483.787,762.1 486.469,765.838 487.037,766.65 492.562,777.131 499.469,788.75 507.269,796.469 518.237,807.275 530.019,814.019 541.963,820.925 550.088,820.844 554.475,820.762 562.275,822.469 571.213,824.338 573.731,824.663 591.769,807.194 600.137,783.794 600.463,782.981 600.787,782.169 599.975,782.088 599.65,782.169 597.294,782.25 596.4,782.331 595.181,782.413 593.231,782.9 591.363,783.387 588.519,783.387 581.531,783.387 563.981,771.525 547.162,760.231 537.738,749.913 529.938,741.3 527.744,730.819 526.606,719.931 525.306,713.35 M605.744,718.469 Q595.831,710.588 589.25,695.475 560.569,715.625 525.306,713.35 526.606,719.931 527.744,730.819 529.938,741.3 537.738,749.913 547.162,760.231 563.981,771.525 581.531,783.387 588.519,783.387 591.363,783.387 593.231,782.9 595.181,782.413 596.4,782.331 597.294,782.25 599.65,782.169 599.975,782.088 600.787,782.169 592.581,749.262 619.069,728.137 619.8,727.569 620.531,726.838 608.181,720.419 605.744,718.469 M589.088,693.606 L589.25,695.475 Q595.831,710.588 605.744,718.469 608.181,720.419 620.531,726.838 L625.244,727.65 Q628.819,726.188 633.287,717.413 637.512,709.044 637.512,704.738 637.512,699.538 625.813,686.863 620.206,680.769 615.981,677.6 611.35,674.025 608.506,674.025 603.875,674.025 596.481,683.125 593.637,686.619 589.088,693.606 M612.975,682.719 Q612.488,681.988 612.406,681.906 612.488,681.988 612.975,682.719 614.194,684.425 618.094,690.194 624.838,699.05 630.85,703.031 624.838,699.05 618.094,690.194 614.194,684.425 612.975,682.719Z" test="Bottle" stroke-width="1.625"/>
          <path id="Layer9_0_1_STROKES" stroke="#FFF" stroke-width="1.625" stroke-linejoin="round" stroke-linecap="round" fill="none" d="M589.25,695.475 Q595.831,710.588 605.744,718.469 608.181,720.419 620.531,726.838 M625.244,727.65 Q628.819,726.188 633.287,717.413 637.512,709.044 637.512,704.738 637.512,699.538 625.813,686.863 620.206,680.769 615.981,677.6 611.35,674.025 608.506,674.025 603.875,674.025 596.481,683.125 593.637,686.619 589.088,693.606 M630.85,703.031 Q624.838,699.05 618.094,690.194 614.194,684.425 612.975,682.719 612.488,681.988 612.406,681.906 M478.262,748.531 Q478.019,751.7 481.675,758.2 483.787,762.1 486.469,765.838 487.037,766.65 492.562,777.131 499.469,788.75 507.269,796.469 518.237,807.275 530.019,814.019 541.963,820.925 550.088,820.844 554.475,820.762 562.275,822.469 571.213,824.338 573.731,824.663 M600.787,782.169 Q599.975,782.088 599.65,782.169 597.294,782.25 596.4,782.331 595.181,782.413 593.231,782.9 591.363,783.387 588.519,783.387 581.531,783.387 563.981,771.525 547.162,760.231 537.738,749.913 529.938,741.3 527.744,730.819 526.606,719.931 525.306,713.35 525.144,712.456 524.981,711.644 M573.731,824.663 Q574.056,824.744 574.219,824.744 574.219,824.988 573.325,825.15" test="Bottle"/>
          <path id="Layer9_0_2_STROKES" stroke="#0F0" stroke-width="1.625" stroke-linejoin="round" stroke-linecap="round" fill="none" d="M525.306,713.35 Q525.144,713.269 524.981,713.269 508.406,712.619 496.381,725.619 486.469,736.344 478.262,748.531 M573.731,824.663 Q591.769,807.194 600.137,783.794 600.463,782.981 600.787,782.169 592.581,749.262 619.069,728.137 619.8,727.569 620.531,726.838 M589.25,695.475 Q560.569,715.625 525.306,713.35 M573.325,825.15 Q556.262,845.95 541.637,868.538 523.031,897.137 499.631,921.106 485.9,935.163 468.756,928.825 437.8,917.613 410.581,898.194 384.419,879.506 399.775,852.531 416.431,823.281 438.937,797.931 459.819,774.288 478.262,748.531 M573.325,825.15 L573.731,824.663" test="Bottle"/>
        </g>
        <g id="Banana">
          <path fill="#000" stroke="none" d="M400.038,648.656 L399.225,649.469 Q393.863,657.269 387.363,669.537 382.325,678.881 379.806,681.319 371.438,689.2 360.956,695.781 350.394,701.956 346.25,704.719 326.75,717.637 309.444,744.775 292.3,771.506 293.763,785.644 L293.763,792.631 Q293.925,792.875 294.819,792.875 297.906,792.875 300.588,788.081 302.05,785.4 304.325,780.037 305.219,778.412 309.038,773.213 310.988,770.531 311.231,770.044 320.331,767.525 334.55,758.019 350.881,747.213 357.95,737.056 365.1,726.819 381.188,714.306 396.706,702.2 397.519,700.9 L398.088,700.9 398.088,704.15 Q393.863,722.35 373.794,756.556 363.313,774.35 360.794,779.306 354.944,790.356 354.619,795.719 355.106,795.719 356.731,796.044 358.275,796.287 359.006,796.287 365.263,796.287 382.894,779.713 401.256,762.488 409.381,747.7 411.088,744.531 413.119,732.181 415.313,718.938 415.963,716.988 418.075,711.3 418.563,709.594 419.213,706.994 420.431,702.606 426.606,712.275 434.325,721.05 439.688,727.306 460.569,751.031 469.994,762.081 474.544,785.563 477.306,799.863 477.306,809.044 484.456,809.125 488.681,799.7 492.419,791.169 492.419,778.412 492.419,766.306 488.194,756.313 486.081,751.356 478.363,739.006 471.131,727.387 467.475,717.8 461.95,703.256 450.981,694.238 439.931,685.137 435.95,676.2 431.888,667.262 428.231,660.031 424.575,652.719 425.713,650.688 L424.413,649.225 Q422.138,651.256 418.481,652.556 414.338,653.938 410.438,653.938 408.569,653.938 404.263,651.744 400.769,649.956 400.038,648.656 M419.294,607.625 Q412.225,605.512 410.031,612.744 409.381,615.019 408.813,624.931 408.163,634.6 403.856,639.881 399.794,645 399.794,648.006 399.794,648.331 400.038,648.656 400.769,649.956 404.263,651.744 408.569,653.938 410.438,653.938 414.338,653.938 418.481,652.556 422.138,651.256 424.413,649.225 425.713,648.088 426.525,646.706 426.038,646.381 425.55,646.137 423.681,644.919 422.381,643.944 419.538,641.994 418.644,641.019 417.1,639.231 417.1,628.262 417.1,620.95 419.294,607.625Z" test="Banana" stroke-width="1.625"/>
          <path id="Layer10_0_1_STROKES" stroke="#FF0" stroke-width="1.625" stroke-linejoin="round" stroke-linecap="round" fill="none" d="M425.713,650.688 Q424.575,652.719 428.231,660.031 431.888,667.262 435.95,676.2 439.931,685.137 450.981,694.238 461.95,703.256 467.475,717.8 471.131,727.387 478.363,739.006 486.081,751.356 488.194,756.313 492.419,766.306 492.419,778.412 492.419,791.169 488.681,799.7 484.456,809.125 477.306,809.044 477.306,799.863 474.544,785.563 469.994,762.081 460.569,751.031 439.688,727.306 434.325,721.05 426.606,712.275 420.431,702.606 419.213,706.994 418.563,709.594 418.075,711.3 415.963,716.988 415.313,718.938 413.119,732.181 411.088,744.531 409.381,747.7 401.256,762.488 382.894,779.713 365.263,796.287 359.006,796.287 358.275,796.287 356.731,796.044 355.106,795.719 354.619,795.719 354.944,790.356 360.794,779.306 363.313,774.35 373.794,756.556 393.863,722.35 398.088,704.15 L398.088,700.9 397.519,700.9 Q396.706,702.2 381.188,714.306 365.1,726.819 357.95,737.056 350.881,747.213 334.55,758.019 320.331,767.525 311.231,770.044 310.988,770.531 309.038,773.213 305.219,778.412 304.325,780.037 302.05,785.4 300.588,788.081 297.906,792.875 294.819,792.875 293.925,792.875 293.763,792.631 L293.763,785.644 Q292.3,771.506 309.444,744.775 326.75,717.637 346.25,704.719 350.394,701.956 360.956,695.781 371.438,689.2 379.806,681.319 382.325,678.881 387.363,669.537 393.863,657.269 399.225,649.469" test="Banana"/>
          <path id="Layer10_0_2_STROKES" stroke="#FFF" stroke-width="1.625" stroke-linejoin="round" stroke-linecap="round" fill="none" d="M400.038,648.656 Q399.794,648.331 399.794,648.006 399.794,645 403.856,639.881 408.163,634.6 408.813,624.931 409.381,615.019 410.031,612.744 412.225,605.512 419.294,607.625 417.1,620.95 417.1,628.262 417.1,639.231 418.644,641.019 419.538,641.994 422.381,643.944 423.681,644.919 425.55,646.137 426.038,646.381 426.525,646.706 425.713,648.088 424.413,649.225 M400.038,648.656 Q400.769,649.956 404.263,651.744 408.569,653.938 410.438,653.938 414.338,653.938 418.481,652.556 422.138,651.256 424.413,649.225" test="Banana"/>
        </g>
      </g>
      <g id="Tween-4">
        <path id="Layer4_0_1_STROKES" stroke="#FFF" stroke-width="1.625" stroke-linejoin="round" stroke-linecap="round" fill="none" d="M546.1,816.588 Q546.1,810.25 555.606,805.294" test="Tween 4"/>
        <g id="Garbage">
          <path fill="#000" stroke="none" d="M438.281,778.469 L436.169,777.25 Q436.006,777.575 435.519,778.469 436.006,777.575 436.169,777.25 436.169,777.088 436.169,777.006 436.169,772.05 433.325,770.1 429.425,767.256 418.294,767.256 406.513,767.256 382.056,779.606 379.213,780.988 374.581,789.763 373.85,791.225 372.956,792.444 372.306,785.213 363.613,780.175 355,775.056 344.356,775.056 332.25,775.056 322.906,780.663 311.125,787.731 311.125,800.975 311.125,801.625 311.206,802.194 305.519,796.831 292.194,796.831 280.981,796.831 274.075,800.325 266.763,804.063 260.344,813.569 255.306,820.963 254.575,826.65 254.169,829.656 254.737,833.069 251.813,826.325 249.375,823.156 245.069,817.469 235.237,817.469 225.975,817.469 219.638,823.075 213.463,828.681 213.463,836.725 213.463,838.188 214.356,850.05 212,854.275 210.619,858.825 208.425,867.844 208.425,876.294 208.425,884.013 214.031,888.888 219.15,893.356 225.731,893.356 228.169,893.356 236.538,891.975 244.825,890.594 250.269,890.594 256.769,890.594 273.263,895.306 289.675,900.019 306.656,900.019 311.613,900.019 351.263,896.444 396.925,892.788 431.7,892.788 439.5,892.706 445.431,892.788 L465.5,893.844 466.313,893.438 Q467.206,893.113 467.938,893.031 472.731,892.788 476.956,890.431 480.125,889.456 482.156,888.563 494.831,883.038 497.513,882.794 L498.081,882.794 Q498.081,882.55 536.025,893.194 577.706,904 594.688,904 614.188,904 623.613,894.006 628.406,889.05 629.219,883.85 629.219,881.25 629.056,881.006 628.975,880.844 628.813,880.681 628.163,880.113 626.456,879.95 628.163,880.113 628.813,880.681 L629.219,879.95 Q631.819,878.325 640.106,875.319 647.094,871.663 647.094,864.919 647.094,860.694 642.056,859.313 L642.625,859.313 Q645.225,856.794 652.05,851.431 657.656,846.231 657.656,840.869 657.656,836.319 654.894,830.875 651.4,824.131 646.281,824.131 637.831,826.163 634.825,826.406 638.725,823.075 638.725,821.369 638.563,818.606 637.019,816.006 634.094,810.888 627.513,810.888 614.594,810.888 609.15,812.756 603.788,814.625 595.175,821.938 593.388,812.675 587.294,806.744 580.956,800.731 572.588,800.731 564.138,800.731 555.606,805.281 L546.1,816.575 Q546.1,818.038 547.156,826.975 546.425,826.569 544.638,826.163 542.931,825.838 541.875,825.838 537.975,825.838 533.344,830.306 531.638,832.013 529.363,835.913 527.25,839.65 526.519,842.006 526.356,842.738 526.194,843.55 525.463,846.475 523.025,848.425 522.294,848.994 521.4,849.319 521.075,849.075 520.831,848.831 516.281,844.363 515.063,838.188 514.413,836.238 513.112,834.125 510.756,830.144 507.019,826.406 515.956,827.381 523.594,824.538 532.125,821.369 533.181,814.706 533.344,813.731 533.344,812.675 533.344,808.45 532.613,806.175 531.069,801.219 525.95,796.831 520.588,792.2 514.819,791.063 512.95,790.656 507.588,790.656 507.669,790.494 512.138,782.613 512.544,781.881 512.869,781.15 L513.6,780.175 Q514.006,779.606 514.088,779.2 514.737,775.869 513.763,772.619 513.194,771.075 510.919,766.281 508.319,760.919 505.15,758.644 497.675,753.281 479.313,753.281 460.056,753.281 443.481,771.969 440.881,774.894 438.281,778.469 M481.75,816.331 Q481.425,817.144 480.775,818.444 481.425,817.144 481.75,816.331 482.4,814.869 482.4,813.731 482.4,807.069 476.55,807.069 473.625,807.069 470.7,807.881 464.85,809.588 464.525,813.894 464.85,809.588 470.7,807.881 473.625,807.069 476.55,807.069 482.4,807.069 482.4,813.731 482.4,814.869 481.75,816.331 M601.675,847.369 Q605.9,850.131 605.9,854.519 605.9,850.131 601.675,847.369 598.181,845.094 594.363,845.094 589,845.094 585.994,846.963 582.825,848.831 582.825,852.244 582.825,848.831 585.994,846.963 589,845.094 594.363,845.094 598.181,845.094 601.675,847.369 M350.45,821.938 Q355.163,824.456 356.3,827.544 355.163,824.456 350.45,821.938 346.063,819.663 342.65,819.663 338.263,819.663 335.094,822.506 330.706,826.569 330.706,835.344 330.706,836.644 330.95,837.375 331.438,838.675 332.9,840.869 331.438,838.675 330.95,837.375 330.706,836.644 330.706,835.344 330.706,826.569 335.094,822.506 338.263,819.663 342.65,819.663 346.063,819.663 350.45,821.938 M416.588,814.706 Q417.725,816.656 417.725,821.694 417.725,830.794 410.575,837.05 402.856,843.713 390.913,843.144 402.856,843.713 410.575,837.05 417.725,830.794 417.725,821.694 417.725,816.656 416.588,814.706 415.288,812.431 411.631,812.431 410.9,812.431 409.844,812.756 408.3,813.244 406.594,813.569 408.3,813.244 409.844,812.756 410.9,812.431 411.631,812.431 415.288,812.431 416.588,814.706Z" test="Garbage" stroke-width="1.625"/>
          <path id="Layer6_0_1_STROKES" stroke="#FFF" stroke-width="1.625" stroke-linejoin="round" stroke-linecap="round" fill="none" d="M436.169,777.25 Q436.006,777.575 435.519,778.469 M628.813,880.681 Q628.975,880.844 629.056,881.006 629.219,881.25 629.219,883.85 628.406,889.05 623.613,894.006 614.188,904 594.688,904 577.706,904 536.025,893.194 498.081,882.55 498.081,882.794 L497.513,882.794 Q494.831,883.038 482.156,888.563 480.125,889.456 476.956,890.431 472.731,892.788 467.938,893.031 467.206,893.113 466.313,893.438 L465.5,893.844 445.431,892.788 Q439.5,892.706 431.7,892.788 396.925,892.788 351.263,896.444 311.613,900.019 306.656,900.019 289.675,900.019 273.263,895.306 256.769,890.594 250.269,890.594 244.825,890.594 236.538,891.975 228.169,893.356 225.731,893.356 219.15,893.356 214.031,888.888 208.425,884.013 208.425,876.294 208.425,867.844 210.619,858.825 212,854.275 214.356,850.05 213.463,838.188 213.463,836.725 213.463,828.681 219.638,823.075 225.975,817.469 235.237,817.469 245.069,817.469 249.375,823.156 251.813,826.325 254.737,833.069 254.169,829.656 254.575,826.65 255.306,820.963 260.344,813.569 266.763,804.063 274.075,800.325 280.981,796.831 292.194,796.831 305.519,796.831 311.206,802.194 311.125,801.625 311.125,800.975 311.125,787.731 322.906,780.663 332.25,775.056 344.356,775.056 355,775.056 363.613,780.175 372.306,785.213 372.956,792.444 373.85,791.225 374.581,789.763 379.213,780.988 382.056,779.606 406.513,767.256 418.294,767.256 429.425,767.256 433.325,770.1 436.169,772.05 436.169,777.006 436.169,777.088 436.169,777.25 M438.281,778.469 Q440.881,774.894 443.481,771.969 460.056,753.281 479.313,753.281 497.675,753.281 505.15,758.644 508.319,760.919 510.919,766.281 513.194,771.075 513.763,772.619 514.737,775.869 514.088,779.2 514.006,779.606 513.6,780.175 L512.869,781.15 Q512.544,781.881 512.138,782.613 507.669,790.494 507.588,790.656 512.95,790.656 514.819,791.063 520.588,792.2 525.95,796.831 531.069,801.219 532.613,806.175 533.344,808.45 533.344,812.675 533.344,813.731 533.181,814.706 532.125,821.369 523.594,824.538 515.956,827.381 507.019,826.406 510.756,830.144 513.112,834.125 514.413,836.238 515.063,838.188 516.281,844.363 520.831,848.831 521.075,849.075 521.4,849.319 522.294,848.994 523.025,848.425 525.463,846.475 526.194,843.55 526.356,842.738 526.519,842.006 527.25,839.65 529.363,835.913 531.638,832.013 533.344,830.306 537.975,825.838 541.875,825.838 542.931,825.838 544.638,826.163 546.425,826.569 547.156,826.975 546.1,818.038 546.1,816.575 M555.606,805.281 Q564.138,800.731 572.588,800.731 580.956,800.731 587.294,806.744 593.388,812.675 595.175,821.938 603.788,814.625 609.15,812.756 614.594,810.888 627.513,810.888 634.094,810.888 637.019,816.006 638.563,818.606 638.725,821.369 638.725,823.075 634.825,826.406 637.831,826.163 646.281,824.131 651.4,824.131 654.894,830.875 657.656,836.319 657.656,840.869 657.656,846.231 652.05,851.431 645.225,856.794 642.625,859.313 L642.056,859.313 Q647.094,860.694 647.094,864.919 647.094,871.663 640.106,875.319 631.819,878.325 629.219,879.95 M626.456,879.95 Q628.163,880.113 628.813,880.681 M464.525,813.894 Q464.85,809.588 470.7,807.881 473.625,807.069 476.55,807.069 482.4,807.069 482.4,813.731 482.4,814.869 481.75,816.331 481.425,817.144 480.775,818.444 M582.825,852.244 Q582.825,848.831 585.994,846.963 589,845.094 594.363,845.094 598.181,845.094 601.675,847.369 605.9,850.131 605.9,854.519 M332.9,840.869 Q331.438,838.675 330.95,837.375 330.706,836.644 330.706,835.344 330.706,826.569 335.094,822.506 338.263,819.663 342.65,819.663 346.063,819.663 350.45,821.938 355.163,824.456 356.3,827.544 M406.594,813.569 Q408.3,813.244 409.844,812.756 410.9,812.431 411.631,812.431 415.288,812.431 416.588,814.706 417.725,816.656 417.725,821.694 417.725,830.794 410.575,837.05 402.856,843.713 390.913,843.144" test="Garbage"/>
        </g>
        <g id="GarbageCloud">
          <path id="Layer7_0_1_STROKES" stroke="#FFF" stroke-width="1.625" stroke-linejoin="round" stroke-linecap="round" fill="none" d="M477.988,700.306 Q480.425,699.006 480.913,698.275 481.888,696.894 481.888,693.075 481.888,688.281 477.744,681.131 473.6,673.981 473.6,667.563 473.6,662.363 479.694,652.288 485.788,642.213 485.788,637.744 485.788,635.144 483.513,632.137 483.188,631.731 480.181,628.319 M574.188,674.631 Q575.163,672.519 579.063,669.025 584.263,664.231 588.488,663.988 589.625,666.262 589.625,668.456 589.625,669.025 584.019,674.631 L574.188,674.631 Q574.025,674.956 573.781,675.688 574.35,675.931 574.919,676.338 577.275,677.881 577.275,679.588 577.275,681.375 576.788,681.863 576.219,682.431 574.269,682.431 572.481,682.431 571.181,681.375 570.044,680.319 570.044,679.019 570.044,678.044 570.45,677.394 566.713,677.394 564.438,676.825 558.913,675.606 558.913,671.788 558.913,668.944 559.969,666.831 561.431,663.988 564.194,663.988 568.094,663.988 570.531,667.481 572.156,669.919 573.375,674.631 L574.188,674.631Z M570.45,677.394 L570.531,677.394 Q571.669,677.394 571.994,677.313 572.4,677.231 572.806,676.825 L572.806,675.688 Q571.75,676.094 571.181,676.5 570.694,676.825 570.45,677.394Z M573.781,675.688 Q572.075,674.875 570.613,675.2 M291.356,660.738 Q291.6,659.925 291.925,659.113 287.131,659.275 282.5,662.525 278.438,665.206 277.056,667.887 L277.056,673.494 282.094,673.494 Q289.731,667.725 290.788,662.85 291.031,661.794 291.356,660.738 290.95,660.738 290.463,660.738 M297.125,661.875 Q295.744,660.656 294.85,660.006 292.656,660.088 292.169,660.169 M294.85,660.006 Q294.119,659.438 293.713,659.194 293.469,659.031 292.738,659.031 292.331,659.031 291.925,659.113 294.038,653.75 298.831,647.819 L303.869,647.819 Q303.869,648.387 304.194,649.85 304.438,651.313 304.438,652.044 304.438,658.3 298.913,659.762 296.475,659.925 294.85,660.006Z M335.638,683.569 Q337.831,678.938 339.375,675.444 342.381,668.7 342.381,666.181 342.381,664.069 337.913,659.6 333.444,655.05 333.444,653.669 333.444,649.688 335.394,643.594 337.344,637.419 337.344,634.738 337.344,628.887 337.019,627.181 336.288,622.875 333.444,621.575 M291.6,661.875 L291.356,662.931 Q291.031,664.231 291.031,665.125 291.031,666.588 292.656,667.319 293.875,667.887 295.013,667.887 295.825,667.887 296.8,667.563 298.669,666.913 298.831,666.831 298.506,663.338 296.231,661.875 294.525,660.9 291.356,660.738" test="GarbageCloud"/>
        </g>
      </g>
      <g id="Drawer">
        <path fill="#000" stroke="none" d="M702.662,1023.463 Q702.175,1023.95 701.769,1024.438 L701.769,1051.981 Q702.175,1052.388 702.662,1052.875 708.594,1058.806 716.881,1058.969 L717.369,1058.969 Q725.981,1058.969 732.075,1052.875 738.169,1046.781 738.169,1038.169 738.169,1029.556 732.075,1023.463 725.981,1017.369 717.369,1017.369 L716.881,1017.369 Q708.594,1017.531 702.662,1023.463 M152.519,936.119 Q147.319,960.006 148.294,986.25 151.381,1060.106 150.244,1106.825 149.269,1152.244 152.519,1164.919 253.269,1163.538 352.719,1167.763 392.044,1166.625 418.206,1168.006 444.775,1169.388 463.219,1169.388 470.287,1169.388 477.519,1169.306 487.675,1170.525 497.75,1170.363 516.275,1168.9 534.637,1166.219 553.65,1163.863 572.906,1166.056 591.35,1168.169 609.631,1167.681 628.806,1167.113 647.819,1165.975 670.081,1165.569 701.769,1164.919 L701.769,1058.969 701.769,1051.981 701.769,1024.438 Q701.688,1020.863 701.688,1017.369 700.631,962.281 701.769,907.519 L666.669,907.519 666.669,936.119 581.519,932.95 Q356.05,940.344 152.519,936.119Z" test="Drawer" stroke-width="1.625"/>
        <path id="Layer3_0_1_STROKES" stroke="#F60" stroke-width="3.25" stroke-linejoin="round" stroke-linecap="round" fill="none" d="M701.769,1051.981 L701.769,1058.969 701.769,1164.919 Q670.081,1165.569 647.819,1165.975 628.806,1167.113 609.631,1167.681 591.35,1168.169 572.906,1166.056 553.65,1163.863 534.637,1166.219 516.275,1168.9 497.75,1170.363 487.675,1170.525 477.519,1169.306 470.287,1169.388 463.219,1169.388 444.775,1169.388 418.206,1168.006 392.044,1166.625 352.719,1167.763 253.269,1163.538 152.519,1164.919 149.269,1152.244 150.244,1106.825 151.381,1060.106 148.294,986.25 147.319,960.006 152.519,936.119 356.05,940.344 581.519,932.95 L666.669,936.119 666.669,907.519 701.769,907.519 Q700.631,962.281 701.688,1017.369 701.688,1020.863 701.769,1024.438 702.175,1023.95 702.662,1023.463 708.594,1017.531 716.881,1017.369 L717.369,1017.369 Q725.981,1017.369 732.075,1023.463 738.169,1029.556 738.169,1038.169 738.169,1046.781 732.075,1052.875 725.981,1058.969 717.369,1058.969 L716.881,1058.969 Q708.594,1058.806 702.662,1052.875 702.175,1052.388 701.769,1051.981 L701.769,1024.438" test="Drawer"/>
      </g>
      <g id="DrawersCabinetFront">
        <path fill="#000" stroke="none" d="M193.919,1326.994 Q194.325,1327.4 194.813,1327.888 200.744,1333.819 209.031,1333.981 L209.519,1333.981 Q218.131,1333.981 224.225,1327.888 230.319,1321.794 230.319,1313.181 230.319,1304.569 224.225,1298.475 218.131,1292.381 209.519,1292.381 L209.031,1292.381 Q200.744,1292.544 194.813,1298.475 194.325,1298.962 193.919,1299.45 L193.919,1326.994 M193.919,1182.531 L158.819,1182.531 158.819,1211.131 73.669,1207.962 Q-151.8,1215.356 -355.331,1211.131 -360.531,1235.019 -359.556,1261.263 -356.469,1335.119 -357.606,1381.837 -358.581,1427.256 -355.331,1439.931 -254.581,1438.55 -155.131,1442.775 -115.806,1441.638 -89.644,1443.019 -63.075,1444.4 -44.631,1444.4 -37.562,1444.4 -30.331,1444.319 -20.175,1445.538 -10.1,1445.375 8.425,1443.913 26.787,1441.231 45.8,1438.875 65.056,1441.069 83.5,1443.181 101.781,1442.694 120.956,1442.125 139.969,1440.988 162.231,1440.581 193.919,1439.931 L193.919,1333.981 193.919,1326.994 193.919,1299.45 Q193.837,1295.875 193.837,1292.381 192.781,1237.294 193.919,1182.531Z" test="DrawersCabinetFront" stroke-width="1.625"/>
        <path id="Layer2_0_1_STROKES" stroke="#F60" stroke-width="3.25" stroke-linejoin="round" stroke-linecap="round" fill="none" d="M193.919,1326.994 L193.919,1333.981 193.919,1439.931 Q162.231,1440.581 139.969,1440.988 120.956,1442.125 101.781,1442.694 83.5,1443.181 65.056,1441.069 45.8,1438.875 26.787,1441.231 8.425,1443.913 -10.1,1445.375 -20.175,1445.538 -30.331,1444.319 -37.562,1444.4 -44.631,1444.4 -63.075,1444.4 -89.644,1443.019 -115.806,1441.638 -155.131,1442.775 -254.581,1438.55 -355.331,1439.931 -358.581,1427.256 -357.606,1381.837 -356.469,1335.119 -359.556,1261.263 -360.531,1235.019 -355.331,1211.131 -151.8,1215.356 73.669,1207.962 L158.819,1211.131 158.819,1182.531 193.919,1182.531 Q192.781,1237.294 193.837,1292.381 193.837,1295.875 193.919,1299.45 194.325,1298.962 194.813,1298.475 200.744,1292.544 209.031,1292.381 L209.519,1292.381 Q218.131,1292.381 224.225,1298.475 230.319,1304.569 230.319,1313.181 230.319,1321.794 224.225,1327.888 218.131,1333.981 209.519,1333.981 L209.031,1333.981 Q200.744,1333.819 194.813,1327.888 194.325,1327.4 193.919,1326.994 L193.919,1299.45" test="DrawersCabinetFront"/>
        <path fill="#000" stroke="none" d="M117.3,894.906 Q82.361,893.614 48.725,891.656 15.182,889.783 -73.637,890.113 -162.395,890.53 -203.394,891.006 -244.292,891.564 -296.181,891.087 -348.089,890.605 -378.081,894.256 -380.194,911.481 -382.631,1050.013 -385.15,1193.906 -382.794,1222.263 -381.9,1233.8 -387.831,1337.719 -393.678,1441.636 -389.212,1443.913 -384.672,1446.191 -372.637,1445.294 -368.128,1445.016 -362.887,1444.319 -352.812,1443.019 -342.656,1441.719 -294.963,1436.844 -247.187,1438.306 -225.026,1438.452 -201.525,1438.712 -83.469,1440.094 -67.869,1440.094 -53.406,1440.094 52.462,1444.156 53.681,1444.238 54.981,1444.238 58.313,1444.4 61.644,1444.481 66.356,1444.644 70.906,1444.725 156.462,1447.244 158.413,1444.156 160.688,1440.581 160.85,1426.444 160.769,1406.294 160.769,1393.212 160.769,1298.069 161.988,1265 162.556,1248.75 160.769,1173.513 159.063,1097.788 159.631,1078.856 160.686,1043.847 159.875,969.575 159.147,895.291 155.731,895.719 152.314,896.221 117.3,894.906Z" test="DrawersCabinetFront" stroke-width="1.625"/>
        <path id="Layer1_0_1_STROKES" stroke="#F60" stroke-width="3.25" stroke-linejoin="round" stroke-linecap="round" fill="none" d="M-378.081,894.256 Q-348.089,890.605 -296.181,891.087 -244.292,891.564 -203.353,891.047 -162.395,890.53 -73.597,890.153 15.182,889.783 48.766,891.697 82.361,893.614 117.341,894.906 152.314,896.221 155.731,895.759 159.147,895.291 159.916,969.575 160.686,1043.847 159.631,1078.856 159.063,1097.788 160.769,1173.513 162.556,1248.75 161.988,1265 160.769,1298.069 160.769,1393.212 160.769,1406.294 160.85,1426.444 160.688,1440.581 158.413,1444.156 156.462,1447.244 70.906,1444.725 66.356,1444.644 61.644,1444.481 58.313,1444.4 54.981,1444.238 53.681,1444.238 52.462,1444.156 -53.406,1440.094 -67.869,1440.094 -83.469,1440.094 -201.525,1438.712 -225.026,1438.452 -247.187,1438.306 -294.963,1436.844 -342.656,1441.719 -352.812,1443.019 -362.887,1444.359 -368.128,1445.016 -372.597,1445.334 -384.672,1446.191 -389.172,1443.913 -393.678,1441.636 -387.791,1337.719 -381.9,1233.8 -382.794,1222.263 -385.15,1193.906 -382.631,1050.013 -380.194,911.481 -378.081,894.256Z" test="DrawersCabinetFront"/>
      </g>
    </g>
  </g>
</svg>