<?xml version="1.0" encoding="utf-8"?>
<svg id="EdithAnim12" image-rendering="inherit" baseProfile="basic" version="1.1" x="0px" y="0px" width="800" height="600" xmlns="http://www.w3.org/2000/svg" xmlns:xlink="http://www.w3.org/1999/xlink">
  <g id="21_GarbageDrawerf2r1" overflow="visible">
    <g id="GarbageDrawerGroupf2r1">
      <g id="Drawer">
        <path fill="#000" stroke="none" d="M41.05,280.75 Q40.75,281.05 40.5,281.35 L40.5,298.3 Q40.75,298.55 41.05,298.85 44.7,302.5 49.8,302.6 L50.1,302.6 Q55.4,302.6 59.15,298.85 62.9,295.1 62.9,289.8 62.9,284.5 59.15,280.75 55.4,277 50.1,277 L49.8,277 Q44.7,277.1 41.05,280.75 M-297.5,227 Q-300.7,241.7 -300.1,257.85 -298.2,303.3 -298.9,332.05 -299.5,360 -297.5,367.8 -235.5,366.95 -174.3,369.55 -150.1,368.85 -134,369.7 -117.65,370.55 -106.3,370.55 -101.95,370.55 -97.5,370.5 -91.25,371.25 -85.05,371.15 -73.65,370.25 -62.35,368.6 -50.65,367.15 -38.8,368.5 -27.45,369.8 -16.2,369.5 -4.4,369.15 7.3,368.45 21,368.2 40.5,367.8 L40.5,302.6 40.5,298.3 40.5,281.35 Q40.45,279.15 40.45,277 39.8,243.1 40.5,209.4 L18.9,209.4 18.9,227 -33.5,225.05 Q-172.25,229.6 -297.5,227Z" test="Drawer"/>
        <path id="Layer3_0_1_STROKES" stroke="#F60" stroke-width="2" stroke-linejoin="round" stroke-linecap="round" fill="none" d="M40.5,298.3 L40.5,302.6 40.5,367.8 Q21,368.2 7.3,368.45 -4.4,369.15 -16.2,369.5 -27.45,369.8 -38.8,368.5 -50.65,367.15 -62.35,368.6 -73.65,370.25 -85.05,371.15 -91.25,371.25 -97.5,370.5 -101.95,370.55 -106.3,370.55 -117.65,370.55 -134,369.7 -150.1,368.85 -174.3,369.55 -235.5,366.95 -297.5,367.8 -299.5,360 -298.9,332.05 -298.2,303.3 -300.1,257.85 -300.7,241.7 -297.5,227 -172.25,229.6 -33.5,225.05 L18.9,227 18.9,209.4 40.5,209.4 Q39.8,243.1 40.45,277 40.45,279.15 40.5,281.35 40.75,281.05 41.05,280.75 44.7,277.1 49.8,277 L50.1,277 Q55.4,277 59.15,280.75 62.9,284.5 62.9,289.8 62.9,295.1 59.15,298.85 55.4,302.6 50.1,302.6 L49.8,302.6 Q44.7,302.5 41.05,298.85 40.75,298.55 40.5,298.3 L40.5,281.35" test="Drawer"/>
      </g>
      <g id="DrawersCabinetFront">
        <path fill="#000" stroke="none" d="M39.95,467.25 Q40.2,467.5 40.5,467.8 44.15,471.45 49.25,471.55 L49.55,471.55 Q54.85,471.55 58.6,467.8 62.35,464.05 62.35,458.75 62.35,453.45 58.6,449.7 54.85,445.95 49.55,445.95 L49.25,445.95 Q44.15,446.05 40.5,449.7 40.2,450 39.95,450.3 L39.95,467.25 M39.95,378.35 L18.35,378.35 18.35,395.95 -34.05,394 Q-172.8,398.55 -298.05,395.95 -301.25,410.65 -300.65,426.8 -298.75,472.25 -299.45,501 -300.05,528.95 -298.05,536.75 -236.05,535.9 -174.85,538.5 -150.65,537.8 -134.55,538.65 -118.2,539.5 -106.85,539.5 -102.5,539.5 -98.05,539.45 -91.8,540.2 -85.6,540.1 -74.2,539.2 -62.9,537.55 -51.2,536.1 -39.35,537.45 -28,538.75 -16.75,538.45 -4.95,538.1 6.75,537.4 20.45,537.15 39.95,536.75 L39.95,471.55 39.95,467.25 39.95,450.3 Q39.9,448.1 39.9,445.95 39.25,412.05 39.95,378.35Z" test="DrawersCabinetFront"/>
        <path id="Layer2_0_1_STROKES" stroke="#F60" stroke-width="2" stroke-linejoin="round" stroke-linecap="round" fill="none" d="M39.95,467.25 L39.95,471.55 39.95,536.75 Q20.45,537.15 6.75,537.4 -4.95,538.1 -16.75,538.45 -28,538.75 -39.35,537.45 -51.2,536.1 -62.9,537.55 -74.2,539.2 -85.6,540.1 -91.8,540.2 -98.05,539.45 -102.5,539.5 -106.85,539.5 -118.2,539.5 -134.55,538.65 -150.65,537.8 -174.85,538.5 -236.05,535.9 -298.05,536.75 -300.05,528.95 -299.45,501 -298.75,472.25 -300.65,426.8 -301.25,410.65 -298.05,395.95 -172.8,398.55 -34.05,394 L18.35,395.95 18.35,378.35 39.95,378.35 Q39.25,412.05 39.9,445.95 39.9,448.1 39.95,450.3 40.2,450 40.5,449.7 44.15,446.05 49.25,445.95 L49.55,445.95 Q54.85,445.95 58.6,449.7 62.35,453.45 62.35,458.75 62.35,464.05 58.6,467.8 54.85,471.55 49.55,471.55 L49.25,471.55 Q44.15,471.45 40.5,467.8 40.2,467.5 39.95,467.25 L39.95,450.3" test="DrawersCabinetFront"/>
        <path fill="#000" stroke="none" d="M-7.2,201.35 Q-28.701,200.555 -49.4,199.35 -70.042,198.197 -124.7,198.4 -179.32,198.657 -204.55,198.95 -229.718,199.293 -261.65,199 -293.593,198.703 -312.05,200.95 -313.35,211.55 -314.85,296.8 -316.4,385.35 -314.95,402.8 -314.4,409.9 -318.05,473.85 -321.648,537.799 -318.9,539.2 -316.106,540.602 -308.7,540.05 -305.925,539.879 -302.7,539.45 -296.5,538.65 -290.25,537.85 -260.9,534.85 -231.5,535.75 -217.862,535.84 -203.4,536 -130.75,536.85 -121.15,536.85 -112.25,536.85 -47.1,539.35 -46.35,539.4 -45.55,539.4 -43.5,539.5 -41.45,539.55 -38.55,539.65 -35.75,539.7 16.9,541.25 18.1,539.35 19.5,537.15 19.6,528.45 19.55,516.05 19.55,508 19.55,449.45 20.3,429.1 20.65,419.1 19.55,372.8 18.5,326.2 18.85,314.55 19.499,293.006 19,247.3 18.552,201.587 16.45,201.85 14.347,202.159 -7.2,201.35Z" test="DrawersCabinetFront"/>
        <path id="Layer1_0_1_STROKES" stroke="#F60" stroke-width="2" stroke-linejoin="round" stroke-linecap="round" fill="none" d="M-312.05,200.95 Q-293.593,198.703 -261.65,199 -229.718,199.293 -204.525,198.975 -179.32,198.657 -124.675,198.425 -70.042,198.197 -49.375,199.375 -28.701,200.555 -7.175,201.35 14.347,202.159 16.45,201.875 18.552,201.587 19.025,247.3 19.499,293.006 18.85,314.55 18.5,326.2 19.55,372.8 20.65,419.1 20.3,429.1 19.55,449.45 19.55,508 19.55,516.05 19.6,528.45 19.5,537.15 18.1,539.35 16.9,541.25 -35.75,539.7 -38.55,539.65 -41.45,539.55 -43.5,539.5 -45.55,539.4 -46.35,539.4 -47.1,539.35 -112.25,536.85 -121.15,536.85 -130.75,536.85 -203.4,536 -217.862,535.84 -231.5,535.75 -260.9,534.85 -290.25,537.85 -296.5,538.65 -302.7,539.475 -305.925,539.879 -308.675,540.075 -316.106,540.602 -318.875,539.2 -321.648,537.799 -318.025,473.85 -314.4,409.9 -314.95,402.8 -316.4,385.35 -314.85,296.8 -313.35,211.55 -312.05,200.95Z" test="DrawersCabinetFront"/>
      </g>
    </g>
  </g>
</svg>