<?xml version="1.0" encoding="utf-8"?>
<svg id="EdithAnim12" image-rendering="inherit" baseProfile="basic" version="1.1" x="0px" y="0px" width="800" height="600" xmlns="http://www.w3.org/2000/svg" xmlns:xlink="http://www.w3.org/1999/xlink">
  <g id="21_GarbageDrawerf36r1" overflow="visible">
    <g id="GarbageDrawerGroupf36r1">
      <g id="Drawer">
        <path fill="#000" stroke="none" d="M420.55,280.75 Q420.25,281.05 420,281.35 L420,298.3 Q420.25,298.55 420.55,298.85 424.2,302.5 429.3,302.6 L429.6,302.6 Q434.9,302.6 438.65,298.85 442.4,295.1 442.4,289.8 442.4,284.5 438.65,280.75 434.9,277 429.6,277 L429.3,277 Q424.2,277.1 420.55,280.75 M82,227 Q78.8,241.7 79.4,257.85 81.3,303.3 80.6,332.05 80,360 82,367.8 144,366.95 205.2,369.55 229.4,368.85 245.5,369.7 261.85,370.55 273.2,370.55 277.55,370.55 282,370.5 288.25,371.25 294.45,371.15 305.85,370.25 317.15,368.6 328.85,367.15 340.7,368.5 352.05,369.8 363.3,369.5 375.1,369.15 386.8,368.45 400.5,368.2 420,367.8 L420,302.6 420,298.3 420,281.35 Q419.95,279.15 419.95,277 419.3,243.1 420,209.4 L398.4,209.4 398.4,227 346,225.05 Q207.25,229.6 82,227Z" test="Drawer"/>
        <path id="Layer3_0_1_STROKES" stroke="#F60" stroke-width="2" stroke-linejoin="round" stroke-linecap="round" fill="none" d="M420,298.3 L420,302.6 420,367.8 Q400.5,368.2 386.8,368.45 375.1,369.15 363.3,369.5 352.05,369.8 340.7,368.5 328.85,367.15 317.15,368.6 305.85,370.25 294.45,371.15 288.25,371.25 282,370.5 277.55,370.55 273.2,370.55 261.85,370.55 245.5,369.7 229.4,368.85 205.2,369.55 144,366.95 82,367.8 80,360 80.6,332.05 81.3,303.3 79.4,257.85 78.8,241.7 82,227 207.25,229.6 346,225.05 L398.4,227 398.4,209.4 420,209.4 Q419.3,243.1 419.95,277 419.95,279.15 420,281.35 420.25,281.05 420.55,280.75 424.2,277.1 429.3,277 L429.6,277 Q434.9,277 438.65,280.75 442.4,284.5 442.4,289.8 442.4,295.1 438.65,298.85 434.9,302.6 429.6,302.6 L429.3,302.6 Q424.2,302.5 420.55,298.85 420.25,298.55 420,298.3 L420,281.35" test="Drawer"/>
      </g>
      <g id="DrawersCabinetFront">
        <path fill="#000" stroke="none" d="M419.45,467.25 Q419.7,467.5 420,467.8 423.65,471.45 428.75,471.55 L429.05,471.55 Q434.35,471.55 438.1,467.8 441.85,464.05 441.85,458.75 441.85,453.45 438.1,449.7 434.35,445.95 429.05,445.95 L428.75,445.95 Q423.65,446.05 420,449.7 419.7,450 419.45,450.3 L419.45,467.25 M419.45,378.35 L397.85,378.35 397.85,395.95 345.45,394 Q206.7,398.55 81.45,395.95 78.25,410.65 78.85,426.8 80.75,472.25 80.05,501 79.45,528.95 81.45,536.75 143.45,535.9 204.65,538.5 228.85,537.8 244.95,538.65 261.3,539.5 272.65,539.5 277,539.5 281.45,539.45 287.7,540.2 293.9,540.1 305.3,539.2 316.6,537.55 328.3,536.1 340.15,537.45 351.5,538.75 362.75,538.45 374.55,538.1 386.25,537.4 399.95,537.15 419.45,536.75 L419.45,471.55 419.45,467.25 419.45,450.3 Q419.4,448.1 419.4,445.95 418.75,412.05 419.45,378.35Z" test="DrawersCabinetFront"/>
        <path id="Layer2_0_1_STROKES" stroke="#F60" stroke-width="2" stroke-linejoin="round" stroke-linecap="round" fill="none" d="M419.45,467.25 L419.45,471.55 419.45,536.75 Q399.95,537.15 386.25,537.4 374.55,538.1 362.75,538.45 351.5,538.75 340.15,537.45 328.3,536.1 316.6,537.55 305.3,539.2 293.9,540.1 287.7,540.2 281.45,539.45 277,539.5 272.65,539.5 261.3,539.5 244.95,538.65 228.85,537.8 204.65,538.5 143.45,535.9 81.45,536.75 79.45,528.95 80.05,501 80.75,472.25 78.85,426.8 78.25,410.65 81.45,395.95 206.7,398.55 345.45,394 L397.85,395.95 397.85,378.35 419.45,378.35 Q418.75,412.05 419.4,445.95 419.4,448.1 419.45,450.3 419.7,450 420,449.7 423.65,446.05 428.75,445.95 L429.05,445.95 Q434.35,445.95 438.1,449.7 441.85,453.45 441.85,458.75 441.85,464.05 438.1,467.8 434.35,471.55 429.05,471.55 L428.75,471.55 Q423.65,471.45 420,467.8 419.7,467.5 419.45,467.25 L419.45,450.3" test="DrawersCabinetFront"/>
        <path fill="#000" stroke="none" d="M372.3,201.35 Q350.799,200.555 330.1,199.35 309.458,198.197 254.8,198.4 200.18,198.657 174.95,198.95 149.782,199.293 117.85,199 85.907,198.703 67.45,200.95 66.15,211.55 64.65,296.8 63.1,385.35 64.55,402.8 65.1,409.9 61.45,473.85 57.852,537.799 60.6,539.2 63.394,540.602 70.8,540.05 73.575,539.879 76.8,539.45 83,538.65 89.25,537.85 118.6,534.85 148,535.75 161.638,535.84 176.1,536 248.75,536.85 258.35,536.85 267.25,536.85 332.4,539.35 333.15,539.4 333.95,539.4 336,539.5 338.05,539.55 340.95,539.65 343.75,539.7 396.4,541.25 397.6,539.35 399,537.15 399.1,528.45 399.05,516.05 399.05,508 399.05,449.45 399.8,429.1 400.15,419.1 399.05,372.8 398,326.2 398.35,314.55 398,293.006 398.5,247.3 398.052,201.587 395.95,201.85 393.847,202.159 372.3,201.35Z" test="DrawersCabinetFront"/>
        <path id="Layer1_0_1_STROKES" stroke="#F60" stroke-width="2" stroke-linejoin="round" stroke-linecap="round" fill="none" d="M67.45,200.95 Q85.907,198.703 117.85,199 149.782,199.293 174.975,198.975 200.18,198.657 254.825,198.425 309.458,198.197 330.125,199.375 350.799,200.555 372.325,201.35 393.847,202.159 395.95,201.875 398.052,201.587 398.525,247.3 398,293.006 398.35,314.55 398,326.2 399.05,372.8 400.15,419.1 399.8,429.1 399.05,449.45 399.05,508 399.05,516.05 399.1,528.45 399,537.15 397.6,539.35 396.4,541.25 343.75,539.7 340.95,539.65 338.05,539.55 336,539.5 333.95,539.4 333.15,539.4 332.4,539.35 267.25,536.85 258.35,536.85 248.75,536.85 176.1,536 161.638,535.84 148,535.75 118.6,534.85 89.25,537.85 83,538.65 76.8,539.475 73.575,539.879 70.825,540.075 63.394,540.602 60.625,539.2 57.852,537.799 61.475,473.85 65.1,409.9 64.55,402.8 63.1,385.35 64.65,296.8 66.15,211.55 67.45,200.95Z" test="DrawersCabinetFront"/>
      </g>
    </g>
  </g>
</svg>