<?xml version="1.0" encoding="utf-8"?>
<svg id="EdithAnim12" image-rendering="inherit" baseProfile="basic" version="1.1" x="0px" y="0px" width="800" height="600" xmlns="http://www.w3.org/2000/svg" xmlns:xlink="http://www.w3.org/1999/xlink">
  <g id="21_GarbageDrawerf5r1" overflow="visible">
    <g id="GarbageDrawerGroupf5r1">
      <g id="Drawer">
        <path fill="#000" stroke="none" d="M133.1,280.75 Q132.8,281.05 132.55,281.35 L132.55,298.3 Q132.8,298.55 133.1,298.85 136.75,302.5 141.85,302.6 L142.15,302.6 Q147.45,302.6 151.2,298.85 154.95,295.1 154.95,289.8 154.95,284.5 151.2,280.75 147.45,277 142.15,277 L141.85,277 Q136.75,277.1 133.1,280.75 M-205.45,227 Q-208.65,241.7 -208.05,257.85 -206.15,303.3 -206.85,332.05 -207.45,360 -205.45,367.8 -143.45,366.95 -82.25,369.55 -58.05,368.85 -41.95,369.7 -25.6,370.55 -14.25,370.55 -9.9,370.55 -5.45,370.5 .8,371.25 7,371.15 18.4,370.25 29.7,368.6 41.4,367.15 53.25,368.5 64.6,369.8 75.85,369.5 87.65,369.15 99.35,368.45 113.05,368.2 132.55,367.8 L132.55,302.6 132.55,298.3 132.55,281.35 Q132.5,279.15 132.5,277 131.85,243.1 132.55,209.4 L110.95,209.4 110.95,227 58.55,225.05 Q-80.2,229.6 -205.45,227Z" test="Drawer"/>
        <path id="Layer3_0_1_STROKES" stroke="#F60" stroke-width="2" stroke-linejoin="round" stroke-linecap="round" fill="none" d="M132.55,298.3 L132.55,302.6 132.55,367.8 Q113.05,368.2 99.35,368.45 87.65,369.15 75.85,369.5 64.6,369.8 53.25,368.5 41.4,367.15 29.7,368.6 18.4,370.25 7,371.15 .8,371.25 -5.45,370.5 -9.9,370.55 -14.25,370.55 -25.6,370.55 -41.95,369.7 -58.05,368.85 -82.25,369.55 -143.45,366.95 -205.45,367.8 -207.45,360 -206.85,332.05 -206.15,303.3 -208.05,257.85 -208.65,241.7 -205.45,227 -80.2,229.6 58.55,225.05 L110.95,227 110.95,209.4 132.55,209.4 Q131.85,243.1 132.5,277 132.5,279.15 132.55,281.35 132.8,281.05 133.1,280.75 136.75,277.1 141.85,277 L142.15,277 Q147.45,277 151.2,280.75 154.95,284.5 154.95,289.8 154.95,295.1 151.2,298.85 147.45,302.6 142.15,302.6 L141.85,302.6 Q136.75,302.5 133.1,298.85 132.8,298.55 132.55,298.3 L132.55,281.35" test="Drawer"/>
      </g>
      <g id="DrawersCabinetFront">
        <path fill="#000" stroke="none" d="M132,467.25 Q132.25,467.5 132.55,467.8 136.2,471.45 141.3,471.55 L141.6,471.55 Q146.9,471.55 150.65,467.8 154.4,464.05 154.4,458.75 154.4,453.45 150.65,449.7 146.9,445.95 141.6,445.95 L141.3,445.95 Q136.2,446.05 132.55,449.7 132.25,450 132,450.3 L132,467.25 M132,378.35 L110.4,378.35 110.4,395.95 58,394 Q-80.75,398.55 -206,395.95 -209.2,410.65 -208.6,426.8 -206.7,472.25 -207.4,501 -208,528.95 -206,536.75 -144,535.9 -82.8,538.5 -58.6,537.8 -42.5,538.65 -26.15,539.5 -14.8,539.5 -10.45,539.5 -6,539.45 .25,540.2 6.45,540.1 17.85,539.2 29.15,537.55 40.85,536.1 52.7,537.45 64.05,538.75 75.3,538.45 87.1,538.1 98.8,537.4 112.5,537.15 132,536.75 L132,471.55 132,467.25 132,450.3 Q131.95,448.1 131.95,445.95 131.3,412.05 132,378.35Z" test="DrawersCabinetFront"/>
        <path id="Layer2_0_1_STROKES" stroke="#F60" stroke-width="2" stroke-linejoin="round" stroke-linecap="round" fill="none" d="M132,467.25 L132,471.55 132,536.75 Q112.5,537.15 98.8,537.4 87.1,538.1 75.3,538.45 64.05,538.75 52.7,537.45 40.85,536.1 29.15,537.55 17.85,539.2 6.45,540.1 .25,540.2 -6,539.45 -10.45,539.5 -14.8,539.5 -26.15,539.5 -42.5,538.65 -58.6,537.8 -82.8,538.5 -144,535.9 -206,536.75 -208,528.95 -207.4,501 -206.7,472.25 -208.6,426.8 -209.2,410.65 -206,395.95 -80.75,398.55 58,394 L110.4,395.95 110.4,378.35 132,378.35 Q131.3,412.05 131.95,445.95 131.95,448.1 132,450.3 132.25,450 132.55,449.7 136.2,446.05 141.3,445.95 L141.6,445.95 Q146.9,445.95 150.65,449.7 154.4,453.45 154.4,458.75 154.4,464.05 150.65,467.8 146.9,471.55 141.6,471.55 L141.3,471.55 Q136.2,471.45 132.55,467.8 132.25,467.5 132,467.25 L132,450.3" test="DrawersCabinetFront"/>
        <path fill="#000" stroke="none" d="M84.85,201.35 Q63.349,200.555 42.65,199.35 22.008,198.197 -32.65,198.4 -87.27,198.657 -112.5,198.95 -137.668,199.293 -169.6,199 -201.543,198.703 -220,200.95 -221.3,211.55 -222.8,296.8 -224.35,385.35 -222.9,402.8 -222.35,409.9 -226,473.85 -229.598,537.799 -226.85,539.2 -224.056,540.602 -216.65,540.05 -213.875,539.879 -210.65,539.45 -204.45,538.65 -198.2,537.85 -168.85,534.85 -139.45,535.75 -125.812,535.84 -111.35,536 -38.7,536.85 -29.1,536.85 -20.2,536.85 44.95,539.35 45.7,539.4 46.5,539.4 48.55,539.5 50.6,539.55 53.5,539.65 56.3,539.7 108.95,541.25 110.15,539.35 111.55,537.15 111.65,528.45 111.6,516.05 111.6,508 111.6,449.45 112.35,429.1 112.7,419.1 111.6,372.8 110.55,326.2 110.9,314.55 111.549,293.006 111.05,247.3 110.602,201.587 108.5,201.85 106.397,202.159 84.85,201.35Z" test="DrawersCabinetFront"/>
        <path id="Layer1_0_1_STROKES" stroke="#F60" stroke-width="2" stroke-linejoin="round" stroke-linecap="round" fill="none" d="M-220,200.95 Q-201.543,198.703 -169.6,199 -137.668,199.293 -112.475,198.975 -87.27,198.657 -32.625,198.425 22.008,198.197 42.675,199.375 63.349,200.555 84.875,201.35 106.397,202.159 108.5,201.875 110.602,201.587 111.075,247.3 111.549,293.006 110.9,314.55 110.55,326.2 111.6,372.8 112.7,419.1 112.35,429.1 111.6,449.45 111.6,508 111.6,516.05 111.65,528.45 111.55,537.15 110.15,539.35 108.95,541.25 56.3,539.7 53.5,539.65 50.6,539.55 48.55,539.5 46.5,539.4 45.7,539.4 44.95,539.35 -20.2,536.85 -29.1,536.85 -38.7,536.85 -111.35,536 -125.812,535.84 -139.45,535.75 -168.85,534.85 -198.2,537.85 -204.45,538.65 -210.65,539.475 -213.875,539.879 -216.625,540.075 -224.056,540.602 -226.825,539.2 -229.598,537.799 -225.975,473.85 -222.35,409.9 -222.9,402.8 -224.35,385.35 -222.8,296.8 -221.3,211.55 -220,200.95Z" test="DrawersCabinetFront"/>
      </g>
    </g>
  </g>
</svg>