<?xml version="1.0" encoding="utf-8"?>
<svg id="EdithAnim12" image-rendering="inherit" baseProfile="basic" version="1.1" x="0px" y="0px" width="800" height="600" xmlns="http://www.w3.org/2000/svg" xmlns:xlink="http://www.w3.org/1999/xlink">
  <g id="21_GarbageDrawerf66r1" overflow="visible">
    <g id="GarbageDrawerGroupf66r1">
      <g id="Drawer">
        <path fill="#000" stroke="none" d="M448.3,280.75 Q448,281.05 447.75,281.35 L447.75,298.3 Q448,298.55 448.3,298.85 451.95,302.5 457.05,302.6 L457.35,302.6 Q462.65,302.6 466.4,298.85 470.15,295.1 470.15,289.8 470.15,284.5 466.4,280.75 462.65,277 457.35,277 L457.05,277 Q451.95,277.1 448.3,280.75 M109.75,227 Q106.55,241.7 107.15,257.85 109.05,303.3 108.35,332.05 107.75,360 109.75,367.8 171.75,366.95 232.95,369.55 257.15,368.85 273.25,369.7 289.6,370.55 300.95,370.55 305.3,370.55 309.75,370.5 316,371.25 322.2,371.15 333.6,370.25 344.9,368.6 356.6,367.15 368.45,368.5 379.8,369.8 391.05,369.5 402.85,369.15 414.55,368.45 428.25,368.2 447.75,367.8 L447.75,302.6 447.75,298.3 447.75,281.35 Q447.7,279.15 447.7,277 447.05,243.1 447.75,209.4 L426.15,209.4 426.15,227 373.75,225.05 Q235,229.6 109.75,227Z" test="Drawer"/>
        <path id="Layer3_0_1_STROKES" stroke="#F60" stroke-width="2" stroke-linejoin="round" stroke-linecap="round" fill="none" d="M447.75,298.3 L447.75,302.6 447.75,367.8 Q428.25,368.2 414.55,368.45 402.85,369.15 391.05,369.5 379.8,369.8 368.45,368.5 356.6,367.15 344.9,368.6 333.6,370.25 322.2,371.15 316,371.25 309.75,370.5 305.3,370.55 300.95,370.55 289.6,370.55 273.25,369.7 257.15,368.85 232.95,369.55 171.75,366.95 109.75,367.8 107.75,360 108.35,332.05 109.05,303.3 107.15,257.85 106.55,241.7 109.75,227 235,229.6 373.75,225.05 L426.15,227 426.15,209.4 447.75,209.4 Q447.05,243.1 447.7,277 447.7,279.15 447.75,281.35 448,281.05 448.3,280.75 451.95,277.1 457.05,277 L457.35,277 Q462.65,277 466.4,280.75 470.15,284.5 470.15,289.8 470.15,295.1 466.4,298.85 462.65,302.6 457.35,302.6 L457.05,302.6 Q451.95,302.5 448.3,298.85 448,298.55 447.75,298.3 L447.75,281.35" test="Drawer"/>
      </g>
      <g id="DrawersCabinetFront">
        <path fill="#000" stroke="none" d="M419.45,467.25 Q419.7,467.5 420,467.8 423.65,471.45 428.75,471.55 L429.05,471.55 Q434.35,471.55 438.1,467.8 441.85,464.05 441.85,458.75 441.85,453.45 438.1,449.7 434.35,445.95 429.05,445.95 L428.75,445.95 Q423.65,446.05 420,449.7 419.7,450 419.45,450.3 L419.45,467.25 M419.45,378.35 L397.85,378.35 397.85,395.95 345.45,394 Q206.7,398.55 81.45,395.95 78.25,410.65 78.85,426.8 80.75,472.25 80.05,501 79.45,528.95 81.45,536.75 143.45,535.9 204.65,538.5 228.85,537.8 244.95,538.65 261.3,539.5 272.65,539.5 277,539.5 281.45,539.45 287.7,540.2 293.9,540.1 305.3,539.2 316.6,537.55 328.3,536.1 340.15,537.45 351.5,538.75 362.75,538.45 374.55,538.1 386.25,537.4 399.95,537.15 419.45,536.75 L419.45,471.55 419.45,467.25 419.45,450.3 Q419.4,448.1 419.4,445.95 418.75,412.05 419.45,378.35Z" test="DrawersCabinetFront"/>
        <path id="Layer2_0_1_STROKES" stroke="#F60" stroke-width="2" stroke-linejoin="round" stroke-linecap="round" fill="none" d="M419.45,467.25 L419.45,471.55 419.45,536.75 Q399.95,537.15 386.25,537.4 374.55,538.1 362.75,538.45 351.5,538.75 340.15,537.45 328.3,536.1 316.6,537.55 305.3,539.2 293.9,540.1 287.7,540.2 281.45,539.45 277,539.5 272.65,539.5 261.3,539.5 244.95,538.65 228.85,537.8 204.65,538.5 143.45,535.9 81.45,536.75 79.45,528.95 80.05,501 80.75,472.25 78.85,426.8 78.25,410.65 81.45,395.95 206.7,398.55 345.45,394 L397.85,395.95 397.85,378.35 419.45,378.35 Q418.75,412.05 419.4,445.95 419.4,448.1 419.45,450.3 419.7,450 420,449.7 423.65,446.05 428.75,445.95 L429.05,445.95 Q434.35,445.95 438.1,449.7 441.85,453.45 441.85,458.75 441.85,464.05 438.1,467.8 434.35,471.55 429.05,471.55 L428.75,471.55 Q423.65,471.45 420,467.8 419.7,467.5 419.45,467.25 L419.45,450.3" test="DrawersCabinetFront"/>
        <path fill="#000" stroke="none" d="M372.3,201.35 Q350.799,200.555 330.1,199.35 309.458,198.197 254.8,198.4 200.18,198.657 174.95,198.95 149.782,199.293 117.85,199 85.907,198.703 67.45,200.95 66.15,211.55 64.65,296.8 63.1,385.35 64.55,402.8 65.1,409.9 61.45,473.85 57.852,537.799 60.6,539.2 63.394,540.602 70.8,540.05 73.575,539.879 76.8,539.45 83,538.65 89.25,537.85 118.6,534.85 148,535.75 161.638,535.84 176.1,536 248.75,536.85 258.35,536.85 267.25,536.85 332.4,539.35 333.15,539.4 333.95,539.4 336,539.5 338.05,539.55 340.95,539.65 343.75,539.7 396.4,541.25 397.6,539.35 399,537.15 399.1,528.45 399.05,516.05 399.05,508 399.05,449.45 399.8,429.1 400.15,419.1 399.05,372.8 398,326.2 398.35,314.55 398,293.006 398.5,247.3 398.052,201.587 395.95,201.85 393.847,202.159 372.3,201.35Z" test="DrawersCabinetFront"/>
        <path id="Layer1_0_1_STROKES" stroke="#F60" stroke-width="2" stroke-linejoin="round" stroke-linecap="round" fill="none" d="M67.45,200.95 Q85.907,198.703 117.85,199 149.782,199.293 174.975,198.975 200.18,198.657 254.825,198.425 309.458,198.197 330.125,199.375 350.799,200.555 372.325,201.35 393.847,202.159 395.95,201.875 398.052,201.587 398.525,247.3 398,293.006 398.35,314.55 398,326.2 399.05,372.8 400.15,419.1 399.8,429.1 399.05,449.45 399.05,508 399.05,516.05 399.1,528.45 399,537.15 397.6,539.35 396.4,541.25 343.75,539.7 340.95,539.65 338.05,539.55 336,539.5 333.95,539.4 333.15,539.4 332.4,539.35 267.25,536.85 258.35,536.85 248.75,536.85 176.1,536 161.638,535.84 148,535.75 118.6,534.85 89.25,537.85 83,538.65 76.8,539.475 73.575,539.879 70.825,540.075 63.394,540.602 60.625,539.2 57.852,537.799 61.475,473.85 65.1,409.9 64.55,402.8 63.1,385.35 64.65,296.8 66.15,211.55 67.45,200.95Z" test="DrawersCabinetFront"/>
      </g>
    </g>
  </g>
</svg>