<?xml version="1.0" encoding="utf-8"?>
<svg id="EdithAnim12" image-rendering="inherit" baseProfile="basic" version="1.1" x="0px" y="0px" width="800" height="600" xmlns="http://www.w3.org/2000/svg" xmlns:xlink="http://www.w3.org/1999/xlink">
  <g id="21_GarbageDrawerf7r1" overflow="visible">
    <g id="GarbageDrawerGroupf7r1">
      <g id="Drawer">
        <path fill="#000" stroke="none" d="M187.4,280.75 Q187.1,281.05 186.85,281.35 L186.85,298.3 Q187.1,298.55 187.4,298.85 191.05,302.5 196.15,302.6 L196.45,302.6 Q201.75,302.6 205.5,298.85 209.25,295.1 209.25,289.8 209.25,284.5 205.5,280.75 201.75,277 196.45,277 L196.15,277 Q191.05,277.1 187.4,280.75 M-151.15,227 Q-154.35,241.7 -153.75,257.85 -151.85,303.3 -152.55,332.05 -153.15,360 -151.15,367.8 -89.15,366.95 -27.95,369.55 -3.75,368.85 12.35,369.7 28.7,370.55 40.05,370.55 44.4,370.55 48.85,370.5 55.1,371.25 61.3,371.15 72.7,370.25 84,368.6 95.7,367.15 107.55,368.5 118.9,369.8 130.15,369.5 141.95,369.15 153.65,368.45 167.35,368.2 186.85,367.8 L186.85,302.6 186.85,298.3 186.85,281.35 Q186.8,279.15 186.8,277 186.15,243.1 186.85,209.4 L165.25,209.4 165.25,227 112.85,225.05 Q-25.9,229.6 -151.15,227Z" test="Drawer"/>
        <path id="Layer3_0_1_STROKES" stroke="#F60" stroke-width="2" stroke-linejoin="round" stroke-linecap="round" fill="none" d="M186.85,298.3 L186.85,302.6 186.85,367.8 Q167.35,368.2 153.65,368.45 141.95,369.15 130.15,369.5 118.9,369.8 107.55,368.5 95.7,367.15 84,368.6 72.7,370.25 61.3,371.15 55.1,371.25 48.85,370.5 44.4,370.55 40.05,370.55 28.7,370.55 12.35,369.7 -3.75,368.85 -27.95,369.55 -89.15,366.95 -151.15,367.8 -153.15,360 -152.55,332.05 -151.85,303.3 -153.75,257.85 -154.35,241.7 -151.15,227 -25.9,229.6 112.85,225.05 L165.25,227 165.25,209.4 186.85,209.4 Q186.15,243.1 186.8,277 186.8,279.15 186.85,281.35 187.1,281.05 187.4,280.75 191.05,277.1 196.15,277 L196.45,277 Q201.75,277 205.5,280.75 209.25,284.5 209.25,289.8 209.25,295.1 205.5,298.85 201.75,302.6 196.45,302.6 L196.15,302.6 Q191.05,302.5 187.4,298.85 187.1,298.55 186.85,298.3 L186.85,281.35" test="Drawer"/>
      </g>
      <g id="DrawersCabinetFront">
        <path fill="#000" stroke="none" d="M186.3,467.25 Q186.55,467.5 186.85,467.8 190.5,471.45 195.6,471.55 L195.9,471.55 Q201.2,471.55 204.95,467.8 208.7,464.05 208.7,458.75 208.7,453.45 204.95,449.7 201.2,445.95 195.9,445.95 L195.6,445.95 Q190.5,446.05 186.85,449.7 186.55,450 186.3,450.3 L186.3,467.25 M186.3,378.35 L164.7,378.35 164.7,395.95 112.3,394 Q-26.45,398.55 -151.7,395.95 -154.9,410.65 -154.3,426.8 -152.4,472.25 -153.1,501 -153.7,528.95 -151.7,536.75 -89.7,535.9 -28.5,538.5 -4.3,537.8 11.8,538.65 28.15,539.5 39.5,539.5 43.85,539.5 48.3,539.45 54.55,540.2 60.75,540.1 72.15,539.2 83.45,537.55 95.15,536.1 107,537.45 118.35,538.75 129.6,538.45 141.4,538.1 153.1,537.4 166.8,537.15 186.3,536.75 L186.3,471.55 186.3,467.25 186.3,450.3 Q186.25,448.1 186.25,445.95 185.6,412.05 186.3,378.35Z" test="DrawersCabinetFront"/>
        <path id="Layer2_0_1_STROKES" stroke="#F60" stroke-width="2" stroke-linejoin="round" stroke-linecap="round" fill="none" d="M186.3,467.25 L186.3,471.55 186.3,536.75 Q166.8,537.15 153.1,537.4 141.4,538.1 129.6,538.45 118.35,538.75 107,537.45 95.15,536.1 83.45,537.55 72.15,539.2 60.75,540.1 54.55,540.2 48.3,539.45 43.85,539.5 39.5,539.5 28.15,539.5 11.8,538.65 -4.3,537.8 -28.5,538.5 -89.7,535.9 -151.7,536.75 -153.7,528.95 -153.1,501 -152.4,472.25 -154.3,426.8 -154.9,410.65 -151.7,395.95 -26.45,398.55 112.3,394 L164.7,395.95 164.7,378.35 186.3,378.35 Q185.6,412.05 186.25,445.95 186.25,448.1 186.3,450.3 186.55,450 186.85,449.7 190.5,446.05 195.6,445.95 L195.9,445.95 Q201.2,445.95 204.95,449.7 208.7,453.45 208.7,458.75 208.7,464.05 204.95,467.8 201.2,471.55 195.9,471.55 L195.6,471.55 Q190.5,471.45 186.85,467.8 186.55,467.5 186.3,467.25 L186.3,450.3" test="DrawersCabinetFront"/>
        <path fill="#000" stroke="none" d="M139.15,201.35 Q117.649,200.555 96.95,199.35 76.308,198.197 21.65,198.4 -32.97,198.657 -58.2,198.95 -83.368,199.293 -115.3,199 -147.243,198.703 -165.7,200.95 -167,211.55 -168.5,296.8 -170.05,385.35 -168.6,402.8 -168.05,409.9 -171.7,473.85 -175.298,537.799 -172.55,539.2 -169.756,540.602 -162.35,540.05 -159.575,539.879 -156.35,539.45 -150.15,538.65 -143.9,537.85 -114.55,534.85 -85.15,535.75 -71.512,535.84 -57.05,536 15.6,536.85 25.2,536.85 34.1,536.85 99.25,539.35 100,539.4 100.8,539.4 102.85,539.5 104.9,539.55 107.8,539.65 110.6,539.7 163.25,541.25 164.45,539.35 165.85,537.15 165.95,528.45 165.9,516.05 165.9,508 165.9,449.45 166.65,429.1 167,419.1 165.9,372.8 164.85,326.2 165.2,314.55 165.849,293.006 165.35,247.3 164.902,201.587 162.8,201.85 160.697,202.159 139.15,201.35Z" test="DrawersCabinetFront"/>
        <path id="Layer1_0_1_STROKES" stroke="#F60" stroke-width="2" stroke-linejoin="round" stroke-linecap="round" fill="none" d="M-165.7,200.95 Q-147.243,198.703 -115.3,199 -83.368,199.293 -58.175,198.975 -32.97,198.657 21.675,198.425 76.308,198.197 96.975,199.375 117.649,200.555 139.175,201.35 160.697,202.159 162.8,201.875 164.902,201.587 165.375,247.3 165.849,293.006 165.2,314.55 164.85,326.2 165.9,372.8 167,419.1 166.65,429.1 165.9,449.45 165.9,508 165.9,516.05 165.95,528.45 165.85,537.15 164.45,539.35 163.25,541.25 110.6,539.7 107.8,539.65 104.9,539.55 102.85,539.5 100.8,539.4 100,539.4 99.25,539.35 34.1,536.85 25.2,536.85 15.6,536.85 -57.05,536 -71.512,535.84 -85.15,535.75 -114.55,534.85 -143.9,537.85 -150.15,538.65 -156.35,539.475 -159.575,539.879 -162.325,540.075 -169.756,540.602 -172.525,539.2 -175.298,537.799 -171.675,473.85 -168.05,409.9 -168.6,402.8 -170.05,385.35 -168.5,296.8 -167,211.55 -165.7,200.95Z" test="DrawersCabinetFront"/>
      </g>
    </g>
  </g>
</svg>