<?xml version="1.0" encoding="utf-8"?>
<svg id="EdithAnim12" image-rendering="inherit" baseProfile="basic" version="1.1" x="0px" y="0px" width="800" height="600" xmlns="http://www.w3.org/2000/svg" xmlns:xlink="http://www.w3.org/1999/xlink">
  <g id="21_GarbageDrawerf73r1" overflow="visible">
    <g id="GarbageDrawerGroupf73r1">
      <g id="Drawer">
        <path fill="#000" stroke="none" d="M621.8,280.75 Q621.5,281.05 621.25,281.35 L621.25,298.3 Q621.5,298.55 621.8,298.85 625.45,302.5 630.55,302.6 L630.85,302.6 Q636.15,302.6 639.9,298.85 643.65,295.1 643.65,289.8 643.65,284.5 639.9,280.75 636.15,277 630.85,277 L630.55,277 Q625.45,277.1 621.8,280.75 M283.25,227 Q280.05,241.7 280.65,257.85 282.55,303.3 281.85,332.05 281.25,360 283.25,367.8 345.25,366.95 406.45,369.55 430.65,368.85 446.75,369.7 463.1,370.55 474.45,370.55 478.8,370.55 483.25,370.5 489.5,371.25 495.7,371.15 507.1,370.25 518.4,368.6 530.1,367.15 541.95,368.5 553.3,369.8 564.55,369.5 576.35,369.15 588.05,368.45 601.75,368.2 621.25,367.8 L621.25,302.6 621.25,298.3 621.25,281.35 Q621.2,279.15 621.2,277 620.55,243.1 621.25,209.4 L599.65,209.4 599.65,227 547.25,225.05 Q408.5,229.6 283.25,227Z" test="Drawer"/>
        <path id="Layer3_0_1_STROKES" stroke="#F60" stroke-width="2" stroke-linejoin="round" stroke-linecap="round" fill="none" d="M621.25,298.3 L621.25,302.6 621.25,367.8 Q601.75,368.2 588.05,368.45 576.35,369.15 564.55,369.5 553.3,369.8 541.95,368.5 530.1,367.15 518.4,368.6 507.1,370.25 495.7,371.15 489.5,371.25 483.25,370.5 478.8,370.55 474.45,370.55 463.1,370.55 446.75,369.7 430.65,368.85 406.45,369.55 345.25,366.95 283.25,367.8 281.25,360 281.85,332.05 282.55,303.3 280.65,257.85 280.05,241.7 283.25,227 408.5,229.6 547.25,225.05 L599.65,227 599.65,209.4 621.25,209.4 Q620.55,243.1 621.2,277 621.2,279.15 621.25,281.35 621.5,281.05 621.8,280.75 625.45,277.1 630.55,277 L630.85,277 Q636.15,277 639.9,280.75 643.65,284.5 643.65,289.8 643.65,295.1 639.9,298.85 636.15,302.6 630.85,302.6 L630.55,302.6 Q625.45,302.5 621.8,298.85 621.5,298.55 621.25,298.3 L621.25,281.35" test="Drawer"/>
      </g>
      <g id="DrawersCabinetFront">
        <path fill="#000" stroke="none" d="M419.45,467.25 Q419.7,467.5 420,467.8 423.65,471.45 428.75,471.55 L429.05,471.55 Q434.35,471.55 438.1,467.8 441.85,464.05 441.85,458.75 441.85,453.45 438.1,449.7 434.35,445.95 429.05,445.95 L428.75,445.95 Q423.65,446.05 420,449.7 419.7,450 419.45,450.3 L419.45,467.25 M419.45,378.35 L397.85,378.35 397.85,395.95 345.45,394 Q206.7,398.55 81.45,395.95 78.25,410.65 78.85,426.8 80.75,472.25 80.05,501 79.45,528.95 81.45,536.75 143.45,535.9 204.65,538.5 228.85,537.8 244.95,538.65 261.3,539.5 272.65,539.5 277,539.5 281.45,539.45 287.7,540.2 293.9,540.1 305.3,539.2 316.6,537.55 328.3,536.1 340.15,537.45 351.5,538.75 362.75,538.45 374.55,538.1 386.25,537.4 399.95,537.15 419.45,536.75 L419.45,471.55 419.45,467.25 419.45,450.3 Q419.4,448.1 419.4,445.95 418.75,412.05 419.45,378.35Z" test="DrawersCabinetFront"/>
        <path id="Layer2_0_1_STROKES" stroke="#F60" stroke-width="2" stroke-linejoin="round" stroke-linecap="round" fill="none" d="M419.45,467.25 L419.45,471.55 419.45,536.75 Q399.95,537.15 386.25,537.4 374.55,538.1 362.75,538.45 351.5,538.75 340.15,537.45 328.3,536.1 316.6,537.55 305.3,539.2 293.9,540.1 287.7,540.2 281.45,539.45 277,539.5 272.65,539.5 261.3,539.5 244.95,538.65 228.85,537.8 204.65,538.5 143.45,535.9 81.45,536.75 79.45,528.95 80.05,501 80.75,472.25 78.85,426.8 78.25,410.65 81.45,395.95 206.7,398.55 345.45,394 L397.85,395.95 397.85,378.35 419.45,378.35 Q418.75,412.05 419.4,445.95 419.4,448.1 419.45,450.3 419.7,450 420,449.7 423.65,446.05 428.75,445.95 L429.05,445.95 Q434.35,445.95 438.1,449.7 441.85,453.45 441.85,458.75 441.85,464.05 438.1,467.8 434.35,471.55 429.05,471.55 L428.75,471.55 Q423.65,471.45 420,467.8 419.7,467.5 419.45,467.25 L419.45,450.3" test="DrawersCabinetFront"/>
        <path fill="#000" stroke="none" d="M372.3,201.35 Q350.799,200.555 330.1,199.35 309.458,198.197 254.8,198.4 200.18,198.657 174.95,198.95 149.782,199.293 117.85,199 85.907,198.703 67.45,200.95 66.15,211.55 64.65,296.8 63.1,385.35 64.55,402.8 65.1,409.9 61.45,473.85 57.852,537.799 60.6,539.2 63.394,540.602 70.8,540.05 73.575,539.879 76.8,539.45 83,538.65 89.25,537.85 118.6,534.85 148,535.75 161.638,535.84 176.1,536 248.75,536.85 258.35,536.85 267.25,536.85 332.4,539.35 333.15,539.4 333.95,539.4 336,539.5 338.05,539.55 340.95,539.65 343.75,539.7 396.4,541.25 397.6,539.35 399,537.15 399.1,528.45 399.05,516.05 399.05,508 399.05,449.45 399.8,429.1 400.15,419.1 399.05,372.8 398,326.2 398.35,314.55 398,293.006 398.5,247.3 398.052,201.587 395.95,201.85 393.847,202.159 372.3,201.35Z" test="DrawersCabinetFront"/>
        <path id="Layer1_0_1_STROKES" stroke="#F60" stroke-width="2" stroke-linejoin="round" stroke-linecap="round" fill="none" d="M67.45,200.95 Q85.907,198.703 117.85,199 149.782,199.293 174.975,198.975 200.18,198.657 254.825,198.425 309.458,198.197 330.125,199.375 350.799,200.555 372.325,201.35 393.847,202.159 395.95,201.875 398.052,201.587 398.525,247.3 398,293.006 398.35,314.55 398,326.2 399.05,372.8 400.15,419.1 399.8,429.1 399.05,449.45 399.05,508 399.05,516.05 399.1,528.45 399,537.15 397.6,539.35 396.4,541.25 343.75,539.7 340.95,539.65 338.05,539.55 336,539.5 333.95,539.4 333.15,539.4 332.4,539.35 267.25,536.85 258.35,536.85 248.75,536.85 176.1,536 161.638,535.84 148,535.75 118.6,534.85 89.25,537.85 83,538.65 76.8,539.475 73.575,539.879 70.825,540.075 63.394,540.602 60.625,539.2 57.852,537.799 61.475,473.85 65.1,409.9 64.55,402.8 63.1,385.35 64.65,296.8 66.15,211.55 67.45,200.95Z" test="DrawersCabinetFront"/>
      </g>
    </g>
  </g>
</svg>