<?xml version="1.0" encoding="utf-8"?>
<svg id="EdithAnim12" image-rendering="inherit" baseProfile="basic" version="1.1" x="0px" y="0px" width="800" height="600" xmlns="http://www.w3.org/2000/svg" xmlns:xlink="http://www.w3.org/1999/xlink">
  <g id="21_GarbageDrawerf9r1" overflow="visible">
    <g id="GarbageDrawerGroupf9r1">
      <g id="Drawer">
        <path fill="#000" stroke="none" d="M236,280.75 Q235.7,281.05 235.45,281.35 L235.45,298.3 Q235.7,298.55 236,298.85 239.65,302.5 244.75,302.6 L245.05,302.6 Q250.35,302.6 254.1,298.85 257.85,295.1 257.85,289.8 257.85,284.5 254.1,280.75 250.35,277 245.05,277 L244.75,277 Q239.65,277.1 236,280.75 M-102.55,227 Q-105.75,241.7 -105.15,257.85 -103.25,303.3 -103.95,332.05 -104.55,360 -102.55,367.8 -40.55,366.95 20.65,369.55 44.85,368.85 60.95,369.7 77.3,370.55 88.65,370.55 93,370.55 97.45,370.5 103.7,371.25 109.9,371.15 121.3,370.25 132.6,368.6 144.3,367.15 156.15,368.5 167.5,369.8 178.75,369.5 190.55,369.15 202.25,368.45 215.95,368.2 235.45,367.8 L235.45,302.6 235.45,298.3 235.45,281.35 Q235.4,279.15 235.4,277 234.75,243.1 235.45,209.4 L213.85,209.4 213.85,227 161.45,225.05 Q22.7,229.6 -102.55,227Z" test="Drawer"/>
        <path id="Layer3_0_1_STROKES" stroke="#F60" stroke-width="2" stroke-linejoin="round" stroke-linecap="round" fill="none" d="M235.45,298.3 L235.45,302.6 235.45,367.8 Q215.95,368.2 202.25,368.45 190.55,369.15 178.75,369.5 167.5,369.8 156.15,368.5 144.3,367.15 132.6,368.6 121.3,370.25 109.9,371.15 103.7,371.25 97.45,370.5 93,370.55 88.65,370.55 77.3,370.55 60.95,369.7 44.85,368.85 20.65,369.55 -40.55,366.95 -102.55,367.8 -104.55,360 -103.95,332.05 -103.25,303.3 -105.15,257.85 -105.75,241.7 -102.55,227 22.7,229.6 161.45,225.05 L213.85,227 213.85,209.4 235.45,209.4 Q234.75,243.1 235.4,277 235.4,279.15 235.45,281.35 235.7,281.05 236,280.75 239.65,277.1 244.75,277 L245.05,277 Q250.35,277 254.1,280.75 257.85,284.5 257.85,289.8 257.85,295.1 254.1,298.85 250.35,302.6 245.05,302.6 L244.75,302.6 Q239.65,302.5 236,298.85 235.7,298.55 235.45,298.3 L235.45,281.35" test="Drawer"/>
      </g>
      <g id="DrawersCabinetFront">
        <path fill="#000" stroke="none" d="M234.9,467.25 Q235.15,467.5 235.45,467.8 239.1,471.45 244.2,471.55 L244.5,471.55 Q249.8,471.55 253.55,467.8 257.3,464.05 257.3,458.75 257.3,453.45 253.55,449.7 249.8,445.95 244.5,445.95 L244.2,445.95 Q239.1,446.05 235.45,449.7 235.15,450 234.9,450.3 L234.9,467.25 M234.9,378.35 L213.3,378.35 213.3,395.95 160.9,394 Q22.15,398.55 -103.1,395.95 -106.3,410.65 -105.7,426.8 -103.8,472.25 -104.5,501 -105.1,528.95 -103.1,536.75 -41.1,535.9 20.1,538.5 44.3,537.8 60.4,538.65 76.75,539.5 88.1,539.5 92.45,539.5 96.9,539.45 103.15,540.2 109.35,540.1 120.75,539.2 132.05,537.55 143.75,536.1 155.6,537.45 166.95,538.75 178.2,538.45 190,538.1 201.7,537.4 215.4,537.15 234.9,536.75 L234.9,471.55 234.9,467.25 234.9,450.3 Q234.85,448.1 234.85,445.95 234.2,412.05 234.9,378.35Z" test="DrawersCabinetFront"/>
        <path id="Layer2_0_1_STROKES" stroke="#F60" stroke-width="2" stroke-linejoin="round" stroke-linecap="round" fill="none" d="M234.9,467.25 L234.9,471.55 234.9,536.75 Q215.4,537.15 201.7,537.4 190,538.1 178.2,538.45 166.95,538.75 155.6,537.45 143.75,536.1 132.05,537.55 120.75,539.2 109.35,540.1 103.15,540.2 96.9,539.45 92.45,539.5 88.1,539.5 76.75,539.5 60.4,538.65 44.3,537.8 20.1,538.5 -41.1,535.9 -103.1,536.75 -105.1,528.95 -104.5,501 -103.8,472.25 -105.7,426.8 -106.3,410.65 -103.1,395.95 22.15,398.55 160.9,394 L213.3,395.95 213.3,378.35 234.9,378.35 Q234.2,412.05 234.85,445.95 234.85,448.1 234.9,450.3 235.15,450 235.45,449.7 239.1,446.05 244.2,445.95 L244.5,445.95 Q249.8,445.95 253.55,449.7 257.3,453.45 257.3,458.75 257.3,464.05 253.55,467.8 249.8,471.55 244.5,471.55 L244.2,471.55 Q239.1,471.45 235.45,467.8 235.15,467.5 234.9,467.25 L234.9,450.3" test="DrawersCabinetFront"/>
        <path fill="#000" stroke="none" d="M187.75,201.35 Q166.249,200.555 145.55,199.35 124.908,198.197 70.25,198.4 15.63,198.657 -9.6,198.95 -34.768,199.293 -66.7,199 -98.643,198.703 -117.1,200.95 -118.4,211.55 -119.9,296.8 -121.45,385.35 -120,402.8 -119.45,409.9 -123.1,473.85 -126.698,537.799 -123.95,539.2 -121.156,540.602 -113.75,540.05 -110.975,539.879 -107.75,539.45 -101.55,538.65 -95.3,537.85 -65.95,534.85 -36.55,535.75 -22.912,535.84 -8.45,536 64.2,536.85 73.8,536.85 82.7,536.85 147.85,539.35 148.6,539.4 149.4,539.4 151.45,539.5 153.5,539.55 156.4,539.65 159.2,539.7 211.85,541.25 213.05,539.35 214.45,537.15 214.55,528.45 214.5,516.05 214.5,508 214.5,449.45 215.25,429.1 215.6,419.1 214.5,372.8 213.45,326.2 213.8,314.55 214.449,293.006 213.95,247.3 213.502,201.587 211.4,201.85 209.297,202.159 187.75,201.35Z" test="DrawersCabinetFront"/>
        <path id="Layer1_0_1_STROKES" stroke="#F60" stroke-width="2" stroke-linejoin="round" stroke-linecap="round" fill="none" d="M-117.1,200.95 Q-98.643,198.703 -66.7,199 -34.768,199.293 -9.575,198.975 15.63,198.657 70.275,198.425 124.908,198.197 145.575,199.375 166.249,200.555 187.775,201.35 209.297,202.159 211.4,201.875 213.502,201.587 213.975,247.3 214.449,293.006 213.8,314.55 213.45,326.2 214.5,372.8 215.6,419.1 215.25,429.1 214.5,449.45 214.5,508 214.5,516.05 214.55,528.45 214.45,537.15 213.05,539.35 211.85,541.25 159.2,539.7 156.4,539.65 153.5,539.55 151.45,539.5 149.4,539.4 148.6,539.4 147.85,539.35 82.7,536.85 73.8,536.85 64.2,536.85 -8.45,536 -22.912,535.84 -36.55,535.75 -65.95,534.85 -95.3,537.85 -101.55,538.65 -107.75,539.475 -110.975,539.879 -113.725,540.075 -121.156,540.602 -123.925,539.2 -126.698,537.799 -123.075,473.85 -119.45,409.9 -120,402.8 -121.45,385.35 -119.9,296.8 -118.4,211.55 -117.1,200.95Z" test="DrawersCabinetFront"/>
      </g>
    </g>
  </g>
</svg>