<?xml version="1.0" encoding="utf-8"?>
<svg id="EdithAnim07" image-rendering="inherit" baseProfile="basic" version="1.1" x="0px" y="0px" width="800" height="600" xmlns="http://www.w3.org/2000/svg" xmlns:xlink="http://www.w3.org/1999/xlink">
  <defs>
    <g id="LinePerspective" overflow="visible">
      <path id="Layer4_0_1_STROKES" stroke="#FFF" stroke-width="2" stroke-linejoin="round" stroke-linecap="round" fill="none" d="M-59.65 54.85L59.7 -54.85" test="LinePerspective"/>
    </g>
  </defs>
  <g id="Need-a-mallf31r1" overflow="visible">
    <g id="MallBackAndSide">
      <g id="MallBack">
        <path id="Layer5_0_1_STROKES" stroke="#FFF" stroke-width="2" stroke-linejoin="round" stroke-linecap="round" fill="none" d="M155.5,182.45 Q161.35,182.15 320.1,182.8 477.1,183.5 479.55,183.15" test="MallBack"/>
      </g>
      <g id="Mall-Back-right">
        <path id="Layer6_0_1_STROKES" stroke="#FFF" stroke-width="2" stroke-linejoin="round" stroke-linecap="round" fill="none" d="M478.9,183.15 L483.05,472.55" test="Mall Back right"/>
      </g>
    </g>
    <use xlink:href="#LinePerspective" transform="matrix(.474 0 0 .666 457.2 509.05)"/>
    <use xlink:href="#LinePerspective" transform="matrix(.474 0 0 .418 449.8 205.45)"/>
    <use xlink:href="#LinePerspective" transform="matrix(.8 0 0 .418 105.6 205.45)"/>
    <g id="Mall-Front">
      <path id="Layer1_0_1_STROKES" stroke="#FFF" stroke-width="2" stroke-linejoin="round" stroke-linecap="round" fill="none" d="M61.15,228.35 Q81.6,226.2 107.1,223.9 158.15,219.3 183.45,218.8 211.5,218.25 274.4,217.7 332,217.2 355.85,217.2 374.75,217.2 399.3,219.8 421.35,222.05 424.2,223.55 426.3,224.65 427.25,271.7 428.1,314.55 427.35,334.75 426.95,345.65 428.15,389.3 429.35,432.65 428.95,442 428.15,461.1 428.15,515.9 428.15,523.45 428.2,535.05 428.05,543.2 426.55,545.3 425.2,547.05 366.95,545.6 363.85,545.55 360.6,545.45 358.35,545.4 356.1,545.35 355.2,545.35 354.35,545.3 282.3,542.95 272.45,542.95 261.8,542.95 181.4,542.15 151.2,541.85 131.45,541.65 98.6,541.35 94.5,541.35 87.7,541.35 75.8,543.8 66.45,545.7 63.55,544.5 60.3,543.1 59.55,489 58.55,424.05 57.95,417.4 56.35,401.05 58.05,318.1 59.7,238.25 61.15,228.35Z" test="Mall Front"/>
      <path id="Layer1_0_2_STROKES" stroke="#F0F" stroke-width="2" stroke-linejoin="round" stroke-linecap="round" fill="none" d="M314.9,284.05 Q317.1,282.05 319.2,279.95 320.75,278.55 322,276.9 324.35,274.1 326.25,270.95 327.9,268.25 329.05,265.35 330.55,261.8 329.6,258 329.5,257.35 329.3,256.8 328.4,256.85 327.5,256.95 326.75,257.2 326.05,257.55 324.55,258.7 323.35,260.15 321.9,262 320.8,264.2 319.4,266.95 318.35,269.9 315.9,276.75 314.9,284.05 314.6,287.2 314.75,290.2 314.8,291.65 315.25,292.9 315.95,295 317.7,296.75 318.4,297.5 319.4,298 322.65,299.7 326.05,297.8 329.05,296.05 331.45,293.5 331.75,293.25 332,292.9 333.9,290.85 335.6,288.5 335.95,281.8 338.2,275.45 339.45,272 341.1,268.75 342.25,266.5 343.85,264.6 345.25,262.95 346.95,261.6 349.3,259.7 352.25,259.5 352.05,260.8 351.75,262 351.4,263.7 350.95,265.35 349.9,268.75 348.05,271.65 346,274.75 343.9,277.6 342.1,280.1 340.25,282.55 338,285.6 335.6,288.5 335.4,290.7 335.65,292.9 335.85,294.4 336.3,295.8 337.35,299.5 341.15,300.5 343,301 344.95,301.25 348.2,301.6 350.95,299.65 352.9,298.35 354.85,297.05 355.9,296.5 356.6,295.7 357.85,294.35 359.1,292.9 359.55,292.35 360,291.8 M241.3,299.95 Q242.05,296.8 242.8,293.7 242.9,293.3 243,292.9 243.8,289.55 244.6,286.15 246.3,278.8 249.95,272.25 253.55,265.65 258.85,260.25 262.75,256.3 267.65,254 267.95,261.45 265.6,268.45 264,273.1 262.2,277.9 263.3,275.35 264.6,272.8 266,269.8 268.1,266.65 269.6,264.3 271.55,262.5 271.7,262.3 271.9,262.15 273.3,260.95 274.8,259.65 277.55,257.35 280.2,255.4 282.5,253.55 285.55,253.65 285.5,254.9 285.25,256.1 285.2,257.05 284.9,257.95 284.05,260.85 283.2,263.3 281.75,267.65 280.25,271.65 277.7,279.05 275.1,286.4 274.05,289.55 273.3,292.9 273.1,293.9 272.9,294.85 272.4,297.3 272.3,299.95 273.9,298.2 275.35,296.35 276.8,294.65 278.1,292.9 278.55,292.3 278.95,291.7 280.8,289.15 282.55,286.55 284.7,283.35 287.15,280.25 289.65,277.05 292.85,274.55 295,273.1 297.25,272.25 297.95,272.05 301.65,270.8 M260.5,282.35 L262.2,277.9 M292.85,274.55 Q290.5,276.7 289.05,279.65 288,281.7 286.9,283.75 285.4,286.7 284.6,289.8 284.35,290.85 284.15,291.95 284.1,292.4 284.1,292.9 284.1,293.1 284.1,293.3 284.65,294.4 285.8,294.8 287,295.2 288.2,294.65 289.35,294.1 290.2,293.15 290.3,293.05 290.45,292.9 292.35,291 293.95,288.9 296.95,285.1 299.7,280.9 299.95,280.25 300.1,279.7 301.15,276.4 302.2,273 L302.2,272.85 Q302.5,271.85 302.45,270.8 M299.7,280.9 Q301.3,278.55 301.65,276.2 301.95,274.6 302.2,273 M299.7,280.9 Q298.65,284.25 298.2,287.85 298,289.2 298.45,290.55 299,292.3 300.55,292.9 300.95,293.05 301.35,293.15 301.6,293.05 301.8,292.9 305.35,291.15 308.45,289 311.9,286.55 314.9,284.05 M202.95,322.4 Q205.7,322.7 208.2,322.55 211.5,322.4 214.75,322.35 216.7,322.1 218.65,322 220.8,321.85 223,321.7 226.55,321.35 230.1,321.05 232.65,320.75 235.3,320.55 238.1,320.2 240.9,319.9 243.9,319.65 246.9,319.4 250.1,319.15 253.25,318.95 256.65,318.75 260,318.55 263.6,318.4 267.15,318.2 270.95,318.05 274.75,318 276.6,317.95 278.6,317.9 280.6,317.9 282.6,317.9 284.65,317.85 286.75,317.75 288.85,317.75 290.9,317.75 294.15,317.75 297.5,317.75 300.5,317.75 303.45,317.9 306.45,317.9 309.45,317.9 330.65,318 351.75,318 M286.3,540.15 L290.65,400.7 361,400.7 357,542.55 M205.65,540.55 L210.05,402.7 266.05,402.7 263.3,538.5 M120.15,303.7 Q120.95,300.4 121.75,297.15 122.7,293.15 123.55,289.2 125.4,281.55 129.2,274.7 132.95,267.8 138.5,262.15 142.65,258 147.7,255.6 148.05,263.35 145.55,270.7 143.9,275.6 142,280.6 143.2,277.95 144.5,275.3 146,272.1 148.2,268.85 149.75,266.35 151.8,264.45 151.95,264.3 152.15,264.15 153.65,262.85 155.2,261.55 158.05,259.1 160.8,257.05 163.25,255.1 166.4,255.25 166.35,256.55 166.15,257.8 166.05,258.8 165.75,259.75 164.85,262.75 164,265.35 162.45,269.9 160.9,274.1 158.2,281.8 155.5,289.5 154.15,293.65 153.2,298.3 152.9,299.9 152.7,301.55 155.4,300.9 157.55,300.45 160.1,299.65 162.45,298.45 164.8,297.3 167.1,295.95 166.15,288.35 168.75,283.75 171.3,279.1 172.85,277.3 174.4,275.45 175.55,274.95 175.85,274.75 176.2,274.75 179.4,276.55 178.85,280.2 178.2,283.85 176.2,286.9 174.4,289.85 172,291.85 169.55,293.9 167.1,295.95 167.1,298.15 167.95,300.25 168.75,302.15 170.6,302.75 172,303.1 173.4,302.25 176.8,300.5 179,297.45 179.3,297.1 179.5,296.7 180.8,294.85 182,292.9 182.2,292.5 182.5,292.05 183.35,290.55 184.35,289.05 L184.4,289 Q185.7,285.05 188.25,281.75 190.95,278.4 194.8,276.1 195.9,275.6 200.1,275.3 M184.35,289.05 Q183.75,291 183.45,292.9 183.25,294.05 183.2,295.15 183.05,297.3 184.6,298.95 185.35,299.8 186.3,300.5 187.65,301.5 189.1,300.85 190.35,300.45 191.3,299.45 192.6,298.15 193.45,296.5 194.4,294.75 195.2,292.9 195.35,292.45 195.55,292 196.6,289.15 197.45,286.25 198.45,282.9 199.55,279.6 200.05,278 200.75,276.2 200.8,276.05 200.9,275.9 200.8,277.1 200.55,278 199.15,282.25 198.4,286.35 197.85,289.65 197.75,292.9 197.7,294.4 197.8,295.85 198.9,294.4 200,292.9 200.35,292.4 200.75,291.95 202.75,289.05 204.9,286.55 206.2,285.05 207.6,283.75 210.25,281.4 213.5,279.6 216.05,276.55 219.8,275.6 219.9,275.65 221.5,276.35 M213.5,279.6 Q211.25,282.1 209.6,284.65 207.95,287.15 206.6,290.05 206,291.5 205.65,292.9 205.6,293.05 205.55,293.25 204.15,300.5 211,299.45 212.7,299.2 214.3,298.1 215.35,297.25 216.4,296.45 217.4,295.65 218,294.6 218.5,293.8 218.9,292.9 219,292.65 219.15,292.3 220.4,288.9 221.15,285.6 L221.35,284.4 Q221.65,281.75 221.95,278.9 222,278.05 222.3,277.3 222.45,276.9 222.7,276.7 L222.7,276.8 221.35,284.4 M117.85,339.3 Q120.25,337.15 122.8,335.65 124.95,334.35 127.25,333.3 129.9,331.85 132.7,330.8 135.6,329.5 138.55,328.4 141.2,327.5 143.85,326.7 147.15,325.7 150.45,325.1 152.15,324.9 153.95,324.7 M197.8,295.85 Q197.8,298 197.75,300.15 197.55,303.8 197.25,307.5 197.05,309.3 196.6,311.25 195.85,314.55 194.9,317.9 194.15,320.55 193.3,323.15 192.25,326.8 190.8,330.15 189.95,332.15 189,334.1 187.35,337.45 185.6,340.8 184.95,342.05 184.15,343.2 183.2,344.45 182.15,345.6 179.55,348.15 176.35,349.65 174,350.6 171.55,351.2 168.75,351.9 165.95,352.3 163.05,352.25 160.25,351.9 157.65,351.2 155.4,349.85 153.15,348.6 151.2,346.95 148.65,344.75 149.3,341.45 149.95,338.8 151.85,336.65 153.35,334.95 154.9,333.15 156.1,331.8 157.3,330.5 158.4,329.35 159.5,328.45 161.9,326.55 164.1,324.9 166.85,323.05 169.55,321.05 171.2,319.9 172.85,318.75 175.9,316.6 178.95,314.45 179.25,314.25 179.5,314.1 181.9,312.3 184.2,310.4 186.45,308.65 188.6,306.75 191.1,304.5 193.4,301.65 195.75,298.85 197.8,295.85Z M221.15,285.6 Q220.55,289 220.65,292.55 220.65,292.75 220.7,292.9 220.8,295.5 222.15,297.65 223.3,298 224.4,297.85 227.45,297 228,293.95 228.1,293.45 228,292.95 M177,323.9 L186,323.4 M123.5,537.3 L123.5,401.9 184.65,403.6 184.65,535.1" test="Mall Front"/>
      <g test="Mall Front">
        <path id="Layer2_0_1_STROKES" stroke="#FFF" stroke-width="1.482" stroke-linejoin="round" stroke-linecap="round" fill="none" d="M102.093,385.407 L98.83,385.407 99.288,379.021 386.74,379.324 379.928,385.407"/>
      </g>
      <g test="Mall Front">
        <path id="Layer3_0_1_STROKES" stroke="#FFF" stroke-width="1.482" stroke-linejoin="round" stroke-linecap="round" fill="none" d="M97.914,385.272 L380.844,385.306"/>
      </g>
    </g>
  </g>
</svg>