<?xml version="1.0" encoding="utf-8"?>
<svg id="EdithAnim07" image-rendering="inherit" baseProfile="basic" version="1.1" x="0px" y="0px" width="800" height="600" xmlns="http://www.w3.org/2000/svg" xmlns:xlink="http://www.w3.org/1999/xlink">
  <defs>
    <g id="LinePerspective" overflow="visible">
      <path id="Layer4_0_1_STROKES" stroke="#FFF" stroke-width="2" stroke-linejoin="round" stroke-linecap="round" fill="none" d="M-59.65 54.85L59.7 -54.85" test="LinePerspective"/>
    </g>
  </defs>
  <g id="Need-a-mallf32r1" overflow="visible">
    <g id="MallBackAndSide">
      <g id="MallBack">
        <path id="Layer5_0_1_STROKES" stroke="#FFF" stroke-width="2" stroke-linejoin="round" stroke-linecap="round" fill="none" d="M152.75,182.45 Q158.6,182.15 317.35,182.8 474.35,183.5 476.8,183.15" test="MallBack"/>
      </g>
      <g id="Mall-Back-right">
        <path id="Layer6_0_1_STROKES" stroke="#FFF" stroke-width="2" stroke-linejoin="round" stroke-linecap="round" fill="none" d="M476.15,183.15 L480.3,472.55" test="Mall Back right"/>
      </g>
    </g>
    <use xlink:href="#LinePerspective" transform="matrix(.478 0 0 .666 454.2 509.1)"/>
    <use xlink:href="#LinePerspective" transform="matrix(.478 0 0 .418 446.8 205.45)"/>
    <use xlink:href="#LinePerspective" transform="matrix(.804 0 0 .418 102.65 205.45)"/>
    <g id="Mall-Front">
      <path id="Layer1_0_1_STROKES" stroke="#FFF" stroke-width="2" stroke-linejoin="round" stroke-linecap="round" fill="none" d="M57.85,228.35 Q78.3,226.2 103.8,223.9 154.85,219.3 180.15,218.8 208.2,218.25 271.1,217.7 328.7,217.2 352.55,217.2 371.45,217.2 396,219.8 418.05,222.05 420.9,223.55 423,224.65 423.95,271.7 424.8,314.55 424.05,334.75 423.65,345.65 424.85,389.3 426.05,432.65 425.65,442 424.85,461.1 424.85,515.9 424.85,523.45 424.9,535.05 424.75,543.2 423.25,545.3 421.9,547.05 363.65,545.6 360.55,545.55 357.3,545.45 355.05,545.4 352.8,545.35 351.9,545.35 351.05,545.3 279,542.95 269.15,542.95 258.5,542.95 178.1,542.15 147.9,541.85 128.15,541.65 95.3,541.35 91.2,541.35 84.4,541.35 72.5,543.8 63.15,545.7 60.25,544.5 57,543.1 56.25,489 55.25,424.05 54.65,417.4 53.05,401.05 54.75,318.1 56.4,238.25 57.85,228.35Z" test="Mall Front"/>
      <path id="Layer1_0_2_STROKES" stroke="#F0F" stroke-width="2" stroke-linejoin="round" stroke-linecap="round" fill="none" d="M311.6,284.05 Q313.8,282.05 315.9,279.95 317.45,278.55 318.7,276.9 321.05,274.1 322.95,270.95 324.6,268.25 325.75,265.35 327.25,261.8 326.3,258 326.2,257.35 326,256.8 325.1,256.85 324.2,256.95 323.45,257.2 322.75,257.55 321.25,258.7 320.05,260.15 318.6,262 317.5,264.2 316.1,266.95 315.05,269.9 312.6,276.75 311.6,284.05 311.3,287.2 311.45,290.2 311.5,291.65 311.95,292.9 312.65,295 314.4,296.75 315.1,297.5 316.1,298 319.35,299.7 322.75,297.8 325.75,296.05 328.15,293.5 328.45,293.25 328.7,292.9 330.6,290.85 332.3,288.5 332.65,281.8 334.9,275.45 336.15,272 337.8,268.75 338.95,266.5 340.55,264.6 341.95,262.95 343.65,261.6 346,259.7 348.95,259.5 348.75,260.8 348.45,262 348.1,263.7 347.65,265.35 346.6,268.75 344.75,271.65 342.7,274.75 340.6,277.6 338.8,280.1 336.95,282.55 334.7,285.6 332.3,288.5 332.1,290.7 332.35,292.9 332.55,294.4 333,295.8 334.05,299.5 337.85,300.5 339.7,301 341.65,301.25 344.9,301.6 347.65,299.65 349.6,298.35 351.55,297.05 352.6,296.5 353.3,295.7 354.55,294.35 355.8,292.9 356.25,292.35 356.7,291.8 M238,299.95 Q238.75,296.8 239.5,293.7 239.6,293.3 239.7,292.9 240.5,289.55 241.3,286.15 243,278.8 246.65,272.25 250.25,265.65 255.55,260.25 259.45,256.3 264.35,254 264.65,261.45 262.3,268.45 260.7,273.1 258.9,277.9 260,275.35 261.3,272.8 262.7,269.8 264.8,266.65 266.3,264.3 268.25,262.5 268.4,262.3 268.6,262.15 270,260.95 271.5,259.65 274.25,257.35 276.9,255.4 279.2,253.55 282.25,253.65 282.2,254.9 281.95,256.1 281.9,257.05 281.6,257.95 280.75,260.85 279.9,263.3 278.45,267.65 276.95,271.65 274.4,279.05 271.8,286.4 270.75,289.55 270,292.9 269.8,293.9 269.6,294.85 269.1,297.3 269,299.95 270.6,298.2 272.05,296.35 273.5,294.65 274.8,292.9 275.25,292.3 275.65,291.7 277.5,289.15 279.25,286.55 281.4,283.35 283.85,280.25 286.35,277.05 289.55,274.55 291.7,273.1 293.95,272.25 294.65,272.05 298.35,270.8 M257.2,282.35 L258.9,277.9 M289.55,274.55 Q287.2,276.7 285.75,279.65 284.7,281.7 283.6,283.75 282.1,286.7 281.3,289.8 281.05,290.85 280.85,291.95 280.8,292.4 280.8,292.9 280.8,293.1 280.8,293.3 281.35,294.4 282.5,294.8 283.7,295.2 284.9,294.65 286.05,294.1 286.9,293.15 287,293.05 287.15,292.9 289.05,291 290.65,288.9 293.65,285.1 296.4,280.9 296.65,280.25 296.8,279.7 297.85,276.4 298.9,273 L298.9,272.85 Q299.2,271.85 299.15,270.8 M296.4,280.9 Q298,278.55 298.35,276.2 298.65,274.6 298.9,273 M296.4,280.9 Q295.35,284.25 294.9,287.85 294.7,289.2 295.15,290.55 295.7,292.3 297.25,292.9 297.65,293.05 298.05,293.15 298.3,293.05 298.5,292.9 302.05,291.15 305.15,289 308.6,286.55 311.6,284.05 M199.65,322.4 Q202.4,322.7 204.9,322.55 208.2,322.4 211.45,322.35 213.4,322.1 215.35,322 217.5,321.85 219.7,321.7 223.25,321.35 226.8,321.05 229.35,320.75 232,320.55 234.8,320.2 237.6,319.9 240.6,319.65 243.6,319.4 246.8,319.15 249.95,318.95 253.35,318.75 256.7,318.55 260.3,318.4 263.85,318.2 267.65,318.05 271.45,318 273.3,317.95 275.3,317.9 277.3,317.9 279.3,317.9 281.35,317.85 283.45,317.75 285.55,317.75 287.6,317.75 290.85,317.75 294.2,317.75 297.2,317.75 300.15,317.9 303.15,317.9 306.15,317.9 327.35,318 348.45,318 M283,540.15 L287.35,400.7 357.7,400.7 353.7,542.55 M202.35,540.55 L206.75,402.7 262.75,402.7 260,538.5 M116.85,303.7 Q117.65,300.4 118.45,297.15 119.4,293.15 120.25,289.2 122.1,281.55 125.9,274.7 129.65,267.8 135.2,262.15 139.35,258 144.4,255.6 144.75,263.35 142.25,270.7 140.6,275.6 138.7,280.6 139.9,277.95 141.2,275.3 142.7,272.1 144.9,268.85 146.45,266.35 148.5,264.45 148.65,264.3 148.85,264.15 150.35,262.85 151.9,261.55 154.75,259.1 157.5,257.05 159.95,255.1 163.1,255.25 163.05,256.55 162.85,257.8 162.75,258.8 162.45,259.75 161.55,262.75 160.7,265.35 159.15,269.9 157.6,274.1 154.9,281.8 152.2,289.5 150.85,293.65 149.9,298.3 149.6,299.9 149.4,301.55 152.1,300.9 154.25,300.45 156.8,299.65 159.15,298.45 161.5,297.3 163.8,295.95 162.85,288.35 165.45,283.75 168,279.1 169.55,277.3 171.1,275.45 172.25,274.95 172.55,274.75 172.9,274.75 176.1,276.55 175.55,280.2 174.9,283.85 172.9,286.9 171.1,289.85 168.7,291.85 166.25,293.9 163.8,295.95 163.8,298.15 164.65,300.25 165.45,302.15 167.3,302.75 168.7,303.1 170.1,302.25 173.5,300.5 175.7,297.45 176,297.1 176.2,296.7 177.5,294.85 178.7,292.9 178.9,292.5 179.2,292.05 180.05,290.55 181.05,289.05 L181.1,289 Q182.4,285.05 184.95,281.75 187.65,278.4 191.5,276.1 192.6,275.6 196.8,275.3 M181.05,289.05 Q180.45,291 180.15,292.9 179.95,294.05 179.9,295.15 179.75,297.3 181.3,298.95 182.05,299.8 183,300.5 184.35,301.5 185.8,300.85 187.05,300.45 188,299.45 189.3,298.15 190.15,296.5 191.1,294.75 191.9,292.9 192.05,292.45 192.25,292 193.3,289.15 194.15,286.25 195.15,282.9 196.25,279.6 196.75,278 197.45,276.2 197.5,276.05 197.6,275.9 197.5,277.1 197.25,278 195.85,282.25 195.1,286.35 194.55,289.65 194.45,292.9 194.4,294.4 194.5,295.85 195.6,294.4 196.7,292.9 197.05,292.4 197.45,291.95 199.45,289.05 201.6,286.55 202.9,285.05 204.3,283.75 206.95,281.4 210.2,279.6 212.75,276.55 216.5,275.6 216.6,275.65 218.2,276.35 M210.2,279.6 Q207.95,282.1 206.3,284.65 204.65,287.15 203.3,290.05 202.7,291.5 202.35,292.9 202.3,293.05 202.25,293.25 200.85,300.5 207.7,299.45 209.4,299.2 211,298.1 212.05,297.25 213.1,296.45 214.1,295.65 214.7,294.6 215.2,293.8 215.6,292.9 215.7,292.65 215.85,292.3 217.1,288.9 217.85,285.6 L218.05,284.4 Q218.35,281.75 218.65,278.9 218.7,278.05 219,277.3 219.15,276.9 219.4,276.7 L219.4,276.8 218.05,284.4 M114.55,339.3 Q116.95,337.15 119.5,335.65 121.65,334.35 123.95,333.3 126.6,331.85 129.4,330.8 132.3,329.5 135.25,328.4 137.9,327.5 140.55,326.7 143.85,325.7 147.15,325.1 148.85,324.9 150.65,324.7 M194.5,295.85 Q194.5,298 194.45,300.15 194.25,303.8 193.95,307.5 193.75,309.3 193.3,311.25 192.55,314.55 191.6,317.9 190.85,320.55 190,323.15 188.95,326.8 187.5,330.15 186.65,332.15 185.7,334.1 184.05,337.45 182.3,340.8 181.65,342.05 180.85,343.2 179.9,344.45 178.85,345.6 176.25,348.15 173.05,349.65 170.7,350.6 168.25,351.2 165.45,351.9 162.65,352.3 159.75,352.25 156.95,351.9 154.35,351.2 152.1,349.85 149.85,348.6 147.9,346.95 145.35,344.75 146,341.45 146.65,338.8 148.55,336.65 150.05,334.95 151.6,333.15 152.8,331.8 154,330.5 155.1,329.35 156.2,328.45 158.6,326.55 160.8,324.9 163.55,323.05 166.25,321.05 167.9,319.9 169.55,318.75 172.6,316.6 175.65,314.45 175.95,314.25 176.2,314.1 178.6,312.3 180.9,310.4 183.15,308.65 185.3,306.75 187.8,304.5 190.1,301.65 192.45,298.85 194.5,295.85Z M217.85,285.6 Q217.25,289 217.35,292.55 217.35,292.75 217.4,292.9 217.5,295.5 218.85,297.65 220,298 221.1,297.85 224.15,297 224.7,293.95 224.8,293.45 224.7,292.95 M173.7,323.9 L182.7,323.4 M120.2,537.3 L120.2,401.9 181.35,403.6 181.35,535.1" test="Mall Front"/>
      <g test="Mall Front">
        <path id="Layer2_0_1_STROKES" stroke="#FFF" stroke-width="1.482" stroke-linejoin="round" stroke-linecap="round" fill="none" d="M98.793,385.407 L95.53,385.407 95.988,379.021 383.44,379.324 376.628,385.407"/>
      </g>
      <g test="Mall Front">
        <path id="Layer3_0_1_STROKES" stroke="#FFF" stroke-width="1.482" stroke-linejoin="round" stroke-linecap="round" fill="none" d="M94.614,385.272 L377.544,385.306"/>
      </g>
    </g>
  </g>
</svg>