<?xml version="1.0" encoding="utf-8"?>
<svg id="EdithAnim07" image-rendering="inherit" baseProfile="basic" version="1.1" x="0px" y="0px" width="800" height="600" xmlns="http://www.w3.org/2000/svg" xmlns:xlink="http://www.w3.org/1999/xlink">
  <defs>
    <g id="LinePerspective" overflow="visible">
      <path id="Layer4_0_1_STROKES" stroke="#FFF" stroke-width="2" stroke-linejoin="round" stroke-linecap="round" fill="none" d="M-59.65 54.85L59.7 -54.85" test="LinePerspective"/>
    </g>
  </defs>
  <g id="Need-a-mallf33r1" overflow="visible">
    <g id="MallBackAndSide">
      <g id="MallBack">
        <path id="Layer5_0_1_STROKES" stroke="#FFF" stroke-width="2" stroke-linejoin="round" stroke-linecap="round" fill="none" d="M148.95,182.45 Q154.8,182.15 313.55,182.8 470.55,183.5 473,183.15" test="MallBack"/>
      </g>
      <g id="Mall-Back-right">
        <path id="Layer6_0_1_STROKES" stroke="#FFF" stroke-width="2" stroke-linejoin="round" stroke-linecap="round" fill="none" d="M472.35,183.15 L476.5,472.55" test="Mall Back right"/>
      </g>
    </g>
    <use xlink:href="#LinePerspective" transform="matrix(.485 0 0 .665 450 509.1)"/>
    <use xlink:href="#LinePerspective" transform="matrix(.485 0 0 .417 442.65 205.5)"/>
    <use xlink:href="#LinePerspective" transform="matrix(.811 0 0 .417 98.45 205.5)"/>
    <g id="Mall-Front">
      <path id="Layer1_0_1_STROKES" stroke="#FFF" stroke-width="2" stroke-linejoin="round" stroke-linecap="round" fill="none" d="M53.3,228.35 Q73.75,226.2 99.25,223.9 150.3,219.3 175.6,218.8 203.65,218.25 266.55,217.7 324.15,217.2 348,217.2 366.9,217.2 391.45,219.8 413.5,222.05 416.35,223.55 418.45,224.65 419.4,271.7 420.25,314.55 419.5,334.75 419.1,345.65 420.3,389.3 421.5,432.65 421.1,442 420.3,461.1 420.3,515.9 420.3,523.45 420.35,535.05 420.2,543.2 418.7,545.3 417.35,547.05 359.1,545.6 356,545.55 352.75,545.45 350.5,545.4 348.25,545.35 347.35,545.35 346.5,545.3 274.45,542.95 264.6,542.95 253.95,542.95 173.55,542.15 143.35,541.85 123.6,541.65 90.75,541.35 86.65,541.35 79.85,541.35 67.95,543.8 58.6,545.7 55.7,544.5 52.45,543.1 51.7,489 50.7,424.05 50.1,417.4 48.5,401.05 50.2,318.1 51.85,238.25 53.3,228.35Z" test="Mall Front"/>
      <path id="Layer1_0_2_STROKES" stroke="#F0F" stroke-width="2" stroke-linejoin="round" stroke-linecap="round" fill="none" d="M307.05,284.05 Q309.25,282.05 311.35,279.95 312.9,278.55 314.15,276.9 316.5,274.1 318.4,270.95 320.05,268.25 321.2,265.35 322.7,261.8 321.75,258 321.65,257.35 321.45,256.8 320.55,256.85 319.65,256.95 318.9,257.2 318.2,257.55 316.7,258.7 315.5,260.15 314.05,262 312.95,264.2 311.55,266.95 310.5,269.9 308.05,276.75 307.05,284.05 306.75,287.2 306.9,290.2 306.95,291.65 307.4,292.9 308.1,295 309.85,296.75 310.55,297.5 311.55,298 314.8,299.7 318.2,297.8 321.2,296.05 323.6,293.5 323.9,293.25 324.15,292.9 326.05,290.85 327.75,288.5 328.1,281.8 330.35,275.45 331.6,272 333.25,268.75 334.4,266.5 336,264.6 337.4,262.95 339.1,261.6 341.45,259.7 344.4,259.5 344.2,260.8 343.9,262 343.55,263.7 343.1,265.35 342.05,268.75 340.2,271.65 338.15,274.75 336.05,277.6 334.25,280.1 332.4,282.55 330.15,285.6 327.75,288.5 327.55,290.7 327.8,292.9 328,294.4 328.45,295.8 329.5,299.5 333.3,300.5 335.15,301 337.1,301.25 340.35,301.6 343.1,299.65 345.05,298.35 347,297.05 348.05,296.5 348.75,295.7 350,294.35 351.25,292.9 351.7,292.35 352.15,291.8 M233.45,299.95 Q234.2,296.8 234.95,293.7 235.05,293.3 235.15,292.9 235.95,289.55 236.75,286.15 238.45,278.8 242.1,272.25 245.7,265.65 251,260.25 254.9,256.3 259.8,254 260.1,261.45 257.75,268.45 256.15,273.1 254.35,277.9 255.45,275.35 256.75,272.8 258.15,269.8 260.25,266.65 261.75,264.3 263.7,262.5 263.85,262.3 264.05,262.15 265.45,260.95 266.95,259.65 269.7,257.35 272.35,255.4 274.65,253.55 277.7,253.65 277.65,254.9 277.4,256.1 277.35,257.05 277.05,257.95 276.2,260.85 275.35,263.3 273.9,267.65 272.4,271.65 269.85,279.05 267.25,286.4 266.2,289.55 265.45,292.9 265.25,293.9 265.05,294.85 264.55,297.3 264.45,299.95 266.05,298.2 267.5,296.35 268.95,294.65 270.25,292.9 270.7,292.3 271.1,291.7 272.95,289.15 274.7,286.55 276.85,283.35 279.3,280.25 281.8,277.05 285,274.55 287.15,273.1 289.4,272.25 290.1,272.05 293.8,270.8 M252.65,282.35 L254.35,277.9 M285,274.55 Q282.65,276.7 281.2,279.65 280.15,281.7 279.05,283.75 277.55,286.7 276.75,289.8 276.5,290.85 276.3,291.95 276.25,292.4 276.25,292.9 276.25,293.1 276.25,293.3 276.8,294.4 277.95,294.8 279.15,295.2 280.35,294.65 281.5,294.1 282.35,293.15 282.45,293.05 282.6,292.9 284.5,291 286.1,288.9 289.1,285.1 291.85,280.9 292.1,280.25 292.25,279.7 293.3,276.4 294.35,273 L294.35,272.85 Q294.65,271.85 294.6,270.8 M291.85,280.9 Q293.45,278.55 293.8,276.2 294.1,274.6 294.35,273 M291.85,280.9 Q290.8,284.25 290.35,287.85 290.15,289.2 290.6,290.55 291.15,292.3 292.7,292.9 293.1,293.05 293.5,293.15 293.75,293.05 293.95,292.9 297.5,291.15 300.6,289 304.05,286.55 307.05,284.05 M195.1,322.4 Q197.85,322.7 200.35,322.55 203.65,322.4 206.9,322.35 208.85,322.1 210.8,322 212.95,321.85 215.15,321.7 218.7,321.35 222.25,321.05 224.8,320.75 227.45,320.55 230.25,320.2 233.05,319.9 236.05,319.65 239.05,319.4 242.25,319.15 245.4,318.95 248.8,318.75 252.15,318.55 255.75,318.4 259.3,318.2 263.1,318.05 266.9,318 268.75,317.95 270.75,317.9 272.75,317.9 274.75,317.9 276.8,317.85 278.9,317.75 281,317.75 283.05,317.75 286.3,317.75 289.65,317.75 292.65,317.75 295.6,317.9 298.6,317.9 301.6,317.9 322.8,318 343.9,318 M278.45,540.15 L282.8,400.7 353.15,400.7 349.15,542.55 M197.8,540.55 L202.2,402.7 258.2,402.7 255.45,538.5 M112.3,303.7 Q113.1,300.4 113.9,297.15 114.85,293.15 115.7,289.2 117.55,281.55 121.35,274.7 125.1,267.8 130.65,262.15 134.8,258 139.85,255.6 140.2,263.35 137.7,270.7 136.05,275.6 134.15,280.6 135.35,277.95 136.65,275.3 138.15,272.1 140.35,268.85 141.9,266.35 143.95,264.45 144.1,264.3 144.3,264.15 145.8,262.85 147.35,261.55 150.2,259.1 152.95,257.05 155.4,255.1 158.55,255.25 158.5,256.55 158.3,257.8 158.2,258.8 157.9,259.75 157,262.75 156.15,265.35 154.6,269.9 153.05,274.1 150.35,281.8 147.65,289.5 146.3,293.65 145.35,298.3 145.05,299.9 144.85,301.55 147.55,300.9 149.7,300.45 152.25,299.65 154.6,298.45 156.95,297.3 159.25,295.95 158.3,288.35 160.9,283.75 163.45,279.1 165,277.3 166.55,275.45 167.7,274.95 168,274.75 168.35,274.75 171.55,276.55 171,280.2 170.35,283.85 168.35,286.9 166.55,289.85 164.15,291.85 161.7,293.9 159.25,295.95 159.25,298.15 160.1,300.25 160.9,302.15 162.75,302.75 164.15,303.1 165.55,302.25 168.95,300.5 171.15,297.45 171.45,297.1 171.65,296.7 172.95,294.85 174.15,292.9 174.35,292.5 174.65,292.05 175.5,290.55 176.5,289.05 L176.55,289 Q177.85,285.05 180.4,281.75 183.1,278.4 186.95,276.1 188.05,275.6 192.25,275.3 M176.5,289.05 Q175.9,291 175.6,292.9 175.4,294.05 175.35,295.15 175.2,297.3 176.75,298.95 177.5,299.8 178.45,300.5 179.8,301.5 181.25,300.85 182.5,300.45 183.45,299.45 184.75,298.15 185.6,296.5 186.55,294.75 187.35,292.9 187.5,292.45 187.7,292 188.75,289.15 189.6,286.25 190.6,282.9 191.7,279.6 192.2,278 192.9,276.2 192.95,276.05 193.05,275.9 192.95,277.1 192.7,278 191.3,282.25 190.55,286.35 190,289.65 189.9,292.9 189.85,294.4 189.95,295.85 191.05,294.4 192.15,292.9 192.5,292.4 192.9,291.95 194.9,289.05 197.05,286.55 198.35,285.05 199.75,283.75 202.4,281.4 205.65,279.6 208.2,276.55 211.95,275.6 212.05,275.65 213.65,276.35 M205.65,279.6 Q203.4,282.1 201.75,284.65 200.1,287.15 198.75,290.05 198.15,291.5 197.8,292.9 197.75,293.05 197.7,293.25 196.3,300.5 203.15,299.45 204.85,299.2 206.45,298.1 207.5,297.25 208.55,296.45 209.55,295.65 210.15,294.6 210.65,293.8 211.05,292.9 211.15,292.65 211.3,292.3 212.55,288.9 213.3,285.6 L213.5,284.4 Q213.8,281.75 214.1,278.9 214.15,278.05 214.45,277.3 214.6,276.9 214.85,276.7 L214.85,276.8 213.5,284.4 M110,339.3 Q112.4,337.15 114.95,335.65 117.1,334.35 119.4,333.3 122.05,331.85 124.85,330.8 127.75,329.5 130.7,328.4 133.35,327.5 136,326.7 139.3,325.7 142.6,325.1 144.3,324.9 146.1,324.7 M189.95,295.85 Q189.95,298 189.9,300.15 189.7,303.8 189.4,307.5 189.2,309.3 188.75,311.25 188,314.55 187.05,317.9 186.3,320.55 185.45,323.15 184.4,326.8 182.95,330.15 182.1,332.15 181.15,334.1 179.5,337.45 177.75,340.8 177.1,342.05 176.3,343.2 175.35,344.45 174.3,345.6 171.7,348.15 168.5,349.65 166.15,350.6 163.7,351.2 160.9,351.9 158.1,352.3 155.2,352.25 152.4,351.9 149.8,351.2 147.55,349.85 145.3,348.6 143.35,346.95 140.8,344.75 141.45,341.45 142.1,338.8 144,336.65 145.5,334.95 147.05,333.15 148.25,331.8 149.45,330.5 150.55,329.35 151.65,328.45 154.05,326.55 156.25,324.9 159,323.05 161.7,321.05 163.35,319.9 165,318.75 168.05,316.6 171.1,314.45 171.4,314.25 171.65,314.1 174.05,312.3 176.35,310.4 178.6,308.65 180.75,306.75 183.25,304.5 185.55,301.65 187.9,298.85 189.95,295.85Z M213.3,285.6 Q212.7,289 212.8,292.55 212.8,292.75 212.85,292.9 212.95,295.5 214.3,297.65 215.45,298 216.55,297.85 219.6,297 220.15,293.95 220.25,293.45 220.15,292.95 M169.15,323.9 L178.15,323.4 M115.65,537.3 L115.65,401.9 176.8,403.6 176.8,535.1" test="Mall Front"/>
      <g test="Mall Front">
        <path id="Layer2_0_1_STROKES" stroke="#FFF" stroke-width="1.482" stroke-linejoin="round" stroke-linecap="round" fill="none" d="M94.243,385.407 L90.98,385.407 91.438,379.021 378.89,379.324 372.078,385.407"/>
      </g>
      <g test="Mall Front">
        <path id="Layer3_0_1_STROKES" stroke="#FFF" stroke-width="1.482" stroke-linejoin="round" stroke-linecap="round" fill="none" d="M90.064,385.272 L372.994,385.306"/>
      </g>
    </g>
  </g>
</svg>