<?xml version="1.0" encoding="utf-8"?>
<svg id="EdithAnim07" image-rendering="inherit" baseProfile="basic" version="1.1" x="0px" y="0px" width="800" height="600" xmlns="http://www.w3.org/2000/svg" xmlns:xlink="http://www.w3.org/1999/xlink">
  <defs>
    <g id="LinePerspective" overflow="visible">
      <path id="Layer4_0_1_STROKES" stroke="#FFF" stroke-width="2" stroke-linejoin="round" stroke-linecap="round" fill="none" d="M-59.65 54.85L59.7 -54.85" test="LinePerspective"/>
    </g>
  </defs>
  <g id="Need-a-mallf34r1" overflow="visible">
    <g id="MallBackAndSide">
      <g id="MallBack">
        <path id="Layer5_0_1_STROKES" stroke="#FFF" stroke-width="2" stroke-linejoin="round" stroke-linecap="round" fill="none" d="M144.05,182.45 Q149.9,182.15 308.65,182.8 465.65,183.5 468.1,183.15" test="MallBack"/>
      </g>
      <g id="Mall-Back-right">
        <path id="Layer6_0_1_STROKES" stroke="#FFF" stroke-width="2" stroke-linejoin="round" stroke-linecap="round" fill="none" d="M467.45,183.15 L471.6,472.55" test="Mall Back right"/>
      </g>
    </g>
    <use xlink:href="#LinePerspective" transform="matrix(.493 0 0 .665 444.6 509.15)"/>
    <use xlink:href="#LinePerspective" transform="matrix(.493 0 0 .417 437.2 205.5)"/>
    <use xlink:href="#LinePerspective" transform="matrix(.819 0 0 .417 93.05 205.5)"/>
    <g id="Mall-Front">
      <path id="Layer1_0_1_STROKES" stroke="#FFF" stroke-width="2" stroke-linejoin="round" stroke-linecap="round" fill="none" d="M47.4,228.35 Q67.85,226.2 93.35,223.9 144.4,219.3 169.7,218.8 197.75,218.25 260.65,217.7 318.25,217.2 342.1,217.2 361,217.2 385.55,219.8 407.6,222.05 410.45,223.55 412.55,224.65 413.5,271.7 414.35,314.55 413.6,334.75 413.2,345.65 414.4,389.3 415.6,432.65 415.2,442 414.4,461.1 414.4,515.9 414.4,523.45 414.45,535.05 414.3,543.2 412.8,545.3 411.45,547.05 353.2,545.6 350.1,545.55 346.85,545.45 344.6,545.4 342.35,545.35 341.45,545.35 340.6,545.3 268.55,542.95 258.7,542.95 248.05,542.95 167.65,542.15 137.45,541.85 117.7,541.65 84.85,541.35 80.75,541.35 73.95,541.35 62.05,543.8 52.7,545.7 49.8,544.5 46.55,543.1 45.8,489 44.8,424.05 44.2,417.4 42.6,401.05 44.3,318.1 45.95,238.25 47.4,228.35Z" test="Mall Front"/>
      <path id="Layer1_0_2_STROKES" stroke="#F0F" stroke-width="2" stroke-linejoin="round" stroke-linecap="round" fill="none" d="M301.15,284.05 Q303.35,282.05 305.45,279.95 307,278.55 308.25,276.9 310.6,274.1 312.5,270.95 314.15,268.25 315.3,265.35 316.8,261.8 315.85,258 315.75,257.35 315.55,256.8 314.65,256.85 313.75,256.95 313,257.2 312.3,257.55 310.8,258.7 309.6,260.15 308.15,262 307.05,264.2 305.65,266.95 304.6,269.9 302.15,276.75 301.15,284.05 300.85,287.2 301,290.2 301.05,291.65 301.5,292.9 302.2,295 303.95,296.75 304.65,297.5 305.65,298 308.9,299.7 312.3,297.8 315.3,296.05 317.7,293.5 318,293.25 318.25,292.9 320.15,290.85 321.85,288.5 322.2,281.8 324.45,275.45 325.7,272 327.35,268.75 328.5,266.5 330.1,264.6 331.5,262.95 333.2,261.6 335.55,259.7 338.5,259.5 338.3,260.8 338,262 337.65,263.7 337.2,265.35 336.15,268.75 334.3,271.65 332.25,274.75 330.15,277.6 328.35,280.1 326.5,282.55 324.25,285.6 321.85,288.5 321.65,290.7 321.9,292.9 322.1,294.4 322.55,295.8 323.6,299.5 327.4,300.5 329.25,301 331.2,301.25 334.45,301.6 337.2,299.65 339.15,298.35 341.1,297.05 342.15,296.5 342.85,295.7 344.1,294.35 345.35,292.9 345.8,292.35 346.25,291.8 M227.55,299.95 Q228.3,296.8 229.05,293.7 229.15,293.3 229.25,292.9 230.05,289.55 230.85,286.15 232.55,278.8 236.2,272.25 239.8,265.65 245.1,260.25 249,256.3 253.9,254 254.2,261.45 251.85,268.45 250.25,273.1 248.45,277.9 249.55,275.35 250.85,272.8 252.25,269.8 254.35,266.65 255.85,264.3 257.8,262.5 257.95,262.3 258.15,262.15 259.55,260.95 261.05,259.65 263.8,257.35 266.45,255.4 268.75,253.55 271.8,253.65 271.75,254.9 271.5,256.1 271.45,257.05 271.15,257.95 270.3,260.85 269.45,263.3 268,267.65 266.5,271.65 263.95,279.05 261.35,286.4 260.3,289.55 259.55,292.9 259.35,293.9 259.15,294.85 258.65,297.3 258.55,299.95 260.15,298.2 261.6,296.35 263.05,294.65 264.35,292.9 264.8,292.3 265.2,291.7 267.05,289.15 268.8,286.55 270.95,283.35 273.4,280.25 275.9,277.05 279.1,274.55 281.25,273.1 283.5,272.25 284.2,272.05 287.9,270.8 M246.75,282.35 L248.45,277.9 M279.1,274.55 Q276.75,276.7 275.3,279.65 274.25,281.7 273.15,283.75 271.65,286.7 270.85,289.8 270.6,290.85 270.4,291.95 270.35,292.4 270.35,292.9 270.35,293.1 270.35,293.3 270.9,294.4 272.05,294.8 273.25,295.2 274.45,294.65 275.6,294.1 276.45,293.15 276.55,293.05 276.7,292.9 278.6,291 280.2,288.9 283.2,285.1 285.95,280.9 286.2,280.25 286.35,279.7 287.4,276.4 288.45,273 L288.45,272.85 Q288.75,271.85 288.7,270.8 M285.95,280.9 Q287.55,278.55 287.9,276.2 288.2,274.6 288.45,273 M285.95,280.9 Q284.9,284.25 284.45,287.85 284.25,289.2 284.7,290.55 285.25,292.3 286.8,292.9 287.2,293.05 287.6,293.15 287.85,293.05 288.05,292.9 291.6,291.15 294.7,289 298.15,286.55 301.15,284.05 M189.2,322.4 Q191.95,322.7 194.45,322.55 197.75,322.4 201,322.35 202.95,322.1 204.9,322 207.05,321.85 209.25,321.7 212.8,321.35 216.35,321.05 218.9,320.75 221.55,320.55 224.35,320.2 227.15,319.9 230.15,319.65 233.15,319.4 236.35,319.15 239.5,318.95 242.9,318.75 246.25,318.55 249.85,318.4 253.4,318.2 257.2,318.05 261,318 262.85,317.95 264.85,317.9 266.85,317.9 268.85,317.9 270.9,317.85 273,317.75 275.1,317.75 277.15,317.75 280.4,317.75 283.75,317.75 286.75,317.75 289.7,317.9 292.7,317.9 295.7,317.9 316.9,318 338,318 M272.55,540.15 L276.9,400.7 347.25,400.7 343.25,542.55 M191.9,540.55 L196.3,402.7 252.3,402.7 249.55,538.5 M106.4,303.7 Q107.2,300.4 108,297.15 108.95,293.15 109.8,289.2 111.65,281.55 115.45,274.7 119.2,267.8 124.75,262.15 128.9,258 133.95,255.6 134.3,263.35 131.8,270.7 130.15,275.6 128.25,280.6 129.45,277.95 130.75,275.3 132.25,272.1 134.45,268.85 136,266.35 138.05,264.45 138.2,264.3 138.4,264.15 139.9,262.85 141.45,261.55 144.3,259.1 147.05,257.05 149.5,255.1 152.65,255.25 152.6,256.55 152.4,257.8 152.3,258.8 152,259.75 151.1,262.75 150.25,265.35 148.7,269.9 147.15,274.1 144.45,281.8 141.75,289.5 140.4,293.65 139.45,298.3 139.15,299.9 138.95,301.55 141.65,300.9 143.8,300.45 146.35,299.65 148.7,298.45 151.05,297.3 153.35,295.95 152.4,288.35 155,283.75 157.55,279.1 159.1,277.3 160.65,275.45 161.8,274.95 162.1,274.75 162.45,274.75 165.65,276.55 165.1,280.2 164.45,283.85 162.45,286.9 160.65,289.85 158.25,291.85 155.8,293.9 153.35,295.95 153.35,298.15 154.2,300.25 155,302.15 156.85,302.75 158.25,303.1 159.65,302.25 163.05,300.5 165.25,297.45 165.55,297.1 165.75,296.7 167.05,294.85 168.25,292.9 168.45,292.5 168.75,292.05 169.6,290.55 170.6,289.05 L170.65,289 Q171.95,285.05 174.5,281.75 177.2,278.4 181.05,276.1 182.15,275.6 186.35,275.3 M170.6,289.05 Q170,291 169.7,292.9 169.5,294.05 169.45,295.15 169.3,297.3 170.85,298.95 171.6,299.8 172.55,300.5 173.9,301.5 175.35,300.85 176.6,300.45 177.55,299.45 178.85,298.15 179.7,296.5 180.65,294.75 181.45,292.9 181.6,292.45 181.8,292 182.85,289.15 183.7,286.25 184.7,282.9 185.8,279.6 186.3,278 187,276.2 187.05,276.05 187.15,275.9 187.05,277.1 186.8,278 185.4,282.25 184.65,286.35 184.1,289.65 184,292.9 183.95,294.4 184.05,295.85 185.15,294.4 186.25,292.9 186.6,292.4 187,291.95 189,289.05 191.15,286.55 192.45,285.05 193.85,283.75 196.5,281.4 199.75,279.6 202.3,276.55 206.05,275.6 206.15,275.65 207.75,276.35 M199.75,279.6 Q197.5,282.1 195.85,284.65 194.2,287.15 192.85,290.05 192.25,291.5 191.9,292.9 191.85,293.05 191.8,293.25 190.4,300.5 197.25,299.45 198.95,299.2 200.55,298.1 201.6,297.25 202.65,296.45 203.65,295.65 204.25,294.6 204.75,293.8 205.15,292.9 205.25,292.65 205.4,292.3 206.65,288.9 207.4,285.6 L207.6,284.4 Q207.9,281.75 208.2,278.9 208.25,278.05 208.55,277.3 208.7,276.9 208.95,276.7 L208.95,276.8 207.6,284.4 M104.1,339.3 Q106.5,337.15 109.05,335.65 111.2,334.35 113.5,333.3 116.15,331.85 118.95,330.8 121.85,329.5 124.8,328.4 127.45,327.5 130.1,326.7 133.4,325.7 136.7,325.1 138.4,324.9 140.2,324.7 M184.05,295.85 Q184.05,298 184,300.15 183.8,303.8 183.5,307.5 183.3,309.3 182.85,311.25 182.1,314.55 181.15,317.9 180.4,320.55 179.55,323.15 178.5,326.8 177.05,330.15 176.2,332.15 175.25,334.1 173.6,337.45 171.85,340.8 171.2,342.05 170.4,343.2 169.45,344.45 168.4,345.6 165.8,348.15 162.6,349.65 160.25,350.6 157.8,351.2 155,351.9 152.2,352.3 149.3,352.25 146.5,351.9 143.9,351.2 141.65,349.85 139.4,348.6 137.45,346.95 134.9,344.75 135.55,341.45 136.2,338.8 138.1,336.65 139.6,334.95 141.15,333.15 142.35,331.8 143.55,330.5 144.65,329.35 145.75,328.45 148.15,326.55 150.35,324.9 153.1,323.05 155.8,321.05 157.45,319.9 159.1,318.75 162.15,316.6 165.2,314.45 165.5,314.25 165.75,314.1 168.15,312.3 170.45,310.4 172.7,308.65 174.85,306.75 177.35,304.5 179.65,301.65 182,298.85 184.05,295.85Z M207.4,285.6 Q206.8,289 206.9,292.55 206.9,292.75 206.95,292.9 207.05,295.5 208.4,297.65 209.55,298 210.65,297.85 213.7,297 214.25,293.95 214.35,293.45 214.25,292.95 M163.25,323.9 L172.25,323.4 M109.75,537.3 L109.75,401.9 170.9,403.6 170.9,535.1" test="Mall Front"/>
      <g test="Mall Front">
        <path id="Layer2_0_1_STROKES" stroke="#FFF" stroke-width="1.482" stroke-linejoin="round" stroke-linecap="round" fill="none" d="M88.343,385.407 L85.08,385.407 85.538,379.021 372.99,379.324 366.178,385.407"/>
      </g>
      <g test="Mall Front">
        <path id="Layer3_0_1_STROKES" stroke="#FFF" stroke-width="1.482" stroke-linejoin="round" stroke-linecap="round" fill="none" d="M84.164,385.272 L367.094,385.306"/>
      </g>
    </g>
  </g>
</svg>