<?xml version="1.0" encoding="utf-8"?>
<svg id="EdithAnim07" image-rendering="inherit" baseProfile="basic" version="1.1" x="0px" y="0px" width="800" height="600" xmlns="http://www.w3.org/2000/svg" xmlns:xlink="http://www.w3.org/1999/xlink">
  <defs>
    <g id="LinePerspective" overflow="visible">
      <path id="Layer4_0_1_STROKES" stroke="#FFF" stroke-width="2" stroke-linejoin="round" stroke-linecap="round" fill="none" d="M-59.65 54.85L59.7 -54.85" test="LinePerspective"/>
    </g>
  </defs>
  <g id="Need-a-mallf38r1" overflow="visible">
    <g id="MallBackAndSide">
      <g id="MallBack">
        <path id="Layer5_0_1_STROKES" stroke="#FFF" stroke-width="2" stroke-linejoin="round" stroke-linecap="round" fill="none" d="M113.55,182.45 Q119.4,182.15 278.15,182.8 435.15,183.5 437.6,183.15" test="MallBack"/>
      </g>
      <g id="Mall-Back-right">
        <path id="Layer6_0_1_STROKES" stroke="#FFF" stroke-width="2" stroke-linejoin="round" stroke-linecap="round" fill="none" d="M436.95,183.15 L441.1,472.55" test="Mall Back right"/>
      </g>
    </g>
    <use xlink:href="#LinePerspective" transform="matrix(.542 0 0 .661 410.95 509.35)"/>
    <use xlink:href="#LinePerspective" transform="matrix(.543 0 0 .416 403.6 205.6)"/>
    <use xlink:href="#LinePerspective" transform="matrix(.87 0 0 .416 59.45 205.6)"/>
    <g id="Mall-Front">
      <path id="Layer1_0_1_STROKES" stroke="#FFF" stroke-width="2" stroke-linejoin="round" stroke-linecap="round" fill="none" d="M10.85,228.35 Q31.3,226.2 56.8,223.9 107.85,219.3 133.15,218.8 161.2,218.25 224.1,217.7 281.7,217.2 305.55,217.2 324.45,217.2 349,219.8 371.05,222.05 373.9,223.55 376,224.65 376.95,271.7 377.8,314.55 377.05,334.75 376.65,345.65 377.85,389.3 379.05,432.65 378.65,442 377.85,461.1 377.85,515.9 377.85,523.45 377.9,535.05 377.75,543.2 376.25,545.3 374.9,547.05 316.65,545.6 313.55,545.55 310.3,545.45 308.05,545.4 305.8,545.35 304.9,545.35 304.05,545.3 232,542.95 222.15,542.95 211.5,542.95 131.1,542.15 100.9,541.85 81.15,541.65 48.3,541.35 44.2,541.35 37.4,541.35 25.5,543.8 16.15,545.7 13.25,544.5 10,543.1 9.25,489 8.25,424.05 7.65,417.4 6.05,401.05 7.75,318.1 9.4,238.25 10.85,228.35Z" test="Mall Front"/>
      <path id="Layer1_0_2_STROKES" stroke="#F0F" stroke-width="2" stroke-linejoin="round" stroke-linecap="round" fill="none" d="M264.6,284.05 Q266.8,282.05 268.9,279.95 270.45,278.55 271.7,276.9 274.05,274.1 275.95,270.95 277.6,268.25 278.75,265.35 280.25,261.8 279.3,258 279.2,257.35 279,256.8 278.1,256.85 277.2,256.95 276.45,257.2 275.75,257.55 274.25,258.7 273.05,260.15 271.6,262 270.5,264.2 269.1,266.95 268.05,269.9 265.6,276.75 264.6,284.05 264.3,287.2 264.45,290.2 264.5,291.65 264.95,292.9 265.65,295 267.4,296.75 268.1,297.5 269.1,298 272.35,299.7 275.75,297.8 278.75,296.05 281.15,293.5 281.45,293.25 281.7,292.9 283.6,290.85 285.3,288.5 285.65,281.8 287.9,275.45 289.15,272 290.8,268.75 291.95,266.5 293.55,264.6 294.95,262.95 296.65,261.6 299,259.7 301.95,259.5 301.75,260.8 301.45,262 301.1,263.7 300.65,265.35 299.6,268.75 297.75,271.65 295.7,274.75 293.6,277.6 291.8,280.1 289.95,282.55 287.7,285.6 285.3,288.5 285.1,290.7 285.35,292.9 285.55,294.4 286,295.8 287.05,299.5 290.85,300.5 292.7,301 294.65,301.25 297.9,301.6 300.65,299.65 302.6,298.35 304.55,297.05 305.6,296.5 306.3,295.7 307.55,294.35 308.8,292.9 309.25,292.35 309.7,291.8 M191,299.95 Q191.75,296.8 192.5,293.7 192.6,293.3 192.7,292.9 193.5,289.55 194.3,286.15 196,278.8 199.65,272.25 203.25,265.65 208.55,260.25 212.45,256.3 217.35,254 217.65,261.45 215.3,268.45 213.7,273.1 211.9,277.9 213,275.35 214.3,272.8 215.7,269.8 217.8,266.65 219.3,264.3 221.25,262.5 221.4,262.3 221.6,262.15 223,260.95 224.5,259.65 227.25,257.35 229.9,255.4 232.2,253.55 235.25,253.65 235.2,254.9 234.95,256.1 234.9,257.05 234.6,257.95 233.75,260.85 232.9,263.3 231.45,267.65 229.95,271.65 227.4,279.05 224.8,286.4 223.75,289.55 223,292.9 222.8,293.9 222.6,294.85 222.1,297.3 222,299.95 223.6,298.2 225.05,296.35 226.5,294.65 227.8,292.9 228.25,292.3 228.65,291.7 230.5,289.15 232.25,286.55 234.4,283.35 236.85,280.25 239.35,277.05 242.55,274.55 244.7,273.1 246.95,272.25 247.65,272.05 251.35,270.8 M210.2,282.35 L211.9,277.9 M242.55,274.55 Q240.2,276.7 238.75,279.65 237.7,281.7 236.6,283.75 235.1,286.7 234.3,289.8 234.05,290.85 233.85,291.95 233.8,292.4 233.8,292.9 233.8,293.1 233.8,293.3 234.35,294.4 235.5,294.8 236.7,295.2 237.9,294.65 239.05,294.1 239.9,293.15 240,293.05 240.15,292.9 242.05,291 243.65,288.9 246.65,285.1 249.4,280.9 249.65,280.25 249.8,279.7 250.85,276.4 251.9,273 L251.9,272.85 Q252.2,271.85 252.15,270.8 M249.4,280.9 Q251,278.55 251.35,276.2 251.65,274.6 251.9,273 M249.4,280.9 Q248.35,284.25 247.9,287.85 247.7,289.2 248.15,290.55 248.7,292.3 250.25,292.9 250.65,293.05 251.05,293.15 251.3,293.05 251.5,292.9 255.05,291.15 258.15,289 261.6,286.55 264.6,284.05 M152.65,322.4 Q155.4,322.7 157.9,322.55 161.2,322.4 164.45,322.35 166.4,322.1 168.35,322 170.5,321.85 172.7,321.7 176.25,321.35 179.8,321.05 182.35,320.75 185,320.55 187.8,320.2 190.6,319.9 193.6,319.65 196.6,319.4 199.8,319.15 202.95,318.95 206.35,318.75 209.7,318.55 213.3,318.4 216.85,318.2 220.65,318.05 224.45,318 226.3,317.95 228.3,317.9 230.3,317.9 232.3,317.9 234.35,317.85 236.45,317.75 238.55,317.75 240.6,317.75 243.85,317.75 247.2,317.75 250.2,317.75 253.15,317.9 256.15,317.9 259.15,317.9 280.35,318 301.45,318 M236,540.15 L240.35,400.7 310.7,400.7 306.7,542.55 M155.35,540.55 L159.75,402.7 215.75,402.7 213,538.5 M69.85,303.7 Q70.65,300.4 71.45,297.15 72.4,293.15 73.25,289.2 75.1,281.55 78.9,274.7 82.65,267.8 88.2,262.15 92.35,258 97.4,255.6 97.75,263.35 95.25,270.7 93.6,275.6 91.7,280.6 92.9,277.95 94.2,275.3 95.7,272.1 97.9,268.85 99.45,266.35 101.5,264.45 101.65,264.3 101.85,264.15 103.35,262.85 104.9,261.55 107.75,259.1 110.5,257.05 112.95,255.1 116.1,255.25 116.05,256.55 115.85,257.8 115.75,258.8 115.45,259.75 114.55,262.75 113.7,265.35 112.15,269.9 110.6,274.1 107.9,281.8 105.2,289.5 103.85,293.65 102.9,298.3 102.6,299.9 102.4,301.55 105.1,300.9 107.25,300.45 109.8,299.65 112.15,298.45 114.5,297.3 116.8,295.95 115.85,288.35 118.45,283.75 121,279.1 122.55,277.3 124.1,275.45 125.25,274.95 125.55,274.75 125.9,274.75 129.1,276.55 128.55,280.2 127.9,283.85 125.9,286.9 124.1,289.85 121.7,291.85 119.25,293.9 116.8,295.95 116.8,298.15 117.65,300.25 118.45,302.15 120.3,302.75 121.7,303.1 123.1,302.25 126.5,300.5 128.7,297.45 129,297.1 129.2,296.7 130.5,294.85 131.7,292.9 131.9,292.5 132.2,292.05 133.05,290.55 134.05,289.05 L134.1,289 Q135.4,285.05 137.95,281.75 140.65,278.4 144.5,276.1 145.6,275.6 149.8,275.3 M134.05,289.05 Q133.45,291 133.15,292.9 132.95,294.05 132.9,295.15 132.75,297.3 134.3,298.95 135.05,299.8 136,300.5 137.35,301.5 138.8,300.85 140.05,300.45 141,299.45 142.3,298.15 143.15,296.5 144.1,294.75 144.9,292.9 145.05,292.45 145.25,292 146.3,289.15 147.15,286.25 148.15,282.9 149.25,279.6 149.75,278 150.45,276.2 150.5,276.05 150.6,275.9 150.5,277.1 150.25,278 148.85,282.25 148.1,286.35 147.55,289.65 147.45,292.9 147.4,294.4 147.5,295.85 148.6,294.4 149.7,292.9 150.05,292.4 150.45,291.95 152.45,289.05 154.6,286.55 155.9,285.05 157.3,283.75 159.95,281.4 163.2,279.6 165.75,276.55 169.5,275.6 169.6,275.65 171.2,276.35 M163.2,279.6 Q160.95,282.1 159.3,284.65 157.65,287.15 156.3,290.05 155.7,291.5 155.35,292.9 155.3,293.05 155.25,293.25 153.85,300.5 160.7,299.45 162.4,299.2 164,298.1 165.05,297.25 166.1,296.45 167.1,295.65 167.7,294.6 168.2,293.8 168.6,292.9 168.7,292.65 168.85,292.3 170.1,288.9 170.85,285.6 L171.05,284.4 Q171.35,281.75 171.65,278.9 171.7,278.05 172,277.3 172.15,276.9 172.4,276.7 L172.4,276.8 171.05,284.4 M67.55,339.3 Q69.95,337.15 72.5,335.65 74.65,334.35 76.95,333.3 79.6,331.85 82.4,330.8 85.3,329.5 88.25,328.4 90.9,327.5 93.55,326.7 96.85,325.7 100.15,325.1 101.85,324.9 103.65,324.7 M147.5,295.85 Q147.5,298 147.45,300.15 147.25,303.8 146.95,307.5 146.75,309.3 146.3,311.25 145.55,314.55 144.6,317.9 143.85,320.55 143,323.15 141.95,326.8 140.5,330.15 139.65,332.15 138.7,334.1 137.05,337.45 135.3,340.8 134.65,342.05 133.85,343.2 132.9,344.45 131.85,345.6 129.25,348.15 126.05,349.65 123.7,350.6 121.25,351.2 118.45,351.9 115.65,352.3 112.75,352.25 109.95,351.9 107.35,351.2 105.1,349.85 102.85,348.6 100.9,346.95 98.35,344.75 99,341.45 99.65,338.8 101.55,336.65 103.05,334.95 104.6,333.15 105.8,331.8 107,330.5 108.1,329.35 109.2,328.45 111.6,326.55 113.8,324.9 116.55,323.05 119.25,321.05 120.9,319.9 122.55,318.75 125.6,316.6 128.65,314.45 128.95,314.25 129.2,314.1 131.6,312.3 133.9,310.4 136.15,308.65 138.3,306.75 140.8,304.5 143.1,301.65 145.45,298.85 147.5,295.85Z M170.85,285.6 Q170.25,289 170.35,292.55 170.35,292.75 170.4,292.9 170.5,295.5 171.85,297.65 173,298 174.1,297.85 177.15,297 177.7,293.95 177.8,293.45 177.7,292.95 M126.7,323.9 L135.7,323.4 M73.2,537.3 L73.2,401.9 134.35,403.6 134.35,535.1" test="Mall Front"/>
      <g test="Mall Front">
        <path id="Layer2_0_1_STROKES" stroke="#FFF" stroke-width="1.482" stroke-linejoin="round" stroke-linecap="round" fill="none" d="M51.793,385.407 L48.53,385.407 48.988,379.021 336.44,379.324 329.628,385.407"/>
      </g>
      <g test="Mall Front">
        <path id="Layer3_0_1_STROKES" stroke="#FFF" stroke-width="1.482" stroke-linejoin="round" stroke-linecap="round" fill="none" d="M47.614,385.272 L330.544,385.306"/>
      </g>
    </g>
  </g>
</svg>