<?xml version="1.0" encoding="utf-8"?>
<svg id="EdithAnim07" image-rendering="inherit" baseProfile="basic" version="1.1" x="0px" y="0px" width="800" height="600" xmlns="http://www.w3.org/2000/svg" xmlns:xlink="http://www.w3.org/1999/xlink">
  <defs>
    <g id="LinePerspective" overflow="visible">
      <path id="Layer4_0_1_STROKES" stroke="#FFF" stroke-width="2" stroke-linejoin="round" stroke-linecap="round" fill="none" d="M-59.65 54.85L59.7 -54.85" test="LinePerspective"/>
    </g>
  </defs>
  <g id="Need-a-mallf39r1" overflow="visible">
    <g id="MallBackAndSide">
      <g id="MallBack">
        <path id="Layer5_0_1_STROKES" stroke="#FFF" stroke-width="2" stroke-linejoin="round" stroke-linecap="round" fill="none" d="M103.2,182.45 Q109.05,182.15 267.8,182.8 424.8,183.5 427.25,183.15" test="MallBack"/>
      </g>
      <g id="Mall-Back-right">
        <path id="Layer6_0_1_STROKES" stroke="#FFF" stroke-width="2" stroke-linejoin="round" stroke-linecap="round" fill="none" d="M426.6,183.15 L430.75,472.55" test="Mall Back right"/>
      </g>
    </g>
    <use xlink:href="#LinePerspective" transform="matrix(.559 0 0 .66 399.55 509.4)"/>
    <use xlink:href="#LinePerspective" transform="matrix(.56 0 0 .415 392.2 205.65)"/>
    <use xlink:href="#LinePerspective" transform="matrix(.887 0 0 .415 48.1 205.65)"/>
    <g id="Mall-Front">
      <path id="Layer1_0_1_STROKES" stroke="#FFF" stroke-width="2" stroke-linejoin="round" stroke-linecap="round" fill="none" d="M-1.6,228.35 Q18.85,226.2 44.35,223.9 95.4,219.3 120.7,218.8 148.75,218.25 211.65,217.7 269.25,217.2 293.1,217.2 312,217.2 336.55,219.8 358.6,222.05 361.45,223.55 363.55,224.65 364.5,271.7 365.35,314.55 364.6,334.75 364.2,345.65 365.4,389.3 366.6,432.65 366.2,442 365.4,461.1 365.4,515.9 365.4,523.45 365.45,535.05 365.3,543.2 363.8,545.3 362.45,547.05 304.2,545.6 301.1,545.55 297.85,545.45 295.6,545.4 293.35,545.35 292.45,545.35 291.6,545.3 219.55,542.95 209.7,542.95 199.05,542.95 118.65,542.15 88.45,541.85 68.7,541.65 35.85,541.35 31.75,541.35 24.95,541.35 13.05,543.8 3.7,545.7 .8,544.5 -2.45,543.1 -3.2,489 -4.2,424.05 -4.8,417.4 -6.4,401.05 -4.7,318.1 -3.05,238.25 -1.6,228.35Z" test="Mall Front"/>
      <path id="Layer1_0_2_STROKES" stroke="#F0F" stroke-width="2" stroke-linejoin="round" stroke-linecap="round" fill="none" d="M252.15,284.05 Q254.35,282.05 256.45,279.95 258,278.55 259.25,276.9 261.6,274.1 263.5,270.95 265.15,268.25 266.3,265.35 267.8,261.8 266.85,258 266.75,257.35 266.55,256.8 265.65,256.85 264.75,256.95 264,257.2 263.3,257.55 261.8,258.7 260.6,260.15 259.15,262 258.05,264.2 256.65,266.95 255.6,269.9 253.15,276.75 252.15,284.05 251.85,287.2 252,290.2 252.05,291.65 252.5,292.9 253.2,295 254.95,296.75 255.65,297.5 256.65,298 259.9,299.7 263.3,297.8 266.3,296.05 268.7,293.5 269,293.25 269.25,292.9 271.15,290.85 272.85,288.5 273.2,281.8 275.45,275.45 276.7,272 278.35,268.75 279.5,266.5 281.1,264.6 282.5,262.95 284.2,261.6 286.55,259.7 289.5,259.5 289.3,260.8 289,262 288.65,263.7 288.2,265.35 287.15,268.75 285.3,271.65 283.25,274.75 281.15,277.6 279.35,280.1 277.5,282.55 275.25,285.6 272.85,288.5 272.65,290.7 272.9,292.9 273.1,294.4 273.55,295.8 274.6,299.5 278.4,300.5 280.25,301 282.2,301.25 285.45,301.6 288.2,299.65 290.15,298.35 292.1,297.05 293.15,296.5 293.85,295.7 295.1,294.35 296.35,292.9 296.8,292.35 297.25,291.8 M178.55,299.95 Q179.3,296.8 180.05,293.7 180.15,293.3 180.25,292.9 181.05,289.55 181.85,286.15 183.55,278.8 187.2,272.25 190.8,265.65 196.1,260.25 200,256.3 204.9,254 205.2,261.45 202.85,268.45 201.25,273.1 199.45,277.9 200.55,275.35 201.85,272.8 203.25,269.8 205.35,266.65 206.85,264.3 208.8,262.5 208.95,262.3 209.15,262.15 210.55,260.95 212.05,259.65 214.8,257.35 217.45,255.4 219.75,253.55 222.8,253.65 222.75,254.9 222.5,256.1 222.45,257.05 222.15,257.95 221.3,260.85 220.45,263.3 219,267.65 217.5,271.65 214.95,279.05 212.35,286.4 211.3,289.55 210.55,292.9 210.35,293.9 210.15,294.85 209.65,297.3 209.55,299.95 211.15,298.2 212.6,296.35 214.05,294.65 215.35,292.9 215.8,292.3 216.2,291.7 218.05,289.15 219.8,286.55 221.95,283.35 224.4,280.25 226.9,277.05 230.1,274.55 232.25,273.1 234.5,272.25 235.2,272.05 238.9,270.8 M197.75,282.35 L199.45,277.9 M230.1,274.55 Q227.75,276.7 226.3,279.65 225.25,281.7 224.15,283.75 222.65,286.7 221.85,289.8 221.6,290.85 221.4,291.95 221.35,292.4 221.35,292.9 221.35,293.1 221.35,293.3 221.9,294.4 223.05,294.8 224.25,295.2 225.45,294.65 226.6,294.1 227.45,293.15 227.55,293.05 227.7,292.9 229.6,291 231.2,288.9 234.2,285.1 236.95,280.9 237.2,280.25 237.35,279.7 238.4,276.4 239.45,273 L239.45,272.85 Q239.75,271.85 239.7,270.8 M236.95,280.9 Q238.55,278.55 238.9,276.2 239.2,274.6 239.45,273 M236.95,280.9 Q235.9,284.25 235.45,287.85 235.25,289.2 235.7,290.55 236.25,292.3 237.8,292.9 238.2,293.05 238.6,293.15 238.85,293.05 239.05,292.9 242.6,291.15 245.7,289 249.15,286.55 252.15,284.05 M140.2,322.4 Q142.95,322.7 145.45,322.55 148.75,322.4 152,322.35 153.95,322.1 155.9,322 158.05,321.85 160.25,321.7 163.8,321.35 167.35,321.05 169.9,320.75 172.55,320.55 175.35,320.2 178.15,319.9 181.15,319.65 184.15,319.4 187.35,319.15 190.5,318.95 193.9,318.75 197.25,318.55 200.85,318.4 204.4,318.2 208.2,318.05 212,318 213.85,317.95 215.85,317.9 217.85,317.9 219.85,317.9 221.9,317.85 224,317.75 226.1,317.75 228.15,317.75 231.4,317.75 234.75,317.75 237.75,317.75 240.7,317.9 243.7,317.9 246.7,317.9 267.9,318 289,318 M223.55,540.15 L227.9,400.7 298.25,400.7 294.25,542.55 M142.9,540.55 L147.3,402.7 203.3,402.7 200.55,538.5 M57.4,303.7 Q58.2,300.4 59,297.15 59.95,293.15 60.8,289.2 62.65,281.55 66.45,274.7 70.2,267.8 75.75,262.15 79.9,258 84.95,255.6 85.3,263.35 82.8,270.7 81.15,275.6 79.25,280.6 80.45,277.95 81.75,275.3 83.25,272.1 85.45,268.85 87,266.35 89.05,264.45 89.2,264.3 89.4,264.15 90.9,262.85 92.45,261.55 95.3,259.1 98.05,257.05 100.5,255.1 103.65,255.25 103.6,256.55 103.4,257.8 103.3,258.8 103,259.75 102.1,262.75 101.25,265.35 99.7,269.9 98.15,274.1 95.45,281.8 92.75,289.5 91.4,293.65 90.45,298.3 90.15,299.9 89.95,301.55 92.65,300.9 94.8,300.45 97.35,299.65 99.7,298.45 102.05,297.3 104.35,295.95 103.4,288.35 106,283.75 108.55,279.1 110.1,277.3 111.65,275.45 112.8,274.95 113.1,274.75 113.45,274.75 116.65,276.55 116.1,280.2 115.45,283.85 113.45,286.9 111.65,289.85 109.25,291.85 106.8,293.9 104.35,295.95 104.35,298.15 105.2,300.25 106,302.15 107.85,302.75 109.25,303.1 110.65,302.25 114.05,300.5 116.25,297.45 116.55,297.1 116.75,296.7 118.05,294.85 119.25,292.9 119.45,292.5 119.75,292.05 120.6,290.55 121.6,289.05 L121.65,289 Q122.95,285.05 125.5,281.75 128.2,278.4 132.05,276.1 133.15,275.6 137.35,275.3 M121.6,289.05 Q121,291 120.7,292.9 120.5,294.05 120.45,295.15 120.3,297.3 121.85,298.95 122.6,299.8 123.55,300.5 124.9,301.5 126.35,300.85 127.6,300.45 128.55,299.45 129.85,298.15 130.7,296.5 131.65,294.75 132.45,292.9 132.6,292.45 132.8,292 133.85,289.15 134.7,286.25 135.7,282.9 136.8,279.6 137.3,278 138,276.2 138.05,276.05 138.15,275.9 138.05,277.1 137.8,278 136.4,282.25 135.65,286.35 135.1,289.65 135,292.9 134.95,294.4 135.05,295.85 136.15,294.4 137.25,292.9 137.6,292.4 138,291.95 140,289.05 142.15,286.55 143.45,285.05 144.85,283.75 147.5,281.4 150.75,279.6 153.3,276.55 157.05,275.6 157.15,275.65 158.75,276.35 M150.75,279.6 Q148.5,282.1 146.85,284.65 145.2,287.15 143.85,290.05 143.25,291.5 142.9,292.9 142.85,293.05 142.8,293.25 141.4,300.5 148.25,299.45 149.95,299.2 151.55,298.1 152.6,297.25 153.65,296.45 154.65,295.65 155.25,294.6 155.75,293.8 156.15,292.9 156.25,292.65 156.4,292.3 157.65,288.9 158.4,285.6 L158.6,284.4 Q158.9,281.75 159.2,278.9 159.25,278.05 159.55,277.3 159.7,276.9 159.95,276.7 L159.95,276.8 158.6,284.4 M55.1,339.3 Q57.5,337.15 60.05,335.65 62.2,334.35 64.5,333.3 67.15,331.85 69.95,330.8 72.85,329.5 75.8,328.4 78.45,327.5 81.1,326.7 84.4,325.7 87.7,325.1 89.4,324.9 91.2,324.7 M135.05,295.85 Q135.05,298 135,300.15 134.8,303.8 134.5,307.5 134.3,309.3 133.85,311.25 133.1,314.55 132.15,317.9 131.4,320.55 130.55,323.15 129.5,326.8 128.05,330.15 127.2,332.15 126.25,334.1 124.6,337.45 122.85,340.8 122.2,342.05 121.4,343.2 120.45,344.45 119.4,345.6 116.8,348.15 113.6,349.65 111.25,350.6 108.8,351.2 106,351.9 103.2,352.3 100.3,352.25 97.5,351.9 94.9,351.2 92.65,349.85 90.4,348.6 88.45,346.95 85.9,344.75 86.55,341.45 87.2,338.8 89.1,336.65 90.6,334.95 92.15,333.15 93.35,331.8 94.55,330.5 95.65,329.35 96.75,328.45 99.15,326.55 101.35,324.9 104.1,323.05 106.8,321.05 108.45,319.9 110.1,318.75 113.15,316.6 116.2,314.45 116.5,314.25 116.75,314.1 119.15,312.3 121.45,310.4 123.7,308.65 125.85,306.75 128.35,304.5 130.65,301.65 133,298.85 135.05,295.85Z M158.4,285.6 Q157.8,289 157.9,292.55 157.9,292.75 157.95,292.9 158.05,295.5 159.4,297.65 160.55,298 161.65,297.85 164.7,297 165.25,293.95 165.35,293.45 165.25,292.95 M114.25,323.9 L123.25,323.4 M60.75,537.3 L60.75,401.9 121.9,403.6 121.9,535.1" test="Mall Front"/>
      <g test="Mall Front">
        <path id="Layer2_0_1_STROKES" stroke="#FFF" stroke-width="1.482" stroke-linejoin="round" stroke-linecap="round" fill="none" d="M39.343,385.407 L36.08,385.407 36.538,379.021 323.99,379.324 317.178,385.407"/>
      </g>
      <g test="Mall Front">
        <path id="Layer3_0_1_STROKES" stroke="#FFF" stroke-width="1.482" stroke-linejoin="round" stroke-linecap="round" fill="none" d="M35.164,385.272 L318.094,385.306"/>
      </g>
    </g>
  </g>
</svg>