<?xml version="1.0" encoding="utf-8"?>
<svg id="EdithAnim07" image-rendering="inherit" baseProfile="basic" version="1.1" x="0px" y="0px" width="800" height="600" xmlns="http://www.w3.org/2000/svg" xmlns:xlink="http://www.w3.org/1999/xlink">
  <defs>
    <g id="LinePerspective" overflow="visible">
      <path id="Layer4_0_1_STROKES" stroke="#FFF" stroke-width="2" stroke-linejoin="round" stroke-linecap="round" fill="none" d="M-59.65 54.85L59.7 -54.85" test="LinePerspective"/>
    </g>
  </defs>
  <g id="Need-a-mallf44r1" overflow="visible">
    <g id="MallBackAndSide">
      <g id="MallBack">
        <path id="Layer5_0_1_STROKES" stroke="#FFF" stroke-width="2" stroke-linejoin="round" stroke-linecap="round" fill="none" d="M35.15,182.45 Q41,182.15 199.75,182.8 356.75,183.5 359.2,183.15" test="MallBack"/>
      </g>
      <g id="Mall-Back-right">
        <path id="Layer6_0_1_STROKES" stroke="#FFF" stroke-width="2" stroke-linejoin="round" stroke-linecap="round" fill="none" d="M358.55,183.15 L362.7,472.55" test="Mall Back right"/>
      </g>
    </g>
    <use xlink:href="#LinePerspective" transform="matrix(.67 0 0 .652 324.5 509.85)"/>
    <use xlink:href="#LinePerspective" transform="matrix(.672 0 0 .412 317.2 205.8)"/>
    <use xlink:href="#LinePerspective" transform="matrix(1 0 0 .412 -26.75 205.8)"/>
    <g id="Mall-Front">
      <path id="Layer1_0_1_STROKES" stroke="#FFF" stroke-width="2" stroke-linejoin="round" stroke-linecap="round" fill="none" d="M-83.25,228.35 Q-62.8,226.2 -37.3,223.9 13.75,219.3 39.05,218.8 67.1,218.25 130,217.7 187.6,217.2 211.45,217.2 230.35,217.2 254.9,219.8 276.95,222.05 279.8,223.55 281.9,224.65 282.85,271.7 283.7,314.55 282.95,334.75 282.55,345.65 283.75,389.3 284.95,432.65 284.55,442 283.75,461.1 283.75,515.9 283.75,523.45 283.8,535.05 283.65,543.2 282.15,545.3 280.8,547.05 222.55,545.6 219.45,545.55 216.2,545.45 213.95,545.4 211.7,545.35 210.8,545.35 209.95,545.3 137.9,542.95 128.05,542.95 117.4,542.95 37,542.15 6.8,541.85 -12.95,541.65 -45.8,541.35 -49.9,541.35 -56.7,541.35 -68.6,543.8 -77.95,545.7 -80.85,544.5 -84.1,543.1 -84.85,489 -85.85,424.05 -86.45,417.4 -88.05,401.05 -86.35,318.1 -84.7,238.25 -83.25,228.35Z" test="Mall Front"/>
      <path id="Layer1_0_2_STROKES" stroke="#F0F" stroke-width="2" stroke-linejoin="round" stroke-linecap="round" fill="none" d="M170.5,284.05 Q172.7,282.05 174.8,279.95 176.35,278.55 177.6,276.9 179.95,274.1 181.85,270.95 183.5,268.25 184.65,265.35 186.15,261.8 185.2,258 185.1,257.35 184.9,256.8 184,256.85 183.1,256.95 182.35,257.2 181.65,257.55 180.15,258.7 178.95,260.15 177.5,262 176.4,264.2 175,266.95 173.95,269.9 171.5,276.75 170.5,284.05 170.2,287.2 170.35,290.2 170.4,291.65 170.85,292.9 171.55,295 173.3,296.75 174,297.5 175,298 178.25,299.7 181.65,297.8 184.65,296.05 187.05,293.5 187.35,293.25 187.6,292.9 189.5,290.85 191.2,288.5 191.55,281.8 193.8,275.45 195.05,272 196.7,268.75 197.85,266.5 199.45,264.6 200.85,262.95 202.55,261.6 204.9,259.7 207.85,259.5 207.65,260.8 207.35,262 207,263.7 206.55,265.35 205.5,268.75 203.65,271.65 201.6,274.75 199.5,277.6 197.7,280.1 195.85,282.55 193.6,285.6 191.2,288.5 191,290.7 191.25,292.9 191.45,294.4 191.9,295.8 192.95,299.5 196.75,300.5 198.6,301 200.55,301.25 203.8,301.6 206.55,299.65 208.5,298.35 210.45,297.05 211.5,296.5 212.2,295.7 213.45,294.35 214.7,292.9 215.15,292.35 215.6,291.8 M96.9,299.95 Q97.65,296.8 98.4,293.7 98.5,293.3 98.6,292.9 99.4,289.55 100.2,286.15 101.9,278.8 105.55,272.25 109.15,265.65 114.45,260.25 118.35,256.3 123.25,254 123.55,261.45 121.2,268.45 119.6,273.1 117.8,277.9 118.9,275.35 120.2,272.8 121.6,269.8 123.7,266.65 125.2,264.3 127.15,262.5 127.3,262.3 127.5,262.15 128.9,260.95 130.4,259.65 133.15,257.35 135.8,255.4 138.1,253.55 141.15,253.65 141.1,254.9 140.85,256.1 140.8,257.05 140.5,257.95 139.65,260.85 138.8,263.3 137.35,267.65 135.85,271.65 133.3,279.05 130.7,286.4 129.65,289.55 128.9,292.9 128.7,293.9 128.5,294.85 128,297.3 127.9,299.95 129.5,298.2 130.95,296.35 132.4,294.65 133.7,292.9 134.15,292.3 134.55,291.7 136.4,289.15 138.15,286.55 140.3,283.35 142.75,280.25 145.25,277.05 148.45,274.55 150.6,273.1 152.85,272.25 153.55,272.05 157.25,270.8 M116.1,282.35 L117.8,277.9 M148.45,274.55 Q146.1,276.7 144.65,279.65 143.6,281.7 142.5,283.75 141,286.7 140.2,289.8 139.95,290.85 139.75,291.95 139.7,292.4 139.7,292.9 139.7,293.1 139.7,293.3 140.25,294.4 141.4,294.8 142.6,295.2 143.8,294.65 144.95,294.1 145.8,293.15 145.9,293.05 146.05,292.9 147.95,291 149.55,288.9 152.55,285.1 155.3,280.9 155.55,280.25 155.7,279.7 156.75,276.4 157.8,273 L157.8,272.85 Q158.1,271.85 158.05,270.8 M155.3,280.9 Q156.9,278.55 157.25,276.2 157.55,274.6 157.8,273 M155.3,280.9 Q154.25,284.25 153.8,287.85 153.6,289.2 154.05,290.55 154.6,292.3 156.15,292.9 156.55,293.05 156.95,293.15 157.2,293.05 157.4,292.9 160.95,291.15 164.05,289 167.5,286.55 170.5,284.05 M58.55,322.4 Q61.3,322.7 63.8,322.55 67.1,322.4 70.35,322.35 72.3,322.1 74.25,322 76.4,321.85 78.6,321.7 82.15,321.35 85.7,321.05 88.25,320.75 90.9,320.55 93.7,320.2 96.5,319.9 99.5,319.65 102.5,319.4 105.7,319.15 108.85,318.95 112.25,318.75 115.6,318.55 119.2,318.4 122.75,318.2 126.55,318.05 130.35,318 132.2,317.95 134.2,317.9 136.2,317.9 138.2,317.9 140.25,317.85 142.35,317.75 144.45,317.75 146.5,317.75 149.75,317.75 153.1,317.75 156.1,317.75 159.05,317.9 162.05,317.9 165.05,317.9 186.25,318 207.35,318 M141.9,540.15 L146.25,400.7 216.6,400.7 212.6,542.55 M61.25,540.55 L65.65,402.7 121.65,402.7 118.9,538.5 M-24.25,303.7 Q-23.45,300.4 -22.65,297.15 -21.7,293.15 -20.85,289.2 -19,281.55 -15.2,274.7 -11.45,267.8 -5.9,262.15 -1.75,258 3.3,255.6 3.65,263.35 1.15,270.7 -.5,275.6 -2.4,280.6 -1.2,277.95 .1,275.3 1.6,272.1 3.8,268.85 5.35,266.35 7.4,264.45 7.55,264.3 7.75,264.15 9.25,262.85 10.8,261.55 13.65,259.1 16.4,257.05 18.85,255.1 22,255.25 21.95,256.55 21.75,257.8 21.65,258.8 21.35,259.75 20.45,262.75 19.6,265.35 18.05,269.9 16.5,274.1 13.8,281.8 11.1,289.5 9.75,293.65 8.8,298.3 8.5,299.9 8.3,301.55 11,300.9 13.15,300.45 15.7,299.65 18.05,298.45 20.4,297.3 22.7,295.95 21.75,288.35 24.35,283.75 26.9,279.1 28.45,277.3 30,275.45 31.15,274.95 31.45,274.75 31.8,274.75 35,276.55 34.45,280.2 33.8,283.85 31.8,286.9 30,289.85 27.6,291.85 25.15,293.9 22.7,295.95 22.7,298.15 23.55,300.25 24.35,302.15 26.2,302.75 27.6,303.1 29,302.25 32.4,300.5 34.6,297.45 34.9,297.1 35.1,296.7 36.4,294.85 37.6,292.9 37.8,292.5 38.1,292.05 38.95,290.55 39.95,289.05 L40,289 Q41.3,285.05 43.85,281.75 46.55,278.4 50.4,276.1 51.5,275.6 55.7,275.3 M39.95,289.05 Q39.35,291 39.05,292.9 38.85,294.05 38.8,295.15 38.65,297.3 40.2,298.95 40.95,299.8 41.9,300.5 43.25,301.5 44.7,300.85 45.95,300.45 46.9,299.45 48.2,298.15 49.05,296.5 50,294.75 50.8,292.9 50.95,292.45 51.15,292 52.2,289.15 53.05,286.25 54.05,282.9 55.15,279.6 55.65,278 56.35,276.2 56.4,276.05 56.5,275.9 56.4,277.1 56.15,278 54.75,282.25 54,286.35 53.45,289.65 53.35,292.9 53.3,294.4 53.4,295.85 54.5,294.4 55.6,292.9 55.95,292.4 56.35,291.95 58.35,289.05 60.5,286.55 61.8,285.05 63.2,283.75 65.85,281.4 69.1,279.6 71.65,276.55 75.4,275.6 75.5,275.65 77.1,276.35 M69.1,279.6 Q66.85,282.1 65.2,284.65 63.55,287.15 62.2,290.05 61.6,291.5 61.25,292.9 61.2,293.05 61.15,293.25 59.75,300.5 66.6,299.45 68.3,299.2 69.9,298.1 70.95,297.25 72,296.45 73,295.65 73.6,294.6 74.1,293.8 74.5,292.9 74.6,292.65 74.75,292.3 76,288.9 76.75,285.6 L76.95,284.4 Q77.25,281.75 77.55,278.9 77.6,278.05 77.9,277.3 78.05,276.9 78.3,276.7 L78.3,276.8 76.95,284.4 M-26.55,339.3 Q-24.15,337.15 -21.6,335.65 -19.45,334.35 -17.15,333.3 -14.5,331.85 -11.7,330.8 -8.8,329.5 -5.85,328.4 -3.2,327.5 -.55,326.7 2.75,325.7 6.05,325.1 7.75,324.9 9.55,324.7 M53.4,295.85 Q53.4,298 53.35,300.15 53.15,303.8 52.85,307.5 52.65,309.3 52.2,311.25 51.45,314.55 50.5,317.9 49.75,320.55 48.9,323.15 47.85,326.8 46.4,330.15 45.55,332.15 44.6,334.1 42.95,337.45 41.2,340.8 40.55,342.05 39.75,343.2 38.8,344.45 37.75,345.6 35.15,348.15 31.95,349.65 29.6,350.6 27.15,351.2 24.35,351.9 21.55,352.3 18.65,352.25 15.85,351.9 13.25,351.2 11,349.85 8.75,348.6 6.8,346.95 4.25,344.75 4.9,341.45 5.55,338.8 7.45,336.65 8.95,334.95 10.5,333.15 11.7,331.8 12.9,330.5 14,329.35 15.1,328.45 17.5,326.55 19.7,324.9 22.45,323.05 25.15,321.05 26.8,319.9 28.45,318.75 31.5,316.6 34.55,314.45 34.85,314.25 35.1,314.1 37.5,312.3 39.8,310.4 42.05,308.65 44.2,306.75 46.7,304.5 49,301.65 51.35,298.85 53.4,295.85Z M76.75,285.6 Q76.15,289 76.25,292.55 76.25,292.75 76.3,292.9 76.4,295.5 77.75,297.65 78.9,298 80,297.85 83.05,297 83.6,293.95 83.7,293.45 83.6,292.95 M32.6,323.9 L41.6,323.4 M-20.9,537.3 L-20.9,401.9 40.25,403.6 40.25,535.1" test="Mall Front"/>
      <g test="Mall Front">
        <path id="Layer2_0_1_STROKES" stroke="#FFF" stroke-width="1.482" stroke-linejoin="round" stroke-linecap="round" fill="none" d="M-42.307,385.407 L-45.57,385.407 -45.112,379.021 242.34,379.324 235.528,385.407"/>
      </g>
      <g test="Mall Front">
        <path id="Layer3_0_1_STROKES" stroke="#FFF" stroke-width="1.482" stroke-linejoin="round" stroke-linecap="round" fill="none" d="M-46.486,385.272 L236.444,385.306"/>
      </g>
    </g>
  </g>
</svg>