<?xml version="1.0" encoding="utf-8"?>
<svg id="EdithAnim07" image-rendering="inherit" baseProfile="basic" version="1.1" x="0px" y="0px" width="800" height="600" xmlns="http://www.w3.org/2000/svg" xmlns:xlink="http://www.w3.org/1999/xlink">
  <defs>
    <g id="LinePerspective" overflow="visible">
      <path id="Layer4_0_1_STROKES" stroke="#FFF" stroke-width="2" stroke-linejoin="round" stroke-linecap="round" fill="none" d="M-59.65 54.85L59.7 -54.85" test="LinePerspective"/>
    </g>
  </defs>
  <g id="Need-a-mallf45r1" overflow="visible">
    <g id="MallBackAndSide">
      <g id="MallBack">
        <path id="Layer5_0_1_STROKES" stroke="#FFF" stroke-width="2" stroke-linejoin="round" stroke-linecap="round" fill="none" d="M18.25,182.45 Q24.1,182.15 182.85,182.8 339.85,183.5 342.3,183.15" test="MallBack"/>
      </g>
      <g id="Mall-Back-right">
        <path id="Layer6_0_1_STROKES" stroke="#FFF" stroke-width="2" stroke-linejoin="round" stroke-linecap="round" fill="none" d="M341.65,183.15 L345.8,472.55" test="Mall Back right"/>
      </g>
    </g>
    <use xlink:href="#LinePerspective" transform="matrix(.698 0 0 .65 305.9 509.95)"/>
    <use xlink:href="#LinePerspective" transform="matrix(.7 0 0 .411 298.55 205.85)"/>
    <use xlink:href="#LinePerspective" transform="matrix(1.028 0 0 .411 -45.35 205.85)"/>
    <g id="Mall-Front">
      <path id="Layer1_0_1_STROKES" stroke="#FFF" stroke-width="2" stroke-linejoin="round" stroke-linecap="round" fill="none" d="M-103.5,228.35 Q-83.05,226.2 -57.55,223.9 -6.5,219.3 18.8,218.8 46.85,218.25 109.75,217.7 167.35,217.2 191.2,217.2 210.1,217.2 234.65,219.8 256.7,222.05 259.55,223.55 261.65,224.65 262.6,271.7 263.45,314.55 262.7,334.75 262.3,345.65 263.5,389.3 264.7,432.65 264.3,442 263.5,461.1 263.5,515.9 263.5,523.45 263.55,535.05 263.4,543.2 261.9,545.3 260.55,547.05 202.3,545.6 199.2,545.55 195.95,545.45 193.7,545.4 191.45,545.35 190.55,545.35 189.7,545.3 117.65,542.95 107.8,542.95 97.15,542.95 16.75,542.15 -13.45,541.85 -33.2,541.65 -66.05,541.35 -70.15,541.35 -76.95,541.35 -88.85,543.8 -98.2,545.7 -101.1,544.5 -104.35,543.1 -105.1,489 -106.1,424.05 -106.7,417.4 -108.3,401.05 -106.6,318.1 -104.95,238.25 -103.5,228.35Z" test="Mall Front"/>
      <path id="Layer1_0_2_STROKES" stroke="#F0F" stroke-width="2" stroke-linejoin="round" stroke-linecap="round" fill="none" d="M150.25,284.05 Q152.45,282.05 154.55,279.95 156.1,278.55 157.35,276.9 159.7,274.1 161.6,270.95 163.25,268.25 164.4,265.35 165.9,261.8 164.95,258 164.85,257.35 164.65,256.8 163.75,256.85 162.85,256.95 162.1,257.2 161.4,257.55 159.9,258.7 158.7,260.15 157.25,262 156.15,264.2 154.75,266.95 153.7,269.9 151.25,276.75 150.25,284.05 149.95,287.2 150.1,290.2 150.15,291.65 150.6,292.9 151.3,295 153.05,296.75 153.75,297.5 154.75,298 158,299.7 161.4,297.8 164.4,296.05 166.8,293.5 167.1,293.25 167.35,292.9 169.25,290.85 170.95,288.5 171.3,281.8 173.55,275.45 174.8,272 176.45,268.75 177.6,266.5 179.2,264.6 180.6,262.95 182.3,261.6 184.65,259.7 187.6,259.5 187.4,260.8 187.1,262 186.75,263.7 186.3,265.35 185.25,268.75 183.4,271.65 181.35,274.75 179.25,277.6 177.45,280.1 175.6,282.55 173.35,285.6 170.95,288.5 170.75,290.7 171,292.9 171.2,294.4 171.65,295.8 172.7,299.5 176.5,300.5 178.35,301 180.3,301.25 183.55,301.6 186.3,299.65 188.25,298.35 190.2,297.05 191.25,296.5 191.95,295.7 193.2,294.35 194.45,292.9 194.9,292.35 195.35,291.8 M76.65,299.95 Q77.4,296.8 78.15,293.7 78.25,293.3 78.35,292.9 79.15,289.55 79.95,286.15 81.65,278.8 85.3,272.25 88.9,265.65 94.2,260.25 98.1,256.3 103,254 103.3,261.45 100.95,268.45 99.35,273.1 97.55,277.9 98.65,275.35 99.95,272.8 101.35,269.8 103.45,266.65 104.95,264.3 106.9,262.5 107.05,262.3 107.25,262.15 108.65,260.95 110.15,259.65 112.9,257.35 115.55,255.4 117.85,253.55 120.9,253.65 120.85,254.9 120.6,256.1 120.55,257.05 120.25,257.95 119.4,260.85 118.55,263.3 117.1,267.65 115.6,271.65 113.05,279.05 110.45,286.4 109.4,289.55 108.65,292.9 108.45,293.9 108.25,294.85 107.75,297.3 107.65,299.95 109.25,298.2 110.7,296.35 112.15,294.65 113.45,292.9 113.9,292.3 114.3,291.7 116.15,289.15 117.9,286.55 120.05,283.35 122.5,280.25 125,277.05 128.2,274.55 130.35,273.1 132.6,272.25 133.3,272.05 137,270.8 M95.85,282.35 L97.55,277.9 M128.2,274.55 Q125.85,276.7 124.4,279.65 123.35,281.7 122.25,283.75 120.75,286.7 119.95,289.8 119.7,290.85 119.5,291.95 119.45,292.4 119.45,292.9 119.45,293.1 119.45,293.3 120,294.4 121.15,294.8 122.35,295.2 123.55,294.65 124.7,294.1 125.55,293.15 125.65,293.05 125.8,292.9 127.7,291 129.3,288.9 132.3,285.1 135.05,280.9 135.3,280.25 135.45,279.7 136.5,276.4 137.55,273 L137.55,272.85 Q137.85,271.85 137.8,270.8 M135.05,280.9 Q136.65,278.55 137,276.2 137.3,274.6 137.55,273 M135.05,280.9 Q134,284.25 133.55,287.85 133.35,289.2 133.8,290.55 134.35,292.3 135.9,292.9 136.3,293.05 136.7,293.15 136.95,293.05 137.15,292.9 140.7,291.15 143.8,289 147.25,286.55 150.25,284.05 M38.3,322.4 Q41.05,322.7 43.55,322.55 46.85,322.4 50.1,322.35 52.05,322.1 54,322 56.15,321.85 58.35,321.7 61.9,321.35 65.45,321.05 68,320.75 70.65,320.55 73.45,320.2 76.25,319.9 79.25,319.65 82.25,319.4 85.45,319.15 88.6,318.95 92,318.75 95.35,318.55 98.95,318.4 102.5,318.2 106.3,318.05 110.1,318 111.95,317.95 113.95,317.9 115.95,317.9 117.95,317.9 120,317.85 122.1,317.75 124.2,317.75 126.25,317.75 129.5,317.75 132.85,317.75 135.85,317.75 138.8,317.9 141.8,317.9 144.8,317.9 166,318 187.1,318 M121.65,540.15 L126,400.7 196.35,400.7 192.35,542.55 M41,540.55 L45.4,402.7 101.4,402.7 98.65,538.5 M-44.5,303.7 Q-43.7,300.4 -42.9,297.15 -41.95,293.15 -41.1,289.2 -39.25,281.55 -35.45,274.7 -31.7,267.8 -26.15,262.15 -22,258 -16.95,255.6 -16.6,263.35 -19.1,270.7 -20.75,275.6 -22.65,280.6 -21.45,277.95 -20.15,275.3 -18.65,272.1 -16.45,268.85 -14.9,266.35 -12.85,264.45 -12.7,264.3 -12.5,264.15 -11,262.85 -9.45,261.55 -6.6,259.1 -3.85,257.05 -1.4,255.1 1.75,255.25 1.7,256.55 1.5,257.8 1.4,258.8 1.1,259.75 .2,262.75 -.65,265.35 -2.2,269.9 -3.75,274.1 -6.45,281.8 -9.15,289.5 -10.5,293.65 -11.45,298.3 -11.75,299.9 -11.95,301.55 -9.25,300.9 -7.1,300.45 -4.55,299.65 -2.2,298.45 .15,297.3 2.45,295.95 1.5,288.35 4.1,283.75 6.65,279.1 8.2,277.3 9.75,275.45 10.9,274.95 11.2,274.75 11.55,274.75 14.75,276.55 14.2,280.2 13.55,283.85 11.55,286.9 9.75,289.85 7.35,291.85 4.9,293.9 2.45,295.95 2.45,298.15 3.3,300.25 4.1,302.15 5.95,302.75 7.35,303.1 8.75,302.25 12.15,300.5 14.35,297.45 14.65,297.1 14.85,296.7 16.15,294.85 17.35,292.9 17.55,292.5 17.85,292.05 18.7,290.55 19.7,289.05 L19.75,289 Q21.05,285.05 23.6,281.75 26.3,278.4 30.15,276.1 31.25,275.6 35.45,275.3 M19.7,289.05 Q19.1,291 18.8,292.9 18.6,294.05 18.55,295.15 18.4,297.3 19.95,298.95 20.7,299.8 21.65,300.5 23,301.5 24.45,300.85 25.7,300.45 26.65,299.45 27.95,298.15 28.8,296.5 29.75,294.75 30.55,292.9 30.7,292.45 30.9,292 31.95,289.15 32.8,286.25 33.8,282.9 34.9,279.6 35.4,278 36.1,276.2 36.15,276.05 36.25,275.9 36.15,277.1 35.9,278 34.5,282.25 33.75,286.35 33.2,289.65 33.1,292.9 33.05,294.4 33.15,295.85 34.25,294.4 35.35,292.9 35.7,292.4 36.1,291.95 38.1,289.05 40.25,286.55 41.55,285.05 42.95,283.75 45.6,281.4 48.85,279.6 51.4,276.55 55.15,275.6 55.25,275.65 56.85,276.35 M48.85,279.6 Q46.6,282.1 44.95,284.65 43.3,287.15 41.95,290.05 41.35,291.5 41,292.9 40.95,293.05 40.9,293.25 39.5,300.5 46.35,299.45 48.05,299.2 49.65,298.1 50.7,297.25 51.75,296.45 52.75,295.65 53.35,294.6 53.85,293.8 54.25,292.9 54.35,292.65 54.5,292.3 55.75,288.9 56.5,285.6 L56.7,284.4 Q57,281.75 57.3,278.9 57.35,278.05 57.65,277.3 57.8,276.9 58.05,276.7 L58.05,276.8 56.7,284.4 M-46.8,339.3 Q-44.4,337.15 -41.85,335.65 -39.7,334.35 -37.4,333.3 -34.75,331.85 -31.95,330.8 -29.05,329.5 -26.1,328.4 -23.45,327.5 -20.8,326.7 -17.5,325.7 -14.2,325.1 -12.5,324.9 -10.7,324.7 M33.15,295.85 Q33.15,298 33.1,300.15 32.9,303.8 32.6,307.5 32.4,309.3 31.95,311.25 31.2,314.55 30.25,317.9 29.5,320.55 28.65,323.15 27.6,326.8 26.15,330.15 25.3,332.15 24.35,334.1 22.7,337.45 20.95,340.8 20.3,342.05 19.5,343.2 18.55,344.45 17.5,345.6 14.9,348.15 11.7,349.65 9.35,350.6 6.9,351.2 4.1,351.9 1.3,352.3 -1.6,352.25 -4.4,351.9 -7,351.2 -9.25,349.85 -11.5,348.6 -13.45,346.95 -16,344.75 -15.35,341.45 -14.7,338.8 -12.8,336.65 -11.3,334.95 -9.75,333.15 -8.55,331.8 -7.35,330.5 -6.25,329.35 -5.15,328.45 -2.75,326.55 -.55,324.9 2.2,323.05 4.9,321.05 6.55,319.9 8.2,318.75 11.25,316.6 14.3,314.45 14.6,314.25 14.85,314.1 17.25,312.3 19.55,310.4 21.8,308.65 23.95,306.75 26.45,304.5 28.75,301.65 31.1,298.85 33.15,295.85Z M56.5,285.6 Q55.9,289 56,292.55 56,292.75 56.05,292.9 56.15,295.5 57.5,297.65 58.65,298 59.75,297.85 62.8,297 63.35,293.95 63.45,293.45 63.35,292.95 M12.35,323.9 L21.35,323.4 M-41.15,537.3 L-41.15,401.9 20,403.6 20,535.1" test="Mall Front"/>
      <g test="Mall Front">
        <path id="Layer2_0_1_STROKES" stroke="#FFF" stroke-width="1.482" stroke-linejoin="round" stroke-linecap="round" fill="none" d="M-62.557,385.407 L-65.82,385.407 -65.362,379.021 222.09,379.324 215.278,385.407"/>
      </g>
      <g test="Mall Front">
        <path id="Layer3_0_1_STROKES" stroke="#FFF" stroke-width="1.482" stroke-linejoin="round" stroke-linecap="round" fill="none" d="M-66.736,385.272 L216.194,385.306"/>
      </g>
    </g>
  </g>
</svg>