<?xml version="1.0" encoding="utf-8"?>
<svg id="EdithAnim07" image-rendering="inherit" baseProfile="basic" version="1.1" x="0px" y="0px" width="800" height="600" xmlns="http://www.w3.org/2000/svg" xmlns:xlink="http://www.w3.org/1999/xlink">
  <defs>
    <g id="LinePerspective" overflow="visible">
      <path id="Layer4_0_1_STROKES" stroke="#FFF" stroke-width="2" stroke-linejoin="round" stroke-linecap="round" fill="none" d="M-59.65 54.85L59.7 -54.85" test="LinePerspective"/>
    </g>
  </defs>
  <g id="Need-a-mallf46r1" overflow="visible">
    <g id="MallBackAndSide">
      <g id="MallBack">
        <path id="Layer5_0_1_STROKES" stroke="#FFF" stroke-width="2" stroke-linejoin="round" stroke-linecap="round" fill="none" d="M0.3,182.45 Q6.15,182.15 164.9,182.8 321.9,183.5 324.35,183.15" test="MallBack"/>
      </g>
      <g id="Mall-Back-right">
        <path id="Layer6_0_1_STROKES" stroke="#FFF" stroke-width="2" stroke-linejoin="round" stroke-linecap="round" fill="none" d="M323.7,183.15 L327.85,472.55" test="Mall Back right"/>
      </g>
    </g>
    <use xlink:href="#LinePerspective" transform="matrix(.727 0 0 .648 286.05 510.05)"/>
    <use xlink:href="#LinePerspective" transform="matrix(.73 0 0 .41 278.8 205.9)"/>
    <use xlink:href="#LinePerspective" transform="matrix(1.058 0 0 .41 -65.15 205.9)"/>
    <g id="Mall-Front">
      <path id="Layer1_0_1_STROKES" stroke="#FFF" stroke-width="2" stroke-linejoin="round" stroke-linecap="round" fill="none" d="M-125.05,228.35 Q-104.6,226.2 -79.1,223.9 -28.05,219.3 -2.75,218.8 25.3,218.25 88.2,217.7 145.8,217.2 169.65,217.2 188.55,217.2 213.1,219.8 235.15,222.05 238,223.55 240.1,224.65 241.05,271.7 241.9,314.55 241.15,334.75 240.75,345.65 241.95,389.3 243.15,432.65 242.75,442 241.95,461.1 241.95,515.9 241.95,523.45 242,535.05 241.85,543.2 240.35,545.3 239,547.05 180.75,545.6 177.65,545.55 174.4,545.45 172.15,545.4 169.9,545.35 169,545.35 168.15,545.3 96.1,542.95 86.25,542.95 75.6,542.95 -4.8,542.15 -35,541.85 -54.75,541.65 -87.6,541.35 -91.7,541.35 -98.5,541.35 -110.4,543.8 -119.75,545.7 -122.65,544.5 -125.9,543.1 -126.65,489 -127.65,424.05 -128.25,417.4 -129.85,401.05 -128.15,318.1 -126.5,238.25 -125.05,228.35Z" test="Mall Front"/>
      <path id="Layer1_0_2_STROKES" stroke="#F0F" stroke-width="2" stroke-linejoin="round" stroke-linecap="round" fill="none" d="M128.7,284.05 Q130.9,282.05 133,279.95 134.55,278.55 135.8,276.9 138.15,274.1 140.05,270.95 141.7,268.25 142.85,265.35 144.35,261.8 143.4,258 143.3,257.35 143.1,256.8 142.2,256.85 141.3,256.95 140.55,257.2 139.85,257.55 138.35,258.7 137.15,260.15 135.7,262 134.6,264.2 133.2,266.95 132.15,269.9 129.7,276.75 128.7,284.05 128.4,287.2 128.55,290.2 128.6,291.65 129.05,292.9 129.75,295 131.5,296.75 132.2,297.5 133.2,298 136.45,299.7 139.85,297.8 142.85,296.05 145.25,293.5 145.55,293.25 145.8,292.9 147.7,290.85 149.4,288.5 149.75,281.8 152,275.45 153.25,272 154.9,268.75 156.05,266.5 157.65,264.6 159.05,262.95 160.75,261.6 163.1,259.7 166.05,259.5 165.85,260.8 165.55,262 165.2,263.7 164.75,265.35 163.7,268.75 161.85,271.65 159.8,274.75 157.7,277.6 155.9,280.1 154.05,282.55 151.8,285.6 149.4,288.5 149.2,290.7 149.45,292.9 149.65,294.4 150.1,295.8 151.15,299.5 154.95,300.5 156.8,301 158.75,301.25 162,301.6 164.75,299.65 166.7,298.35 168.65,297.05 169.7,296.5 170.4,295.7 171.65,294.35 172.9,292.9 173.35,292.35 173.8,291.8 M55.1,299.95 Q55.85,296.8 56.6,293.7 56.7,293.3 56.8,292.9 57.6,289.55 58.4,286.15 60.1,278.8 63.75,272.25 67.35,265.65 72.65,260.25 76.55,256.3 81.45,254 81.75,261.45 79.4,268.45 77.8,273.1 76,277.9 77.1,275.35 78.4,272.8 79.8,269.8 81.9,266.65 83.4,264.3 85.35,262.5 85.5,262.3 85.7,262.15 87.1,260.95 88.6,259.65 91.35,257.35 94,255.4 96.3,253.55 99.35,253.65 99.3,254.9 99.05,256.1 99,257.05 98.7,257.95 97.85,260.85 97,263.3 95.55,267.65 94.05,271.65 91.5,279.05 88.9,286.4 87.85,289.55 87.1,292.9 86.9,293.9 86.7,294.85 86.2,297.3 86.1,299.95 87.7,298.2 89.15,296.35 90.6,294.65 91.9,292.9 92.35,292.3 92.75,291.7 94.6,289.15 96.35,286.55 98.5,283.35 100.95,280.25 103.45,277.05 106.65,274.55 108.8,273.1 111.05,272.25 111.75,272.05 115.45,270.8 M74.3,282.35 L76,277.9 M106.65,274.55 Q104.3,276.7 102.85,279.65 101.8,281.7 100.7,283.75 99.2,286.7 98.4,289.8 98.15,290.85 97.95,291.95 97.9,292.4 97.9,292.9 97.9,293.1 97.9,293.3 98.45,294.4 99.6,294.8 100.8,295.2 102,294.65 103.15,294.1 104,293.15 104.1,293.05 104.25,292.9 106.15,291 107.75,288.9 110.75,285.1 113.5,280.9 113.75,280.25 113.9,279.7 114.95,276.4 116,273 L116,272.85 Q116.3,271.85 116.25,270.8 M113.5,280.9 Q115.1,278.55 115.45,276.2 115.75,274.6 116,273 M113.5,280.9 Q112.45,284.25 112,287.85 111.8,289.2 112.25,290.55 112.8,292.3 114.35,292.9 114.75,293.05 115.15,293.15 115.4,293.05 115.6,292.9 119.15,291.15 122.25,289 125.7,286.55 128.7,284.05 M16.75,322.4 Q19.5,322.7 22,322.55 25.3,322.4 28.55,322.35 30.5,322.1 32.45,322 34.6,321.85 36.8,321.7 40.35,321.35 43.9,321.05 46.45,320.75 49.1,320.55 51.9,320.2 54.7,319.9 57.7,319.65 60.7,319.4 63.9,319.15 67.05,318.95 70.45,318.75 73.8,318.55 77.4,318.4 80.95,318.2 84.75,318.05 88.55,318 90.4,317.95 92.4,317.9 94.4,317.9 96.4,317.9 98.45,317.85 100.55,317.75 102.65,317.75 104.7,317.75 107.95,317.75 111.3,317.75 114.3,317.75 117.25,317.9 120.25,317.9 123.25,317.9 144.45,318 165.55,318 M100.1,540.15 L104.45,400.7 174.8,400.7 170.8,542.55 M19.45,540.55 L23.85,402.7 79.85,402.7 77.1,538.5 M-66.05,303.7 Q-65.25,300.4 -64.45,297.15 -63.5,293.15 -62.65,289.2 -60.8,281.55 -57,274.7 -53.25,267.8 -47.7,262.15 -43.55,258 -38.5,255.6 -38.15,263.35 -40.65,270.7 -42.3,275.6 -44.2,280.6 -43,277.95 -41.7,275.3 -40.2,272.1 -38,268.85 -36.45,266.35 -34.4,264.45 -34.25,264.3 -34.05,264.15 -32.55,262.85 -31,261.55 -28.15,259.1 -25.4,257.05 -22.95,255.1 -19.8,255.25 -19.85,256.55 -20.05,257.8 -20.15,258.8 -20.45,259.75 -21.35,262.75 -22.2,265.35 -23.75,269.9 -25.3,274.1 -28,281.8 -30.7,289.5 -32.05,293.65 -33,298.3 -33.3,299.9 -33.5,301.55 -30.8,300.9 -28.65,300.45 -26.1,299.65 -23.75,298.45 -21.4,297.3 -19.1,295.95 -20.05,288.35 -17.45,283.75 -14.9,279.1 -13.35,277.3 -11.8,275.45 -10.65,274.95 -10.35,274.75 -10,274.75 -6.8,276.55 -7.35,280.2 -8,283.85 -10,286.9 -11.8,289.85 -14.2,291.85 -16.65,293.9 -19.1,295.95 -19.1,298.15 -18.25,300.25 -17.45,302.15 -15.6,302.75 -14.2,303.1 -12.8,302.25 -9.4,300.5 -7.2,297.45 -6.9,297.1 -6.7,296.7 -5.4,294.85 -4.2,292.9 -4,292.5 -3.7,292.05 -2.85,290.55 -1.85,289.05 L-1.8,289 Q-.5,285.05 2.05,281.75 4.75,278.4 8.6,276.1 9.7,275.6 13.9,275.3 M-1.85,289.05 Q-2.45,291 -2.75,292.9 -2.95,294.05 -3,295.15 -3.15,297.3 -1.6,298.95 -.85,299.8 .1,300.5 1.45,301.5 2.9,300.85 4.15,300.45 5.1,299.45 6.4,298.15 7.25,296.5 8.2,294.75 9,292.9 9.15,292.45 9.35,292 10.4,289.15 11.25,286.25 12.25,282.9 13.35,279.6 13.85,278 14.55,276.2 14.6,276.05 14.7,275.9 14.6,277.1 14.35,278 12.95,282.25 12.2,286.35 11.65,289.65 11.55,292.9 11.5,294.4 11.6,295.85 12.7,294.4 13.8,292.9 14.15,292.4 14.55,291.95 16.55,289.05 18.7,286.55 20,285.05 21.4,283.75 24.05,281.4 27.3,279.6 29.85,276.55 33.6,275.6 33.7,275.65 35.3,276.35 M27.3,279.6 Q25.05,282.1 23.4,284.65 21.75,287.15 20.4,290.05 19.8,291.5 19.45,292.9 19.4,293.05 19.35,293.25 17.95,300.5 24.8,299.45 26.5,299.2 28.1,298.1 29.15,297.25 30.2,296.45 31.2,295.65 31.8,294.6 32.3,293.8 32.7,292.9 32.8,292.65 32.95,292.3 34.2,288.9 34.95,285.6 L35.15,284.4 Q35.45,281.75 35.75,278.9 35.8,278.05 36.1,277.3 36.25,276.9 36.5,276.7 L36.5,276.8 35.15,284.4 M-68.35,339.3 Q-65.95,337.15 -63.4,335.65 -61.25,334.35 -58.95,333.3 -56.3,331.85 -53.5,330.8 -50.6,329.5 -47.65,328.4 -45,327.5 -42.35,326.7 -39.05,325.7 -35.75,325.1 -34.05,324.9 -32.25,324.7 M11.6,295.85 Q11.6,298 11.55,300.15 11.35,303.8 11.05,307.5 10.85,309.3 10.4,311.25 9.65,314.55 8.7,317.9 7.95,320.55 7.1,323.15 6.05,326.8 4.6,330.15 3.75,332.15 2.8,334.1 1.15,337.45 -.6,340.8 -1.25,342.05 -2.05,343.2 -3,344.45 -4.05,345.6 -6.65,348.15 -9.85,349.65 -12.2,350.6 -14.65,351.2 -17.45,351.9 -20.25,352.3 -23.15,352.25 -25.95,351.9 -28.55,351.2 -30.8,349.85 -33.05,348.6 -35,346.95 -37.55,344.75 -36.9,341.45 -36.25,338.8 -34.35,336.65 -32.85,334.95 -31.3,333.15 -30.1,331.8 -28.9,330.5 -27.8,329.35 -26.7,328.45 -24.3,326.55 -22.1,324.9 -19.35,323.05 -16.65,321.05 -15,319.9 -13.35,318.75 -10.3,316.6 -7.25,314.45 -6.95,314.25 -6.7,314.1 -4.3,312.3 -2,310.4 .25,308.65 2.4,306.75 4.9,304.5 7.2,301.65 9.55,298.85 11.6,295.85Z M34.95,285.6 Q34.35,289 34.45,292.55 34.45,292.75 34.5,292.9 34.6,295.5 35.95,297.65 37.1,298 38.2,297.85 41.25,297 41.8,293.95 41.9,293.45 41.8,292.95 M-9.2,323.9 L-.2,323.4 M-62.7,537.3 L-62.7,401.9 -1.55,403.6 -1.55,535.1" test="Mall Front"/>
      <g test="Mall Front">
        <path id="Layer2_0_1_STROKES" stroke="#FFF" stroke-width="1.482" stroke-linejoin="round" stroke-linecap="round" fill="none" d="M-84.107,385.407 L-87.37,385.407 -86.912,379.021 200.54,379.324 193.728,385.407"/>
      </g>
      <g test="Mall Front">
        <path id="Layer3_0_1_STROKES" stroke="#FFF" stroke-width="1.482" stroke-linejoin="round" stroke-linecap="round" fill="none" d="M-88.286,385.272 L194.644,385.306"/>
      </g>
    </g>
  </g>
</svg>