<?xml version="1.0" encoding="utf-8"?>
<svg id="EdithAnim07" image-rendering="inherit" baseProfile="basic" version="1.1" x="0px" y="0px" width="800" height="600" xmlns="http://www.w3.org/2000/svg" xmlns:xlink="http://www.w3.org/1999/xlink">
  <defs>
    <g id="LinePerspective" overflow="visible">
      <path id="Layer4_0_1_STROKES" stroke="#FFF" stroke-width="2" stroke-linejoin="round" stroke-linecap="round" fill="none" d="M-59.65 54.85L59.7 -54.85" test="LinePerspective"/>
    </g>
  </defs>
  <g id="Need-a-mallf47r1" overflow="visible">
    <g id="MallBackAndSide">
      <g id="MallBack">
        <path id="Layer5_0_1_STROKES" stroke="#FFF" stroke-width="2" stroke-linejoin="round" stroke-linecap="round" fill="none" d="M-18.75,182.45 Q-12.9,182.15 145.85,182.8 302.85,183.5 305.3,183.15" test="MallBack"/>
      </g>
      <g id="Mall-Back-right">
        <path id="Layer6_0_1_STROKES" stroke="#FFF" stroke-width="2" stroke-linejoin="round" stroke-linecap="round" fill="none" d="M304.65,183.15 L308.8,472.55" test="Mall Back right"/>
      </g>
    </g>
    <use xlink:href="#LinePerspective" transform="matrix(.758 0 0 .646 265.05 510.2)"/>
    <use xlink:href="#LinePerspective" transform="matrix(.761 0 0 .409 257.8 205.95)"/>
    <use xlink:href="#LinePerspective" transform="matrix(1.089 0 0 .409 -86.1 205.95)"/>
    <g id="Mall-Front">
      <path id="Layer1_0_1_STROKES" stroke="#FFF" stroke-width="2" stroke-linejoin="round" stroke-linecap="round" fill="none" d="M-147.95,228.35 Q-127.5,226.2 -102,223.9 -50.95,219.3 -25.65,218.8 2.4,218.25 65.3,217.7 122.9,217.2 146.75,217.2 165.65,217.2 190.2,219.8 212.25,222.05 215.1,223.55 217.2,224.65 218.15,271.7 219,314.55 218.25,334.75 217.85,345.65 219.05,389.3 220.25,432.65 219.85,442 219.05,461.1 219.05,515.9 219.05,523.45 219.1,535.05 218.95,543.2 217.45,545.3 216.1,547.05 157.85,545.6 154.75,545.55 151.5,545.45 149.25,545.4 147,545.35 146.1,545.35 145.25,545.3 73.2,542.95 63.35,542.95 52.7,542.95 -27.7,542.15 -57.9,541.85 -77.65,541.65 -110.5,541.35 -114.6,541.35 -121.4,541.35 -133.3,543.8 -142.65,545.7 -145.55,544.5 -148.8,543.1 -149.55,489 -150.55,424.05 -151.15,417.4 -152.75,401.05 -151.05,318.1 -149.4,238.25 -147.95,228.35Z" test="Mall Front"/>
      <path id="Layer1_0_2_STROKES" stroke="#F0F" stroke-width="2" stroke-linejoin="round" stroke-linecap="round" fill="none" d="M105.8,284.05 Q108,282.05 110.1,279.95 111.65,278.55 112.9,276.9 115.25,274.1 117.15,270.95 118.8,268.25 119.95,265.35 121.45,261.8 120.5,258 120.4,257.35 120.2,256.8 119.3,256.85 118.4,256.95 117.65,257.2 116.95,257.55 115.45,258.7 114.25,260.15 112.8,262 111.7,264.2 110.3,266.95 109.25,269.9 106.8,276.75 105.8,284.05 105.5,287.2 105.65,290.2 105.7,291.65 106.15,292.9 106.85,295 108.6,296.75 109.3,297.5 110.3,298 113.55,299.7 116.95,297.8 119.95,296.05 122.35,293.5 122.65,293.25 122.9,292.9 124.8,290.85 126.5,288.5 126.85,281.8 129.1,275.45 130.35,272 132,268.75 133.15,266.5 134.75,264.6 136.15,262.95 137.85,261.6 140.2,259.7 143.15,259.5 142.95,260.8 142.65,262 142.3,263.7 141.85,265.35 140.8,268.75 138.95,271.65 136.9,274.75 134.8,277.6 133,280.1 131.15,282.55 128.9,285.6 126.5,288.5 126.3,290.7 126.55,292.9 126.75,294.4 127.2,295.8 128.25,299.5 132.05,300.5 133.9,301 135.85,301.25 139.1,301.6 141.85,299.65 143.8,298.35 145.75,297.05 146.8,296.5 147.5,295.7 148.75,294.35 150,292.9 150.45,292.35 150.9,291.8 M32.2,299.95 Q32.95,296.8 33.7,293.7 33.8,293.3 33.9,292.9 34.7,289.55 35.5,286.15 37.2,278.8 40.85,272.25 44.45,265.65 49.75,260.25 53.65,256.3 58.55,254 58.85,261.45 56.5,268.45 54.9,273.1 53.1,277.9 54.2,275.35 55.5,272.8 56.9,269.8 59,266.65 60.5,264.3 62.45,262.5 62.6,262.3 62.8,262.15 64.2,260.95 65.7,259.65 68.45,257.35 71.1,255.4 73.4,253.55 76.45,253.65 76.4,254.9 76.15,256.1 76.1,257.05 75.8,257.95 74.95,260.85 74.1,263.3 72.65,267.65 71.15,271.65 68.6,279.05 66,286.4 64.95,289.55 64.2,292.9 64,293.9 63.8,294.85 63.3,297.3 63.2,299.95 64.8,298.2 66.25,296.35 67.7,294.65 69,292.9 69.45,292.3 69.85,291.7 71.7,289.15 73.45,286.55 75.6,283.35 78.05,280.25 80.55,277.05 83.75,274.55 85.9,273.1 88.15,272.25 88.85,272.05 92.55,270.8 M51.4,282.35 L53.1,277.9 M83.75,274.55 Q81.4,276.7 79.95,279.65 78.9,281.7 77.8,283.75 76.3,286.7 75.5,289.8 75.25,290.85 75.05,291.95 75,292.4 75,292.9 75,293.1 75,293.3 75.55,294.4 76.7,294.8 77.9,295.2 79.1,294.65 80.25,294.1 81.1,293.15 81.2,293.05 81.35,292.9 83.25,291 84.85,288.9 87.85,285.1 90.6,280.9 90.85,280.25 91,279.7 92.05,276.4 93.1,273 L93.1,272.85 Q93.4,271.85 93.35,270.8 M90.6,280.9 Q92.2,278.55 92.55,276.2 92.85,274.6 93.1,273 M90.6,280.9 Q89.55,284.25 89.1,287.85 88.9,289.2 89.35,290.55 89.9,292.3 91.45,292.9 91.85,293.05 92.25,293.15 92.5,293.05 92.7,292.9 96.25,291.15 99.35,289 102.8,286.55 105.8,284.05 M-6.15,322.4 Q-3.4,322.7 -.9,322.55 2.4,322.4 5.65,322.35 7.6,322.1 9.55,322 11.7,321.85 13.9,321.7 17.45,321.35 21,321.05 23.55,320.75 26.2,320.55 29,320.2 31.8,319.9 34.8,319.65 37.8,319.4 41,319.15 44.15,318.95 47.55,318.75 50.9,318.55 54.5,318.4 58.05,318.2 61.85,318.05 65.65,318 67.5,317.95 69.5,317.9 71.5,317.9 73.5,317.9 75.55,317.85 77.65,317.75 79.75,317.75 81.8,317.75 85.05,317.75 88.4,317.75 91.4,317.75 94.35,317.9 97.35,317.9 100.35,317.9 121.55,318 142.65,318 M77.2,540.15 L81.55,400.7 151.9,400.7 147.9,542.55 M-3.45,540.55 L0.95,402.7 56.95,402.7 54.2,538.5 M-88.95,303.7 Q-88.15,300.4 -87.35,297.15 -86.4,293.15 -85.55,289.2 -83.7,281.55 -79.9,274.7 -76.15,267.8 -70.6,262.15 -66.45,258 -61.4,255.6 -61.05,263.35 -63.55,270.7 -65.2,275.6 -67.1,280.6 -65.9,277.95 -64.6,275.3 -63.1,272.1 -60.9,268.85 -59.35,266.35 -57.3,264.45 -57.15,264.3 -56.95,264.15 -55.45,262.85 -53.9,261.55 -51.05,259.1 -48.3,257.05 -45.85,255.1 -42.7,255.25 -42.75,256.55 -42.95,257.8 -43.05,258.8 -43.35,259.75 -44.25,262.75 -45.1,265.35 -46.65,269.9 -48.2,274.1 -50.9,281.8 -53.6,289.5 -54.95,293.65 -55.9,298.3 -56.2,299.9 -56.4,301.55 -53.7,300.9 -51.55,300.45 -49,299.65 -46.65,298.45 -44.3,297.3 -42,295.95 -42.95,288.35 -40.35,283.75 -37.8,279.1 -36.25,277.3 -34.7,275.45 -33.55,274.95 -33.25,274.75 -32.9,274.75 -29.7,276.55 -30.25,280.2 -30.9,283.85 -32.9,286.9 -34.7,289.85 -37.1,291.85 -39.55,293.9 -42,295.95 -42,298.15 -41.15,300.25 -40.35,302.15 -38.5,302.75 -37.1,303.1 -35.7,302.25 -32.3,300.5 -30.1,297.45 -29.8,297.1 -29.6,296.7 -28.3,294.85 -27.1,292.9 -26.9,292.5 -26.6,292.05 -25.75,290.55 -24.75,289.05 L-24.7,289 Q-23.4,285.05 -20.85,281.75 -18.15,278.4 -14.3,276.1 -13.2,275.6 -9,275.3 M-24.75,289.05 Q-25.35,291 -25.65,292.9 -25.85,294.05 -25.9,295.15 -26.05,297.3 -24.5,298.95 -23.75,299.8 -22.8,300.5 -21.45,301.5 -20,300.85 -18.75,300.45 -17.8,299.45 -16.5,298.15 -15.65,296.5 -14.7,294.75 -13.9,292.9 -13.75,292.45 -13.55,292 -12.5,289.15 -11.65,286.25 -10.65,282.9 -9.55,279.6 -9.05,278 -8.35,276.2 -8.3,276.05 -8.2,275.9 -8.3,277.1 -8.55,278 -9.95,282.25 -10.7,286.35 -11.25,289.65 -11.35,292.9 -11.4,294.4 -11.3,295.85 -10.2,294.4 -9.1,292.9 -8.75,292.4 -8.35,291.95 -6.35,289.05 -4.2,286.55 -2.9,285.05 -1.5,283.75 1.15,281.4 4.4,279.6 6.95,276.55 10.7,275.6 10.8,275.65 12.4,276.35 M4.4,279.6 Q2.15,282.1 .5,284.65 -1.15,287.15 -2.5,290.05 -3.1,291.5 -3.45,292.9 -3.5,293.05 -3.55,293.25 -4.95,300.5 1.9,299.45 3.6,299.2 5.2,298.1 6.25,297.25 7.3,296.45 8.3,295.65 8.9,294.6 9.4,293.8 9.8,292.9 9.9,292.65 10.05,292.3 11.3,288.9 12.05,285.6 L12.25,284.4 Q12.55,281.75 12.85,278.9 12.9,278.05 13.2,277.3 13.35,276.9 13.6,276.7 L13.6,276.8 12.25,284.4 M-91.25,339.3 Q-88.85,337.15 -86.3,335.65 -84.15,334.35 -81.85,333.3 -79.2,331.85 -76.4,330.8 -73.5,329.5 -70.55,328.4 -67.9,327.5 -65.25,326.7 -61.95,325.7 -58.65,325.1 -56.95,324.9 -55.15,324.7 M-11.3,295.85 Q-11.3,298 -11.35,300.15 -11.55,303.8 -11.85,307.5 -12.05,309.3 -12.5,311.25 -13.25,314.55 -14.2,317.9 -14.95,320.55 -15.8,323.15 -16.85,326.8 -18.3,330.15 -19.15,332.15 -20.1,334.1 -21.75,337.45 -23.5,340.8 -24.15,342.05 -24.95,343.2 -25.9,344.45 -26.95,345.6 -29.55,348.15 -32.75,349.65 -35.1,350.6 -37.55,351.2 -40.35,351.9 -43.15,352.3 -46.05,352.25 -48.85,351.9 -51.45,351.2 -53.7,349.85 -55.95,348.6 -57.9,346.95 -60.45,344.75 -59.8,341.45 -59.15,338.8 -57.25,336.65 -55.75,334.95 -54.2,333.15 -53,331.8 -51.8,330.5 -50.7,329.35 -49.6,328.45 -47.2,326.55 -45,324.9 -42.25,323.05 -39.55,321.05 -37.9,319.9 -36.25,318.75 -33.2,316.6 -30.15,314.45 -29.85,314.25 -29.6,314.1 -27.2,312.3 -24.9,310.4 -22.65,308.65 -20.5,306.75 -18,304.5 -15.7,301.65 -13.35,298.85 -11.3,295.85Z M12.05,285.6 Q11.45,289 11.55,292.55 11.55,292.75 11.6,292.9 11.7,295.5 13.05,297.65 14.2,298 15.3,297.85 18.35,297 18.9,293.95 19,293.45 18.9,292.95 M-32.1,323.9 L-23.1,323.4 M-85.6,537.3 L-85.6,401.9 -24.45,403.6 -24.45,535.1" test="Mall Front"/>
      <g test="Mall Front">
        <path id="Layer2_0_1_STROKES" stroke="#FFF" stroke-width="1.482" stroke-linejoin="round" stroke-linecap="round" fill="none" d="M-107.007,385.407 L-110.27,385.407 -109.812,379.021 177.64,379.324 170.828,385.407"/>
      </g>
      <g test="Mall Front">
        <path id="Layer3_0_1_STROKES" stroke="#FFF" stroke-width="1.482" stroke-linejoin="round" stroke-linecap="round" fill="none" d="M-111.186,385.272 L171.744,385.306"/>
      </g>
    </g>
  </g>
</svg>