<?xml version="1.0" encoding="utf-8"?>
<svg id="EdithAnim07" image-rendering="inherit" baseProfile="basic" version="1.1" x="0px" y="0px" width="800" height="600" xmlns="http://www.w3.org/2000/svg" xmlns:xlink="http://www.w3.org/1999/xlink">
  <defs>
    <g id="LinePerspective" overflow="visible">
      <path id="Layer4_0_1_STROKES" stroke="#FFF" stroke-width="2" stroke-linejoin="round" stroke-linecap="round" fill="none" d="M-59.65 54.85L59.7 -54.85" test="LinePerspective"/>
    </g>
  </defs>
  <g id="Need-a-mallf49r1" overflow="visible">
    <g id="MallBackAndSide">
      <g id="MallBack">
        <path id="Layer5_0_1_STROKES" stroke="#FFF" stroke-width="2" stroke-linejoin="round" stroke-linecap="round" fill="none" d="M-60.15,182.45 Q-54.3,182.15 104.45,182.8 261.45,183.5 263.9,183.15" test="MallBack"/>
      </g>
      <g id="Mall-Back-right">
        <path id="Layer6_0_1_STROKES" stroke="#FFF" stroke-width="2" stroke-linejoin="round" stroke-linecap="round" fill="none" d="M263.25,183.15 L267.4,472.55" test="Mall Back right"/>
      </g>
    </g>
    <use xlink:href="#LinePerspective" transform="matrix(.826 0 0 .641 219.4 510.45)"/>
    <use xlink:href="#LinePerspective" transform="matrix(.829 0 0 .407 212.25 206.05)"/>
    <use xlink:href="#LinePerspective" transform="matrix(1.158 0 0 .407 -131.75 206.05)"/>
    <g id="Mall-Front">
      <path id="Layer1_0_1_STROKES" stroke="#FFF" stroke-width="2" stroke-linejoin="round" stroke-linecap="round" fill="none" d="M-197.6,228.35 Q-177.15,226.2 -151.65,223.9 -100.6,219.3 -75.3,218.8 -47.25,218.25 15.65,217.7 73.25,217.2 97.1,217.2 116,217.2 140.55,219.8 162.6,222.05 165.45,223.55 167.55,224.65 168.5,271.7 169.35,314.55 168.6,334.75 168.2,345.65 169.4,389.3 170.6,432.65 170.2,442 169.4,461.1 169.4,515.9 169.4,523.45 169.45,535.05 169.3,543.2 167.8,545.3 166.45,547.05 108.2,545.6 105.1,545.55 101.85,545.45 99.6,545.4 97.35,545.35 96.45,545.35 95.6,545.3 23.55,542.95 13.7,542.95 3.05,542.95 -77.35,542.15 -107.55,541.85 -127.3,541.65 -160.15,541.35 -164.25,541.35 -171.05,541.35 -182.95,543.8 -192.3,545.7 -195.2,544.5 -198.45,543.1 -199.2,489 -200.2,424.05 -200.8,417.4 -202.4,401.05 -200.7,318.1 -199.05,238.25 -197.6,228.35Z" test="Mall Front"/>
      <path id="Layer1_0_2_STROKES" stroke="#F0F" stroke-width="2" stroke-linejoin="round" stroke-linecap="round" fill="none" d="M56.15,284.05 Q58.35,282.05 60.45,279.95 62,278.55 63.25,276.9 65.6,274.1 67.5,270.95 69.15,268.25 70.3,265.35 71.8,261.8 70.85,258 70.75,257.35 70.55,256.8 69.65,256.85 68.75,256.95 68,257.2 67.3,257.55 65.8,258.7 64.6,260.15 63.15,262 62.05,264.2 60.65,266.95 59.6,269.9 57.15,276.75 56.15,284.05 55.85,287.2 56,290.2 56.05,291.65 56.5,292.9 57.2,295 58.95,296.75 59.65,297.5 60.65,298 63.9,299.7 67.3,297.8 70.3,296.05 72.7,293.5 73,293.25 73.25,292.9 75.15,290.85 76.85,288.5 77.2,281.8 79.45,275.45 80.7,272 82.35,268.75 83.5,266.5 85.1,264.6 86.5,262.95 88.2,261.6 90.55,259.7 93.5,259.5 93.3,260.8 93,262 92.65,263.7 92.2,265.35 91.15,268.75 89.3,271.65 87.25,274.75 85.15,277.6 83.35,280.1 81.5,282.55 79.25,285.6 76.85,288.5 76.65,290.7 76.9,292.9 77.1,294.4 77.55,295.8 78.6,299.5 82.4,300.5 84.25,301 86.2,301.25 89.45,301.6 92.2,299.65 94.15,298.35 96.1,297.05 97.15,296.5 97.85,295.7 99.1,294.35 100.35,292.9 100.8,292.35 101.25,291.8 M-17.45,299.95 Q-16.7,296.8 -15.95,293.7 -15.85,293.3 -15.75,292.9 -14.95,289.55 -14.15,286.15 -12.45,278.8 -8.8,272.25 -5.2,265.65 .1,260.25 4,256.3 8.9,254 9.2,261.45 6.85,268.45 5.25,273.1 3.45,277.9 4.55,275.35 5.85,272.8 7.25,269.8 9.35,266.65 10.85,264.3 12.8,262.5 12.95,262.3 13.15,262.15 14.55,260.95 16.05,259.65 18.8,257.35 21.45,255.4 23.75,253.55 26.8,253.65 26.75,254.9 26.5,256.1 26.45,257.05 26.15,257.95 25.3,260.85 24.45,263.3 23,267.65 21.5,271.65 18.95,279.05 16.35,286.4 15.3,289.55 14.55,292.9 14.35,293.9 14.15,294.85 13.65,297.3 13.55,299.95 15.15,298.2 16.6,296.35 18.05,294.65 19.35,292.9 19.8,292.3 20.2,291.7 22.05,289.15 23.8,286.55 25.95,283.35 28.4,280.25 30.9,277.05 34.1,274.55 36.25,273.1 38.5,272.25 39.2,272.05 42.9,270.8 M1.75,282.35 L3.45,277.9 M34.1,274.55 Q31.75,276.7 30.3,279.65 29.25,281.7 28.15,283.75 26.65,286.7 25.85,289.8 25.6,290.85 25.4,291.95 25.35,292.4 25.35,292.9 25.35,293.1 25.35,293.3 25.9,294.4 27.05,294.8 28.25,295.2 29.45,294.65 30.6,294.1 31.45,293.15 31.55,293.05 31.7,292.9 33.6,291 35.2,288.9 38.2,285.1 40.95,280.9 41.2,280.25 41.35,279.7 42.4,276.4 43.45,273 L43.45,272.85 Q43.75,271.85 43.7,270.8 M40.95,280.9 Q42.55,278.55 42.9,276.2 43.2,274.6 43.45,273 M40.95,280.9 Q39.9,284.25 39.45,287.85 39.25,289.2 39.7,290.55 40.25,292.3 41.8,292.9 42.2,293.05 42.6,293.15 42.85,293.05 43.05,292.9 46.6,291.15 49.7,289 53.15,286.55 56.15,284.05 M-55.8,322.4 Q-53.05,322.7 -50.55,322.55 -47.25,322.4 -44,322.35 -42.05,322.1 -40.1,322 -37.95,321.85 -35.75,321.7 -32.2,321.35 -28.65,321.05 -26.1,320.75 -23.45,320.55 -20.65,320.2 -17.85,319.9 -14.85,319.65 -11.85,319.4 -8.65,319.15 -5.5,318.95 -2.1,318.75 1.25,318.55 4.85,318.4 8.4,318.2 12.2,318.05 16,318 17.85,317.95 19.85,317.9 21.85,317.9 23.85,317.9 25.9,317.85 28,317.75 30.1,317.75 32.15,317.75 35.4,317.75 38.75,317.75 41.75,317.75 44.7,317.9 47.7,317.9 50.7,317.9 71.9,318 93,318 M27.55,540.15 L31.9,400.7 102.25,400.7 98.25,542.55 M-53.1,540.55 L-48.7,402.7 7.3,402.7 4.55,538.5 M-138.6,303.7 Q-137.8,300.4 -137,297.15 -136.05,293.15 -135.2,289.2 -133.35,281.55 -129.55,274.7 -125.8,267.8 -120.25,262.15 -116.1,258 -111.05,255.6 -110.7,263.35 -113.2,270.7 -114.85,275.6 -116.75,280.6 -115.55,277.95 -114.25,275.3 -112.75,272.1 -110.55,268.85 -109,266.35 -106.95,264.45 -106.8,264.3 -106.6,264.15 -105.1,262.85 -103.55,261.55 -100.7,259.1 -97.95,257.05 -95.5,255.1 -92.35,255.25 -92.4,256.55 -92.6,257.8 -92.7,258.8 -93,259.75 -93.9,262.75 -94.75,265.35 -96.3,269.9 -97.85,274.1 -100.55,281.8 -103.25,289.5 -104.6,293.65 -105.55,298.3 -105.85,299.9 -106.05,301.55 -103.35,300.9 -101.2,300.45 -98.65,299.65 -96.3,298.45 -93.95,297.3 -91.65,295.95 -92.6,288.35 -90,283.75 -87.45,279.1 -85.9,277.3 -84.35,275.45 -83.2,274.95 -82.9,274.75 -82.55,274.75 -79.35,276.55 -79.9,280.2 -80.55,283.85 -82.55,286.9 -84.35,289.85 -86.75,291.85 -89.2,293.9 -91.65,295.95 -91.65,298.15 -90.8,300.25 -90,302.15 -88.15,302.75 -86.75,303.1 -85.35,302.25 -81.95,300.5 -79.75,297.45 -79.45,297.1 -79.25,296.7 -77.95,294.85 -76.75,292.9 -76.55,292.5 -76.25,292.05 -75.4,290.55 -74.4,289.05 L-74.35,289 Q-73.05,285.05 -70.5,281.75 -67.8,278.4 -63.95,276.1 -62.85,275.6 -58.65,275.3 M-74.4,289.05 Q-75,291 -75.3,292.9 -75.5,294.05 -75.55,295.15 -75.7,297.3 -74.15,298.95 -73.4,299.8 -72.45,300.5 -71.1,301.5 -69.65,300.85 -68.4,300.45 -67.45,299.45 -66.15,298.15 -65.3,296.5 -64.35,294.75 -63.55,292.9 -63.4,292.45 -63.2,292 -62.15,289.15 -61.3,286.25 -60.3,282.9 -59.2,279.6 -58.7,278 -58,276.2 -57.95,276.05 -57.85,275.9 -57.95,277.1 -58.2,278 -59.6,282.25 -60.35,286.35 -60.9,289.65 -61,292.9 -61.05,294.4 -60.95,295.85 -59.85,294.4 -58.75,292.9 -58.4,292.4 -58,291.95 -56,289.05 -53.85,286.55 -52.55,285.05 -51.15,283.75 -48.5,281.4 -45.25,279.6 -42.7,276.55 -38.95,275.6 -38.85,275.65 -37.25,276.35 M-45.25,279.6 Q-47.5,282.1 -49.15,284.65 -50.8,287.15 -52.15,290.05 -52.75,291.5 -53.1,292.9 -53.15,293.05 -53.2,293.25 -54.6,300.5 -47.75,299.45 -46.05,299.2 -44.45,298.1 -43.4,297.25 -42.35,296.45 -41.35,295.65 -40.75,294.6 -40.25,293.8 -39.85,292.9 -39.75,292.65 -39.6,292.3 -38.35,288.9 -37.6,285.6 L-37.4,284.4 Q-37.1,281.75 -36.8,278.9 -36.75,278.05 -36.45,277.3 -36.3,276.9 -36.05,276.7 L-36.05,276.8 -37.4,284.4 M-140.9,339.3 Q-138.5,337.15 -135.95,335.65 -133.8,334.35 -131.5,333.3 -128.85,331.85 -126.05,330.8 -123.15,329.5 -120.2,328.4 -117.55,327.5 -114.9,326.7 -111.6,325.7 -108.3,325.1 -106.6,324.9 -104.8,324.7 M-60.95,295.85 Q-60.95,298 -61,300.15 -61.2,303.8 -61.5,307.5 -61.7,309.3 -62.15,311.25 -62.9,314.55 -63.85,317.9 -64.6,320.55 -65.45,323.15 -66.5,326.8 -67.95,330.15 -68.8,332.15 -69.75,334.1 -71.4,337.45 -73.15,340.8 -73.8,342.05 -74.6,343.2 -75.55,344.45 -76.6,345.6 -79.2,348.15 -82.4,349.65 -84.75,350.6 -87.2,351.2 -90,351.9 -92.8,352.3 -95.7,352.25 -98.5,351.9 -101.1,351.2 -103.35,349.85 -105.6,348.6 -107.55,346.95 -110.1,344.75 -109.45,341.45 -108.8,338.8 -106.9,336.65 -105.4,334.95 -103.85,333.15 -102.65,331.8 -101.45,330.5 -100.35,329.35 -99.25,328.45 -96.85,326.55 -94.65,324.9 -91.9,323.05 -89.2,321.05 -87.55,319.9 -85.9,318.75 -82.85,316.6 -79.8,314.45 -79.5,314.25 -79.25,314.1 -76.85,312.3 -74.55,310.4 -72.3,308.65 -70.15,306.75 -67.65,304.5 -65.35,301.65 -63,298.85 -60.95,295.85Z M-37.6,285.6 Q-38.2,289 -38.1,292.55 -38.1,292.75 -38.05,292.9 -37.95,295.5 -36.6,297.65 -35.45,298 -34.35,297.85 -31.3,297 -30.75,293.95 -30.65,293.45 -30.75,292.95 M-81.75,323.9 L-72.75,323.4 M-135.25,537.3 L-135.25,401.9 -74.1,403.6 -74.1,535.1" test="Mall Front"/>
      <g test="Mall Front">
        <path id="Layer2_0_1_STROKES" stroke="#FFF" stroke-width="1.482" stroke-linejoin="round" stroke-linecap="round" fill="none" d="M-156.657,385.407 L-159.92,385.407 -159.462,379.021 127.99,379.324 121.178,385.407"/>
      </g>
      <g test="Mall Front">
        <path id="Layer3_0_1_STROKES" stroke="#FFF" stroke-width="1.482" stroke-linejoin="round" stroke-linecap="round" fill="none" d="M-160.836,385.272 L122.094,385.306"/>
      </g>
    </g>
  </g>
</svg>