<?xml version="1.0" encoding="utf-8"?>
<svg id="EdithAnim07" image-rendering="inherit" baseProfile="basic" version="1.1" x="0px" y="0px" width="800" height="600" xmlns="http://www.w3.org/2000/svg" xmlns:xlink="http://www.w3.org/1999/xlink">
  <defs>
    <g id="LinePerspective" overflow="visible">
      <path id="Layer4_0_1_STROKES" stroke="#FFF" stroke-width="2" stroke-linejoin="round" stroke-linecap="round" fill="none" d="M-59.65 54.85L59.7 -54.85" test="LinePerspective"/>
    </g>
  </defs>
  <g id="Need-a-mallf52r1" overflow="visible">
    <g id="MallBackAndSide">
      <g id="MallBack">
        <path id="Layer5_0_1_STROKES" stroke="#FFF" stroke-width="2" stroke-linejoin="round" stroke-linecap="round" fill="none" d="M-130.35,182.45 Q-124.5,182.15 34.25,182.8 191.25,183.5 193.7,183.15" test="MallBack"/>
      </g>
      <g id="Mall-Back-right">
        <path id="Layer6_0_1_STROKES" stroke="#FFF" stroke-width="2" stroke-linejoin="round" stroke-linecap="round" fill="none" d="M193.05,183.15 L197.2,472.55" test="Mall Back right"/>
      </g>
    </g>
    <use xlink:href="#LinePerspective" transform="matrix(.941 0 0 .633 142 510.9)"/>
    <use xlink:href="#LinePerspective" transform="matrix(.945 0 0 .403 134.8 206.25)"/>
    <use xlink:href="#LinePerspective" transform="matrix(1.275 0 0 .403 -209.05 206.25)"/>
    <g id="Mall-Front">
      <path id="Layer1_0_1_STROKES" stroke="#FFF" stroke-width="2" stroke-linejoin="round" stroke-linecap="round" fill="none" d="M-281.85,228.35 Q-261.4,226.2 -235.9,223.9 -184.85,219.3 -159.55,218.8 -131.5,218.25 -68.6,217.7 -11,217.2 12.85,217.2 31.75,217.2 56.3,219.8 78.35,222.05 81.2,223.55 83.3,224.65 84.25,271.7 85.1,314.55 84.35,334.75 83.95,345.65 85.15,389.3 86.35,432.65 85.95,442 85.15,461.1 85.15,515.9 85.15,523.45 85.2,535.05 85.05,543.2 83.55,545.3 82.2,547.05 23.95,545.6 20.85,545.55 17.6,545.45 15.35,545.4 13.1,545.35 12.2,545.35 11.35,545.3 -60.7,542.95 -70.55,542.95 -81.2,542.95 -161.6,542.15 -191.8,541.85 -211.55,541.65 -244.4,541.35 -248.5,541.35 -255.3,541.35 -267.2,543.8 -276.55,545.7 -279.45,544.5 -282.7,543.1 -283.45,489 -284.45,424.05 -285.05,417.4 -286.65,401.05 -284.95,318.1 -283.3,238.25 -281.85,228.35Z" test="Mall Front"/>
      <path id="Layer1_0_2_STROKES" stroke="#F0F" stroke-width="2" stroke-linejoin="round" stroke-linecap="round" fill="none" d="M-28.1,284.05 Q-25.9,282.05 -23.8,279.95 -22.25,278.55 -21,276.9 -18.65,274.1 -16.75,270.95 -15.1,268.25 -13.95,265.35 -12.45,261.8 -13.4,258 -13.5,257.35 -13.7,256.8 -14.6,256.85 -15.5,256.95 -16.25,257.2 -16.95,257.55 -18.45,258.7 -19.65,260.15 -21.1,262 -22.2,264.2 -23.6,266.95 -24.65,269.9 -27.1,276.75 -28.1,284.05 -28.4,287.2 -28.25,290.2 -28.2,291.65 -27.75,292.9 -27.05,295 -25.3,296.75 -24.6,297.5 -23.6,298 -20.35,299.7 -16.95,297.8 -13.95,296.05 -11.55,293.5 -11.25,293.25 -11,292.9 -9.1,290.85 -7.4,288.5 -7.05,281.8 -4.8,275.45 -3.55,272 -1.9,268.75 -.75,266.5 .85,264.6 2.25,262.95 3.95,261.6 6.3,259.7 9.25,259.5 9.05,260.8 8.75,262 8.4,263.7 7.95,265.35 6.9,268.75 5.05,271.65 3,274.75 .9,277.6 -.9,280.1 -2.75,282.55 -5,285.6 -7.4,288.5 -7.6,290.7 -7.35,292.9 -7.15,294.4 -6.7,295.8 -5.65,299.5 -1.85,300.5 0,301 1.95,301.25 5.2,301.6 7.95,299.65 9.9,298.35 11.85,297.05 12.9,296.5 13.6,295.7 14.85,294.35 16.1,292.9 16.55,292.35 17,291.8 M-101.7,299.95 Q-100.95,296.8 -100.2,293.7 -100.1,293.3 -100,292.9 -99.2,289.55 -98.4,286.15 -96.7,278.8 -93.05,272.25 -89.45,265.65 -84.15,260.25 -80.25,256.3 -75.35,254 -75.05,261.45 -77.4,268.45 -79,273.1 -80.8,277.9 -79.7,275.35 -78.4,272.8 -77,269.8 -74.9,266.65 -73.4,264.3 -71.45,262.5 -71.3,262.3 -71.1,262.15 -69.7,260.95 -68.2,259.65 -65.45,257.35 -62.8,255.4 -60.5,253.55 -57.45,253.65 -57.5,254.9 -57.75,256.1 -57.8,257.05 -58.1,257.95 -58.95,260.85 -59.8,263.3 -61.25,267.65 -62.75,271.65 -65.3,279.05 -67.9,286.4 -68.95,289.55 -69.7,292.9 -69.9,293.9 -70.1,294.85 -70.6,297.3 -70.7,299.95 -69.1,298.2 -67.65,296.35 -66.2,294.65 -64.9,292.9 -64.45,292.3 -64.05,291.7 -62.2,289.15 -60.45,286.55 -58.3,283.35 -55.85,280.25 -53.35,277.05 -50.15,274.55 -48,273.1 -45.75,272.25 -45.05,272.05 -41.35,270.8 M-82.5,282.35 L-80.8,277.9 M-50.15,274.55 Q-52.5,276.7 -53.95,279.65 -55,281.7 -56.1,283.75 -57.6,286.7 -58.4,289.8 -58.65,290.85 -58.85,291.95 -58.9,292.4 -58.9,292.9 -58.9,293.1 -58.9,293.3 -58.35,294.4 -57.2,294.8 -56,295.2 -54.8,294.65 -53.65,294.1 -52.8,293.15 -52.7,293.05 -52.55,292.9 -50.65,291 -49.05,288.9 -46.05,285.1 -43.3,280.9 -43.05,280.25 -42.9,279.7 -41.85,276.4 -40.8,273 L-40.8,272.85 Q-40.5,271.85 -40.55,270.8 M-43.3,280.9 Q-41.7,278.55 -41.35,276.2 -41.05,274.6 -40.8,273 M-43.3,280.9 Q-44.35,284.25 -44.8,287.85 -45,289.2 -44.55,290.55 -44,292.3 -42.45,292.9 -42.05,293.05 -41.65,293.15 -41.4,293.05 -41.2,292.9 -37.65,291.15 -34.55,289 -31.1,286.55 -28.1,284.05 M-140.05,322.4 Q-137.3,322.7 -134.8,322.55 -131.5,322.4 -128.25,322.35 -126.3,322.1 -124.35,322 -122.2,321.85 -120,321.7 -116.45,321.35 -112.9,321.05 -110.35,320.75 -107.7,320.55 -104.9,320.2 -102.1,319.9 -99.1,319.65 -96.1,319.4 -92.9,319.15 -89.75,318.95 -86.35,318.75 -83,318.55 -79.4,318.4 -75.85,318.2 -72.05,318.05 -68.25,318 -66.4,317.95 -64.4,317.9 -62.4,317.9 -60.4,317.9 -58.35,317.85 -56.25,317.75 -54.15,317.75 -52.1,317.75 -48.85,317.75 -45.5,317.75 -42.5,317.75 -39.55,317.9 -36.55,317.9 -33.55,317.9 -12.35,318 8.75,318 M-56.7,540.15 L-52.35,400.7 18,400.7 14,542.55 M-137.35,540.55 L-132.95,402.7 -76.95,402.7 -79.7,538.5 M-222.85,303.7 Q-222.05,300.4 -221.25,297.15 -220.3,293.15 -219.45,289.2 -217.6,281.55 -213.8,274.7 -210.05,267.8 -204.5,262.15 -200.35,258 -195.3,255.6 -194.95,263.35 -197.45,270.7 -199.1,275.6 -201,280.6 -199.8,277.95 -198.5,275.3 -197,272.1 -194.8,268.85 -193.25,266.35 -191.2,264.45 -191.05,264.3 -190.85,264.15 -189.35,262.85 -187.8,261.55 -184.95,259.1 -182.2,257.05 -179.75,255.1 -176.6,255.25 -176.65,256.55 -176.85,257.8 -176.95,258.8 -177.25,259.75 -178.15,262.75 -179,265.35 -180.55,269.9 -182.1,274.1 -184.8,281.8 -187.5,289.5 -188.85,293.65 -189.8,298.3 -190.1,299.9 -190.3,301.55 -187.6,300.9 -185.45,300.45 -182.9,299.65 -180.55,298.45 -178.2,297.3 -175.9,295.95 -176.85,288.35 -174.25,283.75 -171.7,279.1 -170.15,277.3 -168.6,275.45 -167.45,274.95 -167.15,274.75 -166.8,274.75 -163.6,276.55 -164.15,280.2 -164.8,283.85 -166.8,286.9 -168.6,289.85 -171,291.85 -173.45,293.9 -175.9,295.95 -175.9,298.15 -175.05,300.25 -174.25,302.15 -172.4,302.75 -171,303.1 -169.6,302.25 -166.2,300.5 -164,297.45 -163.7,297.1 -163.5,296.7 -162.2,294.85 -161,292.9 -160.8,292.5 -160.5,292.05 -159.65,290.55 -158.65,289.05 L-158.6,289 Q-157.3,285.05 -154.75,281.75 -152.05,278.4 -148.2,276.1 -147.1,275.6 -142.9,275.3 M-158.65,289.05 Q-159.25,291 -159.55,292.9 -159.75,294.05 -159.8,295.15 -159.95,297.3 -158.4,298.95 -157.65,299.8 -156.7,300.5 -155.35,301.5 -153.9,300.85 -152.65,300.45 -151.7,299.45 -150.4,298.15 -149.55,296.5 -148.6,294.75 -147.8,292.9 -147.65,292.45 -147.45,292 -146.4,289.15 -145.55,286.25 -144.55,282.9 -143.45,279.6 -142.95,278 -142.25,276.2 -142.2,276.05 -142.1,275.9 -142.2,277.1 -142.45,278 -143.85,282.25 -144.6,286.35 -145.15,289.65 -145.25,292.9 -145.3,294.4 -145.2,295.85 -144.1,294.4 -143,292.9 -142.65,292.4 -142.25,291.95 -140.25,289.05 -138.1,286.55 -136.8,285.05 -135.4,283.75 -132.75,281.4 -129.5,279.6 -126.95,276.55 -123.2,275.6 -123.1,275.65 -121.5,276.35 M-129.5,279.6 Q-131.75,282.1 -133.4,284.65 -135.05,287.15 -136.4,290.05 -137,291.5 -137.35,292.9 -137.4,293.05 -137.45,293.25 -138.85,300.5 -132,299.45 -130.3,299.2 -128.7,298.1 -127.65,297.25 -126.6,296.45 -125.6,295.65 -125,294.6 -124.5,293.8 -124.1,292.9 -124,292.65 -123.85,292.3 -122.6,288.9 -121.85,285.6 L-121.65,284.4 Q-121.35,281.75 -121.05,278.9 -121,278.05 -120.7,277.3 -120.55,276.9 -120.3,276.7 L-120.3,276.8 -121.65,284.4 M-225.15,339.3 Q-222.75,337.15 -220.2,335.65 -218.05,334.35 -215.75,333.3 -213.1,331.85 -210.3,330.8 -207.4,329.5 -204.45,328.4 -201.8,327.5 -199.15,326.7 -195.85,325.7 -192.55,325.1 -190.85,324.9 -189.05,324.7 M-145.2,295.85 Q-145.2,298 -145.25,300.15 -145.45,303.8 -145.75,307.5 -145.95,309.3 -146.4,311.25 -147.15,314.55 -148.1,317.9 -148.85,320.55 -149.7,323.15 -150.75,326.8 -152.2,330.15 -153.05,332.15 -154,334.1 -155.65,337.45 -157.4,340.8 -158.05,342.05 -158.85,343.2 -159.8,344.45 -160.85,345.6 -163.45,348.15 -166.65,349.65 -169,350.6 -171.45,351.2 -174.25,351.9 -177.05,352.3 -179.95,352.25 -182.75,351.9 -185.35,351.2 -187.6,349.85 -189.85,348.6 -191.8,346.95 -194.35,344.75 -193.7,341.45 -193.05,338.8 -191.15,336.65 -189.65,334.95 -188.1,333.15 -186.9,331.8 -185.7,330.5 -184.6,329.35 -183.5,328.45 -181.1,326.55 -178.9,324.9 -176.15,323.05 -173.45,321.05 -171.8,319.9 -170.15,318.75 -167.1,316.6 -164.05,314.45 -163.75,314.25 -163.5,314.1 -161.1,312.3 -158.8,310.4 -156.55,308.65 -154.4,306.75 -151.9,304.5 -149.6,301.65 -147.25,298.85 -145.2,295.85Z M-121.85,285.6 Q-122.45,289 -122.35,292.55 -122.35,292.75 -122.3,292.9 -122.2,295.5 -120.85,297.65 -119.7,298 -118.6,297.85 -115.55,297 -115,293.95 -114.9,293.45 -115,292.95 M-166,323.9 L-157,323.4 M-219.5,537.3 L-219.5,401.9 -158.35,403.6 -158.35,535.1" test="Mall Front"/>
      <g test="Mall Front">
        <path id="Layer2_0_1_STROKES" stroke="#FFF" stroke-width="1.482" stroke-linejoin="round" stroke-linecap="round" fill="none" d="M-240.907,385.407 L-244.17,385.407 -243.712,379.021 43.74,379.324 36.928,385.407"/>
      </g>
      <g test="Mall Front">
        <path id="Layer3_0_1_STROKES" stroke="#FFF" stroke-width="1.482" stroke-linejoin="round" stroke-linecap="round" fill="none" d="M-245.086,385.272 L37.844,385.306"/>
      </g>
    </g>
  </g>
</svg>