<?xml version="1.0" encoding="utf-8"?>
<svg id="EdithAnim07" image-rendering="inherit" baseProfile="basic" version="1.1" x="0px" y="0px" width="800" height="600" xmlns="http://www.w3.org/2000/svg" xmlns:xlink="http://www.w3.org/1999/xlink">
  <defs>
    <g id="LinePerspective" overflow="visible">
      <path id="Layer4_0_1_STROKES" stroke="#FFF" stroke-width="2" stroke-linejoin="round" stroke-linecap="round" fill="none" d="M-59.65 54.85L59.7 -54.85" test="LinePerspective"/>
    </g>
  </defs>
  <g id="Need-a-mallf53r1" overflow="visible">
    <g id="MallBackAndSide">
      <g id="MallBack">
        <path id="Layer5_0_1_STROKES" stroke="#FFF" stroke-width="2" stroke-linejoin="round" stroke-linecap="round" fill="none" d="M-155.95,182.45 Q-150.1,182.15 8.65,182.8 165.65,183.5 168.1,183.15" test="MallBack"/>
      </g>
      <g id="Mall-Back-right">
        <path id="Layer6_0_1_STROKES" stroke="#FFF" stroke-width="2" stroke-linejoin="round" stroke-linecap="round" fill="none" d="M167.45,183.15 L171.6,472.55" test="Mall Back right"/>
      </g>
    </g>
    <use xlink:href="#LinePerspective" transform="matrix(.983 0 0 .63 113.75 511.05)"/>
    <use xlink:href="#LinePerspective" transform="matrix(.987 0 0 .402 106.6 206.35)"/>
    <use xlink:href="#LinePerspective" transform="matrix(1.317 0 0 .402 -237.25 206.35)"/>
    <g id="Mall-Front">
      <path id="Layer1_0_1_STROKES" stroke="#FFF" stroke-width="2" stroke-linejoin="round" stroke-linecap="round" fill="none" d="M-312.55,228.35 Q-292.1,226.2 -266.6,223.9 -215.55,219.3 -190.25,218.8 -162.2,218.25 -99.3,217.7 -41.7,217.2 -17.85,217.2 1.05,217.2 25.6,219.8 47.65,222.05 50.5,223.55 52.6,224.65 53.55,271.7 54.4,314.55 53.65,334.75 53.25,345.65 54.45,389.3 55.65,432.65 55.25,442 54.45,461.1 54.45,515.9 54.45,523.45 54.5,535.05 54.35,543.2 52.85,545.3 51.5,547.05 -6.75,545.6 -9.85,545.55 -13.1,545.45 -15.35,545.4 -17.6,545.35 -18.5,545.35 -19.35,545.3 -91.4,542.95 -101.25,542.95 -111.9,542.95 -192.3,542.15 -222.5,541.85 -242.25,541.65 -275.1,541.35 -279.2,541.35 -286,541.35 -297.9,543.8 -307.25,545.7 -310.15,544.5 -313.4,543.1 -314.15,489 -315.15,424.05 -315.75,417.4 -317.35,401.05 -315.65,318.1 -314,238.25 -312.55,228.35Z" test="Mall Front"/>
      <path id="Layer1_0_2_STROKES" stroke="#F0F" stroke-width="2" stroke-linejoin="round" stroke-linecap="round" fill="none" d="M-58.8,284.05 Q-56.6,282.05 -54.5,279.95 -52.95,278.55 -51.7,276.9 -49.35,274.1 -47.45,270.95 -45.8,268.25 -44.65,265.35 -43.15,261.8 -44.1,258 -44.2,257.35 -44.4,256.8 -45.3,256.85 -46.2,256.95 -46.95,257.2 -47.65,257.55 -49.15,258.7 -50.35,260.15 -51.8,262 -52.9,264.2 -54.3,266.95 -55.35,269.9 -57.8,276.75 -58.8,284.05 -59.1,287.2 -58.95,290.2 -58.9,291.65 -58.45,292.9 -57.75,295 -56,296.75 -55.3,297.5 -54.3,298 -51.05,299.7 -47.65,297.8 -44.65,296.05 -42.25,293.5 -41.95,293.25 -41.7,292.9 -39.8,290.85 -38.1,288.5 -37.75,281.8 -35.5,275.45 -34.25,272 -32.6,268.75 -31.45,266.5 -29.85,264.6 -28.45,262.95 -26.75,261.6 -24.4,259.7 -21.45,259.5 -21.65,260.8 -21.95,262 -22.3,263.7 -22.75,265.35 -23.8,268.75 -25.65,271.65 -27.7,274.75 -29.8,277.6 -31.6,280.1 -33.45,282.55 -35.7,285.6 -38.1,288.5 -38.3,290.7 -38.05,292.9 -37.85,294.4 -37.4,295.8 -36.35,299.5 -32.55,300.5 -30.7,301 -28.75,301.25 -25.5,301.6 -22.75,299.65 -20.8,298.35 -18.85,297.05 -17.8,296.5 -17.1,295.7 -15.85,294.35 -14.6,292.9 -14.15,292.35 -13.7,291.8 M-132.4,299.95 Q-131.65,296.8 -130.9,293.7 -130.8,293.3 -130.7,292.9 -129.9,289.55 -129.1,286.15 -127.4,278.8 -123.75,272.25 -120.15,265.65 -114.85,260.25 -110.95,256.3 -106.05,254 -105.75,261.45 -108.1,268.45 -109.7,273.1 -111.5,277.9 -110.4,275.35 -109.1,272.8 -107.7,269.8 -105.6,266.65 -104.1,264.3 -102.15,262.5 -102,262.3 -101.8,262.15 -100.4,260.95 -98.9,259.65 -96.15,257.35 -93.5,255.4 -91.2,253.55 -88.15,253.65 -88.2,254.9 -88.45,256.1 -88.5,257.05 -88.8,257.95 -89.65,260.85 -90.5,263.3 -91.95,267.65 -93.45,271.65 -96,279.05 -98.6,286.4 -99.65,289.55 -100.4,292.9 -100.6,293.9 -100.8,294.85 -101.3,297.3 -101.4,299.95 -99.8,298.2 -98.35,296.35 -96.9,294.65 -95.6,292.9 -95.15,292.3 -94.75,291.7 -92.9,289.15 -91.15,286.55 -89,283.35 -86.55,280.25 -84.05,277.05 -80.85,274.55 -78.7,273.1 -76.45,272.25 -75.75,272.05 -72.05,270.8 M-113.2,282.35 L-111.5,277.9 M-80.85,274.55 Q-83.2,276.7 -84.65,279.65 -85.7,281.7 -86.8,283.75 -88.3,286.7 -89.1,289.8 -89.35,290.85 -89.55,291.95 -89.6,292.4 -89.6,292.9 -89.6,293.1 -89.6,293.3 -89.05,294.4 -87.9,294.8 -86.7,295.2 -85.5,294.65 -84.35,294.1 -83.5,293.15 -83.4,293.05 -83.25,292.9 -81.35,291 -79.75,288.9 -76.75,285.1 -74,280.9 -73.75,280.25 -73.6,279.7 -72.55,276.4 -71.5,273 L-71.5,272.85 Q-71.2,271.85 -71.25,270.8 M-74,280.9 Q-72.4,278.55 -72.05,276.2 -71.75,274.6 -71.5,273 M-74,280.9 Q-75.05,284.25 -75.5,287.85 -75.7,289.2 -75.25,290.55 -74.7,292.3 -73.15,292.9 -72.75,293.05 -72.35,293.15 -72.1,293.05 -71.9,292.9 -68.35,291.15 -65.25,289 -61.8,286.55 -58.8,284.05 M-170.75,322.4 Q-168,322.7 -165.5,322.55 -162.2,322.4 -158.95,322.35 -157,322.1 -155.05,322 -152.9,321.85 -150.7,321.7 -147.15,321.35 -143.6,321.05 -141.05,320.75 -138.4,320.55 -135.6,320.2 -132.8,319.9 -129.8,319.65 -126.8,319.4 -123.6,319.15 -120.45,318.95 -117.05,318.75 -113.7,318.55 -110.1,318.4 -106.55,318.2 -102.75,318.05 -98.95,318 -97.1,317.95 -95.1,317.9 -93.1,317.9 -91.1,317.9 -89.05,317.85 -86.95,317.75 -84.85,317.75 -82.8,317.75 -79.55,317.75 -76.2,317.75 -73.2,317.75 -70.25,317.9 -67.25,317.9 -64.25,317.9 -43.05,318 -21.95,318 M-87.4,540.15 L-83.05,400.7 -12.7,400.7 -16.7,542.55 M-168.05,540.55 L-163.65,402.7 -107.65,402.7 -110.4,538.5 M-253.55,303.7 Q-252.75,300.4 -251.95,297.15 -251,293.15 -250.15,289.2 -248.3,281.55 -244.5,274.7 -240.75,267.8 -235.2,262.15 -231.05,258 -226,255.6 -225.65,263.35 -228.15,270.7 -229.8,275.6 -231.7,280.6 -230.5,277.95 -229.2,275.3 -227.7,272.1 -225.5,268.85 -223.95,266.35 -221.9,264.45 -221.75,264.3 -221.55,264.15 -220.05,262.85 -218.5,261.55 -215.65,259.1 -212.9,257.05 -210.45,255.1 -207.3,255.25 -207.35,256.55 -207.55,257.8 -207.65,258.8 -207.95,259.75 -208.85,262.75 -209.7,265.35 -211.25,269.9 -212.8,274.1 -215.5,281.8 -218.2,289.5 -219.55,293.65 -220.5,298.3 -220.8,299.9 -221,301.55 -218.3,300.9 -216.15,300.45 -213.6,299.65 -211.25,298.45 -208.9,297.3 -206.6,295.95 -207.55,288.35 -204.95,283.75 -202.4,279.1 -200.85,277.3 -199.3,275.45 -198.15,274.95 -197.85,274.75 -197.5,274.75 -194.3,276.55 -194.85,280.2 -195.5,283.85 -197.5,286.9 -199.3,289.85 -201.7,291.85 -204.15,293.9 -206.6,295.95 -206.6,298.15 -205.75,300.25 -204.95,302.15 -203.1,302.75 -201.7,303.1 -200.3,302.25 -196.9,300.5 -194.7,297.45 -194.4,297.1 -194.2,296.7 -192.9,294.85 -191.7,292.9 -191.5,292.5 -191.2,292.05 -190.35,290.55 -189.35,289.05 L-189.3,289 Q-188,285.05 -185.45,281.75 -182.75,278.4 -178.9,276.1 -177.8,275.6 -173.6,275.3 M-189.35,289.05 Q-189.95,291 -190.25,292.9 -190.45,294.05 -190.5,295.15 -190.65,297.3 -189.1,298.95 -188.35,299.8 -187.4,300.5 -186.05,301.5 -184.6,300.85 -183.35,300.45 -182.4,299.45 -181.1,298.15 -180.25,296.5 -179.3,294.75 -178.5,292.9 -178.35,292.45 -178.15,292 -177.1,289.15 -176.25,286.25 -175.25,282.9 -174.15,279.6 -173.65,278 -172.95,276.2 -172.9,276.05 -172.8,275.9 -172.9,277.1 -173.15,278 -174.55,282.25 -175.3,286.35 -175.85,289.65 -175.95,292.9 -176,294.4 -175.9,295.85 -174.8,294.4 -173.7,292.9 -173.35,292.4 -172.95,291.95 -170.95,289.05 -168.8,286.55 -167.5,285.05 -166.1,283.75 -163.45,281.4 -160.2,279.6 -157.65,276.55 -153.9,275.6 -153.8,275.65 -152.2,276.35 M-160.2,279.6 Q-162.45,282.1 -164.1,284.65 -165.75,287.15 -167.1,290.05 -167.7,291.5 -168.05,292.9 -168.1,293.05 -168.15,293.25 -169.55,300.5 -162.7,299.45 -161,299.2 -159.4,298.1 -158.35,297.25 -157.3,296.45 -156.3,295.65 -155.7,294.6 -155.2,293.8 -154.8,292.9 -154.7,292.65 -154.55,292.3 -153.3,288.9 -152.55,285.6 L-152.35,284.4 Q-152.05,281.75 -151.75,278.9 -151.7,278.05 -151.4,277.3 -151.25,276.9 -151,276.7 L-151,276.8 -152.35,284.4 M-255.85,339.3 Q-253.45,337.15 -250.9,335.65 -248.75,334.35 -246.45,333.3 -243.8,331.85 -241,330.8 -238.1,329.5 -235.15,328.4 -232.5,327.5 -229.85,326.7 -226.55,325.7 -223.25,325.1 -221.55,324.9 -219.75,324.7 M-175.9,295.85 Q-175.9,298 -175.95,300.15 -176.15,303.8 -176.45,307.5 -176.65,309.3 -177.1,311.25 -177.85,314.55 -178.8,317.9 -179.55,320.55 -180.4,323.15 -181.45,326.8 -182.9,330.15 -183.75,332.15 -184.7,334.1 -186.35,337.45 -188.1,340.8 -188.75,342.05 -189.55,343.2 -190.5,344.45 -191.55,345.6 -194.15,348.15 -197.35,349.65 -199.7,350.6 -202.15,351.2 -204.95,351.9 -207.75,352.3 -210.65,352.25 -213.45,351.9 -216.05,351.2 -218.3,349.85 -220.55,348.6 -222.5,346.95 -225.05,344.75 -224.4,341.45 -223.75,338.8 -221.85,336.65 -220.35,334.95 -218.8,333.15 -217.6,331.8 -216.4,330.5 -215.3,329.35 -214.2,328.45 -211.8,326.55 -209.6,324.9 -206.85,323.05 -204.15,321.05 -202.5,319.9 -200.85,318.75 -197.8,316.6 -194.75,314.45 -194.45,314.25 -194.2,314.1 -191.8,312.3 -189.5,310.4 -187.25,308.65 -185.1,306.75 -182.6,304.5 -180.3,301.65 -177.95,298.85 -175.9,295.85Z M-152.55,285.6 Q-153.15,289 -153.05,292.55 -153.05,292.75 -153,292.9 -152.9,295.5 -151.55,297.65 -150.4,298 -149.3,297.85 -146.25,297 -145.7,293.95 -145.6,293.45 -145.7,292.95 M-196.7,323.9 L-187.7,323.4 M-250.2,537.3 L-250.2,401.9 -189.05,403.6 -189.05,535.1" test="Mall Front"/>
      <g test="Mall Front">
        <path id="Layer2_0_1_STROKES" stroke="#FFF" stroke-width="1.482" stroke-linejoin="round" stroke-linecap="round" fill="none" d="M-271.607,385.407 L-274.87,385.407 -274.412,379.021 13.04,379.324 6.228,385.407"/>
      </g>
      <g test="Mall Front">
        <path id="Layer3_0_1_STROKES" stroke="#FFF" stroke-width="1.482" stroke-linejoin="round" stroke-linecap="round" fill="none" d="M-275.786,385.272 L7.144,385.306"/>
      </g>
    </g>
  </g>
</svg>