<?xml version="1.0" encoding="utf-8"?>
<svg id="EdithAnim07" image-rendering="inherit" baseProfile="basic" version="1.1" x="0px" y="0px" width="800" height="600" xmlns="http://www.w3.org/2000/svg" xmlns:xlink="http://www.w3.org/1999/xlink">
  <defs>
    <g id="LinePerspective" overflow="visible">
      <path id="Layer4_0_1_STROKES" stroke="#FFF" stroke-width="2" stroke-linejoin="round" stroke-linecap="round" fill="none" d="M-59.65 54.85L59.7 -54.85" test="LinePerspective"/>
    </g>
  </defs>
  <g id="Need-a-mallf55r1" overflow="visible">
    <g id="MallBackAndSide">
      <g id="MallBack">
        <path id="Layer5_0_1_STROKES" stroke="#FFF" stroke-width="2" stroke-linejoin="round" stroke-linecap="round" fill="none" d="M-210.4,182.45 Q-204.55,182.15 -45.8,182.8 111.2,183.5 113.65,183.15" test="MallBack"/>
      </g>
      <g id="Mall-Back-right">
        <path id="Layer6_0_1_STROKES" stroke="#FFF" stroke-width="2" stroke-linejoin="round" stroke-linecap="round" fill="none" d="M113,183.15 L117.15,472.55" test="Mall Back right"/>
      </g>
    </g>
    <use xlink:href="#LinePerspective" transform="matrix(1.071 0 0 .623 53.65 511.45)"/>
    <use xlink:href="#LinePerspective" transform="matrix(1.077 0 0 .399 46.6 206.5)"/>
    <use xlink:href="#LinePerspective" transform="matrix(1.408 0 0 .399 -297.2 206.5)"/>
    <g id="Mall-Front">
      <path id="Layer1_0_1_STROKES" stroke="#FFF" stroke-width="2" stroke-linejoin="round" stroke-linecap="round" fill="none" d="M-377.9,228.35 Q-357.45,226.2 -331.95,223.9 -280.9,219.3 -255.6,218.8 -227.55,218.25 -164.65,217.7 -107.05,217.2 -83.2,217.2 -64.3,217.2 -39.75,219.8 -17.7,222.05 -14.85,223.55 -12.75,224.65 -11.8,271.7 -10.95,314.55 -11.7,334.75 -12.1,345.65 -10.9,389.3 -9.7,432.65 -10.1,442 -10.9,461.1 -10.9,515.9 -10.9,523.45 -10.85,535.05 -11,543.2 -12.5,545.3 -13.85,547.05 -72.1,545.6 -75.2,545.55 -78.45,545.45 -80.7,545.4 -82.95,545.35 -83.85,545.35 -84.7,545.3 -156.75,542.95 -166.6,542.95 -177.25,542.95 -257.65,542.15 -287.85,541.85 -307.6,541.65 -340.45,541.35 -344.55,541.35 -351.35,541.35 -363.25,543.8 -372.6,545.7 -375.5,544.5 -378.75,543.1 -379.5,489 -380.5,424.05 -381.1,417.4 -382.7,401.05 -381,318.1 -379.35,238.25 -377.9,228.35Z" test="Mall Front"/>
      <path id="Layer1_0_2_STROKES" stroke="#F0F" stroke-width="2" stroke-linejoin="round" stroke-linecap="round" fill="none" d="M-124.15,284.05 Q-121.95,282.05 -119.85,279.95 -118.3,278.55 -117.05,276.9 -114.7,274.1 -112.8,270.95 -111.15,268.25 -110,265.35 -108.5,261.8 -109.45,258 -109.55,257.35 -109.75,256.8 -110.65,256.85 -111.55,256.95 -112.3,257.2 -113,257.55 -114.5,258.7 -115.7,260.15 -117.15,262 -118.25,264.2 -119.65,266.95 -120.7,269.9 -123.15,276.75 -124.15,284.05 -124.45,287.2 -124.3,290.2 -124.25,291.65 -123.8,292.9 -123.1,295 -121.35,296.75 -120.65,297.5 -119.65,298 -116.4,299.7 -113,297.8 -110,296.05 -107.6,293.5 -107.3,293.25 -107.05,292.9 -105.15,290.85 -103.45,288.5 -103.1,281.8 -100.85,275.45 -99.6,272 -97.95,268.75 -96.8,266.5 -95.2,264.6 -93.8,262.95 -92.1,261.6 -89.75,259.7 -86.8,259.5 -87,260.8 -87.3,262 -87.65,263.7 -88.1,265.35 -89.15,268.75 -91,271.65 -93.05,274.75 -95.15,277.6 -96.95,280.1 -98.8,282.55 -101.05,285.6 -103.45,288.5 -103.65,290.7 -103.4,292.9 -103.2,294.4 -102.75,295.8 -101.7,299.5 -97.9,300.5 -96.05,301 -94.1,301.25 -90.85,301.6 -88.1,299.65 -86.15,298.35 -84.2,297.05 -83.15,296.5 -82.45,295.7 -81.2,294.35 -79.95,292.9 -79.5,292.35 -79.05,291.8 M-197.75,299.95 Q-197,296.8 -196.25,293.7 -196.15,293.3 -196.05,292.9 -195.25,289.55 -194.45,286.15 -192.75,278.8 -189.1,272.25 -185.5,265.65 -180.2,260.25 -176.3,256.3 -171.4,254 -171.1,261.45 -173.45,268.45 -175.05,273.1 -176.85,277.9 -175.75,275.35 -174.45,272.8 -173.05,269.8 -170.95,266.65 -169.45,264.3 -167.5,262.5 -167.35,262.3 -167.15,262.15 -165.75,260.95 -164.25,259.65 -161.5,257.35 -158.85,255.4 -156.55,253.55 -153.5,253.65 -153.55,254.9 -153.8,256.1 -153.85,257.05 -154.15,257.95 -155,260.85 -155.85,263.3 -157.3,267.65 -158.8,271.65 -161.35,279.05 -163.95,286.4 -165,289.55 -165.75,292.9 -165.95,293.9 -166.15,294.85 -166.65,297.3 -166.75,299.95 -165.15,298.2 -163.7,296.35 -162.25,294.65 -160.95,292.9 -160.5,292.3 -160.1,291.7 -158.25,289.15 -156.5,286.55 -154.35,283.35 -151.9,280.25 -149.4,277.05 -146.2,274.55 -144.05,273.1 -141.8,272.25 -141.1,272.05 -137.4,270.8 M-178.55,282.35 L-176.85,277.9 M-146.2,274.55 Q-148.55,276.7 -150,279.65 -151.05,281.7 -152.15,283.75 -153.65,286.7 -154.45,289.8 -154.7,290.85 -154.9,291.95 -154.95,292.4 -154.95,292.9 -154.95,293.1 -154.95,293.3 -154.4,294.4 -153.25,294.8 -152.05,295.2 -150.85,294.65 -149.7,294.1 -148.85,293.15 -148.75,293.05 -148.6,292.9 -146.7,291 -145.1,288.9 -142.1,285.1 -139.35,280.9 -139.1,280.25 -138.95,279.7 -137.9,276.4 -136.85,273 L-136.85,272.85 Q-136.55,271.85 -136.6,270.8 M-139.35,280.9 Q-137.75,278.55 -137.4,276.2 -137.1,274.6 -136.85,273 M-139.35,280.9 Q-140.4,284.25 -140.85,287.85 -141.05,289.2 -140.6,290.55 -140.05,292.3 -138.5,292.9 -138.1,293.05 -137.7,293.15 -137.45,293.05 -137.25,292.9 -133.7,291.15 -130.6,289 -127.15,286.55 -124.15,284.05 M-236.1,322.4 Q-233.35,322.7 -230.85,322.55 -227.55,322.4 -224.3,322.35 -222.35,322.1 -220.4,322 -218.25,321.85 -216.05,321.7 -212.5,321.35 -208.95,321.05 -206.4,320.75 -203.75,320.55 -200.95,320.2 -198.15,319.9 -195.15,319.65 -192.15,319.4 -188.95,319.15 -185.8,318.95 -182.4,318.75 -179.05,318.55 -175.45,318.4 -171.9,318.2 -168.1,318.05 -164.3,318 -162.45,317.95 -160.45,317.9 -158.45,317.9 -156.45,317.9 -154.4,317.85 -152.3,317.75 -150.2,317.75 -148.15,317.75 -144.9,317.75 -141.55,317.75 -138.55,317.75 -135.6,317.9 -132.6,317.9 -129.6,317.9 -108.4,318 -87.3,318 M-152.75,540.15 L-148.4,400.7 -78.05,400.7 -82.05,542.55 M-233.4,540.55 L-229,402.7 -173,402.7 -175.75,538.5 M-318.9,303.7 Q-318.1,300.4 -317.3,297.15 -316.35,293.15 -315.5,289.2 -313.65,281.55 -309.85,274.7 -306.1,267.8 -300.55,262.15 -296.4,258 -291.35,255.6 -291,263.35 -293.5,270.7 -295.15,275.6 -297.05,280.6 -295.85,277.95 -294.55,275.3 -293.05,272.1 -290.85,268.85 -289.3,266.35 -287.25,264.45 -287.1,264.3 -286.9,264.15 -285.4,262.85 -283.85,261.55 -281,259.1 -278.25,257.05 -275.8,255.1 -272.65,255.25 -272.7,256.55 -272.9,257.8 -273,258.8 -273.3,259.75 -274.2,262.75 -275.05,265.35 -276.6,269.9 -278.15,274.1 -280.85,281.8 -283.55,289.5 -284.9,293.65 -285.85,298.3 -286.15,299.9 -286.35,301.55 -283.65,300.9 -281.5,300.45 -278.95,299.65 -276.6,298.45 -274.25,297.3 -271.95,295.95 -272.9,288.35 -270.3,283.75 -267.75,279.1 -266.2,277.3 -264.65,275.45 -263.5,274.95 -263.2,274.75 -262.85,274.75 -259.65,276.55 -260.2,280.2 -260.85,283.85 -262.85,286.9 -264.65,289.85 -267.05,291.85 -269.5,293.9 -271.95,295.95 -271.95,298.15 -271.1,300.25 -270.3,302.15 -268.45,302.75 -267.05,303.1 -265.65,302.25 -262.25,300.5 -260.05,297.45 -259.75,297.1 -259.55,296.7 -258.25,294.85 -257.05,292.9 -256.85,292.5 -256.55,292.05 -255.7,290.55 -254.7,289.05 L-254.65,289 Q-253.35,285.05 -250.8,281.75 -248.1,278.4 -244.25,276.1 -243.15,275.6 -238.95,275.3 M-254.7,289.05 Q-255.3,291 -255.6,292.9 -255.8,294.05 -255.85,295.15 -256,297.3 -254.45,298.95 -253.7,299.8 -252.75,300.5 -251.4,301.5 -249.95,300.85 -248.7,300.45 -247.75,299.45 -246.45,298.15 -245.6,296.5 -244.65,294.75 -243.85,292.9 -243.7,292.45 -243.5,292 -242.45,289.15 -241.6,286.25 -240.6,282.9 -239.5,279.6 -239,278 -238.3,276.2 -238.25,276.05 -238.15,275.9 -238.25,277.1 -238.5,278 -239.9,282.25 -240.65,286.35 -241.2,289.65 -241.3,292.9 -241.35,294.4 -241.25,295.85 -240.15,294.4 -239.05,292.9 -238.7,292.4 -238.3,291.95 -236.3,289.05 -234.15,286.55 -232.85,285.05 -231.45,283.75 -228.8,281.4 -225.55,279.6 -223,276.55 -219.25,275.6 -219.15,275.65 -217.55,276.35 M-225.55,279.6 Q-227.8,282.1 -229.45,284.65 -231.1,287.15 -232.45,290.05 -233.05,291.5 -233.4,292.9 -233.45,293.05 -233.5,293.25 -234.9,300.5 -228.05,299.45 -226.35,299.2 -224.75,298.1 -223.7,297.25 -222.65,296.45 -221.65,295.65 -221.05,294.6 -220.55,293.8 -220.15,292.9 -220.05,292.65 -219.9,292.3 -218.65,288.9 -217.9,285.6 L-217.7,284.4 Q-217.4,281.75 -217.1,278.9 -217.05,278.05 -216.75,277.3 -216.6,276.9 -216.35,276.7 L-216.35,276.8 -217.7,284.4 M-321.2,339.3 Q-318.8,337.15 -316.25,335.65 -314.1,334.35 -311.8,333.3 -309.15,331.85 -306.35,330.8 -303.45,329.5 -300.5,328.4 -297.85,327.5 -295.2,326.7 -291.9,325.7 -288.6,325.1 -286.9,324.9 -285.1,324.7 M-241.25,295.85 Q-241.25,298 -241.3,300.15 -241.5,303.8 -241.8,307.5 -242,309.3 -242.45,311.25 -243.2,314.55 -244.15,317.9 -244.9,320.55 -245.75,323.15 -246.8,326.8 -248.25,330.15 -249.1,332.15 -250.05,334.1 -251.7,337.45 -253.45,340.8 -254.1,342.05 -254.9,343.2 -255.85,344.45 -256.9,345.6 -259.5,348.15 -262.7,349.65 -265.05,350.6 -267.5,351.2 -270.3,351.9 -273.1,352.3 -276,352.25 -278.8,351.9 -281.4,351.2 -283.65,349.85 -285.9,348.6 -287.85,346.95 -290.4,344.75 -289.75,341.45 -289.1,338.8 -287.2,336.65 -285.7,334.95 -284.15,333.15 -282.95,331.8 -281.75,330.5 -280.65,329.35 -279.55,328.45 -277.15,326.55 -274.95,324.9 -272.2,323.05 -269.5,321.05 -267.85,319.9 -266.2,318.75 -263.15,316.6 -260.1,314.45 -259.8,314.25 -259.55,314.1 -257.15,312.3 -254.85,310.4 -252.6,308.65 -250.45,306.75 -247.95,304.5 -245.65,301.65 -243.3,298.85 -241.25,295.85Z M-217.9,285.6 Q-218.5,289 -218.4,292.55 -218.4,292.75 -218.35,292.9 -218.25,295.5 -216.9,297.65 -215.75,298 -214.65,297.85 -211.6,297 -211.05,293.95 -210.95,293.45 -211.05,292.95 M-262.05,323.9 L-253.05,323.4 M-315.55,537.3 L-315.55,401.9 -254.4,403.6 -254.4,535.1" test="Mall Front"/>
      <g test="Mall Front">
        <path id="Layer2_0_1_STROKES" stroke="#FFF" stroke-width="1.482" stroke-linejoin="round" stroke-linecap="round" fill="none" d="M-336.957,385.407 L-340.22,385.407 -339.762,379.021 -52.31,379.324 -59.122,385.407"/>
      </g>
      <g test="Mall Front">
        <path id="Layer3_0_1_STROKES" stroke="#FFF" stroke-width="1.482" stroke-linejoin="round" stroke-linecap="round" fill="none" d="M-341.136,385.272 L-58.206,385.306"/>
      </g>
    </g>
  </g>
</svg>