<?xml version="1.0" encoding="utf-8"?>
<!-- Generator: Adobe Illustrator 22.1.0, SVG Export Plug-In . SVG Version: 6.00 Build 0)  -->
<svg version="1.1" baseProfile="tiny" id="EdithAnim12"
	 xmlns="http://www.w3.org/2000/svg" xmlns:xlink="http://www.w3.org/1999/xlink" x="0px" y="0px" width="800px" height="600px"
	 viewBox="0 0 800 600" xml:space="preserve">
<path fill="none" stroke="#FFFFFF" stroke-width="2" stroke-linecap="round" stroke-linejoin="round" d="M627.7,532.5
	c2.4-0.5,5.8-0.9,10.4-1.4c3.8-0.7,6.7-1.9,8.6-3.8c2.2-2.2,3.4-3.9,3.5-5.2c0.1-1.2-0.7-2.3-2.2-3.5c-1.6-1.1-3.6-1.8-6.2-2.1
	c-2.7-0.3-4.9-0.1-6.6,0.8c-2.6,1.2-4.7,4.2-6.5,8.8c-2.2,5.7-2,11,0.4,16c2.3,4.9,6.9,7.8,13.8,8.8c3.9,0.6,8.1,0.5,12.8-0.2"/>
<path fill="none" stroke="#FFFFFF" stroke-width="2" stroke-linecap="round" stroke-linejoin="round" d="M692,524
	c0.6-0.2,0.9-0.6,0.8-1.1c-0.1-0.3-0.4-0.6-0.8-0.8L692,524c-0.1,11.9,0.6,20.3,2,25.4"/>
<path fill="none" stroke="#FFFFFF" stroke-width="2" stroke-linecap="round" stroke-linejoin="round" d="M692,522
	c-1.1-0.8-3.1-1.5-6-2.3c-2.5-0.8-5.2-1-8.2-0.5c-6.1,0.9-10.5,4.5-13.2,10.9c-2.9,6.6-2.9,11.6,0,15c2.1,2.5,4.9,3.6,8.5,3.3
	c2.3-0.2,5.5-1.8,9.5-4.9c3.8-2.9,6.7-5.8,8.7-8.6"/>
<line fill="none" stroke="#FFFFFF" stroke-width="2" stroke-linecap="round" stroke-linejoin="round" x1="692" y1="521.4" x2="692" y2="522"/>
<path fill="none" stroke="#FFFFFF" stroke-width="2" stroke-linecap="round" stroke-linejoin="round" d="M707.7,518.2
	c0.2,1.8,0.6,4.4,1.4,8c2.7-3.8,4.8-6.3,6.4-7.5c1.1-0.9,3.6-2.1,7.3-3.6l7.4-1.2c5.4-0.5,9.3,0,11.8,1.5"/>
<path fill="none" stroke="#FFFFFF" stroke-width="2" stroke-linecap="round" stroke-linejoin="round" d="M709.1,526.2
	c0,0.1,0.1,0.2,0.1,0.3c0.9,4.4,1.5,7.6,1.8,9.5c0.6,3.3,0.8,5.8,0.7,7.5"/>
<path fill="none" stroke="#FFFFFF" stroke-width="2" stroke-linecap="round" stroke-linejoin="round" d="M160.2,512.7
	c6.6-3.3,12.1-3.9,16.5-1.8c4,1.9,6.3,5.4,6.8,10.4c0.6,6.4,0.5,10.7-0.1,12.9c-1.2,4.2-4.7,7.5-10.4,10c-6.3,2.7-12.3,3.1-17.9,1.4
	c-5.5-1.7-8.3-4.5-8.5-8.6c-0.2-5.2,0.4-9.4,1.9-12.6C150.5,519.5,154.4,515.6,160.2,512.7z"/>
<path fill="none" stroke="#FFFFFF" stroke-width="2" stroke-linecap="round" stroke-linejoin="round" d="M597.5,520l1.3,13.3
	c1.2-2.1,2.4-4.2,3.5-6.2c1-1.6,2.9-3.5,5.6-5.7l5.9-2.9c4.5-1.8,8.2-2.5,11-2"/>
<path fill="none" stroke="#FFFFFF" stroke-width="2" stroke-linecap="round" stroke-linejoin="round" d="M598.8,533.3v0.3
	c0.8,8.5,1.6,14.4,2.3,17.8"/>
<path fill="none" stroke="#FFFFFF" stroke-width="2" stroke-linecap="round" stroke-linejoin="round" d="M88.2,554.5
	c-0.2-8.9-0.2-18-0.2-27.2c0.2-18.5,1-28.4,2.3-29.5c0.7-0.6,2.9,1.7,6.6,7c1.7,2.5,5.6,8.6,11.8,18.2c11.2,17.7,17.7,26,19.5,25
	c2.1-1.2,2.9-11.7,2.5-31.5c-0.9-20.5-1.3-31.4-1.2-32.8"/>
<path fill="none" stroke="#FFFFFF" stroke-width="2" stroke-linecap="round" stroke-linejoin="round" d="M563.7,534.5
	c1.7-0.1,4.4,0,8,0.3c3.2,0.3,5.6,0.3,7.2,0"/>
<path fill="none" stroke="#FFFFFF" stroke-width="2" stroke-linecap="round" stroke-linejoin="round" d="M529.7,520.3
	c-4.4,1.4-8.1,4-11.2,7.8c-3.1,3.8-4.4,7.7-4,11.6c0.4,4.2,2.2,7.9,5.5,11c3.5,3.3,7.3,4.4,11.4,3.5c4-1,7.6-3.7,10.7-8.1
	c2.9-4.2,4.3-8,4.2-11.5c-0.1-3.9-2-7.4-5.6-10.5C537.4,521.3,533.8,520,529.7,520.3c-1.3,0.1-2.6,0.3-3.9,0.7"/>
<path fill="none" stroke="#FFFFFF" stroke-width="2" stroke-linecap="round" stroke-linejoin="round" d="M450.5,539.3
	c4.6-0.9,8.8-1.4,12.7-1.4c4.3,0,7.9,0.6,10.6,1.8"/>
<path fill="none" stroke="#FFFFFF" stroke-width="2" stroke-linecap="round" stroke-linejoin="round" d="M399.5,523.5
	c0.2,2.5,0.9,7.2,2.2,14.1c2.8-6.5,6.8-11.2,12.1-14.1l5.8-1.8c4.7-0.8,9.4-0.1,14.1,2.1"/>
<path fill="none" stroke="#FFFFFF" stroke-width="2" stroke-linecap="round" stroke-linejoin="round" d="M498.2,503.3
	c-0.2,4.7,0,13.3,0.8,25.6c0,0.3,0,0.7,0,1c0.6,10.3,1.1,17.8,1.6,22.5"/>
<path fill="none" stroke="#FFFFFF" stroke-width="2" stroke-linecap="round" stroke-linejoin="round" d="M488.1,530"/>
<path fill="none" stroke="#FFFFFF" stroke-width="2" stroke-linecap="round" stroke-linejoin="round" d="M401.5,538.3
	c0.1-0.2,0.2-0.5,0.3-0.7c0,0.2,0.1,0.5,0.2,0.8c1.3,6.8,2.3,11.1,2.9,12.9"/>
<path fill="none" stroke="#FFFFFF" stroke-width="2" stroke-linecap="round" stroke-linejoin="round" d="M379.4,523.5
	c-0.1,1.4,0,3,0.1,4.8c0,0.1,0.1,0.3,0.2,0.4"/>
<path fill="none" stroke="#FFFFFF" stroke-width="2" stroke-linecap="round" stroke-linejoin="round" d="M379.5,528.2
	c0,0.2,0,0.4,0,0.5c0.2,4.4,0.6,8.8,1.2,13.1c0.6,5,1.2,8.5,1.9,10.5"/>
<path fill="none" stroke="#FFFFFF" stroke-width="2" stroke-linecap="round" stroke-linejoin="round" d="M379.5,528.2
	c-3.6-4.5-8.6-6.3-14.8-5.5c-0.8,0.2-1.7,0.5-2.8,0.9c-2.2,0.8-4.3,1.8-6.1,2.9c-6.1,3.6-9.3,8-9.6,13.2c-0.8,9.7,3.5,14.1,12.9,13
	c13.3-1.5,20.1-7.5,20.5-18.2"/>
<path fill="none" stroke="#FFFFFF" stroke-width="2" stroke-linecap="round" stroke-linejoin="round" d="M301.4,531.8
	c7.8,0,14.2-0.3,19.4-0.8c8.5-1,12.9-2.7,13.1-5c0.3-2.6-1.6-4.7-5.6-6.5c-3.8-1.6-7.1-2.2-10.1-1.5c-4.3,0.8-7.9,2.3-10.9,4.5
	C303.8,524.9,301.8,528.1,301.4,531.8c-0.2,1-0.2,2.2,0,3.4c0.6,5.7,2.2,9.8,4.7,12.5c2.1,2.2,5.4,3.6,9.9,4.4
	c3.5,0.6,7.6,0.2,12.4-1.3c2.3-0.8,5.1-1.9,8.3-3.5"/>
<path fill="none" stroke="#FFFFFF" stroke-width="2" stroke-linecap="round" stroke-linejoin="round" d="M276.6,515.1
	c-0.2,3.2-0.3,6.5-0.4,10.1c4-3,7.5-4.8,10.6-5.6c2.7-0.7,5.7-0.7,8.9,0.1"/>
<path fill="none" stroke="#FFFFFF" stroke-width="2" stroke-linecap="round" stroke-linejoin="round" d="M276.2,525.2
	c0,0,0,0.1,0,0.1c-0.2,9.8,0.1,16.7,0.8,20.9"/>
<path fill="none" stroke="#FFFFFF" stroke-width="2" stroke-linecap="round" stroke-linejoin="round" d="M198.9,538
	c3-0.5,5.3,0.2,6.9,2c1.4,1.5,1.8,3.1,1.4,4.8c-0.8,2.9-3.8,6.2-8.9,10"/>
<path fill="none" stroke="#FFFFFF" stroke-width="2" stroke-linecap="round" stroke-linejoin="round" d="M488.1,530
	c2.5-0.2,6.1-0.6,10.9-1.1l1.1-0.2c4.6-0.6,8-1.1,10.2-1.5"/>
</svg>
