<?xml version="1.0" encoding="utf-8"?>
<svg id="EdithAnim12" image-rendering="inherit" baseProfile="basic" version="1.1" x="0px" y="0px" width="800" height="600" xmlns="http://www.w3.org/2000/svg" xmlns:xlink="http://www.w3.org/1999/xlink">
  <g id="Textsf1r1" overflow="visible">
    <g id="Text---Ronald-regret-rear">
      <path id="Layer1_0_1_STROKES" stroke="#FFF" stroke-width="1.892" stroke-linejoin="round" stroke-linecap="round" fill="none" d="M375.204,511.961 Q375.204,513.617 374.967,517.756 374.967,524.52 376.623,532.537 378.278,540.554 378.278,540.838 L378.515,541.311 Q378.515,538.591 378.16,536.392 377.805,534.193 377.805,530.645 377.805,522.722 382.535,516.218 387.005,510.069 391.783,510.069 394.573,510.069 397.79,510.755 399.824,511.181 400.84,511.559 401.077,511.63 401.243,511.725 M401.006,522.84 Q409.804,522.58 416.402,520.121 422.528,517.827 422.528,515.391 422.528,512.458 419.453,511.512 417.892,511.016 414.487,511.016 408.432,511.016 403.608,514.799 398.405,518.867 398.405,524.851 398.405,530.243 404.79,533.057 409.591,535.162 415.433,535.162 420.399,535.162 421.534,534.997 425.082,534.429 426.548,532.064 M446.13,526.506 Q447.597,523.645 447.597,520.357 447.597,517.425 446.792,514.989 446.225,513.239 445.705,512.671 L445.468,512.671 445.468,522.84 Q445.705,524.212 446.13,526.506 446.792,530.101 447.951,535.919 448.779,540.034 448.779,543.913 448.779,551.457 446.651,556.211 444.12,561.887 439.083,561.887 435.109,561.887 431.065,558.859 427.163,555.927 424.893,551.481 424.893,551.362 425.129,551.244 425.366,551.126 425.366,551.008 M446.651,511.725 Q445.066,510.803 445.019,510.803 444.971,510.779 442.63,510.779 435.984,510.779 431.278,516.006 427.021,520.712 427.021,526.033 427.021,529.226 430.096,531.354 432.839,533.27 436.126,533.27 441.14,533.27 444.522,528.989 445.468,527.783 446.13,526.506 M458.476,510.779 Q458.546,514.587 460.817,523.29 462.78,530.74 464.152,534.216 464.128,530.763 463.56,527.665 462.969,524.472 462.969,522.722 462.969,514.658 468.409,509.833 470.371,508.107 472.689,507.09 474.581,506.285 475.74,506.285 476.26,506.285 476.331,506.333 L476.923,506.995 M481.18,518.82 Q482.362,519.056 483.19,519.056 491.042,519.056 496.812,515.272 498.846,513.948 500.194,512.411 501.306,511.134 501.306,510.542 501.306,507.468 495.038,507.468 488.487,507.468 484.254,509.833 479.051,512.742 479.051,518.583 479.051,523.952 485.72,527.57 491.822,530.882 499.532,530.882 502.985,530.882 505.468,530.29 507.62,529.77 508.401,528.989 M515.496,485.473 L515.638,489.943 Q515.638,490.369 515.212,493.444 514.786,496.518 514.786,498.008 514.786,500.964 516.607,508.036 521.385,506.995 522.591,506.995 M516.607,508.036 Q517.34,510.874 518.381,514.374 520.178,520.452 521.881,526.152 M508.401,509.596 Q510.624,509.336 516.347,508.083 516.489,508.059 516.607,508.036 M570.364,511.725 Q571.499,517.117 572.634,522.273 572.492,521.303 572.492,520.736 572.492,516.266 574.148,514.327 574.857,513.499 576.347,512.482 577.246,511.843 579.587,510.306 581.148,509.218 584.625,508.603 587.108,508.177 588.811,508.177 M593.612,523.195 Q595.693,522.58 598.318,521.374 600.068,520.57 605.389,517.637 610.285,514.941 610.45,514.799 612.011,513.593 612.011,511.252 612.011,509.431 609.433,508.65 607.802,508.177 605.626,508.177 599.808,508.177 596.639,511.961 593.541,515.627 593.541,522.036 593.541,522.628 593.612,523.195 594.321,530.716 604.869,532.868 610.569,534.051 616.741,533.507 M634.479,509.36 Q633.296,508.792 632.965,508.698 632.752,508.65 630.931,508.65 624.12,508.65 620.289,514.563 617.214,519.34 617.214,525.229 617.214,527.594 618.893,529.25 620.785,531.142 624.073,531.142 632.421,531.142 634.668,523.077 635.425,520.31 635.567,516.195 635.567,515.06 635.59,514.114 635.236,511.772 635.425,510.069 L635.661,510.306 Q635.614,511.465 635.59,514.114 636.158,517.945 638.168,523.455 639.776,527.902 641.574,531.615 M644.885,511.252 Q645.05,511.867 646.044,518.844 647.25,526.341 648.432,529.959 648.409,528.327 647.959,525.253 647.486,521.942 647.486,520.357 647.486,514.681 652.926,510.306 657.94,506.285 663.214,506.285 664.964,506.285 665.531,506.758 666.099,507.232 667.116,507.232 666.643,507.704 666.17,507.941 M122.622,548.619 Q117.632,526.27 116.213,519.08 114.108,508.343 114.108,498.008 114.108,496.4 116.118,494.177 118.034,492.025 121.179,489.991 128.534,485.237 134.92,485.237 140.407,485.237 144.38,489.991 148.164,494.508 148.164,500.136 148.164,507.09 136.173,518.986 131.68,523.432 127.092,526.956 123.402,529.794 121.7,530.479 129.859,527.949 138.704,535.659 142.157,538.662 144.38,542.186 146.508,545.521 146.272,547.2 M173.469,515.036 Q167.628,516.975 164.199,520.239 161.692,522.628 159.421,526.956 158.688,528.351 157.293,532.773 155.495,538.45 155.495,541.429 155.495,545.545 158.806,546.987 160.438,547.697 163.182,547.697 165.121,547.697 168.739,547.011 172.334,546.325 174.297,545.568 177.395,543.25 178.814,540.436 180.328,537.433 180.328,533.128 180.328,517.708 170.868,516.928 M189.551,517.874 Q191.514,525.253 193.17,533.649 191.916,526.601 191.916,525.679 191.916,519.056 198.302,514.799 200.454,513.357 202.985,512.434 204.948,511.725 205.752,511.725 211.12,511.725 213.438,517.165 215.33,521.611 215.33,530.172 215.33,533.838 214.857,537.078 214.597,538.828 214.147,541.548 M248.393,517.945 Q248.416,517.779 248.44,517.637 L248.44,517.165 Q248.416,517.543 248.393,517.945 247.801,526.624 250.001,535.801 251.16,540.625 252.46,544.149 M252.224,515.746 Q251.278,515.178 249.315,514.823 247.849,514.563 247.021,514.563 239.902,514.563 233.54,521.658 227.391,528.54 227.391,535.635 227.391,540.034 229.283,542.021 231.081,543.913 234.841,543.913 243.426,543.913 245.957,534.713 246.761,531.78 247.352,526.152 247.991,520.121 248.393,517.945 M266.177,485.946 Q266.84,494.673 268.259,503.069 269.252,508.982 269.252,516.455 269.252,521.753 268.897,525.939 268.542,530.125 268.542,531 268.542,533.341 268.826,534.027 269.039,534.547 269.961,535.872 M304.656,497.488 Q304.49,496.187 304.49,495.17 L304.254,495.17 304.254,496.589 Q304.467,497.015 304.656,497.488 307.139,503.116 309.268,511.465 310.545,516.431 312.295,524.496 314.66,534.169 314.66,537.054 M303.781,520.002 Q302.409,519.459 300.139,518.252 298.081,517.306 295.858,517.401 291.932,517.567 287.983,520.546 283.205,524.118 283.205,529.226 283.205,533.838 286.753,536.345 289.78,538.473 294.203,538.473 305.153,538.473 307.565,528.517 308.369,525.158 308.298,520.144 308.038,514.941 308.038,513.144 308.038,511.299 306.264,504.89 305.034,500.444 304.656,497.488 M193.17,533.649 L193.69,536.345 Q193.69,536.439 193.714,536.534 193.737,536.699 193.785,536.889 L194.045,538.379 Q194.754,542.352 195.227,545.568 M121.7,530.479 Q121.416,530.598 121.203,530.645 M648.432,529.959 L648.432,530.196 M587.865,523.574 L588.645,523.692 Q589.497,523.81 589.875,523.81 591.459,523.81 593.612,523.195 M574.361,530.125 Q574.479,530.669 574.597,531.189 576.205,538.355 576.276,538.71 L576.513,538.71 Q576.465,538.473 574.361,530.125 573.509,526.27 572.634,522.273 M464.152,534.216 L464.152,534.453" test="Text - Ronald regret rear"/>
    </g>
  </g>
</svg>