<?xml version="1.0" encoding="utf-8"?>
<svg id="EdithAnim15" image-rendering="inherit" baseProfile="basic" version="1.1" x="0px" y="0px" width="800" height="600" xmlns="http://www.w3.org/2000/svg" xmlns:xlink="http://www.w3.org/1999/xlink">
  <g id="Textsf10r1" overflow="visible">
    <g id="Text-Pay">
      <g test="Text Pay">
        <path id="Layer1_0_1_STROKES" stroke="#F90" stroke-width="1" stroke-linejoin="round" stroke-linecap="round" fill="none" d="M398.249,216.112 Q398.762,218.729 398.972,222.987 399.226,227.396 399.014,230.789 L397.798,241.85 397.516,253.441 Q396.916,262.522 396.497,266.109 396.062,270.195 395.131,274.164"/>
      </g>
      <g test="Text Pay">
        <path id="Layer2_0_1_STROKES" stroke="#F90" stroke-width="1" stroke-linejoin="round" stroke-linecap="round" fill="none" d="M398.882,218.133 Q402.746,211.66 407.604,209.921 411.097,208.636 418.981,209.146 428.062,209.746 430.515,217.228 431.735,221.169 431.121,230.649 430.342,242.125 422.341,249.711 413.829,257.631 401.554,256.825 400.207,256.731 399.814,256.518 399.521,256.308 398.643,255.629"/>
      </g>
      <g test="Text Pay">
        <path id="Layer3_0_1_STROKES" stroke="#F90" stroke-width="1" stroke-linejoin="round" stroke-linecap="round" fill="none" d="M442.887,251.39 Q443.63,251.614 443.73,251.618 438.042,251.23 434.027,254.697 429.495,258.698 428.998,266.182 428.49,273.966 431.287,277.109 433.892,279.995 441.176,280.486 445.667,280.784 448.612,276.381 450.403,273.64 451.933,268.19 452.079,265.295 453.345,260.286 454.038,257.459 454.336,256.018 452.952,255.523 449.443,252.756 446.407,250.806 442.887,251.39 442.839,251.338 442.739,251.335 442.245,251.169 442.233,251.518 442.586,251.43 442.887,251.39Z M454.336,256.018 Q454.573,254.876 454.583,254.576 L454.591,254.327 Q454.686,259.03 455.346,267.803 455.838,274.12 456.102,276.729"/>
      </g>
      <g test="Text Pay">
        <path id="Layer4_0_1_STROKES" stroke="#F90" stroke-width="1" stroke-linejoin="round" stroke-linecap="round" fill="none" d="M466.899,248.083 Q466.806,253.93 466.975,257.886 467.375,265.45 470.267,268.746 476.531,275.903 485.012,276.483 491.947,276.963 494.239,268.137 495.267,264.271 495.766,258.237 495.726,256.436 495.973,254.994 L495.965,255.243 Q495.864,256.79 495.766,258.237 495.811,259.889 496.097,261.848 496.746,266.42 496.573,268.615 496.161,275.052 492.65,287.487 489.704,297.94 488.746,299.709 486.404,303.982 479.844,307.316 471.758,311.399 462.279,310.736 456.142,310.333 453.179,307.685 451.673,306.335 451.37,304.925 451.383,304.525 451.53,304.63"/>
      </g>
    </g>
  </g>
</svg>