<?xml version="1.0" encoding="utf-8"?>
<svg id="EdithAnim15" image-rendering="inherit" baseProfile="basic" version="1.1" x="0px" y="0px" width="800" height="600" xmlns="http://www.w3.org/2000/svg" xmlns:xlink="http://www.w3.org/1999/xlink">
  <g id="Textsf12r1" overflow="visible">
    <g id="Text-Oobly">
      <g test="Text Oobly">
        <path id="Layer1_0_1_STROKES" stroke="#F90" stroke-width="2" stroke-linejoin="round" stroke-linecap="round" fill="none" d="M393.485,226.323 Q393.59,226.318 393.685,226.314 393.512,224.67 391.007,226.882 388.648,228.988 387.539,231.089 L384.633,237.823 Q381.347,246.175 382.042,254.002 382.831,262.826 388.971,267.009 394.183,270.583 401.61,269.906 408.041,269.322 412.877,262.103 417.289,255.453 416.78,249.569 416.382,245.083 412.965,240.228 411.037,237.361 406.132,231.671 404.065,229.06 399.929,227.19 396.714,225.78 395.567,225.881 L396.148,226.556 Q394.981,226.207 393.685,226.314 L393.687,226.364 Q393.787,226.359 393.743,226.511 393.722,227.163 393.687,226.364 393.59,226.321 393.485,226.323Z"/>
      </g>
      <g test="Text Oobly">
        <path id="Layer2_0_1_STROKES" stroke="#F90" stroke-width="2" stroke-linejoin="round" stroke-linecap="round" fill="none" d="M443.004,245.011 L438.266,245.395 437.768,245.442 Q432.537,247.124 429.781,251.599 426.88,256.181 427.452,262.362 427.955,268.095 430.906,270.317 433.548,272.353 438.584,271.931 445.414,271.33 449.614,266.691 453.529,262.414 453.112,257.478 452.532,251.148 449.218,247.49 446.061,243.976 442.024,244.354 441.774,244.365 440.289,244.73 438.803,245.096 438.266,245.395"/>
      </g>
      <g test="Text Oobly">
        <path id="Layer3_0_1_STROKES" stroke="#F90" stroke-width="2" stroke-linejoin="round" stroke-linecap="round" fill="none" d="M460.475,224.673 Q460.198,226.337 460.257,227.686 460.264,227.836 460.845,234.216 461.871,246.132 463.419,250.618 464.281,253.133 465.108,255 465.814,252.715 469.472,249.401 474.045,245.296 478.382,244.904 482.919,244.504 485.458,248.747 487.56,252.157 488.056,257.741 488.498,263.226 484.803,266.842 481.923,269.622 478.88,269.856 471.154,270.546 468.152,266.024 M465.108,255 Q466.585,261.139 468.022,267.631 468.86,269.597 469.027,269.989 L469.215,271.983 468.965,271.994 Q468.514,269.712 468.022,267.631 467.411,266.257 466.52,264.194 465.243,261.348 464.959,258.308 464.859,257.161 465.108,255Z"/>
      </g>
      <g test="Text Oobly">
        <path id="Layer4_0_1_STROKES" stroke="#F90" stroke-width="2" stroke-linejoin="round" stroke-linecap="round" fill="none" d="M496.63,227.435 Q496.89,229.926 498.393,241.32 499.966,253.162 500.281,254.65 500.541,255.99 501.3,261.862 501.891,266.19 502.378,267.019 L502.627,267.008"/>
      </g>
      <g test="Text Oobly">
        <path id="Layer5_0_1_STROKES" stroke="#F90" stroke-width="2" stroke-linejoin="round" stroke-linecap="round" fill="none" d="M510.718,245.032 Q510.906,247.025 511.251,253.716 512.455,267.426 520.779,266.659 526.612,266.152 529.427,261.874 530.601,260.121 531.155,257.944 L530.992,256.5 Q530.838,249.601 530.693,247.455 L530.682,247.205 M531.155,257.944 Q531.881,255.11 531.525,251.572 531.381,249.426 530.693,247.455 M531.155,257.944 L532.584,268.792 Q533.712,281.904 528.136,287.105 522.613,292.403 505.861,293.841 501.177,294.298 495.577,293.293 491.846,292.657 489.506,291.809 489.732,291.248 489.721,290"/>
      </g>
    </g>
  </g>
</svg>