<?xml version="1.0" encoding="utf-8"?>
<svg id="EdithAnim12" image-rendering="inherit" baseProfile="basic" version="1.1" x="0px" y="0px" width="800" height="600" xmlns="http://www.w3.org/2000/svg" xmlns:xlink="http://www.w3.org/1999/xlink">
  <g id="Textsf13r1" overflow="visible">
    <g id="Text-German-Pudding">
      <path id="Layer1_0_1_STROKES" stroke="#FFF" stroke-width="2" stroke-linejoin="round" stroke-linecap="round" fill="none" d="M383.95,507.9 Q383.45,507.05 383.45,506.4 383.45,504.2 388.45,502.4 392.75,500.9 395.95,500.9 400.6,500.9 403.7,504.65 406.7,508.3 406.7,513.4 406.7,519.1 400.95,524.65 396.05,529.4 393.45,529.4 391.05,529.4 389.85,527.95 389.15,527.2 388.95,526.15 M434.55,508 Q434.2,506.95 434.2,506.9 434.2,506.65 433.95,506.65 434.05,506.9 434.55,508 436.5,512.45 445.45,531.65 M415.7,507.9 Q415.2,509.65 415.2,513.65 415.2,518.75 415.55,520.15 416.7,524.7 421.45,528.15 423.9,529.95 426.1,530.6 427.85,531.15 430.1,531.15 433.85,531.15 435.45,528.15 436.95,525.35 436.95,519.05 436.95,515.85 435.6,511.4 434.85,509.1 434.55,508 M463.2,508.4 Q461.95,508.15 461.2,508.15 454.75,508.15 451.2,512.4 448.2,516 448.2,521.15 448.2,526.1 452.45,529.15 455.9,531.65 459.6,531.65 463.5,531.65 465.45,527.65 466.95,524.6 466.95,520.4 466.95,516.95 466.5,513.35 465.55,510.85 464.4,507.65 461.4,499.35 459.45,498.4 L460.6,498.4 Q463.25,498.4 465.2,506.65 466.05,510.05 466.5,513.35 468.9,520 469.45,521.15 471.15,524.6 472.55,528.45 473.65,531.3 473.95,531.65 L473.95,531.15 M501.2,494.9 Q500,494.85 499.25,495.4 498.85,495.65 498.7,495.9 M489.45,504.85 Q485.2,497.4 485.2,495.9 487.35,499.85 489.45,504.85 489.466,504.891 489.475,504.925 L489.5,504.95 Q494.35,513.45 495.95,519.9 498.15,528.95 499.95,531.9 M488.2,510.4 Q486.15,509.4 485.8,509.25 485.6,509.15 484.1,509.15 479.25,509.15 476.45,514.4 474.2,518.7 474.2,523.9 474.2,527.35 478.7,530.65 482.8,533.65 485.7,533.65 489.75,533.65 492.2,529.4 494.2,526 494.2,522.3 494.2,516.75 490.35,507.1 489.916,505.993 489.475,504.925 M500.2,506.65 Q500.7,507.85 503.65,515.6 506.75,523.5 508.45,526.9 M515.2,508.65 Q516.3,513.55 517.6,521.65 518.85,529.15 518.95,531.3 518.9,528.8 518.6,525.05 518.2,520.95 518.2,520.9 518.2,514.3 521.25,509.15 524.5,503.65 529.35,503.65 534.45,503.65 536.6,512.2 537.7,516.75 538.45,523.9 M559.45,520.55 Q560,519.55 560.45,518.4 562.2,514.05 562.2,509.4 562.2,505.85 561.7,505.5 561.05,505.1 560.95,504.15 560.7,504.15 560.7,503.9 560.4,504.65 559.8,507.25 559.2,510.05 559.2,511.05 559.2,515.75 559.45,520.55 559.7,524.65 560.1,528.85 560.95,537.8 560.95,538.9 560.95,547.1 557.25,551.9 553.55,556.65 547.35,556.65 541.7,556.65 534.8,552.3 528.9,548.55 527.95,546.15 L528.25,546.2 Q528.65,546.25 528.95,546.4 M560.45,503.4 Q560.1,501.35 557.8,500.9 555.55,500.9 555.45,500.9 550.25,500.9 545.7,505.9 541.45,510.6 541.45,515.05 541.45,518.1 545.7,521.9 549.65,525.4 551.7,525.4 556.7,525.4 559.45,520.55 M592.2,504.15 Q592.2,508.8 594.35,513.8 595.75,517.2 596.25,520.25 595.2,507.1 595.2,505.8 595.2,502.9 599.25,499.9 602.6,497.4 603.85,497.4 608.55,497.4 610.75,505.15 611.35,507.4 611.75,510 612,505.5 612.4,503.85 613.75,498.4 619.1,498.4 620.75,498.4 622.95,507.45 624.95,515.6 624.95,519.15 624.95,520.65 624.1,523.55 623.15,526.6 622.2,527.9 M629.45,503.15 Q628.7,504.65 628.7,506.8 628.7,509.75 630.75,512.4 633,515.4 636.35,515.4 643.15,515.4 645.65,509.65 647.15,506.25 647.15,500.15 L647.15,497.9 Q648.3,520.5 643.95,532.6 639.85,543.9 631.85,543.9 627.45,543.9 624.7,541.25 621.45,537.35 618.45,534.9 L618.45,533.4 618.7,533.15 619.45,533.9 M666.4,497.9 Q665.3,496.25 664.95,496 664.25,495.4 662.8,495.4 659.85,495.4 657.9,496.9 656.15,498.3 656.15,499.9 656.15,501.45 658.05,502.85 659.15,503.65 662.15,505.55 668.15,509.85 668.15,517.9 668.15,520.4 667.4,521.65 666.2,523.65 662.9,523.65 659.75,523.65 657.3,520.5 655.3,517.95 655.15,515.9 L655.65,515.9 M674.4,511.9 Q681.4,509.5 683.5,507.85 685.9,506.05 685.9,502.65 685.9,500.8 684.65,500.15 683.65,499.65 681.05,499.65 677.35,499.65 674.4,502.9 671.4,506.25 671.4,510.65 671.4,513.95 675.15,516.4 678.55,518.65 682.15,518.65 684.3,518.65 687.05,517.35 690.4,515.7 690.4,513.4 L690.15,513.4 M708.15,511.15 Q712.05,509.6 715.05,508.6 715,508.5 715,508.45 712.65,498.1 712.65,490.55 712.65,483.55 715.4,478.95 717.55,475.4 719.15,475.4 721.15,475.4 722.35,478.5 723.3,480.9 723.15,481.9 M694.9,480.4 Q696,487.05 696.75,492.35 698.4,503.4 698.4,506.05 698.4,514.4 698,518.8 697.7,521.95 696.9,525.15 M715.05,508.6 Q717.6,507.7 719.5,507.2 722.55,506.4 725.15,506.4 M611.75,510 Q612.2,513.4 612.2,517.4 612.2,518.5 611.7,521.2 611.25,523.75 611.2,524.35 611.4,515.2 611.75,510Z M596.25,520.25 Q596.45,521.75 596.45,523.15 M518.95,532.4 L518.95,531.45 Q518.95,531.35 518.95,531.3 M722.9,528.15 Q717.95,521.6 715.05,508.6 M123.3,499.15 Q118.85,494.15 117.2,492.65 114.65,490.4 108.95,490.4 94.45,490.4 86.55,503.9 80.8,513.85 80.8,524.3 80.8,534.35 85.8,541.15 90.6,547.65 96.95,547.65 100.2,547.65 107.65,544.9 114.2,542.45 116.55,540.9 119.85,538.7 122.4,534.45 124.65,530.6 124.8,528.05 L124.8,527.65 M141.15,526.15 Q145.2,525.2 151.05,522 154.65,520.05 159.3,517.4 162.25,516.25 166.5,515.2 169.3,514.35 169.3,512.55 169.3,510.3 164.55,509.15 161.35,508.4 158.2,508.4 151,508.4 146.05,512.9 141.05,517.5 141.05,524.3 141.05,525.25 141.15,526.15 141.9,533.15 148.55,538.9 155.45,544.9 162.3,544.9 166.25,544.9 167.85,543.75 168.8,543.05 170.55,539.9 M177.3,511.9 Q178.95,516 181.6,526.95 183.95,536.85 185.05,538.65 183.25,531.45 182.95,530.05 182.3,526.85 182.3,524.4 182.3,519.25 183.5,515.85 184.1,514.15 186.3,510.4 187.9,507.7 190.7,505.15 193.7,502.4 195.3,502.4 197,502.4 198.05,505.85 198.8,508.35 198.8,509.9 M211.3,503.15 Q210.7,501.65 210.3,501.65 L210.3,502.9 Q210.55,504.1 210.95,506.95 211.55,511.15 211.55,513.8 L211.05,521.3 Q211.05,525 212.05,528.15 212.45,529.4 212.85,530.2 212.65,529.15 212.3,527.45 211.55,523.65 211.55,523.05 211.55,518.85 212.75,513.9 214.05,508.65 215.55,507.65 219.75,504.5 221,503.55 222.9,502.15 225.05,502.15 229.5,502.15 231.55,506.9 232.7,509.7 233.1,514.35 234.3,510.05 236.8,506.9 241,501.65 246.65,501.65 248.35,501.65 250.45,504.45 253,507.9 253.3,512.9 253.35,514.4 255.3,523.55 255.3,527.45 253.15,531.3 252,533.25 250.55,535.15 M294.55,511.75 L294.55,512.15 Q294.65,514 295.3,514.85 296.05,515.75 296.05,520.55 296.05,524.55 295,527.7 295.05,530.8 295.05,533.3 295.05,537.1 295.3,538.55 295.8,541.05 297.3,541.4 M293.3,511.65 Q292.7,510.35 292.3,510 291.65,509.4 288.8,509.4 280.9,509.4 274.8,516.65 269.3,523.2 269.3,529.8 269.3,532.85 272.8,535.2 276.15,537.4 280.15,537.4 288.7,537.4 292.8,531.9 294.2,530.05 295,527.7 294.95,524.45 294.8,520.5 294.6,513.95 294.55,512.15 M306.8,511.15 Q306.8,513.85 307.1,518.55 307.4,523.9 307.8,526.65 307.95,527.8 308.1,528.9 308.5,518.9 314.55,511.95 319.8,505.9 324.4,505.9 328.15,505.9 330.3,509.7 332.3,513.25 332.3,519.15 332.3,534.65 330.05,536.9 M383.2,506.65 Q383.35,509.6 385.95,519.5 388.6,529.6 388.95,534.15 389.65,542.6 390.55,548.2 391.2,552.5 391.2,552.9 391.35,555.15 390.45,555.15 M308.1,528.9 Q308.45,532 308.55,534.4 L308.55,537.9 Q308.4,537.6 308.2,534.2 308.05,531.3 308.05,530.4 308.05,529.65 308.1,528.9Z M233.1,514.35 Q233.3,516.6 233.3,519.3 233.3,521.7 232.95,525.65 232.55,529.6 232.55,530.65 232.4,530 232.2,526.6 232.05,523.65 232.05,522.8 232.05,518.15 233.1,514.35Z M212.85,530.2 Q212.95,530.45 213.05,530.65 L213.05,531.825 Q213.042,531.394 212.85,530.2Z M139.8,526.4 Q140.45,526.3 141.15,526.15 M124.8,528.05 Q124.75,529.3 124.45,533.1 124.05,537.7 124.05,539.4 124.05,544.3 124.55,547.2 124.95,549.65 125.05,550.9 125.05,551.2 125.05,551.4" test="Text German Pudding"/>
    </g>
  </g>
</svg>