<?xml version="1.0" encoding="utf-8"?>
<svg id="EdithAnim15" image-rendering="inherit" baseProfile="basic" version="1.1" x="0px" y="0px" width="800" height="600" xmlns="http://www.w3.org/2000/svg" xmlns:xlink="http://www.w3.org/1999/xlink">
  <g id="Textsf15r1" overflow="visible">
    <g id="Text-Soup-on-Knee">
      <path id="Layer1_0_1_STROKES" stroke="#F60" stroke-width="2" stroke-linejoin="round" stroke-linecap="round" fill="none" d="M370.6,299.8 Q371.05,303.55 372.7,319.45 374.3,333.85 375.1,335.4 375.05,329.65 373.35,319.05 371.6,308.05 371.6,305.05 371.6,300.15 375.6,297.8 378.15,296.3 380.85,296.3 386.35,296.3 389.65,301.35 392.65,305.85 392.65,312.05 392.65,317.4 390.15,319.35 388.25,320.8 383.85,320.8 379.25,320.8 377.5,318.75 376.2,317.2 376.1,313.8 M334.6,306.3 Q334.15,317.75 337.25,321.55 339.55,324.3 346.1,324.3 353.15,324.3 357.6,316.2 360,311.85 360.5,307.95 359.05,303.65 359.6,301.8 360.1,301.8 360.1,302.3 360.85,305 360.5,307.95 361.2,310 362.35,312.65 366.55,321.95 366.6,322.3 M375.1,335.4 L375.1,335.9 M419.2,317.3 L419.7,314.8 Q417.9,314.3 416.65,314.3 412.15,314.3 409.15,318.8 406.65,322.55 406.65,326.3 406.65,330.15 409.65,332.4 412.25,334.4 415.9,334.4 423.35,334.4 426.2,330.9 428.7,327.85 428.7,320.8 428.7,317.65 426.5,315.85 423.95,313.75 418.7,313.8 M434.7,306.3 Q434.7,307.3 436.75,316.7 438.8,325.95 438.7,327.8 439,327.8 439.2,328.35 439.5,329.1 439.7,329.3 439.2,318.55 439.2,317.3 439.2,310.2 444.75,307.8 447.55,306.6 450.7,306.8 455.7,306.8 457.25,307.8 459.75,309.4 459.75,315.05 459.75,318.3 458.25,325.8 L456.75,325.8 M407.15,366.9 Q418.2,367.3 422.6,365.25 427.2,363.1 427.2,357.15 427.2,353.4 425.7,352.4 424.25,351.4 418.9,351.4 409.85,351.4 405.15,355.95 401.15,359.8 401.15,365.9 401.15,369.4 401.95,372.35 402.95,376 405.15,378.9 409.3,384.4 415.9,384.4 428.75,379.8 432.7,375.9 M369.1,367.9 Q372.1,368.4 375.1,368.4 381.95,368.4 386.65,364.4 390.15,361.4 390.15,359.65 390.15,357.35 388.15,355.9 386,354.4 382.1,354.4 373.95,354.4 369.1,358.4 364.1,362.55 364.1,369.9 364.1,371.15 364.75,372.35 367.9,378.25 386.4,383.4 391.25,383.4 395.95,380.4 399.65,378 400.65,375.9 M276.45,315.3 Q275.5,312.1 271.5,311.15 270.05,310.8 266.95,310.8 262.65,310.8 260.45,312.3 258.45,313.7 258.45,316.3 258.45,320.4 263.05,322 264.95,322.7 273.25,323.8 280.2,324.75 283.4,326.75 288,329.65 288,335.9 288,341.5 284.5,345.9 280.2,351.4 272.45,351.4 267.6,351.4 264.95,348.9 262.95,347 262.95,344.65 262.95,343.7 263,343.5 263.1,343.3 263.45,342.9 M310.05,311.3 Q316.2,310.65 318.7,311.55 318.05,306.3 308.5,306.3 301.65,306.3 297.05,314.3 293.5,320.45 293.5,324.8 293.5,330.6 299.05,333.4 302.95,335.4 308,335.4 314.65,335.4 318.1,328.85 320.6,324.05 320.6,318.55 320.6,313.05 319.95,312.3 319.55,311.85 318.7,311.55 318.8,312.55 318.6,313.8 M326.1,356.4 Q328.85,363.35 331.9,371.9 334.6,379.5 334.6,379.9 L334.65,380.15 Q334.8,380.4 335.1,380.4 334,365.65 335.35,361.75 337,356.9 344.6,356.9 346.8,356.9 348.6,358.2 350.9,359.8 352.6,363.4 354.8,367.95 355.05,372.35 355.1,373 355.1,373.65 355.1,376.25 354.1,377.65 353.15,379 353.1,381.4 L352.6,381.4 M328.35,385.65 Q326.95,384.3 325.05,382.85 323.1,381.4 320.6,379.8 316.85,377.45 311.8,374.8 311.6,374.7 298.6,368.45 300.05,365.45 302.8,361.05 307.75,353.15 309.5,351.4 M293.5,352.4 Q292.7,356.3 296.7,370.55 296.95,371.35 297.15,372.2 298.75,377.75 300.5,383.25 300.75,384.1 301,384.9" test="Text Soup on Knee"/>
    </g>
  </g>
</svg>