<?xml version="1.0" encoding="utf-8"?>
<svg id="EdithAnim12" image-rendering="inherit" baseProfile="basic" version="1.1" x="0px" y="0px" width="800" height="600" xmlns="http://www.w3.org/2000/svg" xmlns:xlink="http://www.w3.org/1999/xlink">
  <g id="Textsf16r1" overflow="visible">
    <g id="Text-Loo-of-Fur">
      <path id="Layer1_0_1_STROKES" stroke="#FFF" stroke-width="2" stroke-linejoin="round" stroke-linecap="round" fill="none" d="M342.3,137.3 Q345.15,132.05 345.15,122.25 345.15,121 344.55,120 343.95,119 343.95,118.25 L342.95,118.25 Q342.95,119.3 342.2,125.05 341.4,130.85 341.4,131.55 341.4,135.45 342.3,137.3 343.5,139.75 347.6,142.7 347.6,143 348.3,143 347.9,143.3 346.7,143.3 M342.35,117.95 Q338.7,115.5 336.9,115.05 336,114.8 332.1,114.8 331.5,114.8 330.9,114.85 323.15,115.1 316.95,118.8 308.55,123.85 308.55,132.95 308.55,139.2 312,142.75 315.6,146.45 322.5,146.45 327.2,146.45 330.9,145.55 338.55,143.6 342.05,137.75 342.2,137.55 342.3,137.3 M270.15,209.65 Q271.5,214.35 275.75,224.6 279,232.5 279.75,237.95 L279.75,238.55 280.05,238.55 Q279.7,236.25 278.2,228.8 277.85,226.95 277.85,222.35 277.85,217.3 280.95,213.1 282,211.65 283.15,210.7 285.5,208.75 288.25,208.75 291.6,208.75 294,210.85 296.75,213.25 298.65,218.65 299.1,220 299.2,221.95 299.25,222.9 299.25,225.8 299.25,227.45 298.95,230.9 L298.95,234.5 Q299.7,226.1 305.9,217.8 311.8,209.95 316.2,209.95 319.2,209.95 320.4,219.6 321,224.55 321,230.3 321,234.2 320.35,236.2 320,237.35 319.1,239.75 M404.25,220.5 Q404.4,217.8 404.4,214.8 404.4,208 403.5,203 402.45,197 400.35,195.7 L400.35,197.6 Q401.3,205.55 404.25,220.5 407.55,237.45 409.05,239.45 L409.05,238.55 M400.05,213.4 Q399.05,212.2 396.35,211.6 394.65,211.25 393.5,211.25 387.4,211.25 382.65,218.05 378.6,223.9 378.6,228.9 378.6,234.15 382.65,237.55 386.8,241 393.35,241 399.45,241 402.25,232.6 403.8,227.8 404.25,220.5 M367.95,226.85 Q368.4,224.35 368.4,221.3 368.4,217.85 367.15,214.7 365.75,211.25 363.75,210.95 L363.75,215.3 Q366,221 367.95,226.85 368.5,228.45 369,230.1 371.1,236.6 371.85,240.05 M361.55,212.45 Q359.75,211.65 358.85,211.25 357.25,210.65 355.5,210.65 349.65,210.65 344.85,214.6 339.6,218.95 339.6,225.3 339.6,231.35 345.2,234.8 349.6,237.55 354.75,237.55 361.65,237.55 365,233.6 367.15,231.1 367.95,226.85 M423.9,222.7 L425.75,223 Q434.4,223 441.9,219.95 448.7,217.15 448.7,214.65 448.7,212 444.65,209.65 440.95,207.5 438,207.5 432.1,207.5 427.65,210.35 422.4,213.65 422.4,219.45 422.4,227.2 428.9,234.2 435.55,241.3 443.3,241.3 444.9,241.3 445.7,240.9 446.8,240.35 448.1,238.55 M276.6,326.9 Q277.95,331.15 279.45,340.7 280.2,345.35 280.9,349.85 L280.65,343 Q280.65,331.2 286.8,325.7 291.65,321.35 299.55,321.35 300.4,321.35 301.6,321.6 303.65,322 304.5,322.85 303.6,323.15 303,323.15 M257.1,332.85 Q257.85,327.5 258.3,325.7 L258.3,325 Q257.8,325.8 257.4,328.75 257.1,331.15 257.1,332.45 257.1,332.65 257.1,332.85 257.15,343.9 259.95,350.05 261.8,354.15 265.4,356.65 M280.9,349.85 Q280.95,350 280.95,350.15 L280.95,351.05 280.9,349.85Z M337.65,421.45 Q337.9,421.45 338.5,421.65 337.4,419.45 327.5,417.95 314.4,416.4 310.05,415.55 L309.825,415.55 Q310.477,415.564 311.6,416.15 M338,422.75 Q336.7,423.95 331.45,431.2 326.15,438.5 325.4,441.4 325.25,441.9 325.25,442.25 M163.1,437.3 Q164.2,440.7 164.55,441.15 165.85,442.8 171.8,446.6 176.1,449.35 184.8,451.85 197.15,455.5 200.6,456.8 205.35,458.6 216.1,459.65 225.55,460.55 235.85,460.55 268.7,460.55 292.55,449.8 302.2,445.45 314.75,437.5 329.75,427.65 338.6,421.95 338.55,421.8 338.5,421.65 338.65,421.65 338.9,421.75 338.75,421.85 338.6,421.95 M72,193.25 Q71.25,194.8 71.15,195.25 71.1,195.55 71.1,196.95 71.1,200.9 73.6,210.15 76.3,220.2 76.65,223.9 77.1,229.55 81.4,238.25 83.45,242.5 85.6,246.15 M209.7,127.25 Q215,125.95 222.35,124.5 227,123.15 227,119.9 227,117.15 224.25,115.75 221.75,114.5 217.55,114.5 211.3,114.5 209,117.95 207.15,120.7 207.15,127.4 207.15,136.7 212.4,140.5 216.7,143.6 225.6,143.6 232.65,143.6 235.5,142.85 237.7,142.25 243.6,139.2 243.8,139.05 244.05,138.95 M167.75,119.75 Q167,117.05 168.35,114.1 169.6,111.25 171.8,110.15 173.35,109.45 176.4,107.9 178.95,106.8 181.15,106.7 181.3,106.7 181.4,106.7 181.4,106.05 184.1,107.05 186.65,108.05 189.15,109.55 190,110.05 190.75,110.9 191.65,112.05 191.7,113.3 191.85,117.1 192.7,120.4 193.5,123.45 193.5,126.25 193.5,128.9 193.2,130.05 192.9,131.15 192.9,132.8 M163.5,86.3 Q165.25,90.4 165.8,95.45 166,97.45 166.2,104 166.3,107.25 166.95,114.85 167.45,121.2 167.45,125.2 167.45,128.5 166.85,137.3 166.85,138.05 167.15,139.9 M139.85,101.15 Q131.35,100.55 129.95,100.55 123.15,100.55 123.15,108.3 123.15,112.15 126.65,115.4 128.65,117.25 134.35,120.65 139.85,123.95 142,126.05 145.5,129.5 145.5,133.7 145.5,140.25 139.55,144.25 134.55,147.65 128.55,147.65 124.55,147.65 121.25,145.7 117.95,143.8 117.6,141.2 M162.2,209.65 Q162.75,209.1 164.15,208.2 165.2,207.55 165.75,207.3 165.6,206.9 165.4,206.75 164.25,205.7 160.2,205.7 152.1,205.7 148.85,211.9 146.7,216 146.7,223.15 146.7,226.3 152.6,230.15 158.85,234.2 165,234.2 169.95,234.2 174.05,231.1 178.35,227.85 178.35,223.45 178.35,215.85 174.35,211.25 170.8,207.2 166.2,207.2 166.05,207.2 165.75,207.3 165.85,207.65 165.9,208.1 M119.7,215 Q118.25,213.35 116.65,212.9 116,212.75 114,212.75 109.2,212.75 105.15,218.65 101.4,224.2 101.4,229.85 101.4,234.65 106.7,238.85 111.8,242.9 116.95,242.9 122.2,242.9 127.2,238.85 132.15,234.85 132.15,230.75 132.15,221.35 125.3,217.45 121.05,215 115.05,215 114.15,215 112.95,216.2 M218.3,303.65 Q217.5,300.55 213.95,297.9 210.35,295.25 207,295.25 201.8,295.25 198.8,299.9 195.95,304.3 195.95,311.25 195.95,319.3 197.1,333.4 197.45,337.6 197.7,341.1 197.85,341 198,340.95 207.25,337.4 210.6,337.4 M197.7,341.1 Q198.2,349.05 198.15,353.3 198.1,360.5 199.05,364.15 200.25,368.8 200.6,373.7 L201.3,373.7 M187.95,344.6 Q188.5,344.55 197.7,341.1 M229.2,325.3 Q229,326.95 228.8,330.4 228.6,333.45 228.6,334.2 228.6,341.55 232.9,346.7 237.25,352 243.75,352 252.35,352 255.25,342.55 256.15,339.6 256.95,333.95 257.05,333.4 257.1,332.85 M128.4,294.05 Q125.75,291.75 123.15,291.15 122.2,290.9 120,290.9 113.4,290.9 109.8,300.5 106.65,308.85 106.65,321.45 106.65,324.25 111.8,341.75 113.65,348.1 114.95,353 121.8,349.7 124.95,348.65 L123.75,348.65 M114.95,353 Q117.25,362.05 117.5,366.25 L118.5,366.25 M103.95,358.25 Q104.25,358.25 112.35,354.25 113.7,353.6 114.95,353 M86.85,328.1 Q86.5,327.75 86.1,327.45 84,326.65 82.5,326.9 M86.1,327.45 Q84.7,326.35 82.35,325.7 79.9,325 77.4,325 71.15,325 67.95,329.35 65.45,332.75 65.45,337.45 65.45,342.4 68.85,345.85 72.3,349.25 77.2,349.25 83.9,349.25 89.3,344.9 94.65,340.6 94.65,335.45 94.65,332.1 89.65,329.15 87.7,328 86.1,327.45Z" test="Text Loo of Fur"/>
    </g>
  </g>
</svg>