<?xml version="1.0" encoding="utf-8"?>
<svg id="EdithAnim12" image-rendering="inherit" baseProfile="basic" version="1.1" x="0px" y="0px" width="800" height="600" xmlns="http://www.w3.org/2000/svg" xmlns:xlink="http://www.w3.org/1999/xlink">
  <g id="Textsf17r1" overflow="visible">
    <g id="Text-Mr-Grammar-Police">
      <path id="Layer1_0_1_STROKES" stroke="#FFF" stroke-width="2" stroke-linejoin="round" stroke-linecap="round" fill="none" d="M411.75,482.85 L415.95,501.75 Q415.9,500.75 415.9,499.8 416.15,491 421.25,479.25 426.3,467.5 433.2,476.9 437.35,482.6 437.8,490.45 441.1,481.45 444.45,476 447.8,470.5 454.9,472.3 461.7,478.15 462.1,487 462.5,495.65 459.75,503.85 M505.35,475.55 Q505.4,475.65 507.4,482.15 507.9,483.7 508.3,485.1 508.5,481.6 514.65,477 517,475.2 518.6,474.75 519.55,474.5 522.15,474.5 524.1,474.5 524.35,474.6 524.7,474.7 525.95,475.4 M573.6,503 Q573.35,502.3 570.5,497.9 567.6,493.5 567.2,492.15 566.75,490.6 565.45,484.9 564.15,479.15 564,477.9 563.55,475.05 561.2,466.45 559.65,460.8 559.65,452.4 559.65,447.65 560.1,445.85 560.5,444.2 561.85,441.95 562.4,441 563.1,439.95 565.15,436.9 568.05,435.5 568.1,435.45 568.15,435.45 568.25,435.4 568.4,435.35 571.15,434.15 575.1,434.15 578.7,434.15 580.95,435.35 581.05,435.4 581.15,435.45 582.65,436.35 586.35,439.65 587.65,440.8 588.7,441.95 591,444.5 591.85,446.95 592.8,449.55 592.8,455.05 592.8,463.75 588.35,469.5 584.8,474.1 580.7,474.8 579.5,475.05 576,476.8 572.85,478.35 571.25,478.35 570.55,478.35 569.9,478 569.3,477.6 568.8,477.6 M621.8,436.2 Q621.9,436.8 622.5,441.95 623.45,449.75 625.65,468.1 628.6,492.9 629.8,500.1 629.85,500.25 629.85,500.4 M674.4,458.7 Q671.5,458.1 670.8,458.1 666.3,458.1 664,463.7 662.25,467.85 662.25,472.95 662.25,476.5 663.45,481.05 664.7,485.9 666.3,487.65 667.55,489.05 668.1,489.35 668.4,489.55 670.65,490.35 679.95,492.15 679.95,491.55 679.95,491.35 679.8,491.4 679.557,491.545 679.4,491.55 679.704,491.55 679.95,491.55 681.2,491.55 681.5,491.5 681.65,491.45 681.95,491.1 M644.75,453.3 Q643.1,453.45 642.35,454.1 641.7,455 641.15,455.4 M685.2,471.3 Q685.95,471.6 686.75,471.6 691.1,471.6 694.95,468.65 698.7,465.8 698.7,462.8 698.7,460.9 697.35,459.9 696.3,459.15 695.05,459.15 690.75,459.15 687.75,463 684.45,467.25 684.45,474.2 684.45,481.75 692.2,486.15 697.65,489.2 701.8,489.2 703.35,489.2 705.6,487.75 707.75,486.4 708.15,486.45 708.15,486.3 707.7,486.15 M645.95,470.45 Q647.05,475.95 648.55,485.7 649.55,492.3 650.25,495.05 650.35,495.55 650.45,495.9 M605.1,482.25 Q603,481.8 601.15,481.8 596.25,481.8 592.8,485.25 589.55,488.5 589.55,492.55 589.55,494.65 592,496.35 594.5,498.05 597.45,498.05 602.5,498.05 605.8,495.3 608.75,492.85 608.75,490 608.75,486.2 604.55,484.9 603.1,484.45 599.6,484.25 M508.3,485.1 Q509.3,488.7 509.55,490.65 510.2,495.7 511.1,499.4 511.95,503 512.6,503.6 M491.55,471.9 Q482.25,469.75 477.45,478.2 473.2,485.55 473.3,493.9 473.45,504.2 483.55,505 487.2,505.2 489.4,502.05 492.8,497.2 493.65,491.3 491.45,482.45 491.4,473.25 L493.65,491.3 Q497.4,498.25 501.25,505.05 501.45,505.35 501.5,505.85 M437.35,499 Q437.5,498.2 437.65,497.4 437.65,493.846 437.75,491.9 L437.75,491.75 437.75,491.25 Q437.75,491.2 437.8,491.2 L437.825,491.175 437.8,491.125 437.8,490.45 Q438.3,493.1 437.75,496.95 437.7,497.7 437.65,498.55 437.65,497.95 437.65,497.4 437.653,497.3 437.7,497.3 L437.7,497.25 437.75,491.9 M437.75,491.75 Q437.76,491.437 437.8,491.2 M437.75,496.95 Q437.706,497.081 437.7,497.25 M437.7,497.3 L437.65,498.55 M437.75,496.95 Q437.958,491.745 437.825,491.175 M352.65,485.4 Q353.4,489.15 355.65,503 356.75,509.4 357.9,511.85 L357.6,499.6 Q357.6,492.05 362.1,486.2 366.55,480.3 372.4,480.3 378.65,480.3 379.75,490.35 380.4,495.95 380.25,507.35 L380.25,507.5 Q381.55,494.2 385.55,487.5 389.25,481.2 394.95,481.2 398.4,481.2 400.05,484.3 401.3,486.6 402.45,491.2 403.6,495.75 403.75,500.55 403.9,505.3 401.45,511.6 M75.8,518.1 Q76,516.65 76.75,512.4 77.15,510.15 77.15,507.9 77.15,501.7 74.1,468.6 L74.1,466.95 74.7,466.95 Q75.15,467.2 77.5,468.75 80.55,470.75 84.45,472.8 87.4,474.35 90,476 93.1,477.95 94.05,478.5 96.05,479.65 99.2,482.1 102.05,484.3 102.3,484.7 102.3,482.95 104.9,477.8 107.35,472.95 110.55,468.15 111.65,466.5 114.15,464.3 117.25,461.65 117.8,461 120.75,457.25 121.65,456.65 121.65,456.85 121.85,461.3 122.35,466.45 123.75,470.45 124.1,471.55 124.05,481.95 L123.9,493.85 Q123.9,499.5 124.2,504.7 124.75,513.95 124.8,515.55 L125.1,515.55 M261.35,461 Q261.05,458.85 257,455.4 253.35,452.3 251.8,452.15 251.7,452.15 251.6,452.15 251.6,451.85 246.7,453.3 241.95,454.75 240.6,455.4 238.75,456.55 234.45,459.3 228.5,463.2 227.55,464.25 222.6,469.85 220.2,476.85 218.1,482.9 218.1,489.4 218.1,498 222.9,504.55 228.35,512 237.25,512 240,512 244.2,509.6 249.85,506.1 253.8,503.85 255.25,503.05 256.6,501.5 257.5,500.45 259.05,498.2 259.15,498.1 259.6,496 260.05,493.95 260.25,493.7 260.25,498.95 259.65,509.9 259.65,511.85 261.05,515.75 261.95,518.2 262.9,519.4 263.8,520.55 264.75,520.55 265.1,520.55 265.1,520.2 M334.5,483.05 Q333.75,482.85 332.45,482.85 329.3,482.85 326.75,484.15 323.65,485.7 318.5,490.35 313.1,495.2 312.1,496.9 310.65,499.2 310.65,504.25 310.65,506.8 312.65,508.35 314.8,510 319,510 321.3,510 325.2,507.8 328.45,506 329.1,505.2 331.35,503.05 332.5,501.5 334.5,498.7 334.05,495.3 334.25,488.1 334.35,485.1 334.3,484.2 334.35,483.35 L334.35,483.5 Q334.35,484.05 334.35,485.1 334.55,490.95 338.3,500.15 340.55,505.65 343.5,512 M276.95,484.95 Q276.95,485.25 277,485.7 277.1,488.35 278.15,496.7 278.35,498.55 278.55,500.1 278.55,499.85 278.55,499.65 278.55,495.6 282,491.1 285.45,486.55 291.05,483.35 296.7,480.15 299.1,479.4 301.2,478.7 304.85,478.7 L306.6,478.85 307.2,478.85 307.2,479 306.6,478.85 M278.55,500.1 Q279.3,506.5 279.3,506.9 279.3,509.9 279.15,513.55 279.15,515.1 279,516.5 278.85,516.65 278.7,516.65 278.55,509 278.55,500.1Z M137.4,492.3 Q138.55,497.6 139.2,501.55 140.4,495 146.45,490.8 152.25,486.85 152.85,486.5 156.1,484.55 158.75,484.55 160.75,484.55 162.5,486.2 164.3,487.9 163.7,489.35 L163.2,489.2 M139.2,501.55 Q139.8,505.15 139.9,507.65 140.1,510.55 139.8,514.25 139.828,514.397 139.85,514.55 139.95,515.45 140.1,516.5 L139.95,516.2 139.85,514.55 M139.8,514.25 Q139.393,511.481 139.25,510.2 138.9,507.45 138.9,504.9 138.9,503.15 139.2,501.55" test="Text Mr Grammar Police"/>
    </g>
  </g>
</svg>