<?xml version="1.0" encoding="utf-8"?>
<svg id="EdithAnim12" image-rendering="inherit" baseProfile="basic" version="1.1" x="0px" y="0px" width="800" height="600" xmlns="http://www.w3.org/2000/svg" xmlns:xlink="http://www.w3.org/1999/xlink">
  <g id="Textsf23r1" overflow="visible">
    <g id="TextJurorParrots">
      <path id="Layer1_0_1_STROKES" stroke="#FFF" stroke-width="2.364" stroke-linejoin="round" stroke-linecap="round" fill="none" d="M399.655,28.376 Q399.715,29.381 400.306,40.196 400.424,44.451 400.542,47.643 405.684,46.638 409.584,46.106 M400.542,47.643 Q400.601,52.43 400.483,54.558 400.306,56.508 400.365,64.25 400.306,70.101 399.833,71.519 M387.067,50.716 Q388.249,50.125 391.559,49.416 393.391,49.061 397.587,48.234 399.064,47.938 400.542,47.643 M426.31,40.846 Q423.059,39.487 419.454,39.487 415.376,39.783 413.485,43.329 411.948,45.929 414.076,47.997 416.381,50.302 419.631,51.543 422.527,52.548 425.187,54.321 427.905,56.094 428.437,59.345 428.969,63.009 426.31,65.432 423.532,67.796 419.927,67.678 417.326,67.205 415.435,66.141 413.189,65.077 411.239,63.659 M474.476,55.858 Q478.199,54.558 485.941,52.962 488.069,52.43 490.019,52.134 489.783,48.411 488.956,38.837 487.833,26.899 487.892,26.662 M490.019,52.134 Q496.048,51.071 498.471,51.543 L502.253,51.78 M490.019,52.134 Q489.96,52.666 490.019,53.139 490.138,58.517 489.369,76.956 M504.381,28.199 Q507.749,43.979 507.395,53.021 L507.099,58.399 Q507.513,57.099 508.34,55.503 509.877,52.312 511.591,50.834 513.837,48.825 518.151,49.061 522.583,49.298 524.12,51.78 525.598,54.203 525.184,62.595 524.829,70.928 523.529,73.41 M535.231,59.936 L549.356,56.862 Q549.829,56.626 550.36,56.39 554.143,54.853 554.852,50.952 555.325,47.288 551.897,46.402 548.647,45.515 545.337,46.343 541.673,47.347 539.309,50.361 536.886,53.257 536.236,55.74 535.526,58.163 535.231,59.936 534.581,63.6 535.881,66.909 536.886,69.805 539.072,71.992 541.259,74.297 544.746,74.592 547.819,75.124 551.365,74.652 553.02,74.238 554.734,73.41 556.98,72.642 558.516,70.692 M530.621,60.94 L535.231,59.936 M582.57,53.435 Q582.747,50.657 582.688,47.938 582.688,46.165 582.511,44.451 L582.57,53.435 Q586.705,68.072 588.598,82.807 590.489,94.273 582.629,102.96 582.511,103.138 582.393,103.315 580.055,104.493 577.251,103.876 576.723,103.938 576.187,103.965 571.282,103.315 567.027,100.715 566.849,100.596 566.731,100.478 M641.788,59.108 Q643.798,55.089 650.594,52.548 655.499,50.657 658.336,50.657 660.109,50.598 661.587,52.489 662.296,53.435 663.182,54.794 M685.404,51.603 L684.931,51.425 Q672.284,55.68 671.515,67.914 671.043,74.474 676.421,78.198 683.926,83.398 692.851,80.798 699.056,78.848 701.006,72.583 704.552,61.177 696.692,53.435 692.437,49.12 685.759,51.603 L685.404,51.603Z M721.514,36.118 Q720.923,39.014 720.509,47.466 719.977,55.976 718.973,61.354 718.323,64.723 718.264,73.883 718.204,78.493 718.204,82.748 M737.648,37.95 Q737.707,40.433 736.112,52.962 735.816,55.326 735.875,60.704 735.875,63.659 736.053,69.392 736.112,90.195 736.289,92.322 M641.197,49.593 Q640.488,55.208 641.079,66.969 641.493,78.257 641.434,78.552 M564.426,48.648 Q561.787,64.769 568.622,68.742 575.461,72.711 578.935,66.318 582.397,59.933 582.57,53.435 M507.099,58.399 Q506.449,70.515 505.74,73.647 M79.511,25.835 L67.218,27.076 67.927,29.558 Q68.695,33.341 68.991,40.846 69.168,51.662 68.282,58.281 67.218,64.782 63.199,68.091 59.121,71.401 55.28,71.874 51.379,72.169 48.72,70.633 45.233,68.682 44.169,67.087 42.691,65.077 43.519,62.241 M54.275,28.435 Q55.102,28.199 64.854,27.312 66.036,27.194 67.218,27.076 M84.948,41.792 Q84.771,45.279 84.475,48.884 84.121,52.371 84.18,55.799 84.239,58.695 84.357,61.59 84.475,65.136 86.603,67.914 88.435,70.692 91.922,70.692 95.231,70.692 98.127,69.451 101.023,68.269 103.092,65.668 105.101,62.95 106.579,59.995 108.115,57.04 109.238,54.085 110.302,51.248 110.656,48.234 110.656,47.584 110.775,46.934 110.834,40.787 110.893,45.338 110.834,46.047 110.775,46.934 110.716,48.766 110.716,51.721 111.07,67.441 115.03,76.07 M121.59,47.288 Q122.299,50.657 122.949,54.144 123.127,55.562 123.422,57.04 125.195,54.144 127.145,51.307 128.918,48.588 131.519,47.052 134.533,45.102 138.02,45.279 138.729,45.22 139.556,45.515 140.266,45.456 141.034,45.397 M123.422,57.04 Q123.658,58.813 124.072,60.586 124.722,63.541 125.431,66.673 126.082,69.864 127.323,72.938 M154.45,45.338 Q160.714,42.028 165.56,45.811 170.229,49.357 169.697,55.858 169.106,62.3 165.915,67.028 162.546,71.874 157.286,73.41 152.322,74.888 149.249,71.342 146.707,68.505 146.294,63.836 145.88,59.167 147.83,54.026 149.958,47.997 154.45,45.338Z M183.231,41.378 Q183.054,41.733 184.709,55.267 L186.186,52.075 Q188.255,48.411 191.446,46.756 195.701,44.451 198.124,43.506 201.257,42.087 203.975,41.91 206.221,41.556 207.344,42.442 207.817,42.738 208.408,43.329 M259.352,43.21 L259.529,55.414 Q259.538,54.9 260.002,54.085 261.007,51.898 263.903,49.179 266.976,46.224 269.931,45.515 271.94,44.865 274.836,45.338 277.614,45.811 280.096,48.352 283.051,51.425 282.756,55.444 282.401,59.64 279.328,63.068 276.609,65.964 273.713,66.378 268.808,66.969 266.621,66.437 261.716,65.255 259.47,60.054 L259.411,62.004 259.529,66.496 Q259.588,90.372 259.352,95.218 258.938,102.192 259.411,62.004 M259.47,60.054 L259.47,56.035 Q259.47,55.858 259.47,55.68 L259.529,55.444 259.529,55.414 M308.11,57.926 L308.11,57.808 Q307.164,44.392 306.159,43.742 304.682,42.678 302.14,42.797 299.067,42.738 296.703,44.451 292.803,47.17 291.089,49.12 288.134,52.489 288.607,56.212 289.138,60.172 291.443,62.418 293.571,64.368 296.171,64.132 299.54,63.718 302.613,62.477 306.809,60.704 308.11,57.926 308.523,64.486 308.819,70.987 M316.856,43.683 L318.629,50.184 Q320.816,47.643 323.535,45.633 326.253,43.565 329.563,42.856 332.104,42.147 336.478,42.442 M318.629,50.184 Q319.516,53.494 320.166,56.685 320.757,59.817 321.407,62.122 321.998,64.368 322.294,65.846 M344.692,42.383 L344.633,48.352 Q346.938,45.515 349.539,43.092 352.316,40.374 355.862,39.96 359.231,39.723 362.304,41.142 363.9,41.91 365.318,42.738 M344.633,48.352 Q345.047,51.543 345.874,54.439 346.82,57.749 347.884,60.881 348.711,63.659 349.716,66.318 M370.283,45.515 Q373.001,43.447 376.37,43.92 379.975,44.215 381.807,47.229 384.053,50.893 383.758,55.562 383.462,60 379.207,63.423 374.774,65.787 370.46,63.954 366.5,62.063 365.496,58.222 364.55,54.794 365.732,51.603 366.737,48.766 370.283,45.515Z M184.709,55.267 Q186.423,70.16 187.486,73.706" test="TextJurorParrots"/>
    </g>
  </g>
</svg>