<?xml version="1.0" encoding="utf-8"?>
<svg id="EdithAnim12" image-rendering="inherit" baseProfile="basic" version="1.1" x="0px" y="0px" width="800" height="600" xmlns="http://www.w3.org/2000/svg" xmlns:xlink="http://www.w3.org/1999/xlink">
  <g id="Textsf27r1" overflow="visible">
    <g id="TextNeedAMall">
      <path id="Layer1_0_1_STROKES" stroke="#FFF" stroke-width="2" stroke-linejoin="round" stroke-linecap="round" fill="none" d="M708,234.8 Q710.237,248.55 710.725,253.025 711.204,257.5 711.95,260.65 L712.9,264.45 Q715.1,273.25 717.5,281.8 717.55,282.3 717.8,282.75 M654.35,267.5 L658.45,267.55 Q663.65,267.05 668.35,266.15 673.85,265.15 675.2,264.1 675.65,263.75 675.65,263.4 675.646,262.706 675.075,261.35 674.509,259.985 671.375,257.35 668.24,254.716 662.6,255.775 656.953,256.845 654.85,261.65 653.15,265.45 653.1,270.95 653.05,277.3 659.75,280.9 665.65,284.1 672.4,283.55 674,283.4 675.2,283.1 676.05,282.9 676.7,282.65 677.65,282.25 679.75,280.8 M711.95,260.65 Q702.9,256.95 693.45,260.3 689.8,261.65 688.35,265.25 683.75,276.85 693.95,280.9 698.45,282.75 703.15,280.35 713.35,274.95 712.9,264.45 M618.3,267.05 Q618.15,265.4 618.15,263.65 618.2,261 620.25,258.25 622.8,254.65 627.25,254.25 630.1,253.95 633.6,255.7 637.45,257.6 637.4,260.2 637.4,262.85 634.55,264.7 631.25,266.9 625.1,267.5 622.8,267.65 622,267.7 619.75,267.7 618.3,267.05 619.15,274.65 624.1,278.7 629.326,282.968 638,282.35 638.371,282.335 638.75,282.3 L638.8,282.3 Q640.437,282.142 641.6,281.725 641.974,281.607 642.3,281.45 643.486,280.888 644.4,280.55 644.949,280.363 645.4,280.25 M660.5,329 Q660,328.15 659.55,326.6 658.55,323.4 658.35,319.35 658.4,315.15 658.4,312.85 657.5,310.9 655.7,309.15 653.95,307.4 653.05,306.9 652.85,306.85 652.8,306.8 645.85,305.75 640.7,308.65 640,309 639.35,309.45 634.2,312.2 634.4,316.85 634.6,321.75 637.75,324.3 640.85,326.8 646.1,326.75 651.35,326.55 658.15,323.45 M658.35,310.85 Q658.35,311.5 658.4,312.85 M688.65,338.7 Q688.6,340.35 690.3,352.8 692,365.25 692,366.85 691.95,375.3 696.1,382.05 M650.85,358.4 Q650.35,366.3 651.05,371.35 651.35,374 652.05,375.95 653,378.65 656.1,381.5 L656.1,381.1 M650,362.1 Q650,358.95 646.55,357.55 644.4,356.65 642.6,356.7 638.65,356.75 635.5,361.7 632.45,366.45 632.45,371.95 632.4,375.75 635.4,377.1 637.2,377.85 640.7,377.85 643.7,377.8 647,376 650.6,373.95 651.05,371.35 M668.25,342.8 Q667.9,355.1 674.55,381.45 M569.3,395.9 Q558.9,399.1 550.4,405.85 549.35,406.65 548.35,407.5 571.15,407.3 594.05,409.15 616.7,411.35 641,410.45 665.5,409.5 684.35,406.1 703.3,402.65 722.45,400.1 M579.85,261.1 Q580.35,254.1 590,253.15 597.9,252.35 601.75,261.85 604.5,268.75 604.45,278.25 604.4,280.7 603.9,283.5 603.4,286.2 602.8,287.6 M577.1,249.9 Q577.9,255.45 581.1,271.9 583.2,282.55 582.95,286.95 M581.3,361.2 Q583.95,355.3 584.95,354.15 587.2,351.45 591.95,351.4 596.3,351.3 598.85,356.1 600.8,359.75 600.8,363.4 600.8,363.9 600.8,364.4 601.25,360.9 601.8,358.9 603.65,352.15 609.2,352.1 613.4,352 615.9,360.85 617.65,367.05 617.65,370.85 617.6,374.75 617.5,376 617.25,379.75 616.2,381.25 M599.95,372.2 L599.95,371.9 Q600.3,367.5 600.8,364.4 600.7,367.2 600.65,368.65 600.45,369.8 599.95,371.9 M578.95,356.85 Q581.35,362.1 581.85,369.8 582.3,377.8 582.4,378.05 M548.35,407.5 L574,426.6" test="TextNeedAMall"/>
    </g>
  </g>
</svg>