<?xml version="1.0" encoding="utf-8"?>
<svg id="EdithAnim12" image-rendering="inherit" baseProfile="basic" version="1.1" x="0px" y="0px" width="800" height="600" xmlns="http://www.w3.org/2000/svg" xmlns:xlink="http://www.w3.org/1999/xlink">
  <g id="Textsf32r1" overflow="visible">
    <g id="Text-Garbage-Drawer">
      <path id="Layer1_0_1_STROKES" stroke="#FFF" stroke-width="2" stroke-linejoin="round" stroke-linecap="round" fill="none" d="M397.2,480.6 Q400.45,476.85 403.85,475.6 407.05,474.4 414,474.1 421.25,473.8 424.35,475.75 427.75,477.85 427.7,483.45 427.6,489.05 421.15,493.2 415.75,496.75 410.55,496.95 406.4,497.05 403.7,496.35 400.75,495.2 398.75,494.5 M471.25,496.35 Q468.55,491.85 467.55,485.1 466.7,479.5 467.3,476.05 466,475.85 462,474.7 459.5,473.9 455.45,474.1 449.45,474.3 444.9,477.4 439.7,480.9 439.6,486.15 439.45,490.65 443.3,493.05 447.1,495.5 453.15,495.65 459.15,495.65 461.8,493.3 464.35,490.85 466.2,489.5 M507.5,489.55 Q505.9,491.2 502.4,493.2 498.75,495.15 494.75,494.75 490.75,494.3 487.4,491.6 483.9,488.75 484,485.4 484.15,479.65 488.05,475.45 492,471.25 504.4,471.65 L510.5,473.05 Q510.5,473.2 510.7,473.35 510.9,473.5 510.9,474.1 510.9,474.9 510.1,480.9 509.3,486.85 509.2,490.75 L509.65,512.05 Q509.5,516.9 507.75,518.4 506.15,519.7 501.4,519.85 497.65,520 497.2,519.8 496.35,519.5 494.25,516.8 M526.1,484.75 Q543.9,483.05 546.25,482.5 552.45,481.1 552.55,476.7 552.65,472.15 546.5,469.1 540.95,466.3 535.65,467.95 530.4,469.55 527.1,472.85 523.7,476.15 524.45,486.7 525.2,497.1 531.9,499.05 538.55,500.95 544.65,500.55 550.8,500.05 554.15,500.15 M506.7,534.9 Q506.8,536.6 507.5,539.35 508.15,542.05 509.1,547 510.05,551.95 510.95,561.7 M509.4,546.75 Q509.95,540.95 517.1,537.2 524.2,533.45 529.05,533.4 532.55,533.25 533.05,533.55 533.85,534 535.95,537.4 M457.9,545.7 Q467.1,544 475.6,542 484.1,539.95 485.9,539.6 483.85,536.8 479.45,534.5 474.7,532.05 470.6,532.2 463.75,532.35 460.2,535.9 457.05,539 456.45,547.4 456.1,551.8 462.3,557.9 464.45,559.95 468.15,561.15 471.8,562.3 474.7,561.9 480.35,561.05 483.25,560.35 484,560.1 490.25,558 M398.95,537.1 Q398.5,539.5 398.45,542.15 398.4,549.4 402.5,554.05 406.4,558.4 411.65,558.25 415.7,558.15 417.9,553.9 419.1,551.55 419.3,549.05 L418.95,545.1 418.95,544.7 M419.3,549.05 Q419.9,552.2 421.85,554.05 424.8,556.7 431.85,556.55 437.55,556.4 439.95,553.1 441.7,550.65 441.75,546.1 441.8,542.55 440.05,538.9 438.35,535.3 436,533.6 M309.8,462.6 Q307.65,462.25 304.2,461.25 301.85,460.5 299.6,460.6 289.4,461.05 281.8,469.9 274.45,478.3 274.45,488.1 274.45,494.2 280.05,496.25 283.1,497.25 288.75,497.05 296.9,496.75 299.75,495.35 304.15,493.1 306.05,485.9 306,489.1 305.2,496 305.15,499.35 305.25,500.1 305.55,501.85 306.6,503 M349.45,499.65 Q348.95,495.4 348.8,488.45 348.7,482.55 348.2,480.4 347.35,477.05 344.6,475.75 341.6,474.25 335.2,474.5 330.3,474.75 323.65,479.95 316.2,485.65 316.2,491.35 316.2,495.5 319.05,497.55 321.65,499.4 327,499.75 332.25,500.05 339.5,496 346.75,491.95 347.05,490.35 M363.3,484.4 Q367.5,477.3 373.15,476.05 376.25,475.35 382.05,475.45 M360.05,476.75 Q362.5,490.95 362.65,491.6 363.75,497.55 364.8,500.7 M392.4,460.55 Q394.3,473.4 394.75,478.75 395.2,483.9 396.2,491.15 397.15,498.4 398.25,499.85 M385.85,560.1 Q383.35,553.85 382.6,550.75 381.85,547.5 381.1,543.2 379.5,538.4 379.3,537.45 379.05,536.4 375.25,536.55 370.45,537.3 365.75,540.1 356.2,545.5 356.15,554.2 356.1,558.9 360.2,561.15 363,562.7 366.15,562.6 371,562.45 375.45,559.45 379.8,556.5 381.3,552.55 M333.3,547.8 Q335.75,543.45 340.6,541.05 344.7,539 349.25,538.9 351.65,538.8 352,538.95 352.75,539.1 353.8,540.4 M331.3,539.45 Q332.4,547.9 334.5,554.4 335.6,557.75 336.9,561.3 M313.45,539.95 Q310.85,538 301.9,538.25 296.1,538.4 292.9,543.7 290.45,547.65 290.45,551.9 290.4,555.95 294.05,559.2 297.5,562.25 301.1,562.2 305.3,562.1 309.95,558.9 314.6,555.75 315.4,552.65 M313.5,523.9 Q317.45,549.95 320.65,562.95" test="Text Garbage Drawer"/>
    </g>
  </g>
</svg>