<?xml version="1.0" encoding="utf-8"?>
<svg id="EdithAnim12" image-rendering="inherit" baseProfile="basic" version="1.1" x="0px" y="0px" width="800" height="600" xmlns="http://www.w3.org/2000/svg" xmlns:xlink="http://www.w3.org/1999/xlink">
  <g id="Textsf34r1" overflow="visible">
    <g id="TextSuckThemOffAvatar">
      <path id="Layer1_0_1_STROKES" stroke="#FFF" stroke-width="2" stroke-linejoin="round" stroke-linecap="round" fill="none" d="M450.5,26.5 Q441.3,23.55 440.7,23.45 435.65,22.8 432.25,27 428.5,31.65 427.55,40.9 426.65,49.35 428.25,60.25 429.25,67.3 430.85,79.8 435.1,79 438,79 M399,56 Q405.95,52.9 411.55,55.9 417,58.85 417,65 417,71.1 412.2,76.75 407.35,82.5 401.25,83.25 395.7,83.95 393.3,79.8 391.5,76.65 391.75,71.25 391.95,66.55 393.6,62.8 395.45,58.45 399,56Z M473.75,28.75 Q469.6,25.5 467.7,24.75 464.95,23.7 462,25.25 458.35,27.2 455.95,36.3 453.3,46.65 455,58.75 456,65.7 456.9,71.05 462.05,69.3 466,69 M518,82 Q518.6,78.75 521.05,69.7 523.25,61.4 525.45,45.75 526.6,37.95 527.25,31.75 L537.5,56.7 Q548.15,82.55 550,86.75 M607,90 Q606.6,86.85 605.9,78 603.9,82.2 599.15,85.55 594.45,88.9 591.5,88.5 589,88.15 586.85,86.05 582.55,81.95 584.25,73.5 587.25,58.7 596.5,58 599.35,57.8 601,59.05 603.1,60.6 604.6,65 604.2,62.3 603.75,61 M614.25,61.5 Q618.25,60 623.55,58.45 623.8,58.35 624.05,58.3 623.25,53.3 621.4,45.4 619,35.25 617.5,31.25 M673,59.25 Q674.2,61.1 676.3,66.5 676.9,68.05 677.5,69.6 L678.05,71 Q679.1,73.9 680.05,76.9 680.35,73.4 680.65,71 681.4,60.95 692.4,59.95 697.8,59.15 703.25,60.5 M624.05,58.3 Q629,56.85 631.5,56.5 M718.5,24.5 Q718.6,26.45 720.15,37.15 721.3,45.4 721,51.25 720.9,53.2 720.65,69.45 720.5,80.7 719.75,82.75 M719.75,95.75 Q718.15,96.6 717.85,97.1 717.75,97.3 717.75,98.5 717.75,99.45 718,99.75 718.2,100 718.85,100 718.9,100 720.45,99.35 722.15,98.55 723,97.5 M680.05,76.9 Q680.05,77 680.1,77.15 681.5,81.45 682.25,84.75 682.4,85.45 682.55,86 682.65,86.55 682.75,87 M660,60 Q660.15,62.1 660.8,66.35 661.7,71.9 662.85,77.5 663,78.2 663.2,79 663.25,79.25 663.3,79.55 664.9,87 666.25,90.5 M660.5,66.25 Q657.7,61.75 654.1,61 651.6,60.45 649,61.75 646.25,63.1 644.05,66.8 641.2,71.65 642.5,76.75 643.85,82.05 647.15,84.9 649.95,87.4 653.4,87.7 656.8,88 660.45,84.25 663.25,81.4 663.2,79 M624.05,58.3 Q624.35,60.25 624.5,61.75 624.9,65.65 626.25,76.9 627.4,86.9 627.25,89.75 627.1,92.7 627.4,93.15 627.55,93.4 627.75,93 M605.9,78 Q605.3,70 604.65,65.55 604.6,65.25 604.6,65 M554.25,57.25 Q557.85,63.45 562.05,71.3 567.85,82.15 568.5,84.75 569.05,86.95 571.55,75.05 574.55,60.55 575.5,58.25 M521.5,69.25 Q526.35,67.95 532.1,67.9 532.95,67.9 541.75,68.25 M430.85,79.8 Q432.15,90.05 432.5,92 M456.9,71.05 Q459.1,84.05 460.75,87 M445,76.5 Q448.4,74.25 454.2,72 455.6,71.45 456.9,71.05 M418.25,83.25 Q420,82.75 424.1,81.5 427.95,80.4 430.85,79.8 M81.3,33.3 Q80,29.95 72.7,28 65,26 61.8,29.3 57.45,33.8 56.25,36.2 54.3,40.15 55.8,45.3 57.15,49.95 65.1,53.9 65.8,54.25 71.3,56.75 74.75,58.3 76.05,59.3 79.55,62 81.4,65.6 83.4,69.45 82.8,73.05 81,84.35 70.55,86.3 64,87.55 60.05,85.75 56.4,84.15 54.8,79.8 53.55,76.4 54.3,75.4 55.6,74.7 56.05,73.8 M210.8,59.8 Q215.5,57.9 223.4,56.35 225.1,56 226.75,55.7 225.35,42.25 223.3,31.55 M152.05,60.55 Q145.35,58.3 141.6,59 135.1,60.2 131.3,69.05 127.45,78.05 128.9,83 129.9,86.35 133.8,88.55 136.7,90.15 144.9,88.15 153,86.15 154.3,83.8 M236.8,34.05 Q242.15,41.6 243.5,63.3 248.45,54.25 251.6,52.15 253.25,51.1 256.35,50.75 260.2,50.3 262.5,51.85 265.1,53.6 267.4,63.65 269.65,73.65 268.8,79.15 268.6,80.35 268.55,81.55 M235.05,54.55 Q231.2,54.9 226.75,55.7 226.9,57.25 227.05,58.8 228.6,75.75 228.05,86.3 M278.85,67 Q282.15,66.45 287.15,65.1 292.1,63.75 295.3,62.75 298.5,61.7 302.35,59.85 304.6,57.9 302.8,53.55 299.95,46.65 288.8,50.8 285.7,51.95 283.2,54.45 279.4,58.1 279.05,63.3 278.9,65.35 278.85,67 278.8,67.65 278.8,68.25 278.5,71.65 280.1,74.55 280.35,75 280.6,75.5 285.35,83.4 297.75,81.15 304.4,79.75 309.3,75.05 M313.75,51.75 L314.5,59.75 Q317.35,52.5 318.8,50.15 320.3,47.6 322.5,46.5 326.15,44.7 330,46.5 335.4,49 336.2,58.5 L336.25,59 336.4,58.5 Q338.85,50.2 342.3,47.1 344.6,45 348.5,44.75 352.65,44.5 355.95,49.3 360.15,55.4 358,65.5 354.75,80.75 355.75,75.75 M314.5,59.75 L314.5,59.95 Q316,76.1 316,80 M243.5,63.3 L243.5,63.35 Q243.9,69.85 244,82 M183.05,58.8 Q179.75,60.4 174.5,66.5 L169.6,72.1 Q178.85,78.75 179.2,79 185.7,84.15 186.8,87.3 M169.6,72.1 L169.55,72.15 Q167.5,74.5 166.45,75.45 166.45,75.55 166.45,75.65 167.5,89.95 167.55,93.05 M98.8,59.3 Q98.55,60.9 96.7,70.2 95.5,79.15 97.8,81.8 100.75,85.15 106.6,85.05 112.75,84.9 114.5,80.75 116.15,76.8 116.4,72.3 116.55,69.35 116.05,63.3 115.8,60.35 117.85,71.1 120.5,84.9 121.55,87.55 M336.25,59 Q336.65,66.7 335.9,74.25 M163.3,33.8 Q163.6,38.05 166.45,75.45" test="TextSuckThemOffAvatar"/>
    </g>
  </g>
</svg>