<?xml version="1.0" encoding="utf-8"?>
<svg id="EdithAnim12" image-rendering="inherit" baseProfile="basic" version="1.1" x="0px" y="0px" width="800" height="600" xmlns="http://www.w3.org/2000/svg" xmlns:xlink="http://www.w3.org/1999/xlink">
  <g id="Textsf5r1" overflow="visible">
    <g id="Text-Maybe-a-gull">
      <path id="Layer1_0_1_STROKES" stroke="#FFF" stroke-width="2" stroke-linejoin="round" stroke-linecap="round" fill="none" d="M477,54.25 Q475.95,55.7 475.6,60.85 475.45,63.4 475.5,65.75 475.5,77.9 479,93.25 480.35,99.1 480,105.35 480.25,107.25 481.5,107.95 482.9,108.75 486.5,108.75 492.1,108.75 496.5,105.75 502,102 502,95.25 502,91.05 495,88.75 490.4,87.25 487.25,87.25 483.1,87.25 482.85,87.45 482.5,88.55 481.5,90.25 M506,94.25 Q513.75,93.25 521.3,92.95 523.45,92.65 524.2,91.65 525,90.7 525,88.25 525,83.7 521.5,81.75 518.8,80.25 513.75,80.25 507.75,80.25 505.5,84.75 504,87.85 504,94.5 504,100.75 511.5,104.25 516.95,106.75 522,106.75 522.65,106.75 524,106.75 525.15,106.55 526,105.25 M436,85.25 Q434.15,82.95 432.5,82.45 431.9,82.25 429.5,82.25 424.55,82.25 421,87.75 418,92.4 418,96.75 418,101.85 423,103.25 424.8,103.75 429.75,103.75 435.5,103.75 439,98.25 439.9,96.8 440.55,95.25 440,93.7 439.5,92.25 L439.5,81.75 440,81.75 Q441.15,83.4 441.85,84.2 442,84.5 442,87.25 442,91.6 440.55,95.25 441.45,97.85 442.55,100.75 443.5,103.4 444.1,104.75 L444.5,104.75 444.5,105.75 Q444.35,105.4 444.1,104.75 M370.95,80.75 Q370.45,94.05 370.45,94.25 L370.45,99.6 Q371.3,93.85 375.45,88.75 380.75,82.25 384.95,82.25 388.95,82.25 389.75,87.45 390.15,89.9 389.75,94.7 390.8,89.4 395.55,85.2 400.65,80.75 404.2,80.75 408.2,80.75 409.95,88.25 411,92.75 411,98.25 411,102.15 411.3,105.9 411.05,108.05 407.95,110.25 M451.5,84.75 Q450.05,93.05 452.9,97.8 455.6,102.25 461.25,102.25 465.05,102.25 468.1,97.05 469.5,94.65 469.95,92.3 469.8,89.45 469.55,86.4 469.548,86.347 469.5,86.25 L469.5,85.75 Q469.549,86.099 469.55,86.4 470.5,89.3 469.95,92.3 471,113.05 467.45,123.35 463.45,134.8 453,134.8 447.45,134.8 443.95,130.85 439.65,126.05 436.7,124.9 M646.6,91 Q646.95,87 646.55,81.75 L646.05,81.75 Q646.05,82.65 646.6,91 646.7,92.4 646.8,94 647.55,105.2 647.55,109.75 L647.55,124.25 Q647.55,128.3 647.8,134.5 647.85,139.15 647.1,141.3 645.35,146.3 634.55,146.3 629.8,146.3 628.05,145 627.65,144.7 625.85,142.65 624.55,141.2 622.55,138.8 M660.05,80.75 Q660.5,91.5 664,94.45 666.15,96.25 673.3,96.25 678.95,96.25 682.1,91.25 682.8,90.1 683.35,88.85 682.3,84.45 681.05,80.75 L681.05,77.75 Q684.15,79.4 684.4,79.7 684.55,79.95 684.55,82.25 684.55,85.8 683.35,88.85 683.85,90.95 684.3,93.25 685.2,97.55 686.55,99.25 L686.55,99.75 Q685.05,99.25 684.55,99.25 M645.55,81.75 Q644.65,80 642.15,78.85 639.8,77.75 637.3,77.75 633.2,77.75 627.6,84.25 626.65,85.35 625.85,86.4 622.05,91.3 622.05,94.75 622.05,100 625.85,102.6 626.4,102.95 627.05,103.25 630.15,104.75 635.05,104.75 643.05,104.75 645.6,96.55 646.35,94.2 646.6,91 M707.05,49.75 Q708.25,57 709.75,64.3 711.8,74.3 714.45,84.45 718.95,101.75 719.05,102.25 M696.05,47.75 Q696.45,53.45 698,64.3 698.8,70.05 699.9,77.2 701.55,87.5 703.85,101.8 703.95,102.5 704.05,103.25 M579.5,84.75 Q576.5,84.25 573.25,84.25 567,84.25 562.5,90.3 558.5,95.7 558.5,101.75 558.5,104.85 563.5,106.8 567.35,108.25 570.75,108.25 577.1,108.25 580.5,102.3 582.15,99.4 582.75,96.5 580,90.55 580,87 L580,85.3 Q580.011,85.75 581,85.75 581,85.9 582,88.65 583,91.7 583,93.5 583,95 582.75,96.5 583.1,97.3 583.5,98.15 586.55,104.3 588.5,106.25 L588,104.75 M698.55,142.3 Q700.25,146.3 701.9,150.3 704.55,156.65 707.1,163.05 711.3,173.45 714.95,183.95 718.6,194.45 721.9,205.2 725.2,215.8 728.05,226.6 730.9,237.35 733.5,248.35 736.4,260.4 737.6,272.75 738.7,284 736.7,295 734.5,307.1 727.3,316.8 719.95,326.55 709.05,332.3 698.9,337.6 687.85,340.4 678.4,342.6 670.1,337.6 669.95,345 672.3,351.95 672.5,352.6 672.55,353.3 660.8,338.1 643.9,328.95 643.7,328.85 643.5,328.8 660.9,320.8 679.9,316.15 680.1,316.05 680.3,316 L679.55,316.8 M727.55,59.25 Q727.05,56.25 727.05,54 727.05,50.95 730.55,49.25 733.55,47.75 737.55,47.75 743.5,47.75 745.55,51.75 747.05,54.7 747.05,62 747.05,63.2 747,64.3 746.8,69.9 745.55,72.25 744.75,73.75 741.9,75.3 739,76.85 737.35,79.75 734.7,84.3 733.05,94.25 L731.05,94.25 M735.55,111.75 Q734.75,111.3 734.25,111 734.1,110.9 734,110.85 733.4,110.5 733.35,110.45 732.95,110.25 732.05,110.25 731.15,110.25 730.55,111.25 730.05,112.15 730.05,113 730.05,114.45 732.05,115.25 733.05,115.65 734.05,115.75 734.9,115.75 735.35,115.4 735.6,115.15 736.05,114.25 L736.05,111.25 Q734.85,111.25 734.25,111 M681.05,318.8 Q673.25,325.9 670.45,335.6 670.15,336.55 670.1,337.6 M90.9,52.25 Q82.55,55.8 66.65,61.25 61.8,62.9 57.9,64.15 62.4,69.8 62.4,89.25 62.4,101.15 61.65,105.8 61.3,108.15 60.9,108.25 L60.9,112.075 Q60.916,111.532 61.15,110.5 61.4,109.25 61.4,108.75 M41.9,67.75 Q45.1,68.15 57.9,64.15 M173.65,81.75 L167.7,77.3 Q164.75,79 161.8,82.6 159.3,86.05 158.95,86.4 157.4,88 157.4,90 157.4,93.25 160.9,94.3 161.05,94.3 168.65,95.35 173.85,96 176.4,98.2 179.9,101.25 179.9,108 179.9,109.7 179.5,111.05 178.45,114.8 174.4,116.25 172.25,117 167.7,117.25 165.85,117.3 163.65,117.3 161.05,117.3 160.15,115.9 158.8,112.9 156.9,109.75 M221.4,85.1 Q221.85,86.55 223.75,98.9 225.25,108.95 225.6,111.9 225.9,114.75 225.9,116.1 L226.4,116.6 Q223.9,101.85 229.55,88.2 230.6,85.6 232,83.15 235.65,81.95 239.1,83.65 244.25,86.15 245.8,91.7 246,92.35 246.15,93.1 L247.2,97.05 Q247.35,89.95 249.15,87.1 250,85.8 255.65,84.85 260.25,84.1 263.65,84.1 267.85,84.1 269.6,95.1 270.55,101.05 271.9,111.6 M207.95,85.75 Q204.9,85.25 202.9,85.25 200.3,85.25 196.9,88.75 192.4,93.45 192.4,101 192.4,107.25 194.9,109.75 195.7,110.55 196.85,111.05 198.5,111.75 200.9,111.75 202.95,111.75 204.75,111.05 207.7,109.9 209.95,106.75 212.95,102.65 212.95,98.75 212.95,92.55 208.15,89.05 204.95,86.75 202.9,86.75 M94.9,84.75 Q91.9,84.25 90.65,84.25 83.85,84.25 78.9,89.75 73.9,95.35 73.9,103.5 73.9,108.6 77.9,112.75 81.75,116.75 86.15,116.75 93.35,116.75 98.45,108.85 103.5,100.95 102.4,97 101.3,93.05 99.9,90.15 98.5,87.25 94.9,84.75Z M389.75,94.7 Q389.65,96.1 389.45,97.75 L389.45,98.25 M247.2,97.05 Q248.15,101.35 248.15,104.85 247.75,103.85 247.65,103.15 247.15,99.65 247.15,98.85 L247.2,97.05Z M281.95,100.6 Q298.25,95.6 298.65,95.45 302.45,93.95 302.45,91.25 302.45,89.05 297.95,87.3 294.15,85.75 291.2,85.75 286.2,85.75 283.45,88.25 280.95,90.55 280.95,94.25 280.95,97.85 281.95,100.6 285.3,109.75 299.7,109.75 305.6,109.75 307.5,108.65 307.7,108.55 309.95,105.75 M281.45,100.75 Q281.7,100.65 281.95,100.6 M319.95,103.25 Q323.3,106.25 323.25,110.65 323.25,111.2 322.45,115.25 M370.45,105.75 L370.45,99.6 Q370,102.6 370.45,105.75Z" test="Text Maybe a gull"/>
    </g>
  </g>
</svg>