<?xml version="1.0" encoding="utf-8"?>
<svg id="EdithAnim12" image-rendering="inherit" baseProfile="basic" version="1.1" x="0px" y="0px" width="800" height="600" xmlns="http://www.w3.org/2000/svg" xmlns:xlink="http://www.w3.org/1999/xlink">
  <g id="Textsf6r1" overflow="visible">
    <g id="Text---Nom-rear-the-rear">
      <path id="Layer1_0_1_STROKES" stroke="#FFF" stroke-width="2" stroke-linejoin="round" stroke-linecap="round" fill="none" d="M136.55,502.65 L137.45,510.15 Q141.45,504 145.05,500.15 147.35,497.65 148.6,496.8 150,495.7 151.9,495.45 154.15,495 155.9,497.1 158,499.6 159.1,505.55 159.95,510.15 160.6,517.1 161.2,523.6 161.4,524.55 160.85,519.4 161.3,512.35 162.35,497.7 169.35,495.7 177.15,493.45 181.25,498.75 184.35,502.85 184.65,510.7 184.9,517.1 183.95,524.6 183,531.85 181.6,534.55 M201.15,443.1 Q201.65,457.35 201.95,473.1 202.35,498.85 201.6,503.65 M269.75,535.7 Q270.5,531.15 267.2,507.5 266.6,506.8 266.65,506.7 266.55,506.5 267.05,506.45 266.85,505.6 266.8,504.8 264.65,490.3 261.95,474.15 260.75,467.45 275.7,462.45 283.7,459.7 289.4,462.95 295.15,466.2 297.25,474.9 299.35,483.8 292,495.4 284.65,507.05 276.7,506.85 268.65,506.4 267.45,506.4 267.2,506.4 267.05,506.45 L274.5,507.65 Q282.9,509.35 287.2,512.05 293.3,515.95 298,520.8 303.8,526.7 306.2,532.85 M735.75,500.85 Q736.35,503.8 739.55,516.75 740.15,519.6 740.7,521.9 740.65,521.65 740.65,521.45 738.35,508.8 741.3,504.1 L744.45,500.85 Q748.4,497.4 752.05,496.55 755.9,495.7 759.9,497.35 762.9,498.6 764.6,500.6 M740.7,521.9 Q740.75,522 740.75,522.1 740.75,522.15 740.75,522.25 742.65,530.2 743.1,531.5 M760.8,532.35 L765.6,530.95 M722.9,534.15 Q721.85,529.55 721.35,520.4 721.15,513.9 721,510.35 720.85,518.75 719.1,521.65 717.35,523.8 715.05,526.2 710.4,530.85 707.25,531.35 702.95,532.05 698.9,530 694.45,527.7 693.85,523.35 693.2,518.6 694.6,514.2 696,509.4 699.4,506.7 702.8,504 707.75,502.3 712.5,500.6 714.35,501.25 717.05,502.25 719.05,508.45 M721,509.9 Q720.85,508.2 720.9,507.3 720.7,503.7 720.9,506.15 721,507.6 721,509.9 L721,510 Q721,510.1 721,510.35 M660.4,516.3 Q660.4,516.1 660.5,516 661.15,509.9 664.35,505.65 666.9,502.15 672.75,500.1 678.25,498 682.65,498.4 686.35,498.7 686.9,502 687.15,504.35 685.65,509.3 684.6,512.85 674.05,514.9 666.05,516.45 660.4,516.3 659.6,523.35 663.6,527.6 L664.35,528.6 Q665.35,529.9 667,531 672.1,534.3 680.7,534.35 686.5,534.45 689.1,534.15 693.05,533.5 695.1,531.95 M631.1,503.2 Q631.45,505.9 632,511.9 633.8,508.3 635.95,505.5 638.85,501.6 641.55,500.5 L645.2,500.75 Q649.15,501.1 650.8,501.5 M632,511.9 Q631.95,512.3 632.05,512.85 632.3,517.7 632.95,528.1 633.45,536.35 633.8,538.1 M631.4,512.8 Q631.6,512.3 632,511.9 M561.2,522.45 Q566.65,521.6 573.05,519.15 581.4,515.9 581,512.7 580.5,509.1 577.8,507.2 575.25,505.4 572.2,506.1 567.85,507.15 563.85,513.35 558.65,521.25 560.45,531.4 561.6,537.95 567.7,540.4 572.3,542.2 577.35,541.1 585.3,539.2 587.95,536.2 M518.25,480 Q518.75,483.05 522.25,504.85 523.7,514.05 524.8,519.95 523.65,509.1 526.55,504.15 L530.4,499.65 Q535.05,495.3 539.65,496.05 544.45,496.9 547.7,507.15 550.5,515.8 550.05,521.5 549.6,527.1 548.1,541.45 M499.65,480.7 Q499.25,484.55 501.45,501.9 502.2,501.7 503.05,501.7 515.95,499.8 518,500 M501.45,501.9 Q501.8,504.85 502.3,508.4 505.1,530.15 506.5,535.75 M524.8,519.95 Q525.9,527.5 526.4,529.55 525.75,528.5 525,522.5 524.85,521.15 524.8,519.95Z M486.2,504.35 Q490.65,503.35 501.45,501.9 M388.3,502.7 Q389.05,505.6 390.5,510.05 392.65,505.25 394.1,503.6 395.5,502.05 398.8,500.45 L406.05,499.45 Q413.9,498.9 417,500.95 M427.15,530.1 Q430.55,530.05 433.25,532.55 436.05,535.2 435.1,538.6 434,542.25 431.15,545.55 428.1,548.95 423.75,550.95 M390.5,510.05 Q390.55,510.15 390.65,510.4 396.5,529.1 398.1,531.35 M380.45,532.25 Q378,527.25 375.7,518.75 373.3,510.45 373.45,506.9 373.3,508.7 372.85,513.6 370.85,525.25 366.9,528.9 364.25,531.35 360.55,533.05 353.1,536.2 348.1,532.1 342.8,527.75 346.8,519.25 350.05,512.2 355.1,508.8 359.9,505.45 363.15,504.3 368.15,502.55 372.35,504.5 M373.45,506.9 Q373.45,506.55 373.55,506.3 M318.65,520 Q326.25,519 330.05,517.9 338.85,515 338.05,509.8 336,501.55 327.35,504.55 322.5,506.15 320.75,508.25 318.5,510.65 318.45,515.8 318.303,519.887 318.4,520.05 318.405,519.946 318.55,519.85 318.6,519.65 318.65,520 319.1,523.95 320.95,527.15 323.4,531.4 327.35,532.65 L332.2,533.35 Q338,533.7 343.2,532.45 M267.2,507.5 Q267.05,506.9 267.05,506.45 M205.75,527.55 Q205.05,528.1 203.95,529.6 202.95,530.95 202.65,531.1 M137.45,510.15 L137.5,510.35 137.5,510.4 Q139.8,531.75 140.95,538.3 M105.95,501.8 Q113,500.05 120.65,505 128.95,510.2 128.75,518.35 128.5,527.2 125.25,534 121.75,541 116.55,542.25 113.65,542.85 110.95,542.75 107.15,542.55 103.55,541.1 95.65,537.75 93.75,529.35 91.9,521 97.4,511.75 101.4,504.85 107.05,500.6 M46.35,535.1 Q46.3,533.95 44.4,501.6 42.6,472.6 43.1,471.05 43.45,469.7 59.9,499.65 76.8,530.4 78.1,530.3 79.9,530.2 82.25,499.05 84.5,467.95 83.45,464.05" test="Text - Nom rear the rear"/>
    </g>
  </g>
</svg>