<?xml version="1.0" encoding="utf-8"?>
<svg id="EdithAnim12" image-rendering="inherit" baseProfile="basic" version="1.1" x="0px" y="0px" width="800" height="600" xmlns="http://www.w3.org/2000/svg" xmlns:xlink="http://www.w3.org/1999/xlink">
  <g id="Textsf7r1" overflow="visible">
    <g id="Text---Gnaw-Jean-Reno's-great-rear">
      <path id="Layer1_0_1_STROKES" stroke="#FFF" stroke-width="2" stroke-linejoin="round" stroke-linecap="round" fill="none" d="M62.1,533.1 Q59.95,529.6 56.4,527.35 49.25,522.85 42.05,529.1 33.95,536.15 29.3,545.25 25.15,553.35 25.55,559.1 25.95,564.95 30,572.3 34.35,580.25 38.55,580.6 42.8,580.95 47.4,578.1 51.4,575.6 55.1,571.1 58.15,567.35 60.55,560.9 61.9,557.25 62.35,554.85 62.35,556.35 62.3,558.15 62.15,566.65 63.1,570.1 L68.6,583.6" test="Text - Gnaw Jean Reno's great rear"/>
      <path id="Layer2_0_1_STROKES" stroke="#FFF" stroke-width="2" stroke-linejoin="round" stroke-linecap="round" fill="none" d="M82.6,576.6 L81.15,553.55 80.6,545.1" test="Text - Gnaw Jean Reno's great rear"/>
      <path id="Layer3_0_1_STROKES" stroke="#FFF" stroke-width="2" stroke-linejoin="round" stroke-linecap="round" fill="none" d="M81.15,553.55 Q82.15,552.2 83.9,550.35 87.35,546.6 91.1,544.1 95.3,541.3 97.35,541.5 98.75,541.6 102.1,544.1 104.9,546.2 106.9,551.15 108.7,555.55 109.1,560.1 109.5,564.4 109.2,567.2 108.85,570.3 107.4,574.65 105.4,580.65 105.9,580.15" test="Text - Gnaw Jean Reno's great rear"/>
      <path id="Layer4_0_1_STROKES" stroke="#FFF" stroke-width="2" stroke-linejoin="round" stroke-linecap="round" fill="none" d="M147.35,542.1 Q146.7,540.95 145.4,540.7 144.95,540.6 143.1,540.6 134.45,540.6 127.85,552.35 122.6,561.75 122.6,567.75 122.6,571.25 123.9,573.35 125.25,575.6 127.75,575.6 133.45,575.6 141.85,561.1 142.65,559.7 143.45,557.95 143.6,557.2 143.8,556.5 145.85,549.65 147.6,543.1 L147.6,543.35 Q146.25,549.45 145.95,550.65 144.8,554.85 143.45,557.95 142.6,561.65 142.6,565.25 142.6,568.25 144.95,573.45 147,577.95 148.35,579.35" test="Text - Gnaw Jean Reno's great rear"/>
      <path id="Layer5_0_1_STROKES" stroke="#FFF" stroke-width="2" stroke-linejoin="round" stroke-linecap="round" fill="none" d="M162.85,543.1 Q160.05,545.9 158.55,551.95 157.35,556.75 157.35,561.1 157.35,568.05 161.4,571.35 164.15,573.6 167.5,573.6 170,573.6 172.2,571.3 174.85,568.5 175.35,563.6 L175.35,559.35 174.6,559.35" test="Text - Gnaw Jean Reno's great rear"/>
      <path id="Layer6_0_1_STROKES" stroke="#FFF" stroke-width="2" stroke-linejoin="round" stroke-linecap="round" fill="none" d="M175.35,559.1 Q174.35,565.25 174.35,567.6 174.35,573.55 176.35,576.15 178.1,578.35 181.6,578.35 186.6,578.35 191.1,574.85 196.85,570.4 196.85,562.6 196.85,557.45 194.7,552.65 193.25,549.4 192.1,548.35" test="Text - Gnaw Jean Reno's great rear"/>
      <path id="Layer7_0_1_STROKES" stroke="#FFF" stroke-width="2" stroke-linejoin="round" stroke-linecap="round" fill="none" d="M260.8,512.8 Q263,526.75 265.6,536.7 266.8,541.3 266.8,549.75 266.8,558.1 262.05,567.1 256.55,577.6 249.05,577.6 247.85,577.6 245,576.6 241.55,575.35 240.05,573.85" test="Text - Gnaw Jean Reno's great rear"/>
      <path id="Layer8_0_1_STROKES" stroke="#FFF" stroke-width="2" stroke-linejoin="round" stroke-linecap="round" fill="none" d="M280.7,558 Q286.75,555.4 290.05,554 295.3,551.8 297.35,551.1 299.05,550.55 302,549.75 304.1,549.15 304.1,548.5 304.1,543.5 301.5,541 298.9,538.5 294.25,539.65 289.55,540.75 285.55,547.25 281.5,553.7 280.7,558 282.15,557.55 280.85,558.35 M280.7,558 Q279.3,561.35 281.45,567.45 283.6,573.55 286.35,576.1 288.5,578.1 293.85,578.1 296.35,578.1 298.75,576.65 299.25,576.35 301.1,574.85" test="Text - Gnaw Jean Reno's great rear"/>
      <path id="Layer9_0_1_STROKES" stroke="#FFF" stroke-width="2" stroke-linejoin="round" stroke-linecap="round" fill="none" d="M333.35,552.1 Q333.25,549.95 332.9,548.05 332.4,545.55 332.35,543.85 332.35,543.6 332.1,543.6 L332.1,546.85 Q332.5,549 333.35,552.1 333.75,553.75 334.3,555.7 335.35,559.5 335.6,562.6 335.8,564.9 337.5,569.5 339.1,573.95 339.1,575.1 M331.1,542.6 Q329.55,542 329.2,541.9 328.95,541.85 328,541.85 321.7,541.85 316.65,549.6 311.85,556.9 311.85,564.5 311.85,569.95 313.35,571.85 314.9,573.85 319.35,573.85 325.1,573.85 329.1,568.35 333.35,562.5 333.35,553.25 333.35,552.65 333.35,552.1" test="Text - Gnaw Jean Reno's great rear"/>
      <path id="Layer10_0_1_STROKES" stroke="#FFF" stroke-width="2" stroke-linejoin="round" stroke-linecap="round" fill="none" d="M349.6,546.85 Q350.4,556.75 351.85,564.7 353.1,571.75 354.35,574.85 L354.6,575.1 Q353.85,572.55 352.35,564.45 350.85,556.15 350.85,554.25 350.85,548.75 356.85,542.85 362.25,537.6 365.35,537.6 367.8,537.6 369.05,539.5 370.55,541.8 371.5,546.35 372.45,550.85 372.5,556.35 372.55,561.8 372.2,563.35 371.95,564.4 372.6,570.85" test="Text - Gnaw Jean Reno's great rear"/>
      <path id="Layer11_0_1_STROKES" stroke="#FFF" stroke-width="2" stroke-linejoin="round" stroke-linecap="round" fill="none" d="M417.3,572.05 Q415.95,567.65 412.8,560.55 410.2,554.65 409.05,549.3 407.9,544.1 404.75,538 402.3,533.25 402.3,528.7 402.3,521 410.6,515.8 417.8,511.3 426.05,511.3 431.55,511.3 434.8,514.55 438.05,517.8 438.05,523.3 438.05,534.2 427.55,542.9 420.6,548.6 411.3,552.05 L411.3,552.3 414.45,552.05 Q420.4,552.05 425.7,558.65 429,562.6 436.5,574.35 436.65,574.55 436.8,574.8" test="Text - Gnaw Jean Reno's great rear"/>
      <path id="Layer12_0_1_STROKES" stroke="#FFF" stroke-width="2" stroke-linejoin="round" stroke-linecap="round" fill="none" d="M445.55,554.05 Q448.9,551.95 458.65,548.35 463.55,546.5 463.55,542.3 463.55,537.05 456.55,537.05 450.5,537.05 447.05,540.3 443.55,543.6 443.55,549.55 443.55,560.95 453.9,564.95 460.2,567.35 464.85,566.65 465.1,566.6 465.35,566.55" test="Text - Gnaw Jean Reno's great rear"/>
      <path id="Layer13_0_1_STROKES" stroke="#FFF" stroke-width="2" stroke-linejoin="round" stroke-linecap="round" fill="none" d="M471.1,539.8 Q472.2,543.4 474.8,553.5 477.25,563.25 478.1,565.8 478.25,565.8 478.35,565.95 478.5,566.05 478.6,566.05 L478.6,563.8 Q476.4,557.95 475.7,555.85 474.6,552.55 474.6,549.55 474.6,543.05 478.6,538.3 482.65,533.55 488.25,533.55 492.15,533.55 495.1,540.8 497.6,546.9 497.6,551.7 497.6,555.55 496.45,560.5 495.35,565.25 494.1,567.3" test="Text - Gnaw Jean Reno's great rear"/>
      <path id="Layer14_0_1_STROKES" stroke="#FFF" stroke-width="2" stroke-linejoin="round" stroke-linecap="round" fill="none" d="M511.35,541.8 Q507.95,543.4 506.05,546.85 504.35,550.05 504.35,553.95 504.35,560.9 509.35,564.3 513,566.8 517.6,566.8 522.45,566.8 525.6,564.85 529.85,562.2 529.85,556.45 529.85,549.5 521.1,543.35 514,538.3 510.85,538.3 509.15,538.3 508.1,539.05 L508.6,539.05" test="Text - Gnaw Jean Reno's great rear"/>
      <path id="Layer15_0_1_STROKES" stroke="#FFF" stroke-width="2" stroke-linejoin="round" stroke-linecap="round" fill="none" d="M520.85,517.05 Q520.95,517.8 522.35,522.15 523.85,527 524.6,528.55" test="Text - Gnaw Jean Reno's great rear"/>
      <path id="Layer16_0_1_STROKES" stroke="#FFF" stroke-width="2" stroke-linejoin="round" stroke-linecap="round" fill="none" d="M544.85,527.55 Q543.5,526.4 542.85,526.15 542.5,526.05 541.25,526.05 539.05,526.05 537.6,527.55 535.85,529.4 535.85,533.05 535.85,535.95 538.75,538.55 540.35,540 545.1,542.9 549.6,545.65 551.45,547.45 554.35,550.35 554.35,553.7 554.35,557.1 550.85,559.05 547.75,560.8 543.35,560.8 542.15,560.8 541.05,558.8 540.55,557.9 539.85,555.8" test="Text - Gnaw Jean Reno's great rear"/>
      <path id="Layer17_0_1_STROKES" stroke="#FFF" stroke-width="2" stroke-linejoin="round" stroke-linecap="round" fill="none" d="M608.85,543.55 Q598.7,533.4 587.9,544.6 579.5,553.25 589.95,558.85 593.55,560.85 597.5,559.55 602.75,557.65 606.1,553.1 L607.6,544.05 Q607.6,544.75 607.75,545.5 608.75,549.7 606.1,553.1 605.45,563.15 604.1,572.9 603.8,574.95 602.7,576.9 596.3,588.25 585.15,583.25 584.5,582.95 584.1,582.4 581.4,578.85 578.85,575.3 L579.35,575.3" test="Text - Gnaw Jean Reno's great rear"/>
      <path id="Layer18_0_1_STROKES" stroke="#FFF" stroke-width="2" stroke-linejoin="round" stroke-linecap="round" fill="none" d="M614.35,541.05 Q614.55,542.75 614.75,544.5 615.4,538.6 619.85,534.65 624.3,530.65 630.35,530.35 630.6,530.3 630.85,530.3 M615.55,552.4 Q615.65,553.65 615.75,554.9 616.15,559.15 616.35,560.05 616.3,557.1 615.55,552.4 615.5,552.35 615.5,552.3 614.6,547.35 614.6,546.7 614.6,545.55 614.75,544.5 615.15,548.4 615.55,552.4Z M616.35,560.05 L616.35,560.3" test="Text - Gnaw Jean Reno's great rear"/>
      <path id="Layer19_0_1_STROKES" stroke="#FFF" stroke-width="2" stroke-linejoin="round" stroke-linecap="round" fill="none" d="M627.85,546.8 Q642.55,543.8 642.75,543.75 646.85,542.55 646.85,540.2 646.85,536.95 644.1,535.05 641.55,533.3 637.5,533.3 632.75,533.3 628.85,535.55 624.1,538.35 624.1,543.3 624.1,549.75 630.4,554.85 635.9,559.3 641,559.3 643.3,559.3 645.3,557.85 646.3,557.1 646.85,556.3" test="Text - Gnaw Jean Reno's great rear"/>
      <path id="Layer20_0_1_STROKES" stroke="#FFF" stroke-width="2" stroke-linejoin="round" stroke-linecap="round" fill="none" d="M663.85,539.3 Q662.45,538.75 661.85,538.65 661.45,538.55 660.1,538.55 655.85,538.55 652.1,541.8 648.35,545.05 648.35,548.7 648.35,552.65 651.1,554.55 653.6,556.3 658.1,556.3 664.3,556.3 666.6,550.6 667.1,549.4 667.45,547.85 667.4,547.85 667.4,547.8 666.1,541.9 666.1,540.8 666.6,536.3 666.6,535.55 667.1,535.55 667.35,536.05 667.25,536.9 667.65,537.8 668.1,538.85 668.1,539.95 668.1,544.65 667.45,547.85 668.45,552.45 669.55,556.35 671.05,561.7 671.9,562.55" test="Text - Gnaw Jean Reno's great rear"/>
      <path id="Layer21_0_1_STROKES" stroke="#FFF" stroke-width="2" stroke-linejoin="round" stroke-linecap="round" fill="none" d="M680.4,520.8 Q679.15,523.95 679.15,532.3 679.15,541.9 681.4,551.3 682.2,554.45 683.75,558.7 684.7,561.35 684.4,561.8" test="Text - Gnaw Jean Reno's great rear"/>
      <path id="Layer22_0_1_STROKES" stroke="#FFF" stroke-width="2" stroke-linejoin="round" stroke-linecap="round" fill="none" d="M670.65,540.05 Q672.15,540.05 676.7,539.25 682.9,538.15 686.9,536.55" test="Text - Gnaw Jean Reno's great rear"/>
      <path id="Layer23_0_1_STROKES" stroke="#FFF" stroke-width="2" stroke-linejoin="round" stroke-linecap="round" fill="none" d="M708.15,539.1 Q708.95,550.55 710.15,560 711.35,569.7 712.4,573.1 L712.65,573.1 712.65,568.1 Q712.1,567.1 711.95,564.4 711.9,563.35 711.9,560.1 711.9,549.9 716.3,543.55 720.65,537.2 727.7,537.1" test="Text - Gnaw Jean Reno's great rear"/>
      <path id="Layer24_0_1_STROKES" stroke="#FFF" stroke-width="2" stroke-linejoin="round" stroke-linecap="round" fill="none" d="M726.45,556.85 Q731.55,554.8 737,552.85 739.95,551.5 739.95,549 739.95,546.2 737.7,544.85 736.05,543.85 733.45,543.85 729.55,543.85 726.95,547.6 724.45,551.3 724.45,556.75 724.45,561.95 727.45,565.6 730.75,569.6 736.2,569.6 738.9,569.6 740.4,569.05 742,568.4 741.7,567.1" test="Text - Gnaw Jean Reno's great rear"/>
      <path id="Layer25_0_1_STROKES" stroke="#FFF" stroke-width="2" stroke-linejoin="round" stroke-linecap="round" fill="none" d="M753.7,539.6 Q753.4,538.55 752.45,537.95 751.6,537.35 750.45,537.35 746.8,537.35 743.95,544.35 741.45,550.5 741.45,556.1 741.45,558.7 743.7,559.85 745.15,560.6 746.95,560.6 749.8,560.6 751.95,557.85 754.2,555.05 754.2,551 754.2,549.7 754.05,547.8 753.3,543.55 753.2,539.85 L753.2,539.6 M754.05,547.8 Q753.95,546.1 753.7,544 753.2,539.9 753.2,539.85 M754.05,547.8 Q754.75,551.75 756.05,556.15 757.35,560.8 758.7,564.1 L758.95,564.1" test="Text - Gnaw Jean Reno's great rear"/>
      <path id="Layer26_0_1_STROKES" stroke="#FFF" stroke-width="2" stroke-linejoin="round" stroke-linecap="round" fill="none" d="M762.45,535.6 Q765,539.35 767.1,547.9 768.15,552.25 768.95,556.85 768.9,554.8 767.95,549.35 766.95,543.5 766.95,543 766.95,536.5 778.2,535.9 778.45,535.85 778.7,535.85 M768.95,556.85 L768.95,557.1" test="Text - Gnaw Jean Reno's great rear"/>
    </g>
  </g>
</svg>