<?xml version="1.0" encoding="utf-8"?>
<svg id="EdithAnim12" image-rendering="inherit" baseProfile="basic" version="1.1" x="0px" y="0px" width="800" height="600" xmlns="http://www.w3.org/2000/svg" xmlns:xlink="http://www.w3.org/1999/xlink">
  <g id="Textsf8r1" overflow="visible">
    <g id="Text-Say:">
      <path id="Layer1_0_1_STROKES" stroke="#FFF" stroke-width="2" stroke-linejoin="round" stroke-linecap="round" fill="none" d="M134.75,77.55 Q135,72.75 130.7,69 126.45,65.3 121.15,65.3 118.6,65.3 116.3,66.4 114.5,67.25 111,69.8 109.2,71.1 108.2,73.85 107.5,75.9 107.5,77.55 107.5,81.35 111.75,88.6 116.65,97.05 122.25,99.3 130,102.4 133,106.15 136.5,110.45 136.5,118.55 136.5,129.65 130,135.8 123.2,142.3 110.25,142.3 104.05,142.3 101,135.55 99,131.1 99,126.55 99,124.8 99.1,124.5" test="Text Say:"/>
      <path id="Layer1_0_2_STROKES" stroke="#F90" stroke-width="2" stroke-linejoin="round" stroke-linecap="round" fill="none" d="M99.1,124.5 Q99.35,124.35 99.5,124.05" test="Text Say:"/>
      <path id="Layer2_0_1_STROKES" stroke="#FFF" stroke-width="2" stroke-linejoin="round" stroke-linecap="round" fill="none" d="M186.5,96.8 L186.5,97.05 Q186.7,99.15 186.45,101.35 186.4,105.25 186.25,111.55 186.25,117.4 186.35,118.5 186.55,120.4 187.75,123.8 L187.25,123.8 M184.75,99.05 Q184.05,97 181.8,95.7 179.9,94.55 178.25,94.55 167.25,94.55 161,99.8 154,105.7 154,117.65 154,121.75 157,124.3 159.7,126.55 163.4,126.55 173.65,126.55 180.9,115.4 185.7,108 186.45,101.35" test="Text Say:"/>
      <path id="Layer3_0_1_STROKES" stroke="#FFF" stroke-width="2" stroke-linejoin="round" stroke-linecap="round" fill="none" d="M205.5,98.8 Q204.95,99.75 204.8,101.15 204.75,101.75 204.75,104.05 204.75,115.4 208.25,122.05 212.2,129.55 220,129.55 228.05,129.55 230.8,122.85 232.3,119.2 234.25,103.3 L234.25,103.05 Q235.15,117.4 238,124.8 240.5,131.25 240.5,137.7 240.5,152.7 235.5,158.55 230.2,164.8 216.25,164.8 211.85,164.8 207.3,162.7 203.85,161.05 202.75,159.8 L203,159.55" test="Text Say:"/>
      <path id="Layer4_0_1_STROKES" stroke="#FFF" stroke-width="2" stroke-linejoin="round" stroke-linecap="round" fill="none" d="M260.25,133.05 L263,133.05 Q262.75,133.3 262.5,133.3" test="Text Say:"/>
      <path id="Layer5_0_1_STROKES" stroke="#FFF" stroke-width="2" stroke-linejoin="round" stroke-linecap="round" fill="none" d="M258.5,93.8 L261.25,93.8" test="Text Say:"/>
    </g>
  </g>
</svg>